<?xml version="1.0" encoding="UTF-8" standalone="no"?>
<!DOCTYPE svg PUBLIC "-//W3C//DTD SVG 1.1//EN" "http://www.w3.org/Graphics/SVG/1.1/DTD/svg11.dtd">
<svg width="100%" height="100%" viewBox="0 0 84 11" version="1.1" xmlns="http://www.w3.org/2000/svg" xmlns:xlink="http://www.w3.org/1999/xlink" xml:space="preserve" xmlns:serif="http://www.serif.com/" style="fill-rule:evenodd;clip-rule:evenodd;stroke-linejoin:round;stroke-miterlimit:1.41421;">
    <g transform="matrix(1,0,0,1,-919,-14)">
        <g transform="matrix(1,0,0,1,918,24)">
            <g id="Branch-Office">
                <path d="M8.141,-4.228C8.454,-3.817 8.61,-3.304 8.61,-2.688C8.61,-1.82 8.325,-1.155 7.756,-0.693C7.187,-0.231 6.379,0 5.334,0L1.806,0C1.629,0 1.486,-0.051 1.379,-0.154C1.272,-0.257 1.218,-0.392 1.218,-0.56L1.218,-9.31C1.218,-9.478 1.272,-9.613 1.379,-9.716C1.486,-9.819 1.629,-9.87 1.806,-9.87L5.18,-9.87C6.197,-9.87 6.986,-9.646 7.546,-9.198C8.106,-8.75 8.386,-8.115 8.386,-7.294C8.386,-6.762 8.248,-6.305 7.973,-5.922C7.698,-5.539 7.313,-5.255 6.818,-5.068C7.387,-4.919 7.828,-4.639 8.141,-4.228ZM2.352,-5.488L5.012,-5.488C5.749,-5.488 6.307,-5.637 6.685,-5.936C7.063,-6.235 7.252,-6.669 7.252,-7.238C7.252,-8.358 6.505,-8.918 5.012,-8.918L2.352,-8.918L2.352,-5.488ZM6.937,-1.379C7.306,-1.664 7.49,-2.109 7.49,-2.716C7.49,-3.929 6.734,-4.536 5.222,-4.536L2.352,-4.536L2.352,-0.952L5.222,-0.952C5.997,-0.952 6.568,-1.094 6.937,-1.379Z" style="fill:rgb(245,245,245);fill-rule:nonzero;"/>
                <path d="M14.443,-6.482C14.443,-6.333 14.401,-6.214 14.317,-6.125C14.233,-6.036 14.089,-5.983 13.883,-5.964L13.463,-5.922C12.838,-5.866 12.374,-5.644 12.07,-5.257C11.767,-4.87 11.615,-4.415 11.615,-3.892L11.615,-0.49C11.615,-0.303 11.564,-0.163 11.461,-0.07C11.359,0.023 11.223,0.07 11.055,0.07C10.887,0.07 10.75,0.021 10.642,-0.077C10.535,-0.175 10.481,-0.313 10.481,-0.49L10.481,-6.398C10.481,-6.575 10.537,-6.713 10.649,-6.811C10.761,-6.909 10.897,-6.958 11.055,-6.958C11.205,-6.958 11.331,-6.909 11.433,-6.811C11.536,-6.713 11.587,-6.58 11.587,-6.412L11.587,-5.628C11.783,-6.039 12.061,-6.351 12.42,-6.566C12.78,-6.781 13.193,-6.907 13.659,-6.944L13.855,-6.958C14.247,-6.986 14.443,-6.827 14.443,-6.482Z" style="fill:rgb(245,245,245);fill-rule:nonzero;"/>
                <path d="M20.71,-4.298L20.71,-0.49C20.71,-0.322 20.661,-0.187 20.563,-0.084C20.465,0.019 20.332,0.07 20.164,0.07C19.996,0.07 19.861,0.019 19.758,-0.084C19.656,-0.187 19.604,-0.322 19.604,-0.49L19.604,-1.162C19.427,-0.761 19.156,-0.45 18.792,-0.231C18.428,-0.012 18.008,0.098 17.532,0.098C17.094,0.098 16.69,0.009 16.321,-0.168C15.953,-0.345 15.661,-0.593 15.446,-0.91C15.232,-1.227 15.124,-1.577 15.124,-1.96C15.124,-2.473 15.255,-2.872 15.516,-3.157C15.778,-3.442 16.207,-3.647 16.804,-3.773C17.402,-3.899 18.232,-3.962 19.296,-3.962L19.604,-3.962L19.604,-4.424C19.604,-4.984 19.49,-5.395 19.261,-5.656C19.033,-5.917 18.662,-6.048 18.148,-6.048C17.514,-6.048 16.87,-5.875 16.216,-5.53C15.964,-5.371 15.787,-5.292 15.684,-5.292C15.572,-5.292 15.479,-5.334 15.404,-5.418C15.33,-5.502 15.292,-5.609 15.292,-5.74C15.292,-5.871 15.332,-5.985 15.411,-6.083C15.491,-6.181 15.619,-6.281 15.796,-6.384C16.123,-6.571 16.494,-6.718 16.909,-6.825C17.325,-6.932 17.738,-6.986 18.148,-6.986C19.856,-6.986 20.71,-6.09 20.71,-4.298ZM19.065,-1.365C19.425,-1.743 19.604,-2.231 19.604,-2.828L19.604,-3.234L19.352,-3.234C18.531,-3.234 17.906,-3.199 17.476,-3.129C17.047,-3.059 16.741,-2.942 16.559,-2.779C16.377,-2.616 16.286,-2.375 16.286,-2.058C16.286,-1.694 16.419,-1.393 16.685,-1.155C16.951,-0.917 17.285,-0.798 17.686,-0.798C18.246,-0.798 18.706,-0.987 19.065,-1.365Z" style="fill:rgb(245,245,245);fill-rule:nonzero;"/>
                <path d="M28.658,-4.284L28.658,-0.49C28.658,-0.313 28.609,-0.175 28.511,-0.077C28.413,0.021 28.275,0.07 28.098,0.07C27.92,0.07 27.78,0.021 27.678,-0.077C27.575,-0.175 27.524,-0.313 27.524,-0.49L27.524,-4.214C27.524,-4.849 27.4,-5.311 27.153,-5.6C26.905,-5.889 26.511,-6.034 25.97,-6.034C25.344,-6.034 24.845,-5.843 24.472,-5.46C24.098,-5.077 23.912,-4.559 23.912,-3.906L23.912,-0.49C23.912,-0.313 23.863,-0.175 23.765,-0.077C23.667,0.021 23.529,0.07 23.352,0.07C23.174,0.07 23.034,0.021 22.932,-0.077C22.829,-0.175 22.778,-0.313 22.778,-0.49L22.778,-6.398C22.778,-6.566 22.829,-6.701 22.932,-6.804C23.034,-6.907 23.174,-6.958 23.352,-6.958C23.52,-6.958 23.653,-6.907 23.751,-6.804C23.849,-6.701 23.898,-6.571 23.898,-6.412L23.898,-5.698C24.122,-6.118 24.434,-6.438 24.836,-6.657C25.237,-6.876 25.694,-6.986 26.208,-6.986C27.841,-6.986 28.658,-6.085 28.658,-4.284Z" style="fill:rgb(245,245,245);fill-rule:nonzero;"/>
                <path d="M31.852,-0.336C31.362,-0.625 30.984,-1.036 30.718,-1.568C30.452,-2.1 30.319,-2.716 30.319,-3.416C30.319,-4.116 30.457,-4.737 30.732,-5.278C31.007,-5.819 31.392,-6.239 31.887,-6.538C32.382,-6.837 32.951,-6.986 33.595,-6.986C33.95,-6.986 34.302,-6.937 34.652,-6.839C35.002,-6.741 35.308,-6.599 35.569,-6.412C35.737,-6.3 35.856,-6.19 35.926,-6.083C35.996,-5.976 36.031,-5.857 36.031,-5.726C36.031,-5.595 35.996,-5.488 35.926,-5.404C35.856,-5.32 35.765,-5.278 35.653,-5.278C35.588,-5.278 35.518,-5.297 35.443,-5.334C35.368,-5.371 35.305,-5.409 35.254,-5.446C35.203,-5.483 35.168,-5.507 35.149,-5.516C34.906,-5.675 34.675,-5.801 34.456,-5.894C34.237,-5.987 33.968,-6.034 33.651,-6.034C32.97,-6.034 32.44,-5.803 32.062,-5.341C31.684,-4.879 31.495,-4.237 31.495,-3.416C31.495,-2.595 31.684,-1.96 32.062,-1.512C32.44,-1.064 32.97,-0.84 33.651,-0.84C33.968,-0.84 34.241,-0.887 34.47,-0.98C34.699,-1.073 34.93,-1.199 35.163,-1.358C35.266,-1.423 35.364,-1.479 35.457,-1.526C35.55,-1.573 35.63,-1.596 35.695,-1.596C35.798,-1.596 35.884,-1.554 35.954,-1.47C36.024,-1.386 36.059,-1.279 36.059,-1.148C36.059,-1.027 36.026,-0.917 35.961,-0.819C35.896,-0.721 35.774,-0.611 35.597,-0.49C35.336,-0.313 35.021,-0.17 34.652,-0.063C34.283,0.044 33.912,0.098 33.539,0.098C32.904,0.098 32.342,-0.047 31.852,-0.336Z" style="fill:rgb(245,245,245);fill-rule:nonzero;"/>
                <path d="M42.69,-6.307C43.101,-5.854 43.306,-5.18 43.306,-4.284L43.306,-0.49C43.306,-0.313 43.255,-0.175 43.152,-0.077C43.049,0.021 42.914,0.07 42.746,0.07C42.569,0.07 42.429,0.021 42.326,-0.077C42.223,-0.175 42.172,-0.313 42.172,-0.49L42.172,-4.256C42.172,-4.863 42.048,-5.311 41.801,-5.6C41.554,-5.889 41.159,-6.034 40.618,-6.034C39.993,-6.034 39.493,-5.843 39.12,-5.46C38.747,-5.077 38.56,-4.559 38.56,-3.906L38.56,-0.49C38.56,-0.313 38.511,-0.175 38.413,-0.077C38.315,0.021 38.177,0.07 38,0.07C37.823,0.07 37.683,0.021 37.58,-0.077C37.477,-0.175 37.426,-0.313 37.426,-0.49L37.426,-9.394C37.426,-9.553 37.48,-9.683 37.587,-9.786C37.694,-9.889 37.832,-9.94 38,-9.94C38.177,-9.94 38.315,-9.891 38.413,-9.793C38.511,-9.695 38.56,-9.562 38.56,-9.394L38.56,-5.726C38.784,-6.137 39.097,-6.449 39.498,-6.664C39.899,-6.879 40.357,-6.986 40.87,-6.986C41.673,-6.986 42.279,-6.76 42.69,-6.307Z" style="fill:rgb(245,245,245);fill-rule:nonzero;"/>
                <path d="M50.891,-0.504C50.215,-0.915 49.694,-1.498 49.33,-2.254C48.966,-3.01 48.784,-3.901 48.784,-4.928C48.784,-5.964 48.964,-6.862 49.323,-7.623C49.683,-8.384 50.201,-8.967 50.877,-9.373C51.554,-9.779 52.354,-9.982 53.278,-9.982C54.202,-9.982 55.003,-9.779 55.679,-9.373C56.356,-8.967 56.874,-8.384 57.233,-7.623C57.593,-6.862 57.772,-5.969 57.772,-4.942C57.772,-3.915 57.59,-3.022 57.226,-2.261C56.862,-1.5 56.342,-0.915 55.665,-0.504C54.989,-0.093 54.193,0.112 53.278,0.112C52.364,0.112 51.568,-0.093 50.891,-0.504ZM55.721,-1.925C56.305,-2.63 56.596,-3.635 56.596,-4.942C56.596,-6.249 56.307,-7.252 55.728,-7.952C55.15,-8.652 54.333,-9.002 53.278,-9.002C52.233,-9.002 51.419,-8.65 50.835,-7.945C50.252,-7.24 49.96,-6.239 49.96,-4.942C49.96,-3.645 50.252,-2.641 50.835,-1.932C51.419,-1.223 52.233,-0.868 53.278,-0.868C54.324,-0.868 55.138,-1.22 55.721,-1.925Z" style="fill:rgb(245,245,245);fill-rule:nonzero;"/>
                <path d="M61.562,-8.505C61.31,-8.23 61.184,-7.817 61.184,-7.266L61.184,-6.818L62.738,-6.818C62.896,-6.818 63.018,-6.776 63.102,-6.692C63.186,-6.608 63.228,-6.496 63.228,-6.356C63.228,-6.216 63.186,-6.109 63.102,-6.034C63.018,-5.959 62.896,-5.922 62.738,-5.922L61.184,-5.922L61.184,-0.49C61.184,-0.313 61.13,-0.175 61.023,-0.077C60.915,0.021 60.782,0.07 60.624,0.07C60.456,0.07 60.318,0.021 60.211,-0.077C60.103,-0.175 60.05,-0.313 60.05,-0.49L60.05,-5.922L59.112,-5.922C58.953,-5.922 58.829,-5.962 58.741,-6.041C58.652,-6.12 58.608,-6.225 58.608,-6.356C58.608,-6.496 58.652,-6.608 58.741,-6.692C58.829,-6.776 58.953,-6.818 59.112,-6.818L60.05,-6.818L60.05,-7.07C60.05,-7.91 60.26,-8.57 60.68,-9.051C61.1,-9.532 61.702,-9.8 62.486,-9.856L62.85,-9.884C63.092,-9.903 63.267,-9.879 63.375,-9.814C63.482,-9.749 63.536,-9.632 63.536,-9.464C63.536,-9.193 63.372,-9.039 63.046,-9.002L62.682,-8.974C62.187,-8.937 61.814,-8.78 61.562,-8.505Z" style="fill:rgb(245,245,245);fill-rule:nonzero;"/>
                <path d="M69.845,-6.692C69.929,-6.608 69.971,-6.496 69.971,-6.356L69.971,-0.49C69.971,-0.313 69.917,-0.175 69.81,-0.077C69.703,0.021 69.57,0.07 69.411,0.07C69.243,0.07 69.105,0.021 68.998,-0.077C68.891,-0.175 68.837,-0.313 68.837,-0.49L68.837,-5.922L65.771,-5.922L65.771,-0.49C65.771,-0.313 65.717,-0.175 65.61,-0.077C65.503,0.021 65.37,0.07 65.211,0.07C65.043,0.07 64.905,0.021 64.798,-0.077C64.691,-0.175 64.637,-0.313 64.637,-0.49L64.637,-5.922L63.699,-5.922C63.54,-5.922 63.417,-5.962 63.328,-6.041C63.239,-6.12 63.195,-6.225 63.195,-6.356C63.195,-6.496 63.239,-6.608 63.328,-6.692C63.417,-6.776 63.54,-6.818 63.699,-6.818L64.637,-6.818L64.637,-7.056C64.637,-7.896 64.847,-8.556 65.267,-9.037C65.687,-9.518 66.289,-9.791 67.073,-9.856L67.409,-9.884C67.857,-9.921 68.081,-9.781 68.081,-9.464C68.081,-9.193 67.922,-9.039 67.605,-9.002L67.269,-8.974C66.774,-8.937 66.401,-8.78 66.149,-8.505C65.897,-8.23 65.771,-7.817 65.771,-7.266L65.771,-6.818L69.481,-6.818C69.64,-6.818 69.761,-6.776 69.845,-6.692ZM69.95,-9.646C70.095,-9.515 70.167,-9.347 70.167,-9.142C70.167,-8.927 70.097,-8.755 69.957,-8.624C69.817,-8.493 69.635,-8.428 69.411,-8.428C69.187,-8.428 69.005,-8.493 68.865,-8.624C68.725,-8.755 68.655,-8.927 68.655,-9.142C68.655,-9.347 68.725,-9.515 68.865,-9.646C69.005,-9.777 69.187,-9.842 69.411,-9.842C69.626,-9.842 69.805,-9.777 69.95,-9.646Z" style="fill:rgb(245,245,245);fill-rule:nonzero;"/>
                <path d="M73.207,-0.336C72.717,-0.625 72.339,-1.036 72.073,-1.568C71.807,-2.1 71.674,-2.716 71.674,-3.416C71.674,-4.116 71.812,-4.737 72.087,-5.278C72.362,-5.819 72.747,-6.239 73.242,-6.538C73.737,-6.837 74.306,-6.986 74.95,-6.986C75.305,-6.986 75.657,-6.937 76.007,-6.839C76.357,-6.741 76.663,-6.599 76.924,-6.412C77.092,-6.3 77.211,-6.19 77.281,-6.083C77.351,-5.976 77.386,-5.857 77.386,-5.726C77.386,-5.595 77.351,-5.488 77.281,-5.404C77.211,-5.32 77.12,-5.278 77.008,-5.278C76.943,-5.278 76.873,-5.297 76.798,-5.334C76.723,-5.371 76.66,-5.409 76.609,-5.446C76.558,-5.483 76.523,-5.507 76.504,-5.516C76.261,-5.675 76.03,-5.801 75.811,-5.894C75.592,-5.987 75.323,-6.034 75.006,-6.034C74.325,-6.034 73.795,-5.803 73.417,-5.341C73.039,-4.879 72.85,-4.237 72.85,-3.416C72.85,-2.595 73.039,-1.96 73.417,-1.512C73.795,-1.064 74.325,-0.84 75.006,-0.84C75.323,-0.84 75.596,-0.887 75.825,-0.98C76.054,-1.073 76.285,-1.199 76.518,-1.358C76.621,-1.423 76.719,-1.479 76.812,-1.526C76.905,-1.573 76.985,-1.596 77.05,-1.596C77.153,-1.596 77.239,-1.554 77.309,-1.47C77.379,-1.386 77.414,-1.279 77.414,-1.148C77.414,-1.027 77.381,-0.917 77.316,-0.819C77.251,-0.721 77.129,-0.611 76.952,-0.49C76.691,-0.313 76.376,-0.17 76.007,-0.063C75.638,0.044 75.267,0.098 74.894,0.098C74.259,0.098 73.697,-0.047 73.207,-0.336Z" style="fill:rgb(245,245,245);fill-rule:nonzero;"/>
                <path d="M84.325,-1.456C84.4,-1.372 84.437,-1.265 84.437,-1.134C84.437,-0.901 84.274,-0.686 83.947,-0.49C83.611,-0.294 83.257,-0.147 82.883,-0.049C82.51,0.049 82.146,0.098 81.791,0.098C80.737,0.098 79.904,-0.215 79.292,-0.84C78.681,-1.465 78.375,-2.329 78.375,-3.43C78.375,-4.13 78.511,-4.748 78.781,-5.285C79.052,-5.822 79.432,-6.239 79.922,-6.538C80.412,-6.837 80.97,-6.986 81.595,-6.986C82.482,-6.986 83.187,-6.697 83.709,-6.118C84.232,-5.539 84.493,-4.755 84.493,-3.766C84.493,-3.579 84.456,-3.444 84.381,-3.36C84.307,-3.276 84.185,-3.234 84.017,-3.234L79.509,-3.234C79.593,-1.629 80.354,-0.826 81.791,-0.826C82.155,-0.826 82.468,-0.875 82.729,-0.973C82.991,-1.071 83.271,-1.204 83.569,-1.372C83.812,-1.512 83.975,-1.582 84.059,-1.582C84.162,-1.582 84.251,-1.54 84.325,-1.456ZM80.174,-5.544C79.815,-5.171 79.603,-4.643 79.537,-3.962L83.499,-3.962C83.481,-4.653 83.308,-5.182 82.981,-5.551C82.655,-5.92 82.197,-6.104 81.609,-6.104C81.012,-6.104 80.534,-5.917 80.174,-5.544Z" style="fill:rgb(245,245,245);fill-rule:nonzero;"/>
            </g>
        </g>
    </g>
</svg>
