<?xml version="1.0" encoding="UTF-8"?>
<svg width="184px" height="72px" viewBox="0 0 184 72" version="1.1" xmlns="http://www.w3.org/2000/svg" xmlns:xlink="http://www.w3.org/1999/xlink">
    <!-- Generator: Sketch 50.2 (55047) - http://www.bohemiancoding.com/sketch -->
    <title>Group 35</title>
    <desc>Created with Sketch.</desc>
    <defs></defs>
    <g id="Page-2" stroke="none" stroke-width="1" fill="none" fill-rule="evenodd">
        <g id="Group-35" transform="translate(2.000000, 0.000000)">
            <g id="Group-33-Copy-2" transform="translate(90.000000, 35.000000) rotate(90.000000) translate(-90.000000, -35.000000) translate(55.000000, -55.000000)" stroke="#46AFE8" stroke-width="4">
                <path d="M0,90 L69.0018116,90" id="Path-47"></path>
                <path d="M0,180 L18.5047438,180 C22.9230218,180 26.5047438,176.418278 26.5047438,172 L26.5047438,94.6820415 C26.5047438,92.0962214 28.6009652,90 31.1867854,90" id="Path-50"></path>
                <path d="M0,90 L18.5047438,90 C22.9230218,90 26.5047438,86.418278 26.5047438,82 L26.5047438,4.68204155 C26.5047438,2.0962214 28.6009652,5.06834675e-15 31.1867854,0" id="Path-50-Copy" transform="translate(15.593393, 45.000000) scale(1, -1) translate(-15.593393, -45.000000) "></path>
            </g>
            <path d="M95,71.6153873 C91.7540402,70.7520889 88.4012376,70.3107309 85,70.3646534 L85,42 C85,39.2385763 87.2385763,37 90,37 C92.7614237,37 95,39.2385763 95,42 L95,71.6153873 Z" id="Combined-Shape" fill="#46AFE8"></path>
        </g>
    </g>
</svg>