<?xml version="1.0" encoding="UTF-8" standalone="no"?>
<!DOCTYPE svg PUBLIC "-//W3C//DTD SVG 1.1//EN" "http://www.w3.org/Graphics/SVG/1.1/DTD/svg11.dtd">
<svg width="100%" height="100%" viewBox="0 0 64 11" version="1.1" xmlns="http://www.w3.org/2000/svg" xmlns:xlink="http://www.w3.org/1999/xlink" xml:space="preserve" xmlns:serif="http://www.serif.com/" style="fill-rule:evenodd;clip-rule:evenodd;stroke-linejoin:round;stroke-miterlimit:1.41421;">
    <g transform="matrix(1,0,0,1,-54,-145)">
        <g transform="matrix(1,0,0,1,53,155)">
            <g id="File-server">
                <path d="M1.372,-0.091C1.269,-0.198 1.218,-0.341 1.218,-0.518L1.218,-9.31C1.218,-9.478 1.272,-9.613 1.379,-9.716C1.486,-9.819 1.629,-9.87 1.806,-9.87L6.902,-9.87C7.07,-9.87 7.201,-9.828 7.294,-9.744C7.387,-9.66 7.434,-9.539 7.434,-9.38C7.434,-9.231 7.387,-9.114 7.294,-9.03C7.201,-8.946 7.07,-8.904 6.902,-8.904L2.352,-8.904L2.352,-5.502L6.622,-5.502C6.79,-5.502 6.921,-5.46 7.014,-5.376C7.107,-5.292 7.154,-5.171 7.154,-5.012C7.154,-4.863 7.107,-4.746 7.014,-4.662C6.921,-4.578 6.79,-4.536 6.622,-4.536L2.352,-4.536L2.352,-0.518C2.352,-0.341 2.303,-0.198 2.205,-0.091C2.107,0.016 1.969,0.07 1.792,0.07C1.615,0.07 1.475,0.016 1.372,-0.091Z" style="fill-rule:nonzero;"/>
                <path d="M9.004,-0.077C8.897,-0.175 8.843,-0.313 8.843,-0.49L8.843,-6.398C8.843,-6.575 8.897,-6.713 9.004,-6.811C9.112,-6.909 9.249,-6.958 9.417,-6.958C9.585,-6.958 9.721,-6.909 9.823,-6.811C9.926,-6.713 9.977,-6.575 9.977,-6.398L9.977,-0.49C9.977,-0.303 9.926,-0.163 9.823,-0.07C9.721,0.023 9.585,0.07 9.417,0.07C9.249,0.07 9.112,0.021 9.004,-0.077ZM8.871,-8.624C8.731,-8.755 8.661,-8.927 8.661,-9.142C8.661,-9.347 8.731,-9.515 8.871,-9.646C9.011,-9.777 9.193,-9.842 9.417,-9.842C9.641,-9.842 9.823,-9.777 9.963,-9.646C10.103,-9.515 10.173,-9.347 10.173,-9.142C10.173,-8.927 10.103,-8.755 9.963,-8.624C9.823,-8.493 9.641,-8.428 9.417,-8.428C9.193,-8.428 9.011,-8.493 8.871,-8.624Z" style="fill-rule:nonzero;"/>
                <path d="M12.247,-0.077C12.14,-0.175 12.086,-0.313 12.086,-0.49L12.086,-9.38C12.086,-9.557 12.14,-9.695 12.247,-9.793C12.355,-9.891 12.492,-9.94 12.66,-9.94C12.819,-9.94 12.952,-9.891 13.059,-9.793C13.167,-9.695 13.22,-9.557 13.22,-9.38L13.22,-0.49C13.22,-0.313 13.167,-0.175 13.059,-0.077C12.952,0.021 12.819,0.07 12.66,0.07C12.492,0.07 12.355,0.021 12.247,-0.077Z" style="fill-rule:nonzero;"/>
                <path d="M20.874,-1.456C20.948,-1.372 20.986,-1.265 20.986,-1.134C20.986,-0.901 20.822,-0.686 20.496,-0.49C20.16,-0.294 19.805,-0.147 19.432,-0.049C19.058,0.049 18.694,0.098 18.34,0.098C17.285,0.098 16.452,-0.215 15.841,-0.84C15.229,-1.465 14.924,-2.329 14.924,-3.43C14.924,-4.13 15.059,-4.748 15.33,-5.285C15.6,-5.822 15.981,-6.239 16.471,-6.538C16.961,-6.837 17.518,-6.986 18.144,-6.986C19.03,-6.986 19.735,-6.697 20.258,-6.118C20.78,-5.539 21.042,-4.755 21.042,-3.766C21.042,-3.579 21.004,-3.444 20.93,-3.36C20.855,-3.276 20.734,-3.234 20.566,-3.234L16.058,-3.234C16.142,-1.629 16.902,-0.826 18.34,-0.826C18.704,-0.826 19.016,-0.875 19.278,-0.973C19.539,-1.071 19.819,-1.204 20.118,-1.372C20.36,-1.512 20.524,-1.582 20.608,-1.582C20.71,-1.582 20.799,-1.54 20.874,-1.456ZM16.723,-5.544C16.363,-5.171 16.151,-4.643 16.086,-3.962L20.048,-3.962C20.029,-4.653 19.856,-5.182 19.53,-5.551C19.203,-5.92 18.746,-6.104 18.158,-6.104C17.56,-6.104 17.082,-5.917 16.723,-5.544Z" style="fill-rule:nonzero;"/>
                <path d="M27.381,-0.056C26.994,-0.159 26.651,-0.303 26.352,-0.49C26.184,-0.602 26.065,-0.707 25.995,-0.805C25.925,-0.903 25.89,-1.022 25.89,-1.162C25.89,-1.283 25.925,-1.384 25.995,-1.463C26.065,-1.542 26.156,-1.582 26.268,-1.582C26.38,-1.582 26.543,-1.512 26.758,-1.372C27.038,-1.204 27.316,-1.071 27.591,-0.973C27.866,-0.875 28.209,-0.826 28.62,-0.826C29.124,-0.826 29.516,-0.915 29.796,-1.092C30.076,-1.269 30.216,-1.526 30.216,-1.862C30.216,-2.067 30.165,-2.233 30.062,-2.359C29.959,-2.485 29.782,-2.597 29.53,-2.695C29.278,-2.793 28.909,-2.893 28.424,-2.996C27.603,-3.173 27.015,-3.411 26.66,-3.71C26.305,-4.009 26.128,-4.415 26.128,-4.928C26.128,-5.329 26.24,-5.684 26.464,-5.992C26.688,-6.3 26.998,-6.543 27.395,-6.72C27.792,-6.897 28.242,-6.986 28.746,-6.986C29.11,-6.986 29.462,-6.937 29.803,-6.839C30.144,-6.741 30.445,-6.603 30.706,-6.426C31.023,-6.202 31.182,-5.969 31.182,-5.726C31.182,-5.605 31.145,-5.502 31.07,-5.418C30.995,-5.334 30.907,-5.292 30.804,-5.292C30.692,-5.292 30.524,-5.371 30.3,-5.53C30.039,-5.698 29.791,-5.829 29.558,-5.922C29.325,-6.015 29.035,-6.062 28.69,-6.062C28.251,-6.062 27.899,-5.964 27.633,-5.768C27.367,-5.572 27.234,-5.311 27.234,-4.984C27.234,-4.779 27.283,-4.613 27.381,-4.487C27.479,-4.361 27.642,-4.249 27.871,-4.151C28.1,-4.053 28.429,-3.957 28.858,-3.864C29.493,-3.724 29.985,-3.57 30.335,-3.402C30.685,-3.234 30.935,-3.029 31.084,-2.786C31.233,-2.543 31.308,-2.235 31.308,-1.862C31.308,-1.274 31.061,-0.8 30.566,-0.441C30.071,-0.082 29.418,0.098 28.606,0.098C28.177,0.098 27.768,0.047 27.381,-0.056Z" style="fill-rule:nonzero;"/>
                <path d="M38.569,-1.456C38.644,-1.372 38.681,-1.265 38.681,-1.134C38.681,-0.901 38.518,-0.686 38.191,-0.49C37.855,-0.294 37.501,-0.147 37.127,-0.049C36.754,0.049 36.39,0.098 36.035,0.098C34.981,0.098 34.148,-0.215 33.536,-0.84C32.925,-1.465 32.619,-2.329 32.619,-3.43C32.619,-4.13 32.755,-4.748 33.025,-5.285C33.296,-5.822 33.676,-6.239 34.166,-6.538C34.656,-6.837 35.214,-6.986 35.839,-6.986C36.726,-6.986 37.431,-6.697 37.953,-6.118C38.476,-5.539 38.737,-4.755 38.737,-3.766C38.737,-3.579 38.7,-3.444 38.625,-3.36C38.551,-3.276 38.429,-3.234 38.261,-3.234L33.753,-3.234C33.837,-1.629 34.598,-0.826 36.035,-0.826C36.399,-0.826 36.712,-0.875 36.973,-0.973C37.235,-1.071 37.515,-1.204 37.813,-1.372C38.056,-1.512 38.219,-1.582 38.303,-1.582C38.406,-1.582 38.495,-1.54 38.569,-1.456ZM34.418,-5.544C34.059,-5.171 33.847,-4.643 33.781,-3.962L37.743,-3.962C37.725,-4.653 37.552,-5.182 37.225,-5.551C36.899,-5.92 36.441,-6.104 35.853,-6.104C35.256,-6.104 34.778,-5.917 34.418,-5.544Z" style="fill-rule:nonzero;"/>
                <path d="M44.36,-6.482C44.36,-6.333 44.318,-6.214 44.234,-6.125C44.15,-6.036 44.006,-5.983 43.8,-5.964L43.38,-5.922C42.755,-5.866 42.291,-5.644 41.987,-5.257C41.684,-4.87 41.532,-4.415 41.532,-3.892L41.532,-0.49C41.532,-0.303 41.481,-0.163 41.378,-0.07C41.276,0.023 41.14,0.07 40.972,0.07C40.804,0.07 40.667,0.021 40.559,-0.077C40.452,-0.175 40.398,-0.313 40.398,-0.49L40.398,-6.398C40.398,-6.575 40.454,-6.713 40.566,-6.811C40.678,-6.909 40.814,-6.958 40.972,-6.958C41.122,-6.958 41.248,-6.909 41.35,-6.811C41.453,-6.713 41.504,-6.58 41.504,-6.412L41.504,-5.628C41.7,-6.039 41.978,-6.351 42.337,-6.566C42.697,-6.781 43.11,-6.907 43.576,-6.944L43.772,-6.958C44.164,-6.986 44.36,-6.827 44.36,-6.482Z" style="fill-rule:nonzero;"/>
                <path d="M51.16,-6.944C51.3,-6.944 51.426,-6.897 51.538,-6.804C51.65,-6.711 51.706,-6.594 51.706,-6.454C51.706,-6.37 51.687,-6.295 51.65,-6.23L48.92,-0.35C48.864,-0.229 48.78,-0.133 48.668,-0.063C48.556,0.007 48.434,0.042 48.304,0.042C48.182,0.042 48.066,0.007 47.954,-0.063C47.842,-0.133 47.753,-0.229 47.688,-0.35L44.972,-6.23C44.934,-6.295 44.916,-6.365 44.916,-6.44C44.916,-6.58 44.979,-6.701 45.105,-6.804C45.231,-6.907 45.368,-6.958 45.518,-6.958C45.611,-6.958 45.702,-6.93 45.791,-6.874C45.879,-6.818 45.947,-6.739 45.994,-6.636L48.332,-1.386L50.67,-6.608C50.772,-6.832 50.936,-6.944 51.16,-6.944Z" style="fill-rule:nonzero;"/>
                <path d="M58.407,-1.456C58.482,-1.372 58.519,-1.265 58.519,-1.134C58.519,-0.901 58.356,-0.686 58.029,-0.49C57.693,-0.294 57.338,-0.147 56.965,-0.049C56.592,0.049 56.228,0.098 55.873,0.098C54.818,0.098 53.985,-0.215 53.374,-0.84C52.763,-1.465 52.457,-2.329 52.457,-3.43C52.457,-4.13 52.592,-4.748 52.863,-5.285C53.134,-5.822 53.514,-6.239 54.004,-6.538C54.494,-6.837 55.052,-6.986 55.677,-6.986C56.564,-6.986 57.268,-6.697 57.791,-6.118C58.314,-5.539 58.575,-4.755 58.575,-3.766C58.575,-3.579 58.538,-3.444 58.463,-3.36C58.388,-3.276 58.267,-3.234 58.099,-3.234L53.591,-3.234C53.675,-1.629 54.436,-0.826 55.873,-0.826C56.237,-0.826 56.55,-0.875 56.811,-0.973C57.072,-1.071 57.352,-1.204 57.651,-1.372C57.894,-1.512 58.057,-1.582 58.141,-1.582C58.244,-1.582 58.332,-1.54 58.407,-1.456ZM54.256,-5.544C53.897,-5.171 53.684,-4.643 53.619,-3.962L57.581,-3.962C57.562,-4.653 57.39,-5.182 57.063,-5.551C56.736,-5.92 56.279,-6.104 55.691,-6.104C55.094,-6.104 54.615,-5.917 54.256,-5.544Z" style="fill-rule:nonzero;"/>
                <path d="M64.198,-6.482C64.198,-6.333 64.156,-6.214 64.072,-6.125C63.988,-6.036 63.843,-5.983 63.638,-5.964L63.218,-5.922C62.593,-5.866 62.128,-5.644 61.825,-5.257C61.522,-4.87 61.37,-4.415 61.37,-3.892L61.37,-0.49C61.37,-0.303 61.319,-0.163 61.216,-0.07C61.113,0.023 60.978,0.07 60.81,0.07C60.642,0.07 60.504,0.021 60.397,-0.077C60.29,-0.175 60.236,-0.313 60.236,-0.49L60.236,-6.398C60.236,-6.575 60.292,-6.713 60.404,-6.811C60.516,-6.909 60.651,-6.958 60.81,-6.958C60.959,-6.958 61.085,-6.909 61.188,-6.811C61.291,-6.713 61.342,-6.58 61.342,-6.412L61.342,-5.628C61.538,-6.039 61.816,-6.351 62.175,-6.566C62.534,-6.781 62.947,-6.907 63.414,-6.944L63.61,-6.958C64.002,-6.986 64.198,-6.827 64.198,-6.482Z" style="fill-rule:nonzero;"/>
            </g>
        </g>
    </g>
</svg>
