<?xml version="1.0" encoding="UTF-8" standalone="no"?>
<!DOCTYPE svg PUBLIC "-//W3C//DTD SVG 1.1//EN" "http://www.w3.org/Graphics/SVG/1.1/DTD/svg11.dtd">
<svg width="100%" height="100%" viewBox="0 0 79 13" version="1.1" xmlns="http://www.w3.org/2000/svg" xmlns:xlink="http://www.w3.org/1999/xlink" xml:space="preserve" xmlns:serif="http://www.serif.com/" style="fill-rule:evenodd;clip-rule:evenodd;stroke-linejoin:round;stroke-miterlimit:1.41421;">
    <g transform="matrix(1,0,0,1,-67,-14)">
        <g transform="matrix(1,0,0,1,66,24)">
            <g id="Headquarter">
                <path d="M9.247,-9.779C9.345,-9.672 9.394,-9.529 9.394,-9.352L9.394,-0.518C9.394,-0.341 9.345,-0.198 9.247,-0.091C9.149,0.016 9.011,0.07 8.834,0.07C8.657,0.07 8.517,0.016 8.414,-0.091C8.311,-0.198 8.26,-0.341 8.26,-0.518L8.26,-4.522L2.352,-4.522L2.352,-0.518C2.352,-0.341 2.301,-0.198 2.198,-0.091C2.095,0.016 1.955,0.07 1.778,0.07C1.601,0.07 1.463,0.016 1.365,-0.091C1.267,-0.198 1.218,-0.341 1.218,-0.518L1.218,-9.352C1.218,-9.529 1.267,-9.672 1.365,-9.779C1.463,-9.886 1.601,-9.94 1.778,-9.94C1.955,-9.94 2.095,-9.886 2.198,-9.779C2.301,-9.672 2.352,-9.529 2.352,-9.352L2.352,-5.502L8.26,-5.502L8.26,-9.352C8.26,-9.529 8.311,-9.672 8.414,-9.779C8.517,-9.886 8.657,-9.94 8.834,-9.94C9.011,-9.94 9.149,-9.886 9.247,-9.779Z" style="fill:rgb(245,245,245);fill-rule:nonzero;"/>
                <path d="M17.201,-1.456C17.276,-1.372 17.313,-1.265 17.313,-1.134C17.313,-0.901 17.15,-0.686 16.823,-0.49C16.487,-0.294 16.133,-0.147 15.759,-0.049C15.386,0.049 15.022,0.098 14.667,0.098C13.613,0.098 12.78,-0.215 12.168,-0.84C11.557,-1.465 11.251,-2.329 11.251,-3.43C11.251,-4.13 11.387,-4.748 11.657,-5.285C11.928,-5.822 12.308,-6.239 12.798,-6.538C13.288,-6.837 13.846,-6.986 14.471,-6.986C15.358,-6.986 16.063,-6.697 16.585,-6.118C17.108,-5.539 17.369,-4.755 17.369,-3.766C17.369,-3.579 17.332,-3.444 17.257,-3.36C17.183,-3.276 17.061,-3.234 16.893,-3.234L12.385,-3.234C12.469,-1.629 13.23,-0.826 14.667,-0.826C15.031,-0.826 15.344,-0.875 15.605,-0.973C15.867,-1.071 16.147,-1.204 16.445,-1.372C16.688,-1.512 16.851,-1.582 16.935,-1.582C17.038,-1.582 17.127,-1.54 17.201,-1.456ZM13.05,-5.544C12.691,-5.171 12.479,-4.643 12.413,-3.962L16.375,-3.962C16.357,-4.653 16.184,-5.182 15.857,-5.551C15.531,-5.92 15.073,-6.104 14.485,-6.104C13.888,-6.104 13.41,-5.917 13.05,-5.544Z" style="fill:rgb(245,245,245);fill-rule:nonzero;"/>
                <path d="M24.378,-4.298L24.378,-0.49C24.378,-0.322 24.329,-0.187 24.231,-0.084C24.133,0.019 24,0.07 23.832,0.07C23.664,0.07 23.529,0.019 23.426,-0.084C23.324,-0.187 23.272,-0.322 23.272,-0.49L23.272,-1.162C23.095,-0.761 22.824,-0.45 22.46,-0.231C22.096,-0.012 21.676,0.098 21.2,0.098C20.762,0.098 20.358,0.009 19.989,-0.168C19.621,-0.345 19.329,-0.593 19.114,-0.91C18.9,-1.227 18.792,-1.577 18.792,-1.96C18.792,-2.473 18.923,-2.872 19.184,-3.157C19.446,-3.442 19.875,-3.647 20.472,-3.773C21.07,-3.899 21.9,-3.962 22.964,-3.962L23.272,-3.962L23.272,-4.424C23.272,-4.984 23.158,-5.395 22.929,-5.656C22.701,-5.917 22.33,-6.048 21.816,-6.048C21.182,-6.048 20.538,-5.875 19.884,-5.53C19.632,-5.371 19.455,-5.292 19.352,-5.292C19.24,-5.292 19.147,-5.334 19.072,-5.418C18.998,-5.502 18.96,-5.609 18.96,-5.74C18.96,-5.871 19,-5.985 19.079,-6.083C19.159,-6.181 19.287,-6.281 19.464,-6.384C19.791,-6.571 20.162,-6.718 20.577,-6.825C20.993,-6.932 21.406,-6.986 21.816,-6.986C23.524,-6.986 24.378,-6.09 24.378,-4.298ZM22.733,-1.365C23.093,-1.743 23.272,-2.231 23.272,-2.828L23.272,-3.234L23.02,-3.234C22.199,-3.234 21.574,-3.199 21.144,-3.129C20.715,-3.059 20.409,-2.942 20.227,-2.779C20.045,-2.616 19.954,-2.375 19.954,-2.058C19.954,-1.694 20.087,-1.393 20.353,-1.155C20.619,-0.917 20.953,-0.798 21.354,-0.798C21.914,-0.798 22.374,-0.987 22.733,-1.365Z" style="fill:rgb(245,245,245);fill-rule:nonzero;"/>
                <path d="M32.34,-9.786C32.442,-9.683 32.494,-9.553 32.494,-9.394L32.494,-0.49C32.494,-0.322 32.442,-0.187 32.34,-0.084C32.237,0.019 32.097,0.07 31.92,0.07C31.742,0.07 31.605,0.019 31.507,-0.084C31.409,-0.187 31.36,-0.322 31.36,-0.49L31.36,-1.246C31.154,-0.817 30.853,-0.485 30.457,-0.252C30.06,-0.019 29.596,0.098 29.064,0.098C28.466,0.098 27.939,-0.051 27.482,-0.35C27.024,-0.649 26.67,-1.066 26.418,-1.603C26.166,-2.14 26.04,-2.763 26.04,-3.472C26.04,-4.172 26.166,-4.788 26.418,-5.32C26.67,-5.852 27.024,-6.263 27.482,-6.552C27.939,-6.841 28.466,-6.986 29.064,-6.986C29.596,-6.986 30.06,-6.869 30.457,-6.636C30.853,-6.403 31.154,-6.071 31.36,-5.642L31.36,-9.394C31.36,-9.562 31.409,-9.695 31.507,-9.793C31.605,-9.891 31.742,-9.94 31.92,-9.94C32.097,-9.94 32.237,-9.889 32.34,-9.786ZM30.821,-1.519C31.18,-1.972 31.36,-2.613 31.36,-3.444C31.36,-4.275 31.18,-4.914 30.821,-5.362C30.461,-5.81 29.95,-6.034 29.288,-6.034C28.625,-6.034 28.109,-5.81 27.741,-5.362C27.372,-4.914 27.188,-4.284 27.188,-3.472C27.188,-2.641 27.372,-1.995 27.741,-1.533C28.109,-1.071 28.625,-0.84 29.288,-0.84C29.95,-0.84 30.461,-1.066 30.821,-1.519Z" style="fill:rgb(245,245,245);fill-rule:nonzero;"/>
                <path d="M40.483,-6.804C40.586,-6.701 40.637,-6.566 40.637,-6.398L40.637,2.044C40.637,2.203 40.586,2.333 40.483,2.436C40.38,2.539 40.24,2.59 40.063,2.59C39.886,2.59 39.748,2.541 39.65,2.443C39.552,2.345 39.503,2.212 39.503,2.044L39.503,-1.246C39.298,-0.817 38.997,-0.485 38.6,-0.252C38.203,-0.019 37.739,0.098 37.207,0.098C36.6,0.098 36.071,-0.047 35.618,-0.336C35.165,-0.625 34.813,-1.034 34.561,-1.561C34.309,-2.088 34.183,-2.707 34.183,-3.416C34.183,-4.125 34.309,-4.748 34.561,-5.285C34.813,-5.822 35.168,-6.239 35.625,-6.538C36.082,-6.837 36.61,-6.986 37.207,-6.986C37.739,-6.986 38.203,-6.869 38.6,-6.636C38.997,-6.403 39.298,-6.071 39.503,-5.642L39.503,-6.398C39.503,-6.566 39.552,-6.701 39.65,-6.804C39.748,-6.907 39.886,-6.958 40.063,-6.958C40.24,-6.958 40.38,-6.907 40.483,-6.804ZM38.964,-1.519C39.323,-1.972 39.503,-2.613 39.503,-3.444C39.503,-4.275 39.323,-4.914 38.964,-5.362C38.605,-5.81 38.094,-6.034 37.431,-6.034C36.768,-6.034 36.253,-5.803 35.884,-5.341C35.515,-4.879 35.331,-4.237 35.331,-3.416C35.331,-2.595 35.515,-1.96 35.884,-1.512C36.253,-1.064 36.768,-0.84 37.431,-0.84C38.094,-0.84 38.605,-1.066 38.964,-1.519Z" style="fill:rgb(245,245,245);fill-rule:nonzero;"/>
                <path d="M48.325,-6.804C48.423,-6.701 48.472,-6.566 48.472,-6.398L48.472,-0.476C48.472,-0.317 48.423,-0.187 48.325,-0.084C48.227,0.019 48.089,0.07 47.912,0.07C47.744,0.07 47.611,0.021 47.513,-0.077C47.415,-0.175 47.366,-0.303 47.366,-0.462L47.366,-1.162C47.151,-0.751 46.85,-0.439 46.463,-0.224C46.076,-0.009 45.639,0.098 45.154,0.098C44.342,0.098 43.731,-0.128 43.32,-0.581C42.909,-1.034 42.704,-1.703 42.704,-2.59L42.704,-6.398C42.704,-6.566 42.755,-6.701 42.858,-6.804C42.961,-6.907 43.101,-6.958 43.278,-6.958C43.455,-6.958 43.593,-6.907 43.691,-6.804C43.789,-6.701 43.838,-6.566 43.838,-6.398L43.838,-2.618C43.838,-2.011 43.959,-1.566 44.202,-1.281C44.445,-0.996 44.827,-0.854 45.35,-0.854C45.947,-0.854 46.428,-1.048 46.792,-1.435C47.156,-1.822 47.338,-2.333 47.338,-2.968L47.338,-6.398C47.338,-6.566 47.389,-6.701 47.492,-6.804C47.595,-6.907 47.735,-6.958 47.912,-6.958C48.089,-6.958 48.227,-6.907 48.325,-6.804Z" style="fill:rgb(245,245,245);fill-rule:nonzero;"/>
                <path d="M55.929,-4.298L55.929,-0.49C55.929,-0.322 55.88,-0.187 55.782,-0.084C55.684,0.019 55.551,0.07 55.383,0.07C55.215,0.07 55.08,0.019 54.977,-0.084C54.875,-0.187 54.823,-0.322 54.823,-0.49L54.823,-1.162C54.646,-0.761 54.375,-0.45 54.011,-0.231C53.647,-0.012 53.227,0.098 52.751,0.098C52.313,0.098 51.909,0.009 51.54,-0.168C51.172,-0.345 50.88,-0.593 50.665,-0.91C50.451,-1.227 50.343,-1.577 50.343,-1.96C50.343,-2.473 50.474,-2.872 50.735,-3.157C50.997,-3.442 51.426,-3.647 52.023,-3.773C52.621,-3.899 53.451,-3.962 54.515,-3.962L54.823,-3.962L54.823,-4.424C54.823,-4.984 54.709,-5.395 54.48,-5.656C54.252,-5.917 53.881,-6.048 53.367,-6.048C52.733,-6.048 52.089,-5.875 51.435,-5.53C51.183,-5.371 51.006,-5.292 50.903,-5.292C50.791,-5.292 50.698,-5.334 50.623,-5.418C50.549,-5.502 50.511,-5.609 50.511,-5.74C50.511,-5.871 50.551,-5.985 50.63,-6.083C50.71,-6.181 50.838,-6.281 51.015,-6.384C51.342,-6.571 51.713,-6.718 52.128,-6.825C52.544,-6.932 52.957,-6.986 53.367,-6.986C55.075,-6.986 55.929,-6.09 55.929,-4.298ZM54.284,-1.365C54.644,-1.743 54.823,-2.231 54.823,-2.828L54.823,-3.234L54.571,-3.234C53.75,-3.234 53.125,-3.199 52.695,-3.129C52.266,-3.059 51.96,-2.942 51.778,-2.779C51.596,-2.616 51.505,-2.375 51.505,-2.058C51.505,-1.694 51.638,-1.393 51.904,-1.155C52.17,-0.917 52.504,-0.798 52.905,-0.798C53.465,-0.798 53.925,-0.987 54.284,-1.365Z" style="fill:rgb(245,245,245);fill-rule:nonzero;"/>
                <path d="M61.958,-6.482C61.958,-6.333 61.916,-6.214 61.832,-6.125C61.748,-6.036 61.604,-5.983 61.398,-5.964L60.978,-5.922C60.353,-5.866 59.889,-5.644 59.585,-5.257C59.282,-4.87 59.13,-4.415 59.13,-3.892L59.13,-0.49C59.13,-0.303 59.079,-0.163 58.976,-0.07C58.874,0.023 58.738,0.07 58.57,0.07C58.402,0.07 58.265,0.021 58.157,-0.077C58.05,-0.175 57.996,-0.313 57.996,-0.49L57.996,-6.398C57.996,-6.575 58.052,-6.713 58.164,-6.811C58.276,-6.909 58.412,-6.958 58.57,-6.958C58.72,-6.958 58.846,-6.909 58.948,-6.811C59.051,-6.713 59.102,-6.58 59.102,-6.412L59.102,-5.628C59.298,-6.039 59.576,-6.351 59.935,-6.566C60.295,-6.781 60.708,-6.907 61.174,-6.944L61.37,-6.958C61.762,-6.986 61.958,-6.827 61.958,-6.482Z" style="fill:rgb(245,245,245);fill-rule:nonzero;"/>
                <path d="M67.12,-0.378C67.12,-0.219 67.061,-0.1 66.945,-0.021C66.828,0.058 66.653,0.089 66.42,0.07L66.042,0.042C65.295,-0.014 64.744,-0.238 64.39,-0.63C64.035,-1.022 63.858,-1.615 63.858,-2.408L63.858,-5.922L62.92,-5.922C62.761,-5.922 62.637,-5.962 62.549,-6.041C62.46,-6.12 62.416,-6.225 62.416,-6.356C62.416,-6.496 62.46,-6.608 62.549,-6.692C62.637,-6.776 62.761,-6.818 62.92,-6.818L63.858,-6.818L63.858,-8.4C63.858,-8.577 63.909,-8.715 64.012,-8.813C64.114,-8.911 64.254,-8.96 64.432,-8.96C64.6,-8.96 64.735,-8.911 64.838,-8.813C64.94,-8.715 64.992,-8.577 64.992,-8.4L64.992,-6.818L66.546,-6.818C66.695,-6.818 66.814,-6.776 66.903,-6.692C66.991,-6.608 67.036,-6.496 67.036,-6.356C67.036,-6.225 66.991,-6.12 66.903,-6.041C66.814,-5.962 66.695,-5.922 66.546,-5.922L64.992,-5.922L64.992,-2.352C64.992,-1.839 65.097,-1.468 65.307,-1.239C65.517,-1.01 65.832,-0.882 66.252,-0.854L66.63,-0.826C66.956,-0.798 67.12,-0.649 67.12,-0.378Z" style="fill:rgb(245,245,245);fill-rule:nonzero;"/>
                <path d="M73.779,-1.456C73.854,-1.372 73.891,-1.265 73.891,-1.134C73.891,-0.901 73.728,-0.686 73.401,-0.49C73.065,-0.294 72.71,-0.147 72.337,-0.049C71.964,0.049 71.6,0.098 71.245,0.098C70.19,0.098 69.357,-0.215 68.746,-0.84C68.135,-1.465 67.829,-2.329 67.829,-3.43C67.829,-4.13 67.964,-4.748 68.235,-5.285C68.506,-5.822 68.886,-6.239 69.376,-6.538C69.866,-6.837 70.424,-6.986 71.049,-6.986C71.936,-6.986 72.64,-6.697 73.163,-6.118C73.686,-5.539 73.947,-4.755 73.947,-3.766C73.947,-3.579 73.91,-3.444 73.835,-3.36C73.76,-3.276 73.639,-3.234 73.471,-3.234L68.963,-3.234C69.047,-1.629 69.808,-0.826 71.245,-0.826C71.609,-0.826 71.922,-0.875 72.183,-0.973C72.444,-1.071 72.724,-1.204 73.023,-1.372C73.266,-1.512 73.429,-1.582 73.513,-1.582C73.616,-1.582 73.704,-1.54 73.779,-1.456ZM69.628,-5.544C69.269,-5.171 69.056,-4.643 68.991,-3.962L72.953,-3.962C72.934,-4.653 72.762,-5.182 72.435,-5.551C72.108,-5.92 71.651,-6.104 71.063,-6.104C70.466,-6.104 69.987,-5.917 69.628,-5.544Z" style="fill:rgb(245,245,245);fill-rule:nonzero;"/>
                <path d="M79.57,-6.482C79.57,-6.333 79.528,-6.214 79.444,-6.125C79.36,-6.036 79.215,-5.983 79.01,-5.964L78.59,-5.922C77.965,-5.866 77.5,-5.644 77.197,-5.257C76.894,-4.87 76.742,-4.415 76.742,-3.892L76.742,-0.49C76.742,-0.303 76.691,-0.163 76.588,-0.07C76.485,0.023 76.35,0.07 76.182,0.07C76.014,0.07 75.876,0.021 75.769,-0.077C75.662,-0.175 75.608,-0.313 75.608,-0.49L75.608,-6.398C75.608,-6.575 75.664,-6.713 75.776,-6.811C75.888,-6.909 76.023,-6.958 76.182,-6.958C76.331,-6.958 76.457,-6.909 76.56,-6.811C76.663,-6.713 76.714,-6.58 76.714,-6.412L76.714,-5.628C76.91,-6.039 77.188,-6.351 77.547,-6.566C77.906,-6.781 78.319,-6.907 78.786,-6.944L78.982,-6.958C79.374,-6.986 79.57,-6.827 79.57,-6.482Z" style="fill:rgb(245,245,245);fill-rule:nonzero;"/>
            </g>
        </g>
    </g>
</svg>
