<?xml version="1.0" encoding="UTF-8"?>
<svg width="42px" height="86px" viewBox="0 0 42 86" version="1.1" xmlns="http://www.w3.org/2000/svg" xmlns:xlink="http://www.w3.org/1999/xlink">
    <!-- Generator: Sketch 50.2 (55047) - http://www.bohemiancoding.com/sketch -->
    <title>Server</title>
    <desc>Created with Sketch.</desc>
    <defs></defs>
    <g id="Page-2" stroke="none" stroke-width="1" fill="none" fill-rule="evenodd">
        <g id="Server" fill="#636569">
            <path d="M33.0244062,12.6469883 L9.56514462,12.6469883 C8.65794462,12.6469883 7.92132923,11.9146388 7.92132923,11.0040456 C7.92132923,10.105077 8.65794462,9.36497783 9.56514462,9.36497783 L33.0244062,9.36497783 C33.9316062,9.36497783 34.6643446,10.105077 34.6643446,11.0040456 C34.6643446,11.9146388 33.9316062,12.6469883 33.0244062,12.6469883 M33.0244062,22.423272 L9.56514462,22.423272 C8.65794462,22.423272 7.92132923,21.6870477 7.92132923,20.7842042 C7.92132923,19.873611 8.65794462,19.1451364 9.56514462,19.1451364 L33.0244062,19.1451364 C33.9316062,19.1451364 34.6643446,19.873611 34.6643446,20.7842042 C34.6643446,21.6870477 33.9316062,22.423272 33.0244062,22.423272 M33.0244062,32.1995557 L9.56514462,32.1995557 C8.65794462,32.1995557 7.92132923,31.4633314 7.92132923,30.556613 C7.92132923,29.6537696 8.65794462,28.9136704 9.56514462,28.9136704 L33.0244062,28.9136704 C33.9316062,28.9136704 34.6643446,29.6537696 34.6643446,30.556613 C34.6643446,31.4633314 33.9316062,32.1995557 33.0244062,32.1995557 M33.0244062,41.9719645 L9.56514462,41.9719645 C8.65794462,41.9719645 7.92132923,41.24349 7.92132923,40.3328968 C7.92132923,39.4223036 8.65794462,38.693829 9.56514462,38.693829 L33.0244062,38.693829 C33.9316062,38.693829 34.6643446,39.4223036 34.6643446,40.3328968 C34.6643446,41.24349 33.9316062,41.9719645 33.0244062,41.9719645 M33.0244062,51.7482483 L9.56514462,51.7482483 C8.65794462,51.7482483 7.92132923,51.012024 7.92132923,50.1053056 C7.92132923,49.2024621 8.65794462,48.462363 9.56514462,48.462363 L33.0244062,48.462363 C33.9316062,48.462363 34.6643446,49.2024621 34.6643446,50.1053056 C34.6643446,51.012024 33.9316062,51.7482483 33.0244062,51.7482483 M33.0244062,61.5206571 L9.56514462,61.5206571 C8.65794462,61.5206571 7.92132923,60.7921825 7.92132923,59.8815893 C7.92132923,58.974871 8.65794462,58.2425216 9.56514462,58.2425216 L33.0244062,58.2425216 C33.9316062,58.2425216 34.6643446,58.974871 34.6643446,59.8815893 C34.6643446,60.7921825 33.9316062,61.5206571 33.0244062,61.5206571 M11.5462523,79.7983941 C9.87142154,79.7983941 8.51449846,78.4421914 8.51449846,76.7759996 C8.51449846,75.0981831 9.87142154,73.7458553 11.5462523,73.7458553 C13.2210831,73.7458553 14.5741292,75.0981831 14.5741292,76.7759996 C14.5741292,78.4421914 13.2210831,79.7983941 11.5462523,79.7983941 M37.51776,0.239671382 L4.68409846,0.239671382 C2.31529846,0.239671382 0.388467692,2.16160429 0.388467692,4.52527178 L0.388467692,81.5692072 C0.388467692,83.9367496 2.31529846,85.8664322 4.68409846,85.8664322 L37.51776,85.8664322 C39.8826831,85.8664322 41.8095138,83.9367496 41.8095138,81.5692072 L41.8095138,4.52527178 C41.8095138,2.16160429 39.8826831,0.239671382 37.51776,0.239671382" id="Fill-6"></path>
        </g>
    </g>
</svg>