<?xml version="1.0" encoding="UTF-8" standalone="no"?>
<!DOCTYPE svg PUBLIC "-//W3C//DTD SVG 1.1//EN" "http://www.w3.org/Graphics/SVG/1.1/DTD/svg11.dtd">
<svg width="100%" height="100%" viewBox="0 0 329 37" version="1.1" xmlns="http://www.w3.org/2000/svg" xmlns:xlink="http://www.w3.org/1999/xlink" xml:space="preserve" xmlns:serif="http://www.serif.com/" style="fill-rule:evenodd;clip-rule:evenodd;stroke-linejoin:round;stroke-miterlimit:1.41421;">
    <g transform="matrix(1,0,0,1,-506,-676)">
        <g id="SonicWall-Applicatio">
            <g transform="matrix(1,0,0,1,506,688)">
                <path d="M2.696,-0.232C1.965,-0.472 1.381,-0.795 0.944,-1.2C0.784,-1.349 0.704,-1.536 0.704,-1.76C0.704,-1.909 0.747,-2.04 0.832,-2.152C0.917,-2.264 1.019,-2.32 1.136,-2.32C1.275,-2.32 1.424,-2.261 1.584,-2.144C2.576,-1.376 3.707,-0.992 4.976,-0.992C5.893,-0.992 6.597,-1.168 7.088,-1.52C7.579,-1.872 7.824,-2.373 7.824,-3.024C7.824,-3.397 7.707,-3.699 7.472,-3.928C7.237,-4.157 6.928,-4.341 6.544,-4.48C6.16,-4.619 5.643,-4.763 4.992,-4.912C4.117,-5.115 3.4,-5.328 2.84,-5.552C2.28,-5.776 1.827,-6.096 1.48,-6.512C1.133,-6.928 0.96,-7.472 0.96,-8.144C0.96,-8.784 1.133,-9.352 1.48,-9.848C1.827,-10.344 2.312,-10.728 2.936,-11C3.56,-11.272 4.272,-11.408 5.072,-11.408C5.819,-11.408 6.515,-11.293 7.16,-11.064C7.805,-10.835 8.347,-10.507 8.784,-10.08C8.955,-9.909 9.04,-9.723 9.04,-9.52C9.04,-9.371 8.997,-9.24 8.912,-9.128C8.827,-9.016 8.725,-8.96 8.608,-8.96C8.491,-8.96 8.336,-9.019 8.144,-9.136C7.621,-9.563 7.136,-9.861 6.688,-10.032C6.24,-10.203 5.701,-10.288 5.072,-10.288C4.187,-10.288 3.499,-10.104 3.008,-9.736C2.517,-9.368 2.272,-8.853 2.272,-8.192C2.272,-7.627 2.488,-7.203 2.92,-6.92C3.352,-6.637 4.016,-6.389 4.912,-6.176C5.883,-5.941 6.645,-5.725 7.2,-5.528C7.755,-5.331 8.216,-5.035 8.584,-4.64C8.952,-4.245 9.136,-3.717 9.136,-3.056C9.136,-2.427 8.963,-1.872 8.616,-1.392C8.269,-0.912 7.781,-0.539 7.152,-0.272C6.523,-0.005 5.803,0.128 4.992,0.128C4.192,0.128 3.427,0.008 2.696,-0.232Z" style="fill-rule:nonzero;"/>
                <path d="M12.36,-0.384C11.8,-0.715 11.368,-1.187 11.064,-1.8C10.76,-2.413 10.608,-3.125 10.608,-3.936C10.608,-4.747 10.76,-5.459 11.064,-6.072C11.368,-6.685 11.8,-7.157 12.36,-7.488C12.92,-7.819 13.568,-7.984 14.304,-7.984C15.04,-7.984 15.691,-7.819 16.256,-7.488C16.821,-7.157 17.256,-6.685 17.56,-6.072C17.864,-5.459 18.016,-4.747 18.016,-3.936C18.016,-3.125 17.864,-2.413 17.56,-1.8C17.256,-1.187 16.821,-0.715 16.256,-0.384C15.691,-0.053 15.04,0.112 14.304,0.112C13.568,0.112 12.92,-0.053 12.36,-0.384ZM16.072,-1.72C16.483,-2.227 16.688,-2.965 16.688,-3.936C16.688,-4.885 16.48,-5.619 16.064,-6.136C15.648,-6.653 15.061,-6.912 14.304,-6.912C13.547,-6.912 12.96,-6.653 12.544,-6.136C12.128,-5.619 11.92,-4.885 11.92,-3.936C11.92,-2.976 12.125,-2.24 12.536,-1.728C12.947,-1.216 13.536,-0.96 14.304,-0.96C15.072,-0.96 15.661,-1.213 16.072,-1.72Z" style="fill-rule:nonzero;"/>
                <path d="M26.672,-4.896L26.672,-0.56C26.672,-0.357 26.616,-0.2 26.504,-0.088C26.392,0.024 26.235,0.08 26.032,0.08C25.829,0.08 25.669,0.024 25.552,-0.088C25.435,-0.2 25.376,-0.357 25.376,-0.56L25.376,-4.816C25.376,-5.541 25.235,-6.069 24.952,-6.4C24.669,-6.731 24.219,-6.896 23.6,-6.896C22.885,-6.896 22.315,-6.677 21.888,-6.24C21.461,-5.803 21.248,-5.211 21.248,-4.464L21.248,-0.56C21.248,-0.357 21.192,-0.2 21.08,-0.088C20.968,0.024 20.811,0.08 20.608,0.08C20.405,0.08 20.245,0.024 20.128,-0.088C20.011,-0.2 19.952,-0.357 19.952,-0.56L19.952,-7.312C19.952,-7.504 20.011,-7.659 20.128,-7.776C20.245,-7.893 20.405,-7.952 20.608,-7.952C20.8,-7.952 20.952,-7.893 21.064,-7.776C21.176,-7.659 21.232,-7.509 21.232,-7.328L21.232,-6.512C21.488,-6.992 21.845,-7.357 22.304,-7.608C22.763,-7.859 23.285,-7.984 23.872,-7.984C25.739,-7.984 26.672,-6.955 26.672,-4.896Z" style="fill-rule:nonzero;"/>
                <path d="M29.224,-0.088C29.101,-0.2 29.04,-0.357 29.04,-0.56L29.04,-7.312C29.04,-7.515 29.101,-7.672 29.224,-7.784C29.347,-7.896 29.504,-7.952 29.696,-7.952C29.888,-7.952 30.043,-7.896 30.16,-7.784C30.277,-7.672 30.336,-7.515 30.336,-7.312L30.336,-0.56C30.336,-0.347 30.277,-0.187 30.16,-0.08C30.043,0.027 29.888,0.08 29.696,0.08C29.504,0.08 29.347,0.024 29.224,-0.088ZM29.072,-9.856C28.912,-10.005 28.832,-10.203 28.832,-10.448C28.832,-10.683 28.912,-10.875 29.072,-11.024C29.232,-11.173 29.44,-11.248 29.696,-11.248C29.952,-11.248 30.16,-11.173 30.32,-11.024C30.48,-10.875 30.56,-10.683 30.56,-10.448C30.56,-10.203 30.48,-10.005 30.32,-9.856C30.16,-9.707 29.952,-9.632 29.696,-9.632C29.44,-9.632 29.232,-9.707 29.072,-9.856Z" style="fill-rule:nonzero;"/>
                <path d="M34.04,-0.384C33.48,-0.715 33.048,-1.184 32.744,-1.792C32.44,-2.4 32.288,-3.104 32.288,-3.904C32.288,-4.704 32.445,-5.413 32.76,-6.032C33.075,-6.651 33.515,-7.131 34.08,-7.472C34.645,-7.813 35.296,-7.984 36.032,-7.984C36.437,-7.984 36.84,-7.928 37.24,-7.816C37.64,-7.704 37.989,-7.541 38.288,-7.328C38.48,-7.2 38.616,-7.075 38.696,-6.952C38.776,-6.829 38.816,-6.693 38.816,-6.544C38.816,-6.395 38.776,-6.272 38.696,-6.176C38.616,-6.08 38.512,-6.032 38.384,-6.032C38.309,-6.032 38.229,-6.053 38.144,-6.096C38.059,-6.139 37.987,-6.181 37.928,-6.224C37.869,-6.267 37.829,-6.293 37.808,-6.304C37.531,-6.485 37.267,-6.629 37.016,-6.736C36.765,-6.843 36.459,-6.896 36.096,-6.896C35.317,-6.896 34.712,-6.632 34.28,-6.104C33.848,-5.576 33.632,-4.843 33.632,-3.904C33.632,-2.965 33.848,-2.24 34.28,-1.728C34.712,-1.216 35.317,-0.96 36.096,-0.96C36.459,-0.96 36.771,-1.013 37.032,-1.12C37.293,-1.227 37.557,-1.371 37.824,-1.552C37.941,-1.627 38.053,-1.691 38.16,-1.744C38.267,-1.797 38.357,-1.824 38.432,-1.824C38.549,-1.824 38.648,-1.776 38.728,-1.68C38.808,-1.584 38.848,-1.461 38.848,-1.312C38.848,-1.173 38.811,-1.048 38.736,-0.936C38.661,-0.824 38.523,-0.699 38.32,-0.56C38.021,-0.357 37.661,-0.195 37.24,-0.072C36.819,0.051 36.395,0.112 35.968,0.112C35.243,0.112 34.6,-0.053 34.04,-0.384Z" style="fill-rule:nonzero;"/>
                <path d="M55.248,-11.272C55.355,-11.341 55.472,-11.376 55.6,-11.376C55.771,-11.376 55.917,-11.325 56.04,-11.224C56.163,-11.123 56.224,-10.987 56.224,-10.816C56.224,-10.741 56.208,-10.656 56.176,-10.56L52.56,-0.368C52.507,-0.219 52.416,-0.104 52.288,-0.024C52.16,0.056 52.016,0.096 51.856,0.096C51.707,0.096 51.568,0.056 51.44,-0.024C51.312,-0.104 51.221,-0.219 51.168,-0.368L48.032,-9.232L44.864,-0.368C44.811,-0.219 44.72,-0.104 44.592,-0.024C44.464,0.056 44.325,0.096 44.176,0.096C44.027,0.096 43.888,0.056 43.76,-0.024C43.632,-0.104 43.541,-0.219 43.488,-0.368L39.856,-10.56C39.824,-10.645 39.808,-10.725 39.808,-10.8C39.808,-10.971 39.875,-11.109 40.008,-11.216C40.141,-11.323 40.293,-11.376 40.464,-11.376C40.592,-11.376 40.712,-11.341 40.824,-11.272C40.936,-11.203 41.013,-11.099 41.056,-10.96L44.208,-1.872L47.408,-10.864C47.461,-11.024 47.547,-11.144 47.664,-11.224C47.781,-11.304 47.909,-11.344 48.048,-11.344C48.187,-11.344 48.315,-11.301 48.432,-11.216C48.549,-11.131 48.635,-11.008 48.688,-10.848L51.84,-1.84L55.024,-10.96C55.067,-11.099 55.141,-11.203 55.248,-11.272Z" style="fill-rule:nonzero;"/>
                <path d="M63.248,-4.912L63.248,-0.56C63.248,-0.368 63.192,-0.213 63.08,-0.096C62.968,0.021 62.816,0.08 62.624,0.08C62.432,0.08 62.277,0.021 62.16,-0.096C62.043,-0.213 61.984,-0.368 61.984,-0.56L61.984,-1.328C61.781,-0.869 61.472,-0.515 61.056,-0.264C60.64,-0.013 60.16,0.112 59.616,0.112C59.115,0.112 58.653,0.011 58.232,-0.192C57.811,-0.395 57.477,-0.677 57.232,-1.04C56.987,-1.403 56.864,-1.803 56.864,-2.24C56.864,-2.827 57.013,-3.283 57.312,-3.608C57.611,-3.933 58.101,-4.168 58.784,-4.312C59.467,-4.456 60.416,-4.528 61.632,-4.528L61.984,-4.528L61.984,-5.056C61.984,-5.696 61.853,-6.165 61.592,-6.464C61.331,-6.763 60.907,-6.912 60.32,-6.912C59.595,-6.912 58.859,-6.715 58.112,-6.32C57.824,-6.139 57.621,-6.048 57.504,-6.048C57.376,-6.048 57.269,-6.096 57.184,-6.192C57.099,-6.288 57.056,-6.411 57.056,-6.56C57.056,-6.709 57.101,-6.84 57.192,-6.952C57.283,-7.064 57.429,-7.179 57.632,-7.296C58.005,-7.509 58.429,-7.677 58.904,-7.8C59.379,-7.923 59.851,-7.984 60.32,-7.984C62.272,-7.984 63.248,-6.96 63.248,-4.912ZM61.368,-1.56C61.779,-1.992 61.984,-2.549 61.984,-3.232L61.984,-3.696L61.696,-3.696C60.757,-3.696 60.043,-3.656 59.552,-3.576C59.061,-3.496 58.712,-3.363 58.504,-3.176C58.296,-2.989 58.192,-2.715 58.192,-2.352C58.192,-1.936 58.344,-1.592 58.648,-1.32C58.952,-1.048 59.333,-0.912 59.792,-0.912C60.432,-0.912 60.957,-1.128 61.368,-1.56Z" style="fill-rule:nonzero;"/>
                <path d="M65.8,-0.088C65.677,-0.2 65.616,-0.357 65.616,-0.56L65.616,-10.72C65.616,-10.923 65.677,-11.08 65.8,-11.192C65.923,-11.304 66.08,-11.36 66.272,-11.36C66.453,-11.36 66.605,-11.304 66.728,-11.192C66.851,-11.08 66.912,-10.923 66.912,-10.72L66.912,-0.56C66.912,-0.357 66.851,-0.2 66.728,-0.088C66.605,0.024 66.453,0.08 66.272,0.08C66.08,0.08 65.923,0.024 65.8,-0.088Z" style="fill-rule:nonzero;"/>
                <path d="M69.512,-0.088C69.389,-0.2 69.328,-0.357 69.328,-0.56L69.328,-10.72C69.328,-10.923 69.389,-11.08 69.512,-11.192C69.635,-11.304 69.792,-11.36 69.984,-11.36C70.165,-11.36 70.317,-11.304 70.44,-11.192C70.563,-11.08 70.624,-10.923 70.624,-10.72L70.624,-0.56C70.624,-0.357 70.563,-0.2 70.44,-0.088C70.317,0.024 70.165,0.08 69.984,0.08C69.792,0.08 69.635,0.024 69.512,-0.088Z" style="fill-rule:nonzero;"/>
                <path d="M87.136,-0.48C87.136,-0.32 87.075,-0.187 86.952,-0.08C86.829,0.027 86.683,0.08 86.512,0.08C86.245,0.08 86.059,-0.048 85.952,-0.304L84.816,-2.896L78.784,-2.896L77.632,-0.304C77.525,-0.048 77.339,0.08 77.072,0.08C76.901,0.08 76.752,0.024 76.624,-0.088C76.496,-0.2 76.432,-0.336 76.432,-0.496C76.432,-0.581 76.453,-0.667 76.496,-0.752L81.072,-10.928C81.136,-11.077 81.232,-11.189 81.36,-11.264C81.488,-11.339 81.627,-11.376 81.776,-11.376C81.936,-11.376 82.08,-11.336 82.208,-11.256C82.336,-11.176 82.432,-11.067 82.496,-10.928L87.072,-0.752C87.115,-0.667 87.136,-0.576 87.136,-0.48ZM79.264,-3.984L84.336,-3.984L81.792,-9.728L79.264,-3.984Z" style="fill-rule:nonzero;"/>
                <path d="M94.528,-7.472C95.051,-7.131 95.456,-6.653 95.744,-6.04C96.032,-5.427 96.176,-4.715 96.176,-3.904C96.176,-3.093 96.032,-2.387 95.744,-1.784C95.456,-1.181 95.053,-0.715 94.536,-0.384C94.019,-0.053 93.413,0.112 92.72,0.112C92.112,0.112 91.581,-0.021 91.128,-0.288C90.675,-0.555 90.331,-0.933 90.096,-1.424L90.096,2.336C90.096,2.528 90.04,2.68 89.928,2.792C89.816,2.904 89.659,2.96 89.456,2.96C89.253,2.96 89.093,2.901 88.976,2.784C88.859,2.667 88.8,2.517 88.8,2.336L88.8,-7.312C88.8,-7.504 88.859,-7.659 88.976,-7.776C89.093,-7.893 89.253,-7.952 89.456,-7.952C89.659,-7.952 89.816,-7.893 89.928,-7.776C90.04,-7.659 90.096,-7.504 90.096,-7.312L90.096,-6.448C90.331,-6.939 90.675,-7.317 91.128,-7.584C91.581,-7.851 92.112,-7.984 92.72,-7.984C93.403,-7.984 94.005,-7.813 94.528,-7.472ZM94.224,-1.728C94.64,-2.24 94.848,-2.965 94.848,-3.904C94.848,-4.843 94.64,-5.576 94.224,-6.104C93.808,-6.632 93.221,-6.896 92.464,-6.896C91.707,-6.896 91.123,-6.64 90.712,-6.128C90.301,-5.616 90.096,-4.885 90.096,-3.936C90.096,-2.987 90.301,-2.253 90.712,-1.736C91.123,-1.219 91.707,-0.96 92.464,-0.96C93.221,-0.96 93.808,-1.216 94.224,-1.728Z" style="fill-rule:nonzero;"/>
                <path d="M103.84,-7.472C104.363,-7.131 104.768,-6.653 105.056,-6.04C105.344,-5.427 105.488,-4.715 105.488,-3.904C105.488,-3.093 105.344,-2.387 105.056,-1.784C104.768,-1.181 104.365,-0.715 103.848,-0.384C103.331,-0.053 102.725,0.112 102.032,0.112C101.424,0.112 100.893,-0.021 100.44,-0.288C99.987,-0.555 99.643,-0.933 99.408,-1.424L99.408,2.336C99.408,2.528 99.352,2.68 99.24,2.792C99.128,2.904 98.971,2.96 98.768,2.96C98.565,2.96 98.405,2.901 98.288,2.784C98.171,2.667 98.112,2.517 98.112,2.336L98.112,-7.312C98.112,-7.504 98.171,-7.659 98.288,-7.776C98.405,-7.893 98.565,-7.952 98.768,-7.952C98.971,-7.952 99.128,-7.893 99.24,-7.776C99.352,-7.659 99.408,-7.504 99.408,-7.312L99.408,-6.448C99.643,-6.939 99.987,-7.317 100.44,-7.584C100.893,-7.851 101.424,-7.984 102.032,-7.984C102.715,-7.984 103.317,-7.813 103.84,-7.472ZM103.536,-1.728C103.952,-2.24 104.16,-2.965 104.16,-3.904C104.16,-4.843 103.952,-5.576 103.536,-6.104C103.12,-6.632 102.533,-6.896 101.776,-6.896C101.019,-6.896 100.435,-6.64 100.024,-6.128C99.613,-5.616 99.408,-4.885 99.408,-3.936C99.408,-2.987 99.613,-2.253 100.024,-1.736C100.435,-1.219 101.019,-0.96 101.776,-0.96C102.533,-0.96 103.12,-1.216 103.536,-1.728Z" style="fill-rule:nonzero;"/>
                <path d="M107.608,-0.088C107.485,-0.2 107.424,-0.357 107.424,-0.56L107.424,-10.72C107.424,-10.923 107.485,-11.08 107.608,-11.192C107.731,-11.304 107.888,-11.36 108.08,-11.36C108.261,-11.36 108.413,-11.304 108.536,-11.192C108.659,-11.08 108.72,-10.923 108.72,-10.72L108.72,-0.56C108.72,-0.357 108.659,-0.2 108.536,-0.088C108.413,0.024 108.261,0.08 108.08,0.08C107.888,0.08 107.731,0.024 107.608,-0.088Z" style="fill-rule:nonzero;"/>
                <path d="M111.32,-0.088C111.197,-0.2 111.136,-0.357 111.136,-0.56L111.136,-7.312C111.136,-7.515 111.197,-7.672 111.32,-7.784C111.443,-7.896 111.6,-7.952 111.792,-7.952C111.984,-7.952 112.139,-7.896 112.256,-7.784C112.373,-7.672 112.432,-7.515 112.432,-7.312L112.432,-0.56C112.432,-0.347 112.373,-0.187 112.256,-0.08C112.139,0.027 111.984,0.08 111.792,0.08C111.6,0.08 111.443,0.024 111.32,-0.088ZM111.168,-9.856C111.008,-10.005 110.928,-10.203 110.928,-10.448C110.928,-10.683 111.008,-10.875 111.168,-11.024C111.328,-11.173 111.536,-11.248 111.792,-11.248C112.048,-11.248 112.256,-11.173 112.416,-11.024C112.576,-10.875 112.656,-10.683 112.656,-10.448C112.656,-10.203 112.576,-10.005 112.416,-9.856C112.256,-9.707 112.048,-9.632 111.792,-9.632C111.536,-9.632 111.328,-9.707 111.168,-9.856Z" style="fill-rule:nonzero;"/>
                <path d="M116.136,-0.384C115.576,-0.715 115.144,-1.184 114.84,-1.792C114.536,-2.4 114.384,-3.104 114.384,-3.904C114.384,-4.704 114.541,-5.413 114.856,-6.032C115.171,-6.651 115.611,-7.131 116.176,-7.472C116.741,-7.813 117.392,-7.984 118.128,-7.984C118.533,-7.984 118.936,-7.928 119.336,-7.816C119.736,-7.704 120.085,-7.541 120.384,-7.328C120.576,-7.2 120.712,-7.075 120.792,-6.952C120.872,-6.829 120.912,-6.693 120.912,-6.544C120.912,-6.395 120.872,-6.272 120.792,-6.176C120.712,-6.08 120.608,-6.032 120.48,-6.032C120.405,-6.032 120.325,-6.053 120.24,-6.096C120.155,-6.139 120.083,-6.181 120.024,-6.224C119.965,-6.267 119.925,-6.293 119.904,-6.304C119.627,-6.485 119.363,-6.629 119.112,-6.736C118.861,-6.843 118.555,-6.896 118.192,-6.896C117.413,-6.896 116.808,-6.632 116.376,-6.104C115.944,-5.576 115.728,-4.843 115.728,-3.904C115.728,-2.965 115.944,-2.24 116.376,-1.728C116.808,-1.216 117.413,-0.96 118.192,-0.96C118.555,-0.96 118.867,-1.013 119.128,-1.12C119.389,-1.227 119.653,-1.371 119.92,-1.552C120.037,-1.627 120.149,-1.691 120.256,-1.744C120.363,-1.797 120.453,-1.824 120.528,-1.824C120.645,-1.824 120.744,-1.776 120.824,-1.68C120.904,-1.584 120.944,-1.461 120.944,-1.312C120.944,-1.173 120.907,-1.048 120.832,-0.936C120.757,-0.824 120.619,-0.699 120.416,-0.56C120.117,-0.357 119.757,-0.195 119.336,-0.072C118.915,0.051 118.491,0.112 118.064,0.112C117.339,0.112 116.696,-0.053 116.136,-0.384Z" style="fill-rule:nonzero;"/>
                <path d="M128.624,-4.912L128.624,-0.56C128.624,-0.368 128.568,-0.213 128.456,-0.096C128.344,0.021 128.192,0.08 128,0.08C127.808,0.08 127.653,0.021 127.536,-0.096C127.419,-0.213 127.36,-0.368 127.36,-0.56L127.36,-1.328C127.157,-0.869 126.848,-0.515 126.432,-0.264C126.016,-0.013 125.536,0.112 124.992,0.112C124.491,0.112 124.029,0.011 123.608,-0.192C123.187,-0.395 122.853,-0.677 122.608,-1.04C122.363,-1.403 122.24,-1.803 122.24,-2.24C122.24,-2.827 122.389,-3.283 122.688,-3.608C122.987,-3.933 123.477,-4.168 124.16,-4.312C124.843,-4.456 125.792,-4.528 127.008,-4.528L127.36,-4.528L127.36,-5.056C127.36,-5.696 127.229,-6.165 126.968,-6.464C126.707,-6.763 126.283,-6.912 125.696,-6.912C124.971,-6.912 124.235,-6.715 123.488,-6.32C123.2,-6.139 122.997,-6.048 122.88,-6.048C122.752,-6.048 122.645,-6.096 122.56,-6.192C122.475,-6.288 122.432,-6.411 122.432,-6.56C122.432,-6.709 122.477,-6.84 122.568,-6.952C122.659,-7.064 122.805,-7.179 123.008,-7.296C123.381,-7.509 123.805,-7.677 124.28,-7.8C124.755,-7.923 125.227,-7.984 125.696,-7.984C127.648,-7.984 128.624,-6.96 128.624,-4.912ZM126.744,-1.56C127.155,-1.992 127.36,-2.549 127.36,-3.232L127.36,-3.696L127.072,-3.696C126.133,-3.696 125.419,-3.656 124.928,-3.576C124.437,-3.496 124.088,-3.363 123.88,-3.176C123.672,-2.989 123.568,-2.715 123.568,-2.352C123.568,-1.936 123.72,-1.592 124.024,-1.32C124.328,-1.048 124.709,-0.912 125.168,-0.912C125.808,-0.912 126.333,-1.128 126.744,-1.56Z" style="fill-rule:nonzero;"/>
                <path d="M135.152,-0.432C135.152,-0.251 135.085,-0.115 134.952,-0.024C134.819,0.067 134.619,0.101 134.352,0.08L133.92,0.048C133.067,-0.016 132.437,-0.272 132.032,-0.72C131.627,-1.168 131.424,-1.845 131.424,-2.752L131.424,-6.768L130.352,-6.768C130.171,-6.768 130.029,-6.813 129.928,-6.904C129.827,-6.995 129.776,-7.115 129.776,-7.264C129.776,-7.424 129.827,-7.552 129.928,-7.648C130.029,-7.744 130.171,-7.792 130.352,-7.792L131.424,-7.792L131.424,-9.6C131.424,-9.803 131.483,-9.96 131.6,-10.072C131.717,-10.184 131.877,-10.24 132.08,-10.24C132.272,-10.24 132.427,-10.184 132.544,-10.072C132.661,-9.96 132.72,-9.803 132.72,-9.6L132.72,-7.792L134.496,-7.792C134.667,-7.792 134.803,-7.744 134.904,-7.648C135.005,-7.552 135.056,-7.424 135.056,-7.264C135.056,-7.115 135.005,-6.995 134.904,-6.904C134.803,-6.813 134.667,-6.768 134.496,-6.768L132.72,-6.768L132.72,-2.688C132.72,-2.101 132.84,-1.677 133.08,-1.416C133.32,-1.155 133.68,-1.008 134.16,-0.976L134.592,-0.944C134.965,-0.912 135.152,-0.741 135.152,-0.432Z" style="fill-rule:nonzero;"/>
                <path d="M136.616,-0.088C136.493,-0.2 136.432,-0.357 136.432,-0.56L136.432,-7.312C136.432,-7.515 136.493,-7.672 136.616,-7.784C136.739,-7.896 136.896,-7.952 137.088,-7.952C137.28,-7.952 137.435,-7.896 137.552,-7.784C137.669,-7.672 137.728,-7.515 137.728,-7.312L137.728,-0.56C137.728,-0.347 137.669,-0.187 137.552,-0.08C137.435,0.027 137.28,0.08 137.088,0.08C136.896,0.08 136.739,0.024 136.616,-0.088ZM136.464,-9.856C136.304,-10.005 136.224,-10.203 136.224,-10.448C136.224,-10.683 136.304,-10.875 136.464,-11.024C136.624,-11.173 136.832,-11.248 137.088,-11.248C137.344,-11.248 137.552,-11.173 137.712,-11.024C137.872,-10.875 137.952,-10.683 137.952,-10.448C137.952,-10.203 137.872,-10.005 137.712,-9.856C137.552,-9.707 137.344,-9.632 137.088,-9.632C136.832,-9.632 136.624,-9.707 136.464,-9.856Z" style="fill-rule:nonzero;"/>
                <path d="M141.432,-0.384C140.872,-0.715 140.44,-1.187 140.136,-1.8C139.832,-2.413 139.68,-3.125 139.68,-3.936C139.68,-4.747 139.832,-5.459 140.136,-6.072C140.44,-6.685 140.872,-7.157 141.432,-7.488C141.992,-7.819 142.64,-7.984 143.376,-7.984C144.112,-7.984 144.763,-7.819 145.328,-7.488C145.893,-7.157 146.328,-6.685 146.632,-6.072C146.936,-5.459 147.088,-4.747 147.088,-3.936C147.088,-3.125 146.936,-2.413 146.632,-1.8C146.328,-1.187 145.893,-0.715 145.328,-0.384C144.763,-0.053 144.112,0.112 143.376,0.112C142.64,0.112 141.992,-0.053 141.432,-0.384ZM145.144,-1.72C145.555,-2.227 145.76,-2.965 145.76,-3.936C145.76,-4.885 145.552,-5.619 145.136,-6.136C144.72,-6.653 144.133,-6.912 143.376,-6.912C142.619,-6.912 142.032,-6.653 141.616,-6.136C141.2,-5.619 140.992,-4.885 140.992,-3.936C140.992,-2.976 141.197,-2.24 141.608,-1.728C142.019,-1.216 142.608,-0.96 143.376,-0.96C144.144,-0.96 144.733,-1.213 145.144,-1.72Z" style="fill-rule:nonzero;"/>
                <path d="M155.744,-4.896L155.744,-0.56C155.744,-0.357 155.688,-0.2 155.576,-0.088C155.464,0.024 155.307,0.08 155.104,0.08C154.901,0.08 154.741,0.024 154.624,-0.088C154.507,-0.2 154.448,-0.357 154.448,-0.56L154.448,-4.816C154.448,-5.541 154.307,-6.069 154.024,-6.4C153.741,-6.731 153.291,-6.896 152.672,-6.896C151.957,-6.896 151.387,-6.677 150.96,-6.24C150.533,-5.803 150.32,-5.211 150.32,-4.464L150.32,-0.56C150.32,-0.357 150.264,-0.2 150.152,-0.088C150.04,0.024 149.883,0.08 149.68,0.08C149.477,0.08 149.317,0.024 149.2,-0.088C149.083,-0.2 149.024,-0.357 149.024,-0.56L149.024,-7.312C149.024,-7.504 149.083,-7.659 149.2,-7.776C149.317,-7.893 149.477,-7.952 149.68,-7.952C149.872,-7.952 150.024,-7.893 150.136,-7.776C150.248,-7.659 150.304,-7.509 150.304,-7.328L150.304,-6.512C150.56,-6.992 150.917,-7.357 151.376,-7.608C151.835,-7.859 152.357,-7.984 152.944,-7.984C154.811,-7.984 155.744,-6.955 155.744,-4.896Z" style="fill-rule:nonzero;"/>
                <path d="M162.608,-0.104C162.491,-0.227 162.432,-0.389 162.432,-0.592L162.432,-10.688C162.432,-10.891 162.491,-11.053 162.608,-11.176C162.725,-11.299 162.885,-11.36 163.088,-11.36C163.291,-11.36 163.451,-11.299 163.568,-11.176C163.685,-11.053 163.744,-10.891 163.744,-10.688L163.744,-0.592C163.744,-0.389 163.685,-0.227 163.568,-0.104C163.451,0.019 163.291,0.08 163.088,0.08C162.885,0.08 162.725,0.019 162.608,-0.104Z" style="fill-rule:nonzero;"/>
                <path d="M173.056,-4.896L173.056,-0.56C173.056,-0.357 173,-0.2 172.888,-0.088C172.776,0.024 172.619,0.08 172.416,0.08C172.213,0.08 172.053,0.024 171.936,-0.088C171.819,-0.2 171.76,-0.357 171.76,-0.56L171.76,-4.816C171.76,-5.541 171.619,-6.069 171.336,-6.4C171.053,-6.731 170.603,-6.896 169.984,-6.896C169.269,-6.896 168.699,-6.677 168.272,-6.24C167.845,-5.803 167.632,-5.211 167.632,-4.464L167.632,-0.56C167.632,-0.357 167.576,-0.2 167.464,-0.088C167.352,0.024 167.195,0.08 166.992,0.08C166.789,0.08 166.629,0.024 166.512,-0.088C166.395,-0.2 166.336,-0.357 166.336,-0.56L166.336,-7.312C166.336,-7.504 166.395,-7.659 166.512,-7.776C166.629,-7.893 166.789,-7.952 166.992,-7.952C167.184,-7.952 167.336,-7.893 167.448,-7.776C167.56,-7.659 167.616,-7.509 167.616,-7.328L167.616,-6.512C167.872,-6.992 168.229,-7.357 168.688,-7.608C169.147,-7.859 169.669,-7.984 170.256,-7.984C172.123,-7.984 173.056,-6.955 173.056,-4.896Z" style="fill-rule:nonzero;"/>
                <path d="M179.584,-0.432C179.584,-0.251 179.517,-0.115 179.384,-0.024C179.251,0.067 179.051,0.101 178.784,0.08L178.352,0.048C177.499,-0.016 176.869,-0.272 176.464,-0.72C176.059,-1.168 175.856,-1.845 175.856,-2.752L175.856,-6.768L174.784,-6.768C174.603,-6.768 174.461,-6.813 174.36,-6.904C174.259,-6.995 174.208,-7.115 174.208,-7.264C174.208,-7.424 174.259,-7.552 174.36,-7.648C174.461,-7.744 174.603,-7.792 174.784,-7.792L175.856,-7.792L175.856,-9.6C175.856,-9.803 175.915,-9.96 176.032,-10.072C176.149,-10.184 176.309,-10.24 176.512,-10.24C176.704,-10.24 176.859,-10.184 176.976,-10.072C177.093,-9.96 177.152,-9.803 177.152,-9.6L177.152,-7.792L178.928,-7.792C179.099,-7.792 179.235,-7.744 179.336,-7.648C179.437,-7.552 179.488,-7.424 179.488,-7.264C179.488,-7.115 179.437,-6.995 179.336,-6.904C179.235,-6.813 179.099,-6.768 178.928,-6.768L177.152,-6.768L177.152,-2.688C177.152,-2.101 177.272,-1.677 177.512,-1.416C177.752,-1.155 178.112,-1.008 178.592,-0.976L179.024,-0.944C179.397,-0.912 179.584,-0.741 179.584,-0.432Z" style="fill-rule:nonzero;"/>
                <path d="M187.2,-1.664C187.285,-1.568 187.328,-1.445 187.328,-1.296C187.328,-1.029 187.141,-0.784 186.768,-0.56C186.384,-0.336 185.979,-0.168 185.552,-0.056C185.125,0.056 184.709,0.112 184.304,0.112C183.099,0.112 182.147,-0.245 181.448,-0.96C180.749,-1.675 180.4,-2.661 180.4,-3.92C180.4,-4.72 180.555,-5.427 180.864,-6.04C181.173,-6.653 181.608,-7.131 182.168,-7.472C182.728,-7.813 183.365,-7.984 184.08,-7.984C185.093,-7.984 185.899,-7.653 186.496,-6.992C187.093,-6.331 187.392,-5.435 187.392,-4.304C187.392,-4.091 187.349,-3.936 187.264,-3.84C187.179,-3.744 187.04,-3.696 186.848,-3.696L181.696,-3.696C181.792,-1.861 182.661,-0.944 184.304,-0.944C184.72,-0.944 185.077,-1 185.376,-1.112C185.675,-1.224 185.995,-1.376 186.336,-1.568C186.613,-1.728 186.8,-1.808 186.896,-1.808C187.013,-1.808 187.115,-1.76 187.2,-1.664ZM182.456,-6.336C182.045,-5.909 181.803,-5.307 181.728,-4.528L186.256,-4.528C186.235,-5.317 186.037,-5.923 185.664,-6.344C185.291,-6.765 184.768,-6.976 184.096,-6.976C183.413,-6.976 182.867,-6.763 182.456,-6.336Z" style="fill-rule:nonzero;"/>
                <path d="M189.48,-0.088C189.357,-0.2 189.296,-0.357 189.296,-0.56L189.296,-10.72C189.296,-10.923 189.357,-11.08 189.48,-11.192C189.603,-11.304 189.76,-11.36 189.952,-11.36C190.133,-11.36 190.285,-11.304 190.408,-11.192C190.531,-11.08 190.592,-10.923 190.592,-10.72L190.592,-0.56C190.592,-0.357 190.531,-0.2 190.408,-0.088C190.285,0.024 190.133,0.08 189.952,0.08C189.76,0.08 189.603,0.024 189.48,-0.088Z" style="fill-rule:nonzero;"/>
                <path d="M193.192,-0.088C193.069,-0.2 193.008,-0.357 193.008,-0.56L193.008,-10.72C193.008,-10.923 193.069,-11.08 193.192,-11.192C193.315,-11.304 193.472,-11.36 193.664,-11.36C193.845,-11.36 193.997,-11.304 194.12,-11.192C194.243,-11.08 194.304,-10.923 194.304,-10.72L194.304,-0.56C194.304,-0.357 194.243,-0.2 194.12,-0.088C193.997,0.024 193.845,0.08 193.664,0.08C193.472,0.08 193.315,0.024 193.192,-0.088Z" style="fill-rule:nonzero;"/>
                <path d="M196.904,-0.088C196.781,-0.2 196.72,-0.357 196.72,-0.56L196.72,-7.312C196.72,-7.515 196.781,-7.672 196.904,-7.784C197.027,-7.896 197.184,-7.952 197.376,-7.952C197.568,-7.952 197.723,-7.896 197.84,-7.784C197.957,-7.672 198.016,-7.515 198.016,-7.312L198.016,-0.56C198.016,-0.347 197.957,-0.187 197.84,-0.08C197.723,0.027 197.568,0.08 197.376,0.08C197.184,0.08 197.027,0.024 196.904,-0.088ZM196.752,-9.856C196.592,-10.005 196.512,-10.203 196.512,-10.448C196.512,-10.683 196.592,-10.875 196.752,-11.024C196.912,-11.173 197.12,-11.248 197.376,-11.248C197.632,-11.248 197.84,-11.173 198,-11.024C198.16,-10.875 198.24,-10.683 198.24,-10.448C198.24,-10.203 198.16,-10.005 198,-9.856C197.84,-9.707 197.632,-9.632 197.376,-9.632C197.12,-9.632 196.912,-9.707 196.752,-9.856Z" style="fill-rule:nonzero;"/>
                <path d="M207.232,-7.776C207.349,-7.659 207.408,-7.504 207.408,-7.312L207.408,-0.528C207.408,0.635 207.109,1.512 206.512,2.104C205.915,2.696 205.029,2.992 203.856,2.992C202.715,2.992 201.765,2.768 201.008,2.32C200.624,2.107 200.432,1.861 200.432,1.584C200.432,1.435 200.472,1.312 200.552,1.216C200.632,1.12 200.736,1.072 200.864,1.072C200.971,1.072 201.163,1.147 201.44,1.296C201.813,1.488 202.181,1.643 202.544,1.76C202.907,1.877 203.339,1.936 203.84,1.936C204.597,1.936 205.168,1.736 205.552,1.336C205.936,0.936 206.128,0.352 206.128,-0.416L206.128,-1.792C205.904,-1.291 205.56,-0.907 205.096,-0.64C204.632,-0.373 204.085,-0.24 203.456,-0.24C202.773,-0.24 202.168,-0.4 201.64,-0.72C201.112,-1.04 200.701,-1.493 200.408,-2.08C200.115,-2.667 199.968,-3.344 199.968,-4.112C199.968,-4.88 200.115,-5.557 200.408,-6.144C200.701,-6.731 201.112,-7.184 201.64,-7.504C202.168,-7.824 202.773,-7.984 203.456,-7.984C204.075,-7.984 204.613,-7.851 205.072,-7.584C205.531,-7.317 205.877,-6.939 206.112,-6.448L206.112,-7.312C206.112,-7.504 206.168,-7.659 206.28,-7.776C206.392,-7.893 206.549,-7.952 206.752,-7.952C206.955,-7.952 207.115,-7.893 207.232,-7.776ZM205.472,-2.056C205.899,-2.552 206.112,-3.237 206.112,-4.112C206.112,-4.976 205.901,-5.656 205.48,-6.152C205.059,-6.648 204.469,-6.896 203.712,-6.896C202.955,-6.896 202.36,-6.648 201.928,-6.152C201.496,-5.656 201.28,-4.976 201.28,-4.112C201.28,-3.237 201.496,-2.552 201.928,-2.056C202.36,-1.56 202.955,-1.312 203.712,-1.312C204.459,-1.312 205.045,-1.56 205.472,-2.056Z" style="fill-rule:nonzero;"/>
                <path d="M216.144,-1.664C216.229,-1.568 216.272,-1.445 216.272,-1.296C216.272,-1.029 216.085,-0.784 215.712,-0.56C215.328,-0.336 214.923,-0.168 214.496,-0.056C214.069,0.056 213.653,0.112 213.248,0.112C212.043,0.112 211.091,-0.245 210.392,-0.96C209.693,-1.675 209.344,-2.661 209.344,-3.92C209.344,-4.72 209.499,-5.427 209.808,-6.04C210.117,-6.653 210.552,-7.131 211.112,-7.472C211.672,-7.813 212.309,-7.984 213.024,-7.984C214.037,-7.984 214.843,-7.653 215.44,-6.992C216.037,-6.331 216.336,-5.435 216.336,-4.304C216.336,-4.091 216.293,-3.936 216.208,-3.84C216.123,-3.744 215.984,-3.696 215.792,-3.696L210.64,-3.696C210.736,-1.861 211.605,-0.944 213.248,-0.944C213.664,-0.944 214.021,-1 214.32,-1.112C214.619,-1.224 214.939,-1.376 215.28,-1.568C215.557,-1.728 215.744,-1.808 215.84,-1.808C215.957,-1.808 216.059,-1.76 216.144,-1.664ZM211.4,-6.336C210.989,-5.909 210.747,-5.307 210.672,-4.528L215.2,-4.528C215.179,-5.317 214.981,-5.923 214.608,-6.344C214.235,-6.765 213.712,-6.976 213.04,-6.976C212.357,-6.976 211.811,-6.763 211.4,-6.336Z" style="fill-rule:nonzero;"/>
                <path d="M224.96,-4.896L224.96,-0.56C224.96,-0.357 224.904,-0.2 224.792,-0.088C224.68,0.024 224.523,0.08 224.32,0.08C224.117,0.08 223.957,0.024 223.84,-0.088C223.723,-0.2 223.664,-0.357 223.664,-0.56L223.664,-4.816C223.664,-5.541 223.523,-6.069 223.24,-6.4C222.957,-6.731 222.507,-6.896 221.888,-6.896C221.173,-6.896 220.603,-6.677 220.176,-6.24C219.749,-5.803 219.536,-5.211 219.536,-4.464L219.536,-0.56C219.536,-0.357 219.48,-0.2 219.368,-0.088C219.256,0.024 219.099,0.08 218.896,0.08C218.693,0.08 218.533,0.024 218.416,-0.088C218.299,-0.2 218.24,-0.357 218.24,-0.56L218.24,-7.312C218.24,-7.504 218.299,-7.659 218.416,-7.776C218.533,-7.893 218.693,-7.952 218.896,-7.952C219.088,-7.952 219.24,-7.893 219.352,-7.776C219.464,-7.659 219.52,-7.509 219.52,-7.328L219.52,-6.512C219.776,-6.992 220.133,-7.357 220.592,-7.608C221.051,-7.859 221.573,-7.984 222.16,-7.984C224.027,-7.984 224.96,-6.955 224.96,-4.896Z" style="fill-rule:nonzero;"/>
                <path d="M228.616,-0.384C228.056,-0.715 227.624,-1.184 227.32,-1.792C227.016,-2.4 226.864,-3.104 226.864,-3.904C226.864,-4.704 227.021,-5.413 227.336,-6.032C227.651,-6.651 228.091,-7.131 228.656,-7.472C229.221,-7.813 229.872,-7.984 230.608,-7.984C231.013,-7.984 231.416,-7.928 231.816,-7.816C232.216,-7.704 232.565,-7.541 232.864,-7.328C233.056,-7.2 233.192,-7.075 233.272,-6.952C233.352,-6.829 233.392,-6.693 233.392,-6.544C233.392,-6.395 233.352,-6.272 233.272,-6.176C233.192,-6.08 233.088,-6.032 232.96,-6.032C232.885,-6.032 232.805,-6.053 232.72,-6.096C232.635,-6.139 232.563,-6.181 232.504,-6.224C232.445,-6.267 232.405,-6.293 232.384,-6.304C232.107,-6.485 231.843,-6.629 231.592,-6.736C231.341,-6.843 231.035,-6.896 230.672,-6.896C229.893,-6.896 229.288,-6.632 228.856,-6.104C228.424,-5.576 228.208,-4.843 228.208,-3.904C228.208,-2.965 228.424,-2.24 228.856,-1.728C229.288,-1.216 229.893,-0.96 230.672,-0.96C231.035,-0.96 231.347,-1.013 231.608,-1.12C231.869,-1.227 232.133,-1.371 232.4,-1.552C232.517,-1.627 232.629,-1.691 232.736,-1.744C232.843,-1.797 232.933,-1.824 233.008,-1.824C233.125,-1.824 233.224,-1.776 233.304,-1.68C233.384,-1.584 233.424,-1.461 233.424,-1.312C233.424,-1.173 233.387,-1.048 233.312,-0.936C233.237,-0.824 233.099,-0.699 232.896,-0.56C232.597,-0.357 232.237,-0.195 231.816,-0.072C231.395,0.051 230.971,0.112 230.544,0.112C229.819,0.112 229.176,-0.053 228.616,-0.384Z" style="fill-rule:nonzero;"/>
                <path d="M241.328,-1.664C241.413,-1.568 241.456,-1.445 241.456,-1.296C241.456,-1.029 241.269,-0.784 240.896,-0.56C240.512,-0.336 240.107,-0.168 239.68,-0.056C239.253,0.056 238.837,0.112 238.432,0.112C237.227,0.112 236.275,-0.245 235.576,-0.96C234.877,-1.675 234.528,-2.661 234.528,-3.92C234.528,-4.72 234.683,-5.427 234.992,-6.04C235.301,-6.653 235.736,-7.131 236.296,-7.472C236.856,-7.813 237.493,-7.984 238.208,-7.984C239.221,-7.984 240.027,-7.653 240.624,-6.992C241.221,-6.331 241.52,-5.435 241.52,-4.304C241.52,-4.091 241.477,-3.936 241.392,-3.84C241.307,-3.744 241.168,-3.696 240.976,-3.696L235.824,-3.696C235.92,-1.861 236.789,-0.944 238.432,-0.944C238.848,-0.944 239.205,-1 239.504,-1.112C239.803,-1.224 240.123,-1.376 240.464,-1.568C240.741,-1.728 240.928,-1.808 241.024,-1.808C241.141,-1.808 241.243,-1.76 241.328,-1.664ZM236.584,-6.336C236.173,-5.909 235.931,-5.307 235.856,-4.528L240.384,-4.528C240.363,-5.317 240.165,-5.923 239.792,-6.344C239.419,-6.765 238.896,-6.976 238.224,-6.976C237.541,-6.976 236.995,-6.763 236.584,-6.336Z" style="fill-rule:nonzero;"/>
                <path d="M253.664,-4.912L253.664,-0.56C253.664,-0.368 253.608,-0.213 253.496,-0.096C253.384,0.021 253.232,0.08 253.04,0.08C252.848,0.08 252.693,0.021 252.576,-0.096C252.459,-0.213 252.4,-0.368 252.4,-0.56L252.4,-1.328C252.197,-0.869 251.888,-0.515 251.472,-0.264C251.056,-0.013 250.576,0.112 250.032,0.112C249.531,0.112 249.069,0.011 248.648,-0.192C248.227,-0.395 247.893,-0.677 247.648,-1.04C247.403,-1.403 247.28,-1.803 247.28,-2.24C247.28,-2.827 247.429,-3.283 247.728,-3.608C248.027,-3.933 248.517,-4.168 249.2,-4.312C249.883,-4.456 250.832,-4.528 252.048,-4.528L252.4,-4.528L252.4,-5.056C252.4,-5.696 252.269,-6.165 252.008,-6.464C251.747,-6.763 251.323,-6.912 250.736,-6.912C250.011,-6.912 249.275,-6.715 248.528,-6.32C248.24,-6.139 248.037,-6.048 247.92,-6.048C247.792,-6.048 247.685,-6.096 247.6,-6.192C247.515,-6.288 247.472,-6.411 247.472,-6.56C247.472,-6.709 247.517,-6.84 247.608,-6.952C247.699,-7.064 247.845,-7.179 248.048,-7.296C248.421,-7.509 248.845,-7.677 249.32,-7.8C249.795,-7.923 250.267,-7.984 250.736,-7.984C252.688,-7.984 253.664,-6.96 253.664,-4.912ZM251.784,-1.56C252.195,-1.992 252.4,-2.549 252.4,-3.232L252.4,-3.696L252.112,-3.696C251.173,-3.696 250.459,-3.656 249.968,-3.576C249.477,-3.496 249.128,-3.363 248.92,-3.176C248.712,-2.989 248.608,-2.715 248.608,-2.352C248.608,-1.936 248.76,-1.592 249.064,-1.32C249.368,-1.048 249.749,-0.912 250.208,-0.912C250.848,-0.912 251.373,-1.128 251.784,-1.56Z" style="fill-rule:nonzero;"/>
                <path d="M262.752,-4.896L262.752,-0.56C262.752,-0.357 262.696,-0.2 262.584,-0.088C262.472,0.024 262.315,0.08 262.112,0.08C261.909,0.08 261.749,0.024 261.632,-0.088C261.515,-0.2 261.456,-0.357 261.456,-0.56L261.456,-4.816C261.456,-5.541 261.315,-6.069 261.032,-6.4C260.749,-6.731 260.299,-6.896 259.68,-6.896C258.965,-6.896 258.395,-6.677 257.968,-6.24C257.541,-5.803 257.328,-5.211 257.328,-4.464L257.328,-0.56C257.328,-0.357 257.272,-0.2 257.16,-0.088C257.048,0.024 256.891,0.08 256.688,0.08C256.485,0.08 256.325,0.024 256.208,-0.088C256.091,-0.2 256.032,-0.357 256.032,-0.56L256.032,-7.312C256.032,-7.504 256.091,-7.659 256.208,-7.776C256.325,-7.893 256.485,-7.952 256.688,-7.952C256.88,-7.952 257.032,-7.893 257.144,-7.776C257.256,-7.659 257.312,-7.509 257.312,-7.328L257.312,-6.512C257.568,-6.992 257.925,-7.357 258.384,-7.608C258.843,-7.859 259.365,-7.984 259.952,-7.984C261.819,-7.984 262.752,-6.955 262.752,-4.896Z" style="fill-rule:nonzero;"/>
                <path d="M271.856,-11.184C271.973,-11.067 272.032,-10.917 272.032,-10.736L272.032,-0.56C272.032,-0.368 271.973,-0.213 271.856,-0.096C271.739,0.021 271.579,0.08 271.376,0.08C271.173,0.08 271.016,0.021 270.904,-0.096C270.792,-0.213 270.736,-0.368 270.736,-0.56L270.736,-1.424C270.501,-0.933 270.157,-0.555 269.704,-0.288C269.251,-0.021 268.72,0.112 268.112,0.112C267.429,0.112 266.827,-0.059 266.304,-0.4C265.781,-0.741 265.376,-1.219 265.088,-1.832C264.8,-2.445 264.656,-3.157 264.656,-3.968C264.656,-4.768 264.8,-5.472 265.088,-6.08C265.376,-6.688 265.781,-7.157 266.304,-7.488C266.827,-7.819 267.429,-7.984 268.112,-7.984C268.72,-7.984 269.251,-7.851 269.704,-7.584C270.157,-7.317 270.501,-6.939 270.736,-6.448L270.736,-10.736C270.736,-10.928 270.792,-11.08 270.904,-11.192C271.016,-11.304 271.173,-11.36 271.376,-11.36C271.579,-11.36 271.739,-11.301 271.856,-11.184ZM270.12,-1.736C270.531,-2.253 270.736,-2.987 270.736,-3.936C270.736,-4.885 270.531,-5.616 270.12,-6.128C269.709,-6.64 269.125,-6.896 268.368,-6.896C267.611,-6.896 267.021,-6.64 266.6,-6.128C266.179,-5.616 265.968,-4.896 265.968,-3.968C265.968,-3.019 266.179,-2.28 266.6,-1.752C267.021,-1.224 267.611,-0.96 268.368,-0.96C269.125,-0.96 269.709,-1.219 270.12,-1.736Z" style="fill-rule:nonzero;"/>
                <path d="M280.768,-0.568C279.989,-1.032 279.389,-1.699 278.968,-2.568C278.547,-3.437 278.336,-4.464 278.336,-5.648C278.336,-6.821 278.547,-7.843 278.968,-8.712C279.389,-9.581 279.989,-10.248 280.768,-10.712C281.547,-11.176 282.469,-11.408 283.536,-11.408C284.251,-11.408 284.925,-11.293 285.56,-11.064C286.195,-10.835 286.747,-10.507 287.216,-10.08C287.387,-9.92 287.472,-9.733 287.472,-9.52C287.472,-9.371 287.429,-9.24 287.344,-9.128C287.259,-9.016 287.157,-8.96 287.04,-8.96C286.912,-8.96 286.757,-9.019 286.576,-9.136C286.032,-9.563 285.539,-9.861 285.096,-10.032C284.653,-10.203 284.144,-10.288 283.568,-10.288C282.331,-10.288 281.379,-9.885 280.712,-9.08C280.045,-8.275 279.712,-7.131 279.712,-5.648C279.712,-4.155 280.045,-3.005 280.712,-2.2C281.379,-1.395 282.331,-0.992 283.568,-0.992C284.133,-0.992 284.64,-1.077 285.088,-1.248C285.536,-1.419 286.032,-1.717 286.576,-2.144C286.757,-2.261 286.912,-2.32 287.04,-2.32C287.157,-2.32 287.259,-2.267 287.344,-2.16C287.429,-2.053 287.472,-1.92 287.472,-1.76C287.472,-1.547 287.387,-1.36 287.216,-1.2C286.747,-0.773 286.195,-0.445 285.56,-0.216C284.925,0.013 284.251,0.128 283.536,0.128C282.469,0.128 281.547,-0.104 280.768,-0.568Z" style="fill-rule:nonzero;"/>
                <path d="M290.52,-0.384C289.96,-0.715 289.528,-1.187 289.224,-1.8C288.92,-2.413 288.768,-3.125 288.768,-3.936C288.768,-4.747 288.92,-5.459 289.224,-6.072C289.528,-6.685 289.96,-7.157 290.52,-7.488C291.08,-7.819 291.728,-7.984 292.464,-7.984C293.2,-7.984 293.851,-7.819 294.416,-7.488C294.981,-7.157 295.416,-6.685 295.72,-6.072C296.024,-5.459 296.176,-4.747 296.176,-3.936C296.176,-3.125 296.024,-2.413 295.72,-1.8C295.416,-1.187 294.981,-0.715 294.416,-0.384C293.851,-0.053 293.2,0.112 292.464,0.112C291.728,0.112 291.08,-0.053 290.52,-0.384ZM294.232,-1.72C294.643,-2.227 294.848,-2.965 294.848,-3.936C294.848,-4.885 294.64,-5.619 294.224,-6.136C293.808,-6.653 293.221,-6.912 292.464,-6.912C291.707,-6.912 291.12,-6.653 290.704,-6.136C290.288,-5.619 290.08,-4.885 290.08,-3.936C290.08,-2.976 290.285,-2.24 290.696,-1.728C291.107,-1.216 291.696,-0.96 292.464,-0.96C293.232,-0.96 293.821,-1.213 294.232,-1.72Z" style="fill-rule:nonzero;"/>
                <path d="M304.832,-4.896L304.832,-0.56C304.832,-0.357 304.776,-0.2 304.664,-0.088C304.552,0.024 304.395,0.08 304.192,0.08C303.989,0.08 303.829,0.024 303.712,-0.088C303.595,-0.2 303.536,-0.357 303.536,-0.56L303.536,-4.816C303.536,-5.541 303.395,-6.069 303.112,-6.4C302.829,-6.731 302.379,-6.896 301.76,-6.896C301.045,-6.896 300.475,-6.677 300.048,-6.24C299.621,-5.803 299.408,-5.211 299.408,-4.464L299.408,-0.56C299.408,-0.357 299.352,-0.2 299.24,-0.088C299.128,0.024 298.971,0.08 298.768,0.08C298.565,0.08 298.405,0.024 298.288,-0.088C298.171,-0.2 298.112,-0.357 298.112,-0.56L298.112,-7.312C298.112,-7.504 298.171,-7.659 298.288,-7.776C298.405,-7.893 298.565,-7.952 298.768,-7.952C298.96,-7.952 299.112,-7.893 299.224,-7.776C299.336,-7.659 299.392,-7.509 299.392,-7.328L299.392,-6.512C299.648,-6.992 300.005,-7.357 300.464,-7.608C300.923,-7.859 301.445,-7.984 302.032,-7.984C303.899,-7.984 304.832,-6.955 304.832,-4.896Z" style="fill-rule:nonzero;"/>
                <path d="M311.36,-0.432C311.36,-0.251 311.293,-0.115 311.16,-0.024C311.027,0.067 310.827,0.101 310.56,0.08L310.128,0.048C309.275,-0.016 308.645,-0.272 308.24,-0.72C307.835,-1.168 307.632,-1.845 307.632,-2.752L307.632,-6.768L306.56,-6.768C306.379,-6.768 306.237,-6.813 306.136,-6.904C306.035,-6.995 305.984,-7.115 305.984,-7.264C305.984,-7.424 306.035,-7.552 306.136,-7.648C306.237,-7.744 306.379,-7.792 306.56,-7.792L307.632,-7.792L307.632,-9.6C307.632,-9.803 307.691,-9.96 307.808,-10.072C307.925,-10.184 308.085,-10.24 308.288,-10.24C308.48,-10.24 308.635,-10.184 308.752,-10.072C308.869,-9.96 308.928,-9.803 308.928,-9.6L308.928,-7.792L310.704,-7.792C310.875,-7.792 311.011,-7.744 311.112,-7.648C311.213,-7.552 311.264,-7.424 311.264,-7.264C311.264,-7.115 311.213,-6.995 311.112,-6.904C311.011,-6.813 310.875,-6.768 310.704,-6.768L308.928,-6.768L308.928,-2.688C308.928,-2.101 309.048,-1.677 309.288,-1.416C309.528,-1.155 309.888,-1.008 310.368,-0.976L310.8,-0.944C311.173,-0.912 311.36,-0.741 311.36,-0.432Z" style="fill-rule:nonzero;"/>
                <path d="M317.168,-7.408C317.168,-7.237 317.12,-7.101 317.024,-7C316.928,-6.899 316.763,-6.837 316.528,-6.816L316.048,-6.768C315.333,-6.704 314.803,-6.451 314.456,-6.008C314.109,-5.565 313.936,-5.045 313.936,-4.448L313.936,-0.56C313.936,-0.347 313.877,-0.187 313.76,-0.08C313.643,0.027 313.488,0.08 313.296,0.08C313.104,0.08 312.947,0.024 312.824,-0.088C312.701,-0.2 312.64,-0.357 312.64,-0.56L312.64,-7.312C312.64,-7.515 312.704,-7.672 312.832,-7.784C312.96,-7.896 313.115,-7.952 313.296,-7.952C313.467,-7.952 313.611,-7.896 313.728,-7.784C313.845,-7.672 313.904,-7.52 313.904,-7.328L313.904,-6.432C314.128,-6.901 314.445,-7.259 314.856,-7.504C315.267,-7.749 315.739,-7.893 316.272,-7.936L316.496,-7.952C316.944,-7.984 317.168,-7.803 317.168,-7.408Z" style="fill-rule:nonzero;"/>
                <path d="M319.416,-0.384C318.856,-0.715 318.424,-1.187 318.12,-1.8C317.816,-2.413 317.664,-3.125 317.664,-3.936C317.664,-4.747 317.816,-5.459 318.12,-6.072C318.424,-6.685 318.856,-7.157 319.416,-7.488C319.976,-7.819 320.624,-7.984 321.36,-7.984C322.096,-7.984 322.747,-7.819 323.312,-7.488C323.877,-7.157 324.312,-6.685 324.616,-6.072C324.92,-5.459 325.072,-4.747 325.072,-3.936C325.072,-3.125 324.92,-2.413 324.616,-1.8C324.312,-1.187 323.877,-0.715 323.312,-0.384C322.747,-0.053 322.096,0.112 321.36,0.112C320.624,0.112 319.976,-0.053 319.416,-0.384ZM323.128,-1.72C323.539,-2.227 323.744,-2.965 323.744,-3.936C323.744,-4.885 323.536,-5.619 323.12,-6.136C322.704,-6.653 322.117,-6.912 321.36,-6.912C320.603,-6.912 320.016,-6.653 319.6,-6.136C319.184,-5.619 318.976,-4.885 318.976,-3.936C318.976,-2.976 319.181,-2.24 319.592,-1.728C320.003,-1.216 320.592,-0.96 321.36,-0.96C322.128,-0.96 322.717,-1.213 323.128,-1.72Z" style="fill-rule:nonzero;"/>
                <path d="M327.192,-0.088C327.069,-0.2 327.008,-0.357 327.008,-0.56L327.008,-10.72C327.008,-10.923 327.069,-11.08 327.192,-11.192C327.315,-11.304 327.472,-11.36 327.664,-11.36C327.845,-11.36 327.997,-11.304 328.12,-11.192C328.243,-11.08 328.304,-10.923 328.304,-10.72L328.304,-0.56C328.304,-0.357 328.243,-0.2 328.12,-0.088C327.997,0.024 327.845,0.08 327.664,0.08C327.472,0.08 327.315,0.024 327.192,-0.088Z" style="fill-rule:nonzero;"/>
            </g>
            <g transform="matrix(1,0,0,1,506,710)">
                <path d="M6.928,-7.472C7.451,-7.131 7.856,-6.653 8.144,-6.04C8.432,-5.427 8.576,-4.715 8.576,-3.904C8.576,-3.093 8.432,-2.387 8.144,-1.784C7.856,-1.181 7.453,-0.715 6.936,-0.384C6.419,-0.053 5.813,0.112 5.12,0.112C4.512,0.112 3.981,-0.021 3.528,-0.288C3.075,-0.555 2.731,-0.933 2.496,-1.424L2.496,2.336C2.496,2.528 2.44,2.68 2.328,2.792C2.216,2.904 2.059,2.96 1.856,2.96C1.653,2.96 1.493,2.901 1.376,2.784C1.259,2.667 1.2,2.517 1.2,2.336L1.2,-7.312C1.2,-7.504 1.259,-7.659 1.376,-7.776C1.493,-7.893 1.653,-7.952 1.856,-7.952C2.059,-7.952 2.216,-7.893 2.328,-7.776C2.44,-7.659 2.496,-7.504 2.496,-7.312L2.496,-6.448C2.731,-6.939 3.075,-7.317 3.528,-7.584C3.981,-7.851 4.512,-7.984 5.12,-7.984C5.803,-7.984 6.405,-7.813 6.928,-7.472ZM6.624,-1.728C7.04,-2.24 7.248,-2.965 7.248,-3.904C7.248,-4.843 7.04,-5.576 6.624,-6.104C6.208,-6.632 5.621,-6.896 4.864,-6.896C4.107,-6.896 3.523,-6.64 3.112,-6.128C2.701,-5.616 2.496,-4.885 2.496,-3.936C2.496,-2.987 2.701,-2.253 3.112,-1.736C3.523,-1.219 4.107,-0.96 4.864,-0.96C5.621,-0.96 6.208,-1.216 6.624,-1.728Z" style="fill-rule:nonzero;"/>
                <path d="M15.04,-7.408C15.04,-7.237 14.992,-7.101 14.896,-7C14.8,-6.899 14.635,-6.837 14.4,-6.816L13.92,-6.768C13.205,-6.704 12.675,-6.451 12.328,-6.008C11.981,-5.565 11.808,-5.045 11.808,-4.448L11.808,-0.56C11.808,-0.347 11.749,-0.187 11.632,-0.08C11.515,0.027 11.36,0.08 11.168,0.08C10.976,0.08 10.819,0.024 10.696,-0.088C10.573,-0.2 10.512,-0.357 10.512,-0.56L10.512,-7.312C10.512,-7.515 10.576,-7.672 10.704,-7.784C10.832,-7.896 10.987,-7.952 11.168,-7.952C11.339,-7.952 11.483,-7.896 11.6,-7.784C11.717,-7.672 11.776,-7.52 11.776,-7.328L11.776,-6.432C12,-6.901 12.317,-7.259 12.728,-7.504C13.139,-7.749 13.611,-7.893 14.144,-7.936L14.368,-7.952C14.816,-7.984 15.04,-7.803 15.04,-7.408Z" style="fill-rule:nonzero;"/>
                <path d="M16.344,-0.088C16.221,-0.2 16.16,-0.357 16.16,-0.56L16.16,-7.312C16.16,-7.515 16.221,-7.672 16.344,-7.784C16.467,-7.896 16.624,-7.952 16.816,-7.952C17.008,-7.952 17.163,-7.896 17.28,-7.784C17.397,-7.672 17.456,-7.515 17.456,-7.312L17.456,-0.56C17.456,-0.347 17.397,-0.187 17.28,-0.08C17.163,0.027 17.008,0.08 16.816,0.08C16.624,0.08 16.467,0.024 16.344,-0.088ZM16.192,-9.856C16.032,-10.005 15.952,-10.203 15.952,-10.448C15.952,-10.683 16.032,-10.875 16.192,-11.024C16.352,-11.173 16.56,-11.248 16.816,-11.248C17.072,-11.248 17.28,-11.173 17.44,-11.024C17.6,-10.875 17.68,-10.683 17.68,-10.448C17.68,-10.203 17.6,-10.005 17.44,-9.856C17.28,-9.707 17.072,-9.632 16.816,-9.632C16.56,-9.632 16.352,-9.707 16.192,-9.856Z" style="fill-rule:nonzero;"/>
                <path d="M21.16,-0.384C20.6,-0.715 20.168,-1.187 19.864,-1.8C19.56,-2.413 19.408,-3.125 19.408,-3.936C19.408,-4.747 19.56,-5.459 19.864,-6.072C20.168,-6.685 20.6,-7.157 21.16,-7.488C21.72,-7.819 22.368,-7.984 23.104,-7.984C23.84,-7.984 24.491,-7.819 25.056,-7.488C25.621,-7.157 26.056,-6.685 26.36,-6.072C26.664,-5.459 26.816,-4.747 26.816,-3.936C26.816,-3.125 26.664,-2.413 26.36,-1.8C26.056,-1.187 25.621,-0.715 25.056,-0.384C24.491,-0.053 23.84,0.112 23.104,0.112C22.368,0.112 21.72,-0.053 21.16,-0.384ZM24.872,-1.72C25.283,-2.227 25.488,-2.965 25.488,-3.936C25.488,-4.885 25.28,-5.619 24.864,-6.136C24.448,-6.653 23.861,-6.912 23.104,-6.912C22.347,-6.912 21.76,-6.653 21.344,-6.136C20.928,-5.619 20.72,-4.885 20.72,-3.936C20.72,-2.976 20.925,-2.24 21.336,-1.728C21.747,-1.216 22.336,-0.96 23.104,-0.96C23.872,-0.96 24.461,-1.213 24.872,-1.72Z" style="fill-rule:nonzero;"/>
                <path d="M33.28,-7.408C33.28,-7.237 33.232,-7.101 33.136,-7C33.04,-6.899 32.875,-6.837 32.64,-6.816L32.16,-6.768C31.445,-6.704 30.915,-6.451 30.568,-6.008C30.221,-5.565 30.048,-5.045 30.048,-4.448L30.048,-0.56C30.048,-0.347 29.989,-0.187 29.872,-0.08C29.755,0.027 29.6,0.08 29.408,0.08C29.216,0.08 29.059,0.024 28.936,-0.088C28.813,-0.2 28.752,-0.357 28.752,-0.56L28.752,-7.312C28.752,-7.515 28.816,-7.672 28.944,-7.784C29.072,-7.896 29.227,-7.952 29.408,-7.952C29.579,-7.952 29.723,-7.896 29.84,-7.784C29.957,-7.672 30.016,-7.52 30.016,-7.328L30.016,-6.432C30.24,-6.901 30.557,-7.259 30.968,-7.504C31.379,-7.749 31.851,-7.893 32.384,-7.936L32.608,-7.952C33.056,-7.984 33.28,-7.803 33.28,-7.408Z" style="fill-rule:nonzero;"/>
                <path d="M34.584,-0.088C34.461,-0.2 34.4,-0.357 34.4,-0.56L34.4,-7.312C34.4,-7.515 34.461,-7.672 34.584,-7.784C34.707,-7.896 34.864,-7.952 35.056,-7.952C35.248,-7.952 35.403,-7.896 35.52,-7.784C35.637,-7.672 35.696,-7.515 35.696,-7.312L35.696,-0.56C35.696,-0.347 35.637,-0.187 35.52,-0.08C35.403,0.027 35.248,0.08 35.056,0.08C34.864,0.08 34.707,0.024 34.584,-0.088ZM34.432,-9.856C34.272,-10.005 34.192,-10.203 34.192,-10.448C34.192,-10.683 34.272,-10.875 34.432,-11.024C34.592,-11.173 34.8,-11.248 35.056,-11.248C35.312,-11.248 35.52,-11.173 35.68,-11.024C35.84,-10.875 35.92,-10.683 35.92,-10.448C35.92,-10.203 35.84,-10.005 35.68,-9.856C35.52,-9.707 35.312,-9.632 35.056,-9.632C34.8,-9.632 34.592,-9.707 34.432,-9.856Z" style="fill-rule:nonzero;"/>
                <path d="M42.272,-0.432C42.272,-0.251 42.205,-0.115 42.072,-0.024C41.939,0.067 41.739,0.101 41.472,0.08L41.04,0.048C40.187,-0.016 39.557,-0.272 39.152,-0.72C38.747,-1.168 38.544,-1.845 38.544,-2.752L38.544,-6.768L37.472,-6.768C37.291,-6.768 37.149,-6.813 37.048,-6.904C36.947,-6.995 36.896,-7.115 36.896,-7.264C36.896,-7.424 36.947,-7.552 37.048,-7.648C37.149,-7.744 37.291,-7.792 37.472,-7.792L38.544,-7.792L38.544,-9.6C38.544,-9.803 38.603,-9.96 38.72,-10.072C38.837,-10.184 38.997,-10.24 39.2,-10.24C39.392,-10.24 39.547,-10.184 39.664,-10.072C39.781,-9.96 39.84,-9.803 39.84,-9.6L39.84,-7.792L41.616,-7.792C41.787,-7.792 41.923,-7.744 42.024,-7.648C42.125,-7.552 42.176,-7.424 42.176,-7.264C42.176,-7.115 42.125,-6.995 42.024,-6.904C41.923,-6.813 41.787,-6.768 41.616,-6.768L39.84,-6.768L39.84,-2.688C39.84,-2.101 39.96,-1.677 40.2,-1.416C40.44,-1.155 40.8,-1.008 41.28,-0.976L41.712,-0.944C42.085,-0.912 42.272,-0.741 42.272,-0.432Z" style="fill-rule:nonzero;"/>
                <path d="M43.736,-0.088C43.613,-0.2 43.552,-0.357 43.552,-0.56L43.552,-7.312C43.552,-7.515 43.613,-7.672 43.736,-7.784C43.859,-7.896 44.016,-7.952 44.208,-7.952C44.4,-7.952 44.555,-7.896 44.672,-7.784C44.789,-7.672 44.848,-7.515 44.848,-7.312L44.848,-0.56C44.848,-0.347 44.789,-0.187 44.672,-0.08C44.555,0.027 44.4,0.08 44.208,0.08C44.016,0.08 43.859,0.024 43.736,-0.088ZM43.584,-9.856C43.424,-10.005 43.344,-10.203 43.344,-10.448C43.344,-10.683 43.424,-10.875 43.584,-11.024C43.744,-11.173 43.952,-11.248 44.208,-11.248C44.464,-11.248 44.672,-11.173 44.832,-11.024C44.992,-10.875 45.072,-10.683 45.072,-10.448C45.072,-10.203 44.992,-10.005 44.832,-9.856C44.672,-9.707 44.464,-9.632 44.208,-9.632C43.952,-9.632 43.744,-9.707 43.584,-9.856Z" style="fill-rule:nonzero;"/>
                <path d="M53.408,-0.888C53.504,-0.797 53.552,-0.672 53.552,-0.512C53.552,-0.352 53.504,-0.227 53.408,-0.136C53.312,-0.045 53.173,0 52.992,0L47.392,0C47.211,0 47.061,-0.056 46.944,-0.168C46.827,-0.28 46.768,-0.416 46.768,-0.576C46.768,-0.747 46.832,-0.912 46.96,-1.072L51.696,-6.768L47.312,-6.768C47.131,-6.768 46.989,-6.813 46.888,-6.904C46.787,-6.995 46.736,-7.115 46.736,-7.264C46.736,-7.424 46.787,-7.552 46.888,-7.648C46.989,-7.744 47.131,-7.792 47.312,-7.792L52.736,-7.792C52.928,-7.792 53.083,-7.736 53.2,-7.624C53.317,-7.512 53.376,-7.376 53.376,-7.216C53.376,-7.045 53.312,-6.88 53.184,-6.72L48.432,-1.024L52.992,-1.024C53.173,-1.024 53.312,-0.979 53.408,-0.888Z" style="fill-rule:nonzero;"/>
                <path d="M61.472,-1.664C61.557,-1.568 61.6,-1.445 61.6,-1.296C61.6,-1.029 61.413,-0.784 61.04,-0.56C60.656,-0.336 60.251,-0.168 59.824,-0.056C59.397,0.056 58.981,0.112 58.576,0.112C57.371,0.112 56.419,-0.245 55.72,-0.96C55.021,-1.675 54.672,-2.661 54.672,-3.92C54.672,-4.72 54.827,-5.427 55.136,-6.04C55.445,-6.653 55.88,-7.131 56.44,-7.472C57,-7.813 57.637,-7.984 58.352,-7.984C59.365,-7.984 60.171,-7.653 60.768,-6.992C61.365,-6.331 61.664,-5.435 61.664,-4.304C61.664,-4.091 61.621,-3.936 61.536,-3.84C61.451,-3.744 61.312,-3.696 61.12,-3.696L55.968,-3.696C56.064,-1.861 56.933,-0.944 58.576,-0.944C58.992,-0.944 59.349,-1 59.648,-1.112C59.947,-1.224 60.267,-1.376 60.608,-1.568C60.885,-1.728 61.072,-1.808 61.168,-1.808C61.285,-1.808 61.387,-1.76 61.472,-1.664ZM56.728,-6.336C56.317,-5.909 56.075,-5.307 56,-4.528L60.528,-4.528C60.507,-5.317 60.309,-5.923 59.936,-6.344C59.563,-6.765 59.04,-6.976 58.368,-6.976C57.685,-6.976 57.139,-6.763 56.728,-6.336Z" style="fill-rule:nonzero;"/>
                <path d="M64.792,-0.064C64.349,-0.181 63.957,-0.347 63.616,-0.56C63.424,-0.688 63.288,-0.808 63.208,-0.92C63.128,-1.032 63.088,-1.168 63.088,-1.328C63.088,-1.467 63.128,-1.581 63.208,-1.672C63.288,-1.763 63.392,-1.808 63.52,-1.808C63.648,-1.808 63.835,-1.728 64.08,-1.568C64.4,-1.376 64.717,-1.224 65.032,-1.112C65.347,-1 65.739,-0.944 66.208,-0.944C66.784,-0.944 67.232,-1.045 67.552,-1.248C67.872,-1.451 68.032,-1.744 68.032,-2.128C68.032,-2.363 67.973,-2.552 67.856,-2.696C67.739,-2.84 67.536,-2.968 67.248,-3.08C66.96,-3.192 66.539,-3.307 65.984,-3.424C65.045,-3.627 64.373,-3.899 63.968,-4.24C63.563,-4.581 63.36,-5.045 63.36,-5.632C63.36,-6.091 63.488,-6.496 63.744,-6.848C64,-7.2 64.355,-7.477 64.808,-7.68C65.261,-7.883 65.776,-7.984 66.352,-7.984C66.768,-7.984 67.171,-7.928 67.56,-7.816C67.949,-7.704 68.293,-7.547 68.592,-7.344C68.955,-7.088 69.136,-6.821 69.136,-6.544C69.136,-6.405 69.093,-6.288 69.008,-6.192C68.923,-6.096 68.821,-6.048 68.704,-6.048C68.576,-6.048 68.384,-6.139 68.128,-6.32C67.829,-6.512 67.547,-6.661 67.28,-6.768C67.013,-6.875 66.683,-6.928 66.288,-6.928C65.787,-6.928 65.384,-6.816 65.08,-6.592C64.776,-6.368 64.624,-6.069 64.624,-5.696C64.624,-5.461 64.68,-5.272 64.792,-5.128C64.904,-4.984 65.091,-4.856 65.352,-4.744C65.613,-4.632 65.989,-4.523 66.48,-4.416C67.205,-4.256 67.768,-4.08 68.168,-3.888C68.568,-3.696 68.853,-3.461 69.024,-3.184C69.195,-2.907 69.28,-2.555 69.28,-2.128C69.28,-1.456 68.997,-0.915 68.432,-0.504C67.867,-0.093 67.12,0.112 66.192,0.112C65.701,0.112 65.235,0.053 64.792,-0.064Z" style="fill-rule:nonzero;"/>
                <path d="M81.488,-4.912L81.488,-0.56C81.488,-0.368 81.432,-0.213 81.32,-0.096C81.208,0.021 81.056,0.08 80.864,0.08C80.672,0.08 80.517,0.021 80.4,-0.096C80.283,-0.213 80.224,-0.368 80.224,-0.56L80.224,-1.328C80.021,-0.869 79.712,-0.515 79.296,-0.264C78.88,-0.013 78.4,0.112 77.856,0.112C77.355,0.112 76.893,0.011 76.472,-0.192C76.051,-0.395 75.717,-0.677 75.472,-1.04C75.227,-1.403 75.104,-1.803 75.104,-2.24C75.104,-2.827 75.253,-3.283 75.552,-3.608C75.851,-3.933 76.341,-4.168 77.024,-4.312C77.707,-4.456 78.656,-4.528 79.872,-4.528L80.224,-4.528L80.224,-5.056C80.224,-5.696 80.093,-6.165 79.832,-6.464C79.571,-6.763 79.147,-6.912 78.56,-6.912C77.835,-6.912 77.099,-6.715 76.352,-6.32C76.064,-6.139 75.861,-6.048 75.744,-6.048C75.616,-6.048 75.509,-6.096 75.424,-6.192C75.339,-6.288 75.296,-6.411 75.296,-6.56C75.296,-6.709 75.341,-6.84 75.432,-6.952C75.523,-7.064 75.669,-7.179 75.872,-7.296C76.245,-7.509 76.669,-7.677 77.144,-7.8C77.619,-7.923 78.091,-7.984 78.56,-7.984C80.512,-7.984 81.488,-6.96 81.488,-4.912ZM79.608,-1.56C80.019,-1.992 80.224,-2.549 80.224,-3.232L80.224,-3.696L79.936,-3.696C78.997,-3.696 78.283,-3.656 77.792,-3.576C77.301,-3.496 76.952,-3.363 76.744,-3.176C76.536,-2.989 76.432,-2.715 76.432,-2.352C76.432,-1.936 76.584,-1.592 76.888,-1.32C77.192,-1.048 77.573,-0.912 78.032,-0.912C78.672,-0.912 79.197,-1.128 79.608,-1.56Z" style="fill-rule:nonzero;"/>
                <path d="M90.576,-4.896L90.576,-0.56C90.576,-0.357 90.52,-0.2 90.408,-0.088C90.296,0.024 90.139,0.08 89.936,0.08C89.733,0.08 89.573,0.024 89.456,-0.088C89.339,-0.2 89.28,-0.357 89.28,-0.56L89.28,-4.816C89.28,-5.541 89.139,-6.069 88.856,-6.4C88.573,-6.731 88.123,-6.896 87.504,-6.896C86.789,-6.896 86.219,-6.677 85.792,-6.24C85.365,-5.803 85.152,-5.211 85.152,-4.464L85.152,-0.56C85.152,-0.357 85.096,-0.2 84.984,-0.088C84.872,0.024 84.715,0.08 84.512,0.08C84.309,0.08 84.149,0.024 84.032,-0.088C83.915,-0.2 83.856,-0.357 83.856,-0.56L83.856,-7.312C83.856,-7.504 83.915,-7.659 84.032,-7.776C84.149,-7.893 84.309,-7.952 84.512,-7.952C84.704,-7.952 84.856,-7.893 84.968,-7.776C85.08,-7.659 85.136,-7.509 85.136,-7.328L85.136,-6.512C85.392,-6.992 85.749,-7.357 86.208,-7.608C86.667,-7.859 87.189,-7.984 87.776,-7.984C89.643,-7.984 90.576,-6.955 90.576,-4.896Z" style="fill-rule:nonzero;"/>
                <path d="M99.68,-11.184C99.797,-11.067 99.856,-10.917 99.856,-10.736L99.856,-0.56C99.856,-0.368 99.797,-0.213 99.68,-0.096C99.563,0.021 99.403,0.08 99.2,0.08C98.997,0.08 98.84,0.021 98.728,-0.096C98.616,-0.213 98.56,-0.368 98.56,-0.56L98.56,-1.424C98.325,-0.933 97.981,-0.555 97.528,-0.288C97.075,-0.021 96.544,0.112 95.936,0.112C95.253,0.112 94.651,-0.059 94.128,-0.4C93.605,-0.741 93.2,-1.219 92.912,-1.832C92.624,-2.445 92.48,-3.157 92.48,-3.968C92.48,-4.768 92.624,-5.472 92.912,-6.08C93.2,-6.688 93.605,-7.157 94.128,-7.488C94.651,-7.819 95.253,-7.984 95.936,-7.984C96.544,-7.984 97.075,-7.851 97.528,-7.584C97.981,-7.317 98.325,-6.939 98.56,-6.448L98.56,-10.736C98.56,-10.928 98.616,-11.08 98.728,-11.192C98.84,-11.304 98.997,-11.36 99.2,-11.36C99.403,-11.36 99.563,-11.301 99.68,-11.184ZM97.944,-1.736C98.355,-2.253 98.56,-2.987 98.56,-3.936C98.56,-4.885 98.355,-5.616 97.944,-6.128C97.533,-6.64 96.949,-6.896 96.192,-6.896C95.435,-6.896 94.845,-6.64 94.424,-6.128C94.003,-5.616 93.792,-4.896 93.792,-3.968C93.792,-3.019 94.003,-2.28 94.424,-1.752C94.845,-1.224 95.435,-0.96 96.192,-0.96C96.949,-0.96 97.533,-1.219 97.944,-1.736Z" style="fill-rule:nonzero;"/>
                <path d="M107.672,-0.384C107.112,-0.715 106.68,-1.184 106.376,-1.792C106.072,-2.4 105.92,-3.104 105.92,-3.904C105.92,-4.704 106.077,-5.413 106.392,-6.032C106.707,-6.651 107.147,-7.131 107.712,-7.472C108.277,-7.813 108.928,-7.984 109.664,-7.984C110.069,-7.984 110.472,-7.928 110.872,-7.816C111.272,-7.704 111.621,-7.541 111.92,-7.328C112.112,-7.2 112.248,-7.075 112.328,-6.952C112.408,-6.829 112.448,-6.693 112.448,-6.544C112.448,-6.395 112.408,-6.272 112.328,-6.176C112.248,-6.08 112.144,-6.032 112.016,-6.032C111.941,-6.032 111.861,-6.053 111.776,-6.096C111.691,-6.139 111.619,-6.181 111.56,-6.224C111.501,-6.267 111.461,-6.293 111.44,-6.304C111.163,-6.485 110.899,-6.629 110.648,-6.736C110.397,-6.843 110.091,-6.896 109.728,-6.896C108.949,-6.896 108.344,-6.632 107.912,-6.104C107.48,-5.576 107.264,-4.843 107.264,-3.904C107.264,-2.965 107.48,-2.24 107.912,-1.728C108.344,-1.216 108.949,-0.96 109.728,-0.96C110.091,-0.96 110.403,-1.013 110.664,-1.12C110.925,-1.227 111.189,-1.371 111.456,-1.552C111.573,-1.627 111.685,-1.691 111.792,-1.744C111.899,-1.797 111.989,-1.824 112.064,-1.824C112.181,-1.824 112.28,-1.776 112.36,-1.68C112.44,-1.584 112.48,-1.461 112.48,-1.312C112.48,-1.173 112.443,-1.048 112.368,-0.936C112.293,-0.824 112.155,-0.699 111.952,-0.56C111.653,-0.357 111.293,-0.195 110.872,-0.072C110.451,0.051 110.027,0.112 109.6,0.112C108.875,0.112 108.232,-0.053 107.672,-0.384Z" style="fill-rule:nonzero;"/>
                <path d="M115.336,-0.384C114.776,-0.715 114.344,-1.187 114.04,-1.8C113.736,-2.413 113.584,-3.125 113.584,-3.936C113.584,-4.747 113.736,-5.459 114.04,-6.072C114.344,-6.685 114.776,-7.157 115.336,-7.488C115.896,-7.819 116.544,-7.984 117.28,-7.984C118.016,-7.984 118.667,-7.819 119.232,-7.488C119.797,-7.157 120.232,-6.685 120.536,-6.072C120.84,-5.459 120.992,-4.747 120.992,-3.936C120.992,-3.125 120.84,-2.413 120.536,-1.8C120.232,-1.187 119.797,-0.715 119.232,-0.384C118.667,-0.053 118.016,0.112 117.28,0.112C116.544,0.112 115.896,-0.053 115.336,-0.384ZM119.048,-1.72C119.459,-2.227 119.664,-2.965 119.664,-3.936C119.664,-4.885 119.456,-5.619 119.04,-6.136C118.624,-6.653 118.037,-6.912 117.28,-6.912C116.523,-6.912 115.936,-6.653 115.52,-6.136C115.104,-5.619 114.896,-4.885 114.896,-3.936C114.896,-2.976 115.101,-2.24 115.512,-1.728C115.923,-1.216 116.512,-0.96 117.28,-0.96C118.048,-0.96 118.637,-1.213 119.048,-1.72Z" style="fill-rule:nonzero;"/>
                <path d="M129.648,-4.896L129.648,-0.56C129.648,-0.357 129.592,-0.2 129.48,-0.088C129.368,0.024 129.211,0.08 129.008,0.08C128.805,0.08 128.645,0.024 128.528,-0.088C128.411,-0.2 128.352,-0.357 128.352,-0.56L128.352,-4.816C128.352,-5.541 128.211,-6.069 127.928,-6.4C127.645,-6.731 127.195,-6.896 126.576,-6.896C125.861,-6.896 125.291,-6.677 124.864,-6.24C124.437,-5.803 124.224,-5.211 124.224,-4.464L124.224,-0.56C124.224,-0.357 124.168,-0.2 124.056,-0.088C123.944,0.024 123.787,0.08 123.584,0.08C123.381,0.08 123.221,0.024 123.104,-0.088C122.987,-0.2 122.928,-0.357 122.928,-0.56L122.928,-7.312C122.928,-7.504 122.987,-7.659 123.104,-7.776C123.221,-7.893 123.381,-7.952 123.584,-7.952C123.776,-7.952 123.928,-7.893 124.04,-7.776C124.152,-7.659 124.208,-7.509 124.208,-7.328L124.208,-6.512C124.464,-6.992 124.821,-7.357 125.28,-7.608C125.739,-7.859 126.261,-7.984 126.848,-7.984C128.715,-7.984 129.648,-6.955 129.648,-4.896Z" style="fill-rule:nonzero;"/>
                <path d="M136.176,-0.432C136.176,-0.251 136.109,-0.115 135.976,-0.024C135.843,0.067 135.643,0.101 135.376,0.08L134.944,0.048C134.091,-0.016 133.461,-0.272 133.056,-0.72C132.651,-1.168 132.448,-1.845 132.448,-2.752L132.448,-6.768L131.376,-6.768C131.195,-6.768 131.053,-6.813 130.952,-6.904C130.851,-6.995 130.8,-7.115 130.8,-7.264C130.8,-7.424 130.851,-7.552 130.952,-7.648C131.053,-7.744 131.195,-7.792 131.376,-7.792L132.448,-7.792L132.448,-9.6C132.448,-9.803 132.507,-9.96 132.624,-10.072C132.741,-10.184 132.901,-10.24 133.104,-10.24C133.296,-10.24 133.451,-10.184 133.568,-10.072C133.685,-9.96 133.744,-9.803 133.744,-9.6L133.744,-7.792L135.52,-7.792C135.691,-7.792 135.827,-7.744 135.928,-7.648C136.029,-7.552 136.08,-7.424 136.08,-7.264C136.08,-7.115 136.029,-6.995 135.928,-6.904C135.827,-6.813 135.691,-6.768 135.52,-6.768L133.744,-6.768L133.744,-2.688C133.744,-2.101 133.864,-1.677 134.104,-1.416C134.344,-1.155 134.704,-1.008 135.184,-0.976L135.616,-0.944C135.989,-0.912 136.176,-0.741 136.176,-0.432Z" style="fill-rule:nonzero;"/>
                <path d="M141.984,-7.408C141.984,-7.237 141.936,-7.101 141.84,-7C141.744,-6.899 141.579,-6.837 141.344,-6.816L140.864,-6.768C140.149,-6.704 139.619,-6.451 139.272,-6.008C138.925,-5.565 138.752,-5.045 138.752,-4.448L138.752,-0.56C138.752,-0.347 138.693,-0.187 138.576,-0.08C138.459,0.027 138.304,0.08 138.112,0.08C137.92,0.08 137.763,0.024 137.64,-0.088C137.517,-0.2 137.456,-0.357 137.456,-0.56L137.456,-7.312C137.456,-7.515 137.52,-7.672 137.648,-7.784C137.776,-7.896 137.931,-7.952 138.112,-7.952C138.283,-7.952 138.427,-7.896 138.544,-7.784C138.661,-7.672 138.72,-7.52 138.72,-7.328L138.72,-6.432C138.944,-6.901 139.261,-7.259 139.672,-7.504C140.083,-7.749 140.555,-7.893 141.088,-7.936L141.312,-7.952C141.76,-7.984 141.984,-7.803 141.984,-7.408Z" style="fill-rule:nonzero;"/>
                <path d="M144.232,-0.384C143.672,-0.715 143.24,-1.187 142.936,-1.8C142.632,-2.413 142.48,-3.125 142.48,-3.936C142.48,-4.747 142.632,-5.459 142.936,-6.072C143.24,-6.685 143.672,-7.157 144.232,-7.488C144.792,-7.819 145.44,-7.984 146.176,-7.984C146.912,-7.984 147.563,-7.819 148.128,-7.488C148.693,-7.157 149.128,-6.685 149.432,-6.072C149.736,-5.459 149.888,-4.747 149.888,-3.936C149.888,-3.125 149.736,-2.413 149.432,-1.8C149.128,-1.187 148.693,-0.715 148.128,-0.384C147.563,-0.053 146.912,0.112 146.176,0.112C145.44,0.112 144.792,-0.053 144.232,-0.384ZM147.944,-1.72C148.355,-2.227 148.56,-2.965 148.56,-3.936C148.56,-4.885 148.352,-5.619 147.936,-6.136C147.52,-6.653 146.933,-6.912 146.176,-6.912C145.419,-6.912 144.832,-6.653 144.416,-6.136C144,-5.619 143.792,-4.885 143.792,-3.936C143.792,-2.976 143.997,-2.24 144.408,-1.728C144.819,-1.216 145.408,-0.96 146.176,-0.96C146.944,-0.96 147.533,-1.213 147.944,-1.72Z" style="fill-rule:nonzero;"/>
                <path d="M152.008,-0.088C151.885,-0.2 151.824,-0.357 151.824,-0.56L151.824,-10.72C151.824,-10.923 151.885,-11.08 152.008,-11.192C152.131,-11.304 152.288,-11.36 152.48,-11.36C152.661,-11.36 152.813,-11.304 152.936,-11.192C153.059,-11.08 153.12,-10.923 153.12,-10.72L153.12,-0.56C153.12,-0.357 153.059,-0.2 152.936,-0.088C152.813,0.024 152.661,0.08 152.48,0.08C152.288,0.08 152.131,0.024 152.008,-0.088Z" style="fill-rule:nonzero;"/>
                <path d="M156.76,-0.064C156.317,-0.181 155.925,-0.347 155.584,-0.56C155.392,-0.688 155.256,-0.808 155.176,-0.92C155.096,-1.032 155.056,-1.168 155.056,-1.328C155.056,-1.467 155.096,-1.581 155.176,-1.672C155.256,-1.763 155.36,-1.808 155.488,-1.808C155.616,-1.808 155.803,-1.728 156.048,-1.568C156.368,-1.376 156.685,-1.224 157,-1.112C157.315,-1 157.707,-0.944 158.176,-0.944C158.752,-0.944 159.2,-1.045 159.52,-1.248C159.84,-1.451 160,-1.744 160,-2.128C160,-2.363 159.941,-2.552 159.824,-2.696C159.707,-2.84 159.504,-2.968 159.216,-3.08C158.928,-3.192 158.507,-3.307 157.952,-3.424C157.013,-3.627 156.341,-3.899 155.936,-4.24C155.531,-4.581 155.328,-5.045 155.328,-5.632C155.328,-6.091 155.456,-6.496 155.712,-6.848C155.968,-7.2 156.323,-7.477 156.776,-7.68C157.229,-7.883 157.744,-7.984 158.32,-7.984C158.736,-7.984 159.139,-7.928 159.528,-7.816C159.917,-7.704 160.261,-7.547 160.56,-7.344C160.923,-7.088 161.104,-6.821 161.104,-6.544C161.104,-6.405 161.061,-6.288 160.976,-6.192C160.891,-6.096 160.789,-6.048 160.672,-6.048C160.544,-6.048 160.352,-6.139 160.096,-6.32C159.797,-6.512 159.515,-6.661 159.248,-6.768C158.981,-6.875 158.651,-6.928 158.256,-6.928C157.755,-6.928 157.352,-6.816 157.048,-6.592C156.744,-6.368 156.592,-6.069 156.592,-5.696C156.592,-5.461 156.648,-5.272 156.76,-5.128C156.872,-4.984 157.059,-4.856 157.32,-4.744C157.581,-4.632 157.957,-4.523 158.448,-4.416C159.173,-4.256 159.736,-4.08 160.136,-3.888C160.536,-3.696 160.821,-3.461 160.992,-3.184C161.163,-2.907 161.248,-2.555 161.248,-2.128C161.248,-1.456 160.965,-0.915 160.4,-0.504C159.835,-0.093 159.088,0.112 158.16,0.112C157.669,0.112 157.203,0.053 156.76,-0.064Z" style="fill-rule:nonzero;"/>
                <path d="M173.456,-4.912L173.456,-0.56C173.456,-0.368 173.4,-0.213 173.288,-0.096C173.176,0.021 173.024,0.08 172.832,0.08C172.64,0.08 172.485,0.021 172.368,-0.096C172.251,-0.213 172.192,-0.368 172.192,-0.56L172.192,-1.328C171.989,-0.869 171.68,-0.515 171.264,-0.264C170.848,-0.013 170.368,0.112 169.824,0.112C169.323,0.112 168.861,0.011 168.44,-0.192C168.019,-0.395 167.685,-0.677 167.44,-1.04C167.195,-1.403 167.072,-1.803 167.072,-2.24C167.072,-2.827 167.221,-3.283 167.52,-3.608C167.819,-3.933 168.309,-4.168 168.992,-4.312C169.675,-4.456 170.624,-4.528 171.84,-4.528L172.192,-4.528L172.192,-5.056C172.192,-5.696 172.061,-6.165 171.8,-6.464C171.539,-6.763 171.115,-6.912 170.528,-6.912C169.803,-6.912 169.067,-6.715 168.32,-6.32C168.032,-6.139 167.829,-6.048 167.712,-6.048C167.584,-6.048 167.477,-6.096 167.392,-6.192C167.307,-6.288 167.264,-6.411 167.264,-6.56C167.264,-6.709 167.309,-6.84 167.4,-6.952C167.491,-7.064 167.637,-7.179 167.84,-7.296C168.213,-7.509 168.637,-7.677 169.112,-7.8C169.587,-7.923 170.059,-7.984 170.528,-7.984C172.48,-7.984 173.456,-6.96 173.456,-4.912ZM171.576,-1.56C171.987,-1.992 172.192,-2.549 172.192,-3.232L172.192,-3.696L171.904,-3.696C170.965,-3.696 170.251,-3.656 169.76,-3.576C169.269,-3.496 168.92,-3.363 168.712,-3.176C168.504,-2.989 168.4,-2.715 168.4,-2.352C168.4,-1.936 168.552,-1.592 168.856,-1.32C169.16,-1.048 169.541,-0.912 170,-0.912C170.64,-0.912 171.165,-1.128 171.576,-1.56Z" style="fill-rule:nonzero;"/>
                <path d="M181.552,-7.472C182.075,-7.131 182.48,-6.653 182.768,-6.04C183.056,-5.427 183.2,-4.715 183.2,-3.904C183.2,-3.093 183.056,-2.387 182.768,-1.784C182.48,-1.181 182.077,-0.715 181.56,-0.384C181.043,-0.053 180.437,0.112 179.744,0.112C179.136,0.112 178.605,-0.021 178.152,-0.288C177.699,-0.555 177.355,-0.933 177.12,-1.424L177.12,2.336C177.12,2.528 177.064,2.68 176.952,2.792C176.84,2.904 176.683,2.96 176.48,2.96C176.277,2.96 176.117,2.901 176,2.784C175.883,2.667 175.824,2.517 175.824,2.336L175.824,-7.312C175.824,-7.504 175.883,-7.659 176,-7.776C176.117,-7.893 176.277,-7.952 176.48,-7.952C176.683,-7.952 176.84,-7.893 176.952,-7.776C177.064,-7.659 177.12,-7.504 177.12,-7.312L177.12,-6.448C177.355,-6.939 177.699,-7.317 178.152,-7.584C178.605,-7.851 179.136,-7.984 179.744,-7.984C180.427,-7.984 181.029,-7.813 181.552,-7.472ZM181.248,-1.728C181.664,-2.24 181.872,-2.965 181.872,-3.904C181.872,-4.843 181.664,-5.576 181.248,-6.104C180.832,-6.632 180.245,-6.896 179.488,-6.896C178.731,-6.896 178.147,-6.64 177.736,-6.128C177.325,-5.616 177.12,-4.885 177.12,-3.936C177.12,-2.987 177.325,-2.253 177.736,-1.736C178.147,-1.219 178.731,-0.96 179.488,-0.96C180.245,-0.96 180.832,-1.216 181.248,-1.728Z" style="fill-rule:nonzero;"/>
                <path d="M190.864,-7.472C191.387,-7.131 191.792,-6.653 192.08,-6.04C192.368,-5.427 192.512,-4.715 192.512,-3.904C192.512,-3.093 192.368,-2.387 192.08,-1.784C191.792,-1.181 191.389,-0.715 190.872,-0.384C190.355,-0.053 189.749,0.112 189.056,0.112C188.448,0.112 187.917,-0.021 187.464,-0.288C187.011,-0.555 186.667,-0.933 186.432,-1.424L186.432,2.336C186.432,2.528 186.376,2.68 186.264,2.792C186.152,2.904 185.995,2.96 185.792,2.96C185.589,2.96 185.429,2.901 185.312,2.784C185.195,2.667 185.136,2.517 185.136,2.336L185.136,-7.312C185.136,-7.504 185.195,-7.659 185.312,-7.776C185.429,-7.893 185.589,-7.952 185.792,-7.952C185.995,-7.952 186.152,-7.893 186.264,-7.776C186.376,-7.659 186.432,-7.504 186.432,-7.312L186.432,-6.448C186.667,-6.939 187.011,-7.317 187.464,-7.584C187.917,-7.851 188.448,-7.984 189.056,-7.984C189.739,-7.984 190.341,-7.813 190.864,-7.472ZM190.56,-1.728C190.976,-2.24 191.184,-2.965 191.184,-3.904C191.184,-4.843 190.976,-5.576 190.56,-6.104C190.144,-6.632 189.557,-6.896 188.8,-6.896C188.043,-6.896 187.459,-6.64 187.048,-6.128C186.637,-5.616 186.432,-4.885 186.432,-3.936C186.432,-2.987 186.637,-2.253 187.048,-1.736C187.459,-1.219 188.043,-0.96 188.8,-0.96C189.557,-0.96 190.144,-1.216 190.56,-1.728Z" style="fill-rule:nonzero;"/>
                <path d="M194.632,-0.088C194.509,-0.2 194.448,-0.357 194.448,-0.56L194.448,-10.72C194.448,-10.923 194.509,-11.08 194.632,-11.192C194.755,-11.304 194.912,-11.36 195.104,-11.36C195.285,-11.36 195.437,-11.304 195.56,-11.192C195.683,-11.08 195.744,-10.923 195.744,-10.72L195.744,-0.56C195.744,-0.357 195.683,-0.2 195.56,-0.088C195.437,0.024 195.285,0.08 195.104,0.08C194.912,0.08 194.755,0.024 194.632,-0.088Z" style="fill-rule:nonzero;"/>
                <path d="M198.344,-0.088C198.221,-0.2 198.16,-0.357 198.16,-0.56L198.16,-7.312C198.16,-7.515 198.221,-7.672 198.344,-7.784C198.467,-7.896 198.624,-7.952 198.816,-7.952C199.008,-7.952 199.163,-7.896 199.28,-7.784C199.397,-7.672 199.456,-7.515 199.456,-7.312L199.456,-0.56C199.456,-0.347 199.397,-0.187 199.28,-0.08C199.163,0.027 199.008,0.08 198.816,0.08C198.624,0.08 198.467,0.024 198.344,-0.088ZM198.192,-9.856C198.032,-10.005 197.952,-10.203 197.952,-10.448C197.952,-10.683 198.032,-10.875 198.192,-11.024C198.352,-11.173 198.56,-11.248 198.816,-11.248C199.072,-11.248 199.28,-11.173 199.44,-11.024C199.6,-10.875 199.68,-10.683 199.68,-10.448C199.68,-10.203 199.6,-10.005 199.44,-9.856C199.28,-9.707 199.072,-9.632 198.816,-9.632C198.56,-9.632 198.352,-9.707 198.192,-9.856Z" style="fill-rule:nonzero;"/>
                <path d="M203.16,-0.384C202.6,-0.715 202.168,-1.184 201.864,-1.792C201.56,-2.4 201.408,-3.104 201.408,-3.904C201.408,-4.704 201.565,-5.413 201.88,-6.032C202.195,-6.651 202.635,-7.131 203.2,-7.472C203.765,-7.813 204.416,-7.984 205.152,-7.984C205.557,-7.984 205.96,-7.928 206.36,-7.816C206.76,-7.704 207.109,-7.541 207.408,-7.328C207.6,-7.2 207.736,-7.075 207.816,-6.952C207.896,-6.829 207.936,-6.693 207.936,-6.544C207.936,-6.395 207.896,-6.272 207.816,-6.176C207.736,-6.08 207.632,-6.032 207.504,-6.032C207.429,-6.032 207.349,-6.053 207.264,-6.096C207.179,-6.139 207.107,-6.181 207.048,-6.224C206.989,-6.267 206.949,-6.293 206.928,-6.304C206.651,-6.485 206.387,-6.629 206.136,-6.736C205.885,-6.843 205.579,-6.896 205.216,-6.896C204.437,-6.896 203.832,-6.632 203.4,-6.104C202.968,-5.576 202.752,-4.843 202.752,-3.904C202.752,-2.965 202.968,-2.24 203.4,-1.728C203.832,-1.216 204.437,-0.96 205.216,-0.96C205.579,-0.96 205.891,-1.013 206.152,-1.12C206.413,-1.227 206.677,-1.371 206.944,-1.552C207.061,-1.627 207.173,-1.691 207.28,-1.744C207.387,-1.797 207.477,-1.824 207.552,-1.824C207.669,-1.824 207.768,-1.776 207.848,-1.68C207.928,-1.584 207.968,-1.461 207.968,-1.312C207.968,-1.173 207.931,-1.048 207.856,-0.936C207.781,-0.824 207.643,-0.699 207.44,-0.56C207.141,-0.357 206.781,-0.195 206.36,-0.072C205.939,0.051 205.515,0.112 205.088,0.112C204.363,0.112 203.72,-0.053 203.16,-0.384Z" style="fill-rule:nonzero;"/>
                <path d="M215.648,-4.912L215.648,-0.56C215.648,-0.368 215.592,-0.213 215.48,-0.096C215.368,0.021 215.216,0.08 215.024,0.08C214.832,0.08 214.677,0.021 214.56,-0.096C214.443,-0.213 214.384,-0.368 214.384,-0.56L214.384,-1.328C214.181,-0.869 213.872,-0.515 213.456,-0.264C213.04,-0.013 212.56,0.112 212.016,0.112C211.515,0.112 211.053,0.011 210.632,-0.192C210.211,-0.395 209.877,-0.677 209.632,-1.04C209.387,-1.403 209.264,-1.803 209.264,-2.24C209.264,-2.827 209.413,-3.283 209.712,-3.608C210.011,-3.933 210.501,-4.168 211.184,-4.312C211.867,-4.456 212.816,-4.528 214.032,-4.528L214.384,-4.528L214.384,-5.056C214.384,-5.696 214.253,-6.165 213.992,-6.464C213.731,-6.763 213.307,-6.912 212.72,-6.912C211.995,-6.912 211.259,-6.715 210.512,-6.32C210.224,-6.139 210.021,-6.048 209.904,-6.048C209.776,-6.048 209.669,-6.096 209.584,-6.192C209.499,-6.288 209.456,-6.411 209.456,-6.56C209.456,-6.709 209.501,-6.84 209.592,-6.952C209.683,-7.064 209.829,-7.179 210.032,-7.296C210.405,-7.509 210.829,-7.677 211.304,-7.8C211.779,-7.923 212.251,-7.984 212.72,-7.984C214.672,-7.984 215.648,-6.96 215.648,-4.912ZM213.768,-1.56C214.179,-1.992 214.384,-2.549 214.384,-3.232L214.384,-3.696L214.096,-3.696C213.157,-3.696 212.443,-3.656 211.952,-3.576C211.461,-3.496 211.112,-3.363 210.904,-3.176C210.696,-2.989 210.592,-2.715 210.592,-2.352C210.592,-1.936 210.744,-1.592 211.048,-1.32C211.352,-1.048 211.733,-0.912 212.192,-0.912C212.832,-0.912 213.357,-1.128 213.768,-1.56Z" style="fill-rule:nonzero;"/>
                <path d="M222.176,-0.432C222.176,-0.251 222.109,-0.115 221.976,-0.024C221.843,0.067 221.643,0.101 221.376,0.08L220.944,0.048C220.091,-0.016 219.461,-0.272 219.056,-0.72C218.651,-1.168 218.448,-1.845 218.448,-2.752L218.448,-6.768L217.376,-6.768C217.195,-6.768 217.053,-6.813 216.952,-6.904C216.851,-6.995 216.8,-7.115 216.8,-7.264C216.8,-7.424 216.851,-7.552 216.952,-7.648C217.053,-7.744 217.195,-7.792 217.376,-7.792L218.448,-7.792L218.448,-9.6C218.448,-9.803 218.507,-9.96 218.624,-10.072C218.741,-10.184 218.901,-10.24 219.104,-10.24C219.296,-10.24 219.451,-10.184 219.568,-10.072C219.685,-9.96 219.744,-9.803 219.744,-9.6L219.744,-7.792L221.52,-7.792C221.691,-7.792 221.827,-7.744 221.928,-7.648C222.029,-7.552 222.08,-7.424 222.08,-7.264C222.08,-7.115 222.029,-6.995 221.928,-6.904C221.827,-6.813 221.691,-6.768 221.52,-6.768L219.744,-6.768L219.744,-2.688C219.744,-2.101 219.864,-1.677 220.104,-1.416C220.344,-1.155 220.704,-1.008 221.184,-0.976L221.616,-0.944C221.989,-0.912 222.176,-0.741 222.176,-0.432Z" style="fill-rule:nonzero;"/>
                <path d="M223.64,-0.088C223.517,-0.2 223.456,-0.357 223.456,-0.56L223.456,-7.312C223.456,-7.515 223.517,-7.672 223.64,-7.784C223.763,-7.896 223.92,-7.952 224.112,-7.952C224.304,-7.952 224.459,-7.896 224.576,-7.784C224.693,-7.672 224.752,-7.515 224.752,-7.312L224.752,-0.56C224.752,-0.347 224.693,-0.187 224.576,-0.08C224.459,0.027 224.304,0.08 224.112,0.08C223.92,0.08 223.763,0.024 223.64,-0.088ZM223.488,-9.856C223.328,-10.005 223.248,-10.203 223.248,-10.448C223.248,-10.683 223.328,-10.875 223.488,-11.024C223.648,-11.173 223.856,-11.248 224.112,-11.248C224.368,-11.248 224.576,-11.173 224.736,-11.024C224.896,-10.875 224.976,-10.683 224.976,-10.448C224.976,-10.203 224.896,-10.005 224.736,-9.856C224.576,-9.707 224.368,-9.632 224.112,-9.632C223.856,-9.632 223.648,-9.707 223.488,-9.856Z" style="fill-rule:nonzero;"/>
                <path d="M228.456,-0.384C227.896,-0.715 227.464,-1.187 227.16,-1.8C226.856,-2.413 226.704,-3.125 226.704,-3.936C226.704,-4.747 226.856,-5.459 227.16,-6.072C227.464,-6.685 227.896,-7.157 228.456,-7.488C229.016,-7.819 229.664,-7.984 230.4,-7.984C231.136,-7.984 231.787,-7.819 232.352,-7.488C232.917,-7.157 233.352,-6.685 233.656,-6.072C233.96,-5.459 234.112,-4.747 234.112,-3.936C234.112,-3.125 233.96,-2.413 233.656,-1.8C233.352,-1.187 232.917,-0.715 232.352,-0.384C231.787,-0.053 231.136,0.112 230.4,0.112C229.664,0.112 229.016,-0.053 228.456,-0.384ZM232.168,-1.72C232.579,-2.227 232.784,-2.965 232.784,-3.936C232.784,-4.885 232.576,-5.619 232.16,-6.136C231.744,-6.653 231.157,-6.912 230.4,-6.912C229.643,-6.912 229.056,-6.653 228.64,-6.136C228.224,-5.619 228.016,-4.885 228.016,-3.936C228.016,-2.976 228.221,-2.24 228.632,-1.728C229.043,-1.216 229.632,-0.96 230.4,-0.96C231.168,-0.96 231.757,-1.213 232.168,-1.72Z" style="fill-rule:nonzero;"/>
                <path d="M242.768,-4.896L242.768,-0.56C242.768,-0.357 242.712,-0.2 242.6,-0.088C242.488,0.024 242.331,0.08 242.128,0.08C241.925,0.08 241.765,0.024 241.648,-0.088C241.531,-0.2 241.472,-0.357 241.472,-0.56L241.472,-4.816C241.472,-5.541 241.331,-6.069 241.048,-6.4C240.765,-6.731 240.315,-6.896 239.696,-6.896C238.981,-6.896 238.411,-6.677 237.984,-6.24C237.557,-5.803 237.344,-5.211 237.344,-4.464L237.344,-0.56C237.344,-0.357 237.288,-0.2 237.176,-0.088C237.064,0.024 236.907,0.08 236.704,0.08C236.501,0.08 236.341,0.024 236.224,-0.088C236.107,-0.2 236.048,-0.357 236.048,-0.56L236.048,-7.312C236.048,-7.504 236.107,-7.659 236.224,-7.776C236.341,-7.893 236.501,-7.952 236.704,-7.952C236.896,-7.952 237.048,-7.893 237.16,-7.776C237.272,-7.659 237.328,-7.509 237.328,-7.328L237.328,-6.512C237.584,-6.992 237.941,-7.357 238.4,-7.608C238.859,-7.859 239.381,-7.984 239.968,-7.984C241.835,-7.984 242.768,-6.955 242.768,-4.896Z" style="fill-rule:nonzero;"/>
                <path d="M253.424,-0.432C253.424,-0.251 253.357,-0.115 253.224,-0.024C253.091,0.067 252.891,0.101 252.624,0.08L252.192,0.048C251.339,-0.016 250.709,-0.272 250.304,-0.72C249.899,-1.168 249.696,-1.845 249.696,-2.752L249.696,-6.768L248.624,-6.768C248.443,-6.768 248.301,-6.813 248.2,-6.904C248.099,-6.995 248.048,-7.115 248.048,-7.264C248.048,-7.424 248.099,-7.552 248.2,-7.648C248.301,-7.744 248.443,-7.792 248.624,-7.792L249.696,-7.792L249.696,-9.6C249.696,-9.803 249.755,-9.96 249.872,-10.072C249.989,-10.184 250.149,-10.24 250.352,-10.24C250.544,-10.24 250.699,-10.184 250.816,-10.072C250.933,-9.96 250.992,-9.803 250.992,-9.6L250.992,-7.792L252.768,-7.792C252.939,-7.792 253.075,-7.744 253.176,-7.648C253.277,-7.552 253.328,-7.424 253.328,-7.264C253.328,-7.115 253.277,-6.995 253.176,-6.904C253.075,-6.813 252.939,-6.768 252.768,-6.768L250.992,-6.768L250.992,-2.688C250.992,-2.101 251.112,-1.677 251.352,-1.416C251.592,-1.155 251.952,-1.008 252.432,-0.976L252.864,-0.944C253.237,-0.912 253.424,-0.741 253.424,-0.432Z" style="fill-rule:nonzero;"/>
                <path d="M259.232,-7.408C259.232,-7.237 259.184,-7.101 259.088,-7C258.992,-6.899 258.827,-6.837 258.592,-6.816L258.112,-6.768C257.397,-6.704 256.867,-6.451 256.52,-6.008C256.173,-5.565 256,-5.045 256,-4.448L256,-0.56C256,-0.347 255.941,-0.187 255.824,-0.08C255.707,0.027 255.552,0.08 255.36,0.08C255.168,0.08 255.011,0.024 254.888,-0.088C254.765,-0.2 254.704,-0.357 254.704,-0.56L254.704,-7.312C254.704,-7.515 254.768,-7.672 254.896,-7.784C255.024,-7.896 255.179,-7.952 255.36,-7.952C255.531,-7.952 255.675,-7.896 255.792,-7.784C255.909,-7.672 255.968,-7.52 255.968,-7.328L255.968,-6.432C256.192,-6.901 256.509,-7.259 256.92,-7.504C257.331,-7.749 257.803,-7.893 258.336,-7.936L258.56,-7.952C259.008,-7.984 259.232,-7.803 259.232,-7.408Z" style="fill-rule:nonzero;"/>
                <path d="M266.4,-4.912L266.4,-0.56C266.4,-0.368 266.344,-0.213 266.232,-0.096C266.12,0.021 265.968,0.08 265.776,0.08C265.584,0.08 265.429,0.021 265.312,-0.096C265.195,-0.213 265.136,-0.368 265.136,-0.56L265.136,-1.328C264.933,-0.869 264.624,-0.515 264.208,-0.264C263.792,-0.013 263.312,0.112 262.768,0.112C262.267,0.112 261.805,0.011 261.384,-0.192C260.963,-0.395 260.629,-0.677 260.384,-1.04C260.139,-1.403 260.016,-1.803 260.016,-2.24C260.016,-2.827 260.165,-3.283 260.464,-3.608C260.763,-3.933 261.253,-4.168 261.936,-4.312C262.619,-4.456 263.568,-4.528 264.784,-4.528L265.136,-4.528L265.136,-5.056C265.136,-5.696 265.005,-6.165 264.744,-6.464C264.483,-6.763 264.059,-6.912 263.472,-6.912C262.747,-6.912 262.011,-6.715 261.264,-6.32C260.976,-6.139 260.773,-6.048 260.656,-6.048C260.528,-6.048 260.421,-6.096 260.336,-6.192C260.251,-6.288 260.208,-6.411 260.208,-6.56C260.208,-6.709 260.253,-6.84 260.344,-6.952C260.435,-7.064 260.581,-7.179 260.784,-7.296C261.157,-7.509 261.581,-7.677 262.056,-7.8C262.531,-7.923 263.003,-7.984 263.472,-7.984C265.424,-7.984 266.4,-6.96 266.4,-4.912ZM264.52,-1.56C264.931,-1.992 265.136,-2.549 265.136,-3.232L265.136,-3.696L264.848,-3.696C263.909,-3.696 263.195,-3.656 262.704,-3.576C262.213,-3.496 261.864,-3.363 261.656,-3.176C261.448,-2.989 261.344,-2.715 261.344,-2.352C261.344,-1.936 261.496,-1.592 261.8,-1.32C262.104,-1.048 262.485,-0.912 262.944,-0.912C263.584,-0.912 264.109,-1.128 264.52,-1.56Z" style="fill-rule:nonzero;"/>
                <path d="M270.928,-9.72C270.64,-9.405 270.496,-8.933 270.496,-8.304L270.496,-7.792L272.272,-7.792C272.453,-7.792 272.592,-7.744 272.688,-7.648C272.784,-7.552 272.832,-7.424 272.832,-7.264C272.832,-7.104 272.784,-6.981 272.688,-6.896C272.592,-6.811 272.453,-6.768 272.272,-6.768L270.496,-6.768L270.496,-0.56C270.496,-0.357 270.435,-0.2 270.312,-0.088C270.189,0.024 270.037,0.08 269.856,0.08C269.664,0.08 269.507,0.024 269.384,-0.088C269.261,-0.2 269.2,-0.357 269.2,-0.56L269.2,-6.768L268.128,-6.768C267.947,-6.768 267.805,-6.813 267.704,-6.904C267.603,-6.995 267.552,-7.115 267.552,-7.264C267.552,-7.424 267.603,-7.552 267.704,-7.648C267.805,-7.744 267.947,-7.792 268.128,-7.792L269.2,-7.792L269.2,-8.08C269.2,-9.04 269.44,-9.795 269.92,-10.344C270.4,-10.893 271.088,-11.2 271.984,-11.264L272.4,-11.296C272.677,-11.317 272.877,-11.291 273,-11.216C273.123,-11.141 273.184,-11.008 273.184,-10.816C273.184,-10.507 272.997,-10.331 272.624,-10.288L272.208,-10.256C271.643,-10.213 271.216,-10.035 270.928,-9.72Z" style="fill-rule:nonzero;"/>
                <path d="M280.4,-7.648C280.496,-7.552 280.544,-7.424 280.544,-7.264L280.544,-0.56C280.544,-0.357 280.483,-0.2 280.36,-0.088C280.237,0.024 280.085,0.08 279.904,0.08C279.712,0.08 279.555,0.024 279.432,-0.088C279.309,-0.2 279.248,-0.357 279.248,-0.56L279.248,-6.768L275.744,-6.768L275.744,-0.56C275.744,-0.357 275.683,-0.2 275.56,-0.088C275.437,0.024 275.285,0.08 275.104,0.08C274.912,0.08 274.755,0.024 274.632,-0.088C274.509,-0.2 274.448,-0.357 274.448,-0.56L274.448,-6.768L273.376,-6.768C273.195,-6.768 273.053,-6.813 272.952,-6.904C272.851,-6.995 272.8,-7.115 272.8,-7.264C272.8,-7.424 272.851,-7.552 272.952,-7.648C273.053,-7.744 273.195,-7.792 273.376,-7.792L274.448,-7.792L274.448,-8.064C274.448,-9.024 274.688,-9.779 275.168,-10.328C275.648,-10.877 276.336,-11.189 277.232,-11.264L277.616,-11.296C278.128,-11.339 278.384,-11.179 278.384,-10.816C278.384,-10.507 278.203,-10.331 277.84,-10.288L277.456,-10.256C276.891,-10.213 276.464,-10.035 276.176,-9.72C275.888,-9.405 275.744,-8.933 275.744,-8.304L275.744,-7.792L279.984,-7.792C280.165,-7.792 280.304,-7.744 280.4,-7.648ZM280.52,-11.024C280.685,-10.875 280.768,-10.683 280.768,-10.448C280.768,-10.203 280.688,-10.005 280.528,-9.856C280.368,-9.707 280.16,-9.632 279.904,-9.632C279.648,-9.632 279.44,-9.707 279.28,-9.856C279.12,-10.005 279.04,-10.203 279.04,-10.448C279.04,-10.683 279.12,-10.875 279.28,-11.024C279.44,-11.173 279.648,-11.248 279.904,-11.248C280.149,-11.248 280.355,-11.173 280.52,-11.024Z" style="fill-rule:nonzero;"/>
                <path d="M284.248,-0.384C283.688,-0.715 283.256,-1.184 282.952,-1.792C282.648,-2.4 282.496,-3.104 282.496,-3.904C282.496,-4.704 282.653,-5.413 282.968,-6.032C283.283,-6.651 283.723,-7.131 284.288,-7.472C284.853,-7.813 285.504,-7.984 286.24,-7.984C286.645,-7.984 287.048,-7.928 287.448,-7.816C287.848,-7.704 288.197,-7.541 288.496,-7.328C288.688,-7.2 288.824,-7.075 288.904,-6.952C288.984,-6.829 289.024,-6.693 289.024,-6.544C289.024,-6.395 288.984,-6.272 288.904,-6.176C288.824,-6.08 288.72,-6.032 288.592,-6.032C288.517,-6.032 288.437,-6.053 288.352,-6.096C288.267,-6.139 288.195,-6.181 288.136,-6.224C288.077,-6.267 288.037,-6.293 288.016,-6.304C287.739,-6.485 287.475,-6.629 287.224,-6.736C286.973,-6.843 286.667,-6.896 286.304,-6.896C285.525,-6.896 284.92,-6.632 284.488,-6.104C284.056,-5.576 283.84,-4.843 283.84,-3.904C283.84,-2.965 284.056,-2.24 284.488,-1.728C284.92,-1.216 285.525,-0.96 286.304,-0.96C286.667,-0.96 286.979,-1.013 287.24,-1.12C287.501,-1.227 287.765,-1.371 288.032,-1.552C288.149,-1.627 288.261,-1.691 288.368,-1.744C288.475,-1.797 288.565,-1.824 288.64,-1.824C288.757,-1.824 288.856,-1.776 288.936,-1.68C289.016,-1.584 289.056,-1.461 289.056,-1.312C289.056,-1.173 289.019,-1.048 288.944,-0.936C288.869,-0.824 288.731,-0.699 288.528,-0.56C288.229,-0.357 287.869,-0.195 287.448,-0.072C287.027,0.051 286.603,0.112 286.176,0.112C285.451,0.112 284.808,-0.053 284.248,-0.384Z" style="fill-rule:nonzero;"/>
                <path d="M290.784,-0.168C290.613,-0.333 290.528,-0.549 290.528,-0.816C290.528,-1.083 290.613,-1.301 290.784,-1.472C290.955,-1.643 291.168,-1.728 291.424,-1.728C291.669,-1.728 291.875,-1.643 292.04,-1.472C292.205,-1.301 292.288,-1.083 292.288,-0.816C292.288,-0.549 292.205,-0.333 292.04,-0.168C291.875,-0.003 291.669,0.08 291.424,0.08C291.168,0.08 290.955,-0.003 290.784,-0.168Z" style="fill-rule:nonzero;"/>
            </g>
        </g>
    </g>
</svg>
