<?xml version="1.0" encoding="UTF-8" standalone="no"?>
<!DOCTYPE svg PUBLIC "-//W3C//DTD SVG 1.1//EN" "http://www.w3.org/Graphics/SVG/1.1/DTD/svg11.dtd">
<svg width="100%" height="100%" viewBox="0 0 342 35" version="1.1" xmlns="http://www.w3.org/2000/svg" xmlns:xlink="http://www.w3.org/1999/xlink" xml:space="preserve" xmlns:serif="http://www.serif.com/" style="fill-rule:evenodd;clip-rule:evenodd;stroke-linejoin:round;stroke-miterlimit:1.41421;">
    <g transform="matrix(1,0,0,1,-506,-768)">
        <g id="SonicWall-NetExtende">
            <g transform="matrix(1,0,0,1,506,780)">
                <path d="M2.696,-0.232C1.965,-0.472 1.381,-0.795 0.944,-1.2C0.784,-1.349 0.704,-1.536 0.704,-1.76C0.704,-1.909 0.747,-2.04 0.832,-2.152C0.917,-2.264 1.019,-2.32 1.136,-2.32C1.275,-2.32 1.424,-2.261 1.584,-2.144C2.576,-1.376 3.707,-0.992 4.976,-0.992C5.893,-0.992 6.597,-1.168 7.088,-1.52C7.579,-1.872 7.824,-2.373 7.824,-3.024C7.824,-3.397 7.707,-3.699 7.472,-3.928C7.237,-4.157 6.928,-4.341 6.544,-4.48C6.16,-4.619 5.643,-4.763 4.992,-4.912C4.117,-5.115 3.4,-5.328 2.84,-5.552C2.28,-5.776 1.827,-6.096 1.48,-6.512C1.133,-6.928 0.96,-7.472 0.96,-8.144C0.96,-8.784 1.133,-9.352 1.48,-9.848C1.827,-10.344 2.312,-10.728 2.936,-11C3.56,-11.272 4.272,-11.408 5.072,-11.408C5.819,-11.408 6.515,-11.293 7.16,-11.064C7.805,-10.835 8.347,-10.507 8.784,-10.08C8.955,-9.909 9.04,-9.723 9.04,-9.52C9.04,-9.371 8.997,-9.24 8.912,-9.128C8.827,-9.016 8.725,-8.96 8.608,-8.96C8.491,-8.96 8.336,-9.019 8.144,-9.136C7.621,-9.563 7.136,-9.861 6.688,-10.032C6.24,-10.203 5.701,-10.288 5.072,-10.288C4.187,-10.288 3.499,-10.104 3.008,-9.736C2.517,-9.368 2.272,-8.853 2.272,-8.192C2.272,-7.627 2.488,-7.203 2.92,-6.92C3.352,-6.637 4.016,-6.389 4.912,-6.176C5.883,-5.941 6.645,-5.725 7.2,-5.528C7.755,-5.331 8.216,-5.035 8.584,-4.64C8.952,-4.245 9.136,-3.717 9.136,-3.056C9.136,-2.427 8.963,-1.872 8.616,-1.392C8.269,-0.912 7.781,-0.539 7.152,-0.272C6.523,-0.005 5.803,0.128 4.992,0.128C4.192,0.128 3.427,0.008 2.696,-0.232Z" style="fill-rule:nonzero;"/>
                <path d="M12.36,-0.384C11.8,-0.715 11.368,-1.187 11.064,-1.8C10.76,-2.413 10.608,-3.125 10.608,-3.936C10.608,-4.747 10.76,-5.459 11.064,-6.072C11.368,-6.685 11.8,-7.157 12.36,-7.488C12.92,-7.819 13.568,-7.984 14.304,-7.984C15.04,-7.984 15.691,-7.819 16.256,-7.488C16.821,-7.157 17.256,-6.685 17.56,-6.072C17.864,-5.459 18.016,-4.747 18.016,-3.936C18.016,-3.125 17.864,-2.413 17.56,-1.8C17.256,-1.187 16.821,-0.715 16.256,-0.384C15.691,-0.053 15.04,0.112 14.304,0.112C13.568,0.112 12.92,-0.053 12.36,-0.384ZM16.072,-1.72C16.483,-2.227 16.688,-2.965 16.688,-3.936C16.688,-4.885 16.48,-5.619 16.064,-6.136C15.648,-6.653 15.061,-6.912 14.304,-6.912C13.547,-6.912 12.96,-6.653 12.544,-6.136C12.128,-5.619 11.92,-4.885 11.92,-3.936C11.92,-2.976 12.125,-2.24 12.536,-1.728C12.947,-1.216 13.536,-0.96 14.304,-0.96C15.072,-0.96 15.661,-1.213 16.072,-1.72Z" style="fill-rule:nonzero;"/>
                <path d="M26.672,-4.896L26.672,-0.56C26.672,-0.357 26.616,-0.2 26.504,-0.088C26.392,0.024 26.235,0.08 26.032,0.08C25.829,0.08 25.669,0.024 25.552,-0.088C25.435,-0.2 25.376,-0.357 25.376,-0.56L25.376,-4.816C25.376,-5.541 25.235,-6.069 24.952,-6.4C24.669,-6.731 24.219,-6.896 23.6,-6.896C22.885,-6.896 22.315,-6.677 21.888,-6.24C21.461,-5.803 21.248,-5.211 21.248,-4.464L21.248,-0.56C21.248,-0.357 21.192,-0.2 21.08,-0.088C20.968,0.024 20.811,0.08 20.608,0.08C20.405,0.08 20.245,0.024 20.128,-0.088C20.011,-0.2 19.952,-0.357 19.952,-0.56L19.952,-7.312C19.952,-7.504 20.011,-7.659 20.128,-7.776C20.245,-7.893 20.405,-7.952 20.608,-7.952C20.8,-7.952 20.952,-7.893 21.064,-7.776C21.176,-7.659 21.232,-7.509 21.232,-7.328L21.232,-6.512C21.488,-6.992 21.845,-7.357 22.304,-7.608C22.763,-7.859 23.285,-7.984 23.872,-7.984C25.739,-7.984 26.672,-6.955 26.672,-4.896Z" style="fill-rule:nonzero;"/>
                <path d="M29.224,-0.088C29.101,-0.2 29.04,-0.357 29.04,-0.56L29.04,-7.312C29.04,-7.515 29.101,-7.672 29.224,-7.784C29.347,-7.896 29.504,-7.952 29.696,-7.952C29.888,-7.952 30.043,-7.896 30.16,-7.784C30.277,-7.672 30.336,-7.515 30.336,-7.312L30.336,-0.56C30.336,-0.347 30.277,-0.187 30.16,-0.08C30.043,0.027 29.888,0.08 29.696,0.08C29.504,0.08 29.347,0.024 29.224,-0.088ZM29.072,-9.856C28.912,-10.005 28.832,-10.203 28.832,-10.448C28.832,-10.683 28.912,-10.875 29.072,-11.024C29.232,-11.173 29.44,-11.248 29.696,-11.248C29.952,-11.248 30.16,-11.173 30.32,-11.024C30.48,-10.875 30.56,-10.683 30.56,-10.448C30.56,-10.203 30.48,-10.005 30.32,-9.856C30.16,-9.707 29.952,-9.632 29.696,-9.632C29.44,-9.632 29.232,-9.707 29.072,-9.856Z" style="fill-rule:nonzero;"/>
                <path d="M34.04,-0.384C33.48,-0.715 33.048,-1.184 32.744,-1.792C32.44,-2.4 32.288,-3.104 32.288,-3.904C32.288,-4.704 32.445,-5.413 32.76,-6.032C33.075,-6.651 33.515,-7.131 34.08,-7.472C34.645,-7.813 35.296,-7.984 36.032,-7.984C36.437,-7.984 36.84,-7.928 37.24,-7.816C37.64,-7.704 37.989,-7.541 38.288,-7.328C38.48,-7.2 38.616,-7.075 38.696,-6.952C38.776,-6.829 38.816,-6.693 38.816,-6.544C38.816,-6.395 38.776,-6.272 38.696,-6.176C38.616,-6.08 38.512,-6.032 38.384,-6.032C38.309,-6.032 38.229,-6.053 38.144,-6.096C38.059,-6.139 37.987,-6.181 37.928,-6.224C37.869,-6.267 37.829,-6.293 37.808,-6.304C37.531,-6.485 37.267,-6.629 37.016,-6.736C36.765,-6.843 36.459,-6.896 36.096,-6.896C35.317,-6.896 34.712,-6.632 34.28,-6.104C33.848,-5.576 33.632,-4.843 33.632,-3.904C33.632,-2.965 33.848,-2.24 34.28,-1.728C34.712,-1.216 35.317,-0.96 36.096,-0.96C36.459,-0.96 36.771,-1.013 37.032,-1.12C37.293,-1.227 37.557,-1.371 37.824,-1.552C37.941,-1.627 38.053,-1.691 38.16,-1.744C38.267,-1.797 38.357,-1.824 38.432,-1.824C38.549,-1.824 38.648,-1.776 38.728,-1.68C38.808,-1.584 38.848,-1.461 38.848,-1.312C38.848,-1.173 38.811,-1.048 38.736,-0.936C38.661,-0.824 38.523,-0.699 38.32,-0.56C38.021,-0.357 37.661,-0.195 37.24,-0.072C36.819,0.051 36.395,0.112 35.968,0.112C35.243,0.112 34.6,-0.053 34.04,-0.384Z" style="fill-rule:nonzero;"/>
                <path d="M55.248,-11.272C55.355,-11.341 55.472,-11.376 55.6,-11.376C55.771,-11.376 55.917,-11.325 56.04,-11.224C56.163,-11.123 56.224,-10.987 56.224,-10.816C56.224,-10.741 56.208,-10.656 56.176,-10.56L52.56,-0.368C52.507,-0.219 52.416,-0.104 52.288,-0.024C52.16,0.056 52.016,0.096 51.856,0.096C51.707,0.096 51.568,0.056 51.44,-0.024C51.312,-0.104 51.221,-0.219 51.168,-0.368L48.032,-9.232L44.864,-0.368C44.811,-0.219 44.72,-0.104 44.592,-0.024C44.464,0.056 44.325,0.096 44.176,0.096C44.027,0.096 43.888,0.056 43.76,-0.024C43.632,-0.104 43.541,-0.219 43.488,-0.368L39.856,-10.56C39.824,-10.645 39.808,-10.725 39.808,-10.8C39.808,-10.971 39.875,-11.109 40.008,-11.216C40.141,-11.323 40.293,-11.376 40.464,-11.376C40.592,-11.376 40.712,-11.341 40.824,-11.272C40.936,-11.203 41.013,-11.099 41.056,-10.96L44.208,-1.872L47.408,-10.864C47.461,-11.024 47.547,-11.144 47.664,-11.224C47.781,-11.304 47.909,-11.344 48.048,-11.344C48.187,-11.344 48.315,-11.301 48.432,-11.216C48.549,-11.131 48.635,-11.008 48.688,-10.848L51.84,-1.84L55.024,-10.96C55.067,-11.099 55.141,-11.203 55.248,-11.272Z" style="fill-rule:nonzero;"/>
                <path d="M63.248,-4.912L63.248,-0.56C63.248,-0.368 63.192,-0.213 63.08,-0.096C62.968,0.021 62.816,0.08 62.624,0.08C62.432,0.08 62.277,0.021 62.16,-0.096C62.043,-0.213 61.984,-0.368 61.984,-0.56L61.984,-1.328C61.781,-0.869 61.472,-0.515 61.056,-0.264C60.64,-0.013 60.16,0.112 59.616,0.112C59.115,0.112 58.653,0.011 58.232,-0.192C57.811,-0.395 57.477,-0.677 57.232,-1.04C56.987,-1.403 56.864,-1.803 56.864,-2.24C56.864,-2.827 57.013,-3.283 57.312,-3.608C57.611,-3.933 58.101,-4.168 58.784,-4.312C59.467,-4.456 60.416,-4.528 61.632,-4.528L61.984,-4.528L61.984,-5.056C61.984,-5.696 61.853,-6.165 61.592,-6.464C61.331,-6.763 60.907,-6.912 60.32,-6.912C59.595,-6.912 58.859,-6.715 58.112,-6.32C57.824,-6.139 57.621,-6.048 57.504,-6.048C57.376,-6.048 57.269,-6.096 57.184,-6.192C57.099,-6.288 57.056,-6.411 57.056,-6.56C57.056,-6.709 57.101,-6.84 57.192,-6.952C57.283,-7.064 57.429,-7.179 57.632,-7.296C58.005,-7.509 58.429,-7.677 58.904,-7.8C59.379,-7.923 59.851,-7.984 60.32,-7.984C62.272,-7.984 63.248,-6.96 63.248,-4.912ZM61.368,-1.56C61.779,-1.992 61.984,-2.549 61.984,-3.232L61.984,-3.696L61.696,-3.696C60.757,-3.696 60.043,-3.656 59.552,-3.576C59.061,-3.496 58.712,-3.363 58.504,-3.176C58.296,-2.989 58.192,-2.715 58.192,-2.352C58.192,-1.936 58.344,-1.592 58.648,-1.32C58.952,-1.048 59.333,-0.912 59.792,-0.912C60.432,-0.912 60.957,-1.128 61.368,-1.56Z" style="fill-rule:nonzero;"/>
                <path d="M65.8,-0.088C65.677,-0.2 65.616,-0.357 65.616,-0.56L65.616,-10.72C65.616,-10.923 65.677,-11.08 65.8,-11.192C65.923,-11.304 66.08,-11.36 66.272,-11.36C66.453,-11.36 66.605,-11.304 66.728,-11.192C66.851,-11.08 66.912,-10.923 66.912,-10.72L66.912,-0.56C66.912,-0.357 66.851,-0.2 66.728,-0.088C66.605,0.024 66.453,0.08 66.272,0.08C66.08,0.08 65.923,0.024 65.8,-0.088Z" style="fill-rule:nonzero;"/>
                <path d="M69.512,-0.088C69.389,-0.2 69.328,-0.357 69.328,-0.56L69.328,-10.72C69.328,-10.923 69.389,-11.08 69.512,-11.192C69.635,-11.304 69.792,-11.36 69.984,-11.36C70.165,-11.36 70.317,-11.304 70.44,-11.192C70.563,-11.08 70.624,-10.923 70.624,-10.72L70.624,-0.56C70.624,-0.357 70.563,-0.2 70.44,-0.088C70.317,0.024 70.165,0.08 69.984,0.08C69.792,0.08 69.635,0.024 69.512,-0.088Z" style="fill-rule:nonzero;"/>
                <path d="M86.24,-11.176C86.347,-11.053 86.4,-10.891 86.4,-10.688L86.4,-0.592C86.4,-0.389 86.344,-0.227 86.232,-0.104C86.12,0.019 85.963,0.08 85.76,0.08C85.557,0.08 85.381,-0.011 85.232,-0.192L78.592,-9.072L78.592,-0.592C78.592,-0.389 78.536,-0.227 78.424,-0.104C78.312,0.019 78.16,0.08 77.968,0.08C77.776,0.08 77.627,0.019 77.52,-0.104C77.413,-0.227 77.36,-0.389 77.36,-0.592L77.36,-10.688C77.36,-10.891 77.416,-11.053 77.528,-11.176C77.64,-11.299 77.797,-11.36 78,-11.36C78.213,-11.36 78.395,-11.269 78.544,-11.088L85.168,-2.208L85.168,-10.688C85.168,-10.891 85.224,-11.053 85.336,-11.176C85.448,-11.299 85.6,-11.36 85.792,-11.36C85.984,-11.36 86.133,-11.299 86.24,-11.176Z" style="fill-rule:nonzero;"/>
                <path d="M95.328,-1.664C95.413,-1.568 95.456,-1.445 95.456,-1.296C95.456,-1.029 95.269,-0.784 94.896,-0.56C94.512,-0.336 94.107,-0.168 93.68,-0.056C93.253,0.056 92.837,0.112 92.432,0.112C91.227,0.112 90.275,-0.245 89.576,-0.96C88.877,-1.675 88.528,-2.661 88.528,-3.92C88.528,-4.72 88.683,-5.427 88.992,-6.04C89.301,-6.653 89.736,-7.131 90.296,-7.472C90.856,-7.813 91.493,-7.984 92.208,-7.984C93.221,-7.984 94.027,-7.653 94.624,-6.992C95.221,-6.331 95.52,-5.435 95.52,-4.304C95.52,-4.091 95.477,-3.936 95.392,-3.84C95.307,-3.744 95.168,-3.696 94.976,-3.696L89.824,-3.696C89.92,-1.861 90.789,-0.944 92.432,-0.944C92.848,-0.944 93.205,-1 93.504,-1.112C93.803,-1.224 94.123,-1.376 94.464,-1.568C94.741,-1.728 94.928,-1.808 95.024,-1.808C95.141,-1.808 95.243,-1.76 95.328,-1.664ZM90.584,-6.336C90.173,-5.909 89.931,-5.307 89.856,-4.528L94.384,-4.528C94.363,-5.317 94.165,-5.923 93.792,-6.344C93.419,-6.765 92.896,-6.976 92.224,-6.976C91.541,-6.976 90.995,-6.763 90.584,-6.336Z" style="fill-rule:nonzero;"/>
                <path d="M101.536,-0.432C101.536,-0.251 101.469,-0.115 101.336,-0.024C101.203,0.067 101.003,0.101 100.736,0.08L100.304,0.048C99.451,-0.016 98.821,-0.272 98.416,-0.72C98.011,-1.168 97.808,-1.845 97.808,-2.752L97.808,-6.768L96.736,-6.768C96.555,-6.768 96.413,-6.813 96.312,-6.904C96.211,-6.995 96.16,-7.115 96.16,-7.264C96.16,-7.424 96.211,-7.552 96.312,-7.648C96.413,-7.744 96.555,-7.792 96.736,-7.792L97.808,-7.792L97.808,-9.6C97.808,-9.803 97.867,-9.96 97.984,-10.072C98.101,-10.184 98.261,-10.24 98.464,-10.24C98.656,-10.24 98.811,-10.184 98.928,-10.072C99.045,-9.96 99.104,-9.803 99.104,-9.6L99.104,-7.792L100.88,-7.792C101.051,-7.792 101.187,-7.744 101.288,-7.648C101.389,-7.552 101.44,-7.424 101.44,-7.264C101.44,-7.115 101.389,-6.995 101.288,-6.904C101.187,-6.813 101.051,-6.768 100.88,-6.768L99.104,-6.768L99.104,-2.688C99.104,-2.101 99.224,-1.677 99.464,-1.416C99.704,-1.155 100.064,-1.008 100.544,-0.976L100.976,-0.944C101.349,-0.912 101.536,-0.741 101.536,-0.432Z" style="fill-rule:nonzero;"/>
                <path d="M103.192,-0.176C103.069,-0.293 103.008,-0.448 103.008,-0.64L103.008,-10.64C103.008,-10.832 103.069,-10.987 103.192,-11.104C103.315,-11.221 103.477,-11.28 103.68,-11.28L109.664,-11.28C109.856,-11.28 110.005,-11.232 110.112,-11.136C110.219,-11.04 110.272,-10.907 110.272,-10.736C110.272,-10.565 110.219,-10.432 110.112,-10.336C110.005,-10.24 109.856,-10.192 109.664,-10.192L104.304,-10.192L104.304,-6.272L109.344,-6.272C109.536,-6.272 109.685,-6.224 109.792,-6.128C109.899,-6.032 109.952,-5.899 109.952,-5.728C109.952,-5.557 109.899,-5.424 109.792,-5.328C109.685,-5.232 109.536,-5.184 109.344,-5.184L104.304,-5.184L104.304,-1.088L109.664,-1.088C109.856,-1.088 110.005,-1.043 110.112,-0.952C110.219,-0.861 110.272,-0.725 110.272,-0.544C110.272,-0.373 110.219,-0.24 110.112,-0.144C110.005,-0.048 109.856,0 109.664,0L103.68,0C103.477,0 103.315,-0.059 103.192,-0.176Z" style="fill-rule:nonzero;"/>
                <path d="M118.72,-0.528C118.72,-0.368 118.661,-0.229 118.544,-0.112C118.427,0.005 118.288,0.064 118.128,0.064C117.957,0.064 117.803,-0.011 117.664,-0.16L115.072,-3.12L112.496,-0.16C112.357,-0.011 112.203,0.064 112.032,0.064C111.872,0.064 111.731,0.005 111.608,-0.112C111.485,-0.229 111.424,-0.373 111.424,-0.544C111.424,-0.704 111.488,-0.853 111.616,-0.992L114.272,-3.984L111.728,-6.88C111.6,-7.029 111.536,-7.179 111.536,-7.328C111.536,-7.499 111.597,-7.643 111.72,-7.76C111.843,-7.877 111.979,-7.936 112.128,-7.936C112.299,-7.936 112.453,-7.861 112.592,-7.712L115.072,-4.864L117.552,-7.712C117.691,-7.861 117.845,-7.936 118.016,-7.936C118.176,-7.936 118.315,-7.877 118.432,-7.76C118.549,-7.643 118.608,-7.504 118.608,-7.344C118.608,-7.163 118.544,-7.008 118.416,-6.88L115.872,-3.984L118.528,-0.992C118.656,-0.864 118.72,-0.709 118.72,-0.528Z" style="fill-rule:nonzero;"/>
                <path d="M124.576,-0.432C124.576,-0.251 124.509,-0.115 124.376,-0.024C124.243,0.067 124.043,0.101 123.776,0.08L123.344,0.048C122.491,-0.016 121.861,-0.272 121.456,-0.72C121.051,-1.168 120.848,-1.845 120.848,-2.752L120.848,-6.768L119.776,-6.768C119.595,-6.768 119.453,-6.813 119.352,-6.904C119.251,-6.995 119.2,-7.115 119.2,-7.264C119.2,-7.424 119.251,-7.552 119.352,-7.648C119.453,-7.744 119.595,-7.792 119.776,-7.792L120.848,-7.792L120.848,-9.6C120.848,-9.803 120.907,-9.96 121.024,-10.072C121.141,-10.184 121.301,-10.24 121.504,-10.24C121.696,-10.24 121.851,-10.184 121.968,-10.072C122.085,-9.96 122.144,-9.803 122.144,-9.6L122.144,-7.792L123.92,-7.792C124.091,-7.792 124.227,-7.744 124.328,-7.648C124.429,-7.552 124.48,-7.424 124.48,-7.264C124.48,-7.115 124.429,-6.995 124.328,-6.904C124.227,-6.813 124.091,-6.768 123.92,-6.768L122.144,-6.768L122.144,-2.688C122.144,-2.101 122.264,-1.677 122.504,-1.416C122.744,-1.155 123.104,-1.008 123.584,-0.976L124.016,-0.944C124.389,-0.912 124.576,-0.741 124.576,-0.432Z" style="fill-rule:nonzero;"/>
                <path d="M132.192,-1.664C132.277,-1.568 132.32,-1.445 132.32,-1.296C132.32,-1.029 132.133,-0.784 131.76,-0.56C131.376,-0.336 130.971,-0.168 130.544,-0.056C130.117,0.056 129.701,0.112 129.296,0.112C128.091,0.112 127.139,-0.245 126.44,-0.96C125.741,-1.675 125.392,-2.661 125.392,-3.92C125.392,-4.72 125.547,-5.427 125.856,-6.04C126.165,-6.653 126.6,-7.131 127.16,-7.472C127.72,-7.813 128.357,-7.984 129.072,-7.984C130.085,-7.984 130.891,-7.653 131.488,-6.992C132.085,-6.331 132.384,-5.435 132.384,-4.304C132.384,-4.091 132.341,-3.936 132.256,-3.84C132.171,-3.744 132.032,-3.696 131.84,-3.696L126.688,-3.696C126.784,-1.861 127.653,-0.944 129.296,-0.944C129.712,-0.944 130.069,-1 130.368,-1.112C130.667,-1.224 130.987,-1.376 131.328,-1.568C131.605,-1.728 131.792,-1.808 131.888,-1.808C132.005,-1.808 132.107,-1.76 132.192,-1.664ZM127.448,-6.336C127.037,-5.909 126.795,-5.307 126.72,-4.528L131.248,-4.528C131.227,-5.317 131.029,-5.923 130.656,-6.344C130.283,-6.765 129.76,-6.976 129.088,-6.976C128.405,-6.976 127.859,-6.763 127.448,-6.336Z" style="fill-rule:nonzero;"/>
                <path d="M141.008,-4.896L141.008,-0.56C141.008,-0.357 140.952,-0.2 140.84,-0.088C140.728,0.024 140.571,0.08 140.368,0.08C140.165,0.08 140.005,0.024 139.888,-0.088C139.771,-0.2 139.712,-0.357 139.712,-0.56L139.712,-4.816C139.712,-5.541 139.571,-6.069 139.288,-6.4C139.005,-6.731 138.555,-6.896 137.936,-6.896C137.221,-6.896 136.651,-6.677 136.224,-6.24C135.797,-5.803 135.584,-5.211 135.584,-4.464L135.584,-0.56C135.584,-0.357 135.528,-0.2 135.416,-0.088C135.304,0.024 135.147,0.08 134.944,0.08C134.741,0.08 134.581,0.024 134.464,-0.088C134.347,-0.2 134.288,-0.357 134.288,-0.56L134.288,-7.312C134.288,-7.504 134.347,-7.659 134.464,-7.776C134.581,-7.893 134.741,-7.952 134.944,-7.952C135.136,-7.952 135.288,-7.893 135.4,-7.776C135.512,-7.659 135.568,-7.509 135.568,-7.328L135.568,-6.512C135.824,-6.992 136.181,-7.357 136.64,-7.608C137.099,-7.859 137.621,-7.984 138.208,-7.984C140.075,-7.984 141.008,-6.955 141.008,-4.896Z" style="fill-rule:nonzero;"/>
                <path d="M150.112,-11.184C150.229,-11.067 150.288,-10.917 150.288,-10.736L150.288,-0.56C150.288,-0.368 150.229,-0.213 150.112,-0.096C149.995,0.021 149.835,0.08 149.632,0.08C149.429,0.08 149.272,0.021 149.16,-0.096C149.048,-0.213 148.992,-0.368 148.992,-0.56L148.992,-1.424C148.757,-0.933 148.413,-0.555 147.96,-0.288C147.507,-0.021 146.976,0.112 146.368,0.112C145.685,0.112 145.083,-0.059 144.56,-0.4C144.037,-0.741 143.632,-1.219 143.344,-1.832C143.056,-2.445 142.912,-3.157 142.912,-3.968C142.912,-4.768 143.056,-5.472 143.344,-6.08C143.632,-6.688 144.037,-7.157 144.56,-7.488C145.083,-7.819 145.685,-7.984 146.368,-7.984C146.976,-7.984 147.507,-7.851 147.96,-7.584C148.413,-7.317 148.757,-6.939 148.992,-6.448L148.992,-10.736C148.992,-10.928 149.048,-11.08 149.16,-11.192C149.272,-11.304 149.429,-11.36 149.632,-11.36C149.835,-11.36 149.995,-11.301 150.112,-11.184ZM148.376,-1.736C148.787,-2.253 148.992,-2.987 148.992,-3.936C148.992,-4.885 148.787,-5.616 148.376,-6.128C147.965,-6.64 147.381,-6.896 146.624,-6.896C145.867,-6.896 145.277,-6.64 144.856,-6.128C144.435,-5.616 144.224,-4.896 144.224,-3.968C144.224,-3.019 144.435,-2.28 144.856,-1.752C145.277,-1.224 145.867,-0.96 146.624,-0.96C147.381,-0.96 147.965,-1.219 148.376,-1.736Z" style="fill-rule:nonzero;"/>
                <path d="M159.024,-1.664C159.109,-1.568 159.152,-1.445 159.152,-1.296C159.152,-1.029 158.965,-0.784 158.592,-0.56C158.208,-0.336 157.803,-0.168 157.376,-0.056C156.949,0.056 156.533,0.112 156.128,0.112C154.923,0.112 153.971,-0.245 153.272,-0.96C152.573,-1.675 152.224,-2.661 152.224,-3.92C152.224,-4.72 152.379,-5.427 152.688,-6.04C152.997,-6.653 153.432,-7.131 153.992,-7.472C154.552,-7.813 155.189,-7.984 155.904,-7.984C156.917,-7.984 157.723,-7.653 158.32,-6.992C158.917,-6.331 159.216,-5.435 159.216,-4.304C159.216,-4.091 159.173,-3.936 159.088,-3.84C159.003,-3.744 158.864,-3.696 158.672,-3.696L153.52,-3.696C153.616,-1.861 154.485,-0.944 156.128,-0.944C156.544,-0.944 156.901,-1 157.2,-1.112C157.499,-1.224 157.819,-1.376 158.16,-1.568C158.437,-1.728 158.624,-1.808 158.72,-1.808C158.837,-1.808 158.939,-1.76 159.024,-1.664ZM154.28,-6.336C153.869,-5.909 153.627,-5.307 153.552,-4.528L158.08,-4.528C158.059,-5.317 157.861,-5.923 157.488,-6.344C157.115,-6.765 156.592,-6.976 155.92,-6.976C155.237,-6.976 154.691,-6.763 154.28,-6.336Z" style="fill-rule:nonzero;"/>
                <path d="M165.648,-7.408C165.648,-7.237 165.6,-7.101 165.504,-7C165.408,-6.899 165.243,-6.837 165.008,-6.816L164.528,-6.768C163.813,-6.704 163.283,-6.451 162.936,-6.008C162.589,-5.565 162.416,-5.045 162.416,-4.448L162.416,-0.56C162.416,-0.347 162.357,-0.187 162.24,-0.08C162.123,0.027 161.968,0.08 161.776,0.08C161.584,0.08 161.427,0.024 161.304,-0.088C161.181,-0.2 161.12,-0.357 161.12,-0.56L161.12,-7.312C161.12,-7.515 161.184,-7.672 161.312,-7.784C161.44,-7.896 161.595,-7.952 161.776,-7.952C161.947,-7.952 162.091,-7.896 162.208,-7.784C162.325,-7.672 162.384,-7.52 162.384,-7.328L162.384,-6.432C162.608,-6.901 162.925,-7.259 163.336,-7.504C163.747,-7.749 164.219,-7.893 164.752,-7.936L164.976,-7.952C165.424,-7.984 165.648,-7.803 165.648,-7.408Z" style="fill-rule:nonzero;"/>
                <path d="M177.288,-7.776C177.4,-7.659 177.456,-7.504 177.456,-7.312L177.456,-0.544C177.456,-0.363 177.4,-0.213 177.288,-0.096C177.176,0.021 177.019,0.08 176.816,0.08C176.624,0.08 176.472,0.024 176.36,-0.088C176.248,-0.2 176.192,-0.347 176.192,-0.528L176.192,-1.328C175.947,-0.859 175.603,-0.501 175.16,-0.256C174.717,-0.011 174.219,0.112 173.664,0.112C172.736,0.112 172.037,-0.147 171.568,-0.664C171.099,-1.181 170.864,-1.947 170.864,-2.96L170.864,-7.312C170.864,-7.504 170.923,-7.659 171.04,-7.776C171.157,-7.893 171.317,-7.952 171.52,-7.952C171.723,-7.952 171.88,-7.893 171.992,-7.776C172.104,-7.659 172.16,-7.504 172.16,-7.312L172.16,-2.992C172.16,-2.299 172.299,-1.789 172.576,-1.464C172.853,-1.139 173.291,-0.976 173.888,-0.976C174.571,-0.976 175.12,-1.197 175.536,-1.64C175.952,-2.083 176.16,-2.667 176.16,-3.392L176.16,-7.312C176.16,-7.504 176.219,-7.659 176.336,-7.776C176.453,-7.893 176.613,-7.952 176.816,-7.952C177.019,-7.952 177.176,-7.893 177.288,-7.776Z" style="fill-rule:nonzero;"/>
                <path d="M181.096,-0.064C180.653,-0.181 180.261,-0.347 179.92,-0.56C179.728,-0.688 179.592,-0.808 179.512,-0.92C179.432,-1.032 179.392,-1.168 179.392,-1.328C179.392,-1.467 179.432,-1.581 179.512,-1.672C179.592,-1.763 179.696,-1.808 179.824,-1.808C179.952,-1.808 180.139,-1.728 180.384,-1.568C180.704,-1.376 181.021,-1.224 181.336,-1.112C181.651,-1 182.043,-0.944 182.512,-0.944C183.088,-0.944 183.536,-1.045 183.856,-1.248C184.176,-1.451 184.336,-1.744 184.336,-2.128C184.336,-2.363 184.277,-2.552 184.16,-2.696C184.043,-2.84 183.84,-2.968 183.552,-3.08C183.264,-3.192 182.843,-3.307 182.288,-3.424C181.349,-3.627 180.677,-3.899 180.272,-4.24C179.867,-4.581 179.664,-5.045 179.664,-5.632C179.664,-6.091 179.792,-6.496 180.048,-6.848C180.304,-7.2 180.659,-7.477 181.112,-7.68C181.565,-7.883 182.08,-7.984 182.656,-7.984C183.072,-7.984 183.475,-7.928 183.864,-7.816C184.253,-7.704 184.597,-7.547 184.896,-7.344C185.259,-7.088 185.44,-6.821 185.44,-6.544C185.44,-6.405 185.397,-6.288 185.312,-6.192C185.227,-6.096 185.125,-6.048 185.008,-6.048C184.88,-6.048 184.688,-6.139 184.432,-6.32C184.133,-6.512 183.851,-6.661 183.584,-6.768C183.317,-6.875 182.987,-6.928 182.592,-6.928C182.091,-6.928 181.688,-6.816 181.384,-6.592C181.08,-6.368 180.928,-6.069 180.928,-5.696C180.928,-5.461 180.984,-5.272 181.096,-5.128C181.208,-4.984 181.395,-4.856 181.656,-4.744C181.917,-4.632 182.293,-4.523 182.784,-4.416C183.509,-4.256 184.072,-4.08 184.472,-3.888C184.872,-3.696 185.157,-3.461 185.328,-3.184C185.499,-2.907 185.584,-2.555 185.584,-2.128C185.584,-1.456 185.301,-0.915 184.736,-0.504C184.171,-0.093 183.424,0.112 182.496,0.112C182.005,0.112 181.539,0.053 181.096,-0.064Z" style="fill-rule:nonzero;"/>
                <path d="M187.736,-0.088C187.613,-0.2 187.552,-0.357 187.552,-0.56L187.552,-7.312C187.552,-7.515 187.613,-7.672 187.736,-7.784C187.859,-7.896 188.016,-7.952 188.208,-7.952C188.4,-7.952 188.555,-7.896 188.672,-7.784C188.789,-7.672 188.848,-7.515 188.848,-7.312L188.848,-0.56C188.848,-0.347 188.789,-0.187 188.672,-0.08C188.555,0.027 188.4,0.08 188.208,0.08C188.016,0.08 187.859,0.024 187.736,-0.088ZM187.584,-9.856C187.424,-10.005 187.344,-10.203 187.344,-10.448C187.344,-10.683 187.424,-10.875 187.584,-11.024C187.744,-11.173 187.952,-11.248 188.208,-11.248C188.464,-11.248 188.672,-11.173 188.832,-11.024C188.992,-10.875 189.072,-10.683 189.072,-10.448C189.072,-10.203 188.992,-10.005 188.832,-9.856C188.672,-9.707 188.464,-9.632 188.208,-9.632C187.952,-9.632 187.744,-9.707 187.584,-9.856Z" style="fill-rule:nonzero;"/>
                <path d="M197.984,-4.896L197.984,-0.56C197.984,-0.357 197.928,-0.2 197.816,-0.088C197.704,0.024 197.547,0.08 197.344,0.08C197.141,0.08 196.981,0.024 196.864,-0.088C196.747,-0.2 196.688,-0.357 196.688,-0.56L196.688,-4.816C196.688,-5.541 196.547,-6.069 196.264,-6.4C195.981,-6.731 195.531,-6.896 194.912,-6.896C194.197,-6.896 193.627,-6.677 193.2,-6.24C192.773,-5.803 192.56,-5.211 192.56,-4.464L192.56,-0.56C192.56,-0.357 192.504,-0.2 192.392,-0.088C192.28,0.024 192.123,0.08 191.92,0.08C191.717,0.08 191.557,0.024 191.44,-0.088C191.323,-0.2 191.264,-0.357 191.264,-0.56L191.264,-7.312C191.264,-7.504 191.323,-7.659 191.44,-7.776C191.557,-7.893 191.717,-7.952 191.92,-7.952C192.112,-7.952 192.264,-7.893 192.376,-7.776C192.488,-7.659 192.544,-7.509 192.544,-7.328L192.544,-6.512C192.8,-6.992 193.157,-7.357 193.616,-7.608C194.075,-7.859 194.597,-7.984 195.184,-7.984C197.051,-7.984 197.984,-6.955 197.984,-4.896Z" style="fill-rule:nonzero;"/>
                <path d="M207.152,-7.776C207.269,-7.659 207.328,-7.504 207.328,-7.312L207.328,-0.528C207.328,0.635 207.029,1.512 206.432,2.104C205.835,2.696 204.949,2.992 203.776,2.992C202.635,2.992 201.685,2.768 200.928,2.32C200.544,2.107 200.352,1.861 200.352,1.584C200.352,1.435 200.392,1.312 200.472,1.216C200.552,1.12 200.656,1.072 200.784,1.072C200.891,1.072 201.083,1.147 201.36,1.296C201.733,1.488 202.101,1.643 202.464,1.76C202.827,1.877 203.259,1.936 203.76,1.936C204.517,1.936 205.088,1.736 205.472,1.336C205.856,0.936 206.048,0.352 206.048,-0.416L206.048,-1.792C205.824,-1.291 205.48,-0.907 205.016,-0.64C204.552,-0.373 204.005,-0.24 203.376,-0.24C202.693,-0.24 202.088,-0.4 201.56,-0.72C201.032,-1.04 200.621,-1.493 200.328,-2.08C200.035,-2.667 199.888,-3.344 199.888,-4.112C199.888,-4.88 200.035,-5.557 200.328,-6.144C200.621,-6.731 201.032,-7.184 201.56,-7.504C202.088,-7.824 202.693,-7.984 203.376,-7.984C203.995,-7.984 204.533,-7.851 204.992,-7.584C205.451,-7.317 205.797,-6.939 206.032,-6.448L206.032,-7.312C206.032,-7.504 206.088,-7.659 206.2,-7.776C206.312,-7.893 206.469,-7.952 206.672,-7.952C206.875,-7.952 207.035,-7.893 207.152,-7.776ZM205.392,-2.056C205.819,-2.552 206.032,-3.237 206.032,-4.112C206.032,-4.976 205.821,-5.656 205.4,-6.152C204.979,-6.648 204.389,-6.896 203.632,-6.896C202.875,-6.896 202.28,-6.648 201.848,-6.152C201.416,-5.656 201.2,-4.976 201.2,-4.112C201.2,-3.237 201.416,-2.552 201.848,-2.056C202.28,-1.56 202.875,-1.312 203.632,-1.312C204.379,-1.312 204.965,-1.56 205.392,-2.056Z" style="fill-rule:nonzero;"/>
                <path d="M228.688,-11.272C228.795,-11.341 228.912,-11.376 229.04,-11.376C229.211,-11.376 229.357,-11.325 229.48,-11.224C229.603,-11.123 229.664,-10.987 229.664,-10.816C229.664,-10.741 229.648,-10.656 229.616,-10.56L226,-0.368C225.947,-0.219 225.856,-0.104 225.728,-0.024C225.6,0.056 225.456,0.096 225.296,0.096C225.147,0.096 225.008,0.056 224.88,-0.024C224.752,-0.104 224.661,-0.219 224.608,-0.368L221.472,-9.232L218.304,-0.368C218.251,-0.219 218.16,-0.104 218.032,-0.024C217.904,0.056 217.765,0.096 217.616,0.096C217.467,0.096 217.328,0.056 217.2,-0.024C217.072,-0.104 216.981,-0.219 216.928,-0.368L213.296,-10.56C213.264,-10.645 213.248,-10.725 213.248,-10.8C213.248,-10.971 213.315,-11.109 213.448,-11.216C213.581,-11.323 213.733,-11.376 213.904,-11.376C214.032,-11.376 214.152,-11.341 214.264,-11.272C214.376,-11.203 214.453,-11.099 214.496,-10.96L217.648,-1.872L220.848,-10.864C220.901,-11.024 220.987,-11.144 221.104,-11.224C221.221,-11.304 221.349,-11.344 221.488,-11.344C221.627,-11.344 221.755,-11.301 221.872,-11.216C221.989,-11.131 222.075,-11.008 222.128,-10.848L225.28,-1.84L228.464,-10.96C228.507,-11.099 228.581,-11.203 228.688,-11.272Z" style="fill-rule:nonzero;"/>
                <path d="M240.432,-0.48C240.432,-0.32 240.371,-0.187 240.248,-0.08C240.125,0.027 239.979,0.08 239.808,0.08C239.541,0.08 239.355,-0.048 239.248,-0.304L238.112,-2.896L232.08,-2.896L230.928,-0.304C230.821,-0.048 230.635,0.08 230.368,0.08C230.197,0.08 230.048,0.024 229.92,-0.088C229.792,-0.2 229.728,-0.336 229.728,-0.496C229.728,-0.581 229.749,-0.667 229.792,-0.752L234.368,-10.928C234.432,-11.077 234.528,-11.189 234.656,-11.264C234.784,-11.339 234.923,-11.376 235.072,-11.376C235.232,-11.376 235.376,-11.336 235.504,-11.256C235.632,-11.176 235.728,-11.067 235.792,-10.928L240.368,-0.752C240.411,-0.667 240.432,-0.576 240.432,-0.48ZM232.56,-3.984L237.632,-3.984L235.088,-9.728L232.56,-3.984Z" style="fill-rule:nonzero;"/>
                <path d="M251.168,-11.176C251.275,-11.053 251.328,-10.891 251.328,-10.688L251.328,-0.592C251.328,-0.389 251.272,-0.227 251.16,-0.104C251.048,0.019 250.891,0.08 250.688,0.08C250.485,0.08 250.309,-0.011 250.16,-0.192L243.52,-9.072L243.52,-0.592C243.52,-0.389 243.464,-0.227 243.352,-0.104C243.24,0.019 243.088,0.08 242.896,0.08C242.704,0.08 242.555,0.019 242.448,-0.104C242.341,-0.227 242.288,-0.389 242.288,-0.592L242.288,-10.688C242.288,-10.891 242.344,-11.053 242.456,-11.176C242.568,-11.299 242.725,-11.36 242.928,-11.36C243.141,-11.36 243.323,-11.269 243.472,-11.088L250.096,-2.208L250.096,-10.688C250.096,-10.891 250.152,-11.053 250.264,-11.176C250.376,-11.299 250.528,-11.36 250.72,-11.36C250.912,-11.36 251.061,-11.299 251.168,-11.176Z" style="fill-rule:nonzero;"/>
                <path d="M264.16,-4.912L264.16,-0.56C264.16,-0.368 264.104,-0.213 263.992,-0.096C263.88,0.021 263.728,0.08 263.536,0.08C263.344,0.08 263.189,0.021 263.072,-0.096C262.955,-0.213 262.896,-0.368 262.896,-0.56L262.896,-1.328C262.693,-0.869 262.384,-0.515 261.968,-0.264C261.552,-0.013 261.072,0.112 260.528,0.112C260.027,0.112 259.565,0.011 259.144,-0.192C258.723,-0.395 258.389,-0.677 258.144,-1.04C257.899,-1.403 257.776,-1.803 257.776,-2.24C257.776,-2.827 257.925,-3.283 258.224,-3.608C258.523,-3.933 259.013,-4.168 259.696,-4.312C260.379,-4.456 261.328,-4.528 262.544,-4.528L262.896,-4.528L262.896,-5.056C262.896,-5.696 262.765,-6.165 262.504,-6.464C262.243,-6.763 261.819,-6.912 261.232,-6.912C260.507,-6.912 259.771,-6.715 259.024,-6.32C258.736,-6.139 258.533,-6.048 258.416,-6.048C258.288,-6.048 258.181,-6.096 258.096,-6.192C258.011,-6.288 257.968,-6.411 257.968,-6.56C257.968,-6.709 258.013,-6.84 258.104,-6.952C258.195,-7.064 258.341,-7.179 258.544,-7.296C258.917,-7.509 259.341,-7.677 259.816,-7.8C260.291,-7.923 260.763,-7.984 261.232,-7.984C263.184,-7.984 264.16,-6.96 264.16,-4.912ZM262.28,-1.56C262.691,-1.992 262.896,-2.549 262.896,-3.232L262.896,-3.696L262.608,-3.696C261.669,-3.696 260.955,-3.656 260.464,-3.576C259.973,-3.496 259.624,-3.363 259.416,-3.176C259.208,-2.989 259.104,-2.715 259.104,-2.352C259.104,-1.936 259.256,-1.592 259.56,-1.32C259.864,-1.048 260.245,-0.912 260.704,-0.912C261.344,-0.912 261.869,-1.128 262.28,-1.56Z" style="fill-rule:nonzero;"/>
                <path d="M267.816,-0.384C267.256,-0.715 266.824,-1.184 266.52,-1.792C266.216,-2.4 266.064,-3.104 266.064,-3.904C266.064,-4.704 266.221,-5.413 266.536,-6.032C266.851,-6.651 267.291,-7.131 267.856,-7.472C268.421,-7.813 269.072,-7.984 269.808,-7.984C270.213,-7.984 270.616,-7.928 271.016,-7.816C271.416,-7.704 271.765,-7.541 272.064,-7.328C272.256,-7.2 272.392,-7.075 272.472,-6.952C272.552,-6.829 272.592,-6.693 272.592,-6.544C272.592,-6.395 272.552,-6.272 272.472,-6.176C272.392,-6.08 272.288,-6.032 272.16,-6.032C272.085,-6.032 272.005,-6.053 271.92,-6.096C271.835,-6.139 271.763,-6.181 271.704,-6.224C271.645,-6.267 271.605,-6.293 271.584,-6.304C271.307,-6.485 271.043,-6.629 270.792,-6.736C270.541,-6.843 270.235,-6.896 269.872,-6.896C269.093,-6.896 268.488,-6.632 268.056,-6.104C267.624,-5.576 267.408,-4.843 267.408,-3.904C267.408,-2.965 267.624,-2.24 268.056,-1.728C268.488,-1.216 269.093,-0.96 269.872,-0.96C270.235,-0.96 270.547,-1.013 270.808,-1.12C271.069,-1.227 271.333,-1.371 271.6,-1.552C271.717,-1.627 271.829,-1.691 271.936,-1.744C272.043,-1.797 272.133,-1.824 272.208,-1.824C272.325,-1.824 272.424,-1.776 272.504,-1.68C272.584,-1.584 272.624,-1.461 272.624,-1.312C272.624,-1.173 272.587,-1.048 272.512,-0.936C272.437,-0.824 272.299,-0.699 272.096,-0.56C271.797,-0.357 271.437,-0.195 271.016,-0.072C270.595,0.051 270.171,0.112 269.744,0.112C269.019,0.112 268.376,-0.053 267.816,-0.384Z" style="fill-rule:nonzero;"/>
                <path d="M275.48,-0.384C274.92,-0.715 274.488,-1.184 274.184,-1.792C273.88,-2.4 273.728,-3.104 273.728,-3.904C273.728,-4.704 273.885,-5.413 274.2,-6.032C274.515,-6.651 274.955,-7.131 275.52,-7.472C276.085,-7.813 276.736,-7.984 277.472,-7.984C277.877,-7.984 278.28,-7.928 278.68,-7.816C279.08,-7.704 279.429,-7.541 279.728,-7.328C279.92,-7.2 280.056,-7.075 280.136,-6.952C280.216,-6.829 280.256,-6.693 280.256,-6.544C280.256,-6.395 280.216,-6.272 280.136,-6.176C280.056,-6.08 279.952,-6.032 279.824,-6.032C279.749,-6.032 279.669,-6.053 279.584,-6.096C279.499,-6.139 279.427,-6.181 279.368,-6.224C279.309,-6.267 279.269,-6.293 279.248,-6.304C278.971,-6.485 278.707,-6.629 278.456,-6.736C278.205,-6.843 277.899,-6.896 277.536,-6.896C276.757,-6.896 276.152,-6.632 275.72,-6.104C275.288,-5.576 275.072,-4.843 275.072,-3.904C275.072,-2.965 275.288,-2.24 275.72,-1.728C276.152,-1.216 276.757,-0.96 277.536,-0.96C277.899,-0.96 278.211,-1.013 278.472,-1.12C278.733,-1.227 278.997,-1.371 279.264,-1.552C279.381,-1.627 279.493,-1.691 279.6,-1.744C279.707,-1.797 279.797,-1.824 279.872,-1.824C279.989,-1.824 280.088,-1.776 280.168,-1.68C280.248,-1.584 280.288,-1.461 280.288,-1.312C280.288,-1.173 280.251,-1.048 280.176,-0.936C280.101,-0.824 279.963,-0.699 279.76,-0.56C279.461,-0.357 279.101,-0.195 278.68,-0.072C278.259,0.051 277.835,0.112 277.408,0.112C276.683,0.112 276.04,-0.053 275.48,-0.384Z" style="fill-rule:nonzero;"/>
                <path d="M288.192,-1.664C288.277,-1.568 288.32,-1.445 288.32,-1.296C288.32,-1.029 288.133,-0.784 287.76,-0.56C287.376,-0.336 286.971,-0.168 286.544,-0.056C286.117,0.056 285.701,0.112 285.296,0.112C284.091,0.112 283.139,-0.245 282.44,-0.96C281.741,-1.675 281.392,-2.661 281.392,-3.92C281.392,-4.72 281.547,-5.427 281.856,-6.04C282.165,-6.653 282.6,-7.131 283.16,-7.472C283.72,-7.813 284.357,-7.984 285.072,-7.984C286.085,-7.984 286.891,-7.653 287.488,-6.992C288.085,-6.331 288.384,-5.435 288.384,-4.304C288.384,-4.091 288.341,-3.936 288.256,-3.84C288.171,-3.744 288.032,-3.696 287.84,-3.696L282.688,-3.696C282.784,-1.861 283.653,-0.944 285.296,-0.944C285.712,-0.944 286.069,-1 286.368,-1.112C286.667,-1.224 286.987,-1.376 287.328,-1.568C287.605,-1.728 287.792,-1.808 287.888,-1.808C288.005,-1.808 288.107,-1.76 288.192,-1.664ZM283.448,-6.336C283.037,-5.909 282.795,-5.307 282.72,-4.528L287.248,-4.528C287.227,-5.317 287.029,-5.923 286.656,-6.344C286.283,-6.765 285.76,-6.976 285.088,-6.976C284.405,-6.976 283.859,-6.763 283.448,-6.336Z" style="fill-rule:nonzero;"/>
                <path d="M290.472,-0.088C290.349,-0.2 290.288,-0.357 290.288,-0.56L290.288,-10.72C290.288,-10.923 290.349,-11.08 290.472,-11.192C290.595,-11.304 290.752,-11.36 290.944,-11.36C291.125,-11.36 291.277,-11.304 291.4,-11.192C291.523,-11.08 291.584,-10.923 291.584,-10.72L291.584,-0.56C291.584,-0.357 291.523,-0.2 291.4,-0.088C291.277,0.024 291.125,0.08 290.944,0.08C290.752,0.08 290.595,0.024 290.472,-0.088Z" style="fill-rule:nonzero;"/>
                <path d="M300.336,-1.664C300.421,-1.568 300.464,-1.445 300.464,-1.296C300.464,-1.029 300.277,-0.784 299.904,-0.56C299.52,-0.336 299.115,-0.168 298.688,-0.056C298.261,0.056 297.845,0.112 297.44,0.112C296.235,0.112 295.283,-0.245 294.584,-0.96C293.885,-1.675 293.536,-2.661 293.536,-3.92C293.536,-4.72 293.691,-5.427 294,-6.04C294.309,-6.653 294.744,-7.131 295.304,-7.472C295.864,-7.813 296.501,-7.984 297.216,-7.984C298.229,-7.984 299.035,-7.653 299.632,-6.992C300.229,-6.331 300.528,-5.435 300.528,-4.304C300.528,-4.091 300.485,-3.936 300.4,-3.84C300.315,-3.744 300.176,-3.696 299.984,-3.696L294.832,-3.696C294.928,-1.861 295.797,-0.944 297.44,-0.944C297.856,-0.944 298.213,-1 298.512,-1.112C298.811,-1.224 299.131,-1.376 299.472,-1.568C299.749,-1.728 299.936,-1.808 300.032,-1.808C300.149,-1.808 300.251,-1.76 300.336,-1.664ZM295.592,-6.336C295.181,-5.909 294.939,-5.307 294.864,-4.528L299.392,-4.528C299.371,-5.317 299.173,-5.923 298.8,-6.344C298.427,-6.765 297.904,-6.976 297.232,-6.976C296.549,-6.976 296.003,-6.763 295.592,-6.336Z" style="fill-rule:nonzero;"/>
                <path d="M306.96,-7.408C306.96,-7.237 306.912,-7.101 306.816,-7C306.72,-6.899 306.555,-6.837 306.32,-6.816L305.84,-6.768C305.125,-6.704 304.595,-6.451 304.248,-6.008C303.901,-5.565 303.728,-5.045 303.728,-4.448L303.728,-0.56C303.728,-0.347 303.669,-0.187 303.552,-0.08C303.435,0.027 303.28,0.08 303.088,0.08C302.896,0.08 302.739,0.024 302.616,-0.088C302.493,-0.2 302.432,-0.357 302.432,-0.56L302.432,-7.312C302.432,-7.515 302.496,-7.672 302.624,-7.784C302.752,-7.896 302.907,-7.952 303.088,-7.952C303.259,-7.952 303.403,-7.896 303.52,-7.784C303.637,-7.672 303.696,-7.52 303.696,-7.328L303.696,-6.432C303.92,-6.901 304.237,-7.259 304.648,-7.504C305.059,-7.749 305.531,-7.893 306.064,-7.936L306.288,-7.952C306.736,-7.984 306.96,-7.803 306.96,-7.408Z" style="fill-rule:nonzero;"/>
                <path d="M314.128,-4.912L314.128,-0.56C314.128,-0.368 314.072,-0.213 313.96,-0.096C313.848,0.021 313.696,0.08 313.504,0.08C313.312,0.08 313.157,0.021 313.04,-0.096C312.923,-0.213 312.864,-0.368 312.864,-0.56L312.864,-1.328C312.661,-0.869 312.352,-0.515 311.936,-0.264C311.52,-0.013 311.04,0.112 310.496,0.112C309.995,0.112 309.533,0.011 309.112,-0.192C308.691,-0.395 308.357,-0.677 308.112,-1.04C307.867,-1.403 307.744,-1.803 307.744,-2.24C307.744,-2.827 307.893,-3.283 308.192,-3.608C308.491,-3.933 308.981,-4.168 309.664,-4.312C310.347,-4.456 311.296,-4.528 312.512,-4.528L312.864,-4.528L312.864,-5.056C312.864,-5.696 312.733,-6.165 312.472,-6.464C312.211,-6.763 311.787,-6.912 311.2,-6.912C310.475,-6.912 309.739,-6.715 308.992,-6.32C308.704,-6.139 308.501,-6.048 308.384,-6.048C308.256,-6.048 308.149,-6.096 308.064,-6.192C307.979,-6.288 307.936,-6.411 307.936,-6.56C307.936,-6.709 307.981,-6.84 308.072,-6.952C308.163,-7.064 308.309,-7.179 308.512,-7.296C308.885,-7.509 309.309,-7.677 309.784,-7.8C310.259,-7.923 310.731,-7.984 311.2,-7.984C313.152,-7.984 314.128,-6.96 314.128,-4.912ZM312.248,-1.56C312.659,-1.992 312.864,-2.549 312.864,-3.232L312.864,-3.696L312.576,-3.696C311.637,-3.696 310.923,-3.656 310.432,-3.576C309.941,-3.496 309.592,-3.363 309.384,-3.176C309.176,-2.989 309.072,-2.715 309.072,-2.352C309.072,-1.936 309.224,-1.592 309.528,-1.32C309.832,-1.048 310.213,-0.912 310.672,-0.912C311.312,-0.912 311.837,-1.128 312.248,-1.56Z" style="fill-rule:nonzero;"/>
                <path d="M320.656,-0.432C320.656,-0.251 320.589,-0.115 320.456,-0.024C320.323,0.067 320.123,0.101 319.856,0.08L319.424,0.048C318.571,-0.016 317.941,-0.272 317.536,-0.72C317.131,-1.168 316.928,-1.845 316.928,-2.752L316.928,-6.768L315.856,-6.768C315.675,-6.768 315.533,-6.813 315.432,-6.904C315.331,-6.995 315.28,-7.115 315.28,-7.264C315.28,-7.424 315.331,-7.552 315.432,-7.648C315.533,-7.744 315.675,-7.792 315.856,-7.792L316.928,-7.792L316.928,-9.6C316.928,-9.803 316.987,-9.96 317.104,-10.072C317.221,-10.184 317.381,-10.24 317.584,-10.24C317.776,-10.24 317.931,-10.184 318.048,-10.072C318.165,-9.96 318.224,-9.803 318.224,-9.6L318.224,-7.792L320,-7.792C320.171,-7.792 320.307,-7.744 320.408,-7.648C320.509,-7.552 320.56,-7.424 320.56,-7.264C320.56,-7.115 320.509,-6.995 320.408,-6.904C320.307,-6.813 320.171,-6.768 320,-6.768L318.224,-6.768L318.224,-2.688C318.224,-2.101 318.344,-1.677 318.584,-1.416C318.824,-1.155 319.184,-1.008 319.664,-0.976L320.096,-0.944C320.469,-0.912 320.656,-0.741 320.656,-0.432Z" style="fill-rule:nonzero;"/>
                <path d="M322.12,-0.088C321.997,-0.2 321.936,-0.357 321.936,-0.56L321.936,-7.312C321.936,-7.515 321.997,-7.672 322.12,-7.784C322.243,-7.896 322.4,-7.952 322.592,-7.952C322.784,-7.952 322.939,-7.896 323.056,-7.784C323.173,-7.672 323.232,-7.515 323.232,-7.312L323.232,-0.56C323.232,-0.347 323.173,-0.187 323.056,-0.08C322.939,0.027 322.784,0.08 322.592,0.08C322.4,0.08 322.243,0.024 322.12,-0.088ZM321.968,-9.856C321.808,-10.005 321.728,-10.203 321.728,-10.448C321.728,-10.683 321.808,-10.875 321.968,-11.024C322.128,-11.173 322.336,-11.248 322.592,-11.248C322.848,-11.248 323.056,-11.173 323.216,-11.024C323.376,-10.875 323.456,-10.683 323.456,-10.448C323.456,-10.203 323.376,-10.005 323.216,-9.856C323.056,-9.707 322.848,-9.632 322.592,-9.632C322.336,-9.632 322.128,-9.707 321.968,-9.856Z" style="fill-rule:nonzero;"/>
                <path d="M326.936,-0.384C326.376,-0.715 325.944,-1.187 325.64,-1.8C325.336,-2.413 325.184,-3.125 325.184,-3.936C325.184,-4.747 325.336,-5.459 325.64,-6.072C325.944,-6.685 326.376,-7.157 326.936,-7.488C327.496,-7.819 328.144,-7.984 328.88,-7.984C329.616,-7.984 330.267,-7.819 330.832,-7.488C331.397,-7.157 331.832,-6.685 332.136,-6.072C332.44,-5.459 332.592,-4.747 332.592,-3.936C332.592,-3.125 332.44,-2.413 332.136,-1.8C331.832,-1.187 331.397,-0.715 330.832,-0.384C330.267,-0.053 329.616,0.112 328.88,0.112C328.144,0.112 327.496,-0.053 326.936,-0.384ZM330.648,-1.72C331.059,-2.227 331.264,-2.965 331.264,-3.936C331.264,-4.885 331.056,-5.619 330.64,-6.136C330.224,-6.653 329.637,-6.912 328.88,-6.912C328.123,-6.912 327.536,-6.653 327.12,-6.136C326.704,-5.619 326.496,-4.885 326.496,-3.936C326.496,-2.976 326.701,-2.24 327.112,-1.728C327.523,-1.216 328.112,-0.96 328.88,-0.96C329.648,-0.96 330.237,-1.213 330.648,-1.72Z" style="fill-rule:nonzero;"/>
                <path d="M341.248,-4.896L341.248,-0.56C341.248,-0.357 341.192,-0.2 341.08,-0.088C340.968,0.024 340.811,0.08 340.608,0.08C340.405,0.08 340.245,0.024 340.128,-0.088C340.011,-0.2 339.952,-0.357 339.952,-0.56L339.952,-4.816C339.952,-5.541 339.811,-6.069 339.528,-6.4C339.245,-6.731 338.795,-6.896 338.176,-6.896C337.461,-6.896 336.891,-6.677 336.464,-6.24C336.037,-5.803 335.824,-5.211 335.824,-4.464L335.824,-0.56C335.824,-0.357 335.768,-0.2 335.656,-0.088C335.544,0.024 335.387,0.08 335.184,0.08C334.981,0.08 334.821,0.024 334.704,-0.088C334.587,-0.2 334.528,-0.357 334.528,-0.56L334.528,-7.312C334.528,-7.504 334.587,-7.659 334.704,-7.776C334.821,-7.893 334.981,-7.952 335.184,-7.952C335.376,-7.952 335.528,-7.893 335.64,-7.776C335.752,-7.659 335.808,-7.509 335.808,-7.328L335.808,-6.512C336.064,-6.992 336.421,-7.357 336.88,-7.608C337.339,-7.859 337.861,-7.984 338.448,-7.984C340.315,-7.984 341.248,-6.955 341.248,-4.896Z" style="fill-rule:nonzero;"/>
            </g>
            <g transform="matrix(1,0,0,1,506,802)">
                <path d="M2.488,-0.384C1.928,-0.715 1.496,-1.184 1.192,-1.792C0.888,-2.4 0.736,-3.104 0.736,-3.904C0.736,-4.704 0.893,-5.413 1.208,-6.032C1.523,-6.651 1.963,-7.131 2.528,-7.472C3.093,-7.813 3.744,-7.984 4.48,-7.984C4.885,-7.984 5.288,-7.928 5.688,-7.816C6.088,-7.704 6.437,-7.541 6.736,-7.328C6.928,-7.2 7.064,-7.075 7.144,-6.952C7.224,-6.829 7.264,-6.693 7.264,-6.544C7.264,-6.395 7.224,-6.272 7.144,-6.176C7.064,-6.08 6.96,-6.032 6.832,-6.032C6.757,-6.032 6.677,-6.053 6.592,-6.096C6.507,-6.139 6.435,-6.181 6.376,-6.224C6.317,-6.267 6.277,-6.293 6.256,-6.304C5.979,-6.485 5.715,-6.629 5.464,-6.736C5.213,-6.843 4.907,-6.896 4.544,-6.896C3.765,-6.896 3.16,-6.632 2.728,-6.104C2.296,-5.576 2.08,-4.843 2.08,-3.904C2.08,-2.965 2.296,-2.24 2.728,-1.728C3.16,-1.216 3.765,-0.96 4.544,-0.96C4.907,-0.96 5.219,-1.013 5.48,-1.12C5.741,-1.227 6.005,-1.371 6.272,-1.552C6.389,-1.627 6.501,-1.691 6.608,-1.744C6.715,-1.797 6.805,-1.824 6.88,-1.824C6.997,-1.824 7.096,-1.776 7.176,-1.68C7.256,-1.584 7.296,-1.461 7.296,-1.312C7.296,-1.173 7.259,-1.048 7.184,-0.936C7.109,-0.824 6.971,-0.699 6.768,-0.56C6.469,-0.357 6.109,-0.195 5.688,-0.072C5.267,0.051 4.843,0.112 4.416,0.112C3.691,0.112 3.048,-0.053 2.488,-0.384Z" style="fill-rule:nonzero;"/>
                <path d="M9.048,-0.088C8.925,-0.2 8.864,-0.357 8.864,-0.56L8.864,-10.72C8.864,-10.923 8.925,-11.08 9.048,-11.192C9.171,-11.304 9.328,-11.36 9.52,-11.36C9.701,-11.36 9.853,-11.304 9.976,-11.192C10.099,-11.08 10.16,-10.923 10.16,-10.72L10.16,-0.56C10.16,-0.357 10.099,-0.2 9.976,-0.088C9.853,0.024 9.701,0.08 9.52,0.08C9.328,0.08 9.171,0.024 9.048,-0.088Z" style="fill-rule:nonzero;"/>
                <path d="M12.76,-0.088C12.637,-0.2 12.576,-0.357 12.576,-0.56L12.576,-7.312C12.576,-7.515 12.637,-7.672 12.76,-7.784C12.883,-7.896 13.04,-7.952 13.232,-7.952C13.424,-7.952 13.579,-7.896 13.696,-7.784C13.813,-7.672 13.872,-7.515 13.872,-7.312L13.872,-0.56C13.872,-0.347 13.813,-0.187 13.696,-0.08C13.579,0.027 13.424,0.08 13.232,0.08C13.04,0.08 12.883,0.024 12.76,-0.088ZM12.608,-9.856C12.448,-10.005 12.368,-10.203 12.368,-10.448C12.368,-10.683 12.448,-10.875 12.608,-11.024C12.768,-11.173 12.976,-11.248 13.232,-11.248C13.488,-11.248 13.696,-11.173 13.856,-11.024C14.016,-10.875 14.096,-10.683 14.096,-10.448C14.096,-10.203 14.016,-10.005 13.856,-9.856C13.696,-9.707 13.488,-9.632 13.232,-9.632C12.976,-9.632 12.768,-9.707 12.608,-9.856Z" style="fill-rule:nonzero;"/>
                <path d="M22.624,-1.664C22.709,-1.568 22.752,-1.445 22.752,-1.296C22.752,-1.029 22.565,-0.784 22.192,-0.56C21.808,-0.336 21.403,-0.168 20.976,-0.056C20.549,0.056 20.133,0.112 19.728,0.112C18.523,0.112 17.571,-0.245 16.872,-0.96C16.173,-1.675 15.824,-2.661 15.824,-3.92C15.824,-4.72 15.979,-5.427 16.288,-6.04C16.597,-6.653 17.032,-7.131 17.592,-7.472C18.152,-7.813 18.789,-7.984 19.504,-7.984C20.517,-7.984 21.323,-7.653 21.92,-6.992C22.517,-6.331 22.816,-5.435 22.816,-4.304C22.816,-4.091 22.773,-3.936 22.688,-3.84C22.603,-3.744 22.464,-3.696 22.272,-3.696L17.12,-3.696C17.216,-1.861 18.085,-0.944 19.728,-0.944C20.144,-0.944 20.501,-1 20.8,-1.112C21.099,-1.224 21.419,-1.376 21.76,-1.568C22.037,-1.728 22.224,-1.808 22.32,-1.808C22.437,-1.808 22.539,-1.76 22.624,-1.664ZM17.88,-6.336C17.469,-5.909 17.227,-5.307 17.152,-4.528L21.68,-4.528C21.659,-5.317 21.461,-5.923 21.088,-6.344C20.715,-6.765 20.192,-6.976 19.52,-6.976C18.837,-6.976 18.291,-6.763 17.88,-6.336Z" style="fill-rule:nonzero;"/>
                <path d="M31.44,-4.896L31.44,-0.56C31.44,-0.357 31.384,-0.2 31.272,-0.088C31.16,0.024 31.003,0.08 30.8,0.08C30.597,0.08 30.437,0.024 30.32,-0.088C30.203,-0.2 30.144,-0.357 30.144,-0.56L30.144,-4.816C30.144,-5.541 30.003,-6.069 29.72,-6.4C29.437,-6.731 28.987,-6.896 28.368,-6.896C27.653,-6.896 27.083,-6.677 26.656,-6.24C26.229,-5.803 26.016,-5.211 26.016,-4.464L26.016,-0.56C26.016,-0.357 25.96,-0.2 25.848,-0.088C25.736,0.024 25.579,0.08 25.376,0.08C25.173,0.08 25.013,0.024 24.896,-0.088C24.779,-0.2 24.72,-0.357 24.72,-0.56L24.72,-7.312C24.72,-7.504 24.779,-7.659 24.896,-7.776C25.013,-7.893 25.173,-7.952 25.376,-7.952C25.568,-7.952 25.72,-7.893 25.832,-7.776C25.944,-7.659 26,-7.509 26,-7.328L26,-6.512C26.256,-6.992 26.613,-7.357 27.072,-7.608C27.531,-7.859 28.053,-7.984 28.64,-7.984C30.507,-7.984 31.44,-6.955 31.44,-4.896Z" style="fill-rule:nonzero;"/>
                <path d="M37.968,-0.432C37.968,-0.251 37.901,-0.115 37.768,-0.024C37.635,0.067 37.435,0.101 37.168,0.08L36.736,0.048C35.883,-0.016 35.253,-0.272 34.848,-0.72C34.443,-1.168 34.24,-1.845 34.24,-2.752L34.24,-6.768L33.168,-6.768C32.987,-6.768 32.845,-6.813 32.744,-6.904C32.643,-6.995 32.592,-7.115 32.592,-7.264C32.592,-7.424 32.643,-7.552 32.744,-7.648C32.845,-7.744 32.987,-7.792 33.168,-7.792L34.24,-7.792L34.24,-9.6C34.24,-9.803 34.299,-9.96 34.416,-10.072C34.533,-10.184 34.693,-10.24 34.896,-10.24C35.088,-10.24 35.243,-10.184 35.36,-10.072C35.477,-9.96 35.536,-9.803 35.536,-9.6L35.536,-7.792L37.312,-7.792C37.483,-7.792 37.619,-7.744 37.72,-7.648C37.821,-7.552 37.872,-7.424 37.872,-7.264C37.872,-7.115 37.821,-6.995 37.72,-6.904C37.619,-6.813 37.483,-6.768 37.312,-6.768L35.536,-6.768L35.536,-2.688C35.536,-2.101 35.656,-1.677 35.896,-1.416C36.136,-1.155 36.496,-1.008 36.976,-0.976L37.408,-0.944C37.781,-0.912 37.968,-0.741 37.968,-0.432Z" style="fill-rule:nonzero;"/>
                <path d="M44.6,-0.064C44.157,-0.181 43.765,-0.347 43.424,-0.56C43.232,-0.688 43.096,-0.808 43.016,-0.92C42.936,-1.032 42.896,-1.168 42.896,-1.328C42.896,-1.467 42.936,-1.581 43.016,-1.672C43.096,-1.763 43.2,-1.808 43.328,-1.808C43.456,-1.808 43.643,-1.728 43.888,-1.568C44.208,-1.376 44.525,-1.224 44.84,-1.112C45.155,-1 45.547,-0.944 46.016,-0.944C46.592,-0.944 47.04,-1.045 47.36,-1.248C47.68,-1.451 47.84,-1.744 47.84,-2.128C47.84,-2.363 47.781,-2.552 47.664,-2.696C47.547,-2.84 47.344,-2.968 47.056,-3.08C46.768,-3.192 46.347,-3.307 45.792,-3.424C44.853,-3.627 44.181,-3.899 43.776,-4.24C43.371,-4.581 43.168,-5.045 43.168,-5.632C43.168,-6.091 43.296,-6.496 43.552,-6.848C43.808,-7.2 44.163,-7.477 44.616,-7.68C45.069,-7.883 45.584,-7.984 46.16,-7.984C46.576,-7.984 46.979,-7.928 47.368,-7.816C47.757,-7.704 48.101,-7.547 48.4,-7.344C48.763,-7.088 48.944,-6.821 48.944,-6.544C48.944,-6.405 48.901,-6.288 48.816,-6.192C48.731,-6.096 48.629,-6.048 48.512,-6.048C48.384,-6.048 48.192,-6.139 47.936,-6.32C47.637,-6.512 47.355,-6.661 47.088,-6.768C46.821,-6.875 46.491,-6.928 46.096,-6.928C45.595,-6.928 45.192,-6.816 44.888,-6.592C44.584,-6.368 44.432,-6.069 44.432,-5.696C44.432,-5.461 44.488,-5.272 44.6,-5.128C44.712,-4.984 44.899,-4.856 45.16,-4.744C45.421,-4.632 45.797,-4.523 46.288,-4.416C47.013,-4.256 47.576,-4.08 47.976,-3.888C48.376,-3.696 48.661,-3.461 48.832,-3.184C49.003,-2.907 49.088,-2.555 49.088,-2.128C49.088,-1.456 48.805,-0.915 48.24,-0.504C47.675,-0.093 46.928,0.112 46,0.112C45.509,0.112 45.043,0.053 44.6,-0.064Z" style="fill-rule:nonzero;"/>
                <path d="M52.344,-0.384C51.784,-0.715 51.352,-1.187 51.048,-1.8C50.744,-2.413 50.592,-3.125 50.592,-3.936C50.592,-4.747 50.744,-5.459 51.048,-6.072C51.352,-6.685 51.784,-7.157 52.344,-7.488C52.904,-7.819 53.552,-7.984 54.288,-7.984C55.024,-7.984 55.675,-7.819 56.24,-7.488C56.805,-7.157 57.24,-6.685 57.544,-6.072C57.848,-5.459 58,-4.747 58,-3.936C58,-3.125 57.848,-2.413 57.544,-1.8C57.24,-1.187 56.805,-0.715 56.24,-0.384C55.675,-0.053 55.024,0.112 54.288,0.112C53.552,0.112 52.904,-0.053 52.344,-0.384ZM56.056,-1.72C56.467,-2.227 56.672,-2.965 56.672,-3.936C56.672,-4.885 56.464,-5.619 56.048,-6.136C55.632,-6.653 55.045,-6.912 54.288,-6.912C53.531,-6.912 52.944,-6.653 52.528,-6.136C52.112,-5.619 51.904,-4.885 51.904,-3.936C51.904,-2.976 52.109,-2.24 52.52,-1.728C52.931,-1.216 53.52,-0.96 54.288,-0.96C55.056,-0.96 55.645,-1.213 56.056,-1.72Z" style="fill-rule:nonzero;"/>
                <path d="M62.08,-9.72C61.792,-9.405 61.648,-8.933 61.648,-8.304L61.648,-7.792L63.424,-7.792C63.605,-7.792 63.744,-7.744 63.84,-7.648C63.936,-7.552 63.984,-7.424 63.984,-7.264C63.984,-7.104 63.936,-6.981 63.84,-6.896C63.744,-6.811 63.605,-6.768 63.424,-6.768L61.648,-6.768L61.648,-0.56C61.648,-0.357 61.587,-0.2 61.464,-0.088C61.341,0.024 61.189,0.08 61.008,0.08C60.816,0.08 60.659,0.024 60.536,-0.088C60.413,-0.2 60.352,-0.357 60.352,-0.56L60.352,-6.768L59.28,-6.768C59.099,-6.768 58.957,-6.813 58.856,-6.904C58.755,-6.995 58.704,-7.115 58.704,-7.264C58.704,-7.424 58.755,-7.552 58.856,-7.648C58.957,-7.744 59.099,-7.792 59.28,-7.792L60.352,-7.792L60.352,-8.08C60.352,-9.04 60.592,-9.795 61.072,-10.344C61.552,-10.893 62.24,-11.2 63.136,-11.264L63.552,-11.296C63.829,-11.317 64.029,-11.291 64.152,-11.216C64.275,-11.141 64.336,-11.008 64.336,-10.816C64.336,-10.507 64.149,-10.331 63.776,-10.288L63.36,-10.256C62.795,-10.213 62.368,-10.035 62.08,-9.72Z" style="fill-rule:nonzero;"/>
                <path d="M68.96,-0.432C68.96,-0.251 68.893,-0.115 68.76,-0.024C68.627,0.067 68.427,0.101 68.16,0.08L67.728,0.048C66.875,-0.016 66.245,-0.272 65.84,-0.72C65.435,-1.168 65.232,-1.845 65.232,-2.752L65.232,-6.768L64.16,-6.768C63.979,-6.768 63.837,-6.813 63.736,-6.904C63.635,-6.995 63.584,-7.115 63.584,-7.264C63.584,-7.424 63.635,-7.552 63.736,-7.648C63.837,-7.744 63.979,-7.792 64.16,-7.792L65.232,-7.792L65.232,-9.6C65.232,-9.803 65.291,-9.96 65.408,-10.072C65.525,-10.184 65.685,-10.24 65.888,-10.24C66.08,-10.24 66.235,-10.184 66.352,-10.072C66.469,-9.96 66.528,-9.803 66.528,-9.6L66.528,-7.792L68.304,-7.792C68.475,-7.792 68.611,-7.744 68.712,-7.648C68.813,-7.552 68.864,-7.424 68.864,-7.264C68.864,-7.115 68.813,-6.995 68.712,-6.904C68.611,-6.813 68.475,-6.768 68.304,-6.768L66.528,-6.768L66.528,-2.688C66.528,-2.101 66.648,-1.677 66.888,-1.416C67.128,-1.155 67.488,-1.008 67.968,-0.976L68.4,-0.944C68.773,-0.912 68.96,-0.741 68.96,-0.432Z" style="fill-rule:nonzero;"/>
                <path d="M81.52,-7.92C81.68,-7.92 81.824,-7.867 81.952,-7.76C82.08,-7.653 82.144,-7.52 82.144,-7.36C82.144,-7.285 82.128,-7.205 82.096,-7.12L79.44,-0.4C79.376,-0.261 79.283,-0.152 79.16,-0.072C79.037,0.008 78.901,0.048 78.752,0.048C78.613,0.048 78.483,0.008 78.36,-0.072C78.237,-0.152 78.144,-0.261 78.08,-0.4L75.872,-6.016L73.68,-0.4C73.627,-0.261 73.536,-0.152 73.408,-0.072C73.28,0.008 73.141,0.048 72.992,0.048C72.853,0.048 72.72,0.008 72.592,-0.072C72.464,-0.152 72.368,-0.261 72.304,-0.4L69.648,-7.104C69.616,-7.189 69.6,-7.264 69.6,-7.328C69.6,-7.499 69.672,-7.643 69.816,-7.76C69.96,-7.877 70.117,-7.936 70.288,-7.936C70.544,-7.936 70.725,-7.808 70.832,-7.552L73.024,-1.648L75.28,-7.504C75.344,-7.643 75.432,-7.749 75.544,-7.824C75.656,-7.899 75.776,-7.936 75.904,-7.936C76.043,-7.936 76.168,-7.899 76.28,-7.824C76.392,-7.749 76.475,-7.643 76.528,-7.504L78.784,-1.664L80.992,-7.536C81.099,-7.792 81.275,-7.92 81.52,-7.92Z" style="fill-rule:nonzero;"/>
                <path d="M89.776,-4.912L89.776,-0.56C89.776,-0.368 89.72,-0.213 89.608,-0.096C89.496,0.021 89.344,0.08 89.152,0.08C88.96,0.08 88.805,0.021 88.688,-0.096C88.571,-0.213 88.512,-0.368 88.512,-0.56L88.512,-1.328C88.309,-0.869 88,-0.515 87.584,-0.264C87.168,-0.013 86.688,0.112 86.144,0.112C85.643,0.112 85.181,0.011 84.76,-0.192C84.339,-0.395 84.005,-0.677 83.76,-1.04C83.515,-1.403 83.392,-1.803 83.392,-2.24C83.392,-2.827 83.541,-3.283 83.84,-3.608C84.139,-3.933 84.629,-4.168 85.312,-4.312C85.995,-4.456 86.944,-4.528 88.16,-4.528L88.512,-4.528L88.512,-5.056C88.512,-5.696 88.381,-6.165 88.12,-6.464C87.859,-6.763 87.435,-6.912 86.848,-6.912C86.123,-6.912 85.387,-6.715 84.64,-6.32C84.352,-6.139 84.149,-6.048 84.032,-6.048C83.904,-6.048 83.797,-6.096 83.712,-6.192C83.627,-6.288 83.584,-6.411 83.584,-6.56C83.584,-6.709 83.629,-6.84 83.72,-6.952C83.811,-7.064 83.957,-7.179 84.16,-7.296C84.533,-7.509 84.957,-7.677 85.432,-7.8C85.907,-7.923 86.379,-7.984 86.848,-7.984C88.8,-7.984 89.776,-6.96 89.776,-4.912ZM87.896,-1.56C88.307,-1.992 88.512,-2.549 88.512,-3.232L88.512,-3.696L88.224,-3.696C87.285,-3.696 86.571,-3.656 86.08,-3.576C85.589,-3.496 85.24,-3.363 85.032,-3.176C84.824,-2.989 84.72,-2.715 84.72,-2.352C84.72,-1.936 84.872,-1.592 85.176,-1.32C85.48,-1.048 85.861,-0.912 86.32,-0.912C86.96,-0.912 87.485,-1.128 87.896,-1.56Z" style="fill-rule:nonzero;"/>
                <path d="M96.672,-7.408C96.672,-7.237 96.624,-7.101 96.528,-7C96.432,-6.899 96.267,-6.837 96.032,-6.816L95.552,-6.768C94.837,-6.704 94.307,-6.451 93.96,-6.008C93.613,-5.565 93.44,-5.045 93.44,-4.448L93.44,-0.56C93.44,-0.347 93.381,-0.187 93.264,-0.08C93.147,0.027 92.992,0.08 92.8,0.08C92.608,0.08 92.451,0.024 92.328,-0.088C92.205,-0.2 92.144,-0.357 92.144,-0.56L92.144,-7.312C92.144,-7.515 92.208,-7.672 92.336,-7.784C92.464,-7.896 92.619,-7.952 92.8,-7.952C92.971,-7.952 93.115,-7.896 93.232,-7.784C93.349,-7.672 93.408,-7.52 93.408,-7.328L93.408,-6.432C93.632,-6.901 93.949,-7.259 94.36,-7.504C94.771,-7.749 95.243,-7.893 95.776,-7.936L96,-7.952C96.448,-7.984 96.672,-7.803 96.672,-7.408Z" style="fill-rule:nonzero;"/>
                <path d="M103.968,-1.664C104.053,-1.568 104.096,-1.445 104.096,-1.296C104.096,-1.029 103.909,-0.784 103.536,-0.56C103.152,-0.336 102.747,-0.168 102.32,-0.056C101.893,0.056 101.477,0.112 101.072,0.112C99.867,0.112 98.915,-0.245 98.216,-0.96C97.517,-1.675 97.168,-2.661 97.168,-3.92C97.168,-4.72 97.323,-5.427 97.632,-6.04C97.941,-6.653 98.376,-7.131 98.936,-7.472C99.496,-7.813 100.133,-7.984 100.848,-7.984C101.861,-7.984 102.667,-7.653 103.264,-6.992C103.861,-6.331 104.16,-5.435 104.16,-4.304C104.16,-4.091 104.117,-3.936 104.032,-3.84C103.947,-3.744 103.808,-3.696 103.616,-3.696L98.464,-3.696C98.56,-1.861 99.429,-0.944 101.072,-0.944C101.488,-0.944 101.845,-1 102.144,-1.112C102.443,-1.224 102.763,-1.376 103.104,-1.568C103.381,-1.728 103.568,-1.808 103.664,-1.808C103.781,-1.808 103.883,-1.76 103.968,-1.664ZM99.224,-6.336C98.813,-5.909 98.571,-5.307 98.496,-4.528L103.024,-4.528C103.003,-5.317 102.805,-5.923 102.432,-6.344C102.059,-6.765 101.536,-6.976 100.864,-6.976C100.181,-6.976 99.635,-6.763 99.224,-6.336Z" style="fill-rule:nonzero;"/>
                <path d="M106.064,-0.168C105.893,-0.333 105.808,-0.549 105.808,-0.816C105.808,-1.083 105.893,-1.301 106.064,-1.472C106.235,-1.643 106.448,-1.728 106.704,-1.728C106.949,-1.728 107.155,-1.643 107.32,-1.472C107.485,-1.301 107.568,-1.083 107.568,-0.816C107.568,-0.549 107.485,-0.333 107.32,-0.168C107.155,-0.003 106.949,0.08 106.704,0.08C106.448,0.08 106.235,-0.003 106.064,-0.168Z" style="fill-rule:nonzero;"/>
            </g>
        </g>
    </g>
</svg>
