<?xml version="1.0" encoding="UTF-8" standalone="no"?>
<!DOCTYPE svg PUBLIC "-//W3C//DTD SVG 1.1//EN" "http://www.w3.org/Graphics/SVG/1.1/DTD/svg11.dtd">
<svg width="100%" height="100%" viewBox="0 0 63 49" version="1.1" xmlns="http://www.w3.org/2000/svg" xmlns:xlink="http://www.w3.org/1999/xlink" xml:space="preserve" xmlns:serif="http://www.serif.com/" style="fill-rule:evenodd;clip-rule:evenodd;stroke-linejoin:round;stroke-miterlimit:1.41421;">
    <g transform="matrix(1,0,0,1,-898,-177)">
        <g id="SonicWall-TZ500-Wire">
            <g transform="matrix(1,0,0,1,898.14,187)">
                <path d="M2.359,-0.203C1.72,-0.413 1.209,-0.695 0.826,-1.05C0.686,-1.181 0.616,-1.344 0.616,-1.54C0.616,-1.671 0.653,-1.785 0.728,-1.883C0.803,-1.981 0.891,-2.03 0.994,-2.03C1.115,-2.03 1.246,-1.979 1.386,-1.876C2.254,-1.204 3.243,-0.868 4.354,-0.868C5.157,-0.868 5.773,-1.022 6.202,-1.33C6.631,-1.638 6.846,-2.077 6.846,-2.646C6.846,-2.973 6.743,-3.236 6.538,-3.437C6.333,-3.638 6.062,-3.799 5.726,-3.92C5.39,-4.041 4.937,-4.167 4.368,-4.298C3.603,-4.475 2.975,-4.662 2.485,-4.858C1.995,-5.054 1.598,-5.334 1.295,-5.698C0.992,-6.062 0.84,-6.538 0.84,-7.126C0.84,-7.686 0.992,-8.183 1.295,-8.617C1.598,-9.051 2.023,-9.387 2.569,-9.625C3.115,-9.863 3.738,-9.982 4.438,-9.982C5.091,-9.982 5.7,-9.882 6.265,-9.681C6.83,-9.48 7.303,-9.193 7.686,-8.82C7.835,-8.671 7.91,-8.507 7.91,-8.33C7.91,-8.199 7.873,-8.085 7.798,-7.987C7.723,-7.889 7.635,-7.84 7.532,-7.84C7.429,-7.84 7.294,-7.891 7.126,-7.994C6.669,-8.367 6.244,-8.629 5.852,-8.778C5.46,-8.927 4.989,-9.002 4.438,-9.002C3.663,-9.002 3.061,-8.841 2.632,-8.519C2.203,-8.197 1.988,-7.747 1.988,-7.168C1.988,-6.673 2.177,-6.302 2.555,-6.055C2.933,-5.808 3.514,-5.591 4.298,-5.404C5.147,-5.199 5.815,-5.01 6.3,-4.837C6.785,-4.664 7.189,-4.405 7.511,-4.06C7.833,-3.715 7.994,-3.253 7.994,-2.674C7.994,-2.123 7.842,-1.638 7.539,-1.218C7.236,-0.798 6.809,-0.471 6.258,-0.238C5.707,-0.005 5.077,0.112 4.368,0.112C3.668,0.112 2.998,0.007 2.359,-0.203Z" style="fill-rule:nonzero;"/>
                <path d="M10.815,-0.336C10.325,-0.625 9.947,-1.038 9.681,-1.575C9.415,-2.112 9.282,-2.735 9.282,-3.444C9.282,-4.153 9.415,-4.776 9.681,-5.313C9.947,-5.85 10.325,-6.263 10.815,-6.552C11.305,-6.841 11.872,-6.986 12.516,-6.986C13.16,-6.986 13.729,-6.841 14.224,-6.552C14.719,-6.263 15.099,-5.85 15.365,-5.313C15.631,-4.776 15.764,-4.153 15.764,-3.444C15.764,-2.735 15.631,-2.112 15.365,-1.575C15.099,-1.038 14.719,-0.625 14.224,-0.336C13.729,-0.047 13.16,0.098 12.516,0.098C11.872,0.098 11.305,-0.047 10.815,-0.336ZM14.063,-1.505C14.422,-1.948 14.602,-2.595 14.602,-3.444C14.602,-4.275 14.42,-4.916 14.056,-5.369C13.692,-5.822 13.179,-6.048 12.516,-6.048C11.853,-6.048 11.34,-5.822 10.976,-5.369C10.612,-4.916 10.43,-4.275 10.43,-3.444C10.43,-2.604 10.61,-1.96 10.969,-1.512C11.328,-1.064 11.844,-0.84 12.516,-0.84C13.188,-0.84 13.704,-1.062 14.063,-1.505Z" style="fill-rule:nonzero;"/>
                <path d="M23.338,-4.284L23.338,-0.49C23.338,-0.313 23.289,-0.175 23.191,-0.077C23.093,0.021 22.955,0.07 22.778,0.07C22.601,0.07 22.461,0.021 22.358,-0.077C22.255,-0.175 22.204,-0.313 22.204,-0.49L22.204,-4.214C22.204,-4.849 22.08,-5.311 21.833,-5.6C21.586,-5.889 21.191,-6.034 20.65,-6.034C20.025,-6.034 19.525,-5.843 19.152,-5.46C18.779,-5.077 18.592,-4.559 18.592,-3.906L18.592,-0.49C18.592,-0.313 18.543,-0.175 18.445,-0.077C18.347,0.021 18.209,0.07 18.032,0.07C17.855,0.07 17.715,0.021 17.612,-0.077C17.509,-0.175 17.458,-0.313 17.458,-0.49L17.458,-6.398C17.458,-6.566 17.509,-6.701 17.612,-6.804C17.715,-6.907 17.855,-6.958 18.032,-6.958C18.2,-6.958 18.333,-6.907 18.431,-6.804C18.529,-6.701 18.578,-6.571 18.578,-6.412L18.578,-5.698C18.802,-6.118 19.115,-6.438 19.516,-6.657C19.917,-6.876 20.375,-6.986 20.888,-6.986C22.521,-6.986 23.338,-6.085 23.338,-4.284Z" style="fill-rule:nonzero;"/>
                <path d="M25.571,-0.077C25.464,-0.175 25.41,-0.313 25.41,-0.49L25.41,-6.398C25.41,-6.575 25.464,-6.713 25.571,-6.811C25.678,-6.909 25.816,-6.958 25.984,-6.958C26.152,-6.958 26.287,-6.909 26.39,-6.811C26.493,-6.713 26.544,-6.575 26.544,-6.398L26.544,-0.49C26.544,-0.303 26.493,-0.163 26.39,-0.07C26.287,0.023 26.152,0.07 25.984,0.07C25.816,0.07 25.678,0.021 25.571,-0.077ZM25.438,-8.624C25.298,-8.755 25.228,-8.927 25.228,-9.142C25.228,-9.347 25.298,-9.515 25.438,-9.646C25.578,-9.777 25.76,-9.842 25.984,-9.842C26.208,-9.842 26.39,-9.777 26.53,-9.646C26.67,-9.515 26.74,-9.347 26.74,-9.142C26.74,-8.927 26.67,-8.755 26.53,-8.624C26.39,-8.493 26.208,-8.428 25.984,-8.428C25.76,-8.428 25.578,-8.493 25.438,-8.624Z" style="fill-rule:nonzero;"/>
                <path d="M29.785,-0.336C29.295,-0.625 28.917,-1.036 28.651,-1.568C28.385,-2.1 28.252,-2.716 28.252,-3.416C28.252,-4.116 28.39,-4.737 28.665,-5.278C28.94,-5.819 29.325,-6.239 29.82,-6.538C30.315,-6.837 30.884,-6.986 31.528,-6.986C31.883,-6.986 32.235,-6.937 32.585,-6.839C32.935,-6.741 33.241,-6.599 33.502,-6.412C33.67,-6.3 33.789,-6.19 33.859,-6.083C33.929,-5.976 33.964,-5.857 33.964,-5.726C33.964,-5.595 33.929,-5.488 33.859,-5.404C33.789,-5.32 33.698,-5.278 33.586,-5.278C33.521,-5.278 33.451,-5.297 33.376,-5.334C33.301,-5.371 33.238,-5.409 33.187,-5.446C33.136,-5.483 33.101,-5.507 33.082,-5.516C32.839,-5.675 32.608,-5.801 32.389,-5.894C32.17,-5.987 31.901,-6.034 31.584,-6.034C30.903,-6.034 30.373,-5.803 29.995,-5.341C29.617,-4.879 29.428,-4.237 29.428,-3.416C29.428,-2.595 29.617,-1.96 29.995,-1.512C30.373,-1.064 30.903,-0.84 31.584,-0.84C31.901,-0.84 32.174,-0.887 32.403,-0.98C32.632,-1.073 32.863,-1.199 33.096,-1.358C33.199,-1.423 33.297,-1.479 33.39,-1.526C33.483,-1.573 33.563,-1.596 33.628,-1.596C33.731,-1.596 33.817,-1.554 33.887,-1.47C33.957,-1.386 33.992,-1.279 33.992,-1.148C33.992,-1.027 33.959,-0.917 33.894,-0.819C33.829,-0.721 33.707,-0.611 33.53,-0.49C33.269,-0.313 32.954,-0.17 32.585,-0.063C32.216,0.044 31.845,0.098 31.472,0.098C30.837,0.098 30.275,-0.047 29.785,-0.336Z" style="fill-rule:nonzero;"/>
                <path d="M48.342,-9.863C48.435,-9.924 48.538,-9.954 48.65,-9.954C48.799,-9.954 48.928,-9.91 49.035,-9.821C49.142,-9.732 49.196,-9.613 49.196,-9.464C49.196,-9.399 49.182,-9.324 49.154,-9.24L45.99,-0.322C45.943,-0.191 45.864,-0.091 45.752,-0.021C45.64,0.049 45.514,0.084 45.374,0.084C45.243,0.084 45.122,0.049 45.01,-0.021C44.898,-0.091 44.819,-0.191 44.772,-0.322L42.028,-8.078L39.256,-0.322C39.209,-0.191 39.13,-0.091 39.018,-0.021C38.906,0.049 38.785,0.084 38.654,0.084C38.523,0.084 38.402,0.049 38.29,-0.021C38.178,-0.091 38.099,-0.191 38.052,-0.322L34.874,-9.24C34.846,-9.315 34.832,-9.385 34.832,-9.45C34.832,-9.599 34.89,-9.721 35.007,-9.814C35.124,-9.907 35.257,-9.954 35.406,-9.954C35.518,-9.954 35.623,-9.924 35.721,-9.863C35.819,-9.802 35.887,-9.711 35.924,-9.59L38.682,-1.638L41.482,-9.506C41.529,-9.646 41.603,-9.751 41.706,-9.821C41.809,-9.891 41.921,-9.926 42.042,-9.926C42.163,-9.926 42.275,-9.889 42.378,-9.814C42.481,-9.739 42.555,-9.632 42.602,-9.492L45.36,-1.61L48.146,-9.59C48.183,-9.711 48.249,-9.802 48.342,-9.863Z" style="fill-rule:nonzero;"/>
                <path d="M55.342,-4.298L55.342,-0.49C55.342,-0.322 55.293,-0.187 55.195,-0.084C55.097,0.019 54.964,0.07 54.796,0.07C54.628,0.07 54.493,0.019 54.39,-0.084C54.287,-0.187 54.236,-0.322 54.236,-0.49L54.236,-1.162C54.059,-0.761 53.788,-0.45 53.424,-0.231C53.06,-0.012 52.64,0.098 52.164,0.098C51.725,0.098 51.322,0.009 50.953,-0.168C50.584,-0.345 50.293,-0.593 50.078,-0.91C49.863,-1.227 49.756,-1.577 49.756,-1.96C49.756,-2.473 49.887,-2.872 50.148,-3.157C50.409,-3.442 50.839,-3.647 51.436,-3.773C52.033,-3.899 52.864,-3.962 53.928,-3.962L54.236,-3.962L54.236,-4.424C54.236,-4.984 54.122,-5.395 53.893,-5.656C53.664,-5.917 53.293,-6.048 52.78,-6.048C52.145,-6.048 51.501,-5.875 50.848,-5.53C50.596,-5.371 50.419,-5.292 50.316,-5.292C50.204,-5.292 50.111,-5.334 50.036,-5.418C49.961,-5.502 49.924,-5.609 49.924,-5.74C49.924,-5.871 49.964,-5.985 50.043,-6.083C50.122,-6.181 50.251,-6.281 50.428,-6.384C50.755,-6.571 51.126,-6.718 51.541,-6.825C51.956,-6.932 52.369,-6.986 52.78,-6.986C54.488,-6.986 55.342,-6.09 55.342,-4.298ZM53.697,-1.365C54.056,-1.743 54.236,-2.231 54.236,-2.828L54.236,-3.234L53.984,-3.234C53.163,-3.234 52.537,-3.199 52.108,-3.129C51.679,-3.059 51.373,-2.942 51.191,-2.779C51.009,-2.616 50.918,-2.375 50.918,-2.058C50.918,-1.694 51.051,-1.393 51.317,-1.155C51.583,-0.917 51.917,-0.798 52.318,-0.798C52.878,-0.798 53.338,-0.987 53.697,-1.365Z" style="fill-rule:nonzero;"/>
                <path d="M57.575,-0.077C57.468,-0.175 57.414,-0.313 57.414,-0.49L57.414,-9.38C57.414,-9.557 57.468,-9.695 57.575,-9.793C57.682,-9.891 57.82,-9.94 57.988,-9.94C58.147,-9.94 58.28,-9.891 58.387,-9.793C58.494,-9.695 58.548,-9.557 58.548,-9.38L58.548,-0.49C58.548,-0.313 58.494,-0.175 58.387,-0.077C58.28,0.021 58.147,0.07 57.988,0.07C57.82,0.07 57.682,0.021 57.575,-0.077Z" style="fill-rule:nonzero;"/>
                <path d="M60.823,-0.077C60.716,-0.175 60.662,-0.313 60.662,-0.49L60.662,-9.38C60.662,-9.557 60.716,-9.695 60.823,-9.793C60.93,-9.891 61.068,-9.94 61.236,-9.94C61.395,-9.94 61.528,-9.891 61.635,-9.793C61.742,-9.695 61.796,-9.557 61.796,-9.38L61.796,-0.49C61.796,-0.313 61.742,-0.175 61.635,-0.077C61.528,0.021 61.395,0.07 61.236,0.07C61.068,0.07 60.93,0.021 60.823,-0.077Z" style="fill-rule:nonzero;"/>
            </g>
            <g transform="matrix(1,0,0,1,919.224,206)">
                <path d="M3.759,-0.091C3.652,-0.198 3.598,-0.341 3.598,-0.518L3.598,-8.89L0.588,-8.89C0.42,-8.89 0.289,-8.932 0.196,-9.016C0.103,-9.1 0.056,-9.221 0.056,-9.38C0.056,-9.539 0.103,-9.66 0.196,-9.744C0.289,-9.828 0.42,-9.87 0.588,-9.87L7.77,-9.87C7.938,-9.87 8.069,-9.828 8.162,-9.744C8.255,-9.66 8.302,-9.539 8.302,-9.38C8.302,-9.221 8.255,-9.1 8.162,-9.016C8.069,-8.932 7.938,-8.89 7.77,-8.89L4.76,-8.89L4.76,-0.518C4.76,-0.341 4.709,-0.198 4.606,-0.091C4.503,0.016 4.363,0.07 4.186,0.07C4.009,0.07 3.866,0.016 3.759,-0.091Z" style="fill-rule:nonzero;"/>
                <path d="M16.03,-0.84C16.123,-0.756 16.17,-0.639 16.17,-0.49C16.17,-0.331 16.123,-0.21 16.03,-0.126C15.937,-0.042 15.806,0 15.638,0L9.38,0C9.212,0 9.079,-0.047 8.981,-0.14C8.883,-0.233 8.834,-0.35 8.834,-0.49C8.834,-0.63 8.885,-0.775 8.988,-0.924L14.588,-8.904L9.38,-8.904C9.212,-8.904 9.081,-8.946 8.988,-9.03C8.895,-9.114 8.848,-9.231 8.848,-9.38C8.848,-9.539 8.895,-9.66 8.988,-9.744C9.081,-9.828 9.212,-9.87 9.38,-9.87L15.484,-9.87C15.652,-9.87 15.785,-9.823 15.883,-9.73C15.981,-9.637 16.03,-9.52 16.03,-9.38C16.03,-9.249 15.979,-9.109 15.876,-8.96L10.262,-0.966L15.638,-0.966C15.806,-0.966 15.937,-0.924 16.03,-0.84Z" style="fill-rule:nonzero;"/>
                <path d="M22.799,-5.796C23.27,-5.535 23.634,-5.168 23.891,-4.697C24.148,-4.226 24.276,-3.682 24.276,-3.066C24.276,-2.45 24.136,-1.902 23.856,-1.421C23.576,-0.94 23.186,-0.567 22.687,-0.301C22.188,-0.035 21.611,0.098 20.958,0.098C20.379,0.098 19.815,-0.005 19.264,-0.21C18.713,-0.415 18.247,-0.695 17.864,-1.05C17.715,-1.19 17.64,-1.349 17.64,-1.526C17.64,-1.666 17.677,-1.783 17.752,-1.876C17.827,-1.969 17.915,-2.016 18.018,-2.016C18.149,-2.016 18.279,-1.965 18.41,-1.862C18.821,-1.526 19.231,-1.276 19.642,-1.113C20.053,-0.95 20.482,-0.868 20.93,-0.868C21.621,-0.868 22.162,-1.064 22.554,-1.456C22.946,-1.848 23.142,-2.38 23.142,-3.052C23.142,-3.705 22.946,-4.233 22.554,-4.634C22.162,-5.035 21.635,-5.236 20.972,-5.236C20.123,-5.236 19.432,-4.909 18.9,-4.256C18.769,-4.116 18.611,-4.046 18.424,-4.046C18.293,-4.046 18.184,-4.086 18.095,-4.165C18.006,-4.244 17.962,-4.354 17.962,-4.494L17.962,-9.324C17.962,-9.483 18.011,-9.613 18.109,-9.716C18.207,-9.819 18.345,-9.87 18.522,-9.87L23.45,-9.87C23.618,-9.87 23.751,-9.828 23.849,-9.744C23.947,-9.66 23.996,-9.543 23.996,-9.394C23.996,-9.245 23.947,-9.128 23.849,-9.044C23.751,-8.96 23.618,-8.918 23.45,-8.918L19.096,-8.918L19.096,-5.404C19.357,-5.656 19.663,-5.85 20.013,-5.985C20.363,-6.12 20.743,-6.188 21.154,-6.188C21.779,-6.188 22.328,-6.057 22.799,-5.796Z" style="fill-rule:nonzero;"/>
                <path d="M26.6,-1.176C26.012,-2.035 25.718,-3.285 25.718,-4.928C25.718,-6.58 26.012,-7.835 26.6,-8.694C27.188,-9.553 28.047,-9.982 29.176,-9.982C30.305,-9.982 31.164,-9.555 31.752,-8.701C32.34,-7.847 32.634,-6.594 32.634,-4.942C32.634,-3.29 32.34,-2.035 31.752,-1.176C31.164,-0.317 30.305,0.112 29.176,0.112C28.047,0.112 27.188,-0.317 26.6,-1.176ZM30.912,-1.848C31.285,-2.511 31.472,-3.542 31.472,-4.942C31.472,-6.351 31.288,-7.383 30.919,-8.036C30.55,-8.689 29.969,-9.016 29.176,-9.016C28.392,-9.016 27.813,-8.687 27.44,-8.029C27.067,-7.371 26.88,-6.342 26.88,-4.942C26.88,-3.542 27.067,-2.511 27.44,-1.848C27.813,-1.185 28.392,-0.854 29.176,-0.854C29.96,-0.854 30.539,-1.185 30.912,-1.848Z" style="fill-rule:nonzero;"/>
                <path d="M35,-1.176C34.412,-2.035 34.118,-3.285 34.118,-4.928C34.118,-6.58 34.412,-7.835 35,-8.694C35.588,-9.553 36.447,-9.982 37.576,-9.982C38.705,-9.982 39.564,-9.555 40.152,-8.701C40.74,-7.847 41.034,-6.594 41.034,-4.942C41.034,-3.29 40.74,-2.035 40.152,-1.176C39.564,-0.317 38.705,0.112 37.576,0.112C36.447,0.112 35.588,-0.317 35,-1.176ZM39.312,-1.848C39.685,-2.511 39.872,-3.542 39.872,-4.942C39.872,-6.351 39.688,-7.383 39.319,-8.036C38.95,-8.689 38.369,-9.016 37.576,-9.016C36.792,-9.016 36.213,-8.687 35.84,-8.029C35.467,-7.371 35.28,-6.342 35.28,-4.942C35.28,-3.542 35.467,-2.511 35.84,-1.848C36.213,-1.185 36.792,-0.854 37.576,-0.854C38.36,-0.854 38.939,-1.185 39.312,-1.848Z" style="fill-rule:nonzero;"/>
            </g>
            <g transform="matrix(1,0,0,1,906.092,225)">
                <path d="M14.028,-9.863C14.121,-9.924 14.224,-9.954 14.336,-9.954C14.485,-9.954 14.614,-9.91 14.721,-9.821C14.828,-9.732 14.882,-9.613 14.882,-9.464C14.882,-9.399 14.868,-9.324 14.84,-9.24L11.676,-0.322C11.629,-0.191 11.55,-0.091 11.438,-0.021C11.326,0.049 11.2,0.084 11.06,0.084C10.929,0.084 10.808,0.049 10.696,-0.021C10.584,-0.091 10.505,-0.191 10.458,-0.322L7.714,-8.078L4.942,-0.322C4.895,-0.191 4.816,-0.091 4.704,-0.021C4.592,0.049 4.471,0.084 4.34,0.084C4.209,0.084 4.088,0.049 3.976,-0.021C3.864,-0.091 3.785,-0.191 3.738,-0.322L0.56,-9.24C0.532,-9.315 0.518,-9.385 0.518,-9.45C0.518,-9.599 0.576,-9.721 0.693,-9.814C0.81,-9.907 0.943,-9.954 1.092,-9.954C1.204,-9.954 1.309,-9.924 1.407,-9.863C1.505,-9.802 1.573,-9.711 1.61,-9.59L4.368,-1.638L7.168,-9.506C7.215,-9.646 7.289,-9.751 7.392,-9.821C7.495,-9.891 7.607,-9.926 7.728,-9.926C7.849,-9.926 7.961,-9.889 8.064,-9.814C8.167,-9.739 8.241,-9.632 8.288,-9.492L11.046,-1.61L13.832,-9.59C13.869,-9.711 13.935,-9.802 14.028,-9.863Z" style="fill-rule:nonzero;"/>
                <path d="M16.625,-0.077C16.518,-0.175 16.464,-0.313 16.464,-0.49L16.464,-6.398C16.464,-6.575 16.518,-6.713 16.625,-6.811C16.732,-6.909 16.87,-6.958 17.038,-6.958C17.206,-6.958 17.341,-6.909 17.444,-6.811C17.547,-6.713 17.598,-6.575 17.598,-6.398L17.598,-0.49C17.598,-0.303 17.547,-0.163 17.444,-0.07C17.341,0.023 17.206,0.07 17.038,0.07C16.87,0.07 16.732,0.021 16.625,-0.077ZM16.492,-8.624C16.352,-8.755 16.282,-8.927 16.282,-9.142C16.282,-9.347 16.352,-9.515 16.492,-9.646C16.632,-9.777 16.814,-9.842 17.038,-9.842C17.262,-9.842 17.444,-9.777 17.584,-9.646C17.724,-9.515 17.794,-9.347 17.794,-9.142C17.794,-8.927 17.724,-8.755 17.584,-8.624C17.444,-8.493 17.262,-8.428 17.038,-8.428C16.814,-8.428 16.632,-8.493 16.492,-8.624Z" style="fill-rule:nonzero;"/>
                <path d="M23.674,-6.482C23.674,-6.333 23.632,-6.214 23.548,-6.125C23.464,-6.036 23.319,-5.983 23.114,-5.964L22.694,-5.922C22.069,-5.866 21.604,-5.644 21.301,-5.257C20.998,-4.87 20.846,-4.415 20.846,-3.892L20.846,-0.49C20.846,-0.303 20.795,-0.163 20.692,-0.07C20.589,0.023 20.454,0.07 20.286,0.07C20.118,0.07 19.98,0.021 19.873,-0.077C19.766,-0.175 19.712,-0.313 19.712,-0.49L19.712,-6.398C19.712,-6.575 19.768,-6.713 19.88,-6.811C19.992,-6.909 20.127,-6.958 20.286,-6.958C20.435,-6.958 20.561,-6.909 20.664,-6.811C20.767,-6.713 20.818,-6.58 20.818,-6.412L20.818,-5.628C21.014,-6.039 21.292,-6.351 21.651,-6.566C22.01,-6.781 22.423,-6.907 22.89,-6.944L23.086,-6.958C23.478,-6.986 23.674,-6.827 23.674,-6.482Z" style="fill-rule:nonzero;"/>
                <path d="M30.058,-1.456C30.133,-1.372 30.17,-1.265 30.17,-1.134C30.17,-0.901 30.007,-0.686 29.68,-0.49C29.344,-0.294 28.989,-0.147 28.616,-0.049C28.243,0.049 27.879,0.098 27.524,0.098C26.469,0.098 25.636,-0.215 25.025,-0.84C24.414,-1.465 24.108,-2.329 24.108,-3.43C24.108,-4.13 24.243,-4.748 24.514,-5.285C24.785,-5.822 25.165,-6.239 25.655,-6.538C26.145,-6.837 26.703,-6.986 27.328,-6.986C28.215,-6.986 28.919,-6.697 29.442,-6.118C29.965,-5.539 30.226,-4.755 30.226,-3.766C30.226,-3.579 30.189,-3.444 30.114,-3.36C30.039,-3.276 29.918,-3.234 29.75,-3.234L25.242,-3.234C25.326,-1.629 26.087,-0.826 27.524,-0.826C27.888,-0.826 28.201,-0.875 28.462,-0.973C28.723,-1.071 29.003,-1.204 29.302,-1.372C29.545,-1.512 29.708,-1.582 29.792,-1.582C29.895,-1.582 29.983,-1.54 30.058,-1.456ZM25.907,-5.544C25.548,-5.171 25.335,-4.643 25.27,-3.962L29.232,-3.962C29.213,-4.653 29.041,-5.182 28.714,-5.551C28.387,-5.92 27.93,-6.104 27.342,-6.104C26.745,-6.104 26.266,-5.917 25.907,-5.544Z" style="fill-rule:nonzero;"/>
                <path d="M32.053,-0.077C31.946,-0.175 31.892,-0.313 31.892,-0.49L31.892,-9.38C31.892,-9.557 31.946,-9.695 32.053,-9.793C32.16,-9.891 32.298,-9.94 32.466,-9.94C32.625,-9.94 32.758,-9.891 32.865,-9.793C32.972,-9.695 33.026,-9.557 33.026,-9.38L33.026,-0.49C33.026,-0.313 32.972,-0.175 32.865,-0.077C32.758,0.021 32.625,0.07 32.466,0.07C32.298,0.07 32.16,0.021 32.053,-0.077Z" style="fill-rule:nonzero;"/>
                <path d="M40.684,-1.456C40.759,-1.372 40.796,-1.265 40.796,-1.134C40.796,-0.901 40.633,-0.686 40.306,-0.49C39.97,-0.294 39.615,-0.147 39.242,-0.049C38.869,0.049 38.505,0.098 38.15,0.098C37.095,0.098 36.262,-0.215 35.651,-0.84C35.04,-1.465 34.734,-2.329 34.734,-3.43C34.734,-4.13 34.869,-4.748 35.14,-5.285C35.411,-5.822 35.791,-6.239 36.281,-6.538C36.771,-6.837 37.329,-6.986 37.954,-6.986C38.841,-6.986 39.545,-6.697 40.068,-6.118C40.591,-5.539 40.852,-4.755 40.852,-3.766C40.852,-3.579 40.815,-3.444 40.74,-3.36C40.665,-3.276 40.544,-3.234 40.376,-3.234L35.868,-3.234C35.952,-1.629 36.713,-0.826 38.15,-0.826C38.514,-0.826 38.827,-0.875 39.088,-0.973C39.349,-1.071 39.629,-1.204 39.928,-1.372C40.171,-1.512 40.334,-1.582 40.418,-1.582C40.521,-1.582 40.609,-1.54 40.684,-1.456ZM36.533,-5.544C36.174,-5.171 35.961,-4.643 35.896,-3.962L39.858,-3.962C39.839,-4.653 39.667,-5.182 39.34,-5.551C39.013,-5.92 38.556,-6.104 37.968,-6.104C37.371,-6.104 36.892,-5.917 36.533,-5.544Z" style="fill-rule:nonzero;"/>
                <path d="M43.589,-0.056C43.202,-0.159 42.859,-0.303 42.56,-0.49C42.392,-0.602 42.273,-0.707 42.203,-0.805C42.133,-0.903 42.098,-1.022 42.098,-1.162C42.098,-1.283 42.133,-1.384 42.203,-1.463C42.273,-1.542 42.364,-1.582 42.476,-1.582C42.588,-1.582 42.751,-1.512 42.966,-1.372C43.246,-1.204 43.524,-1.071 43.799,-0.973C44.074,-0.875 44.417,-0.826 44.828,-0.826C45.332,-0.826 45.724,-0.915 46.004,-1.092C46.284,-1.269 46.424,-1.526 46.424,-1.862C46.424,-2.067 46.373,-2.233 46.27,-2.359C46.167,-2.485 45.99,-2.597 45.738,-2.695C45.486,-2.793 45.117,-2.893 44.632,-2.996C43.811,-3.173 43.223,-3.411 42.868,-3.71C42.513,-4.009 42.336,-4.415 42.336,-4.928C42.336,-5.329 42.448,-5.684 42.672,-5.992C42.896,-6.3 43.206,-6.543 43.603,-6.72C44,-6.897 44.45,-6.986 44.954,-6.986C45.318,-6.986 45.67,-6.937 46.011,-6.839C46.352,-6.741 46.653,-6.603 46.914,-6.426C47.231,-6.202 47.39,-5.969 47.39,-5.726C47.39,-5.605 47.353,-5.502 47.278,-5.418C47.203,-5.334 47.115,-5.292 47.012,-5.292C46.9,-5.292 46.732,-5.371 46.508,-5.53C46.247,-5.698 45.999,-5.829 45.766,-5.922C45.533,-6.015 45.243,-6.062 44.898,-6.062C44.459,-6.062 44.107,-5.964 43.841,-5.768C43.575,-5.572 43.442,-5.311 43.442,-4.984C43.442,-4.779 43.491,-4.613 43.589,-4.487C43.687,-4.361 43.85,-4.249 44.079,-4.151C44.308,-4.053 44.637,-3.957 45.066,-3.864C45.701,-3.724 46.193,-3.57 46.543,-3.402C46.893,-3.234 47.143,-3.029 47.292,-2.786C47.441,-2.543 47.516,-2.235 47.516,-1.862C47.516,-1.274 47.269,-0.8 46.774,-0.441C46.279,-0.082 45.626,0.098 44.814,0.098C44.385,0.098 43.976,0.047 43.589,-0.056Z" style="fill-rule:nonzero;"/>
                <path d="M50.309,-0.056C49.922,-0.159 49.579,-0.303 49.28,-0.49C49.112,-0.602 48.993,-0.707 48.923,-0.805C48.853,-0.903 48.818,-1.022 48.818,-1.162C48.818,-1.283 48.853,-1.384 48.923,-1.463C48.993,-1.542 49.084,-1.582 49.196,-1.582C49.308,-1.582 49.471,-1.512 49.686,-1.372C49.966,-1.204 50.244,-1.071 50.519,-0.973C50.794,-0.875 51.137,-0.826 51.548,-0.826C52.052,-0.826 52.444,-0.915 52.724,-1.092C53.004,-1.269 53.144,-1.526 53.144,-1.862C53.144,-2.067 53.093,-2.233 52.99,-2.359C52.887,-2.485 52.71,-2.597 52.458,-2.695C52.206,-2.793 51.837,-2.893 51.352,-2.996C50.531,-3.173 49.943,-3.411 49.588,-3.71C49.233,-4.009 49.056,-4.415 49.056,-4.928C49.056,-5.329 49.168,-5.684 49.392,-5.992C49.616,-6.3 49.926,-6.543 50.323,-6.72C50.72,-6.897 51.17,-6.986 51.674,-6.986C52.038,-6.986 52.39,-6.937 52.731,-6.839C53.072,-6.741 53.373,-6.603 53.634,-6.426C53.951,-6.202 54.11,-5.969 54.11,-5.726C54.11,-5.605 54.073,-5.502 53.998,-5.418C53.923,-5.334 53.835,-5.292 53.732,-5.292C53.62,-5.292 53.452,-5.371 53.228,-5.53C52.967,-5.698 52.719,-5.829 52.486,-5.922C52.253,-6.015 51.963,-6.062 51.618,-6.062C51.179,-6.062 50.827,-5.964 50.561,-5.768C50.295,-5.572 50.162,-5.311 50.162,-4.984C50.162,-4.779 50.211,-4.613 50.309,-4.487C50.407,-4.361 50.57,-4.249 50.799,-4.151C51.028,-4.053 51.357,-3.957 51.786,-3.864C52.421,-3.724 52.913,-3.57 53.263,-3.402C53.613,-3.234 53.863,-3.029 54.012,-2.786C54.161,-2.543 54.236,-2.235 54.236,-1.862C54.236,-1.274 53.989,-0.8 53.494,-0.441C52.999,-0.082 52.346,0.098 51.534,0.098C51.105,0.098 50.696,0.047 50.309,-0.056Z" style="fill-rule:nonzero;"/>
            </g>
        </g>
    </g>
</svg>
