<?xml version="1.0" encoding="UTF-8"?>
<svg width="348px" height="270px" viewBox="0 0 348 270" version="1.1" xmlns="http://www.w3.org/2000/svg" xmlns:xlink="http://www.w3.org/1999/xlink">
    <!-- Generator: Sketch 50 (54983) - http://www.bohemiancoding.com/sketch -->
    <title>TZ_Product Copy 2</title>
    <desc>Created with Sketch.</desc>
    <defs></defs>
    <g id="Page-2" stroke="none" stroke-width="1" fill="none" fill-rule="evenodd">
        <g id="TZ_Product-Copy-2">
            <path d="M327.306393,197.524658 L20.7492255,197.524658 L20.7492255,176.943207 C20.7492255,170.937003 25.6194,166.040407 31.6019425,166.040407 L316.460806,166.040407 C322.436218,166.040407 327.306393,170.937003 327.306393,176.943207 L327.306393,197.524658 Z M129.804057,207.704423 C129.804057,204.232421 132.606368,201.404709 136.086083,201.404709 C139.544406,201.404709 142.360979,204.232421 142.360979,207.704423 C142.360979,211.183583 139.544406,214.004136 136.086083,214.004136 C132.606368,214.004136 129.804057,211.183583 129.804057,207.704423 Z M112.212958,207.704423 C112.212958,204.232421 115.0224,201.404709 118.487853,201.404709 C121.953307,201.404709 124.762749,204.232421 124.762749,207.704423 C124.762749,211.183583 121.953307,214.004136 118.487853,214.004136 C115.0224,214.004136 112.212958,211.183583 112.212958,207.704423 Z M327.306393,238.465638 C327.306393,244.471842 322.436218,249.368438 316.460806,249.368438 L31.6019425,249.368438 C25.6194,249.368438 20.7492255,244.471842 20.7492255,238.465638 L20.7492255,217.884187 L327.306393,217.884187 L327.306393,238.465638 Z M316.460806,145.680878 L297.907081,145.680878 L297.907081,83.5929049 C297.907081,79.834553 295.853479,76.5844734 292.837251,74.8234171 L292.837251,30.8184855 C292.837251,28.0050907 290.576863,25.7286032 287.767421,25.7286032 C284.97224,25.7286032 282.69759,28.0050907 282.69759,30.8184855 L282.69759,74.8234171 C279.674232,76.5844734 277.62776,79.834553 277.62776,83.5929049 L277.62776,145.680878 L184.16747,145.680878 L184.16747,58.3654152 C184.16747,54.6070633 182.120998,51.3569838 179.09764,49.5959275 L179.09764,5.5838371 C179.09764,2.77760102 176.82299,0.49395482 174.027809,0.49395482 C171.225498,0.49395482 168.957979,2.77760102 168.957979,5.5838371 L168.957979,49.5959275 C165.941751,51.3569838 163.888149,54.6070633 163.888149,58.3654152 L163.888149,145.680878 L70.4421195,145.680878 L70.4421195,83.5929049 C70.4421195,79.834553 68.3813868,76.5844734 65.3722892,74.8234171 L65.3722892,30.8184855 C65.3722892,28.0050907 63.090509,25.7286032 60.2953283,25.7286032 C57.4858864,25.7286032 55.2254979,28.0050907 55.2254979,30.8184855 L55.2254979,74.8234171 C52.2021392,76.5844734 50.1556676,79.834553 50.1556676,83.5929049 L50.1556676,145.680878 L31.6019425,145.680878 C14.4386772,145.680878 0.469904106,159.712059 0.469904106,176.943207 L0.469904106,238.465638 C0.469904106,255.703945 14.4386772,269.727967 31.6019425,269.727967 L316.460806,269.727967 C333.616941,269.727967 347.585714,255.703945 347.585714,238.465638 L347.585714,176.943207 C347.585714,159.712059 333.616941,145.680878 316.460806,145.680878 Z" id="Fill-10" fill="#636569"></path>
            <path d="M219.965036,179.443048 C223.430489,179.443048 226.239931,182.263602 226.239931,185.742762 C226.239931,189.221922 223.430489,192.042475 219.965036,192.042475 C216.506713,192.042475 213.69014,189.221922 213.69014,185.742762 C213.69014,182.263602 216.506713,179.443048 219.965036,179.443048 Z M237.554709,179.443048 C241.020162,179.443048 243.829604,182.263602 243.829604,185.742762 C243.829604,189.221922 241.020162,192.042475 237.554709,192.042475 C234.096386,192.042475 231.279813,189.221922 231.279813,185.742762 C231.279813,182.263602 234.096386,179.443048 237.554709,179.443048 Z M255.144382,179.443048 C258.609835,179.443048 261.426408,182.263602 261.426408,185.742762 C261.426408,189.221922 258.609835,192.042475 255.144382,192.042475 C251.686059,192.042475 248.869486,189.221922 248.869486,185.742762 C248.869486,182.263602 251.686059,179.443048 255.144382,179.443048 Z M272.741185,179.443048 C276.199508,179.443048 279.016081,182.263602 279.016081,185.742762 C279.016081,189.221922 276.199508,192.042475 272.741185,192.042475 C269.275731,192.042475 266.459159,189.221922 266.459159,185.742762 C266.459159,182.263602 269.275731,179.443048 272.741185,179.443048 Z M290.330858,179.443048 C293.789181,179.443048 296.605754,182.263602 296.605754,185.742762 C296.605754,189.221922 293.789181,192.042475 290.330858,192.042475 C286.865404,192.042475 284.048832,189.221922 284.048832,185.742762 C284.048832,182.263602 286.865404,179.443048 290.330858,179.443048 Z" id="Combined-Shape" fill="#646566"></path>
        </g>
    </g>
</svg>