<?xml version="1.0" encoding="UTF-8" standalone="no"?>
<!DOCTYPE svg PUBLIC "-//W3C//DTD SVG 1.1//EN" "http://www.w3.org/Graphics/SVG/1.1/DTD/svg11.dtd">
<svg width="100%" height="100%" viewBox="0 0 352 57" version="1.1" xmlns="http://www.w3.org/2000/svg" xmlns:xlink="http://www.w3.org/1999/xlink" xml:space="preserve" xmlns:serif="http://www.serif.com/" style="fill-rule:evenodd;clip-rule:evenodd;stroke-linejoin:round;stroke-miterlimit:1.41421;">
    <g transform="matrix(1,0,0,1,-49,-866)">
        <g id="Visualization-shows">
            <g transform="matrix(1,0,0,1,49,878)">
                <path d="M9.896,-11.296C9.997,-11.36 10.107,-11.392 10.224,-11.392C10.395,-11.392 10.547,-11.336 10.68,-11.224C10.813,-11.112 10.88,-10.976 10.88,-10.816C10.88,-10.731 10.859,-10.645 10.816,-10.56L6.224,-0.352C6.16,-0.213 6.064,-0.107 5.936,-0.032C5.808,0.043 5.669,0.08 5.52,0.08C5.371,0.08 5.232,0.043 5.104,-0.032C4.976,-0.107 4.88,-0.213 4.816,-0.352L0.24,-10.56C0.208,-10.645 0.192,-10.725 0.192,-10.8C0.192,-10.971 0.261,-11.112 0.4,-11.224C0.539,-11.336 0.693,-11.392 0.864,-11.392C1.12,-11.392 1.307,-11.269 1.424,-11.024L5.552,-1.696L9.664,-11.024C9.717,-11.141 9.795,-11.232 9.896,-11.296Z" style="fill-rule:nonzero;"/>
                <path d="M12.44,-0.088C12.317,-0.2 12.256,-0.357 12.256,-0.56L12.256,-7.312C12.256,-7.515 12.317,-7.672 12.44,-7.784C12.563,-7.896 12.72,-7.952 12.912,-7.952C13.104,-7.952 13.259,-7.896 13.376,-7.784C13.493,-7.672 13.552,-7.515 13.552,-7.312L13.552,-0.56C13.552,-0.347 13.493,-0.187 13.376,-0.08C13.259,0.027 13.104,0.08 12.912,0.08C12.72,0.08 12.563,0.024 12.44,-0.088ZM12.288,-9.856C12.128,-10.005 12.048,-10.203 12.048,-10.448C12.048,-10.683 12.128,-10.875 12.288,-11.024C12.448,-11.173 12.656,-11.248 12.912,-11.248C13.168,-11.248 13.376,-11.173 13.536,-11.024C13.696,-10.875 13.776,-10.683 13.776,-10.448C13.776,-10.203 13.696,-10.005 13.536,-9.856C13.376,-9.707 13.168,-9.632 12.912,-9.632C12.656,-9.632 12.448,-9.707 12.288,-9.856Z" style="fill-rule:nonzero;"/>
                <path d="M17.192,-0.064C16.749,-0.181 16.357,-0.347 16.016,-0.56C15.824,-0.688 15.688,-0.808 15.608,-0.92C15.528,-1.032 15.488,-1.168 15.488,-1.328C15.488,-1.467 15.528,-1.581 15.608,-1.672C15.688,-1.763 15.792,-1.808 15.92,-1.808C16.048,-1.808 16.235,-1.728 16.48,-1.568C16.8,-1.376 17.117,-1.224 17.432,-1.112C17.747,-1 18.139,-0.944 18.608,-0.944C19.184,-0.944 19.632,-1.045 19.952,-1.248C20.272,-1.451 20.432,-1.744 20.432,-2.128C20.432,-2.363 20.373,-2.552 20.256,-2.696C20.139,-2.84 19.936,-2.968 19.648,-3.08C19.36,-3.192 18.939,-3.307 18.384,-3.424C17.445,-3.627 16.773,-3.899 16.368,-4.24C15.963,-4.581 15.76,-5.045 15.76,-5.632C15.76,-6.091 15.888,-6.496 16.144,-6.848C16.4,-7.2 16.755,-7.477 17.208,-7.68C17.661,-7.883 18.176,-7.984 18.752,-7.984C19.168,-7.984 19.571,-7.928 19.96,-7.816C20.349,-7.704 20.693,-7.547 20.992,-7.344C21.355,-7.088 21.536,-6.821 21.536,-6.544C21.536,-6.405 21.493,-6.288 21.408,-6.192C21.323,-6.096 21.221,-6.048 21.104,-6.048C20.976,-6.048 20.784,-6.139 20.528,-6.32C20.229,-6.512 19.947,-6.661 19.68,-6.768C19.413,-6.875 19.083,-6.928 18.688,-6.928C18.187,-6.928 17.784,-6.816 17.48,-6.592C17.176,-6.368 17.024,-6.069 17.024,-5.696C17.024,-5.461 17.08,-5.272 17.192,-5.128C17.304,-4.984 17.491,-4.856 17.752,-4.744C18.013,-4.632 18.389,-4.523 18.88,-4.416C19.605,-4.256 20.168,-4.08 20.568,-3.888C20.968,-3.696 21.253,-3.461 21.424,-3.184C21.595,-2.907 21.68,-2.555 21.68,-2.128C21.68,-1.456 21.397,-0.915 20.832,-0.504C20.267,-0.093 19.52,0.112 18.592,0.112C18.101,0.112 17.635,0.053 17.192,-0.064Z" style="fill-rule:nonzero;"/>
                <path d="M30.04,-7.776C30.152,-7.659 30.208,-7.504 30.208,-7.312L30.208,-0.544C30.208,-0.363 30.152,-0.213 30.04,-0.096C29.928,0.021 29.771,0.08 29.568,0.08C29.376,0.08 29.224,0.024 29.112,-0.088C29,-0.2 28.944,-0.347 28.944,-0.528L28.944,-1.328C28.699,-0.859 28.355,-0.501 27.912,-0.256C27.469,-0.011 26.971,0.112 26.416,0.112C25.488,0.112 24.789,-0.147 24.32,-0.664C23.851,-1.181 23.616,-1.947 23.616,-2.96L23.616,-7.312C23.616,-7.504 23.675,-7.659 23.792,-7.776C23.909,-7.893 24.069,-7.952 24.272,-7.952C24.475,-7.952 24.632,-7.893 24.744,-7.776C24.856,-7.659 24.912,-7.504 24.912,-7.312L24.912,-2.992C24.912,-2.299 25.051,-1.789 25.328,-1.464C25.605,-1.139 26.043,-0.976 26.64,-0.976C27.323,-0.976 27.872,-1.197 28.288,-1.64C28.704,-2.083 28.912,-2.667 28.912,-3.392L28.912,-7.312C28.912,-7.504 28.971,-7.659 29.088,-7.776C29.205,-7.893 29.365,-7.952 29.568,-7.952C29.771,-7.952 29.928,-7.893 30.04,-7.776Z" style="fill-rule:nonzero;"/>
                <path d="M38.736,-4.912L38.736,-0.56C38.736,-0.368 38.68,-0.213 38.568,-0.096C38.456,0.021 38.304,0.08 38.112,0.08C37.92,0.08 37.765,0.021 37.648,-0.096C37.531,-0.213 37.472,-0.368 37.472,-0.56L37.472,-1.328C37.269,-0.869 36.96,-0.515 36.544,-0.264C36.128,-0.013 35.648,0.112 35.104,0.112C34.603,0.112 34.141,0.011 33.72,-0.192C33.299,-0.395 32.965,-0.677 32.72,-1.04C32.475,-1.403 32.352,-1.803 32.352,-2.24C32.352,-2.827 32.501,-3.283 32.8,-3.608C33.099,-3.933 33.589,-4.168 34.272,-4.312C34.955,-4.456 35.904,-4.528 37.12,-4.528L37.472,-4.528L37.472,-5.056C37.472,-5.696 37.341,-6.165 37.08,-6.464C36.819,-6.763 36.395,-6.912 35.808,-6.912C35.083,-6.912 34.347,-6.715 33.6,-6.32C33.312,-6.139 33.109,-6.048 32.992,-6.048C32.864,-6.048 32.757,-6.096 32.672,-6.192C32.587,-6.288 32.544,-6.411 32.544,-6.56C32.544,-6.709 32.589,-6.84 32.68,-6.952C32.771,-7.064 32.917,-7.179 33.12,-7.296C33.493,-7.509 33.917,-7.677 34.392,-7.8C34.867,-7.923 35.339,-7.984 35.808,-7.984C37.76,-7.984 38.736,-6.96 38.736,-4.912ZM36.856,-1.56C37.267,-1.992 37.472,-2.549 37.472,-3.232L37.472,-3.696L37.184,-3.696C36.245,-3.696 35.531,-3.656 35.04,-3.576C34.549,-3.496 34.2,-3.363 33.992,-3.176C33.784,-2.989 33.68,-2.715 33.68,-2.352C33.68,-1.936 33.832,-1.592 34.136,-1.32C34.44,-1.048 34.821,-0.912 35.28,-0.912C35.92,-0.912 36.445,-1.128 36.856,-1.56Z" style="fill-rule:nonzero;"/>
                <path d="M41.288,-0.088C41.165,-0.2 41.104,-0.357 41.104,-0.56L41.104,-10.72C41.104,-10.923 41.165,-11.08 41.288,-11.192C41.411,-11.304 41.568,-11.36 41.76,-11.36C41.941,-11.36 42.093,-11.304 42.216,-11.192C42.339,-11.08 42.4,-10.923 42.4,-10.72L42.4,-0.56C42.4,-0.357 42.339,-0.2 42.216,-0.088C42.093,0.024 41.941,0.08 41.76,0.08C41.568,0.08 41.411,0.024 41.288,-0.088Z" style="fill-rule:nonzero;"/>
                <path d="M45,-0.088C44.877,-0.2 44.816,-0.357 44.816,-0.56L44.816,-7.312C44.816,-7.515 44.877,-7.672 45,-7.784C45.123,-7.896 45.28,-7.952 45.472,-7.952C45.664,-7.952 45.819,-7.896 45.936,-7.784C46.053,-7.672 46.112,-7.515 46.112,-7.312L46.112,-0.56C46.112,-0.347 46.053,-0.187 45.936,-0.08C45.819,0.027 45.664,0.08 45.472,0.08C45.28,0.08 45.123,0.024 45,-0.088ZM44.848,-9.856C44.688,-10.005 44.608,-10.203 44.608,-10.448C44.608,-10.683 44.688,-10.875 44.848,-11.024C45.008,-11.173 45.216,-11.248 45.472,-11.248C45.728,-11.248 45.936,-11.173 46.096,-11.024C46.256,-10.875 46.336,-10.683 46.336,-10.448C46.336,-10.203 46.256,-10.005 46.096,-9.856C45.936,-9.707 45.728,-9.632 45.472,-9.632C45.216,-9.632 45.008,-9.707 44.848,-9.856Z" style="fill-rule:nonzero;"/>
                <path d="M54.672,-0.888C54.768,-0.797 54.816,-0.672 54.816,-0.512C54.816,-0.352 54.768,-0.227 54.672,-0.136C54.576,-0.045 54.437,0 54.256,0L48.656,0C48.475,0 48.325,-0.056 48.208,-0.168C48.091,-0.28 48.032,-0.416 48.032,-0.576C48.032,-0.747 48.096,-0.912 48.224,-1.072L52.96,-6.768L48.576,-6.768C48.395,-6.768 48.253,-6.813 48.152,-6.904C48.051,-6.995 48,-7.115 48,-7.264C48,-7.424 48.051,-7.552 48.152,-7.648C48.253,-7.744 48.395,-7.792 48.576,-7.792L54,-7.792C54.192,-7.792 54.347,-7.736 54.464,-7.624C54.581,-7.512 54.64,-7.376 54.64,-7.216C54.64,-7.045 54.576,-6.88 54.448,-6.72L49.696,-1.024L54.256,-1.024C54.437,-1.024 54.576,-0.979 54.672,-0.888Z" style="fill-rule:nonzero;"/>
                <path d="M62.608,-4.912L62.608,-0.56C62.608,-0.368 62.552,-0.213 62.44,-0.096C62.328,0.021 62.176,0.08 61.984,0.08C61.792,0.08 61.637,0.021 61.52,-0.096C61.403,-0.213 61.344,-0.368 61.344,-0.56L61.344,-1.328C61.141,-0.869 60.832,-0.515 60.416,-0.264C60,-0.013 59.52,0.112 58.976,0.112C58.475,0.112 58.013,0.011 57.592,-0.192C57.171,-0.395 56.837,-0.677 56.592,-1.04C56.347,-1.403 56.224,-1.803 56.224,-2.24C56.224,-2.827 56.373,-3.283 56.672,-3.608C56.971,-3.933 57.461,-4.168 58.144,-4.312C58.827,-4.456 59.776,-4.528 60.992,-4.528L61.344,-4.528L61.344,-5.056C61.344,-5.696 61.213,-6.165 60.952,-6.464C60.691,-6.763 60.267,-6.912 59.68,-6.912C58.955,-6.912 58.219,-6.715 57.472,-6.32C57.184,-6.139 56.981,-6.048 56.864,-6.048C56.736,-6.048 56.629,-6.096 56.544,-6.192C56.459,-6.288 56.416,-6.411 56.416,-6.56C56.416,-6.709 56.461,-6.84 56.552,-6.952C56.643,-7.064 56.789,-7.179 56.992,-7.296C57.365,-7.509 57.789,-7.677 58.264,-7.8C58.739,-7.923 59.211,-7.984 59.68,-7.984C61.632,-7.984 62.608,-6.96 62.608,-4.912ZM60.728,-1.56C61.139,-1.992 61.344,-2.549 61.344,-3.232L61.344,-3.696L61.056,-3.696C60.117,-3.696 59.403,-3.656 58.912,-3.576C58.421,-3.496 58.072,-3.363 57.864,-3.176C57.656,-2.989 57.552,-2.715 57.552,-2.352C57.552,-1.936 57.704,-1.592 58.008,-1.32C58.312,-1.048 58.693,-0.912 59.152,-0.912C59.792,-0.912 60.317,-1.128 60.728,-1.56Z" style="fill-rule:nonzero;"/>
                <path d="M69.136,-0.432C69.136,-0.251 69.069,-0.115 68.936,-0.024C68.803,0.067 68.603,0.101 68.336,0.08L67.904,0.048C67.051,-0.016 66.421,-0.272 66.016,-0.72C65.611,-1.168 65.408,-1.845 65.408,-2.752L65.408,-6.768L64.336,-6.768C64.155,-6.768 64.013,-6.813 63.912,-6.904C63.811,-6.995 63.76,-7.115 63.76,-7.264C63.76,-7.424 63.811,-7.552 63.912,-7.648C64.013,-7.744 64.155,-7.792 64.336,-7.792L65.408,-7.792L65.408,-9.6C65.408,-9.803 65.467,-9.96 65.584,-10.072C65.701,-10.184 65.861,-10.24 66.064,-10.24C66.256,-10.24 66.411,-10.184 66.528,-10.072C66.645,-9.96 66.704,-9.803 66.704,-9.6L66.704,-7.792L68.48,-7.792C68.651,-7.792 68.787,-7.744 68.888,-7.648C68.989,-7.552 69.04,-7.424 69.04,-7.264C69.04,-7.115 68.989,-6.995 68.888,-6.904C68.787,-6.813 68.651,-6.768 68.48,-6.768L66.704,-6.768L66.704,-2.688C66.704,-2.101 66.824,-1.677 67.064,-1.416C67.304,-1.155 67.664,-1.008 68.144,-0.976L68.576,-0.944C68.949,-0.912 69.136,-0.741 69.136,-0.432Z" style="fill-rule:nonzero;"/>
                <path d="M70.6,-0.088C70.477,-0.2 70.416,-0.357 70.416,-0.56L70.416,-7.312C70.416,-7.515 70.477,-7.672 70.6,-7.784C70.723,-7.896 70.88,-7.952 71.072,-7.952C71.264,-7.952 71.419,-7.896 71.536,-7.784C71.653,-7.672 71.712,-7.515 71.712,-7.312L71.712,-0.56C71.712,-0.347 71.653,-0.187 71.536,-0.08C71.419,0.027 71.264,0.08 71.072,0.08C70.88,0.08 70.723,0.024 70.6,-0.088ZM70.448,-9.856C70.288,-10.005 70.208,-10.203 70.208,-10.448C70.208,-10.683 70.288,-10.875 70.448,-11.024C70.608,-11.173 70.816,-11.248 71.072,-11.248C71.328,-11.248 71.536,-11.173 71.696,-11.024C71.856,-10.875 71.936,-10.683 71.936,-10.448C71.936,-10.203 71.856,-10.005 71.696,-9.856C71.536,-9.707 71.328,-9.632 71.072,-9.632C70.816,-9.632 70.608,-9.707 70.448,-9.856Z" style="fill-rule:nonzero;"/>
                <path d="M75.416,-0.384C74.856,-0.715 74.424,-1.187 74.12,-1.8C73.816,-2.413 73.664,-3.125 73.664,-3.936C73.664,-4.747 73.816,-5.459 74.12,-6.072C74.424,-6.685 74.856,-7.157 75.416,-7.488C75.976,-7.819 76.624,-7.984 77.36,-7.984C78.096,-7.984 78.747,-7.819 79.312,-7.488C79.877,-7.157 80.312,-6.685 80.616,-6.072C80.92,-5.459 81.072,-4.747 81.072,-3.936C81.072,-3.125 80.92,-2.413 80.616,-1.8C80.312,-1.187 79.877,-0.715 79.312,-0.384C78.747,-0.053 78.096,0.112 77.36,0.112C76.624,0.112 75.976,-0.053 75.416,-0.384ZM79.128,-1.72C79.539,-2.227 79.744,-2.965 79.744,-3.936C79.744,-4.885 79.536,-5.619 79.12,-6.136C78.704,-6.653 78.117,-6.912 77.36,-6.912C76.603,-6.912 76.016,-6.653 75.6,-6.136C75.184,-5.619 74.976,-4.885 74.976,-3.936C74.976,-2.976 75.181,-2.24 75.592,-1.728C76.003,-1.216 76.592,-0.96 77.36,-0.96C78.128,-0.96 78.717,-1.213 79.128,-1.72Z" style="fill-rule:nonzero;"/>
                <path d="M89.728,-4.896L89.728,-0.56C89.728,-0.357 89.672,-0.2 89.56,-0.088C89.448,0.024 89.291,0.08 89.088,0.08C88.885,0.08 88.725,0.024 88.608,-0.088C88.491,-0.2 88.432,-0.357 88.432,-0.56L88.432,-4.816C88.432,-5.541 88.291,-6.069 88.008,-6.4C87.725,-6.731 87.275,-6.896 86.656,-6.896C85.941,-6.896 85.371,-6.677 84.944,-6.24C84.517,-5.803 84.304,-5.211 84.304,-4.464L84.304,-0.56C84.304,-0.357 84.248,-0.2 84.136,-0.088C84.024,0.024 83.867,0.08 83.664,0.08C83.461,0.08 83.301,0.024 83.184,-0.088C83.067,-0.2 83.008,-0.357 83.008,-0.56L83.008,-7.312C83.008,-7.504 83.067,-7.659 83.184,-7.776C83.301,-7.893 83.461,-7.952 83.664,-7.952C83.856,-7.952 84.008,-7.893 84.12,-7.776C84.232,-7.659 84.288,-7.509 84.288,-7.328L84.288,-6.512C84.544,-6.992 84.901,-7.357 85.36,-7.608C85.819,-7.859 86.341,-7.984 86.928,-7.984C88.795,-7.984 89.728,-6.955 89.728,-4.896Z" style="fill-rule:nonzero;"/>
                <path d="M97.448,-0.064C97.005,-0.181 96.613,-0.347 96.272,-0.56C96.08,-0.688 95.944,-0.808 95.864,-0.92C95.784,-1.032 95.744,-1.168 95.744,-1.328C95.744,-1.467 95.784,-1.581 95.864,-1.672C95.944,-1.763 96.048,-1.808 96.176,-1.808C96.304,-1.808 96.491,-1.728 96.736,-1.568C97.056,-1.376 97.373,-1.224 97.688,-1.112C98.003,-1 98.395,-0.944 98.864,-0.944C99.44,-0.944 99.888,-1.045 100.208,-1.248C100.528,-1.451 100.688,-1.744 100.688,-2.128C100.688,-2.363 100.629,-2.552 100.512,-2.696C100.395,-2.84 100.192,-2.968 99.904,-3.08C99.616,-3.192 99.195,-3.307 98.64,-3.424C97.701,-3.627 97.029,-3.899 96.624,-4.24C96.219,-4.581 96.016,-5.045 96.016,-5.632C96.016,-6.091 96.144,-6.496 96.4,-6.848C96.656,-7.2 97.011,-7.477 97.464,-7.68C97.917,-7.883 98.432,-7.984 99.008,-7.984C99.424,-7.984 99.827,-7.928 100.216,-7.816C100.605,-7.704 100.949,-7.547 101.248,-7.344C101.611,-7.088 101.792,-6.821 101.792,-6.544C101.792,-6.405 101.749,-6.288 101.664,-6.192C101.579,-6.096 101.477,-6.048 101.36,-6.048C101.232,-6.048 101.04,-6.139 100.784,-6.32C100.485,-6.512 100.203,-6.661 99.936,-6.768C99.669,-6.875 99.339,-6.928 98.944,-6.928C98.443,-6.928 98.04,-6.816 97.736,-6.592C97.432,-6.368 97.28,-6.069 97.28,-5.696C97.28,-5.461 97.336,-5.272 97.448,-5.128C97.56,-4.984 97.747,-4.856 98.008,-4.744C98.269,-4.632 98.645,-4.523 99.136,-4.416C99.861,-4.256 100.424,-4.08 100.824,-3.888C101.224,-3.696 101.509,-3.461 101.68,-3.184C101.851,-2.907 101.936,-2.555 101.936,-2.128C101.936,-1.456 101.653,-0.915 101.088,-0.504C100.523,-0.093 99.776,0.112 98.848,0.112C98.357,0.112 97.891,0.053 97.448,-0.064Z" style="fill-rule:nonzero;"/>
                <path d="M109.92,-7.208C110.389,-6.691 110.624,-5.92 110.624,-4.896L110.624,-0.56C110.624,-0.357 110.565,-0.2 110.448,-0.088C110.331,0.024 110.176,0.08 109.984,0.08C109.781,0.08 109.621,0.024 109.504,-0.088C109.387,-0.2 109.328,-0.357 109.328,-0.56L109.328,-4.864C109.328,-5.557 109.187,-6.069 108.904,-6.4C108.621,-6.731 108.171,-6.896 107.552,-6.896C106.837,-6.896 106.267,-6.677 105.84,-6.24C105.413,-5.803 105.2,-5.211 105.2,-4.464L105.2,-0.56C105.2,-0.357 105.144,-0.2 105.032,-0.088C104.92,0.024 104.763,0.08 104.56,0.08C104.357,0.08 104.197,0.024 104.08,-0.088C103.963,-0.2 103.904,-0.357 103.904,-0.56L103.904,-10.736C103.904,-10.917 103.965,-11.067 104.088,-11.184C104.211,-11.301 104.368,-11.36 104.56,-11.36C104.763,-11.36 104.92,-11.304 105.032,-11.192C105.144,-11.08 105.2,-10.928 105.2,-10.736L105.2,-6.544C105.456,-7.013 105.813,-7.371 106.272,-7.616C106.731,-7.861 107.253,-7.984 107.84,-7.984C108.757,-7.984 109.451,-7.725 109.92,-7.208Z" style="fill-rule:nonzero;"/>
                <path d="M114.28,-0.384C113.72,-0.715 113.288,-1.187 112.984,-1.8C112.68,-2.413 112.528,-3.125 112.528,-3.936C112.528,-4.747 112.68,-5.459 112.984,-6.072C113.288,-6.685 113.72,-7.157 114.28,-7.488C114.84,-7.819 115.488,-7.984 116.224,-7.984C116.96,-7.984 117.611,-7.819 118.176,-7.488C118.741,-7.157 119.176,-6.685 119.48,-6.072C119.784,-5.459 119.936,-4.747 119.936,-3.936C119.936,-3.125 119.784,-2.413 119.48,-1.8C119.176,-1.187 118.741,-0.715 118.176,-0.384C117.611,-0.053 116.96,0.112 116.224,0.112C115.488,0.112 114.84,-0.053 114.28,-0.384ZM117.992,-1.72C118.403,-2.227 118.608,-2.965 118.608,-3.936C118.608,-4.885 118.4,-5.619 117.984,-6.136C117.568,-6.653 116.981,-6.912 116.224,-6.912C115.467,-6.912 114.88,-6.653 114.464,-6.136C114.048,-5.619 113.84,-4.885 113.84,-3.936C113.84,-2.976 114.045,-2.24 114.456,-1.728C114.867,-1.216 115.456,-0.96 116.224,-0.96C116.992,-0.96 117.581,-1.213 117.992,-1.72Z" style="fill-rule:nonzero;"/>
                <path d="M132.96,-7.92C133.12,-7.92 133.264,-7.867 133.392,-7.76C133.52,-7.653 133.584,-7.52 133.584,-7.36C133.584,-7.285 133.568,-7.205 133.536,-7.12L130.88,-0.4C130.816,-0.261 130.723,-0.152 130.6,-0.072C130.477,0.008 130.341,0.048 130.192,0.048C130.053,0.048 129.923,0.008 129.8,-0.072C129.677,-0.152 129.584,-0.261 129.52,-0.4L127.312,-6.016L125.12,-0.4C125.067,-0.261 124.976,-0.152 124.848,-0.072C124.72,0.008 124.581,0.048 124.432,0.048C124.293,0.048 124.16,0.008 124.032,-0.072C123.904,-0.152 123.808,-0.261 123.744,-0.4L121.088,-7.104C121.056,-7.189 121.04,-7.264 121.04,-7.328C121.04,-7.499 121.112,-7.643 121.256,-7.76C121.4,-7.877 121.557,-7.936 121.728,-7.936C121.984,-7.936 122.165,-7.808 122.272,-7.552L124.464,-1.648L126.72,-7.504C126.784,-7.643 126.872,-7.749 126.984,-7.824C127.096,-7.899 127.216,-7.936 127.344,-7.936C127.483,-7.936 127.608,-7.899 127.72,-7.824C127.832,-7.749 127.915,-7.643 127.968,-7.504L130.224,-1.664L132.432,-7.536C132.539,-7.792 132.715,-7.92 132.96,-7.92Z" style="fill-rule:nonzero;"/>
                <path d="M136.328,-0.064C135.885,-0.181 135.493,-0.347 135.152,-0.56C134.96,-0.688 134.824,-0.808 134.744,-0.92C134.664,-1.032 134.624,-1.168 134.624,-1.328C134.624,-1.467 134.664,-1.581 134.744,-1.672C134.824,-1.763 134.928,-1.808 135.056,-1.808C135.184,-1.808 135.371,-1.728 135.616,-1.568C135.936,-1.376 136.253,-1.224 136.568,-1.112C136.883,-1 137.275,-0.944 137.744,-0.944C138.32,-0.944 138.768,-1.045 139.088,-1.248C139.408,-1.451 139.568,-1.744 139.568,-2.128C139.568,-2.363 139.509,-2.552 139.392,-2.696C139.275,-2.84 139.072,-2.968 138.784,-3.08C138.496,-3.192 138.075,-3.307 137.52,-3.424C136.581,-3.627 135.909,-3.899 135.504,-4.24C135.099,-4.581 134.896,-5.045 134.896,-5.632C134.896,-6.091 135.024,-6.496 135.28,-6.848C135.536,-7.2 135.891,-7.477 136.344,-7.68C136.797,-7.883 137.312,-7.984 137.888,-7.984C138.304,-7.984 138.707,-7.928 139.096,-7.816C139.485,-7.704 139.829,-7.547 140.128,-7.344C140.491,-7.088 140.672,-6.821 140.672,-6.544C140.672,-6.405 140.629,-6.288 140.544,-6.192C140.459,-6.096 140.357,-6.048 140.24,-6.048C140.112,-6.048 139.92,-6.139 139.664,-6.32C139.365,-6.512 139.083,-6.661 138.816,-6.768C138.549,-6.875 138.219,-6.928 137.824,-6.928C137.323,-6.928 136.92,-6.816 136.616,-6.592C136.312,-6.368 136.16,-6.069 136.16,-5.696C136.16,-5.461 136.216,-5.272 136.328,-5.128C136.44,-4.984 136.627,-4.856 136.888,-4.744C137.149,-4.632 137.525,-4.523 138.016,-4.416C138.741,-4.256 139.304,-4.08 139.704,-3.888C140.104,-3.696 140.389,-3.461 140.56,-3.184C140.731,-2.907 140.816,-2.555 140.816,-2.128C140.816,-1.456 140.533,-0.915 139.968,-0.504C139.403,-0.093 138.656,0.112 137.728,0.112C137.237,0.112 136.771,0.053 136.328,-0.064Z" style="fill-rule:nonzero;"/>
                <path d="M151.072,-0.432C151.072,-0.251 151.005,-0.115 150.872,-0.024C150.739,0.067 150.539,0.101 150.272,0.08L149.84,0.048C148.987,-0.016 148.357,-0.272 147.952,-0.72C147.547,-1.168 147.344,-1.845 147.344,-2.752L147.344,-6.768L146.272,-6.768C146.091,-6.768 145.949,-6.813 145.848,-6.904C145.747,-6.995 145.696,-7.115 145.696,-7.264C145.696,-7.424 145.747,-7.552 145.848,-7.648C145.949,-7.744 146.091,-7.792 146.272,-7.792L147.344,-7.792L147.344,-9.6C147.344,-9.803 147.403,-9.96 147.52,-10.072C147.637,-10.184 147.797,-10.24 148,-10.24C148.192,-10.24 148.347,-10.184 148.464,-10.072C148.581,-9.96 148.64,-9.803 148.64,-9.6L148.64,-7.792L150.416,-7.792C150.587,-7.792 150.723,-7.744 150.824,-7.648C150.925,-7.552 150.976,-7.424 150.976,-7.264C150.976,-7.115 150.925,-6.995 150.824,-6.904C150.723,-6.813 150.587,-6.768 150.416,-6.768L148.64,-6.768L148.64,-2.688C148.64,-2.101 148.76,-1.677 149,-1.416C149.24,-1.155 149.6,-1.008 150.08,-0.976L150.512,-0.944C150.885,-0.912 151.072,-0.741 151.072,-0.432Z" style="fill-rule:nonzero;"/>
                <path d="M158.368,-7.208C158.837,-6.691 159.072,-5.92 159.072,-4.896L159.072,-0.56C159.072,-0.357 159.013,-0.2 158.896,-0.088C158.779,0.024 158.624,0.08 158.432,0.08C158.229,0.08 158.069,0.024 157.952,-0.088C157.835,-0.2 157.776,-0.357 157.776,-0.56L157.776,-4.864C157.776,-5.557 157.635,-6.069 157.352,-6.4C157.069,-6.731 156.619,-6.896 156,-6.896C155.285,-6.896 154.715,-6.677 154.288,-6.24C153.861,-5.803 153.648,-5.211 153.648,-4.464L153.648,-0.56C153.648,-0.357 153.592,-0.2 153.48,-0.088C153.368,0.024 153.211,0.08 153.008,0.08C152.805,0.08 152.645,0.024 152.528,-0.088C152.411,-0.2 152.352,-0.357 152.352,-0.56L152.352,-10.736C152.352,-10.917 152.413,-11.067 152.536,-11.184C152.659,-11.301 152.816,-11.36 153.008,-11.36C153.211,-11.36 153.368,-11.304 153.48,-11.192C153.592,-11.08 153.648,-10.928 153.648,-10.736L153.648,-6.544C153.904,-7.013 154.261,-7.371 154.72,-7.616C155.179,-7.861 155.701,-7.984 156.288,-7.984C157.205,-7.984 157.899,-7.725 158.368,-7.208Z" style="fill-rule:nonzero;"/>
                <path d="M167.776,-1.664C167.861,-1.568 167.904,-1.445 167.904,-1.296C167.904,-1.029 167.717,-0.784 167.344,-0.56C166.96,-0.336 166.555,-0.168 166.128,-0.056C165.701,0.056 165.285,0.112 164.88,0.112C163.675,0.112 162.723,-0.245 162.024,-0.96C161.325,-1.675 160.976,-2.661 160.976,-3.92C160.976,-4.72 161.131,-5.427 161.44,-6.04C161.749,-6.653 162.184,-7.131 162.744,-7.472C163.304,-7.813 163.941,-7.984 164.656,-7.984C165.669,-7.984 166.475,-7.653 167.072,-6.992C167.669,-6.331 167.968,-5.435 167.968,-4.304C167.968,-4.091 167.925,-3.936 167.84,-3.84C167.755,-3.744 167.616,-3.696 167.424,-3.696L162.272,-3.696C162.368,-1.861 163.237,-0.944 164.88,-0.944C165.296,-0.944 165.653,-1 165.952,-1.112C166.251,-1.224 166.571,-1.376 166.912,-1.568C167.189,-1.728 167.376,-1.808 167.472,-1.808C167.589,-1.808 167.691,-1.76 167.776,-1.664ZM163.032,-6.336C162.621,-5.909 162.379,-5.307 162.304,-4.528L166.832,-4.528C166.811,-5.317 166.613,-5.923 166.24,-6.344C165.867,-6.765 165.344,-6.976 164.672,-6.976C163.989,-6.976 163.443,-6.763 163.032,-6.336Z" style="fill-rule:nonzero;"/>
                <path d="M179.728,-7.472C180.251,-7.131 180.656,-6.653 180.944,-6.04C181.232,-5.427 181.376,-4.715 181.376,-3.904C181.376,-3.093 181.232,-2.387 180.944,-1.784C180.656,-1.181 180.253,-0.715 179.736,-0.384C179.219,-0.053 178.613,0.112 177.92,0.112C177.312,0.112 176.781,-0.021 176.328,-0.288C175.875,-0.555 175.531,-0.933 175.296,-1.424L175.296,2.336C175.296,2.528 175.24,2.68 175.128,2.792C175.016,2.904 174.859,2.96 174.656,2.96C174.453,2.96 174.293,2.901 174.176,2.784C174.059,2.667 174,2.517 174,2.336L174,-7.312C174,-7.504 174.059,-7.659 174.176,-7.776C174.293,-7.893 174.453,-7.952 174.656,-7.952C174.859,-7.952 175.016,-7.893 175.128,-7.776C175.24,-7.659 175.296,-7.504 175.296,-7.312L175.296,-6.448C175.531,-6.939 175.875,-7.317 176.328,-7.584C176.781,-7.851 177.312,-7.984 177.92,-7.984C178.603,-7.984 179.205,-7.813 179.728,-7.472ZM179.424,-1.728C179.84,-2.24 180.048,-2.965 180.048,-3.904C180.048,-4.843 179.84,-5.576 179.424,-6.104C179.008,-6.632 178.421,-6.896 177.664,-6.896C176.907,-6.896 176.323,-6.64 175.912,-6.128C175.501,-5.616 175.296,-4.885 175.296,-3.936C175.296,-2.987 175.501,-2.253 175.912,-1.736C176.323,-1.219 176.907,-0.96 177.664,-0.96C178.421,-0.96 179.008,-1.216 179.424,-1.728Z" style="fill-rule:nonzero;"/>
                <path d="M189.648,-1.664C189.733,-1.568 189.776,-1.445 189.776,-1.296C189.776,-1.029 189.589,-0.784 189.216,-0.56C188.832,-0.336 188.427,-0.168 188,-0.056C187.573,0.056 187.157,0.112 186.752,0.112C185.547,0.112 184.595,-0.245 183.896,-0.96C183.197,-1.675 182.848,-2.661 182.848,-3.92C182.848,-4.72 183.003,-5.427 183.312,-6.04C183.621,-6.653 184.056,-7.131 184.616,-7.472C185.176,-7.813 185.813,-7.984 186.528,-7.984C187.541,-7.984 188.347,-7.653 188.944,-6.992C189.541,-6.331 189.84,-5.435 189.84,-4.304C189.84,-4.091 189.797,-3.936 189.712,-3.84C189.627,-3.744 189.488,-3.696 189.296,-3.696L184.144,-3.696C184.24,-1.861 185.109,-0.944 186.752,-0.944C187.168,-0.944 187.525,-1 187.824,-1.112C188.123,-1.224 188.443,-1.376 188.784,-1.568C189.061,-1.728 189.248,-1.808 189.344,-1.808C189.461,-1.808 189.563,-1.76 189.648,-1.664ZM184.904,-6.336C184.493,-5.909 184.251,-5.307 184.176,-4.528L188.704,-4.528C188.683,-5.317 188.485,-5.923 188.112,-6.344C187.739,-6.765 187.216,-6.976 186.544,-6.976C185.861,-6.976 185.315,-6.763 184.904,-6.336Z" style="fill-rule:nonzero;"/>
                <path d="M196.272,-7.408C196.272,-7.237 196.224,-7.101 196.128,-7C196.032,-6.899 195.867,-6.837 195.632,-6.816L195.152,-6.768C194.437,-6.704 193.907,-6.451 193.56,-6.008C193.213,-5.565 193.04,-5.045 193.04,-4.448L193.04,-0.56C193.04,-0.347 192.981,-0.187 192.864,-0.08C192.747,0.027 192.592,0.08 192.4,0.08C192.208,0.08 192.051,0.024 191.928,-0.088C191.805,-0.2 191.744,-0.357 191.744,-0.56L191.744,-7.312C191.744,-7.515 191.808,-7.672 191.936,-7.784C192.064,-7.896 192.219,-7.952 192.4,-7.952C192.571,-7.952 192.715,-7.896 192.832,-7.784C192.949,-7.672 193.008,-7.52 193.008,-7.328L193.008,-6.432C193.232,-6.901 193.549,-7.259 193.96,-7.504C194.371,-7.749 194.843,-7.893 195.376,-7.936L195.6,-7.952C196.048,-7.984 196.272,-7.803 196.272,-7.408Z" style="fill-rule:nonzero;"/>
                <path d="M200.176,-9.72C199.888,-9.405 199.744,-8.933 199.744,-8.304L199.744,-7.792L201.52,-7.792C201.701,-7.792 201.84,-7.744 201.936,-7.648C202.032,-7.552 202.08,-7.424 202.08,-7.264C202.08,-7.104 202.032,-6.981 201.936,-6.896C201.84,-6.811 201.701,-6.768 201.52,-6.768L199.744,-6.768L199.744,-0.56C199.744,-0.357 199.683,-0.2 199.56,-0.088C199.437,0.024 199.285,0.08 199.104,0.08C198.912,0.08 198.755,0.024 198.632,-0.088C198.509,-0.2 198.448,-0.357 198.448,-0.56L198.448,-6.768L197.376,-6.768C197.195,-6.768 197.053,-6.813 196.952,-6.904C196.851,-6.995 196.8,-7.115 196.8,-7.264C196.8,-7.424 196.851,-7.552 196.952,-7.648C197.053,-7.744 197.195,-7.792 197.376,-7.792L198.448,-7.792L198.448,-8.08C198.448,-9.04 198.688,-9.795 199.168,-10.344C199.648,-10.893 200.336,-11.2 201.232,-11.264L201.648,-11.296C201.925,-11.317 202.125,-11.291 202.248,-11.216C202.371,-11.141 202.432,-11.008 202.432,-10.816C202.432,-10.507 202.245,-10.331 201.872,-10.288L201.456,-10.256C200.891,-10.213 200.464,-10.035 200.176,-9.72Z" style="fill-rule:nonzero;"/>
                <path d="M204.472,-0.384C203.912,-0.715 203.48,-1.187 203.176,-1.8C202.872,-2.413 202.72,-3.125 202.72,-3.936C202.72,-4.747 202.872,-5.459 203.176,-6.072C203.48,-6.685 203.912,-7.157 204.472,-7.488C205.032,-7.819 205.68,-7.984 206.416,-7.984C207.152,-7.984 207.803,-7.819 208.368,-7.488C208.933,-7.157 209.368,-6.685 209.672,-6.072C209.976,-5.459 210.128,-4.747 210.128,-3.936C210.128,-3.125 209.976,-2.413 209.672,-1.8C209.368,-1.187 208.933,-0.715 208.368,-0.384C207.803,-0.053 207.152,0.112 206.416,0.112C205.68,0.112 205.032,-0.053 204.472,-0.384ZM208.184,-1.72C208.595,-2.227 208.8,-2.965 208.8,-3.936C208.8,-4.885 208.592,-5.619 208.176,-6.136C207.76,-6.653 207.173,-6.912 206.416,-6.912C205.659,-6.912 205.072,-6.653 204.656,-6.136C204.24,-5.619 204.032,-4.885 204.032,-3.936C204.032,-2.976 204.237,-2.24 204.648,-1.728C205.059,-1.216 205.648,-0.96 206.416,-0.96C207.184,-0.96 207.773,-1.213 208.184,-1.72Z" style="fill-rule:nonzero;"/>
                <path d="M216.592,-7.408C216.592,-7.237 216.544,-7.101 216.448,-7C216.352,-6.899 216.187,-6.837 215.952,-6.816L215.472,-6.768C214.757,-6.704 214.227,-6.451 213.88,-6.008C213.533,-5.565 213.36,-5.045 213.36,-4.448L213.36,-0.56C213.36,-0.347 213.301,-0.187 213.184,-0.08C213.067,0.027 212.912,0.08 212.72,0.08C212.528,0.08 212.371,0.024 212.248,-0.088C212.125,-0.2 212.064,-0.357 212.064,-0.56L212.064,-7.312C212.064,-7.515 212.128,-7.672 212.256,-7.784C212.384,-7.896 212.539,-7.952 212.72,-7.952C212.891,-7.952 213.035,-7.896 213.152,-7.784C213.269,-7.672 213.328,-7.52 213.328,-7.328L213.328,-6.432C213.552,-6.901 213.869,-7.259 214.28,-7.504C214.691,-7.749 215.163,-7.893 215.696,-7.936L215.92,-7.952C216.368,-7.984 216.592,-7.803 216.592,-7.408Z" style="fill-rule:nonzero;"/>
                <path d="M228.976,-4.896L228.976,-0.56C228.976,-0.357 228.917,-0.2 228.8,-0.088C228.683,0.024 228.528,0.08 228.336,0.08C228.144,0.08 227.987,0.024 227.864,-0.088C227.741,-0.2 227.68,-0.357 227.68,-0.56L227.68,-4.864C227.68,-5.579 227.552,-6.096 227.296,-6.416C227.04,-6.736 226.64,-6.896 226.096,-6.896C225.445,-6.896 224.933,-6.677 224.56,-6.24C224.187,-5.803 224,-5.211 224,-4.464L224,-0.56C224,-0.357 223.939,-0.2 223.816,-0.088C223.693,0.024 223.536,0.08 223.344,0.08C223.152,0.08 222.997,0.024 222.88,-0.088C222.763,-0.2 222.704,-0.357 222.704,-0.56L222.704,-4.864C222.704,-5.579 222.576,-6.096 222.32,-6.416C222.064,-6.736 221.659,-6.896 221.104,-6.896C220.464,-6.896 219.955,-6.677 219.576,-6.24C219.197,-5.803 219.008,-5.211 219.008,-4.464L219.008,-0.56C219.008,-0.357 218.949,-0.2 218.832,-0.088C218.715,0.024 218.56,0.08 218.368,0.08C218.176,0.08 218.019,0.024 217.896,-0.088C217.773,-0.2 217.712,-0.357 217.712,-0.56L217.712,-7.312C217.712,-7.504 217.773,-7.659 217.896,-7.776C218.019,-7.893 218.176,-7.952 218.368,-7.952C218.549,-7.952 218.699,-7.896 218.816,-7.784C218.933,-7.672 218.992,-7.52 218.992,-7.328L218.992,-6.56C219.227,-7.019 219.552,-7.371 219.968,-7.616C220.384,-7.861 220.864,-7.984 221.408,-7.984C222.624,-7.984 223.419,-7.472 223.792,-6.448C224.016,-6.917 224.357,-7.291 224.816,-7.568C225.275,-7.845 225.797,-7.984 226.384,-7.984C228.112,-7.984 228.976,-6.955 228.976,-4.896Z" style="fill-rule:nonzero;"/>
                <path d="M237.456,-4.912L237.456,-0.56C237.456,-0.368 237.4,-0.213 237.288,-0.096C237.176,0.021 237.024,0.08 236.832,0.08C236.64,0.08 236.485,0.021 236.368,-0.096C236.251,-0.213 236.192,-0.368 236.192,-0.56L236.192,-1.328C235.989,-0.869 235.68,-0.515 235.264,-0.264C234.848,-0.013 234.368,0.112 233.824,0.112C233.323,0.112 232.861,0.011 232.44,-0.192C232.019,-0.395 231.685,-0.677 231.44,-1.04C231.195,-1.403 231.072,-1.803 231.072,-2.24C231.072,-2.827 231.221,-3.283 231.52,-3.608C231.819,-3.933 232.309,-4.168 232.992,-4.312C233.675,-4.456 234.624,-4.528 235.84,-4.528L236.192,-4.528L236.192,-5.056C236.192,-5.696 236.061,-6.165 235.8,-6.464C235.539,-6.763 235.115,-6.912 234.528,-6.912C233.803,-6.912 233.067,-6.715 232.32,-6.32C232.032,-6.139 231.829,-6.048 231.712,-6.048C231.584,-6.048 231.477,-6.096 231.392,-6.192C231.307,-6.288 231.264,-6.411 231.264,-6.56C231.264,-6.709 231.309,-6.84 231.4,-6.952C231.491,-7.064 231.637,-7.179 231.84,-7.296C232.213,-7.509 232.637,-7.677 233.112,-7.8C233.587,-7.923 234.059,-7.984 234.528,-7.984C236.48,-7.984 237.456,-6.96 237.456,-4.912ZM235.576,-1.56C235.987,-1.992 236.192,-2.549 236.192,-3.232L236.192,-3.696L235.904,-3.696C234.965,-3.696 234.251,-3.656 233.76,-3.576C233.269,-3.496 232.92,-3.363 232.712,-3.176C232.504,-2.989 232.4,-2.715 232.4,-2.352C232.4,-1.936 232.552,-1.592 232.856,-1.32C233.16,-1.048 233.541,-0.912 234,-0.912C234.64,-0.912 235.165,-1.128 235.576,-1.56Z" style="fill-rule:nonzero;"/>
                <path d="M246.544,-4.896L246.544,-0.56C246.544,-0.357 246.488,-0.2 246.376,-0.088C246.264,0.024 246.107,0.08 245.904,0.08C245.701,0.08 245.541,0.024 245.424,-0.088C245.307,-0.2 245.248,-0.357 245.248,-0.56L245.248,-4.816C245.248,-5.541 245.107,-6.069 244.824,-6.4C244.541,-6.731 244.091,-6.896 243.472,-6.896C242.757,-6.896 242.187,-6.677 241.76,-6.24C241.333,-5.803 241.12,-5.211 241.12,-4.464L241.12,-0.56C241.12,-0.357 241.064,-0.2 240.952,-0.088C240.84,0.024 240.683,0.08 240.48,0.08C240.277,0.08 240.117,0.024 240,-0.088C239.883,-0.2 239.824,-0.357 239.824,-0.56L239.824,-7.312C239.824,-7.504 239.883,-7.659 240,-7.776C240.117,-7.893 240.277,-7.952 240.48,-7.952C240.672,-7.952 240.824,-7.893 240.936,-7.776C241.048,-7.659 241.104,-7.509 241.104,-7.328L241.104,-6.512C241.36,-6.992 241.717,-7.357 242.176,-7.608C242.635,-7.859 243.157,-7.984 243.744,-7.984C245.611,-7.984 246.544,-6.955 246.544,-4.896Z" style="fill-rule:nonzero;"/>
                <path d="M250.2,-0.384C249.64,-0.715 249.208,-1.184 248.904,-1.792C248.6,-2.4 248.448,-3.104 248.448,-3.904C248.448,-4.704 248.605,-5.413 248.92,-6.032C249.235,-6.651 249.675,-7.131 250.24,-7.472C250.805,-7.813 251.456,-7.984 252.192,-7.984C252.597,-7.984 253,-7.928 253.4,-7.816C253.8,-7.704 254.149,-7.541 254.448,-7.328C254.64,-7.2 254.776,-7.075 254.856,-6.952C254.936,-6.829 254.976,-6.693 254.976,-6.544C254.976,-6.395 254.936,-6.272 254.856,-6.176C254.776,-6.08 254.672,-6.032 254.544,-6.032C254.469,-6.032 254.389,-6.053 254.304,-6.096C254.219,-6.139 254.147,-6.181 254.088,-6.224C254.029,-6.267 253.989,-6.293 253.968,-6.304C253.691,-6.485 253.427,-6.629 253.176,-6.736C252.925,-6.843 252.619,-6.896 252.256,-6.896C251.477,-6.896 250.872,-6.632 250.44,-6.104C250.008,-5.576 249.792,-4.843 249.792,-3.904C249.792,-2.965 250.008,-2.24 250.44,-1.728C250.872,-1.216 251.477,-0.96 252.256,-0.96C252.619,-0.96 252.931,-1.013 253.192,-1.12C253.453,-1.227 253.717,-1.371 253.984,-1.552C254.101,-1.627 254.213,-1.691 254.32,-1.744C254.427,-1.797 254.517,-1.824 254.592,-1.824C254.709,-1.824 254.808,-1.776 254.888,-1.68C254.968,-1.584 255.008,-1.461 255.008,-1.312C255.008,-1.173 254.971,-1.048 254.896,-0.936C254.821,-0.824 254.683,-0.699 254.48,-0.56C254.181,-0.357 253.821,-0.195 253.4,-0.072C252.979,0.051 252.555,0.112 252.128,0.112C251.403,0.112 250.76,-0.053 250.2,-0.384Z" style="fill-rule:nonzero;"/>
                <path d="M262.912,-1.664C262.997,-1.568 263.04,-1.445 263.04,-1.296C263.04,-1.029 262.853,-0.784 262.48,-0.56C262.096,-0.336 261.691,-0.168 261.264,-0.056C260.837,0.056 260.421,0.112 260.016,0.112C258.811,0.112 257.859,-0.245 257.16,-0.96C256.461,-1.675 256.112,-2.661 256.112,-3.92C256.112,-4.72 256.267,-5.427 256.576,-6.04C256.885,-6.653 257.32,-7.131 257.88,-7.472C258.44,-7.813 259.077,-7.984 259.792,-7.984C260.805,-7.984 261.611,-7.653 262.208,-6.992C262.805,-6.331 263.104,-5.435 263.104,-4.304C263.104,-4.091 263.061,-3.936 262.976,-3.84C262.891,-3.744 262.752,-3.696 262.56,-3.696L257.408,-3.696C257.504,-1.861 258.373,-0.944 260.016,-0.944C260.432,-0.944 260.789,-1 261.088,-1.112C261.387,-1.224 261.707,-1.376 262.048,-1.568C262.325,-1.728 262.512,-1.808 262.608,-1.808C262.725,-1.808 262.827,-1.76 262.912,-1.664ZM258.168,-6.336C257.757,-5.909 257.515,-5.307 257.44,-4.528L261.968,-4.528C261.947,-5.317 261.749,-5.923 261.376,-6.344C261.003,-6.765 260.48,-6.976 259.808,-6.976C259.125,-6.976 258.579,-6.763 258.168,-6.336Z" style="fill-rule:nonzero;"/>
                <path d="M275.936,-7.776C276.053,-7.659 276.112,-7.504 276.112,-7.312L276.112,-0.528C276.112,0.635 275.813,1.512 275.216,2.104C274.619,2.696 273.733,2.992 272.56,2.992C271.419,2.992 270.469,2.768 269.712,2.32C269.328,2.107 269.136,1.861 269.136,1.584C269.136,1.435 269.176,1.312 269.256,1.216C269.336,1.12 269.44,1.072 269.568,1.072C269.675,1.072 269.867,1.147 270.144,1.296C270.517,1.488 270.885,1.643 271.248,1.76C271.611,1.877 272.043,1.936 272.544,1.936C273.301,1.936 273.872,1.736 274.256,1.336C274.64,0.936 274.832,0.352 274.832,-0.416L274.832,-1.792C274.608,-1.291 274.264,-0.907 273.8,-0.64C273.336,-0.373 272.789,-0.24 272.16,-0.24C271.477,-0.24 270.872,-0.4 270.344,-0.72C269.816,-1.04 269.405,-1.493 269.112,-2.08C268.819,-2.667 268.672,-3.344 268.672,-4.112C268.672,-4.88 268.819,-5.557 269.112,-6.144C269.405,-6.731 269.816,-7.184 270.344,-7.504C270.872,-7.824 271.477,-7.984 272.16,-7.984C272.779,-7.984 273.317,-7.851 273.776,-7.584C274.235,-7.317 274.581,-6.939 274.816,-6.448L274.816,-7.312C274.816,-7.504 274.872,-7.659 274.984,-7.776C275.096,-7.893 275.253,-7.952 275.456,-7.952C275.659,-7.952 275.819,-7.893 275.936,-7.776ZM274.176,-2.056C274.603,-2.552 274.816,-3.237 274.816,-4.112C274.816,-4.976 274.605,-5.656 274.184,-6.152C273.763,-6.648 273.173,-6.896 272.416,-6.896C271.659,-6.896 271.064,-6.648 270.632,-6.152C270.2,-5.656 269.984,-4.976 269.984,-4.112C269.984,-3.237 270.2,-2.552 270.632,-2.056C271.064,-1.56 271.659,-1.312 272.416,-1.312C273.163,-1.312 273.749,-1.56 274.176,-2.056Z" style="fill-rule:nonzero;"/>
                <path d="M284.624,-4.912L284.624,-0.56C284.624,-0.368 284.568,-0.213 284.456,-0.096C284.344,0.021 284.192,0.08 284,0.08C283.808,0.08 283.653,0.021 283.536,-0.096C283.419,-0.213 283.36,-0.368 283.36,-0.56L283.36,-1.328C283.157,-0.869 282.848,-0.515 282.432,-0.264C282.016,-0.013 281.536,0.112 280.992,0.112C280.491,0.112 280.029,0.011 279.608,-0.192C279.187,-0.395 278.853,-0.677 278.608,-1.04C278.363,-1.403 278.24,-1.803 278.24,-2.24C278.24,-2.827 278.389,-3.283 278.688,-3.608C278.987,-3.933 279.477,-4.168 280.16,-4.312C280.843,-4.456 281.792,-4.528 283.008,-4.528L283.36,-4.528L283.36,-5.056C283.36,-5.696 283.229,-6.165 282.968,-6.464C282.707,-6.763 282.283,-6.912 281.696,-6.912C280.971,-6.912 280.235,-6.715 279.488,-6.32C279.2,-6.139 278.997,-6.048 278.88,-6.048C278.752,-6.048 278.645,-6.096 278.56,-6.192C278.475,-6.288 278.432,-6.411 278.432,-6.56C278.432,-6.709 278.477,-6.84 278.568,-6.952C278.659,-7.064 278.805,-7.179 279.008,-7.296C279.381,-7.509 279.805,-7.677 280.28,-7.8C280.755,-7.923 281.227,-7.984 281.696,-7.984C283.648,-7.984 284.624,-6.96 284.624,-4.912ZM282.744,-1.56C283.155,-1.992 283.36,-2.549 283.36,-3.232L283.36,-3.696L283.072,-3.696C282.133,-3.696 281.419,-3.656 280.928,-3.576C280.437,-3.496 280.088,-3.363 279.88,-3.176C279.672,-2.989 279.568,-2.715 279.568,-2.352C279.568,-1.936 279.72,-1.592 280.024,-1.32C280.328,-1.048 280.709,-0.912 281.168,-0.912C281.808,-0.912 282.333,-1.128 282.744,-1.56Z" style="fill-rule:nonzero;"/>
                <path d="M287.176,-0.088C287.053,-0.2 286.992,-0.357 286.992,-0.56L286.992,-7.312C286.992,-7.515 287.053,-7.672 287.176,-7.784C287.299,-7.896 287.456,-7.952 287.648,-7.952C287.84,-7.952 287.995,-7.896 288.112,-7.784C288.229,-7.672 288.288,-7.515 288.288,-7.312L288.288,-0.56C288.288,-0.347 288.229,-0.187 288.112,-0.08C287.995,0.027 287.84,0.08 287.648,0.08C287.456,0.08 287.299,0.024 287.176,-0.088ZM287.024,-9.856C286.864,-10.005 286.784,-10.203 286.784,-10.448C286.784,-10.683 286.864,-10.875 287.024,-11.024C287.184,-11.173 287.392,-11.248 287.648,-11.248C287.904,-11.248 288.112,-11.173 288.272,-11.024C288.432,-10.875 288.512,-10.683 288.512,-10.448C288.512,-10.203 288.432,-10.005 288.272,-9.856C288.112,-9.707 287.904,-9.632 287.648,-9.632C287.392,-9.632 287.184,-9.707 287.024,-9.856Z" style="fill-rule:nonzero;"/>
                <path d="M297.424,-4.896L297.424,-0.56C297.424,-0.357 297.368,-0.2 297.256,-0.088C297.144,0.024 296.987,0.08 296.784,0.08C296.581,0.08 296.421,0.024 296.304,-0.088C296.187,-0.2 296.128,-0.357 296.128,-0.56L296.128,-4.816C296.128,-5.541 295.987,-6.069 295.704,-6.4C295.421,-6.731 294.971,-6.896 294.352,-6.896C293.637,-6.896 293.067,-6.677 292.64,-6.24C292.213,-5.803 292,-5.211 292,-4.464L292,-0.56C292,-0.357 291.944,-0.2 291.832,-0.088C291.72,0.024 291.563,0.08 291.36,0.08C291.157,0.08 290.997,0.024 290.88,-0.088C290.763,-0.2 290.704,-0.357 290.704,-0.56L290.704,-7.312C290.704,-7.504 290.763,-7.659 290.88,-7.776C290.997,-7.893 291.157,-7.952 291.36,-7.952C291.552,-7.952 291.704,-7.893 291.816,-7.776C291.928,-7.659 291.984,-7.509 291.984,-7.328L291.984,-6.512C292.24,-6.992 292.597,-7.357 293.056,-7.608C293.515,-7.859 294.037,-7.984 294.624,-7.984C296.491,-7.984 297.424,-6.955 297.424,-4.896Z" style="fill-rule:nonzero;"/>
                <path d="M301.016,-0.064C300.573,-0.181 300.181,-0.347 299.84,-0.56C299.648,-0.688 299.512,-0.808 299.432,-0.92C299.352,-1.032 299.312,-1.168 299.312,-1.328C299.312,-1.467 299.352,-1.581 299.432,-1.672C299.512,-1.763 299.616,-1.808 299.744,-1.808C299.872,-1.808 300.059,-1.728 300.304,-1.568C300.624,-1.376 300.941,-1.224 301.256,-1.112C301.571,-1 301.963,-0.944 302.432,-0.944C303.008,-0.944 303.456,-1.045 303.776,-1.248C304.096,-1.451 304.256,-1.744 304.256,-2.128C304.256,-2.363 304.197,-2.552 304.08,-2.696C303.963,-2.84 303.76,-2.968 303.472,-3.08C303.184,-3.192 302.763,-3.307 302.208,-3.424C301.269,-3.627 300.597,-3.899 300.192,-4.24C299.787,-4.581 299.584,-5.045 299.584,-5.632C299.584,-6.091 299.712,-6.496 299.968,-6.848C300.224,-7.2 300.579,-7.477 301.032,-7.68C301.485,-7.883 302,-7.984 302.576,-7.984C302.992,-7.984 303.395,-7.928 303.784,-7.816C304.173,-7.704 304.517,-7.547 304.816,-7.344C305.179,-7.088 305.36,-6.821 305.36,-6.544C305.36,-6.405 305.317,-6.288 305.232,-6.192C305.147,-6.096 305.045,-6.048 304.928,-6.048C304.8,-6.048 304.608,-6.139 304.352,-6.32C304.053,-6.512 303.771,-6.661 303.504,-6.768C303.237,-6.875 302.907,-6.928 302.512,-6.928C302.011,-6.928 301.608,-6.816 301.304,-6.592C301,-6.368 300.848,-6.069 300.848,-5.696C300.848,-5.461 300.904,-5.272 301.016,-5.128C301.128,-4.984 301.315,-4.856 301.576,-4.744C301.837,-4.632 302.213,-4.523 302.704,-4.416C303.429,-4.256 303.992,-4.08 304.392,-3.888C304.792,-3.696 305.077,-3.461 305.248,-3.184C305.419,-2.907 305.504,-2.555 305.504,-2.128C305.504,-1.456 305.221,-0.915 304.656,-0.504C304.091,-0.093 303.344,0.112 302.416,0.112C301.925,0.112 301.459,0.053 301.016,-0.064Z" style="fill-rule:nonzero;"/>
                <path d="M317.712,-4.912L317.712,-0.56C317.712,-0.368 317.656,-0.213 317.544,-0.096C317.432,0.021 317.28,0.08 317.088,0.08C316.896,0.08 316.741,0.021 316.624,-0.096C316.507,-0.213 316.448,-0.368 316.448,-0.56L316.448,-1.328C316.245,-0.869 315.936,-0.515 315.52,-0.264C315.104,-0.013 314.624,0.112 314.08,0.112C313.579,0.112 313.117,0.011 312.696,-0.192C312.275,-0.395 311.941,-0.677 311.696,-1.04C311.451,-1.403 311.328,-1.803 311.328,-2.24C311.328,-2.827 311.477,-3.283 311.776,-3.608C312.075,-3.933 312.565,-4.168 313.248,-4.312C313.931,-4.456 314.88,-4.528 316.096,-4.528L316.448,-4.528L316.448,-5.056C316.448,-5.696 316.317,-6.165 316.056,-6.464C315.795,-6.763 315.371,-6.912 314.784,-6.912C314.059,-6.912 313.323,-6.715 312.576,-6.32C312.288,-6.139 312.085,-6.048 311.968,-6.048C311.84,-6.048 311.733,-6.096 311.648,-6.192C311.563,-6.288 311.52,-6.411 311.52,-6.56C311.52,-6.709 311.565,-6.84 311.656,-6.952C311.747,-7.064 311.893,-7.179 312.096,-7.296C312.469,-7.509 312.893,-7.677 313.368,-7.8C313.843,-7.923 314.315,-7.984 314.784,-7.984C316.736,-7.984 317.712,-6.96 317.712,-4.912ZM315.832,-1.56C316.243,-1.992 316.448,-2.549 316.448,-3.232L316.448,-3.696L316.16,-3.696C315.221,-3.696 314.507,-3.656 314.016,-3.576C313.525,-3.496 313.176,-3.363 312.968,-3.176C312.76,-2.989 312.656,-2.715 312.656,-2.352C312.656,-1.936 312.808,-1.592 313.112,-1.32C313.416,-1.048 313.797,-0.912 314.256,-0.912C314.896,-0.912 315.421,-1.128 315.832,-1.56Z" style="fill-rule:nonzero;"/>
                <path d="M326.8,-4.896L326.8,-0.56C326.8,-0.357 326.744,-0.2 326.632,-0.088C326.52,0.024 326.363,0.08 326.16,0.08C325.957,0.08 325.797,0.024 325.68,-0.088C325.563,-0.2 325.504,-0.357 325.504,-0.56L325.504,-4.816C325.504,-5.541 325.363,-6.069 325.08,-6.4C324.797,-6.731 324.347,-6.896 323.728,-6.896C323.013,-6.896 322.443,-6.677 322.016,-6.24C321.589,-5.803 321.376,-5.211 321.376,-4.464L321.376,-0.56C321.376,-0.357 321.32,-0.2 321.208,-0.088C321.096,0.024 320.939,0.08 320.736,0.08C320.533,0.08 320.373,0.024 320.256,-0.088C320.139,-0.2 320.08,-0.357 320.08,-0.56L320.08,-7.312C320.08,-7.504 320.139,-7.659 320.256,-7.776C320.373,-7.893 320.533,-7.952 320.736,-7.952C320.928,-7.952 321.08,-7.893 321.192,-7.776C321.304,-7.659 321.36,-7.509 321.36,-7.328L321.36,-6.512C321.616,-6.992 321.973,-7.357 322.432,-7.608C322.891,-7.859 323.413,-7.984 324,-7.984C325.867,-7.984 326.8,-6.955 326.8,-4.896Z" style="fill-rule:nonzero;"/>
                <path d="M335.904,-11.184C336.021,-11.067 336.08,-10.917 336.08,-10.736L336.08,-0.56C336.08,-0.368 336.021,-0.213 335.904,-0.096C335.787,0.021 335.627,0.08 335.424,0.08C335.221,0.08 335.064,0.021 334.952,-0.096C334.84,-0.213 334.784,-0.368 334.784,-0.56L334.784,-1.424C334.549,-0.933 334.205,-0.555 333.752,-0.288C333.299,-0.021 332.768,0.112 332.16,0.112C331.477,0.112 330.875,-0.059 330.352,-0.4C329.829,-0.741 329.424,-1.219 329.136,-1.832C328.848,-2.445 328.704,-3.157 328.704,-3.968C328.704,-4.768 328.848,-5.472 329.136,-6.08C329.424,-6.688 329.829,-7.157 330.352,-7.488C330.875,-7.819 331.477,-7.984 332.16,-7.984C332.768,-7.984 333.299,-7.851 333.752,-7.584C334.205,-7.317 334.549,-6.939 334.784,-6.448L334.784,-10.736C334.784,-10.928 334.84,-11.08 334.952,-11.192C335.064,-11.304 335.221,-11.36 335.424,-11.36C335.627,-11.36 335.787,-11.301 335.904,-11.184ZM334.168,-1.736C334.579,-2.253 334.784,-2.987 334.784,-3.936C334.784,-4.885 334.579,-5.616 334.168,-6.128C333.757,-6.64 333.173,-6.896 332.416,-6.896C331.659,-6.896 331.069,-6.64 330.648,-6.128C330.227,-5.616 330.016,-4.896 330.016,-3.968C330.016,-3.019 330.227,-2.28 330.648,-1.752C331.069,-1.224 331.659,-0.96 332.416,-0.96C333.173,-0.96 333.757,-1.219 334.168,-1.736Z" style="fill-rule:nonzero;"/>
            </g>
            <g transform="matrix(1,0,0,1,49,900)">
                <path d="M6.928,-7.488C7.451,-7.157 7.856,-6.688 8.144,-6.08C8.432,-5.472 8.576,-4.768 8.576,-3.968C8.576,-3.157 8.432,-2.445 8.144,-1.832C7.856,-1.219 7.451,-0.741 6.928,-0.4C6.405,-0.059 5.803,0.112 5.12,0.112C4.512,0.112 3.981,-0.021 3.528,-0.288C3.075,-0.555 2.731,-0.933 2.496,-1.424L2.496,-0.56C2.496,-0.368 2.44,-0.213 2.328,-0.096C2.216,0.021 2.059,0.08 1.856,0.08C1.653,0.08 1.493,0.021 1.376,-0.096C1.259,-0.213 1.2,-0.368 1.2,-0.56L1.2,-10.736C1.2,-10.917 1.259,-11.067 1.376,-11.184C1.493,-11.301 1.653,-11.36 1.856,-11.36C2.059,-11.36 2.216,-11.304 2.328,-11.192C2.44,-11.08 2.496,-10.928 2.496,-10.736L2.496,-6.448C2.731,-6.939 3.075,-7.317 3.528,-7.584C3.981,-7.851 4.512,-7.984 5.12,-7.984C5.803,-7.984 6.405,-7.819 6.928,-7.488ZM6.624,-1.752C7.04,-2.28 7.248,-3.019 7.248,-3.968C7.248,-4.896 7.04,-5.616 6.624,-6.128C6.208,-6.64 5.621,-6.896 4.864,-6.896C4.107,-6.896 3.523,-6.64 3.112,-6.128C2.701,-5.616 2.496,-4.885 2.496,-3.936C2.496,-2.987 2.701,-2.253 3.112,-1.736C3.523,-1.219 4.107,-0.96 4.864,-0.96C5.621,-0.96 6.208,-1.224 6.624,-1.752Z" style="fill-rule:nonzero;"/>
                <path d="M16.848,-1.664C16.933,-1.568 16.976,-1.445 16.976,-1.296C16.976,-1.029 16.789,-0.784 16.416,-0.56C16.032,-0.336 15.627,-0.168 15.2,-0.056C14.773,0.056 14.357,0.112 13.952,0.112C12.747,0.112 11.795,-0.245 11.096,-0.96C10.397,-1.675 10.048,-2.661 10.048,-3.92C10.048,-4.72 10.203,-5.427 10.512,-6.04C10.821,-6.653 11.256,-7.131 11.816,-7.472C12.376,-7.813 13.013,-7.984 13.728,-7.984C14.741,-7.984 15.547,-7.653 16.144,-6.992C16.741,-6.331 17.04,-5.435 17.04,-4.304C17.04,-4.091 16.997,-3.936 16.912,-3.84C16.827,-3.744 16.688,-3.696 16.496,-3.696L11.344,-3.696C11.44,-1.861 12.309,-0.944 13.952,-0.944C14.368,-0.944 14.725,-1 15.024,-1.112C15.323,-1.224 15.643,-1.376 15.984,-1.568C16.261,-1.728 16.448,-1.808 16.544,-1.808C16.661,-1.808 16.763,-1.76 16.848,-1.664ZM12.104,-6.336C11.693,-5.909 11.451,-5.307 11.376,-4.528L15.904,-4.528C15.883,-5.317 15.685,-5.923 15.312,-6.344C14.939,-6.765 14.416,-6.976 13.744,-6.976C13.061,-6.976 12.515,-6.763 12.104,-6.336Z" style="fill-rule:nonzero;"/>
                <path d="M25.664,-4.896L25.664,-0.56C25.664,-0.357 25.608,-0.2 25.496,-0.088C25.384,0.024 25.227,0.08 25.024,0.08C24.821,0.08 24.661,0.024 24.544,-0.088C24.427,-0.2 24.368,-0.357 24.368,-0.56L24.368,-4.816C24.368,-5.541 24.227,-6.069 23.944,-6.4C23.661,-6.731 23.211,-6.896 22.592,-6.896C21.877,-6.896 21.307,-6.677 20.88,-6.24C20.453,-5.803 20.24,-5.211 20.24,-4.464L20.24,-0.56C20.24,-0.357 20.184,-0.2 20.072,-0.088C19.96,0.024 19.803,0.08 19.6,0.08C19.397,0.08 19.237,0.024 19.12,-0.088C19.003,-0.2 18.944,-0.357 18.944,-0.56L18.944,-7.312C18.944,-7.504 19.003,-7.659 19.12,-7.776C19.237,-7.893 19.397,-7.952 19.6,-7.952C19.792,-7.952 19.944,-7.893 20.056,-7.776C20.168,-7.659 20.224,-7.509 20.224,-7.328L20.224,-6.512C20.48,-6.992 20.837,-7.357 21.296,-7.608C21.755,-7.859 22.277,-7.984 22.864,-7.984C24.731,-7.984 25.664,-6.955 25.664,-4.896Z" style="fill-rule:nonzero;"/>
                <path d="M34.368,-1.664C34.453,-1.568 34.496,-1.445 34.496,-1.296C34.496,-1.029 34.309,-0.784 33.936,-0.56C33.552,-0.336 33.147,-0.168 32.72,-0.056C32.293,0.056 31.877,0.112 31.472,0.112C30.267,0.112 29.315,-0.245 28.616,-0.96C27.917,-1.675 27.568,-2.661 27.568,-3.92C27.568,-4.72 27.723,-5.427 28.032,-6.04C28.341,-6.653 28.776,-7.131 29.336,-7.472C29.896,-7.813 30.533,-7.984 31.248,-7.984C32.261,-7.984 33.067,-7.653 33.664,-6.992C34.261,-6.331 34.56,-5.435 34.56,-4.304C34.56,-4.091 34.517,-3.936 34.432,-3.84C34.347,-3.744 34.208,-3.696 34.016,-3.696L28.864,-3.696C28.96,-1.861 29.829,-0.944 31.472,-0.944C31.888,-0.944 32.245,-1 32.544,-1.112C32.843,-1.224 33.163,-1.376 33.504,-1.568C33.781,-1.728 33.968,-1.808 34.064,-1.808C34.181,-1.808 34.283,-1.76 34.368,-1.664ZM29.624,-6.336C29.213,-5.909 28.971,-5.307 28.896,-4.528L33.424,-4.528C33.403,-5.317 33.205,-5.923 32.832,-6.344C32.459,-6.765 31.936,-6.976 31.264,-6.976C30.581,-6.976 30.035,-6.763 29.624,-6.336Z" style="fill-rule:nonzero;"/>
                <path d="M42.832,-7.648C42.928,-7.552 42.976,-7.424 42.976,-7.264L42.976,-0.56C42.976,-0.357 42.915,-0.2 42.792,-0.088C42.669,0.024 42.517,0.08 42.336,0.08C42.144,0.08 41.987,0.024 41.864,-0.088C41.741,-0.2 41.68,-0.357 41.68,-0.56L41.68,-6.768L38.176,-6.768L38.176,-0.56C38.176,-0.357 38.115,-0.2 37.992,-0.088C37.869,0.024 37.717,0.08 37.536,0.08C37.344,0.08 37.187,0.024 37.064,-0.088C36.941,-0.2 36.88,-0.357 36.88,-0.56L36.88,-6.768L35.808,-6.768C35.627,-6.768 35.485,-6.813 35.384,-6.904C35.283,-6.995 35.232,-7.115 35.232,-7.264C35.232,-7.424 35.283,-7.552 35.384,-7.648C35.485,-7.744 35.627,-7.792 35.808,-7.792L36.88,-7.792L36.88,-8.064C36.88,-9.024 37.12,-9.779 37.6,-10.328C38.08,-10.877 38.768,-11.189 39.664,-11.264L40.048,-11.296C40.56,-11.339 40.816,-11.179 40.816,-10.816C40.816,-10.507 40.635,-10.331 40.272,-10.288L39.888,-10.256C39.323,-10.213 38.896,-10.035 38.608,-9.72C38.32,-9.405 38.176,-8.933 38.176,-8.304L38.176,-7.792L42.416,-7.792C42.597,-7.792 42.736,-7.744 42.832,-7.648ZM42.952,-11.024C43.117,-10.875 43.2,-10.683 43.2,-10.448C43.2,-10.203 43.12,-10.005 42.96,-9.856C42.8,-9.707 42.592,-9.632 42.336,-9.632C42.08,-9.632 41.872,-9.707 41.712,-9.856C41.552,-10.005 41.472,-10.203 41.472,-10.448C41.472,-10.683 41.552,-10.875 41.712,-11.024C41.872,-11.173 42.08,-11.248 42.336,-11.248C42.581,-11.248 42.787,-11.173 42.952,-11.024Z" style="fill-rule:nonzero;"/>
                <path d="M49.552,-0.432C49.552,-0.251 49.485,-0.115 49.352,-0.024C49.219,0.067 49.019,0.101 48.752,0.08L48.32,0.048C47.467,-0.016 46.837,-0.272 46.432,-0.72C46.027,-1.168 45.824,-1.845 45.824,-2.752L45.824,-6.768L44.752,-6.768C44.571,-6.768 44.429,-6.813 44.328,-6.904C44.227,-6.995 44.176,-7.115 44.176,-7.264C44.176,-7.424 44.227,-7.552 44.328,-7.648C44.429,-7.744 44.571,-7.792 44.752,-7.792L45.824,-7.792L45.824,-9.6C45.824,-9.803 45.883,-9.96 46,-10.072C46.117,-10.184 46.277,-10.24 46.48,-10.24C46.672,-10.24 46.827,-10.184 46.944,-10.072C47.061,-9.96 47.12,-9.803 47.12,-9.6L47.12,-7.792L48.896,-7.792C49.067,-7.792 49.203,-7.744 49.304,-7.648C49.405,-7.552 49.456,-7.424 49.456,-7.264C49.456,-7.115 49.405,-6.995 49.304,-6.904C49.203,-6.813 49.067,-6.768 48.896,-6.768L47.12,-6.768L47.12,-2.688C47.12,-2.101 47.24,-1.677 47.48,-1.416C47.72,-1.155 48.08,-1.008 48.56,-0.976L48.992,-0.944C49.365,-0.912 49.552,-0.741 49.552,-0.432Z" style="fill-rule:nonzero;"/>
                <path d="M52.056,-0.064C51.613,-0.181 51.221,-0.347 50.88,-0.56C50.688,-0.688 50.552,-0.808 50.472,-0.92C50.392,-1.032 50.352,-1.168 50.352,-1.328C50.352,-1.467 50.392,-1.581 50.472,-1.672C50.552,-1.763 50.656,-1.808 50.784,-1.808C50.912,-1.808 51.099,-1.728 51.344,-1.568C51.664,-1.376 51.981,-1.224 52.296,-1.112C52.611,-1 53.003,-0.944 53.472,-0.944C54.048,-0.944 54.496,-1.045 54.816,-1.248C55.136,-1.451 55.296,-1.744 55.296,-2.128C55.296,-2.363 55.237,-2.552 55.12,-2.696C55.003,-2.84 54.8,-2.968 54.512,-3.08C54.224,-3.192 53.803,-3.307 53.248,-3.424C52.309,-3.627 51.637,-3.899 51.232,-4.24C50.827,-4.581 50.624,-5.045 50.624,-5.632C50.624,-6.091 50.752,-6.496 51.008,-6.848C51.264,-7.2 51.619,-7.477 52.072,-7.68C52.525,-7.883 53.04,-7.984 53.616,-7.984C54.032,-7.984 54.435,-7.928 54.824,-7.816C55.213,-7.704 55.557,-7.547 55.856,-7.344C56.219,-7.088 56.4,-6.821 56.4,-6.544C56.4,-6.405 56.357,-6.288 56.272,-6.192C56.187,-6.096 56.085,-6.048 55.968,-6.048C55.84,-6.048 55.648,-6.139 55.392,-6.32C55.093,-6.512 54.811,-6.661 54.544,-6.768C54.277,-6.875 53.947,-6.928 53.552,-6.928C53.051,-6.928 52.648,-6.816 52.344,-6.592C52.04,-6.368 51.888,-6.069 51.888,-5.696C51.888,-5.461 51.944,-5.272 52.056,-5.128C52.168,-4.984 52.355,-4.856 52.616,-4.744C52.877,-4.632 53.253,-4.523 53.744,-4.416C54.469,-4.256 55.032,-4.08 55.432,-3.888C55.832,-3.696 56.117,-3.461 56.288,-3.184C56.459,-2.907 56.544,-2.555 56.544,-2.128C56.544,-1.456 56.261,-0.915 55.696,-0.504C55.131,-0.093 54.384,0.112 53.456,0.112C52.965,0.112 52.499,0.053 52.056,-0.064Z" style="fill-rule:nonzero;"/>
                <path d="M63.928,-0.384C63.368,-0.715 62.936,-1.187 62.632,-1.8C62.328,-2.413 62.176,-3.125 62.176,-3.936C62.176,-4.747 62.328,-5.459 62.632,-6.072C62.936,-6.685 63.368,-7.157 63.928,-7.488C64.488,-7.819 65.136,-7.984 65.872,-7.984C66.608,-7.984 67.259,-7.819 67.824,-7.488C68.389,-7.157 68.824,-6.685 69.128,-6.072C69.432,-5.459 69.584,-4.747 69.584,-3.936C69.584,-3.125 69.432,-2.413 69.128,-1.8C68.824,-1.187 68.389,-0.715 67.824,-0.384C67.259,-0.053 66.608,0.112 65.872,0.112C65.136,0.112 64.488,-0.053 63.928,-0.384ZM67.64,-1.72C68.051,-2.227 68.256,-2.965 68.256,-3.936C68.256,-4.885 68.048,-5.619 67.632,-6.136C67.216,-6.653 66.629,-6.912 65.872,-6.912C65.115,-6.912 64.528,-6.653 64.112,-6.136C63.696,-5.619 63.488,-4.885 63.488,-3.936C63.488,-2.976 63.693,-2.24 64.104,-1.728C64.515,-1.216 65.104,-0.96 65.872,-0.96C66.64,-0.96 67.229,-1.213 67.64,-1.72Z" style="fill-rule:nonzero;"/>
                <path d="M73.664,-9.72C73.376,-9.405 73.232,-8.933 73.232,-8.304L73.232,-7.792L75.008,-7.792C75.189,-7.792 75.328,-7.744 75.424,-7.648C75.52,-7.552 75.568,-7.424 75.568,-7.264C75.568,-7.104 75.52,-6.981 75.424,-6.896C75.328,-6.811 75.189,-6.768 75.008,-6.768L73.232,-6.768L73.232,-0.56C73.232,-0.357 73.171,-0.2 73.048,-0.088C72.925,0.024 72.773,0.08 72.592,0.08C72.4,0.08 72.243,0.024 72.12,-0.088C71.997,-0.2 71.936,-0.357 71.936,-0.56L71.936,-6.768L70.864,-6.768C70.683,-6.768 70.541,-6.813 70.44,-6.904C70.339,-6.995 70.288,-7.115 70.288,-7.264C70.288,-7.424 70.339,-7.552 70.44,-7.648C70.541,-7.744 70.683,-7.792 70.864,-7.792L71.936,-7.792L71.936,-8.08C71.936,-9.04 72.176,-9.795 72.656,-10.344C73.136,-10.893 73.824,-11.2 74.72,-11.264L75.136,-11.296C75.413,-11.317 75.613,-11.291 75.736,-11.216C75.859,-11.141 75.92,-11.008 75.92,-10.816C75.92,-10.507 75.733,-10.331 75.36,-10.288L74.944,-10.256C74.379,-10.213 73.952,-10.035 73.664,-9.72Z" style="fill-rule:nonzero;"/>
                <path d="M81.064,-0.088C80.941,-0.2 80.88,-0.357 80.88,-0.56L80.88,-7.312C80.88,-7.515 80.941,-7.672 81.064,-7.784C81.187,-7.896 81.344,-7.952 81.536,-7.952C81.728,-7.952 81.883,-7.896 82,-7.784C82.117,-7.672 82.176,-7.515 82.176,-7.312L82.176,-0.56C82.176,-0.347 82.117,-0.187 82,-0.08C81.883,0.027 81.728,0.08 81.536,0.08C81.344,0.08 81.187,0.024 81.064,-0.088ZM80.912,-9.856C80.752,-10.005 80.672,-10.203 80.672,-10.448C80.672,-10.683 80.752,-10.875 80.912,-11.024C81.072,-11.173 81.28,-11.248 81.536,-11.248C81.792,-11.248 82,-11.173 82.16,-11.024C82.32,-10.875 82.4,-10.683 82.4,-10.448C82.4,-10.203 82.32,-10.005 82.16,-9.856C82,-9.707 81.792,-9.632 81.536,-9.632C81.28,-9.632 81.072,-9.707 80.912,-9.856Z" style="fill-rule:nonzero;"/>
                <path d="M91.312,-4.896L91.312,-0.56C91.312,-0.357 91.256,-0.2 91.144,-0.088C91.032,0.024 90.875,0.08 90.672,0.08C90.469,0.08 90.309,0.024 90.192,-0.088C90.075,-0.2 90.016,-0.357 90.016,-0.56L90.016,-4.816C90.016,-5.541 89.875,-6.069 89.592,-6.4C89.309,-6.731 88.859,-6.896 88.24,-6.896C87.525,-6.896 86.955,-6.677 86.528,-6.24C86.101,-5.803 85.888,-5.211 85.888,-4.464L85.888,-0.56C85.888,-0.357 85.832,-0.2 85.72,-0.088C85.608,0.024 85.451,0.08 85.248,0.08C85.045,0.08 84.885,0.024 84.768,-0.088C84.651,-0.2 84.592,-0.357 84.592,-0.56L84.592,-7.312C84.592,-7.504 84.651,-7.659 84.768,-7.776C84.885,-7.893 85.045,-7.952 85.248,-7.952C85.44,-7.952 85.592,-7.893 85.704,-7.776C85.816,-7.659 85.872,-7.509 85.872,-7.328L85.872,-6.512C86.128,-6.992 86.485,-7.357 86.944,-7.608C87.403,-7.859 87.925,-7.984 88.512,-7.984C90.379,-7.984 91.312,-6.955 91.312,-4.896Z" style="fill-rule:nonzero;"/>
                <path d="M97.84,-0.432C97.84,-0.251 97.773,-0.115 97.64,-0.024C97.507,0.067 97.307,0.101 97.04,0.08L96.608,0.048C95.755,-0.016 95.125,-0.272 94.72,-0.72C94.315,-1.168 94.112,-1.845 94.112,-2.752L94.112,-6.768L93.04,-6.768C92.859,-6.768 92.717,-6.813 92.616,-6.904C92.515,-6.995 92.464,-7.115 92.464,-7.264C92.464,-7.424 92.515,-7.552 92.616,-7.648C92.717,-7.744 92.859,-7.792 93.04,-7.792L94.112,-7.792L94.112,-9.6C94.112,-9.803 94.171,-9.96 94.288,-10.072C94.405,-10.184 94.565,-10.24 94.768,-10.24C94.96,-10.24 95.115,-10.184 95.232,-10.072C95.349,-9.96 95.408,-9.803 95.408,-9.6L95.408,-7.792L97.184,-7.792C97.355,-7.792 97.491,-7.744 97.592,-7.648C97.693,-7.552 97.744,-7.424 97.744,-7.264C97.744,-7.115 97.693,-6.995 97.592,-6.904C97.491,-6.813 97.355,-6.768 97.184,-6.768L95.408,-6.768L95.408,-2.688C95.408,-2.101 95.528,-1.677 95.768,-1.416C96.008,-1.155 96.368,-1.008 96.848,-0.976L97.28,-0.944C97.653,-0.912 97.84,-0.741 97.84,-0.432Z" style="fill-rule:nonzero;"/>
                <path d="M103.648,-7.408C103.648,-7.237 103.6,-7.101 103.504,-7C103.408,-6.899 103.243,-6.837 103.008,-6.816L102.528,-6.768C101.813,-6.704 101.283,-6.451 100.936,-6.008C100.589,-5.565 100.416,-5.045 100.416,-4.448L100.416,-0.56C100.416,-0.347 100.357,-0.187 100.24,-0.08C100.123,0.027 99.968,0.08 99.776,0.08C99.584,0.08 99.427,0.024 99.304,-0.088C99.181,-0.2 99.12,-0.357 99.12,-0.56L99.12,-7.312C99.12,-7.515 99.184,-7.672 99.312,-7.784C99.44,-7.896 99.595,-7.952 99.776,-7.952C99.947,-7.952 100.091,-7.896 100.208,-7.784C100.325,-7.672 100.384,-7.52 100.384,-7.328L100.384,-6.432C100.608,-6.901 100.925,-7.259 101.336,-7.504C101.747,-7.749 102.219,-7.893 102.752,-7.936L102.976,-7.952C103.424,-7.984 103.648,-7.803 103.648,-7.408Z" style="fill-rule:nonzero;"/>
                <path d="M105.896,-0.384C105.336,-0.715 104.904,-1.187 104.6,-1.8C104.296,-2.413 104.144,-3.125 104.144,-3.936C104.144,-4.747 104.296,-5.459 104.6,-6.072C104.904,-6.685 105.336,-7.157 105.896,-7.488C106.456,-7.819 107.104,-7.984 107.84,-7.984C108.576,-7.984 109.227,-7.819 109.792,-7.488C110.357,-7.157 110.792,-6.685 111.096,-6.072C111.4,-5.459 111.552,-4.747 111.552,-3.936C111.552,-3.125 111.4,-2.413 111.096,-1.8C110.792,-1.187 110.357,-0.715 109.792,-0.384C109.227,-0.053 108.576,0.112 107.84,0.112C107.104,0.112 106.456,-0.053 105.896,-0.384ZM109.608,-1.72C110.019,-2.227 110.224,-2.965 110.224,-3.936C110.224,-4.885 110.016,-5.619 109.6,-6.136C109.184,-6.653 108.597,-6.912 107.84,-6.912C107.083,-6.912 106.496,-6.653 106.08,-6.136C105.664,-5.619 105.456,-4.885 105.456,-3.936C105.456,-2.976 105.661,-2.24 106.072,-1.728C106.483,-1.216 107.072,-0.96 107.84,-0.96C108.608,-0.96 109.197,-1.213 109.608,-1.72Z" style="fill-rule:nonzero;"/>
                <path d="M120.224,-11.184C120.341,-11.067 120.4,-10.917 120.4,-10.736L120.4,-0.56C120.4,-0.368 120.341,-0.213 120.224,-0.096C120.107,0.021 119.947,0.08 119.744,0.08C119.541,0.08 119.384,0.021 119.272,-0.096C119.16,-0.213 119.104,-0.368 119.104,-0.56L119.104,-1.424C118.869,-0.933 118.525,-0.555 118.072,-0.288C117.619,-0.021 117.088,0.112 116.48,0.112C115.797,0.112 115.195,-0.059 114.672,-0.4C114.149,-0.741 113.744,-1.219 113.456,-1.832C113.168,-2.445 113.024,-3.157 113.024,-3.968C113.024,-4.768 113.168,-5.472 113.456,-6.08C113.744,-6.688 114.149,-7.157 114.672,-7.488C115.195,-7.819 115.797,-7.984 116.48,-7.984C117.088,-7.984 117.619,-7.851 118.072,-7.584C118.525,-7.317 118.869,-6.939 119.104,-6.448L119.104,-10.736C119.104,-10.928 119.16,-11.08 119.272,-11.192C119.384,-11.304 119.541,-11.36 119.744,-11.36C119.947,-11.36 120.107,-11.301 120.224,-11.184ZM118.488,-1.736C118.899,-2.253 119.104,-2.987 119.104,-3.936C119.104,-4.885 118.899,-5.616 118.488,-6.128C118.077,-6.64 117.493,-6.896 116.736,-6.896C115.979,-6.896 115.389,-6.64 114.968,-6.128C114.547,-5.616 114.336,-4.896 114.336,-3.968C114.336,-3.019 114.547,-2.28 114.968,-1.752C115.389,-1.224 115.979,-0.96 116.736,-0.96C117.493,-0.96 118.077,-1.219 118.488,-1.736Z" style="fill-rule:nonzero;"/>
                <path d="M129.192,-7.776C129.304,-7.659 129.36,-7.504 129.36,-7.312L129.36,-0.544C129.36,-0.363 129.304,-0.213 129.192,-0.096C129.08,0.021 128.923,0.08 128.72,0.08C128.528,0.08 128.376,0.024 128.264,-0.088C128.152,-0.2 128.096,-0.347 128.096,-0.528L128.096,-1.328C127.851,-0.859 127.507,-0.501 127.064,-0.256C126.621,-0.011 126.123,0.112 125.568,0.112C124.64,0.112 123.941,-0.147 123.472,-0.664C123.003,-1.181 122.768,-1.947 122.768,-2.96L122.768,-7.312C122.768,-7.504 122.827,-7.659 122.944,-7.776C123.061,-7.893 123.221,-7.952 123.424,-7.952C123.627,-7.952 123.784,-7.893 123.896,-7.776C124.008,-7.659 124.064,-7.504 124.064,-7.312L124.064,-2.992C124.064,-2.299 124.203,-1.789 124.48,-1.464C124.757,-1.139 125.195,-0.976 125.792,-0.976C126.475,-0.976 127.024,-1.197 127.44,-1.64C127.856,-2.083 128.064,-2.667 128.064,-3.392L128.064,-7.312C128.064,-7.504 128.123,-7.659 128.24,-7.776C128.357,-7.893 128.517,-7.952 128.72,-7.952C128.923,-7.952 129.08,-7.893 129.192,-7.776Z" style="fill-rule:nonzero;"/>
                <path d="M133.064,-0.384C132.504,-0.715 132.072,-1.184 131.768,-1.792C131.464,-2.4 131.312,-3.104 131.312,-3.904C131.312,-4.704 131.469,-5.413 131.784,-6.032C132.099,-6.651 132.539,-7.131 133.104,-7.472C133.669,-7.813 134.32,-7.984 135.056,-7.984C135.461,-7.984 135.864,-7.928 136.264,-7.816C136.664,-7.704 137.013,-7.541 137.312,-7.328C137.504,-7.2 137.64,-7.075 137.72,-6.952C137.8,-6.829 137.84,-6.693 137.84,-6.544C137.84,-6.395 137.8,-6.272 137.72,-6.176C137.64,-6.08 137.536,-6.032 137.408,-6.032C137.333,-6.032 137.253,-6.053 137.168,-6.096C137.083,-6.139 137.011,-6.181 136.952,-6.224C136.893,-6.267 136.853,-6.293 136.832,-6.304C136.555,-6.485 136.291,-6.629 136.04,-6.736C135.789,-6.843 135.483,-6.896 135.12,-6.896C134.341,-6.896 133.736,-6.632 133.304,-6.104C132.872,-5.576 132.656,-4.843 132.656,-3.904C132.656,-2.965 132.872,-2.24 133.304,-1.728C133.736,-1.216 134.341,-0.96 135.12,-0.96C135.483,-0.96 135.795,-1.013 136.056,-1.12C136.317,-1.227 136.581,-1.371 136.848,-1.552C136.965,-1.627 137.077,-1.691 137.184,-1.744C137.291,-1.797 137.381,-1.824 137.456,-1.824C137.573,-1.824 137.672,-1.776 137.752,-1.68C137.832,-1.584 137.872,-1.461 137.872,-1.312C137.872,-1.173 137.835,-1.048 137.76,-0.936C137.685,-0.824 137.547,-0.699 137.344,-0.56C137.045,-0.357 136.685,-0.195 136.264,-0.072C135.843,0.051 135.419,0.112 134.992,0.112C134.267,0.112 133.624,-0.053 133.064,-0.384Z" style="fill-rule:nonzero;"/>
                <path d="M139.624,-0.088C139.501,-0.2 139.44,-0.357 139.44,-0.56L139.44,-7.312C139.44,-7.515 139.501,-7.672 139.624,-7.784C139.747,-7.896 139.904,-7.952 140.096,-7.952C140.288,-7.952 140.443,-7.896 140.56,-7.784C140.677,-7.672 140.736,-7.515 140.736,-7.312L140.736,-0.56C140.736,-0.347 140.677,-0.187 140.56,-0.08C140.443,0.027 140.288,0.08 140.096,0.08C139.904,0.08 139.747,0.024 139.624,-0.088ZM139.472,-9.856C139.312,-10.005 139.232,-10.203 139.232,-10.448C139.232,-10.683 139.312,-10.875 139.472,-11.024C139.632,-11.173 139.84,-11.248 140.096,-11.248C140.352,-11.248 140.56,-11.173 140.72,-11.024C140.88,-10.875 140.96,-10.683 140.96,-10.448C140.96,-10.203 140.88,-10.005 140.72,-9.856C140.56,-9.707 140.352,-9.632 140.096,-9.632C139.84,-9.632 139.632,-9.707 139.472,-9.856Z" style="fill-rule:nonzero;"/>
                <path d="M149.872,-4.896L149.872,-0.56C149.872,-0.357 149.816,-0.2 149.704,-0.088C149.592,0.024 149.435,0.08 149.232,0.08C149.029,0.08 148.869,0.024 148.752,-0.088C148.635,-0.2 148.576,-0.357 148.576,-0.56L148.576,-4.816C148.576,-5.541 148.435,-6.069 148.152,-6.4C147.869,-6.731 147.419,-6.896 146.8,-6.896C146.085,-6.896 145.515,-6.677 145.088,-6.24C144.661,-5.803 144.448,-5.211 144.448,-4.464L144.448,-0.56C144.448,-0.357 144.392,-0.2 144.28,-0.088C144.168,0.024 144.011,0.08 143.808,0.08C143.605,0.08 143.445,0.024 143.328,-0.088C143.211,-0.2 143.152,-0.357 143.152,-0.56L143.152,-7.312C143.152,-7.504 143.211,-7.659 143.328,-7.776C143.445,-7.893 143.605,-7.952 143.808,-7.952C144,-7.952 144.152,-7.893 144.264,-7.776C144.376,-7.659 144.432,-7.509 144.432,-7.328L144.432,-6.512C144.688,-6.992 145.045,-7.357 145.504,-7.608C145.963,-7.859 146.485,-7.984 147.072,-7.984C148.939,-7.984 149.872,-6.955 149.872,-4.896Z" style="fill-rule:nonzero;"/>
                <path d="M159.04,-7.776C159.157,-7.659 159.216,-7.504 159.216,-7.312L159.216,-0.528C159.216,0.635 158.917,1.512 158.32,2.104C157.723,2.696 156.837,2.992 155.664,2.992C154.523,2.992 153.573,2.768 152.816,2.32C152.432,2.107 152.24,1.861 152.24,1.584C152.24,1.435 152.28,1.312 152.36,1.216C152.44,1.12 152.544,1.072 152.672,1.072C152.779,1.072 152.971,1.147 153.248,1.296C153.621,1.488 153.989,1.643 154.352,1.76C154.715,1.877 155.147,1.936 155.648,1.936C156.405,1.936 156.976,1.736 157.36,1.336C157.744,0.936 157.936,0.352 157.936,-0.416L157.936,-1.792C157.712,-1.291 157.368,-0.907 156.904,-0.64C156.44,-0.373 155.893,-0.24 155.264,-0.24C154.581,-0.24 153.976,-0.4 153.448,-0.72C152.92,-1.04 152.509,-1.493 152.216,-2.08C151.923,-2.667 151.776,-3.344 151.776,-4.112C151.776,-4.88 151.923,-5.557 152.216,-6.144C152.509,-6.731 152.92,-7.184 153.448,-7.504C153.976,-7.824 154.581,-7.984 155.264,-7.984C155.883,-7.984 156.421,-7.851 156.88,-7.584C157.339,-7.317 157.685,-6.939 157.92,-6.448L157.92,-7.312C157.92,-7.504 157.976,-7.659 158.088,-7.776C158.2,-7.893 158.357,-7.952 158.56,-7.952C158.763,-7.952 158.923,-7.893 159.04,-7.776ZM157.28,-2.056C157.707,-2.552 157.92,-3.237 157.92,-4.112C157.92,-4.976 157.709,-5.656 157.288,-6.152C156.867,-6.648 156.277,-6.896 155.52,-6.896C154.763,-6.896 154.168,-6.648 153.736,-6.152C153.304,-5.656 153.088,-4.976 153.088,-4.112C153.088,-3.237 153.304,-2.552 153.736,-2.056C154.168,-1.56 154.763,-1.312 155.52,-1.312C156.267,-1.312 156.853,-1.56 157.28,-2.056Z" style="fill-rule:nonzero;"/>
                <path d="M180.576,-11.272C180.683,-11.341 180.8,-11.376 180.928,-11.376C181.099,-11.376 181.245,-11.325 181.368,-11.224C181.491,-11.123 181.552,-10.987 181.552,-10.816C181.552,-10.741 181.536,-10.656 181.504,-10.56L177.888,-0.368C177.835,-0.219 177.744,-0.104 177.616,-0.024C177.488,0.056 177.344,0.096 177.184,0.096C177.035,0.096 176.896,0.056 176.768,-0.024C176.64,-0.104 176.549,-0.219 176.496,-0.368L173.36,-9.232L170.192,-0.368C170.139,-0.219 170.048,-0.104 169.92,-0.024C169.792,0.056 169.653,0.096 169.504,0.096C169.355,0.096 169.216,0.056 169.088,-0.024C168.96,-0.104 168.869,-0.219 168.816,-0.368L165.184,-10.56C165.152,-10.645 165.136,-10.725 165.136,-10.8C165.136,-10.971 165.203,-11.109 165.336,-11.216C165.469,-11.323 165.621,-11.376 165.792,-11.376C165.92,-11.376 166.04,-11.341 166.152,-11.272C166.264,-11.203 166.341,-11.099 166.384,-10.96L169.536,-1.872L172.736,-10.864C172.789,-11.024 172.875,-11.144 172.992,-11.224C173.109,-11.304 173.237,-11.344 173.376,-11.344C173.515,-11.344 173.643,-11.301 173.76,-11.216C173.877,-11.131 173.963,-11.008 174.016,-10.848L177.168,-1.84L180.352,-10.96C180.395,-11.099 180.469,-11.203 180.576,-11.272Z" style="fill-rule:nonzero;"/>
                <path d="M192.32,-0.48C192.32,-0.32 192.259,-0.187 192.136,-0.08C192.013,0.027 191.867,0.08 191.696,0.08C191.429,0.08 191.243,-0.048 191.136,-0.304L190,-2.896L183.968,-2.896L182.816,-0.304C182.709,-0.048 182.523,0.08 182.256,0.08C182.085,0.08 181.936,0.024 181.808,-0.088C181.68,-0.2 181.616,-0.336 181.616,-0.496C181.616,-0.581 181.637,-0.667 181.68,-0.752L186.256,-10.928C186.32,-11.077 186.416,-11.189 186.544,-11.264C186.672,-11.339 186.811,-11.376 186.96,-11.376C187.12,-11.376 187.264,-11.336 187.392,-11.256C187.52,-11.176 187.616,-11.067 187.68,-10.928L192.256,-0.752C192.299,-0.667 192.32,-0.576 192.32,-0.48ZM184.448,-3.984L189.52,-3.984L186.976,-9.728L184.448,-3.984Z" style="fill-rule:nonzero;"/>
                <path d="M203.056,-11.176C203.163,-11.053 203.216,-10.891 203.216,-10.688L203.216,-0.592C203.216,-0.389 203.16,-0.227 203.048,-0.104C202.936,0.019 202.779,0.08 202.576,0.08C202.373,0.08 202.197,-0.011 202.048,-0.192L195.408,-9.072L195.408,-0.592C195.408,-0.389 195.352,-0.227 195.24,-0.104C195.128,0.019 194.976,0.08 194.784,0.08C194.592,0.08 194.443,0.019 194.336,-0.104C194.229,-0.227 194.176,-0.389 194.176,-0.592L194.176,-10.688C194.176,-10.891 194.232,-11.053 194.344,-11.176C194.456,-11.299 194.613,-11.36 194.816,-11.36C195.029,-11.36 195.211,-11.269 195.36,-11.088L201.984,-2.208L201.984,-10.688C201.984,-10.891 202.04,-11.053 202.152,-11.176C202.264,-11.299 202.416,-11.36 202.608,-11.36C202.8,-11.36 202.949,-11.299 203.056,-11.176Z" style="fill-rule:nonzero;"/>
                <path d="M216.048,-4.912L216.048,-0.56C216.048,-0.368 215.992,-0.213 215.88,-0.096C215.768,0.021 215.616,0.08 215.424,0.08C215.232,0.08 215.077,0.021 214.96,-0.096C214.843,-0.213 214.784,-0.368 214.784,-0.56L214.784,-1.328C214.581,-0.869 214.272,-0.515 213.856,-0.264C213.44,-0.013 212.96,0.112 212.416,0.112C211.915,0.112 211.453,0.011 211.032,-0.192C210.611,-0.395 210.277,-0.677 210.032,-1.04C209.787,-1.403 209.664,-1.803 209.664,-2.24C209.664,-2.827 209.813,-3.283 210.112,-3.608C210.411,-3.933 210.901,-4.168 211.584,-4.312C212.267,-4.456 213.216,-4.528 214.432,-4.528L214.784,-4.528L214.784,-5.056C214.784,-5.696 214.653,-6.165 214.392,-6.464C214.131,-6.763 213.707,-6.912 213.12,-6.912C212.395,-6.912 211.659,-6.715 210.912,-6.32C210.624,-6.139 210.421,-6.048 210.304,-6.048C210.176,-6.048 210.069,-6.096 209.984,-6.192C209.899,-6.288 209.856,-6.411 209.856,-6.56C209.856,-6.709 209.901,-6.84 209.992,-6.952C210.083,-7.064 210.229,-7.179 210.432,-7.296C210.805,-7.509 211.229,-7.677 211.704,-7.8C212.179,-7.923 212.651,-7.984 213.12,-7.984C215.072,-7.984 216.048,-6.96 216.048,-4.912ZM214.168,-1.56C214.579,-1.992 214.784,-2.549 214.784,-3.232L214.784,-3.696L214.496,-3.696C213.557,-3.696 212.843,-3.656 212.352,-3.576C211.861,-3.496 211.512,-3.363 211.304,-3.176C211.096,-2.989 210.992,-2.715 210.992,-2.352C210.992,-1.936 211.144,-1.592 211.448,-1.32C211.752,-1.048 212.133,-0.912 212.592,-0.912C213.232,-0.912 213.757,-1.128 214.168,-1.56Z" style="fill-rule:nonzero;"/>
                <path d="M219.704,-0.384C219.144,-0.715 218.712,-1.184 218.408,-1.792C218.104,-2.4 217.952,-3.104 217.952,-3.904C217.952,-4.704 218.109,-5.413 218.424,-6.032C218.739,-6.651 219.179,-7.131 219.744,-7.472C220.309,-7.813 220.96,-7.984 221.696,-7.984C222.101,-7.984 222.504,-7.928 222.904,-7.816C223.304,-7.704 223.653,-7.541 223.952,-7.328C224.144,-7.2 224.28,-7.075 224.36,-6.952C224.44,-6.829 224.48,-6.693 224.48,-6.544C224.48,-6.395 224.44,-6.272 224.36,-6.176C224.28,-6.08 224.176,-6.032 224.048,-6.032C223.973,-6.032 223.893,-6.053 223.808,-6.096C223.723,-6.139 223.651,-6.181 223.592,-6.224C223.533,-6.267 223.493,-6.293 223.472,-6.304C223.195,-6.485 222.931,-6.629 222.68,-6.736C222.429,-6.843 222.123,-6.896 221.76,-6.896C220.981,-6.896 220.376,-6.632 219.944,-6.104C219.512,-5.576 219.296,-4.843 219.296,-3.904C219.296,-2.965 219.512,-2.24 219.944,-1.728C220.376,-1.216 220.981,-0.96 221.76,-0.96C222.123,-0.96 222.435,-1.013 222.696,-1.12C222.957,-1.227 223.221,-1.371 223.488,-1.552C223.605,-1.627 223.717,-1.691 223.824,-1.744C223.931,-1.797 224.021,-1.824 224.096,-1.824C224.213,-1.824 224.312,-1.776 224.392,-1.68C224.472,-1.584 224.512,-1.461 224.512,-1.312C224.512,-1.173 224.475,-1.048 224.4,-0.936C224.325,-0.824 224.187,-0.699 223.984,-0.56C223.685,-0.357 223.325,-0.195 222.904,-0.072C222.483,0.051 222.059,0.112 221.632,0.112C220.907,0.112 220.264,-0.053 219.704,-0.384Z" style="fill-rule:nonzero;"/>
                <path d="M227.368,-0.384C226.808,-0.715 226.376,-1.184 226.072,-1.792C225.768,-2.4 225.616,-3.104 225.616,-3.904C225.616,-4.704 225.773,-5.413 226.088,-6.032C226.403,-6.651 226.843,-7.131 227.408,-7.472C227.973,-7.813 228.624,-7.984 229.36,-7.984C229.765,-7.984 230.168,-7.928 230.568,-7.816C230.968,-7.704 231.317,-7.541 231.616,-7.328C231.808,-7.2 231.944,-7.075 232.024,-6.952C232.104,-6.829 232.144,-6.693 232.144,-6.544C232.144,-6.395 232.104,-6.272 232.024,-6.176C231.944,-6.08 231.84,-6.032 231.712,-6.032C231.637,-6.032 231.557,-6.053 231.472,-6.096C231.387,-6.139 231.315,-6.181 231.256,-6.224C231.197,-6.267 231.157,-6.293 231.136,-6.304C230.859,-6.485 230.595,-6.629 230.344,-6.736C230.093,-6.843 229.787,-6.896 229.424,-6.896C228.645,-6.896 228.04,-6.632 227.608,-6.104C227.176,-5.576 226.96,-4.843 226.96,-3.904C226.96,-2.965 227.176,-2.24 227.608,-1.728C228.04,-1.216 228.645,-0.96 229.424,-0.96C229.787,-0.96 230.099,-1.013 230.36,-1.12C230.621,-1.227 230.885,-1.371 231.152,-1.552C231.269,-1.627 231.381,-1.691 231.488,-1.744C231.595,-1.797 231.685,-1.824 231.76,-1.824C231.877,-1.824 231.976,-1.776 232.056,-1.68C232.136,-1.584 232.176,-1.461 232.176,-1.312C232.176,-1.173 232.139,-1.048 232.064,-0.936C231.989,-0.824 231.851,-0.699 231.648,-0.56C231.349,-0.357 230.989,-0.195 230.568,-0.072C230.147,0.051 229.723,0.112 229.296,0.112C228.571,0.112 227.928,-0.053 227.368,-0.384Z" style="fill-rule:nonzero;"/>
                <path d="M240.08,-1.664C240.165,-1.568 240.208,-1.445 240.208,-1.296C240.208,-1.029 240.021,-0.784 239.648,-0.56C239.264,-0.336 238.859,-0.168 238.432,-0.056C238.005,0.056 237.589,0.112 237.184,0.112C235.979,0.112 235.027,-0.245 234.328,-0.96C233.629,-1.675 233.28,-2.661 233.28,-3.92C233.28,-4.72 233.435,-5.427 233.744,-6.04C234.053,-6.653 234.488,-7.131 235.048,-7.472C235.608,-7.813 236.245,-7.984 236.96,-7.984C237.973,-7.984 238.779,-7.653 239.376,-6.992C239.973,-6.331 240.272,-5.435 240.272,-4.304C240.272,-4.091 240.229,-3.936 240.144,-3.84C240.059,-3.744 239.92,-3.696 239.728,-3.696L234.576,-3.696C234.672,-1.861 235.541,-0.944 237.184,-0.944C237.6,-0.944 237.957,-1 238.256,-1.112C238.555,-1.224 238.875,-1.376 239.216,-1.568C239.493,-1.728 239.68,-1.808 239.776,-1.808C239.893,-1.808 239.995,-1.76 240.08,-1.664ZM235.336,-6.336C234.925,-5.909 234.683,-5.307 234.608,-4.528L239.136,-4.528C239.115,-5.317 238.917,-5.923 238.544,-6.344C238.171,-6.765 237.648,-6.976 236.976,-6.976C236.293,-6.976 235.747,-6.763 235.336,-6.336Z" style="fill-rule:nonzero;"/>
                <path d="M242.36,-0.088C242.237,-0.2 242.176,-0.357 242.176,-0.56L242.176,-10.72C242.176,-10.923 242.237,-11.08 242.36,-11.192C242.483,-11.304 242.64,-11.36 242.832,-11.36C243.013,-11.36 243.165,-11.304 243.288,-11.192C243.411,-11.08 243.472,-10.923 243.472,-10.72L243.472,-0.56C243.472,-0.357 243.411,-0.2 243.288,-0.088C243.165,0.024 243.013,0.08 242.832,0.08C242.64,0.08 242.483,0.024 242.36,-0.088Z" style="fill-rule:nonzero;"/>
                <path d="M252.224,-1.664C252.309,-1.568 252.352,-1.445 252.352,-1.296C252.352,-1.029 252.165,-0.784 251.792,-0.56C251.408,-0.336 251.003,-0.168 250.576,-0.056C250.149,0.056 249.733,0.112 249.328,0.112C248.123,0.112 247.171,-0.245 246.472,-0.96C245.773,-1.675 245.424,-2.661 245.424,-3.92C245.424,-4.72 245.579,-5.427 245.888,-6.04C246.197,-6.653 246.632,-7.131 247.192,-7.472C247.752,-7.813 248.389,-7.984 249.104,-7.984C250.117,-7.984 250.923,-7.653 251.52,-6.992C252.117,-6.331 252.416,-5.435 252.416,-4.304C252.416,-4.091 252.373,-3.936 252.288,-3.84C252.203,-3.744 252.064,-3.696 251.872,-3.696L246.72,-3.696C246.816,-1.861 247.685,-0.944 249.328,-0.944C249.744,-0.944 250.101,-1 250.4,-1.112C250.699,-1.224 251.019,-1.376 251.36,-1.568C251.637,-1.728 251.824,-1.808 251.92,-1.808C252.037,-1.808 252.139,-1.76 252.224,-1.664ZM247.48,-6.336C247.069,-5.909 246.827,-5.307 246.752,-4.528L251.28,-4.528C251.259,-5.317 251.061,-5.923 250.688,-6.344C250.315,-6.765 249.792,-6.976 249.12,-6.976C248.437,-6.976 247.891,-6.763 247.48,-6.336Z" style="fill-rule:nonzero;"/>
                <path d="M258.848,-7.408C258.848,-7.237 258.8,-7.101 258.704,-7C258.608,-6.899 258.443,-6.837 258.208,-6.816L257.728,-6.768C257.013,-6.704 256.483,-6.451 256.136,-6.008C255.789,-5.565 255.616,-5.045 255.616,-4.448L255.616,-0.56C255.616,-0.347 255.557,-0.187 255.44,-0.08C255.323,0.027 255.168,0.08 254.976,0.08C254.784,0.08 254.627,0.024 254.504,-0.088C254.381,-0.2 254.32,-0.357 254.32,-0.56L254.32,-7.312C254.32,-7.515 254.384,-7.672 254.512,-7.784C254.64,-7.896 254.795,-7.952 254.976,-7.952C255.147,-7.952 255.291,-7.896 255.408,-7.784C255.525,-7.672 255.584,-7.52 255.584,-7.328L255.584,-6.432C255.808,-6.901 256.125,-7.259 256.536,-7.504C256.947,-7.749 257.419,-7.893 257.952,-7.936L258.176,-7.952C258.624,-7.984 258.848,-7.803 258.848,-7.408Z" style="fill-rule:nonzero;"/>
                <path d="M266.016,-4.912L266.016,-0.56C266.016,-0.368 265.96,-0.213 265.848,-0.096C265.736,0.021 265.584,0.08 265.392,0.08C265.2,0.08 265.045,0.021 264.928,-0.096C264.811,-0.213 264.752,-0.368 264.752,-0.56L264.752,-1.328C264.549,-0.869 264.24,-0.515 263.824,-0.264C263.408,-0.013 262.928,0.112 262.384,0.112C261.883,0.112 261.421,0.011 261,-0.192C260.579,-0.395 260.245,-0.677 260,-1.04C259.755,-1.403 259.632,-1.803 259.632,-2.24C259.632,-2.827 259.781,-3.283 260.08,-3.608C260.379,-3.933 260.869,-4.168 261.552,-4.312C262.235,-4.456 263.184,-4.528 264.4,-4.528L264.752,-4.528L264.752,-5.056C264.752,-5.696 264.621,-6.165 264.36,-6.464C264.099,-6.763 263.675,-6.912 263.088,-6.912C262.363,-6.912 261.627,-6.715 260.88,-6.32C260.592,-6.139 260.389,-6.048 260.272,-6.048C260.144,-6.048 260.037,-6.096 259.952,-6.192C259.867,-6.288 259.824,-6.411 259.824,-6.56C259.824,-6.709 259.869,-6.84 259.96,-6.952C260.051,-7.064 260.197,-7.179 260.4,-7.296C260.773,-7.509 261.197,-7.677 261.672,-7.8C262.147,-7.923 262.619,-7.984 263.088,-7.984C265.04,-7.984 266.016,-6.96 266.016,-4.912ZM264.136,-1.56C264.547,-1.992 264.752,-2.549 264.752,-3.232L264.752,-3.696L264.464,-3.696C263.525,-3.696 262.811,-3.656 262.32,-3.576C261.829,-3.496 261.48,-3.363 261.272,-3.176C261.064,-2.989 260.96,-2.715 260.96,-2.352C260.96,-1.936 261.112,-1.592 261.416,-1.32C261.72,-1.048 262.101,-0.912 262.56,-0.912C263.2,-0.912 263.725,-1.128 264.136,-1.56Z" style="fill-rule:nonzero;"/>
                <path d="M272.544,-0.432C272.544,-0.251 272.477,-0.115 272.344,-0.024C272.211,0.067 272.011,0.101 271.744,0.08L271.312,0.048C270.459,-0.016 269.829,-0.272 269.424,-0.72C269.019,-1.168 268.816,-1.845 268.816,-2.752L268.816,-6.768L267.744,-6.768C267.563,-6.768 267.421,-6.813 267.32,-6.904C267.219,-6.995 267.168,-7.115 267.168,-7.264C267.168,-7.424 267.219,-7.552 267.32,-7.648C267.421,-7.744 267.563,-7.792 267.744,-7.792L268.816,-7.792L268.816,-9.6C268.816,-9.803 268.875,-9.96 268.992,-10.072C269.109,-10.184 269.269,-10.24 269.472,-10.24C269.664,-10.24 269.819,-10.184 269.936,-10.072C270.053,-9.96 270.112,-9.803 270.112,-9.6L270.112,-7.792L271.888,-7.792C272.059,-7.792 272.195,-7.744 272.296,-7.648C272.397,-7.552 272.448,-7.424 272.448,-7.264C272.448,-7.115 272.397,-6.995 272.296,-6.904C272.195,-6.813 272.059,-6.768 271.888,-6.768L270.112,-6.768L270.112,-2.688C270.112,-2.101 270.232,-1.677 270.472,-1.416C270.712,-1.155 271.072,-1.008 271.552,-0.976L271.984,-0.944C272.357,-0.912 272.544,-0.741 272.544,-0.432Z" style="fill-rule:nonzero;"/>
                <path d="M274.008,-0.088C273.885,-0.2 273.824,-0.357 273.824,-0.56L273.824,-7.312C273.824,-7.515 273.885,-7.672 274.008,-7.784C274.131,-7.896 274.288,-7.952 274.48,-7.952C274.672,-7.952 274.827,-7.896 274.944,-7.784C275.061,-7.672 275.12,-7.515 275.12,-7.312L275.12,-0.56C275.12,-0.347 275.061,-0.187 274.944,-0.08C274.827,0.027 274.672,0.08 274.48,0.08C274.288,0.08 274.131,0.024 274.008,-0.088ZM273.856,-9.856C273.696,-10.005 273.616,-10.203 273.616,-10.448C273.616,-10.683 273.696,-10.875 273.856,-11.024C274.016,-11.173 274.224,-11.248 274.48,-11.248C274.736,-11.248 274.944,-11.173 275.104,-11.024C275.264,-10.875 275.344,-10.683 275.344,-10.448C275.344,-10.203 275.264,-10.005 275.104,-9.856C274.944,-9.707 274.736,-9.632 274.48,-9.632C274.224,-9.632 274.016,-9.707 273.856,-9.856Z" style="fill-rule:nonzero;"/>
                <path d="M278.824,-0.384C278.264,-0.715 277.832,-1.187 277.528,-1.8C277.224,-2.413 277.072,-3.125 277.072,-3.936C277.072,-4.747 277.224,-5.459 277.528,-6.072C277.832,-6.685 278.264,-7.157 278.824,-7.488C279.384,-7.819 280.032,-7.984 280.768,-7.984C281.504,-7.984 282.155,-7.819 282.72,-7.488C283.285,-7.157 283.72,-6.685 284.024,-6.072C284.328,-5.459 284.48,-4.747 284.48,-3.936C284.48,-3.125 284.328,-2.413 284.024,-1.8C283.72,-1.187 283.285,-0.715 282.72,-0.384C282.155,-0.053 281.504,0.112 280.768,0.112C280.032,0.112 279.384,-0.053 278.824,-0.384ZM282.536,-1.72C282.947,-2.227 283.152,-2.965 283.152,-3.936C283.152,-4.885 282.944,-5.619 282.528,-6.136C282.112,-6.653 281.525,-6.912 280.768,-6.912C280.011,-6.912 279.424,-6.653 279.008,-6.136C278.592,-5.619 278.384,-4.885 278.384,-3.936C278.384,-2.976 278.589,-2.24 279,-1.728C279.411,-1.216 280,-0.96 280.768,-0.96C281.536,-0.96 282.125,-1.213 282.536,-1.72Z" style="fill-rule:nonzero;"/>
                <path d="M293.136,-4.896L293.136,-0.56C293.136,-0.357 293.08,-0.2 292.968,-0.088C292.856,0.024 292.699,0.08 292.496,0.08C292.293,0.08 292.133,0.024 292.016,-0.088C291.899,-0.2 291.84,-0.357 291.84,-0.56L291.84,-4.816C291.84,-5.541 291.699,-6.069 291.416,-6.4C291.133,-6.731 290.683,-6.896 290.064,-6.896C289.349,-6.896 288.779,-6.677 288.352,-6.24C287.925,-5.803 287.712,-5.211 287.712,-4.464L287.712,-0.56C287.712,-0.357 287.656,-0.2 287.544,-0.088C287.432,0.024 287.275,0.08 287.072,0.08C286.869,0.08 286.709,0.024 286.592,-0.088C286.475,-0.2 286.416,-0.357 286.416,-0.56L286.416,-7.312C286.416,-7.504 286.475,-7.659 286.592,-7.776C286.709,-7.893 286.869,-7.952 287.072,-7.952C287.264,-7.952 287.416,-7.893 287.528,-7.776C287.64,-7.659 287.696,-7.509 287.696,-7.328L287.696,-6.512C287.952,-6.992 288.309,-7.357 288.768,-7.608C289.227,-7.859 289.749,-7.984 290.336,-7.984C292.203,-7.984 293.136,-6.955 293.136,-4.896Z" style="fill-rule:nonzero;"/>
                <path d="M299.816,-0.088C299.693,-0.2 299.632,-0.357 299.632,-0.56L299.632,-7.312C299.632,-7.515 299.693,-7.672 299.816,-7.784C299.939,-7.896 300.096,-7.952 300.288,-7.952C300.48,-7.952 300.635,-7.896 300.752,-7.784C300.869,-7.672 300.928,-7.515 300.928,-7.312L300.928,-0.56C300.928,-0.347 300.869,-0.187 300.752,-0.08C300.635,0.027 300.48,0.08 300.288,0.08C300.096,0.08 299.939,0.024 299.816,-0.088ZM299.664,-9.856C299.504,-10.005 299.424,-10.203 299.424,-10.448C299.424,-10.683 299.504,-10.875 299.664,-11.024C299.824,-11.173 300.032,-11.248 300.288,-11.248C300.544,-11.248 300.752,-11.173 300.912,-11.024C301.072,-10.875 301.152,-10.683 301.152,-10.448C301.152,-10.203 301.072,-10.005 300.912,-9.856C300.752,-9.707 300.544,-9.632 300.288,-9.632C300.032,-9.632 299.824,-9.707 299.664,-9.856Z" style="fill-rule:nonzero;"/>
                <path d="M310.064,-4.896L310.064,-0.56C310.064,-0.357 310.008,-0.2 309.896,-0.088C309.784,0.024 309.627,0.08 309.424,0.08C309.221,0.08 309.061,0.024 308.944,-0.088C308.827,-0.2 308.768,-0.357 308.768,-0.56L308.768,-4.816C308.768,-5.541 308.627,-6.069 308.344,-6.4C308.061,-6.731 307.611,-6.896 306.992,-6.896C306.277,-6.896 305.707,-6.677 305.28,-6.24C304.853,-5.803 304.64,-5.211 304.64,-4.464L304.64,-0.56C304.64,-0.357 304.584,-0.2 304.472,-0.088C304.36,0.024 304.203,0.08 304,0.08C303.797,0.08 303.637,0.024 303.52,-0.088C303.403,-0.2 303.344,-0.357 303.344,-0.56L303.344,-7.312C303.344,-7.504 303.403,-7.659 303.52,-7.776C303.637,-7.893 303.797,-7.952 304,-7.952C304.192,-7.952 304.344,-7.893 304.456,-7.776C304.568,-7.659 304.624,-7.509 304.624,-7.328L304.624,-6.512C304.88,-6.992 305.237,-7.357 305.696,-7.608C306.155,-7.859 306.677,-7.984 307.264,-7.984C309.131,-7.984 310.064,-6.955 310.064,-4.896Z" style="fill-rule:nonzero;"/>
                <path d="M316.592,-0.432C316.592,-0.251 316.525,-0.115 316.392,-0.024C316.259,0.067 316.059,0.101 315.792,0.08L315.36,0.048C314.507,-0.016 313.877,-0.272 313.472,-0.72C313.067,-1.168 312.864,-1.845 312.864,-2.752L312.864,-6.768L311.792,-6.768C311.611,-6.768 311.469,-6.813 311.368,-6.904C311.267,-6.995 311.216,-7.115 311.216,-7.264C311.216,-7.424 311.267,-7.552 311.368,-7.648C311.469,-7.744 311.611,-7.792 311.792,-7.792L312.864,-7.792L312.864,-9.6C312.864,-9.803 312.923,-9.96 313.04,-10.072C313.157,-10.184 313.317,-10.24 313.52,-10.24C313.712,-10.24 313.867,-10.184 313.984,-10.072C314.101,-9.96 314.16,-9.803 314.16,-9.6L314.16,-7.792L315.936,-7.792C316.107,-7.792 316.243,-7.744 316.344,-7.648C316.445,-7.552 316.496,-7.424 316.496,-7.264C316.496,-7.115 316.445,-6.995 316.344,-6.904C316.243,-6.813 316.107,-6.768 315.936,-6.768L314.16,-6.768L314.16,-2.688C314.16,-2.101 314.28,-1.677 314.52,-1.416C314.76,-1.155 315.12,-1.008 315.6,-0.976L316.032,-0.944C316.405,-0.912 316.592,-0.741 316.592,-0.432Z" style="fill-rule:nonzero;"/>
                <path d="M319.16,-0.384C318.6,-0.715 318.168,-1.187 317.864,-1.8C317.56,-2.413 317.408,-3.125 317.408,-3.936C317.408,-4.747 317.56,-5.459 317.864,-6.072C318.168,-6.685 318.6,-7.157 319.16,-7.488C319.72,-7.819 320.368,-7.984 321.104,-7.984C321.84,-7.984 322.491,-7.819 323.056,-7.488C323.621,-7.157 324.056,-6.685 324.36,-6.072C324.664,-5.459 324.816,-4.747 324.816,-3.936C324.816,-3.125 324.664,-2.413 324.36,-1.8C324.056,-1.187 323.621,-0.715 323.056,-0.384C322.491,-0.053 321.84,0.112 321.104,0.112C320.368,0.112 319.72,-0.053 319.16,-0.384ZM322.872,-1.72C323.283,-2.227 323.488,-2.965 323.488,-3.936C323.488,-4.885 323.28,-5.619 322.864,-6.136C322.448,-6.653 321.861,-6.912 321.104,-6.912C320.347,-6.912 319.76,-6.653 319.344,-6.136C318.928,-5.619 318.72,-4.885 318.72,-3.936C318.72,-2.976 318.925,-2.24 319.336,-1.728C319.747,-1.216 320.336,-0.96 321.104,-0.96C321.872,-0.96 322.461,-1.213 322.872,-1.72Z" style="fill-rule:nonzero;"/>
                <path d="M335.04,-0.432C335.04,-0.251 334.973,-0.115 334.84,-0.024C334.707,0.067 334.507,0.101 334.24,0.08L333.808,0.048C332.955,-0.016 332.325,-0.272 331.92,-0.72C331.515,-1.168 331.312,-1.845 331.312,-2.752L331.312,-6.768L330.24,-6.768C330.059,-6.768 329.917,-6.813 329.816,-6.904C329.715,-6.995 329.664,-7.115 329.664,-7.264C329.664,-7.424 329.715,-7.552 329.816,-7.648C329.917,-7.744 330.059,-7.792 330.24,-7.792L331.312,-7.792L331.312,-9.6C331.312,-9.803 331.371,-9.96 331.488,-10.072C331.605,-10.184 331.765,-10.24 331.968,-10.24C332.16,-10.24 332.315,-10.184 332.432,-10.072C332.549,-9.96 332.608,-9.803 332.608,-9.6L332.608,-7.792L334.384,-7.792C334.555,-7.792 334.691,-7.744 334.792,-7.648C334.893,-7.552 334.944,-7.424 334.944,-7.264C334.944,-7.115 334.893,-6.995 334.792,-6.904C334.691,-6.813 334.555,-6.768 334.384,-6.768L332.608,-6.768L332.608,-2.688C332.608,-2.101 332.728,-1.677 332.968,-1.416C333.208,-1.155 333.568,-1.008 334.048,-0.976L334.48,-0.944C334.853,-0.912 335.04,-0.741 335.04,-0.432Z" style="fill-rule:nonzero;"/>
                <path d="M342.336,-7.208C342.805,-6.691 343.04,-5.92 343.04,-4.896L343.04,-0.56C343.04,-0.357 342.981,-0.2 342.864,-0.088C342.747,0.024 342.592,0.08 342.4,0.08C342.197,0.08 342.037,0.024 341.92,-0.088C341.803,-0.2 341.744,-0.357 341.744,-0.56L341.744,-4.864C341.744,-5.557 341.603,-6.069 341.32,-6.4C341.037,-6.731 340.587,-6.896 339.968,-6.896C339.253,-6.896 338.683,-6.677 338.256,-6.24C337.829,-5.803 337.616,-5.211 337.616,-4.464L337.616,-0.56C337.616,-0.357 337.56,-0.2 337.448,-0.088C337.336,0.024 337.179,0.08 336.976,0.08C336.773,0.08 336.613,0.024 336.496,-0.088C336.379,-0.2 336.32,-0.357 336.32,-0.56L336.32,-10.736C336.32,-10.917 336.381,-11.067 336.504,-11.184C336.627,-11.301 336.784,-11.36 336.976,-11.36C337.179,-11.36 337.336,-11.304 337.448,-11.192C337.56,-11.08 337.616,-10.928 337.616,-10.736L337.616,-6.544C337.872,-7.013 338.229,-7.371 338.688,-7.616C339.147,-7.861 339.669,-7.984 340.256,-7.984C341.173,-7.984 341.867,-7.725 342.336,-7.208Z" style="fill-rule:nonzero;"/>
                <path d="M351.744,-1.664C351.829,-1.568 351.872,-1.445 351.872,-1.296C351.872,-1.029 351.685,-0.784 351.312,-0.56C350.928,-0.336 350.523,-0.168 350.096,-0.056C349.669,0.056 349.253,0.112 348.848,0.112C347.643,0.112 346.691,-0.245 345.992,-0.96C345.293,-1.675 344.944,-2.661 344.944,-3.92C344.944,-4.72 345.099,-5.427 345.408,-6.04C345.717,-6.653 346.152,-7.131 346.712,-7.472C347.272,-7.813 347.909,-7.984 348.624,-7.984C349.637,-7.984 350.443,-7.653 351.04,-6.992C351.637,-6.331 351.936,-5.435 351.936,-4.304C351.936,-4.091 351.893,-3.936 351.808,-3.84C351.723,-3.744 351.584,-3.696 351.392,-3.696L346.24,-3.696C346.336,-1.861 347.205,-0.944 348.848,-0.944C349.264,-0.944 349.621,-1 349.92,-1.112C350.219,-1.224 350.539,-1.376 350.88,-1.568C351.157,-1.728 351.344,-1.808 351.44,-1.808C351.557,-1.808 351.659,-1.76 351.744,-1.664ZM347,-6.336C346.589,-5.909 346.347,-5.307 346.272,-4.528L350.8,-4.528C350.779,-5.317 350.581,-5.923 350.208,-6.344C349.835,-6.765 349.312,-6.976 348.64,-6.976C347.957,-6.976 347.411,-6.763 347,-6.336Z" style="fill-rule:nonzero;"/>
            </g>
            <g transform="matrix(1,0,0,1,49,922)">
                <path d="M7.92,-4.896L7.92,-0.56C7.92,-0.357 7.864,-0.2 7.752,-0.088C7.64,0.024 7.483,0.08 7.28,0.08C7.077,0.08 6.917,0.024 6.8,-0.088C6.683,-0.2 6.624,-0.357 6.624,-0.56L6.624,-4.816C6.624,-5.541 6.483,-6.069 6.2,-6.4C5.917,-6.731 5.467,-6.896 4.848,-6.896C4.133,-6.896 3.563,-6.677 3.136,-6.24C2.709,-5.803 2.496,-5.211 2.496,-4.464L2.496,-0.56C2.496,-0.357 2.44,-0.2 2.328,-0.088C2.216,0.024 2.059,0.08 1.856,0.08C1.653,0.08 1.493,0.024 1.376,-0.088C1.259,-0.2 1.2,-0.357 1.2,-0.56L1.2,-7.312C1.2,-7.504 1.259,-7.659 1.376,-7.776C1.493,-7.893 1.653,-7.952 1.856,-7.952C2.048,-7.952 2.2,-7.893 2.312,-7.776C2.424,-7.659 2.48,-7.509 2.48,-7.328L2.48,-6.512C2.736,-6.992 3.093,-7.357 3.552,-7.608C4.011,-7.859 4.533,-7.984 5.12,-7.984C6.987,-7.984 7.92,-6.955 7.92,-4.896Z" style="fill-rule:nonzero;"/>
                <path d="M16.624,-1.664C16.709,-1.568 16.752,-1.445 16.752,-1.296C16.752,-1.029 16.565,-0.784 16.192,-0.56C15.808,-0.336 15.403,-0.168 14.976,-0.056C14.549,0.056 14.133,0.112 13.728,0.112C12.523,0.112 11.571,-0.245 10.872,-0.96C10.173,-1.675 9.824,-2.661 9.824,-3.92C9.824,-4.72 9.979,-5.427 10.288,-6.04C10.597,-6.653 11.032,-7.131 11.592,-7.472C12.152,-7.813 12.789,-7.984 13.504,-7.984C14.517,-7.984 15.323,-7.653 15.92,-6.992C16.517,-6.331 16.816,-5.435 16.816,-4.304C16.816,-4.091 16.773,-3.936 16.688,-3.84C16.603,-3.744 16.464,-3.696 16.272,-3.696L11.12,-3.696C11.216,-1.861 12.085,-0.944 13.728,-0.944C14.144,-0.944 14.501,-1 14.8,-1.112C15.099,-1.224 15.419,-1.376 15.76,-1.568C16.037,-1.728 16.224,-1.808 16.32,-1.808C16.437,-1.808 16.539,-1.76 16.624,-1.664ZM11.88,-6.336C11.469,-5.909 11.227,-5.307 11.152,-4.528L15.68,-4.528C15.659,-5.317 15.461,-5.923 15.088,-6.344C14.715,-6.765 14.192,-6.976 13.52,-6.976C12.837,-6.976 12.291,-6.763 11.88,-6.336Z" style="fill-rule:nonzero;"/>
                <path d="M22.832,-0.432C22.832,-0.251 22.765,-0.115 22.632,-0.024C22.499,0.067 22.299,0.101 22.032,0.08L21.6,0.048C20.747,-0.016 20.117,-0.272 19.712,-0.72C19.307,-1.168 19.104,-1.845 19.104,-2.752L19.104,-6.768L18.032,-6.768C17.851,-6.768 17.709,-6.813 17.608,-6.904C17.507,-6.995 17.456,-7.115 17.456,-7.264C17.456,-7.424 17.507,-7.552 17.608,-7.648C17.709,-7.744 17.851,-7.792 18.032,-7.792L19.104,-7.792L19.104,-9.6C19.104,-9.803 19.163,-9.96 19.28,-10.072C19.397,-10.184 19.557,-10.24 19.76,-10.24C19.952,-10.24 20.107,-10.184 20.224,-10.072C20.341,-9.96 20.4,-9.803 20.4,-9.6L20.4,-7.792L22.176,-7.792C22.347,-7.792 22.483,-7.744 22.584,-7.648C22.685,-7.552 22.736,-7.424 22.736,-7.264C22.736,-7.115 22.685,-6.995 22.584,-6.904C22.483,-6.813 22.347,-6.768 22.176,-6.768L20.4,-6.768L20.4,-2.688C20.4,-2.101 20.52,-1.677 20.76,-1.416C21,-1.155 21.36,-1.008 21.84,-0.976L22.272,-0.944C22.645,-0.912 22.832,-0.741 22.832,-0.432Z" style="fill-rule:nonzero;"/>
                <path d="M35.392,-7.92C35.552,-7.92 35.696,-7.867 35.824,-7.76C35.952,-7.653 36.016,-7.52 36.016,-7.36C36.016,-7.285 36,-7.205 35.968,-7.12L33.312,-0.4C33.248,-0.261 33.155,-0.152 33.032,-0.072C32.909,0.008 32.773,0.048 32.624,0.048C32.485,0.048 32.355,0.008 32.232,-0.072C32.109,-0.152 32.016,-0.261 31.952,-0.4L29.744,-6.016L27.552,-0.4C27.499,-0.261 27.408,-0.152 27.28,-0.072C27.152,0.008 27.013,0.048 26.864,0.048C26.725,0.048 26.592,0.008 26.464,-0.072C26.336,-0.152 26.24,-0.261 26.176,-0.4L23.52,-7.104C23.488,-7.189 23.472,-7.264 23.472,-7.328C23.472,-7.499 23.544,-7.643 23.688,-7.76C23.832,-7.877 23.989,-7.936 24.16,-7.936C24.416,-7.936 24.597,-7.808 24.704,-7.552L26.896,-1.648L29.152,-7.504C29.216,-7.643 29.304,-7.749 29.416,-7.824C29.528,-7.899 29.648,-7.936 29.776,-7.936C29.915,-7.936 30.04,-7.899 30.152,-7.824C30.264,-7.749 30.347,-7.643 30.4,-7.504L32.656,-1.664L34.864,-7.536C34.971,-7.792 35.147,-7.92 35.392,-7.92Z" style="fill-rule:nonzero;"/>
                <path d="M38.872,-0.384C38.312,-0.715 37.88,-1.187 37.576,-1.8C37.272,-2.413 37.12,-3.125 37.12,-3.936C37.12,-4.747 37.272,-5.459 37.576,-6.072C37.88,-6.685 38.312,-7.157 38.872,-7.488C39.432,-7.819 40.08,-7.984 40.816,-7.984C41.552,-7.984 42.203,-7.819 42.768,-7.488C43.333,-7.157 43.768,-6.685 44.072,-6.072C44.376,-5.459 44.528,-4.747 44.528,-3.936C44.528,-3.125 44.376,-2.413 44.072,-1.8C43.768,-1.187 43.333,-0.715 42.768,-0.384C42.203,-0.053 41.552,0.112 40.816,0.112C40.08,0.112 39.432,-0.053 38.872,-0.384ZM42.584,-1.72C42.995,-2.227 43.2,-2.965 43.2,-3.936C43.2,-4.885 42.992,-5.619 42.576,-6.136C42.16,-6.653 41.573,-6.912 40.816,-6.912C40.059,-6.912 39.472,-6.653 39.056,-6.136C38.64,-5.619 38.432,-4.885 38.432,-3.936C38.432,-2.976 38.637,-2.24 39.048,-1.728C39.459,-1.216 40.048,-0.96 40.816,-0.96C41.584,-0.96 42.173,-1.213 42.584,-1.72Z" style="fill-rule:nonzero;"/>
                <path d="M50.992,-7.408C50.992,-7.237 50.944,-7.101 50.848,-7C50.752,-6.899 50.587,-6.837 50.352,-6.816L49.872,-6.768C49.157,-6.704 48.627,-6.451 48.28,-6.008C47.933,-5.565 47.76,-5.045 47.76,-4.448L47.76,-0.56C47.76,-0.347 47.701,-0.187 47.584,-0.08C47.467,0.027 47.312,0.08 47.12,0.08C46.928,0.08 46.771,0.024 46.648,-0.088C46.525,-0.2 46.464,-0.357 46.464,-0.56L46.464,-7.312C46.464,-7.515 46.528,-7.672 46.656,-7.784C46.784,-7.896 46.939,-7.952 47.12,-7.952C47.291,-7.952 47.435,-7.896 47.552,-7.784C47.669,-7.672 47.728,-7.52 47.728,-7.328L47.728,-6.432C47.952,-6.901 48.269,-7.259 48.68,-7.504C49.091,-7.749 49.563,-7.893 50.096,-7.936L50.32,-7.952C50.768,-7.984 50.992,-7.803 50.992,-7.408Z" style="fill-rule:nonzero;"/>
                <path d="M58.592,-0.512C58.592,-0.352 58.536,-0.213 58.424,-0.096C58.312,0.021 58.176,0.08 58.016,0.08C57.877,0.08 57.733,0.016 57.584,-0.112L53.408,-3.712L53.408,-0.56C53.408,-0.357 53.347,-0.2 53.224,-0.088C53.101,0.024 52.949,0.08 52.768,0.08C52.576,0.08 52.419,0.024 52.296,-0.088C52.173,-0.2 52.112,-0.357 52.112,-0.56L52.112,-10.72C52.112,-10.923 52.173,-11.08 52.296,-11.192C52.419,-11.304 52.576,-11.36 52.768,-11.36C52.949,-11.36 53.101,-11.304 53.224,-11.192C53.347,-11.08 53.408,-10.923 53.408,-10.72L53.408,-4.224L57.232,-7.728C57.36,-7.856 57.504,-7.92 57.664,-7.92C57.824,-7.92 57.963,-7.861 58.08,-7.744C58.197,-7.627 58.256,-7.488 58.256,-7.328C58.256,-7.147 58.181,-6.987 58.032,-6.848L54.88,-4.032L58.336,-1.024C58.507,-0.864 58.592,-0.693 58.592,-0.512Z" style="fill-rule:nonzero;"/>
                <path d="M60.288,-0.168C60.117,-0.333 60.032,-0.549 60.032,-0.816C60.032,-1.083 60.117,-1.301 60.288,-1.472C60.459,-1.643 60.672,-1.728 60.928,-1.728C61.173,-1.728 61.379,-1.643 61.544,-1.472C61.709,-1.301 61.792,-1.083 61.792,-0.816C61.792,-0.549 61.709,-0.333 61.544,-0.168C61.379,-0.003 61.173,0.08 60.928,0.08C60.672,0.08 60.459,-0.003 60.288,-0.168Z" style="fill-rule:nonzero;"/>
            </g>
        </g>
    </g>
</svg>
