<?xml version="1.0" encoding="UTF-8" standalone="no"?>
<!DOCTYPE svg PUBLIC "-//W3C//DTD SVG 1.1//EN" "http://www.w3.org/Graphics/SVG/1.1/DTD/svg11.dtd">
<svg width="100%" height="100%" viewBox="0 0 113 11" version="1.1" xmlns="http://www.w3.org/2000/svg" xmlns:xlink="http://www.w3.org/1999/xlink" xml:space="preserve" xmlns:serif="http://www.serif.com/" style="fill-rule:evenodd;clip-rule:evenodd;stroke-linejoin:round;stroke-miterlimit:1.41421;">
    <g transform="matrix(1,0,0,1,-166,-498)">
        <g transform="matrix(1,0,0,1,166,508)">
            <g id="WAN-acceleration">
                <path d="M14.028,-9.863C14.121,-9.924 14.224,-9.954 14.336,-9.954C14.485,-9.954 14.614,-9.91 14.721,-9.821C14.828,-9.732 14.882,-9.613 14.882,-9.464C14.882,-9.399 14.868,-9.324 14.84,-9.24L11.676,-0.322C11.629,-0.191 11.55,-0.091 11.438,-0.021C11.326,0.049 11.2,0.084 11.06,0.084C10.929,0.084 10.808,0.049 10.696,-0.021C10.584,-0.091 10.505,-0.191 10.458,-0.322L7.714,-8.078L4.942,-0.322C4.895,-0.191 4.816,-0.091 4.704,-0.021C4.592,0.049 4.471,0.084 4.34,0.084C4.209,0.084 4.088,0.049 3.976,-0.021C3.864,-0.091 3.785,-0.191 3.738,-0.322L0.56,-9.24C0.532,-9.315 0.518,-9.385 0.518,-9.45C0.518,-9.599 0.576,-9.721 0.693,-9.814C0.81,-9.907 0.943,-9.954 1.092,-9.954C1.204,-9.954 1.309,-9.924 1.407,-9.863C1.505,-9.802 1.573,-9.711 1.61,-9.59L4.368,-1.638L7.168,-9.506C7.215,-9.646 7.289,-9.751 7.392,-9.821C7.495,-9.891 7.607,-9.926 7.728,-9.926C7.849,-9.926 7.961,-9.889 8.064,-9.814C8.167,-9.739 8.241,-9.632 8.288,-9.492L11.046,-1.61L13.832,-9.59C13.869,-9.711 13.935,-9.802 14.028,-9.863Z" style="fill-rule:nonzero;"/>
                <path d="M24.304,-0.42C24.304,-0.28 24.25,-0.163 24.143,-0.07C24.036,0.023 23.907,0.07 23.758,0.07C23.525,0.07 23.361,-0.042 23.268,-0.266L22.274,-2.534L16.996,-2.534L15.988,-0.266C15.895,-0.042 15.731,0.07 15.498,0.07C15.349,0.07 15.218,0.021 15.106,-0.077C14.994,-0.175 14.938,-0.294 14.938,-0.434C14.938,-0.509 14.957,-0.583 14.994,-0.658L18.998,-9.562C19.054,-9.693 19.138,-9.791 19.25,-9.856C19.362,-9.921 19.483,-9.954 19.614,-9.954C19.754,-9.954 19.88,-9.919 19.992,-9.849C20.104,-9.779 20.188,-9.683 20.244,-9.562L24.248,-0.658C24.285,-0.583 24.304,-0.504 24.304,-0.42ZM17.416,-3.486L21.854,-3.486L19.628,-8.512L17.416,-3.486Z" style="fill-rule:nonzero;"/>
                <path d="M33.698,-9.779C33.791,-9.672 33.838,-9.529 33.838,-9.352L33.838,-0.518C33.838,-0.341 33.789,-0.198 33.691,-0.091C33.593,0.016 33.455,0.07 33.278,0.07C33.101,0.07 32.947,-0.009 32.816,-0.168L27.006,-7.938L27.006,-0.518C27.006,-0.341 26.957,-0.198 26.859,-0.091C26.761,0.016 26.628,0.07 26.46,0.07C26.292,0.07 26.161,0.016 26.068,-0.091C25.975,-0.198 25.928,-0.341 25.928,-0.518L25.928,-9.352C25.928,-9.529 25.977,-9.672 26.075,-9.779C26.173,-9.886 26.311,-9.94 26.488,-9.94C26.675,-9.94 26.833,-9.861 26.964,-9.702L32.76,-1.932L32.76,-9.352C32.76,-9.529 32.809,-9.672 32.907,-9.779C33.005,-9.886 33.138,-9.94 33.306,-9.94C33.474,-9.94 33.605,-9.886 33.698,-9.779Z" style="fill-rule:nonzero;"/>
                <path d="M45.066,-4.298L45.066,-0.49C45.066,-0.322 45.017,-0.187 44.919,-0.084C44.821,0.019 44.688,0.07 44.52,0.07C44.352,0.07 44.217,0.019 44.114,-0.084C44.011,-0.187 43.96,-0.322 43.96,-0.49L43.96,-1.162C43.783,-0.761 43.512,-0.45 43.148,-0.231C42.784,-0.012 42.364,0.098 41.888,0.098C41.449,0.098 41.046,0.009 40.677,-0.168C40.308,-0.345 40.017,-0.593 39.802,-0.91C39.587,-1.227 39.48,-1.577 39.48,-1.96C39.48,-2.473 39.611,-2.872 39.872,-3.157C40.133,-3.442 40.563,-3.647 41.16,-3.773C41.757,-3.899 42.588,-3.962 43.652,-3.962L43.96,-3.962L43.96,-4.424C43.96,-4.984 43.846,-5.395 43.617,-5.656C43.388,-5.917 43.017,-6.048 42.504,-6.048C41.869,-6.048 41.225,-5.875 40.572,-5.53C40.32,-5.371 40.143,-5.292 40.04,-5.292C39.928,-5.292 39.835,-5.334 39.76,-5.418C39.685,-5.502 39.648,-5.609 39.648,-5.74C39.648,-5.871 39.688,-5.985 39.767,-6.083C39.846,-6.181 39.975,-6.281 40.152,-6.384C40.479,-6.571 40.85,-6.718 41.265,-6.825C41.68,-6.932 42.093,-6.986 42.504,-6.986C44.212,-6.986 45.066,-6.09 45.066,-4.298ZM43.421,-1.365C43.78,-1.743 43.96,-2.231 43.96,-2.828L43.96,-3.234L43.708,-3.234C42.887,-3.234 42.261,-3.199 41.832,-3.129C41.403,-3.059 41.097,-2.942 40.915,-2.779C40.733,-2.616 40.642,-2.375 40.642,-2.058C40.642,-1.694 40.775,-1.393 41.041,-1.155C41.307,-0.917 41.641,-0.798 42.042,-0.798C42.602,-0.798 43.062,-0.987 43.421,-1.365Z" style="fill-rule:nonzero;"/>
                <path d="M48.265,-0.336C47.775,-0.625 47.397,-1.036 47.131,-1.568C46.865,-2.1 46.732,-2.716 46.732,-3.416C46.732,-4.116 46.87,-4.737 47.145,-5.278C47.42,-5.819 47.805,-6.239 48.3,-6.538C48.795,-6.837 49.364,-6.986 50.008,-6.986C50.363,-6.986 50.715,-6.937 51.065,-6.839C51.415,-6.741 51.721,-6.599 51.982,-6.412C52.15,-6.3 52.269,-6.19 52.339,-6.083C52.409,-5.976 52.444,-5.857 52.444,-5.726C52.444,-5.595 52.409,-5.488 52.339,-5.404C52.269,-5.32 52.178,-5.278 52.066,-5.278C52.001,-5.278 51.931,-5.297 51.856,-5.334C51.781,-5.371 51.718,-5.409 51.667,-5.446C51.616,-5.483 51.581,-5.507 51.562,-5.516C51.319,-5.675 51.088,-5.801 50.869,-5.894C50.65,-5.987 50.381,-6.034 50.064,-6.034C49.383,-6.034 48.853,-5.803 48.475,-5.341C48.097,-4.879 47.908,-4.237 47.908,-3.416C47.908,-2.595 48.097,-1.96 48.475,-1.512C48.853,-1.064 49.383,-0.84 50.064,-0.84C50.381,-0.84 50.654,-0.887 50.883,-0.98C51.112,-1.073 51.343,-1.199 51.576,-1.358C51.679,-1.423 51.777,-1.479 51.87,-1.526C51.963,-1.573 52.043,-1.596 52.108,-1.596C52.211,-1.596 52.297,-1.554 52.367,-1.47C52.437,-1.386 52.472,-1.279 52.472,-1.148C52.472,-1.027 52.439,-0.917 52.374,-0.819C52.309,-0.721 52.187,-0.611 52.01,-0.49C51.749,-0.313 51.434,-0.17 51.065,-0.063C50.696,0.044 50.325,0.098 49.952,0.098C49.317,0.098 48.755,-0.047 48.265,-0.336Z" style="fill-rule:nonzero;"/>
                <path d="M54.971,-0.336C54.481,-0.625 54.103,-1.036 53.837,-1.568C53.571,-2.1 53.438,-2.716 53.438,-3.416C53.438,-4.116 53.576,-4.737 53.851,-5.278C54.126,-5.819 54.511,-6.239 55.006,-6.538C55.501,-6.837 56.07,-6.986 56.714,-6.986C57.069,-6.986 57.421,-6.937 57.771,-6.839C58.121,-6.741 58.427,-6.599 58.688,-6.412C58.856,-6.3 58.975,-6.19 59.045,-6.083C59.115,-5.976 59.15,-5.857 59.15,-5.726C59.15,-5.595 59.115,-5.488 59.045,-5.404C58.975,-5.32 58.884,-5.278 58.772,-5.278C58.707,-5.278 58.637,-5.297 58.562,-5.334C58.487,-5.371 58.424,-5.409 58.373,-5.446C58.322,-5.483 58.287,-5.507 58.268,-5.516C58.025,-5.675 57.794,-5.801 57.575,-5.894C57.356,-5.987 57.087,-6.034 56.77,-6.034C56.089,-6.034 55.559,-5.803 55.181,-5.341C54.803,-4.879 54.614,-4.237 54.614,-3.416C54.614,-2.595 54.803,-1.96 55.181,-1.512C55.559,-1.064 56.089,-0.84 56.77,-0.84C57.087,-0.84 57.36,-0.887 57.589,-0.98C57.818,-1.073 58.049,-1.199 58.282,-1.358C58.385,-1.423 58.483,-1.479 58.576,-1.526C58.669,-1.573 58.749,-1.596 58.814,-1.596C58.917,-1.596 59.003,-1.554 59.073,-1.47C59.143,-1.386 59.178,-1.279 59.178,-1.148C59.178,-1.027 59.145,-0.917 59.08,-0.819C59.015,-0.721 58.893,-0.611 58.716,-0.49C58.455,-0.313 58.14,-0.17 57.771,-0.063C57.402,0.044 57.031,0.098 56.658,0.098C56.023,0.098 55.461,-0.047 54.971,-0.336Z" style="fill-rule:nonzero;"/>
                <path d="M66.094,-1.456C66.169,-1.372 66.206,-1.265 66.206,-1.134C66.206,-0.901 66.043,-0.686 65.716,-0.49C65.38,-0.294 65.025,-0.147 64.652,-0.049C64.279,0.049 63.915,0.098 63.56,0.098C62.505,0.098 61.672,-0.215 61.061,-0.84C60.45,-1.465 60.144,-2.329 60.144,-3.43C60.144,-4.13 60.279,-4.748 60.55,-5.285C60.821,-5.822 61.201,-6.239 61.691,-6.538C62.181,-6.837 62.739,-6.986 63.364,-6.986C64.251,-6.986 64.955,-6.697 65.478,-6.118C66.001,-5.539 66.262,-4.755 66.262,-3.766C66.262,-3.579 66.225,-3.444 66.15,-3.36C66.075,-3.276 65.954,-3.234 65.786,-3.234L61.278,-3.234C61.362,-1.629 62.123,-0.826 63.56,-0.826C63.924,-0.826 64.237,-0.875 64.498,-0.973C64.759,-1.071 65.039,-1.204 65.338,-1.372C65.581,-1.512 65.744,-1.582 65.828,-1.582C65.931,-1.582 66.019,-1.54 66.094,-1.456ZM61.943,-5.544C61.584,-5.171 61.371,-4.643 61.306,-3.962L65.268,-3.962C65.249,-4.653 65.077,-5.182 64.75,-5.551C64.423,-5.92 63.966,-6.104 63.378,-6.104C62.781,-6.104 62.302,-5.917 61.943,-5.544Z" style="fill-rule:nonzero;"/>
                <path d="M68.089,-0.077C67.982,-0.175 67.928,-0.313 67.928,-0.49L67.928,-9.38C67.928,-9.557 67.982,-9.695 68.089,-9.793C68.196,-9.891 68.334,-9.94 68.502,-9.94C68.661,-9.94 68.794,-9.891 68.901,-9.793C69.008,-9.695 69.062,-9.557 69.062,-9.38L69.062,-0.49C69.062,-0.313 69.008,-0.175 68.901,-0.077C68.794,0.021 68.661,0.07 68.502,0.07C68.334,0.07 68.196,0.021 68.089,-0.077Z" style="fill-rule:nonzero;"/>
                <path d="M76.72,-1.456C76.795,-1.372 76.832,-1.265 76.832,-1.134C76.832,-0.901 76.669,-0.686 76.342,-0.49C76.006,-0.294 75.651,-0.147 75.278,-0.049C74.905,0.049 74.541,0.098 74.186,0.098C73.131,0.098 72.298,-0.215 71.687,-0.84C71.076,-1.465 70.77,-2.329 70.77,-3.43C70.77,-4.13 70.905,-4.748 71.176,-5.285C71.447,-5.822 71.827,-6.239 72.317,-6.538C72.807,-6.837 73.365,-6.986 73.99,-6.986C74.877,-6.986 75.581,-6.697 76.104,-6.118C76.627,-5.539 76.888,-4.755 76.888,-3.766C76.888,-3.579 76.851,-3.444 76.776,-3.36C76.701,-3.276 76.58,-3.234 76.412,-3.234L71.904,-3.234C71.988,-1.629 72.749,-0.826 74.186,-0.826C74.55,-0.826 74.863,-0.875 75.124,-0.973C75.385,-1.071 75.665,-1.204 75.964,-1.372C76.207,-1.512 76.37,-1.582 76.454,-1.582C76.557,-1.582 76.645,-1.54 76.72,-1.456ZM72.569,-5.544C72.21,-5.171 71.997,-4.643 71.932,-3.962L75.894,-3.962C75.875,-4.653 75.703,-5.182 75.376,-5.551C75.049,-5.92 74.592,-6.104 74.004,-6.104C73.407,-6.104 72.928,-5.917 72.569,-5.544Z" style="fill-rule:nonzero;"/>
                <path d="M82.516,-6.482C82.516,-6.333 82.474,-6.214 82.39,-6.125C82.306,-6.036 82.161,-5.983 81.956,-5.964L81.536,-5.922C80.911,-5.866 80.446,-5.644 80.143,-5.257C79.84,-4.87 79.688,-4.415 79.688,-3.892L79.688,-0.49C79.688,-0.303 79.637,-0.163 79.534,-0.07C79.431,0.023 79.296,0.07 79.128,0.07C78.96,0.07 78.822,0.021 78.715,-0.077C78.608,-0.175 78.554,-0.313 78.554,-0.49L78.554,-6.398C78.554,-6.575 78.61,-6.713 78.722,-6.811C78.834,-6.909 78.969,-6.958 79.128,-6.958C79.277,-6.958 79.403,-6.909 79.506,-6.811C79.609,-6.713 79.66,-6.58 79.66,-6.412L79.66,-5.628C79.856,-6.039 80.134,-6.351 80.493,-6.566C80.852,-6.781 81.265,-6.907 81.732,-6.944L81.928,-6.958C82.32,-6.986 82.516,-6.827 82.516,-6.482Z" style="fill-rule:nonzero;"/>
                <path d="M88.788,-4.298L88.788,-0.49C88.788,-0.322 88.739,-0.187 88.641,-0.084C88.543,0.019 88.41,0.07 88.242,0.07C88.074,0.07 87.939,0.019 87.836,-0.084C87.733,-0.187 87.682,-0.322 87.682,-0.49L87.682,-1.162C87.505,-0.761 87.234,-0.45 86.87,-0.231C86.506,-0.012 86.086,0.098 85.61,0.098C85.171,0.098 84.768,0.009 84.399,-0.168C84.03,-0.345 83.739,-0.593 83.524,-0.91C83.309,-1.227 83.202,-1.577 83.202,-1.96C83.202,-2.473 83.333,-2.872 83.594,-3.157C83.855,-3.442 84.285,-3.647 84.882,-3.773C85.479,-3.899 86.31,-3.962 87.374,-3.962L87.682,-3.962L87.682,-4.424C87.682,-4.984 87.568,-5.395 87.339,-5.656C87.11,-5.917 86.739,-6.048 86.226,-6.048C85.591,-6.048 84.947,-5.875 84.294,-5.53C84.042,-5.371 83.865,-5.292 83.762,-5.292C83.65,-5.292 83.557,-5.334 83.482,-5.418C83.407,-5.502 83.37,-5.609 83.37,-5.74C83.37,-5.871 83.41,-5.985 83.489,-6.083C83.568,-6.181 83.697,-6.281 83.874,-6.384C84.201,-6.571 84.572,-6.718 84.987,-6.825C85.402,-6.932 85.815,-6.986 86.226,-6.986C87.934,-6.986 88.788,-6.09 88.788,-4.298ZM87.143,-1.365C87.502,-1.743 87.682,-2.231 87.682,-2.828L87.682,-3.234L87.43,-3.234C86.609,-3.234 85.983,-3.199 85.554,-3.129C85.125,-3.059 84.819,-2.942 84.637,-2.779C84.455,-2.616 84.364,-2.375 84.364,-2.058C84.364,-1.694 84.497,-1.393 84.763,-1.155C85.029,-0.917 85.363,-0.798 85.764,-0.798C86.324,-0.798 86.784,-0.987 87.143,-1.365Z" style="fill-rule:nonzero;"/>
                <path d="M94.5,-0.378C94.5,-0.219 94.442,-0.1 94.325,-0.021C94.208,0.058 94.033,0.089 93.8,0.07L93.422,0.042C92.675,-0.014 92.125,-0.238 91.77,-0.63C91.415,-1.022 91.238,-1.615 91.238,-2.408L91.238,-5.922L90.3,-5.922C90.141,-5.922 90.018,-5.962 89.929,-6.041C89.84,-6.12 89.796,-6.225 89.796,-6.356C89.796,-6.496 89.84,-6.608 89.929,-6.692C90.018,-6.776 90.141,-6.818 90.3,-6.818L91.238,-6.818L91.238,-8.4C91.238,-8.577 91.289,-8.715 91.392,-8.813C91.495,-8.911 91.635,-8.96 91.812,-8.96C91.98,-8.96 92.115,-8.911 92.218,-8.813C92.321,-8.715 92.372,-8.577 92.372,-8.4L92.372,-6.818L93.926,-6.818C94.075,-6.818 94.194,-6.776 94.283,-6.692C94.372,-6.608 94.416,-6.496 94.416,-6.356C94.416,-6.225 94.372,-6.12 94.283,-6.041C94.194,-5.962 94.075,-5.922 93.926,-5.922L92.372,-5.922L92.372,-2.352C92.372,-1.839 92.477,-1.468 92.687,-1.239C92.897,-1.01 93.212,-0.882 93.632,-0.854L94.01,-0.826C94.337,-0.798 94.5,-0.649 94.5,-0.378Z" style="fill-rule:nonzero;"/>
                <path d="M95.781,-0.077C95.674,-0.175 95.62,-0.313 95.62,-0.49L95.62,-6.398C95.62,-6.575 95.674,-6.713 95.781,-6.811C95.888,-6.909 96.026,-6.958 96.194,-6.958C96.362,-6.958 96.497,-6.909 96.6,-6.811C96.703,-6.713 96.754,-6.575 96.754,-6.398L96.754,-0.49C96.754,-0.303 96.703,-0.163 96.6,-0.07C96.497,0.023 96.362,0.07 96.194,0.07C96.026,0.07 95.888,0.021 95.781,-0.077ZM95.648,-8.624C95.508,-8.755 95.438,-8.927 95.438,-9.142C95.438,-9.347 95.508,-9.515 95.648,-9.646C95.788,-9.777 95.97,-9.842 96.194,-9.842C96.418,-9.842 96.6,-9.777 96.74,-9.646C96.88,-9.515 96.95,-9.347 96.95,-9.142C96.95,-8.927 96.88,-8.755 96.74,-8.624C96.6,-8.493 96.418,-8.428 96.194,-8.428C95.97,-8.428 95.788,-8.493 95.648,-8.624Z" style="fill-rule:nonzero;"/>
                <path d="M99.995,-0.336C99.505,-0.625 99.127,-1.038 98.861,-1.575C98.595,-2.112 98.462,-2.735 98.462,-3.444C98.462,-4.153 98.595,-4.776 98.861,-5.313C99.127,-5.85 99.505,-6.263 99.995,-6.552C100.485,-6.841 101.052,-6.986 101.696,-6.986C102.34,-6.986 102.909,-6.841 103.404,-6.552C103.899,-6.263 104.279,-5.85 104.545,-5.313C104.811,-4.776 104.944,-4.153 104.944,-3.444C104.944,-2.735 104.811,-2.112 104.545,-1.575C104.279,-1.038 103.899,-0.625 103.404,-0.336C102.909,-0.047 102.34,0.098 101.696,0.098C101.052,0.098 100.485,-0.047 99.995,-0.336ZM103.243,-1.505C103.602,-1.948 103.782,-2.595 103.782,-3.444C103.782,-4.275 103.6,-4.916 103.236,-5.369C102.872,-5.822 102.359,-6.048 101.696,-6.048C101.033,-6.048 100.52,-5.822 100.156,-5.369C99.792,-4.916 99.61,-4.275 99.61,-3.444C99.61,-2.604 99.79,-1.96 100.149,-1.512C100.508,-1.064 101.024,-0.84 101.696,-0.84C102.368,-0.84 102.884,-1.062 103.243,-1.505Z" style="fill-rule:nonzero;"/>
                <path d="M112.518,-4.284L112.518,-0.49C112.518,-0.313 112.469,-0.175 112.371,-0.077C112.273,0.021 112.135,0.07 111.958,0.07C111.781,0.07 111.641,0.021 111.538,-0.077C111.435,-0.175 111.384,-0.313 111.384,-0.49L111.384,-4.214C111.384,-4.849 111.26,-5.311 111.013,-5.6C110.766,-5.889 110.371,-6.034 109.83,-6.034C109.205,-6.034 108.705,-5.843 108.332,-5.46C107.959,-5.077 107.772,-4.559 107.772,-3.906L107.772,-0.49C107.772,-0.313 107.723,-0.175 107.625,-0.077C107.527,0.021 107.389,0.07 107.212,0.07C107.035,0.07 106.895,0.021 106.792,-0.077C106.689,-0.175 106.638,-0.313 106.638,-0.49L106.638,-6.398C106.638,-6.566 106.689,-6.701 106.792,-6.804C106.895,-6.907 107.035,-6.958 107.212,-6.958C107.38,-6.958 107.513,-6.907 107.611,-6.804C107.709,-6.701 107.758,-6.571 107.758,-6.412L107.758,-5.698C107.982,-6.118 108.295,-6.438 108.696,-6.657C109.097,-6.876 109.555,-6.986 110.068,-6.986C111.701,-6.986 112.518,-6.085 112.518,-4.284Z" style="fill-rule:nonzero;"/>
            </g>
        </g>
    </g>
</svg>
