<?xml version="1.0" encoding="UTF-8" standalone="no"?>
<!DOCTYPE svg PUBLIC "-//W3C//DTD SVG 1.1//EN" "http://www.w3.org/Graphics/SVG/1.1/DTD/svg11.dtd">
<svg width="100%" height="100%" viewBox="0 0 73 11" version="1.1" xmlns="http://www.w3.org/2000/svg" xmlns:xlink="http://www.w3.org/1999/xlink" xml:space="preserve" xmlns:serif="http://www.serif.com/" style="fill-rule:evenodd;clip-rule:evenodd;stroke-linejoin:round;stroke-miterlimit:1.41421;">
    <g transform="matrix(1,0,0,1,-49,-308)">
        <g transform="matrix(1,0,0,1,49,318)">
            <g id="Web-server">
                <path d="M14.028,-9.863C14.121,-9.924 14.224,-9.954 14.336,-9.954C14.485,-9.954 14.614,-9.91 14.721,-9.821C14.828,-9.732 14.882,-9.613 14.882,-9.464C14.882,-9.399 14.868,-9.324 14.84,-9.24L11.676,-0.322C11.629,-0.191 11.55,-0.091 11.438,-0.021C11.326,0.049 11.2,0.084 11.06,0.084C10.929,0.084 10.808,0.049 10.696,-0.021C10.584,-0.091 10.505,-0.191 10.458,-0.322L7.714,-8.078L4.942,-0.322C4.895,-0.191 4.816,-0.091 4.704,-0.021C4.592,0.049 4.471,0.084 4.34,0.084C4.209,0.084 4.088,0.049 3.976,-0.021C3.864,-0.091 3.785,-0.191 3.738,-0.322L0.56,-9.24C0.532,-9.315 0.518,-9.385 0.518,-9.45C0.518,-9.599 0.576,-9.721 0.693,-9.814C0.81,-9.907 0.943,-9.954 1.092,-9.954C1.204,-9.954 1.309,-9.924 1.407,-9.863C1.505,-9.802 1.573,-9.711 1.61,-9.59L4.368,-1.638L7.168,-9.506C7.215,-9.646 7.289,-9.751 7.392,-9.821C7.495,-9.891 7.607,-9.926 7.728,-9.926C7.849,-9.926 7.961,-9.889 8.064,-9.814C8.167,-9.739 8.241,-9.632 8.288,-9.492L11.046,-1.61L13.832,-9.59C13.869,-9.711 13.935,-9.802 14.028,-9.863Z" style="fill-rule:nonzero;"/>
                <path d="M21.219,-1.456C21.294,-1.372 21.331,-1.265 21.331,-1.134C21.331,-0.901 21.168,-0.686 20.841,-0.49C20.505,-0.294 20.151,-0.147 19.777,-0.049C19.404,0.049 19.04,0.098 18.685,0.098C17.631,0.098 16.798,-0.215 16.186,-0.84C15.575,-1.465 15.269,-2.329 15.269,-3.43C15.269,-4.13 15.405,-4.748 15.675,-5.285C15.946,-5.822 16.326,-6.239 16.816,-6.538C17.306,-6.837 17.864,-6.986 18.489,-6.986C19.376,-6.986 20.081,-6.697 20.603,-6.118C21.126,-5.539 21.387,-4.755 21.387,-3.766C21.387,-3.579 21.35,-3.444 21.275,-3.36C21.201,-3.276 21.079,-3.234 20.911,-3.234L16.403,-3.234C16.487,-1.629 17.248,-0.826 18.685,-0.826C19.049,-0.826 19.362,-0.875 19.623,-0.973C19.885,-1.071 20.165,-1.204 20.463,-1.372C20.706,-1.512 20.869,-1.582 20.953,-1.582C21.056,-1.582 21.145,-1.54 21.219,-1.456ZM17.068,-5.544C16.709,-5.171 16.497,-4.643 16.431,-3.962L20.393,-3.962C20.375,-4.653 20.202,-5.182 19.875,-5.551C19.549,-5.92 19.091,-6.104 18.503,-6.104C17.906,-6.104 17.428,-5.917 17.068,-5.544Z" style="fill-rule:nonzero;"/>
                <path d="M28.06,-6.552C28.518,-6.263 28.872,-5.852 29.124,-5.32C29.376,-4.788 29.502,-4.172 29.502,-3.472C29.502,-2.763 29.376,-2.14 29.124,-1.603C28.872,-1.066 28.518,-0.649 28.06,-0.35C27.603,-0.051 27.076,0.098 26.478,0.098C25.946,0.098 25.482,-0.019 25.085,-0.252C24.689,-0.485 24.388,-0.817 24.182,-1.246L24.182,-0.49C24.182,-0.322 24.133,-0.187 24.035,-0.084C23.937,0.019 23.8,0.07 23.622,0.07C23.445,0.07 23.305,0.019 23.202,-0.084C23.1,-0.187 23.048,-0.322 23.048,-0.49L23.048,-9.394C23.048,-9.553 23.1,-9.683 23.202,-9.786C23.305,-9.889 23.445,-9.94 23.622,-9.94C23.8,-9.94 23.937,-9.891 24.035,-9.793C24.133,-9.695 24.182,-9.562 24.182,-9.394L24.182,-5.642C24.388,-6.071 24.689,-6.403 25.085,-6.636C25.482,-6.869 25.946,-6.986 26.478,-6.986C27.076,-6.986 27.603,-6.841 28.06,-6.552ZM27.794,-1.533C28.158,-1.995 28.34,-2.641 28.34,-3.472C28.34,-4.284 28.158,-4.914 27.794,-5.362C27.43,-5.81 26.917,-6.034 26.254,-6.034C25.592,-6.034 25.081,-5.81 24.721,-5.362C24.362,-4.914 24.182,-4.275 24.182,-3.444C24.182,-2.613 24.362,-1.972 24.721,-1.519C25.081,-1.066 25.592,-0.84 26.254,-0.84C26.917,-0.84 27.43,-1.071 27.794,-1.533Z" style="fill-rule:nonzero;"/>
                <path d="M35.87,-0.056C35.483,-0.159 35.14,-0.303 34.841,-0.49C34.673,-0.602 34.554,-0.707 34.484,-0.805C34.414,-0.903 34.379,-1.022 34.379,-1.162C34.379,-1.283 34.414,-1.384 34.484,-1.463C34.554,-1.542 34.645,-1.582 34.757,-1.582C34.869,-1.582 35.032,-1.512 35.247,-1.372C35.527,-1.204 35.805,-1.071 36.08,-0.973C36.355,-0.875 36.698,-0.826 37.109,-0.826C37.613,-0.826 38.005,-0.915 38.285,-1.092C38.565,-1.269 38.705,-1.526 38.705,-1.862C38.705,-2.067 38.654,-2.233 38.551,-2.359C38.448,-2.485 38.271,-2.597 38.019,-2.695C37.767,-2.793 37.398,-2.893 36.913,-2.996C36.092,-3.173 35.504,-3.411 35.149,-3.71C34.794,-4.009 34.617,-4.415 34.617,-4.928C34.617,-5.329 34.729,-5.684 34.953,-5.992C35.177,-6.3 35.487,-6.543 35.884,-6.72C36.281,-6.897 36.731,-6.986 37.235,-6.986C37.599,-6.986 37.951,-6.937 38.292,-6.839C38.633,-6.741 38.934,-6.603 39.195,-6.426C39.512,-6.202 39.671,-5.969 39.671,-5.726C39.671,-5.605 39.634,-5.502 39.559,-5.418C39.484,-5.334 39.396,-5.292 39.293,-5.292C39.181,-5.292 39.013,-5.371 38.789,-5.53C38.528,-5.698 38.28,-5.829 38.047,-5.922C37.814,-6.015 37.524,-6.062 37.179,-6.062C36.74,-6.062 36.388,-5.964 36.122,-5.768C35.856,-5.572 35.723,-5.311 35.723,-4.984C35.723,-4.779 35.772,-4.613 35.87,-4.487C35.968,-4.361 36.131,-4.249 36.36,-4.151C36.589,-4.053 36.918,-3.957 37.347,-3.864C37.982,-3.724 38.474,-3.57 38.824,-3.402C39.174,-3.234 39.424,-3.029 39.573,-2.786C39.722,-2.543 39.797,-2.235 39.797,-1.862C39.797,-1.274 39.55,-0.8 39.055,-0.441C38.56,-0.082 37.907,0.098 37.095,0.098C36.666,0.098 36.257,0.047 35.87,-0.056Z" style="fill-rule:nonzero;"/>
                <path d="M47.058,-1.456C47.133,-1.372 47.17,-1.265 47.17,-1.134C47.17,-0.901 47.007,-0.686 46.68,-0.49C46.344,-0.294 45.989,-0.147 45.616,-0.049C45.243,0.049 44.879,0.098 44.524,0.098C43.469,0.098 42.636,-0.215 42.025,-0.84C41.414,-1.465 41.108,-2.329 41.108,-3.43C41.108,-4.13 41.243,-4.748 41.514,-5.285C41.785,-5.822 42.165,-6.239 42.655,-6.538C43.145,-6.837 43.703,-6.986 44.328,-6.986C45.215,-6.986 45.919,-6.697 46.442,-6.118C46.965,-5.539 47.226,-4.755 47.226,-3.766C47.226,-3.579 47.189,-3.444 47.114,-3.36C47.039,-3.276 46.918,-3.234 46.75,-3.234L42.242,-3.234C42.326,-1.629 43.087,-0.826 44.524,-0.826C44.888,-0.826 45.201,-0.875 45.462,-0.973C45.723,-1.071 46.003,-1.204 46.302,-1.372C46.545,-1.512 46.708,-1.582 46.792,-1.582C46.895,-1.582 46.983,-1.54 47.058,-1.456ZM42.907,-5.544C42.548,-5.171 42.335,-4.643 42.27,-3.962L46.232,-3.962C46.213,-4.653 46.041,-5.182 45.714,-5.551C45.387,-5.92 44.93,-6.104 44.342,-6.104C43.745,-6.104 43.266,-5.917 42.907,-5.544Z" style="fill-rule:nonzero;"/>
                <path d="M52.849,-6.482C52.849,-6.333 52.807,-6.214 52.723,-6.125C52.639,-6.036 52.495,-5.983 52.289,-5.964L51.869,-5.922C51.244,-5.866 50.78,-5.644 50.476,-5.257C50.173,-4.87 50.021,-4.415 50.021,-3.892L50.021,-0.49C50.021,-0.303 49.97,-0.163 49.867,-0.07C49.765,0.023 49.629,0.07 49.461,0.07C49.293,0.07 49.156,0.021 49.048,-0.077C48.941,-0.175 48.887,-0.313 48.887,-0.49L48.887,-6.398C48.887,-6.575 48.943,-6.713 49.055,-6.811C49.167,-6.909 49.303,-6.958 49.461,-6.958C49.611,-6.958 49.737,-6.909 49.839,-6.811C49.942,-6.713 49.993,-6.58 49.993,-6.412L49.993,-5.628C50.189,-6.039 50.467,-6.351 50.826,-6.566C51.186,-6.781 51.599,-6.907 52.065,-6.944L52.261,-6.958C52.653,-6.986 52.849,-6.827 52.849,-6.482Z" style="fill-rule:nonzero;"/>
                <path d="M59.648,-6.944C59.788,-6.944 59.914,-6.897 60.026,-6.804C60.138,-6.711 60.194,-6.594 60.194,-6.454C60.194,-6.37 60.176,-6.295 60.138,-6.23L57.408,-0.35C57.352,-0.229 57.268,-0.133 57.156,-0.063C57.044,0.007 56.923,0.042 56.792,0.042C56.671,0.042 56.554,0.007 56.442,-0.063C56.33,-0.133 56.242,-0.229 56.176,-0.35L53.46,-6.23C53.423,-6.295 53.404,-6.365 53.404,-6.44C53.404,-6.58 53.467,-6.701 53.593,-6.804C53.719,-6.907 53.857,-6.958 54.006,-6.958C54.1,-6.958 54.191,-6.93 54.279,-6.874C54.368,-6.818 54.436,-6.739 54.482,-6.636L56.82,-1.386L59.158,-6.608C59.261,-6.832 59.424,-6.944 59.648,-6.944Z" style="fill-rule:nonzero;"/>
                <path d="M66.896,-1.456C66.97,-1.372 67.008,-1.265 67.008,-1.134C67.008,-0.901 66.844,-0.686 66.518,-0.49C66.182,-0.294 65.827,-0.147 65.454,-0.049C65.08,0.049 64.716,0.098 64.362,0.098C63.307,0.098 62.474,-0.215 61.863,-0.84C61.251,-1.465 60.946,-2.329 60.946,-3.43C60.946,-4.13 61.081,-4.748 61.352,-5.285C61.622,-5.822 62.003,-6.239 62.493,-6.538C62.983,-6.837 63.54,-6.986 64.166,-6.986C65.052,-6.986 65.757,-6.697 66.28,-6.118C66.802,-5.539 67.064,-4.755 67.064,-3.766C67.064,-3.579 67.026,-3.444 66.952,-3.36C66.877,-3.276 66.756,-3.234 66.588,-3.234L62.08,-3.234C62.164,-1.629 62.924,-0.826 64.362,-0.826C64.726,-0.826 65.038,-0.875 65.3,-0.973C65.561,-1.071 65.841,-1.204 66.14,-1.372C66.382,-1.512 66.546,-1.582 66.63,-1.582C66.732,-1.582 66.821,-1.54 66.896,-1.456ZM62.745,-5.544C62.385,-5.171 62.173,-4.643 62.108,-3.962L66.07,-3.962C66.051,-4.653 65.878,-5.182 65.552,-5.551C65.225,-5.92 64.768,-6.104 64.18,-6.104C63.582,-6.104 63.104,-5.917 62.745,-5.544Z" style="fill-rule:nonzero;"/>
                <path d="M72.687,-6.482C72.687,-6.333 72.645,-6.214 72.561,-6.125C72.477,-6.036 72.332,-5.983 72.127,-5.964L71.707,-5.922C71.082,-5.866 70.617,-5.644 70.314,-5.257C70.011,-4.87 69.859,-4.415 69.859,-3.892L69.859,-0.49C69.859,-0.303 69.808,-0.163 69.705,-0.07C69.602,0.023 69.467,0.07 69.299,0.07C69.131,0.07 68.993,0.021 68.886,-0.077C68.779,-0.175 68.725,-0.313 68.725,-0.49L68.725,-6.398C68.725,-6.575 68.781,-6.713 68.893,-6.811C69.005,-6.909 69.14,-6.958 69.299,-6.958C69.448,-6.958 69.574,-6.909 69.677,-6.811C69.78,-6.713 69.831,-6.58 69.831,-6.412L69.831,-5.628C70.027,-6.039 70.305,-6.351 70.664,-6.566C71.023,-6.781 71.436,-6.907 71.903,-6.944L72.099,-6.958C72.491,-6.986 72.687,-6.827 72.687,-6.482Z" style="fill-rule:nonzero;"/>
            </g>
        </g>
    </g>
</svg>
