<?xml version="1.0" encoding="UTF-8" standalone="no"?>
<svg width="402px" height="35px" viewBox="0 0 402 35" version="1.1" xmlns="http://www.w3.org/2000/svg" xmlns:xlink="http://www.w3.org/1999/xlink">
    <!-- Generator: Sketch 50 (54983) - http://www.bohemiancoding.com/sketch -->
    <title>Line2</title>
    <desc>Created with Sketch.</desc>
    <defs></defs>
    <g id="Page-1" stroke="none" stroke-width="1" fill="none" fill-rule="evenodd">
        <path d="M202,12 L202,0 L206,0 L206,12 L394,12 C398.418278,12 402,15.581722 402,20 L402,35 L398,35 L398,20 C398,17.790861 396.209139,16 394,16 L206,16 L206,33 L202,33 L202,16 L8,16 C5.790861,16 4,17.790861 4,20 L4,35 L0,35 L0,20 C0,15.581722 3.581722,12 8,12 L202,12 Z" id="Line2" fill="#47AFE8" fill-rule="nonzero"></path>
    </g>
</svg>