<?xml version="1.0" encoding="UTF-8" standalone="no"?><!DOCTYPE svg PUBLIC "-//W3C//DTD SVG 1.1//EN" "http://www.w3.org/Graphics/SVG/1.1/DTD/svg11.dtd"><svg width="131px" height="13px" version="1.1" xmlns="http://www.w3.org/2000/svg" xmlns:xlink="http://www.w3.org/1999/xlink" xml:space="preserve" xmlns:serif="http://www.serif.com/" style="fill-rule:evenodd;clip-rule:evenodd;stroke-linejoin:round;stroke-miterlimit:1.41421;"><g transform="matrix(1,0,0,1,-310,-215)"><g transform="matrix(1,0,0,1,0,-6)"><g transform="matrix(1,0,0,1,310.112,233)"><g id="SonicWall-Firewall"><path d="M2.696,-0.232C1.965,-0.472 1.381,-0.795 0.944,-1.2C0.784,-1.349 0.704,-1.536 0.704,-1.76C0.704,-1.909 0.747,-2.04 0.832,-2.152C0.917,-2.264 1.019,-2.32 1.136,-2.32C1.275,-2.32 1.424,-2.261 1.584,-2.144C2.576,-1.376 3.707,-0.992 4.976,-0.992C5.893,-0.992 6.597,-1.168 7.088,-1.52C7.579,-1.872 7.824,-2.373 7.824,-3.024C7.824,-3.397 7.707,-3.699 7.472,-3.928C7.237,-4.157 6.928,-4.341 6.544,-4.48C6.16,-4.619 5.643,-4.763 4.992,-4.912C4.117,-5.115 3.4,-5.328 2.84,-5.552C2.28,-5.776 1.827,-6.096 1.48,-6.512C1.133,-6.928 0.96,-7.472 0.96,-8.144C0.96,-8.784 1.133,-9.352 1.48,-9.848C1.827,-10.344 2.312,-10.728 2.936,-11C3.56,-11.272 4.272,-11.408 5.072,-11.408C5.819,-11.408 6.515,-11.293 7.16,-11.064C7.805,-10.835 8.347,-10.507 8.784,-10.08C8.955,-9.909 9.04,-9.723 9.04,-9.52C9.04,-9.371 8.997,-9.24 8.912,-9.128C8.827,-9.016 8.725,-8.96 8.608,-8.96C8.491,-8.96 8.336,-9.019 8.144,-9.136C7.621,-9.563 7.136,-9.861 6.688,-10.032C6.24,-10.203 5.701,-10.288 5.072,-10.288C4.187,-10.288 3.499,-10.104 3.008,-9.736C2.517,-9.368 2.272,-8.853 2.272,-8.192C2.272,-7.627 2.488,-7.203 2.92,-6.92C3.352,-6.637 4.016,-6.389 4.912,-6.176C5.883,-5.941 6.645,-5.725 7.2,-5.528C7.755,-5.331 8.216,-5.035 8.584,-4.64C8.952,-4.245 9.136,-3.717 9.136,-3.056C9.136,-2.427 8.963,-1.872 8.616,-1.392C8.269,-0.912 7.781,-0.539 7.152,-0.272C6.523,-0.005 5.803,0.128 4.992,0.128C4.192,0.128 3.427,0.008 2.696,-0.232Z" style="fill-rule:nonzero;"/><path d="M12.344,-0.384C11.784,-0.715 11.352,-1.187 11.048,-1.8C10.744,-2.413 10.592,-3.125 10.592,-3.936C10.592,-4.747 10.744,-5.459 11.048,-6.072C11.352,-6.685 11.784,-7.157 12.344,-7.488C12.904,-7.819 13.552,-7.984 14.288,-7.984C15.024,-7.984 15.675,-7.819 16.24,-7.488C16.806,-7.157 17.24,-6.685 17.544,-6.072C17.848,-5.459 18,-4.747 18,-3.936C18,-3.125 17.848,-2.413 17.544,-1.8C17.24,-1.187 16.806,-0.715 16.24,-0.384C15.675,-0.053 15.024,0.112 14.288,0.112C13.552,0.112 12.904,-0.053 12.344,-0.384ZM16.056,-1.72C16.467,-2.227 16.672,-2.965 16.672,-3.936C16.672,-4.885 16.464,-5.619 16.048,-6.136C15.632,-6.653 15.046,-6.912 14.288,-6.912C13.531,-6.912 12.944,-6.653 12.528,-6.136C12.112,-5.619 11.904,-4.885 11.904,-3.936C11.904,-2.976 12.11,-2.24 12.52,-1.728C12.931,-1.216 13.52,-0.96 14.288,-0.96C15.056,-0.96 15.646,-1.213 16.056,-1.72Z" style="fill-rule:nonzero;"/><path d="M26.641,-4.896L26.641,-0.56C26.641,-0.357 26.585,-0.2 26.473,-0.088C26.361,0.024 26.203,0.08 26.001,0.08C25.798,0.08 25.638,0.024 25.521,-0.088C25.403,-0.2 25.345,-0.357 25.345,-0.56L25.345,-4.816C25.345,-5.541 25.203,-6.069 24.921,-6.4C24.638,-6.731 24.187,-6.896 23.569,-6.896C22.854,-6.896 22.283,-6.677 21.857,-6.24C21.43,-5.803 21.217,-5.211 21.217,-4.464L21.217,-0.56C21.217,-0.357 21.161,-0.2 21.049,-0.088C20.937,0.024 20.779,0.08 20.577,0.08C20.374,0.08 20.214,0.024 20.097,-0.088C19.979,-0.2 19.921,-0.357 19.921,-0.56L19.921,-7.312C19.921,-7.504 19.979,-7.659 20.097,-7.776C20.214,-7.893 20.374,-7.952 20.577,-7.952C20.769,-7.952 20.921,-7.893 21.033,-7.776C21.145,-7.659 21.201,-7.509 21.201,-7.328L21.201,-6.512C21.457,-6.992 21.814,-7.357 22.273,-7.608C22.731,-7.859 23.254,-7.984 23.841,-7.984C25.707,-7.984 26.641,-6.955 26.641,-4.896Z" style="fill-rule:nonzero;"/><path d="M29.177,-0.088C29.054,-0.2 28.993,-0.357 28.993,-0.56L28.993,-7.312C28.993,-7.515 29.054,-7.672 29.177,-7.784C29.3,-7.896 29.457,-7.952 29.649,-7.952C29.841,-7.952 29.996,-7.896 30.113,-7.784C30.23,-7.672 30.289,-7.515 30.289,-7.312L30.289,-0.56C30.289,-0.347 30.23,-0.187 30.113,-0.08C29.996,0.027 29.841,0.08 29.649,0.08C29.457,0.08 29.3,0.024 29.177,-0.088ZM29.025,-9.856C28.865,-10.005 28.785,-10.203 28.785,-10.448C28.785,-10.683 28.865,-10.875 29.025,-11.024C29.185,-11.173 29.393,-11.248 29.649,-11.248C29.905,-11.248 30.113,-11.173 30.273,-11.024C30.433,-10.875 30.513,-10.683 30.513,-10.448C30.513,-10.203 30.433,-10.005 30.273,-9.856C30.113,-9.707 29.905,-9.632 29.649,-9.632C29.393,-9.632 29.185,-9.707 29.025,-9.856Z" style="fill-rule:nonzero;"/><path d="M33.977,-0.384C33.417,-0.715 32.985,-1.184 32.681,-1.792C32.377,-2.4 32.225,-3.104 32.225,-3.904C32.225,-4.704 32.383,-5.413 32.697,-6.032C33.012,-6.651 33.452,-7.131 34.017,-7.472C34.583,-7.813 35.233,-7.984 35.969,-7.984C36.375,-7.984 36.777,-7.928 37.177,-7.816C37.577,-7.704 37.927,-7.541 38.225,-7.328C38.417,-7.2 38.553,-7.075 38.633,-6.952C38.713,-6.829 38.753,-6.693 38.753,-6.544C38.753,-6.395 38.713,-6.272 38.633,-6.176C38.553,-6.08 38.449,-6.032 38.321,-6.032C38.247,-6.032 38.167,-6.053 38.081,-6.096C37.996,-6.139 37.924,-6.181 37.865,-6.224C37.807,-6.267 37.767,-6.293 37.745,-6.304C37.468,-6.485 37.204,-6.629 36.953,-6.736C36.703,-6.843 36.396,-6.896 36.033,-6.896C35.255,-6.896 34.649,-6.632 34.217,-6.104C33.785,-5.576 33.569,-4.843 33.569,-3.904C33.569,-2.965 33.785,-2.24 34.217,-1.728C34.649,-1.216 35.255,-0.96 36.033,-0.96C36.396,-0.96 36.708,-1.013 36.969,-1.12C37.231,-1.227 37.495,-1.371 37.761,-1.552C37.879,-1.627 37.991,-1.691 38.097,-1.744C38.204,-1.797 38.295,-1.824 38.369,-1.824C38.487,-1.824 38.585,-1.776 38.665,-1.68C38.745,-1.584 38.785,-1.461 38.785,-1.312C38.785,-1.173 38.748,-1.048 38.673,-0.936C38.599,-0.824 38.46,-0.699 38.257,-0.56C37.959,-0.357 37.599,-0.195 37.177,-0.072C36.756,0.051 36.332,0.112 35.905,0.112C35.18,0.112 34.537,-0.053 33.977,-0.384Z" style="fill-rule:nonzero;"/><path d="M55.17,-11.272C55.276,-11.341 55.394,-11.376 55.522,-11.376C55.692,-11.376 55.839,-11.325 55.962,-11.224C56.084,-11.123 56.146,-10.987 56.146,-10.816C56.146,-10.741 56.13,-10.656 56.098,-10.56L52.482,-0.368C52.428,-0.219 52.338,-0.104 52.21,-0.024C52.082,0.056 51.938,0.096 51.778,0.096C51.628,0.096 51.49,0.056 51.362,-0.024C51.234,-0.104 51.143,-0.219 51.09,-0.368L47.954,-9.232L44.786,-0.368C44.732,-0.219 44.642,-0.104 44.514,-0.024C44.386,0.056 44.247,0.096 44.098,0.096C43.948,0.096 43.81,0.056 43.682,-0.024C43.554,-0.104 43.463,-0.219 43.41,-0.368L39.778,-10.56C39.746,-10.645 39.73,-10.725 39.73,-10.8C39.73,-10.971 39.796,-11.109 39.93,-11.216C40.063,-11.323 40.215,-11.376 40.386,-11.376C40.514,-11.376 40.634,-11.341 40.746,-11.272C40.858,-11.203 40.935,-11.099 40.978,-10.96L44.13,-1.872L47.33,-10.864C47.383,-11.024 47.468,-11.144 47.586,-11.224C47.703,-11.304 47.831,-11.344 47.97,-11.344C48.108,-11.344 48.236,-11.301 48.354,-11.216C48.471,-11.131 48.556,-11.008 48.61,-10.848L51.762,-1.84L54.946,-10.96C54.988,-11.099 55.063,-11.203 55.17,-11.272Z" style="fill-rule:nonzero;"/><path d="M63.154,-4.912L63.154,-0.56C63.154,-0.368 63.098,-0.213 62.986,-0.096C62.874,0.021 62.722,0.08 62.53,0.08C62.338,0.08 62.183,0.021 62.066,-0.096C61.949,-0.213 61.89,-0.368 61.89,-0.56L61.89,-1.328C61.687,-0.869 61.378,-0.515 60.962,-0.264C60.546,-0.013 60.066,0.112 59.522,0.112C59.021,0.112 58.559,0.011 58.138,-0.192C57.717,-0.395 57.383,-0.677 57.138,-1.04C56.893,-1.403 56.77,-1.803 56.77,-2.24C56.77,-2.827 56.919,-3.283 57.218,-3.608C57.517,-3.933 58.007,-4.168 58.69,-4.312C59.373,-4.456 60.322,-4.528 61.538,-4.528L61.89,-4.528L61.89,-5.056C61.89,-5.696 61.759,-6.165 61.498,-6.464C61.237,-6.763 60.813,-6.912 60.226,-6.912C59.501,-6.912 58.765,-6.715 58.018,-6.32C57.73,-6.139 57.527,-6.048 57.41,-6.048C57.282,-6.048 57.175,-6.096 57.09,-6.192C57.005,-6.288 56.962,-6.411 56.962,-6.56C56.962,-6.709 57.007,-6.84 57.098,-6.952C57.189,-7.064 57.335,-7.179 57.538,-7.296C57.911,-7.509 58.335,-7.677 58.81,-7.8C59.285,-7.923 59.757,-7.984 60.226,-7.984C62.178,-7.984 63.154,-6.96 63.154,-4.912ZM61.274,-1.56C61.685,-1.992 61.89,-2.549 61.89,-3.232L61.89,-3.696L61.602,-3.696C60.663,-3.696 59.949,-3.656 59.458,-3.576C58.967,-3.496 58.618,-3.363 58.41,-3.176C58.202,-2.989 58.098,-2.715 58.098,-2.352C58.098,-1.936 58.25,-1.592 58.554,-1.32C58.858,-1.048 59.239,-0.912 59.698,-0.912C60.338,-0.912 60.863,-1.128 61.274,-1.56Z" style="fill-rule:nonzero;"/><path d="M65.69,-0.088C65.568,-0.2 65.506,-0.357 65.506,-0.56L65.506,-10.72C65.506,-10.923 65.568,-11.08 65.69,-11.192C65.813,-11.304 65.97,-11.36 66.162,-11.36C66.344,-11.36 66.496,-11.304 66.618,-11.192C66.741,-11.08 66.802,-10.923 66.802,-10.72L66.802,-0.56C66.802,-0.357 66.741,-0.2 66.618,-0.088C66.496,0.024 66.344,0.08 66.162,0.08C65.97,0.08 65.813,0.024 65.69,-0.088Z" style="fill-rule:nonzero;"/><path d="M69.387,-0.088C69.264,-0.2 69.203,-0.357 69.203,-0.56L69.203,-10.72C69.203,-10.923 69.264,-11.08 69.387,-11.192C69.51,-11.304 69.667,-11.36 69.859,-11.36C70.04,-11.36 70.192,-11.304 70.315,-11.192C70.438,-11.08 70.499,-10.923 70.499,-10.72L70.499,-0.56C70.499,-0.357 70.438,-0.2 70.315,-0.088C70.192,0.024 70.04,0.08 69.859,0.08C69.667,0.08 69.51,0.024 69.387,-0.088Z" style="fill-rule:nonzero;"/><path d="M77.38,-0.104C77.262,-0.227 77.204,-0.389 77.204,-0.592L77.204,-10.64C77.204,-10.832 77.265,-10.987 77.388,-11.104C77.51,-11.221 77.673,-11.28 77.876,-11.28L83.7,-11.28C83.892,-11.28 84.041,-11.232 84.148,-11.136C84.254,-11.04 84.308,-10.901 84.308,-10.72C84.308,-10.549 84.254,-10.416 84.148,-10.32C84.041,-10.224 83.892,-10.176 83.7,-10.176L78.5,-10.176L78.5,-6.288L83.38,-6.288C83.572,-6.288 83.721,-6.24 83.828,-6.144C83.934,-6.048 83.988,-5.909 83.988,-5.728C83.988,-5.557 83.934,-5.424 83.828,-5.328C83.721,-5.232 83.572,-5.184 83.38,-5.184L78.5,-5.184L78.5,-0.592C78.5,-0.389 78.444,-0.227 78.332,-0.104C78.22,0.019 78.062,0.08 77.86,0.08C77.657,0.08 77.497,0.019 77.38,-0.104Z" style="fill-rule:nonzero;"/><path d="M86.092,-0.088C85.969,-0.2 85.908,-0.357 85.908,-0.56L85.908,-7.312C85.908,-7.515 85.969,-7.672 86.092,-7.784C86.215,-7.896 86.372,-7.952 86.564,-7.952C86.756,-7.952 86.911,-7.896 87.028,-7.784C87.145,-7.672 87.204,-7.515 87.204,-7.312L87.204,-0.56C87.204,-0.347 87.145,-0.187 87.028,-0.08C86.911,0.027 86.756,0.08 86.564,0.08C86.372,0.08 86.215,0.024 86.092,-0.088ZM85.94,-9.856C85.78,-10.005 85.7,-10.203 85.7,-10.448C85.7,-10.683 85.78,-10.875 85.94,-11.024C86.1,-11.173 86.308,-11.248 86.564,-11.248C86.82,-11.248 87.028,-11.173 87.188,-11.024C87.348,-10.875 87.428,-10.683 87.428,-10.448C87.428,-10.203 87.348,-10.005 87.188,-9.856C87.028,-9.707 86.82,-9.632 86.564,-9.632C86.308,-9.632 86.1,-9.707 85.94,-9.856Z" style="fill-rule:nonzero;"/><path d="M94.132,-7.408C94.132,-7.237 94.084,-7.101 93.988,-7C93.892,-6.899 93.727,-6.837 93.492,-6.816L93.012,-6.768C92.298,-6.704 91.767,-6.451 91.42,-6.008C91.074,-5.565 90.9,-5.045 90.9,-4.448L90.9,-0.56C90.9,-0.347 90.842,-0.187 90.724,-0.08C90.607,0.027 90.452,0.08 90.26,0.08C90.068,0.08 89.911,0.024 89.788,-0.088C89.666,-0.2 89.604,-0.357 89.604,-0.56L89.604,-7.312C89.604,-7.515 89.668,-7.672 89.796,-7.784C89.924,-7.896 90.079,-7.952 90.26,-7.952C90.431,-7.952 90.575,-7.896 90.692,-7.784C90.81,-7.672 90.868,-7.52 90.868,-7.328L90.868,-6.432C91.092,-6.901 91.41,-7.259 91.82,-7.504C92.231,-7.749 92.703,-7.893 93.236,-7.936L93.46,-7.952C93.908,-7.984 94.132,-7.803 94.132,-7.408Z" style="fill-rule:nonzero;"/><path d="M101.413,-1.664C101.498,-1.568 101.541,-1.445 101.541,-1.296C101.541,-1.029 101.354,-0.784 100.981,-0.56C100.597,-0.336 100.191,-0.168 99.765,-0.056C99.338,0.056 98.922,0.112 98.517,0.112C97.311,0.112 96.359,-0.245 95.661,-0.96C94.962,-1.675 94.613,-2.661 94.613,-3.92C94.613,-4.72 94.767,-5.427 95.077,-6.04C95.386,-6.653 95.821,-7.131 96.381,-7.472C96.941,-7.813 97.578,-7.984 98.293,-7.984C99.306,-7.984 100.111,-7.653 100.709,-6.992C101.306,-6.331 101.605,-5.435 101.605,-4.304C101.605,-4.091 101.562,-3.936 101.477,-3.84C101.391,-3.744 101.253,-3.696 101.061,-3.696L95.909,-3.696C96.005,-1.861 96.874,-0.944 98.517,-0.944C98.933,-0.944 99.29,-1 99.589,-1.112C99.887,-1.224 100.207,-1.376 100.549,-1.568C100.826,-1.728 101.013,-1.808 101.109,-1.808C101.226,-1.808 101.327,-1.76 101.413,-1.664ZM96.669,-6.336C96.258,-5.909 96.015,-5.307 95.941,-4.528L100.469,-4.528C100.447,-5.317 100.25,-5.923 99.877,-6.344C99.503,-6.765 98.981,-6.976 98.309,-6.976C97.626,-6.976 97.079,-6.763 96.669,-6.336Z" style="fill-rule:nonzero;"/><path d="M114.581,-7.92C114.741,-7.92 114.885,-7.867 115.013,-7.76C115.141,-7.653 115.205,-7.52 115.205,-7.36C115.205,-7.285 115.189,-7.205 115.157,-7.12L112.501,-0.4C112.437,-0.261 112.344,-0.152 112.221,-0.072C112.098,0.008 111.962,0.048 111.813,0.048C111.674,0.048 111.544,0.008 111.421,-0.072C111.298,-0.152 111.205,-0.261 111.141,-0.4L108.933,-6.016L106.741,-0.4C106.688,-0.261 106.597,-0.152 106.469,-0.072C106.341,0.008 106.202,0.048 106.053,0.048C105.914,0.048 105.781,0.008 105.653,-0.072C105.525,-0.152 105.429,-0.261 105.365,-0.4L102.709,-7.104C102.677,-7.189 102.661,-7.264 102.661,-7.328C102.661,-7.499 102.733,-7.643 102.877,-7.76C103.021,-7.877 103.178,-7.936 103.349,-7.936C103.605,-7.936 103.786,-7.808 103.893,-7.552L106.085,-1.648L108.341,-7.504C108.405,-7.643 108.493,-7.749 108.605,-7.824C108.717,-7.899 108.837,-7.936 108.965,-7.936C109.104,-7.936 109.229,-7.899 109.341,-7.824C109.453,-7.749 109.536,-7.643 109.589,-7.504L111.845,-1.664L114.053,-7.536C114.16,-7.792 114.336,-7.92 114.581,-7.92Z" style="fill-rule:nonzero;"/><path d="M122.821,-4.912L122.821,-0.56C122.821,-0.368 122.765,-0.213 122.653,-0.096C122.541,0.021 122.389,0.08 122.197,0.08C122.005,0.08 121.851,0.021 121.733,-0.096C121.616,-0.213 121.557,-0.368 121.557,-0.56L121.557,-1.328C121.355,-0.869 121.045,-0.515 120.629,-0.264C120.213,-0.013 119.733,0.112 119.189,0.112C118.688,0.112 118.227,0.011 117.805,-0.192C117.384,-0.395 117.051,-0.677 116.805,-1.04C116.56,-1.403 116.437,-1.803 116.437,-2.24C116.437,-2.827 116.587,-3.283 116.885,-3.608C117.184,-3.933 117.675,-4.168 118.357,-4.312C119.04,-4.456 119.989,-4.528 121.205,-4.528L121.557,-4.528L121.557,-5.056C121.557,-5.696 121.427,-6.165 121.165,-6.464C120.904,-6.763 120.48,-6.912 119.893,-6.912C119.168,-6.912 118.432,-6.715 117.685,-6.32C117.397,-6.139 117.195,-6.048 117.077,-6.048C116.949,-6.048 116.843,-6.096 116.757,-6.192C116.672,-6.288 116.629,-6.411 116.629,-6.56C116.629,-6.709 116.675,-6.84 116.765,-6.952C116.856,-7.064 117.003,-7.179 117.205,-7.296C117.579,-7.509 118.003,-7.677 118.477,-7.8C118.952,-7.923 119.424,-7.984 119.893,-7.984C121.845,-7.984 122.821,-6.96 122.821,-4.912ZM120.941,-1.56C121.352,-1.992 121.557,-2.549 121.557,-3.232L121.557,-3.696L121.269,-3.696C120.331,-3.696 119.616,-3.656 119.125,-3.576C118.635,-3.496 118.285,-3.363 118.077,-3.176C117.869,-2.989 117.765,-2.715 117.765,-2.352C117.765,-1.936 117.917,-1.592 118.221,-1.32C118.525,-1.048 118.907,-0.912 119.365,-0.912C120.005,-0.912 120.531,-1.128 120.941,-1.56Z" style="fill-rule:nonzero;"/><path d="M125.358,-0.088C125.235,-0.2 125.174,-0.357 125.174,-0.56L125.174,-10.72C125.174,-10.923 125.235,-11.08 125.358,-11.192C125.48,-11.304 125.638,-11.36 125.83,-11.36C126.011,-11.36 126.163,-11.304 126.286,-11.192C126.408,-11.08 126.47,-10.923 126.47,-10.72L126.47,-0.56C126.47,-0.357 126.408,-0.2 126.286,-0.088C126.163,0.024 126.011,0.08 125.83,0.08C125.638,0.08 125.48,0.024 125.358,-0.088Z" style="fill-rule:nonzero;"/><path d="M129.054,-0.088C128.931,-0.2 128.87,-0.357 128.87,-0.56L128.87,-10.72C128.87,-10.923 128.931,-11.08 129.054,-11.192C129.177,-11.304 129.334,-11.36 129.526,-11.36C129.707,-11.36 129.859,-11.304 129.982,-11.192C130.105,-11.08 130.166,-10.923 130.166,-10.72L130.166,-0.56C130.166,-0.357 130.105,-0.2 129.982,-0.088C129.859,0.024 129.707,0.08 129.526,0.08C129.334,0.08 129.177,0.024 129.054,-0.088Z" style="fill-rule:nonzero;"/></g></g></g></g></svg>