<?xml version="1.0" encoding="UTF-8" standalone="no"?><!DOCTYPE svg PUBLIC "-//W3C//DTD SVG 1.1//EN" "http://www.w3.org/Graphics/SVG/1.1/DTD/svg11.dtd"><svg width="525px" height="23px" version="1.1" xmlns="http://www.w3.org/2000/svg" xmlns:xlink="http://www.w3.org/1999/xlink" xml:space="preserve" xmlns:serif="http://www.serif.com/" style="fill-rule:evenodd;clip-rule:evenodd;stroke-linejoin:round;stroke-miterlimit:1.41421;"><g transform="matrix(1,0,0,1,-32,0)"><g transform="matrix(1,0,0,1,0,-6)"><g transform="matrix(1,0,0,1,31,24)"><g id="SonicWall-GMS-Secure"><path d="M4.092,-0.312C2.996,-0.648 2.12,-1.112 1.464,-1.704C1.16,-1.96 1.008,-2.288 1.008,-2.688C1.008,-2.976 1.088,-3.22 1.248,-3.42C1.408,-3.62 1.6,-3.72 1.824,-3.72C2.048,-3.72 2.32,-3.616 2.64,-3.408C4.064,-2.352 5.688,-1.824 7.512,-1.824C8.792,-1.824 9.776,-2.064 10.464,-2.544C11.152,-3.024 11.496,-3.712 11.496,-4.608C11.496,-5.312 11.176,-5.84 10.536,-6.192C9.896,-6.544 8.872,-6.88 7.464,-7.2C6.12,-7.488 5.016,-7.816 4.152,-8.184C3.288,-8.552 2.612,-9.052 2.124,-9.684C1.636,-10.316 1.392,-11.12 1.392,-12.096C1.392,-13.072 1.66,-13.94 2.196,-14.7C2.732,-15.46 3.48,-16.052 4.44,-16.476C5.4,-16.9 6.496,-17.112 7.728,-17.112C8.864,-17.112 9.912,-16.952 10.872,-16.632C11.832,-16.312 12.648,-15.84 13.32,-15.216C13.64,-14.944 13.8,-14.616 13.8,-14.232C13.8,-13.96 13.716,-13.72 13.548,-13.512C13.38,-13.304 13.184,-13.2 12.96,-13.2C12.752,-13.2 12.488,-13.304 12.168,-13.512C11.432,-14.072 10.74,-14.476 10.092,-14.724C9.444,-14.972 8.664,-15.096 7.752,-15.096C6.52,-15.096 5.56,-14.844 4.872,-14.34C4.184,-13.836 3.84,-13.136 3.84,-12.24C3.84,-11.472 4.144,-10.892 4.752,-10.5C5.36,-10.108 6.336,-9.752 7.68,-9.432C9.088,-9.112 10.228,-8.78 11.1,-8.436C11.972,-8.092 12.668,-7.62 13.188,-7.02C13.708,-6.42 13.968,-5.648 13.968,-4.704C13.968,-3.744 13.7,-2.892 13.164,-2.148C12.628,-1.404 11.876,-0.828 10.908,-0.42C9.94,-0.012 8.824,0.192 7.56,0.192C6.344,0.192 5.188,0.024 4.092,-0.312Z" style="fill-rule:nonzero;"/><path d="M18.745,-0.576C17.873,-1.072 17.201,-1.78 16.729,-2.7C16.257,-3.62 16.021,-4.688 16.021,-5.904C16.021,-7.136 16.257,-8.212 16.729,-9.132C17.201,-10.052 17.873,-10.76 18.745,-11.256C19.617,-11.752 20.629,-12 21.781,-12C22.933,-12 23.945,-11.752 24.817,-11.256C25.689,-10.76 26.361,-10.052 26.833,-9.132C27.305,-8.212 27.541,-7.136 27.541,-5.904C27.541,-4.688 27.305,-3.62 26.833,-2.7C26.361,-1.78 25.689,-1.072 24.817,-0.576C23.945,-0.08 22.933,0.168 21.781,0.168C20.629,0.168 19.617,-0.08 18.745,-0.576ZM24.241,-2.808C24.809,-3.512 25.093,-4.544 25.093,-5.904C25.093,-7.248 24.805,-8.276 24.229,-8.988C23.653,-9.7 22.837,-10.056 21.781,-10.056C20.725,-10.056 19.909,-9.7 19.333,-8.988C18.757,-8.276 18.469,-7.248 18.469,-5.904C18.469,-4.544 18.753,-3.512 19.321,-2.808C19.889,-2.104 20.709,-1.752 21.781,-1.752C22.853,-1.752 23.673,-2.104 24.241,-2.808Z" style="fill-rule:nonzero;"/><path d="M40.706,-7.272L40.706,-1.032C40.706,-0.664 40.598,-0.38 40.382,-0.18C40.166,0.02 39.866,0.12 39.482,0.12C39.114,0.12 38.822,0.016 38.606,-0.192C38.39,-0.4 38.282,-0.68 38.282,-1.032L38.282,-7.152C38.282,-8.144 38.086,-8.872 37.694,-9.336C37.302,-9.8 36.69,-10.032 35.858,-10.032C34.882,-10.032 34.098,-9.728 33.506,-9.12C32.914,-8.512 32.618,-7.696 32.618,-6.672L32.618,-1.032C32.618,-0.68 32.51,-0.4 32.294,-0.192C32.078,0.016 31.786,0.12 31.418,0.12C31.05,0.12 30.754,0.016 30.53,-0.192C30.306,-0.4 30.194,-0.68 30.194,-1.032L30.194,-10.8C30.194,-11.136 30.31,-11.412 30.542,-11.628C30.774,-11.844 31.066,-11.952 31.418,-11.952C31.77,-11.952 32.05,-11.848 32.258,-11.64C32.466,-11.432 32.57,-11.16 32.57,-10.824L32.57,-9.84C32.954,-10.544 33.49,-11.08 34.178,-11.448C34.866,-11.816 35.642,-12 36.506,-12C39.306,-12 40.706,-10.424 40.706,-7.272Z" style="fill-rule:nonzero;"/><path d="M44.33,-0.168C44.098,-0.36 43.982,-0.648 43.982,-1.032L43.982,-10.776C43.982,-11.16 44.098,-11.452 44.33,-11.652C44.562,-11.852 44.854,-11.952 45.206,-11.952C45.558,-11.952 45.846,-11.852 46.07,-11.652C46.294,-11.452 46.406,-11.16 46.406,-10.776L46.406,-1.032C46.406,-0.648 46.294,-0.36 46.07,-0.168C45.846,0.024 45.558,0.12 45.206,0.12C44.854,0.12 44.562,0.024 44.33,-0.168ZM44.102,-14.688C43.83,-14.944 43.694,-15.28 43.694,-15.696C43.694,-16.112 43.83,-16.444 44.102,-16.692C44.374,-16.94 44.742,-17.064 45.206,-17.064C45.654,-17.064 46.018,-16.94 46.298,-16.692C46.578,-16.444 46.718,-16.112 46.718,-15.696C46.718,-15.28 46.582,-14.944 46.31,-14.688C46.038,-14.432 45.67,-14.304 45.206,-14.304C44.742,-14.304 44.374,-14.432 44.102,-14.688Z" style="fill-rule:nonzero;"/><path d="M51.783,-0.576C50.927,-1.072 50.263,-1.776 49.791,-2.688C49.319,-3.6 49.083,-4.656 49.083,-5.856C49.083,-7.072 49.327,-8.144 49.815,-9.072C50.303,-10 50.987,-10.72 51.867,-11.232C52.747,-11.744 53.755,-12 54.891,-12C55.499,-12 56.111,-11.912 56.727,-11.736C57.343,-11.56 57.891,-11.32 58.371,-11.016C58.883,-10.664 59.139,-10.256 59.139,-9.792C59.139,-9.52 59.067,-9.292 58.923,-9.108C58.779,-8.924 58.595,-8.832 58.371,-8.832C58.227,-8.832 58.083,-8.868 57.939,-8.94C57.795,-9.012 57.611,-9.12 57.387,-9.264C56.987,-9.52 56.615,-9.716 56.271,-9.852C55.927,-9.988 55.515,-10.056 55.035,-10.056C53.947,-10.056 53.103,-9.688 52.503,-8.952C51.903,-8.216 51.603,-7.192 51.603,-5.88C51.603,-4.568 51.899,-3.556 52.491,-2.844C53.083,-2.132 53.923,-1.776 55.011,-1.776C55.491,-1.776 55.915,-1.848 56.283,-1.992C56.651,-2.136 57.027,-2.328 57.411,-2.568C57.587,-2.68 57.763,-2.776 57.939,-2.856C58.115,-2.936 58.275,-2.976 58.419,-2.976C58.643,-2.976 58.827,-2.884 58.971,-2.7C59.115,-2.516 59.187,-2.288 59.187,-2.016C59.187,-1.792 59.127,-1.588 59.007,-1.404C58.887,-1.22 58.683,-1.032 58.395,-0.84C57.915,-0.52 57.355,-0.272 56.715,-0.096C56.075,0.08 55.427,0.168 54.771,0.168C53.635,0.168 52.639,-0.08 51.783,-0.576Z" style="fill-rule:nonzero;"/><path d="M83.488,-16.872C83.68,-17 83.896,-17.064 84.136,-17.064C84.44,-17.064 84.708,-16.964 84.94,-16.764C85.172,-16.564 85.288,-16.304 85.288,-15.984C85.288,-15.808 85.256,-15.648 85.192,-15.504L79.888,-0.672C79.776,-0.4 79.6,-0.192 79.36,-0.048C79.12,0.096 78.856,0.168 78.568,0.168C78.296,0.168 78.04,0.096 77.8,-0.048C77.56,-0.192 77.392,-0.4 77.296,-0.672L72.928,-13.056L68.464,-0.672C68.368,-0.4 68.2,-0.192 67.96,-0.048C67.72,0.096 67.464,0.168 67.192,0.168C66.904,0.168 66.644,0.096 66.412,-0.048C66.18,-0.192 66.008,-0.4 65.896,-0.672L60.592,-15.504C60.528,-15.648 60.496,-15.808 60.496,-15.984C60.496,-16.304 60.616,-16.564 60.856,-16.764C61.096,-16.964 61.384,-17.064 61.72,-17.064C61.96,-17.064 62.18,-17 62.38,-16.872C62.58,-16.744 62.728,-16.552 62.824,-16.296L67.264,-3.528L71.776,-16.176C71.872,-16.448 72.028,-16.656 72.244,-16.8C72.46,-16.944 72.696,-17.016 72.952,-17.016C73.208,-17.016 73.44,-16.94 73.648,-16.788C73.856,-16.636 74.016,-16.424 74.128,-16.152L78.544,-3.408L83.056,-16.296C83.152,-16.552 83.296,-16.744 83.488,-16.872Z" style="fill-rule:nonzero;"/><path d="M94.817,-10.824C95.577,-10.04 95.957,-8.848 95.957,-7.248L95.957,-1.032C95.957,-0.664 95.853,-0.38 95.645,-0.18C95.437,0.02 95.149,0.12 94.781,0.12C94.429,0.12 94.149,0.016 93.941,-0.192C93.733,-0.4 93.629,-0.68 93.629,-1.032L93.629,-1.92C93.325,-1.248 92.873,-0.732 92.273,-0.372C91.673,-0.012 90.973,0.168 90.173,0.168C89.405,0.168 88.701,0.012 88.061,-0.3C87.421,-0.612 86.921,-1.048 86.561,-1.608C86.201,-2.168 86.021,-2.792 86.021,-3.48C86.021,-4.328 86.241,-4.996 86.681,-5.484C87.121,-5.972 87.849,-6.32 88.865,-6.528C89.881,-6.736 91.277,-6.84 93.053,-6.84L93.605,-6.84L93.605,-7.536C93.605,-8.432 93.421,-9.08 93.053,-9.48C92.685,-9.88 92.093,-10.08 91.277,-10.08C90.717,-10.08 90.189,-10.008 89.693,-9.864C89.197,-9.72 88.653,-9.512 88.061,-9.24C87.629,-9 87.325,-8.88 87.149,-8.88C86.909,-8.88 86.713,-8.968 86.561,-9.144C86.409,-9.32 86.333,-9.544 86.333,-9.816C86.333,-10.056 86.401,-10.268 86.537,-10.452C86.673,-10.636 86.893,-10.816 87.197,-10.992C87.757,-11.296 88.413,-11.54 89.165,-11.724C89.917,-11.908 90.645,-12 91.349,-12C92.901,-12 94.057,-11.608 94.817,-10.824ZM92.765,-2.532C93.325,-3.132 93.605,-3.904 93.605,-4.848L93.605,-5.472L93.173,-5.472C91.925,-5.472 90.965,-5.416 90.293,-5.304C89.621,-5.192 89.141,-5.004 88.853,-4.74C88.565,-4.476 88.421,-4.096 88.421,-3.6C88.421,-3.024 88.629,-2.552 89.045,-2.184C89.461,-1.816 89.981,-1.632 90.605,-1.632C91.485,-1.632 92.205,-1.932 92.765,-2.532Z" style="fill-rule:nonzero;"/><path d="M99.582,-0.168C99.35,-0.36 99.234,-0.648 99.234,-1.032L99.234,-15.864C99.234,-16.248 99.35,-16.54 99.582,-16.74C99.814,-16.94 100.106,-17.04 100.458,-17.04C100.81,-17.04 101.098,-16.94 101.322,-16.74C101.546,-16.54 101.658,-16.248 101.658,-15.864L101.658,-1.032C101.658,-0.648 101.546,-0.36 101.322,-0.168C101.098,0.024 100.81,0.12 100.458,0.12C100.106,0.12 99.814,0.024 99.582,-0.168Z" style="fill-rule:nonzero;"/><path d="M105.354,-0.168C105.122,-0.36 105.006,-0.648 105.006,-1.032L105.006,-15.864C105.006,-16.248 105.122,-16.54 105.354,-16.74C105.586,-16.94 105.878,-17.04 106.23,-17.04C106.582,-17.04 106.87,-16.94 107.094,-16.74C107.318,-16.54 107.43,-16.248 107.43,-15.864L107.43,-1.032C107.43,-0.648 107.318,-0.36 107.094,-0.168C106.87,0.024 106.582,0.12 106.23,0.12C105.878,0.12 105.586,0.024 105.354,-0.168Z" style="fill-rule:nonzero;"/><path d="M130.82,-8.712C131.004,-8.536 131.096,-8.296 131.096,-7.992L131.096,-2.376C131.096,-1.832 131.02,-1.44 130.868,-1.2C130.716,-0.96 130.416,-0.768 129.968,-0.624C129.328,-0.368 128.568,-0.168 127.688,-0.024C126.808,0.12 125.936,0.192 125.072,0.192C123.36,0.192 121.88,-0.152 120.632,-0.84C119.384,-1.528 118.432,-2.52 117.776,-3.816C117.12,-5.112 116.792,-6.664 116.792,-8.472C116.792,-10.248 117.12,-11.784 117.776,-13.08C118.432,-14.376 119.372,-15.372 120.596,-16.068C121.82,-16.764 123.256,-17.112 124.904,-17.112C126.024,-17.112 127.06,-16.948 128.012,-16.62C128.964,-16.292 129.776,-15.816 130.448,-15.192C130.768,-14.936 130.928,-14.616 130.928,-14.232C130.928,-13.944 130.848,-13.7 130.688,-13.5C130.528,-13.3 130.336,-13.2 130.112,-13.2C129.968,-13.2 129.84,-13.224 129.728,-13.272C129.616,-13.32 129.472,-13.4 129.296,-13.512C128.512,-14.088 127.8,-14.492 127.16,-14.724C126.52,-14.956 125.784,-15.072 124.952,-15.072C123.128,-15.072 121.736,-14.508 120.776,-13.38C119.816,-12.252 119.336,-10.616 119.336,-8.472C119.336,-6.28 119.828,-4.62 120.812,-3.492C121.796,-2.364 123.24,-1.8 125.144,-1.8C126.424,-1.8 127.656,-1.992 128.84,-2.376L128.84,-7.104L125.696,-7.104C125.376,-7.104 125.124,-7.188 124.94,-7.356C124.756,-7.524 124.664,-7.752 124.664,-8.04C124.664,-8.328 124.756,-8.556 124.94,-8.724C125.124,-8.892 125.376,-8.976 125.696,-8.976L130.088,-8.976C130.392,-8.976 130.636,-8.888 130.82,-8.712Z" style="fill-rule:nonzero;"/><path d="M150.693,-16.692C150.917,-16.46 151.029,-16.16 151.029,-15.792L151.029,-1.056C151.029,-0.688 150.929,-0.4 150.729,-0.192C150.529,0.016 150.253,0.12 149.901,0.12C149.565,0.12 149.301,0.016 149.109,-0.192C148.917,-0.4 148.821,-0.688 148.821,-1.056L148.821,-12.216L144.117,-3.264C143.813,-2.704 143.421,-2.424 142.941,-2.424C142.461,-2.424 142.069,-2.704 141.765,-3.264L137.037,-12.12L137.037,-1.056C137.037,-0.688 136.941,-0.4 136.749,-0.192C136.557,0.016 136.285,0.12 135.933,0.12C135.597,0.12 135.329,0.012 135.129,-0.204C134.929,-0.42 134.829,-0.704 134.829,-1.056L134.829,-15.792C134.829,-16.16 134.941,-16.46 135.165,-16.692C135.389,-16.924 135.677,-17.04 136.029,-17.04C136.525,-17.04 136.925,-16.752 137.229,-16.176L142.965,-5.208L148.653,-16.176C148.957,-16.752 149.349,-17.04 149.829,-17.04C150.181,-17.04 150.469,-16.924 150.693,-16.692Z" style="fill-rule:nonzero;"/><path d="M157.078,-0.312C155.982,-0.648 155.106,-1.112 154.45,-1.704C154.146,-1.96 153.994,-2.288 153.994,-2.688C153.994,-2.976 154.074,-3.22 154.234,-3.42C154.394,-3.62 154.586,-3.72 154.81,-3.72C155.034,-3.72 155.306,-3.616 155.626,-3.408C157.05,-2.352 158.674,-1.824 160.498,-1.824C161.778,-1.824 162.762,-2.064 163.45,-2.544C164.138,-3.024 164.482,-3.712 164.482,-4.608C164.482,-5.312 164.162,-5.84 163.522,-6.192C162.882,-6.544 161.858,-6.88 160.45,-7.2C159.106,-7.488 158.002,-7.816 157.138,-8.184C156.274,-8.552 155.598,-9.052 155.11,-9.684C154.622,-10.316 154.378,-11.12 154.378,-12.096C154.378,-13.072 154.646,-13.94 155.182,-14.7C155.718,-15.46 156.466,-16.052 157.426,-16.476C158.386,-16.9 159.482,-17.112 160.714,-17.112C161.85,-17.112 162.898,-16.952 163.858,-16.632C164.818,-16.312 165.634,-15.84 166.306,-15.216C166.626,-14.944 166.786,-14.616 166.786,-14.232C166.786,-13.96 166.702,-13.72 166.534,-13.512C166.366,-13.304 166.17,-13.2 165.946,-13.2C165.738,-13.2 165.474,-13.304 165.154,-13.512C164.418,-14.072 163.726,-14.476 163.078,-14.724C162.43,-14.972 161.65,-15.096 160.738,-15.096C159.506,-15.096 158.546,-14.844 157.858,-14.34C157.17,-13.836 156.826,-13.136 156.826,-12.24C156.826,-11.472 157.13,-10.892 157.738,-10.5C158.346,-10.108 159.322,-9.752 160.666,-9.432C162.074,-9.112 163.214,-8.78 164.086,-8.436C164.958,-8.092 165.654,-7.62 166.174,-7.02C166.694,-6.42 166.954,-5.648 166.954,-4.704C166.954,-3.744 166.686,-2.892 166.15,-2.148C165.614,-1.404 164.862,-0.828 163.894,-0.42C162.926,-0.012 161.81,0.192 160.546,0.192C159.33,0.192 158.174,0.024 157.078,-0.312Z" style="fill-rule:nonzero;"/><path d="M178.391,-0.312C177.295,-0.648 176.419,-1.112 175.763,-1.704C175.459,-1.96 175.307,-2.288 175.307,-2.688C175.307,-2.976 175.387,-3.22 175.547,-3.42C175.707,-3.62 175.899,-3.72 176.123,-3.72C176.347,-3.72 176.619,-3.616 176.939,-3.408C178.363,-2.352 179.987,-1.824 181.811,-1.824C183.091,-1.824 184.075,-2.064 184.763,-2.544C185.451,-3.024 185.795,-3.712 185.795,-4.608C185.795,-5.312 185.475,-5.84 184.835,-6.192C184.195,-6.544 183.171,-6.88 181.763,-7.2C180.419,-7.488 179.315,-7.816 178.451,-8.184C177.587,-8.552 176.911,-9.052 176.423,-9.684C175.935,-10.316 175.691,-11.12 175.691,-12.096C175.691,-13.072 175.959,-13.94 176.495,-14.7C177.031,-15.46 177.779,-16.052 178.739,-16.476C179.699,-16.9 180.795,-17.112 182.027,-17.112C183.163,-17.112 184.211,-16.952 185.171,-16.632C186.131,-16.312 186.947,-15.84 187.619,-15.216C187.939,-14.944 188.099,-14.616 188.099,-14.232C188.099,-13.96 188.015,-13.72 187.847,-13.512C187.679,-13.304 187.483,-13.2 187.259,-13.2C187.051,-13.2 186.787,-13.304 186.467,-13.512C185.731,-14.072 185.039,-14.476 184.391,-14.724C183.743,-14.972 182.963,-15.096 182.051,-15.096C180.819,-15.096 179.859,-14.844 179.171,-14.34C178.483,-13.836 178.139,-13.136 178.139,-12.24C178.139,-11.472 178.443,-10.892 179.051,-10.5C179.659,-10.108 180.635,-9.752 181.979,-9.432C183.387,-9.112 184.527,-8.78 185.399,-8.436C186.271,-8.092 186.967,-7.62 187.487,-7.02C188.007,-6.42 188.267,-5.648 188.267,-4.704C188.267,-3.744 187.999,-2.892 187.463,-2.148C186.927,-1.404 186.175,-0.828 185.207,-0.42C184.239,-0.012 183.123,0.192 181.859,0.192C180.643,0.192 179.487,0.024 178.391,-0.312Z" style="fill-rule:nonzero;"/><path d="M200.712,-2.688C200.856,-2.512 200.928,-2.288 200.928,-2.016C200.928,-1.552 200.64,-1.16 200.064,-0.84C199.504,-0.52 198.892,-0.272 198.228,-0.096C197.564,0.08 196.928,0.168 196.32,0.168C194.464,0.168 193,-0.372 191.928,-1.452C190.856,-2.532 190.32,-4.008 190.32,-5.88C190.32,-7.08 190.556,-8.144 191.028,-9.072C191.5,-10 192.164,-10.72 193.02,-11.232C193.876,-11.744 194.848,-12 195.936,-12C197.504,-12 198.744,-11.496 199.656,-10.488C200.568,-9.48 201.024,-8.12 201.024,-6.408C201.024,-5.768 200.736,-5.448 200.16,-5.448L192.744,-5.448C192.904,-2.968 194.096,-1.728 196.32,-1.728C196.912,-1.728 197.424,-1.808 197.856,-1.968C198.288,-2.128 198.744,-2.336 199.224,-2.592C199.272,-2.624 199.404,-2.692 199.62,-2.796C199.836,-2.9 200.016,-2.952 200.16,-2.952C200.384,-2.952 200.568,-2.864 200.712,-2.688ZM193.752,-9.336C193.192,-8.744 192.856,-7.912 192.744,-6.84L198.936,-6.84C198.888,-7.928 198.612,-8.764 198.108,-9.348C197.604,-9.932 196.896,-10.224 195.984,-10.224C195.056,-10.224 194.312,-9.928 193.752,-9.336Z" style="fill-rule:nonzero;"/><path d="M205.681,-0.576C204.825,-1.072 204.161,-1.776 203.689,-2.688C203.217,-3.6 202.981,-4.656 202.981,-5.856C202.981,-7.072 203.225,-8.144 203.713,-9.072C204.201,-10 204.885,-10.72 205.765,-11.232C206.645,-11.744 207.653,-12 208.789,-12C209.397,-12 210.009,-11.912 210.625,-11.736C211.241,-11.56 211.789,-11.32 212.269,-11.016C212.781,-10.664 213.037,-10.256 213.037,-9.792C213.037,-9.52 212.965,-9.292 212.821,-9.108C212.677,-8.924 212.493,-8.832 212.269,-8.832C212.125,-8.832 211.981,-8.868 211.837,-8.94C211.693,-9.012 211.509,-9.12 211.285,-9.264C210.885,-9.52 210.513,-9.716 210.169,-9.852C209.825,-9.988 209.413,-10.056 208.933,-10.056C207.845,-10.056 207.001,-9.688 206.401,-8.952C205.801,-8.216 205.501,-7.192 205.501,-5.88C205.501,-4.568 205.797,-3.556 206.389,-2.844C206.981,-2.132 207.821,-1.776 208.909,-1.776C209.389,-1.776 209.813,-1.848 210.181,-1.992C210.549,-2.136 210.925,-2.328 211.309,-2.568C211.485,-2.68 211.661,-2.776 211.837,-2.856C212.013,-2.936 212.173,-2.976 212.317,-2.976C212.541,-2.976 212.725,-2.884 212.869,-2.7C213.013,-2.516 213.085,-2.288 213.085,-2.016C213.085,-1.792 213.025,-1.588 212.905,-1.404C212.785,-1.22 212.581,-1.032 212.293,-0.84C211.813,-0.52 211.253,-0.272 210.613,-0.096C209.973,0.08 209.325,0.168 208.669,0.168C207.533,0.168 206.537,-0.08 205.681,-0.576Z" style="fill-rule:nonzero;"/><path d="M225.158,-11.64C225.374,-11.432 225.482,-11.144 225.482,-10.776L225.482,-1.008C225.482,-0.672 225.37,-0.4 225.146,-0.192C224.922,0.016 224.626,0.12 224.258,0.12C223.922,0.12 223.65,0.02 223.442,-0.18C223.234,-0.38 223.13,-0.648 223.13,-0.984L223.13,-1.896C222.762,-1.224 222.254,-0.712 221.606,-0.36C220.958,-0.008 220.234,0.168 219.434,0.168C216.586,0.168 215.162,-1.4 215.162,-4.536L215.162,-10.776C215.162,-11.144 215.27,-11.432 215.486,-11.64C215.702,-11.848 216.002,-11.952 216.386,-11.952C216.754,-11.952 217.046,-11.848 217.262,-11.64C217.478,-11.432 217.586,-11.144 217.586,-10.776L217.586,-4.56C217.586,-3.616 217.778,-2.92 218.162,-2.472C218.546,-2.024 219.138,-1.8 219.938,-1.8C220.882,-1.8 221.638,-2.104 222.206,-2.712C222.774,-3.32 223.058,-4.128 223.058,-5.136L223.058,-10.776C223.058,-11.128 223.17,-11.412 223.394,-11.628C223.618,-11.844 223.914,-11.952 224.282,-11.952C224.65,-11.952 224.942,-11.848 225.158,-11.64Z" style="fill-rule:nonzero;"/><path d="M236.126,-10.968C236.126,-10.616 236.038,-10.352 235.862,-10.176C235.686,-10 235.382,-9.896 234.95,-9.864L234.23,-9.792C233.222,-9.696 232.474,-9.344 231.986,-8.736C231.498,-8.128 231.254,-7.392 231.254,-6.528L231.254,-1.032C231.254,-0.648 231.142,-0.36 230.918,-0.168C230.694,0.024 230.406,0.12 230.054,0.12C229.702,0.12 229.41,0.024 229.178,-0.168C228.946,-0.36 228.83,-0.648 228.83,-1.032L228.83,-10.8C228.83,-11.168 228.946,-11.452 229.178,-11.652C229.41,-11.852 229.702,-11.952 230.054,-11.952C230.374,-11.952 230.642,-11.852 230.858,-11.652C231.074,-11.452 231.182,-11.176 231.182,-10.824L231.182,-9.672C231.502,-10.376 231.966,-10.912 232.574,-11.28C233.182,-11.648 233.87,-11.864 234.638,-11.928L234.974,-11.952C235.742,-12 236.126,-11.672 236.126,-10.968Z" style="fill-rule:nonzero;"/><path d="M247.059,-2.688C247.203,-2.512 247.275,-2.288 247.275,-2.016C247.275,-1.552 246.987,-1.16 246.411,-0.84C245.851,-0.52 245.239,-0.272 244.575,-0.096C243.911,0.08 243.275,0.168 242.667,0.168C240.811,0.168 239.347,-0.372 238.275,-1.452C237.203,-2.532 236.667,-4.008 236.667,-5.88C236.667,-7.08 236.903,-8.144 237.375,-9.072C237.847,-10 238.511,-10.72 239.367,-11.232C240.223,-11.744 241.195,-12 242.283,-12C243.851,-12 245.091,-11.496 246.003,-10.488C246.915,-9.48 247.371,-8.12 247.371,-6.408C247.371,-5.768 247.083,-5.448 246.507,-5.448L239.091,-5.448C239.251,-2.968 240.443,-1.728 242.667,-1.728C243.259,-1.728 243.771,-1.808 244.203,-1.968C244.635,-2.128 245.091,-2.336 245.571,-2.592C245.619,-2.624 245.751,-2.692 245.967,-2.796C246.183,-2.9 246.363,-2.952 246.507,-2.952C246.731,-2.952 246.915,-2.864 247.059,-2.688ZM240.099,-9.336C239.539,-8.744 239.203,-7.912 239.091,-6.84L245.283,-6.84C245.235,-7.928 244.959,-8.764 244.455,-9.348C243.951,-9.932 243.243,-10.224 242.331,-10.224C241.403,-10.224 240.659,-9.928 240.099,-9.336Z" style="fill-rule:nonzero;"/><path d="M259.733,-0.852C258.533,-1.548 257.613,-2.548 256.973,-3.852C256.333,-5.156 256.013,-6.696 256.013,-8.472C256.013,-10.232 256.333,-11.764 256.973,-13.068C257.613,-14.372 258.533,-15.372 259.733,-16.068C260.933,-16.764 262.341,-17.112 263.957,-17.112C265.013,-17.112 266.013,-16.948 266.957,-16.62C267.901,-16.292 268.725,-15.816 269.429,-15.192C269.733,-14.952 269.885,-14.632 269.885,-14.232C269.885,-13.944 269.805,-13.7 269.645,-13.5C269.485,-13.3 269.293,-13.2 269.069,-13.2C268.797,-13.2 268.533,-13.304 268.277,-13.512C267.509,-14.088 266.809,-14.492 266.177,-14.724C265.545,-14.956 264.829,-15.072 264.029,-15.072C262.269,-15.072 260.917,-14.504 259.973,-13.368C259.029,-12.232 258.557,-10.6 258.557,-8.472C258.557,-6.328 259.029,-4.688 259.973,-3.552C260.917,-2.416 262.269,-1.848 264.029,-1.848C264.797,-1.848 265.497,-1.968 266.129,-2.208C266.761,-2.448 267.477,-2.848 268.277,-3.408C268.597,-3.616 268.861,-3.72 269.069,-3.72C269.293,-3.72 269.485,-3.62 269.645,-3.42C269.805,-3.22 269.885,-2.976 269.885,-2.688C269.885,-2.288 269.733,-1.968 269.429,-1.728C268.725,-1.104 267.901,-0.628 266.957,-0.3C266.013,0.028 265.013,0.192 263.957,0.192C262.341,0.192 260.933,-0.156 259.733,-0.852Z" style="fill-rule:nonzero;"/><path d="M274.326,-0.576C273.454,-1.072 272.782,-1.78 272.31,-2.7C271.838,-3.62 271.602,-4.688 271.602,-5.904C271.602,-7.136 271.838,-8.212 272.31,-9.132C272.782,-10.052 273.454,-10.76 274.326,-11.256C275.198,-11.752 276.21,-12 277.362,-12C278.514,-12 279.526,-11.752 280.398,-11.256C281.27,-10.76 281.942,-10.052 282.414,-9.132C282.886,-8.212 283.122,-7.136 283.122,-5.904C283.122,-4.688 282.886,-3.62 282.414,-2.7C281.942,-1.78 281.27,-1.072 280.398,-0.576C279.526,-0.08 278.514,0.168 277.362,0.168C276.21,0.168 275.198,-0.08 274.326,-0.576ZM279.822,-2.808C280.39,-3.512 280.674,-4.544 280.674,-5.904C280.674,-7.248 280.386,-8.276 279.81,-8.988C279.234,-9.7 278.418,-10.056 277.362,-10.056C276.306,-10.056 275.49,-9.7 274.914,-8.988C274.338,-8.276 274.05,-7.248 274.05,-5.904C274.05,-4.544 274.334,-3.512 274.902,-2.808C275.47,-2.104 276.29,-1.752 277.362,-1.752C278.434,-1.752 279.254,-2.104 279.822,-2.808Z" style="fill-rule:nonzero;"/><path d="M303.15,-7.272L303.15,-1.032C303.15,-0.664 303.038,-0.38 302.814,-0.18C302.59,0.02 302.294,0.12 301.926,0.12C301.574,0.12 301.286,0.02 301.062,-0.18C300.838,-0.38 300.726,-0.664 300.726,-1.032L300.726,-7.248C300.726,-8.224 300.55,-8.932 300.198,-9.372C299.846,-9.812 299.294,-10.032 298.542,-10.032C297.662,-10.032 296.966,-9.732 296.454,-9.132C295.942,-8.532 295.686,-7.712 295.686,-6.672L295.686,-1.032C295.686,-0.664 295.574,-0.38 295.35,-0.18C295.126,0.02 294.83,0.12 294.462,0.12C294.11,0.12 293.822,0.02 293.598,-0.18C293.374,-0.38 293.262,-0.664 293.262,-1.032L293.262,-7.248C293.262,-8.224 293.086,-8.932 292.734,-9.372C292.382,-9.812 291.83,-10.032 291.078,-10.032C290.198,-10.032 289.498,-9.732 288.978,-9.132C288.458,-8.532 288.198,-7.712 288.198,-6.672L288.198,-1.032C288.198,-0.664 288.086,-0.38 287.862,-0.18C287.638,0.02 287.35,0.12 286.998,0.12C286.646,0.12 286.354,0.02 286.122,-0.18C285.89,-0.38 285.774,-0.664 285.774,-1.032L285.774,-10.8C285.774,-11.152 285.894,-11.432 286.134,-11.64C286.374,-11.848 286.662,-11.952 286.998,-11.952C287.334,-11.952 287.61,-11.852 287.826,-11.652C288.042,-11.452 288.15,-11.176 288.15,-10.824L288.15,-9.936C288.502,-10.608 288.99,-11.12 289.614,-11.472C290.238,-11.824 290.958,-12 291.774,-12C292.67,-12 293.41,-11.816 293.994,-11.448C294.578,-11.08 295.014,-10.512 295.302,-9.744C295.654,-10.432 296.174,-10.98 296.862,-11.388C297.55,-11.796 298.334,-12 299.214,-12C301.838,-12 303.15,-10.424 303.15,-7.272Z" style="fill-rule:nonzero;"/><path d="M315.415,-11.232C316.207,-10.72 316.823,-10 317.263,-9.072C317.703,-8.144 317.923,-7.072 317.923,-5.856C317.923,-4.656 317.707,-3.6 317.275,-2.688C316.843,-1.776 316.231,-1.072 315.439,-0.576C314.647,-0.08 313.739,0.168 312.715,0.168C311.835,0.168 311.059,-0.02 310.387,-0.396C309.715,-0.772 309.203,-1.312 308.851,-2.016L308.851,3.336C308.851,3.672 308.743,3.94 308.527,4.14C308.311,4.34 308.027,4.44 307.675,4.44C307.307,4.44 307.007,4.336 306.775,4.128C306.543,3.92 306.427,3.64 306.427,3.288L306.427,-10.776C306.427,-11.128 306.539,-11.412 306.763,-11.628C306.987,-11.844 307.283,-11.952 307.651,-11.952C308.003,-11.952 308.291,-11.844 308.515,-11.628C308.739,-11.412 308.851,-11.128 308.851,-10.776L308.851,-9.792C309.203,-10.496 309.715,-11.04 310.387,-11.424C311.059,-11.808 311.835,-12 312.715,-12C313.723,-12 314.623,-11.744 315.415,-11.232ZM314.587,-2.82C315.163,-3.532 315.451,-4.544 315.451,-5.856C315.451,-7.184 315.159,-8.216 314.575,-8.952C313.991,-9.688 313.179,-10.056 312.139,-10.056C311.083,-10.056 310.271,-9.696 309.703,-8.976C309.135,-8.256 308.851,-7.232 308.851,-5.904C308.851,-4.576 309.135,-3.552 309.703,-2.832C310.271,-2.112 311.083,-1.752 312.139,-1.752C313.195,-1.752 314.011,-2.108 314.587,-2.82Z" style="fill-rule:nonzero;"/><path d="M320.924,-0.168C320.692,-0.36 320.576,-0.648 320.576,-1.032L320.576,-15.864C320.576,-16.248 320.692,-16.54 320.924,-16.74C321.156,-16.94 321.448,-17.04 321.8,-17.04C322.152,-17.04 322.44,-16.94 322.664,-16.74C322.888,-16.54 323,-16.248 323,-15.864L323,-1.032C323,-0.648 322.888,-0.36 322.664,-0.168C322.44,0.024 322.152,0.12 321.8,0.12C321.448,0.12 321.156,0.024 320.924,-0.168Z" style="fill-rule:nonzero;"/><path d="M326.697,-0.168C326.465,-0.36 326.349,-0.648 326.349,-1.032L326.349,-10.776C326.349,-11.16 326.465,-11.452 326.697,-11.652C326.929,-11.852 327.221,-11.952 327.573,-11.952C327.925,-11.952 328.213,-11.852 328.437,-11.652C328.661,-11.452 328.773,-11.16 328.773,-10.776L328.773,-1.032C328.773,-0.648 328.661,-0.36 328.437,-0.168C328.213,0.024 327.925,0.12 327.573,0.12C327.221,0.12 326.929,0.024 326.697,-0.168ZM326.469,-14.688C326.197,-14.944 326.061,-15.28 326.061,-15.696C326.061,-16.112 326.197,-16.444 326.469,-16.692C326.741,-16.94 327.109,-17.064 327.573,-17.064C328.021,-17.064 328.385,-16.94 328.665,-16.692C328.945,-16.444 329.085,-16.112 329.085,-15.696C329.085,-15.28 328.949,-14.944 328.677,-14.688C328.405,-14.432 328.037,-14.304 327.573,-14.304C327.109,-14.304 326.741,-14.432 326.469,-14.688Z" style="fill-rule:nonzero;"/><path d="M340.51,-10.824C341.27,-10.04 341.65,-8.848 341.65,-7.248L341.65,-1.032C341.65,-0.664 341.546,-0.38 341.338,-0.18C341.13,0.02 340.842,0.12 340.474,0.12C340.122,0.12 339.842,0.016 339.634,-0.192C339.426,-0.4 339.322,-0.68 339.322,-1.032L339.322,-1.92C339.018,-1.248 338.566,-0.732 337.966,-0.372C337.366,-0.012 336.666,0.168 335.866,0.168C335.098,0.168 334.394,0.012 333.754,-0.3C333.114,-0.612 332.614,-1.048 332.254,-1.608C331.894,-2.168 331.714,-2.792 331.714,-3.48C331.714,-4.328 331.934,-4.996 332.374,-5.484C332.814,-5.972 333.542,-6.32 334.558,-6.528C335.574,-6.736 336.97,-6.84 338.746,-6.84L339.298,-6.84L339.298,-7.536C339.298,-8.432 339.114,-9.08 338.746,-9.48C338.378,-9.88 337.786,-10.08 336.97,-10.08C336.41,-10.08 335.882,-10.008 335.386,-9.864C334.89,-9.72 334.346,-9.512 333.754,-9.24C333.322,-9 333.018,-8.88 332.842,-8.88C332.602,-8.88 332.406,-8.968 332.254,-9.144C332.102,-9.32 332.026,-9.544 332.026,-9.816C332.026,-10.056 332.094,-10.268 332.23,-10.452C332.366,-10.636 332.586,-10.816 332.89,-10.992C333.45,-11.296 334.106,-11.54 334.858,-11.724C335.61,-11.908 336.338,-12 337.042,-12C338.594,-12 339.75,-11.608 340.51,-10.824ZM338.458,-2.532C339.018,-3.132 339.298,-3.904 339.298,-4.848L339.298,-5.472L338.866,-5.472C337.618,-5.472 336.658,-5.416 335.986,-5.304C335.314,-5.192 334.834,-5.004 334.546,-4.74C334.258,-4.476 334.114,-4.096 334.114,-3.6C334.114,-3.024 334.322,-2.552 334.738,-2.184C335.154,-1.816 335.674,-1.632 336.298,-1.632C337.178,-1.632 337.898,-1.932 338.458,-2.532Z" style="fill-rule:nonzero;"/><path d="M355.438,-7.272L355.438,-1.032C355.438,-0.664 355.33,-0.38 355.114,-0.18C354.898,0.02 354.598,0.12 354.214,0.12C353.846,0.12 353.554,0.016 353.338,-0.192C353.122,-0.4 353.014,-0.68 353.014,-1.032L353.014,-7.152C353.014,-8.144 352.818,-8.872 352.426,-9.336C352.034,-9.8 351.422,-10.032 350.59,-10.032C349.614,-10.032 348.83,-9.728 348.238,-9.12C347.646,-8.512 347.35,-7.696 347.35,-6.672L347.35,-1.032C347.35,-0.68 347.242,-0.4 347.026,-0.192C346.81,0.016 346.518,0.12 346.15,0.12C345.782,0.12 345.486,0.016 345.262,-0.192C345.038,-0.4 344.926,-0.68 344.926,-1.032L344.926,-10.8C344.926,-11.136 345.042,-11.412 345.274,-11.628C345.506,-11.844 345.798,-11.952 346.15,-11.952C346.502,-11.952 346.782,-11.848 346.99,-11.64C347.198,-11.432 347.302,-11.16 347.302,-10.824L347.302,-9.84C347.686,-10.544 348.222,-11.08 348.91,-11.448C349.598,-11.816 350.374,-12 351.238,-12C354.038,-12 355.438,-10.424 355.438,-7.272Z" style="fill-rule:nonzero;"/><path d="M360.743,-0.576C359.887,-1.072 359.223,-1.776 358.751,-2.688C358.279,-3.6 358.043,-4.656 358.043,-5.856C358.043,-7.072 358.287,-8.144 358.775,-9.072C359.263,-10 359.947,-10.72 360.827,-11.232C361.707,-11.744 362.715,-12 363.851,-12C364.459,-12 365.071,-11.912 365.687,-11.736C366.303,-11.56 366.851,-11.32 367.331,-11.016C367.843,-10.664 368.099,-10.256 368.099,-9.792C368.099,-9.52 368.027,-9.292 367.883,-9.108C367.739,-8.924 367.555,-8.832 367.331,-8.832C367.187,-8.832 367.043,-8.868 366.899,-8.94C366.755,-9.012 366.571,-9.12 366.347,-9.264C365.947,-9.52 365.575,-9.716 365.231,-9.852C364.887,-9.988 364.475,-10.056 363.995,-10.056C362.907,-10.056 362.063,-9.688 361.463,-8.952C360.863,-8.216 360.563,-7.192 360.563,-5.88C360.563,-4.568 360.859,-3.556 361.451,-2.844C362.043,-2.132 362.883,-1.776 363.971,-1.776C364.451,-1.776 364.875,-1.848 365.243,-1.992C365.611,-2.136 365.987,-2.328 366.371,-2.568C366.547,-2.68 366.723,-2.776 366.899,-2.856C367.075,-2.936 367.235,-2.976 367.379,-2.976C367.603,-2.976 367.787,-2.884 367.931,-2.7C368.075,-2.516 368.147,-2.288 368.147,-2.016C368.147,-1.792 368.087,-1.588 367.967,-1.404C367.847,-1.22 367.643,-1.032 367.355,-0.84C366.875,-0.52 366.315,-0.272 365.675,-0.096C365.035,0.08 364.387,0.168 363.731,0.168C362.595,0.168 361.599,-0.08 360.743,-0.576Z" style="fill-rule:nonzero;"/><path d="M379.992,-2.688C380.136,-2.512 380.208,-2.288 380.208,-2.016C380.208,-1.552 379.92,-1.16 379.344,-0.84C378.784,-0.52 378.172,-0.272 377.508,-0.096C376.844,0.08 376.208,0.168 375.6,0.168C373.744,0.168 372.28,-0.372 371.208,-1.452C370.136,-2.532 369.6,-4.008 369.6,-5.88C369.6,-7.08 369.836,-8.144 370.308,-9.072C370.78,-10 371.444,-10.72 372.3,-11.232C373.156,-11.744 374.128,-12 375.216,-12C376.784,-12 378.024,-11.496 378.936,-10.488C379.848,-9.48 380.304,-8.12 380.304,-6.408C380.304,-5.768 380.016,-5.448 379.44,-5.448L372.024,-5.448C372.184,-2.968 373.376,-1.728 375.6,-1.728C376.192,-1.728 376.704,-1.808 377.136,-1.968C377.568,-2.128 378.024,-2.336 378.504,-2.592C378.552,-2.624 378.684,-2.692 378.9,-2.796C379.116,-2.9 379.296,-2.952 379.44,-2.952C379.664,-2.952 379.848,-2.864 379.992,-2.688ZM373.032,-9.336C372.472,-8.744 372.136,-7.912 372.024,-6.84L378.216,-6.84C378.168,-7.928 377.892,-8.764 377.388,-9.348C376.884,-9.932 376.176,-10.224 375.264,-10.224C374.336,-10.224 373.592,-9.928 373.032,-9.336Z" style="fill-rule:nonzero;"/><path d="M389.846,-0.324C389.63,-0.54 389.522,-0.832 389.522,-1.2L389.522,-15.72C389.522,-16.088 389.63,-16.38 389.846,-16.596C390.062,-16.812 390.362,-16.92 390.746,-16.92L399.578,-16.92C399.946,-16.92 400.23,-16.832 400.43,-16.656C400.63,-16.48 400.73,-16.232 400.73,-15.912C400.73,-15.592 400.63,-15.348 400.43,-15.18C400.23,-15.012 399.946,-14.928 399.578,-14.928L391.946,-14.928L391.946,-9.6L399.098,-9.6C399.466,-9.6 399.75,-9.512 399.95,-9.336C400.15,-9.16 400.25,-8.912 400.25,-8.592C400.25,-8.272 400.15,-8.024 399.95,-7.848C399.75,-7.672 399.466,-7.584 399.098,-7.584L391.946,-7.584L391.946,-1.992L399.578,-1.992C400.346,-1.992 400.73,-1.664 400.73,-1.008C400.73,-0.688 400.63,-0.44 400.43,-0.264C400.23,-0.088 399.946,0 399.578,0L390.746,0C390.362,0 390.062,-0.108 389.846,-0.324Z" style="fill-rule:nonzero;"/><path d="M413.75,-7.272L413.75,-1.032C413.75,-0.664 413.642,-0.38 413.426,-0.18C413.21,0.02 412.91,0.12 412.526,0.12C412.158,0.12 411.866,0.016 411.65,-0.192C411.434,-0.4 411.326,-0.68 411.326,-1.032L411.326,-7.152C411.326,-8.144 411.13,-8.872 410.738,-9.336C410.346,-9.8 409.734,-10.032 408.902,-10.032C407.926,-10.032 407.142,-9.728 406.55,-9.12C405.958,-8.512 405.662,-7.696 405.662,-6.672L405.662,-1.032C405.662,-0.68 405.554,-0.4 405.338,-0.192C405.122,0.016 404.83,0.12 404.462,0.12C404.094,0.12 403.798,0.016 403.574,-0.192C403.35,-0.4 403.238,-0.68 403.238,-1.032L403.238,-10.8C403.238,-11.136 403.354,-11.412 403.586,-11.628C403.818,-11.844 404.11,-11.952 404.462,-11.952C404.814,-11.952 405.094,-11.848 405.302,-11.64C405.51,-11.432 405.614,-11.16 405.614,-10.824L405.614,-9.84C405.998,-10.544 406.534,-11.08 407.222,-11.448C407.91,-11.816 408.686,-12 409.55,-12C412.35,-12 413.75,-10.424 413.75,-7.272Z" style="fill-rule:nonzero;"/><path d="M420.771,-14.316C420.387,-13.876 420.195,-13.232 420.195,-12.384L420.195,-11.712L422.571,-11.712C422.907,-11.712 423.167,-11.628 423.351,-11.46C423.535,-11.292 423.627,-11.064 423.627,-10.776C423.627,-10.488 423.535,-10.26 423.351,-10.092C423.167,-9.924 422.907,-9.84 422.571,-9.84L420.195,-9.84L420.195,-1.056C420.195,-0.672 420.079,-0.38 419.847,-0.18C419.615,0.02 419.323,0.12 418.971,0.12C418.619,0.12 418.331,0.02 418.107,-0.18C417.883,-0.38 417.771,-0.672 417.771,-1.056L417.771,-9.84L416.331,-9.84C415.995,-9.84 415.735,-9.924 415.551,-10.092C415.367,-10.26 415.275,-10.488 415.275,-10.776C415.275,-11.064 415.367,-11.292 415.551,-11.46C415.735,-11.628 415.995,-11.712 416.331,-11.712L417.771,-11.712L417.771,-12.024C417.771,-13.496 418.147,-14.652 418.899,-15.492C419.651,-16.332 420.715,-16.8 422.091,-16.896L422.715,-16.944C423.227,-16.976 423.599,-16.92 423.831,-16.776C424.063,-16.632 424.179,-16.4 424.179,-16.08C424.179,-15.52 423.843,-15.2 423.171,-15.12L422.547,-15.072C421.747,-15.008 421.155,-14.756 420.771,-14.316Z" style="fill-rule:nonzero;"/><path d="M427.132,-0.576C426.26,-1.072 425.588,-1.78 425.116,-2.7C424.644,-3.62 424.408,-4.688 424.408,-5.904C424.408,-7.136 424.644,-8.212 425.116,-9.132C425.588,-10.052 426.26,-10.76 427.132,-11.256C428.004,-11.752 429.016,-12 430.168,-12C431.32,-12 432.332,-11.752 433.204,-11.256C434.076,-10.76 434.748,-10.052 435.22,-9.132C435.692,-8.212 435.928,-7.136 435.928,-5.904C435.928,-4.688 435.692,-3.62 435.22,-2.7C434.748,-1.78 434.076,-1.072 433.204,-0.576C432.332,-0.08 431.32,0.168 430.168,0.168C429.016,0.168 428.004,-0.08 427.132,-0.576ZM432.628,-2.808C433.196,-3.512 433.48,-4.544 433.48,-5.904C433.48,-7.248 433.192,-8.276 432.616,-8.988C432.04,-9.7 431.224,-10.056 430.168,-10.056C429.112,-10.056 428.296,-9.7 427.72,-8.988C427.144,-8.276 426.856,-7.248 426.856,-5.904C426.856,-4.544 427.14,-3.512 427.708,-2.808C428.276,-2.104 429.096,-1.752 430.168,-1.752C431.24,-1.752 432.06,-2.104 432.628,-2.808Z" style="fill-rule:nonzero;"/><path d="M445.877,-10.968C445.877,-10.616 445.789,-10.352 445.613,-10.176C445.437,-10 445.133,-9.896 444.701,-9.864L443.981,-9.792C442.973,-9.696 442.225,-9.344 441.737,-8.736C441.249,-8.128 441.005,-7.392 441.005,-6.528L441.005,-1.032C441.005,-0.648 440.893,-0.36 440.669,-0.168C440.445,0.024 440.157,0.12 439.805,0.12C439.453,0.12 439.161,0.024 438.929,-0.168C438.697,-0.36 438.581,-0.648 438.581,-1.032L438.581,-10.8C438.581,-11.168 438.697,-11.452 438.929,-11.652C439.161,-11.852 439.453,-11.952 439.805,-11.952C440.125,-11.952 440.393,-11.852 440.609,-11.652C440.825,-11.452 440.933,-11.176 440.933,-10.824L440.933,-9.672C441.253,-10.376 441.717,-10.912 442.325,-11.28C442.933,-11.648 443.621,-11.864 444.389,-11.928L444.725,-11.952C445.493,-12 445.877,-11.672 445.877,-10.968Z" style="fill-rule:nonzero;"/><path d="M449.118,-0.576C448.262,-1.072 447.598,-1.776 447.126,-2.688C446.654,-3.6 446.418,-4.656 446.418,-5.856C446.418,-7.072 446.662,-8.144 447.15,-9.072C447.638,-10 448.322,-10.72 449.202,-11.232C450.082,-11.744 451.09,-12 452.226,-12C452.834,-12 453.446,-11.912 454.062,-11.736C454.678,-11.56 455.226,-11.32 455.706,-11.016C456.218,-10.664 456.474,-10.256 456.474,-9.792C456.474,-9.52 456.402,-9.292 456.258,-9.108C456.114,-8.924 455.93,-8.832 455.706,-8.832C455.562,-8.832 455.418,-8.868 455.274,-8.94C455.13,-9.012 454.946,-9.12 454.722,-9.264C454.322,-9.52 453.95,-9.716 453.606,-9.852C453.262,-9.988 452.85,-10.056 452.37,-10.056C451.282,-10.056 450.438,-9.688 449.838,-8.952C449.238,-8.216 448.938,-7.192 448.938,-5.88C448.938,-4.568 449.234,-3.556 449.826,-2.844C450.418,-2.132 451.258,-1.776 452.346,-1.776C452.826,-1.776 453.25,-1.848 453.618,-1.992C453.986,-2.136 454.362,-2.328 454.746,-2.568C454.922,-2.68 455.098,-2.776 455.274,-2.856C455.45,-2.936 455.61,-2.976 455.754,-2.976C455.978,-2.976 456.162,-2.884 456.306,-2.7C456.45,-2.516 456.522,-2.288 456.522,-2.016C456.522,-1.792 456.462,-1.588 456.342,-1.404C456.222,-1.22 456.018,-1.032 455.73,-0.84C455.25,-0.52 454.69,-0.272 454.05,-0.096C453.41,0.08 452.762,0.168 452.106,0.168C450.97,0.168 449.974,-0.08 449.118,-0.576Z" style="fill-rule:nonzero;"/><path d="M468.366,-2.688C468.51,-2.512 468.582,-2.288 468.582,-2.016C468.582,-1.552 468.294,-1.16 467.718,-0.84C467.158,-0.52 466.546,-0.272 465.882,-0.096C465.218,0.08 464.582,0.168 463.974,0.168C462.118,0.168 460.654,-0.372 459.582,-1.452C458.51,-2.532 457.974,-4.008 457.974,-5.88C457.974,-7.08 458.21,-8.144 458.682,-9.072C459.154,-10 459.818,-10.72 460.674,-11.232C461.53,-11.744 462.502,-12 463.59,-12C465.158,-12 466.398,-11.496 467.31,-10.488C468.222,-9.48 468.678,-8.12 468.678,-6.408C468.678,-5.768 468.39,-5.448 467.814,-5.448L460.398,-5.448C460.558,-2.968 461.75,-1.728 463.974,-1.728C464.566,-1.728 465.078,-1.808 465.51,-1.968C465.942,-2.128 466.398,-2.336 466.878,-2.592C466.926,-2.624 467.058,-2.692 467.274,-2.796C467.49,-2.9 467.67,-2.952 467.814,-2.952C468.038,-2.952 468.222,-2.864 468.366,-2.688ZM461.406,-9.336C460.846,-8.744 460.51,-7.912 460.398,-6.84L466.59,-6.84C466.542,-7.928 466.266,-8.764 465.762,-9.348C465.258,-9.932 464.55,-10.224 463.638,-10.224C462.71,-10.224 461.966,-9.928 461.406,-9.336Z" style="fill-rule:nonzero;"/><path d="M488.683,-7.272L488.683,-1.032C488.683,-0.664 488.571,-0.38 488.347,-0.18C488.123,0.02 487.827,0.12 487.459,0.12C487.107,0.12 486.819,0.02 486.595,-0.18C486.371,-0.38 486.259,-0.664 486.259,-1.032L486.259,-7.248C486.259,-8.224 486.083,-8.932 485.731,-9.372C485.379,-9.812 484.827,-10.032 484.075,-10.032C483.195,-10.032 482.499,-9.732 481.987,-9.132C481.475,-8.532 481.219,-7.712 481.219,-6.672L481.219,-1.032C481.219,-0.664 481.107,-0.38 480.883,-0.18C480.659,0.02 480.363,0.12 479.995,0.12C479.643,0.12 479.355,0.02 479.131,-0.18C478.907,-0.38 478.795,-0.664 478.795,-1.032L478.795,-7.248C478.795,-8.224 478.619,-8.932 478.267,-9.372C477.915,-9.812 477.363,-10.032 476.611,-10.032C475.731,-10.032 475.031,-9.732 474.511,-9.132C473.991,-8.532 473.731,-7.712 473.731,-6.672L473.731,-1.032C473.731,-0.664 473.619,-0.38 473.395,-0.18C473.171,0.02 472.883,0.12 472.531,0.12C472.179,0.12 471.887,0.02 471.655,-0.18C471.423,-0.38 471.307,-0.664 471.307,-1.032L471.307,-10.8C471.307,-11.152 471.427,-11.432 471.667,-11.64C471.907,-11.848 472.195,-11.952 472.531,-11.952C472.867,-11.952 473.143,-11.852 473.359,-11.652C473.575,-11.452 473.683,-11.176 473.683,-10.824L473.683,-9.936C474.035,-10.608 474.523,-11.12 475.147,-11.472C475.771,-11.824 476.491,-12 477.307,-12C478.203,-12 478.943,-11.816 479.527,-11.448C480.111,-11.08 480.547,-10.512 480.835,-9.744C481.187,-10.432 481.707,-10.98 482.395,-11.388C483.083,-11.796 483.867,-12 484.747,-12C487.371,-12 488.683,-10.424 488.683,-7.272Z" style="fill-rule:nonzero;"/><path d="M501.68,-2.688C501.824,-2.512 501.896,-2.288 501.896,-2.016C501.896,-1.552 501.608,-1.16 501.032,-0.84C500.472,-0.52 499.86,-0.272 499.196,-0.096C498.532,0.08 497.896,0.168 497.288,0.168C495.432,0.168 493.968,-0.372 492.896,-1.452C491.824,-2.532 491.288,-4.008 491.288,-5.88C491.288,-7.08 491.524,-8.144 491.996,-9.072C492.468,-10 493.132,-10.72 493.988,-11.232C494.844,-11.744 495.816,-12 496.904,-12C498.472,-12 499.712,-11.496 500.624,-10.488C501.536,-9.48 501.992,-8.12 501.992,-6.408C501.992,-5.768 501.704,-5.448 501.128,-5.448L493.712,-5.448C493.872,-2.968 495.064,-1.728 497.288,-1.728C497.88,-1.728 498.392,-1.808 498.824,-1.968C499.256,-2.128 499.712,-2.336 500.192,-2.592C500.24,-2.624 500.372,-2.692 500.588,-2.796C500.804,-2.9 500.984,-2.952 501.128,-2.952C501.352,-2.952 501.536,-2.864 501.68,-2.688ZM494.72,-9.336C494.16,-8.744 493.824,-7.912 493.712,-6.84L499.904,-6.84C499.856,-7.928 499.58,-8.764 499.076,-9.348C498.572,-9.932 497.864,-10.224 496.952,-10.224C496.024,-10.224 495.28,-9.928 494.72,-9.336Z" style="fill-rule:nonzero;"/><path d="M515.133,-7.272L515.133,-1.032C515.133,-0.664 515.025,-0.38 514.809,-0.18C514.593,0.02 514.293,0.12 513.909,0.12C513.541,0.12 513.249,0.016 513.033,-0.192C512.817,-0.4 512.709,-0.68 512.709,-1.032L512.709,-7.152C512.709,-8.144 512.513,-8.872 512.121,-9.336C511.729,-9.8 511.117,-10.032 510.285,-10.032C509.309,-10.032 508.525,-9.728 507.933,-9.12C507.341,-8.512 507.045,-7.696 507.045,-6.672L507.045,-1.032C507.045,-0.68 506.937,-0.4 506.721,-0.192C506.505,0.016 506.213,0.12 505.845,0.12C505.477,0.12 505.181,0.016 504.957,-0.192C504.733,-0.4 504.621,-0.68 504.621,-1.032L504.621,-10.8C504.621,-11.136 504.737,-11.412 504.969,-11.628C505.201,-11.844 505.493,-11.952 505.845,-11.952C506.197,-11.952 506.477,-11.848 506.685,-11.64C506.893,-11.432 506.997,-11.16 506.997,-10.824L506.997,-9.84C507.381,-10.544 507.917,-11.08 508.605,-11.448C509.293,-11.816 510.069,-12 510.933,-12C513.733,-12 515.133,-10.424 515.133,-7.272Z" style="fill-rule:nonzero;"/><path d="M524.902,-1.452C525.054,-1.3 525.13,-1.088 525.13,-0.816C525.13,-0.496 525.006,-0.252 524.758,-0.084C524.51,0.084 524.146,0.152 523.666,0.12L523.018,0.072C521.722,-0.024 520.754,-0.42 520.114,-1.116C519.474,-1.812 519.154,-2.84 519.154,-4.2L519.154,-9.84L517.714,-9.84C517.01,-9.84 516.658,-10.152 516.658,-10.776C516.658,-11.064 516.75,-11.292 516.934,-11.46C517.118,-11.628 517.378,-11.712 517.714,-11.712L519.154,-11.712L519.154,-14.184C519.154,-14.552 519.262,-14.84 519.478,-15.048C519.694,-15.256 519.986,-15.36 520.354,-15.36C520.722,-15.36 521.018,-15.256 521.242,-15.048C521.466,-14.84 521.578,-14.552 521.578,-14.184L521.578,-11.712L523.954,-11.712C524.29,-11.712 524.55,-11.628 524.734,-11.46C524.918,-11.292 525.01,-11.064 525.01,-10.776C525.01,-10.472 524.918,-10.24 524.734,-10.08C524.55,-9.92 524.29,-9.84 523.954,-9.84L521.578,-9.84L521.578,-4.032C521.578,-3.28 521.734,-2.728 522.046,-2.376C522.358,-2.024 522.834,-1.824 523.474,-1.776L524.146,-1.728C524.498,-1.696 524.75,-1.604 524.902,-1.452Z" style="fill-rule:nonzero;"/></g></g></g></g></svg>