<?xml version="1.0" encoding="UTF-8" standalone="no"?><!DOCTYPE svg PUBLIC "-//W3C//DTD SVG 1.1//EN" "http://www.w3.org/Graphics/SVG/1.1/DTD/svg11.dtd"><svg width="99px" height="27px" version="1.1" xmlns="http://www.w3.org/2000/svg" xmlns:xlink="http://www.w3.org/1999/xlink" xml:space="preserve" xmlns:serif="http://www.serif.com/" style="fill-rule:evenodd;clip-rule:evenodd;stroke-linejoin:round;stroke-miterlimit:1.41421;"><g transform="matrix(1,0,0,1,-292,-350)"><g transform="matrix(1,0,0,1,0,-6)"><g id="X-Series-Switch-with"><g transform="matrix(1,0,0,1,292.406,366.866)"><path d="M8.68,-0.476C8.68,-0.327 8.624,-0.201 8.512,-0.098C8.4,0.005 8.269,0.056 8.12,0.056C7.971,0.056 7.835,-0.009 7.714,-0.14L4.522,-4.214L1.316,-0.14C1.213,-0.009 1.078,0.056 0.91,0.056C0.77,0.056 0.644,0.002 0.532,-0.105C0.42,-0.212 0.364,-0.336 0.364,-0.476C0.364,-0.616 0.406,-0.733 0.49,-0.826L3.85,-5.04L0.672,-9.044C0.579,-9.147 0.532,-9.268 0.532,-9.408C0.532,-9.548 0.586,-9.669 0.693,-9.772C0.8,-9.875 0.924,-9.926 1.064,-9.926C1.223,-9.926 1.358,-9.856 1.47,-9.716L4.522,-5.852L7.56,-9.716C7.672,-9.856 7.807,-9.926 7.966,-9.926C8.106,-9.926 8.232,-9.872 8.344,-9.765C8.456,-9.658 8.512,-9.529 8.512,-9.38C8.512,-9.249 8.47,-9.137 8.386,-9.044L5.194,-5.04L8.54,-0.826C8.633,-0.723 8.68,-0.607 8.68,-0.476Z" style="fill-rule:nonzero;"/><path d="M9.697,-3.388C9.608,-3.472 9.564,-3.584 9.564,-3.724C9.564,-3.864 9.608,-3.978 9.697,-4.067C9.786,-4.156 9.914,-4.2 10.082,-4.2L13.162,-4.2C13.339,-4.2 13.472,-4.156 13.561,-4.067C13.65,-3.978 13.694,-3.864 13.694,-3.724C13.694,-3.584 13.65,-3.472 13.561,-3.388C13.472,-3.304 13.339,-3.262 13.162,-3.262L10.082,-3.262C9.914,-3.262 9.786,-3.304 9.697,-3.388Z" style="fill-rule:nonzero;"/><path d="M16.671,-0.203C16.032,-0.413 15.521,-0.695 15.138,-1.05C14.998,-1.181 14.928,-1.344 14.928,-1.54C14.928,-1.671 14.965,-1.785 15.04,-1.883C15.115,-1.981 15.203,-2.03 15.306,-2.03C15.427,-2.03 15.558,-1.979 15.698,-1.876C16.566,-1.204 17.555,-0.868 18.666,-0.868C19.469,-0.868 20.085,-1.022 20.514,-1.33C20.943,-1.638 21.158,-2.077 21.158,-2.646C21.158,-2.973 21.055,-3.236 20.85,-3.437C20.645,-3.638 20.374,-3.799 20.038,-3.92C19.702,-4.041 19.249,-4.167 18.68,-4.298C17.915,-4.475 17.287,-4.662 16.797,-4.858C16.307,-5.054 15.91,-5.334 15.607,-5.698C15.304,-6.062 15.152,-6.538 15.152,-7.126C15.152,-7.686 15.304,-8.183 15.607,-8.617C15.91,-9.051 16.335,-9.387 16.881,-9.625C17.427,-9.863 18.05,-9.982 18.75,-9.982C19.403,-9.982 20.012,-9.882 20.577,-9.681C21.142,-9.48 21.615,-9.193 21.998,-8.82C22.147,-8.671 22.222,-8.507 22.222,-8.33C22.222,-8.199 22.185,-8.085 22.11,-7.987C22.035,-7.889 21.947,-7.84 21.844,-7.84C21.741,-7.84 21.606,-7.891 21.438,-7.994C20.981,-8.367 20.556,-8.629 20.164,-8.778C19.772,-8.927 19.301,-9.002 18.75,-9.002C17.975,-9.002 17.373,-8.841 16.944,-8.519C16.515,-8.197 16.3,-7.747 16.3,-7.168C16.3,-6.673 16.489,-6.302 16.867,-6.055C17.245,-5.808 17.826,-5.591 18.61,-5.404C19.459,-5.199 20.127,-5.01 20.612,-4.837C21.097,-4.664 21.501,-4.405 21.823,-4.06C22.145,-3.715 22.306,-3.253 22.306,-2.674C22.306,-2.123 22.154,-1.638 21.851,-1.218C21.548,-0.798 21.121,-0.471 20.57,-0.238C20.019,-0.005 19.389,0.112 18.68,0.112C17.98,0.112 17.31,0.007 16.671,-0.203Z" style="fill-rule:nonzero;"/><path d="M29.532,-1.456C29.607,-1.372 29.644,-1.265 29.644,-1.134C29.644,-0.901 29.481,-0.686 29.154,-0.49C28.818,-0.294 28.463,-0.147 28.09,-0.049C27.717,0.049 27.353,0.098 26.998,0.098C25.943,0.098 25.11,-0.215 24.499,-0.84C23.888,-1.465 23.582,-2.329 23.582,-3.43C23.582,-4.13 23.717,-4.748 23.988,-5.285C24.259,-5.822 24.639,-6.239 25.129,-6.538C25.619,-6.837 26.177,-6.986 26.802,-6.986C27.689,-6.986 28.393,-6.697 28.916,-6.118C29.439,-5.539 29.7,-4.755 29.7,-3.766C29.7,-3.579 29.663,-3.444 29.588,-3.36C29.513,-3.276 29.392,-3.234 29.224,-3.234L24.716,-3.234C24.8,-1.629 25.561,-0.826 26.998,-0.826C27.362,-0.826 27.675,-0.875 27.936,-0.973C28.197,-1.071 28.477,-1.204 28.776,-1.372C29.019,-1.512 29.182,-1.582 29.266,-1.582C29.369,-1.582 29.457,-1.54 29.532,-1.456ZM25.381,-5.544C25.022,-5.171 24.809,-4.643 24.744,-3.962L28.706,-3.962C28.687,-4.653 28.515,-5.182 28.188,-5.551C27.861,-5.92 27.404,-6.104 26.816,-6.104C26.219,-6.104 25.74,-5.917 25.381,-5.544Z" style="fill-rule:nonzero;"/><path d="M35.316,-6.482C35.316,-6.333 35.274,-6.214 35.19,-6.125C35.106,-6.036 34.961,-5.983 34.756,-5.964L34.336,-5.922C33.711,-5.866 33.246,-5.644 32.943,-5.257C32.64,-4.87 32.488,-4.415 32.488,-3.892L32.488,-0.49C32.488,-0.303 32.437,-0.163 32.334,-0.07C32.231,0.023 32.096,0.07 31.928,0.07C31.76,0.07 31.622,0.021 31.515,-0.077C31.408,-0.175 31.354,-0.313 31.354,-0.49L31.354,-6.398C31.354,-6.575 31.41,-6.713 31.522,-6.811C31.634,-6.909 31.769,-6.958 31.928,-6.958C32.077,-6.958 32.203,-6.909 32.306,-6.811C32.409,-6.713 32.46,-6.58 32.46,-6.412L32.46,-5.628C32.656,-6.039 32.934,-6.351 33.293,-6.566C33.652,-6.781 34.065,-6.907 34.532,-6.944L34.728,-6.958C35.12,-6.986 35.316,-6.827 35.316,-6.482Z" style="fill-rule:nonzero;"/><path d="M36.445,-0.077C36.338,-0.175 36.284,-0.313 36.284,-0.49L36.284,-6.398C36.284,-6.575 36.338,-6.713 36.445,-6.811C36.552,-6.909 36.69,-6.958 36.858,-6.958C37.026,-6.958 37.161,-6.909 37.264,-6.811C37.367,-6.713 37.418,-6.575 37.418,-6.398L37.418,-0.49C37.418,-0.303 37.367,-0.163 37.264,-0.07C37.161,0.023 37.026,0.07 36.858,0.07C36.69,0.07 36.552,0.021 36.445,-0.077ZM36.312,-8.624C36.172,-8.755 36.102,-8.927 36.102,-9.142C36.102,-9.347 36.172,-9.515 36.312,-9.646C36.452,-9.777 36.634,-9.842 36.858,-9.842C37.082,-9.842 37.264,-9.777 37.404,-9.646C37.544,-9.515 37.614,-9.347 37.614,-9.142C37.614,-8.927 37.544,-8.755 37.404,-8.624C37.264,-8.493 37.082,-8.428 36.858,-8.428C36.634,-8.428 36.452,-8.493 36.312,-8.624Z" style="fill-rule:nonzero;"/><path d="M45.064,-1.456C45.139,-1.372 45.176,-1.265 45.176,-1.134C45.176,-0.901 45.013,-0.686 44.686,-0.49C44.35,-0.294 43.995,-0.147 43.622,-0.049C43.249,0.049 42.885,0.098 42.53,0.098C41.475,0.098 40.642,-0.215 40.031,-0.84C39.42,-1.465 39.114,-2.329 39.114,-3.43C39.114,-4.13 39.249,-4.748 39.52,-5.285C39.791,-5.822 40.171,-6.239 40.661,-6.538C41.151,-6.837 41.709,-6.986 42.334,-6.986C43.221,-6.986 43.925,-6.697 44.448,-6.118C44.971,-5.539 45.232,-4.755 45.232,-3.766C45.232,-3.579 45.195,-3.444 45.12,-3.36C45.045,-3.276 44.924,-3.234 44.756,-3.234L40.248,-3.234C40.332,-1.629 41.093,-0.826 42.53,-0.826C42.894,-0.826 43.207,-0.875 43.468,-0.973C43.729,-1.071 44.009,-1.204 44.308,-1.372C44.551,-1.512 44.714,-1.582 44.798,-1.582C44.901,-1.582 44.989,-1.54 45.064,-1.456ZM40.913,-5.544C40.554,-5.171 40.341,-4.643 40.276,-3.962L44.238,-3.962C44.219,-4.653 44.047,-5.182 43.72,-5.551C43.393,-5.92 42.936,-6.104 42.348,-6.104C41.751,-6.104 41.272,-5.917 40.913,-5.544Z" style="fill-rule:nonzero;"/><path d="M47.957,-0.056C47.57,-0.159 47.227,-0.303 46.928,-0.49C46.76,-0.602 46.641,-0.707 46.571,-0.805C46.501,-0.903 46.466,-1.022 46.466,-1.162C46.466,-1.283 46.501,-1.384 46.571,-1.463C46.641,-1.542 46.732,-1.582 46.844,-1.582C46.956,-1.582 47.119,-1.512 47.334,-1.372C47.614,-1.204 47.892,-1.071 48.167,-0.973C48.442,-0.875 48.785,-0.826 49.196,-0.826C49.7,-0.826 50.092,-0.915 50.372,-1.092C50.652,-1.269 50.792,-1.526 50.792,-1.862C50.792,-2.067 50.741,-2.233 50.638,-2.359C50.535,-2.485 50.358,-2.597 50.106,-2.695C49.854,-2.793 49.485,-2.893 49,-2.996C48.179,-3.173 47.591,-3.411 47.236,-3.71C46.881,-4.009 46.704,-4.415 46.704,-4.928C46.704,-5.329 46.816,-5.684 47.04,-5.992C47.264,-6.3 47.574,-6.543 47.971,-6.72C48.368,-6.897 48.818,-6.986 49.322,-6.986C49.686,-6.986 50.038,-6.937 50.379,-6.839C50.72,-6.741 51.021,-6.603 51.282,-6.426C51.599,-6.202 51.758,-5.969 51.758,-5.726C51.758,-5.605 51.721,-5.502 51.646,-5.418C51.571,-5.334 51.483,-5.292 51.38,-5.292C51.268,-5.292 51.1,-5.371 50.876,-5.53C50.615,-5.698 50.367,-5.829 50.134,-5.922C49.901,-6.015 49.611,-6.062 49.266,-6.062C48.827,-6.062 48.475,-5.964 48.209,-5.768C47.943,-5.572 47.81,-5.311 47.81,-4.984C47.81,-4.779 47.859,-4.613 47.957,-4.487C48.055,-4.361 48.218,-4.249 48.447,-4.151C48.676,-4.053 49.005,-3.957 49.434,-3.864C50.069,-3.724 50.561,-3.57 50.911,-3.402C51.261,-3.234 51.511,-3.029 51.66,-2.786C51.809,-2.543 51.884,-2.235 51.884,-1.862C51.884,-1.274 51.637,-0.8 51.142,-0.441C50.647,-0.082 49.994,0.098 49.182,0.098C48.753,0.098 48.344,0.047 47.957,-0.056Z" style="fill-rule:nonzero;"/><path d="M58.503,-0.203C57.864,-0.413 57.353,-0.695 56.97,-1.05C56.83,-1.181 56.76,-1.344 56.76,-1.54C56.76,-1.671 56.798,-1.785 56.872,-1.883C56.947,-1.981 57.036,-2.03 57.138,-2.03C57.26,-2.03 57.39,-1.979 57.53,-1.876C58.398,-1.204 59.388,-0.868 60.498,-0.868C61.301,-0.868 61.917,-1.022 62.346,-1.33C62.776,-1.638 62.99,-2.077 62.99,-2.646C62.99,-2.973 62.888,-3.236 62.682,-3.437C62.477,-3.638 62.206,-3.799 61.87,-3.92C61.534,-4.041 61.082,-4.167 60.512,-4.298C59.747,-4.475 59.119,-4.662 58.629,-4.858C58.139,-5.054 57.743,-5.334 57.439,-5.698C57.136,-6.062 56.984,-6.538 56.984,-7.126C56.984,-7.686 57.136,-8.183 57.439,-8.617C57.743,-9.051 58.167,-9.387 58.713,-9.625C59.259,-9.863 59.882,-9.982 60.582,-9.982C61.236,-9.982 61.845,-9.882 62.409,-9.681C62.974,-9.48 63.448,-9.193 63.83,-8.82C63.98,-8.671 64.054,-8.507 64.054,-8.33C64.054,-8.199 64.017,-8.085 63.942,-7.987C63.868,-7.889 63.779,-7.84 63.676,-7.84C63.574,-7.84 63.438,-7.891 63.27,-7.994C62.813,-8.367 62.388,-8.629 61.996,-8.778C61.604,-8.927 61.133,-9.002 60.582,-9.002C59.808,-9.002 59.206,-8.841 58.776,-8.519C58.347,-8.197 58.132,-7.747 58.132,-7.168C58.132,-6.673 58.321,-6.302 58.699,-6.055C59.077,-5.808 59.658,-5.591 60.442,-5.404C61.292,-5.199 61.959,-5.01 62.444,-4.837C62.93,-4.664 63.333,-4.405 63.655,-4.06C63.977,-3.715 64.138,-3.253 64.138,-2.674C64.138,-2.123 63.987,-1.638 63.683,-1.218C63.38,-0.798 62.953,-0.471 62.402,-0.238C61.852,-0.005 61.222,0.112 60.512,0.112C59.812,0.112 59.143,0.007 58.503,-0.203Z" style="fill-rule:nonzero;"/><path d="M75.522,-6.93C75.662,-6.93 75.788,-6.883 75.9,-6.79C76.012,-6.697 76.068,-6.58 76.068,-6.44C76.068,-6.375 76.054,-6.305 76.026,-6.23L73.702,-0.35C73.646,-0.229 73.565,-0.133 73.457,-0.063C73.35,0.007 73.231,0.042 73.1,0.042C72.979,0.042 72.865,0.007 72.757,-0.063C72.65,-0.133 72.568,-0.229 72.512,-0.35L70.58,-5.264L68.662,-0.35C68.616,-0.229 68.536,-0.133 68.424,-0.063C68.312,0.007 68.191,0.042 68.06,0.042C67.939,0.042 67.822,0.007 67.71,-0.063C67.598,-0.133 67.514,-0.229 67.458,-0.35L65.134,-6.216C65.106,-6.291 65.092,-6.356 65.092,-6.412C65.092,-6.561 65.155,-6.687 65.281,-6.79C65.407,-6.893 65.545,-6.944 65.694,-6.944C65.918,-6.944 66.077,-6.832 66.17,-6.608L68.088,-1.442L70.062,-6.566C70.118,-6.687 70.195,-6.781 70.293,-6.846C70.391,-6.911 70.496,-6.944 70.608,-6.944C70.73,-6.944 70.839,-6.911 70.937,-6.846C71.035,-6.781 71.108,-6.687 71.154,-6.566L73.128,-1.456L75.06,-6.594C75.154,-6.818 75.308,-6.93 75.522,-6.93Z" style="fill-rule:nonzero;"/><path d="M77.673,-0.077C77.566,-0.175 77.512,-0.313 77.512,-0.49L77.512,-6.398C77.512,-6.575 77.566,-6.713 77.673,-6.811C77.781,-6.909 77.918,-6.958 78.086,-6.958C78.254,-6.958 78.39,-6.909 78.492,-6.811C78.595,-6.713 78.646,-6.575 78.646,-6.398L78.646,-0.49C78.646,-0.303 78.595,-0.163 78.492,-0.07C78.39,0.023 78.254,0.07 78.086,0.07C77.918,0.07 77.781,0.021 77.673,-0.077ZM77.54,-8.624C77.4,-8.755 77.33,-8.927 77.33,-9.142C77.33,-9.347 77.4,-9.515 77.54,-9.646C77.68,-9.777 77.862,-9.842 78.086,-9.842C78.31,-9.842 78.492,-9.777 78.632,-9.646C78.772,-9.515 78.842,-9.347 78.842,-9.142C78.842,-8.927 78.772,-8.755 78.632,-8.624C78.492,-8.493 78.31,-8.428 78.086,-8.428C77.862,-8.428 77.68,-8.493 77.54,-8.624Z" style="fill-rule:nonzero;"/><path d="M84.388,-0.378C84.388,-0.219 84.33,-0.1 84.213,-0.021C84.097,0.058 83.922,0.089 83.688,0.07L83.31,0.042C82.564,-0.014 82.013,-0.238 81.658,-0.63C81.304,-1.022 81.126,-1.615 81.126,-2.408L81.126,-5.922L80.188,-5.922C80.03,-5.922 79.906,-5.962 79.817,-6.041C79.729,-6.12 79.684,-6.225 79.684,-6.356C79.684,-6.496 79.729,-6.608 79.817,-6.692C79.906,-6.776 80.03,-6.818 80.188,-6.818L81.126,-6.818L81.126,-8.4C81.126,-8.577 81.178,-8.715 81.28,-8.813C81.383,-8.911 81.523,-8.96 81.7,-8.96C81.868,-8.96 82.004,-8.911 82.106,-8.813C82.209,-8.715 82.26,-8.577 82.26,-8.4L82.26,-6.818L83.814,-6.818C83.964,-6.818 84.083,-6.776 84.171,-6.692C84.26,-6.608 84.304,-6.496 84.304,-6.356C84.304,-6.225 84.26,-6.12 84.171,-6.041C84.083,-5.962 83.964,-5.922 83.814,-5.922L82.26,-5.922L82.26,-2.352C82.26,-1.839 82.365,-1.468 82.575,-1.239C82.785,-1.01 83.1,-0.882 83.52,-0.854L83.898,-0.826C84.225,-0.798 84.388,-0.649 84.388,-0.378Z" style="fill-rule:nonzero;"/><path d="M86.623,-0.336C86.133,-0.625 85.755,-1.036 85.489,-1.568C85.223,-2.1 85.09,-2.716 85.09,-3.416C85.09,-4.116 85.228,-4.737 85.503,-5.278C85.779,-5.819 86.164,-6.239 86.658,-6.538C87.153,-6.837 87.722,-6.986 88.366,-6.986C88.721,-6.986 89.073,-6.937 89.423,-6.839C89.773,-6.741 90.079,-6.599 90.34,-6.412C90.508,-6.3 90.627,-6.19 90.697,-6.083C90.767,-5.976 90.802,-5.857 90.802,-5.726C90.802,-5.595 90.767,-5.488 90.697,-5.404C90.627,-5.32 90.536,-5.278 90.424,-5.278C90.359,-5.278 90.289,-5.297 90.214,-5.334C90.14,-5.371 90.077,-5.409 90.025,-5.446C89.974,-5.483 89.939,-5.507 89.92,-5.516C89.678,-5.675 89.447,-5.801 89.227,-5.894C89.008,-5.987 88.74,-6.034 88.422,-6.034C87.741,-6.034 87.211,-5.803 86.833,-5.341C86.455,-4.879 86.266,-4.237 86.266,-3.416C86.266,-2.595 86.455,-1.96 86.833,-1.512C87.211,-1.064 87.741,-0.84 88.422,-0.84C88.74,-0.84 89.013,-0.887 89.241,-0.98C89.47,-1.073 89.701,-1.199 89.934,-1.358C90.037,-1.423 90.135,-1.479 90.228,-1.526C90.322,-1.573 90.401,-1.596 90.466,-1.596C90.569,-1.596 90.655,-1.554 90.725,-1.47C90.795,-1.386 90.83,-1.279 90.83,-1.148C90.83,-1.027 90.798,-0.917 90.732,-0.819C90.667,-0.721 90.546,-0.611 90.368,-0.49C90.107,-0.313 89.792,-0.17 89.423,-0.063C89.055,0.044 88.684,0.098 88.31,0.098C87.676,0.098 87.113,-0.047 86.623,-0.336Z" style="fill-rule:nonzero;"/><path d="M97.454,-6.307C97.865,-5.854 98.07,-5.18 98.07,-4.284L98.07,-0.49C98.07,-0.313 98.019,-0.175 97.916,-0.077C97.814,0.021 97.678,0.07 97.51,0.07C97.333,0.07 97.193,0.021 97.09,-0.077C96.988,-0.175 96.936,-0.313 96.936,-0.49L96.936,-4.256C96.936,-4.863 96.813,-5.311 96.565,-5.6C96.318,-5.889 95.924,-6.034 95.382,-6.034C94.757,-6.034 94.258,-5.843 93.884,-5.46C93.511,-5.077 93.324,-4.559 93.324,-3.906L93.324,-0.49C93.324,-0.313 93.275,-0.175 93.177,-0.077C93.079,0.021 92.942,0.07 92.764,0.07C92.587,0.07 92.447,0.021 92.344,-0.077C92.242,-0.175 92.19,-0.313 92.19,-0.49L92.19,-9.394C92.19,-9.553 92.244,-9.683 92.351,-9.786C92.459,-9.889 92.596,-9.94 92.764,-9.94C92.942,-9.94 93.079,-9.891 93.177,-9.793C93.275,-9.695 93.324,-9.562 93.324,-9.394L93.324,-5.726C93.548,-6.137 93.861,-6.449 94.262,-6.664C94.664,-6.879 95.121,-6.986 95.634,-6.986C96.437,-6.986 97.044,-6.76 97.454,-6.307Z" style="fill-rule:nonzero;"/></g><g transform="matrix(1,0,0,1,313.694,382.866)"><path d="M10.836,-6.93C10.976,-6.93 11.102,-6.883 11.214,-6.79C11.326,-6.697 11.382,-6.58 11.382,-6.44C11.382,-6.375 11.368,-6.305 11.34,-6.23L9.016,-0.35C8.96,-0.229 8.878,-0.133 8.771,-0.063C8.664,0.007 8.545,0.042 8.414,0.042C8.293,0.042 8.178,0.007 8.071,-0.063C7.964,-0.133 7.882,-0.229 7.826,-0.35L5.894,-5.264L3.976,-0.35C3.929,-0.229 3.85,-0.133 3.738,-0.063C3.626,0.007 3.505,0.042 3.374,0.042C3.253,0.042 3.136,0.007 3.024,-0.063C2.912,-0.133 2.828,-0.229 2.772,-0.35L0.448,-6.216C0.42,-6.291 0.406,-6.356 0.406,-6.412C0.406,-6.561 0.469,-6.687 0.595,-6.79C0.721,-6.893 0.859,-6.944 1.008,-6.944C1.232,-6.944 1.391,-6.832 1.484,-6.608L3.402,-1.442L5.376,-6.566C5.432,-6.687 5.509,-6.781 5.607,-6.846C5.705,-6.911 5.81,-6.944 5.922,-6.944C6.043,-6.944 6.153,-6.911 6.251,-6.846C6.349,-6.781 6.421,-6.687 6.468,-6.566L8.442,-1.456L10.374,-6.594C10.467,-6.818 10.621,-6.93 10.836,-6.93Z" style="fill-rule:nonzero;"/><path d="M12.987,-0.077C12.88,-0.175 12.826,-0.313 12.826,-0.49L12.826,-6.398C12.826,-6.575 12.88,-6.713 12.987,-6.811C13.094,-6.909 13.232,-6.958 13.4,-6.958C13.568,-6.958 13.703,-6.909 13.806,-6.811C13.909,-6.713 13.96,-6.575 13.96,-6.398L13.96,-0.49C13.96,-0.303 13.909,-0.163 13.806,-0.07C13.703,0.023 13.568,0.07 13.4,0.07C13.232,0.07 13.094,0.021 12.987,-0.077ZM12.854,-8.624C12.714,-8.755 12.644,-8.927 12.644,-9.142C12.644,-9.347 12.714,-9.515 12.854,-9.646C12.994,-9.777 13.176,-9.842 13.4,-9.842C13.624,-9.842 13.806,-9.777 13.946,-9.646C14.086,-9.515 14.156,-9.347 14.156,-9.142C14.156,-8.927 14.086,-8.755 13.946,-8.624C13.806,-8.493 13.624,-8.428 13.4,-8.428C13.176,-8.428 12.994,-8.493 12.854,-8.624Z" style="fill-rule:nonzero;"/><path d="M19.702,-0.378C19.702,-0.219 19.644,-0.1 19.527,-0.021C19.41,0.058 19.235,0.089 19.002,0.07L18.624,0.042C17.877,-0.014 17.327,-0.238 16.972,-0.63C16.617,-1.022 16.44,-1.615 16.44,-2.408L16.44,-5.922L15.502,-5.922C15.343,-5.922 15.22,-5.962 15.131,-6.041C15.042,-6.12 14.998,-6.225 14.998,-6.356C14.998,-6.496 15.042,-6.608 15.131,-6.692C15.22,-6.776 15.343,-6.818 15.502,-6.818L16.44,-6.818L16.44,-8.4C16.44,-8.577 16.491,-8.715 16.594,-8.813C16.697,-8.911 16.837,-8.96 17.014,-8.96C17.182,-8.96 17.317,-8.911 17.42,-8.813C17.523,-8.715 17.574,-8.577 17.574,-8.4L17.574,-6.818L19.128,-6.818C19.277,-6.818 19.396,-6.776 19.485,-6.692C19.574,-6.608 19.618,-6.496 19.618,-6.356C19.618,-6.225 19.574,-6.12 19.485,-6.041C19.396,-5.962 19.277,-5.922 19.128,-5.922L17.574,-5.922L17.574,-2.352C17.574,-1.839 17.679,-1.468 17.889,-1.239C18.099,-1.01 18.414,-0.882 18.834,-0.854L19.212,-0.826C19.539,-0.798 19.702,-0.649 19.702,-0.378Z" style="fill-rule:nonzero;"/><path d="M26.074,-6.307C26.485,-5.854 26.69,-5.18 26.69,-4.284L26.69,-0.49C26.69,-0.313 26.639,-0.175 26.536,-0.077C26.433,0.021 26.298,0.07 26.13,0.07C25.953,0.07 25.813,0.021 25.71,-0.077C25.607,-0.175 25.556,-0.313 25.556,-0.49L25.556,-4.256C25.556,-4.863 25.432,-5.311 25.185,-5.6C24.938,-5.889 24.543,-6.034 24.002,-6.034C23.377,-6.034 22.877,-5.843 22.504,-5.46C22.131,-5.077 21.944,-4.559 21.944,-3.906L21.944,-0.49C21.944,-0.313 21.895,-0.175 21.797,-0.077C21.699,0.021 21.561,0.07 21.384,0.07C21.207,0.07 21.067,0.021 20.964,-0.077C20.861,-0.175 20.81,-0.313 20.81,-0.49L20.81,-9.394C20.81,-9.553 20.864,-9.683 20.971,-9.786C21.078,-9.889 21.216,-9.94 21.384,-9.94C21.561,-9.94 21.699,-9.891 21.797,-9.793C21.895,-9.695 21.944,-9.562 21.944,-9.394L21.944,-5.726C22.168,-6.137 22.481,-6.449 22.882,-6.664C23.283,-6.879 23.741,-6.986 24.254,-6.986C25.057,-6.986 25.663,-6.76 26.074,-6.307Z" style="fill-rule:nonzero;"/><path d="M32.672,-0.091C32.569,-0.198 32.518,-0.341 32.518,-0.518L32.518,-9.31C32.518,-9.478 32.572,-9.613 32.679,-9.716C32.786,-9.819 32.929,-9.87 33.106,-9.87L36.424,-9.87C37.46,-9.87 38.265,-9.618 38.839,-9.114C39.413,-8.61 39.7,-7.896 39.7,-6.972C39.7,-6.048 39.411,-5.329 38.832,-4.816C38.253,-4.303 37.451,-4.046 36.424,-4.046L33.666,-4.046L33.666,-0.518C33.666,-0.341 33.615,-0.198 33.512,-0.091C33.409,0.016 33.269,0.07 33.092,0.07C32.915,0.07 32.775,0.016 32.672,-0.091ZM36.312,-4.998C37.815,-4.998 38.566,-5.656 38.566,-6.972C38.566,-8.269 37.815,-8.918 36.312,-8.918L33.666,-8.918L33.666,-4.998L36.312,-4.998Z" style="fill-rule:nonzero;"/><path d="M42.271,-0.336C41.781,-0.625 41.403,-1.038 41.137,-1.575C40.871,-2.112 40.738,-2.735 40.738,-3.444C40.738,-4.153 40.871,-4.776 41.137,-5.313C41.403,-5.85 41.781,-6.263 42.271,-6.552C42.761,-6.841 43.328,-6.986 43.972,-6.986C44.616,-6.986 45.185,-6.841 45.68,-6.552C46.175,-6.263 46.555,-5.85 46.821,-5.313C47.087,-4.776 47.22,-4.153 47.22,-3.444C47.22,-2.735 47.087,-2.112 46.821,-1.575C46.555,-1.038 46.175,-0.625 45.68,-0.336C45.185,-0.047 44.616,0.098 43.972,0.098C43.328,0.098 42.761,-0.047 42.271,-0.336ZM45.519,-1.505C45.878,-1.948 46.058,-2.595 46.058,-3.444C46.058,-4.275 45.876,-4.916 45.512,-5.369C45.148,-5.822 44.635,-6.048 43.972,-6.048C43.309,-6.048 42.796,-5.822 42.432,-5.369C42.068,-4.916 41.886,-4.275 41.886,-3.444C41.886,-2.604 42.066,-1.96 42.425,-1.512C42.784,-1.064 43.3,-0.84 43.972,-0.84C44.644,-0.84 45.16,-1.062 45.519,-1.505Z" style="fill-rule:nonzero;"/><path d="M49.231,-0.154C49.124,-0.257 49.07,-0.392 49.07,-0.56L49.07,-9.31C49.07,-9.478 49.124,-9.613 49.231,-9.716C49.338,-9.819 49.481,-9.87 49.658,-9.87L54.894,-9.87C55.062,-9.87 55.193,-9.828 55.286,-9.744C55.379,-9.66 55.426,-9.543 55.426,-9.394C55.426,-9.245 55.379,-9.128 55.286,-9.044C55.193,-8.96 55.062,-8.918 54.894,-8.918L50.204,-8.918L50.204,-5.488L54.614,-5.488C54.782,-5.488 54.913,-5.446 55.006,-5.362C55.099,-5.278 55.146,-5.161 55.146,-5.012C55.146,-4.863 55.099,-4.746 55.006,-4.662C54.913,-4.578 54.782,-4.536 54.614,-4.536L50.204,-4.536L50.204,-0.952L54.894,-0.952C55.062,-0.952 55.193,-0.912 55.286,-0.833C55.379,-0.754 55.426,-0.635 55.426,-0.476C55.426,-0.327 55.379,-0.21 55.286,-0.126C55.193,-0.042 55.062,0 54.894,0L49.658,0C49.481,0 49.338,-0.051 49.231,-0.154Z" style="fill-rule:nonzero;"/></g></g></g></g></svg>