<?xml version="1.0" encoding="UTF-8" standalone="no"?>
<svg width="126px" height="126px" viewBox="0 0 126 126" version="1.1" xmlns="http://www.w3.org/2000/svg" xmlns:xlink="http://www.w3.org/1999/xlink">
    <!-- Generator: Sketch 50.2 (55047) - http://www.bohemiancoding.com/sketch -->
    <title>Group 97</title>
    <desc>Created with Sketch.</desc>
    <defs></defs>
    <g id="Page-1" stroke="none" stroke-width="1" fill="none" fill-rule="evenodd">
        <g id="Group-97" transform="translate(3.000000, 3.000000)">
            <circle id="Oval-11" stroke="#FE791A" stroke-width="6" cx="60" cy="60" r="60"></circle>
            <g id="Group-84" transform="translate(24.209062, 31.656442)" fill="#FE791A">
                <g id="Group-76-Copy" transform="translate(35.394679, 34.362051) rotate(30.000000) translate(-35.394679, -34.362051) translate(1.894679, 22.362051)">
                    <path d="M6.10351562,4.8 C5.38360382,4.8 4.8,5.38360382 4.8,6.10351563 L4.8,17.4390659 C4.8,18.1589777 5.38360382,18.7425815 6.10351562,18.7425815 L60.5783287,18.7425815 C61.2982405,18.7425815 61.8818443,18.1589777 61.8818443,17.4390659 L61.8818443,6.10351563 C61.8818443,5.38360382 61.2982405,4.8 60.5783287,4.8 L6.10351562,4.8 Z M6.10351562,3.63797881e-12 L60.5783287,3.63868935e-12 C63.9492073,3.63807013e-12 66.6818443,2.73263702 66.6818443,6.10351563 L66.6818443,17.4390659 C66.6818443,20.8099445 63.9492073,23.5425815 60.5783287,23.5425815 L6.10351562,23.5425815 C2.73263702,23.5425815 -3.64023053e-12,20.8099445 -3.64064334e-12,17.4390659 L-3.63780117e-12,6.10351563 C-3.63821398e-12,2.73263702 2.73263702,3.63930857e-12 6.10351562,3.63797881e-12 Z" id="Rectangle-28" fill-rule="nonzero"></path>
                    <g id="Group-75" transform="translate(12.447278, 9.328193)">
                        <path d="M2.45807583,4.88619617 C1.10051804,4.88619617 0,3.7923839 0,2.44309808 C0,1.09381227 1.10051804,0 2.45807583,0 C3.81563362,0 4.91615166,1.09381227 4.91615166,2.44309808 C4.91615166,3.7923839 3.81563362,4.88619617 2.45807583,4.88619617 Z M15.0557145,4.88619617 C13.6981567,4.88619617 12.5976386,3.7923839 12.5976386,2.44309808 C12.5976386,1.09381227 13.6981567,0 15.0557145,0 C16.4132723,0 17.5137903,1.09381227 17.5137903,2.44309808 C17.5137903,3.7923839 16.4132723,4.88619617 15.0557145,4.88619617 Z M27.3460936,4.88619617 C25.9885358,4.88619617 24.8880178,3.7923839 24.8880178,2.44309808 C24.8880178,1.09381227 25.9885358,0 27.3460936,0 C28.7036514,0 29.8041694,1.09381227 29.8041694,2.44309808 C29.8041694,3.7923839 28.7036514,4.88619617 27.3460936,4.88619617 Z M39.3292133,4.88619617 C37.9716555,4.88619617 36.8711375,3.7923839 36.8711375,2.44309808 C36.8711375,1.09381227 37.9716555,0 39.3292133,0 C40.6867711,0 41.7872891,1.09381227 41.7872891,2.44309808 C41.7872891,3.7923839 40.6867711,4.88619617 39.3292133,4.88619617 Z" id="Combined-Shape"></path>
                    </g>
                </g>
                <g id="Group-79-Copy" transform="translate(33.128834, 0.000000)" fill-rule="nonzero">
                    <g id="Group-77" transform="translate(0.000000, 7.936906)">
                        <g id="Group-78">
                            <path d="M10.1736263,0.880592485 C10.1736263,0.394254685 11.1496736,0 12.3536891,0 C13.5577045,0 14.5337518,0.394254685 14.5337518,0.880592485 L14.5337518,14.3782593 C14.5337518,14.8645971 13.5577045,15.2588517 12.3536891,15.2588517 C11.1496736,15.2588517 10.1736263,14.8645971 10.1736263,14.3782593 L10.1736263,0.880592485 Z" id="Path-82"></path>
                            <path d="M0,13.7965227 L4.36012555,13.7965227 C4.36012555,15.4117668 5.66152202,16.7211808 7.26687591,16.7211808 C8.87222981,16.7211808 10.1736263,15.4117668 10.1736263,13.7965227 L14.5337518,13.7965227 C14.5337518,17.8346329 11.2802607,21.1081681 7.26687591,21.1081681 C3.25349117,21.1081681 0,17.8346329 0,13.7965227 Z" id="Oval-9"></path>
                            <path d="M-5.55111512e-16,13.7965227 L-5.55111512e-16,8.25006457 C-5.78714073e-16,8.05614767 0.0765615086,7.87017311 0.212841868,7.73305316 C0.496631025,7.44751564 0.956744158,7.44751564 1.24053332,7.73305316 L6.0263426,12.5483467 C6.16262296,12.6854667 6.23918447,12.8714412 6.23918447,13.0653581 C6.23918447,13.4691691 5.91383535,13.7965227 5.51249688,13.7965227 L-5.55111512e-16,13.7965227 Z" id="Path-83"></path>
                        </g>
                    </g>
                    <path d="M12.5093336,10.2867288 C9.66651943,10.2867288 7.36196319,7.9839661 7.36196319,5.14336439 C7.36196319,2.30276267 9.66651943,0 12.5093336,0 C15.3521478,0 17.6567041,2.30276267 17.6567041,5.14336439 C17.6567041,7.9839661 15.3521478,10.2867288 12.5093336,10.2867288 Z M12.5093336,7.20071014 C13.6464593,7.20071014 14.5682818,6.27960507 14.5682818,5.14336439 C14.5682818,4.0071237 13.6464593,3.08601863 12.5093336,3.08601863 C11.372208,3.08601863 10.4503855,4.0071237 10.4503855,5.14336439 C10.4503855,6.27960507 11.372208,7.20071014 12.5093336,7.20071014 Z" id="Oval-10"></path>
                </g>
            </g>
        </g>
    </g>
</svg>