<?xml version="1.0" encoding="UTF-8" standalone="no"?>
<svg width="126px" height="126px" viewBox="0 0 126 126" version="1.1" xmlns="http://www.w3.org/2000/svg" xmlns:xlink="http://www.w3.org/1999/xlink">
    <!-- Generator: Sketch 50.2 (55047) - http://www.bohemiancoding.com/sketch -->
    <title>Group 95</title>
    <desc>Created with Sketch.</desc>
    <defs></defs>
    <g id="Page-1" stroke="none" stroke-width="1" fill="none" fill-rule="evenodd">
        <g id="Group-95" transform="translate(3.000000, 3.000000)">
            <circle id="Oval-11" stroke="#FE791A" stroke-width="6" cx="60" cy="60" r="60"></circle>
            <g id="Group-83" transform="translate(31.465031, 29.256442)" fill="#FE791A" fill-rule="nonzero">
                <g id="Group-100">
                    <path d="M52.0647677,25.8964585 C52.4062488,22.0549381 52.4487433,18.8659396 52.3623956,12.1906086 C52.3391255,10.3916511 52.3264869,9.25382022 52.3228012,8.29721216 C44.5863916,5.94918192 36.5224242,4.74375 28.3007873,4.74375 C20.2917727,4.74375 12.4321787,5.8876299 4.87885399,8.11757468 C4.86925124,9.05801734 4.84982447,10.1740811 4.81483338,12.0071298 C4.68635767,18.7374791 4.71300588,22.0028932 5.04747845,25.9032347 C6.38582946,41.5099735 12.8321528,51.555506 28.5338539,57.2381016 C44.2296284,51.5584594 50.6751395,41.5291963 52.0647677,25.8964585 Z M0.197712131,7.24373384 C-0.231344962,6.07170997 0.324617245,4.63071815 1.68624981,4.19537757 C10.2369502,1.46155135 19.1795916,0.05625 28.3007873,0.05625 C37.5309606,0.05625 46.577995,1.49534347 55.2211622,4.29378092 C55.3227848,4.32674128 55.3227848,4.32674128 55.3966164,4.3507949 C56.3673651,4.66737567 57.0214535,5.57599155 57.0136197,6.59702775 C57.0023786,8.06216585 57.011806,9.21568227 57.0495035,12.1299792 C57.1378715,18.961498 57.0939027,22.261138 56.7338568,26.311504 C55.1697167,43.9074282 47.4574447,55.6509519 29.3008111,61.9390395 C28.8039311,62.1111213 28.2636181,62.1111137 27.7667429,61.9390179 C9.60105297,55.647221 1.88434741,43.8797798 0.377119597,26.3037399 C0.024238237,22.1887303 -0.00334847736,18.8083148 0.128187186,11.9176663 C0.173718067,9.53247828 0.192556371,8.37801983 0.197712131,7.24373384 Z" id="Combined-Shape"></path>
                    <polygon id="Path-60" transform="translate(29.430273, 25.238862) rotate(-315.000000) translate(-29.430273, -25.238862) " points="32.7844116 11.0592304 37.5844116 11.0592304 37.5844116 39.4184942 21.2761351 39.4184942 21.2761351 34.6184942 32.7844116 34.6184942"></polygon>
                </g>
            </g>
        </g>
    </g>
</svg>