<?xml version="1.0" encoding="UTF-8"?>
<svg width="48px" height="48px" viewBox="0 0 48 48" version="1.1" xmlns="http://www.w3.org/2000/svg" xmlns:xlink="http://www.w3.org/1999/xlink">
    <!-- Generator: Sketch 50.2 (55047) - http://www.bohemiancoding.com/sketch -->
    <title>025_Apple Updates</title>
    <desc>Created with Sketch.</desc>
    <defs></defs>
    <g id="025_Apple-Updates" stroke="none" stroke-width="1" fill="none" fill-rule="evenodd">
        <path d="M26.0701051,4.17707745 C29.2939315,0.0202652088 33.7758209,0 33.7758209,0 C33.7758209,0 34.4424943,3.90811003 31.239786,7.67286538 C27.8200925,11.6927889 23.9331392,11.0349976 23.9331392,11.0349976 C23.9331392,11.0349976 23.2032725,7.8734673 26.0701051,4.17707745 Z M24.3431703,13.7726144 C26.0016725,13.7726144 29.0797675,11.5423375 33.0863367,11.5423375 C39.9829523,11.5423375 42.6960736,16.3431418 42.6960736,16.3431418 C42.6960736,16.3431418 37.3896888,18.9972533 37.3896888,25.4373316 C37.3896888,32.7022907 44,35.2060296 44,35.2060296 C44,35.2060296 39.3791498,47.9295055 33.1376812,47.9295055 C30.2710099,47.9295055 28.042317,46.0396368 25.0218537,46.0396368 C21.9437588,46.0396368 18.8892001,48 16.899739,48 C11.2003305,48.0001577 4,35.9306094 4,26.2286998 C4,16.6833923 10.0946086,11.6760721 15.8111052,11.6760721 C19.5273398,11.6760721 22.4111797,13.7726144 24.3431703,13.7726144 Z" id="Shape" fill="#8A8A8A" fill-rule="nonzero"></path>
    </g>
</svg>