<?xml version="1.0" encoding="utf-8"?>
<!-- Generator: Adobe Illustrator 22.0.1, SVG Export Plug-In . SVG Version: 6.00 Build 0)  -->
<svg version="1.1" id="_x37_1d1a6a9-fa34-4020-836d-18c028c6d32d"
	 xmlns="http://www.w3.org/2000/svg" xmlns:xlink="http://www.w3.org/1999/xlink" x="0px" y="0px" viewBox="0 0 512 512"
	 style="enable-background:new 0 0 512 512;" xml:space="preserve">
<style type="text/css">
	.st0{fill:#575759;}
	.st1{fill:#9D9D9F;}
	.st2{fill:#FF791A;}
	.st3{fill:none;}
</style>
<title>Logos_CCP_CCSC_WAF_0329</title>
<g id="NSv_10_">
	<g id="NSv">
		<path id="v_5_" class="st0" d="M333.5,369c0-2.5,0.4-11.2,1.2-26c0.1-2.8,0.3-4.7,0.6-5.8s0.8-1.9,1.7-2.6s2.2-1,4.1-1
			c2.3,0,3.7,0.4,4.3,1.3c0.6,0.9,0.9,2.6,0.9,5.1c0,2.8-0.3,7.9-0.9,15.4c-0.2,2.9-0.9,8.4-0.9,16.6c0,7.4,1.5,11.1,4.6,11.1
			c4.4,0,9.7-4.5,15.9-13.4c6.2-8.9,11.9-19,16.9-30.1c0.5-15,3.6-22.5,9.1-22.5c2.3,0,4,0.8,5.3,2.5c1.3,1.7,1.9,3.3,1.9,5.1
			c0,1.2-0.6,2.8-1.7,4.9c-1.1,2.1-2.3,4.9-3.5,8.5c-1.2,3.6-8.8,25.9-10.5,13c-5.4,10.9-11.6,20.2-18.6,28
			c-7,7.8-13.4,11.7-19.4,11.7C337.2,390.8,333.5,383.5,333.5,369z"/>
		<g id="NS_8_">
			<path id="Path_8_" class="st1" d="M139.7,294.7c-3.8-13.5-5.6-27.9-5.6-42.1V179c0-1.8,0.4-3.4,1.2-4.9c0.8-1.5,1.9-2.6,3.3-3.3
				c11-6.1,19.3-10.6,24.8-13.7L215,317.4V129.1c1.4-0.6,11-6.5,13.7-7.9l0.1,268.8c-0.5,0.8-1.1,0.7-1.7,0.5
				c-0.6-0.2-1.2-0.4-1.7-0.5l-11.9-5.6c-3-1.4-6-3-8.9-4.6c-29-89.2-47.8-147.2-56.4-174.1c-0.4-1.4-0.4,35.9,0,111.8
				C143.1,304.8,140.3,297.2,139.7,294.7z"/>
			<path id="Combined-Shape_8_" class="st2" d="M242.3,121.4l89.8,51.9c1.4,0.7,2.5,1.8,3.3,3.3c0.8,1.5,1.2,3.1,1.2,4.9v71.8
				c0,14.5-1.9,28.5-5.7,42.1c-3.9,13.4-9.4,25.9-16.5,37.5c-7.1,11.6-15.7,21.9-25.8,30.9c-10,9-21.2,16.2-33.7,21.7
				c-5.4,2.5-9.4,4.4-12.1,5.6L242.3,121.4z M322.5,278.6c0-8.9-1.7-16.4-5.2-22.3c-3.4-6-8.3-10.5-14.5-13.7
				c-1.7-0.9-3.4-1.7-5-2.5c-1.6-0.8-3.2-1.5-4.8-2.2c-1.6-0.7-3.1-1.4-4.8-2.2c-1.6-0.8-3.3-1.6-5.2-2.6c-4.7-2.4-8.5-5.6-11.4-9.6
				c-2.9-4-4.4-9.4-4.4-16c0-4.3,0.5-8.1,1.6-11.4c1.1-3.3,2.5-6.1,4.4-8.4s4.1-4,6.6-5.1c2.5-1.1,5.2-1.7,8.1-1.7
				c3.6,0,6.8,1,9.8,3s5.6,4.6,7.8,7.8s4.3,6.9,6.1,10.9c1.7,4.1,3.2,8.2,4.3,12.4h1.5v-34.9h-1.5c-0.7,1.5-1.5,3-2.4,4.5
				c-0.9,1.5-1.4,2.3-1.7,2.3c-0.1,0-0.6-0.5-1.6-1.4c-1-0.9-2.4-2-4.3-3.1c-1.9-1.1-4.3-2.2-7.2-3.1c-2.9-0.9-6.5-1.4-10.6-1.4
				c-4.4,0-8.6,0.8-12.6,2.4c-4,1.6-7.5,4-10.5,7.3c-3,3.3-5.4,7.4-7.2,12.3c-1.8,4.9-2.7,10.7-2.7,17.5c0,4,0.5,7.8,1.5,11.4
				c1,3.6,2.3,6.9,4,9.8c1.7,3,3.6,5.5,5.8,7.7s4.5,3.9,6.9,5.2c2.1,1.1,3.9,2,5.4,2.7c1.5,0.7,3,1.4,4.4,2.1c1.4,0.7,3,1.4,4.6,2.2
				s3.6,1.7,5.8,2.8c2.2,1.1,4.3,2.4,6.2,3.8c1.9,1.4,3.6,3,5,5c1.4,1.9,2.5,4.2,3.4,6.9c0.8,2.6,1.2,5.7,1.2,9.2
				c0,8.7-2.1,15.6-6.3,20.7c-4.2,5.1-9.7,7.6-16.5,7.6c-2.4,0-4.9-0.6-7.4-1.7c-2.6-1.1-4.6-2.3-6.2-3.4s-3.2-2.8-4.9-4.9
				s-3.3-4.6-4.8-7.4c-1.5-2.8-2.9-5.8-4.2-9.1s-2.3-6.5-3.2-9.9h-1.4l0.4,37.5h1.2c0.7-1.4,1.6-2.8,2.5-4.3s1.5-2.3,1.8-2.3
				c0.3,0,0.9,0.4,2,1.3c1.1,0.9,2.6,1.9,4.8,2.9c2.1,1.1,4.8,2,8,2.7c3.2,0.8,7.1,1.1,11.6,1.1c5.2,0,10.1-0.8,14.5-2.5
				c4.4-1.6,8.2-4.1,11.4-7.5c3.2-3.4,5.6-7.5,7.4-12.3S322.5,284.7,322.5,278.6z"/>
		</g>
	</g>
	<rect x="76.1" y="76.1" class="st3" width="360" height="360"/>
</g>
</svg>
