<?xml version="1.0" encoding="UTF-8" standalone="no"?>
<!DOCTYPE svg PUBLIC "-//W3C//DTD SVG 1.1//EN" "http://www.w3.org/Graphics/SVG/1.1/DTD/svg11.dtd">
<svg width="100%" height="100%" viewBox="0 0 46 132" version="1.1" xmlns="http://www.w3.org/2000/svg" xmlns:xlink="http://www.w3.org/1999/xlink" xml:space="preserve" xmlns:serif="http://www.serif.com/" style="fill-rule:evenodd;clip-rule:evenodd;stroke-linejoin:round;stroke-miterlimit:1.41421;">
    <g transform="matrix(1,0,0,1,-757,-458)">
        <g transform="matrix(0.0987849,0,0,0.0987849,702.142,376.909)">
            <g id="A">
                <g transform="matrix(4.16667,0,0,4.16667,-471.978,-5.68434e-14)">
                    <path d="M284.054,459.939L284.054,507.887C284.054,512.06 287.437,515.443 291.61,515.443L314.808,515.443C318.981,515.443 322.364,512.06 322.364,507.887L322.364,459.939C322.364,455.767 318.981,452.384 314.808,452.384L291.61,452.384C287.437,452.384 284.054,455.767 284.054,459.939Z" style="fill:rgb(185,185,185);fill-rule:nonzero;"/>
                </g>
                <g transform="matrix(4.16667,0,0,4.16667,-471.978,-5.68434e-14)">
                    <path d="M357.941,211.01C357.941,203.65 351.974,197.684 344.615,197.684L261.803,197.684C254.444,197.684 248.477,203.65 248.477,211.01L248.477,217.673L357.941,217.673L357.941,211.01Z" style="fill:rgb(185,185,185);fill-rule:nonzero;"/>
                </g>
                <g transform="matrix(4.16667,0,0,4.16667,-471.978,-5.68434e-14)">
                    <rect x="248.477" y="221.762" width="109.464" height="15.23" style="fill:rgb(185,185,185);fill-rule:nonzero;"/>
                </g>
                <g transform="matrix(4.16667,0,0,4.16667,-471.978,-5.68434e-14)">
                    <path d="M255.372,304.226C267.541,307.876 284.249,311.368 304.204,311.249C323.244,311.136 339.236,307.77 351.054,304.224C355.151,302.994 357.941,299.206 357.941,294.93L357.941,277.101L357.941,250.171L357.941,241.403L248.477,241.403L248.477,294.929C248.477,299.209 251.272,302.995 255.372,304.226Z" style="fill:rgb(185,185,185);fill-rule:nonzero;"/>
                </g>
                <g transform="matrix(4.16667,0,0,4.16667,-471.978,-5.68434e-14)">
                    <path d="M314.808,450.14C315.431,450.14 316.034,450.224 316.614,450.365L316.614,313.604C312.638,313.926 308.503,314.125 304.204,314.15C299.192,314.181 294.386,313.982 289.804,313.611L289.804,450.365C290.384,450.224 290.987,450.14 291.61,450.14L314.808,450.14Z" style="fill:rgb(185,185,185);fill-rule:nonzero;"/>
                </g>
                <g transform="matrix(8.63593,0,0,8.63593,-5728.99,-2992.61)">
                    <text x="746.222px" y="486.221px" style="font-family:'Nunito-SemiBold', 'Nunito';font-weight:600;font-size:24px;fill:white;">A</text>
                </g>
            </g>
        </g>
    </g>
</svg>
