<?xml version="1.0" encoding="UTF-8" standalone="no"?>
<!DOCTYPE svg PUBLIC "-//W3C//DTD SVG 1.1//EN" "http://www.w3.org/Graphics/SVG/1.1/DTD/svg11.dtd">
<svg width="100%" height="100%" viewBox="0 0 46 132" version="1.1" xmlns="http://www.w3.org/2000/svg" xmlns:xlink="http://www.w3.org/1999/xlink" xml:space="preserve" xmlns:serif="http://www.serif.com/" style="fill-rule:evenodd;clip-rule:evenodd;stroke-linejoin:round;stroke-miterlimit:1.41421;">
    <g transform="matrix(1,0,0,1,-812,-474)">
        <g transform="matrix(0.0987849,0,0,0.0987849,702.142,376.909)">
            <g id="B">
                <g transform="matrix(4.16667,0,0,4.16667,-471.978,-5.68434e-14)">
                    <path d="M416.107,498.86L416.107,546.807C416.107,550.979 419.49,554.363 423.663,554.363L446.861,554.363C451.034,554.363 454.417,550.979 454.417,546.807L454.417,498.86C454.417,494.687 451.034,491.304 446.861,491.304L423.663,491.304C419.49,491.304 416.107,494.687 416.107,498.86Z" style="fill:rgb(185,185,185);fill-rule:nonzero;"/>
                </g>
                <g transform="matrix(4.16667,0,0,4.16667,-471.978,-5.68434e-14)">
                    <path d="M489.994,249.931C489.994,242.57 484.027,236.604 476.667,236.604L393.856,236.604C386.497,236.604 380.53,242.57 380.53,249.931L380.53,256.594L489.994,256.594L489.994,249.931Z" style="fill:rgb(185,185,185);fill-rule:nonzero;"/>
                </g>
                <g transform="matrix(4.16667,0,0,4.16667,-471.978,-5.68434e-14)">
                    <rect x="380.53" y="260.683" width="109.464" height="15.229" style="fill:rgb(185,185,185);fill-rule:nonzero;"/>
                </g>
                <g transform="matrix(4.16667,0,0,4.16667,-471.978,-5.68434e-14)">
                    <path d="M387.424,343.146C399.593,346.797 416.3,350.289 436.256,350.17C455.296,350.056 471.289,346.69 483.107,343.144C487.203,341.914 489.994,338.127 489.994,333.85L489.994,316.021L489.994,289.091L489.994,280.323L380.53,280.323L380.53,333.849C380.53,338.13 383.325,341.916 387.424,343.146Z" style="fill:rgb(185,185,185);fill-rule:nonzero;"/>
                </g>
                <g transform="matrix(4.16667,0,0,4.16667,-471.978,-5.68434e-14)">
                    <path d="M446.861,489.06C447.484,489.06 448.086,489.144 448.667,489.286L448.667,352.524C444.691,352.847 440.555,353.045 436.256,353.071C431.245,353.101 426.439,352.902 421.857,352.531L421.857,489.286C422.437,489.144 423.04,489.06 423.663,489.06L446.861,489.06Z" style="fill:rgb(185,185,185);fill-rule:nonzero;"/>
                </g>
                <g transform="matrix(8.63593,0,0,8.63593,-5178.58,-2820.29)">
                    <text x="746.894px" y="486.221px" style="font-family:'Nunito-SemiBold', 'Nunito';font-weight:600;font-size:24px;fill:white;">B</text>
                </g>
            </g>
        </g>
    </g>
</svg>
