<?xml version="1.0" encoding="UTF-8" standalone="no"?>
<!DOCTYPE svg PUBLIC "-//W3C//DTD SVG 1.1//EN" "http://www.w3.org/Graphics/SVG/1.1/DTD/svg11.dtd">
<svg width="100%" height="100%" viewBox="0 0 1280 800" version="1.1" xmlns="http://www.w3.org/2000/svg" xmlns:xlink="http://www.w3.org/1999/xlink" xml:space="preserve" xmlns:serif="http://www.serif.com/" style="fill-rule:evenodd;clip-rule:evenodd;stroke-linecap:round;stroke-linejoin:round;stroke-miterlimit:1.5;">
    <g>
        <g transform="matrix(1.42996,0,0,1.42996,133.759,-109.39)">
            <text x="428.212px" y="270.779px" style="font-family:'Nunito-Regular', 'Nunito';font-size:16px;fill:rgb(106,109,114);">Discov<tspan x="476.004px 484.436px 490.564px " y="270.779px 270.779px 270.779px ">ery</tspan> and</text>
            <text x="448.82px" y="286.779px" style="font-family:'Nunito-Regular', 'Nunito';font-size:16px;fill:rgb(106,109,114);">Visibility</text>
        </g>
        <g transform="matrix(1.66385,0,0,1.66385,598.666,-818.452)">
            <g transform="matrix(1.01387,0,0,1.01584,-2.5792,-9.96952)">
                <path d="M185.95,561.805C185.95,558.626 183.365,556.046 180.18,556.046L83.747,556.046C80.563,556.046 77.977,558.626 77.977,561.805L77.977,623.437C77.977,626.615 80.563,629.196 83.747,629.196L180.18,629.196C183.365,629.196 185.95,626.615 185.95,623.437L185.95,561.805Z" style="fill:none;stroke:rgb(99,101,105);stroke-width:3.14px;"/>
            </g>
            <path d="M95.99,596.2L114.798,596.2L123.129,576.708L135.386,607.197L145.178,586.554L151.828,594.293L165.667,594.293" style="fill:none;stroke:rgb(99,101,105);stroke-width:3.19px;"/>
            <path d="M126.061,620.057L136.09,620.057" style="fill:none;stroke:rgb(99,101,105);stroke-width:3.19px;"/>
            <path d="M121.188,629.196L121.188,639.911L112.414,639.911L149.421,639.911L141.559,639.911L141.559,629.196" style="fill:none;stroke:rgb(99,101,105);stroke-width:3.19px;"/>
        </g>
    </g>
    <g transform="matrix(1.42996,0,0,1.42996,-269.89,-13.4792)">
        <text x="435.732px" y="270.779px" style="font-family:'Nunito-Regular', 'Nunito';font-size:16px;fill:rgb(106,109,114);">App C<tspan x="480.788px " y="270.779px ">o</tspan>ntr<tspan x="509.684px " y="270.779px ">o</tspan>l</text>
    </g>
    <g transform="matrix(1.42996,0,0,1.42996,-59.8625,-13.4792)">
        <text x="428.396px" y="270.779px" style="font-family:'Nunito-Regular', 'Nunito';font-size:16px;fill:rgb(106,109,114);">Log C<tspan x="470.076px " y="270.779px ">o</tspan>llection</text>
    </g>
    <g>
        <g transform="matrix(1.42996,0,0,1.42996,-175.388,-108.66)">
            <text x="420.164px" y="270.779px" style="font-family:'Nunito-Regular', 'Nunito';font-size:16px;fill:rgb(106,109,114);">SonicW<tspan x="476.1px " y="270.779px ">a</tspan>ll Cloud</text>
            <text x="432.78px" y="286.779px" style="font-family:'Nunito-Regular', 'Nunito';font-size:16px;fill:rgb(106,109,114);">App Security</text>
        </g>
        <g>
            <g id="Combined-Shape" transform="matrix(0.786114,0,0,0.786114,372.331,33.6249)">
                <path d="M319.996,204.264C319.999,204.51 320,204.756 320,205.003C320,204.756 319.999,204.51 319.996,204.264ZM319.781,210.412C319.757,210.706 319.731,210.999 319.704,211.291C319.731,210.998 319.757,210.706 319.781,210.412ZM255.473,270C254.464,269.996 253.461,269.968 252.457,269.92L252.457,269.908C253.452,269.963 254.458,269.994 255.473,270ZM171.404,270L83.138,270L83.138,269.907C52.942,268.128 29,242.816 29,211.843C29,179.727 54.757,153.693 86.525,153.693C90.036,153.693 93.472,154.008 96.809,154.619C96.723,153.18 96.673,151.734 96.673,150.269C96.673,115.7 121.984,86.853 155.684,80C151.938,87.959 149.784,96.815 149.784,106.189L149.784,107.938C140.236,108.711 132.707,116.596 132.707,126.323L132.707,211.806C132.707,222.046 141.023,230.345 151.282,230.345L272.016,230.345C281.221,230.345 288.861,223.664 290.334,214.894C288.862,223.664 281.221,230.346 272.016,230.346L171.404,230.346L171.404,270Z" style="fill:rgb(128,128,138);"/>
            </g>
            <g id="Fill-5" transform="matrix(0.786114,0,0,0.786114,372.331,33.6249)">
                <path d="M198.922,84C190.104,88.629 184.037,97.577 184,108L232,108C223.656,97.316 212.241,88.896 198.922,84" style="fill:rgb(83,83,90);"/>
            </g>
            <g id="Fill-7" transform="matrix(0.786114,0,0,0.786114,372.331,33.6249)">
                <path d="M290.51,150L290.51,211.603C290.51,221.878 282.173,230.207 271.885,230.207L171,230.207L171,270L252.273,270L252.273,269.907C253.391,269.969 254.521,270 255.663,270C291.193,270 320,240.798 320,204.775C320,181.781 308.235,161.621 290.51,150" style="fill:rgb(83,83,90);"/>
            </g>
            <g id="Fill-9" transform="matrix(0.786114,0,0,0.786114,372.331,33.6249)">
                <path d="M248.4,118.683L175.6,118.683L175.6,105.746C175.6,85.738 191.9,69.524 212,69.524C232.1,69.524 248.4,85.738 248.4,105.746L248.4,118.683ZM214.385,200.224C214.385,200.224 183.047,188.928 176.137,170.131C168.4,149.09 197.085,144.287 226.428,145.124C242.241,145.575 261.565,147.982 261.565,147.982C261.565,147.982 215.909,153.802 199.41,167.13C183.301,180.145 214.385,200.224 214.385,200.224ZM160,118.683L160,105.746C160,77.169 183.276,54 212,54C240.724,54 264.006,77.169 264.006,105.746L264.006,118.683L264.619,118.683C271.46,118.683 277,124.202 277,131.003L277,204.68C277,211.48 271.46,217 264.619,217L159.381,217C152.547,217 147,211.48 147,204.68L147,131.003C147,124.202 152.547,118.683 159.381,118.683L160,118.683Z" style="fill:rgb(255,141,32);"/>
            </g>
            <g id="Combined-Shape1" serif:id="Combined-Shape" transform="matrix(0.786114,0,0,0.786114,372.331,33.6249)">
                <path d="M212,145.203L212,118.681L248.209,118.681L248.209,105.745C248.209,85.879 232.035,69.755 212,69.525L212,54C240.716,54.23 263.919,77.31 263.919,105.745L263.919,118.681L264.536,118.681C271.423,118.681 277,124.201 277,131.002L277,204.679C277,211.48 271.423,217 264.536,217L212,217L212,199.463C213.247,199.966 213.967,200.224 213.967,200.224C213.967,200.224 213.213,199.74 212,198.874L212,159.929C232.262,151.679 261.462,147.982 261.462,147.982C261.462,147.982 242.008,145.575 226.091,145.123C221.326,144.988 216.579,145 212,145.203Z" style="fill:rgb(255,108,11);"/>
            </g>
        </g>
    </g>
    <g transform="matrix(0.992609,0,0,1.01605,4.73048,-6.21771)">
        <path d="M627.866,387.28L628.024,387.283L628.182,387.288L628.339,387.294L628.496,387.303L628.652,387.314L628.808,387.326L628.963,387.341L629.118,387.357L629.272,387.375L629.425,387.395L629.578,387.417L629.73,387.441L629.882,387.466L630.033,387.494L630.183,387.523L630.333,387.554L630.482,387.587L630.63,387.621L630.778,387.657L630.925,387.695L631.071,387.735L631.216,387.776L631.361,387.819L631.505,387.864L631.648,387.91L631.79,387.958L631.932,388.008L632.073,388.059L632.213,388.112L632.352,388.167L632.49,388.223L632.628,388.281L632.764,388.34L632.9,388.401L633.035,388.464L633.169,388.528L633.301,388.593L633.434,388.661L633.565,388.729L633.695,388.799L633.824,388.871L633.952,388.944L634.079,389.018L634.206,389.094L634.331,389.172L634.455,389.251L634.578,389.331L634.7,389.413L634.821,389.496L634.941,389.58L635.06,389.666L635.178,389.753L635.295,389.842L635.41,389.931L635.525,390.023L635.638,390.115L635.75,390.209L635.861,390.304L635.971,390.4L636.079,390.498L636.187,390.597L636.293,390.697L636.398,390.798L636.501,390.9L636.604,391.004L636.705,391.109L636.805,391.215L636.904,391.322L637.001,391.431L637.097,391.54L637.191,391.651L637.285,391.763L637.377,391.876L637.467,391.99L637.557,392.105L637.644,392.221L637.731,392.338L637.816,392.456L637.899,392.575L637.982,392.696L638.062,392.817L638.141,392.939L638.219,393.063L638.296,393.187L638.37,393.312L638.444,393.438L638.515,393.566L638.586,393.694L638.654,393.823L638.721,393.953L638.787,394.083L638.851,394.215L638.913,394.348L638.974,394.481L639.033,394.615L639.091,394.75L639.147,394.886L639.201,395.023L639.254,395.161L639.304,395.299L639.354,395.438L639.401,395.578L639.447,395.718L639.491,395.86L639.533,396.002L639.574,396.145L639.613,396.288L639.65,396.432L639.685,396.577L639.718,396.723L639.75,396.869L639.78,397.016L639.808,397.163L639.834,397.311L639.858,397.46L639.881,397.609L639.901,397.759L639.92,397.91L639.936,398.061L639.951,398.212L639.964,398.365L639.975,398.517L639.984,398.67L639.991,398.824L639.996,398.978L639.999,399.133L640,399.288L640,567.411L639.999,567.566L639.996,567.721L639.991,567.875L639.984,568.028L639.975,568.182L639.964,568.334L639.951,568.486L639.936,568.638L639.92,568.789L639.901,568.94L639.881,569.089L639.858,569.239L639.834,569.387L639.808,569.536L639.78,569.683L639.75,569.83L639.718,569.976L639.685,570.122L639.65,570.266L639.613,570.411L639.574,570.554L639.533,570.697L639.491,570.839L639.447,570.98L639.401,571.121L639.354,571.261L639.304,571.4L639.254,571.538L639.201,571.676L639.147,571.813L639.091,571.948L639.033,572.084L638.974,572.218L638.913,572.351L638.851,572.484L638.787,572.615L638.721,572.746L638.654,572.876L638.586,573.005L638.515,573.133L638.444,573.26L638.37,573.387L638.296,573.512L638.219,573.636L638.141,573.759L638.062,573.882L637.982,574.003L637.899,574.123L637.816,574.243L637.731,574.361L637.644,574.478L637.557,574.594L637.467,574.709L637.377,574.823L637.285,574.936L637.191,575.048L637.097,575.159L637.001,575.268L636.904,575.377L636.805,575.484L636.705,575.59L636.604,575.695L636.501,575.799L636.398,575.901L636.293,576.002L636.187,576.102L636.079,576.201L635.971,576.299L635.861,576.395L635.75,576.49L635.638,576.584L635.525,576.676L635.41,576.767L635.295,576.857L635.178,576.946L635.06,577.033L634.941,577.119L634.821,577.203L634.7,577.286L634.578,577.368L634.455,577.448L634.331,577.527L634.206,577.604L634.079,577.68L633.952,577.755L633.824,577.828L633.695,577.9L633.565,577.97L633.434,578.038L633.301,578.105L633.169,578.171L633.035,578.235L632.9,578.298L632.764,578.359L632.628,578.418L632.49,578.476L632.352,578.532L632.213,578.587L632.073,578.64L631.932,578.691L631.79,578.741L631.648,578.789L631.505,578.835L631.361,578.88L631.216,578.923L631.071,578.964L630.925,579.004L630.778,579.042L630.63,579.078L630.482,579.112L630.333,579.145L630.183,579.176L630.033,579.205L629.882,579.232L629.73,579.258L629.578,579.282L629.425,579.303L629.272,579.324L629.118,579.342L628.963,579.358L628.808,579.372L628.652,579.385L628.496,579.396L628.339,579.404L628.182,579.411L628.024,579.416L627.866,579.419L627.707,579.42L87.451,579.42L87.292,579.419L87.134,579.416L86.976,579.411L86.819,579.404L86.662,579.396L86.506,579.385L86.35,579.372L86.195,579.358L86.04,579.342L85.886,579.324L85.733,579.303L85.58,579.282L85.428,579.258L85.276,579.232L85.125,579.205L84.975,579.176L84.825,579.145L84.676,579.112L84.528,579.078L84.38,579.042L84.234,579.004L84.087,578.964L83.942,578.923L83.797,578.88L83.653,578.835L83.51,578.789L83.368,578.741L83.226,578.691L83.085,578.64L82.945,578.587L82.806,578.532L82.668,578.476L82.531,578.418L82.394,578.359L82.258,578.298L82.124,578.235L81.99,578.171L81.857,578.105L81.725,578.038L81.594,577.97L81.463,577.9L81.334,577.828L81.206,577.755L81.079,577.68L80.953,577.604L80.827,577.527L80.703,577.448L80.58,577.368L80.458,577.286L80.337,577.203L80.217,577.119L80.098,577.033L79.98,576.946L79.864,576.857L79.748,576.767L79.634,576.676L79.52,576.584L79.408,576.49L79.297,576.395L79.187,576.299L79.079,576.201L78.971,576.102L78.865,576.002L78.76,575.901L78.657,575.799L78.554,575.695L78.453,575.59L78.353,575.484L78.255,575.377L78.157,575.268L78.061,575.159L77.967,575.048L77.873,574.936L77.781,574.823L77.691,574.709L77.602,574.594L77.514,574.478L77.427,574.361L77.342,574.243L77.259,574.123L77.177,574.003L77.096,573.882L77.017,573.759L76.939,573.636L76.863,573.512L76.788,573.387L76.715,573.26L76.643,573.133L76.573,573.005L76.504,572.876L76.437,572.746L76.371,572.615L76.307,572.484L76.245,572.351L76.184,572.218L76.125,572.084L76.067,571.948L76.011,571.813L75.957,571.676L75.905,571.538L75.854,571.4L75.805,571.261L75.757,571.121L75.711,570.98L75.667,570.839L75.625,570.697L75.584,570.554L75.545,570.411L75.508,570.266L75.473,570.122L75.44,569.976L75.408,569.83L75.378,569.683L75.35,569.536L75.324,569.387L75.3,569.239L75.278,569.089L75.257,568.94L75.238,568.789L75.222,568.638L75.207,568.486L75.194,568.334L75.183,568.182L75.174,568.028L75.167,567.875L75.162,567.721L75.159,567.566L75.158,567.411L75.158,399.288L75.159,399.133L75.162,398.978L75.167,398.824L75.174,398.67L75.183,398.517L75.194,398.365L75.207,398.212L75.222,398.061L75.238,397.91L75.257,397.759L75.278,397.609L75.3,397.46L75.324,397.311L75.35,397.163L75.378,397.016L75.408,396.869L75.44,396.723L75.473,396.577L75.508,396.432L75.545,396.288L75.584,396.145L75.625,396.002L75.667,395.86L75.711,395.718L75.757,395.578L75.805,395.438L75.854,395.299L75.905,395.161L75.957,395.023L76.011,394.886L76.067,394.75L76.125,394.615L76.184,394.481L76.245,394.348L76.307,394.215L76.371,394.083L76.437,393.953L76.504,393.823L76.573,393.694L76.643,393.566L76.715,393.438L76.788,393.312L76.863,393.187L76.939,393.063L77.017,392.939L77.096,392.817L77.177,392.696L77.259,392.575L77.342,392.456L77.427,392.338L77.514,392.221L77.602,392.105L77.691,391.99L77.781,391.876L77.873,391.763L77.967,391.651L78.061,391.54L78.157,391.431L78.255,391.322L78.353,391.215L78.453,391.109L78.554,391.004L78.657,390.9L78.76,390.798L78.865,390.697L78.971,390.597L79.079,390.498L79.187,390.4L79.297,390.304L79.408,390.209L79.52,390.115L79.634,390.023L79.748,389.931L79.864,389.842L79.98,389.753L80.098,389.666L80.217,389.58L80.337,389.496L80.458,389.413L80.58,389.331L80.703,389.251L80.827,389.172L80.953,389.094L81.079,389.018L81.206,388.944L81.334,388.871L81.463,388.799L81.594,388.729L81.725,388.661L81.857,388.593L81.99,388.528L82.124,388.464L82.258,388.401L82.394,388.34L82.531,388.281L82.668,388.223L82.806,388.167L82.945,388.112L83.085,388.059L83.226,388.008L83.368,387.958L83.51,387.91L83.653,387.864L83.797,387.819L83.942,387.776L84.087,387.735L84.234,387.695L84.38,387.657L84.528,387.621L84.676,387.587L84.825,387.554L84.975,387.523L85.125,387.494L85.276,387.466L85.428,387.441L85.58,387.417L85.733,387.395L85.886,387.375L86.04,387.357L86.195,387.341L86.35,387.326L86.506,387.314L86.662,387.303L86.819,387.294L86.976,387.288L87.134,387.283L87.292,387.28L87.451,387.279L627.707,387.279L627.866,387.28ZM87.459,389.739L87.324,389.74L87.198,389.742L87.072,389.746L86.947,389.752L86.822,389.759L86.697,389.767L86.573,389.777L86.45,389.789L86.327,389.802L86.204,389.816L86.082,389.832L85.961,389.849L85.84,389.868L85.72,389.889L85.6,389.91L85.48,389.933L85.362,389.958L85.243,389.984L85.126,390.011L85.009,390.04L84.892,390.07L84.776,390.101L84.661,390.134L84.546,390.168L84.432,390.204L84.318,390.241L84.205,390.279L84.093,390.318L83.981,390.359L83.87,390.401L83.759,390.444L83.65,390.489L83.541,390.535L83.432,390.582L83.324,390.631L83.218,390.68L83.111,390.731L83.005,390.783L82.901,390.836L82.796,390.891L82.693,390.947L82.59,391.004L82.488,391.062L82.387,391.121L82.287,391.181L82.187,391.243L82.088,391.306L81.99,391.37L81.893,391.435L81.797,391.501L81.701,391.568L81.607,391.636L81.513,391.706L81.42,391.776L81.328,391.848L81.237,391.92L81.147,391.994L81.057,392.068L80.969,392.144L80.881,392.221L80.795,392.299L80.71,392.377L80.625,392.457L80.541,392.538L80.459,392.619L80.377,392.702L80.297,392.786L80.217,392.87L80.138,392.955L80.061,393.042L79.985,393.129L79.909,393.217L79.835,393.306L79.762,393.396L79.689,393.487L79.619,393.578L79.549,393.671L79.48,393.764L79.412,393.858L79.346,393.953L79.28,394.049L79.216,394.145L79.153,394.243L79.091,394.341L79.03,394.44L78.971,394.539L78.913,394.639L78.856,394.741L78.8,394.842L78.745,394.945L78.692,395.048L78.64,395.152L78.589,395.257L78.54,395.362L78.491,395.468L78.444,395.574L78.399,395.682L78.354,395.79L78.311,395.898L78.27,396.007L78.229,396.117L78.19,396.227L78.152,396.338L78.116,396.45L78.081,396.562L78.048,396.675L78.015,396.788L77.985,396.902L77.955,397.016L77.927,397.131L77.901,397.247L77.876,397.363L77.852,397.479L77.83,397.596L77.809,397.714L77.79,397.832L77.772,397.951L77.756,398.07L77.741,398.19L77.727,398.31L77.716,398.43L77.705,398.551L77.697,398.673L77.69,398.795L77.684,398.918L77.68,399.041L77.678,399.164L77.677,399.296L77.677,567.403L77.678,567.535L77.68,567.658L77.684,567.781L77.69,567.904L77.697,568.026L77.705,568.147L77.716,568.269L77.727,568.389L77.741,568.509L77.756,568.629L77.772,568.748L77.79,568.867L77.809,568.985L77.83,569.102L77.852,569.219L77.876,569.336L77.901,569.452L77.927,569.568L77.955,569.683L77.985,569.797L78.015,569.911L78.048,570.024L78.081,570.137L78.116,570.249L78.152,570.361L78.19,570.472L78.229,570.582L78.27,570.692L78.311,570.801L78.354,570.909L78.399,571.017L78.444,571.125L78.491,571.231L78.54,571.337L78.589,571.442L78.64,571.547L78.692,571.651L78.745,571.754L78.8,571.856L78.856,571.958L78.913,572.059L78.971,572.16L79.03,572.259L79.091,572.358L79.153,572.456L79.216,572.553L79.28,572.65L79.346,572.746L79.412,572.84L79.48,572.935L79.549,573.028L79.619,573.12L79.689,573.212L79.762,573.303L79.835,573.393L79.909,573.482L79.985,573.57L80.061,573.657L80.138,573.743L80.217,573.829L80.297,573.913L80.377,573.997L80.459,574.08L80.541,574.161L80.625,574.242L80.71,574.322L80.795,574.4L80.882,574.478L80.969,574.555L81.057,574.63L81.147,574.705L81.237,574.779L81.328,574.851L81.42,574.923L81.513,574.993L81.607,575.063L81.701,575.131L81.797,575.198L81.893,575.264L81.99,575.329L82.088,575.393L82.187,575.456L82.287,575.518L82.387,575.578L82.488,575.637L82.59,575.695L82.693,575.752L82.796,575.808L82.9,575.862L83.006,575.916L83.111,575.968L83.218,576.019L83.325,576.069L83.432,576.117L83.54,576.164L83.65,576.21L83.76,576.254L83.87,576.298L83.981,576.34L84.093,576.381L84.205,576.42L84.318,576.458L84.432,576.495L84.546,576.53L84.661,576.565L84.776,576.597L84.892,576.629L85.009,576.659L85.125,576.688L85.243,576.715L85.361,576.741L85.48,576.765L85.6,576.789L85.72,576.81L85.84,576.831L85.961,576.849L86.082,576.867L86.204,576.883L86.327,576.897L86.45,576.91L86.573,576.922L86.697,576.932L86.822,576.94L86.946,576.947L87.072,576.952L87.198,576.956L87.324,576.959L87.459,576.96L627.699,576.96L627.834,576.959L627.96,576.956L628.086,576.952L628.212,576.947L628.337,576.94L628.461,576.932L628.585,576.922L628.708,576.91L628.832,576.897L628.954,576.883L629.076,576.867L629.197,576.849L629.318,576.831L629.439,576.81L629.558,576.789L629.678,576.765L629.797,576.741L629.915,576.715L630.033,576.688L630.149,576.659L630.266,576.629L630.382,576.597L630.497,576.565L630.612,576.53L630.727,576.495L630.84,576.458L630.953,576.42L631.065,576.381L631.177,576.34L631.288,576.298L631.398,576.255L631.508,576.21L631.618,576.164L631.726,576.117L631.833,576.069L631.941,576.019L632.047,575.968L632.153,575.916L632.258,575.862L632.362,575.808L632.465,575.752L632.568,575.695L632.67,575.637L632.771,575.578L632.871,575.518L632.971,575.456L633.07,575.393L633.168,575.33L633.265,575.264L633.362,575.198L633.457,575.131L633.552,575.063L633.646,574.993L633.738,574.923L633.83,574.851L633.921,574.779L634.011,574.705L634.101,574.63L634.189,574.555L634.277,574.478L634.363,574.4L634.449,574.322L634.533,574.242L634.617,574.161L634.699,574.08L634.781,573.997L634.861,573.913L634.941,573.829L635.02,573.743L635.097,573.657L635.174,573.57L635.249,573.482L635.323,573.393L635.397,573.303L635.469,573.212L635.54,573.121L635.61,573.028L635.678,572.935L635.746,572.841L635.813,572.746L635.878,572.65L635.942,572.554L636.005,572.456L636.067,572.358L636.128,572.259L636.187,572.16L636.245,572.059L636.302,571.958L636.358,571.856L636.413,571.754L636.466,571.651L636.518,571.547L636.569,571.442L636.619,571.337L636.667,571.231L636.714,571.124L636.76,571.017L636.804,570.909L636.847,570.801L636.889,570.692L636.929,570.582L636.968,570.471L637.006,570.361L637.042,570.249L637.077,570.137L637.111,570.024L637.143,569.911L637.174,569.797L637.203,569.682L637.231,569.568L637.257,569.452L637.283,569.336L637.306,569.219L637.329,569.102L637.349,568.985L637.369,568.867L637.386,568.748L637.403,568.629L637.417,568.509L637.431,568.389L637.443,568.268L637.453,568.148L637.461,568.026L637.469,567.904L637.474,567.781L637.478,567.658L637.481,567.535L637.481,567.403L637.481,399.296L637.481,399.164L637.478,399.041L637.474,398.918L637.469,398.795L637.461,398.673L637.453,398.551L637.443,398.431L637.431,398.31L637.417,398.189L637.403,398.07L637.386,397.951L637.369,397.832L637.349,397.714L637.329,397.596L637.306,397.479L637.283,397.363L637.257,397.247L637.231,397.131L637.203,397.017L637.174,396.902L637.143,396.788L637.111,396.675L637.077,396.562L637.042,396.45L637.006,396.338L636.968,396.227L636.929,396.117L636.889,396.007L636.847,395.898L636.804,395.79L636.76,395.682L636.714,395.574L636.667,395.468L636.619,395.362L636.569,395.257L636.518,395.152L636.466,395.048L636.413,394.945L636.358,394.842L636.302,394.741L636.245,394.64L636.187,394.539L636.128,394.44L636.067,394.341L636.005,394.243L635.942,394.145L635.878,394.049L635.813,393.953L635.746,393.858L635.678,393.764L635.61,393.671L635.54,393.578L635.469,393.487L635.397,393.396L635.323,393.306L635.249,393.217L635.174,393.129L635.097,393.042L635.02,392.956L634.941,392.87L634.861,392.785L634.781,392.702L634.7,392.619L634.617,392.538L634.533,392.457L634.449,392.377L634.363,392.299L634.277,392.221L634.189,392.144L634.101,392.068L634.011,391.994L633.921,391.92L633.83,391.847L633.738,391.776L633.646,391.706L633.552,391.636L633.457,391.568L633.361,391.501L633.265,391.435L633.168,391.37L633.07,391.306L632.971,391.243L632.872,391.181L632.771,391.121L632.67,391.062L632.568,391.004L632.465,390.947L632.362,390.891L632.257,390.836L632.153,390.783L632.047,390.731L631.941,390.68L631.834,390.631L631.726,390.582L631.618,390.535L631.508,390.489L631.399,390.444L631.288,390.401L631.177,390.359L631.065,390.318L630.953,390.279L630.84,390.241L630.726,390.204L630.612,390.168L630.498,390.134L630.382,390.101L630.266,390.07L630.15,390.04L630.032,390.011L629.915,389.984L629.797,389.958L629.678,389.933L629.559,389.91L629.439,389.889L629.318,389.868L629.197,389.849L629.076,389.832L628.954,389.816L628.831,389.802L628.709,389.789L628.585,389.777L628.461,389.767L628.337,389.759L628.211,389.752L628.086,389.746L627.961,389.742L627.834,389.74L627.699,389.739L87.459,389.739Z" style="fill:rgb(83,83,90);"/>
    </g>
    <g>
        <g transform="matrix(1,0,0,1,11.7654,21.5014)">
            <g transform="matrix(0.50621,0,0,0.50621,200.591,588.82)">
                <path d="M161.11,114.153C161.11,126.98 150.7,137.383 137.865,137.383L44.875,137.383C32.035,137.383 21.625,126.98 21.625,114.153L21.625,56.072C21.625,43.241 32.035,32.843 44.875,32.843L137.865,32.843C150.7,32.843 161.11,43.241 161.11,56.072L161.11,114.153ZM140.645,21.226L41.725,21.226C24.53,21.226 10,35.866 10,53.049L10,117.541C10,134.36 24.53,149 41.84,149L141.13,149C158.445,149 172.735,134.725 172.735,117.546L172.735,53.294C172.735,35.751 158.445,21.226 140.645,21.226Z" style="fill:rgb(99,101,105);"/>
            </g>
            <g transform="matrix(0.50621,0,0,0.50621,200.591,667.128)">
                <path d="M160.915,15L21.935,15C17.935,15 2.41,12.312 0.225,5.951C-1.07,2.174 3.47,0.53 7.47,0.53L175.39,0.53C179.385,0.53 184.035,2.214 182.635,5.951C180.445,11.752 164.92,15 160.915,15Z" style="fill:rgb(99,101,105);"/>
            </g>
        </g>
        <g transform="matrix(0.97257,0,0,0.97257,98.5808,587.733)">
            <path d="M98.179,114.687C87.689,121.266 63.51,122.312 55.102,122.194L55.014,122.19L54.93,122.19C46.522,122.309 22.369,121.131 11.755,114.498C13.26,92.355 31.85,75.656 54.997,75.656C78.165,75.656 96.755,92.368 98.243,114.528C98.25,114.599 98.212,114.667 98.179,114.687ZM54.997,23.62C69.294,23.62 80.92,35.294 80.92,49.643C80.92,63.992 69.294,75.667 54.997,75.667C40.704,75.667 29.078,63.992 29.078,49.643C29.078,35.294 40.704,23.62 54.997,23.62Z" style="fill:none;stroke:rgb(83,83,90);stroke-width:6.57px;stroke-linecap:butt;stroke-miterlimit:1.41421;"/>
        </g>
        <g transform="matrix(1.42996,0,0,1.42996,-478.443,358.566)">
            <text x="408.212px" y="270.779px" style="font-family:'Nunito-Regular', 'Nunito';font-size:16px;fill:rgb(106,109,114);">Off<tspan x="430.772px " y="270.779px ">-</tspan>pr<tspan x="452.372px " y="270.779px ">e</tspan>mises (<tspan x="511.572px " y="270.779px ">V</tspan>PN)</text>
        </g>
    </g>
    <g>
        <g transform="matrix(0.941512,0,0,0.941512,129.863,-97.916)">
            <g transform="matrix(1.01387,0,0,1.01584,-2.5792,-9.96952)">
                <path d="M185.95,561.805C185.95,558.626 183.365,556.046 180.18,556.046L83.747,556.046C80.563,556.046 77.977,558.626 77.977,561.805L77.977,623.437C77.977,626.615 80.563,629.196 83.747,629.196L180.18,629.196C183.365,629.196 185.95,626.615 185.95,623.437L185.95,561.805Z" style="fill:none;stroke:rgb(99,101,105);stroke-width:3.14px;"/>
            </g>
            <path d="M95.99,596.2L114.798,596.2L123.129,576.708L135.386,607.197L145.178,586.554L151.828,594.293L165.667,594.293" style="fill:none;stroke:rgb(99,101,105);stroke-width:3.19px;"/>
            <path d="M126.061,620.057L136.09,620.057" style="fill:none;stroke:rgb(99,101,105);stroke-width:3.19px;"/>
            <path d="M121.188,629.196L121.188,639.911L112.414,639.911L149.421,639.911L141.559,639.911L141.559,629.196" style="fill:none;stroke:rgb(99,101,105);stroke-width:3.19px;"/>
        </g>
        <g transform="matrix(0.97257,0,0,0.97257,98.5808,397.672)">
            <path d="M98.179,114.687C87.689,121.266 63.51,122.312 55.102,122.194L55.014,122.19L54.93,122.19C46.522,122.309 22.369,121.131 11.755,114.498C13.26,92.355 31.85,75.656 54.997,75.656C78.165,75.656 96.755,92.368 98.243,114.528C98.25,114.599 98.212,114.667 98.179,114.687ZM54.997,23.62C69.294,23.62 80.92,35.294 80.92,49.643C80.92,63.992 69.294,75.667 54.997,75.667C40.704,75.667 29.078,63.992 29.078,49.643C29.078,35.294 40.704,23.62 54.997,23.62Z" style="fill:none;stroke:rgb(83,83,90);stroke-width:6.57px;stroke-linecap:butt;stroke-miterlimit:1.41421;"/>
        </g>
        <g transform="matrix(1.42996,0,0,1.42996,-479.443,165.431)">
            <text x="432.764px" y="270.779px" style="font-family:'Nunito-Regular', 'Nunito';font-size:16px;fill:rgb(106,109,114);">On-pr<tspan x="475.676px " y="270.779px ">e</tspan>mises</text>
        </g>
    </g>
    <g>
        <g transform="matrix(1.42996,0,0,1.42996,-175.611,121.754)">
            <text x="416.02px" y="270.779px" style="font-family:'Nunito-Regular', 'Nunito';font-size:16px;fill:rgb(106,109,114);">SonicW<tspan x="471.956px " y="270.779px ">a</tspan>ll NGFW</text>
        </g>
        <g>
            <g transform="matrix(1.00768,0,0,1,-4.18803,0)">
                <path d="M603.217,483.469L415.239,483.469L415.239,456.872L603.217,456.872L603.217,483.469ZM418.216,459.872L418.216,480.469L600.24,480.469L600.24,459.872L418.216,459.872Z" style="fill:rgb(83,83,90);"/>
            </g>
            <g transform="matrix(1,0,0,1,0,0.457007)">
                <g transform="matrix(0.0606335,0,0,0.431949,557.181,267.081)">
                    <path d="M603.217,483.469L415.239,483.469L415.239,456.872L603.217,456.872L603.217,483.469ZM456.47,462.66L456.47,477.681L561.986,477.681L561.986,462.66L456.47,462.66Z" style="fill:rgb(83,83,90);"/>
                </g>
                <g transform="matrix(0.0606335,0,0,0.431949,541.778,267.081)">
                    <path d="M603.217,483.469L415.239,483.469L415.239,456.872L603.217,456.872L603.217,483.469ZM456.47,462.66L456.47,477.681L561.986,477.681L561.986,462.66L456.47,462.66Z" style="fill:rgb(83,83,90);"/>
                </g>
                <g transform="matrix(0.0606335,0,0,0.431949,526.015,267.081)">
                    <path d="M603.217,483.469L415.239,483.469L415.239,456.872L603.217,456.872L603.217,483.469ZM456.47,462.66L456.47,477.681L561.986,477.681L561.986,462.66L456.47,462.66Z" style="fill:rgb(83,83,90);"/>
                </g>
                <g transform="matrix(0.0606335,0,0,0.431949,510.612,267.081)">
                    <path d="M603.217,483.469L415.239,483.469L415.239,456.872L603.217,456.872L603.217,483.469ZM456.47,462.66L456.47,477.681L561.986,477.681L561.986,462.66L456.47,462.66Z" style="fill:rgb(83,83,90);"/>
                </g>
                <g transform="matrix(0.0606335,0,0,0.431949,495.26,267.081)">
                    <path d="M603.217,483.469L415.239,483.469L415.239,456.872L603.217,456.872L603.217,483.469ZM456.47,462.66L456.47,477.681L561.986,477.681L561.986,462.66L456.47,462.66Z" style="fill:rgb(83,83,90);"/>
                </g>
                <g transform="matrix(0.0606335,0,0,0.431949,479.856,267.081)">
                    <path d="M603.217,483.469L415.239,483.469L415.239,456.872L603.217,456.872L603.217,483.469ZM456.47,462.66L456.47,477.681L561.986,477.681L561.986,462.66L456.47,462.66Z" style="fill:rgb(83,83,90);"/>
                </g>
            </g>
            <g transform="matrix(0.0221731,0,0,0.15796,414.298,394.259)">
                <rect x="415.239" y="456.872" width="187.978" height="26.597" style="fill:rgb(83,83,90);"/>
            </g>
            <g transform="matrix(0.0221731,0,0,0.15796,414.298,400.37)">
                <rect x="415.239" y="456.872" width="187.978" height="26.597" style="fill:rgb(83,83,90);"/>
            </g>
            <g transform="matrix(0.367836,0,0,0.431949,279.067,267.538)">
                <path d="M603.217,483.469L415.239,483.469L415.239,456.872L603.217,456.872L603.217,483.469ZM423.395,463.818L423.395,476.524L595.062,476.524L595.062,463.818L423.395,463.818Z" style="fill:rgb(83,83,90);"/>
            </g>
        </g>
    </g>
    <g transform="matrix(1,0,0,1,7,0)">
        <g>
            <g transform="matrix(1.41039,0,0,1.41039,248.276,-397.114)">
                <path d="M469.87,671.03L469.87,642.51L495.099,633.186L508.81,637.574L508.81,675.966L495.099,680.099L469.87,671.03L495.099,674.066L495.099,640.865L478.645,644.704L478.645,667.191L469.87,671.03Z" style="fill:rgb(235,60,0);fill-rule:nonzero;"/>
            </g>
            <g>
                <g id="path3005" transform="matrix(1.33476,0,0,-1.33476,1002.56,446.341)">
                    <path d="M0,0C2.264,2.359 5.416,3.822 8.902,3.822C13.536,3.822 17.579,1.238 19.732,-2.598C21.603,-1.762 23.674,-1.297 25.853,-1.297C34.211,-1.297 40.987,-8.132 40.987,-16.563C40.987,-24.995 34.211,-31.83 25.853,-31.83C24.833,-31.83 23.836,-31.728 22.872,-31.533C20.976,-34.915 17.363,-37.2 13.216,-37.2C11.48,-37.2 9.838,-36.799 8.376,-36.086C6.454,-40.607 1.976,-43.777 -3.243,-43.777C-8.678,-43.777 -13.31,-40.338 -15.088,-35.515C-15.865,-35.68 -16.67,-35.766 -17.496,-35.766C-23.967,-35.766 -29.213,-30.466 -29.213,-23.927C-29.213,-19.545 -26.856,-15.719 -23.354,-13.672C-24.075,-12.013 -24.476,-10.182 -24.476,-8.257C-24.476,-0.737 -18.371,5.359 -10.841,5.359C-6.42,5.359 -2.491,3.257 0,0" style="fill:rgb(0,161,224);fill-rule:nonzero;"/>
                </g>
                <g id="path3009" transform="matrix(1.33476,0,0,-1.33476,977.136,473.199)">
                    <path d="M0,0C-0.044,-0.115 0.016,-0.139 0.03,-0.159C0.162,-0.255 0.296,-0.324 0.431,-0.401C1.147,-0.781 1.823,-0.892 2.53,-0.892C3.97,-0.892 4.864,-0.126 4.864,1.107L4.864,1.131C4.864,2.271 3.855,2.685 2.908,2.984L2.785,3.024C2.071,3.256 1.455,3.456 1.455,3.926L1.455,3.951C1.455,4.353 1.815,4.649 2.373,4.649C2.993,4.649 3.729,4.443 4.203,4.181C4.203,4.181 4.342,4.091 4.393,4.226C4.421,4.298 4.661,4.944 4.686,5.014C4.713,5.09 4.665,5.146 4.616,5.176C4.075,5.505 3.327,5.73 2.553,5.73L2.409,5.729C1.091,5.729 0.171,4.933 0.171,3.792L0.171,3.768C0.171,2.565 1.186,2.175 2.137,1.903L2.29,1.856C2.983,1.643 3.58,1.46 3.58,0.972L3.58,0.948C3.58,0.502 3.192,0.17 2.566,0.17C2.323,0.17 1.548,0.175 0.711,0.704C0.61,0.763 0.551,0.806 0.473,0.853C0.432,0.879 0.329,0.924 0.284,0.788L0,0Z" style="fill:white;fill-rule:nonzero;"/>
                </g>
                <g id="path3013" transform="matrix(1.33476,0,0,-1.33476,1005.27,473.199)">
                    <path d="M0,0C-0.044,-0.115 0.016,-0.139 0.03,-0.159C0.162,-0.255 0.296,-0.324 0.431,-0.401C1.147,-0.781 1.823,-0.892 2.53,-0.892C3.97,-0.892 4.864,-0.126 4.864,1.107L4.864,1.131C4.864,2.271 3.855,2.685 2.908,2.984L2.785,3.024C2.071,3.256 1.455,3.456 1.455,3.926L1.455,3.951C1.455,4.353 1.815,4.649 2.373,4.649C2.993,4.649 3.729,4.443 4.203,4.181C4.203,4.181 4.342,4.091 4.393,4.226C4.421,4.298 4.661,4.944 4.686,5.014C4.713,5.09 4.665,5.146 4.616,5.176C4.075,5.505 3.327,5.73 2.553,5.73L2.409,5.729C1.091,5.729 0.171,4.933 0.171,3.792L0.171,3.768C0.171,2.565 1.186,2.175 2.137,1.903L2.29,1.856C2.983,1.643 3.581,1.46 3.581,0.972L3.581,0.948C3.581,0.502 3.192,0.17 2.566,0.17C2.323,0.17 1.548,0.175 0.711,0.704C0.61,0.763 0.55,0.804 0.474,0.853C0.448,0.87 0.326,0.917 0.284,0.788L0,0Z" style="fill:white;fill-rule:nonzero;"/>
                </g>
                <g id="path3017" transform="matrix(1.33476,0,0,-1.33476,1024.48,469.975)">
                    <path d="M0,0C0,-0.697 -0.13,-1.246 -0.386,-1.634C-0.639,-2.018 -1.022,-2.205 -1.556,-2.205C-2.091,-2.205 -2.472,-2.019 -2.721,-1.634C-2.973,-1.247 -3.101,-0.697 -3.101,0C-3.101,0.696 -2.973,1.244 -2.721,1.628C-2.472,2.008 -2.091,2.193 -1.556,2.193C-1.022,2.193 -0.639,2.008 -0.385,1.628C-0.13,1.244 0,0.696 0,0M1.202,1.292C1.084,1.691 0.9,2.043 0.655,2.336C0.41,2.63 0.1,2.866 -0.268,3.038C-0.635,3.209 -1.069,3.296 -1.556,3.296C-2.044,3.296 -2.478,3.209 -2.845,3.038C-3.213,2.866 -3.523,2.63 -3.769,2.336C-4.013,2.042 -4.197,1.69 -4.316,1.292C-4.433,0.895 -4.492,0.461 -4.492,0C-4.492,-0.461 -4.433,-0.896 -4.316,-1.292C-4.197,-1.69 -4.014,-2.042 -3.768,-2.336C-3.523,-2.63 -3.212,-2.865 -2.845,-3.032C-2.477,-3.199 -2.044,-3.284 -1.556,-3.284C-1.069,-3.284 -0.636,-3.199 -0.268,-3.032C0.099,-2.865 0.41,-2.63 0.655,-2.336C0.9,-2.043 1.084,-1.691 1.202,-1.292C1.32,-0.895 1.379,-0.46 1.379,0C1.379,0.46 1.32,0.895 1.202,1.292" style="fill:white;fill-rule:nonzero;"/>
                </g>
                <g id="path3021" transform="matrix(1.33476,0,0,-1.33476,1039.26,472.67)">
                    <path d="M0,0C-0.04,0.117 -0.153,0.073 -0.153,0.073C-0.328,0.006 -0.514,-0.056 -0.712,-0.087C-0.913,-0.118 -1.134,-0.134 -1.371,-0.134C-1.953,-0.134 -2.415,0.039 -2.746,0.381C-3.078,0.723 -3.264,1.276 -3.262,2.024C-3.26,2.705 -3.096,3.217 -2.801,3.607C-2.508,3.995 -2.062,4.194 -1.467,4.194C-0.971,4.194 -0.593,4.137 -0.197,4.012C-0.197,4.012 -0.102,3.971 -0.057,4.095C0.048,4.387 0.126,4.596 0.238,4.917C0.27,5.008 0.192,5.047 0.164,5.058C0.008,5.119 -0.36,5.218 -0.638,5.26C-0.898,5.3 -1.202,5.321 -1.54,5.321C-2.045,5.321 -2.495,5.235 -2.88,5.063C-3.264,4.892 -3.59,4.656 -3.848,4.362C-4.106,4.068 -4.302,3.716 -4.433,3.318C-4.563,2.921 -4.629,2.485 -4.629,2.024C-4.629,1.027 -4.36,0.221 -3.829,-0.369C-3.297,-0.961 -2.498,-1.262 -1.456,-1.262C-0.84,-1.262 -0.208,-1.137 0.246,-0.958C0.246,-0.958 0.333,-0.916 0.295,-0.815L0,0Z" style="fill:white;"/>
                </g>
                <g id="path3025" transform="matrix(1.33476,0,0,-1.33476,1042.07,469.084)">
                    <path d="M0,0C0.057,0.387 0.164,0.709 0.329,0.96C0.578,1.341 0.958,1.55 1.492,1.55C2.026,1.55 2.379,1.34 2.632,0.96C2.8,0.709 2.873,0.373 2.902,0L0,0ZM4.047,0.851C3.945,1.236 3.692,1.625 3.526,1.803C3.264,2.085 3.008,2.282 2.754,2.392C2.422,2.534 2.024,2.628 1.588,2.628C1.08,2.628 0.619,2.543 0.245,2.367C-0.13,2.191 -0.445,1.951 -0.692,1.652C-0.939,1.354 -1.125,0.999 -1.243,0.596C-1.362,0.195 -1.422,-0.242 -1.422,-0.703C-1.422,-1.172 -1.36,-1.609 -1.237,-2.002C-1.113,-2.398 -0.915,-2.747 -0.647,-3.036C-0.38,-3.327 -0.036,-3.555 0.376,-3.714C0.785,-3.872 1.282,-3.954 1.853,-3.953C3.028,-3.949 3.647,-3.687 3.902,-3.546C3.947,-3.521 3.99,-3.477 3.936,-3.351L3.67,-2.606C3.63,-2.495 3.517,-2.536 3.517,-2.536C3.226,-2.644 2.812,-2.838 1.847,-2.836C1.216,-2.835 0.748,-2.649 0.455,-2.358C0.154,-2.06 0.007,-1.622 -0.019,-1.004L4.05,-1.008C4.05,-1.008 4.157,-1.006 4.168,-0.902C4.172,-0.858 4.308,-0.066 4.047,0.851" style="fill:white;"/>
                </g>
                <g id="path3029" transform="matrix(1.33476,0,0,-1.33476,998.574,469.084)">
                    <path d="M0,0C0.058,0.387 0.164,0.709 0.329,0.96C0.578,1.341 0.958,1.55 1.492,1.55C2.026,1.55 2.379,1.34 2.633,0.96C2.8,0.709 2.873,0.373 2.902,0L0,0ZM4.046,0.851C3.944,1.236 3.692,1.625 3.526,1.803C3.264,2.085 3.008,2.282 2.754,2.392C2.422,2.534 2.024,2.628 1.588,2.628C1.081,2.628 0.619,2.543 0.245,2.367C-0.13,2.191 -0.445,1.951 -0.692,1.652C-0.939,1.354 -1.125,0.999 -1.243,0.596C-1.361,0.195 -1.422,-0.242 -1.422,-0.703C-1.422,-1.172 -1.36,-1.609 -1.237,-2.002C-1.113,-2.398 -0.915,-2.747 -0.647,-3.036C-0.38,-3.327 -0.036,-3.555 0.376,-3.714C0.785,-3.872 1.282,-3.954 1.853,-3.953C3.028,-3.949 3.647,-3.687 3.902,-3.546C3.947,-3.521 3.99,-3.477 3.936,-3.351L3.671,-2.606C3.63,-2.495 3.517,-2.536 3.517,-2.536C3.226,-2.644 2.813,-2.838 1.846,-2.836C1.216,-2.835 0.748,-2.649 0.455,-2.358C0.154,-2.06 0.007,-1.622 -0.019,-1.004L4.05,-1.008C4.05,-1.008 4.157,-1.006 4.168,-0.902C4.172,-0.858 4.308,-0.066 4.046,0.851" style="fill:white;"/>
                </g>
                <g id="path3033" transform="matrix(1.33476,0,0,-1.33476,986.834,472.64)">
                    <path d="M0,0C-0.159,0.127 -0.181,0.159 -0.235,0.241C-0.315,0.366 -0.356,0.544 -0.356,0.77C-0.356,1.128 -0.238,1.385 0.007,1.558C0.004,1.557 0.357,1.863 1.187,1.852C1.77,1.844 2.291,1.758 2.291,1.758L2.291,-0.092L2.292,-0.092C2.292,-0.092 1.775,-0.203 1.193,-0.238C0.365,-0.288 -0.003,0.001 0,0M1.619,2.859C1.454,2.871 1.24,2.878 0.984,2.878C0.635,2.878 0.298,2.834 -0.018,2.749C-0.336,2.664 -0.622,2.531 -0.868,2.355C-1.115,2.178 -1.314,1.952 -1.458,1.684C-1.602,1.416 -1.675,1.1 -1.675,0.746C-1.675,0.386 -1.613,0.073 -1.489,-0.183C-1.365,-0.44 -1.186,-0.654 -0.958,-0.819C-0.732,-0.984 -0.453,-1.105 -0.129,-1.178C0.19,-1.251 0.552,-1.288 0.948,-1.288C1.365,-1.288 1.781,-1.254 2.184,-1.185C2.583,-1.117 3.073,-1.018 3.209,-0.987C3.344,-0.955 3.494,-0.914 3.494,-0.914C3.595,-0.889 3.587,-0.781 3.587,-0.781L3.585,2.94C3.585,3.756 3.367,4.361 2.938,4.736C2.511,5.11 1.882,5.299 1.069,5.299C0.764,5.299 0.273,5.257 -0.021,5.198C-0.021,5.198 -0.91,5.026 -1.276,4.74C-1.276,4.74 -1.356,4.69 -1.312,4.578L-1.024,3.804C-0.988,3.704 -0.891,3.738 -0.891,3.738C-0.891,3.738 -0.86,3.75 -0.824,3.771C-0.041,4.197 0.949,4.184 0.949,4.184C1.389,4.184 1.727,4.096 1.955,3.921C2.177,3.751 2.29,3.494 2.29,2.952L2.29,2.78C1.94,2.83 1.619,2.859 1.619,2.859" style="fill:white;fill-rule:nonzero;"/>
                </g>
                <g id="path3037" transform="matrix(1.33476,0,0,-1.33476,1032.8,466.026)">
                    <path d="M0,0C0.031,0.092 -0.034,0.136 -0.061,0.146C-0.13,0.173 -0.476,0.246 -0.743,0.263C-1.254,0.294 -1.538,0.208 -1.792,0.094C-2.044,-0.02 -2.324,-0.204 -2.48,-0.413L-2.48,0.082C-2.48,0.151 -2.529,0.206 -2.597,0.206L-3.64,0.206C-3.708,0.206 -3.757,0.151 -3.757,0.082L-3.757,-5.987C-3.757,-6.055 -3.701,-6.111 -3.633,-6.111L-2.564,-6.111C-2.496,-6.111 -2.441,-6.055 -2.441,-5.987L-2.441,-2.955C-2.441,-2.548 -2.396,-2.142 -2.306,-1.887C-2.218,-1.635 -2.098,-1.433 -1.95,-1.288C-1.801,-1.144 -1.632,-1.043 -1.447,-0.986C-1.258,-0.928 -1.049,-0.909 -0.901,-0.909C-0.688,-0.909 -0.454,-0.964 -0.454,-0.964C-0.376,-0.973 -0.332,-0.925 -0.306,-0.854C-0.236,-0.668 -0.038,-0.111 0,0" style="fill:white;"/>
                </g>
                <g id="path3041" transform="matrix(1.33476,0,0,-1.33476,1019.41,462.271)">
                    <path d="M0,0C-0.13,0.04 -0.248,0.067 -0.402,0.096C-0.558,0.124 -0.744,0.138 -0.955,0.138C-1.691,0.138 -2.271,-0.07 -2.678,-0.48C-3.083,-0.888 -3.358,-1.509 -3.496,-2.326L-3.546,-2.601L-4.47,-2.601C-4.47,-2.601 -4.582,-2.597 -4.606,-2.719L-4.757,-3.566C-4.768,-3.646 -4.733,-3.697 -4.625,-3.697L-3.726,-3.697L-4.638,-8.789C-4.709,-9.199 -4.791,-9.536 -4.882,-9.792C-4.971,-10.044 -5.058,-10.233 -5.166,-10.371C-5.27,-10.503 -5.368,-10.601 -5.538,-10.658C-5.678,-10.705 -5.84,-10.727 -6.017,-10.727C-6.115,-10.727 -6.246,-10.711 -6.343,-10.691C-6.439,-10.672 -6.49,-10.651 -6.563,-10.62C-6.563,-10.62 -6.668,-10.58 -6.71,-10.685C-6.743,-10.772 -6.983,-11.431 -7.012,-11.512C-7.04,-11.593 -7,-11.656 -6.949,-11.675C-6.829,-11.717 -6.74,-11.745 -6.577,-11.784C-6.351,-11.837 -6.16,-11.84 -5.981,-11.84C-5.607,-11.84 -5.265,-11.787 -4.982,-11.685C-4.698,-11.582 -4.45,-11.403 -4.23,-11.161C-3.993,-10.899 -3.844,-10.625 -3.702,-10.25C-3.561,-9.88 -3.44,-9.42 -3.344,-8.884L-2.427,-3.697L-1.087,-3.697C-1.087,-3.697 -0.974,-3.701 -0.951,-3.578L-0.799,-2.732C-0.789,-2.651 -0.823,-2.601 -0.932,-2.601L-2.233,-2.601C-2.226,-2.572 -2.167,-2.114 -2.018,-1.683C-1.954,-1.5 -1.834,-1.351 -1.733,-1.249C-1.633,-1.149 -1.518,-1.078 -1.392,-1.037C-1.263,-0.995 -1.116,-0.975 -0.955,-0.975C-0.833,-0.975 -0.712,-0.989 -0.621,-1.008C-0.495,-1.035 -0.446,-1.049 -0.413,-1.059C-0.28,-1.099 -0.262,-1.06 -0.236,-0.996L0.075,-0.142C0.107,-0.05 0.028,-0.011 0,0" style="fill:white;"/>
                </g>
                <g id="path3045" transform="matrix(1.33476,0,0,-1.33476,995.144,474.017)">
                    <path d="M0,0C0,-0.068 -0.049,-0.123 -0.117,-0.123L-1.196,-0.123C-1.264,-0.123 -1.312,-0.068 -1.312,0L-1.312,8.684C-1.312,8.752 -1.264,8.807 -1.196,8.807L-0.117,8.807C-0.049,8.807 0,8.752 0,8.684L0,0Z" style="fill:white;"/>
                </g>
            </g>
            <g>
                <g transform="matrix(1.86679,0,0,1.86679,1059.19,371)">
                    <clipPath id="_clip1">
                        <path d="M44.5,20L24,20L24,28.5L35.8,28.5C34.7,33.9 30.1,37 24,37C16.8,37 11,31.2 11,24C11,16.8 16.8,11 24,11C27.1,11 29.9,12.1 32.1,13.9L38.5,7.5C34.6,4.1 29.6,2 24,2C11.8,2 2,11.8 2,24C2,36.2 11.8,46 24,46C35,46 45,38 45,24C45,22.7 44.8,21.3 44.5,20Z"/>
                    </clipPath>
                    <g clip-path="url(#_clip1)">
                        <path d="M0,37L0,11L17,24L0,37Z" style="fill:rgb(251,188,5);fill-rule:nonzero;"/>
                    </g>
                </g>
                <g transform="matrix(1.86679,0,0,1.86679,1059.19,371)">
                    <clipPath id="_clip2">
                        <path d="M44.5,20L24,20L24,28.5L35.8,28.5C34.7,33.9 30.1,37 24,37C16.8,37 11,31.2 11,24C11,16.8 16.8,11 24,11C27.1,11 29.9,12.1 32.1,13.9L38.5,7.5C34.6,4.1 29.6,2 24,2C11.8,2 2,11.8 2,24C2,36.2 11.8,46 24,46C35,46 45,38 45,24C45,22.7 44.8,21.3 44.5,20Z"/>
                    </clipPath>
                    <g clip-path="url(#_clip2)">
                        <path d="M0,11L17,24L24,17.9L48,14L48,0L0,0L0,11Z" style="fill:rgb(234,67,53);fill-rule:nonzero;"/>
                    </g>
                </g>
                <g transform="matrix(1.86679,0,0,1.86679,1059.19,371)">
                    <clipPath id="_clip3">
                        <path d="M44.5,20L24,20L24,28.5L35.8,28.5C34.7,33.9 30.1,37 24,37C16.8,37 11,31.2 11,24C11,16.8 16.8,11 24,11C27.1,11 29.9,12.1 32.1,13.9L38.5,7.5C34.6,4.1 29.6,2 24,2C11.8,2 2,11.8 2,24C2,36.2 11.8,46 24,46C35,46 45,38 45,24C45,22.7 44.8,21.3 44.5,20Z"/>
                    </clipPath>
                    <g clip-path="url(#_clip3)">
                        <path d="M0,37L30,14L37.9,15L48,0L48,48L0,48L0,37Z" style="fill:rgb(52,168,83);fill-rule:nonzero;"/>
                    </g>
                </g>
                <g transform="matrix(1.86679,0,0,1.86679,1059.19,371)">
                    <clipPath id="_clip4">
                        <path d="M44.5,20L24,20L24,28.5L35.8,28.5C34.7,33.9 30.1,37 24,37C16.8,37 11,31.2 11,24C11,16.8 16.8,11 24,11C27.1,11 29.9,12.1 32.1,13.9L38.5,7.5C34.6,4.1 29.6,2 24,2C11.8,2 2,11.8 2,24C2,36.2 11.8,46 24,46C35,46 45,38 45,24C45,22.7 44.8,21.3 44.5,20Z"/>
                    </clipPath>
                    <g clip-path="url(#_clip4)">
                        <path d="M48,48L17,24L13,21L48,11L48,48Z" style="fill:rgb(66,133,244);fill-rule:nonzero;"/>
                    </g>
                </g>
            </g>
            <g>
                <g id="path4168" transform="matrix(0.685944,0,0,-0.685944,1124.24,509.177)">
                    <path d="M0,0C-8.688,-0.052 -15.781,6.945 -15.826,15.634C-15.892,24.322 -8.894,31.404 -0.199,31.457C8.489,31.522 15.578,24.524 15.637,15.836C15.696,7.141 8.698,0.052 0,0M-46.337,-0.294C-55.031,-0.353 -62.12,6.645 -62.172,15.327C-62.231,24.022 -55.234,31.11 -46.535,31.163C-37.857,31.222 -30.762,24.224 -30.703,15.542C-30.654,6.847 -37.655,-0.248 -46.337,-0.294M-0.271,41.964C-10.32,41.892 -18.999,36.189 -23.353,27.879C-27.817,36.143 -36.564,41.733 -46.604,41.664C-52.515,41.628 -57.949,39.644 -62.31,36.326L-62.453,58.411C-62.535,61.263 -64.875,63.538 -67.734,63.519C-70.596,63.502 -72.91,61.198 -72.936,58.346L-72.669,14.831L-72.656,14.831C-72.336,0.542 -60.616,-10.888 -46.274,-10.797C-36.235,-10.732 -27.556,-5.027 -23.189,3.29C-18.737,-4.968 -9.971,-10.562 0.069,-10.497C14.553,-10.405 26.218,1.416 26.13,15.901C26.035,30.386 14.221,42.056 -0.271,41.964" style="fill:rgb(34,167,240);fill-rule:nonzero;"/>
                </g>
                <g id="path4172" transform="matrix(0.685944,0,0,-0.685944,1170.79,510.421)">
                    <path d="M0,0L-14.726,17.866L-0.228,35.921L-0.235,35.921C1.56,38.238 1.012,41.468 -1.475,43.172C-3.988,44.869 -7.5,44.412 -9.393,42.159L-9.393,42.169L-21.92,26.58L-34.629,42.004L-34.629,41.991C-36.555,44.225 -40.086,44.643 -42.554,42.908C-45.04,41.171 -45.537,37.944 -43.709,35.633L-28.992,17.775L-43.484,-0.275C-45.282,-2.605 -44.734,-5.824 -42.224,-7.526C-39.734,-9.23 -36.212,-8.773 -34.319,-6.516L-21.809,9.06L-9.086,-6.358C-7.164,-8.591 -3.642,-9.003 -1.152,-7.272C1.325,-5.523 1.821,-2.305 0,0" style="fill:rgb(34,167,240);fill-rule:nonzero;"/>
                </g>
            </g>
            <g>
                <g transform="matrix(0.518902,0,0,0.518902,1003.04,526.575)">
                    <path d="M37.6,12L18.8,24L37.6,36L18.8,48L0,35.9L18.8,23.9L0,12L18.8,0L37.6,12ZM18.7,51.8L37.5,39.8L56.3,51.8L37.5,63.8L18.7,51.8ZM37.6,35.9L56.4,23.9L37.6,12L56.3,0L75.1,12L56.3,24L75.1,36L56.3,48L37.6,35.9Z" style="fill:rgb(0,97,255);fill-rule:nonzero;"/>
                </g>
                <g transform="matrix(0.518902,0,0,0.518902,1003.04,526.575)">
                    <path d="M89.8,12L105,12C114.7,12 122.7,17.6 122.7,30.4L122.7,33.1C122.7,46 115.2,51.8 105.3,51.8L89.8,51.8L89.8,12ZM98.3,19.2L98.3,44.5L104.8,44.5C110.3,44.5 114,40.9 114,32.9L114,30.8C114,22.8 110.1,19.2 104.5,19.2L98.3,19.2ZM127.2,19.6L134,19.6L135.1,27.1C136.4,22 139.7,19.3 145.7,19.3L147.8,19.3L147.8,27.9L144.3,27.9C137.4,27.9 135.7,30.3 135.7,37.1L135.7,51.9L127.3,51.9L127.3,19.6L127.2,19.6ZM149.5,36.4L149.5,35.5C149.5,24.7 156.4,18.8 165.8,18.8C175.4,18.8 182.1,24.7 182.1,35.5L182.1,36.4C182.1,47 175.6,52.7 165.8,52.7C155.4,52.6 149.5,47 149.5,36.4ZM173.5,36.3L173.5,35.5C173.5,29.5 170.5,25.9 165.7,25.9C161,25.9 157.9,29.2 157.9,35.5L157.9,36.3C157.9,42.1 160.9,45.4 165.7,45.4C170.5,45.3 173.5,42.1 173.5,36.3ZM186.5,19.6L193.5,19.6L194.3,25.7C196,21.6 199.6,18.8 204.9,18.8C213.1,18.8 218.5,24.7 218.5,35.6L218.5,36.5C218.5,47.1 212.5,52.7 204.9,52.7C199.8,52.7 196.3,50.4 194.6,46.7L194.6,63L186.4,63L186.5,19.6ZM210,36.3L210,35.6C210,29.2 206.7,26 202.3,26C197.6,26 194.5,29.6 194.5,35.6L194.5,36.2C194.5,41.9 197.5,45.5 202.2,45.5C207,45.4 210,42.3 210,36.3ZM230.9,45.9L230.2,51.8L223,51.8L223,8.8L231.2,8.8L231.2,25.3C233,21.1 236.6,18.8 241.7,18.8C249.4,18.9 255.1,24.2 255.1,34.9L255.1,35.9C255.1,46.6 249.7,52.7 241.5,52.7C236.1,52.6 232.6,50.1 230.9,45.9ZM246.5,35.9L246.5,35.1C246.5,29.2 243.3,25.9 238.8,25.9C234.2,25.9 231,29.6 231,35.2L231,35.9C231,41.9 234.1,45.4 238.7,45.4C243.6,45.4 246.5,42.3 246.5,35.9ZM258.7,36.4L258.7,35.5C258.7,24.7 265.6,18.8 275,18.8C284.6,18.8 291.3,24.7 291.3,35.5L291.3,36.4C291.3,47 284.7,52.7 275,52.7C264.6,52.6 258.7,47 258.7,36.4ZM282.8,36.3L282.8,35.5C282.8,29.5 279.8,25.9 275,25.9C270.3,25.9 267.2,29.2 267.2,35.5L267.2,36.3C267.2,42.1 270.2,45.4 275,45.4C279.8,45.3 282.8,42.1 282.8,36.3ZM302.3,35.1L291,19.6L300.7,19.6L307.2,29.3L313.8,19.6L323.4,19.6L311.9,35L324,51.8L314.5,51.8L307.1,41.1L299.9,51.8L290,51.8L302.3,35.1Z" style="fill-rule:nonzero;"/>
                </g>
            </g>
        </g>
        <g id="Cloud" transform="matrix(0.920439,3.69779e-32,-3.69779e-32,0.920439,453.531,313.661)">
            <path d="M608.242,122.971C608.242,122.971 619.804,50.826 689.137,45.996C759.814,41.073 792.816,118.874 781.059,152.28C781.059,152.28 838.025,173.812 822.744,233.738C813.97,268.149 790.97,278.995 776.222,284.94C758.475,292.095 493.067,286.925 493.067,286.925C493.067,286.925 455.917,276.49 457.672,233.738C459.426,190.986 496.203,188.07 513.166,188.123C513.166,188.123 503.517,137.663 537.25,119.074C570.983,100.485 597.155,116.643 608.242,122.971Z" style="fill:none;stroke:rgb(83,83,90);stroke-width:5.98px;"/>
        </g>
    </g>
    <g>
        <g transform="matrix(2.04838,-1.94573e-32,1.94573e-32,2.04838,-357.825,-565.24)">
            <g transform="matrix(0.38532,3.6601e-33,-3.6601e-33,0.38532,157.71,197.001)">
                <path d="M850.116,450.813L948.116,450.813" style="fill:rgb(71,175,232);stroke:rgb(71,175,232);stroke-width:9.5px;stroke-linejoin:miter;stroke-dasharray:0,14.25,0,0;"/>
            </g>
            <g>
                <g transform="matrix(1.79751,0,0,1.79751,-389.495,-288.618)">
                    <circle cx="504.776" cy="366.799" r="3.865" style="fill:rgb(71,175,232);"/>
                </g>
                <g transform="matrix(1.402,-2.73691e-48,0,1.08158,-207.608,-30.1965)">
                    <path d="M516.676,367.704L519.636,370.664L516.676,367.704Z" style="fill:rgb(71,175,232);stroke:white;stroke-width:1.56px;"/>
                </g>
                <g transform="matrix(1.402,-2.73691e-48,0,-1.08158,-207.608,771.612)">
                    <path d="M516.676,367.704L519.636,370.664L516.676,367.704Z" style="fill:rgb(71,175,232);stroke:white;stroke-width:1.56px;"/>
                </g>
            </g>
        </g>
        <g transform="matrix(2.04838,-1.94573e-32,1.94573e-32,2.04838,-672.66,-286.408)">
            <g transform="matrix(0.38532,3.6601e-33,-3.6601e-33,0.38532,157.71,197.001)">
                <path d="M849.01,450.813L948.116,450.813" style="fill:rgb(71,175,232);stroke:rgb(71,175,232);stroke-width:9.5px;stroke-linejoin:miter;stroke-dasharray:0,14.25,0,0;"/>
            </g>
            <g>
                <g transform="matrix(1.79751,0,0,1.79751,-389.495,-288.618)">
                    <circle cx="504.776" cy="366.799" r="3.865" style="fill:rgb(71,175,232);"/>
                </g>
                <g transform="matrix(1.402,-2.73691e-48,0,1.08158,-207.608,-30.1965)">
                    <path d="M516.676,367.704L519.636,370.664L516.676,367.704Z" style="fill:rgb(71,175,232);stroke:white;stroke-width:1.56px;"/>
                </g>
                <g transform="matrix(1.402,-2.73691e-48,0,-1.08158,-207.608,771.612)">
                    <path d="M516.676,367.704L519.636,370.664L516.676,367.704Z" style="fill:rgb(71,175,232);stroke:white;stroke-width:1.56px;"/>
                </g>
            </g>
        </g>
        <g>
            <g transform="matrix(2.04838,-1.94573e-32,1.94573e-32,2.04838,-202.862,-244.225)">
                <g transform="matrix(0.38532,3.6601e-33,-3.6601e-33,0.38532,157.71,197.001)">
                    <path d="M675.992,450.813L948.116,450.813" style="fill:rgb(71,175,232);stroke:rgb(71,175,232);stroke-width:9.5px;stroke-linejoin:miter;stroke-dasharray:0,14.25,0,0;"/>
                </g>
                <g>
                    <g transform="matrix(1.79751,0,0,1.79751,-389.495,-288.618)">
                        <circle cx="504.776" cy="366.799" r="3.865" style="fill:rgb(71,175,232);"/>
                    </g>
                    <g transform="matrix(1.402,-2.73691e-48,0,1.08158,-207.608,-30.1965)">
                        <path d="M516.676,367.704L519.636,370.664L516.676,367.704Z" style="fill:rgb(71,175,232);stroke:white;stroke-width:1.56px;"/>
                    </g>
                    <g transform="matrix(1.402,-2.73691e-48,0,-1.08158,-207.608,771.612)">
                        <path d="M516.676,367.704L519.636,370.664L516.676,367.704Z" style="fill:rgb(71,175,232);stroke:white;stroke-width:1.56px;"/>
                    </g>
                </g>
            </g>
            <g transform="matrix(-2.04838,-2.50854e-16,2.50854e-16,-2.04838,1723.64,1221.13)">
                <g transform="matrix(0.38532,3.6601e-33,-3.6601e-33,0.38532,157.71,197.001)">
                    <path d="M674.127,450.813L948.116,450.813" style="fill:rgb(255,121,26);stroke:rgb(255,121,26);stroke-width:9.5px;stroke-linejoin:miter;stroke-dasharray:0,14.25,0,0;"/>
                </g>
                <g>
                    <g transform="matrix(1.79751,0,0,1.79751,-389.495,-288.618)">
                        <circle cx="504.776" cy="366.799" r="3.865" style="fill:rgb(255,121,26);stroke:rgb(255,121,26);stroke-width:0.21px;"/>
                    </g>
                    <g transform="matrix(1.402,-2.73691e-48,0,1.08158,-207.608,-30.1965)">
                        <path d="M516.676,367.704L519.636,370.664L516.676,367.704Z" style="fill:rgb(255,121,26);stroke:white;stroke-width:1.56px;"/>
                    </g>
                    <g transform="matrix(1.402,-2.73691e-48,0,-1.08158,-207.608,771.612)">
                        <path d="M516.676,367.704L519.636,370.664L516.676,367.704Z" style="fill:rgb(255,121,26);stroke:white;stroke-width:1.56px;"/>
                    </g>
                </g>
            </g>
            <g transform="matrix(1.42996,0,0,1.42996,78.0895,109.529)">
                <text x="426.996px" y="270.779px" style="font-family:'Nunito-Regular', 'Nunito';font-size:16px;fill:rgb(106,109,114);">Internet T<tspan x="495.092px " y="270.779px ">r</tspan>afc</text>
            </g>
        </g>
        <g>
            <g transform="matrix(1.25427e-16,-2.04838,2.04838,1.25427e-16,-227.415,1385.86)">
                <g transform="matrix(0.38532,3.6601e-33,-3.6601e-33,0.38532,157.71,197.001)">
                    <path d="M784.61,450.813L948.116,450.813" style="fill:rgb(71,175,232);stroke:rgb(71,175,232);stroke-width:9.5px;stroke-linejoin:miter;stroke-dasharray:0,14.25,0,0;"/>
                </g>
                <g>
                    <g transform="matrix(1.79751,0,0,1.79751,-389.495,-288.618)">
                        <circle cx="504.776" cy="366.799" r="3.865" style="fill:rgb(71,175,232);"/>
                    </g>
                    <g transform="matrix(1.402,-2.73691e-48,0,1.08158,-207.608,-30.1965)">
                        <path d="M516.676,367.704L519.636,370.664L516.676,367.704Z" style="fill:rgb(71,175,232);stroke:white;stroke-width:1.56px;"/>
                    </g>
                    <g transform="matrix(1.402,-2.73691e-48,0,-1.08158,-207.608,771.612)">
                        <path d="M516.676,367.704L519.636,370.664L516.676,367.704Z" style="fill:rgb(71,175,232);stroke:white;stroke-width:1.56px;"/>
                    </g>
                </g>
            </g>
            <g transform="matrix(1.25427e-16,2.04838,-2.04838,1.25427e-16,1262.82,-627.809)">
                <g transform="matrix(0.38532,3.6601e-33,-3.6601e-33,0.38532,157.71,197.001)">
                    <path d="M784.559,450.813L948.116,450.813" style="fill:rgb(255,121,26);stroke:rgb(255,121,26);stroke-width:9.5px;stroke-linejoin:miter;stroke-dasharray:0,14.25,0,0;"/>
                </g>
                <g>
                    <g transform="matrix(1.79751,0,0,1.79751,-389.495,-288.618)">
                        <circle cx="504.776" cy="366.799" r="3.865" style="fill:rgb(255,121,26);stroke:rgb(255,121,26);stroke-width:0.21px;"/>
                    </g>
                    <g transform="matrix(1.402,-2.73691e-48,0,1.08158,-207.608,-30.1965)">
                        <path d="M516.676,367.704L519.636,370.664L516.676,367.704Z" style="fill:rgb(255,121,26);stroke:white;stroke-width:1.56px;"/>
                    </g>
                    <g transform="matrix(1.402,-2.73691e-48,0,-1.08158,-207.608,771.612)">
                        <path d="M516.676,367.704L519.636,370.664L516.676,367.704Z" style="fill:rgb(255,121,26);stroke:white;stroke-width:1.56px;"/>
                    </g>
                </g>
            </g>
        </g>
        <g transform="matrix(1.25427e-16,-2.04838,2.04838,1.25427e-16,-244.926,1609.24)">
            <g transform="matrix(0.38532,3.6601e-33,-3.6601e-33,0.38532,157.71,197.001)">
                <path d="M784.61,222.997C784.61,222.997 784.61,365.243 784.61,424.934C784.61,431.797 787.336,438.38 792.19,443.233C797.043,448.086 803.625,450.813 810.489,450.813C856.584,450.813 948.116,450.813 948.116,450.813" style="fill:none;stroke:rgb(71,175,232);stroke-width:9.5px;stroke-linejoin:miter;stroke-dasharray:0,14.25,0,0;"/>
            </g>
            <g transform="matrix(1,1.2326e-32,-1.2326e-32,1,6.17128,0)">
                <g transform="matrix(1.79751,0,0,1.79751,-389.495,-288.618)">
                    <circle cx="504.776" cy="366.799" r="3.865" style="fill:rgb(71,175,232);"/>
                </g>
                <g transform="matrix(1.402,-2.73691e-48,0,1.08158,-207.608,-30.1965)">
                    <path d="M516.676,367.704L519.636,370.664L516.676,367.704Z" style="fill:rgb(71,175,232);stroke:white;stroke-width:1.56px;"/>
                </g>
                <g transform="matrix(1.402,-2.73691e-48,0,-1.08158,-207.608,771.612)">
                    <path d="M516.676,367.704L519.636,370.664L516.676,367.704Z" style="fill:rgb(71,175,232);stroke:white;stroke-width:1.56px;"/>
                </g>
            </g>
        </g>
    </g>
</svg>
