<?xml version="1.0" encoding="UTF-8" standalone="no"?>
<!DOCTYPE svg PUBLIC "-//W3C//DTD SVG 1.1//EN" "http://www.w3.org/Graphics/SVG/1.1/DTD/svg11.dtd">
<svg width="100%" height="100%" viewBox="0 0 1280 800" version="1.1" xmlns="http://www.w3.org/2000/svg" xmlns:xlink="http://www.w3.org/1999/xlink" xml:space="preserve" xmlns:serif="http://www.serif.com/" style="fill-rule:evenodd;clip-rule:evenodd;stroke-linecap:round;stroke-linejoin:round;stroke-miterlimit:1.5;">
    <g id="Blue">
        <g transform="matrix(1.01163,0,0,1,-8.47906,-1.27898e-13)">
            <path d="M729.232,96.062C729.232,89.646 724.083,84.437 717.74,84.437L544.271,84.437C537.929,84.437 532.779,89.646 532.779,96.062L532.779,665.894C532.779,672.31 537.929,677.52 544.271,677.52L717.74,677.52C724.083,677.52 729.232,672.31 729.232,665.894L729.232,96.062Z" style="fill:rgb(253,163,72);"/>
        </g>
        <g transform="matrix(1.00852,0,0,1,-4.30925,0)">
            <rect x="347.816" y="114.152" width="157.777" height="2.921" style="fill:rgb(253,163,72);"/>
        </g>
        <g transform="matrix(1.00852,0,0,1,-4.30925,75.5742)">
            <rect x="347.816" y="114.152" width="157.777" height="2.921" style="fill:rgb(253,163,72);"/>
        </g>
        <g transform="matrix(1.00852,0,0,1,-4.30925,151.64)">
            <rect x="347.816" y="114.152" width="157.777" height="2.921" style="fill:rgb(253,163,72);"/>
        </g>
        <g transform="matrix(1.00852,0,0,1,-4.30925,227.14)">
            <rect x="347.816" y="114.152" width="157.777" height="2.921" style="fill:rgb(253,163,72);"/>
        </g>
        <g transform="matrix(1.00852,0,0,1,-4.30925,302.643)">
            <rect x="347.816" y="114.152" width="157.777" height="2.921" style="fill:rgb(253,163,72);"/>
        </g>
        <g transform="matrix(1.00852,0,0,1,-4.30925,378.702)">
            <rect x="347.816" y="114.152" width="157.777" height="2.921" style="fill:rgb(253,163,72);"/>
        </g>
        <g transform="matrix(1.00852,0,0,1,-4.30925,454.121)">
            <rect x="347.816" y="114.152" width="157.777" height="2.921" style="fill:rgb(253,163,72);"/>
        </g>
        <g transform="matrix(1.00852,0,0,1,-4.30925,529.879)">
            <rect x="347.816" y="114.152" width="157.777" height="2.921" style="fill:rgb(253,163,72);"/>
        </g>
        <rect x="496.271" y="114.152" width="9.322" height="532.8" style="fill:rgb(253,163,72);"/>
        <rect x="465.411" y="109.929" width="2.689" height="12.295" style="fill:rgb(253,163,72);"/>
        <g transform="matrix(1,0,0,1,-39.79,0)">
            <rect x="465.411" y="109.929" width="2.689" height="12.295" style="fill:rgb(253,163,72);"/>
        </g>
        <g transform="matrix(1,0,0,1,-79.3056,0)">
            <rect x="465.411" y="109.929" width="2.689" height="12.295" style="fill:rgb(253,163,72);"/>
        </g>
        <g transform="matrix(1,0,0,1,-118.992,0)">
            <rect x="465.411" y="109.929" width="2.689" height="12.295" style="fill:rgb(253,163,72);"/>
        </g>
        <g transform="matrix(1,0,0,1,-118.992,75.5702)">
            <rect x="465.411" y="109.929" width="2.689" height="12.295" style="fill:rgb(253,163,72);"/>
        </g>
        <g transform="matrix(1,0,0,1,-79.2153,75.5702)">
            <rect x="465.411" y="109.929" width="2.689" height="12.295" style="fill:rgb(253,163,72);"/>
        </g>
        <g transform="matrix(1,0,0,1,-39.7233,75.5876)">
            <rect x="465.411" y="109.929" width="2.689" height="12.295" style="fill:rgb(253,163,72);"/>
        </g>
        <g transform="matrix(1,0,0,1,0.0302559,75.5876)">
            <rect x="465.411" y="109.929" width="2.689" height="12.295" style="fill:rgb(253,163,72);"/>
        </g>
        <g transform="matrix(1,0,0,1,-118.939,151.168)">
            <rect x="465.411" y="109.929" width="2.689" height="12.295" style="fill:rgb(253,163,72);"/>
        </g>
        <g transform="matrix(1,0,0,1,-79.1625,151.168)">
            <rect x="465.411" y="109.929" width="2.689" height="12.295" style="fill:rgb(253,163,72);"/>
        </g>
        <g transform="matrix(1,0,0,1,-39.6705,151.185)">
            <rect x="465.411" y="109.929" width="2.689" height="12.295" style="fill:rgb(253,163,72);"/>
        </g>
        <g transform="matrix(1,0,0,1,0.0830575,151.185)">
            <rect x="465.411" y="109.929" width="2.689" height="12.295" style="fill:rgb(253,163,72);"/>
        </g>
        <g transform="matrix(1,0,0,1,-118.939,227.029)">
            <rect x="465.411" y="109.929" width="2.689" height="12.295" style="fill:rgb(253,163,72);"/>
        </g>
        <g transform="matrix(1,0,0,1,-79.1625,227.029)">
            <rect x="465.411" y="109.929" width="2.689" height="12.295" style="fill:rgb(253,163,72);"/>
        </g>
        <g transform="matrix(1,0,0,1,-39.6705,227.047)">
            <rect x="465.411" y="109.929" width="2.689" height="12.295" style="fill:rgb(253,163,72);"/>
        </g>
        <g transform="matrix(1,0,0,1,0.0830575,227.047)">
            <rect x="465.411" y="109.929" width="2.689" height="12.295" style="fill:rgb(253,163,72);"/>
        </g>
        <g transform="matrix(1,0,0,1,-118.992,302.874)">
            <rect x="465.411" y="109.929" width="2.689" height="12.295" style="fill:rgb(253,163,72);"/>
        </g>
        <g transform="matrix(1,0,0,1,-79.2153,302.874)">
            <rect x="465.411" y="109.929" width="2.689" height="12.295" style="fill:rgb(253,163,72);"/>
        </g>
        <g transform="matrix(1,0,0,1,-39.7233,302.891)">
            <rect x="465.411" y="109.929" width="2.689" height="12.295" style="fill:rgb(253,163,72);"/>
        </g>
        <g transform="matrix(1,0,0,1,0.0302559,302.891)">
            <rect x="465.411" y="109.929" width="2.689" height="12.295" style="fill:rgb(253,163,72);"/>
        </g>
        <g transform="matrix(1,0,0,1,-118.939,378.23)">
            <rect x="465.411" y="109.929" width="2.689" height="12.295" style="fill:rgb(253,163,72);"/>
        </g>
        <g transform="matrix(1,0,0,1,-79.1625,378.23)">
            <rect x="465.411" y="109.929" width="2.689" height="12.295" style="fill:rgb(253,163,72);"/>
        </g>
        <g transform="matrix(1,0,0,1,-39.6705,378.247)">
            <rect x="465.411" y="109.929" width="2.689" height="12.295" style="fill:rgb(253,163,72);"/>
        </g>
        <g transform="matrix(1,0,0,1,0.0830575,378.247)">
            <rect x="465.411" y="109.929" width="2.689" height="12.295" style="fill:rgb(253,163,72);"/>
        </g>
        <g transform="matrix(1,0,0,1,-119,453.93)">
            <rect x="465.411" y="109.929" width="2.689" height="12.295" style="fill:rgb(253,163,72);"/>
        </g>
        <g transform="matrix(1,0,0,1,-79.2233,453.93)">
            <rect x="465.411" y="109.929" width="2.689" height="12.295" style="fill:rgb(253,163,72);"/>
        </g>
        <g transform="matrix(1,0,0,1,-39.7314,453.948)">
            <rect x="465.411" y="109.929" width="2.689" height="12.295" style="fill:rgb(253,163,72);"/>
        </g>
        <g transform="matrix(1,0,0,1,0.0221956,453.948)">
            <rect x="465.411" y="109.929" width="2.689" height="12.295" style="fill:rgb(253,163,72);"/>
        </g>
        <g transform="matrix(1,0,0,1,-119,529.709)">
            <rect x="465.411" y="109.929" width="2.689" height="12.295" style="fill:rgb(253,163,72);"/>
        </g>
        <g transform="matrix(1,0,0,1,-79.2233,529.709)">
            <rect x="465.411" y="109.929" width="2.689" height="12.295" style="fill:rgb(253,163,72);"/>
        </g>
        <g transform="matrix(1,0,0,1,-39.7314,529.726)">
            <rect x="465.411" y="109.929" width="2.689" height="12.295" style="fill:rgb(253,163,72);"/>
        </g>
        <g transform="matrix(1,0,0,1,0.0221956,529.726)">
            <rect x="465.411" y="109.929" width="2.689" height="12.295" style="fill:rgb(253,163,72);"/>
        </g>
        <g transform="matrix(1.28226,0,0,0.307301,-145.124,263.725)">
            <rect x="505.593" y="366.058" width="24.902" height="26.857" style="fill:rgb(253,163,72);"/>
        </g>
        <g transform="matrix(1.08067,0,0,0.895664,-61.9585,29.171)">
            <rect x="729.232" y="270.493" width="38.776" height="9.094" style="fill:rgb(253,163,72);"/>
        </g>
        <g transform="matrix(1.08067,0,0,0.303593,-62.9441,368.844)">
            <rect x="729.232" y="513.562" width="38.776" height="28.502" style="fill:rgb(253,163,72);"/>
        </g>
        <g transform="matrix(1,0,0,1,-0.918292,12.6614)">
            <text x="545.004px" y="371.133px" style="font-family:'Nunito-Regular', 'Nunito';font-size:23px;fill:white;">SM Inter<tspan x="631.254px " y="371.133px ">c</tspan>onnect</text>
        </g>
    </g>
    <g id="Green-Col-4" serif:id="Green Col 4">
        <g transform="matrix(0.212432,0,0,0.212432,453.955,652.028)">
            <path d="M113.515,0L6.493,0C2.908,0 0,2.896 0,6.486L0,113.497C0,117.079 2.908,120 6.493,120L113.515,120C117.093,120 120,117.079 120,113.497L120,6.486C120,2.896 117.093,0 113.515,0Z" style="fill:rgb(187,219,112);"/>
        </g>
        <g transform="matrix(0.212432,0,0,0.212432,453.955,122.224)">
            <path d="M113.515,0L6.493,0C2.908,0 0,2.896 0,6.486L0,113.497C0,117.079 2.908,120 6.493,120L113.515,120C117.093,120 120,117.079 120,113.497L120,6.486C120,2.896 117.093,0 113.515,0Z" style="fill:rgb(187,219,112);"/>
        </g>
        <g transform="matrix(0.212432,0,0,0.212432,453.955,84.4367)">
            <path d="M113.515,0L6.493,0C2.908,0 0,2.896 0,6.486L0,113.497C0,117.079 2.908,120 6.493,120L113.515,120C117.093,120 120,117.079 120,113.497L120,6.486C120,2.896 117.093,0 113.515,0Z" style="fill:rgb(187,219,112);"/>
        </g>
        <g transform="matrix(0.212432,0,0,0.212432,453.955,160.081)">
            <path d="M113.515,0L6.493,0C2.908,0 0,2.896 0,6.486L0,113.497C0,117.079 2.908,120 6.493,120L113.515,120C117.093,120 120,117.079 120,113.497L120,6.486C120,2.896 117.093,0 113.515,0Z" style="fill:rgb(187,219,112);"/>
        </g>
        <g transform="matrix(0.212432,0,0,0.212432,453.955,197.812)">
            <path d="M113.515,0L6.493,0C2.908,0 0,2.896 0,6.486L0,113.497C0,117.079 2.908,120 6.493,120L113.515,120C117.093,120 120,117.079 120,113.497L120,6.486C120,2.896 117.093,0 113.515,0Z" style="fill:rgb(187,219,112);"/>
        </g>
        <g transform="matrix(0.212432,0,0,0.212432,453.955,236.285)">
            <path d="M113.515,0L6.493,0C2.908,0 0,2.896 0,6.486L0,113.497C0,117.079 2.908,120 6.493,120L113.515,120C117.093,120 120,117.079 120,113.497L120,6.486C120,2.896 117.093,0 113.515,0Z" style="fill:rgb(187,219,112);"/>
        </g>
        <g transform="matrix(0.212432,0,0,0.212432,453.955,273.524)">
            <path d="M113.515,0L6.493,0C2.908,0 0,2.896 0,6.486L0,113.497C0,117.079 2.908,120 6.493,120L113.515,120C117.093,120 120,117.079 120,113.497L120,6.486C120,2.896 117.093,0 113.515,0Z" style="fill:rgb(187,219,112);"/>
        </g>
        <g transform="matrix(0.212432,0,0,0.212432,453.955,614.091)">
            <path d="M113.515,0L6.493,0C2.908,0 0,2.896 0,6.486L0,113.497C0,117.079 2.908,120 6.493,120L113.515,120C117.093,120 120,117.079 120,113.497L120,6.486C120,2.896 117.093,0 113.515,0Z" style="fill:rgb(187,219,112);"/>
        </g>
        <g transform="matrix(0.212432,0,0,0.212432,453.955,576.172)">
            <path d="M113.515,0L6.493,0C2.908,0 0,2.896 0,6.486L0,113.497C0,117.079 2.908,120 6.493,120L113.515,120C117.093,120 120,117.079 120,113.497L120,6.486C120,2.896 117.093,0 113.515,0Z" style="fill:rgb(187,219,112);"/>
        </g>
        <g transform="matrix(0.212432,0,0,0.212432,453.955,311.408)">
            <path d="M113.515,0L6.493,0C2.908,0 0,2.896 0,6.486L0,113.497C0,117.079 2.908,120 6.493,120L113.515,120C117.093,120 120,117.079 120,113.497L120,6.486C120,2.896 117.093,0 113.515,0Z" style="fill:rgb(187,219,112);"/>
        </g>
        <g transform="matrix(0.212432,0,0,0.212432,453.955,349.21)">
            <path d="M113.515,0L6.493,0C2.908,0 0,2.896 0,6.486L0,113.497C0,117.079 2.908,120 6.493,120L113.515,120C117.093,120 120,117.079 120,113.497L120,6.486C120,2.896 117.093,0 113.515,0Z" style="fill:rgb(187,219,112);"/>
        </g>
        <g transform="matrix(0.212432,0,0,0.212432,453.955,387.254)">
            <path d="M113.515,0L6.493,0C2.908,0 0,2.896 0,6.486L0,113.497C0,117.079 2.908,120 6.493,120L113.515,120C117.093,120 120,117.079 120,113.497L120,6.486C120,2.896 117.093,0 113.515,0Z" style="fill:rgb(187,219,112);"/>
        </g>
        <g transform="matrix(0.212432,0,0,0.212432,453.955,424.731)">
            <path d="M113.515,0L6.493,0C2.908,0 0,2.896 0,6.486L0,113.497C0,117.079 2.908,120 6.493,120L113.515,120C117.093,120 120,117.079 120,113.497L120,6.486C120,2.896 117.093,0 113.515,0Z" style="fill:rgb(187,219,112);"/>
        </g>
        <g transform="matrix(0.212432,0,0,0.212432,453.955,462.995)">
            <path d="M113.515,0L6.493,0C2.908,0 0,2.896 0,6.486L0,113.497C0,117.079 2.908,120 6.493,120L113.515,120C117.093,120 120,117.079 120,113.497L120,6.486C120,2.896 117.093,0 113.515,0Z" style="fill:rgb(187,219,112);"/>
        </g>
        <g transform="matrix(0.212432,0,0,0.212432,453.955,500.642)">
            <path d="M113.515,0L6.493,0C2.908,0 0,2.896 0,6.486L0,113.497C0,117.079 2.908,120 6.493,120L113.515,120C117.093,120 120,117.079 120,113.497L120,6.486C120,2.896 117.093,0 113.515,0Z" style="fill:rgb(187,219,112);"/>
        </g>
        <g transform="matrix(0.212432,0,0,0.212432,453.955,538.759)">
            <path d="M113.515,0L6.493,0C2.908,0 0,2.896 0,6.486L0,113.497C0,117.079 2.908,120 6.493,120L113.515,120C117.093,120 120,117.079 120,113.497L120,6.486C120,2.896 117.093,0 113.515,0Z" style="fill:rgb(187,219,112);"/>
        </g>
    </g>
    <g id="Green-Col-3" serif:id="Green Col 3" transform="matrix(1,0,0,1,-39.7361,0)">
        <g transform="matrix(0.212432,0,0,0.212432,453.955,652.028)">
            <path d="M113.515,0L6.493,0C2.908,0 0,2.896 0,6.486L0,113.497C0,117.079 2.908,120 6.493,120L113.515,120C117.093,120 120,117.079 120,113.497L120,6.486C120,2.896 117.093,0 113.515,0Z" style="fill:rgb(187,219,112);"/>
        </g>
        <g transform="matrix(0.212432,0,0,0.212432,453.955,122.224)">
            <path d="M113.515,0L6.493,0C2.908,0 0,2.896 0,6.486L0,113.497C0,117.079 2.908,120 6.493,120L113.515,120C117.093,120 120,117.079 120,113.497L120,6.486C120,2.896 117.093,0 113.515,0Z" style="fill:rgb(187,219,112);"/>
        </g>
        <g transform="matrix(0.212432,0,0,0.212432,453.955,84.4367)">
            <path d="M113.515,0L6.493,0C2.908,0 0,2.896 0,6.486L0,113.497C0,117.079 2.908,120 6.493,120L113.515,120C117.093,120 120,117.079 120,113.497L120,6.486C120,2.896 117.093,0 113.515,0Z" style="fill:rgb(187,219,112);"/>
        </g>
        <g transform="matrix(0.212432,0,0,0.212432,453.955,160.081)">
            <path d="M113.515,0L6.493,0C2.908,0 0,2.896 0,6.486L0,113.497C0,117.079 2.908,120 6.493,120L113.515,120C117.093,120 120,117.079 120,113.497L120,6.486C120,2.896 117.093,0 113.515,0Z" style="fill:rgb(187,219,112);"/>
        </g>
        <g transform="matrix(0.212432,0,0,0.212432,453.955,197.812)">
            <path d="M113.515,0L6.493,0C2.908,0 0,2.896 0,6.486L0,113.497C0,117.079 2.908,120 6.493,120L113.515,120C117.093,120 120,117.079 120,113.497L120,6.486C120,2.896 117.093,0 113.515,0Z" style="fill:rgb(187,219,112);"/>
        </g>
        <g transform="matrix(0.212432,0,0,0.212432,453.955,236.285)">
            <path d="M113.515,0L6.493,0C2.908,0 0,2.896 0,6.486L0,113.497C0,117.079 2.908,120 6.493,120L113.515,120C117.093,120 120,117.079 120,113.497L120,6.486C120,2.896 117.093,0 113.515,0Z" style="fill:rgb(187,219,112);"/>
        </g>
        <g transform="matrix(0.212432,0,0,0.212432,453.955,273.524)">
            <path d="M113.515,0L6.493,0C2.908,0 0,2.896 0,6.486L0,113.497C0,117.079 2.908,120 6.493,120L113.515,120C117.093,120 120,117.079 120,113.497L120,6.486C120,2.896 117.093,0 113.515,0Z" style="fill:rgb(187,219,112);"/>
        </g>
        <g transform="matrix(0.212432,0,0,0.212432,453.955,614.091)">
            <path d="M113.515,0L6.493,0C2.908,0 0,2.896 0,6.486L0,113.497C0,117.079 2.908,120 6.493,120L113.515,120C117.093,120 120,117.079 120,113.497L120,6.486C120,2.896 117.093,0 113.515,0Z" style="fill:rgb(187,219,112);"/>
        </g>
        <g transform="matrix(0.212432,0,0,0.212432,453.955,576.172)">
            <path d="M113.515,0L6.493,0C2.908,0 0,2.896 0,6.486L0,113.497C0,117.079 2.908,120 6.493,120L113.515,120C117.093,120 120,117.079 120,113.497L120,6.486C120,2.896 117.093,0 113.515,0Z" style="fill:rgb(187,219,112);"/>
        </g>
        <g transform="matrix(0.212432,0,0,0.212432,453.955,311.408)">
            <path d="M113.515,0L6.493,0C2.908,0 0,2.896 0,6.486L0,113.497C0,117.079 2.908,120 6.493,120L113.515,120C117.093,120 120,117.079 120,113.497L120,6.486C120,2.896 117.093,0 113.515,0Z" style="fill:rgb(187,219,112);"/>
        </g>
        <g transform="matrix(0.212432,0,0,0.212432,453.955,349.21)">
            <path d="M113.515,0L6.493,0C2.908,0 0,2.896 0,6.486L0,113.497C0,117.079 2.908,120 6.493,120L113.515,120C117.093,120 120,117.079 120,113.497L120,6.486C120,2.896 117.093,0 113.515,0Z" style="fill:rgb(187,219,112);"/>
        </g>
        <g transform="matrix(0.212432,0,0,0.212432,453.955,387.254)">
            <path d="M113.515,0L6.493,0C2.908,0 0,2.896 0,6.486L0,113.497C0,117.079 2.908,120 6.493,120L113.515,120C117.093,120 120,117.079 120,113.497L120,6.486C120,2.896 117.093,0 113.515,0Z" style="fill:rgb(187,219,112);"/>
        </g>
        <g transform="matrix(0.212432,0,0,0.212432,453.955,424.731)">
            <path d="M113.515,0L6.493,0C2.908,0 0,2.896 0,6.486L0,113.497C0,117.079 2.908,120 6.493,120L113.515,120C117.093,120 120,117.079 120,113.497L120,6.486C120,2.896 117.093,0 113.515,0Z" style="fill:rgb(187,219,112);"/>
        </g>
        <g transform="matrix(0.212432,0,0,0.212432,453.955,462.995)">
            <path d="M113.515,0L6.493,0C2.908,0 0,2.896 0,6.486L0,113.497C0,117.079 2.908,120 6.493,120L113.515,120C117.093,120 120,117.079 120,113.497L120,6.486C120,2.896 117.093,0 113.515,0Z" style="fill:rgb(187,219,112);"/>
        </g>
        <g transform="matrix(0.212432,0,0,0.212432,453.955,500.642)">
            <path d="M113.515,0L6.493,0C2.908,0 0,2.896 0,6.486L0,113.497C0,117.079 2.908,120 6.493,120L113.515,120C117.093,120 120,117.079 120,113.497L120,6.486C120,2.896 117.093,0 113.515,0Z" style="fill:rgb(187,219,112);"/>
        </g>
        <g transform="matrix(0.212432,0,0,0.212432,453.955,538.759)">
            <path d="M113.515,0L6.493,0C2.908,0 0,2.896 0,6.486L0,113.497C0,117.079 2.908,120 6.493,120L113.515,120C117.093,120 120,117.079 120,113.497L120,6.486C120,2.896 117.093,0 113.515,0Z" style="fill:rgb(187,219,112);"/>
        </g>
    </g>
    <g id="Green-Col-2" serif:id="Green Col 2" transform="matrix(1,0,0,1,-79.1614,0)">
        <g transform="matrix(0.212432,0,0,0.212432,453.955,652.028)">
            <path d="M113.515,0L6.493,0C2.908,0 0,2.896 0,6.486L0,113.497C0,117.079 2.908,120 6.493,120L113.515,120C117.093,120 120,117.079 120,113.497L120,6.486C120,2.896 117.093,0 113.515,0Z" style="fill:rgb(187,219,112);"/>
        </g>
        <g transform="matrix(0.212432,0,0,0.212432,453.955,122.224)">
            <path d="M113.515,0L6.493,0C2.908,0 0,2.896 0,6.486L0,113.497C0,117.079 2.908,120 6.493,120L113.515,120C117.093,120 120,117.079 120,113.497L120,6.486C120,2.896 117.093,0 113.515,0Z" style="fill:rgb(187,219,112);"/>
        </g>
        <g transform="matrix(0.212432,0,0,0.212432,453.955,84.4367)">
            <path d="M113.515,0L6.493,0C2.908,0 0,2.896 0,6.486L0,113.497C0,117.079 2.908,120 6.493,120L113.515,120C117.093,120 120,117.079 120,113.497L120,6.486C120,2.896 117.093,0 113.515,0Z" style="fill:rgb(187,219,112);"/>
        </g>
        <g transform="matrix(0.212432,0,0,0.212432,453.955,160.081)">
            <path d="M113.515,0L6.493,0C2.908,0 0,2.896 0,6.486L0,113.497C0,117.079 2.908,120 6.493,120L113.515,120C117.093,120 120,117.079 120,113.497L120,6.486C120,2.896 117.093,0 113.515,0Z" style="fill:rgb(187,219,112);"/>
        </g>
        <g transform="matrix(0.212432,0,0,0.212432,453.955,197.812)">
            <path d="M113.515,0L6.493,0C2.908,0 0,2.896 0,6.486L0,113.497C0,117.079 2.908,120 6.493,120L113.515,120C117.093,120 120,117.079 120,113.497L120,6.486C120,2.896 117.093,0 113.515,0Z" style="fill:rgb(187,219,112);"/>
        </g>
        <g transform="matrix(0.212432,0,0,0.212432,453.955,236.285)">
            <path d="M113.515,0L6.493,0C2.908,0 0,2.896 0,6.486L0,113.497C0,117.079 2.908,120 6.493,120L113.515,120C117.093,120 120,117.079 120,113.497L120,6.486C120,2.896 117.093,0 113.515,0Z" style="fill:rgb(187,219,112);"/>
        </g>
        <g transform="matrix(0.212432,0,0,0.212432,453.955,273.524)">
            <path d="M113.515,0L6.493,0C2.908,0 0,2.896 0,6.486L0,113.497C0,117.079 2.908,120 6.493,120L113.515,120C117.093,120 120,117.079 120,113.497L120,6.486C120,2.896 117.093,0 113.515,0Z" style="fill:rgb(187,219,112);"/>
        </g>
        <g transform="matrix(0.212432,0,0,0.212432,453.955,614.091)">
            <path d="M113.515,0L6.493,0C2.908,0 0,2.896 0,6.486L0,113.497C0,117.079 2.908,120 6.493,120L113.515,120C117.093,120 120,117.079 120,113.497L120,6.486C120,2.896 117.093,0 113.515,0Z" style="fill:rgb(187,219,112);"/>
        </g>
        <g transform="matrix(0.212432,0,0,0.212432,453.955,576.172)">
            <path d="M113.515,0L6.493,0C2.908,0 0,2.896 0,6.486L0,113.497C0,117.079 2.908,120 6.493,120L113.515,120C117.093,120 120,117.079 120,113.497L120,6.486C120,2.896 117.093,0 113.515,0Z" style="fill:rgb(187,219,112);"/>
        </g>
        <g transform="matrix(0.212432,0,0,0.212432,453.955,311.408)">
            <path d="M113.515,0L6.493,0C2.908,0 0,2.896 0,6.486L0,113.497C0,117.079 2.908,120 6.493,120L113.515,120C117.093,120 120,117.079 120,113.497L120,6.486C120,2.896 117.093,0 113.515,0Z" style="fill:rgb(187,219,112);"/>
        </g>
        <g transform="matrix(0.212432,0,0,0.212432,453.955,349.21)">
            <path d="M113.515,0L6.493,0C2.908,0 0,2.896 0,6.486L0,113.497C0,117.079 2.908,120 6.493,120L113.515,120C117.093,120 120,117.079 120,113.497L120,6.486C120,2.896 117.093,0 113.515,0Z" style="fill:rgb(187,219,112);"/>
        </g>
        <g transform="matrix(0.212432,0,0,0.212432,453.955,387.254)">
            <path d="M113.515,0L6.493,0C2.908,0 0,2.896 0,6.486L0,113.497C0,117.079 2.908,120 6.493,120L113.515,120C117.093,120 120,117.079 120,113.497L120,6.486C120,2.896 117.093,0 113.515,0Z" style="fill:rgb(187,219,112);"/>
        </g>
        <g transform="matrix(0.212432,0,0,0.212432,453.955,424.731)">
            <path d="M113.515,0L6.493,0C2.908,0 0,2.896 0,6.486L0,113.497C0,117.079 2.908,120 6.493,120L113.515,120C117.093,120 120,117.079 120,113.497L120,6.486C120,2.896 117.093,0 113.515,0Z" style="fill:rgb(187,219,112);"/>
        </g>
        <g transform="matrix(0.212432,0,0,0.212432,453.955,462.995)">
            <path d="M113.515,0L6.493,0C2.908,0 0,2.896 0,6.486L0,113.497C0,117.079 2.908,120 6.493,120L113.515,120C117.093,120 120,117.079 120,113.497L120,6.486C120,2.896 117.093,0 113.515,0Z" style="fill:rgb(187,219,112);"/>
        </g>
        <g transform="matrix(0.212432,0,0,0.212432,453.955,500.642)">
            <path d="M113.515,0L6.493,0C2.908,0 0,2.896 0,6.486L0,113.497C0,117.079 2.908,120 6.493,120L113.515,120C117.093,120 120,117.079 120,113.497L120,6.486C120,2.896 117.093,0 113.515,0Z" style="fill:rgb(187,219,112);"/>
        </g>
        <g transform="matrix(0.212432,0,0,0.212432,453.955,538.759)">
            <path d="M113.515,0L6.493,0C2.908,0 0,2.896 0,6.486L0,113.497C0,117.079 2.908,120 6.493,120L113.515,120C117.093,120 120,117.079 120,113.497L120,6.486C120,2.896 117.093,0 113.515,0Z" style="fill:rgb(187,219,112);"/>
        </g>
    </g>
    <g id="Green-Col-1" serif:id="Green Col 1" transform="matrix(1,0,0,1,-118.885,-5.68434e-14)">
        <g transform="matrix(0.212432,0,0,0.212432,453.955,652.028)">
            <path d="M113.515,0L6.493,0C2.908,0 0,2.896 0,6.486L0,113.497C0,117.079 2.908,120 6.493,120L113.515,120C117.093,120 120,117.079 120,113.497L120,6.486C120,2.896 117.093,0 113.515,0Z" style="fill:rgb(187,219,112);"/>
        </g>
        <g transform="matrix(0.212432,0,0,0.212432,453.955,122.224)">
            <path d="M113.515,0L6.493,0C2.908,0 0,2.896 0,6.486L0,113.497C0,117.079 2.908,120 6.493,120L113.515,120C117.093,120 120,117.079 120,113.497L120,6.486C120,2.896 117.093,0 113.515,0Z" style="fill:rgb(187,219,112);"/>
        </g>
        <g transform="matrix(0.212432,0,0,0.212432,453.955,84.4367)">
            <path d="M113.515,0L6.493,0C2.908,0 0,2.896 0,6.486L0,113.497C0,117.079 2.908,120 6.493,120L113.515,120C117.093,120 120,117.079 120,113.497L120,6.486C120,2.896 117.093,0 113.515,0Z" style="fill:rgb(187,219,112);"/>
        </g>
        <g transform="matrix(0.212432,0,0,0.212432,453.955,160.081)">
            <path d="M113.515,0L6.493,0C2.908,0 0,2.896 0,6.486L0,113.497C0,117.079 2.908,120 6.493,120L113.515,120C117.093,120 120,117.079 120,113.497L120,6.486C120,2.896 117.093,0 113.515,0Z" style="fill:rgb(187,219,112);"/>
        </g>
        <g transform="matrix(0.212432,0,0,0.212432,453.955,197.812)">
            <path d="M113.515,0L6.493,0C2.908,0 0,2.896 0,6.486L0,113.497C0,117.079 2.908,120 6.493,120L113.515,120C117.093,120 120,117.079 120,113.497L120,6.486C120,2.896 117.093,0 113.515,0Z" style="fill:rgb(187,219,112);"/>
        </g>
        <g transform="matrix(0.212432,0,0,0.212432,453.955,236.285)">
            <path d="M113.515,0L6.493,0C2.908,0 0,2.896 0,6.486L0,113.497C0,117.079 2.908,120 6.493,120L113.515,120C117.093,120 120,117.079 120,113.497L120,6.486C120,2.896 117.093,0 113.515,0Z" style="fill:rgb(187,219,112);"/>
        </g>
        <g transform="matrix(0.212432,0,0,0.212432,453.955,273.524)">
            <path d="M113.515,0L6.493,0C2.908,0 0,2.896 0,6.486L0,113.497C0,117.079 2.908,120 6.493,120L113.515,120C117.093,120 120,117.079 120,113.497L120,6.486C120,2.896 117.093,0 113.515,0Z" style="fill:rgb(187,219,112);"/>
        </g>
        <g transform="matrix(0.212432,0,0,0.212432,453.955,614.091)">
            <path d="M113.515,0L6.493,0C2.908,0 0,2.896 0,6.486L0,113.497C0,117.079 2.908,120 6.493,120L113.515,120C117.093,120 120,117.079 120,113.497L120,6.486C120,2.896 117.093,0 113.515,0Z" style="fill:rgb(187,219,112);"/>
        </g>
        <g transform="matrix(0.212432,0,0,0.212432,453.955,576.172)">
            <path d="M113.515,0L6.493,0C2.908,0 0,2.896 0,6.486L0,113.497C0,117.079 2.908,120 6.493,120L113.515,120C117.093,120 120,117.079 120,113.497L120,6.486C120,2.896 117.093,0 113.515,0Z" style="fill:rgb(187,219,112);"/>
        </g>
        <g transform="matrix(0.212432,0,0,0.212432,453.955,311.408)">
            <path d="M113.515,0L6.493,0C2.908,0 0,2.896 0,6.486L0,113.497C0,117.079 2.908,120 6.493,120L113.515,120C117.093,120 120,117.079 120,113.497L120,6.486C120,2.896 117.093,0 113.515,0Z" style="fill:rgb(187,219,112);"/>
        </g>
        <g transform="matrix(0.212432,0,0,0.212432,453.955,349.21)">
            <path d="M113.515,0L6.493,0C2.908,0 0,2.896 0,6.486L0,113.497C0,117.079 2.908,120 6.493,120L113.515,120C117.093,120 120,117.079 120,113.497L120,6.486C120,2.896 117.093,0 113.515,0Z" style="fill:rgb(187,219,112);"/>
        </g>
        <g transform="matrix(0.212432,0,0,0.212432,453.955,387.254)">
            <path d="M113.515,0L6.493,0C2.908,0 0,2.896 0,6.486L0,113.497C0,117.079 2.908,120 6.493,120L113.515,120C117.093,120 120,117.079 120,113.497L120,6.486C120,2.896 117.093,0 113.515,0Z" style="fill:rgb(187,219,112);"/>
        </g>
        <g transform="matrix(0.212432,0,0,0.212432,453.955,424.731)">
            <path d="M113.515,0L6.493,0C2.908,0 0,2.896 0,6.486L0,113.497C0,117.079 2.908,120 6.493,120L113.515,120C117.093,120 120,117.079 120,113.497L120,6.486C120,2.896 117.093,0 113.515,0Z" style="fill:rgb(187,219,112);"/>
        </g>
        <g transform="matrix(0.212432,0,0,0.212432,453.955,462.995)">
            <path d="M113.515,0L6.493,0C2.908,0 0,2.896 0,6.486L0,113.497C0,117.079 2.908,120 6.493,120L113.515,120C117.093,120 120,117.079 120,113.497L120,6.486C120,2.896 117.093,0 113.515,0Z" style="fill:rgb(187,219,112);"/>
        </g>
        <g transform="matrix(0.212432,0,0,0.212432,453.955,500.642)">
            <path d="M113.515,0L6.493,0C2.908,0 0,2.896 0,6.486L0,113.497C0,117.079 2.908,120 6.493,120L113.515,120C117.093,120 120,117.079 120,113.497L120,6.486C120,2.896 117.093,0 113.515,0Z" style="fill:rgb(187,219,112);"/>
        </g>
        <g transform="matrix(0.212432,0,0,0.212432,453.955,538.759)">
            <path d="M113.515,0L6.493,0C2.908,0 0,2.896 0,6.486L0,113.497C0,117.079 2.908,120 6.493,120L113.515,120C117.093,120 120,117.079 120,113.497L120,6.486C120,2.896 117.093,0 113.515,0Z" style="fill:rgb(187,219,112);"/>
        </g>
    </g>
    <g id="Purple" transform="matrix(1,0,0,1,0,-0.612682)">
        <path d="M990.531,169.512C990.531,165.636 987.385,162.49 983.509,162.49L775.03,162.49C771.154,162.49 768.008,165.636 768.008,169.512L768.008,378.212C768.008,382.088 771.154,385.234 775.03,385.234L983.509,385.234C987.385,385.234 990.531,382.088 990.531,378.212L990.531,169.512Z" style="fill:rgb(104,105,107);stroke:rgb(214,222,225);stroke-width:1px;"/>
        <g transform="matrix(0.212432,0,0,0.212432,800.615,192.612)">
            <path d="M113.515,0L6.493,0C2.908,0 0,2.896 0,6.486L0,113.497C0,117.079 2.908,120 6.493,120L113.515,120C117.093,120 120,117.079 120,113.497L120,6.486C120,2.896 117.093,0 113.515,0Z" style="fill:rgb(238,91,98);"/>
        </g>
        <g transform="matrix(0.212432,0,0,0.212432,844.492,192.612)">
            <path d="M113.515,0L6.493,0C2.908,0 0,2.896 0,6.486L0,113.497C0,117.079 2.908,120 6.493,120L113.515,120C117.093,120 120,117.079 120,113.497L120,6.486C120,2.896 117.093,0 113.515,0Z" style="fill:rgb(238,91,98);"/>
        </g>
        <g transform="matrix(0.212432,0,0,0.212432,888.032,192.612)">
            <path d="M113.515,0L6.493,0C2.908,0 0,2.896 0,6.486L0,113.497C0,117.079 2.908,120 6.493,120L113.515,120C117.093,120 120,117.079 120,113.497L120,6.486C120,2.896 117.093,0 113.515,0Z" style="fill:rgb(238,91,98);"/>
        </g>
        <g transform="matrix(0.212432,0,0,0.212432,931.649,192.612)">
            <path d="M113.515,0L6.493,0C2.908,0 0,2.896 0,6.486L0,113.497C0,117.079 2.908,120 6.493,120L113.515,120C117.093,120 120,117.079 120,113.497L120,6.486C120,2.896 117.093,0 113.515,0Z" style="fill:rgb(238,91,98);"/>
        </g>
        <g transform="matrix(0.212432,0,0,0.212432,800.615,244.187)">
            <path d="M113.515,0L6.493,0C2.908,0 0,2.896 0,6.486L0,113.497C0,117.079 2.908,120 6.493,120L113.515,120C117.093,120 120,117.079 120,113.497L120,6.486C120,2.896 117.093,0 113.515,0Z" style="fill:rgb(238,91,98);"/>
        </g>
        <g transform="matrix(0.212432,0,0,0.212432,844.492,244.187)">
            <path d="M113.515,0L6.493,0C2.908,0 0,2.896 0,6.486L0,113.497C0,117.079 2.908,120 6.493,120L113.515,120C117.093,120 120,117.079 120,113.497L120,6.486C120,2.896 117.093,0 113.515,0Z" style="fill:rgb(238,91,98);"/>
        </g>
        <g transform="matrix(0.212432,0,0,0.212432,888.032,244.187)">
            <path d="M113.515,0L6.493,0C2.908,0 0,2.896 0,6.486L0,113.497C0,117.079 2.908,120 6.493,120L113.515,120C117.093,120 120,117.079 120,113.497L120,6.486C120,2.896 117.093,0 113.515,0Z" style="fill:rgb(238,91,98);"/>
        </g>
        <g transform="matrix(0.212432,0,0,0.212432,931.649,244.187)">
            <path d="M113.515,0L6.493,0C2.908,0 0,2.896 0,6.486L0,113.497C0,117.079 2.908,120 6.493,120L113.515,120C117.093,120 120,117.079 120,113.497L120,6.486C120,2.896 117.093,0 113.515,0Z" style="fill:rgb(238,91,98);"/>
        </g>
        <g transform="matrix(0.212432,0,0,0.212432,800.615,294.601)">
            <path d="M113.515,0L6.493,0C2.908,0 0,2.896 0,6.486L0,113.497C0,117.079 2.908,120 6.493,120L113.515,120C117.093,120 120,117.079 120,113.497L120,6.486C120,2.896 117.093,0 113.515,0Z" style="fill:rgb(238,91,98);"/>
        </g>
        <g transform="matrix(0.212432,0,0,0.212432,844.492,294.601)">
            <path d="M113.515,0L6.493,0C2.908,0 0,2.896 0,6.486L0,113.497C0,117.079 2.908,120 6.493,120L113.515,120C117.093,120 120,117.079 120,113.497L120,6.486C120,2.896 117.093,0 113.515,0Z" style="fill:rgb(238,91,98);"/>
        </g>
        <g transform="matrix(0.212432,0,0,0.212432,888.032,294.601)">
            <path d="M113.515,0L6.493,0C2.908,0 0,2.896 0,6.486L0,113.497C0,117.079 2.908,120 6.493,120L113.515,120C117.093,120 120,117.079 120,113.497L120,6.486C120,2.896 117.093,0 113.515,0Z" style="fill:rgb(238,91,98);"/>
        </g>
        <g transform="matrix(0.212432,0,0,0.212432,931.649,294.601)">
            <path d="M113.515,0L6.493,0C2.908,0 0,2.896 0,6.486L0,113.497C0,117.079 2.908,120 6.493,120L113.515,120C117.093,120 120,117.079 120,113.497L120,6.486C120,2.896 117.093,0 113.515,0Z" style="fill:rgb(238,91,98);"/>
        </g>
    </g>
    <g transform="matrix(1,0,0,1,-1.92294,-5.58514)">
        <text x="356.288px" y="714.658px" style="font-family:'Nunito-Regular', 'Nunito';font-size:23px;fill:rgb(89,91,95);">multi-<tspan x="417.399px " y="714.658px ">c</tspan>or<tspan x="449.07px " y="714.658px ">e</tspan></text>
    </g>
    <g transform="matrix(1,0,0,1,-2.35829,-0.155789)">
        <g transform="matrix(1.00655,0,0,1.01873,-6.48377,-11.2568)">
            <path d="M989.371,470.457C989.371,465.217 985.065,460.962 979.761,460.962L779.058,460.962C773.755,460.962 769.449,465.217 769.449,470.457L769.449,591.661C769.449,596.901 773.755,601.156 779.058,601.156L979.761,601.156C985.065,601.156 989.371,596.901 989.371,591.661L989.371,470.457Z" style="fill:rgb(104,105,107);"/>
        </g>
        <g transform="matrix(0.212432,0,0,0.212432,898.789,476.919)">
            <path d="M113.515,0L6.493,0C2.908,0 0,2.896 0,6.486L0,113.497C0,117.079 2.908,120 6.493,120L113.515,120C117.093,120 120,117.079 120,113.497L120,6.486C120,2.896 117.093,0 113.515,0Z" style="fill:rgb(255,233,130);"/>
        </g>
        <g transform="matrix(0.212432,0,0,0.212432,833.098,476.919)">
            <path d="M113.515,0L6.493,0C2.908,0 0,2.896 0,6.486L0,113.497C0,117.079 2.908,120 6.493,120L113.515,120C117.093,120 120,117.079 120,113.497L120,6.486C120,2.896 117.093,0 113.515,0Z" style="fill:rgb(255,233,130);"/>
        </g>
        <g transform="matrix(0.212432,0,0,0.212432,898.789,520.822)">
            <path d="M113.515,0L6.493,0C2.908,0 0,2.896 0,6.486L0,113.497C0,117.079 2.908,120 6.493,120L113.515,120C117.093,120 120,117.079 120,113.497L120,6.486C120,2.896 117.093,0 113.515,0Z" style="fill:rgb(255,233,130);"/>
        </g>
        <g transform="matrix(0.212432,0,0,0.212432,833.098,520.822)">
            <path d="M113.515,0L6.493,0C2.908,0 0,2.896 0,6.486L0,113.497C0,117.079 2.908,120 6.493,120L113.515,120C117.093,120 120,117.079 120,113.497L120,6.486C120,2.896 117.093,0 113.515,0Z" style="fill:rgb(255,233,130);"/>
        </g>
    </g>
    <g transform="matrix(1,0,0,1,1,-1)">
        <text x="789.441px" y="583.298px" style="font-family:'Nunito-Regular', 'Nunito';font-size:23px;fill:white;">4 x 10 GbE SFP+</text>
    </g>
    <g transform="matrix(1,0,0,1,-5.8215,-12.8269)">
        <text x="803.607px" y="376.83px" style="font-family:'Nunito-Regular', 'Nunito';font-size:23px;fill:white;">12 x 1 GbE SFP</text>
    </g>
</svg>
