<?xml version="1.0" encoding="UTF-8" standalone="no"?>
<!DOCTYPE svg PUBLIC "-//W3C//DTD SVG 1.1//EN" "http://www.w3.org/Graphics/SVG/1.1/DTD/svg11.dtd">
<svg width="100%" height="100%" viewBox="0 0 1280 800" version="1.1" xmlns="http://www.w3.org/2000/svg" xmlns:xlink="http://www.w3.org/1999/xlink" xml:space="preserve" xmlns:serif="http://www.serif.com/" style="fill-rule:evenodd;clip-rule:evenodd;stroke-linecap:round;stroke-miterlimit:1.5;">
    <g>
        <g transform="matrix(0.989288,0,0,1,9.84643,-3)">
            <path d="M1162.78,35.545C1162.78,31.17 1159.19,27.619 1154.77,27.619L927.24,27.619C922.818,27.619 919.228,31.17 919.228,35.545L919.228,614.681C919.228,619.056 922.818,622.607 927.24,622.607L1154.77,622.607C1159.19,622.607 1162.78,619.056 1162.78,614.681L1162.78,35.545Z" style="fill:url(#_Linear1);"/>
        </g>
        <g id="Arrows" transform="matrix(1,0,0,1,-1,0)">
            <g transform="matrix(1,0,0,1,-2,0)">
                <g transform="matrix(2.59525,-2.46519e-32,2.46519e-32,2.59525,-409.297,-511.195)">
                    <g transform="matrix(0.38532,3.6601e-33,-3.6601e-33,0.38532,158.481,196.973)">
                        <path d="M898.46,450.813L918.584,450.813" style="fill:none;stroke:rgb(253,152,63);stroke-width:7.5px;stroke-dasharray:0,11.25,0,0;"/>
                    </g>
                    <g transform="matrix(1.79751,0,0,1.79751,-389.121,-288.662)">
                        <circle cx="504.776" cy="366.799" r="3.865" style="fill:rgb(243,110,35);"/>
                    </g>
                    <g transform="matrix(1.402,0,0,1.402,-207.997,-149.955)">
                        <g transform="matrix(1,0,0,0.771459,0.544678,85.3884)">
                            <path d="M516.676,367.704L519.636,370.664" style="fill:white;stroke:white;stroke-width:1.56px;stroke-linejoin:round;"/>
                        </g>
                        <g transform="matrix(1,0,0,-0.771459,0.544678,657.292)">
                            <path d="M516.676,367.704L519.636,370.664" style="fill:white;stroke:white;stroke-width:1.56px;stroke-linejoin:round;"/>
                        </g>
                    </g>
                </g>
                <g transform="matrix(2.59525,-2.46519e-32,2.46519e-32,2.59525,-409.297,-469.417)">
                    <g transform="matrix(0.38532,3.6601e-33,-3.6601e-33,0.38532,158.481,197.001)">
                        <path d="M898.46,450.813L918.584,450.813" style="fill:none;stroke:rgb(253,152,63);stroke-width:7.5px;stroke-dasharray:0,11.25,0,0;"/>
                    </g>
                    <g transform="matrix(1.79751,0,0,1.79751,-389.121,-288.662)">
                        <circle cx="504.776" cy="366.799" r="3.865" style="fill:rgb(243,110,35);"/>
                    </g>
                    <g transform="matrix(1.402,0,0,1.402,-207.997,-149.955)">
                        <g transform="matrix(1,0,0,0.771459,0.544678,85.3884)">
                            <path d="M516.676,367.704L519.636,370.664" style="fill:white;stroke:white;stroke-width:1.56px;stroke-linejoin:round;"/>
                        </g>
                        <g transform="matrix(1,0,0,-0.771459,0.544678,657.292)">
                            <path d="M516.676,367.704L519.636,370.664" style="fill:white;stroke:white;stroke-width:1.56px;stroke-linejoin:round;"/>
                        </g>
                    </g>
                </g>
                <g transform="matrix(2.59525,-2.46519e-32,2.46519e-32,2.59525,-409.297,-428.018)">
                    <g transform="matrix(0.38532,3.6601e-33,-3.6601e-33,0.38532,158.481,197.055)">
                        <path d="M898.46,450.813L918.584,450.813" style="fill:none;stroke:rgb(253,152,63);stroke-width:7.5px;stroke-dasharray:0,11.25,0,0;"/>
                    </g>
                    <g transform="matrix(1.79751,0,0,1.79751,-389.121,-288.662)">
                        <circle cx="504.776" cy="366.799" r="3.865" style="fill:rgb(243,110,35);"/>
                    </g>
                    <g transform="matrix(1.402,0,0,1.402,-207.997,-149.955)">
                        <g transform="matrix(1,0,0,0.771459,0.544678,85.3884)">
                            <path d="M516.676,367.704L519.636,370.664" style="fill:white;stroke:white;stroke-width:1.56px;stroke-linejoin:round;"/>
                        </g>
                        <g transform="matrix(1,0,0,-0.771459,0.544678,657.292)">
                            <path d="M516.676,367.704L519.636,370.664" style="fill:white;stroke:white;stroke-width:1.56px;stroke-linejoin:round;"/>
                        </g>
                    </g>
                </g>
            </g>
            <g transform="matrix(1.58913e-16,-2.59525,2.59525,1.58913e-16,-390.184,1995.86)">
                <g transform="matrix(1.79751,0,0,1.79751,-389.121,-288.662)">
                    <circle cx="504.776" cy="366.799" r="3.865" style="fill:rgb(243,110,35);"/>
                </g>
                <g transform="matrix(1.402,0,0,1.402,-207.997,-149.955)">
                    <g transform="matrix(1,0,0,0.771459,0.544678,85.3884)">
                        <path d="M516.676,367.704L519.636,370.664" style="fill:white;stroke:white;stroke-width:1.56px;stroke-linejoin:round;"/>
                    </g>
                    <g transform="matrix(1,0,0,-0.771459,0.544678,657.292)">
                        <path d="M516.676,367.704L519.636,370.664" style="fill:white;stroke:white;stroke-width:1.56px;stroke-linejoin:round;"/>
                    </g>
                </g>
            </g>
            <g transform="matrix(1,0,0,1,-708.805,21.9452)">
                <g transform="matrix(1.89468,1.77356,-1.77356,1.89468,609.844,-1170.61)">
                    <g transform="matrix(0.38532,3.6601e-33,-3.6601e-33,0.38532,158.481,196.973)">
                        <path d="M817.246,448.131L948.016,451.592" style="fill:none;stroke:rgb(253,152,63);stroke-width:7.5px;stroke-dasharray:0,11.25,0,0;"/>
                    </g>
                    <g transform="matrix(1.79751,0,0,1.79751,-389.121,-288.662)">
                        <circle cx="504.776" cy="366.799" r="3.865" style="fill:rgb(243,110,35);"/>
                    </g>
                    <g transform="matrix(1.402,0,0,1.402,-207.997,-149.955)">
                        <g transform="matrix(1,0,0,0.771459,0.544678,85.3884)">
                            <path d="M516.676,367.704L519.636,370.664" style="fill:white;stroke:white;stroke-width:1.56px;stroke-linejoin:round;"/>
                        </g>
                        <g transform="matrix(1,0,0,-0.771459,0.544678,657.292)">
                            <path d="M516.676,367.704L519.636,370.664" style="fill:white;stroke:white;stroke-width:1.56px;stroke-linejoin:round;"/>
                        </g>
                    </g>
                </g>
                <g transform="matrix(1.89468,-1.77356,-1.77356,-1.89468,609.844,2155.46)">
                    <g transform="matrix(0.38532,3.6601e-33,-3.6601e-33,0.38532,158.481,196.973)">
                        <path d="M830.869,448.492L948.016,451.592" style="fill:none;stroke:rgb(253,152,63);stroke-width:7.5px;stroke-dasharray:0,11.25,0,0;"/>
                    </g>
                    <g transform="matrix(1.79751,0,0,1.79751,-389.121,-288.662)">
                        <circle cx="504.776" cy="366.799" r="3.865" style="fill:rgb(243,110,35);"/>
                    </g>
                    <g transform="matrix(1.402,0,0,1.402,-207.997,-149.955)">
                        <g transform="matrix(1,0,0,0.771459,0.544678,85.3884)">
                            <path d="M516.676,367.704L519.636,370.664" style="fill:white;stroke:white;stroke-width:1.56px;stroke-linejoin:round;"/>
                        </g>
                        <g transform="matrix(1,0,0,-0.771459,0.544678,657.292)">
                            <path d="M516.676,367.704L519.636,370.664" style="fill:white;stroke:white;stroke-width:1.56px;stroke-linejoin:round;"/>
                        </g>
                    </g>
                </g>
                <g transform="matrix(2.59525,-2.46519e-32,2.46519e-32,2.59525,-409.297,-469.417)">
                    <g transform="matrix(0.38532,3.6601e-33,-3.6601e-33,0.38532,158.481,197.001)">
                        <path d="M860.588,450.813L948.116,450.813" style="fill:none;stroke:rgb(253,152,63);stroke-width:7.5px;stroke-dasharray:0,11.25,0,0;"/>
                    </g>
                    <g transform="matrix(1.79751,0,0,1.79751,-389.121,-288.662)">
                        <circle cx="504.776" cy="366.799" r="3.865" style="fill:rgb(243,110,35);"/>
                    </g>
                    <g transform="matrix(1.402,0,0,1.402,-207.997,-149.955)">
                        <g transform="matrix(1,0,0,0.771459,0.544678,85.3884)">
                            <path d="M516.676,367.704L519.636,370.664" style="fill:white;stroke:white;stroke-width:1.56px;stroke-linejoin:round;"/>
                        </g>
                        <g transform="matrix(1,0,0,-0.771459,0.544678,657.292)">
                            <path d="M516.676,367.704L519.636,370.664" style="fill:white;stroke:white;stroke-width:1.56px;stroke-linejoin:round;"/>
                        </g>
                    </g>
                </g>
            </g>
            <g transform="matrix(2.59525,-2.46519e-32,2.46519e-32,2.59525,-364.096,-275.863)">
                <g transform="matrix(0.38532,3.6601e-33,-3.6601e-33,0.38532,157.71,197.001)">
                    <path d="M641.386,450.813L948.116,450.813" style="fill:none;stroke:rgb(253,152,63);stroke-width:7.5px;stroke-dasharray:0,11.25,0,0;"/>
                </g>
                <g transform="matrix(1.79751,0,0,1.79751,-389.891,-288.662)">
                    <circle cx="504.776" cy="366.799" r="3.865" style="fill:rgb(243,110,35);"/>
                </g>
                <g transform="matrix(1.402,0,0,1.402,-207.997,-149.955)">
                    <g transform="matrix(1,-1.36846e-48,0,0.771459,-0.00499341,85.3884)">
                        <path d="M516.676,367.704L519.636,370.664" style="fill:white;stroke:white;stroke-width:1.56px;stroke-linejoin:round;"/>
                    </g>
                    <g transform="matrix(1,-1.36846e-48,0,-0.771459,-0.00499341,657.292)">
                        <path d="M516.676,367.704L519.636,370.664" style="fill:white;stroke:white;stroke-width:1.56px;stroke-linejoin:round;"/>
                    </g>
                </g>
            </g>
            <g transform="matrix(0.929214,0,0,0.929214,40.3847,20.9221)">
                <g transform="matrix(1.58913e-16,-2.59525,2.59525,1.58913e-16,-391.447,1593.67)">
                    <g transform="matrix(1.79751,0,0,1.79751,-389.121,-288.662)">
                        <circle cx="504.776" cy="366.799" r="3.865" style="fill:rgb(243,110,35);"/>
                    </g>
                    <g transform="matrix(1.402,0,0,1.402,-207.997,-149.955)">
                        <g transform="matrix(1,0,0,0.771459,0.544678,85.3884)">
                            <path d="M516.676,367.704L519.636,370.664" style="fill:white;stroke:white;stroke-width:1.56px;stroke-linejoin:round;"/>
                        </g>
                        <g transform="matrix(1,0,0,-0.771459,0.544678,657.292)">
                            <path d="M516.676,367.704L519.636,370.664" style="fill:white;stroke:white;stroke-width:1.56px;stroke-linejoin:round;"/>
                        </g>
                    </g>
                </g>
                <g transform="matrix(1.58913e-16,2.59525,2.59525,-1.58913e-16,-391.447,-1002.54)">
                    <g transform="matrix(1.79751,0,0,1.79751,-389.121,-288.662)">
                        <circle cx="504.776" cy="366.799" r="3.865" style="fill:rgb(243,110,35);"/>
                    </g>
                    <g transform="matrix(1.402,0,0,1.402,-207.997,-149.955)">
                        <g transform="matrix(1,0,0,0.771459,0.544678,85.3884)">
                            <path d="M516.676,367.704L519.636,370.664" style="fill:white;stroke:white;stroke-width:1.56px;stroke-linejoin:round;"/>
                        </g>
                        <g transform="matrix(1,0,0,-0.771459,0.544678,657.292)">
                            <path d="M516.676,367.704L519.636,370.664" style="fill:white;stroke:white;stroke-width:1.56px;stroke-linejoin:round;"/>
                        </g>
                    </g>
                </g>
            </g>
        </g>
        <g transform="matrix(1,0,0,1,-215.111,5.69445)">
            <text x="678.122px" y="685.687px" style="font-family:'Nunito-Regular', 'Nunito';font-size:20px;fill:rgb(103,103,108);">C<tspan x="691.462px 702.682px 712.182px " y="685.687px 685.687px 685.687px ">ust</tspan>om rules &amp; patterns</text>
        </g>
        <g>
            <path d="M651.097,114.727C648.466,115.231 645.742,115.496 642.953,115.496C620.565,115.496 602.388,98.439 602.388,77.43C602.388,56.421 620.565,39.364 642.953,39.364C663.693,39.364 680.819,54.001 683.229,72.858C696.824,75.483 707.104,87.457 707.104,101.814C707.104,104.17 706.828,106.461 706.305,108.658C722.129,109.175 734.818,122.184 734.818,138.133C734.818,148.047 729.915,156.825 722.404,162.173C734.081,166.099 742.501,177.141 742.501,190.134C742.501,206.411 729.287,219.625 713.01,219.625C696.734,219.625 683.519,206.411 683.519,190.134C683.519,180.22 688.422,171.442 695.933,166.094C684.256,162.168 675.836,151.126 675.836,138.133C675.836,135.777 676.112,133.485 676.635,131.289C665.405,130.922 655.754,124.263 651.097,114.727ZM494.938,62.299C497.107,42.816 514.351,27.619 535.274,27.619C557.662,27.619 575.839,45.021 575.839,66.455C575.839,87.889 557.662,105.291 535.274,105.291C530.604,105.291 526.118,104.534 521.942,103.142C519.787,119.007 507.207,131.835 490.859,135.38C488.74,151.104 476.782,163.893 461.095,167.898C461.939,171.026 462.39,174.314 462.39,177.707C462.39,198.462 445.539,215.313 424.784,215.313C404.029,215.313 387.178,198.462 387.178,177.707C387.178,161.43 397.542,147.555 412.025,142.325C410.751,138.558 410.063,134.54 410.063,130.369C410.063,111.904 423.553,96.431 441.605,92.499C444.581,74.234 461.412,60.224 481.703,60.224C486.336,60.224 490.789,60.954 494.938,62.299Z" style="fill:rgb(214,222,225);"/>
            <path d="M577.717,65.497L649.502,122.276L714.899,191.422L419.784,187.975L479.961,136.709L528,92.989L519.761,100.488L533.51,90.024L528,92.989L530.556,93.605L534.605,90.156L533.51,90.024L536.905,88.197L590.161,65.497L590.161,54.286L577.717,65.497Z" style="fill:rgb(214,222,225);stroke:rgb(214,222,225);stroke-width:55px;stroke-linejoin:round;"/>
        </g>
        <g>
            <g id="Bot" transform="matrix(0.740697,0,0,0.740697,61.7567,-27.0054)">
                <g transform="matrix(1,0,0,1,0,398.76)">
                    <path d="M36.739,8.56C38.45,8.56 39.843,9.952 39.843,11.659C39.843,13.37 38.45,14.766 36.739,14.766C35.028,14.766 33.636,13.37 33.636,11.659C33.636,9.952 35.028,8.56 36.739,8.56ZM78.807,11.659C78.807,9.952 80.199,8.56 81.91,8.56C83.616,8.56 85.009,9.952 85.009,11.659C85.009,13.37 83.616,14.766 81.91,14.766C80.199,14.766 78.807,13.37 78.807,11.659ZM10.85,43.631C10.85,41.781 12.353,40.278 14.204,40.278L104.441,40.278C106.292,40.278 107.795,41.781 107.795,43.631L107.795,111.983C107.795,113.833 106.292,115.336 104.441,115.336L14.204,115.336C12.353,115.336 10.85,113.833 10.85,111.983L10.85,43.631ZM106.512,29.991C113.167,29.991 118.579,35.412 118.579,42.063L118.579,113.551C118.579,120.202 113.167,125.614 106.512,125.614L12.133,125.614C5.482,125.614 0.066,120.202 0.066,113.551L0.066,42.063C0.066,35.412 5.482,29.991 12.133,29.991L41.091,29.991L37.552,23.29C37.283,23.313 37.013,23.326 36.739,23.326C30.308,23.326 25.076,18.094 25.076,11.659C25.076,5.232 30.308,0 36.739,0C43.17,0 48.402,5.232 48.402,11.659C48.402,14.591 47.271,17.407 45.259,19.558L50.769,29.991L67.88,29.991L73.386,19.563C71.374,17.407 70.242,14.591 70.242,11.659C70.242,5.232 75.474,0 81.91,0C88.337,0 93.569,5.232 93.569,11.659C93.569,18.094 88.337,23.326 81.91,23.326C81.636,23.326 81.366,23.313 81.097,23.29L77.558,29.991L106.512,29.991ZM80.134,129.961C82.501,129.961 84.431,131.877 84.431,134.228C84.431,136.582 82.501,138.494 80.134,138.494L38.429,138.494C36.061,138.494 34.132,136.582 34.132,134.228C34.132,131.877 36.061,129.961 38.429,129.961L80.134,129.961ZM80.134,141.189C82.501,141.189 84.431,143.105 84.431,145.455C84.431,147.81 82.501,149.722 80.134,149.722L38.429,149.722C36.061,149.722 34.132,147.81 34.132,145.455C34.132,143.105 36.061,141.189 38.429,141.189L80.134,141.189Z" style="fill:rgb(100,101,105);"/>
                </g>
                <g transform="matrix(1,0,0,1,0,386.805)">
                    <path d="M34.544,80.841C34.544,77.6 37.179,74.966 40.419,74.966C43.66,74.966 46.294,77.6 46.294,80.841C46.294,84.076 43.66,86.706 40.419,86.706C37.179,86.706 34.544,84.076 34.544,80.841ZM40.419,95.21C48.345,95.21 54.79,88.76 54.79,80.841C54.79,72.916 48.345,66.467 40.419,66.467C32.498,66.467 26.048,72.916 26.048,80.841C26.048,88.76 32.498,95.21 40.419,95.21Z" style="fill:rgb(100,101,105);"/>
                </g>
                <g transform="matrix(1,0,0,1,0,386.805)">
                    <path d="M72.269,80.841C72.269,77.6 74.903,74.966 78.144,74.966C81.384,74.966 84.019,77.6 84.019,80.841C84.019,84.076 81.384,86.706 78.144,86.706C74.903,86.706 72.269,84.076 72.269,80.841ZM78.144,95.21C86.069,95.21 92.515,88.76 92.515,80.841C92.515,72.916 86.069,66.467 78.144,66.467C70.223,66.467 63.772,72.916 63.772,80.841C63.772,88.76 70.223,95.21 78.144,95.21Z" style="fill:rgb(100,101,105);"/>
                </g>
                <g transform="matrix(1,0,0,1,0,452.823)">
                    <path d="M27.637,52.096L91.375,52.096C93.739,52.096 95.659,50.183 95.659,47.832C95.659,45.475 93.739,43.563 91.375,43.563L27.637,43.563C25.277,43.563 23.353,45.475 23.353,47.832C23.353,50.183 25.277,52.096 27.637,52.096Z" style="fill:rgb(100,101,105);"/>
                </g>
            </g>
            <g id="User" transform="matrix(0.817264,0,0,0.817264,60.747,438.346)">
                <path d="M98.179,114.687C87.689,121.266 63.51,122.312 55.102,122.194L55.014,122.19L54.93,122.19C46.522,122.309 22.369,121.131 11.755,114.498C13.26,92.355 31.783,71.995 54.93,71.995C78.097,71.995 96.755,92.368 98.243,114.528C98.25,114.599 98.212,114.667 98.179,114.687ZM54.997,11.799C69.294,11.799 80.92,23.474 80.92,37.823C80.92,52.172 69.294,63.846 54.997,63.846C40.704,63.846 29.078,52.172 29.078,37.823C29.078,23.474 40.704,11.799 54.997,11.799ZM71.726,69.05C81.048,62.157 87.109,51.068 87.109,38.581C87.109,17.725 75.773,4.34 54.997,4.34C34.225,4.34 21.651,16.966 21.651,37.823C21.651,50.31 27.711,61.402 37.037,68.292C18.72,75.981 5.765,92.971 4.355,113.692C4.321,114.189 4.369,114.683 4.344,115.172C4.142,119.161 4.276,119.451 4.514,119.597C19.85,129.02 51.534,128.919 53.817,128.881C54.023,128.885 54.461,128.888 55.102,128.888C61.645,128.888 89.264,128.353 103.245,119.584C104.156,119.012 104.702,118.916 104.408,114.498L104.408,114.494C103.015,93.75 90.054,76.739 71.726,69.05Z" style="fill:rgb(100,101,105);"/>
            </g>
            <g id="Hacker" transform="matrix(1,0,0,1,0,-1)">
                <g transform="matrix(0.66737,0,0,0.66737,50.1087,575.409)">
                    <g>
                        <clipPath id="_clip2">
                            <path d="M141.277,132.97L25.31,132.97C16.885,132.97 10.03,126.135 10.03,117.735C10.03,109.335 16.885,102.5 25.31,102.5L31.94,102.5L31.108,107.33C30.37,112.11 31.76,116.96 34.919,120.63C38.084,124.305 42.677,126.41 47.527,126.41L119.066,126.41C123.921,126.41 128.519,124.3 131.674,120.625C134.833,116.955 136.222,112.105 135.465,107.24L134.648,102.5L141.277,102.5C149.703,102.5 156.558,109.335 156.558,117.735C156.558,126.135 149.703,132.97 141.277,132.97ZM41.002,108.935L48.289,66.725C49.232,60.655 54.377,56.25 60.531,56.25C61.624,56.25 64.934,56.72 72,61.05C79.046,65.375 87.843,65.46 94.959,61.265C103.364,56.31 105.957,56.25 106.062,56.25C112.416,56.25 117.331,60.46 118.314,66.815L125.571,108.85C125.866,110.775 125.33,112.645 124.061,114.115C122.792,115.59 121.017,116.405 119.066,116.405L47.527,116.405C45.576,116.405 43.801,115.59 42.532,114.115C41.263,112.645 40.721,110.77 41.002,108.935ZM141.277,92.5L132.923,92.5L128.213,65.2C126.493,54.045 117.381,46.25 106.062,46.25C103.765,46.25 99.588,46.915 89.859,52.66C85.962,54.955 81.132,54.91 77.251,52.535C70.36,48.305 64.889,46.25 60.531,46.25C49.392,46.25 40.074,54.22 38.394,65.115L33.665,92.5L25.31,92.5C11.353,92.5 -0.001,103.82 -0.001,117.735C-0.001,131.65 11.353,142.97 25.31,142.97L141.277,142.97C155.234,142.97 166.588,131.65 166.588,117.735C166.588,103.82 155.234,92.5 141.277,92.5Z"/>
                        </clipPath>
                        <g clip-path="url(#_clip2)">
                            <rect x="0" y="46.22" width="167" height="97" style="fill:rgb(100,101,105);"/>
                        </g>
                    </g>
                </g>
                <g transform="matrix(0.66737,0,0,0.66737,50.1087,671.866)">
                    <g>
                        <clipPath id="_clip3">
                            <path d="M133.366,12.749C133.366,24.569 124.148,34.409 112.809,34.679C102.819,35.039 93.898,28.019 91.726,18.264C90.864,14.379 87.318,11.559 83.296,11.559C79.214,11.559 75.748,14.314 74.871,18.259C72.689,28.019 63.878,34.944 53.778,34.679C42.444,34.409 33.226,24.569 33.226,12.749L33.226,10.779C33.226,10.354 33.577,9.999 34.008,9.999L132.583,9.999C133.015,9.999 133.366,10.354 133.366,10.779L133.366,12.749ZM132.583,-0.001L34.008,-0.001C28.045,-0.001 23.196,4.839 23.196,10.779L23.196,12.749C23.196,29.954 36.807,44.279 53.537,44.679C66.882,44.899 78.617,36.899 83.296,24.909C87.88,36.674 99.374,44.689 112.298,44.689C112.549,44.689 112.799,44.684 113.055,44.679C129.785,44.279 143.396,29.954 143.396,12.749L143.396,10.779C143.396,4.839 138.546,-0.001 132.583,-0.001Z"/>
                        </clipPath>
                        <g clip-path="url(#_clip3)">
                            <rect x="23" y="-0.313" width="121" height="45" style="fill:rgb(100,101,105);"/>
                        </g>
                    </g>
                </g>
            </g>
            <g>
                <g transform="matrix(1,0,0,1,-676.538,-275.822)">
                    <text x="762.846px" y="685.687px" style="font-family:'Nunito-SemiBold', 'Nunito';font-weight:600;font-size:24px;fill:rgb(103,103,108);">Bot</text>
                </g>
                <g transform="matrix(1,0,0,1,-676.538,-108.727)">
                    <text x="756.702px" y="685.687px" style="font-family:'Nunito-SemiBold', 'Nunito';font-weight:600;font-size:24px;fill:rgb(103,103,108);">User</text>
                </g>
                <g transform="matrix(1,0,0,1,-676.538,45.1101)">
                    <text x="743.754px" y="685.687px" style="font-family:'Nunito-SemiBold', 'Nunito';font-weight:600;font-size:24px;fill:rgb(103,103,108);">Hack<tspan x="798.69px " y="685.687px ">e</tspan>r</text>
                </g>
            </g>
        </g>
        <g>
            <g>
                <g id="DoS-Protection" serif:id="DoS Protection" transform="matrix(1,0,0,1,0,-1.16066)">
                    <path d="M1145.31,404.987L934.116,404.987C932.267,404.987 930.766,403.487 930.766,401.638L930.766,338.322C930.766,336.473 932.267,334.972 934.116,334.972L1145.31,334.972C1147.16,334.972 1148.66,336.473 1148.66,338.322L1148.66,401.638C1148.66,403.486 1147.16,404.987 1145.31,404.987Z" style="fill:rgb(255,108,16);"/>
                </g>
                <g id="Data-protection" serif:id="Data protection" transform="matrix(1,0,0,1,0,148.62)">
                    <path d="M1145.31,110.799C1147.16,110.8 1148.66,112.3 1148.66,114.149L1148.66,177.465C1148.66,179.314 1147.16,180.815 1145.31,180.815L934.116,180.815C932.267,180.815 930.766,179.314 930.766,177.465L930.766,114.149C930.766,112.3 932.267,110.8 934.116,110.799L1145.31,110.799Z" style="fill:rgb(255,108,16);"/>
                </g>
                <g id="Application-Load-Balancing" serif:id="Application Load Balancing" transform="matrix(1,0,0,1,0,148.62)">
                    <path d="M1145.31,36.7C1147.16,36.701 1148.66,38.202 1148.66,40.05L1148.66,103.366C1148.66,105.215 1147.16,106.716 1145.31,106.716L934.116,106.716C932.267,106.716 930.766,105.215 930.766,103.366L930.766,40.05C930.766,38.202 932.267,36.701 934.116,36.7L1145.31,36.7Z" style="fill:rgb(255,108,16);"/>
                </g>
                <g id="Anti-evasion-protection" serif:id="Anti-evasion protection" transform="matrix(1,0,0,1,0,1)">
                    <path d="M1145.31,110.799C1147.16,110.8 1148.66,112.3 1148.66,114.149L1148.66,177.465C1148.66,179.314 1147.16,180.815 1145.31,180.815L934.116,180.815C932.267,180.815 930.766,179.314 930.766,177.465L930.766,114.149C930.766,112.3 932.267,110.8 934.116,110.799L1145.31,110.799Z" style="fill:rgb(255,108,16);"/>
                </g>
                <g id="Known-web-theat-protection" serif:id="Known web theat protection" transform="matrix(1,0,0,1,0,1)">
                    <path d="M1145.31,36.7C1147.16,36.701 1148.66,38.202 1148.66,40.05L1148.66,103.366C1148.66,105.215 1147.16,106.716 1145.31,106.716L934.116,106.716C932.267,106.716 930.766,105.215 930.766,103.366L930.766,40.05C930.766,38.202 932.267,36.701 934.116,36.7L1145.31,36.7Z" style="fill:rgb(255,108,16);"/>
                </g>
            </g>
            <g>
                <g transform="matrix(1,0,0,1,258.493,-618.266)">
                    <text x="728.382px" y="685.687px" style="font-family:'Nunito-Regular', 'Nunito';font-size:20px;fill:white;">Kno<tspan x="763.282px " y="685.687px ">w</tspan>n w<tspan x="813.362px " y="685.687px ">e</tspan>b</text>
                    <text x="705.462px" y="705.687px" style="font-family:'Nunito-Regular', 'Nunito';font-size:20px;fill:white;">thr<tspan x="730.482px " y="705.687px ">e</tspan>at pr<tspan x="782.082px 792.502px 802.662px " y="705.687px 705.687px 705.687px ">eve</tspan>ntion</text>
                </g>
                <g transform="matrix(1,0,0,1,258.193,-543.62)">
                    <text x="724.982px" y="685.687px" style="font-family:'Nunito-Regular', 'Nunito';font-size:20px;fill:white;">Anti-<tspan x="771.122px 781.542px 791.642px " y="685.687px 685.687px 685.687px ">eva</tspan>sion</text>
                    <text x="736.752px" y="705.687px" style="font-family:'Nunito-Regular', 'Nunito';font-size:20px;fill:white;">pr<tspan x="755.252px " y="705.687px ">o</tspan>tection</text>
                </g>
                <g transform="matrix(1,0,0,1,258.213,-470.119)">
                    <text x="709.802px" y="685.687px" style="font-family:'Nunito-Regular', 'Nunito';font-size:20px;fill:white;">Application load</text>
                    <text x="738.892px" y="705.687px" style="font-family:'Nunito-Regular', 'Nunito';font-size:20px;fill:white;">balancing</text>
                </g>
                <g transform="matrix(1,0,0,1,257.733,-395.953)">
                    <text x="760.572px" y="685.687px" style="font-family:'Nunito-Regular', 'Nunito';font-size:20px;fill:white;">Data</text>
                    <text x="736.752px" y="705.687px" style="font-family:'Nunito-Regular', 'Nunito';font-size:20px;fill:white;">pr<tspan x="755.252px " y="705.687px ">o</tspan>tection</text>
                </g>
                <g transform="matrix(1,0,0,1,257.733,-321.666)">
                    <text x="762.852px" y="685.687px" style="font-family:'Nunito-Regular', 'Nunito';font-size:20px;fill:white;">DoS</text>
                    <text x="736.752px" y="705.687px" style="font-family:'Nunito-Regular', 'Nunito';font-size:20px;fill:white;">pr<tspan x="755.252px " y="705.687px ">o</tspan>tection</text>
                </g>
            </g>
        </g>
        <g id="Web-server-s-" serif:id="Web server(s)">
            <g>
                <g transform="matrix(0.972556,0,0,0.876753,28.6348,57.4394)">
                    <path d="M1124.83,477.561C1124.83,471.936 1120.72,467.369 1115.64,467.369L963.105,467.369C958.034,467.369 953.917,471.936 953.917,477.561L953.917,488.977C953.917,494.602 958.034,499.169 963.105,499.169L1115.64,499.169C1120.72,499.169 1124.83,494.602 1124.83,488.977L1124.83,477.561Z" style="fill:none;stroke:rgb(100,101,105);stroke-width:6.48px;stroke-linejoin:round;"/>
                </g>
                <g transform="matrix(0.0576235,0,0,0.0459995,1008.68,458.917)">
                    <path d="M1124.83,477.561C1124.83,471.936 1121.19,467.369 1116.7,467.369L962.053,467.369C957.563,467.369 953.917,471.936 953.917,477.561L953.917,488.977C953.917,494.602 957.563,499.169 962.053,499.169L1116.7,499.169C1121.19,499.169 1124.83,494.602 1124.83,488.977L1124.83,477.561Z" style="fill:none;stroke:rgb(100,101,105);stroke-width:115.08px;stroke-linejoin:round;"/>
                </g>
                <g transform="matrix(0.0576235,0,0,0.0459995,1037.59,458.917)">
                    <path d="M1124.83,477.561C1124.83,471.936 1121.19,467.369 1116.7,467.369L962.053,467.369C957.563,467.369 953.917,471.936 953.917,477.561L953.917,488.977C953.917,494.602 957.563,499.169 962.053,499.169L1116.7,499.169C1121.19,499.169 1124.83,494.602 1124.83,488.977L1124.83,477.561Z" style="fill:none;stroke:rgb(100,101,105);stroke-width:115.08px;stroke-linejoin:round;"/>
                </g>
            </g>
            <g transform="matrix(1,0,0,1,0,29.9942)">
                <g transform="matrix(0.972556,0,0,0.876753,28.6348,57.4394)">
                    <path d="M1124.83,477.561C1124.83,471.936 1120.72,467.369 1115.64,467.369L963.105,467.369C958.034,467.369 953.917,471.936 953.917,477.561L953.917,488.977C953.917,494.602 958.034,499.169 963.105,499.169L1115.64,499.169C1120.72,499.169 1124.83,494.602 1124.83,488.977L1124.83,477.561Z" style="fill:none;stroke:rgb(100,101,105);stroke-width:6.48px;stroke-linejoin:round;"/>
                </g>
                <g transform="matrix(0.0576235,0,0,0.0459995,1008.68,458.917)">
                    <path d="M1124.83,477.561C1124.83,471.936 1121.19,467.369 1116.7,467.369L962.053,467.369C957.563,467.369 953.917,471.936 953.917,477.561L953.917,488.977C953.917,494.602 957.563,499.169 962.053,499.169L1116.7,499.169C1121.19,499.169 1124.83,494.602 1124.83,488.977L1124.83,477.561Z" style="fill:none;stroke:rgb(100,101,105);stroke-width:115.08px;stroke-linejoin:round;"/>
                </g>
                <g transform="matrix(0.0576235,0,0,0.0459995,1037.59,458.917)">
                    <path d="M1124.83,477.561C1124.83,471.936 1121.19,467.369 1116.7,467.369L962.053,467.369C957.563,467.369 953.917,471.936 953.917,477.561L953.917,488.977C953.917,494.602 957.563,499.169 962.053,499.169L1116.7,499.169C1121.19,499.169 1124.83,494.602 1124.83,488.977L1124.83,477.561Z" style="fill:none;stroke:rgb(100,101,105);stroke-width:115.08px;stroke-linejoin:round;"/>
                </g>
            </g>
            <g transform="matrix(1,0,0,1,0,58.5803)">
                <g transform="matrix(0.972556,0,0,0.876753,28.6348,57.4394)">
                    <path d="M1124.83,477.561C1124.83,471.936 1120.72,467.369 1115.64,467.369L963.105,467.369C958.034,467.369 953.917,471.936 953.917,477.561L953.917,488.977C953.917,494.602 958.034,499.169 963.105,499.169L1115.64,499.169C1120.72,499.169 1124.83,494.602 1124.83,488.977L1124.83,477.561Z" style="fill:none;stroke:rgb(100,101,105);stroke-width:6.48px;stroke-linejoin:round;"/>
                </g>
                <g transform="matrix(0.0576235,0,0,0.0459995,1008.68,458.917)">
                    <path d="M1124.83,477.561C1124.83,471.936 1121.19,467.369 1116.7,467.369L962.053,467.369C957.563,467.369 953.917,471.936 953.917,477.561L953.917,488.977C953.917,494.602 957.563,499.169 962.053,499.169L1116.7,499.169C1121.19,499.169 1124.83,494.602 1124.83,488.977L1124.83,477.561Z" style="fill:none;stroke:rgb(100,101,105);stroke-width:115.08px;stroke-linejoin:round;"/>
                </g>
                <g transform="matrix(0.0576235,0,0,0.0459995,1037.59,458.917)">
                    <path d="M1124.83,477.561C1124.83,471.936 1121.19,467.369 1116.7,467.369L962.053,467.369C957.563,467.369 953.917,471.936 953.917,477.561L953.917,488.977C953.917,494.602 957.563,499.169 962.053,499.169L1116.7,499.169C1121.19,499.169 1124.83,494.602 1124.83,488.977L1124.83,477.561Z" style="fill:none;stroke:rgb(100,101,105);stroke-width:115.08px;stroke-linejoin:round;"/>
                </g>
            </g>
            <path d="M957.229,472.215C957.229,472.215 980.97,430.898 984.62,424.546C984.91,424.042 985.447,423.731 986.029,423.731C996.01,423.731 1082.27,423.731 1092.18,423.731C1092.76,423.731 1093.29,424.035 1093.58,424.53C1097.26,430.763 1121.22,471.36 1121.22,471.36" style="fill:none;stroke:rgb(100,101,105);stroke-width:6px;stroke-linejoin:round;"/>
        </g>
        <g id="Shield">
            <g transform="matrix(0.653086,0,0,-0.647422,1003.57,730.791)">
                <path d="M55,0C55,0 110,21.059 110,68.008L110,119.005C110,119.005 85.384,136 55,136C24.621,136 0,119.005 0,119.005L0,68.008C0,21.059 55,0 55,0Z" style="fill:none;stroke:rgb(100,101,105);stroke-width:7.69px;stroke-linecap:butt;stroke-linejoin:round;stroke-miterlimit:10;"/>
            </g>
            <g transform="matrix(0.653086,0,0,-0.647422,1021.2,697.125)">
                <path d="M63,42L42.011,21L20.989,0L0,21" style="fill:none;stroke:rgb(100,101,105);stroke-width:7.69px;stroke-linecap:butt;stroke-miterlimit:10;"/>
            </g>
        </g>
        <g>
            <g>
                <g id="SonicWall-Web-Application-Firewallv" serif:id="SonicWall Web Application Firewallv" transform="matrix(2.9569,0,0,3.75577,-2504.18,222.261)">
                    <path d="M1145.31,36.7C1147.16,36.701 1148.66,38.202 1148.66,40.05L1148.66,103.366C1148.66,105.215 1147.16,106.716 1145.31,106.716L934.116,106.716C932.267,106.716 930.766,105.215 930.766,103.366L930.766,40.05C930.766,38.202 932.267,36.701 934.116,36.7L1145.31,36.7Z" style="fill:rgb(214,222,225);"/>
                </g>
                <g transform="matrix(1.02897,0,0,1.02897,-234.069,-306.691)">
                    <text x="571.206px" y="685.687px" style="font-family:'Nunito-SemiBold', 'Nunito';font-weight:600;font-size:26px;fill:rgb(103,103,108);">SonicW<tspan x="663.246px " y="685.687px ">a</tspan>ll W<tspan x="723.852px " y="685.687px ">e</tspan>b Application Fir<tspan x="930.812px 944.384px 966.224px " y="685.687px 685.687px 685.687px ">ewa</tspan>ll</text>
                </g>
            </g>
            <g>
                <g id="HTTP-SSL-deep-packet-inspection" serif:id="HTTP/SSL deep packet inspection" transform="matrix(1.01774,0,0,1.01774,-8.74455,-10.0902)">
                    <circle cx="352.215" cy="512.327" r="91.202" style="fill:rgb(253,152,63);fill-opacity:0.800733;"/>
                </g>
                <g id="Application-delivery-controller" serif:id="Application delivery controller" transform="matrix(1.01774,0,0,1.01774,137.296,-10.0902)">
                    <circle cx="352.215" cy="512.327" r="91.202" style="fill:rgb(253,152,63);fill-opacity:0.800733;"/>
                </g>
                <g id="Signature-base-exploit-prevention" serif:id="Signature-base exploit prevention" transform="matrix(1.01774,0,0,1.01774,283.851,-10.0902)">
                    <circle cx="352.215" cy="512.327" r="91.202" style="fill:rgb(253,152,63);fill-opacity:0.800733;"/>
                </g>
                <g id="Web-application-profiling-engine" serif:id="Web application profiling engine" transform="matrix(1.01774,0,0,1.01774,432.131,-10.0902)">
                    <circle cx="352.215" cy="512.327" r="91.202" style="fill:rgb(253,152,63);fill-opacity:0.800733;"/>
                </g>
            </g>
        </g>
        <g transform="matrix(1,0,0,1,0,4.77345)">
            <g transform="matrix(1,0,0,1,-381.354,-195.993)">
                <text x="686.372px" y="685.687px" style="font-family:'Nunito-Regular', 'Nunito';font-size:20px;fill:white;">HTTP<tspan x="737.172px " y="685.687px ">/</tspan>SSL</text>
                <text x="678.122px" y="707.687px" style="font-family:'Nunito-Regular', 'Nunito';font-size:20px;fill:white;">deep pack<tspan x="769.282px " y="707.687px ">e</tspan>t</text>
                <text x="686.702px" y="729.687px" style="font-family:'Nunito-Regular', 'Nunito';font-size:20px;fill:white;">inspection</text>
            </g>
            <g transform="matrix(1,0,0,1,-233.755,-194.993)">
                <text x="681.752px" y="685.687px" style="font-family:'Nunito-Regular', 'Nunito';font-size:20px;fill:white;">Application</text>
                <text x="697.292px" y="707.687px" style="font-family:'Nunito-Regular', 'Nunito';font-size:20px;fill:white;">deliv<tspan x="738.912px 749.452px 757.112px " y="707.687px 707.687px 707.687px ">ery</tspan></text>
                <text x="690.502px" y="729.687px" style="font-family:'Nunito-Regular', 'Nunito';font-size:20px;fill:white;">contr<tspan x="736.202px " y="729.687px ">o</tspan>ller</text>
            </g>
            <g transform="matrix(1,0,0,1,-87.473,-194.993)">
                <text x="657.932px" y="685.687px" style="font-family:'Nunito-Regular', 'Nunito';font-size:20px;fill:white;">Signatur<tspan x="733.472px 744.232px " y="685.687px 685.687px ">e-</tspan>based</text>
                <text x="702.552px" y="707.687px" style="font-family:'Nunito-Regular', 'Nunito';font-size:20px;fill:white;">e<tspan x="712.952px " y="707.687px ">x</tspan>ploit</text>
                <text x="684.902px" y="729.687px" style="font-family:'Nunito-Regular', 'Nunito';font-size:20px;fill:white;">pr<tspan x="703.402px 713.822px 723.982px " y="729.687px 729.687px 729.687px ">eve</tspan>ntion</text>
            </g>
            <g id="_-Web-application-profiling-" serif:id="(Web¶application¶profiling)" transform="matrix(1,0,0,1,60.0901,-194.993)">
                <text x="710.802px" y="685.687px" style="font-family:'Nunito-Regular', 'Nunito';font-size:20px;fill:white;">W<tspan x="731.702px " y="685.687px ">e</tspan>b</text>
                <text x="683.722px" y="707.687px" style="font-family:'Nunito-Regular', 'Nunito';font-size:20px;fill:white;">application</text>
                <text x="663.122px" y="729.687px" style="font-family:'Nunito-Regular', 'Nunito';font-size:20px;fill:white;">pr<tspan x="681.622px " y="729.687px ">o</tspan>ﬁling engine</text>
            </g>
        </g>
        <g transform="matrix(1,0,0,1,-210.483,-395.696)">
            <text x="678.122px" y="685.687px" style="font-family:'Nunito-Regular', 'Nunito';font-size:20px;fill:rgb(103,103,108);">C<tspan x="691.462px " y="685.687px ">o</tspan>ntent updates based</text>
            <text x="701.122px" y="709.687px" style="font-family:'Nunito-Regular', 'Nunito';font-size:20px;fill:rgb(103,103,108);">on thr<tspan x="753.762px " y="709.687px ">e</tspan>at r<tspan x="793.722px " y="709.687px ">e</tspan>sear<tspan x="841.862px " y="709.687px ">c</tspan>h</text>
        </g>
        <g transform="matrix(1,0,0,1,260.131,-97.3263)">
            <text x="706.386px" y="685.687px" style="font-family:'Nunito-Regular', 'Nunito';font-size:24px;fill:rgb(103,103,108);">W<tspan x="731.466px " y="685.687px ">e</tspan>b ser<tspan x="797.634px 809.826px " y="685.687px 685.687px ">ve</tspan>r(s)</text>
        </g>
        <g transform="matrix(1,0,0,1,256.131,78.525)">
            <text x="709.59px" y="685.687px" style="font-family:'Nunito-Regular', 'Nunito';font-size:24px;fill:rgb(104,104,109);">W<tspan x="734.67px " y="685.687px ">e</tspan>bsite SME</text>
        </g>
    </g>
    <g transform="matrix(0.661143,0,0,0.661143,129.553,-140.655)">
        <g>
            <g transform="matrix(1,0,0,1,78.8539,66.8219)">
                <circle cx="586.34" cy="333.178" r="147.992"/>
                <clipPath id="_clip4">
                    <circle cx="586.34" cy="333.178" r="147.992"/>
                </clipPath>
                <g clip-path="url(#_clip4)">
                    <g transform="matrix(1.70809,0,0,1.70809,367.595,194.74)">
                        <path d="M109.317,24.526L119.057,8.805C118.371,7.854 118.08,6.549 118.339,5.358C110.477,1.375 98.747,4.342 92.585,10.022C93.158,11.108 93.225,12.498 92.758,13.643L104.437,25.112C105.852,24.285 107.709,24.055 109.317,24.526ZM99.664,79.672C101.274,79.672 102.771,80.149 104.022,80.975L118.904,60.024L118.813,59.871L93.07,63.324C92.752,64.981 91.875,66.445 90.636,67.504L98.007,79.85C98.54,79.731 99.098,79.672 99.664,79.672ZM106.357,83.336C107.781,85.557 107.987,88.592 106.85,91L120.62,103.054C120.715,103.009 120.807,102.968 120.908,102.927L120.908,62.86L106.357,83.336ZM104.867,93.615C103.57,94.744 101.894,95.457 100.059,95.543L93.438,114.045C94.47,114.672 95.362,115.509 96.046,116.5L118.239,106.974L118.473,105.515L104.867,93.615ZM96.77,95.012C95.539,94.526 94.462,93.748 93.617,92.758L67.505,103.176C67.498,103.486 67.465,103.787 67.399,104.08L83.298,115.189C85.088,113.472 87.769,112.56 90.351,112.939L96.77,95.012ZM92.053,89.869L91.776,86.729L55.277,74.654C54.844,75.153 54.297,75.553 53.681,75.819C53.993,84.022 55.817,93.754 61.08,99.389C62.748,98.445 64.977,98.778 66.293,100.141L92.053,89.869ZM92.805,83.615C93.359,82.664 94.11,81.84 95.002,81.188L87.737,69.02C84.723,69.805 81.443,68.479 79.78,65.993L57.692,72L92.805,83.615ZM86.911,15.897C86.167,15.537 85.545,14.979 85.115,14.281C76.06,17.381 67.771,27.026 67.034,37.731C69.207,38.604 70.332,41.252 69.388,43.442L81.609,55.975C82.5,55.334 83.538,54.895 84.655,54.701L86.911,15.897ZM84.584,11.028C85.142,8.659 87.716,7.168 90.072,7.914C97.289,0.994 110.947,-2.345 120.217,2.659C125.365,-0.654 129.914,7.893 124.18,10.256L124.18,17.887C127.64,19.309 127.64,24.418 124.18,25.844L124.18,53.744C127.64,55.176 127.64,60.278 124.18,61.707L124.18,102.927C127.64,104.351 127.64,109.461 124.18,110.884L124.18,127.929C127.64,129.351 127.64,134.461 124.18,135.886L124.121,145.884C122.863,151.779 117.727,155.957 112.818,157.802C112.331,161.92 106.664,162.884 104.755,159.33C97.377,159.509 89.013,156.625 85.521,149.902C83.511,149.777 81.88,148.275 81.555,146.33C73.313,143.59 66.42,136.418 62.422,128.195C58.343,128.234 56.646,122.961 59.695,120.525C58.617,115.761 58.636,110.824 60.146,106.168C59.11,105.123 58.65,103.468 59.049,101.99C52.81,95.678 50.76,85.153 50.406,75.838C46.828,74.403 46.941,69.061 50.594,67.781C51.392,58.369 54.059,48.031 61.185,42.387C60.877,40.424 62.003,38.516 63.752,37.772C64.544,25.363 73.984,14.379 84.584,11.028ZM90.47,15.971C90.37,16.01 90.277,16.049 90.177,16.084L87.922,54.895C88.248,54.988 88.56,55.102 88.861,55.243L102.852,34.512C101.215,32.61 100.901,29.662 102.145,27.445L90.47,15.971ZM120.908,25.844C120.542,25.695 120.209,25.496 119.903,25.264L113.555,28.91C114.113,31.053 113.404,33.434 111.871,34.924L120.908,51.35L120.908,25.844ZM118.279,22.432C118.021,20.475 119.163,18.606 120.908,17.887L120.908,12.024L112.345,25.836L118.279,22.432ZM109.006,36.5L105.567,36.34L91.482,57.211C92.166,58.022 92.68,58.987 92.958,60.037L118.378,56.631C118.532,56.039 118.816,55.494 119.19,55.029L109.006,36.5ZM53.859,67.955C54.472,68.254 55.011,68.686 55.422,69.219L78.615,62.912C78.409,61.375 78.727,59.733 79.441,58.428L67.046,45.723C65.695,46.268 64.05,46.047 62.894,45.201C56.807,50.324 54.573,59.584 53.859,67.955ZM97.335,119.506L97.461,122.201L119.244,129.146C119.689,128.615 120.255,128.195 120.908,127.929L120.908,110.884C120.387,110.679 119.923,110.365 119.53,109.98L97.335,119.506ZM96.472,125.308C95.959,126.24 95.273,127.058 94.462,127.728L108.093,153.017C109.6,152.859 111.056,153.523 111.934,154.633C112.166,154.541 112.399,154.447 112.631,154.347C116.451,152.656 119.57,149.672 120.908,145.22L120.908,135.886C119.445,135.287 118.385,133.902 118.253,132.254L96.472,125.308ZM91.587,129.287C90.963,129.48 90.304,129.599 89.619,129.638L87.957,141.886C90.423,143.318 90.789,146.924 88.661,148.82C91.702,154.021 98.502,156.15 104.423,156.062C104.587,155.511 104.861,155 105.215,154.566L91.587,129.287ZM86.386,129.199C83.843,128.33 81.853,126.273 81.069,123.691L66.501,125.129C66.293,125.814 65.921,126.426 65.437,126.918C69.029,134.203 75.089,140.597 82.281,143.125C82.865,142.306 83.718,141.701 84.716,141.441L86.386,129.199ZM80.75,120.439C80.837,119.527 81.069,118.668 81.422,117.865L65.529,106.754L63.18,107.439C61.95,111.39 61.95,115.562 62.841,119.613C64.291,119.767 65.522,120.646 66.179,121.875L80.75,120.439Z" style="fill:url(#_Linear5);"/>
                    </g>
                    <g transform="matrix(1.70809,0,0,1.70809,367.595,194.74)">
                        <path d="M146.807,24.526L137.072,8.805C137.758,7.854 138.051,6.549 137.792,5.358C145.656,1.375 157.384,4.342 163.538,10.022C162.973,11.108 162.9,12.498 163.366,13.643L151.689,25.112C150.272,24.285 148.416,24.055 146.807,24.526ZM156.459,79.672C154.851,79.672 153.36,80.149 152.102,80.975L137.227,60.024L137.312,59.871L163.058,63.324C163.379,64.981 164.258,66.445 165.494,67.504L158.123,79.85C157.59,79.731 157.031,79.672 156.459,79.672ZM149.773,83.336C148.344,85.557 148.137,88.592 149.28,91L135.503,103.054C135.416,103.009 135.317,102.968 135.225,102.927L135.225,62.86L149.773,83.336ZM151.258,93.615C152.562,94.744 154.23,95.457 156.068,95.543L162.695,114.045C161.656,114.672 160.771,115.509 160.086,116.5L137.885,106.974L137.658,105.515L151.258,93.615ZM159.36,95.012C160.592,94.526 161.67,93.748 162.513,92.758L188.625,103.176C188.625,103.486 188.66,103.787 188.725,104.08L172.832,115.189C171.042,113.472 168.361,112.56 165.78,112.939L159.36,95.012ZM164.076,89.869L164.351,86.729L200.854,74.654C201.286,75.153 201.831,75.553 202.452,75.819C202.131,84.022 200.315,93.754 195.054,99.389C193.385,98.445 191.153,98.778 189.836,100.141L164.076,89.869ZM163.325,83.615C162.767,82.664 162.022,81.84 161.129,81.188L168.389,69.02C171.402,69.805 174.688,68.479 176.354,65.993L198.438,72L163.325,83.615ZM169.219,15.897C169.959,15.537 170.582,14.979 171.01,14.281C180.071,17.381 188.354,27.026 189.099,37.731C186.922,38.604 185.791,41.252 186.744,43.442L174.515,55.975C173.631,55.334 172.592,54.895 171.468,54.701L169.219,15.897ZM171.543,11.028C170.988,8.659 168.414,7.168 166.055,7.914C158.842,0.994 145.184,-2.345 135.91,2.659C130.761,-0.654 126.216,7.893 131.943,10.256L131.943,17.887C128.492,19.309 128.492,24.418 131.943,25.844L131.943,53.744C128.492,55.176 128.492,60.278 131.943,61.707L131.943,102.927C128.492,104.351 128.492,109.461 131.943,110.884L131.943,127.929C128.492,129.351 128.492,134.461 131.943,135.886L132.01,145.884C133.268,151.779 138.404,155.957 143.315,157.802C143.799,161.92 149.469,162.884 151.378,159.33C158.755,159.509 167.11,156.625 170.609,149.902C172.612,149.777 174.25,148.275 174.575,146.33C182.811,143.59 189.704,136.418 193.71,128.195C197.785,128.234 199.482,122.961 196.43,120.525C197.515,115.761 197.487,110.824 195.978,106.168C197.021,105.123 197.48,103.468 197.076,101.99C203.322,95.678 205.37,85.153 205.717,75.838C209.303,74.403 209.189,69.061 205.529,67.781C204.738,58.369 202.064,48.031 194.947,42.387C195.246,40.424 194.121,38.516 192.378,37.772C191.58,25.363 182.14,14.379 171.543,11.028ZM165.66,15.971C165.752,16.01 165.854,16.049 165.953,16.084L168.203,54.895C167.882,54.988 167.57,55.102 167.271,55.243L153.273,34.512C154.91,32.61 155.229,29.662 153.983,27.445L165.66,15.971ZM135.225,25.844C135.584,25.695 135.924,25.496 136.222,25.264L142.574,28.91C142.016,31.053 142.729,33.434 144.258,34.924L135.225,51.35L135.225,25.844ZM137.852,22.432C138.111,20.475 136.966,18.606 135.225,17.887L135.225,12.024L143.779,25.836L137.852,22.432ZM147.125,36.5L150.559,36.34L164.648,57.211C163.963,58.022 163.453,58.987 163.172,60.037L137.751,56.631C137.594,56.039 137.312,55.494 136.94,55.029L147.125,36.5ZM202.27,67.955C201.652,68.254 201.12,68.686 200.707,69.219L177.508,62.912C177.715,61.375 177.402,59.733 176.686,58.428L189.085,45.723C190.436,46.268 192.077,46.047 193.229,45.201C199.317,50.324 201.553,59.584 202.27,67.955ZM158.795,119.506L158.662,122.201L136.881,129.146C136.441,128.615 135.869,128.195 135.225,127.929L135.225,110.884C135.741,110.679 136.208,110.365 136.601,109.98L158.795,119.506ZM159.654,125.308C160.172,126.24 160.851,127.058 161.663,127.728L148.038,153.017C146.533,152.859 145.078,153.523 144.199,154.633C143.966,154.541 143.732,154.447 143.501,154.347C139.682,152.656 136.562,149.672 135.225,145.22L135.225,135.886C136.688,135.287 137.744,133.902 137.871,132.254L159.654,125.308ZM164.543,129.287C165.168,129.48 165.828,129.599 166.505,129.638L168.176,141.886C165.707,143.318 165.342,146.924 167.47,148.82C164.43,154.021 157.631,156.15 151.711,156.062C151.542,155.511 151.27,155 150.912,154.566L164.543,129.287ZM169.746,129.199C172.287,128.33 174.275,126.273 175.054,123.691L189.63,125.129C189.829,125.814 190.202,126.426 190.696,126.918C187.104,134.203 181.043,140.597 173.844,143.125C173.264,142.306 172.413,141.701 171.416,141.441L169.746,129.199ZM175.373,120.439C175.286,119.527 175.061,118.668 174.702,117.865L190.602,106.754L192.95,107.439C194.174,111.39 194.174,115.562 193.289,119.613C191.84,119.767 190.602,120.646 189.949,121.875L175.373,120.439Z" style="fill:url(#_Linear6);"/>
                    </g>
                </g>
                <circle cx="586.34" cy="333.178" r="147.992" style="fill:none;stroke:black;stroke-width:8.32px;stroke-linejoin:round;"/>
            </g>
            <g transform="matrix(1.04149,0,0,1.04149,-27.5985,-19.7089)">
                <circle cx="665.194" cy="402.728" r="153.081" style="fill:none;stroke:black;stroke-width:8.71px;stroke-linejoin:round;"/>
            </g>
            <g transform="matrix(0.982832,0,0,1.2424,59.8422,-64.1721)">
                <path d="M763.047,339.91L468.947,339.91C462.751,365.844 465.457,389.094 470.309,411.697L761.703,411.697C767.695,386.979 768.001,363.07 763.047,339.91Z" style="fill-opacity:0.5;"/>
            </g>
        </g>
        <g>
            <g transform="matrix(3.71533e-17,0.606759,-0.606759,3.71533e-17,845.613,-8.91965)">
                <g transform="matrix(1,0,0,1,0.952245,7.60043)">
                    <path d="M629.342,520.535L622.214,515.247L622.214,506.952" style="fill:none;stroke:white;stroke-width:4.99px;stroke-linejoin:round;"/>
                </g>
                <g transform="matrix(-0.558218,0.829694,-0.829694,-0.558218,1237.95,208.418)">
                    <circle cx="593.921" cy="341.387" r="3.93" style="fill:none;stroke:white;stroke-width:4.99px;stroke-linejoin:round;"/>
                </g>
                <g transform="matrix(1,0,0,1,0.952245,7.60043)">
                    <path d="M642.167,513.055L642.167,540.513" style="fill:none;stroke:white;stroke-width:4.99px;stroke-linejoin:round;"/>
                </g>
                <g transform="matrix(1,0,0,1,0.952245,7.60043)">
                    <path d="M684.934,517.446L675.417,525.132L684.934,517.446Z" style="fill:none;stroke:white;stroke-width:4.99px;stroke-linejoin:round;"/>
                </g>
                <g transform="matrix(1,0,0,1,0.952245,7.60043)">
                    <path d="M684.934,508.665L684.934,517.446" style="fill:none;stroke:white;stroke-width:4.99px;stroke-linejoin:round;"/>
                </g>
                <g transform="matrix(-0.558218,0.829694,-0.829694,-0.558218,1300.67,210.131)">
                    <circle cx="593.921" cy="341.387" r="3.93" style="fill:none;stroke:white;stroke-width:4.99px;stroke-linejoin:round;"/>
                </g>
                <g transform="matrix(1,0,0,1,0.952245,7.60043)">
                    <path d="M663.392,540.513L663.392,521.289" style="fill:none;stroke:white;stroke-width:4.99px;stroke-linejoin:round;"/>
                </g>
                <g transform="matrix(-0.558218,0.829694,-0.829694,-0.558218,1279.13,222.382)">
                    <circle cx="593.921" cy="341.387" r="3.93" style="fill:none;stroke:white;stroke-width:4.99px;stroke-linejoin:round;"/>
                </g>
                <g transform="matrix(1,0,0,1,0.952245,7.60043)">
                    <path d="M675.417,541.829L675.417,511.281L661.047,499.536L661.047,489.377" style="fill:none;stroke:white;stroke-width:4.99px;stroke-linejoin:round;"/>
                </g>
                <g transform="matrix(-0.558218,0.829694,-0.829694,-0.558218,1276.78,190.844)">
                    <circle cx="593.921" cy="341.387" r="3.93" style="fill:none;stroke:white;stroke-width:4.99px;stroke-linejoin:round;"/>
                </g>
                <g transform="matrix(1,0,0,1,0.952245,7.60043)">
                    <path d="M650.606,540.513L650.606,520.915L642.167,513.055L642.167,502.351L649.555,496.01" style="fill:none;stroke:white;stroke-width:4.99px;stroke-linejoin:round;"/>
                </g>
                <g transform="matrix(-0.558218,0.829694,-0.829694,-0.558218,1268.27,198.647)">
                    <circle cx="593.921" cy="341.387" r="3.93" style="fill:none;stroke:white;stroke-width:4.99px;stroke-linejoin:round;"/>
                </g>
                <g transform="matrix(1,0,0,1,0.952245,7.60043)">
                    <path d="M629.342,537.243L629.342,524.228L629.342,520.535" style="fill:none;stroke:white;stroke-width:4.99px;stroke-linejoin:round;"/>
                </g>
            </g>
            <g transform="matrix(3.71533e-17,0.606759,-0.606759,3.71533e-17,845.613,22.2692)">
                <g transform="matrix(1,0,0,1,0.952245,7.60043)">
                    <path d="M642.167,513.055L642.167,540.131" style="fill:none;stroke:white;stroke-width:4.99px;stroke-linecap:butt;stroke-linejoin:round;"/>
                </g>
                <g transform="matrix(1,0,0,1,0.952245,7.60043)">
                    <path d="M684.934,517.446L675.417,525.132L684.934,517.446Z" style="fill:none;stroke:white;stroke-width:4.99px;stroke-linejoin:round;"/>
                </g>
                <g transform="matrix(1,0,0,1,0.952245,7.60043)">
                    <path d="M684.934,508.665L684.934,517.446" style="fill:none;stroke:white;stroke-width:4.99px;stroke-linejoin:round;"/>
                </g>
                <g transform="matrix(-0.558218,0.829694,-0.829694,-0.558218,1300.67,210.131)">
                    <circle cx="593.921" cy="341.387" r="3.93" style="fill:none;stroke:white;stroke-width:4.99px;stroke-linejoin:round;"/>
                </g>
                <g transform="matrix(1,0,0,1,0.952245,7.60043)">
                    <path d="M663.392,537.958L663.392,521.289" style="fill:none;stroke:white;stroke-width:4.99px;stroke-linecap:butt;stroke-linejoin:round;"/>
                </g>
                <g transform="matrix(-0.558218,0.829694,-0.829694,-0.558218,1279.13,222.382)">
                    <circle cx="593.921" cy="341.387" r="3.93" style="fill:none;stroke:white;stroke-width:4.99px;stroke-linejoin:round;"/>
                </g>
                <g transform="matrix(1,0,0,1,0.952245,7.60043)">
                    <path d="M675.417,535.776L675.417,511.281L661.047,499.536L661.047,489.377" style="fill:none;stroke:white;stroke-width:4.99px;stroke-linecap:butt;stroke-linejoin:round;"/>
                </g>
                <g transform="matrix(-0.558218,0.829694,-0.829694,-0.558218,1276.78,190.844)">
                    <circle cx="593.921" cy="341.387" r="3.93" style="fill:none;stroke:white;stroke-width:4.99px;stroke-linejoin:round;"/>
                </g>
                <g transform="matrix(1,0,0,1,0.952245,7.60043)">
                    <path d="M650.606,540.131L650.606,520.915L642.167,513.055L642.167,502.351L649.555,496.01" style="fill:none;stroke:white;stroke-width:4.99px;stroke-linecap:butt;stroke-linejoin:round;"/>
                </g>
                <g transform="matrix(-0.558218,0.829694,-0.829694,-0.558218,1268.27,198.647)">
                    <circle cx="593.921" cy="341.387" r="3.93" style="fill:none;stroke:white;stroke-width:4.99px;stroke-linejoin:round;"/>
                </g>
            </g>
        </g>
        <g transform="matrix(-1,0,0,1,1328.86,-1.81434)">
            <g transform="matrix(3.71533e-17,0.606759,-0.606759,3.71533e-17,845.613,-8.91965)">
                <g transform="matrix(1,0,0,1,0.952245,7.60043)">
                    <path d="M629.342,520.535L622.214,515.247L622.214,506.952" style="fill:none;stroke:white;stroke-width:4.99px;stroke-linejoin:round;"/>
                </g>
                <g transform="matrix(-0.558218,0.829694,-0.829694,-0.558218,1237.95,208.418)">
                    <circle cx="593.921" cy="341.387" r="3.93" style="fill:none;stroke:white;stroke-width:4.99px;stroke-linejoin:round;"/>
                </g>
                <g transform="matrix(1,0,0,1,0.952245,7.60043)">
                    <path d="M642.167,513.055L642.167,540.513" style="fill:none;stroke:white;stroke-width:4.99px;stroke-linejoin:round;"/>
                </g>
                <g transform="matrix(1,0,0,1,0.952245,7.60043)">
                    <path d="M684.934,517.446L675.417,525.132L684.934,517.446Z" style="fill:none;stroke:white;stroke-width:4.99px;stroke-linejoin:round;"/>
                </g>
                <g transform="matrix(1,0,0,1,0.952245,7.60043)">
                    <path d="M684.934,508.665L684.934,517.446" style="fill:none;stroke:white;stroke-width:4.99px;stroke-linejoin:round;"/>
                </g>
                <g transform="matrix(-0.558218,0.829694,-0.829694,-0.558218,1300.67,210.131)">
                    <circle cx="593.921" cy="341.387" r="3.93" style="fill:none;stroke:white;stroke-width:4.99px;stroke-linejoin:round;"/>
                </g>
                <g transform="matrix(1,0,0,1,0.952245,7.60043)">
                    <path d="M663.392,543.448L663.392,538.308L663.392,521.289" style="fill:none;stroke:white;stroke-width:4.99px;stroke-linejoin:round;"/>
                </g>
                <g transform="matrix(-0.558218,0.829694,-0.829694,-0.558218,1279.13,222.382)">
                    <circle cx="593.921" cy="341.387" r="3.93" style="fill:none;stroke:white;stroke-width:4.99px;stroke-linejoin:round;"/>
                </g>
                <g transform="matrix(1,0,0,1,0.952245,7.60043)">
                    <path d="M675.417,543.448L675.417,511.281L661.047,499.536L661.047,489.377" style="fill:none;stroke:white;stroke-width:4.99px;stroke-linejoin:round;"/>
                </g>
                <g transform="matrix(-0.558218,0.829694,-0.829694,-0.558218,1276.78,190.844)">
                    <circle cx="593.921" cy="341.387" r="3.93" style="fill:none;stroke:white;stroke-width:4.99px;stroke-linejoin:round;"/>
                </g>
                <g transform="matrix(1,0,0,1,0.952245,7.60043)">
                    <path d="M650.606,540.513L650.606,520.915L642.167,513.055L642.167,502.351L649.555,496.01" style="fill:none;stroke:white;stroke-width:4.99px;stroke-linejoin:round;"/>
                </g>
                <g transform="matrix(-0.558218,0.829694,-0.829694,-0.558218,1268.27,198.647)">
                    <circle cx="593.921" cy="341.387" r="3.93" style="fill:none;stroke:white;stroke-width:4.99px;stroke-linejoin:round;"/>
                </g>
                <g transform="matrix(1,0,0,1,0.952245,7.60043)">
                    <path d="M629.342,539.342L629.342,524.228L629.342,520.535" style="fill:none;stroke:white;stroke-width:4.99px;stroke-linejoin:round;"/>
                </g>
            </g>
            <g transform="matrix(3.71533e-17,0.606759,-0.606759,3.71533e-17,845.613,22.2692)">
                <g transform="matrix(1,0,0,1,0.952245,7.60043)">
                    <path d="M642.167,513.055L642.167,542.995" style="fill:none;stroke:white;stroke-width:4.99px;stroke-linejoin:round;"/>
                </g>
                <g transform="matrix(1,0,0,1,0.952245,7.60043)">
                    <path d="M684.934,517.446L675.417,525.132L684.934,517.446Z" style="fill:none;stroke:white;stroke-width:4.99px;stroke-linejoin:round;"/>
                </g>
                <g transform="matrix(1,0,0,1,0.952245,7.60043)">
                    <path d="M684.934,508.665L684.934,517.446" style="fill:none;stroke:white;stroke-width:4.99px;stroke-linejoin:round;"/>
                </g>
                <g transform="matrix(-0.558218,0.829694,-0.829694,-0.558218,1300.67,210.131)">
                    <circle cx="593.921" cy="341.387" r="3.93" style="fill:none;stroke:white;stroke-width:4.99px;stroke-linejoin:round;"/>
                </g>
                <g transform="matrix(1,0,0,1,0.952245,7.60043)">
                    <path d="M663.392,540.513L663.392,521.289" style="fill:none;stroke:white;stroke-width:4.99px;stroke-linejoin:round;"/>
                </g>
                <g transform="matrix(-0.558218,0.829694,-0.829694,-0.558218,1279.13,222.382)">
                    <circle cx="593.921" cy="341.387" r="3.93" style="fill:none;stroke:white;stroke-width:4.99px;stroke-linejoin:round;"/>
                </g>
                <g transform="matrix(1,0,0,1,0.952245,7.60043)">
                    <path d="M675.417,539.137L675.417,511.281L661.047,499.536L661.047,489.377" style="fill:none;stroke:white;stroke-width:4.99px;stroke-linejoin:round;"/>
                </g>
                <g transform="matrix(-0.558218,0.829694,-0.829694,-0.558218,1276.78,190.844)">
                    <circle cx="593.921" cy="341.387" r="3.93" style="fill:none;stroke:white;stroke-width:4.99px;stroke-linejoin:round;"/>
                </g>
                <g transform="matrix(1,0,0,1,0.952245,7.60043)">
                    <path d="M650.606,542.995L650.606,520.915L642.167,513.055L642.167,502.351L649.555,496.01" style="fill:none;stroke:white;stroke-width:4.99px;stroke-linejoin:round;"/>
                </g>
                <g transform="matrix(-0.558218,0.829694,-0.829694,-0.558218,1268.27,198.647)">
                    <circle cx="593.921" cy="341.387" r="3.93" style="fill:none;stroke:white;stroke-width:4.99px;stroke-linejoin:round;"/>
                </g>
            </g>
        </g>
        <g id="SonicWall-CaptureLabs-logo" transform="matrix(0.432839,0,0,0.432839,669.476,402.728)">
            <g transform="matrix(1,0,0,1,-218.025,-70.935)">
                <clipPath id="_clip7">
                    <rect x="0" y="0" width="436.05" height="141.87"/>
                </clipPath>
                <g clip-path="url(#_clip7)">
                    <g id="Layer_1">
                        <g transform="matrix(1,0,0,1,-85.05,-237.13)">
                            <path d="M153.84,238C160.513,237.823 166.974,240.395 171.7,245.11C176.366,249.743 178.993,256.054 178.993,262.63C178.993,276.175 167.848,287.32 154.303,287.32C154.279,287.32 154.254,287.32 154.23,287.32C147.619,287.47 141.231,284.881 136.59,280.17C131.902,275.651 129.296,269.381 129.4,262.87C129.367,258.471 130.499,254.141 132.68,250.32C136.973,242.692 145.087,237.968 153.84,238ZM154.05,242.56C150.572,242.563 147.159,243.503 144.17,245.28C141.13,247.021 138.613,249.546 136.88,252.59C135.117,255.719 134.213,259.259 134.26,262.85C134.26,262.903 134.259,262.957 134.259,263.01C134.259,273.845 143.175,282.76 154.009,282.76C154.023,282.76 154.036,282.76 154.05,282.76C157.598,282.783 161.089,281.869 164.17,280.11C167.21,278.402 169.722,275.89 171.43,272.85C173.164,269.741 174.05,266.23 174,262.67C174.048,259.125 173.146,255.63 171.39,252.55C169.637,249.525 167.102,247.027 164.05,245.32C161.017,243.544 157.565,242.605 154.05,242.6L154.05,242.56Z" style="fill:white;fill-rule:nonzero;"/>
                        </g>
                        <g transform="matrix(1,0,0,1,-85.05,-237.13)">
                            <path d="M191.62,287.75L191.62,237.87L192.71,237.87L225.9,276.1L225.9,237.87L230.82,237.87L230.82,287.75L229.7,287.75L196.77,250L196.77,287.77L191.62,287.75Z" style="fill:white;fill-rule:nonzero;"/>
                        </g>
                        <g transform="matrix(1,0,0,1,-85.05,-237.13)">
                            <rect x="244.34" y="237.85" width="4.66" height="49.8" style="fill:white;fill-rule:nonzero;"/>
                        </g>
                        <g transform="matrix(1,0,0,1,-85.05,-237.13)">
                            <path d="M413.08,237.87L403.53,237.87L390.07,273.87L417.14,273.98L422.33,287.49L432.13,287.49L413.08,237.87ZM401.72,268L408.36,251L415,268L401.72,268Z" style="fill:white;fill-rule:nonzero;"/>
                        </g>
                        <g transform="matrix(1,0,0,1,-85.05,-237.13)">
                            <path d="M442.31,237.87L451.73,237.87L451.73,278.4L470.52,278.4L470.52,287.4L442.31,287.4L442.31,237.87Z" style="fill:white;fill-rule:nonzero;"/>
                        </g>
                        <g transform="matrix(1,0,0,1,-85.05,-237.13)">
                            <path d="M480.54,237.87L490,237.87L490,278.4L508.79,278.4L508.79,287.4L480.54,287.4L480.54,237.87Z" style="fill:white;fill-rule:nonzero;"/>
                        </g>
                        <g transform="matrix(1,0,0,1,-85.05,-237.13)">
                            <path d="M404.72,308.34C404.72,308.34 381.67,300.04 376.58,286.23C370.89,270.77 391.99,267.23 413.58,267.85C425.21,268.18 439.43,269.95 439.43,269.95C439.43,269.95 405.84,274.23 393.71,284.02C381.85,293.59 404.72,308.34 404.72,308.34Z" style="fill:rgb(243,110,33);fill-rule:nonzero;"/>
                        </g>
                        <g transform="matrix(1,0,0,1,-85.05,-237.13)">
                            <path d="M304.59,275.65C300.543,280.443 294.553,283.179 288.28,283.1C282.727,283.278 277.332,281.195 273.34,277.33C269.433,273.573 267.282,268.339 267.42,262.92C267.365,259.315 268.281,255.76 270.07,252.63C271.849,249.571 274.428,247.054 277.53,245.35C280.722,243.545 284.333,242.61 288,242.64C291.276,242.604 294.517,243.312 297.48,244.71C300.261,246.054 302.697,248.018 304.6,250.45L304.6,244.06C303.164,242.726 301.576,241.565 299.87,240.6C296.141,238.823 292.05,237.933 287.92,238C281.145,237.799 274.57,240.355 269.71,245.08C264.946,249.612 262.306,255.947 262.44,262.52C262.291,268.674 264.429,274.67 268.44,279.34C273.22,284.84 279.737,287.59 287.99,287.59C292.053,287.649 296.079,286.808 299.78,285.13C301.505,284.199 303.119,283.076 304.59,281.78L304.59,275.65Z" style="fill:white;fill-rule:nonzero;"/>
                        </g>
                        <g transform="matrix(1,0,0,1,-85.05,-237.13)">
                            <path d="M104,260.43C92.76,258.13 90.63,255.2 90.63,250.59L90.63,250.46C90.63,245.59 95.27,242.05 101.63,242.05C106.72,241.952 111.658,243.819 115.41,247.26L115.8,247.6L115.9,247.48L115.9,242C111.739,239.175 106.787,237.739 101.76,237.9C92.82,237.9 86.08,243.45 86.08,250.82L86.08,250.95C86.08,258.4 90.81,262.39 102.41,264.74C113.3,266.93 115.41,269.74 115.41,274.3L115.41,274.44C115.41,279.67 110.7,283.32 103.96,283.32C97.39,283.32 92.74,281.38 87.36,276.43L86.99,276.08L86.9,276.18L86.9,281.86C91.709,285.609 97.663,287.597 103.76,287.49C113.27,287.49 119.92,281.99 119.92,274.1L119.92,274C119.89,266.74 115.13,262.7 104,260.43Z" style="fill:white;fill-rule:nonzero;"/>
                        </g>
                        <path d="M290.79,0.74L279.47,34.42L279.23,35.15L278.99,34.42L267.83,0.6L258.77,0.6L247.62,34.42L247.38,35.15L247.13,34.42L235.81,0.74L224.57,0.74L242.48,50.49L251.69,50.49L262.92,18.04L263.16,17.35L263.4,18.04L274.63,50.49L283.84,50.49L301.75,0.74L290.79,0.74Z" style="fill:white;fill-rule:nonzero;"/>
                        <path d="M0,78.81L424.17,78.81" style="fill:white;fill-rule:nonzero;stroke:white;stroke-width:0.77px;stroke-linecap:butt;stroke-miterlimit:10;"/>
                        <g transform="matrix(1,0,0,1,-85.05,-237.13)">
                            <path d="M519.69,245.19C518.811,246.065 517.62,246.557 516.38,246.557C513.807,246.557 511.69,244.44 511.69,241.867C511.69,241.855 511.69,241.842 511.69,241.83C511.655,240.53 512.193,239.279 513.16,238.41C514.026,237.576 515.187,237.116 516.39,237.13C518.966,237.134 521.084,239.254 521.084,241.83C521.084,243.094 520.574,244.306 519.67,245.19L519.69,245.19ZM513.69,239.11C512.961,239.825 512.556,240.809 512.57,241.83C512.552,242.87 512.965,243.873 513.71,244.6C514.431,245.332 515.417,245.745 516.445,245.745C517.473,245.745 518.459,245.332 519.18,244.6C519.915,243.871 520.323,242.875 520.31,241.84C520.325,240.817 519.916,239.832 519.18,239.12C518.466,238.366 517.473,237.939 516.435,237.939C515.397,237.939 514.404,238.366 513.69,239.12L513.69,239.11ZM514.39,244.44L514.39,239.23L516.91,239.23C517.258,239.248 517.598,239.336 517.91,239.49C518.364,239.735 518.635,240.225 518.6,240.74C518.635,241.094 518.497,241.444 518.23,241.68C517.972,241.884 517.658,242.006 517.33,242.03C517.596,242.072 517.849,242.175 518.07,242.33C518.398,242.626 518.569,243.06 518.53,243.5L518.53,244C518.525,244.053 518.525,244.107 518.53,244.16C518.525,244.21 518.525,244.26 518.53,244.31L518.53,244.46L517.23,244.46C517.176,244.224 517.146,243.982 517.14,243.74C517.146,243.523 517.116,243.307 517.05,243.1C516.99,242.921 516.849,242.78 516.67,242.72C516.521,242.67 516.367,242.639 516.21,242.63L515.62,242.63L515.62,244.47L514.39,244.44ZM516.87,240.26C516.615,240.177 516.348,240.14 516.08,240.15L515.75,240.15L515.75,241.66L516.28,241.66C516.544,241.677 516.806,241.61 517.03,241.47C517.214,241.319 517.311,241.087 517.29,240.85C517.293,240.571 517.101,240.325 516.83,240.26L516.87,240.26Z" style="fill:white;fill-rule:nonzero;"/>
                        </g>
                        <g transform="matrix(1,0,0,1,-85.05,-237.13)">
                            <path d="M149.71,342.5C148.798,341.461 147.672,340.632 146.41,340.07C145.388,339.668 144.299,339.461 143.2,339.46C141.715,339.431 140.241,339.724 138.88,340.32C137.615,340.857 136.48,341.658 135.55,342.67C134.61,343.684 133.879,344.873 133.4,346.17C132.88,347.543 132.622,349.002 132.64,350.47C132.616,352.03 132.874,353.581 133.4,355.05C133.876,356.384 134.606,357.614 135.55,358.67C136.488,359.685 137.621,360.501 138.88,361.07C140.246,361.649 141.717,361.938 143.2,361.92C144.469,361.918 145.719,361.616 146.85,361.04C148.145,360.347 149.267,359.369 150.13,358.18L154.65,361.41C153.362,363.237 151.603,364.682 149.56,365.59C147.545,366.456 145.373,366.899 143.18,366.89C140.94,366.924 138.715,366.534 136.62,365.74C134.703,365.025 132.956,363.918 131.49,362.49C130.027,361.042 128.877,359.31 128.11,357.4C127.264,355.308 126.849,353.066 126.89,350.81C126.855,348.512 127.269,346.229 128.11,344.09C128.876,342.156 130.026,340.398 131.49,338.92C132.947,337.476 134.696,336.361 136.62,335.65C138.717,334.866 140.941,334.476 143.18,334.5C145.167,334.479 147.139,334.853 148.98,335.6C150.91,336.458 152.62,337.744 153.98,339.36L149.71,342.5Z" style="fill:white;fill-rule:nonzero;"/>
                        </g>
                        <g transform="matrix(1,0,0,1,-85.05,-237.13)">
                            <path d="M205.92,348.64C206.7,348.64 207.51,348.64 208.34,348.56C209.145,348.502 209.938,348.323 210.69,348.03C211.377,347.768 211.977,347.317 212.42,346.73C212.9,346.007 213.132,345.147 213.08,344.28C213.129,343.477 212.915,342.68 212.47,342.01C212.078,341.443 211.538,340.994 210.91,340.71C210.242,340.385 209.52,340.186 208.78,340.12C208.033,340.031 207.282,339.984 206.53,339.98L202.59,339.98L202.59,348.64L205.92,348.64ZM197.11,335.28L207.48,335.28C208.918,335.278 210.352,335.425 211.76,335.72C213.055,335.972 214.292,336.461 215.41,337.16C216.447,337.861 217.301,338.801 217.9,339.9C218.57,341.235 218.89,342.718 218.83,344.21C218.905,345.836 218.561,347.455 217.83,348.91C217.203,350.059 216.273,351.014 215.14,351.67C213.924,352.362 212.586,352.813 211.2,353C209.656,353.252 208.094,353.376 206.53,353.37L202.59,353.37L202.59,366.12L197.11,366.12L197.11,335.28Z" style="fill:white;fill-rule:nonzero;"/>
                        </g>
                        <path d="M148.16,103.11L138.69,103.11L138.69,98.15L163.08,98.15L163.08,103.11L153.64,103.11L153.64,128.97L148.16,128.97L148.16,103.11Z" style="fill:white;fill-rule:nonzero;"/>
                        <g transform="matrix(1,0,0,1,-85.05,-237.13)">
                            <path d="M279.73,354.78C279.738,356.497 279.398,358.198 278.73,359.78C278.125,361.215 277.233,362.511 276.11,363.59C274.976,364.645 273.648,365.47 272.2,366.02C270.623,366.587 268.956,366.868 267.28,366.85C265.607,366.872 263.943,366.591 262.37,366.02C260.913,365.471 259.575,364.646 258.43,363.59C257.288,362.527 256.393,361.227 255.81,359.78C255.17,358.192 254.854,356.492 254.88,354.78L254.88,335.28L260.36,335.28L260.36,354.61C260.37,355.411 260.484,356.208 260.7,356.98C260.944,357.809 261.334,358.587 261.85,359.28C262.431,360.005 263.165,360.592 264,361C265.032,361.48 266.162,361.716 267.3,361.69C268.432,361.718 269.555,361.481 270.58,361C271.414,360.596 272.149,360.012 272.73,359.29C273.246,358.597 273.636,357.819 273.88,356.99C274.099,356.219 274.217,355.422 274.23,354.62L274.23,335.28L279.7,335.28L279.73,354.78Z" style="fill:white;fill-rule:nonzero;"/>
                        </g>
                        <g transform="matrix(1,0,0,1,-85.05,-237.13)">
                            <path d="M297.93,348.34C298.72,348.34 299.5,348.34 300.28,348.22C301.02,348.169 301.746,347.997 302.43,347.71C303.064,347.447 303.615,347.014 304.02,346.46C304.457,345.738 304.669,344.903 304.63,344.06C304.659,343.294 304.465,342.537 304.07,341.88C303.69,341.349 303.176,340.928 302.58,340.66C301.948,340.371 301.272,340.189 300.58,340.12C299.867,340.029 299.149,339.982 298.43,339.98L293.68,339.98L293.68,348.34L297.93,348.34ZM288.17,335.28L298.89,335.28C300.326,335.283 301.759,335.421 303.17,335.69C304.472,335.929 305.717,336.41 306.84,337.11C307.912,337.774 308.794,338.704 309.4,339.81C310.111,341.128 310.456,342.613 310.4,344.11C310.463,346.147 309.804,348.142 308.54,349.74C307.205,351.307 305.309,352.291 303.26,352.48L311.43,366.11L304.83,366.11L297.66,353L293.66,353L293.66,366.07L288.18,366.07L288.17,335.28Z" style="fill:white;fill-rule:nonzero;"/>
                        </g>
                        <path d="M232.84,98.15L253.26,98.15L253.26,103.11L238.34,103.11L238.34,110.7L252.48,110.7L252.48,115.67L238.34,115.67L238.34,124.01L254.04,124.01L254.04,128.97L232.84,128.97L232.84,98.15Z" style="fill:white;fill-rule:nonzero;"/>
                        <g transform="matrix(1,0,0,1,-85.05,-237.13)">
                            <path d="M171.94,354.09L176.08,343.5L180.19,354.09L171.94,354.09ZM178.94,335.43L173,335.43L164.76,357.67L181.44,357.67L184.64,366.11L190.76,366.11L178.94,335.43Z" style="fill:white;fill-rule:nonzero;"/>
                        </g>
                        <g transform="matrix(1,0,0,1,-85.05,-237.13)">
                            <path d="M173.73,379C173.73,379 159.57,373.81 156.36,365.37C152.94,355.71 165.85,353.55 179.31,353.9C186.47,354.09 195.25,355.17 195.25,355.17C195.25,355.17 174.46,357.84 166.93,363.95C159.57,369.87 173.73,379 173.73,379Z" style="fill:rgb(243,110,33);fill-rule:nonzero;"/>
                        </g>
                        <g transform="matrix(1,0,0,1,-85.05,-237.13)">
                            <path d="M375.74,362L375.74,365.76L358.48,365.76L358.48,335.62L363,335.62L363,362L375.74,362Z" style="fill:white;fill-rule:nonzero;"/>
                        </g>
                        <g transform="matrix(1,0,0,1,-85.05,-237.13)">
                            <path d="M412.53,365.77L409.08,365.77C408.723,365.792 408.369,365.69 408.08,365.48C407.828,365.284 407.637,365.02 407.53,364.72L404.87,357.72L391.57,357.72L388.91,364.72C388.799,365.007 388.608,365.257 388.36,365.44C388.078,365.669 387.722,365.786 387.36,365.77L384,365.77L396,335.62L400.52,335.62L412.53,365.77ZM403.69,354.53L399.21,342.84C398.817,341.861 398.483,340.859 398.21,339.84C398.05,340.45 397.9,341.01 397.74,341.52C397.58,342.03 397.42,342.52 397.26,342.91L392.81,354.56L403.69,354.53Z" style="fill:white;fill-rule:nonzero;"/>
                        </g>
                        <g transform="matrix(1,0,0,1,-85.05,-237.13)">
                            <path d="M430.31,335.62C431.95,335.591 433.586,335.773 435.18,336.16C436.383,336.455 437.513,336.992 438.5,337.74C439.343,338.389 440.008,339.243 440.43,340.22C440.856,341.271 441.066,342.396 441.05,343.53C441.049,344.244 440.935,344.953 440.71,345.63C440.49,346.311 440.151,346.947 439.71,347.51C439.217,348.12 438.63,348.646 437.97,349.07C437.2,349.569 436.366,349.959 435.49,350.23C439.87,351.103 442.06,353.393 442.06,357.1C442.075,358.307 441.833,359.504 441.35,360.61C440.872,361.668 440.161,362.605 439.27,363.35C438.283,364.168 437.14,364.777 435.91,365.14C434.438,365.581 432.907,365.794 431.37,365.77L420.49,365.77L420.49,335.62L430.31,335.62ZM424.96,339.12L424.96,349L430.1,349C431.841,349.135 433.576,348.665 435.01,347.67C436.031,346.705 436.61,345.361 436.61,343.956C436.61,342.585 436.058,341.27 435.08,340.31C433.659,339.413 431.985,338.998 430.31,339.13L424.96,339.12ZM431.26,362.22C432.245,362.242 433.227,362.107 434.17,361.82C434.907,361.603 435.588,361.231 436.17,360.73C436.675,360.28 437.063,359.713 437.3,359.08C437.538,358.409 437.656,357.702 437.65,356.99C437.711,355.634 437.138,354.324 436.1,353.45C434.692,352.481 432.993,352.026 431.29,352.16L425,352.16L425,362.22L431.26,362.22Z" style="fill:white;fill-rule:nonzero;"/>
                        </g>
                        <g transform="matrix(1,0,0,1,-85.05,-237.13)">
                            <path d="M465.89,340.53C465.78,340.731 465.63,340.908 465.45,341.05C465.278,341.171 465.07,341.231 464.86,341.22C464.545,341.198 464.245,341.079 464,340.88C463.611,340.598 463.207,340.337 462.79,340.1C462.242,339.78 461.663,339.518 461.06,339.32C460.278,339.072 459.46,338.953 458.64,338.97C457.853,338.958 457.069,339.076 456.32,339.32C455.706,339.524 455.139,339.847 454.65,340.27C454.219,340.659 453.878,341.136 453.65,341.67C453.418,342.228 453.303,342.826 453.31,343.43C453.281,344.148 453.5,344.854 453.93,345.43C454.373,345.99 454.924,346.456 455.55,346.8C456.279,347.206 457.046,347.541 457.84,347.8L460.47,348.68C461.362,348.963 462.236,349.297 463.09,349.68C463.925,350.053 464.697,350.552 465.38,351.16C466.066,351.768 466.621,352.51 467.01,353.34C467.45,354.334 467.661,355.414 467.63,356.5C467.638,357.778 467.407,359.047 466.95,360.24C466.498,361.368 465.817,362.389 464.95,363.24C464.037,364.138 462.947,364.836 461.75,365.29C460.37,365.81 458.904,366.064 457.43,366.04C456.486,366.04 455.544,365.943 454.62,365.75C453.723,365.59 452.845,365.339 452,365C451.201,364.666 450.438,364.254 449.72,363.77C449.03,363.297 448.392,362.751 447.82,362.14L449.1,360C449.225,359.835 449.377,359.693 449.55,359.58C449.727,359.461 449.937,359.401 450.15,359.41C450.524,359.451 450.875,359.613 451.15,359.87C451.609,360.228 452.086,360.562 452.58,360.87C453.211,361.27 453.881,361.605 454.58,361.87C455.507,362.2 456.487,362.356 457.47,362.33C458.326,362.362 459.181,362.251 460,362C460.677,361.8 461.304,361.459 461.84,361C462.337,360.541 462.726,359.977 462.98,359.35C463.256,358.671 463.392,357.943 463.38,357.21C463.415,356.443 463.201,355.685 462.77,355.05C462.339,354.468 461.786,353.987 461.15,353.64C460.426,353.222 459.658,352.887 458.86,352.64L456.24,351.81C455.346,351.523 454.469,351.189 453.61,350.81C452.776,350.442 452.006,349.942 451.33,349.33C450.63,348.693 450.077,347.912 449.71,347.04C449.272,345.965 449.065,344.81 449.1,343.65C449.099,342.575 449.313,341.511 449.73,340.52C450.15,339.509 450.777,338.596 451.57,337.84C452.435,337.023 453.455,336.387 454.57,335.97C455.847,335.485 457.204,335.248 458.57,335.27C460.163,335.252 461.746,335.526 463.24,336.08C464.621,336.593 465.884,337.383 466.95,338.4L465.89,340.53Z" style="fill:white;fill-rule:nonzero;"/>
                        </g>
                    </g>
                </g>
            </g>
        </g>
    </g>
    <defs>
        <linearGradient id="_Linear1" x1="0" y1="0" x2="1" y2="0" gradientUnits="userSpaceOnUse" gradientTransform="matrix(4.21931e-14,-689.066,689.066,4.21931e-14,1041,716.685)"><stop offset="0" style="stop-color:white;stop-opacity:0"/><stop offset="1" style="stop-color:rgb(183,215,234);stop-opacity:1"/></linearGradient>
        <linearGradient id="_Linear5" x1="0" y1="0" x2="1" y2="0" gradientUnits="userSpaceOnUse" gradientTransform="matrix(-44.3898,108.363,-108.363,-44.3898,122.95,16.7097)"><stop offset="0" style="stop-color:rgb(250,250,250);stop-opacity:1"/><stop offset="1" style="stop-color:rgb(243,110,35);stop-opacity:1"/></linearGradient>
        <linearGradient id="_Linear6" x1="0" y1="0" x2="1" y2="0" gradientUnits="userSpaceOnUse" gradientTransform="matrix(-31.9863,142.96,-142.96,-31.9863,176.399,8.14084)"><stop offset="0" style="stop-color:rgb(71,175,232);stop-opacity:1"/><stop offset="1" style="stop-color:rgb(104,105,107);stop-opacity:1"/></linearGradient>
    </defs>
</svg>
