<?xml version="1.0" encoding="UTF-8" standalone="no"?>
<!DOCTYPE svg PUBLIC "-//W3C//DTD SVG 1.1//EN" "http://www.w3.org/Graphics/SVG/1.1/DTD/svg11.dtd">
<svg width="100%" height="100%" viewBox="0 0 1280 800" version="1.1" xmlns="http://www.w3.org/2000/svg" xmlns:xlink="http://www.w3.org/1999/xlink" xml:space="preserve" xmlns:serif="http://www.serif.com/" style="fill-rule:evenodd;clip-rule:evenodd;stroke-linecap:round;stroke-linejoin:round;stroke-miterlimit:1.5;">
    <g id="Blue-large-Rect" serif:id="Blue large Rect" transform="matrix(0.996824,0,0,0.971882,3.37191,15.8643)">
        <path d="M1061.62,522.095C1061.62,520.175 1060.1,518.616 1058.23,518.616L53.015,518.616C51.143,518.616 49.623,520.175 49.623,522.095L49.623,740.347C49.623,742.267 51.143,743.826 53.015,743.826L1058.23,743.826C1060.1,743.826 1061.62,742.267 1061.62,740.347L1061.62,522.095Z" style="fill:rgb(214,222,225);"/>
        <clipPath id="_clip1">
            <path d="M1061.62,522.095C1061.62,520.175 1060.1,518.616 1058.23,518.616L53.015,518.616C51.143,518.616 49.623,520.175 49.623,522.095L49.623,740.347C49.623,742.267 51.143,743.826 53.015,743.826L1058.23,743.826C1060.1,743.826 1061.62,742.267 1061.62,740.347L1061.62,522.095Z"/>
        </clipPath>
        <g clip-path="url(#_clip1)">
            <g transform="matrix(1.00319,0,0,1.02893,33.2642,-13.6204)">
                <text x="56.94px" y="672.907px" style="font-family:'Nunito-Regular', 'Nunito';font-size:23px;fill:rgb(97,102,113);">Uniﬁed</text>
                <text x="64.024px" y="695.907px" style="font-family:'Nunito-Regular', 'Nunito';font-size:23px;fill:rgb(97,102,113);">Client</text>
            </g>
            <g transform="matrix(1.00319,0,0,1.02893,-3.38265,-16.3233)">
                <g transform="matrix(1.01387,0,0,1.01584,-2.5792,-9.96952)">
                    <path d="M185.95,561.805C185.95,558.626 183.365,556.046 180.18,556.046L83.747,556.046C80.563,556.046 77.977,558.626 77.977,561.805L77.977,623.437C77.977,626.615 80.563,629.196 83.747,629.196L180.18,629.196C183.365,629.196 185.95,626.615 185.95,623.437L185.95,561.805Z" style="fill:none;stroke:rgb(99,101,105);stroke-width:2.96px;"/>
                </g>
                <path d="M95.99,596.2L114.798,596.2L123.129,576.708L135.386,607.197L145.178,586.554L151.828,594.293L165.667,594.293" style="fill:none;stroke:rgb(99,101,105);stroke-width:3px;"/>
                <path d="M126.061,620.057L136.09,620.057" style="fill:none;stroke:rgb(99,101,105);stroke-width:3px;"/>
                <path d="M121.188,629.196L121.188,639.911L112.414,639.911L149.421,639.911L141.559,639.911L141.559,629.196" style="fill:none;stroke:rgb(99,101,105);stroke-width:3px;"/>
            </g>
        </g>
        <path d="M1061.62,522.095C1061.62,520.175 1060.1,518.616 1058.23,518.616L53.015,518.616C51.143,518.616 49.623,520.175 49.623,522.095L49.623,740.347C49.623,742.267 51.143,743.826 53.015,743.826L1058.23,743.826C1060.1,743.826 1061.62,742.267 1061.62,740.347L1061.62,522.095Z" style="fill:none;stroke:rgb(214,222,225);stroke-width:9.65px;"/>
    </g>
    <g id="blue-lower-square" serif:id="blue lower square" transform="matrix(1.10897,0,0,2.15944,-133.004,-519.894)">
        <path d="M1230.68,518.897C1230.68,517.247 1228.08,515.907 1224.86,515.907L1068.86,515.907C1065.64,515.907 1063.03,517.247 1063.03,518.897L1063.03,581.681C1063.03,583.331 1065.64,584.67 1068.86,584.67L1224.86,584.67C1228.08,584.67 1230.68,583.331 1230.68,581.681L1230.68,518.897Z" style="fill:rgb(214,222,225);"/>
        <clipPath id="_clip2">
            <path d="M1230.68,518.897C1230.68,517.247 1228.08,515.907 1224.86,515.907L1068.86,515.907C1065.64,515.907 1063.03,517.247 1063.03,518.897L1063.03,581.681C1063.03,583.331 1065.64,584.67 1068.86,584.67L1224.86,584.67C1228.08,584.67 1230.68,583.331 1230.68,581.681L1230.68,518.897Z"/>
        </clipPath>
        <g clip-path="url(#_clip2)">
            <g transform="matrix(0.901737,0,0,0.463083,157.302,290.372)">
                <text x="1070.24px" y="544.323px" style="font-family:'Nunito-Regular', 'Nunito';font-size:23px;fill:rgb(97,102,113);">Single,</text>
                <text x="1042.99px" y="567.323px" style="font-family:'Nunito-Regular', 'Nunito';font-size:23px;fill:rgb(97,102,113);">Light<tspan x="1095.24px 1114.47px " y="567.323px 567.323px ">we</tspan>ight</text>
                <text x="1073.04px" y="590.323px" style="font-family:'Nunito-Regular', 'Nunito';font-size:23px;fill:rgb(97,102,113);">Agent</text>
            </g>
        </g>
    </g>
    <g id="blue-upper-rect" serif:id="blue upper rect" transform="matrix(1.10897,0,0,1.01515,-133.004,-7.63652)">
        <path d="M1230.68,521.513C1230.68,518.419 1228.38,515.907 1225.55,515.907L1068.17,515.907C1065.33,515.907 1063.03,518.419 1063.03,521.513L1063.03,579.065C1063.03,582.158 1065.33,584.67 1068.17,584.67L1225.55,584.67C1228.38,584.67 1230.68,582.158 1230.68,579.065L1230.68,521.513Z" style="fill:rgb(214,222,225);"/>
        <clipPath id="_clip3">
            <path d="M1230.68,521.513C1230.68,518.419 1228.38,515.907 1225.55,515.907L1068.17,515.907C1065.33,515.907 1063.03,518.419 1063.03,521.513L1063.03,579.065C1063.03,582.158 1065.33,584.67 1068.17,584.67L1225.55,584.67C1228.38,584.67 1230.68,582.158 1230.68,579.065L1230.68,521.513Z"/>
        </clipPath>
        <g clip-path="url(#_clip3)">
            <g transform="matrix(0.901737,0,0,0.985078,158.349,8.69564)">
                <text x="1058.56px" y="544.323px" style="font-family:'Nunito-Regular', 'Nunito';font-size:23px;fill:rgb(97,102,113);">Antivirus</text>
                <text x="1069.41px" y="567.323px" style="font-family:'Nunito-Regular', 'Nunito';font-size:23px;fill:rgb(97,102,113);">Engine</text>
            </g>
        </g>
    </g>
    <g id="Endpoint-Reporting" serif:id="Endpoint Reporting" transform="matrix(1.6602,0,0,1.01515,-1550.68,148.661)">
        <path d="M1230.68,521.513C1230.68,518.419 1229.15,515.907 1227.26,515.907L1066.46,515.907C1064.57,515.907 1063.03,518.419 1063.03,521.513L1063.03,579.065C1063.03,582.158 1064.57,584.67 1066.46,584.67L1227.26,584.67C1229.15,584.67 1230.68,582.158 1230.68,579.065L1230.68,521.513Z" style="fill:rgb(255,121,26);"/>
        <clipPath id="_clip4">
            <path d="M1230.68,521.513C1230.68,518.419 1229.15,515.907 1227.26,515.907L1066.46,515.907C1064.57,515.907 1063.03,518.419 1063.03,521.513L1063.03,579.065C1063.03,582.158 1064.57,584.67 1066.46,584.67L1227.26,584.67C1229.15,584.67 1230.68,582.158 1230.68,579.065L1230.68,521.513Z"/>
        </clipPath>
        <g clip-path="url(#_clip4)">
            <g transform="matrix(0.602338,0,0,0.985078,996.947,-164.499)">
                <text x="202.642px" y="720.13px" style="font-family:'Nunito-Regular', 'Nunito';font-size:23px;fill:white;">Endpoint</text>
                <text x="197.364px" y="743.13px" style="font-family:'Nunito-Regular', 'Nunito';font-size:23px;fill:white;">Repor<tspan x="260.43px " y="743.13px ">t</tspan>ing</text>
            </g>
        </g>
    </g>
    <g id="Antivirus-Enforcement" serif:id="Antivirus Enforcement" transform="matrix(1.6602,0,0,1.01515,-1264.56,148.661)">
        <path d="M1230.68,521.513C1230.68,518.419 1229.15,515.907 1227.26,515.907L1066.46,515.907C1064.57,515.907 1063.03,518.419 1063.03,521.513L1063.03,579.065C1063.03,582.158 1064.57,584.67 1066.46,584.67L1227.26,584.67C1229.15,584.67 1230.68,582.158 1230.68,579.065L1230.68,521.513Z" style="fill:rgb(255,121,26);"/>
        <clipPath id="_clip5">
            <path d="M1230.68,521.513C1230.68,518.419 1229.15,515.907 1227.26,515.907L1066.46,515.907C1064.57,515.907 1063.03,518.419 1063.03,521.513L1063.03,579.065C1063.03,582.158 1064.57,584.67 1066.46,584.67L1227.26,584.67C1229.15,584.67 1230.68,582.158 1230.68,579.065L1230.68,521.513Z"/>
        </clipPath>
        <g clip-path="url(#_clip5)">
            <g transform="matrix(0.602338,0,0,0.985078,766.407,-145.312)">
                <text x="517.718px" y="700.664px" style="font-family:'Nunito-Regular', 'Nunito';font-size:23px;fill:white;">Antivirus Enf<tspan x="649.692px 662.457px 670.346px " y="700.664px 700.664px 700.664px ">orc</tspan>ement</text>
                <text x="553.805px" y="723.664px" style="font-family:'Nunito-Regular', 'Nunito';font-size:23px;fill:white;">&amp; Management</text>
            </g>
        </g>
    </g>
    <g id="DPI-SSL" transform="matrix(1.6602,0,0,1.01515,-978.212,148.661)">
        <path d="M1230.68,521.513C1230.68,518.419 1229.15,515.907 1227.26,515.907L1066.46,515.907C1064.57,515.907 1063.03,518.419 1063.03,521.513L1063.03,579.065C1063.03,582.158 1064.57,584.67 1066.46,584.67L1227.26,584.67C1229.15,584.67 1230.68,582.158 1230.68,579.065L1230.68,521.513Z" style="fill:rgb(255,121,26);"/>
        <clipPath id="_clip6">
            <path d="M1230.68,521.513C1230.68,518.419 1229.15,515.907 1227.26,515.907L1066.46,515.907C1064.57,515.907 1063.03,518.419 1063.03,521.513L1063.03,579.065C1063.03,582.158 1064.57,584.67 1066.46,584.67L1227.26,584.67C1229.15,584.67 1230.68,582.158 1230.68,579.065L1230.68,521.513Z"/>
        </clipPath>
        <g clip-path="url(#_clip6)">
            <g transform="matrix(0.602338,0,0,0.985078,649.105,-146.42)">
                <text x="726.171px" y="701.789px" style="font-family:'Nunito-Regular', 'Nunito';font-size:23px;fill:white;">DPI-<tspan x="773.206px " y="701.789px ">S</tspan>SL C<tspan x="835.283px 847.404px 856.42px " y="701.789px 701.789px 701.789px ">ert</tspan>iﬁcate</text>
                <text x="758.383px" y="724.789px" style="font-family:'Nunito-Regular', 'Nunito';font-size:23px;fill:white;">Management</text>
            </g>
        </g>
    </g>
    <g id="orange" transform="matrix(5.07997,0,0,1.01515,-5187.01,70.571)">
        <path d="M1230.68,521.513C1230.68,518.419 1230.18,515.907 1229.56,515.907L1064.15,515.907C1063.54,515.907 1063.03,518.419 1063.03,521.513L1063.03,579.065C1063.03,582.158 1063.54,584.67 1064.15,584.67L1229.56,584.67C1230.18,584.67 1230.68,582.158 1230.68,579.065L1230.68,521.513Z" style="fill:rgb(255,153,0);"/>
        <clipPath id="_clip7">
            <path d="M1230.68,521.513C1230.68,518.419 1230.18,515.907 1229.56,515.907L1064.15,515.907C1063.54,515.907 1063.03,518.419 1063.03,521.513L1063.03,579.065C1063.03,582.158 1063.54,584.67 1064.15,584.67L1229.56,584.67C1230.18,584.67 1230.68,582.158 1230.68,579.065L1230.68,521.513Z"/>
        </clipPath>
        <g clip-path="url(#_clip7)">
            <g transform="matrix(0.196852,0,0,0.985078,1056.32,-71.2975)">
                <text x="286.149px" y="637.074px" style="font-family:'Nunito-Regular', 'Nunito';font-size:23px;fill:rgb(229,237,255);">SonicW<tspan x="366.557px " y="637.074px ">a</tspan>ll C<tspan x="410.694px " y="637.074px ">a</tspan>ptur<tspan x="464.859px " y="637.074px ">e</tspan> Client Plat<tspan x="588.53px 595.959px " y="637.074px 637.074px ">fo</tspan>rm</text>
            </g>
        </g>
    </g>
    <g id="light-orange" serif:id="light orange" transform="matrix(5.07997,0,0,1.01515,-5186.87,-8.23349)">
        <path d="M1230.68,521.513C1230.68,518.419 1230.18,515.907 1229.56,515.907L1064.15,515.907C1063.54,515.907 1063.03,518.419 1063.03,521.513L1063.03,579.065C1063.03,582.158 1063.54,584.67 1064.15,584.67L1229.56,584.67C1230.18,584.67 1230.68,582.158 1230.68,579.065L1230.68,521.513Z" style="fill:rgb(253,163,72);"/>
        <clipPath id="_clip8">
            <path d="M1230.68,521.513C1230.68,518.419 1230.18,515.907 1229.56,515.907L1064.15,515.907C1063.54,515.907 1063.03,518.419 1063.03,521.513L1063.03,579.065C1063.03,582.158 1063.54,584.67 1064.15,584.67L1229.56,584.67C1230.18,584.67 1230.68,582.158 1230.68,579.065L1230.68,521.513Z"/>
        </clipPath>
        <g clip-path="url(#_clip8)">
            <g transform="matrix(0.196852,0,0,0.985078,1072.34,9.15073)">
                <text x="250.749px" y="557.851px" style="font-family:'Nunito-Regular', 'Nunito';font-size:23px;fill:white;">Ne<tspan x="279.706px 291.62px 299.118px " y="557.851px 557.851px 557.851px ">xt-</tspan>Generation Malw<tspan x="484.015px 496.205px 504.094px " y="557.851px 557.851px 557.851px ">are</tspan> P<tspan x="536.754px 544.643px 556.626px 568.31px " y="557.851px 557.851px 557.851px 557.851px ">reve</tspan>ntion T<tspan x="650.42px " y="557.851px ">e</tspan>chnology</text>
            </g>
            <g transform="matrix(0.0997664,0,0,0.507825,1092,549.513)">
                <g transform="matrix(1,0,0,1,-250,-50)">
                    <g id="Group" transform="matrix(1,0,0,1,5,6.85714)">
                        <path id="icon" d="M28.261,68.469L28.261,0.143L39.708,0.143L39.708,68.469L28.261,68.469ZM42.424,84.925L42.424,13.789C46.617,14.616 50.485,16.372 53.81,18.839L53.81,77.894L42.424,84.925ZM14.141,77.895L14.141,18.84C17.466,16.372 21.334,14.616 25.527,13.789L25.527,84.925L14.141,77.895ZM56.565,3.502C56.565,3.502 67.951,17.364 67.951,27.329L67.951,61.837C67.951,66.682 65.517,71.13 61.878,73.339L56.565,76.625L56.565,3.502ZM0,61.837L0,27.329C0,17.364 11.386,3.502 11.386,3.502L11.386,76.626L6.073,73.339C2.433,71.131 0,66.682 0,61.837Z" style="fill:rgb(84,45,120);"/>
                        <path id="text" d="M110.743,26.514C108.321,26.514 106.35,27.126 104.83,28.35C103.31,29.574 102.55,31.35 102.55,33.68C102.55,36.01 103.452,37.787 105.257,39.01C107.062,40.234 109.247,41.128 111.812,41.693C114.377,42.258 116.941,42.905 119.506,43.635C122.071,44.364 124.256,45.717 126.061,47.694C127.865,49.671 128.768,52.471 128.768,56.095C128.768,59.719 127.224,62.967 124.137,65.838C121.05,68.709 116.918,70.145 111.741,70.145C106.563,70.145 102.36,68.944 99.13,66.544C95.901,64.144 94.286,60.826 94.286,56.59L102.978,56.59C103.167,58.755 103.975,60.472 105.4,61.743C106.825,63.014 108.915,63.649 111.669,63.649C114.424,63.649 116.597,62.943 118.188,61.531C119.779,60.119 120.575,58.449 120.575,56.519C120.575,54.589 120.088,53.083 119.114,52.001C118.141,50.918 116.882,50.106 115.338,49.565C113.795,49.024 112.097,48.541 110.244,48.118C108.392,47.694 106.528,47.2 104.652,46.635C102.776,46.07 101.066,45.341 99.522,44.447C97.979,43.552 96.72,42.246 95.746,40.528C94.773,38.81 94.286,36.704 94.286,34.21C94.286,29.927 95.841,26.479 98.952,23.867C102.063,21.255 106.1,19.949 111.064,19.949C116.027,19.949 119.993,21.078 122.961,23.338C125.93,25.597 127.58,28.868 127.913,33.151L118.936,33.151C118.746,31.268 117.939,29.691 116.514,28.421C115.089,27.15 113.165,26.514 110.743,26.514ZM151.227,70.286C145.527,70.286 140.896,68.45 137.334,64.779C133.772,61.108 131.991,56.237 131.991,50.165C131.991,44.094 133.795,39.234 137.405,35.586C141.015,31.939 145.681,30.115 151.405,30.115C157.128,30.115 161.771,31.868 165.333,35.375C168.895,38.881 170.676,43.458 170.676,49.106C170.676,50.471 170.581,51.742 170.391,52.918L140.326,52.918C140.516,56.166 141.62,58.743 143.639,60.649C145.658,62.555 148.187,63.508 151.227,63.508C155.644,63.508 158.755,61.696 160.56,58.072L169.323,58.072C168.135,61.649 165.974,64.579 162.839,66.862C159.705,69.144 155.834,70.286 151.227,70.286ZM162.198,47.412C162.151,44.211 161.082,41.658 158.992,39.752C156.902,37.846 154.361,36.893 151.369,36.893C148.377,36.893 145.871,37.846 143.853,39.752C141.834,41.658 140.682,44.211 140.397,47.412L162.198,47.412ZM183.089,30.75L183.089,36.893C185.702,32.374 189.881,30.115 195.628,30.115C200.046,30.115 203.691,31.574 206.564,34.492C209.438,37.41 210.875,41.481 210.875,46.706L210.875,69.65L202.824,69.65L202.824,47.906C202.824,44.423 201.945,41.752 200.188,39.893C198.431,38.034 196.032,37.104 192.992,37.104C189.953,37.104 187.542,38.034 185.761,39.893C183.98,41.752 183.089,44.423 183.089,47.906L183.089,69.65L174.968,69.65L174.968,30.75L183.089,30.75ZM232.349,37.316L222.802,37.316L222.802,58.849C222.802,60.308 223.146,61.355 223.835,61.99C224.524,62.626 225.699,62.943 227.361,62.943L232.349,62.943L232.349,69.65L225.937,69.65C218.385,69.65 214.609,66.05 214.609,58.849L214.609,37.316L214.609,30.75L214.609,24.49L222.802,21.078L222.802,30.75L232.349,30.75L232.349,37.316ZM238.237,69.65L238.237,30.75L246.358,30.75L246.358,69.65L238.237,69.65ZM261.479,30.75L261.479,36.893C264.091,32.374 268.271,30.115 274.018,30.115C278.435,30.115 282.08,31.574 284.954,34.492C287.827,37.41 289.264,41.481 289.264,46.706L289.264,69.65L281.214,69.65L281.214,47.906C281.214,44.423 280.335,41.752 278.578,39.893C276.82,38.034 274.422,37.104 271.382,37.104C268.342,37.104 265.932,38.034 264.151,39.893C262.37,41.752 261.479,44.423 261.479,47.906L261.479,69.65L253.357,69.65L253.357,30.75L261.479,30.75ZM312.435,70.286C306.736,70.286 302.105,68.45 298.543,64.779C294.981,61.108 293.199,56.237 293.199,50.165C293.199,44.094 295.004,39.234 298.614,35.586C302.224,31.939 306.89,30.115 312.613,30.115C318.337,30.115 322.979,31.868 326.542,35.375C330.104,38.881 331.885,43.458 331.885,49.106C331.885,50.471 331.79,51.742 331.6,52.918L301.535,52.918C301.725,56.166 302.829,58.743 304.848,60.649C306.866,62.555 309.396,63.508 312.435,63.508C316.853,63.508 319.963,61.696 321.768,58.072L330.531,58.072C329.344,61.649 327.183,64.579 324.048,66.862C320.913,69.144 317.042,70.286 312.435,70.286ZM323.407,47.412C323.359,44.211 322.291,41.658 320.201,39.752C318.111,37.846 315.57,36.893 312.578,36.893C309.586,36.893 307.08,37.846 305.062,39.752C303.043,41.658 301.891,44.211 301.606,47.412L323.407,47.412ZM336.176,69.65L336.176,16.554L344.298,13.143L344.298,69.65L336.176,69.65ZM375.295,19.966C379.896,19.966 384.035,21.027 387.712,23.15C391.388,25.273 394.258,28.248 396.322,32.073C398.385,35.899 399.417,40.238 399.417,45.091C399.417,49.943 398.385,54.282 396.322,58.108C394.258,61.934 391.388,64.92 387.712,67.066C384.035,69.213 379.896,70.286 375.295,70.286C370.693,70.286 366.554,69.213 362.878,67.066C359.201,64.92 356.32,61.934 354.232,58.108C352.145,54.282 351.101,49.943 351.101,45.091C351.101,40.238 352.145,35.899 354.232,32.073C356.32,28.248 359.201,25.273 362.878,23.15C366.554,21.027 370.693,19.966 375.295,19.966ZM375.295,22.835C371.357,22.835 367.811,23.745 364.657,25.565C361.502,27.384 359.012,29.974 357.185,33.333C355.359,36.693 354.446,40.612 354.446,45.091C354.446,49.57 355.359,53.489 357.185,56.848C359.012,60.208 361.502,62.797 364.657,64.617C367.811,66.437 371.357,67.346 375.295,67.346C379.185,67.346 382.719,66.437 385.897,64.617C389.075,62.797 391.578,60.208 393.404,56.848C395.231,53.489 396.144,49.57 396.144,45.091C396.144,40.612 395.231,36.693 393.404,33.333C391.578,29.974 389.075,27.384 385.897,25.565C382.719,23.745 379.185,22.835 375.295,22.835ZM423.485,30.101C428.039,30.101 431.739,31.5 434.585,34.3C437.432,37.099 438.855,41.229 438.855,46.687L438.855,68.873L435.653,68.873L435.653,46.827C435.653,42.255 434.49,38.767 432.166,36.365C429.841,33.962 426.663,32.76 422.631,32.76C418.456,32.76 415.1,34.102 412.562,36.784C410.024,39.467 408.755,43.421 408.755,48.647L408.755,68.873L405.553,68.873L405.553,30.871L408.755,30.871L408.755,40.879C409.704,37.333 411.519,34.65 414.199,32.83C416.879,31.011 419.974,30.101 423.485,30.101ZM463.065,66.703C466.955,66.703 470.228,65.735 472.885,63.799C475.541,61.863 477.154,59.215 477.723,55.856L481.068,55.856C480.356,59.915 478.423,63.181 475.268,65.654C472.114,68.126 468.093,69.363 463.207,69.363C459.554,69.363 456.317,68.581 453.494,67.018C450.672,65.455 448.454,63.204 446.841,60.265C445.228,57.325 444.422,53.849 444.422,49.837C444.422,45.871 445.228,42.418 446.841,39.479C448.454,36.539 450.672,34.288 453.494,32.725C456.317,31.162 459.554,30.381 463.207,30.381C466.955,30.381 470.192,31.162 472.92,32.725C475.648,34.288 477.711,36.341 479.111,38.884C480.51,41.427 481.21,44.145 481.21,47.037C481.21,48.204 481.091,49.44 480.854,50.747L447.624,50.747C447.671,54.293 448.418,57.267 449.865,59.67C451.312,62.073 453.186,63.846 455.487,64.989C457.787,66.132 460.313,66.703 463.065,66.703ZM463.207,32.97C460.408,32.97 457.847,33.553 455.522,34.72C453.198,35.886 451.312,37.659 449.865,40.039C448.418,42.418 447.671,45.358 447.624,48.857L478.079,48.857C478.269,45.358 477.676,42.407 476.3,40.004C474.924,37.601 473.074,35.828 470.75,34.685C468.425,33.542 465.911,32.97 463.207,32.97ZM494.286,30.351L494.286,36.55L493.103,36.55L493.103,32.288L491.295,36.55L490.434,36.55L488.643,32.218L488.643,36.55L487.494,36.55L487.494,30.351L488.98,30.351L490.89,35.018L492.833,30.351L494.286,30.351ZM482.489,31.32L482.489,30.351L486.392,30.351L486.392,31.32L485.04,31.32L485.057,36.55L483.824,36.55L483.824,31.32L482.489,31.32Z" style="fill:rgb(84,45,120);"/>
                    </g>
                </g>
            </g>
        </g>
    </g>
    <g transform="matrix(1,0,0,1,50.228,6.44176)">
        <text x="667.634px" y="406.825px" style="font-family:'Nunito-Regular', 'Nunito';font-size:23px;fill:rgb(97,102,113);">Windo<tspan x="737.37px 756.529px " y="406.825px 406.825px ">ws</tspan></text>
        <text x="666.875px" y="429.825px" style="font-family:'Nunito-Regular', 'Nunito';font-size:23px;fill:rgb(97,102,113);">&amp; Mac OS</text>
    </g>
    <g transform="matrix(1,0,0,1,52.3329,-0.154672)">
        <text x="403.47px" y="422.898px" style="font-family:'Nunito-Regular', 'Nunito';font-size:23px;fill:rgb(97,102,113);">Anywher<tspan x="497.517px " y="422.898px ">e</tspan></text>
    </g>
    <g>
        <g transform="matrix(1.30226,0,0,1.32108,-204.446,-127.853)">
            <circle cx="647.844" cy="408.008" r="42.37" style="fill:white;stroke:white;stroke-width:4.19px;"/>
        </g>
        <g transform="matrix(0.696786,0,0,0.696786,586.957,359.451)">
            <path d="M75,0C33.7,0 0,33.706 0,75C0,116.3 33.706,150 75,150C116.3,150 150,116.294 150,75C150,33.7 116.294,0 75,0ZM60.415,10.411C53.293,17.169 47.418,25.013 42.87,33.856C42.598,34.384 42.334,34.916 42.073,35.45L21.931,35.45C31.225,23.012 44.781,13.94 60.415,10.411ZM16.384,44.18L38.354,44.18C35.312,52.607 33.524,61.583 33.084,70.605L8.938,70.605C9.562,61.139 12.183,52.153 16.384,44.18ZM8.938,79.395L33.084,79.395C33.524,88.417 35.312,97.335 38.354,105.762L16.384,105.762C12.183,97.789 9.562,88.861 8.938,79.395ZM21.931,114.551L42.073,114.551C42.334,115.084 42.598,115.616 42.87,116.144C47.418,124.987 53.293,132.831 60.415,139.589C44.781,136.061 31.225,126.988 21.931,114.551ZM70.605,136.849C63.046,130.554 56.791,122.983 52.061,114.551L70.605,114.551L70.605,136.849ZM70.605,105.762L47.811,105.762C44.412,97.479 42.378,88.581 41.885,79.395L70.605,79.395L70.605,105.762ZM70.605,70.605L41.885,70.605C42.378,61.419 44.412,52.521 47.811,44.238L70.605,44.238L70.605,70.605ZM70.605,35.449L52.061,35.449C56.791,27.017 63.046,19.446 70.605,13.152L70.605,35.449ZM141.062,70.605L116.916,70.605C116.476,61.583 114.688,52.665 111.646,44.238L133.616,44.238C137.817,52.211 140.438,61.139 141.062,70.605ZM128.069,35.449L107.927,35.449C107.666,34.916 107.402,34.384 107.131,33.856C102.582,25.013 96.707,17.169 89.585,10.411C105.219,13.94 118.775,23.012 128.069,35.449ZM79.395,13.151C86.954,19.446 93.209,27.017 97.939,35.449L79.395,35.449L79.395,13.151ZM79.395,44.238L102.189,44.238C105.588,52.521 107.622,61.419 108.115,70.605L79.395,70.605L79.395,44.238ZM79.395,79.336L108.115,79.336C107.622,88.522 105.588,97.479 102.189,105.762L79.395,105.762L79.395,79.336ZM79.395,136.849L79.395,114.492L97.939,114.492C93.209,122.924 86.954,130.554 79.395,136.849ZM89.585,139.589C96.707,132.831 102.582,124.928 107.131,116.085C107.402,115.557 107.666,115.025 107.927,114.492L128.069,114.492C118.775,126.93 105.219,136.061 89.585,139.589ZM133.616,105.762L111.646,105.762C114.688,97.335 116.476,88.359 116.916,79.336L141.062,79.336C140.438,88.802 137.817,97.789 133.616,105.762Z" style="fill:rgb(99,101,105);fill-rule:nonzero;stroke:white;stroke-width:1.44px;stroke-linecap:butt;stroke-miterlimit:1.41421;"/>
        </g>
    </g>
    <path id="Cloud" d="M608.242,122.971C608.242,122.971 619.804,50.826 689.137,45.996C759.814,41.073 792.816,118.874 781.059,152.28C781.059,152.28 838.025,173.812 822.744,233.738C813.97,268.149 790.97,278.995 776.222,284.94C758.475,292.095 493.067,286.925 493.067,286.925C493.067,286.925 455.917,276.49 457.672,233.738C459.426,190.986 496.203,188.07 513.166,188.123C513.166,188.123 503.517,137.663 537.25,119.074C570.983,100.485 597.155,116.643 608.242,122.971Z" style="fill:none;"/>
    <clipPath id="_clip9">
        <path id="Cloud1" serif:id="Cloud" d="M608.242,122.971C608.242,122.971 619.804,50.826 689.137,45.996C759.814,41.073 792.816,118.874 781.059,152.28C781.059,152.28 838.025,173.812 822.744,233.738C813.97,268.149 790.97,278.995 776.222,284.94C758.475,292.095 493.067,286.925 493.067,286.925C493.067,286.925 455.917,276.49 457.672,233.738C459.426,190.986 496.203,188.07 513.166,188.123C513.166,188.123 503.517,137.663 537.25,119.074C570.983,100.485 597.155,116.643 608.242,122.971Z"/>
    </clipPath>
    <g clip-path="url(#_clip9)">
        <g id="SonicWall_Registered-2C" transform="matrix(0.144417,0,0,0.143054,660.31,205.449)">
            <g transform="matrix(1,0,0,1,-900,-150)">
                <clipPath id="_clip10">
                    <rect x="0" y="0" width="1800" height="300"/>
                </clipPath>
                <g clip-path="url(#_clip10)">
                    <g transform="matrix(4.16667,0,0,4.16667,0,0)">
                        <path d="M67.203,6.994C63.766,6.994 60.509,7.889 57.432,9.68C54.354,11.47 51.95,13.882 50.222,16.915C48.493,19.948 47.629,23.329 47.629,27.057C47.629,32.576 49.542,37.236 53.367,41.038C57.193,44.841 61.805,46.741 67.203,46.741C70.807,46.741 74.143,45.867 77.21,44.119C80.277,42.371 82.67,39.979 84.387,36.947C86.106,33.914 86.965,30.544 86.965,26.835C86.965,23.15 86.106,19.817 84.387,16.836C82.67,13.856 80.25,11.47 77.132,9.68C74.011,7.889 70.702,6.994 67.203,6.994ZM66.997,2.48C74.031,2.48 79.917,4.827 84.655,9.52C89.394,14.213 91.763,19.99 91.763,26.851C91.763,33.65 89.4,39.417 84.671,44.152C79.944,48.888 74.178,51.255 67.376,51.255C60.489,51.255 54.676,48.898 49.938,44.184C45.199,39.469 42.83,33.766 42.83,27.073C42.83,22.611 43.909,18.475 46.068,14.666C48.227,10.857 51.17,7.873 54.898,5.715C58.625,3.559 62.658,2.48 66.997,2.48Z" style="fill:rgb(104,105,107);fill-rule:nonzero;"/>
                        <path d="M104.352,51.634L104.352,2.313L105.425,2.313L138.25,40.119L138.25,2.313L143.112,2.313L143.112,51.634L142.005,51.634L109.448,14.287L109.448,51.634L104.352,51.634Z" style="fill:rgb(104,105,107);fill-rule:nonzero;"/>
                        <rect x="156.478" y="2.292" width="4.614" height="49.25" style="fill:rgb(104,105,107);"/>
                        <path d="M312.1,32.106L318.668,15.298L325.198,32.106L312.1,32.106ZM323.336,2.318L313.885,2.318L300.577,37.918L327.342,38.024L332.481,51.376L342.166,51.376L323.336,2.318Z" style="fill:rgb(104,105,107);fill-rule:nonzero;"/>
                        <path d="M352.234,2.318L361.552,2.318L361.552,42.391L380.131,42.391L380.131,51.276L352.234,51.276L352.234,2.318Z" style="fill:rgb(104,105,107);fill-rule:nonzero;"/>
                        <path d="M390.033,2.318L399.352,2.318L399.352,42.391L417.932,42.391L417.932,51.276L390.033,51.276L390.033,2.318Z" style="fill:rgb(104,105,107);fill-rule:nonzero;"/>
                        <path d="M315.067,72C315.067,72 292.271,63.793 287.244,50.135C281.616,34.846 302.483,31.356 323.826,31.964C335.328,32.291 349.386,34.041 349.386,34.041C349.386,34.041 316.175,38.269 304.174,47.954C292.455,57.411 315.067,72 315.067,72Z" style="fill:rgb(243,109,36);fill-rule:nonzero;"/>
                        <path d="M216.058,39.671C211.704,44.582 206.33,47.045 199.926,47.045C193.982,47.045 189.058,45.141 185.155,41.333C181.252,37.525 179.301,32.776 179.301,27.085C179.301,23.32 180.173,19.93 181.919,16.915C183.664,13.9 186.123,11.5 189.296,9.712C192.469,7.925 195.917,7.03 199.641,7.03C203.047,7.03 206.172,7.712 209.018,9.078C211.737,10.382 214.081,12.278 216.058,14.752L216.058,8.433C214.649,7.265 213.092,5.855 211.382,5.016C207.87,3.291 203.935,2.43 199.577,2.43C192.364,2.43 186.361,4.762 181.569,9.426C176.778,14.091 174.382,19.84 174.382,26.673C174.382,33.167 176.36,38.71 180.316,43.3C185.033,48.737 191.475,51.455 199.641,51.455C203.935,51.455 207.822,50.646 211.302,49.027C213.029,48.225 214.614,46.852 216.058,45.719L216.058,39.671Z" style="fill:rgb(104,105,107);fill-rule:nonzero;"/>
                        <path d="M17.679,24.622C6.569,22.347 4.463,19.449 4.463,14.899L4.463,14.766C4.463,9.949 9.053,6.454 15.377,6.454C20.673,6.454 24.875,8.042 28.999,11.605L29.388,11.941L29.484,11.822L29.484,6.379C25.218,3.528 20.99,2.324 15.51,2.324C6.668,2.324 0,7.816 0,15.099L0,15.232C0,22.595 4.678,26.544 16.147,28.866C26.918,31.034 28.961,33.862 28.961,38.321L28.961,38.455C28.961,43.624 24.307,47.233 17.646,47.233C11.149,47.233 6.547,45.324 1.233,40.426L0.858,40.079L0.773,40.177L0.773,45.794C5.865,49.624 11.119,51.363 17.446,51.363C26.853,51.363 33.424,45.918 33.424,38.122L33.424,37.987C33.424,30.868 28.715,26.871 17.679,24.622Z" style="fill:rgb(104,105,107);fill-rule:nonzero;"/>
                        <path d="M286.515,2.317L275.321,35.625L275.08,36.343L274.843,35.623L263.811,2.175L254.852,2.175L243.819,35.623L243.582,36.343L243.341,35.625L232.149,2.317L221.034,2.317L238.743,51.507L247.851,51.507L258.95,19.429L259.19,18.74L259.428,19.429L270.529,51.507L279.637,51.507L297.345,2.317L286.515,2.317Z" style="fill:rgb(104,105,107);fill-rule:nonzero;"/>
                        <path d="M424.644,3.819L424.644,5.644L425.46,5.644C426.132,5.644 426.444,5.332 426.444,4.755C426.444,4.179 426.132,3.819 425.46,3.819L424.644,3.819ZM426.804,9.292L425.268,6.748L424.644,6.748L424.644,9.292L422.94,9.292L422.94,2.715L425.868,2.715C427.477,2.715 428.149,3.675 428.149,4.731C428.149,5.572 427.716,6.268 426.924,6.556L428.796,9.292L426.804,9.292ZM425.437,1.227C422.772,1.227 420.611,3.387 420.611,6.052C420.611,8.716 422.772,10.876 425.437,10.876C428.101,10.876 430.284,8.716 430.284,6.052C430.284,3.387 428.101,1.227 425.437,1.227ZM425.437,11.596C422.388,11.596 419.892,9.124 419.892,6.052C419.892,2.979 422.388,0.507 425.437,0.507C428.509,0.507 431.005,2.979 431.005,6.052C431.005,9.124 428.509,11.596 425.437,11.596Z" style="fill:rgb(104,105,107);fill-rule:nonzero;"/>
                    </g>
                </g>
            </g>
        </g>
        <g transform="matrix(1,0,0,1,137.775,-1.28062)">
            <text x="382.443px" y="252.846px" style="font-family:'Nunito-Regular', 'Nunito';font-size:23px;fill:rgb(97,102,113);">Cloud-Based Management</text>
        </g>
    </g>
    <path id="Cloud2" serif:id="Cloud" d="M608.242,122.971C608.242,122.971 619.804,50.826 689.137,45.996C759.814,41.073 792.816,118.874 781.059,152.28C781.059,152.28 838.025,173.812 822.744,233.738C813.97,268.149 790.97,278.995 776.222,284.94C758.475,292.095 493.067,286.925 493.067,286.925C493.067,286.925 455.917,276.49 457.672,233.738C459.426,190.986 496.203,188.07 513.166,188.123C513.166,188.123 503.517,137.663 537.25,119.074C570.983,100.485 597.155,116.643 608.242,122.971Z" style="fill:none;stroke:rgb(187,211,235);stroke-width:5.5px;"/>
    <path id="arrow-bottom" serif:id="arrow bottom" d="M639.449,508.065L639.449,476.731L639.449,469.117" style="fill:rgb(187,211,235);stroke:rgb(187,211,235);stroke-width:3px;"/>
    <g id="arrow-top" serif:id="arrow top" transform="matrix(1,0,0,1,0,-155)">
        <path d="M639.449,508.065L639.449,454.25" style="fill:rgb(187,211,235);stroke:rgb(187,211,235);stroke-width:3px;"/>
    </g>
    <g transform="matrix(2.14916e-17,-0.350985,0.350985,2.14916e-17,639.138,493.591)">
        <g transform="matrix(1,0,0,1,-30.5,-31)">
            <g transform="matrix(4.38195,0,0,4.38195,-2240.36,-1592.79)">
                <g transform="matrix(1.79751,0,0,1.79751,-389.121,-288.662)">
                    <circle cx="504.776" cy="366.799" r="3.865" style="fill:rgb(243,110,35);"/>
                </g>
                <g transform="matrix(1.402,0,0,1.402,-207.997,-149.955)">
                    <g transform="matrix(1,0,0,0.771459,0.544678,85.3884)">
                        <path d="M516.676,367.704L519.636,370.664" style="fill:white;stroke:white;stroke-width:1.56px;"/>
                    </g>
                    <g transform="matrix(1,0,0,-0.771459,0.544678,657.292)">
                        <path d="M516.676,367.704L519.636,370.664" style="fill:white;stroke:white;stroke-width:1.56px;"/>
                    </g>
                </g>
            </g>
        </g>
    </g>
</svg>
