<?xml version="1.0" encoding="UTF-8" standalone="no"?>
<!DOCTYPE svg PUBLIC "-//W3C//DTD SVG 1.1//EN" "http://www.w3.org/Graphics/SVG/1.1/DTD/svg11.dtd">
<svg width="100%" height="100%" viewBox="0 0 347 75" version="1.1" xmlns="http://www.w3.org/2000/svg" xmlns:xlink="http://www.w3.org/1999/xlink" xml:space="preserve" xmlns:serif="http://www.serif.com/" style="fill-rule:evenodd;clip-rule:evenodd;stroke-miterlimit:1.41421;">
    <g transform="matrix(1,0,0,1,-122,-416)">
        <g id="Blue">
            <g id="LOREM" transform="matrix(1.12801,0,0,1.12801,-859.642,182.865)">
                <text x="869.273px" y="217.133px" style="font-family:'Nunito-Light', 'Nunito';font-weight:300;font-size:13.5px;fill:white;">L<tspan x="875.996px " y="217.133px ">O</tspan>REM</text>
            </g>
            <g id="LOREM1" serif:id="LOREM" transform="matrix(1.12801,0,0,1.12801,-859.642,239.657)">
                <text x="869.273px" y="217.133px" style="font-family:'Nunito-Light', 'Nunito';font-weight:300;font-size:13.5px;fill:white;">L<tspan x="875.996px " y="217.133px ">O</tspan>REM</text>
            </g>
            <g id="LOREM2" serif:id="LOREM" transform="matrix(1.12801,0,0,1.12801,-859.642,212.123)">
                <text x="869.273px" y="217.133px" style="font-family:'Nunito-Light', 'Nunito';font-weight:300;font-size:13.5px;fill:white;">L<tspan x="875.996px " y="217.133px ">O</tspan>REM</text>
            </g>
            <g transform="matrix(1.14786,0,0,1.13723,-631.105,-628.639)">
                <g transform="matrix(0.928335,0,0,0.937012,47.7369,57.5768)">
                    <path d="M980.729,933.829C980.729,932.84 979.925,932.036 978.935,932.036L657.648,932.036C656.658,932.036 655.854,932.84 655.854,933.829C655.854,934.819 656.658,935.623 657.648,935.623L978.935,935.623C979.925,935.623 980.729,934.819 980.729,933.829Z" style="fill:url(#_Radial1);"/>
                </g>
                <g transform="matrix(0.932656,0,0,0.937012,44.0679,57.5768)">
                    <path d="M849.164,932.933C849.164,932.438 848.762,932.036 848.267,932.036C848.267,932.036 677.648,932.036 658.276,932.036C657.291,932.036 656.492,932.838 656.492,933.828C656.492,933.829 656.492,933.83 656.492,933.831C656.492,934.821 657.291,935.623 658.276,935.623C677.648,935.623 848.267,935.623 848.267,935.623C848.762,935.623 849.164,935.221 849.164,934.726L849.164,932.933Z" style="fill:none;stroke:white;stroke-width:0.05px;"/>
                </g>
                <g transform="matrix(0.928335,0,0,0.937012,47.7369,57.5768)">
                    <path d="M980.729,961.41C980.729,960.42 979.925,959.616 978.935,959.616L657.648,959.616C656.658,959.616 655.854,960.42 655.854,961.41C655.854,962.399 656.658,963.203 657.648,963.203L978.935,963.203C979.925,963.203 980.729,962.399 980.729,961.41Z" style="fill:url(#_Radial2);"/>
                </g>
                <g transform="matrix(0.928335,0,0,0.937012,47.7369,57.5768)">
                    <path d="M825.107,961.41C825.107,960.42 824.303,959.616 823.313,959.616L657.389,959.616C656.399,959.616 655.595,960.42 655.595,961.41C655.595,962.399 656.399,963.203 657.389,963.203L823.313,963.203C824.303,963.203 825.107,962.399 825.107,961.41Z" style="fill:none;stroke:white;stroke-width:0.05px;"/>
                </g>
                <g transform="matrix(0.928335,0,0,0.937012,48.2438,57.5768)">
                    <path d="M979.924,987.314C979.924,986.324 979.12,985.52 978.13,985.52L656.843,985.52C655.853,985.52 655.049,986.324 655.049,987.314C655.049,988.303 655.853,989.107 656.843,989.107L978.13,989.107C979.12,989.107 979.924,988.303 979.924,987.314Z" style="fill:url(#_Radial3);"/>
                </g>
                <g transform="matrix(0.928335,0,0,0.937012,48.2438,57.5768)">
                    <path d="M809.72,987.314C809.72,986.324 808.916,985.52 807.927,985.52L656.843,985.52C655.854,985.52 655.05,986.324 655.05,987.314C655.05,988.303 655.854,989.107 656.843,989.107L807.927,989.107C808.916,989.107 809.72,988.303 809.72,987.314Z" style="fill:none;stroke:white;stroke-width:0.05px;"/>
                </g>
                <g transform="matrix(0.928335,0,0,0.937012,47.7369,57.5768)">
                    <path d="M849.164,932.036C849.164,932.036 676.688,932.036 657.352,932.036C656.886,932.036 656.439,932.221 656.109,932.55C655.78,932.88 655.595,933.327 655.595,933.793C655.595,933.817 655.595,933.842 655.595,933.866C655.595,934.332 655.78,934.779 656.109,935.109C656.439,935.438 656.886,935.623 657.352,935.623C676.688,935.623 849.164,935.623 849.164,935.623L849.164,932.036Z" style="fill:rgb(77,142,175);"/>
                </g>
                <g transform="matrix(0.928335,0,0,0.937012,47.7369,57.5768)">
                    <path d="M825.107,959.616C825.107,959.616 675.262,959.616 657.341,959.616C656.878,959.616 656.434,959.8 656.106,960.127C655.779,960.455 655.595,960.899 655.595,961.362C655.595,961.394 655.595,961.425 655.595,961.457C655.595,961.92 655.779,962.364 656.106,962.692C656.434,963.019 656.878,963.203 657.341,963.203C675.262,963.203 825.107,963.203 825.107,963.203L825.107,959.616Z" style="fill:rgb(77,142,175);"/>
                </g>
                <g transform="matrix(0.928335,0,0,0.937012,48.2438,57.5768)">
                    <path d="M809.72,985.52C809.72,985.52 673.983,985.52 656.825,985.52C656.355,985.52 655.903,985.707 655.57,986.04C655.237,986.373 655.05,986.825 655.05,987.295C655.05,987.307 655.05,987.32 655.05,987.332C655.05,987.802 655.237,988.254 655.57,988.587C655.903,988.92 656.355,989.107 656.825,989.107C673.983,989.107 809.72,989.107 809.72,989.107L809.72,985.52Z" style="fill:rgb(77,142,175);"/>
                </g>
            </g>
        </g>
    </g>
    <defs>
        <radialGradient id="_Radial1" cx="0" cy="0" r="1" gradientUnits="userSpaceOnUse" gradientTransform="matrix(944.734,0,0,944.734,753.076,560.418)"><stop offset="0" style="stop-color:rgb(63,63,65);stop-opacity:1"/><stop offset="1" style="stop-color:rgb(30,27,28);stop-opacity:1"/></radialGradient>
        <radialGradient id="_Radial2" cx="0" cy="0" r="1" gradientUnits="userSpaceOnUse" gradientTransform="matrix(944.734,0,0,944.734,753.076,560.418)"><stop offset="0" style="stop-color:rgb(63,63,65);stop-opacity:1"/><stop offset="1" style="stop-color:rgb(30,27,28);stop-opacity:1"/></radialGradient>
        <radialGradient id="_Radial3" cx="0" cy="0" r="1" gradientUnits="userSpaceOnUse" gradientTransform="matrix(944.734,0,0,944.734,753.076,560.418)"><stop offset="0" style="stop-color:rgb(63,63,65);stop-opacity:1"/><stop offset="1" style="stop-color:rgb(30,27,28);stop-opacity:1"/></radialGradient>
    </defs>
</svg>
