<?xml version="1.0" encoding="UTF-8" standalone="no"?>
<!DOCTYPE svg PUBLIC "-//W3C//DTD SVG 1.1//EN" "http://www.w3.org/Graphics/SVG/1.1/DTD/svg11.dtd">
<svg width="100%" height="100%" viewBox="0 0 423 594" version="1.1" xmlns="http://www.w3.org/2000/svg" xmlns:xlink="http://www.w3.org/1999/xlink" xml:space="preserve" xmlns:serif="http://www.serif.com/" style="fill-rule:evenodd;clip-rule:evenodd;stroke-linejoin:round;stroke-miterlimit:1.41421;">
    <g transform="matrix(1,0,0,1,-346,-84)">
        <g id="Blue">
            <g transform="matrix(1.01163,0,0,1,-8.47906,-1.27898e-13)">
                <path d="M729.232,96.062C729.232,89.646 724.083,84.437 717.74,84.437L544.271,84.437C537.929,84.437 532.779,89.646 532.779,96.062L532.779,665.894C532.779,672.31 537.929,677.52 544.271,677.52L717.74,677.52C724.083,677.52 729.232,672.31 729.232,665.894L729.232,96.062Z" style="fill:rgb(253,163,72);"/>
            </g>
            <g transform="matrix(1.00852,0,0,1,-4.30925,0)">
                <rect x="347.816" y="114.152" width="157.777" height="2.921" style="fill:rgb(253,163,72);"/>
            </g>
            <g transform="matrix(1.00852,0,0,1,-4.30925,75.5742)">
                <rect x="347.816" y="114.152" width="157.777" height="2.921" style="fill:rgb(253,163,72);"/>
            </g>
            <g transform="matrix(1.00852,0,0,1,-4.30925,151.64)">
                <rect x="347.816" y="114.152" width="157.777" height="2.921" style="fill:rgb(253,163,72);"/>
            </g>
            <g transform="matrix(1.00852,0,0,1,-4.30925,227.14)">
                <rect x="347.816" y="114.152" width="157.777" height="2.921" style="fill:rgb(253,163,72);"/>
            </g>
            <g transform="matrix(1.00852,0,0,1,-4.30925,302.643)">
                <rect x="347.816" y="114.152" width="157.777" height="2.921" style="fill:rgb(253,163,72);"/>
            </g>
            <g transform="matrix(1.00852,0,0,1,-4.30925,378.702)">
                <rect x="347.816" y="114.152" width="157.777" height="2.921" style="fill:rgb(253,163,72);"/>
            </g>
            <g transform="matrix(1.00852,0,0,1,-4.30925,454.121)">
                <rect x="347.816" y="114.152" width="157.777" height="2.921" style="fill:rgb(253,163,72);"/>
            </g>
            <g transform="matrix(1.00852,0,0,1,-4.30925,529.879)">
                <rect x="347.816" y="114.152" width="157.777" height="2.921" style="fill:rgb(253,163,72);"/>
            </g>
            <rect x="496.271" y="114.152" width="9.322" height="532.8" style="fill:rgb(253,163,72);"/>
            <rect x="465.411" y="109.929" width="2.689" height="12.295" style="fill:rgb(253,163,72);"/>
            <g transform="matrix(1,0,0,1,-39.79,0)">
                <rect x="465.411" y="109.929" width="2.689" height="12.295" style="fill:rgb(253,163,72);"/>
            </g>
            <g transform="matrix(1,0,0,1,-79.3056,0)">
                <rect x="465.411" y="109.929" width="2.689" height="12.295" style="fill:rgb(253,163,72);"/>
            </g>
            <g transform="matrix(1,0,0,1,-118.992,0)">
                <rect x="465.411" y="109.929" width="2.689" height="12.295" style="fill:rgb(253,163,72);"/>
            </g>
            <g transform="matrix(1,0,0,1,-118.992,75.5702)">
                <rect x="465.411" y="109.929" width="2.689" height="12.295" style="fill:rgb(253,163,72);"/>
            </g>
            <g transform="matrix(1,0,0,1,-79.2153,75.5702)">
                <rect x="465.411" y="109.929" width="2.689" height="12.295" style="fill:rgb(253,163,72);"/>
            </g>
            <g transform="matrix(1,0,0,1,-39.7233,75.5876)">
                <rect x="465.411" y="109.929" width="2.689" height="12.295" style="fill:rgb(253,163,72);"/>
            </g>
            <g transform="matrix(1,0,0,1,0.0302559,75.5876)">
                <rect x="465.411" y="109.929" width="2.689" height="12.295" style="fill:rgb(253,163,72);"/>
            </g>
            <g transform="matrix(1,0,0,1,-118.939,151.168)">
                <rect x="465.411" y="109.929" width="2.689" height="12.295" style="fill:rgb(253,163,72);"/>
            </g>
            <g transform="matrix(1,0,0,1,-79.1625,151.168)">
                <rect x="465.411" y="109.929" width="2.689" height="12.295" style="fill:rgb(253,163,72);"/>
            </g>
            <g transform="matrix(1,0,0,1,-39.6705,151.185)">
                <rect x="465.411" y="109.929" width="2.689" height="12.295" style="fill:rgb(253,163,72);"/>
            </g>
            <g transform="matrix(1,0,0,1,0.0830575,151.185)">
                <rect x="465.411" y="109.929" width="2.689" height="12.295" style="fill:rgb(253,163,72);"/>
            </g>
            <g transform="matrix(1,0,0,1,-118.939,227.029)">
                <rect x="465.411" y="109.929" width="2.689" height="12.295" style="fill:rgb(253,163,72);"/>
            </g>
            <g transform="matrix(1,0,0,1,-79.1625,227.029)">
                <rect x="465.411" y="109.929" width="2.689" height="12.295" style="fill:rgb(253,163,72);"/>
            </g>
            <g transform="matrix(1,0,0,1,-39.6705,227.047)">
                <rect x="465.411" y="109.929" width="2.689" height="12.295" style="fill:rgb(253,163,72);"/>
            </g>
            <g transform="matrix(1,0,0,1,0.0830575,227.047)">
                <rect x="465.411" y="109.929" width="2.689" height="12.295" style="fill:rgb(253,163,72);"/>
            </g>
            <g transform="matrix(1,0,0,1,-118.992,302.874)">
                <rect x="465.411" y="109.929" width="2.689" height="12.295" style="fill:rgb(253,163,72);"/>
            </g>
            <g transform="matrix(1,0,0,1,-79.2153,302.874)">
                <rect x="465.411" y="109.929" width="2.689" height="12.295" style="fill:rgb(253,163,72);"/>
            </g>
            <g transform="matrix(1,0,0,1,-39.7233,302.891)">
                <rect x="465.411" y="109.929" width="2.689" height="12.295" style="fill:rgb(253,163,72);"/>
            </g>
            <g transform="matrix(1,0,0,1,0.0302559,302.891)">
                <rect x="465.411" y="109.929" width="2.689" height="12.295" style="fill:rgb(253,163,72);"/>
            </g>
            <g transform="matrix(1,0,0,1,-118.939,378.23)">
                <rect x="465.411" y="109.929" width="2.689" height="12.295" style="fill:rgb(253,163,72);"/>
            </g>
            <g transform="matrix(1,0,0,1,-79.1625,378.23)">
                <rect x="465.411" y="109.929" width="2.689" height="12.295" style="fill:rgb(253,163,72);"/>
            </g>
            <g transform="matrix(1,0,0,1,-39.6705,378.247)">
                <rect x="465.411" y="109.929" width="2.689" height="12.295" style="fill:rgb(253,163,72);"/>
            </g>
            <g transform="matrix(1,0,0,1,0.0830575,378.247)">
                <rect x="465.411" y="109.929" width="2.689" height="12.295" style="fill:rgb(253,163,72);"/>
            </g>
            <g transform="matrix(1,0,0,1,-119,453.93)">
                <rect x="465.411" y="109.929" width="2.689" height="12.295" style="fill:rgb(253,163,72);"/>
            </g>
            <g transform="matrix(1,0,0,1,-79.2233,453.93)">
                <rect x="465.411" y="109.929" width="2.689" height="12.295" style="fill:rgb(253,163,72);"/>
            </g>
            <g transform="matrix(1,0,0,1,-39.7314,453.948)">
                <rect x="465.411" y="109.929" width="2.689" height="12.295" style="fill:rgb(253,163,72);"/>
            </g>
            <g transform="matrix(1,0,0,1,0.0221956,453.948)">
                <rect x="465.411" y="109.929" width="2.689" height="12.295" style="fill:rgb(253,163,72);"/>
            </g>
            <g transform="matrix(1,0,0,1,-119,529.709)">
                <rect x="465.411" y="109.929" width="2.689" height="12.295" style="fill:rgb(253,163,72);"/>
            </g>
            <g transform="matrix(1,0,0,1,-79.2233,529.709)">
                <rect x="465.411" y="109.929" width="2.689" height="12.295" style="fill:rgb(253,163,72);"/>
            </g>
            <g transform="matrix(1,0,0,1,-39.7314,529.726)">
                <rect x="465.411" y="109.929" width="2.689" height="12.295" style="fill:rgb(253,163,72);"/>
            </g>
            <g transform="matrix(1,0,0,1,0.0221956,529.726)">
                <rect x="465.411" y="109.929" width="2.689" height="12.295" style="fill:rgb(253,163,72);"/>
            </g>
            <g transform="matrix(1.28226,0,0,0.307301,-145.124,263.725)">
                <rect x="505.593" y="366.058" width="24.902" height="26.857" style="fill:rgb(253,163,72);"/>
            </g>
            <g transform="matrix(1.08067,0,0,0.895664,-61.9585,29.171)">
                <rect x="729.232" y="270.493" width="38.776" height="9.094" style="fill:rgb(253,163,72);"/>
            </g>
            <g transform="matrix(1.08067,0,0,0.303593,-62.9441,368.844)">
                <rect x="729.232" y="513.562" width="38.776" height="28.502" style="fill:rgb(253,163,72);"/>
            </g>
            <g transform="matrix(1,0,0,1,-0.918292,12.6614)">
                <text x="545.004px" y="371.133px" style="font-family:'Nunito-Regular', 'Nunito';font-size:23px;fill:white;">SM Inter<tspan x="631.254px " y="371.133px ">c</tspan>onnect</text>
            </g>
        </g>
    </g>
</svg>
