<?xml version="1.0" encoding="UTF-8" standalone="no"?>
<!DOCTYPE svg PUBLIC "-//W3C//DTD SVG 1.1//EN" "http://www.w3.org/Graphics/SVG/1.1/DTD/svg11.dtd">
<svg width="100%" height="100%" viewBox="0 0 468 246" version="1.1" xmlns="http://www.w3.org/2000/svg" xmlns:xlink="http://www.w3.org/1999/xlink" xml:space="preserve" xmlns:serif="http://www.serif.com/" style="fill-rule:evenodd;clip-rule:evenodd;stroke-linejoin:round;stroke-miterlimit:1.41421;">
    <g transform="matrix(1,0,0,1,-13,-82)">
        <g id="Blue">
            <g transform="matrix(1,0,0,1,-304.227,-124.813)">
                <g transform="matrix(0.933773,0,0,0.933773,22.6486,23.8347)">
                    <text x="343.957px" y="370.205px" style="font-family:'Nunito-Regular', 'Nunito';font-size:14.5px;fill:rgb(173,173,173);">A<tspan x="354.339px " y="370.205px ">t</tspan> ver<tspan x="382.991px " y="370.205px ">o</tspan> eos et accusamus et ius<tspan x="547.638px " y="370.205px ">t</tspan>o odio dignissimos ducimus qui blanditiis</text>
                    <text x="375.741px" y="391.623px" style="font-family:'Nunito-Regular', 'Nunito';font-size:14.5px;fill:rgb(173,173,173);">praesentium v<tspan x="467.294px " y="391.623px ">o</tspan>luptatum deleniti atque corrupti quos dolor<tspan x="750.348px " y="391.623px ">e</tspan>s et quas</text>
                    <text x="343.275px" y="413.042px" style="font-family:'Nunito-Regular', 'Nunito';font-size:14.5px;fill:rgb(173,173,173);">molestias e<tspan x="415.79px 423.156px " y="413.042px 413.042px ">xc</tspan>epturi sint occaecati cupiditate non pr<tspan x="671.903px " y="413.042px ">o</tspan>vident<tspan x="720.13px " y="413.042px ">,</tspan> similique sunt</text>
                    <text x="341.564px" y="434.46px" style="font-family:'Nunito-Regular', 'Nunito';font-size:14.5px;fill:rgb(173,173,173);">in culpa qui ofﬁcia deserunt mollitia animi, id est laborum e<tspan x="717.868px " y="434.46px ">t</tspan> dolorum fuga.</text>
                    <text x="459.261px" y="455.879px" style="font-family:'Nunito-Regular', 'Nunito';font-size:14.5px;fill:rgb(173,173,173);">Et harum quidem r<tspan x="578.726px " y="455.879px ">e</tspan>rum facilis es<tspan x="670.352px " y="455.879px ">t</tspan> et e<tspan x="702.832px " y="455.879px ">x</tspan>pedita distinctio<tspan x="812.858px " y="455.879px ">.</tspan></text>
                </g>
                <g transform="matrix(1.43244,0,0,1.43244,-510.116,-95.3261)">
                    <text x="813.575px" y="311.986px" style="font-family:'Nunito-SemiBold', 'Nunito';font-weight:600;font-size:13.5px;fill:white;">L<tspan x="820.46px " y="311.986px ">O</tspan>REM IPSUM</text>
                </g>
            </g>
            <g transform="matrix(1,0,0,1,-358.886,-199.932)">
                <g transform="matrix(0.933773,0,0,0.933773,22.6486,23.8347)">
                    <text x="400.743px" y="370.205px" style="font-family:'Nunito-Regular', 'Nunito';font-size:14.457px;fill:rgb(173,173,173);">Malorum adipisci at est<tspan x="549.264px " y="370.205px ">,</tspan> quo ei sonet err<tspan x="656.365px " y="370.205px ">o</tspan>ribus scribentur<tspan x="764.435px " y="370.205px ">.</tspan> Eam at</text>
                    <text x="374.3px" y="391.623px" style="font-family:'Nunito-Regular', 'Nunito';font-size:14.457px;fill:rgb(173,173,173);">quis dolor<tspan x="437.624px " y="391.623px ">e</tspan> albucius, libris f<tspan x="547.732px " y="391.623px ">a</tspan>stidii per<tspan x="610.376px " y="391.623px ">c</tspan>ipitur ne eam, nisl aeque cu pri.</text>
                </g>
                <g transform="matrix(1.43244,0,0,1.43244,-510.116,-95.3261)">
                    <text x="739.123px" y="311.986px" style="font-family:'Nunito-SemiBold', 'Nunito';font-weight:600;font-size:13.5px;fill:white;">L<tspan x="746.008px " y="311.986px ">O</tspan>REM IPSUM DOL<tspan x="861.527px " y="311.986px ">O</tspan>R SIT</text>
                </g>
            </g>
            <g transform="matrix(1,0,0,1,-394.557,-255.075)">
                <g transform="matrix(0.933773,0,0,0.933773,22.6486,23.8347)">
                    <text x="437.942px" y="370.205px" style="font-family:'Nunito-Regular', 'Nunito';font-size:14.457px;fill:rgb(173,173,173);">Duo liber tacimates ut<tspan x="579.336px " y="370.205px ">,</tspan> ubique aliquando disputando e<tspan x="784.777px " y="370.205px ">x</tspan> pri.</text>
                </g>
                <g transform="matrix(1.43244,0,0,1.43244,-510.116,-95.3261)">
                    <text x="813.575px" y="311.986px" style="font-family:'Nunito-SemiBold', 'Nunito';font-weight:600;font-size:13.5px;fill:white;">L<tspan x="820.46px " y="311.986px ">O</tspan>REM IPSUM</text>
                </g>
            </g>
        </g>
    </g>
</svg>
