<?xml version="1.0" encoding="UTF-8" standalone="no"?>
<!DOCTYPE svg PUBLIC "-//W3C//DTD SVG 1.1//EN" "http://www.w3.org/Graphics/SVG/1.1/DTD/svg11.dtd">
<svg width="100%" height="100%" viewBox="0 0 46 132" version="1.1" xmlns="http://www.w3.org/2000/svg" xmlns:xlink="http://www.w3.org/1999/xlink" xml:space="preserve" xmlns:serif="http://www.serif.com/" style="fill-rule:evenodd;clip-rule:evenodd;stroke-linejoin:round;stroke-miterlimit:1.41421;">
    <g transform="matrix(1,0,0,1,-971,-458)">
        <g transform="matrix(0.0987849,0,0,0.0987849,715.792,376.909)">
            <g id="C">
                <g transform="matrix(4.16667,0,0,4.16667,447.51,-5.68434e-14)">
                    <path d="M548.76,459.939L548.76,507.887C548.76,512.06 552.143,515.443 556.316,515.443L579.514,515.443C583.687,515.443 587.07,512.06 587.07,507.887L587.07,459.939C587.07,455.767 583.687,452.384 579.514,452.384L556.316,452.384C552.143,452.384 548.76,455.767 548.76,459.939Z" style="fill:rgb(185,185,185);fill-rule:nonzero;"/>
                </g>
                <g transform="matrix(4.16667,0,0,4.16667,447.51,-5.68434e-14)">
                    <path d="M622.647,211.01C622.647,203.65 616.68,197.684 609.321,197.684L526.509,197.684C519.15,197.684 513.182,203.65 513.182,211.01L513.182,217.673L622.647,217.673L622.647,211.01Z" style="fill:rgb(185,185,185);fill-rule:nonzero;"/>
                </g>
                <g transform="matrix(4.16667,0,0,4.16667,447.51,-5.68434e-14)">
                    <rect x="513.182" y="221.762" width="109.465" height="15.23" style="fill:rgb(185,185,185);fill-rule:nonzero;"/>
                </g>
                <g transform="matrix(4.16667,0,0,4.16667,447.51,-5.68434e-14)">
                    <path d="M520.078,304.226C532.247,307.876 548.955,311.368 568.91,311.249C587.95,311.136 603.942,307.77 615.76,304.224C619.857,302.994 622.647,299.206 622.647,294.93L622.647,277.101L622.647,250.171L622.647,241.403L513.182,241.403L513.182,294.929C513.182,299.209 515.978,302.995 520.078,304.226Z" style="fill:rgb(185,185,185);fill-rule:nonzero;"/>
                </g>
                <g transform="matrix(4.16667,0,0,4.16667,447.51,-5.68434e-14)">
                    <path d="M579.514,450.14C580.137,450.14 580.74,450.224 581.32,450.365L581.32,313.604C577.344,313.926 573.209,314.125 568.91,314.15C563.898,314.181 559.092,313.982 554.51,313.611L554.51,450.365C555.09,450.224 555.693,450.14 556.316,450.14L579.514,450.14Z" style="fill:rgb(185,185,185);fill-rule:nonzero;"/>
                </g>
                <g transform="matrix(8.63593,0,0,8.63593,-3706.69,-2979.73)">
                    <text x="746.906px" y="486.221px" style="font-family:'Nunito-SemiBold', 'Nunito';font-weight:600;font-size:24px;fill:white;">C</text>
                </g>
            </g>
        </g>
    </g>
</svg>
