<?xml version="1.0" encoding="UTF-8" standalone="no"?>
<!DOCTYPE svg PUBLIC "-//W3C//DTD SVG 1.1//EN" "http://www.w3.org/Graphics/SVG/1.1/DTD/svg11.dtd">
<svg width="100%" height="100%" viewBox="0 0 375 249" version="1.1" xmlns="http://www.w3.org/2000/svg" xmlns:xlink="http://www.w3.org/1999/xlink" xml:space="preserve" xmlns:serif="http://www.serif.com/" style="fill-rule:evenodd;clip-rule:evenodd;stroke-linecap:round;stroke-linejoin:round;stroke-miterlimit:1.5;">
    <g transform="matrix(1,0,0,1,-454,-43)">
        <path id="Cloud" d="M608.242,122.971C608.242,122.971 619.804,50.826 689.137,45.996C759.814,41.073 792.816,118.874 781.059,152.28C781.059,152.28 838.025,173.812 822.744,233.738C813.97,268.149 790.97,278.995 776.222,284.94C758.475,292.095 493.067,286.925 493.067,286.925C493.067,286.925 455.917,276.49 457.672,233.738C459.426,190.986 496.203,188.07 513.166,188.123C513.166,188.123 503.517,137.663 537.25,119.074C570.983,100.485 597.155,116.643 608.242,122.971Z" style="fill:none;"/>
        <clipPath id="_clip1">
            <path id="Cloud1" serif:id="Cloud" d="M608.242,122.971C608.242,122.971 619.804,50.826 689.137,45.996C759.814,41.073 792.816,118.874 781.059,152.28C781.059,152.28 838.025,173.812 822.744,233.738C813.97,268.149 790.97,278.995 776.222,284.94C758.475,292.095 493.067,286.925 493.067,286.925C493.067,286.925 455.917,276.49 457.672,233.738C459.426,190.986 496.203,188.07 513.166,188.123C513.166,188.123 503.517,137.663 537.25,119.074C570.983,100.485 597.155,116.643 608.242,122.971Z"/>
        </clipPath>
        <g clip-path="url(#_clip1)">
            <g id="SonicWall_Registered-2C" transform="matrix(0.144417,0,0,0.143054,660.31,205.449)">
                <g transform="matrix(1,0,0,1,-900,-150)">
                    <clipPath id="_clip2">
                        <rect x="0" y="0" width="1800" height="300"/>
                    </clipPath>
                    <g clip-path="url(#_clip2)">
                        <g transform="matrix(4.16667,0,0,4.16667,0,0)">
                            <path d="M67.203,6.994C63.766,6.994 60.509,7.889 57.432,9.68C54.354,11.47 51.95,13.882 50.222,16.915C48.493,19.948 47.629,23.329 47.629,27.057C47.629,32.576 49.542,37.236 53.367,41.038C57.193,44.841 61.805,46.741 67.203,46.741C70.807,46.741 74.143,45.867 77.21,44.119C80.277,42.371 82.67,39.979 84.387,36.947C86.106,33.914 86.965,30.544 86.965,26.835C86.965,23.15 86.106,19.817 84.387,16.836C82.67,13.856 80.25,11.47 77.132,9.68C74.011,7.889 70.702,6.994 67.203,6.994ZM66.997,2.48C74.031,2.48 79.917,4.827 84.655,9.52C89.394,14.213 91.763,19.99 91.763,26.851C91.763,33.65 89.4,39.417 84.671,44.152C79.944,48.888 74.178,51.255 67.376,51.255C60.489,51.255 54.676,48.898 49.938,44.184C45.199,39.469 42.83,33.766 42.83,27.073C42.83,22.611 43.909,18.475 46.068,14.666C48.227,10.857 51.17,7.873 54.898,5.715C58.625,3.559 62.658,2.48 66.997,2.48Z" style="fill:rgb(104,105,107);fill-rule:nonzero;"/>
                            <path d="M104.352,51.634L104.352,2.313L105.425,2.313L138.25,40.119L138.25,2.313L143.112,2.313L143.112,51.634L142.005,51.634L109.448,14.287L109.448,51.634L104.352,51.634Z" style="fill:rgb(104,105,107);fill-rule:nonzero;"/>
                            <rect x="156.478" y="2.292" width="4.614" height="49.25" style="fill:rgb(104,105,107);"/>
                            <path d="M312.1,32.106L318.668,15.298L325.198,32.106L312.1,32.106ZM323.336,2.318L313.885,2.318L300.577,37.918L327.342,38.024L332.481,51.376L342.166,51.376L323.336,2.318Z" style="fill:rgb(104,105,107);fill-rule:nonzero;"/>
                            <path d="M352.234,2.318L361.552,2.318L361.552,42.391L380.131,42.391L380.131,51.276L352.234,51.276L352.234,2.318Z" style="fill:rgb(104,105,107);fill-rule:nonzero;"/>
                            <path d="M390.033,2.318L399.352,2.318L399.352,42.391L417.932,42.391L417.932,51.276L390.033,51.276L390.033,2.318Z" style="fill:rgb(104,105,107);fill-rule:nonzero;"/>
                            <path d="M315.067,72C315.067,72 292.271,63.793 287.244,50.135C281.616,34.846 302.483,31.356 323.826,31.964C335.328,32.291 349.386,34.041 349.386,34.041C349.386,34.041 316.175,38.269 304.174,47.954C292.455,57.411 315.067,72 315.067,72Z" style="fill:rgb(243,109,36);fill-rule:nonzero;"/>
                            <path d="M216.058,39.671C211.704,44.582 206.33,47.045 199.926,47.045C193.982,47.045 189.058,45.141 185.155,41.333C181.252,37.525 179.301,32.776 179.301,27.085C179.301,23.32 180.173,19.93 181.919,16.915C183.664,13.9 186.123,11.5 189.296,9.712C192.469,7.925 195.917,7.03 199.641,7.03C203.047,7.03 206.172,7.712 209.018,9.078C211.737,10.382 214.081,12.278 216.058,14.752L216.058,8.433C214.649,7.265 213.092,5.855 211.382,5.016C207.87,3.291 203.935,2.43 199.577,2.43C192.364,2.43 186.361,4.762 181.569,9.426C176.778,14.091 174.382,19.84 174.382,26.673C174.382,33.167 176.36,38.71 180.316,43.3C185.033,48.737 191.475,51.455 199.641,51.455C203.935,51.455 207.822,50.646 211.302,49.027C213.029,48.225 214.614,46.852 216.058,45.719L216.058,39.671Z" style="fill:rgb(104,105,107);fill-rule:nonzero;"/>
                            <path d="M17.679,24.622C6.569,22.347 4.463,19.449 4.463,14.899L4.463,14.766C4.463,9.949 9.053,6.454 15.377,6.454C20.673,6.454 24.875,8.042 28.999,11.605L29.388,11.941L29.484,11.822L29.484,6.379C25.218,3.528 20.99,2.324 15.51,2.324C6.668,2.324 0,7.816 0,15.099L0,15.232C0,22.595 4.678,26.544 16.147,28.866C26.918,31.034 28.961,33.862 28.961,38.321L28.961,38.455C28.961,43.624 24.307,47.233 17.646,47.233C11.149,47.233 6.547,45.324 1.233,40.426L0.858,40.079L0.773,40.177L0.773,45.794C5.865,49.624 11.119,51.363 17.446,51.363C26.853,51.363 33.424,45.918 33.424,38.122L33.424,37.987C33.424,30.868 28.715,26.871 17.679,24.622Z" style="fill:rgb(104,105,107);fill-rule:nonzero;"/>
                            <path d="M286.515,2.317L275.321,35.625L275.08,36.343L274.843,35.623L263.811,2.175L254.852,2.175L243.819,35.623L243.582,36.343L243.341,35.625L232.149,2.317L221.034,2.317L238.743,51.507L247.851,51.507L258.95,19.429L259.19,18.74L259.428,19.429L270.529,51.507L279.637,51.507L297.345,2.317L286.515,2.317Z" style="fill:rgb(104,105,107);fill-rule:nonzero;"/>
                            <path d="M424.644,3.819L424.644,5.644L425.46,5.644C426.132,5.644 426.444,5.332 426.444,4.755C426.444,4.179 426.132,3.819 425.46,3.819L424.644,3.819ZM426.804,9.292L425.268,6.748L424.644,6.748L424.644,9.292L422.94,9.292L422.94,2.715L425.868,2.715C427.477,2.715 428.149,3.675 428.149,4.731C428.149,5.572 427.716,6.268 426.924,6.556L428.796,9.292L426.804,9.292ZM425.437,1.227C422.772,1.227 420.611,3.387 420.611,6.052C420.611,8.716 422.772,10.876 425.437,10.876C428.101,10.876 430.284,8.716 430.284,6.052C430.284,3.387 428.101,1.227 425.437,1.227ZM425.437,11.596C422.388,11.596 419.892,9.124 419.892,6.052C419.892,2.979 422.388,0.507 425.437,0.507C428.509,0.507 431.005,2.979 431.005,6.052C431.005,9.124 428.509,11.596 425.437,11.596Z" style="fill:rgb(104,105,107);fill-rule:nonzero;"/>
                        </g>
                    </g>
                </g>
            </g>
            <g transform="matrix(1,0,0,1,137.775,-1.28062)">
                <text x="382.443px" y="252.846px" style="font-family:'Nunito-Regular', 'Nunito';font-size:23px;fill:rgb(97,102,113);">Cloud-Based Management</text>
            </g>
        </g>
        <path id="Cloud2" serif:id="Cloud" d="M608.242,122.971C608.242,122.971 619.804,50.826 689.137,45.996C759.814,41.073 792.816,118.874 781.059,152.28C781.059,152.28 838.025,173.812 822.744,233.738C813.97,268.149 790.97,278.995 776.222,284.94C758.475,292.095 493.067,286.925 493.067,286.925C493.067,286.925 455.917,276.49 457.672,233.738C459.426,190.986 496.203,188.07 513.166,188.123C513.166,188.123 503.517,137.663 537.25,119.074C570.983,100.485 597.155,116.643 608.242,122.971Z" style="fill:none;stroke:rgb(187,211,235);stroke-width:5.5px;"/>
    </g>
</svg>
