<?xml version="1.0" encoding="UTF-8" standalone="no"?>
<!DOCTYPE svg PUBLIC "-//W3C//DTD SVG 1.1//EN" "http://www.w3.org/Graphics/SVG/1.1/DTD/svg11.dtd">
<svg width="100%" height="100%" viewBox="0 0 1154 1001" version="1.1" xmlns="http://www.w3.org/2000/svg" xmlns:xlink="http://www.w3.org/1999/xlink" xml:space="preserve" xmlns:serif="http://www.serif.com/" style="fill-rule:evenodd;clip-rule:evenodd;stroke-linejoin:round;stroke-miterlimit:1.41421;">
    <g transform="matrix(1,0,0,1,-496,-577)">
        <g transform="matrix(4.16667,0,0,4.16667,0,0)">
            <g id="Dots">
                <path d="M162.438,140.505C165.111,143.178 165.111,147.512 162.438,150.185C159.766,152.857 155.432,152.857 152.759,150.185C150.086,147.512 150.086,143.178 152.759,140.505C155.432,137.832 159.766,137.832 162.438,140.505Z" style="fill:rgb(204,43,38);fill-rule:nonzero;"/>
                <path d="M255.648,151.825C255.648,155.605 252.584,158.669 248.804,158.669C245.023,158.669 241.96,155.605 241.96,151.825C241.96,148.045 245.023,144.98 248.804,144.98C252.584,144.98 255.648,148.045 255.648,151.825Z" style="fill:rgb(204,43,38);fill-rule:nonzero;"/>
                <path d="M267.271,169.97C267.271,173.75 264.207,176.815 260.427,176.815C256.647,176.815 253.582,173.75 253.582,169.97C253.582,166.19 256.647,163.126 260.427,163.126C264.207,163.126 267.271,166.19 267.271,169.97Z" style="fill:rgb(204,43,38);fill-rule:nonzero;"/>
                <path d="M320.871,180.362C318.198,183.035 313.865,183.035 311.191,180.362C308.519,177.689 308.519,173.356 311.191,170.683C313.865,168.01 318.198,168.01 320.871,170.683C323.544,173.356 323.544,177.689 320.871,180.362Z" style="fill:rgb(204,43,38);fill-rule:nonzero;"/>
                <path d="M316.259,201.412C313.586,204.084 309.252,204.084 306.58,201.412C303.907,198.738 303.907,194.405 306.58,191.732C309.252,189.059 313.586,189.059 316.259,191.732C318.932,194.405 318.932,198.738 316.259,201.412Z" style="fill:rgb(204,43,38);fill-rule:nonzero;"/>
                <path d="M241.96,169.491C241.96,173.271 238.896,176.335 235.116,176.335C231.336,176.335 228.271,173.271 228.271,169.491C228.271,165.711 231.336,162.647 235.116,162.647C238.896,162.647 241.96,165.711 241.96,169.491Z" style="fill:rgb(204,43,38);fill-rule:nonzero;"/>
                <path d="M240.092,371.657C240.092,367.876 243.155,364.812 246.936,364.812C250.716,364.812 253.78,367.876 253.78,371.657C253.78,375.437 250.716,378.5 246.936,378.5C243.155,378.5 240.092,375.437 240.092,371.657Z" style="fill:rgb(204,43,38);fill-rule:nonzero;"/>
                <path d="M228.47,341.703C228.47,337.922 231.533,334.858 235.313,334.858C239.094,334.858 242.157,337.922 242.157,341.703C242.157,345.482 239.094,348.546 235.313,348.546C231.533,348.546 228.47,345.482 228.47,341.703Z" style="fill:rgb(204,43,38);fill-rule:nonzero;"/>
                <path d="M253.78,353.991C253.78,350.21 256.844,347.147 260.625,347.147C264.404,347.147 267.469,350.21 267.469,353.991C267.469,357.771 264.404,360.835 260.625,360.835C256.844,360.835 253.78,357.771 253.78,353.991Z" style="fill:rgb(204,43,38);fill-rule:nonzero;"/>
                <path d="M136.158,255.725C139.938,255.725 143.003,258.789 143.003,262.572C143.003,266.35 139.938,269.415 136.158,269.415C132.379,269.415 129.313,266.35 129.313,262.572C129.313,258.789 132.379,255.725 136.158,255.725Z" style="fill:rgb(204,43,38);fill-rule:nonzero;"/>
                <path d="M154.304,244.103C158.084,244.103 161.148,247.167 161.148,250.947C161.148,254.727 158.084,257.792 154.304,257.792C150.523,257.792 147.46,254.727 147.46,250.947C147.46,247.167 150.523,244.103 154.304,244.103Z" style="fill:rgb(204,43,38);fill-rule:nonzero;"/>
                <path d="M126.016,269.415C129.796,269.415 132.86,272.479 132.86,276.258C132.86,280.039 129.796,283.103 126.016,283.103C122.236,283.103 119.172,280.039 119.172,276.258C119.172,272.479 122.236,269.415 126.016,269.415Z" style="fill:rgb(204,43,38);fill-rule:nonzero;"/>
                <path d="M204.463,155.75C207.136,158.423 207.136,162.756 204.463,165.429C201.79,168.102 197.457,168.102 194.784,165.429C192.11,162.756 192.11,158.423 194.784,155.75C197.457,153.077 201.79,153.077 204.463,155.75Z" style="fill:rgb(204,43,38);fill-rule:nonzero;"/>
                <path d="M131.882,344.247C134.555,341.574 138.889,341.574 141.562,344.247C144.234,346.92 144.234,351.253 141.562,353.926C138.889,356.599 134.555,356.599 131.882,353.926C129.209,351.253 129.209,346.92 131.882,344.247Z" style="fill:rgb(204,43,38);fill-rule:nonzero;"/>
                <path d="M147.127,302.223C149.8,299.549 154.133,299.549 156.806,302.223C159.479,304.895 159.479,309.229 156.806,311.902C154.133,314.575 149.8,314.575 147.127,311.902C144.454,309.229 144.454,304.895 147.127,302.223Z" style="fill:rgb(204,43,38);fill-rule:nonzero;"/>
                <path d="M388.983,286.752C385.204,286.752 382.14,283.689 382.14,279.909C382.14,276.129 385.204,273.064 388.983,273.064C392.764,273.064 395.828,276.129 395.828,279.909C395.828,283.689 392.764,286.752 388.983,286.752Z" style="fill:rgb(204,43,38);fill-rule:nonzero;"/>
                <path d="M348.488,305.689C344.708,305.689 341.644,302.625 341.644,298.844C341.644,295.065 344.708,292 348.488,292C352.269,292 355.332,295.065 355.332,298.844C355.332,302.625 352.269,305.689 348.488,305.689Z" style="fill:rgb(204,43,38);fill-rule:nonzero;"/>
                <path d="M334.853,215.879C332.18,218.552 327.846,218.552 325.173,215.879C322.5,213.206 322.5,208.873 325.173,206.2C327.846,203.527 332.18,203.527 334.853,206.2C337.525,208.873 337.525,213.206 334.853,215.879Z" style="fill:rgb(204,43,38);fill-rule:nonzero;"/>
                <path d="M299.393,341.704C296.72,339.031 296.72,334.698 299.393,332.025C302.065,329.352 306.398,329.352 309.071,332.025C311.744,334.698 311.744,339.031 309.071,341.704C306.398,344.377 302.065,344.377 299.393,341.704Z" style="fill:rgb(204,43,38);fill-rule:nonzero;"/>
            </g>
        </g>
    </g>
</svg>
