<?xml version="1.0" encoding="UTF-8"?>
<svg width="60px" height="60px" viewBox="0 0 60 60" version="1.1" xmlns="http://www.w3.org/2000/svg" xmlns:xlink="http://www.w3.org/1999/xlink">
    <!-- Generator: Sketch 50.2 (55047) - http://www.bohemiancoding.com/sketch -->
    <title>email</title>
    <desc>Created with Sketch.</desc>
    <defs></defs>
    <g id="Page-1" stroke="none" stroke-width="1" fill="none" fill-rule="evenodd">
        <g id="Booth" transform="translate(-693.000000, -617.000000)" fill-rule="nonzero">
            <g id="email" transform="translate(693.000000, 617.000000)">
                <path d="M59.5522388,56.8703849 C59.5522388,57.6056559 59.3064937,58.2592302 58.8150034,58.7494108 C58.3235131,59.1578947 57.8320228,59.4029851 57.0947874,59.4029851 L2.4574514,59.4029851 C1.80213102,59.4029851 1.2287257,59.1578947 0.737235419,58.7494108 C0.24574514,58.2592302 0,57.6056559 0,56.8703849 L0,20.5970149 L59.5522388,20.5970149 L59.5522388,56.8703849 Z" id="Shape" fill="#5FB7FF"></path>
                <path d="M58.9589552,58.7544705 C58.4675863,59.1597921 57.9762173,59.4029851 57.2391638,59.4029851 L2.61531377,59.4029851 C1.96015515,59.4029851 1.38689135,59.1597921 0.895522388,58.7544705 L29.9681862,34.0298507 L58.9589552,58.7544705 Z" id="Shape" fill="#299EED"></path>
                <path d="M59.5522388,20.5223881 L51.114989,26.5072421 L31.3734628,40.4988604 C30.3904823,41.226748 28.9979265,41.226748 28.0149459,40.4988604 L8.43724979,26.5072421 L0,20.5223881 L8.43724979,14.537534 L26.7862202,1.51643262 L28.178776,0.545915741 C29.1617566,-0.181971914 30.5543123,-0.181971914 31.5372929,0.545915741 L32.9298487,1.51643262 L41.7766737,7.74391589 L46.1181712,10.8172193 L51.1969041,14.4566576 L59.5522388,20.5223881 Z" id="Shape" fill="#40596B"></path>
                <path d="M50.4906716,8.64602817 L50.4906716,26.9857514 L31.1889517,40.6374776 C30.2116549,41.3795473 28.5014933,41.3795473 27.5241964,40.6374776 L8.05970149,26.3732488 L8.05970149,3.36908806 C8.05970149,1.96740085 9.19988111,0.895522388 10.5029435,0.895522388 L42.7537385,0.895522388 L50.4906716,8.64602817 Z" id="Shape" fill="#F2F2F2"></path>
                <path d="M44.9066638,8.64541568 L50.4893613,8.64541568 L42.7638679,0.911640497 L42.7638679,6.45284217 C42.7638679,7.56430613 43.8771703,8.64541568 44.9066638,8.64541568 Z" id="Shape" fill="#CDD6E0"></path>
                <path d="M37.2395046,26.8380564 L39.2070896,26.8380564 C38.5512279,28.2352554 37.5674354,29.2215136 36.2557121,29.9612072 C34.7800233,30.8652771 32.8944211,31.1940299 30.680888,31.1940299 C28.5493376,31.1940299 26.745718,30.783089 25.1880466,30.0433954 C23.7123578,29.3037018 22.4826172,28.3174436 21.7447728,26.8380564 C21.0069285,25.4408574 20.5970149,23.879282 20.5970149,22.2355184 C20.5970149,20.3451903 21.0069285,18.783615 21.8267555,17.1398514 C22.7285653,15.4960878 23.7943405,14.4276415 25.2700293,13.6879479 C26.745718,12.9482543 28.4673549,12.5373134 30.3529571,12.5373134 C31.9926113,12.5373134 33.4683,12.9482543 34.6980406,13.5235716 C35.9277812,14.181077 36.9115737,15.0029588 37.5674354,16.2357814 C38.2232971,17.3864159 38.5512279,18.7014268 38.5512279,20.0986258 C38.5512279,21.7423894 38.0593316,23.2217766 37.0755392,24.6189756 C35.8457985,26.3449273 34.2061444,27.0846209 32.2385594,27.0846209 C31.7466632,27.0846209 31.2547669,26.9202446 31.0088188,26.8380564 C30.7628707,26.5914919 30.5169225,26.3449273 30.5169225,25.9339865 C29.7790782,26.6736801 28.8772684,27.0846209 27.8934759,27.0846209 C26.745718,27.0846209 25.9258909,26.6736801 25.2700293,25.9339865 C24.5321849,25.1942929 24.1222714,24.2080347 24.1222714,22.975212 C24.1222714,21.4958248 24.5321849,20.0986258 25.352012,18.7014268 C26.3358045,17.2220396 27.7295105,16.482346 29.2871819,16.482346 C30.4349398,16.482346 31.2547669,16.975475 31.9106286,17.879545 L32.1565767,16.7289105 L34.7800233,16.7289105 L33.3043346,23.7149056 C33.1403692,24.2080347 33.1403692,24.4545993 33.1403692,24.6189756 C33.1403692,24.783352 33.1403692,24.8655401 33.3043346,25.0299165 C33.4683,25.1942929 33.4683,25.1942929 33.5502827,25.1942929 C33.7962309,25.1942929 34.2881271,24.9477283 34.7800233,24.5367874 C35.435885,24.0436584 36.009764,23.3861529 36.4196775,22.5642712 C36.829591,21.6602012 37.0755392,20.8383194 37.0755392,19.9342495 C37.0755392,18.2904859 36.4196775,16.975475 35.3539023,15.9892169 C34.2061444,14.8385824 32.6484729,14.3454533 30.5169225,14.3454533 C28.7952857,14.3454533 27.3195969,14.7563942 26.0078736,15.4960878 C24.6961503,16.2357814 23.8763232,17.2220396 23.3024443,18.4548623 C22.6465826,19.6876849 22.4006345,21.084884 22.4006345,22.5642712 C22.4006345,23.9614702 22.810548,25.1942929 23.384427,26.2627392 C24.1222714,27.4133737 25.0240811,28.2352554 26.2538218,28.7283845 C27.4835624,29.2215136 28.8772684,29.4680781 30.5169225,29.4680781 C31.9926113,29.4680781 33.3863173,29.2215136 34.4520925,28.8105727 C35.5998504,28.3996318 36.5016602,27.7421264 37.2395046,26.8380564 Z M26.6637353,22.8930239 C26.6637353,23.7970938 26.8277007,24.2902229 27.1556315,24.783352 C27.5655451,25.1942929 27.8934759,25.4408574 28.3853721,25.4408574 C28.7952857,25.4408574 29.1232165,25.276481 29.3691646,25.1942929 C29.6151128,25.1121047 29.8610609,24.783352 30.107009,24.5367874 C30.5169225,24.1258465 30.7628707,23.5505293 31.0088188,22.8108357 C31.2547669,22.0711421 31.4187323,21.3314485 31.4187323,20.6739431 C31.4187323,19.9342495 31.2547669,19.4411204 30.9268361,18.9479913 C30.5169225,18.5370504 30.1889917,18.2904859 29.6970955,18.2904859 C29.2051992,18.2904859 28.5493376,18.5370504 28.2214067,18.9479913 C27.7295105,19.3589322 27.3195969,19.9342495 27.0736488,20.8383194 C26.745718,21.4958248 26.6637353,22.2355184 26.6637353,22.8930239 Z" id="Shape" fill="#FF7058"></path>
            </g>
        </g>
    </g>
</svg>