<?xml version="1.0" encoding="UTF-8" standalone="no"?>
<!DOCTYPE svg PUBLIC "-//W3C//DTD SVG 1.1//EN" "http://www.w3.org/Graphics/SVG/1.1/DTD/svg11.dtd">
<svg width="100%" height="100%" viewBox="0 0 1280 800" version="1.1" xmlns="http://www.w3.org/2000/svg" xmlns:xlink="http://www.w3.org/1999/xlink" xml:space="preserve" xmlns:serif="http://www.serif.com/" style="fill-rule:evenodd;clip-rule:evenodd;stroke-linecap:round;stroke-linejoin:round;stroke-miterlimit:1.5;">
    <g>
        <g id="Cloud" transform="matrix(-0.309337,0,0,0.309337,830.645,-4.01416)">
            <path d="M608.242,122.971C608.242,122.971 619.804,50.826 689.137,45.996C759.814,41.073 792.816,118.874 781.059,152.28C781.059,152.28 838.025,173.812 822.744,233.738C813.97,268.149 790.97,278.995 776.222,284.94C758.475,292.095 493.067,286.925 493.067,286.925C493.067,286.925 455.917,276.49 457.672,233.738C459.426,190.986 496.203,188.07 513.166,188.123C513.166,188.123 503.517,137.663 537.25,119.074C570.983,100.485 597.155,116.643 608.242,122.971Z" style="fill:none;stroke:rgb(187,211,235);stroke-width:17.78px;"/>
        </g>
        <g transform="matrix(1,0,0,1,-74.0538,-298.839)">
            <text x="670.502px" y="363.292px" style="font-family:'Nunito-Regular', 'Nunito';font-size:18px;fill:rgb(99,101,106);">Internet</text>
        </g>
    </g>
    <g>
        <g transform="matrix(1,0,0,1,-2,-1)">
            <text x="244.596px" y="134.604px" style="font-family:'Nunito-Bold', 'Nunito';font-weight:700;font-size:20px;fill:rgb(99,101,106);">Enf<tspan x="275.136px 286.636px 294.096px " y="134.604px 134.604px 134.604px ">orc</tspan>ement</text>
        </g>
        <g transform="matrix(1,0,0,1,-0.566,-3.48785)">
            <text x="244.178px" y="160.036px" style="font-family:'Nunito-Regular', 'Nunito';font-size:16px;fill:rgb(99,101,106);">Internet access is not allo<tspan x="423.378px " y="160.036px ">w</tspan>ed</text>
            <text x="244.178px" y="180.036px" style="font-family:'Nunito-Regular', 'Nunito';font-size:16px;fill:rgb(99,101,106);">when a curr<tspan x="328.77px " y="180.036px ">e</tspan>nt ver<tspan x="377.986px " y="180.036px ">s</tspan>ion of</text>
            <text x="244.178px" y="200.036px" style="font-family:'Nunito-Regular', 'Nunito';font-size:16px;fill:rgb(99,101,106);">SonicW<tspan x="300.114px " y="200.036px ">a</tspan>ll Enfor<tspan x="358.082px " y="200.036px ">c</tspan>ed Client A<tspan x="443.586px " y="200.036px ">V</tspan></text>
            <text x="244.178px" y="220.036px" style="font-family:'Nunito-Regular', 'Nunito';font-size:16px;fill:rgb(99,101,106);">with the curr<tspan x="334.882px " y="220.036px ">e</tspan>nt virus signatur<tspan x="458.578px " y="220.036px ">e</tspan>s</text>
            <text x="244.178px" y="240.036px" style="font-family:'Nunito-Regular', 'Nunito';font-size:16px;fill:rgb(99,101,106);">is not pr<tspan x="302.018px " y="240.036px ">e</tspan>sent</text>
        </g>
    </g>
    <g>
        <g transform="matrix(1,0,0,1,353.043,360.751)">
            <text x="244.596px" y="134.604px" style="font-family:'Nunito-Bold', 'Nunito';font-weight:700;font-size:20px;fill:rgb(99,101,106);">C<tspan x="257.956px " y="134.604px ">e</tspan>ntral management</text>
        </g>
        <g transform="matrix(1,0,0,1,450.095,353.438)">
            <text x="162.674px" y="160.036px" style="font-family:'Nunito-Regular', 'Nunito';font-size:16px;fill:rgb(99,101,106);">Monitors and manages</text>
            <text x="156.482px" y="180.036px" style="font-family:'Nunito-Regular', 'Nunito';font-size:16px;fill:rgb(99,101,106);">network<tspan x="215.074px 221.634px " y="180.036px 180.036px ">-w</tspan>ide, anti-<tspan x="297.634px " y="180.036px ">v</tspan>irus</text>
            <text x="172.346px" y="200.036px" style="font-family:'Nunito-Regular', 'Nunito';font-size:16px;fill:rgb(99,101,106);">policies, r<tspan x="238.65px " y="200.036px ">e</tspan>por<tspan x="271.546px " y="200.036px ">t</tspan>s, top</text>
            <text x="202.122px" y="220.036px" style="font-family:'Nunito-Regular', 'Nunito';font-size:16px;fill:rgb(99,101,106);">attacks<tspan x="253.13px " y="220.036px ">,</tspan> etc<tspan x="282.57px " y="220.036px ">.</tspan></text>
        </g>
    </g>
    <g>
        <g transform="matrix(1,0,0,1,683.249,362.811)">
            <text x="244.596px" y="134.604px" style="font-family:'Nunito-Bold', 'Nunito';font-weight:700;font-size:20px;fill:rgb(99,101,106);">C<tspan x="257.956px " y="134.604px ">o</tspan>mpliant clients</text>
        </g>
        <g transform="matrix(1,0,0,1,763.527,356.878)">
            <text x="148.01px" y="160.036px" style="font-family:'Nunito-Regular', 'Nunito';font-size:16px;fill:rgb(99,101,106);">SonicW<tspan x="203.946px " y="160.036px ">a</tspan>ll Enfor<tspan x="261.914px " y="160.036px ">c</tspan>ed Clients</text>
            <text x="140.37px" y="180.036px" style="font-family:'Nunito-Regular', 'Nunito';font-size:16px;fill:rgb(99,101,106);">Anti-<tspan x="176.386px " y="180.036px ">V</tspan>irus and Anti-<tspan x="284.946px " y="180.036px ">S</tspan>pyw<tspan x="325.586px 334.066px 339.554px " y="180.036px 180.036px 180.036px ">are</tspan></text>
            <text x="150.538px" y="200.036px" style="font-family:'Nunito-Regular', 'Nunito';font-size:16px;fill:rgb(99,101,106);">(McAf<tspan x="193.386px " y="200.036px ">e</tspan>e and SentinelOne<tspan x="332.794px " y="200.036px ">)</tspan></text>
        </g>
    </g>
    <g transform="matrix(1,0,0,1,0,1)">
        <g transform="matrix(0.239089,0,0,0.226473,676.732,220.65)">
            <path d="M113.515,0L6.493,0C2.908,0 0,2.896 0,6.486L0,113.497C0,117.079 2.908,120 6.493,120L113.515,120C117.093,120 120,117.079 120,113.497L120,6.486C120,2.896 117.093,0 113.515,0Z" style="fill:rgb(153,204,0);"/>
        </g>
        <g transform="matrix(1,0,0,1,-1,0)">
            <path d="M683.332,232.861L689.089,239.508L701.059,227.538" style="fill:none;stroke:white;stroke-width:3px;"/>
        </g>
    </g>
    <g>
        <g transform="matrix(0.239089,0,0,0.226473,553.508,220.65)">
            <path d="M113.515,0L6.493,0C2.908,0 0,2.896 0,6.486L0,113.497C0,117.079 2.908,120 6.493,120L113.515,120C117.093,120 120,117.079 120,113.497L120,6.486C120,2.896 117.093,0 113.515,0Z" style="fill:rgb(255,0,0);"/>
        </g>
        <g transform="matrix(0.927723,0,0,0.812215,42.8324,40.7827)">
            <path d="M559.363,228.538L572.485,247.826" style="fill:none;stroke:white;stroke-width:3.44px;"/>
            <g transform="matrix(-1,0,0,1,1131.85,0)">
                <path d="M559.363,228.538L572.485,247.826" style="fill:none;stroke:white;stroke-width:3.44px;"/>
            </g>
        </g>
    </g>
    <g transform="matrix(1,0,0,1,-2,3)">
        <g transform="matrix(0.462581,0,0,0.462581,201.873,380.961)">
            <path d="M161.215,114.066C161.215,126.893 150.806,137.296 137.97,137.296L44.981,137.296C32.141,137.296 21.731,126.893 21.731,114.066L21.731,55.985C21.731,43.154 32.141,32.756 44.981,32.756L137.97,32.756C150.806,32.756 161.215,43.154 161.215,55.985L161.215,114.066ZM140.75,21.139L41.831,21.139C24.636,21.139 10.106,35.779 10.106,52.962L10.106,117.454C10.106,134.273 24.636,148.913 41.946,148.913L141.235,148.913C158.551,148.913 172.841,134.638 172.841,117.459L172.841,53.207C172.841,35.664 158.551,21.139 140.75,21.139Z" style="fill:rgb(99,101,105);"/>
        </g>
        <g transform="matrix(0.462581,0,0,0.462581,201.873,452.764)">
            <path d="M160.962,14.651L21.982,14.651C17.982,14.651 2.457,11.962 0.272,5.602C-1.023,1.824 3.517,0.18 7.517,0.18L175.437,0.18C179.432,0.18 184.082,1.864 182.682,5.602C180.492,11.403 164.967,14.651 160.962,14.651Z" style="fill:rgb(99,101,105);"/>
        </g>
    </g>
    <g transform="matrix(0.634749,0,0,0.634749,374.62,400)">
        <path d="M76.824,13.147C94.37,13.012 108.729,27.116 108.858,44.636C109.038,62.143 94.847,76.435 77.274,76.57C59.713,76.791 45.369,62.646 45.234,45.126C45.081,27.6 59.227,13.282 76.824,13.147ZM3.216,120.007C7.39,124.055 14.22,123.992 18.301,119.846L54.014,83.256C60.853,87.295 68.808,89.656 77.361,89.599C102.205,89.512 122.179,69.225 121.999,44.468C121.804,19.738 101.515,-0.184 76.671,0.001C51.833,0.19 31.844,20.357 32.03,45.126C32.09,53.617 34.587,61.551 38.776,68.303L3.063,104.929C-1.076,109.129 -1.016,115.891 3.216,120.007Z" style="fill:rgb(100,101,102);"/>
    </g>
    <g transform="matrix(6.12323e-17,1,-1,6.12323e-17,984.639,-458.562)">
        <path d="M791.997,298.223L846.677,298.223" style="fill:none;stroke:rgb(255,153,0);stroke-width:4px;stroke-dasharray:0.04,6,0,0;"/>
    </g>
    <g>
        <g transform="matrix(0.585266,0,0,0.585266,618.117,370.386)">
            <g transform="matrix(1,0,0,1,0,0.473668)">
                <path d="M64.182,141L10.596,141C8.067,141 6,138.922 6,136.385L6,10.145C6,7.604 8.067,5.526 10.596,5.526L64.182,5.526C66.714,5.526 68.781,7.604 68.781,10.145L68.781,136.385C68.781,138.922 66.714,141 64.182,141ZM42.627,129.406C42.627,126.505 40.285,124.151 37.39,124.151C34.499,124.151 32.15,126.505 32.15,129.406C32.15,132.307 34.499,134.661 37.39,134.661C40.285,134.661 42.627,132.307 42.627,129.406ZM31.247,115.628L43.534,115.628C44.701,115.628 45.647,114.678 45.647,113.507C45.647,112.336 44.701,111.387 43.534,111.387L31.247,111.387C30.08,111.387 29.134,112.336 29.134,113.507C29.134,114.678 30.08,115.628 31.247,115.628ZM31.247,106.921L43.534,106.921C44.701,106.921 45.647,105.971 45.647,104.8C45.647,103.629 44.701,102.68 43.534,102.68L31.247,102.68C30.08,102.68 29.134,103.629 29.134,104.8C29.134,105.971 30.08,106.921 31.247,106.921ZM31.247,98.212L43.534,98.212C44.701,98.212 45.647,97.263 45.647,96.092C45.647,94.921 44.701,93.972 43.534,93.972L31.247,93.972C30.08,93.972 29.134,94.921 29.134,96.092C29.134,97.263 30.08,98.212 31.247,98.212Z" style="fill:rgb(99,101,105);"/>
            </g>
            <g transform="matrix(1,0,0,-1,6,141.474)">
                <path d="M58.182,0L4.596,0C2.067,0 0,2.078 0,4.615L0,130.855C0,133.396 2.067,135.474 4.596,135.474L58.182,135.474C60.714,135.474 62.781,133.396 62.781,130.855L62.781,4.615C62.781,2.078 60.714,0 58.182,0Z" style="fill:none;stroke:rgb(99,101,105);stroke-width:17.52px;stroke-linecap:butt;stroke-linejoin:miter;stroke-miterlimit:10;"/>
            </g>
        </g>
        <g>
            <g transform="matrix(0.791777,0,0,0.791777,585.292,447.096)">
                <path d="M108.481,2.538C108.481,2.538 103.5,5.327 103.5,8.962C103.5,12.109 106.324,14.934 109.457,14.934L141.747,14.934C144.664,14.934 147.417,12.154 147.417,9.1C147.417,5.465 142.864,2.538 142.864,2.538C142.864,2.538 142.712,8.132 137.728,8.132L113.321,8.132C108.197,8.132 108.481,2.538 108.481,2.538Z" style="fill:rgb(99,101,105);"/>
            </g>
            <g transform="matrix(0.779369,0,0,0.779369,155.522,55.1807)">
                <g transform="matrix(0.712007,0,0,0.784218,634.998,392.412)">
                    <path d="M23.316,137.918L79.415,137.673C80.055,135.209 80.76,132.385 82.623,129.434L25.533,129.434C16.137,129.434 8.523,121.834 8.523,112.461L8.523,70.029C8.523,60.659 16.137,53.058 25.533,53.058L79.415,53.058C85.523,53.058 97.033,52.058 98.951,55.589C100.805,52.538 103.33,47.815 102.872,46.692C101.491,43.31 89.432,44.572 79.415,44.572L23.226,44.572C10.65,44.572 0.018,55.268 0.018,67.819L0.018,114.934C0.018,127.222 10.65,137.918 23.316,137.918Z" style="fill:rgb(99,101,105);"/>
                </g>
                <g transform="matrix(1,0,0,1,621.61,410.384)">
                    <path d="M157.26,101.431C147.93,107.247 126.423,108.172 118.944,108.067L118.866,108.067L118.791,108.067C111.312,108.169 89.829,107.127 80.388,101.263C81.726,81.686 98.262,66.922 118.851,66.922C139.458,66.922 155.994,81.698 157.317,101.29C157.323,101.353 157.29,101.413 157.26,101.431ZM118.851,10.465C131.568,10.465 141.909,20.786 141.909,33.473C141.909,46.159 131.568,56.481 118.851,56.481C106.137,56.481 95.796,46.159 95.796,33.473C95.796,20.786 106.137,10.465 118.851,10.465ZM138.681,60.411C146.973,54.316 152.364,44.513 152.364,33.473C152.364,15.033 137.331,0.032 118.851,0.032C100.374,0.032 85.341,15.033 85.341,33.473C85.341,44.513 90.732,54.319 99.027,60.411C82.734,67.206 71.211,82.231 69.957,100.551C69.687,104.502 71.613,108.232 74.982,110.292C88.623,118.622 116.805,118.533 118.836,118.5C119.019,118.503 119.409,118.506 119.979,118.506C125.799,118.506 150.366,118.033 162.801,110.28C166.116,108.211 168.012,104.499 167.751,100.593L167.751,100.59C166.512,82.249 154.986,67.209 138.681,60.411Z" style="fill:rgb(99,101,105);"/>
                </g>
            </g>
        </g>
    </g>
    <g>
        <g transform="matrix(1,0,0,1,5.88868,75.7408)">
            <circle cx="175.839" cy="347.473" r="14.038" style="fill:rgb(255,121,26);"/>
        </g>
        <g transform="matrix(1,0,0,1,14.561,104.627)">
            <text x="162.29px" y="325.055px" style="font-family:'Nunito-Regular', 'Nunito';font-size:18px;fill:white;">1</text>
        </g>
    </g>
    <g id="Bullet-1" serif:id="Bullet 1">
        <g transform="matrix(1,0,0,1,369.804,477.746)">
            <text x="33.83px" y="160.036px" style="font-family:'Nunito-Regular', 'Nunito';font-size:18px;fill:rgb(99,101,106);">Non-<tspan x="75.266px " y="160.036px ">c</tspan>ompliant client attempts to access the Internet</text>
        </g>
        <g transform="matrix(1,0,0,1,196.997,209.189)">
            <g transform="matrix(1,0,0,1,5.88868,75.7408)">
                <circle cx="175.839" cy="347.473" r="14.038" style="fill:rgb(255,121,26);"/>
            </g>
            <g transform="matrix(1,0,0,1,14.561,104.627)">
                <text x="162.29px" y="325.055px" style="font-family:'Nunito-Regular', 'Nunito';font-size:18px;fill:white;">1</text>
            </g>
        </g>
    </g>
    <g id="Bullet-2" serif:id="Bullet 2">
        <g transform="matrix(1,0,0,1,309.738,521.32)">
            <text x="94.94px" y="160.036px" style="font-family:'Nunito-Regular', 'Nunito';font-size:18px;fill:rgb(99,101,106);">Access is denied and client is notiﬁed</text>
        </g>
        <g transform="matrix(1,0,0,1,196.997,252.322)">
            <g transform="matrix(1,0,0,1,5.88868,75.7408)">
                <circle cx="175.839" cy="347.473" r="14.038" style="fill:rgb(255,121,26);"/>
            </g>
            <g transform="matrix(1,0,0,1,14.561,104.627)">
                <text x="162.29px" y="325.055px" style="font-family:'Nunito-Regular', 'Nunito';font-size:18px;fill:white;">2</text>
            </g>
        </g>
    </g>
    <g id="Bullet-3" serif:id="Bullet 3">
        <g transform="matrix(1,0,0,1,197.746,295.587)">
            <g transform="matrix(1,0,0,1,5.88868,75.7408)">
                <circle cx="175.839" cy="347.473" r="14.038" style="fill:rgb(255,121,26);"/>
            </g>
            <g transform="matrix(1,0,0,1,14.561,104.627)">
                <text x="162.29px" y="325.055px" style="font-family:'Nunito-Regular', 'Nunito';font-size:18px;fill:white;">3</text>
            </g>
        </g>
        <g transform="matrix(1,0,0,1,381.24,566.28)">
            <text x="20.168px" y="160.036px" style="font-family:'Nunito-Regular', 'Nunito';font-size:18px;fill:rgb(99,101,106);">SonicW<tspan x="83.096px " y="160.036px ">a</tspan>ll Enfor<tspan x="148.31px " y="160.036px ">c</tspan>ed Client Anti-<tspan x="273.068px " y="160.036px ">V</tspan>irus and Anti-<tspan x="395.198px 406.304px 416.672px 425.924px 440.918px 450.458px 456.632px " y="160.036px 160.036px 160.036px 160.036px 160.036px 160.036px 160.036px ">Spyware</tspan></text>
            <text x="20.168px" y="180.036px" style="font-family:'Nunito-Regular', 'Nunito';font-size:18px;fill:rgb(99,101,106);">(McA<tspan x="62.558px " y="180.036px ">f</tspan>ee and SentinelOne<tspan x="225.206px " y="180.036px ">)</tspan> is installed and client becomes compliant</text>
        </g>
    </g>
    <g id="_-Group-" serif:id="(Group)" transform="matrix(1,0,0,1,345.825,-188.567)">
        <g transform="matrix(1,0,0,1,5.88868,75.7408)">
            <circle cx="175.839" cy="347.473" r="14.038" style="fill:rgb(255,121,26);"/>
        </g>
        <g transform="matrix(1,0,0,1,14.561,104.627)">
            <text x="162.29px" y="325.055px" style="font-family:'Nunito-Regular', 'Nunito';font-size:18px;fill:white;">2</text>
        </g>
    </g>
    <g transform="matrix(1,0,0,1,243.345,60.4288)">
        <g transform="matrix(1,0,0,1,5.88868,75.7408)">
            <circle cx="175.839" cy="347.473" r="14.038" style="fill:rgb(255,121,26);"/>
        </g>
        <g transform="matrix(1,0,0,1,14.561,104.627)">
            <text x="162.29px" y="325.055px" style="font-family:'Nunito-Regular', 'Nunito';font-size:18px;fill:white;">3</text>
        </g>
    </g>
    <g>
        <path d="M242.187,386.767C242.187,386.767 242.187,331.999 242.187,308.976C242.187,303.45 246.667,298.97 252.193,298.97C297.153,298.97 478.298,298.97 478.298,298.97" style="fill:none;stroke:rgb(255,153,0);stroke-width:4px;stroke-dasharray:0.04,6,0,0;"/>
        <g transform="matrix(0.285402,0,0,0.285402,469.593,298.97)">
            <g transform="matrix(1,0,0,1,-30.5,-31)">
                <g transform="matrix(4.38195,0,0,4.38195,-2240.36,-1592.79)">
                    <g transform="matrix(1.79751,0,0,1.79751,-389.121,-288.662)">
                        <circle cx="504.776" cy="366.799" r="3.865" style="fill:rgb(243,110,35);"/>
                    </g>
                    <g transform="matrix(1.402,0,0,1.402,-207.997,-149.955)">
                        <g transform="matrix(1,0,0,0.771459,0.544678,85.3884)">
                            <path d="M516.676,367.704L519.636,370.664" style="fill:white;stroke:white;stroke-width:1.56px;"/>
                        </g>
                        <g transform="matrix(1,0,0,-0.771459,0.544678,657.292)">
                            <path d="M516.676,367.704L519.636,370.664" style="fill:white;stroke:white;stroke-width:1.56px;"/>
                        </g>
                    </g>
                </g>
            </g>
        </g>
    </g>
    <g>
        <path d="M287.027,427.238L387.335,427.238" style="fill:none;stroke:rgb(255,153,0);stroke-width:4px;stroke-dasharray:0.04,6,0,0;"/>
        <g transform="matrix(-0.285402,0,0,0.285402,292.746,427.238)">
            <g transform="matrix(1,0,0,1,-30.5,-31)">
                <g transform="matrix(4.38195,0,0,4.38195,-2240.36,-1592.79)">
                    <g transform="matrix(1.79751,0,0,1.79751,-389.121,-288.662)">
                        <circle cx="504.776" cy="366.799" r="3.865" style="fill:rgb(243,110,35);"/>
                    </g>
                    <g transform="matrix(1.402,0,0,1.402,-207.997,-149.955)">
                        <g transform="matrix(1,0,0,0.771459,0.544678,85.3884)">
                            <path d="M516.676,367.704L519.636,370.664" style="fill:white;stroke:white;stroke-width:1.56px;"/>
                        </g>
                        <g transform="matrix(1,0,0,-0.771459,0.544678,657.292)">
                            <path d="M516.676,367.704L519.636,370.664" style="fill:white;stroke:white;stroke-width:1.56px;"/>
                        </g>
                    </g>
                </g>
            </g>
        </g>
    </g>
    <g>
        <path d="M464.019,427.238C464.019,427.238 528.371,427.238 555.588,427.238C562.174,427.238 567.514,421.898 567.514,415.311C567.514,389.141 567.514,328.993 567.514,328.993" style="fill:none;stroke:rgb(255,0,0);stroke-width:4px;stroke-dasharray:0.04,6,0,0;"/>
        <g transform="matrix(1,0,0,1,0,-78.9303)">
            <path d="M567.514,349.126L567.514,328.993" style="fill:none;stroke:rgb(255,0,0);stroke-width:4px;stroke-dasharray:0.04,6,0,0;"/>
        </g>
        <g transform="matrix(-0.285402,0,0,0.285402,465.019,427.238)">
            <g transform="matrix(1,0,0,1,-30.5,-31)">
                <g transform="matrix(4.38195,0,0,4.38195,-2240.36,-1592.79)">
                    <g transform="matrix(1.79751,0,0,1.79751,-389.121,-288.662)">
                        <circle cx="504.776" cy="366.799" r="3.865" style="fill:rgb(243,110,35);"/>
                    </g>
                    <g transform="matrix(1.402,0,0,1.402,-207.997,-149.955)">
                        <g transform="matrix(1,0,0,0.771459,0.544678,85.3884)">
                            <path d="M516.676,367.704L519.636,370.664" style="fill:white;stroke:white;stroke-width:1.56px;"/>
                        </g>
                        <g transform="matrix(1,0,0,-0.771459,0.544678,657.292)">
                            <path d="M516.676,367.704L519.636,370.664" style="fill:white;stroke:white;stroke-width:1.56px;"/>
                        </g>
                    </g>
                </g>
            </g>
        </g>
    </g>
    <g>
        <path d="M631.169,104.377C631.169,104.377 631.169,189.021 631.169,222.007C631.169,225.439 632.532,228.73 634.959,231.157C637.386,233.584 640.677,234.947 644.109,234.947C654.982,234.947 668.76,234.947 668.76,234.947" style="fill:none;stroke:rgb(255,153,0);stroke-width:4px;stroke-dasharray:0.04,6,0,0;"/>
        <g transform="matrix(-1.74758e-17,-0.285402,-0.285402,1.74758e-17,631.153,101.792)">
            <g transform="matrix(1,0,0,1,-30.5,-31)">
                <g transform="matrix(4.38195,0,0,4.38195,-2240.36,-1592.79)">
                    <g transform="matrix(1.79751,0,0,1.79751,-389.121,-288.662)">
                        <circle cx="504.776" cy="366.799" r="3.865" style="fill:rgb(243,110,35);"/>
                    </g>
                    <g transform="matrix(1.402,0,0,1.402,-207.997,-149.955)">
                        <g transform="matrix(1,0,0,0.771459,0.544678,85.3884)">
                            <path d="M516.676,367.704L519.636,370.664" style="fill:white;stroke:white;stroke-width:1.56px;"/>
                        </g>
                        <g transform="matrix(1,0,0,-0.771459,0.544678,657.292)">
                            <path d="M516.676,367.704L519.636,370.664" style="fill:white;stroke:white;stroke-width:1.56px;"/>
                        </g>
                    </g>
                </g>
            </g>
        </g>
    </g>
    <g>
        <path d="M791.997,298.223C791.997,298.223 998.841,298.223 1044.3,298.223C1046.62,298.223 1048.85,299.147 1050.49,300.79C1052.13,302.433 1053.06,304.662 1053.06,306.986C1053.06,331.055 1053.06,396.412 1053.06,396.412" style="fill:none;stroke:rgb(255,153,0);stroke-width:4px;stroke-dasharray:0.04,6,0,0;"/>
        <g transform="matrix(-0.285402,0,0,0.285402,787.377,298.223)">
            <g transform="matrix(1,0,0,1,-30.5,-31)">
                <g transform="matrix(4.38195,0,0,4.38195,-2240.36,-1592.79)">
                    <g transform="matrix(1.79751,0,0,1.79751,-389.121,-288.662)">
                        <circle cx="504.776" cy="366.799" r="3.865" style="fill:rgb(243,110,35);"/>
                    </g>
                    <g transform="matrix(1.402,0,0,1.402,-207.997,-149.955)">
                        <g transform="matrix(1,0,0,0.771459,0.544678,85.3884)">
                            <path d="M516.676,367.704L519.636,370.664" style="fill:white;stroke:white;stroke-width:1.56px;"/>
                        </g>
                        <g transform="matrix(1,0,0,-0.771459,0.544678,657.292)">
                            <path d="M516.676,367.704L519.636,370.664" style="fill:white;stroke:white;stroke-width:1.56px;"/>
                        </g>
                    </g>
                </g>
            </g>
        </g>
        <path d="M973.649,375.042L973.649,298.223" style="fill:none;stroke:rgb(255,153,0);stroke-width:4px;stroke-dasharray:0.04,6,0,0;"/>
    </g>
    <g>
        <g transform="matrix(0.607379,0,0,0.607379,904.653,363.53)">
            <path d="M64.182,141L10.596,141C8.067,141 6,138.922 6,136.385L6,10.145C6,7.604 8.067,5.526 10.596,5.526L64.182,5.526C66.714,5.526 68.781,7.604 68.781,10.145L68.781,136.385C68.781,138.922 66.714,141 64.182,141ZM42.627,129.406C42.627,126.505 40.285,124.151 37.39,124.151C34.499,124.151 32.15,126.505 32.15,129.406C32.15,132.307 34.499,134.661 37.39,134.661C40.285,134.661 42.627,132.307 42.627,129.406ZM31.247,115.628L43.534,115.628C44.701,115.628 45.647,114.678 45.647,113.507C45.647,112.336 44.701,111.387 43.534,111.387L31.247,111.387C30.08,111.387 29.134,112.336 29.134,113.507C29.134,114.678 30.08,115.628 31.247,115.628ZM31.247,106.921L43.534,106.921C44.701,106.921 45.647,105.971 45.647,104.8C45.647,103.629 44.701,102.68 43.534,102.68L31.247,102.68C30.08,102.68 29.134,103.629 29.134,104.8C29.134,105.971 30.08,106.921 31.247,106.921ZM31.247,98.212L43.534,98.212C44.701,98.212 45.647,97.263 45.647,96.092C45.647,94.921 44.701,93.972 43.534,93.972L31.247,93.972C30.08,93.972 29.134,94.921 29.134,96.092C29.134,97.263 30.08,98.212 31.247,98.212Z" style="fill:rgb(99,101,105);"/>
        </g>
        <g transform="matrix(0.607379,0,0,-0.607379,908.297,449.17)">
            <path d="M58.182,0L4.596,0C2.067,0 0,2.078 0,4.615L0,130.855C0,133.396 2.067,135.474 4.596,135.474L58.182,135.474C60.714,135.474 62.781,133.396 62.781,130.855L62.781,4.615C62.781,2.078 60.714,0 58.182,0Z" style="fill:none;stroke:rgb(99,101,105);stroke-width:16.88px;stroke-linecap:butt;stroke-linejoin:miter;stroke-miterlimit:10;"/>
        </g>
        <g transform="matrix(0.784947,0,0,0.784947,875.286,371.133)">
            <path d="M156.153,19.755C163.699,19.755 169.819,25.896 169.819,33.469L169.819,74.602C169.819,82.177 163.699,88.316 156.153,88.316L94.663,88.316C87.117,88.316 81,82.177 81,74.602L81,33.469C81,26.325 87.12,19.755 94.663,19.755L156.153,19.755ZM162.986,71.176L162.986,36.681C162.986,29.826 159.569,26.56 152.735,26.56L98.082,26.56C91.245,26.56 87.831,29.826 87.831,36.681L87.831,71.176C87.831,78.032 91.245,81.461 98.082,81.461L152.735,81.461C159.569,81.461 162.986,78.032 162.986,71.176Z" style="fill:rgb(99,101,105);"/>
        </g>
        <g transform="matrix(0.849341,0,0,0.849341,865.762,442.3)">
            <path d="M108.481,2.538C108.481,2.538 103.5,5.327 103.5,8.962C103.5,12.109 106.324,14.934 109.457,14.934L141.747,14.934C144.664,14.934 147.417,12.154 147.417,9.1C147.417,5.465 142.864,2.538 142.864,2.538C142.864,2.538 142.712,8.132 137.728,8.132L113.321,8.132C108.197,8.132 108.481,2.538 108.481,2.538Z" style="fill:rgb(99,101,105);"/>
        </g>
    </g>
    <g id="Firewall">
        <g transform="matrix(1,0,0,1,73,-4)">
            <text x="629.804px" y="363.292px" style="font-family:'Nunito-Regular', 'Nunito';font-size:18px;fill:rgb(99,101,106);">SonicW<tspan x="692.732px " y="363.292px ">a</tspan>ll ﬁr<tspan x="731.504px 740.882px 755.876px " y="363.292px 363.292px 363.292px ">ewa</tspan>ll</text>
        </g>
        <g>
            <g transform="matrix(1.09734,0,0,1.09572,488.418,264.663)">
                <path d="M243.855,0.249L225.087,0.249L33.887,0.249L15.119,0.249C6.908,0.249 0.261,6.933 0.261,15.19L0.261,47.823C0.261,56.08 6.908,62.764 15.119,62.764L243.855,62.764C252.066,62.764 258.713,56.08 258.713,47.823L258.713,15.19C259.104,6.933 252.066,0.249 243.855,0.249ZM18.638,35.635L7.69,35.635L7.69,27.378L18.638,27.378L18.638,35.635ZM15.119,54.901C11.209,54.901 8.081,51.755 8.081,47.823L8.081,43.892L19.029,43.892L19.029,47.823C19.029,50.576 19.811,52.935 20.984,54.901L15.119,54.901ZM18.638,15.19L18.638,19.121L7.69,19.121L7.69,15.19C7.69,11.258 10.818,8.113 14.728,8.113L20.202,8.113C19.42,10.472 18.638,12.831 18.638,15.19ZM232.125,47.823C232.125,51.755 228.997,54.901 225.087,54.901L33.887,54.901C29.977,54.901 26.849,51.755 26.849,47.823L26.849,15.19C26.849,11.258 29.977,8.113 33.887,8.113L225.087,8.113C228.997,8.113 232.125,11.258 232.125,15.19L232.125,47.823ZM243.855,8.113C247.765,8.113 250.893,11.258 250.893,15.19L250.893,19.121L239.945,19.121L239.945,15.19C239.945,12.437 239.163,10.078 237.99,8.113L243.855,8.113ZM239.945,27.378L250.893,27.378L250.893,35.635L239.945,35.635L239.945,27.378ZM243.855,54.901L238.381,54.901C239.554,52.935 240.336,50.182 240.336,47.823L240.336,43.892L251.284,43.892L251.284,47.823C250.893,51.755 247.765,54.901 243.855,54.901Z" style="fill:rgb(99,101,105);fill-rule:nonzero;"/>
            </g>
            <g transform="matrix(1.09734,0,0,1.09572,488.418,264.232)">
                <path d="M99.575,47.43L85.89,47.43C83.153,47.43 81.198,45.464 81.198,42.712L81.198,36.814C81.198,34.062 83.153,32.096 85.89,32.096L99.575,32.096C102.312,32.096 104.267,34.062 104.267,36.814L104.267,42.712C104.658,45.464 102.312,47.43 99.575,47.43ZM131.246,47.43L117.561,47.43C114.824,47.43 112.869,45.464 112.869,42.712L112.869,36.814C112.869,34.062 114.824,32.096 117.561,32.096L131.246,32.096C133.984,32.096 135.939,34.062 135.939,36.814L135.939,42.712C135.939,45.464 133.984,47.43 131.246,47.43ZM166.828,33.669L183.641,33.669L183.641,47.43L166.828,47.43L166.828,33.669ZM187.551,33.669L204.364,33.669L204.364,47.43L187.551,47.43L187.551,33.669ZM166.828,15.976L183.641,15.976L183.641,29.737L166.828,29.737L166.828,15.976ZM208.274,29.737L208.665,29.737L208.665,15.976L218.831,15.976C221.568,15.976 223.523,17.942 223.523,20.694L223.523,29.737L208.274,29.737ZM162.918,33.669L162.918,47.43L151.97,47.43C149.233,47.43 147.278,45.464 147.278,42.712L147.278,33.669L162.918,33.669ZM208.274,33.669L223.132,33.669L223.132,42.712C223.132,45.464 221.177,47.43 218.44,47.43L208.274,47.43L208.274,33.669ZM162.918,29.737L147.278,29.737L147.278,20.694C147.278,17.942 149.233,15.976 151.97,15.976L162.918,15.976L162.918,29.737ZM187.551,15.976L204.364,15.976L204.364,29.737L187.551,29.737L187.551,15.976Z" style="fill:rgb(99,101,105);fill-rule:nonzero;"/>
            </g>
        </g>
    </g>
    <g>
        <g transform="matrix(0.432771,0,0,0.432771,1012.56,395.124)">
            <path d="M161.215,114.066C161.215,126.893 150.806,137.296 137.97,137.296L44.981,137.296C32.141,137.296 21.731,126.893 21.731,114.066L21.731,55.985C21.731,43.154 32.141,32.756 44.981,32.756L137.97,32.756C150.806,32.756 161.215,43.154 161.215,55.985L161.215,114.066ZM140.75,21.139L41.831,21.139C24.636,21.139 10.106,35.779 10.106,52.962L10.106,117.454C10.106,134.273 24.636,148.913 41.946,148.913L141.235,148.913C158.551,148.913 172.841,134.638 172.841,117.459L172.841,53.207C172.841,35.664 158.551,21.139 140.75,21.139Z" style="fill:rgb(99,101,105);"/>
        </g>
        <g transform="matrix(0.432771,0,0,0.432771,1012.56,462.3)">
            <path d="M160.962,14.651L21.982,14.651C17.982,14.651 2.457,11.962 0.272,5.602C-1.023,1.824 3.517,0.18 7.517,0.18L175.437,0.18C179.432,0.18 184.082,1.864 182.682,5.602C180.492,11.403 164.967,14.651 160.962,14.651Z" style="fill:rgb(99,101,105);"/>
        </g>
    </g>
</svg>
