<?xml version="1.0" encoding="UTF-8" standalone="no"?>
<!DOCTYPE svg PUBLIC "-//W3C//DTD SVG 1.1//EN" "http://www.w3.org/Graphics/SVG/1.1/DTD/svg11.dtd">
<svg width="100%" height="100%" viewBox="0 0 872 733" version="1.1" xmlns="http://www.w3.org/2000/svg" xmlns:xlink="http://www.w3.org/1999/xlink" xml:space="preserve" xmlns:serif="http://www.serif.com/" style="fill-rule:evenodd;clip-rule:evenodd;stroke-linejoin:round;stroke-miterlimit:1.41421;">
    <g transform="matrix(1,0,0,1,-632,-668)">
        <g transform="matrix(4.16667,0,0,4.16667,0,0)">
            <g id="Extra">
                <path d="M194.487,222.403L184.704,212.619L194.101,195.882L170.531,172.313L174.887,167.957L201.758,194.827L192.36,211.564L194.487,213.691L214.123,194.057L213.755,179.078L199.462,164.784L203.817,160.428L219.854,176.463L220.346,196.545L194.487,222.403Z" style="fill:rgb(40,66,92);fill-rule:nonzero;"/>
                <path d="M163.689,336.154L159.333,331.798L186.204,304.927L202.941,314.325L205.068,312.198L185.434,292.562L170.454,292.93L156.161,307.223L151.805,302.868L167.84,286.833L187.922,286.339L213.779,312.198L203.996,321.981L187.259,312.584L163.689,336.154Z" style="fill:rgb(40,66,92);fill-rule:nonzero;"/>
                <path d="M345.636,301.924L322.959,301.924L308.411,288.073L308.411,251.504L322.247,251.504L327.438,269.984L360.771,269.984L360.771,276.144L322.77,276.144L317.579,257.664L314.571,257.664L314.571,285.433L325.423,295.764L345.636,295.764L345.636,301.924Z" style="fill:rgb(40,66,92);fill-rule:nonzero;"/>
            </g>
        </g>
    </g>
</svg>
