<?xml version="1.0" encoding="UTF-8" standalone="no"?>
<!DOCTYPE svg PUBLIC "-//W3C//DTD SVG 1.1//EN" "http://www.w3.org/Graphics/SVG/1.1/DTD/svg11.dtd">
<svg width="100%" height="100%" viewBox="0 0 1400 875" version="1.1" xmlns="http://www.w3.org/2000/svg" xmlns:xlink="http://www.w3.org/1999/xlink" xml:space="preserve" xmlns:serif="http://www.serif.com/" style="fill-rule:evenodd;clip-rule:evenodd;stroke-linecap:round;stroke-linejoin:round;stroke-miterlimit:1.5;">
    <g transform="matrix(1.0357,0,0,1.0357,-24.9895,-14.8194)">
        <g transform="matrix(0.594625,0,0,0.609968,-486.116,333.094)">
            <g id="Middle-box" serif:id="Middle box" transform="matrix(1.114,0,0,1.02638,833.412,-1.03098)">
                <path d="M418.263,43.712C418.263,41.157 416.306,39.085 413.891,39.085C374.543,39.085 82.014,39.085 42.666,39.085C40.251,39.085 38.294,41.157 38.294,43.712C38.294,72.448 38.294,225.305 38.294,225.305L418.263,225.305C418.263,225.305 418.263,72.448 418.263,43.712Z" style="fill:none;stroke:rgb(210,208,210);stroke-width:1.5px;"/>
            </g>
            <g id="Middle-box1" serif:id="Middle box" transform="matrix(1.114,0,0,1.02638,833.412,-1.03098)">
                <path d="M418.263,43.712C418.263,41.157 416.306,39.085 413.891,39.085C374.543,39.085 82.014,39.085 42.666,39.085C40.251,39.085 38.294,41.157 38.294,43.712C38.294,72.448 38.294,225.305 38.294,225.305L418.263,225.305C418.263,225.305 418.263,72.448 418.263,43.712Z" style="fill:white;"/>
            </g>
            <g transform="matrix(1.1121,0,0,1.07538,834.204,-2.91926)">
                <path d="M418.267,43.141C418.267,41.97 417.806,40.846 416.984,40.018C416.163,39.19 415.049,38.725 413.887,38.725C374.473,38.725 81.456,38.725 42.042,38.725C40.881,38.725 39.766,39.19 38.945,40.018C38.124,40.846 37.662,41.97 37.662,43.141C37.662,53.93 37.662,80.756 37.662,80.756L418.267,80.756C418.267,80.756 418.267,53.93 418.267,43.141Z" style="fill:rgb(253,152,63);"/>
            </g>
            <g id="_-RISK-MANAGEMENT-" serif:id="(RISK MANAGEMENT)" transform="matrix(0.944688,0,0,1,936.359,2.76565)">
                <text x="-48.961px" y="69.059px" style="font-family:'Nunito-Regular', 'Nunito';font-size:29.788px;fill:white;">C<tspan x="-29.122px " y="69.059px ">O</tspan>NFIGURE &amp; C<tspan x="175.761px " y="69.059px ">O</tspan>MP<tspan x="240.55px " y="69.059px ">A</tspan>RE</text>
            </g>
            <g transform="matrix(1.10871,0,0,1.10871,862.036,24.7987)">
                <text x="54.102px" y="98.907px" style="font-family:'Nunito-Regular', 'Nunito';font-size:21.508px;fill:rgb(99,101,106);">GMS conﬁgur<tspan x="185.106px " y="98.907px ">e</tspan>s policy</text>
                <text x="273.653px" y="98.907px" style="font-family:'Nunito-Bold', 'Nunito';font-weight:700;font-size:21.508px;fill:rgb(99,101,106);">change</text>
                <text x="54.102px" y="128.005px" style="font-family:'Nunito-Bold', 'Nunito';font-weight:700;font-size:21.508px;fill:rgb(99,101,106);">or<tspan x="74.492px " y="128.005px ">d</tspan>er<tspan x="106.968px " y="128.005px ">s</tspan></text>
                <text x="123.228px" y="128.005px" style="font-family:'Nunito-Regular', 'Nunito';font-size:21.508px;fill:rgb(99,101,106);">and</text>
                <text x="164.91px" y="128.005px" style="font-family:'Nunito-Bold', 'Nunito';font-weight:700;font-size:21.508px;fill:rgb(99,101,106);">color<tspan x="213.453px 223.11px " y="128.005px 128.005px ">-c</tspan>odes</text>
                <text x="286.579px" y="128.005px" style="font-family:'Nunito-Regular', 'Nunito';font-size:21.508px;fill:rgb(99,101,106);">diff<tspan x="318.088px " y="128.005px ">s</tspan> f<tspan x="340.907px " y="128.005px ">o</tspan>r</text>
                <text x="54.102px" y="157.104px" style="font-family:'Nunito-Regular', 'Nunito';font-size:21.508px;fill:rgb(99,101,106);">clear comparisons</text>
            </g>
            <g transform="matrix(0.408593,0,0,0.398316,774.838,105.437)">
                <path d="M315.067,72C315.067,72 292.271,63.793 287.244,50.135C281.616,34.846 302.483,31.356 323.826,31.964C335.328,32.291 349.386,34.041 349.386,34.041C349.386,34.041 316.175,38.269 304.174,47.954C292.455,57.411 315.067,72 315.067,72Z" style="fill:rgb(243,109,36);fill-rule:nonzero;"/>
            </g>
        </g>
        <g transform="matrix(0.594625,0,0,0.609968,-217.719,333.094)">
            <g id="Middle-box2" serif:id="Middle box" transform="matrix(1.114,0,0,1.02638,833.412,-1.03098)">
                <path d="M418.263,43.712C418.263,41.157 416.306,39.085 413.891,39.085C374.543,39.085 82.014,39.085 42.666,39.085C40.251,39.085 38.294,41.157 38.294,43.712C38.294,72.448 38.294,225.305 38.294,225.305L418.263,225.305C418.263,225.305 418.263,72.448 418.263,43.712Z" style="fill:none;stroke:rgb(210,208,210);stroke-width:1.5px;"/>
            </g>
            <g id="Middle-box3" serif:id="Middle box" transform="matrix(1.114,0,0,1.02638,833.412,-1.03098)">
                <path d="M418.263,43.712C418.263,41.157 416.306,39.085 413.891,39.085C374.543,39.085 82.014,39.085 42.666,39.085C40.251,39.085 38.294,41.157 38.294,43.712C38.294,72.448 38.294,225.305 38.294,225.305L418.263,225.305C418.263,225.305 418.263,72.448 418.263,43.712Z" style="fill:white;"/>
            </g>
            <g transform="matrix(1.1121,0,0,1.07538,834.204,-2.91926)">
                <path d="M418.267,43.141C418.267,41.97 417.806,40.846 416.984,40.018C416.163,39.19 415.049,38.725 413.887,38.725C374.473,38.725 81.456,38.725 42.042,38.725C40.881,38.725 39.766,39.19 38.945,40.018C38.124,40.846 37.662,41.97 37.662,43.141C37.662,53.93 37.662,80.756 37.662,80.756L418.267,80.756C418.267,80.756 418.267,53.93 418.267,43.141Z" style="fill:rgb(255,57,37);"/>
            </g>
            <g id="_-RISK-MANAGEMENT-1" serif:id="(RISK MANAGEMENT)" transform="matrix(0.944688,0,0,1,839.581,2.76565)">
                <text x="55.536px" y="69.059px" style="font-family:'Nunito-Regular', 'Nunito';font-size:29.788px;fill:white;">V<tspan x="74.243px " y="69.059px ">A</tspan>LID<tspan x="141.147px 160.331px " y="69.059px 69.059px ">AT</tspan>E</text>
            </g>
            <g transform="matrix(1.10871,0,0,1.10871,862.036,24.7987)">
                <text x="54.102px" y="98.907px" style="font-family:'Nunito-Regular', 'Nunito';font-size:21.508px;fill:rgb(99,101,106);">GMS per<tspan x="138.864px 145.811px " y="98.907px 98.907px ">fo</tspan>rms an integrit<tspan x="297.182px " y="98.907px ">y</tspan></text>
                <text x="54.102px" y="128.005px" style="font-family:'Nunito-Bold', 'Nunito';font-weight:700;font-size:21.508px;fill:rgb(99,101,106);">v<tspan x="65.265px " y="128.005px ">a</tspan>lidation of the policy&apos;s</text>
                <text x="299.333px" y="128.005px" style="font-family:'Nunito-Regular', 'Nunito';font-size:21.508px;fill:rgb(99,101,106);">logic</text>
            </g>
            <g transform="matrix(0.408593,0,0,0.398316,774.838,105.437)">
                <path d="M315.067,72C315.067,72 292.271,63.793 287.244,50.135C281.616,34.846 302.483,31.356 323.826,31.964C335.328,32.291 349.386,34.041 349.386,34.041C349.386,34.041 316.175,38.269 304.174,47.954C292.455,57.411 315.067,72 315.067,72Z" style="fill:rgb(243,109,36);fill-rule:nonzero;"/>
            </g>
        </g>
        <g transform="matrix(0.594625,0,0,0.609968,52.417,333.094)">
            <g id="Middle-box4" serif:id="Middle box" transform="matrix(1.114,0,0,1.02638,833.412,-1.03098)">
                <path d="M418.263,43.712C418.263,41.157 416.306,39.085 413.891,39.085C374.543,39.085 82.014,39.085 42.666,39.085C40.251,39.085 38.294,41.157 38.294,43.712C38.294,72.448 38.294,225.305 38.294,225.305L418.263,225.305C418.263,225.305 418.263,72.448 418.263,43.712Z" style="fill:none;stroke:rgb(210,208,210);stroke-width:1.5px;"/>
            </g>
            <g id="Middle-box5" serif:id="Middle box" transform="matrix(1.114,0,0,1.02638,833.412,-1.03098)">
                <path d="M418.263,43.712C418.263,41.157 416.306,39.085 413.891,39.085C374.543,39.085 82.014,39.085 42.666,39.085C40.251,39.085 38.294,41.157 38.294,43.712C38.294,72.448 38.294,225.305 38.294,225.305L418.263,225.305C418.263,225.305 418.263,72.448 418.263,43.712Z" style="fill:white;"/>
            </g>
            <g transform="matrix(1.1121,0,0,1.07538,834.204,-2.91926)">
                <path d="M418.267,43.141C418.267,41.97 417.806,40.846 416.984,40.018C416.163,39.19 415.049,38.725 413.887,38.725C374.473,38.725 81.456,38.725 42.042,38.725C40.881,38.725 39.766,39.19 38.945,40.018C38.124,40.846 37.662,41.97 37.662,43.141C37.662,53.93 37.662,80.756 37.662,80.756L418.267,80.756C418.267,80.756 418.267,53.93 418.267,43.141Z" style="fill:rgb(61,166,229);"/>
            </g>
            <g id="_-RISK-MANAGEMENT-2" serif:id="(RISK MANAGEMENT)" transform="matrix(0.944688,0,0,1,908.486,2.76565)">
                <text x="-20.23px" y="69.059px" style="font-family:'Nunito-Regular', 'Nunito';font-size:29.788px;fill:white;">RE<tspan x="17.362px " y="69.059px ">V</tspan>IE<tspan x="62.73px " y="69.059px ">W</tspan> &amp; APPR<tspan x="211.045px 233.327px " y="69.059px 69.059px ">OV</tspan>E</text>
            </g>
            <g transform="matrix(1.10871,0,0,1.10871,862.036,24.7987)">
                <text x="54.102px" y="98.907px" style="font-family:'Nunito-Regular', 'Nunito';font-size:21.508px;fill:rgb(99,101,106);">GMS emails r<tspan x="180.869px 192.074px " y="98.907px 98.907px ">ev</tspan>ie<tspan x="219.324px 237.305px 248.639px 256.124px " y="98.907px 98.907px 98.907px 98.907px ">wers</tspan> and logs</text>
                <text x="54.102px" y="128.005px" style="font-family:'Nunito-Regular', 'Nunito';font-size:21.508px;fill:rgb(99,101,106);">a</text>
                <text x="71.05px" y="128.005px" style="font-family:'Nunito-Bold', 'Nunito';font-weight:700;font-size:21.508px;fill:rgb(99,101,106);">(dis)appr<tspan x="160.436px 172.631px 183.794px " y="128.005px 128.005px 128.005px ">ova</tspan>l audit trail</text>
                <text x="307.42px" y="128.005px" style="font-family:'Nunito-Regular', 'Nunito';font-size:21.508px;fill:rgb(99,101,106);">of the</text>
                <text x="54.102px" y="157.104px" style="font-family:'Nunito-Regular', 'Nunito';font-size:21.508px;fill:rgb(99,101,106);">policy</text>
            </g>
            <g transform="matrix(0.408593,0,0,0.398316,774.838,105.437)">
                <path d="M315.067,72C315.067,72 292.271,63.793 287.244,50.135C281.616,34.846 302.483,31.356 323.826,31.964C335.328,32.291 349.386,34.041 349.386,34.041C349.386,34.041 316.175,38.269 304.174,47.954C292.455,57.411 315.067,72 315.067,72Z" style="fill:rgb(243,109,36);fill-rule:nonzero;"/>
            </g>
        </g>
        <g transform="matrix(0.594625,0,0,0.609968,322.552,333.094)">
            <g id="Middle-box6" serif:id="Middle box" transform="matrix(1.114,0,0,1.02638,833.412,-1.03098)">
                <path d="M418.263,43.712C418.263,41.157 416.306,39.085 413.891,39.085C374.543,39.085 82.014,39.085 42.666,39.085C40.251,39.085 38.294,41.157 38.294,43.712C38.294,72.448 38.294,225.305 38.294,225.305L418.263,225.305C418.263,225.305 418.263,72.448 418.263,43.712Z" style="fill:none;stroke:rgb(210,208,210);stroke-width:1.5px;"/>
            </g>
            <g id="Middle-box7" serif:id="Middle box" transform="matrix(1.114,0,0,1.02638,833.412,-1.03098)">
                <path d="M418.263,43.712C418.263,41.157 416.306,39.085 413.891,39.085C374.543,39.085 82.014,39.085 42.666,39.085C40.251,39.085 38.294,41.157 38.294,43.712C38.294,72.448 38.294,225.305 38.294,225.305L418.263,225.305C418.263,225.305 418.263,72.448 418.263,43.712Z" style="fill:white;"/>
            </g>
            <g transform="matrix(1.1121,0,0,1.07538,834.204,-2.91926)">
                <path d="M418.267,43.141C418.267,41.97 417.806,40.846 416.984,40.018C416.163,39.19 415.049,38.725 413.887,38.725C374.473,38.725 81.456,38.725 42.042,38.725C40.881,38.725 39.766,39.19 38.945,40.018C38.124,40.846 37.662,41.97 37.662,43.141C37.662,53.93 37.662,80.756 37.662,80.756L418.267,80.756C418.267,80.756 418.267,53.93 418.267,43.141Z" style="fill:rgb(200,126,182);"/>
            </g>
            <g id="_-RISK-MANAGEMENT-3" serif:id="(RISK MANAGEMENT)" transform="matrix(0.944688,0,0,1,908.486,2.76565)">
                <text x="-20.23px" y="69.059px" style="font-family:'Nunito-Regular', 'Nunito';font-size:29.788px;fill:white;">DEPL<tspan x="53.347px 74.794px " y="69.059px 69.059px ">OY</tspan></text>
            </g>
            <g transform="matrix(1.10871,0,0,1.10871,862.036,24.7987)">
                <text x="54.102px" y="98.907px" style="font-family:'Nunito-Regular', 'Nunito';font-size:21.508px;fill:rgb(99,101,106);">GMS deplo<tspan x="159.748px 170.61px " y="98.907px 98.907px ">ys</tspan> the policy changes</text>
                <text x="54.102px" y="128.005px" style="font-family:'Nunito-Regular', 'Nunito';font-size:21.508px;fill:rgb(99,101,106);">immediately or</text>
                <text x="201.301px" y="128.005px" style="font-family:'Nunito-Bold', 'Nunito';font-weight:700;font-size:21.508px;fill:rgb(99,101,106);">on a schedule</text>
            </g>
            <g transform="matrix(0.408593,0,0,0.398316,774.838,105.437)">
                <path d="M315.067,72C315.067,72 292.271,63.793 287.244,50.135C281.616,34.846 302.483,31.356 323.826,31.964C335.328,32.291 349.386,34.041 349.386,34.041C349.386,34.041 316.175,38.269 304.174,47.954C292.455,57.411 315.067,72 315.067,72Z" style="fill:rgb(243,109,36);fill-rule:nonzero;"/>
            </g>
        </g>
        <g transform="matrix(0.594625,0,0,0.609968,592.552,333.094)">
            <g id="Middle-box8" serif:id="Middle box" transform="matrix(1.114,0,0,1.02638,833.412,-1.03098)">
                <path d="M418.263,43.712C418.263,41.157 416.306,39.085 413.891,39.085C374.543,39.085 82.014,39.085 42.666,39.085C40.251,39.085 38.294,41.157 38.294,43.712C38.294,72.448 38.294,225.305 38.294,225.305L418.263,225.305C418.263,225.305 418.263,72.448 418.263,43.712Z" style="fill:none;stroke:rgb(210,208,210);stroke-width:1.5px;"/>
            </g>
            <g id="Middle-box9" serif:id="Middle box" transform="matrix(1.114,0,0,1.02638,833.412,-1.03098)">
                <path d="M418.263,43.712C418.263,41.157 416.306,39.085 413.891,39.085C374.543,39.085 82.014,39.085 42.666,39.085C40.251,39.085 38.294,41.157 38.294,43.712C38.294,72.448 38.294,225.305 38.294,225.305L418.263,225.305C418.263,225.305 418.263,72.448 418.263,43.712Z" style="fill:white;"/>
            </g>
            <g transform="matrix(1.1121,0,0,1.07538,834.204,-2.91926)">
                <path d="M418.267,43.141C418.267,41.97 417.806,40.846 416.984,40.018C416.163,39.19 415.049,38.725 413.887,38.725C374.473,38.725 81.456,38.725 42.042,38.725C40.881,38.725 39.766,39.19 38.945,40.018C38.124,40.846 37.662,41.97 37.662,43.141C37.662,53.93 37.662,80.756 37.662,80.756L418.267,80.756C418.267,80.756 418.267,53.93 418.267,43.141Z" style="fill:rgb(179,214,101);"/>
            </g>
            <g id="_-RISK-MANAGEMENT-4" serif:id="(RISK MANAGEMENT)" transform="matrix(0.944688,0,0,1,908.486,2.76565)">
                <text x="-20.23px" y="69.059px" style="font-family:'Nunito-Regular', 'Nunito';font-size:29.788px;fill:white;">A<tspan x="1.277px " y="69.059px ">U</tspan>DIT</text>
            </g>
            <g transform="matrix(1.10871,0,0,1.10871,862.036,24.7987)">
                <text x="54.102px" y="98.907px" style="font-family:'Nunito-Regular', 'Nunito';font-size:21.508px;fill:rgb(99,101,106);">The change logs enable accurate</text>
                <text x="54.102px" y="128.005px" style="font-family:'Nunito-Regular', 'Nunito';font-size:21.508px;fill:rgb(99,101,106);">policy</text>
                <text x="115.442px" y="128.005px" style="font-family:'Nunito-Bold', 'Nunito';font-weight:700;font-size:21.508px;fill:rgb(99,101,106);">auditing</text>
                <text x="202.721px" y="128.005px" style="font-family:'Nunito-Regular', 'Nunito';font-size:21.508px;fill:rgb(99,101,106);">and pr<tspan x="264.297px " y="128.005px ">e</tspan>cise</text>
                <text x="54.102px" y="157.104px" style="font-family:'Nunito-Bold', 'Nunito';font-weight:700;font-size:21.508px;fill:rgb(99,101,106);">compliance</text>
                <text x="171.255px" y="157.104px" style="font-family:'Nunito-Regular', 'Nunito';font-size:21.508px;fill:rgb(99,101,106);">data</text>
            </g>
            <g transform="matrix(0.408593,0,0,0.398316,774.838,105.437)">
                <path d="M315.067,72C315.067,72 292.271,63.793 287.244,50.135C281.616,34.846 302.483,31.356 323.826,31.964C335.328,32.291 349.386,34.041 349.386,34.041C349.386,34.041 316.175,38.269 304.174,47.954C292.455,57.411 315.067,72 315.067,72Z" style="fill:rgb(243,109,36);fill-rule:nonzero;"/>
            </g>
        </g>
    </g>
</svg>
