<?xml version="1.0" encoding="UTF-8" standalone="no"?>
<!DOCTYPE svg PUBLIC "-//W3C//DTD SVG 1.1//EN" "http://www.w3.org/Graphics/SVG/1.1/DTD/svg11.dtd">
<svg width="100%" height="100%" viewBox="0 0 286 214" version="1.1" xmlns="http://www.w3.org/2000/svg" xmlns:xlink="http://www.w3.org/1999/xlink" xml:space="preserve" xmlns:serif="http://www.serif.com/" style="fill-rule:evenodd;clip-rule:evenodd;stroke-linejoin:round;stroke-miterlimit:1.41421;">
    <g transform="matrix(1,0,0,1,-517,-425)">
        <g id="Green" transform="matrix(1,0,0,1,21.7102,481.568)">
            <g transform="matrix(1,0,0,1,123.127,-393.586)">
                <g transform="matrix(0.933773,0,0,0.933773,22.6486,23.8347)">
                    <text x="374.3px" y="370.205px" style="font-family:'Nunito-Regular', 'Nunito';font-size:14.457px;fill:rgb(173,173,173);">Duo liber tacimates ut<tspan x="515.694px " y="370.205px ">,</tspan> ubique</text>
                    <text x="374.3px" y="391.623px" style="font-family:'Nunito-Regular', 'Nunito';font-size:14.457px;fill:rgb(173,173,173);">aliquando disputando e<tspan x="524.947px " y="391.623px ">x</tspan> pri.</text>
                </g>
                <g transform="matrix(1.43244,0,0,1.43244,-794.495,-95.3261)">
                    <text x="813.575px" y="311.986px" style="font-family:'Nunito-SemiBold', 'Nunito';font-weight:600;font-size:13.5px;fill:white;">L<tspan x="820.46px " y="311.986px ">O</tspan>REM IPSUM</text>
                </g>
            </g>
            <g transform="matrix(1,0,0,1,86.2958,-324.371)">
                <g transform="matrix(0.933773,0,0,0.933773,22.6486,23.8347)">
                    <text x="437.942px" y="370.205px" style="font-family:'Nunito-Regular', 'Nunito';font-size:14.457px;fill:rgb(173,173,173);">Duo liber tacimates ut<tspan x="579.336px " y="370.205px ">,</tspan> ubique</text>
                    <text x="437.942px" y="391.623px" style="font-family:'Nunito-Regular', 'Nunito';font-size:14.457px;fill:rgb(173,173,173);">aliquando disputando e<tspan x="588.589px " y="391.623px ">x</tspan> pri.</text>
                </g>
                <g transform="matrix(1.43244,0,0,1.43244,-627.57,-95.3261)">
                    <text x="739.123px" y="311.986px" style="font-family:'Nunito-SemiBold', 'Nunito';font-weight:600;font-size:13.5px;fill:white;">L<tspan x="746.008px " y="311.986px ">O</tspan>REM IPSUM</text>
                </g>
            </g>
            <g transform="matrix(1,0,0,1,-0.34207,-331.09)">
                <g transform="matrix(0.933773,0,0,0.933773,19.7998,99.9243)">
                    <text x="520.61px" y="370.205px" style="font-family:'Nunito-Regular', 'Nunito';font-size:14.457px;fill:rgb(173,173,173);">Malorum adipisci at est<tspan x="669.131px " y="370.205px ">,</tspan> quo ei sonet err<tspan x="776.232px " y="370.205px ">o</tspan>ribus</text>
                    <text x="520.61px" y="391.623px" style="font-family:'Nunito-Regular', 'Nunito';font-size:14.457px;fill:rgb(173,173,173);">scribentur<tspan x="585.003px " y="391.623px ">.</tspan> Eam at quis dolor<tspan x="703.8px " y="391.623px ">e</tspan> albucius, libris</text>
                    <text x="520.61px" y="413.042px" style="font-family:'Nunito-Regular', 'Nunito';font-size:14.457px;fill:rgb(173,173,173);">fas<tspan x="539.809px " y="413.042px ">t</tspan>idii per<tspan x="587.924px " y="413.042px ">c</tspan>ipitur ne eam, nisl aeque cu pri.</text>
                </g>
                <g transform="matrix(1.43244,0,0,1.43244,-553.414,-19.2366)">
                    <text x="739.123px" y="311.986px" style="font-family:'Nunito-SemiBold', 'Nunito';font-weight:600;font-size:13.5px;fill:white;">L<tspan x="746.008px " y="311.986px ">O</tspan>REM IPSUM DOL<tspan x="861.527px " y="311.986px ">O</tspan>R SIT</text>
                </g>
            </g>
        </g>
    </g>
</svg>
