<?xml version="1.0" encoding="UTF-8" standalone="no"?>
<!DOCTYPE svg PUBLIC "-//W3C//DTD SVG 1.1//EN" "http://www.w3.org/Graphics/SVG/1.1/DTD/svg11.dtd">
<svg width="100%" height="100%" viewBox="0 0 27 594" version="1.1" xmlns="http://www.w3.org/2000/svg" xmlns:xlink="http://www.w3.org/1999/xlink" xml:space="preserve" xmlns:serif="http://www.serif.com/" style="fill-rule:evenodd;clip-rule:evenodd;stroke-linejoin:round;stroke-miterlimit:1.41421;">
    <g transform="matrix(1,0,0,1,-453,-84)">
        <g id="Green-Col-4" serif:id="Green Col 4">
            <g transform="matrix(0.212432,0,0,0.212432,453.955,652.028)">
                <path d="M113.515,0L6.493,0C2.908,0 0,2.896 0,6.486L0,113.497C0,117.079 2.908,120 6.493,120L113.515,120C117.093,120 120,117.079 120,113.497L120,6.486C120,2.896 117.093,0 113.515,0Z" style="fill:rgb(187,219,112);"/>
            </g>
            <g transform="matrix(0.212432,0,0,0.212432,453.955,122.224)">
                <path d="M113.515,0L6.493,0C2.908,0 0,2.896 0,6.486L0,113.497C0,117.079 2.908,120 6.493,120L113.515,120C117.093,120 120,117.079 120,113.497L120,6.486C120,2.896 117.093,0 113.515,0Z" style="fill:rgb(187,219,112);"/>
            </g>
            <g transform="matrix(0.212432,0,0,0.212432,453.955,84.4367)">
                <path d="M113.515,0L6.493,0C2.908,0 0,2.896 0,6.486L0,113.497C0,117.079 2.908,120 6.493,120L113.515,120C117.093,120 120,117.079 120,113.497L120,6.486C120,2.896 117.093,0 113.515,0Z" style="fill:rgb(187,219,112);"/>
            </g>
            <g transform="matrix(0.212432,0,0,0.212432,453.955,160.081)">
                <path d="M113.515,0L6.493,0C2.908,0 0,2.896 0,6.486L0,113.497C0,117.079 2.908,120 6.493,120L113.515,120C117.093,120 120,117.079 120,113.497L120,6.486C120,2.896 117.093,0 113.515,0Z" style="fill:rgb(187,219,112);"/>
            </g>
            <g transform="matrix(0.212432,0,0,0.212432,453.955,197.812)">
                <path d="M113.515,0L6.493,0C2.908,0 0,2.896 0,6.486L0,113.497C0,117.079 2.908,120 6.493,120L113.515,120C117.093,120 120,117.079 120,113.497L120,6.486C120,2.896 117.093,0 113.515,0Z" style="fill:rgb(187,219,112);"/>
            </g>
            <g transform="matrix(0.212432,0,0,0.212432,453.955,236.285)">
                <path d="M113.515,0L6.493,0C2.908,0 0,2.896 0,6.486L0,113.497C0,117.079 2.908,120 6.493,120L113.515,120C117.093,120 120,117.079 120,113.497L120,6.486C120,2.896 117.093,0 113.515,0Z" style="fill:rgb(187,219,112);"/>
            </g>
            <g transform="matrix(0.212432,0,0,0.212432,453.955,273.524)">
                <path d="M113.515,0L6.493,0C2.908,0 0,2.896 0,6.486L0,113.497C0,117.079 2.908,120 6.493,120L113.515,120C117.093,120 120,117.079 120,113.497L120,6.486C120,2.896 117.093,0 113.515,0Z" style="fill:rgb(187,219,112);"/>
            </g>
            <g transform="matrix(0.212432,0,0,0.212432,453.955,614.091)">
                <path d="M113.515,0L6.493,0C2.908,0 0,2.896 0,6.486L0,113.497C0,117.079 2.908,120 6.493,120L113.515,120C117.093,120 120,117.079 120,113.497L120,6.486C120,2.896 117.093,0 113.515,0Z" style="fill:rgb(187,219,112);"/>
            </g>
            <g transform="matrix(0.212432,0,0,0.212432,453.955,576.172)">
                <path d="M113.515,0L6.493,0C2.908,0 0,2.896 0,6.486L0,113.497C0,117.079 2.908,120 6.493,120L113.515,120C117.093,120 120,117.079 120,113.497L120,6.486C120,2.896 117.093,0 113.515,0Z" style="fill:rgb(187,219,112);"/>
            </g>
            <g transform="matrix(0.212432,0,0,0.212432,453.955,311.408)">
                <path d="M113.515,0L6.493,0C2.908,0 0,2.896 0,6.486L0,113.497C0,117.079 2.908,120 6.493,120L113.515,120C117.093,120 120,117.079 120,113.497L120,6.486C120,2.896 117.093,0 113.515,0Z" style="fill:rgb(187,219,112);"/>
            </g>
            <g transform="matrix(0.212432,0,0,0.212432,453.955,349.21)">
                <path d="M113.515,0L6.493,0C2.908,0 0,2.896 0,6.486L0,113.497C0,117.079 2.908,120 6.493,120L113.515,120C117.093,120 120,117.079 120,113.497L120,6.486C120,2.896 117.093,0 113.515,0Z" style="fill:rgb(187,219,112);"/>
            </g>
            <g transform="matrix(0.212432,0,0,0.212432,453.955,387.254)">
                <path d="M113.515,0L6.493,0C2.908,0 0,2.896 0,6.486L0,113.497C0,117.079 2.908,120 6.493,120L113.515,120C117.093,120 120,117.079 120,113.497L120,6.486C120,2.896 117.093,0 113.515,0Z" style="fill:rgb(187,219,112);"/>
            </g>
            <g transform="matrix(0.212432,0,0,0.212432,453.955,424.731)">
                <path d="M113.515,0L6.493,0C2.908,0 0,2.896 0,6.486L0,113.497C0,117.079 2.908,120 6.493,120L113.515,120C117.093,120 120,117.079 120,113.497L120,6.486C120,2.896 117.093,0 113.515,0Z" style="fill:rgb(187,219,112);"/>
            </g>
            <g transform="matrix(0.212432,0,0,0.212432,453.955,462.995)">
                <path d="M113.515,0L6.493,0C2.908,0 0,2.896 0,6.486L0,113.497C0,117.079 2.908,120 6.493,120L113.515,120C117.093,120 120,117.079 120,113.497L120,6.486C120,2.896 117.093,0 113.515,0Z" style="fill:rgb(187,219,112);"/>
            </g>
            <g transform="matrix(0.212432,0,0,0.212432,453.955,500.642)">
                <path d="M113.515,0L6.493,0C2.908,0 0,2.896 0,6.486L0,113.497C0,117.079 2.908,120 6.493,120L113.515,120C117.093,120 120,117.079 120,113.497L120,6.486C120,2.896 117.093,0 113.515,0Z" style="fill:rgb(187,219,112);"/>
            </g>
            <g transform="matrix(0.212432,0,0,0.212432,453.955,538.759)">
                <path d="M113.515,0L6.493,0C2.908,0 0,2.896 0,6.486L0,113.497C0,117.079 2.908,120 6.493,120L113.515,120C117.093,120 120,117.079 120,113.497L120,6.486C120,2.896 117.093,0 113.515,0Z" style="fill:rgb(187,219,112);"/>
            </g>
        </g>
    </g>
</svg>
