<?xml version="1.0" encoding="UTF-8" standalone="no"?>
<!DOCTYPE svg PUBLIC "-//W3C//DTD SVG 1.1//EN" "http://www.w3.org/Graphics/SVG/1.1/DTD/svg11.dtd">
<svg width="100%" height="100%" viewBox="0 0 1280 800" version="1.1" xmlns="http://www.w3.org/2000/svg" xmlns:xlink="http://www.w3.org/1999/xlink" xml:space="preserve" xmlns:serif="http://www.serif.com/" style="fill-rule:evenodd;clip-rule:evenodd;stroke-linecap:round;stroke-linejoin:round;stroke-miterlimit:1.5;">
    <g id="Cloud" transform="matrix(1.95665,0,0,1.96822,-615.148,48.3813)">
        <path d="M608.242,122.971C608.242,122.971 619.804,50.826 689.137,45.996C759.814,41.073 792.816,118.874 781.059,152.28C781.059,152.28 838.025,173.812 822.744,233.738C813.97,268.149 790.97,278.995 776.222,284.94C758.475,292.095 493.067,286.925 493.067,286.925C493.067,286.925 455.917,276.49 457.672,233.738C459.426,190.986 496.203,188.07 513.166,188.123C513.166,188.123 503.517,137.663 537.25,119.074C570.983,100.485 597.155,116.643 608.242,122.971Z" style="fill:none;stroke:rgb(192,192,192);stroke-width:2.8px;"/>
    </g>
    <g transform="matrix(1.28878,0,0,1.28878,-263.921,-145.771)">
        <text x="804.89px" y="536.446px" style="font-family:'Nunito-Regular', 'Nunito';font-size:14px;fill:rgb(69,69,69);">DLP + C<tspan x="856.788px " y="536.446px ">o</tspan>mpliance</text>
    </g>
    <g transform="matrix(1.28878,0,0,1.28878,-426.855,-145.753)">
        <text x="804.89px" y="536.446px" style="font-family:'Nunito-Regular', 'Nunito';font-size:14px;fill:rgb(69,69,69);">Email C<tspan x="851.832px " y="536.446px ">o</tspan>ntinuity</text>
    </g>
    <g transform="matrix(1.28878,0,0,1.28878,-604.375,-145.753)">
        <text x="804.89px" y="536.446px" style="font-family:'Nunito-Regular', 'Nunito';font-size:14px;fill:rgb(69,69,69);">Thr<tspan x="826.016px " y="536.446px ">e</tspan>at P<tspan x="858.076px 862.878px " y="536.446px 536.446px ">ro</tspan>tection</text>
    </g>
    <g transform="matrix(1.34967,0,0,1.34967,-290.031,-153.969)">
        <g transform="matrix(0.549043,0,0,0.549043,442.543,181.204)">
            <g id="Fill-9" transform="matrix(0.817869,0,0,0.817869,556.804,338.706)">
                <path d="M248.4,118.683L175.6,118.683L175.6,105.746C175.6,85.738 191.9,69.524 212,69.524C232.1,69.524 248.4,85.738 248.4,105.746L248.4,118.683ZM160,118.683L160,105.746C160,77.169 183.276,54 212,54C240.724,54 264.006,77.169 264.006,105.746L264.006,118.683L264.619,118.683C271.46,118.683 277,124.202 277,131.003L277,204.68C277,211.48 271.46,217 264.619,217L159.381,217C152.547,217 147,211.48 147,204.68L147,131.003C147,124.202 152.547,118.683 159.381,118.683L160,118.683Z" style="fill:none;stroke:rgb(255,108,11);stroke-width:6.6px;stroke-linecap:butt;stroke-miterlimit:1.41421;"/>
            </g>
            <g id="Combined-Shape" transform="matrix(0.817869,0,0,0.817869,556.804,338.706)">
                <path d="M212,199.463L212,118.681L248.209,118.681L248.209,105.745C248.209,85.879 232.035,69.755 212,69.525L212,54C240.716,54.23 263.919,77.31 263.919,105.745L263.919,118.681L264.536,118.681C271.423,118.681 277,124.201 277,131.002L277,204.679C277,211.48 271.423,217 264.536,217L212,217L212,199.463Z" style="fill:none;stroke:rgb(255,108,11);stroke-width:6.6px;stroke-linecap:butt;stroke-miterlimit:1.41421;"/>
            </g>
            <g id="Shape" transform="matrix(0.400471,0,0,0.400471,667.027,401.18)">
                <path d="M136.555,241.218C122.024,226.093 110.4,205.896 129.784,190.324C166.154,161.118 266.757,148.35 266.757,148.35C266.757,148.35 224.155,143.069 189.312,142.085C124.661,140.265 61.447,150.766 78.494,196.887C89.489,226.66 128.615,247.84 149.467,257.297C144.224,251.391 139.94,245.872 136.555,241.218Z" style="fill:rgb(255,108,12);fill-rule:nonzero;"/>
            </g>
        </g>
        <g transform="matrix(1,0,0,1,195.937,51.1848)">
            <path d="M605.292,348.297C615.3,336.109 630.504,328.322 647.512,328.322C664.686,328.322 680.02,336.262 690.006,348.664C686.536,350.791 684.229,354.637 684.229,359.018C684.229,365.774 689.714,371.259 696.47,371.259C697.955,371.259 699.378,370.994 700.662,370.474C701.66,374.504 702.155,378.677 702.155,382.965C702.155,408.948 683.98,430.72 659.612,436.215C658.984,430.115 653.798,425.366 647.512,425.366C641.226,425.366 636.04,430.115 635.412,436.215C611.044,430.72 592.869,408.948 592.869,382.965C592.869,378.541 593.396,374.239 594.449,370.138C596.001,370.872 597.707,371.259 599.504,371.259C606.26,371.259 611.745,365.774 611.745,359.018C611.745,354.36 609.137,350.307 605.292,348.297Z" style="fill:none;stroke:rgb(255,108,11);stroke-width:4.08px;"/>
            <g transform="matrix(0.224019,0,0,0.224019,454.449,273.227)">
                <path d="M624.947,432.602C606.065,424.187 592.869,405.105 592.869,382.965C592.869,352.807 617.354,328.322 647.512,328.322C656.877,328.322 665.696,330.683 673.352,335.106" style="fill:none;stroke:rgb(255,108,11);stroke-width:18.19px;"/>
            </g>
            <g transform="matrix(0.224019,0,0,0.224019,454.449,273.227)">
                <path d="M673.352,335.106C690.516,344.076 702.155,362.172 702.155,382.965C702.155,413.123 677.67,437.607 647.512,437.607C639.494,437.607 631.877,435.877 624.947,432.602" style="fill:none;stroke:rgb(255,108,11);stroke-width:18.19px;"/>
            </g>
            <g transform="matrix(0.224019,0,0,0.224019,551.415,273.227)">
                <path d="M618.656,336.744C627.008,331.348 636.91,328.322 647.512,328.322C677.67,328.322 702.155,352.807 702.155,382.965C702.155,406.496 687.248,426.574 666.222,434.103" style="fill:none;stroke:rgb(255,108,11);stroke-width:18.19px;"/>
            </g>
            <g transform="matrix(0.224019,0,0,0.224019,551.415,273.227)">
                <path d="M666.222,434.103C660.491,436.425 654.139,437.607 647.512,437.607C617.354,437.607 592.869,413.123 592.869,382.965C592.869,363.409 603.164,346.239 618.656,336.744" style="fill:none;stroke:rgb(255,108,11);stroke-width:18.19px;"/>
            </g>
            <g transform="matrix(0.224019,0,0,0.224019,502.457,351.816)">
                <path d="M701.527,376.749L702.155,382.965C702.155,413.123 677.67,437.607 647.512,437.607C617.354,437.607 592.869,413.123 592.869,382.965L593.497,376.749" style="fill:none;stroke:rgb(255,108,11);stroke-width:18.19px;"/>
            </g>
            <g transform="matrix(0.224019,0,0,0.224019,502.457,351.816)">
                <path d="M593.497,376.749C596.301,349.52 619.451,328.322 647.512,328.322C675.573,328.322 698.723,349.52 701.527,376.749" style="fill:none;stroke:rgb(255,108,11);stroke-width:18.19px;"/>
            </g>
        </g>
    </g>
    <g transform="matrix(1.10513,0,0,1.10513,-400.691,-44.3894)">
        <g id="Combined-Shape1" serif:id="Combined-Shape" transform="matrix(0.477677,0,0,0.477677,728.714,349.42)">
            <path d="M269.598,144.05C270.721,123.076 268.326,108.436 268.075,105.208C267.33,95.636 263.72,83.833 244.169,80.98C182.897,72.038 154.961,72.207 107.742,81.001C96.03,83.182 91.921,88.073 90.167,102.294C89.538,107.395 86.385,124.306 87.774,147.592C67.83,157.467 58.332,173.607 66.741,198.557C75.962,225.919 106.227,247.151 132.996,260.316C145.061,274.766 160.203,289.041 179.161,302.573C245.411,255.392 264.284,196.386 268.71,155.106C284.908,152.151 295.616,150.755 295.616,150.755C295.616,150.755 286.437,147.597 269.598,144.05Z" style="fill:none;stroke:rgb(255,108,11);stroke-width:6.63px;stroke-linecap:butt;stroke-miterlimit:1.41421;"/>
        </g>
        <g id="a" transform="matrix(1,0,0,1,298.819,0)">
            <circle cx="513.489" cy="433.013" r="66.875" style="fill:none;stroke:rgb(255,108,11);stroke-width:4.98px;"/>
        </g>
        <g id="Combined-Shape2" serif:id="Combined-Shape" transform="matrix(0.904867,0,0,0.904867,358.047,40.1665)">
            <path d="M507.292,389.706L507.904,389.709L508.549,389.713L509.225,389.72L509.931,389.73L510.665,389.742L511.425,389.758L511.815,389.767L512.211,389.777L512.612,389.788L513.019,389.8L513.432,389.813L513.85,389.827L514.272,389.843L514.7,389.859L515.132,389.876L515.569,389.895L516.01,389.914L516.455,389.935L516.904,389.958L517.357,389.981L517.813,390.006L518.273,390.032L518.735,390.06L519.201,390.089L519.669,390.12L520.139,390.152L520.612,390.186L521.087,390.221L521.564,390.258L522.042,390.296L522.522,390.336L523.004,390.378L523.486,390.422L523.97,390.467L524.454,390.514L524.938,390.563L525.423,390.614L525.909,390.667L526.394,390.722L526.878,390.779L527.219,390.818L527.558,390.858L527.898,390.899L528.237,390.94L528.576,390.983L528.914,391.027L529.252,391.072L529.589,391.118L529.925,391.165L530.261,391.213L530.595,391.262L530.929,391.312L531.262,391.363L531.593,391.415L531.924,391.469L532.253,391.523L532.582,391.579L532.909,391.636L533.234,391.694L533.558,391.754L533.881,391.814L534.202,391.876L534.521,391.939L534.839,392.003L535.154,392.069L535.468,392.135L535.781,392.204L536.091,392.273L536.399,392.344L536.705,392.416L537.009,392.489L537.31,392.564L537.361,392.578L537.423,392.596L537.506,392.623L537.61,392.657L537.733,392.701L537.801,392.726L537.873,392.753L537.95,392.783L538.03,392.816L538.113,392.851L538.2,392.888L538.291,392.928L538.384,392.971L538.48,393.017L538.579,393.065L538.68,393.116L538.784,393.17L538.89,393.227L538.997,393.287L539.107,393.35L539.218,393.416L539.33,393.485L539.443,393.557L539.558,393.633L539.673,393.712L539.788,393.794L539.904,393.88L540.021,393.969L540.137,394.061L540.253,394.157L540.311,394.207L540.369,394.257L540.427,394.308L540.484,394.361L540.542,394.414L540.599,394.468L540.656,394.523L540.712,394.578L540.769,394.635L540.825,394.693L540.881,394.752L540.936,394.812L540.991,394.872L541.046,394.934L541.1,394.997L541.154,395.061L541.207,395.125L541.26,395.191L541.312,395.258L541.364,395.325L541.415,395.394L541.466,395.464L541.516,395.535L541.565,395.607L541.614,395.68L541.662,395.754L541.709,395.829L541.756,395.905L541.802,395.982L541.847,396.061L541.891,396.14L541.935,396.221L541.978,396.302L542.019,396.385L542.06,396.469L542.1,396.554L542.139,396.64L542.177,396.727L542.214,396.816L542.25,396.906L542.285,396.996L542.319,397.088L542.352,397.181L542.384,397.276L542.415,397.371L542.444,397.468L542.473,397.565L542.5,397.665L542.526,397.765L542.55,397.866L542.574,397.969L542.596,398.073L542.617,398.178L542.636,398.284L542.698,398.616L542.76,398.958L542.823,399.311L542.885,399.675L542.947,400.05L543.008,400.435L543.069,400.83L543.129,401.235L543.188,401.651L543.246,402.076L543.303,402.511L543.359,402.955L543.413,403.409L543.465,403.872L543.515,404.345L543.539,404.584L543.563,404.826L543.592,405.129L543.62,405.435L543.647,405.745L543.673,406.058L543.699,406.375L543.723,406.695L543.746,407.019L543.769,407.346L543.79,407.677L543.81,408.011L543.828,408.348L543.846,408.689L543.862,409.033L543.876,409.38L543.889,409.731L543.901,410.085L543.911,410.442L543.919,410.802L543.926,411.165L543.931,411.531L543.934,411.9L543.936,412.273L543.935,412.648L543.933,413.027L543.928,413.408L543.922,413.792L543.913,414.18L543.902,414.57L543.889,414.962L543.874,415.358L543.857,415.757L543.837,416.158L543.176,416.042L542.506,415.926L541.827,415.811L541.138,415.697L540.439,415.583L539.731,415.47L539.013,415.357L538.285,415.246L537.549,415.135L536.803,415.026L536.047,414.917L535.283,414.81L534.509,414.704L533.726,414.6L532.933,414.496L532.132,414.395L531.322,414.295L530.502,414.196L529.674,414.099L528.836,414.004L527.99,413.911L527.134,413.82L526.27,413.731L525.835,413.687L525.398,413.644L524.958,413.601L524.516,413.559L524.072,413.518L523.626,413.477L523.177,413.436L522.727,413.397L522.274,413.357L521.819,413.319L521.362,413.281L520.903,413.244L520.442,413.207L519.978,413.171L519.513,413.135L519.045,413.101L518.576,413.067L518.104,413.033L517.64,413.002L517.177,412.971L516.714,412.942L516.251,412.915L515.788,412.888L515.325,412.863L514.862,412.838L514.4,412.815L513.937,412.793L513.475,412.772L513.014,412.752L512.552,412.733L512.091,412.714L511.63,412.697L511.169,412.68L510.709,412.664L509.789,412.635L508.871,412.608L507.954,412.583L507.039,412.561L506.125,412.54L505.214,412.521L504.305,412.502L503.398,412.485L502.676,412.471L501.956,412.459L501.237,412.449L500.521,412.441L499.805,412.435L499.092,412.431L498.38,412.43L497.67,412.431L496.961,412.434L496.255,412.44L495.551,412.447L494.848,412.457L494.148,412.47L493.45,412.485L492.754,412.502L492.061,412.521L491.37,412.543L490.681,412.567L489.995,412.594L489.311,412.623L488.63,412.655L487.951,412.689L487.275,412.726L486.602,412.765L485.932,412.807L485.265,412.852L484.6,412.899L483.939,412.949L483.281,413.001L482.625,413.056L481.973,413.114L481.648,413.144L481.324,413.174L481.001,413.206L480.679,413.238L480.357,413.27L480.037,413.304L479.717,413.338L479.398,413.373L479.08,413.408L478.763,413.444L478.447,413.481L478.131,413.519L477.817,413.557L477.503,413.596L477.19,413.636L476.879,413.676L476.568,413.717L476.258,413.759L475.949,413.802L475.641,413.845L475.334,413.889L475.028,413.934L474.723,413.979L474.419,414.026L474.116,414.073L473.813,414.12L473.512,414.169L473.212,414.218L472.913,414.268L472.615,414.319L472.318,414.371L472.022,414.423L471.727,414.476L471.433,414.53L471.14,414.584L470.849,414.64L470.558,414.696L470.268,414.753L469.98,414.81L469.693,414.869L469.406,414.928L469.121,414.988L468.837,415.049L468.554,415.11L468.273,415.173L467.992,415.236L467.713,415.3L467.434,415.365L467.157,415.43L466.881,415.497L466.606,415.564L466.333,415.632L466.06,415.701L465.789,415.771L465.519,415.841L465.251,415.912L464.983,415.984L464.717,416.057L464.452,416.131L464.188,416.206L463.926,416.281L463.664,416.358L463.404,416.435L463.146,416.513L462.888,416.591L462.632,416.671L462.618,416.253L462.605,415.838L462.594,415.427L462.586,415.018L462.579,414.612L462.574,414.21L462.571,413.81L462.569,413.414L462.569,413.021L462.571,412.631L462.575,412.244L462.58,411.861L462.587,411.481L462.595,411.104L462.605,410.731L462.616,410.361L462.628,409.994L462.642,409.631L462.657,409.271L462.674,408.914L462.692,408.561L462.71,408.212L462.73,407.866L462.752,407.524L462.774,407.185L462.797,406.85L462.821,406.518L462.846,406.191L462.872,405.867L462.899,405.546L462.927,405.229L462.955,404.916L462.979,404.671L463.004,404.427L463.054,403.947L463.106,403.478L463.16,403.018L463.215,402.568L463.272,402.128L463.33,401.698L463.389,401.278L463.449,400.869L463.51,400.47L463.571,400.081L463.633,399.703L463.695,399.335L463.758,398.978L463.82,398.631L463.882,398.296L463.902,398.189L463.923,398.083L463.945,397.979L463.969,397.875L463.994,397.773L464.02,397.673L464.047,397.573L464.076,397.475L464.106,397.378L464.137,397.282L464.169,397.187L464.202,397.093L464.236,397.001L464.271,396.91L464.307,396.82L464.345,396.731L464.383,396.643L464.422,396.557L464.462,396.471L464.503,396.387L464.545,396.304L464.588,396.222L464.632,396.141L464.676,396.061L464.721,395.982L464.767,395.905L464.814,395.828L464.861,395.753L464.909,395.678L464.958,395.605L465.007,395.533L465.058,395.461L465.108,395.391L465.159,395.322L465.211,395.254L465.263,395.187L465.316,395.121L465.37,395.056L465.423,394.992L465.478,394.929L465.532,394.867L465.587,394.806L465.643,394.746L465.698,394.687L465.754,394.629L465.811,394.572L465.867,394.515L465.924,394.46L465.981,394.406L466.038,394.352L466.096,394.3L466.154,394.249L466.211,394.198L466.269,394.148L466.385,394.052L466.501,393.959L466.617,393.869L466.733,393.783L466.848,393.701L466.963,393.621L467.077,393.545L467.19,393.473L467.302,393.403L467.413,393.337L467.522,393.273L467.629,393.213L467.735,393.156L467.838,393.102L467.939,393.05L468.037,393.002L468.133,392.956L468.226,392.913L468.316,392.873L468.403,392.835L468.486,392.8L468.566,392.768L468.642,392.737L468.714,392.71L468.782,392.685L468.904,392.641L469.008,392.606L469.091,392.58L469.152,392.561L469.203,392.547L469.506,392.472L469.811,392.398L470.118,392.325L470.427,392.254L470.739,392.184L471.052,392.115L471.367,392.047L471.684,391.981L472.003,391.916L472.324,391.852L472.646,391.789L472.97,391.728L473.295,391.667L473.622,391.608L473.95,391.55L474.279,391.493L474.61,391.438L474.942,391.383L475.274,391.33L475.608,391.278L475.943,391.227L476.279,391.177L476.616,391.128L476.953,391.08L477.291,391.034L477.63,390.988L477.97,390.944L478.309,390.9L478.65,390.858L478.99,390.817L479.331,390.776L479.673,390.737L480.159,390.682L480.646,390.629L481.133,390.578L481.619,390.529L482.105,390.482L482.59,390.436L483.075,390.392L483.558,390.35L484.04,390.31L484.521,390.271L485.001,390.234L485.478,390.198L485.954,390.165L486.427,390.132L486.898,390.101L487.366,390.072L487.832,390.044L488.295,390.017L488.754,389.992L489.21,389.968L489.663,389.945L490.112,389.924L490.557,389.904L490.998,389.885L491.434,389.867L491.867,389.85L492.294,389.835L492.716,389.82L493.134,389.807L493.546,389.794L493.953,389.783L494.354,389.773L495.138,389.754L495.897,389.739L496.629,389.727L497.334,389.718L498.009,389.712L498.652,389.708L499.263,389.706L499.84,389.706L500.38,389.707L500.884,389.709L501.348,389.713L501.772,389.717L502.153,389.722L502.491,389.727L503.03,389.737L503.111,389.741L503.461,389.737L503.541,389.736L503.517,389.736L504.057,389.726L504.395,389.721L504.778,389.716L505.202,389.712L505.668,389.709L506.172,389.707L506.714,389.706L507.292,389.706ZM506.185,393.707L505.692,393.709L505.237,393.712L504.822,393.716L504.449,393.721L504.121,393.726L503.612,393.735L503.594,393.736L503.507,393.737L503.037,393.741L502.9,393.735L502.426,393.727L502.098,393.722L501.726,393.717L501.312,393.713L500.858,393.709L500.365,393.707L499.836,393.706L499.271,393.706L498.672,393.708L498.041,393.712L497.378,393.718L496.687,393.727L495.969,393.739L495.224,393.753L494.453,393.771L494.061,393.782L493.662,393.793L493.258,393.805L492.849,393.818L492.435,393.832L492.016,393.848L491.593,393.864L491.165,393.881L490.733,393.9L490.298,393.919L489.858,393.94L489.415,393.963L488.969,393.986L488.519,394.011L488.067,394.037L487.612,394.064L487.155,394.093L486.695,394.123L486.233,394.155L485.769,394.188L485.303,394.223L484.836,394.259L484.368,394.296L483.899,394.336L483.428,394.377L482.957,394.419L482.486,394.464L482.014,394.51L481.542,394.557L481.071,394.607L480.6,394.658L480.125,394.711L479.794,394.749L479.465,394.788L479.137,394.828L478.81,394.869L478.483,394.911L478.156,394.953L477.831,394.997L477.507,395.042L477.183,395.088L476.86,395.134L476.539,395.182L476.218,395.231L475.899,395.281L475.582,395.332L475.265,395.384L474.951,395.437L474.637,395.491L474.326,395.546L474.016,395.602L473.708,395.659L473.402,395.717L473.097,395.776L472.795,395.837L472.495,395.898L472.197,395.96L471.901,396.024L471.608,396.088L471.317,396.154L471.028,396.22L470.743,396.288L470.46,396.357L470.246,396.41L470.214,396.421L470.152,396.443L470.13,396.451L470.096,396.464L470.059,396.479L470.019,396.495L469.976,396.513L469.931,396.533L469.883,396.554L469.834,396.577L469.782,396.602L469.729,396.628L469.674,396.655L469.619,396.684L469.562,396.715L469.504,396.748L469.446,396.782L469.387,396.817L469.327,396.854L469.268,396.892L469.209,396.932L469.149,396.973L469.09,397.015L469.032,397.059L468.974,397.103L468.916,397.149L468.852,397.202L468.832,397.22L468.803,397.245L468.776,397.269L468.75,397.293L468.722,397.319L468.696,397.344L468.67,397.369L468.644,397.395L468.618,397.422L468.593,397.447L468.568,397.473L468.543,397.501L468.519,397.528L468.494,397.555L468.471,397.583L468.448,397.61L468.425,397.638L468.402,397.666L468.38,397.695L468.358,397.724L468.337,397.753L468.316,397.782L468.295,397.812L468.274,397.842L468.254,397.872L468.234,397.903L468.215,397.933L468.196,397.965L468.177,397.997L468.158,398.029L468.141,398.061L468.122,398.095L468.105,398.128L468.088,398.162L468.071,398.196L468.055,398.232L468.039,398.267L468.023,398.303L468.007,398.341L467.992,398.378L467.977,398.416L467.963,398.455L467.949,398.495L467.935,398.536L467.922,398.577L467.909,398.619L467.896,398.663L467.884,398.707L467.872,398.752L467.861,398.799L467.85,398.846L467.84,398.895L467.83,398.945L467.815,399.023L467.755,399.348L467.696,399.675L467.638,400.012L467.579,400.359L467.521,400.716L467.463,401.083L467.405,401.46L467.348,401.848L467.292,402.245L467.237,402.652L467.184,403.068L467.131,403.495L467.08,403.931L467.031,404.376L466.983,404.834L466.96,405.063L466.938,405.291L466.911,405.585L466.885,405.887L466.859,406.194L466.834,406.504L466.81,406.817L466.787,407.133L466.765,407.454L466.743,407.778L466.723,408.105L466.704,408.435L466.686,408.769L466.669,409.107L466.654,409.447L466.639,409.791L466.626,410.139L466.614,410.489L466.603,410.843L466.594,411.2L466.588,411.455L466.813,411.403L467.106,411.335L467.401,411.269L467.696,411.204L467.993,411.139L468.29,411.075L468.589,411.012L468.889,410.95L469.189,410.889L469.491,410.829L469.793,410.769L470.097,410.711L470.401,410.653L470.707,410.596L471.013,410.54L471.32,410.485L471.628,410.43L471.937,410.377L472.247,410.324L472.558,410.272L472.87,410.221L473.183,410.17L473.497,410.121L473.811,410.072L474.127,410.024L474.443,409.977L474.76,409.93L475.078,409.885L475.397,409.84L475.717,409.796L476.038,409.752L476.359,409.71L476.681,409.668L477.004,409.627L477.328,409.587L477.653,409.547L477.978,409.509L478.305,409.47L478.632,409.433L478.96,409.397L479.289,409.361L479.618,409.326L479.948,409.291L480.279,409.258L480.611,409.225L480.944,409.193L481.277,409.161L481.613,409.13L482.281,409.071L482.954,409.014L483.63,408.961L484.309,408.91L484.99,408.861L485.674,408.816L486.361,408.773L487.05,408.732L487.742,408.695L488.436,408.66L489.133,408.627L489.831,408.597L490.533,408.57L491.236,408.545L491.942,408.523L492.649,408.503L493.359,408.486L494.071,408.471L494.784,408.458L495.5,408.448L496.218,408.44L496.937,408.434L497.658,408.431L498.381,408.43L499.105,408.432L499.831,408.435L500.558,408.441L501.287,408.449L502.018,408.459L502.749,408.471L503.476,408.486L504.384,408.503L505.297,408.522L506.214,408.541L507.133,408.562L508.057,408.585L508.983,408.609L509.912,408.637L510.842,408.667L511.31,408.683L511.778,408.699L512.246,408.717L512.715,408.736L513.184,408.755L513.654,408.776L514.124,408.797L514.596,408.82L515.067,408.844L515.539,408.868L516.012,408.894L516.485,408.921L516.959,408.95L517.433,408.98L517.907,409.011L518.381,409.043L518.861,409.077L519.338,409.111L519.813,409.147L520.285,409.183L520.755,409.219L521.224,409.256L521.69,409.294L522.154,409.333L522.616,409.372L523.075,409.412L523.533,409.452L523.988,409.493L524.441,409.535L524.892,409.577L525.341,409.62L525.787,409.663L526.232,409.707L526.676,409.752L527.551,409.842L528.42,409.935L529.28,410.029L530.131,410.126L530.973,410.224L531.805,410.324L532.629,410.426L533.444,410.529L534.249,410.634L535.045,410.74L535.832,410.848L536.609,410.957L537.377,411.067L538.136,411.179L538.885,411.291L539.625,411.404L539.93,411.452L539.927,411.229L539.92,410.885L539.912,410.544L539.903,410.206L539.892,409.871L539.879,409.539L539.866,409.21L539.85,408.884L539.834,408.56L539.816,408.24L539.797,407.923L539.777,407.609L539.756,407.299L539.734,406.991L539.711,406.687L539.687,406.385L539.662,406.087L539.636,405.792L539.609,405.501L539.582,405.211L539.559,404.983L539.536,404.759L539.488,404.307L539.439,403.869L539.388,403.438L539.335,403.017L539.282,402.606L539.227,402.203L539.171,401.811L539.114,401.428L539.056,401.054L538.998,400.691L538.94,400.338L538.882,399.996L538.823,399.663L538.764,399.341L538.703,399.012L538.687,398.927L538.677,398.877L538.667,398.83L538.657,398.784L538.646,398.738L538.634,398.694L538.623,398.651L538.61,398.608L538.597,398.566L538.585,398.527L538.571,398.487L538.558,398.448L538.544,398.411L538.529,398.372L538.515,398.337L538.499,398.3L538.484,398.264L538.468,398.23L538.452,398.196L538.436,398.162L538.419,398.13L538.402,398.097L538.385,398.064L538.367,398.033L538.349,398.002L538.33,397.97L538.311,397.939L538.293,397.91L538.273,397.88L538.253,397.85L538.233,397.82L538.213,397.791L538.192,397.763L538.17,397.734L538.149,397.706L538.127,397.678L538.105,397.65L538.082,397.623L538.059,397.595L538.036,397.569L538.012,397.542L537.988,397.515L537.963,397.489L537.939,397.463L537.914,397.437L537.888,397.411L537.862,397.386L537.836,397.36L537.809,397.335L537.783,397.311L537.756,397.286L537.728,397.261L537.702,397.238L537.681,397.221L537.616,397.167L537.559,397.122L537.501,397.077L537.442,397.034L537.383,396.992L537.324,396.951L537.264,396.912L537.204,396.874L537.145,396.837L537.086,396.802L537.027,396.768L536.969,396.735L536.912,396.705L536.855,396.675L536.801,396.648L536.747,396.622L536.695,396.597L536.646,396.574L536.598,396.553L536.552,396.533L536.508,396.515L536.469,396.499L536.43,396.484L536.396,396.471L536.374,396.463L536.311,396.441L536.275,396.429L536.057,396.374L535.776,396.307L535.492,396.24L535.206,396.174L534.917,396.109L534.626,396.046L534.332,395.983L534.036,395.922L533.737,395.861L533.436,395.802L533.134,395.744L532.829,395.687L532.522,395.63L532.214,395.575L531.903,395.521L531.591,395.468L531.278,395.416L530.962,395.365L530.646,395.315L530.328,395.266L530.008,395.218L529.688,395.171L529.366,395.125L529.043,395.08L528.719,395.036L528.394,394.993L528.068,394.951L527.742,394.91L527.414,394.869L527.086,394.83L526.758,394.791L526.418,394.752L525.937,394.696L525.467,394.643L524.998,394.592L524.528,394.542L524.058,394.495L523.589,394.449L523.119,394.405L522.65,394.363L522.182,394.322L521.715,394.283L521.249,394.245L520.785,394.209L520.322,394.175L519.861,394.142L519.402,394.111L518.945,394.081L518.491,394.053L518.039,394.026L517.59,394L517.144,393.976L516.701,393.952L516.262,393.931L515.827,393.91L515.395,393.891L514.967,393.873L514.544,393.856L514.125,393.84L513.711,393.825L513.302,393.811L512.897,393.799L512.498,393.787L512.105,393.776L511.717,393.766L511.337,393.757L510.589,393.742L509.87,393.729L509.177,393.72L508.514,393.713L507.882,393.708L507.282,393.706L506.716,393.706L506.185,393.707Z" style="fill:rgb(255,108,11);"/>
        </g>
        <g id="Combined-Shape3" serif:id="Combined-Shape" transform="matrix(0.904867,0,0,0.904867,358.047,40.1665)">
            <path d="M543.412,425.068L543.355,425.476L543.297,425.887L543.236,426.299L543.173,426.713L543.108,427.128L543.04,427.546L542.971,427.965L542.898,428.386L542.824,428.809L542.747,429.233L542.668,429.659L542.587,430.087L542.503,430.516L542.416,430.947L542.327,431.38L542.236,431.814L542.142,432.25L542.046,432.687L541.947,433.126L541.845,433.566L541.74,434.008L541.633,434.451L541.524,434.896L541.411,435.342L541.296,435.79L541.178,436.239L541.058,436.69L540.934,437.141L540.808,437.595L540.679,438.049L540.547,438.505L540.412,438.962L540.274,439.421L540.133,439.881L539.989,440.342L539.842,440.804L539.692,441.268L539.539,441.732L539.383,442.198L539.224,442.666L539.061,443.134L538.896,443.603L538.727,444.074L538.555,444.546L538.38,445.018L538.201,445.492L538.02,445.967L537.834,446.443L537.646,446.92L537.454,447.398L537.259,447.877L537.06,448.357L536.858,448.838L536.653,449.32L536.444,449.802L536.231,450.286L536.015,450.771L535.795,451.256L535.572,451.742L535.345,452.229L535.114,452.717L534.88,453.206L534.762,453.451L534.642,453.696L534.522,453.941L534.401,454.186L534.278,454.431L534.155,454.677L534.031,454.923L533.906,455.169L533.78,455.415L533.653,455.661L533.525,455.908L533.396,456.154L533.266,456.401L533.135,456.648L533.004,456.895L532.871,457.143L532.737,457.39L532.602,457.638L532.467,457.886L532.33,458.134L532.192,458.382L532.054,458.63L531.914,458.879L531.773,459.127L531.632,459.376L531.489,459.625L531.345,459.874L531.201,460.123L531.055,460.372L530.908,460.622L530.76,460.871L530.612,461.121L530.462,461.371L530.311,461.621L530.159,461.871L530.006,462.121L529.852,462.371L529.697,462.622L529.541,462.872L529.384,463.123L529.226,463.374L529.067,463.625L528.907,463.876L528.745,464.127L528.583,464.378L528.42,464.629L528.255,464.881L528.089,465.132L527.923,465.384L527.755,465.635L527.586,465.887L527.416,466.139L527.245,466.391L527.073,466.643L526.9,466.895L526.726,467.147L526.55,467.4L526.374,467.652L526.196,467.904L526.018,468.157L525.838,468.409L525.657,468.662L525.475,468.915L525.292,469.167L525.107,469.42L524.922,469.673L524.735,469.926L524.547,470.179L524.359,470.432L524.169,470.685L523.977,470.938L523.785,471.191L523.592,471.445L523.397,471.698L523.201,471.951L523.004,472.204L522.806,472.458L522.607,472.711L522.406,472.965L522.205,473.218L522.002,473.471L521.798,473.725L521.593,473.979L521.386,474.232L521.179,474.486L520.97,474.739L520.76,474.993L520.549,475.246L520.337,475.5L520.123,475.754L519.908,476.007L519.692,476.261L519.475,476.514L519.257,476.768L519.037,477.022L518.816,477.275L518.594,477.529L518.371,477.782L518.146,478.036L517.92,478.29L517.693,478.543L517.465,478.797L517.235,479.05L517.004,479.304L516.772,479.557L516.539,479.81L516.305,480.064L516.069,480.317L515.832,480.571L515.593,480.824L515.354,481.077L515.113,481.33L514.87,481.584L514.627,481.837L514.382,482.09L514.136,482.343L513.889,482.596L513.64,482.849L513.39,483.102L513.139,483.354L512.886,483.607L512.632,483.86L512.377,484.113L512.121,484.365L511.863,484.618L511.604,484.87L511.343,485.122L511.081,485.375L510.818,485.627L510.554,485.879L510.15,486.26L509.744,486.641L509.335,487.022L508.923,487.402L508.509,487.783L508.092,488.163L507.672,488.543L507.249,488.923L506.823,489.302L506.394,489.681L505.962,490.06L505.526,490.438L505.088,490.816L504.646,491.193L504.201,491.569L503.752,491.945L503.752,492.075L503.674,492.01L503.595,492.075L503.566,491.92L503.114,491.544L502.666,491.167L502.221,490.79L501.779,490.413L501.341,490.036L500.905,489.658L500.473,489.281L500.044,488.903L499.618,488.526L499.195,488.148L498.776,487.77L498.359,487.391L497.946,487.013L497.536,486.634L497.13,486.254L496.726,485.875L496.476,485.639L496.227,485.403L495.98,485.167L495.734,484.931L495.49,484.695L495.247,484.459L495.006,484.222L494.766,483.987L494.751,483.987L494.338,483.583L493.929,483.18L493.525,482.777L493.126,482.376L492.731,481.976L492.342,481.577L491.956,481.179L491.576,480.782L491.201,480.387L490.83,479.993L490.465,479.6L490.104,479.209L489.748,478.819L489.398,478.431L489.053,478.045L488.712,477.661L488.453,477.368L488.196,477.076L487.942,476.786L487.691,476.497L487.443,476.21L487.198,475.924L486.956,475.64L486.716,475.357L486.48,475.076L486.247,474.797L486.017,474.519L485.789,474.243L485.565,473.969L485.343,473.697L485.124,473.427L484.909,473.158L484.696,472.892L484.486,472.627L484.279,472.365L484.075,472.105L483.873,471.847L483.675,471.591L483.479,471.337L483.286,471.086L483.096,470.837L482.909,470.591L482.725,470.346L482.544,470.105L482.189,469.629L481.846,469.163L481.639,468.879L481.477,468.545L481.32,468.213L481.166,467.885L481.017,467.558L480.871,467.235L480.729,466.914L480.592,466.595L480.458,466.28L480.328,465.966L480.202,465.656L480.08,465.347L479.961,465.042L479.847,464.739L479.736,464.438L479.629,464.14L479.525,463.844L479.425,463.551L479.329,463.26L479.237,462.972L479.148,462.686L479.063,462.402L478.982,462.121L478.904,461.842L478.829,461.566L478.758,461.292L478.691,461.02L478.627,460.751L478.567,460.484L478.51,460.219L478.456,459.956L478.406,459.696L478.36,459.438L478.316,459.182L478.276,458.929L478.24,458.678L478.206,458.428L478.176,458.182L478.149,457.937L478.137,457.815L478.126,457.694L478.115,457.574L478.105,457.454L478.096,457.334L478.088,457.215L478.081,457.097L478.074,456.979L478.068,456.862L478.063,456.745L478.059,456.629L478.055,456.513L478.053,456.398L478.051,456.283L478.05,456.169L478.049,456.055L478.05,455.942L478.051,455.83L478.053,455.718L478.055,455.606L478.059,455.495L478.063,455.384L478.068,455.274L478.073,455.164L478.08,455.055L478.087,454.947L478.095,454.839L478.104,454.731L478.113,454.624L478.123,454.517L478.134,454.411L478.145,454.305L478.158,454.2L478.171,454.096L478.184,453.991L478.199,453.888L478.214,453.784L478.23,453.682L478.247,453.579L478.264,453.477L478.282,453.376L478.3,453.275L478.32,453.175L478.34,453.075L478.361,452.975L478.382,452.876L478.404,452.778L478.427,452.68L478.451,452.582L478.475,452.485L478.5,452.388L478.525,452.292L478.552,452.196L478.578,452.101L478.606,452.006L478.634,451.911L478.663,451.817L478.693,451.724L478.723,451.631L478.754,451.538L478.785,451.446L478.817,451.354L478.85,451.263L478.884,451.172L478.952,450.991L479.024,450.812L479.097,450.635L479.174,450.46L479.253,450.286L479.334,450.114L479.418,449.943L479.504,449.774L479.592,449.607L479.683,449.441L479.776,449.277L479.872,449.115L479.97,448.954L480.07,448.794L480.172,448.637L480.277,448.48L480.383,448.326L480.493,448.172L480.604,448.02L480.717,447.87L480.833,447.721L480.95,447.574L481.07,447.428L481.192,447.283L481.316,447.14L481.441,446.998L481.569,446.858L481.699,446.719L481.831,446.581L481.965,446.445L482.1,446.31L482.238,446.176L482.377,446.044L482.519,445.912L482.662,445.783L482.807,445.654L482.954,445.527L483.102,445.4L483.253,445.275L483.405,445.152L483.558,445.029L483.714,444.908L483.871,444.788L484.03,444.669L484.19,444.551L484.352,444.434L484.516,444.318L484.681,444.203L484.848,444.09L485.016,443.978L485.185,443.866L485.357,443.756L485.529,443.646L485.703,443.538L485.879,443.431L486.056,443.324L486.234,443.219L486.413,443.115L486.653,442.977L486.895,442.84L487.137,442.703L487.381,442.566L487.625,442.43L487.871,442.295L488.119,442.16L488.367,442.026L488.617,441.892L488.868,441.758L489.119,441.625L489.372,441.492L489.627,441.36L489.882,441.228L490.138,441.097L490.396,440.966L490.654,440.836L490.914,440.706L491.175,440.577L491.436,440.448L491.699,440.319L491.963,440.191L492.228,440.064L492.493,439.937L492.76,439.81L493.028,439.684L493.297,439.558L493.566,439.433L493.837,439.308L494.108,439.183L494.381,439.059L494.654,438.936L494.928,438.813L495.203,438.69L495.479,438.568L495.756,438.447L496.034,438.326L496.312,438.205L496.872,437.965L497.435,437.726L498,437.49L498.569,437.255L499.141,437.022L499.716,436.791L500.293,436.562L500.873,436.334L501.456,436.109L502.041,435.885L502.628,435.662L503.218,435.442L503.81,435.223L503.81,435.171L504.319,434.984L504.83,434.799L505.342,434.614L505.855,434.431L506.37,434.25L506.886,434.069L507.403,433.89L507.921,433.712L508.441,433.536L508.961,433.361L509.482,433.187L510.004,433.014L510.527,432.843L511.051,432.673L511.575,432.505L512.101,432.337L512.626,432.171L513.152,432.006L513.679,431.843L514.206,431.681L514.734,431.52L515.261,431.36L515.789,431.202L516.317,431.045L516.846,430.889L517.374,430.735L517.902,430.581L518.43,430.429L518.958,430.279L519.486,430.129L520.014,429.981L520.541,429.834L521.068,429.689L521.595,429.545L522.121,429.401L522.646,429.26L523.171,429.119L523.696,428.98L524.219,428.842L524.742,428.705L525.264,428.569L525.785,428.435L526.305,428.302L526.824,428.17L527.342,428.04L527.859,427.91L528.375,427.782L528.889,427.655L529.403,427.53L529.914,427.405L530.425,427.282L530.934,427.16L531.441,427.04L531.947,426.92L532.451,426.802L532.953,426.685L533.454,426.569L533.953,426.455L534.449,426.341L534.944,426.229L535.928,426.008L536.903,425.793L537.807,425.629L538.689,425.472L539.549,425.322L540.384,425.177L541.194,425.039L541.979,424.907L542.736,424.781L543.466,424.661L543.412,425.068ZM538.513,429.567L537.691,429.715L536.798,429.913L535.824,430.131L535.336,430.242L534.845,430.354L534.353,430.467L533.858,430.581L533.361,430.697L532.863,430.814L532.364,430.932L531.862,431.051L531.36,431.172L530.856,431.293L530.35,431.416L529.844,431.54L529.336,431.665L528.827,431.792L528.317,431.919L527.805,432.048L527.293,432.178L526.78,432.309L526.266,432.442L525.751,432.576L525.235,432.711L524.719,432.847L524.202,432.984L523.685,433.123L523.167,433.262L522.648,433.403L522.13,433.545L521.61,433.689L521.091,433.834L520.571,433.979L520.052,434.127L519.532,434.275L519.012,434.424L518.492,434.575L517.973,434.727L517.453,434.88L516.934,435.035L516.415,435.19L515.896,435.347L515.378,435.505L514.86,435.665L514.343,435.825L513.826,435.987L513.31,436.15L512.795,436.314L512.281,436.48L511.767,436.646L511.254,436.814L510.743,436.983L510.232,437.154L509.722,437.325L509.214,437.498L508.706,437.672L508.2,437.847L507.696,438.023L507.192,438.201L506.691,438.38L506.19,438.56L505.747,438.721L505.494,438.851L505.196,438.976L504.611,439.192L504.036,439.406L503.463,439.623L502.893,439.841L502.326,440.061L501.762,440.282L501.2,440.505L500.642,440.73L500.087,440.956L499.535,441.184L498.986,441.413L498.441,441.644L497.897,441.878L497.629,441.994L497.361,442.111L497.093,442.228L496.826,442.346L496.561,442.465L496.296,442.584L496.032,442.703L495.769,442.822L495.507,442.942L495.247,443.062L494.987,443.183L494.728,443.304L494.471,443.426L494.214,443.547L493.959,443.67L493.704,443.792L493.451,443.915L493.199,444.038L492.948,444.162L492.698,444.286L492.449,444.411L492.202,444.535L491.955,444.661L491.71,444.786L491.467,444.912L491.224,445.038L490.982,445.165L490.742,445.292L490.503,445.419L490.266,445.546L490.029,445.674L489.794,445.803L489.56,445.931L489.328,446.06L489.097,446.19L488.867,446.319L488.639,446.449L488.414,446.578L488.257,446.67L488.104,446.76L487.953,446.851L487.804,446.942L487.656,447.034L487.511,447.126L487.367,447.219L487.225,447.312L487.085,447.406L486.947,447.5L486.811,447.594L486.677,447.689L486.545,447.784L486.415,447.88L486.286,447.976L486.16,448.073L486.036,448.17L485.914,448.267L485.794,448.365L485.675,448.463L485.559,448.562L485.445,448.661L485.333,448.76L485.223,448.86L485.115,448.96L485.009,449.06L484.905,449.162L484.803,449.263L484.703,449.365L484.606,449.467L484.51,449.57L484.416,449.673L484.324,449.776L484.234,449.88L484.146,449.984L484.06,450.09L483.976,450.195L483.894,450.3L483.814,450.407L483.736,450.514L483.659,450.621L483.585,450.729L483.512,450.838L483.441,450.947L483.372,451.057L483.305,451.167L483.239,451.279L483.176,451.391L483.114,451.504L483.054,451.618L482.995,451.733L482.938,451.849L482.883,451.965L482.83,452.083L482.778,452.202L482.728,452.322L482.679,452.444L482.63,452.574L482.61,452.628L482.587,452.691L482.565,452.753L482.544,452.815L482.523,452.879L482.502,452.944L482.482,453.007L482.462,453.071L482.443,453.136L482.424,453.2L482.406,453.266L482.388,453.333L482.37,453.4L482.353,453.467L482.336,453.534L482.32,453.602L482.304,453.67L482.288,453.739L482.273,453.808L482.259,453.878L482.245,453.948L482.231,454.019L482.218,454.091L482.205,454.162L482.193,454.234L482.181,454.307L482.17,454.38L482.159,454.454L482.148,454.528L482.138,454.604L482.129,454.679L482.12,454.755L482.112,454.831L482.104,454.908L482.096,454.987L482.09,455.065L482.083,455.144L482.077,455.224L482.072,455.304L482.067,455.386L482.063,455.467L482.06,455.548L482.056,455.632L482.054,455.716L482.052,455.799L482.05,455.884L482.049,455.969L482.049,456.055L482.049,456.142L482.05,456.229L482.052,456.317L482.054,456.406L482.057,456.495L482.06,456.586L482.064,456.677L482.068,456.767L482.074,456.86L482.079,456.953L482.086,457.046L482.093,457.141L482.101,457.236L482.109,457.331L482.118,457.427L482.127,457.519L482.15,457.722L482.174,457.921L482.201,458.123L482.231,458.328L482.264,458.536L482.3,458.748L482.338,458.962L482.38,459.179L482.425,459.399L482.473,459.622L482.524,459.848L482.579,460.078L482.636,460.31L482.697,460.545L482.761,460.784L482.829,461.026L482.9,461.27L482.974,461.518L483.052,461.769L483.133,462.023L483.218,462.28L483.307,462.54L483.399,462.803L483.494,463.069L483.594,463.339L483.697,463.611L483.804,463.887L483.914,464.166L484.029,464.448L484.147,464.733L484.269,465.021L484.395,465.313L484.525,465.607L484.659,465.905L484.797,466.205L484.939,466.509L485.082,466.812L485.403,467.248L485.747,467.709L485.921,467.941L486.099,468.177L486.28,468.415L486.463,468.656L486.65,468.899L486.838,469.143L487.03,469.39L487.225,469.64L487.422,469.891L487.622,470.144L487.824,470.399L488.03,470.656L488.238,470.915L488.449,471.176L488.663,471.439L488.88,471.704L489.099,471.97L489.321,472.238L489.546,472.507L489.774,472.779L490.005,473.051L490.239,473.326L490.475,473.601L490.714,473.878L490.956,474.157L491.201,474.437L491.449,474.718L491.706,475.008L492.042,475.387L492.373,475.758L492.71,476.13L493.052,476.505L493.399,476.882L493.751,477.26L494.108,477.64L494.47,478.021L494.837,478.404L495.209,478.788L495.586,479.174L495.968,479.561L496.354,479.949L496.745,480.339L497.141,480.729L497.343,480.927L497.572,481.136L497.808,481.368L498.041,481.596L498.275,481.823L498.51,482.051L498.747,482.278L498.985,482.506L499.225,482.733L499.468,482.963L499.864,483.335L500.258,483.702L500.655,484.07L501.056,484.437L501.46,484.804L501.867,485.171L502.278,485.538L502.692,485.906L503.109,486.273L503.53,486.64L503.663,486.756L503.752,486.678L504.168,486.31L504.582,485.941L504.993,485.572L505.402,485.202L505.808,484.832L506.212,484.461L506.614,484.09L507.013,483.718L507.41,483.346L507.801,482.977L508.054,482.735L508.31,482.491L508.564,482.246L508.816,482.001L509.068,481.756L509.318,481.511L509.567,481.266L509.814,481.021L510.061,480.776L510.305,480.531L510.549,480.286L510.791,480.041L511.033,479.795L511.272,479.55L511.511,479.305L511.748,479.06L511.984,478.815L512.219,478.569L512.452,478.324L512.684,478.079L512.915,477.833L513.145,477.588L513.373,477.343L513.6,477.097L513.826,476.852L514.051,476.607L514.274,476.361L514.496,476.116L514.717,475.871L514.937,475.625L515.155,475.38L515.373,475.135L515.588,474.889L515.803,474.644L516.017,474.399L516.229,474.153L516.44,473.908L516.65,473.663L516.859,473.418L517.067,473.173L517.273,472.928L517.479,472.682L517.683,472.437L517.885,472.192L518.087,471.948L518.287,471.703L518.487,471.458L518.685,471.213L518.882,470.968L519.078,470.723L519.273,470.479L519.466,470.234L519.658,469.99L519.85,469.745L520.04,469.5L520.229,469.256L520.417,469.012L520.603,468.767L520.789,468.523L520.973,468.279L521.156,468.035L521.339,467.791L521.52,467.547L521.7,467.303L521.878,467.059L522.056,466.815L522.233,466.572L522.408,466.328L522.583,466.084L522.756,465.841L522.928,465.598L523.099,465.355L523.269,465.111L523.439,464.868L523.606,464.626L523.773,464.383L523.939,464.14L524.104,463.897L524.267,463.655L524.43,463.412L524.591,463.17L524.752,462.928L524.911,462.686L525.07,462.444L525.227,462.202L525.383,461.96L525.538,461.718L525.692,461.477L525.845,461.236L525.998,460.994L526.149,460.753L526.299,460.512L526.448,460.271L526.596,460.031L526.743,459.79L526.889,459.549L527.034,459.309L527.178,459.069L527.321,458.829L527.463,458.589L527.604,458.349L527.744,458.109L527.883,457.87L528.021,457.631L528.159,457.391L528.295,457.153L528.43,456.914L528.564,456.675L528.697,456.436L528.83,456.198L528.961,455.96L529.091,455.722L529.221,455.484L529.349,455.246L529.477,455.008L529.603,454.771L529.729,454.534L529.853,454.297L529.977,454.06L530.1,453.824L530.222,453.587L530.343,453.351L530.463,453.114L530.582,452.879L530.7,452.643L530.818,452.407L530.934,452.172L531.05,451.937L531.164,451.702L531.277,451.47L531.503,450.998L531.724,450.53L531.941,450.063L532.156,449.597L532.366,449.131L532.573,448.667L532.777,448.203L532.978,447.74L533.175,447.278L533.368,446.817L533.559,446.357L533.746,445.898L533.93,445.44L534.11,444.983L534.288,444.527L534.462,444.072L534.633,443.618L534.8,443.166L534.965,442.714L535.127,442.263L535.285,441.813L535.441,441.365L535.593,440.918L535.743,440.472L535.889,440.027L536.033,439.583L536.174,439.14L536.311,438.699L536.446,438.259L536.578,437.82L536.707,437.382L536.834,436.946L536.958,436.511L537.078,436.077L537.197,435.645L537.312,435.214L537.425,434.784L537.535,434.356L537.643,433.929L537.747,433.503L537.85,433.079L537.95,432.656L538.047,432.235L538.142,431.815L538.234,431.397L538.324,430.981L538.411,430.565L538.496,430.151L538.579,429.739L538.616,429.548L538.513,429.567Z" style="fill:rgb(255,108,11);"/>
        </g>
        <g id="Shape1" serif:id="Shape" transform="matrix(0.477677,0,0,0.477677,728.714,349.42)">
            <path d="M136.555,241.218C122.024,226.093 110.4,205.896 129.784,190.324C166.154,161.118 266.757,148.35 266.757,148.35C266.757,148.35 224.155,143.069 189.312,142.085C124.661,140.265 61.447,150.766 78.494,196.887C89.489,226.66 128.615,247.84 149.467,257.297C144.224,251.391 139.94,245.872 136.555,241.218Z" style="fill:rgb(255,108,12);fill-rule:nonzero;"/>
        </g>
        <g transform="matrix(0.904867,0,0,0.904867,358.047,40.1665)">
            <path d="M503.471,392.526L503.471,410.122" style="fill:none;stroke:rgb(255,108,11);stroke-width:4px;"/>
        </g>
        <g transform="matrix(0.904867,0,0,0.904867,358.047,40.1665)">
            <path d="M503.471,437.98L503.471,488.764" style="fill:none;stroke:rgb(255,108,11);stroke-width:4px;"/>
        </g>
    </g>
    <g>
        <g>
            <path d="M603.142,422.716C608.638,387.705 638.969,360.889 675.513,360.889C715.947,360.889 748.773,393.715 748.773,434.149C748.773,474.582 715.947,507.409 675.513,507.409C639.699,507.409 609.853,481.654 603.501,447.672" style="fill:none;stroke:rgb(255,108,11);stroke-width:5.5px;"/>
            <g transform="matrix(1,0,0,1,0.44422,0.757529)">
                <path d="M675.513,434.149L675.513,374.803L675.513,434.149Z" style="fill:none;stroke:rgb(255,108,11);stroke-width:5.5px;"/>
                <path d="M706.024,461.446L675.513,434.149" style="fill:none;stroke:rgb(255,108,11);stroke-width:5.5px;"/>
            </g>
        </g>
        <g transform="matrix(-0.0805609,0.434676,-0.434676,-0.0805609,836.917,191.749)">
            <g transform="matrix(7.8766,0,0,7.8766,-3361.76,-2463.1)">
                <circle cx="504.776" cy="366.799" r="3.865" style="fill:rgb(243,110,35);"/>
            </g>
            <g transform="matrix(6.14349,0,0,-4.73945,-2564.74,2182.78)">
                <g>
                    <path d="M516.676,367.704L519.636,370.664L516.676,373.623" style="fill:none;stroke:white;stroke-width:1.56px;"/>
                </g>
            </g>
        </g>
    </g>
    <g transform="matrix(1,0,0,1,-65.9971,7.84306)">
        <text x="537.5px" y="582.511px" style="font-family:'Nunito-Regular', 'Nunito';font-size:32px;fill:rgb(69,69,69);">HOS<tspan x="605.468px " y="582.511px ">T</tspan>ED EMAIL SE<tspan x="815.9px " y="582.511px ">C</tspan>URIT<tspan x="910.3px " y="582.511px ">Y</tspan></text>
    </g>
</svg>
