<?xml version="1.0" encoding="UTF-8" standalone="no"?>
<svg width="350px" height="350px" viewBox="0 0 350 350" version="1.1" xmlns="http://www.w3.org/2000/svg" xmlns:xlink="http://www.w3.org/1999/xlink">
    <!-- Generator: Sketch 49.3 (51167) - http://www.bohemiancoding.com/sketch -->
    <title>Icon_Service_CaptureClient_Color</title>
    <desc>Created with Sketch.</desc>
    <defs>
        <rect id="path-1" x="0" y="0" width="350" height="350"></rect>
    </defs>
    <g id="Page-1" stroke="none" stroke-width="1" fill="none" fill-rule="evenodd">
        <g id="Icon_Service_CaptureClient_Color">
            <g id="Rectangle" opacity="0">
                <use fill="#D8D8D8" fill-rule="evenodd" xlink:href="#path-1"></use>
                <rect stroke="#979797" stroke-width="1" x="0.5" y="0.5" width="349" height="349"></rect>
            </g>
            <path d="M269.598246,144.049841 C270.721098,123.076472 268.326169,108.435722 268.075055,105.208432 C267.330247,95.6362278 263.71966,83.8327506 244.168707,80.9795783 C182.896599,72.0378211 154.96085,72.2068088 107.741689,81.0005884 C96.0302555,83.1816471 91.9210792,88.0725899 90.1667354,102.29433 C89.537519,107.395128 86.3853261,124.306212 87.7736748,147.591811 C67.8300688,157.467134 58.3323956,173.607359 66.7409511,198.557204 C75.9622596,225.918647 106.226885,247.151174 132.996303,260.316224 C145.061403,274.765714 160.203009,289.041239 179.16134,302.57316 C245.411477,255.39231 264.284284,196.385666 268.710474,155.105981 C284.907952,152.150651 295.616096,150.755264 295.616096,150.755264 C295.616096,150.755264 286.43719,147.597397 269.598246,144.049841 Z M175,315 C97.680135,315 35,252.319865 35,175 C35,97.680135 97.680135,35 175,35 C252.319865,35 315,97.680135 315,175 C315,252.319865 252.319865,315 175,315 Z" id="Combined-Shape" fill="#D2D2D5"></path>
            <path d="M254.216189,140.920254 C240.973769,138.571787 224.580686,136.333599 205.470256,135.000808 C195.866673,134.331039 186.293388,133.885043 176.91553,133.71953 L176.91553,90.8983145 C173.948332,90.8983145 178.433051,90.8683822 177.837838,90.8683822 C182.331697,90.7785854 202.509423,90.509195 222.091936,92.8439115 C228.966647,93.6221503 235.781838,94.6997118 241.853012,96.2262571 C241.853012,96.2262571 250.424081,98.4113123 251.941875,107.061736 C252.566849,110.354285 253.221583,114.544802 253.697754,119.453693 C254.287313,125.531519 254.643289,132.783997 254.216189,140.920254 Z" id="Combined-Shape" fill="#53535A" fill-rule="nonzero"></path>
            <path d="M178.392521,176.937079 C198.940427,169.35381 221.467597,163.483044 241.081617,159.170872 C245.703285,158.329977 249.898823,157.616751 253.513514,157.027027 C249.209684,189.824012 234.026728,232.242638 191.167755,272.993116 C187.013364,276.925179 182.649759,280.857243 177.987276,284.72973 L177.837838,283.955232 L178.392521,176.937079 Z" id="Combined-Shape" fill="#53535A" fill-rule="nonzero"></path>
            <path d="M100.390454,141.891892 C100.073813,133.418869 100.419167,125.909632 101.002384,119.625329 C101.478146,114.632287 102.132318,110.421287 102.756754,107.082566 C104.302979,98.3898589 112.836947,96.1941233 112.836947,96.1941233 C118.932639,94.6601162 125.771708,93.5472092 132.670247,92.7651664 C152.325137,90.5092736 172.426053,90.7799808 176.91605,90.8702165 C177.510752,90.900295 177.837838,90.900295 177.837838,90.900295 L177.612001,133.962278 C148.427193,133.345335 121.036364,135.418515 100.390454,141.891892 Z" id="Combined-Shape" fill="#80808A" fill-rule="nonzero"></path>
            <path d="M178.783784,176.891892 L178.282788,283.954697 L178.282788,284.72973 C173.574864,280.824756 169.13855,276.919783 164.973848,272.985 C163.706329,271.792642 162.46899,270.600284 161.26183,269.407925 L161.231651,269.407925 C157.03677,265.324098 153.204036,261.299889 149.793809,257.424724 C144.512483,251.492741 140.196886,245.978084 136.786658,241.327887 C136.654347,241.147381 136.523444,240.968195 136.393949,240.790357 C123.177155,213.674015 130.86944,200.385217 145.439401,191.983678 C155.214123,186.347239 166.657645,181.326892 178.783784,176.891892 Z" id="Combined-Shape" fill="#80808A" fill-rule="nonzero"></path>
            <path d="M136.55452,241.217688 C122.024358,226.092712 110.400228,205.896246 129.783764,190.323785 C166.154108,161.117964 266.756757,148.34974 266.756757,148.34974 C266.756757,148.34974 224.15492,143.069423 189.31249,142.084957 C124.660758,140.265187 61.4470633,150.766156 78.4937896,196.886891 C89.4887783,226.659526 128.615359,247.840458 149.466891,257.297297 C144.224049,251.390502 139.939898,245.871527 136.55452,241.217688 Z" id="Shape" fill="#FF6C0C" fill-rule="nonzero"></path>
        </g>
    </g>
</svg>