<?xml version="1.0" encoding="UTF-8"?>
<svg width="238px" height="217px" viewBox="0 0 238 217" version="1.1" xmlns="http://www.w3.org/2000/svg" xmlns:xlink="http://www.w3.org/1999/xlink">
    <!-- Generator: Sketch 50.2 (55047) - http://www.bohemiancoding.com/sketch -->
    <title>Icon_Service_Wireless_Color</title>
    <desc>Created with Sketch.</desc>
    <defs>
        <rect id="path-1" x="0.339792879" y="0.339911879" width="237.175429" height="237.258491"></rect>
    </defs>
    <g id="Page-1" stroke="none" stroke-width="1" fill="none" fill-rule="evenodd">
        <g id="Icon_Service_Wireless_Color" transform="translate(0.000000, -11.000000)">
            <rect id="Rectangle-path" x="0.412245285" y="0.370684535" width="237.175429" height="237.258491"></rect>
            <g id="Clipped" transform="translate(0.072452, 0.030773)">
                <mask id="mask-2" fill="white">
                    <use xlink:href="#path-1"></use>
                </mask>
                <g id="Rectangle-path"></g>
                <g id="Group-14" mask="url(#mask-2)">
                    <g transform="translate(-48.416217, 10.195698)">
                        <path d="M166.598964,114.555002 C166.598964,114.555002 136.237249,103.496384 129.543504,85.0960356 C122.047438,64.4979085 149.838569,59.7964855 178.266535,60.6155391 C193.585916,61.05714 212.307951,63.4138945 212.307951,63.4138945 C212.307951,63.4138945 168.075307,69.1110114 152.0912,82.1582273 C136.483616,94.8986467 166.598964,114.555002 166.598964,114.555002" id="Fill-1" fill="#FF6C0C"></path>
                        <g id="Oval-6" stroke-width="1" fill="none" transform="translate(252.277135, 81.639173) rotate(45.000000) translate(-252.277135, -81.639173) translate(194.636529, 23.998612)">
                            <path d="M115.22915,115.16863 L94.0592427,115.16863 C94.0592427,63.6630701 52.3069907,21.909921 0.801390363,21.909921 L0.801390363,0.74003043 C63.9987369,0.74003043 115.22915,51.971333 115.22915,115.16863 Z" id="Shape" fill="#FF8D20" fill-rule="nonzero"></path>
                        </g>
                        <g id="Oval-61" stroke-width="1" fill="none" transform="translate(222.559299, 82.217143) rotate(45.000000) translate(-222.559299, -82.217143) translate(185.836655, 45.494528)">
                            <path d="M73.0018277,72.8279193 L51.8319206,72.8279193 C51.8319206,44.472482 28.8444749,21.4850543 0.488085778,21.4850543 L0.488085778,0.315163713 C40.5362211,0.315163713 73.0018277,32.7798152 73.0018277,72.8279193 Z" id="Shape" fill="#FF6C0B" fill-rule="nonzero"></path>
                        </g>
                        <g id="Oval-62" stroke-width="1" fill="none" transform="translate(82.288996, 81.615019) scale(-1, 1) rotate(45.000000) translate(-82.288996, -81.615019) translate(24.648390, 23.974458)">
                            <path d="M115.260759,115.161193 L94.0908521,115.161193 C94.0908521,63.6565622 52.3376704,21.9034132 0.832999728,21.9034132 L0.832999728,0.733522624 C64.0294166,0.733522624 115.260759,51.9638955 115.260759,115.161193 Z" id="Shape" fill="#FF8D20" fill-rule="nonzero"></path>
                        </g>
                        <g id="Oval-63" stroke-width="1" fill="none" transform="translate(109.056266, 81.967559) scale(-1, 1) rotate(45.000000) translate(-109.056266, -81.967559) translate(72.333622, 45.244943)">
                            <path d="M73.3523198,72.8214115 L52.1814829,72.8214115 C52.1814829,44.4650445 29.194967,21.4776168 0.838577851,21.4776168 L0.838577851,0.307726221 C40.8867132,0.307726221 73.3523198,32.7733074 73.3523198,72.8214115 Z" id="Shape" fill="#FF6C0B" fill-rule="nonzero"></path>
                        </g>
                        <g id="Shape" stroke-width="1" fill="none" transform="translate(85.531196, 124.577948)">
                            <path d="M92.3578865,54.7826879 C92.0650352,46.2221376 91.6745667,34.8083803 91.2840982,23.3927637 C91.1595201,19.674019 90.9968249,14.8099009 90.7950828,8.79855002 C90.6398251,4.17708001 86.8485619,0.510397714 82.2233696,0.510397714 C77.5991069,0.510397714 73.806914,4.17708001 73.6516563,8.79855002 C73.4499142,14.8099009 73.287219,19.674019 73.1626409,23.3927637 C72.7721724,34.8083803 72.3817039,46.2221376 72.0888526,54.7826879 C72.0628213,55.5041244 72.0377198,56.2032484 72.0126182,56.882849 L6.74766758,56.882849 C3.44356031,56.882849 0.765132326,59.5612749 0.765132326,62.8644499 L0.765132326,87.0390797 C0.765132326,90.3422547 3.44356031,93.0206806 6.74766758,93.0206806 L157.700001,93.0206806 C161.004108,93.0206806 163.681607,90.3422547 163.681607,87.0390797 L163.681607,62.8644499 C163.681607,59.5612749 161.004108,56.882849 157.700001,56.882849 L92.4331912,56.882849 C92.4090193,56.2032484 92.3839178,55.5050541 92.3578865,54.7826879 Z" fill="#80808A" fill-rule="nonzero"></path>
                        </g>
                        <g id="Combined-Shape" stroke-width="1" fill="none" transform="translate(167.343644, 124.577948)">
                            <path d="M0.190585816,93.0206806 L0.190585816,0.513186772 C0.264031082,0.5113274 0.337476348,0.510397714 0.410921614,0.510397714 C5.03611398,0.510397714 8.8273772,4.17708001 8.98263491,8.79855002 C9.18437697,14.8099009 9.34707218,19.674019 9.47165022,23.3927637 C9.86211872,34.8083803 10.2525872,46.2221376 10.5454386,54.7826879 C10.5714698,55.5050541 10.5965714,56.2032484 10.6207432,56.882849 L75.8875533,56.882849 C79.1916605,56.882849 81.8691588,59.5612749 81.8691588,62.8644499 L81.8691588,87.0390797 C81.8691588,90.3422547 79.1916605,93.0206806 75.8875533,93.0206806 L0.190585816,93.0206806 Z" id="Shape" fill="#53535A" fill-rule="nonzero"></path>
                        </g>
                    </g>
                </g>
            </g>
        </g>
    </g>
</svg>