<?xml version="1.0" encoding="UTF-8" standalone="no"?>
<!DOCTYPE svg PUBLIC "-//W3C//DTD SVG 1.1//EN" "http://www.w3.org/Graphics/SVG/1.1/DTD/svg11.dtd">
<svg width="100%" height="100%" viewBox="0 0 238 238" version="1.1" xmlns="http://www.w3.org/2000/svg" xmlns:xlink="http://www.w3.org/1999/xlink" xml:space="preserve" xmlns:serif="http://www.serif.com/" style="fill-rule:evenodd;clip-rule:evenodd;">
    <g transform="matrix(1,0,0,1,-87,-56)">
        <g id="Icon_Service_MySonicWall_Color" transform="matrix(1,0,0,1,0,-1)">
            <g id="Rectangle" transform="matrix(0.68,0,0,0.68,86,57)">
                <g opacity="0">
                    <rect id="path-1" x="0" y="0" width="350" height="350" style="fill:rgb(216,216,216);"/>
                    <rect x="0.5" y="0.5" width="349" height="349" style="fill:none;stroke:rgb(151,151,151);stroke-width:1px;"/>
                </g>
            </g>
            <g id="Combined-Shape" transform="matrix(0.971311,0,0,0.971311,13.166,1.66393)">
                <path d="M210.303,280.86C210.171,280.735 210.039,280.609 209.907,280.484C201.767,272.719 196.452,265.214 195.195,259.238C194.299,254.98 195.469,251.682 199.88,248.086C209.239,240.455 226.084,233.344 247.983,227.211C253.091,225.781 258.348,224.436 263.698,223.177C264.418,230.492 264.751,238.787 264.9,248.229C264.956,251.784 264.985,252.399 265,252.082C264.998,253.024 264.997,254.409 264.997,256.401C264.997,256.401 256.063,274.476 210.303,280.86L210.303,280.86ZM168.384,283C125.802,282.263 99.195,274.782 88.564,260.556C86.905,258.336 86.007,255.639 86.004,252.868C86.003,251.689 86.001,250.921 86,250.562C86.015,251.075 86.053,250.843 86.136,246.423C87.145,192.305 94.816,176.703 149.553,166.787C149.553,166.787 157.345,176.751 175.502,176.751C193.659,176.751 201.449,166.787 201.449,166.787C229.442,171.858 245.125,178.416 253.904,190.852C250.332,190.666 246.901,190.525 243.626,190.43C212.439,189.533 186.508,192.118 168.455,198.995C144.322,208.189 133.695,225.873 142.302,249.495C146.806,261.86 155.877,272.956 168.384,283ZM175.503,162.355C149.332,162.355 128.116,138.994 128.116,110.178C128.116,81.36 135.083,58 175.503,58C215.923,58 222.888,81.36 222.888,110.178C222.888,138.994 201.672,162.355 175.503,162.355Z" style="fill:rgb(128,128,138);fill-rule:nonzero;"/>
            </g>
            <g id="Combined-Shape1" serif:id="Combined-Shape" transform="matrix(0.971311,0,0,0.971311,13.166,1.66393)">
                <path d="M175,196.823L175,176.589C175.388,176.598 175.781,176.603 176.179,176.603C194.198,176.603 201.93,166.652 201.93,166.652C229.71,171.716 245.276,178.266 253.988,190.686C250.443,190.501 247.038,190.36 243.787,190.265C216.042,189.462 192.488,191.454 175,196.823ZM263.708,222.972C264.423,230.277 264.753,238.562 264.901,247.992C264.956,251.543 264.985,252.157 265,251.84C265,252.032 264.999,252.299 264.999,252.642C264.996,255.399 264.107,258.083 262.464,260.297C254.47,271.068 237.368,277.969 211.158,281C210.878,280.737 210.6,280.472 210.324,280.207C202.245,272.452 196.971,264.956 195.723,258.987C194.834,254.735 195.995,251.441 200.372,247.849C209.661,240.228 226.378,233.126 248.112,227.001C253.181,225.572 258.398,224.229 263.708,222.972L263.708,222.972ZM175,162.209L175,58.007C175.39,58.002 175.783,58 176.179,58C216.294,58 223.206,81.331 223.206,110.113C223.206,138.893 202.151,162.225 176.179,162.225C175.785,162.225 175.392,162.219 175,162.209Z" style="fill:rgb(83,83,90);fill-rule:nonzero;"/>
            </g>
            <g id="Fill-1" transform="matrix(0.971311,0,0,0.971311,13.166,1.66393)">
                <path d="M222.484,302C222.484,302 165.016,281.123 152.346,246.383C138.158,207.495 190.76,198.618 244.567,200.165C273.563,200.999 309,205.448 309,205.448C309,205.448 225.277,216.204 195.023,240.836C165.483,264.89 222.484,302 222.484,302" style="fill:rgb(255,108,12);"/>
            </g>
        </g>
    </g>
</svg>
