<?xml version="1.0" encoding="UTF-8" standalone="no"?>
<svg width="350px" height="350px" viewBox="0 0 350 350" version="1.1" xmlns="http://www.w3.org/2000/svg" xmlns:xlink="http://www.w3.org/1999/xlink">
    <!-- Generator: Sketch 49.3 (51167) - http://www.bohemiancoding.com/sketch -->
    <title>Icon_Service_FWManagement_White</title>
    <desc>Created with Sketch.</desc>
    <defs></defs>
    <g id="Page-1" stroke="none" stroke-width="1" fill="none" fill-rule="evenodd">
        <g id="Icon_Service_FWManagement_White" transform="translate(48.000000, 44.000000)" fill="#FFFFFF">
            <path d="M144.880029,184.377206 C145.801856,177.068303 146.067825,169.624049 145.611446,162.089562 C145.206446,155.431091 144.227194,148.979405 142.809696,142.670588 L225.248225,142.670588 C228.887174,142.670588 231.858177,146.377676 231.858177,150.904384 L231.858177,176.14341 C231.858177,180.670118 228.887174,184.377206 225.248225,184.377206 L144.880029,184.377206 Z M230.904959,196.293382 C234.704588,196.293382 237.794742,199.997044 237.794742,204.52416 L237.794742,229.765462 C237.794742,234.292578 234.701434,238 230.904959,238 L185.325178,238 C181.528703,238 178.429088,234.292578 178.429088,229.765462 L178.429088,204.52416 C178.429088,199.997044 181.528703,196.293382 185.325178,196.293382 L230.904959,196.293382 Z M159.912958,196.293382 C163.560988,196.293382 166.555958,199.997044 166.555958,204.52416 L166.555958,229.765462 C166.555958,234.292578 163.564026,238 159.912958,238 L125,238 C134.568107,226.411486 141.70318,212.059326 145.651923,196.293382 L159.912958,196.293382 Z M231.110217,90 C234.909845,90 238,93.703662 238,98.2307777 L238,123.47208 C238,127.999196 234.906692,131.706618 231.110217,131.706618 L185.530436,131.706618 C181.73396,131.706618 178.634346,127.999196 178.634346,123.47208 L178.634346,98.2307777 C178.634346,93.703662 181.73396,90 185.530436,90 L231.110217,90 Z" id="Firewall" fill-rule="nonzero"></path>
            <path d="M174.881144,135 C174.881144,135 132.955172,119.649068 123.711448,94.1053268 C113.360536,65.5112237 151.736889,58.9840853 190.99237,60.1211914 C212.146631,60.7346302 238,64.0056803 238,64.0056803 C238,64.0056803 176.918957,71.9149263 154.846944,90.0263329 C133.29542,107.713195 174.881144,135 174.881144,135" id="Fill-1"></path>
            <path d="M130.81269,164.062912 C129.702299,146.825499 123.622908,131.425938 114.388156,119.442577 C99.6199545,100.271333 89.8176689,71.7153142 88.0348744,44.1688698 C85.6413647,61.850637 74.8644025,77.8331914 76.2184627,95.2519006 C73.4424851,60.0518887 63.1621144,27.6282057 47.3760548,0 C48.2150169,5.04076115 48.7948878,10.1775029 49.1310895,15.4351093 C51.7343397,55.2955146 37.675555,91.9316814 16.3899751,119.744739 C5.12567464,134.454661 -1.18196351,154.216009 0.184434385,175.321086 C1.99807313,203.297665 16.8403004,226.485878 37.3146779,237.77249 C34.9921099,232.38691 33.6503874,226.336575 33.8508747,219.859659 C34.1809076,209.365775 38.2461727,200.012995 44.5106289,193.450762 C56.1974949,181.254111 64.7876036,164.333079 65.6018904,144.799241 C65.6018904,144.518409 65.5525397,144.26957 65.5525397,144.006512 L65.6666632,144.006512 C65.6666632,144.273125 65.6173125,144.518409 65.6018904,144.799241 C66.289716,164.350854 74.7348569,181.339427 86.3569501,193.664053 C92.5874777,200.290272 96.5725479,209.643052 96.8100482,220.186704 C96.9827757,226.599633 95.5855336,232.628639 93.2321214,238 C117.15488,225.092381 132.91318,196.187988 130.81269,164.062912 Z" id="Shape"></path>
            <path d="M66.0000002,145.9216 L66.0000002,144.656957 C66.0151543,144.52199 66.0286712,144.389266 66.0286712,144.250772 L66.0000002,144.250772 L66.0000002,42 C71.5211072,58.8778488 75.1850496,76.8546868 76.683511,95.6228578 C75.3162281,78.2494143 86.1984293,62.3083935 88.615312,44.6725756 C90.4155159,72.1474355 100.313523,100.629246 115.225938,119.750671 C124.550869,131.702891 130.689627,147.062433 131.810861,164.255051 C133.931863,196.296644 118.01968,225.125924 93.8633112,238 C96.2397049,232.642597 97.6505913,226.629259 97.4761771,220.232995 C97.2363575,209.716743 93.2123724,200.388268 86.9210025,193.779268 C75.3623273,181.671977 66.9156386,165.05205 66,145.921594 Z" id="Combined-Shape"></path>
        </g>
    </g>
</svg>