<?xml version="1.0" encoding="UTF-8" standalone="no"?>
<!DOCTYPE svg PUBLIC "-//W3C//DTD SVG 1.1//EN" "http://www.w3.org/Graphics/SVG/1.1/DTD/svg11.dtd">
<svg width="100%" height="100%" viewBox="0 0 1161 898" version="1.1" xmlns="http://www.w3.org/2000/svg" xmlns:xlink="http://www.w3.org/1999/xlink" xml:space="preserve" xmlns:serif="http://www.serif.com/" style="fill-rule:evenodd;clip-rule:evenodd;stroke-linecap:round;stroke-linejoin:round;stroke-miterlimit:1.5;">
    <g>
        <g>
            <circle cx="561.36" cy="436.663" r="293.209" style="fill:rgb(241,243,242);"/>
            <g id="Layer1">
                <g transform="matrix(1.00576,0,0,1.01119,1.66693,-1.46814)">
                    <path d="M439.871,231.471C367.936,273.223 323.664,350.108 323.664,433.282L557.005,433.282L439.871,231.471Z" style="fill:rgb(255,66,41);"/>
                </g>
                <g transform="matrix(0.502815,0.871051,-0.875755,0.50553,660.482,-268.178)">
                    <path d="M439.871,231.471C367.936,273.223 323.664,350.108 323.664,433.282L557.005,433.282L439.871,231.471Z" style="fill:rgb(187,219,112);"/>
                </g>
                <g transform="matrix(-0.503009,0.870939,-0.875642,-0.505726,1220.94,168.987)">
                    <path d="M439.871,231.471C367.936,273.223 323.664,350.108 323.664,433.282L557.005,433.282L439.871,231.471Z" style="fill:rgb(71,175,232);"/>
                </g>
                <g transform="matrix(-1.00576,-0.000224294,0.000225505,-1.01119,1122.48,871.919)">
                    <path d="M439.871,231.471C367.936,273.223 323.664,350.108 323.664,433.282L557.005,433.282L439.871,231.471Z" style="fill:rgb(253,163,72);"/>
                </g>
                <g transform="matrix(-0.502621,-0.871163,0.875867,-0.505335,463.362,1138.83)">
                    <path d="M439.871,231.471C367.936,273.223 323.664,350.108 323.664,433.282L557.005,433.282L439.871,231.471Z" style="fill:rgb(206,138,190);"/>
                </g>
                <g transform="matrix(0.503204,-0.870826,0.875529,0.505921,-96.8094,701.594)">
                    <path d="M439.871,231.471C367.936,273.223 323.664,350.108 323.664,433.282L557.005,433.282L439.871,231.471Z" style="fill:rgb(13,182,163);"/>
                </g>
            </g>
            <g>
                <g transform="matrix(0.929296,0,0,0.929296,39.6904,30.8738)">
                    <circle cx="561.36" cy="436.663" r="102.003" style="fill:white;"/>
                </g>
                <g>
                    <g transform="matrix(1,0,0,1,45.46,19.8413)">
                        <text x="451.22px" y="448.535px" style="font-family:'Nunito-Regular', 'Nunito';font-size:16px;fill:rgb(102,101,106);">Actionable Insight</text>
                        <text x="459.876px" y="467.201px" style="font-family:'Nunito-Regular', 'Nunito';font-size:16px;fill:rgb(102,101,106);">and Knowledge</text>
                    </g>
                    <g id="Isolation-Mode" serif:id="Isolation Mode" transform="matrix(2.93794,0,0,2.93794,525.659,366.424)">
                        <g transform="matrix(1,0,0,1,11.2396,0.0003)">
                            <path d="M0,26.758C-0.13,26.758 -0.261,26.688 -0.312,26.567L-2.075,22.851L-6.494,22.851C-6.643,22.851 -6.771,22.756 -6.824,22.608L-8.804,16.321L-10.888,16.321C-11.009,16.321 -11.113,16.261 -11.183,16.165C-11.251,16.07 -11.251,15.948 -11.217,15.844L-9.237,11.026C-9.29,10.609 -9.308,10.218 -9.308,9.828C-9.308,4.41 -4.905,0 0.521,0C5.938,0 10.341,4.41 10.341,9.828C10.341,11.92 9.689,13.908 8.475,15.592C7.996,17.702 8.179,23.788 8.179,23.849C8.179,24.006 8.083,24.144 7.937,24.196L0.104,26.749C0.069,26.758 0.034,26.758 0,26.758" style="fill:rgb(101,101,106);fill-rule:nonzero;"/>
                        </g>
                        <g transform="matrix(1,0,0,1,5.0058,4.5233)">
                            <path d="M0,17.633L4.376,17.633C4.516,17.633 4.637,17.712 4.689,17.832L6.417,21.462L13.709,19.091C13.684,17.859 13.579,12.753 14.048,10.843C14.048,10.8 14.074,10.757 14.101,10.714C15.264,9.142 15.88,7.267 15.88,5.305C15.88,0.269 11.782,-3.829 6.755,-3.829C1.72,-3.829 -2.378,0.269 -2.378,5.305C-2.378,5.695 -2.361,6.086 -2.3,6.503C-2.292,6.564 -2.3,6.624 -2.326,6.677L-4.141,11.104L-2.317,11.104C-2.17,11.104 -2.031,11.199 -1.987,11.347L0,17.633Z" style="fill:rgb(101,101,106);fill-rule:nonzero;"/>
                        </g>
                        <g transform="matrix(1,0,0,1,6.9686,8.1175)">
                            <path d="M0,0.573C-0.165,0.634 -0.26,0.807 -0.226,0.972L-0.035,1.866C0,2.041 0.148,2.154 0.312,2.145L1.024,2.11C1.094,2.292 1.181,2.466 1.285,2.622L0.833,3.169C0.729,3.3 0.729,3.49 0.852,3.62L1.458,4.306C1.58,4.427 1.763,4.454 1.91,4.367L2.5,3.985C2.657,4.107 2.813,4.211 2.978,4.298L2.865,4.992C2.83,5.157 2.935,5.322 3.091,5.375L3.968,5.661C4.133,5.713 4.306,5.643 4.384,5.495L4.705,4.87C4.896,4.888 5.088,4.905 5.278,4.897L5.53,5.557C5.583,5.696 5.713,5.782 5.852,5.782C5.877,5.782 5.903,5.774 5.92,5.774L6.824,5.592C6.989,5.557 7.102,5.4 7.102,5.227L7.067,4.531C7.24,4.454 7.414,4.367 7.579,4.271L8.125,4.714C8.248,4.819 8.439,4.819 8.578,4.706L9.254,4.089C9.375,3.976 9.411,3.786 9.315,3.646L8.934,3.056C9.056,2.899 9.159,2.735 9.254,2.57L9.949,2.682C10.106,2.717 10.279,2.613 10.332,2.448L10.609,1.58C10.669,1.416 10.593,1.241 10.444,1.163L9.811,0.842C9.836,0.651 9.846,0.46 9.846,0.269L10.504,0.017C10.669,-0.034 10.766,-0.209 10.731,-0.373L10.54,-1.277C10.504,-1.441 10.349,-1.563 10.176,-1.554L9.481,-1.51C9.403,-1.693 9.315,-1.858 9.221,-2.023L9.663,-2.57C9.776,-2.7 9.776,-2.891 9.654,-3.022L9.045,-3.707C8.926,-3.829 8.734,-3.855 8.595,-3.768L8.004,-3.386C7.856,-3.499 7.692,-3.603 7.527,-3.698L7.64,-4.393C7.667,-4.558 7.57,-4.723 7.406,-4.775L6.537,-5.062C6.372,-5.114 6.199,-5.044 6.112,-4.897L5.8,-4.272C5.6,-4.288 5.417,-4.306 5.227,-4.297L4.975,-4.957C4.914,-5.114 4.74,-5.209 4.583,-5.175L3.681,-4.984C3.508,-4.949 3.395,-4.802 3.403,-4.627L3.438,-3.933C3.264,-3.855 3.091,-3.768 2.926,-3.672L2.388,-4.115C2.258,-4.228 2.066,-4.219 1.936,-4.106L1.25,-3.499C1.12,-3.377 1.094,-3.195 1.189,-3.048L1.562,-2.457C1.458,-2.309 1.354,-2.153 1.25,-1.98L0.564,-2.093C0.399,-2.118 0.226,-2.023 0.174,-1.858L-0.112,-0.981C-0.165,-0.816 -0.096,-0.642 0.061,-0.564L0.677,-0.243C0.66,-0.052 0.651,0.139 0.651,0.33L0,0.573Z" style="fill:white;fill-rule:nonzero;"/>
                        </g>
                        <g transform="matrix(1,0,0,1,8.1845,9.4551)">
                            <path d="M0,-2.084L-0.573,-2.388L-0.47,-2.692L0.173,-2.588C0.312,-2.562 0.469,-2.64 0.538,-2.771C0.686,-3.074 0.851,-3.326 1.042,-3.551C1.146,-3.664 1.154,-3.829 1.076,-3.959L0.711,-4.515L0.955,-4.724L1.458,-4.315C1.58,-4.211 1.745,-4.203 1.875,-4.29C2.126,-4.463 2.404,-4.602 2.708,-4.715C2.848,-4.767 2.934,-4.906 2.934,-5.054L2.899,-5.704L3.212,-5.773L3.446,-5.158C3.498,-5.019 3.646,-4.923 3.792,-4.932C4.098,-4.959 4.401,-4.94 4.723,-4.888C4.861,-4.862 5.018,-4.932 5.087,-5.07L5.382,-5.653L5.695,-5.549L5.582,-4.906C5.557,-4.758 5.635,-4.602 5.773,-4.533C6.06,-4.394 6.32,-4.229 6.546,-4.029C6.659,-3.933 6.823,-3.917 6.963,-4.003L7.5,-4.359L7.727,-4.116L7.31,-3.612C7.215,-3.491 7.205,-3.326 7.292,-3.195C7.466,-2.944 7.604,-2.666 7.701,-2.379C7.751,-2.232 7.899,-2.137 8.048,-2.145L8.699,-2.18L8.769,-1.858L8.152,-1.632C8.013,-1.581 7.917,-1.433 7.935,-1.286C7.952,-0.991 7.935,-0.678 7.883,-0.357C7.849,-0.2 7.927,-0.053 8.065,0.017L8.646,0.312L8.542,0.616L7.899,0.512C7.751,0.486 7.604,0.563 7.535,0.703C7.405,0.963 7.24,1.224 7.032,1.476C6.928,1.588 6.919,1.762 6.997,1.884L7.354,2.43L7.119,2.647L6.606,2.239C6.493,2.135 6.32,2.135 6.198,2.213C5.937,2.387 5.66,2.525 5.365,2.638C5.227,2.691 5.14,2.83 5.14,2.977L5.174,3.629L4.861,3.689L4.626,3.081C4.575,2.942 4.445,2.856 4.306,2.856L4.279,2.856C3.976,2.882 3.664,2.864 3.351,2.804C3.212,2.778 3.056,2.856 2.986,2.986L2.691,3.576L2.378,3.472L2.483,2.83C2.518,2.673 2.431,2.525 2.292,2.456C2.031,2.335 1.779,2.17 1.511,1.953C1.397,1.857 1.232,1.849 1.111,1.927L0.563,2.283L0.347,2.04L0.764,1.536C0.858,1.414 0.867,1.249 0.781,1.119C0.616,0.876 0.469,0.598 0.364,0.295C0.312,0.155 0.173,0.06 0.017,0.069L-0.634,0.104L-0.695,-0.217L-0.087,-0.443C0.052,-0.496 0.147,-0.634 0.139,-0.791C0.121,-1.104 0.139,-1.424 0.191,-1.72C0.208,-1.867 0.139,-2.015 0,-2.084" style="fill:rgb(101,101,106);fill-rule:nonzero;"/>
                        </g>
                        <g transform="matrix(1,0,0,1,12.2211,6.0159)">
                            <path d="M0,4.802C1.328,4.802 2.404,3.725 2.404,2.397C2.404,1.077 1.328,0 0,0C-1.327,0 -2.405,1.077 -2.405,2.397C-2.405,3.725 -1.327,4.802 0,4.802" style="fill:white;fill-rule:nonzero;"/>
                        </g>
                        <g transform="matrix(1,0,0,1,12.2211,10.1235)">
                            <ellipse cx="0" cy="-1.706" rx="1.71" ry="1.706" style="fill:rgb(101,101,106);"/>
                        </g>
                    </g>
                </g>
            </g>
        </g>
        <g>
            <g>
                <path d="M551.352,183.327C533.022,178.781 519.419,162.207 519.419,142.48C519.419,119.255 538.275,100.399 561.501,100.399C584.726,100.399 603.582,119.255 603.582,142.48C603.582,162.207 589.979,178.781 571.65,183.327L561.501,198.378L551.352,183.327Z" style="fill:rgb(187,219,112);"/>
                <g transform="matrix(1.01839,0,0,1.01839,-11.1604,-4.55356)">
                    <circle cx="562.182" cy="144.353" r="30.618" style="fill:white;"/>
                </g>
            </g>
            <g>
                <g transform="matrix(0.5,-0.866025,0.866025,0.5,-93.9641,696.225)">
                    <path d="M551.352,183.327C533.022,178.781 519.419,162.207 519.419,142.48C519.419,119.255 538.275,100.399 561.501,100.399C584.726,100.399 603.582,119.255 603.582,142.48C603.582,162.207 589.979,178.781 571.65,183.327L561.501,198.378L551.352,183.327Z" style="fill:rgb(255,66,41);"/>
                </g>
                <g transform="matrix(1.01839,5.55112e-17,-5.55112e-17,1.01839,-262.179,134.184)">
                    <circle cx="562.182" cy="144.353" r="30.618" style="fill:white;"/>
                </g>
            </g>
            <g>
                <g transform="matrix(-0.5,-0.866025,0.866025,-0.5,467.537,1148.41)">
                    <path d="M551.352,183.327C533.022,178.781 519.419,162.207 519.419,142.48C519.419,119.255 538.275,100.399 561.501,100.399C584.726,100.399 603.582,119.255 603.582,142.48C603.582,162.207 589.979,178.781 571.65,183.327L561.501,198.378L551.352,183.327Z" style="fill:rgb(13,182,163);"/>
                </g>
                <g transform="matrix(1.01839,5.55112e-17,-5.55112e-17,1.01839,-262.179,443.891)">
                    <circle cx="562.182" cy="144.353" r="30.618" style="fill:white;"/>
                </g>
            </g>
            <g>
                <g transform="matrix(-1,5.55112e-16,-5.55112e-16,-1,1123,874.857)">
                    <path d="M551.352,183.327C533.022,178.781 519.419,162.207 519.419,142.48C519.419,119.255 538.275,100.399 561.501,100.399C584.726,100.399 603.582,119.255 603.582,142.48C603.582,162.207 589.979,178.781 571.65,183.327L561.501,198.378L551.352,183.327Z" style="fill:rgb(206,138,190);"/>
                </g>
                <g transform="matrix(1.01839,5.55112e-17,-5.55112e-17,1.01839,-11.1604,585.972)">
                    <circle cx="562.182" cy="144.353" r="30.618" style="fill:white;"/>
                </g>
            </g>
            <g>
                <g transform="matrix(-0.5,0.866025,-0.866025,-0.5,1216.35,175.864)">
                    <path d="M551.352,183.327C533.022,178.781 519.419,162.207 519.419,142.48C519.419,119.255 538.275,100.399 561.501,100.399C584.726,100.399 603.582,119.255 603.582,142.48C603.582,162.207 589.979,178.781 571.65,183.327L561.501,198.378L551.352,183.327Z" style="fill:rgb(253,163,72);"/>
                </g>
                <g transform="matrix(1.01839,5.55112e-17,-5.55112e-17,1.01839,239.633,443.891)">
                    <circle cx="562.182" cy="144.353" r="30.618" style="fill:white;"/>
                </g>
            </g>
            <g>
                <g transform="matrix(0.5,0.866025,-0.866025,0.5,654.854,-276.323)">
                    <path d="M551.352,183.327C533.022,178.781 519.419,162.207 519.419,142.48C519.419,119.255 538.275,100.399 561.501,100.399C584.726,100.399 603.582,119.255 603.582,142.48C603.582,162.207 589.979,178.781 571.65,183.327L561.501,198.378L551.352,183.327Z" style="fill:rgb(71,175,232);"/>
                </g>
                <g transform="matrix(1.01839,5.55112e-17,-5.55112e-17,1.01839,239.633,134.184)">
                    <circle cx="562.182" cy="144.353" r="30.618" style="fill:white;"/>
                </g>
            </g>
        </g>
        <g>
            <g>
                <path d="M370.807,256.692C370.973,256.891 420.216,198.878 509.812,177.962" style="fill:none;stroke:rgb(255,66,41);stroke-width:10px;stroke-dasharray:0,15,0,0;"/>
                <g transform="matrix(0.67785,-0.170662,0.170662,0.67785,128.951,144.174)">
                    <g transform="matrix(7.8766,0,0,7.8766,-3472.83,-2709.23)">
                        <circle cx="504.776" cy="366.799" r="3.865" style="fill:rgb(255,66,41);"/>
                    </g>
                    <g transform="matrix(6.14349,0,0,-4.73945,-2675.81,1936.65)">
                        <path d="M516.676,367.704L519.636,370.664L516.676,373.623" style="fill:rgb(255,66,41);stroke:white;stroke-width:1.56px;"/>
                    </g>
                </g>
            </g>
            <g>
                <g transform="matrix(0.51297,0.858407,-0.858407,0.51297,646.226,-271.055)">
                    <path d="M370.807,256.692C370.973,256.891 420.216,198.878 509.812,177.962" style="fill:none;stroke:rgb(187,219,112);stroke-width:10px;stroke-dasharray:0,15,0,0;"/>
                </g>
                <g transform="matrix(0.494271,0.494271,-0.494271,0.494271,587.083,-87.5543)">
                    <g transform="matrix(7.8766,0,0,7.8766,-3472.83,-2709.23)">
                        <circle cx="504.776" cy="366.799" r="3.865" style="fill:rgb(187,219,112);"/>
                    </g>
                    <g transform="matrix(6.14349,0,0,-4.73945,-2675.81,1936.65)">
                        <path d="M516.676,367.704L519.636,370.664L516.676,373.623" style="fill:rgb(187,219,112);stroke:white;stroke-width:1.56px;"/>
                    </g>
                </g>
            </g>
            <g>
                <g transform="matrix(-0.543461,0.839435,-0.839435,-0.543461,1233.46,198.498)">
                    <path d="M351.348,280.554C349.517,274.741 416.883,188.841 509.812,177.962" style="fill:none;stroke:rgb(71,175,232);stroke-width:10px;stroke-dasharray:0,15,0,0;"/>
                </g>
                <g transform="matrix(-0.266569,0.646179,-0.646179,-0.266569,1060.88,241.547)">
                    <g transform="matrix(7.8766,0,0,7.8766,-3472.83,-2709.23)">
                        <circle cx="504.776" cy="366.799" r="3.865" style="fill:rgb(71,175,232);"/>
                    </g>
                    <g transform="matrix(6.14349,0,0,-4.73945,-2675.81,1936.65)">
                        <path d="M516.676,367.704L519.636,370.664L516.676,373.623" style="fill:rgb(71,175,232);stroke:white;stroke-width:1.56px;"/>
                    </g>
                </g>
            </g>
            <g>
                <g transform="matrix(-0.999924,0.0123542,-0.0123542,-0.999924,1127.4,866.819)">
                    <path d="M370.807,256.692C370.973,256.891 420.216,198.878 509.812,177.962" style="fill:none;stroke:rgb(253,163,72);stroke-width:10px;stroke-dasharray:0,15,0,0;"/>
                </g>
                <g transform="matrix(-0.675186,0.180916,-0.180916,-0.675186,997.09,723.111)">
                    <g transform="matrix(7.8766,0,0,7.8766,-3472.83,-2709.23)">
                        <circle cx="504.776" cy="366.799" r="3.865" style="fill:rgb(253,163,72);"/>
                    </g>
                    <g transform="matrix(6.14349,0,0,-4.73945,-2675.81,1936.65)">
                        <path d="M516.676,367.704L519.636,370.664L516.676,373.623" style="fill:rgb(253,163,72);stroke:white;stroke-width:1.56px;"/>
                    </g>
                </g>
            </g>
            <g>
                <g transform="matrix(-0.494243,-0.869324,0.869324,-0.494243,466.071,1146.88)">
                    <path d="M370.807,256.692C370.973,256.891 420.216,198.878 509.812,177.962" style="fill:none;stroke:rgb(206,138,190);stroke-width:10px;stroke-dasharray:0,15,0,0;"/>
                </g>
                <g transform="matrix(-0.494271,-0.494271,0.494271,-0.494271,537.212,961.838)">
                    <g transform="matrix(7.8766,0,0,7.8766,-3472.83,-2709.23)">
                        <circle cx="504.776" cy="366.799" r="3.865" style="fill:rgb(206,138,190);"/>
                    </g>
                    <g transform="matrix(6.14349,0,0,-4.73945,-2675.81,1936.65)">
                        <path d="M516.676,367.704L519.636,370.664L516.676,373.623" style="fill:rgb(206,138,190);stroke:white;stroke-width:1.56px;"/>
                    </g>
                </g>
            </g>
            <g>
                <g transform="matrix(0.55032,-0.834954,0.834954,0.55032,-112.045,669.063)">
                    <path d="M349.547,283.593C346.428,279.193 415.932,192.88 509.812,177.962" style="fill:none;stroke:rgb(13,182,163);stroke-width:10px;stroke-dasharray:0,15,0,0;"/>
                </g>
                <g transform="matrix(0.222323,-0.662706,0.662706,0.222323,81.7759,646.176)">
                    <g transform="matrix(7.8766,0,0,7.8766,-3472.83,-2709.23)">
                        <circle cx="504.776" cy="366.799" r="3.865" style="fill:rgb(13,182,163);"/>
                    </g>
                    <g transform="matrix(6.14349,0,0,-4.73945,-2675.81,1936.65)">
                        <path d="M516.676,367.704L519.636,370.664L516.676,373.623" style="fill:rgb(13,182,163);stroke:white;stroke-width:1.56px;"/>
                    </g>
                </g>
            </g>
        </g>
    </g>
    <g>
        <g>
            <g transform="matrix(1,0,0,1,365.963,-623.023)">
                <path d="M518.364,852.455C518.364,854.526 516.685,856.205 514.614,856.205C512.542,856.205 510.864,854.526 510.864,852.455C510.864,850.384 512.542,848.705 514.614,848.705C516.685,848.705 518.364,850.384 518.364,852.455Z" style="fill:rgb(71,175,232);fill-rule:nonzero;"/>
            </g>
            <g transform="matrix(1,0,0,1,365.963,-529.023)">
                <path d="M518.364,852.455C518.364,854.526 516.685,856.205 514.614,856.205C512.542,856.205 510.864,854.526 510.864,852.455C510.864,850.384 512.542,848.705 514.614,848.705C516.685,848.705 518.364,850.384 518.364,852.455Z" style="fill:rgb(71,175,232);fill-rule:nonzero;"/>
            </g>
        </g>
        <g transform="matrix(1,0,0,1,-3,329.611)">
            <g transform="matrix(1,0,0,1,365.963,-623.023)">
                <path d="M518.364,852.455C518.364,854.526 516.685,856.205 514.614,856.205C512.542,856.205 510.864,854.526 510.864,852.455C510.864,850.384 512.542,848.705 514.614,848.705C516.685,848.705 518.364,850.384 518.364,852.455Z" style="fill:rgb(253,163,72);fill-rule:nonzero;"/>
            </g>
            <g transform="matrix(1,0,0,1,365.963,-549.424)">
                <path d="M518.364,852.455C518.364,854.526 516.685,856.205 514.614,856.205C512.542,856.205 510.864,854.526 510.864,852.455C510.864,850.384 512.542,848.705 514.614,848.705C516.685,848.705 518.364,850.384 518.364,852.455Z" style="fill:rgb(253,163,72);fill-rule:nonzero;"/>
            </g>
        </g>
        <g transform="matrix(1,0,0,1,-811.329,307.747)">
            <g transform="matrix(1,0,0,1,365.963,-623.023)">
                <path d="M518.364,852.455C518.364,854.526 516.685,856.205 514.614,856.205C512.542,856.205 510.864,854.526 510.864,852.455C510.864,850.384 512.542,848.705 514.614,848.705C516.685,848.705 518.364,850.384 518.364,852.455Z" style="fill:rgb(13,182,163);fill-rule:nonzero;"/>
            </g>
            <g transform="matrix(1,0,0,1,365.963,-529.434)">
                <path d="M518.364,852.455C518.364,854.526 516.685,856.205 514.614,856.205C512.542,856.205 510.864,854.526 510.864,852.455C510.864,850.384 512.542,848.705 514.614,848.705C516.685,848.705 518.364,850.384 518.364,852.455Z" style="fill:rgb(13,182,163);fill-rule:nonzero;"/>
            </g>
        </g>
        <g transform="matrix(1,0,0,1,-811.329,-0.605196)">
            <g transform="matrix(1,0,0,1,365.963,-623.023)">
                <path d="M518.364,852.455C518.364,854.526 516.685,856.205 514.614,856.205C512.542,856.205 510.864,854.526 510.864,852.455C510.864,850.384 512.542,848.705 514.614,848.705C516.685,848.705 518.364,850.384 518.364,852.455Z" style="fill:rgb(255,66,41);fill-rule:nonzero;"/>
            </g>
            <g transform="matrix(1,0,0,1,365.963,-571.434)">
                <path d="M518.364,852.455C518.364,854.526 516.685,856.205 514.614,856.205C512.542,856.205 510.864,854.526 510.864,852.455C510.864,850.384 512.542,848.705 514.614,848.705C516.685,848.705 518.364,850.384 518.364,852.455Z" style="fill:rgb(255,66,41);fill-rule:nonzero;"/>
            </g>
        </g>
        <g transform="matrix(1,0,0,1,-37.5205,-54.1217)">
            <path d="M518.364,852.455C518.364,854.526 516.685,856.205 514.614,856.205C512.542,856.205 510.864,854.526 510.864,852.455C510.864,850.384 512.542,848.705 514.614,848.705C516.685,848.705 518.364,850.384 518.364,852.455Z" style="fill:rgb(206,138,190);fill-rule:nonzero;"/>
        </g>
        <g transform="matrix(1,0,0,1,-37.5205,-801.281)">
            <path d="M518.364,852.455C518.364,854.526 516.685,856.205 514.614,856.205C512.542,856.205 510.864,854.526 510.864,852.455C510.864,850.384 512.542,848.705 514.614,848.705C516.685,848.705 518.364,850.384 518.364,852.455Z" style="fill:rgb(187,219,112);fill-rule:nonzero;"/>
        </g>
    </g>
    <g>
        <g>
            <g transform="matrix(1.08558,0,0,1.14001,-41.525,-27.05)">
                <text x="861.653px" y="229.365px" style="font-family:'Nunito-Regular', 'Nunito';font-size:16px;fill:rgb(102,101,106);">Empow<tspan x="916.069px " y="229.365px ">e</tspan>r</text>
                <text x="861.653px" y="248.032px" style="font-family:'Nunito-Regular', 'Nunito';font-size:16px;fill:rgb(102,101,106);">stak<tspan x="891.029px " y="248.032px ">e</tspan>holders</text>
                <text x="861.653px" y="266.698px" style="font-family:'Nunito-Regular', 'Nunito';font-size:16px;fill:rgb(102,101,106);">with single<tspan x="939.669px " y="266.698px ">-</tspan>pane</text>
                <text x="861.653px" y="285.365px" style="font-family:'Nunito-Regular', 'Nunito';font-size:16px;fill:rgb(102,101,106);">visibility and insights</text>
            </g>
            <g transform="matrix(1.08558,0,0,1.14001,-41.525,67.1086)">
                <text x="861.653px" y="229.365px" style="font-family:'Nunito-Regular', 'Nunito';font-size:16px;fill:rgb(102,101,106);">Enrich ﬁr<tspan x="924.725px 933.061px 946.389px " y="229.365px 229.365px 229.365px ">ewa</tspan>ll</text>
                <text x="861.653px" y="248.032px" style="font-family:'Nunito-Regular', 'Nunito';font-size:16px;fill:rgb(102,101,106);">security data</text>
            </g>
        </g>
        <g>
            <g transform="matrix(1.08558,0,0,1.14001,-45.4278,303.912)">
                <text x="861.653px" y="229.365px" style="font-family:'Nunito-Regular', 'Nunito';font-size:16px;fill:rgb(102,101,106);">Cr<tspan x="877.973px " y="229.365px ">e</tspan>ate knowledge</text>
                <text x="861.653px" y="248.032px" style="font-family:'Nunito-Regular', 'Nunito';font-size:16px;fill:rgb(102,101,106);">r<tspan x="867.141px " y="248.032px ">e</tspan>pr<tspan x="890.373px " y="248.032px ">e</tspan>sentations of</text>
                <text x="861.653px" y="266.698px" style="font-family:'Nunito-Regular', 'Nunito';font-size:16px;fill:rgb(102,101,106);">analy<tspan x="899.813px " y="266.698px ">t</tspan>ic data</text>
            </g>
            <g transform="matrix(1.08558,0,0,1.14001,-45.4278,376.912)">
                <text x="861.653px" y="229.365px" style="font-family:'Nunito-Regular', 'Nunito';font-size:16px;fill:rgb(102,101,106);">Monitor r<tspan x="926.373px " y="229.365px ">e</tspan>sults with</text>
                <text x="861.653px" y="248.032px" style="font-family:'Nunito-Regular', 'Nunito';font-size:16px;fill:rgb(102,101,106);">gr<tspan x="876.517px " y="248.032px ">e</tspan>ater clarity<tspan x="959.477px " y="248.032px ">,</tspan> cer<tspan x="989.637px " y="248.032px ">t</tspan>ainty<tspan x="1029.54px " y="248.032px ">,</tspan></text>
                <text x="861.653px" y="266.698px" style="font-family:'Nunito-Regular', 'Nunito';font-size:16px;fill:rgb(102,101,106);">and speed</text>
            </g>
        </g>
        <g transform="matrix(1,0,0,1,-808.329,-21.8637)">
            <g transform="matrix(1.08558,0,0,1.14001,-45.4278,303.912)">
                <text x="861.653px" y="229.365px" style="font-family:'Nunito-Regular', 'Nunito';font-size:16px;fill:rgb(102,101,106);">Operationaliz<tspan x="956.581px " y="229.365px ">e</tspan></text>
                <text x="861.653px" y="248.032px" style="font-family:'Nunito-Regular', 'Nunito';font-size:16px;fill:rgb(102,101,106);">analy<tspan x="899.813px " y="248.032px ">t</tspan>ics via</text>
                <text x="861.653px" y="266.698px" style="font-family:'Nunito-Regular', 'Nunito';font-size:16px;fill:rgb(102,101,106);">r<tspan x="867.141px " y="266.698px ">e</tspan>al-time, actionable</text>
                <text x="861.653px" y="285.365px" style="font-family:'Nunito-Regular', 'Nunito';font-size:16px;fill:rgb(102,101,106);">aler<tspan x="888.549px " y="285.365px ">t</tspan>s</text>
            </g>
            <g transform="matrix(1.08558,0,0,1.14001,-45.4278,398.354)">
                <text x="861.653px" y="229.365px" style="font-family:'Nunito-Regular', 'Nunito';font-size:16px;fill:rgb(102,101,106);">Show enriched data</text>
                <text x="861.653px" y="248.032px" style="font-family:'Nunito-Regular', 'Nunito';font-size:16px;fill:rgb(102,101,106);">in a meaningful,</text>
                <text x="861.653px" y="266.698px" style="font-family:'Nunito-Regular', 'Nunito';font-size:16px;fill:rgb(102,101,106);">actionable, and</text>
                <text x="861.653px" y="285.365px" style="font-family:'Nunito-Regular', 'Nunito';font-size:16px;fill:rgb(102,101,106);">consumable manner</text>
                <text x="861.653px" y="304.032px" style="font-family:'Nunito-Regular', 'Nunito';font-size:16px;fill:rgb(102,101,106);">and speed</text>
            </g>
        </g>
        <g transform="matrix(1,0,0,1,-808.329,-330.216)">
            <g transform="matrix(1.08558,0,0,1.14001,-45.4278,303.912)">
                <text x="861.653px" y="229.365px" style="font-family:'Nunito-Regular', 'Nunito';font-size:16px;fill:rgb(102,101,106);">C<tspan x="872.325px " y="229.365px ">a</tspan>librate security</text>
                <text x="861.653px" y="248.032px" style="font-family:'Nunito-Regular', 'Nunito';font-size:16px;fill:rgb(102,101,106);">policies and contr<tspan x="986.453px " y="248.032px ">o</tspan>ls</text>
            </g>
            <g transform="matrix(1.08558,0,0,1.14001,-45.4278,354.354)">
                <text x="861.653px" y="229.365px" style="font-family:'Nunito-Regular', 'Nunito';font-size:16px;fill:rgb(102,101,106);">Ex<tspan x="879.093px 887.525px 893.013px " y="229.365px 229.365px 229.365px ">erc</tspan>ise risk<tspan x="949.349px " y="229.365px ">-</tspan>based</text>
                <text x="861.653px" y="248.032px" style="font-family:'Nunito-Regular', 'Nunito';font-size:16px;fill:rgb(102,101,106);">decision-making and</text>
                <text x="861.653px" y="266.698px" style="font-family:'Nunito-Regular', 'Nunito';font-size:16px;fill:rgb(102,101,106);">r<tspan x="867.141px " y="266.698px ">e</tspan>mediation</text>
            </g>
        </g>
        <g transform="matrix(1.08558,0,0,1.14001,-445.911,543.203)">
            <g>
                <g>
                    <text x="861.653px" y="229.365px" style="font-family:'Nunito-Regular', 'Nunito';font-size:16px;fill:rgb(102,101,106);">P<tspan x="871.717px 880.149px 886.421px " y="229.365px 229.365px 229.365px ">erf</tspan>orm deep</text>
                    <text x="861.653px" y="248.032px" style="font-family:'Nunito-Regular', 'Nunito';font-size:16px;fill:rgb(102,101,106);">drill-<tspan x="894.789px " y="248.032px ">d</tspan>own inv<tspan x="960.501px " y="248.032px ">e</tspan>stigativ<tspan x="1020.82px " y="248.032px ">e</tspan></text>
                    <text x="861.653px" y="266.698px" style="font-family:'Nunito-Regular', 'Nunito';font-size:16px;fill:rgb(102,101,106);">and for<tspan x="912.197px " y="266.698px ">e</tspan>nsic analy<tspan x="990.741px " y="266.698px ">s</tspan>is</text>
                </g>
            </g>
        </g>
        <g transform="matrix(1.08558,0,0,1.14001,-445.911,-203.956)">
            <g>
                <g>
                    <text x="861.653px" y="229.365px" style="font-family:'Nunito-Regular', 'Nunito';font-size:16px;fill:rgb(102,101,106);">Gain eagle<tspan x="937.253px 944.293px 952.629px 960.757px " y="229.365px 229.365px 229.365px 229.365px ">-eye</tspan> view</text>
                    <text x="861.653px" y="248.032px" style="font-family:'Nunito-Regular', 'Nunito';font-size:16px;fill:rgb(102,101,106);">into ev<tspan x="909.365px 917.797px 923.925px 932.325px " y="248.032px 248.032px 248.032px 248.032px ">eryt</tspan>hing</text>
                </g>
            </g>
        </g>
    </g>
    <g>
        <g transform="matrix(1,0,0,1,-9.70468,0.78615)">
            <text x="371.615px" y="359.661px" style="font-family:'Nunito-Bold', 'Nunito';font-weight:700;font-size:16px;fill:white;">DETEC<tspan x="423.007px " y="359.661px ">T</tspan> AND</text>
            <text x="377.479px" y="378.328px" style="font-family:'Nunito-Bold', 'Nunito';font-weight:700;font-size:16px;fill:white;">REMEDIA<tspan x="447.943px " y="378.328px ">T</tspan>E</text>
        </g>
        <g transform="matrix(1,0,0,1,138.928,-86.0809)">
            <text x="373.863px" y="359.661px" style="font-family:'Nunito-Bold', 'Nunito';font-weight:700;font-size:16px;fill:white;">A<tspan x="385.383px " y="359.661px ">G</tspan>GREGA<tspan x="451.559px " y="359.661px ">T</tspan>E</text>
            <text x="401.055px" y="378.328px" style="font-family:'Nunito-Bold', 'Nunito';font-weight:700;font-size:16px;fill:white;">D<tspan x="412.831px 423.311px 431.727px " y="378.328px 378.328px 378.328px ">ATA</tspan></text>
        </g>
        <g transform="matrix(1,0,0,1,277.136,0.78615)">
            <text x="357.047px" y="359.661px" style="font-family:'Nunito-Bold', 'Nunito';font-weight:700;font-size:16px;fill:white;">C<tspan x="367.687px " y="359.661px ">O</tspan>NTE<tspan x="411.223px " y="359.661px ">X</tspan>TUALIZE</text>
            <text x="401.055px" y="378.328px" style="font-family:'Nunito-Bold', 'Nunito';font-weight:700;font-size:16px;fill:white;">D<tspan x="412.831px 423.311px 431.727px " y="378.328px 378.328px 378.328px ">ATA</tspan></text>
        </g>
        <g transform="matrix(1,0,0,1,281.586,146.187)">
            <text x="389.599px" y="359.661px" style="font-family:'Nunito-Bold', 'Nunito';font-weight:700;font-size:16px;fill:white;">S<tspan x="399.567px " y="359.661px ">T</tspan>RE<tspan x="429.727px " y="359.661px ">A</tspan>M</text>
            <text x="378.319px" y="378.328px" style="font-family:'Nunito-Bold', 'Nunito';font-weight:700;font-size:16px;fill:white;">ANAL<tspan x="420.927px 431.183px " y="378.328px 378.328px ">YT</tspan>IC<tspan x="456.127px " y="378.328px ">S</tspan></text>
        </g>
        <g transform="matrix(1,0,0,1,139.201,230.355)">
            <text x="401.087px" y="359.661px" style="font-family:'Nunito-Bold', 'Nunito';font-weight:700;font-size:16px;fill:white;">USER</text>
            <text x="378.319px" y="378.328px" style="font-family:'Nunito-Bold', 'Nunito';font-weight:700;font-size:16px;fill:white;">ANAL<tspan x="420.927px 431.183px " y="378.328px 378.328px ">YT</tspan>IC<tspan x="456.127px " y="378.328px ">S</tspan></text>
        </g>
        <g transform="matrix(1,0,0,1,-10.0276,146.187)">
            <text x="381.287px" y="359.661px" style="font-family:'Nunito-Bold', 'Nunito';font-weight:700;font-size:16px;fill:white;">VISUALIZE</text>
            <text x="366.623px" y="378.328px" style="font-family:'Nunito-Bold', 'Nunito';font-weight:700;font-size:16px;fill:white;">D<tspan x="378.015px " y="378.328px ">Y</tspan>NAMIC<tspan x="440.399px " y="378.328px ">A</tspan>LL<tspan x="468.063px " y="378.328px ">Y</tspan></text>
        </g>
    </g>
    <g>
        <g id="Isolation-Mode1" serif:id="Isolation Mode" transform="matrix(1.91525,0,0,1.91525,288.787,570.14)">
            <g transform="matrix(1,0,0,1,8.206,2.5212)">
                <path d="M0,-2.156C-0.595,-2.156 -1.079,-1.674 -1.079,-1.078C-1.079,-0.482 -0.595,0.001 0,0.001C0.595,0.001 1.079,-0.482 1.079,-1.078C1.079,-1.674 0.595,-2.156 0,-2.156M0,0.365C-0.796,0.365 -1.443,-0.282 -1.443,-1.078C-1.443,-1.873 -0.796,-2.521 0,-2.521C0.796,-2.521 1.443,-1.873 1.443,-1.078C1.443,-0.282 0.796,0.365 0,0.365" style="fill:rgb(101,101,106);fill-rule:nonzero;stroke:rgb(101,101,106);stroke-width:0.28px;stroke-linecap:butt;stroke-miterlimit:1.41421;"/>
            </g>
            <g transform="matrix(1,0,0,1,4.708,10.6188)">
                <path d="M0,7.181C0,7.256 -0.046,7.319 -0.102,7.319L-2.627,7.319C-2.684,7.319 -2.729,7.256 -2.729,7.181L-2.729,-0.003C-2.729,-0.077 -2.684,-0.138 -2.627,-0.138L-0.102,-0.138C-0.046,-0.138 0,-0.077 0,-0.003L0,7.181Z" style="fill:rgb(235,239,242);fill-rule:nonzero;"/>
            </g>
            <g transform="matrix(1,0,0,1,0,8.5143)">
                <path d="M2.161,9.241L4.525,9.241L4.525,2.148L2.161,2.148L2.161,9.241ZM4.606,9.605L2.08,9.605C1.924,9.605 1.797,9.462 1.797,9.286L1.797,2.103C1.797,1.924 1.922,1.784 2.08,1.784L4.606,1.784C4.765,1.784 4.889,1.924 4.889,2.103L4.889,9.286C4.889,9.465 4.765,9.605 4.606,9.605" style="fill:rgb(101,101,106);fill-rule:nonzero;stroke:rgb(101,101,106);stroke-width:0.28px;stroke-linecap:butt;stroke-miterlimit:1.41421;"/>
            </g>
            <g transform="matrix(1,0,0,1,9.5693,6.1468)">
                <path d="M0,11.653C0,11.728 -0.045,11.791 -0.101,11.791L-2.625,11.791C-2.682,11.791 -2.728,11.728 -2.728,11.653L-2.728,-0.001C-2.728,-0.076 -2.682,-0.138 -2.625,-0.138L-0.101,-0.138C-0.045,-0.138 0,-0.076 0,-0.001L0,11.653Z" style="fill:rgb(13,182,163);fill-rule:nonzero;"/>
            </g>
            <g transform="matrix(1,0,0,1,0,4.0423)">
                <path d="M7.024,13.713L9.387,13.713L9.387,2.149L7.024,2.149L7.024,13.713ZM9.468,14.077L6.944,14.077C6.785,14.077 6.66,13.937 6.66,13.758L6.66,2.103C6.66,1.925 6.785,1.784 6.944,1.784L9.468,1.784C9.625,1.784 9.752,1.927 9.752,2.103L9.752,13.758C9.752,13.934 9.625,14.077 9.468,14.077" style="fill:rgb(13,182,163);fill-rule:nonzero;"/>
            </g>
            <g transform="matrix(1,0,0,1,19.2949,9.4388)">
                <path d="M0,8.361C0,8.436 -0.046,8.499 -0.101,8.499L-2.625,8.499C-2.682,8.499 -2.728,8.436 -2.728,8.361L-2.728,0C-2.728,-0.077 -2.682,-0.138 -2.625,-0.138L-0.101,-0.138C-0.046,-0.138 0,-0.077 0,0L0,8.361Z" style="fill:rgb(235,239,242);fill-rule:nonzero;"/>
            </g>
            <g transform="matrix(1,0,0,1,0,7.3353)">
                <path d="M16.749,10.42L19.112,10.42L19.112,2.149L16.749,2.149L16.749,10.42ZM19.194,10.784L16.67,10.784C16.509,10.784 16.384,10.644 16.384,10.465L16.384,2.103C16.384,1.924 16.509,1.784 16.67,1.784L19.194,1.784C19.352,1.784 19.476,1.924 19.476,2.103L19.476,10.465C19.476,10.641 19.35,10.784 19.194,10.784" style="fill:rgb(101,101,106);fill-rule:nonzero;stroke:rgb(101,101,106);stroke-width:0.28px;stroke-linecap:butt;stroke-miterlimit:1.41421;"/>
            </g>
            <g transform="matrix(1,0,0,1,14.4316,11.7008)">
                <path d="M0,6.099C0,6.174 -0.045,6.237 -0.101,6.237L-2.626,6.237C-2.682,6.237 -2.727,6.174 -2.727,6.099L-2.727,-0.001C-2.727,-0.077 -2.682,-0.138 -2.626,-0.138L-0.101,-0.138C-0.045,-0.138 0,-0.077 0,-0.001L0,6.099Z" style="fill:rgb(235,239,242);fill-rule:nonzero;"/>
            </g>
            <g transform="matrix(1,0,0,1,0,9.5963)">
                <path d="M11.886,8.159L14.249,8.159L14.249,2.148L11.886,2.148L11.886,8.159ZM14.33,8.523L11.805,8.523C11.647,8.523 11.522,8.383 11.522,8.204L11.522,2.104C11.522,1.924 11.647,1.784 11.805,1.784L14.33,1.784C14.489,1.784 14.614,1.924 14.614,2.104L14.614,8.204C14.614,8.383 14.489,8.523 14.33,8.523" style="fill:rgb(101,101,106);fill-rule:nonzero;stroke:rgb(101,101,106);stroke-width:0.28px;stroke-linecap:butt;stroke-miterlimit:1.41421;"/>
            </g>
            <g transform="matrix(1,0,0,1,3.3437,7.5691)">
                <path d="M0,-2.157C-0.595,-2.157 -1.079,-1.674 -1.079,-1.078C-1.079,-0.483 -0.595,0.001 0,0.001C0.595,0.001 1.078,-0.483 1.078,-1.078C1.078,-1.674 0.595,-2.157 0,-2.157M0,0.364C-0.796,0.364 -1.443,-0.282 -1.443,-1.078C-1.443,-1.874 -0.796,-2.521 0,-2.521C0.795,-2.521 1.442,-1.874 1.442,-1.078C1.442,-0.282 0.795,0.364 0,0.364" style="fill:rgb(101,101,106);fill-rule:nonzero;stroke:rgb(101,101,106);stroke-width:0.28px;stroke-linecap:butt;stroke-miterlimit:1.41421;"/>
            </g>
            <g transform="matrix(1,0,0,1,13.0683,7.7469)">
                <path d="M0,-2.157C-0.595,-2.157 -1.079,-1.674 -1.079,-1.078C-1.079,-0.483 -0.595,0.001 0,0.001C0.595,0.001 1.079,-0.483 1.079,-1.078C1.079,-1.674 0.595,-2.157 0,-2.157M0,0.364C-0.796,0.364 -1.443,-0.282 -1.443,-1.078C-1.443,-1.874 -0.796,-2.521 0,-2.521C0.796,-2.521 1.443,-1.874 1.443,-1.078C1.443,-0.282 0.796,0.364 0,0.364" style="fill:rgb(101,101,106);fill-rule:nonzero;stroke:rgb(101,101,106);stroke-width:0.28px;stroke-linecap:butt;stroke-miterlimit:1.41421;"/>
            </g>
            <g transform="matrix(1,0,0,1,17.9306,4.3201)">
                <path d="M0,-2.157C-0.595,-2.157 -1.079,-1.673 -1.079,-1.078C-1.079,-0.482 -0.595,0.001 0,0.001C0.595,0.001 1.079,-0.482 1.079,-1.078C1.079,-1.673 0.595,-2.157 0,-2.157M0,0.364C-0.796,0.364 -1.443,-0.282 -1.443,-1.078C-1.443,-1.874 -0.796,-2.521 0,-2.521C0.796,-2.521 1.443,-1.874 1.443,-1.078C1.443,-0.282 0.796,0.364 0,0.364" style="fill:rgb(101,101,106);fill-rule:nonzero;stroke:rgb(101,101,106);stroke-width:0.28px;stroke-linecap:butt;stroke-miterlimit:1.41421;"/>
            </g>
            <g transform="matrix(1,0,0,1,3.9794,2.0579)">
                <path d="M0,3.532C-0.048,3.532 -0.096,3.512 -0.132,3.475C-0.201,3.404 -0.199,3.289 -0.127,3.22L3.14,0.069C3.212,0 3.327,0.002 3.397,0.073C3.467,0.146 3.465,0.261 3.392,0.331L0.126,3.481C0.091,3.514 0.045,3.532 0,3.532" style="fill:rgb(101,101,106);fill-rule:nonzero;stroke:rgb(101,101,106);stroke-width:0.28px;stroke-linecap:butt;stroke-miterlimit:1.41421;"/>
            </g>
            <g transform="matrix(1,0,0,1,12.2177,2.0538)">
                <path d="M0,3.872C-0.052,3.872 -0.104,3.849 -0.141,3.806L-3.016,0.32C-3.08,0.242 -3.068,0.128 -2.991,0.062C-2.914,0 -2.799,0.01 -2.734,0.088L0.141,3.573C0.205,3.651 0.193,3.766 0.116,3.83C0.082,3.858 0.041,3.872 0,3.872" style="fill:rgb(101,101,106);fill-rule:nonzero;stroke:rgb(101,101,106);stroke-width:0.28px;stroke-linecap:butt;stroke-miterlimit:1.41421;"/>
            </g>
            <g transform="matrix(1,0,0,1,14.1523,3.7939)">
                <path d="M0,2.421C-0.057,2.421 -0.111,2.396 -0.147,2.347C-0.207,2.266 -0.189,2.15 -0.107,2.092L2.669,0.06C2.75,0 2.863,0.018 2.923,0.099C2.982,0.181 2.965,0.294 2.884,0.354L0.107,2.386C0.074,2.41 0.037,2.421 0,2.421" style="fill:rgb(101,101,106);fill-rule:nonzero;stroke:rgb(101,101,106);stroke-width:0.28px;stroke-linecap:butt;stroke-miterlimit:1.41421;"/>
            </g>
            <g transform="matrix(1,0,0,1,22.3251,19.5393)">
                <path d="M0,0.364L-22.144,0.364C-22.244,0.364 -22.325,0.283 -22.325,0.182C-22.325,0.082 -22.244,0 -22.144,0L0,0C0.101,0 0.183,0.082 0.183,0.182C0.183,0.283 0.101,0.364 0,0.364" style="fill:rgb(101,101,106);fill-rule:nonzero;stroke:rgb(101,101,106);stroke-width:0.28px;stroke-linecap:butt;stroke-miterlimit:1.41421;"/>
            </g>
        </g>
        <g id="Isolation-Mode2" serif:id="Isolation Mode" transform="matrix(1.77925,0,0,1.77925,781.219,251.413)">
            <g transform="matrix(1,0,0,1,17.4999,20.9719)">
                <path d="M0,-7.226C-1.991,-7.226 -3.612,-5.605 -3.612,-3.613C-3.612,-1.621 -1.991,0 0,0C1.992,0 3.613,-1.621 3.613,-3.613C3.613,-5.605 1.992,-7.226 0,-7.226M0,0.355C-2.188,0.355 -3.968,-1.425 -3.968,-3.613C-3.968,-5.801 -2.188,-7.581 0,-7.581C2.188,-7.581 3.969,-5.801 3.969,-3.613C3.969,-1.425 2.188,0.355 0,0.355" style="fill:rgb(101,101,106);fill-rule:nonzero;stroke:rgb(101,101,106);stroke-width:0.37px;stroke-linecap:butt;stroke-miterlimit:1.41421;"/>
            </g>
            <g transform="matrix(1,0,0,1,19.5292,17.3577)">
                <path d="M0,0.001C0,1.122 -0.907,2.03 -2.028,2.03C-3.149,2.03 -4.059,1.122 -4.059,0.001C-4.059,-1.12 -3.149,-2.029 -2.028,-2.029C-0.907,-2.029 0,-1.12 0,0.001" style="fill:rgb(71,175,232);fill-rule:nonzero;"/>
            </g>
            <g transform="matrix(1,0,0,1,20.7245,8.0071)">
                <path d="M0,0C0,1.139 -0.925,2.062 -2.063,2.062C-3.201,2.062 -4.125,1.139 -4.125,0C-4.125,-1.139 -3.201,-2.062 -2.063,-2.062C-0.925,-2.062 0,-1.139 0,0" style="fill:rgb(230,231,232);fill-rule:nonzero;"/>
            </g>
            <g transform="matrix(1,0,0,1,18.662,9.8918)">
                <path d="M0,-3.769C-1.039,-3.769 -1.886,-2.924 -1.886,-1.885C-1.886,-0.846 -1.039,0 0,0C1.038,0 1.885,-0.846 1.885,-1.885C1.885,-2.924 1.038,-3.769 0,-3.769M0,0.355C-1.235,0.355 -2.24,-0.649 -2.24,-1.885C-2.24,-3.12 -1.235,-4.124 0,-4.124C1.234,-4.124 2.238,-3.12 2.238,-1.885C2.238,-0.649 1.234,0.355 0,0.355" style="fill:rgb(101,101,106);fill-rule:nonzero;stroke:rgb(101,101,106);stroke-width:0.37px;stroke-linecap:butt;stroke-miterlimit:1.41421;"/>
            </g>
            <g transform="matrix(1,0,0,1,30.8602,12.513)">
                <path d="M0,0.001C0,1.14 -0.923,2.063 -2.062,2.063C-3.199,2.063 -4.124,1.14 -4.124,0.001C-4.124,-1.138 -3.199,-2.062 -2.062,-2.062C-0.923,-2.062 0,-1.138 0,0.001" style="fill:rgb(230,231,232);fill-rule:nonzero;"/>
            </g>
            <g transform="matrix(1,0,0,1,28.7987,14.3982)">
                <path d="M0,-3.769C-1.039,-3.769 -1.885,-2.924 -1.885,-1.885C-1.885,-0.846 -1.039,0 0,0C1.039,0 1.886,-0.846 1.886,-1.885C1.886,-2.924 1.039,-3.769 0,-3.769M0,0.355C-1.234,0.355 -2.239,-0.65 -2.239,-1.885C-2.239,-3.12 -1.234,-4.124 0,-4.124C1.235,-4.124 2.239,-3.12 2.239,-1.885C2.239,-0.65 1.235,0.355 0,0.355" style="fill:rgb(101,101,106);fill-rule:nonzero;stroke:rgb(101,101,106);stroke-width:0.37px;stroke-linecap:butt;stroke-miterlimit:1.41421;"/>
            </g>
            <g transform="matrix(1,0,0,1,27.9979,25.1873)">
                <path d="M0,-0.001C0,1.138 -0.924,2.062 -2.063,2.062C-3.2,2.062 -4.125,1.138 -4.125,-0.001C-4.125,-1.14 -3.2,-2.063 -2.063,-2.063C-0.924,-2.063 0,-1.14 0,-0.001" style="fill:rgb(230,231,232);fill-rule:nonzero;"/>
            </g>
            <g transform="matrix(1,0,0,1,25.9354,27.071)">
                <path d="M0,-3.769C-1.038,-3.769 -1.885,-2.924 -1.885,-1.884C-1.885,-0.845 -1.038,0 0,0C1.039,0 1.886,-0.845 1.886,-1.884C1.886,-2.924 1.039,-3.769 0,-3.769M0,0.355C-1.234,0.355 -2.238,-0.649 -2.238,-1.884C-2.238,-3.12 -1.234,-4.124 0,-4.124C1.235,-4.124 2.239,-3.12 2.239,-1.884C2.239,-0.649 1.235,0.355 0,0.355" style="fill:rgb(101,101,106);fill-rule:nonzero;stroke:rgb(101,101,106);stroke-width:0.37px;stroke-linecap:butt;stroke-miterlimit:1.41421;"/>
            </g>
            <g transform="matrix(1,0,0,1,10.162,24.1956)">
                <path d="M0,0.001C0,1.14 -0.924,2.063 -2.063,2.063C-3.2,2.063 -4.125,1.14 -4.125,0.001C-4.125,-1.138 -3.2,-2.062 -2.063,-2.062C-0.924,-2.062 0,-1.138 0,0.001" style="fill:rgb(230,231,232);fill-rule:nonzero;"/>
            </g>
            <g transform="matrix(1,0,0,1,8.0995,26.0818)">
                <path d="M0,-3.77C-1.039,-3.77 -1.885,-2.925 -1.885,-1.885C-1.885,-0.846 -1.039,-0.001 0,-0.001C1.039,-0.001 1.886,-0.846 1.886,-1.885C1.886,-2.925 1.039,-3.77 0,-3.77M0,0.355C-1.233,0.355 -2.238,-0.65 -2.238,-1.885C-2.238,-3.121 -1.233,-4.125 0,-4.125C1.235,-4.125 2.239,-3.121 2.239,-1.885C2.239,-0.65 1.235,0.355 0,0.355" style="fill:rgb(101,101,106);fill-rule:nonzero;stroke:rgb(101,101,106);stroke-width:0.37px;stroke-linecap:butt;stroke-miterlimit:1.41421;"/>
            </g>
            <g transform="matrix(1,0,0,1,12.2245,14.575)">
                <path d="M0,0.001C0,1.14 -0.924,2.063 -2.063,2.063C-3.201,2.063 -4.125,1.14 -4.125,0.001C-4.125,-1.138 -3.201,-2.062 -2.063,-2.062C-0.924,-2.062 0,-1.138 0,0.001" style="fill:rgb(230,231,232);fill-rule:nonzero;"/>
            </g>
            <g transform="matrix(1,0,0,1,10.162,16.4612)">
                <path d="M0,-3.77C-1.039,-3.77 -1.885,-2.925 -1.885,-1.886C-1.885,-0.846 -1.039,0 0,0C1.039,0 1.885,-0.846 1.885,-1.886C1.885,-2.925 1.039,-3.77 0,-3.77M0,0.355C-1.234,0.355 -2.239,-0.65 -2.239,-1.886C-2.239,-3.121 -1.234,-4.125 0,-4.125C1.234,-4.125 2.239,-3.121 2.239,-1.886C2.239,-0.65 1.234,0.355 0,0.355" style="fill:rgb(101,101,106);fill-rule:nonzero;stroke:rgb(101,101,106);stroke-width:0.37px;stroke-linecap:butt;stroke-miterlimit:1.41421;"/>
            </g>
            <g transform="matrix(1,0,0,1,17.9696,9.8792)">
                <path d="M0,3.73C-0.008,3.73 -0.015,3.73 -0.021,3.729C-0.118,3.717 -0.187,3.629 -0.177,3.531L0.226,0.169C0.236,0.072 0.325,0 0.423,0.014C0.521,0.025 0.59,0.114 0.577,0.211L0.177,3.574C0.165,3.664 0.089,3.73 0,3.73" style="fill:rgb(101,101,106);fill-rule:nonzero;stroke:rgb(101,101,106);stroke-width:0.37px;stroke-linecap:butt;stroke-miterlimit:1.41421;"/>
            </g>
            <g transform="matrix(1,0,0,1,20.996,13.1961)">
                <path d="M0,2.873C-0.068,2.873 -0.136,2.832 -0.164,2.764C-0.201,2.673 -0.158,2.569 -0.068,2.532L5.873,0.038C5.965,0 6.067,0.043 6.105,0.133C6.145,0.224 6.102,0.328 6.012,0.366L0.068,2.859C0.047,2.868 0.022,2.873 0,2.873" style="fill:rgb(101,101,106);fill-rule:nonzero;stroke:rgb(101,101,106);stroke-width:0.37px;stroke-linecap:butt;stroke-miterlimit:1.41421;"/>
            </g>
            <g transform="matrix(1,0,0,1,24.4159,19.8019)">
                <path d="M0,4.172C-0.043,4.172 -0.086,4.157 -0.118,4.126L-4.315,0.329C-4.389,0.263 -4.395,0.151 -4.328,0.078C-4.263,0.005 -4.149,0 -4.077,0.065L0.119,3.862C0.191,3.928 0.197,4.041 0.132,4.114C0.097,4.152 0.049,4.172 0,4.172" style="fill:rgb(101,101,106);fill-rule:nonzero;stroke:rgb(101,101,106);stroke-width:0.37px;stroke-linecap:butt;stroke-miterlimit:1.41421;"/>
            </g>
            <g transform="matrix(1,0,0,1,13.9003,15.241)">
                <path d="M0,1.106C-0.021,1.106 -0.043,1.102 -0.063,1.094L-1.934,0.367C-2.024,0.332 -2.069,0.229 -2.034,0.137C-2,0.046 -1.896,0 -1.805,0.036L0.064,0.763C0.155,0.798 0.201,0.901 0.165,0.993C0.139,1.063 0.071,1.106 0,1.106" style="fill:rgb(101,101,106);fill-rule:nonzero;stroke:rgb(101,101,106);stroke-width:0.37px;stroke-linecap:butt;stroke-miterlimit:1.41421;"/>
            </g>
            <g transform="matrix(1,0,0,1,9.8593,19.417)">
                <path d="M0,3.885C-0.054,3.885 -0.105,3.861 -0.142,3.815C-0.2,3.737 -0.187,3.625 -0.107,3.566L4.492,0.06C4.57,0 4.683,0.015 4.741,0.094C4.802,0.172 4.785,0.283 4.707,0.343L0.107,3.848C0.075,3.873 0.037,3.885 0,3.885" style="fill:rgb(101,101,106);fill-rule:nonzero;stroke:rgb(101,101,106);stroke-width:0.37px;stroke-linecap:butt;stroke-miterlimit:1.41421;"/>
            </g>
            <g transform="matrix(1,0,0,1,16.6015,27.3503)">
                <path d="M0,-2.183C-0.602,-2.183 -1.091,-1.693 -1.091,-1.092C-1.091,-0.49 -0.602,0 0,0C0.603,0 1.093,-0.49 1.093,-1.092C1.093,-1.693 0.603,-2.183 0,-2.183M0,0.355C-0.797,0.355 -1.445,-0.294 -1.445,-1.092C-1.445,-1.889 -0.797,-2.538 0,-2.538C0.799,-2.538 1.446,-1.889 1.446,-1.092C1.446,-0.294 0.799,0.355 0,0.355" style="fill:rgb(101,101,106);fill-rule:nonzero;stroke:rgb(101,101,106);stroke-width:0.37px;stroke-linecap:butt;stroke-miterlimit:1.41421;"/>
            </g>
            <g transform="matrix(1,0,0,1,16.9901,24.0977)">
                <path d="M0,-2.092C-0.005,-2.092 -0.01,-2.092 -0.016,-2.093C-0.112,-2.101 -0.186,-2.187 -0.177,-2.285L-0.115,-2.992C-0.106,-3.09 -0.022,-3.162 0.076,-3.154C0.175,-3.146 0.246,-3.06 0.237,-2.962L0.178,-2.255C0.17,-2.162 0.092,-2.092 0,-2.092M-0.271,1.07C-0.276,1.07 -0.281,1.069 -0.286,1.069C-0.385,1.06 -0.456,0.974 -0.448,0.877L-0.269,-1.223C-0.26,-1.321 -0.176,-1.393 -0.075,-1.385C0.021,-1.377 0.095,-1.291 0.087,-1.193L-0.095,0.908C-0.104,1 -0.181,1.07 -0.271,1.07" style="fill:rgb(101,101,106);fill-rule:nonzero;stroke:rgb(101,101,106);stroke-width:0.37px;stroke-linecap:butt;stroke-miterlimit:1.41421;"/>
            </g>
            <g transform="matrix(1,0,0,1,24.8495,20.551)">
                <path d="M0,-2.142C-0.149,-2.142 -0.3,-2.111 -0.44,-2.048C-0.708,-1.93 -0.913,-1.716 -1.018,-1.444C-1.233,-0.883 -0.953,-0.249 -0.394,-0.033C0.168,0.185 0.802,-0.096 1.02,-0.657C1.235,-1.218 0.955,-1.851 0.395,-2.068C0.267,-2.118 0.134,-2.142 0,-2.142M-0.002,0.396C-0.175,0.396 -0.351,0.365 -0.521,0.299C-1.265,0.011 -1.636,-0.828 -1.349,-1.572C-1.21,-1.932 -0.937,-2.217 -0.585,-2.373C-0.23,-2.53 0.161,-2.538 0.521,-2.399C1.267,-2.112 1.638,-1.273 1.351,-0.529C1.128,0.044 0.579,0.396 -0.002,0.396" style="fill:rgb(101,101,106);fill-rule:nonzero;stroke:rgb(101,101,106);stroke-width:0.37px;stroke-linecap:butt;stroke-miterlimit:1.41421;"/>
            </g>
            <g transform="matrix(1,0,0,1,23.5809,18.2224)">
                <path d="M0,1.086C-0.017,1.086 -0.032,1.084 -0.05,1.079L-2.49,0.367C-2.585,0.34 -2.64,0.241 -2.611,0.147C-2.585,0.053 -2.486,0 -2.392,0.026L0.051,0.738C0.145,0.766 0.197,0.864 0.171,0.958C0.147,1.036 0.077,1.086 0,1.086" style="fill:rgb(101,101,106);fill-rule:nonzero;stroke:rgb(101,101,106);stroke-width:0.37px;stroke-linecap:butt;stroke-miterlimit:1.41421;"/>
            </g>
            <g transform="matrix(1,0,0,1,9.1854,8.553)">
                <path d="M0,-2.041C-0.278,-2.041 -0.559,-1.935 -0.771,-1.722C-1.195,-1.296 -1.195,-0.604 -0.771,-0.179C-0.358,0.233 0.359,0.233 0.771,-0.179C1.197,-0.604 1.197,-1.296 0.771,-1.722C0.561,-1.935 0.279,-2.041 0,-2.041M0,0.496C-0.386,0.496 -0.749,0.346 -1.021,0.072C-1.586,-0.492 -1.586,-1.409 -1.021,-1.973C-0.458,-2.537 0.459,-2.537 1.023,-1.973C1.588,-1.409 1.588,-0.492 1.023,0.072C0.75,0.346 0.388,0.496 0,0.496" style="fill:rgb(101,101,106);fill-rule:nonzero;stroke:rgb(101,101,106);stroke-width:0.37px;stroke-linecap:butt;stroke-miterlimit:1.41421;"/>
            </g>
            <g transform="matrix(1,0,0,1,10.747,13.6565)">
                <path d="M0,-4.205C-0.05,-4.205 -0.1,-4.226 -0.135,-4.267L-0.597,-4.806C-0.66,-4.88 -0.651,-4.993 -0.577,-5.057C-0.503,-5.12 -0.391,-5.111 -0.326,-5.037L0.136,-4.498C0.199,-4.424 0.19,-4.312 0.116,-4.248C0.082,-4.219 0.041,-4.205 0,-4.205M3.238,-0.433C3.188,-0.433 3.14,-0.454 3.104,-0.495L0.328,-3.728C0.266,-3.803 0.272,-3.914 0.349,-3.978C0.423,-4.041 0.534,-4.034 0.599,-3.959L3.373,-0.726C3.438,-0.651 3.43,-0.539 3.354,-0.475C3.32,-0.447 3.279,-0.433 3.238,-0.433M4.396,0.915C4.346,0.915 4.296,0.894 4.261,0.853L3.798,0.314C3.733,0.24 3.742,0.128 3.816,0.064C3.892,0.001 4.003,0.009 4.066,0.083L4.529,0.622C4.595,0.696 4.585,0.808 4.512,0.872C4.478,0.901 4.437,0.915 4.396,0.915" style="fill:rgb(101,101,106);fill-rule:nonzero;stroke:rgb(101,101,106);stroke-width:0.37px;stroke-linecap:butt;stroke-miterlimit:1.41421;"/>
            </g>
        </g>
        <g id="Isolation-Mode3" serif:id="Isolation Mode" transform="matrix(2.00704,0,0,2.00704,545.386,120.394)">
            <g transform="matrix(1,0,0,1,11.5926,9.1728)">
                <path d="M0,-1.438L3.497,-1.438C3.804,-1.438 4.051,-1.116 4.051,-0.719C4.051,-0.321 3.804,0 3.497,0L-10.767,0C-11.071,0 -11.318,-0.321 -11.318,-0.719C-11.318,-1.116 -11.071,-1.438 -10.767,-1.438L0,-1.438Z" style="fill:none;stroke:rgb(101,101,106);stroke-width:0.66px;stroke-miterlimit:10;"/>
            </g>
            <g transform="matrix(1,0,0,1,2.0691,22.9796)">
                <path d="M0,-12.862L4.004,-8.065C4.275,-7.738 4.478,-7.359 4.596,-6.95C4.676,-6.674 4.716,-6.388 4.716,-6.1L4.716,0L7.062,-2.208L7.062,-6.1C7.062,-6.388 7.104,-6.674 7.184,-6.95C7.301,-7.359 7.502,-7.738 7.774,-8.065L11.778,-12.862" style="fill:none;stroke:rgb(101,101,106);stroke-width:0.66px;stroke-miterlimit:10;"/>
            </g>
            <g transform="matrix(1,0,0,1,2.9627,4.0244)">
                <path d="M0,-0.001C0,0.493 -0.4,0.894 -0.895,0.894C-1.388,0.894 -1.788,0.493 -1.788,-0.001C-1.788,-0.495 -1.388,-0.895 -0.895,-0.895C-0.4,-0.895 0,-0.495 0,-0.001" style="fill:rgb(187,219,112);fill-rule:nonzero;"/>
            </g>
            <g transform="matrix(1,0,0,1,6.8025,4.0244)">
                <path d="M0,-0.001C0,0.493 -0.4,0.894 -0.896,0.894C-1.39,0.894 -1.789,0.493 -1.789,-0.001C-1.789,-0.495 -1.39,-0.895 -0.896,-0.895C-0.4,-0.895 0,-0.495 0,-0.001" style="fill:rgb(187,219,112);fill-rule:nonzero;"/>
            </g>
            <g transform="matrix(1,0,0,1,8.8523,0.894)">
                <path d="M0,0C0,0.494 -0.399,0.894 -0.895,0.894C-1.389,0.894 -1.788,0.494 -1.788,0C-1.788,-0.494 -1.389,-0.894 -0.895,-0.894C-0.399,-0.894 0,-0.494 0,0" style="fill:rgb(187,219,112);fill-rule:nonzero;"/>
            </g>
            <g transform="matrix(1,0,0,1,10.6404,4.9169)">
                <path d="M0,0.001C0,0.495 -0.399,0.895 -0.895,0.895C-1.388,0.895 -1.788,0.495 -1.788,0.001C-1.788,-0.493 -1.388,-0.894 -0.895,-0.894C-0.399,-0.894 0,-0.493 0,0.001" style="fill:rgb(187,219,112);fill-rule:nonzero;"/>
            </g>
            <g transform="matrix(1,0,0,1,13.8475,2.6816)">
                <path d="M0,0.001C0,0.495 -0.399,0.895 -0.895,0.895C-1.388,0.895 -1.788,0.495 -1.788,0.001C-1.788,-0.493 -1.388,-0.894 -0.895,-0.894C-0.399,-0.894 0,-0.493 0,0.001" style="fill:rgb(187,219,112);fill-rule:nonzero;"/>
            </g>
        </g>
        <g id="Isolation-Mode4" serif:id="Isolation Mode" transform="matrix(1.93713,0,0,1.93713,792.078,572.841)">
            <g transform="matrix(1,0,0,1,4.0361,0.3925)">
                <path d="M0,6.171L0,0C0,-0.217 0.176,-0.392 0.393,-0.392C0.608,-0.392 0.784,-0.217 0.784,0L0.784,6.171C0.784,6.388 0.608,6.563 0.393,6.563C0.176,6.563 0,6.388 0,6.171" style="fill:rgb(253,163,72);fill-rule:nonzero;"/>
            </g>
            <g transform="matrix(1,0,0,1,8.0723,0.0004)">
                <path d="M0,5.361L0,5.27L0,0.392C0,0.174 0.177,0 0.394,0C0.609,0 0.784,0.174 0.784,0.392L0.784,4.904L0,5.361Z" style="fill:rgb(253,163,72);fill-rule:nonzero;"/>
            </g>
            <g transform="matrix(1,0,0,1,8.8565,10.5489)">
                <path d="M0,-4.043L0,-0.393C0,-0.176 -0.175,0 -0.392,0C-0.607,0 -0.783,-0.176 -0.783,-0.393L-0.783,-3.631L0,-4.043Z" style="fill:rgb(253,163,72);fill-rule:nonzero;"/>
            </g>
            <g transform="matrix(1,0,0,1,0,0.3923)">
                <path d="M0,8.054L0,0C0,-0.217 0.176,-0.392 0.393,-0.392C0.608,-0.392 0.784,-0.217 0.784,0L0.784,8.054C0.784,8.27 0.608,8.446 0.393,8.446C0.176,8.446 0,8.27 0,8.054" style="fill:rgb(253,163,72);fill-rule:nonzero;"/>
            </g>
            <g transform="matrix(1,0,0,1,0.0049,11.2757)">
                <path d="M0,1.947L0,0.001C0,-0.216 0.176,-0.392 0.393,-0.392C0.608,-0.392 0.784,-0.216 0.784,0.001L0.784,1.947C0.784,2.164 0.608,2.339 0.393,2.339C0.176,2.339 0,2.164 0,1.947" style="fill:rgb(253,163,72);fill-rule:nonzero;"/>
            </g>
            <g transform="matrix(1,0,0,1,3.9873,8.2904)">
                <path d="M0,1.945L0,0C0,-0.217 0.176,-0.393 0.393,-0.393C0.608,-0.393 0.783,-0.217 0.783,0L0.783,1.945C0.783,2.162 0.608,2.338 0.393,2.338C0.176,2.338 0,2.162 0,1.945" style="fill:rgb(253,163,72);fill-rule:nonzero;"/>
            </g>
            <g transform="matrix(1,0,0,1,12.8936,7.631)">
                <path d="M0,-1.171L0,-0.095C0,0.122 -0.176,0.297 -0.393,0.297C-0.608,0.297 -0.783,0.122 -0.783,-0.095L-0.783,-1.468L0,-1.275L0,-1.171" style="fill:rgb(253,163,72);fill-rule:nonzero;"/>
            </g>
            <g transform="matrix(1,0,0,1,12.1094,0.297)">
                <path d="M0,4.287L0,0.096C0,-0.121 0.176,-0.297 0.393,-0.297C0.608,-0.297 0.784,-0.121 0.784,0.096L0.778,4.584L0,4.287Z" style="fill:rgb(253,163,72);fill-rule:nonzero;"/>
            </g>
            <g transform="matrix(1,0,0,1,12.1084,9.4178)">
                <path d="M0,3.633L0,0C0,-0.217 0.177,-0.392 0.393,-0.392C0.608,-0.392 0.784,-0.217 0.784,0L0.784,3.633C0.784,3.85 0.608,4.025 0.393,4.025C0.177,4.025 0,3.85 0,3.633" style="fill:rgb(253,163,72);fill-rule:nonzero;"/>
            </g>
            <g transform="matrix(1,0,0,1,14.5479,14.7055)">
                <path d="M0,-0.224L1.033,0.809L1.824,0.019L0.79,-1.015L0,-0.224ZM1.033,1.272C0.984,1.272 0.937,1.254 0.897,1.214L-0.406,-0.089C-0.48,-0.163 -0.48,-0.286 -0.406,-0.36L0.654,-1.421C0.729,-1.496 0.852,-1.496 0.927,-1.421L2.23,-0.118C2.307,-0.041 2.307,0.08 2.23,0.154L1.17,1.214C1.133,1.254 1.082,1.272 1.033,1.272" style="fill:rgb(101,101,106);fill-rule:nonzero;stroke:rgb(101,101,106);stroke-width:0.28px;stroke-linecap:butt;stroke-miterlimit:1.41421;"/>
            </g>
            <g transform="matrix(1,0,0,1,15.5342,18.1695)">
                <path d="M0,-2.065L3.295,1.23C3.689,1.623 4.329,1.623 4.724,1.23C5.116,0.835 5.116,0.197 4.724,-0.197L1.428,-3.493L0,-2.065ZM4.01,1.909C3.652,1.909 3.297,1.773 3.024,1.5L-0.406,-1.93C-0.441,-1.965 -0.463,-2.014 -0.463,-2.065C-0.463,-2.117 -0.441,-2.166 -0.406,-2.201L1.292,-3.899C1.366,-3.974 1.488,-3.974 1.562,-3.899L4.994,-0.468C5.537,0.075 5.537,0.957 4.994,1.5C4.724,1.773 4.365,1.909 4.01,1.909" style="fill:rgb(101,101,106);fill-rule:nonzero;stroke:rgb(101,101,106);stroke-width:0.28px;stroke-linecap:butt;stroke-miterlimit:1.41421;"/>
            </g>
            <g transform="matrix(1,0,0,1,10.7451,14.1243)">
                <path d="M0,-8.01C-1.009,-8.01 -2.019,-7.626 -2.787,-6.858C-4.322,-5.322 -4.322,-2.822 -2.787,-1.283C-1.25,0.253 1.25,0.253 2.787,-1.283C4.324,-2.822 4.324,-5.322 2.787,-6.858C2.02,-7.625 1.011,-8.01 0,-8.01M0,0.252C-1.106,0.252 -2.215,-0.169 -3.058,-1.013C-4.743,-2.698 -4.743,-5.443 -3.058,-7.128C-1.371,-8.815 1.372,-8.815 3.06,-7.128C4.744,-5.443 4.744,-2.698 3.06,-1.013C2.216,-0.169 1.107,0.252 0,0.252M-3.896,-7.967L-3.893,-7.967L-3.896,-7.967ZM0,-9.389C-1.421,-9.389 -2.756,-8.836 -3.761,-7.831C-4.766,-6.826 -5.317,-5.491 -5.317,-4.072C-5.317,-2.65 -4.766,-1.314 -3.761,-0.31C-1.687,1.763 1.687,1.763 3.762,-0.31C4.767,-1.314 5.319,-2.65 5.319,-4.072C5.319,-5.491 4.767,-6.826 3.762,-7.831C2.758,-8.836 1.422,-9.389 0,-9.389M0,1.629C-1.46,1.629 -2.92,1.073 -4.031,-0.038C-5.108,-1.115 -5.701,-2.547 -5.701,-4.072C-5.701,-5.594 -5.108,-7.027 -4.031,-8.103C-2.955,-9.18 -1.521,-9.773 0,-9.773C1.523,-9.773 2.955,-9.18 4.032,-8.103C5.109,-7.027 5.702,-5.594 5.702,-4.072C5.702,-2.547 5.109,-1.115 4.032,-0.038C2.922,1.073 1.46,1.629 0,1.629" style="fill:rgb(101,101,106);fill-rule:nonzero;stroke:rgb(101,101,106);stroke-width:0.28px;stroke-linecap:butt;stroke-miterlimit:1.41421;"/>
            </g>
        </g>
        <g id="Isolation-Mode5" serif:id="Isolation Mode" transform="matrix(1.88134,0,0,1.88134,534.432,715.206)">
            <g transform="matrix(1,0,0,1,15.2583,0.1129)">
                <path d="M0,8.014C-0.05,8.014 -0.1,7.993 -0.138,7.954C-0.211,7.879 -0.21,7.758 -0.134,7.685L7.688,0.075C7.766,0 7.887,0.002 7.96,0.077C8.033,0.154 8.031,0.276 7.956,0.349L0.135,7.959C0.097,7.994 0.049,8.014 0,8.014" style="fill:rgb(101,101,106);fill-rule:nonzero;stroke:rgb(101,101,106);stroke-width:0.28px;stroke-linecap:butt;stroke-miterlimit:1.41421;"/>
            </g>
            <g transform="matrix(1,0,0,1,13.0263,5.0173)">
                <path d="M0,3.717C-0.034,3.717 -0.068,3.708 -0.1,3.69L-5.538,0.383C-5.629,0.327 -5.393,0.473 -5.339,0.383C-5.283,0.293 -5.43,0 -5.339,0.055L0.1,3.362C0.19,3.417 0.219,3.533 0.164,3.625C0.128,3.685 0.064,3.717 0,3.717" style="fill:rgb(101,101,106);fill-rule:nonzero;stroke:rgb(101,101,106);stroke-width:0.28px;stroke-linecap:butt;stroke-miterlimit:1.41421;"/>
            </g>
            <g transform="matrix(1,0,0,1,2.0966,5.3663)">
                <path d="M0,4.452C-0.046,4.452 -0.092,4.434 -0.128,4.403C-0.207,4.332 -0.214,4.211 -0.143,4.132L3.5,0.085C3.571,0.006 3.692,0 3.771,0.07C3.85,0.14 3.856,0.263 3.785,0.342L0.143,4.389C0.104,4.431 0.053,4.452 0,4.452" style="fill:rgb(101,101,106);fill-rule:nonzero;stroke:rgb(101,101,106);stroke-width:0.28px;stroke-linecap:butt;stroke-miterlimit:1.41421;"/>
            </g>
            <g transform="matrix(1,0,0,1,23.3305,0.0002)">
                <path d="M0,1.862L-0.002,1.862C-0.107,1.861 -0.191,1.774 -0.19,1.668L-0.176,0.399L-1.444,0.383C-1.551,0.383 -1.636,0.296 -1.635,0.189C-1.633,0.085 -1.548,0 -1.441,0L-1.439,0L0.021,0.018C0.126,0.019 0.212,0.106 0.211,0.212L0.192,1.673C0.19,1.778 0.105,1.862 0,1.862" style="fill:rgb(101,101,106);fill-rule:nonzero;stroke:rgb(101,101,106);stroke-width:0.28px;stroke-linecap:butt;stroke-miterlimit:1.41421;"/>
            </g>
            <g transform="matrix(1,0,0,1,18.1001,13.5208)">
                <path d="M0,-0.224L1.033,0.809L1.823,0.019L0.79,-1.015L0,-0.224ZM1.033,1.272C0.984,1.272 0.937,1.254 0.897,1.214L-0.406,-0.089C-0.481,-0.163 -0.481,-0.286 -0.406,-0.36L0.654,-1.421C0.729,-1.496 0.852,-1.496 0.927,-1.421L2.23,-0.118C2.307,-0.041 2.307,0.08 2.23,0.154L1.169,1.214C1.133,1.254 1.082,1.272 1.033,1.272" style="fill:rgb(101,101,106);fill-rule:nonzero;stroke:rgb(101,101,106);stroke-width:0.28px;stroke-linecap:butt;stroke-miterlimit:1.41421;"/>
            </g>
            <g transform="matrix(1,0,0,1,19.0864,16.9849)">
                <path d="M0,-2.065L3.295,1.23C3.688,1.623 4.329,1.623 4.724,1.23C5.116,0.835 5.116,0.197 4.724,-0.197L1.428,-3.493L0,-2.065ZM4.01,1.909C3.652,1.909 3.297,1.773 3.024,1.5L-0.406,-1.93C-0.442,-1.965 -0.463,-2.014 -0.463,-2.065C-0.463,-2.117 -0.442,-2.166 -0.406,-2.201L1.291,-3.899C1.366,-3.974 1.487,-3.974 1.562,-3.899L4.993,-0.468C5.536,0.075 5.536,0.957 4.993,1.5C4.723,1.773 4.365,1.909 4.01,1.909" style="fill:rgb(101,101,106);fill-rule:nonzero;stroke:rgb(101,101,106);stroke-width:0.28px;stroke-linecap:butt;stroke-miterlimit:1.41421;"/>
            </g>
            <g transform="matrix(1,0,0,1,14.2973,12.9396)">
                <path d="M0,-8.01C-1.01,-8.01 -2.019,-7.626 -2.787,-6.858C-4.323,-5.322 -4.323,-2.822 -2.787,-1.283C-1.25,0.253 1.25,0.253 2.787,-1.283C4.323,-2.822 4.323,-5.322 2.787,-6.858C2.02,-7.625 1.01,-8.01 0,-8.01M0,0.252C-1.106,0.252 -2.214,-0.169 -3.058,-1.013C-4.744,-2.698 -4.744,-5.444 -3.058,-7.128C-1.371,-8.815 1.372,-8.815 3.059,-7.128C4.744,-5.444 4.744,-2.698 3.059,-1.013C2.216,-0.169 1.107,0.252 0,0.252M-3.896,-7.967L-3.893,-7.967L-3.896,-7.967ZM0,-9.389C-1.42,-9.389 -2.755,-8.836 -3.761,-7.831C-4.766,-6.826 -5.317,-5.491 -5.317,-4.072C-5.317,-2.65 -4.766,-1.314 -3.761,-0.31C-1.687,1.763 1.687,1.763 3.762,-0.31C4.767,-1.314 5.319,-2.65 5.319,-4.072C5.319,-5.491 4.767,-6.826 3.762,-7.831C2.757,-8.836 1.422,-9.389 0,-9.389M0,1.629C-1.459,1.63 -2.919,1.073 -4.032,-0.038C-5.108,-1.115 -5.702,-2.547 -5.702,-4.072C-5.702,-5.594 -5.108,-7.027 -4.032,-8.103C-2.955,-9.18 -1.522,-9.773 0,-9.773C1.523,-9.773 2.955,-9.18 4.032,-8.103C5.109,-7.027 5.702,-5.594 5.702,-4.072C5.702,-2.547 5.109,-1.115 4.032,-0.038C2.922,1.073 1.461,1.629 0,1.629" style="fill:rgb(101,101,106);fill-rule:nonzero;stroke:rgb(101,101,106);stroke-width:0.28px;stroke-linecap:butt;stroke-miterlimit:1.41421;"/>
            </g>
            <g transform="matrix(1,0,0,1,14.4624,7.3044)">
                <path d="M0,2.926C-0.807,2.926 -1.462,2.27 -1.462,1.463C-1.462,0.655 -0.807,0 0,0C0.809,0 1.465,0.655 1.465,1.463C1.465,2.27 0.809,2.926 0,2.926" style="fill:rgb(206,138,190);fill-rule:nonzero;"/>
            </g>
            <g transform="matrix(1,0,0,1,6.6728,5.6453)">
                <path d="M0,-2.158C-0.596,-2.158 -1.079,-1.675 -1.079,-1.079C-1.079,-0.483 -0.596,0.001 0,0.001C0.595,0.001 1.079,-0.483 1.079,-1.079C1.079,-1.675 0.595,-2.158 0,-2.158M0,0.384C-0.807,0.384 -1.463,-0.272 -1.463,-1.079C-1.463,-1.887 -0.807,-2.542 0,-2.542C0.807,-2.542 1.463,-1.887 1.463,-1.079C1.463,-0.272 0.807,0.384 0,0.384" style="fill:rgb(101,101,106);fill-rule:nonzero;stroke:rgb(101,101,106);stroke-width:0.28px;stroke-linecap:butt;stroke-miterlimit:1.41421;"/>
            </g>
            <g transform="matrix(1,0,0,1,1.4629,11.6951)">
                <path d="M0,-2.16C-0.595,-2.16 -1.079,-1.676 -1.079,-1.08C-1.079,-0.485 -0.595,-0.001 0,-0.001C0.596,-0.001 1.08,-0.485 1.08,-1.08C1.08,-1.676 0.596,-2.16 0,-2.16M0,0.383C-0.807,0.383 -1.463,-0.273 -1.463,-1.08C-1.463,-1.888 -0.807,-2.543 0,-2.543C0.807,-2.543 1.463,-1.888 1.463,-1.08C1.463,-0.273 0.807,0.383 0,0.383" style="fill:rgb(101,101,106);fill-rule:nonzero;stroke:rgb(101,101,106);stroke-width:0.28px;stroke-linecap:butt;stroke-miterlimit:1.41421;"/>
            </g>
        </g>
        <g id="Isolation-Mode6" serif:id="Isolation Mode" transform="matrix(2.1098,0,0,2.1098,291.906,262.544)">
            <g transform="matrix(1,0,0,1,1.4273,1.2013)">
                <path d="M0,0.534C-0.066,0.534 -0.132,0.508 -0.182,0.459C-0.229,0.41 -0.257,0.346 -0.257,0.277C-0.257,0.26 -0.255,0.244 -0.252,0.227C-0.248,0.21 -0.243,0.195 -0.236,0.18C-0.229,0.164 -0.223,0.149 -0.212,0.135C-0.204,0.121 -0.193,0.108 -0.182,0.096C-0.086,0.002 0.087,0 0.184,0.096C0.193,0.108 0.205,0.121 0.214,0.135C0.225,0.149 0.231,0.164 0.238,0.18C0.245,0.195 0.25,0.21 0.253,0.227C0.255,0.244 0.257,0.26 0.257,0.277C0.257,0.346 0.231,0.41 0.184,0.459C0.134,0.508 0.068,0.534 0,0.534" style="fill:rgb(101,101,106);fill-rule:nonzero;stroke:rgb(101,101,106);stroke-width:0.25px;stroke-linecap:butt;stroke-miterlimit:1.41421;"/>
            </g>
            <g transform="matrix(1,0,0,1,3.2486,1.4785)">
                <path d="M0,0C0,-0.142 0.114,-0.257 0.257,-0.257C0.397,-0.257 0.514,-0.142 0.514,0C0.514,0.142 0.397,0.257 0.257,0.257C0.114,0.257 0,0.142 0,0" style="fill:rgb(101,101,106);fill-rule:nonzero;stroke:rgb(101,101,106);stroke-width:0.25px;stroke-linecap:butt;stroke-miterlimit:1.41421;"/>
            </g>
            <g transform="matrix(1,0,0,1,5.5816,1.2013)">
                <path d="M0,0.534C-0.068,0.534 -0.134,0.508 -0.182,0.459C-0.229,0.41 -0.257,0.346 -0.257,0.277C-0.257,0.26 -0.255,0.244 -0.252,0.227C-0.248,0.21 -0.243,0.195 -0.238,0.18C-0.231,0.164 -0.223,0.149 -0.214,0.135C-0.204,0.121 -0.193,0.108 -0.182,0.096C-0.087,0.002 0.086,0 0.182,0.096C0.193,0.108 0.204,0.121 0.214,0.135C0.223,0.149 0.231,0.164 0.236,0.18C0.243,0.195 0.248,0.21 0.252,0.227C0.255,0.244 0.257,0.26 0.257,0.277C0.257,0.346 0.229,0.41 0.182,0.459C0.157,0.483 0.128,0.501 0.098,0.515C0.066,0.527 0.034,0.534 0,0.534" style="fill:rgb(101,101,106);fill-rule:nonzero;stroke:rgb(101,101,106);stroke-width:0.25px;stroke-linecap:butt;stroke-miterlimit:1.41421;"/>
            </g>
            <g transform="matrix(1,0,0,1,0,-14.7098)">
                <path d="M0.528,17.163L17.093,17.163L17.093,15.224L0.528,15.224L0.528,17.163ZM17.35,17.677L0.271,17.677C0.129,17.677 0.014,17.561 0.014,17.42L0.014,14.967C0.014,14.824 0.129,14.71 0.271,14.71L17.35,14.71C17.492,14.71 17.607,14.824 17.607,14.967L17.607,17.42C17.607,17.561 17.492,17.677 17.35,17.677" style="fill:rgb(101,101,106);fill-rule:nonzero;stroke:rgb(101,101,106);stroke-width:0.25px;stroke-linecap:butt;stroke-miterlimit:1.41421;"/>
            </g>
            <g transform="matrix(1,0,0,1,5.0503,5.0833)">
                <path d="M0,7.733L7.493,7.733L3.747,1.434L0,7.733ZM7.944,8.246L-0.451,8.246C-0.544,8.246 -0.629,8.197 -0.675,8.116C-0.72,8.036 -0.72,7.938 -0.672,7.858L3.526,0.801C3.572,0.723 3.656,0.675 3.747,0.675C3.837,0.675 3.921,0.723 3.968,0.801L8.165,7.858C8.213,7.938 8.214,8.036 8.168,8.116C8.122,8.197 8.037,8.246 7.944,8.246M-2.121,8.921L9.614,8.921L3.747,-0.943L-2.121,8.921ZM10.065,9.435L-2.572,9.435C-2.665,9.435 -2.75,9.385 -2.796,9.305C-2.841,9.225 -2.841,9.126 -2.793,9.047L3.526,-1.577C3.572,-1.655 3.656,-1.702 3.747,-1.702C3.837,-1.702 3.921,-1.655 3.968,-1.577L10.286,9.047C10.334,9.126 10.335,9.225 10.289,9.305C10.243,9.385 10.158,9.435 10.065,9.435" style="fill:rgb(255,66,41);fill-rule:nonzero;"/>
            </g>
            <g transform="matrix(1,0,0,1,0.5142,2.939)">
                <path d="M0,14.225L14.569,14.225L14.569,12.544C14.569,12.403 14.685,12.288 14.826,12.288L16.565,12.288L16.565,0.001L0,0.001L0,14.225ZM14.826,14.738L-0.257,14.738C-0.398,14.738 -0.514,14.623 -0.514,14.482L-0.514,-0.256C-0.514,-0.398 -0.398,-0.513 -0.257,-0.513L16.822,-0.513C16.964,-0.513 17.079,-0.398 17.079,-0.256L17.079,12.544C17.079,12.686 16.964,12.801 16.822,12.801L15.083,12.801L15.083,14.482C15.083,14.623 14.968,14.738 14.826,14.738" style="fill:rgb(101,101,106);fill-rule:nonzero;stroke:rgb(101,101,106);stroke-width:0.25px;stroke-linecap:butt;stroke-miterlimit:1.41421;"/>
            </g>
            <g transform="matrix(1,0,0,1,15.5972,17.1632)">
                <path d="M0,-1.423L0,-0.35L1.106,-1.423L0,-1.423ZM-0.257,0.514C-0.291,0.514 -0.324,0.508 -0.356,0.494C-0.452,0.453 -0.514,0.361 -0.514,0.258L-0.514,-1.68C-0.514,-1.821 -0.398,-1.937 -0.257,-1.937L1.739,-1.937C1.844,-1.937 1.937,-1.873 1.978,-1.776C2.017,-1.679 1.993,-1.569 1.918,-1.496L-0.078,0.442C-0.127,0.489 -0.191,0.514 -0.257,0.514" style="fill:rgb(101,101,106);fill-rule:nonzero;stroke:rgb(101,101,106);stroke-width:0.25px;stroke-linecap:butt;stroke-miterlimit:1.41421;"/>
            </g>
            <g transform="matrix(1,0,0,1,8.8609,8.1901)">
                <path d="M0,3.302C-0.143,3.302 -0.257,3.187 -0.257,3.045L-0.257,0.256C-0.257,0.114 -0.143,0 0,0C0.142,0 0.256,0.114 0.256,0.256L0.256,3.045C0.256,3.187 0.142,3.302 0,3.302" style="fill:rgb(255,66,41);fill-rule:nonzero;"/>
            </g>
            <g transform="matrix(1,0,0,1,8.604,12.0209)">
                <path d="M0,0C0,-0.142 0.115,-0.257 0.257,-0.257C0.397,-0.257 0.514,-0.142 0.514,0C0.514,0.14 0.397,0.257 0.257,0.257C0.115,0.257 0,0.14 0,0" style="fill:rgb(255,66,41);fill-rule:nonzero;"/>
            </g>
        </g>
    </g>
</svg>
