<?xml version="1.0" encoding="UTF-8" standalone="no"?>
<!DOCTYPE svg PUBLIC "-//W3C//DTD SVG 1.1//EN" "http://www.w3.org/Graphics/SVG/1.1/DTD/svg11.dtd">
<svg width="100%" height="100%" viewBox="0 0 380 269" version="1.1" xmlns="http://www.w3.org/2000/svg" xmlns:xlink="http://www.w3.org/1999/xlink" xml:space="preserve" xmlns:serif="http://www.serif.com/" style="fill-rule:evenodd;clip-rule:evenodd;stroke-linecap:round;stroke-linejoin:round;stroke-miterlimit:1.5;">
    <g transform="matrix(1,0,0,1,-37,-38)">
        <g id="Left-box" serif:id="Left box" transform="matrix(1,0,0,1.02638,0,-1.03098)">
            <path d="M416.158,42.008C416.158,41.233 415.842,40.49 415.28,39.941C414.717,39.393 413.954,39.085 413.158,39.085C379.584,39.085 74.868,39.085 41.294,39.085C40.498,39.085 39.735,39.393 39.172,39.941C38.61,40.49 38.294,41.233 38.294,42.008C38.294,70.569 38.294,298.81 38.294,298.81L416.158,298.81C416.158,298.81 416.158,70.569 416.158,42.008Z" style="fill:none;stroke:rgb(210,208,210);stroke-width:0.99px;"/>
        </g>
    </g>
</svg>
