<?xml version="1.0" encoding="UTF-8" standalone="no"?>
<!DOCTYPE svg PUBLIC "-//W3C//DTD SVG 1.1//EN" "http://www.w3.org/Graphics/SVG/1.1/DTD/svg11.dtd">
<svg width="100%" height="100%" viewBox="0 0 250 310" version="1.1" xmlns="http://www.w3.org/2000/svg" xmlns:xlink="http://www.w3.org/1999/xlink" xml:space="preserve" xmlns:serif="http://www.serif.com/" style="fill-rule:evenodd;clip-rule:evenodd;stroke-linejoin:round;stroke-miterlimit:1.41421;">
    <g transform="matrix(1,0,0,1,-908,-918)">
        <g transform="matrix(4.16667,0,0,4.16667,0,0)">
            <g id="Lock">
                <path d="M247.771,245.222L247.771,294.689L222.996,294.689C220.307,294.689 218.126,292.514 218.126,289.826L218.126,250.092C218.126,247.403 220.307,245.222 222.996,245.222L247.771,245.222Z" style="fill:rgb(239,68,35);fill-rule:nonzero;"/>
                <path d="M277.813,250.092L277.813,289.826C277.813,292.514 275.632,294.689 272.949,294.689L247.771,294.689L247.771,245.222L272.949,245.222C275.632,245.222 277.813,247.403 277.813,250.092Z" style="fill:rgb(204,43,38);fill-rule:nonzero;"/>
                <path d="M247.969,256.623C245.288,256.623 243.112,258.796 243.112,261.475C243.112,263.218 244.031,264.742 245.41,265.599L245.41,269.401C245.41,272.784 250.528,272.785 250.528,269.401L250.528,265.599C251.906,264.742 252.826,263.218 252.826,261.475C252.826,258.766 250.616,256.623 247.969,256.623Z" style="fill:rgb(226,242,239);fill-rule:nonzero;"/>
                <path d="M247.772,220.497L247.772,225.989C239.165,226.078 232.396,231.942 232.396,245.229L226.9,245.229C226.9,227.488 237.477,220.581 247.772,220.497Z" style="fill:rgb(239,68,35);fill-rule:nonzero;"/>
                <path d="M269.038,245.229L263.544,245.229C263.544,231.452 256.312,225.989 247.968,225.989L247.772,225.989L247.772,220.497C247.838,220.494 247.902,220.494 247.968,220.494C258.978,220.494 269.038,228.084 269.038,245.229Z" style="fill:rgb(204,43,38);fill-rule:nonzero;"/>
            </g>
        </g>
    </g>
</svg>
