<?xml version="1.0" encoding="UTF-8" standalone="no"?>
<!DOCTYPE svg PUBLIC "-//W3C//DTD SVG 1.1//EN" "http://www.w3.org/Graphics/SVG/1.1/DTD/svg11.dtd">
<svg width="100%" height="100%" viewBox="0 0 380 269" version="1.1" xmlns="http://www.w3.org/2000/svg" xmlns:xlink="http://www.w3.org/1999/xlink" xml:space="preserve" xmlns:serif="http://www.serif.com/" style="fill-rule:evenodd;clip-rule:evenodd;stroke-linecap:round;stroke-linejoin:round;stroke-miterlimit:1.5;">
    <g transform="matrix(1,0,0,1,-456,-38)">
        <g id="Middle-box" serif:id="Middle box" transform="matrix(1,0,0,1.02638,418.886,-1.03098)">
            <path d="M416.158,42.008C416.158,41.233 415.842,40.49 415.28,39.941C414.717,39.393 413.954,39.085 413.158,39.085C379.584,39.085 74.868,39.085 41.294,39.085C40.498,39.085 39.735,39.393 39.172,39.941C38.61,40.49 38.294,41.233 38.294,42.008C38.294,68.663 38.294,269.233 38.294,295.887C38.294,296.662 38.61,297.406 39.172,297.954C39.735,298.502 40.498,298.81 41.294,298.81C74.868,298.81 379.584,298.81 413.158,298.81C413.954,298.81 414.717,298.502 415.28,297.954C415.842,297.406 416.158,296.662 416.158,295.887C416.158,269.233 416.158,68.663 416.158,42.008Z" style="fill:none;stroke:rgb(210,208,210);stroke-width:0.99px;"/>
        </g>
    </g>
</svg>
