<?xml version="1.0" encoding="UTF-8" standalone="no"?>
<!DOCTYPE svg PUBLIC "-//W3C//DTD SVG 1.1//EN" "http://www.w3.org/Graphics/SVG/1.1/DTD/svg11.dtd">
<svg width="100%" height="100%" viewBox="0 0 53 131" version="1.1" xmlns="http://www.w3.org/2000/svg" xmlns:xlink="http://www.w3.org/1999/xlink" xml:space="preserve" xmlns:serif="http://www.serif.com/" style="fill-rule:evenodd;clip-rule:evenodd;stroke-linejoin:round;stroke-miterlimit:1.41421;">
    <g transform="matrix(1,0,0,1,-999,-380)">
        <g id="Our-History-Bullets" serif:id="Our History Bullets">
            <path d="M1007.01,384.484C1007.01,386.556 1005.33,388.234 1003.26,388.234C1001.19,388.234 999.507,386.556 999.507,384.484C999.507,382.413 1001.19,380.734 1003.26,380.734C1005.33,380.734 1007.01,382.413 1007.01,384.484Z" style="fill:rgb(177,189,49);fill-rule:nonzero;"/>
            <path d="M1032.1,436.484C1032.1,438.556 1030.42,440.234 1028.35,440.234C1026.28,440.234 1024.6,438.556 1024.6,436.484C1024.6,434.413 1026.28,432.734 1028.35,432.734C1030.42,432.734 1032.1,434.413 1032.1,436.484Z" style="fill:rgb(177,189,49);fill-rule:nonzero;"/>
            <path d="M1051.6,506.484C1051.6,508.556 1049.92,510.234 1047.85,510.234C1045.78,510.234 1044.1,508.556 1044.1,506.484C1044.1,504.413 1045.78,502.734 1047.85,502.734C1049.92,502.734 1051.6,504.413 1051.6,506.484Z" style="fill:rgb(177,189,49);fill-rule:nonzero;"/>
        </g>
    </g>
</svg>
