<?xml version="1.0" encoding="UTF-8" standalone="no"?>
<!DOCTYPE svg PUBLIC "-//W3C//DTD SVG 1.1//EN" "http://www.w3.org/Graphics/SVG/1.1/DTD/svg11.dtd">
<svg width="100%" height="100%" viewBox="0 0 225 225" version="1.1" xmlns="http://www.w3.org/2000/svg" xmlns:xlink="http://www.w3.org/1999/xlink" xml:space="preserve" xmlns:serif="http://www.serif.com/" style="fill-rule:evenodd;clip-rule:evenodd;stroke-linecap:round;stroke-linejoin:round;stroke-miterlimit:1.5;">
    <g transform="matrix(1,0,0,1,-767,-161)">
        <g id="Purple" transform="matrix(1,0,0,1,0,-0.612682)">
            <path d="M990.531,169.512C990.531,165.636 987.385,162.49 983.509,162.49L775.03,162.49C771.154,162.49 768.008,165.636 768.008,169.512L768.008,378.212C768.008,382.088 771.154,385.234 775.03,385.234L983.509,385.234C987.385,385.234 990.531,382.088 990.531,378.212L990.531,169.512Z" style="fill:rgb(104,105,107);stroke:rgb(214,222,225);stroke-width:1px;"/>
            <g transform="matrix(0.212432,0,0,0.212432,800.615,192.612)">
                <path d="M113.515,0L6.493,0C2.908,0 0,2.896 0,6.486L0,113.497C0,117.079 2.908,120 6.493,120L113.515,120C117.093,120 120,117.079 120,113.497L120,6.486C120,2.896 117.093,0 113.515,0Z" style="fill:rgb(238,91,98);"/>
            </g>
            <g transform="matrix(0.212432,0,0,0.212432,844.492,192.612)">
                <path d="M113.515,0L6.493,0C2.908,0 0,2.896 0,6.486L0,113.497C0,117.079 2.908,120 6.493,120L113.515,120C117.093,120 120,117.079 120,113.497L120,6.486C120,2.896 117.093,0 113.515,0Z" style="fill:rgb(238,91,98);"/>
            </g>
            <g transform="matrix(0.212432,0,0,0.212432,888.032,192.612)">
                <path d="M113.515,0L6.493,0C2.908,0 0,2.896 0,6.486L0,113.497C0,117.079 2.908,120 6.493,120L113.515,120C117.093,120 120,117.079 120,113.497L120,6.486C120,2.896 117.093,0 113.515,0Z" style="fill:rgb(238,91,98);"/>
            </g>
            <g transform="matrix(0.212432,0,0,0.212432,931.649,192.612)">
                <path d="M113.515,0L6.493,0C2.908,0 0,2.896 0,6.486L0,113.497C0,117.079 2.908,120 6.493,120L113.515,120C117.093,120 120,117.079 120,113.497L120,6.486C120,2.896 117.093,0 113.515,0Z" style="fill:rgb(238,91,98);"/>
            </g>
            <g transform="matrix(0.212432,0,0,0.212432,800.615,244.187)">
                <path d="M113.515,0L6.493,0C2.908,0 0,2.896 0,6.486L0,113.497C0,117.079 2.908,120 6.493,120L113.515,120C117.093,120 120,117.079 120,113.497L120,6.486C120,2.896 117.093,0 113.515,0Z" style="fill:rgb(238,91,98);"/>
            </g>
            <g transform="matrix(0.212432,0,0,0.212432,844.492,244.187)">
                <path d="M113.515,0L6.493,0C2.908,0 0,2.896 0,6.486L0,113.497C0,117.079 2.908,120 6.493,120L113.515,120C117.093,120 120,117.079 120,113.497L120,6.486C120,2.896 117.093,0 113.515,0Z" style="fill:rgb(238,91,98);"/>
            </g>
            <g transform="matrix(0.212432,0,0,0.212432,888.032,244.187)">
                <path d="M113.515,0L6.493,0C2.908,0 0,2.896 0,6.486L0,113.497C0,117.079 2.908,120 6.493,120L113.515,120C117.093,120 120,117.079 120,113.497L120,6.486C120,2.896 117.093,0 113.515,0Z" style="fill:rgb(238,91,98);"/>
            </g>
            <g transform="matrix(0.212432,0,0,0.212432,931.649,244.187)">
                <path d="M113.515,0L6.493,0C2.908,0 0,2.896 0,6.486L0,113.497C0,117.079 2.908,120 6.493,120L113.515,120C117.093,120 120,117.079 120,113.497L120,6.486C120,2.896 117.093,0 113.515,0Z" style="fill:rgb(238,91,98);"/>
            </g>
            <g transform="matrix(0.212432,0,0,0.212432,800.615,294.601)">
                <path d="M113.515,0L6.493,0C2.908,0 0,2.896 0,6.486L0,113.497C0,117.079 2.908,120 6.493,120L113.515,120C117.093,120 120,117.079 120,113.497L120,6.486C120,2.896 117.093,0 113.515,0Z" style="fill:rgb(238,91,98);"/>
            </g>
            <g transform="matrix(0.212432,0,0,0.212432,844.492,294.601)">
                <path d="M113.515,0L6.493,0C2.908,0 0,2.896 0,6.486L0,113.497C0,117.079 2.908,120 6.493,120L113.515,120C117.093,120 120,117.079 120,113.497L120,6.486C120,2.896 117.093,0 113.515,0Z" style="fill:rgb(238,91,98);"/>
            </g>
            <g transform="matrix(0.212432,0,0,0.212432,888.032,294.601)">
                <path d="M113.515,0L6.493,0C2.908,0 0,2.896 0,6.486L0,113.497C0,117.079 2.908,120 6.493,120L113.515,120C117.093,120 120,117.079 120,113.497L120,6.486C120,2.896 117.093,0 113.515,0Z" style="fill:rgb(238,91,98);"/>
            </g>
            <g transform="matrix(0.212432,0,0,0.212432,931.649,294.601)">
                <path d="M113.515,0L6.493,0C2.908,0 0,2.896 0,6.486L0,113.497C0,117.079 2.908,120 6.493,120L113.515,120C117.093,120 120,117.079 120,113.497L120,6.486C120,2.896 117.093,0 113.515,0Z" style="fill:rgb(238,91,98);"/>
            </g>
        </g>
    </g>
</svg>
