<?xml version="1.0" encoding="UTF-8"?>
<svg width="361px" height="206px" viewBox="0 0 361 206" version="1.1" xmlns="http://www.w3.org/2000/svg" xmlns:xlink="http://www.w3.org/1999/xlink">
    <!-- Generator: Sketch 50.2 (55047) - http://www.bohemiancoding.com/sketch -->
    <title>Puzzle Orange</title>
    <desc>Created with Sketch.</desc>
    <defs></defs>
    <g id="Page-1" stroke="none" stroke-width="1" fill="none" fill-rule="evenodd">
        <g id="Panels" transform="translate(-123.000000, -307.000000)" fill="#FE791A" fill-rule="nonzero">
            <g id="Group-17" transform="translate(123.000000, 307.000000)">
                <path d="M319.772947,94.8921465 C323.078327,93.645664 326.660735,92.9636254 330.402518,92.9636254 C347.035744,92.9636254 360.519638,106.440977 360.519638,123.066133 C360.519638,139.691288 347.035744,153.16864 330.402518,153.16864 C326.660735,153.16864 323.078327,152.486601 319.772947,151.240119 L319.772947,205.295274 L39.8608936,205.295274 L39.8608936,152.443696 C36.8046959,153.48757 33.5270893,154.054008 30.1171196,154.054008 C13.4838938,154.054008 0,140.576656 0,123.951501 C0,107.326345 13.4838938,93.8489933 30.1171196,93.8489933 C33.5270893,93.8489933 36.8046959,94.4154316 39.8608936,95.4593054 L39.8608936,41.6122895 L151.093875,41.6122895 C149.624751,38.0664947 148.814003,34.1791353 148.814003,30.1025073 C148.814003,13.4773516 162.297897,0 178.931123,0 C195.564348,0 209.048242,13.4773516 209.048242,30.1025073 C209.048242,34.1791353 208.237494,38.0664947 206.768367,41.61229 L319.772947,41.6122895 L319.772947,94.8921465 Z" id="Puzzle-Orange"></path>
            </g>
        </g>
    </g>
</svg>