<?xml version="1.0" encoding="UTF-8" standalone="no"?>
<!DOCTYPE svg PUBLIC "-//W3C//DTD SVG 1.1//EN" "http://www.w3.org/Graphics/SVG/1.1/DTD/svg11.dtd">
<svg width="100%" height="100%" viewBox="0 0 385 544" version="1.1" xmlns="http://www.w3.org/2000/svg" xmlns:xlink="http://www.w3.org/1999/xlink" xml:space="preserve" xmlns:serif="http://www.serif.com/" style="fill-rule:evenodd;clip-rule:evenodd;stroke-linejoin:round;stroke-miterlimit:1.41421;">
    <g transform="matrix(1,0,0,1,-819,-663)">
        <g transform="matrix(4.16667,0,0,4.16667,0,0)">
            <g id="Second-layer" serif:id="Second layer">
                <g id="Grey">
                    <path d="M205.307,199.524L199.711,204.431C197.789,206.115 196.516,208.956 196.71,211.125L201.291,262.264C202.059,270.849 205.518,277.172 210.923,280.363L210.889,280.362L219.713,285.474L219.531,282.788L222.796,283.153C223.468,274.913 226.222,267.304 228.526,259.24C233.764,236.327 217.121,218.737 205.307,199.524Z" style="fill:rgb(113,115,120);fill-rule:nonzero;"/>
                    <path d="M279.617,159.536C279.12,159.24 278.485,159.168 277.757,159.371L238.734,170.219L205.307,199.524C217.121,218.737 233.764,236.327 228.526,259.24C226.222,267.304 223.468,274.913 222.796,283.153L238.734,284.936L259.832,258.215C269.06,246.527 275.126,231.985 276.178,219.028L280.453,166.357L287.683,164.224L279.617,159.536Z" style="fill:rgb(136,143,152);fill-rule:nonzero;"/>
                    <path d="M197.585,207.267L206.424,212.694L246.826,174.921L238.734,170.219L199.711,204.431C198.84,205.194 198.114,206.199 197.585,207.267Z" style="fill:rgb(160,166,175);fill-rule:nonzero;"/>
                    <path d="M246.826,174.921L207.803,209.133C205.881,210.818 204.608,213.658 204.802,215.828L209.382,266.967C210.434,278.709 216.5,286.247 225.728,287.279L246.826,289.638L267.924,262.918C277.152,251.23 283.218,236.687 284.27,223.73L288.85,167.303C289.044,164.909 287.771,163.539 285.849,164.074L246.826,174.921Z" style="fill:rgb(84,86,91);fill-rule:nonzero;"/>
                </g>
            </g>
        </g>
    </g>
</svg>
