<?xml version="1.0" encoding="UTF-8" standalone="no"?>
<!DOCTYPE svg PUBLIC "-//W3C//DTD SVG 1.1//EN" "http://www.w3.org/Graphics/SVG/1.1/DTD/svg11.dtd">
<svg width="100%" height="100%" viewBox="0 0 237 70" version="1.1" xmlns="http://www.w3.org/2000/svg" xmlns:xlink="http://www.w3.org/1999/xlink" xml:space="preserve" xmlns:serif="http://www.serif.com/" style="fill-rule:evenodd;clip-rule:evenodd;stroke-linejoin:round;stroke-miterlimit:1.41421;">
    <g transform="matrix(1,0,0,1,-678,-129)">
        <g transform="matrix(-0.881227,0,0,0.881227,1520.2,-80.2967)">
            <g transform="matrix(1.06237,0,0,0.945895,19.2218,15.1492)">
                <path d="M881.253,276.705C881.253,287.643 877.383,298.134 870.495,305.867C863.607,313.601 854.265,317.944 844.526,317.941C783.579,317.919 668.177,317.878 668.177,317.878C645.418,317.878 629.268,299.4 629.268,276.64C629.268,253.88 645.418,235.402 668.177,235.402C668.177,235.402 783.608,235.443 844.549,235.465C864.822,235.472 881.253,253.932 881.253,276.7C881.253,276.702 881.253,276.703 881.253,276.705Z" style="fill:rgb(224,222,223);"/>
            </g>
        </g>
    </g>
</svg>
