<?xml version="1.0" encoding="UTF-8" standalone="no"?>
<!DOCTYPE svg PUBLIC "-//W3C//DTD SVG 1.1//EN" "http://www.w3.org/Graphics/SVG/1.1/DTD/svg11.dtd">
<svg width="100%" height="100%" viewBox="0 0 490 193" version="1.1" xmlns="http://www.w3.org/2000/svg" xmlns:xlink="http://www.w3.org/1999/xlink" xml:space="preserve" xmlns:serif="http://www.serif.com/" style="fill-rule:evenodd;clip-rule:evenodd;stroke-miterlimit:10;">
    <g transform="matrix(1,0,0,1,-197,-421)">
        <g transform="matrix(1,0,0,1,0.0477589,0.0477589)">
            <g transform="matrix(1.37407,0,0,-1.37407,281.457,558.505)">
                <path d="M242.704,0L12.141,0C5.46,0 0,5.468 0,12.154L0,47.618C0,54.304 5.46,59.771 12.141,59.771L242.704,59.771C249.377,59.771 254.841,54.304 254.841,47.618L254.841,12.154C254.841,5.468 249.377,0 242.704,0Z" style="fill:none;stroke:rgb(100,101,105);stroke-width:8.01px;"/>
            </g>
            <g transform="matrix(1.37407,0,0,-1.37407,253.03,558.505)">
                <path d="M242.704,0L12.141,0C5.46,0 0,5.468 0,12.154L0,47.618C0,54.304 5.46,59.771 12.141,59.771L242.704,59.771C249.377,59.771 254.841,54.304 254.841,47.618L254.841,12.154C254.841,5.468 249.377,0 242.704,0Z" style="fill:none;stroke:rgb(100,101,105);stroke-width:8.01px;"/>
            </g>
            <g transform="matrix(1.37407,0,0,1.37407,252.521,470.813)">
                <path d="M222.069,29.429L231.061,29.429L231.061,38.436L222.066,38.436L222.066,29.429L213.078,29.429L213.078,20.421L222.069,20.421L222.069,29.429ZM159.357,29.429L159.357,38.436L150.366,38.436L150.366,29.429L159.114,29.429L159.114,20.421L168.109,20.421L168.109,29.429L159.357,29.429ZM204.087,29.429L213.074,29.429L213.074,38.436L204.079,38.436L204.079,29.429L195.091,29.429L195.091,20.421L204.087,20.421L204.087,29.429ZM177.104,29.429L177.104,38.436L168.113,38.436L168.113,29.429L177.101,29.429L177.101,20.421L186.096,20.421L186.096,29.429L177.104,29.429ZM186.1,38.436L186.1,29.429L195.091,29.429L195.091,38.436L186.1,38.436ZM159.114,47.444L159.114,38.44L168.109,38.44L168.109,47.444L159.114,47.444ZM141.37,29.429L141.37,20.421L150.366,20.421L150.366,29.429L141.37,29.429ZM35.06,29.429L35.06,20.421L44.055,20.421L44.055,29.429L35.06,29.429ZM141.37,47.444L141.37,38.44L150.366,38.44L150.366,47.444L141.37,47.444ZM0.371,29.429L0.371,20.421L18.47,20.421L18.47,29.429L0.371,29.429ZM0.371,47.444L0.371,38.44L18.47,38.44L18.47,47.444L0.371,47.444ZM257.8,29.429L257.8,20.421L275.895,20.421L275.895,29.429L257.8,29.429ZM257.8,47.444L257.8,38.44L275.895,38.44L275.895,47.444L257.8,47.444ZM177.101,47.444L177.101,38.44L186.096,38.44L186.096,47.444L177.101,47.444ZM98.409,47.444L98.409,38.44L107.404,38.44L107.404,47.444L98.409,47.444ZM80.662,47.444L80.662,38.44L89.657,38.44L89.657,47.444L80.662,47.444ZM116.399,47.444L116.399,38.44L125.395,38.44L125.395,47.444L116.399,47.444ZM195.091,47.444L195.091,38.44L204.087,38.44L204.087,47.444L195.091,47.444ZM213.078,47.444L213.078,38.44L222.069,38.44L222.069,47.444L213.078,47.444ZM231.061,29.429L231.061,20.421L240.056,20.421L240.056,29.429L231.061,29.429ZM231.061,47.444L231.061,38.44L240.056,38.44L240.056,47.444L231.061,47.444Z" style="fill:rgb(100,101,105);"/>
            </g>
        </g>
    </g>
</svg>
