<?xml version="1.0" encoding="UTF-8" standalone="no"?>
<!DOCTYPE svg PUBLIC "-//W3C//DTD SVG 1.1//EN" "http://www.w3.org/Graphics/SVG/1.1/DTD/svg11.dtd">
<svg width="100%" height="100%" viewBox="0 0 108 142" version="1.1" xmlns="http://www.w3.org/2000/svg" xmlns:xlink="http://www.w3.org/1999/xlink" xml:space="preserve" xmlns:serif="http://www.serif.com/" style="fill-rule:evenodd;clip-rule:evenodd;stroke-linecap:round;stroke-miterlimit:1.5;">
    <g transform="matrix(1,0,0,1,-724,-176)">
        <g>
            <g id="Collection">
                <g transform="matrix(6.01774e-17,0.982772,-0.938636,5.74749e-17,1021.34,-547.398)">
                    <path d="M745.696,306.84L819.785,306.84C829.139,306.84 836.733,298.888 836.733,289.095L836.733,229.261C836.733,219.468 829.139,211.516 819.785,211.516L745.696,211.516" style="fill:white;fill-opacity:0;stroke:white;stroke-width:9.89px;"/>
                </g>
                <path d="M751.696,250.058C755.098,250.058 757.86,252.82 757.86,256.223C757.86,259.625 755.098,262.387 751.696,262.387C748.293,262.387 745.531,259.625 745.531,256.223C745.531,252.82 748.293,250.058 751.696,250.058ZM769.185,250.058C772.587,250.058 775.35,252.82 775.35,256.223C775.35,259.625 772.587,262.387 769.185,262.387C765.782,262.387 763.02,259.625 763.02,256.223C763.02,252.82 765.782,250.058 769.185,250.058ZM786.815,250.058C790.217,250.058 792.98,252.82 792.98,256.223C792.98,259.625 790.217,262.387 786.815,262.387C783.412,262.387 780.65,259.625 780.65,256.223C780.65,252.82 783.412,250.058 786.815,250.058ZM804.304,250.058C807.706,250.058 810.469,252.82 810.469,256.223C810.469,259.625 807.706,262.387 804.304,262.387C800.902,262.387 798.139,259.625 798.139,256.223C798.139,252.82 800.902,250.058 804.304,250.058ZM751.696,233.186C755.098,233.186 757.86,235.949 757.86,239.351C757.86,242.754 755.098,245.516 751.696,245.516C748.293,245.516 745.531,242.754 745.531,239.351C745.531,235.949 748.293,233.186 751.696,233.186ZM769.185,233.186C772.587,233.186 775.35,235.949 775.35,239.351C775.35,242.754 772.587,245.516 769.185,245.516C765.782,245.516 763.02,242.754 763.02,239.351C763.02,235.949 765.782,233.186 769.185,233.186ZM786.815,233.186C790.217,233.186 792.98,235.949 792.98,239.351C792.98,242.754 790.217,245.516 786.815,245.516C783.412,245.516 780.65,242.754 780.65,239.351C780.65,235.949 783.412,233.186 786.815,233.186ZM804.304,233.186C807.706,233.186 810.469,235.949 810.469,239.351C810.469,242.754 807.706,245.516 804.304,245.516C800.902,245.516 798.139,242.754 798.139,239.351C798.139,235.949 800.902,233.186 804.304,233.186ZM751.696,216.144C755.098,216.144 757.86,218.906 757.86,222.309C757.86,225.711 755.098,228.474 751.696,228.474C748.293,228.474 745.531,225.711 745.531,222.309C745.531,218.906 748.293,216.144 751.696,216.144ZM769.185,216.144C772.587,216.144 775.35,218.906 775.35,222.309C775.35,225.711 772.587,228.474 769.185,228.474C765.782,228.474 763.02,225.711 763.02,222.309C763.02,218.906 765.782,216.144 769.185,216.144ZM786.815,216.144C790.217,216.144 792.98,218.906 792.98,222.309C792.98,225.711 790.217,228.474 786.815,228.474C783.412,228.474 780.65,225.711 780.65,222.309C780.65,218.906 783.412,216.144 786.815,216.144ZM804.304,216.144C807.706,216.144 810.469,218.906 810.469,222.309C810.469,225.711 807.706,228.474 804.304,228.474C800.902,228.474 798.139,225.711 798.139,222.309C798.139,218.906 800.902,216.144 804.304,216.144Z" style="fill:white;"/>
            </g>
            <g transform="matrix(1,0,0,1,285.889,8.19752)">
                <text x="442.09px" y="308.889px" style="font-family:'Nunito-Bold', 'Nunito';font-weight:700;font-size:22px;fill:white;">C<tspan x="456.786px " y="308.889px ">o</tspan>llection</text>
            </g>
        </g>
    </g>
</svg>
