<?xml version="1.0" encoding="UTF-8" standalone="no"?>
<!DOCTYPE svg PUBLIC "-//W3C//DTD SVG 1.1//EN" "http://www.w3.org/Graphics/SVG/1.1/DTD/svg11.dtd">
<svg width="100%" height="100%" viewBox="0 0 231 83" version="1.1" xmlns="http://www.w3.org/2000/svg" xmlns:xlink="http://www.w3.org/1999/xlink" xml:space="preserve" xmlns:serif="http://www.serif.com/" style="fill-rule:evenodd;clip-rule:evenodd;stroke-linecap:round;stroke-miterlimit:1.5;">
    <g transform="matrix(1,0,0,1,-645,-447)">
        <g>
            <g transform="matrix(2.04838,-1.94573e-32,1.94573e-32,2.04838,-202.862,-244.225)">
                <g transform="matrix(0.38532,3.6601e-33,-3.6601e-33,0.38532,157.71,197.001)">
                    <path d="M675.992,450.813L948.116,450.813" style="fill:rgb(71,175,232);stroke:rgb(71,175,232);stroke-width:9.5px;stroke-dasharray:0,14.25,0,0;"/>
                </g>
                <g>
                    <g transform="matrix(1.79751,0,0,1.79751,-389.495,-288.618)">
                        <circle cx="504.776" cy="366.799" r="3.865" style="fill:rgb(71,175,232);"/>
                    </g>
                    <g transform="matrix(2.98931e-17,0.488191,-0.488191,2.98931e-17,779.446,119.57)">
                        <path d="M507.867,538.057L514.424,529.557L520.982,538.057" style="fill:none;stroke:white;stroke-width:4px;stroke-linejoin:round;"/>
                    </g>
                </g>
            </g>
            <g transform="matrix(-2.04838,-2.50854e-16,2.50854e-16,-2.04838,1723.64,1221.13)">
                <g transform="matrix(0.38532,3.6601e-33,-3.6601e-33,0.38532,157.71,197.001)">
                    <path d="M674.127,450.813L948.116,450.813" style="fill:rgb(255,121,26);stroke:rgb(255,121,26);stroke-width:9.5px;stroke-dasharray:0,14.25,0,0;"/>
                </g>
                <g>
                    <g transform="matrix(1.79751,0,0,1.79751,-389.495,-288.618)">
                        <circle cx="504.776" cy="366.799" r="3.865" style="fill:rgb(255,121,26);stroke:rgb(255,121,26);stroke-width:0.21px;stroke-linejoin:round;"/>
                    </g>
                    <g transform="matrix(2.98931e-17,0.488191,-0.488191,2.98931e-17,779.46,119.57)">
                        <path d="M507.867,538.057L514.424,529.557L520.982,538.057" style="fill:none;stroke:white;stroke-width:4px;stroke-linejoin:round;"/>
                    </g>
                </g>
            </g>
            <g transform="matrix(1.42996,0,0,1.42996,78.0895,109.529)">
                <text x="426.996px" y="270.779px" style="font-family:'Nunito-Regular', 'Nunito';font-size:16px;fill:rgb(106,109,114);">Internet T<tspan x="495.092px " y="270.779px ">r</tspan>afï¬c</text>
            </g>
        </g>
    </g>
</svg>
