<?xml version="1.0" encoding="UTF-8" standalone="no"?>
<!DOCTYPE svg PUBLIC "-//W3C//DTD SVG 1.1//EN" "http://www.w3.org/Graphics/SVG/1.1/DTD/svg11.dtd">
<svg width="100%" height="100%" viewBox="0 0 190 54" version="1.1" xmlns="http://www.w3.org/2000/svg" xmlns:xlink="http://www.w3.org/1999/xlink" xml:space="preserve" xmlns:serif="http://www.serif.com/" style="fill-rule:evenodd;clip-rule:evenodd;stroke-linejoin:round;stroke-miterlimit:1.41421;">
    <g transform="matrix(1,0,0,1,-414,-456)">
        <g>
            <g transform="matrix(1.42996,0,0,1.42996,-175.611,121.754)">
                <text x="416.02px" y="270.779px" style="font-family:'Nunito-Regular', 'Nunito';font-size:16px;fill:rgb(106,109,114);">SonicW<tspan x="471.956px " y="270.779px ">a</tspan>ll NGFW</text>
            </g>
            <g>
                <g transform="matrix(1.00768,0,0,1,-4.18803,0)">
                    <path d="M603.217,483.469L415.239,483.469L415.239,456.872L603.217,456.872L603.217,483.469ZM418.216,459.872L418.216,480.469L600.24,480.469L600.24,459.872L418.216,459.872Z" style="fill:rgb(83,83,90);"/>
                </g>
                <g transform="matrix(1,0,0,1,0,0.457007)">
                    <g transform="matrix(0.0606335,0,0,0.431949,557.181,267.081)">
                        <path d="M603.217,483.469L415.239,483.469L415.239,456.872L603.217,456.872L603.217,483.469ZM456.47,462.66L456.47,477.681L561.986,477.681L561.986,462.66L456.47,462.66Z" style="fill:rgb(83,83,90);"/>
                    </g>
                    <g transform="matrix(0.0606335,0,0,0.431949,541.778,267.081)">
                        <path d="M603.217,483.469L415.239,483.469L415.239,456.872L603.217,456.872L603.217,483.469ZM456.47,462.66L456.47,477.681L561.986,477.681L561.986,462.66L456.47,462.66Z" style="fill:rgb(83,83,90);"/>
                    </g>
                    <g transform="matrix(0.0606335,0,0,0.431949,526.015,267.081)">
                        <path d="M603.217,483.469L415.239,483.469L415.239,456.872L603.217,456.872L603.217,483.469ZM456.47,462.66L456.47,477.681L561.986,477.681L561.986,462.66L456.47,462.66Z" style="fill:rgb(83,83,90);"/>
                    </g>
                    <g transform="matrix(0.0606335,0,0,0.431949,510.612,267.081)">
                        <path d="M603.217,483.469L415.239,483.469L415.239,456.872L603.217,456.872L603.217,483.469ZM456.47,462.66L456.47,477.681L561.986,477.681L561.986,462.66L456.47,462.66Z" style="fill:rgb(83,83,90);"/>
                    </g>
                    <g transform="matrix(0.0606335,0,0,0.431949,495.26,267.081)">
                        <path d="M603.217,483.469L415.239,483.469L415.239,456.872L603.217,456.872L603.217,483.469ZM456.47,462.66L456.47,477.681L561.986,477.681L561.986,462.66L456.47,462.66Z" style="fill:rgb(83,83,90);"/>
                    </g>
                    <g transform="matrix(0.0606335,0,0,0.431949,479.856,267.081)">
                        <path d="M603.217,483.469L415.239,483.469L415.239,456.872L603.217,456.872L603.217,483.469ZM456.47,462.66L456.47,477.681L561.986,477.681L561.986,462.66L456.47,462.66Z" style="fill:rgb(83,83,90);"/>
                    </g>
                </g>
                <g transform="matrix(0.0221731,0,0,0.15796,414.298,394.259)">
                    <rect x="415.239" y="456.872" width="187.978" height="26.597" style="fill:rgb(83,83,90);"/>
                </g>
                <g transform="matrix(0.0221731,0,0,0.15796,414.298,400.37)">
                    <rect x="415.239" y="456.872" width="187.978" height="26.597" style="fill:rgb(83,83,90);"/>
                </g>
                <g transform="matrix(0.367836,0,0,0.431949,279.067,267.538)">
                    <path d="M603.217,483.469L415.239,483.469L415.239,456.872L603.217,456.872L603.217,483.469ZM423.395,463.818L423.395,476.524L595.062,476.524L595.062,463.818L423.395,463.818Z" style="fill:rgb(83,83,90);"/>
                </g>
            </g>
        </g>
    </g>
</svg>
