<?xml version="1.0" encoding="UTF-8" standalone="no"?>
<!DOCTYPE svg PUBLIC "-//W3C//DTD SVG 1.1//EN" "http://www.w3.org/Graphics/SVG/1.1/DTD/svg11.dtd">
<svg width="100%" height="100%" viewBox="0 0 96 112" version="1.1" xmlns="http://www.w3.org/2000/svg" xmlns:xlink="http://www.w3.org/1999/xlink" xml:space="preserve" xmlns:serif="http://www.serif.com/" style="fill-rule:evenodd;clip-rule:evenodd;">
    <g transform="matrix(1,0,0,1,-127,-252)">
        <g id="Group-2">
            <path id="Rectangle-2-Copy-8" d="M222.5,255.5C222.5,253.844 221.156,252.5 219.5,252.5L130.5,252.5C128.844,252.5 127.5,253.844 127.5,255.5L127.5,344.5C127.5,346.156 128.844,347.5 130.5,347.5L219.5,347.5C221.156,347.5 222.5,346.156 222.5,344.5L222.5,255.5Z" style="fill:none;stroke:rgb(255,121,26);stroke-width:1px;"/>
            <g transform="matrix(1,0,0,1,140.617,361.569)">
                <g id="Entitlement">
                    <text x="0px" y="0px" style="font-family:'Nunito-Regular', 'Nunito';font-size:13px;fill:rgb(115,115,115);">E<tspan x="7.696px 15.209px 19.759px 22.904px 27.454px 30.599px 37.58px 48.786px 55.766px 63.28px " y="0px 0px 0px 0px 0px 0px 0px 0px 0px 0px ">ntitlement</tspan></text>
                </g>
            </g>
            <g id="Icon_Service_MySonicWall_Color" transform="matrix(1,0,0,1,151,275)">
                <g id="Group">
                    <g opacity="0">
                        <rect id="path-1" x="0" y="0" width="50" height="50" style="fill:rgb(216,216,216);"/>
                        <rect id="Rectangle-path" x="0.071" y="0.071" width="49.857" height="49.857" style="fill:none;stroke:rgb(151,151,151);stroke-width:0.68px;"/>
                    </g>
                </g>
                <g id="Shape" transform="matrix(1,0,0,1,2,0)">
                    <path d="M25.694,45.562C25.667,45.537 25.639,45.511 25.612,45.486C23.929,43.898 22.831,42.364 22.571,41.142C22.386,40.271 22.628,39.597 23.539,38.862C25.474,37.302 28.956,35.848 33.483,34.594C34.538,34.302 35.625,34.027 36.731,33.77C36.88,35.265 36.949,36.961 36.979,38.891C36.991,39.618 36.997,39.744 37,39.679C37,39.872 36.999,40.155 36.999,40.562C36.999,40.562 35.153,44.257 25.694,45.562ZM17.029,46C8.227,45.849 2.727,44.32 0.53,41.411C0.187,40.958 0.001,40.406 0.001,39.84C0.001,39.599 0,39.442 0,39.368C0.003,39.473 0.011,39.426 0.028,38.522C0.237,27.458 1.822,24.268 13.137,22.241C13.137,22.241 14.747,24.278 18.5,24.278C22.254,24.278 23.864,22.241 23.864,22.241C29.65,23.278 32.892,24.618 34.706,27.161C33.968,27.123 33.259,27.094 32.582,27.075C26.135,26.891 20.775,27.42 17.044,28.826C12.055,30.705 9.859,34.321 11.638,39.15C12.569,41.678 14.444,43.947 17.029,46ZM18.501,21.335C13.091,21.335 8.706,16.559 8.706,10.668C8.706,4.776 10.146,0 18.501,0C26.856,0 28.295,4.776 28.295,10.668C28.295,16.559 23.91,21.335 18.501,21.335Z" style="fill:rgb(128,128,138);fill-rule:nonzero;"/>
                </g>
                <g id="Shape1" serif:id="Shape" transform="matrix(1,0,0,1,20,0)">
                    <path d="M0,28.636L0,24.462C0.078,24.464 0.156,24.465 0.236,24.465C3.84,24.465 5.386,22.413 5.386,22.413C10.942,23.457 14.055,24.808 15.798,27.37C15.089,27.332 14.408,27.303 13.757,27.283C8.208,27.118 3.498,27.529 0,28.636ZM17.742,34.03C17.885,35.537 17.951,37.246 17.98,39.191C17.991,39.924 17.997,40.05 18,39.985C18,40.025 18,40.08 18,40.15C17.999,40.719 17.821,41.273 17.493,41.729C15.894,43.951 12.474,45.375 7.232,46C7.176,45.946 7.12,45.891 7.065,45.836C5.449,44.237 4.394,42.69 4.145,41.459C3.967,40.582 4.199,39.903 5.074,39.162C6.932,37.59 10.276,36.125 14.622,34.861C15.636,34.566 16.68,34.289 17.742,34.03ZM0,21.496L0,0.001C0.078,0 0.157,0 0.236,0C8.259,0 9.641,4.813 9.641,10.75C9.641,16.686 5.43,21.499 0.236,21.499C0.157,21.499 0.078,21.498 0,21.496Z" style="fill:rgb(83,83,90);fill-rule:nonzero;"/>
                </g>
                <g id="Shape2" serif:id="Shape" transform="matrix(1,0,0,1,15,30)">
                    <path d="M15.044,20C15.044,20 3.117,15.906 0.487,9.095C-2.458,1.47 8.46,-0.271 19.627,0.032C25.645,0.196 33,1.068 33,1.068C33,1.068 15.624,3.177 9.344,8.007C3.213,12.724 15.044,20 15.044,20" style="fill:rgb(255,108,12);"/>
                </g>
            </g>
        </g>
    </g>
</svg>
