<?xml version="1.0" encoding="UTF-8" standalone="no"?>
<!DOCTYPE svg PUBLIC "-//W3C//DTD SVG 1.1//EN" "http://www.w3.org/Graphics/SVG/1.1/DTD/svg11.dtd">
<svg width="100%" height="100%" viewBox="0 0 357 176" version="1.1" xmlns="http://www.w3.org/2000/svg" xmlns:xlink="http://www.w3.org/1999/xlink" xml:space="preserve" xmlns:serif="http://www.serif.com/" style="fill-rule:evenodd;clip-rule:evenodd;stroke-linecap:round;stroke-linejoin:round;stroke-miterlimit:1.5;">
    <g transform="matrix(1,0,0,1,-166,-276)">
        <g transform="matrix(1,0,0,1,-0.684275,0)">
            <g>
                <g>
                    <g>
                        <g>
                            <path d="M334.137,298.929L441.902,298.929" style="fill:none;stroke:rgb(54,54,54);stroke-width:2px;"/>
                            <g transform="matrix(1,0,0,-1,0,597.858)">
                                <path d="M230.38,298.929L441.902,298.929" style="fill:none;stroke:url(#_Linear1);stroke-width:2px;"/>
                            </g>
                        </g>
                        <g transform="matrix(1,0,0,1,0,47.7226)">
                            <path d="M334.137,298.929L441.902,298.929" style="fill:none;stroke:url(#_Linear2);stroke-width:2px;"/>
                            <g transform="matrix(1,0,0,-1,0,597.858)">
                                <path d="M320.044,298.929L441.902,298.929" style="fill:none;stroke:url(#_Linear3);stroke-width:2px;"/>
                            </g>
                        </g>
                        <g transform="matrix(1,0,0,1,0,94.8634)">
                            <path d="M334.137,298.929L441.902,298.929" style="fill:none;stroke:url(#_Linear4);stroke-width:2px;"/>
                            <g transform="matrix(1,0,0,-1,0,597.858)">
                                <path d="M305.602,298.929L441.902,298.929" style="fill:none;stroke:url(#_Linear5);stroke-width:2px;"/>
                            </g>
                        </g>
                        <g transform="matrix(1,0,0,-1,0,739.63)">
                            <g>
                                <path d="M267.944,298.929L441.902,298.929" style="fill:none;stroke:url(#_Linear6);stroke-width:2px;"/>
                            </g>
                        </g>
                        <g transform="matrix(1.04253,0,0,1.25304,-7.104,-74.9752)">
                            <rect x="167.024" y="280.752" width="61.007" height="18.417" style="fill:rgb(243,110,35);"/>
                        </g>
                        <g transform="matrix(1.07915,0,0,1.25304,73.9653,-27.2351)">
                            <rect x="167.024" y="280.752" width="61.007" height="18.417" style="fill:rgb(243,110,35);"/>
                        </g>
                        <g transform="matrix(1.23695,0,0,1.25304,23.3928,19.8717)">
                            <rect x="167.024" y="280.752" width="61.007" height="18.417" style="fill:rgb(243,110,35);"/>
                        </g>
                        <g transform="matrix(1.46467,0,0,1.25304,-66.047,66.7997)">
                            <rect x="167.024" y="280.752" width="61.007" height="18.417" style="fill:rgb(243,110,35);"/>
                        </g>
                    </g>
                    <g>
                        <g>
                            <g transform="matrix(1,0,0,1,-5.70065,6.42816)">
                                <text x="348.38px" y="281.956px" style="font-family:'Nunito-Regular', 'Nunito';font-size:16px;fill:rgb(99,101,105);">Ar<tspan x="366.284px " y="281.956px ">t</tspan>ifact 1</text>
                            </g>
                            <g transform="matrix(1,0,0,1,-5.70065,54.6495)">
                                <text x="348.38px" y="281.956px" style="font-family:'Nunito-Regular', 'Nunito';font-size:16px;fill:rgb(99,101,105);">Ar<tspan x="366.284px " y="281.956px ">t</tspan>ifact 2</text>
                            </g>
                            <g transform="matrix(1,0,0,1,-5.70065,101.517)">
                                <text x="348.38px" y="281.956px" style="font-family:'Nunito-Regular', 'Nunito';font-size:16px;fill:rgb(99,101,105);">Ar<tspan x="366.284px " y="281.956px ">t</tspan>ifact 3</text>
                            </g>
                            <g transform="matrix(1,0,0,1,-5.70065,149.099)">
                                <text x="348.38px" y="281.956px" style="font-family:'Nunito-Regular', 'Nunito';font-size:16px;fill:rgb(99,101,105);">Ar<tspan x="366.284px " y="281.956px ">t</tspan>ifact 4</text>
                            </g>
                        </g>
                        <g id="Files-more-arrows" serif:id="Files more arrows">
                            <path d="M461.287,346.649L454.5,346.649L441.902,346.649" style="fill:none;stroke:rgb(54,54,54);stroke-width:2px;"/>
                            <path d="M461.287,393.742L441.902,393.742" style="fill:none;stroke:rgb(54,54,54);stroke-width:2px;"/>
                            <path d="M441.902,298.929L461.287,298.929L461.287,440.701L441.902,440.701" style="fill:none;stroke:rgb(54,54,54);stroke-width:2px;"/>
                            <g transform="matrix(1,0,0,1,76.3189,71.7349)">
                                <path d="M384.964,298.929L441.902,298.929" style="fill:none;stroke:rgb(54,54,54);stroke-width:2px;"/>
                                <g transform="matrix(1,0,0,-1,0,597.858)">
                                    <path d="M384.964,298.929L441.902,298.929" style="fill:none;stroke:rgb(54,54,54);stroke-width:2px;"/>
                                </g>
                            </g>
                        </g>
                    </g>
                </g>
                <g transform="matrix(1.53362,0,0,1.53362,-353.597,-269.258)">
                    <g transform="matrix(1.79751,0,0,1.79751,-389.121,-288.662)">
                        <circle cx="504.776" cy="366.799" r="3.865" style="fill:rgb(243,110,35);"/>
                    </g>
                    <g transform="matrix(1.402,0,0,1.402,-207.997,-149.955)">
                        <g transform="matrix(1,0,0,0.771459,0.544678,85.3884)">
                            <path d="M516.676,367.704L519.636,370.664" style="fill:white;stroke:white;stroke-width:1.56px;"/>
                        </g>
                        <g transform="matrix(1,0,0,-0.771459,0.544678,657.292)">
                            <path d="M516.676,367.704L519.636,370.664" style="fill:white;stroke:white;stroke-width:1.56px;"/>
                        </g>
                    </g>
                </g>
                <g transform="matrix(1.53362,0,0,1.53362,-353.597,-221.443)">
                    <g transform="matrix(1.79751,0,0,1.79751,-389.121,-288.662)">
                        <circle cx="504.776" cy="366.799" r="3.865" style="fill:rgb(243,110,35);"/>
                    </g>
                    <g transform="matrix(1.402,0,0,1.402,-207.997,-149.955)">
                        <g transform="matrix(1,0,0,0.771459,0.544678,85.3884)">
                            <path d="M516.676,367.704L519.636,370.664" style="fill:white;stroke:white;stroke-width:1.56px;"/>
                        </g>
                        <g transform="matrix(1,0,0,-0.771459,0.544678,657.292)">
                            <path d="M516.676,367.704L519.636,370.664" style="fill:white;stroke:white;stroke-width:1.56px;"/>
                        </g>
                    </g>
                </g>
                <g transform="matrix(1.53362,0,0,1.53362,-353.597,-174.778)">
                    <g transform="matrix(1.79751,0,0,1.79751,-389.121,-288.662)">
                        <circle cx="504.776" cy="366.799" r="3.865" style="fill:rgb(243,110,35);"/>
                    </g>
                    <g transform="matrix(1.402,0,0,1.402,-207.997,-149.955)">
                        <g transform="matrix(1,0,0,0.771459,0.544678,85.3884)">
                            <path d="M516.676,367.704L519.636,370.664" style="fill:white;stroke:white;stroke-width:1.56px;"/>
                        </g>
                        <g transform="matrix(1,0,0,-0.771459,0.544678,657.292)">
                            <path d="M516.676,367.704L519.636,370.664" style="fill:white;stroke:white;stroke-width:1.56px;"/>
                        </g>
                    </g>
                </g>
                <g transform="matrix(1.53362,0,0,1.53362,-353.597,-127.641)">
                    <g transform="matrix(1.79751,0,0,1.79751,-389.121,-288.662)">
                        <circle cx="504.776" cy="366.799" r="3.865" style="fill:rgb(243,110,35);"/>
                    </g>
                    <g transform="matrix(1.402,0,0,1.402,-207.997,-149.955)">
                        <g transform="matrix(1,0,0,0.771459,0.544678,85.3884)">
                            <path d="M516.676,367.704L519.636,370.664" style="fill:white;stroke:white;stroke-width:1.56px;"/>
                        </g>
                        <g transform="matrix(1,0,0,-0.771459,0.544678,657.292)">
                            <path d="M516.676,367.704L519.636,370.664" style="fill:white;stroke:white;stroke-width:1.56px;"/>
                        </g>
                    </g>
                </g>
                <g transform="matrix(1.53362,0,0,1.53362,-282.135,-197.795)">
                    <g transform="matrix(1.79751,0,0,1.79751,-389.121,-288.662)">
                        <circle cx="504.776" cy="366.799" r="3.865" style="fill:rgb(243,110,35);"/>
                    </g>
                    <g transform="matrix(1.402,0,0,1.402,-207.997,-149.955)">
                        <g transform="matrix(1,0,0,0.771459,0.544678,85.3884)">
                            <path d="M516.676,367.704L519.636,370.664" style="fill:white;stroke:white;stroke-width:1.56px;"/>
                        </g>
                        <g transform="matrix(1,0,0,-0.771459,0.544678,657.292)">
                            <path d="M516.676,367.704L519.636,370.664" style="fill:white;stroke:white;stroke-width:1.56px;"/>
                        </g>
                    </g>
                </g>
            </g>
        </g>
    </g>
    <defs>
        <linearGradient id="_Linear1" x1="0" y1="0" x2="1" y2="0" gradientUnits="userSpaceOnUse" gradientTransform="matrix(218.635,0,0,13.3506,223.267,292.254)"><stop offset="0" style="stop-color:rgb(243,110,35);stop-opacity:1"/><stop offset="1" style="stop-color:rgb(54,54,54);stop-opacity:1"/></linearGradient>
        <linearGradient id="_Linear2" x1="0" y1="0" x2="1" y2="0" gradientUnits="userSpaceOnUse" gradientTransform="matrix(130.111,0,0,26.7011,311.791,298.929)"><stop offset="0" style="stop-color:rgb(243,110,35);stop-opacity:1"/><stop offset="1" style="stop-color:rgb(54,54,54);stop-opacity:1"/></linearGradient>
        <linearGradient id="_Linear3" x1="0" y1="0" x2="1" y2="0" gradientUnits="userSpaceOnUse" gradientTransform="matrix(130.111,0,0,26.7011,311.791,298.929)"><stop offset="0" style="stop-color:rgb(243,110,35);stop-opacity:1"/><stop offset="1" style="stop-color:rgb(54,54,54);stop-opacity:1"/></linearGradient>
        <linearGradient id="_Linear4" x1="0" y1="0" x2="1" y2="0" gradientUnits="userSpaceOnUse" gradientTransform="matrix(136.3,0,0,26.7011,305.602,298.929)"><stop offset="0" style="stop-color:rgb(243,110,35);stop-opacity:1"/><stop offset="1" style="stop-color:rgb(54,54,54);stop-opacity:1"/></linearGradient>
        <linearGradient id="_Linear5" x1="0" y1="0" x2="1" y2="0" gradientUnits="userSpaceOnUse" gradientTransform="matrix(136.3,0,0,26.7011,305.602,298.929)"><stop offset="0" style="stop-color:rgb(243,110,35);stop-opacity:1"/><stop offset="1" style="stop-color:rgb(54,54,54);stop-opacity:1"/></linearGradient>
        <linearGradient id="_Linear6" x1="0" y1="0" x2="1" y2="0" gradientUnits="userSpaceOnUse" gradientTransform="matrix(173.958,0,0,26.7011,267.944,298.929)"><stop offset="0" style="stop-color:rgb(243,110,35);stop-opacity:1"/><stop offset="1" style="stop-color:rgb(54,54,54);stop-opacity:1"/></linearGradient>
    </defs>
</svg>
