<?xml version="1.0" encoding="UTF-8" standalone="no"?>
<!DOCTYPE svg PUBLIC "-//W3C//DTD SVG 1.1//EN" "http://www.w3.org/Graphics/SVG/1.1/DTD/svg11.dtd">
<svg width="100%" height="100%" viewBox="0 0 131 130" version="1.1" xmlns="http://www.w3.org/2000/svg" xmlns:xlink="http://www.w3.org/1999/xlink" xml:space="preserve" xmlns:serif="http://www.serif.com/" style="fill-rule:evenodd;clip-rule:evenodd;stroke-linejoin:round;stroke-miterlimit:1.41421;">
    <g transform="matrix(1,0,0,1,-1127,-456)">
        <g transform="matrix(0.115795,0,0,0.115795,673.863,355.253)">
            <g transform="matrix(0.528902,0,0,0.528902,1788,566.66)">
                <g transform="matrix(1,0,0,1,-47.7299,0)">
                    <g transform="matrix(4.16667,0,0,4.16667,3031.58,-235.715)">
                        <path d="M357.941,211.01C357.941,203.65 351.974,197.684 344.615,197.684L261.803,197.684C254.444,197.684 248.477,203.65 248.477,211.01L248.477,217.673L357.941,217.673L357.941,211.01Z" style="fill:rgb(185,185,185);fill-rule:nonzero;"/>
                    </g>
                    <g transform="matrix(4.16667,0,0,4.16667,3031.58,-235.715)">
                        <rect x="248.477" y="221.762" width="109.464" height="15.23" style="fill:rgb(185,185,185);fill-rule:nonzero;"/>
                    </g>
                    <g transform="matrix(4.16667,0,0,4.16667,3031.58,-235.715)">
                        <path d="M255.372,304.226C267.541,307.876 284.249,311.368 304.204,311.249C323.244,311.136 339.236,307.77 351.054,304.224C355.151,302.994 357.941,299.206 357.941,294.93L357.941,277.101L357.941,250.171L357.941,241.403L248.477,241.403L248.477,294.929C248.477,299.209 251.272,302.995 255.372,304.226Z" style="fill:rgb(185,185,185);fill-rule:nonzero;"/>
                    </g>
                    <g transform="matrix(8.63593,0,0,8.63593,-2225.43,-3228.32)">
                        <text x="746.222px" y="486.221px" style="font-family:'Nunito-SemiBold', 'Nunito';font-weight:600;font-size:24px;fill:white;">A</text>
                    </g>
                </g>
                <g transform="matrix(1,0,0,1,-57.295,-36.7096)">
                    <g transform="matrix(4.16667,0,0,4.16667,2490.92,179.061)">
                        <path d="M489.994,249.931C489.994,242.57 484.027,236.604 476.667,236.604L393.856,236.604C386.497,236.604 380.53,242.57 380.53,249.931L380.53,256.594L489.994,256.594L489.994,249.931Z" style="fill:rgb(185,185,185);fill-rule:nonzero;"/>
                    </g>
                    <g transform="matrix(4.16667,0,0,4.16667,2490.92,179.061)">
                        <rect x="380.53" y="260.683" width="109.464" height="15.229" style="fill:rgb(185,185,185);fill-rule:nonzero;"/>
                    </g>
                    <g transform="matrix(4.16667,0,0,4.16667,2490.92,179.061)">
                        <path d="M387.424,343.146C399.593,346.797 416.3,350.289 436.256,350.17C455.296,350.056 471.289,346.69 483.107,343.144C487.203,341.914 489.994,338.127 489.994,333.85L489.994,316.021L489.994,289.091L489.994,280.323L380.53,280.323L380.53,333.849C380.53,338.13 383.325,341.916 387.424,343.146Z" style="fill:rgb(185,185,185);fill-rule:nonzero;"/>
                    </g>
                    <g transform="matrix(8.63593,0,0,8.63593,-2215.68,-2641.23)">
                        <text x="746.894px" y="486.221px" style="font-family:'Nunito-SemiBold', 'Nunito';font-weight:600;font-size:24px;fill:white;">B</text>
                    </g>
                </g>
                <g transform="matrix(1,0,0,1,73.2991,-99.7922)">
                    <g transform="matrix(4.16667,0,0,4.16667,1807.61,944.391)">
                        <path d="M622.647,211.01C622.647,203.65 616.68,197.684 609.321,197.684L526.509,197.684C519.15,197.684 513.182,203.65 513.182,211.01L513.182,217.673L622.647,217.673L622.647,211.01Z" style="fill:rgb(185,185,185);fill-rule:nonzero;"/>
                    </g>
                    <g transform="matrix(4.16667,0,0,4.16667,1807.61,944.391)">
                        <rect x="513.182" y="221.762" width="109.465" height="15.23" style="fill:rgb(185,185,185);fill-rule:nonzero;"/>
                    </g>
                    <g transform="matrix(4.16667,0,0,4.16667,1807.61,944.391)">
                        <path d="M520.078,304.226C532.247,307.876 548.955,311.368 568.91,311.249C587.95,311.136 603.942,307.77 615.76,304.224C619.857,302.994 622.647,299.206 622.647,294.93L622.647,277.101L622.647,250.171L622.647,241.403L513.182,241.403L513.182,294.929C513.182,299.209 515.978,302.995 520.078,304.226Z" style="fill:rgb(185,185,185);fill-rule:nonzero;"/>
                    </g>
                    <g transform="matrix(8.63593,0,0,8.63593,-2346.59,-2035.34)">
                        <text x="746.906px" y="486.221px" style="font-family:'Nunito-SemiBold', 'Nunito';font-weight:600;font-size:24px;fill:white;">C</text>
                    </g>
                </g>
                <g transform="matrix(1,0,0,1,73.2991,-85.4122)">
                    <g transform="matrix(4.16667,0,0,4.16667,1256.99,1633.24)">
                        <path d="M754.795,171.728C754.795,164.367 748.829,158.401 741.469,158.401L658.658,158.401C651.298,158.401 645.332,164.367 645.332,171.728L645.332,178.39L754.795,178.39L754.795,171.728Z" style="fill:white;fill-rule:nonzero;"/>
                        <path d="M741.813,158.405L742.155,158.418L742.494,158.44L742.832,158.47L743.166,158.508L743.498,158.555L743.828,158.609L744.155,158.672L744.479,158.742L744.799,158.821L745.117,158.907L745.432,159L745.743,159.101L746.051,159.21L746.355,159.325L746.656,159.448L746.953,159.578L747.246,159.715L747.536,159.859L747.821,160.009L748.102,160.167L748.379,160.33L748.652,160.5L748.92,160.677L749.183,160.86L749.442,161.048L749.696,161.243L749.946,161.444L750.19,161.651L750.429,161.863L750.663,162.081L750.892,162.304L751.115,162.533L751.333,162.767L751.545,163.006L751.752,163.251L751.953,163.5L752.148,163.754L752.336,164.013L752.519,164.276L752.696,164.545L752.866,164.817L753.029,165.094L753.187,165.375L753.337,165.661L753.481,165.95L753.618,166.243L753.748,166.54L753.871,166.841L753.986,167.145L754.095,167.453L754.196,167.765L754.289,168.079L754.375,168.397L754.454,168.718L754.524,169.042L754.587,169.369L754.641,169.698L754.688,170.031L754.726,170.365L754.756,170.703L754.778,171.042L754.791,171.384L754.795,171.728L754.795,178.39L645.332,178.39L645.332,171.728L645.336,171.384L645.349,171.042L645.371,170.703L645.401,170.365L645.439,170.031L645.486,169.698L645.54,169.369L645.603,169.042L645.673,168.718L645.751,168.397L645.837,168.079L645.931,167.765L646.032,167.453L646.141,167.145L646.256,166.841L646.379,166.54L646.509,166.243L646.646,165.95L646.79,165.661L646.94,165.375L647.097,165.094L647.261,164.817L647.431,164.545L647.608,164.276L647.79,164.013L647.979,163.754L648.174,163.5L648.375,163.251L648.581,163.006L648.794,162.767L649.012,162.533L649.235,162.304L649.464,162.081L649.698,161.863L649.937,161.651L650.181,161.444L650.431,161.243L650.685,161.048L650.944,160.86L651.207,160.677L651.475,160.5L651.748,160.33L652.025,160.167L652.306,160.009L652.591,159.859L652.881,159.715L653.174,159.578L653.471,159.448L653.772,159.325L654.076,159.21L654.384,159.101L654.695,159L655.01,158.907L655.328,158.821L655.648,158.742L655.972,158.672L656.299,158.609L656.629,158.555L656.961,158.508L657.295,158.47L657.633,158.44L657.972,158.418L658.314,158.405L658.658,158.401L741.469,158.401L741.813,158.405ZM658.709,166.238L658.514,166.241L658.367,166.246L658.227,166.255L658.088,166.268L657.948,166.284L657.812,166.303L657.676,166.325L657.543,166.351L657.411,166.379L657.281,166.411L657.152,166.446L657.024,166.484L656.897,166.526L656.771,166.57L656.645,166.618L656.523,166.668L656.403,166.72L656.283,166.776L656.164,166.835L656.047,166.897L655.932,166.961L655.819,167.028L655.705,167.099L655.595,167.171L655.486,167.247L655.378,167.326L655.273,167.407L655.171,167.489L655.07,167.574L654.969,167.664L654.872,167.754L654.778,167.845L654.685,167.942L654.594,168.039L654.505,168.14L654.42,168.24L654.338,168.341L654.257,168.447L654.178,168.556L654.103,168.664L654.029,168.776L653.96,168.887L653.892,169.001L653.827,169.118L653.767,169.232L653.708,169.35L653.651,169.472L653.599,169.592L653.548,169.717L653.5,169.843L653.457,169.964L653.416,170.092L653.377,170.22L653.343,170.349L653.31,170.481L653.295,170.553L746.832,170.553L746.816,170.481L746.784,170.349L746.75,170.22L746.711,170.092L746.67,169.964L746.626,169.839L746.58,169.717L746.53,169.596L746.476,169.472L746.419,169.35L746.36,169.232L746.298,169.115L746.235,169.001L746.167,168.887L746.096,168.773L746.024,168.664L745.949,168.556L745.872,168.45L745.791,168.343L745.707,168.24L745.62,168.137L745.531,168.037L745.443,167.942L745.351,167.848L745.255,167.754L745.156,167.662L745.059,167.576L744.956,167.489L744.852,167.405L744.749,167.326L744.643,167.248L744.532,167.171L744.42,167.098L744.31,167.029L744.196,166.962L744.08,166.897L743.961,166.834L743.844,166.776L743.725,166.721L743.602,166.667L743.48,166.617L743.356,166.57L743.231,166.526L743.105,166.485L742.976,166.446L742.846,166.411L742.716,166.379L742.584,166.351L742.45,166.325L742.314,166.303L742.179,166.284L742.04,166.268L741.899,166.255L741.759,166.246L741.614,166.241L741.418,166.238L658.709,166.238Z" style="fill:rgb(185,185,185);"/>
                    </g>
                    <g transform="matrix(4.16667,0,0,4.16667,1256.99,1633.24)">
                        <rect x="645.332" y="182.479" width="109.463" height="15.23" style="fill:white;fill-rule:nonzero;"/>
                        <path d="M754.795,197.709L645.332,197.709L645.332,182.479L754.795,182.479L754.795,197.709ZM651.21,188.357L651.21,191.831L748.917,191.831L748.917,188.357L651.21,188.357Z" style="fill:rgb(185,185,185);"/>
                    </g>
                    <g transform="matrix(4.16667,0,0,4.16667,1256.99,1633.24)">
                        <path d="M652.226,264.942C664.395,268.593 681.102,272.085 701.058,271.966C720.098,271.853 736.09,268.486 747.908,264.94C752.004,263.711 754.795,259.923 754.795,255.646L754.795,237.818L754.795,210.888L754.795,202.12L645.332,202.12L645.332,255.646C645.332,259.926 648.125,263.713 652.226,264.942Z" style="fill:white;fill-rule:nonzero;"/>
                        <path d="M754.795,255.646L754.793,255.846L754.787,256.045L754.777,256.244L754.763,256.442L754.745,256.638L754.723,256.834L754.697,257.029L754.667,257.223L754.634,257.416L754.596,257.607L754.555,257.797L754.51,257.987L754.462,258.174L754.41,258.361L754.354,258.546L754.295,258.73L754.232,258.912L754.166,259.093L754.096,259.272L754.023,259.449L753.946,259.625L753.866,259.799L753.783,259.972L753.696,260.142L753.606,260.311L753.513,260.478L753.416,260.643L753.317,260.805L753.214,260.966L753.108,261.125L752.999,261.282L752.888,261.436L752.773,261.588L752.655,261.738L752.534,261.886L752.41,262.031L752.284,262.174L752.154,262.314L752.022,262.452L751.887,262.587L751.749,262.72L751.609,262.85L751.466,262.977L751.32,263.101L751.172,263.223L751.021,263.342L750.868,263.458L750.712,263.571L750.554,263.681L750.393,263.788L750.23,263.892L750.065,263.992L749.897,264.09L749.727,264.184L749.554,264.275L749.38,264.363L749.203,264.448L749.024,264.529L748.843,264.606L748.66,264.68L748.475,264.751L748.288,264.817L748.099,264.881L747.908,264.94L746.788,265.272L745.644,265.602L744.475,265.93L743.283,266.255L742.067,266.577L740.828,266.895L739.565,267.209L738.279,267.518L736.971,267.821L735.64,268.118L734.287,268.408L733.602,268.551L732.911,268.692L732.215,268.83L731.514,268.967L730.807,269.101L730.094,269.234L729.377,269.364L728.654,269.492L727.925,269.617L727.191,269.74L726.452,269.861L725.708,269.979L724.958,270.094L724.204,270.207L723.444,270.316L722.678,270.423L721.908,270.527L721.133,270.628L720.352,270.726L719.567,270.821L718.776,270.912L717.981,271.001L717.18,271.085L716.375,271.167L715.564,271.245L714.749,271.319L713.929,271.39L713.104,271.457L712.274,271.52L711.439,271.58L710.6,271.635L709.755,271.686L708.907,271.734L708.053,271.777L707.195,271.816L706.332,271.851L705.464,271.881L704.592,271.907L703.715,271.929L702.834,271.946L701.948,271.958L701.058,271.966L700.125,271.969L699.197,271.967L698.273,271.959L697.355,271.947L696.441,271.929L695.532,271.907L694.628,271.88L693.729,271.848L692.835,271.812L691.946,271.77L691.063,271.725L690.184,271.675L689.31,271.62L688.442,271.562L687.578,271.499L686.72,271.432L685.867,271.361L685.02,271.286L684.177,271.208L683.34,271.125L682.509,271.039L681.682,270.949L680.862,270.855L680.046,270.759L679.236,270.658L678.432,270.555L677.633,270.448L676.839,270.338L676.052,270.225L675.269,270.109L674.493,269.99L673.722,269.868L672.957,269.743L672.197,269.616L671.444,269.486L670.696,269.354L669.954,269.219L669.217,269.082L668.487,268.942L667.763,268.8L667.044,268.656L666.332,268.511L665.625,268.363L664.925,268.213L664.23,268.061L663.542,267.908L662.183,267.597L660.85,267.279L659.541,266.956L658.258,266.629L657,266.297L655.767,265.962L654.561,265.624L653.38,265.284L652.226,264.942L652.035,264.883L651.845,264.819L651.658,264.753L651.473,264.682L651.289,264.608L651.108,264.531L650.929,264.45L650.752,264.365L650.578,264.278L650.405,264.186L650.235,264.092L650.067,263.995L649.901,263.894L649.738,263.79L649.577,263.683L649.419,263.573L649.263,263.46L649.109,263.344L648.958,263.225L648.81,263.103L648.664,262.979L648.521,262.852L648.38,262.722L648.242,262.589L648.107,262.454L647.975,262.316L647.846,262.176L647.719,262.033L647.595,261.888L647.474,261.74L647.356,261.59L647.241,261.438L647.129,261.284L647.02,261.127L646.914,260.968L646.811,260.808L646.712,260.645L646.615,260.48L646.522,260.313L646.432,260.144L646.345,259.974L646.262,259.801L646.182,259.627L646.105,259.451L646.032,259.274L645.962,259.094L645.895,258.914L645.832,258.731L645.773,258.548L645.717,258.362L645.665,258.176L645.617,257.988L645.572,257.799L645.531,257.608L645.494,257.417L645.46,257.224L645.43,257.03L645.404,256.835L645.382,256.639L645.364,256.442L645.35,256.244L645.34,256.046L645.334,255.846L645.332,255.646L645.332,202.12L754.795,202.12L754.795,255.646ZM653.17,209.957L653.17,255.606L653.17,255.692L653.172,255.729L653.173,255.765L653.176,255.805L653.18,255.845L653.184,255.882L653.189,255.917L653.195,255.957L653.202,255.997L653.209,256.034L653.217,256.069L653.225,256.104L653.235,256.143L653.245,256.181L653.254,256.21L653.265,256.244L653.279,256.283L653.293,256.321L653.307,256.358L653.318,256.385L653.333,256.42L653.351,256.458L653.367,256.492L653.382,256.522L653.4,256.555L653.42,256.591L653.436,256.618L653.457,256.651L653.476,256.682L653.498,256.715L653.519,256.745L653.54,256.773L653.563,256.804L653.586,256.834L653.61,256.863L653.63,256.887L653.657,256.916L653.683,256.945L653.707,256.97L653.732,256.995L653.757,257.019L653.787,257.047L653.81,257.067L653.836,257.089L653.87,257.117L653.896,257.138L653.922,257.157L653.954,257.18L653.985,257.202L654.012,257.22L654.039,257.237L654.071,257.257L654.108,257.278L654.134,257.293L654.165,257.309L654.197,257.325L654.231,257.341L654.266,257.357L654.3,257.371L654.332,257.385L654.364,257.397L654.403,257.41L654.44,257.423L654.503,257.442L655.578,257.761L656.703,258.085L657.852,258.407L659.026,258.726L660.225,259.042L661.449,259.354L662.696,259.662L663.967,259.965L665.27,260.263L665.917,260.408L666.58,260.552L667.247,260.695L667.92,260.836L668.599,260.975L669.285,261.112L669.975,261.247L670.67,261.38L671.372,261.511L672.08,261.639L672.792,261.766L673.51,261.889L674.235,262.011L674.964,262.129L675.698,262.245L676.438,262.359L677.184,262.469L677.934,262.577L678.69,262.682L679.451,262.784L680.218,262.882L680.99,262.978L681.768,263.07L682.55,263.16L683.336,263.245L684.129,263.327L684.927,263.406L685.729,263.481L686.537,263.552L687.35,263.62L688.168,263.684L688.99,263.744L689.817,263.799L690.65,263.851L691.487,263.899L692.33,263.942L693.176,263.982L694.028,264.016L694.885,264.047L695.746,264.073L696.612,264.094L697.482,264.11L698.358,264.122L699.238,264.129L700.122,264.132L701.012,264.129L701.86,264.121L702.703,264.11L703.544,264.093L704.379,264.073L705.21,264.048L706.036,264.019L706.859,263.986L707.677,263.949L708.49,263.907L709.299,263.862L710.103,263.813L710.903,263.76L711.698,263.704L712.488,263.644L713.275,263.58L714.057,263.512L714.833,263.442L715.605,263.367L716.373,263.29L717.136,263.209L717.894,263.125L718.647,263.038L719.396,262.947L720.14,262.854L720.878,262.758L721.612,262.659L722.341,262.557L723.065,262.452L723.784,262.345L724.499,262.235L725.208,262.123L725.913,262.008L726.612,261.891L727.306,261.771L727.995,261.649L728.679,261.525L729.359,261.399L730.032,261.271L730.7,261.141L731.364,261.009L732.022,260.874L732.667,260.74L733.964,260.462L735.233,260.179L736.48,259.89L737.705,259.596L738.908,259.297L740.089,258.994L741.248,258.687L742.385,258.377L743.498,258.064L744.588,257.749L745.632,257.44L745.692,257.421L745.729,257.409L745.765,257.396L745.796,257.385L745.831,257.37L745.864,257.356L745.899,257.34L745.932,257.324L745.959,257.311L745.995,257.292L746.027,257.274L746.054,257.258L746.086,257.239L746.114,257.221L746.146,257.2L746.173,257.181L746.203,257.159L746.234,257.136L746.26,257.116L746.288,257.093L746.315,257.07L746.339,257.047L746.369,257.02L746.394,256.996L746.419,256.971L746.446,256.943L746.469,256.918L746.495,256.888L746.52,256.859L746.543,256.832L746.562,256.808L746.587,256.774L746.611,256.741L746.627,256.718L746.649,256.685L746.668,256.654L746.689,256.621L746.711,256.584L746.729,256.551L746.743,256.525L746.76,256.49L746.778,256.453L746.792,256.424L746.807,256.39L746.821,256.355L746.835,256.319L746.849,256.28L746.86,256.248L746.871,256.215L746.882,256.178L746.893,256.14L746.903,256.102L746.911,256.068L746.918,256.032L746.926,255.995L746.932,255.956L746.938,255.923L746.942,255.887L746.947,255.844L746.951,255.805L746.954,255.764L746.956,255.722L746.957,255.685L746.958,255.606L746.958,209.957L653.17,209.957Z" style="fill:rgb(185,185,185);"/>
                    </g>
                    <g transform="matrix(8.63593,0,0,8.63593,-2342.42,-1512.16)">
                        <text x="746.078px" y="486.221px" style="font-family:'Nunito-SemiBold', 'Nunito';font-weight:600;font-size:24px;fill:rgb(185,185,185);">D</text>
                    </g>
                </g>
                <g transform="matrix(14.7594,0,0,14.7594,-8211.01,-3565.78)">
                    <text x="867.454px" y="304.008px" style="font-family:'Nunito-Regular', 'Nunito';font-size:18px;fill:rgb(185,185,185);">Hyper<tspan x="917.206px " y="304.008px ">v</tspan>isor</text>
                </g>
                <g transform="matrix(14.7594,0,0,14.7594,-8270.25,-3030.6)">
                    <text x="871.468px" y="304.008px" style="font-family:'Nunito-Regular', 'Nunito';font-size:18px;fill:rgb(185,185,185);">Emulation</text>
                </g>
                <g transform="matrix(14.7594,0,0,14.7594,-8211.01,-2461.05)">
                    <text x="867.454px" y="304.008px" style="font-family:'Nunito-Regular', 'Nunito';font-size:18px;fill:rgb(185,185,185);">Vir<tspan x="891.124px " y="304.008px ">t</tspan>ualization</text>
                </g>
                <g transform="matrix(14.7594,0,0,14.7594,-8211.01,-1924.2)">
                    <text x="867.454px" y="304.008px" style="font-family:'Nunito-Regular', 'Nunito';font-size:18px;fill:rgb(185,185,185);">R<tspan x="879.442px " y="304.008px ">T</tspan>DMI</text>
                </g>
            </g>
        </g>
    </g>
</svg>
