<?xml version="1.0" encoding="UTF-8" standalone="no"?>
<!DOCTYPE svg PUBLIC "-//W3C//DTD SVG 1.1//EN" "http://www.w3.org/Graphics/SVG/1.1/DTD/svg11.dtd">
<svg width="100%" height="100%" viewBox="0 0 229 170" version="1.1" xmlns="http://www.w3.org/2000/svg" xmlns:xlink="http://www.w3.org/1999/xlink" xml:space="preserve" xmlns:serif="http://www.serif.com/" style="fill-rule:evenodd;clip-rule:evenodd;stroke-linejoin:round;stroke-miterlimit:1.41421;">
    <g transform="matrix(1,0,0,1,-395,-76)">
        <g>
            <g id="Combined-Shape" transform="matrix(0.786114,0,0,0.786114,372.331,33.6249)">
                <path d="M319.996,204.264C319.999,204.51 320,204.756 320,205.003C320,204.756 319.999,204.51 319.996,204.264ZM319.781,210.412C319.757,210.706 319.731,210.999 319.704,211.291C319.731,210.998 319.757,210.706 319.781,210.412ZM255.473,270C254.464,269.996 253.461,269.968 252.457,269.92L252.457,269.908C253.452,269.963 254.458,269.994 255.473,270ZM171.404,270L83.138,270L83.138,269.907C52.942,268.128 29,242.816 29,211.843C29,179.727 54.757,153.693 86.525,153.693C90.036,153.693 93.472,154.008 96.809,154.619C96.723,153.18 96.673,151.734 96.673,150.269C96.673,115.7 121.984,86.853 155.684,80C151.938,87.959 149.784,96.815 149.784,106.189L149.784,107.938C140.236,108.711 132.707,116.596 132.707,126.323L132.707,211.806C132.707,222.046 141.023,230.345 151.282,230.345L272.016,230.345C281.221,230.345 288.861,223.664 290.334,214.894C288.862,223.664 281.221,230.346 272.016,230.346L171.404,230.346L171.404,270Z" style="fill:rgb(128,128,138);"/>
            </g>
            <g id="Fill-5" transform="matrix(0.786114,0,0,0.786114,372.331,33.6249)">
                <path d="M198.922,84C190.104,88.629 184.037,97.577 184,108L232,108C223.656,97.316 212.241,88.896 198.922,84" style="fill:rgb(83,83,90);"/>
            </g>
            <g id="Fill-7" transform="matrix(0.786114,0,0,0.786114,372.331,33.6249)">
                <path d="M290.51,150L290.51,211.603C290.51,221.878 282.173,230.207 271.885,230.207L171,230.207L171,270L252.273,270L252.273,269.907C253.391,269.969 254.521,270 255.663,270C291.193,270 320,240.798 320,204.775C320,181.781 308.235,161.621 290.51,150" style="fill:rgb(83,83,90);"/>
            </g>
            <g id="Fill-9" transform="matrix(0.786114,0,0,0.786114,372.331,33.6249)">
                <path d="M248.4,118.683L175.6,118.683L175.6,105.746C175.6,85.738 191.9,69.524 212,69.524C232.1,69.524 248.4,85.738 248.4,105.746L248.4,118.683ZM214.385,200.224C214.385,200.224 183.047,188.928 176.137,170.131C168.4,149.09 197.085,144.287 226.428,145.124C242.241,145.575 261.565,147.982 261.565,147.982C261.565,147.982 215.909,153.802 199.41,167.13C183.301,180.145 214.385,200.224 214.385,200.224ZM160,118.683L160,105.746C160,77.169 183.276,54 212,54C240.724,54 264.006,77.169 264.006,105.746L264.006,118.683L264.619,118.683C271.46,118.683 277,124.202 277,131.003L277,204.68C277,211.48 271.46,217 264.619,217L159.381,217C152.547,217 147,211.48 147,204.68L147,131.003C147,124.202 152.547,118.683 159.381,118.683L160,118.683Z" style="fill:rgb(255,141,32);"/>
            </g>
            <g id="Combined-Shape1" serif:id="Combined-Shape" transform="matrix(0.786114,0,0,0.786114,372.331,33.6249)">
                <path d="M212,145.203L212,118.681L248.209,118.681L248.209,105.745C248.209,85.879 232.035,69.755 212,69.525L212,54C240.716,54.23 263.919,77.31 263.919,105.745L263.919,118.681L264.536,118.681C271.423,118.681 277,124.201 277,131.002L277,204.679C277,211.48 271.423,217 264.536,217L212,217L212,199.463C213.247,199.966 213.967,200.224 213.967,200.224C213.967,200.224 213.213,199.74 212,198.874L212,159.929C232.262,151.679 261.462,147.982 261.462,147.982C261.462,147.982 242.008,145.575 226.091,145.123C221.326,144.988 216.579,145 212,145.203Z" style="fill:rgb(255,108,11);"/>
            </g>
        </g>
    </g>
</svg>
