<?xml version="1.0" encoding="UTF-8" standalone="no"?>
<!DOCTYPE svg PUBLIC "-//W3C//DTD SVG 1.1//EN" "http://www.w3.org/Graphics/SVG/1.1/DTD/svg11.dtd">
<svg width="100%" height="100%" viewBox="0 0 275 70" version="1.1" xmlns="http://www.w3.org/2000/svg" xmlns:xlink="http://www.w3.org/1999/xlink" xml:space="preserve" xmlns:serif="http://www.serif.com/" style="fill-rule:evenodd;clip-rule:evenodd;stroke-linejoin:round;stroke-miterlimit:1.41421;">
    <g transform="matrix(1,0,0,1,-698,-464)">
        <g transform="matrix(-0.881227,0,0,0.881227,1580.2,255.053)">
            <g transform="matrix(1.06237,0,0,0.945895,64.6692,14.6314)">
                <path d="M881.253,276.77C881.253,299.523 864.843,317.977 844.584,318.005C774.173,318.105 626.944,318.313 626.944,318.313C604.184,318.313 588.035,299.835 588.035,277.075C588.035,254.315 604.184,235.837 626.944,235.837C626.944,235.837 774.044,235.629 844.491,235.53C854.237,235.516 863.587,239.854 870.483,247.589C877.378,255.324 881.253,265.82 881.253,276.765C881.253,276.767 881.253,276.768 881.253,276.77Z" style="fill:rgb(179,214,101);"/>
            </g>
        </g>
    </g>
</svg>
