<?xml version="1.0" encoding="UTF-8" standalone="no"?>
<!DOCTYPE svg PUBLIC "-//W3C//DTD SVG 1.1//EN" "http://www.w3.org/Graphics/SVG/1.1/DTD/svg11.dtd">
<svg width="100%" height="100%" viewBox="0 0 96 111" version="1.1" xmlns="http://www.w3.org/2000/svg" xmlns:xlink="http://www.w3.org/1999/xlink" xml:space="preserve" xmlns:serif="http://www.serif.com/" style="fill-rule:evenodd;clip-rule:evenodd;">
    <g transform="matrix(1,0,0,1,-127,-126)">
        <g id="Group-2">
            <path id="Rectangle-2-Copy-3" d="M222.5,129.5C222.5,127.844 221.156,126.5 219.5,126.5L130.5,126.5C128.844,126.5 127.5,127.844 127.5,129.5L127.5,218.5C127.5,220.156 128.844,221.5 130.5,221.5L219.5,221.5C221.156,221.5 222.5,220.156 222.5,218.5L222.5,129.5Z" style="fill:none;stroke:rgb(255,121,26);stroke-width:1px;"/>
            <g transform="matrix(1,0,0,1,161.786,235)">
                <g id="CAS">
                    <text x="0px" y="0px" style="font-family:'Nunito-Regular', 'Nunito';font-size:13px;fill:rgb(115,115,115);">CAS</text>
                </g>
            </g>
            <g id="Icon_Service_CAS_Color" transform="matrix(1,0,0,1,150,149)">
                <g id="Group">
                    <g opacity="0">
                        <rect id="path-1" x="0" y="0" width="50" height="50" style="fill:rgb(216,216,216);"/>
                        <rect id="Rectangle-path" x="0.071" y="0.071" width="49.857" height="49.857" style="fill:none;stroke:rgb(151,151,151);stroke-width:0.68px;"/>
                    </g>
                </g>
                <g id="Shape" transform="matrix(1,0,0,1,0,11)">
                    <path d="M49.999,21.583C50,21.625 50,21.668 50,21.711C50,21.668 50,21.625 49.999,21.583ZM49.962,22.651C49.958,22.702 49.954,22.752 49.949,22.803C49.954,22.752 49.958,22.702 49.962,22.651ZM38.913,33C38.74,32.999 38.567,32.994 38.395,32.986L38.395,32.984C38.566,32.994 38.738,32.999 38.913,33ZM24.468,33L9.302,33L9.302,32.984C4.114,32.675 0,28.279 0,22.899C0,17.321 4.426,12.799 9.884,12.799C10.487,12.799 11.078,12.854 11.651,12.96C11.636,12.71 11.628,12.459 11.628,12.205C11.628,6.201 15.977,1.19 21.767,0C21.123,1.382 20.753,2.921 20.753,4.549L20.753,4.852C19.113,4.987 17.819,6.356 17.819,8.046L17.819,22.893C17.819,24.671 19.248,26.113 21.011,26.113L41.755,26.113C43.337,26.113 44.65,24.952 44.903,23.429C44.65,24.952 43.337,26.113 41.755,26.113L24.468,26.113L24.468,33Z" style="fill:rgb(128,128,138);"/>
                </g>
                <g id="Shape1" serif:id="Shape" transform="matrix(1,0,0,1,27,12)">
                    <path d="M2.487,0C1.017,0.772 0.006,2.263 0,4L8,4C6.609,2.219 4.707,0.816 2.487,0" style="fill:rgb(83,83,90);"/>
                </g>
                <g id="Shape2" serif:id="Shape" transform="matrix(1,0,0,1,24,23)">
                    <path d="M20.854,0L20.854,10.781C20.854,12.579 19.399,14.036 17.604,14.036L0,14.036L0,21L14.182,21L14.182,20.984C14.377,20.995 14.574,21 14.773,21C20.973,21 26,15.89 26,9.586C26,5.562 23.947,2.034 20.854,0" style="fill:rgb(83,83,90);"/>
                </g>
                <g id="Shape3" serif:id="Shape" transform="matrix(1,0,0,1,20,6)">
                    <path d="M17.16,11.111L4.84,11.111L4.84,8.889C4.84,5.452 7.598,2.667 11,2.667C14.402,2.667 17.16,5.452 17.16,8.889L17.16,11.111ZM11.404,25.118C11.404,25.118 6.1,23.178 4.931,19.949C3.622,16.334 8.476,15.509 13.442,15.653C16.118,15.731 19.388,16.144 19.388,16.144C19.388,16.144 11.662,17.144 8.869,19.433C6.143,21.669 11.404,25.118 11.404,25.118ZM2.2,11.111L2.2,8.889C2.2,3.98 6.139,0 11,0C15.861,0 19.801,3.98 19.801,8.889L19.801,11.111L19.905,11.111C21.062,11.111 22,12.059 22,13.228L22,25.884C22,27.052 21.062,28 19.905,28L2.095,28C0.939,28 0,27.052 0,25.884L0,13.228C0,12.059 0.939,11.111 2.095,11.111L2.2,11.111Z" style="fill:rgb(255,141,32);"/>
                </g>
                <g id="Shape4" serif:id="Shape" transform="matrix(1,0,0,1,31,6)">
                    <path d="M0,15.667L0,11.111L6.128,11.111L6.128,8.889C6.128,5.476 3.391,2.706 0,2.667L0,0C4.86,0.04 8.786,4.004 8.786,8.889L8.786,11.111L8.891,11.111C10.056,11.111 11,12.059 11,13.227L11,25.884C11,27.052 10.056,28 8.891,28L0,28L0,24.988C0.211,25.074 0.333,25.118 0.333,25.118C0.333,25.118 0.205,25.035 0,24.886L0,18.196C3.429,16.779 8.37,16.144 8.37,16.144C8.37,16.144 5.078,15.731 2.385,15.653C1.578,15.63 0.775,15.632 0,15.667Z" style="fill:rgb(255,108,11);"/>
                </g>
            </g>
        </g>
    </g>
</svg>
