<?xml version="1.0" encoding="UTF-8" standalone="no"?>
<!DOCTYPE svg PUBLIC "-//W3C//DTD SVG 1.1//EN" "http://www.w3.org/Graphics/SVG/1.1/DTD/svg11.dtd">
<svg width="100%" height="100%" viewBox="0 0 169 143" version="1.1" xmlns="http://www.w3.org/2000/svg" xmlns:xlink="http://www.w3.org/1999/xlink" xml:space="preserve" xmlns:serif="http://www.serif.com/" style="fill-rule:evenodd;clip-rule:evenodd;stroke-linejoin:round;stroke-miterlimit:1.41421;">
    <g transform="matrix(1,0,0,1,-371,-468)">
        <g>
            <path id="Countermeasure-Creation" serif:id="Countermeasure Creation" d="M529.572,523.094C535.07,523.094 539.533,527.558 539.533,533.055L539.533,600.269C539.533,605.767 535.069,610.23 529.572,610.23L462.154,610.23C456.656,610.23 452.192,605.767 452.192,600.269L452.192,533.055C452.192,527.558 456.656,523.094 462.154,523.094L529.572,523.094ZM503.354,557.645L503.354,540.383C503.354,536.429 500.148,533.223 496.194,533.223C496.194,533.223 496.193,533.223 496.193,533.223C492.239,533.223 489.033,536.429 489.033,540.383C489.033,547.589 489.033,557.645 489.033,557.645C489.033,557.645 478.977,557.645 471.771,557.645C467.817,557.645 464.611,560.85 464.611,564.805C464.611,564.805 464.611,564.805 464.611,564.806C464.611,568.76 467.817,571.966 471.771,571.966C478.977,571.966 489.033,571.966 489.033,571.966C489.033,571.966 489.033,582.021 489.033,589.228C489.033,593.182 492.239,596.388 496.193,596.388C496.193,596.388 496.194,596.388 496.194,596.388C500.148,596.388 503.354,593.182 503.354,589.228C503.354,582.021 503.354,571.966 503.354,571.966C503.354,571.966 513.41,571.966 520.616,571.966C524.57,571.966 527.776,568.76 527.776,564.806C527.776,564.805 527.776,564.805 527.776,564.805C527.776,560.851 524.571,557.645 520.616,557.645L503.354,557.645Z" style="fill:white;"/>
            <g transform="matrix(1,0,0,1,-71.8507,175.027)">
                <text x="442.09px" y="308.889px" style="font-family:'Nunito-Bold', 'Nunito';font-weight:700;font-size:22px;fill:white;">C<tspan x="456.786px " y="308.889px ">o</tspan>untermeasur<tspan x="597.652px " y="308.889px ">e</tspan></text>
                <text x="442.09px" y="332.889px" style="font-family:'Nunito-Bold', 'Nunito';font-weight:700;font-size:22px;fill:white;">Cr<tspan x="465.212px " y="332.889px ">e</tspan>ation</text>
            </g>
        </g>
    </g>
</svg>
