<?xml version="1.0" encoding="UTF-8" standalone="no"?>
<!DOCTYPE svg PUBLIC "-//W3C//DTD SVG 1.1//EN" "http://www.w3.org/Graphics/SVG/1.1/DTD/svg11.dtd">
<svg width="100%" height="100%" viewBox="0 0 125 52" version="1.1" xmlns="http://www.w3.org/2000/svg" xmlns:xlink="http://www.w3.org/1999/xlink" xml:space="preserve" xmlns:serif="http://www.serif.com/" style="fill-rule:evenodd;clip-rule:evenodd;stroke-linejoin:round;stroke-miterlimit:1.41421;">
    <g transform="matrix(1,0,0,1,-974,-550)">
        <g transform="matrix(0.0987849,0,0,0.0987849,715.792,376.909)">
            <g>
                <g transform="matrix(4.16667,0,0,4.16667,447.51,-5.68434e-14)">
                    <path d="M521.793,438.812L521.793,529.238C521.793,538.502 529.303,546.012 538.566,546.012C541.213,546.012 543.359,543.866 543.359,541.22L543.359,426.831C543.359,424.184 541.213,422.038 538.566,422.038C529.303,422.038 521.793,429.548 521.793,438.812Z" style="fill:rgb(185,185,185);fill-rule:nonzero;"/>
                </g>
                <g transform="matrix(4.16667,0,0,4.16667,447.51,-5.68434e-14)">
                    <path d="M591.966,426.831L591.966,541.22C591.966,543.866 594.112,546.012 596.758,546.012C606.022,546.012 613.532,538.502 613.532,529.238L613.532,438.812C613.532,429.548 606.022,422.038 596.758,422.038C594.112,422.038 591.966,424.184 591.966,426.831Z" style="fill:rgb(185,185,185);fill-rule:nonzero;"/>
                </g>
                <g transform="matrix(4.16667,0,0,4.16667,447.51,-5.68434e-14)">
                    <path d="M654.194,438.812L654.194,529.238C654.194,538.502 661.704,546.012 670.967,546.012C673.614,546.012 675.759,543.866 675.759,541.22L675.759,426.831C675.759,424.184 673.614,422.038 670.967,422.038C661.704,422.038 654.194,429.548 654.194,438.812Z" style="fill:rgb(185,185,185);fill-rule:nonzero;"/>
                </g>
                <g transform="matrix(4.16667,0,0,4.16667,447.51,-5.68434e-14)">
                    <path d="M729.159,422.038C726.512,422.038 724.367,424.184 724.367,426.831L724.367,541.22C724.367,543.866 726.512,546.012 729.159,546.012L729.16,546.012C738.422,546.012 745.932,538.502 745.932,529.238L745.932,438.812C745.932,429.548 738.422,422.038 729.16,422.038L729.159,422.038Z" style="fill:rgb(185,185,185);fill-rule:nonzero;"/>
                </g>
                <g transform="matrix(4.16667,0,0,4.16667,447.51,-5.68434e-14)">
                    <path d="M618.515,465.284L618.515,502.766C618.515,505.274 620.548,507.308 623.057,507.308L644.548,507.308C647.057,507.308 649.09,505.274 649.09,502.766L649.09,465.284C649.09,462.776 647.057,460.743 644.548,460.743L623.057,460.743C620.548,460.743 618.515,462.776 618.515,465.284Z" style="fill:rgb(185,185,185);fill-rule:nonzero;"/>
                </g>
                <g transform="matrix(4.16667,0,0,4.16667,447.51,-5.68434e-14)">
                    <path d="M816.922,460.743L787.292,460.743L787.292,445.062C787.292,442.412 785.145,440.266 782.497,440.266L780.707,440.266C778.058,440.266 775.912,442.412 775.912,445.062L775.912,460.743L754.536,460.743C752.027,460.743 749.994,462.776 749.994,465.284L749.994,502.766C749.994,505.274 752.027,507.308 754.536,507.308L775.912,507.308L775.912,522.989C775.912,525.638 778.058,527.784 780.707,527.784L782.497,527.784C785.145,527.784 787.292,525.638 787.292,522.989L787.292,507.308L816.922,507.308C819.431,507.308 821.464,505.274 821.464,502.766L821.464,465.284C821.464,462.776 819.431,460.743 816.922,460.743Z" style="fill:rgb(185,185,185);fill-rule:nonzero;"/>
                </g>
            </g>
        </g>
    </g>
</svg>
