<?xml version="1.0" encoding="UTF-8" standalone="no"?>
<!DOCTYPE svg PUBLIC "-//W3C//DTD SVG 1.1//EN" "http://www.w3.org/Graphics/SVG/1.1/DTD/svg11.dtd">
<svg width="100%" height="100%" viewBox="0 0 261 30" version="1.1" xmlns="http://www.w3.org/2000/svg" xmlns:xlink="http://www.w3.org/1999/xlink" xml:space="preserve" xmlns:serif="http://www.serif.com/" style="fill-rule:evenodd;clip-rule:evenodd;stroke-linejoin:round;stroke-miterlimit:1.41421;">
    <g transform="matrix(1,0,0,1,-289,-354)">
        <g transform="matrix(0.615852,0,0,0.631743,-250.481,330.165)">
            <g transform="matrix(1.1121,0,0,1.07538,834.204,-2.91926)">
                <path d="M418.267,43.141C418.267,41.97 417.806,40.846 416.984,40.018C416.163,39.19 415.049,38.725 413.887,38.725C374.473,38.725 81.456,38.725 42.042,38.725C40.881,38.725 39.766,39.19 38.945,40.018C38.124,40.846 37.662,41.97 37.662,43.141C37.662,53.93 37.662,80.756 37.662,80.756L418.267,80.756C418.267,80.756 418.267,53.93 418.267,43.141Z" style="fill:rgb(255,57,37);"/>
            </g>
        </g>
    </g>
</svg>
