<?xml version="1.0" encoding="UTF-8" standalone="no"?>
<!DOCTYPE svg PUBLIC "-//W3C//DTD SVG 1.1//EN" "http://www.w3.org/Graphics/SVG/1.1/DTD/svg11.dtd">
<svg width="100%" height="100%" viewBox="0 0 262 192" version="1.1" xmlns="http://www.w3.org/2000/svg" xmlns:xlink="http://www.w3.org/1999/xlink" xml:space="preserve" xmlns:serif="http://www.serif.com/" style="fill-rule:evenodd;clip-rule:evenodd;stroke-linejoin:round;stroke-miterlimit:1.41421;">
    <g transform="matrix(1,0,0,1,-917,-371)">
        <g transform="matrix(1,0,0,1,7,0)">
            <g>
                <g transform="matrix(1.41039,0,0,1.41039,248.276,-397.114)">
                    <path d="M469.87,671.03L469.87,642.51L495.099,633.186L508.81,637.574L508.81,675.966L495.099,680.099L469.87,671.03L495.099,674.066L495.099,640.865L478.645,644.704L478.645,667.191L469.87,671.03Z" style="fill:rgb(235,60,0);fill-rule:nonzero;"/>
                </g>
                <g>
                    <g id="path3005" transform="matrix(1.33476,0,0,-1.33476,1002.56,446.341)">
                        <path d="M0,0C2.264,2.359 5.416,3.822 8.902,3.822C13.536,3.822 17.579,1.238 19.732,-2.598C21.603,-1.762 23.674,-1.297 25.853,-1.297C34.211,-1.297 40.987,-8.132 40.987,-16.563C40.987,-24.995 34.211,-31.83 25.853,-31.83C24.833,-31.83 23.836,-31.728 22.872,-31.533C20.976,-34.915 17.363,-37.2 13.216,-37.2C11.48,-37.2 9.838,-36.799 8.376,-36.086C6.454,-40.607 1.976,-43.777 -3.243,-43.777C-8.678,-43.777 -13.31,-40.338 -15.088,-35.515C-15.865,-35.68 -16.67,-35.766 -17.496,-35.766C-23.967,-35.766 -29.213,-30.466 -29.213,-23.927C-29.213,-19.545 -26.856,-15.719 -23.354,-13.672C-24.075,-12.013 -24.476,-10.182 -24.476,-8.257C-24.476,-0.737 -18.371,5.359 -10.841,5.359C-6.42,5.359 -2.491,3.257 0,0" style="fill:rgb(0,161,224);fill-rule:nonzero;"/>
                    </g>
                    <g id="path3009" transform="matrix(1.33476,0,0,-1.33476,977.136,473.199)">
                        <path d="M0,0C-0.044,-0.115 0.016,-0.139 0.03,-0.159C0.162,-0.255 0.296,-0.324 0.431,-0.401C1.147,-0.781 1.823,-0.892 2.53,-0.892C3.97,-0.892 4.864,-0.126 4.864,1.107L4.864,1.131C4.864,2.271 3.855,2.685 2.908,2.984L2.785,3.024C2.071,3.256 1.455,3.456 1.455,3.926L1.455,3.951C1.455,4.353 1.815,4.649 2.373,4.649C2.993,4.649 3.729,4.443 4.203,4.181C4.203,4.181 4.342,4.091 4.393,4.226C4.421,4.298 4.661,4.944 4.686,5.014C4.713,5.09 4.665,5.146 4.616,5.176C4.075,5.505 3.327,5.73 2.553,5.73L2.409,5.729C1.091,5.729 0.171,4.933 0.171,3.792L0.171,3.768C0.171,2.565 1.186,2.175 2.137,1.903L2.29,1.856C2.983,1.643 3.58,1.46 3.58,0.972L3.58,0.948C3.58,0.502 3.192,0.17 2.566,0.17C2.323,0.17 1.548,0.175 0.711,0.704C0.61,0.763 0.551,0.806 0.473,0.853C0.432,0.879 0.329,0.924 0.284,0.788L0,0Z" style="fill:white;fill-rule:nonzero;"/>
                    </g>
                    <g id="path3013" transform="matrix(1.33476,0,0,-1.33476,1005.27,473.199)">
                        <path d="M0,0C-0.044,-0.115 0.016,-0.139 0.03,-0.159C0.162,-0.255 0.296,-0.324 0.431,-0.401C1.147,-0.781 1.823,-0.892 2.53,-0.892C3.97,-0.892 4.864,-0.126 4.864,1.107L4.864,1.131C4.864,2.271 3.855,2.685 2.908,2.984L2.785,3.024C2.071,3.256 1.455,3.456 1.455,3.926L1.455,3.951C1.455,4.353 1.815,4.649 2.373,4.649C2.993,4.649 3.729,4.443 4.203,4.181C4.203,4.181 4.342,4.091 4.393,4.226C4.421,4.298 4.661,4.944 4.686,5.014C4.713,5.09 4.665,5.146 4.616,5.176C4.075,5.505 3.327,5.73 2.553,5.73L2.409,5.729C1.091,5.729 0.171,4.933 0.171,3.792L0.171,3.768C0.171,2.565 1.186,2.175 2.137,1.903L2.29,1.856C2.983,1.643 3.581,1.46 3.581,0.972L3.581,0.948C3.581,0.502 3.192,0.17 2.566,0.17C2.323,0.17 1.548,0.175 0.711,0.704C0.61,0.763 0.55,0.804 0.474,0.853C0.448,0.87 0.326,0.917 0.284,0.788L0,0Z" style="fill:white;fill-rule:nonzero;"/>
                    </g>
                    <g id="path3017" transform="matrix(1.33476,0,0,-1.33476,1024.48,469.975)">
                        <path d="M0,0C0,-0.697 -0.13,-1.246 -0.386,-1.634C-0.639,-2.018 -1.022,-2.205 -1.556,-2.205C-2.091,-2.205 -2.472,-2.019 -2.721,-1.634C-2.973,-1.247 -3.101,-0.697 -3.101,0C-3.101,0.696 -2.973,1.244 -2.721,1.628C-2.472,2.008 -2.091,2.193 -1.556,2.193C-1.022,2.193 -0.639,2.008 -0.385,1.628C-0.13,1.244 0,0.696 0,0M1.202,1.292C1.084,1.691 0.9,2.043 0.655,2.336C0.41,2.63 0.1,2.866 -0.268,3.038C-0.635,3.209 -1.069,3.296 -1.556,3.296C-2.044,3.296 -2.478,3.209 -2.845,3.038C-3.213,2.866 -3.523,2.63 -3.769,2.336C-4.013,2.042 -4.197,1.69 -4.316,1.292C-4.433,0.895 -4.492,0.461 -4.492,0C-4.492,-0.461 -4.433,-0.896 -4.316,-1.292C-4.197,-1.69 -4.014,-2.042 -3.768,-2.336C-3.523,-2.63 -3.212,-2.865 -2.845,-3.032C-2.477,-3.199 -2.044,-3.284 -1.556,-3.284C-1.069,-3.284 -0.636,-3.199 -0.268,-3.032C0.099,-2.865 0.41,-2.63 0.655,-2.336C0.9,-2.043 1.084,-1.691 1.202,-1.292C1.32,-0.895 1.379,-0.46 1.379,0C1.379,0.46 1.32,0.895 1.202,1.292" style="fill:white;fill-rule:nonzero;"/>
                    </g>
                    <g id="path3021" transform="matrix(1.33476,0,0,-1.33476,1039.26,472.67)">
                        <path d="M0,0C-0.04,0.117 -0.153,0.073 -0.153,0.073C-0.328,0.006 -0.514,-0.056 -0.712,-0.087C-0.913,-0.118 -1.134,-0.134 -1.371,-0.134C-1.953,-0.134 -2.415,0.039 -2.746,0.381C-3.078,0.723 -3.264,1.276 -3.262,2.024C-3.26,2.705 -3.096,3.217 -2.801,3.607C-2.508,3.995 -2.062,4.194 -1.467,4.194C-0.971,4.194 -0.593,4.137 -0.197,4.012C-0.197,4.012 -0.102,3.971 -0.057,4.095C0.048,4.387 0.126,4.596 0.238,4.917C0.27,5.008 0.192,5.047 0.164,5.058C0.008,5.119 -0.36,5.218 -0.638,5.26C-0.898,5.3 -1.202,5.321 -1.54,5.321C-2.045,5.321 -2.495,5.235 -2.88,5.063C-3.264,4.892 -3.59,4.656 -3.848,4.362C-4.106,4.068 -4.302,3.716 -4.433,3.318C-4.563,2.921 -4.629,2.485 -4.629,2.024C-4.629,1.027 -4.36,0.221 -3.829,-0.369C-3.297,-0.961 -2.498,-1.262 -1.456,-1.262C-0.84,-1.262 -0.208,-1.137 0.246,-0.958C0.246,-0.958 0.333,-0.916 0.295,-0.815L0,0Z" style="fill:white;"/>
                    </g>
                    <g id="path3025" transform="matrix(1.33476,0,0,-1.33476,1042.07,469.084)">
                        <path d="M0,0C0.057,0.387 0.164,0.709 0.329,0.96C0.578,1.341 0.958,1.55 1.492,1.55C2.026,1.55 2.379,1.34 2.632,0.96C2.8,0.709 2.873,0.373 2.902,0L0,0ZM4.047,0.851C3.945,1.236 3.692,1.625 3.526,1.803C3.264,2.085 3.008,2.282 2.754,2.392C2.422,2.534 2.024,2.628 1.588,2.628C1.08,2.628 0.619,2.543 0.245,2.367C-0.13,2.191 -0.445,1.951 -0.692,1.652C-0.939,1.354 -1.125,0.999 -1.243,0.596C-1.362,0.195 -1.422,-0.242 -1.422,-0.703C-1.422,-1.172 -1.36,-1.609 -1.237,-2.002C-1.113,-2.398 -0.915,-2.747 -0.647,-3.036C-0.38,-3.327 -0.036,-3.555 0.376,-3.714C0.785,-3.872 1.282,-3.954 1.853,-3.953C3.028,-3.949 3.647,-3.687 3.902,-3.546C3.947,-3.521 3.99,-3.477 3.936,-3.351L3.67,-2.606C3.63,-2.495 3.517,-2.536 3.517,-2.536C3.226,-2.644 2.812,-2.838 1.847,-2.836C1.216,-2.835 0.748,-2.649 0.455,-2.358C0.154,-2.06 0.007,-1.622 -0.019,-1.004L4.05,-1.008C4.05,-1.008 4.157,-1.006 4.168,-0.902C4.172,-0.858 4.308,-0.066 4.047,0.851" style="fill:white;"/>
                    </g>
                    <g id="path3029" transform="matrix(1.33476,0,0,-1.33476,998.574,469.084)">
                        <path d="M0,0C0.058,0.387 0.164,0.709 0.329,0.96C0.578,1.341 0.958,1.55 1.492,1.55C2.026,1.55 2.379,1.34 2.633,0.96C2.8,0.709 2.873,0.373 2.902,0L0,0ZM4.046,0.851C3.944,1.236 3.692,1.625 3.526,1.803C3.264,2.085 3.008,2.282 2.754,2.392C2.422,2.534 2.024,2.628 1.588,2.628C1.081,2.628 0.619,2.543 0.245,2.367C-0.13,2.191 -0.445,1.951 -0.692,1.652C-0.939,1.354 -1.125,0.999 -1.243,0.596C-1.361,0.195 -1.422,-0.242 -1.422,-0.703C-1.422,-1.172 -1.36,-1.609 -1.237,-2.002C-1.113,-2.398 -0.915,-2.747 -0.647,-3.036C-0.38,-3.327 -0.036,-3.555 0.376,-3.714C0.785,-3.872 1.282,-3.954 1.853,-3.953C3.028,-3.949 3.647,-3.687 3.902,-3.546C3.947,-3.521 3.99,-3.477 3.936,-3.351L3.671,-2.606C3.63,-2.495 3.517,-2.536 3.517,-2.536C3.226,-2.644 2.813,-2.838 1.846,-2.836C1.216,-2.835 0.748,-2.649 0.455,-2.358C0.154,-2.06 0.007,-1.622 -0.019,-1.004L4.05,-1.008C4.05,-1.008 4.157,-1.006 4.168,-0.902C4.172,-0.858 4.308,-0.066 4.046,0.851" style="fill:white;"/>
                    </g>
                    <g id="path3033" transform="matrix(1.33476,0,0,-1.33476,986.834,472.64)">
                        <path d="M0,0C-0.159,0.127 -0.181,0.159 -0.235,0.241C-0.315,0.366 -0.356,0.544 -0.356,0.77C-0.356,1.128 -0.238,1.385 0.007,1.558C0.004,1.557 0.357,1.863 1.187,1.852C1.77,1.844 2.291,1.758 2.291,1.758L2.291,-0.092L2.292,-0.092C2.292,-0.092 1.775,-0.203 1.193,-0.238C0.365,-0.288 -0.003,0.001 0,0M1.619,2.859C1.454,2.871 1.24,2.878 0.984,2.878C0.635,2.878 0.298,2.834 -0.018,2.749C-0.336,2.664 -0.622,2.531 -0.868,2.355C-1.115,2.178 -1.314,1.952 -1.458,1.684C-1.602,1.416 -1.675,1.1 -1.675,0.746C-1.675,0.386 -1.613,0.073 -1.489,-0.183C-1.365,-0.44 -1.186,-0.654 -0.958,-0.819C-0.732,-0.984 -0.453,-1.105 -0.129,-1.178C0.19,-1.251 0.552,-1.288 0.948,-1.288C1.365,-1.288 1.781,-1.254 2.184,-1.185C2.583,-1.117 3.073,-1.018 3.209,-0.987C3.344,-0.955 3.494,-0.914 3.494,-0.914C3.595,-0.889 3.587,-0.781 3.587,-0.781L3.585,2.94C3.585,3.756 3.367,4.361 2.938,4.736C2.511,5.11 1.882,5.299 1.069,5.299C0.764,5.299 0.273,5.257 -0.021,5.198C-0.021,5.198 -0.91,5.026 -1.276,4.74C-1.276,4.74 -1.356,4.69 -1.312,4.578L-1.024,3.804C-0.988,3.704 -0.891,3.738 -0.891,3.738C-0.891,3.738 -0.86,3.75 -0.824,3.771C-0.041,4.197 0.949,4.184 0.949,4.184C1.389,4.184 1.727,4.096 1.955,3.921C2.177,3.751 2.29,3.494 2.29,2.952L2.29,2.78C1.94,2.83 1.619,2.859 1.619,2.859" style="fill:white;fill-rule:nonzero;"/>
                    </g>
                    <g id="path3037" transform="matrix(1.33476,0,0,-1.33476,1032.8,466.026)">
                        <path d="M0,0C0.031,0.092 -0.034,0.136 -0.061,0.146C-0.13,0.173 -0.476,0.246 -0.743,0.263C-1.254,0.294 -1.538,0.208 -1.792,0.094C-2.044,-0.02 -2.324,-0.204 -2.48,-0.413L-2.48,0.082C-2.48,0.151 -2.529,0.206 -2.597,0.206L-3.64,0.206C-3.708,0.206 -3.757,0.151 -3.757,0.082L-3.757,-5.987C-3.757,-6.055 -3.701,-6.111 -3.633,-6.111L-2.564,-6.111C-2.496,-6.111 -2.441,-6.055 -2.441,-5.987L-2.441,-2.955C-2.441,-2.548 -2.396,-2.142 -2.306,-1.887C-2.218,-1.635 -2.098,-1.433 -1.95,-1.288C-1.801,-1.144 -1.632,-1.043 -1.447,-0.986C-1.258,-0.928 -1.049,-0.909 -0.901,-0.909C-0.688,-0.909 -0.454,-0.964 -0.454,-0.964C-0.376,-0.973 -0.332,-0.925 -0.306,-0.854C-0.236,-0.668 -0.038,-0.111 0,0" style="fill:white;"/>
                    </g>
                    <g id="path3041" transform="matrix(1.33476,0,0,-1.33476,1019.41,462.271)">
                        <path d="M0,0C-0.13,0.04 -0.248,0.067 -0.402,0.096C-0.558,0.124 -0.744,0.138 -0.955,0.138C-1.691,0.138 -2.271,-0.07 -2.678,-0.48C-3.083,-0.888 -3.358,-1.509 -3.496,-2.326L-3.546,-2.601L-4.47,-2.601C-4.47,-2.601 -4.582,-2.597 -4.606,-2.719L-4.757,-3.566C-4.768,-3.646 -4.733,-3.697 -4.625,-3.697L-3.726,-3.697L-4.638,-8.789C-4.709,-9.199 -4.791,-9.536 -4.882,-9.792C-4.971,-10.044 -5.058,-10.233 -5.166,-10.371C-5.27,-10.503 -5.368,-10.601 -5.538,-10.658C-5.678,-10.705 -5.84,-10.727 -6.017,-10.727C-6.115,-10.727 -6.246,-10.711 -6.343,-10.691C-6.439,-10.672 -6.49,-10.651 -6.563,-10.62C-6.563,-10.62 -6.668,-10.58 -6.71,-10.685C-6.743,-10.772 -6.983,-11.431 -7.012,-11.512C-7.04,-11.593 -7,-11.656 -6.949,-11.675C-6.829,-11.717 -6.74,-11.745 -6.577,-11.784C-6.351,-11.837 -6.16,-11.84 -5.981,-11.84C-5.607,-11.84 -5.265,-11.787 -4.982,-11.685C-4.698,-11.582 -4.45,-11.403 -4.23,-11.161C-3.993,-10.899 -3.844,-10.625 -3.702,-10.25C-3.561,-9.88 -3.44,-9.42 -3.344,-8.884L-2.427,-3.697L-1.087,-3.697C-1.087,-3.697 -0.974,-3.701 -0.951,-3.578L-0.799,-2.732C-0.789,-2.651 -0.823,-2.601 -0.932,-2.601L-2.233,-2.601C-2.226,-2.572 -2.167,-2.114 -2.018,-1.683C-1.954,-1.5 -1.834,-1.351 -1.733,-1.249C-1.633,-1.149 -1.518,-1.078 -1.392,-1.037C-1.263,-0.995 -1.116,-0.975 -0.955,-0.975C-0.833,-0.975 -0.712,-0.989 -0.621,-1.008C-0.495,-1.035 -0.446,-1.049 -0.413,-1.059C-0.28,-1.099 -0.262,-1.06 -0.236,-0.996L0.075,-0.142C0.107,-0.05 0.028,-0.011 0,0" style="fill:white;"/>
                    </g>
                    <g id="path3045" transform="matrix(1.33476,0,0,-1.33476,995.144,474.017)">
                        <path d="M0,0C0,-0.068 -0.049,-0.123 -0.117,-0.123L-1.196,-0.123C-1.264,-0.123 -1.312,-0.068 -1.312,0L-1.312,8.684C-1.312,8.752 -1.264,8.807 -1.196,8.807L-0.117,8.807C-0.049,8.807 0,8.752 0,8.684L0,0Z" style="fill:white;"/>
                    </g>
                </g>
                <g>
                    <g transform="matrix(1.86679,0,0,1.86679,1059.19,371)">
                        <clipPath id="_clip1">
                            <path d="M44.5,20L24,20L24,28.5L35.8,28.5C34.7,33.9 30.1,37 24,37C16.8,37 11,31.2 11,24C11,16.8 16.8,11 24,11C27.1,11 29.9,12.1 32.1,13.9L38.5,7.5C34.6,4.1 29.6,2 24,2C11.8,2 2,11.8 2,24C2,36.2 11.8,46 24,46C35,46 45,38 45,24C45,22.7 44.8,21.3 44.5,20Z"/>
                        </clipPath>
                        <g clip-path="url(#_clip1)">
                            <path d="M0,37L0,11L17,24L0,37Z" style="fill:rgb(251,188,5);fill-rule:nonzero;"/>
                        </g>
                    </g>
                    <g transform="matrix(1.86679,0,0,1.86679,1059.19,371)">
                        <clipPath id="_clip2">
                            <path d="M44.5,20L24,20L24,28.5L35.8,28.5C34.7,33.9 30.1,37 24,37C16.8,37 11,31.2 11,24C11,16.8 16.8,11 24,11C27.1,11 29.9,12.1 32.1,13.9L38.5,7.5C34.6,4.1 29.6,2 24,2C11.8,2 2,11.8 2,24C2,36.2 11.8,46 24,46C35,46 45,38 45,24C45,22.7 44.8,21.3 44.5,20Z"/>
                        </clipPath>
                        <g clip-path="url(#_clip2)">
                            <path d="M0,11L17,24L24,17.9L48,14L48,0L0,0L0,11Z" style="fill:rgb(234,67,53);fill-rule:nonzero;"/>
                        </g>
                    </g>
                    <g transform="matrix(1.86679,0,0,1.86679,1059.19,371)">
                        <clipPath id="_clip3">
                            <path d="M44.5,20L24,20L24,28.5L35.8,28.5C34.7,33.9 30.1,37 24,37C16.8,37 11,31.2 11,24C11,16.8 16.8,11 24,11C27.1,11 29.9,12.1 32.1,13.9L38.5,7.5C34.6,4.1 29.6,2 24,2C11.8,2 2,11.8 2,24C2,36.2 11.8,46 24,46C35,46 45,38 45,24C45,22.7 44.8,21.3 44.5,20Z"/>
                        </clipPath>
                        <g clip-path="url(#_clip3)">
                            <path d="M0,37L30,14L37.9,15L48,0L48,48L0,48L0,37Z" style="fill:rgb(52,168,83);fill-rule:nonzero;"/>
                        </g>
                    </g>
                    <g transform="matrix(1.86679,0,0,1.86679,1059.19,371)">
                        <clipPath id="_clip4">
                            <path d="M44.5,20L24,20L24,28.5L35.8,28.5C34.7,33.9 30.1,37 24,37C16.8,37 11,31.2 11,24C11,16.8 16.8,11 24,11C27.1,11 29.9,12.1 32.1,13.9L38.5,7.5C34.6,4.1 29.6,2 24,2C11.8,2 2,11.8 2,24C2,36.2 11.8,46 24,46C35,46 45,38 45,24C45,22.7 44.8,21.3 44.5,20Z"/>
                        </clipPath>
                        <g clip-path="url(#_clip4)">
                            <path d="M48,48L17,24L13,21L48,11L48,48Z" style="fill:rgb(66,133,244);fill-rule:nonzero;"/>
                        </g>
                    </g>
                </g>
                <g>
                    <g id="path4168" transform="matrix(0.685944,0,0,-0.685944,1124.24,509.177)">
                        <path d="M0,0C-8.688,-0.052 -15.781,6.945 -15.826,15.634C-15.892,24.322 -8.894,31.404 -0.199,31.457C8.489,31.522 15.578,24.524 15.637,15.836C15.696,7.141 8.698,0.052 0,0M-46.337,-0.294C-55.031,-0.353 -62.12,6.645 -62.172,15.327C-62.231,24.022 -55.234,31.11 -46.535,31.163C-37.857,31.222 -30.762,24.224 -30.703,15.542C-30.654,6.847 -37.655,-0.248 -46.337,-0.294M-0.271,41.964C-10.32,41.892 -18.999,36.189 -23.353,27.879C-27.817,36.143 -36.564,41.733 -46.604,41.664C-52.515,41.628 -57.949,39.644 -62.31,36.326L-62.453,58.411C-62.535,61.263 -64.875,63.538 -67.734,63.519C-70.596,63.502 -72.91,61.198 -72.936,58.346L-72.669,14.831L-72.656,14.831C-72.336,0.542 -60.616,-10.888 -46.274,-10.797C-36.235,-10.732 -27.556,-5.027 -23.189,3.29C-18.737,-4.968 -9.971,-10.562 0.069,-10.497C14.553,-10.405 26.218,1.416 26.13,15.901C26.035,30.386 14.221,42.056 -0.271,41.964" style="fill:rgb(34,167,240);fill-rule:nonzero;"/>
                    </g>
                    <g id="path4172" transform="matrix(0.685944,0,0,-0.685944,1170.79,510.421)">
                        <path d="M0,0L-14.726,17.866L-0.228,35.921L-0.235,35.921C1.56,38.238 1.012,41.468 -1.475,43.172C-3.988,44.869 -7.5,44.412 -9.393,42.159L-9.393,42.169L-21.92,26.58L-34.629,42.004L-34.629,41.991C-36.555,44.225 -40.086,44.643 -42.554,42.908C-45.04,41.171 -45.537,37.944 -43.709,35.633L-28.992,17.775L-43.484,-0.275C-45.282,-2.605 -44.734,-5.824 -42.224,-7.526C-39.734,-9.23 -36.212,-8.773 -34.319,-6.516L-21.809,9.06L-9.086,-6.358C-7.164,-8.591 -3.642,-9.003 -1.152,-7.272C1.325,-5.523 1.821,-2.305 0,0" style="fill:rgb(34,167,240);fill-rule:nonzero;"/>
                    </g>
                </g>
                <g>
                    <g transform="matrix(0.518902,0,0,0.518902,1003.04,526.575)">
                        <path d="M37.6,12L18.8,24L37.6,36L18.8,48L0,35.9L18.8,23.9L0,12L18.8,0L37.6,12ZM18.7,51.8L37.5,39.8L56.3,51.8L37.5,63.8L18.7,51.8ZM37.6,35.9L56.4,23.9L37.6,12L56.3,0L75.1,12L56.3,24L75.1,36L56.3,48L37.6,35.9Z" style="fill:rgb(0,97,255);fill-rule:nonzero;"/>
                    </g>
                    <g transform="matrix(0.518902,0,0,0.518902,1003.04,526.575)">
                        <path d="M89.8,12L105,12C114.7,12 122.7,17.6 122.7,30.4L122.7,33.1C122.7,46 115.2,51.8 105.3,51.8L89.8,51.8L89.8,12ZM98.3,19.2L98.3,44.5L104.8,44.5C110.3,44.5 114,40.9 114,32.9L114,30.8C114,22.8 110.1,19.2 104.5,19.2L98.3,19.2ZM127.2,19.6L134,19.6L135.1,27.1C136.4,22 139.7,19.3 145.7,19.3L147.8,19.3L147.8,27.9L144.3,27.9C137.4,27.9 135.7,30.3 135.7,37.1L135.7,51.9L127.3,51.9L127.3,19.6L127.2,19.6ZM149.5,36.4L149.5,35.5C149.5,24.7 156.4,18.8 165.8,18.8C175.4,18.8 182.1,24.7 182.1,35.5L182.1,36.4C182.1,47 175.6,52.7 165.8,52.7C155.4,52.6 149.5,47 149.5,36.4ZM173.5,36.3L173.5,35.5C173.5,29.5 170.5,25.9 165.7,25.9C161,25.9 157.9,29.2 157.9,35.5L157.9,36.3C157.9,42.1 160.9,45.4 165.7,45.4C170.5,45.3 173.5,42.1 173.5,36.3ZM186.5,19.6L193.5,19.6L194.3,25.7C196,21.6 199.6,18.8 204.9,18.8C213.1,18.8 218.5,24.7 218.5,35.6L218.5,36.5C218.5,47.1 212.5,52.7 204.9,52.7C199.8,52.7 196.3,50.4 194.6,46.7L194.6,63L186.4,63L186.5,19.6ZM210,36.3L210,35.6C210,29.2 206.7,26 202.3,26C197.6,26 194.5,29.6 194.5,35.6L194.5,36.2C194.5,41.9 197.5,45.5 202.2,45.5C207,45.4 210,42.3 210,36.3ZM230.9,45.9L230.2,51.8L223,51.8L223,8.8L231.2,8.8L231.2,25.3C233,21.1 236.6,18.8 241.7,18.8C249.4,18.9 255.1,24.2 255.1,34.9L255.1,35.9C255.1,46.6 249.7,52.7 241.5,52.7C236.1,52.6 232.6,50.1 230.9,45.9ZM246.5,35.9L246.5,35.1C246.5,29.2 243.3,25.9 238.8,25.9C234.2,25.9 231,29.6 231,35.2L231,35.9C231,41.9 234.1,45.4 238.7,45.4C243.6,45.4 246.5,42.3 246.5,35.9ZM258.7,36.4L258.7,35.5C258.7,24.7 265.6,18.8 275,18.8C284.6,18.8 291.3,24.7 291.3,35.5L291.3,36.4C291.3,47 284.7,52.7 275,52.7C264.6,52.6 258.7,47 258.7,36.4ZM282.8,36.3L282.8,35.5C282.8,29.5 279.8,25.9 275,25.9C270.3,25.9 267.2,29.2 267.2,35.5L267.2,36.3C267.2,42.1 270.2,45.4 275,45.4C279.8,45.3 282.8,42.1 282.8,36.3ZM302.3,35.1L291,19.6L300.7,19.6L307.2,29.3L313.8,19.6L323.4,19.6L311.9,35L324,51.8L314.5,51.8L307.1,41.1L299.9,51.8L290,51.8L302.3,35.1Z" style="fill-rule:nonzero;"/>
                    </g>
                </g>
            </g>
        </g>
    </g>
</svg>
