<?xml version="1.0" encoding="UTF-8" standalone="no"?>
<!DOCTYPE svg PUBLIC "-//W3C//DTD SVG 1.1//EN" "http://www.w3.org/Graphics/SVG/1.1/DTD/svg11.dtd">
<svg width="100%" height="100%" viewBox="0 0 128 120" version="1.1" xmlns="http://www.w3.org/2000/svg" xmlns:xlink="http://www.w3.org/1999/xlink" xml:space="preserve" xmlns:serif="http://www.serif.com/" style="fill-rule:evenodd;clip-rule:evenodd;stroke-linejoin:round;stroke-miterlimit:1.41421;">
    <g transform="matrix(1,0,0,1,-851,-464)">
        <g transform="matrix(1,0,0,1,-0.684275,0)">
            <g transform="matrix(1.55601,0,0,1.55601,371.226,419.586)">
                <path d="M349.973,52.349C352.724,52.349 354.954,54.578 354.954,57.329C354.954,60.079 352.724,62.308 349.973,62.308L349.973,60.973C351.986,60.973 353.618,59.341 353.618,57.329C353.618,55.316 351.986,53.685 349.973,53.685L349.973,52.349ZM349.973,90.752L349.973,89.416C354.93,89.416 358.948,85.399 358.948,80.442C358.948,75.486 354.93,71.468 349.973,71.468L349.973,70.132C355.667,70.132 360.284,74.748 360.284,80.442C360.284,86.136 355.667,90.752 349.973,90.752ZM343.274,76.575C343.669,75.889 344.546,75.654 345.232,76.05C345.917,76.446 346.153,77.322 345.756,78.008C345.361,78.693 344.484,78.928 343.798,78.532C343.113,78.137 342.878,77.26 343.274,76.575ZM343.274,84.31C342.878,83.625 343.113,82.748 343.798,82.352C344.484,81.956 345.361,82.191 345.756,82.877C346.153,83.562 345.917,84.439 345.232,84.835C344.546,85.23 343.669,84.996 343.274,84.31ZM349.973,88.178C349.182,88.178 348.541,87.537 348.541,86.745C348.541,85.954 349.182,85.312 349.973,85.312C350.765,85.312 351.407,85.954 351.407,86.745C351.407,87.537 350.765,88.178 349.973,88.178ZM356.673,84.31C356.277,84.996 355.401,85.23 354.715,84.835C354.03,84.439 353.794,83.562 354.19,82.877C354.586,82.192 355.463,81.956 356.148,82.352C356.834,82.748 357.069,83.625 356.673,84.31ZM356.673,76.575C357.069,77.26 356.834,78.137 356.148,78.532C355.463,78.928 354.586,78.693 354.19,78.008C353.794,77.322 354.03,76.446 354.715,76.05C355.401,75.654 356.277,75.889 356.673,76.575ZM349.973,72.706C350.765,72.706 351.407,73.348 351.407,74.14C351.407,74.931 350.765,75.573 349.973,75.573C349.182,75.573 348.541,74.931 348.541,74.14C348.541,73.348 349.182,72.706 349.973,72.706ZM349.973,76.469C352.167,76.469 353.947,78.248 353.947,80.442C353.947,82.637 352.167,84.415 349.973,84.415C347.78,84.415 346,82.637 346,80.442C346,78.248 347.78,76.469 349.973,76.469ZM349.973,55.342C351.071,55.342 351.96,56.231 351.96,57.329C351.96,58.426 351.071,59.315 349.973,59.315C348.876,59.315 347.987,58.426 347.987,57.329C347.987,56.231 348.876,55.342 349.973,55.342ZM343.664,55.447C344.473,52.728 346.992,50.746 349.973,50.746C352.987,50.746 355.527,52.771 356.308,55.534L361.157,77.236C361.449,78.254 361.605,79.33 361.605,80.442C361.605,86.866 356.398,92.074 349.973,92.074C344.572,92.074 340.031,88.392 338.722,83.401C338.196,81.394 338.217,79.247 338.786,77.251L343.664,55.447ZM327.424,78.394C328.166,78.394 328.765,78.995 328.765,79.735C328.765,80.475 328.166,81.075 327.424,81.075C326.684,81.075 326.084,80.475 326.084,79.735C326.084,78.995 326.684,78.394 327.424,78.394ZM370.939,82.251C372.533,82.251 373.826,83.543 373.826,85.137C373.826,86.732 372.533,88.024 370.939,88.024C369.344,88.024 368.052,86.732 368.052,85.137C368.052,83.543 369.344,82.251 370.939,82.251ZM370.939,67.961C371.935,67.961 372.743,68.768 372.743,69.765C372.743,70.762 371.935,71.569 370.939,71.569C369.943,71.569 369.135,70.762 369.135,69.765C369.135,68.768 369.943,67.961 370.939,67.961ZM370.939,80.01C372.077,80.01 373.128,80.381 373.978,81.008L373.98,74.083C373.121,74.69 372.071,75.047 370.939,75.047C368.022,75.047 365.658,72.682 365.658,69.765C365.658,67.153 367.554,64.984 370.045,64.559L358.417,56.587L358.088,55.075L371.955,64.582C374.385,65.056 376.22,67.196 376.22,69.765C376.22,71.024 375.78,72.179 375.044,73.086L375.043,82.064C375.686,82.92 376.066,83.984 376.066,85.137C376.066,87.969 373.771,90.265 370.939,90.265C369.931,90.265 368.991,89.974 368.199,89.472L359.889,89.474C360.198,89.135 360.49,88.779 360.764,88.409L366.99,88.407C366.253,87.519 365.812,86.38 365.812,85.137C365.812,82.306 368.107,80.01 370.939,80.01ZM327.617,75.814L338.125,72.417L337.854,73.625L329.417,76.352C330.574,77.035 331.35,78.294 331.35,79.735C331.35,81.248 330.493,82.561 329.238,83.216L337.953,86.396C338.2,86.893 338.476,87.373 338.781,87.833L327.341,83.659C325.212,83.614 323.5,81.874 323.5,79.735C323.5,77.491 325.377,75.705 327.617,75.814ZM335.914,66.473C336.525,66.473 337.02,66.968 337.02,67.58C337.02,68.191 336.525,68.687 335.914,68.687C335.301,68.687 334.806,68.191 334.806,67.58C334.806,66.968 335.301,66.473 335.914,66.473ZM335.914,65.105C337.28,65.105 338.387,66.213 338.387,67.58C338.387,68.946 337.28,70.054 335.914,70.054C334.546,70.054 333.439,68.946 333.439,67.58C333.439,66.213 334.546,65.105 335.914,65.105ZM349.973,68.811C347.035,68.811 344.351,69.901 342.303,71.699L344.646,61.195C345.842,62.841 347.783,63.911 349.973,63.911C352.164,63.911 354.103,62.841 355.3,61.197L357.642,71.698C355.595,69.901 352.912,68.811 349.973,68.811ZM335.972,96.776L363.975,96.776L362.91,102.824C362.667,104.201 361.711,105.364 360.247,105.364L339.701,105.364C338.236,105.364 337.28,104.202 337.038,102.824L335.972,96.776ZM367.38,46.518L332.566,46.518C331.932,46.479 331.328,46.313 330.772,45.935C327.684,43.889 324.681,41.819 321.692,39.637C321.295,39.348 320.802,39.233 320.435,39.556L316.636,42.898L316.122,42.583C315.913,42.455 315.677,42.381 315.494,42.543L311.886,45.716C311.703,45.878 311.746,46.122 311.846,46.345L312.092,46.894L309.258,49.815C308.984,50.098 308.912,50.402 308.919,50.728L308.999,53.265C309.008,53.768 309.188,54.199 309.473,54.584L311.276,56.827L319.088,49.952L320.061,51.161L312.773,57.581L315.891,61.463L317.111,61.336L322.088,67.535L321.721,68.724L324.68,72.408L322.755,72.8C321.315,73.094 320.083,74.003 320.083,75.473L320.083,84.209C320.083,85.678 321.292,86.745 322.755,86.881L332.22,87.756L333.882,93.367C334.209,94.652 335.264,95.254 336.541,95.254L363.407,95.254C364.683,95.254 365.738,94.652 366.065,93.367L366.427,92.146C367.727,92.985 369.276,93.473 370.939,93.473C375.488,93.473 379.333,89.717 379.274,85.13L379.274,65.773L382.836,61.336L384.056,61.463L387.174,57.581L379.886,51.161L380.859,49.952L388.671,56.827L390.474,54.584C390.759,54.199 390.939,53.768 390.949,53.265L391.028,50.728C391.036,50.402 390.963,50.098 390.689,49.815L387.855,46.894L388.101,46.345C388.202,46.122 388.245,45.878 388.061,45.716L384.454,42.543C384.27,42.381 384.034,42.455 383.825,42.583L383.311,42.898L379.512,39.556C379.145,39.233 378.652,39.348 378.255,39.637C375.266,41.819 372.263,43.889 369.175,45.935C368.62,46.313 368.015,46.479 367.38,46.518ZM354.237,28.689L345.71,28.689C345.354,28.689 345.063,28.98 345.063,29.336L345.063,30.702L345.79,30.969L345.995,31.594L339.638,31.594L340.989,38.428C341.008,38.529 341.089,38.799 341.186,38.865L358.761,38.865C358.857,38.799 358.939,38.529 358.958,38.428L360.309,31.594L353.953,31.594L354.158,30.969L354.884,30.702L354.884,29.336C354.884,28.98 354.593,28.689 354.237,28.689ZM322.726,34.266C325.505,33.077 333.93,30.834 337.214,30.752C337.706,30.74 338.108,31.009 338.22,31.559L339.677,38.687C339.844,39.502 340.36,40.201 341.192,40.201L358.755,40.201C359.588,40.201 360.103,39.502 360.27,38.687L361.727,31.559C361.839,31.009 362.242,30.74 362.733,30.752C366.017,30.834 374.442,33.077 377.221,34.266C377.784,34.506 378.209,34.759 378.333,35.334L378.715,37.117C375.236,39.606 371.765,42.072 368.188,44.452C367.919,44.63 367.637,44.711 367.321,44.736L363.323,44.736L362.844,45.826L337.103,45.826L336.625,44.736L332.626,44.736C332.31,44.711 332.028,44.63 331.759,44.452C328.182,42.072 324.711,39.606 321.232,37.117L321.615,35.334C321.738,34.759 322.164,34.506 322.726,34.266Z" style="fill:url(#_Linear1);"/>
            </g>
        </g>
    </g>
    <defs>
        <linearGradient id="_Linear1" x1="0" y1="0" x2="1" y2="0" gradientUnits="userSpaceOnUse" gradientTransform="matrix(8.54386e-15,-139.532,139.532,8.54386e-15,349.974,171.484)"><stop offset="0" style="stop-color:rgb(185,185,185);stop-opacity:1"/><stop offset="1" style="stop-color:black;stop-opacity:1"/></linearGradient>
    </defs>
</svg>
