<?xml version="1.0" encoding="UTF-8" standalone="no"?>
<!DOCTYPE svg PUBLIC "-//W3C//DTD SVG 1.1//EN" "http://www.w3.org/Graphics/SVG/1.1/DTD/svg11.dtd">
<svg width="100%" height="100%" viewBox="0 0 187 176" version="1.1" xmlns="http://www.w3.org/2000/svg" xmlns:xlink="http://www.w3.org/1999/xlink" xml:space="preserve" xmlns:serif="http://www.serif.com/" style="fill-rule:evenodd;clip-rule:evenodd;stroke-linejoin:round;stroke-miterlimit:1.41421;">
    <g transform="matrix(1,0,0,1,-822,-164)">
        <g transform="matrix(1,0,0,1,-0.684275,0)">
            <g>
                <g id="Ransomware-L" serif:id="Ransomware L" transform="matrix(1,0,0,1,4,4)">
                    <g transform="matrix(1.01778,0,0,1.03342,-16.1112,-6.62848)">
                        <path d="M1003.12,164.016C1003.12,162.554 1001.91,161.366 1000.42,161.366L822.946,161.366C821.461,161.366 820.256,162.554 820.256,164.016L820.256,210.889C820.256,212.352 821.461,213.539 822.946,213.539L1000.42,213.539C1001.91,213.539 1003.12,212.352 1003.12,210.889L1003.12,164.016Z" style="fill:rgb(185,185,185);"/>
                    </g>
                    <g transform="matrix(1,0,0,1,-0.208968,-119.956)">
                        <text x="837.526px" y="304.008px" style="font-family:'Nunito-Regular', 'Nunito';font-size:20px;fill:white;">R<tspan x="851.126px " y="304.008px ">A</tspan>NSOMW<tspan x="945.646px " y="304.008px ">A</tspan>RE</text>
                        <text x="885.766px" y="324.008px" style="font-family:'Nunito-Regular', 'Nunito';font-size:20px;fill:white;">Lock<tspan x="927.026px " y="324.008px ">y</tspan></text>
                    </g>
                </g>
                <g id="Trojan" transform="matrix(1,0,0,1,4,4)">
                    <g transform="matrix(1.01778,0,0,1.03342,-16.026,114.887)">
                        <path d="M1003.12,164.016C1003.12,162.554 1001.91,161.366 1000.42,161.366L822.946,161.366C821.461,161.366 820.256,162.554 820.256,164.016L820.256,210.889C820.256,212.352 821.461,213.539 822.946,213.539L1000.42,213.539C1001.91,213.539 1003.12,212.352 1003.12,210.889L1003.12,164.016Z" style="fill:rgb(185,185,185);"/>
                    </g>
                    <g transform="matrix(1,0,0,1,1.08103,1.16697)">
                        <text x="873.496px" y="304.008px" style="font-family:'Nunito-Regular', 'Nunito';font-size:20px;fill:white;">TR<tspan x="899.076px 913.736px " y="304.008px 304.008px ">OJ</tspan>AN</text>
                        <text x="875.946px" y="324.008px" style="font-family:'Nunito-Regular', 'Nunito';font-size:20px;fill:white;">Spar<tspan x="918.366px " y="324.008px ">t</tspan>an</text>
                    </g>
                </g>
                <g id="Ransomware-WC" serif:id="Ransomware WC" transform="matrix(1,0,0,1,-1.41809,-62.9799)">
                    <g transform="matrix(1.01778,0,0,1.03342,-10.6931,122.652)">
                        <path d="M1003.12,164.016C1003.12,162.554 1001.91,161.366 1000.42,161.366L822.946,161.366C821.461,161.366 820.256,162.554 820.256,164.016L820.256,210.889C820.256,212.352 821.461,213.539 822.946,213.539L1000.42,213.539C1001.91,213.539 1003.12,212.352 1003.12,210.889L1003.12,164.016Z" style="fill:rgb(185,185,185);"/>
                    </g>
                    <g transform="matrix(1,0,0,1,5.20913,7.65139)">
                        <text x="837.526px" y="304.008px" style="font-family:'Nunito-Regular', 'Nunito';font-size:20px;fill:white;">R<tspan x="851.126px " y="304.008px ">A</tspan>NSOMW<tspan x="945.646px " y="304.008px ">A</tspan>RE</text>
                        <text x="863.386px" y="324.008px" style="font-family:'Nunito-Regular', 'Nunito';font-size:20px;fill:white;">W<tspan x="884.286px " y="324.008px ">a</tspan>nnaCr<tspan x="949.406px " y="324.008px ">y</tspan></text>
                    </g>
                </g>
            </g>
        </g>
    </g>
</svg>
