<?xml version="1.0" encoding="UTF-8" standalone="no"?>
<!DOCTYPE svg PUBLIC "-//W3C//DTD SVG 1.1//EN" "http://www.w3.org/Graphics/SVG/1.1/DTD/svg11.dtd">
<svg width="100%" height="100%" viewBox="0 0 99 97" version="1.1" xmlns="http://www.w3.org/2000/svg" xmlns:xlink="http://www.w3.org/1999/xlink" xml:space="preserve" xmlns:serif="http://www.serif.com/" style="fill-rule:evenodd;clip-rule:evenodd;stroke-linecap:round;stroke-miterlimit:1.5;">
    <g transform="matrix(1,0,0,1,-144,-538)">
        <g transform="matrix(1,0,0,1,-709.805,21.9452)">
            <g transform="matrix(1.89468,-1.77356,-1.77356,-1.89468,609.844,2155.46)">
                <g transform="matrix(0.38532,3.6601e-33,-3.6601e-33,0.38532,158.481,196.973)">
                    <path d="M830.869,448.492L948.016,451.592" style="fill:none;stroke:rgb(253,152,63);stroke-width:7.5px;stroke-dasharray:0,11.25,0,0;"/>
                </g>
                <g transform="matrix(1.79751,0,0,1.79751,-389.121,-288.662)">
                    <circle cx="504.776" cy="366.799" r="3.865" style="fill:rgb(243,110,35);"/>
                </g>
                <g transform="matrix(1.402,0,0,1.402,-207.997,-149.955)">
                    <g transform="matrix(1,0,0,0.771459,0.544678,85.3884)">
                        <path d="M516.676,367.704L519.636,370.664" style="fill:white;stroke:white;stroke-width:1.56px;stroke-linejoin:round;"/>
                    </g>
                    <g transform="matrix(1,0,0,-0.771459,0.544678,657.292)">
                        <path d="M516.676,367.704L519.636,370.664" style="fill:white;stroke:white;stroke-width:1.56px;stroke-linejoin:round;"/>
                    </g>
                </g>
            </g>
        </g>
    </g>
</svg>
