<?xml version="1.0" encoding="UTF-8" standalone="no"?>
<!DOCTYPE svg PUBLIC "-//W3C//DTD SVG 1.1//EN" "http://www.w3.org/Graphics/SVG/1.1/DTD/svg11.dtd">
<svg width="100%" height="100%" viewBox="0 0 200 144" version="1.1" xmlns="http://www.w3.org/2000/svg" xmlns:xlink="http://www.w3.org/1999/xlink" xml:space="preserve" xmlns:serif="http://www.serif.com/" style="fill-rule:evenodd;clip-rule:evenodd;stroke-linejoin:round;stroke-miterlimit:1.41421;">
    <g transform="matrix(1,0,0,1,-106,-607)">
        <g>
            <g transform="matrix(1,0,0,1,11.7654,21.5014)">
                <g transform="matrix(0.50621,0,0,0.50621,200.591,588.82)">
                    <path d="M161.11,114.153C161.11,126.98 150.7,137.383 137.865,137.383L44.875,137.383C32.035,137.383 21.625,126.98 21.625,114.153L21.625,56.072C21.625,43.241 32.035,32.843 44.875,32.843L137.865,32.843C150.7,32.843 161.11,43.241 161.11,56.072L161.11,114.153ZM140.645,21.226L41.725,21.226C24.53,21.226 10,35.866 10,53.049L10,117.541C10,134.36 24.53,149 41.84,149L141.13,149C158.445,149 172.735,134.725 172.735,117.546L172.735,53.294C172.735,35.751 158.445,21.226 140.645,21.226Z" style="fill:rgb(99,101,105);"/>
                </g>
                <g transform="matrix(0.50621,0,0,0.50621,200.591,667.128)">
                    <path d="M160.915,15L21.935,15C17.935,15 2.41,12.312 0.225,5.951C-1.07,2.174 3.47,0.53 7.47,0.53L175.39,0.53C179.385,0.53 184.035,2.214 182.635,5.951C180.445,11.752 164.92,15 160.915,15Z" style="fill:rgb(99,101,105);"/>
                </g>
            </g>
            <g transform="matrix(0.97257,0,0,0.97257,98.5808,587.733)">
                <path d="M98.179,114.687C87.689,121.266 63.51,122.312 55.102,122.194L55.014,122.19L54.93,122.19C46.522,122.309 22.369,121.131 11.755,114.498C13.26,92.355 31.85,75.656 54.997,75.656C78.165,75.656 96.755,92.368 98.243,114.528C98.25,114.599 98.212,114.667 98.179,114.687ZM54.997,23.62C69.294,23.62 80.92,35.294 80.92,49.643C80.92,63.992 69.294,75.667 54.997,75.667C40.704,75.667 29.078,63.992 29.078,49.643C29.078,35.294 40.704,23.62 54.997,23.62Z" style="fill:none;stroke:rgb(83,83,90);stroke-width:6.57px;"/>
            </g>
            <g transform="matrix(1.42996,0,0,1.42996,-478.443,358.566)">
                <text x="408.212px" y="270.779px" style="font-family:'Nunito-Regular', 'Nunito';font-size:16px;fill:rgb(106,109,114);">Off<tspan x="430.772px " y="270.779px ">-</tspan>pr<tspan x="452.372px " y="270.779px ">e</tspan>mises (<tspan x="511.572px " y="270.779px ">V</tspan>PN)</text>
            </g>
        </g>
    </g>
</svg>
