<?xml version="1.0" encoding="UTF-8" standalone="no"?>
<!DOCTYPE svg PUBLIC "-//W3C//DTD SVG 1.1//EN" "http://www.w3.org/Graphics/SVG/1.1/DTD/svg11.dtd">
<svg width="100%" height="100%" viewBox="0 0 96 114" version="1.1" xmlns="http://www.w3.org/2000/svg" xmlns:xlink="http://www.w3.org/1999/xlink" xml:space="preserve" xmlns:serif="http://www.serif.com/" style="fill-rule:evenodd;clip-rule:evenodd;">
    <g transform="matrix(1,0,0,1,-127,0)">
        <g id="Group-2">
            <path id="Rectangle-2-Copy" d="M222.5,3.5C222.5,1.844 221.156,0.5 219.5,0.5L130.5,0.5C128.844,0.5 127.5,1.844 127.5,3.5L127.5,92.5C127.5,94.156 128.844,95.5 130.5,95.5L219.5,95.5C221.156,95.5 222.5,94.156 222.5,92.5L222.5,3.5Z" style="fill:none;stroke:rgb(255,121,26);stroke-width:1px;"/>
            <g transform="matrix(1,0,0,1,151.205,108.935)">
                <g id="Reports">
                    <text x="0px" y="0px" style="font-family:'Nunito-Regular', 'Nunito';font-size:13px;fill:rgb(115,115,115);">R<tspan x="9.048px 16.028px 23.724px 31.068px 36.294px 40.843px " y="0px 0px 0px 0px 0px 0px ">eports</tspan></text>
                </g>
            </g>
            <g id="Report-Service2" transform="matrix(1,0,0,1,150,23)">
                <path id="Shape" d="M50,36.833L48.497,35.511L23.62,47.771L5.805,34.124L3.906,35.032L23.224,50L50,36.833ZM49.094,32.969L29.776,18L27.802,18.971C25.891,23.293 23.073,26.213 19.348,27.731C15.623,29.248 12.022,29.485 8.544,28.441L3,31.168L22.318,46.136L49.094,32.969ZM40.972,34.792L39.023,35.812L25.6,24.405L27.218,23.581L40.972,34.792ZM44.561,32.935L42.773,33.833L28.978,22.716L30.618,21.91L44.561,32.935ZM30.163,35.325L30.232,35.396C30.539,35.714 30.528,36.22 30.207,36.525C30.15,36.579 30.086,36.624 30.016,36.66L22.388,40.521C21.885,40.775 21.276,40.691 20.862,40.311L20.75,40.208C20.431,39.915 20.411,39.421 20.706,39.105C20.764,39.043 20.831,38.991 20.905,38.95L21.847,38.436L27.536,35.564L28.6,35.048C29.126,34.793 29.758,34.905 30.163,35.325ZM25.382,34.259L25.399,34.279C25.7,34.63 25.658,35.156 25.305,35.455C25.255,35.498 25.2,35.534 25.141,35.564L19.486,38.426C18.954,38.696 18.306,38.584 17.896,38.153L17.855,38.11C17.54,37.778 17.555,37.255 17.889,36.942C17.938,36.895 17.994,36.855 18.054,36.822L18.627,36.503L23.154,34.219L23.772,33.923C24.323,33.659 24.984,33.797 25.382,34.259ZM19.576,33.729L19.592,33.753C19.88,34.161 19.781,34.723 19.37,35.01C19.335,35.034 19.299,35.056 19.261,35.075L16.696,36.373C16.161,36.644 15.507,36.493 15.147,36.015L15.134,35.998C14.831,35.596 14.914,35.026 15.319,34.725C15.344,34.706 15.371,34.688 15.399,34.672L18.069,33.327C18.603,33.081 19.238,33.25 19.576,33.729Z" style="fill:rgb(255,121,26);fill-rule:nonzero;"/>
                <path id="Path" d="M0,13C0,20.176 5.816,26 13,26C20.184,26 26,20.176 26,13C26,5.824 20.184,0 13,0C5.816,0.001 0,5.825 0,13Z" style="fill:rgb(115,115,115);fill-rule:nonzero;"/>
                <g id="Group-9" transform="matrix(1,0,0,1,5,6)">
                    <path id="shield_r_gray" d="M8.581,0.005C8.961,-0.004 10.661,-0.024 12.311,0.191C12.891,0.249 13.471,0.337 13.981,0.464C13.981,0.464 14.701,0.64 14.831,1.353C14.881,1.617 14.941,1.968 14.981,2.368C15.031,2.876 15.071,3.472 15.031,4.155C14.991,4.155 14.951,4.155 14.911,4.146C14.901,4.146 14.891,4.146 14.881,4.146C14.831,4.136 14.791,4.136 14.741,4.126C14.731,4.126 14.721,4.126 14.711,4.126C14.661,4.116 14.611,4.116 14.561,4.107C14.561,4.107 14.551,4.107 14.541,4.107C14.491,4.097 14.451,4.097 14.401,4.087C14.391,4.087 14.381,4.087 14.371,4.087C14.321,4.077 14.261,4.077 14.211,4.067C14.201,4.067 14.191,4.067 14.181,4.067C14.121,4.058 14.071,4.058 14.011,4.048C14.001,4.048 14.001,4.048 13.991,4.048C13.941,4.038 13.891,4.038 13.831,4.028C13.821,4.028 13.811,4.028 13.801,4.028C13.751,4.019 13.691,4.019 13.631,4.009C13.621,4.009 13.601,4.009 13.591,4.009C13.531,3.999 13.471,3.999 13.401,3.989C13.341,3.98 13.281,3.98 13.221,3.97C13.211,3.96 13.201,3.96 13.181,3.96C13.121,3.95 13.061,3.95 13.001,3.941C12.991,3.941 12.971,3.941 12.961,3.941C12.901,3.931 12.841,3.931 12.781,3.921C12.771,3.921 12.771,3.921 12.761,3.921C12.701,3.911 12.641,3.911 12.571,3.901C12.561,3.901 12.541,3.901 12.531,3.901C12.471,3.892 12.411,3.892 12.341,3.882C12.331,3.882 12.311,3.882 12.301,3.882C12.241,3.872 12.181,3.872 12.121,3.862C12.111,3.862 12.101,3.862 12.091,3.862C12.021,3.853 11.961,3.853 11.891,3.843C11.871,3.843 11.861,3.843 11.841,3.843C11.771,3.833 11.711,3.833 11.641,3.823C11.631,3.823 11.621,3.823 11.611,3.823C11.551,3.823 11.481,3.823 11.421,3.814C11.411,3.814 11.401,3.814 11.391,3.814C11.331,3.814 11.261,3.814 11.191,3.804C11.181,3.804 11.171,3.804 11.151,3.804C11.091,3.804 11.021,3.804 10.951,3.794C10.941,3.794 10.931,3.794 10.921,3.794C10.861,3.794 10.791,3.784 10.731,3.784C10.721,3.784 10.711,3.784 10.701,3.784C10.641,3.784 10.571,3.775 10.501,3.775C10.491,3.775 10.481,3.775 10.461,3.775C10.391,3.775 10.321,3.765 10.241,3.765C10.171,3.765 10.111,3.755 10.041,3.755C10.021,3.755 10.011,3.755 10.001,3.755C9.931,3.755 9.871,3.745 9.801,3.745C9.791,3.745 9.771,3.745 9.761,3.745C9.701,3.745 9.631,3.735 9.561,3.735C9.251,3.726 8.925,3.716 8.625,3.716L8.625,0.005C8.625,0.005 8.631,0.005 8.581,0.005ZM14.951,5.464C14.591,8.178 13.311,11.684 9.691,15.053C9.341,15.375 8.961,15.678 8.571,16L8.615,6.904C9.484,6.631 10.481,6.362 11.561,6.118C12.881,5.815 14.101,5.601 14.951,5.464Z" style="fill:rgb(101,101,107);fill-rule:nonzero;"/>
                    <path id="ring_shield_orange" d="M2.121,4.546C2.071,3.697 2.101,2.955 2.15,2.359C2.19,1.949 2.249,1.607 2.298,1.334C2.426,0.621 3.137,0.445 3.137,0.445C3.649,0.318 4.222,0.23 4.794,0.162C6.441,-0.023 8.118,-0.004 8.493,0.006C8.542,0.006 8.571,0.006 8.571,0.006L8.552,3.716C5.78,3.697 3.63,3.98 2.121,4.546ZM8.543,6.902L8.493,16C8.108,15.678 7.743,15.356 7.398,15.033C7.289,14.936 7.191,14.838 7.092,14.74C6.747,14.408 6.431,14.076 6.155,13.754C5.711,13.266 5.356,12.807 5.08,12.426C4.577,11.743 4.32,11.284 4.32,11.284C4.31,11.245 4.291,11.215 4.281,11.176C3.62,9.78 4.468,8.931 4.804,8.677C4.823,8.667 4.833,8.647 4.853,8.638C5.07,8.472 5.336,8.296 5.632,8.12C5.701,8.071 5.75,8.052 5.75,8.052C6.48,7.651 7.419,7.263 8.543,6.902Z" style="fill:rgb(157,157,159);fill-rule:nonzero;"/>
                    <path id="ring_orange" d="M5.095,12.6C3.88,11.339 2.904,9.664 4.527,8.364C7.575,5.931 16,4.867 16,4.867C16,4.867 12.435,4.424 9.517,4.345C4.099,4.197 -1.189,5.064 0.235,8.906C1.151,11.388 4.428,13.151 6.181,13.929C5.732,13.447 5.374,12.984 5.095,12.6Z" style="fill:rgb(255,108,12);fill-rule:nonzero;"/>
                </g>
            </g>
        </g>
    </g>
</svg>
