<?xml version="1.0" encoding="UTF-8" standalone="no"?>
<!DOCTYPE svg PUBLIC "-//W3C//DTD SVG 1.1//EN" "http://www.w3.org/Graphics/SVG/1.1/DTD/svg11.dtd">
<svg width="100%" height="100%" viewBox="0 0 549 632" version="1.1" xmlns="http://www.w3.org/2000/svg" xmlns:xlink="http://www.w3.org/1999/xlink" xml:space="preserve" xmlns:serif="http://www.serif.com/" style="fill-rule:evenodd;clip-rule:evenodd;stroke-linejoin:round;stroke-miterlimit:1.41421;">
    <g transform="matrix(1,0,0,1,-288,-120)">
        <g>
            <g id="Isolation-Mode" serif:id="Isolation Mode" transform="matrix(1.91525,0,0,1.91525,288.787,570.14)">
                <g transform="matrix(1,0,0,1,8.206,2.5212)">
                    <path d="M0,-2.156C-0.595,-2.156 -1.079,-1.674 -1.079,-1.078C-1.079,-0.482 -0.595,0.001 0,0.001C0.595,0.001 1.079,-0.482 1.079,-1.078C1.079,-1.674 0.595,-2.156 0,-2.156M0,0.365C-0.796,0.365 -1.443,-0.282 -1.443,-1.078C-1.443,-1.873 -0.796,-2.521 0,-2.521C0.796,-2.521 1.443,-1.873 1.443,-1.078C1.443,-0.282 0.796,0.365 0,0.365" style="fill:rgb(101,101,106);fill-rule:nonzero;stroke:rgb(101,101,106);stroke-width:0.28px;"/>
                </g>
                <g transform="matrix(1,0,0,1,4.708,10.6188)">
                    <path d="M0,7.181C0,7.256 -0.046,7.319 -0.102,7.319L-2.627,7.319C-2.684,7.319 -2.729,7.256 -2.729,7.181L-2.729,-0.003C-2.729,-0.077 -2.684,-0.138 -2.627,-0.138L-0.102,-0.138C-0.046,-0.138 0,-0.077 0,-0.003L0,7.181Z" style="fill:rgb(235,239,242);fill-rule:nonzero;"/>
                </g>
                <g transform="matrix(1,0,0,1,0,8.5143)">
                    <path d="M2.161,9.241L4.525,9.241L4.525,2.148L2.161,2.148L2.161,9.241ZM4.606,9.605L2.08,9.605C1.924,9.605 1.797,9.462 1.797,9.286L1.797,2.103C1.797,1.924 1.922,1.784 2.08,1.784L4.606,1.784C4.765,1.784 4.889,1.924 4.889,2.103L4.889,9.286C4.889,9.465 4.765,9.605 4.606,9.605" style="fill:rgb(101,101,106);fill-rule:nonzero;stroke:rgb(101,101,106);stroke-width:0.28px;"/>
                </g>
                <g transform="matrix(1,0,0,1,9.5693,6.1468)">
                    <path d="M0,11.653C0,11.728 -0.045,11.791 -0.101,11.791L-2.625,11.791C-2.682,11.791 -2.728,11.728 -2.728,11.653L-2.728,-0.001C-2.728,-0.076 -2.682,-0.138 -2.625,-0.138L-0.101,-0.138C-0.045,-0.138 0,-0.076 0,-0.001L0,11.653Z" style="fill:rgb(13,182,163);fill-rule:nonzero;"/>
                </g>
                <g transform="matrix(1,0,0,1,0,4.0423)">
                    <path d="M7.024,13.713L9.387,13.713L9.387,2.149L7.024,2.149L7.024,13.713ZM9.468,14.077L6.944,14.077C6.785,14.077 6.66,13.937 6.66,13.758L6.66,2.103C6.66,1.925 6.785,1.784 6.944,1.784L9.468,1.784C9.625,1.784 9.752,1.927 9.752,2.103L9.752,13.758C9.752,13.934 9.625,14.077 9.468,14.077" style="fill:rgb(13,182,163);fill-rule:nonzero;"/>
                </g>
                <g transform="matrix(1,0,0,1,19.2949,9.4388)">
                    <path d="M0,8.361C0,8.436 -0.046,8.499 -0.101,8.499L-2.625,8.499C-2.682,8.499 -2.728,8.436 -2.728,8.361L-2.728,0C-2.728,-0.077 -2.682,-0.138 -2.625,-0.138L-0.101,-0.138C-0.046,-0.138 0,-0.077 0,0L0,8.361Z" style="fill:rgb(235,239,242);fill-rule:nonzero;"/>
                </g>
                <g transform="matrix(1,0,0,1,0,7.3353)">
                    <path d="M16.749,10.42L19.112,10.42L19.112,2.149L16.749,2.149L16.749,10.42ZM19.194,10.784L16.67,10.784C16.509,10.784 16.384,10.644 16.384,10.465L16.384,2.103C16.384,1.924 16.509,1.784 16.67,1.784L19.194,1.784C19.352,1.784 19.476,1.924 19.476,2.103L19.476,10.465C19.476,10.641 19.35,10.784 19.194,10.784" style="fill:rgb(101,101,106);fill-rule:nonzero;stroke:rgb(101,101,106);stroke-width:0.28px;"/>
                </g>
                <g transform="matrix(1,0,0,1,14.4316,11.7008)">
                    <path d="M0,6.099C0,6.174 -0.045,6.237 -0.101,6.237L-2.626,6.237C-2.682,6.237 -2.727,6.174 -2.727,6.099L-2.727,-0.001C-2.727,-0.077 -2.682,-0.138 -2.626,-0.138L-0.101,-0.138C-0.045,-0.138 0,-0.077 0,-0.001L0,6.099Z" style="fill:rgb(235,239,242);fill-rule:nonzero;"/>
                </g>
                <g transform="matrix(1,0,0,1,0,9.5963)">
                    <path d="M11.886,8.159L14.249,8.159L14.249,2.148L11.886,2.148L11.886,8.159ZM14.33,8.523L11.805,8.523C11.647,8.523 11.522,8.383 11.522,8.204L11.522,2.104C11.522,1.924 11.647,1.784 11.805,1.784L14.33,1.784C14.489,1.784 14.614,1.924 14.614,2.104L14.614,8.204C14.614,8.383 14.489,8.523 14.33,8.523" style="fill:rgb(101,101,106);fill-rule:nonzero;stroke:rgb(101,101,106);stroke-width:0.28px;"/>
                </g>
                <g transform="matrix(1,0,0,1,3.3437,7.5691)">
                    <path d="M0,-2.157C-0.595,-2.157 -1.079,-1.674 -1.079,-1.078C-1.079,-0.483 -0.595,0.001 0,0.001C0.595,0.001 1.078,-0.483 1.078,-1.078C1.078,-1.674 0.595,-2.157 0,-2.157M0,0.364C-0.796,0.364 -1.443,-0.282 -1.443,-1.078C-1.443,-1.874 -0.796,-2.521 0,-2.521C0.795,-2.521 1.442,-1.874 1.442,-1.078C1.442,-0.282 0.795,0.364 0,0.364" style="fill:rgb(101,101,106);fill-rule:nonzero;stroke:rgb(101,101,106);stroke-width:0.28px;"/>
                </g>
                <g transform="matrix(1,0,0,1,13.0683,7.7469)">
                    <path d="M0,-2.157C-0.595,-2.157 -1.079,-1.674 -1.079,-1.078C-1.079,-0.483 -0.595,0.001 0,0.001C0.595,0.001 1.079,-0.483 1.079,-1.078C1.079,-1.674 0.595,-2.157 0,-2.157M0,0.364C-0.796,0.364 -1.443,-0.282 -1.443,-1.078C-1.443,-1.874 -0.796,-2.521 0,-2.521C0.796,-2.521 1.443,-1.874 1.443,-1.078C1.443,-0.282 0.796,0.364 0,0.364" style="fill:rgb(101,101,106);fill-rule:nonzero;stroke:rgb(101,101,106);stroke-width:0.28px;"/>
                </g>
                <g transform="matrix(1,0,0,1,17.9306,4.3201)">
                    <path d="M0,-2.157C-0.595,-2.157 -1.079,-1.673 -1.079,-1.078C-1.079,-0.482 -0.595,0.001 0,0.001C0.595,0.001 1.079,-0.482 1.079,-1.078C1.079,-1.673 0.595,-2.157 0,-2.157M0,0.364C-0.796,0.364 -1.443,-0.282 -1.443,-1.078C-1.443,-1.874 -0.796,-2.521 0,-2.521C0.796,-2.521 1.443,-1.874 1.443,-1.078C1.443,-0.282 0.796,0.364 0,0.364" style="fill:rgb(101,101,106);fill-rule:nonzero;stroke:rgb(101,101,106);stroke-width:0.28px;"/>
                </g>
                <g transform="matrix(1,0,0,1,3.9794,2.0579)">
                    <path d="M0,3.532C-0.048,3.532 -0.096,3.512 -0.132,3.475C-0.201,3.404 -0.199,3.289 -0.127,3.22L3.14,0.069C3.212,0 3.327,0.002 3.397,0.073C3.467,0.146 3.465,0.261 3.392,0.331L0.126,3.481C0.091,3.514 0.045,3.532 0,3.532" style="fill:rgb(101,101,106);fill-rule:nonzero;stroke:rgb(101,101,106);stroke-width:0.28px;"/>
                </g>
                <g transform="matrix(1,0,0,1,12.2177,2.0538)">
                    <path d="M0,3.872C-0.052,3.872 -0.104,3.849 -0.141,3.806L-3.016,0.32C-3.08,0.242 -3.068,0.128 -2.991,0.062C-2.914,0 -2.799,0.01 -2.734,0.088L0.141,3.573C0.205,3.651 0.193,3.766 0.116,3.83C0.082,3.858 0.041,3.872 0,3.872" style="fill:rgb(101,101,106);fill-rule:nonzero;stroke:rgb(101,101,106);stroke-width:0.28px;"/>
                </g>
                <g transform="matrix(1,0,0,1,14.1523,3.7939)">
                    <path d="M0,2.421C-0.057,2.421 -0.111,2.396 -0.147,2.347C-0.207,2.266 -0.189,2.15 -0.107,2.092L2.669,0.06C2.75,0 2.863,0.018 2.923,0.099C2.982,0.181 2.965,0.294 2.884,0.354L0.107,2.386C0.074,2.41 0.037,2.421 0,2.421" style="fill:rgb(101,101,106);fill-rule:nonzero;stroke:rgb(101,101,106);stroke-width:0.28px;"/>
                </g>
                <g transform="matrix(1,0,0,1,22.3251,19.5393)">
                    <path d="M0,0.364L-22.144,0.364C-22.244,0.364 -22.325,0.283 -22.325,0.182C-22.325,0.082 -22.244,0 -22.144,0L0,0C0.101,0 0.183,0.082 0.183,0.182C0.183,0.283 0.101,0.364 0,0.364" style="fill:rgb(101,101,106);fill-rule:nonzero;stroke:rgb(101,101,106);stroke-width:0.28px;"/>
                </g>
            </g>
            <g id="Isolation-Mode1" serif:id="Isolation Mode" transform="matrix(1.77925,0,0,1.77925,781.219,251.413)">
                <g transform="matrix(1,0,0,1,17.4999,20.9719)">
                    <path d="M0,-7.226C-1.991,-7.226 -3.612,-5.605 -3.612,-3.613C-3.612,-1.621 -1.991,0 0,0C1.992,0 3.613,-1.621 3.613,-3.613C3.613,-5.605 1.992,-7.226 0,-7.226M0,0.355C-2.188,0.355 -3.968,-1.425 -3.968,-3.613C-3.968,-5.801 -2.188,-7.581 0,-7.581C2.188,-7.581 3.969,-5.801 3.969,-3.613C3.969,-1.425 2.188,0.355 0,0.355" style="fill:rgb(101,101,106);fill-rule:nonzero;stroke:rgb(101,101,106);stroke-width:0.37px;"/>
                </g>
                <g transform="matrix(1,0,0,1,19.5292,17.3577)">
                    <path d="M0,0.001C0,1.122 -0.907,2.03 -2.028,2.03C-3.149,2.03 -4.059,1.122 -4.059,0.001C-4.059,-1.12 -3.149,-2.029 -2.028,-2.029C-0.907,-2.029 0,-1.12 0,0.001" style="fill:rgb(71,175,232);fill-rule:nonzero;"/>
                </g>
                <g transform="matrix(1,0,0,1,20.7245,8.0071)">
                    <path d="M0,0C0,1.139 -0.925,2.062 -2.063,2.062C-3.201,2.062 -4.125,1.139 -4.125,0C-4.125,-1.139 -3.201,-2.062 -2.063,-2.062C-0.925,-2.062 0,-1.139 0,0" style="fill:rgb(230,231,232);fill-rule:nonzero;"/>
                </g>
                <g transform="matrix(1,0,0,1,18.662,9.8918)">
                    <path d="M0,-3.769C-1.039,-3.769 -1.886,-2.924 -1.886,-1.885C-1.886,-0.846 -1.039,0 0,0C1.038,0 1.885,-0.846 1.885,-1.885C1.885,-2.924 1.038,-3.769 0,-3.769M0,0.355C-1.235,0.355 -2.24,-0.649 -2.24,-1.885C-2.24,-3.12 -1.235,-4.124 0,-4.124C1.234,-4.124 2.238,-3.12 2.238,-1.885C2.238,-0.649 1.234,0.355 0,0.355" style="fill:rgb(101,101,106);fill-rule:nonzero;stroke:rgb(101,101,106);stroke-width:0.37px;"/>
                </g>
                <g transform="matrix(1,0,0,1,30.8602,12.513)">
                    <path d="M0,0.001C0,1.14 -0.923,2.063 -2.062,2.063C-3.199,2.063 -4.124,1.14 -4.124,0.001C-4.124,-1.138 -3.199,-2.062 -2.062,-2.062C-0.923,-2.062 0,-1.138 0,0.001" style="fill:rgb(230,231,232);fill-rule:nonzero;"/>
                </g>
                <g transform="matrix(1,0,0,1,28.7987,14.3982)">
                    <path d="M0,-3.769C-1.039,-3.769 -1.885,-2.924 -1.885,-1.885C-1.885,-0.846 -1.039,0 0,0C1.039,0 1.886,-0.846 1.886,-1.885C1.886,-2.924 1.039,-3.769 0,-3.769M0,0.355C-1.234,0.355 -2.239,-0.65 -2.239,-1.885C-2.239,-3.12 -1.234,-4.124 0,-4.124C1.235,-4.124 2.239,-3.12 2.239,-1.885C2.239,-0.65 1.235,0.355 0,0.355" style="fill:rgb(101,101,106);fill-rule:nonzero;stroke:rgb(101,101,106);stroke-width:0.37px;"/>
                </g>
                <g transform="matrix(1,0,0,1,27.9979,25.1873)">
                    <path d="M0,-0.001C0,1.138 -0.924,2.062 -2.063,2.062C-3.2,2.062 -4.125,1.138 -4.125,-0.001C-4.125,-1.14 -3.2,-2.063 -2.063,-2.063C-0.924,-2.063 0,-1.14 0,-0.001" style="fill:rgb(230,231,232);fill-rule:nonzero;"/>
                </g>
                <g transform="matrix(1,0,0,1,25.9354,27.071)">
                    <path d="M0,-3.769C-1.038,-3.769 -1.885,-2.924 -1.885,-1.884C-1.885,-0.845 -1.038,0 0,0C1.039,0 1.886,-0.845 1.886,-1.884C1.886,-2.924 1.039,-3.769 0,-3.769M0,0.355C-1.234,0.355 -2.238,-0.649 -2.238,-1.884C-2.238,-3.12 -1.234,-4.124 0,-4.124C1.235,-4.124 2.239,-3.12 2.239,-1.884C2.239,-0.649 1.235,0.355 0,0.355" style="fill:rgb(101,101,106);fill-rule:nonzero;stroke:rgb(101,101,106);stroke-width:0.37px;"/>
                </g>
                <g transform="matrix(1,0,0,1,10.162,24.1956)">
                    <path d="M0,0.001C0,1.14 -0.924,2.063 -2.063,2.063C-3.2,2.063 -4.125,1.14 -4.125,0.001C-4.125,-1.138 -3.2,-2.062 -2.063,-2.062C-0.924,-2.062 0,-1.138 0,0.001" style="fill:rgb(230,231,232);fill-rule:nonzero;"/>
                </g>
                <g transform="matrix(1,0,0,1,8.0995,26.0818)">
                    <path d="M0,-3.77C-1.039,-3.77 -1.885,-2.925 -1.885,-1.885C-1.885,-0.846 -1.039,-0.001 0,-0.001C1.039,-0.001 1.886,-0.846 1.886,-1.885C1.886,-2.925 1.039,-3.77 0,-3.77M0,0.355C-1.233,0.355 -2.238,-0.65 -2.238,-1.885C-2.238,-3.121 -1.233,-4.125 0,-4.125C1.235,-4.125 2.239,-3.121 2.239,-1.885C2.239,-0.65 1.235,0.355 0,0.355" style="fill:rgb(101,101,106);fill-rule:nonzero;stroke:rgb(101,101,106);stroke-width:0.37px;"/>
                </g>
                <g transform="matrix(1,0,0,1,12.2245,14.575)">
                    <path d="M0,0.001C0,1.14 -0.924,2.063 -2.063,2.063C-3.201,2.063 -4.125,1.14 -4.125,0.001C-4.125,-1.138 -3.201,-2.062 -2.063,-2.062C-0.924,-2.062 0,-1.138 0,0.001" style="fill:rgb(230,231,232);fill-rule:nonzero;"/>
                </g>
                <g transform="matrix(1,0,0,1,10.162,16.4612)">
                    <path d="M0,-3.77C-1.039,-3.77 -1.885,-2.925 -1.885,-1.886C-1.885,-0.846 -1.039,0 0,0C1.039,0 1.885,-0.846 1.885,-1.886C1.885,-2.925 1.039,-3.77 0,-3.77M0,0.355C-1.234,0.355 -2.239,-0.65 -2.239,-1.886C-2.239,-3.121 -1.234,-4.125 0,-4.125C1.234,-4.125 2.239,-3.121 2.239,-1.886C2.239,-0.65 1.234,0.355 0,0.355" style="fill:rgb(101,101,106);fill-rule:nonzero;stroke:rgb(101,101,106);stroke-width:0.37px;"/>
                </g>
                <g transform="matrix(1,0,0,1,17.9696,9.8792)">
                    <path d="M0,3.73C-0.008,3.73 -0.015,3.73 -0.021,3.729C-0.118,3.717 -0.187,3.629 -0.177,3.531L0.226,0.169C0.236,0.072 0.325,0 0.423,0.014C0.521,0.025 0.59,0.114 0.577,0.211L0.177,3.574C0.165,3.664 0.089,3.73 0,3.73" style="fill:rgb(101,101,106);fill-rule:nonzero;stroke:rgb(101,101,106);stroke-width:0.37px;"/>
                </g>
                <g transform="matrix(1,0,0,1,20.996,13.1961)">
                    <path d="M0,2.873C-0.068,2.873 -0.136,2.832 -0.164,2.764C-0.201,2.673 -0.158,2.569 -0.068,2.532L5.873,0.038C5.965,0 6.067,0.043 6.105,0.133C6.145,0.224 6.102,0.328 6.012,0.366L0.068,2.859C0.047,2.868 0.022,2.873 0,2.873" style="fill:rgb(101,101,106);fill-rule:nonzero;stroke:rgb(101,101,106);stroke-width:0.37px;"/>
                </g>
                <g transform="matrix(1,0,0,1,24.4159,19.8019)">
                    <path d="M0,4.172C-0.043,4.172 -0.086,4.157 -0.118,4.126L-4.315,0.329C-4.389,0.263 -4.395,0.151 -4.328,0.078C-4.263,0.005 -4.149,0 -4.077,0.065L0.119,3.862C0.191,3.928 0.197,4.041 0.132,4.114C0.097,4.152 0.049,4.172 0,4.172" style="fill:rgb(101,101,106);fill-rule:nonzero;stroke:rgb(101,101,106);stroke-width:0.37px;"/>
                </g>
                <g transform="matrix(1,0,0,1,13.9003,15.241)">
                    <path d="M0,1.106C-0.021,1.106 -0.043,1.102 -0.063,1.094L-1.934,0.367C-2.024,0.332 -2.069,0.229 -2.034,0.137C-2,0.046 -1.896,0 -1.805,0.036L0.064,0.763C0.155,0.798 0.201,0.901 0.165,0.993C0.139,1.063 0.071,1.106 0,1.106" style="fill:rgb(101,101,106);fill-rule:nonzero;stroke:rgb(101,101,106);stroke-width:0.37px;"/>
                </g>
                <g transform="matrix(1,0,0,1,9.8593,19.417)">
                    <path d="M0,3.885C-0.054,3.885 -0.105,3.861 -0.142,3.815C-0.2,3.737 -0.187,3.625 -0.107,3.566L4.492,0.06C4.57,0 4.683,0.015 4.741,0.094C4.802,0.172 4.785,0.283 4.707,0.343L0.107,3.848C0.075,3.873 0.037,3.885 0,3.885" style="fill:rgb(101,101,106);fill-rule:nonzero;stroke:rgb(101,101,106);stroke-width:0.37px;"/>
                </g>
                <g transform="matrix(1,0,0,1,16.6015,27.3503)">
                    <path d="M0,-2.183C-0.602,-2.183 -1.091,-1.693 -1.091,-1.092C-1.091,-0.49 -0.602,0 0,0C0.603,0 1.093,-0.49 1.093,-1.092C1.093,-1.693 0.603,-2.183 0,-2.183M0,0.355C-0.797,0.355 -1.445,-0.294 -1.445,-1.092C-1.445,-1.889 -0.797,-2.538 0,-2.538C0.799,-2.538 1.446,-1.889 1.446,-1.092C1.446,-0.294 0.799,0.355 0,0.355" style="fill:rgb(101,101,106);fill-rule:nonzero;stroke:rgb(101,101,106);stroke-width:0.37px;"/>
                </g>
                <g transform="matrix(1,0,0,1,16.9901,24.0977)">
                    <path d="M0,-2.092C-0.005,-2.092 -0.01,-2.092 -0.016,-2.093C-0.112,-2.101 -0.186,-2.187 -0.177,-2.285L-0.115,-2.992C-0.106,-3.09 -0.022,-3.162 0.076,-3.154C0.175,-3.146 0.246,-3.06 0.237,-2.962L0.178,-2.255C0.17,-2.162 0.092,-2.092 0,-2.092M-0.271,1.07C-0.276,1.07 -0.281,1.069 -0.286,1.069C-0.385,1.06 -0.456,0.974 -0.448,0.877L-0.269,-1.223C-0.26,-1.321 -0.176,-1.393 -0.075,-1.385C0.021,-1.377 0.095,-1.291 0.087,-1.193L-0.095,0.908C-0.104,1 -0.181,1.07 -0.271,1.07" style="fill:rgb(101,101,106);fill-rule:nonzero;stroke:rgb(101,101,106);stroke-width:0.37px;"/>
                </g>
                <g transform="matrix(1,0,0,1,24.8495,20.551)">
                    <path d="M0,-2.142C-0.149,-2.142 -0.3,-2.111 -0.44,-2.048C-0.708,-1.93 -0.913,-1.716 -1.018,-1.444C-1.233,-0.883 -0.953,-0.249 -0.394,-0.033C0.168,0.185 0.802,-0.096 1.02,-0.657C1.235,-1.218 0.955,-1.851 0.395,-2.068C0.267,-2.118 0.134,-2.142 0,-2.142M-0.002,0.396C-0.175,0.396 -0.351,0.365 -0.521,0.299C-1.265,0.011 -1.636,-0.828 -1.349,-1.572C-1.21,-1.932 -0.937,-2.217 -0.585,-2.373C-0.23,-2.53 0.161,-2.538 0.521,-2.399C1.267,-2.112 1.638,-1.273 1.351,-0.529C1.128,0.044 0.579,0.396 -0.002,0.396" style="fill:rgb(101,101,106);fill-rule:nonzero;stroke:rgb(101,101,106);stroke-width:0.37px;"/>
                </g>
                <g transform="matrix(1,0,0,1,23.5809,18.2224)">
                    <path d="M0,1.086C-0.017,1.086 -0.032,1.084 -0.05,1.079L-2.49,0.367C-2.585,0.34 -2.64,0.241 -2.611,0.147C-2.585,0.053 -2.486,0 -2.392,0.026L0.051,0.738C0.145,0.766 0.197,0.864 0.171,0.958C0.147,1.036 0.077,1.086 0,1.086" style="fill:rgb(101,101,106);fill-rule:nonzero;stroke:rgb(101,101,106);stroke-width:0.37px;"/>
                </g>
                <g transform="matrix(1,0,0,1,9.1854,8.553)">
                    <path d="M0,-2.041C-0.278,-2.041 -0.559,-1.935 -0.771,-1.722C-1.195,-1.296 -1.195,-0.604 -0.771,-0.179C-0.358,0.233 0.359,0.233 0.771,-0.179C1.197,-0.604 1.197,-1.296 0.771,-1.722C0.561,-1.935 0.279,-2.041 0,-2.041M0,0.496C-0.386,0.496 -0.749,0.346 -1.021,0.072C-1.586,-0.492 -1.586,-1.409 -1.021,-1.973C-0.458,-2.537 0.459,-2.537 1.023,-1.973C1.588,-1.409 1.588,-0.492 1.023,0.072C0.75,0.346 0.388,0.496 0,0.496" style="fill:rgb(101,101,106);fill-rule:nonzero;stroke:rgb(101,101,106);stroke-width:0.37px;"/>
                </g>
                <g transform="matrix(1,0,0,1,10.747,13.6565)">
                    <path d="M0,-4.205C-0.05,-4.205 -0.1,-4.226 -0.135,-4.267L-0.597,-4.806C-0.66,-4.88 -0.651,-4.993 -0.577,-5.057C-0.503,-5.12 -0.391,-5.111 -0.326,-5.037L0.136,-4.498C0.199,-4.424 0.19,-4.312 0.116,-4.248C0.082,-4.219 0.041,-4.205 0,-4.205M3.238,-0.433C3.188,-0.433 3.14,-0.454 3.104,-0.495L0.328,-3.728C0.266,-3.803 0.272,-3.914 0.349,-3.978C0.423,-4.041 0.534,-4.034 0.599,-3.959L3.373,-0.726C3.438,-0.651 3.43,-0.539 3.354,-0.475C3.32,-0.447 3.279,-0.433 3.238,-0.433M4.396,0.915C4.346,0.915 4.296,0.894 4.261,0.853L3.798,0.314C3.733,0.24 3.742,0.128 3.816,0.064C3.892,0.001 4.003,0.009 4.066,0.083L4.529,0.622C4.595,0.696 4.585,0.808 4.512,0.872C4.478,0.901 4.437,0.915 4.396,0.915" style="fill:rgb(101,101,106);fill-rule:nonzero;stroke:rgb(101,101,106);stroke-width:0.37px;"/>
                </g>
            </g>
            <g id="Isolation-Mode2" serif:id="Isolation Mode" transform="matrix(2.00704,0,0,2.00704,545.386,120.394)">
                <g transform="matrix(1,0,0,1,11.5926,9.1728)">
                    <path d="M0,-1.438L3.497,-1.438C3.804,-1.438 4.051,-1.116 4.051,-0.719C4.051,-0.321 3.804,0 3.497,0L-10.767,0C-11.071,0 -11.318,-0.321 -11.318,-0.719C-11.318,-1.116 -11.071,-1.438 -10.767,-1.438L0,-1.438Z" style="fill:none;stroke:rgb(101,101,106);stroke-width:0.66px;stroke-linecap:round;stroke-miterlimit:10;"/>
                </g>
                <g transform="matrix(1,0,0,1,2.0691,22.9796)">
                    <path d="M0,-12.862L4.004,-8.065C4.275,-7.738 4.478,-7.359 4.596,-6.95C4.676,-6.674 4.716,-6.388 4.716,-6.1L4.716,0L7.062,-2.208L7.062,-6.1C7.062,-6.388 7.104,-6.674 7.184,-6.95C7.301,-7.359 7.502,-7.738 7.774,-8.065L11.778,-12.862" style="fill:none;stroke:rgb(101,101,106);stroke-width:0.66px;stroke-linecap:round;stroke-miterlimit:10;"/>
                </g>
                <g transform="matrix(1,0,0,1,2.9627,4.0244)">
                    <path d="M0,-0.001C0,0.493 -0.4,0.894 -0.895,0.894C-1.388,0.894 -1.788,0.493 -1.788,-0.001C-1.788,-0.495 -1.388,-0.895 -0.895,-0.895C-0.4,-0.895 0,-0.495 0,-0.001" style="fill:rgb(187,219,112);fill-rule:nonzero;"/>
                </g>
                <g transform="matrix(1,0,0,1,6.8025,4.0244)">
                    <path d="M0,-0.001C0,0.493 -0.4,0.894 -0.896,0.894C-1.39,0.894 -1.789,0.493 -1.789,-0.001C-1.789,-0.495 -1.39,-0.895 -0.896,-0.895C-0.4,-0.895 0,-0.495 0,-0.001" style="fill:rgb(187,219,112);fill-rule:nonzero;"/>
                </g>
                <g transform="matrix(1,0,0,1,8.8523,0.894)">
                    <path d="M0,0C0,0.494 -0.399,0.894 -0.895,0.894C-1.389,0.894 -1.788,0.494 -1.788,0C-1.788,-0.494 -1.389,-0.894 -0.895,-0.894C-0.399,-0.894 0,-0.494 0,0" style="fill:rgb(187,219,112);fill-rule:nonzero;"/>
                </g>
                <g transform="matrix(1,0,0,1,10.6404,4.9169)">
                    <path d="M0,0.001C0,0.495 -0.399,0.895 -0.895,0.895C-1.388,0.895 -1.788,0.495 -1.788,0.001C-1.788,-0.493 -1.388,-0.894 -0.895,-0.894C-0.399,-0.894 0,-0.493 0,0.001" style="fill:rgb(187,219,112);fill-rule:nonzero;"/>
                </g>
                <g transform="matrix(1,0,0,1,13.8475,2.6816)">
                    <path d="M0,0.001C0,0.495 -0.399,0.895 -0.895,0.895C-1.388,0.895 -1.788,0.495 -1.788,0.001C-1.788,-0.493 -1.388,-0.894 -0.895,-0.894C-0.399,-0.894 0,-0.493 0,0.001" style="fill:rgb(187,219,112);fill-rule:nonzero;"/>
                </g>
            </g>
            <g id="Isolation-Mode3" serif:id="Isolation Mode" transform="matrix(1.93713,0,0,1.93713,792.078,572.841)">
                <g transform="matrix(1,0,0,1,4.0361,0.3925)">
                    <path d="M0,6.171L0,0C0,-0.217 0.176,-0.392 0.393,-0.392C0.608,-0.392 0.784,-0.217 0.784,0L0.784,6.171C0.784,6.388 0.608,6.563 0.393,6.563C0.176,6.563 0,6.388 0,6.171" style="fill:rgb(253,163,72);fill-rule:nonzero;"/>
                </g>
                <g transform="matrix(1,0,0,1,8.0723,0.0004)">
                    <path d="M0,5.361L0,5.27L0,0.392C0,0.174 0.177,0 0.394,0C0.609,0 0.784,0.174 0.784,0.392L0.784,4.904L0,5.361Z" style="fill:rgb(253,163,72);fill-rule:nonzero;"/>
                </g>
                <g transform="matrix(1,0,0,1,8.8565,10.5489)">
                    <path d="M0,-4.043L0,-0.393C0,-0.176 -0.175,0 -0.392,0C-0.607,0 -0.783,-0.176 -0.783,-0.393L-0.783,-3.631L0,-4.043Z" style="fill:rgb(253,163,72);fill-rule:nonzero;"/>
                </g>
                <g transform="matrix(1,0,0,1,0,0.3923)">
                    <path d="M0,8.054L0,0C0,-0.217 0.176,-0.392 0.393,-0.392C0.608,-0.392 0.784,-0.217 0.784,0L0.784,8.054C0.784,8.27 0.608,8.446 0.393,8.446C0.176,8.446 0,8.27 0,8.054" style="fill:rgb(253,163,72);fill-rule:nonzero;"/>
                </g>
                <g transform="matrix(1,0,0,1,0.0049,11.2757)">
                    <path d="M0,1.947L0,0.001C0,-0.216 0.176,-0.392 0.393,-0.392C0.608,-0.392 0.784,-0.216 0.784,0.001L0.784,1.947C0.784,2.164 0.608,2.339 0.393,2.339C0.176,2.339 0,2.164 0,1.947" style="fill:rgb(253,163,72);fill-rule:nonzero;"/>
                </g>
                <g transform="matrix(1,0,0,1,3.9873,8.2904)">
                    <path d="M0,1.945L0,0C0,-0.217 0.176,-0.393 0.393,-0.393C0.608,-0.393 0.783,-0.217 0.783,0L0.783,1.945C0.783,2.162 0.608,2.338 0.393,2.338C0.176,2.338 0,2.162 0,1.945" style="fill:rgb(253,163,72);fill-rule:nonzero;"/>
                </g>
                <g transform="matrix(1,0,0,1,12.8936,7.631)">
                    <path d="M0,-1.171L0,-0.095C0,0.122 -0.176,0.297 -0.393,0.297C-0.608,0.297 -0.783,0.122 -0.783,-0.095L-0.783,-1.468L0,-1.275L0,-1.171" style="fill:rgb(253,163,72);fill-rule:nonzero;"/>
                </g>
                <g transform="matrix(1,0,0,1,12.1094,0.297)">
                    <path d="M0,4.287L0,0.096C0,-0.121 0.176,-0.297 0.393,-0.297C0.608,-0.297 0.784,-0.121 0.784,0.096L0.778,4.584L0,4.287Z" style="fill:rgb(253,163,72);fill-rule:nonzero;"/>
                </g>
                <g transform="matrix(1,0,0,1,12.1084,9.4178)">
                    <path d="M0,3.633L0,0C0,-0.217 0.177,-0.392 0.393,-0.392C0.608,-0.392 0.784,-0.217 0.784,0L0.784,3.633C0.784,3.85 0.608,4.025 0.393,4.025C0.177,4.025 0,3.85 0,3.633" style="fill:rgb(253,163,72);fill-rule:nonzero;"/>
                </g>
                <g transform="matrix(1,0,0,1,14.5479,14.7055)">
                    <path d="M0,-0.224L1.033,0.809L1.824,0.019L0.79,-1.015L0,-0.224ZM1.033,1.272C0.984,1.272 0.937,1.254 0.897,1.214L-0.406,-0.089C-0.48,-0.163 -0.48,-0.286 -0.406,-0.36L0.654,-1.421C0.729,-1.496 0.852,-1.496 0.927,-1.421L2.23,-0.118C2.307,-0.041 2.307,0.08 2.23,0.154L1.17,1.214C1.133,1.254 1.082,1.272 1.033,1.272" style="fill:rgb(101,101,106);fill-rule:nonzero;stroke:rgb(101,101,106);stroke-width:0.28px;"/>
                </g>
                <g transform="matrix(1,0,0,1,15.5342,18.1695)">
                    <path d="M0,-2.065L3.295,1.23C3.689,1.623 4.329,1.623 4.724,1.23C5.116,0.835 5.116,0.197 4.724,-0.197L1.428,-3.493L0,-2.065ZM4.01,1.909C3.652,1.909 3.297,1.773 3.024,1.5L-0.406,-1.93C-0.441,-1.965 -0.463,-2.014 -0.463,-2.065C-0.463,-2.117 -0.441,-2.166 -0.406,-2.201L1.292,-3.899C1.366,-3.974 1.488,-3.974 1.562,-3.899L4.994,-0.468C5.537,0.075 5.537,0.957 4.994,1.5C4.724,1.773 4.365,1.909 4.01,1.909" style="fill:rgb(101,101,106);fill-rule:nonzero;stroke:rgb(101,101,106);stroke-width:0.28px;"/>
                </g>
                <g transform="matrix(1,0,0,1,10.7451,14.1243)">
                    <path d="M0,-8.01C-1.009,-8.01 -2.019,-7.626 -2.787,-6.858C-4.322,-5.322 -4.322,-2.822 -2.787,-1.283C-1.25,0.253 1.25,0.253 2.787,-1.283C4.324,-2.822 4.324,-5.322 2.787,-6.858C2.02,-7.625 1.011,-8.01 0,-8.01M0,0.252C-1.106,0.252 -2.215,-0.169 -3.058,-1.013C-4.743,-2.698 -4.743,-5.443 -3.058,-7.128C-1.371,-8.815 1.372,-8.815 3.06,-7.128C4.744,-5.443 4.744,-2.698 3.06,-1.013C2.216,-0.169 1.107,0.252 0,0.252M-3.896,-7.967L-3.893,-7.967L-3.896,-7.967ZM0,-9.389C-1.421,-9.389 -2.756,-8.836 -3.761,-7.831C-4.766,-6.826 -5.317,-5.491 -5.317,-4.072C-5.317,-2.65 -4.766,-1.314 -3.761,-0.31C-1.687,1.763 1.687,1.763 3.762,-0.31C4.767,-1.314 5.319,-2.65 5.319,-4.072C5.319,-5.491 4.767,-6.826 3.762,-7.831C2.758,-8.836 1.422,-9.389 0,-9.389M0,1.629C-1.46,1.629 -2.92,1.073 -4.031,-0.038C-5.108,-1.115 -5.701,-2.547 -5.701,-4.072C-5.701,-5.594 -5.108,-7.027 -4.031,-8.103C-2.955,-9.18 -1.521,-9.773 0,-9.773C1.523,-9.773 2.955,-9.18 4.032,-8.103C5.109,-7.027 5.702,-5.594 5.702,-4.072C5.702,-2.547 5.109,-1.115 4.032,-0.038C2.922,1.073 1.46,1.629 0,1.629" style="fill:rgb(101,101,106);fill-rule:nonzero;stroke:rgb(101,101,106);stroke-width:0.28px;"/>
                </g>
            </g>
            <g id="Isolation-Mode4" serif:id="Isolation Mode" transform="matrix(1.88134,0,0,1.88134,534.432,715.206)">
                <g transform="matrix(1,0,0,1,15.2583,0.1129)">
                    <path d="M0,8.014C-0.05,8.014 -0.1,7.993 -0.138,7.954C-0.211,7.879 -0.21,7.758 -0.134,7.685L7.688,0.075C7.766,0 7.887,0.002 7.96,0.077C8.033,0.154 8.031,0.276 7.956,0.349L0.135,7.959C0.097,7.994 0.049,8.014 0,8.014" style="fill:rgb(101,101,106);fill-rule:nonzero;stroke:rgb(101,101,106);stroke-width:0.28px;"/>
                </g>
                <g transform="matrix(1,0,0,1,13.0263,5.0173)">
                    <path d="M0,3.717C-0.034,3.717 -0.068,3.708 -0.1,3.69L-5.538,0.383C-5.629,0.327 -5.393,0.473 -5.339,0.383C-5.283,0.293 -5.43,0 -5.339,0.055L0.1,3.362C0.19,3.417 0.219,3.533 0.164,3.625C0.128,3.685 0.064,3.717 0,3.717" style="fill:rgb(101,101,106);fill-rule:nonzero;stroke:rgb(101,101,106);stroke-width:0.28px;"/>
                </g>
                <g transform="matrix(1,0,0,1,2.0966,5.3663)">
                    <path d="M0,4.452C-0.046,4.452 -0.092,4.434 -0.128,4.403C-0.207,4.332 -0.214,4.211 -0.143,4.132L3.5,0.085C3.571,0.006 3.692,0 3.771,0.07C3.85,0.14 3.856,0.263 3.785,0.342L0.143,4.389C0.104,4.431 0.053,4.452 0,4.452" style="fill:rgb(101,101,106);fill-rule:nonzero;stroke:rgb(101,101,106);stroke-width:0.28px;"/>
                </g>
                <g transform="matrix(1,0,0,1,23.3305,0.0002)">
                    <path d="M0,1.862L-0.002,1.862C-0.107,1.861 -0.191,1.774 -0.19,1.668L-0.176,0.399L-1.444,0.383C-1.551,0.383 -1.636,0.296 -1.635,0.189C-1.633,0.085 -1.548,0 -1.441,0L-1.439,0L0.021,0.018C0.126,0.019 0.212,0.106 0.211,0.212L0.192,1.673C0.19,1.778 0.105,1.862 0,1.862" style="fill:rgb(101,101,106);fill-rule:nonzero;stroke:rgb(101,101,106);stroke-width:0.28px;"/>
                </g>
                <g transform="matrix(1,0,0,1,18.1001,13.5208)">
                    <path d="M0,-0.224L1.033,0.809L1.823,0.019L0.79,-1.015L0,-0.224ZM1.033,1.272C0.984,1.272 0.937,1.254 0.897,1.214L-0.406,-0.089C-0.481,-0.163 -0.481,-0.286 -0.406,-0.36L0.654,-1.421C0.729,-1.496 0.852,-1.496 0.927,-1.421L2.23,-0.118C2.307,-0.041 2.307,0.08 2.23,0.154L1.169,1.214C1.133,1.254 1.082,1.272 1.033,1.272" style="fill:rgb(101,101,106);fill-rule:nonzero;stroke:rgb(101,101,106);stroke-width:0.28px;"/>
                </g>
                <g transform="matrix(1,0,0,1,19.0864,16.9849)">
                    <path d="M0,-2.065L3.295,1.23C3.688,1.623 4.329,1.623 4.724,1.23C5.116,0.835 5.116,0.197 4.724,-0.197L1.428,-3.493L0,-2.065ZM4.01,1.909C3.652,1.909 3.297,1.773 3.024,1.5L-0.406,-1.93C-0.442,-1.965 -0.463,-2.014 -0.463,-2.065C-0.463,-2.117 -0.442,-2.166 -0.406,-2.201L1.291,-3.899C1.366,-3.974 1.487,-3.974 1.562,-3.899L4.993,-0.468C5.536,0.075 5.536,0.957 4.993,1.5C4.723,1.773 4.365,1.909 4.01,1.909" style="fill:rgb(101,101,106);fill-rule:nonzero;stroke:rgb(101,101,106);stroke-width:0.28px;"/>
                </g>
                <g transform="matrix(1,0,0,1,14.2973,12.9396)">
                    <path d="M0,-8.01C-1.01,-8.01 -2.019,-7.626 -2.787,-6.858C-4.323,-5.322 -4.323,-2.822 -2.787,-1.283C-1.25,0.253 1.25,0.253 2.787,-1.283C4.323,-2.822 4.323,-5.322 2.787,-6.858C2.02,-7.625 1.01,-8.01 0,-8.01M0,0.252C-1.106,0.252 -2.214,-0.169 -3.058,-1.013C-4.744,-2.698 -4.744,-5.444 -3.058,-7.128C-1.371,-8.815 1.372,-8.815 3.059,-7.128C4.744,-5.444 4.744,-2.698 3.059,-1.013C2.216,-0.169 1.107,0.252 0,0.252M-3.896,-7.967L-3.893,-7.967L-3.896,-7.967ZM0,-9.389C-1.42,-9.389 -2.755,-8.836 -3.761,-7.831C-4.766,-6.826 -5.317,-5.491 -5.317,-4.072C-5.317,-2.65 -4.766,-1.314 -3.761,-0.31C-1.687,1.763 1.687,1.763 3.762,-0.31C4.767,-1.314 5.319,-2.65 5.319,-4.072C5.319,-5.491 4.767,-6.826 3.762,-7.831C2.757,-8.836 1.422,-9.389 0,-9.389M0,1.629C-1.459,1.63 -2.919,1.073 -4.032,-0.038C-5.108,-1.115 -5.702,-2.547 -5.702,-4.072C-5.702,-5.594 -5.108,-7.027 -4.032,-8.103C-2.955,-9.18 -1.522,-9.773 0,-9.773C1.523,-9.773 2.955,-9.18 4.032,-8.103C5.109,-7.027 5.702,-5.594 5.702,-4.072C5.702,-2.547 5.109,-1.115 4.032,-0.038C2.922,1.073 1.461,1.629 0,1.629" style="fill:rgb(101,101,106);fill-rule:nonzero;stroke:rgb(101,101,106);stroke-width:0.28px;"/>
                </g>
                <g transform="matrix(1,0,0,1,14.4624,7.3044)">
                    <path d="M0,2.926C-0.807,2.926 -1.462,2.27 -1.462,1.463C-1.462,0.655 -0.807,0 0,0C0.809,0 1.465,0.655 1.465,1.463C1.465,2.27 0.809,2.926 0,2.926" style="fill:rgb(206,138,190);fill-rule:nonzero;"/>
                </g>
                <g transform="matrix(1,0,0,1,6.6728,5.6453)">
                    <path d="M0,-2.158C-0.596,-2.158 -1.079,-1.675 -1.079,-1.079C-1.079,-0.483 -0.596,0.001 0,0.001C0.595,0.001 1.079,-0.483 1.079,-1.079C1.079,-1.675 0.595,-2.158 0,-2.158M0,0.384C-0.807,0.384 -1.463,-0.272 -1.463,-1.079C-1.463,-1.887 -0.807,-2.542 0,-2.542C0.807,-2.542 1.463,-1.887 1.463,-1.079C1.463,-0.272 0.807,0.384 0,0.384" style="fill:rgb(101,101,106);fill-rule:nonzero;stroke:rgb(101,101,106);stroke-width:0.28px;"/>
                </g>
                <g transform="matrix(1,0,0,1,1.4629,11.6951)">
                    <path d="M0,-2.16C-0.595,-2.16 -1.079,-1.676 -1.079,-1.08C-1.079,-0.485 -0.595,-0.001 0,-0.001C0.596,-0.001 1.08,-0.485 1.08,-1.08C1.08,-1.676 0.596,-2.16 0,-2.16M0,0.383C-0.807,0.383 -1.463,-0.273 -1.463,-1.08C-1.463,-1.888 -0.807,-2.543 0,-2.543C0.807,-2.543 1.463,-1.888 1.463,-1.08C1.463,-0.273 0.807,0.383 0,0.383" style="fill:rgb(101,101,106);fill-rule:nonzero;stroke:rgb(101,101,106);stroke-width:0.28px;"/>
                </g>
            </g>
            <g id="Isolation-Mode5" serif:id="Isolation Mode" transform="matrix(2.1098,0,0,2.1098,291.906,262.544)">
                <g transform="matrix(1,0,0,1,1.4273,1.2013)">
                    <path d="M0,0.534C-0.066,0.534 -0.132,0.508 -0.182,0.459C-0.229,0.41 -0.257,0.346 -0.257,0.277C-0.257,0.26 -0.255,0.244 -0.252,0.227C-0.248,0.21 -0.243,0.195 -0.236,0.18C-0.229,0.164 -0.223,0.149 -0.212,0.135C-0.204,0.121 -0.193,0.108 -0.182,0.096C-0.086,0.002 0.087,0 0.184,0.096C0.193,0.108 0.205,0.121 0.214,0.135C0.225,0.149 0.231,0.164 0.238,0.18C0.245,0.195 0.25,0.21 0.253,0.227C0.255,0.244 0.257,0.26 0.257,0.277C0.257,0.346 0.231,0.41 0.184,0.459C0.134,0.508 0.068,0.534 0,0.534" style="fill:rgb(101,101,106);fill-rule:nonzero;stroke:rgb(101,101,106);stroke-width:0.25px;"/>
                </g>
                <g transform="matrix(1,0,0,1,3.2486,1.4785)">
                    <path d="M0,0C0,-0.142 0.114,-0.257 0.257,-0.257C0.397,-0.257 0.514,-0.142 0.514,0C0.514,0.142 0.397,0.257 0.257,0.257C0.114,0.257 0,0.142 0,0" style="fill:rgb(101,101,106);fill-rule:nonzero;stroke:rgb(101,101,106);stroke-width:0.25px;"/>
                </g>
                <g transform="matrix(1,0,0,1,5.5816,1.2013)">
                    <path d="M0,0.534C-0.068,0.534 -0.134,0.508 -0.182,0.459C-0.229,0.41 -0.257,0.346 -0.257,0.277C-0.257,0.26 -0.255,0.244 -0.252,0.227C-0.248,0.21 -0.243,0.195 -0.238,0.18C-0.231,0.164 -0.223,0.149 -0.214,0.135C-0.204,0.121 -0.193,0.108 -0.182,0.096C-0.087,0.002 0.086,0 0.182,0.096C0.193,0.108 0.204,0.121 0.214,0.135C0.223,0.149 0.231,0.164 0.236,0.18C0.243,0.195 0.248,0.21 0.252,0.227C0.255,0.244 0.257,0.26 0.257,0.277C0.257,0.346 0.229,0.41 0.182,0.459C0.157,0.483 0.128,0.501 0.098,0.515C0.066,0.527 0.034,0.534 0,0.534" style="fill:rgb(101,101,106);fill-rule:nonzero;stroke:rgb(101,101,106);stroke-width:0.25px;"/>
                </g>
                <g transform="matrix(1,0,0,1,0,-14.7098)">
                    <path d="M0.528,17.163L17.093,17.163L17.093,15.224L0.528,15.224L0.528,17.163ZM17.35,17.677L0.271,17.677C0.129,17.677 0.014,17.561 0.014,17.42L0.014,14.967C0.014,14.824 0.129,14.71 0.271,14.71L17.35,14.71C17.492,14.71 17.607,14.824 17.607,14.967L17.607,17.42C17.607,17.561 17.492,17.677 17.35,17.677" style="fill:rgb(101,101,106);fill-rule:nonzero;stroke:rgb(101,101,106);stroke-width:0.25px;"/>
                </g>
                <g transform="matrix(1,0,0,1,5.0503,5.0833)">
                    <path d="M0,7.733L7.493,7.733L3.747,1.434L0,7.733ZM7.944,8.246L-0.451,8.246C-0.544,8.246 -0.629,8.197 -0.675,8.116C-0.72,8.036 -0.72,7.938 -0.672,7.858L3.526,0.801C3.572,0.723 3.656,0.675 3.747,0.675C3.837,0.675 3.921,0.723 3.968,0.801L8.165,7.858C8.213,7.938 8.214,8.036 8.168,8.116C8.122,8.197 8.037,8.246 7.944,8.246M-2.121,8.921L9.614,8.921L3.747,-0.943L-2.121,8.921ZM10.065,9.435L-2.572,9.435C-2.665,9.435 -2.75,9.385 -2.796,9.305C-2.841,9.225 -2.841,9.126 -2.793,9.047L3.526,-1.577C3.572,-1.655 3.656,-1.702 3.747,-1.702C3.837,-1.702 3.921,-1.655 3.968,-1.577L10.286,9.047C10.334,9.126 10.335,9.225 10.289,9.305C10.243,9.385 10.158,9.435 10.065,9.435" style="fill:rgb(255,66,41);fill-rule:nonzero;"/>
                </g>
                <g transform="matrix(1,0,0,1,0.5142,2.939)">
                    <path d="M0,14.225L14.569,14.225L14.569,12.544C14.569,12.403 14.685,12.288 14.826,12.288L16.565,12.288L16.565,0.001L0,0.001L0,14.225ZM14.826,14.738L-0.257,14.738C-0.398,14.738 -0.514,14.623 -0.514,14.482L-0.514,-0.256C-0.514,-0.398 -0.398,-0.513 -0.257,-0.513L16.822,-0.513C16.964,-0.513 17.079,-0.398 17.079,-0.256L17.079,12.544C17.079,12.686 16.964,12.801 16.822,12.801L15.083,12.801L15.083,14.482C15.083,14.623 14.968,14.738 14.826,14.738" style="fill:rgb(101,101,106);fill-rule:nonzero;stroke:rgb(101,101,106);stroke-width:0.25px;"/>
                </g>
                <g transform="matrix(1,0,0,1,15.5972,17.1632)">
                    <path d="M0,-1.423L0,-0.35L1.106,-1.423L0,-1.423ZM-0.257,0.514C-0.291,0.514 -0.324,0.508 -0.356,0.494C-0.452,0.453 -0.514,0.361 -0.514,0.258L-0.514,-1.68C-0.514,-1.821 -0.398,-1.937 -0.257,-1.937L1.739,-1.937C1.844,-1.937 1.937,-1.873 1.978,-1.776C2.017,-1.679 1.993,-1.569 1.918,-1.496L-0.078,0.442C-0.127,0.489 -0.191,0.514 -0.257,0.514" style="fill:rgb(101,101,106);fill-rule:nonzero;stroke:rgb(101,101,106);stroke-width:0.25px;"/>
                </g>
                <g transform="matrix(1,0,0,1,8.8609,8.1901)">
                    <path d="M0,3.302C-0.143,3.302 -0.257,3.187 -0.257,3.045L-0.257,0.256C-0.257,0.114 -0.143,0 0,0C0.142,0 0.256,0.114 0.256,0.256L0.256,3.045C0.256,3.187 0.142,3.302 0,3.302" style="fill:rgb(255,66,41);fill-rule:nonzero;"/>
                </g>
                <g transform="matrix(1,0,0,1,8.604,12.0209)">
                    <path d="M0,0C0,-0.142 0.115,-0.257 0.257,-0.257C0.397,-0.257 0.514,-0.142 0.514,0C0.514,0.14 0.397,0.257 0.257,0.257C0.115,0.257 0,0.14 0,0" style="fill:rgb(255,66,41);fill-rule:nonzero;"/>
                </g>
            </g>
        </g>
    </g>
</svg>
