<?xml version="1.0" encoding="UTF-8" standalone="no"?>
<!DOCTYPE svg PUBLIC "-//W3C//DTD SVG 1.1//EN" "http://www.w3.org/Graphics/SVG/1.1/DTD/svg11.dtd">
<svg width="100%" height="100%" viewBox="0 0 107 89" version="1.1" xmlns="http://www.w3.org/2000/svg" xmlns:xlink="http://www.w3.org/1999/xlink" xml:space="preserve" xmlns:serif="http://www.serif.com/" style="fill-rule:evenodd;clip-rule:evenodd;stroke-linejoin:round;stroke-miterlimit:1.41421;">
    <g transform="matrix(1,0,0,1,-1008,-132)">
        <g transform="matrix(1,0,0,1,23.8037,-7.02243)">
            <g transform="matrix(1,0,0,1,10.6563,40.7549)">
                <path d="M1077.19,185.179L978.848,185.179L977.312,107.852L978.848,107.852C980.406,103.53 988.96,100.221 999.266,100.221C1009.57,100.221 1018.12,103.53 1019.68,107.852L1071.63,110.497L1074,110.497L1077.19,113.504L1077.19,185.179Z" style="fill:rgb(255,107,14);"/>
                <g id="vv" transform="matrix(0.762689,0,0,0.762689,969.151,94.7508)">
                    <path d="M126.965,16.469L74.502,16.469L73.552,16.469L72.677,16.469L58.667,6.851C56.915,5.977 54.289,5.103 52.537,5.103L23.642,5.103C10.448,5.103 5.946,10.703 5.946,23.931L5.946,104.374C5.946,117.49 10.507,121.133 23.642,121.133L126.09,121.133C139.224,121.133 145.845,117.49 145.845,104.374L145.845,35.298C146.721,22.183 140.1,16.469 126.965,16.469ZM24.517,9.941L54.289,9.941L68.299,19.559C70.05,21.308 72.677,21.308 75.304,21.308L128.716,21.308C135.722,21.308 141.851,27.429 141.851,34.424C139.224,32.675 136.597,30.926 133.095,30.926L75.304,30.926C73.552,30.926 71.801,31.801 70.05,32.675L56.915,43.168C56.04,44.042 55.164,44.042 54.289,44.042L21.015,44.042C17.512,44.042 14.01,44.916 12.259,47.54L12.259,23.931C11.383,16.062 17.512,9.941 24.517,9.941ZM126.965,116.616L24.517,116.616C16.637,116.616 11.383,110.495 11.383,103.5L11.383,57.158C12.259,52.786 15.761,49.288 20.139,49.288L53.413,49.288C55.164,49.288 56.915,48.414 58.667,47.54L71.801,37.047C72.677,36.173 73.552,36.173 73.552,36.173L131.343,36.173C135.722,36.173 140.1,39.67 140.1,44.042L140.1,103.5C140.975,110.495 134.846,116.616 126.965,116.616Z" style="fill:white;fill-rule:nonzero;"/>
                </g>
            </g>
        </g>
    </g>
</svg>
