<?xml version="1.0" encoding="UTF-8" standalone="no"?>
<!DOCTYPE svg PUBLIC "-//W3C//DTD SVG 1.1//EN" "http://www.w3.org/Graphics/SVG/1.1/DTD/svg11.dtd">
<svg width="100%" height="100%" viewBox="0 0 202 153" version="1.1" xmlns="http://www.w3.org/2000/svg" xmlns:xlink="http://www.w3.org/1999/xlink" xml:space="preserve" xmlns:serif="http://www.serif.com/" style="fill-rule:evenodd;clip-rule:evenodd;stroke-linecap:round;stroke-miterlimit:1.5;">
    <g transform="matrix(1,0,0,1,-327,-521)">
        <g transform="matrix(1.25427e-16,-2.04838,2.04838,1.25427e-16,-244.926,1609.24)">
            <g transform="matrix(0.38532,3.6601e-33,-3.6601e-33,0.38532,157.71,197.001)">
                <path d="M784.61,222.997C784.61,222.997 784.61,365.243 784.61,424.934C784.61,431.797 787.336,438.38 792.19,443.233C797.043,448.086 803.625,450.813 810.489,450.813C856.584,450.813 948.116,450.813 948.116,450.813" style="fill:none;stroke:rgb(71,175,232);stroke-width:9.5px;stroke-dasharray:0,14.25,0,0;"/>
            </g>
            <g transform="matrix(1,1.2326e-32,-1.2326e-32,1,6.17128,0)">
                <g transform="matrix(1.79751,0,0,1.79751,-389.495,-288.618)">
                    <circle cx="504.776" cy="366.799" r="3.865" style="fill:rgb(71,175,232);"/>
                </g>
                <g transform="matrix(1.402,-2.73691e-48,0,1.08158,-207.608,-30.1965)">
                    <path d="M516.676,367.704L519.636,370.664L516.676,367.704Z" style="fill:rgb(71,175,232);stroke:white;stroke-width:1.56px;stroke-linejoin:round;"/>
                </g>
                <g transform="matrix(1.402,-2.73691e-48,0,-1.08158,-207.608,771.612)">
                    <path d="M516.676,367.704L519.636,370.664L516.676,367.704Z" style="fill:rgb(71,175,232);stroke:white;stroke-width:1.56px;stroke-linejoin:round;"/>
                </g>
            </g>
        </g>
    </g>
</svg>
