<?xml version="1.0" encoding="UTF-8" standalone="no"?>
<!DOCTYPE svg PUBLIC "-//W3C//DTD SVG 1.1//EN" "http://www.w3.org/Graphics/SVG/1.1/DTD/svg11.dtd">
<svg width="100%" height="100%" viewBox="0 0 131 112" version="1.1" xmlns="http://www.w3.org/2000/svg" xmlns:xlink="http://www.w3.org/1999/xlink" xml:space="preserve" xmlns:serif="http://www.serif.com/" style="fill-rule:evenodd;clip-rule:evenodd;stroke-linecap:round;stroke-linejoin:round;stroke-miterlimit:1.5;">
    <g transform="matrix(1,0,0,1,-850,-669)">
        <g transform="matrix(1,0,0,1,-0.684275,37)">
            <g transform="matrix(1,0,0,1,0.843046,-20.4233)">
                <g transform="matrix(1,0,0,1,-7.14304,16.1381)">
                    <path d="M987.414,691.978L955.063,747.402L889.159,747.402L857.586,691.978L889.159,636.555L955.063,636.555L987.414,691.978Z" style="fill:rgb(184,36,60);"/>
                </g>
                <g transform="matrix(0.876172,0,0,0.889037,107.088,92.922)">
                    <path d="M987.414,691.978L955.063,747.402L889.159,747.402L857.586,691.978L889.159,636.555L955.063,636.555L987.414,691.978Z" style="fill:none;stroke:white;stroke-width:1.13px;"/>
                </g>
                <g transform="matrix(1,0,0,1,33.3369,-1.16502)">
                    <text x="848.247px" y="694.548px" style="font-family:'Nunito-Bold', 'Nunito';font-weight:700;font-size:20px;fill:white;">BL<tspan x="872.247px " y="694.548px ">O</tspan>CK</text>
                    <text x="862.087px" y="714.548px" style="font-family:'Nunito-Regular', 'Nunito';font-size:20px;fill:white;">until</text>
                    <text x="838.277px" y="734.548px" style="font-family:'Nunito-Bold', 'Nunito';font-weight:700;font-size:20px;fill:white;">VERDIC<tspan x="912.297px " y="734.548px ">T</tspan></text>
                </g>
            </g>
        </g>
    </g>
</svg>
