<?xml version="1.0" encoding="UTF-8" standalone="no"?>
<!DOCTYPE svg PUBLIC "-//W3C//DTD SVG 1.1//EN" "http://www.w3.org/Graphics/SVG/1.1/DTD/svg11.dtd">
<svg width="100%" height="100%" viewBox="0 0 49 144" version="1.1" xmlns="http://www.w3.org/2000/svg" xmlns:xlink="http://www.w3.org/1999/xlink" xml:space="preserve" xmlns:serif="http://www.serif.com/" style="fill-rule:evenodd;clip-rule:evenodd;stroke-linecap:round;stroke-linejoin:round;stroke-miterlimit:1.5;">
    <g transform="matrix(1,0,0,1,-622,-93)">
        <g>
            <path d="M631.169,104.377C631.169,104.377 631.169,189.021 631.169,222.007C631.169,225.439 632.532,228.73 634.959,231.157C637.386,233.584 640.677,234.947 644.109,234.947C654.982,234.947 668.76,234.947 668.76,234.947" style="fill:none;stroke:rgb(255,153,0);stroke-width:4px;stroke-dasharray:0.04,6,0,0;"/>
            <g transform="matrix(-1.74758e-17,-0.285402,-0.285402,1.74758e-17,631.153,101.792)">
                <g transform="matrix(1,0,0,1,-30.5,-31)">
                    <g transform="matrix(4.38195,0,0,4.38195,-2240.36,-1592.79)">
                        <g transform="matrix(1.79751,0,0,1.79751,-389.121,-288.662)">
                            <circle cx="504.776" cy="366.799" r="3.865" style="fill:rgb(243,110,35);"/>
                        </g>
                        <g transform="matrix(1.402,0,0,1.402,-207.997,-149.955)">
                            <g transform="matrix(1,0,0,0.771459,0.544678,85.3884)">
                                <path d="M516.676,367.704L519.636,370.664" style="fill:white;stroke:white;stroke-width:1.56px;"/>
                            </g>
                            <g transform="matrix(1,0,0,-0.771459,0.544678,657.292)">
                                <path d="M516.676,367.704L519.636,370.664" style="fill:white;stroke:white;stroke-width:1.56px;"/>
                            </g>
                        </g>
                    </g>
                </g>
            </g>
        </g>
    </g>
</svg>
