<?xml version="1.0" encoding="UTF-8" standalone="no"?>
<!DOCTYPE svg PUBLIC "-//W3C//DTD SVG 1.1//EN" "http://www.w3.org/Graphics/SVG/1.1/DTD/svg11.dtd">
<svg width="100%" height="100%" viewBox="0 0 862 118" version="1.1" xmlns="http://www.w3.org/2000/svg" xmlns:xlink="http://www.w3.org/1999/xlink" xml:space="preserve" xmlns:serif="http://www.serif.com/" style="fill-rule:evenodd;clip-rule:evenodd;stroke-linejoin:round;stroke-miterlimit:1.41421;">
    <g transform="matrix(1,0,0,1,-51,-101)">
        <g>
            <g transform="matrix(0.370394,0,0,0.370394,-54.7978,89.7962)">
                <path d="M315.067,72C315.067,72 292.271,63.793 287.244,50.135C281.616,34.846 302.483,31.356 323.826,31.964C335.328,32.291 349.386,34.041 349.386,34.041C349.386,34.041 316.175,38.269 304.174,47.954C292.455,57.411 315.067,72 315.067,72Z" style="fill:rgb(243,109,36);fill-rule:nonzero;"/>
            </g>
            <g transform="matrix(0.370394,0,0,0.370394,364.032,89.7962)">
                <path d="M315.067,72C315.067,72 292.271,63.793 287.244,50.135C281.616,34.846 302.483,31.356 323.826,31.964C335.328,32.291 349.386,34.041 349.386,34.041C349.386,34.041 316.175,38.269 304.174,47.954C292.455,57.411 315.067,72 315.067,72Z" style="fill:rgb(243,109,36);fill-rule:nonzero;"/>
            </g>
            <g transform="matrix(0.370394,0,0,0.370394,783.351,90.7962)">
                <path d="M315.067,72C315.067,72 292.271,63.793 287.244,50.135C281.616,34.846 302.483,31.356 323.826,31.964C335.328,32.291 349.386,34.041 349.386,34.041C349.386,34.041 316.175,38.269 304.174,47.954C292.455,57.411 315.067,72 315.067,72Z" style="fill:rgb(243,109,36);fill-rule:nonzero;"/>
            </g>
            <g transform="matrix(0.370394,0,0,0.370394,783.351,169.735)">
                <path d="M315.067,72C315.067,72 292.271,63.793 287.244,50.135C281.616,34.846 302.483,31.356 323.826,31.964C335.328,32.291 349.386,34.041 349.386,34.041C349.386,34.041 316.175,38.269 304.174,47.954C292.455,57.411 315.067,72 315.067,72Z" style="fill:rgb(243,109,36);fill-rule:nonzero;"/>
            </g>
            <g transform="matrix(0.370394,0,0,0.370394,364.032,171.185)">
                <path d="M315.067,72C315.067,72 292.271,63.793 287.244,50.135C281.616,34.846 302.483,31.356 323.826,31.964C335.328,32.291 349.386,34.041 349.386,34.041C349.386,34.041 316.175,38.269 304.174,47.954C292.455,57.411 315.067,72 315.067,72Z" style="fill:rgb(243,109,36);fill-rule:nonzero;"/>
            </g>
            <g transform="matrix(0.370394,0,0,0.370394,-53.7978,192.294)">
                <path d="M315.067,72C315.067,72 292.271,63.793 287.244,50.135C281.616,34.846 302.483,31.356 323.826,31.964C335.328,32.291 349.386,34.041 349.386,34.041C349.386,34.041 316.175,38.269 304.174,47.954C292.455,57.411 315.067,72 315.067,72Z" style="fill:rgb(243,109,36);fill-rule:nonzero;"/>
            </g>
        </g>
    </g>
</svg>
