<?xml version="1.0" encoding="UTF-8" standalone="no"?>
<!DOCTYPE svg PUBLIC "-//W3C//DTD SVG 1.1//EN" "http://www.w3.org/Graphics/SVG/1.1/DTD/svg11.dtd">
<svg width="100%" height="100%" viewBox="0 0 186 231" version="1.1" xmlns="http://www.w3.org/2000/svg" xmlns:xlink="http://www.w3.org/1999/xlink" xml:space="preserve" xmlns:serif="http://www.serif.com/" style="fill-rule:evenodd;clip-rule:evenodd;stroke-linejoin:round;stroke-miterlimit:1.41421;">
    <g transform="matrix(1,0,0,1,-129,-201)">
        <g transform="matrix(1,0,0,1,-0.684275,0)">
            <g transform="matrix(1,0,0,1,38.0332,69.1292)">
                <g transform="matrix(1,0,0,1,2,-1)">
                    <path d="M94.64,139.227C94.64,138.696 94.85,138.187 95.226,137.812C95.601,137.437 96.109,137.227 96.64,137.227C111.032,137.227 198.53,137.227 208.822,137.227C209.428,137.227 209.982,137.569 210.253,138.11L222.31,162.2L266.669,162.2C269.239,162.2 271.326,164.287 271.326,166.857L271.326,354.562C271.326,357.132 269.239,359.218 266.669,359.218L99.297,359.218C96.726,359.218 94.64,357.132 94.64,354.562L94.64,139.227Z" style="fill:rgb(185,185,185);"/>
                    <path d="M209.02,133.229L209.216,133.24L209.413,133.257L209.606,133.281L209.799,133.312L209.99,133.349L210.179,133.393L210.366,133.443L210.551,133.499L210.733,133.562L210.912,133.63L211.089,133.705L211.263,133.786L211.434,133.872L211.601,133.964L211.765,134.062L211.927,134.165L212.084,134.274L212.238,134.388L212.387,134.507L212.533,134.632L212.675,134.761L212.812,134.896L212.946,135.037L213.074,135.181L213.198,135.331L213.317,135.485L213.43,135.643L213.539,135.806L213.642,135.974L213.739,136.145L213.814,136.289L224.781,158.2L266.682,158.2L266.78,158.201L266.89,158.203L267,158.206L267.111,158.211L267.222,158.217L267.343,158.226L267.549,158.244L267.767,158.269L267.983,158.299L268.197,158.335L268.41,158.376L268.62,158.422L268.83,158.473L269.037,158.529L269.242,158.59L269.445,158.656L269.646,158.727L269.844,158.802L270.04,158.882L270.233,158.967L270.424,159.056L270.612,159.15L270.798,159.248L270.981,159.35L271.161,159.456L271.338,159.567L271.512,159.681L271.683,159.8L271.85,159.922L272.015,160.049L272.177,160.179L272.335,160.313L272.49,160.45L272.642,160.591L272.79,160.736L272.934,160.884L273.076,161.036L273.213,161.191L273.347,161.349L273.477,161.511L273.603,161.675L273.726,161.843L273.844,162.014L273.959,162.188L274.069,162.365L274.176,162.545L274.278,162.728L274.376,162.913L274.469,163.101L274.559,163.292L274.643,163.486L274.723,163.682L274.799,163.88L274.87,164.08L274.936,164.284L274.997,164.489L275.053,164.696L275.104,164.905L275.15,165.116L275.191,165.329L275.226,165.543L275.256,165.759L275.281,165.976L275.3,166.182L275.308,166.304L275.314,166.414L275.319,166.525L275.323,166.635L275.325,166.746L275.326,166.845L275.326,354.574L275.325,354.672L275.323,354.783L275.319,354.893L275.314,355.004L275.308,355.114L275.3,355.236L275.281,355.442L275.256,355.659L275.226,355.875L275.191,356.089L275.15,356.302L275.104,356.513L275.053,356.723L274.997,356.93L274.936,357.134L274.87,357.337L274.799,357.538L274.723,357.737L274.643,357.933L274.559,358.126L274.469,358.317L274.376,358.505L274.278,358.691L274.176,358.873L274.069,359.053L273.959,359.23L273.844,359.404L273.726,359.575L273.603,359.744L273.477,359.908L273.347,360.069L273.213,360.228L273.075,360.383L272.934,360.534L272.79,360.682L272.642,360.827L272.49,360.968L272.335,361.106L272.177,361.24L272.015,361.37L271.851,361.496L271.683,361.618L271.511,361.737L271.338,361.852L271.16,361.962L270.981,362.068L270.798,362.171L270.612,362.269L270.424,362.362L270.233,362.452L270.04,362.536L269.844,362.616L269.646,362.692L269.445,362.762L269.241,362.829L269.037,362.889L268.83,362.946L268.62,362.997L268.41,363.043L268.197,363.084L267.982,363.119L267.767,363.149L267.549,363.174L267.344,363.192L267.222,363.201L267.111,363.207L267.001,363.212L266.89,363.216L266.779,363.218L266.682,363.218L99.284,363.218L99.186,363.218L99.075,363.216L98.964,363.212L98.855,363.207L98.744,363.201L98.622,363.192L98.416,363.174L98.199,363.149L97.983,363.119L97.769,363.084L97.556,363.043L97.345,362.997L97.136,362.946L96.929,362.89L96.724,362.829L96.52,362.762L96.32,362.692L96.122,362.616L95.926,362.536L95.732,362.451L95.541,362.362L95.353,362.269L95.168,362.171L94.984,362.068L94.805,361.962L94.628,361.852L94.454,361.737L94.283,361.618L94.115,361.496L93.951,361.37L93.789,361.24L93.63,361.106L93.475,360.968L93.324,360.827L93.176,360.682L93.031,360.534L92.89,360.383L92.753,360.228L92.619,360.069L92.489,359.908L92.362,359.743L92.24,359.575L92.121,359.404L92.007,359.23L91.896,359.053L91.79,358.873L91.688,358.691L91.59,358.505L91.496,358.317L91.407,358.126L91.322,357.933L91.242,357.737L91.167,357.538L91.096,357.338L91.03,357.135L90.969,356.93L90.913,356.722L90.862,356.513L90.815,356.302L90.775,356.09L90.739,355.875L90.709,355.659L90.684,355.442L90.666,355.236L90.657,355.114L90.651,355.004L90.646,354.894L90.643,354.783L90.64,354.673L90.64,354.575L90.64,139.202L90.641,139.078L90.647,138.929L90.656,138.781L90.669,138.633L90.685,138.487L90.705,138.341L90.729,138.195L90.756,138.05L90.786,137.907L90.82,137.764L90.858,137.622L90.899,137.482L90.943,137.342L90.991,137.203L91.042,137.066L91.096,136.93L91.154,136.796L91.215,136.663L91.279,136.531L91.346,136.402L91.417,136.273L91.491,136.146L91.568,136.021L91.648,135.898L91.731,135.776L91.817,135.657L91.906,135.539L91.998,135.424L92.094,135.31L92.192,135.199L92.293,135.09L92.397,134.984L92.503,134.88L92.613,134.778L92.724,134.681L92.836,134.586L92.953,134.493L93.07,134.403L93.189,134.318L93.311,134.234L93.434,134.154L93.559,134.078L93.686,134.004L93.815,133.933L93.944,133.866L94.076,133.801L94.209,133.741L94.344,133.683L94.48,133.629L94.616,133.578L94.755,133.53L94.894,133.486L95.036,133.445L95.178,133.407L95.32,133.373L95.464,133.343L95.608,133.316L95.753,133.292L95.9,133.272L96.047,133.256L96.194,133.243L96.343,133.234L96.491,133.228L96.615,133.227L208.858,133.227L209.02,133.229ZM96.59,137.227L96.541,137.229L96.491,137.232L96.442,137.236L96.393,137.242L96.344,137.248L96.296,137.256L96.248,137.265L96.2,137.276L96.152,137.287L96.105,137.299L96.058,137.313L96.012,137.328L95.965,137.344L95.92,137.361L95.874,137.379L95.83,137.398L95.785,137.418L95.741,137.44L95.698,137.462L95.655,137.486L95.613,137.51L95.571,137.536L95.53,137.563L95.49,137.59L95.45,137.619L95.411,137.649L95.372,137.679L95.334,137.711L95.297,137.744L95.261,137.778L95.226,137.812L95.191,137.848L95.157,137.884L95.124,137.921L95.093,137.959L95.062,137.998L95.032,138.037L95.003,138.076L94.976,138.117L94.949,138.158L94.923,138.2L94.899,138.242L94.875,138.285L94.853,138.328L94.832,138.372L94.811,138.416L94.792,138.461L94.774,138.506L94.757,138.552L94.741,138.598L94.726,138.645L94.713,138.692L94.7,138.739L94.689,138.787L94.679,138.835L94.67,138.883L94.662,138.931L94.655,138.98L94.65,139.029L94.645,139.078L94.642,139.127L94.64,139.177L94.64,139.227L94.64,354.562L94.64,354.622L94.641,354.682L94.643,354.741L94.646,354.801L94.649,354.86L94.653,354.92L94.664,355.037L94.677,355.154L94.693,355.27L94.713,355.385L94.734,355.5L94.759,355.613L94.786,355.725L94.817,355.836L94.849,355.946L94.885,356.054L94.923,356.162L94.963,356.268L95.006,356.373L95.051,356.477L95.099,356.58L95.15,356.681L95.202,356.781L95.257,356.879L95.314,356.976L95.374,357.071L95.436,357.164L95.499,357.257L95.565,357.347L95.634,357.436L95.704,357.523L95.776,357.608L95.85,357.692L95.926,357.774L96.004,357.854L96.084,357.932L96.166,358.008L96.25,358.082L96.335,358.154L96.422,358.225L96.511,358.293L96.602,358.359L96.694,358.423L96.787,358.484L96.883,358.544L96.979,358.601L97.078,358.656L97.177,358.709L97.278,358.759L97.381,358.807L97.485,358.852L97.59,358.895L97.696,358.936L97.804,358.974L97.912,359.009L98.022,359.042L98.133,359.072L98.245,359.099L98.359,359.124L98.473,359.146L98.588,359.165L98.704,359.181L98.821,359.194L98.939,359.205L98.998,359.209L99.057,359.212L99.117,359.215L99.177,359.217L99.237,359.218L99.297,359.218L266.669,359.218L266.729,359.218L266.789,359.217L266.849,359.215L266.908,359.212L266.968,359.209L267.027,359.205L267.145,359.194L267.261,359.181L267.378,359.165L267.493,359.146L267.607,359.124L267.72,359.099L267.832,359.072L267.943,359.042L268.053,359.009L268.162,358.974L268.269,358.936L268.376,358.895L268.481,358.852L268.584,358.807L268.687,358.759L268.788,358.709L268.888,358.656L268.986,358.601L269.083,358.544L269.178,358.484L269.272,358.423L269.364,358.359L269.454,358.293L269.543,358.225L269.63,358.154L269.716,358.082L269.799,358.008L269.881,357.932L269.961,357.854L270.039,357.774L270.115,357.692L270.189,357.608L270.262,357.523L270.332,357.436L270.4,357.347L270.466,357.257L270.53,357.164L270.592,357.071L270.651,356.976L270.708,356.879L270.763,356.781L270.816,356.681L270.866,356.58L270.914,356.477L270.959,356.373L271.002,356.268L271.043,356.162L271.081,356.054L271.116,355.946L271.149,355.836L271.179,355.725L271.206,355.613L271.231,355.5L271.253,355.385L271.272,355.27L271.288,355.154L271.302,355.037L271.312,354.92L271.316,354.86L271.32,354.801L271.322,354.741L271.324,354.682L271.325,354.622L271.326,354.562L271.326,166.857L271.325,166.797L271.324,166.737L271.322,166.677L271.32,166.617L271.316,166.558L271.312,166.499L271.302,166.381L271.288,166.264L271.272,166.148L271.253,166.033L271.231,165.919L271.206,165.806L271.179,165.694L271.149,165.583L271.116,165.473L271.081,165.364L271.043,165.256L271.002,165.15L270.959,165.045L270.914,164.941L270.866,164.839L270.816,164.738L270.763,164.638L270.708,164.54L270.651,164.443L270.592,164.348L270.53,164.254L270.466,164.162L270.4,164.071L270.332,163.982L270.262,163.895L270.189,163.81L270.115,163.726L270.039,163.645L269.961,163.565L269.881,163.487L269.799,163.41L269.716,163.336L269.63,163.264L269.543,163.194L269.454,163.126L269.364,163.06L269.272,162.996L269.178,162.934L269.083,162.875L268.986,162.817L268.888,162.762L268.788,162.71L268.687,162.659L268.585,162.612L268.481,162.566L268.376,162.523L268.269,162.483L268.162,162.445L268.053,162.409L267.943,162.377L267.832,162.347L267.72,162.319L267.607,162.295L267.493,162.273L267.378,162.254L267.262,162.237L267.145,162.224L267.027,162.214L266.968,162.209L266.908,162.206L266.849,162.203L266.789,162.201L266.729,162.2L266.669,162.2L222.31,162.2L210.253,138.11L210.227,138.06L210.199,138.011L210.17,137.963L210.139,137.917L210.106,137.872L210.072,137.828L210.037,137.785L210,137.744L209.962,137.704L209.923,137.665L209.883,137.628L209.841,137.593L209.798,137.559L209.754,137.526L209.709,137.495L209.663,137.465L209.616,137.437L209.568,137.411L209.519,137.386L209.47,137.363L209.419,137.342L209.368,137.322L209.316,137.305L209.263,137.288L209.21,137.274L209.156,137.262L209.102,137.251L209.047,137.242L208.991,137.235L208.935,137.231L208.879,137.228L208.822,137.227L96.64,137.227L96.59,137.227Z" style="fill:white;"/>
                </g>
                <g transform="matrix(0.905548,0,0,0.905548,19.283,22.445)">
                    <path d="M208.904,136.51L208.986,136.514L209.067,136.522L209.147,136.531L209.227,136.544L209.306,136.56L209.384,136.578L209.461,136.598L209.538,136.622L209.613,136.648L209.687,136.676L209.76,136.707L209.832,136.74L209.903,136.776L209.972,136.814L210.04,136.855L210.107,136.897L210.172,136.942L210.236,136.99L210.298,137.039L210.358,137.091L210.417,137.144L210.474,137.2L210.529,137.258L210.582,137.318L210.633,137.38L210.682,137.443L210.729,137.509L210.774,137.576L210.817,137.646L210.857,137.716L210.892,137.783L222.753,161.482L266.673,161.482L266.807,161.484L266.945,161.489L267.081,161.498L267.217,161.51L267.352,161.525L267.486,161.544L267.619,161.566L267.751,161.591L267.882,161.62L268.011,161.652L268.139,161.686L268.266,161.724L268.392,161.765L268.516,161.809L268.639,161.855L268.761,161.905L268.88,161.958L268.999,162.013L269.115,162.071L269.231,162.132L269.344,162.195L269.456,162.261L269.566,162.33L269.674,162.401L269.78,162.475L269.884,162.551L269.987,162.629L270.087,162.71L270.186,162.794L270.282,162.879L270.376,162.967L270.469,163.057L270.559,163.149L270.646,163.244L270.732,163.34L270.815,163.438L270.896,163.539L270.975,163.641L271.051,163.746L271.125,163.852L271.196,163.96L271.264,164.07L271.331,164.182L271.394,164.295L271.455,164.41L271.513,164.527L271.568,164.645L271.62,164.765L271.67,164.886L271.717,165.009L271.761,165.134L271.802,165.259L271.839,165.386L271.874,165.515L271.906,165.644L271.934,165.775L271.959,165.907L271.981,166.039L272,166.173L272.016,166.308L272.028,166.444L272.036,166.581L272.042,166.718L272.043,166.852L272.043,354.566L272.042,354.7L272.036,354.837L272.028,354.974L272.016,355.11L272,355.245L271.982,355.379L271.959,355.512L271.934,355.644L271.906,355.774L271.874,355.904L271.839,356.032L271.801,356.159L271.761,356.285L271.717,356.409L271.67,356.532L271.62,356.653L271.568,356.773L271.513,356.891L271.455,357.008L271.394,357.123L271.33,357.237L271.264,357.348L271.196,357.458L271.125,357.566L271.051,357.673L270.975,357.777L270.896,357.88L270.815,357.98L270.732,358.078L270.646,358.175L270.559,358.269L270.469,358.361L270.376,358.451L270.282,358.539L270.186,358.625L270.087,358.708L269.987,358.789L269.884,358.868L269.78,358.944L269.674,359.017L269.565,359.089L269.456,359.157L269.344,359.223L269.23,359.287L269.115,359.347L268.999,359.406L268.88,359.461L268.76,359.513L268.639,359.563L268.516,359.61L268.392,359.653L268.266,359.694L268.139,359.732L268.011,359.767L267.881,359.798L267.751,359.827L267.619,359.852L267.486,359.874L267.352,359.893L267.217,359.908L267.081,359.921L266.945,359.929L266.807,359.934L266.673,359.936L99.292,359.936L99.158,359.934L99.021,359.929L98.884,359.921L98.748,359.908L98.613,359.893L98.479,359.874L98.346,359.852L98.215,359.827L98.084,359.798L97.954,359.767L97.826,359.732L97.699,359.694L97.574,359.653L97.449,359.61L97.326,359.563L97.205,359.513L97.085,359.461L96.967,359.406L96.85,359.347L96.735,359.287L96.622,359.223L96.51,359.157L96.4,359.089L96.292,359.017L96.185,358.944L96.081,358.868L95.979,358.789L95.878,358.708L95.78,358.625L95.683,358.539L95.589,358.451L95.497,358.361L95.407,358.269L95.319,358.175L95.233,358.078L95.15,357.98L95.069,357.88L94.991,357.777L94.914,357.673L94.841,357.566L94.77,357.458L94.701,357.348L94.635,357.237L94.571,357.123L94.511,357.008L94.453,356.891L94.397,356.773L94.345,356.653L94.295,356.532L94.249,356.409L94.205,356.285L94.164,356.159L94.126,356.032L94.091,355.904L94.06,355.774L94.031,355.644L94.006,355.512L93.984,355.379L93.965,355.245L93.95,355.11L93.938,354.974L93.929,354.837L93.924,354.7L93.922,354.566L93.922,139.222L93.923,139.159L93.925,139.092L93.929,139.025L93.935,138.958L93.943,138.891L93.952,138.825L93.962,138.759L93.975,138.694L93.988,138.629L94.004,138.564L94.021,138.5L94.039,138.436L94.059,138.373L94.081,138.31L94.104,138.248L94.129,138.186L94.155,138.126L94.182,138.065L94.212,138.006L94.242,137.947L94.274,137.888L94.307,137.831L94.342,137.775L94.379,137.719L94.416,137.664L94.455,137.61L94.496,137.556L94.537,137.504L94.581,137.453L94.625,137.402L94.671,137.353L94.718,137.305L94.766,137.258L94.816,137.212L94.866,137.167L94.917,137.124L94.97,137.082L95.023,137.042L95.077,137.003L95.132,136.965L95.188,136.929L95.244,136.894L95.302,136.861L95.36,136.829L95.419,136.798L95.479,136.769L95.539,136.742L95.6,136.716L95.661,136.691L95.723,136.668L95.786,136.646L95.849,136.626L95.913,136.608L95.977,136.591L96.042,136.575L96.107,136.561L96.173,136.549L96.238,136.538L96.305,136.529L96.371,136.522L96.438,136.516L96.505,136.512L96.572,136.51L96.635,136.509L208.829,136.509L208.904,136.51ZM96.59,137.227L96.541,137.229L96.491,137.232L96.442,137.236L96.393,137.242L96.344,137.248L96.296,137.256L96.248,137.265L96.2,137.276L96.152,137.287L96.105,137.299L96.058,137.313L96.012,137.328L95.965,137.344L95.92,137.361L95.874,137.379L95.83,137.398L95.785,137.418L95.741,137.44L95.698,137.462L95.655,137.486L95.613,137.51L95.571,137.536L95.53,137.563L95.49,137.59L95.45,137.619L95.411,137.649L95.372,137.679L95.334,137.711L95.297,137.744L95.261,137.778L95.226,137.812L95.191,137.848L95.157,137.884L95.124,137.921L95.093,137.959L95.062,137.998L95.032,138.037L95.003,138.076L94.976,138.117L94.949,138.158L94.923,138.2L94.899,138.242L94.875,138.285L94.853,138.328L94.832,138.372L94.811,138.416L94.792,138.461L94.774,138.506L94.757,138.552L94.741,138.598L94.726,138.645L94.713,138.692L94.7,138.739L94.689,138.787L94.679,138.835L94.67,138.883L94.662,138.931L94.655,138.98L94.65,139.029L94.645,139.078L94.642,139.127L94.64,139.177L94.64,139.227L94.64,354.562L94.641,354.682L94.646,354.801L94.653,354.92L94.664,355.037L94.677,355.154L94.693,355.27L94.713,355.385L94.734,355.5L94.759,355.613L94.786,355.725L94.817,355.836L94.849,355.946L94.885,356.054L94.923,356.162L94.963,356.268L95.006,356.373L95.051,356.477L95.099,356.58L95.15,356.681L95.202,356.781L95.257,356.879L95.314,356.976L95.374,357.071L95.436,357.164L95.499,357.257L95.565,357.347L95.634,357.436L95.704,357.523L95.776,357.608L95.85,357.692L95.926,357.774L96.004,357.854L96.084,357.932L96.166,358.008L96.25,358.082L96.335,358.154L96.422,358.225L96.511,358.293L96.602,358.359L96.694,358.423L96.787,358.484L96.883,358.544L96.979,358.601L97.078,358.656L97.177,358.709L97.278,358.759L97.381,358.807L97.485,358.852L97.59,358.895L97.696,358.936L97.804,358.974L97.912,359.009L98.022,359.042L98.133,359.072L98.245,359.099L98.359,359.124L98.473,359.146L98.588,359.165L98.704,359.181L98.821,359.194L98.939,359.205L99.057,359.212L99.177,359.217L99.297,359.218L266.669,359.218L266.789,359.217L266.908,359.212L267.027,359.205L267.145,359.194L267.261,359.181L267.378,359.165L267.493,359.146L267.607,359.124L267.72,359.099L267.832,359.072L267.943,359.042L268.053,359.009L268.162,358.974L268.269,358.936L268.376,358.895L268.481,358.852L268.584,358.807L268.687,358.759L268.788,358.709L268.888,358.656L268.986,358.601L269.083,358.544L269.178,358.484L269.272,358.423L269.364,358.359L269.454,358.293L269.543,358.225L269.63,358.154L269.716,358.082L269.799,358.008L269.881,357.932L269.961,357.854L270.039,357.774L270.115,357.692L270.189,357.608L270.262,357.523L270.332,357.436L270.4,357.347L270.466,357.257L270.53,357.164L270.592,357.071L270.651,356.976L270.708,356.879L270.763,356.781L270.816,356.681L270.866,356.58L270.914,356.477L270.959,356.373L271.002,356.268L271.043,356.162L271.081,356.054L271.116,355.946L271.149,355.836L271.179,355.725L271.206,355.613L271.231,355.5L271.253,355.385L271.272,355.27L271.288,355.154L271.302,355.037L271.312,354.92L271.32,354.801L271.324,354.682L271.326,354.562L271.326,166.857L271.324,166.737L271.32,166.617L271.312,166.499L271.302,166.381L271.288,166.264L271.272,166.148L271.253,166.033L271.231,165.919L271.206,165.806L271.179,165.694L271.149,165.583L271.116,165.473L271.081,165.364L271.043,165.256L271.002,165.15L270.959,165.045L270.914,164.941L270.866,164.839L270.816,164.738L270.763,164.638L270.708,164.54L270.651,164.443L270.592,164.348L270.53,164.254L270.466,164.162L270.4,164.071L270.332,163.982L270.262,163.895L270.189,163.81L270.115,163.726L270.039,163.645L269.961,163.565L269.881,163.487L269.799,163.41L269.716,163.336L269.63,163.264L269.543,163.194L269.454,163.126L269.364,163.06L269.272,162.996L269.178,162.934L269.083,162.875L268.986,162.817L268.888,162.762L268.788,162.71L268.687,162.659L268.585,162.612L268.481,162.566L268.376,162.523L268.269,162.483L268.162,162.445L268.053,162.409L267.943,162.377L267.832,162.347L267.72,162.319L267.607,162.295L267.493,162.273L267.378,162.254L267.262,162.237L267.145,162.224L267.027,162.214L266.908,162.206L266.789,162.201L266.669,162.2L222.31,162.2L210.253,138.11L210.227,138.06L210.199,138.011L210.17,137.963L210.139,137.917L210.106,137.872L210.072,137.828L210.037,137.785L210,137.744L209.962,137.704L209.923,137.665L209.883,137.628L209.841,137.593L209.798,137.559L209.754,137.526L209.709,137.495L209.663,137.465L209.616,137.437L209.568,137.411L209.519,137.386L209.47,137.363L209.419,137.342L209.368,137.322L209.316,137.305L209.263,137.288L209.21,137.274L209.156,137.262L209.102,137.251L209.047,137.242L208.991,137.235L208.935,137.231L208.879,137.228L208.822,137.227L96.64,137.227L96.59,137.227Z" style="fill:rgb(243,110,35);"/>
                </g>
            </g>
        </g>
    </g>
</svg>
