<?xml version="1.0" encoding="UTF-8" standalone="no"?>
<!DOCTYPE svg PUBLIC "-//W3C//DTD SVG 1.1//EN" "http://www.w3.org/Graphics/SVG/1.1/DTD/svg11.dtd">
<svg width="100%" height="100%" viewBox="0 0 133 115" version="1.1" xmlns="http://www.w3.org/2000/svg" xmlns:xlink="http://www.w3.org/1999/xlink" xml:space="preserve" xmlns:serif="http://www.serif.com/" style="fill-rule:evenodd;clip-rule:evenodd;stroke-linejoin:round;stroke-miterlimit:1.41421;">
    <g transform="matrix(1,0,0,1,-714,-492)">
        <g>
            <g id="Classification">
                <path d="M750.898,606.807L741.779,606.807C739.897,606.807 738.369,605.279 738.369,603.397L738.369,594.277C738.369,592.395 739.897,590.867 741.779,590.867L750.898,590.867C752.781,590.867 754.309,592.395 754.309,594.277L754.309,603.397C754.309,605.279 752.781,606.807 750.898,606.807ZM750.898,585.312L741.779,585.312C739.897,585.312 738.369,583.784 738.369,581.902L738.369,572.783C738.369,570.9 739.897,569.372 741.779,569.372L750.898,569.372C752.781,569.372 754.309,570.9 754.309,572.783L754.309,581.902C754.309,583.784 752.781,585.312 750.898,585.312ZM750.898,563.937L741.779,563.937C739.897,563.937 738.369,562.409 738.369,560.526L738.369,551.407C738.369,549.525 739.897,547.997 741.779,547.997L750.898,547.997C752.781,547.997 754.309,549.525 754.309,551.407L754.309,560.526C754.309,562.409 752.781,563.937 750.898,563.937ZM750.898,542.442L741.779,542.442C739.897,542.442 738.369,540.914 738.369,539.032L738.369,529.912C738.369,528.03 739.897,526.502 741.779,526.502L750.898,526.502C752.781,526.502 754.309,528.03 754.309,529.912L754.309,539.032C754.309,540.914 752.781,542.442 750.898,542.442Z" style="fill:white;"/>
                <g transform="matrix(1,0,0,1,46.9157,0)">
                    <path d="M750.898,606.807L741.779,606.807C739.897,606.807 738.369,605.279 738.369,603.397L738.369,594.277C738.369,592.395 739.897,590.867 741.779,590.867L750.898,590.867C752.781,590.867 754.309,592.395 754.309,594.277L754.309,603.397C754.309,605.279 752.781,606.807 750.898,606.807ZM750.898,585.312L741.779,585.312C739.897,585.312 738.369,583.784 738.369,581.902L738.369,572.783C738.369,570.9 739.897,569.372 741.779,569.372L750.898,569.372C752.781,569.372 754.309,570.9 754.309,572.783L754.309,581.902C754.309,583.784 752.781,585.312 750.898,585.312ZM750.898,563.937L741.779,563.937C739.897,563.937 738.369,562.409 738.369,560.526L738.369,551.407C738.369,549.525 739.897,547.997 741.779,547.997L750.898,547.997C752.781,547.997 754.309,549.525 754.309,551.407L754.309,560.526C754.309,562.409 752.781,563.937 750.898,563.937ZM750.898,542.442L741.779,542.442C739.897,542.442 738.369,540.914 738.369,539.032L738.369,529.912C738.369,528.03 739.897,526.502 741.779,526.502L750.898,526.502C752.781,526.502 754.309,528.03 754.309,529.912L754.309,539.032C754.309,540.914 752.781,542.442 750.898,542.442Z" style="fill:white;"/>
                </g>
                <path d="M769.44,589.56C774.199,589.56 778.063,593.424 778.063,598.184C778.063,602.943 774.199,606.807 769.44,606.807C764.68,606.807 760.816,602.943 760.816,598.184C760.816,593.424 764.68,589.56 769.44,589.56ZM769.44,568.027C774.199,568.027 778.063,571.891 778.063,576.65C778.063,581.409 774.199,585.273 769.44,585.273C764.68,585.273 760.816,581.409 760.816,576.65C760.816,571.891 764.68,568.027 769.44,568.027ZM769.44,547.353C774.199,547.353 778.063,551.217 778.063,555.976C778.063,560.735 774.199,564.599 769.44,564.599C764.68,564.599 760.816,560.735 760.816,555.976C760.816,551.217 764.68,547.353 769.44,547.353ZM769.44,525.819C774.199,525.819 778.063,529.683 778.063,534.442C778.063,539.202 774.199,543.066 769.44,543.066C764.68,543.066 760.816,539.202 760.816,534.442C760.816,529.683 764.68,525.819 769.44,525.819Z" style="fill:white;"/>
                <g transform="matrix(1,0,0,1,48.9799,0)">
                    <path d="M769.44,589.56C774.199,589.56 778.063,593.424 778.063,598.184C778.063,602.943 774.199,606.807 769.44,606.807C764.68,606.807 760.816,602.943 760.816,598.184C760.816,593.424 764.68,589.56 769.44,589.56ZM769.44,568.027C774.199,568.027 778.063,571.891 778.063,576.65C778.063,581.409 774.199,585.273 769.44,585.273C764.68,585.273 760.816,581.409 760.816,576.65C760.816,571.891 764.68,568.027 769.44,568.027ZM769.44,547.353C774.199,547.353 778.063,551.217 778.063,555.976C778.063,560.735 774.199,564.599 769.44,564.599C764.68,564.599 760.816,560.735 760.816,555.976C760.816,551.217 764.68,547.353 769.44,547.353ZM769.44,525.819C774.199,525.819 778.063,529.683 778.063,534.442C778.063,539.202 774.199,543.066 769.44,543.066C764.68,543.066 760.816,539.202 760.816,534.442C760.816,529.683 764.68,525.819 769.44,525.819Z" style="fill:white;"/>
                </g>
            </g>
            <g transform="matrix(1,0,0,1,270.952,199.308)">
                <text x="442.09px" y="308.889px" style="font-family:'Nunito-Bold', 'Nunito';font-weight:700;font-size:22px;fill:white;">Classiﬁcation</text>
            </g>
        </g>
    </g>
</svg>
