<?xml version="1.0" encoding="UTF-8" standalone="no"?>
<!DOCTYPE svg PUBLIC "-//W3C//DTD SVG 1.1//EN" "http://www.w3.org/Graphics/SVG/1.1/DTD/svg11.dtd">
<svg width="100%" height="100%" viewBox="0 0 561 196" version="1.1" xmlns="http://www.w3.org/2000/svg" xmlns:xlink="http://www.w3.org/1999/xlink" xml:space="preserve" xmlns:serif="http://www.serif.com/" style="fill-rule:evenodd;clip-rule:evenodd;stroke-linejoin:round;stroke-miterlimit:1.41421;">
    <g transform="matrix(1,0,0,1,-79,-387)">
        <g transform="matrix(0.992609,0,0,1.01605,4.73048,-6.21771)">
            <path d="M627.866,387.28L628.024,387.283L628.182,387.288L628.339,387.294L628.496,387.303L628.652,387.314L628.808,387.326L628.963,387.341L629.118,387.357L629.272,387.375L629.425,387.395L629.578,387.417L629.73,387.441L629.882,387.466L630.033,387.494L630.183,387.523L630.333,387.554L630.482,387.587L630.63,387.621L630.778,387.657L630.925,387.695L631.071,387.735L631.216,387.776L631.361,387.819L631.505,387.864L631.648,387.91L631.79,387.958L631.932,388.008L632.073,388.059L632.213,388.112L632.352,388.167L632.49,388.223L632.628,388.281L632.764,388.34L632.9,388.401L633.035,388.464L633.169,388.528L633.301,388.593L633.434,388.661L633.565,388.729L633.695,388.799L633.824,388.871L633.952,388.944L634.079,389.018L634.206,389.094L634.331,389.172L634.455,389.251L634.578,389.331L634.7,389.413L634.821,389.496L634.941,389.58L635.06,389.666L635.178,389.753L635.295,389.842L635.41,389.931L635.525,390.023L635.638,390.115L635.75,390.209L635.861,390.304L635.971,390.4L636.079,390.498L636.187,390.597L636.293,390.697L636.398,390.798L636.501,390.9L636.604,391.004L636.705,391.109L636.805,391.215L636.904,391.322L637.001,391.431L637.097,391.54L637.191,391.651L637.285,391.763L637.377,391.876L637.467,391.99L637.557,392.105L637.644,392.221L637.731,392.338L637.816,392.456L637.899,392.575L637.982,392.696L638.062,392.817L638.141,392.939L638.219,393.063L638.296,393.187L638.37,393.312L638.444,393.438L638.515,393.566L638.586,393.694L638.654,393.823L638.721,393.953L638.787,394.083L638.851,394.215L638.913,394.348L638.974,394.481L639.033,394.615L639.091,394.75L639.147,394.886L639.201,395.023L639.254,395.161L639.304,395.299L639.354,395.438L639.401,395.578L639.447,395.718L639.491,395.86L639.533,396.002L639.574,396.145L639.613,396.288L639.65,396.432L639.685,396.577L639.718,396.723L639.75,396.869L639.78,397.016L639.808,397.163L639.834,397.311L639.858,397.46L639.881,397.609L639.901,397.759L639.92,397.91L639.936,398.061L639.951,398.212L639.964,398.365L639.975,398.517L639.984,398.67L639.991,398.824L639.996,398.978L639.999,399.133L640,399.288L640,567.411L639.999,567.566L639.996,567.721L639.991,567.875L639.984,568.028L639.975,568.182L639.964,568.334L639.951,568.486L639.936,568.638L639.92,568.789L639.901,568.94L639.881,569.089L639.858,569.239L639.834,569.387L639.808,569.536L639.78,569.683L639.75,569.83L639.718,569.976L639.685,570.122L639.65,570.266L639.613,570.411L639.574,570.554L639.533,570.697L639.491,570.839L639.447,570.98L639.401,571.121L639.354,571.261L639.304,571.4L639.254,571.538L639.201,571.676L639.147,571.813L639.091,571.948L639.033,572.084L638.974,572.218L638.913,572.351L638.851,572.484L638.787,572.615L638.721,572.746L638.654,572.876L638.586,573.005L638.515,573.133L638.444,573.26L638.37,573.387L638.296,573.512L638.219,573.636L638.141,573.759L638.062,573.882L637.982,574.003L637.899,574.123L637.816,574.243L637.731,574.361L637.644,574.478L637.557,574.594L637.467,574.709L637.377,574.823L637.285,574.936L637.191,575.048L637.097,575.159L637.001,575.268L636.904,575.377L636.805,575.484L636.705,575.59L636.604,575.695L636.501,575.799L636.398,575.901L636.293,576.002L636.187,576.102L636.079,576.201L635.971,576.299L635.861,576.395L635.75,576.49L635.638,576.584L635.525,576.676L635.41,576.767L635.295,576.857L635.178,576.946L635.06,577.033L634.941,577.119L634.821,577.203L634.7,577.286L634.578,577.368L634.455,577.448L634.331,577.527L634.206,577.604L634.079,577.68L633.952,577.755L633.824,577.828L633.695,577.9L633.565,577.97L633.434,578.038L633.301,578.105L633.169,578.171L633.035,578.235L632.9,578.298L632.764,578.359L632.628,578.418L632.49,578.476L632.352,578.532L632.213,578.587L632.073,578.64L631.932,578.691L631.79,578.741L631.648,578.789L631.505,578.835L631.361,578.88L631.216,578.923L631.071,578.964L630.925,579.004L630.778,579.042L630.63,579.078L630.482,579.112L630.333,579.145L630.183,579.176L630.033,579.205L629.882,579.232L629.73,579.258L629.578,579.282L629.425,579.303L629.272,579.324L629.118,579.342L628.963,579.358L628.808,579.372L628.652,579.385L628.496,579.396L628.339,579.404L628.182,579.411L628.024,579.416L627.866,579.419L627.707,579.42L87.451,579.42L87.292,579.419L87.134,579.416L86.976,579.411L86.819,579.404L86.662,579.396L86.506,579.385L86.35,579.372L86.195,579.358L86.04,579.342L85.886,579.324L85.733,579.303L85.58,579.282L85.428,579.258L85.276,579.232L85.125,579.205L84.975,579.176L84.825,579.145L84.676,579.112L84.528,579.078L84.38,579.042L84.234,579.004L84.087,578.964L83.942,578.923L83.797,578.88L83.653,578.835L83.51,578.789L83.368,578.741L83.226,578.691L83.085,578.64L82.945,578.587L82.806,578.532L82.668,578.476L82.531,578.418L82.394,578.359L82.258,578.298L82.124,578.235L81.99,578.171L81.857,578.105L81.725,578.038L81.594,577.97L81.463,577.9L81.334,577.828L81.206,577.755L81.079,577.68L80.953,577.604L80.827,577.527L80.703,577.448L80.58,577.368L80.458,577.286L80.337,577.203L80.217,577.119L80.098,577.033L79.98,576.946L79.864,576.857L79.748,576.767L79.634,576.676L79.52,576.584L79.408,576.49L79.297,576.395L79.187,576.299L79.079,576.201L78.971,576.102L78.865,576.002L78.76,575.901L78.657,575.799L78.554,575.695L78.453,575.59L78.353,575.484L78.255,575.377L78.157,575.268L78.061,575.159L77.967,575.048L77.873,574.936L77.781,574.823L77.691,574.709L77.602,574.594L77.514,574.478L77.427,574.361L77.342,574.243L77.259,574.123L77.177,574.003L77.096,573.882L77.017,573.759L76.939,573.636L76.863,573.512L76.788,573.387L76.715,573.26L76.643,573.133L76.573,573.005L76.504,572.876L76.437,572.746L76.371,572.615L76.307,572.484L76.245,572.351L76.184,572.218L76.125,572.084L76.067,571.948L76.011,571.813L75.957,571.676L75.905,571.538L75.854,571.4L75.805,571.261L75.757,571.121L75.711,570.98L75.667,570.839L75.625,570.697L75.584,570.554L75.545,570.411L75.508,570.266L75.473,570.122L75.44,569.976L75.408,569.83L75.378,569.683L75.35,569.536L75.324,569.387L75.3,569.239L75.278,569.089L75.257,568.94L75.238,568.789L75.222,568.638L75.207,568.486L75.194,568.334L75.183,568.182L75.174,568.028L75.167,567.875L75.162,567.721L75.159,567.566L75.158,567.411L75.158,399.288L75.159,399.133L75.162,398.978L75.167,398.824L75.174,398.67L75.183,398.517L75.194,398.365L75.207,398.212L75.222,398.061L75.238,397.91L75.257,397.759L75.278,397.609L75.3,397.46L75.324,397.311L75.35,397.163L75.378,397.016L75.408,396.869L75.44,396.723L75.473,396.577L75.508,396.432L75.545,396.288L75.584,396.145L75.625,396.002L75.667,395.86L75.711,395.718L75.757,395.578L75.805,395.438L75.854,395.299L75.905,395.161L75.957,395.023L76.011,394.886L76.067,394.75L76.125,394.615L76.184,394.481L76.245,394.348L76.307,394.215L76.371,394.083L76.437,393.953L76.504,393.823L76.573,393.694L76.643,393.566L76.715,393.438L76.788,393.312L76.863,393.187L76.939,393.063L77.017,392.939L77.096,392.817L77.177,392.696L77.259,392.575L77.342,392.456L77.427,392.338L77.514,392.221L77.602,392.105L77.691,391.99L77.781,391.876L77.873,391.763L77.967,391.651L78.061,391.54L78.157,391.431L78.255,391.322L78.353,391.215L78.453,391.109L78.554,391.004L78.657,390.9L78.76,390.798L78.865,390.697L78.971,390.597L79.079,390.498L79.187,390.4L79.297,390.304L79.408,390.209L79.52,390.115L79.634,390.023L79.748,389.931L79.864,389.842L79.98,389.753L80.098,389.666L80.217,389.58L80.337,389.496L80.458,389.413L80.58,389.331L80.703,389.251L80.827,389.172L80.953,389.094L81.079,389.018L81.206,388.944L81.334,388.871L81.463,388.799L81.594,388.729L81.725,388.661L81.857,388.593L81.99,388.528L82.124,388.464L82.258,388.401L82.394,388.34L82.531,388.281L82.668,388.223L82.806,388.167L82.945,388.112L83.085,388.059L83.226,388.008L83.368,387.958L83.51,387.91L83.653,387.864L83.797,387.819L83.942,387.776L84.087,387.735L84.234,387.695L84.38,387.657L84.528,387.621L84.676,387.587L84.825,387.554L84.975,387.523L85.125,387.494L85.276,387.466L85.428,387.441L85.58,387.417L85.733,387.395L85.886,387.375L86.04,387.357L86.195,387.341L86.35,387.326L86.506,387.314L86.662,387.303L86.819,387.294L86.976,387.288L87.134,387.283L87.292,387.28L87.451,387.279L627.707,387.279L627.866,387.28ZM87.459,389.739L87.324,389.74L87.198,389.742L87.072,389.746L86.947,389.752L86.822,389.759L86.697,389.767L86.573,389.777L86.45,389.789L86.327,389.802L86.204,389.816L86.082,389.832L85.961,389.849L85.84,389.868L85.72,389.889L85.6,389.91L85.48,389.933L85.362,389.958L85.243,389.984L85.126,390.011L85.009,390.04L84.892,390.07L84.776,390.101L84.661,390.134L84.546,390.168L84.432,390.204L84.318,390.241L84.205,390.279L84.093,390.318L83.981,390.359L83.87,390.401L83.759,390.444L83.65,390.489L83.541,390.535L83.432,390.582L83.324,390.631L83.218,390.68L83.111,390.731L83.005,390.783L82.901,390.836L82.796,390.891L82.693,390.947L82.59,391.004L82.488,391.062L82.387,391.121L82.287,391.181L82.187,391.243L82.088,391.306L81.99,391.37L81.893,391.435L81.797,391.501L81.701,391.568L81.607,391.636L81.513,391.706L81.42,391.776L81.328,391.848L81.237,391.92L81.147,391.994L81.057,392.068L80.969,392.144L80.881,392.221L80.795,392.299L80.71,392.377L80.625,392.457L80.541,392.538L80.459,392.619L80.377,392.702L80.297,392.786L80.217,392.87L80.138,392.955L80.061,393.042L79.985,393.129L79.909,393.217L79.835,393.306L79.762,393.396L79.689,393.487L79.619,393.578L79.549,393.671L79.48,393.764L79.412,393.858L79.346,393.953L79.28,394.049L79.216,394.145L79.153,394.243L79.091,394.341L79.03,394.44L78.971,394.539L78.913,394.639L78.856,394.741L78.8,394.842L78.745,394.945L78.692,395.048L78.64,395.152L78.589,395.257L78.54,395.362L78.491,395.468L78.444,395.574L78.399,395.682L78.354,395.79L78.311,395.898L78.27,396.007L78.229,396.117L78.19,396.227L78.152,396.338L78.116,396.45L78.081,396.562L78.048,396.675L78.015,396.788L77.985,396.902L77.955,397.016L77.927,397.131L77.901,397.247L77.876,397.363L77.852,397.479L77.83,397.596L77.809,397.714L77.79,397.832L77.772,397.951L77.756,398.07L77.741,398.19L77.727,398.31L77.716,398.43L77.705,398.551L77.697,398.673L77.69,398.795L77.684,398.918L77.68,399.041L77.678,399.164L77.677,399.296L77.677,567.403L77.678,567.535L77.68,567.658L77.684,567.781L77.69,567.904L77.697,568.026L77.705,568.147L77.716,568.269L77.727,568.389L77.741,568.509L77.756,568.629L77.772,568.748L77.79,568.867L77.809,568.985L77.83,569.102L77.852,569.219L77.876,569.336L77.901,569.452L77.927,569.568L77.955,569.683L77.985,569.797L78.015,569.911L78.048,570.024L78.081,570.137L78.116,570.249L78.152,570.361L78.19,570.472L78.229,570.582L78.27,570.692L78.311,570.801L78.354,570.909L78.399,571.017L78.444,571.125L78.491,571.231L78.54,571.337L78.589,571.442L78.64,571.547L78.692,571.651L78.745,571.754L78.8,571.856L78.856,571.958L78.913,572.059L78.971,572.16L79.03,572.259L79.091,572.358L79.153,572.456L79.216,572.553L79.28,572.65L79.346,572.746L79.412,572.84L79.48,572.935L79.549,573.028L79.619,573.12L79.689,573.212L79.762,573.303L79.835,573.393L79.909,573.482L79.985,573.57L80.061,573.657L80.138,573.743L80.217,573.829L80.297,573.913L80.377,573.997L80.459,574.08L80.541,574.161L80.625,574.242L80.71,574.322L80.795,574.4L80.882,574.478L80.969,574.555L81.057,574.63L81.147,574.705L81.237,574.779L81.328,574.851L81.42,574.923L81.513,574.993L81.607,575.063L81.701,575.131L81.797,575.198L81.893,575.264L81.99,575.329L82.088,575.393L82.187,575.456L82.287,575.518L82.387,575.578L82.488,575.637L82.59,575.695L82.693,575.752L82.796,575.808L82.9,575.862L83.006,575.916L83.111,575.968L83.218,576.019L83.325,576.069L83.432,576.117L83.54,576.164L83.65,576.21L83.76,576.254L83.87,576.298L83.981,576.34L84.093,576.381L84.205,576.42L84.318,576.458L84.432,576.495L84.546,576.53L84.661,576.565L84.776,576.597L84.892,576.629L85.009,576.659L85.125,576.688L85.243,576.715L85.361,576.741L85.48,576.765L85.6,576.789L85.72,576.81L85.84,576.831L85.961,576.849L86.082,576.867L86.204,576.883L86.327,576.897L86.45,576.91L86.573,576.922L86.697,576.932L86.822,576.94L86.946,576.947L87.072,576.952L87.198,576.956L87.324,576.959L87.459,576.96L627.699,576.96L627.834,576.959L627.96,576.956L628.086,576.952L628.212,576.947L628.337,576.94L628.461,576.932L628.585,576.922L628.708,576.91L628.832,576.897L628.954,576.883L629.076,576.867L629.197,576.849L629.318,576.831L629.439,576.81L629.558,576.789L629.678,576.765L629.797,576.741L629.915,576.715L630.033,576.688L630.149,576.659L630.266,576.629L630.382,576.597L630.497,576.565L630.612,576.53L630.727,576.495L630.84,576.458L630.953,576.42L631.065,576.381L631.177,576.34L631.288,576.298L631.398,576.255L631.508,576.21L631.618,576.164L631.726,576.117L631.833,576.069L631.941,576.019L632.047,575.968L632.153,575.916L632.258,575.862L632.362,575.808L632.465,575.752L632.568,575.695L632.67,575.637L632.771,575.578L632.871,575.518L632.971,575.456L633.07,575.393L633.168,575.33L633.265,575.264L633.362,575.198L633.457,575.131L633.552,575.063L633.646,574.993L633.738,574.923L633.83,574.851L633.921,574.779L634.011,574.705L634.101,574.63L634.189,574.555L634.277,574.478L634.363,574.4L634.449,574.322L634.533,574.242L634.617,574.161L634.699,574.08L634.781,573.997L634.861,573.913L634.941,573.829L635.02,573.743L635.097,573.657L635.174,573.57L635.249,573.482L635.323,573.393L635.397,573.303L635.469,573.212L635.54,573.121L635.61,573.028L635.678,572.935L635.746,572.841L635.813,572.746L635.878,572.65L635.942,572.554L636.005,572.456L636.067,572.358L636.128,572.259L636.187,572.16L636.245,572.059L636.302,571.958L636.358,571.856L636.413,571.754L636.466,571.651L636.518,571.547L636.569,571.442L636.619,571.337L636.667,571.231L636.714,571.124L636.76,571.017L636.804,570.909L636.847,570.801L636.889,570.692L636.929,570.582L636.968,570.471L637.006,570.361L637.042,570.249L637.077,570.137L637.111,570.024L637.143,569.911L637.174,569.797L637.203,569.682L637.231,569.568L637.257,569.452L637.283,569.336L637.306,569.219L637.329,569.102L637.349,568.985L637.369,568.867L637.386,568.748L637.403,568.629L637.417,568.509L637.431,568.389L637.443,568.268L637.453,568.148L637.461,568.026L637.469,567.904L637.474,567.781L637.478,567.658L637.481,567.535L637.481,567.403L637.481,399.296L637.481,399.164L637.478,399.041L637.474,398.918L637.469,398.795L637.461,398.673L637.453,398.551L637.443,398.431L637.431,398.31L637.417,398.189L637.403,398.07L637.386,397.951L637.369,397.832L637.349,397.714L637.329,397.596L637.306,397.479L637.283,397.363L637.257,397.247L637.231,397.131L637.203,397.017L637.174,396.902L637.143,396.788L637.111,396.675L637.077,396.562L637.042,396.45L637.006,396.338L636.968,396.227L636.929,396.117L636.889,396.007L636.847,395.898L636.804,395.79L636.76,395.682L636.714,395.574L636.667,395.468L636.619,395.362L636.569,395.257L636.518,395.152L636.466,395.048L636.413,394.945L636.358,394.842L636.302,394.741L636.245,394.64L636.187,394.539L636.128,394.44L636.067,394.341L636.005,394.243L635.942,394.145L635.878,394.049L635.813,393.953L635.746,393.858L635.678,393.764L635.61,393.671L635.54,393.578L635.469,393.487L635.397,393.396L635.323,393.306L635.249,393.217L635.174,393.129L635.097,393.042L635.02,392.956L634.941,392.87L634.861,392.785L634.781,392.702L634.7,392.619L634.617,392.538L634.533,392.457L634.449,392.377L634.363,392.299L634.277,392.221L634.189,392.144L634.101,392.068L634.011,391.994L633.921,391.92L633.83,391.847L633.738,391.776L633.646,391.706L633.552,391.636L633.457,391.568L633.361,391.501L633.265,391.435L633.168,391.37L633.07,391.306L632.971,391.243L632.872,391.181L632.771,391.121L632.67,391.062L632.568,391.004L632.465,390.947L632.362,390.891L632.257,390.836L632.153,390.783L632.047,390.731L631.941,390.68L631.834,390.631L631.726,390.582L631.618,390.535L631.508,390.489L631.399,390.444L631.288,390.401L631.177,390.359L631.065,390.318L630.953,390.279L630.84,390.241L630.726,390.204L630.612,390.168L630.498,390.134L630.382,390.101L630.266,390.07L630.15,390.04L630.032,390.011L629.915,389.984L629.797,389.958L629.678,389.933L629.559,389.91L629.439,389.889L629.318,389.868L629.197,389.849L629.076,389.832L628.954,389.816L628.831,389.802L628.709,389.789L628.585,389.777L628.461,389.767L628.337,389.759L628.211,389.752L628.086,389.746L627.961,389.742L627.834,389.74L627.699,389.739L87.459,389.739Z" style="fill:rgb(83,83,90);"/>
        </g>
    </g>
</svg>
