<?xml version="1.0" encoding="UTF-8" standalone="no"?>
<!DOCTYPE svg PUBLIC "-//W3C//DTD SVG 1.1//EN" "http://www.w3.org/Graphics/SVG/1.1/DTD/svg11.dtd">
<svg width="100%" height="100%" viewBox="0 0 34 34" version="1.1" xmlns="http://www.w3.org/2000/svg" xmlns:xlink="http://www.w3.org/1999/xlink" xml:space="preserve" xmlns:serif="http://www.serif.com/" style="fill-rule:evenodd;clip-rule:evenodd;stroke-linecap:round;stroke-miterlimit:1.41421;">
    <g transform="matrix(1,0,0,1,-69,-138)">
        <g>
            <path d="M86.174,170.101C77.889,170.101 71.174,163.384 71.174,155.101C71.174,146.815 77.89,140.101 86.174,140.101C94.458,140.101 101.174,146.815 101.174,155.101C101.174,163.384 94.458,170.101 86.174,170.101Z" style="fill:none;stroke:rgb(88,153,183);stroke-width:1.71px;"/>
            <g transform="matrix(1,0,0,0.971869,0,4.32717)">
                <path d="M76.554,143.763C76.554,143.763 74.452,147.845 74.452,149.563C74.452,151.282 75.931,154.434 76.632,155.077C77.332,155.722 82.626,159.446 83.093,159.446C83.559,159.446 82.704,160.95 82.704,161.953C82.704,162.956 84.183,164.89 84.727,165.177C85.273,165.462 85.585,167.038 84.961,168.184C84.338,169.331 84.806,170.046 84.806,170.046L86.44,170.046C86.44,170.046 91.345,167.325 91.578,166.466C91.812,165.606 96.95,163.529 96.25,161.809C95.549,160.091 94.07,161.381 92.591,161.022C91.111,160.665 91.656,159.231 90.178,159.089C88.699,158.945 88.153,157.942 86.363,158.014C84.573,158.085 83.871,159.231 83.093,158.802C82.314,158.372 80.991,156.438 81.069,155.292C81.147,154.147 78.189,156.726 78.189,154.863C78.189,153.001 80.68,151.139 81.614,151.854C82.548,152.571 83.559,154.29 83.404,153.431C83.248,152.571 87.142,147.987 89.165,147.772C91.189,147.558 87.609,145.553 86.518,145.051C85.428,144.55 86.829,143.333 87.453,143.548C88.075,143.763 90.645,143.116 89.944,142.401C89.243,141.684 85.506,139.894 85.506,139.894" style="fill:none;stroke:rgb(88,153,183);stroke-width:1.74px;"/>
            </g>
            <path d="M90.099,140.825C90.723,141.542 93.681,144.049 93.836,144.692C93.992,145.338 95.938,145.981 96.25,146.34C96.561,146.698 97.496,154.72 97.885,155.364C98.273,156.009 99.753,157.441 99.831,157.656C99.909,157.871 101.154,154.505 101.154,154.147" style="fill:none;stroke:rgb(88,153,183);stroke-width:1.71px;"/>
        </g>
    </g>
</svg>
