<?xml version="1.0" encoding="UTF-8" standalone="no"?>
<!DOCTYPE svg PUBLIC "-//W3C//DTD SVG 1.1//EN" "http://www.w3.org/Graphics/SVG/1.1/DTD/svg11.dtd">
<svg width="100%" height="100%" viewBox="0 0 730 730" version="1.1" xmlns="http://www.w3.org/2000/svg" xmlns:xlink="http://www.w3.org/1999/xlink" xml:space="preserve" xmlns:serif="http://www.serif.com/" style="fill-rule:evenodd;clip-rule:evenodd;stroke-linecap:round;stroke-linejoin:round;stroke-miterlimit:1.5;">
    <g transform="matrix(1,0,0,1,-275,-35)">
        <path d="M781.807,734.793C738.225,753.296 690.298,763.533 640,763.533C540.996,763.533 451.183,723.871 385.597,659.583L512.228,529.23C545.07,561.705 590.211,581.767 640,581.767C665.149,581.767 689.112,576.648 710.903,567.397L781.807,734.793ZM790.585,501.776C810.266,472.729 821.767,437.697 821.767,400C821.767,383.878 819.663,368.243 815.716,353.356L991.658,307.573C999.407,337.089 1003.53,368.067 1003.53,400C1003.53,475.394 980.532,545.458 941.17,603.552L790.585,501.776ZM305.847,543.306C286.94,499.325 276.467,450.876 276.467,400C276.467,360.704 282.715,322.856 294.272,287.396L466.488,345.728C461.124,362.87 458.233,381.1 458.233,400C458.233,425.409 463.458,449.608 472.892,471.579L305.847,543.306ZM358.045,170.618C424.727,88.775 526.303,36.467 640,36.467C717.218,36.467 788.845,60.594 847.748,101.715L742.687,250.036C713.463,229.976 678.092,218.233 640,218.233C582.29,218.233 530.825,245.187 497.518,287.181L358.045,170.618Z" style="fill:none;stroke:rgb(255,144,0);stroke-width:1px;"/>
    </g>
</svg>
