<?xml version="1.0" encoding="UTF-8" standalone="no"?>
<!DOCTYPE svg PUBLIC "-//W3C//DTD SVG 1.1//EN" "http://www.w3.org/Graphics/SVG/1.1/DTD/svg11.dtd">
<svg width="100%" height="100%" viewBox="0 0 96 111" version="1.1" xmlns="http://www.w3.org/2000/svg" xmlns:xlink="http://www.w3.org/1999/xlink" xml:space="preserve" xmlns:serif="http://www.serif.com/" style="fill-rule:evenodd;clip-rule:evenodd;">
    <g transform="matrix(1,0,0,1,-253,-126)">
        <g id="Group-2">
            <path id="Rectangle-2-Copy-4" d="M348.5,129.5C348.5,127.844 347.156,126.5 345.5,126.5L256.5,126.5C254.844,126.5 253.5,127.844 253.5,129.5L253.5,218.5C253.5,220.156 254.844,221.5 256.5,221.5L345.5,221.5C347.156,221.5 348.5,220.156 348.5,218.5L348.5,129.5Z" style="fill:none;stroke:rgb(255,121,26);stroke-width:1px;"/>
            <g transform="matrix(1,0,0,1,275.125,234.974)">
                <g id="Wireless">
                    <text x="0px" y="0px" style="font-family:'Nunito-Regular', 'Nunito';font-size:13px;fill:rgb(115,115,115);">W<tspan x="14.443px 17.588px 22.177px 29.157px 32.303px 39.283px 45.653px " y="0px 0px 0px 0px 0px 0px 0px ">ireless</tspan></text>
                </g>
            </g>
            <g id="Icon_Service_Wireless_Color" transform="matrix(1,0,0,1,276,149)">
                <rect id="Rectangle-path" x="0" y="0" width="50" height="50" style="fill:none;"/>
                <g transform="matrix(1,0,0,1,-11.1715,2.14195)">
                    <g id="Group-14-Clipped">
                        <g id="Group">
                            <path id="Fill-1" d="M36,24.066C36,24.066 29.621,21.743 28.215,17.877C26.64,13.55 32.479,12.562 38.451,12.734C41.669,12.827 45.603,13.322 45.603,13.322C45.603,13.322 36.31,14.519 32.952,17.26C29.673,19.937 36,24.066 36,24.066" style="fill:rgb(255,108,12);fill-rule:nonzero;"/>
                            <g id="Shape" transform="matrix(0.707107,0.707107,-0.707107,0.707107,54.0072,0.0257885)">
                                <path d="M24.202,24.201L19.755,24.201C19.755,13.38 10.983,4.608 0.163,4.608L0.163,0.161C13.44,0.161 24.202,10.924 24.202,24.201Z" style="fill:rgb(255,141,32);fill-rule:nonzero;"/>
                            </g>
                            <g id="Shape1" serif:id="Shape" transform="matrix(0.707107,0.707107,-0.707107,0.707107,47.7631,6.36332)">
                                <path d="M15.331,15.304L10.883,15.304C10.883,9.347 6.054,4.518 0.097,4.518L0.097,0.07C8.51,0.07 15.331,6.891 15.331,15.304Z" style="fill:rgb(255,108,11);fill-rule:nonzero;"/>
                            </g>
                            <g id="Shape2" serif:id="Shape" transform="matrix(-0.707107,0.707107,0.707107,0.707107,18.2876,0.0207825)">
                                <path d="M24.214,24.194L19.767,24.194C19.767,13.373 10.995,4.602 0.175,4.602L0.175,0.154C13.452,0.154 24.214,10.917 24.214,24.194Z" style="fill:rgb(255,141,32);fill-rule:nonzero;"/>
                            </g>
                            <g id="Shape3" serif:id="Shape" transform="matrix(-0.707107,0.707107,0.707107,0.707107,23.911,6.30965)">
                                <path d="M15.41,15.299L10.962,15.299C10.962,9.341 6.133,4.512 0.176,4.512L0.176,0.065C8.59,0.065 15.41,6.885 15.41,15.299Z" style="fill:rgb(255,108,11);fill-rule:nonzero;"/>
                            </g>
                            <g id="Shape4" serif:id="Shape" transform="matrix(1,0,0,1,18.9687,26.1718)">
                                <path d="M19.403,11.509C19.341,9.711 19.259,7.313 19.177,4.914C19.151,4.133 19.117,3.111 19.075,1.848C19.042,0.878 18.245,0.107 17.274,0.107C16.302,0.107 15.506,0.878 15.473,1.848C15.431,3.111 15.396,4.133 15.37,4.914C15.288,7.313 15.206,9.711 15.145,11.509C15.139,11.661 15.134,11.807 15.129,11.95L1.418,11.95C0.723,11.95 0.161,12.513 0.161,13.207L0.161,18.286C0.161,18.979 0.723,19.542 1.418,19.542L33.13,19.542C33.824,19.542 34.387,18.979 34.387,18.286L34.387,13.207C34.387,12.513 33.824,11.95 33.13,11.95L19.419,11.95C19.414,11.807 19.408,11.661 19.403,11.509Z" style="fill:rgb(128,128,138);fill-rule:nonzero;"/>
                            </g>
                            <g id="Shape5" serif:id="Shape" transform="matrix(1,0,0,1,36.1562,26.1718)">
                                <path d="M0.04,19.542L0.04,0.108C0.055,0.107 0.071,0.107 0.086,0.107C1.058,0.107 1.854,0.878 1.887,1.848C1.929,3.111 1.964,4.133 1.99,4.914C2.072,7.313 2.154,9.711 2.215,11.509C2.221,11.661 2.226,11.807 2.231,11.95L15.943,11.95C16.637,11.95 17.199,12.513 17.199,13.207L17.199,18.286C17.199,18.979 16.637,19.542 15.943,19.542L0.04,19.542Z" style="fill:rgb(83,83,90);fill-rule:nonzero;"/>
                            </g>
                        </g>
                    </g>
                </g>
            </g>
        </g>
    </g>
</svg>
