<?xml version="1.0" encoding="UTF-8" standalone="no"?>
<!DOCTYPE svg PUBLIC "-//W3C//DTD SVG 1.1//EN" "http://www.w3.org/Graphics/SVG/1.1/DTD/svg11.dtd">
<svg width="100%" height="100%" viewBox="0 0 55 54" version="1.1" xmlns="http://www.w3.org/2000/svg" xmlns:xlink="http://www.w3.org/1999/xlink" xml:space="preserve" xmlns:serif="http://www.serif.com/" style="fill-rule:evenodd;clip-rule:evenodd;stroke-linecap:round;stroke-linejoin:round;stroke-miterlimit:1.5;">
    <g transform="matrix(1,0,0,1,-910,-472)">
        <g transform="matrix(-0.881227,0,0,0.881227,1580.2,255.053)">
            <g transform="matrix(-4.38195,0,0,4.38195,2999.78,-1347.52)">
                <g transform="matrix(1.79751,0,0,1.79751,-389.121,-288.662)">
                    <circle cx="504.776" cy="366.799" r="3.865" style="fill:white;"/>
                    <path d="M504.801,362.934L504.826,362.934L504.851,362.934L504.875,362.935L504.9,362.935L504.925,362.936L504.95,362.937L504.975,362.939L504.999,362.94L505.024,362.941L505.048,362.943L505.073,362.945L505.097,362.947L505.122,362.949L505.146,362.951L505.171,362.953L505.195,362.956L505.219,362.959L505.244,362.962L505.268,362.965L505.292,362.968L505.316,362.971L505.34,362.974L505.364,362.978L505.388,362.982L505.412,362.986L505.436,362.99L505.46,362.994L505.483,362.998L505.507,363.003L505.531,363.007L505.554,363.012L505.578,363.017L505.601,363.022L505.625,363.027L505.648,363.033L505.672,363.038L505.695,363.044L505.718,363.049L505.741,363.055L505.764,363.061L505.787,363.067L505.81,363.074L505.833,363.08L505.856,363.087L505.879,363.094L505.902,363.1L505.925,363.107L505.947,363.114L505.97,363.122L505.992,363.129L506.015,363.137L506.037,363.144L506.06,363.152L506.082,363.16L506.104,363.168L506.126,363.176L506.148,363.185L506.17,363.193L506.192,363.202L506.214,363.21L506.236,363.219L506.258,363.228L506.28,363.237L506.301,363.247L506.323,363.256L506.344,363.266L506.366,363.275L506.387,363.285L506.408,363.295L506.43,363.305L506.451,363.315L506.472,363.325L506.493,363.335L506.514,363.346L506.535,363.357L506.556,363.367L506.576,363.378L506.597,363.389L506.617,363.4L506.638,363.411L506.658,363.423L506.679,363.434L506.699,363.446L506.719,363.458L506.739,363.469L506.759,363.481L506.779,363.493L506.799,363.506L506.819,363.518L506.839,363.53L506.858,363.543L506.878,363.555L506.897,363.568L506.917,363.581L506.936,363.594L506.955,363.607L506.975,363.62L506.994,363.634L507.013,363.647L507.032,363.661L507.05,363.674L507.069,363.688L507.088,363.702L507.106,363.716L507.125,363.73L507.143,363.744L507.161,363.758L507.18,363.773L507.198,363.787L507.216,363.802L507.234,363.817L507.252,363.831L507.269,363.846L507.287,363.861L507.305,363.876L507.322,363.892L507.34,363.907L507.357,363.923L507.374,363.938L507.391,363.954L507.408,363.969L507.425,363.985L507.442,364.001L507.459,364.017L507.475,364.033L507.492,364.05L507.508,364.066L507.525,364.083L507.541,364.099L507.557,364.116L507.573,364.132L507.589,364.149L507.605,364.166L507.621,364.183L507.636,364.2L507.652,364.218L507.667,364.235L507.683,364.252L507.698,364.27L507.713,364.287L507.728,364.305L507.743,364.323L507.758,364.341L507.773,364.359L507.787,364.377L507.802,364.395L507.816,364.413L507.83,364.431L507.845,364.45L507.859,364.468L507.873,364.487L507.886,364.505L507.9,364.524L507.914,364.543L507.927,364.562L507.941,364.581L507.954,364.6L507.967,364.619L507.98,364.638L507.993,364.658L508.006,364.677L508.019,364.696L508.032,364.716L508.044,364.736L508.057,364.755L508.069,364.775L508.081,364.795L508.093,364.815L508.105,364.835L508.117,364.855L508.129,364.875L508.14,364.896L508.152,364.916L508.163,364.936L508.174,364.957L508.185,364.977L508.196,364.998L508.207,365.019L508.218,365.04L508.228,365.061L508.239,365.081L508.249,365.102L508.26,365.124L508.27,365.145L508.28,365.166L508.29,365.187L508.299,365.209L508.309,365.23L508.318,365.252L508.328,365.273L508.337,365.295L508.346,365.316L508.355,365.338L508.364,365.36L508.373,365.382L508.381,365.404L508.39,365.426L508.398,365.448L508.406,365.47L508.414,365.492L508.422,365.515L508.43,365.537L508.438,365.56L508.445,365.582L508.453,365.605L508.46,365.627L508.467,365.65L508.474,365.673L508.481,365.695L508.488,365.718L508.494,365.741L508.501,365.764L508.507,365.787L508.513,365.81L508.519,365.833L508.525,365.856L508.531,365.88L508.536,365.903L508.542,365.926L508.547,365.95L508.552,365.973L508.557,365.997L508.562,366.02L508.567,366.044L508.572,366.067L508.576,366.091L508.581,366.115L508.585,366.139L508.589,366.163L508.593,366.186L508.596,366.21L508.6,366.234L508.603,366.258L508.607,366.283L508.61,366.307L508.613,366.331L508.616,366.355L508.618,366.379L508.621,366.404L508.623,366.428L508.626,366.453L508.628,366.477L508.63,366.501L508.631,366.526L508.633,366.551L508.635,366.575L508.636,366.6L508.637,366.625L508.638,366.649L508.639,366.674L508.64,366.699L508.64,366.724L508.641,366.749L508.641,366.774L508.641,366.799L508.641,366.824L508.641,366.849L508.64,366.874L508.64,366.898L508.639,366.923L508.638,366.948L508.637,366.973L508.636,366.997L508.635,367.022L508.633,367.047L508.631,367.071L508.63,367.096L508.628,367.12L508.626,367.145L508.623,367.169L508.621,367.194L508.618,367.218L508.616,367.242L508.613,367.266L508.61,367.291L508.607,367.315L508.603,367.339L508.6,367.363L508.596,367.387L508.593,367.411L508.589,367.435L508.585,367.459L508.581,367.483L508.576,367.506L508.572,367.53L508.567,367.554L508.562,367.577L508.557,367.601L508.552,367.624L508.547,367.648L508.542,367.671L508.536,367.694L508.531,367.718L508.525,367.741L508.519,367.764L508.513,367.787L508.507,367.81L508.501,367.833L508.494,367.856L508.488,367.879L508.481,367.902L508.474,367.925L508.467,367.948L508.46,367.97L508.453,367.993L508.445,368.015L508.438,368.038L508.43,368.06L508.422,368.083L508.414,368.105L508.406,368.127L508.398,368.149L508.39,368.171L508.381,368.193L508.373,368.215L508.364,368.237L508.355,368.259L508.346,368.281L508.337,368.303L508.328,368.324L508.318,368.346L508.309,368.367L508.299,368.389L508.29,368.41L508.28,368.431L508.27,368.453L508.26,368.474L508.249,368.495L508.239,368.516L508.228,368.537L508.218,368.558L508.207,368.578L508.196,368.599L508.185,368.62L508.174,368.64L508.163,368.661L508.152,368.681L508.14,368.702L508.129,368.722L508.117,368.742L508.105,368.762L508.093,368.782L508.081,368.802L508.069,368.822L508.057,368.842L508.044,368.862L508.032,368.881L508.019,368.901L508.006,368.92L507.993,368.94L507.98,368.959L507.967,368.978L507.954,368.998L507.941,369.017L507.927,369.036L507.914,369.054L507.9,369.073L507.886,369.092L507.873,369.111L507.859,369.129L507.845,369.148L507.83,369.166L507.816,369.184L507.802,369.203L507.787,369.221L507.773,369.239L507.758,369.257L507.743,369.275L507.728,369.292L507.713,369.31L507.698,369.328L507.683,369.345L507.667,369.362L507.652,369.38L507.636,369.397L507.621,369.414L507.605,369.431L507.589,369.448L507.573,369.465L507.557,369.482L507.541,369.498L507.525,369.515L507.508,369.531L507.492,369.548L507.475,369.564L507.459,369.58L507.442,369.596L507.425,369.612L507.408,369.628L507.391,369.644L507.374,369.659L507.357,369.675L507.34,369.69L507.322,369.706L507.305,369.721L507.287,369.736L507.269,369.751L507.252,369.766L507.234,369.781L507.216,369.796L507.198,369.81L507.18,369.825L507.161,369.839L507.143,369.853L507.125,369.868L507.106,369.882L507.088,369.896L507.069,369.909L507.05,369.923L507.032,369.937L507.013,369.95L506.994,369.964L506.975,369.977L506.955,369.99L506.936,370.003L506.917,370.016L506.897,370.029L506.878,370.042L506.858,370.055L506.839,370.067L506.819,370.08L506.799,370.092L506.779,370.104L506.759,370.116L506.739,370.128L506.719,370.14L506.699,370.151L506.679,370.163L506.658,370.175L506.638,370.186L506.617,370.197L506.597,370.208L506.576,370.219L506.556,370.23L506.535,370.241L506.514,370.251L506.493,370.262L506.472,370.272L506.451,370.282L506.43,370.293L506.408,370.303L506.387,370.312L506.366,370.322L506.344,370.332L506.323,370.341L506.301,370.351L506.28,370.36L506.258,370.369L506.236,370.378L506.214,370.387L506.192,370.396L506.17,370.404L506.148,370.413L506.126,370.421L506.104,370.429L506.082,370.437L506.06,370.445L506.037,370.453L506.015,370.461L505.992,370.468L505.97,370.476L505.947,370.483L505.925,370.49L505.902,370.497L505.879,370.504L505.856,370.511L505.833,370.517L505.81,370.524L505.787,370.53L505.764,370.536L505.741,370.542L505.718,370.548L505.695,370.554L505.672,370.559L505.648,370.565L505.625,370.57L505.601,370.575L505.578,370.58L505.554,370.585L505.531,370.59L505.507,370.595L505.483,370.599L505.46,370.603L505.436,370.608L505.412,370.612L505.388,370.616L505.364,370.619L505.34,370.623L505.316,370.626L505.292,370.63L505.268,370.633L505.244,370.636L505.219,370.639L505.195,370.641L505.171,370.644L505.146,370.646L505.122,370.649L505.097,370.651L505.073,370.653L505.048,370.654L505.024,370.656L504.999,370.658L504.975,370.659L504.95,370.66L504.925,370.661L504.9,370.662L504.875,370.663L504.851,370.663L504.826,370.664L504.801,370.664L504.776,370.664L504.751,370.664L504.726,370.664L504.701,370.663L504.676,370.663L504.651,370.662L504.626,370.661L504.602,370.66L504.577,370.659L504.552,370.658L504.528,370.656L504.503,370.654L504.479,370.653L504.454,370.651L504.43,370.649L504.405,370.646L504.381,370.644L504.356,370.641L504.332,370.639L504.308,370.636L504.284,370.633L504.26,370.63L504.235,370.626L504.211,370.623L504.187,370.619L504.163,370.616L504.14,370.612L504.116,370.608L504.092,370.603L504.068,370.599L504.044,370.595L504.021,370.59L503.997,370.585L503.974,370.58L503.95,370.575L503.927,370.57L503.903,370.565L503.88,370.559L503.857,370.554L503.833,370.548L503.81,370.542L503.787,370.536L503.764,370.53L503.741,370.524L503.718,370.517L503.695,370.511L503.672,370.504L503.65,370.497L503.627,370.49L503.604,370.483L503.582,370.476L503.559,370.468L503.537,370.461L503.514,370.453L503.492,370.445L503.47,370.437L503.447,370.429L503.425,370.421L503.403,370.413L503.381,370.404L503.359,370.396L503.337,370.387L503.315,370.378L503.294,370.369L503.272,370.36L503.25,370.351L503.229,370.341L503.207,370.332L503.186,370.322L503.164,370.312L503.143,370.303L503.122,370.293L503.101,370.282L503.08,370.272L503.059,370.262L503.038,370.251L503.017,370.241L502.996,370.23L502.975,370.219L502.955,370.208L502.934,370.197L502.913,370.186L502.893,370.175L502.873,370.163L502.852,370.151L502.832,370.14L502.812,370.128L502.792,370.116L502.772,370.104L502.752,370.092L502.732,370.08L502.713,370.067L502.693,370.055L502.673,370.042L502.654,370.029L502.635,370.016L502.615,370.003L502.596,369.99L502.577,369.977L502.558,369.964L502.539,369.95L502.52,369.937L502.501,369.923L502.482,369.909L502.464,369.896L502.445,369.882L502.427,369.868L502.408,369.853L502.39,369.839L502.372,369.825L502.354,369.81L502.336,369.796L502.318,369.781L502.3,369.766L502.282,369.751L502.264,369.736L502.247,369.721L502.229,369.706L502.212,369.69L502.195,369.675L502.177,369.659L502.16,369.644L502.143,369.628L502.126,369.612L502.11,369.596L502.093,369.58L502.076,369.564L502.06,369.548L502.043,369.531L502.027,369.515L502.011,369.498L501.994,369.482L501.978,369.465L501.962,369.448L501.947,369.431L501.931,369.414L501.915,369.397L501.9,369.38L501.884,369.362L501.869,369.345L501.854,369.328L501.838,369.31L501.823,369.292L501.808,369.275L501.794,369.257L501.779,369.239L501.764,369.221L501.75,369.203L501.735,369.184L501.721,369.166L501.707,369.148L501.693,369.129L501.679,369.111L501.665,369.092L501.651,369.073L501.638,369.054L501.624,369.036L501.611,369.017L501.597,368.998L501.584,368.978L501.571,368.959L501.558,368.94L501.545,368.92L501.532,368.901L501.52,368.881L501.507,368.862L501.495,368.842L501.483,368.822L501.47,368.802L501.458,368.782L501.446,368.762L501.435,368.742L501.423,368.722L501.411,368.702L501.4,368.681L501.389,368.661L501.377,368.64L501.366,368.62L501.355,368.599L501.344,368.578L501.334,368.558L501.323,368.537L501.313,368.516L501.302,368.495L501.292,368.474L501.282,368.453L501.272,368.431L501.262,368.41L501.252,368.389L501.243,368.367L501.233,368.346L501.224,368.324L501.214,368.303L501.205,368.281L501.196,368.259L501.188,368.237L501.179,368.215L501.17,368.193L501.162,368.171L501.153,368.149L501.145,368.127L501.137,368.105L501.129,368.083L501.121,368.06L501.114,368.038L501.106,368.015L501.099,367.993L501.092,367.97L501.084,367.948L501.077,367.925L501.071,367.902L501.064,367.879L501.057,367.856L501.051,367.833L501.044,367.81L501.038,367.787L501.032,367.764L501.026,367.741L501.021,367.718L501.015,367.694L501.01,367.671L501.004,367.648L500.999,367.624L500.994,367.601L500.989,367.577L500.984,367.554L500.98,367.53L500.975,367.506L500.971,367.483L500.967,367.459L500.963,367.435L500.959,367.411L500.955,367.387L500.951,367.363L500.948,367.339L500.945,367.315L500.942,367.291L500.939,367.266L500.936,367.242L500.933,367.218L500.93,367.194L500.928,367.169L500.926,367.145L500.924,367.12L500.922,367.096L500.92,367.071L500.918,367.047L500.917,367.022L500.916,366.997L500.914,366.973L500.913,366.948L500.912,366.923L500.912,366.898L500.911,366.874L500.911,366.849L500.911,366.824L500.911,366.799L500.911,366.774L500.911,366.749L500.911,366.724L500.912,366.699L500.912,366.674L500.913,366.649L500.914,366.625L500.916,366.6L500.917,366.575L500.918,366.551L500.92,366.526L500.922,366.501L500.924,366.477L500.926,366.453L500.928,366.428L500.93,366.404L500.933,366.379L500.936,366.355L500.939,366.331L500.942,366.307L500.945,366.283L500.948,366.258L500.951,366.234L500.955,366.21L500.959,366.186L500.963,366.163L500.967,366.139L500.971,366.115L500.975,366.091L500.98,366.067L500.984,366.044L500.989,366.02L500.994,365.997L500.999,365.973L501.004,365.95L501.01,365.926L501.015,365.903L501.021,365.88L501.026,365.856L501.032,365.833L501.038,365.81L501.044,365.787L501.051,365.764L501.057,365.741L501.064,365.718L501.071,365.695L501.077,365.673L501.084,365.65L501.092,365.627L501.099,365.605L501.106,365.582L501.114,365.56L501.121,365.537L501.129,365.515L501.137,365.492L501.145,365.47L501.153,365.448L501.162,365.426L501.17,365.404L501.179,365.382L501.188,365.36L501.196,365.338L501.205,365.316L501.214,365.295L501.224,365.273L501.233,365.252L501.243,365.23L501.252,365.209L501.262,365.187L501.272,365.166L501.282,365.145L501.292,365.124L501.302,365.102L501.313,365.081L501.323,365.061L501.334,365.04L501.344,365.019L501.355,364.998L501.366,364.977L501.377,364.957L501.389,364.936L501.4,364.916L501.411,364.896L501.423,364.875L501.435,364.855L501.446,364.835L501.458,364.815L501.47,364.795L501.483,364.775L501.495,364.755L501.507,364.736L501.52,364.716L501.532,364.696L501.545,364.677L501.558,364.658L501.571,364.638L501.584,364.619L501.597,364.6L501.611,364.581L501.624,364.562L501.638,364.543L501.651,364.524L501.665,364.505L501.679,364.487L501.693,364.468L501.707,364.45L501.721,364.431L501.735,364.413L501.75,364.395L501.764,364.377L501.779,364.359L501.794,364.341L501.808,364.323L501.823,364.305L501.838,364.287L501.854,364.27L501.869,364.252L501.884,364.235L501.9,364.218L501.915,364.2L501.931,364.183L501.947,364.166L501.962,364.149L501.978,364.132L501.994,364.116L502.011,364.099L502.027,364.083L502.043,364.066L502.06,364.05L502.076,364.033L502.093,364.017L502.11,364.001L502.126,363.985L502.143,363.969L502.16,363.954L502.177,363.938L502.195,363.923L502.212,363.907L502.229,363.892L502.247,363.876L502.264,363.861L502.282,363.846L502.3,363.831L502.318,363.817L502.336,363.802L502.354,363.787L502.372,363.773L502.39,363.758L502.408,363.744L502.427,363.73L502.445,363.716L502.464,363.702L502.482,363.688L502.501,363.674L502.52,363.661L502.539,363.647L502.558,363.634L502.577,363.62L502.596,363.607L502.615,363.594L502.635,363.581L502.654,363.568L502.673,363.555L502.693,363.543L502.713,363.53L502.732,363.518L502.752,363.506L502.772,363.493L502.792,363.481L502.812,363.469L502.832,363.458L502.852,363.446L502.873,363.434L502.893,363.423L502.913,363.411L502.934,363.4L502.955,363.389L502.975,363.378L502.996,363.367L503.017,363.357L503.038,363.346L503.059,363.335L503.08,363.325L503.101,363.315L503.122,363.305L503.143,363.295L503.164,363.285L503.186,363.275L503.207,363.266L503.229,363.256L503.25,363.247L503.272,363.237L503.294,363.228L503.315,363.219L503.337,363.21L503.359,363.202L503.381,363.193L503.403,363.185L503.425,363.176L503.447,363.168L503.47,363.16L503.492,363.152L503.514,363.144L503.537,363.137L503.559,363.129L503.582,363.122L503.604,363.114L503.627,363.107L503.65,363.1L503.672,363.094L503.695,363.087L503.718,363.08L503.741,363.074L503.764,363.067L503.787,363.061L503.81,363.055L503.833,363.049L503.857,363.044L503.88,363.038L503.903,363.033L503.927,363.027L503.95,363.022L503.974,363.017L503.997,363.012L504.021,363.007L504.044,363.003L504.068,362.998L504.092,362.994L504.116,362.99L504.14,362.986L504.163,362.982L504.187,362.978L504.211,362.974L504.235,362.971L504.26,362.968L504.284,362.965L504.308,362.962L504.332,362.959L504.356,362.956L504.381,362.953L504.405,362.951L504.43,362.949L504.454,362.947L504.479,362.945L504.503,362.943L504.528,362.941L504.552,362.94L504.577,362.939L504.602,362.937L504.626,362.936L504.651,362.935L504.676,362.935L504.701,362.934L504.726,362.934L504.751,362.934L504.776,362.933L504.801,362.934ZM504.753,363.222L504.729,363.222L504.706,363.222L504.683,363.223L504.66,363.223L504.637,363.224L504.614,363.225L504.592,363.226L504.569,363.228L504.546,363.229L504.523,363.23L504.5,363.232L504.478,363.234L504.455,363.236L504.432,363.238L504.41,363.24L504.387,363.242L504.365,363.245L504.342,363.248L504.32,363.25L504.298,363.253L504.275,363.256L504.253,363.26L504.231,363.263L504.209,363.266L504.187,363.27L504.165,363.274L504.143,363.278L504.121,363.282L504.099,363.286L504.077,363.29L504.055,363.294L504.033,363.299L504.011,363.304L503.99,363.308L503.968,363.313L503.947,363.318L503.925,363.324L503.904,363.329L503.882,363.334L503.861,363.34L503.839,363.346L503.818,363.351L503.797,363.357L503.776,363.363L503.755,363.37L503.733,363.376L503.713,363.382L503.692,363.389L503.671,363.396L503.65,363.403L503.629,363.41L503.608,363.417L503.588,363.424L503.567,363.431L503.546,363.439L503.526,363.446L503.506,363.454L503.485,363.462L503.465,363.47L503.445,363.478L503.424,363.486L503.404,363.494L503.384,363.503L503.364,363.511L503.344,363.52L503.324,363.529L503.304,363.538L503.285,363.547L503.265,363.556L503.245,363.565L503.226,363.574L503.206,363.584L503.187,363.593L503.167,363.603L503.148,363.613L503.129,363.623L503.11,363.633L503.091,363.643L503.072,363.653L503.053,363.664L503.034,363.674L503.015,363.685L502.996,363.696L502.977,363.706L502.959,363.717L502.94,363.728L502.922,363.74L502.903,363.751L502.885,363.762L502.867,363.774L502.849,363.785L502.83,363.797L502.812,363.809L502.794,363.821L502.777,363.833L502.759,363.845L502.741,363.857L502.723,363.869L502.706,363.882L502.688,363.894L502.671,363.907L502.654,363.92L502.636,363.933L502.619,363.945L502.602,363.958L502.585,363.972L502.568,363.985L502.551,363.998L502.534,364.012L502.518,364.025L502.501,364.039L502.485,364.052L502.468,364.066L502.452,364.08L502.435,364.094L502.419,364.108L502.403,364.123L502.387,364.137L502.371,364.151L502.355,364.166L502.34,364.18L502.324,364.195L502.308,364.21L502.293,364.225L502.277,364.24L502.262,364.255L502.247,364.27L502.232,364.285L502.217,364.3L502.202,364.316L502.187,364.331L502.172,364.347L502.157,364.363L502.143,364.378L502.128,364.394L502.114,364.41L502.1,364.426L502.085,364.442L502.071,364.458L502.057,364.475L502.043,364.491L502.03,364.508L502.016,364.524L502.002,364.541L501.989,364.557L501.975,364.574L501.962,364.591L501.949,364.608L501.936,364.625L501.922,364.642L501.91,364.659L501.897,364.677L501.884,364.694L501.871,364.711L501.859,364.729L501.846,364.746L501.834,364.764L501.822,364.782L501.81,364.8L501.798,364.817L501.786,364.835L501.774,364.853L501.762,364.872L501.751,364.89L501.739,364.908L501.728,364.926L501.717,364.945L501.706,364.963L501.694,364.982L501.684,365L501.673,365.019L501.662,365.038L501.651,365.057L501.641,365.076L501.63,365.095L501.62,365.114L501.61,365.133L501.6,365.152L501.59,365.171L501.58,365.19L501.571,365.21L501.561,365.229L501.551,365.249L501.542,365.268L501.533,365.288L501.524,365.308L501.515,365.327L501.506,365.347L501.497,365.367L501.488,365.387L501.48,365.407L501.471,365.427L501.463,365.447L501.455,365.467L501.447,365.488L501.439,365.508L501.431,365.528L501.423,365.549L501.416,365.569L501.408,365.59L501.401,365.611L501.394,365.631L501.387,365.652L501.38,365.673L501.373,365.694L501.366,365.715L501.36,365.735L501.353,365.756L501.347,365.778L501.341,365.799L501.334,365.82L501.328,365.841L501.323,365.862L501.317,365.884L501.311,365.905L501.306,365.926L501.301,365.948L501.295,365.969L501.29,365.991L501.285,366.013L501.281,366.034L501.276,366.056L501.271,366.078L501.267,366.1L501.263,366.122L501.259,366.144L501.255,366.166L501.251,366.188L501.247,366.21L501.243,366.232L501.24,366.254L501.237,366.276L501.233,366.298L501.23,366.321L501.227,366.343L501.225,366.365L501.222,366.388L501.22,366.41L501.217,366.433L501.215,366.455L501.213,366.478L501.211,366.501L501.209,366.523L501.207,366.546L501.206,366.569L501.205,366.592L501.203,366.614L501.202,366.637L501.201,366.66L501.2,366.683L501.2,366.706L501.199,366.729L501.199,366.752L501.199,366.776L501.199,366.799L501.199,366.822L501.199,366.845L501.199,366.868L501.2,366.891L501.2,366.914L501.201,366.937L501.202,366.96L501.203,366.983L501.205,367.006L501.206,367.028L501.207,367.051L501.209,367.074L501.211,367.097L501.213,367.119L501.215,367.142L501.217,367.164L501.22,367.187L501.222,367.209L501.225,367.232L501.227,367.254L501.23,367.277L501.233,367.299L501.237,367.321L501.24,367.343L501.243,367.366L501.247,367.388L501.251,367.41L501.255,367.432L501.259,367.454L501.263,367.476L501.267,367.498L501.271,367.519L501.276,367.541L501.281,367.563L501.285,367.585L501.29,367.606L501.295,367.628L501.301,367.649L501.306,367.671L501.311,367.692L501.317,367.714L501.323,367.735L501.328,367.756L501.334,367.778L501.341,367.799L501.347,367.82L501.353,367.841L501.36,367.862L501.366,367.883L501.373,367.904L501.38,367.925L501.387,367.945L501.394,367.966L501.401,367.987L501.408,368.007L501.416,368.028L501.423,368.048L501.431,368.069L501.439,368.089L501.447,368.11L501.455,368.13L501.463,368.15L501.471,368.17L501.48,368.19L501.488,368.21L501.497,368.23L501.506,368.25L501.515,368.27L501.524,368.29L501.533,368.309L501.542,368.329L501.551,368.349L501.561,368.368L501.571,368.388L501.58,368.407L501.59,368.426L501.6,368.445L501.61,368.465L501.62,368.484L501.63,368.503L501.641,368.522L501.651,368.541L501.662,368.56L501.673,368.578L501.684,368.597L501.694,368.616L501.706,368.634L501.717,368.653L501.728,368.671L501.739,368.689L501.751,368.708L501.762,368.726L501.774,368.744L501.786,368.762L501.798,368.78L501.81,368.798L501.822,368.816L501.834,368.833L501.846,368.851L501.859,368.869L501.871,368.886L501.884,368.903L501.897,368.921L501.91,368.938L501.922,368.955L501.936,368.972L501.949,368.989L501.962,369.006L501.975,369.023L501.989,369.04L502.002,369.057L502.016,369.073L502.03,369.09L502.043,369.106L502.057,369.123L502.071,369.139L502.085,369.155L502.1,369.171L502.114,369.187L502.128,369.203L502.143,369.219L502.157,369.235L502.172,369.25L502.187,369.266L502.202,369.282L502.217,369.297L502.232,369.312L502.247,369.328L502.262,369.343L502.277,369.358L502.293,369.373L502.308,369.388L502.324,369.402L502.34,369.417L502.355,369.432L502.371,369.446L502.387,369.46L502.403,369.475L502.419,369.489L502.435,369.503L502.452,369.517L502.468,369.531L502.485,369.545L502.501,369.559L502.518,369.572L502.534,369.586L502.551,369.599L502.568,369.612L502.585,369.626L502.602,369.639L502.619,369.652L502.636,369.665L502.654,369.678L502.671,369.69L502.688,369.703L502.706,369.716L502.723,369.728L502.741,369.74L502.759,369.753L502.777,369.765L502.794,369.777L502.812,369.789L502.83,369.8L502.849,369.812L502.867,369.824L502.885,369.835L502.903,369.846L502.922,369.858L502.94,369.869L502.959,369.88L502.977,369.891L502.996,369.902L503.015,369.912L503.034,369.923L503.053,369.934L503.072,369.944L503.091,369.954L503.11,369.964L503.129,369.974L503.148,369.984L503.167,369.994L503.187,370.004L503.206,370.013L503.226,370.023L503.245,370.032L503.265,370.042L503.285,370.051L503.304,370.06L503.324,370.069L503.344,370.077L503.364,370.086L503.384,370.095L503.404,370.103L503.424,370.111L503.445,370.12L503.465,370.128L503.485,370.136L503.506,370.143L503.526,370.151L503.546,370.159L503.567,370.166L503.588,370.173L503.608,370.181L503.629,370.188L503.65,370.195L503.671,370.202L503.692,370.208L503.713,370.215L503.733,370.221L503.755,370.228L503.776,370.234L503.797,370.24L503.818,370.246L503.839,370.252L503.861,370.257L503.882,370.263L503.904,370.269L503.925,370.274L503.947,370.279L503.968,370.284L503.99,370.289L504.011,370.294L504.033,370.298L504.055,370.303L504.077,370.307L504.099,370.312L504.121,370.316L504.143,370.32L504.165,370.324L504.187,370.327L504.209,370.331L504.231,370.334L504.253,370.338L504.275,370.341L504.298,370.344L504.32,370.347L504.342,370.35L504.365,370.352L504.387,370.355L504.41,370.357L504.432,370.359L504.455,370.362L504.478,370.363L504.5,370.365L504.523,370.367L504.546,370.368L504.569,370.37L504.592,370.371L504.614,370.372L504.637,370.373L504.66,370.374L504.683,370.375L504.706,370.375L504.729,370.375L504.753,370.376L504.776,370.376L504.799,370.376L504.822,370.375L504.845,370.375L504.868,370.375L504.891,370.374L504.914,370.373L504.937,370.372L504.96,370.371L504.983,370.37L505.006,370.368L505.028,370.367L505.051,370.365L505.074,370.363L505.096,370.362L505.119,370.359L505.142,370.357L505.164,370.355L505.187,370.352L505.209,370.35L505.231,370.347L505.254,370.344L505.276,370.341L505.298,370.338L505.32,370.334L505.343,370.331L505.365,370.327L505.387,370.324L505.409,370.32L505.431,370.316L505.453,370.312L505.475,370.307L505.496,370.303L505.518,370.298L505.54,370.294L505.562,370.289L505.583,370.284L505.605,370.279L505.626,370.274L505.648,370.269L505.669,370.263L505.691,370.257L505.712,370.252L505.733,370.246L505.755,370.24L505.776,370.234L505.797,370.228L505.818,370.221L505.839,370.215L505.86,370.208L505.881,370.202L505.902,370.195L505.922,370.188L505.943,370.181L505.964,370.173L505.984,370.166L506.005,370.159L506.025,370.151L506.046,370.143L506.066,370.135L506.087,370.128L506.107,370.12L506.127,370.111L506.147,370.103L506.167,370.095L506.187,370.086L506.207,370.077L506.227,370.069L506.247,370.06L506.267,370.051L506.287,370.042L506.306,370.032L506.326,370.023L506.345,370.013L506.365,370.004L506.384,369.994L506.403,369.984L506.423,369.974L506.442,369.964L506.461,369.954L506.48,369.944L506.499,369.934L506.518,369.923L506.537,369.912L506.555,369.902L506.574,369.891L506.593,369.88L506.611,369.869L506.63,369.858L506.648,369.846L506.666,369.835L506.685,369.824L506.703,369.812L506.721,369.8L506.739,369.789L506.757,369.777L506.775,369.765L506.793,369.753L506.81,369.74L506.828,369.728L506.846,369.716L506.863,369.703L506.881,369.69L506.898,369.678L506.915,369.665L506.932,369.652L506.949,369.639L506.966,369.626L506.983,369.612L507,369.599L507.017,369.586L507.034,369.572L507.05,369.559L507.067,369.545L507.083,369.531L507.1,369.517L507.116,369.503L507.132,369.489L507.148,369.475L507.164,369.46L507.18,369.446L507.196,369.432L507.212,369.417L507.228,369.402L507.243,369.388L507.259,369.373L507.274,369.358L507.289,369.343L507.305,369.328L507.32,369.312L507.335,369.297L507.35,369.282L507.365,369.266L507.379,369.25L507.394,369.235L507.409,369.219L507.423,369.203L507.437,369.187L507.452,369.171L507.466,369.155L507.48,369.139L507.494,369.123L507.508,369.106L507.522,369.09L507.536,369.073L507.549,369.057L507.563,369.04L507.576,369.023L507.59,369.006L507.603,368.989L507.616,368.972L507.629,368.955L507.642,368.938L507.655,368.921L507.667,368.903L507.68,368.886L507.693,368.869L507.705,368.851L507.717,368.833L507.73,368.816L507.742,368.798L507.754,368.78L507.766,368.762L507.777,368.744L507.789,368.726L507.801,368.708L507.812,368.689L507.824,368.671L507.835,368.653L507.846,368.634L507.857,368.616L507.868,368.597L507.879,368.578L507.889,368.56L507.9,368.541L507.911,368.522L507.921,368.503L507.931,368.484L507.941,368.465L507.951,368.445L507.961,368.426L507.971,368.407L507.981,368.388L507.991,368.368L508,368.349L508.009,368.329L508.019,368.309L508.028,368.29L508.037,368.27L508.046,368.25L508.054,368.23L508.063,368.21L508.072,368.19L508.08,368.17L508.088,368.15L508.097,368.13L508.105,368.11L508.113,368.089L508.12,368.069L508.128,368.048L508.136,368.028L508.143,368.007L508.15,367.987L508.158,367.966L508.165,367.945L508.172,367.925L508.179,367.904L508.185,367.883L508.192,367.862L508.198,367.841L508.205,367.82L508.211,367.799L508.217,367.778L508.223,367.756L508.229,367.735L508.235,367.714L508.24,367.692L508.246,367.671L508.251,367.649L508.256,367.628L508.261,367.606L508.266,367.585L508.271,367.563L508.276,367.541L508.28,367.519L508.284,367.498L508.289,367.476L508.293,367.454L508.297,367.432L508.301,367.41L508.304,367.388L508.308,367.366L508.312,367.343L508.315,367.321L508.318,367.299L508.321,367.277L508.324,367.254L508.327,367.232L508.329,367.209L508.332,367.187L508.334,367.164L508.337,367.142L508.339,367.119L508.341,367.097L508.342,367.074L508.344,367.051L508.346,367.028L508.347,367.006L508.348,366.983L508.349,366.96L508.35,366.937L508.351,366.914L508.352,366.891L508.352,366.868L508.352,366.845L508.353,366.822L508.353,366.799L508.353,366.776L508.352,366.752L508.352,366.729L508.352,366.706L508.351,366.683L508.35,366.66L508.349,366.637L508.348,366.614L508.347,366.592L508.346,366.569L508.344,366.546L508.342,366.523L508.341,366.501L508.339,366.478L508.337,366.455L508.334,366.433L508.332,366.41L508.329,366.388L508.327,366.365L508.324,366.343L508.321,366.321L508.318,366.298L508.315,366.276L508.312,366.254L508.308,366.232L508.304,366.21L508.301,366.188L508.297,366.166L508.293,366.144L508.289,366.122L508.284,366.1L508.28,366.078L508.276,366.056L508.271,366.034L508.266,366.013L508.261,365.991L508.256,365.969L508.251,365.948L508.246,365.926L508.24,365.905L508.235,365.884L508.229,365.862L508.223,365.841L508.217,365.82L508.211,365.799L508.205,365.778L508.198,365.756L508.192,365.735L508.185,365.715L508.179,365.694L508.172,365.673L508.165,365.652L508.158,365.631L508.15,365.611L508.143,365.59L508.136,365.569L508.128,365.549L508.12,365.528L508.113,365.508L508.105,365.488L508.097,365.467L508.088,365.447L508.08,365.427L508.072,365.407L508.063,365.387L508.054,365.367L508.046,365.347L508.037,365.327L508.028,365.308L508.019,365.288L508.009,365.268L508,365.249L507.991,365.229L507.981,365.21L507.971,365.19L507.961,365.171L507.951,365.152L507.941,365.133L507.931,365.114L507.921,365.095L507.911,365.076L507.9,365.057L507.889,365.038L507.879,365.019L507.868,365L507.857,364.982L507.846,364.963L507.835,364.945L507.824,364.926L507.812,364.908L507.801,364.89L507.789,364.872L507.777,364.853L507.766,364.835L507.754,364.817L507.742,364.8L507.73,364.782L507.717,364.764L507.705,364.746L507.693,364.729L507.68,364.711L507.667,364.694L507.655,364.677L507.642,364.659L507.629,364.642L507.616,364.625L507.603,364.608L507.59,364.591L507.576,364.574L507.563,364.557L507.549,364.541L507.536,364.524L507.522,364.508L507.508,364.491L507.494,364.475L507.48,364.458L507.466,364.442L507.452,364.426L507.437,364.41L507.423,364.394L507.409,364.378L507.394,364.363L507.379,364.347L507.365,364.331L507.35,364.316L507.335,364.3L507.32,364.285L507.305,364.27L507.289,364.255L507.274,364.24L507.259,364.225L507.243,364.21L507.228,364.195L507.212,364.18L507.196,364.166L507.18,364.151L507.164,364.137L507.148,364.123L507.132,364.108L507.116,364.094L507.1,364.08L507.083,364.066L507.067,364.052L507.05,364.039L507.034,364.025L507.017,364.012L507,363.998L506.983,363.985L506.966,363.972L506.949,363.958L506.932,363.945L506.915,363.932L506.898,363.92L506.881,363.907L506.863,363.894L506.846,363.882L506.828,363.869L506.81,363.857L506.793,363.845L506.775,363.833L506.757,363.821L506.739,363.809L506.721,363.797L506.703,363.785L506.685,363.774L506.666,363.762L506.648,363.751L506.63,363.74L506.611,363.728L506.593,363.717L506.574,363.706L506.555,363.696L506.537,363.685L506.518,363.674L506.499,363.664L506.48,363.653L506.461,363.643L506.442,363.633L506.423,363.623L506.403,363.613L506.384,363.603L506.365,363.593L506.345,363.584L506.326,363.574L506.306,363.565L506.287,363.556L506.267,363.547L506.247,363.538L506.227,363.529L506.207,363.52L506.187,363.511L506.167,363.503L506.147,363.494L506.127,363.486L506.107,363.478L506.087,363.47L506.066,363.462L506.046,363.454L506.025,363.446L506.005,363.439L505.984,363.431L505.964,363.424L505.943,363.417L505.922,363.41L505.902,363.403L505.881,363.396L505.86,363.389L505.839,363.382L505.818,363.376L505.797,363.37L505.776,363.363L505.755,363.357L505.733,363.351L505.712,363.346L505.691,363.34L505.669,363.334L505.648,363.329L505.626,363.324L505.605,363.318L505.583,363.313L505.562,363.308L505.54,363.304L505.518,363.299L505.496,363.294L505.475,363.29L505.453,363.286L505.431,363.282L505.409,363.278L505.387,363.274L505.365,363.27L505.343,363.266L505.32,363.263L505.298,363.26L505.276,363.256L505.254,363.253L505.231,363.25L505.209,363.248L505.187,363.245L505.164,363.242L505.142,363.24L505.119,363.238L505.096,363.236L505.074,363.234L505.051,363.232L505.028,363.23L505.006,363.229L504.983,363.228L504.96,363.226L504.937,363.225L504.914,363.224L504.891,363.223L504.868,363.223L504.845,363.222L504.822,363.222L504.799,363.222L504.776,363.222L504.753,363.222Z" style="fill:rgb(179,214,101);"/>
                </g>
                <g transform="matrix(1.402,0,0,1.402,-207.997,-149.955)">
                    <g transform="matrix(1,0,0,0.771459,0.544678,85.3884)">
                        <path d="M516.676,367.704L519.636,370.664" style="fill:white;stroke:rgb(253,152,63);stroke-width:1.56px;"/>
                    </g>
                    <g transform="matrix(1,0,0,-0.771459,0.544678,657.292)">
                        <path d="M516.676,367.704L519.636,370.664" style="fill:white;stroke:rgb(253,152,63);stroke-width:1.56px;"/>
                    </g>
                </g>
            </g>
        </g>
    </g>
</svg>
