<?xml version="1.0" encoding="UTF-8" standalone="no"?>
<!DOCTYPE svg PUBLIC "-//W3C//DTD SVG 1.1//EN" "http://www.w3.org/Graphics/SVG/1.1/DTD/svg11.dtd">
<svg width="100%" height="100%" viewBox="0 0 396 412" version="1.1" xmlns="http://www.w3.org/2000/svg" xmlns:xlink="http://www.w3.org/1999/xlink" xml:space="preserve" xmlns:serif="http://www.serif.com/" style="fill-rule:evenodd;clip-rule:evenodd;stroke-linecap:round;stroke-linejoin:round;stroke-miterlimit:1.5;">
    <g transform="matrix(1,0,0,1,-442,-194)">
        <g transform="matrix(1,0,0,1,-7.16017,6.43616e-06)">
            <path d="M609.304,497.576C626.162,502.879 643.906,503.618 660.789,500.115L660.423,603.484C633.199,606.233 605.346,603.563 578.609,595.153L609.304,497.576ZM732.344,443.981L824.69,487.962C820.079,497.62 814.648,507.039 808.38,516.128L807.743,517.046C794.319,536.288 778.165,552.517 760.162,565.572L703.931,479.851C711.531,473.767 718.381,466.486 724.19,458.064C727.324,453.52 730.039,448.81 732.344,443.981ZM512.517,559.963C483.681,537.024 462.556,507.58 449.796,475.193L544.898,437.596C551.278,453.79 561.84,468.512 576.259,479.982L512.517,559.963ZM737.536,430.824C739.059,426.004 740.209,421.111 740.993,416.187L841.986,432.374C840.418,442.223 838.119,452.008 835.072,461.647L737.536,430.824ZM844.525,400L742.262,400C742.226,367.537 726.785,335.619 698.064,315.81L756.128,231.62C813.57,271.237 844.451,335.072 844.525,400ZM545.459,218.605L592.729,309.303C578.391,316.754 565.616,327.718 555.81,341.936L471.62,283.872C491.233,255.435 516.781,233.508 545.459,218.605ZM576.348,205.643C601.099,197.562 627.267,194.221 653.356,195.896L646.678,297.948C633.634,297.111 620.549,298.781 608.174,302.821L576.348,205.643Z" style="fill:none;stroke:rgb(255,144,0);stroke-width:1px;"/>
        </g>
    </g>
</svg>
