<?xml version="1.0" encoding="UTF-8" standalone="no"?>
<!DOCTYPE svg PUBLIC "-//W3C//DTD SVG 1.1//EN" "http://www.w3.org/Graphics/SVG/1.1/DTD/svg11.dtd">
<svg width="100%" height="100%" viewBox="0 0 408 347" version="1.1" xmlns="http://www.w3.org/2000/svg" xmlns:xlink="http://www.w3.org/1999/xlink" xml:space="preserve" xmlns:serif="http://www.serif.com/" style="fill-rule:evenodd;clip-rule:evenodd;stroke-linejoin:round;stroke-miterlimit:1.41421;">
    <g transform="matrix(1,0,0,1,-357,-262)">
        <g>
            <g transform="matrix(1,0,0,1,-9.70468,0.78615)">
                <text x="371.615px" y="359.661px" style="font-family:'Nunito-Bold', 'Nunito';font-weight:700;font-size:16px;fill:white;">DETEC<tspan x="423.007px " y="359.661px ">T</tspan> AND</text>
                <text x="377.479px" y="378.328px" style="font-family:'Nunito-Bold', 'Nunito';font-weight:700;font-size:16px;fill:white;">REMEDIA<tspan x="447.943px " y="378.328px ">T</tspan>E</text>
            </g>
            <g transform="matrix(1,0,0,1,138.928,-86.0809)">
                <text x="373.863px" y="359.661px" style="font-family:'Nunito-Bold', 'Nunito';font-weight:700;font-size:16px;fill:white;">A<tspan x="385.383px " y="359.661px ">G</tspan>GREGA<tspan x="451.559px " y="359.661px ">T</tspan>E</text>
                <text x="401.055px" y="378.328px" style="font-family:'Nunito-Bold', 'Nunito';font-weight:700;font-size:16px;fill:white;">D<tspan x="412.831px 423.311px 431.727px " y="378.328px 378.328px 378.328px ">ATA</tspan></text>
            </g>
            <g transform="matrix(1,0,0,1,277.136,0.78615)">
                <text x="357.047px" y="359.661px" style="font-family:'Nunito-Bold', 'Nunito';font-weight:700;font-size:16px;fill:white;">C<tspan x="367.687px " y="359.661px ">O</tspan>NTE<tspan x="411.223px " y="359.661px ">X</tspan>TUALIZE</text>
                <text x="401.055px" y="378.328px" style="font-family:'Nunito-Bold', 'Nunito';font-weight:700;font-size:16px;fill:white;">D<tspan x="412.831px 423.311px 431.727px " y="378.328px 378.328px 378.328px ">ATA</tspan></text>
            </g>
            <g transform="matrix(1,0,0,1,281.586,146.187)">
                <text x="389.599px" y="359.661px" style="font-family:'Nunito-Bold', 'Nunito';font-weight:700;font-size:16px;fill:white;">S<tspan x="399.567px " y="359.661px ">T</tspan>RE<tspan x="429.727px " y="359.661px ">A</tspan>M</text>
                <text x="378.319px" y="378.328px" style="font-family:'Nunito-Bold', 'Nunito';font-weight:700;font-size:16px;fill:white;">ANAL<tspan x="420.927px 431.183px " y="378.328px 378.328px ">YT</tspan>IC<tspan x="456.127px " y="378.328px ">S</tspan></text>
            </g>
            <g transform="matrix(1,0,0,1,139.201,230.355)">
                <text x="401.087px" y="359.661px" style="font-family:'Nunito-Bold', 'Nunito';font-weight:700;font-size:16px;fill:white;">USER</text>
                <text x="378.319px" y="378.328px" style="font-family:'Nunito-Bold', 'Nunito';font-weight:700;font-size:16px;fill:white;">ANAL<tspan x="420.927px 431.183px " y="378.328px 378.328px ">YT</tspan>IC<tspan x="456.127px " y="378.328px ">S</tspan></text>
            </g>
            <g transform="matrix(1,0,0,1,-10.0276,146.187)">
                <text x="381.287px" y="359.661px" style="font-family:'Nunito-Bold', 'Nunito';font-weight:700;font-size:16px;fill:white;">VISUALIZE</text>
                <text x="366.623px" y="378.328px" style="font-family:'Nunito-Bold', 'Nunito';font-weight:700;font-size:16px;fill:white;">D<tspan x="378.015px " y="378.328px ">Y</tspan>NAMIC<tspan x="440.399px " y="378.328px ">A</tspan>LL<tspan x="468.063px " y="378.328px ">Y</tspan></text>
            </g>
        </g>
    </g>
</svg>
