<?xml version="1.0" encoding="UTF-8" standalone="no"?>
<!DOCTYPE svg PUBLIC "-//W3C//DTD SVG 1.1//EN" "http://www.w3.org/Graphics/SVG/1.1/DTD/svg11.dtd">
<svg width="100%" height="100%" viewBox="0 0 223 143" version="1.1" xmlns="http://www.w3.org/2000/svg" xmlns:xlink="http://www.w3.org/1999/xlink" xml:space="preserve" xmlns:serif="http://www.serif.com/" style="fill-rule:evenodd;clip-rule:evenodd;stroke-linejoin:round;stroke-miterlimit:1.41421;">
    <g transform="matrix(1,0,0,1,-765,-458)">
        <g transform="matrix(1,0,0,1,-2.35829,-0.155789)">
            <g transform="matrix(1.00655,0,0,1.01873,-6.48377,-11.2568)">
                <path d="M989.371,470.457C989.371,465.217 985.065,460.962 979.761,460.962L779.058,460.962C773.755,460.962 769.449,465.217 769.449,470.457L769.449,591.661C769.449,596.901 773.755,601.156 779.058,601.156L979.761,601.156C985.065,601.156 989.371,596.901 989.371,591.661L989.371,470.457Z" style="fill:rgb(104,105,107);"/>
            </g>
            <g transform="matrix(0.212432,0,0,0.212432,898.789,476.919)">
                <path d="M113.515,0L6.493,0C2.908,0 0,2.896 0,6.486L0,113.497C0,117.079 2.908,120 6.493,120L113.515,120C117.093,120 120,117.079 120,113.497L120,6.486C120,2.896 117.093,0 113.515,0Z" style="fill:rgb(255,233,130);"/>
            </g>
            <g transform="matrix(0.212432,0,0,0.212432,833.098,476.919)">
                <path d="M113.515,0L6.493,0C2.908,0 0,2.896 0,6.486L0,113.497C0,117.079 2.908,120 6.493,120L113.515,120C117.093,120 120,117.079 120,113.497L120,6.486C120,2.896 117.093,0 113.515,0Z" style="fill:rgb(255,233,130);"/>
            </g>
            <g transform="matrix(0.212432,0,0,0.212432,898.789,520.822)">
                <path d="M113.515,0L6.493,0C2.908,0 0,2.896 0,6.486L0,113.497C0,117.079 2.908,120 6.493,120L113.515,120C117.093,120 120,117.079 120,113.497L120,6.486C120,2.896 117.093,0 113.515,0Z" style="fill:rgb(255,233,130);"/>
            </g>
            <g transform="matrix(0.212432,0,0,0.212432,833.098,520.822)">
                <path d="M113.515,0L6.493,0C2.908,0 0,2.896 0,6.486L0,113.497C0,117.079 2.908,120 6.493,120L113.515,120C117.093,120 120,117.079 120,113.497L120,6.486C120,2.896 117.093,0 113.515,0Z" style="fill:rgb(255,233,130);"/>
            </g>
        </g>
    </g>
</svg>
