<?xml version="1.0" encoding="UTF-8" standalone="no"?>
<!DOCTYPE svg PUBLIC "-//W3C//DTD SVG 1.1//EN" "http://www.w3.org/Graphics/SVG/1.1/DTD/svg11.dtd">
<svg width="100%" height="100%" viewBox="0 0 96 112" version="1.1" xmlns="http://www.w3.org/2000/svg" xmlns:xlink="http://www.w3.org/1999/xlink" xml:space="preserve" xmlns:serif="http://www.serif.com/" style="fill-rule:evenodd;clip-rule:evenodd;">
    <g transform="matrix(1,0,0,1,-1,-252)">
        <g id="Group-2">
            <path id="Rectangle-2-Copy-6" d="M96.5,255.5C96.5,253.844 95.156,252.5 93.5,252.5L4.5,252.5C2.844,252.5 1.5,253.844 1.5,255.5L1.5,344.5C1.5,346.156 2.844,347.5 4.5,347.5L93.5,347.5C95.156,347.5 96.5,346.156 96.5,344.5L96.5,255.5Z" style="fill:none;stroke:rgb(255,121,26);stroke-width:1px;"/>
            <g transform="matrix(1,0,0,1,21.0257,361.569)">
                <g id="Licensing">
                    <text x="0px" y="0px" style="font-family:'Nunito-Regular', 'Nunito';font-size:13px;fill:rgb(115,115,115);">L<tspan x="7.15px 10.295px 16.652px 23.632px 31.146px 37.515px 40.661px 48.175px " y="0px 0px 0px 0px 0px 0px 0px 0px ">icensing</tspan></text>
                </g>
            </g>
            <g id="Icon_Service_Licensing_Color" transform="matrix(1,0,0,1,24,275)">
                <g id="Group">
                    <g opacity="0">
                        <rect id="path-1" x="0" y="0" width="50" height="50" style="fill:rgb(216,216,216);"/>
                        <rect id="Rectangle-path" x="0.071" y="0.071" width="49.857" height="49.857" style="fill:none;stroke:rgb(151,151,151);stroke-width:0.68px;"/>
                    </g>
                </g>
                <g id="Fill-1" transform="matrix(1,0,0,1,0,19)">
                    <path d="M41.78,20.91L41.767,20.91L9.355,20.91C8.876,20.881 8.506,20.529 8.506,20.106C8.506,19.684 8.876,19.332 9.355,19.304L41.78,19.304C42.257,19.332 42.628,19.684 42.628,20.106C42.628,20.529 42.257,20.881 41.78,20.91M41.78,24.129L41.767,24.129L9.355,24.129C8.876,24.098 8.506,23.748 8.506,23.324C8.506,22.901 8.876,22.551 9.355,22.521L41.78,22.521C42.257,22.551 42.628,22.901 42.628,23.324C42.628,23.748 42.257,24.098 41.78,24.129M48.39,0.003L39.357,0.003C39.532,0.947 39.463,1.866 38.947,2.766C38.402,3.711 37.59,4.247 36.625,4.565C36.301,4.672 36.043,4.736 35.675,4.804L35.675,17.391L25.45,11.652L15.227,17.391L15.227,4.756C14.778,4.681 14.496,4.616 14.129,4.496C13.154,4.176 12.335,3.63 11.792,2.671C11.299,1.799 11.227,0.911 11.385,0.003L1.676,0.003C0.87,0.003 0.216,0.652 0.216,1.45L0.216,27.504C0.216,28.303 0.87,28.951 1.676,28.951L48.39,28.951C49.197,28.951 49.85,28.303 49.85,27.504L49.85,1.45C49.85,0.652 49.197,0.003 48.39,0.003" style="fill:rgb(128,128,138);"/>
                </g>
                <g id="Group-6" transform="matrix(1,0,0,1,25,19)">
                    <path id="Fill-4" d="M23.341,0L14.229,0C14.405,0.944 14.336,1.863 13.813,2.764C13.264,3.709 12.446,4.245 11.472,4.563C11.146,4.67 10.886,4.734 10.514,4.8L10.514,17.39L0.2,11.65L0.122,11.695L0.122,19.302L16.673,19.302C17.155,19.331 17.529,19.683 17.529,20.106C17.529,20.528 17.155,20.88 16.673,20.909L16.66,20.909L0.122,20.909L0.122,22.52L16.673,22.52C17.155,22.551 17.529,22.901 17.529,23.324C17.529,23.748 17.155,24.098 16.673,24.127L16.66,24.127L0.122,24.127L0.122,28.952L23.341,28.952C24.155,28.952 24.814,28.303 24.814,27.504L24.814,1.448C24.814,0.649 24.155,0 23.341,0" style="fill:rgb(83,83,90);"/>
                    <path id="Fill-41" d="M23.341,0L14.229,0C14.405,0.944 14.336,1.863 13.813,2.764C13.264,3.709 12.446,4.245 11.472,4.563C11.146,4.67 10.886,4.734 10.514,4.8L10.514,17.39L0.2,11.65L0.122,11.695L0.122,19.302L16.673,19.302C17.155,19.331 17.529,19.683 17.529,20.106C17.529,20.528 17.155,20.88 16.673,20.909L16.66,20.909L0.122,20.909L0.122,22.52L16.673,22.52C17.155,22.551 17.529,22.901 17.529,23.324C17.529,23.748 17.155,24.098 16.673,24.127L16.66,24.127L0.122,24.127L0.122,28.952L23.341,28.952C24.155,28.952 24.814,28.303 24.814,27.504L24.814,1.448C24.814,0.649 24.155,0 23.341,0" style="fill:rgb(83,83,90);"/>
                </g>
                <g id="Shape" transform="matrix(1,0,0,1,13,1)">
                    <path d="M19.737,20.583L19.737,30L12.575,25.926L5.413,30L5.413,20.983C5.332,20.64 5.215,20.337 5.024,20.141C4.313,19.414 2.178,19.793 1.68,18.899C1.181,18.006 2.558,16.34 2.286,15.34C2.012,14.341 0,13.63 0,12.569C0,11.509 2.028,10.767 2.286,9.813L2.286,9.737C2.542,8.738 1.181,7.057 1.68,6.178C2.178,5.301 4.313,5.649 5.024,4.937C5.735,4.225 5.372,2.059 6.25,1.545C7.128,1.03 8.776,2.423 9.761,2.166C10.744,1.908 11.472,0 12.499,0C13.53,0 14.286,2.043 15.239,2.302C16.192,2.56 17.887,1.181 18.751,1.681C19.613,2.182 19.265,4.346 19.976,5.074C20.686,5.8 22.82,5.436 23.32,6.315C23.821,7.193 22.442,8.874 22.714,9.874C22.988,10.874 25,11.6 25,12.645C25,13.691 22.972,14.447 22.714,15.416C22.457,16.386 23.821,18.097 23.32,18.976C22.82,19.854 20.686,19.505 19.976,20.217C19.879,20.315 19.802,20.44 19.737,20.583ZM12.76,18.794C12.76,18.794 7.662,15.458 10.304,13.296C13.01,11.082 20.499,10.115 20.499,10.115C20.499,10.115 17.329,9.716 14.736,9.641C9.923,9.501 5.218,10.299 6.487,13.795C7.62,16.917 12.76,18.794 12.76,18.794Z" style="fill:rgb(255,141,32);"/>
                </g>
                <g id="Shape1" serif:id="Shape" transform="matrix(1,0,0,1,25,1)">
                    <path d="M0,18.719C0.127,18.767 0.198,18.792 0.198,18.792C0.198,18.792 0.125,18.746 0,18.662L0,12.044C3.446,10.711 8.292,10.113 8.292,10.113C8.292,10.113 4.976,9.713 2.264,9.638C1.499,9.617 0.738,9.617 0,9.645L0,0C1.039,0.091 1.816,2.047 2.79,2.298C3.787,2.556 5.56,1.178 6.463,1.679C7.365,2.178 7.001,4.343 7.746,5.07C8.488,5.798 10.72,5.434 11.243,6.312C11.765,7.191 10.323,8.871 10.609,9.871C10.894,10.872 13,11.598 13,12.644C13,13.688 10.879,14.444 10.609,15.415C10.34,16.384 11.765,18.096 11.243,18.973C10.72,19.852 8.488,19.504 7.746,20.216C7.642,20.313 7.563,20.437 7.495,20.583L7.495,30L0.004,25.926L0,25.928L0,18.719Z" style="fill:rgb(255,108,12);"/>
                </g>
            </g>
        </g>
    </g>
</svg>
