<?xml version="1.0" encoding="UTF-8" standalone="no"?>
<!DOCTYPE svg PUBLIC "-//W3C//DTD SVG 1.1//EN" "http://www.w3.org/Graphics/SVG/1.1/DTD/svg11.dtd">
<svg width="100%" height="100%" viewBox="0 0 96 111" version="1.1" xmlns="http://www.w3.org/2000/svg" xmlns:xlink="http://www.w3.org/1999/xlink" xml:space="preserve" xmlns:serif="http://www.serif.com/" style="fill-rule:evenodd;clip-rule:evenodd;">
    <g transform="matrix(1,0,0,1,-1,-126)">
        <g id="Group-2">
            <path id="Rectangle-2-Copy-5" d="M96.5,129.5C96.5,127.844 95.156,126.5 93.5,126.5L4.5,126.5C2.844,126.5 1.5,127.844 1.5,129.5L1.5,218.5C1.5,220.156 2.844,221.5 4.5,221.5L93.5,221.5C95.156,221.5 96.5,220.156 96.5,218.5L96.5,129.5Z" style="fill:none;stroke:rgb(255,121,26);stroke-width:1px;"/>
            <g transform="matrix(1,0,0,1,6.30432,235)">
                <g id="Capture-Client">
                    <text x="0px" y="0px" style="font-family:'Nunito-Regular', 'Nunito';font-size:13px;fill:rgb(115,115,115);">Ca<tspan x="15.82px 23.503px 28.052px 35.475px 40.063px 47.044px 50.528px 59.458px 62.604px 65.749px 72.73px 80.243px " y="0px 0px 0px 0px 0px 0px 0px 0px 0px 0px 0px 0px ">pture Client</tspan></text>
                </g>
            </g>
            <g id="Icon_Service_CaptureClient_Color" transform="matrix(1,0,0,1,24,149)">
                <g id="Group">
                    <g opacity="0">
                        <rect id="path-1" x="0" y="0" width="50" height="50" style="fill:rgb(216,216,216);"/>
                        <rect id="Rectangle-path" x="0.071" y="0.071" width="49.857" height="49.857" style="fill:none;stroke:rgb(151,151,151);stroke-width:0.68px;"/>
                    </g>
                </g>
                <path id="Shape" d="M41.893,19.473C42.093,15.728 41.665,13.114 41.621,12.537C41.487,10.828 40.843,8.72 37.352,8.211C26.41,6.614 21.422,6.644 12.99,8.214C10.898,8.604 10.164,9.477 9.851,12.017C9.739,12.928 9.176,15.948 9.424,20.106C5.863,21.869 4.166,24.751 5.668,29.207C7.315,34.093 12.719,37.884 17.499,40.235C19.654,42.815 22.358,45.364 25.743,47.781C37.573,39.356 40.944,28.819 41.734,21.448C44.626,20.92 46.539,20.671 46.539,20.671C46.539,20.671 44.899,20.107 41.893,19.473ZM25,50C11.193,50 0,38.807 0,25C0,11.193 11.193,0 25,0C38.807,0 50,11.193 50,25C50,38.807 38.807,50 25,50Z" style="fill:rgb(115,115,115);"/>
                <g id="Shape1" serif:id="Shape" transform="matrix(1,0,0,1,25.4237,10.1852)">
                    <path d="M14.266,9.245C11.881,8.818 8.929,8.412 5.487,8.17C3.758,8.048 2.034,7.968 0.345,7.938L0.345,0.163C-0.189,0.163 0.618,0.158 0.511,0.158C1.32,0.141 4.954,0.092 8.481,0.516C9.719,0.658 10.946,0.853 12.039,1.13C12.039,1.13 13.583,1.527 13.856,3.098C13.969,3.695 14.087,4.456 14.172,5.347C14.278,6.451 14.342,7.768 14.266,9.245Z" style="fill:rgb(83,83,90);fill-rule:nonzero;"/>
                </g>
                <g id="Shape2" serif:id="Shape" transform="matrix(1,0,0,1,25.4237,22.2222)">
                    <path d="M0.245,3.606C3.864,2.234 7.831,1.172 11.285,0.393C12.098,0.241 12.837,0.112 13.474,0.005C12.716,5.936 10.042,13.607 2.495,20.977C1.763,21.688 0.995,22.399 0.174,23.099L0.148,22.959L0.245,3.606Z" style="fill:rgb(83,83,90);fill-rule:nonzero;"/>
                </g>
                <g id="Shape3" serif:id="Shape" transform="matrix(1,0,0,1,11.8644,10.1852)">
                    <path d="M0.068,9.24C0.013,7.731 0.073,6.394 0.174,5.275C0.257,4.386 0.371,3.636 0.479,3.042C0.748,1.494 2.232,1.103 2.232,1.103C3.291,0.83 4.48,0.632 5.679,0.492C9.096,0.091 12.59,0.139 13.371,0.155C13.474,0.16 13.531,0.16 13.531,0.16L13.492,7.828C8.418,7.718 3.657,8.087 0.068,9.24Z" style="fill:rgb(128,128,138);fill-rule:nonzero;"/>
                </g>
                <g id="Shape4" serif:id="Shape" transform="matrix(1,0,0,1,16.9492,25)">
                    <path d="M9.282,0.159L9.188,19.258L9.188,19.396C8.311,18.7 7.484,18.003 6.707,17.301C6.471,17.088 6.24,16.876 6.015,16.663L6.009,16.663C5.227,15.934 4.513,15.217 3.877,14.525C2.892,13.467 2.088,12.483 1.452,11.654C1.427,11.622 1.403,11.59 1.379,11.558C-1.086,6.721 0.348,4.35 3.065,2.851C4.887,1.846 7.021,0.95 9.282,0.159Z" style="fill:rgb(128,128,138);fill-rule:nonzero;"/>
                </g>
                <g id="Shape5" serif:id="Shape" transform="matrix(1,0,0,1,6.77966,18.5185)">
                    <path d="M10.868,18.242C8.302,15.489 6.25,11.812 9.672,8.978C16.094,3.662 33.855,1.338 33.855,1.338C33.855,1.338 26.334,0.377 20.182,0.197C8.768,-0.134 -2.393,1.778 0.617,10.173C2.558,15.592 9.466,19.447 13.147,21.168C12.222,20.093 11.465,19.089 10.868,18.242Z" style="fill:rgb(255,108,12);fill-rule:nonzero;"/>
                </g>
            </g>
        </g>
    </g>
</svg>
