<?xml version="1.0" encoding="UTF-8" standalone="no"?>
<!DOCTYPE svg PUBLIC "-//W3C//DTD SVG 1.1//EN" "http://www.w3.org/Graphics/SVG/1.1/DTD/svg11.dtd">
<svg width="100%" height="100%" viewBox="0 0 96 114" version="1.1" xmlns="http://www.w3.org/2000/svg" xmlns:xlink="http://www.w3.org/1999/xlink" xml:space="preserve" xmlns:serif="http://www.serif.com/" style="fill-rule:evenodd;clip-rule:evenodd;">
    <g transform="matrix(1,0,0,1,-1,0)">
        <g id="Group-2">
            <g id="Icon_Service_FWManagement_Color" transform="matrix(1,0,0,1,24,23)">
                <path id="Firewall" d="M30.222,38.768C30.418,37.237 30.475,35.678 30.378,34.1C30.292,32.705 30.084,31.354 29.783,30.032L47.292,30.032C48.065,30.032 48.696,30.809 48.696,31.757L48.696,37.044C48.696,37.992 48.065,38.768 47.292,38.768L30.222,38.768ZM48.493,41.264C49.3,41.264 49.956,42.04 49.956,42.988L49.956,48.275C49.956,49.223 49.299,50 48.493,50L38.812,50C38.006,50 37.348,49.223 37.348,48.275L37.348,42.988C37.348,42.04 38.006,41.264 38.812,41.264L48.493,41.264ZM33.415,41.264C34.19,41.264 34.826,42.04 34.826,42.988L34.826,48.275C34.826,49.223 34.191,50 33.415,50L26,50C28.032,47.573 29.548,44.566 30.386,41.264L33.415,41.264ZM48.537,19C49.344,19 50,19.776 50,20.724L50,26.011C50,26.959 49.343,27.736 48.537,27.736L38.856,27.736C38.05,27.736 37.391,26.959 37.391,26.011L37.391,20.724C37.391,19.776 38.05,19 38.856,19L48.537,19Z" style="fill:rgb(83,83,90);fill-rule:nonzero;"/>
                <rect id="Rectangle-path" x="0" y="0" width="50" height="50" style="fill:none;"/>
                <path id="Fill-1" d="M36.397,28C36.397,28 27.361,24.725 25.369,19.276C23.138,13.176 31.409,11.783 39.869,12.026C44.428,12.157 50,12.855 50,12.855C50,12.855 36.836,14.542 32.079,18.406C27.434,22.179 36.397,28 36.397,28" style="fill:rgb(255,108,11);fill-rule:nonzero;"/>
                <path id="Shape" d="M26.961,34.467C26.733,30.846 25.48,27.61 23.576,25.093C20.532,21.065 18.512,15.066 18.145,9.279C17.651,12.994 15.43,16.352 15.709,20.011C15.137,12.616 13.018,5.804 9.765,0C9.937,1.059 10.057,2.138 10.126,3.243C10.663,11.617 7.765,19.313 3.378,25.156C1.056,28.247 -0.244,32.398 0.038,36.832C0.412,42.71 3.471,47.581 7.691,49.952C7.212,48.821 6.936,47.55 6.977,46.189C7.045,43.984 7.883,42.02 9.174,40.641C11.583,38.079 13.353,34.524 13.521,30.42C13.521,30.361 13.511,30.309 13.511,30.253L13.534,30.253C13.534,30.309 13.524,30.361 13.521,30.42C13.663,34.527 15.403,38.097 17.799,40.686C19.083,42.078 19.904,44.043 19.953,46.258C19.989,47.605 19.701,48.872 19.216,50C24.146,47.288 27.394,41.216 26.961,34.467Z" style="fill:rgb(255,141,32);fill-rule:nonzero;"/>
                <path id="Combined-Shape" d="M13,30.269L13,29.998C13.003,29.969 13.006,29.941 13.006,29.911L13,29.911L13,8C14.087,11.617 14.809,15.469 15.104,19.491C14.835,15.768 16.978,12.352 17.455,8.573C17.809,14.46 19.759,20.563 22.696,24.661C24.533,27.222 25.742,30.513 25.963,34.198C26.381,41.064 23.246,47.241 18.488,50C18.956,48.852 19.234,47.563 19.2,46.193C19.153,43.939 18.36,41.94 17.121,40.524C14.844,37.93 13.18,34.368 13,30.269L13,30.269Z" style="fill:rgb(255,108,11);fill-rule:nonzero;"/>
            </g>
            <path id="Rectangle-2" d="M96.5,3.5C96.5,1.844 95.156,0.5 93.5,0.5L4.5,0.5C2.844,0.5 1.5,1.844 1.5,3.5L1.5,92.5C1.5,94.156 2.844,95.5 4.5,95.5L93.5,95.5C95.156,95.5 96.5,94.156 96.5,92.5L96.5,3.5Z" style="fill:none;stroke:rgb(255,121,26);stroke-width:1px;"/>
            <g transform="matrix(1,0,0,1,9.73545,109)">
                <g id="Management">
                    <text x="0px" y="0px" style="font-family:'Nunito-Regular', 'Nunito';font-size:13px;fill:rgb(115,115,115);">M<tspan x="11.063px 18.082px 25.596px 32.615px 40.363px 47.343px 58.549px 65.53px 73.043px " y="0px 0px 0px 0px 0px 0px 0px 0px 0px ">anagement</tspan></text>
                </g>
            </g>
        </g>
    </g>
</svg>
