<?xml version="1.0" encoding="UTF-8" standalone="no"?>
<!DOCTYPE svg PUBLIC "-//W3C//DTD SVG 1.1//EN" "http://www.w3.org/Graphics/SVG/1.1/DTD/svg11.dtd">
<svg width="100%" height="100%" viewBox="0 0 443 291" version="1.1" xmlns="http://www.w3.org/2000/svg" xmlns:xlink="http://www.w3.org/1999/xlink" xml:space="preserve" xmlns:serif="http://www.serif.com/" style="fill-rule:evenodd;clip-rule:evenodd;stroke-linejoin:round;stroke-miterlimit:1.41421;">
    <g transform="matrix(1,0,0,1,-226,-129)">
        <g id="Text-boxes" serif:id="Text boxes">
            <g transform="matrix(1,0,0,1,-332.42,-535.109)">
                <text x="656.997px" y="685.687px" style="font-family:'Nunito-Regular', 'Nunito';font-size:30px;fill:white;">Network anti-<tspan x="842.727px " y="685.687px ">v</tspan>irus</text>
                <text x="675.687px" y="733.687px" style="font-family:'Nunito-Regular', 'Nunito';font-size:30px;fill:white;">Cloud anti-<tspan x="824.037px " y="733.687px ">v</tspan>irus</text>
                <text x="682.137px" y="781.687px" style="font-family:'Nunito-Regular', 'Nunito';font-size:30px;fill:white;">Botne<tspan x="761.937px " y="781.687px ">t</tspan> ﬁltering</text>
            </g>
            <g transform="matrix(1,0,0,1,-331.94,-357.726)">
                <text x="697.887px" y="685.687px" style="font-family:'Nunito-Regular', 'Nunito';font-size:30px;fill:white;">URL ﬁltering</text>
            </g>
            <g transform="matrix(1,0,0,1,-332.045,-271.818)">
                <text x="648.237px" y="685.687px" style="font-family:'Nunito-Regular', 'Nunito';font-size:30px;fill:white;">Intrusion pr<tspan x="801.117px 816.747px 831.987px " y="685.687px 685.687px 685.687px ">eve</tspan>ntion</text>
            </g>
            <g transform="matrix(6.12323e-17,-1,1,6.12323e-17,-437.953,1056.83)">
                <text x="680.067px" y="685.687px" style="font-family:'Nunito-Regular', 'Nunito';font-size:30px;fill:white;">SSL decr<tspan x="800.157px " y="685.687px ">y</tspan>ption</text>
            </g>
            <g transform="matrix(6.12323e-17,-1,1,6.12323e-17,-17.7833,1063.95)">
                <text x="722.832px" y="685.687px" style="font-family:'Nunito-Regular', 'Nunito';font-size:30px;fill:white;">Sandbo<tspan x="825.552px " y="685.687px ">x</tspan></text>
            </g>
        </g>
    </g>
</svg>
