<?xml version="1.0" encoding="UTF-8" standalone="no"?>
<!DOCTYPE svg PUBLIC "-//W3C//DTD SVG 1.1//EN" "http://www.w3.org/Graphics/SVG/1.1/DTD/svg11.dtd">
<svg width="100%" height="100%" viewBox="0 0 1280 350" version="1.1" xmlns="http://www.w3.org/2000/svg" xmlns:xlink="http://www.w3.org/1999/xlink" xml:space="preserve" xmlns:serif="http://www.serif.com/" style="fill-rule:evenodd;clip-rule:evenodd;stroke-linecap:round;stroke-linejoin:round;stroke-miterlimit:1.5;">
    <g>
        <g id="Left-box" serif:id="Left box" transform="matrix(1,0,0,1.02638,0,-1.03098)">
            <path d="M416.158,42.008C416.158,41.233 415.842,40.49 415.28,39.941C414.717,39.393 413.954,39.085 413.158,39.085C379.584,39.085 74.868,39.085 41.294,39.085C40.498,39.085 39.735,39.393 39.172,39.941C38.61,40.49 38.294,41.233 38.294,42.008C38.294,70.569 38.294,298.81 38.294,298.81L416.158,298.81C416.158,298.81 416.158,70.569 416.158,42.008Z" style="fill:none;stroke:rgb(210,208,210);stroke-width:0.99px;"/>
        </g>
        <g transform="matrix(1,0,0,1,25.6377,117.564)">
            <text x="54.102px" y="98.907px" style="font-family:'Nunito-Regular', 'Nunito';font-size:18px;fill:rgb(99,101,106);">Automate and corr<tspan x="204.546px " y="98.907px ">e</tspan>late w<tspan x="263.046px " y="98.907px ">o</tspan>rkﬂo<tspan x="308.352px 323.346px " y="98.907px 98.907px ">ws</tspan></text>
            <text x="54.102px" y="120.907px" style="font-family:'Nunito-Regular', 'Nunito';font-size:18px;fill:rgb(99,101,106);">to form a fully coor<tspan x="204.204px " y="120.907px ">d</tspan>inated securit<tspan x="322.95px " y="120.907px ">y</tspan></text>
            <text x="54.102px" y="142.907px" style="font-family:'Nunito-Regular', 'Nunito';font-size:18px;fill:rgb(99,101,106);">go<tspan x="74.532px 83.676px " y="142.907px 142.907px ">ve</tspan>rnance, compliance and risk</text>
            <text x="54.102px" y="164.907px" style="font-family:'Nunito-Regular', 'Nunito';font-size:18px;fill:rgb(99,101,106);">management str<tspan x="185.538px " y="164.907px ">a</tspan>tegy</text>
        </g>
        <g transform="matrix(1,0,0,1,25.6377,15.4846)">
            <text x="54.102px" y="98.907px" style="font-family:'Nunito-Regular', 'Nunito';font-size:18px;fill:rgb(99,101,106);">Establish an eas<tspan x="183.036px " y="98.907px ">y</tspan> path to compr<tspan x="309.288px " y="98.907px ">e</tspan>hensiv<tspan x="370.668px " y="98.907px ">e</tspan></text>
            <text x="54.102px" y="120.907px" style="font-family:'Nunito-Regular', 'Nunito';font-size:18px;fill:rgb(99,101,106);">securit<tspan x="107.706px " y="120.907px ">y</tspan> management<tspan x="227.694px " y="120.907px ">,</tspan> analy<tspan x="279.39px " y="120.907px ">t</tspan>ic r<tspan x="309.126px " y="120.907px ">e</tspan>por<tspan x="346.134px " y="120.907px ">t</tspan>ing</text>
            <text x="54.102px" y="142.907px" style="font-family:'Nunito-Regular', 'Nunito';font-size:18px;fill:rgb(99,101,106);">and compliance to unif<tspan x="235.686px " y="142.907px ">y</tspan> y<tspan x="258.726px " y="142.907px ">o</tspan>ur network</text>
            <text x="54.102px" y="164.907px" style="font-family:'Nunito-Regular', 'Nunito';font-size:18px;fill:rgb(99,101,106);">securit<tspan x="107.706px " y="164.907px ">y</tspan> def<tspan x="147.36px " y="164.907px ">e</tspan>nse pr<tspan x="206.49px " y="164.907px ">o</tspan>gram</text>
        </g>
        <path d="M416.158,41.725C416.158,40.068 414.815,38.725 413.158,38.725C379.552,38.725 74.269,38.725 40.662,38.725C39.005,38.725 37.662,40.068 37.662,41.725C37.662,51.339 37.662,80.756 37.662,80.756L416.158,80.756C416.158,80.756 416.158,51.339 416.158,41.725Z" style="fill:rgb(253,152,63);"/>
        <g transform="matrix(0.944688,0,0,1,-1.27559,1.67219)">
            <text x="52.312px" y="69.059px" style="font-family:'Nunito-Regular', 'Nunito';font-size:27.684px;fill:white;">GO<tspan x="93.063px " y="69.059px ">V</tspan>ERNS CENTR<tspan x="282.67px " y="69.059px ">A</tspan>LL<tspan x="329.345px " y="69.059px ">Y</tspan></text>
        </g>
    </g>
    <g>
        <g id="Middle-box" serif:id="Middle box" transform="matrix(1,0,0,1.02638,418.886,-1.03098)">
            <path d="M416.158,42.008C416.158,41.233 415.842,40.49 415.28,39.941C414.717,39.393 413.954,39.085 413.158,39.085C379.584,39.085 74.868,39.085 41.294,39.085C40.498,39.085 39.735,39.393 39.172,39.941C38.61,40.49 38.294,41.233 38.294,42.008C38.294,70.569 38.294,298.81 38.294,298.81L416.158,298.81C416.158,298.81 416.158,70.569 416.158,42.008Z" style="fill:none;stroke:rgb(210,208,210);stroke-width:0.99px;"/>
        </g>
        <g transform="matrix(1,0,0,1,443.529,93.564)">
            <text x="54.102px" y="98.907px" style="font-family:'Nunito-Regular', 'Nunito';font-size:18px;fill:rgb(99,101,106);">C<tspan x="66.108px " y="98.907px ">u</tspan>stomiz<tspan x="129.234px " y="98.907px ">e</tspan> any combination of security</text>
            <text x="54.102px" y="120.907px" style="font-family:'Nunito-Regular', 'Nunito';font-size:18px;fill:rgb(99,101,106);">auditable data to help y<tspan x="242.058px " y="120.907px ">o</tspan>u mo<tspan x="292.008px 301.152px " y="120.907px 120.907px ">ve</tspan> to<tspan x="331.284px 346.278px 355.818px 361.992px " y="120.907px 120.907px 120.907px 120.907px ">ward</tspan>s</text>
            <text x="54.102px" y="142.907px" style="font-family:'Nunito-Regular', 'Nunito';font-size:18px;fill:rgb(99,101,106);">speciﬁc compliance r<tspan x="220.296px " y="142.907px ">e</tspan>gulations</text>
        </g>
        <g transform="matrix(1,0,0,1,443.529,15.4846)">
            <text x="54.102px" y="98.907px" style="font-family:'Nunito-Regular', 'Nunito';font-size:18px;fill:rgb(99,101,106);">Helps mak<tspan x="138.882px " y="98.907px ">e</tspan> r<tspan x="159.186px " y="98.907px ">e</tspan>gulator<tspan x="226.038px " y="98.907px ">y</tspan> bodies and</text>
            <text x="54.102px" y="120.907px" style="font-family:'Nunito-Regular', 'Nunito';font-size:18px;fill:rgb(99,101,106);">auditors happ<tspan x="164.658px " y="120.907px ">y</tspan> with automatic P<tspan x="314.544px " y="120.907px ">C</tspan>I,</text>
            <text x="54.102px" y="142.907px" style="font-family:'Nunito-Regular', 'Nunito';font-size:18px;fill:rgb(99,101,106);">HIP<tspan x="82.614px " y="142.907px ">A</tspan>A and SO<tspan x="172.722px " y="142.907px ">X</tspan> securit<tspan x="242.598px " y="142.907px ">y</tspan> r<tspan x="262.668px " y="142.907px ">e</tspan>por<tspan x="299.676px " y="142.907px ">t</tspan>s</text>
        </g>
        <g transform="matrix(1,0,0,1,418.78,0)">
            <path d="M416.158,41.725C416.158,40.068 414.815,38.725 413.158,38.725C379.552,38.725 74.269,38.725 40.662,38.725C39.005,38.725 37.662,40.068 37.662,41.725C37.662,51.339 37.662,80.756 37.662,80.756L416.158,80.756C416.158,80.756 416.158,51.339 416.158,41.725Z" style="fill:rgb(61,166,229);"/>
        </g>
        <g transform="matrix(0.944688,0,0,1,417.61,1.67219)">
            <text x="52.312px" y="69.059px" style="font-family:'Nunito-Regular', 'Nunito';font-size:27.684px;fill:white;">C<tspan x="70.75px " y="69.059px ">O</tspan>MPLIANCE</text>
        </g>
    </g>
    <g>
        <g id="Middle-box1" serif:id="Middle box" transform="matrix(1,0,0,1.02638,837.778,-1.03098)">
            <path d="M416.158,42.008C416.158,41.233 415.842,40.49 415.28,39.941C414.717,39.393 413.954,39.085 413.158,39.085C379.584,39.085 74.868,39.085 41.294,39.085C40.498,39.085 39.735,39.393 39.172,39.941C38.61,40.49 38.294,41.233 38.294,42.008C38.294,70.569 38.294,298.81 38.294,298.81L416.158,298.81C416.158,298.81 416.158,70.569 416.158,42.008Z" style="fill:none;stroke:rgb(210,208,210);stroke-width:0.99px;"/>
        </g>
        <g transform="matrix(1,0,0,1,862.97,94.564)">
            <text x="54.102px" y="98.907px" style="font-family:'Nunito-Regular', 'Nunito';font-size:18px;fill:rgb(99,101,106);">Mak<tspan x="87.618px " y="98.907px ">e</tspan> informed security policy decisions</text>
            <text x="54.102px" y="120.907px" style="font-family:'Nunito-Regular', 'Nunito';font-size:18px;fill:rgb(99,101,106);">based on time<tspan x="167.538px 175.458px " y="120.907px 120.907px ">-c</tspan>ritical and consolidated</text>
            <text x="54.102px" y="142.907px" style="font-family:'Nunito-Regular', 'Nunito';font-size:18px;fill:rgb(99,101,106);">thr<tspan x="76.62px " y="142.907px ">e</tspan>at information f<tspan x="208.812px " y="142.907px ">o</tspan>r higher le<tspan x="299.01px 308.154px " y="142.907px 142.907px ">ve</tspan>l of</text>
            <text x="54.102px" y="164.907px" style="font-family:'Nunito-Regular', 'Nunito';font-size:18px;fill:rgb(99,101,106);">securit<tspan x="107.706px " y="164.907px ">y</tspan> efﬁciency</text>
        </g>
        <g transform="matrix(1,0,0,1,862.97,15.4846)">
            <text x="54.102px" y="98.907px" style="font-family:'Nunito-Regular', 'Nunito';font-size:18px;fill:rgb(99,101,106);">Mo<tspan x="79.122px 88.266px " y="98.907px 98.907px ">ve</tspan> fas<tspan x="126.3px " y="98.907px ">t</tspan> and driv<tspan x="202.098px " y="98.907px ">e</tspan> collaboration,</text>
            <text x="54.102px" y="120.907px" style="font-family:'Nunito-Regular', 'Nunito';font-size:18px;fill:rgb(99,101,106);">communication and kno<tspan x="245.19px " y="120.907px ">w</tspan>ledge acr<tspan x="333.498px " y="120.907px ">o</tspan>ss</text>
            <text x="54.102px" y="142.907px" style="font-family:'Nunito-Regular', 'Nunito';font-size:18px;fill:rgb(99,101,106);">the shar<tspan x="119.154px " y="142.907px ">e</tspan>d securit<tspan x="197.364px " y="142.907px ">y</tspan> frame<tspan x="257.7px 272.748px " y="142.907px 142.907px ">wo</tspan>rk</text>
        </g>
        <g transform="matrix(1,0,0,1,838.418,0)">
            <path d="M416.158,41.725C416.158,40.068 414.815,38.725 413.158,38.725C379.552,38.725 74.269,38.725 40.662,38.725C39.005,38.725 37.662,40.068 37.662,41.725C37.662,51.339 37.662,80.756 37.662,80.756L416.158,80.756C416.158,80.756 416.158,51.339 416.158,41.725Z" style="fill:rgb(179,214,101);"/>
        </g>
        <g id="_-RISK-MANAGEMENT-" serif:id="(RISK MANAGEMENT)" transform="matrix(0.944688,0,0,1,836.502,1.67219)">
            <text x="52.312px" y="69.059px" style="font-family:'Nunito-Regular', 'Nunito';font-size:27.684px;fill:white;">RISK MANA<tspan x="203.328px " y="69.059px ">G</tspan>EMENT</text>
        </g>
    </g>
    <g>
        <g transform="matrix(0.370394,0,0,0.370394,-54.7978,89.7962)">
            <path d="M315.067,72C315.067,72 292.271,63.793 287.244,50.135C281.616,34.846 302.483,31.356 323.826,31.964C335.328,32.291 349.386,34.041 349.386,34.041C349.386,34.041 316.175,38.269 304.174,47.954C292.455,57.411 315.067,72 315.067,72Z" style="fill:rgb(243,109,36);fill-rule:nonzero;"/>
        </g>
        <g transform="matrix(0.370394,0,0,0.370394,364.032,89.7962)">
            <path d="M315.067,72C315.067,72 292.271,63.793 287.244,50.135C281.616,34.846 302.483,31.356 323.826,31.964C335.328,32.291 349.386,34.041 349.386,34.041C349.386,34.041 316.175,38.269 304.174,47.954C292.455,57.411 315.067,72 315.067,72Z" style="fill:rgb(243,109,36);fill-rule:nonzero;"/>
        </g>
        <g transform="matrix(0.370394,0,0,0.370394,783.351,90.7962)">
            <path d="M315.067,72C315.067,72 292.271,63.793 287.244,50.135C281.616,34.846 302.483,31.356 323.826,31.964C335.328,32.291 349.386,34.041 349.386,34.041C349.386,34.041 316.175,38.269 304.174,47.954C292.455,57.411 315.067,72 315.067,72Z" style="fill:rgb(243,109,36);fill-rule:nonzero;"/>
        </g>
        <g transform="matrix(0.370394,0,0,0.370394,783.351,169.735)">
            <path d="M315.067,72C315.067,72 292.271,63.793 287.244,50.135C281.616,34.846 302.483,31.356 323.826,31.964C335.328,32.291 349.386,34.041 349.386,34.041C349.386,34.041 316.175,38.269 304.174,47.954C292.455,57.411 315.067,72 315.067,72Z" style="fill:rgb(243,109,36);fill-rule:nonzero;"/>
        </g>
        <g transform="matrix(0.370394,0,0,0.370394,364.032,171.185)">
            <path d="M315.067,72C315.067,72 292.271,63.793 287.244,50.135C281.616,34.846 302.483,31.356 323.826,31.964C335.328,32.291 349.386,34.041 349.386,34.041C349.386,34.041 316.175,38.269 304.174,47.954C292.455,57.411 315.067,72 315.067,72Z" style="fill:rgb(243,109,36);fill-rule:nonzero;"/>
        </g>
        <g transform="matrix(0.370394,0,0,0.370394,-53.7978,192.294)">
            <path d="M315.067,72C315.067,72 292.271,63.793 287.244,50.135C281.616,34.846 302.483,31.356 323.826,31.964C335.328,32.291 349.386,34.041 349.386,34.041C349.386,34.041 316.175,38.269 304.174,47.954C292.455,57.411 315.067,72 315.067,72Z" style="fill:rgb(243,109,36);fill-rule:nonzero;"/>
        </g>
    </g>
</svg>
