<?xml version="1.0" encoding="UTF-8" standalone="no"?>
<svg width="60px" height="324px" viewBox="0 0 60 324" version="1.1" xmlns="http://www.w3.org/2000/svg" xmlns:xlink="http://www.w3.org/1999/xlink">
    <!-- Generator: Sketch 50.2 (55047) - http://www.bohemiancoding.com/sketch -->
    <title>Line8</title>
    <desc>Created with Sketch.</desc>
    <defs></defs>
    <g id="Page-1" stroke="none" stroke-width="1" fill="none" fill-rule="evenodd">
        <path d="M26.8229221,115.5 L26.8229221,8.80078125 C26.8229221,6.59164225 25.0320611,4.80078125 22.8229221,4.80078125 L0.3046875,4.80078125 L0.3046875,0.80078125 L22.8229221,0.80078125 C27.2412001,0.80078125 30.8229221,4.38250325 30.8229221,8.80078125 L30.8229221,216 L60,216 L60,220 L30.8229221,220 L30.8229221,315.690869 C30.8229221,320.109147 27.2412001,323.690869 22.8229221,323.690869 L0.3046875,323.690869 L0.3046875,319.690869 L22.8229221,319.690869 C25.0320611,319.690869 26.8229221,317.900008 26.8229221,315.690869 L26.8229221,220 L1.28810047,220 L1.28810047,216 L26.8229221,216 L26.8229221,119.5 L1.22535407,119.5 L1.22535407,115.5 L26.8229221,115.5 Z" id="Line8" fill="#47AFE8" fill-rule="nonzero"></path>
    </g>
</svg>