<?xml version="1.0" encoding="UTF-8" standalone="no"?>
<svg width="86px" height="432px" viewBox="0 0 86 432" version="1.1" xmlns="http://www.w3.org/2000/svg" xmlns:xlink="http://www.w3.org/1999/xlink">
    <!-- Generator: Sketch 50.2 (55047) - http://www.bohemiancoding.com/sketch -->
    <title>Line_Dots</title>
    <desc>Created with Sketch.</desc>
    <defs></defs>
    <g id="Page-1" stroke="none" stroke-width="1" fill="none" fill-rule="evenodd">
        <path d="M0.189896532,110.386719 C0.189896532,109.282149 1.08532703,108.386719 2.18989653,108.386719 C3.29446603,108.386719 4.18989653,109.282149 4.18989653,110.386719 L4.18989653,111.386719 C4.18989653,112.491288 3.29446603,113.386719 2.18989653,113.386719 C1.08532703,113.386719 0.189896532,112.491288 0.189896532,111.386719 L0.189896532,110.386719 Z M0.189896532,119.386719 C0.189896532,118.282149 1.08532703,117.386719 2.18989653,117.386719 C3.29446603,117.386719 4.18989653,118.282149 4.18989653,119.386719 L4.18989653,120.386719 C4.18989653,121.491288 3.29446603,122.386719 2.18989653,122.386719 C1.08532703,122.386719 0.189896532,121.491288 0.189896532,120.386719 L0.189896532,119.386719 Z M0.189896532,128.386719 C0.189896532,127.282149 1.08532703,126.386719 2.18989653,126.386719 C3.29446603,126.386719 4.18989653,127.282149 4.18989653,128.386719 L4.18989653,129.386719 C4.18989653,130.491288 3.29446603,131.386719 2.18989653,131.386719 C1.08532703,131.386719 0.189896532,130.491288 0.189896532,129.386719 L0.189896532,128.386719 Z M0.189896532,137.386719 C0.189896532,136.282149 1.08532703,135.386719 2.18989653,135.386719 C3.29446603,135.386719 4.18989653,136.282149 4.18989653,137.386719 L4.18989653,138.386719 C4.18989653,139.491288 3.29446603,140.386719 2.18989653,140.386719 C1.08532703,140.386719 0.189896532,139.491288 0.189896532,138.386719 L0.189896532,137.386719 Z M0.189896532,146.386719 C0.189896532,145.282149 1.08532703,144.386719 2.18989653,144.386719 C3.29446603,144.386719 4.18989653,145.282149 4.18989653,146.386719 L4.18989653,147.386719 C4.18989653,148.491288 3.29446603,149.386719 2.18989653,149.386719 C1.08532703,149.386719 0.189896532,148.491288 0.189896532,147.386719 L0.189896532,146.386719 Z M0.189896532,155.386719 C0.189896532,154.282149 1.08532703,153.386719 2.18989653,153.386719 C3.29446603,153.386719 4.18989653,154.282149 4.18989653,155.386719 L4.18989653,156.386719 C4.18989653,157.491288 3.29446603,158.386719 2.18989653,158.386719 C1.08532703,158.386719 0.189896532,157.491288 0.189896532,156.386719 L0.189896532,155.386719 Z M0.189896532,164.386719 C0.189896532,163.282149 1.08532703,162.386719 2.18989653,162.386719 C3.29446603,162.386719 4.18989653,163.282149 4.18989653,164.386719 L4.18989653,165.386719 C4.18989653,166.491288 3.29446603,167.386719 2.18989653,167.386719 C1.08532703,167.386719 0.189896532,166.491288 0.189896532,165.386719 L0.189896532,164.386719 Z M0.189896532,173.386719 C0.189896532,172.282149 1.08532703,171.386719 2.18989653,171.386719 C3.29446603,171.386719 4.18989653,172.282149 4.18989653,173.386719 L4.18989653,174.386719 C4.18989653,175.491288 3.29446603,176.386719 2.18989653,176.386719 C1.08532703,176.386719 0.189896532,175.491288 0.189896532,174.386719 L0.189896532,173.386719 Z M0.189896532,182.386719 C0.189896532,181.282149 1.08532703,180.386719 2.18989653,180.386719 C3.29446603,180.386719 4.18989653,181.282149 4.18989653,182.386719 L4.18989653,183.386719 C4.18989653,184.491288 3.29446603,185.386719 2.18989653,185.386719 C1.08532703,185.386719 0.189896532,184.491288 0.189896532,183.386719 L0.189896532,182.386719 Z M0.189896532,191.386719 C0.189896532,190.282149 1.08532703,189.386719 2.18989653,189.386719 C3.29446603,189.386719 4.18989653,190.282149 4.18989653,191.386719 L4.18989653,192.386719 C4.18989653,193.491288 3.29446603,194.386719 2.18989653,194.386719 C1.08532703,194.386719 0.189896532,193.491288 0.189896532,192.386719 L0.189896532,191.386719 Z M0.189896532,200.386719 C0.189896532,199.282149 1.08532703,198.386719 2.18989653,198.386719 C3.29446603,198.386719 4.18989653,199.282149 4.18989653,200.386719 L4.18989653,201.386719 C4.18989653,202.491288 3.29446603,203.386719 2.18989653,203.386719 C1.08532703,203.386719 0.189896532,202.491288 0.189896532,201.386719 L0.189896532,200.386719 Z M0.189896532,209.386719 C0.189896532,208.282149 1.08532703,207.386719 2.18989653,207.386719 C3.29446603,207.386719 4.18989653,208.282149 4.18989653,209.386719 L4.18989653,210.386719 C4.18989653,211.491288 3.29446603,212.386719 2.18989653,212.386719 C1.08532703,212.386719 0.189896532,211.491288 0.189896532,210.386719 L0.189896532,209.386719 Z M0.189896532,218.386719 C0.189896532,217.282149 1.08532703,216.386719 2.18989653,216.386719 C3.29446603,216.386719 4.18989653,217.282149 4.18989653,218.386719 L4.18989653,219.386719 C4.18989653,220.491288 3.29446603,221.386719 2.18989653,221.386719 C1.08532703,221.386719 0.189896532,220.491288 0.189896532,219.386719 L0.189896532,218.386719 Z M0.189896532,227.386719 C0.189896532,226.282149 1.08532703,225.386719 2.18989653,225.386719 C3.29446603,225.386719 4.18989653,226.282149 4.18989653,227.386719 L4.18989653,228.386719 C4.18989653,229.491288 3.29446603,230.386719 2.18989653,230.386719 C1.08532703,230.386719 0.189896532,229.491288 0.189896532,228.386719 L0.189896532,227.386719 Z M0.189896532,236.386719 C0.189896532,235.282149 1.08532703,234.386719 2.18989653,234.386719 C3.29446603,234.386719 4.18989653,235.282149 4.18989653,236.386719 L4.18989653,237.386719 C4.18989653,238.491288 3.29446603,239.386719 2.18989653,239.386719 C1.08532703,239.386719 0.189896532,238.491288 0.189896532,237.386719 L0.189896532,236.386719 Z M0.189896532,245.386719 C0.189896532,244.282149 1.08532703,243.386719 2.18989653,243.386719 C3.29446603,243.386719 4.18989653,244.282149 4.18989653,245.386719 L4.18989653,246.386719 C4.18989653,247.491288 3.29446603,248.386719 2.18989653,248.386719 C1.08532703,248.386719 0.189896532,247.491288 0.189896532,246.386719 L0.189896532,245.386719 Z M0.189896532,254.386719 C0.189896532,253.282149 1.08532703,252.386719 2.18989653,252.386719 C3.29446603,252.386719 4.18989653,253.282149 4.18989653,254.386719 L4.18989653,255.386719 C4.18989653,256.491288 3.29446603,257.386719 2.18989653,257.386719 C1.08532703,257.386719 0.189896532,256.491288 0.189896532,255.386719 L0.189896532,254.386719 Z M0.189896532,263.386719 C0.189896532,262.282149 1.08532703,261.386719 2.18989653,261.386719 C3.29446603,261.386719 4.18989653,262.282149 4.18989653,263.386719 L4.18989653,264.386719 C4.18989653,265.491288 3.29446603,266.386719 2.18989653,266.386719 C1.08532703,266.386719 0.189896532,265.491288 0.189896532,264.386719 L0.189896532,263.386719 Z M0.189896532,272.386719 C0.189896532,271.282149 1.08532703,270.386719 2.18989653,270.386719 C3.29446603,270.386719 4.18989653,271.282149 4.18989653,272.386719 L4.18989653,273.386719 C4.18989653,274.491288 3.29446603,275.386719 2.18989653,275.386719 C1.08532703,275.386719 0.189896532,274.491288 0.189896532,273.386719 L0.189896532,272.386719 Z M0.189896532,281.386719 C0.189896532,280.282149 1.08532703,279.386719 2.18989653,279.386719 C3.29446603,279.386719 4.18989653,280.282149 4.18989653,281.386719 L4.18989653,282.386719 C4.18989653,283.491288 3.29446603,284.386719 2.18989653,284.386719 C1.08532703,284.386719 0.189896532,283.491288 0.189896532,282.386719 L0.189896532,281.386719 Z M0.189896532,290.386719 C0.189896532,289.282149 1.08532703,288.386719 2.18989653,288.386719 C3.29446603,288.386719 4.18989653,289.282149 4.18989653,290.386719 L4.18989653,291.386719 C4.18989653,292.491288 3.29446603,293.386719 2.18989653,293.386719 C1.08532703,293.386719 0.189896532,292.491288 0.189896532,291.386719 L0.189896532,290.386719 Z M0.189896532,299.386719 C0.189896532,298.282149 1.08532703,297.386719 2.18989653,297.386719 C3.29446603,297.386719 4.18989653,298.282149 4.18989653,299.386719 L4.18989653,300.386719 C4.18989653,301.491288 3.29446603,302.386719 2.18989653,302.386719 C1.08532703,302.386719 0.189896532,301.491288 0.189896532,300.386719 L0.189896532,299.386719 Z M0.189896532,308.386719 C0.189896532,307.282149 1.08532703,306.386719 2.18989653,306.386719 C3.29446603,306.386719 4.18989653,307.282149 4.18989653,308.386719 L4.18989653,309.386719 C4.18989653,310.491288 3.29446603,311.386719 2.18989653,311.386719 C1.08532703,311.386719 0.189896532,310.491288 0.189896532,309.386719 L0.189896532,308.386719 Z M0.189896532,317.386719 C0.189896532,316.282149 1.08532703,315.386719 2.18989653,315.386719 C3.29446603,315.386719 4.18989653,316.282149 4.18989653,317.386719 L4.18989653,318.386719 C4.18989653,319.491288 3.29446603,320.386719 2.18989653,320.386719 C1.08532703,320.386719 0.189896532,319.491288 0.189896532,318.386719 L0.189896532,317.386719 Z M0.189896532,326.386719 C0.189896532,325.282149 1.08532703,324.386719 2.18989653,324.386719 C3.29446603,324.386719 4.18989653,325.282149 4.18989653,326.386719 L4.18989653,327.386719 C4.18989653,328.491288 3.29446603,329.386719 2.18989653,329.386719 C1.08532703,329.386719 0.189896532,328.491288 0.189896532,327.386719 L0.189896532,326.386719 Z M0.189896532,335.386719 C0.189896532,334.282149 1.08532703,333.386719 2.18989653,333.386719 C3.29446603,333.386719 4.18989653,334.282149 4.18989653,335.386719 L4.18989653,336.386719 C4.18989653,337.491288 3.29446603,338.386719 2.18989653,338.386719 C1.08532703,338.386719 0.189896532,337.491288 0.189896532,336.386719 L0.189896532,335.386719 Z M0.189896532,344.386719 C0.189896532,343.282149 1.08532703,342.386719 2.18989653,342.386719 C3.29446603,342.386719 4.18989653,343.282149 4.18989653,344.386719 L4.18989653,345.386719 C4.18989653,346.491288 3.29446603,347.386719 2.18989653,347.386719 C1.08532703,347.386719 0.189896532,346.491288 0.189896532,345.386719 L0.189896532,344.386719 Z M0.189896532,353.386719 C0.189896532,352.282149 1.08532703,351.386719 2.18989653,351.386719 C3.29446603,351.386719 4.18989653,352.282149 4.18989653,353.386719 L4.18989653,354.386719 C4.18989653,355.491288 3.29446603,356.386719 2.18989653,356.386719 C1.08532703,356.386719 0.189896532,355.491288 0.189896532,354.386719 L0.189896532,353.386719 Z M0.189896532,362.386719 C0.189896532,361.282149 1.08532703,360.386719 2.18989653,360.386719 C3.29446603,360.386719 4.18989653,361.282149 4.18989653,362.386719 L4.18989653,363.386719 C4.18989653,364.491288 3.29446603,365.386719 2.18989653,365.386719 C1.08532703,365.386719 0.189896532,364.491288 0.189896532,363.386719 L0.189896532,362.386719 Z M0.189896532,371.386719 C0.189896532,370.282149 1.08532703,369.386719 2.18989653,369.386719 C3.29446603,369.386719 4.18989653,370.282149 4.18989653,371.386719 L4.18989653,372.386719 C4.18989653,373.491288 3.29446603,374.386719 2.18989653,374.386719 C1.08532703,374.386719 0.189896532,373.491288 0.189896532,372.386719 L0.189896532,371.386719 Z M0.189896532,380.386719 C0.189896532,379.282149 1.08532703,378.386719 2.18989653,378.386719 C3.29446603,378.386719 4.18989653,379.282149 4.18989653,380.386719 L4.18989653,381.386719 C4.18989653,382.491288 3.29446603,383.386719 2.18989653,383.386719 C1.08532703,383.386719 0.189896532,382.491288 0.189896532,381.386719 L0.189896532,380.386719 Z M0.189896532,389.386719 C0.189896532,388.282149 1.08532703,387.386719 2.18989653,387.386719 C3.29446603,387.386719 4.18989653,388.282149 4.18989653,389.386719 L4.18989653,390.386719 C4.18989653,391.491288 3.29446603,392.386719 2.18989653,392.386719 C1.08532703,392.386719 0.189896532,391.491288 0.189896532,390.386719 L0.189896532,389.386719 Z M0.189896532,398.386719 C0.189896532,397.282149 1.08532703,396.386719 2.18989653,396.386719 C3.29446603,396.386719 4.18989653,397.282149 4.18989653,398.386719 L4.18989653,399.386719 C4.18989653,400.491288 3.29446603,401.386719 2.18989653,401.386719 C1.08532703,401.386719 0.189896532,400.491288 0.189896532,399.386719 L0.189896532,398.386719 Z M0.189896532,407.386719 C0.189896532,406.282149 1.08532703,405.386719 2.18989653,405.386719 C3.29446603,405.386719 4.18989653,406.282149 4.18989653,407.386719 L4.18989653,408.386719 C4.18989653,409.491288 3.29446603,410.386719 2.18989653,410.386719 C1.08532703,410.386719 0.189896532,409.491288 0.189896532,408.386719 L0.189896532,407.386719 Z M0.189896532,416.386719 C0.189896532,415.282149 1.08532703,414.386719 2.18989653,414.386719 C3.29446603,414.386719 4.18989653,415.282149 4.18989653,416.386719 L4.18989653,417.386719 C4.18989653,418.491288 3.29446603,419.386719 2.18989653,419.386719 C1.08532703,419.386719 0.189896532,418.491288 0.189896532,417.386719 L0.189896532,416.386719 Z M0.189896532,425.386719 C0.189896532,424.282149 1.08532703,423.386719 2.18989653,423.386719 C3.29446603,423.386719 4.18989653,424.282149 4.18989653,425.386719 L4.18989653,426.386719 C4.18989653,427.491288 3.29446603,428.386719 2.18989653,428.386719 C1.08532703,428.386719 0.189896532,427.491288 0.189896532,426.386719 L0.189896532,425.386719 Z M7.1200246,431.456591 C6.0154551,431.456591 5.1200246,430.56116 5.1200246,429.456591 C5.1200246,428.352021 6.0154551,427.456591 7.1200246,427.456591 L8.1200246,427.456591 C9.2245941,427.456591 10.1200246,428.352021 10.1200246,429.456591 C10.1200246,430.56116 9.2245941,431.456591 8.1200246,431.456591 L7.1200246,431.456591 Z M16.1200246,431.456591 C15.0154551,431.456591 14.1200246,430.56116 14.1200246,429.456591 C14.1200246,428.352021 15.0154551,427.456591 16.1200246,427.456591 L17.1200246,427.456591 C18.2245941,427.456591 19.1200246,428.352021 19.1200246,429.456591 C19.1200246,430.56116 18.2245941,431.456591 17.1200246,431.456591 L16.1200246,431.456591 Z M25.1200246,431.456591 C24.0154551,431.456591 23.1200246,430.56116 23.1200246,429.456591 C23.1200246,428.352021 24.0154551,427.456591 25.1200246,427.456591 L26.1200246,427.456591 C27.2245941,427.456591 28.1200246,428.352021 28.1200246,429.456591 C28.1200246,430.56116 27.2245941,431.456591 26.1200246,431.456591 L25.1200246,431.456591 Z M34.1200246,431.456591 C33.0154551,431.456591 32.1200246,430.56116 32.1200246,429.456591 C32.1200246,428.352021 33.0154551,427.456591 34.1200246,427.456591 L35.1200246,427.456591 C36.2245941,427.456591 37.1200246,428.352021 37.1200246,429.456591 C37.1200246,430.56116 36.2245941,431.456591 35.1200246,431.456591 L34.1200246,431.456591 Z M43.1200246,431.456591 C42.0154551,431.456591 41.1200246,430.56116 41.1200246,429.456591 C41.1200246,428.352021 42.0154551,427.456591 43.1200246,427.456591 L44.1200246,427.456591 C45.2245941,427.456591 46.1200246,428.352021 46.1200246,429.456591 C46.1200246,430.56116 45.2245941,431.456591 44.1200246,431.456591 L43.1200246,431.456591 Z M52.1200246,431.456591 C51.0154551,431.456591 50.1200246,430.56116 50.1200246,429.456591 C50.1200246,428.352021 51.0154551,427.456591 52.1200246,427.456591 L53.1200246,427.456591 C54.2245941,427.456591 55.1200246,428.352021 55.1200246,429.456591 C55.1200246,430.56116 54.2245941,431.456591 53.1200246,431.456591 L52.1200246,431.456591 Z M61.1200246,431.456591 C60.0154551,431.456591 59.1200246,430.56116 59.1200246,429.456591 C59.1200246,428.352021 60.0154551,427.456591 61.1200246,427.456591 L62.1200246,427.456591 C63.2245941,427.456591 64.1200246,428.352021 64.1200246,429.456591 C64.1200246,430.56116 63.2245941,431.456591 62.1200246,431.456591 L61.1200246,431.456591 Z M70.1200246,431.456591 C69.0154551,431.456591 68.1200246,430.56116 68.1200246,429.456591 C68.1200246,428.352021 69.0154551,427.456591 70.1200246,427.456591 L71.1200246,427.456591 C72.2245941,427.456591 73.1200246,428.352021 73.1200246,429.456591 C73.1200246,430.56116 72.2245941,431.456591 71.1200246,431.456591 L70.1200246,431.456591 Z M79.1200246,431.456591 C78.0154551,431.456591 77.1200246,430.56116 77.1200246,429.456591 C77.1200246,428.352021 78.0154551,427.456591 79.1200246,427.456591 L80.1200246,427.456591 C81.2245941,427.456591 82.1200246,428.352021 82.1200246,429.456591 C82.1200246,430.56116 81.2245941,431.456591 80.1200246,431.456591 L79.1200246,431.456591 Z M9,219 C7.8954305,219 7,218.104569 7,217 C7,215.895431 7.8954305,215 9,215 L10,215 C11.1045695,215 12,215.895431 12,217 C12,218.104569 11.1045695,219 10,219 L9,219 Z M18,219 C16.8954305,219 16,218.104569 16,217 C16,215.895431 16.8954305,215 18,215 L19,215 C20.1045695,215 21,215.895431 21,217 C21,218.104569 20.1045695,219 19,219 L18,219 Z M27,219 C25.8954305,219 25,218.104569 25,217 C25,215.895431 25.8954305,215 27,215 L28,215 C29.1045695,215 30,215.895431 30,217 C30,218.104569 29.1045695,219 28,219 L27,219 Z M36,219 C34.8954305,219 34,218.104569 34,217 C34,215.895431 34.8954305,215 36,215 L37,215 C38.1045695,215 39,215.895431 39,217 C39,218.104569 38.1045695,219 37,219 L36,219 Z M45,219 C43.8954305,219 43,218.104569 43,217 C43,215.895431 43.8954305,215 45,215 L46,215 C47.1045695,215 48,215.895431 48,217 C48,218.104569 47.1045695,219 46,219 L45,219 Z M54,219 C52.8954305,219 52,218.104569 52,217 C52,215.895431 52.8954305,215 54,215 L55,215 C56.1045695,215 57,215.895431 57,217 C57,218.104569 56.1045695,219 55,219 L54,219 Z M63,219 C61.8954305,219 61,218.104569 61,217 C61,215.895431 61.8954305,215 63,215 L64,215 C65.1045695,215 66,215.895431 66,217 C66,218.104569 65.1045695,219 64,219 L63,219 Z M72,219 C70.8954305,219 70,218.104569 70,217 C70,215.895431 70.8954305,215 72,215 L73,215 C74.1045695,215 75,215.895431 75,217 C75,218.104569 74.1045695,219 73,219 L72,219 Z M81,219 C79.8954305,219 79,218.104569 79,217 C79,215.895431 79.8954305,215 81,215 L81.5621157,215 C82.6666852,215 83.5621157,215.895431 83.5621157,217 C83.5621157,218.104569 82.6666852,219 81.5621157,219 L81,219 Z M29.3309956,28 C28.2264261,28 27.3309956,27.1045695 27.3309956,26 C27.3309956,24.8954305 28.2264261,24 29.3309956,24 L30.3309956,24 C31.4355651,24 32.3309956,24.8954305 32.3309956,26 C32.3309956,27.1045695 31.4355651,28 30.3309956,28 L29.3309956,28 Z M37.3309956,28 C36.2264261,28 35.3309956,27.1045695 35.3309956,26 C35.3309956,24.8954305 36.2264261,24 37.3309956,24 L38.3309956,24 C39.4355651,24 40.3309956,24.8954305 40.3309956,26 C40.3309956,27.1045695 39.4355651,28 38.3309956,28 L37.3309956,28 Z M45.3309956,28 C44.2264261,28 43.3309956,27.1045695 43.3309956,26 C43.3309956,24.8954305 44.2264261,24 45.3309956,24 L46.3309956,24 C47.4355651,24 48.3309956,24.8954305 48.3309956,26 C48.3309956,27.1045695 47.4355651,28 46.3309956,28 L45.3309956,28 Z M53.3309956,28 C52.2264261,28 51.3309956,27.1045695 51.3309956,26 C51.3309956,24.8954305 52.2264261,24 53.3309956,24 L54.3309956,24 C55.4355651,24 56.3309956,24.8954305 56.3309956,26 C56.3309956,27.1045695 55.4355651,28 54.3309956,28 L53.3309956,28 Z M61.4713419,27.9800778 C60.3694979,28.0576243 59.4134129,27.2272671 59.3358664,26.1254231 C59.2583198,25.023579 60.088677,24.0674941 61.1905211,23.9899475 C61.4141945,23.9742057 61.6341013,23.9400579 61.8489083,23.8881056 C62.922524,23.6284456 64.0033574,24.2882871 64.2630173,25.3619027 C64.5226773,26.4355183 63.8628358,27.5163517 62.7892202,27.7760117 C62.3581662,27.8802645 61.9176731,27.9486655 61.4713419,27.9800778 Z M68.8310157,21.0800347 C68.6829411,22.174634 67.6755548,22.9419439 66.5809555,22.7938693 C65.4863561,22.6457946 64.7190463,21.6384083 64.8671209,20.543809 C64.8913013,20.3650623 64.9035375,20.1835873 64.9035375,20 L64.9035375,19.9380331 C64.9035375,18.8334636 65.798968,17.9380331 66.9035375,17.9380331 C68.008107,17.9380331 68.9035375,18.8334636 68.9035375,19.9380331 L68.9035375,20 C68.9035375,20.3630615 68.8792223,20.7236811 68.8310157,21.0800347 Z M68.9035375,12.9380331 C68.9035375,14.0426026 68.008107,14.9380331 66.9035375,14.9380331 C65.798968,14.9380331 64.9035375,14.0426026 64.9035375,12.9380331 L64.9035375,11.9380331 C64.9035375,10.8334636 65.798968,9.93803312 66.9035375,9.93803312 C68.008107,9.93803312 68.9035375,10.8334636 68.9035375,11.9380331 L68.9035375,12.9380331 Z M69.422441,6.02761212 C68.8765916,6.98788404 67.655639,7.32383981 66.6953671,6.77799035 C65.7350951,6.23214089 65.3991394,5.01118828 65.9449888,4.05091637 C66.1649898,3.66388522 66.4169014,3.29599383 66.6978181,2.95103157 C67.3953006,2.09453171 68.6550521,1.96562263 69.511552,2.66310508 C70.3680519,3.36058753 70.4969609,4.6203391 69.7994785,5.47683896 C69.65864,5.64978689 69.5324736,5.83404016 69.422441,6.02761212 Z M74.6000131,4 C73.4954436,4 72.6000131,3.1045695 72.6000131,2 C72.6000131,0.8954305 73.4954436,0 74.6000131,0 L75.6000131,0 C76.7045826,0 77.6000131,0.8954305 77.6000131,2 C77.6000131,3.1045695 76.7045826,4 75.6000131,4 L74.6000131,4 Z M82.6000131,4 C81.4954436,4 80.6000131,3.1045695 80.6000131,2 C80.6000131,0.8954305 81.4954436,0 82.6000131,0 L83.6000131,0 C84.7045826,0 85.6000131,0.8954305 85.6000131,2 C85.6000131,3.1045695 84.7045826,4 83.6000131,4 L82.6000131,4 Z" id="Line_Dots" fill="#47AFE8" fill-rule="nonzero"></path>
    </g>
</svg>