<?xml version="1.0" encoding="UTF-8" standalone="no"?>
<svg width="101px" height="161px" viewBox="0 0 101 161" version="1.1" xmlns="http://www.w3.org/2000/svg" xmlns:xlink="http://www.w3.org/1999/xlink">
    <!-- Generator: Sketch 50.2 (55047) - http://www.bohemiancoding.com/sketch -->
    <title>Line_dot2</title>
    <desc>Created with Sketch.</desc>
    <defs></defs>
    <g id="Page-1" stroke="none" stroke-width="1" fill="none" fill-rule="evenodd">
        <path d="M98.3537299,0.00116404575 C99.4582994,0.00116404575 100.35373,0.896594546 100.35373,2.00116405 C100.35373,3.10573355 99.4582994,4.00116405 98.3537299,4.00116405 L97.3537299,4.00116405 C96.2491604,4.00116405 95.3537299,3.10573355 95.3537299,2.00116405 C95.3537299,0.896594546 96.2491604,0.00116404575 97.3537299,0.00116404575 L98.3537299,0.00116404575 Z M89.3537299,0.00116404575 C90.4582994,0.00116404575 91.3537299,0.896594546 91.3537299,2.00116405 C91.3537299,3.10573355 90.4582994,4.00116405 89.3537299,4.00116405 L88.3537299,4.00116405 C87.2491604,4.00116405 86.3537299,3.10573355 86.3537299,2.00116405 C86.3537299,0.896594546 87.2491604,0.00116404575 88.3537299,0.00116404575 L89.3537299,0.00116404575 Z M80.3537299,0.00116404575 C81.4582994,0.00116404575 82.3537299,0.896594546 82.3537299,2.00116405 C82.3537299,3.10573355 81.4582994,4.00116405 80.3537299,4.00116405 L79.3537299,4.00116405 C78.2491604,4.00116405 77.3537299,3.10573355 77.3537299,2.00116405 C77.3537299,0.896594546 78.2491604,0.00116404575 79.3537299,0.00116404575 L80.3537299,0.00116404575 Z M71.3537299,0.00116404575 C72.4582994,0.00116404575 73.3537299,0.896594546 73.3537299,2.00116405 C73.3537299,3.10573355 72.4582994,4.00116405 71.3537299,4.00116405 L70.3537299,4.00116405 C69.2491604,4.00116405 68.3537299,3.10573355 68.3537299,2.00116405 C68.3537299,0.896594546 69.2491604,0.00116404575 70.3537299,0.00116404575 L71.3537299,0.00116404575 Z M62.3537299,0.00116404575 C63.4582994,0.00116404575 64.3537299,0.896594546 64.3537299,2.00116405 C64.3537299,3.10573355 63.4582994,4.00116405 62.3537299,4.00116405 L61.3537299,4.00116405 C60.2491604,4.00116405 59.3537299,3.10573355 59.3537299,2.00116405 C59.3537299,0.896594546 60.2491604,0.00116404575 61.3537299,0.00116404575 L62.3537299,0.00116404575 Z M53.3537299,0.00116404575 C54.4582994,0.00116404575 55.3537299,0.896594546 55.3537299,2.00116405 C55.3537299,3.10573355 54.4582994,4.00116405 53.3537299,4.00116405 L52.3537299,4.00116405 C51.2491604,4.00116405 50.3537299,3.10573355 50.3537299,2.00116405 C50.3537299,0.896594546 51.2491604,0.00116404575 52.3537299,0.00116404575 L53.3537299,0.00116404575 Z M44.3537299,0.00116404575 C45.4582994,0.00116404575 46.3537299,0.896594546 46.3537299,2.00116405 C46.3537299,3.10573355 45.4582994,4.00116405 44.3537299,4.00116405 L43.3537299,4.00116405 C42.2491604,4.00116405 41.3537299,3.10573355 41.3537299,2.00116405 C41.3537299,0.896594546 42.2491604,0.00116404575 43.3537299,0.00116404575 L44.3537299,0.00116404575 Z M35.3537299,0.00116404575 C36.4582994,0.00116404575 37.3537299,0.896594546 37.3537299,2.00116405 C37.3537299,3.10573355 36.4582994,4.00116405 35.3537299,4.00116405 L34.3537299,4.00116405 C33.2491604,4.00116405 32.3537299,3.10573355 32.3537299,2.00116405 C32.3537299,0.896594546 33.2491604,0.00116404575 34.3537299,0.00116404575 L35.3537299,0.00116404575 Z M26.3537299,0.00116404575 C27.4582994,0.00116404575 28.3537299,0.896594546 28.3537299,2.00116405 C28.3537299,3.10573355 27.4582994,4.00116405 26.3537299,4.00116405 L25.3537299,4.00116405 C24.2491604,4.00116405 23.3537299,3.10573355 23.3537299,2.00116405 C23.3537299,0.896594546 24.2491604,0.00116404575 25.3537299,0.00116404575 L26.3537299,0.00116404575 Z M17.3537299,0.00116404575 C18.4582994,0.00116404575 19.3537299,0.896594546 19.3537299,2.00116405 C19.3537299,3.10573355 18.4582994,4.00116405 17.3537299,4.00116405 L16.3537299,4.00116405 C15.2491604,4.00116405 14.3537299,3.10573355 14.3537299,2.00116405 C14.3537299,0.896594546 15.2491604,0.00116404575 16.3537299,0.00116404575 L17.3537299,0.00116404575 Z M8.35372995,0.00116404575 C9.45829944,0.00116404575 10.3537299,0.896594546 10.3537299,2.00116405 C10.3537299,3.10573355 9.45829944,4.00116405 8.35372995,4.00116405 L7.35372995,4.00116405 C6.24916045,4.00116405 5.35372995,3.10573355 5.35372995,2.00116405 C5.35372995,0.896594546 6.24916045,0.00116404575 7.35372995,0.00116404575 L8.35372995,0.00116404575 Z M0.189896532,4.83733063 C0.189896532,3.73276113 1.08532703,2.83733063 2.18989653,2.83733063 C3.29446603,2.83733063 4.18989653,3.73276113 4.18989653,4.83733063 L4.18989653,5.83733063 C4.18989653,6.94190013 3.29446603,7.83733063 2.18989653,7.83733063 C1.08532703,7.83733063 0.189896532,6.94190013 0.189896532,5.83733063 L0.189896532,4.83733063 Z M0.189896532,13.8373306 C0.189896532,12.7327611 1.08532703,11.8373306 2.18989653,11.8373306 C3.29446603,11.8373306 4.18989653,12.7327611 4.18989653,13.8373306 L4.18989653,14.8373306 C4.18989653,15.9419001 3.29446603,16.8373306 2.18989653,16.8373306 C1.08532703,16.8373306 0.189896532,15.9419001 0.189896532,14.8373306 L0.189896532,13.8373306 Z M0.189896532,22.8373306 C0.189896532,21.7327611 1.08532703,20.8373306 2.18989653,20.8373306 C3.29446603,20.8373306 4.18989653,21.7327611 4.18989653,22.8373306 L4.18989653,23.8373306 C4.18989653,24.9419001 3.29446603,25.8373306 2.18989653,25.8373306 C1.08532703,25.8373306 0.189896532,24.9419001 0.189896532,23.8373306 L0.189896532,22.8373306 Z M0.189896532,31.8373306 C0.189896532,30.7327611 1.08532703,29.8373306 2.18989653,29.8373306 C3.29446603,29.8373306 4.18989653,30.7327611 4.18989653,31.8373306 L4.18989653,32.8373306 C4.18989653,33.9419001 3.29446603,34.8373306 2.18989653,34.8373306 C1.08532703,34.8373306 0.189896532,33.9419001 0.189896532,32.8373306 L0.189896532,31.8373306 Z M0.189896532,40.8373306 C0.189896532,39.7327611 1.08532703,38.8373306 2.18989653,38.8373306 C3.29446603,38.8373306 4.18989653,39.7327611 4.18989653,40.8373306 L4.18989653,41.8373306 C4.18989653,42.9419001 3.29446603,43.8373306 2.18989653,43.8373306 C1.08532703,43.8373306 0.189896532,42.9419001 0.189896532,41.8373306 L0.189896532,40.8373306 Z M0.189896532,49.8373306 C0.189896532,48.7327611 1.08532703,47.8373306 2.18989653,47.8373306 C3.29446603,47.8373306 4.18989653,48.7327611 4.18989653,49.8373306 L4.18989653,50.8373306 C4.18989653,51.9419001 3.29446603,52.8373306 2.18989653,52.8373306 C1.08532703,52.8373306 0.189896532,51.9419001 0.189896532,50.8373306 L0.189896532,49.8373306 Z M0.189896532,58.8373306 C0.189896532,57.7327611 1.08532703,56.8373306 2.18989653,56.8373306 C3.29446603,56.8373306 4.18989653,57.7327611 4.18989653,58.8373306 L4.18989653,59.8373306 C4.18989653,60.9419001 3.29446603,61.8373306 2.18989653,61.8373306 C1.08532703,61.8373306 0.189896532,60.9419001 0.189896532,59.8373306 L0.189896532,58.8373306 Z M0.189896532,67.8373306 C0.189896532,66.7327611 1.08532703,65.8373306 2.18989653,65.8373306 C3.29446603,65.8373306 4.18989653,66.7327611 4.18989653,67.8373306 L4.18989653,68.8373306 C4.18989653,69.9419001 3.29446603,70.8373306 2.18989653,70.8373306 C1.08532703,70.8373306 0.189896532,69.9419001 0.189896532,68.8373306 L0.189896532,67.8373306 Z M0.189896532,76.8373306 C0.189896532,75.7327611 1.08532703,74.8373306 2.18989653,74.8373306 C3.29446603,74.8373306 4.18989653,75.7327611 4.18989653,76.8373306 L4.18989653,77.8373306 C4.18989653,78.9419001 3.29446603,79.8373306 2.18989653,79.8373306 C1.08532703,79.8373306 0.189896532,78.9419001 0.189896532,77.8373306 L0.189896532,76.8373306 Z M0.189896532,85.8373306 C0.189896532,84.7327611 1.08532703,83.8373306 2.18989653,83.8373306 C3.29446603,83.8373306 4.18989653,84.7327611 4.18989653,85.8373306 L4.18989653,86.8373306 C4.18989653,87.9419001 3.29446603,88.8373306 2.18989653,88.8373306 C1.08532703,88.8373306 0.189896532,87.9419001 0.189896532,86.8373306 L0.189896532,85.8373306 Z M0.189896532,94.8373306 C0.189896532,93.7327611 1.08532703,92.8373306 2.18989653,92.8373306 C3.29446603,92.8373306 4.18989653,93.7327611 4.18989653,94.8373306 L4.18989653,95.8373306 C4.18989653,96.9419001 3.29446603,97.8373306 2.18989653,97.8373306 C1.08532703,97.8373306 0.189896532,96.9419001 0.189896532,95.8373306 L0.189896532,94.8373306 Z M0.189896532,103.837331 C0.189896532,102.732761 1.08532703,101.837331 2.18989653,101.837331 C3.29446603,101.837331 4.18989653,102.732761 4.18989653,103.837331 L4.18989653,104.837331 C4.18989653,105.9419 3.29446603,106.837331 2.18989653,106.837331 C1.08532703,106.837331 0.189896532,105.9419 0.189896532,104.837331 L0.189896532,103.837331 Z M0.189896532,112.837331 C0.189896532,111.732761 1.08532703,110.837331 2.18989653,110.837331 C3.29446603,110.837331 4.18989653,111.732761 4.18989653,112.837331 L4.18989653,113.837331 C4.18989653,114.9419 3.29446603,115.837331 2.18989653,115.837331 C1.08532703,115.837331 0.189896532,114.9419 0.189896532,113.837331 L0.189896532,112.837331 Z M0.189896532,121.837331 C0.189896532,120.732761 1.08532703,119.837331 2.18989653,119.837331 C3.29446603,119.837331 4.18989653,120.732761 4.18989653,121.837331 L4.18989653,122.837331 C4.18989653,123.9419 3.29446603,124.837331 2.18989653,124.837331 C1.08532703,124.837331 0.189896532,123.9419 0.189896532,122.837331 L0.189896532,121.837331 Z M0.189896532,130.837331 C0.189896532,129.732761 1.08532703,128.837331 2.18989653,128.837331 C3.29446603,128.837331 4.18989653,129.732761 4.18989653,130.837331 L4.18989653,131.837331 C4.18989653,132.9419 3.29446603,133.837331 2.18989653,133.837331 C1.08532703,133.837331 0.189896532,132.9419 0.189896532,131.837331 L0.189896532,130.837331 Z M0.189896532,139.837331 C0.189896532,138.732761 1.08532703,137.837331 2.18989653,137.837331 C3.29446603,137.837331 4.18989653,138.732761 4.18989653,139.837331 L4.18989653,140.837331 C4.18989653,141.9419 3.29446603,142.837331 2.18989653,142.837331 C1.08532703,142.837331 0.189896532,141.9419 0.189896532,140.837331 L0.189896532,139.837331 Z M0.189896532,148.837331 C0.189896532,147.732761 1.08532703,146.837331 2.18989653,146.837331 C3.29446603,146.837331 4.18989653,147.732761 4.18989653,148.837331 L4.18989653,149.837331 C4.18989653,150.9419 3.29446603,151.837331 2.18989653,151.837331 C1.08532703,151.837331 0.189896532,150.9419 0.189896532,149.837331 L0.189896532,148.837331 Z M0.189896532,157.837331 C0.189896532,156.732761 1.08532703,155.837331 2.18989653,155.837331 C3.29446603,155.837331 4.18989653,156.732761 4.18989653,157.837331 L4.18989653,158.837331 C4.18989653,159.9419 3.29446603,160.837331 2.18989653,160.837331 C1.08532703,160.837331 0.189896532,159.9419 0.189896532,158.837331 L0.189896532,157.837331 Z" id="Line_dot2" fill="#47AFE8" fill-rule="nonzero"></path>
    </g>
</svg>