<?xml version="1.0" encoding="UTF-8" standalone="no"?>
<!DOCTYPE svg PUBLIC "-//W3C//DTD SVG 1.1//EN" "http://www.w3.org/Graphics/SVG/1.1/DTD/svg11.dtd">
<svg width="100%" height="100%" viewBox="0 0 319 422" version="1.1" xmlns="http://www.w3.org/2000/svg" xmlns:xlink="http://www.w3.org/1999/xlink" xml:space="preserve" xmlns:serif="http://www.serif.com/" style="fill-rule:evenodd;clip-rule:evenodd;stroke-linejoin:round;stroke-miterlimit:1.41421;">
    <g transform="matrix(1,0,0,1,-2079,-845)">
        <g id="Capture-Protection" serif:id="Capture Protection">
            <path id="Shape" d="M2096.7,845.26C2096.7,845.26 2160.9,891.4 2247.17,877.36C2247.17,877.36 2307.36,951.59 2395.63,999.74C2395.63,999.74 2427.73,1214.41 2231.12,1266.57L2080.65,855.29C2080.65,855.29 2096.49,848.62 2096.7,845.26Z" style="fill:rgb(159,159,159);fill-rule:nonzero;"/>
            <path id="Shape1" serif:id="Shape" d="M2080.65,855.29C2080.65,855.29 2146.86,903.44 2233.12,889.39C2233.12,889.39 2289.3,965.63 2377.58,1013.78C2377.58,1013.78 2425.73,1214.41 2229.11,1266.57C2229.11,1266.57 2064.6,1118.11 2080.65,855.29Z" style="fill:rgb(107,108,111);fill-rule:nonzero;"/>
            <path id="Shape2" serif:id="Shape" d="M2377.58,1013.78C2289.3,965.63 2233.12,889.39 2233.12,889.39C2232.45,889.5 2231.79,889.58 2231.12,889.68L2231.12,1266C2425.36,1213 2377.58,1013.78 2377.58,1013.78Z" style="fill:rgb(79,77,81);fill-rule:nonzero;"/>
            <path id="Shape3" serif:id="Shape" d="M2217.08,1146.19C2217.08,1146.19 2199.88,1128.79 2180.96,1106.07C2161.39,1082.55 2139.96,1051.29 2132.81,1027.82C2118.81,981.68 2146.86,977.67 2184.98,987.7C2223.1,997.73 2315.38,1045.88 2355.51,1073.97C2355.51,1073.97 2253.19,1037.86 2201.02,1045.88C2201.02,1045.88 2162.91,1047.88 2193.02,1102.06C2199.37,1113.53 2207,1128.14 2217.08,1146.19Z" style="fill:rgb(254,121,26);fill-rule:nonzero;"/>
        </g>
    </g>
</svg>
