<?xml version="1.0" encoding="UTF-8" standalone="no"?><!DOCTYPE svg PUBLIC "-//W3C//DTD SVG 1.1//EN" "http://www.w3.org/Graphics/SVG/1.1/DTD/svg11.dtd"><svg width="100%" height="100%" viewBox="0 0 478 62" version="1.1" xmlns="http://www.w3.org/2000/svg" xmlns:xlink="http://www.w3.org/1999/xlink" xml:space="preserve" xmlns:serif="http://www.serif.com/" style="fill-rule:evenodd;clip-rule:evenodd;stroke-linejoin:round;stroke-miterlimit:1.41421;"><g id="Group-35"><g id="Group-32"><g id="Group-23"><g id="Group-20"><circle id="Oval-3-Copy" cx="25" cy="31.984" r="8" style="fill:#fff;"/><g id="Flexible-licensing-o"><path d="M55.045,42.984c0.539,0 1.008,-0.167 1.406,-0.501c0.399,-0.334 0.598,-0.806 0.598,-1.415l0,-9.545l9.703,0c0.492,0 0.873,-0.152 1.143,-0.457c0.269,-0.305 0.404,-0.668 0.404,-1.09c0,-0.422 -0.135,-0.785 -0.404,-1.09c-0.27,-0.304 -0.651,-0.457 -1.143,-0.457l-9.703,0l0,-7.453l10.178,0c0.492,0 0.873,-0.161 1.142,-0.483c0.27,-0.322 0.404,-0.695 0.404,-1.116c0,-0.422 -0.134,-0.791 -0.404,-1.108c-0.269,-0.316 -0.65,-0.474 -1.142,-0.474l-12.235,0c-0.527,0 -0.981,0.187 -1.362,0.562c-0.381,0.375 -0.571,0.844 -0.571,1.406l0,21.305c0,0.609 0.193,1.081 0.58,1.415c0.386,0.334 0.855,0.501 1.406,0.501Z" style="fill:#fff;fill-rule:nonzero;"/><path d="M74.855,42.984c0.481,0 0.903,-0.158 1.266,-0.475c0.363,-0.316 0.545,-0.75 0.545,-1.3l0,-21.639c0,-0.539 -0.176,-0.967 -0.527,-1.283c-0.352,-0.317 -0.768,-0.475 -1.248,-0.475c-0.481,0 -0.897,0.158 -1.248,0.475c-0.352,0.316 -0.528,0.744 -0.528,1.283l0,21.639c0,0.574 0.17,1.013 0.51,1.318c0.34,0.305 0.75,0.457 1.23,0.457Z" style="fill:#fff;fill-rule:nonzero;"/><path d="M89.551,43.265c2.566,0 4.758,-0.802 6.574,-2.408c0.188,-0.152 0.325,-0.322 0.413,-0.51c0.088,-0.187 0.132,-0.381 0.132,-0.58c0,-0.211 -0.05,-0.41 -0.149,-0.597c-0.1,-0.188 -0.235,-0.337 -0.405,-0.449c-0.17,-0.111 -0.354,-0.167 -0.553,-0.167c-0.118,0 -0.232,0.021 -0.343,0.062c-0.112,0.041 -0.226,0.102 -0.343,0.184c-0.832,0.61 -1.647,1.093 -2.443,1.451c-0.797,0.357 -1.676,0.536 -2.637,0.536c-1.617,-0.024 -2.924,-0.51 -3.92,-1.459c-0.996,-0.949 -1.518,-2.397 -1.564,-4.342l11.777,0c0.375,0 0.656,-0.123 0.844,-0.369c0.187,-0.246 0.281,-0.563 0.281,-0.949c-0.024,-1.172 -0.196,-2.253 -0.519,-3.244c-0.322,-0.99 -0.791,-1.883 -1.406,-2.68c-0.615,-0.797 -1.441,-1.424 -2.478,-1.881c-1.038,-0.457 -2.23,-0.686 -3.578,-0.686c-1.324,0 -2.528,0.244 -3.612,0.73c-1.084,0.486 -1.977,1.142 -2.681,1.969c-0.703,0.826 -1.245,1.772 -1.626,2.838c-0.38,1.067 -0.571,2.198 -0.571,3.393c0,2.813 0.818,5.036 2.452,6.671c1.635,1.635 3.753,2.464 6.355,2.487Zm-5.203,-10.424c0.058,-0.668 0.202,-1.306 0.43,-1.916c0.229,-0.609 0.545,-1.169 0.95,-1.678c0.404,-0.51 0.922,-0.914 1.555,-1.213c0.633,-0.299 1.336,-0.448 2.11,-0.448c1.5,0 2.642,0.495 3.427,1.485c0.785,0.99 1.231,2.247 1.336,3.77l-9.808,0Z" style="fill:#fff;fill-rule:nonzero;"/><path d="M113.422,42.984c0.469,0 0.882,-0.164 1.239,-0.492c0.358,-0.328 0.536,-0.709 0.536,-1.143c0,-0.328 -0.117,-0.638 -0.351,-0.931l-5.309,-6.504l4.94,-6.082c0.222,-0.293 0.334,-0.586 0.334,-0.879c0,-0.399 -0.159,-0.747 -0.475,-1.046c-0.316,-0.299 -0.68,-0.448 -1.09,-0.448c-0.457,0 -0.867,0.222 -1.23,0.668l-4.395,5.431l-4.377,-5.361c-0.387,-0.492 -0.844,-0.738 -1.371,-0.738c-0.469,0 -0.879,0.167 -1.23,0.501c-0.352,0.334 -0.528,0.723 -0.528,1.169c0,0.351 0.112,0.668 0.334,0.949l4.852,5.941l-5.379,6.592c-0.211,0.246 -0.317,0.521 -0.317,0.826c0,0.399 0.167,0.756 0.501,1.072c0.334,0.317 0.718,0.475 1.152,0.475c0.445,0 0.844,-0.217 1.195,-0.65l4.781,-5.977l4.817,5.906c0.363,0.481 0.82,0.721 1.371,0.721Z" style="fill:#fff;fill-rule:nonzero;"/><path d="M121.086,42.984c0.48,0 0.899,-0.158 1.257,-0.475c0.357,-0.316 0.536,-0.75 0.536,-1.3l0,-13.975c0,-0.551 -0.176,-0.984 -0.527,-1.301c-0.352,-0.316 -0.762,-0.474 -1.231,-0.474c-0.48,0 -0.899,0.158 -1.257,0.474c-0.357,0.317 -0.536,0.75 -0.536,1.301l0,13.975c0,0.574 0.17,1.013 0.51,1.318c0.34,0.305 0.756,0.457 1.248,0.457Zm0.018,-21.375c0.656,0 1.186,-0.19 1.59,-0.571c0.405,-0.381 0.607,-0.882 0.607,-1.503c0,-0.621 -0.199,-1.125 -0.598,-1.512c-0.398,-0.387 -0.926,-0.58 -1.582,-0.58c-0.668,0 -1.207,0.193 -1.617,0.58c-0.41,0.387 -0.615,0.891 -0.615,1.512c0,0.621 0.205,1.122 0.615,1.503c0.41,0.381 0.943,0.571 1.6,0.571Z" style="fill:#fff;fill-rule:nonzero;"/><path d="M137.346,43.265c1.218,0 2.314,-0.249 3.287,-0.747c0.972,-0.498 1.766,-1.172 2.382,-2.021c0.615,-0.85 1.087,-1.82 1.415,-2.909c0.328,-1.09 0.492,-2.25 0.492,-3.481c0,-2.625 -0.703,-4.769 -2.109,-6.434c-1.407,-1.664 -3.317,-2.496 -5.731,-2.496c-2.648,0 -4.541,1.026 -5.678,3.077l0,-8.79c0,-0.527 -0.175,-0.934 -0.527,-1.221c-0.352,-0.287 -0.768,-0.431 -1.248,-0.431c-0.481,0 -0.894,0.144 -1.239,0.431c-0.346,0.287 -0.519,0.694 -0.519,1.221l0,21.815c0,0.527 0.176,0.94 0.527,1.239c0.352,0.299 0.768,0.448 1.248,0.448c0.563,0 0.997,-0.143 1.301,-0.43c0.305,-0.287 0.457,-0.706 0.457,-1.257l0,-1.248c1.16,2.156 3.141,3.234 5.942,3.234Zm-0.721,-2.408c-0.973,0 -1.802,-0.161 -2.487,-0.483c-0.686,-0.323 -1.222,-0.788 -1.609,-1.398c-0.386,-0.609 -0.668,-1.306 -0.843,-2.092c-0.176,-0.785 -0.264,-1.693 -0.264,-2.724c0,-0.68 0.056,-1.33 0.167,-1.951c0.111,-0.621 0.299,-1.216 0.562,-1.785c0.264,-0.568 0.586,-1.06 0.967,-1.476c0.381,-0.416 0.861,-0.747 1.442,-0.993c0.58,-0.246 1.227,-0.369 1.942,-0.369c0.891,0 1.664,0.196 2.32,0.588c0.657,0.393 1.163,0.917 1.521,1.574c0.357,0.656 0.621,1.353 0.791,2.091c0.17,0.739 0.255,1.512 0.255,2.321c0,0.609 -0.047,1.21 -0.141,1.802c-0.094,0.591 -0.255,1.186 -0.483,1.784c-0.229,0.597 -0.516,1.122 -0.862,1.573c-0.345,0.451 -0.802,0.817 -1.371,1.099c-0.568,0.281 -1.204,0.427 -1.907,0.439Z" style="fill:#fff;fill-rule:nonzero;"/><path d="M150.846,42.984c0.48,0 0.902,-0.158 1.265,-0.475c0.364,-0.316 0.545,-0.75 0.545,-1.3l0,-21.639c0,-0.539 -0.176,-0.967 -0.527,-1.283c-0.352,-0.317 -0.768,-0.475 -1.248,-0.475c-0.481,0 -0.897,0.158 -1.248,0.475c-0.352,0.316 -0.528,0.744 -0.528,1.283l0,21.639c0,0.574 0.17,1.013 0.51,1.318c0.34,0.305 0.75,0.457 1.231,0.457Z" style="fill:#fff;fill-rule:nonzero;"/><path d="M165.541,43.265c2.566,0 4.758,-0.802 6.574,-2.408c0.188,-0.152 0.325,-0.322 0.413,-0.51c0.088,-0.187 0.132,-0.381 0.132,-0.58c0,-0.211 -0.05,-0.41 -0.149,-0.597c-0.1,-0.188 -0.235,-0.337 -0.405,-0.449c-0.169,-0.111 -0.354,-0.167 -0.553,-0.167c-0.117,0 -0.232,0.021 -0.343,0.062c-0.111,0.041 -0.226,0.102 -0.343,0.184c-0.832,0.61 -1.646,1.093 -2.443,1.451c-0.797,0.357 -1.676,0.536 -2.637,0.536c-1.617,-0.024 -2.924,-0.51 -3.92,-1.459c-0.996,-0.949 -1.517,-2.397 -1.564,-4.342l11.777,0c0.375,0 0.656,-0.123 0.844,-0.369c0.187,-0.246 0.281,-0.563 0.281,-0.949c-0.023,-1.172 -0.196,-2.253 -0.518,-3.244c-0.323,-0.99 -0.791,-1.883 -1.407,-2.68c-0.615,-0.797 -1.441,-1.424 -2.478,-1.881c-1.037,-0.457 -2.23,-0.686 -3.577,-0.686c-1.325,0 -2.529,0.244 -3.613,0.73c-1.084,0.486 -1.977,1.142 -2.68,1.969c-0.703,0.826 -1.245,1.772 -1.626,2.838c-0.381,1.067 -0.572,2.198 -0.572,3.393c0,2.813 0.818,5.036 2.453,6.671c1.634,1.635 3.752,2.464 6.354,2.487Zm-5.203,-10.424c0.058,-0.668 0.202,-1.306 0.431,-1.916c0.228,-0.609 0.544,-1.169 0.949,-1.678c0.404,-0.51 0.923,-0.914 1.555,-1.213c0.633,-0.299 1.336,-0.448 2.11,-0.448c1.5,0 2.642,0.495 3.428,1.485c0.785,0.99 1.23,2.247 1.335,3.77l-9.808,0Z" style="fill:#fff;fill-rule:nonzero;"/><path d="M189.289,42.984c0.481,0 0.902,-0.158 1.266,-0.475c0.363,-0.316 0.545,-0.75 0.545,-1.3l0,-21.639c0,-0.539 -0.176,-0.967 -0.528,-1.283c-0.351,-0.317 -0.767,-0.475 -1.248,-0.475c-0.48,0 -0.896,0.158 -1.248,0.475c-0.351,0.316 -0.527,0.744 -0.527,1.283l0,21.639c0,0.574 0.17,1.013 0.51,1.318c0.339,0.305 0.75,0.457 1.23,0.457Z" style="fill:#fff;fill-rule:nonzero;"/><path d="M198.113,42.984c0.481,0 0.9,-0.158 1.257,-0.475c0.358,-0.316 0.536,-0.75 0.536,-1.3l0,-13.975c0,-0.551 -0.176,-0.984 -0.527,-1.301c-0.352,-0.316 -0.762,-0.474 -1.231,-0.474c-0.48,0 -0.899,0.158 -1.256,0.474c-0.358,0.317 -0.537,0.75 -0.537,1.301l0,13.975c0,0.574 0.17,1.013 0.51,1.318c0.34,0.305 0.756,0.457 1.248,0.457Zm0.018,-21.375c0.656,0 1.186,-0.19 1.591,-0.571c0.404,-0.381 0.606,-0.882 0.606,-1.503c0,-0.621 -0.199,-1.125 -0.598,-1.512c-0.398,-0.387 -0.925,-0.58 -1.582,-0.58c-0.668,0 -1.207,0.193 -1.617,0.58c-0.41,0.387 -0.615,0.891 -0.615,1.512c0,0.621 0.205,1.122 0.615,1.503c0.41,0.381 0.944,0.571 1.6,0.571Z" style="fill:#fff;fill-rule:nonzero;"/><path d="M212.264,43.265c2.332,0 4.119,-0.515 5.361,-1.547c0.211,-0.175 0.366,-0.363 0.466,-0.562c0.099,-0.199 0.149,-0.393 0.149,-0.58c0,-0.141 -0.026,-0.279 -0.079,-0.413c-0.053,-0.135 -0.129,-0.249 -0.228,-0.343c-0.1,-0.094 -0.214,-0.167 -0.343,-0.22c-0.129,-0.053 -0.27,-0.079 -0.422,-0.079c-0.129,0 -0.261,0.021 -0.396,0.062c-0.134,0.041 -0.266,0.108 -0.395,0.202c-1.02,0.715 -2.303,1.072 -3.85,1.072c-1.113,0 -2.071,-0.305 -2.874,-0.914c-0.802,-0.609 -1.391,-1.406 -1.766,-2.391c-0.375,-0.984 -0.563,-2.091 -0.563,-3.322c0,-2.016 0.489,-3.63 1.468,-4.843c0.979,-1.213 2.282,-1.819 3.911,-1.819c1.242,0 2.373,0.311 3.393,0.932c0.246,0.14 0.498,0.211 0.756,0.211c0.21,0 0.401,-0.044 0.571,-0.132c0.17,-0.088 0.305,-0.211 0.404,-0.369c0.1,-0.159 0.15,-0.331 0.15,-0.519c0,-0.41 -0.223,-0.779 -0.668,-1.107c-0.516,-0.387 -1.193,-0.718 -2.031,-0.994c-0.838,-0.275 -1.772,-0.413 -2.803,-0.413c-1.723,0 -3.249,0.408 -4.579,1.222c-1.331,0.814 -2.347,1.904 -3.05,3.27c-0.703,1.365 -1.055,2.879 -1.055,4.544c0,1.675 0.334,3.196 1.002,4.561c0.668,1.365 1.652,2.455 2.953,3.27c1.301,0.814 2.807,1.221 4.518,1.221Z" style="fill:#fff;fill-rule:nonzero;"/><path d="M229.561,43.265c2.566,0 4.757,-0.802 6.574,-2.408c0.187,-0.152 0.325,-0.322 0.413,-0.51c0.088,-0.187 0.132,-0.381 0.132,-0.58c0,-0.211 -0.05,-0.41 -0.15,-0.597c-0.099,-0.188 -0.234,-0.337 -0.404,-0.449c-0.17,-0.111 -0.355,-0.167 -0.554,-0.167c-0.117,0 -0.231,0.021 -0.343,0.062c-0.111,0.041 -0.225,0.102 -0.342,0.184c-0.832,0.61 -1.647,1.093 -2.444,1.451c-0.797,0.357 -1.675,0.536 -2.636,0.536c-1.618,-0.024 -2.924,-0.51 -3.92,-1.459c-0.996,-0.949 -1.518,-2.397 -1.565,-4.342l11.778,0c0.375,0 0.656,-0.123 0.843,-0.369c0.188,-0.246 0.282,-0.563 0.282,-0.949c-0.024,-1.172 -0.197,-2.253 -0.519,-3.244c-0.322,-0.99 -0.791,-1.883 -1.406,-2.68c-0.615,-0.797 -1.442,-1.424 -2.479,-1.881c-1.037,-0.457 -2.229,-0.686 -3.577,-0.686c-1.324,0 -2.528,0.244 -3.612,0.73c-1.084,0.486 -1.978,1.142 -2.681,1.969c-0.703,0.826 -1.245,1.772 -1.626,2.838c-0.381,1.067 -0.571,2.198 -0.571,3.393c0,2.813 0.817,5.036 2.452,6.671c1.635,1.635 3.753,2.464 6.355,2.487Zm-5.204,-10.424c0.059,-0.668 0.203,-1.306 0.431,-1.916c0.229,-0.609 0.545,-1.169 0.949,-1.678c0.405,-0.51 0.923,-0.914 1.556,-1.213c0.633,-0.299 1.336,-0.448 2.109,-0.448c1.5,0 2.643,0.495 3.428,1.485c0.785,0.99 1.231,2.247 1.336,3.77l-9.809,0Z" style="fill:#fff;fill-rule:nonzero;"/><path d="M243.008,42.984c0.48,0 0.896,-0.149 1.248,-0.448c0.351,-0.299 0.527,-0.712 0.527,-1.239l0,-8.35c0.047,-1.641 0.528,-2.944 1.442,-3.911c0.914,-0.967 2.021,-1.45 3.322,-1.45c1.16,0 2.08,0.369 2.76,1.107c0.679,0.738 1.019,1.811 1.019,3.217l0,9.387c0,0.527 0.173,0.94 0.519,1.239c0.345,0.299 0.759,0.448 1.239,0.448c0.48,0 0.899,-0.149 1.257,-0.448c0.357,-0.299 0.536,-0.712 0.536,-1.239l0,-9.352c0,-1.148 -0.164,-2.165 -0.492,-3.05c-0.328,-0.885 -0.788,-1.594 -1.38,-2.127c-0.592,-0.533 -1.266,-0.931 -2.022,-1.195c-0.755,-0.264 -1.585,-0.396 -2.487,-0.396c-1.336,0 -2.505,0.27 -3.507,0.809c-1.002,0.539 -1.737,1.318 -2.206,2.338l0,-1.248c0,-0.504 -0.173,-0.897 -0.518,-1.178c-0.346,-0.281 -0.759,-0.422 -1.24,-0.422c-0.48,0 -0.896,0.144 -1.248,0.431c-0.351,0.287 -0.527,0.694 -0.527,1.222l0,14.168c0,0.527 0.173,0.94 0.519,1.239c0.345,0.299 0.758,0.448 1.239,0.448Z" style="fill:#fff;fill-rule:nonzero;"/><path d="M261.729,41.349c1.253,0.891 2.8,1.489 4.64,1.793c0.68,0.106 1.348,0.158 2.004,0.158c1.008,0 1.931,-0.111 2.769,-0.334c0.837,-0.222 1.573,-0.553 2.206,-0.993c0.632,-0.439 1.125,-1.01 1.476,-1.714c0.352,-0.703 0.528,-1.505 0.528,-2.408c0,-1.289 -0.399,-2.338 -1.196,-3.146c-0.797,-0.809 -2.092,-1.442 -3.885,-1.899l-2.953,-0.72c-1.183,-0.293 -1.96,-0.581 -2.329,-0.862c-0.369,-0.281 -0.553,-0.756 -0.553,-1.424c0,-0.527 0.178,-0.969 0.536,-1.327c0.357,-0.357 0.82,-0.609 1.388,-0.756c0.569,-0.146 1.222,-0.219 1.96,-0.219c0.246,0 0.498,0.011 0.756,0.035c0.258,0.023 0.492,0.053 0.703,0.088c0.211,0.035 0.434,0.079 0.668,0.132c0.235,0.052 0.437,0.105 0.607,0.158c0.17,0.052 0.357,0.111 0.562,0.176c0.205,0.064 0.366,0.12 0.484,0.167c0.117,0.046 0.26,0.102 0.43,0.167c0.17,0.064 0.284,0.108 0.343,0.131c0.211,0.071 0.404,0.106 0.58,0.106c0.164,0 0.317,-0.029 0.457,-0.088c0.141,-0.059 0.258,-0.138 0.352,-0.237c0.093,-0.1 0.164,-0.217 0.211,-0.352c0.047,-0.135 0.07,-0.272 0.07,-0.413c0,-0.504 -0.252,-0.879 -0.756,-1.125c-0.68,-0.352 -1.517,-0.659 -2.514,-0.923c-0.996,-0.264 -2.068,-0.395 -3.216,-0.395c-2.555,0 -4.442,0.586 -5.661,1.757c-0.832,0.809 -1.248,1.834 -1.248,3.077c0,0.457 0.044,0.873 0.132,1.248c0.088,0.375 0.202,0.703 0.343,0.984c0.141,0.281 0.34,0.539 0.598,0.773c0.258,0.235 0.518,0.434 0.782,0.598c0.264,0.164 0.606,0.325 1.028,0.484c0.422,0.158 0.818,0.292 1.187,0.404c0.369,0.111 0.829,0.237 1.38,0.378l2.988,0.756c0.961,0.246 1.658,0.568 2.092,0.966c0.433,0.399 0.65,0.92 0.65,1.565c0,0.937 -0.384,1.64 -1.151,2.109c-0.768,0.469 -1.755,0.703 -2.962,0.703c-1.723,0 -3.399,-0.498 -5.027,-1.494c-0.282,-0.164 -0.557,-0.246 -0.827,-0.246c-0.34,0 -0.621,0.117 -0.843,0.352c-0.223,0.234 -0.334,0.504 -0.334,0.808c0,0.41 0.181,0.744 0.545,1.002Z" style="fill:#fff;fill-rule:nonzero;"/><path d="M281.346,42.984c0.48,0 0.899,-0.158 1.257,-0.475c0.357,-0.316 0.536,-0.75 0.536,-1.3l0,-13.975c0,-0.551 -0.176,-0.984 -0.528,-1.301c-0.351,-0.316 -0.761,-0.474 -1.23,-0.474c-0.481,0 -0.9,0.158 -1.257,0.474c-0.357,0.317 -0.536,0.75 -0.536,1.301l0,13.975c0,0.574 0.17,1.013 0.51,1.318c0.34,0.305 0.756,0.457 1.248,0.457Zm0.017,-21.375c0.657,0 1.187,-0.19 1.591,-0.571c0.404,-0.381 0.607,-0.882 0.607,-1.503c0,-0.621 -0.2,-1.125 -0.598,-1.512c-0.399,-0.387 -0.926,-0.58 -1.582,-0.58c-0.668,0 -1.207,0.193 -1.617,0.58c-0.41,0.387 -0.616,0.891 -0.616,1.512c0,0.621 0.206,1.122 0.616,1.503c0.41,0.381 0.943,0.571 1.599,0.571Z" style="fill:#fff;fill-rule:nonzero;"/><path d="M289.889,42.984c0.48,0 0.896,-0.149 1.248,-0.448c0.351,-0.299 0.527,-0.712 0.527,-1.239l0,-8.35c0.047,-1.641 0.527,-2.944 1.441,-3.911c0.915,-0.967 2.022,-1.45 3.323,-1.45c1.16,0 2.08,0.369 2.76,1.107c0.679,0.738 1.019,1.811 1.019,3.217l0,9.387c0,0.527 0.173,0.94 0.519,1.239c0.345,0.299 0.758,0.448 1.239,0.448c0.48,0 0.899,-0.149 1.257,-0.448c0.357,-0.299 0.536,-0.712 0.536,-1.239l0,-9.352c0,-1.148 -0.164,-2.165 -0.492,-3.05c-0.328,-0.885 -0.788,-1.594 -1.38,-2.127c-0.592,-0.533 -1.266,-0.931 -2.022,-1.195c-0.756,-0.264 -1.585,-0.396 -2.487,-0.396c-1.336,0 -2.505,0.27 -3.507,0.809c-1.002,0.539 -1.737,1.318 -2.206,2.338l0,-1.248c0,-0.504 -0.173,-0.897 -0.518,-1.178c-0.346,-0.281 -0.759,-0.422 -1.24,-0.422c-0.48,0 -0.896,0.144 -1.248,0.431c-0.351,0.287 -0.527,0.694 -0.527,1.222l0,14.168c0,0.527 0.173,0.94 0.518,1.239c0.346,0.299 0.759,0.448 1.24,0.448Z" style="fill:#fff;fill-rule:nonzero;"/><path d="M316.08,50.543c2.637,0 4.723,-0.645 6.258,-1.934c1.535,-1.289 2.303,-3.229 2.303,-5.818l0,-15.662c0,-0.528 -0.164,-0.938 -0.493,-1.231c-0.328,-0.293 -0.72,-0.439 -1.177,-0.439c-0.41,0 -0.774,0.123 -1.09,0.369c-0.317,0.246 -0.498,0.592 -0.545,1.037l0,1.441c-0.586,-1.008 -1.321,-1.781 -2.206,-2.32c-0.885,-0.539 -2.054,-0.809 -3.507,-0.809c-2.484,0 -4.444,0.859 -5.88,2.576c-1.435,1.716 -2.153,3.905 -2.153,6.565c0,2.566 0.729,4.652 2.188,6.258c1.459,1.605 3.443,2.408 5.951,2.408c1.277,0 2.387,-0.278 3.331,-0.835c0.943,-0.557 1.667,-1.339 2.17,-2.347l0,3.182c0,1.641 -0.465,2.909 -1.397,3.806c-0.932,0.896 -2.265,1.344 -3.999,1.344c-0.527,0 -1.061,-0.046 -1.6,-0.14c-0.539,-0.094 -0.937,-0.176 -1.195,-0.246c-0.258,-0.071 -0.668,-0.208 -1.23,-0.413c-0.563,-0.205 -0.868,-0.32 -0.914,-0.343c-0.153,-0.059 -0.305,-0.088 -0.457,-0.088c-0.165,0 -0.317,0.032 -0.458,0.097c-0.14,0.064 -0.26,0.152 -0.36,0.263c-0.099,0.112 -0.179,0.241 -0.237,0.387c-0.059,0.146 -0.088,0.296 -0.088,0.448c0,0.469 0.223,0.832 0.668,1.09c0.644,0.375 1.506,0.694 2.584,0.958c1.078,0.264 2.256,0.396 3.533,0.396Zm0.211,-9.897c-0.703,0 -1.359,-0.129 -1.969,-0.387c-0.609,-0.257 -1.154,-0.641 -1.634,-1.151c-0.481,-0.51 -0.862,-1.184 -1.143,-2.021c-0.281,-0.838 -0.422,-1.796 -0.422,-2.874c0,-0.727 0.062,-1.413 0.185,-2.057c0.123,-0.645 0.319,-1.248 0.588,-1.811c0.27,-0.562 0.604,-1.046 1.002,-1.45c0.399,-0.404 0.888,-0.723 1.468,-0.958c0.58,-0.234 1.222,-0.351 1.925,-0.351c0.727,0 1.374,0.117 1.942,0.351c0.569,0.235 1.038,0.551 1.407,0.949c0.369,0.399 0.673,0.882 0.914,1.451c0.24,0.568 0.41,1.168 0.509,1.801c0.1,0.633 0.15,1.319 0.15,2.057c0,2.098 -0.457,3.697 -1.371,4.799c-0.914,1.101 -2.098,1.652 -3.551,1.652Z" style="fill:#fff;fill-rule:nonzero;"/><path d="M347.563,40.857c-1.688,0 -3.012,-0.592 -3.973,-1.775c-0.961,-1.184 -1.442,-2.801 -1.442,-4.852c0,-2.062 0.478,-3.685 1.433,-4.869c0.955,-1.184 2.282,-1.775 3.982,-1.775c1.687,0 3.011,0.594 3.972,1.784c0.961,1.189 1.442,2.809 1.442,4.86c0,2.063 -0.475,3.68 -1.424,4.852c-0.949,1.172 -2.28,1.763 -3.99,1.775Zm0,2.408c1.417,0 2.701,-0.243 3.849,-0.729c1.149,-0.487 2.086,-1.146 2.813,-1.978c0.726,-0.832 1.283,-1.79 1.67,-2.874c0.386,-1.084 0.58,-2.235 0.58,-3.454c0,-1.687 -0.337,-3.208 -1.011,-4.561c-0.674,-1.354 -1.693,-2.441 -3.059,-3.261c-1.365,-0.82 -2.979,-1.231 -4.842,-1.231c-1.418,0 -2.699,0.241 -3.841,0.721c-1.143,0.481 -2.08,1.137 -2.813,1.969c-0.732,0.832 -1.292,1.79 -1.679,2.874c-0.386,1.084 -0.58,2.247 -0.58,3.489c0,1.231 0.194,2.385 0.58,3.463c0.387,1.078 0.944,2.033 1.67,2.865c0.727,0.832 1.664,1.491 2.813,1.978c1.148,0.486 2.432,0.729 3.85,0.729Z" style="fill:#fff;fill-rule:nonzero;"/><path d="M362.135,49.681c0.48,0 0.896,-0.146 1.248,-0.439c0.351,-0.293 0.527,-0.697 0.527,-1.213l0,-7.857c1.137,2.062 3.029,3.093 5.678,3.093c2.414,0 4.324,-0.835 5.73,-2.505c1.407,-1.67 2.11,-3.817 2.11,-6.442c0,-1.23 -0.164,-2.388 -0.492,-3.472c-0.329,-1.084 -0.8,-2.05 -1.415,-2.9c-0.616,-0.85 -1.41,-1.524 -2.382,-2.022c-0.973,-0.498 -2.069,-0.747 -3.287,-0.747c-2.801,0 -4.782,1.073 -5.942,3.217l0,-1.248c0,-0.539 -0.152,-0.952 -0.457,-1.239c-0.305,-0.287 -0.738,-0.431 -1.301,-0.431c-0.48,0 -0.896,0.15 -1.248,0.448c-0.351,0.299 -0.527,0.712 -0.527,1.24l0,20.865c0,0.516 0.176,0.92 0.527,1.213c0.352,0.293 0.762,0.439 1.231,0.439Zm6.873,-8.824c-0.715,0 -1.362,-0.123 -1.943,-0.369c-0.58,-0.246 -1.06,-0.577 -1.441,-0.993c-0.381,-0.416 -0.703,-0.908 -0.967,-1.477c-0.263,-0.568 -0.451,-1.163 -0.562,-1.784c-0.112,-0.621 -0.167,-1.271 -0.167,-1.951c0,-1.031 0.088,-1.94 0.263,-2.725c0.176,-0.785 0.457,-1.482 0.844,-2.092c0.387,-0.609 0.923,-1.075 1.609,-1.397c0.685,-0.322 1.514,-0.483 2.487,-0.483c0.879,0 1.643,0.211 2.294,0.632c0.65,0.422 1.145,0.976 1.485,1.662c0.34,0.685 0.589,1.394 0.747,2.126c0.158,0.733 0.238,1.492 0.238,2.277c0,0.644 -0.05,1.265 -0.15,1.863c-0.099,0.598 -0.269,1.187 -0.51,1.767c-0.24,0.58 -0.542,1.084 -0.905,1.511c-0.363,0.428 -0.829,0.774 -1.397,1.038c-0.569,0.263 -1.21,0.395 -1.925,0.395Z" style="fill:#fff;fill-rule:nonzero;"/><path d="M387.395,43.195l0.843,0c0.258,0 0.481,-0.003 0.668,-0.009c0.188,-0.006 0.396,-0.02 0.624,-0.044c0.229,-0.023 0.419,-0.055 0.572,-0.096c0.152,-0.041 0.307,-0.097 0.465,-0.167c0.159,-0.071 0.285,-0.156 0.378,-0.255c0.094,-0.1 0.17,-0.226 0.229,-0.378c0.058,-0.153 0.088,-0.323 0.088,-0.51c0,-0.363 -0.126,-0.683 -0.378,-0.958c-0.252,-0.275 -0.595,-0.413 -1.029,-0.413c-0.035,0 -0.07,0 -0.105,0l-1.248,0.07c-0.059,0 -0.117,0 -0.176,0c-0.715,0 -1.23,-0.269 -1.547,-0.808c-0.316,-0.539 -0.474,-1.372 -0.474,-2.497l0,-9.193l3.146,0c0.422,0 0.738,-0.102 0.949,-0.307c0.211,-0.206 0.317,-0.478 0.317,-0.818c0,-0.34 -0.106,-0.621 -0.317,-0.844c-0.211,-0.222 -0.527,-0.334 -0.949,-0.334l-3.146,0l0,-5.027c0,-0.457 -0.126,-0.803 -0.378,-1.037c-0.252,-0.234 -0.572,-0.352 -0.958,-0.352c-0.457,0 -0.847,0.147 -1.169,0.44c-0.322,0.293 -0.513,0.662 -0.571,1.107l-0.475,4.869l-2.057,0c-0.422,0 -0.741,0.106 -0.958,0.317c-0.217,0.211 -0.325,0.486 -0.325,0.826c0,0.34 0.111,0.618 0.334,0.835c0.223,0.217 0.545,0.325 0.967,0.325l2.039,0l0,9.932c0,1.746 0.416,3.07 1.248,3.972c0.832,0.903 1.963,1.354 3.393,1.354Z" style="fill:#fff;fill-rule:nonzero;"/><path d="M396.588,42.984c0.48,0 0.899,-0.158 1.257,-0.475c0.357,-0.316 0.536,-0.75 0.536,-1.3l0,-13.975c0,-0.551 -0.176,-0.984 -0.527,-1.301c-0.352,-0.316 -0.762,-0.474 -1.231,-0.474c-0.48,0 -0.899,0.158 -1.257,0.474c-0.357,0.317 -0.536,0.75 -0.536,1.301l0,13.975c0,0.574 0.17,1.013 0.51,1.318c0.34,0.305 0.756,0.457 1.248,0.457Zm0.017,-21.375c0.657,0 1.187,-0.19 1.591,-0.571c0.405,-0.381 0.607,-0.882 0.607,-1.503c0,-0.621 -0.199,-1.125 -0.598,-1.512c-0.398,-0.387 -0.926,-0.58 -1.582,-0.58c-0.668,0 -1.207,0.193 -1.617,0.58c-0.41,0.387 -0.615,0.891 -0.615,1.512c0,0.621 0.205,1.122 0.615,1.503c0.41,0.381 0.943,0.571 1.599,0.571Z" style="fill:#fff;fill-rule:nonzero;"/><path d="M411.178,40.857c-1.688,0 -3.012,-0.592 -3.973,-1.775c-0.961,-1.184 -1.441,-2.801 -1.441,-4.852c0,-2.062 0.477,-3.685 1.432,-4.869c0.955,-1.184 2.283,-1.775 3.982,-1.775c1.687,0 3.011,0.594 3.972,1.784c0.961,1.189 1.442,2.809 1.442,4.86c0,2.063 -0.475,3.68 -1.424,4.852c-0.949,1.172 -2.279,1.763 -3.99,1.775Zm0,2.408c1.418,0 2.701,-0.243 3.849,-0.729c1.149,-0.487 2.086,-1.146 2.813,-1.978c0.726,-0.832 1.283,-1.79 1.67,-2.874c0.386,-1.084 0.58,-2.235 0.58,-3.454c0,-1.687 -0.337,-3.208 -1.011,-4.561c-0.674,-1.354 -1.693,-2.441 -3.058,-3.261c-1.366,-0.82 -2.98,-1.231 -4.843,-1.231c-1.418,0 -2.699,0.241 -3.841,0.721c-1.143,0.481 -2.08,1.137 -2.813,1.969c-0.732,0.832 -1.292,1.79 -1.678,2.874c-0.387,1.084 -0.58,2.247 -0.58,3.489c0,1.231 0.193,2.385 0.58,3.463c0.386,1.078 0.943,2.033 1.67,2.865c0.726,0.832 1.664,1.491 2.812,1.978c1.149,0.486 2.432,0.729 3.85,0.729Z" style="fill:#fff;fill-rule:nonzero;"/><path d="M425.75,42.984c0.48,0 0.896,-0.149 1.248,-0.448c0.352,-0.299 0.527,-0.712 0.527,-1.239l0,-8.35c0.047,-1.641 0.528,-2.944 1.442,-3.911c0.914,-0.967 2.021,-1.45 3.322,-1.45c1.16,0 2.08,0.369 2.76,1.107c0.68,0.738 1.019,1.811 1.019,3.217l0,9.387c0,0.527 0.173,0.94 0.519,1.239c0.346,0.299 0.759,0.448 1.239,0.448c0.481,0 0.9,-0.149 1.257,-0.448c0.357,-0.299 0.536,-0.712 0.536,-1.239l0,-9.352c0,-1.148 -0.164,-2.165 -0.492,-3.05c-0.328,-0.885 -0.788,-1.594 -1.38,-2.127c-0.592,-0.533 -1.266,-0.931 -2.021,-1.195c-0.756,-0.264 -1.585,-0.396 -2.488,-0.396c-1.336,0 -2.505,0.27 -3.507,0.809c-1.002,0.539 -1.737,1.318 -2.206,2.338l0,-1.248c0,-0.504 -0.172,-0.897 -0.518,-1.178c-0.346,-0.281 -0.759,-0.422 -1.239,-0.422c-0.481,0 -0.897,0.144 -1.248,0.431c-0.352,0.287 -0.528,0.694 -0.528,1.222l0,14.168c0,0.527 0.173,0.94 0.519,1.239c0.345,0.299 0.759,0.448 1.239,0.448Z" style="fill:#fff;fill-rule:nonzero;"/><path d="M444.471,41.349c1.254,0.891 2.8,1.489 4.64,1.793c0.68,0.106 1.348,0.158 2.004,0.158c1.008,0 1.931,-0.111 2.769,-0.334c0.838,-0.222 1.573,-0.553 2.206,-0.993c0.633,-0.439 1.125,-1.01 1.476,-1.714c0.352,-0.703 0.528,-1.505 0.528,-2.408c0,-1.289 -0.399,-2.338 -1.196,-3.146c-0.796,-0.809 -2.091,-1.442 -3.884,-1.899l-2.953,-0.72c-1.184,-0.293 -1.96,-0.581 -2.33,-0.862c-0.369,-0.281 -0.553,-0.756 -0.553,-1.424c0,-0.527 0.178,-0.969 0.536,-1.327c0.357,-0.357 0.82,-0.609 1.389,-0.756c0.568,-0.146 1.221,-0.219 1.959,-0.219c0.247,0 0.499,0.011 0.756,0.035c0.258,0.023 0.493,0.053 0.703,0.088c0.211,0.035 0.434,0.079 0.668,0.132c0.235,0.052 0.437,0.105 0.607,0.158c0.17,0.052 0.357,0.111 0.562,0.176c0.205,0.064 0.367,0.12 0.484,0.167c0.117,0.046 0.261,0.102 0.43,0.167c0.17,0.064 0.285,0.108 0.343,0.131c0.211,0.071 0.405,0.106 0.58,0.106c0.164,0 0.317,-0.029 0.457,-0.088c0.141,-0.059 0.258,-0.138 0.352,-0.237c0.094,-0.1 0.164,-0.217 0.211,-0.352c0.047,-0.135 0.07,-0.272 0.07,-0.413c0,-0.504 -0.252,-0.879 -0.756,-1.125c-0.679,-0.352 -1.517,-0.659 -2.513,-0.923c-0.996,-0.264 -2.069,-0.395 -3.217,-0.395c-2.555,0 -4.442,0.586 -5.66,1.757c-0.832,0.809 -1.248,1.834 -1.248,3.077c0,0.457 0.044,0.873 0.131,1.248c0.088,0.375 0.203,0.703 0.343,0.984c0.141,0.281 0.34,0.539 0.598,0.773c0.258,0.235 0.518,0.434 0.782,0.598c0.264,0.164 0.607,0.325 1.028,0.484c0.422,0.158 0.818,0.292 1.187,0.404c0.369,0.111 0.829,0.237 1.38,0.378l2.988,0.756c0.961,0.246 1.658,0.568 2.092,0.966c0.434,0.399 0.65,0.92 0.65,1.565c0,0.937 -0.383,1.64 -1.151,2.109c-0.768,0.469 -1.755,0.703 -2.962,0.703c-1.723,0 -3.398,-0.498 -5.027,-1.494c-0.282,-0.164 -0.557,-0.246 -0.826,-0.246c-0.34,0 -0.622,0.117 -0.844,0.352c-0.223,0.234 -0.334,0.504 -0.334,0.808c0,0.41 0.181,0.744 0.545,1.002Z" style="fill:#fff;fill-rule:nonzero;"/></g></g></g></g></g></svg>