<?xml version="1.0" encoding="UTF-8" standalone="no"?><!DOCTYPE svg PUBLIC "-//W3C//DTD SVG 1.1//EN" "http://www.w3.org/Graphics/SVG/1.1/DTD/svg11.dtd"><svg width="100%" height="100%" viewBox="0 0 720 719" version="1.1" xmlns="http://www.w3.org/2000/svg" xmlns:xlink="http://www.w3.org/1999/xlink" xml:space="preserve" xmlns:serif="http://www.serif.com/" style="fill-rule:evenodd;clip-rule:evenodd;"><g id="Group-35"><g id="Group-17"><circle id="Oval-2-Copy" cx="360" cy="358" r="350" style="fill:#fff;stroke:#979797;stroke-width:2px;"/><g id="Group-49"><path id="Stroke-47" d="M191,476l338,0" style="fill:none;stroke:#a2a2a3;stroke-width:2px;"/></g><g id="MSSP"><text x="199px" y="473px" style="font-family:'Nunito-Bold', 'Nunito';font-weight:700;font-size:106px;fill:#636466;">M<tspan x="295.169px 369.819px " y="473px 473px ">SS</tspan></text><text x="443.277px" y="473px" style="font-family:'Nunito-Bold', 'Nunito';font-weight:700;font-size:106px;fill:#636466;">P</text></g><g id="Group-15"><g id="PARTNER"><text x="199.412px" y="547px" style="font-family:'Nunito-Bold', 'Nunito';font-weight:700;font-size:56px;fill:#636466;">P<tspan x="237.772px 284.924px 328.324px 368.252px 415.684px " y="547px 547px 547px 547px 547px ">ARTNE</tspan></text><text x="480.668px" y="547px" style="font-family:'Nunito-Bold', 'Nunito';font-weight:700;font-size:56px;fill:#636466;">R</text></g><g id="PROGRAM"><text x="198.304px" y="608px" style="font-family:'Nunito-Bold', 'Nunito';font-weight:700;font-size:56px;fill:#636466;">P<tspan x="238.624px 280.624px 327.608px 372.016px 413.848px " y="608px 608px 608px 608px 608px ">ROGRA</tspan></text><text x="474.6px" y="608px" style="font-family:'Nunito-Bold', 'Nunito';font-weight:700;font-size:56px;fill:#636466;">M</text></g></g><g id="Icon_Service_MySonicWall_Color"><path id="Combined-Shape" d="M401.726,325.809c-0.142,-0.135 -0.284,-0.27 -0.426,-0.405c-8.757,-8.355 -14.475,-16.431 -15.827,-22.861c-0.964,-4.582 0.295,-8.131 5.039,-12.001c10.069,-8.211 28.191,-15.862 51.75,-22.462c5.495,-1.539 11.151,-2.986 16.906,-4.34c0.775,7.87 1.133,16.796 1.293,26.956c0.06,3.826 0.092,4.488 0.108,4.146c-0.002,1.014 -0.003,2.505 -0.003,4.648c0,0 -9.611,19.449 -58.84,26.319l0,0Zm-45.097,2.303c-46.584,-0.806 -75.396,-9.117 -86.436,-24.934c-1.422,-2.037 -2.185,-4.461 -2.188,-6.946c-0.002,-1.578 -0.003,-2.586 -0.005,-3.025c0.016,0.552 0.057,0.302 0.146,-4.453c1.085,-58.235 9.339,-75.024 68.225,-85.693c0,0 8.382,10.721 27.916,10.721c19.533,0 27.914,-10.721 27.914,-10.721c30.114,5.456 46.987,12.513 56.431,25.894c-3.843,-0.199 -7.534,-0.351 -11.057,-0.453c-33.551,-0.966 -61.447,1.816 -80.869,9.217c-25.963,9.892 -37.395,28.921 -28.136,54.34c4.845,13.305 14.604,25.245 28.059,36.053Zm7.658,-129.821c-28.154,0 -50.979,-25.137 -50.979,-56.145c0,-31.009 7.496,-56.146 50.979,-56.146c43.484,0 50.978,25.137 50.978,56.146c0,31.008 -22.825,56.145 -50.978,56.145Z" style="fill:#80808a;fill-rule:nonzero;"/><path id="Combined-Shape1" serif:id="Combined-Shape" d="M363.81,235.539l0,-21.797c0.417,0.01 0.84,0.016 1.267,0.016c19.374,0 27.685,-10.72 27.685,-10.72c29.867,5.456 46.601,12.511 55.968,25.89c-3.811,-0.199 -7.472,-0.352 -10.966,-0.453c-29.83,-0.866 -55.153,1.28 -73.954,7.064Zm95.37,28.167c0.768,7.869 1.123,16.793 1.282,26.951c0.06,3.825 0.091,4.487 0.107,4.146c0,0.299 -0.001,0.77 -0.002,1.412c-0.002,2.467 -0.754,4.875 -2.157,6.905c-8.336,12.057 -26.911,19.754 -55.726,23.093c-0.301,-0.284 -0.6,-0.568 -0.897,-0.854c-8.685,-8.354 -14.356,-16.428 -15.698,-22.858c-0.955,-4.581 0.293,-8.129 4.999,-11.998c9.986,-8.209 27.959,-15.859 51.325,-22.457c5.45,-1.539 11.059,-2.986 16.767,-4.34l0,0Zm-95.37,-65.454l0,-112.245c0.419,-0.005 0.842,-0.007 1.268,-0.007c43.127,0 50.559,25.132 50.559,56.135c0,31.002 -22.637,56.135 -50.559,56.135c-0.424,0 -0.846,-0.006 -1.268,-0.018Z" style="fill:#53535a;fill-rule:nonzero;"/><path id="Fill-1" d="M415.09,349c0,0 -61.715,-22.543 -75.322,-60.054c-15.236,-41.99 41.253,-51.575 99.037,-49.905c31.139,0.901 69.195,5.704 69.195,5.704c0,0 -89.911,11.615 -122.401,38.211c-31.723,25.973 29.491,66.044 29.491,66.044" style="fill:#ff6c0c;"/></g></g></g></svg>