<?xml version="1.0" encoding="UTF-8" standalone="no"?>
<!DOCTYPE svg PUBLIC "-//W3C//DTD SVG 1.1//EN" "http://www.w3.org/Graphics/SVG/1.1/DTD/svg11.dtd">
<svg width="100%" height="100%" viewBox="0 0 65 114" version="1.1" xmlns="http://www.w3.org/2000/svg" xmlns:xlink="http://www.w3.org/1999/xlink" xml:space="preserve" xmlns:serif="http://www.serif.com/" style="fill-rule:evenodd;clip-rule:evenodd;stroke-linejoin:round;stroke-miterlimit:1.41421;">
    <g id="Group-16" transform="matrix(1,0,0,1,-15,-73)">
        <g id="Group-9">
            <g transform="matrix(1,0,0,1,0,172.846)">
                <g id="_1-copy" serif:id="1-copy">
                    <path d="M45.527,0C47.578,0 49.367,-0.638 50.894,-1.914C52.42,-3.19 53.184,-4.99 53.184,-7.314L53.184,-90.371C53.184,-92.741 52.466,-94.587 51.03,-95.908C49.595,-97.23 47.874,-97.891 45.869,-97.891C44.137,-97.799 42.747,-97.435 41.699,-96.797L17.842,-82.1C16.064,-80.96 15.176,-79.479 15.176,-77.656C15.176,-76.198 15.723,-74.899 16.816,-73.76C17.91,-72.62 19.209,-72.051 20.713,-72.051C21.761,-72.051 22.718,-72.347 23.584,-72.939L37.871,-82.1L37.939,-7.314C37.939,-4.99 38.68,-3.19 40.161,-1.914C41.642,-0.638 43.431,0 45.527,0Z" style="fill:rgb(255,108,14);fill-rule:nonzero;"/>
                </g>
            </g>
        </g>
    </g>
</svg>
