<?xml version="1.0" encoding="UTF-8" standalone="no"?>
<!DOCTYPE svg PUBLIC "-//W3C//DTD SVG 1.1//EN" "http://www.w3.org/Graphics/SVG/1.1/DTD/svg11.dtd">
<svg width="100%" height="100%" viewBox="0 0 96 114" version="1.1" xmlns="http://www.w3.org/2000/svg" xmlns:xlink="http://www.w3.org/1999/xlink" xml:space="preserve" xmlns:serif="http://www.serif.com/" style="fill-rule:evenodd;clip-rule:evenodd;stroke-linecap:round;">
    <g transform="matrix(1,0,0,1,-3125,0)">
        <g id="Group-16" transform="matrix(1,0,0,1,-15,-73)">
            <g id="Group-5-Copy" transform="matrix(1,0,0,1,2524,186.846)">
                <circle id="Oval" cx="308.83" cy="309" r="308.74" style="fill:white;stroke:rgb(99,101,105);stroke-width:2px;"/>
            </g>
            <g id="Group-14" transform="matrix(1,0,0,1,3147,0)">
                <g transform="matrix(1,0,0,1,0,172.846)">
                    <g id="_3-copy" serif:id="3-copy">
                        <path d="M38.76,1.504C43.363,1.504 47.658,0.957 51.646,-0.137C55.633,-1.23 59.211,-2.871 62.378,-5.059C65.545,-7.246 68.04,-10.151 69.863,-13.774C71.686,-17.397 72.598,-21.533 72.598,-26.182C72.598,-32.653 71.025,-38.099 67.881,-42.52C64.736,-46.94 60.247,-49.925 54.414,-51.475C65.078,-55.622 70.41,-62.913 70.41,-73.35C70.41,-79.046 68.929,-83.934 65.967,-88.013C63.005,-92.091 59.119,-95.099 54.312,-97.036C49.504,-98.973 44.092,-99.941 38.076,-99.941C33.245,-99.941 28.415,-99.303 23.584,-98.027C18.753,-96.751 15.13,-95.361 12.715,-93.857C11.211,-92.9 10.459,-91.51 10.459,-89.688C10.459,-87.956 11.04,-86.361 12.202,-84.902C13.364,-83.444 14.697,-82.715 16.201,-82.715C16.794,-82.715 17.386,-82.852 17.979,-83.125C20.439,-84.401 23.413,-85.461 26.899,-86.304C30.386,-87.147 33.906,-87.568 37.461,-87.568C42.292,-87.568 46.416,-86.292 49.834,-83.74C53.252,-81.188 54.961,-77.474 54.961,-72.598C54.961,-67.357 53.07,-63.358 49.287,-60.601C45.505,-57.843 40.537,-56.465 34.385,-56.465L29.531,-56.465C27.891,-56.465 26.637,-55.907 25.771,-54.79C24.906,-53.674 24.473,-52.363 24.473,-50.859C24.473,-49.355 24.906,-48.057 25.771,-46.963C26.637,-45.869 27.891,-45.322 29.531,-45.322L34.932,-45.322C41.312,-45.322 46.621,-43.59 50.859,-40.127C55.098,-36.663 57.217,-32.083 57.217,-26.387C57.217,-21.328 55.439,-17.477 51.885,-14.834C48.33,-12.191 43.613,-10.869 37.734,-10.869C31.855,-10.869 25.658,-12.396 19.141,-15.449C18.594,-15.677 18.024,-15.791 17.432,-15.791C16.429,-15.791 15.461,-15.472 14.526,-14.834C13.592,-14.196 12.852,-13.364 12.305,-12.339C11.758,-11.313 11.484,-10.254 11.484,-9.16C11.484,-6.836 12.669,-5.081 15.039,-3.896C21.738,-0.296 29.645,1.504 38.76,1.504Z" style="fill:rgb(255,108,14);fill-rule:nonzero;"/>
                    </g>
                </g>
            </g>
        </g>
    </g>
</svg>
