<?xml version="1.0" encoding="UTF-8" standalone="no"?>
<!DOCTYPE svg PUBLIC "-//W3C//DTD SVG 1.1//EN" "http://www.w3.org/Graphics/SVG/1.1/DTD/svg11.dtd">
<svg width="100%" height="100%" viewBox="0 0 630 630" version="1.1" xmlns="http://www.w3.org/2000/svg" xmlns:xlink="http://www.w3.org/1999/xlink" xml:space="preserve" xmlns:serif="http://www.serif.com/" style="fill-rule:evenodd;clip-rule:evenodd;stroke-linecap:round;">
    <g transform="matrix(1,0,0,1,-2501,-106)">
        <g id="Group-16" transform="matrix(1,0,0,1,-15,-73)">
            <g id="Group-5-Copy" transform="matrix(1,0,0,1,2524,186.846)">
                <circle id="Oval" cx="308.83" cy="309" r="308.74" style="fill:white;stroke:rgb(99,101,105);stroke-width:2px;"/>
                <g id="Group-4" transform="matrix(1,0,0,1,164,137)">
                    <g id="Group" transform="matrix(1,0,0,1,22,0)">
                        <g id="Shape">
                            <g>
                                <path d="M59.17,323.5C31.14,323.5 8.34,300.7 8.34,272.67L8.34,59C8.34,30.97 31.14,8.17 59.17,8.17L166,8.17C168.15,8.17 170.21,9.02 171.73,10.54L257.2,96.01C258.72,97.53 259.57,99.59 259.57,101.74L259.57,272.68C259.57,300.71 236.77,323.51 208.74,323.51L59.17,323.51L59.17,323.5Z" style="fill:white;fill-rule:nonzero;"/>
                                <path d="M166,16.26L251.47,101.73L251.47,272.67C251.47,296.27 232.34,315.4 208.74,315.4L59.17,315.4C35.57,315.4 16.44,296.27 16.44,272.67L16.44,59C16.44,35.4 35.57,16.27 59.17,16.27L166,16.27L166,16.26ZM166,0.07L156.21,0.07L80.91,0.07L59.17,0.07C26.68,0.07 0.24,26.51 0.24,59L0.24,272.67C0.24,305.16 26.68,331.6 59.17,331.6L208.74,331.6C241.23,331.6 267.67,305.16 267.67,272.67L267.67,149.51L267.67,113.3L267.67,101.73C267.67,97.43 265.96,93.32 262.93,90.28L177.46,4.81C174.42,1.78 170.3,0.07 166,0.07Z" style="fill:white;fill-rule:nonzero;"/>
                            </g>
                            <g transform="matrix(1,0,0,1,16,16)">
                                <path d="M150,0.26C150,0.26 150,50.01 150,64.36C150,78.71 157.01,85.73 171.37,85.73C182.05,85.73 235.47,85.73 235.47,85.73L150,0.26Z" style="fill:rgb(99,100,102);fill-rule:nonzero;"/>
                                <path d="M214.1,97.31L214.1,254C214.1,266.91 204.75,278.04 190.96,278.04L45.39,278.04C31.6,278.04 21.8,267.81 21.8,253.55L21.8,45.22C21.8,31.87 32.48,21.63 46.29,21.63L140.21,21.63L140.21,1.15L140.21,0.26L43.17,0.26C19.57,0.26 0.44,19.39 0.44,42.99L0.44,256.66C0.44,280.26 19.57,299.39 43.17,299.39L192.74,299.39C216.34,299.39 235.47,280.26 235.47,256.66L235.47,97.31L214.1,97.31Z" style="fill:rgb(99,100,102);fill-rule:nonzero;"/>
                            </g>
                        </g>
                        <g id="Rectangle-path" transform="matrix(1,0,0,1,58,77)">
                            <rect x="0.46" y="163.53" width="150.97" height="18.84" style="fill:rgb(99,101,105);"/>
                            <rect x="0.46" y="122.71" width="150.97" height="18.84" style="fill:rgb(99,101,105);"/>
                            <rect x="0.46" y="81.88" width="150.97" height="18.84" style="fill:rgb(99,101,105);"/>
                            <rect x="0.46" y="41.06" width="150.97" height="18.84" style="fill:rgb(99,101,105);"/>
                            <rect x="0.46" y="0.24" width="97.08" height="18.84" style="fill:rgb(99,101,105);"/>
                        </g>
                    </g>
                    <g id="Group1" serif:id="Group" transform="matrix(1,0,0,1,0,52)">
                        <g id="Shape1" serif:id="Shape" transform="matrix(1,0,0,1,0,3)">
                            <path d="M163.16,230.87C162.36,230.87 161.58,230.66 160.89,230.25L132.93,213.88C132.35,213.54 131.86,213.08 131.48,212.53L6.14,28.12C4.75,26.08 5.27,23.3 7.3,21.89C8.08,21.35 8.98,21.09 9.86,21.09C11.08,21.09 12.29,21.59 13.16,22.52C13.25,22.53 13.38,22.54 13.54,22.54C15.2,22.54 18.48,21.63 22.26,19.06C26.48,16.19 28.54,13.1 28.83,11.89C27.87,9.9 28.5,7.45 30.39,6.2C31.16,5.69 32.02,5.44 32.88,5.44C34.32,5.44 35.74,6.13 36.61,7.41L161.94,191.82C162.32,192.37 162.56,193 162.67,193.66L167.61,225.68C167.65,225.91 167.66,226.14 167.66,226.37C167.67,228.85 165.65,230.87 163.16,230.87Z" style="fill:rgb(255,108,14);fill-rule:nonzero;"/>
                            <path d="M32.9,9.94L158.24,194.35L163.17,226.37L135.21,210L9.88,25.59C10.58,26.57 11.88,27.04 13.56,27.04C16.56,27.04 20.75,25.54 24.8,22.78C31.12,18.48 34.73,12.75 32.9,9.94C32.9,9.94 32.89,9.94 32.9,9.94ZM32.9,0.94C29.54,0.94 26.47,2.81 24.92,5.78C24,7.54 23.71,9.52 24.02,11.41C23.36,12.32 22.02,13.79 19.74,15.34C17.46,16.89 15.6,17.59 14.51,17.87C13.13,17.04 11.53,16.58 9.87,16.58C6.59,16.58 3.57,18.36 1.99,21.24C0.41,24.11 0.51,27.62 2.26,30.39C2.31,30.48 2.37,30.56 2.43,30.64L127.76,215.05C128.51,216.16 129.5,217.08 130.65,217.76L158.61,234.13C159.63,234.73 160.75,235.12 161.92,235.28C162.33,235.34 162.75,235.37 163.16,235.37C165.53,235.37 167.82,234.44 169.52,232.74C171.51,230.75 172.46,227.94 172.08,225.15C172.07,225.1 172.07,225.05 172.06,225L167.13,192.98C166.93,191.66 166.43,190.4 165.68,189.29L40.34,4.88C38.66,2.41 35.88,0.94 32.9,0.94Z" style="fill:white;fill-rule:nonzero;"/>
                        </g>
                        <path id="Shape2" serif:id="Shape" d="M138.69,186.41L33.52,31.67" style="fill:none;stroke:white;stroke-width:10.34px;stroke-linejoin:round;"/>
                        <g id="Shape3" serif:id="Shape">
                            <path d="M11,28.87C8.06,28.87 5.72,27.8 4.4,25.87C1.3,21.3 4.93,13.99 13.03,8.48C17.35,5.54 22,3.86 25.78,3.86C28.72,3.86 31.06,4.92 32.38,6.86C33.35,8.28 34.55,11.39 31.7,16.19C30,19.06 27.17,21.92 23.74,24.26C19.43,27.18 14.78,28.87 11,28.87L11,28.87Z" style="fill:rgb(255,108,14);fill-rule:nonzero;"/>
                            <path d="M25.79,6.85C27.66,6.85 29.13,7.4 29.91,8.54C31.94,11.52 28.43,17.45 22.07,21.77C18.14,24.44 14.04,25.88 11,25.88C9.13,25.88 7.66,25.33 6.88,24.19C4.85,21.21 8.36,15.28 14.72,10.96C18.65,8.28 22.75,6.85 25.79,6.85ZM25.79,0.85C21.42,0.85 16.16,2.72 11.35,5.99C7.56,8.56 4.42,11.77 2.5,15.01C-0.19,19.56 -0.4,24.13 1.92,27.55C3.01,29.16 5.65,31.86 11,31.86C15.37,31.86 20.63,29.99 25.44,26.72C29.23,24.15 32.37,20.94 34.29,17.7C36.98,13.15 37.19,8.58 34.87,5.16C33.77,3.55 31.14,0.85 25.79,0.85Z" style="fill:white;fill-rule:nonzero;"/>
                        </g>
                    </g>
                </g>
            </g>
        </g>
    </g>
</svg>
