<?xml version="1.0" encoding="UTF-8" standalone="no"?>
<svg width="86px" height="67px" viewBox="0 0 86 67" version="1.1" xmlns="http://www.w3.org/2000/svg" xmlns:xlink="http://www.w3.org/1999/xlink">
    <!-- Generator: Sketch 50.2 (55047) - http://www.bohemiancoding.com/sketch -->
    <title>Host_Computer_International_Office_Distributed_Enterprise</title>
    <desc>Created with Sketch.</desc>
    <defs></defs>
    <g id="Page-1" stroke="none" stroke-width="1" fill="none" fill-rule="evenodd">
        <g id="Host_Computer_International_Office_Distributed_Enterprise" fill="#636569">
            <g id="Group-8">
                <path d="M25.2826081,9.86162025 L7.23453873,9.86162025 C6.53659653,9.86162025 5.96989133,9.29049973 5.96989133,8.58037633 C5.96989133,7.87931834 6.53659653,7.30215421 7.23453873,7.30215421 L25.2826081,7.30215421 C25.9805503,7.30215421 26.5442728,7.87931834 26.5442728,8.58037633 C26.5442728,9.29049973 25.9805503,9.86162025 25.2826081,9.86162025 M25.2826081,17.4856259 L7.23453873,17.4856259 C6.53659653,17.4856259 5.96989133,16.9114836 5.96989133,16.2074038 C5.96989133,15.4972804 6.53659653,14.9291817 7.23453873,14.9291817 L25.2826081,14.9291817 C25.9805503,14.9291817 26.5442728,15.4972804 26.5442728,16.2074038 C26.5442728,16.9114836 25.9805503,17.4856259 25.2826081,17.4856259 M25.2826081,25.1096316 L7.23453873,25.1096316 C6.53659653,25.1096316 5.96989133,24.5354893 5.96989133,23.8283877 C5.96989133,23.1243079 6.53659653,22.5471438 7.23453873,22.5471438 L25.2826081,22.5471438 C25.9805503,22.5471438 26.5442728,23.1243079 26.5442728,23.8283877 C26.5442728,24.5354893 25.9805503,25.1096316 25.2826081,25.1096316 M25.2826081,32.7306155 L7.23453873,32.7306155 C6.53659653,32.7306155 5.96989133,32.1625168 5.96989133,31.4523934 C5.96989133,30.74227 6.53659653,30.1741712 7.23453873,30.1741712 L25.2826081,30.1741712 C25.9805503,30.1741712 26.5442728,30.74227 26.5442728,31.4523934 C26.5442728,32.1625168 25.9805503,32.7306155 25.2826081,32.7306155 M25.2826081,40.3546212 L7.23453873,40.3546212 C6.53659653,40.3546212 5.96989133,39.7804788 5.96989133,39.0733772 C5.96989133,38.3692974 6.53659653,37.7921333 7.23453873,37.7921333 L25.2826081,37.7921333 C25.9805503,37.7921333 26.5442728,38.3692974 26.5442728,39.0733772 C26.5442728,39.7804788 25.9805503,40.3546212 25.2826081,40.3546212 M25.2826081,47.975605 L7.23453873,47.975605 C6.53659653,47.975605 5.96989133,47.4075063 5.96989133,46.6973829 C5.96989133,45.9902813 6.53659653,45.4191608 7.23453873,45.4191608 L25.2826081,45.4191608 C25.9805503,45.4191608 26.5442728,45.9902813 26.5442728,46.6973829 C26.5442728,47.4075063 25.9805503,47.975605 25.2826081,47.975605 M8.75867746,62.2294436 C7.47016879,62.2294436 6.42623815,61.171813 6.42623815,59.8724383 C6.42623815,58.5639982 7.47016879,57.5093894 8.75867746,57.5093894 C10.0471861,57.5093894 11.0881341,58.5639982 11.0881341,59.8724383 C11.0881341,61.171813 10.0471861,62.2294436 8.75867746,62.2294436 M28.7395098,0.18581122 L3.4793711,0.18581122 C1.65696647,0.18581122 0.174584971,1.68462486 0.174584971,3.5279239 L0.174584971,63.610407 C0.174584971,65.4567278 1.65696647,66.9615851 3.4793711,66.9615851 L28.7395098,66.9615851 C30.5589318,66.9615851 32.0413133,65.4567278 32.0413133,63.610407 L32.0413133,3.5279239 C32.0413133,1.68462486 30.5589318,0.18581122 28.7395098,0.18581122" id="Fill-6"></path>
            </g>
            <g id="Group-10" transform="translate(33.803468, 19.897930)">
                <path d="M45.9767931,28.3943596 C45.9767931,32.0386525 43.0597526,34.9939745 39.4626659,34.9939745 L13.4180879,34.9939745 C9.82100116,34.9939745 6.90396069,32.0386525 6.90396069,28.3943596 L6.90396069,11.901366 C6.90396069,8.25707313 9.82100116,5.30477288 13.4180879,5.30477288 L39.4626659,5.30477288 C43.0597526,5.30477288 45.9767931,8.25707313 45.9767931,11.901366 L45.9767931,28.3943596 Z M40.2411399,2.00798723 L12.5352208,2.00798723 C7.71822659,2.00798723 3.64987977,6.16598636 3.64987977,11.0401525 L3.64987977,29.3552926 C3.64987977,34.132761 7.71822659,38.2907602 12.5680301,38.2907602 L40.3813249,38.2907602 C45.2311283,38.2907602 49.230874,34.2415459 49.230874,29.3583144 L49.230874,11.1096539 C49.230874,6.12670294 45.2311283,2.00798723 40.2411399,2.00798723 Z" id="Fill-13"></path>
                <path d="M45.9069988,44.2440117 L6.97136879,44.2440117 C5.85287168,44.2440117 1.50117225,43.4825177 0.889727168,41.6724585 C0.525842775,40.6027407 1.80242081,40.1313396 2.92091792,40.1313396 L49.9574497,40.1313396 C51.0789295,40.1313396 52.3823514,40.6118061 51.9856578,41.6724585 C51.3771954,43.3163186 47.025496,44.2440117 45.9069988,44.2440117" id="Fill-15"></path>
            </g>
            <g id="Group-7" transform="translate(47.971098, 25.186083)">
                <path d="M21.2010382,22.0114079 C21.7021249,20.8933413 22.0481133,19.678577 22.2061942,18.4063985 C22.7818474,17.6297955 23.2232809,16.7716038 23.5155815,15.8559979 C23.4261017,18.1827852 22.5730613,20.319199 21.2010382,22.0114079 Z M19.077385,23.9786008 C19.0744023,23.9816226 19.0744023,23.9846444 19.0714197,23.9876662 C18.5047145,24.3835222 17.896252,24.7189422 17.2549803,24.996948 C17.8574775,23.9876662 18.3168069,22.7638365 18.6061249,21.401004 C19.5784717,20.9084503 20.4553734,20.2859591 21.1980555,19.5577049 C20.8162751,21.2136523 20.0944717,22.7305967 19.077385,23.9786008 Z M15.9962983,25.4320874 C15.2685295,25.6345481 14.5139168,25.7554202 13.7354428,25.78866 L13.7354428,22.6369209 C15.1432578,22.5825284 16.4824717,22.2954573 17.6993965,21.811969 C17.3355121,23.2231504 16.7747723,24.4439583 16.0410382,25.3595642 C16.0231422,25.3837386 16.0082289,25.407913 15.9962983,25.4320874 Z M13.3029572,9.90002671 C11.6386335,9.90002671 10.1801133,9.02370422 10.1801133,8.02650966 C10.1801133,7.0293151 11.6386335,6.15299261 13.3029572,6.15299261 C14.9613156,6.15299261 16.4198358,7.0293151 16.4198358,8.02650966 C16.4198358,9.02370422 14.9613156,9.90002671 13.3029572,9.90002671 Z M12.867489,15.1579617 C11.3672116,15.1096128 9.97430983,14.7893019 8.80510751,14.2665302 C9.17793988,12.5803648 9.80728092,11.1057256 10.6394428,10.0541386 C10.6513734,10.0390296 10.6603214,10.017877 10.672252,10.002768 C11.2658012,10.368406 12.0263792,10.6161937 12.867489,10.6826734 L12.867489,15.1579617 Z M12.867489,21.8300998 C11.3672116,21.7757074 9.9474659,21.4282002 8.69176647,20.8510361 C8.51877225,19.9052121 8.42630983,18.8989522 8.42630983,17.8473652 C8.42630983,16.889454 8.50684162,15.9496737 8.65299191,15.061264 C9.8818474,15.5870575 11.3224717,15.9103903 12.867489,15.9647827 L12.867489,21.8300998 Z M12.867489,25.78866 C12.089015,25.7554202 11.3344023,25.6345481 10.6096162,25.4320874 C10.5976855,25.407913 10.5768069,25.3837386 10.5648763,25.3595642 C9.82815954,24.4439583 9.26741965,23.2231504 8.90353526,21.811969 C10.1204601,22.2954573 11.4566913,22.5825284 12.867489,22.6369209 L12.867489,25.78866 Z M7.53151214,23.9876662 C7.52852948,23.9846444 7.52852948,23.9816226 7.52554682,23.9786008 C6.50846012,22.7305967 5.78963931,21.2166741 5.4048763,19.5607267 C6.15054104,20.2889809 7.02446012,20.9084503 7.99680694,21.401004 C8.28612486,22.7638365 8.74545434,23.9876662 9.34795145,24.996948 C8.70667977,24.7189422 8.09523468,24.3835222 7.53151214,23.9876662 Z M3.08735029,15.8620415 C3.37965087,16.7746256 3.82108439,17.6328173 4.39972023,18.4094203 C4.55780116,19.6815988 4.90080694,20.8933413 5.40189364,22.0114079 C4.03285318,20.319199 3.17981272,18.1918506 3.08735029,15.8620415 Z M3.56457572,12.2872501 C3.82108439,11.4743854 4.17303815,10.7098696 4.60850636,9.99370257 C4.60850636,10.0299642 4.6055237,10.0601822 4.6055237,10.0904002 C4.6055237,10.749153 4.76956994,11.3897749 5.06783584,11.9820481 C4.56674913,13.3660333 4.29532717,14.9675882 4.29532717,16.7413858 C3.77336185,15.7079296 3.48404393,14.5656885 3.48404393,13.3720769 C3.48404393,13.0034171 3.51088786,12.637779 3.56457572,12.2872501 Z M5.61962775,12.8432616 C6.18633295,13.5654722 6.97077225,14.2000505 7.91329249,14.7046914 C7.73433295,15.7079296 7.6359052,16.7655602 7.6359052,17.8473652 C7.6359052,18.7267095 7.69854104,19.5788575 7.8178474,20.3977658 C6.7709341,19.7843401 5.86718844,19.0047152 5.16029827,18.1011965 C5.10959306,17.6569917 5.08573179,17.2037214 5.08573179,16.7474294 C5.08573179,15.3150954 5.27065665,14.0036334 5.61962775,12.8432616 Z M10.0548416,9.5192797 C10.042911,9.53136691 10.0309803,9.54043231 10.0220324,9.55251952 C9.15109595,10.6554771 8.48298035,12.1754434 8.08032139,13.903914 C7.14078382,13.3720769 6.40108439,12.7012369 5.93877225,11.9397429 C6.6695237,10.1296836 7.85065665,8.78498189 9.39269133,8.07485849 C9.40760462,8.60669559 9.64621734,9.10529287 10.0548416,9.5192797 Z M5.89403237,8.31055902 C6.46073757,7.70922048 7.09604393,7.17738339 7.78802081,6.72713493 C8.70966243,6.32523531 9.52094566,6.21040684 10.2099399,6.38869314 C9.96536185,6.60626287 9.7655237,6.848007 9.62533873,7.11694735 L9.61937341,7.11694735 C7.82679538,7.75756931 6.42494566,9.09924926 5.51225202,10.9516137 C5.43470289,10.6705861 5.39592832,10.3865368 5.39592832,10.0904002 C5.39592832,9.46488727 5.5719052,8.86354873 5.89403237,8.31055902 Z M12.9062636,5.09536202 L12.9062636,5.36732417 C12.2142867,5.415673 11.5789803,5.58187209 11.0391191,5.84174704 C10.7796277,5.71180956 10.5052231,5.62417732 10.2188879,5.56676308 C11.0719283,5.29177913 11.9726913,5.12860184 12.9062636,5.09536202 Z M13.6936855,5.09536202 C14.6302405,5.12860184 15.5310035,5.29177913 16.3840439,5.56676308 C16.0977087,5.62417732 15.823304,5.71180956 15.5578474,5.84174704 C15.0239514,5.58187209 14.3886451,5.415673 13.6936855,5.36732417 L13.6936855,5.09536202 Z M18.8178936,6.72713493 C19.5068879,7.17738339 20.1392116,7.70922048 20.7029341,8.30753722 C21.0280439,8.85750513 21.2070035,9.46488727 21.2070035,10.0904002 C21.2070035,10.383515 21.1682289,10.6705861 21.0906798,10.9516137 C20.1750035,9.09924926 18.7761364,7.75756931 16.9835584,7.11694735 L16.9746104,7.11694735 C16.8344254,6.848007 16.6375699,6.60626287 16.3900092,6.38869314 C17.0790035,6.21040684 17.8932694,6.32523531 18.8178936,6.72713493 Z M16.5808994,9.55251952 C16.5719514,9.54043231 16.5600208,9.52834511 16.5451075,9.5162579 C16.9537318,9.10529287 17.1953272,8.60669559 17.2102405,8.07485849 C18.7522751,8.78498189 19.9334081,10.1296836 20.6641595,11.9367211 C20.2018474,12.6982151 19.462148,13.3720769 18.5226104,13.903914 C18.1199514,12.1724216 17.4548185,10.6554771 16.5808994,9.55251952 Z M13.7354428,15.1579617 L13.7354428,10.6826734 C14.5765526,10.6161937 15.3371306,10.368406 15.9306798,10.002768 C15.9426104,10.017877 15.9515584,10.0390296 15.963489,10.0541386 C16.7926682,11.1057256 17.4220092,12.5803648 17.7948416,14.2665302 C16.6316046,14.7832583 15.2387029,15.1096128 13.7354428,15.1579617 Z M17.9499399,15.0582422 C18.0990728,15.9496737 18.176622,16.889454 18.176622,17.8473652 C18.176622,18.8989522 18.0841595,19.9052121 17.9081827,20.8510361 C16.6554659,21.4282002 15.2387029,21.7757074 13.7354428,21.8300998 L13.7354428,15.9647827 C15.2804601,15.9103903 16.7181017,15.5870575 17.9499399,15.0582422 Z M18.6896393,14.7046914 C19.6321595,14.2000505 20.4165988,13.5654722 20.9862867,12.8402398 C21.3322751,14.0006116 21.5142173,15.3120736 21.5142173,16.7474294 C21.5142173,17.2037214 21.4903561,17.6539699 21.4456162,18.0981747 C20.7357434,19.0016934 19.8319977,19.7843401 18.7821017,20.394744 C18.9014081,19.5788575 18.9670266,18.7267095 18.9670266,17.8473652 C18.9670266,16.7655602 18.8715815,15.7079296 18.6896393,14.7046914 Z M21.9974081,10.0904002 C21.9974081,10.0601822 21.9944254,10.0269424 21.9914428,9.99068076 C22.426911,10.703826 22.7788647,11.4683418 23.0353734,12.2751628 C23.0890613,12.6317354 23.1159052,13.0003953 23.1159052,13.3720769 C23.1159052,14.5656885 22.8265873,15.7049078 22.3076046,16.738364 C22.3076046,14.9645664 22.0391653,13.3630115 21.535096,11.9820481 C21.8333618,11.3837313 21.9974081,10.749153 21.9974081,10.0904002 Z M13.3029572,3.48171991 C6.79181272,3.48171991 1.4946104,8.84843972 1.4946104,15.442011 C1.4946104,22.0355823 6.79181272,27.4023021 13.3029572,27.4023021 C19.8111191,27.4023021 25.1083214,22.0355823 25.1083214,15.442011 C25.1083214,8.84843972 19.8111191,3.48171991 13.3029572,3.48171991 Z" id="Fill-21"></path>
            </g>
        </g>
    </g>
</svg>