<?xml version="1.0" encoding="UTF-8" standalone="no"?>
<svg width="224px" height="54px" viewBox="0 0 224 54" version="1.1" xmlns="http://www.w3.org/2000/svg" xmlns:xlink="http://www.w3.org/1999/xlink">
    <!-- Generator: Sketch 50 (54983) - http://www.bohemiancoding.com/sketch -->
    <title>Box_Switch</title>
    <desc>Created with Sketch.</desc>
    <defs></defs>
    <g id="Page-1" stroke="none" stroke-width="1" fill="none" fill-rule="evenodd">
        <g id="Box_Switch" fill="#636569" fill-rule="nonzero">
            <path d="M140.138211,13.0610987 L155.869919,13.0610987 L155.869919,24.9795404 L140.138211,24.9795404 L140.138211,13.0610987 Z M140.138211,28.3848094 L155.869919,28.3848094 L155.869919,40.3032511 L140.138211,40.3032511 L140.138211,28.3848094 Z M159.162602,28.3848094 L174.894309,28.3848094 L174.894309,40.3032511 L159.162602,40.3032511 L159.162602,28.3848094 Z M178.552846,28.3848094 L194.284553,28.3848094 L194.284553,40.3032511 L178.552846,40.3032511 L178.552846,28.3848094 Z M159.162602,13.0610987 L174.894309,13.0610987 L174.894309,24.9795404 L159.162602,24.9795404 L159.162602,13.0610987 Z M197.943089,24.9795404 L197.943089,13.0610987 L207.455285,13.0610987 C210.01626,13.0610987 211.845528,14.7637332 211.845528,17.1474215 L211.845528,24.9795404 L197.943089,24.9795404 Z M197.943089,28.3848094 L211.845528,28.3848094 L211.845528,36.2169283 C211.845528,38.6006166 210.01626,40.3032511 207.455285,40.3032511 L197.943089,40.3032511 L197.943089,28.3848094 Z M178.552846,13.0610987 L194.284553,13.0610987 L194.284553,24.9795404 L178.552846,24.9795404 L178.552846,13.0610987 Z M136.113821,28.3848094 L136.113821,40.3032511 L125.869919,40.3032511 C123.308943,40.3032511 121.479675,38.6006166 121.479675,36.2169283 L121.479675,28.3848094 L136.113821,28.3848094 Z M136.113821,24.9795404 L121.479675,24.9795404 L121.479675,17.1474215 C121.479675,14.7637332 123.308943,13.0610987 125.869919,13.0610987 L136.113821,13.0610987 L136.113821,24.9795404 Z M64.4065041,28.3848094 L80.1382114,28.3848094 L80.1382114,40.3032511 L64.4065041,40.3032511 L64.4065041,28.3848094 Z M83.4308943,28.3848094 L99.1626016,28.3848094 L99.1626016,40.3032511 L83.4308943,40.3032511 L83.4308943,28.3848094 Z M64.4065041,13.0610987 L80.1382114,13.0610987 L80.1382114,24.9795404 L64.4065041,24.9795404 L64.4065041,13.0610987 Z M102.821138,24.9795404 L102.821138,13.0610987 L112.333333,13.0610987 C114.894309,13.0610987 116.723577,14.7637332 116.723577,17.1474215 L116.723577,24.9795404 L102.821138,24.9795404 Z M102.821138,28.3848094 L116.723577,28.3848094 L116.723577,36.2169283 C116.723577,38.6006166 114.894309,40.3032511 112.333333,40.3032511 L102.821138,40.3032511 L102.821138,28.3848094 Z M83.4308943,13.0610987 L99.1626016,13.0610987 L99.1626016,24.9795404 L83.4308943,24.9795404 L83.4308943,13.0610987 Z M45.0162602,13.0610987 L60.7479675,13.0610987 L60.7479675,24.9795404 L45.0162602,24.9795404 L45.0162602,13.0610987 Z M41.3577236,28.3848094 L41.3577236,40.3032511 L31.1138211,40.3032511 C28.5528455,40.3032511 26.7235772,38.6006166 26.7235772,36.2169283 L26.7235772,28.3848094 L41.3577236,28.3848094 Z M41.3577236,24.9795404 L26.7235772,24.9795404 L26.7235772,17.1474215 C26.7235772,14.7637332 28.5528455,13.0610987 31.1138211,13.0610987 L41.3577236,13.0610987 L41.3577236,24.9795404 Z M45.0162602,28.3848094 L60.7479675,28.3848094 L60.7479675,40.3032511 L45.0162602,40.3032511 L45.0162602,28.3848094 Z" id="Combined-Shape"></path>
            <path d="M210.01626,53.9243274 L13.9186992,53.9243274 C6.23577236,53.9243274 0.0162601626,48.13537 0.0162601626,40.9843049 L0.0162601626,13.0610987 C0.0162601626,5.91003363 6.23577236,0.121076233 13.9186992,0.121076233 L210.01626,0.121076233 C217.699187,0.121076233 223.918699,5.91003363 223.918699,13.0610987 L223.918699,40.9843049 C223.918699,48.13537 217.699187,53.9243274 210.01626,53.9243274 Z M13.9186992,6.59108744 C10.2601626,6.59108744 7.33333333,9.31530269 7.33333333,12.7205717 L7.33333333,40.643778 C7.33333333,44.0490471 10.2601626,46.7732623 13.9186992,46.7732623 L210.01626,46.7732623 C213.674797,46.7732623 216.601626,44.0490471 216.601626,40.643778 L216.601626,12.7205717 C216.601626,9.31530269 213.674797,6.59108744 210.01626,6.59108744 L13.9186992,6.59108744 Z" id="Shape"></path>
        </g>
    </g>
</svg>