<?xml version="1.0" encoding="UTF-8" standalone="no"?>
<!DOCTYPE svg PUBLIC "-//W3C//DTD SVG 1.1//EN" "http://www.w3.org/Graphics/SVG/1.1/DTD/svg11.dtd">
<svg width="100%" height="100%" viewBox="0 0 50 49" version="1.1" xmlns="http://www.w3.org/2000/svg" xmlns:xlink="http://www.w3.org/1999/xlink" xml:space="preserve" xmlns:serif="http://www.serif.com/" style="fill-rule:evenodd;clip-rule:evenodd;stroke-linejoin:round;stroke-miterlimit:1.41421;">
    <g transform="matrix(1,0,0,1,-1064,-105)">
        <g id="Cloud-GMS-Console-Copy">
            <g transform="matrix(1,0,0,1,1064,115)">
                <path d="M2.982,-0.497C2.301,-0.903 1.776,-1.486 1.407,-2.247C1.038,-3.008 0.854,-3.906 0.854,-4.942C0.854,-5.969 1.038,-6.862 1.407,-7.623C1.776,-8.384 2.301,-8.967 2.982,-9.373C3.663,-9.779 4.471,-9.982 5.404,-9.982C6.029,-9.982 6.62,-9.882 7.175,-9.681C7.73,-9.48 8.213,-9.193 8.624,-8.82C8.773,-8.68 8.848,-8.517 8.848,-8.33C8.848,-8.199 8.811,-8.085 8.736,-7.987C8.661,-7.889 8.573,-7.84 8.47,-7.84C8.358,-7.84 8.223,-7.891 8.064,-7.994C7.588,-8.367 7.156,-8.629 6.769,-8.778C6.382,-8.927 5.936,-9.002 5.432,-9.002C4.349,-9.002 3.516,-8.65 2.933,-7.945C2.35,-7.24 2.058,-6.239 2.058,-4.942C2.058,-3.635 2.35,-2.63 2.933,-1.925C3.516,-1.22 4.349,-0.868 5.432,-0.868C5.927,-0.868 6.37,-0.943 6.762,-1.092C7.154,-1.241 7.588,-1.503 8.064,-1.876C8.223,-1.979 8.358,-2.03 8.47,-2.03C8.573,-2.03 8.661,-1.983 8.736,-1.89C8.811,-1.797 8.848,-1.68 8.848,-1.54C8.848,-1.353 8.773,-1.19 8.624,-1.05C8.213,-0.677 7.73,-0.39 7.175,-0.189C6.62,0.012 6.029,0.112 5.404,0.112C4.471,0.112 3.663,-0.091 2.982,-0.497Z" style="fill-rule:nonzero;"/>
                <path d="M10.689,-0.077C10.582,-0.175 10.528,-0.313 10.528,-0.49L10.528,-9.38C10.528,-9.557 10.582,-9.695 10.689,-9.793C10.796,-9.891 10.934,-9.94 11.102,-9.94C11.261,-9.94 11.394,-9.891 11.501,-9.793C11.608,-9.695 11.662,-9.557 11.662,-9.38L11.662,-0.49C11.662,-0.313 11.608,-0.175 11.501,-0.077C11.394,0.021 11.261,0.07 11.102,0.07C10.934,0.07 10.796,0.021 10.689,-0.077Z" style="fill-rule:nonzero;"/>
                <path d="M14.903,-0.336C14.413,-0.625 14.035,-1.038 13.769,-1.575C13.503,-2.112 13.37,-2.735 13.37,-3.444C13.37,-4.153 13.503,-4.776 13.769,-5.313C14.035,-5.85 14.413,-6.263 14.903,-6.552C15.393,-6.841 15.96,-6.986 16.604,-6.986C17.248,-6.986 17.817,-6.841 18.312,-6.552C18.807,-6.263 19.187,-5.85 19.453,-5.313C19.719,-4.776 19.852,-4.153 19.852,-3.444C19.852,-2.735 19.719,-2.112 19.453,-1.575C19.187,-1.038 18.807,-0.625 18.312,-0.336C17.817,-0.047 17.248,0.098 16.604,0.098C15.96,0.098 15.393,-0.047 14.903,-0.336ZM18.151,-1.505C18.51,-1.948 18.69,-2.595 18.69,-3.444C18.69,-4.275 18.508,-4.916 18.144,-5.369C17.78,-5.822 17.267,-6.048 16.604,-6.048C15.941,-6.048 15.428,-5.822 15.064,-5.369C14.7,-4.916 14.518,-4.275 14.518,-3.444C14.518,-2.604 14.698,-1.96 15.057,-1.512C15.416,-1.064 15.932,-0.84 16.604,-0.84C17.276,-0.84 17.792,-1.062 18.151,-1.505Z" style="fill-rule:nonzero;"/>
                <path d="M27.139,-6.804C27.237,-6.701 27.286,-6.566 27.286,-6.398L27.286,-0.476C27.286,-0.317 27.237,-0.187 27.139,-0.084C27.041,0.019 26.903,0.07 26.726,0.07C26.558,0.07 26.425,0.021 26.327,-0.077C26.229,-0.175 26.18,-0.303 26.18,-0.462L26.18,-1.162C25.965,-0.751 25.664,-0.439 25.277,-0.224C24.89,-0.009 24.453,0.098 23.968,0.098C23.156,0.098 22.545,-0.128 22.134,-0.581C21.723,-1.034 21.518,-1.703 21.518,-2.59L21.518,-6.398C21.518,-6.566 21.569,-6.701 21.672,-6.804C21.775,-6.907 21.915,-6.958 22.092,-6.958C22.269,-6.958 22.407,-6.907 22.505,-6.804C22.603,-6.701 22.652,-6.566 22.652,-6.398L22.652,-2.618C22.652,-2.011 22.773,-1.566 23.016,-1.281C23.259,-0.996 23.641,-0.854 24.164,-0.854C24.761,-0.854 25.242,-1.048 25.606,-1.435C25.97,-1.822 26.152,-2.333 26.152,-2.968L26.152,-6.398C26.152,-6.566 26.203,-6.701 26.306,-6.804C26.409,-6.907 26.549,-6.958 26.726,-6.958C26.903,-6.958 27.041,-6.907 27.139,-6.804Z" style="fill-rule:nonzero;"/>
                <path d="M35.294,-9.786C35.397,-9.683 35.448,-9.553 35.448,-9.394L35.448,-0.49C35.448,-0.322 35.397,-0.187 35.294,-0.084C35.191,0.019 35.051,0.07 34.874,0.07C34.697,0.07 34.559,0.019 34.461,-0.084C34.363,-0.187 34.314,-0.322 34.314,-0.49L34.314,-1.246C34.109,-0.817 33.808,-0.485 33.411,-0.252C33.014,-0.019 32.55,0.098 32.018,0.098C31.421,0.098 30.893,-0.051 30.436,-0.35C29.979,-0.649 29.624,-1.066 29.372,-1.603C29.12,-2.14 28.994,-2.763 28.994,-3.472C28.994,-4.172 29.12,-4.788 29.372,-5.32C29.624,-5.852 29.979,-6.263 30.436,-6.552C30.893,-6.841 31.421,-6.986 32.018,-6.986C32.55,-6.986 33.014,-6.869 33.411,-6.636C33.808,-6.403 34.109,-6.071 34.314,-5.642L34.314,-9.394C34.314,-9.562 34.363,-9.695 34.461,-9.793C34.559,-9.891 34.697,-9.94 34.874,-9.94C35.051,-9.94 35.191,-9.889 35.294,-9.786ZM33.775,-1.519C34.134,-1.972 34.314,-2.613 34.314,-3.444C34.314,-4.275 34.134,-4.914 33.775,-5.362C33.416,-5.81 32.905,-6.034 32.242,-6.034C31.579,-6.034 31.064,-5.81 30.695,-5.362C30.326,-4.914 30.142,-4.284 30.142,-3.472C30.142,-2.641 30.326,-1.995 30.695,-1.533C31.064,-1.071 31.579,-0.84 32.242,-0.84C32.905,-0.84 33.416,-1.066 33.775,-1.519Z" style="fill-rule:nonzero;"/>
            </g>
            <g transform="matrix(1,0,0,1,1064,134)">
                <path d="M8.897,-5.012C8.986,-4.928 9.03,-4.811 9.03,-4.662L9.03,-1.176C9.03,-0.952 8.995,-0.784 8.925,-0.672C8.855,-0.56 8.727,-0.471 8.54,-0.406C8.167,-0.247 7.714,-0.121 7.182,-0.028C6.65,0.065 6.118,0.112 5.586,0.112C4.606,0.112 3.761,-0.089 3.052,-0.49C2.343,-0.891 1.799,-1.47 1.421,-2.226C1.043,-2.982 0.854,-3.887 0.854,-4.942C0.854,-5.978 1.041,-6.874 1.414,-7.63C1.787,-8.386 2.324,-8.967 3.024,-9.373C3.724,-9.779 4.545,-9.982 5.488,-9.982C6.141,-9.982 6.748,-9.882 7.308,-9.681C7.868,-9.48 8.339,-9.193 8.722,-8.82C8.881,-8.661 8.96,-8.498 8.96,-8.33C8.96,-8.199 8.923,-8.085 8.848,-7.987C8.773,-7.889 8.68,-7.84 8.568,-7.84C8.456,-7.84 8.325,-7.896 8.176,-8.008C7.691,-8.381 7.252,-8.64 6.86,-8.785C6.468,-8.93 6.015,-9.002 5.502,-9.002C4.391,-9.002 3.54,-8.652 2.947,-7.952C2.354,-7.252 2.058,-6.249 2.058,-4.942C2.058,-3.607 2.359,-2.592 2.961,-1.897C3.563,-1.202 4.447,-0.854 5.614,-0.854C6.482,-0.854 7.271,-0.985 7.98,-1.246L7.98,-4.242L5.936,-4.242C5.777,-4.242 5.651,-4.284 5.558,-4.368C5.465,-4.452 5.418,-4.559 5.418,-4.69C5.418,-4.83 5.465,-4.94 5.558,-5.019C5.651,-5.098 5.777,-5.138 5.936,-5.138L8.554,-5.138C8.694,-5.138 8.808,-5.096 8.897,-5.012Z" style="fill-rule:nonzero;"/>
                <path d="M20.531,-9.779C20.629,-9.672 20.678,-9.529 20.678,-9.352L20.678,-0.49C20.678,-0.322 20.631,-0.187 20.538,-0.084C20.445,0.019 20.314,0.07 20.146,0.07C19.978,0.07 19.852,0.019 19.768,-0.084C19.684,-0.187 19.642,-0.322 19.642,-0.49L19.642,-7.644L16.604,-1.82C16.473,-1.549 16.282,-1.414 16.03,-1.414C15.787,-1.414 15.596,-1.549 15.456,-1.82L12.404,-7.574L12.404,-0.49C12.404,-0.322 12.36,-0.187 12.271,-0.084C12.182,0.019 12.054,0.07 11.886,0.07C11.718,0.07 11.587,0.019 11.494,-0.084C11.401,-0.187 11.354,-0.322 11.354,-0.49L11.354,-9.352C11.354,-9.529 11.405,-9.672 11.508,-9.779C11.611,-9.886 11.751,-9.94 11.928,-9.94C12.161,-9.94 12.348,-9.805 12.488,-9.534L16.044,-2.716L19.558,-9.534C19.633,-9.683 19.714,-9.788 19.803,-9.849C19.892,-9.91 19.997,-9.94 20.118,-9.94C20.295,-9.94 20.433,-9.886 20.531,-9.779Z" style="fill-rule:nonzero;"/>
                <path d="M24.269,-0.203C23.63,-0.413 23.119,-0.695 22.736,-1.05C22.596,-1.181 22.526,-1.344 22.526,-1.54C22.526,-1.671 22.563,-1.785 22.638,-1.883C22.713,-1.981 22.801,-2.03 22.904,-2.03C23.025,-2.03 23.156,-1.979 23.296,-1.876C24.164,-1.204 25.153,-0.868 26.264,-0.868C27.067,-0.868 27.683,-1.022 28.112,-1.33C28.541,-1.638 28.756,-2.077 28.756,-2.646C28.756,-2.973 28.653,-3.236 28.448,-3.437C28.243,-3.638 27.972,-3.799 27.636,-3.92C27.3,-4.041 26.847,-4.167 26.278,-4.298C25.513,-4.475 24.885,-4.662 24.395,-4.858C23.905,-5.054 23.508,-5.334 23.205,-5.698C22.902,-6.062 22.75,-6.538 22.75,-7.126C22.75,-7.686 22.902,-8.183 23.205,-8.617C23.508,-9.051 23.933,-9.387 24.479,-9.625C25.025,-9.863 25.648,-9.982 26.348,-9.982C27.001,-9.982 27.61,-9.882 28.175,-9.681C28.74,-9.48 29.213,-9.193 29.596,-8.82C29.745,-8.671 29.82,-8.507 29.82,-8.33C29.82,-8.199 29.783,-8.085 29.708,-7.987C29.633,-7.889 29.545,-7.84 29.442,-7.84C29.339,-7.84 29.204,-7.891 29.036,-7.994C28.579,-8.367 28.154,-8.629 27.762,-8.778C27.37,-8.927 26.899,-9.002 26.348,-9.002C25.573,-9.002 24.971,-8.841 24.542,-8.519C24.113,-8.197 23.898,-7.747 23.898,-7.168C23.898,-6.673 24.087,-6.302 24.465,-6.055C24.843,-5.808 25.424,-5.591 26.208,-5.404C27.057,-5.199 27.725,-5.01 28.21,-4.837C28.695,-4.664 29.099,-4.405 29.421,-4.06C29.743,-3.715 29.904,-3.253 29.904,-2.674C29.904,-2.123 29.752,-1.638 29.449,-1.218C29.146,-0.798 28.719,-0.471 28.168,-0.238C27.617,-0.005 26.987,0.112 26.278,0.112C25.578,0.112 24.908,0.007 24.269,-0.203Z" style="fill-rule:nonzero;"/>
            </g>
            <g transform="matrix(1,0,0,1,1064,153)">
                <path d="M2.982,-0.497C2.301,-0.903 1.776,-1.486 1.407,-2.247C1.038,-3.008 0.854,-3.906 0.854,-4.942C0.854,-5.969 1.038,-6.862 1.407,-7.623C1.776,-8.384 2.301,-8.967 2.982,-9.373C3.663,-9.779 4.471,-9.982 5.404,-9.982C6.029,-9.982 6.62,-9.882 7.175,-9.681C7.73,-9.48 8.213,-9.193 8.624,-8.82C8.773,-8.68 8.848,-8.517 8.848,-8.33C8.848,-8.199 8.811,-8.085 8.736,-7.987C8.661,-7.889 8.573,-7.84 8.47,-7.84C8.358,-7.84 8.223,-7.891 8.064,-7.994C7.588,-8.367 7.156,-8.629 6.769,-8.778C6.382,-8.927 5.936,-9.002 5.432,-9.002C4.349,-9.002 3.516,-8.65 2.933,-7.945C2.35,-7.24 2.058,-6.239 2.058,-4.942C2.058,-3.635 2.35,-2.63 2.933,-1.925C3.516,-1.22 4.349,-0.868 5.432,-0.868C5.927,-0.868 6.37,-0.943 6.762,-1.092C7.154,-1.241 7.588,-1.503 8.064,-1.876C8.223,-1.979 8.358,-2.03 8.47,-2.03C8.573,-2.03 8.661,-1.983 8.736,-1.89C8.811,-1.797 8.848,-1.68 8.848,-1.54C8.848,-1.353 8.773,-1.19 8.624,-1.05C8.213,-0.677 7.73,-0.39 7.175,-0.189C6.62,0.012 6.029,0.112 5.404,0.112C4.471,0.112 3.663,-0.091 2.982,-0.497Z" style="fill-rule:nonzero;"/>
                <path d="M11.515,-0.336C11.025,-0.625 10.647,-1.038 10.381,-1.575C10.115,-2.112 9.982,-2.735 9.982,-3.444C9.982,-4.153 10.115,-4.776 10.381,-5.313C10.647,-5.85 11.025,-6.263 11.515,-6.552C12.005,-6.841 12.572,-6.986 13.216,-6.986C13.86,-6.986 14.429,-6.841 14.924,-6.552C15.419,-6.263 15.799,-5.85 16.065,-5.313C16.331,-4.776 16.464,-4.153 16.464,-3.444C16.464,-2.735 16.331,-2.112 16.065,-1.575C15.799,-1.038 15.419,-0.625 14.924,-0.336C14.429,-0.047 13.86,0.098 13.216,0.098C12.572,0.098 12.005,-0.047 11.515,-0.336ZM14.763,-1.505C15.122,-1.948 15.302,-2.595 15.302,-3.444C15.302,-4.275 15.12,-4.916 14.756,-5.369C14.392,-5.822 13.879,-6.048 13.216,-6.048C12.553,-6.048 12.04,-5.822 11.676,-5.369C11.312,-4.916 11.13,-4.275 11.13,-3.444C11.13,-2.604 11.31,-1.96 11.669,-1.512C12.028,-1.064 12.544,-0.84 13.216,-0.84C13.888,-0.84 14.404,-1.062 14.763,-1.505Z" style="fill-rule:nonzero;"/>
                <path d="M24.038,-4.284L24.038,-0.49C24.038,-0.313 23.989,-0.175 23.891,-0.077C23.793,0.021 23.655,0.07 23.478,0.07C23.301,0.07 23.161,0.021 23.058,-0.077C22.955,-0.175 22.904,-0.313 22.904,-0.49L22.904,-4.214C22.904,-4.849 22.78,-5.311 22.533,-5.6C22.286,-5.889 21.891,-6.034 21.35,-6.034C20.725,-6.034 20.225,-5.843 19.852,-5.46C19.479,-5.077 19.292,-4.559 19.292,-3.906L19.292,-0.49C19.292,-0.313 19.243,-0.175 19.145,-0.077C19.047,0.021 18.909,0.07 18.732,0.07C18.555,0.07 18.415,0.021 18.312,-0.077C18.209,-0.175 18.158,-0.313 18.158,-0.49L18.158,-6.398C18.158,-6.566 18.209,-6.701 18.312,-6.804C18.415,-6.907 18.555,-6.958 18.732,-6.958C18.9,-6.958 19.033,-6.907 19.131,-6.804C19.229,-6.701 19.278,-6.571 19.278,-6.412L19.278,-5.698C19.502,-6.118 19.815,-6.438 20.216,-6.657C20.617,-6.876 21.075,-6.986 21.588,-6.986C23.221,-6.986 24.038,-6.085 24.038,-4.284Z" style="fill-rule:nonzero;"/>
                <path d="M27.181,-0.056C26.794,-0.159 26.451,-0.303 26.152,-0.49C25.984,-0.602 25.865,-0.707 25.795,-0.805C25.725,-0.903 25.69,-1.022 25.69,-1.162C25.69,-1.283 25.725,-1.384 25.795,-1.463C25.865,-1.542 25.956,-1.582 26.068,-1.582C26.18,-1.582 26.343,-1.512 26.558,-1.372C26.838,-1.204 27.116,-1.071 27.391,-0.973C27.666,-0.875 28.009,-0.826 28.42,-0.826C28.924,-0.826 29.316,-0.915 29.596,-1.092C29.876,-1.269 30.016,-1.526 30.016,-1.862C30.016,-2.067 29.965,-2.233 29.862,-2.359C29.759,-2.485 29.582,-2.597 29.33,-2.695C29.078,-2.793 28.709,-2.893 28.224,-2.996C27.403,-3.173 26.815,-3.411 26.46,-3.71C26.105,-4.009 25.928,-4.415 25.928,-4.928C25.928,-5.329 26.04,-5.684 26.264,-5.992C26.488,-6.3 26.798,-6.543 27.195,-6.72C27.592,-6.897 28.042,-6.986 28.546,-6.986C28.91,-6.986 29.262,-6.937 29.603,-6.839C29.944,-6.741 30.245,-6.603 30.506,-6.426C30.823,-6.202 30.982,-5.969 30.982,-5.726C30.982,-5.605 30.945,-5.502 30.87,-5.418C30.795,-5.334 30.707,-5.292 30.604,-5.292C30.492,-5.292 30.324,-5.371 30.1,-5.53C29.839,-5.698 29.591,-5.829 29.358,-5.922C29.125,-6.015 28.835,-6.062 28.49,-6.062C28.051,-6.062 27.699,-5.964 27.433,-5.768C27.167,-5.572 27.034,-5.311 27.034,-4.984C27.034,-4.779 27.083,-4.613 27.181,-4.487C27.279,-4.361 27.442,-4.249 27.671,-4.151C27.9,-4.053 28.229,-3.957 28.658,-3.864C29.293,-3.724 29.785,-3.57 30.135,-3.402C30.485,-3.234 30.735,-3.029 30.884,-2.786C31.033,-2.543 31.108,-2.235 31.108,-1.862C31.108,-1.274 30.861,-0.8 30.366,-0.441C29.871,-0.082 29.218,0.098 28.406,0.098C27.977,0.098 27.568,0.047 27.181,-0.056Z" style="fill-rule:nonzero;"/>
                <path d="M33.957,-0.336C33.467,-0.625 33.089,-1.038 32.823,-1.575C32.557,-2.112 32.424,-2.735 32.424,-3.444C32.424,-4.153 32.557,-4.776 32.823,-5.313C33.089,-5.85 33.467,-6.263 33.957,-6.552C34.447,-6.841 35.014,-6.986 35.658,-6.986C36.302,-6.986 36.871,-6.841 37.366,-6.552C37.861,-6.263 38.241,-5.85 38.507,-5.313C38.773,-4.776 38.906,-4.153 38.906,-3.444C38.906,-2.735 38.773,-2.112 38.507,-1.575C38.241,-1.038 37.861,-0.625 37.366,-0.336C36.871,-0.047 36.302,0.098 35.658,0.098C35.014,0.098 34.447,-0.047 33.957,-0.336ZM37.205,-1.505C37.564,-1.948 37.744,-2.595 37.744,-3.444C37.744,-4.275 37.562,-4.916 37.198,-5.369C36.834,-5.822 36.321,-6.048 35.658,-6.048C34.995,-6.048 34.482,-5.822 34.118,-5.369C33.754,-4.916 33.572,-4.275 33.572,-3.444C33.572,-2.604 33.752,-1.96 34.111,-1.512C34.47,-1.064 34.986,-0.84 35.658,-0.84C36.33,-0.84 36.846,-1.062 37.205,-1.505Z" style="fill-rule:nonzero;"/>
                <path d="M40.761,-0.077C40.654,-0.175 40.6,-0.313 40.6,-0.49L40.6,-9.38C40.6,-9.557 40.654,-9.695 40.761,-9.793C40.868,-9.891 41.006,-9.94 41.174,-9.94C41.333,-9.94 41.466,-9.891 41.573,-9.793C41.68,-9.695 41.734,-9.557 41.734,-9.38L41.734,-0.49C41.734,-0.313 41.68,-0.175 41.573,-0.077C41.466,0.021 41.333,0.07 41.174,0.07C41.006,0.07 40.868,0.021 40.761,-0.077Z" style="fill-rule:nonzero;"/>
                <path d="M49.392,-1.456C49.467,-1.372 49.504,-1.265 49.504,-1.134C49.504,-0.901 49.341,-0.686 49.014,-0.49C48.678,-0.294 48.323,-0.147 47.95,-0.049C47.577,0.049 47.213,0.098 46.858,0.098C45.803,0.098 44.97,-0.215 44.359,-0.84C43.748,-1.465 43.442,-2.329 43.442,-3.43C43.442,-4.13 43.577,-4.748 43.848,-5.285C44.119,-5.822 44.499,-6.239 44.989,-6.538C45.479,-6.837 46.037,-6.986 46.662,-6.986C47.549,-6.986 48.253,-6.697 48.776,-6.118C49.299,-5.539 49.56,-4.755 49.56,-3.766C49.56,-3.579 49.523,-3.444 49.448,-3.36C49.373,-3.276 49.252,-3.234 49.084,-3.234L44.576,-3.234C44.66,-1.629 45.421,-0.826 46.858,-0.826C47.222,-0.826 47.535,-0.875 47.796,-0.973C48.057,-1.071 48.337,-1.204 48.636,-1.372C48.879,-1.512 49.042,-1.582 49.126,-1.582C49.229,-1.582 49.317,-1.54 49.392,-1.456ZM45.241,-5.544C44.882,-5.171 44.669,-4.643 44.604,-3.962L48.566,-3.962C48.547,-4.653 48.375,-5.182 48.048,-5.551C47.721,-5.92 47.264,-6.104 46.676,-6.104C46.079,-6.104 45.6,-5.917 45.241,-5.544Z" style="fill-rule:nonzero;"/>
            </g>
        </g>
    </g>
</svg>
