<?xml version="1.0" encoding="UTF-8" standalone="no"?>
<svg width="180px" height="119px" viewBox="0 0 180 119" version="1.1" xmlns="http://www.w3.org/2000/svg" xmlns:xlink="http://www.w3.org/1999/xlink">
    <!-- Generator: Sketch 50.2 (55047) - http://www.bohemiancoding.com/sketch -->
    <title>Cloud_GMS_Enterprise Clients</title>
    <desc>Created with Sketch.</desc>
    <defs></defs>
    <g id="Page-1" stroke="none" stroke-width="1" fill="none" fill-rule="evenodd">
        <g id="Cloud_GMS_Enterprise-Clients">
            <path d="M78.9025779,10.7324929 C97.5380474,10.7324929 112.91231,23.3315063 117.10529,40.596821 C119.900611,38.7303005 123.627705,37.7970402 126.888912,37.7970402 C137.604307,37.7970402 146.456155,46.6630126 146.456155,57.3955055 C146.456155,59.262026 145.990268,61.1285465 145.524381,62.9950671 C145.990268,62.9950671 145.990268,62.9950671 146.456155,62.9950671 C158.56921,62.9950671 168.818718,72.7942997 168.818718,85.3933131 C168.818718,97.5256964 159.035097,107.791559 146.456155,107.791559 L41.6316389,107.791559 C24.3938296,107.791559 10.8831142,93.7926554 10.8831142,76.9939708 C10.8831142,60.6619164 23.4620561,47.1296428 39.3022052,46.1963825 C42.0975256,26.1312871 58.8694482,10.7324929 78.9025779,10.7324929 M78.9025779,0 C56.0741278,0 36.5068848,15.3987942 30.4503572,36.3971499 C12.7466611,41.5300812 0.167719226,57.8621357 0.167719226,76.5273407 C0.167719226,99.858847 18.8031887,118.524052 42.0975256,118.524052 L146.922042,118.524052 C165.091624,118.524052 180,103.591888 180,85.3933131 C180,70.4611491 170.216379,58.3287658 157.17155,53.6624645 C155.308003,38.7303005 142.263174,27.0645473 126.888912,27.0645473 C125.957138,27.0645473 124.559478,27.0645473 123.627705,27.0645473 C115.241743,10.7324929 98.0039342,0 78.9025779,0" id="Shape" fill="#47AFE8" fill-rule="nonzero"></path>
            <g id="Group-2" transform="translate(52.810205, 35.174008)" fill="#636569">
                <g id="Cloud_GMS_Enterprise_Clients">
                    <path d="M4.43566152,64.2196759 C2.12985494,64.2196759 0.260983572,62.3434895 0.260983572,60.0383367 L0.260983572,4.30736747 C0.260983572,2.00221464 2.12985494,0.126028226 4.43566152,0.126028226 L28.1339888,0.126028226 C30.4311432,0.126028226 32.3086667,2.00221464 32.3086667,4.30736747 L32.3086667,60.0383367 C32.3086667,62.3434895 30.4311432,64.2196759 28.1339888,64.2196759 L4.43566152,64.2196759 Z M13.5676073,51.1344672 L19.0011778,51.1344672 C19.6630697,51.1344672 20.1951789,50.597176 20.1951789,49.9385609 C20.1951789,49.2756128 19.6630697,48.7383215 19.0011778,48.7383215 L13.5676073,48.7383215 C12.9100414,48.7383215 12.3736061,49.2756128 12.3736061,49.9385609 C12.3736061,50.597176 12.9100414,51.1344672 13.5676073,51.1344672 Z M13.5676073,46.4894976 L19.0011778,46.4894976 C19.6630697,46.4894976 20.1951789,45.9565394 20.1951789,45.2979243 C20.1951789,44.6349762 19.6630697,44.0976849 19.0011778,44.0976849 L13.5676073,44.0976849 C12.9100414,44.0976849 12.3736061,44.6349762 12.3736061,45.2979243 C12.3736061,45.9565394 12.9100414,46.4894976 13.5676073,46.4894976 Z M13.5676073,41.853194 L19.0011778,41.853194 C19.6630697,41.853194 20.1951789,41.3159028 20.1951789,40.6486217 C20.1951789,39.9900066 19.6630697,39.4527153 19.0011778,39.4527153 L13.5676073,39.4527153 C12.9100414,39.4527153 12.3736061,39.9900066 12.3736061,40.6486217 C12.3736061,41.3159028 12.9100414,41.853194 13.5676073,41.853194 Z M16.2848251,55.1509051 C15.2917954,55.1509051 14.4810305,55.9629636 14.4810305,56.9575779 C14.4810305,57.9521922 15.2917954,58.7642507 16.2848251,58.7642507 C17.2778549,58.7642507 18.0886197,57.9521922 18.0886197,56.9575779 C18.0886197,55.9629636 17.2778549,55.1509051 16.2848251,55.1509051 Z" id="Combined-Shape"></path>
                    <path d="M74.3762113,48.5961993 C74.3762113,51.7896159 71.7892088,54.3764134 68.6052057,54.3764134 L45.5255095,54.3764134 C42.3415064,54.3764134 39.7545039,51.7896159 39.7545039,48.5961993 L39.7545039,34.1499972 C39.7545039,30.9565806 42.3415064,28.3697832 45.5255095,28.3697832 L68.6052057,28.3697832 C71.7892088,28.3697832 74.3762113,30.9565806 74.3762113,34.1499972 L74.3762113,48.5961993 Z M69.2973803,25.4796762 L44.7468131,25.4796762 C40.4769611,25.4796762 36.8690011,29.1237242 36.8690011,33.3960563 L36.8690011,49.4368002 C36.8690011,53.6224724 40.4769611,57.2665204 44.7727696,57.2665204 L69.4141848,57.2665204 C73.7143193,57.2665204 77.2617141,53.7134653 77.2617141,49.4411332 L77.2617141,33.4567182 C77.2617141,29.0933932 73.7143193,25.4796762 69.2973803,25.4796762 Z" id="Fill-14"></path>
                    <path d="M74.3130504,62.4795455 L39.8211257,62.4795455 C38.8261248,62.4795455 34.9715776,61.8122644 34.4308162,60.2263886 C34.1063593,59.2904619 35.2354691,58.8788275 36.2304701,58.8788275 L77.903706,58.8788275 C78.898707,58.8788275 80.0537733,59.2991279 79.7033599,60.2263886 C79.1582724,61.6692756 75.3037252,62.4795455 74.3130504,62.4795455" id="Fill-16"></path>
                </g>
            </g>
        </g>
    </g>
</svg>