<?xml version="1.0" encoding="UTF-8" standalone="no"?>
<svg width="96px" height="103px" viewBox="0 0 96 103" version="1.1" xmlns="http://www.w3.org/2000/svg" xmlns:xlink="http://www.w3.org/1999/xlink">
    <!-- Generator: Sketch 50.2 (55047) - http://www.bohemiancoding.com/sketch -->
    <title>Firewall</title>
    <desc>Created with Sketch.</desc>
    <defs>
        <path d="M3.83623855,0.0798423752 C1.89267416,0.0798423752 0.299588591,1.68113792 0.299588591,3.63827692 L0.299588591,85.4822715 C0.299588591,87.4394105 1.89267416,89.0407061 3.83623855,89.0407061 L85.2641521,89.0407061 C87.2077165,89.0407061 88.8043423,87.4394105 88.8043423,85.4822715 L88.8043423,3.63827692 C88.8043423,1.68113792 87.2077165,0.0798423752 85.2641521,0.0798423752" id="path-1"></path>
        <path d="M3.83623855,0.0798423752 C1.89267416,0.0798423752 0.299588591,1.68113792 0.299588591,3.63827692 L0.299588591,85.4822715 C0.299588591,87.4394105 1.89267416,89.0407061 3.83623855,89.0407061 L85.2641521,89.0407061 C87.2077165,89.0407061 88.8043423,87.4394105 88.8043423,85.4822715 L88.8043423,3.63827692 C88.8043423,1.68113792 87.2077165,0.0798423752 85.2641521,0.0798423752" id="path-3"></path>
        <path d="M3.83623855,0.0798423752 C1.89267416,0.0798423752 0.299588591,1.68113792 0.299588591,3.63827692 L0.299588591,85.4822715 C0.299588591,87.4394105 1.89267416,89.0407061 3.83623855,89.0407061 L85.2641521,89.0407061 C87.2077165,89.0407061 88.8043423,87.4394105 88.8043423,85.4822715 L88.8043423,3.63827692 C88.8043423,1.68113792 87.2077165,0.0798423752 85.2641521,0.0798423752" id="path-5"></path>
        <path d="M3.83623855,0.0798423752 C1.89267416,0.0798423752 0.299588591,1.68113792 0.299588591,3.63827692 L0.299588591,85.4822715 C0.299588591,87.4394105 1.89267416,89.0407061 3.83623855,89.0407061 L85.2641521,89.0407061 C87.2077165,89.0407061 88.8043423,87.4394105 88.8043423,85.4822715 L88.8043423,3.63827692 C88.8043423,1.68113792 87.2077165,0.0798423752 85.2641521,0.0798423752" id="path-7"></path>
        <path d="M3.83623855,0.0798423752 C1.89267416,0.0798423752 0.299588591,1.68113792 0.299588591,3.63827692 L0.299588591,85.4822715 C0.299588591,87.4394105 1.89267416,89.0407061 3.83623855,89.0407061 L85.2641521,89.0407061 C87.2077165,89.0407061 88.8043423,87.4394105 88.8043423,85.4822715 L88.8043423,3.63827692 C88.8043423,1.68113792 87.2077165,0.0798423752 85.2641521,0.0798423752" id="path-9"></path>
        <path d="M3.83623855,0.0798423752 C1.89267416,0.0798423752 0.299588591,1.68113792 0.299588591,3.63827692 L0.299588591,85.4822715 C0.299588591,87.4394105 1.89267416,89.0407061 3.83623855,89.0407061 L85.2641521,89.0407061 C87.2077165,89.0407061 88.8043423,87.4394105 88.8043423,85.4822715 L88.8043423,3.63827692 C88.8043423,1.68113792 87.2077165,0.0798423752 85.2641521,0.0798423752" id="path-11"></path>
        <path d="M3.83623855,0.0798423752 C1.89267416,0.0798423752 0.299588591,1.68113792 0.299588591,3.63827692 L0.299588591,85.4822715 C0.299588591,87.4394105 1.89267416,89.0407061 3.83623855,89.0407061 L85.2641521,89.0407061 C87.2077165,89.0407061 88.8043423,87.4394105 88.8043423,85.4822715 L88.8043423,3.63827692 C88.8043423,1.68113792 87.2077165,0.0798423752 85.2641521,0.0798423752" id="path-13"></path>
        <path d="M3.83623855,0.0798423752 C1.89267416,0.0798423752 0.299588591,1.68113792 0.299588591,3.63827692 L0.299588591,85.4822715 C0.299588591,87.4394105 1.89267416,89.0407061 3.83623855,89.0407061 L85.2641521,89.0407061 C87.2077165,89.0407061 88.8043423,87.4394105 88.8043423,85.4822715 L88.8043423,3.63827692 C88.8043423,1.68113792 87.2077165,0.0798423752 85.2641521,0.0798423752" id="path-15"></path>
        <path d="M3.83623855,0.0798423752 C1.89267416,0.0798423752 0.299588591,1.68113792 0.299588591,3.63827692 L0.299588591,85.4822715 C0.299588591,87.4394105 1.89267416,89.0407061 3.83623855,89.0407061 L85.2641521,89.0407061 C87.2077165,89.0407061 88.8043423,87.4394105 88.8043423,85.4822715 L88.8043423,3.63827692 C88.8043423,1.68113792 87.2077165,0.0798423752 85.2641521,0.0798423752" id="path-17"></path>
        <path d="M3.83623855,0.0798423752 C1.89267416,0.0798423752 0.299588591,1.68113792 0.299588591,3.63827692 L0.299588591,85.4822715 C0.299588591,87.4394105 1.89267416,89.0407061 3.83623855,89.0407061 L85.2641521,89.0407061 C87.2077165,89.0407061 88.8043423,87.4394105 88.8043423,85.4822715 L88.8043423,3.63827692 C88.8043423,1.68113792 87.2077165,0.0798423752 85.2641521,0.0798423752" id="path-19"></path>
        <path d="M3.83623855,0.0798423752 C1.89267416,0.0798423752 0.299588591,1.68113792 0.299588591,3.63827692 L0.299588591,85.4822715 C0.299588591,87.4394105 1.89267416,89.0407061 3.83623855,89.0407061 L85.2641521,89.0407061 C87.2077165,89.0407061 88.8043423,87.4394105 88.8043423,85.4822715 L88.8043423,3.63827692 C88.8043423,1.68113792 87.2077165,0.0798423752 85.2641521,0.0798423752" id="path-21"></path>
        <path d="M3.83623855,0.0798423752 C1.89267416,0.0798423752 0.299588591,1.68113792 0.299588591,3.63827692 L0.299588591,85.4822715 C0.299588591,87.4394105 1.89267416,89.0407061 3.83623855,89.0407061 L85.2641521,89.0407061 C87.2077165,89.0407061 88.8043423,87.4394105 88.8043423,85.4822715 L88.8043423,3.63827692 C88.8043423,1.68113792 87.2077165,0.0798423752 85.2641521,0.0798423752" id="path-23"></path>
        <path d="M3.83623855,0.0798423752 C1.89267416,0.0798423752 0.299588591,1.68113792 0.299588591,3.63827692 L0.299588591,85.4822715 C0.299588591,87.4394105 1.89267416,89.0407061 3.83623855,89.0407061 L85.2641521,89.0407061 C87.2077165,89.0407061 88.8043423,87.4394105 88.8043423,85.4822715 L88.8043423,3.63827692 C88.8043423,1.68113792 87.2077165,0.0798423752 85.2641521,0.0798423752" id="path-25"></path>
        <path d="M3.83623855,0.0798423752 C1.89267416,0.0798423752 0.299588591,1.68113792 0.299588591,3.63827692 L0.299588591,85.4822715 C0.299588591,87.4394105 1.89267416,89.0407061 3.83623855,89.0407061 L85.2641521,89.0407061 C87.2077165,89.0407061 88.8043423,87.4394105 88.8043423,85.4822715 L88.8043423,3.63827692 C88.8043423,1.68113792 87.2077165,0.0798423752 85.2641521,0.0798423752" id="path-27"></path>
        <path d="M3.83623855,0.0798423752 C1.89267416,0.0798423752 0.299588591,1.68113792 0.299588591,3.63827692 L0.299588591,85.4822715 C0.299588591,87.4394105 1.89267416,89.0407061 3.83623855,89.0407061 L85.2641521,89.0407061 C87.2077165,89.0407061 88.8043423,87.4394105 88.8043423,85.4822715 L88.8043423,3.63827692 C88.8043423,1.68113792 87.2077165,0.0798423752 85.2641521,0.0798423752" id="path-29"></path>
        <path d="M3.83623855,0.0798423752 C1.89267416,0.0798423752 0.299588591,1.68113792 0.299588591,3.63827692 L0.299588591,85.4822715 C0.299588591,87.4394105 1.89267416,89.0407061 3.83623855,89.0407061 L85.2641521,89.0407061 C87.2077165,89.0407061 88.8043423,87.4394105 88.8043423,85.4822715 L88.8043423,3.63827692 C88.8043423,1.68113792 87.2077165,0.0798423752 85.2641521,0.0798423752" id="path-31"></path>
    </defs>
    <g id="Page-1" stroke="none" stroke-width="1" fill="none" fill-rule="evenodd">
        <g id="Firewall">
            <path d="M88.9509557,78.2315089 C88.9154905,78.4594646 88.8835718,78.6945438 88.84456,78.9189376 L88.7736296,78.9189376 C86.3265283,88.9952887 77.3041722,96.4822064 66.5156474,96.4822064 C53.8474651,96.4822064 43.5802792,86.170776 43.5802792,73.4480026 C43.5802792,60.7252291 53.8474651,50.4137988 66.5156474,50.4137988 C66.8277415,50.4137988 67.129196,50.445855 67.434197,50.4601022 C65.1715149,46.6169128 62.6180179,44.3195475 62.6180179,44.3195475 C62.6180179,44.3195475 81.4181396,46.834183 87.4649623,61.6976023 C89.0077001,65.4944882 89.514853,69.3911047 89.4332829,73.0918219 C89.4368295,73.2129233 89.4510156,73.3269011 89.4510156,73.4480026 C89.4510156,75.0899954 89.2736894,76.6892466 88.9509557,78.2315089 M95.8560372,70.4489613 L95.8560372,70.4418377 C95.6396993,60.6219367 92.7847478,53.8295714 79.0455153,35.6786045 C65.3027363,17.5276377 83.1452966,5.42105677 83.1452966,5.42105677 C83.1452966,5.42105677 66.7426249,5.36762967 59.8339969,17.3958508 C56.7272422,22.809797 56.3087524,28.8755538 56.7839866,33.9119484 C52.1770524,30.5567265 46.3572072,30.3928834 46.3572072,30.3928834 C46.3572072,30.3928834 57.2485812,38.268038 48.3503535,49.3238859 C47.6729674,50.1609105 47.0487793,50.9516316 46.4529633,51.71742 C42.6759157,55.236485 39.7854989,59.7564177 38.2569473,64.94597 C37.7923527,66.3243892 37.5192704,67.6600667 37.3632233,69.0562949 C37.3490372,69.1667109 37.320665,69.2771269 37.3064789,69.3946666 C35.1111808,85.5973251 46.4068585,100.524857 62.5435409,102.726053 C78.6766768,104.930812 93.5366108,93.5864575 95.7319089,77.3802371 C96.051096,75.0330065 96.0759217,72.7071468 95.8560372,70.4489613" id="Fill-1" fill="#636569"></path>
            <g id="Group-51">
                <g id="Group-5">
                    <mask id="mask-2" fill="white">
                        <use xlink:href="#path-1"></use>
                    </mask>
                    <g id="Clip-4"></g>
                    <path d="M13.2347354,15.0323843 L-15.3806216,15.0323843 C-16.9099838,15.0323843 -18.1596709,13.7726985 -18.1596709,12.2390132 L-18.1596709,2.8732135 C-18.1596709,1.33952821 -16.9099838,0.0798423752 -15.3806216,0.0798423752 L13.2347354,0.0798423752 C14.7640975,0.0798423752 16.0137846,1.33952821 16.0137846,2.8732135 L16.0137846,12.2390132 C16.0137846,13.7726985 14.7640975,15.0323843 13.2347354,15.0323843" id="Fill-3" fill="#CC0000" mask="url(#mask-2)"></path>
                </g>
                <g id="Group-8">
                    <mask id="mask-4" fill="white">
                        <use xlink:href="#path-3"></use>
                    </mask>
                    <g id="Clip-7"></g>
                    <path d="M50.9476729,15.0323843 L22.3358562,15.0323843 C20.806494,15.0323843 19.5532667,13.7726985 19.5532667,12.2390132 L19.5532667,2.8732135 C19.5532667,1.33952821 20.806494,0.0798423752 22.3358562,0.0798423752 L50.9476729,0.0798423752 C52.4770351,0.0798423752 53.7302624,1.33952821 53.7302624,2.8732135 L53.7302624,12.2390132 C53.7302624,13.7726985 52.4770351,15.0323843 50.9476729,15.0323843" id="Fill-6" fill="#CC0000" mask="url(#mask-4)"></path>
                </g>
                <g id="Group-11">
                    <mask id="mask-6" fill="white">
                        <use xlink:href="#path-5"></use>
                    </mask>
                    <g id="Clip-10"></g>
                    <path d="M126.377442,15.0323843 L97.7620854,15.0323843 C96.2327232,15.0323843 94.9830361,13.7726985 94.9830361,12.2390132 L94.9830361,2.8732135 C94.9830361,1.33952821 96.2327232,0.0798423752 97.7620854,0.0798423752 L126.377442,0.0798423752 C127.906804,0.0798423752 129.156492,1.33952821 129.156492,2.8732135 L129.156492,12.2390132 C129.156492,13.7726985 127.906804,15.0323843 126.377442,15.0323843" id="Fill-9" fill="#E21936" mask="url(#mask-6)"></path>
                </g>
                <g id="Group-14">
                    <mask id="mask-8" fill="white">
                        <use xlink:href="#path-7"></use>
                    </mask>
                    <g id="Clip-13"></g>
                    <path d="M30.3221711,33.5440726 L1.70681417,33.5440726 C0.177452031,33.5440726 -1.07223509,32.2843867 -1.07223509,30.7507014 L-1.07223509,21.3884601 C-1.07223509,19.847658 0.177452031,18.5915306 1.70681417,18.5915306 L30.3221711,18.5915306 C31.8515333,18.5915306 33.1012204,19.847658 33.1012204,21.3884601 L33.1012204,30.7507014 C33.1012204,32.2843867 31.8515333,33.5440726 30.3221711,33.5440726" id="Fill-12" fill="#CC0000" mask="url(#mask-8)"></path>
                </g>
                <g id="Group-17">
                    <mask id="mask-10" fill="white">
                        <use xlink:href="#path-9"></use>
                    </mask>
                    <g id="Clip-16"></g>
                    <path d="M13.2347354,52.0554049 L-15.3806216,52.0554049 C-16.9099838,52.0554049 -18.1596709,50.7957191 -18.1596709,49.2584754 L-18.1596709,39.8962341 C-18.1596709,38.3589903 -16.9099838,37.1028629 -15.3806216,37.1028629 L13.2347354,37.1028629 C14.7640975,37.1028629 16.0137846,38.3589903 16.0137846,39.8962341 L16.0137846,49.2584754 C16.0137846,50.7957191 14.7640975,52.0554049 13.2347354,52.0554049" id="Fill-15" fill="#CC0000" mask="url(#mask-10)"></path>
                </g>
                <g id="Group-20">
                    <mask id="mask-12" fill="white">
                        <use xlink:href="#path-11"></use>
                    </mask>
                    <g id="Clip-19"></g>
                    <path d="M126.377442,52.0554049 L97.7620854,52.0554049 C96.2327232,52.0554049 94.9830361,50.7957191 94.9830361,49.2584754 L94.9830361,39.8962341 C94.9830361,38.3589903 96.2327232,37.1028629 97.7620854,37.1028629 L126.377442,37.1028629 C127.906804,37.1028629 129.156492,38.3589903 129.156492,39.8962341 L129.156492,49.2584754 C129.156492,50.7957191 127.906804,52.0554049 126.377442,52.0554049" id="Fill-18" fill="#E21936" mask="url(#mask-12)"></path>
                </g>
                <g id="Group-23">
                    <mask id="mask-14" fill="white">
                        <use xlink:href="#path-13"></use>
                    </mask>
                    <g id="Clip-22"></g>
                    <path d="M30.3221711,70.5635347 L1.70681417,70.5635347 C0.177452031,70.5635347 -1.07223509,69.3074073 -1.07223509,67.7701636 L-1.07223509,58.4079223 C-1.07223509,56.8706785 0.177452031,55.6109927 1.70681417,55.6109927 L30.3221711,55.6109927 C31.8515333,55.6109927 33.1012204,56.8706785 33.1012204,58.4079223 L33.1012204,67.7701636 C33.1012204,69.3074073 31.8515333,70.5635347 30.3221711,70.5635347" id="Fill-21" fill="#CC0000" mask="url(#mask-14)"></path>
                </g>
                <g id="Group-26">
                    <mask id="mask-16" fill="white">
                        <use xlink:href="#path-15"></use>
                    </mask>
                    <g id="Clip-25"></g>
                    <path d="M13.2347354,89.0752229 L-15.3806216,89.0752229 C-16.9099838,89.0752229 -18.1596709,87.8155371 -18.1596709,86.2818518 L-18.1596709,76.916052 C-18.1596709,75.3823667 -16.9099838,74.1226809 -15.3806216,74.1226809 L13.2347354,74.1226809 C14.7640975,74.1226809 16.0137846,75.3823667 16.0137846,76.916052 L16.0137846,86.2818518 C16.0137846,87.8155371 14.7640975,89.0752229 13.2347354,89.0752229" id="Fill-24" fill="#CC0000" mask="url(#mask-16)"></path>
                </g>
                <g id="Group-29">
                    <mask id="mask-18" fill="white">
                        <use xlink:href="#path-17"></use>
                    </mask>
                    <g id="Clip-28"></g>
                    <path d="M34.0039689,74.1219692 L22.3355022,74.1219692 C20.80614,74.1219692 19.5529127,75.3816551 19.5529127,76.9153404 L19.5529127,86.2811401 C19.5529127,87.8183838 20.80614,89.0745112 22.3355022,89.0745112 L38.0574866,89.0745112 C35.5828937,84.5766499 34.1455765,79.4774132 34.0039689,74.1219692" id="Fill-27" fill="#CC0000" mask="url(#mask-18)"></path>
                </g>
                <g id="Group-32">
                    <mask id="mask-20" fill="white">
                        <use xlink:href="#path-19"></use>
                    </mask>
                    <g id="Clip-31"></g>
                    <path d="M105.749816,55.6106369 L95.9399495,55.6106369 C98.1702693,60.6244711 99.0269953,64.9977872 99.1402814,70.1112577 C99.1544422,70.2607119 99.1473618,70.4137246 99.1579824,70.5631788 L105.749816,70.5631788 C107.279179,70.5631788 108.528866,69.3106099 108.528866,67.7698077 L108.528866,58.4075664 C108.528866,56.8703227 107.279179,55.6106369 105.749816,55.6106369" id="Fill-30" fill="#CC0000" mask="url(#mask-20)"></path>
                </g>
                <g id="Group-35">
                    <mask id="mask-22" fill="white">
                        <use xlink:href="#path-21"></use>
                    </mask>
                    <g id="Clip-34"></g>
                    <path d="M39.0480318,55.6867874 C37.7027596,55.8825013 36.6407025,57.0034082 36.6407025,58.4089898 L36.6407025,60.2629342 C37.3239592,58.6758724 38.1240422,57.1457455 39.0480318,55.6867874" id="Fill-33" fill="#CC0000" mask="url(#mask-22)"></path>
                </g>
                <g id="Group-38">
                    <mask id="mask-24" fill="white">
                        <use xlink:href="#path-23"></use>
                    </mask>
                    <g id="Clip-37"></g>
                    <path d="M91.443908,47.3849596 L91.443908,39.8980133 C91.443908,38.3607696 90.1906807,37.1010837 88.6613186,37.1010837 L84.3175053,37.1010837 C87.1885995,40.9904527 89.5322054,44.3531733 91.443908,47.3849596" id="Fill-36" fill="#CC0000" mask="url(#mask-24)"></path>
                </g>
                <g id="Group-41">
                    <mask id="mask-26" fill="white">
                        <use xlink:href="#path-25"></use>
                    </mask>
                    <g id="Clip-40"></g>
                    <path d="M44.1975924,49.386579 C44.7569424,48.6713337 45.3410738,47.9347377 45.9676875,47.1554405 C48.0741006,44.5399911 48.9839295,41.9885936 48.6794731,39.575975 C48.5626468,38.675691 48.2794316,37.8536926 47.9254126,37.1028629 L22.333378,37.1028629 C20.8075561,37.1028629 19.5543288,38.3589903 19.5543288,39.8962341 L19.5543288,49.2584754 C19.5543288,50.7957191 20.8075561,52.0554049 22.333378,52.0554049 L41.7300799,52.0554049 C42.5089217,51.1302119 43.3125449,50.2228111 44.1975924,49.386579" id="Fill-39" fill="#CC0000" mask="url(#mask-26)"></path>
                </g>
                <g id="Group-44">
                    <mask id="mask-28" fill="white">
                        <use xlink:href="#path-27"></use>
                    </mask>
                    <g id="Clip-43"></g>
                    <path d="M39.4215219,33.5440726 L45.2982375,33.5440726 C44.8946558,33.1633201 44.6079004,32.9391387 44.6043602,32.9355802 C43.4502583,32.0993481 42.9723326,30.6048056 43.4290171,29.2526005 C43.8750811,27.9253044 45.1106074,27.0392542 46.4948218,27.0392542 L46.5868667,27.0392542 C46.7744968,27.0428126 49.8898641,27.1531241 53.5468806,28.4483943 C53.7345106,24.8864013 54.4602496,21.5912909 55.7134769,18.5915306 L39.4215219,18.5915306 C37.8956999,18.5915306 36.6424726,19.847658 36.6424726,21.3884601 L36.6424726,30.7507014 C36.6424726,32.2843867 37.8956999,33.5440726 39.4215219,33.5440726" id="Fill-42" fill="#CC0000" mask="url(#mask-28)"></path>
                </g>
                <g id="Group-47">
                    <mask id="mask-30" fill="white">
                        <use xlink:href="#path-29"></use>
                    </mask>
                    <g id="Clip-46"></g>
                    <path d="M105.749816,18.5908189 L77.6548674,18.5908189 C77.5522019,18.9893636 77.4141345,19.3665576 77.3504111,19.7828945 C76.642373,24.1811196 78.093851,28.8106429 81.6623627,33.5433609 L105.749816,33.5433609 C107.279179,33.5433609 108.528866,32.2872335 108.528866,30.7499897 L108.528866,21.3877484 C108.528866,19.8505047 107.279179,18.5908189 105.749816,18.5908189" id="Fill-45" fill="#CC0000" mask="url(#mask-30)"></path>
                </g>
                <g id="Group-50">
                    <mask id="mask-32" fill="white">
                        <use xlink:href="#path-31"></use>
                    </mask>
                    <g id="Clip-49"></g>
                    <path d="M58.1041673,14.2228405 C66.214743,2.27005884 82.4960774,2.08857868 83.214736,2.08857868 L83.2182762,2.08857868 C84.6378925,2.08857868 85.8875796,3.02088853 86.305322,4.38021053 C86.7266047,5.74664939 86.2132771,7.22695816 85.0414742,8.03828124 C84.9919115,8.07030715 81.2853324,10.6750812 78.9771284,15.0341636 L88.6630887,15.0341636 C90.1924508,15.0341636 91.4421379,13.7744777 91.4421379,12.237234 L91.4421379,2.87499271 C91.4421379,1.34130742 90.1924508,0.0780631579 88.6630887,0.0780631579 L60.0477317,0.0780631579 C58.5183696,0.0780631579 57.2686825,1.34130742 57.2686825,2.87499271 L57.2686825,12.237234 C57.2686825,13.0129727 57.5908398,13.7139843 58.1041673,14.2228405" id="Fill-48" fill="#CC0000" mask="url(#mask-32)"></path>
                </g>
            </g>
        </g>
    </g>
</svg>