<?xml version="1.0" encoding="UTF-8" standalone="no"?>
<!DOCTYPE svg PUBLIC "-//W3C//DTD SVG 1.1//EN" "http://www.w3.org/Graphics/SVG/1.1/DTD/svg11.dtd">
<svg width="100%" height="100%" viewBox="0 0 206 13" version="1.1" xmlns="http://www.w3.org/2000/svg" xmlns:xlink="http://www.w3.org/1999/xlink" xml:space="preserve" xmlns:serif="http://www.serif.com/" style="fill-rule:evenodd;clip-rule:evenodd;stroke-linejoin:round;stroke-miterlimit:1.41421;">
    <g transform="matrix(1,0,0,1,-493,-420)">
        <g transform="matrix(1,0,0,1,492,430)">
            <g id="Firewall-Security-Se">
                <path d="M1.344,-0.133C1.213,-0.268 1.148,-0.443 1.148,-0.658L1.148,-9.17C1.148,-9.385 1.211,-9.555 1.337,-9.681C1.463,-9.807 1.638,-9.87 1.862,-9.87L6.874,-9.87C7.322,-9.87 7.546,-9.674 7.546,-9.282C7.546,-8.89 7.322,-8.694 6.874,-8.694L2.576,-8.694L2.576,-5.6L6.594,-5.6C7.042,-5.6 7.266,-5.404 7.266,-5.012C7.266,-4.62 7.042,-4.424 6.594,-4.424L2.576,-4.424L2.576,-0.658C2.576,-0.434 2.513,-0.257 2.387,-0.126C2.261,0.005 2.086,0.07 1.862,0.07C1.647,0.07 1.475,0.002 1.344,-0.133Z" style="fill-rule:nonzero;"/>
                <path d="M9.037,-0.098C8.902,-0.21 8.834,-0.378 8.834,-0.602L8.834,-6.286C8.834,-6.51 8.902,-6.68 9.037,-6.797C9.172,-6.914 9.343,-6.972 9.548,-6.972C9.753,-6.972 9.921,-6.914 10.052,-6.797C10.183,-6.68 10.248,-6.51 10.248,-6.286L10.248,-0.602C10.248,-0.378 10.183,-0.21 10.052,-0.098C9.921,0.014 9.753,0.07 9.548,0.07C9.343,0.07 9.172,0.014 9.037,-0.098ZM8.904,-8.568C8.745,-8.717 8.666,-8.913 8.666,-9.156C8.666,-9.399 8.745,-9.592 8.904,-9.737C9.063,-9.882 9.277,-9.954 9.548,-9.954C9.809,-9.954 10.022,-9.882 10.185,-9.737C10.348,-9.592 10.43,-9.399 10.43,-9.156C10.43,-8.913 10.351,-8.717 10.192,-8.568C10.033,-8.419 9.819,-8.344 9.548,-8.344C9.277,-8.344 9.063,-8.419 8.904,-8.568Z" style="fill-rule:nonzero;"/>
                <path d="M16.478,-6.398C16.478,-6.193 16.427,-6.039 16.324,-5.936C16.221,-5.833 16.044,-5.773 15.792,-5.754L15.372,-5.712C14.784,-5.656 14.348,-5.451 14.063,-5.096C13.778,-4.741 13.636,-4.312 13.636,-3.808L13.636,-0.602C13.636,-0.378 13.571,-0.21 13.44,-0.098C13.309,0.014 13.141,0.07 12.936,0.07C12.731,0.07 12.56,0.014 12.425,-0.098C12.29,-0.21 12.222,-0.378 12.222,-0.602L12.222,-6.3C12.222,-6.515 12.29,-6.68 12.425,-6.797C12.56,-6.914 12.731,-6.972 12.936,-6.972C13.123,-6.972 13.279,-6.914 13.405,-6.797C13.531,-6.68 13.594,-6.519 13.594,-6.314L13.594,-5.642C13.781,-6.053 14.051,-6.365 14.406,-6.58C14.761,-6.795 15.162,-6.921 15.61,-6.958L15.806,-6.972C16.254,-7 16.478,-6.809 16.478,-6.398Z" style="fill-rule:nonzero;"/>
                <path d="M22.876,-1.568C22.96,-1.465 23.002,-1.335 23.002,-1.176C23.002,-0.905 22.834,-0.677 22.498,-0.49C22.171,-0.303 21.814,-0.159 21.427,-0.056C21.04,0.047 20.669,0.098 20.314,0.098C19.231,0.098 18.377,-0.217 17.752,-0.847C17.127,-1.477 16.814,-2.338 16.814,-3.43C16.814,-4.13 16.952,-4.751 17.227,-5.292C17.502,-5.833 17.89,-6.253 18.389,-6.552C18.888,-6.851 19.455,-7 20.09,-7C21.005,-7 21.728,-6.706 22.26,-6.118C22.792,-5.53 23.058,-4.737 23.058,-3.738C23.058,-3.365 22.89,-3.178 22.554,-3.178L18.228,-3.178C18.321,-1.731 19.017,-1.008 20.314,-1.008C20.659,-1.008 20.958,-1.055 21.21,-1.148C21.462,-1.241 21.728,-1.363 22.008,-1.512C22.036,-1.531 22.113,-1.57 22.239,-1.631C22.365,-1.692 22.47,-1.722 22.554,-1.722C22.685,-1.722 22.792,-1.671 22.876,-1.568ZM18.816,-5.446C18.489,-5.101 18.293,-4.615 18.228,-3.99L21.84,-3.99C21.812,-4.625 21.651,-5.112 21.357,-5.453C21.063,-5.794 20.65,-5.964 20.118,-5.964C19.577,-5.964 19.143,-5.791 18.816,-5.446Z" style="fill-rule:nonzero;"/>
                <path d="M34.384,-6.958C34.561,-6.958 34.72,-6.897 34.86,-6.776C35,-6.655 35.07,-6.505 35.07,-6.328C35.07,-6.235 35.051,-6.151 35.014,-6.076L32.69,-0.406C32.634,-0.257 32.541,-0.142 32.41,-0.063C32.279,0.016 32.135,0.056 31.976,0.056C31.827,0.056 31.687,0.016 31.556,-0.063C31.425,-0.142 31.332,-0.257 31.276,-0.406L29.456,-4.9L27.678,-0.406C27.622,-0.257 27.531,-0.142 27.405,-0.063C27.279,0.016 27.137,0.056 26.978,0.056C26.829,0.056 26.686,0.016 26.551,-0.063C26.416,-0.142 26.315,-0.257 26.25,-0.406L23.94,-6.076C23.903,-6.151 23.884,-6.23 23.884,-6.314C23.884,-6.501 23.961,-6.655 24.115,-6.776C24.269,-6.897 24.439,-6.958 24.626,-6.958C24.906,-6.958 25.097,-6.823 25.2,-6.552L27.006,-1.778L28.854,-6.51C28.91,-6.659 28.999,-6.771 29.12,-6.846C29.241,-6.921 29.372,-6.958 29.512,-6.958C29.643,-6.958 29.769,-6.921 29.89,-6.846C30.011,-6.771 30.1,-6.659 30.156,-6.51L32.004,-1.806L33.81,-6.538C33.913,-6.818 34.104,-6.958 34.384,-6.958Z" style="fill-rule:nonzero;"/>
                <path d="M41.167,-6.314C41.61,-5.857 41.832,-5.161 41.832,-4.228L41.832,-0.602C41.832,-0.387 41.771,-0.222 41.65,-0.105C41.529,0.012 41.361,0.07 41.146,0.07C40.941,0.07 40.777,0.009 40.656,-0.112C40.535,-0.233 40.474,-0.397 40.474,-0.602L40.474,-1.12C40.297,-0.728 40.033,-0.427 39.683,-0.217C39.333,-0.007 38.925,0.098 38.458,0.098C38.01,0.098 37.599,0.007 37.226,-0.175C36.853,-0.357 36.561,-0.611 36.351,-0.938C36.141,-1.265 36.036,-1.629 36.036,-2.03C36.036,-2.525 36.164,-2.914 36.421,-3.199C36.678,-3.484 37.102,-3.687 37.695,-3.808C38.288,-3.929 39.102,-3.99 40.138,-3.99L40.46,-3.99L40.46,-4.396C40.46,-4.919 40.353,-5.297 40.138,-5.53C39.923,-5.763 39.578,-5.88 39.102,-5.88C38.775,-5.88 38.467,-5.838 38.178,-5.754C37.889,-5.67 37.571,-5.549 37.226,-5.39C36.974,-5.25 36.797,-5.18 36.694,-5.18C36.554,-5.18 36.44,-5.231 36.351,-5.334C36.262,-5.437 36.218,-5.567 36.218,-5.726C36.218,-5.866 36.258,-5.99 36.337,-6.097C36.416,-6.204 36.545,-6.309 36.722,-6.412C37.049,-6.589 37.431,-6.732 37.87,-6.839C38.309,-6.946 38.733,-7 39.144,-7C40.049,-7 40.724,-6.771 41.167,-6.314ZM39.97,-1.477C40.297,-1.827 40.46,-2.277 40.46,-2.828L40.46,-3.192L40.208,-3.192C39.48,-3.192 38.92,-3.159 38.528,-3.094C38.136,-3.029 37.856,-2.919 37.688,-2.765C37.52,-2.611 37.436,-2.389 37.436,-2.1C37.436,-1.764 37.557,-1.489 37.8,-1.274C38.043,-1.059 38.346,-0.952 38.71,-0.952C39.223,-0.952 39.643,-1.127 39.97,-1.477Z" style="fill-rule:nonzero;"/>
                <path d="M43.967,-0.098C43.832,-0.21 43.764,-0.378 43.764,-0.602L43.764,-9.254C43.764,-9.478 43.832,-9.648 43.967,-9.765C44.102,-9.882 44.273,-9.94 44.478,-9.94C44.683,-9.94 44.851,-9.882 44.982,-9.765C45.113,-9.648 45.178,-9.478 45.178,-9.254L45.178,-0.602C45.178,-0.378 45.113,-0.21 44.982,-0.098C44.851,0.014 44.683,0.07 44.478,0.07C44.273,0.07 44.102,0.014 43.967,-0.098Z" style="fill-rule:nonzero;"/>
                <path d="M47.355,-0.098C47.22,-0.21 47.152,-0.378 47.152,-0.602L47.152,-9.254C47.152,-9.478 47.22,-9.648 47.355,-9.765C47.49,-9.882 47.661,-9.94 47.866,-9.94C48.071,-9.94 48.239,-9.882 48.37,-9.765C48.501,-9.648 48.566,-9.478 48.566,-9.254L48.566,-0.602C48.566,-0.378 48.501,-0.21 48.37,-0.098C48.239,0.014 48.071,0.07 47.866,0.07C47.661,0.07 47.49,0.014 47.355,-0.098Z" style="fill-rule:nonzero;"/>
                <path d="M55.643,-0.182C55.004,-0.378 54.493,-0.649 54.11,-0.994C53.933,-1.143 53.844,-1.335 53.844,-1.568C53.844,-1.736 53.891,-1.878 53.984,-1.995C54.077,-2.112 54.189,-2.17 54.32,-2.17C54.451,-2.17 54.609,-2.109 54.796,-1.988C55.627,-1.372 56.574,-1.064 57.638,-1.064C58.385,-1.064 58.959,-1.204 59.36,-1.484C59.761,-1.764 59.962,-2.165 59.962,-2.688C59.962,-3.099 59.775,-3.407 59.402,-3.612C59.029,-3.817 58.431,-4.013 57.61,-4.2C56.826,-4.368 56.182,-4.559 55.678,-4.774C55.174,-4.989 54.78,-5.28 54.495,-5.649C54.21,-6.018 54.068,-6.487 54.068,-7.056C54.068,-7.625 54.224,-8.132 54.537,-8.575C54.85,-9.018 55.286,-9.364 55.846,-9.611C56.406,-9.858 57.045,-9.982 57.764,-9.982C58.427,-9.982 59.038,-9.889 59.598,-9.702C60.158,-9.515 60.634,-9.24 61.026,-8.876C61.213,-8.717 61.306,-8.526 61.306,-8.302C61.306,-8.143 61.257,-8.003 61.159,-7.882C61.061,-7.761 60.947,-7.7 60.816,-7.7C60.695,-7.7 60.541,-7.761 60.354,-7.882C59.925,-8.209 59.521,-8.444 59.143,-8.589C58.765,-8.734 58.31,-8.806 57.778,-8.806C57.059,-8.806 56.499,-8.659 56.098,-8.365C55.697,-8.071 55.496,-7.663 55.496,-7.14C55.496,-6.692 55.673,-6.354 56.028,-6.125C56.383,-5.896 56.952,-5.689 57.736,-5.502C58.557,-5.315 59.222,-5.122 59.731,-4.921C60.24,-4.72 60.646,-4.445 60.949,-4.095C61.252,-3.745 61.404,-3.295 61.404,-2.744C61.404,-2.184 61.248,-1.687 60.935,-1.253C60.622,-0.819 60.184,-0.483 59.619,-0.245C59.054,-0.007 58.403,0.112 57.666,0.112C56.957,0.112 56.282,0.014 55.643,-0.182Z" style="fill-rule:nonzero;"/>
                <path d="M68.684,-1.568C68.768,-1.465 68.81,-1.335 68.81,-1.176C68.81,-0.905 68.642,-0.677 68.306,-0.49C67.979,-0.303 67.622,-0.159 67.235,-0.056C66.848,0.047 66.477,0.098 66.122,0.098C65.039,0.098 64.185,-0.217 63.56,-0.847C62.935,-1.477 62.622,-2.338 62.622,-3.43C62.622,-4.13 62.76,-4.751 63.035,-5.292C63.31,-5.833 63.698,-6.253 64.197,-6.552C64.696,-6.851 65.263,-7 65.898,-7C66.813,-7 67.536,-6.706 68.068,-6.118C68.6,-5.53 68.866,-4.737 68.866,-3.738C68.866,-3.365 68.698,-3.178 68.362,-3.178L64.036,-3.178C64.129,-1.731 64.825,-1.008 66.122,-1.008C66.467,-1.008 66.766,-1.055 67.018,-1.148C67.27,-1.241 67.536,-1.363 67.816,-1.512C67.844,-1.531 67.921,-1.57 68.047,-1.631C68.173,-1.692 68.278,-1.722 68.362,-1.722C68.493,-1.722 68.6,-1.671 68.684,-1.568ZM64.624,-5.446C64.297,-5.101 64.101,-4.615 64.036,-3.99L67.648,-3.99C67.62,-4.625 67.459,-5.112 67.165,-5.453C66.871,-5.794 66.458,-5.964 65.926,-5.964C65.385,-5.964 64.951,-5.791 64.624,-5.446Z" style="fill-rule:nonzero;"/>
                <path d="M71.603,-0.336C71.104,-0.625 70.716,-1.036 70.441,-1.568C70.166,-2.1 70.028,-2.716 70.028,-3.416C70.028,-4.125 70.17,-4.751 70.455,-5.292C70.74,-5.833 71.139,-6.253 71.652,-6.552C72.165,-6.851 72.753,-7 73.416,-7C73.771,-7 74.128,-6.949 74.487,-6.846C74.846,-6.743 75.166,-6.603 75.446,-6.426C75.745,-6.221 75.894,-5.983 75.894,-5.712C75.894,-5.553 75.852,-5.42 75.768,-5.313C75.684,-5.206 75.577,-5.152 75.446,-5.152C75.362,-5.152 75.278,-5.173 75.194,-5.215C75.11,-5.257 75.003,-5.32 74.872,-5.404C74.639,-5.553 74.422,-5.668 74.221,-5.747C74.02,-5.826 73.78,-5.866 73.5,-5.866C72.865,-5.866 72.373,-5.651 72.023,-5.222C71.673,-4.793 71.498,-4.195 71.498,-3.43C71.498,-2.665 71.671,-2.074 72.016,-1.659C72.361,-1.244 72.851,-1.036 73.486,-1.036C73.766,-1.036 74.013,-1.078 74.228,-1.162C74.443,-1.246 74.662,-1.358 74.886,-1.498C74.989,-1.563 75.091,-1.619 75.194,-1.666C75.297,-1.713 75.39,-1.736 75.474,-1.736C75.605,-1.736 75.712,-1.682 75.796,-1.575C75.88,-1.468 75.922,-1.335 75.922,-1.176C75.922,-1.045 75.887,-0.926 75.817,-0.819C75.747,-0.712 75.628,-0.602 75.46,-0.49C75.18,-0.303 74.853,-0.159 74.48,-0.056C74.107,0.047 73.729,0.098 73.346,0.098C72.683,0.098 72.102,-0.047 71.603,-0.336Z" style="fill-rule:nonzero;"/>
                <path d="M82.985,-6.79C83.111,-6.669 83.174,-6.501 83.174,-6.286L83.174,-0.588C83.174,-0.392 83.109,-0.233 82.978,-0.112C82.847,0.009 82.675,0.07 82.46,0.07C82.264,0.07 82.105,0.012 81.984,-0.105C81.863,-0.222 81.802,-0.378 81.802,-0.574L81.802,-1.106C81.587,-0.714 81.291,-0.415 80.913,-0.21C80.535,-0.005 80.113,0.098 79.646,0.098C77.985,0.098 77.154,-0.817 77.154,-2.646L77.154,-6.286C77.154,-6.501 77.217,-6.669 77.343,-6.79C77.469,-6.911 77.644,-6.972 77.868,-6.972C78.083,-6.972 78.253,-6.911 78.379,-6.79C78.505,-6.669 78.568,-6.501 78.568,-6.286L78.568,-2.66C78.568,-2.109 78.68,-1.703 78.904,-1.442C79.128,-1.181 79.473,-1.05 79.94,-1.05C80.491,-1.05 80.932,-1.227 81.263,-1.582C81.594,-1.937 81.76,-2.408 81.76,-2.996L81.76,-6.286C81.76,-6.491 81.825,-6.657 81.956,-6.783C82.087,-6.909 82.259,-6.972 82.474,-6.972C82.689,-6.972 82.859,-6.911 82.985,-6.79Z" style="fill-rule:nonzero;"/>
                <path d="M89.404,-6.398C89.404,-6.193 89.353,-6.039 89.25,-5.936C89.147,-5.833 88.97,-5.773 88.718,-5.754L88.298,-5.712C87.71,-5.656 87.274,-5.451 86.989,-5.096C86.704,-4.741 86.562,-4.312 86.562,-3.808L86.562,-0.602C86.562,-0.378 86.497,-0.21 86.366,-0.098C86.235,0.014 86.067,0.07 85.862,0.07C85.657,0.07 85.486,0.014 85.351,-0.098C85.216,-0.21 85.148,-0.378 85.148,-0.602L85.148,-6.3C85.148,-6.515 85.216,-6.68 85.351,-6.797C85.486,-6.914 85.657,-6.972 85.862,-6.972C86.049,-6.972 86.205,-6.914 86.331,-6.797C86.457,-6.68 86.52,-6.519 86.52,-6.314L86.52,-5.642C86.707,-6.053 86.977,-6.365 87.332,-6.58C87.687,-6.795 88.088,-6.921 88.536,-6.958L88.732,-6.972C89.18,-7 89.404,-6.809 89.404,-6.398Z" style="fill-rule:nonzero;"/>
                <path d="M90.475,-0.098C90.34,-0.21 90.272,-0.378 90.272,-0.602L90.272,-6.286C90.272,-6.51 90.34,-6.68 90.475,-6.797C90.61,-6.914 90.781,-6.972 90.986,-6.972C91.191,-6.972 91.359,-6.914 91.49,-6.797C91.621,-6.68 91.686,-6.51 91.686,-6.286L91.686,-0.602C91.686,-0.378 91.621,-0.21 91.49,-0.098C91.359,0.014 91.191,0.07 90.986,0.07C90.781,0.07 90.61,0.014 90.475,-0.098ZM90.342,-8.568C90.183,-8.717 90.104,-8.913 90.104,-9.156C90.104,-9.399 90.183,-9.592 90.342,-9.737C90.501,-9.882 90.715,-9.954 90.986,-9.954C91.247,-9.954 91.46,-9.882 91.623,-9.737C91.786,-9.592 91.868,-9.399 91.868,-9.156C91.868,-8.913 91.789,-8.717 91.63,-8.568C91.471,-8.419 91.257,-8.344 90.986,-8.344C90.715,-8.344 90.501,-8.419 90.342,-8.568Z" style="fill-rule:nonzero;"/>
                <path d="M97.447,-0.847C97.536,-0.758 97.58,-0.635 97.58,-0.476C97.58,-0.289 97.508,-0.147 97.363,-0.049C97.218,0.049 97.006,0.089 96.726,0.07L96.348,0.042C95.592,-0.014 95.027,-0.245 94.654,-0.651C94.281,-1.057 94.094,-1.657 94.094,-2.45L94.094,-5.74L93.254,-5.74C92.843,-5.74 92.638,-5.922 92.638,-6.286C92.638,-6.454 92.692,-6.587 92.799,-6.685C92.906,-6.783 93.058,-6.832 93.254,-6.832L94.094,-6.832L94.094,-8.274C94.094,-8.489 94.157,-8.657 94.283,-8.778C94.409,-8.899 94.579,-8.96 94.794,-8.96C95.009,-8.96 95.181,-8.899 95.312,-8.778C95.443,-8.657 95.508,-8.489 95.508,-8.274L95.508,-6.832L96.894,-6.832C97.09,-6.832 97.242,-6.783 97.349,-6.685C97.456,-6.587 97.51,-6.454 97.51,-6.286C97.51,-6.109 97.456,-5.973 97.349,-5.88C97.242,-5.787 97.09,-5.74 96.894,-5.74L95.508,-5.74L95.508,-2.352C95.508,-1.913 95.599,-1.591 95.781,-1.386C95.963,-1.181 96.241,-1.064 96.614,-1.036L97.006,-1.008C97.211,-0.989 97.358,-0.936 97.447,-0.847Z" style="fill-rule:nonzero;"/>
                <path d="M103.803,-6.86C103.91,-6.925 104.025,-6.958 104.146,-6.958C104.323,-6.958 104.48,-6.897 104.615,-6.776C104.75,-6.655 104.818,-6.51 104.818,-6.342C104.818,-6.249 104.799,-6.16 104.762,-6.076L100.87,2.184C100.814,2.315 100.732,2.415 100.625,2.485C100.518,2.555 100.403,2.59 100.282,2.59C100.114,2.59 99.962,2.534 99.827,2.422C99.692,2.31 99.624,2.17 99.624,2.002C99.624,1.927 99.647,1.834 99.694,1.722L100.66,-0.336L97.958,-6.076C97.921,-6.151 97.902,-6.235 97.902,-6.328C97.902,-6.505 97.977,-6.655 98.126,-6.776C98.275,-6.897 98.443,-6.958 98.63,-6.958C98.91,-6.958 99.111,-6.827 99.232,-6.566L101.402,-1.75L103.558,-6.552C103.614,-6.692 103.696,-6.795 103.803,-6.86Z" style="fill-rule:nonzero;"/>
                <path d="M111.083,-0.182C110.444,-0.378 109.933,-0.649 109.55,-0.994C109.373,-1.143 109.284,-1.335 109.284,-1.568C109.284,-1.736 109.331,-1.878 109.424,-1.995C109.517,-2.112 109.629,-2.17 109.76,-2.17C109.891,-2.17 110.049,-2.109 110.236,-1.988C111.067,-1.372 112.014,-1.064 113.078,-1.064C113.825,-1.064 114.399,-1.204 114.8,-1.484C115.201,-1.764 115.402,-2.165 115.402,-2.688C115.402,-3.099 115.215,-3.407 114.842,-3.612C114.469,-3.817 113.871,-4.013 113.05,-4.2C112.266,-4.368 111.622,-4.559 111.118,-4.774C110.614,-4.989 110.22,-5.28 109.935,-5.649C109.65,-6.018 109.508,-6.487 109.508,-7.056C109.508,-7.625 109.664,-8.132 109.977,-8.575C110.29,-9.018 110.726,-9.364 111.286,-9.611C111.846,-9.858 112.485,-9.982 113.204,-9.982C113.867,-9.982 114.478,-9.889 115.038,-9.702C115.598,-9.515 116.074,-9.24 116.466,-8.876C116.653,-8.717 116.746,-8.526 116.746,-8.302C116.746,-8.143 116.697,-8.003 116.599,-7.882C116.501,-7.761 116.387,-7.7 116.256,-7.7C116.135,-7.7 115.981,-7.761 115.794,-7.882C115.365,-8.209 114.961,-8.444 114.583,-8.589C114.205,-8.734 113.75,-8.806 113.218,-8.806C112.499,-8.806 111.939,-8.659 111.538,-8.365C111.137,-8.071 110.936,-7.663 110.936,-7.14C110.936,-6.692 111.113,-6.354 111.468,-6.125C111.823,-5.896 112.392,-5.689 113.176,-5.502C113.997,-5.315 114.662,-5.122 115.171,-4.921C115.68,-4.72 116.086,-4.445 116.389,-4.095C116.692,-3.745 116.844,-3.295 116.844,-2.744C116.844,-2.184 116.688,-1.687 116.375,-1.253C116.062,-0.819 115.624,-0.483 115.059,-0.245C114.494,-0.007 113.843,0.112 113.106,0.112C112.397,0.112 111.722,0.014 111.083,-0.182Z" style="fill-rule:nonzero;"/>
                <path d="M124.124,-1.568C124.208,-1.465 124.25,-1.335 124.25,-1.176C124.25,-0.905 124.082,-0.677 123.746,-0.49C123.419,-0.303 123.062,-0.159 122.675,-0.056C122.288,0.047 121.917,0.098 121.562,0.098C120.479,0.098 119.625,-0.217 119,-0.847C118.375,-1.477 118.062,-2.338 118.062,-3.43C118.062,-4.13 118.2,-4.751 118.475,-5.292C118.75,-5.833 119.138,-6.253 119.637,-6.552C120.136,-6.851 120.703,-7 121.338,-7C122.253,-7 122.976,-6.706 123.508,-6.118C124.04,-5.53 124.306,-4.737 124.306,-3.738C124.306,-3.365 124.138,-3.178 123.802,-3.178L119.476,-3.178C119.569,-1.731 120.265,-1.008 121.562,-1.008C121.907,-1.008 122.206,-1.055 122.458,-1.148C122.71,-1.241 122.976,-1.363 123.256,-1.512C123.284,-1.531 123.361,-1.57 123.487,-1.631C123.613,-1.692 123.718,-1.722 123.802,-1.722C123.933,-1.722 124.04,-1.671 124.124,-1.568ZM120.064,-5.446C119.737,-5.101 119.541,-4.615 119.476,-3.99L123.088,-3.99C123.06,-4.625 122.899,-5.112 122.605,-5.453C122.311,-5.794 121.898,-5.964 121.366,-5.964C120.825,-5.964 120.391,-5.791 120.064,-5.446Z" style="fill-rule:nonzero;"/>
                <path d="M130.116,-6.398C130.116,-6.193 130.065,-6.039 129.962,-5.936C129.859,-5.833 129.682,-5.773 129.43,-5.754L129.01,-5.712C128.422,-5.656 127.986,-5.451 127.701,-5.096C127.416,-4.741 127.274,-4.312 127.274,-3.808L127.274,-0.602C127.274,-0.378 127.209,-0.21 127.078,-0.098C126.947,0.014 126.779,0.07 126.574,0.07C126.369,0.07 126.198,0.014 126.063,-0.098C125.928,-0.21 125.86,-0.378 125.86,-0.602L125.86,-6.3C125.86,-6.515 125.928,-6.68 126.063,-6.797C126.198,-6.914 126.369,-6.972 126.574,-6.972C126.761,-6.972 126.917,-6.914 127.043,-6.797C127.169,-6.68 127.232,-6.519 127.232,-6.314L127.232,-5.642C127.419,-6.053 127.689,-6.365 128.044,-6.58C128.399,-6.795 128.8,-6.921 129.248,-6.958L129.444,-6.972C129.892,-7 130.116,-6.809 130.116,-6.398Z" style="fill-rule:nonzero;"/>
                <path d="M136.507,-6.86C136.614,-6.925 136.729,-6.958 136.85,-6.958C137.027,-6.958 137.184,-6.897 137.319,-6.776C137.454,-6.655 137.522,-6.51 137.522,-6.342C137.522,-6.249 137.503,-6.16 137.466,-6.076L134.792,-0.406C134.727,-0.257 134.626,-0.142 134.491,-0.063C134.356,0.016 134.213,0.056 134.064,0.056C133.915,0.056 133.772,0.016 133.637,-0.063C133.502,-0.142 133.401,-0.257 133.336,-0.406L130.662,-6.076C130.625,-6.151 130.606,-6.239 130.606,-6.342C130.606,-6.51 130.681,-6.655 130.83,-6.776C130.979,-6.897 131.147,-6.958 131.334,-6.958C131.605,-6.958 131.805,-6.827 131.936,-6.566L134.106,-1.75L136.262,-6.552C136.318,-6.692 136.4,-6.795 136.507,-6.86Z" style="fill-rule:nonzero;"/>
                <path d="M138.887,-0.098C138.752,-0.21 138.684,-0.378 138.684,-0.602L138.684,-6.286C138.684,-6.51 138.752,-6.68 138.887,-6.797C139.022,-6.914 139.193,-6.972 139.398,-6.972C139.603,-6.972 139.771,-6.914 139.902,-6.797C140.033,-6.68 140.098,-6.51 140.098,-6.286L140.098,-0.602C140.098,-0.378 140.033,-0.21 139.902,-0.098C139.771,0.014 139.603,0.07 139.398,0.07C139.193,0.07 139.022,0.014 138.887,-0.098ZM138.754,-8.568C138.595,-8.717 138.516,-8.913 138.516,-9.156C138.516,-9.399 138.595,-9.592 138.754,-9.737C138.913,-9.882 139.127,-9.954 139.398,-9.954C139.659,-9.954 139.872,-9.882 140.035,-9.737C140.198,-9.592 140.28,-9.399 140.28,-9.156C140.28,-8.913 140.201,-8.717 140.042,-8.568C139.883,-8.419 139.669,-8.344 139.398,-8.344C139.127,-8.344 138.913,-8.419 138.754,-8.568Z" style="fill-rule:nonzero;"/>
                <path d="M143.255,-0.336C142.756,-0.625 142.368,-1.036 142.093,-1.568C141.818,-2.1 141.68,-2.716 141.68,-3.416C141.68,-4.125 141.822,-4.751 142.107,-5.292C142.392,-5.833 142.791,-6.253 143.304,-6.552C143.817,-6.851 144.405,-7 145.068,-7C145.423,-7 145.78,-6.949 146.139,-6.846C146.498,-6.743 146.818,-6.603 147.098,-6.426C147.397,-6.221 147.546,-5.983 147.546,-5.712C147.546,-5.553 147.504,-5.42 147.42,-5.313C147.336,-5.206 147.229,-5.152 147.098,-5.152C147.014,-5.152 146.93,-5.173 146.846,-5.215C146.762,-5.257 146.655,-5.32 146.524,-5.404C146.291,-5.553 146.074,-5.668 145.873,-5.747C145.672,-5.826 145.432,-5.866 145.152,-5.866C144.517,-5.866 144.025,-5.651 143.675,-5.222C143.325,-4.793 143.15,-4.195 143.15,-3.43C143.15,-2.665 143.323,-2.074 143.668,-1.659C144.013,-1.244 144.503,-1.036 145.138,-1.036C145.418,-1.036 145.665,-1.078 145.88,-1.162C146.095,-1.246 146.314,-1.358 146.538,-1.498C146.641,-1.563 146.743,-1.619 146.846,-1.666C146.949,-1.713 147.042,-1.736 147.126,-1.736C147.257,-1.736 147.364,-1.682 147.448,-1.575C147.532,-1.468 147.574,-1.335 147.574,-1.176C147.574,-1.045 147.539,-0.926 147.469,-0.819C147.399,-0.712 147.28,-0.602 147.112,-0.49C146.832,-0.303 146.505,-0.159 146.132,-0.056C145.759,0.047 145.381,0.098 144.998,0.098C144.335,0.098 143.754,-0.047 143.255,-0.336Z" style="fill-rule:nonzero;"/>
                <path d="M154.504,-1.568C154.588,-1.465 154.63,-1.335 154.63,-1.176C154.63,-0.905 154.462,-0.677 154.126,-0.49C153.799,-0.303 153.442,-0.159 153.055,-0.056C152.668,0.047 152.297,0.098 151.942,0.098C150.859,0.098 150.005,-0.217 149.38,-0.847C148.755,-1.477 148.442,-2.338 148.442,-3.43C148.442,-4.13 148.58,-4.751 148.855,-5.292C149.13,-5.833 149.518,-6.253 150.017,-6.552C150.516,-6.851 151.083,-7 151.718,-7C152.633,-7 153.356,-6.706 153.888,-6.118C154.42,-5.53 154.686,-4.737 154.686,-3.738C154.686,-3.365 154.518,-3.178 154.182,-3.178L149.856,-3.178C149.949,-1.731 150.645,-1.008 151.942,-1.008C152.287,-1.008 152.586,-1.055 152.838,-1.148C153.09,-1.241 153.356,-1.363 153.636,-1.512C153.664,-1.531 153.741,-1.57 153.867,-1.631C153.993,-1.692 154.098,-1.722 154.182,-1.722C154.313,-1.722 154.42,-1.671 154.504,-1.568ZM150.444,-5.446C150.117,-5.101 149.921,-4.615 149.856,-3.99L153.468,-3.99C153.44,-4.625 153.279,-5.112 152.985,-5.453C152.691,-5.794 152.278,-5.964 151.746,-5.964C151.205,-5.964 150.771,-5.791 150.444,-5.446Z" style="fill-rule:nonzero;"/>
                <path d="M156.282,-0.49C156.114,-0.593 155.995,-0.7 155.925,-0.812C155.855,-0.924 155.82,-1.05 155.82,-1.19C155.82,-1.339 155.862,-1.465 155.946,-1.568C156.03,-1.671 156.137,-1.722 156.268,-1.722C156.389,-1.722 156.581,-1.647 156.842,-1.498C157.122,-1.349 157.395,-1.227 157.661,-1.134C157.927,-1.041 158.261,-0.994 158.662,-0.994C159.11,-0.994 159.46,-1.073 159.712,-1.232C159.964,-1.391 160.09,-1.615 160.09,-1.904C160.09,-2.091 160.041,-2.24 159.943,-2.352C159.845,-2.464 159.675,-2.564 159.432,-2.653C159.189,-2.742 158.83,-2.837 158.354,-2.94C157.533,-3.117 156.942,-3.358 156.583,-3.661C156.224,-3.964 156.044,-4.377 156.044,-4.9C156.044,-5.301 156.161,-5.663 156.394,-5.985C156.627,-6.307 156.949,-6.557 157.36,-6.734C157.771,-6.911 158.237,-7 158.76,-7C159.133,-7 159.497,-6.951 159.852,-6.853C160.207,-6.755 160.519,-6.613 160.79,-6.426C161.098,-6.221 161.252,-5.983 161.252,-5.712C161.252,-5.563 161.208,-5.437 161.119,-5.334C161.03,-5.231 160.925,-5.18 160.804,-5.18C160.72,-5.18 160.636,-5.199 160.552,-5.236C160.468,-5.273 160.356,-5.334 160.216,-5.418C159.964,-5.567 159.728,-5.684 159.509,-5.768C159.29,-5.852 159.017,-5.894 158.69,-5.894C158.298,-5.894 157.983,-5.81 157.745,-5.642C157.507,-5.474 157.388,-5.245 157.388,-4.956C157.388,-4.695 157.498,-4.492 157.717,-4.347C157.936,-4.202 158.349,-4.065 158.956,-3.934C159.581,-3.803 160.071,-3.654 160.426,-3.486C160.781,-3.318 161.035,-3.11 161.189,-2.863C161.343,-2.616 161.42,-2.301 161.42,-1.918C161.42,-1.311 161.166,-0.824 160.657,-0.455C160.148,-0.086 159.469,0.098 158.62,0.098C157.668,0.098 156.889,-0.098 156.282,-0.49Z" style="fill-rule:nonzero;"/>
                <path d="M167.041,-0.182C166.915,-0.303 166.852,-0.467 166.852,-0.672L166.852,-9.212C166.852,-9.427 166.917,-9.602 167.048,-9.737C167.179,-9.872 167.351,-9.94 167.566,-9.94C167.79,-9.94 167.967,-9.875 168.098,-9.744C168.229,-9.613 168.294,-9.436 168.294,-9.212L168.294,-1.204L172.55,-1.204C172.765,-1.204 172.93,-1.153 173.047,-1.05C173.164,-0.947 173.222,-0.798 173.222,-0.602C173.222,-0.406 173.164,-0.257 173.047,-0.154C172.93,-0.051 172.765,0 172.55,0L167.552,0C167.337,0 167.167,-0.061 167.041,-0.182Z" style="fill-rule:nonzero;"/>
                <path d="M179.235,-6.314C179.678,-5.857 179.9,-5.161 179.9,-4.228L179.9,-0.602C179.9,-0.387 179.839,-0.222 179.718,-0.105C179.597,0.012 179.429,0.07 179.214,0.07C179.009,0.07 178.845,0.009 178.724,-0.112C178.603,-0.233 178.542,-0.397 178.542,-0.602L178.542,-1.12C178.365,-0.728 178.101,-0.427 177.751,-0.217C177.401,-0.007 176.993,0.098 176.526,0.098C176.078,0.098 175.667,0.007 175.294,-0.175C174.921,-0.357 174.629,-0.611 174.419,-0.938C174.209,-1.265 174.104,-1.629 174.104,-2.03C174.104,-2.525 174.232,-2.914 174.489,-3.199C174.746,-3.484 175.17,-3.687 175.763,-3.808C176.356,-3.929 177.17,-3.99 178.206,-3.99L178.528,-3.99L178.528,-4.396C178.528,-4.919 178.421,-5.297 178.206,-5.53C177.991,-5.763 177.646,-5.88 177.17,-5.88C176.843,-5.88 176.535,-5.838 176.246,-5.754C175.957,-5.67 175.639,-5.549 175.294,-5.39C175.042,-5.25 174.865,-5.18 174.762,-5.18C174.622,-5.18 174.508,-5.231 174.419,-5.334C174.33,-5.437 174.286,-5.567 174.286,-5.726C174.286,-5.866 174.326,-5.99 174.405,-6.097C174.484,-6.204 174.613,-6.309 174.79,-6.412C175.117,-6.589 175.499,-6.732 175.938,-6.839C176.377,-6.946 176.801,-7 177.212,-7C178.117,-7 178.792,-6.771 179.235,-6.314ZM178.038,-1.477C178.365,-1.827 178.528,-2.277 178.528,-2.828L178.528,-3.192L178.276,-3.192C177.548,-3.192 176.988,-3.159 176.596,-3.094C176.204,-3.029 175.924,-2.919 175.756,-2.765C175.588,-2.611 175.504,-2.389 175.504,-2.1C175.504,-1.764 175.625,-1.489 175.868,-1.274C176.111,-1.059 176.414,-0.952 176.778,-0.952C177.291,-0.952 177.711,-1.127 178.038,-1.477Z" style="fill-rule:nonzero;"/>
                <path d="M186.935,-6.86C187.042,-6.925 187.157,-6.958 187.278,-6.958C187.455,-6.958 187.612,-6.897 187.747,-6.776C187.882,-6.655 187.95,-6.51 187.95,-6.342C187.95,-6.249 187.931,-6.16 187.894,-6.076L184.002,2.184C183.946,2.315 183.864,2.415 183.757,2.485C183.65,2.555 183.535,2.59 183.414,2.59C183.246,2.59 183.094,2.534 182.959,2.422C182.824,2.31 182.756,2.17 182.756,2.002C182.756,1.927 182.779,1.834 182.826,1.722L183.792,-0.336L181.09,-6.076C181.053,-6.151 181.034,-6.235 181.034,-6.328C181.034,-6.505 181.109,-6.655 181.258,-6.776C181.407,-6.897 181.575,-6.958 181.762,-6.958C182.042,-6.958 182.243,-6.827 182.364,-6.566L184.534,-1.75L186.69,-6.552C186.746,-6.692 186.828,-6.795 186.935,-6.86Z" style="fill-rule:nonzero;"/>
                <path d="M194.684,-1.568C194.768,-1.465 194.81,-1.335 194.81,-1.176C194.81,-0.905 194.642,-0.677 194.306,-0.49C193.979,-0.303 193.622,-0.159 193.235,-0.056C192.848,0.047 192.477,0.098 192.122,0.098C191.039,0.098 190.185,-0.217 189.56,-0.847C188.935,-1.477 188.622,-2.338 188.622,-3.43C188.622,-4.13 188.76,-4.751 189.035,-5.292C189.31,-5.833 189.698,-6.253 190.197,-6.552C190.696,-6.851 191.263,-7 191.898,-7C192.813,-7 193.536,-6.706 194.068,-6.118C194.6,-5.53 194.866,-4.737 194.866,-3.738C194.866,-3.365 194.698,-3.178 194.362,-3.178L190.036,-3.178C190.129,-1.731 190.825,-1.008 192.122,-1.008C192.467,-1.008 192.766,-1.055 193.018,-1.148C193.27,-1.241 193.536,-1.363 193.816,-1.512C193.844,-1.531 193.921,-1.57 194.047,-1.631C194.173,-1.692 194.278,-1.722 194.362,-1.722C194.493,-1.722 194.6,-1.671 194.684,-1.568ZM190.624,-5.446C190.297,-5.101 190.101,-4.615 190.036,-3.99L193.648,-3.99C193.62,-4.625 193.459,-5.112 193.165,-5.453C192.871,-5.794 192.458,-5.964 191.926,-5.964C191.385,-5.964 190.951,-5.791 190.624,-5.446Z" style="fill-rule:nonzero;"/>
                <path d="M200.676,-6.398C200.676,-6.193 200.625,-6.039 200.522,-5.936C200.419,-5.833 200.242,-5.773 199.99,-5.754L199.57,-5.712C198.982,-5.656 198.546,-5.451 198.261,-5.096C197.976,-4.741 197.834,-4.312 197.834,-3.808L197.834,-0.602C197.834,-0.378 197.769,-0.21 197.638,-0.098C197.507,0.014 197.339,0.07 197.134,0.07C196.929,0.07 196.758,0.014 196.623,-0.098C196.488,-0.21 196.42,-0.378 196.42,-0.602L196.42,-6.3C196.42,-6.515 196.488,-6.68 196.623,-6.797C196.758,-6.914 196.929,-6.972 197.134,-6.972C197.321,-6.972 197.477,-6.914 197.603,-6.797C197.729,-6.68 197.792,-6.519 197.792,-6.314L197.792,-5.642C197.979,-6.053 198.249,-6.365 198.604,-6.58C198.959,-6.795 199.36,-6.921 199.808,-6.958L200.004,-6.972C200.452,-7 200.676,-6.809 200.676,-6.398Z" style="fill-rule:nonzero;"/>
                <path d="M201.516,-0.49C201.348,-0.593 201.229,-0.7 201.159,-0.812C201.089,-0.924 201.054,-1.05 201.054,-1.19C201.054,-1.339 201.096,-1.465 201.18,-1.568C201.264,-1.671 201.371,-1.722 201.502,-1.722C201.623,-1.722 201.815,-1.647 202.076,-1.498C202.356,-1.349 202.629,-1.227 202.895,-1.134C203.161,-1.041 203.495,-0.994 203.896,-0.994C204.344,-0.994 204.694,-1.073 204.946,-1.232C205.198,-1.391 205.324,-1.615 205.324,-1.904C205.324,-2.091 205.275,-2.24 205.177,-2.352C205.079,-2.464 204.909,-2.564 204.666,-2.653C204.423,-2.742 204.064,-2.837 203.588,-2.94C202.767,-3.117 202.176,-3.358 201.817,-3.661C201.458,-3.964 201.278,-4.377 201.278,-4.9C201.278,-5.301 201.395,-5.663 201.628,-5.985C201.861,-6.307 202.183,-6.557 202.594,-6.734C203.005,-6.911 203.471,-7 203.994,-7C204.367,-7 204.731,-6.951 205.086,-6.853C205.441,-6.755 205.753,-6.613 206.024,-6.426C206.332,-6.221 206.486,-5.983 206.486,-5.712C206.486,-5.563 206.442,-5.437 206.353,-5.334C206.264,-5.231 206.159,-5.18 206.038,-5.18C205.954,-5.18 205.87,-5.199 205.786,-5.236C205.702,-5.273 205.59,-5.334 205.45,-5.418C205.198,-5.567 204.962,-5.684 204.743,-5.768C204.524,-5.852 204.251,-5.894 203.924,-5.894C203.532,-5.894 203.217,-5.81 202.979,-5.642C202.741,-5.474 202.622,-5.245 202.622,-4.956C202.622,-4.695 202.732,-4.492 202.951,-4.347C203.17,-4.202 203.583,-4.065 204.19,-3.934C204.815,-3.803 205.305,-3.654 205.66,-3.486C206.015,-3.318 206.269,-3.11 206.423,-2.863C206.577,-2.616 206.654,-2.301 206.654,-1.918C206.654,-1.311 206.4,-0.824 205.891,-0.455C205.382,-0.086 204.703,0.098 203.854,0.098C202.902,0.098 202.123,-0.098 201.516,-0.49Z" style="fill-rule:nonzero;"/>
            </g>
        </g>
    </g>
</svg>
