<?xml version="1.0" encoding="UTF-8" standalone="no"?>
<!DOCTYPE svg PUBLIC "-//W3C//DTD SVG 1.1//EN" "http://www.w3.org/Graphics/SVG/1.1/DTD/svg11.dtd">
<svg width="100%" height="100%" viewBox="0 0 108 13" version="1.1" xmlns="http://www.w3.org/2000/svg" xmlns:xlink="http://www.w3.org/1999/xlink" xml:space="preserve" xmlns:serif="http://www.serif.com/" style="fill-rule:evenodd;clip-rule:evenodd;stroke-linejoin:round;stroke-miterlimit:1.41421;">
    <g transform="matrix(1,0,0,1,-741,-283)">
        <g transform="matrix(1,0,0,1,741,293)">
            <g id="Gateway-Firewall">
                <path d="M8.897,-5.012C8.986,-4.928 9.03,-4.811 9.03,-4.662L9.03,-1.176C9.03,-0.952 8.995,-0.784 8.925,-0.672C8.855,-0.56 8.727,-0.471 8.54,-0.406C8.167,-0.247 7.714,-0.121 7.182,-0.028C6.65,0.065 6.118,0.112 5.586,0.112C4.606,0.112 3.761,-0.089 3.052,-0.49C2.343,-0.891 1.799,-1.47 1.421,-2.226C1.043,-2.982 0.854,-3.887 0.854,-4.942C0.854,-5.978 1.041,-6.874 1.414,-7.63C1.787,-8.386 2.324,-8.967 3.024,-9.373C3.724,-9.779 4.545,-9.982 5.488,-9.982C6.141,-9.982 6.748,-9.882 7.308,-9.681C7.868,-9.48 8.339,-9.193 8.722,-8.82C8.881,-8.661 8.96,-8.498 8.96,-8.33C8.96,-8.199 8.923,-8.085 8.848,-7.987C8.773,-7.889 8.68,-7.84 8.568,-7.84C8.456,-7.84 8.325,-7.896 8.176,-8.008C7.691,-8.381 7.252,-8.64 6.86,-8.785C6.468,-8.93 6.015,-9.002 5.502,-9.002C4.391,-9.002 3.54,-8.652 2.947,-7.952C2.354,-7.252 2.058,-6.249 2.058,-4.942C2.058,-3.607 2.359,-2.592 2.961,-1.897C3.563,-1.202 4.447,-0.854 5.614,-0.854C6.482,-0.854 7.271,-0.985 7.98,-1.246L7.98,-4.242L5.936,-4.242C5.777,-4.242 5.651,-4.284 5.558,-4.368C5.465,-4.452 5.418,-4.559 5.418,-4.69C5.418,-4.83 5.465,-4.94 5.558,-5.019C5.651,-5.098 5.777,-5.138 5.936,-5.138L8.554,-5.138C8.694,-5.138 8.808,-5.096 8.897,-5.012Z" style="fill-rule:nonzero;"/>
                <path d="M16.534,-4.298L16.534,-0.49C16.534,-0.322 16.485,-0.187 16.387,-0.084C16.289,0.019 16.156,0.07 15.988,0.07C15.82,0.07 15.685,0.019 15.582,-0.084C15.479,-0.187 15.428,-0.322 15.428,-0.49L15.428,-1.162C15.251,-0.761 14.98,-0.45 14.616,-0.231C14.252,-0.012 13.832,0.098 13.356,0.098C12.917,0.098 12.514,0.009 12.145,-0.168C11.776,-0.345 11.485,-0.593 11.27,-0.91C11.055,-1.227 10.948,-1.577 10.948,-1.96C10.948,-2.473 11.079,-2.872 11.34,-3.157C11.601,-3.442 12.031,-3.647 12.628,-3.773C13.225,-3.899 14.056,-3.962 15.12,-3.962L15.428,-3.962L15.428,-4.424C15.428,-4.984 15.314,-5.395 15.085,-5.656C14.856,-5.917 14.485,-6.048 13.972,-6.048C13.337,-6.048 12.693,-5.875 12.04,-5.53C11.788,-5.371 11.611,-5.292 11.508,-5.292C11.396,-5.292 11.303,-5.334 11.228,-5.418C11.153,-5.502 11.116,-5.609 11.116,-5.74C11.116,-5.871 11.156,-5.985 11.235,-6.083C11.314,-6.181 11.443,-6.281 11.62,-6.384C11.947,-6.571 12.318,-6.718 12.733,-6.825C13.148,-6.932 13.561,-6.986 13.972,-6.986C15.68,-6.986 16.534,-6.09 16.534,-4.298ZM14.889,-1.365C15.248,-1.743 15.428,-2.231 15.428,-2.828L15.428,-3.234L15.176,-3.234C14.355,-3.234 13.729,-3.199 13.3,-3.129C12.871,-3.059 12.565,-2.942 12.383,-2.779C12.201,-2.616 12.11,-2.375 12.11,-2.058C12.11,-1.694 12.243,-1.393 12.509,-1.155C12.775,-0.917 13.109,-0.798 13.51,-0.798C14.07,-0.798 14.53,-0.987 14.889,-1.365Z" style="fill-rule:nonzero;"/>
                <path d="M22.246,-0.378C22.246,-0.219 22.188,-0.1 22.071,-0.021C21.954,0.058 21.779,0.089 21.546,0.07L21.168,0.042C20.421,-0.014 19.871,-0.238 19.516,-0.63C19.161,-1.022 18.984,-1.615 18.984,-2.408L18.984,-5.922L18.046,-5.922C17.887,-5.922 17.764,-5.962 17.675,-6.041C17.586,-6.12 17.542,-6.225 17.542,-6.356C17.542,-6.496 17.586,-6.608 17.675,-6.692C17.764,-6.776 17.887,-6.818 18.046,-6.818L18.984,-6.818L18.984,-8.4C18.984,-8.577 19.035,-8.715 19.138,-8.813C19.241,-8.911 19.381,-8.96 19.558,-8.96C19.726,-8.96 19.861,-8.911 19.964,-8.813C20.067,-8.715 20.118,-8.577 20.118,-8.4L20.118,-6.818L21.672,-6.818C21.821,-6.818 21.94,-6.776 22.029,-6.692C22.118,-6.608 22.162,-6.496 22.162,-6.356C22.162,-6.225 22.118,-6.12 22.029,-6.041C21.94,-5.962 21.821,-5.922 21.672,-5.922L20.118,-5.922L20.118,-2.352C20.118,-1.839 20.223,-1.468 20.433,-1.239C20.643,-1.01 20.958,-0.882 21.378,-0.854L21.756,-0.826C22.083,-0.798 22.246,-0.649 22.246,-0.378Z" style="fill-rule:nonzero;"/>
                <path d="M28.91,-1.456C28.985,-1.372 29.022,-1.265 29.022,-1.134C29.022,-0.901 28.859,-0.686 28.532,-0.49C28.196,-0.294 27.841,-0.147 27.468,-0.049C27.095,0.049 26.731,0.098 26.376,0.098C25.321,0.098 24.488,-0.215 23.877,-0.84C23.266,-1.465 22.96,-2.329 22.96,-3.43C22.96,-4.13 23.095,-4.748 23.366,-5.285C23.637,-5.822 24.017,-6.239 24.507,-6.538C24.997,-6.837 25.555,-6.986 26.18,-6.986C27.067,-6.986 27.771,-6.697 28.294,-6.118C28.817,-5.539 29.078,-4.755 29.078,-3.766C29.078,-3.579 29.041,-3.444 28.966,-3.36C28.891,-3.276 28.77,-3.234 28.602,-3.234L24.094,-3.234C24.178,-1.629 24.939,-0.826 26.376,-0.826C26.74,-0.826 27.053,-0.875 27.314,-0.973C27.575,-1.071 27.855,-1.204 28.154,-1.372C28.397,-1.512 28.56,-1.582 28.644,-1.582C28.747,-1.582 28.835,-1.54 28.91,-1.456ZM24.759,-5.544C24.4,-5.171 24.187,-4.643 24.122,-3.962L28.084,-3.962C28.065,-4.653 27.893,-5.182 27.566,-5.551C27.239,-5.92 26.782,-6.104 26.194,-6.104C25.597,-6.104 25.118,-5.917 24.759,-5.544Z" style="fill-rule:nonzero;"/>
                <path d="M40.446,-6.93C40.586,-6.93 40.712,-6.883 40.824,-6.79C40.936,-6.697 40.992,-6.58 40.992,-6.44C40.992,-6.375 40.978,-6.305 40.95,-6.23L38.626,-0.35C38.57,-0.229 38.488,-0.133 38.381,-0.063C38.274,0.007 38.155,0.042 38.024,0.042C37.903,0.042 37.788,0.007 37.681,-0.063C37.574,-0.133 37.492,-0.229 37.436,-0.35L35.504,-5.264L33.586,-0.35C33.539,-0.229 33.46,-0.133 33.348,-0.063C33.236,0.007 33.115,0.042 32.984,0.042C32.863,0.042 32.746,0.007 32.634,-0.063C32.522,-0.133 32.438,-0.229 32.382,-0.35L30.058,-6.216C30.03,-6.291 30.016,-6.356 30.016,-6.412C30.016,-6.561 30.079,-6.687 30.205,-6.79C30.331,-6.893 30.469,-6.944 30.618,-6.944C30.842,-6.944 31.001,-6.832 31.094,-6.608L33.012,-1.442L34.986,-6.566C35.042,-6.687 35.119,-6.781 35.217,-6.846C35.315,-6.911 35.42,-6.944 35.532,-6.944C35.653,-6.944 35.763,-6.911 35.861,-6.846C35.959,-6.781 36.031,-6.687 36.078,-6.566L38.052,-1.456L39.984,-6.594C40.077,-6.818 40.231,-6.93 40.446,-6.93Z" style="fill-rule:nonzero;"/>
                <path d="M47.67,-4.298L47.67,-0.49C47.67,-0.322 47.621,-0.187 47.523,-0.084C47.425,0.019 47.292,0.07 47.124,0.07C46.956,0.07 46.821,0.019 46.718,-0.084C46.615,-0.187 46.564,-0.322 46.564,-0.49L46.564,-1.162C46.387,-0.761 46.116,-0.45 45.752,-0.231C45.388,-0.012 44.968,0.098 44.492,0.098C44.053,0.098 43.65,0.009 43.281,-0.168C42.912,-0.345 42.621,-0.593 42.406,-0.91C42.191,-1.227 42.084,-1.577 42.084,-1.96C42.084,-2.473 42.215,-2.872 42.476,-3.157C42.737,-3.442 43.167,-3.647 43.764,-3.773C44.361,-3.899 45.192,-3.962 46.256,-3.962L46.564,-3.962L46.564,-4.424C46.564,-4.984 46.45,-5.395 46.221,-5.656C45.992,-5.917 45.621,-6.048 45.108,-6.048C44.473,-6.048 43.829,-5.875 43.176,-5.53C42.924,-5.371 42.747,-5.292 42.644,-5.292C42.532,-5.292 42.439,-5.334 42.364,-5.418C42.289,-5.502 42.252,-5.609 42.252,-5.74C42.252,-5.871 42.292,-5.985 42.371,-6.083C42.45,-6.181 42.579,-6.281 42.756,-6.384C43.083,-6.571 43.454,-6.718 43.869,-6.825C44.284,-6.932 44.697,-6.986 45.108,-6.986C46.816,-6.986 47.67,-6.09 47.67,-4.298ZM46.025,-1.365C46.384,-1.743 46.564,-2.231 46.564,-2.828L46.564,-3.234L46.312,-3.234C45.491,-3.234 44.865,-3.199 44.436,-3.129C44.007,-3.059 43.701,-2.942 43.519,-2.779C43.337,-2.616 43.246,-2.375 43.246,-2.058C43.246,-1.694 43.379,-1.393 43.645,-1.155C43.911,-0.917 44.245,-0.798 44.646,-0.798C45.206,-0.798 45.666,-0.987 46.025,-1.365Z" style="fill-rule:nonzero;"/>
                <path d="M55.146,-6.944C55.286,-6.944 55.412,-6.897 55.524,-6.804C55.636,-6.711 55.692,-6.594 55.692,-6.454C55.692,-6.37 55.673,-6.295 55.636,-6.23L51.702,2.254C51.655,2.357 51.588,2.436 51.499,2.492C51.41,2.548 51.319,2.576 51.226,2.576C51.086,2.576 50.962,2.532 50.855,2.443C50.748,2.354 50.694,2.24 50.694,2.1C50.694,2.025 50.713,1.951 50.75,1.876L51.73,-0.238L48.958,-6.23C48.921,-6.295 48.902,-6.365 48.902,-6.44C48.902,-6.58 48.965,-6.701 49.091,-6.804C49.217,-6.907 49.355,-6.958 49.504,-6.958C49.597,-6.958 49.688,-6.93 49.777,-6.874C49.866,-6.818 49.933,-6.739 49.98,-6.636L52.318,-1.386L54.656,-6.608C54.759,-6.832 54.922,-6.944 55.146,-6.944Z" style="fill-rule:nonzero;"/>
                <path d="M60.872,-0.091C60.769,-0.198 60.718,-0.341 60.718,-0.518L60.718,-9.31C60.718,-9.478 60.772,-9.613 60.879,-9.716C60.986,-9.819 61.129,-9.87 61.306,-9.87L66.402,-9.87C66.57,-9.87 66.701,-9.828 66.794,-9.744C66.887,-9.66 66.934,-9.539 66.934,-9.38C66.934,-9.231 66.887,-9.114 66.794,-9.03C66.701,-8.946 66.57,-8.904 66.402,-8.904L61.852,-8.904L61.852,-5.502L66.122,-5.502C66.29,-5.502 66.421,-5.46 66.514,-5.376C66.607,-5.292 66.654,-5.171 66.654,-5.012C66.654,-4.863 66.607,-4.746 66.514,-4.662C66.421,-4.578 66.29,-4.536 66.122,-4.536L61.852,-4.536L61.852,-0.518C61.852,-0.341 61.803,-0.198 61.705,-0.091C61.607,0.016 61.469,0.07 61.292,0.07C61.115,0.07 60.975,0.016 60.872,-0.091Z" style="fill-rule:nonzero;"/>
                <path d="M68.509,-0.077C68.402,-0.175 68.348,-0.313 68.348,-0.49L68.348,-6.398C68.348,-6.575 68.402,-6.713 68.509,-6.811C68.616,-6.909 68.754,-6.958 68.922,-6.958C69.09,-6.958 69.225,-6.909 69.328,-6.811C69.431,-6.713 69.482,-6.575 69.482,-6.398L69.482,-0.49C69.482,-0.303 69.431,-0.163 69.328,-0.07C69.225,0.023 69.09,0.07 68.922,0.07C68.754,0.07 68.616,0.021 68.509,-0.077ZM68.376,-8.624C68.236,-8.755 68.166,-8.927 68.166,-9.142C68.166,-9.347 68.236,-9.515 68.376,-9.646C68.516,-9.777 68.698,-9.842 68.922,-9.842C69.146,-9.842 69.328,-9.777 69.468,-9.646C69.608,-9.515 69.678,-9.347 69.678,-9.142C69.678,-8.927 69.608,-8.755 69.468,-8.624C69.328,-8.493 69.146,-8.428 68.922,-8.428C68.698,-8.428 68.516,-8.493 68.376,-8.624Z" style="fill-rule:nonzero;"/>
                <path d="M75.558,-6.482C75.558,-6.333 75.516,-6.214 75.432,-6.125C75.348,-6.036 75.203,-5.983 74.998,-5.964L74.578,-5.922C73.953,-5.866 73.488,-5.644 73.185,-5.257C72.882,-4.87 72.73,-4.415 72.73,-3.892L72.73,-0.49C72.73,-0.303 72.679,-0.163 72.576,-0.07C72.473,0.023 72.338,0.07 72.17,0.07C72.002,0.07 71.864,0.021 71.757,-0.077C71.65,-0.175 71.596,-0.313 71.596,-0.49L71.596,-6.398C71.596,-6.575 71.652,-6.713 71.764,-6.811C71.876,-6.909 72.011,-6.958 72.17,-6.958C72.319,-6.958 72.445,-6.909 72.548,-6.811C72.651,-6.713 72.702,-6.58 72.702,-6.412L72.702,-5.628C72.898,-6.039 73.176,-6.351 73.535,-6.566C73.894,-6.781 74.307,-6.907 74.774,-6.944L74.97,-6.958C75.362,-6.986 75.558,-6.827 75.558,-6.482Z" style="fill-rule:nonzero;"/>
                <path d="M81.942,-1.456C82.017,-1.372 82.054,-1.265 82.054,-1.134C82.054,-0.901 81.891,-0.686 81.564,-0.49C81.228,-0.294 80.873,-0.147 80.5,-0.049C80.127,0.049 79.763,0.098 79.408,0.098C78.353,0.098 77.52,-0.215 76.909,-0.84C76.298,-1.465 75.992,-2.329 75.992,-3.43C75.992,-4.13 76.127,-4.748 76.398,-5.285C76.669,-5.822 77.049,-6.239 77.539,-6.538C78.029,-6.837 78.587,-6.986 79.212,-6.986C80.099,-6.986 80.803,-6.697 81.326,-6.118C81.849,-5.539 82.11,-4.755 82.11,-3.766C82.11,-3.579 82.073,-3.444 81.998,-3.36C81.923,-3.276 81.802,-3.234 81.634,-3.234L77.126,-3.234C77.21,-1.629 77.971,-0.826 79.408,-0.826C79.772,-0.826 80.085,-0.875 80.346,-0.973C80.607,-1.071 80.887,-1.204 81.186,-1.372C81.429,-1.512 81.592,-1.582 81.676,-1.582C81.779,-1.582 81.867,-1.54 81.942,-1.456ZM77.791,-5.544C77.432,-5.171 77.219,-4.643 77.154,-3.962L81.116,-3.962C81.097,-4.653 80.925,-5.182 80.598,-5.551C80.271,-5.92 79.814,-6.104 79.226,-6.104C78.629,-6.104 78.15,-5.917 77.791,-5.544Z" style="fill-rule:nonzero;"/>
                <path d="M93.478,-6.93C93.618,-6.93 93.744,-6.883 93.856,-6.79C93.968,-6.697 94.024,-6.58 94.024,-6.44C94.024,-6.375 94.01,-6.305 93.982,-6.23L91.658,-0.35C91.602,-0.229 91.52,-0.133 91.413,-0.063C91.306,0.007 91.187,0.042 91.056,0.042C90.935,0.042 90.82,0.007 90.713,-0.063C90.606,-0.133 90.524,-0.229 90.468,-0.35L88.536,-5.264L86.618,-0.35C86.571,-0.229 86.492,-0.133 86.38,-0.063C86.268,0.007 86.147,0.042 86.016,0.042C85.895,0.042 85.778,0.007 85.666,-0.063C85.554,-0.133 85.47,-0.229 85.414,-0.35L83.09,-6.216C83.062,-6.291 83.048,-6.356 83.048,-6.412C83.048,-6.561 83.111,-6.687 83.237,-6.79C83.363,-6.893 83.501,-6.944 83.65,-6.944C83.874,-6.944 84.033,-6.832 84.126,-6.608L86.044,-1.442L88.018,-6.566C88.074,-6.687 88.151,-6.781 88.249,-6.846C88.347,-6.911 88.452,-6.944 88.564,-6.944C88.685,-6.944 88.795,-6.911 88.893,-6.846C88.991,-6.781 89.063,-6.687 89.11,-6.566L91.084,-1.456L93.016,-6.594C93.109,-6.818 93.263,-6.93 93.478,-6.93Z" style="fill-rule:nonzero;"/>
                <path d="M100.702,-4.298L100.702,-0.49C100.702,-0.322 100.653,-0.187 100.555,-0.084C100.457,0.019 100.324,0.07 100.156,0.07C99.988,0.07 99.853,0.019 99.75,-0.084C99.647,-0.187 99.596,-0.322 99.596,-0.49L99.596,-1.162C99.419,-0.761 99.148,-0.45 98.784,-0.231C98.42,-0.012 98,0.098 97.524,0.098C97.085,0.098 96.682,0.009 96.313,-0.168C95.944,-0.345 95.653,-0.593 95.438,-0.91C95.223,-1.227 95.116,-1.577 95.116,-1.96C95.116,-2.473 95.247,-2.872 95.508,-3.157C95.769,-3.442 96.199,-3.647 96.796,-3.773C97.393,-3.899 98.224,-3.962 99.288,-3.962L99.596,-3.962L99.596,-4.424C99.596,-4.984 99.482,-5.395 99.253,-5.656C99.024,-5.917 98.653,-6.048 98.14,-6.048C97.505,-6.048 96.861,-5.875 96.208,-5.53C95.956,-5.371 95.779,-5.292 95.676,-5.292C95.564,-5.292 95.471,-5.334 95.396,-5.418C95.321,-5.502 95.284,-5.609 95.284,-5.74C95.284,-5.871 95.324,-5.985 95.403,-6.083C95.482,-6.181 95.611,-6.281 95.788,-6.384C96.115,-6.571 96.486,-6.718 96.901,-6.825C97.316,-6.932 97.729,-6.986 98.14,-6.986C99.848,-6.986 100.702,-6.09 100.702,-4.298ZM99.057,-1.365C99.416,-1.743 99.596,-2.231 99.596,-2.828L99.596,-3.234L99.344,-3.234C98.523,-3.234 97.897,-3.199 97.468,-3.129C97.039,-3.059 96.733,-2.942 96.551,-2.779C96.369,-2.616 96.278,-2.375 96.278,-2.058C96.278,-1.694 96.411,-1.393 96.677,-1.155C96.943,-0.917 97.277,-0.798 97.678,-0.798C98.238,-0.798 98.698,-0.987 99.057,-1.365Z" style="fill-rule:nonzero;"/>
                <path d="M102.935,-0.077C102.828,-0.175 102.774,-0.313 102.774,-0.49L102.774,-9.38C102.774,-9.557 102.828,-9.695 102.935,-9.793C103.042,-9.891 103.18,-9.94 103.348,-9.94C103.507,-9.94 103.64,-9.891 103.747,-9.793C103.854,-9.695 103.908,-9.557 103.908,-9.38L103.908,-0.49C103.908,-0.313 103.854,-0.175 103.747,-0.077C103.64,0.021 103.507,0.07 103.348,0.07C103.18,0.07 103.042,0.021 102.935,-0.077Z" style="fill-rule:nonzero;"/>
                <path d="M106.183,-0.077C106.076,-0.175 106.022,-0.313 106.022,-0.49L106.022,-9.38C106.022,-9.557 106.076,-9.695 106.183,-9.793C106.29,-9.891 106.428,-9.94 106.596,-9.94C106.755,-9.94 106.888,-9.891 106.995,-9.793C107.102,-9.695 107.156,-9.557 107.156,-9.38L107.156,-0.49C107.156,-0.313 107.102,-0.175 106.995,-0.077C106.888,0.021 106.755,0.07 106.596,0.07C106.428,0.07 106.29,0.021 106.183,-0.077Z" style="fill-rule:nonzero;"/>
            </g>
        </g>
    </g>
</svg>
