<?xml version="1.0" encoding="UTF-8" standalone="no"?>
<svg width="72px" height="70px" viewBox="0 0 72 70" version="1.1" xmlns="http://www.w3.org/2000/svg" xmlns:xlink="http://www.w3.org/1999/xlink">
    <!-- Generator: Sketch 50.2 (55047) - http://www.bohemiancoding.com/sketch -->
    <title>Group 54</title>
    <desc>Created with Sketch.</desc>
    <defs></defs>
    <g id="Page-1" stroke="none" stroke-width="1" fill="none" fill-rule="evenodd">
        <g id="Group-54">
            <g id="User_Guest_Wireless">
                <path d="M54.3304348,45.8757062 C54.3304348,45.8757062 54.2353111,49.2675661 51.0947874,49.2675661 L45.2,49.2675661 C46.102234,50.5628169 46.8733125,51.9415425 47.4959404,53.3898305 L53.6285371,53.3898305 C55.4675955,53.3898305 57.2,51.7050306 57.2,49.853281 C57.2,47.6509372 54.3304348,45.8757062 54.3304348,45.8757062" id="Fill-18" fill="#646566"></path>
                <path d="M63.3237472,0 L24.2777051,0 C19.4879024,0 15.6,4.13150535 15.6,8.6208917 L15.6,13.2228374 C16.9593861,12.5316076 18.4117217,11.9991152 19.9395787,11.6599941 L19.9395787,10.6426308 C19.9395787,6.33218493 22.1079157,4.27869834 26.4460421,4.27869834 L61.1539579,4.27869834 C65.4920843,4.27869834 67.6618736,6.33218493 67.6618736,10.6426308 L67.6618736,32.3305085 C67.6618736,36.6409543 65.4920843,38.7968988 61.1539579,38.7968988 L39.7450791,38.7968988 C39.0711953,39.9224923 38.2898388,40.9874769 37.3850337,41.9528898 C38.0066334,42.3107708 38.6035433,42.7018424 39.1873822,43.1073446 L63.3237472,43.1073446 C68.1150023,43.1073446 72,39.2471362 72,34.4864529 L72,8.6208917 C72,3.86020845 68.1150023,0 63.3237472,0" id="Fill-20" fill="#646566"></path>
                <path d="M42.4845873,61.8492522 C37.945598,64.6257078 27.4825709,65.0672543 23.844082,65.0172409 L23.8061355,65.0172409 L23.7696484,65.0172409 C20.1311596,65.0658253 9.67980835,64.5685497 5.08681821,61.7692308 C5.73774722,52.4238783 13.7824125,45.3762821 23.7988381,45.3762821 C33.8240205,45.3762821 41.8686858,52.4295941 42.5123174,61.7820914 C42.5152364,61.8120994 42.4991821,61.8406785 42.4845873,61.8492522 M23.7988381,18.4262288 C29.9855826,18.4262288 35.0164174,23.3532587 35.0164174,29.4091615 C35.0164174,35.4650642 29.9855826,40.3920941 23.7988381,40.3920941 C17.613553,40.3920941 12.5827182,35.4650642 12.5827182,29.4091615 C12.5827182,23.3532587 17.613553,18.4262288 23.7988381,18.4262288 M33.4460147,42.2683094 C37.4800232,39.3589611 40.1027125,34.6791401 40.1027125,29.4091615 C40.1027125,20.6068111 32.7892477,13.4463277 23.7988381,13.4463277 C14.8098879,13.4463277 7.49642314,20.6068111 7.49642314,29.4091615 C7.49642314,34.6791401 10.1191125,39.3603901 14.1545804,42.2683094 C6.22813321,45.5120327 0.622262502,52.6839477 0.0121989889,61.42914 C-0.119154399,63.3153579 0.817833102,65.0958334 2.45683149,66.078953 C9.09309655,70.0557292 22.8034713,70.0128606 23.7915407,69.9971421 C23.8805691,69.998571 24.0703017,70 24.3476033,70 C27.1789986,70 39.1306974,69.7742254 45.1802507,66.0732372 C46.7929784,65.0858307 47.7153711,63.313929 47.5883961,61.4491453 L47.5883961,61.4477164 C46.98563,52.6925214 41.3768404,45.5134616 33.4460147,42.2683094" id="Fill-22" fill="#015E85"></path>
            </g>
            <g id="WiFi1" transform="translate(39.500000, 10.000000)" fill="#47AFE8">
                <path d="M12.0001165,14.1427434 C13.2072593,14.1427434 14.184045,15.0983802 14.184045,16.2815495 C14.184045,17.4612183 13.2072593,18.4168551 12.0001165,18.4168551 C10.7947593,18.4168551 9.81975932,17.4612183 9.81975932,16.2815495 C9.81975932,15.0983802 10.7947593,14.1427434 12.0001165,14.1427434" id="Fill-56"></path>
                <path d="M7.06493789,11.4412318 C7.06493789,11.4412318 6.50779503,12.106327 7.06493789,12.6506549 C7.62208075,13.1984833 8.29529503,12.6506549 8.29529503,12.6506549 C9.24708075,11.7230221 10.5542236,11.1471897 12.0006522,11.1471897 C13.445295,11.1471897 14.757795,11.7230221 15.7060093,12.6506549 C15.7060093,12.6506549 16.382795,13.1949828 16.9363665,12.6506549 C17.4917236,12.106327 16.9363665,11.442982 16.9363665,11.442982 C15.6738665,10.2020545 13.9310093,9.437195 12.0006522,9.437195 C10.0738665,9.437195 8.32743789,10.2020545 7.06493789,11.4412318" id="Fill-58"></path>
                <path d="M3.66975932,8.11435568 C3.66975932,8.11435568 3.1179736,8.82320713 3.66975932,9.36053402 C4.21975932,9.89786092 4.9429736,9.36053402 4.9429736,9.36053402 C6.75011646,7.59103079 9.24475932,6.49537399 12.0019022,6.49537399 C14.7572593,6.49537399 17.2536879,7.58928054 19.059045,9.36053402 C19.059045,9.36053402 19.7536879,9.92761518 20.3322593,9.36053402 C20.909045,8.79345287 20.3322593,8.11435568 20.3322593,8.11435568 C18.2036879,6.02280636 15.2554736,4.73112151 12.0019022,4.73112151 C8.74833075,4.73112151 5.80190217,6.02280636 3.66975932,8.11435568" id="Fill-60"></path>
                <path d="M12.0001165,1.73714305 C16.096545,1.73714305 19.8072593,3.36662624 22.4929736,5.99725271 C22.4929736,5.99725271 23.1322593,6.59408812 23.7269022,6.01475521 C24.3179736,5.4354223 23.7269022,4.78607938 23.7269022,4.78607938 C20.7269022,1.84565858 16.5786879,0.0271483296 12.0001165,0.0271483296 C7.42333075,0.0271483296 3.27690217,1.84565858 0.276902174,4.78607938 C0.276902174,4.78607938 -0.258812112,5.48968007 0.276902174,6.01475521 C0.810830745,6.53983036 1.50904503,5.99725271 1.50904503,5.99725271 C4.1929736,3.36662624 7.90368789,1.73714305 12.0001165,1.73714305" id="Fill-62"></path>
            </g>
        </g>
    </g>
</svg>