<?xml version="1.0" encoding="UTF-8" standalone="no"?>
<!DOCTYPE svg PUBLIC "-//W3C//DTD SVG 1.1//EN" "http://www.w3.org/Graphics/SVG/1.1/DTD/svg11.dtd">
<svg width="100%" height="100%" viewBox="0 0 104 17" version="1.1" xmlns="http://www.w3.org/2000/svg" xmlns:xlink="http://www.w3.org/1999/xlink" xml:space="preserve" xmlns:serif="http://www.serif.com/" style="fill-rule:evenodd;clip-rule:evenodd;stroke-linejoin:round;stroke-miterlimit:1.41421;">
    <g transform="matrix(1,0,0,1,-66,-9)">
        <g transform="matrix(1,0,0,1,65,22)">
            <g id="Headquarter">
                <path d="M11.988,-12.519C12.156,-12.345 12.24,-12.12 12.24,-11.844L12.24,-0.846C12.24,-0.57 12.156,-0.345 11.988,-0.171C11.82,0.003 11.598,0.09 11.322,0.09C11.046,0.09 10.824,0.006 10.656,-0.162C10.488,-0.33 10.404,-0.558 10.404,-0.846L10.404,-5.688L3.312,-5.688L3.312,-0.846C3.312,-0.57 3.228,-0.345 3.06,-0.171C2.892,0.003 2.67,0.09 2.394,0.09C2.118,0.09 1.896,0.006 1.728,-0.162C1.56,-0.33 1.476,-0.558 1.476,-0.846L1.476,-11.844C1.476,-12.12 1.56,-12.345 1.728,-12.519C1.896,-12.693 2.118,-12.78 2.394,-12.78C2.67,-12.78 2.892,-12.693 3.06,-12.519C3.228,-12.345 3.312,-12.12 3.312,-11.844L3.312,-7.2L10.404,-7.2L10.404,-11.844C10.404,-12.12 10.488,-12.345 10.656,-12.519C10.824,-12.693 11.046,-12.78 11.322,-12.78C11.598,-12.78 11.82,-12.693 11.988,-12.519Z" style="fill:white;fill-rule:nonzero;"/>
                <path d="M22.309,-2.016C22.417,-1.884 22.471,-1.716 22.471,-1.512C22.471,-1.164 22.255,-0.87 21.823,-0.63C21.403,-0.39 20.944,-0.204 20.446,-0.072C19.948,0.06 19.471,0.126 19.015,0.126C17.623,0.126 16.525,-0.279 15.721,-1.089C14.917,-1.899 14.515,-3.006 14.515,-4.41C14.515,-5.31 14.692,-6.108 15.046,-6.804C15.4,-7.5 15.898,-8.04 16.54,-8.424C17.182,-8.808 17.911,-9 18.727,-9C19.903,-9 20.833,-8.622 21.517,-7.866C22.201,-7.11 22.543,-6.09 22.543,-4.806C22.543,-4.326 22.327,-4.086 21.895,-4.086L16.333,-4.086C16.453,-2.226 17.347,-1.296 19.015,-1.296C19.459,-1.296 19.843,-1.356 20.167,-1.476C20.491,-1.596 20.833,-1.752 21.193,-1.944C21.229,-1.968 21.328,-2.019 21.49,-2.097C21.652,-2.175 21.787,-2.214 21.895,-2.214C22.063,-2.214 22.201,-2.148 22.309,-2.016ZM17.089,-7.002C16.669,-6.558 16.417,-5.934 16.333,-5.13L20.977,-5.13C20.941,-5.946 20.734,-6.573 20.356,-7.011C19.978,-7.449 19.447,-7.668 18.763,-7.668C18.067,-7.668 17.509,-7.446 17.089,-7.002Z" style="fill:white;fill-rule:nonzero;"/>
                <path d="M30.875,-8.118C31.445,-7.53 31.73,-6.636 31.73,-5.436L31.73,-0.774C31.73,-0.498 31.652,-0.285 31.496,-0.135C31.34,0.015 31.124,0.09 30.848,0.09C30.584,0.09 30.374,0.012 30.218,-0.144C30.062,-0.3 29.984,-0.51 29.984,-0.774L29.984,-1.44C29.756,-0.936 29.417,-0.549 28.967,-0.279C28.517,-0.009 27.992,0.126 27.392,0.126C26.816,0.126 26.288,0.009 25.808,-0.225C25.328,-0.459 24.953,-0.786 24.683,-1.206C24.413,-1.626 24.278,-2.094 24.278,-2.61C24.278,-3.246 24.443,-3.747 24.773,-4.113C25.103,-4.479 25.649,-4.74 26.411,-4.896C27.173,-5.052 28.22,-5.13 29.552,-5.13L29.966,-5.13L29.966,-5.652C29.966,-6.324 29.828,-6.81 29.552,-7.11C29.276,-7.41 28.832,-7.56 28.22,-7.56C27.8,-7.56 27.404,-7.506 27.032,-7.398C26.66,-7.29 26.252,-7.134 25.808,-6.93C25.484,-6.75 25.256,-6.66 25.124,-6.66C24.944,-6.66 24.797,-6.726 24.683,-6.858C24.569,-6.99 24.512,-7.158 24.512,-7.362C24.512,-7.542 24.563,-7.701 24.665,-7.839C24.767,-7.977 24.932,-8.112 25.16,-8.244C25.58,-8.472 26.072,-8.655 26.636,-8.793C27.2,-8.931 27.746,-9 28.274,-9C29.438,-9 30.305,-8.706 30.875,-8.118ZM29.336,-1.899C29.756,-2.349 29.966,-2.928 29.966,-3.636L29.966,-4.104L29.642,-4.104C28.706,-4.104 27.986,-4.062 27.482,-3.978C26.978,-3.894 26.618,-3.753 26.402,-3.555C26.186,-3.357 26.078,-3.072 26.078,-2.7C26.078,-2.268 26.234,-1.914 26.546,-1.638C26.858,-1.362 27.248,-1.224 27.716,-1.224C28.376,-1.224 28.916,-1.449 29.336,-1.899Z" style="fill:white;fill-rule:nonzero;"/>
                <path d="M42.105,-12.546C42.273,-12.39 42.357,-12.18 42.357,-11.916L42.357,-0.792C42.357,-0.516 42.276,-0.3 42.114,-0.144C41.952,0.012 41.733,0.09 41.457,0.09C41.181,0.09 40.962,0.012 40.8,-0.144C40.638,-0.3 40.557,-0.516 40.557,-0.792L40.557,-1.512C40.293,-0.984 39.909,-0.579 39.405,-0.297C38.901,-0.015 38.319,0.126 37.659,0.126C36.903,0.126 36.228,-0.066 35.634,-0.45C35.04,-0.834 34.578,-1.374 34.248,-2.07C33.918,-2.766 33.753,-3.564 33.753,-4.464C33.753,-5.376 33.918,-6.174 34.248,-6.858C34.578,-7.542 35.037,-8.07 35.625,-8.442C36.213,-8.814 36.891,-9 37.659,-9C38.319,-9 38.898,-8.859 39.396,-8.577C39.894,-8.295 40.275,-7.896 40.539,-7.38L40.539,-11.952C40.539,-12.204 40.62,-12.405 40.782,-12.555C40.944,-12.705 41.163,-12.78 41.439,-12.78C41.715,-12.78 41.937,-12.702 42.105,-12.546ZM39.909,-2.124C40.341,-2.664 40.557,-3.432 40.557,-4.428C40.557,-5.424 40.344,-6.192 39.918,-6.732C39.492,-7.272 38.883,-7.542 38.091,-7.542C37.299,-7.542 36.684,-7.275 36.246,-6.741C35.808,-6.207 35.589,-5.448 35.589,-4.464C35.589,-3.48 35.811,-2.709 36.255,-2.151C36.699,-1.593 37.311,-1.314 38.091,-1.314C38.871,-1.314 39.477,-1.584 39.909,-2.124Z" style="fill:white;fill-rule:nonzero;"/>
                <path d="M52.795,-8.721C52.957,-8.559 53.038,-8.346 53.038,-8.082L53.038,2.466C53.038,2.73 52.954,2.94 52.786,3.096C52.618,3.252 52.396,3.33 52.12,3.33C51.844,3.33 51.625,3.255 51.463,3.105C51.301,2.955 51.22,2.754 51.22,2.502L51.22,-1.476C50.956,-0.96 50.575,-0.564 50.077,-0.288C49.579,-0.012 49,0.126 48.34,0.126C47.572,0.126 46.891,-0.06 46.297,-0.432C45.703,-0.804 45.244,-1.332 44.92,-2.016C44.596,-2.7 44.434,-3.492 44.434,-4.392C44.434,-5.304 44.599,-6.108 44.929,-6.804C45.259,-7.5 45.721,-8.04 46.315,-8.424C46.909,-8.808 47.584,-9 48.34,-9C49,-9 49.582,-8.856 50.086,-8.568C50.59,-8.28 50.974,-7.872 51.238,-7.344L51.238,-8.082C51.238,-8.346 51.319,-8.559 51.481,-8.721C51.643,-8.883 51.862,-8.964 52.138,-8.964C52.414,-8.964 52.633,-8.883 52.795,-8.721ZM50.599,-2.124C51.025,-2.664 51.238,-3.432 51.238,-4.428C51.238,-5.424 51.025,-6.192 50.599,-6.732C50.173,-7.272 49.564,-7.542 48.772,-7.542C47.992,-7.542 47.38,-7.263 46.936,-6.705C46.492,-6.147 46.27,-5.376 46.27,-4.392C46.27,-3.408 46.489,-2.649 46.927,-2.115C47.365,-1.581 47.98,-1.314 48.772,-1.314C49.564,-1.314 50.173,-1.584 50.599,-2.124Z" style="fill:white;fill-rule:nonzero;"/>
                <path d="M63.08,-8.73C63.242,-8.574 63.323,-8.358 63.323,-8.082L63.323,-0.756C63.323,-0.504 63.239,-0.3 63.071,-0.144C62.903,0.012 62.681,0.09 62.405,0.09C62.153,0.09 61.949,0.015 61.793,-0.135C61.637,-0.285 61.559,-0.486 61.559,-0.738L61.559,-1.422C61.283,-0.918 60.902,-0.534 60.416,-0.27C59.93,-0.006 59.387,0.126 58.787,0.126C56.651,0.126 55.583,-1.05 55.583,-3.402L55.583,-8.082C55.583,-8.358 55.664,-8.574 55.826,-8.73C55.988,-8.886 56.213,-8.964 56.501,-8.964C56.777,-8.964 56.996,-8.886 57.158,-8.73C57.32,-8.574 57.401,-8.358 57.401,-8.082L57.401,-3.42C57.401,-2.712 57.545,-2.19 57.833,-1.854C58.121,-1.518 58.565,-1.35 59.165,-1.35C59.873,-1.35 60.44,-1.578 60.866,-2.034C61.292,-2.49 61.505,-3.096 61.505,-3.852L61.505,-8.082C61.505,-8.346 61.589,-8.559 61.757,-8.721C61.925,-8.883 62.147,-8.964 62.423,-8.964C62.699,-8.964 62.918,-8.886 63.08,-8.73Z" style="fill:white;fill-rule:nonzero;"/>
                <path d="M72.196,-8.118C72.766,-7.53 73.051,-6.636 73.051,-5.436L73.051,-0.774C73.051,-0.498 72.973,-0.285 72.817,-0.135C72.661,0.015 72.445,0.09 72.169,0.09C71.905,0.09 71.695,0.012 71.539,-0.144C71.383,-0.3 71.305,-0.51 71.305,-0.774L71.305,-1.44C71.077,-0.936 70.738,-0.549 70.288,-0.279C69.838,-0.009 69.313,0.126 68.713,0.126C68.137,0.126 67.609,0.009 67.129,-0.225C66.649,-0.459 66.274,-0.786 66.004,-1.206C65.734,-1.626 65.599,-2.094 65.599,-2.61C65.599,-3.246 65.764,-3.747 66.094,-4.113C66.424,-4.479 66.97,-4.74 67.732,-4.896C68.494,-5.052 69.541,-5.13 70.873,-5.13L71.287,-5.13L71.287,-5.652C71.287,-6.324 71.149,-6.81 70.873,-7.11C70.597,-7.41 70.153,-7.56 69.541,-7.56C69.121,-7.56 68.725,-7.506 68.353,-7.398C67.981,-7.29 67.573,-7.134 67.129,-6.93C66.805,-6.75 66.577,-6.66 66.445,-6.66C66.265,-6.66 66.118,-6.726 66.004,-6.858C65.89,-6.99 65.833,-7.158 65.833,-7.362C65.833,-7.542 65.884,-7.701 65.986,-7.839C66.088,-7.977 66.253,-8.112 66.481,-8.244C66.901,-8.472 67.393,-8.655 67.957,-8.793C68.521,-8.931 69.067,-9 69.595,-9C70.759,-9 71.626,-8.706 72.196,-8.118ZM70.657,-1.899C71.077,-2.349 71.287,-2.928 71.287,-3.636L71.287,-4.104L70.963,-4.104C70.027,-4.104 69.307,-4.062 68.803,-3.978C68.299,-3.894 67.939,-3.753 67.723,-3.555C67.507,-3.357 67.399,-3.072 67.399,-2.7C67.399,-2.268 67.555,-1.914 67.867,-1.638C68.179,-1.362 68.569,-1.224 69.037,-1.224C69.697,-1.224 70.237,-1.449 70.657,-1.899Z" style="fill:white;fill-rule:nonzero;"/>
                <path d="M81.05,-8.226C81.05,-7.962 80.984,-7.764 80.852,-7.632C80.72,-7.5 80.492,-7.422 80.168,-7.398L79.628,-7.344C78.872,-7.272 78.311,-7.008 77.945,-6.552C77.579,-6.096 77.396,-5.544 77.396,-4.896L77.396,-0.774C77.396,-0.486 77.312,-0.27 77.144,-0.126C76.976,0.018 76.76,0.09 76.496,0.09C76.232,0.09 76.013,0.018 75.839,-0.126C75.665,-0.27 75.578,-0.486 75.578,-0.774L75.578,-8.1C75.578,-8.376 75.665,-8.589 75.839,-8.739C76.013,-8.889 76.232,-8.964 76.496,-8.964C76.736,-8.964 76.937,-8.889 77.099,-8.739C77.261,-8.589 77.342,-8.382 77.342,-8.118L77.342,-7.254C77.582,-7.782 77.93,-8.184 78.386,-8.46C78.842,-8.736 79.358,-8.898 79.934,-8.946L80.186,-8.964C80.762,-9 81.05,-8.754 81.05,-8.226Z" style="fill:white;fill-rule:nonzero;"/>
                <path d="M87.834,-1.089C87.948,-0.975 88.005,-0.816 88.005,-0.612C88.005,-0.372 87.912,-0.189 87.726,-0.063C87.54,0.063 87.267,0.114 86.907,0.09L86.421,0.054C85.449,-0.018 84.723,-0.315 84.243,-0.837C83.763,-1.359 83.523,-2.13 83.523,-3.15L83.523,-7.38L82.443,-7.38C81.915,-7.38 81.651,-7.614 81.651,-8.082C81.651,-8.298 81.72,-8.469 81.858,-8.595C81.996,-8.721 82.191,-8.784 82.443,-8.784L83.523,-8.784L83.523,-10.638C83.523,-10.914 83.604,-11.13 83.766,-11.286C83.928,-11.442 84.147,-11.52 84.423,-11.52C84.699,-11.52 84.921,-11.442 85.089,-11.286C85.257,-11.13 85.341,-10.914 85.341,-10.638L85.341,-8.784L87.123,-8.784C87.375,-8.784 87.57,-8.721 87.708,-8.595C87.846,-8.469 87.915,-8.298 87.915,-8.082C87.915,-7.854 87.846,-7.68 87.708,-7.56C87.57,-7.44 87.375,-7.38 87.123,-7.38L85.341,-7.38L85.341,-3.024C85.341,-2.46 85.458,-2.046 85.692,-1.782C85.926,-1.518 86.283,-1.368 86.763,-1.332L87.267,-1.296C87.531,-1.272 87.72,-1.203 87.834,-1.089Z" style="fill:white;fill-rule:nonzero;"/>
                <path d="M96.652,-2.016C96.76,-1.884 96.814,-1.716 96.814,-1.512C96.814,-1.164 96.598,-0.87 96.166,-0.63C95.746,-0.39 95.287,-0.204 94.789,-0.072C94.291,0.06 93.814,0.126 93.358,0.126C91.966,0.126 90.868,-0.279 90.064,-1.089C89.26,-1.899 88.858,-3.006 88.858,-4.41C88.858,-5.31 89.035,-6.108 89.389,-6.804C89.743,-7.5 90.241,-8.04 90.883,-8.424C91.525,-8.808 92.254,-9 93.07,-9C94.246,-9 95.176,-8.622 95.86,-7.866C96.544,-7.11 96.886,-6.09 96.886,-4.806C96.886,-4.326 96.67,-4.086 96.238,-4.086L90.676,-4.086C90.796,-2.226 91.69,-1.296 93.358,-1.296C93.802,-1.296 94.186,-1.356 94.51,-1.476C94.834,-1.596 95.176,-1.752 95.536,-1.944C95.572,-1.968 95.671,-2.019 95.833,-2.097C95.995,-2.175 96.13,-2.214 96.238,-2.214C96.406,-2.214 96.544,-2.148 96.652,-2.016ZM91.432,-7.002C91.012,-6.558 90.76,-5.934 90.676,-5.13L95.32,-5.13C95.284,-5.946 95.077,-6.573 94.699,-7.011C94.321,-7.449 93.79,-7.668 93.106,-7.668C92.41,-7.668 91.852,-7.446 91.432,-7.002Z" style="fill:white;fill-rule:nonzero;"/>
                <path d="M104.399,-8.226C104.399,-7.962 104.333,-7.764 104.201,-7.632C104.069,-7.5 103.841,-7.422 103.517,-7.398L102.977,-7.344C102.221,-7.272 101.66,-7.008 101.294,-6.552C100.928,-6.096 100.745,-5.544 100.745,-4.896L100.745,-0.774C100.745,-0.486 100.661,-0.27 100.493,-0.126C100.325,0.018 100.109,0.09 99.845,0.09C99.581,0.09 99.362,0.018 99.188,-0.126C99.014,-0.27 98.927,-0.486 98.927,-0.774L98.927,-8.1C98.927,-8.376 99.014,-8.589 99.188,-8.739C99.362,-8.889 99.581,-8.964 99.845,-8.964C100.085,-8.964 100.286,-8.889 100.448,-8.739C100.61,-8.589 100.691,-8.382 100.691,-8.118L100.691,-7.254C100.931,-7.782 101.279,-8.184 101.735,-8.46C102.191,-8.736 102.707,-8.898 103.283,-8.946L103.535,-8.964C104.111,-9 104.399,-8.754 104.399,-8.226Z" style="fill:white;fill-rule:nonzero;"/>
            </g>
        </g>
    </g>
</svg>
