<?xml version="1.0" encoding="UTF-8" standalone="no"?>
<!DOCTYPE svg PUBLIC "-//W3C//DTD SVG 1.1//EN" "http://www.w3.org/Graphics/SVG/1.1/DTD/svg11.dtd">
<svg width="100%" height="100%" viewBox="0 0 62 11" version="1.1" xmlns="http://www.w3.org/2000/svg" xmlns:xlink="http://www.w3.org/1999/xlink" xml:space="preserve" xmlns:serif="http://www.serif.com/" style="fill-rule:evenodd;clip-rule:evenodd;stroke-linejoin:round;stroke-miterlimit:1.41421;">
    <g transform="matrix(1,0,0,1,-25,-228)">
        <g transform="matrix(1,0,0,1,24,238)">
            <g id="LAN-Zone">
                <path d="M1.379,-0.147C1.272,-0.245 1.218,-0.373 1.218,-0.532L1.218,-9.352C1.218,-9.529 1.269,-9.672 1.372,-9.779C1.475,-9.886 1.615,-9.94 1.792,-9.94C1.969,-9.94 2.109,-9.886 2.212,-9.779C2.315,-9.672 2.366,-9.529 2.366,-9.352L2.366,-0.98L6.888,-0.98C7.056,-0.98 7.187,-0.938 7.28,-0.854C7.373,-0.77 7.42,-0.649 7.42,-0.49C7.42,-0.331 7.373,-0.21 7.28,-0.126C7.187,-0.042 7.056,0 6.888,0L1.778,0C1.619,0 1.486,-0.049 1.379,-0.147Z" style="fill-rule:nonzero;"/>
                <path d="M17.122,-0.42C17.122,-0.28 17.068,-0.163 16.961,-0.07C16.854,0.023 16.725,0.07 16.576,0.07C16.343,0.07 16.179,-0.042 16.086,-0.266L15.092,-2.534L9.814,-2.534L8.806,-0.266C8.713,-0.042 8.549,0.07 8.316,0.07C8.167,0.07 8.036,0.021 7.924,-0.077C7.812,-0.175 7.756,-0.294 7.756,-0.434C7.756,-0.509 7.775,-0.583 7.812,-0.658L11.816,-9.562C11.872,-9.693 11.956,-9.791 12.068,-9.856C12.18,-9.921 12.301,-9.954 12.432,-9.954C12.572,-9.954 12.698,-9.919 12.81,-9.849C12.922,-9.779 13.006,-9.683 13.062,-9.562L17.066,-0.658C17.103,-0.583 17.122,-0.504 17.122,-0.42ZM10.234,-3.486L14.672,-3.486L12.446,-8.512L10.234,-3.486Z" style="fill-rule:nonzero;"/>
                <path d="M26.516,-9.779C26.609,-9.672 26.656,-9.529 26.656,-9.352L26.656,-0.518C26.656,-0.341 26.607,-0.198 26.509,-0.091C26.411,0.016 26.273,0.07 26.096,0.07C25.919,0.07 25.765,-0.009 25.634,-0.168L19.824,-7.938L19.824,-0.518C19.824,-0.341 19.775,-0.198 19.677,-0.091C19.579,0.016 19.446,0.07 19.278,0.07C19.11,0.07 18.979,0.016 18.886,-0.091C18.793,-0.198 18.746,-0.341 18.746,-0.518L18.746,-9.352C18.746,-9.529 18.795,-9.672 18.893,-9.779C18.991,-9.886 19.129,-9.94 19.306,-9.94C19.493,-9.94 19.651,-9.861 19.782,-9.702L25.578,-1.932L25.578,-9.352C25.578,-9.529 25.627,-9.672 25.725,-9.779C25.823,-9.886 25.956,-9.94 26.124,-9.94C26.292,-9.94 26.423,-9.886 26.516,-9.779Z" style="fill-rule:nonzero;"/>
                <path d="M39.2,-0.84C39.293,-0.756 39.34,-0.639 39.34,-0.49C39.34,-0.331 39.293,-0.21 39.2,-0.126C39.107,-0.042 38.976,0 38.808,0L32.55,0C32.382,0 32.249,-0.047 32.151,-0.14C32.053,-0.233 32.004,-0.35 32.004,-0.49C32.004,-0.63 32.055,-0.775 32.158,-0.924L37.758,-8.904L32.55,-8.904C32.382,-8.904 32.251,-8.946 32.158,-9.03C32.065,-9.114 32.018,-9.231 32.018,-9.38C32.018,-9.539 32.065,-9.66 32.158,-9.744C32.251,-9.828 32.382,-9.87 32.55,-9.87L38.654,-9.87C38.822,-9.87 38.955,-9.823 39.053,-9.73C39.151,-9.637 39.2,-9.52 39.2,-9.38C39.2,-9.249 39.149,-9.109 39.046,-8.96L33.432,-0.966L38.808,-0.966C38.976,-0.966 39.107,-0.924 39.2,-0.84Z" style="fill-rule:nonzero;"/>
                <path d="M41.839,-0.336C41.349,-0.625 40.971,-1.038 40.705,-1.575C40.439,-2.112 40.306,-2.735 40.306,-3.444C40.306,-4.153 40.439,-4.776 40.705,-5.313C40.971,-5.85 41.349,-6.263 41.839,-6.552C42.329,-6.841 42.896,-6.986 43.54,-6.986C44.184,-6.986 44.753,-6.841 45.248,-6.552C45.743,-6.263 46.123,-5.85 46.389,-5.313C46.655,-4.776 46.788,-4.153 46.788,-3.444C46.788,-2.735 46.655,-2.112 46.389,-1.575C46.123,-1.038 45.743,-0.625 45.248,-0.336C44.753,-0.047 44.184,0.098 43.54,0.098C42.896,0.098 42.329,-0.047 41.839,-0.336ZM45.087,-1.505C45.446,-1.948 45.626,-2.595 45.626,-3.444C45.626,-4.275 45.444,-4.916 45.08,-5.369C44.716,-5.822 44.203,-6.048 43.54,-6.048C42.877,-6.048 42.364,-5.822 42,-5.369C41.636,-4.916 41.454,-4.275 41.454,-3.444C41.454,-2.604 41.634,-1.96 41.993,-1.512C42.352,-1.064 42.868,-0.84 43.54,-0.84C44.212,-0.84 44.728,-1.062 45.087,-1.505Z" style="fill-rule:nonzero;"/>
                <path d="M54.362,-4.284L54.362,-0.49C54.362,-0.313 54.313,-0.175 54.215,-0.077C54.117,0.021 53.979,0.07 53.802,0.07C53.625,0.07 53.485,0.021 53.382,-0.077C53.279,-0.175 53.228,-0.313 53.228,-0.49L53.228,-4.214C53.228,-4.849 53.104,-5.311 52.857,-5.6C52.61,-5.889 52.215,-6.034 51.674,-6.034C51.049,-6.034 50.549,-5.843 50.176,-5.46C49.803,-5.077 49.616,-4.559 49.616,-3.906L49.616,-0.49C49.616,-0.313 49.567,-0.175 49.469,-0.077C49.371,0.021 49.233,0.07 49.056,0.07C48.879,0.07 48.739,0.021 48.636,-0.077C48.533,-0.175 48.482,-0.313 48.482,-0.49L48.482,-6.398C48.482,-6.566 48.533,-6.701 48.636,-6.804C48.739,-6.907 48.879,-6.958 49.056,-6.958C49.224,-6.958 49.357,-6.907 49.455,-6.804C49.553,-6.701 49.602,-6.571 49.602,-6.412L49.602,-5.698C49.826,-6.118 50.139,-6.438 50.54,-6.657C50.941,-6.876 51.399,-6.986 51.912,-6.986C53.545,-6.986 54.362,-6.085 54.362,-4.284Z" style="fill-rule:nonzero;"/>
                <path d="M61.978,-1.456C62.053,-1.372 62.09,-1.265 62.09,-1.134C62.09,-0.901 61.927,-0.686 61.6,-0.49C61.264,-0.294 60.909,-0.147 60.536,-0.049C60.163,0.049 59.799,0.098 59.444,0.098C58.389,0.098 57.556,-0.215 56.945,-0.84C56.334,-1.465 56.028,-2.329 56.028,-3.43C56.028,-4.13 56.163,-4.748 56.434,-5.285C56.705,-5.822 57.085,-6.239 57.575,-6.538C58.065,-6.837 58.623,-6.986 59.248,-6.986C60.135,-6.986 60.839,-6.697 61.362,-6.118C61.885,-5.539 62.146,-4.755 62.146,-3.766C62.146,-3.579 62.109,-3.444 62.034,-3.36C61.959,-3.276 61.838,-3.234 61.67,-3.234L57.162,-3.234C57.246,-1.629 58.007,-0.826 59.444,-0.826C59.808,-0.826 60.121,-0.875 60.382,-0.973C60.643,-1.071 60.923,-1.204 61.222,-1.372C61.465,-1.512 61.628,-1.582 61.712,-1.582C61.815,-1.582 61.903,-1.54 61.978,-1.456ZM57.827,-5.544C57.468,-5.171 57.255,-4.643 57.19,-3.962L61.152,-3.962C61.133,-4.653 60.961,-5.182 60.634,-5.551C60.307,-5.92 59.85,-6.104 59.262,-6.104C58.665,-6.104 58.186,-5.917 57.827,-5.544Z" style="fill-rule:nonzero;"/>
            </g>
        </g>
    </g>
</svg>
