<?xml version="1.0" encoding="UTF-8" standalone="no"?>
<svg width="5px" height="114px" viewBox="0 0 5 114" version="1.1" xmlns="http://www.w3.org/2000/svg" xmlns:xlink="http://www.w3.org/1999/xlink">
    <!-- Generator: Sketch 50.2 (55047) - http://www.bohemiancoding.com/sketch -->
    <title>Line 17</title>
    <desc>Created with Sketch.</desc>
    <defs></defs>
    <g id="Page-1" stroke="none" stroke-width="1" fill="none" fill-rule="evenodd">
        <path d="M0.5,2.5 C0.5,1.3954305 1.3954305,0.5 2.5,0.5 C3.6045695,0.5 4.5,1.3954305 4.5,2.5 L4.5,3.5 C4.5,4.6045695 3.6045695,5.5 2.5,5.5 C1.3954305,5.5 0.5,4.6045695 0.5,3.5 L0.5,2.5 Z M0.5,11.5 C0.5,10.3954305 1.3954305,9.5 2.5,9.5 C3.6045695,9.5 4.5,10.3954305 4.5,11.5 L4.5,12.5 C4.5,13.6045695 3.6045695,14.5 2.5,14.5 C1.3954305,14.5 0.5,13.6045695 0.5,12.5 L0.5,11.5 Z M0.5,20.5 C0.5,19.3954305 1.3954305,18.5 2.5,18.5 C3.6045695,18.5 4.5,19.3954305 4.5,20.5 L4.5,21.5 C4.5,22.6045695 3.6045695,23.5 2.5,23.5 C1.3954305,23.5 0.5,22.6045695 0.5,21.5 L0.5,20.5 Z M0.5,29.5 C0.5,28.3954305 1.3954305,27.5 2.5,27.5 C3.6045695,27.5 4.5,28.3954305 4.5,29.5 L4.5,30.5 C4.5,31.6045695 3.6045695,32.5 2.5,32.5 C1.3954305,32.5 0.5,31.6045695 0.5,30.5 L0.5,29.5 Z M0.5,38.5 C0.5,37.3954305 1.3954305,36.5 2.5,36.5 C3.6045695,36.5 4.5,37.3954305 4.5,38.5 L4.5,39.5 C4.5,40.6045695 3.6045695,41.5 2.5,41.5 C1.3954305,41.5 0.5,40.6045695 0.5,39.5 L0.5,38.5 Z M0.5,47.5 C0.5,46.3954305 1.3954305,45.5 2.5,45.5 C3.6045695,45.5 4.5,46.3954305 4.5,47.5 L4.5,48.5 C4.5,49.6045695 3.6045695,50.5 2.5,50.5 C1.3954305,50.5 0.5,49.6045695 0.5,48.5 L0.5,47.5 Z M0.5,56.5 C0.5,55.3954305 1.3954305,54.5 2.5,54.5 C3.6045695,54.5 4.5,55.3954305 4.5,56.5 L4.5,57.5 C4.5,58.6045695 3.6045695,59.5 2.5,59.5 C1.3954305,59.5 0.5,58.6045695 0.5,57.5 L0.5,56.5 Z M0.5,65.5 C0.5,64.3954305 1.3954305,63.5 2.5,63.5 C3.6045695,63.5 4.5,64.3954305 4.5,65.5 L4.5,66.5 C4.5,67.6045695 3.6045695,68.5 2.5,68.5 C1.3954305,68.5 0.5,67.6045695 0.5,66.5 L0.5,65.5 Z M0.5,74.5 C0.5,73.3954305 1.3954305,72.5 2.5,72.5 C3.6045695,72.5 4.5,73.3954305 4.5,74.5 L4.5,75.5 C4.5,76.6045695 3.6045695,77.5 2.5,77.5 C1.3954305,77.5 0.5,76.6045695 0.5,75.5 L0.5,74.5 Z M0.5,83.5 C0.5,82.3954305 1.3954305,81.5 2.5,81.5 C3.6045695,81.5 4.5,82.3954305 4.5,83.5 L4.5,84.5 C4.5,85.6045695 3.6045695,86.5 2.5,86.5 C1.3954305,86.5 0.5,85.6045695 0.5,84.5 L0.5,83.5 Z M0.5,92.5 C0.5,91.3954305 1.3954305,90.5 2.5,90.5 C3.6045695,90.5 4.5,91.3954305 4.5,92.5 L4.5,93.5 C4.5,94.6045695 3.6045695,95.5 2.5,95.5 C1.3954305,95.5 0.5,94.6045695 0.5,93.5 L0.5,92.5 Z M0.5,101.5 C0.5,100.395431 1.3954305,99.5 2.5,99.5 C3.6045695,99.5 4.5,100.395431 4.5,101.5 L4.5,102.5 C4.5,103.604569 3.6045695,104.5 2.5,104.5 C1.3954305,104.5 0.5,103.604569 0.5,102.5 L0.5,101.5 Z M0.5,110.5 C0.5,109.395431 1.3954305,108.5 2.5,108.5 C3.6045695,108.5 4.5,109.395431 4.5,110.5 L4.5,111.5 C4.5,112.604569 3.6045695,113.5 2.5,113.5 C1.3954305,113.5 0.5,112.604569 0.5,111.5 L0.5,110.5 Z" id="Line-17" fill="#47AFE8" fill-rule="nonzero"></path>
    </g>
</svg>