<?xml version="1.0" encoding="UTF-8" standalone="no"?>
<svg width="100px" height="495px" viewBox="0 0 100 495" version="1.1" xmlns="http://www.w3.org/2000/svg" xmlns:xlink="http://www.w3.org/1999/xlink">
    <!-- Generator: Sketch 50.2 (55047) - http://www.bohemiancoding.com/sketch -->
    <title>line55</title>
    <desc>Created with Sketch.</desc>
    <defs></defs>
    <g id="Page-1" stroke="none" stroke-width="1" fill="none" fill-rule="evenodd">
        <path d="M57.375,161.5 L99.5,161.5 L99.5,165.5 L57.375,165.5 L57.375,486.035336 C57.375,490.453614 53.793278,494.035336 49.375,494.035336 L4.32594794,494.035336 L4.32594794,490.035336 L49.375,490.035336 C51.584139,490.035336 53.375,488.244475 53.375,486.035336 L53.375,342.5 L0.4375,342.5 L0.4375,338.5 L53.375,338.5 L53.375,199.5 L0.4375,199.5 L0.4375,195.5 L53.375,195.5 L53.375,8.58203125 C53.375,6.37289225 51.584139,4.58203125 49.375,4.58203125 L2.99609375,4.58203125 L2.99609375,0.58203125 L49.375,0.58203125 C53.793278,0.58203125 57.375,4.16375325 57.375,8.58203125 L57.375,161.5 Z" id="line55" fill="#47AFE8" fill-rule="nonzero"></path>
    </g>
</svg>