<?xml version="1.0" encoding="UTF-8" standalone="no"?>
<svg width="107px" height="439px" viewBox="0 0 107 439" version="1.1" xmlns="http://www.w3.org/2000/svg" xmlns:xlink="http://www.w3.org/1999/xlink">
    <!-- Generator: Sketch 50.2 (55047) - http://www.bohemiancoding.com/sketch -->
    <title>Line15</title>
    <desc>Created with Sketch.</desc>
    <defs></defs>
    <g id="Page-1" stroke="none" stroke-width="1" fill="none" fill-rule="evenodd">
        <path d="M5.28442341,215.42754 L101.53125,215.42754 L101.53125,219.42754 L5.28442341,219.42754 L5.28442341,227.648438 L1.28442341,227.648438 L1.28442341,10.5 C1.28442341,4.9771525 5.76157591,0.5 11.2844234,0.5 L106.5,0.5 L106.5,4.5 L11.2844234,4.5 C7.97071491,4.5 5.28442341,7.1862915 5.28442341,10.5 L5.28442341,215.42754 Z M101.251953,434.28805 L101.251953,438.28805 L10,438.28805 C4.4771525,438.28805 6.76353751e-16,433.810897 0,428.28805 L0,292.472656 L4,292.472656 L4,428.28805 C4,431.601758 6.6862915,434.28805 10,434.28805 L101.251953,434.28805 Z" id="Line15" fill="#47AFE8" fill-rule="nonzero"></path>
    </g>
</svg>