<?xml version="1.0" encoding="UTF-8" standalone="no"?>
<!DOCTYPE svg PUBLIC "-//W3C//DTD SVG 1.1//EN" "http://www.w3.org/Graphics/SVG/1.1/DTD/svg11.dtd">
<svg width="100%" height="100%" viewBox="0 0 113 47" version="1.1" xmlns="http://www.w3.org/2000/svg" xmlns:xlink="http://www.w3.org/1999/xlink" xml:space="preserve" xmlns:serif="http://www.serif.com/" style="fill-rule:evenodd;clip-rule:evenodd;stroke-linejoin:round;stroke-miterlimit:1.41421;">
    <g transform="matrix(1,0,0,1,-996,-25)">
        <g id="Managed-Security-Ser">
            <g transform="matrix(1,0,0,1,996,35)">
                <path d="M10.395,-9.779C10.493,-9.672 10.542,-9.529 10.542,-9.352L10.542,-0.49C10.542,-0.322 10.495,-0.187 10.402,-0.084C10.309,0.019 10.178,0.07 10.01,0.07C9.842,0.07 9.716,0.019 9.632,-0.084C9.548,-0.187 9.506,-0.322 9.506,-0.49L9.506,-7.644L6.468,-1.82C6.337,-1.549 6.146,-1.414 5.894,-1.414C5.651,-1.414 5.46,-1.549 5.32,-1.82L2.268,-7.574L2.268,-0.49C2.268,-0.322 2.224,-0.187 2.135,-0.084C2.046,0.019 1.918,0.07 1.75,0.07C1.582,0.07 1.451,0.019 1.358,-0.084C1.265,-0.187 1.218,-0.322 1.218,-0.49L1.218,-9.352C1.218,-9.529 1.269,-9.672 1.372,-9.779C1.475,-9.886 1.615,-9.94 1.792,-9.94C2.025,-9.94 2.212,-9.805 2.352,-9.534L5.908,-2.716L9.422,-9.534C9.497,-9.683 9.578,-9.788 9.667,-9.849C9.756,-9.91 9.861,-9.94 9.982,-9.94C10.159,-9.94 10.297,-9.886 10.395,-9.779Z" style="fill-rule:nonzero;"/>
                <path d="M18.172,-4.298L18.172,-0.49C18.172,-0.322 18.123,-0.187 18.025,-0.084C17.927,0.019 17.794,0.07 17.626,0.07C17.458,0.07 17.323,0.019 17.22,-0.084C17.117,-0.187 17.066,-0.322 17.066,-0.49L17.066,-1.162C16.889,-0.761 16.618,-0.45 16.254,-0.231C15.89,-0.012 15.47,0.098 14.994,0.098C14.555,0.098 14.152,0.009 13.783,-0.168C13.414,-0.345 13.123,-0.593 12.908,-0.91C12.693,-1.227 12.586,-1.577 12.586,-1.96C12.586,-2.473 12.717,-2.872 12.978,-3.157C13.239,-3.442 13.669,-3.647 14.266,-3.773C14.863,-3.899 15.694,-3.962 16.758,-3.962L17.066,-3.962L17.066,-4.424C17.066,-4.984 16.952,-5.395 16.723,-5.656C16.494,-5.917 16.123,-6.048 15.61,-6.048C14.975,-6.048 14.331,-5.875 13.678,-5.53C13.426,-5.371 13.249,-5.292 13.146,-5.292C13.034,-5.292 12.941,-5.334 12.866,-5.418C12.791,-5.502 12.754,-5.609 12.754,-5.74C12.754,-5.871 12.794,-5.985 12.873,-6.083C12.952,-6.181 13.081,-6.281 13.258,-6.384C13.585,-6.571 13.956,-6.718 14.371,-6.825C14.786,-6.932 15.199,-6.986 15.61,-6.986C17.318,-6.986 18.172,-6.09 18.172,-4.298ZM16.527,-1.365C16.886,-1.743 17.066,-2.231 17.066,-2.828L17.066,-3.234L16.814,-3.234C15.993,-3.234 15.367,-3.199 14.938,-3.129C14.509,-3.059 14.203,-2.942 14.021,-2.779C13.839,-2.616 13.748,-2.375 13.748,-2.058C13.748,-1.694 13.881,-1.393 14.147,-1.155C14.413,-0.917 14.747,-0.798 15.148,-0.798C15.708,-0.798 16.168,-0.987 16.527,-1.365Z" style="fill-rule:nonzero;"/>
                <path d="M26.124,-4.284L26.124,-0.49C26.124,-0.313 26.075,-0.175 25.977,-0.077C25.879,0.021 25.741,0.07 25.564,0.07C25.387,0.07 25.247,0.021 25.144,-0.077C25.041,-0.175 24.99,-0.313 24.99,-0.49L24.99,-4.214C24.99,-4.849 24.866,-5.311 24.619,-5.6C24.372,-5.889 23.977,-6.034 23.436,-6.034C22.811,-6.034 22.311,-5.843 21.938,-5.46C21.565,-5.077 21.378,-4.559 21.378,-3.906L21.378,-0.49C21.378,-0.313 21.329,-0.175 21.231,-0.077C21.133,0.021 20.995,0.07 20.818,0.07C20.641,0.07 20.501,0.021 20.398,-0.077C20.295,-0.175 20.244,-0.313 20.244,-0.49L20.244,-6.398C20.244,-6.566 20.295,-6.701 20.398,-6.804C20.501,-6.907 20.641,-6.958 20.818,-6.958C20.986,-6.958 21.119,-6.907 21.217,-6.804C21.315,-6.701 21.364,-6.571 21.364,-6.412L21.364,-5.698C21.588,-6.118 21.901,-6.438 22.302,-6.657C22.703,-6.876 23.161,-6.986 23.674,-6.986C25.307,-6.986 26.124,-6.085 26.124,-4.284Z" style="fill-rule:nonzero;"/>
                <path d="M33.544,-4.298L33.544,-0.49C33.544,-0.322 33.495,-0.187 33.397,-0.084C33.299,0.019 33.166,0.07 32.998,0.07C32.83,0.07 32.695,0.019 32.592,-0.084C32.489,-0.187 32.438,-0.322 32.438,-0.49L32.438,-1.162C32.261,-0.761 31.99,-0.45 31.626,-0.231C31.262,-0.012 30.842,0.098 30.366,0.098C29.927,0.098 29.524,0.009 29.155,-0.168C28.786,-0.345 28.495,-0.593 28.28,-0.91C28.065,-1.227 27.958,-1.577 27.958,-1.96C27.958,-2.473 28.089,-2.872 28.35,-3.157C28.611,-3.442 29.041,-3.647 29.638,-3.773C30.235,-3.899 31.066,-3.962 32.13,-3.962L32.438,-3.962L32.438,-4.424C32.438,-4.984 32.324,-5.395 32.095,-5.656C31.866,-5.917 31.495,-6.048 30.982,-6.048C30.347,-6.048 29.703,-5.875 29.05,-5.53C28.798,-5.371 28.621,-5.292 28.518,-5.292C28.406,-5.292 28.313,-5.334 28.238,-5.418C28.163,-5.502 28.126,-5.609 28.126,-5.74C28.126,-5.871 28.166,-5.985 28.245,-6.083C28.324,-6.181 28.453,-6.281 28.63,-6.384C28.957,-6.571 29.328,-6.718 29.743,-6.825C30.158,-6.932 30.571,-6.986 30.982,-6.986C32.69,-6.986 33.544,-6.09 33.544,-4.298ZM31.899,-1.365C32.258,-1.743 32.438,-2.231 32.438,-2.828L32.438,-3.234L32.186,-3.234C31.365,-3.234 30.739,-3.199 30.31,-3.129C29.881,-3.059 29.575,-2.942 29.393,-2.779C29.211,-2.616 29.12,-2.375 29.12,-2.058C29.12,-1.694 29.253,-1.393 29.519,-1.155C29.785,-0.917 30.119,-0.798 30.52,-0.798C31.08,-0.798 31.54,-0.987 31.899,-1.365Z" style="fill-rule:nonzero;"/>
                <path d="M41.566,-6.804C41.669,-6.701 41.72,-6.566 41.72,-6.398L41.72,-0.462C41.72,0.555 41.459,1.323 40.936,1.841C40.413,2.359 39.639,2.618 38.612,2.618C37.613,2.618 36.783,2.422 36.12,2.03C35.784,1.843 35.616,1.629 35.616,1.386C35.616,1.255 35.651,1.148 35.721,1.064C35.791,0.98 35.882,0.938 35.994,0.938C36.087,0.938 36.255,1.003 36.498,1.134C36.825,1.302 37.147,1.437 37.464,1.54C37.781,1.643 38.159,1.694 38.598,1.694C39.261,1.694 39.76,1.519 40.096,1.169C40.432,0.819 40.6,0.308 40.6,-0.364L40.6,-1.568C40.404,-1.129 40.103,-0.793 39.697,-0.56C39.291,-0.327 38.813,-0.21 38.262,-0.21C37.665,-0.21 37.135,-0.35 36.673,-0.63C36.211,-0.91 35.852,-1.307 35.595,-1.82C35.338,-2.333 35.21,-2.926 35.21,-3.598C35.21,-4.27 35.338,-4.863 35.595,-5.376C35.852,-5.889 36.211,-6.286 36.673,-6.566C37.135,-6.846 37.665,-6.986 38.262,-6.986C38.803,-6.986 39.275,-6.869 39.676,-6.636C40.077,-6.403 40.381,-6.071 40.586,-5.642L40.586,-6.398C40.586,-6.566 40.635,-6.701 40.733,-6.804C40.831,-6.907 40.969,-6.958 41.146,-6.958C41.323,-6.958 41.463,-6.907 41.566,-6.804ZM40.026,-1.799C40.399,-2.233 40.586,-2.833 40.586,-3.598C40.586,-4.354 40.402,-4.949 40.033,-5.383C39.664,-5.817 39.149,-6.034 38.486,-6.034C37.823,-6.034 37.303,-5.817 36.925,-5.383C36.547,-4.949 36.358,-4.354 36.358,-3.598C36.358,-2.833 36.547,-2.233 36.925,-1.799C37.303,-1.365 37.823,-1.148 38.486,-1.148C39.139,-1.148 39.653,-1.365 40.026,-1.799Z" style="fill-rule:nonzero;"/>
                <path d="M49.364,-1.456C49.439,-1.372 49.476,-1.265 49.476,-1.134C49.476,-0.901 49.313,-0.686 48.986,-0.49C48.65,-0.294 48.295,-0.147 47.922,-0.049C47.549,0.049 47.185,0.098 46.83,0.098C45.775,0.098 44.942,-0.215 44.331,-0.84C43.72,-1.465 43.414,-2.329 43.414,-3.43C43.414,-4.13 43.549,-4.748 43.82,-5.285C44.091,-5.822 44.471,-6.239 44.961,-6.538C45.451,-6.837 46.009,-6.986 46.634,-6.986C47.521,-6.986 48.225,-6.697 48.748,-6.118C49.271,-5.539 49.532,-4.755 49.532,-3.766C49.532,-3.579 49.495,-3.444 49.42,-3.36C49.345,-3.276 49.224,-3.234 49.056,-3.234L44.548,-3.234C44.632,-1.629 45.393,-0.826 46.83,-0.826C47.194,-0.826 47.507,-0.875 47.768,-0.973C48.029,-1.071 48.309,-1.204 48.608,-1.372C48.851,-1.512 49.014,-1.582 49.098,-1.582C49.201,-1.582 49.289,-1.54 49.364,-1.456ZM45.213,-5.544C44.854,-5.171 44.641,-4.643 44.576,-3.962L48.538,-3.962C48.519,-4.653 48.347,-5.182 48.02,-5.551C47.693,-5.92 47.236,-6.104 46.648,-6.104C46.051,-6.104 45.572,-5.917 45.213,-5.544Z" style="fill-rule:nonzero;"/>
                <path d="M57.092,-9.786C57.195,-9.683 57.246,-9.553 57.246,-9.394L57.246,-0.49C57.246,-0.322 57.195,-0.187 57.092,-0.084C56.989,0.019 56.849,0.07 56.672,0.07C56.495,0.07 56.357,0.019 56.259,-0.084C56.161,-0.187 56.112,-0.322 56.112,-0.49L56.112,-1.246C55.907,-0.817 55.606,-0.485 55.209,-0.252C54.812,-0.019 54.348,0.098 53.816,0.098C53.219,0.098 52.691,-0.051 52.234,-0.35C51.777,-0.649 51.422,-1.066 51.17,-1.603C50.918,-2.14 50.792,-2.763 50.792,-3.472C50.792,-4.172 50.918,-4.788 51.17,-5.32C51.422,-5.852 51.777,-6.263 52.234,-6.552C52.691,-6.841 53.219,-6.986 53.816,-6.986C54.348,-6.986 54.812,-6.869 55.209,-6.636C55.606,-6.403 55.907,-6.071 56.112,-5.642L56.112,-9.394C56.112,-9.562 56.161,-9.695 56.259,-9.793C56.357,-9.891 56.495,-9.94 56.672,-9.94C56.849,-9.94 56.989,-9.889 57.092,-9.786ZM55.573,-1.519C55.932,-1.972 56.112,-2.613 56.112,-3.444C56.112,-4.275 55.932,-4.914 55.573,-5.362C55.214,-5.81 54.703,-6.034 54.04,-6.034C53.377,-6.034 52.862,-5.81 52.493,-5.362C52.124,-4.914 51.94,-4.284 51.94,-3.472C51.94,-2.641 52.124,-1.995 52.493,-1.533C52.862,-1.071 53.377,-0.84 54.04,-0.84C54.703,-0.84 55.214,-1.066 55.573,-1.519Z" style="fill-rule:nonzero;"/>
                <path d="M64.267,-0.203C63.628,-0.413 63.117,-0.695 62.734,-1.05C62.594,-1.181 62.524,-1.344 62.524,-1.54C62.524,-1.671 62.561,-1.785 62.636,-1.883C62.711,-1.981 62.799,-2.03 62.902,-2.03C63.023,-2.03 63.154,-1.979 63.294,-1.876C64.162,-1.204 65.151,-0.868 66.262,-0.868C67.065,-0.868 67.681,-1.022 68.11,-1.33C68.539,-1.638 68.754,-2.077 68.754,-2.646C68.754,-2.973 68.651,-3.236 68.446,-3.437C68.241,-3.638 67.97,-3.799 67.634,-3.92C67.298,-4.041 66.845,-4.167 66.276,-4.298C65.511,-4.475 64.883,-4.662 64.393,-4.858C63.903,-5.054 63.506,-5.334 63.203,-5.698C62.9,-6.062 62.748,-6.538 62.748,-7.126C62.748,-7.686 62.9,-8.183 63.203,-8.617C63.506,-9.051 63.931,-9.387 64.477,-9.625C65.023,-9.863 65.646,-9.982 66.346,-9.982C66.999,-9.982 67.608,-9.882 68.173,-9.681C68.738,-9.48 69.211,-9.193 69.594,-8.82C69.743,-8.671 69.818,-8.507 69.818,-8.33C69.818,-8.199 69.781,-8.085 69.706,-7.987C69.631,-7.889 69.543,-7.84 69.44,-7.84C69.337,-7.84 69.202,-7.891 69.034,-7.994C68.577,-8.367 68.152,-8.629 67.76,-8.778C67.368,-8.927 66.897,-9.002 66.346,-9.002C65.571,-9.002 64.969,-8.841 64.54,-8.519C64.111,-8.197 63.896,-7.747 63.896,-7.168C63.896,-6.673 64.085,-6.302 64.463,-6.055C64.841,-5.808 65.422,-5.591 66.206,-5.404C67.055,-5.199 67.723,-5.01 68.208,-4.837C68.693,-4.664 69.097,-4.405 69.419,-4.06C69.741,-3.715 69.902,-3.253 69.902,-2.674C69.902,-2.123 69.75,-1.638 69.447,-1.218C69.144,-0.798 68.717,-0.471 68.166,-0.238C67.615,-0.005 66.985,0.112 66.276,0.112C65.576,0.112 64.906,0.007 64.267,-0.203Z" style="fill-rule:nonzero;"/>
                <path d="M77.14,-1.456C77.215,-1.372 77.252,-1.265 77.252,-1.134C77.252,-0.901 77.089,-0.686 76.762,-0.49C76.426,-0.294 76.071,-0.147 75.698,-0.049C75.325,0.049 74.961,0.098 74.606,0.098C73.551,0.098 72.718,-0.215 72.107,-0.84C71.496,-1.465 71.19,-2.329 71.19,-3.43C71.19,-4.13 71.325,-4.748 71.596,-5.285C71.867,-5.822 72.247,-6.239 72.737,-6.538C73.227,-6.837 73.785,-6.986 74.41,-6.986C75.297,-6.986 76.001,-6.697 76.524,-6.118C77.047,-5.539 77.308,-4.755 77.308,-3.766C77.308,-3.579 77.271,-3.444 77.196,-3.36C77.121,-3.276 77,-3.234 76.832,-3.234L72.324,-3.234C72.408,-1.629 73.169,-0.826 74.606,-0.826C74.97,-0.826 75.283,-0.875 75.544,-0.973C75.805,-1.071 76.085,-1.204 76.384,-1.372C76.627,-1.512 76.79,-1.582 76.874,-1.582C76.977,-1.582 77.065,-1.54 77.14,-1.456ZM72.989,-5.544C72.63,-5.171 72.417,-4.643 72.352,-3.962L76.314,-3.962C76.295,-4.653 76.123,-5.182 75.796,-5.551C75.469,-5.92 75.012,-6.104 74.424,-6.104C73.827,-6.104 73.348,-5.917 72.989,-5.544Z" style="fill-rule:nonzero;"/>
                <path d="M80.101,-0.336C79.611,-0.625 79.233,-1.036 78.967,-1.568C78.701,-2.1 78.568,-2.716 78.568,-3.416C78.568,-4.116 78.706,-4.737 78.981,-5.278C79.256,-5.819 79.641,-6.239 80.136,-6.538C80.631,-6.837 81.2,-6.986 81.844,-6.986C82.199,-6.986 82.551,-6.937 82.901,-6.839C83.251,-6.741 83.557,-6.599 83.818,-6.412C83.986,-6.3 84.105,-6.19 84.175,-6.083C84.245,-5.976 84.28,-5.857 84.28,-5.726C84.28,-5.595 84.245,-5.488 84.175,-5.404C84.105,-5.32 84.014,-5.278 83.902,-5.278C83.837,-5.278 83.767,-5.297 83.692,-5.334C83.617,-5.371 83.554,-5.409 83.503,-5.446C83.452,-5.483 83.417,-5.507 83.398,-5.516C83.155,-5.675 82.924,-5.801 82.705,-5.894C82.486,-5.987 82.217,-6.034 81.9,-6.034C81.219,-6.034 80.689,-5.803 80.311,-5.341C79.933,-4.879 79.744,-4.237 79.744,-3.416C79.744,-2.595 79.933,-1.96 80.311,-1.512C80.689,-1.064 81.219,-0.84 81.9,-0.84C82.217,-0.84 82.49,-0.887 82.719,-0.98C82.948,-1.073 83.179,-1.199 83.412,-1.358C83.515,-1.423 83.613,-1.479 83.706,-1.526C83.799,-1.573 83.879,-1.596 83.944,-1.596C84.047,-1.596 84.133,-1.554 84.203,-1.47C84.273,-1.386 84.308,-1.279 84.308,-1.148C84.308,-1.027 84.275,-0.917 84.21,-0.819C84.145,-0.721 84.023,-0.611 83.846,-0.49C83.585,-0.313 83.27,-0.17 82.901,-0.063C82.532,0.044 82.161,0.098 81.788,0.098C81.153,0.098 80.591,-0.047 80.101,-0.336Z" style="fill-rule:nonzero;"/>
                <path d="M91.273,-6.804C91.371,-6.701 91.42,-6.566 91.42,-6.398L91.42,-0.476C91.42,-0.317 91.371,-0.187 91.273,-0.084C91.175,0.019 91.037,0.07 90.86,0.07C90.692,0.07 90.559,0.021 90.461,-0.077C90.363,-0.175 90.314,-0.303 90.314,-0.462L90.314,-1.162C90.099,-0.751 89.798,-0.439 89.411,-0.224C89.024,-0.009 88.587,0.098 88.102,0.098C87.29,0.098 86.679,-0.128 86.268,-0.581C85.857,-1.034 85.652,-1.703 85.652,-2.59L85.652,-6.398C85.652,-6.566 85.703,-6.701 85.806,-6.804C85.909,-6.907 86.049,-6.958 86.226,-6.958C86.403,-6.958 86.541,-6.907 86.639,-6.804C86.737,-6.701 86.786,-6.566 86.786,-6.398L86.786,-2.618C86.786,-2.011 86.907,-1.566 87.15,-1.281C87.393,-0.996 87.775,-0.854 88.298,-0.854C88.895,-0.854 89.376,-1.048 89.74,-1.435C90.104,-1.822 90.286,-2.333 90.286,-2.968L90.286,-6.398C90.286,-6.566 90.337,-6.701 90.44,-6.804C90.543,-6.907 90.683,-6.958 90.86,-6.958C91.037,-6.958 91.175,-6.907 91.273,-6.804Z" style="fill-rule:nonzero;"/>
                <path d="M97.496,-6.482C97.496,-6.333 97.454,-6.214 97.37,-6.125C97.286,-6.036 97.141,-5.983 96.936,-5.964L96.516,-5.922C95.891,-5.866 95.426,-5.644 95.123,-5.257C94.82,-4.87 94.668,-4.415 94.668,-3.892L94.668,-0.49C94.668,-0.303 94.617,-0.163 94.514,-0.07C94.411,0.023 94.276,0.07 94.108,0.07C93.94,0.07 93.802,0.021 93.695,-0.077C93.588,-0.175 93.534,-0.313 93.534,-0.49L93.534,-6.398C93.534,-6.575 93.59,-6.713 93.702,-6.811C93.814,-6.909 93.949,-6.958 94.108,-6.958C94.257,-6.958 94.383,-6.909 94.486,-6.811C94.589,-6.713 94.64,-6.58 94.64,-6.412L94.64,-5.628C94.836,-6.039 95.114,-6.351 95.473,-6.566C95.832,-6.781 96.245,-6.907 96.712,-6.944L96.908,-6.958C97.3,-6.986 97.496,-6.827 97.496,-6.482Z" style="fill-rule:nonzero;"/>
                <path d="M98.637,-0.077C98.53,-0.175 98.476,-0.313 98.476,-0.49L98.476,-6.398C98.476,-6.575 98.53,-6.713 98.637,-6.811C98.744,-6.909 98.882,-6.958 99.05,-6.958C99.218,-6.958 99.353,-6.909 99.456,-6.811C99.559,-6.713 99.61,-6.575 99.61,-6.398L99.61,-0.49C99.61,-0.303 99.559,-0.163 99.456,-0.07C99.353,0.023 99.218,0.07 99.05,0.07C98.882,0.07 98.744,0.021 98.637,-0.077ZM98.504,-8.624C98.364,-8.755 98.294,-8.927 98.294,-9.142C98.294,-9.347 98.364,-9.515 98.504,-9.646C98.644,-9.777 98.826,-9.842 99.05,-9.842C99.274,-9.842 99.456,-9.777 99.596,-9.646C99.736,-9.515 99.806,-9.347 99.806,-9.142C99.806,-8.927 99.736,-8.755 99.596,-8.624C99.456,-8.493 99.274,-8.428 99.05,-8.428C98.826,-8.428 98.644,-8.493 98.504,-8.624Z" style="fill-rule:nonzero;"/>
                <path d="M105.364,-0.378C105.364,-0.219 105.306,-0.1 105.189,-0.021C105.072,0.058 104.897,0.089 104.664,0.07L104.286,0.042C103.539,-0.014 102.989,-0.238 102.634,-0.63C102.279,-1.022 102.102,-1.615 102.102,-2.408L102.102,-5.922L101.164,-5.922C101.005,-5.922 100.882,-5.962 100.793,-6.041C100.704,-6.12 100.66,-6.225 100.66,-6.356C100.66,-6.496 100.704,-6.608 100.793,-6.692C100.882,-6.776 101.005,-6.818 101.164,-6.818L102.102,-6.818L102.102,-8.4C102.102,-8.577 102.153,-8.715 102.256,-8.813C102.359,-8.911 102.499,-8.96 102.676,-8.96C102.844,-8.96 102.979,-8.911 103.082,-8.813C103.185,-8.715 103.236,-8.577 103.236,-8.4L103.236,-6.818L104.79,-6.818C104.939,-6.818 105.058,-6.776 105.147,-6.692C105.236,-6.608 105.28,-6.496 105.28,-6.356C105.28,-6.225 105.236,-6.12 105.147,-6.041C105.058,-5.962 104.939,-5.922 104.79,-5.922L103.236,-5.922L103.236,-2.352C103.236,-1.839 103.341,-1.468 103.551,-1.239C103.761,-1.01 104.076,-0.882 104.496,-0.854L104.874,-0.826C105.201,-0.798 105.364,-0.649 105.364,-0.378Z" style="fill-rule:nonzero;"/>
                <path d="M111.972,-6.944C112.112,-6.944 112.238,-6.897 112.35,-6.804C112.462,-6.711 112.518,-6.594 112.518,-6.454C112.518,-6.37 112.499,-6.295 112.462,-6.23L108.528,2.254C108.481,2.357 108.414,2.436 108.325,2.492C108.236,2.548 108.145,2.576 108.052,2.576C107.912,2.576 107.788,2.532 107.681,2.443C107.574,2.354 107.52,2.24 107.52,2.1C107.52,2.025 107.539,1.951 107.576,1.876L108.556,-0.238L105.784,-6.23C105.747,-6.295 105.728,-6.365 105.728,-6.44C105.728,-6.58 105.791,-6.701 105.917,-6.804C106.043,-6.907 106.181,-6.958 106.33,-6.958C106.423,-6.958 106.514,-6.93 106.603,-6.874C106.692,-6.818 106.759,-6.739 106.806,-6.636L109.144,-1.386L111.482,-6.608C111.585,-6.832 111.748,-6.944 111.972,-6.944Z" style="fill-rule:nonzero;"/>
            </g>
            <g transform="matrix(1,0,0,1,996,52)">
                <path d="M2.359,-0.203C1.72,-0.413 1.209,-0.695 0.826,-1.05C0.686,-1.181 0.616,-1.344 0.616,-1.54C0.616,-1.671 0.653,-1.785 0.728,-1.883C0.803,-1.981 0.891,-2.03 0.994,-2.03C1.115,-2.03 1.246,-1.979 1.386,-1.876C2.254,-1.204 3.243,-0.868 4.354,-0.868C5.157,-0.868 5.773,-1.022 6.202,-1.33C6.631,-1.638 6.846,-2.077 6.846,-2.646C6.846,-2.973 6.743,-3.236 6.538,-3.437C6.333,-3.638 6.062,-3.799 5.726,-3.92C5.39,-4.041 4.937,-4.167 4.368,-4.298C3.603,-4.475 2.975,-4.662 2.485,-4.858C1.995,-5.054 1.598,-5.334 1.295,-5.698C0.992,-6.062 0.84,-6.538 0.84,-7.126C0.84,-7.686 0.992,-8.183 1.295,-8.617C1.598,-9.051 2.023,-9.387 2.569,-9.625C3.115,-9.863 3.738,-9.982 4.438,-9.982C5.091,-9.982 5.7,-9.882 6.265,-9.681C6.83,-9.48 7.303,-9.193 7.686,-8.82C7.835,-8.671 7.91,-8.507 7.91,-8.33C7.91,-8.199 7.873,-8.085 7.798,-7.987C7.723,-7.889 7.635,-7.84 7.532,-7.84C7.429,-7.84 7.294,-7.891 7.126,-7.994C6.669,-8.367 6.244,-8.629 5.852,-8.778C5.46,-8.927 4.989,-9.002 4.438,-9.002C3.663,-9.002 3.061,-8.841 2.632,-8.519C2.203,-8.197 1.988,-7.747 1.988,-7.168C1.988,-6.673 2.177,-6.302 2.555,-6.055C2.933,-5.808 3.514,-5.591 4.298,-5.404C5.147,-5.199 5.815,-5.01 6.3,-4.837C6.785,-4.664 7.189,-4.405 7.511,-4.06C7.833,-3.715 7.994,-3.253 7.994,-2.674C7.994,-2.123 7.842,-1.638 7.539,-1.218C7.236,-0.798 6.809,-0.471 6.258,-0.238C5.707,-0.005 5.077,0.112 4.368,0.112C3.668,0.112 2.998,0.007 2.359,-0.203Z" style="fill-rule:nonzero;"/>
                <path d="M15.232,-1.456C15.307,-1.372 15.344,-1.265 15.344,-1.134C15.344,-0.901 15.181,-0.686 14.854,-0.49C14.518,-0.294 14.163,-0.147 13.79,-0.049C13.417,0.049 13.053,0.098 12.698,0.098C11.643,0.098 10.81,-0.215 10.199,-0.84C9.588,-1.465 9.282,-2.329 9.282,-3.43C9.282,-4.13 9.417,-4.748 9.688,-5.285C9.959,-5.822 10.339,-6.239 10.829,-6.538C11.319,-6.837 11.877,-6.986 12.502,-6.986C13.389,-6.986 14.093,-6.697 14.616,-6.118C15.139,-5.539 15.4,-4.755 15.4,-3.766C15.4,-3.579 15.363,-3.444 15.288,-3.36C15.213,-3.276 15.092,-3.234 14.924,-3.234L10.416,-3.234C10.5,-1.629 11.261,-0.826 12.698,-0.826C13.062,-0.826 13.375,-0.875 13.636,-0.973C13.897,-1.071 14.177,-1.204 14.476,-1.372C14.719,-1.512 14.882,-1.582 14.966,-1.582C15.069,-1.582 15.157,-1.54 15.232,-1.456ZM11.081,-5.544C10.722,-5.171 10.509,-4.643 10.444,-3.962L14.406,-3.962C14.387,-4.653 14.215,-5.182 13.888,-5.551C13.561,-5.92 13.104,-6.104 12.516,-6.104C11.919,-6.104 11.44,-5.917 11.081,-5.544Z" style="fill-rule:nonzero;"/>
                <path d="M21.028,-6.482C21.028,-6.333 20.986,-6.214 20.902,-6.125C20.818,-6.036 20.673,-5.983 20.468,-5.964L20.048,-5.922C19.423,-5.866 18.958,-5.644 18.655,-5.257C18.352,-4.87 18.2,-4.415 18.2,-3.892L18.2,-0.49C18.2,-0.303 18.149,-0.163 18.046,-0.07C17.943,0.023 17.808,0.07 17.64,0.07C17.472,0.07 17.334,0.021 17.227,-0.077C17.12,-0.175 17.066,-0.313 17.066,-0.49L17.066,-6.398C17.066,-6.575 17.122,-6.713 17.234,-6.811C17.346,-6.909 17.481,-6.958 17.64,-6.958C17.789,-6.958 17.915,-6.909 18.018,-6.811C18.121,-6.713 18.172,-6.58 18.172,-6.412L18.172,-5.628C18.368,-6.039 18.646,-6.351 19.005,-6.566C19.364,-6.781 19.777,-6.907 20.244,-6.944L20.44,-6.958C20.832,-6.986 21.028,-6.827 21.028,-6.482Z" style="fill-rule:nonzero;"/>
                <path d="M27.832,-6.944C27.972,-6.944 28.098,-6.897 28.21,-6.804C28.322,-6.711 28.378,-6.594 28.378,-6.454C28.378,-6.37 28.359,-6.295 28.322,-6.23L25.592,-0.35C25.536,-0.229 25.452,-0.133 25.34,-0.063C25.228,0.007 25.107,0.042 24.976,0.042C24.855,0.042 24.738,0.007 24.626,-0.063C24.514,-0.133 24.425,-0.229 24.36,-0.35L21.644,-6.23C21.607,-6.295 21.588,-6.365 21.588,-6.44C21.588,-6.58 21.651,-6.701 21.777,-6.804C21.903,-6.907 22.041,-6.958 22.19,-6.958C22.283,-6.958 22.374,-6.93 22.463,-6.874C22.552,-6.818 22.619,-6.739 22.666,-6.636L25.004,-1.386L27.342,-6.608C27.445,-6.832 27.608,-6.944 27.832,-6.944Z" style="fill-rule:nonzero;"/>
                <path d="M29.785,-0.077C29.678,-0.175 29.624,-0.313 29.624,-0.49L29.624,-6.398C29.624,-6.575 29.678,-6.713 29.785,-6.811C29.892,-6.909 30.03,-6.958 30.198,-6.958C30.366,-6.958 30.501,-6.909 30.604,-6.811C30.707,-6.713 30.758,-6.575 30.758,-6.398L30.758,-0.49C30.758,-0.303 30.707,-0.163 30.604,-0.07C30.501,0.023 30.366,0.07 30.198,0.07C30.03,0.07 29.892,0.021 29.785,-0.077ZM29.652,-8.624C29.512,-8.755 29.442,-8.927 29.442,-9.142C29.442,-9.347 29.512,-9.515 29.652,-9.646C29.792,-9.777 29.974,-9.842 30.198,-9.842C30.422,-9.842 30.604,-9.777 30.744,-9.646C30.884,-9.515 30.954,-9.347 30.954,-9.142C30.954,-8.927 30.884,-8.755 30.744,-8.624C30.604,-8.493 30.422,-8.428 30.198,-8.428C29.974,-8.428 29.792,-8.493 29.652,-8.624Z" style="fill-rule:nonzero;"/>
                <path d="M33.999,-0.336C33.509,-0.625 33.131,-1.036 32.865,-1.568C32.599,-2.1 32.466,-2.716 32.466,-3.416C32.466,-4.116 32.604,-4.737 32.879,-5.278C33.154,-5.819 33.539,-6.239 34.034,-6.538C34.529,-6.837 35.098,-6.986 35.742,-6.986C36.097,-6.986 36.449,-6.937 36.799,-6.839C37.149,-6.741 37.455,-6.599 37.716,-6.412C37.884,-6.3 38.003,-6.19 38.073,-6.083C38.143,-5.976 38.178,-5.857 38.178,-5.726C38.178,-5.595 38.143,-5.488 38.073,-5.404C38.003,-5.32 37.912,-5.278 37.8,-5.278C37.735,-5.278 37.665,-5.297 37.59,-5.334C37.515,-5.371 37.452,-5.409 37.401,-5.446C37.35,-5.483 37.315,-5.507 37.296,-5.516C37.053,-5.675 36.822,-5.801 36.603,-5.894C36.384,-5.987 36.115,-6.034 35.798,-6.034C35.117,-6.034 34.587,-5.803 34.209,-5.341C33.831,-4.879 33.642,-4.237 33.642,-3.416C33.642,-2.595 33.831,-1.96 34.209,-1.512C34.587,-1.064 35.117,-0.84 35.798,-0.84C36.115,-0.84 36.388,-0.887 36.617,-0.98C36.846,-1.073 37.077,-1.199 37.31,-1.358C37.413,-1.423 37.511,-1.479 37.604,-1.526C37.697,-1.573 37.777,-1.596 37.842,-1.596C37.945,-1.596 38.031,-1.554 38.101,-1.47C38.171,-1.386 38.206,-1.279 38.206,-1.148C38.206,-1.027 38.173,-0.917 38.108,-0.819C38.043,-0.721 37.921,-0.611 37.744,-0.49C37.483,-0.313 37.168,-0.17 36.799,-0.063C36.43,0.044 36.059,0.098 35.686,0.098C35.051,0.098 34.489,-0.047 33.999,-0.336Z" style="fill-rule:nonzero;"/>
                <path d="M45.122,-1.456C45.197,-1.372 45.234,-1.265 45.234,-1.134C45.234,-0.901 45.071,-0.686 44.744,-0.49C44.408,-0.294 44.053,-0.147 43.68,-0.049C43.307,0.049 42.943,0.098 42.588,0.098C41.533,0.098 40.7,-0.215 40.089,-0.84C39.478,-1.465 39.172,-2.329 39.172,-3.43C39.172,-4.13 39.307,-4.748 39.578,-5.285C39.849,-5.822 40.229,-6.239 40.719,-6.538C41.209,-6.837 41.767,-6.986 42.392,-6.986C43.279,-6.986 43.983,-6.697 44.506,-6.118C45.029,-5.539 45.29,-4.755 45.29,-3.766C45.29,-3.579 45.253,-3.444 45.178,-3.36C45.103,-3.276 44.982,-3.234 44.814,-3.234L40.306,-3.234C40.39,-1.629 41.151,-0.826 42.588,-0.826C42.952,-0.826 43.265,-0.875 43.526,-0.973C43.787,-1.071 44.067,-1.204 44.366,-1.372C44.609,-1.512 44.772,-1.582 44.856,-1.582C44.959,-1.582 45.047,-1.54 45.122,-1.456ZM40.971,-5.544C40.612,-5.171 40.399,-4.643 40.334,-3.962L44.296,-3.962C44.277,-4.653 44.105,-5.182 43.778,-5.551C43.451,-5.92 42.994,-6.104 42.406,-6.104C41.809,-6.104 41.33,-5.917 40.971,-5.544Z" style="fill-rule:nonzero;"/>
                <path d="M50.89,-0.091C50.787,-0.198 50.736,-0.341 50.736,-0.518L50.736,-9.31C50.736,-9.478 50.79,-9.613 50.897,-9.716C51.004,-9.819 51.147,-9.87 51.324,-9.87L54.642,-9.87C55.678,-9.87 56.483,-9.618 57.057,-9.114C57.631,-8.61 57.918,-7.896 57.918,-6.972C57.918,-6.048 57.629,-5.329 57.05,-4.816C56.471,-4.303 55.669,-4.046 54.642,-4.046L51.884,-4.046L51.884,-0.518C51.884,-0.341 51.833,-0.198 51.73,-0.091C51.627,0.016 51.487,0.07 51.31,0.07C51.133,0.07 50.993,0.016 50.89,-0.091ZM54.53,-4.998C56.033,-4.998 56.784,-5.656 56.784,-6.972C56.784,-8.269 56.033,-8.918 54.53,-8.918L51.884,-8.918L51.884,-4.998L54.53,-4.998Z" style="fill-rule:nonzero;"/>
                <path d="M63.42,-6.482C63.42,-6.333 63.378,-6.214 63.294,-6.125C63.21,-6.036 63.065,-5.983 62.86,-5.964L62.44,-5.922C61.815,-5.866 61.35,-5.644 61.047,-5.257C60.744,-4.87 60.592,-4.415 60.592,-3.892L60.592,-0.49C60.592,-0.303 60.541,-0.163 60.438,-0.07C60.335,0.023 60.2,0.07 60.032,0.07C59.864,0.07 59.726,0.021 59.619,-0.077C59.512,-0.175 59.458,-0.313 59.458,-0.49L59.458,-6.398C59.458,-6.575 59.514,-6.713 59.626,-6.811C59.738,-6.909 59.873,-6.958 60.032,-6.958C60.181,-6.958 60.307,-6.909 60.41,-6.811C60.513,-6.713 60.564,-6.58 60.564,-6.412L60.564,-5.628C60.76,-6.039 61.038,-6.351 61.397,-6.566C61.756,-6.781 62.169,-6.907 62.636,-6.944L62.832,-6.958C63.224,-6.986 63.42,-6.827 63.42,-6.482Z" style="fill-rule:nonzero;"/>
                <path d="M65.387,-0.336C64.897,-0.625 64.519,-1.038 64.253,-1.575C63.987,-2.112 63.854,-2.735 63.854,-3.444C63.854,-4.153 63.987,-4.776 64.253,-5.313C64.519,-5.85 64.897,-6.263 65.387,-6.552C65.877,-6.841 66.444,-6.986 67.088,-6.986C67.732,-6.986 68.301,-6.841 68.796,-6.552C69.291,-6.263 69.671,-5.85 69.937,-5.313C70.203,-4.776 70.336,-4.153 70.336,-3.444C70.336,-2.735 70.203,-2.112 69.937,-1.575C69.671,-1.038 69.291,-0.625 68.796,-0.336C68.301,-0.047 67.732,0.098 67.088,0.098C66.444,0.098 65.877,-0.047 65.387,-0.336ZM68.635,-1.505C68.994,-1.948 69.174,-2.595 69.174,-3.444C69.174,-4.275 68.992,-4.916 68.628,-5.369C68.264,-5.822 67.751,-6.048 67.088,-6.048C66.425,-6.048 65.912,-5.822 65.548,-5.369C65.184,-4.916 65.002,-4.275 65.002,-3.444C65.002,-2.604 65.182,-1.96 65.541,-1.512C65.9,-1.064 66.416,-0.84 67.088,-0.84C67.76,-0.84 68.276,-1.062 68.635,-1.505Z" style="fill-rule:nonzero;"/>
                <path d="M77.35,-6.944C77.49,-6.944 77.616,-6.897 77.728,-6.804C77.84,-6.711 77.896,-6.594 77.896,-6.454C77.896,-6.37 77.877,-6.295 77.84,-6.23L75.11,-0.35C75.054,-0.229 74.97,-0.133 74.858,-0.063C74.746,0.007 74.625,0.042 74.494,0.042C74.373,0.042 74.256,0.007 74.144,-0.063C74.032,-0.133 73.943,-0.229 73.878,-0.35L71.162,-6.23C71.125,-6.295 71.106,-6.365 71.106,-6.44C71.106,-6.58 71.169,-6.701 71.295,-6.804C71.421,-6.907 71.559,-6.958 71.708,-6.958C71.801,-6.958 71.892,-6.93 71.981,-6.874C72.07,-6.818 72.137,-6.739 72.184,-6.636L74.522,-1.386L76.86,-6.608C76.963,-6.832 77.126,-6.944 77.35,-6.944Z" style="fill-rule:nonzero;"/>
                <path d="M79.303,-0.077C79.196,-0.175 79.142,-0.313 79.142,-0.49L79.142,-6.398C79.142,-6.575 79.196,-6.713 79.303,-6.811C79.41,-6.909 79.548,-6.958 79.716,-6.958C79.884,-6.958 80.019,-6.909 80.122,-6.811C80.225,-6.713 80.276,-6.575 80.276,-6.398L80.276,-0.49C80.276,-0.303 80.225,-0.163 80.122,-0.07C80.019,0.023 79.884,0.07 79.716,0.07C79.548,0.07 79.41,0.021 79.303,-0.077ZM79.17,-8.624C79.03,-8.755 78.96,-8.927 78.96,-9.142C78.96,-9.347 79.03,-9.515 79.17,-9.646C79.31,-9.777 79.492,-9.842 79.716,-9.842C79.94,-9.842 80.122,-9.777 80.262,-9.646C80.402,-9.515 80.472,-9.347 80.472,-9.142C80.472,-8.927 80.402,-8.755 80.262,-8.624C80.122,-8.493 79.94,-8.428 79.716,-8.428C79.492,-8.428 79.31,-8.493 79.17,-8.624Z" style="fill-rule:nonzero;"/>
                <path d="M88.284,-9.786C88.387,-9.683 88.438,-9.553 88.438,-9.394L88.438,-0.49C88.438,-0.322 88.387,-0.187 88.284,-0.084C88.181,0.019 88.041,0.07 87.864,0.07C87.687,0.07 87.549,0.019 87.451,-0.084C87.353,-0.187 87.304,-0.322 87.304,-0.49L87.304,-1.246C87.099,-0.817 86.798,-0.485 86.401,-0.252C86.004,-0.019 85.54,0.098 85.008,0.098C84.411,0.098 83.883,-0.051 83.426,-0.35C82.969,-0.649 82.614,-1.066 82.362,-1.603C82.11,-2.14 81.984,-2.763 81.984,-3.472C81.984,-4.172 82.11,-4.788 82.362,-5.32C82.614,-5.852 82.969,-6.263 83.426,-6.552C83.883,-6.841 84.411,-6.986 85.008,-6.986C85.54,-6.986 86.004,-6.869 86.401,-6.636C86.798,-6.403 87.099,-6.071 87.304,-5.642L87.304,-9.394C87.304,-9.562 87.353,-9.695 87.451,-9.793C87.549,-9.891 87.687,-9.94 87.864,-9.94C88.041,-9.94 88.181,-9.889 88.284,-9.786ZM86.765,-1.519C87.124,-1.972 87.304,-2.613 87.304,-3.444C87.304,-4.275 87.124,-4.914 86.765,-5.362C86.406,-5.81 85.895,-6.034 85.232,-6.034C84.569,-6.034 84.054,-5.81 83.685,-5.362C83.316,-4.914 83.132,-4.284 83.132,-3.472C83.132,-2.641 83.316,-1.995 83.685,-1.533C84.054,-1.071 84.569,-0.84 85.232,-0.84C85.895,-0.84 86.406,-1.066 86.765,-1.519Z" style="fill-rule:nonzero;"/>
                <path d="M96.082,-1.456C96.157,-1.372 96.194,-1.265 96.194,-1.134C96.194,-0.901 96.031,-0.686 95.704,-0.49C95.368,-0.294 95.013,-0.147 94.64,-0.049C94.267,0.049 93.903,0.098 93.548,0.098C92.493,0.098 91.66,-0.215 91.049,-0.84C90.438,-1.465 90.132,-2.329 90.132,-3.43C90.132,-4.13 90.267,-4.748 90.538,-5.285C90.809,-5.822 91.189,-6.239 91.679,-6.538C92.169,-6.837 92.727,-6.986 93.352,-6.986C94.239,-6.986 94.943,-6.697 95.466,-6.118C95.989,-5.539 96.25,-4.755 96.25,-3.766C96.25,-3.579 96.213,-3.444 96.138,-3.36C96.063,-3.276 95.942,-3.234 95.774,-3.234L91.266,-3.234C91.35,-1.629 92.111,-0.826 93.548,-0.826C93.912,-0.826 94.225,-0.875 94.486,-0.973C94.747,-1.071 95.027,-1.204 95.326,-1.372C95.569,-1.512 95.732,-1.582 95.816,-1.582C95.919,-1.582 96.007,-1.54 96.082,-1.456ZM91.931,-5.544C91.572,-5.171 91.359,-4.643 91.294,-3.962L95.256,-3.962C95.237,-4.653 95.065,-5.182 94.738,-5.551C94.411,-5.92 93.954,-6.104 93.366,-6.104C92.769,-6.104 92.29,-5.917 91.931,-5.544Z" style="fill-rule:nonzero;"/>
                <path d="M101.878,-6.482C101.878,-6.333 101.836,-6.214 101.752,-6.125C101.668,-6.036 101.523,-5.983 101.318,-5.964L100.898,-5.922C100.273,-5.866 99.808,-5.644 99.505,-5.257C99.202,-4.87 99.05,-4.415 99.05,-3.892L99.05,-0.49C99.05,-0.303 98.999,-0.163 98.896,-0.07C98.793,0.023 98.658,0.07 98.49,0.07C98.322,0.07 98.184,0.021 98.077,-0.077C97.97,-0.175 97.916,-0.313 97.916,-0.49L97.916,-6.398C97.916,-6.575 97.972,-6.713 98.084,-6.811C98.196,-6.909 98.331,-6.958 98.49,-6.958C98.639,-6.958 98.765,-6.909 98.868,-6.811C98.971,-6.713 99.022,-6.58 99.022,-6.412L99.022,-5.628C99.218,-6.039 99.496,-6.351 99.855,-6.566C100.214,-6.781 100.627,-6.907 101.094,-6.944L101.29,-6.958C101.682,-6.986 101.878,-6.827 101.878,-6.482Z" style="fill-rule:nonzero;"/>
            </g>
            <g transform="matrix(1,0,0,1,996,69)">
                <path d="M1.442,-3.682C1.442,-5.773 1.937,-7.765 2.926,-9.66C3.047,-9.875 3.211,-9.982 3.416,-9.982C3.528,-9.982 3.624,-9.945 3.703,-9.87C3.782,-9.795 3.822,-9.702 3.822,-9.59C3.822,-9.525 3.808,-9.455 3.78,-9.38C2.996,-7.532 2.604,-5.633 2.604,-3.682C2.604,-1.731 2.996,0.168 3.78,2.016C3.808,2.1 3.822,2.17 3.822,2.226C3.822,2.347 3.782,2.443 3.703,2.513C3.624,2.583 3.528,2.618 3.416,2.618C3.211,2.618 3.047,2.511 2.926,2.296C1.937,0.401 1.442,-1.591 1.442,-3.682Z" style="fill-rule:nonzero;"/>
                <path d="M14.791,-9.779C14.889,-9.672 14.938,-9.529 14.938,-9.352L14.938,-0.49C14.938,-0.322 14.891,-0.187 14.798,-0.084C14.705,0.019 14.574,0.07 14.406,0.07C14.238,0.07 14.112,0.019 14.028,-0.084C13.944,-0.187 13.902,-0.322 13.902,-0.49L13.902,-7.644L10.864,-1.82C10.733,-1.549 10.542,-1.414 10.29,-1.414C10.047,-1.414 9.856,-1.549 9.716,-1.82L6.664,-7.574L6.664,-0.49C6.664,-0.322 6.62,-0.187 6.531,-0.084C6.442,0.019 6.314,0.07 6.146,0.07C5.978,0.07 5.847,0.019 5.754,-0.084C5.661,-0.187 5.614,-0.322 5.614,-0.49L5.614,-9.352C5.614,-9.529 5.665,-9.672 5.768,-9.779C5.871,-9.886 6.011,-9.94 6.188,-9.94C6.421,-9.94 6.608,-9.805 6.748,-9.534L10.304,-2.716L13.818,-9.534C13.893,-9.683 13.974,-9.788 14.063,-9.849C14.152,-9.91 14.257,-9.94 14.378,-9.94C14.555,-9.94 14.693,-9.886 14.791,-9.779Z" style="fill-rule:nonzero;"/>
                <path d="M18.529,-0.203C17.89,-0.413 17.379,-0.695 16.996,-1.05C16.856,-1.181 16.786,-1.344 16.786,-1.54C16.786,-1.671 16.823,-1.785 16.898,-1.883C16.973,-1.981 17.061,-2.03 17.164,-2.03C17.285,-2.03 17.416,-1.979 17.556,-1.876C18.424,-1.204 19.413,-0.868 20.524,-0.868C21.327,-0.868 21.943,-1.022 22.372,-1.33C22.801,-1.638 23.016,-2.077 23.016,-2.646C23.016,-2.973 22.913,-3.236 22.708,-3.437C22.503,-3.638 22.232,-3.799 21.896,-3.92C21.56,-4.041 21.107,-4.167 20.538,-4.298C19.773,-4.475 19.145,-4.662 18.655,-4.858C18.165,-5.054 17.768,-5.334 17.465,-5.698C17.162,-6.062 17.01,-6.538 17.01,-7.126C17.01,-7.686 17.162,-8.183 17.465,-8.617C17.768,-9.051 18.193,-9.387 18.739,-9.625C19.285,-9.863 19.908,-9.982 20.608,-9.982C21.261,-9.982 21.87,-9.882 22.435,-9.681C23,-9.48 23.473,-9.193 23.856,-8.82C24.005,-8.671 24.08,-8.507 24.08,-8.33C24.08,-8.199 24.043,-8.085 23.968,-7.987C23.893,-7.889 23.805,-7.84 23.702,-7.84C23.599,-7.84 23.464,-7.891 23.296,-7.994C22.839,-8.367 22.414,-8.629 22.022,-8.778C21.63,-8.927 21.159,-9.002 20.608,-9.002C19.833,-9.002 19.231,-8.841 18.802,-8.519C18.373,-8.197 18.158,-7.747 18.158,-7.168C18.158,-6.673 18.347,-6.302 18.725,-6.055C19.103,-5.808 19.684,-5.591 20.468,-5.404C21.317,-5.199 21.985,-5.01 22.47,-4.837C22.955,-4.664 23.359,-4.405 23.681,-4.06C24.003,-3.715 24.164,-3.253 24.164,-2.674C24.164,-2.123 24.012,-1.638 23.709,-1.218C23.406,-0.798 22.979,-0.471 22.428,-0.238C21.877,-0.005 21.247,0.112 20.538,0.112C19.838,0.112 19.168,0.007 18.529,-0.203Z" style="fill-rule:nonzero;"/>
                <path d="M27.167,-0.203C26.528,-0.413 26.017,-0.695 25.634,-1.05C25.494,-1.181 25.424,-1.344 25.424,-1.54C25.424,-1.671 25.461,-1.785 25.536,-1.883C25.611,-1.981 25.699,-2.03 25.802,-2.03C25.923,-2.03 26.054,-1.979 26.194,-1.876C27.062,-1.204 28.051,-0.868 29.162,-0.868C29.965,-0.868 30.581,-1.022 31.01,-1.33C31.439,-1.638 31.654,-2.077 31.654,-2.646C31.654,-2.973 31.551,-3.236 31.346,-3.437C31.141,-3.638 30.87,-3.799 30.534,-3.92C30.198,-4.041 29.745,-4.167 29.176,-4.298C28.411,-4.475 27.783,-4.662 27.293,-4.858C26.803,-5.054 26.406,-5.334 26.103,-5.698C25.8,-6.062 25.648,-6.538 25.648,-7.126C25.648,-7.686 25.8,-8.183 26.103,-8.617C26.406,-9.051 26.831,-9.387 27.377,-9.625C27.923,-9.863 28.546,-9.982 29.246,-9.982C29.899,-9.982 30.508,-9.882 31.073,-9.681C31.638,-9.48 32.111,-9.193 32.494,-8.82C32.643,-8.671 32.718,-8.507 32.718,-8.33C32.718,-8.199 32.681,-8.085 32.606,-7.987C32.531,-7.889 32.443,-7.84 32.34,-7.84C32.237,-7.84 32.102,-7.891 31.934,-7.994C31.477,-8.367 31.052,-8.629 30.66,-8.778C30.268,-8.927 29.797,-9.002 29.246,-9.002C28.471,-9.002 27.869,-8.841 27.44,-8.519C27.011,-8.197 26.796,-7.747 26.796,-7.168C26.796,-6.673 26.985,-6.302 27.363,-6.055C27.741,-5.808 28.322,-5.591 29.106,-5.404C29.955,-5.199 30.623,-5.01 31.108,-4.837C31.593,-4.664 31.997,-4.405 32.319,-4.06C32.641,-3.715 32.802,-3.253 32.802,-2.674C32.802,-2.123 32.65,-1.638 32.347,-1.218C32.044,-0.798 31.617,-0.471 31.066,-0.238C30.515,-0.005 29.885,0.112 29.176,0.112C28.476,0.112 27.806,0.007 27.167,-0.203Z" style="fill-rule:nonzero;"/>
                <path d="M34.818,-0.091C34.715,-0.198 34.664,-0.341 34.664,-0.518L34.664,-9.31C34.664,-9.478 34.718,-9.613 34.825,-9.716C34.932,-9.819 35.075,-9.87 35.252,-9.87L38.57,-9.87C39.606,-9.87 40.411,-9.618 40.985,-9.114C41.559,-8.61 41.846,-7.896 41.846,-6.972C41.846,-6.048 41.557,-5.329 40.978,-4.816C40.399,-4.303 39.597,-4.046 38.57,-4.046L35.812,-4.046L35.812,-0.518C35.812,-0.341 35.761,-0.198 35.658,-0.091C35.555,0.016 35.415,0.07 35.238,0.07C35.061,0.07 34.921,0.016 34.818,-0.091ZM38.458,-4.998C39.961,-4.998 40.712,-5.656 40.712,-6.972C40.712,-8.269 39.961,-8.918 38.458,-8.918L35.812,-8.918L35.812,-4.998L38.458,-4.998Z" style="fill-rule:nonzero;"/>
                <path d="M43.316,2.618C43.204,2.618 43.108,2.583 43.029,2.513C42.95,2.443 42.91,2.352 42.91,2.24C42.91,2.203 42.929,2.128 42.966,2.016C43.741,0.159 44.128,-1.741 44.128,-3.682C44.128,-5.623 43.741,-7.523 42.966,-9.38C42.929,-9.492 42.91,-9.567 42.91,-9.604C42.91,-9.716 42.95,-9.807 43.029,-9.877C43.108,-9.947 43.204,-9.982 43.316,-9.982C43.531,-9.982 43.699,-9.875 43.82,-9.66C44.8,-7.756 45.29,-5.763 45.29,-3.682C45.29,-1.601 44.8,0.392 43.82,2.296C43.699,2.511 43.531,2.618 43.316,2.618Z" style="fill-rule:nonzero;"/>
            </g>
        </g>
    </g>
</svg>
