<?xml version="1.0" encoding="UTF-8" standalone="no"?>
<!DOCTYPE svg PUBLIC "-//W3C//DTD SVG 1.1//EN" "http://www.w3.org/Graphics/SVG/1.1/DTD/svg11.dtd">
<svg width="100%" height="100%" viewBox="0 0 97 11" version="1.1" xmlns="http://www.w3.org/2000/svg" xmlns:xlink="http://www.w3.org/1999/xlink" xml:space="preserve" xmlns:serif="http://www.serif.com/" style="fill-rule:evenodd;clip-rule:evenodd;stroke-linejoin:round;stroke-miterlimit:1.41421;">
    <g transform="matrix(1,0,0,1,-250,-194)">
        <g transform="matrix(1,0,0,1,250,204)">
            <g id="SonicPoint-ACe">
                <path d="M2.359,-0.203C1.72,-0.413 1.209,-0.695 0.826,-1.05C0.686,-1.181 0.616,-1.344 0.616,-1.54C0.616,-1.671 0.653,-1.785 0.728,-1.883C0.803,-1.981 0.891,-2.03 0.994,-2.03C1.115,-2.03 1.246,-1.979 1.386,-1.876C2.254,-1.204 3.243,-0.868 4.354,-0.868C5.157,-0.868 5.773,-1.022 6.202,-1.33C6.631,-1.638 6.846,-2.077 6.846,-2.646C6.846,-2.973 6.743,-3.236 6.538,-3.437C6.333,-3.638 6.062,-3.799 5.726,-3.92C5.39,-4.041 4.937,-4.167 4.368,-4.298C3.603,-4.475 2.975,-4.662 2.485,-4.858C1.995,-5.054 1.598,-5.334 1.295,-5.698C0.992,-6.062 0.84,-6.538 0.84,-7.126C0.84,-7.686 0.992,-8.183 1.295,-8.617C1.598,-9.051 2.023,-9.387 2.569,-9.625C3.115,-9.863 3.738,-9.982 4.438,-9.982C5.091,-9.982 5.7,-9.882 6.265,-9.681C6.83,-9.48 7.303,-9.193 7.686,-8.82C7.835,-8.671 7.91,-8.507 7.91,-8.33C7.91,-8.199 7.873,-8.085 7.798,-7.987C7.723,-7.889 7.635,-7.84 7.532,-7.84C7.429,-7.84 7.294,-7.891 7.126,-7.994C6.669,-8.367 6.244,-8.629 5.852,-8.778C5.46,-8.927 4.989,-9.002 4.438,-9.002C3.663,-9.002 3.061,-8.841 2.632,-8.519C2.203,-8.197 1.988,-7.747 1.988,-7.168C1.988,-6.673 2.177,-6.302 2.555,-6.055C2.933,-5.808 3.514,-5.591 4.298,-5.404C5.147,-5.199 5.815,-5.01 6.3,-4.837C6.785,-4.664 7.189,-4.405 7.511,-4.06C7.833,-3.715 7.994,-3.253 7.994,-2.674C7.994,-2.123 7.842,-1.638 7.539,-1.218C7.236,-0.798 6.809,-0.471 6.258,-0.238C5.707,-0.005 5.077,0.112 4.368,0.112C3.668,0.112 2.998,0.007 2.359,-0.203Z" style="fill-rule:nonzero;"/>
                <path d="M10.815,-0.336C10.325,-0.625 9.947,-1.038 9.681,-1.575C9.415,-2.112 9.282,-2.735 9.282,-3.444C9.282,-4.153 9.415,-4.776 9.681,-5.313C9.947,-5.85 10.325,-6.263 10.815,-6.552C11.305,-6.841 11.872,-6.986 12.516,-6.986C13.16,-6.986 13.729,-6.841 14.224,-6.552C14.719,-6.263 15.099,-5.85 15.365,-5.313C15.631,-4.776 15.764,-4.153 15.764,-3.444C15.764,-2.735 15.631,-2.112 15.365,-1.575C15.099,-1.038 14.719,-0.625 14.224,-0.336C13.729,-0.047 13.16,0.098 12.516,0.098C11.872,0.098 11.305,-0.047 10.815,-0.336ZM14.063,-1.505C14.422,-1.948 14.602,-2.595 14.602,-3.444C14.602,-4.275 14.42,-4.916 14.056,-5.369C13.692,-5.822 13.179,-6.048 12.516,-6.048C11.853,-6.048 11.34,-5.822 10.976,-5.369C10.612,-4.916 10.43,-4.275 10.43,-3.444C10.43,-2.604 10.61,-1.96 10.969,-1.512C11.328,-1.064 11.844,-0.84 12.516,-0.84C13.188,-0.84 13.704,-1.062 14.063,-1.505Z" style="fill-rule:nonzero;"/>
                <path d="M23.338,-4.284L23.338,-0.49C23.338,-0.313 23.289,-0.175 23.191,-0.077C23.093,0.021 22.955,0.07 22.778,0.07C22.601,0.07 22.461,0.021 22.358,-0.077C22.255,-0.175 22.204,-0.313 22.204,-0.49L22.204,-4.214C22.204,-4.849 22.08,-5.311 21.833,-5.6C21.586,-5.889 21.191,-6.034 20.65,-6.034C20.025,-6.034 19.525,-5.843 19.152,-5.46C18.779,-5.077 18.592,-4.559 18.592,-3.906L18.592,-0.49C18.592,-0.313 18.543,-0.175 18.445,-0.077C18.347,0.021 18.209,0.07 18.032,0.07C17.855,0.07 17.715,0.021 17.612,-0.077C17.509,-0.175 17.458,-0.313 17.458,-0.49L17.458,-6.398C17.458,-6.566 17.509,-6.701 17.612,-6.804C17.715,-6.907 17.855,-6.958 18.032,-6.958C18.2,-6.958 18.333,-6.907 18.431,-6.804C18.529,-6.701 18.578,-6.571 18.578,-6.412L18.578,-5.698C18.802,-6.118 19.115,-6.438 19.516,-6.657C19.917,-6.876 20.375,-6.986 20.888,-6.986C22.521,-6.986 23.338,-6.085 23.338,-4.284Z" style="fill-rule:nonzero;"/>
                <path d="M25.571,-0.077C25.464,-0.175 25.41,-0.313 25.41,-0.49L25.41,-6.398C25.41,-6.575 25.464,-6.713 25.571,-6.811C25.678,-6.909 25.816,-6.958 25.984,-6.958C26.152,-6.958 26.287,-6.909 26.39,-6.811C26.493,-6.713 26.544,-6.575 26.544,-6.398L26.544,-0.49C26.544,-0.303 26.493,-0.163 26.39,-0.07C26.287,0.023 26.152,0.07 25.984,0.07C25.816,0.07 25.678,0.021 25.571,-0.077ZM25.438,-8.624C25.298,-8.755 25.228,-8.927 25.228,-9.142C25.228,-9.347 25.298,-9.515 25.438,-9.646C25.578,-9.777 25.76,-9.842 25.984,-9.842C26.208,-9.842 26.39,-9.777 26.53,-9.646C26.67,-9.515 26.74,-9.347 26.74,-9.142C26.74,-8.927 26.67,-8.755 26.53,-8.624C26.39,-8.493 26.208,-8.428 25.984,-8.428C25.76,-8.428 25.578,-8.493 25.438,-8.624Z" style="fill-rule:nonzero;"/>
                <path d="M29.785,-0.336C29.295,-0.625 28.917,-1.036 28.651,-1.568C28.385,-2.1 28.252,-2.716 28.252,-3.416C28.252,-4.116 28.39,-4.737 28.665,-5.278C28.94,-5.819 29.325,-6.239 29.82,-6.538C30.315,-6.837 30.884,-6.986 31.528,-6.986C31.883,-6.986 32.235,-6.937 32.585,-6.839C32.935,-6.741 33.241,-6.599 33.502,-6.412C33.67,-6.3 33.789,-6.19 33.859,-6.083C33.929,-5.976 33.964,-5.857 33.964,-5.726C33.964,-5.595 33.929,-5.488 33.859,-5.404C33.789,-5.32 33.698,-5.278 33.586,-5.278C33.521,-5.278 33.451,-5.297 33.376,-5.334C33.301,-5.371 33.238,-5.409 33.187,-5.446C33.136,-5.483 33.101,-5.507 33.082,-5.516C32.839,-5.675 32.608,-5.801 32.389,-5.894C32.17,-5.987 31.901,-6.034 31.584,-6.034C30.903,-6.034 30.373,-5.803 29.995,-5.341C29.617,-4.879 29.428,-4.237 29.428,-3.416C29.428,-2.595 29.617,-1.96 29.995,-1.512C30.373,-1.064 30.903,-0.84 31.584,-0.84C31.901,-0.84 32.174,-0.887 32.403,-0.98C32.632,-1.073 32.863,-1.199 33.096,-1.358C33.199,-1.423 33.297,-1.479 33.39,-1.526C33.483,-1.573 33.563,-1.596 33.628,-1.596C33.731,-1.596 33.817,-1.554 33.887,-1.47C33.957,-1.386 33.992,-1.279 33.992,-1.148C33.992,-1.027 33.959,-0.917 33.894,-0.819C33.829,-0.721 33.707,-0.611 33.53,-0.49C33.269,-0.313 32.954,-0.17 32.585,-0.063C32.216,0.044 31.845,0.098 31.472,0.098C30.837,0.098 30.275,-0.047 29.785,-0.336Z" style="fill-rule:nonzero;"/>
                <path d="M35.686,-0.091C35.583,-0.198 35.532,-0.341 35.532,-0.518L35.532,-9.31C35.532,-9.478 35.586,-9.613 35.693,-9.716C35.8,-9.819 35.943,-9.87 36.12,-9.87L39.438,-9.87C40.474,-9.87 41.279,-9.618 41.853,-9.114C42.427,-8.61 42.714,-7.896 42.714,-6.972C42.714,-6.048 42.425,-5.329 41.846,-4.816C41.267,-4.303 40.465,-4.046 39.438,-4.046L36.68,-4.046L36.68,-0.518C36.68,-0.341 36.629,-0.198 36.526,-0.091C36.423,0.016 36.283,0.07 36.106,0.07C35.929,0.07 35.789,0.016 35.686,-0.091ZM39.326,-4.998C40.829,-4.998 41.58,-5.656 41.58,-6.972C41.58,-8.269 40.829,-8.918 39.326,-8.918L36.68,-8.918L36.68,-4.998L39.326,-4.998Z" style="fill-rule:nonzero;"/>
                <path d="M45.297,-0.336C44.807,-0.625 44.429,-1.038 44.163,-1.575C43.897,-2.112 43.764,-2.735 43.764,-3.444C43.764,-4.153 43.897,-4.776 44.163,-5.313C44.429,-5.85 44.807,-6.263 45.297,-6.552C45.787,-6.841 46.354,-6.986 46.998,-6.986C47.642,-6.986 48.211,-6.841 48.706,-6.552C49.201,-6.263 49.581,-5.85 49.847,-5.313C50.113,-4.776 50.246,-4.153 50.246,-3.444C50.246,-2.735 50.113,-2.112 49.847,-1.575C49.581,-1.038 49.201,-0.625 48.706,-0.336C48.211,-0.047 47.642,0.098 46.998,0.098C46.354,0.098 45.787,-0.047 45.297,-0.336ZM48.545,-1.505C48.904,-1.948 49.084,-2.595 49.084,-3.444C49.084,-4.275 48.902,-4.916 48.538,-5.369C48.174,-5.822 47.661,-6.048 46.998,-6.048C46.335,-6.048 45.822,-5.822 45.458,-5.369C45.094,-4.916 44.912,-4.275 44.912,-3.444C44.912,-2.604 45.092,-1.96 45.451,-1.512C45.81,-1.064 46.326,-0.84 46.998,-0.84C47.67,-0.84 48.186,-1.062 48.545,-1.505Z" style="fill-rule:nonzero;"/>
                <path d="M52.101,-0.077C51.994,-0.175 51.94,-0.313 51.94,-0.49L51.94,-6.398C51.94,-6.575 51.994,-6.713 52.101,-6.811C52.208,-6.909 52.346,-6.958 52.514,-6.958C52.682,-6.958 52.817,-6.909 52.92,-6.811C53.023,-6.713 53.074,-6.575 53.074,-6.398L53.074,-0.49C53.074,-0.303 53.023,-0.163 52.92,-0.07C52.817,0.023 52.682,0.07 52.514,0.07C52.346,0.07 52.208,0.021 52.101,-0.077ZM51.968,-8.624C51.828,-8.755 51.758,-8.927 51.758,-9.142C51.758,-9.347 51.828,-9.515 51.968,-9.646C52.108,-9.777 52.29,-9.842 52.514,-9.842C52.738,-9.842 52.92,-9.777 53.06,-9.646C53.2,-9.515 53.27,-9.347 53.27,-9.142C53.27,-8.927 53.2,-8.755 53.06,-8.624C52.92,-8.493 52.738,-8.428 52.514,-8.428C52.29,-8.428 52.108,-8.493 51.968,-8.624Z" style="fill-rule:nonzero;"/>
                <path d="M61.068,-4.284L61.068,-0.49C61.068,-0.313 61.019,-0.175 60.921,-0.077C60.823,0.021 60.685,0.07 60.508,0.07C60.331,0.07 60.191,0.021 60.088,-0.077C59.985,-0.175 59.934,-0.313 59.934,-0.49L59.934,-4.214C59.934,-4.849 59.81,-5.311 59.563,-5.6C59.316,-5.889 58.921,-6.034 58.38,-6.034C57.755,-6.034 57.255,-5.843 56.882,-5.46C56.509,-5.077 56.322,-4.559 56.322,-3.906L56.322,-0.49C56.322,-0.313 56.273,-0.175 56.175,-0.077C56.077,0.021 55.939,0.07 55.762,0.07C55.585,0.07 55.445,0.021 55.342,-0.077C55.239,-0.175 55.188,-0.313 55.188,-0.49L55.188,-6.398C55.188,-6.566 55.239,-6.701 55.342,-6.804C55.445,-6.907 55.585,-6.958 55.762,-6.958C55.93,-6.958 56.063,-6.907 56.161,-6.804C56.259,-6.701 56.308,-6.571 56.308,-6.412L56.308,-5.698C56.532,-6.118 56.845,-6.438 57.246,-6.657C57.647,-6.876 58.105,-6.986 58.618,-6.986C60.251,-6.986 61.068,-6.085 61.068,-4.284Z" style="fill-rule:nonzero;"/>
                <path d="M66.78,-0.378C66.78,-0.219 66.722,-0.1 66.605,-0.021C66.488,0.058 66.313,0.089 66.08,0.07L65.702,0.042C64.955,-0.014 64.405,-0.238 64.05,-0.63C63.695,-1.022 63.518,-1.615 63.518,-2.408L63.518,-5.922L62.58,-5.922C62.421,-5.922 62.298,-5.962 62.209,-6.041C62.12,-6.12 62.076,-6.225 62.076,-6.356C62.076,-6.496 62.12,-6.608 62.209,-6.692C62.298,-6.776 62.421,-6.818 62.58,-6.818L63.518,-6.818L63.518,-8.4C63.518,-8.577 63.569,-8.715 63.672,-8.813C63.775,-8.911 63.915,-8.96 64.092,-8.96C64.26,-8.96 64.395,-8.911 64.498,-8.813C64.601,-8.715 64.652,-8.577 64.652,-8.4L64.652,-6.818L66.206,-6.818C66.355,-6.818 66.474,-6.776 66.563,-6.692C66.652,-6.608 66.696,-6.496 66.696,-6.356C66.696,-6.225 66.652,-6.12 66.563,-6.041C66.474,-5.962 66.355,-5.922 66.206,-5.922L64.652,-5.922L64.652,-2.352C64.652,-1.839 64.757,-1.468 64.967,-1.239C65.177,-1.01 65.492,-0.882 65.912,-0.854L66.29,-0.826C66.617,-0.798 66.78,-0.649 66.78,-0.378Z" style="fill-rule:nonzero;"/>
                <path d="M80.234,-0.42C80.234,-0.28 80.18,-0.163 80.073,-0.07C79.966,0.023 79.837,0.07 79.688,0.07C79.455,0.07 79.291,-0.042 79.198,-0.266L78.204,-2.534L72.926,-2.534L71.918,-0.266C71.825,-0.042 71.661,0.07 71.428,0.07C71.279,0.07 71.148,0.021 71.036,-0.077C70.924,-0.175 70.868,-0.294 70.868,-0.434C70.868,-0.509 70.887,-0.583 70.924,-0.658L74.928,-9.562C74.984,-9.693 75.068,-9.791 75.18,-9.856C75.292,-9.921 75.413,-9.954 75.544,-9.954C75.684,-9.954 75.81,-9.919 75.922,-9.849C76.034,-9.779 76.118,-9.683 76.174,-9.562L80.178,-0.658C80.215,-0.583 80.234,-0.504 80.234,-0.42ZM73.346,-3.486L77.784,-3.486L75.558,-8.512L73.346,-3.486Z" style="fill-rule:nonzero;"/>
                <path d="M83.286,-0.497C82.605,-0.903 82.08,-1.486 81.711,-2.247C81.342,-3.008 81.158,-3.906 81.158,-4.942C81.158,-5.969 81.342,-6.862 81.711,-7.623C82.08,-8.384 82.605,-8.967 83.286,-9.373C83.967,-9.779 84.775,-9.982 85.708,-9.982C86.333,-9.982 86.924,-9.882 87.479,-9.681C88.034,-9.48 88.517,-9.193 88.928,-8.82C89.077,-8.68 89.152,-8.517 89.152,-8.33C89.152,-8.199 89.115,-8.085 89.04,-7.987C88.965,-7.889 88.877,-7.84 88.774,-7.84C88.662,-7.84 88.527,-7.891 88.368,-7.994C87.892,-8.367 87.46,-8.629 87.073,-8.778C86.686,-8.927 86.24,-9.002 85.736,-9.002C84.653,-9.002 83.82,-8.65 83.237,-7.945C82.654,-7.24 82.362,-6.239 82.362,-4.942C82.362,-3.635 82.654,-2.63 83.237,-1.925C83.82,-1.22 84.653,-0.868 85.736,-0.868C86.231,-0.868 86.674,-0.943 87.066,-1.092C87.458,-1.241 87.892,-1.503 88.368,-1.876C88.527,-1.979 88.662,-2.03 88.774,-2.03C88.877,-2.03 88.965,-1.983 89.04,-1.89C89.115,-1.797 89.152,-1.68 89.152,-1.54C89.152,-1.353 89.077,-1.19 88.928,-1.05C88.517,-0.677 88.034,-0.39 87.479,-0.189C86.924,0.012 86.333,0.112 85.708,0.112C84.775,0.112 83.967,-0.091 83.286,-0.497Z" style="fill-rule:nonzero;"/>
                <path d="M96.236,-1.456C96.311,-1.372 96.348,-1.265 96.348,-1.134C96.348,-0.901 96.185,-0.686 95.858,-0.49C95.522,-0.294 95.167,-0.147 94.794,-0.049C94.421,0.049 94.057,0.098 93.702,0.098C92.647,0.098 91.814,-0.215 91.203,-0.84C90.592,-1.465 90.286,-2.329 90.286,-3.43C90.286,-4.13 90.421,-4.748 90.692,-5.285C90.963,-5.822 91.343,-6.239 91.833,-6.538C92.323,-6.837 92.881,-6.986 93.506,-6.986C94.393,-6.986 95.097,-6.697 95.62,-6.118C96.143,-5.539 96.404,-4.755 96.404,-3.766C96.404,-3.579 96.367,-3.444 96.292,-3.36C96.217,-3.276 96.096,-3.234 95.928,-3.234L91.42,-3.234C91.504,-1.629 92.265,-0.826 93.702,-0.826C94.066,-0.826 94.379,-0.875 94.64,-0.973C94.901,-1.071 95.181,-1.204 95.48,-1.372C95.723,-1.512 95.886,-1.582 95.97,-1.582C96.073,-1.582 96.161,-1.54 96.236,-1.456ZM92.085,-5.544C91.726,-5.171 91.513,-4.643 91.448,-3.962L95.41,-3.962C95.391,-4.653 95.219,-5.182 94.892,-5.551C94.565,-5.92 94.108,-6.104 93.52,-6.104C92.923,-6.104 92.444,-5.917 92.085,-5.544Z" style="fill-rule:nonzero;"/>
            </g>
        </g>
    </g>
</svg>
