<?xml version="1.0" encoding="UTF-8" standalone="no"?>
<svg width="44px" height="43px" viewBox="0 0 44 43" version="1.1" xmlns="http://www.w3.org/2000/svg" xmlns:xlink="http://www.w3.org/1999/xlink">
    <!-- Generator: Sketch 50.2 (55047) - http://www.bohemiancoding.com/sketch -->
    <title>User_Guest_Wireless</title>
    <desc>Created with Sketch.</desc>
    <defs></defs>
    <g id="Page-1" stroke="none" stroke-width="1" fill="none" fill-rule="evenodd">
        <g id="User_Guest_Wireless">
            <path d="M33.1699605,28.1848739 C33.1699605,28.1848739 33.1123097,30.3053061 31.2089621,30.3053061 L27.6363636,30.3053061 C28.1831721,31.1150363 28.6504924,31.976951 29.0278427,32.8823529 L32.7445679,32.8823529 C33.8591488,32.8823529 34.9090909,31.8290948 34.9090909,30.6714676 C34.9090909,29.2946653 33.1699605,28.1848739 33.1699605,28.1848739" id="Fill-18" fill="#646566"></path>
            <path d="M38.6857253,0 L14.7697098,0 C11.835917,0 9.45454545,2.52814164 9.45454545,5.27527704 L9.45454545,8.0912895 C10.2871804,7.66831366 11.1767476,7.34247214 12.1125724,7.13495789 L12.1125724,6.51241516 C12.1125724,3.87477664 13.4406963,2.61821165 16.0978337,2.61821165 L37.3567118,2.61821165 C40.0138492,2.61821165 41.3428626,3.87477664 41.3428626,6.51241516 L41.3428626,19.7836134 C41.3428626,22.421252 40.0138492,23.7405127 37.3567118,23.7405127 L24.243601,23.7405127 C23.8308418,24.4292834 23.3522546,25.0809665 22.7980542,25.6717198 C23.178789,25.8907135 23.5444011,26.1300172 23.9020071,26.3781513 L38.6857253,26.3781513 C41.6204076,26.3781513 44,24.016021 44,21.1028742 L44,5.27527704 C44,2.36213024 41.6204076,0 38.6857253,0" id="Fill-20" fill="#646566"></path>
            <path d="M25.9646064,38.0004678 C23.190587,39.7034992 16.7960708,39.9743364 14.5723954,39.943659 L14.5492043,39.943659 L14.5269051,39.943659 C12.3032297,39.9734599 5.91584926,39.6684393 3.10882702,37.951384 C3.5066446,32.2191012 8.42317036,27.8962238 14.5447444,27.8962238 C20.6716703,27.8962238 25.5881961,32.2226072 25.9815538,37.9592725 C25.9833377,37.9776789 25.9735261,37.9952088 25.9646064,38.0004678 M14.5447444,11.3655124 C18.3257954,11.3655124 21.4004079,14.38767 21.4004079,18.1022593 C21.4004079,21.8168487 18.3257954,24.8390063 14.5447444,24.8390063 C10.7645855,24.8390063 7.68997294,21.8168487 7.68997294,18.1022593 C7.68997294,14.38767 10.7645855,11.3655124 14.5447444,11.3655124 M20.4406507,25.9898453 C22.9060493,24.2052998 24.5089152,21.334776 24.5089152,18.1022593 C24.5089152,12.703045 20.0392652,8.31092437 14.5447444,8.31092437 C9.05111559,8.31092437 4.58146563,12.703045 4.58146563,18.1022593 C4.58146563,21.334776 6.18433152,24.2061763 8.65062211,25.9898453 C3.80634573,27.9794909 0.380297939,32.3786235 0.00745545542,37.742778 C-0.0728216343,38.8997525 0.499821605,39.9918663 1.50150129,40.5948954 C5.55727826,43.0341833 13.9364225,43.0078885 14.5402846,42.998247 C14.5946946,42.9991235 14.7106504,43 14.8801243,43 C16.6105415,43 23.9148647,42.8615137 27.6120707,40.5913894 C28.597695,39.9857308 29.1614185,38.898876 29.0838173,37.7550489 L29.0838173,37.7541724 C28.7154347,32.3838825 25.287603,27.9803674 20.4406507,25.9898453" id="Fill-22" fill="#015E85"></path>
        </g>
    </g>
</svg>