<?xml version="1.0" encoding="UTF-8" standalone="no"?>
<svg width="248px" height="60px" viewBox="0 0 248 60" version="1.1" xmlns="http://www.w3.org/2000/svg" xmlns:xlink="http://www.w3.org/1999/xlink">
    <!-- Generator: Sketch 50.2 (55047) - http://www.bohemiancoding.com/sketch -->
    <title>Group 111</title>
    <desc>Created with Sketch.</desc>
    <defs></defs>
    <g id="Page-1" stroke="none" stroke-width="1" fill="none" fill-rule="evenodd">
        <g id="Group-111" fill="#636569">
            <path d="M242.637659,51.2941797 C237.948183,54.2465018 227.138264,54.7160167 223.379144,54.6628354 L223.33994,54.661316 L223.302243,54.661316 C219.543123,54.7144973 208.745267,54.1857232 204,51.2090896 C204.67251,41.2717832 212.983889,33.7777778 223.3324,33.7777778 C233.689959,33.7777778 242.001338,41.277861 242.666308,51.2227648 C242.669324,51.2546736 242.652738,51.2850629 242.637659,51.2941797 M223.110359,5.33333333 C229.48392,5.33333333 234.666667,10.5172464 234.666667,16.8888889 C234.666667,23.2605314 229.48392,28.4444444 223.110359,28.4444444 C216.738302,28.4444444 211.555556,23.2605314 211.555556,16.8888889 C211.555556,10.5172464 216.738302,5.33333333 223.110359,5.33333333 M233.330603,30.5783662 C237.511509,27.491725 240.229702,22.5267201 240.229702,16.9355939 C240.229702,7.59683655 232.649921,0 223.332129,0 C214.01585,0 206.436069,7.59683655 206.436069,16.9355939 C206.436069,22.5267201 209.154262,27.493241 213.33668,30.5783662 C205.121595,34.021275 199.311589,41.6287238 198.67931,50.9068398 C198.543173,52.9080021 199.514281,54.796978 201.212963,55.8400081 C208.090884,60.0591252 222.300516,60.0136443 223.324566,59.9969679 C223.416836,59.998484 223.613478,60 223.900877,60 C226.835377,60 239.222291,59.7604669 245.492137,55.833944 C247.163591,54.7863658 248.119572,52.9064861 247.987974,50.9280643 L247.987974,50.9265482 C247.363258,41.6378199 241.550227,34.021275 233.330603,30.5783662" id="Fill-16"></path>
            <path d="M94.6376589,51.2941797 C89.9481834,54.2465018 79.138264,54.7160167 75.3791443,54.6628354 L75.3399396,54.661316 L75.3022429,54.661316 C71.5431232,54.7144973 60.7452666,54.1857232 56,51.2090896 C56.67251,41.2717832 64.983889,33.7777778 75.3324003,33.7777778 C85.6899588,33.7777778 94.0013378,41.277861 94.6663084,51.2227648 C94.6693242,51.2546736 94.6527376,51.2850629 94.6376589,51.2941797 M75.1103593,5.33333333 C81.4839199,5.33333333 86.6666667,10.5172464 86.6666667,16.8888889 C86.6666667,23.2605314 81.4839199,28.4444444 75.1103593,28.4444444 C68.7383023,28.4444444 63.5555556,23.2605314 63.5555556,16.8888889 C63.5555556,10.5172464 68.7383023,5.33333333 75.1103593,5.33333333 M85.3306035,30.5783662 C89.5115086,27.491725 92.229702,22.5267201 92.229702,16.9355939 C92.229702,7.59683655 84.6499206,0 75.3321291,0 C66.0158502,0 58.4360688,7.59683655 58.4360688,16.9355939 C58.4360688,22.5267201 61.1542622,27.493241 65.33668,30.5783662 C57.1215946,34.021275 51.3115886,41.6287238 50.6793099,50.9068398 C50.5431733,52.9080021 51.5142808,54.796978 53.2129626,55.8400081 C60.0908844,60.0591252 74.3005165,60.0136443 75.324566,59.9969679 C75.4168363,59.998484 75.613478,60 75.9008774,60 C78.8353767,60 91.2222914,59.7604669 97.4921366,55.833944 C99.163591,54.7863658 100.119572,52.9064861 99.9879736,50.9280643 L99.9879736,50.9265482 C99.363258,41.6378199 93.5502267,34.021275 85.3306035,30.5783662" id="Fill-16"></path>
            <path d="M143.637659,51.2941797 C138.948183,54.2465018 128.138264,54.7160167 124.379144,54.6628354 L124.33994,54.661316 L124.302243,54.661316 C120.543123,54.7144973 109.745267,54.1857232 105,51.2090896 C105.67251,41.2717832 113.983889,33.7777778 124.3324,33.7777778 C134.689959,33.7777778 143.001338,41.277861 143.666308,51.2227648 C143.669324,51.2546736 143.652738,51.2850629 143.637659,51.2941797 M124.110359,5.33333333 C130.48392,5.33333333 135.666667,10.5172464 135.666667,16.8888889 C135.666667,23.2605314 130.48392,28.4444444 124.110359,28.4444444 C117.738302,28.4444444 112.555556,23.2605314 112.555556,16.8888889 C112.555556,10.5172464 117.738302,5.33333333 124.110359,5.33333333 M134.330603,30.5783662 C138.511509,27.491725 141.229702,22.5267201 141.229702,16.9355939 C141.229702,7.59683655 133.649921,0 124.332129,0 C115.01585,0 107.436069,7.59683655 107.436069,16.9355939 C107.436069,22.5267201 110.154262,27.493241 114.33668,30.5783662 C106.121595,34.021275 100.311589,41.6287238 99.6793099,50.9068398 C99.5431733,52.9080021 100.514281,54.796978 102.212963,55.8400081 C109.090884,60.0591252 123.300516,60.0136443 124.324566,59.9969679 C124.416836,59.998484 124.613478,60 124.900877,60 C127.835377,60 140.222291,59.7604669 146.492137,55.833944 C148.163591,54.7863658 149.119572,52.9064861 148.987974,50.9280643 L148.987974,50.9265482 C148.363258,41.6378199 142.550227,34.021275 134.330603,30.5783662" id="Fill-16"></path>
            <path d="M193.637659,51.2941797 C188.948183,54.2465018 178.138264,54.7160167 174.379144,54.6628354 L174.33994,54.661316 L174.302243,54.661316 C170.543123,54.7144973 159.745267,54.1857232 155,51.2090896 C155.67251,41.2717832 163.983889,33.7777778 174.3324,33.7777778 C184.689959,33.7777778 193.001338,41.277861 193.666308,51.2227648 C193.669324,51.2546736 193.652738,51.2850629 193.637659,51.2941797 M174.110359,5.33333333 C180.48392,5.33333333 185.666667,10.5172464 185.666667,16.8888889 C185.666667,23.2605314 180.48392,28.4444444 174.110359,28.4444444 C167.738302,28.4444444 162.555556,23.2605314 162.555556,16.8888889 C162.555556,10.5172464 167.738302,5.33333333 174.110359,5.33333333 M184.330603,30.5783662 C188.511509,27.491725 191.229702,22.5267201 191.229702,16.9355939 C191.229702,7.59683655 183.649921,0 174.332129,0 C165.01585,0 157.436069,7.59683655 157.436069,16.9355939 C157.436069,22.5267201 160.154262,27.493241 164.33668,30.5783662 C156.121595,34.021275 150.311589,41.6287238 149.67931,50.9068398 C149.543173,52.9080021 150.514281,54.796978 152.212963,55.8400081 C159.090884,60.0591252 173.300516,60.0136443 174.324566,59.9969679 C174.416836,59.998484 174.613478,60 174.900877,60 C177.835377,60 190.222291,59.7604669 196.492137,55.833944 C198.163591,54.7863658 199.119572,52.9064861 198.987974,50.9280643 L198.987974,50.9265482 C198.363258,41.6378199 192.550227,34.021275 184.330603,30.5783662" id="Fill-16"></path>
            <path d="M44.6376589,51.2941797 C39.9481834,54.2465018 29.138264,54.7160167 25.3791443,54.6628354 L25.3399396,54.661316 L25.3022429,54.661316 C21.5431232,54.7144973 10.7452666,54.1857232 6,51.2090896 C6.67250999,41.2717832 14.983889,33.7777778 25.3324003,33.7777778 C35.6899588,33.7777778 44.0013378,41.277861 44.6663084,51.2227648 C44.6693242,51.2546736 44.6527376,51.2850629 44.6376589,51.2941797 M25.1103593,5.33333333 C31.4839199,5.33333333 36.6666667,10.5172464 36.6666667,16.8888889 C36.6666667,23.2605314 31.4839199,28.4444444 25.1103593,28.4444444 C18.7383023,28.4444444 13.5555556,23.2605314 13.5555556,16.8888889 C13.5555556,10.5172464 18.7383023,5.33333333 25.1103593,5.33333333 M35.3306035,30.5783662 C39.5115086,27.491725 42.229702,22.5267201 42.229702,16.9355939 C42.229702,7.59683655 34.6499206,0 25.3321291,0 C16.0158502,0 8.4360688,7.59683655 8.4360688,16.9355939 C8.4360688,22.5267201 11.1542622,27.493241 15.33668,30.5783662 C7.12159464,34.021275 1.31158859,41.6287238 0.679309876,50.9068398 C0.543173312,52.9080021 1.51428081,54.796978 3.21296261,55.8400081 C10.0908844,60.0591252 24.3005165,60.0136443 25.324566,59.9969679 C25.4168363,59.998484 25.613478,60 25.9008774,60 C28.8353767,60 41.2222914,59.7604669 47.4921366,55.833944 C49.163591,54.7863658 50.1195723,52.9064861 49.9879736,50.9280643 L49.9879736,50.9265482 C49.363258,41.6378199 43.5502267,34.021275 35.3306035,30.5783662" id="Fill-16"></path>
        </g>
    </g>
</svg>