<?xml version="1.0" encoding="UTF-8" standalone="no"?>
<svg width="425px" height="254px" viewBox="0 0 425 254" version="1.1" xmlns="http://www.w3.org/2000/svg" xmlns:xlink="http://www.w3.org/1999/xlink">
    <!-- Generator: Sketch 50.2 (55047) - http://www.bohemiancoding.com/sketch -->
    <title>line_dash2</title>
    <desc>Created with Sketch.</desc>
    <defs></defs>
    <g id="Page-1" stroke="none" stroke-width="1" fill="none" fill-rule="evenodd">
        <path d="M6.09444358,224.228758 C6.03310761,224.036709 6,223.832049 6,223.619655 L6,222.619655 C6,221.515086 6.8954305,220.619655 8,220.619655 C9.1045695,220.619655 10,221.515086 10,222.619655 L10,223.619655 C10,223.832049 9.96689239,224.036709 9.90555642,224.228758 L15.1162791,224.228758 L8,251.771242 L0.88372093,224.228758 L6.09444358,224.228758 Z M216.647371,224.245098 C216.94528,223.514738 217.662528,223 218.5,223 C219.337472,223 220.05472,223.514738 220.352629,224.245098 L225.616279,224.245098 L218.5,253.754902 L211.383721,224.245098 L216.647371,224.245098 Z M417.5,253.754902 L410.383721,224.245098 L424.616279,224.245098 L417.5,253.754902 Z M216.5,193 C216.5,191.895431 217.395431,191 218.5,191 C219.604569,191 220.5,191.895431 220.5,193 L220.5,195 C220.5,196.104569 219.604569,197 218.5,197 C217.395431,197 216.5,196.104569 216.5,195 L216.5,193 Z M216.5,209 C216.5,207.895431 217.395431,207 218.5,207 C219.604569,207 220.5,207.895431 220.5,209 L220.5,211 C220.5,212.104569 219.604569,213 218.5,213 C217.395431,213 216.5,212.104569 216.5,211 L216.5,209 Z M10,208.619655 C10,209.724225 9.1045695,210.619655 8,210.619655 C6.8954305,210.619655 6,209.724225 6,208.619655 L6,207.619655 C6,206.515086 6.8954305,205.619655 8,205.619655 C9.1045695,205.619655 10,206.515086 10,207.619655 L10,208.619655 Z M10,193.619655 C10,194.724225 9.1045695,195.619655 8,195.619655 C6.8954305,195.619655 6,194.724225 6,193.619655 L6,192.619655 C6,191.515086 6.8954305,190.619655 8,190.619655 C9.1045695,190.619655 10,191.515086 10,192.619655 L10,193.619655 Z M10,178.619655 C10,179.724225 9.1045695,180.619655 8,180.619655 C6.8954305,180.619655 6,179.724225 6,178.619655 L6,177.619655 C6,176.515086 6.8954305,175.619655 8,175.619655 C9.1045695,175.619655 10,176.515086 10,177.619655 L10,178.619655 Z M10,163.619655 C10,164.724225 9.1045695,165.619655 8,165.619655 C6.8954305,165.619655 6,164.724225 6,163.619655 L6,162.619655 C6,161.515086 6.8954305,160.619655 8,160.619655 C9.1045695,160.619655 10,161.515086 10,162.619655 L10,163.619655 Z M10,148.619655 C10,149.724225 9.1045695,150.619655 8,150.619655 C6.8954305,150.619655 6,149.724225 6,148.619655 L6,147.619655 C6,146.515086 6.8954305,145.619655 8,145.619655 C9.1045695,145.619655 10,146.515086 10,147.619655 L10,148.619655 Z M10,133.619655 C10,134.724225 9.1045695,135.619655 8,135.619655 C6.8954305,135.619655 6,134.724225 6,133.619655 L6,132.619655 C6,131.515086 6.8954305,130.619655 8,130.619655 C9.1045695,130.619655 10,131.515086 10,132.619655 L10,133.619655 Z M10,118.619655 C10,119.724225 9.1045695,120.619655 8,120.619655 C6.8954305,120.619655 6,119.724225 6,118.619655 L6,117.619655 C6,116.515086 6.8954305,115.619655 8,115.619655 C9.1045695,115.619655 10,116.515086 10,117.619655 L10,118.619655 Z M10,103.619655 C10,104.724225 9.1045695,105.619655 8,105.619655 C6.8954305,105.619655 6,104.724225 6,103.619655 L6,102.619655 C6,101.515086 6.8954305,100.619655 8,100.619655 C9.1045695,100.619655 10,101.515086 10,102.619655 L10,103.619655 Z M10,88.6196553 C10,89.7242248 9.1045695,90.6196553 8,90.6196553 C6.8954305,90.6196553 6,89.7242248 6,88.6196553 L6,87.6196553 C6,86.5150858 6.8954305,85.6196553 8,85.6196553 C9.1045695,85.6196553 10,86.5150858 10,87.6196553 L10,88.6196553 Z M10,73.6196553 C10,74.7242248 9.1045695,75.6196553 8,75.6196553 C6.8954305,75.6196553 6,74.7242248 6,73.6196553 L6,72.6196553 C6,71.5150858 6.8954305,70.6196553 8,70.6196553 C9.1045695,70.6196553 10,71.5150858 10,72.6196553 L10,73.6196553 Z M10,58.6196553 C10,59.7242248 9.1045695,60.6196553 8,60.6196553 C6.8954305,60.6196553 6,59.7242248 6,58.6196553 L6,57.6196553 C6,56.5150858 6.8954305,55.6196553 8,55.6196553 C9.1045695,55.6196553 10,56.5150858 10,57.6196553 L10,58.6196553 Z M10,43.6196553 C10,44.7242248 9.1045695,45.6196553 8,45.6196553 C6.8954305,45.6196553 6,44.7242248 6,43.6196553 L6,42.6196553 C6,41.5150858 6.8954305,40.6196553 8,40.6196553 C9.1045695,40.6196553 10,41.5150858 10,42.6196553 L10,43.6196553 Z M10,28.6196553 C10,29.7242248 9.1045695,30.6196553 8,30.6196553 C6.8954305,30.6196553 6,29.7242248 6,28.6196553 L6,27.6196553 C6,26.5150858 6.8954305,25.6196553 8,25.6196553 C9.1045695,25.6196553 10,26.5150858 10,27.6196553 L10,28.6196553 Z M10.0049416,13.6819884 C9.97057677,14.7860232 9.04772152,15.653162 7.94368672,15.6187972 C6.83965192,15.5844324 5.97251309,14.6615771 6.00687793,13.5575423 C6.01900694,13.1678752 6.04715433,12.7802691 6.09113502,12.395433 C6.21655348,11.2980069 7.20786484,10.5100391 8.30529092,10.6354575 C9.40271699,10.760876 10.1906848,11.7521873 10.0652664,12.8496134 C10.0337981,13.1249649 10.0136391,13.402566 10.0049416,13.6819884 Z M17.198876,4.39707838 C16.1383285,4.70580599 15.0283117,4.09633553 14.7195841,3.03578801 C14.4108565,1.97524048 15.020327,0.865223674 16.0808745,0.556496066 C16.4541883,0.447823623 16.8324258,0.354701496 17.2147881,0.277454756 C18.2974839,0.0587231428 19.3524993,0.759104524 19.5712309,1.84180035 C19.7899625,2.92449618 19.0895811,3.97951158 18.0068853,4.19824319 C17.7343518,4.25330176 17.4648419,4.31965515 17.198876,4.39707838 Z M31.6493622,4 C30.5447927,4 29.6493622,3.1045695 29.6493622,2 C29.6493622,0.8954305 30.5447927,0 31.6493622,0 L32.6493622,0 C33.7539317,0 34.6493622,0.8954305 34.6493622,2 C34.6493622,3.1045695 33.7539317,4 32.6493622,4 L31.6493622,4 Z M46.6493622,4 C45.5447927,4 44.6493622,3.1045695 44.6493622,2 C44.6493622,0.8954305 45.5447927,0 46.6493622,0 L47.6493622,0 C48.7539317,0 49.6493622,0.8954305 49.6493622,2 C49.6493622,3.1045695 48.7539317,4 47.6493622,4 L46.6493622,4 Z M61.6493622,4 C60.5447927,4 59.6493622,3.1045695 59.6493622,2 C59.6493622,0.8954305 60.5447927,0 61.6493622,0 L62.6493622,0 C63.7539317,0 64.6493622,0.8954305 64.6493622,2 C64.6493622,3.1045695 63.7539317,4 62.6493622,4 L61.6493622,4 Z M76.6493622,4 C75.5447927,4 74.6493622,3.1045695 74.6493622,2 C74.6493622,0.8954305 75.5447927,0 76.6493622,0 L77.6493622,0 C78.7539317,0 79.6493622,0.8954305 79.6493622,2 C79.6493622,3.1045695 78.7539317,4 77.6493622,4 L76.6493622,4 Z M91.6493622,4 C90.5447927,4 89.6493622,3.1045695 89.6493622,2 C89.6493622,0.8954305 90.5447927,0 91.6493622,0 L92.6493622,0 C93.7539317,0 94.6493622,0.8954305 94.6493622,2 C94.6493622,3.1045695 93.7539317,4 92.6493622,4 L91.6493622,4 Z M106.649362,4 C105.544793,4 104.649362,3.1045695 104.649362,2 C104.649362,0.8954305 105.544793,0 106.649362,0 L107.649362,0 C108.753932,0 109.649362,0.8954305 109.649362,2 C109.649362,3.1045695 108.753932,4 107.649362,4 L106.649362,4 Z M415.513067,215.666053 L415.513067,214.666053 C415.513067,213.561484 416.408498,212.666053 417.513067,212.666053 C418.617637,212.666053 419.513067,213.561484 419.513067,214.666053 L419.513067,215.666053 C419.513067,216.770623 418.617637,217.666053 417.513067,217.666053 C416.408498,217.666053 415.513067,216.770623 415.513067,215.666053 Z M415.513067,200.666053 L415.513067,199.666053 C415.513067,198.561484 416.408498,197.666053 417.513067,197.666053 C418.617637,197.666053 419.513067,198.561484 419.513067,199.666053 L419.513067,200.666053 C419.513067,201.770623 418.617637,202.666053 417.513067,202.666053 C416.408498,202.666053 415.513067,201.770623 415.513067,200.666053 Z M415.513067,185.666053 L415.513067,184.666053 C415.513067,183.561484 416.408498,182.666053 417.513067,182.666053 C418.617637,182.666053 419.513067,183.561484 419.513067,184.666053 L419.513067,185.666053 C419.513067,186.770623 418.617637,187.666053 417.513067,187.666053 C416.408498,187.666053 415.513067,186.770623 415.513067,185.666053 Z M415.513067,170.666053 L415.513067,169.666053 C415.513067,168.561484 416.408498,167.666053 417.513067,167.666053 C418.617637,167.666053 419.513067,168.561484 419.513067,169.666053 L419.513067,170.666053 C419.513067,171.770623 418.617637,172.666053 417.513067,172.666053 C416.408498,172.666053 415.513067,171.770623 415.513067,170.666053 Z M415.513067,155.666053 L415.513067,154.666053 C415.513067,153.561484 416.408498,152.666053 417.513067,152.666053 C418.617637,152.666053 419.513067,153.561484 419.513067,154.666053 L419.513067,155.666053 C419.513067,156.770623 418.617637,157.666053 417.513067,157.666053 C416.408498,157.666053 415.513067,156.770623 415.513067,155.666053 Z M415.513067,140.666053 L415.513067,139.666053 C415.513067,138.561484 416.408498,137.666053 417.513067,137.666053 C418.617637,137.666053 419.513067,138.561484 419.513067,139.666053 L419.513067,140.666053 C419.513067,141.770623 418.617637,142.666053 417.513067,142.666053 C416.408498,142.666053 415.513067,141.770623 415.513067,140.666053 Z M415.513067,125.666053 L415.513067,124.666053 C415.513067,123.561484 416.408498,122.666053 417.513067,122.666053 C418.617637,122.666053 419.513067,123.561484 419.513067,124.666053 L419.513067,125.666053 C419.513067,126.770623 418.617637,127.666053 417.513067,127.666053 C416.408498,127.666053 415.513067,126.770623 415.513067,125.666053 Z M415.513067,110.666053 L415.513067,109.666053 C415.513067,108.561484 416.408498,107.666053 417.513067,107.666053 C418.617637,107.666053 419.513067,108.561484 419.513067,109.666053 L419.513067,110.666053 C419.513067,111.770623 418.617637,112.666053 417.513067,112.666053 C416.408498,112.666053 415.513067,111.770623 415.513067,110.666053 Z M415.513067,95.6660535 L415.513067,94.6660535 C415.513067,93.561484 416.408498,92.6660535 417.513067,92.6660535 C418.617637,92.6660535 419.513067,93.561484 419.513067,94.6660535 L419.513067,95.6660535 C419.513067,96.770623 418.617637,97.6660535 417.513067,97.6660535 C416.408498,97.6660535 415.513067,96.770623 415.513067,95.6660535 Z M415.513067,80.6660535 L415.513067,79.6660535 C415.513067,78.561484 416.408498,77.6660535 417.513067,77.6660535 C418.617637,77.6660535 419.513067,78.561484 419.513067,79.6660535 L419.513067,80.6660535 C419.513067,81.770623 418.617637,82.6660535 417.513067,82.6660535 C416.408498,82.6660535 415.513067,81.770623 415.513067,80.6660535 Z M415.513067,65.6660535 L415.513067,64.6660535 C415.513067,63.561484 416.408498,62.6660535 417.513067,62.6660535 C418.617637,62.6660535 419.513067,63.561484 419.513067,64.6660535 L419.513067,65.6660535 C419.513067,66.770623 418.617637,67.6660535 417.513067,67.6660535 C416.408498,67.6660535 415.513067,66.770623 415.513067,65.6660535 Z M415.513067,50.6660535 L415.513067,49.6660535 C415.513067,48.561484 416.408498,47.6660535 417.513067,47.6660535 C418.617637,47.6660535 419.513067,48.561484 419.513067,49.6660535 L419.513067,50.6660535 C419.513067,51.770623 418.617637,52.6660535 417.513067,52.6660535 C416.408498,52.6660535 415.513067,51.770623 415.513067,50.6660535 Z M415.513067,35.6660535 L415.513067,34.6660535 C415.513067,33.561484 416.408498,32.6660535 417.513067,32.6660535 C418.617637,32.6660535 419.513067,33.561484 419.513067,34.6660535 L419.513067,35.6660535 C419.513067,36.770623 418.617637,37.6660535 417.513067,37.6660535 C416.408498,37.6660535 415.513067,36.770623 415.513067,35.6660535 Z M415.513067,20.6660535 L415.513067,19.6660535 C415.513067,18.561484 416.408498,17.6660535 417.513067,17.6660535 C418.617637,17.6660535 419.513067,18.561484 419.513067,19.6660535 L419.513067,20.6660535 C419.513067,21.770623 418.617637,22.6660535 417.513067,22.6660535 C416.408498,22.6660535 415.513067,21.770623 415.513067,20.6660535 Z M413.287217,7.5604233 C413.108863,7.34919395 412.921225,7.14520579 412.724853,6.94905744 C411.94336,6.16845366 411.942639,4.90212391 412.723242,4.12063078 C413.503846,3.33913764 414.770176,3.33841669 415.551669,4.11902047 C415.827928,4.39496456 416.092117,4.68217416 416.343461,4.97984685 C417.056067,5.82380523 416.949585,7.08565039 416.105627,7.7982569 C415.261669,8.51086341 413.999823,8.40438168 413.287217,7.5604233 Z M401,4 L400,4 C398.895431,4 398,3.1045695 398,2 C398,0.8954305 398.895431,0 400,0 L401,0 C402.104569,0 403,0.8954305 403,2 C403,3.1045695 402.104569,4 401,4 Z M386,4 L385,4 C383.895431,4 383,3.1045695 383,2 C383,0.8954305 383.895431,0 385,0 L386,0 C387.104569,0 388,0.8954305 388,2 C388,3.1045695 387.104569,4 386,4 Z M371,4 L370,4 C368.895431,4 368,3.1045695 368,2 C368,0.8954305 368.895431,0 370,0 L371,0 C372.104569,0 373,0.8954305 373,2 C373,3.1045695 372.104569,4 371,4 Z M356,4 L355,4 C353.895431,4 353,3.1045695 353,2 C353,0.8954305 353.895431,0 355,0 L356,0 C357.104569,0 358,0.8954305 358,2 C358,3.1045695 357.104569,4 356,4 Z M341,4 L340,4 C338.895431,4 338,3.1045695 338,2 C338,0.8954305 338.895431,0 340,0 L341,0 C342.104569,0 343,0.8954305 343,2 C343,3.1045695 342.104569,4 341,4 Z M326,4 L325,4 C323.895431,4 323,3.1045695 323,2 C323,0.8954305 323.895431,0 325,0 L326,0 C327.104569,0 328,0.8954305 328,2 C328,3.1045695 327.104569,4 326,4 Z" id="line_dash2" fill="#9B9B9B"></path>
    </g>
</svg>