<?xml version="1.0" encoding="UTF-8" standalone="no"?>
<svg width="414px" height="241px" viewBox="0 0 414 241" version="1.1" xmlns="http://www.w3.org/2000/svg" xmlns:xlink="http://www.w3.org/1999/xlink">
    <!-- Generator: Sketch 50.2 (55047) - http://www.bohemiancoding.com/sketch -->
    <title>line_dash1</title>
    <desc>Created with Sketch.</desc>
    <defs></defs>
    <g id="Page-1" stroke="none" stroke-width="1" fill="none" fill-rule="evenodd">
        <path d="M210.5,201 C210.5,199.895431 211.395431,199 212.5,199 C213.604569,199 214.5,199.895431 214.5,201 L214.5,203 C214.5,204.104569 213.604569,205 212.5,205 C211.395431,205 210.5,204.104569 210.5,203 L210.5,201 Z M210.5,217 C210.5,215.895431 211.395431,215 212.5,215 C213.604569,215 214.5,215.895431 214.5,217 L214.5,219 C214.5,220.104569 213.604569,221 212.5,221 C211.395431,221 210.5,220.104569 210.5,219 L210.5,217 Z M210.5,233 C210.5,231.895431 211.395431,231 212.5,231 C213.604569,231 214.5,231.895431 214.5,233 L214.5,233.770941 C214.5,234.875511 213.604569,235.770941 212.5,235.770941 C211.395431,235.770941 210.5,234.875511 210.5,233.770941 L210.5,233 Z M4,230.666053 C4,231.770623 3.1045695,232.666053 2,232.666053 C0.8954305,232.666053 0,231.770623 0,230.666053 L0,229.666053 C0,228.561484 0.8954305,227.666053 2,227.666053 C3.1045695,227.666053 4,228.561484 4,229.666053 L4,230.666053 Z M4,215.666053 C4,216.770623 3.1045695,217.666053 2,217.666053 C0.8954305,217.666053 0,216.770623 0,215.666053 L0,214.666053 C0,213.561484 0.8954305,212.666053 2,212.666053 C3.1045695,212.666053 4,213.561484 4,214.666053 L4,215.666053 Z M4,200.666053 C4,201.770623 3.1045695,202.666053 2,202.666053 C0.8954305,202.666053 0,201.770623 0,200.666053 L0,199.666053 C0,198.561484 0.8954305,197.666053 2,197.666053 C3.1045695,197.666053 4,198.561484 4,199.666053 L4,200.666053 Z M4,185.666053 C4,186.770623 3.1045695,187.666053 2,187.666053 C0.8954305,187.666053 0,186.770623 0,185.666053 L0,184.666053 C0,183.561484 0.8954305,182.666053 2,182.666053 C3.1045695,182.666053 4,183.561484 4,184.666053 L4,185.666053 Z M4,170.666053 C4,171.770623 3.1045695,172.666053 2,172.666053 C0.8954305,172.666053 0,171.770623 0,170.666053 L0,169.666053 C0,168.561484 0.8954305,167.666053 2,167.666053 C3.1045695,167.666053 4,168.561484 4,169.666053 L4,170.666053 Z M4,155.666053 C4,156.770623 3.1045695,157.666053 2,157.666053 C0.8954305,157.666053 0,156.770623 0,155.666053 L0,154.666053 C0,153.561484 0.8954305,152.666053 2,152.666053 C3.1045695,152.666053 4,153.561484 4,154.666053 L4,155.666053 Z M4,140.666053 C4,141.770623 3.1045695,142.666053 2,142.666053 C0.8954305,142.666053 0,141.770623 0,140.666053 L0,139.666053 C0,138.561484 0.8954305,137.666053 2,137.666053 C3.1045695,137.666053 4,138.561484 4,139.666053 L4,140.666053 Z M4,125.666053 C4,126.770623 3.1045695,127.666053 2,127.666053 C0.8954305,127.666053 0,126.770623 0,125.666053 L0,124.666053 C0,123.561484 0.8954305,122.666053 2,122.666053 C3.1045695,122.666053 4,123.561484 4,124.666053 L4,125.666053 Z M4,110.666053 C4,111.770623 3.1045695,112.666053 2,112.666053 C0.8954305,112.666053 0,111.770623 0,110.666053 L0,109.666053 C0,108.561484 0.8954305,107.666053 2,107.666053 C3.1045695,107.666053 4,108.561484 4,109.666053 L4,110.666053 Z M4,95.6660535 C4,96.770623 3.1045695,97.6660535 2,97.6660535 C0.8954305,97.6660535 0,96.770623 0,95.6660535 L0,94.6660535 C0,93.561484 0.8954305,92.6660535 2,92.6660535 C3.1045695,92.6660535 4,93.561484 4,94.6660535 L4,95.6660535 Z M4,80.6660535 C4,81.770623 3.1045695,82.6660535 2,82.6660535 C0.8954305,82.6660535 0,81.770623 0,80.6660535 L0,79.6660535 C0,78.561484 0.8954305,77.6660535 2,77.6660535 C3.1045695,77.6660535 4,78.561484 4,79.6660535 L4,80.6660535 Z M4,65.6660535 C4,66.770623 3.1045695,67.6660535 2,67.6660535 C0.8954305,67.6660535 0,66.770623 0,65.6660535 L0,64.6660535 C0,63.561484 0.8954305,62.6660535 2,62.6660535 C3.1045695,62.6660535 4,63.561484 4,64.6660535 L4,65.6660535 Z M4,50.6660535 C4,51.770623 3.1045695,52.6660535 2,52.6660535 C0.8954305,52.6660535 0,51.770623 0,50.6660535 L0,49.6660535 C0,48.561484 0.8954305,47.6660535 2,47.6660535 C3.1045695,47.6660535 4,48.561484 4,49.6660535 L4,50.6660535 Z M4,35.6660535 C4,36.770623 3.1045695,37.6660535 2,37.6660535 C0.8954305,37.6660535 0,36.770623 0,35.6660535 L0,34.6660535 C0,33.561484 0.8954305,32.6660535 2,32.6660535 C3.1045695,32.6660535 4,33.561484 4,34.6660535 L4,35.6660535 Z M4,20.6660535 C4,21.770623 3.1045695,22.6660535 2,22.6660535 C0.8954305,22.6660535 0,21.770623 0,20.6660535 L0,19.6660535 C0,18.561484 0.8954305,17.6660535 2,17.6660535 C3.1045695,17.6660535 4,18.561484 4,19.6660535 L4,20.6660535 Z M6.22585035,7.5604233 C5.51324384,8.40438168 4.25139868,8.51086341 3.4074403,7.7982569 C2.56348193,7.08565039 2.45700019,5.82380523 3.1696067,4.97984685 C3.42095026,4.68217416 3.68513966,4.39496456 3.96139814,4.11902047 C4.74289127,3.33841669 6.00922102,3.33913764 6.78982481,4.12063078 C7.57042859,4.90212391 7.56970763,6.16845366 6.7882145,6.94905744 C6.59184267,7.14520579 6.40420441,7.34919395 6.22585035,7.5604233 Z M18.5130672,4 C17.4084977,4 16.5130672,3.1045695 16.5130672,2 C16.5130672,0.8954305 17.4084977,0 18.5130672,0 L19.5130672,0 C20.6176367,0 21.5130672,0.8954305 21.5130672,2 C21.5130672,3.1045695 20.6176367,4 19.5130672,4 L18.5130672,4 Z M33.5130672,4 C32.4084977,4 31.5130672,3.1045695 31.5130672,2 C31.5130672,0.8954305 32.4084977,0 33.5130672,0 L34.5130672,0 C35.6176367,0 36.5130672,0.8954305 36.5130672,2 C36.5130672,3.1045695 35.6176367,4 34.5130672,4 L33.5130672,4 Z M48.5130672,4 C47.4084977,4 46.5130672,3.1045695 46.5130672,2 C46.5130672,0.8954305 47.4084977,0 48.5130672,0 L49.5130672,0 C50.6176367,0 51.5130672,0.8954305 51.5130672,2 C51.5130672,3.1045695 50.6176367,4 49.5130672,4 L48.5130672,4 Z M63.5130672,4 C62.4084977,4 61.5130672,3.1045695 61.5130672,2 C61.5130672,0.8954305 62.4084977,0 63.5130672,0 L64.5130672,0 C65.6176367,0 66.5130672,0.8954305 66.5130672,2 C66.5130672,3.1045695 65.6176367,4 64.5130672,4 L63.5130672,4 Z M78.5130672,4 C77.4084977,4 76.5130672,3.1045695 76.5130672,2 C76.5130672,0.8954305 77.4084977,0 78.5130672,0 L79.5130672,0 C80.6176367,0 81.5130672,0.8954305 81.5130672,2 C81.5130672,3.1045695 80.6176367,4 79.5130672,4 L78.5130672,4 Z M93.5130672,4 C92.4084977,4 91.5130672,3.1045695 91.5130672,2 C91.5130672,0.8954305 92.4084977,0 93.5130672,0 L94.5130672,0 C95.6176367,0 96.5130672,0.8954305 96.5130672,2 C96.5130672,3.1045695 95.6176367,4 94.5130672,4 L93.5130672,4 Z M409.649362,238.619655 L409.649362,237.619655 C409.649362,236.515086 410.544793,235.619655 411.649362,235.619655 C412.753932,235.619655 413.649362,236.515086 413.649362,237.619655 L413.649362,238.619655 C413.649362,239.724225 412.753932,240.619655 411.649362,240.619655 C410.544793,240.619655 409.649362,239.724225 409.649362,238.619655 Z M409.649362,223.619655 L409.649362,222.619655 C409.649362,221.515086 410.544793,220.619655 411.649362,220.619655 C412.753932,220.619655 413.649362,221.515086 413.649362,222.619655 L413.649362,223.619655 C413.649362,224.724225 412.753932,225.619655 411.649362,225.619655 C410.544793,225.619655 409.649362,224.724225 409.649362,223.619655 Z M409.649362,208.619655 L409.649362,207.619655 C409.649362,206.515086 410.544793,205.619655 411.649362,205.619655 C412.753932,205.619655 413.649362,206.515086 413.649362,207.619655 L413.649362,208.619655 C413.649362,209.724225 412.753932,210.619655 411.649362,210.619655 C410.544793,210.619655 409.649362,209.724225 409.649362,208.619655 Z M409.649362,193.619655 L409.649362,192.619655 C409.649362,191.515086 410.544793,190.619655 411.649362,190.619655 C412.753932,190.619655 413.649362,191.515086 413.649362,192.619655 L413.649362,193.619655 C413.649362,194.724225 412.753932,195.619655 411.649362,195.619655 C410.544793,195.619655 409.649362,194.724225 409.649362,193.619655 Z M409.649362,178.619655 L409.649362,177.619655 C409.649362,176.515086 410.544793,175.619655 411.649362,175.619655 C412.753932,175.619655 413.649362,176.515086 413.649362,177.619655 L413.649362,178.619655 C413.649362,179.724225 412.753932,180.619655 411.649362,180.619655 C410.544793,180.619655 409.649362,179.724225 409.649362,178.619655 Z M409.649362,163.619655 L409.649362,162.619655 C409.649362,161.515086 410.544793,160.619655 411.649362,160.619655 C412.753932,160.619655 413.649362,161.515086 413.649362,162.619655 L413.649362,163.619655 C413.649362,164.724225 412.753932,165.619655 411.649362,165.619655 C410.544793,165.619655 409.649362,164.724225 409.649362,163.619655 Z M409.649362,148.619655 L409.649362,147.619655 C409.649362,146.515086 410.544793,145.619655 411.649362,145.619655 C412.753932,145.619655 413.649362,146.515086 413.649362,147.619655 L413.649362,148.619655 C413.649362,149.724225 412.753932,150.619655 411.649362,150.619655 C410.544793,150.619655 409.649362,149.724225 409.649362,148.619655 Z M409.649362,133.619655 L409.649362,132.619655 C409.649362,131.515086 410.544793,130.619655 411.649362,130.619655 C412.753932,130.619655 413.649362,131.515086 413.649362,132.619655 L413.649362,133.619655 C413.649362,134.724225 412.753932,135.619655 411.649362,135.619655 C410.544793,135.619655 409.649362,134.724225 409.649362,133.619655 Z M409.649362,118.619655 L409.649362,117.619655 C409.649362,116.515086 410.544793,115.619655 411.649362,115.619655 C412.753932,115.619655 413.649362,116.515086 413.649362,117.619655 L413.649362,118.619655 C413.649362,119.724225 412.753932,120.619655 411.649362,120.619655 C410.544793,120.619655 409.649362,119.724225 409.649362,118.619655 Z M409.649362,103.619655 L409.649362,102.619655 C409.649362,101.515086 410.544793,100.619655 411.649362,100.619655 C412.753932,100.619655 413.649362,101.515086 413.649362,102.619655 L413.649362,103.619655 C413.649362,104.724225 412.753932,105.619655 411.649362,105.619655 C410.544793,105.619655 409.649362,104.724225 409.649362,103.619655 Z M409.649362,88.6196553 L409.649362,87.6196553 C409.649362,86.5150858 410.544793,85.6196553 411.649362,85.6196553 C412.753932,85.6196553 413.649362,86.5150858 413.649362,87.6196553 L413.649362,88.6196553 C413.649362,89.7242248 412.753932,90.6196553 411.649362,90.6196553 C410.544793,90.6196553 409.649362,89.7242248 409.649362,88.6196553 Z M409.649362,73.6196553 L409.649362,72.6196553 C409.649362,71.5150858 410.544793,70.6196553 411.649362,70.6196553 C412.753932,70.6196553 413.649362,71.5150858 413.649362,72.6196553 L413.649362,73.6196553 C413.649362,74.7242248 412.753932,75.6196553 411.649362,75.6196553 C410.544793,75.6196553 409.649362,74.7242248 409.649362,73.6196553 Z M409.649362,58.6196553 L409.649362,57.6196553 C409.649362,56.5150858 410.544793,55.6196553 411.649362,55.6196553 C412.753932,55.6196553 413.649362,56.5150858 413.649362,57.6196553 L413.649362,58.6196553 C413.649362,59.7242248 412.753932,60.6196553 411.649362,60.6196553 C410.544793,60.6196553 409.649362,59.7242248 409.649362,58.6196553 Z M409.649362,43.6196553 L409.649362,42.6196553 C409.649362,41.5150858 410.544793,40.6196553 411.649362,40.6196553 C412.753932,40.6196553 413.649362,41.5150858 413.649362,42.6196553 L413.649362,43.6196553 C413.649362,44.7242248 412.753932,45.6196553 411.649362,45.6196553 C410.544793,45.6196553 409.649362,44.7242248 409.649362,43.6196553 Z M409.649362,28.6196553 L409.649362,27.6196553 C409.649362,26.5150858 410.544793,25.6196553 411.649362,25.6196553 C412.753932,25.6196553 413.649362,26.5150858 413.649362,27.6196553 L413.649362,28.6196553 C413.649362,29.7242248 412.753932,30.6196553 411.649362,30.6196553 C410.544793,30.6196553 409.649362,29.7242248 409.649362,28.6196553 Z M409.644421,13.6819884 C409.635723,13.402566 409.615564,13.1249649 409.584096,12.8496134 C409.458677,11.7521873 410.246645,10.760876 411.344071,10.6354575 C412.441497,10.5100391 413.432809,11.2980069 413.558227,12.395433 C413.602208,12.7802691 413.630355,13.1678752 413.642484,13.5575423 C413.676849,14.6615771 412.80971,15.5844324 411.705675,15.6187972 C410.601641,15.653162 409.678785,14.7860232 409.644421,13.6819884 Z M402.450486,4.39707838 C402.18452,4.31965515 401.91501,4.25330176 401.642477,4.19824319 C400.559781,3.97951158 399.8594,2.92449618 400.078131,1.84180035 C400.296863,0.759104524 401.351878,0.0587231428 402.434574,0.277454756 C402.816936,0.354701496 403.195174,0.447823623 403.568488,0.556496066 C404.629035,0.865223674 405.238506,1.97524048 404.929778,3.03578801 C404.62105,4.09633553 403.511034,4.70580599 402.450486,4.39707838 Z M388,4 L387,4 C385.895431,4 385,3.1045695 385,2 C385,0.8954305 385.895431,0 387,0 L388,0 C389.104569,0 390,0.8954305 390,2 C390,3.1045695 389.104569,4 388,4 Z M373,4 L372,4 C370.895431,4 370,3.1045695 370,2 C370,0.8954305 370.895431,0 372,0 L373,0 C374.104569,0 375,0.8954305 375,2 C375,3.1045695 374.104569,4 373,4 Z M358,4 L357,4 C355.895431,4 355,3.1045695 355,2 C355,0.8954305 355.895431,0 357,0 L358,0 C359.104569,0 360,0.8954305 360,2 C360,3.1045695 359.104569,4 358,4 Z M343,4 L342,4 C340.895431,4 340,3.1045695 340,2 C340,0.8954305 340.895431,0 342,0 L343,0 C344.104569,0 345,0.8954305 345,2 C345,3.1045695 344.104569,4 343,4 Z M328,4 L327,4 C325.895431,4 325,3.1045695 325,2 C325,0.8954305 325.895431,0 327,0 L328,0 C329.104569,0 330,0.8954305 330,2 C330,3.1045695 329.104569,4 328,4 Z M313,4 L312,4 C310.895431,4 310,3.1045695 310,2 C310,0.8954305 310.895431,0 312,0 L313,0 C314.104569,0 315,0.8954305 315,2 C315,3.1045695 314.104569,4 313,4 Z" id="line_dash1" fill="#9B9B9B" fill-rule="nonzero"></path>
    </g>
</svg>