<?xml version="1.0" encoding="UTF-8" standalone="no"?><!DOCTYPE svg PUBLIC "-//W3C//DTD SVG 1.1//EN" "http://www.w3.org/Graphics/SVG/1.1/DTD/svg11.dtd"><svg width="100%" height="100%" viewBox="0 0 54 30" version="1.1" xmlns="http://www.w3.org/2000/svg" xmlns:xlink="http://www.w3.org/1999/xlink" xml:space="preserve" xmlns:serif="http://www.serif.com/" style="fill-rule:evenodd;clip-rule:evenodd;stroke-linejoin:round;stroke-miterlimit:1.41421;"><g transform="matrix(0.75,0,0,0.75,-370.5,-622.5)"><g transform="matrix(1,0,0,1,492.755,846.4)"><path d="M9.867,-9.196C10.608,-8.785 11.183,-8.206 11.594,-7.458C12.005,-6.71 12.21,-5.852 12.21,-4.884C12.21,-3.901 11.983,-3.029 11.528,-2.266C11.073,-1.503 10.439,-0.909 9.625,-0.484C8.811,-0.059 7.876,0.154 6.82,0.154C5.911,0.154 5.02,0 4.147,-0.308C3.274,-0.616 2.545,-1.041 1.958,-1.584C1.665,-1.833 1.518,-2.127 1.518,-2.464C1.518,-2.728 1.591,-2.952 1.738,-3.135C1.885,-3.318 2.061,-3.41 2.266,-3.41C2.398,-3.41 2.519,-3.388 2.629,-3.344C2.739,-3.3 2.867,-3.227 3.014,-3.124C3.615,-2.655 4.22,-2.299 4.829,-2.057C5.438,-1.815 6.079,-1.694 6.754,-1.694C7.781,-1.694 8.58,-1.969 9.152,-2.519C9.724,-3.069 10.01,-3.843 10.01,-4.84C10.01,-5.793 9.72,-6.556 9.141,-7.128C8.562,-7.7 7.788,-7.986 6.82,-7.986C6.189,-7.986 5.625,-7.88 5.126,-7.667C4.627,-7.454 4.158,-7.121 3.718,-6.666C3.498,-6.461 3.234,-6.358 2.926,-6.358C2.677,-6.358 2.468,-6.435 2.299,-6.589C2.13,-6.743 2.046,-6.945 2.046,-7.194L2.046,-14.432C2.046,-14.769 2.138,-15.033 2.321,-15.224C2.504,-15.415 2.772,-15.51 3.124,-15.51L10.692,-15.51C11.029,-15.51 11.293,-15.429 11.484,-15.268C11.675,-15.107 11.77,-14.887 11.77,-14.608C11.77,-14.315 11.675,-14.087 11.484,-13.926C11.293,-13.765 11.029,-13.684 10.692,-13.684L4.29,-13.684L4.29,-8.8C5.097,-9.475 6.101,-9.812 7.304,-9.812C8.272,-9.812 9.126,-9.607 9.867,-9.196Z" style="fill:rgb(74,74,74);fill-rule:nonzero;"/><path d="M29.667,-10.67C29.865,-10.479 29.964,-10.215 29.964,-9.878L29.964,-0.924C29.964,-0.616 29.861,-0.367 29.656,-0.176C29.451,0.015 29.179,0.11 28.842,0.11C28.534,0.11 28.285,0.018 28.094,-0.165C27.903,-0.348 27.808,-0.594 27.808,-0.902L27.808,-1.738C27.471,-1.122 27.005,-0.653 26.411,-0.33C25.817,-0.007 25.153,0.154 24.42,0.154C21.809,0.154 20.504,-1.283 20.504,-4.158L20.504,-9.878C20.504,-10.215 20.603,-10.479 20.801,-10.67C20.999,-10.861 21.274,-10.956 21.626,-10.956C21.963,-10.956 22.231,-10.861 22.429,-10.67C22.627,-10.479 22.726,-10.215 22.726,-9.878L22.726,-4.18C22.726,-3.315 22.902,-2.677 23.254,-2.266C23.606,-1.855 24.149,-1.65 24.882,-1.65C25.747,-1.65 26.44,-1.929 26.961,-2.486C27.482,-3.043 27.742,-3.784 27.742,-4.708L27.742,-9.878C27.742,-10.201 27.845,-10.461 28.05,-10.659C28.255,-10.857 28.527,-10.956 28.864,-10.956C29.201,-10.956 29.469,-10.861 29.667,-10.67Z" style="fill:rgb(74,74,74);fill-rule:nonzero;"/><path d="M33.132,-0.77C32.868,-0.931 32.681,-1.1 32.571,-1.276C32.461,-1.452 32.406,-1.65 32.406,-1.87C32.406,-2.105 32.472,-2.303 32.604,-2.464C32.736,-2.625 32.905,-2.706 33.11,-2.706C33.301,-2.706 33.601,-2.589 34.012,-2.354C34.452,-2.119 34.881,-1.929 35.299,-1.782C35.717,-1.635 36.241,-1.562 36.872,-1.562C37.576,-1.562 38.126,-1.687 38.522,-1.936C38.918,-2.185 39.116,-2.537 39.116,-2.992C39.116,-3.285 39.039,-3.52 38.885,-3.696C38.731,-3.872 38.463,-4.03 38.082,-4.169C37.701,-4.308 37.136,-4.459 36.388,-4.62C35.097,-4.899 34.17,-5.276 33.605,-5.753C33.04,-6.23 32.758,-6.879 32.758,-7.7C32.758,-8.331 32.941,-8.899 33.308,-9.405C33.675,-9.911 34.181,-10.303 34.826,-10.582C35.471,-10.861 36.205,-11 37.026,-11C37.613,-11 38.185,-10.923 38.742,-10.769C39.299,-10.615 39.791,-10.391 40.216,-10.098C40.7,-9.775 40.942,-9.401 40.942,-8.976C40.942,-8.741 40.872,-8.543 40.733,-8.382C40.594,-8.221 40.429,-8.14 40.238,-8.14C40.106,-8.14 39.974,-8.169 39.842,-8.228C39.71,-8.287 39.534,-8.382 39.314,-8.514C38.918,-8.749 38.548,-8.932 38.203,-9.064C37.858,-9.196 37.429,-9.262 36.916,-9.262C36.3,-9.262 35.805,-9.13 35.431,-8.866C35.057,-8.602 34.87,-8.243 34.87,-7.788C34.87,-7.377 35.042,-7.058 35.387,-6.831C35.732,-6.604 36.381,-6.387 37.334,-6.182C38.317,-5.977 39.087,-5.742 39.644,-5.478C40.201,-5.214 40.601,-4.888 40.843,-4.499C41.085,-4.11 41.206,-3.615 41.206,-3.014C41.206,-2.061 40.806,-1.294 40.007,-0.715C39.208,-0.136 38.141,0.154 36.806,0.154C35.31,0.154 34.085,-0.154 33.132,-0.77Z" style="fill:rgb(74,74,74);fill-rule:nonzero;"/><path d="M52.58,-2.464C52.712,-2.303 52.778,-2.097 52.778,-1.848C52.778,-1.423 52.514,-1.063 51.986,-0.77C51.473,-0.477 50.912,-0.249 50.303,-0.088C49.694,0.073 49.111,0.154 48.554,0.154C46.853,0.154 45.511,-0.341 44.528,-1.331C43.545,-2.321 43.054,-3.674 43.054,-5.39C43.054,-6.49 43.27,-7.465 43.703,-8.316C44.136,-9.167 44.744,-9.827 45.529,-10.296C46.314,-10.765 47.205,-11 48.202,-11C49.639,-11 50.776,-10.538 51.612,-9.614C52.448,-8.69 52.866,-7.443 52.866,-5.874C52.866,-5.287 52.602,-4.994 52.074,-4.994L45.276,-4.994C45.423,-2.721 46.515,-1.584 48.554,-1.584C49.097,-1.584 49.566,-1.657 49.962,-1.804C50.358,-1.951 50.776,-2.141 51.216,-2.376C51.26,-2.405 51.381,-2.468 51.579,-2.563C51.777,-2.658 51.942,-2.706 52.074,-2.706C52.279,-2.706 52.448,-2.625 52.58,-2.464ZM46.2,-8.558C45.687,-8.015 45.379,-7.253 45.276,-6.27L50.952,-6.27C50.908,-7.267 50.655,-8.034 50.193,-8.569C49.731,-9.104 49.082,-9.372 48.246,-9.372C47.395,-9.372 46.713,-9.101 46.2,-8.558Z" style="fill:rgb(74,74,74);fill-rule:nonzero;"/><path d="M61.996,-10.054C61.996,-9.731 61.915,-9.489 61.754,-9.328C61.593,-9.167 61.314,-9.071 60.918,-9.042L60.258,-8.976C59.334,-8.888 58.648,-8.565 58.201,-8.008C57.754,-7.451 57.53,-6.776 57.53,-5.984L57.53,-0.946C57.53,-0.594 57.427,-0.33 57.222,-0.154C57.017,0.022 56.753,0.11 56.43,0.11C56.107,0.11 55.84,0.022 55.627,-0.154C55.414,-0.33 55.308,-0.594 55.308,-0.946L55.308,-9.9C55.308,-10.237 55.414,-10.498 55.627,-10.681C55.84,-10.864 56.107,-10.956 56.43,-10.956C56.723,-10.956 56.969,-10.864 57.167,-10.681C57.365,-10.498 57.464,-10.245 57.464,-9.922L57.464,-8.866C57.757,-9.511 58.183,-10.003 58.74,-10.34C59.297,-10.677 59.928,-10.875 60.632,-10.934L60.94,-10.956C61.644,-11 61.996,-10.699 61.996,-10.054Z" style="fill:rgb(74,74,74);fill-rule:nonzero;"/><path d="M63.316,-0.77C63.052,-0.931 62.865,-1.1 62.755,-1.276C62.645,-1.452 62.59,-1.65 62.59,-1.87C62.59,-2.105 62.656,-2.303 62.788,-2.464C62.92,-2.625 63.089,-2.706 63.294,-2.706C63.485,-2.706 63.785,-2.589 64.196,-2.354C64.636,-2.119 65.065,-1.929 65.483,-1.782C65.901,-1.635 66.425,-1.562 67.056,-1.562C67.76,-1.562 68.31,-1.687 68.706,-1.936C69.102,-2.185 69.3,-2.537 69.3,-2.992C69.3,-3.285 69.223,-3.52 69.069,-3.696C68.915,-3.872 68.647,-4.03 68.266,-4.169C67.885,-4.308 67.32,-4.459 66.572,-4.62C65.281,-4.899 64.354,-5.276 63.789,-5.753C63.224,-6.23 62.942,-6.879 62.942,-7.7C62.942,-8.331 63.125,-8.899 63.492,-9.405C63.859,-9.911 64.365,-10.303 65.01,-10.582C65.655,-10.861 66.389,-11 67.21,-11C67.797,-11 68.369,-10.923 68.926,-10.769C69.483,-10.615 69.975,-10.391 70.4,-10.098C70.884,-9.775 71.126,-9.401 71.126,-8.976C71.126,-8.741 71.056,-8.543 70.917,-8.382C70.778,-8.221 70.613,-8.14 70.422,-8.14C70.29,-8.14 70.158,-8.169 70.026,-8.228C69.894,-8.287 69.718,-8.382 69.498,-8.514C69.102,-8.749 68.732,-8.932 68.387,-9.064C68.042,-9.196 67.613,-9.262 67.1,-9.262C66.484,-9.262 65.989,-9.13 65.615,-8.866C65.241,-8.602 65.054,-8.243 65.054,-7.788C65.054,-7.377 65.226,-7.058 65.571,-6.831C65.916,-6.604 66.565,-6.387 67.518,-6.182C68.501,-5.977 69.271,-5.742 69.828,-5.478C70.385,-5.214 70.785,-4.888 71.027,-4.499C71.269,-4.11 71.39,-3.615 71.39,-3.014C71.39,-2.061 70.99,-1.294 70.191,-0.715C69.392,-0.136 68.325,0.154 66.99,0.154C65.494,0.154 64.269,-0.154 63.316,-0.77Z" style="fill:rgb(74,74,74);fill-rule:nonzero;"/><path d="M22.066,21.12C22.066,21.399 21.952,21.633 21.725,21.824C21.498,22.015 21.245,22.11 20.966,22.11C20.775,22.11 20.596,22.055 20.427,21.945C20.258,21.835 20.13,21.677 20.042,21.472L18.59,18.172L10.538,18.172L9.086,21.472C8.998,21.677 8.866,21.835 8.69,21.945C8.514,22.055 8.331,22.11 8.14,22.11C7.847,22.11 7.586,22.015 7.359,21.824C7.132,21.633 7.018,21.399 7.018,21.12C7.018,21.003 7.055,20.856 7.128,20.68L13.332,7.106C13.435,6.871 13.6,6.688 13.827,6.556C14.054,6.424 14.293,6.358 14.542,6.358C14.791,6.358 15.03,6.424 15.257,6.556C15.484,6.688 15.649,6.871 15.752,7.106L21.956,20.68C22.029,20.856 22.066,21.003 22.066,21.12ZM11.352,16.368L17.798,16.368L14.564,9.086L11.352,16.368Z" style="fill:rgb(74,74,74);fill-rule:nonzero;"/><path d="M24.728,21.802C24.523,21.597 24.42,21.318 24.42,20.966L24.42,7.59C24.42,7.253 24.519,6.985 24.717,6.787C24.915,6.589 25.19,6.49 25.542,6.49L30.844,6.49C32.487,6.49 33.763,6.893 34.672,7.7C35.581,8.507 36.036,9.651 36.036,11.132C36.036,12.599 35.581,13.743 34.672,14.564C33.763,15.385 32.487,15.796 30.844,15.796L26.686,15.796L26.686,20.966C26.686,21.318 26.587,21.597 26.389,21.802C26.191,22.007 25.909,22.11 25.542,22.11C25.205,22.11 24.933,22.007 24.728,21.802ZM30.602,13.97C32.773,13.97 33.858,13.024 33.858,11.132C33.858,9.255 32.773,8.316 30.602,8.316L26.686,8.316L26.686,13.97L30.602,13.97Z" style="fill:rgb(74,74,74);fill-rule:nonzero;"/><path d="M50.908,21.12C50.908,21.399 50.794,21.633 50.567,21.824C50.34,22.015 50.087,22.11 49.808,22.11C49.617,22.11 49.438,22.055 49.269,21.945C49.1,21.835 48.972,21.677 48.884,21.472L47.432,18.172L39.38,18.172L37.928,21.472C37.84,21.677 37.708,21.835 37.532,21.945C37.356,22.055 37.173,22.11 36.982,22.11C36.689,22.11 36.428,22.015 36.201,21.824C35.974,21.633 35.86,21.399 35.86,21.12C35.86,21.003 35.897,20.856 35.97,20.68L42.174,7.106C42.277,6.871 42.442,6.688 42.669,6.556C42.896,6.424 43.135,6.358 43.384,6.358C43.633,6.358 43.872,6.424 44.099,6.556C44.326,6.688 44.491,6.871 44.594,7.106L50.798,20.68C50.871,20.856 50.908,21.003 50.908,21.12ZM40.194,16.368L46.64,16.368L43.406,9.086L40.194,16.368Z" style="fill:rgb(74,74,74);fill-rule:nonzero;"/><path d="M55.638,21.219C54.538,20.581 53.695,19.664 53.108,18.469C52.521,17.274 52.228,15.862 52.228,14.234C52.228,12.621 52.521,11.216 53.108,10.021C53.695,8.826 54.538,7.909 55.638,7.271C56.738,6.633 58.029,6.314 59.51,6.314C60.478,6.314 61.395,6.464 62.26,6.765C63.125,7.066 63.881,7.502 64.526,8.074C64.805,8.294 64.944,8.587 64.944,8.954C64.944,9.218 64.871,9.442 64.724,9.625C64.577,9.808 64.401,9.9 64.196,9.9C63.947,9.9 63.705,9.805 63.47,9.614C62.766,9.086 62.124,8.716 61.545,8.503C60.966,8.29 60.309,8.184 59.576,8.184C57.963,8.184 56.723,8.705 55.858,9.746C54.993,10.787 54.56,12.283 54.56,14.234C54.56,16.199 54.993,17.703 55.858,18.744C56.723,19.785 57.963,20.306 59.576,20.306C60.28,20.306 60.922,20.196 61.501,19.976C62.08,19.756 62.737,19.389 63.47,18.876C63.763,18.685 64.005,18.59 64.196,18.59C64.401,18.59 64.577,18.682 64.724,18.865C64.871,19.048 64.944,19.272 64.944,19.536C64.944,19.903 64.805,20.196 64.526,20.416C63.881,20.988 63.125,21.424 62.26,21.725C61.395,22.026 60.478,22.176 59.51,22.176C58.029,22.176 56.738,21.857 55.638,21.219Z" style="fill:rgb(74,74,74);fill-rule:nonzero;"/></g></g></svg>