<?xml version="1.0" encoding="UTF-8" standalone="no"?>
<!DOCTYPE svg PUBLIC "-//W3C//DTD SVG 1.1//EN" "http://www.w3.org/Graphics/SVG/1.1/DTD/svg11.dtd">
<svg width="100%" height="100%" viewBox="0 0 50 13" version="1.1" xmlns="http://www.w3.org/2000/svg" xmlns:xlink="http://www.w3.org/1999/xlink" xml:space="preserve" xmlns:serif="http://www.serif.com/" style="fill-rule:evenodd;clip-rule:evenodd;stroke-linejoin:round;stroke-miterlimit:1.41421;">
    <g transform="matrix(1,0,0,1,-105,-405)">
        <g transform="matrix(1,0,0,1,105,417)">
            <path d="M2.696,-0.232C1.965,-0.472 1.381,-0.795 0.944,-1.2C0.784,-1.349 0.704,-1.536 0.704,-1.76C0.704,-1.909 0.747,-2.04 0.832,-2.152C0.917,-2.264 1.019,-2.32 1.136,-2.32C1.275,-2.32 1.424,-2.261 1.584,-2.144C2.576,-1.376 3.707,-0.992 4.976,-0.992C5.893,-0.992 6.597,-1.168 7.088,-1.52C7.579,-1.872 7.824,-2.373 7.824,-3.024C7.824,-3.397 7.707,-3.699 7.472,-3.928C7.237,-4.157 6.928,-4.341 6.544,-4.48C6.16,-4.619 5.643,-4.763 4.992,-4.912C4.117,-5.115 3.4,-5.328 2.84,-5.552C2.28,-5.776 1.827,-6.096 1.48,-6.512C1.133,-6.928 0.96,-7.472 0.96,-8.144C0.96,-8.784 1.133,-9.352 1.48,-9.848C1.827,-10.344 2.312,-10.728 2.936,-11C3.56,-11.272 4.272,-11.408 5.072,-11.408C5.819,-11.408 6.515,-11.293 7.16,-11.064C7.805,-10.835 8.347,-10.507 8.784,-10.08C8.955,-9.909 9.04,-9.723 9.04,-9.52C9.04,-9.371 8.997,-9.24 8.912,-9.128C8.827,-9.016 8.725,-8.96 8.608,-8.96C8.491,-8.96 8.336,-9.019 8.144,-9.136C7.621,-9.563 7.136,-9.861 6.688,-10.032C6.24,-10.203 5.701,-10.288 5.072,-10.288C4.187,-10.288 3.499,-10.104 3.008,-9.736C2.517,-9.368 2.272,-8.853 2.272,-8.192C2.272,-7.627 2.488,-7.203 2.92,-6.92C3.352,-6.637 4.016,-6.389 4.912,-6.176C5.883,-5.941 6.645,-5.725 7.2,-5.528C7.755,-5.331 8.216,-5.035 8.584,-4.64C8.952,-4.245 9.136,-3.717 9.136,-3.056C9.136,-2.427 8.963,-1.872 8.616,-1.392C8.269,-0.912 7.781,-0.539 7.152,-0.272C6.523,-0.005 5.803,0.128 4.992,0.128C4.192,0.128 3.427,0.008 2.696,-0.232Z" style="fill-rule:nonzero;"/>
            <path d="M17.408,-1.664C17.493,-1.568 17.536,-1.445 17.536,-1.296C17.536,-1.029 17.349,-0.784 16.976,-0.56C16.592,-0.336 16.187,-0.168 15.76,-0.056C15.333,0.056 14.917,0.112 14.512,0.112C13.307,0.112 12.355,-0.245 11.656,-0.96C10.957,-1.675 10.608,-2.661 10.608,-3.92C10.608,-4.72 10.763,-5.427 11.072,-6.04C11.381,-6.653 11.816,-7.131 12.376,-7.472C12.936,-7.813 13.573,-7.984 14.288,-7.984C15.301,-7.984 16.107,-7.653 16.704,-6.992C17.301,-6.331 17.6,-5.435 17.6,-4.304C17.6,-4.091 17.557,-3.936 17.472,-3.84C17.387,-3.744 17.248,-3.696 17.056,-3.696L11.904,-3.696C12,-1.861 12.869,-0.944 14.512,-0.944C14.928,-0.944 15.285,-1 15.584,-1.112C15.883,-1.224 16.203,-1.376 16.544,-1.568C16.821,-1.728 17.008,-1.808 17.104,-1.808C17.221,-1.808 17.323,-1.76 17.408,-1.664ZM12.664,-6.336C12.253,-5.909 12.011,-5.307 11.936,-4.528L16.464,-4.528C16.443,-5.317 16.245,-5.923 15.872,-6.344C15.499,-6.765 14.976,-6.976 14.304,-6.976C13.621,-6.976 13.075,-6.763 12.664,-6.336Z" style="fill-rule:nonzero;"/>
            <path d="M25.616,-4.912L25.616,-0.56C25.616,-0.368 25.56,-0.213 25.448,-0.096C25.336,0.021 25.184,0.08 24.992,0.08C24.8,0.08 24.645,0.021 24.528,-0.096C24.411,-0.213 24.352,-0.368 24.352,-0.56L24.352,-1.328C24.149,-0.869 23.84,-0.515 23.424,-0.264C23.008,-0.013 22.528,0.112 21.984,0.112C21.483,0.112 21.021,0.011 20.6,-0.192C20.179,-0.395 19.845,-0.677 19.6,-1.04C19.355,-1.403 19.232,-1.803 19.232,-2.24C19.232,-2.827 19.381,-3.283 19.68,-3.608C19.979,-3.933 20.469,-4.168 21.152,-4.312C21.835,-4.456 22.784,-4.528 24,-4.528L24.352,-4.528L24.352,-5.056C24.352,-5.696 24.221,-6.165 23.96,-6.464C23.699,-6.763 23.275,-6.912 22.688,-6.912C21.963,-6.912 21.227,-6.715 20.48,-6.32C20.192,-6.139 19.989,-6.048 19.872,-6.048C19.744,-6.048 19.637,-6.096 19.552,-6.192C19.467,-6.288 19.424,-6.411 19.424,-6.56C19.424,-6.709 19.469,-6.84 19.56,-6.952C19.651,-7.064 19.797,-7.179 20,-7.296C20.373,-7.509 20.797,-7.677 21.272,-7.8C21.747,-7.923 22.219,-7.984 22.688,-7.984C24.64,-7.984 25.616,-6.96 25.616,-4.912ZM23.736,-1.56C24.147,-1.992 24.352,-2.549 24.352,-3.232L24.352,-3.696L24.064,-3.696C23.125,-3.696 22.411,-3.656 21.92,-3.576C21.429,-3.496 21.08,-3.363 20.872,-3.176C20.664,-2.989 20.56,-2.715 20.56,-2.352C20.56,-1.936 20.712,-1.592 21.016,-1.32C21.32,-1.048 21.701,-0.912 22.16,-0.912C22.8,-0.912 23.325,-1.128 23.736,-1.56Z" style="fill-rule:nonzero;"/>
            <path d="M32.144,-0.432C32.144,-0.251 32.077,-0.115 31.944,-0.024C31.811,0.067 31.611,0.101 31.344,0.08L30.912,0.048C30.059,-0.016 29.429,-0.272 29.024,-0.72C28.619,-1.168 28.416,-1.845 28.416,-2.752L28.416,-6.768L27.344,-6.768C27.163,-6.768 27.021,-6.813 26.92,-6.904C26.819,-6.995 26.768,-7.115 26.768,-7.264C26.768,-7.424 26.819,-7.552 26.92,-7.648C27.021,-7.744 27.163,-7.792 27.344,-7.792L28.416,-7.792L28.416,-9.6C28.416,-9.803 28.475,-9.96 28.592,-10.072C28.709,-10.184 28.869,-10.24 29.072,-10.24C29.264,-10.24 29.419,-10.184 29.536,-10.072C29.653,-9.96 29.712,-9.803 29.712,-9.6L29.712,-7.792L31.488,-7.792C31.659,-7.792 31.795,-7.744 31.896,-7.648C31.997,-7.552 32.048,-7.424 32.048,-7.264C32.048,-7.115 31.997,-6.995 31.896,-6.904C31.795,-6.813 31.659,-6.768 31.488,-6.768L29.712,-6.768L29.712,-2.688C29.712,-2.101 29.832,-1.677 30.072,-1.416C30.312,-1.155 30.672,-1.008 31.152,-0.976L31.584,-0.944C31.957,-0.912 32.144,-0.741 32.144,-0.432Z" style="fill-rule:nonzero;"/>
            <path d="M37.632,-0.432C37.632,-0.251 37.565,-0.115 37.432,-0.024C37.299,0.067 37.099,0.101 36.832,0.08L36.4,0.048C35.547,-0.016 34.917,-0.272 34.512,-0.72C34.107,-1.168 33.904,-1.845 33.904,-2.752L33.904,-6.768L32.832,-6.768C32.651,-6.768 32.509,-6.813 32.408,-6.904C32.307,-6.995 32.256,-7.115 32.256,-7.264C32.256,-7.424 32.307,-7.552 32.408,-7.648C32.509,-7.744 32.651,-7.792 32.832,-7.792L33.904,-7.792L33.904,-9.6C33.904,-9.803 33.963,-9.96 34.08,-10.072C34.197,-10.184 34.357,-10.24 34.56,-10.24C34.752,-10.24 34.907,-10.184 35.024,-10.072C35.141,-9.96 35.2,-9.803 35.2,-9.6L35.2,-7.792L36.976,-7.792C37.147,-7.792 37.283,-7.744 37.384,-7.648C37.485,-7.552 37.536,-7.424 37.536,-7.264C37.536,-7.115 37.485,-6.995 37.384,-6.904C37.283,-6.813 37.147,-6.768 36.976,-6.768L35.2,-6.768L35.2,-2.688C35.2,-2.101 35.32,-1.677 35.56,-1.416C35.8,-1.155 36.16,-1.008 36.64,-0.976L37.072,-0.944C37.445,-0.912 37.632,-0.741 37.632,-0.432Z" style="fill-rule:nonzero;"/>
            <path d="M39.096,-0.088C38.973,-0.2 38.912,-0.357 38.912,-0.56L38.912,-10.72C38.912,-10.923 38.973,-11.08 39.096,-11.192C39.219,-11.304 39.376,-11.36 39.568,-11.36C39.749,-11.36 39.901,-11.304 40.024,-11.192C40.147,-11.08 40.208,-10.923 40.208,-10.72L40.208,-0.56C40.208,-0.357 40.147,-0.2 40.024,-0.088C39.901,0.024 39.749,0.08 39.568,0.08C39.376,0.08 39.219,0.024 39.096,-0.088Z" style="fill-rule:nonzero;"/>
            <path d="M48.96,-1.664C49.045,-1.568 49.088,-1.445 49.088,-1.296C49.088,-1.029 48.901,-0.784 48.528,-0.56C48.144,-0.336 47.739,-0.168 47.312,-0.056C46.885,0.056 46.469,0.112 46.064,0.112C44.859,0.112 43.907,-0.245 43.208,-0.96C42.509,-1.675 42.16,-2.661 42.16,-3.92C42.16,-4.72 42.315,-5.427 42.624,-6.04C42.933,-6.653 43.368,-7.131 43.928,-7.472C44.488,-7.813 45.125,-7.984 45.84,-7.984C46.853,-7.984 47.659,-7.653 48.256,-6.992C48.853,-6.331 49.152,-5.435 49.152,-4.304C49.152,-4.091 49.109,-3.936 49.024,-3.84C48.939,-3.744 48.8,-3.696 48.608,-3.696L43.456,-3.696C43.552,-1.861 44.421,-0.944 46.064,-0.944C46.48,-0.944 46.837,-1 47.136,-1.112C47.435,-1.224 47.755,-1.376 48.096,-1.568C48.373,-1.728 48.56,-1.808 48.656,-1.808C48.773,-1.808 48.875,-1.76 48.96,-1.664ZM44.216,-6.336C43.805,-5.909 43.563,-5.307 43.488,-4.528L48.016,-4.528C47.995,-5.317 47.797,-5.923 47.424,-6.344C47.051,-6.765 46.528,-6.976 45.856,-6.976C45.173,-6.976 44.627,-6.763 44.216,-6.336Z" style="fill-rule:nonzero;"/>
        </g>
    </g>
</svg>
