<?xml version="1.0" encoding="UTF-8" standalone="no"?><!DOCTYPE svg PUBLIC "-//W3C//DTD SVG 1.1//EN" "http://www.w3.org/Graphics/SVG/1.1/DTD/svg11.dtd"><svg width="100%" height="100%" viewBox="0 0 63 30" version="1.1" xmlns="http://www.w3.org/2000/svg" xmlns:xlink="http://www.w3.org/1999/xlink" xml:space="preserve" xmlns:serif="http://www.serif.com/" style="fill-rule:evenodd;clip-rule:evenodd;stroke-linejoin:round;stroke-miterlimit:1.41421;"><g transform="matrix(0.75,0,0,0.75,-221.25,-626.25)"><g transform="matrix(1,0,0,1,294,851)"><path d="M11.869,-1.628C12.052,-1.467 12.144,-1.239 12.144,-0.946C12.144,-0.315 11.785,0 11.066,0L2.574,0C2.251,0 1.998,-0.092 1.815,-0.275C1.632,-0.458 1.54,-0.689 1.54,-0.968C1.54,-1.305 1.672,-1.613 1.936,-1.892L7.106,-7.546C7.795,-8.294 8.294,-8.976 8.602,-9.592C8.91,-10.208 9.064,-10.817 9.064,-11.418C9.064,-12.195 8.84,-12.793 8.393,-13.211C7.946,-13.629 7.311,-13.838 6.49,-13.838C5.243,-13.838 4.004,-13.361 2.772,-12.408C2.611,-12.305 2.475,-12.228 2.365,-12.177C2.255,-12.126 2.141,-12.1 2.024,-12.1C1.819,-12.1 1.643,-12.195 1.496,-12.386C1.349,-12.577 1.276,-12.804 1.276,-13.068C1.276,-13.435 1.423,-13.728 1.716,-13.948C2.332,-14.476 3.073,-14.898 3.938,-15.213C4.803,-15.528 5.676,-15.686 6.556,-15.686C8.008,-15.686 9.163,-15.316 10.021,-14.575C10.879,-13.834 11.308,-12.833 11.308,-11.572C11.308,-10.677 11.114,-9.827 10.725,-9.02C10.336,-8.213 9.687,-7.311 8.778,-6.314L4.62,-1.87L11.066,-1.87C11.418,-1.87 11.686,-1.789 11.869,-1.628Z" style="fill:rgb(74,74,74);fill-rule:nonzero;"/><path d="M23.067,-9.196C23.808,-8.785 24.383,-8.206 24.794,-7.458C25.205,-6.71 25.41,-5.852 25.41,-4.884C25.41,-3.901 25.183,-3.029 24.728,-2.266C24.273,-1.503 23.639,-0.909 22.825,-0.484C22.011,-0.059 21.076,0.154 20.02,0.154C19.111,0.154 18.22,0 17.347,-0.308C16.474,-0.616 15.745,-1.041 15.158,-1.584C14.865,-1.833 14.718,-2.127 14.718,-2.464C14.718,-2.728 14.791,-2.952 14.938,-3.135C15.085,-3.318 15.261,-3.41 15.466,-3.41C15.598,-3.41 15.719,-3.388 15.829,-3.344C15.939,-3.3 16.067,-3.227 16.214,-3.124C16.815,-2.655 17.42,-2.299 18.029,-2.057C18.638,-1.815 19.279,-1.694 19.954,-1.694C20.981,-1.694 21.78,-1.969 22.352,-2.519C22.924,-3.069 23.21,-3.843 23.21,-4.84C23.21,-5.793 22.92,-6.556 22.341,-7.128C21.762,-7.7 20.988,-7.986 20.02,-7.986C19.389,-7.986 18.825,-7.88 18.326,-7.667C17.827,-7.454 17.358,-7.121 16.918,-6.666C16.698,-6.461 16.434,-6.358 16.126,-6.358C15.877,-6.358 15.668,-6.435 15.499,-6.589C15.33,-6.743 15.246,-6.945 15.246,-7.194L15.246,-14.432C15.246,-14.769 15.338,-15.033 15.521,-15.224C15.704,-15.415 15.972,-15.51 16.324,-15.51L23.892,-15.51C24.229,-15.51 24.493,-15.429 24.684,-15.268C24.875,-15.107 24.97,-14.887 24.97,-14.608C24.97,-14.315 24.875,-14.087 24.684,-13.926C24.493,-13.765 24.229,-13.684 23.892,-13.684L17.49,-13.684L17.49,-8.8C18.297,-9.475 19.301,-9.812 20.504,-9.812C21.472,-9.812 22.326,-9.607 23.067,-9.196Z" style="fill:rgb(74,74,74);fill-rule:nonzero;"/><path d="M42.867,-10.67C43.065,-10.479 43.164,-10.215 43.164,-9.878L43.164,-0.924C43.164,-0.616 43.061,-0.367 42.856,-0.176C42.651,0.015 42.379,0.11 42.042,0.11C41.734,0.11 41.485,0.018 41.294,-0.165C41.103,-0.348 41.008,-0.594 41.008,-0.902L41.008,-1.738C40.671,-1.122 40.205,-0.653 39.611,-0.33C39.017,-0.007 38.353,0.154 37.62,0.154C35.009,0.154 33.704,-1.283 33.704,-4.158L33.704,-9.878C33.704,-10.215 33.803,-10.479 34.001,-10.67C34.199,-10.861 34.474,-10.956 34.826,-10.956C35.163,-10.956 35.431,-10.861 35.629,-10.67C35.827,-10.479 35.926,-10.215 35.926,-9.878L35.926,-4.18C35.926,-3.315 36.102,-2.677 36.454,-2.266C36.806,-1.855 37.349,-1.65 38.082,-1.65C38.947,-1.65 39.64,-1.929 40.161,-2.486C40.682,-3.043 40.942,-3.784 40.942,-4.708L40.942,-9.878C40.942,-10.201 41.045,-10.461 41.25,-10.659C41.455,-10.857 41.727,-10.956 42.064,-10.956C42.401,-10.956 42.669,-10.861 42.867,-10.67Z" style="fill:rgb(74,74,74);fill-rule:nonzero;"/><path d="M46.332,-0.77C46.068,-0.931 45.881,-1.1 45.771,-1.276C45.661,-1.452 45.606,-1.65 45.606,-1.87C45.606,-2.105 45.672,-2.303 45.804,-2.464C45.936,-2.625 46.105,-2.706 46.31,-2.706C46.501,-2.706 46.801,-2.589 47.212,-2.354C47.652,-2.119 48.081,-1.929 48.499,-1.782C48.917,-1.635 49.441,-1.562 50.072,-1.562C50.776,-1.562 51.326,-1.687 51.722,-1.936C52.118,-2.185 52.316,-2.537 52.316,-2.992C52.316,-3.285 52.239,-3.52 52.085,-3.696C51.931,-3.872 51.663,-4.03 51.282,-4.169C50.901,-4.308 50.336,-4.459 49.588,-4.62C48.297,-4.899 47.37,-5.276 46.805,-5.753C46.24,-6.23 45.958,-6.879 45.958,-7.7C45.958,-8.331 46.141,-8.899 46.508,-9.405C46.875,-9.911 47.381,-10.303 48.026,-10.582C48.671,-10.861 49.405,-11 50.226,-11C50.813,-11 51.385,-10.923 51.942,-10.769C52.499,-10.615 52.991,-10.391 53.416,-10.098C53.9,-9.775 54.142,-9.401 54.142,-8.976C54.142,-8.741 54.072,-8.543 53.933,-8.382C53.794,-8.221 53.629,-8.14 53.438,-8.14C53.306,-8.14 53.174,-8.169 53.042,-8.228C52.91,-8.287 52.734,-8.382 52.514,-8.514C52.118,-8.749 51.748,-8.932 51.403,-9.064C51.058,-9.196 50.629,-9.262 50.116,-9.262C49.5,-9.262 49.005,-9.13 48.631,-8.866C48.257,-8.602 48.07,-8.243 48.07,-7.788C48.07,-7.377 48.242,-7.058 48.587,-6.831C48.932,-6.604 49.581,-6.387 50.534,-6.182C51.517,-5.977 52.287,-5.742 52.844,-5.478C53.401,-5.214 53.801,-4.888 54.043,-4.499C54.285,-4.11 54.406,-3.615 54.406,-3.014C54.406,-2.061 54.006,-1.294 53.207,-0.715C52.408,-0.136 51.341,0.154 50.006,0.154C48.51,0.154 47.285,-0.154 46.332,-0.77Z" style="fill:rgb(74,74,74);fill-rule:nonzero;"/><path d="M65.78,-2.464C65.912,-2.303 65.978,-2.097 65.978,-1.848C65.978,-1.423 65.714,-1.063 65.186,-0.77C64.673,-0.477 64.112,-0.249 63.503,-0.088C62.894,0.073 62.311,0.154 61.754,0.154C60.053,0.154 58.711,-0.341 57.728,-1.331C56.745,-2.321 56.254,-3.674 56.254,-5.39C56.254,-6.49 56.47,-7.465 56.903,-8.316C57.336,-9.167 57.944,-9.827 58.729,-10.296C59.514,-10.765 60.405,-11 61.402,-11C62.839,-11 63.976,-10.538 64.812,-9.614C65.648,-8.69 66.066,-7.443 66.066,-5.874C66.066,-5.287 65.802,-4.994 65.274,-4.994L58.476,-4.994C58.623,-2.721 59.715,-1.584 61.754,-1.584C62.297,-1.584 62.766,-1.657 63.162,-1.804C63.558,-1.951 63.976,-2.141 64.416,-2.376C64.46,-2.405 64.581,-2.468 64.779,-2.563C64.977,-2.658 65.142,-2.706 65.274,-2.706C65.479,-2.706 65.648,-2.625 65.78,-2.464ZM59.4,-8.558C58.887,-8.015 58.579,-7.253 58.476,-6.27L64.152,-6.27C64.108,-7.267 63.855,-8.034 63.393,-8.569C62.931,-9.104 62.282,-9.372 61.446,-9.372C60.595,-9.372 59.913,-9.101 59.4,-8.558Z" style="fill:rgb(74,74,74);fill-rule:nonzero;"/><path d="M75.196,-10.054C75.196,-9.731 75.115,-9.489 74.954,-9.328C74.793,-9.167 74.514,-9.071 74.118,-9.042L73.458,-8.976C72.534,-8.888 71.848,-8.565 71.401,-8.008C70.954,-7.451 70.73,-6.776 70.73,-5.984L70.73,-0.946C70.73,-0.594 70.627,-0.33 70.422,-0.154C70.217,0.022 69.953,0.11 69.63,0.11C69.307,0.11 69.04,0.022 68.827,-0.154C68.614,-0.33 68.508,-0.594 68.508,-0.946L68.508,-9.9C68.508,-10.237 68.614,-10.498 68.827,-10.681C69.04,-10.864 69.307,-10.956 69.63,-10.956C69.923,-10.956 70.169,-10.864 70.367,-10.681C70.565,-10.498 70.664,-10.245 70.664,-9.922L70.664,-8.866C70.957,-9.511 71.383,-10.003 71.94,-10.34C72.497,-10.677 73.128,-10.875 73.832,-10.934L74.14,-10.956C74.844,-11 75.196,-10.699 75.196,-10.054Z" style="fill:rgb(74,74,74);fill-rule:nonzero;"/><path d="M76.516,-0.77C76.252,-0.931 76.065,-1.1 75.955,-1.276C75.845,-1.452 75.79,-1.65 75.79,-1.87C75.79,-2.105 75.856,-2.303 75.988,-2.464C76.12,-2.625 76.289,-2.706 76.494,-2.706C76.685,-2.706 76.985,-2.589 77.396,-2.354C77.836,-2.119 78.265,-1.929 78.683,-1.782C79.101,-1.635 79.625,-1.562 80.256,-1.562C80.96,-1.562 81.51,-1.687 81.906,-1.936C82.302,-2.185 82.5,-2.537 82.5,-2.992C82.5,-3.285 82.423,-3.52 82.269,-3.696C82.115,-3.872 81.847,-4.03 81.466,-4.169C81.085,-4.308 80.52,-4.459 79.772,-4.62C78.481,-4.899 77.554,-5.276 76.989,-5.753C76.424,-6.23 76.142,-6.879 76.142,-7.7C76.142,-8.331 76.325,-8.899 76.692,-9.405C77.059,-9.911 77.565,-10.303 78.21,-10.582C78.855,-10.861 79.589,-11 80.41,-11C80.997,-11 81.569,-10.923 82.126,-10.769C82.683,-10.615 83.175,-10.391 83.6,-10.098C84.084,-9.775 84.326,-9.401 84.326,-8.976C84.326,-8.741 84.256,-8.543 84.117,-8.382C83.978,-8.221 83.813,-8.14 83.622,-8.14C83.49,-8.14 83.358,-8.169 83.226,-8.228C83.094,-8.287 82.918,-8.382 82.698,-8.514C82.302,-8.749 81.932,-8.932 81.587,-9.064C81.242,-9.196 80.813,-9.262 80.3,-9.262C79.684,-9.262 79.189,-9.13 78.815,-8.866C78.441,-8.602 78.254,-8.243 78.254,-7.788C78.254,-7.377 78.426,-7.058 78.771,-6.831C79.116,-6.604 79.765,-6.387 80.718,-6.182C81.701,-5.977 82.471,-5.742 83.028,-5.478C83.585,-5.214 83.985,-4.888 84.227,-4.499C84.469,-4.11 84.59,-3.615 84.59,-3.014C84.59,-2.061 84.19,-1.294 83.391,-0.715C82.592,-0.136 81.525,0.154 80.19,0.154C78.694,0.154 77.469,-0.154 76.516,-0.77Z" style="fill:rgb(74,74,74);fill-rule:nonzero;"/><path d="M14.806,21.703C14.608,21.505 14.509,21.237 14.509,20.9L14.509,7.59C14.509,7.253 14.608,6.985 14.806,6.787C15.004,6.589 15.279,6.49 15.631,6.49L23.727,6.49C24.064,6.49 24.325,6.571 24.508,6.732C24.691,6.893 24.783,7.121 24.783,7.414C24.783,7.707 24.691,7.931 24.508,8.085C24.325,8.239 24.064,8.316 23.727,8.316L16.731,8.316L16.731,13.2L23.287,13.2C23.624,13.2 23.885,13.281 24.068,13.442C24.251,13.603 24.343,13.831 24.343,14.124C24.343,14.417 24.251,14.645 24.068,14.806C23.885,14.967 23.624,15.048 23.287,15.048L16.731,15.048L16.731,20.174L23.727,20.174C24.431,20.174 24.783,20.475 24.783,21.076C24.783,21.369 24.691,21.597 24.508,21.758C24.325,21.919 24.064,22 23.727,22L15.631,22C15.279,22 15.004,21.901 14.806,21.703Z" style="fill:rgb(74,74,74);fill-rule:nonzero;"/><path d="M41.943,6.699C42.148,6.912 42.251,7.187 42.251,7.524L42.251,21.032C42.251,21.369 42.159,21.633 41.976,21.824C41.793,22.015 41.54,22.11 41.217,22.11C40.909,22.11 40.667,22.015 40.491,21.824C40.315,21.633 40.227,21.369 40.227,21.032L40.227,10.802L35.915,19.008C35.636,19.521 35.277,19.778 34.837,19.778C34.397,19.778 34.038,19.521 33.759,19.008L29.425,10.89L29.425,21.032C29.425,21.369 29.337,21.633 29.161,21.824C28.985,22.015 28.736,22.11 28.413,22.11C28.105,22.11 27.859,22.011 27.676,21.813C27.493,21.615 27.401,21.355 27.401,21.032L27.401,7.524C27.401,7.187 27.504,6.912 27.709,6.699C27.914,6.486 28.178,6.38 28.501,6.38C28.956,6.38 29.322,6.644 29.601,7.172L34.859,17.226L40.073,7.172C40.352,6.644 40.711,6.38 41.151,6.38C41.474,6.38 41.738,6.486 41.943,6.699Z" style="fill:rgb(74,74,74);fill-rule:nonzero;"/><path d="M46.178,21.703C45.98,21.505 45.881,21.237 45.881,20.9L45.881,7.59C45.881,7.253 45.98,6.985 46.178,6.787C46.376,6.589 46.651,6.49 47.003,6.49L55.099,6.49C55.436,6.49 55.697,6.571 55.88,6.732C56.063,6.893 56.155,7.121 56.155,7.414C56.155,7.707 56.063,7.931 55.88,8.085C55.697,8.239 55.436,8.316 55.099,8.316L48.103,8.316L48.103,13.2L54.659,13.2C54.996,13.2 55.257,13.281 55.44,13.442C55.623,13.603 55.715,13.831 55.715,14.124C55.715,14.417 55.623,14.645 55.44,14.806C55.257,14.967 54.996,15.048 54.659,15.048L48.103,15.048L48.103,20.174L55.099,20.174C55.803,20.174 56.155,20.475 56.155,21.076C56.155,21.369 56.063,21.597 55.88,21.758C55.697,21.919 55.436,22 55.099,22L47.003,22C46.651,22 46.376,21.901 46.178,21.703Z" style="fill:rgb(74,74,74);fill-rule:nonzero;"/><path d="M72.259,21.12C72.259,21.399 72.145,21.633 71.918,21.824C71.691,22.015 71.438,22.11 71.159,22.11C70.968,22.11 70.789,22.055 70.62,21.945C70.451,21.835 70.323,21.677 70.235,21.472L68.783,18.172L60.731,18.172L59.279,21.472C59.191,21.677 59.059,21.835 58.883,21.945C58.707,22.055 58.524,22.11 58.333,22.11C58.04,22.11 57.779,22.015 57.552,21.824C57.325,21.633 57.211,21.399 57.211,21.12C57.211,21.003 57.248,20.856 57.321,20.68L63.525,7.106C63.628,6.871 63.793,6.688 64.02,6.556C64.247,6.424 64.486,6.358 64.735,6.358C64.984,6.358 65.223,6.424 65.45,6.556C65.677,6.688 65.842,6.871 65.945,7.106L72.149,20.68C72.222,20.856 72.259,21.003 72.259,21.12ZM61.545,16.368L67.991,16.368L64.757,9.086L61.545,16.368Z" style="fill:rgb(74,74,74);fill-rule:nonzero;"/></g></g></svg>