<?xml version="1.0" encoding="UTF-8" standalone="no"?>
<svg width="240px" height="58px" viewBox="0 0 240 58" version="1.1" xmlns="http://www.w3.org/2000/svg" xmlns:xlink="http://www.w3.org/1999/xlink">
    <!-- Generator: Sketch 50 (54983) - http://www.bohemiancoding.com/sketch -->
    <title>Box_Secure_Mobile_Access</title>
    <desc>Created with Sketch.</desc>
    <defs></defs>
    <g id="Page-1" stroke="none" stroke-width="1" fill="none" fill-rule="evenodd">
        <g id="Box_Secure_Mobile_Access" fill="#636569" fill-rule="nonzero">
            <path d="M225.966184,0.217183274 L208.574879,0.217183274 L31.4009662,0.217183274 L14.0096618,0.217183274 C6.40096618,0.217183274 0.241545894,6.37070938 0.241545894,13.972124 L0.241545894,44.0158103 C0.241545894,51.6172249 6.40096618,57.770751 14.0096618,57.770751 L31.4009662,57.770751 L208.574879,57.770751 L225.966184,57.770751 C233.574879,57.770751 239.7343,51.6172249 239.7343,44.0158103 L239.7343,13.972124 C240.096618,6.37070938 233.574879,0.217183274 225.966184,0.217183274 Z M17.2705314,32.7946744 L7.12560386,32.7946744 L7.12560386,25.1932598 L17.2705314,25.1932598 L17.2705314,32.7946744 Z M14.0096618,50.5313085 C10.3864734,50.5313085 7.48792271,47.6355315 7.48792271,44.0158103 L7.48792271,40.396089 L17.6328502,40.396089 L17.6328502,44.0158103 C17.6328502,46.5496151 18.3574879,48.7214479 19.4444444,50.5313085 L14.0096618,50.5313085 Z M17.2705314,13.972124 L17.2705314,17.5918452 L7.12560386,17.5918452 L7.12560386,13.972124 C7.12560386,10.3524027 10.0241546,7.45662575 13.647343,7.45662575 L18.7198068,7.45662575 C17.9951691,9.6284585 17.2705314,11.8002912 17.2705314,13.972124 Z M215.096618,44.0158103 C215.096618,47.6355315 212.198068,50.5313085 208.574879,50.5313085 L31.4009662,50.5313085 C27.7777778,50.5313085 24.8792271,47.6355315 24.8792271,44.0158103 L24.8792271,13.972124 C24.8792271,10.3524027 27.7777778,7.45662575 31.4009662,7.45662575 L208.574879,7.45662575 C212.198068,7.45662575 215.096618,10.3524027 215.096618,13.972124 L215.096618,44.0158103 Z M225.966184,7.45662575 C229.589372,7.45662575 232.487923,10.3524027 232.487923,13.972124 L232.487923,17.5918452 L222.342995,17.5918452 L222.342995,13.972124 C222.342995,11.4383191 221.618357,9.26648637 220.531401,7.45662575 L225.966184,7.45662575 Z M222.342995,25.1932598 L232.487923,25.1932598 L232.487923,32.7946744 L222.342995,32.7946744 L222.342995,25.1932598 Z M225.966184,50.5313085 L220.89372,50.5313085 C221.980676,48.7214479 222.705314,46.187643 222.705314,44.0158103 L222.705314,40.396089 L232.850242,40.396089 L232.850242,44.0158103 C232.487923,47.6355315 229.589372,50.5313085 225.966184,50.5313085 Z" id="Shape"></path>
            <path d="M92.2705314,43.291866 L79.589372,43.291866 C77.0531401,43.291866 75.2415459,41.4820054 75.2415459,38.9482005 L75.2415459,33.5186187 C75.2415459,30.9848138 77.0531401,29.1749532 79.589372,29.1749532 L92.2705314,29.1749532 C94.8067633,29.1749532 96.6183575,30.9848138 96.6183575,33.5186187 L96.6183575,38.9482005 C96.9806763,41.4820054 94.8067633,43.291866 92.2705314,43.291866 Z M121.618357,43.291866 L108.937198,43.291866 C106.400966,43.291866 104.589372,41.4820054 104.589372,38.9482005 L104.589372,33.5186187 C104.589372,30.9848138 106.400966,29.1749532 108.937198,29.1749532 L121.618357,29.1749532 C124.154589,29.1749532 125.966184,30.9848138 125.966184,33.5186187 L125.966184,38.9482005 C125.966184,41.4820054 124.154589,43.291866 121.618357,43.291866 Z M154.589372,30.6228417 L170.169082,30.6228417 L170.169082,43.291866 L154.589372,43.291866 L154.589372,30.6228417 Z M173.792271,30.6228417 L189.371981,30.6228417 L189.371981,43.291866 L173.792271,43.291866 L173.792271,30.6228417 Z M154.589372,14.3340961 L170.169082,14.3340961 L170.169082,27.0031204 L154.589372,27.0031204 L154.589372,14.3340961 Z M192.995169,27.0031204 L193.357488,27.0031204 L193.357488,14.3340961 L202.777778,14.3340961 C205.31401,14.3340961 207.125604,16.1439567 207.125604,18.6777616 L207.125604,27.0031204 L192.995169,27.0031204 Z M150.966184,30.6228417 L150.966184,43.291866 L140.821256,43.291866 C138.285024,43.291866 136.47343,41.4820054 136.47343,38.9482005 L136.47343,30.6228417 L150.966184,30.6228417 Z M192.995169,30.6228417 L206.763285,30.6228417 L206.763285,38.9482005 C206.763285,41.4820054 204.951691,43.291866 202.415459,43.291866 L192.995169,43.291866 L192.995169,30.6228417 Z M150.966184,27.0031204 L136.47343,27.0031204 L136.47343,18.6777616 C136.47343,16.1439567 138.285024,14.3340961 140.821256,14.3340961 L150.966184,14.3340961 L150.966184,27.0031204 Z M173.792271,14.3340961 L189.371981,14.3340961 L189.371981,27.0031204 L173.792271,27.0031204 L173.792271,14.3340961 Z" id="Combined-Shape"></path>
        </g>
    </g>
</svg>