<?xml version="1.0" encoding="UTF-8" standalone="no"?>
<svg width="65px" height="16px" viewBox="0 0 65 16" version="1.1" xmlns="http://www.w3.org/2000/svg" xmlns:xlink="http://www.w3.org/1999/xlink">
    <!-- Generator: Sketch 50 (54983) - http://www.bohemiancoding.com/sketch -->
    <title>Box_WAN_Acceleration</title>
    <desc>Created with Sketch.</desc>
    <defs></defs>
    <g id="Page-1" stroke="none" stroke-width="1" fill="none" fill-rule="evenodd">
        <g id="Box_WAN_Acceleration" fill-rule="nonzero">
            <path d="M61.0387468,0.0134841235 L56.3287563,0.0134841235 L8.51211332,0.0134841235 L3.80212279,0.0134841235 C1.75430082,0.0134841235 0.0136521465,1.63157895 0.0136521465,3.7553284 L0.0136521465,11.7446716 C0.0136521465,13.7672901 1.65190972,15.4865159 3.80212279,15.4865159 L8.51211332,15.4865159 L56.3287563,15.4865159 L61.0387468,15.4865159 C63.0865688,15.4865159 64.8272175,13.8684211 64.8272175,11.7446716 L64.8272175,3.7553284 C64.7248264,1.73270987 63.0865688,0.0134841235 61.0387468,0.0134841235 Z M4.62125158,8.7107438 L1.85669192,8.7107438 L1.85669192,6.68812527 L4.62125158,6.68812527 L4.62125158,8.7107438 Z M3.69973169,13.4638973 C2.67582071,13.4638973 1.95908302,12.6548499 1.95908302,11.7446716 L1.95908302,10.8344933 L4.72364268,10.8344933 L4.72364268,11.7446716 C4.72364268,12.3514572 4.92842487,12.9582427 5.13320707,13.4638973 L3.69973169,13.4638973 Z M4.62125158,3.7553284 L4.62125158,4.66550674 L1.85669192,4.66550674 L1.85669192,3.7553284 C1.85669192,2.74401914 2.67582071,2.03610265 3.59734059,2.03610265 L5.03081597,2.03610265 C4.82603378,2.54175729 4.62125158,3.14854284 4.62125158,3.7553284 Z M58.069405,11.7446716 C58.069405,12.7559809 57.2502762,13.4638973 56.3287563,13.4638973 L8.51211332,13.4638973 C7.48820234,13.4638973 6.77146465,12.6548499 6.77146465,11.7446716 L6.77146465,3.7553284 C6.77146465,2.74401914 7.59059343,2.03610265 8.51211332,2.03610265 L56.3287563,2.03610265 C57.3526673,2.03610265 58.069405,2.84515007 58.069405,3.7553284 L58.069405,11.7446716 Z M61.0387468,2.03610265 C62.0626578,2.03610265 62.7793955,2.84515007 62.7793955,3.7553284 L62.7793955,4.66550674 L60.0148359,4.66550674 L60.0148359,3.7553284 C60.0148359,3.14854284 59.8100537,2.54175729 59.6052715,2.03610265 L61.0387468,2.03610265 Z M60.0148359,6.68812527 L62.7793955,6.68812527 L62.7793955,8.7107438 L60.0148359,8.7107438 L60.0148359,6.68812527 Z M61.0387468,13.4638973 L59.6052715,13.4638973 C59.9124448,12.9582427 60.0148359,12.3514572 60.0148359,11.7446716 L60.0148359,10.8344933 L62.7793955,10.8344933 L62.7793955,11.7446716 C62.7793955,12.6548499 61.9602667,13.4638973 61.0387468,13.4638973 Z" id="Shape" fill="#636569"></path>
            <path d="M52.9498501,9.82318399 C53.3594145,9.82318399 53.7689789,10.2277077 53.7689789,10.6322314 C53.7689789,11.0367551 53.3594145,11.4412788 52.9498501,11.4412788 C52.5402857,11.4412788 52.1307213,11.0367551 52.1307213,10.6322314 C52.1307213,10.2277077 52.4378946,9.82318399 52.9498501,9.82318399 Z M49.6733349,9.82318399 C50.0828993,9.82318399 50.4924637,10.2277077 50.4924637,10.6322314 C50.4924637,11.0367551 50.0828993,11.4412788 49.6733349,11.4412788 C49.2637705,11.4412788 48.8542061,11.0367551 48.8542061,10.6322314 C48.8542061,10.2277077 49.1613794,9.82318399 49.6733349,9.82318399 Z M46.2944287,9.82318399 C46.7039931,9.82318399 47.1135574,10.2277077 47.1135574,10.6322314 C47.1135574,11.0367551 46.7039931,11.4412788 46.2944287,11.4412788 C45.8848643,11.4412788 45.4752999,11.0367551 45.4752999,10.6322314 C45.4752999,10.2277077 45.8848643,9.82318399 46.2944287,9.82318399 Z M43.0179135,9.82318399 C43.4274779,9.82318399 43.8370423,10.2277077 43.8370423,10.6322314 C43.8370423,11.0367551 43.4274779,11.4412788 43.0179135,11.4412788 C42.6083491,11.4412788 42.1987847,11.0367551 42.1987847,10.6322314 C42.1987847,10.2277077 42.505958,9.82318399 43.0179135,9.82318399 Z M39.6390073,9.82318399 C40.0485717,9.82318399 40.458136,10.2277077 40.458136,10.6322314 C40.458136,11.0367551 40.0485717,11.4412788 39.6390073,11.4412788 C39.2294429,11.4412788 38.8198785,11.0367551 38.8198785,10.6322314 C38.8198785,10.2277077 39.2294429,9.82318399 39.6390073,9.82318399 Z M36.3624921,9.82318399 C36.7720565,9.82318399 37.1816209,10.2277077 37.1816209,10.6322314 C37.1816209,11.0367551 36.7720565,11.4412788 36.3624921,11.4412788 C35.9529277,11.4412788 35.5433633,11.0367551 35.5433633,10.6322314 C35.5433633,10.2277077 35.9529277,9.82318399 36.3624921,9.82318399 Z M33.085977,9.82318399 C33.4955414,9.82318399 33.9051057,10.2277077 33.9051057,10.6322314 C33.9051057,11.0367551 33.4955414,11.4412788 33.085977,11.4412788 C32.6764126,11.4412788 32.2668482,11.0367551 32.2668482,10.6322314 C32.2668482,10.2277077 32.5740215,9.82318399 33.085977,9.82318399 Z M29.7070707,9.82318399 C30.1166351,9.82318399 30.5261995,10.2277077 30.5261995,10.6322314 C30.5261995,11.0367551 30.1166351,11.4412788 29.7070707,11.4412788 C29.2975063,11.4412788 28.8879419,11.0367551 28.8879419,10.6322314 C28.8879419,10.2277077 29.2975063,9.82318399 29.7070707,9.82318399 Z M26.4305556,9.82318399 C26.8401199,9.82318399 27.2496843,10.2277077 27.2496843,10.6322314 C27.2496843,11.0367551 26.8401199,11.4412788 26.4305556,11.4412788 C26.0209912,11.4412788 25.6114268,11.0367551 25.6114268,10.6322314 C25.6114268,10.2277077 26.0209912,9.82318399 26.4305556,9.82318399 Z M53.5641967,6.89038712 C53.973761,6.89038712 54.3833254,7.29491083 54.3833254,7.69943454 C54.3833254,8.10395824 53.973761,8.50848195 53.5641967,8.50848195 C53.1546323,8.50848195 52.7450679,8.10395824 52.7450679,7.69943454 C52.7450679,7.29491083 53.1546323,6.89038712 53.5641967,6.89038712 Z M50.2876815,6.89038712 C50.6972459,6.89038712 51.1068103,7.29491083 51.1068103,7.69943454 C51.1068103,8.10395824 50.6972459,8.50848195 50.2876815,8.50848195 C49.8781171,8.50848195 49.4685527,8.10395824 49.4685527,7.69943454 C49.4685527,7.29491083 49.8781171,6.89038712 50.2876815,6.89038712 Z M47.0111664,6.89038712 C47.4207307,6.89038712 47.8302951,7.29491083 47.8302951,7.69943454 C47.8302951,8.10395824 47.4207307,8.50848195 47.0111664,8.50848195 C46.601602,8.50848195 46.1920376,8.10395824 46.1920376,7.69943454 C46.1920376,7.29491083 46.4992109,6.89038712 47.0111664,6.89038712 Z M43.6322601,6.89038712 C44.0418245,6.89038712 44.4513889,7.29491083 44.4513889,7.69943454 C44.4513889,8.10395824 44.0418245,8.50848195 43.6322601,8.50848195 C43.2226957,8.50848195 42.8131313,8.10395824 42.8131313,7.69943454 C42.8131313,7.29491083 43.2226957,6.89038712 43.6322601,6.89038712 Z M40.3557449,6.89038712 C40.7653093,6.89038712 41.1748737,7.29491083 41.1748737,7.69943454 C41.1748737,8.10395824 40.7653093,8.50848195 40.3557449,8.50848195 C39.9461806,8.50848195 39.5366162,8.10395824 39.5366162,7.69943454 C39.5366162,7.29491083 39.9461806,6.89038712 40.3557449,6.89038712 Z M37.0792298,6.89038712 C37.4887942,6.89038712 37.8983586,7.29491083 37.8983586,7.69943454 C37.8983586,8.10395824 37.4887942,8.50848195 37.0792298,8.50848195 C36.6696654,8.50848195 36.260101,8.10395824 36.260101,7.69943454 C36.260101,7.29491083 36.5672743,6.89038712 37.0792298,6.89038712 Z M33.7003235,6.89038712 C34.1098879,6.89038712 34.5194523,7.29491083 34.5194523,7.69943454 C34.5194523,8.10395824 34.1098879,8.50848195 33.7003235,8.50848195 C33.2907592,8.50848195 32.8811948,8.10395824 32.8811948,7.69943454 C32.8811948,7.29491083 33.2907592,6.89038712 33.7003235,6.89038712 Z M30.4238084,6.89038712 C30.8333728,6.89038712 31.2429372,7.29491083 31.2429372,7.69943454 C31.2429372,8.10395824 30.8333728,8.50848195 30.4238084,8.50848195 C30.014244,8.50848195 29.6046796,8.10395824 29.6046796,7.69943454 C29.6046796,7.29491083 29.9118529,6.89038712 30.4238084,6.89038712 Z M27.1472932,6.89038712 C27.5568576,6.89038712 27.966422,7.29491083 27.966422,7.69943454 C27.966422,8.10395824 27.5568576,8.50848195 27.1472932,8.50848195 C26.7377289,8.50848195 26.3281645,8.10395824 26.3281645,7.69943454 C26.3281645,7.29491083 26.6353378,6.89038712 27.1472932,6.89038712 Z M54.2809343,3.95759026 C54.6904987,3.95759026 55.1000631,4.36211396 55.1000631,4.76663767 C55.1000631,5.17116137 54.6904987,5.57568508 54.2809343,5.57568508 C53.8713699,5.57568508 53.4618056,5.17116137 53.4618056,4.76663767 C53.4618056,4.36211396 53.7689789,3.95759026 54.2809343,3.95759026 Z M50.9020281,3.95759026 C51.3115925,3.95759026 51.7211569,4.36211396 51.7211569,4.76663767 C51.7211569,5.17116137 51.3115925,5.57568508 50.9020281,5.57568508 C50.4924637,5.57568508 50.0828993,5.17116137 50.0828993,4.76663767 C50.0828993,4.36211396 50.4924637,3.95759026 50.9020281,3.95759026 Z M47.6255129,3.95759026 C48.0350773,3.95759026 48.4446417,4.36211396 48.4446417,4.76663767 C48.4446417,5.17116137 48.0350773,5.57568508 47.6255129,5.57568508 C47.2159485,5.57568508 46.8063842,5.17116137 46.8063842,4.76663767 C46.8063842,4.36211396 47.2159485,3.95759026 47.6255129,3.95759026 Z M44.3489978,3.95759026 C44.7585622,3.95759026 45.1681266,4.36211396 45.1681266,4.76663767 C45.1681266,5.17116137 44.7585622,5.57568508 44.3489978,5.57568508 C43.9394334,5.57568508 43.529869,5.17116137 43.529869,4.76663767 C43.529869,4.36211396 43.8370423,3.95759026 44.3489978,3.95759026 Z M40.9700915,3.95759026 C41.3796559,3.95759026 41.7892203,4.36211396 41.7892203,4.76663767 C41.7892203,5.17116137 41.3796559,5.57568508 40.9700915,5.57568508 C40.5605271,5.57568508 40.1509628,5.17116137 40.1509628,4.76663767 C40.1509628,4.36211396 40.5605271,3.95759026 40.9700915,3.95759026 Z M37.6935764,3.95759026 C38.1031408,3.95759026 38.5127052,4.36211396 38.5127052,4.76663767 C38.5127052,5.17116137 38.1031408,5.57568508 37.6935764,5.57568508 C37.284012,5.57568508 36.8744476,5.17116137 36.8744476,4.76663767 C36.8744476,4.36211396 37.284012,3.95759026 37.6935764,3.95759026 Z M34.4170612,3.95759026 C34.8266256,3.95759026 35.23619,4.36211396 35.23619,4.76663767 C35.23619,5.17116137 34.8266256,5.57568508 34.4170612,5.57568508 C34.0074968,5.57568508 33.5979324,5.17116137 33.5979324,4.76663767 C33.5979324,4.36211396 33.9051057,3.95759026 34.4170612,3.95759026 Z M31.038155,3.95759026 C31.4477194,3.95759026 31.8572838,4.36211396 31.8572838,4.76663767 C31.8572838,5.17116137 31.4477194,5.57568508 31.038155,5.57568508 C30.6285906,5.57568508 30.2190262,5.17116137 30.2190262,4.76663767 C30.2190262,4.36211396 30.6285906,3.95759026 31.038155,3.95759026 Z M27.7616398,3.95759026 C28.1712042,3.95759026 28.5807686,4.36211396 28.5807686,4.76663767 C28.5807686,5.17116137 28.1712042,5.57568508 27.7616398,5.57568508 C27.3520754,5.57568508 26.942511,5.17116137 26.942511,4.76663767 C26.942511,4.36211396 27.3520754,3.95759026 27.7616398,3.95759026 Z" id="Combined-Shape" fill="#646566"></path>
        </g>
    </g>
</svg>