<?xml version="1.0" encoding="UTF-8" standalone="no"?>
<!DOCTYPE svg PUBLIC "-//W3C//DTD SVG 1.1//EN" "http://www.w3.org/Graphics/SVG/1.1/DTD/svg11.dtd">
<svg width="100%" height="100%" viewBox="0 0 140 76" version="1.1" xmlns="http://www.w3.org/2000/svg" xmlns:xlink="http://www.w3.org/1999/xlink" xml:space="preserve" xmlns:serif="http://www.serif.com/" style="fill-rule:evenodd;clip-rule:evenodd;stroke-linejoin:round;stroke-miterlimit:1.41421;">
    <g transform="matrix(1,0,0,1,-623,-448)">
        <g id="_--Capture-Threat-Res" serif:id="•-Capture-Threat-Res" transform="matrix(1,0,0,1,43.6315,0)">
            <g transform="matrix(1,0,0,1,579,457)">
                <path d="M2.064,-1.338C1.728,-1.526 1.462,-1.782 1.266,-2.106C1.07,-2.43 0.972,-2.788 0.972,-3.18C0.972,-3.548 1.066,-3.896 1.254,-4.224C1.442,-4.552 1.702,-4.816 2.034,-5.016C2.366,-5.216 2.736,-5.316 3.144,-5.316C3.528,-5.316 3.886,-5.222 4.218,-5.034C4.55,-4.846 4.816,-4.59 5.016,-4.266C5.216,-3.942 5.316,-3.58 5.316,-3.18C5.316,-2.796 5.218,-2.442 5.022,-2.118C4.826,-1.794 4.562,-1.536 4.23,-1.344C3.898,-1.152 3.536,-1.056 3.144,-1.056C2.76,-1.056 2.4,-1.15 2.064,-1.338Z" style="fill-rule:nonzero;"/>
                <path d="M11.874,-0.426C11.294,-0.774 10.85,-1.274 10.542,-1.926C10.234,-2.578 10.08,-3.348 10.08,-4.236C10.08,-5.124 10.234,-5.892 10.542,-6.54C10.85,-7.188 11.294,-7.686 11.874,-8.034C12.454,-8.382 13.136,-8.556 13.92,-8.556C14.456,-8.556 14.966,-8.466 15.45,-8.286C15.934,-8.106 16.344,-7.848 16.68,-7.512C16.792,-7.408 16.848,-7.292 16.848,-7.164C16.848,-7.076 16.822,-7 16.77,-6.936C16.718,-6.872 16.66,-6.84 16.596,-6.84C16.516,-6.84 16.424,-6.88 16.32,-6.96C15.888,-7.312 15.496,-7.556 15.144,-7.692C14.792,-7.828 14.38,-7.896 13.908,-7.896C12.94,-7.896 12.19,-7.576 11.658,-6.936C11.126,-6.296 10.86,-5.396 10.86,-4.236C10.86,-3.068 11.126,-2.164 11.658,-1.524C12.19,-0.884 12.94,-0.564 13.908,-0.564C14.38,-0.564 14.792,-0.632 15.144,-0.768C15.496,-0.904 15.888,-1.148 16.32,-1.5C16.44,-1.58 16.532,-1.62 16.596,-1.62C16.66,-1.62 16.718,-1.588 16.77,-1.524C16.822,-1.46 16.848,-1.384 16.848,-1.296C16.848,-1.168 16.792,-1.052 16.68,-0.948C16.344,-0.612 15.934,-0.354 15.45,-0.174C14.966,0.006 14.456,0.096 13.92,0.096C13.136,0.096 12.454,-0.078 11.874,-0.426Z" style="fill-rule:nonzero;"/>
                <path d="M22.158,-5.412C22.506,-5.044 22.68,-4.488 22.68,-3.744L22.68,-0.324C22.68,-0.212 22.648,-0.122 22.584,-0.054C22.52,0.014 22.432,0.048 22.32,0.048C22.208,0.048 22.12,0.014 22.056,-0.054C21.992,-0.122 21.96,-0.212 21.96,-0.324L21.96,-1.044C21.792,-0.684 21.548,-0.406 21.228,-0.21C20.908,-0.014 20.54,0.084 20.124,0.084C19.748,0.084 19.404,0.008 19.092,-0.144C18.78,-0.296 18.534,-0.508 18.354,-0.78C18.174,-1.052 18.084,-1.352 18.084,-1.68C18.084,-2.112 18.196,-2.448 18.42,-2.688C18.644,-2.928 19.016,-3.1 19.536,-3.204C20.056,-3.308 20.78,-3.36 21.708,-3.36L21.96,-3.36L21.96,-3.804C21.96,-4.332 21.852,-4.718 21.636,-4.962C21.42,-5.206 21.08,-5.328 20.616,-5.328C20.024,-5.328 19.46,-5.172 18.924,-4.86C18.9,-4.844 18.838,-4.802 18.738,-4.734C18.638,-4.666 18.552,-4.632 18.48,-4.632C18.4,-4.632 18.334,-4.662 18.282,-4.722C18.23,-4.782 18.204,-4.856 18.204,-4.944C18.204,-5.12 18.344,-5.292 18.624,-5.46C18.904,-5.62 19.216,-5.744 19.56,-5.832C19.904,-5.92 20.244,-5.964 20.58,-5.964C21.284,-5.964 21.81,-5.78 22.158,-5.412ZM21.462,-1.08C21.794,-1.432 21.96,-1.88 21.96,-2.424L21.96,-2.82L21.732,-2.82C20.964,-2.82 20.376,-2.788 19.968,-2.724C19.56,-2.66 19.272,-2.55 19.104,-2.394C18.936,-2.238 18.852,-2.012 18.852,-1.716C18.852,-1.38 18.98,-1.102 19.236,-0.882C19.492,-0.662 19.808,-0.552 20.184,-0.552C20.704,-0.552 21.13,-0.728 21.462,-1.08Z" style="fill-rule:nonzero;"/>
                <path d="M28.68,-5.586C29.072,-5.334 29.376,-4.978 29.592,-4.518C29.808,-4.058 29.916,-3.524 29.916,-2.916C29.916,-2.316 29.808,-1.79 29.592,-1.338C29.376,-0.886 29.072,-0.536 28.68,-0.288C28.288,-0.04 27.836,0.084 27.324,0.084C26.852,0.084 26.444,-0.018 26.1,-0.222C25.756,-0.426 25.496,-0.724 25.32,-1.116L25.32,1.848C25.32,1.96 25.288,2.05 25.224,2.118C25.16,2.186 25.072,2.22 24.96,2.22C24.848,2.22 24.758,2.186 24.69,2.118C24.622,2.05 24.588,1.96 24.588,1.848L24.588,-5.568C24.588,-5.68 24.622,-5.77 24.69,-5.838C24.758,-5.906 24.848,-5.94 24.96,-5.94C25.072,-5.94 25.16,-5.906 25.224,-5.838C25.288,-5.77 25.32,-5.68 25.32,-5.568L25.32,-4.764C25.496,-5.156 25.756,-5.454 26.1,-5.658C26.444,-5.862 26.852,-5.964 27.324,-5.964C27.836,-5.964 28.288,-5.838 28.68,-5.586ZM28.65,-1.182C28.99,-1.594 29.16,-2.172 29.16,-2.916C29.16,-3.676 28.99,-4.268 28.65,-4.692C28.31,-5.116 27.836,-5.328 27.228,-5.328C26.62,-5.328 26.15,-5.12 25.818,-4.704C25.486,-4.288 25.32,-3.7 25.32,-2.94C25.32,-2.18 25.484,-1.594 25.812,-1.182C26.14,-0.77 26.608,-0.564 27.216,-0.564C27.832,-0.564 28.31,-0.77 28.65,-1.182Z" style="fill-rule:nonzero;"/>
                <path d="M34.332,-0.24C34.332,-0.144 34.296,-0.068 34.224,-0.012C34.152,0.044 34.036,0.068 33.876,0.06L33.54,0.036C32.932,-0.004 32.482,-0.19 32.19,-0.522C31.898,-0.854 31.752,-1.36 31.752,-2.04L31.752,-5.232L30.84,-5.232C30.744,-5.232 30.668,-5.258 30.612,-5.31C30.556,-5.362 30.528,-5.432 30.528,-5.52C30.528,-5.608 30.556,-5.68 30.612,-5.736C30.668,-5.792 30.744,-5.82 30.84,-5.82L31.752,-5.82L31.752,-7.308C31.752,-7.428 31.784,-7.52 31.848,-7.584C31.912,-7.648 32,-7.68 32.112,-7.68C32.224,-7.68 32.314,-7.648 32.382,-7.584C32.45,-7.52 32.484,-7.428 32.484,-7.308L32.484,-5.82L33.936,-5.82C34.04,-5.82 34.12,-5.792 34.176,-5.736C34.232,-5.68 34.26,-5.608 34.26,-5.52C34.26,-5.432 34.232,-5.362 34.176,-5.31C34.12,-5.258 34.04,-5.232 33.936,-5.232L32.484,-5.232L32.484,-2.004C32.484,-1.508 32.58,-1.154 32.772,-0.942C32.964,-0.73 33.264,-0.608 33.672,-0.576L33.996,-0.552C34.22,-0.528 34.332,-0.424 34.332,-0.24Z" style="fill-rule:nonzero;"/>
                <path d="M40.002,-5.838C40.07,-5.77 40.104,-5.68 40.104,-5.568L40.104,-0.312C40.104,-0.2 40.07,-0.11 40.002,-0.042C39.934,0.026 39.844,0.06 39.732,0.06C39.628,0.06 39.544,0.026 39.48,-0.042C39.416,-0.11 39.384,-0.2 39.384,-0.312L39.384,-1.044C39.2,-0.676 38.938,-0.396 38.598,-0.204C38.258,-0.012 37.872,0.084 37.44,0.084C36.752,0.084 36.234,-0.106 35.886,-0.486C35.538,-0.866 35.364,-1.428 35.364,-2.172L35.364,-5.568C35.364,-5.68 35.398,-5.77 35.466,-5.838C35.534,-5.906 35.624,-5.94 35.736,-5.94C35.848,-5.94 35.936,-5.906 36,-5.838C36.064,-5.77 36.096,-5.68 36.096,-5.568L36.096,-2.22C36.096,-1.652 36.21,-1.234 36.438,-0.966C36.666,-0.698 37.024,-0.564 37.512,-0.564C38.072,-0.564 38.522,-0.742 38.862,-1.098C39.202,-1.454 39.372,-1.928 39.372,-2.52L39.372,-5.568C39.372,-5.68 39.404,-5.77 39.468,-5.838C39.532,-5.906 39.62,-5.94 39.732,-5.94C39.844,-5.94 39.934,-5.906 40.002,-5.838Z" style="fill-rule:nonzero;"/>
                <path d="M45.06,-5.88C45.124,-5.832 45.156,-5.752 45.156,-5.64C45.156,-5.44 45.036,-5.328 44.796,-5.304L44.436,-5.268C43.868,-5.212 43.446,-5.008 43.17,-4.656C42.894,-4.304 42.756,-3.892 42.756,-3.42L42.756,-0.312C42.756,-0.192 42.724,-0.1 42.66,-0.036C42.596,0.028 42.508,0.06 42.396,0.06C42.284,0.06 42.194,0.028 42.126,-0.036C42.058,-0.1 42.024,-0.192 42.024,-0.312L42.024,-5.568C42.024,-5.688 42.058,-5.78 42.126,-5.844C42.194,-5.908 42.284,-5.94 42.396,-5.94C42.5,-5.94 42.584,-5.908 42.648,-5.844C42.712,-5.78 42.744,-5.692 42.744,-5.58L42.744,-4.8C43.072,-5.488 43.68,-5.864 44.568,-5.928L44.736,-5.94C44.888,-5.948 44.996,-5.928 45.06,-5.88Z" style="fill-rule:nonzero;"/>
                <path d="M50.622,-1.158C50.674,-1.098 50.7,-1.028 50.7,-0.948C50.7,-0.772 50.564,-0.6 50.292,-0.432C49.716,-0.088 49.108,0.084 48.468,0.084C47.58,0.084 46.88,-0.184 46.368,-0.72C45.856,-1.256 45.6,-1.992 45.6,-2.928C45.6,-3.528 45.714,-4.058 45.942,-4.518C46.17,-4.978 46.49,-5.334 46.902,-5.586C47.314,-5.838 47.788,-5.964 48.324,-5.964C49.076,-5.964 49.67,-5.722 50.106,-5.238C50.542,-4.754 50.76,-4.088 50.76,-3.24C50.76,-3.096 50.728,-2.99 50.664,-2.922C50.6,-2.854 50.496,-2.82 50.352,-2.82L46.356,-2.82C46.38,-2.084 46.572,-1.524 46.932,-1.14C47.292,-0.756 47.8,-0.564 48.456,-0.564C48.8,-0.564 49.088,-0.61 49.32,-0.702C49.552,-0.794 49.8,-0.916 50.064,-1.068C50.24,-1.188 50.364,-1.248 50.436,-1.248C50.508,-1.248 50.57,-1.218 50.622,-1.158ZM46.98,-4.836C46.644,-4.484 46.444,-3.992 46.38,-3.36L50.088,-3.36C50.072,-4 49.912,-4.494 49.608,-4.842C49.304,-5.19 48.876,-5.364 48.324,-5.364C47.764,-5.364 47.316,-5.188 46.98,-4.836Z" style="fill-rule:nonzero;"/>
                <path d="M57.624,-0.048C57.56,-0.12 57.528,-0.212 57.528,-0.324L57.528,-7.812L54.756,-7.812C54.652,-7.812 54.57,-7.84 54.51,-7.896C54.45,-7.952 54.42,-8.032 54.42,-8.136C54.42,-8.24 54.45,-8.32 54.51,-8.376C54.57,-8.432 54.652,-8.46 54.756,-8.46L61.02,-8.46C61.116,-8.46 61.196,-8.43 61.26,-8.37C61.324,-8.31 61.356,-8.232 61.356,-8.136C61.356,-8.04 61.324,-7.962 61.26,-7.902C61.196,-7.842 61.116,-7.812 61.02,-7.812L58.26,-7.812L58.26,-0.324C58.26,-0.212 58.226,-0.12 58.158,-0.048C58.09,0.024 58,0.06 57.888,0.06C57.776,0.06 57.688,0.024 57.624,-0.048Z" style="fill-rule:nonzero;"/>
                <path d="M67.212,-3.708L67.212,-0.312C67.212,-0.2 67.18,-0.11 67.116,-0.042C67.052,0.026 66.964,0.06 66.852,0.06C66.74,0.06 66.65,0.026 66.582,-0.042C66.514,-0.11 66.48,-0.2 66.48,-0.312L66.48,-3.66C66.48,-4.236 66.364,-4.656 66.132,-4.92C65.9,-5.184 65.532,-5.316 65.028,-5.316C64.452,-5.316 63.99,-5.14 63.642,-4.788C63.294,-4.436 63.12,-3.964 63.12,-3.372L63.12,-0.312C63.12,-0.2 63.088,-0.11 63.024,-0.042C62.96,0.026 62.872,0.06 62.76,0.06C62.648,0.06 62.558,0.026 62.49,-0.042C62.422,-0.11 62.388,-0.2 62.388,-0.312L62.388,-8.148C62.388,-8.26 62.422,-8.35 62.49,-8.418C62.558,-8.486 62.648,-8.52 62.76,-8.52C62.872,-8.52 62.96,-8.486 63.024,-8.418C63.088,-8.35 63.12,-8.26 63.12,-8.148L63.12,-4.848C63.304,-5.208 63.57,-5.484 63.918,-5.676C64.266,-5.868 64.664,-5.964 65.112,-5.964C66.512,-5.964 67.212,-5.212 67.212,-3.708Z" style="fill-rule:nonzero;"/>
                <path d="M72.156,-5.88C72.22,-5.832 72.252,-5.752 72.252,-5.64C72.252,-5.44 72.132,-5.328 71.892,-5.304L71.532,-5.268C70.964,-5.212 70.542,-5.008 70.266,-4.656C69.99,-4.304 69.852,-3.892 69.852,-3.42L69.852,-0.312C69.852,-0.192 69.82,-0.1 69.756,-0.036C69.692,0.028 69.604,0.06 69.492,0.06C69.38,0.06 69.29,0.028 69.222,-0.036C69.154,-0.1 69.12,-0.192 69.12,-0.312L69.12,-5.568C69.12,-5.688 69.154,-5.78 69.222,-5.844C69.29,-5.908 69.38,-5.94 69.492,-5.94C69.596,-5.94 69.68,-5.908 69.744,-5.844C69.808,-5.78 69.84,-5.692 69.84,-5.58L69.84,-4.8C70.168,-5.488 70.776,-5.864 71.664,-5.928L71.832,-5.94C71.984,-5.948 72.092,-5.928 72.156,-5.88Z" style="fill-rule:nonzero;"/>
                <path d="M77.718,-1.158C77.77,-1.098 77.796,-1.028 77.796,-0.948C77.796,-0.772 77.66,-0.6 77.388,-0.432C76.812,-0.088 76.204,0.084 75.564,0.084C74.676,0.084 73.976,-0.184 73.464,-0.72C72.952,-1.256 72.696,-1.992 72.696,-2.928C72.696,-3.528 72.81,-4.058 73.038,-4.518C73.266,-4.978 73.586,-5.334 73.998,-5.586C74.41,-5.838 74.884,-5.964 75.42,-5.964C76.172,-5.964 76.766,-5.722 77.202,-5.238C77.638,-4.754 77.856,-4.088 77.856,-3.24C77.856,-3.096 77.824,-2.99 77.76,-2.922C77.696,-2.854 77.592,-2.82 77.448,-2.82L73.452,-2.82C73.476,-2.084 73.668,-1.524 74.028,-1.14C74.388,-0.756 74.896,-0.564 75.552,-0.564C75.896,-0.564 76.184,-0.61 76.416,-0.702C76.648,-0.794 76.896,-0.916 77.16,-1.068C77.336,-1.188 77.46,-1.248 77.532,-1.248C77.604,-1.248 77.666,-1.218 77.718,-1.158ZM74.076,-4.836C73.74,-4.484 73.54,-3.992 73.476,-3.36L77.184,-3.36C77.168,-4 77.008,-4.494 76.704,-4.842C76.4,-5.19 75.972,-5.364 75.42,-5.364C74.86,-5.364 74.412,-5.188 74.076,-4.836Z" style="fill-rule:nonzero;"/>
                <path d="M83.262,-5.412C83.61,-5.044 83.784,-4.488 83.784,-3.744L83.784,-0.324C83.784,-0.212 83.752,-0.122 83.688,-0.054C83.624,0.014 83.536,0.048 83.424,0.048C83.312,0.048 83.224,0.014 83.16,-0.054C83.096,-0.122 83.064,-0.212 83.064,-0.324L83.064,-1.044C82.896,-0.684 82.652,-0.406 82.332,-0.21C82.012,-0.014 81.644,0.084 81.228,0.084C80.852,0.084 80.508,0.008 80.196,-0.144C79.884,-0.296 79.638,-0.508 79.458,-0.78C79.278,-1.052 79.188,-1.352 79.188,-1.68C79.188,-2.112 79.3,-2.448 79.524,-2.688C79.748,-2.928 80.12,-3.1 80.64,-3.204C81.16,-3.308 81.884,-3.36 82.812,-3.36L83.064,-3.36L83.064,-3.804C83.064,-4.332 82.956,-4.718 82.74,-4.962C82.524,-5.206 82.184,-5.328 81.72,-5.328C81.128,-5.328 80.564,-5.172 80.028,-4.86C80.004,-4.844 79.942,-4.802 79.842,-4.734C79.742,-4.666 79.656,-4.632 79.584,-4.632C79.504,-4.632 79.438,-4.662 79.386,-4.722C79.334,-4.782 79.308,-4.856 79.308,-4.944C79.308,-5.12 79.448,-5.292 79.728,-5.46C80.008,-5.62 80.32,-5.744 80.664,-5.832C81.008,-5.92 81.348,-5.964 81.684,-5.964C82.388,-5.964 82.914,-5.78 83.262,-5.412ZM82.566,-1.08C82.898,-1.432 83.064,-1.88 83.064,-2.424L83.064,-2.82L82.836,-2.82C82.068,-2.82 81.48,-2.788 81.072,-2.724C80.664,-2.66 80.376,-2.55 80.208,-2.394C80.04,-2.238 79.956,-2.012 79.956,-1.716C79.956,-1.38 80.084,-1.102 80.34,-0.882C80.596,-0.662 80.912,-0.552 81.288,-0.552C81.808,-0.552 82.234,-0.728 82.566,-1.08Z" style="fill-rule:nonzero;"/>
                <path d="M88.56,-0.24C88.56,-0.144 88.524,-0.068 88.452,-0.012C88.38,0.044 88.264,0.068 88.104,0.06L87.768,0.036C87.16,-0.004 86.71,-0.19 86.418,-0.522C86.126,-0.854 85.98,-1.36 85.98,-2.04L85.98,-5.232L85.068,-5.232C84.972,-5.232 84.896,-5.258 84.84,-5.31C84.784,-5.362 84.756,-5.432 84.756,-5.52C84.756,-5.608 84.784,-5.68 84.84,-5.736C84.896,-5.792 84.972,-5.82 85.068,-5.82L85.98,-5.82L85.98,-7.308C85.98,-7.428 86.012,-7.52 86.076,-7.584C86.14,-7.648 86.228,-7.68 86.34,-7.68C86.452,-7.68 86.542,-7.648 86.61,-7.584C86.678,-7.52 86.712,-7.428 86.712,-7.308L86.712,-5.82L88.164,-5.82C88.268,-5.82 88.348,-5.792 88.404,-5.736C88.46,-5.68 88.488,-5.608 88.488,-5.52C88.488,-5.432 88.46,-5.362 88.404,-5.31C88.348,-5.258 88.268,-5.232 88.164,-5.232L86.712,-5.232L86.712,-2.004C86.712,-1.508 86.808,-1.154 87,-0.942C87.192,-0.73 87.492,-0.608 87.9,-0.576L88.224,-0.552C88.448,-0.528 88.56,-0.424 88.56,-0.24Z" style="fill-rule:nonzero;"/>
                <path d="M99.168,-0.24C99.168,-0.152 99.134,-0.078 99.066,-0.018C98.998,0.042 98.92,0.072 98.832,0.072C98.696,0.072 98.588,0.008 98.508,-0.12L96.888,-2.712C96.656,-3.08 96.418,-3.332 96.174,-3.468C95.93,-3.604 95.592,-3.672 95.16,-3.672L93.516,-3.672L93.516,-0.324C93.516,-0.204 93.482,-0.11 93.414,-0.042C93.346,0.026 93.256,0.06 93.144,0.06C93.032,0.06 92.942,0.026 92.874,-0.042C92.806,-0.11 92.772,-0.204 92.772,-0.324L92.772,-8.088C92.772,-8.192 92.81,-8.28 92.886,-8.352C92.962,-8.424 93.056,-8.46 93.168,-8.46L96.156,-8.46C97.044,-8.46 97.728,-8.258 98.208,-7.854C98.688,-7.45 98.928,-6.86 98.928,-6.084C98.928,-5.404 98.724,-4.864 98.316,-4.464C97.908,-4.064 97.332,-3.832 96.588,-3.768C96.78,-3.704 96.956,-3.598 97.116,-3.45C97.276,-3.302 97.44,-3.096 97.608,-2.832L99.096,-0.444C99.144,-0.372 99.168,-0.304 99.168,-0.24ZM96.108,-4.308C97.5,-4.308 98.196,-4.904 98.196,-6.096C98.196,-6.68 98.024,-7.114 97.68,-7.398C97.336,-7.682 96.812,-7.824 96.108,-7.824L93.504,-7.824L93.504,-4.308L96.108,-4.308Z" style="fill-rule:nonzero;"/>
                <path d="M105.474,-1.158C105.526,-1.098 105.552,-1.028 105.552,-0.948C105.552,-0.772 105.416,-0.6 105.144,-0.432C104.568,-0.088 103.96,0.084 103.32,0.084C102.432,0.084 101.732,-0.184 101.22,-0.72C100.708,-1.256 100.452,-1.992 100.452,-2.928C100.452,-3.528 100.566,-4.058 100.794,-4.518C101.022,-4.978 101.342,-5.334 101.754,-5.586C102.166,-5.838 102.64,-5.964 103.176,-5.964C103.928,-5.964 104.522,-5.722 104.958,-5.238C105.394,-4.754 105.612,-4.088 105.612,-3.24C105.612,-3.096 105.58,-2.99 105.516,-2.922C105.452,-2.854 105.348,-2.82 105.204,-2.82L101.208,-2.82C101.232,-2.084 101.424,-1.524 101.784,-1.14C102.144,-0.756 102.652,-0.564 103.308,-0.564C103.652,-0.564 103.94,-0.61 104.172,-0.702C104.404,-0.794 104.652,-0.916 104.916,-1.068C105.092,-1.188 105.216,-1.248 105.288,-1.248C105.36,-1.248 105.422,-1.218 105.474,-1.158ZM101.832,-4.836C101.496,-4.484 101.296,-3.992 101.232,-3.36L104.94,-3.36C104.924,-4 104.764,-4.494 104.46,-4.842C104.156,-5.19 103.728,-5.364 103.176,-5.364C102.616,-5.364 102.168,-5.188 101.832,-4.836Z" style="fill-rule:nonzero;"/>
                <path d="M108.03,-0.054C107.706,-0.146 107.42,-0.272 107.172,-0.432C107.02,-0.536 106.914,-0.626 106.854,-0.702C106.794,-0.778 106.764,-0.864 106.764,-0.96C106.764,-1.04 106.79,-1.108 106.842,-1.164C106.894,-1.22 106.956,-1.248 107.028,-1.248C107.1,-1.248 107.224,-1.188 107.4,-1.068C107.632,-0.916 107.87,-0.792 108.114,-0.696C108.358,-0.6 108.664,-0.552 109.032,-0.552C109.504,-0.552 109.872,-0.638 110.136,-0.81C110.4,-0.982 110.532,-1.228 110.532,-1.548C110.532,-1.74 110.484,-1.898 110.388,-2.022C110.292,-2.146 110.132,-2.254 109.908,-2.346C109.684,-2.438 109.364,-2.528 108.948,-2.616C108.236,-2.776 107.73,-2.982 107.43,-3.234C107.13,-3.486 106.98,-3.824 106.98,-4.248C106.98,-4.76 107.18,-5.174 107.58,-5.49C107.98,-5.806 108.5,-5.964 109.14,-5.964C109.452,-5.964 109.75,-5.924 110.034,-5.844C110.318,-5.764 110.564,-5.648 110.772,-5.496C111.052,-5.304 111.192,-5.116 111.192,-4.932C111.192,-4.852 111.166,-4.782 111.114,-4.722C111.062,-4.662 111,-4.632 110.928,-4.632C110.848,-4.632 110.724,-4.696 110.556,-4.824C110.34,-4.976 110.126,-5.098 109.914,-5.19C109.702,-5.282 109.432,-5.328 109.104,-5.328C108.688,-5.328 108.356,-5.234 108.108,-5.046C107.86,-4.858 107.736,-4.604 107.736,-4.284C107.736,-4.1 107.778,-3.948 107.862,-3.828C107.946,-3.708 108.09,-3.602 108.294,-3.51C108.498,-3.418 108.792,-3.328 109.176,-3.24C109.728,-3.112 110.152,-2.976 110.448,-2.832C110.744,-2.688 110.956,-2.516 111.084,-2.316C111.212,-2.116 111.276,-1.86 111.276,-1.548C111.276,-1.06 111.07,-0.666 110.658,-0.366C110.246,-0.066 109.7,0.084 109.02,0.084C108.684,0.084 108.354,0.038 108.03,-0.054Z" style="fill-rule:nonzero;"/>
                <path d="M117.522,-1.158C117.574,-1.098 117.6,-1.028 117.6,-0.948C117.6,-0.772 117.464,-0.6 117.192,-0.432C116.616,-0.088 116.008,0.084 115.368,0.084C114.48,0.084 113.78,-0.184 113.268,-0.72C112.756,-1.256 112.5,-1.992 112.5,-2.928C112.5,-3.528 112.614,-4.058 112.842,-4.518C113.07,-4.978 113.39,-5.334 113.802,-5.586C114.214,-5.838 114.688,-5.964 115.224,-5.964C115.976,-5.964 116.57,-5.722 117.006,-5.238C117.442,-4.754 117.66,-4.088 117.66,-3.24C117.66,-3.096 117.628,-2.99 117.564,-2.922C117.5,-2.854 117.396,-2.82 117.252,-2.82L113.256,-2.82C113.28,-2.084 113.472,-1.524 113.832,-1.14C114.192,-0.756 114.7,-0.564 115.356,-0.564C115.7,-0.564 115.988,-0.61 116.22,-0.702C116.452,-0.794 116.7,-0.916 116.964,-1.068C117.14,-1.188 117.264,-1.248 117.336,-1.248C117.408,-1.248 117.47,-1.218 117.522,-1.158ZM113.88,-4.836C113.544,-4.484 113.344,-3.992 113.28,-3.36L116.988,-3.36C116.972,-4 116.812,-4.494 116.508,-4.842C116.204,-5.19 115.776,-5.364 115.224,-5.364C114.664,-5.364 114.216,-5.188 113.88,-4.836Z" style="fill-rule:nonzero;"/>
                <path d="M123.066,-5.412C123.414,-5.044 123.588,-4.488 123.588,-3.744L123.588,-0.324C123.588,-0.212 123.556,-0.122 123.492,-0.054C123.428,0.014 123.34,0.048 123.228,0.048C123.116,0.048 123.028,0.014 122.964,-0.054C122.9,-0.122 122.868,-0.212 122.868,-0.324L122.868,-1.044C122.7,-0.684 122.456,-0.406 122.136,-0.21C121.816,-0.014 121.448,0.084 121.032,0.084C120.656,0.084 120.312,0.008 120,-0.144C119.688,-0.296 119.442,-0.508 119.262,-0.78C119.082,-1.052 118.992,-1.352 118.992,-1.68C118.992,-2.112 119.104,-2.448 119.328,-2.688C119.552,-2.928 119.924,-3.1 120.444,-3.204C120.964,-3.308 121.688,-3.36 122.616,-3.36L122.868,-3.36L122.868,-3.804C122.868,-4.332 122.76,-4.718 122.544,-4.962C122.328,-5.206 121.988,-5.328 121.524,-5.328C120.932,-5.328 120.368,-5.172 119.832,-4.86C119.808,-4.844 119.746,-4.802 119.646,-4.734C119.546,-4.666 119.46,-4.632 119.388,-4.632C119.308,-4.632 119.242,-4.662 119.19,-4.722C119.138,-4.782 119.112,-4.856 119.112,-4.944C119.112,-5.12 119.252,-5.292 119.532,-5.46C119.812,-5.62 120.124,-5.744 120.468,-5.832C120.812,-5.92 121.152,-5.964 121.488,-5.964C122.192,-5.964 122.718,-5.78 123.066,-5.412ZM122.37,-1.08C122.702,-1.432 122.868,-1.88 122.868,-2.424L122.868,-2.82L122.64,-2.82C121.872,-2.82 121.284,-2.788 120.876,-2.724C120.468,-2.66 120.18,-2.55 120.012,-2.394C119.844,-2.238 119.76,-2.012 119.76,-1.716C119.76,-1.38 119.888,-1.102 120.144,-0.882C120.4,-0.662 120.716,-0.552 121.092,-0.552C121.612,-0.552 122.038,-0.728 122.37,-1.08Z" style="fill-rule:nonzero;"/>
                <path d="M128.532,-5.88C128.596,-5.832 128.628,-5.752 128.628,-5.64C128.628,-5.44 128.508,-5.328 128.268,-5.304L127.908,-5.268C127.34,-5.212 126.918,-5.008 126.642,-4.656C126.366,-4.304 126.228,-3.892 126.228,-3.42L126.228,-0.312C126.228,-0.192 126.196,-0.1 126.132,-0.036C126.068,0.028 125.98,0.06 125.868,0.06C125.756,0.06 125.666,0.028 125.598,-0.036C125.53,-0.1 125.496,-0.192 125.496,-0.312L125.496,-5.568C125.496,-5.688 125.53,-5.78 125.598,-5.844C125.666,-5.908 125.756,-5.94 125.868,-5.94C125.972,-5.94 126.056,-5.908 126.12,-5.844C126.184,-5.78 126.216,-5.692 126.216,-5.58L126.216,-4.8C126.544,-5.488 127.152,-5.864 128.04,-5.928L128.208,-5.94C128.36,-5.948 128.468,-5.928 128.532,-5.88Z" style="fill-rule:nonzero;"/>
                <path d="M130.356,-0.288C129.948,-0.536 129.632,-0.888 129.408,-1.344C129.184,-1.8 129.072,-2.324 129.072,-2.916C129.072,-3.516 129.186,-4.046 129.414,-4.506C129.642,-4.966 129.962,-5.324 130.374,-5.58C130.786,-5.836 131.26,-5.964 131.796,-5.964C132.1,-5.964 132.396,-5.924 132.684,-5.844C132.972,-5.764 133.228,-5.644 133.452,-5.484C133.596,-5.38 133.698,-5.286 133.758,-5.202C133.818,-5.118 133.848,-5.028 133.848,-4.932C133.848,-4.844 133.824,-4.772 133.776,-4.716C133.728,-4.66 133.668,-4.632 133.596,-4.632C133.516,-4.632 133.388,-4.7 133.212,-4.836C133.004,-4.988 132.796,-5.108 132.588,-5.196C132.38,-5.284 132.128,-5.328 131.832,-5.328C131.208,-5.328 130.72,-5.114 130.368,-4.686C130.016,-4.258 129.84,-3.668 129.84,-2.916C129.84,-2.172 130.014,-1.594 130.362,-1.182C130.71,-0.77 131.196,-0.564 131.82,-0.564C132.124,-0.564 132.378,-0.608 132.582,-0.696C132.786,-0.784 133.008,-0.904 133.248,-1.056C133.32,-1.104 133.39,-1.148 133.458,-1.188C133.526,-1.228 133.58,-1.248 133.62,-1.248C133.7,-1.248 133.764,-1.22 133.812,-1.164C133.86,-1.108 133.884,-1.04 133.884,-0.96C133.884,-0.864 133.856,-0.78 133.8,-0.708C133.744,-0.636 133.636,-0.544 133.476,-0.432C133.26,-0.272 132.998,-0.146 132.69,-0.054C132.382,0.038 132.076,0.084 131.772,0.084C131.236,0.084 130.764,-0.04 130.356,-0.288Z" style="fill-rule:nonzero;"/>
                <path d="M139.968,-3.708L139.968,-0.312C139.968,-0.2 139.936,-0.11 139.872,-0.042C139.808,0.026 139.72,0.06 139.608,0.06C139.496,0.06 139.406,0.026 139.338,-0.042C139.27,-0.11 139.236,-0.2 139.236,-0.312L139.236,-3.66C139.236,-4.236 139.12,-4.656 138.888,-4.92C138.656,-5.184 138.288,-5.316 137.784,-5.316C137.208,-5.316 136.746,-5.14 136.398,-4.788C136.05,-4.436 135.876,-3.964 135.876,-3.372L135.876,-0.312C135.876,-0.2 135.844,-0.11 135.78,-0.042C135.716,0.026 135.628,0.06 135.516,0.06C135.404,0.06 135.314,0.026 135.246,-0.042C135.178,-0.11 135.144,-0.2 135.144,-0.312L135.144,-8.148C135.144,-8.26 135.178,-8.35 135.246,-8.418C135.314,-8.486 135.404,-8.52 135.516,-8.52C135.628,-8.52 135.716,-8.486 135.78,-8.418C135.844,-8.35 135.876,-8.26 135.876,-8.148L135.876,-4.848C136.06,-5.208 136.326,-5.484 136.674,-5.676C137.022,-5.868 137.42,-5.964 137.868,-5.964C139.268,-5.964 139.968,-5.212 139.968,-3.708Z" style="fill-rule:nonzero;"/>
            </g>
            <g transform="matrix(1,0,0,1,579,473)">
                <path d="M2.064,-1.338C1.728,-1.526 1.462,-1.782 1.266,-2.106C1.07,-2.43 0.972,-2.788 0.972,-3.18C0.972,-3.548 1.066,-3.896 1.254,-4.224C1.442,-4.552 1.702,-4.816 2.034,-5.016C2.366,-5.216 2.736,-5.316 3.144,-5.316C3.528,-5.316 3.886,-5.222 4.218,-5.034C4.55,-4.846 4.816,-4.59 5.016,-4.266C5.216,-3.942 5.316,-3.58 5.316,-3.18C5.316,-2.796 5.218,-2.442 5.022,-2.118C4.826,-1.794 4.562,-1.536 4.23,-1.344C3.898,-1.152 3.536,-1.056 3.144,-1.056C2.76,-1.056 2.4,-1.15 2.064,-1.338Z" style="fill-rule:nonzero;"/>
                <path d="M11.874,-0.426C11.294,-0.774 10.85,-1.274 10.542,-1.926C10.234,-2.578 10.08,-3.348 10.08,-4.236C10.08,-5.124 10.234,-5.892 10.542,-6.54C10.85,-7.188 11.294,-7.686 11.874,-8.034C12.454,-8.382 13.136,-8.556 13.92,-8.556C14.456,-8.556 14.966,-8.466 15.45,-8.286C15.934,-8.106 16.344,-7.848 16.68,-7.512C16.792,-7.408 16.848,-7.292 16.848,-7.164C16.848,-7.076 16.822,-7 16.77,-6.936C16.718,-6.872 16.66,-6.84 16.596,-6.84C16.516,-6.84 16.424,-6.88 16.32,-6.96C15.888,-7.312 15.496,-7.556 15.144,-7.692C14.792,-7.828 14.38,-7.896 13.908,-7.896C12.94,-7.896 12.19,-7.576 11.658,-6.936C11.126,-6.296 10.86,-5.396 10.86,-4.236C10.86,-3.068 11.126,-2.164 11.658,-1.524C12.19,-0.884 12.94,-0.564 13.908,-0.564C14.38,-0.564 14.792,-0.632 15.144,-0.768C15.496,-0.904 15.888,-1.148 16.32,-1.5C16.44,-1.58 16.532,-1.62 16.596,-1.62C16.66,-1.62 16.718,-1.588 16.77,-1.524C16.822,-1.46 16.848,-1.384 16.848,-1.296C16.848,-1.168 16.792,-1.052 16.68,-0.948C16.344,-0.612 15.934,-0.354 15.45,-0.174C14.966,0.006 14.456,0.096 13.92,0.096C13.136,0.096 12.454,-0.078 11.874,-0.426Z" style="fill-rule:nonzero;"/>
                <path d="M22.158,-5.412C22.506,-5.044 22.68,-4.488 22.68,-3.744L22.68,-0.324C22.68,-0.212 22.648,-0.122 22.584,-0.054C22.52,0.014 22.432,0.048 22.32,0.048C22.208,0.048 22.12,0.014 22.056,-0.054C21.992,-0.122 21.96,-0.212 21.96,-0.324L21.96,-1.044C21.792,-0.684 21.548,-0.406 21.228,-0.21C20.908,-0.014 20.54,0.084 20.124,0.084C19.748,0.084 19.404,0.008 19.092,-0.144C18.78,-0.296 18.534,-0.508 18.354,-0.78C18.174,-1.052 18.084,-1.352 18.084,-1.68C18.084,-2.112 18.196,-2.448 18.42,-2.688C18.644,-2.928 19.016,-3.1 19.536,-3.204C20.056,-3.308 20.78,-3.36 21.708,-3.36L21.96,-3.36L21.96,-3.804C21.96,-4.332 21.852,-4.718 21.636,-4.962C21.42,-5.206 21.08,-5.328 20.616,-5.328C20.024,-5.328 19.46,-5.172 18.924,-4.86C18.9,-4.844 18.838,-4.802 18.738,-4.734C18.638,-4.666 18.552,-4.632 18.48,-4.632C18.4,-4.632 18.334,-4.662 18.282,-4.722C18.23,-4.782 18.204,-4.856 18.204,-4.944C18.204,-5.12 18.344,-5.292 18.624,-5.46C18.904,-5.62 19.216,-5.744 19.56,-5.832C19.904,-5.92 20.244,-5.964 20.58,-5.964C21.284,-5.964 21.81,-5.78 22.158,-5.412ZM21.462,-1.08C21.794,-1.432 21.96,-1.88 21.96,-2.424L21.96,-2.82L21.732,-2.82C20.964,-2.82 20.376,-2.788 19.968,-2.724C19.56,-2.66 19.272,-2.55 19.104,-2.394C18.936,-2.238 18.852,-2.012 18.852,-1.716C18.852,-1.38 18.98,-1.102 19.236,-0.882C19.492,-0.662 19.808,-0.552 20.184,-0.552C20.704,-0.552 21.13,-0.728 21.462,-1.08Z" style="fill-rule:nonzero;"/>
                <path d="M28.68,-5.586C29.072,-5.334 29.376,-4.978 29.592,-4.518C29.808,-4.058 29.916,-3.524 29.916,-2.916C29.916,-2.316 29.808,-1.79 29.592,-1.338C29.376,-0.886 29.072,-0.536 28.68,-0.288C28.288,-0.04 27.836,0.084 27.324,0.084C26.852,0.084 26.444,-0.018 26.1,-0.222C25.756,-0.426 25.496,-0.724 25.32,-1.116L25.32,1.848C25.32,1.96 25.288,2.05 25.224,2.118C25.16,2.186 25.072,2.22 24.96,2.22C24.848,2.22 24.758,2.186 24.69,2.118C24.622,2.05 24.588,1.96 24.588,1.848L24.588,-5.568C24.588,-5.68 24.622,-5.77 24.69,-5.838C24.758,-5.906 24.848,-5.94 24.96,-5.94C25.072,-5.94 25.16,-5.906 25.224,-5.838C25.288,-5.77 25.32,-5.68 25.32,-5.568L25.32,-4.764C25.496,-5.156 25.756,-5.454 26.1,-5.658C26.444,-5.862 26.852,-5.964 27.324,-5.964C27.836,-5.964 28.288,-5.838 28.68,-5.586ZM28.65,-1.182C28.99,-1.594 29.16,-2.172 29.16,-2.916C29.16,-3.676 28.99,-4.268 28.65,-4.692C28.31,-5.116 27.836,-5.328 27.228,-5.328C26.62,-5.328 26.15,-5.12 25.818,-4.704C25.486,-4.288 25.32,-3.7 25.32,-2.94C25.32,-2.18 25.484,-1.594 25.812,-1.182C26.14,-0.77 26.608,-0.564 27.216,-0.564C27.832,-0.564 28.31,-0.77 28.65,-1.182Z" style="fill-rule:nonzero;"/>
                <path d="M34.332,-0.24C34.332,-0.144 34.296,-0.068 34.224,-0.012C34.152,0.044 34.036,0.068 33.876,0.06L33.54,0.036C32.932,-0.004 32.482,-0.19 32.19,-0.522C31.898,-0.854 31.752,-1.36 31.752,-2.04L31.752,-5.232L30.84,-5.232C30.744,-5.232 30.668,-5.258 30.612,-5.31C30.556,-5.362 30.528,-5.432 30.528,-5.52C30.528,-5.608 30.556,-5.68 30.612,-5.736C30.668,-5.792 30.744,-5.82 30.84,-5.82L31.752,-5.82L31.752,-7.308C31.752,-7.428 31.784,-7.52 31.848,-7.584C31.912,-7.648 32,-7.68 32.112,-7.68C32.224,-7.68 32.314,-7.648 32.382,-7.584C32.45,-7.52 32.484,-7.428 32.484,-7.308L32.484,-5.82L33.936,-5.82C34.04,-5.82 34.12,-5.792 34.176,-5.736C34.232,-5.68 34.26,-5.608 34.26,-5.52C34.26,-5.432 34.232,-5.362 34.176,-5.31C34.12,-5.258 34.04,-5.232 33.936,-5.232L32.484,-5.232L32.484,-2.004C32.484,-1.508 32.58,-1.154 32.772,-0.942C32.964,-0.73 33.264,-0.608 33.672,-0.576L33.996,-0.552C34.22,-0.528 34.332,-0.424 34.332,-0.24Z" style="fill-rule:nonzero;"/>
                <path d="M40.002,-5.838C40.07,-5.77 40.104,-5.68 40.104,-5.568L40.104,-0.312C40.104,-0.2 40.07,-0.11 40.002,-0.042C39.934,0.026 39.844,0.06 39.732,0.06C39.628,0.06 39.544,0.026 39.48,-0.042C39.416,-0.11 39.384,-0.2 39.384,-0.312L39.384,-1.044C39.2,-0.676 38.938,-0.396 38.598,-0.204C38.258,-0.012 37.872,0.084 37.44,0.084C36.752,0.084 36.234,-0.106 35.886,-0.486C35.538,-0.866 35.364,-1.428 35.364,-2.172L35.364,-5.568C35.364,-5.68 35.398,-5.77 35.466,-5.838C35.534,-5.906 35.624,-5.94 35.736,-5.94C35.848,-5.94 35.936,-5.906 36,-5.838C36.064,-5.77 36.096,-5.68 36.096,-5.568L36.096,-2.22C36.096,-1.652 36.21,-1.234 36.438,-0.966C36.666,-0.698 37.024,-0.564 37.512,-0.564C38.072,-0.564 38.522,-0.742 38.862,-1.098C39.202,-1.454 39.372,-1.928 39.372,-2.52L39.372,-5.568C39.372,-5.68 39.404,-5.77 39.468,-5.838C39.532,-5.906 39.62,-5.94 39.732,-5.94C39.844,-5.94 39.934,-5.906 40.002,-5.838Z" style="fill-rule:nonzero;"/>
                <path d="M45.06,-5.88C45.124,-5.832 45.156,-5.752 45.156,-5.64C45.156,-5.44 45.036,-5.328 44.796,-5.304L44.436,-5.268C43.868,-5.212 43.446,-5.008 43.17,-4.656C42.894,-4.304 42.756,-3.892 42.756,-3.42L42.756,-0.312C42.756,-0.192 42.724,-0.1 42.66,-0.036C42.596,0.028 42.508,0.06 42.396,0.06C42.284,0.06 42.194,0.028 42.126,-0.036C42.058,-0.1 42.024,-0.192 42.024,-0.312L42.024,-5.568C42.024,-5.688 42.058,-5.78 42.126,-5.844C42.194,-5.908 42.284,-5.94 42.396,-5.94C42.5,-5.94 42.584,-5.908 42.648,-5.844C42.712,-5.78 42.744,-5.692 42.744,-5.58L42.744,-4.8C43.072,-5.488 43.68,-5.864 44.568,-5.928L44.736,-5.94C44.888,-5.948 44.996,-5.928 45.06,-5.88Z" style="fill-rule:nonzero;"/>
                <path d="M50.622,-1.158C50.674,-1.098 50.7,-1.028 50.7,-0.948C50.7,-0.772 50.564,-0.6 50.292,-0.432C49.716,-0.088 49.108,0.084 48.468,0.084C47.58,0.084 46.88,-0.184 46.368,-0.72C45.856,-1.256 45.6,-1.992 45.6,-2.928C45.6,-3.528 45.714,-4.058 45.942,-4.518C46.17,-4.978 46.49,-5.334 46.902,-5.586C47.314,-5.838 47.788,-5.964 48.324,-5.964C49.076,-5.964 49.67,-5.722 50.106,-5.238C50.542,-4.754 50.76,-4.088 50.76,-3.24C50.76,-3.096 50.728,-2.99 50.664,-2.922C50.6,-2.854 50.496,-2.82 50.352,-2.82L46.356,-2.82C46.38,-2.084 46.572,-1.524 46.932,-1.14C47.292,-0.756 47.8,-0.564 48.456,-0.564C48.8,-0.564 49.088,-0.61 49.32,-0.702C49.552,-0.794 49.8,-0.916 50.064,-1.068C50.24,-1.188 50.364,-1.248 50.436,-1.248C50.508,-1.248 50.57,-1.218 50.622,-1.158ZM46.98,-4.836C46.644,-4.484 46.444,-3.992 46.38,-3.36L50.088,-3.36C50.072,-4 49.912,-4.494 49.608,-4.842C49.304,-5.19 48.876,-5.364 48.324,-5.364C47.764,-5.364 47.316,-5.188 46.98,-4.836Z" style="fill-rule:nonzero;"/>
                <path d="M55.554,-0.096C55.478,-0.16 55.44,-0.24 55.44,-0.336L55.44,-8.136C55.44,-8.248 55.474,-8.34 55.542,-8.412C55.61,-8.484 55.7,-8.52 55.812,-8.52C55.932,-8.52 56.024,-8.486 56.088,-8.418C56.152,-8.35 56.184,-8.256 56.184,-8.136L56.184,-0.648L60.288,-0.648C60.392,-0.648 60.474,-0.62 60.534,-0.564C60.594,-0.508 60.624,-0.428 60.624,-0.324C60.624,-0.22 60.594,-0.14 60.534,-0.084C60.474,-0.028 60.392,0 60.288,0L55.824,0C55.72,0 55.63,-0.032 55.554,-0.096Z" style="fill-rule:nonzero;"/>
                <path d="M65.586,-5.412C65.934,-5.044 66.108,-4.488 66.108,-3.744L66.108,-0.324C66.108,-0.212 66.076,-0.122 66.012,-0.054C65.948,0.014 65.86,0.048 65.748,0.048C65.636,0.048 65.548,0.014 65.484,-0.054C65.42,-0.122 65.388,-0.212 65.388,-0.324L65.388,-1.044C65.22,-0.684 64.976,-0.406 64.656,-0.21C64.336,-0.014 63.968,0.084 63.552,0.084C63.176,0.084 62.832,0.008 62.52,-0.144C62.208,-0.296 61.962,-0.508 61.782,-0.78C61.602,-1.052 61.512,-1.352 61.512,-1.68C61.512,-2.112 61.624,-2.448 61.848,-2.688C62.072,-2.928 62.444,-3.1 62.964,-3.204C63.484,-3.308 64.208,-3.36 65.136,-3.36L65.388,-3.36L65.388,-3.804C65.388,-4.332 65.28,-4.718 65.064,-4.962C64.848,-5.206 64.508,-5.328 64.044,-5.328C63.452,-5.328 62.888,-5.172 62.352,-4.86C62.328,-4.844 62.266,-4.802 62.166,-4.734C62.066,-4.666 61.98,-4.632 61.908,-4.632C61.828,-4.632 61.762,-4.662 61.71,-4.722C61.658,-4.782 61.632,-4.856 61.632,-4.944C61.632,-5.12 61.772,-5.292 62.052,-5.46C62.332,-5.62 62.644,-5.744 62.988,-5.832C63.332,-5.92 63.672,-5.964 64.008,-5.964C64.712,-5.964 65.238,-5.78 65.586,-5.412ZM64.89,-1.08C65.222,-1.432 65.388,-1.88 65.388,-2.424L65.388,-2.82L65.16,-2.82C64.392,-2.82 63.804,-2.788 63.396,-2.724C62.988,-2.66 62.7,-2.55 62.532,-2.394C62.364,-2.238 62.28,-2.012 62.28,-1.716C62.28,-1.38 62.408,-1.102 62.664,-0.882C62.92,-0.662 63.236,-0.552 63.612,-0.552C64.132,-0.552 64.558,-0.728 64.89,-1.08Z" style="fill-rule:nonzero;"/>
                <path d="M72.108,-5.592C72.5,-5.344 72.804,-4.994 73.02,-4.542C73.236,-4.09 73.344,-3.564 73.344,-2.964C73.344,-2.356 73.236,-1.822 73.02,-1.362C72.804,-0.902 72.5,-0.546 72.108,-0.294C71.716,-0.042 71.264,0.084 70.752,0.084C70.28,0.084 69.872,-0.018 69.528,-0.222C69.184,-0.426 68.924,-0.724 68.748,-1.116L68.748,-0.324C68.748,-0.212 68.716,-0.122 68.652,-0.054C68.588,0.014 68.5,0.048 68.388,0.048C68.276,0.048 68.186,0.014 68.118,-0.054C68.05,-0.122 68.016,-0.212 68.016,-0.324L68.016,-8.148C68.016,-8.26 68.05,-8.35 68.118,-8.418C68.186,-8.486 68.276,-8.52 68.388,-8.52C68.5,-8.52 68.588,-8.486 68.652,-8.418C68.716,-8.35 68.748,-8.26 68.748,-8.148L68.748,-4.764C68.924,-5.156 69.184,-5.454 69.528,-5.658C69.872,-5.862 70.28,-5.964 70.752,-5.964C71.264,-5.964 71.716,-5.84 72.108,-5.592ZM72.078,-1.2C72.418,-1.624 72.588,-2.212 72.588,-2.964C72.588,-3.716 72.418,-4.298 72.078,-4.71C71.738,-5.122 71.26,-5.328 70.644,-5.328C70.036,-5.328 69.568,-5.12 69.24,-4.704C68.912,-4.288 68.748,-3.7 68.748,-2.94C68.748,-2.18 68.914,-1.594 69.246,-1.182C69.578,-0.77 70.048,-0.564 70.656,-0.564C71.264,-0.564 71.738,-0.776 72.078,-1.2Z" style="fill-rule:nonzero;"/>
                <path d="M75.786,-0.054C75.462,-0.146 75.176,-0.272 74.928,-0.432C74.776,-0.536 74.67,-0.626 74.61,-0.702C74.55,-0.778 74.52,-0.864 74.52,-0.96C74.52,-1.04 74.546,-1.108 74.598,-1.164C74.65,-1.22 74.712,-1.248 74.784,-1.248C74.856,-1.248 74.98,-1.188 75.156,-1.068C75.388,-0.916 75.626,-0.792 75.87,-0.696C76.114,-0.6 76.42,-0.552 76.788,-0.552C77.26,-0.552 77.628,-0.638 77.892,-0.81C78.156,-0.982 78.288,-1.228 78.288,-1.548C78.288,-1.74 78.24,-1.898 78.144,-2.022C78.048,-2.146 77.888,-2.254 77.664,-2.346C77.44,-2.438 77.12,-2.528 76.704,-2.616C75.992,-2.776 75.486,-2.982 75.186,-3.234C74.886,-3.486 74.736,-3.824 74.736,-4.248C74.736,-4.76 74.936,-5.174 75.336,-5.49C75.736,-5.806 76.256,-5.964 76.896,-5.964C77.208,-5.964 77.506,-5.924 77.79,-5.844C78.074,-5.764 78.32,-5.648 78.528,-5.496C78.808,-5.304 78.948,-5.116 78.948,-4.932C78.948,-4.852 78.922,-4.782 78.87,-4.722C78.818,-4.662 78.756,-4.632 78.684,-4.632C78.604,-4.632 78.48,-4.696 78.312,-4.824C78.096,-4.976 77.882,-5.098 77.67,-5.19C77.458,-5.282 77.188,-5.328 76.86,-5.328C76.444,-5.328 76.112,-5.234 75.864,-5.046C75.616,-4.858 75.492,-4.604 75.492,-4.284C75.492,-4.1 75.534,-3.948 75.618,-3.828C75.702,-3.708 75.846,-3.602 76.05,-3.51C76.254,-3.418 76.548,-3.328 76.932,-3.24C77.484,-3.112 77.908,-2.976 78.204,-2.832C78.5,-2.688 78.712,-2.516 78.84,-2.316C78.968,-2.116 79.032,-1.86 79.032,-1.548C79.032,-1.06 78.826,-0.666 78.414,-0.366C78.002,-0.066 77.456,0.084 76.776,0.084C76.44,0.084 76.11,0.038 75.786,-0.054Z" style="fill-rule:nonzero;"/>
            </g>
            <g transform="matrix(1,0,0,1,579,489)">
                <path d="M2.064,-1.338C1.728,-1.526 1.462,-1.782 1.266,-2.106C1.07,-2.43 0.972,-2.788 0.972,-3.18C0.972,-3.548 1.066,-3.896 1.254,-4.224C1.442,-4.552 1.702,-4.816 2.034,-5.016C2.366,-5.216 2.736,-5.316 3.144,-5.316C3.528,-5.316 3.886,-5.222 4.218,-5.034C4.55,-4.846 4.816,-4.59 5.016,-4.266C5.216,-3.942 5.316,-3.58 5.316,-3.18C5.316,-2.796 5.218,-2.442 5.022,-2.118C4.826,-1.794 4.562,-1.536 4.23,-1.344C3.898,-1.152 3.536,-1.056 3.144,-1.056C2.76,-1.056 2.4,-1.15 2.064,-1.338Z" style="fill-rule:nonzero;"/>
                <path d="M11.874,-0.426C11.294,-0.774 10.85,-1.274 10.542,-1.926C10.234,-2.578 10.08,-3.348 10.08,-4.236C10.08,-5.124 10.234,-5.892 10.542,-6.54C10.85,-7.188 11.294,-7.686 11.874,-8.034C12.454,-8.382 13.136,-8.556 13.92,-8.556C14.456,-8.556 14.966,-8.466 15.45,-8.286C15.934,-8.106 16.344,-7.848 16.68,-7.512C16.792,-7.408 16.848,-7.292 16.848,-7.164C16.848,-7.076 16.822,-7 16.77,-6.936C16.718,-6.872 16.66,-6.84 16.596,-6.84C16.516,-6.84 16.424,-6.88 16.32,-6.96C15.888,-7.312 15.496,-7.556 15.144,-7.692C14.792,-7.828 14.38,-7.896 13.908,-7.896C12.94,-7.896 12.19,-7.576 11.658,-6.936C11.126,-6.296 10.86,-5.396 10.86,-4.236C10.86,-3.068 11.126,-2.164 11.658,-1.524C12.19,-0.884 12.94,-0.564 13.908,-0.564C14.38,-0.564 14.792,-0.632 15.144,-0.768C15.496,-0.904 15.888,-1.148 16.32,-1.5C16.44,-1.58 16.532,-1.62 16.596,-1.62C16.66,-1.62 16.718,-1.588 16.77,-1.524C16.822,-1.46 16.848,-1.384 16.848,-1.296C16.848,-1.168 16.792,-1.052 16.68,-0.948C16.344,-0.612 15.934,-0.354 15.45,-0.174C14.966,0.006 14.456,0.096 13.92,0.096C13.136,0.096 12.454,-0.078 11.874,-0.426Z" style="fill-rule:nonzero;"/>
                <path d="M22.158,-5.412C22.506,-5.044 22.68,-4.488 22.68,-3.744L22.68,-0.324C22.68,-0.212 22.648,-0.122 22.584,-0.054C22.52,0.014 22.432,0.048 22.32,0.048C22.208,0.048 22.12,0.014 22.056,-0.054C21.992,-0.122 21.96,-0.212 21.96,-0.324L21.96,-1.044C21.792,-0.684 21.548,-0.406 21.228,-0.21C20.908,-0.014 20.54,0.084 20.124,0.084C19.748,0.084 19.404,0.008 19.092,-0.144C18.78,-0.296 18.534,-0.508 18.354,-0.78C18.174,-1.052 18.084,-1.352 18.084,-1.68C18.084,-2.112 18.196,-2.448 18.42,-2.688C18.644,-2.928 19.016,-3.1 19.536,-3.204C20.056,-3.308 20.78,-3.36 21.708,-3.36L21.96,-3.36L21.96,-3.804C21.96,-4.332 21.852,-4.718 21.636,-4.962C21.42,-5.206 21.08,-5.328 20.616,-5.328C20.024,-5.328 19.46,-5.172 18.924,-4.86C18.9,-4.844 18.838,-4.802 18.738,-4.734C18.638,-4.666 18.552,-4.632 18.48,-4.632C18.4,-4.632 18.334,-4.662 18.282,-4.722C18.23,-4.782 18.204,-4.856 18.204,-4.944C18.204,-5.12 18.344,-5.292 18.624,-5.46C18.904,-5.62 19.216,-5.744 19.56,-5.832C19.904,-5.92 20.244,-5.964 20.58,-5.964C21.284,-5.964 21.81,-5.78 22.158,-5.412ZM21.462,-1.08C21.794,-1.432 21.96,-1.88 21.96,-2.424L21.96,-2.82L21.732,-2.82C20.964,-2.82 20.376,-2.788 19.968,-2.724C19.56,-2.66 19.272,-2.55 19.104,-2.394C18.936,-2.238 18.852,-2.012 18.852,-1.716C18.852,-1.38 18.98,-1.102 19.236,-0.882C19.492,-0.662 19.808,-0.552 20.184,-0.552C20.704,-0.552 21.13,-0.728 21.462,-1.08Z" style="fill-rule:nonzero;"/>
                <path d="M28.68,-5.586C29.072,-5.334 29.376,-4.978 29.592,-4.518C29.808,-4.058 29.916,-3.524 29.916,-2.916C29.916,-2.316 29.808,-1.79 29.592,-1.338C29.376,-0.886 29.072,-0.536 28.68,-0.288C28.288,-0.04 27.836,0.084 27.324,0.084C26.852,0.084 26.444,-0.018 26.1,-0.222C25.756,-0.426 25.496,-0.724 25.32,-1.116L25.32,1.848C25.32,1.96 25.288,2.05 25.224,2.118C25.16,2.186 25.072,2.22 24.96,2.22C24.848,2.22 24.758,2.186 24.69,2.118C24.622,2.05 24.588,1.96 24.588,1.848L24.588,-5.568C24.588,-5.68 24.622,-5.77 24.69,-5.838C24.758,-5.906 24.848,-5.94 24.96,-5.94C25.072,-5.94 25.16,-5.906 25.224,-5.838C25.288,-5.77 25.32,-5.68 25.32,-5.568L25.32,-4.764C25.496,-5.156 25.756,-5.454 26.1,-5.658C26.444,-5.862 26.852,-5.964 27.324,-5.964C27.836,-5.964 28.288,-5.838 28.68,-5.586ZM28.65,-1.182C28.99,-1.594 29.16,-2.172 29.16,-2.916C29.16,-3.676 28.99,-4.268 28.65,-4.692C28.31,-5.116 27.836,-5.328 27.228,-5.328C26.62,-5.328 26.15,-5.12 25.818,-4.704C25.486,-4.288 25.32,-3.7 25.32,-2.94C25.32,-2.18 25.484,-1.594 25.812,-1.182C26.14,-0.77 26.608,-0.564 27.216,-0.564C27.832,-0.564 28.31,-0.77 28.65,-1.182Z" style="fill-rule:nonzero;"/>
                <path d="M34.332,-0.24C34.332,-0.144 34.296,-0.068 34.224,-0.012C34.152,0.044 34.036,0.068 33.876,0.06L33.54,0.036C32.932,-0.004 32.482,-0.19 32.19,-0.522C31.898,-0.854 31.752,-1.36 31.752,-2.04L31.752,-5.232L30.84,-5.232C30.744,-5.232 30.668,-5.258 30.612,-5.31C30.556,-5.362 30.528,-5.432 30.528,-5.52C30.528,-5.608 30.556,-5.68 30.612,-5.736C30.668,-5.792 30.744,-5.82 30.84,-5.82L31.752,-5.82L31.752,-7.308C31.752,-7.428 31.784,-7.52 31.848,-7.584C31.912,-7.648 32,-7.68 32.112,-7.68C32.224,-7.68 32.314,-7.648 32.382,-7.584C32.45,-7.52 32.484,-7.428 32.484,-7.308L32.484,-5.82L33.936,-5.82C34.04,-5.82 34.12,-5.792 34.176,-5.736C34.232,-5.68 34.26,-5.608 34.26,-5.52C34.26,-5.432 34.232,-5.362 34.176,-5.31C34.12,-5.258 34.04,-5.232 33.936,-5.232L32.484,-5.232L32.484,-2.004C32.484,-1.508 32.58,-1.154 32.772,-0.942C32.964,-0.73 33.264,-0.608 33.672,-0.576L33.996,-0.552C34.22,-0.528 34.332,-0.424 34.332,-0.24Z" style="fill-rule:nonzero;"/>
                <path d="M40.002,-5.838C40.07,-5.77 40.104,-5.68 40.104,-5.568L40.104,-0.312C40.104,-0.2 40.07,-0.11 40.002,-0.042C39.934,0.026 39.844,0.06 39.732,0.06C39.628,0.06 39.544,0.026 39.48,-0.042C39.416,-0.11 39.384,-0.2 39.384,-0.312L39.384,-1.044C39.2,-0.676 38.938,-0.396 38.598,-0.204C38.258,-0.012 37.872,0.084 37.44,0.084C36.752,0.084 36.234,-0.106 35.886,-0.486C35.538,-0.866 35.364,-1.428 35.364,-2.172L35.364,-5.568C35.364,-5.68 35.398,-5.77 35.466,-5.838C35.534,-5.906 35.624,-5.94 35.736,-5.94C35.848,-5.94 35.936,-5.906 36,-5.838C36.064,-5.77 36.096,-5.68 36.096,-5.568L36.096,-2.22C36.096,-1.652 36.21,-1.234 36.438,-0.966C36.666,-0.698 37.024,-0.564 37.512,-0.564C38.072,-0.564 38.522,-0.742 38.862,-1.098C39.202,-1.454 39.372,-1.928 39.372,-2.52L39.372,-5.568C39.372,-5.68 39.404,-5.77 39.468,-5.838C39.532,-5.906 39.62,-5.94 39.732,-5.94C39.844,-5.94 39.934,-5.906 40.002,-5.838Z" style="fill-rule:nonzero;"/>
                <path d="M45.06,-5.88C45.124,-5.832 45.156,-5.752 45.156,-5.64C45.156,-5.44 45.036,-5.328 44.796,-5.304L44.436,-5.268C43.868,-5.212 43.446,-5.008 43.17,-4.656C42.894,-4.304 42.756,-3.892 42.756,-3.42L42.756,-0.312C42.756,-0.192 42.724,-0.1 42.66,-0.036C42.596,0.028 42.508,0.06 42.396,0.06C42.284,0.06 42.194,0.028 42.126,-0.036C42.058,-0.1 42.024,-0.192 42.024,-0.312L42.024,-5.568C42.024,-5.688 42.058,-5.78 42.126,-5.844C42.194,-5.908 42.284,-5.94 42.396,-5.94C42.5,-5.94 42.584,-5.908 42.648,-5.844C42.712,-5.78 42.744,-5.692 42.744,-5.58L42.744,-4.8C43.072,-5.488 43.68,-5.864 44.568,-5.928L44.736,-5.94C44.888,-5.948 44.996,-5.928 45.06,-5.88Z" style="fill-rule:nonzero;"/>
                <path d="M50.622,-1.158C50.674,-1.098 50.7,-1.028 50.7,-0.948C50.7,-0.772 50.564,-0.6 50.292,-0.432C49.716,-0.088 49.108,0.084 48.468,0.084C47.58,0.084 46.88,-0.184 46.368,-0.72C45.856,-1.256 45.6,-1.992 45.6,-2.928C45.6,-3.528 45.714,-4.058 45.942,-4.518C46.17,-4.978 46.49,-5.334 46.902,-5.586C47.314,-5.838 47.788,-5.964 48.324,-5.964C49.076,-5.964 49.67,-5.722 50.106,-5.238C50.542,-4.754 50.76,-4.088 50.76,-3.24C50.76,-3.096 50.728,-2.99 50.664,-2.922C50.6,-2.854 50.496,-2.82 50.352,-2.82L46.356,-2.82C46.38,-2.084 46.572,-1.524 46.932,-1.14C47.292,-0.756 47.8,-0.564 48.456,-0.564C48.8,-0.564 49.088,-0.61 49.32,-0.702C49.552,-0.794 49.8,-0.916 50.064,-1.068C50.24,-1.188 50.364,-1.248 50.436,-1.248C50.508,-1.248 50.57,-1.218 50.622,-1.158ZM46.98,-4.836C46.644,-4.484 46.444,-3.992 46.38,-3.36L50.088,-3.36C50.072,-4 49.912,-4.494 49.608,-4.842C49.304,-5.19 48.876,-5.364 48.324,-5.364C47.764,-5.364 47.316,-5.188 46.98,-4.836Z" style="fill-rule:nonzero;"/>
                <path d="M56.334,-0.186C55.786,-0.374 55.356,-0.628 55.044,-0.948C54.94,-1.036 54.888,-1.152 54.888,-1.296C54.888,-1.384 54.914,-1.46 54.966,-1.524C55.018,-1.588 55.076,-1.62 55.14,-1.62C55.22,-1.62 55.312,-1.58 55.416,-1.5C56.168,-0.876 57.044,-0.564 58.044,-0.564C58.772,-0.564 59.334,-0.71 59.73,-1.002C60.126,-1.294 60.324,-1.708 60.324,-2.244C60.324,-2.556 60.228,-2.808 60.036,-3C59.844,-3.192 59.6,-3.342 59.304,-3.45C59.008,-3.558 58.612,-3.668 58.116,-3.78C57.46,-3.924 56.93,-4.072 56.526,-4.224C56.122,-4.376 55.78,-4.606 55.5,-4.914C55.22,-5.222 55.08,-5.636 55.08,-6.156C55.08,-6.628 55.206,-7.046 55.458,-7.41C55.71,-7.774 56.064,-8.056 56.52,-8.256C56.976,-8.456 57.5,-8.556 58.092,-8.556C58.644,-8.556 59.164,-8.466 59.652,-8.286C60.14,-8.106 60.544,-7.848 60.864,-7.512C60.968,-7.408 61.02,-7.292 61.02,-7.164C61.02,-7.076 60.994,-7 60.942,-6.936C60.89,-6.872 60.832,-6.84 60.768,-6.84C60.688,-6.84 60.596,-6.88 60.492,-6.96C60.06,-7.312 59.67,-7.556 59.322,-7.692C58.974,-7.828 58.564,-7.896 58.092,-7.896C57.38,-7.896 56.824,-7.744 56.424,-7.44C56.024,-7.136 55.824,-6.712 55.824,-6.168C55.824,-5.84 55.912,-5.574 56.088,-5.37C56.264,-5.166 56.494,-5.004 56.778,-4.884C57.062,-4.764 57.428,-4.648 57.876,-4.536L58.188,-4.464C58.836,-4.304 59.348,-4.156 59.724,-4.02C60.1,-3.884 60.418,-3.674 60.678,-3.39C60.938,-3.106 61.068,-2.724 61.068,-2.244C61.068,-1.788 60.942,-1.382 60.69,-1.026C60.438,-0.67 60.082,-0.394 59.622,-0.198C59.162,-0.002 58.636,0.096 58.044,0.096C57.452,0.096 56.882,0.002 56.334,-0.186Z" style="fill-rule:nonzero;"/>
                <path d="M66.474,-5.412C66.822,-5.044 66.996,-4.488 66.996,-3.744L66.996,-0.324C66.996,-0.212 66.964,-0.122 66.9,-0.054C66.836,0.014 66.748,0.048 66.636,0.048C66.524,0.048 66.436,0.014 66.372,-0.054C66.308,-0.122 66.276,-0.212 66.276,-0.324L66.276,-1.044C66.108,-0.684 65.864,-0.406 65.544,-0.21C65.224,-0.014 64.856,0.084 64.44,0.084C64.064,0.084 63.72,0.008 63.408,-0.144C63.096,-0.296 62.85,-0.508 62.67,-0.78C62.49,-1.052 62.4,-1.352 62.4,-1.68C62.4,-2.112 62.512,-2.448 62.736,-2.688C62.96,-2.928 63.332,-3.1 63.852,-3.204C64.372,-3.308 65.096,-3.36 66.024,-3.36L66.276,-3.36L66.276,-3.804C66.276,-4.332 66.168,-4.718 65.952,-4.962C65.736,-5.206 65.396,-5.328 64.932,-5.328C64.34,-5.328 63.776,-5.172 63.24,-4.86C63.216,-4.844 63.154,-4.802 63.054,-4.734C62.954,-4.666 62.868,-4.632 62.796,-4.632C62.716,-4.632 62.65,-4.662 62.598,-4.722C62.546,-4.782 62.52,-4.856 62.52,-4.944C62.52,-5.12 62.66,-5.292 62.94,-5.46C63.22,-5.62 63.532,-5.744 63.876,-5.832C64.22,-5.92 64.56,-5.964 64.896,-5.964C65.6,-5.964 66.126,-5.78 66.474,-5.412ZM65.778,-1.08C66.11,-1.432 66.276,-1.88 66.276,-2.424L66.276,-2.82L66.048,-2.82C65.28,-2.82 64.692,-2.788 64.284,-2.724C63.876,-2.66 63.588,-2.55 63.42,-2.394C63.252,-2.238 63.168,-2.012 63.168,-1.716C63.168,-1.38 63.296,-1.102 63.552,-0.882C63.808,-0.662 64.124,-0.552 64.5,-0.552C65.02,-0.552 65.446,-0.728 65.778,-1.08Z" style="fill-rule:nonzero;"/>
                <path d="M73.728,-3.708L73.728,-0.312C73.728,-0.2 73.696,-0.11 73.632,-0.042C73.568,0.026 73.48,0.06 73.368,0.06C73.256,0.06 73.166,0.026 73.098,-0.042C73.03,-0.11 72.996,-0.2 72.996,-0.312L72.996,-3.66C72.996,-4.236 72.88,-4.656 72.648,-4.92C72.416,-5.184 72.048,-5.316 71.544,-5.316C70.968,-5.316 70.506,-5.14 70.158,-4.788C69.81,-4.436 69.636,-3.964 69.636,-3.372L69.636,-0.312C69.636,-0.2 69.604,-0.11 69.54,-0.042C69.476,0.026 69.388,0.06 69.276,0.06C69.164,0.06 69.074,0.026 69.006,-0.042C68.938,-0.11 68.904,-0.2 68.904,-0.312L68.904,-5.568C68.904,-5.68 68.938,-5.77 69.006,-5.838C69.074,-5.906 69.164,-5.94 69.276,-5.94C69.38,-5.94 69.464,-5.908 69.528,-5.844C69.592,-5.78 69.624,-5.692 69.624,-5.58L69.624,-4.824C69.808,-5.192 70.074,-5.474 70.422,-5.67C70.77,-5.866 71.172,-5.964 71.628,-5.964C73.028,-5.964 73.728,-5.212 73.728,-3.708Z" style="fill-rule:nonzero;"/>
                <path d="M80.49,-8.418C80.558,-8.35 80.592,-8.26 80.592,-8.148L80.592,-0.324C80.592,-0.212 80.558,-0.122 80.49,-0.054C80.422,0.014 80.332,0.048 80.22,0.048C80.108,0.048 80.02,0.014 79.956,-0.054C79.892,-0.122 79.86,-0.212 79.86,-0.324L79.86,-1.116C79.684,-0.724 79.424,-0.426 79.08,-0.222C78.736,-0.018 78.328,0.084 77.856,0.084C77.344,0.084 76.892,-0.042 76.5,-0.294C76.108,-0.546 75.804,-0.902 75.588,-1.362C75.372,-1.822 75.264,-2.356 75.264,-2.964C75.264,-3.564 75.372,-4.09 75.588,-4.542C75.804,-4.994 76.108,-5.344 76.5,-5.592C76.892,-5.84 77.344,-5.964 77.856,-5.964C78.328,-5.964 78.736,-5.862 79.08,-5.658C79.424,-5.454 79.684,-5.156 79.86,-4.764L79.86,-8.148C79.86,-8.26 79.892,-8.35 79.956,-8.418C80.02,-8.486 80.108,-8.52 80.22,-8.52C80.332,-8.52 80.422,-8.486 80.49,-8.418ZM79.362,-1.182C79.694,-1.594 79.86,-2.18 79.86,-2.94C79.86,-3.7 79.696,-4.288 79.368,-4.704C79.04,-5.12 78.572,-5.328 77.964,-5.328C77.348,-5.328 76.872,-5.122 76.536,-4.71C76.2,-4.298 76.032,-3.716 76.032,-2.964C76.032,-2.204 76.2,-1.614 76.536,-1.194C76.872,-0.774 77.344,-0.564 77.952,-0.564C78.56,-0.564 79.03,-0.77 79.362,-1.182Z" style="fill-rule:nonzero;"/>
                <path d="M86.604,-5.592C86.996,-5.344 87.3,-4.994 87.516,-4.542C87.732,-4.09 87.84,-3.564 87.84,-2.964C87.84,-2.356 87.732,-1.822 87.516,-1.362C87.3,-0.902 86.996,-0.546 86.604,-0.294C86.212,-0.042 85.76,0.084 85.248,0.084C84.776,0.084 84.368,-0.018 84.024,-0.222C83.68,-0.426 83.42,-0.724 83.244,-1.116L83.244,-0.324C83.244,-0.212 83.212,-0.122 83.148,-0.054C83.084,0.014 82.996,0.048 82.884,0.048C82.772,0.048 82.682,0.014 82.614,-0.054C82.546,-0.122 82.512,-0.212 82.512,-0.324L82.512,-8.148C82.512,-8.26 82.546,-8.35 82.614,-8.418C82.682,-8.486 82.772,-8.52 82.884,-8.52C82.996,-8.52 83.084,-8.486 83.148,-8.418C83.212,-8.35 83.244,-8.26 83.244,-8.148L83.244,-4.764C83.42,-5.156 83.68,-5.454 84.024,-5.658C84.368,-5.862 84.776,-5.964 85.248,-5.964C85.76,-5.964 86.212,-5.84 86.604,-5.592ZM86.574,-1.2C86.914,-1.624 87.084,-2.212 87.084,-2.964C87.084,-3.716 86.914,-4.298 86.574,-4.71C86.234,-5.122 85.756,-5.328 85.14,-5.328C84.532,-5.328 84.064,-5.12 83.736,-4.704C83.408,-4.288 83.244,-3.7 83.244,-2.94C83.244,-2.18 83.41,-1.594 83.742,-1.182C84.074,-0.77 84.544,-0.564 85.152,-0.564C85.76,-0.564 86.234,-0.776 86.574,-1.2Z" style="fill-rule:nonzero;"/>
                <path d="M90.294,-0.288C89.89,-0.536 89.576,-0.888 89.352,-1.344C89.128,-1.8 89.016,-2.332 89.016,-2.94C89.016,-3.548 89.128,-4.08 89.352,-4.536C89.576,-4.992 89.89,-5.344 90.294,-5.592C90.698,-5.84 91.168,-5.964 91.704,-5.964C92.232,-5.964 92.7,-5.84 93.108,-5.592C93.516,-5.344 93.83,-4.992 94.05,-4.536C94.27,-4.08 94.38,-3.548 94.38,-2.94C94.38,-2.332 94.27,-1.8 94.05,-1.344C93.83,-0.888 93.516,-0.536 93.108,-0.288C92.7,-0.04 92.232,0.084 91.704,0.084C91.168,0.084 90.698,-0.04 90.294,-0.288ZM93.12,-1.176C93.456,-1.584 93.624,-2.172 93.624,-2.94C93.624,-3.692 93.454,-4.278 93.114,-4.698C92.774,-5.118 92.304,-5.328 91.704,-5.328C91.096,-5.328 90.624,-5.118 90.288,-4.698C89.952,-4.278 89.784,-3.692 89.784,-2.94C89.784,-2.172 89.948,-1.584 90.276,-1.176C90.604,-0.768 91.076,-0.564 91.692,-0.564C92.308,-0.564 92.784,-0.768 93.12,-1.176Z" style="fill-rule:nonzero;"/>
                <path d="M100.584,-0.3C100.584,-0.204 100.55,-0.122 100.482,-0.054C100.414,0.014 100.336,0.048 100.248,0.048C100.136,0.048 100.044,0 99.972,-0.096L97.92,-2.472L95.868,-0.096C95.788,0 95.696,0.048 95.592,0.048C95.504,0.048 95.426,0.014 95.358,-0.054C95.29,-0.122 95.256,-0.204 95.256,-0.3C95.256,-0.404 95.292,-0.496 95.364,-0.576L97.464,-2.976L95.436,-5.316C95.364,-5.404 95.328,-5.492 95.328,-5.58C95.328,-5.684 95.362,-5.77 95.43,-5.838C95.498,-5.906 95.576,-5.94 95.664,-5.94C95.768,-5.94 95.864,-5.892 95.952,-5.796L97.92,-3.492L99.9,-5.796C99.988,-5.892 100.08,-5.94 100.176,-5.94C100.264,-5.94 100.342,-5.906 100.41,-5.838C100.478,-5.77 100.512,-5.688 100.512,-5.592C100.512,-5.488 100.476,-5.396 100.404,-5.316L98.376,-2.976L100.476,-0.576C100.548,-0.504 100.584,-0.412 100.584,-0.3Z" style="fill-rule:nonzero;"/>
            </g>
            <g transform="matrix(1,0,0,1,579,505)">
                <path d="M2.064,-1.338C1.728,-1.526 1.462,-1.782 1.266,-2.106C1.07,-2.43 0.972,-2.788 0.972,-3.18C0.972,-3.548 1.066,-3.896 1.254,-4.224C1.442,-4.552 1.702,-4.816 2.034,-5.016C2.366,-5.216 2.736,-5.316 3.144,-5.316C3.528,-5.316 3.886,-5.222 4.218,-5.034C4.55,-4.846 4.816,-4.59 5.016,-4.266C5.216,-3.942 5.316,-3.58 5.316,-3.18C5.316,-2.796 5.218,-2.442 5.022,-2.118C4.826,-1.794 4.562,-1.536 4.23,-1.344C3.898,-1.152 3.536,-1.056 3.144,-1.056C2.76,-1.056 2.4,-1.15 2.064,-1.338Z" style="fill-rule:nonzero;"/>
                <path d="M17.568,-0.252C17.568,-0.164 17.532,-0.09 17.46,-0.03C17.388,0.03 17.304,0.06 17.208,0.06C17.144,0.06 17.082,0.04 17.022,0C16.962,-0.04 16.916,-0.096 16.884,-0.168L15.972,-2.256L11.316,-2.256L10.392,-0.168C10.32,-0.016 10.208,0.06 10.056,0.06C9.96,0.06 9.878,0.03 9.81,-0.03C9.742,-0.09 9.708,-0.168 9.708,-0.264C9.708,-0.32 9.716,-0.364 9.732,-0.396L13.236,-8.268C13.308,-8.444 13.44,-8.532 13.632,-8.532C13.72,-8.532 13.802,-8.508 13.878,-8.46C13.954,-8.412 14.008,-8.348 14.04,-8.268L17.532,-0.396C17.556,-0.348 17.568,-0.3 17.568,-0.252ZM11.592,-2.904L15.684,-2.904L13.644,-7.548L11.592,-2.904Z" style="fill-rule:nonzero;"/>
                <path d="M23.004,-5.586C23.396,-5.334 23.7,-4.978 23.916,-4.518C24.132,-4.058 24.24,-3.524 24.24,-2.916C24.24,-2.316 24.132,-1.79 23.916,-1.338C23.7,-0.886 23.396,-0.536 23.004,-0.288C22.612,-0.04 22.16,0.084 21.648,0.084C21.176,0.084 20.768,-0.018 20.424,-0.222C20.08,-0.426 19.82,-0.724 19.644,-1.116L19.644,1.848C19.644,1.96 19.612,2.05 19.548,2.118C19.484,2.186 19.396,2.22 19.284,2.22C19.172,2.22 19.082,2.186 19.014,2.118C18.946,2.05 18.912,1.96 18.912,1.848L18.912,-5.568C18.912,-5.68 18.946,-5.77 19.014,-5.838C19.082,-5.906 19.172,-5.94 19.284,-5.94C19.396,-5.94 19.484,-5.906 19.548,-5.838C19.612,-5.77 19.644,-5.68 19.644,-5.568L19.644,-4.764C19.82,-5.156 20.08,-5.454 20.424,-5.658C20.768,-5.862 21.176,-5.964 21.648,-5.964C22.16,-5.964 22.612,-5.838 23.004,-5.586ZM22.974,-1.182C23.314,-1.594 23.484,-2.172 23.484,-2.916C23.484,-3.676 23.314,-4.268 22.974,-4.692C22.634,-5.116 22.16,-5.328 21.552,-5.328C20.944,-5.328 20.474,-5.12 20.142,-4.704C19.81,-4.288 19.644,-3.7 19.644,-2.94C19.644,-2.18 19.808,-1.594 20.136,-1.182C20.464,-0.77 20.932,-0.564 21.54,-0.564C22.156,-0.564 22.634,-0.77 22.974,-1.182Z" style="fill-rule:nonzero;"/>
                <path d="M29.88,-5.586C30.272,-5.334 30.576,-4.978 30.792,-4.518C31.008,-4.058 31.116,-3.524 31.116,-2.916C31.116,-2.316 31.008,-1.79 30.792,-1.338C30.576,-0.886 30.272,-0.536 29.88,-0.288C29.488,-0.04 29.036,0.084 28.524,0.084C28.052,0.084 27.644,-0.018 27.3,-0.222C26.956,-0.426 26.696,-0.724 26.52,-1.116L26.52,1.848C26.52,1.96 26.488,2.05 26.424,2.118C26.36,2.186 26.272,2.22 26.16,2.22C26.048,2.22 25.958,2.186 25.89,2.118C25.822,2.05 25.788,1.96 25.788,1.848L25.788,-5.568C25.788,-5.68 25.822,-5.77 25.89,-5.838C25.958,-5.906 26.048,-5.94 26.16,-5.94C26.272,-5.94 26.36,-5.906 26.424,-5.838C26.488,-5.77 26.52,-5.68 26.52,-5.568L26.52,-4.764C26.696,-5.156 26.956,-5.454 27.3,-5.658C27.644,-5.862 28.052,-5.964 28.524,-5.964C29.036,-5.964 29.488,-5.838 29.88,-5.586ZM29.85,-1.182C30.19,-1.594 30.36,-2.172 30.36,-2.916C30.36,-3.676 30.19,-4.268 29.85,-4.692C29.51,-5.116 29.036,-5.328 28.428,-5.328C27.82,-5.328 27.35,-5.12 27.018,-4.704C26.686,-4.288 26.52,-3.7 26.52,-2.94C26.52,-2.18 26.684,-1.594 27.012,-1.182C27.34,-0.77 27.808,-0.564 28.416,-0.564C29.032,-0.564 29.51,-0.77 29.85,-1.182Z" style="fill-rule:nonzero;"/>
                <path d="M32.766,-0.036C32.698,-0.1 32.664,-0.192 32.664,-0.312L32.664,-8.148C32.664,-8.268 32.698,-8.36 32.766,-8.424C32.834,-8.488 32.924,-8.52 33.036,-8.52C33.14,-8.52 33.226,-8.488 33.294,-8.424C33.362,-8.36 33.396,-8.268 33.396,-8.148L33.396,-0.312C33.396,-0.192 33.362,-0.1 33.294,-0.036C33.226,0.028 33.14,0.06 33.036,0.06C32.924,0.06 32.834,0.028 32.766,-0.036Z" style="fill-rule:nonzero;"/>
                <path d="M35.43,-0.036C35.362,-0.1 35.328,-0.192 35.328,-0.312L35.328,-5.568C35.328,-5.688 35.362,-5.78 35.43,-5.844C35.498,-5.908 35.588,-5.94 35.7,-5.94C35.812,-5.94 35.9,-5.908 35.964,-5.844C36.028,-5.78 36.06,-5.688 36.06,-5.568L36.06,-0.312C36.06,-0.192 36.028,-0.1 35.964,-0.036C35.9,0.028 35.812,0.06 35.7,0.06C35.588,0.06 35.498,0.028 35.43,-0.036ZM35.31,-7.44C35.21,-7.536 35.16,-7.66 35.16,-7.812C35.16,-7.972 35.21,-8.1 35.31,-8.196C35.41,-8.292 35.54,-8.34 35.7,-8.34C35.86,-8.34 35.99,-8.292 36.09,-8.196C36.19,-8.1 36.24,-7.972 36.24,-7.812C36.24,-7.66 36.19,-7.536 36.09,-7.44C35.99,-7.344 35.86,-7.296 35.7,-7.296C35.54,-7.296 35.41,-7.344 35.31,-7.44Z" style="fill-rule:nonzero;"/>
                <path d="M38.904,-0.288C38.496,-0.536 38.18,-0.888 37.956,-1.344C37.732,-1.8 37.62,-2.324 37.62,-2.916C37.62,-3.516 37.734,-4.046 37.962,-4.506C38.19,-4.966 38.51,-5.324 38.922,-5.58C39.334,-5.836 39.808,-5.964 40.344,-5.964C40.648,-5.964 40.944,-5.924 41.232,-5.844C41.52,-5.764 41.776,-5.644 42,-5.484C42.144,-5.38 42.246,-5.286 42.306,-5.202C42.366,-5.118 42.396,-5.028 42.396,-4.932C42.396,-4.844 42.372,-4.772 42.324,-4.716C42.276,-4.66 42.216,-4.632 42.144,-4.632C42.064,-4.632 41.936,-4.7 41.76,-4.836C41.552,-4.988 41.344,-5.108 41.136,-5.196C40.928,-5.284 40.676,-5.328 40.38,-5.328C39.756,-5.328 39.268,-5.114 38.916,-4.686C38.564,-4.258 38.388,-3.668 38.388,-2.916C38.388,-2.172 38.562,-1.594 38.91,-1.182C39.258,-0.77 39.744,-0.564 40.368,-0.564C40.672,-0.564 40.926,-0.608 41.13,-0.696C41.334,-0.784 41.556,-0.904 41.796,-1.056C41.868,-1.104 41.938,-1.148 42.006,-1.188C42.074,-1.228 42.128,-1.248 42.168,-1.248C42.248,-1.248 42.312,-1.22 42.36,-1.164C42.408,-1.108 42.432,-1.04 42.432,-0.96C42.432,-0.864 42.404,-0.78 42.348,-0.708C42.292,-0.636 42.184,-0.544 42.024,-0.432C41.808,-0.272 41.546,-0.146 41.238,-0.054C40.93,0.038 40.624,0.084 40.32,0.084C39.784,0.084 39.312,-0.04 38.904,-0.288Z" style="fill-rule:nonzero;"/>
                <path d="M47.574,-5.412C47.922,-5.044 48.096,-4.488 48.096,-3.744L48.096,-0.324C48.096,-0.212 48.064,-0.122 48,-0.054C47.936,0.014 47.848,0.048 47.736,0.048C47.624,0.048 47.536,0.014 47.472,-0.054C47.408,-0.122 47.376,-0.212 47.376,-0.324L47.376,-1.044C47.208,-0.684 46.964,-0.406 46.644,-0.21C46.324,-0.014 45.956,0.084 45.54,0.084C45.164,0.084 44.82,0.008 44.508,-0.144C44.196,-0.296 43.95,-0.508 43.77,-0.78C43.59,-1.052 43.5,-1.352 43.5,-1.68C43.5,-2.112 43.612,-2.448 43.836,-2.688C44.06,-2.928 44.432,-3.1 44.952,-3.204C45.472,-3.308 46.196,-3.36 47.124,-3.36L47.376,-3.36L47.376,-3.804C47.376,-4.332 47.268,-4.718 47.052,-4.962C46.836,-5.206 46.496,-5.328 46.032,-5.328C45.44,-5.328 44.876,-5.172 44.34,-4.86C44.316,-4.844 44.254,-4.802 44.154,-4.734C44.054,-4.666 43.968,-4.632 43.896,-4.632C43.816,-4.632 43.75,-4.662 43.698,-4.722C43.646,-4.782 43.62,-4.856 43.62,-4.944C43.62,-5.12 43.76,-5.292 44.04,-5.46C44.32,-5.62 44.632,-5.744 44.976,-5.832C45.32,-5.92 45.66,-5.964 45.996,-5.964C46.7,-5.964 47.226,-5.78 47.574,-5.412ZM46.878,-1.08C47.21,-1.432 47.376,-1.88 47.376,-2.424L47.376,-2.82L47.148,-2.82C46.38,-2.82 45.792,-2.788 45.384,-2.724C44.976,-2.66 44.688,-2.55 44.52,-2.394C44.352,-2.238 44.268,-2.012 44.268,-1.716C44.268,-1.38 44.396,-1.102 44.652,-0.882C44.908,-0.662 45.224,-0.552 45.6,-0.552C46.12,-0.552 46.546,-0.728 46.878,-1.08Z" style="fill-rule:nonzero;"/>
                <path d="M52.872,-0.24C52.872,-0.144 52.836,-0.068 52.764,-0.012C52.692,0.044 52.576,0.068 52.416,0.06L52.08,0.036C51.472,-0.004 51.022,-0.19 50.73,-0.522C50.438,-0.854 50.292,-1.36 50.292,-2.04L50.292,-5.232L49.38,-5.232C49.284,-5.232 49.208,-5.258 49.152,-5.31C49.096,-5.362 49.068,-5.432 49.068,-5.52C49.068,-5.608 49.096,-5.68 49.152,-5.736C49.208,-5.792 49.284,-5.82 49.38,-5.82L50.292,-5.82L50.292,-7.308C50.292,-7.428 50.324,-7.52 50.388,-7.584C50.452,-7.648 50.54,-7.68 50.652,-7.68C50.764,-7.68 50.854,-7.648 50.922,-7.584C50.99,-7.52 51.024,-7.428 51.024,-7.308L51.024,-5.82L52.476,-5.82C52.58,-5.82 52.66,-5.792 52.716,-5.736C52.772,-5.68 52.8,-5.608 52.8,-5.52C52.8,-5.432 52.772,-5.362 52.716,-5.31C52.66,-5.258 52.58,-5.232 52.476,-5.232L51.024,-5.232L51.024,-2.004C51.024,-1.508 51.12,-1.154 51.312,-0.942C51.504,-0.73 51.804,-0.608 52.212,-0.576L52.536,-0.552C52.76,-0.528 52.872,-0.424 52.872,-0.24Z" style="fill-rule:nonzero;"/>
                <path d="M54.03,-0.036C53.962,-0.1 53.928,-0.192 53.928,-0.312L53.928,-5.568C53.928,-5.688 53.962,-5.78 54.03,-5.844C54.098,-5.908 54.188,-5.94 54.3,-5.94C54.412,-5.94 54.5,-5.908 54.564,-5.844C54.628,-5.78 54.66,-5.688 54.66,-5.568L54.66,-0.312C54.66,-0.192 54.628,-0.1 54.564,-0.036C54.5,0.028 54.412,0.06 54.3,0.06C54.188,0.06 54.098,0.028 54.03,-0.036ZM53.91,-7.44C53.81,-7.536 53.76,-7.66 53.76,-7.812C53.76,-7.972 53.81,-8.1 53.91,-8.196C54.01,-8.292 54.14,-8.34 54.3,-8.34C54.46,-8.34 54.59,-8.292 54.69,-8.196C54.79,-8.1 54.84,-7.972 54.84,-7.812C54.84,-7.66 54.79,-7.536 54.69,-7.44C54.59,-7.344 54.46,-7.296 54.3,-7.296C54.14,-7.296 54.01,-7.344 53.91,-7.44Z" style="fill-rule:nonzero;"/>
                <path d="M57.498,-0.288C57.094,-0.536 56.78,-0.888 56.556,-1.344C56.332,-1.8 56.22,-2.332 56.22,-2.94C56.22,-3.548 56.332,-4.08 56.556,-4.536C56.78,-4.992 57.094,-5.344 57.498,-5.592C57.902,-5.84 58.372,-5.964 58.908,-5.964C59.436,-5.964 59.904,-5.84 60.312,-5.592C60.72,-5.344 61.034,-4.992 61.254,-4.536C61.474,-4.08 61.584,-3.548 61.584,-2.94C61.584,-2.332 61.474,-1.8 61.254,-1.344C61.034,-0.888 60.72,-0.536 60.312,-0.288C59.904,-0.04 59.436,0.084 58.908,0.084C58.372,0.084 57.902,-0.04 57.498,-0.288ZM60.324,-1.176C60.66,-1.584 60.828,-2.172 60.828,-2.94C60.828,-3.692 60.658,-4.278 60.318,-4.698C59.978,-5.118 59.508,-5.328 58.908,-5.328C58.3,-5.328 57.828,-5.118 57.492,-4.698C57.156,-4.278 56.988,-3.692 56.988,-2.94C56.988,-2.172 57.152,-1.584 57.48,-1.176C57.808,-0.768 58.28,-0.564 58.896,-0.564C59.512,-0.564 59.988,-0.768 60.324,-1.176Z" style="fill-rule:nonzero;"/>
                <path d="M67.956,-3.708L67.956,-0.312C67.956,-0.2 67.924,-0.11 67.86,-0.042C67.796,0.026 67.708,0.06 67.596,0.06C67.484,0.06 67.394,0.026 67.326,-0.042C67.258,-0.11 67.224,-0.2 67.224,-0.312L67.224,-3.66C67.224,-4.236 67.108,-4.656 66.876,-4.92C66.644,-5.184 66.276,-5.316 65.772,-5.316C65.196,-5.316 64.734,-5.14 64.386,-4.788C64.038,-4.436 63.864,-3.964 63.864,-3.372L63.864,-0.312C63.864,-0.2 63.832,-0.11 63.768,-0.042C63.704,0.026 63.616,0.06 63.504,0.06C63.392,0.06 63.302,0.026 63.234,-0.042C63.166,-0.11 63.132,-0.2 63.132,-0.312L63.132,-5.568C63.132,-5.68 63.166,-5.77 63.234,-5.838C63.302,-5.906 63.392,-5.94 63.504,-5.94C63.608,-5.94 63.692,-5.908 63.756,-5.844C63.82,-5.78 63.852,-5.692 63.852,-5.58L63.852,-4.824C64.036,-5.192 64.302,-5.474 64.65,-5.67C64.998,-5.866 65.4,-5.964 65.856,-5.964C67.256,-5.964 67.956,-5.212 67.956,-3.708Z" style="fill-rule:nonzero;"/>
                <path d="M74.49,-0.426C73.91,-0.774 73.466,-1.274 73.158,-1.926C72.85,-2.578 72.696,-3.348 72.696,-4.236C72.696,-5.124 72.85,-5.892 73.158,-6.54C73.466,-7.188 73.91,-7.686 74.49,-8.034C75.07,-8.382 75.752,-8.556 76.536,-8.556C77.072,-8.556 77.582,-8.466 78.066,-8.286C78.55,-8.106 78.96,-7.848 79.296,-7.512C79.408,-7.408 79.464,-7.292 79.464,-7.164C79.464,-7.076 79.438,-7 79.386,-6.936C79.334,-6.872 79.276,-6.84 79.212,-6.84C79.132,-6.84 79.04,-6.88 78.936,-6.96C78.504,-7.312 78.112,-7.556 77.76,-7.692C77.408,-7.828 76.996,-7.896 76.524,-7.896C75.556,-7.896 74.806,-7.576 74.274,-6.936C73.742,-6.296 73.476,-5.396 73.476,-4.236C73.476,-3.068 73.742,-2.164 74.274,-1.524C74.806,-0.884 75.556,-0.564 76.524,-0.564C76.996,-0.564 77.408,-0.632 77.76,-0.768C78.112,-0.904 78.504,-1.148 78.936,-1.5C79.056,-1.58 79.148,-1.62 79.212,-1.62C79.276,-1.62 79.334,-1.588 79.386,-1.524C79.438,-1.46 79.464,-1.384 79.464,-1.296C79.464,-1.168 79.408,-1.052 79.296,-0.948C78.96,-0.612 78.55,-0.354 78.066,-0.174C77.582,0.006 77.072,0.096 76.536,0.096C75.752,0.096 75.07,-0.078 74.49,-0.426Z" style="fill-rule:nonzero;"/>
                <path d="M81.798,-0.288C81.394,-0.536 81.08,-0.888 80.856,-1.344C80.632,-1.8 80.52,-2.332 80.52,-2.94C80.52,-3.548 80.632,-4.08 80.856,-4.536C81.08,-4.992 81.394,-5.344 81.798,-5.592C82.202,-5.84 82.672,-5.964 83.208,-5.964C83.736,-5.964 84.204,-5.84 84.612,-5.592C85.02,-5.344 85.334,-4.992 85.554,-4.536C85.774,-4.08 85.884,-3.548 85.884,-2.94C85.884,-2.332 85.774,-1.8 85.554,-1.344C85.334,-0.888 85.02,-0.536 84.612,-0.288C84.204,-0.04 83.736,0.084 83.208,0.084C82.672,0.084 82.202,-0.04 81.798,-0.288ZM84.624,-1.176C84.96,-1.584 85.128,-2.172 85.128,-2.94C85.128,-3.692 84.958,-4.278 84.618,-4.698C84.278,-5.118 83.808,-5.328 83.208,-5.328C82.6,-5.328 82.128,-5.118 81.792,-4.698C81.456,-4.278 81.288,-3.692 81.288,-2.94C81.288,-2.172 81.452,-1.584 81.78,-1.176C82.108,-0.768 82.58,-0.564 83.196,-0.564C83.812,-0.564 84.288,-0.768 84.624,-1.176Z" style="fill-rule:nonzero;"/>
                <path d="M92.256,-3.708L92.256,-0.312C92.256,-0.2 92.224,-0.11 92.16,-0.042C92.096,0.026 92.008,0.06 91.896,0.06C91.784,0.06 91.694,0.026 91.626,-0.042C91.558,-0.11 91.524,-0.2 91.524,-0.312L91.524,-3.66C91.524,-4.236 91.408,-4.656 91.176,-4.92C90.944,-5.184 90.576,-5.316 90.072,-5.316C89.496,-5.316 89.034,-5.14 88.686,-4.788C88.338,-4.436 88.164,-3.964 88.164,-3.372L88.164,-0.312C88.164,-0.2 88.132,-0.11 88.068,-0.042C88.004,0.026 87.916,0.06 87.804,0.06C87.692,0.06 87.602,0.026 87.534,-0.042C87.466,-0.11 87.432,-0.2 87.432,-0.312L87.432,-5.568C87.432,-5.68 87.466,-5.77 87.534,-5.838C87.602,-5.906 87.692,-5.94 87.804,-5.94C87.908,-5.94 87.992,-5.908 88.056,-5.844C88.12,-5.78 88.152,-5.692 88.152,-5.58L88.152,-4.824C88.336,-5.192 88.602,-5.474 88.95,-5.67C89.298,-5.866 89.7,-5.964 90.156,-5.964C91.556,-5.964 92.256,-5.212 92.256,-3.708Z" style="fill-rule:nonzero;"/>
                <path d="M97.032,-0.24C97.032,-0.144 96.996,-0.068 96.924,-0.012C96.852,0.044 96.736,0.068 96.576,0.06L96.24,0.036C95.632,-0.004 95.182,-0.19 94.89,-0.522C94.598,-0.854 94.452,-1.36 94.452,-2.04L94.452,-5.232L93.54,-5.232C93.444,-5.232 93.368,-5.258 93.312,-5.31C93.256,-5.362 93.228,-5.432 93.228,-5.52C93.228,-5.608 93.256,-5.68 93.312,-5.736C93.368,-5.792 93.444,-5.82 93.54,-5.82L94.452,-5.82L94.452,-7.308C94.452,-7.428 94.484,-7.52 94.548,-7.584C94.612,-7.648 94.7,-7.68 94.812,-7.68C94.924,-7.68 95.014,-7.648 95.082,-7.584C95.15,-7.52 95.184,-7.428 95.184,-7.308L95.184,-5.82L96.636,-5.82C96.74,-5.82 96.82,-5.792 96.876,-5.736C96.932,-5.68 96.96,-5.608 96.96,-5.52C96.96,-5.432 96.932,-5.362 96.876,-5.31C96.82,-5.258 96.74,-5.232 96.636,-5.232L95.184,-5.232L95.184,-2.004C95.184,-1.508 95.28,-1.154 95.472,-0.942C95.664,-0.73 95.964,-0.608 96.372,-0.576L96.696,-0.552C96.92,-0.528 97.032,-0.424 97.032,-0.24Z" style="fill-rule:nonzero;"/>
                <path d="M101.124,-5.88C101.188,-5.832 101.22,-5.752 101.22,-5.64C101.22,-5.44 101.1,-5.328 100.86,-5.304L100.5,-5.268C99.932,-5.212 99.51,-5.008 99.234,-4.656C98.958,-4.304 98.82,-3.892 98.82,-3.42L98.82,-0.312C98.82,-0.192 98.788,-0.1 98.724,-0.036C98.66,0.028 98.572,0.06 98.46,0.06C98.348,0.06 98.258,0.028 98.19,-0.036C98.122,-0.1 98.088,-0.192 98.088,-0.312L98.088,-5.568C98.088,-5.688 98.122,-5.78 98.19,-5.844C98.258,-5.908 98.348,-5.94 98.46,-5.94C98.564,-5.94 98.648,-5.908 98.712,-5.844C98.776,-5.78 98.808,-5.692 98.808,-5.58L98.808,-4.8C99.136,-5.488 99.744,-5.864 100.632,-5.928L100.8,-5.94C100.952,-5.948 101.06,-5.928 101.124,-5.88Z" style="fill-rule:nonzero;"/>
                <path d="M102.942,-0.288C102.538,-0.536 102.224,-0.888 102,-1.344C101.776,-1.8 101.664,-2.332 101.664,-2.94C101.664,-3.548 101.776,-4.08 102,-4.536C102.224,-4.992 102.538,-5.344 102.942,-5.592C103.346,-5.84 103.816,-5.964 104.352,-5.964C104.88,-5.964 105.348,-5.84 105.756,-5.592C106.164,-5.344 106.478,-4.992 106.698,-4.536C106.918,-4.08 107.028,-3.548 107.028,-2.94C107.028,-2.332 106.918,-1.8 106.698,-1.344C106.478,-0.888 106.164,-0.536 105.756,-0.288C105.348,-0.04 104.88,0.084 104.352,0.084C103.816,0.084 103.346,-0.04 102.942,-0.288ZM105.768,-1.176C106.104,-1.584 106.272,-2.172 106.272,-2.94C106.272,-3.692 106.102,-4.278 105.762,-4.698C105.422,-5.118 104.952,-5.328 104.352,-5.328C103.744,-5.328 103.272,-5.118 102.936,-4.698C102.6,-4.278 102.432,-3.692 102.432,-2.94C102.432,-2.172 102.596,-1.584 102.924,-1.176C103.252,-0.768 103.724,-0.564 104.34,-0.564C104.956,-0.564 105.432,-0.768 105.768,-1.176Z" style="fill-rule:nonzero;"/>
                <path d="M108.678,-0.036C108.61,-0.1 108.576,-0.192 108.576,-0.312L108.576,-8.148C108.576,-8.268 108.61,-8.36 108.678,-8.424C108.746,-8.488 108.836,-8.52 108.948,-8.52C109.052,-8.52 109.138,-8.488 109.206,-8.424C109.274,-8.36 109.308,-8.268 109.308,-8.148L109.308,-0.312C109.308,-0.192 109.274,-0.1 109.206,-0.036C109.138,0.028 109.052,0.06 108.948,0.06C108.836,0.06 108.746,0.028 108.678,-0.036Z" style="fill-rule:nonzero;"/>
            </g>
            <g transform="matrix(1,0,0,1,579,521)">
                <path d="M2.064,-1.338C1.728,-1.526 1.462,-1.782 1.266,-2.106C1.07,-2.43 0.972,-2.788 0.972,-3.18C0.972,-3.548 1.066,-3.896 1.254,-4.224C1.442,-4.552 1.702,-4.816 2.034,-5.016C2.366,-5.216 2.736,-5.316 3.144,-5.316C3.528,-5.316 3.886,-5.222 4.218,-5.034C4.55,-4.846 4.816,-4.59 5.016,-4.266C5.216,-3.942 5.316,-3.58 5.316,-3.18C5.316,-2.796 5.218,-2.442 5.022,-2.118C4.826,-1.794 4.562,-1.536 4.23,-1.344C3.898,-1.152 3.536,-1.056 3.144,-1.056C2.76,-1.056 2.4,-1.15 2.064,-1.338Z" style="fill-rule:nonzero;"/>
                <path d="M11.874,-0.426C11.294,-0.774 10.85,-1.274 10.542,-1.926C10.234,-2.578 10.08,-3.348 10.08,-4.236C10.08,-5.124 10.234,-5.892 10.542,-6.54C10.85,-7.188 11.294,-7.686 11.874,-8.034C12.454,-8.382 13.136,-8.556 13.92,-8.556C14.456,-8.556 14.966,-8.466 15.45,-8.286C15.934,-8.106 16.344,-7.848 16.68,-7.512C16.792,-7.408 16.848,-7.292 16.848,-7.164C16.848,-7.076 16.822,-7 16.77,-6.936C16.718,-6.872 16.66,-6.84 16.596,-6.84C16.516,-6.84 16.424,-6.88 16.32,-6.96C15.888,-7.312 15.496,-7.556 15.144,-7.692C14.792,-7.828 14.38,-7.896 13.908,-7.896C12.94,-7.896 12.19,-7.576 11.658,-6.936C11.126,-6.296 10.86,-5.396 10.86,-4.236C10.86,-3.068 11.126,-2.164 11.658,-1.524C12.19,-0.884 12.94,-0.564 13.908,-0.564C14.38,-0.564 14.792,-0.632 15.144,-0.768C15.496,-0.904 15.888,-1.148 16.32,-1.5C16.44,-1.58 16.532,-1.62 16.596,-1.62C16.66,-1.62 16.718,-1.588 16.77,-1.524C16.822,-1.46 16.848,-1.384 16.848,-1.296C16.848,-1.168 16.792,-1.052 16.68,-0.948C16.344,-0.612 15.934,-0.354 15.45,-0.174C14.966,0.006 14.456,0.096 13.92,0.096C13.136,0.096 12.454,-0.078 11.874,-0.426Z" style="fill-rule:nonzero;"/>
                <path d="M19.182,-0.288C18.778,-0.536 18.464,-0.888 18.24,-1.344C18.016,-1.8 17.904,-2.332 17.904,-2.94C17.904,-3.548 18.016,-4.08 18.24,-4.536C18.464,-4.992 18.778,-5.344 19.182,-5.592C19.586,-5.84 20.056,-5.964 20.592,-5.964C21.12,-5.964 21.588,-5.84 21.996,-5.592C22.404,-5.344 22.718,-4.992 22.938,-4.536C23.158,-4.08 23.268,-3.548 23.268,-2.94C23.268,-2.332 23.158,-1.8 22.938,-1.344C22.718,-0.888 22.404,-0.536 21.996,-0.288C21.588,-0.04 21.12,0.084 20.592,0.084C20.056,0.084 19.586,-0.04 19.182,-0.288ZM22.008,-1.176C22.344,-1.584 22.512,-2.172 22.512,-2.94C22.512,-3.692 22.342,-4.278 22.002,-4.698C21.662,-5.118 21.192,-5.328 20.592,-5.328C19.984,-5.328 19.512,-5.118 19.176,-4.698C18.84,-4.278 18.672,-3.692 18.672,-2.94C18.672,-2.172 18.836,-1.584 19.164,-1.176C19.492,-0.768 19.964,-0.564 20.58,-0.564C21.196,-0.564 21.672,-0.768 22.008,-1.176Z" style="fill-rule:nonzero;"/>
                <path d="M29.64,-3.708L29.64,-0.312C29.64,-0.2 29.608,-0.11 29.544,-0.042C29.48,0.026 29.392,0.06 29.28,0.06C29.168,0.06 29.078,0.026 29.01,-0.042C28.942,-0.11 28.908,-0.2 28.908,-0.312L28.908,-3.66C28.908,-4.236 28.792,-4.656 28.56,-4.92C28.328,-5.184 27.96,-5.316 27.456,-5.316C26.88,-5.316 26.418,-5.14 26.07,-4.788C25.722,-4.436 25.548,-3.964 25.548,-3.372L25.548,-0.312C25.548,-0.2 25.516,-0.11 25.452,-0.042C25.388,0.026 25.3,0.06 25.188,0.06C25.076,0.06 24.986,0.026 24.918,-0.042C24.85,-0.11 24.816,-0.2 24.816,-0.312L24.816,-5.568C24.816,-5.68 24.85,-5.77 24.918,-5.838C24.986,-5.906 25.076,-5.94 25.188,-5.94C25.292,-5.94 25.376,-5.908 25.44,-5.844C25.504,-5.78 25.536,-5.692 25.536,-5.58L25.536,-4.824C25.72,-5.192 25.986,-5.474 26.334,-5.67C26.682,-5.866 27.084,-5.964 27.54,-5.964C28.94,-5.964 29.64,-5.212 29.64,-3.708Z" style="fill-rule:nonzero;"/>
                <path d="M34.416,-0.24C34.416,-0.144 34.38,-0.068 34.308,-0.012C34.236,0.044 34.12,0.068 33.96,0.06L33.624,0.036C33.016,-0.004 32.566,-0.19 32.274,-0.522C31.982,-0.854 31.836,-1.36 31.836,-2.04L31.836,-5.232L30.924,-5.232C30.828,-5.232 30.752,-5.258 30.696,-5.31C30.64,-5.362 30.612,-5.432 30.612,-5.52C30.612,-5.608 30.64,-5.68 30.696,-5.736C30.752,-5.792 30.828,-5.82 30.924,-5.82L31.836,-5.82L31.836,-7.308C31.836,-7.428 31.868,-7.52 31.932,-7.584C31.996,-7.648 32.084,-7.68 32.196,-7.68C32.308,-7.68 32.398,-7.648 32.466,-7.584C32.534,-7.52 32.568,-7.428 32.568,-7.308L32.568,-5.82L34.02,-5.82C34.124,-5.82 34.204,-5.792 34.26,-5.736C34.316,-5.68 34.344,-5.608 34.344,-5.52C34.344,-5.432 34.316,-5.362 34.26,-5.31C34.204,-5.258 34.124,-5.232 34.02,-5.232L32.568,-5.232L32.568,-2.004C32.568,-1.508 32.664,-1.154 32.856,-0.942C33.048,-0.73 33.348,-0.608 33.756,-0.576L34.08,-0.552C34.304,-0.528 34.416,-0.424 34.416,-0.24Z" style="fill-rule:nonzero;"/>
                <path d="M40.122,-1.158C40.174,-1.098 40.2,-1.028 40.2,-0.948C40.2,-0.772 40.064,-0.6 39.792,-0.432C39.216,-0.088 38.608,0.084 37.968,0.084C37.08,0.084 36.38,-0.184 35.868,-0.72C35.356,-1.256 35.1,-1.992 35.1,-2.928C35.1,-3.528 35.214,-4.058 35.442,-4.518C35.67,-4.978 35.99,-5.334 36.402,-5.586C36.814,-5.838 37.288,-5.964 37.824,-5.964C38.576,-5.964 39.17,-5.722 39.606,-5.238C40.042,-4.754 40.26,-4.088 40.26,-3.24C40.26,-3.096 40.228,-2.99 40.164,-2.922C40.1,-2.854 39.996,-2.82 39.852,-2.82L35.856,-2.82C35.88,-2.084 36.072,-1.524 36.432,-1.14C36.792,-0.756 37.3,-0.564 37.956,-0.564C38.3,-0.564 38.588,-0.61 38.82,-0.702C39.052,-0.794 39.3,-0.916 39.564,-1.068C39.74,-1.188 39.864,-1.248 39.936,-1.248C40.008,-1.248 40.07,-1.218 40.122,-1.158ZM36.48,-4.836C36.144,-4.484 35.944,-3.992 35.88,-3.36L39.588,-3.36C39.572,-4 39.412,-4.494 39.108,-4.842C38.804,-5.19 38.376,-5.364 37.824,-5.364C37.264,-5.364 36.816,-5.188 36.48,-4.836Z" style="fill-rule:nonzero;"/>
                <path d="M46.608,-3.708L46.608,-0.312C46.608,-0.2 46.576,-0.11 46.512,-0.042C46.448,0.026 46.36,0.06 46.248,0.06C46.136,0.06 46.046,0.026 45.978,-0.042C45.91,-0.11 45.876,-0.2 45.876,-0.312L45.876,-3.66C45.876,-4.236 45.76,-4.656 45.528,-4.92C45.296,-5.184 44.928,-5.316 44.424,-5.316C43.848,-5.316 43.386,-5.14 43.038,-4.788C42.69,-4.436 42.516,-3.964 42.516,-3.372L42.516,-0.312C42.516,-0.2 42.484,-0.11 42.42,-0.042C42.356,0.026 42.268,0.06 42.156,0.06C42.044,0.06 41.954,0.026 41.886,-0.042C41.818,-0.11 41.784,-0.2 41.784,-0.312L41.784,-5.568C41.784,-5.68 41.818,-5.77 41.886,-5.838C41.954,-5.906 42.044,-5.94 42.156,-5.94C42.26,-5.94 42.344,-5.908 42.408,-5.844C42.472,-5.78 42.504,-5.692 42.504,-5.58L42.504,-4.824C42.688,-5.192 42.954,-5.474 43.302,-5.67C43.65,-5.866 44.052,-5.964 44.508,-5.964C45.908,-5.964 46.608,-5.212 46.608,-3.708Z" style="fill-rule:nonzero;"/>
                <path d="M51.384,-0.24C51.384,-0.144 51.348,-0.068 51.276,-0.012C51.204,0.044 51.088,0.068 50.928,0.06L50.592,0.036C49.984,-0.004 49.534,-0.19 49.242,-0.522C48.95,-0.854 48.804,-1.36 48.804,-2.04L48.804,-5.232L47.892,-5.232C47.796,-5.232 47.72,-5.258 47.664,-5.31C47.608,-5.362 47.58,-5.432 47.58,-5.52C47.58,-5.608 47.608,-5.68 47.664,-5.736C47.72,-5.792 47.796,-5.82 47.892,-5.82L48.804,-5.82L48.804,-7.308C48.804,-7.428 48.836,-7.52 48.9,-7.584C48.964,-7.648 49.052,-7.68 49.164,-7.68C49.276,-7.68 49.366,-7.648 49.434,-7.584C49.502,-7.52 49.536,-7.428 49.536,-7.308L49.536,-5.82L50.988,-5.82C51.092,-5.82 51.172,-5.792 51.228,-5.736C51.284,-5.68 51.312,-5.608 51.312,-5.52C51.312,-5.432 51.284,-5.362 51.228,-5.31C51.172,-5.258 51.092,-5.232 50.988,-5.232L49.536,-5.232L49.536,-2.004C49.536,-1.508 49.632,-1.154 49.824,-0.942C50.016,-0.73 50.316,-0.608 50.724,-0.576L51.048,-0.552C51.272,-0.528 51.384,-0.424 51.384,-0.24Z" style="fill-rule:nonzero;"/>
                <path d="M55.698,-0.048C55.63,-0.12 55.596,-0.212 55.596,-0.324L55.596,-8.088C55.596,-8.192 55.634,-8.28 55.71,-8.352C55.786,-8.424 55.88,-8.46 55.992,-8.46L60.432,-8.46C60.536,-8.46 60.618,-8.432 60.678,-8.376C60.738,-8.32 60.768,-8.24 60.768,-8.136C60.768,-8.032 60.738,-7.954 60.678,-7.902C60.618,-7.85 60.536,-7.824 60.432,-7.824L56.34,-7.824L56.34,-4.62L60.192,-4.62C60.296,-4.62 60.378,-4.592 60.438,-4.536C60.498,-4.48 60.528,-4.4 60.528,-4.296C60.528,-4.192 60.498,-4.112 60.438,-4.056C60.378,-4 60.296,-3.972 60.192,-3.972L56.34,-3.972L56.34,-0.324C56.34,-0.204 56.308,-0.11 56.244,-0.042C56.18,0.026 56.088,0.06 55.968,0.06C55.856,0.06 55.766,0.024 55.698,-0.048Z" style="fill-rule:nonzero;"/>
                <path d="M62.202,-0.036C62.134,-0.1 62.1,-0.192 62.1,-0.312L62.1,-5.568C62.1,-5.688 62.134,-5.78 62.202,-5.844C62.27,-5.908 62.36,-5.94 62.472,-5.94C62.584,-5.94 62.672,-5.908 62.736,-5.844C62.8,-5.78 62.832,-5.688 62.832,-5.568L62.832,-0.312C62.832,-0.192 62.8,-0.1 62.736,-0.036C62.672,0.028 62.584,0.06 62.472,0.06C62.36,0.06 62.27,0.028 62.202,-0.036ZM62.082,-7.44C61.982,-7.536 61.932,-7.66 61.932,-7.812C61.932,-7.972 61.982,-8.1 62.082,-8.196C62.182,-8.292 62.312,-8.34 62.472,-8.34C62.632,-8.34 62.762,-8.292 62.862,-8.196C62.962,-8.1 63.012,-7.972 63.012,-7.812C63.012,-7.66 62.962,-7.536 62.862,-7.44C62.762,-7.344 62.632,-7.296 62.472,-7.296C62.312,-7.296 62.182,-7.344 62.082,-7.44Z" style="fill-rule:nonzero;"/>
                <path d="M64.866,-0.036C64.798,-0.1 64.764,-0.192 64.764,-0.312L64.764,-8.148C64.764,-8.268 64.798,-8.36 64.866,-8.424C64.934,-8.488 65.024,-8.52 65.136,-8.52C65.24,-8.52 65.326,-8.488 65.394,-8.424C65.462,-8.36 65.496,-8.268 65.496,-8.148L65.496,-0.312C65.496,-0.192 65.462,-0.1 65.394,-0.036C65.326,0.028 65.24,0.06 65.136,0.06C65.024,0.06 64.934,0.028 64.866,-0.036Z" style="fill-rule:nonzero;"/>
                <path d="M70.296,-0.24C70.296,-0.144 70.26,-0.068 70.188,-0.012C70.116,0.044 70,0.068 69.84,0.06L69.504,0.036C68.896,-0.004 68.446,-0.19 68.154,-0.522C67.862,-0.854 67.716,-1.36 67.716,-2.04L67.716,-5.232L66.804,-5.232C66.708,-5.232 66.632,-5.258 66.576,-5.31C66.52,-5.362 66.492,-5.432 66.492,-5.52C66.492,-5.608 66.52,-5.68 66.576,-5.736C66.632,-5.792 66.708,-5.82 66.804,-5.82L67.716,-5.82L67.716,-7.308C67.716,-7.428 67.748,-7.52 67.812,-7.584C67.876,-7.648 67.964,-7.68 68.076,-7.68C68.188,-7.68 68.278,-7.648 68.346,-7.584C68.414,-7.52 68.448,-7.428 68.448,-7.308L68.448,-5.82L69.9,-5.82C70.004,-5.82 70.084,-5.792 70.14,-5.736C70.196,-5.68 70.224,-5.608 70.224,-5.52C70.224,-5.432 70.196,-5.362 70.14,-5.31C70.084,-5.258 70.004,-5.232 69.9,-5.232L68.448,-5.232L68.448,-2.004C68.448,-1.508 68.544,-1.154 68.736,-0.942C68.928,-0.73 69.228,-0.608 69.636,-0.576L69.96,-0.552C70.184,-0.528 70.296,-0.424 70.296,-0.24Z" style="fill-rule:nonzero;"/>
                <path d="M76.002,-1.158C76.054,-1.098 76.08,-1.028 76.08,-0.948C76.08,-0.772 75.944,-0.6 75.672,-0.432C75.096,-0.088 74.488,0.084 73.848,0.084C72.96,0.084 72.26,-0.184 71.748,-0.72C71.236,-1.256 70.98,-1.992 70.98,-2.928C70.98,-3.528 71.094,-4.058 71.322,-4.518C71.55,-4.978 71.87,-5.334 72.282,-5.586C72.694,-5.838 73.168,-5.964 73.704,-5.964C74.456,-5.964 75.05,-5.722 75.486,-5.238C75.922,-4.754 76.14,-4.088 76.14,-3.24C76.14,-3.096 76.108,-2.99 76.044,-2.922C75.98,-2.854 75.876,-2.82 75.732,-2.82L71.736,-2.82C71.76,-2.084 71.952,-1.524 72.312,-1.14C72.672,-0.756 73.18,-0.564 73.836,-0.564C74.18,-0.564 74.468,-0.61 74.7,-0.702C74.932,-0.794 75.18,-0.916 75.444,-1.068C75.62,-1.188 75.744,-1.248 75.816,-1.248C75.888,-1.248 75.95,-1.218 76.002,-1.158ZM72.36,-4.836C72.024,-4.484 71.824,-3.992 71.76,-3.36L75.468,-3.36C75.452,-4 75.292,-4.494 74.988,-4.842C74.684,-5.19 74.256,-5.364 73.704,-5.364C73.144,-5.364 72.696,-5.188 72.36,-4.836Z" style="fill-rule:nonzero;"/>
                <path d="M80.7,-5.88C80.764,-5.832 80.796,-5.752 80.796,-5.64C80.796,-5.44 80.676,-5.328 80.436,-5.304L80.076,-5.268C79.508,-5.212 79.086,-5.008 78.81,-4.656C78.534,-4.304 78.396,-3.892 78.396,-3.42L78.396,-0.312C78.396,-0.192 78.364,-0.1 78.3,-0.036C78.236,0.028 78.148,0.06 78.036,0.06C77.924,0.06 77.834,0.028 77.766,-0.036C77.698,-0.1 77.664,-0.192 77.664,-0.312L77.664,-5.568C77.664,-5.688 77.698,-5.78 77.766,-5.844C77.834,-5.908 77.924,-5.94 78.036,-5.94C78.14,-5.94 78.224,-5.908 78.288,-5.844C78.352,-5.78 78.384,-5.692 78.384,-5.58L78.384,-4.8C78.712,-5.488 79.32,-5.864 80.208,-5.928L80.376,-5.94C80.528,-5.948 80.636,-5.928 80.7,-5.88Z" style="fill-rule:nonzero;"/>
                <path d="M81.834,-0.036C81.766,-0.1 81.732,-0.192 81.732,-0.312L81.732,-5.568C81.732,-5.688 81.766,-5.78 81.834,-5.844C81.902,-5.908 81.992,-5.94 82.104,-5.94C82.216,-5.94 82.304,-5.908 82.368,-5.844C82.432,-5.78 82.464,-5.688 82.464,-5.568L82.464,-0.312C82.464,-0.192 82.432,-0.1 82.368,-0.036C82.304,0.028 82.216,0.06 82.104,0.06C81.992,0.06 81.902,0.028 81.834,-0.036ZM81.714,-7.44C81.614,-7.536 81.564,-7.66 81.564,-7.812C81.564,-7.972 81.614,-8.1 81.714,-8.196C81.814,-8.292 81.944,-8.34 82.104,-8.34C82.264,-8.34 82.394,-8.292 82.494,-8.196C82.594,-8.1 82.644,-7.972 82.644,-7.812C82.644,-7.66 82.594,-7.536 82.494,-7.44C82.394,-7.344 82.264,-7.296 82.104,-7.296C81.944,-7.296 81.814,-7.344 81.714,-7.44Z" style="fill-rule:nonzero;"/>
                <path d="M89.22,-3.708L89.22,-0.312C89.22,-0.2 89.188,-0.11 89.124,-0.042C89.06,0.026 88.972,0.06 88.86,0.06C88.748,0.06 88.658,0.026 88.59,-0.042C88.522,-0.11 88.488,-0.2 88.488,-0.312L88.488,-3.66C88.488,-4.236 88.372,-4.656 88.14,-4.92C87.908,-5.184 87.54,-5.316 87.036,-5.316C86.46,-5.316 85.998,-5.14 85.65,-4.788C85.302,-4.436 85.128,-3.964 85.128,-3.372L85.128,-0.312C85.128,-0.2 85.096,-0.11 85.032,-0.042C84.968,0.026 84.88,0.06 84.768,0.06C84.656,0.06 84.566,0.026 84.498,-0.042C84.43,-0.11 84.396,-0.2 84.396,-0.312L84.396,-5.568C84.396,-5.68 84.43,-5.77 84.498,-5.838C84.566,-5.906 84.656,-5.94 84.768,-5.94C84.872,-5.94 84.956,-5.908 85.02,-5.844C85.084,-5.78 85.116,-5.692 85.116,-5.58L85.116,-4.824C85.3,-5.192 85.566,-5.474 85.914,-5.67C86.262,-5.866 86.664,-5.964 87.12,-5.964C88.52,-5.964 89.22,-5.212 89.22,-3.708Z" style="fill-rule:nonzero;"/>
                <path d="M96.03,-5.838C96.098,-5.77 96.132,-5.68 96.132,-5.568L96.132,-0.336C96.132,0.512 95.922,1.154 95.502,1.59C95.082,2.026 94.46,2.244 93.636,2.244C93.204,2.244 92.818,2.202 92.478,2.118C92.138,2.034 91.82,1.904 91.524,1.728C91.236,1.552 91.092,1.38 91.092,1.212C91.092,1.124 91.118,1.052 91.17,0.996C91.222,0.94 91.288,0.912 91.368,0.912C91.416,0.912 91.482,0.934 91.566,0.978C91.65,1.022 91.708,1.052 91.74,1.068C92.012,1.22 92.292,1.346 92.58,1.446C92.868,1.546 93.224,1.596 93.648,1.596C94.232,1.596 94.672,1.44 94.968,1.128C95.264,0.816 95.412,0.352 95.412,-0.264L95.412,-1.404C95.244,-1.012 94.986,-0.71 94.638,-0.498C94.29,-0.286 93.868,-0.18 93.372,-0.18C92.86,-0.18 92.406,-0.3 92.01,-0.54C91.614,-0.78 91.306,-1.12 91.086,-1.56C90.866,-2 90.756,-2.504 90.756,-3.072C90.756,-3.64 90.866,-4.144 91.086,-4.584C91.306,-5.024 91.614,-5.364 92.01,-5.604C92.406,-5.844 92.86,-5.964 93.372,-5.964C93.86,-5.964 94.276,-5.862 94.62,-5.658C94.964,-5.454 95.224,-5.156 95.4,-4.764L95.4,-5.568C95.4,-5.68 95.432,-5.77 95.496,-5.838C95.56,-5.906 95.648,-5.94 95.76,-5.94C95.872,-5.94 95.962,-5.906 96.03,-5.838ZM94.89,-1.428C95.23,-1.828 95.4,-2.376 95.4,-3.072C95.4,-3.768 95.228,-4.318 94.884,-4.722C94.54,-5.126 94.068,-5.328 93.468,-5.328C92.86,-5.328 92.384,-5.128 92.04,-4.728C91.696,-4.328 91.524,-3.776 91.524,-3.072C91.524,-2.368 91.696,-1.818 92.04,-1.422C92.384,-1.026 92.86,-0.828 93.468,-0.828C94.076,-0.828 94.55,-1.028 94.89,-1.428Z" style="fill-rule:nonzero;"/>
            </g>
        </g>
    </g>
</svg>
