<?xml version="1.0" encoding="UTF-8" standalone="no"?>
<!DOCTYPE svg PUBLIC "-//W3C//DTD SVG 1.1//EN" "http://www.w3.org/Graphics/SVG/1.1/DTD/svg11.dtd">
<svg width="100%" height="100%" viewBox="0 0 72 11" version="1.1" xmlns="http://www.w3.org/2000/svg" xmlns:xlink="http://www.w3.org/1999/xlink" xml:space="preserve" xmlns:serif="http://www.serif.com/" style="fill-rule:evenodd;clip-rule:evenodd;stroke-linejoin:round;stroke-miterlimit:1.41421;">
    <g transform="matrix(1,0,0,1,-1017,-296)">
        <g transform="matrix(1,0,0,1,1017,306)">
            <g id="Cloud-GMS">
                <path d="M2.975,-0.49C2.261,-0.901 1.713,-1.489 1.33,-2.254C0.947,-3.019 0.756,-3.915 0.756,-4.942C0.756,-5.969 0.947,-6.862 1.33,-7.623C1.713,-8.384 2.261,-8.969 2.975,-9.38C3.689,-9.791 4.522,-9.996 5.474,-9.996C6.09,-9.996 6.669,-9.905 7.21,-9.723C7.751,-9.541 8.232,-9.277 8.652,-8.932C8.773,-8.839 8.857,-8.741 8.904,-8.638C8.951,-8.535 8.974,-8.409 8.974,-8.26C8.974,-8.055 8.918,-7.882 8.806,-7.742C8.694,-7.602 8.559,-7.532 8.4,-7.532C8.213,-7.532 8.022,-7.597 7.826,-7.728C7.425,-8.027 7.051,-8.234 6.706,-8.351C6.361,-8.468 5.978,-8.526 5.558,-8.526C4.587,-8.526 3.852,-8.223 3.353,-7.616C2.854,-7.009 2.604,-6.118 2.604,-4.942C2.604,-3.757 2.854,-2.861 3.353,-2.254C3.852,-1.647 4.587,-1.344 5.558,-1.344C5.959,-1.344 6.33,-1.405 6.671,-1.526C7.012,-1.647 7.397,-1.853 7.826,-2.142C7.919,-2.198 8.013,-2.245 8.106,-2.282C8.199,-2.319 8.297,-2.338 8.4,-2.338C8.559,-2.338 8.694,-2.268 8.806,-2.128C8.918,-1.988 8.974,-1.815 8.974,-1.61C8.974,-1.47 8.951,-1.346 8.904,-1.239C8.857,-1.132 8.773,-1.031 8.652,-0.938C8.232,-0.593 7.751,-0.329 7.21,-0.147C6.669,0.035 6.09,0.126 5.474,0.126C4.522,0.126 3.689,-0.079 2.975,-0.49Z" style="fill:rgb(72,175,232);fill-rule:nonzero;"/>
                <path d="M10.647,-0.133C10.484,-0.278 10.402,-0.485 10.402,-0.756L10.402,-9.114C10.402,-9.385 10.484,-9.59 10.647,-9.73C10.81,-9.87 11.018,-9.94 11.27,-9.94C11.522,-9.94 11.732,-9.87 11.9,-9.73C12.068,-9.59 12.152,-9.385 12.152,-9.114L12.152,-0.756C12.152,-0.485 12.068,-0.278 11.9,-0.133C11.732,0.012 11.522,0.084 11.27,0.084C11.018,0.084 10.81,0.012 10.647,-0.133Z" style="fill:rgb(72,175,232);fill-rule:nonzero;"/>
                <path d="M15.239,-0.322C14.712,-0.611 14.303,-1.027 14.014,-1.568C13.725,-2.109 13.58,-2.739 13.58,-3.458C13.58,-4.177 13.725,-4.804 14.014,-5.341C14.303,-5.878 14.712,-6.291 15.239,-6.58C15.766,-6.869 16.38,-7.014 17.08,-7.014C17.78,-7.014 18.394,-6.869 18.921,-6.58C19.448,-6.291 19.854,-5.878 20.139,-5.341C20.424,-4.804 20.566,-4.177 20.566,-3.458C20.566,-2.739 20.424,-2.109 20.139,-1.568C19.854,-1.027 19.448,-0.611 18.921,-0.322C18.394,-0.033 17.78,0.112 17.08,0.112C16.38,0.112 15.766,-0.033 15.239,-0.322ZM18.368,-1.806C18.667,-2.179 18.816,-2.73 18.816,-3.458C18.816,-4.177 18.667,-4.725 18.368,-5.103C18.069,-5.481 17.64,-5.67 17.08,-5.67C16.52,-5.67 16.088,-5.481 15.785,-5.103C15.482,-4.725 15.33,-4.177 15.33,-3.458C15.33,-2.73 15.479,-2.179 15.778,-1.806C16.077,-1.433 16.506,-1.246 17.066,-1.246C17.635,-1.246 18.069,-1.433 18.368,-1.806Z" style="fill:rgb(72,175,232);fill-rule:nonzero;"/>
                <path d="M28.056,-6.762C28.215,-6.613 28.294,-6.412 28.294,-6.16L28.294,-0.728C28.294,-0.485 28.212,-0.289 28.049,-0.14C27.886,0.009 27.673,0.084 27.412,0.084C27.16,0.084 26.959,0.014 26.81,-0.126C26.661,-0.266 26.586,-0.457 26.586,-0.7L26.586,-1.05C26.371,-0.677 26.082,-0.39 25.718,-0.189C25.354,0.012 24.943,0.112 24.486,0.112C22.806,0.112 21.966,-0.831 21.966,-2.716L21.966,-6.16C21.966,-6.412 22.045,-6.613 22.204,-6.762C22.363,-6.911 22.573,-6.986 22.834,-6.986C23.105,-6.986 23.319,-6.911 23.478,-6.762C23.637,-6.613 23.716,-6.412 23.716,-6.16L23.716,-2.702C23.716,-2.217 23.814,-1.857 24.01,-1.624C24.206,-1.391 24.514,-1.274 24.934,-1.274C25.419,-1.274 25.809,-1.435 26.103,-1.757C26.397,-2.079 26.544,-2.506 26.544,-3.038L26.544,-6.16C26.544,-6.412 26.623,-6.613 26.782,-6.762C26.941,-6.911 27.151,-6.986 27.412,-6.986C27.683,-6.986 27.897,-6.911 28.056,-6.762Z" style="fill:rgb(72,175,232);fill-rule:nonzero;"/>
                <path d="M36.47,-9.716C36.638,-9.567 36.722,-9.371 36.722,-9.128L36.722,-0.756C36.722,-0.504 36.643,-0.303 36.484,-0.154C36.325,-0.005 36.115,0.07 35.854,0.07C35.593,0.07 35.383,-0.005 35.224,-0.154C35.065,-0.303 34.986,-0.504 34.986,-0.756L34.986,-1.106C34.781,-0.723 34.484,-0.425 34.097,-0.21C33.71,0.005 33.269,0.112 32.774,0.112C32.186,0.112 31.661,-0.037 31.199,-0.336C30.737,-0.635 30.378,-1.057 30.121,-1.603C29.864,-2.149 29.736,-2.777 29.736,-3.486C29.736,-4.195 29.864,-4.816 30.121,-5.348C30.378,-5.88 30.735,-6.291 31.192,-6.58C31.649,-6.869 32.177,-7.014 32.774,-7.014C33.269,-7.014 33.707,-6.911 34.09,-6.706C34.473,-6.501 34.767,-6.211 34.972,-5.838L34.972,-9.156C34.972,-9.389 35.049,-9.578 35.203,-9.723C35.357,-9.868 35.565,-9.94 35.826,-9.94C36.087,-9.94 36.302,-9.865 36.47,-9.716ZM34.531,-1.82C34.834,-2.203 34.986,-2.749 34.986,-3.458C34.986,-4.167 34.834,-4.711 34.531,-5.089C34.228,-5.467 33.801,-5.656 33.25,-5.656C32.69,-5.656 32.256,-5.469 31.948,-5.096C31.64,-4.723 31.486,-4.186 31.486,-3.486C31.486,-2.777 31.64,-2.226 31.948,-1.834C32.256,-1.442 32.685,-1.246 33.236,-1.246C33.796,-1.246 34.228,-1.437 34.531,-1.82Z" style="fill:rgb(72,175,232);fill-rule:nonzero;"/>
                <path d="M50.512,-5.145C50.643,-5.019 50.708,-4.853 50.708,-4.648L50.708,-1.638C50.708,-1.209 50.652,-0.905 50.54,-0.728C50.428,-0.551 50.199,-0.406 49.854,-0.294C49.481,-0.163 49.047,-0.061 48.552,0.014C48.057,0.089 47.581,0.126 47.124,0.126C46.107,0.126 45.225,-0.075 44.478,-0.476C43.731,-0.877 43.16,-1.458 42.763,-2.219C42.366,-2.98 42.168,-3.887 42.168,-4.942C42.168,-5.978 42.366,-6.876 42.763,-7.637C43.16,-8.398 43.722,-8.981 44.45,-9.387C45.178,-9.793 46.037,-9.996 47.026,-9.996C48.342,-9.996 49.42,-9.641 50.26,-8.932C50.372,-8.829 50.454,-8.727 50.505,-8.624C50.556,-8.521 50.582,-8.4 50.582,-8.26C50.582,-8.055 50.526,-7.882 50.414,-7.742C50.302,-7.602 50.167,-7.532 50.008,-7.532C49.905,-7.532 49.812,-7.548 49.728,-7.581C49.644,-7.614 49.546,-7.667 49.434,-7.742C49.023,-8.031 48.641,-8.234 48.286,-8.351C47.931,-8.468 47.53,-8.526 47.082,-8.526C46.065,-8.526 45.297,-8.225 44.779,-7.623C44.261,-7.021 44.002,-6.127 44.002,-4.942C44.002,-2.515 45.066,-1.302 47.194,-1.302C47.829,-1.302 48.463,-1.391 49.098,-1.568L49.098,-4.046L47.516,-4.046C47.292,-4.046 47.117,-4.102 46.991,-4.214C46.865,-4.326 46.802,-4.485 46.802,-4.69C46.802,-4.895 46.865,-5.054 46.991,-5.166C47.117,-5.278 47.292,-5.334 47.516,-5.334L49.994,-5.334C50.209,-5.334 50.381,-5.271 50.512,-5.145Z" style="fill:rgb(72,175,232);fill-rule:nonzero;"/>
                <path d="M62.132,-9.695C62.291,-9.532 62.37,-9.315 62.37,-9.044L62.37,-0.756C62.37,-0.495 62.295,-0.289 62.146,-0.14C61.997,0.009 61.801,0.084 61.558,0.084C61.315,0.084 61.124,0.009 60.984,-0.14C60.844,-0.289 60.774,-0.495 60.774,-0.756L60.774,-6.524L58.394,-2.016C58.282,-1.811 58.161,-1.659 58.03,-1.561C57.899,-1.463 57.745,-1.414 57.568,-1.414C57.391,-1.414 57.237,-1.461 57.106,-1.554C56.975,-1.647 56.854,-1.801 56.742,-2.016L54.348,-6.454L54.348,-0.756C54.348,-0.504 54.276,-0.301 54.131,-0.147C53.986,0.007 53.793,0.084 53.55,0.084C53.307,0.084 53.116,0.009 52.976,-0.14C52.836,-0.289 52.766,-0.495 52.766,-0.756L52.766,-9.044C52.766,-9.315 52.843,-9.532 52.997,-9.695C53.151,-9.858 53.359,-9.94 53.62,-9.94C53.984,-9.94 54.269,-9.739 54.474,-9.338L57.582,-3.416L60.676,-9.338C60.881,-9.739 61.157,-9.94 61.502,-9.94C61.763,-9.94 61.973,-9.858 62.132,-9.695Z" style="fill:rgb(72,175,232);fill-rule:nonzero;"/>
                <path d="M65.891,-0.161C65.252,-0.352 64.731,-0.611 64.33,-0.938C64.115,-1.097 64.008,-1.321 64.008,-1.61C64.008,-1.806 64.066,-1.976 64.183,-2.121C64.3,-2.266 64.437,-2.338 64.596,-2.338C64.764,-2.338 64.955,-2.273 65.17,-2.142C65.571,-1.853 65.991,-1.643 66.43,-1.512C66.869,-1.381 67.354,-1.316 67.886,-1.316C68.567,-1.316 69.09,-1.435 69.454,-1.673C69.818,-1.911 70,-2.259 70,-2.716C70,-3.071 69.83,-3.344 69.489,-3.535C69.148,-3.726 68.581,-3.911 67.788,-4.088C66.967,-4.265 66.299,-4.471 65.786,-4.704C65.273,-4.937 64.885,-5.236 64.624,-5.6C64.363,-5.964 64.232,-6.426 64.232,-6.986C64.232,-7.565 64.395,-8.083 64.722,-8.54C65.049,-8.997 65.504,-9.354 66.087,-9.611C66.67,-9.868 67.326,-9.996 68.054,-9.996C69.389,-9.996 70.476,-9.641 71.316,-8.932C71.437,-8.829 71.524,-8.729 71.575,-8.631C71.626,-8.533 71.652,-8.409 71.652,-8.26C71.652,-8.064 71.594,-7.894 71.477,-7.749C71.36,-7.604 71.223,-7.532 71.064,-7.532C70.971,-7.532 70.884,-7.546 70.805,-7.574C70.726,-7.602 70.621,-7.653 70.49,-7.728C70.107,-8.008 69.736,-8.216 69.377,-8.351C69.018,-8.486 68.577,-8.554 68.054,-8.554C67.419,-8.554 66.918,-8.426 66.549,-8.169C66.18,-7.912 65.996,-7.555 65.996,-7.098C65.996,-6.715 66.159,-6.421 66.486,-6.216C66.813,-6.011 67.368,-5.819 68.152,-5.642C68.983,-5.455 69.657,-5.248 70.175,-5.019C70.693,-4.79 71.09,-4.499 71.365,-4.144C71.64,-3.789 71.778,-3.346 71.778,-2.814C71.778,-2.235 71.617,-1.724 71.295,-1.281C70.973,-0.838 70.52,-0.492 69.937,-0.245C69.354,0.002 68.684,0.126 67.928,0.126C67.209,0.126 66.53,0.03 65.891,-0.161Z" style="fill:rgb(72,175,232);fill-rule:nonzero;"/>
            </g>
        </g>
    </g>
</svg>
