<?xml version="1.0" encoding="UTF-8" standalone="no"?>
<svg width="98px" height="83px" viewBox="0 0 98 83" version="1.1" xmlns="http://www.w3.org/2000/svg" xmlns:xlink="http://www.w3.org/1999/xlink">
    <!-- Generator: Sketch 50.2 (55047) - http://www.bohemiancoding.com/sketch -->
    <title>Host</title>
    <desc>Created with Sketch.</desc>
    <defs></defs>
    <g id="Page-1" stroke="none" stroke-width="1" fill="none" fill-rule="evenodd">
        <path d="M30,74.875 L2.48710762,74.875 C1.11872197,74.875 0,73.7265625 0,72.3242188 L0,2.55273438 C0,1.1484375 1.11872197,0 2.48710762,0 L31.4881166,0 C32.8584081,0 33.97713,1.1484375 33.97713,2.55273438 L33.97713,6.000064 C31.7785144,6.01237295 30,7.79848933 30,10 L30,74.875 Z M68,74.875 L68,10 C68,7.790861 66.209139,6 64,6 L64,2.55273438 C64,1.1484375 65.118722,0 66.4871076,0 L95.4881166,0 C96.8584081,0 97.97713,1.1484375 97.97713,2.55273438 L97.97713,72.3242188 C97.97713,73.7265625 96.8584081,74.875 95.4881166,74.875 L68,74.875 Z M83.822343,68.4671875 C83.822343,66.8636719 82.5549664,65.5628906 80.9883744,65.5628906 C79.4236883,65.5628906 78.1525,66.8636719 78.1525,68.4671875 C78.1525,70.0707031 79.4236883,71.3714844 80.9883744,71.3714844 C82.5549664,71.3714844 83.822343,70.0707031 83.822343,68.4671875 Z M77.6638453,60.8519531 L84.3132848,60.8519531 C84.9448211,60.8519531 85.4567825,60.3272868 85.4567825,59.6800781 C85.4567825,59.0328694 84.9448211,58.5082031 84.3132848,58.5082031 L77.6638453,58.5082031 C77.0323089,58.5082031 76.5203475,59.0328694 76.5203475,59.6800781 C76.5203475,60.3272868 77.0323089,60.8519531 77.6638453,60.8519531 Z M77.6638453,56.0396484 L84.3132848,56.0396484 C84.9448211,56.0396484 85.4567825,55.5149821 85.4567825,54.8677734 C85.4567825,54.2205647 84.9448211,53.6958984 84.3132848,53.6958984 L77.6638453,53.6958984 C77.0323089,53.6958984 76.5203475,54.2205647 76.5203475,54.8677734 C76.5203475,55.5149821 77.0323089,56.0396484 77.6638453,56.0396484 Z M77.6638453,51.2265625 L84.3132848,51.2265625 C84.9448211,51.2265625 85.4567825,50.7018962 85.4567825,50.0546875 C85.4567825,49.4074788 84.9448211,48.8828125 84.3132848,48.8828125 L77.6638453,48.8828125 C77.0323089,48.8828125 76.5203475,49.4074788 76.5203475,50.0546875 C76.5203475,50.7018962 77.0323089,51.2265625 77.6638453,51.2265625 Z M19.822343,68.4671875 C19.822343,66.8636719 18.5549664,65.5628906 16.9883744,65.5628906 C15.4236883,65.5628906 14.1525,66.8636719 14.1525,68.4671875 C14.1525,70.0707031 15.4236883,71.3714844 16.9883744,71.3714844 C18.5549664,71.3714844 19.822343,70.0707031 19.822343,68.4671875 Z M13.6638453,60.8519531 L20.3132848,60.8519531 C20.9448211,60.8519531 21.4567825,60.3272868 21.4567825,59.6800781 C21.4567825,59.0328694 20.9448211,58.5082031 20.3132848,58.5082031 L13.6638453,58.5082031 C13.0323089,58.5082031 12.5203475,59.0328694 12.5203475,59.6800781 C12.5203475,60.3272868 13.0323089,60.8519531 13.6638453,60.8519531 Z M13.6638453,56.0396484 L20.3132848,56.0396484 C20.9448211,56.0396484 21.4567825,55.5149821 21.4567825,54.8677734 C21.4567825,54.2205647 20.9448211,53.6958984 20.3132848,53.6958984 L13.6638453,53.6958984 C13.0323089,53.6958984 12.5203475,54.2205647 12.5203475,54.8677734 C12.5203475,55.5149821 13.0323089,56.0396484 13.6638453,56.0396484 Z M13.6638453,51.2265625 L20.3132848,51.2265625 C20.9448211,51.2265625 21.4567825,50.7018962 21.4567825,50.0546875 C21.4567825,49.4074788 20.9448211,48.8828125 20.3132848,48.8828125 L13.6638453,48.8828125 C13.0323089,48.8828125 12.5203475,49.4074788 12.5203475,50.0546875 C12.5203475,50.7018962 13.0323089,51.2265625 13.6638453,51.2265625 Z M63.4881166,82.875 L34.4871076,82.875 C33.118722,82.875 32,81.7265625 32,80.3242188 L32,10.5527344 C32,9.1484375 33.118722,8 34.4871076,8 L63.4881166,8 C64.8584081,8 65.97713,9.1484375 65.97713,10.5527344 L65.97713,80.3242188 C65.97713,81.7265625 64.8584081,82.875 63.4881166,82.875 Z M51.822343,76.4671875 C51.822343,74.8636719 50.5549664,73.5628906 48.9883744,73.5628906 C47.4236883,73.5628906 46.1525,74.8636719 46.1525,76.4671875 C46.1525,78.0707031 47.4236883,79.3714844 48.9883744,79.3714844 C50.5549664,79.3714844 51.822343,78.0707031 51.822343,76.4671875 Z M45.6638453,68.8519531 L52.3132848,68.8519531 C52.9448211,68.8519531 53.4567825,68.3272868 53.4567825,67.6800781 C53.4567825,67.0328694 52.9448211,66.5082031 52.3132848,66.5082031 L45.6638453,66.5082031 C45.0323089,66.5082031 44.5203475,67.0328694 44.5203475,67.6800781 C44.5203475,68.3272868 45.0323089,68.8519531 45.6638453,68.8519531 Z M45.6638453,64.0396484 L52.3132848,64.0396484 C52.9448211,64.0396484 53.4567825,63.5149821 53.4567825,62.8677734 C53.4567825,62.2205647 52.9448211,61.6958984 52.3132848,61.6958984 L45.6638453,61.6958984 C45.0323089,61.6958984 44.5203475,62.2205647 44.5203475,62.8677734 C44.5203475,63.5149821 45.0323089,64.0396484 45.6638453,64.0396484 Z M45.6638453,59.2265625 L52.3132848,59.2265625 C52.9448211,59.2265625 53.4567825,58.7018962 53.4567825,58.0546875 C53.4567825,57.4074788 52.9448211,56.8828125 52.3132848,56.8828125 L45.6638453,56.8828125 C45.0323089,56.8828125 44.5203475,57.4074788 44.5203475,58.0546875 C44.5203475,58.7018962 45.0323089,59.2265625 45.6638453,59.2265625 Z" id="Host" fill="#636569"></path>
    </g>
</svg>