<?xml version="1.0" encoding="UTF-8" standalone="no"?>
<!DOCTYPE svg PUBLIC "-//W3C//DTD SVG 1.1//EN" "http://www.w3.org/Graphics/SVG/1.1/DTD/svg11.dtd">
<svg width="100%" height="100%" viewBox="0 0 125 11" version="1.1" xmlns="http://www.w3.org/2000/svg" xmlns:xlink="http://www.w3.org/1999/xlink" xml:space="preserve" xmlns:serif="http://www.serif.com/" style="fill-rule:evenodd;clip-rule:evenodd;stroke-linejoin:round;stroke-miterlimit:1.41421;">
    <g transform="matrix(1,0,0,1,-1158,-365)">
        <g transform="matrix(1,0,0,1,1157,375)">
            <g id="International-Office">
                <path d="M1.372,-0.091C1.269,-0.198 1.218,-0.341 1.218,-0.518L1.218,-9.352C1.218,-9.529 1.269,-9.672 1.372,-9.779C1.475,-9.886 1.615,-9.94 1.792,-9.94C1.969,-9.94 2.109,-9.886 2.212,-9.779C2.315,-9.672 2.366,-9.529 2.366,-9.352L2.366,-0.518C2.366,-0.341 2.315,-0.198 2.212,-0.091C2.109,0.016 1.969,0.07 1.792,0.07C1.615,0.07 1.475,0.016 1.372,-0.091Z" style="fill-rule:nonzero;"/>
                <path d="M10.514,-4.284L10.514,-0.49C10.514,-0.313 10.465,-0.175 10.367,-0.077C10.269,0.021 10.131,0.07 9.954,0.07C9.777,0.07 9.637,0.021 9.534,-0.077C9.431,-0.175 9.38,-0.313 9.38,-0.49L9.38,-4.214C9.38,-4.849 9.256,-5.311 9.009,-5.6C8.762,-5.889 8.367,-6.034 7.826,-6.034C7.201,-6.034 6.701,-5.843 6.328,-5.46C5.955,-5.077 5.768,-4.559 5.768,-3.906L5.768,-0.49C5.768,-0.313 5.719,-0.175 5.621,-0.077C5.523,0.021 5.385,0.07 5.208,0.07C5.031,0.07 4.891,0.021 4.788,-0.077C4.685,-0.175 4.634,-0.313 4.634,-0.49L4.634,-6.398C4.634,-6.566 4.685,-6.701 4.788,-6.804C4.891,-6.907 5.031,-6.958 5.208,-6.958C5.376,-6.958 5.509,-6.907 5.607,-6.804C5.705,-6.701 5.754,-6.571 5.754,-6.412L5.754,-5.698C5.978,-6.118 6.291,-6.438 6.692,-6.657C7.093,-6.876 7.551,-6.986 8.064,-6.986C9.697,-6.986 10.514,-6.085 10.514,-4.284Z" style="fill-rule:nonzero;"/>
                <path d="M16.226,-0.378C16.226,-0.219 16.168,-0.1 16.051,-0.021C15.934,0.058 15.759,0.089 15.526,0.07L15.148,0.042C14.401,-0.014 13.851,-0.238 13.496,-0.63C13.141,-1.022 12.964,-1.615 12.964,-2.408L12.964,-5.922L12.026,-5.922C11.867,-5.922 11.744,-5.962 11.655,-6.041C11.566,-6.12 11.522,-6.225 11.522,-6.356C11.522,-6.496 11.566,-6.608 11.655,-6.692C11.744,-6.776 11.867,-6.818 12.026,-6.818L12.964,-6.818L12.964,-8.4C12.964,-8.577 13.015,-8.715 13.118,-8.813C13.221,-8.911 13.361,-8.96 13.538,-8.96C13.706,-8.96 13.841,-8.911 13.944,-8.813C14.047,-8.715 14.098,-8.577 14.098,-8.4L14.098,-6.818L15.652,-6.818C15.801,-6.818 15.92,-6.776 16.009,-6.692C16.098,-6.608 16.142,-6.496 16.142,-6.356C16.142,-6.225 16.098,-6.12 16.009,-6.041C15.92,-5.962 15.801,-5.922 15.652,-5.922L14.098,-5.922L14.098,-2.352C14.098,-1.839 14.203,-1.468 14.413,-1.239C14.623,-1.01 14.938,-0.882 15.358,-0.854L15.736,-0.826C16.063,-0.798 16.226,-0.649 16.226,-0.378Z" style="fill-rule:nonzero;"/>
                <path d="M22.89,-1.456C22.965,-1.372 23.002,-1.265 23.002,-1.134C23.002,-0.901 22.839,-0.686 22.512,-0.49C22.176,-0.294 21.821,-0.147 21.448,-0.049C21.075,0.049 20.711,0.098 20.356,0.098C19.301,0.098 18.468,-0.215 17.857,-0.84C17.246,-1.465 16.94,-2.329 16.94,-3.43C16.94,-4.13 17.075,-4.748 17.346,-5.285C17.617,-5.822 17.997,-6.239 18.487,-6.538C18.977,-6.837 19.535,-6.986 20.16,-6.986C21.047,-6.986 21.751,-6.697 22.274,-6.118C22.797,-5.539 23.058,-4.755 23.058,-3.766C23.058,-3.579 23.021,-3.444 22.946,-3.36C22.871,-3.276 22.75,-3.234 22.582,-3.234L18.074,-3.234C18.158,-1.629 18.919,-0.826 20.356,-0.826C20.72,-0.826 21.033,-0.875 21.294,-0.973C21.555,-1.071 21.835,-1.204 22.134,-1.372C22.377,-1.512 22.54,-1.582 22.624,-1.582C22.727,-1.582 22.815,-1.54 22.89,-1.456ZM18.739,-5.544C18.38,-5.171 18.167,-4.643 18.102,-3.962L22.064,-3.962C22.045,-4.653 21.873,-5.182 21.546,-5.551C21.219,-5.92 20.762,-6.104 20.174,-6.104C19.577,-6.104 19.098,-5.917 18.739,-5.544Z" style="fill-rule:nonzero;"/>
                <path d="M28.686,-6.482C28.686,-6.333 28.644,-6.214 28.56,-6.125C28.476,-6.036 28.331,-5.983 28.126,-5.964L27.706,-5.922C27.081,-5.866 26.616,-5.644 26.313,-5.257C26.01,-4.87 25.858,-4.415 25.858,-3.892L25.858,-0.49C25.858,-0.303 25.807,-0.163 25.704,-0.07C25.601,0.023 25.466,0.07 25.298,0.07C25.13,0.07 24.992,0.021 24.885,-0.077C24.778,-0.175 24.724,-0.313 24.724,-0.49L24.724,-6.398C24.724,-6.575 24.78,-6.713 24.892,-6.811C25.004,-6.909 25.139,-6.958 25.298,-6.958C25.447,-6.958 25.573,-6.909 25.676,-6.811C25.779,-6.713 25.83,-6.58 25.83,-6.412L25.83,-5.628C26.026,-6.039 26.304,-6.351 26.663,-6.566C27.022,-6.781 27.435,-6.907 27.902,-6.944L28.098,-6.958C28.49,-6.986 28.686,-6.827 28.686,-6.482Z" style="fill-rule:nonzero;"/>
                <path d="M35.546,-4.284L35.546,-0.49C35.546,-0.313 35.497,-0.175 35.399,-0.077C35.301,0.021 35.163,0.07 34.986,0.07C34.809,0.07 34.669,0.021 34.566,-0.077C34.463,-0.175 34.412,-0.313 34.412,-0.49L34.412,-4.214C34.412,-4.849 34.288,-5.311 34.041,-5.6C33.794,-5.889 33.399,-6.034 32.858,-6.034C32.233,-6.034 31.733,-5.843 31.36,-5.46C30.987,-5.077 30.8,-4.559 30.8,-3.906L30.8,-0.49C30.8,-0.313 30.751,-0.175 30.653,-0.077C30.555,0.021 30.417,0.07 30.24,0.07C30.063,0.07 29.923,0.021 29.82,-0.077C29.717,-0.175 29.666,-0.313 29.666,-0.49L29.666,-6.398C29.666,-6.566 29.717,-6.701 29.82,-6.804C29.923,-6.907 30.063,-6.958 30.24,-6.958C30.408,-6.958 30.541,-6.907 30.639,-6.804C30.737,-6.701 30.786,-6.571 30.786,-6.412L30.786,-5.698C31.01,-6.118 31.323,-6.438 31.724,-6.657C32.125,-6.876 32.583,-6.986 33.096,-6.986C34.729,-6.986 35.546,-6.085 35.546,-4.284Z" style="fill-rule:nonzero;"/>
                <path d="M42.966,-4.298L42.966,-0.49C42.966,-0.322 42.917,-0.187 42.819,-0.084C42.721,0.019 42.588,0.07 42.42,0.07C42.252,0.07 42.117,0.019 42.014,-0.084C41.911,-0.187 41.86,-0.322 41.86,-0.49L41.86,-1.162C41.683,-0.761 41.412,-0.45 41.048,-0.231C40.684,-0.012 40.264,0.098 39.788,0.098C39.349,0.098 38.946,0.009 38.577,-0.168C38.208,-0.345 37.917,-0.593 37.702,-0.91C37.487,-1.227 37.38,-1.577 37.38,-1.96C37.38,-2.473 37.511,-2.872 37.772,-3.157C38.033,-3.442 38.463,-3.647 39.06,-3.773C39.657,-3.899 40.488,-3.962 41.552,-3.962L41.86,-3.962L41.86,-4.424C41.86,-4.984 41.746,-5.395 41.517,-5.656C41.288,-5.917 40.917,-6.048 40.404,-6.048C39.769,-6.048 39.125,-5.875 38.472,-5.53C38.22,-5.371 38.043,-5.292 37.94,-5.292C37.828,-5.292 37.735,-5.334 37.66,-5.418C37.585,-5.502 37.548,-5.609 37.548,-5.74C37.548,-5.871 37.588,-5.985 37.667,-6.083C37.746,-6.181 37.875,-6.281 38.052,-6.384C38.379,-6.571 38.75,-6.718 39.165,-6.825C39.58,-6.932 39.993,-6.986 40.404,-6.986C42.112,-6.986 42.966,-6.09 42.966,-4.298ZM41.321,-1.365C41.68,-1.743 41.86,-2.231 41.86,-2.828L41.86,-3.234L41.608,-3.234C40.787,-3.234 40.161,-3.199 39.732,-3.129C39.303,-3.059 38.997,-2.942 38.815,-2.779C38.633,-2.616 38.542,-2.375 38.542,-2.058C38.542,-1.694 38.675,-1.393 38.941,-1.155C39.207,-0.917 39.541,-0.798 39.942,-0.798C40.502,-0.798 40.962,-0.987 41.321,-1.365Z" style="fill-rule:nonzero;"/>
                <path d="M48.678,-0.378C48.678,-0.219 48.62,-0.1 48.503,-0.021C48.386,0.058 48.211,0.089 47.978,0.07L47.6,0.042C46.853,-0.014 46.303,-0.238 45.948,-0.63C45.593,-1.022 45.416,-1.615 45.416,-2.408L45.416,-5.922L44.478,-5.922C44.319,-5.922 44.196,-5.962 44.107,-6.041C44.018,-6.12 43.974,-6.225 43.974,-6.356C43.974,-6.496 44.018,-6.608 44.107,-6.692C44.196,-6.776 44.319,-6.818 44.478,-6.818L45.416,-6.818L45.416,-8.4C45.416,-8.577 45.467,-8.715 45.57,-8.813C45.673,-8.911 45.813,-8.96 45.99,-8.96C46.158,-8.96 46.293,-8.911 46.396,-8.813C46.499,-8.715 46.55,-8.577 46.55,-8.4L46.55,-6.818L48.104,-6.818C48.253,-6.818 48.372,-6.776 48.461,-6.692C48.55,-6.608 48.594,-6.496 48.594,-6.356C48.594,-6.225 48.55,-6.12 48.461,-6.041C48.372,-5.962 48.253,-5.922 48.104,-5.922L46.55,-5.922L46.55,-2.352C46.55,-1.839 46.655,-1.468 46.865,-1.239C47.075,-1.01 47.39,-0.882 47.81,-0.854L48.188,-0.826C48.515,-0.798 48.678,-0.649 48.678,-0.378Z" style="fill-rule:nonzero;"/>
                <path d="M49.959,-0.077C49.852,-0.175 49.798,-0.313 49.798,-0.49L49.798,-6.398C49.798,-6.575 49.852,-6.713 49.959,-6.811C50.066,-6.909 50.204,-6.958 50.372,-6.958C50.54,-6.958 50.675,-6.909 50.778,-6.811C50.881,-6.713 50.932,-6.575 50.932,-6.398L50.932,-0.49C50.932,-0.303 50.881,-0.163 50.778,-0.07C50.675,0.023 50.54,0.07 50.372,0.07C50.204,0.07 50.066,0.021 49.959,-0.077ZM49.826,-8.624C49.686,-8.755 49.616,-8.927 49.616,-9.142C49.616,-9.347 49.686,-9.515 49.826,-9.646C49.966,-9.777 50.148,-9.842 50.372,-9.842C50.596,-9.842 50.778,-9.777 50.918,-9.646C51.058,-9.515 51.128,-9.347 51.128,-9.142C51.128,-8.927 51.058,-8.755 50.918,-8.624C50.778,-8.493 50.596,-8.428 50.372,-8.428C50.148,-8.428 49.966,-8.493 49.826,-8.624Z" style="fill-rule:nonzero;"/>
                <path d="M54.173,-0.336C53.683,-0.625 53.305,-1.038 53.039,-1.575C52.773,-2.112 52.64,-2.735 52.64,-3.444C52.64,-4.153 52.773,-4.776 53.039,-5.313C53.305,-5.85 53.683,-6.263 54.173,-6.552C54.663,-6.841 55.23,-6.986 55.874,-6.986C56.518,-6.986 57.087,-6.841 57.582,-6.552C58.077,-6.263 58.457,-5.85 58.723,-5.313C58.989,-4.776 59.122,-4.153 59.122,-3.444C59.122,-2.735 58.989,-2.112 58.723,-1.575C58.457,-1.038 58.077,-0.625 57.582,-0.336C57.087,-0.047 56.518,0.098 55.874,0.098C55.23,0.098 54.663,-0.047 54.173,-0.336ZM57.421,-1.505C57.78,-1.948 57.96,-2.595 57.96,-3.444C57.96,-4.275 57.778,-4.916 57.414,-5.369C57.05,-5.822 56.537,-6.048 55.874,-6.048C55.211,-6.048 54.698,-5.822 54.334,-5.369C53.97,-4.916 53.788,-4.275 53.788,-3.444C53.788,-2.604 53.968,-1.96 54.327,-1.512C54.686,-1.064 55.202,-0.84 55.874,-0.84C56.546,-0.84 57.062,-1.062 57.421,-1.505Z" style="fill-rule:nonzero;"/>
                <path d="M66.696,-4.284L66.696,-0.49C66.696,-0.313 66.647,-0.175 66.549,-0.077C66.451,0.021 66.313,0.07 66.136,0.07C65.959,0.07 65.819,0.021 65.716,-0.077C65.613,-0.175 65.562,-0.313 65.562,-0.49L65.562,-4.214C65.562,-4.849 65.438,-5.311 65.191,-5.6C64.944,-5.889 64.549,-6.034 64.008,-6.034C63.383,-6.034 62.883,-5.843 62.51,-5.46C62.137,-5.077 61.95,-4.559 61.95,-3.906L61.95,-0.49C61.95,-0.313 61.901,-0.175 61.803,-0.077C61.705,0.021 61.567,0.07 61.39,0.07C61.213,0.07 61.073,0.021 60.97,-0.077C60.867,-0.175 60.816,-0.313 60.816,-0.49L60.816,-6.398C60.816,-6.566 60.867,-6.701 60.97,-6.804C61.073,-6.907 61.213,-6.958 61.39,-6.958C61.558,-6.958 61.691,-6.907 61.789,-6.804C61.887,-6.701 61.936,-6.571 61.936,-6.412L61.936,-5.698C62.16,-6.118 62.473,-6.438 62.874,-6.657C63.275,-6.876 63.733,-6.986 64.246,-6.986C65.879,-6.986 66.696,-6.085 66.696,-4.284Z" style="fill-rule:nonzero;"/>
                <path d="M74.116,-4.298L74.116,-0.49C74.116,-0.322 74.067,-0.187 73.969,-0.084C73.871,0.019 73.738,0.07 73.57,0.07C73.402,0.07 73.267,0.019 73.164,-0.084C73.061,-0.187 73.01,-0.322 73.01,-0.49L73.01,-1.162C72.833,-0.761 72.562,-0.45 72.198,-0.231C71.834,-0.012 71.414,0.098 70.938,0.098C70.499,0.098 70.096,0.009 69.727,-0.168C69.358,-0.345 69.067,-0.593 68.852,-0.91C68.637,-1.227 68.53,-1.577 68.53,-1.96C68.53,-2.473 68.661,-2.872 68.922,-3.157C69.183,-3.442 69.613,-3.647 70.21,-3.773C70.807,-3.899 71.638,-3.962 72.702,-3.962L73.01,-3.962L73.01,-4.424C73.01,-4.984 72.896,-5.395 72.667,-5.656C72.438,-5.917 72.067,-6.048 71.554,-6.048C70.919,-6.048 70.275,-5.875 69.622,-5.53C69.37,-5.371 69.193,-5.292 69.09,-5.292C68.978,-5.292 68.885,-5.334 68.81,-5.418C68.735,-5.502 68.698,-5.609 68.698,-5.74C68.698,-5.871 68.738,-5.985 68.817,-6.083C68.896,-6.181 69.025,-6.281 69.202,-6.384C69.529,-6.571 69.9,-6.718 70.315,-6.825C70.73,-6.932 71.143,-6.986 71.554,-6.986C73.262,-6.986 74.116,-6.09 74.116,-4.298ZM72.471,-1.365C72.83,-1.743 73.01,-2.231 73.01,-2.828L73.01,-3.234L72.758,-3.234C71.937,-3.234 71.311,-3.199 70.882,-3.129C70.453,-3.059 70.147,-2.942 69.965,-2.779C69.783,-2.616 69.692,-2.375 69.692,-2.058C69.692,-1.694 69.825,-1.393 70.091,-1.155C70.357,-0.917 70.691,-0.798 71.092,-0.798C71.652,-0.798 72.112,-0.987 72.471,-1.365Z" style="fill-rule:nonzero;"/>
                <path d="M76.349,-0.077C76.242,-0.175 76.188,-0.313 76.188,-0.49L76.188,-9.38C76.188,-9.557 76.242,-9.695 76.349,-9.793C76.456,-9.891 76.594,-9.94 76.762,-9.94C76.921,-9.94 77.054,-9.891 77.161,-9.793C77.268,-9.695 77.322,-9.557 77.322,-9.38L77.322,-0.49C77.322,-0.313 77.268,-0.175 77.161,-0.077C77.054,0.021 76.921,0.07 76.762,0.07C76.594,0.07 76.456,0.021 76.349,-0.077Z" style="fill-rule:nonzero;"/>
                <path d="M84.959,-0.504C84.282,-0.915 83.762,-1.498 83.398,-2.254C83.034,-3.01 82.852,-3.901 82.852,-4.928C82.852,-5.964 83.032,-6.862 83.391,-7.623C83.75,-8.384 84.268,-8.967 84.945,-9.373C85.622,-9.779 86.422,-9.982 87.346,-9.982C88.27,-9.982 89.07,-9.779 89.747,-9.373C90.424,-8.967 90.942,-8.384 91.301,-7.623C91.66,-6.862 91.84,-5.969 91.84,-4.942C91.84,-3.915 91.658,-3.022 91.294,-2.261C90.93,-1.5 90.41,-0.915 89.733,-0.504C89.056,-0.093 88.261,0.112 87.346,0.112C86.431,0.112 85.636,-0.093 84.959,-0.504ZM89.789,-1.925C90.372,-2.63 90.664,-3.635 90.664,-4.942C90.664,-6.249 90.375,-7.252 89.796,-7.952C89.217,-8.652 88.401,-9.002 87.346,-9.002C86.301,-9.002 85.486,-8.65 84.903,-7.945C84.32,-7.24 84.028,-6.239 84.028,-4.942C84.028,-3.645 84.32,-2.641 84.903,-1.932C85.486,-1.223 86.301,-0.868 87.346,-0.868C88.391,-0.868 89.206,-1.22 89.789,-1.925Z" style="fill-rule:nonzero;"/>
                <path d="M95.634,-8.505C95.382,-8.23 95.256,-7.817 95.256,-7.266L95.256,-6.818L96.81,-6.818C96.969,-6.818 97.09,-6.776 97.174,-6.692C97.258,-6.608 97.3,-6.496 97.3,-6.356C97.3,-6.216 97.258,-6.109 97.174,-6.034C97.09,-5.959 96.969,-5.922 96.81,-5.922L95.256,-5.922L95.256,-0.49C95.256,-0.313 95.202,-0.175 95.095,-0.077C94.988,0.021 94.855,0.07 94.696,0.07C94.528,0.07 94.39,0.021 94.283,-0.077C94.176,-0.175 94.122,-0.313 94.122,-0.49L94.122,-5.922L93.184,-5.922C93.025,-5.922 92.902,-5.962 92.813,-6.041C92.724,-6.12 92.68,-6.225 92.68,-6.356C92.68,-6.496 92.724,-6.608 92.813,-6.692C92.902,-6.776 93.025,-6.818 93.184,-6.818L94.122,-6.818L94.122,-7.07C94.122,-7.91 94.332,-8.57 94.752,-9.051C95.172,-9.532 95.774,-9.8 96.558,-9.856L96.922,-9.884C97.165,-9.903 97.34,-9.879 97.447,-9.814C97.554,-9.749 97.608,-9.632 97.608,-9.464C97.608,-9.193 97.445,-9.039 97.118,-9.002L96.754,-8.974C96.259,-8.937 95.886,-8.78 95.634,-8.505Z" style="fill-rule:nonzero;"/>
                <path d="M103.922,-6.692C104.006,-6.608 104.048,-6.496 104.048,-6.356L104.048,-0.49C104.048,-0.313 103.994,-0.175 103.887,-0.077C103.78,0.021 103.647,0.07 103.488,0.07C103.32,0.07 103.182,0.021 103.075,-0.077C102.968,-0.175 102.914,-0.313 102.914,-0.49L102.914,-5.922L99.848,-5.922L99.848,-0.49C99.848,-0.313 99.794,-0.175 99.687,-0.077C99.58,0.021 99.447,0.07 99.288,0.07C99.12,0.07 98.982,0.021 98.875,-0.077C98.768,-0.175 98.714,-0.313 98.714,-0.49L98.714,-5.922L97.776,-5.922C97.617,-5.922 97.494,-5.962 97.405,-6.041C97.316,-6.12 97.272,-6.225 97.272,-6.356C97.272,-6.496 97.316,-6.608 97.405,-6.692C97.494,-6.776 97.617,-6.818 97.776,-6.818L98.714,-6.818L98.714,-7.056C98.714,-7.896 98.924,-8.556 99.344,-9.037C99.764,-9.518 100.366,-9.791 101.15,-9.856L101.486,-9.884C101.934,-9.921 102.158,-9.781 102.158,-9.464C102.158,-9.193 101.999,-9.039 101.682,-9.002L101.346,-8.974C100.851,-8.937 100.478,-8.78 100.226,-8.505C99.974,-8.23 99.848,-7.817 99.848,-7.266L99.848,-6.818L103.558,-6.818C103.717,-6.818 103.838,-6.776 103.922,-6.692ZM104.027,-9.646C104.172,-9.515 104.244,-9.347 104.244,-9.142C104.244,-8.927 104.174,-8.755 104.034,-8.624C103.894,-8.493 103.712,-8.428 103.488,-8.428C103.264,-8.428 103.082,-8.493 102.942,-8.624C102.802,-8.755 102.732,-8.927 102.732,-9.142C102.732,-9.347 102.802,-9.515 102.942,-9.646C103.082,-9.777 103.264,-9.842 103.488,-9.842C103.703,-9.842 103.882,-9.777 104.027,-9.646Z" style="fill-rule:nonzero;"/>
                <path d="M107.289,-0.336C106.799,-0.625 106.421,-1.036 106.155,-1.568C105.889,-2.1 105.756,-2.716 105.756,-3.416C105.756,-4.116 105.894,-4.737 106.169,-5.278C106.444,-5.819 106.829,-6.239 107.324,-6.538C107.819,-6.837 108.388,-6.986 109.032,-6.986C109.387,-6.986 109.739,-6.937 110.089,-6.839C110.439,-6.741 110.745,-6.599 111.006,-6.412C111.174,-6.3 111.293,-6.19 111.363,-6.083C111.433,-5.976 111.468,-5.857 111.468,-5.726C111.468,-5.595 111.433,-5.488 111.363,-5.404C111.293,-5.32 111.202,-5.278 111.09,-5.278C111.025,-5.278 110.955,-5.297 110.88,-5.334C110.805,-5.371 110.742,-5.409 110.691,-5.446C110.64,-5.483 110.605,-5.507 110.586,-5.516C110.343,-5.675 110.112,-5.801 109.893,-5.894C109.674,-5.987 109.405,-6.034 109.088,-6.034C108.407,-6.034 107.877,-5.803 107.499,-5.341C107.121,-4.879 106.932,-4.237 106.932,-3.416C106.932,-2.595 107.121,-1.96 107.499,-1.512C107.877,-1.064 108.407,-0.84 109.088,-0.84C109.405,-0.84 109.678,-0.887 109.907,-0.98C110.136,-1.073 110.367,-1.199 110.6,-1.358C110.703,-1.423 110.801,-1.479 110.894,-1.526C110.987,-1.573 111.067,-1.596 111.132,-1.596C111.235,-1.596 111.321,-1.554 111.391,-1.47C111.461,-1.386 111.496,-1.279 111.496,-1.148C111.496,-1.027 111.463,-0.917 111.398,-0.819C111.333,-0.721 111.211,-0.611 111.034,-0.49C110.773,-0.313 110.458,-0.17 110.089,-0.063C109.72,0.044 109.349,0.098 108.976,0.098C108.341,0.098 107.779,-0.047 107.289,-0.336Z" style="fill-rule:nonzero;"/>
                <path d="M118.412,-1.456C118.487,-1.372 118.524,-1.265 118.524,-1.134C118.524,-0.901 118.361,-0.686 118.034,-0.49C117.698,-0.294 117.343,-0.147 116.97,-0.049C116.597,0.049 116.233,0.098 115.878,0.098C114.823,0.098 113.99,-0.215 113.379,-0.84C112.768,-1.465 112.462,-2.329 112.462,-3.43C112.462,-4.13 112.597,-4.748 112.868,-5.285C113.139,-5.822 113.519,-6.239 114.009,-6.538C114.499,-6.837 115.057,-6.986 115.682,-6.986C116.569,-6.986 117.273,-6.697 117.796,-6.118C118.319,-5.539 118.58,-4.755 118.58,-3.766C118.58,-3.579 118.543,-3.444 118.468,-3.36C118.393,-3.276 118.272,-3.234 118.104,-3.234L113.596,-3.234C113.68,-1.629 114.441,-0.826 115.878,-0.826C116.242,-0.826 116.555,-0.875 116.816,-0.973C117.077,-1.071 117.357,-1.204 117.656,-1.372C117.899,-1.512 118.062,-1.582 118.146,-1.582C118.249,-1.582 118.337,-1.54 118.412,-1.456ZM114.261,-5.544C113.902,-5.171 113.689,-4.643 113.624,-3.962L117.586,-3.962C117.567,-4.653 117.395,-5.182 117.068,-5.551C116.741,-5.92 116.284,-6.104 115.696,-6.104C115.099,-6.104 114.62,-5.917 114.261,-5.544Z" style="fill-rule:nonzero;"/>
                <path d="M121.317,-0.056C120.93,-0.159 120.587,-0.303 120.288,-0.49C120.12,-0.602 120.001,-0.707 119.931,-0.805C119.861,-0.903 119.826,-1.022 119.826,-1.162C119.826,-1.283 119.861,-1.384 119.931,-1.463C120.001,-1.542 120.092,-1.582 120.204,-1.582C120.316,-1.582 120.479,-1.512 120.694,-1.372C120.974,-1.204 121.252,-1.071 121.527,-0.973C121.802,-0.875 122.145,-0.826 122.556,-0.826C123.06,-0.826 123.452,-0.915 123.732,-1.092C124.012,-1.269 124.152,-1.526 124.152,-1.862C124.152,-2.067 124.101,-2.233 123.998,-2.359C123.895,-2.485 123.718,-2.597 123.466,-2.695C123.214,-2.793 122.845,-2.893 122.36,-2.996C121.539,-3.173 120.951,-3.411 120.596,-3.71C120.241,-4.009 120.064,-4.415 120.064,-4.928C120.064,-5.329 120.176,-5.684 120.4,-5.992C120.624,-6.3 120.934,-6.543 121.331,-6.72C121.728,-6.897 122.178,-6.986 122.682,-6.986C123.046,-6.986 123.398,-6.937 123.739,-6.839C124.08,-6.741 124.381,-6.603 124.642,-6.426C124.959,-6.202 125.118,-5.969 125.118,-5.726C125.118,-5.605 125.081,-5.502 125.006,-5.418C124.931,-5.334 124.843,-5.292 124.74,-5.292C124.628,-5.292 124.46,-5.371 124.236,-5.53C123.975,-5.698 123.727,-5.829 123.494,-5.922C123.261,-6.015 122.971,-6.062 122.626,-6.062C122.187,-6.062 121.835,-5.964 121.569,-5.768C121.303,-5.572 121.17,-5.311 121.17,-4.984C121.17,-4.779 121.219,-4.613 121.317,-4.487C121.415,-4.361 121.578,-4.249 121.807,-4.151C122.036,-4.053 122.365,-3.957 122.794,-3.864C123.429,-3.724 123.921,-3.57 124.271,-3.402C124.621,-3.234 124.871,-3.029 125.02,-2.786C125.169,-2.543 125.244,-2.235 125.244,-1.862C125.244,-1.274 124.997,-0.8 124.502,-0.441C124.007,-0.082 123.354,0.098 122.542,0.098C122.113,0.098 121.704,0.047 121.317,-0.056Z" style="fill-rule:nonzero;"/>
            </g>
        </g>
    </g>
</svg>
