<?xml version="1.0" encoding="UTF-8" standalone="no"?>
<!DOCTYPE svg PUBLIC "-//W3C//DTD SVG 1.1//EN" "http://www.w3.org/Graphics/SVG/1.1/DTD/svg11.dtd">
<svg width="100%" height="100%" viewBox="0 0 46 10" version="1.1" xmlns="http://www.w3.org/2000/svg" xmlns:xlink="http://www.w3.org/1999/xlink" xml:space="preserve" xmlns:serif="http://www.serif.com/" style="fill-rule:evenodd;clip-rule:evenodd;stroke-linejoin:round;stroke-miterlimit:1.41421;">
    <g transform="matrix(1,0,0,1,-146,-182)">
        <g id="IoT-Zone">
            <g transform="matrix(1,0,0,1,145,191)">
                <g id="text-41">
                    <path d="M1.176,-0.078C1.088,-0.17 1.044,-0.292 1.044,-0.444L1.044,-8.016C1.044,-8.168 1.088,-8.29 1.176,-8.382C1.264,-8.474 1.384,-8.52 1.536,-8.52C1.688,-8.52 1.808,-8.474 1.896,-8.382C1.984,-8.29 2.028,-8.168 2.028,-8.016L2.028,-0.444C2.028,-0.292 1.984,-0.17 1.896,-0.078C1.808,0.014 1.688,0.06 1.536,0.06C1.384,0.06 1.264,0.014 1.176,-0.078Z" style="fill-rule:nonzero;"/>
                    <path d="M4.938,-0.288C4.518,-0.536 4.194,-0.89 3.966,-1.35C3.738,-1.81 3.624,-2.344 3.624,-2.952C3.624,-3.56 3.738,-4.094 3.966,-4.554C4.194,-5.014 4.518,-5.368 4.938,-5.616C5.358,-5.864 5.844,-5.988 6.396,-5.988C6.948,-5.988 7.436,-5.864 7.86,-5.616C8.284,-5.368 8.61,-5.014 8.838,-4.554C9.066,-4.094 9.18,-3.56 9.18,-2.952C9.18,-2.344 9.066,-1.81 8.838,-1.35C8.61,-0.89 8.284,-0.536 7.86,-0.288C7.436,-0.04 6.948,0.084 6.396,0.084C5.844,0.084 5.358,-0.04 4.938,-0.288ZM7.722,-1.29C8.03,-1.67 8.184,-2.224 8.184,-2.952C8.184,-3.664 8.028,-4.214 7.716,-4.602C7.404,-4.99 6.964,-5.184 6.396,-5.184C5.828,-5.184 5.388,-4.99 5.076,-4.602C4.764,-4.214 4.608,-3.664 4.608,-2.952C4.608,-2.232 4.762,-1.68 5.07,-1.296C5.378,-0.912 5.82,-0.72 6.396,-0.72C6.972,-0.72 7.414,-0.91 7.722,-1.29Z" style="fill-rule:nonzero;"/>
                    <path d="M12.954,-0.078C12.862,-0.17 12.816,-0.292 12.816,-0.444L12.816,-7.62L10.236,-7.62C10.092,-7.62 9.98,-7.656 9.9,-7.728C9.82,-7.8 9.78,-7.904 9.78,-8.04C9.78,-8.176 9.82,-8.28 9.9,-8.352C9.98,-8.424 10.092,-8.46 10.236,-8.46L16.392,-8.46C16.536,-8.46 16.648,-8.424 16.728,-8.352C16.808,-8.28 16.848,-8.176 16.848,-8.04C16.848,-7.904 16.808,-7.8 16.728,-7.728C16.648,-7.656 16.536,-7.62 16.392,-7.62L13.812,-7.62L13.812,-0.444C13.812,-0.292 13.768,-0.17 13.68,-0.078C13.592,0.014 13.472,0.06 13.32,0.06C13.168,0.06 13.046,0.014 12.954,-0.078Z" style="fill-rule:nonzero;"/>
                    <path d="M26.616,-0.72C26.696,-0.648 26.736,-0.548 26.736,-0.42C26.736,-0.284 26.696,-0.18 26.616,-0.108C26.536,-0.036 26.424,0 26.28,0L20.916,0C20.772,0 20.658,-0.04 20.574,-0.12C20.49,-0.2 20.448,-0.3 20.448,-0.42C20.448,-0.54 20.492,-0.664 20.58,-0.792L25.38,-7.632L20.916,-7.632C20.772,-7.632 20.66,-7.668 20.58,-7.74C20.5,-7.812 20.46,-7.912 20.46,-8.04C20.46,-8.176 20.5,-8.28 20.58,-8.352C20.66,-8.424 20.772,-8.46 20.916,-8.46L26.148,-8.46C26.292,-8.46 26.406,-8.42 26.49,-8.34C26.574,-8.26 26.616,-8.16 26.616,-8.04C26.616,-7.928 26.572,-7.808 26.484,-7.68L21.672,-0.828L26.28,-0.828C26.424,-0.828 26.536,-0.792 26.616,-0.72Z" style="fill-rule:nonzero;"/>
                    <path d="M28.878,-0.288C28.458,-0.536 28.134,-0.89 27.906,-1.35C27.678,-1.81 27.564,-2.344 27.564,-2.952C27.564,-3.56 27.678,-4.094 27.906,-4.554C28.134,-5.014 28.458,-5.368 28.878,-5.616C29.298,-5.864 29.784,-5.988 30.336,-5.988C30.888,-5.988 31.376,-5.864 31.8,-5.616C32.224,-5.368 32.55,-5.014 32.778,-4.554C33.006,-4.094 33.12,-3.56 33.12,-2.952C33.12,-2.344 33.006,-1.81 32.778,-1.35C32.55,-0.89 32.224,-0.536 31.8,-0.288C31.376,-0.04 30.888,0.084 30.336,0.084C29.784,0.084 29.298,-0.04 28.878,-0.288ZM31.662,-1.29C31.97,-1.67 32.124,-2.224 32.124,-2.952C32.124,-3.664 31.968,-4.214 31.656,-4.602C31.344,-4.99 30.904,-5.184 30.336,-5.184C29.768,-5.184 29.328,-4.99 29.016,-4.602C28.704,-4.214 28.548,-3.664 28.548,-2.952C28.548,-2.232 28.702,-1.68 29.01,-1.296C29.318,-0.912 29.76,-0.72 30.336,-0.72C30.912,-0.72 31.354,-0.91 31.662,-1.29Z" style="fill-rule:nonzero;"/>
                    <path d="M39.612,-3.672L39.612,-0.42C39.612,-0.268 39.57,-0.15 39.486,-0.066C39.402,0.018 39.284,0.06 39.132,0.06C38.98,0.06 38.86,0.018 38.772,-0.066C38.684,-0.15 38.64,-0.268 38.64,-0.42L38.64,-3.612C38.64,-4.156 38.534,-4.552 38.322,-4.8C38.11,-5.048 37.772,-5.172 37.308,-5.172C36.772,-5.172 36.344,-5.008 36.024,-4.68C35.704,-4.352 35.544,-3.908 35.544,-3.348L35.544,-0.42C35.544,-0.268 35.502,-0.15 35.418,-0.066C35.334,0.018 35.216,0.06 35.064,0.06C34.912,0.06 34.792,0.018 34.704,-0.066C34.616,-0.15 34.572,-0.268 34.572,-0.42L34.572,-5.484C34.572,-5.628 34.616,-5.744 34.704,-5.832C34.792,-5.92 34.912,-5.964 35.064,-5.964C35.208,-5.964 35.322,-5.92 35.406,-5.832C35.49,-5.744 35.532,-5.632 35.532,-5.496L35.532,-4.884C35.724,-5.244 35.992,-5.518 36.336,-5.706C36.68,-5.894 37.072,-5.988 37.512,-5.988C38.912,-5.988 39.612,-5.216 39.612,-3.672Z" style="fill-rule:nonzero;"/>
                    <path d="M46.14,-1.248C46.204,-1.176 46.236,-1.084 46.236,-0.972C46.236,-0.772 46.096,-0.588 45.816,-0.42C45.528,-0.252 45.224,-0.126 44.904,-0.042C44.584,0.042 44.272,0.084 43.968,0.084C43.064,0.084 42.35,-0.184 41.826,-0.72C41.302,-1.256 41.04,-1.996 41.04,-2.94C41.04,-3.54 41.156,-4.07 41.388,-4.53C41.62,-4.99 41.946,-5.348 42.366,-5.604C42.786,-5.86 43.264,-5.988 43.8,-5.988C44.56,-5.988 45.164,-5.74 45.612,-5.244C46.06,-4.748 46.284,-4.076 46.284,-3.228C46.284,-3.068 46.252,-2.952 46.188,-2.88C46.124,-2.808 46.02,-2.772 45.876,-2.772L42.012,-2.772C42.084,-1.396 42.736,-0.708 43.968,-0.708C44.28,-0.708 44.548,-0.75 44.772,-0.834C44.996,-0.918 45.236,-1.032 45.492,-1.176C45.7,-1.296 45.84,-1.356 45.912,-1.356C46,-1.356 46.076,-1.32 46.14,-1.248ZM42.582,-4.752C42.274,-4.432 42.092,-3.98 42.036,-3.396L45.432,-3.396C45.416,-3.988 45.268,-4.442 44.988,-4.758C44.708,-5.074 44.316,-5.232 43.812,-5.232C43.3,-5.232 42.89,-5.072 42.582,-4.752Z" style="fill-rule:nonzero;"/>
                </g>
            </g>
            <g transform="matrix(1,0,0,1,145,191)">
                <g id="text-411" serif:id="text-41">
                    <path d="M1.176,-0.078C1.088,-0.17 1.044,-0.292 1.044,-0.444L1.044,-8.016C1.044,-8.168 1.088,-8.29 1.176,-8.382C1.264,-8.474 1.384,-8.52 1.536,-8.52C1.688,-8.52 1.808,-8.474 1.896,-8.382C1.984,-8.29 2.028,-8.168 2.028,-8.016L2.028,-0.444C2.028,-0.292 1.984,-0.17 1.896,-0.078C1.808,0.014 1.688,0.06 1.536,0.06C1.384,0.06 1.264,0.014 1.176,-0.078Z" style="fill-rule:nonzero;"/>
                    <path d="M4.938,-0.288C4.518,-0.536 4.194,-0.89 3.966,-1.35C3.738,-1.81 3.624,-2.344 3.624,-2.952C3.624,-3.56 3.738,-4.094 3.966,-4.554C4.194,-5.014 4.518,-5.368 4.938,-5.616C5.358,-5.864 5.844,-5.988 6.396,-5.988C6.948,-5.988 7.436,-5.864 7.86,-5.616C8.284,-5.368 8.61,-5.014 8.838,-4.554C9.066,-4.094 9.18,-3.56 9.18,-2.952C9.18,-2.344 9.066,-1.81 8.838,-1.35C8.61,-0.89 8.284,-0.536 7.86,-0.288C7.436,-0.04 6.948,0.084 6.396,0.084C5.844,0.084 5.358,-0.04 4.938,-0.288ZM7.722,-1.29C8.03,-1.67 8.184,-2.224 8.184,-2.952C8.184,-3.664 8.028,-4.214 7.716,-4.602C7.404,-4.99 6.964,-5.184 6.396,-5.184C5.828,-5.184 5.388,-4.99 5.076,-4.602C4.764,-4.214 4.608,-3.664 4.608,-2.952C4.608,-2.232 4.762,-1.68 5.07,-1.296C5.378,-0.912 5.82,-0.72 6.396,-0.72C6.972,-0.72 7.414,-0.91 7.722,-1.29Z" style="fill-rule:nonzero;"/>
                    <path d="M12.954,-0.078C12.862,-0.17 12.816,-0.292 12.816,-0.444L12.816,-7.62L10.236,-7.62C10.092,-7.62 9.98,-7.656 9.9,-7.728C9.82,-7.8 9.78,-7.904 9.78,-8.04C9.78,-8.176 9.82,-8.28 9.9,-8.352C9.98,-8.424 10.092,-8.46 10.236,-8.46L16.392,-8.46C16.536,-8.46 16.648,-8.424 16.728,-8.352C16.808,-8.28 16.848,-8.176 16.848,-8.04C16.848,-7.904 16.808,-7.8 16.728,-7.728C16.648,-7.656 16.536,-7.62 16.392,-7.62L13.812,-7.62L13.812,-0.444C13.812,-0.292 13.768,-0.17 13.68,-0.078C13.592,0.014 13.472,0.06 13.32,0.06C13.168,0.06 13.046,0.014 12.954,-0.078Z" style="fill-rule:nonzero;"/>
                    <path d="M26.616,-0.72C26.696,-0.648 26.736,-0.548 26.736,-0.42C26.736,-0.284 26.696,-0.18 26.616,-0.108C26.536,-0.036 26.424,0 26.28,0L20.916,0C20.772,0 20.658,-0.04 20.574,-0.12C20.49,-0.2 20.448,-0.3 20.448,-0.42C20.448,-0.54 20.492,-0.664 20.58,-0.792L25.38,-7.632L20.916,-7.632C20.772,-7.632 20.66,-7.668 20.58,-7.74C20.5,-7.812 20.46,-7.912 20.46,-8.04C20.46,-8.176 20.5,-8.28 20.58,-8.352C20.66,-8.424 20.772,-8.46 20.916,-8.46L26.148,-8.46C26.292,-8.46 26.406,-8.42 26.49,-8.34C26.574,-8.26 26.616,-8.16 26.616,-8.04C26.616,-7.928 26.572,-7.808 26.484,-7.68L21.672,-0.828L26.28,-0.828C26.424,-0.828 26.536,-0.792 26.616,-0.72Z" style="fill-rule:nonzero;"/>
                    <path d="M28.878,-0.288C28.458,-0.536 28.134,-0.89 27.906,-1.35C27.678,-1.81 27.564,-2.344 27.564,-2.952C27.564,-3.56 27.678,-4.094 27.906,-4.554C28.134,-5.014 28.458,-5.368 28.878,-5.616C29.298,-5.864 29.784,-5.988 30.336,-5.988C30.888,-5.988 31.376,-5.864 31.8,-5.616C32.224,-5.368 32.55,-5.014 32.778,-4.554C33.006,-4.094 33.12,-3.56 33.12,-2.952C33.12,-2.344 33.006,-1.81 32.778,-1.35C32.55,-0.89 32.224,-0.536 31.8,-0.288C31.376,-0.04 30.888,0.084 30.336,0.084C29.784,0.084 29.298,-0.04 28.878,-0.288ZM31.662,-1.29C31.97,-1.67 32.124,-2.224 32.124,-2.952C32.124,-3.664 31.968,-4.214 31.656,-4.602C31.344,-4.99 30.904,-5.184 30.336,-5.184C29.768,-5.184 29.328,-4.99 29.016,-4.602C28.704,-4.214 28.548,-3.664 28.548,-2.952C28.548,-2.232 28.702,-1.68 29.01,-1.296C29.318,-0.912 29.76,-0.72 30.336,-0.72C30.912,-0.72 31.354,-0.91 31.662,-1.29Z" style="fill-rule:nonzero;"/>
                    <path d="M39.612,-3.672L39.612,-0.42C39.612,-0.268 39.57,-0.15 39.486,-0.066C39.402,0.018 39.284,0.06 39.132,0.06C38.98,0.06 38.86,0.018 38.772,-0.066C38.684,-0.15 38.64,-0.268 38.64,-0.42L38.64,-3.612C38.64,-4.156 38.534,-4.552 38.322,-4.8C38.11,-5.048 37.772,-5.172 37.308,-5.172C36.772,-5.172 36.344,-5.008 36.024,-4.68C35.704,-4.352 35.544,-3.908 35.544,-3.348L35.544,-0.42C35.544,-0.268 35.502,-0.15 35.418,-0.066C35.334,0.018 35.216,0.06 35.064,0.06C34.912,0.06 34.792,0.018 34.704,-0.066C34.616,-0.15 34.572,-0.268 34.572,-0.42L34.572,-5.484C34.572,-5.628 34.616,-5.744 34.704,-5.832C34.792,-5.92 34.912,-5.964 35.064,-5.964C35.208,-5.964 35.322,-5.92 35.406,-5.832C35.49,-5.744 35.532,-5.632 35.532,-5.496L35.532,-4.884C35.724,-5.244 35.992,-5.518 36.336,-5.706C36.68,-5.894 37.072,-5.988 37.512,-5.988C38.912,-5.988 39.612,-5.216 39.612,-3.672Z" style="fill-rule:nonzero;"/>
                    <path d="M46.14,-1.248C46.204,-1.176 46.236,-1.084 46.236,-0.972C46.236,-0.772 46.096,-0.588 45.816,-0.42C45.528,-0.252 45.224,-0.126 44.904,-0.042C44.584,0.042 44.272,0.084 43.968,0.084C43.064,0.084 42.35,-0.184 41.826,-0.72C41.302,-1.256 41.04,-1.996 41.04,-2.94C41.04,-3.54 41.156,-4.07 41.388,-4.53C41.62,-4.99 41.946,-5.348 42.366,-5.604C42.786,-5.86 43.264,-5.988 43.8,-5.988C44.56,-5.988 45.164,-5.74 45.612,-5.244C46.06,-4.748 46.284,-4.076 46.284,-3.228C46.284,-3.068 46.252,-2.952 46.188,-2.88C46.124,-2.808 46.02,-2.772 45.876,-2.772L42.012,-2.772C42.084,-1.396 42.736,-0.708 43.968,-0.708C44.28,-0.708 44.548,-0.75 44.772,-0.834C44.996,-0.918 45.236,-1.032 45.492,-1.176C45.7,-1.296 45.84,-1.356 45.912,-1.356C46,-1.356 46.076,-1.32 46.14,-1.248ZM42.582,-4.752C42.274,-4.432 42.092,-3.98 42.036,-3.396L45.432,-3.396C45.416,-3.988 45.268,-4.442 44.988,-4.758C44.708,-5.074 44.316,-5.232 43.812,-5.232C43.3,-5.232 42.89,-5.072 42.582,-4.752Z" style="fill-rule:nonzero;"/>
                </g>
            </g>
        </g>
    </g>
</svg>
