<?xml version="1.0" encoding="UTF-8" standalone="no"?>
<svg width="35px" height="34px" viewBox="0 0 35 34" version="1.1" xmlns="http://www.w3.org/2000/svg" xmlns:xlink="http://www.w3.org/1999/xlink">
    <!-- Generator: Sketch 50.2 (55047) - http://www.bohemiancoding.com/sketch -->
    <title>Printer_IoT_Zone</title>
    <desc>Created with Sketch.</desc>
    <defs></defs>
    <g id="Page-1" stroke="none" stroke-width="1" fill="none" fill-rule="evenodd">
        <g id="Printer_IoT_Zone" fill="#636569" fill-rule="nonzero">
            <path d="M23.8329368,26.7659574 L11.5278879,26.7659574 C11.1763151,26.7659574 10.8247423,26.4042553 10.8247423,26.0425532 C10.8247423,25.6808511 11.1763151,25.3191489 11.5278879,25.3191489 L23.8329368,25.3191489 C24.1845096,25.3191489 24.5360825,25.6808511 24.5360825,26.0425532 C24.5360825,26.4042553 24.1845096,26.7659574 23.8329368,26.7659574" id="Shape"></path>
            <path d="M23.8329368,29.2978723 L11.5278879,29.2978723 C11.1763151,29.2978723 10.8247423,28.9361702 10.8247423,28.5744681 C10.8247423,28.212766 11.1763151,27.8510638 11.5278879,27.8510638 L23.8329368,27.8510638 C24.1845096,27.8510638 24.5360825,28.212766 24.5360825,28.5744681 C24.5360825,28.9361702 24.1845096,29.2978723 23.8329368,29.2978723" id="Shape"></path>
            <path d="M23.8329368,24.5957447 L11.5278879,24.5957447 C11.1763151,24.5957447 10.8247423,24.2340426 10.8247423,23.8723404 C10.8247423,23.5106383 11.1763151,23.1489362 11.5278879,23.1489362 L23.8329368,23.1489362 C24.1845096,23.1489362 24.5360825,23.5106383 24.5360825,23.8723404 C24.5360825,24.2340426 24.1845096,24.5957447 23.8329368,24.5957447" id="Shape"></path>
            <path d="M23.8329368,22.0638298 L11.5278879,22.0638298 C11.1763151,22.0638298 10.8247423,21.7021277 10.8247423,21.3404255 C10.8247423,20.9787234 11.1763151,20.6170213 11.5278879,20.6170213 L23.8329368,20.6170213 C24.1845096,20.6170213 24.5360825,20.9787234 24.5360825,21.3404255 C24.5360825,21.7021277 24.1845096,22.0638298 23.8329368,22.0638298" id="Shape"></path>
            <path d="M33.2673267,6.59183673 L29.1089109,6.59183673 L29.1089109,3.46938776 C29.1089109,1.73469388 27.7227723,0 25.6435644,0 L9.35643564,0 C7.62376238,0 5.89108911,1.3877551 5.89108911,3.46938776 L5.89108911,6.59183673 L1.73267327,6.59183673 C0.693069307,6.59183673 0,7.28571429 0,8.32653061 L0,21.1632653 C0,22.2040816 0.693069307,22.8979592 1.73267327,22.8979592 L5.89108911,22.8979592 L5.89108911,30.5306122 C5.89108911,32.2653061 7.27722772,34 9.35643564,34 L25.6435644,34 C27.3762376,34 29.1089109,32.6122449 29.1089109,30.5306122 L29.1089109,22.8979592 L33.2673267,22.8979592 C34.3069307,22.8979592 35,22.2040816 35,21.1632653 L35,8.32653061 C35,7.63265306 34.3069307,6.59183673 33.2673267,6.59183673 Z M3.11881188,11.1020408 C2.42574257,11.1020408 2.07920792,10.755102 2.07920792,10.0612245 C2.07920792,9.36734694 2.42574257,9.02040816 3.11881188,9.02040816 C3.81188119,9.02040816 4.15841584,9.36734694 4.15841584,10.0612245 C4.15841584,10.755102 3.81188119,11.1020408 3.11881188,11.1020408 Z M5.89108911,10.755102 C5.54455446,10.755102 5.1980198,10.4081633 5.1980198,10.0612245 C5.1980198,9.71428571 5.54455446,9.36734694 5.89108911,9.36734694 L10.3960396,9.36734694 C10.7425743,9.36734694 11.0891089,9.71428571 11.0891089,10.0612245 C11.0891089,10.4081633 10.7425743,10.755102 10.3960396,10.755102 L5.89108911,10.755102 Z M26.6831683,22.8979592 L26.6831683,30.5306122 C26.6831683,31.2244898 26.3366337,31.5714286 25.6435644,31.5714286 L9.35643564,31.5714286 C8.66336634,31.5714286 8.31683168,31.2244898 8.31683168,30.5306122 L8.31683168,22.8979592 L8.31683168,19.0816327 L26.6831683,19.0816327 L26.6831683,22.8979592 Z M26.6831683,6.59183673 L8.31683168,6.59183673 L8.31683168,3.46938776 C8.31683168,2.7755102 8.66336634,2.42857143 9.35643564,2.42857143 L25.6435644,2.42857143 C26.3366337,2.42857143 26.6831683,2.7755102 26.6831683,3.46938776 L26.6831683,6.59183673 Z" id="Shape"></path>
        </g>
    </g>
</svg>