<?xml version="1.0" encoding="UTF-8" standalone="no"?>
<!DOCTYPE svg PUBLIC "-//W3C//DTD SVG 1.1//EN" "http://www.w3.org/Graphics/SVG/1.1/DTD/svg11.dtd">
<svg width="100%" height="100%" viewBox="0 0 98 11" version="1.1" xmlns="http://www.w3.org/2000/svg" xmlns:xlink="http://www.w3.org/1999/xlink" xml:space="preserve" xmlns:serif="http://www.serif.com/" style="fill-rule:evenodd;clip-rule:evenodd;stroke-linejoin:round;stroke-miterlimit:1.41421;">
    <g transform="matrix(1,0,0,1,-1162,-192)">
        <g transform="matrix(1,0,0,1,1161,202)">
            <g id="Retail-Locations">
                <path d="M8.848,-0.392C8.848,-0.252 8.794,-0.138 8.687,-0.049C8.58,0.04 8.456,0.084 8.316,0.084C8.101,0.084 7.933,-0.009 7.812,-0.196L5.936,-3.164C5.693,-3.547 5.441,-3.81 5.18,-3.955C4.919,-4.1 4.564,-4.172 4.116,-4.172L2.352,-4.172L2.352,-0.518C2.352,-0.341 2.301,-0.198 2.198,-0.091C2.095,0.016 1.96,0.07 1.792,0.07C1.615,0.07 1.475,0.016 1.372,-0.091C1.269,-0.198 1.218,-0.341 1.218,-0.518L1.218,-9.31C1.218,-9.478 1.272,-9.613 1.379,-9.716C1.486,-9.819 1.629,-9.87 1.806,-9.87L5.278,-9.87C6.351,-9.87 7.17,-9.632 7.735,-9.156C8.3,-8.68 8.582,-7.98 8.582,-7.056C8.582,-6.272 8.356,-5.642 7.903,-5.166C7.45,-4.69 6.804,-4.401 5.964,-4.298C6.197,-4.223 6.407,-4.102 6.594,-3.934C6.781,-3.766 6.967,-3.533 7.154,-3.234L8.75,-0.714C8.815,-0.611 8.848,-0.504 8.848,-0.392ZM5.18,-5.124C5.945,-5.124 6.517,-5.283 6.895,-5.6C7.273,-5.917 7.462,-6.398 7.462,-7.042C7.462,-7.677 7.275,-8.148 6.902,-8.456C6.529,-8.764 5.955,-8.918 5.18,-8.918L2.352,-8.918L2.352,-5.124L5.18,-5.124Z" style="fill-rule:nonzero;"/>
                <path d="M16.198,-1.456C16.273,-1.372 16.31,-1.265 16.31,-1.134C16.31,-0.901 16.147,-0.686 15.82,-0.49C15.484,-0.294 15.129,-0.147 14.756,-0.049C14.383,0.049 14.019,0.098 13.664,0.098C12.609,0.098 11.776,-0.215 11.165,-0.84C10.554,-1.465 10.248,-2.329 10.248,-3.43C10.248,-4.13 10.383,-4.748 10.654,-5.285C10.925,-5.822 11.305,-6.239 11.795,-6.538C12.285,-6.837 12.843,-6.986 13.468,-6.986C14.355,-6.986 15.059,-6.697 15.582,-6.118C16.105,-5.539 16.366,-4.755 16.366,-3.766C16.366,-3.579 16.329,-3.444 16.254,-3.36C16.179,-3.276 16.058,-3.234 15.89,-3.234L11.382,-3.234C11.466,-1.629 12.227,-0.826 13.664,-0.826C14.028,-0.826 14.341,-0.875 14.602,-0.973C14.863,-1.071 15.143,-1.204 15.442,-1.372C15.685,-1.512 15.848,-1.582 15.932,-1.582C16.035,-1.582 16.123,-1.54 16.198,-1.456ZM12.047,-5.544C11.688,-5.171 11.475,-4.643 11.41,-3.962L15.372,-3.962C15.353,-4.653 15.181,-5.182 14.854,-5.551C14.527,-5.92 14.07,-6.104 13.482,-6.104C12.885,-6.104 12.406,-5.917 12.047,-5.544Z" style="fill-rule:nonzero;"/>
                <path d="M21.63,-0.378C21.63,-0.219 21.572,-0.1 21.455,-0.021C21.338,0.058 21.163,0.089 20.93,0.07L20.552,0.042C19.805,-0.014 19.255,-0.238 18.9,-0.63C18.545,-1.022 18.368,-1.615 18.368,-2.408L18.368,-5.922L17.43,-5.922C17.271,-5.922 17.148,-5.962 17.059,-6.041C16.97,-6.12 16.926,-6.225 16.926,-6.356C16.926,-6.496 16.97,-6.608 17.059,-6.692C17.148,-6.776 17.271,-6.818 17.43,-6.818L18.368,-6.818L18.368,-8.4C18.368,-8.577 18.419,-8.715 18.522,-8.813C18.625,-8.911 18.765,-8.96 18.942,-8.96C19.11,-8.96 19.245,-8.911 19.348,-8.813C19.451,-8.715 19.502,-8.577 19.502,-8.4L19.502,-6.818L21.056,-6.818C21.205,-6.818 21.324,-6.776 21.413,-6.692C21.502,-6.608 21.546,-6.496 21.546,-6.356C21.546,-6.225 21.502,-6.12 21.413,-6.041C21.324,-5.962 21.205,-5.922 21.056,-5.922L19.502,-5.922L19.502,-2.352C19.502,-1.839 19.607,-1.468 19.817,-1.239C20.027,-1.01 20.342,-0.882 20.762,-0.854L21.14,-0.826C21.467,-0.798 21.63,-0.649 21.63,-0.378Z" style="fill-rule:nonzero;"/>
                <path d="M28.098,-4.298L28.098,-0.49C28.098,-0.322 28.049,-0.187 27.951,-0.084C27.853,0.019 27.72,0.07 27.552,0.07C27.384,0.07 27.249,0.019 27.146,-0.084C27.043,-0.187 26.992,-0.322 26.992,-0.49L26.992,-1.162C26.815,-0.761 26.544,-0.45 26.18,-0.231C25.816,-0.012 25.396,0.098 24.92,0.098C24.481,0.098 24.078,0.009 23.709,-0.168C23.34,-0.345 23.049,-0.593 22.834,-0.91C22.619,-1.227 22.512,-1.577 22.512,-1.96C22.512,-2.473 22.643,-2.872 22.904,-3.157C23.165,-3.442 23.595,-3.647 24.192,-3.773C24.789,-3.899 25.62,-3.962 26.684,-3.962L26.992,-3.962L26.992,-4.424C26.992,-4.984 26.878,-5.395 26.649,-5.656C26.42,-5.917 26.049,-6.048 25.536,-6.048C24.901,-6.048 24.257,-5.875 23.604,-5.53C23.352,-5.371 23.175,-5.292 23.072,-5.292C22.96,-5.292 22.867,-5.334 22.792,-5.418C22.717,-5.502 22.68,-5.609 22.68,-5.74C22.68,-5.871 22.72,-5.985 22.799,-6.083C22.878,-6.181 23.007,-6.281 23.184,-6.384C23.511,-6.571 23.882,-6.718 24.297,-6.825C24.712,-6.932 25.125,-6.986 25.536,-6.986C27.244,-6.986 28.098,-6.09 28.098,-4.298ZM26.453,-1.365C26.812,-1.743 26.992,-2.231 26.992,-2.828L26.992,-3.234L26.74,-3.234C25.919,-3.234 25.293,-3.199 24.864,-3.129C24.435,-3.059 24.129,-2.942 23.947,-2.779C23.765,-2.616 23.674,-2.375 23.674,-2.058C23.674,-1.694 23.807,-1.393 24.073,-1.155C24.339,-0.917 24.673,-0.798 25.074,-0.798C25.634,-0.798 26.094,-0.987 26.453,-1.365Z" style="fill-rule:nonzero;"/>
                <path d="M30.331,-0.077C30.224,-0.175 30.17,-0.313 30.17,-0.49L30.17,-6.398C30.17,-6.575 30.224,-6.713 30.331,-6.811C30.438,-6.909 30.576,-6.958 30.744,-6.958C30.912,-6.958 31.047,-6.909 31.15,-6.811C31.253,-6.713 31.304,-6.575 31.304,-6.398L31.304,-0.49C31.304,-0.303 31.253,-0.163 31.15,-0.07C31.047,0.023 30.912,0.07 30.744,0.07C30.576,0.07 30.438,0.021 30.331,-0.077ZM30.198,-8.624C30.058,-8.755 29.988,-8.927 29.988,-9.142C29.988,-9.347 30.058,-9.515 30.198,-9.646C30.338,-9.777 30.52,-9.842 30.744,-9.842C30.968,-9.842 31.15,-9.777 31.29,-9.646C31.43,-9.515 31.5,-9.347 31.5,-9.142C31.5,-8.927 31.43,-8.755 31.29,-8.624C31.15,-8.493 30.968,-8.428 30.744,-8.428C30.52,-8.428 30.338,-8.493 30.198,-8.624Z" style="fill-rule:nonzero;"/>
                <path d="M33.579,-0.077C33.472,-0.175 33.418,-0.313 33.418,-0.49L33.418,-9.38C33.418,-9.557 33.472,-9.695 33.579,-9.793C33.686,-9.891 33.824,-9.94 33.992,-9.94C34.151,-9.94 34.284,-9.891 34.391,-9.793C34.498,-9.695 34.552,-9.557 34.552,-9.38L34.552,-0.49C34.552,-0.313 34.498,-0.175 34.391,-0.077C34.284,0.021 34.151,0.07 33.992,0.07C33.824,0.07 33.686,0.021 33.579,-0.077Z" style="fill-rule:nonzero;"/>
                <path d="M40.607,-0.147C40.5,-0.245 40.446,-0.373 40.446,-0.532L40.446,-9.352C40.446,-9.529 40.497,-9.672 40.6,-9.779C40.703,-9.886 40.843,-9.94 41.02,-9.94C41.197,-9.94 41.337,-9.886 41.44,-9.779C41.543,-9.672 41.594,-9.529 41.594,-9.352L41.594,-0.98L46.116,-0.98C46.284,-0.98 46.415,-0.938 46.508,-0.854C46.601,-0.77 46.648,-0.649 46.648,-0.49C46.648,-0.331 46.601,-0.21 46.508,-0.126C46.415,-0.042 46.284,0 46.116,0L41.006,0C40.847,0 40.714,-0.049 40.607,-0.147Z" style="fill-rule:nonzero;"/>
                <path d="M48.951,-0.336C48.461,-0.625 48.083,-1.038 47.817,-1.575C47.551,-2.112 47.418,-2.735 47.418,-3.444C47.418,-4.153 47.551,-4.776 47.817,-5.313C48.083,-5.85 48.461,-6.263 48.951,-6.552C49.441,-6.841 50.008,-6.986 50.652,-6.986C51.296,-6.986 51.865,-6.841 52.36,-6.552C52.855,-6.263 53.235,-5.85 53.501,-5.313C53.767,-4.776 53.9,-4.153 53.9,-3.444C53.9,-2.735 53.767,-2.112 53.501,-1.575C53.235,-1.038 52.855,-0.625 52.36,-0.336C51.865,-0.047 51.296,0.098 50.652,0.098C50.008,0.098 49.441,-0.047 48.951,-0.336ZM52.199,-1.505C52.558,-1.948 52.738,-2.595 52.738,-3.444C52.738,-4.275 52.556,-4.916 52.192,-5.369C51.828,-5.822 51.315,-6.048 50.652,-6.048C49.989,-6.048 49.476,-5.822 49.112,-5.369C48.748,-4.916 48.566,-4.275 48.566,-3.444C48.566,-2.604 48.746,-1.96 49.105,-1.512C49.464,-1.064 49.98,-0.84 50.652,-0.84C51.324,-0.84 51.84,-1.062 52.199,-1.505Z" style="fill-rule:nonzero;"/>
                <path d="M56.721,-0.336C56.231,-0.625 55.853,-1.036 55.587,-1.568C55.321,-2.1 55.188,-2.716 55.188,-3.416C55.188,-4.116 55.326,-4.737 55.601,-5.278C55.876,-5.819 56.261,-6.239 56.756,-6.538C57.251,-6.837 57.82,-6.986 58.464,-6.986C58.819,-6.986 59.171,-6.937 59.521,-6.839C59.871,-6.741 60.177,-6.599 60.438,-6.412C60.606,-6.3 60.725,-6.19 60.795,-6.083C60.865,-5.976 60.9,-5.857 60.9,-5.726C60.9,-5.595 60.865,-5.488 60.795,-5.404C60.725,-5.32 60.634,-5.278 60.522,-5.278C60.457,-5.278 60.387,-5.297 60.312,-5.334C60.237,-5.371 60.174,-5.409 60.123,-5.446C60.072,-5.483 60.037,-5.507 60.018,-5.516C59.775,-5.675 59.544,-5.801 59.325,-5.894C59.106,-5.987 58.837,-6.034 58.52,-6.034C57.839,-6.034 57.309,-5.803 56.931,-5.341C56.553,-4.879 56.364,-4.237 56.364,-3.416C56.364,-2.595 56.553,-1.96 56.931,-1.512C57.309,-1.064 57.839,-0.84 58.52,-0.84C58.837,-0.84 59.11,-0.887 59.339,-0.98C59.568,-1.073 59.799,-1.199 60.032,-1.358C60.135,-1.423 60.233,-1.479 60.326,-1.526C60.419,-1.573 60.499,-1.596 60.564,-1.596C60.667,-1.596 60.753,-1.554 60.823,-1.47C60.893,-1.386 60.928,-1.279 60.928,-1.148C60.928,-1.027 60.895,-0.917 60.83,-0.819C60.765,-0.721 60.643,-0.611 60.466,-0.49C60.205,-0.313 59.89,-0.17 59.521,-0.063C59.152,0.044 58.781,0.098 58.408,0.098C57.773,0.098 57.211,-0.047 56.721,-0.336Z" style="fill-rule:nonzero;"/>
                <path d="M67.648,-4.298L67.648,-0.49C67.648,-0.322 67.599,-0.187 67.501,-0.084C67.403,0.019 67.27,0.07 67.102,0.07C66.934,0.07 66.799,0.019 66.696,-0.084C66.593,-0.187 66.542,-0.322 66.542,-0.49L66.542,-1.162C66.365,-0.761 66.094,-0.45 65.73,-0.231C65.366,-0.012 64.946,0.098 64.47,0.098C64.031,0.098 63.628,0.009 63.259,-0.168C62.89,-0.345 62.599,-0.593 62.384,-0.91C62.169,-1.227 62.062,-1.577 62.062,-1.96C62.062,-2.473 62.193,-2.872 62.454,-3.157C62.715,-3.442 63.145,-3.647 63.742,-3.773C64.339,-3.899 65.17,-3.962 66.234,-3.962L66.542,-3.962L66.542,-4.424C66.542,-4.984 66.428,-5.395 66.199,-5.656C65.97,-5.917 65.599,-6.048 65.086,-6.048C64.451,-6.048 63.807,-5.875 63.154,-5.53C62.902,-5.371 62.725,-5.292 62.622,-5.292C62.51,-5.292 62.417,-5.334 62.342,-5.418C62.267,-5.502 62.23,-5.609 62.23,-5.74C62.23,-5.871 62.27,-5.985 62.349,-6.083C62.428,-6.181 62.557,-6.281 62.734,-6.384C63.061,-6.571 63.432,-6.718 63.847,-6.825C64.262,-6.932 64.675,-6.986 65.086,-6.986C66.794,-6.986 67.648,-6.09 67.648,-4.298ZM66.003,-1.365C66.362,-1.743 66.542,-2.231 66.542,-2.828L66.542,-3.234L66.29,-3.234C65.469,-3.234 64.843,-3.199 64.414,-3.129C63.985,-3.059 63.679,-2.942 63.497,-2.779C63.315,-2.616 63.224,-2.375 63.224,-2.058C63.224,-1.694 63.357,-1.393 63.623,-1.155C63.889,-0.917 64.223,-0.798 64.624,-0.798C65.184,-0.798 65.644,-0.987 66.003,-1.365Z" style="fill-rule:nonzero;"/>
                <path d="M73.36,-0.378C73.36,-0.219 73.302,-0.1 73.185,-0.021C73.068,0.058 72.893,0.089 72.66,0.07L72.282,0.042C71.535,-0.014 70.985,-0.238 70.63,-0.63C70.275,-1.022 70.098,-1.615 70.098,-2.408L70.098,-5.922L69.16,-5.922C69.001,-5.922 68.878,-5.962 68.789,-6.041C68.7,-6.12 68.656,-6.225 68.656,-6.356C68.656,-6.496 68.7,-6.608 68.789,-6.692C68.878,-6.776 69.001,-6.818 69.16,-6.818L70.098,-6.818L70.098,-8.4C70.098,-8.577 70.149,-8.715 70.252,-8.813C70.355,-8.911 70.495,-8.96 70.672,-8.96C70.84,-8.96 70.975,-8.911 71.078,-8.813C71.181,-8.715 71.232,-8.577 71.232,-8.4L71.232,-6.818L72.786,-6.818C72.935,-6.818 73.054,-6.776 73.143,-6.692C73.232,-6.608 73.276,-6.496 73.276,-6.356C73.276,-6.225 73.232,-6.12 73.143,-6.041C73.054,-5.962 72.935,-5.922 72.786,-5.922L71.232,-5.922L71.232,-2.352C71.232,-1.839 71.337,-1.468 71.547,-1.239C71.757,-1.01 72.072,-0.882 72.492,-0.854L72.87,-0.826C73.197,-0.798 73.36,-0.649 73.36,-0.378Z" style="fill-rule:nonzero;"/>
                <path d="M74.641,-0.077C74.534,-0.175 74.48,-0.313 74.48,-0.49L74.48,-6.398C74.48,-6.575 74.534,-6.713 74.641,-6.811C74.748,-6.909 74.886,-6.958 75.054,-6.958C75.222,-6.958 75.357,-6.909 75.46,-6.811C75.563,-6.713 75.614,-6.575 75.614,-6.398L75.614,-0.49C75.614,-0.303 75.563,-0.163 75.46,-0.07C75.357,0.023 75.222,0.07 75.054,0.07C74.886,0.07 74.748,0.021 74.641,-0.077ZM74.508,-8.624C74.368,-8.755 74.298,-8.927 74.298,-9.142C74.298,-9.347 74.368,-9.515 74.508,-9.646C74.648,-9.777 74.83,-9.842 75.054,-9.842C75.278,-9.842 75.46,-9.777 75.6,-9.646C75.74,-9.515 75.81,-9.347 75.81,-9.142C75.81,-8.927 75.74,-8.755 75.6,-8.624C75.46,-8.493 75.278,-8.428 75.054,-8.428C74.83,-8.428 74.648,-8.493 74.508,-8.624Z" style="fill-rule:nonzero;"/>
                <path d="M78.855,-0.336C78.365,-0.625 77.987,-1.038 77.721,-1.575C77.455,-2.112 77.322,-2.735 77.322,-3.444C77.322,-4.153 77.455,-4.776 77.721,-5.313C77.987,-5.85 78.365,-6.263 78.855,-6.552C79.345,-6.841 79.912,-6.986 80.556,-6.986C81.2,-6.986 81.769,-6.841 82.264,-6.552C82.759,-6.263 83.139,-5.85 83.405,-5.313C83.671,-4.776 83.804,-4.153 83.804,-3.444C83.804,-2.735 83.671,-2.112 83.405,-1.575C83.139,-1.038 82.759,-0.625 82.264,-0.336C81.769,-0.047 81.2,0.098 80.556,0.098C79.912,0.098 79.345,-0.047 78.855,-0.336ZM82.103,-1.505C82.462,-1.948 82.642,-2.595 82.642,-3.444C82.642,-4.275 82.46,-4.916 82.096,-5.369C81.732,-5.822 81.219,-6.048 80.556,-6.048C79.893,-6.048 79.38,-5.822 79.016,-5.369C78.652,-4.916 78.47,-4.275 78.47,-3.444C78.47,-2.604 78.65,-1.96 79.009,-1.512C79.368,-1.064 79.884,-0.84 80.556,-0.84C81.228,-0.84 81.744,-1.062 82.103,-1.505Z" style="fill-rule:nonzero;"/>
                <path d="M91.378,-4.284L91.378,-0.49C91.378,-0.313 91.329,-0.175 91.231,-0.077C91.133,0.021 90.995,0.07 90.818,0.07C90.641,0.07 90.501,0.021 90.398,-0.077C90.295,-0.175 90.244,-0.313 90.244,-0.49L90.244,-4.214C90.244,-4.849 90.12,-5.311 89.873,-5.6C89.626,-5.889 89.231,-6.034 88.69,-6.034C88.065,-6.034 87.565,-5.843 87.192,-5.46C86.819,-5.077 86.632,-4.559 86.632,-3.906L86.632,-0.49C86.632,-0.313 86.583,-0.175 86.485,-0.077C86.387,0.021 86.249,0.07 86.072,0.07C85.895,0.07 85.755,0.021 85.652,-0.077C85.549,-0.175 85.498,-0.313 85.498,-0.49L85.498,-6.398C85.498,-6.566 85.549,-6.701 85.652,-6.804C85.755,-6.907 85.895,-6.958 86.072,-6.958C86.24,-6.958 86.373,-6.907 86.471,-6.804C86.569,-6.701 86.618,-6.571 86.618,-6.412L86.618,-5.698C86.842,-6.118 87.155,-6.438 87.556,-6.657C87.957,-6.876 88.415,-6.986 88.928,-6.986C90.561,-6.986 91.378,-6.085 91.378,-4.284Z" style="fill-rule:nonzero;"/>
                <path d="M94.521,-0.056C94.134,-0.159 93.791,-0.303 93.492,-0.49C93.324,-0.602 93.205,-0.707 93.135,-0.805C93.065,-0.903 93.03,-1.022 93.03,-1.162C93.03,-1.283 93.065,-1.384 93.135,-1.463C93.205,-1.542 93.296,-1.582 93.408,-1.582C93.52,-1.582 93.683,-1.512 93.898,-1.372C94.178,-1.204 94.456,-1.071 94.731,-0.973C95.006,-0.875 95.349,-0.826 95.76,-0.826C96.264,-0.826 96.656,-0.915 96.936,-1.092C97.216,-1.269 97.356,-1.526 97.356,-1.862C97.356,-2.067 97.305,-2.233 97.202,-2.359C97.099,-2.485 96.922,-2.597 96.67,-2.695C96.418,-2.793 96.049,-2.893 95.564,-2.996C94.743,-3.173 94.155,-3.411 93.8,-3.71C93.445,-4.009 93.268,-4.415 93.268,-4.928C93.268,-5.329 93.38,-5.684 93.604,-5.992C93.828,-6.3 94.138,-6.543 94.535,-6.72C94.932,-6.897 95.382,-6.986 95.886,-6.986C96.25,-6.986 96.602,-6.937 96.943,-6.839C97.284,-6.741 97.585,-6.603 97.846,-6.426C98.163,-6.202 98.322,-5.969 98.322,-5.726C98.322,-5.605 98.285,-5.502 98.21,-5.418C98.135,-5.334 98.047,-5.292 97.944,-5.292C97.832,-5.292 97.664,-5.371 97.44,-5.53C97.179,-5.698 96.931,-5.829 96.698,-5.922C96.465,-6.015 96.175,-6.062 95.83,-6.062C95.391,-6.062 95.039,-5.964 94.773,-5.768C94.507,-5.572 94.374,-5.311 94.374,-4.984C94.374,-4.779 94.423,-4.613 94.521,-4.487C94.619,-4.361 94.782,-4.249 95.011,-4.151C95.24,-4.053 95.569,-3.957 95.998,-3.864C96.633,-3.724 97.125,-3.57 97.475,-3.402C97.825,-3.234 98.075,-3.029 98.224,-2.786C98.373,-2.543 98.448,-2.235 98.448,-1.862C98.448,-1.274 98.201,-0.8 97.706,-0.441C97.211,-0.082 96.558,0.098 95.746,0.098C95.317,0.098 94.908,0.047 94.521,-0.056Z" style="fill-rule:nonzero;"/>
            </g>
        </g>
    </g>
</svg>
