<?xml version="1.0" encoding="UTF-8" standalone="no"?>
<!DOCTYPE svg PUBLIC "-//W3C//DTD SVG 1.1//EN" "http://www.w3.org/Graphics/SVG/1.1/DTD/svg11.dtd">
<svg width="100%" height="100%" viewBox="0 0 137 11" version="1.1" xmlns="http://www.w3.org/2000/svg" xmlns:xlink="http://www.w3.org/1999/xlink" xml:space="preserve" xmlns:serif="http://www.serif.com/" style="fill-rule:evenodd;clip-rule:evenodd;stroke-linejoin:round;stroke-miterlimit:1.41421;">
    <g transform="matrix(1,0,0,1,-53,-61)">
        <g id="Secure-Wireless-Zone">
            <g transform="matrix(1,0,0,1,53,71)">
                <g id="text-35">
                    <path d="M2.359,-0.203C1.72,-0.413 1.209,-0.695 0.826,-1.05C0.686,-1.181 0.616,-1.344 0.616,-1.54C0.616,-1.671 0.653,-1.785 0.728,-1.883C0.803,-1.981 0.891,-2.03 0.994,-2.03C1.115,-2.03 1.246,-1.979 1.386,-1.876C2.254,-1.204 3.243,-0.868 4.354,-0.868C5.157,-0.868 5.773,-1.022 6.202,-1.33C6.631,-1.638 6.846,-2.077 6.846,-2.646C6.846,-2.973 6.743,-3.236 6.538,-3.437C6.333,-3.638 6.062,-3.799 5.726,-3.92C5.39,-4.041 4.937,-4.167 4.368,-4.298C3.603,-4.475 2.975,-4.662 2.485,-4.858C1.995,-5.054 1.598,-5.334 1.295,-5.698C0.992,-6.062 0.84,-6.538 0.84,-7.126C0.84,-7.686 0.992,-8.183 1.295,-8.617C1.598,-9.051 2.023,-9.387 2.569,-9.625C3.115,-9.863 3.738,-9.982 4.438,-9.982C5.091,-9.982 5.7,-9.882 6.265,-9.681C6.83,-9.48 7.303,-9.193 7.686,-8.82C7.835,-8.671 7.91,-8.507 7.91,-8.33C7.91,-8.199 7.873,-8.085 7.798,-7.987C7.723,-7.889 7.635,-7.84 7.532,-7.84C7.429,-7.84 7.294,-7.891 7.126,-7.994C6.669,-8.367 6.244,-8.629 5.852,-8.778C5.46,-8.927 4.989,-9.002 4.438,-9.002C3.663,-9.002 3.061,-8.841 2.632,-8.519C2.203,-8.197 1.988,-7.747 1.988,-7.168C1.988,-6.673 2.177,-6.302 2.555,-6.055C2.933,-5.808 3.514,-5.591 4.298,-5.404C5.147,-5.199 5.815,-5.01 6.3,-4.837C6.785,-4.664 7.189,-4.405 7.511,-4.06C7.833,-3.715 7.994,-3.253 7.994,-2.674C7.994,-2.123 7.842,-1.638 7.539,-1.218C7.236,-0.798 6.809,-0.471 6.258,-0.238C5.707,-0.005 5.077,0.112 4.368,0.112C3.668,0.112 2.998,0.007 2.359,-0.203Z" style="fill-rule:nonzero;"/>
                    <path d="M15.266,-1.456C15.34,-1.372 15.378,-1.265 15.378,-1.134C15.378,-0.901 15.214,-0.686 14.888,-0.49C14.552,-0.294 14.197,-0.147 13.824,-0.049C13.45,0.049 13.086,0.098 12.732,0.098C11.677,0.098 10.844,-0.215 10.233,-0.84C9.621,-1.465 9.316,-2.329 9.316,-3.43C9.316,-4.13 9.451,-4.748 9.722,-5.285C9.992,-5.822 10.373,-6.239 10.863,-6.538C11.353,-6.837 11.91,-6.986 12.536,-6.986C13.422,-6.986 14.127,-6.697 14.65,-6.118C15.172,-5.539 15.434,-4.755 15.434,-3.766C15.434,-3.579 15.396,-3.444 15.322,-3.36C15.247,-3.276 15.126,-3.234 14.958,-3.234L10.45,-3.234C10.534,-1.629 11.294,-0.826 12.732,-0.826C13.096,-0.826 13.408,-0.875 13.67,-0.973C13.931,-1.071 14.211,-1.204 14.51,-1.372C14.752,-1.512 14.916,-1.582 15,-1.582C15.102,-1.582 15.191,-1.54 15.266,-1.456ZM11.115,-5.544C10.755,-5.171 10.543,-4.643 10.478,-3.962L14.44,-3.962C14.421,-4.653 14.248,-5.182 13.922,-5.551C13.595,-5.92 13.138,-6.104 12.55,-6.104C11.952,-6.104 11.474,-5.917 11.115,-5.544Z" style="fill-rule:nonzero;"/>
                    <path d="M18.26,-0.336C17.77,-0.625 17.392,-1.036 17.126,-1.568C16.86,-2.1 16.727,-2.716 16.727,-3.416C16.727,-4.116 16.865,-4.737 17.14,-5.278C17.415,-5.819 17.8,-6.239 18.295,-6.538C18.79,-6.837 19.359,-6.986 20.003,-6.986C20.358,-6.986 20.71,-6.937 21.06,-6.839C21.41,-6.741 21.716,-6.599 21.977,-6.412C22.145,-6.3 22.264,-6.19 22.334,-6.083C22.404,-5.976 22.439,-5.857 22.439,-5.726C22.439,-5.595 22.404,-5.488 22.334,-5.404C22.264,-5.32 22.173,-5.278 22.061,-5.278C21.996,-5.278 21.926,-5.297 21.851,-5.334C21.776,-5.371 21.713,-5.409 21.662,-5.446C21.611,-5.483 21.576,-5.507 21.557,-5.516C21.314,-5.675 21.083,-5.801 20.864,-5.894C20.645,-5.987 20.376,-6.034 20.059,-6.034C19.378,-6.034 18.848,-5.803 18.47,-5.341C18.092,-4.879 17.903,-4.237 17.903,-3.416C17.903,-2.595 18.092,-1.96 18.47,-1.512C18.848,-1.064 19.378,-0.84 20.059,-0.84C20.376,-0.84 20.649,-0.887 20.878,-0.98C21.107,-1.073 21.338,-1.199 21.571,-1.358C21.674,-1.423 21.772,-1.479 21.865,-1.526C21.958,-1.573 22.038,-1.596 22.103,-1.596C22.206,-1.596 22.292,-1.554 22.362,-1.47C22.432,-1.386 22.467,-1.279 22.467,-1.148C22.467,-1.027 22.434,-0.917 22.369,-0.819C22.304,-0.721 22.182,-0.611 22.005,-0.49C21.744,-0.313 21.429,-0.17 21.06,-0.063C20.691,0.044 20.32,0.098 19.947,0.098C19.312,0.098 18.75,-0.047 18.26,-0.336Z" style="fill-rule:nonzero;"/>
                    <path d="M29.466,-6.804C29.564,-6.701 29.613,-6.566 29.613,-6.398L29.613,-0.476C29.613,-0.317 29.564,-0.187 29.466,-0.084C29.368,0.019 29.23,0.07 29.053,0.07C28.885,0.07 28.752,0.021 28.654,-0.077C28.556,-0.175 28.507,-0.303 28.507,-0.462L28.507,-1.162C28.292,-0.751 27.991,-0.439 27.604,-0.224C27.216,-0.009 26.78,0.098 26.295,0.098C25.483,0.098 24.871,-0.128 24.461,-0.581C24.05,-1.034 23.845,-1.703 23.845,-2.59L23.845,-6.398C23.845,-6.566 23.896,-6.701 23.999,-6.804C24.101,-6.907 24.241,-6.958 24.419,-6.958C24.596,-6.958 24.734,-6.907 24.832,-6.804C24.93,-6.701 24.979,-6.566 24.979,-6.398L24.979,-2.618C24.979,-2.011 25.1,-1.566 25.343,-1.281C25.585,-0.996 25.968,-0.854 26.491,-0.854C27.088,-0.854 27.569,-1.048 27.933,-1.435C28.297,-1.822 28.479,-2.333 28.479,-2.968L28.479,-6.398C28.479,-6.566 28.53,-6.701 28.633,-6.804C28.735,-6.907 28.875,-6.958 29.053,-6.958C29.23,-6.958 29.368,-6.907 29.466,-6.804Z" style="fill-rule:nonzero;"/>
                    <path d="M35.722,-6.482C35.722,-6.333 35.68,-6.214 35.596,-6.125C35.512,-6.036 35.367,-5.983 35.162,-5.964L34.742,-5.922C34.117,-5.866 33.652,-5.644 33.349,-5.257C33.046,-4.87 32.894,-4.415 32.894,-3.892L32.894,-0.49C32.894,-0.303 32.843,-0.163 32.74,-0.07C32.637,0.023 32.502,0.07 32.334,0.07C32.166,0.07 32.028,0.021 31.921,-0.077C31.814,-0.175 31.76,-0.313 31.76,-0.49L31.76,-6.398C31.76,-6.575 31.816,-6.713 31.928,-6.811C32.04,-6.909 32.175,-6.958 32.334,-6.958C32.483,-6.958 32.609,-6.909 32.712,-6.811C32.815,-6.713 32.866,-6.58 32.866,-6.412L32.866,-5.628C33.062,-6.039 33.34,-6.351 33.699,-6.566C34.058,-6.781 34.471,-6.907 34.938,-6.944L35.134,-6.958C35.526,-6.986 35.722,-6.827 35.722,-6.482Z" style="fill-rule:nonzero;"/>
                    <path d="M42.14,-1.456C42.214,-1.372 42.252,-1.265 42.252,-1.134C42.252,-0.901 42.088,-0.686 41.762,-0.49C41.426,-0.294 41.071,-0.147 40.698,-0.049C40.324,0.049 39.96,0.098 39.606,0.098C38.551,0.098 37.718,-0.215 37.107,-0.84C36.495,-1.465 36.19,-2.329 36.19,-3.43C36.19,-4.13 36.325,-4.748 36.596,-5.285C36.866,-5.822 37.247,-6.239 37.737,-6.538C38.227,-6.837 38.784,-6.986 39.41,-6.986C40.296,-6.986 41.001,-6.697 41.524,-6.118C42.046,-5.539 42.308,-4.755 42.308,-3.766C42.308,-3.579 42.27,-3.444 42.196,-3.36C42.121,-3.276 42,-3.234 41.832,-3.234L37.324,-3.234C37.408,-1.629 38.168,-0.826 39.606,-0.826C39.97,-0.826 40.282,-0.875 40.544,-0.973C40.805,-1.071 41.085,-1.204 41.384,-1.372C41.626,-1.512 41.79,-1.582 41.874,-1.582C41.976,-1.582 42.065,-1.54 42.14,-1.456ZM37.989,-5.544C37.629,-5.171 37.417,-4.643 37.352,-3.962L41.314,-3.962C41.295,-4.653 41.122,-5.182 40.796,-5.551C40.469,-5.92 40.012,-6.104 39.424,-6.104C38.826,-6.104 38.348,-5.917 37.989,-5.544Z" style="fill-rule:nonzero;"/>
                    <path d="M60.631,-9.863C60.724,-9.924 60.827,-9.954 60.939,-9.954C61.088,-9.954 61.216,-9.91 61.324,-9.821C61.431,-9.732 61.485,-9.613 61.485,-9.464C61.485,-9.399 61.471,-9.324 61.443,-9.24L58.279,-0.322C58.232,-0.191 58.153,-0.091 58.041,-0.021C57.929,0.049 57.803,0.084 57.663,0.084C57.532,0.084 57.411,0.049 57.299,-0.021C57.187,-0.091 57.107,-0.191 57.061,-0.322L54.317,-8.078L51.545,-0.322C51.498,-0.191 51.419,-0.091 51.307,-0.021C51.195,0.049 51.073,0.084 50.943,0.084C50.812,0.084 50.691,0.049 50.579,-0.021C50.467,-0.091 50.387,-0.191 50.341,-0.322L47.163,-9.24C47.135,-9.315 47.121,-9.385 47.121,-9.45C47.121,-9.599 47.179,-9.721 47.296,-9.814C47.412,-9.907 47.545,-9.954 47.695,-9.954C47.807,-9.954 47.912,-9.924 48.01,-9.863C48.108,-9.802 48.175,-9.711 48.213,-9.59L50.971,-1.638L53.771,-9.506C53.817,-9.646 53.892,-9.751 53.995,-9.821C54.097,-9.891 54.209,-9.926 54.331,-9.926C54.452,-9.926 54.564,-9.889 54.667,-9.814C54.769,-9.739 54.844,-9.632 54.891,-9.492L57.649,-1.61L60.435,-9.59C60.472,-9.711 60.537,-9.802 60.631,-9.863Z" style="fill-rule:nonzero;"/>
                    <path d="M63.261,-0.077C63.154,-0.175 63.1,-0.313 63.1,-0.49L63.1,-6.398C63.1,-6.575 63.154,-6.713 63.261,-6.811C63.368,-6.909 63.506,-6.958 63.674,-6.958C63.842,-6.958 63.977,-6.909 64.08,-6.811C64.183,-6.713 64.234,-6.575 64.234,-6.398L64.234,-0.49C64.234,-0.303 64.183,-0.163 64.08,-0.07C63.977,0.023 63.842,0.07 63.674,0.07C63.506,0.07 63.368,0.021 63.261,-0.077ZM63.128,-8.624C62.988,-8.755 62.918,-8.927 62.918,-9.142C62.918,-9.347 62.988,-9.515 63.128,-9.646C63.268,-9.777 63.45,-9.842 63.674,-9.842C63.898,-9.842 64.08,-9.777 64.22,-9.646C64.36,-9.515 64.43,-9.347 64.43,-9.142C64.43,-8.927 64.36,-8.755 64.22,-8.624C64.08,-8.493 63.898,-8.428 63.674,-8.428C63.45,-8.428 63.268,-8.493 63.128,-8.624Z" style="fill-rule:nonzero;"/>
                    <path d="M70.344,-6.482C70.344,-6.333 70.302,-6.214 70.218,-6.125C70.134,-6.036 69.989,-5.983 69.784,-5.964L69.364,-5.922C68.738,-5.866 68.274,-5.644 67.971,-5.257C67.667,-4.87 67.516,-4.415 67.516,-3.892L67.516,-0.49C67.516,-0.303 67.464,-0.163 67.362,-0.07C67.259,0.023 67.124,0.07 66.956,0.07C66.788,0.07 66.65,0.021 66.543,-0.077C66.435,-0.175 66.382,-0.313 66.382,-0.49L66.382,-6.398C66.382,-6.575 66.438,-6.713 66.55,-6.811C66.662,-6.909 66.797,-6.958 66.956,-6.958C67.105,-6.958 67.231,-6.909 67.334,-6.811C67.436,-6.713 67.488,-6.58 67.488,-6.412L67.488,-5.628C67.684,-6.039 67.961,-6.351 68.321,-6.566C68.68,-6.781 69.093,-6.907 69.56,-6.944L69.756,-6.958C70.148,-6.986 70.344,-6.827 70.344,-6.482Z" style="fill-rule:nonzero;"/>
                    <path d="M76.761,-1.456C76.836,-1.372 76.873,-1.265 76.873,-1.134C76.873,-0.901 76.71,-0.686 76.383,-0.49C76.047,-0.294 75.692,-0.147 75.319,-0.049C74.946,0.049 74.582,0.098 74.227,0.098C73.172,0.098 72.339,-0.215 71.728,-0.84C71.117,-1.465 70.811,-2.329 70.811,-3.43C70.811,-4.13 70.946,-4.748 71.217,-5.285C71.488,-5.822 71.868,-6.239 72.358,-6.538C72.848,-6.837 73.406,-6.986 74.031,-6.986C74.918,-6.986 75.622,-6.697 76.145,-6.118C76.668,-5.539 76.929,-4.755 76.929,-3.766C76.929,-3.579 76.892,-3.444 76.817,-3.36C76.742,-3.276 76.621,-3.234 76.453,-3.234L71.945,-3.234C72.029,-1.629 72.79,-0.826 74.227,-0.826C74.591,-0.826 74.904,-0.875 75.165,-0.973C75.426,-1.071 75.706,-1.204 76.005,-1.372C76.248,-1.512 76.411,-1.582 76.495,-1.582C76.598,-1.582 76.686,-1.54 76.761,-1.456ZM72.61,-5.544C72.251,-5.171 72.038,-4.643 71.973,-3.962L75.935,-3.962C75.916,-4.653 75.744,-5.182 75.417,-5.551C75.09,-5.92 74.633,-6.104 74.045,-6.104C73.448,-6.104 72.969,-5.917 72.61,-5.544Z" style="fill-rule:nonzero;"/>
                    <path d="M78.79,-0.077C78.682,-0.175 78.629,-0.313 78.629,-0.49L78.629,-9.38C78.629,-9.557 78.682,-9.695 78.79,-9.793C78.897,-9.891 79.035,-9.94 79.203,-9.94C79.361,-9.94 79.494,-9.891 79.602,-9.793C79.709,-9.695 79.763,-9.557 79.763,-9.38L79.763,-0.49C79.763,-0.313 79.709,-0.175 79.602,-0.077C79.494,0.021 79.361,0.07 79.203,0.07C79.035,0.07 78.897,0.021 78.79,-0.077Z" style="fill-rule:nonzero;"/>
                    <path d="M87.454,-1.456C87.529,-1.372 87.566,-1.265 87.566,-1.134C87.566,-0.901 87.403,-0.686 87.076,-0.49C86.74,-0.294 86.386,-0.147 86.012,-0.049C85.639,0.049 85.275,0.098 84.92,0.098C83.866,0.098 83.033,-0.215 82.421,-0.84C81.81,-1.465 81.504,-2.329 81.504,-3.43C81.504,-4.13 81.64,-4.748 81.91,-5.285C82.181,-5.822 82.561,-6.239 83.051,-6.538C83.541,-6.837 84.099,-6.986 84.724,-6.986C85.611,-6.986 86.316,-6.697 86.838,-6.118C87.361,-5.539 87.622,-4.755 87.622,-3.766C87.622,-3.579 87.585,-3.444 87.51,-3.36C87.436,-3.276 87.314,-3.234 87.146,-3.234L82.638,-3.234C82.722,-1.629 83.483,-0.826 84.92,-0.826C85.284,-0.826 85.597,-0.875 85.858,-0.973C86.12,-1.071 86.4,-1.204 86.698,-1.372C86.941,-1.512 87.104,-1.582 87.188,-1.582C87.291,-1.582 87.38,-1.54 87.454,-1.456ZM83.303,-5.544C82.944,-5.171 82.732,-4.643 82.666,-3.962L86.628,-3.962C86.61,-4.653 86.437,-5.182 86.11,-5.551C85.784,-5.92 85.326,-6.104 84.738,-6.104C84.141,-6.104 83.663,-5.917 83.303,-5.544Z" style="fill-rule:nonzero;"/>
                    <path d="M90.393,-0.056C90.005,-0.159 89.662,-0.303 89.364,-0.49C89.196,-0.602 89.077,-0.707 89.007,-0.805C88.937,-0.903 88.902,-1.022 88.902,-1.162C88.902,-1.283 88.937,-1.384 89.007,-1.463C89.077,-1.542 89.168,-1.582 89.28,-1.582C89.392,-1.582 89.555,-1.512 89.77,-1.372C90.05,-1.204 90.327,-1.071 90.603,-0.973C90.878,-0.875 91.221,-0.826 91.632,-0.826C92.136,-0.826 92.528,-0.915 92.808,-1.092C93.088,-1.269 93.228,-1.526 93.228,-1.862C93.228,-2.067 93.176,-2.233 93.074,-2.359C92.971,-2.485 92.794,-2.597 92.542,-2.695C92.29,-2.793 91.921,-2.893 91.436,-2.996C90.614,-3.173 90.026,-3.411 89.672,-3.71C89.317,-4.009 89.14,-4.415 89.14,-4.928C89.14,-5.329 89.252,-5.684 89.476,-5.992C89.7,-6.3 90.01,-6.543 90.407,-6.72C90.803,-6.897 91.254,-6.986 91.758,-6.986C92.122,-6.986 92.474,-6.937 92.815,-6.839C93.155,-6.741 93.456,-6.603 93.718,-6.426C94.035,-6.202 94.194,-5.969 94.194,-5.726C94.194,-5.605 94.156,-5.502 94.082,-5.418C94.007,-5.334 93.918,-5.292 93.816,-5.292C93.704,-5.292 93.536,-5.371 93.312,-5.53C93.05,-5.698 92.803,-5.829 92.57,-5.922C92.336,-6.015 92.047,-6.062 91.702,-6.062C91.263,-6.062 90.911,-5.964 90.645,-5.768C90.379,-5.572 90.246,-5.311 90.246,-4.984C90.246,-4.779 90.295,-4.613 90.393,-4.487C90.491,-4.361 90.654,-4.249 90.883,-4.151C91.111,-4.053 91.44,-3.957 91.87,-3.864C92.504,-3.724 92.997,-3.57 93.347,-3.402C93.697,-3.234 93.946,-3.029 94.096,-2.786C94.245,-2.543 94.32,-2.235 94.32,-1.862C94.32,-1.274 94.072,-0.8 93.578,-0.441C93.083,-0.082 92.43,0.098 91.618,0.098C91.188,0.098 90.78,0.047 90.393,-0.056Z" style="fill-rule:nonzero;"/>
                    <path d="M97.146,-0.056C96.759,-0.159 96.416,-0.303 96.117,-0.49C95.949,-0.602 95.83,-0.707 95.76,-0.805C95.69,-0.903 95.655,-1.022 95.655,-1.162C95.655,-1.283 95.69,-1.384 95.76,-1.463C95.83,-1.542 95.921,-1.582 96.033,-1.582C96.145,-1.582 96.309,-1.512 96.523,-1.372C96.803,-1.204 97.081,-1.071 97.356,-0.973C97.632,-0.875 97.975,-0.826 98.385,-0.826C98.889,-0.826 99.281,-0.915 99.561,-1.092C99.841,-1.269 99.981,-1.526 99.981,-1.862C99.981,-2.067 99.93,-2.233 99.827,-2.359C99.725,-2.485 99.547,-2.597 99.295,-2.695C99.043,-2.793 98.675,-2.893 98.189,-2.996C97.368,-3.173 96.78,-3.411 96.425,-3.71C96.071,-4.009 95.893,-4.415 95.893,-4.928C95.893,-5.329 96.005,-5.684 96.229,-5.992C96.453,-6.3 96.764,-6.543 97.16,-6.72C97.557,-6.897 98.007,-6.986 98.511,-6.986C98.875,-6.986 99.228,-6.937 99.568,-6.839C99.909,-6.741 100.21,-6.603 100.471,-6.426C100.789,-6.202 100.947,-5.969 100.947,-5.726C100.947,-5.605 100.91,-5.502 100.835,-5.418C100.761,-5.334 100.672,-5.292 100.569,-5.292C100.457,-5.292 100.289,-5.371 100.065,-5.53C99.804,-5.698 99.557,-5.829 99.323,-5.922C99.09,-6.015 98.801,-6.062 98.455,-6.062C98.017,-6.062 97.664,-5.964 97.398,-5.768C97.132,-5.572 96.999,-5.311 96.999,-4.984C96.999,-4.779 97.048,-4.613 97.146,-4.487C97.244,-4.361 97.408,-4.249 97.636,-4.151C97.865,-4.053 98.194,-3.957 98.623,-3.864C99.258,-3.724 99.75,-3.57 100.1,-3.402C100.45,-3.234 100.7,-3.029 100.849,-2.786C100.999,-2.543 101.073,-2.235 101.073,-1.862C101.073,-1.274 100.826,-0.8 100.331,-0.441C99.837,-0.082 99.183,0.098 98.371,0.098C97.942,0.098 97.534,0.047 97.146,-0.056Z" style="fill-rule:nonzero;"/>
                    <path d="M113.138,-0.84C113.232,-0.756 113.278,-0.639 113.278,-0.49C113.278,-0.331 113.232,-0.21 113.138,-0.126C113.045,-0.042 112.914,0 112.746,0L106.488,0C106.32,0 106.187,-0.047 106.089,-0.14C105.991,-0.233 105.942,-0.35 105.942,-0.49C105.942,-0.63 105.994,-0.775 106.096,-0.924L111.696,-8.904L106.488,-8.904C106.32,-8.904 106.19,-8.946 106.096,-9.03C106.003,-9.114 105.956,-9.231 105.956,-9.38C105.956,-9.539 106.003,-9.66 106.096,-9.744C106.19,-9.828 106.32,-9.87 106.488,-9.87L112.592,-9.87C112.76,-9.87 112.893,-9.823 112.991,-9.73C113.089,-9.637 113.138,-9.52 113.138,-9.38C113.138,-9.249 113.087,-9.109 112.984,-8.96L107.37,-0.966L112.746,-0.966C112.914,-0.966 113.045,-0.924 113.138,-0.84Z" style="fill-rule:nonzero;"/>
                    <path d="M115.811,-0.336C115.321,-0.625 114.943,-1.038 114.677,-1.575C114.411,-2.112 114.278,-2.735 114.278,-3.444C114.278,-4.153 114.411,-4.776 114.677,-5.313C114.943,-5.85 115.321,-6.263 115.811,-6.552C116.301,-6.841 116.868,-6.986 117.512,-6.986C118.156,-6.986 118.725,-6.841 119.22,-6.552C119.714,-6.263 120.095,-5.85 120.361,-5.313C120.627,-4.776 120.76,-4.153 120.76,-3.444C120.76,-2.735 120.627,-2.112 120.361,-1.575C120.095,-1.038 119.714,-0.625 119.22,-0.336C118.725,-0.047 118.156,0.098 117.512,0.098C116.868,0.098 116.301,-0.047 115.811,-0.336ZM119.059,-1.505C119.418,-1.948 119.598,-2.595 119.598,-3.444C119.598,-4.275 119.416,-4.916 119.052,-5.369C118.688,-5.822 118.174,-6.048 117.512,-6.048C116.849,-6.048 116.336,-5.822 115.972,-5.369C115.608,-4.916 115.426,-4.275 115.426,-3.444C115.426,-2.604 115.605,-1.96 115.965,-1.512C116.324,-1.064 116.84,-0.84 117.512,-0.84C118.184,-0.84 118.699,-1.062 119.059,-1.505Z" style="fill-rule:nonzero;"/>
                    <path d="M128.367,-4.284L128.367,-0.49C128.367,-0.313 128.318,-0.175 128.22,-0.077C128.122,0.021 127.985,0.07 127.807,0.07C127.63,0.07 127.49,0.021 127.387,-0.077C127.285,-0.175 127.233,-0.313 127.233,-0.49L127.233,-4.214C127.233,-4.849 127.11,-5.311 126.862,-5.6C126.615,-5.889 126.221,-6.034 125.679,-6.034C125.054,-6.034 124.555,-5.843 124.181,-5.46C123.808,-5.077 123.621,-4.559 123.621,-3.906L123.621,-0.49C123.621,-0.313 123.572,-0.175 123.474,-0.077C123.376,0.021 123.239,0.07 123.061,0.07C122.884,0.07 122.744,0.021 122.641,-0.077C122.539,-0.175 122.487,-0.313 122.487,-0.49L122.487,-6.398C122.487,-6.566 122.539,-6.701 122.641,-6.804C122.744,-6.907 122.884,-6.958 123.061,-6.958C123.229,-6.958 123.362,-6.907 123.46,-6.804C123.558,-6.701 123.607,-6.571 123.607,-6.412L123.607,-5.698C123.831,-6.118 124.144,-6.438 124.545,-6.657C124.947,-6.876 125.404,-6.986 125.917,-6.986C127.551,-6.986 128.367,-6.085 128.367,-4.284Z" style="fill-rule:nonzero;"/>
                    <path d="M136.017,-1.456C136.091,-1.372 136.129,-1.265 136.129,-1.134C136.129,-0.901 135.965,-0.686 135.639,-0.49C135.303,-0.294 134.948,-0.147 134.575,-0.049C134.201,0.049 133.837,0.098 133.483,0.098C132.428,0.098 131.595,-0.215 130.984,-0.84C130.372,-1.465 130.067,-2.329 130.067,-3.43C130.067,-4.13 130.202,-4.748 130.473,-5.285C130.743,-5.822 131.124,-6.239 131.614,-6.538C132.104,-6.837 132.661,-6.986 133.287,-6.986C134.173,-6.986 134.878,-6.697 135.401,-6.118C135.923,-5.539 136.185,-4.755 136.185,-3.766C136.185,-3.579 136.147,-3.444 136.073,-3.36C135.998,-3.276 135.877,-3.234 135.709,-3.234L131.201,-3.234C131.285,-1.629 132.045,-0.826 133.483,-0.826C133.847,-0.826 134.159,-0.875 134.421,-0.973C134.682,-1.071 134.962,-1.204 135.261,-1.372C135.503,-1.512 135.667,-1.582 135.751,-1.582C135.853,-1.582 135.942,-1.54 136.017,-1.456ZM131.866,-5.544C131.506,-5.171 131.294,-4.643 131.229,-3.962L135.191,-3.962C135.172,-4.653 134.999,-5.182 134.673,-5.551C134.346,-5.92 133.889,-6.104 133.301,-6.104C132.703,-6.104 132.225,-5.917 131.866,-5.544Z" style="fill-rule:nonzero;"/>
                </g>
            </g>
            <g transform="matrix(1,0,0,1,53,71)">
                <g id="text-351" serif:id="text-35">
                    <path d="M2.359,-0.203C1.72,-0.413 1.209,-0.695 0.826,-1.05C0.686,-1.181 0.616,-1.344 0.616,-1.54C0.616,-1.671 0.653,-1.785 0.728,-1.883C0.803,-1.981 0.891,-2.03 0.994,-2.03C1.115,-2.03 1.246,-1.979 1.386,-1.876C2.254,-1.204 3.243,-0.868 4.354,-0.868C5.157,-0.868 5.773,-1.022 6.202,-1.33C6.631,-1.638 6.846,-2.077 6.846,-2.646C6.846,-2.973 6.743,-3.236 6.538,-3.437C6.333,-3.638 6.062,-3.799 5.726,-3.92C5.39,-4.041 4.937,-4.167 4.368,-4.298C3.603,-4.475 2.975,-4.662 2.485,-4.858C1.995,-5.054 1.598,-5.334 1.295,-5.698C0.992,-6.062 0.84,-6.538 0.84,-7.126C0.84,-7.686 0.992,-8.183 1.295,-8.617C1.598,-9.051 2.023,-9.387 2.569,-9.625C3.115,-9.863 3.738,-9.982 4.438,-9.982C5.091,-9.982 5.7,-9.882 6.265,-9.681C6.83,-9.48 7.303,-9.193 7.686,-8.82C7.835,-8.671 7.91,-8.507 7.91,-8.33C7.91,-8.199 7.873,-8.085 7.798,-7.987C7.723,-7.889 7.635,-7.84 7.532,-7.84C7.429,-7.84 7.294,-7.891 7.126,-7.994C6.669,-8.367 6.244,-8.629 5.852,-8.778C5.46,-8.927 4.989,-9.002 4.438,-9.002C3.663,-9.002 3.061,-8.841 2.632,-8.519C2.203,-8.197 1.988,-7.747 1.988,-7.168C1.988,-6.673 2.177,-6.302 2.555,-6.055C2.933,-5.808 3.514,-5.591 4.298,-5.404C5.147,-5.199 5.815,-5.01 6.3,-4.837C6.785,-4.664 7.189,-4.405 7.511,-4.06C7.833,-3.715 7.994,-3.253 7.994,-2.674C7.994,-2.123 7.842,-1.638 7.539,-1.218C7.236,-0.798 6.809,-0.471 6.258,-0.238C5.707,-0.005 5.077,0.112 4.368,0.112C3.668,0.112 2.998,0.007 2.359,-0.203Z" style="fill-rule:nonzero;"/>
                    <path d="M15.266,-1.456C15.34,-1.372 15.378,-1.265 15.378,-1.134C15.378,-0.901 15.214,-0.686 14.888,-0.49C14.552,-0.294 14.197,-0.147 13.824,-0.049C13.45,0.049 13.086,0.098 12.732,0.098C11.677,0.098 10.844,-0.215 10.233,-0.84C9.621,-1.465 9.316,-2.329 9.316,-3.43C9.316,-4.13 9.451,-4.748 9.722,-5.285C9.992,-5.822 10.373,-6.239 10.863,-6.538C11.353,-6.837 11.91,-6.986 12.536,-6.986C13.422,-6.986 14.127,-6.697 14.65,-6.118C15.172,-5.539 15.434,-4.755 15.434,-3.766C15.434,-3.579 15.396,-3.444 15.322,-3.36C15.247,-3.276 15.126,-3.234 14.958,-3.234L10.45,-3.234C10.534,-1.629 11.294,-0.826 12.732,-0.826C13.096,-0.826 13.408,-0.875 13.67,-0.973C13.931,-1.071 14.211,-1.204 14.51,-1.372C14.752,-1.512 14.916,-1.582 15,-1.582C15.102,-1.582 15.191,-1.54 15.266,-1.456ZM11.115,-5.544C10.755,-5.171 10.543,-4.643 10.478,-3.962L14.44,-3.962C14.421,-4.653 14.248,-5.182 13.922,-5.551C13.595,-5.92 13.138,-6.104 12.55,-6.104C11.952,-6.104 11.474,-5.917 11.115,-5.544Z" style="fill-rule:nonzero;"/>
                    <path d="M18.26,-0.336C17.77,-0.625 17.392,-1.036 17.126,-1.568C16.86,-2.1 16.727,-2.716 16.727,-3.416C16.727,-4.116 16.865,-4.737 17.14,-5.278C17.415,-5.819 17.8,-6.239 18.295,-6.538C18.79,-6.837 19.359,-6.986 20.003,-6.986C20.358,-6.986 20.71,-6.937 21.06,-6.839C21.41,-6.741 21.716,-6.599 21.977,-6.412C22.145,-6.3 22.264,-6.19 22.334,-6.083C22.404,-5.976 22.439,-5.857 22.439,-5.726C22.439,-5.595 22.404,-5.488 22.334,-5.404C22.264,-5.32 22.173,-5.278 22.061,-5.278C21.996,-5.278 21.926,-5.297 21.851,-5.334C21.776,-5.371 21.713,-5.409 21.662,-5.446C21.611,-5.483 21.576,-5.507 21.557,-5.516C21.314,-5.675 21.083,-5.801 20.864,-5.894C20.645,-5.987 20.376,-6.034 20.059,-6.034C19.378,-6.034 18.848,-5.803 18.47,-5.341C18.092,-4.879 17.903,-4.237 17.903,-3.416C17.903,-2.595 18.092,-1.96 18.47,-1.512C18.848,-1.064 19.378,-0.84 20.059,-0.84C20.376,-0.84 20.649,-0.887 20.878,-0.98C21.107,-1.073 21.338,-1.199 21.571,-1.358C21.674,-1.423 21.772,-1.479 21.865,-1.526C21.958,-1.573 22.038,-1.596 22.103,-1.596C22.206,-1.596 22.292,-1.554 22.362,-1.47C22.432,-1.386 22.467,-1.279 22.467,-1.148C22.467,-1.027 22.434,-0.917 22.369,-0.819C22.304,-0.721 22.182,-0.611 22.005,-0.49C21.744,-0.313 21.429,-0.17 21.06,-0.063C20.691,0.044 20.32,0.098 19.947,0.098C19.312,0.098 18.75,-0.047 18.26,-0.336Z" style="fill-rule:nonzero;"/>
                    <path d="M29.466,-6.804C29.564,-6.701 29.613,-6.566 29.613,-6.398L29.613,-0.476C29.613,-0.317 29.564,-0.187 29.466,-0.084C29.368,0.019 29.23,0.07 29.053,0.07C28.885,0.07 28.752,0.021 28.654,-0.077C28.556,-0.175 28.507,-0.303 28.507,-0.462L28.507,-1.162C28.292,-0.751 27.991,-0.439 27.604,-0.224C27.216,-0.009 26.78,0.098 26.295,0.098C25.483,0.098 24.871,-0.128 24.461,-0.581C24.05,-1.034 23.845,-1.703 23.845,-2.59L23.845,-6.398C23.845,-6.566 23.896,-6.701 23.999,-6.804C24.101,-6.907 24.241,-6.958 24.419,-6.958C24.596,-6.958 24.734,-6.907 24.832,-6.804C24.93,-6.701 24.979,-6.566 24.979,-6.398L24.979,-2.618C24.979,-2.011 25.1,-1.566 25.343,-1.281C25.585,-0.996 25.968,-0.854 26.491,-0.854C27.088,-0.854 27.569,-1.048 27.933,-1.435C28.297,-1.822 28.479,-2.333 28.479,-2.968L28.479,-6.398C28.479,-6.566 28.53,-6.701 28.633,-6.804C28.735,-6.907 28.875,-6.958 29.053,-6.958C29.23,-6.958 29.368,-6.907 29.466,-6.804Z" style="fill-rule:nonzero;"/>
                    <path d="M35.722,-6.482C35.722,-6.333 35.68,-6.214 35.596,-6.125C35.512,-6.036 35.367,-5.983 35.162,-5.964L34.742,-5.922C34.117,-5.866 33.652,-5.644 33.349,-5.257C33.046,-4.87 32.894,-4.415 32.894,-3.892L32.894,-0.49C32.894,-0.303 32.843,-0.163 32.74,-0.07C32.637,0.023 32.502,0.07 32.334,0.07C32.166,0.07 32.028,0.021 31.921,-0.077C31.814,-0.175 31.76,-0.313 31.76,-0.49L31.76,-6.398C31.76,-6.575 31.816,-6.713 31.928,-6.811C32.04,-6.909 32.175,-6.958 32.334,-6.958C32.483,-6.958 32.609,-6.909 32.712,-6.811C32.815,-6.713 32.866,-6.58 32.866,-6.412L32.866,-5.628C33.062,-6.039 33.34,-6.351 33.699,-6.566C34.058,-6.781 34.471,-6.907 34.938,-6.944L35.134,-6.958C35.526,-6.986 35.722,-6.827 35.722,-6.482Z" style="fill-rule:nonzero;"/>
                    <path d="M42.14,-1.456C42.214,-1.372 42.252,-1.265 42.252,-1.134C42.252,-0.901 42.088,-0.686 41.762,-0.49C41.426,-0.294 41.071,-0.147 40.698,-0.049C40.324,0.049 39.96,0.098 39.606,0.098C38.551,0.098 37.718,-0.215 37.107,-0.84C36.495,-1.465 36.19,-2.329 36.19,-3.43C36.19,-4.13 36.325,-4.748 36.596,-5.285C36.866,-5.822 37.247,-6.239 37.737,-6.538C38.227,-6.837 38.784,-6.986 39.41,-6.986C40.296,-6.986 41.001,-6.697 41.524,-6.118C42.046,-5.539 42.308,-4.755 42.308,-3.766C42.308,-3.579 42.27,-3.444 42.196,-3.36C42.121,-3.276 42,-3.234 41.832,-3.234L37.324,-3.234C37.408,-1.629 38.168,-0.826 39.606,-0.826C39.97,-0.826 40.282,-0.875 40.544,-0.973C40.805,-1.071 41.085,-1.204 41.384,-1.372C41.626,-1.512 41.79,-1.582 41.874,-1.582C41.976,-1.582 42.065,-1.54 42.14,-1.456ZM37.989,-5.544C37.629,-5.171 37.417,-4.643 37.352,-3.962L41.314,-3.962C41.295,-4.653 41.122,-5.182 40.796,-5.551C40.469,-5.92 40.012,-6.104 39.424,-6.104C38.826,-6.104 38.348,-5.917 37.989,-5.544Z" style="fill-rule:nonzero;"/>
                    <path d="M60.631,-9.863C60.724,-9.924 60.827,-9.954 60.939,-9.954C61.088,-9.954 61.216,-9.91 61.324,-9.821C61.431,-9.732 61.485,-9.613 61.485,-9.464C61.485,-9.399 61.471,-9.324 61.443,-9.24L58.279,-0.322C58.232,-0.191 58.153,-0.091 58.041,-0.021C57.929,0.049 57.803,0.084 57.663,0.084C57.532,0.084 57.411,0.049 57.299,-0.021C57.187,-0.091 57.107,-0.191 57.061,-0.322L54.317,-8.078L51.545,-0.322C51.498,-0.191 51.419,-0.091 51.307,-0.021C51.195,0.049 51.073,0.084 50.943,0.084C50.812,0.084 50.691,0.049 50.579,-0.021C50.467,-0.091 50.387,-0.191 50.341,-0.322L47.163,-9.24C47.135,-9.315 47.121,-9.385 47.121,-9.45C47.121,-9.599 47.179,-9.721 47.296,-9.814C47.412,-9.907 47.545,-9.954 47.695,-9.954C47.807,-9.954 47.912,-9.924 48.01,-9.863C48.108,-9.802 48.175,-9.711 48.213,-9.59L50.971,-1.638L53.771,-9.506C53.817,-9.646 53.892,-9.751 53.995,-9.821C54.097,-9.891 54.209,-9.926 54.331,-9.926C54.452,-9.926 54.564,-9.889 54.667,-9.814C54.769,-9.739 54.844,-9.632 54.891,-9.492L57.649,-1.61L60.435,-9.59C60.472,-9.711 60.537,-9.802 60.631,-9.863Z" style="fill-rule:nonzero;"/>
                    <path d="M63.261,-0.077C63.154,-0.175 63.1,-0.313 63.1,-0.49L63.1,-6.398C63.1,-6.575 63.154,-6.713 63.261,-6.811C63.368,-6.909 63.506,-6.958 63.674,-6.958C63.842,-6.958 63.977,-6.909 64.08,-6.811C64.183,-6.713 64.234,-6.575 64.234,-6.398L64.234,-0.49C64.234,-0.303 64.183,-0.163 64.08,-0.07C63.977,0.023 63.842,0.07 63.674,0.07C63.506,0.07 63.368,0.021 63.261,-0.077ZM63.128,-8.624C62.988,-8.755 62.918,-8.927 62.918,-9.142C62.918,-9.347 62.988,-9.515 63.128,-9.646C63.268,-9.777 63.45,-9.842 63.674,-9.842C63.898,-9.842 64.08,-9.777 64.22,-9.646C64.36,-9.515 64.43,-9.347 64.43,-9.142C64.43,-8.927 64.36,-8.755 64.22,-8.624C64.08,-8.493 63.898,-8.428 63.674,-8.428C63.45,-8.428 63.268,-8.493 63.128,-8.624Z" style="fill-rule:nonzero;"/>
                    <path d="M70.344,-6.482C70.344,-6.333 70.302,-6.214 70.218,-6.125C70.134,-6.036 69.989,-5.983 69.784,-5.964L69.364,-5.922C68.738,-5.866 68.274,-5.644 67.971,-5.257C67.667,-4.87 67.516,-4.415 67.516,-3.892L67.516,-0.49C67.516,-0.303 67.464,-0.163 67.362,-0.07C67.259,0.023 67.124,0.07 66.956,0.07C66.788,0.07 66.65,0.021 66.543,-0.077C66.435,-0.175 66.382,-0.313 66.382,-0.49L66.382,-6.398C66.382,-6.575 66.438,-6.713 66.55,-6.811C66.662,-6.909 66.797,-6.958 66.956,-6.958C67.105,-6.958 67.231,-6.909 67.334,-6.811C67.436,-6.713 67.488,-6.58 67.488,-6.412L67.488,-5.628C67.684,-6.039 67.961,-6.351 68.321,-6.566C68.68,-6.781 69.093,-6.907 69.56,-6.944L69.756,-6.958C70.148,-6.986 70.344,-6.827 70.344,-6.482Z" style="fill-rule:nonzero;"/>
                    <path d="M76.761,-1.456C76.836,-1.372 76.873,-1.265 76.873,-1.134C76.873,-0.901 76.71,-0.686 76.383,-0.49C76.047,-0.294 75.692,-0.147 75.319,-0.049C74.946,0.049 74.582,0.098 74.227,0.098C73.172,0.098 72.339,-0.215 71.728,-0.84C71.117,-1.465 70.811,-2.329 70.811,-3.43C70.811,-4.13 70.946,-4.748 71.217,-5.285C71.488,-5.822 71.868,-6.239 72.358,-6.538C72.848,-6.837 73.406,-6.986 74.031,-6.986C74.918,-6.986 75.622,-6.697 76.145,-6.118C76.668,-5.539 76.929,-4.755 76.929,-3.766C76.929,-3.579 76.892,-3.444 76.817,-3.36C76.742,-3.276 76.621,-3.234 76.453,-3.234L71.945,-3.234C72.029,-1.629 72.79,-0.826 74.227,-0.826C74.591,-0.826 74.904,-0.875 75.165,-0.973C75.426,-1.071 75.706,-1.204 76.005,-1.372C76.248,-1.512 76.411,-1.582 76.495,-1.582C76.598,-1.582 76.686,-1.54 76.761,-1.456ZM72.61,-5.544C72.251,-5.171 72.038,-4.643 71.973,-3.962L75.935,-3.962C75.916,-4.653 75.744,-5.182 75.417,-5.551C75.09,-5.92 74.633,-6.104 74.045,-6.104C73.448,-6.104 72.969,-5.917 72.61,-5.544Z" style="fill-rule:nonzero;"/>
                    <path d="M78.79,-0.077C78.682,-0.175 78.629,-0.313 78.629,-0.49L78.629,-9.38C78.629,-9.557 78.682,-9.695 78.79,-9.793C78.897,-9.891 79.035,-9.94 79.203,-9.94C79.361,-9.94 79.494,-9.891 79.602,-9.793C79.709,-9.695 79.763,-9.557 79.763,-9.38L79.763,-0.49C79.763,-0.313 79.709,-0.175 79.602,-0.077C79.494,0.021 79.361,0.07 79.203,0.07C79.035,0.07 78.897,0.021 78.79,-0.077Z" style="fill-rule:nonzero;"/>
                    <path d="M87.454,-1.456C87.529,-1.372 87.566,-1.265 87.566,-1.134C87.566,-0.901 87.403,-0.686 87.076,-0.49C86.74,-0.294 86.386,-0.147 86.012,-0.049C85.639,0.049 85.275,0.098 84.92,0.098C83.866,0.098 83.033,-0.215 82.421,-0.84C81.81,-1.465 81.504,-2.329 81.504,-3.43C81.504,-4.13 81.64,-4.748 81.91,-5.285C82.181,-5.822 82.561,-6.239 83.051,-6.538C83.541,-6.837 84.099,-6.986 84.724,-6.986C85.611,-6.986 86.316,-6.697 86.838,-6.118C87.361,-5.539 87.622,-4.755 87.622,-3.766C87.622,-3.579 87.585,-3.444 87.51,-3.36C87.436,-3.276 87.314,-3.234 87.146,-3.234L82.638,-3.234C82.722,-1.629 83.483,-0.826 84.92,-0.826C85.284,-0.826 85.597,-0.875 85.858,-0.973C86.12,-1.071 86.4,-1.204 86.698,-1.372C86.941,-1.512 87.104,-1.582 87.188,-1.582C87.291,-1.582 87.38,-1.54 87.454,-1.456ZM83.303,-5.544C82.944,-5.171 82.732,-4.643 82.666,-3.962L86.628,-3.962C86.61,-4.653 86.437,-5.182 86.11,-5.551C85.784,-5.92 85.326,-6.104 84.738,-6.104C84.141,-6.104 83.663,-5.917 83.303,-5.544Z" style="fill-rule:nonzero;"/>
                    <path d="M90.393,-0.056C90.005,-0.159 89.662,-0.303 89.364,-0.49C89.196,-0.602 89.077,-0.707 89.007,-0.805C88.937,-0.903 88.902,-1.022 88.902,-1.162C88.902,-1.283 88.937,-1.384 89.007,-1.463C89.077,-1.542 89.168,-1.582 89.28,-1.582C89.392,-1.582 89.555,-1.512 89.77,-1.372C90.05,-1.204 90.327,-1.071 90.603,-0.973C90.878,-0.875 91.221,-0.826 91.632,-0.826C92.136,-0.826 92.528,-0.915 92.808,-1.092C93.088,-1.269 93.228,-1.526 93.228,-1.862C93.228,-2.067 93.176,-2.233 93.074,-2.359C92.971,-2.485 92.794,-2.597 92.542,-2.695C92.29,-2.793 91.921,-2.893 91.436,-2.996C90.614,-3.173 90.026,-3.411 89.672,-3.71C89.317,-4.009 89.14,-4.415 89.14,-4.928C89.14,-5.329 89.252,-5.684 89.476,-5.992C89.7,-6.3 90.01,-6.543 90.407,-6.72C90.803,-6.897 91.254,-6.986 91.758,-6.986C92.122,-6.986 92.474,-6.937 92.815,-6.839C93.155,-6.741 93.456,-6.603 93.718,-6.426C94.035,-6.202 94.194,-5.969 94.194,-5.726C94.194,-5.605 94.156,-5.502 94.082,-5.418C94.007,-5.334 93.918,-5.292 93.816,-5.292C93.704,-5.292 93.536,-5.371 93.312,-5.53C93.05,-5.698 92.803,-5.829 92.57,-5.922C92.336,-6.015 92.047,-6.062 91.702,-6.062C91.263,-6.062 90.911,-5.964 90.645,-5.768C90.379,-5.572 90.246,-5.311 90.246,-4.984C90.246,-4.779 90.295,-4.613 90.393,-4.487C90.491,-4.361 90.654,-4.249 90.883,-4.151C91.111,-4.053 91.44,-3.957 91.87,-3.864C92.504,-3.724 92.997,-3.57 93.347,-3.402C93.697,-3.234 93.946,-3.029 94.096,-2.786C94.245,-2.543 94.32,-2.235 94.32,-1.862C94.32,-1.274 94.072,-0.8 93.578,-0.441C93.083,-0.082 92.43,0.098 91.618,0.098C91.188,0.098 90.78,0.047 90.393,-0.056Z" style="fill-rule:nonzero;"/>
                    <path d="M97.146,-0.056C96.759,-0.159 96.416,-0.303 96.117,-0.49C95.949,-0.602 95.83,-0.707 95.76,-0.805C95.69,-0.903 95.655,-1.022 95.655,-1.162C95.655,-1.283 95.69,-1.384 95.76,-1.463C95.83,-1.542 95.921,-1.582 96.033,-1.582C96.145,-1.582 96.309,-1.512 96.523,-1.372C96.803,-1.204 97.081,-1.071 97.356,-0.973C97.632,-0.875 97.975,-0.826 98.385,-0.826C98.889,-0.826 99.281,-0.915 99.561,-1.092C99.841,-1.269 99.981,-1.526 99.981,-1.862C99.981,-2.067 99.93,-2.233 99.827,-2.359C99.725,-2.485 99.547,-2.597 99.295,-2.695C99.043,-2.793 98.675,-2.893 98.189,-2.996C97.368,-3.173 96.78,-3.411 96.425,-3.71C96.071,-4.009 95.893,-4.415 95.893,-4.928C95.893,-5.329 96.005,-5.684 96.229,-5.992C96.453,-6.3 96.764,-6.543 97.16,-6.72C97.557,-6.897 98.007,-6.986 98.511,-6.986C98.875,-6.986 99.228,-6.937 99.568,-6.839C99.909,-6.741 100.21,-6.603 100.471,-6.426C100.789,-6.202 100.947,-5.969 100.947,-5.726C100.947,-5.605 100.91,-5.502 100.835,-5.418C100.761,-5.334 100.672,-5.292 100.569,-5.292C100.457,-5.292 100.289,-5.371 100.065,-5.53C99.804,-5.698 99.557,-5.829 99.323,-5.922C99.09,-6.015 98.801,-6.062 98.455,-6.062C98.017,-6.062 97.664,-5.964 97.398,-5.768C97.132,-5.572 96.999,-5.311 96.999,-4.984C96.999,-4.779 97.048,-4.613 97.146,-4.487C97.244,-4.361 97.408,-4.249 97.636,-4.151C97.865,-4.053 98.194,-3.957 98.623,-3.864C99.258,-3.724 99.75,-3.57 100.1,-3.402C100.45,-3.234 100.7,-3.029 100.849,-2.786C100.999,-2.543 101.073,-2.235 101.073,-1.862C101.073,-1.274 100.826,-0.8 100.331,-0.441C99.837,-0.082 99.183,0.098 98.371,0.098C97.942,0.098 97.534,0.047 97.146,-0.056Z" style="fill-rule:nonzero;"/>
                    <path d="M113.138,-0.84C113.232,-0.756 113.278,-0.639 113.278,-0.49C113.278,-0.331 113.232,-0.21 113.138,-0.126C113.045,-0.042 112.914,0 112.746,0L106.488,0C106.32,0 106.187,-0.047 106.089,-0.14C105.991,-0.233 105.942,-0.35 105.942,-0.49C105.942,-0.63 105.994,-0.775 106.096,-0.924L111.696,-8.904L106.488,-8.904C106.32,-8.904 106.19,-8.946 106.096,-9.03C106.003,-9.114 105.956,-9.231 105.956,-9.38C105.956,-9.539 106.003,-9.66 106.096,-9.744C106.19,-9.828 106.32,-9.87 106.488,-9.87L112.592,-9.87C112.76,-9.87 112.893,-9.823 112.991,-9.73C113.089,-9.637 113.138,-9.52 113.138,-9.38C113.138,-9.249 113.087,-9.109 112.984,-8.96L107.37,-0.966L112.746,-0.966C112.914,-0.966 113.045,-0.924 113.138,-0.84Z" style="fill-rule:nonzero;"/>
                    <path d="M115.811,-0.336C115.321,-0.625 114.943,-1.038 114.677,-1.575C114.411,-2.112 114.278,-2.735 114.278,-3.444C114.278,-4.153 114.411,-4.776 114.677,-5.313C114.943,-5.85 115.321,-6.263 115.811,-6.552C116.301,-6.841 116.868,-6.986 117.512,-6.986C118.156,-6.986 118.725,-6.841 119.22,-6.552C119.714,-6.263 120.095,-5.85 120.361,-5.313C120.627,-4.776 120.76,-4.153 120.76,-3.444C120.76,-2.735 120.627,-2.112 120.361,-1.575C120.095,-1.038 119.714,-0.625 119.22,-0.336C118.725,-0.047 118.156,0.098 117.512,0.098C116.868,0.098 116.301,-0.047 115.811,-0.336ZM119.059,-1.505C119.418,-1.948 119.598,-2.595 119.598,-3.444C119.598,-4.275 119.416,-4.916 119.052,-5.369C118.688,-5.822 118.174,-6.048 117.512,-6.048C116.849,-6.048 116.336,-5.822 115.972,-5.369C115.608,-4.916 115.426,-4.275 115.426,-3.444C115.426,-2.604 115.605,-1.96 115.965,-1.512C116.324,-1.064 116.84,-0.84 117.512,-0.84C118.184,-0.84 118.699,-1.062 119.059,-1.505Z" style="fill-rule:nonzero;"/>
                    <path d="M128.367,-4.284L128.367,-0.49C128.367,-0.313 128.318,-0.175 128.22,-0.077C128.122,0.021 127.985,0.07 127.807,0.07C127.63,0.07 127.49,0.021 127.387,-0.077C127.285,-0.175 127.233,-0.313 127.233,-0.49L127.233,-4.214C127.233,-4.849 127.11,-5.311 126.862,-5.6C126.615,-5.889 126.221,-6.034 125.679,-6.034C125.054,-6.034 124.555,-5.843 124.181,-5.46C123.808,-5.077 123.621,-4.559 123.621,-3.906L123.621,-0.49C123.621,-0.313 123.572,-0.175 123.474,-0.077C123.376,0.021 123.239,0.07 123.061,0.07C122.884,0.07 122.744,0.021 122.641,-0.077C122.539,-0.175 122.487,-0.313 122.487,-0.49L122.487,-6.398C122.487,-6.566 122.539,-6.701 122.641,-6.804C122.744,-6.907 122.884,-6.958 123.061,-6.958C123.229,-6.958 123.362,-6.907 123.46,-6.804C123.558,-6.701 123.607,-6.571 123.607,-6.412L123.607,-5.698C123.831,-6.118 124.144,-6.438 124.545,-6.657C124.947,-6.876 125.404,-6.986 125.917,-6.986C127.551,-6.986 128.367,-6.085 128.367,-4.284Z" style="fill-rule:nonzero;"/>
                    <path d="M136.017,-1.456C136.091,-1.372 136.129,-1.265 136.129,-1.134C136.129,-0.901 135.965,-0.686 135.639,-0.49C135.303,-0.294 134.948,-0.147 134.575,-0.049C134.201,0.049 133.837,0.098 133.483,0.098C132.428,0.098 131.595,-0.215 130.984,-0.84C130.372,-1.465 130.067,-2.329 130.067,-3.43C130.067,-4.13 130.202,-4.748 130.473,-5.285C130.743,-5.822 131.124,-6.239 131.614,-6.538C132.104,-6.837 132.661,-6.986 133.287,-6.986C134.173,-6.986 134.878,-6.697 135.401,-6.118C135.923,-5.539 136.185,-4.755 136.185,-3.766C136.185,-3.579 136.147,-3.444 136.073,-3.36C135.998,-3.276 135.877,-3.234 135.709,-3.234L131.201,-3.234C131.285,-1.629 132.045,-0.826 133.483,-0.826C133.847,-0.826 134.159,-0.875 134.421,-0.973C134.682,-1.071 134.962,-1.204 135.261,-1.372C135.503,-1.512 135.667,-1.582 135.751,-1.582C135.853,-1.582 135.942,-1.54 136.017,-1.456ZM131.866,-5.544C131.506,-5.171 131.294,-4.643 131.229,-3.962L135.191,-3.962C135.172,-4.653 134.999,-5.182 134.673,-5.551C134.346,-5.92 133.889,-6.104 133.301,-6.104C132.703,-6.104 132.225,-5.917 131.866,-5.544Z" style="fill-rule:nonzero;"/>
                </g>
            </g>
        </g>
    </g>
</svg>
