<?xml version="1.0" encoding="UTF-8" standalone="no"?>
<!DOCTYPE svg PUBLIC "-//W3C//DTD SVG 1.1//EN" "http://www.w3.org/Graphics/SVG/1.1/DTD/svg11.dtd">
<svg width="100%" height="100%" viewBox="0 0 19 11" version="1.1" xmlns="http://www.w3.org/2000/svg" xmlns:xlink="http://www.w3.org/1999/xlink" xml:space="preserve" xmlns:serif="http://www.serif.com/" style="fill-rule:evenodd;clip-rule:evenodd;stroke-linejoin:round;stroke-miterlimit:1.41421;">
    <g transform="matrix(1,0,0,1,-1403,-320)">
        <g transform="matrix(1,0,0,1,244.891,-44.4255)">
            <g transform="matrix(1,0,0,1,1157,375)">
                <path d="M1.372,-0.091C1.269,-0.198 1.218,-0.341 1.218,-0.518L1.218,-9.352C1.218,-9.529 1.269,-9.672 1.372,-9.779C1.475,-9.886 1.615,-9.94 1.792,-9.94C1.969,-9.94 2.109,-9.886 2.212,-9.779C2.315,-9.672 2.366,-9.529 2.366,-9.352L2.366,-0.518C2.366,-0.341 2.315,-0.198 2.212,-0.091C2.109,0.016 1.969,0.07 1.792,0.07C1.615,0.07 1.475,0.016 1.372,-0.091Z" style="fill-rule:nonzero;"/>
                <path d="M5.761,-0.336C5.271,-0.625 4.893,-1.038 4.627,-1.575C4.361,-2.112 4.228,-2.735 4.228,-3.444C4.228,-4.153 4.361,-4.776 4.627,-5.313C4.893,-5.85 5.271,-6.263 5.761,-6.552C6.251,-6.841 6.818,-6.986 7.462,-6.986C8.106,-6.986 8.675,-6.841 9.17,-6.552C9.665,-6.263 10.045,-5.85 10.311,-5.313C10.577,-4.776 10.71,-4.153 10.71,-3.444C10.71,-2.735 10.577,-2.112 10.311,-1.575C10.045,-1.038 9.665,-0.625 9.17,-0.336C8.675,-0.047 8.106,0.098 7.462,0.098C6.818,0.098 6.251,-0.047 5.761,-0.336ZM9.009,-1.505C9.368,-1.948 9.548,-2.595 9.548,-3.444C9.548,-4.275 9.366,-4.916 9.002,-5.369C8.638,-5.822 8.125,-6.048 7.462,-6.048C6.799,-6.048 6.286,-5.822 5.922,-5.369C5.558,-4.916 5.376,-4.275 5.376,-3.444C5.376,-2.604 5.556,-1.96 5.915,-1.512C6.274,-1.064 6.79,-0.84 7.462,-0.84C8.134,-0.84 8.65,-1.062 9.009,-1.505Z" style="fill-rule:nonzero;"/>
                <path d="M15.113,-0.091C15.006,-0.198 14.952,-0.341 14.952,-0.518L14.952,-8.89L11.942,-8.89C11.774,-8.89 11.643,-8.932 11.55,-9.016C11.457,-9.1 11.41,-9.221 11.41,-9.38C11.41,-9.539 11.457,-9.66 11.55,-9.744C11.643,-9.828 11.774,-9.87 11.942,-9.87L19.124,-9.87C19.292,-9.87 19.423,-9.828 19.516,-9.744C19.609,-9.66 19.656,-9.539 19.656,-9.38C19.656,-9.221 19.609,-9.1 19.516,-9.016C19.423,-8.932 19.292,-8.89 19.124,-8.89L16.114,-8.89L16.114,-0.518C16.114,-0.341 16.063,-0.198 15.96,-0.091C15.857,0.016 15.717,0.07 15.54,0.07C15.363,0.07 15.22,0.016 15.113,-0.091Z" style="fill-rule:nonzero;"/>
            </g>
        </g>
    </g>
</svg>
