<?xml version="1.0" encoding="UTF-8" standalone="no"?>
<svg width="32px" height="36px" viewBox="0 0 32 36" version="1.1" xmlns="http://www.w3.org/2000/svg" xmlns:xlink="http://www.w3.org/1999/xlink">
    <!-- Generator: Sketch 50.2 (55047) - http://www.bohemiancoding.com/sketch -->
    <title>Wireless_right</title>
    <desc>Created with Sketch.</desc>
    <defs></defs>
    <g id="Page-1" stroke="none" stroke-width="1" fill="none" fill-rule="evenodd">
        <path d="M27.0418216,31.6644778 L19.5248577,31.6644778 C19.0548767,31.0729014 18.3212144,30.6901167 17.4973814,30.6901167 L14.4998861,30.6901167 C13.6774194,30.6901167 12.9437571,31.0729014 12.4737761,31.6644778 L4.98550285,31.6644778 C4.24364326,31.6644778 3.60425047,31.1839893 3.38975332,30.4973859 L4.07286528,30.4973859 C4.73275142,30.4973859 5.26694497,29.9754068 5.26694497,29.330294 C5.26694497,28.6838429 4.73275142,28.1618637 4.07286528,28.1618637 L3.05092979,28.1618637 L2.92523719,27.2303317 L8.04174573,27.2303317 L8.04174573,28.2595675 C8.04174573,29.1522858 8.76857685,29.877703 9.67165085,29.9084863 C9.87795066,30.2591493 10.2604934,30.4973859 10.7017837,30.4973859 L10.7345731,30.4973859 C11.3944592,30.4973859 11.9122581,29.9754068 11.9122581,29.330294 C11.9122581,28.6838429 11.3603036,28.1618637 10.7017837,28.1618637 C10.2673245,28.1618637 9.88888046,28.3947467 9.68258065,28.7360408 C9.42982922,28.7119495 9.2344592,28.5111883 9.2344592,28.2595675 L9.2344592,27.2303317 L22.7641746,27.2303317 L22.7641746,28.2595675 C22.7641746,28.5111883 22.5674383,28.7119495 22.3187856,28.7360408 C22.1111195,28.3947467 21.7313093,28.1618637 21.2968501,28.1618637 L21.2640607,28.1618637 C20.6041746,28.1618637 20.0863757,28.6838429 20.0863757,29.330294 C20.0863757,29.9754068 20.6383302,30.4973859 21.2968501,30.4973859 C21.7381404,30.4973859 22.1193169,30.2591493 22.3269829,29.9084863 C23.2314231,29.877703 23.956888,29.1522858 23.956888,28.2595675 L23.956888,27.2303317 L29.1048197,27.2303317 L28.9791271,28.1618637 L27.9244023,28.1618637 C27.2658824,28.1618637 26.733055,28.6838429 26.733055,29.330294 C26.733055,29.9754068 27.2658824,30.4973859 27.9244023,30.4973859 L28.6403036,30.4973859 C28.4326376,31.1786357 27.7905123,31.6644778 27.0418216,31.6644778 Z M3.18072106,25.2869631 L3.1943833,25.2240579 C3.33647059,24.4451044 4.02777989,23.8802961 4.83658444,23.8802961 L7.44470588,23.8802961 L7.44470588,24.2697729 C7.44470588,24.7020787 7.68652751,25.0741562 8.04174573,25.2762558 L8.04174573,26.0619014 L2.99218216,26.0619014 L3.18072106,25.2869631 Z M22.1712334,23.8802961 L22.1712334,24.2697729 C22.1712334,24.7020787 22.4089564,25.0741562 22.7641746,25.2762558 L22.7641746,26.0619014 L9.2344592,26.0619014 L9.2344592,25.2762558 C9.5883112,25.0741562 9.8287666,24.7020787 9.8287666,24.2697729 L9.8287666,23.8802961 L22.1712334,23.8802961 Z M27.1921063,23.8802961 C28.0009108,23.8802961 28.6908539,24.4451044 28.8343074,25.2240579 L29.0378748,26.0619014 L23.956888,26.0619014 L23.956888,25.2762558 C24.3134725,25.0741562 24.5552941,24.7020787 24.5552941,24.2697729 L24.5552941,23.8802961 L27.1921063,23.8802961 Z M32.8072865,5.89610607 C32.1474004,5.89610607 31.6159393,6.41808524 31.6159393,7.06319796 L31.6159393,24.2697729 C31.6159393,24.7020787 31.8550285,25.0741562 32.2102467,25.2762558 L32.2102467,28.2595675 C32.2102467,28.5272492 31.9875522,28.7454097 31.7143074,28.7454097 L31.303074,28.7454097 L31.5121063,27.1982099 C31.5612903,26.8087331 31.5476281,26.4152411 31.4765844,26.0284412 L31.174649,24.7770296 C30.8139658,22.9019198 29.1444402,21.5434355 27.1921063,21.5434355 L24.5552941,21.5434355 L24.5552941,3.1684303 C24.5552941,2.52331758 24.0197343,2 23.3625806,2 C22.7013283,2 22.1712334,2.52331758 22.1712334,3.1684303 L22.1712334,21.5434355 L9.8287666,21.5434355 L9.8287666,3.1684303 C9.8287666,2.52331758 9.2973055,2 8.63605313,2 C7.97889943,2 7.44470588,2.52331758 7.44470588,3.1684303 L7.44470588,21.5434355 L4.83658444,21.5434355 C2.8856167,21.5434355 1.21745731,22.9019198 0.854041746,24.7770296 L0.564402277,25.965536 L0.552106262,26.0284412 C0.481062619,26.4152411 0.470132827,26.8100715 0.519316888,27.2156092 L0.724250474,28.7454097 L0.284326376,28.7454097 C0.0110815939,28.7454097 -0.211612903,28.5272492 -0.211612903,28.2595675 L-0.211612903,25.2762558 C0.143605313,25.0741562 0.384060721,24.7020787 0.384060721,24.2697729 L0.384060721,7.06319796 C0.384060721,6.41808524 -0.148766603,5.89610607 -0.808652751,5.89610607 C-1.46580645,5.89610607 -2,6.41808524 -2,7.06319796 L-2,24.2697729 C-2,24.7020787 -1.75817837,25.0741562 -1.40296015,25.2762558 L-1.40296015,28.2595675 C-1.40296015,29.1723619 -0.64743833,29.9125016 0.284326376,29.9125016 L0.884098672,29.9125016 L0.960607211,30.4973859 C1.20516129,32.4942909 2.93343454,34 4.98550285,34 L27.0418216,34 C29.0938899,34 30.8262619,32.4942909 31.0639848,30.5121084 L31.1459583,29.9125016 L31.7143074,29.9125016 C32.6460721,29.9125016 33.4029602,29.1723619 33.4029602,28.2595675 L33.4029602,25.2762558 C33.7568121,25.0741562 34,24.7020787 34,24.2697729 L34,7.06319796 C34,6.41808524 33.4644402,5.89610607 32.8072865,5.89610607 Z" id="Wireless_right" fill="#636569" transform="translate(16.000000, 18.000000) rotate(-270.000000) translate(-16.000000, -18.000000) "></path>
    </g>
</svg>