<?xml version="1.0" encoding="UTF-8" standalone="no"?>
<svg width="43px" height="49px" viewBox="0 0 43 49" version="1.1" xmlns="http://www.w3.org/2000/svg" xmlns:xlink="http://www.w3.org/1999/xlink">
    <!-- Generator: Sketch 50.2 (55047) - http://www.bohemiancoding.com/sketch -->
    <title>Wireless_left</title>
    <desc>Created with Sketch.</desc>
    <defs></defs>
    <g id="Page-1" stroke="none" stroke-width="1" fill="none" fill-rule="evenodd">
        <path d="M36.5291461,42.8616421 L26.297723,42.8616421 C25.6580266,42.0667113 24.6594307,41.5523443 23.5381025,41.5523443 L19.4581784,41.5523443 C18.3387097,41.5523443 17.3401139,42.0667113 16.7004175,42.8616421 L6.50804554,42.8616421 C5.49829222,42.8616421 4.62800759,42.2159856 4.33605313,41.2933623 L5.2658444,41.2933623 C6.16402277,41.2933623 6.89111954,40.5919528 6.89111954,39.7250826 C6.89111954,38.8564139 6.16402277,38.1550044 5.2658444,38.1550044 L3.87487666,38.1550044 L3.70379507,36.9032582 L10.6679317,36.9032582 L10.6679317,38.2862939 C10.6679317,39.485884 11.6572296,40.4606633 12.8864137,40.5020285 C13.1672106,40.9732318 13.6878937,41.2933623 14.2885389,41.2933623 L14.3331689,41.2933623 C15.2313472,41.2933623 15.936129,40.5919528 15.936129,39.7250826 C15.936129,38.8564139 15.1848577,38.1550044 14.2885389,38.1550044 C13.6971917,38.1550044 13.1820873,38.4679409 12.9012903,38.9265549 C12.5572676,38.8941821 12.2913472,38.6244092 12.2913472,38.2862939 L12.2913472,36.9032582 L30.7067932,36.9032582 L30.7067932,38.2862939 C30.7067932,38.6244092 30.4390133,38.8941821 30.1005693,38.9265549 C29.8179127,38.4679409 29.3009488,38.1550044 28.7096015,38.1550044 L28.6649715,38.1550044 C27.7667932,38.1550044 27.0620114,38.8564139 27.0620114,39.7250826 C27.0620114,40.5919528 27.8132827,41.2933623 28.7096015,41.2933623 C29.3102467,41.2933623 29.8290702,40.9732318 30.1117268,40.5020285 C31.3427704,40.4606633 32.3302087,39.485884 32.3302087,38.2862939 L32.3302087,36.9032582 L39.3371157,36.9032582 L39.1660342,38.1550044 L37.7304364,38.1550044 C36.8341176,38.1550044 36.1088805,38.8564139 36.1088805,39.7250826 C36.1088805,40.5919528 36.8341176,41.2933623 37.7304364,41.2933623 L38.7048577,41.2933623 C38.4222011,42.2087917 37.5481973,42.8616421 36.5291461,42.8616421 Z M4.051537,34.2918566 L4.07013283,34.2073278 C4.26352941,33.160609 5.20447818,32.4016479 6.30535104,32.4016479 L9.85529412,32.4016479 L9.85529412,32.9250073 C9.85529412,33.5059183 10.1844402,34.0058974 10.6679317,34.2774687 L10.6679317,35.33318 L3.79491461,35.33318 L4.051537,34.2918566 Z M29.8997343,32.4016479 L29.8997343,32.9250073 C29.8997343,33.5059183 30.2233017,34.0058974 30.7067932,34.2774687 L30.7067932,35.33318 L12.2913472,35.33318 L12.2913472,34.2774687 C12.7729791,34.0058974 13.1002657,33.5059183 13.1002657,32.9250073 L13.1002657,32.4016479 L29.8997343,32.4016479 Z M36.7337002,32.4016479 C37.8345731,32.4016479 38.7736622,33.160609 38.9689184,34.2073278 L39.2459962,35.33318 L32.3302087,35.33318 L32.3302087,34.2774687 C32.8155598,34.0058974 33.1447059,33.5059183 33.1447059,32.9250073 L33.1447059,32.4016479 L36.7337002,32.4016479 Z M44.3765844,8.23539253 C43.4784061,8.23539253 42.7550285,8.93680204 42.7550285,9.80367226 L42.7550285,32.9250073 C42.7550285,33.5059183 43.0804554,34.0058974 43.5639469,34.2774687 L43.5639469,38.2862939 C43.5639469,38.645991 43.2608349,38.9391443 42.8889184,38.9391443 L42.3291841,38.9391443 L42.6137002,36.8600945 C42.6806452,36.3367351 42.6620493,35.8079803 42.565351,35.2882178 L42.1543833,33.6066335 C41.6634535,31.0869547 39.3910436,29.2614915 36.7337002,29.2614915 L33.1447059,29.2614915 L33.1447059,4.57007821 C33.1447059,3.703208 32.4157495,3 31.5212903,3 C30.6212524,3 29.8997343,3.703208 29.8997343,4.57007821 L29.8997343,29.2614915 L13.1002657,29.2614915 L13.1002657,4.57007821 C13.1002657,3.703208 12.376888,3 11.4768501,3 C10.5823909,3 9.85529412,3.703208 9.85529412,4.57007821 L9.85529412,29.2614915 L6.30535104,29.2614915 C3.64986717,29.2614915 1.37931689,31.0869547 0.884667932,33.6066335 L0.490436433,35.203689 L0.47370019,35.2882178 C0.377001898,35.8079803 0.362125237,36.3385336 0.429070209,36.8834748 L0.70800759,38.9391443 L0.109222011,38.9391443 C-0.262694497,38.9391443 -0.565806452,38.645991 -0.565806452,38.2862939 L-0.565806452,34.2774687 C-0.0823149905,34.0058974 0.244971537,33.5059183 0.244971537,32.9250073 L0.244971537,9.80367226 C0.244971537,8.93680204 -0.480265655,8.23539253 -1.37844402,8.23539253 C-2.27290323,8.23539253 -3,8.93680204 -3,9.80367226 L-3,32.9250073 C-3,33.5059183 -2.67085389,34.0058974 -2.18736243,34.2774687 L-2.18736243,38.2862939 C-2.18736243,39.5128613 -1.15901328,40.507424 0.109222011,40.507424 L0.925578748,40.507424 L1.02971537,41.2933623 C1.36258065,43.9767033 3.71495256,46 6.50804554,46 L36.5291461,46 C39.3222391,46 41.6801898,43.9767033 42.0037571,41.3131457 L42.1153321,40.507424 L42.8889184,40.507424 C44.1571537,40.507424 45.1873624,39.5128613 45.1873624,38.2862939 L45.1873624,34.2774687 C45.6689943,34.0058974 46,33.5059183 46,32.9250073 L46,9.80367226 C46,8.93680204 45.2710436,8.23539253 44.3765844,8.23539253 Z" id="Wireless_left" fill="#636569" transform="translate(21.500000, 24.500000) rotate(-90.000000) translate(-21.500000, -24.500000) "></path>
    </g>
</svg>