<?xml version="1.0" encoding="UTF-8" standalone="no"?>
<!DOCTYPE svg PUBLIC "-//W3C//DTD SVG 1.1//EN" "http://www.w3.org/Graphics/SVG/1.1/DTD/svg11.dtd">
<svg width="100%" height="100%" viewBox="0 0 109 12" version="1.1" xmlns="http://www.w3.org/2000/svg" xmlns:xlink="http://www.w3.org/1999/xlink" xml:space="preserve" xmlns:serif="http://www.serif.com/" style="fill-rule:evenodd;clip-rule:evenodd;stroke-linejoin:round;stroke-miterlimit:1.41421;">
    <g transform="matrix(1,0,0,1,-591,-782)">
        <g transform="matrix(1,0,0,1,26,28)">
            <g transform="matrix(1,0,0,1,565,765)">
                <g id="_2x40G-Stack-link" serif:id="2x40G-Stack-link">
                    <path d="M7.812,-0.742C7.812,-0.247 7.532,0 6.972,0L1.652,0C1.409,0 1.218,-0.072 1.078,-0.217C0.938,-0.362 0.868,-0.541 0.868,-0.756C0.868,-1.036 0.975,-1.288 1.19,-1.512L4.382,-4.942C4.774,-5.371 5.061,-5.766 5.243,-6.125C5.425,-6.484 5.516,-6.841 5.516,-7.196C5.516,-7.635 5.39,-7.971 5.138,-8.204C4.886,-8.437 4.527,-8.554 4.06,-8.554C3.677,-8.554 3.306,-8.482 2.947,-8.337C2.588,-8.192 2.226,-7.994 1.862,-7.742C1.769,-7.677 1.675,-7.623 1.582,-7.581C1.489,-7.539 1.395,-7.518 1.302,-7.518C1.143,-7.518 1.006,-7.593 0.889,-7.742C0.772,-7.891 0.714,-8.069 0.714,-8.274C0.714,-8.414 0.74,-8.535 0.791,-8.638C0.842,-8.741 0.924,-8.839 1.036,-8.932C1.447,-9.259 1.927,-9.518 2.478,-9.709C3.029,-9.9 3.579,-9.996 4.13,-9.996C5.091,-9.996 5.859,-9.753 6.433,-9.268C7.007,-8.783 7.294,-8.129 7.294,-7.308C7.294,-6.739 7.173,-6.204 6.93,-5.705C6.687,-5.206 6.277,-4.648 5.698,-4.032L3.276,-1.456L6.972,-1.456C7.532,-1.456 7.812,-1.218 7.812,-0.742Z" style="fill:rgb(74,74,74);fill-rule:nonzero;"/>
                    <path d="M15.512,-0.714C15.512,-0.509 15.433,-0.324 15.274,-0.161C15.115,0.002 14.929,0.084 14.714,0.084C14.481,0.084 14.28,-0.014 14.112,-0.21L12.138,-2.394L10.164,-0.21C9.987,-0.023 9.786,0.07 9.562,0.07C9.357,0.07 9.175,-0.009 9.016,-0.168C8.857,-0.327 8.778,-0.509 8.778,-0.714C8.778,-0.929 8.862,-1.12 9.03,-1.288L11.074,-3.514L9.142,-5.614C8.974,-5.782 8.89,-5.973 8.89,-6.188C8.89,-6.403 8.969,-6.587 9.128,-6.741C9.287,-6.895 9.469,-6.972 9.674,-6.972C9.898,-6.972 10.099,-6.879 10.276,-6.692L12.138,-4.648L14,-6.692C14.177,-6.879 14.378,-6.972 14.602,-6.972C14.817,-6.972 15.001,-6.895 15.155,-6.741C15.309,-6.587 15.386,-6.403 15.386,-6.188C15.386,-5.973 15.302,-5.782 15.134,-5.614L13.202,-3.514L15.26,-1.288C15.428,-1.12 15.512,-0.929 15.512,-0.714Z" style="fill:rgb(74,74,74);fill-rule:nonzero;"/>
                    <path d="M23.842,-3.15C23.982,-3.029 24.052,-2.856 24.052,-2.632C24.052,-2.165 23.772,-1.932 23.212,-1.932L22.498,-1.932L22.498,-0.826C22.498,-0.537 22.416,-0.313 22.253,-0.154C22.09,0.005 21.877,0.084 21.616,0.084C21.355,0.084 21.142,0.005 20.979,-0.154C20.816,-0.313 20.734,-0.537 20.734,-0.826L20.734,-1.932L17.066,-1.932C16.814,-1.932 16.618,-2.004 16.478,-2.149C16.338,-2.294 16.268,-2.473 16.268,-2.688C16.268,-2.912 16.343,-3.127 16.492,-3.332L20.818,-9.548C20.911,-9.679 21.028,-9.779 21.168,-9.849C21.308,-9.919 21.453,-9.954 21.602,-9.954C21.845,-9.954 22.055,-9.875 22.232,-9.716C22.409,-9.557 22.498,-9.333 22.498,-9.044L22.498,-3.332L23.212,-3.332C23.492,-3.332 23.702,-3.271 23.842,-3.15ZM18.13,-3.332L20.734,-3.332L20.734,-7.098L18.13,-3.332Z" style="fill:rgb(74,74,74);fill-rule:nonzero;"/>
                    <path d="M25.788,-1.169C25.172,-2.032 24.864,-3.29 24.864,-4.942C24.864,-6.585 25.172,-7.838 25.788,-8.701C26.404,-9.564 27.295,-9.996 28.462,-9.996C29.629,-9.996 30.52,-9.564 31.136,-8.701C31.752,-7.838 32.06,-6.585 32.06,-4.942C32.06,-3.299 31.752,-2.044 31.136,-1.176C30.52,-0.308 29.629,0.126 28.462,0.126C27.295,0.126 26.404,-0.306 25.788,-1.169ZM29.848,-2.163C30.137,-2.746 30.282,-3.673 30.282,-4.942C30.282,-6.221 30.137,-7.147 29.848,-7.721C29.559,-8.295 29.097,-8.582 28.462,-8.582C27.827,-8.582 27.365,-8.293 27.076,-7.714C26.787,-7.135 26.642,-6.211 26.642,-4.942C26.642,-3.673 26.787,-2.746 27.076,-2.163C27.365,-1.58 27.827,-1.288 28.462,-1.288C29.097,-1.288 29.559,-1.58 29.848,-2.163Z" style="fill:rgb(74,74,74);fill-rule:nonzero;"/>
                    <path d="M41.762,-5.145C41.893,-5.019 41.958,-4.853 41.958,-4.648L41.958,-1.638C41.958,-1.209 41.902,-0.905 41.79,-0.728C41.678,-0.551 41.449,-0.406 41.104,-0.294C40.731,-0.163 40.297,-0.061 39.802,0.014C39.307,0.089 38.831,0.126 38.374,0.126C37.357,0.126 36.475,-0.075 35.728,-0.476C34.981,-0.877 34.41,-1.458 34.013,-2.219C33.616,-2.98 33.418,-3.887 33.418,-4.942C33.418,-5.978 33.616,-6.876 34.013,-7.637C34.41,-8.398 34.972,-8.981 35.7,-9.387C36.428,-9.793 37.287,-9.996 38.276,-9.996C39.592,-9.996 40.67,-9.641 41.51,-8.932C41.622,-8.829 41.704,-8.727 41.755,-8.624C41.806,-8.521 41.832,-8.4 41.832,-8.26C41.832,-8.055 41.776,-7.882 41.664,-7.742C41.552,-7.602 41.417,-7.532 41.258,-7.532C41.155,-7.532 41.062,-7.548 40.978,-7.581C40.894,-7.614 40.796,-7.667 40.684,-7.742C40.273,-8.031 39.891,-8.234 39.536,-8.351C39.181,-8.468 38.78,-8.526 38.332,-8.526C37.315,-8.526 36.547,-8.225 36.029,-7.623C35.511,-7.021 35.252,-6.127 35.252,-4.942C35.252,-2.515 36.316,-1.302 38.444,-1.302C39.079,-1.302 39.713,-1.391 40.348,-1.568L40.348,-4.046L38.766,-4.046C38.542,-4.046 38.367,-4.102 38.241,-4.214C38.115,-4.326 38.052,-4.485 38.052,-4.69C38.052,-4.895 38.115,-5.054 38.241,-5.166C38.367,-5.278 38.542,-5.334 38.766,-5.334L41.244,-5.334C41.459,-5.334 41.631,-5.271 41.762,-5.145Z" style="fill:rgb(74,74,74);fill-rule:nonzero;"/>
                    <path d="M49.161,-0.161C48.522,-0.352 48.001,-0.611 47.6,-0.938C47.385,-1.097 47.278,-1.321 47.278,-1.61C47.278,-1.806 47.336,-1.976 47.453,-2.121C47.57,-2.266 47.707,-2.338 47.866,-2.338C48.034,-2.338 48.225,-2.273 48.44,-2.142C48.841,-1.853 49.261,-1.643 49.7,-1.512C50.139,-1.381 50.624,-1.316 51.156,-1.316C51.837,-1.316 52.36,-1.435 52.724,-1.673C53.088,-1.911 53.27,-2.259 53.27,-2.716C53.27,-3.071 53.1,-3.344 52.759,-3.535C52.418,-3.726 51.851,-3.911 51.058,-4.088C50.237,-4.265 49.569,-4.471 49.056,-4.704C48.543,-4.937 48.155,-5.236 47.894,-5.6C47.633,-5.964 47.502,-6.426 47.502,-6.986C47.502,-7.565 47.665,-8.083 47.992,-8.54C48.319,-8.997 48.774,-9.354 49.357,-9.611C49.94,-9.868 50.596,-9.996 51.324,-9.996C52.659,-9.996 53.746,-9.641 54.586,-8.932C54.707,-8.829 54.794,-8.729 54.845,-8.631C54.896,-8.533 54.922,-8.409 54.922,-8.26C54.922,-8.064 54.864,-7.894 54.747,-7.749C54.63,-7.604 54.493,-7.532 54.334,-7.532C54.241,-7.532 54.154,-7.546 54.075,-7.574C53.996,-7.602 53.891,-7.653 53.76,-7.728C53.377,-8.008 53.006,-8.216 52.647,-8.351C52.288,-8.486 51.847,-8.554 51.324,-8.554C50.689,-8.554 50.188,-8.426 49.819,-8.169C49.45,-7.912 49.266,-7.555 49.266,-7.098C49.266,-6.715 49.429,-6.421 49.756,-6.216C50.083,-6.011 50.638,-5.819 51.422,-5.642C52.253,-5.455 52.927,-5.248 53.445,-5.019C53.963,-4.79 54.36,-4.499 54.635,-4.144C54.91,-3.789 55.048,-3.346 55.048,-2.814C55.048,-2.235 54.887,-1.724 54.565,-1.281C54.243,-0.838 53.79,-0.492 53.207,-0.245C52.624,0.002 51.954,0.126 51.198,0.126C50.479,0.126 49.8,0.03 49.161,-0.161Z" style="fill:rgb(74,74,74);fill-rule:nonzero;"/>
                    <path d="M60.718,-0.588C60.718,-0.364 60.627,-0.194 60.445,-0.077C60.263,0.04 60.004,0.089 59.668,0.07L59.29,0.042C57.722,-0.07 56.938,-0.91 56.938,-2.478L56.938,-5.53L56.238,-5.53C55.986,-5.53 55.792,-5.586 55.657,-5.698C55.522,-5.81 55.454,-5.973 55.454,-6.188C55.454,-6.403 55.522,-6.566 55.657,-6.678C55.792,-6.79 55.986,-6.846 56.238,-6.846L56.938,-6.846L56.938,-8.134C56.938,-8.386 57.017,-8.587 57.176,-8.736C57.335,-8.885 57.549,-8.96 57.82,-8.96C58.081,-8.96 58.291,-8.885 58.45,-8.736C58.609,-8.587 58.688,-8.386 58.688,-8.134L58.688,-6.846L59.878,-6.846C60.13,-6.846 60.324,-6.79 60.459,-6.678C60.594,-6.566 60.662,-6.403 60.662,-6.188C60.662,-5.973 60.594,-5.81 60.459,-5.698C60.324,-5.586 60.13,-5.53 59.878,-5.53L58.688,-5.53L58.688,-2.352C58.688,-1.661 59.005,-1.293 59.64,-1.246L60.018,-1.218C60.485,-1.19 60.718,-0.98 60.718,-0.588Z" style="fill:rgb(74,74,74);fill-rule:nonzero;"/>
                    <path d="M66.717,-6.307C67.179,-5.836 67.41,-5.119 67.41,-4.158L67.41,-0.742C67.41,-0.49 67.335,-0.292 67.186,-0.147C67.037,-0.002 66.831,0.07 66.57,0.07C66.327,0.07 66.129,-0.005 65.975,-0.154C65.821,-0.303 65.744,-0.499 65.744,-0.742L65.744,-1.05C65.585,-0.686 65.336,-0.401 64.995,-0.196C64.654,0.009 64.26,0.112 63.812,0.112C63.355,0.112 62.939,0.019 62.566,-0.168C62.193,-0.355 61.899,-0.611 61.684,-0.938C61.469,-1.265 61.362,-1.629 61.362,-2.03C61.362,-2.534 61.49,-2.931 61.747,-3.22C62.004,-3.509 62.421,-3.719 63,-3.85C63.579,-3.981 64.377,-4.046 65.394,-4.046L65.744,-4.046L65.744,-4.368C65.744,-4.825 65.646,-5.159 65.45,-5.369C65.254,-5.579 64.937,-5.684 64.498,-5.684C64.227,-5.684 63.952,-5.644 63.672,-5.565C63.392,-5.486 63.061,-5.371 62.678,-5.222C62.435,-5.101 62.258,-5.04 62.146,-5.04C61.978,-5.04 61.84,-5.101 61.733,-5.222C61.626,-5.343 61.572,-5.502 61.572,-5.698C61.572,-5.857 61.612,-5.994 61.691,-6.111C61.77,-6.228 61.903,-6.337 62.09,-6.44C62.417,-6.617 62.806,-6.757 63.259,-6.86C63.712,-6.963 64.157,-7.014 64.596,-7.014C65.548,-7.014 66.255,-6.778 66.717,-6.307ZM65.303,-1.617C65.597,-1.93 65.744,-2.333 65.744,-2.828L65.744,-3.122L65.492,-3.122C64.867,-3.122 64.381,-3.094 64.036,-3.038C63.691,-2.982 63.443,-2.884 63.294,-2.744C63.145,-2.604 63.07,-2.413 63.07,-2.17C63.07,-1.871 63.175,-1.626 63.385,-1.435C63.595,-1.244 63.854,-1.148 64.162,-1.148C64.629,-1.148 65.009,-1.304 65.303,-1.617Z" style="fill:rgb(74,74,74);fill-rule:nonzero;"/>
                    <path d="M70.427,-0.322C69.909,-0.611 69.51,-1.022 69.23,-1.554C68.95,-2.086 68.81,-2.707 68.81,-3.416C68.81,-4.125 68.957,-4.753 69.251,-5.299C69.545,-5.845 69.958,-6.267 70.49,-6.566C71.022,-6.865 71.633,-7.014 72.324,-7.014C72.688,-7.014 73.054,-6.963 73.423,-6.86C73.792,-6.757 74.116,-6.617 74.396,-6.44C74.695,-6.244 74.844,-5.997 74.844,-5.698C74.844,-5.493 74.795,-5.327 74.697,-5.201C74.599,-5.075 74.471,-5.012 74.312,-5.012C74.209,-5.012 74.102,-5.035 73.99,-5.082C73.878,-5.129 73.766,-5.185 73.654,-5.25C73.449,-5.371 73.253,-5.467 73.066,-5.537C72.879,-5.607 72.665,-5.642 72.422,-5.642C71.843,-5.642 71.398,-5.453 71.085,-5.075C70.772,-4.697 70.616,-4.153 70.616,-3.444C70.616,-2.744 70.772,-2.205 71.085,-1.827C71.398,-1.449 71.843,-1.26 72.422,-1.26C72.655,-1.26 72.863,-1.295 73.045,-1.365C73.227,-1.435 73.43,-1.531 73.654,-1.652C73.794,-1.736 73.915,-1.799 74.018,-1.841C74.121,-1.883 74.223,-1.904 74.326,-1.904C74.475,-1.904 74.601,-1.839 74.704,-1.708C74.807,-1.577 74.858,-1.414 74.858,-1.218C74.858,-1.059 74.823,-0.922 74.753,-0.805C74.683,-0.688 74.569,-0.583 74.41,-0.49C74.121,-0.303 73.785,-0.156 73.402,-0.049C73.019,0.058 72.627,0.112 72.226,0.112C71.545,0.112 70.945,-0.033 70.427,-0.322Z" style="fill:rgb(74,74,74);fill-rule:nonzero;"/>
                    <path d="M82.39,-0.756C82.39,-0.541 82.313,-0.35 82.159,-0.182C82.005,-0.014 81.825,0.07 81.62,0.07C81.415,0.07 81.223,-0.014 81.046,-0.182L77.77,-3.15L77.77,-0.756C77.77,-0.485 77.686,-0.28 77.518,-0.14C77.35,0 77.14,0.07 76.888,0.07C76.636,0.07 76.428,0 76.265,-0.14C76.102,-0.28 76.02,-0.485 76.02,-0.756L76.02,-9.114C76.02,-9.385 76.102,-9.59 76.265,-9.73C76.428,-9.87 76.636,-9.94 76.888,-9.94C77.14,-9.94 77.35,-9.87 77.518,-9.73C77.686,-9.59 77.77,-9.385 77.77,-9.114L77.77,-3.85L80.766,-6.72C80.934,-6.888 81.125,-6.972 81.34,-6.972C81.555,-6.972 81.741,-6.893 81.9,-6.734C82.059,-6.575 82.138,-6.389 82.138,-6.174C82.138,-5.959 82.049,-5.763 81.872,-5.586L79.674,-3.542L82.11,-1.358C82.297,-1.181 82.39,-0.98 82.39,-0.756Z" style="fill:rgb(74,74,74);fill-rule:nonzero;"/>
                    <path d="M87.563,-0.133C87.4,-0.278 87.318,-0.485 87.318,-0.756L87.318,-9.114C87.318,-9.385 87.4,-9.59 87.563,-9.73C87.726,-9.87 87.934,-9.94 88.186,-9.94C88.438,-9.94 88.648,-9.87 88.816,-9.73C88.984,-9.59 89.068,-9.385 89.068,-9.114L89.068,-0.756C89.068,-0.485 88.984,-0.278 88.816,-0.133C88.648,0.012 88.438,0.084 88.186,0.084C87.934,0.084 87.726,0.012 87.563,-0.133Z" style="fill:rgb(74,74,74);fill-rule:nonzero;"/>
                    <path d="M91.119,-0.133C90.956,-0.278 90.874,-0.485 90.874,-0.756L90.874,-6.16C90.874,-6.431 90.956,-6.636 91.119,-6.776C91.282,-6.916 91.49,-6.986 91.742,-6.986C91.994,-6.986 92.204,-6.916 92.372,-6.776C92.54,-6.636 92.624,-6.431 92.624,-6.16L92.624,-0.756C92.624,-0.485 92.54,-0.278 92.372,-0.133C92.204,0.012 91.994,0.084 91.742,0.084C91.49,0.084 91.282,0.012 91.119,-0.133ZM90.986,-8.491C90.799,-8.664 90.706,-8.89 90.706,-9.17C90.706,-9.45 90.799,-9.674 90.986,-9.842C91.173,-10.01 91.425,-10.094 91.742,-10.094C92.05,-10.094 92.3,-10.01 92.491,-9.842C92.682,-9.674 92.778,-9.45 92.778,-9.17C92.778,-8.89 92.685,-8.664 92.498,-8.491C92.311,-8.318 92.059,-8.232 91.742,-8.232C91.425,-8.232 91.173,-8.318 90.986,-8.491Z" style="fill:rgb(74,74,74);fill-rule:nonzero;"/>
                    <path d="M100.24,-6.314C100.641,-5.847 100.842,-5.143 100.842,-4.2L100.842,-0.756C100.842,-0.495 100.765,-0.289 100.611,-0.14C100.457,0.009 100.245,0.084 99.974,0.084C99.703,0.084 99.489,0.009 99.33,-0.14C99.171,-0.289 99.092,-0.495 99.092,-0.756L99.092,-4.102C99.092,-4.634 98.992,-5.021 98.791,-5.264C98.59,-5.507 98.275,-5.628 97.846,-5.628C97.342,-5.628 96.938,-5.469 96.635,-5.152C96.332,-4.835 96.18,-4.41 96.18,-3.878L96.18,-0.756C96.18,-0.495 96.101,-0.289 95.942,-0.14C95.783,0.009 95.569,0.084 95.298,0.084C95.027,0.084 94.815,0.009 94.661,-0.14C94.507,-0.289 94.43,-0.495 94.43,-0.756L94.43,-6.174C94.43,-6.417 94.509,-6.613 94.668,-6.762C94.827,-6.911 95.041,-6.986 95.312,-6.986C95.555,-6.986 95.753,-6.914 95.907,-6.769C96.061,-6.624 96.138,-6.435 96.138,-6.202L96.138,-5.824C96.371,-6.207 96.684,-6.501 97.076,-6.706C97.468,-6.911 97.911,-7.014 98.406,-7.014C99.227,-7.014 99.839,-6.781 100.24,-6.314Z" style="fill:rgb(74,74,74);fill-rule:nonzero;"/>
                    <path d="M108.99,-0.756C108.99,-0.541 108.913,-0.35 108.759,-0.182C108.605,-0.014 108.425,0.07 108.22,0.07C108.015,0.07 107.823,-0.014 107.646,-0.182L104.37,-3.15L104.37,-0.756C104.37,-0.485 104.286,-0.28 104.118,-0.14C103.95,0 103.74,0.07 103.488,0.07C103.236,0.07 103.028,0 102.865,-0.14C102.702,-0.28 102.62,-0.485 102.62,-0.756L102.62,-9.114C102.62,-9.385 102.702,-9.59 102.865,-9.73C103.028,-9.87 103.236,-9.94 103.488,-9.94C103.74,-9.94 103.95,-9.87 104.118,-9.73C104.286,-9.59 104.37,-9.385 104.37,-9.114L104.37,-3.85L107.366,-6.72C107.534,-6.888 107.725,-6.972 107.94,-6.972C108.155,-6.972 108.341,-6.893 108.5,-6.734C108.659,-6.575 108.738,-6.389 108.738,-6.174C108.738,-5.959 108.649,-5.763 108.472,-5.586L106.274,-3.542L108.71,-1.358C108.897,-1.181 108.99,-0.98 108.99,-0.756Z" style="fill:rgb(74,74,74);fill-rule:nonzero;"/>
                </g>
            </g>
        </g>
    </g>
</svg>
