<?xml version="1.0" encoding="UTF-8"?>
<svg width="207px" height="98px" viewBox="0 0 207 98" version="1.1" xmlns="http://www.w3.org/2000/svg" xmlns:xlink="http://www.w3.org/1999/xlink">
    <!-- Generator: Sketch 50 (54983) - http://www.bohemiancoding.com/sketch -->
    <title>NSA_or_SuperMassive</title>
    <desc>Created with Sketch.</desc>
    <defs></defs>
    <g id="Page-1" stroke="none" stroke-width="1" fill="none" fill-rule="evenodd">
        <g id="NSA_or_SuperMassive" fill="#636569">
            <path d="M56.6777138,60.8466333 C55.7699876,60.8466333 55.0285116,60.099488 55.0285116,59.1814709 C55.0285116,58.2634538 55.7699876,57.5196589 56.6777138,57.5196589 L156.128597,57.5196589 C157.042973,57.5196589 157.777799,58.2634538 157.777799,59.1814709 C157.777799,60.099488 157.042973,60.8466333 156.128597,60.8466333 L56.6777138,60.8466333 Z M57.7782903,55.6605068 C56.8672391,55.6605068 56.1290881,54.9167119 56.1290881,53.9953444 C56.1290881,53.0773273 56.8672391,52.3335324 57.7782903,52.3335324 L167.144337,52.3335324 C168.055388,52.3335324 168.793539,53.0773273 168.793539,53.9953444 C168.793539,54.9167119 168.055388,55.6605068 167.144337,55.6605068 L57.7782903,55.6605068 Z M67.6917911,45.2949546 C66.7840649,45.2949546 66.0425889,44.5478093 66.0425889,43.6297922 C66.0425889,42.7117751 66.7840649,41.9679803 67.6917911,41.9679803 L177.057838,41.9679803 C177.965564,41.9679803 178.710365,42.7117751 178.710365,43.6297922 C178.710365,44.5478093 177.965564,45.2949546 177.057838,45.2949546 L67.6917911,45.2949546 Z M78.7058684,40.1091632 C77.7948171,40.1091632 77.0566662,39.3653683 77.0566662,38.4473512 C77.0566662,37.5259837 77.7948171,36.7821888 78.7058684,36.7821888 L178.156752,36.7821888 C179.071128,36.7821888 179.809279,37.5259837 179.809279,38.4473512 C179.809279,39.3653683 179.071128,40.1091632 178.156752,40.1091632 L78.7058684,40.1091632 Z M61.0840097,50.4760555 C60.1729585,50.4760555 59.4348075,49.7322606 59.4348075,48.8142435 C59.4348075,47.892876 60.1729585,47.1524316 61.0840097,47.1524316 L173.751786,47.1524316 C174.662837,47.1524316 175.400988,47.892876 175.400988,48.8142435 C175.400988,49.7322606 174.662837,50.4760555 173.751786,50.4760555 L61.0840097,50.4760555 Z M147.212598,24.2991666 C145.031395,24.2991666 143.252517,22.4999871 143.252517,20.3054572 L143.252517,15.2362606 C143.252517,13.0417307 145.031395,11.2459016 147.212598,11.2459016 L172.758607,11.2459016 C174.93981,11.2459016 176.718687,13.0417307 176.718687,15.2362606 L176.718687,20.3054572 C176.718687,22.4999871 174.93981,24.2991666 172.758607,24.2991666 L147.212598,24.2991666 Z M53.4797245,89.0950914 L53.4797245,81.6638435 L64.3957142,81.6638435 L64.3957142,89.0950914 L53.4797245,89.0950914 Z M39.2653304,78.3402196 L39.2653304,70.9089717 L50.1813201,70.9089717 L50.1813201,78.3402196 L39.2653304,78.3402196 Z M53.4797245,78.3402196 L53.4797245,70.9089717 L64.3957142,70.9089717 L64.3957142,78.3402196 L53.4797245,78.3402196 Z M39.2653304,89.0950914 L39.2653304,81.6638435 L50.1813201,81.6638435 L50.1813201,89.0950914 L39.2653304,89.0950914 Z M101.600852,70.9093068 C103.782055,70.9093068 105.560932,72.7084863 105.560932,74.8996657 L105.560932,78.3405546 L96.1278943,78.3405546 L96.1278943,70.9093068 L101.600852,70.9093068 Z M67.6941186,78.3402196 L67.6941186,70.9089717 L78.6101082,70.9089717 L78.6101082,78.3402196 L67.6941186,78.3402196 Z M26.5252434,85.1077478 L26.5252434,81.6668589 L35.964931,81.6668589 L35.964931,89.0981068 L30.4853237,89.0981068 C28.3074457,89.0981068 26.5252434,87.3022777 26.5252434,85.1077478 Z M26.5252434,74.9010059 C26.5252434,72.706476 28.3074457,70.9106469 30.4853237,70.9106469 L35.964931,70.9106469 L35.964931,78.3418948 L26.5252434,78.3418948 L26.5252434,74.9010059 Z M96.1262317,89.0994469 L96.1262317,81.6681991 L105.565919,81.6681991 L105.565919,85.109088 C105.565919,87.3002675 103.783717,89.0994469 101.599189,89.0994469 L96.1262317,89.0994469 Z M81.9151627,89.0950914 L81.9151627,81.6638435 L92.8245023,81.6638435 L92.8245023,89.0950914 L81.9151627,89.0950914 Z M81.9151627,78.3402196 L81.9151627,70.9089717 L92.8245023,70.9089717 L92.8245023,78.3402196 L81.9151627,78.3402196 Z M67.6941186,89.0950914 L67.6941186,81.6638435 L78.6101082,81.6638435 L78.6101082,89.0950914 L67.6941186,89.0950914 Z M45.5825064,36.227023 C47.7637094,36.227023 49.5392617,38.0228521 49.5392617,40.2207324 L49.5392617,57.0834333 C49.5392617,59.2779632 47.7637094,61.0737922 45.5825064,61.0737922 L39.2117979,61.0737922 L39.2117979,56.9527666 L39.2117979,36.227023 L45.5825064,36.227023 Z M35.9094034,61.0737922 L29.5386949,61.0737922 C27.357492,61.0737922 25.5752896,59.2746128 25.5752896,57.0834333 L25.5752896,40.217382 C25.5752896,38.0195016 27.357492,36.227023 29.5386949,36.227023 L35.9094034,36.227023 L35.9094034,56.9494162 L35.9094034,61.0737922 Z" id="Combined-Shape"></path>
            <path d="M194.216836,34.5127521 L192.504458,34.5127521 L192.504458,27.8990085 L200.112069,27.8990085 L200.112069,28.5657436 C200.112069,31.8424615 197.46869,34.5127521 194.216836,34.5127521 Z M200.112069,69.1762735 L200.112069,69.6084786 L192.504458,69.6084786 L192.504458,63.2326154 L194.216836,63.2326154 C197.46869,63.2326154 200.112069,65.8962051 200.112069,69.1762735 Z M192.504458,81.3852308 L200.112069,81.3852308 L200.112069,72.9321026 L192.504458,72.9321026 L192.504458,81.3852308 Z M200.112069,85.1410598 C200.112069,88.4211282 197.46869,91.0880684 194.216836,91.0880684 L191.314107,91.0880684 C192.072208,89.7043419 192.504458,88.1229402 192.504458,86.4343248 L192.504458,84.7122051 L200.112069,84.7122051 L200.112069,85.1410598 Z M194.216836,6.65394872 C197.46869,6.65394872 200.112069,9.32088889 200.112069,12.5976068 L200.112069,12.7919316 L192.504458,12.7919316 L192.504458,11.3110427 C192.504458,9.62242735 192.072208,8.03767521 191.314107,6.65394872 L194.216836,6.65394872 Z M182.93177,92.7532308 L23.7870819,92.7532308 C20.3290773,92.7532308 17.5094735,89.9154188 17.5094735,86.4343248 L17.5094735,68.0873846 L189.209379,68.0873846 L189.209379,86.4343248 C189.209379,89.9154188 186.389775,92.7532308 182.93177,92.7532308 Z M14.2110691,11.3110427 L14.2110691,12.7919316 L6.60678387,12.7919316 L6.60678387,12.5976068 C6.60678387,9.32088889 9.25348742,6.65394872 12.5053418,6.65394872 L15.4080707,6.65394872 C14.6466447,8.03767521 14.2110691,9.62242735 14.2110691,11.3110427 Z M12.5053418,91.0880684 C9.25348742,91.0880684 6.60678387,88.4211282 6.60678387,85.1410598 L6.60678387,84.7122051 L14.2110691,84.7122051 L14.2110691,86.4343248 C14.2110691,88.1229402 14.6466447,89.7043419 15.4080707,91.0880684 L12.5053418,91.0880684 Z M6.60678387,81.3852308 L14.2110691,81.3852308 L14.2110691,72.9321026 L6.60678387,72.9321026 L6.60678387,81.3852308 Z M6.60678387,69.1762735 C6.60678387,65.8962051 9.25348742,63.2326154 12.5053418,63.2326154 L14.2110691,63.2326154 L14.2110691,69.6084786 L6.60678387,69.6084786 L6.60678387,69.1762735 Z M6.60678387,28.5657436 L6.60678387,27.8990085 L14.2110691,27.8990085 L14.2110691,34.5127521 L12.5053418,34.5127521 C9.25348742,34.5127521 6.60678387,31.8424615 6.60678387,28.5657436 Z M6.60678387,24.5686838 L14.2110691,24.5686838 L14.2110691,16.118906 L6.60678387,16.118906 L6.60678387,24.5686838 Z M17.5127985,64.7604103 L189.209379,64.7604103 L189.209379,33.366906 L17.5127985,33.366906 L17.5127985,64.7604103 Z M23.7870819,4.98878632 L182.93177,4.98878632 C186.389775,4.98878632 189.209379,7.82324786 189.209379,11.3110427 L189.209379,30.0365812 L17.5094735,30.0365812 L17.5094735,11.3110427 C17.5094735,7.82324786 20.3290773,4.98878632 23.7870819,4.98878632 Z M192.504458,24.5720342 L200.112069,24.5720342 L200.112069,16.1222564 L192.504458,16.1222564 L192.504458,24.5720342 Z M206.722177,28.5657436 L206.722177,12.5976068 C206.722177,5.65217094 201.10957,2.84217094e-14 194.216836,2.84217094e-14 L12.5053418,2.84217094e-14 C5.60595752,2.84217094e-14 0,5.65217094 0,12.5976068 L0,28.5657436 C0,34.8544957 4.60180618,40.0677607 10.5868142,41.0025299 L10.5868142,56.7394872 C4.60180618,57.6742564 0,62.8875214 0,69.1762735 L0,85.1410598 C0,92.0898462 5.60595752,97.7420171 12.5053418,97.7420171 L194.216836,97.7420171 C201.10957,97.7420171 206.722177,92.0898462 206.722177,85.1410598 L206.722177,69.1762735 C206.722177,62.8004103 201.994021,57.530188 195.889313,56.6992821 L195.889313,41.0393846 C201.994021,40.2118291 206.722177,34.9416068 206.722177,28.5657436 Z" id="Fill-127"></path>
        </g>
    </g>
</svg>