<?xml version="1.0" encoding="UTF-8" standalone="no"?>
<!DOCTYPE svg PUBLIC "-//W3C//DTD SVG 1.1//EN" "http://www.w3.org/Graphics/SVG/1.1/DTD/svg11.dtd">
<svg width="100%" height="100%" viewBox="0 0 195 99" version="1.1" xmlns="http://www.w3.org/2000/svg" xmlns:xlink="http://www.w3.org/1999/xlink" xml:space="preserve" xmlns:serif="http://www.serif.com/" style="fill-rule:evenodd;clip-rule:evenodd;stroke-linejoin:round;stroke-miterlimit:1.41421;">
    <g transform="matrix(1,0,0,1,-546,-34)">
        <g transform="matrix(1,0,0,1,26,28)">
            <g id="Redundant-firewall-s" serif:id="Redundant-firewall/s">
                <g transform="matrix(1,0,0,1,562.273,22)">
                    <path d="M14.344,-1.012C14.344,-0.675 14.208,-0.396 13.937,-0.176C13.666,0.044 13.347,0.154 12.98,0.154C12.745,0.154 12.522,0.099 12.309,-0.011C12.096,-0.121 11.917,-0.286 11.77,-0.506L8.844,-4.95C8.551,-5.419 8.239,-5.749 7.909,-5.94C7.579,-6.131 7.15,-6.226 6.622,-6.226L4.466,-6.226L4.466,-1.298C4.466,-0.858 4.341,-0.51 4.092,-0.253C3.843,0.004 3.505,0.132 3.08,0.132C2.655,0.132 2.314,0.004 2.057,-0.253C1.8,-0.51 1.672,-0.858 1.672,-1.298L1.672,-14.168C1.672,-14.593 1.793,-14.923 2.035,-15.158C2.277,-15.393 2.611,-15.51 3.036,-15.51L8.536,-15.51C10.296,-15.51 11.634,-15.118 12.551,-14.333C13.468,-13.548 13.926,-12.415 13.926,-10.934C13.926,-9.731 13.585,-8.745 12.903,-7.975C12.221,-7.205 11.257,-6.71 10.01,-6.49C10.435,-6.387 10.809,-6.204 11.132,-5.94C11.455,-5.676 11.77,-5.309 12.078,-4.84L14.08,-1.782C14.256,-1.518 14.344,-1.261 14.344,-1.012ZM10.494,-9.009C10.993,-9.412 11.242,-10.032 11.242,-10.868C11.242,-11.719 10.993,-12.338 10.494,-12.727C9.995,-13.116 9.211,-13.31 8.14,-13.31L4.444,-13.31L4.444,-8.404L8.14,-8.404C9.211,-8.404 9.995,-8.606 10.494,-9.009Z" style="fill:rgb(71,175,232);fill-rule:nonzero;"/>
                    <path d="M25.839,-2.662C25.993,-2.471 26.07,-2.215 26.07,-1.892C26.07,-1.437 25.799,-1.056 25.256,-0.748C24.757,-0.469 24.193,-0.246 23.562,-0.077C22.931,0.092 22.33,0.176 21.758,0.176C20.027,0.176 18.656,-0.323 17.644,-1.32C16.632,-2.317 16.126,-3.681 16.126,-5.412C16.126,-6.512 16.346,-7.487 16.786,-8.338C17.226,-9.189 17.846,-9.849 18.645,-10.318C19.444,-10.787 20.35,-11.022 21.362,-11.022C22.33,-11.022 23.173,-10.809 23.892,-10.384C24.611,-9.959 25.168,-9.357 25.564,-8.58C25.96,-7.803 26.158,-6.886 26.158,-5.83C26.158,-5.199 25.879,-4.884 25.322,-4.884L18.832,-4.884C18.92,-3.872 19.206,-3.128 19.69,-2.651C20.174,-2.174 20.878,-1.936 21.802,-1.936C22.271,-1.936 22.686,-1.995 23.045,-2.112C23.404,-2.229 23.811,-2.391 24.266,-2.596C24.706,-2.831 25.029,-2.948 25.234,-2.948C25.483,-2.948 25.685,-2.853 25.839,-2.662ZM19.635,-8.382C19.188,-7.913 18.92,-7.238 18.832,-6.358L23.804,-6.358C23.775,-7.253 23.555,-7.931 23.144,-8.393C22.733,-8.855 22.161,-9.086 21.428,-9.086C20.68,-9.086 20.082,-8.851 19.635,-8.382Z" style="fill:rgb(71,175,232);fill-rule:nonzero;"/>
                    <path d="M38.39,-15.268C38.654,-15.033 38.786,-14.725 38.786,-14.344L38.786,-1.188C38.786,-0.792 38.661,-0.477 38.412,-0.242C38.163,-0.007 37.833,0.11 37.422,0.11C37.011,0.11 36.681,-0.007 36.432,-0.242C36.183,-0.477 36.058,-0.792 36.058,-1.188L36.058,-1.738C35.735,-1.137 35.27,-0.667 34.661,-0.33C34.052,0.007 33.359,0.176 32.582,0.176C31.658,0.176 30.833,-0.059 30.107,-0.528C29.381,-0.997 28.816,-1.661 28.413,-2.519C28.01,-3.377 27.808,-4.363 27.808,-5.478C27.808,-6.593 28.01,-7.568 28.413,-8.404C28.816,-9.24 29.377,-9.885 30.096,-10.34C30.815,-10.795 31.643,-11.022 32.582,-11.022C33.359,-11.022 34.049,-10.861 34.65,-10.538C35.251,-10.215 35.713,-9.761 36.036,-9.174L36.036,-14.388C36.036,-14.755 36.157,-15.052 36.399,-15.279C36.641,-15.506 36.967,-15.62 37.378,-15.62C37.789,-15.62 38.126,-15.503 38.39,-15.268ZM35.343,-2.86C35.82,-3.461 36.058,-4.319 36.058,-5.434C36.058,-6.549 35.82,-7.403 35.343,-7.997C34.866,-8.591 34.195,-8.888 33.33,-8.888C32.45,-8.888 31.768,-8.595 31.284,-8.008C30.8,-7.421 30.558,-6.578 30.558,-5.478C30.558,-4.363 30.8,-3.498 31.284,-2.882C31.768,-2.266 32.443,-1.958 33.308,-1.958C34.188,-1.958 34.866,-2.259 35.343,-2.86Z" style="fill:rgb(71,175,232);fill-rule:nonzero;"/>
                    <path d="M51.128,-10.626C51.377,-10.391 51.502,-10.076 51.502,-9.68L51.502,-1.144C51.502,-0.763 51.374,-0.455 51.117,-0.22C50.86,0.015 50.527,0.132 50.116,0.132C49.72,0.132 49.405,0.022 49.17,-0.198C48.935,-0.418 48.818,-0.719 48.818,-1.1L48.818,-1.65C48.481,-1.063 48.026,-0.612 47.454,-0.297C46.882,0.018 46.237,0.176 45.518,0.176C42.878,0.176 41.558,-1.305 41.558,-4.268L41.558,-9.68C41.558,-10.076 41.683,-10.391 41.932,-10.626C42.181,-10.861 42.511,-10.978 42.922,-10.978C43.347,-10.978 43.685,-10.861 43.934,-10.626C44.183,-10.391 44.308,-10.076 44.308,-9.68L44.308,-4.246C44.308,-3.483 44.462,-2.919 44.77,-2.552C45.078,-2.185 45.562,-2.002 46.222,-2.002C46.985,-2.002 47.597,-2.255 48.059,-2.761C48.521,-3.267 48.752,-3.938 48.752,-4.774L48.752,-9.68C48.752,-10.076 48.877,-10.391 49.126,-10.626C49.375,-10.861 49.705,-10.978 50.116,-10.978C50.541,-10.978 50.879,-10.861 51.128,-10.626Z" style="fill:rgb(71,175,232);fill-rule:nonzero;"/>
                    <path d="M63.492,-9.922C64.123,-9.189 64.438,-8.081 64.438,-6.6L64.438,-1.188C64.438,-0.777 64.317,-0.455 64.075,-0.22C63.833,0.015 63.499,0.132 63.074,0.132C62.649,0.132 62.311,0.015 62.062,-0.22C61.813,-0.455 61.688,-0.777 61.688,-1.188L61.688,-6.446C61.688,-7.282 61.53,-7.891 61.215,-8.272C60.9,-8.653 60.405,-8.844 59.73,-8.844C58.938,-8.844 58.304,-8.595 57.827,-8.096C57.35,-7.597 57.112,-6.93 57.112,-6.094L57.112,-1.188C57.112,-0.777 56.987,-0.455 56.738,-0.22C56.489,0.015 56.151,0.132 55.726,0.132C55.301,0.132 54.967,0.015 54.725,-0.22C54.483,-0.455 54.362,-0.777 54.362,-1.188L54.362,-9.702C54.362,-10.083 54.487,-10.391 54.736,-10.626C54.985,-10.861 55.323,-10.978 55.748,-10.978C56.129,-10.978 56.441,-10.864 56.683,-10.637C56.925,-10.41 57.046,-10.113 57.046,-9.746L57.046,-9.152C57.413,-9.753 57.904,-10.215 58.52,-10.538C59.136,-10.861 59.833,-11.022 60.61,-11.022C61.901,-11.022 62.861,-10.655 63.492,-9.922Z" style="fill:rgb(71,175,232);fill-rule:nonzero;"/>
                    <path d="M77.22,-15.268C77.484,-15.033 77.616,-14.725 77.616,-14.344L77.616,-1.188C77.616,-0.792 77.491,-0.477 77.242,-0.242C76.993,-0.007 76.663,0.11 76.252,0.11C75.841,0.11 75.511,-0.007 75.262,-0.242C75.013,-0.477 74.888,-0.792 74.888,-1.188L74.888,-1.738C74.565,-1.137 74.1,-0.667 73.491,-0.33C72.882,0.007 72.189,0.176 71.412,0.176C70.488,0.176 69.663,-0.059 68.937,-0.528C68.211,-0.997 67.646,-1.661 67.243,-2.519C66.84,-3.377 66.638,-4.363 66.638,-5.478C66.638,-6.593 66.84,-7.568 67.243,-8.404C67.646,-9.24 68.207,-9.885 68.926,-10.34C69.645,-10.795 70.473,-11.022 71.412,-11.022C72.189,-11.022 72.879,-10.861 73.48,-10.538C74.081,-10.215 74.543,-9.761 74.866,-9.174L74.866,-14.388C74.866,-14.755 74.987,-15.052 75.229,-15.279C75.471,-15.506 75.797,-15.62 76.208,-15.62C76.619,-15.62 76.956,-15.503 77.22,-15.268ZM74.173,-2.86C74.65,-3.461 74.888,-4.319 74.888,-5.434C74.888,-6.549 74.65,-7.403 74.173,-7.997C73.696,-8.591 73.025,-8.888 72.16,-8.888C71.28,-8.888 70.598,-8.595 70.114,-8.008C69.63,-7.421 69.388,-6.578 69.388,-5.478C69.388,-4.363 69.63,-3.498 70.114,-2.882C70.598,-2.266 71.273,-1.958 72.138,-1.958C73.018,-1.958 73.696,-2.259 74.173,-2.86Z" style="fill:rgb(71,175,232);fill-rule:nonzero;"/>
                    <path d="M88.451,-9.911C89.177,-9.17 89.54,-8.045 89.54,-6.534L89.54,-1.166C89.54,-0.77 89.423,-0.458 89.188,-0.231C88.953,-0.004 88.631,0.11 88.22,0.11C87.839,0.11 87.527,-0.007 87.285,-0.242C87.043,-0.477 86.922,-0.785 86.922,-1.166L86.922,-1.65C86.673,-1.078 86.28,-0.631 85.745,-0.308C85.21,0.015 84.59,0.176 83.886,0.176C83.167,0.176 82.515,0.029 81.928,-0.264C81.341,-0.557 80.879,-0.961 80.542,-1.474C80.205,-1.987 80.036,-2.559 80.036,-3.19C80.036,-3.982 80.238,-4.605 80.641,-5.06C81.044,-5.515 81.701,-5.845 82.61,-6.05C83.519,-6.255 84.773,-6.358 86.372,-6.358L86.922,-6.358L86.922,-6.864C86.922,-7.583 86.768,-8.107 86.46,-8.437C86.152,-8.767 85.653,-8.932 84.964,-8.932C84.539,-8.932 84.106,-8.87 83.666,-8.745C83.226,-8.62 82.705,-8.441 82.104,-8.206C81.723,-8.015 81.444,-7.92 81.268,-7.92C81.004,-7.92 80.788,-8.015 80.619,-8.206C80.45,-8.397 80.366,-8.646 80.366,-8.954C80.366,-9.203 80.428,-9.42 80.553,-9.603C80.678,-9.786 80.887,-9.959 81.18,-10.12C81.693,-10.399 82.306,-10.619 83.017,-10.78C83.728,-10.941 84.429,-11.022 85.118,-11.022C86.614,-11.022 87.725,-10.652 88.451,-9.911ZM86.229,-2.541C86.691,-3.032 86.922,-3.667 86.922,-4.444L86.922,-4.906L86.526,-4.906C85.543,-4.906 84.781,-4.862 84.238,-4.774C83.695,-4.686 83.307,-4.532 83.072,-4.312C82.837,-4.092 82.72,-3.791 82.72,-3.41C82.72,-2.941 82.885,-2.556 83.215,-2.255C83.545,-1.954 83.952,-1.804 84.436,-1.804C85.169,-1.804 85.767,-2.05 86.229,-2.541Z" style="fill:rgb(71,175,232);fill-rule:nonzero;"/>
                    <path d="M101.464,-9.922C102.095,-9.189 102.41,-8.081 102.41,-6.6L102.41,-1.188C102.41,-0.777 102.289,-0.455 102.047,-0.22C101.805,0.015 101.471,0.132 101.046,0.132C100.621,0.132 100.283,0.015 100.034,-0.22C99.785,-0.455 99.66,-0.777 99.66,-1.188L99.66,-6.446C99.66,-7.282 99.502,-7.891 99.187,-8.272C98.872,-8.653 98.377,-8.844 97.702,-8.844C96.91,-8.844 96.276,-8.595 95.799,-8.096C95.322,-7.597 95.084,-6.93 95.084,-6.094L95.084,-1.188C95.084,-0.777 94.959,-0.455 94.71,-0.22C94.461,0.015 94.123,0.132 93.698,0.132C93.273,0.132 92.939,0.015 92.697,-0.22C92.455,-0.455 92.334,-0.777 92.334,-1.188L92.334,-9.702C92.334,-10.083 92.459,-10.391 92.708,-10.626C92.957,-10.861 93.295,-10.978 93.72,-10.978C94.101,-10.978 94.413,-10.864 94.655,-10.637C94.897,-10.41 95.018,-10.113 95.018,-9.746L95.018,-9.152C95.385,-9.753 95.876,-10.215 96.492,-10.538C97.108,-10.861 97.805,-11.022 98.582,-11.022C99.873,-11.022 100.833,-10.655 101.464,-9.922Z" style="fill:rgb(71,175,232);fill-rule:nonzero;"/>
                    <path d="M111.892,-0.924C111.892,-0.572 111.749,-0.304 111.463,-0.121C111.177,0.062 110.77,0.139 110.242,0.11L109.648,0.066C107.184,-0.11 105.952,-1.43 105.952,-3.894L105.952,-8.69L104.852,-8.69C104.456,-8.69 104.152,-8.778 103.939,-8.954C103.726,-9.13 103.62,-9.387 103.62,-9.724C103.62,-10.061 103.726,-10.318 103.939,-10.494C104.152,-10.67 104.456,-10.758 104.852,-10.758L105.952,-10.758L105.952,-12.782C105.952,-13.178 106.077,-13.493 106.326,-13.728C106.575,-13.963 106.913,-14.08 107.338,-14.08C107.749,-14.08 108.079,-13.963 108.328,-13.728C108.577,-13.493 108.702,-13.178 108.702,-12.782L108.702,-10.758L110.572,-10.758C110.968,-10.758 111.272,-10.67 111.485,-10.494C111.698,-10.318 111.804,-10.061 111.804,-9.724C111.804,-9.387 111.698,-9.13 111.485,-8.954C111.272,-8.778 110.968,-8.69 110.572,-8.69L108.702,-8.69L108.702,-3.696C108.702,-2.611 109.201,-2.031 110.198,-1.958L110.792,-1.914C111.525,-1.87 111.892,-1.54 111.892,-0.924Z" style="fill:rgb(71,175,232);fill-rule:nonzero;"/>
                </g>
                <g transform="matrix(1,0,0,1,543.639,48)">
                    <path d="M9.482,-13.343C9.189,-13.614 9.042,-13.97 9.042,-14.41C9.042,-14.85 9.189,-15.202 9.482,-15.466C9.775,-15.73 10.171,-15.862 10.67,-15.862C11.154,-15.862 11.546,-15.73 11.847,-15.466C12.148,-15.202 12.298,-14.85 12.298,-14.41C12.298,-13.97 12.148,-13.614 11.847,-13.343C11.546,-13.072 11.154,-12.936 10.67,-12.936C10.171,-12.936 9.775,-13.072 9.482,-13.343ZM12.034,-9.724L12.034,-1.188C12.034,-0.763 11.906,-0.436 11.649,-0.209C11.392,0.018 11.066,0.132 10.67,0.132C10.274,0.132 9.944,0.018 9.68,-0.209C9.416,-0.436 9.284,-0.763 9.284,-1.188L9.284,-8.69L4.928,-8.69L4.928,-1.188C4.928,-0.763 4.8,-0.44 4.543,-0.22C4.286,0 3.96,0.11 3.564,0.11C3.168,0.11 2.838,0 2.574,-0.22C2.31,-0.44 2.178,-0.763 2.178,-1.188L2.178,-8.69L1.078,-8.69C0.257,-8.69 -0.154,-9.035 -0.154,-9.724C-0.154,-10.413 0.257,-10.758 1.078,-10.758L2.178,-10.758L2.178,-10.868C2.178,-12.232 2.541,-13.314 3.267,-14.113C3.993,-14.912 5.016,-15.371 6.336,-15.488L6.842,-15.532C6.915,-15.547 7.025,-15.554 7.172,-15.554C7.949,-15.554 8.338,-15.224 8.338,-14.564C8.338,-14.241 8.25,-13.992 8.074,-13.816C7.898,-13.64 7.656,-13.537 7.348,-13.508L6.864,-13.464C6.189,-13.405 5.698,-13.196 5.39,-12.837C5.082,-12.478 4.928,-11.953 4.928,-11.264L4.928,-10.758L10.802,-10.758C11.623,-10.758 12.034,-10.413 12.034,-9.724Z" style="fill:rgb(71,175,232);fill-rule:nonzero;"/>
                    <path d="M21.802,-10.736C22.022,-10.545 22.132,-10.259 22.132,-9.878C22.132,-9.482 22.037,-9.189 21.846,-8.998C21.655,-8.807 21.311,-8.683 20.812,-8.624L20.152,-8.558C19.287,-8.47 18.652,-8.177 18.249,-7.678C17.846,-7.179 17.644,-6.556 17.644,-5.808L17.644,-1.188C17.644,-0.763 17.512,-0.436 17.248,-0.209C16.984,0.018 16.654,0.132 16.258,0.132C15.862,0.132 15.536,0.018 15.279,-0.209C15.022,-0.436 14.894,-0.763 14.894,-1.188L14.894,-9.702C14.894,-10.113 15.022,-10.428 15.279,-10.648C15.536,-10.868 15.855,-10.978 16.236,-10.978C16.617,-10.978 16.925,-10.872 17.16,-10.659C17.395,-10.446 17.512,-10.142 17.512,-9.746L17.512,-8.866C17.791,-9.511 18.205,-10.01 18.755,-10.362C19.305,-10.714 19.917,-10.912 20.592,-10.956L20.9,-10.978C21.281,-11.007 21.582,-10.927 21.802,-10.736Z" style="fill:rgb(71,175,232);fill-rule:nonzero;"/>
                    <path d="M32.219,-2.662C32.373,-2.471 32.45,-2.215 32.45,-1.892C32.45,-1.437 32.179,-1.056 31.636,-0.748C31.137,-0.469 30.573,-0.246 29.942,-0.077C29.311,0.092 28.71,0.176 28.138,0.176C26.407,0.176 25.036,-0.323 24.024,-1.32C23.012,-2.317 22.506,-3.681 22.506,-5.412C22.506,-6.512 22.726,-7.487 23.166,-8.338C23.606,-9.189 24.226,-9.849 25.025,-10.318C25.824,-10.787 26.73,-11.022 27.742,-11.022C28.71,-11.022 29.553,-10.809 30.272,-10.384C30.991,-9.959 31.548,-9.357 31.944,-8.58C32.34,-7.803 32.538,-6.886 32.538,-5.83C32.538,-5.199 32.259,-4.884 31.702,-4.884L25.212,-4.884C25.3,-3.872 25.586,-3.128 26.07,-2.651C26.554,-2.174 27.258,-1.936 28.182,-1.936C28.651,-1.936 29.066,-1.995 29.425,-2.112C29.784,-2.229 30.191,-2.391 30.646,-2.596C31.086,-2.831 31.409,-2.948 31.614,-2.948C31.863,-2.948 32.065,-2.853 32.219,-2.662ZM26.015,-8.382C25.568,-7.913 25.3,-7.238 25.212,-6.358L30.184,-6.358C30.155,-7.253 29.935,-7.931 29.524,-8.393C29.113,-8.855 28.541,-9.086 27.808,-9.086C27.06,-9.086 26.462,-8.851 26.015,-8.382Z" style="fill:rgb(71,175,232);fill-rule:nonzero;"/>
                    <path d="M49.599,-10.758C49.797,-10.89 50.013,-10.956 50.248,-10.956C50.585,-10.956 50.89,-10.842 51.161,-10.615C51.432,-10.388 51.568,-10.105 51.568,-9.768C51.568,-9.577 51.531,-9.409 51.458,-9.262L47.828,-0.748C47.711,-0.469 47.531,-0.257 47.289,-0.11C47.047,0.037 46.779,0.11 46.486,0.11C46.207,0.11 45.947,0.037 45.705,-0.11C45.463,-0.257 45.283,-0.469 45.166,-0.748L42.548,-7.04L40.018,-0.748C39.901,-0.469 39.721,-0.257 39.479,-0.11C39.237,0.037 38.969,0.11 38.676,0.11C38.397,0.11 38.133,0.037 37.884,-0.11C37.635,-0.257 37.451,-0.469 37.334,-0.748L33.726,-9.262C33.653,-9.453 33.616,-9.614 33.616,-9.746C33.616,-10.083 33.763,-10.373 34.056,-10.615C34.349,-10.857 34.672,-10.978 35.024,-10.978C35.273,-10.978 35.501,-10.912 35.706,-10.78C35.911,-10.648 36.065,-10.45 36.168,-10.186L38.764,-3.476L41.426,-10.12C41.543,-10.399 41.712,-10.608 41.932,-10.747C42.152,-10.886 42.394,-10.956 42.658,-10.956C42.922,-10.956 43.164,-10.886 43.384,-10.747C43.604,-10.608 43.773,-10.399 43.89,-10.12L46.574,-3.454L49.148,-10.164C49.251,-10.428 49.401,-10.626 49.599,-10.758Z" style="fill:rgb(71,175,232);fill-rule:nonzero;"/>
                    <path d="M61.281,-9.911C62.007,-9.17 62.37,-8.045 62.37,-6.534L62.37,-1.166C62.37,-0.77 62.253,-0.458 62.018,-0.231C61.783,-0.004 61.461,0.11 61.05,0.11C60.669,0.11 60.357,-0.007 60.115,-0.242C59.873,-0.477 59.752,-0.785 59.752,-1.166L59.752,-1.65C59.503,-1.078 59.11,-0.631 58.575,-0.308C58.04,0.015 57.42,0.176 56.716,0.176C55.997,0.176 55.345,0.029 54.758,-0.264C54.171,-0.557 53.709,-0.961 53.372,-1.474C53.035,-1.987 52.866,-2.559 52.866,-3.19C52.866,-3.982 53.068,-4.605 53.471,-5.06C53.874,-5.515 54.531,-5.845 55.44,-6.05C56.349,-6.255 57.603,-6.358 59.202,-6.358L59.752,-6.358L59.752,-6.864C59.752,-7.583 59.598,-8.107 59.29,-8.437C58.982,-8.767 58.483,-8.932 57.794,-8.932C57.369,-8.932 56.936,-8.87 56.496,-8.745C56.056,-8.62 55.535,-8.441 54.934,-8.206C54.553,-8.015 54.274,-7.92 54.098,-7.92C53.834,-7.92 53.618,-8.015 53.449,-8.206C53.28,-8.397 53.196,-8.646 53.196,-8.954C53.196,-9.203 53.258,-9.42 53.383,-9.603C53.508,-9.786 53.717,-9.959 54.01,-10.12C54.523,-10.399 55.136,-10.619 55.847,-10.78C56.558,-10.941 57.259,-11.022 57.948,-11.022C59.444,-11.022 60.555,-10.652 61.281,-9.911ZM59.059,-2.541C59.521,-3.032 59.752,-3.667 59.752,-4.444L59.752,-4.906L59.356,-4.906C58.373,-4.906 57.611,-4.862 57.068,-4.774C56.525,-4.686 56.137,-4.532 55.902,-4.312C55.667,-4.092 55.55,-3.791 55.55,-3.41C55.55,-2.941 55.715,-2.556 56.045,-2.255C56.375,-1.954 56.782,-1.804 57.266,-1.804C57.999,-1.804 58.597,-2.05 59.059,-2.541Z" style="fill:rgb(71,175,232);fill-rule:nonzero;"/>
                    <path d="M65.549,-0.209C65.292,-0.436 65.164,-0.763 65.164,-1.188L65.164,-14.322C65.164,-14.747 65.292,-15.07 65.549,-15.29C65.806,-15.51 66.132,-15.62 66.528,-15.62C66.924,-15.62 67.254,-15.51 67.518,-15.29C67.782,-15.07 67.914,-14.747 67.914,-14.322L67.914,-1.188C67.914,-0.763 67.782,-0.436 67.518,-0.209C67.254,0.018 66.924,0.132 66.528,0.132C66.132,0.132 65.806,0.018 65.549,-0.209Z" style="fill:rgb(71,175,232);fill-rule:nonzero;"/>
                    <path d="M71.137,-0.209C70.88,-0.436 70.752,-0.763 70.752,-1.188L70.752,-14.322C70.752,-14.747 70.88,-15.07 71.137,-15.29C71.394,-15.51 71.72,-15.62 72.116,-15.62C72.512,-15.62 72.842,-15.51 73.106,-15.29C73.37,-15.07 73.502,-14.747 73.502,-14.322L73.502,-1.188C73.502,-0.763 73.37,-0.436 73.106,-0.209C72.842,0.018 72.512,0.132 72.116,0.132C71.72,0.132 71.394,0.018 71.137,-0.209Z" style="fill:rgb(71,175,232);fill-rule:nonzero;"/>
                    <path d="M76.428,1.364C76.237,1.496 76.025,1.562 75.79,1.562C75.497,1.562 75.236,1.463 75.009,1.265C74.782,1.067 74.668,0.814 74.668,0.506C74.668,0.374 74.69,0.242 74.734,0.11L79.838,-15.884C79.926,-16.163 80.065,-16.368 80.256,-16.5C80.447,-16.632 80.659,-16.698 80.894,-16.698C81.187,-16.698 81.448,-16.599 81.675,-16.401C81.902,-16.203 82.016,-15.95 82.016,-15.642C82.016,-15.51 81.994,-15.378 81.95,-15.246L76.846,0.748C76.758,1.027 76.619,1.232 76.428,1.364Z" style="fill:rgb(71,175,232);fill-rule:nonzero;"/>
                    <path d="M81.928,-0.77C81.459,-1.049 81.224,-1.445 81.224,-1.958C81.224,-2.251 81.305,-2.49 81.466,-2.673C81.627,-2.856 81.825,-2.948 82.06,-2.948C82.309,-2.948 82.654,-2.831 83.094,-2.596C83.563,-2.376 83.992,-2.207 84.381,-2.09C84.77,-1.973 85.265,-1.914 85.866,-1.914C86.482,-1.914 86.962,-2.017 87.307,-2.222C87.652,-2.427 87.824,-2.713 87.824,-3.08C87.824,-3.329 87.754,-3.527 87.615,-3.674C87.476,-3.821 87.226,-3.956 86.867,-4.081C86.508,-4.206 85.961,-4.349 85.228,-4.51C83.923,-4.774 82.988,-5.148 82.423,-5.632C81.858,-6.116 81.576,-6.783 81.576,-7.634C81.576,-8.279 81.767,-8.862 82.148,-9.383C82.529,-9.904 83.054,-10.307 83.721,-10.593C84.388,-10.879 85.147,-11.022 85.998,-11.022C86.614,-11.022 87.208,-10.945 87.78,-10.791C88.352,-10.637 88.865,-10.413 89.32,-10.12C89.789,-9.827 90.024,-9.438 90.024,-8.954C90.024,-8.661 89.943,-8.415 89.782,-8.217C89.621,-8.019 89.423,-7.92 89.188,-7.92C89.027,-7.92 88.869,-7.953 88.715,-8.019C88.561,-8.085 88.367,-8.184 88.132,-8.316C87.707,-8.536 87.34,-8.701 87.032,-8.811C86.724,-8.921 86.343,-8.976 85.888,-8.976C85.345,-8.976 84.916,-8.866 84.601,-8.646C84.286,-8.426 84.128,-8.125 84.128,-7.744C84.128,-7.377 84.289,-7.099 84.612,-6.908C84.935,-6.717 85.558,-6.527 86.482,-6.336C87.465,-6.131 88.235,-5.896 88.792,-5.632C89.349,-5.368 89.749,-5.038 89.991,-4.642C90.233,-4.246 90.354,-3.74 90.354,-3.124C90.354,-2.127 89.94,-1.327 89.111,-0.726C88.282,-0.125 87.179,0.176 85.8,0.176C84.201,0.176 82.911,-0.139 81.928,-0.77Z" style="fill:rgb(71,175,232);fill-rule:nonzero;"/>
                    <path d="M107.415,-10.758C107.613,-10.89 107.829,-10.956 108.064,-10.956C108.401,-10.956 108.706,-10.842 108.977,-10.615C109.248,-10.388 109.384,-10.105 109.384,-9.768C109.384,-9.577 109.347,-9.409 109.274,-9.262L105.644,-0.748C105.527,-0.469 105.347,-0.257 105.105,-0.11C104.863,0.037 104.595,0.11 104.302,0.11C104.023,0.11 103.763,0.037 103.521,-0.11C103.279,-0.257 103.099,-0.469 102.982,-0.748L100.364,-7.04L97.834,-0.748C97.717,-0.469 97.537,-0.257 97.295,-0.11C97.053,0.037 96.785,0.11 96.492,0.11C96.213,0.11 95.949,0.037 95.7,-0.11C95.451,-0.257 95.267,-0.469 95.15,-0.748L91.542,-9.262C91.469,-9.453 91.432,-9.614 91.432,-9.746C91.432,-10.083 91.579,-10.373 91.872,-10.615C92.165,-10.857 92.488,-10.978 92.84,-10.978C93.089,-10.978 93.317,-10.912 93.522,-10.78C93.727,-10.648 93.881,-10.45 93.984,-10.186L96.58,-3.476L99.242,-10.12C99.359,-10.399 99.528,-10.608 99.748,-10.747C99.968,-10.886 100.21,-10.956 100.474,-10.956C100.738,-10.956 100.98,-10.886 101.2,-10.747C101.42,-10.608 101.589,-10.399 101.706,-10.12L104.39,-3.454L106.964,-10.164C107.067,-10.428 107.217,-10.626 107.415,-10.758Z" style="fill:rgb(71,175,232);fill-rule:nonzero;"/>
                    <path d="M111.639,-0.209C111.382,-0.436 111.254,-0.763 111.254,-1.188L111.254,-9.68C111.254,-10.105 111.382,-10.428 111.639,-10.648C111.896,-10.868 112.222,-10.978 112.618,-10.978C113.014,-10.978 113.344,-10.868 113.608,-10.648C113.872,-10.428 114.004,-10.105 114.004,-9.68L114.004,-1.188C114.004,-0.763 113.872,-0.436 113.608,-0.209C113.344,0.018 113.014,0.132 112.618,0.132C112.222,0.132 111.896,0.018 111.639,-0.209ZM111.43,-13.343C111.137,-13.614 110.99,-13.97 110.99,-14.41C110.99,-14.85 111.137,-15.202 111.43,-15.466C111.723,-15.73 112.119,-15.862 112.618,-15.862C113.102,-15.862 113.494,-15.73 113.795,-15.466C114.096,-15.202 114.246,-14.85 114.246,-14.41C114.246,-13.97 114.099,-13.614 113.806,-13.343C113.513,-13.072 113.117,-12.936 112.618,-12.936C112.119,-12.936 111.723,-13.072 111.43,-13.343Z" style="fill:rgb(71,175,232);fill-rule:nonzero;"/>
                    <path d="M123.53,-0.924C123.53,-0.572 123.387,-0.304 123.101,-0.121C122.815,0.062 122.408,0.139 121.88,0.11L121.286,0.066C118.822,-0.11 117.59,-1.43 117.59,-3.894L117.59,-8.69L116.49,-8.69C116.094,-8.69 115.79,-8.778 115.577,-8.954C115.364,-9.13 115.258,-9.387 115.258,-9.724C115.258,-10.061 115.364,-10.318 115.577,-10.494C115.79,-10.67 116.094,-10.758 116.49,-10.758L117.59,-10.758L117.59,-12.782C117.59,-13.178 117.715,-13.493 117.964,-13.728C118.213,-13.963 118.551,-14.08 118.976,-14.08C119.387,-14.08 119.717,-13.963 119.966,-13.728C120.215,-13.493 120.34,-13.178 120.34,-12.782L120.34,-10.758L122.21,-10.758C122.606,-10.758 122.91,-10.67 123.123,-10.494C123.336,-10.318 123.442,-10.061 123.442,-9.724C123.442,-9.387 123.336,-9.13 123.123,-8.954C122.91,-8.778 122.606,-8.69 122.21,-8.69L120.34,-8.69L120.34,-3.696C120.34,-2.611 120.839,-2.031 121.836,-1.958L122.43,-1.914C123.163,-1.87 123.53,-1.54 123.53,-0.924Z" style="fill:rgb(71,175,232);fill-rule:nonzero;"/>
                    <path d="M126.907,-0.506C126.093,-0.961 125.466,-1.606 125.026,-2.442C124.586,-3.278 124.366,-4.253 124.366,-5.368C124.366,-6.483 124.597,-7.469 125.059,-8.327C125.521,-9.185 126.17,-9.849 127.006,-10.318C127.842,-10.787 128.803,-11.022 129.888,-11.022C130.46,-11.022 131.036,-10.941 131.615,-10.78C132.194,-10.619 132.704,-10.399 133.144,-10.12C133.613,-9.812 133.848,-9.423 133.848,-8.954C133.848,-8.631 133.771,-8.371 133.617,-8.173C133.463,-7.975 133.261,-7.876 133.012,-7.876C132.851,-7.876 132.682,-7.913 132.506,-7.986C132.33,-8.059 132.154,-8.147 131.978,-8.25C131.655,-8.441 131.347,-8.591 131.054,-8.701C130.761,-8.811 130.423,-8.866 130.042,-8.866C129.133,-8.866 128.432,-8.569 127.941,-7.975C127.45,-7.381 127.204,-6.527 127.204,-5.412C127.204,-4.312 127.45,-3.465 127.941,-2.871C128.432,-2.277 129.133,-1.98 130.042,-1.98C130.409,-1.98 130.735,-2.035 131.021,-2.145C131.307,-2.255 131.626,-2.405 131.978,-2.596C132.198,-2.728 132.389,-2.827 132.55,-2.893C132.711,-2.959 132.873,-2.992 133.034,-2.992C133.269,-2.992 133.467,-2.889 133.628,-2.684C133.789,-2.479 133.87,-2.222 133.87,-1.914C133.87,-1.665 133.815,-1.448 133.705,-1.265C133.595,-1.082 133.415,-0.917 133.166,-0.77C132.711,-0.477 132.183,-0.246 131.582,-0.077C130.981,0.092 130.365,0.176 129.734,0.176C128.663,0.176 127.721,-0.051 126.907,-0.506Z" style="fill:rgb(71,175,232);fill-rule:nonzero;"/>
                    <path d="M145.772,-6.6L145.772,-1.188C145.772,-0.777 145.651,-0.455 145.409,-0.22C145.167,0.015 144.833,0.132 144.408,0.132C143.983,0.132 143.645,0.015 143.396,-0.22C143.147,-0.455 143.022,-0.777 143.022,-1.188L143.022,-6.6C143.022,-7.377 142.864,-7.946 142.549,-8.305C142.234,-8.664 141.739,-8.844 141.064,-8.844C140.272,-8.844 139.638,-8.595 139.161,-8.096C138.684,-7.597 138.446,-6.93 138.446,-6.094L138.446,-1.188C138.446,-0.777 138.321,-0.455 138.072,-0.22C137.823,0.015 137.485,0.132 137.06,0.132C136.635,0.132 136.301,0.015 136.059,-0.22C135.817,-0.455 135.696,-0.777 135.696,-1.188L135.696,-14.344C135.696,-14.725 135.824,-15.033 136.081,-15.268C136.338,-15.503 136.671,-15.62 137.082,-15.62C137.493,-15.62 137.823,-15.51 138.072,-15.29C138.321,-15.07 138.446,-14.769 138.446,-14.388L138.446,-9.262C138.813,-9.834 139.3,-10.27 139.909,-10.571C140.518,-10.872 141.211,-11.022 141.988,-11.022C144.511,-11.022 145.772,-9.548 145.772,-6.6Z" style="fill:rgb(71,175,232);fill-rule:nonzero;"/>
                </g>
                <g transform="matrix(1,0,0,1,520,74)">
                    <path d="M3.377,-0.506C2.563,-0.961 1.936,-1.606 1.496,-2.442C1.056,-3.278 0.836,-4.253 0.836,-5.368C0.836,-6.483 1.067,-7.469 1.529,-8.327C1.991,-9.185 2.64,-9.849 3.476,-10.318C4.312,-10.787 5.273,-11.022 6.358,-11.022C6.93,-11.022 7.506,-10.941 8.085,-10.78C8.664,-10.619 9.174,-10.399 9.614,-10.12C10.083,-9.812 10.318,-9.423 10.318,-8.954C10.318,-8.631 10.241,-8.371 10.087,-8.173C9.933,-7.975 9.731,-7.876 9.482,-7.876C9.321,-7.876 9.152,-7.913 8.976,-7.986C8.8,-8.059 8.624,-8.147 8.448,-8.25C8.125,-8.441 7.817,-8.591 7.524,-8.701C7.231,-8.811 6.893,-8.866 6.512,-8.866C5.603,-8.866 4.902,-8.569 4.411,-7.975C3.92,-7.381 3.674,-6.527 3.674,-5.412C3.674,-4.312 3.92,-3.465 4.411,-2.871C4.902,-2.277 5.603,-1.98 6.512,-1.98C6.879,-1.98 7.205,-2.035 7.491,-2.145C7.777,-2.255 8.096,-2.405 8.448,-2.596C8.668,-2.728 8.859,-2.827 9.02,-2.893C9.181,-2.959 9.343,-2.992 9.504,-2.992C9.739,-2.992 9.937,-2.889 10.098,-2.684C10.259,-2.479 10.34,-2.222 10.34,-1.914C10.34,-1.665 10.285,-1.448 10.175,-1.265C10.065,-1.082 9.885,-0.917 9.636,-0.77C9.181,-0.477 8.653,-0.246 8.052,-0.077C7.451,0.092 6.835,0.176 6.204,0.176C5.133,0.176 4.191,-0.051 3.377,-0.506Z" style="fill:rgb(71,175,232);fill-rule:nonzero;"/>
                    <path d="M14.179,-0.506C13.35,-0.961 12.709,-1.613 12.254,-2.464C11.799,-3.315 11.572,-4.305 11.572,-5.434C11.572,-6.563 11.799,-7.55 12.254,-8.393C12.709,-9.236 13.35,-9.885 14.179,-10.34C15.008,-10.795 15.972,-11.022 17.072,-11.022C18.172,-11.022 19.136,-10.795 19.965,-10.34C20.794,-9.885 21.432,-9.236 21.879,-8.393C22.326,-7.55 22.55,-6.563 22.55,-5.434C22.55,-4.305 22.326,-3.315 21.879,-2.464C21.432,-1.613 20.794,-0.961 19.965,-0.506C19.136,-0.051 18.172,0.176 17.072,0.176C15.972,0.176 15.008,-0.051 14.179,-0.506ZM19.096,-2.838C19.565,-3.425 19.8,-4.29 19.8,-5.434C19.8,-6.563 19.565,-7.425 19.096,-8.019C18.627,-8.613 17.952,-8.91 17.072,-8.91C16.192,-8.91 15.514,-8.613 15.037,-8.019C14.56,-7.425 14.322,-6.563 14.322,-5.434C14.322,-4.29 14.557,-3.425 15.026,-2.838C15.495,-2.251 16.17,-1.958 17.05,-1.958C17.945,-1.958 18.627,-2.251 19.096,-2.838Z" style="fill:rgb(71,175,232);fill-rule:nonzero;"/>
                    <path d="M33.946,-9.922C34.577,-9.189 34.892,-8.081 34.892,-6.6L34.892,-1.188C34.892,-0.777 34.771,-0.455 34.529,-0.22C34.287,0.015 33.953,0.132 33.528,0.132C33.103,0.132 32.765,0.015 32.516,-0.22C32.267,-0.455 32.142,-0.777 32.142,-1.188L32.142,-6.446C32.142,-7.282 31.984,-7.891 31.669,-8.272C31.354,-8.653 30.859,-8.844 30.184,-8.844C29.392,-8.844 28.758,-8.595 28.281,-8.096C27.804,-7.597 27.566,-6.93 27.566,-6.094L27.566,-1.188C27.566,-0.777 27.441,-0.455 27.192,-0.22C26.943,0.015 26.605,0.132 26.18,0.132C25.755,0.132 25.421,0.015 25.179,-0.22C24.937,-0.455 24.816,-0.777 24.816,-1.188L24.816,-9.702C24.816,-10.083 24.941,-10.391 25.19,-10.626C25.439,-10.861 25.777,-10.978 26.202,-10.978C26.583,-10.978 26.895,-10.864 27.137,-10.637C27.379,-10.41 27.5,-10.113 27.5,-9.746L27.5,-9.152C27.867,-9.753 28.358,-10.215 28.974,-10.538C29.59,-10.861 30.287,-11.022 31.064,-11.022C32.355,-11.022 33.315,-10.655 33.946,-9.922Z" style="fill:rgb(71,175,232);fill-rule:nonzero;"/>
                    <path d="M45.738,-13.343C45.445,-13.614 45.298,-13.97 45.298,-14.41C45.298,-14.85 45.445,-15.202 45.738,-15.466C46.031,-15.73 46.427,-15.862 46.926,-15.862C47.41,-15.862 47.802,-15.73 48.103,-15.466C48.404,-15.202 48.554,-14.85 48.554,-14.41C48.554,-13.97 48.404,-13.614 48.103,-13.343C47.802,-13.072 47.41,-12.936 46.926,-12.936C46.427,-12.936 46.031,-13.072 45.738,-13.343ZM48.29,-9.724L48.29,-1.188C48.29,-0.763 48.162,-0.436 47.905,-0.209C47.648,0.018 47.322,0.132 46.926,0.132C46.53,0.132 46.2,0.018 45.936,-0.209C45.672,-0.436 45.54,-0.763 45.54,-1.188L45.54,-8.69L41.184,-8.69L41.184,-1.188C41.184,-0.763 41.056,-0.44 40.799,-0.22C40.542,0 40.216,0.11 39.82,0.11C39.424,0.11 39.094,0 38.83,-0.22C38.566,-0.44 38.434,-0.763 38.434,-1.188L38.434,-8.69L37.334,-8.69C36.513,-8.69 36.102,-9.035 36.102,-9.724C36.102,-10.413 36.513,-10.758 37.334,-10.758L38.434,-10.758L38.434,-10.868C38.434,-12.232 38.797,-13.314 39.523,-14.113C40.249,-14.912 41.272,-15.371 42.592,-15.488L43.098,-15.532C43.171,-15.547 43.281,-15.554 43.428,-15.554C44.205,-15.554 44.594,-15.224 44.594,-14.564C44.594,-14.241 44.506,-13.992 44.33,-13.816C44.154,-13.64 43.912,-13.537 43.604,-13.508L43.12,-13.464C42.445,-13.405 41.954,-13.196 41.646,-12.837C41.338,-12.478 41.184,-11.953 41.184,-11.264L41.184,-10.758L47.058,-10.758C47.879,-10.758 48.29,-10.413 48.29,-9.724Z" style="fill:rgb(71,175,232);fill-rule:nonzero;"/>
                    <path d="M61.248,-10.626C61.497,-10.391 61.622,-10.076 61.622,-9.68L61.622,-0.99C61.622,0.697 61.153,1.973 60.214,2.838C59.275,3.703 57.889,4.136 56.056,4.136C54.457,4.136 53.123,3.835 52.052,3.234C51.509,2.911 51.238,2.523 51.238,2.068C51.238,1.745 51.315,1.489 51.469,1.298C51.623,1.107 51.825,1.012 52.074,1.012C52.206,1.012 52.367,1.045 52.558,1.111C52.749,1.177 52.947,1.254 53.152,1.342C53.68,1.562 54.153,1.731 54.571,1.848C54.989,1.965 55.469,2.024 56.012,2.024C57.933,2.024 58.894,1.085 58.894,-0.792L58.894,-2.2C58.571,-1.599 58.102,-1.133 57.486,-0.803C56.87,-0.473 56.166,-0.308 55.374,-0.308C54.435,-0.308 53.603,-0.532 52.877,-0.979C52.151,-1.426 51.583,-2.053 51.172,-2.86C50.761,-3.667 50.556,-4.598 50.556,-5.654C50.556,-6.71 50.758,-7.645 51.161,-8.459C51.564,-9.273 52.133,-9.904 52.866,-10.351C53.599,-10.798 54.435,-11.022 55.374,-11.022C56.166,-11.022 56.87,-10.857 57.486,-10.527C58.102,-10.197 58.571,-9.731 58.894,-9.13L58.894,-9.702C58.894,-10.083 59.019,-10.391 59.268,-10.626C59.517,-10.861 59.847,-10.978 60.258,-10.978C60.669,-10.978 60.999,-10.861 61.248,-10.626ZM58.157,-3.3C58.648,-3.872 58.894,-4.657 58.894,-5.654C58.894,-6.666 58.648,-7.458 58.157,-8.03C57.666,-8.602 56.98,-8.888 56.1,-8.888C55.235,-8.888 54.553,-8.602 54.054,-8.03C53.555,-7.458 53.306,-6.666 53.306,-5.654C53.306,-4.657 53.555,-3.872 54.054,-3.3C54.553,-2.728 55.235,-2.442 56.1,-2.442C56.98,-2.442 57.666,-2.728 58.157,-3.3Z" style="fill:rgb(71,175,232);fill-rule:nonzero;"/>
                    <path d="M73.964,-10.626C74.213,-10.391 74.338,-10.076 74.338,-9.68L74.338,-1.144C74.338,-0.763 74.21,-0.455 73.953,-0.22C73.696,0.015 73.363,0.132 72.952,0.132C72.556,0.132 72.241,0.022 72.006,-0.198C71.771,-0.418 71.654,-0.719 71.654,-1.1L71.654,-1.65C71.317,-1.063 70.862,-0.612 70.29,-0.297C69.718,0.018 69.073,0.176 68.354,0.176C65.714,0.176 64.394,-1.305 64.394,-4.268L64.394,-9.68C64.394,-10.076 64.519,-10.391 64.768,-10.626C65.017,-10.861 65.347,-10.978 65.758,-10.978C66.183,-10.978 66.521,-10.861 66.77,-10.626C67.019,-10.391 67.144,-10.076 67.144,-9.68L67.144,-4.246C67.144,-3.483 67.298,-2.919 67.606,-2.552C67.914,-2.185 68.398,-2.002 69.058,-2.002C69.821,-2.002 70.433,-2.255 70.895,-2.761C71.357,-3.267 71.588,-3.938 71.588,-4.774L71.588,-9.68C71.588,-10.076 71.713,-10.391 71.962,-10.626C72.211,-10.861 72.541,-10.978 72.952,-10.978C73.377,-10.978 73.715,-10.861 73.964,-10.626Z" style="fill:rgb(71,175,232);fill-rule:nonzero;"/>
                    <path d="M84.106,-10.736C84.326,-10.545 84.436,-10.259 84.436,-9.878C84.436,-9.482 84.341,-9.189 84.15,-8.998C83.959,-8.807 83.615,-8.683 83.116,-8.624L82.456,-8.558C81.591,-8.47 80.956,-8.177 80.553,-7.678C80.15,-7.179 79.948,-6.556 79.948,-5.808L79.948,-1.188C79.948,-0.763 79.816,-0.436 79.552,-0.209C79.288,0.018 78.958,0.132 78.562,0.132C78.166,0.132 77.84,0.018 77.583,-0.209C77.326,-0.436 77.198,-0.763 77.198,-1.188L77.198,-9.702C77.198,-10.113 77.326,-10.428 77.583,-10.648C77.84,-10.868 78.159,-10.978 78.54,-10.978C78.921,-10.978 79.229,-10.872 79.464,-10.659C79.699,-10.446 79.816,-10.142 79.816,-9.746L79.816,-8.866C80.095,-9.511 80.509,-10.01 81.059,-10.362C81.609,-10.714 82.221,-10.912 82.896,-10.956L83.204,-10.978C83.585,-11.007 83.886,-10.927 84.106,-10.736Z" style="fill:rgb(71,175,232);fill-rule:nonzero;"/>
                    <path d="M93.577,-9.911C94.303,-9.17 94.666,-8.045 94.666,-6.534L94.666,-1.166C94.666,-0.77 94.549,-0.458 94.314,-0.231C94.079,-0.004 93.757,0.11 93.346,0.11C92.965,0.11 92.653,-0.007 92.411,-0.242C92.169,-0.477 92.048,-0.785 92.048,-1.166L92.048,-1.65C91.799,-1.078 91.406,-0.631 90.871,-0.308C90.336,0.015 89.716,0.176 89.012,0.176C88.293,0.176 87.641,0.029 87.054,-0.264C86.467,-0.557 86.005,-0.961 85.668,-1.474C85.331,-1.987 85.162,-2.559 85.162,-3.19C85.162,-3.982 85.364,-4.605 85.767,-5.06C86.17,-5.515 86.827,-5.845 87.736,-6.05C88.645,-6.255 89.899,-6.358 91.498,-6.358L92.048,-6.358L92.048,-6.864C92.048,-7.583 91.894,-8.107 91.586,-8.437C91.278,-8.767 90.779,-8.932 90.09,-8.932C89.665,-8.932 89.232,-8.87 88.792,-8.745C88.352,-8.62 87.831,-8.441 87.23,-8.206C86.849,-8.015 86.57,-7.92 86.394,-7.92C86.13,-7.92 85.914,-8.015 85.745,-8.206C85.576,-8.397 85.492,-8.646 85.492,-8.954C85.492,-9.203 85.554,-9.42 85.679,-9.603C85.804,-9.786 86.013,-9.959 86.306,-10.12C86.819,-10.399 87.432,-10.619 88.143,-10.78C88.854,-10.941 89.555,-11.022 90.244,-11.022C91.74,-11.022 92.851,-10.652 93.577,-9.911ZM91.355,-2.541C91.817,-3.032 92.048,-3.667 92.048,-4.444L92.048,-4.906L91.652,-4.906C90.669,-4.906 89.907,-4.862 89.364,-4.774C88.821,-4.686 88.433,-4.532 88.198,-4.312C87.963,-4.092 87.846,-3.791 87.846,-3.41C87.846,-2.941 88.011,-2.556 88.341,-2.255C88.671,-1.954 89.078,-1.804 89.562,-1.804C90.295,-1.804 90.893,-2.05 91.355,-2.541Z" style="fill:rgb(71,175,232);fill-rule:nonzero;"/>
                    <path d="M104.148,-0.924C104.148,-0.572 104.005,-0.304 103.719,-0.121C103.433,0.062 103.026,0.139 102.498,0.11L101.904,0.066C99.44,-0.11 98.208,-1.43 98.208,-3.894L98.208,-8.69L97.108,-8.69C96.712,-8.69 96.408,-8.778 96.195,-8.954C95.982,-9.13 95.876,-9.387 95.876,-9.724C95.876,-10.061 95.982,-10.318 96.195,-10.494C96.408,-10.67 96.712,-10.758 97.108,-10.758L98.208,-10.758L98.208,-12.782C98.208,-13.178 98.333,-13.493 98.582,-13.728C98.831,-13.963 99.169,-14.08 99.594,-14.08C100.005,-14.08 100.335,-13.963 100.584,-13.728C100.833,-13.493 100.958,-13.178 100.958,-12.782L100.958,-10.758L102.828,-10.758C103.224,-10.758 103.528,-10.67 103.741,-10.494C103.954,-10.318 104.06,-10.061 104.06,-9.724C104.06,-9.387 103.954,-9.13 103.741,-8.954C103.528,-8.778 103.224,-8.69 102.828,-8.69L100.958,-8.69L100.958,-3.696C100.958,-2.611 101.457,-2.031 102.454,-1.958L103.048,-1.914C103.781,-1.87 104.148,-1.54 104.148,-0.924Z" style="fill:rgb(71,175,232);fill-rule:nonzero;"/>
                    <path d="M105.963,-0.209C105.706,-0.436 105.578,-0.763 105.578,-1.188L105.578,-9.68C105.578,-10.105 105.706,-10.428 105.963,-10.648C106.22,-10.868 106.546,-10.978 106.942,-10.978C107.338,-10.978 107.668,-10.868 107.932,-10.648C108.196,-10.428 108.328,-10.105 108.328,-9.68L108.328,-1.188C108.328,-0.763 108.196,-0.436 107.932,-0.209C107.668,0.018 107.338,0.132 106.942,0.132C106.546,0.132 106.22,0.018 105.963,-0.209ZM105.754,-13.343C105.461,-13.614 105.314,-13.97 105.314,-14.41C105.314,-14.85 105.461,-15.202 105.754,-15.466C106.047,-15.73 106.443,-15.862 106.942,-15.862C107.426,-15.862 107.818,-15.73 108.119,-15.466C108.42,-15.202 108.57,-14.85 108.57,-14.41C108.57,-13.97 108.423,-13.614 108.13,-13.343C107.837,-13.072 107.441,-12.936 106.942,-12.936C106.443,-12.936 106.047,-13.072 105.754,-13.343Z" style="fill:rgb(71,175,232);fill-rule:nonzero;"/>
                    <path d="M113.179,-0.506C112.35,-0.961 111.709,-1.613 111.254,-2.464C110.799,-3.315 110.572,-4.305 110.572,-5.434C110.572,-6.563 110.799,-7.55 111.254,-8.393C111.709,-9.236 112.35,-9.885 113.179,-10.34C114.008,-10.795 114.972,-11.022 116.072,-11.022C117.172,-11.022 118.136,-10.795 118.965,-10.34C119.794,-9.885 120.432,-9.236 120.879,-8.393C121.326,-7.55 121.55,-6.563 121.55,-5.434C121.55,-4.305 121.326,-3.315 120.879,-2.464C120.432,-1.613 119.794,-0.961 118.965,-0.506C118.136,-0.051 117.172,0.176 116.072,0.176C114.972,0.176 114.008,-0.051 113.179,-0.506ZM118.096,-2.838C118.565,-3.425 118.8,-4.29 118.8,-5.434C118.8,-6.563 118.565,-7.425 118.096,-8.019C117.627,-8.613 116.952,-8.91 116.072,-8.91C115.192,-8.91 114.514,-8.613 114.037,-8.019C113.56,-7.425 113.322,-6.563 113.322,-5.434C113.322,-4.29 113.557,-3.425 114.026,-2.838C114.495,-2.251 115.17,-1.958 116.05,-1.958C116.945,-1.958 117.627,-2.251 118.096,-2.838Z" style="fill:rgb(71,175,232);fill-rule:nonzero;"/>
                    <path d="M132.946,-9.922C133.577,-9.189 133.892,-8.081 133.892,-6.6L133.892,-1.188C133.892,-0.777 133.771,-0.455 133.529,-0.22C133.287,0.015 132.953,0.132 132.528,0.132C132.103,0.132 131.765,0.015 131.516,-0.22C131.267,-0.455 131.142,-0.777 131.142,-1.188L131.142,-6.446C131.142,-7.282 130.984,-7.891 130.669,-8.272C130.354,-8.653 129.859,-8.844 129.184,-8.844C128.392,-8.844 127.758,-8.595 127.281,-8.096C126.804,-7.597 126.566,-6.93 126.566,-6.094L126.566,-1.188C126.566,-0.777 126.441,-0.455 126.192,-0.22C125.943,0.015 125.605,0.132 125.18,0.132C124.755,0.132 124.421,0.015 124.179,-0.22C123.937,-0.455 123.816,-0.777 123.816,-1.188L123.816,-9.702C123.816,-10.083 123.941,-10.391 124.19,-10.626C124.439,-10.861 124.777,-10.978 125.202,-10.978C125.583,-10.978 125.895,-10.864 126.137,-10.637C126.379,-10.41 126.5,-10.113 126.5,-9.746L126.5,-9.152C126.867,-9.753 127.358,-10.215 127.974,-10.538C128.59,-10.861 129.287,-11.022 130.064,-11.022C131.355,-11.022 132.315,-10.655 132.946,-9.922Z" style="fill:rgb(71,175,232);fill-rule:nonzero;"/>
                    <path d="M152.152,-10.626C152.401,-10.391 152.526,-10.076 152.526,-9.68L152.526,-1.144C152.526,-0.763 152.398,-0.455 152.141,-0.22C151.884,0.015 151.551,0.132 151.14,0.132C150.744,0.132 150.429,0.022 150.194,-0.198C149.959,-0.418 149.842,-0.719 149.842,-1.1L149.842,-1.65C149.505,-1.063 149.05,-0.612 148.478,-0.297C147.906,0.018 147.261,0.176 146.542,0.176C143.902,0.176 142.582,-1.305 142.582,-4.268L142.582,-9.68C142.582,-10.076 142.707,-10.391 142.956,-10.626C143.205,-10.861 143.535,-10.978 143.946,-10.978C144.371,-10.978 144.709,-10.861 144.958,-10.626C145.207,-10.391 145.332,-10.076 145.332,-9.68L145.332,-4.246C145.332,-3.483 145.486,-2.919 145.794,-2.552C146.102,-2.185 146.586,-2.002 147.246,-2.002C148.009,-2.002 148.621,-2.255 149.083,-2.761C149.545,-3.267 149.776,-3.938 149.776,-4.774L149.776,-9.68C149.776,-10.076 149.901,-10.391 150.15,-10.626C150.399,-10.861 150.729,-10.978 151.14,-10.978C151.565,-10.978 151.903,-10.861 152.152,-10.626Z" style="fill:rgb(71,175,232);fill-rule:nonzero;"/>
                    <path d="M155.408,-0.77C154.939,-1.049 154.704,-1.445 154.704,-1.958C154.704,-2.251 154.785,-2.49 154.946,-2.673C155.107,-2.856 155.305,-2.948 155.54,-2.948C155.789,-2.948 156.134,-2.831 156.574,-2.596C157.043,-2.376 157.472,-2.207 157.861,-2.09C158.25,-1.973 158.745,-1.914 159.346,-1.914C159.962,-1.914 160.442,-2.017 160.787,-2.222C161.132,-2.427 161.304,-2.713 161.304,-3.08C161.304,-3.329 161.234,-3.527 161.095,-3.674C160.956,-3.821 160.706,-3.956 160.347,-4.081C159.988,-4.206 159.441,-4.349 158.708,-4.51C157.403,-4.774 156.468,-5.148 155.903,-5.632C155.338,-6.116 155.056,-6.783 155.056,-7.634C155.056,-8.279 155.247,-8.862 155.628,-9.383C156.009,-9.904 156.534,-10.307 157.201,-10.593C157.868,-10.879 158.627,-11.022 159.478,-11.022C160.094,-11.022 160.688,-10.945 161.26,-10.791C161.832,-10.637 162.345,-10.413 162.8,-10.12C163.269,-9.827 163.504,-9.438 163.504,-8.954C163.504,-8.661 163.423,-8.415 163.262,-8.217C163.101,-8.019 162.903,-7.92 162.668,-7.92C162.507,-7.92 162.349,-7.953 162.195,-8.019C162.041,-8.085 161.847,-8.184 161.612,-8.316C161.187,-8.536 160.82,-8.701 160.512,-8.811C160.204,-8.921 159.823,-8.976 159.368,-8.976C158.825,-8.976 158.396,-8.866 158.081,-8.646C157.766,-8.426 157.608,-8.125 157.608,-7.744C157.608,-7.377 157.769,-7.099 158.092,-6.908C158.415,-6.717 159.038,-6.527 159.962,-6.336C160.945,-6.131 161.715,-5.896 162.272,-5.632C162.829,-5.368 163.229,-5.038 163.471,-4.642C163.713,-4.246 163.834,-3.74 163.834,-3.124C163.834,-2.127 163.42,-1.327 162.591,-0.726C161.762,-0.125 160.659,0.176 159.28,0.176C157.681,0.176 156.391,-0.139 155.408,-0.77Z" style="fill:rgb(71,175,232);fill-rule:nonzero;"/>
                    <path d="M166.441,-0.209C166.184,-0.436 166.056,-0.763 166.056,-1.188L166.056,-9.68C166.056,-10.105 166.184,-10.428 166.441,-10.648C166.698,-10.868 167.024,-10.978 167.42,-10.978C167.816,-10.978 168.146,-10.868 168.41,-10.648C168.674,-10.428 168.806,-10.105 168.806,-9.68L168.806,-1.188C168.806,-0.763 168.674,-0.436 168.41,-0.209C168.146,0.018 167.816,0.132 167.42,0.132C167.024,0.132 166.698,0.018 166.441,-0.209ZM166.232,-13.343C165.939,-13.614 165.792,-13.97 165.792,-14.41C165.792,-14.85 165.939,-15.202 166.232,-15.466C166.525,-15.73 166.921,-15.862 167.42,-15.862C167.904,-15.862 168.296,-15.73 168.597,-15.466C168.898,-15.202 169.048,-14.85 169.048,-14.41C169.048,-13.97 168.901,-13.614 168.608,-13.343C168.315,-13.072 167.919,-12.936 167.42,-12.936C166.921,-12.936 166.525,-13.072 166.232,-13.343Z" style="fill:rgb(71,175,232);fill-rule:nonzero;"/>
                    <path d="M180.774,-9.922C181.405,-9.189 181.72,-8.081 181.72,-6.6L181.72,-1.188C181.72,-0.777 181.599,-0.455 181.357,-0.22C181.115,0.015 180.781,0.132 180.356,0.132C179.931,0.132 179.593,0.015 179.344,-0.22C179.095,-0.455 178.97,-0.777 178.97,-1.188L178.97,-6.446C178.97,-7.282 178.812,-7.891 178.497,-8.272C178.182,-8.653 177.687,-8.844 177.012,-8.844C176.22,-8.844 175.586,-8.595 175.109,-8.096C174.632,-7.597 174.394,-6.93 174.394,-6.094L174.394,-1.188C174.394,-0.777 174.269,-0.455 174.02,-0.22C173.771,0.015 173.433,0.132 173.008,0.132C172.583,0.132 172.249,0.015 172.007,-0.22C171.765,-0.455 171.644,-0.777 171.644,-1.188L171.644,-9.702C171.644,-10.083 171.769,-10.391 172.018,-10.626C172.267,-10.861 172.605,-10.978 173.03,-10.978C173.411,-10.978 173.723,-10.864 173.965,-10.637C174.207,-10.41 174.328,-10.113 174.328,-9.746L174.328,-9.152C174.695,-9.753 175.186,-10.215 175.802,-10.538C176.418,-10.861 177.115,-11.022 177.892,-11.022C179.183,-11.022 180.143,-10.655 180.774,-9.922Z" style="fill:rgb(71,175,232);fill-rule:nonzero;"/>
                    <path d="M194.612,-10.626C194.861,-10.391 194.986,-10.076 194.986,-9.68L194.986,-0.99C194.986,0.697 194.517,1.973 193.578,2.838C192.639,3.703 191.253,4.136 189.42,4.136C187.821,4.136 186.487,3.835 185.416,3.234C184.873,2.911 184.602,2.523 184.602,2.068C184.602,1.745 184.679,1.489 184.833,1.298C184.987,1.107 185.189,1.012 185.438,1.012C185.57,1.012 185.731,1.045 185.922,1.111C186.113,1.177 186.311,1.254 186.516,1.342C187.044,1.562 187.517,1.731 187.935,1.848C188.353,1.965 188.833,2.024 189.376,2.024C191.297,2.024 192.258,1.085 192.258,-0.792L192.258,-2.2C191.935,-1.599 191.466,-1.133 190.85,-0.803C190.234,-0.473 189.53,-0.308 188.738,-0.308C187.799,-0.308 186.967,-0.532 186.241,-0.979C185.515,-1.426 184.947,-2.053 184.536,-2.86C184.125,-3.667 183.92,-4.598 183.92,-5.654C183.92,-6.71 184.122,-7.645 184.525,-8.459C184.928,-9.273 185.497,-9.904 186.23,-10.351C186.963,-10.798 187.799,-11.022 188.738,-11.022C189.53,-11.022 190.234,-10.857 190.85,-10.527C191.466,-10.197 191.935,-9.731 192.258,-9.13L192.258,-9.702C192.258,-10.083 192.383,-10.391 192.632,-10.626C192.881,-10.861 193.211,-10.978 193.622,-10.978C194.033,-10.978 194.363,-10.861 194.612,-10.626ZM191.521,-3.3C192.012,-3.872 192.258,-4.657 192.258,-5.654C192.258,-6.666 192.012,-7.458 191.521,-8.03C191.03,-8.602 190.344,-8.888 189.464,-8.888C188.599,-8.888 187.917,-8.602 187.418,-8.03C186.919,-7.458 186.67,-6.666 186.67,-5.654C186.67,-4.657 186.919,-3.872 187.418,-3.3C187.917,-2.728 188.599,-2.442 189.464,-2.442C190.344,-2.442 191.03,-2.728 191.521,-3.3Z" style="fill:rgb(71,175,232);fill-rule:nonzero;"/>
                </g>
                <g transform="matrix(1,0,0,1,531.308,100)">
                    <path d="M1.452,-0.77C0.983,-1.049 0.748,-1.445 0.748,-1.958C0.748,-2.251 0.829,-2.49 0.99,-2.673C1.151,-2.856 1.349,-2.948 1.584,-2.948C1.833,-2.948 2.178,-2.831 2.618,-2.596C3.087,-2.376 3.516,-2.207 3.905,-2.09C4.294,-1.973 4.789,-1.914 5.39,-1.914C6.006,-1.914 6.486,-2.017 6.831,-2.222C7.176,-2.427 7.348,-2.713 7.348,-3.08C7.348,-3.329 7.278,-3.527 7.139,-3.674C7,-3.821 6.75,-3.956 6.391,-4.081C6.032,-4.206 5.485,-4.349 4.752,-4.51C3.447,-4.774 2.512,-5.148 1.947,-5.632C1.382,-6.116 1.1,-6.783 1.1,-7.634C1.1,-8.279 1.291,-8.862 1.672,-9.383C2.053,-9.904 2.578,-10.307 3.245,-10.593C3.912,-10.879 4.671,-11.022 5.522,-11.022C6.138,-11.022 6.732,-10.945 7.304,-10.791C7.876,-10.637 8.389,-10.413 8.844,-10.12C9.313,-9.827 9.548,-9.438 9.548,-8.954C9.548,-8.661 9.467,-8.415 9.306,-8.217C9.145,-8.019 8.947,-7.92 8.712,-7.92C8.551,-7.92 8.393,-7.953 8.239,-8.019C8.085,-8.085 7.891,-8.184 7.656,-8.316C7.231,-8.536 6.864,-8.701 6.556,-8.811C6.248,-8.921 5.867,-8.976 5.412,-8.976C4.869,-8.976 4.44,-8.866 4.125,-8.646C3.81,-8.426 3.652,-8.125 3.652,-7.744C3.652,-7.377 3.813,-7.099 4.136,-6.908C4.459,-6.717 5.082,-6.527 6.006,-6.336C6.989,-6.131 7.759,-5.896 8.316,-5.632C8.873,-5.368 9.273,-5.038 9.515,-4.642C9.757,-4.246 9.878,-3.74 9.878,-3.124C9.878,-2.127 9.464,-1.327 8.635,-0.726C7.806,-0.125 6.703,0.176 5.324,0.176C3.725,0.176 2.435,-0.139 1.452,-0.77Z" style="fill:rgb(71,175,232);fill-rule:nonzero;"/>
                    <path d="M18.678,-0.924C18.678,-0.572 18.535,-0.304 18.249,-0.121C17.963,0.062 17.556,0.139 17.028,0.11L16.434,0.066C13.97,-0.11 12.738,-1.43 12.738,-3.894L12.738,-8.69L11.638,-8.69C11.242,-8.69 10.938,-8.778 10.725,-8.954C10.512,-9.13 10.406,-9.387 10.406,-9.724C10.406,-10.061 10.512,-10.318 10.725,-10.494C10.938,-10.67 11.242,-10.758 11.638,-10.758L12.738,-10.758L12.738,-12.782C12.738,-13.178 12.863,-13.493 13.112,-13.728C13.361,-13.963 13.699,-14.08 14.124,-14.08C14.535,-14.08 14.865,-13.963 15.114,-13.728C15.363,-13.493 15.488,-13.178 15.488,-12.782L15.488,-10.758L17.358,-10.758C17.754,-10.758 18.058,-10.67 18.271,-10.494C18.484,-10.318 18.59,-10.061 18.59,-9.724C18.59,-9.387 18.484,-9.13 18.271,-8.954C18.058,-8.778 17.754,-8.69 17.358,-8.69L15.488,-8.69L15.488,-3.696C15.488,-2.611 15.987,-2.031 16.984,-1.958L17.578,-1.914C18.311,-1.87 18.678,-1.54 18.678,-0.924Z" style="fill:rgb(71,175,232);fill-rule:nonzero;"/>
                    <path d="M28.105,-9.911C28.831,-9.17 29.194,-8.045 29.194,-6.534L29.194,-1.166C29.194,-0.77 29.077,-0.458 28.842,-0.231C28.607,-0.004 28.285,0.11 27.874,0.11C27.493,0.11 27.181,-0.007 26.939,-0.242C26.697,-0.477 26.576,-0.785 26.576,-1.166L26.576,-1.65C26.327,-1.078 25.934,-0.631 25.399,-0.308C24.864,0.015 24.244,0.176 23.54,0.176C22.821,0.176 22.169,0.029 21.582,-0.264C20.995,-0.557 20.533,-0.961 20.196,-1.474C19.859,-1.987 19.69,-2.559 19.69,-3.19C19.69,-3.982 19.892,-4.605 20.295,-5.06C20.698,-5.515 21.355,-5.845 22.264,-6.05C23.173,-6.255 24.427,-6.358 26.026,-6.358L26.576,-6.358L26.576,-6.864C26.576,-7.583 26.422,-8.107 26.114,-8.437C25.806,-8.767 25.307,-8.932 24.618,-8.932C24.193,-8.932 23.76,-8.87 23.32,-8.745C22.88,-8.62 22.359,-8.441 21.758,-8.206C21.377,-8.015 21.098,-7.92 20.922,-7.92C20.658,-7.92 20.442,-8.015 20.273,-8.206C20.104,-8.397 20.02,-8.646 20.02,-8.954C20.02,-9.203 20.082,-9.42 20.207,-9.603C20.332,-9.786 20.541,-9.959 20.834,-10.12C21.347,-10.399 21.96,-10.619 22.671,-10.78C23.382,-10.941 24.083,-11.022 24.772,-11.022C26.268,-11.022 27.379,-10.652 28.105,-9.911ZM25.883,-2.541C26.345,-3.032 26.576,-3.667 26.576,-4.444L26.576,-4.906L26.18,-4.906C25.197,-4.906 24.435,-4.862 23.892,-4.774C23.349,-4.686 22.961,-4.532 22.726,-4.312C22.491,-4.092 22.374,-3.791 22.374,-3.41C22.374,-2.941 22.539,-2.556 22.869,-2.255C23.199,-1.954 23.606,-1.804 24.09,-1.804C24.823,-1.804 25.421,-2.05 25.883,-2.541Z" style="fill:rgb(71,175,232);fill-rule:nonzero;"/>
                    <path d="M33.935,-0.506C33.121,-0.961 32.494,-1.606 32.054,-2.442C31.614,-3.278 31.394,-4.253 31.394,-5.368C31.394,-6.483 31.625,-7.469 32.087,-8.327C32.549,-9.185 33.198,-9.849 34.034,-10.318C34.87,-10.787 35.831,-11.022 36.916,-11.022C37.488,-11.022 38.064,-10.941 38.643,-10.78C39.222,-10.619 39.732,-10.399 40.172,-10.12C40.641,-9.812 40.876,-9.423 40.876,-8.954C40.876,-8.631 40.799,-8.371 40.645,-8.173C40.491,-7.975 40.289,-7.876 40.04,-7.876C39.879,-7.876 39.71,-7.913 39.534,-7.986C39.358,-8.059 39.182,-8.147 39.006,-8.25C38.683,-8.441 38.375,-8.591 38.082,-8.701C37.789,-8.811 37.451,-8.866 37.07,-8.866C36.161,-8.866 35.46,-8.569 34.969,-7.975C34.478,-7.381 34.232,-6.527 34.232,-5.412C34.232,-4.312 34.478,-3.465 34.969,-2.871C35.46,-2.277 36.161,-1.98 37.07,-1.98C37.437,-1.98 37.763,-2.035 38.049,-2.145C38.335,-2.255 38.654,-2.405 39.006,-2.596C39.226,-2.728 39.417,-2.827 39.578,-2.893C39.739,-2.959 39.901,-2.992 40.062,-2.992C40.297,-2.992 40.495,-2.889 40.656,-2.684C40.817,-2.479 40.898,-2.222 40.898,-1.914C40.898,-1.665 40.843,-1.448 40.733,-1.265C40.623,-1.082 40.443,-0.917 40.194,-0.77C39.739,-0.477 39.211,-0.246 38.61,-0.077C38.009,0.092 37.393,0.176 36.762,0.176C35.691,0.176 34.749,-0.051 33.935,-0.506Z" style="fill:rgb(71,175,232);fill-rule:nonzero;"/>
                    <path d="M52.734,-1.188C52.734,-0.851 52.613,-0.55 52.371,-0.286C52.129,-0.022 51.847,0.11 51.524,0.11C51.201,0.11 50.901,-0.022 50.622,-0.286L45.474,-4.95L45.474,-1.188C45.474,-0.763 45.342,-0.44 45.078,-0.22C44.814,0 44.484,0.11 44.088,0.11C43.692,0.11 43.366,0 43.109,-0.22C42.852,-0.44 42.724,-0.763 42.724,-1.188L42.724,-14.322C42.724,-14.747 42.852,-15.07 43.109,-15.29C43.366,-15.51 43.692,-15.62 44.088,-15.62C44.484,-15.62 44.814,-15.51 45.078,-15.29C45.342,-15.07 45.474,-14.747 45.474,-14.322L45.474,-6.05L50.182,-10.56C50.446,-10.824 50.747,-10.956 51.084,-10.956C51.421,-10.956 51.715,-10.831 51.964,-10.582C52.213,-10.333 52.338,-10.039 52.338,-9.702C52.338,-9.365 52.199,-9.057 51.92,-8.778L48.466,-5.566L52.294,-2.134C52.587,-1.855 52.734,-1.54 52.734,-1.188Z" style="fill:rgb(71,175,232);fill-rule:nonzero;"/>
                    <path d="M63.481,-2.662C63.635,-2.471 63.712,-2.215 63.712,-1.892C63.712,-1.437 63.441,-1.056 62.898,-0.748C62.399,-0.469 61.835,-0.246 61.204,-0.077C60.573,0.092 59.972,0.176 59.4,0.176C57.669,0.176 56.298,-0.323 55.286,-1.32C54.274,-2.317 53.768,-3.681 53.768,-5.412C53.768,-6.512 53.988,-7.487 54.428,-8.338C54.868,-9.189 55.488,-9.849 56.287,-10.318C57.086,-10.787 57.992,-11.022 59.004,-11.022C59.972,-11.022 60.815,-10.809 61.534,-10.384C62.253,-9.959 62.81,-9.357 63.206,-8.58C63.602,-7.803 63.8,-6.886 63.8,-5.83C63.8,-5.199 63.521,-4.884 62.964,-4.884L56.474,-4.884C56.562,-3.872 56.848,-3.128 57.332,-2.651C57.816,-2.174 58.52,-1.936 59.444,-1.936C59.913,-1.936 60.328,-1.995 60.687,-2.112C61.046,-2.229 61.453,-2.391 61.908,-2.596C62.348,-2.831 62.671,-2.948 62.876,-2.948C63.125,-2.948 63.327,-2.853 63.481,-2.662ZM57.277,-8.382C56.83,-7.913 56.562,-7.238 56.474,-6.358L61.446,-6.358C61.417,-7.253 61.197,-7.931 60.786,-8.393C60.375,-8.855 59.803,-9.086 59.07,-9.086C58.322,-9.086 57.724,-8.851 57.277,-8.382Z" style="fill:rgb(71,175,232);fill-rule:nonzero;"/>
                    <path d="M76.032,-15.268C76.296,-15.033 76.428,-14.725 76.428,-14.344L76.428,-1.188C76.428,-0.792 76.303,-0.477 76.054,-0.242C75.805,-0.007 75.475,0.11 75.064,0.11C74.653,0.11 74.323,-0.007 74.074,-0.242C73.825,-0.477 73.7,-0.792 73.7,-1.188L73.7,-1.738C73.377,-1.137 72.912,-0.667 72.303,-0.33C71.694,0.007 71.001,0.176 70.224,0.176C69.3,0.176 68.475,-0.059 67.749,-0.528C67.023,-0.997 66.458,-1.661 66.055,-2.519C65.652,-3.377 65.45,-4.363 65.45,-5.478C65.45,-6.593 65.652,-7.568 66.055,-8.404C66.458,-9.24 67.019,-9.885 67.738,-10.34C68.457,-10.795 69.285,-11.022 70.224,-11.022C71.001,-11.022 71.691,-10.861 72.292,-10.538C72.893,-10.215 73.355,-9.761 73.678,-9.174L73.678,-14.388C73.678,-14.755 73.799,-15.052 74.041,-15.279C74.283,-15.506 74.609,-15.62 75.02,-15.62C75.431,-15.62 75.768,-15.503 76.032,-15.268ZM72.985,-2.86C73.462,-3.461 73.7,-4.319 73.7,-5.434C73.7,-6.549 73.462,-7.403 72.985,-7.997C72.508,-8.591 71.837,-8.888 70.972,-8.888C70.092,-8.888 69.41,-8.595 68.926,-8.008C68.442,-7.421 68.2,-6.578 68.2,-5.478C68.2,-4.363 68.442,-3.498 68.926,-2.882C69.41,-2.266 70.085,-1.958 70.95,-1.958C71.83,-1.958 72.508,-2.259 72.985,-2.86Z" style="fill:rgb(71,175,232);fill-rule:nonzero;"/>
                    <path d="M91.916,-0.924C91.916,-0.572 91.773,-0.304 91.487,-0.121C91.201,0.062 90.794,0.139 90.266,0.11L89.672,0.066C87.208,-0.11 85.976,-1.43 85.976,-3.894L85.976,-8.69L84.876,-8.69C84.48,-8.69 84.176,-8.778 83.963,-8.954C83.75,-9.13 83.644,-9.387 83.644,-9.724C83.644,-10.061 83.75,-10.318 83.963,-10.494C84.176,-10.67 84.48,-10.758 84.876,-10.758L85.976,-10.758L85.976,-12.782C85.976,-13.178 86.101,-13.493 86.35,-13.728C86.599,-13.963 86.937,-14.08 87.362,-14.08C87.773,-14.08 88.103,-13.963 88.352,-13.728C88.601,-13.493 88.726,-13.178 88.726,-12.782L88.726,-10.758L90.596,-10.758C90.992,-10.758 91.296,-10.67 91.509,-10.494C91.722,-10.318 91.828,-10.061 91.828,-9.724C91.828,-9.387 91.722,-9.13 91.509,-8.954C91.296,-8.778 90.992,-8.69 90.596,-8.69L88.726,-8.69L88.726,-3.696C88.726,-2.611 89.225,-2.031 90.222,-1.958L90.816,-1.914C91.549,-1.87 91.916,-1.54 91.916,-0.924Z" style="fill:rgb(71,175,232);fill-rule:nonzero;"/>
                    <path d="M95.359,-0.506C94.53,-0.961 93.889,-1.613 93.434,-2.464C92.979,-3.315 92.752,-4.305 92.752,-5.434C92.752,-6.563 92.979,-7.55 93.434,-8.393C93.889,-9.236 94.53,-9.885 95.359,-10.34C96.188,-10.795 97.152,-11.022 98.252,-11.022C99.352,-11.022 100.316,-10.795 101.145,-10.34C101.974,-9.885 102.612,-9.236 103.059,-8.393C103.506,-7.55 103.73,-6.563 103.73,-5.434C103.73,-4.305 103.506,-3.315 103.059,-2.464C102.612,-1.613 101.974,-0.961 101.145,-0.506C100.316,-0.051 99.352,0.176 98.252,0.176C97.152,0.176 96.188,-0.051 95.359,-0.506ZM100.276,-2.838C100.745,-3.425 100.98,-4.29 100.98,-5.434C100.98,-6.563 100.745,-7.425 100.276,-8.019C99.807,-8.613 99.132,-8.91 98.252,-8.91C97.372,-8.91 96.694,-8.613 96.217,-8.019C95.74,-7.425 95.502,-6.563 95.502,-5.434C95.502,-4.29 95.737,-3.425 96.206,-2.838C96.675,-2.251 97.35,-1.958 98.23,-1.958C99.125,-1.958 99.807,-2.251 100.276,-2.838Z" style="fill:rgb(71,175,232);fill-rule:nonzero;"/>
                    <path d="M114.653,-10.318C115.379,-9.849 115.944,-9.185 116.347,-8.327C116.75,-7.469 116.952,-6.483 116.952,-5.368C116.952,-4.253 116.75,-3.278 116.347,-2.442C115.944,-1.606 115.383,-0.961 114.664,-0.506C113.945,-0.051 113.117,0.176 112.178,0.176C111.415,0.176 110.733,0.015 110.132,-0.308C109.531,-0.631 109.069,-1.078 108.746,-1.65L108.746,2.838C108.746,3.219 108.621,3.52 108.372,3.74C108.123,3.96 107.793,4.07 107.382,4.07C106.971,4.07 106.638,3.953 106.381,3.718C106.124,3.483 105.996,3.175 105.996,2.794L105.996,-9.68C105.996,-10.076 106.117,-10.391 106.359,-10.626C106.601,-10.861 106.927,-10.978 107.338,-10.978C107.749,-10.978 108.079,-10.861 108.328,-10.626C108.577,-10.391 108.702,-10.076 108.702,-9.68L108.702,-9.13C109.025,-9.731 109.49,-10.197 110.099,-10.527C110.708,-10.857 111.401,-11.022 112.178,-11.022C113.102,-11.022 113.927,-10.787 114.653,-10.318ZM113.476,-2.849C113.96,-3.443 114.202,-4.283 114.202,-5.368C114.202,-6.483 113.96,-7.348 113.476,-7.964C112.992,-8.58 112.317,-8.888 111.452,-8.888C110.572,-8.888 109.894,-8.587 109.417,-7.986C108.94,-7.385 108.702,-6.527 108.702,-5.412C108.702,-4.312 108.94,-3.461 109.417,-2.86C109.894,-2.259 110.572,-1.958 111.452,-1.958C112.317,-1.958 112.992,-2.255 113.476,-2.849Z" style="fill:rgb(71,175,232);fill-rule:nonzero;"/>
                    <path d="M121.231,-0.506C120.402,-0.961 119.761,-1.613 119.306,-2.464C118.851,-3.315 118.624,-4.305 118.624,-5.434C118.624,-6.563 118.851,-7.55 119.306,-8.393C119.761,-9.236 120.402,-9.885 121.231,-10.34C122.06,-10.795 123.024,-11.022 124.124,-11.022C125.224,-11.022 126.188,-10.795 127.017,-10.34C127.846,-9.885 128.484,-9.236 128.931,-8.393C129.378,-7.55 129.602,-6.563 129.602,-5.434C129.602,-4.305 129.378,-3.315 128.931,-2.464C128.484,-1.613 127.846,-0.961 127.017,-0.506C126.188,-0.051 125.224,0.176 124.124,0.176C123.024,0.176 122.06,-0.051 121.231,-0.506ZM126.148,-2.838C126.617,-3.425 126.852,-4.29 126.852,-5.434C126.852,-6.563 126.617,-7.425 126.148,-8.019C125.679,-8.613 125.004,-8.91 124.124,-8.91C123.244,-8.91 122.566,-8.613 122.089,-8.019C121.612,-7.425 121.374,-6.563 121.374,-5.434C121.374,-4.29 121.609,-3.425 122.078,-2.838C122.547,-2.251 123.222,-1.958 124.102,-1.958C124.997,-1.958 125.679,-2.251 126.148,-2.838Z" style="fill:rgb(71,175,232);fill-rule:nonzero;"/>
                    <path d="M132.253,-0.209C131.996,-0.436 131.868,-0.763 131.868,-1.188L131.868,-14.322C131.868,-14.747 131.996,-15.07 132.253,-15.29C132.51,-15.51 132.836,-15.62 133.232,-15.62C133.628,-15.62 133.958,-15.51 134.222,-15.29C134.486,-15.07 134.618,-14.747 134.618,-14.322L134.618,-1.188C134.618,-0.763 134.486,-0.436 134.222,-0.209C133.958,0.018 133.628,0.132 133.232,0.132C132.836,0.132 132.51,0.018 132.253,-0.209Z" style="fill:rgb(71,175,232);fill-rule:nonzero;"/>
                    <path d="M139.469,-0.506C138.64,-0.961 137.999,-1.613 137.544,-2.464C137.089,-3.315 136.862,-4.305 136.862,-5.434C136.862,-6.563 137.089,-7.55 137.544,-8.393C137.999,-9.236 138.64,-9.885 139.469,-10.34C140.298,-10.795 141.262,-11.022 142.362,-11.022C143.462,-11.022 144.426,-10.795 145.255,-10.34C146.084,-9.885 146.722,-9.236 147.169,-8.393C147.616,-7.55 147.84,-6.563 147.84,-5.434C147.84,-4.305 147.616,-3.315 147.169,-2.464C146.722,-1.613 146.084,-0.961 145.255,-0.506C144.426,-0.051 143.462,0.176 142.362,0.176C141.262,0.176 140.298,-0.051 139.469,-0.506ZM144.386,-2.838C144.855,-3.425 145.09,-4.29 145.09,-5.434C145.09,-6.563 144.855,-7.425 144.386,-8.019C143.917,-8.613 143.242,-8.91 142.362,-8.91C141.482,-8.91 140.804,-8.613 140.327,-8.019C139.85,-7.425 139.612,-6.563 139.612,-5.434C139.612,-4.29 139.847,-3.425 140.316,-2.838C140.785,-2.251 141.46,-1.958 142.34,-1.958C143.235,-1.958 143.917,-2.251 144.386,-2.838Z" style="fill:rgb(71,175,232);fill-rule:nonzero;"/>
                    <path d="M160.204,-10.626C160.453,-10.391 160.578,-10.076 160.578,-9.68L160.578,-0.99C160.578,0.697 160.109,1.973 159.17,2.838C158.231,3.703 156.845,4.136 155.012,4.136C153.413,4.136 152.079,3.835 151.008,3.234C150.465,2.911 150.194,2.523 150.194,2.068C150.194,1.745 150.271,1.489 150.425,1.298C150.579,1.107 150.781,1.012 151.03,1.012C151.162,1.012 151.323,1.045 151.514,1.111C151.705,1.177 151.903,1.254 152.108,1.342C152.636,1.562 153.109,1.731 153.527,1.848C153.945,1.965 154.425,2.024 154.968,2.024C156.889,2.024 157.85,1.085 157.85,-0.792L157.85,-2.2C157.527,-1.599 157.058,-1.133 156.442,-0.803C155.826,-0.473 155.122,-0.308 154.33,-0.308C153.391,-0.308 152.559,-0.532 151.833,-0.979C151.107,-1.426 150.539,-2.053 150.128,-2.86C149.717,-3.667 149.512,-4.598 149.512,-5.654C149.512,-6.71 149.714,-7.645 150.117,-8.459C150.52,-9.273 151.089,-9.904 151.822,-10.351C152.555,-10.798 153.391,-11.022 154.33,-11.022C155.122,-11.022 155.826,-10.857 156.442,-10.527C157.058,-10.197 157.527,-9.731 157.85,-9.13L157.85,-9.702C157.85,-10.083 157.975,-10.391 158.224,-10.626C158.473,-10.861 158.803,-10.978 159.214,-10.978C159.625,-10.978 159.955,-10.861 160.204,-10.626ZM157.113,-3.3C157.604,-3.872 157.85,-4.657 157.85,-5.654C157.85,-6.666 157.604,-7.458 157.113,-8.03C156.622,-8.602 155.936,-8.888 155.056,-8.888C154.191,-8.888 153.509,-8.602 153.01,-8.03C152.511,-7.458 152.262,-6.666 152.262,-5.654C152.262,-4.657 152.511,-3.872 153.01,-3.3C153.509,-2.728 154.191,-2.442 155.056,-2.442C155.936,-2.442 156.622,-2.728 157.113,-3.3Z" style="fill:rgb(71,175,232);fill-rule:nonzero;"/>
                    <path d="M171.391,-10.769C171.589,-10.894 171.805,-10.956 172.04,-10.956C172.377,-10.956 172.682,-10.842 172.953,-10.615C173.224,-10.388 173.36,-10.105 173.36,-9.768C173.36,-9.607 173.316,-9.438 173.228,-9.262L167.222,3.322C166.973,3.821 166.584,4.07 166.056,4.07C165.719,4.07 165.422,3.964 165.165,3.751C164.908,3.538 164.78,3.271 164.78,2.948C164.78,2.787 164.824,2.603 164.912,2.398L166.408,-0.748L162.316,-9.262C162.243,-9.409 162.206,-9.577 162.206,-9.768C162.206,-10.105 162.349,-10.391 162.635,-10.626C162.921,-10.861 163.247,-10.978 163.614,-10.978C163.863,-10.978 164.091,-10.916 164.296,-10.791C164.501,-10.666 164.663,-10.472 164.78,-10.208L167.86,-3.41L170.918,-10.186C171.035,-10.45 171.193,-10.644 171.391,-10.769Z" style="fill:rgb(71,175,232);fill-rule:nonzero;"/>
                </g>
            </g>
        </g>
    </g>
</svg>
