<?xml version="1.0" encoding="UTF-8" standalone="no"?>
<!DOCTYPE svg PUBLIC "-//W3C//DTD SVG 1.1//EN" "http://www.w3.org/Graphics/SVG/1.1/DTD/svg11.dtd">
<svg width="100%" height="100%" viewBox="0 0 59 11" version="1.1" xmlns="http://www.w3.org/2000/svg" xmlns:xlink="http://www.w3.org/1999/xlink" xml:space="preserve" xmlns:serif="http://www.serif.com/" style="fill-rule:evenodd;clip-rule:evenodd;stroke-linejoin:round;stroke-miterlimit:1.41421;">
    <g transform="matrix(1,0,0,1,-285,-717)">
        <g transform="matrix(1,0,0,1,26,28)">
            <g transform="matrix(1,0,0,1,259,699)">
                <g id="VLAN-10">
                    <path d="M8.988,-9.954C9.221,-9.954 9.431,-9.879 9.618,-9.73C9.805,-9.581 9.898,-9.394 9.898,-9.17C9.898,-9.067 9.87,-8.951 9.814,-8.82L5.936,-0.476C5.852,-0.299 5.724,-0.161 5.551,-0.063C5.378,0.035 5.194,0.084 4.998,0.084C4.802,0.084 4.618,0.035 4.445,-0.063C4.272,-0.161 4.144,-0.299 4.06,-0.476L0.196,-8.82C0.14,-8.951 0.112,-9.063 0.112,-9.156C0.112,-9.389 0.208,-9.581 0.399,-9.73C0.59,-9.879 0.807,-9.954 1.05,-9.954C1.209,-9.954 1.356,-9.914 1.491,-9.835C1.626,-9.756 1.731,-9.637 1.806,-9.478L5.026,-2.324L8.246,-9.478C8.395,-9.795 8.643,-9.954 8.988,-9.954Z" style="fill:rgb(74,74,74);fill-rule:nonzero;"/>
                    <path d="M11.284,-0.224C11.135,-0.373 11.06,-0.579 11.06,-0.84L11.06,-9.044C11.06,-9.315 11.142,-9.532 11.305,-9.695C11.468,-9.858 11.685,-9.94 11.956,-9.94C12.236,-9.94 12.458,-9.858 12.621,-9.695C12.784,-9.532 12.866,-9.315 12.866,-9.044L12.866,-1.484L16.8,-1.484C17.36,-1.484 17.64,-1.237 17.64,-0.742C17.64,-0.247 17.36,0 16.8,0L11.914,0C11.643,0 11.433,-0.075 11.284,-0.224Z" style="fill:rgb(74,74,74);fill-rule:nonzero;"/>
                    <path d="M27.776,-0.714C27.776,-0.499 27.69,-0.317 27.517,-0.168C27.344,-0.019 27.146,0.056 26.922,0.056C26.773,0.056 26.633,0.016 26.502,-0.063C26.371,-0.142 26.269,-0.266 26.194,-0.434L25.354,-2.31L20.426,-2.31L19.586,-0.434C19.511,-0.266 19.409,-0.142 19.278,-0.063C19.147,0.016 19.003,0.056 18.844,0.056C18.629,0.056 18.433,-0.019 18.256,-0.168C18.079,-0.317 17.99,-0.499 17.99,-0.714C17.99,-0.835 18.018,-0.957 18.074,-1.078L21.938,-9.38C22.022,-9.567 22.15,-9.709 22.323,-9.807C22.496,-9.905 22.68,-9.954 22.876,-9.954C23.072,-9.954 23.256,-9.905 23.429,-9.807C23.602,-9.709 23.73,-9.567 23.814,-9.38L27.692,-1.078C27.748,-0.957 27.776,-0.835 27.776,-0.714ZM21.042,-3.71L24.738,-3.71L22.89,-7.868L21.042,-3.71Z" style="fill:rgb(74,74,74);fill-rule:nonzero;"/>
                    <path d="M37.233,-9.695C37.387,-9.532 37.464,-9.315 37.464,-9.044L37.464,-0.826C37.464,-0.555 37.385,-0.336 37.226,-0.168C37.067,0 36.862,0.084 36.61,0.084C36.311,0.084 36.083,-0.023 35.924,-0.238L30.814,-6.888L30.814,-0.826C30.814,-0.555 30.739,-0.336 30.59,-0.168C30.441,0 30.235,0.084 29.974,0.084C29.713,0.084 29.507,0 29.358,-0.168C29.209,-0.336 29.134,-0.555 29.134,-0.826L29.134,-9.044C29.134,-9.315 29.213,-9.532 29.372,-9.695C29.531,-9.858 29.741,-9.94 30.002,-9.94C30.291,-9.94 30.515,-9.833 30.674,-9.618L35.77,-2.996L35.77,-9.044C35.77,-9.315 35.847,-9.532 36.001,-9.695C36.155,-9.858 36.358,-9.94 36.61,-9.94C36.871,-9.94 37.079,-9.858 37.233,-9.695Z" style="fill:rgb(74,74,74);fill-rule:nonzero;"/>
                    <path d="M50.176,-0.742C50.176,-0.247 49.896,0 49.336,0L44.604,0C44.035,0 43.75,-0.247 43.75,-0.742C43.75,-1.218 44.035,-1.456 44.604,-1.456L46.06,-1.456L46.06,-7.84L44.716,-7.014C44.585,-6.939 44.469,-6.902 44.366,-6.902C44.17,-6.902 44.004,-6.986 43.869,-7.154C43.734,-7.322 43.666,-7.509 43.666,-7.714C43.666,-7.985 43.787,-8.195 44.03,-8.344L46.2,-9.688C46.48,-9.856 46.746,-9.94 46.998,-9.94C47.259,-9.94 47.469,-9.861 47.628,-9.702C47.787,-9.543 47.866,-9.324 47.866,-9.044L47.866,-1.456L49.336,-1.456C49.896,-1.456 50.176,-1.218 50.176,-0.742Z" style="fill:rgb(74,74,74);fill-rule:nonzero;"/>
                    <path d="M52.248,-1.169C51.632,-2.032 51.324,-3.29 51.324,-4.942C51.324,-6.585 51.632,-7.838 52.248,-8.701C52.864,-9.564 53.755,-9.996 54.922,-9.996C56.089,-9.996 56.98,-9.564 57.596,-8.701C58.212,-7.838 58.52,-6.585 58.52,-4.942C58.52,-3.299 58.212,-2.044 57.596,-1.176C56.98,-0.308 56.089,0.126 54.922,0.126C53.755,0.126 52.864,-0.306 52.248,-1.169ZM56.308,-2.163C56.597,-2.746 56.742,-3.673 56.742,-4.942C56.742,-6.221 56.597,-7.147 56.308,-7.721C56.019,-8.295 55.557,-8.582 54.922,-8.582C54.287,-8.582 53.825,-8.293 53.536,-7.714C53.247,-7.135 53.102,-6.211 53.102,-4.942C53.102,-3.673 53.247,-2.746 53.536,-2.163C53.825,-1.58 54.287,-1.288 54.922,-1.288C55.557,-1.288 56.019,-1.58 56.308,-2.163Z" style="fill:rgb(74,74,74);fill-rule:nonzero;"/>
                </g>
            </g>
        </g>
    </g>
</svg>
