<?xml version="1.0" encoding="UTF-8" standalone="no"?>
<!DOCTYPE svg PUBLIC "-//W3C//DTD SVG 1.1//EN" "http://www.w3.org/Graphics/SVG/1.1/DTD/svg11.dtd">
<svg width="100%" height="100%" viewBox="0 0 59 11" version="1.1" xmlns="http://www.w3.org/2000/svg" xmlns:xlink="http://www.w3.org/1999/xlink" xml:space="preserve" xmlns:serif="http://www.serif.com/" style="fill-rule:evenodd;clip-rule:evenodd;stroke-linejoin:round;stroke-miterlimit:1.41421;">
    <g transform="matrix(1,0,0,1,-1010,-252)">
        <g transform="matrix(1,0,0,1,26,28)">
            <g transform="matrix(1,0,0,1,984,234)">
                <g id="VLAN-13">
                    <path d="M8.988,-9.954C9.221,-9.954 9.431,-9.879 9.618,-9.73C9.805,-9.581 9.898,-9.394 9.898,-9.17C9.898,-9.067 9.87,-8.951 9.814,-8.82L5.936,-0.476C5.852,-0.299 5.724,-0.161 5.551,-0.063C5.378,0.035 5.194,0.084 4.998,0.084C4.802,0.084 4.618,0.035 4.445,-0.063C4.272,-0.161 4.144,-0.299 4.06,-0.476L0.196,-8.82C0.14,-8.951 0.112,-9.063 0.112,-9.156C0.112,-9.389 0.208,-9.581 0.399,-9.73C0.59,-9.879 0.807,-9.954 1.05,-9.954C1.209,-9.954 1.356,-9.914 1.491,-9.835C1.626,-9.756 1.731,-9.637 1.806,-9.478L5.026,-2.324L8.246,-9.478C8.395,-9.795 8.643,-9.954 8.988,-9.954Z" style="fill:rgb(74,74,74);fill-rule:nonzero;"/>
                    <path d="M11.284,-0.224C11.135,-0.373 11.06,-0.579 11.06,-0.84L11.06,-9.044C11.06,-9.315 11.142,-9.532 11.305,-9.695C11.468,-9.858 11.685,-9.94 11.956,-9.94C12.236,-9.94 12.458,-9.858 12.621,-9.695C12.784,-9.532 12.866,-9.315 12.866,-9.044L12.866,-1.484L16.8,-1.484C17.36,-1.484 17.64,-1.237 17.64,-0.742C17.64,-0.247 17.36,0 16.8,0L11.914,0C11.643,0 11.433,-0.075 11.284,-0.224Z" style="fill:rgb(74,74,74);fill-rule:nonzero;"/>
                    <path d="M27.776,-0.714C27.776,-0.499 27.69,-0.317 27.517,-0.168C27.344,-0.019 27.146,0.056 26.922,0.056C26.773,0.056 26.633,0.016 26.502,-0.063C26.371,-0.142 26.269,-0.266 26.194,-0.434L25.354,-2.31L20.426,-2.31L19.586,-0.434C19.511,-0.266 19.409,-0.142 19.278,-0.063C19.147,0.016 19.003,0.056 18.844,0.056C18.629,0.056 18.433,-0.019 18.256,-0.168C18.079,-0.317 17.99,-0.499 17.99,-0.714C17.99,-0.835 18.018,-0.957 18.074,-1.078L21.938,-9.38C22.022,-9.567 22.15,-9.709 22.323,-9.807C22.496,-9.905 22.68,-9.954 22.876,-9.954C23.072,-9.954 23.256,-9.905 23.429,-9.807C23.602,-9.709 23.73,-9.567 23.814,-9.38L27.692,-1.078C27.748,-0.957 27.776,-0.835 27.776,-0.714ZM21.042,-3.71L24.738,-3.71L22.89,-7.868L21.042,-3.71Z" style="fill:rgb(74,74,74);fill-rule:nonzero;"/>
                    <path d="M37.233,-9.695C37.387,-9.532 37.464,-9.315 37.464,-9.044L37.464,-0.826C37.464,-0.555 37.385,-0.336 37.226,-0.168C37.067,0 36.862,0.084 36.61,0.084C36.311,0.084 36.083,-0.023 35.924,-0.238L30.814,-6.888L30.814,-0.826C30.814,-0.555 30.739,-0.336 30.59,-0.168C30.441,0 30.235,0.084 29.974,0.084C29.713,0.084 29.507,0 29.358,-0.168C29.209,-0.336 29.134,-0.555 29.134,-0.826L29.134,-9.044C29.134,-9.315 29.213,-9.532 29.372,-9.695C29.531,-9.858 29.741,-9.94 30.002,-9.94C30.291,-9.94 30.515,-9.833 30.674,-9.618L35.77,-2.996L35.77,-9.044C35.77,-9.315 35.847,-9.532 36.001,-9.695C36.155,-9.858 36.358,-9.94 36.61,-9.94C36.871,-9.94 37.079,-9.858 37.233,-9.695Z" style="fill:rgb(74,74,74);fill-rule:nonzero;"/>
                    <path d="M50.176,-0.742C50.176,-0.247 49.896,0 49.336,0L44.604,0C44.035,0 43.75,-0.247 43.75,-0.742C43.75,-1.218 44.035,-1.456 44.604,-1.456L46.06,-1.456L46.06,-7.84L44.716,-7.014C44.585,-6.939 44.469,-6.902 44.366,-6.902C44.17,-6.902 44.004,-6.986 43.869,-7.154C43.734,-7.322 43.666,-7.509 43.666,-7.714C43.666,-7.985 43.787,-8.195 44.03,-8.344L46.2,-9.688C46.48,-9.856 46.746,-9.94 46.998,-9.94C47.259,-9.94 47.469,-9.861 47.628,-9.702C47.787,-9.543 47.866,-9.324 47.866,-9.044L47.866,-1.456L49.336,-1.456C49.896,-1.456 50.176,-1.218 50.176,-0.742Z" style="fill:rgb(74,74,74);fill-rule:nonzero;"/>
                    <path d="M57.785,-4.221C58.098,-3.806 58.254,-3.29 58.254,-2.674C58.254,-1.825 57.941,-1.148 57.316,-0.644C56.691,-0.14 55.846,0.112 54.782,0.112C54.175,0.112 53.592,0.019 53.032,-0.168C52.472,-0.355 51.996,-0.616 51.604,-0.952C51.389,-1.139 51.282,-1.358 51.282,-1.61C51.282,-1.815 51.34,-1.99 51.457,-2.135C51.574,-2.28 51.711,-2.352 51.87,-2.352C51.963,-2.352 52.047,-2.336 52.122,-2.303C52.197,-2.27 52.299,-2.217 52.43,-2.142C52.822,-1.881 53.195,-1.68 53.55,-1.54C53.905,-1.4 54.292,-1.33 54.712,-1.33C55.328,-1.33 55.785,-1.454 56.084,-1.701C56.383,-1.948 56.532,-2.324 56.532,-2.828C56.532,-3.323 56.376,-3.689 56.063,-3.927C55.75,-4.165 55.267,-4.284 54.614,-4.284L53.816,-4.284C53.601,-4.284 53.436,-4.356 53.319,-4.501C53.202,-4.646 53.144,-4.811 53.144,-4.998C53.144,-5.194 53.202,-5.362 53.319,-5.502C53.436,-5.642 53.601,-5.712 53.816,-5.712L54.376,-5.712C55.655,-5.712 56.294,-6.193 56.294,-7.154C56.294,-7.602 56.159,-7.947 55.888,-8.19C55.617,-8.433 55.244,-8.554 54.768,-8.554C54.087,-8.554 53.359,-8.283 52.584,-7.742C52.453,-7.667 52.351,-7.614 52.276,-7.581C52.201,-7.548 52.117,-7.532 52.024,-7.532C51.865,-7.532 51.728,-7.604 51.611,-7.749C51.494,-7.894 51.436,-8.069 51.436,-8.274C51.436,-8.414 51.462,-8.533 51.513,-8.631C51.564,-8.729 51.646,-8.829 51.758,-8.932C52.15,-9.259 52.619,-9.518 53.165,-9.709C53.711,-9.9 54.269,-9.996 54.838,-9.996C55.809,-9.996 56.581,-9.758 57.155,-9.282C57.729,-8.806 58.016,-8.171 58.016,-7.378C58.007,-6.837 57.864,-6.363 57.589,-5.957C57.314,-5.551 56.929,-5.255 56.434,-5.068C57.022,-4.919 57.472,-4.636 57.785,-4.221Z" style="fill:rgb(74,74,74);fill-rule:nonzero;"/>
                </g>
            </g>
        </g>
    </g>
</svg>
