<?xml version="1.0" encoding="UTF-8"?>
<svg width="153px" height="139px" viewBox="0 0 153 139" version="1.1" xmlns="http://www.w3.org/2000/svg" xmlns:xlink="http://www.w3.org/1999/xlink">
    <!-- Generator: Sketch 52.6 (67491) - http://www.bohemiancoding.com/sketch -->
    <title>1</title>
    <desc>Created with Sketch.</desc>
    <g id="Page-1" stroke="none" stroke-width="1" fill="none" fill-rule="evenodd">
        <g id="Artboard-Copy-79" transform="translate(-87.000000, -209.000000)" fill-rule="nonzero">
            <g id="1" transform="translate(87.000000, 209.000000)">
                <g id="Group-2">
                    <path d="M114.482517,45.9769231 L114.482517,62.0153846 L38.5174825,62.0153846 L38.5174825,45.9769231 L34.2377622,45.9769231 L34.2377622,31.0076923 L14.979021,31.0076923 L14.979021,23.5230769 C14.979021,18.7989181 18.8112131,14.9692308 23.5384615,14.9692308 L91.4235041,14.9692308 C91.1097396,16.3486349 90.9440559,17.7843393 90.9440559,19.2587413 L90.9440559,45.9769231 L38.5174825,45.9769231 L38.5174825,115.476923 L38.5174825,107.992308 L114.482517,107.992308 L114.482517,45.9769231 L114.482517,45.9769231 Z M108.171127,0.105888548 C108.838785,0.0358876882 109.5166,-1.13560785e-13 110.202797,-1.13686838e-13 C120.839106,-1.15640696e-13 129.461538,8.62243216 129.461538,19.2587413 L129.461538,23.5230769 L129.461538,93.0230769 L153,93.0230769 L153,115.476923 C153,128.46836 142.461472,139 129.461538,139 L47.0769231,139 C34.0769897,139 23.5384615,128.46836 23.5384615,115.476923 L23.5384615,45.9769231 L0,45.9769231 L0,23.5230769 C-1.59203268e-15,10.5316403 10.5385282,5.70820677e-13 23.5384615,5.68434189e-13 L105.923077,5.68434189e-13 C106.681335,5.6829499e-13 107.431219,0.0358301069 108.171127,0.105888548 Z M114.482517,124.030769 L47.0769231,124.030769 L114.482517,124.030769 Z M129.461538,124.030769 C134.188787,124.030769 138.020979,120.201082 138.020979,115.476923 L138.020979,107.992308 L129.461538,107.992308 L129.461538,124.030769 Z M38.5174825,76.9846154 L114.482517,76.9846154 L114.482517,93.0230769 L38.5174825,93.0230769 L38.5174825,76.9846154 Z" id="Combined-Shape" fill="#FFB400"></path>
                    <path d="M128.02876,12.552125 C126.032103,8.89572173 122.151862,6.41538462 117.692308,6.41538462 C111.192341,6.41538462 105.923077,11.6846487 105.923077,18.1846154 L105.923077,45.9769231 L0,45.9769231 L3.55271368e-15,20 C2.20000618e-15,8.954305 8.954305,5.58177493e-15 20,3.55271368e-15 L109.461538,0 C117.874865,-1.54550309e-15 125.074847,5.19494942 128.02876,12.552125 Z" id="Path" fill="#FFD34C"></path>
                </g>
            </g>
        </g>
    </g>
</svg>