<?xml version="1.0" encoding="UTF-8"?>
<svg width="159px" height="137px" viewBox="0 0 159 137" version="1.1" xmlns="http://www.w3.org/2000/svg" xmlns:xlink="http://www.w3.org/1999/xlink">
    <!-- Generator: Sketch 52.6 (67491) - http://www.bohemiancoding.com/sketch -->
    <title>2</title>
    <desc>Created with Sketch.</desc>
    <g id="Page-1" stroke="none" stroke-width="1" fill="none" fill-rule="evenodd">
        <g id="Artboard-Copy-76" transform="translate(-512.000000, -210.000000)">
            <g id="2" transform="translate(481.000000, 210.000000)">
                <g id="Group-14">
                    <path d="M110.005748,75.9723931 C110.005748,75.9723931 89.8453912,68.6097065 85.4004907,56.3582966 C80.4231927,42.6438577 98.8766932,39.5132807 117.752928,40.0586649 C127.925082,40.3528853 140.35683,41.9217619 140.35683,41.9217619 C140.35683,41.9217619 110.985642,45.7152318 100.372182,54.4019103 C90.0090018,62.8849666 110.005748,75.9723931 110.005748,75.9723931" id="Fill-1" fill="#FF6C0C"></path>
                    <path d="M205.010788,92.4749501 L190.936158,92.4573093 C190.89323,58.2072678 163.099362,30.4073307 128.856817,30.3644119 L128.839172,16.2867009 C170.854921,16.3393624 204.958115,50.4500035 205.010788,92.4749501 Z" id="Oval-6" fill="#FF8D20" fill-rule="nonzero" transform="translate(166.924980, 54.380826) rotate(45.000000) translate(-166.924980, -54.380826) "></path>
                    <path d="M171.380363,78.5212638 L157.305734,78.503623 C157.282099,59.6471081 141.98006,44.3417273 123.127672,44.3180982 L123.110028,30.2403872 C149.735619,30.2737591 171.346984,51.8898438 171.380363,78.5212638 Z" id="Oval-6" fill="#FF6C0B" fill-rule="nonzero" transform="translate(147.245196, 54.380826) rotate(45.000000) translate(-147.245196, -54.380826) "></path>
                    <path d="M92.0621715,92.4701321 L77.9875417,92.4524913 C77.9446135,58.2024498 50.1507457,30.4025126 15.9082004,30.3595939 L15.8905557,16.2818829 C57.9063044,16.3345444 92.0094984,50.4451855 92.0621715,92.4701321 Z" id="Oval-6" fill="#FF8D20" fill-rule="nonzero" transform="translate(53.976364, 54.376007) scale(-1, 1) rotate(45.000000) translate(-53.976364, -54.376007) "></path>
                    <path d="M95.6827678,78.5164458 L81.608138,78.498805 C81.5845037,59.6422901 66.2824644,44.3369093 47.4300766,44.3132802 L47.4124319,30.2355692 C74.0380231,30.2689411 95.6493886,51.8850258 95.6827678,78.5164458 Z" id="Oval-6" fill="#FF6C0B" fill-rule="nonzero" transform="translate(71.547600, 54.376007) scale(-1, 1) rotate(45.000000) translate(-71.547600, -54.376007) "></path>
                </g>
                <path d="M117.490314,111.540161 C117.295708,105.840014 117.036998,98.2399277 116.777961,90.6391769 C116.695067,88.1594288 116.586601,84.914346 116.452563,80.9039284 L116.452574,80.9039281 C116.350058,77.8366269 113.833838,75.4031008 110.764824,75.4031008 L110.764824,75.4031008 C107.695811,75.4031008 105.179591,77.8366269 105.077075,80.9039281 C104.943048,84.914346 104.834582,88.1594288 104.751688,90.6391769 C104.492978,98.2399277 104.233613,105.840014 104.039335,111.540161 C104.022001,112.020216 104.00532,112.485975 103.988967,112.938436 L60.1389616,112.938436 C58.2437813,112.938436 56.7074341,114.474783 56.7074341,116.369963 L56.7074341,133.568472 C56.7074341,135.463653 58.2437813,137 60.1389616,137 L161.391014,137 C163.286195,137 164.822542,135.463653 164.822542,133.568472 L164.822542,116.369963 C164.822542,114.474783 163.286195,112.938436 161.391014,112.938436 L117.540355,112.938436 C117.524002,112.485975 117.507321,112.02088 117.490314,111.540161 Z" id="Shape" fill="#80808A" fill-rule="nonzero"></path>
                <path d="M110.764988,137 L110.764988,75.4049465 C110.813526,75.4037185 110.862213,75.4031008 110.911039,75.4031008 C113.971657,75.4031008 116.480917,77.8301157 116.582876,80.8890343 L116.582898,80.8890336 C116.716801,84.9063118 116.825139,88.1563595 116.907911,90.6391769 C117.166248,98.2399277 117.424259,105.840014 117.618337,111.540161 C117.635299,112.02088 117.651934,112.485975 117.668243,112.938436 L161.391014,112.938436 C163.286195,112.938436 164.822542,114.474783 164.822542,116.369963 L164.822542,133.568472 C164.822542,135.463653 163.286195,137 161.391014,137 L110.764988,137 Z" id="Combined-Shape" fill="#53535A" fill-rule="nonzero"></path>
            </g>
        </g>
    </g>
</svg>