<?xml version="1.0" encoding="UTF-8"?>
<svg width="145px" height="148px" viewBox="0 0 145 148" version="1.1" xmlns="http://www.w3.org/2000/svg" xmlns:xlink="http://www.w3.org/1999/xlink">
    <!-- Generator: Sketch 52.6 (67491) - http://www.bohemiancoding.com/sketch -->
    <title>3</title>
    <desc>Created with Sketch.</desc>
    <g id="Page-1" stroke="none" stroke-width="1" fill="none" fill-rule="evenodd" stroke-linecap="round" stroke-linejoin="round">
        <g id="Artboard-Copy-76" transform="translate(-925.000000, -206.000000)" fill-rule="nonzero" stroke-width="12">
            <g id="3" transform="translate(931.000000, 212.000000)">
                <polygon id="Path-18" stroke="#00CBFF" points="8.98969416 30 66.1747932 38.5 123.467115 30 88.2615439 82.2048 66.2284046 135.8 43.8142822 83"></polygon>
                <polygon id="Path-20" stroke="#3966B8" points="8.40681291 30 43.3443271 0.614292279 88.4326441 0.614292279 124.900934 29 131.860149 74.8 109.943358 116.8 66.4337248 135.6 21.9066164 118.7 1.01984821 76.7"></polygon>
                <polyline id="Path-21" stroke="#646AB9" points="0.892093415 76.128655 43.2154316 82.5 89.8276808 80.4 132.684852 74.8"></polyline>
                <polyline id="Path-22" stroke="#646AB9" points="43.7104815 0.614292279 65.8246082 38.5 89.6771126 80.5 109.854385 116.9"></polyline>
                <polyline id="Path-23" stroke="#646AB9" points="88.0676304 0.614292279 65.8268895 38.5 43.8758783 82.3 21.8153629 118.7"></polyline>
            </g>
        </g>
    </g>
</svg>