<?xml version="1.0" encoding="UTF-8"?>
<svg width="155px" height="138px" viewBox="0 0 155 138" version="1.1" xmlns="http://www.w3.org/2000/svg" xmlns:xlink="http://www.w3.org/1999/xlink">
    <!-- Generator: Sketch 52.6 (67491) - http://www.bohemiancoding.com/sketch -->
    <title>4</title>
    <desc>Created with Sketch.</desc>
    <g id="Page-1" stroke="none" stroke-width="1" fill="none" fill-rule="evenodd">
        <g id="Artboard-Copy-76" transform="translate(-1337.000000, -212.000000)" fill-rule="nonzero">
            <g id="4" transform="translate(1343.000000, 212.000000)">
                <path d="M143,132 L32,132 C14.326888,132 2.164332e-15,117.673112 0,100 L0,6" id="Path" stroke="#FFC000" stroke-width="12" stroke-linecap="round" stroke-linejoin="round"></path>
                <path d="M23.6239795,86.2090719 L23.6239795,86.2090719 C24.2017618,83.397181 26.9496349,81.5860782 29.7615257,82.1638606 C31.5106866,82.523275 32.9528894,83.7554284 33.5809775,85.4270287 L34.2795183,87.2861328 C35.2347096,89.8282892 38.0698701,91.1147785 40.6120264,90.1595872 C42.3245245,89.5161322 43.5382369,87.9751785 43.7625722,86.1595911 L46.9522354,60.345043 C47.3431881,57.1809894 50.22509,54.9329469 53.3891436,55.3238995 C55.7943791,55.6210921 57.7578804,57.389013 58.3048917,59.75 L61.0288991,71.5072442 C61.6860581,74.3436457 64.5181485,76.1102708 67.3545499,75.4531118 C69.2274326,75.0191881 70.7156076,73.6001418 71.2380582,71.75 L71.2380582,71.75 C72.1773043,68.4238705 75.6350744,66.4889191 78.9612039,67.4281652 C80.966404,67.9944018 82.5582678,69.521503 83.2072529,71.50147 L84.4019322,75.1462766 C85.5778422,78.7338209 89.4393849,80.6888368 93.0269292,79.5129268 C95.2929578,78.7701776 97.0081483,76.9002422 97.5528816,74.578642 L103.846114,47.7575006 C106.092797,38.1823567 115.676282,32.2414655 125.251426,34.4881487 C129.627491,35.5149355 133.453396,38.1585825 135.961516,41.8886719" id="Path-24" stroke="#FF7A18" stroke-width="8" stroke-linecap="round" stroke-linejoin="round"></path>
                <circle id="Oval" fill="#FF3D49" cx="25" cy="65" r="8"></circle>
                <circle id="Oval-Copy" fill="#FF3D49" cx="51" cy="29" r="8"></circle>
                <circle id="Oval-Copy-2" fill="#FF3D49" cx="77" cy="48" r="8"></circle>
                <circle id="Oval-Copy-3" fill="#FF3D49" cx="113" cy="8" r="8"></circle>
                <circle id="Oval-Copy-4" fill="#FF3D49" cx="92" cy="102" r="8"></circle>
                <circle id="Oval-Copy-5" fill="#FF3D49" cx="41" cy="106" r="8"></circle>
                <circle id="Oval-Copy-6" fill="#FF3D49" cx="65" cy="91" r="8"></circle>
            </g>
        </g>
    </g>
</svg>