<?xml version="1.0" encoding="UTF-8"?>
<svg width="119px" height="190px" viewBox="0 0 119 190" version="1.1" xmlns="http://www.w3.org/2000/svg" xmlns:xlink="http://www.w3.org/1999/xlink">
    <!-- Generator: Sketch 52.6 (67491) - http://www.bohemiancoding.com/sketch -->
    <title>6</title>
    <desc>Created with Sketch.</desc>
    <g id="Page-1" stroke="none" stroke-width="1" fill="none" fill-rule="evenodd">
        <g id="Artboard-Copy-77" transform="translate(-533.000000, -183.000000)">
            <g id="6" transform="translate(533.000000, 183.000000)">
                <path d="M23.1262032,58.3552421 C24.8005348,56.9321053 25.004107,54.4207263 23.581754,52.7462526 C19.4134973,47.8428632 17.1185027,41.5926 17.1185027,35.1473684 C17.1185027,20.1553579 29.3149305,7.95789474 44.3056684,7.95789474 C59.2964064,7.95789474 71.4928342,20.1553579 71.4928342,35.1473684 C71.4928342,41.5992316 69.193861,47.8541368 65.0202995,52.7588526 C63.5959572,54.432 63.7982032,56.9440421 65.4718717,58.3678421 C66.2205134,59.0051368 67.1369198,59.3168211 68.0486845,59.3168211 C69.174631,59.3168211 70.2939465,58.8413368 71.080385,57.9168947 C76.4780321,51.5737895 79.4500535,43.4872421 79.4500535,35.1473684 C79.4500535,15.7665789 63.6848128,0 44.3056684,0 C24.9265241,0 9.16128342,15.7665789 9.16128342,35.1473684 C9.16128342,43.4786211 12.1293262,51.5592 17.5176898,57.9003158 C18.941369,59.5747895 21.4505455,59.7777158 23.1262032,58.3552421 Z" id="Path" fill="#FF3D49"></path>
                <path d="M44.2035508,27.3227684 C52.9750588,27.3227684 59.9933262,32.6976632 62.3148449,40.5056842 C62.8194652,38.8066737 63.0946524,37.0101789 63.0946524,35.1473684 C63.0946524,24.7696105 54.6832086,16.3567895 44.3056684,16.3567895 C33.9294545,16.3567895 25.5173476,24.7696105 25.5173476,35.1473684 C25.5173476,36.8868316 25.7587166,38.5692632 26.2010053,40.1681368 C28.6239786,32.5451368 35.5606845,27.3227684 44.2035508,27.3227684 Z" id="Path" fill="#FF791A"></path>
                <path d="M118.284869,115.844388 C115.866978,101.439466 105.712995,99.1374497 100.942009,98.8666998 C99.4395681,98.7813687 98.044903,98.0198043 97.2205494,96.7610097 C93.764038,91.4839526 89.1316199,90.0884999 85.1971759,90.0884999 C82.3712789,90.0884999 79.9052749,90.808361 78.4939302,91.3280469 C78.3175121,91.3934888 78.1353204,91.424285 77.9569777,91.424285 C77.3988551,91.424285 76.8657517,91.1227389 76.5693693,90.6146016 C73.0589702,84.5920199 68.0679423,83.038095 63.8531539,83.038095 C61.3999802,83.038095 59.2104715,83.5641968 57.727918,84.0415378 C57.5733116,84.0909401 57.2377965,84.1146788 57.0857562,84.1146788 C56.2800067,84.1146788 55.3940672,83.4538437 55.3940672,82.590267 L55.3940672,51.619556 C55.3940672,44.5396381 50.1182042,41 44.8089822,41 C39.4997602,41 34.2238972,44.5396381 34.2238972,51.619556 L34.2238972,106.098032 C34.2238972,109.298912 31.7790633,111.27821 29.1443394,111.27821 C27.5437463,111.27821 26.0015315,110.548083 24.9410984,108.918451 L19.8493518,101.039115 C17.5988986,97.3256067 14.3476737,95.7857967 11.1086377,95.7851551 C3.78760797,95.7845135 -3.37304165,103.649734 1.71421435,112.045548 L43.1557844,170.57206 C43.4175247,171.073781 42.5893219,189.719337 43.1557844,189.719337 L99.4536816,189.719337 C100.257506,189.719337 100.922122,189.02963 100.970877,188.227646 L102.379656,165.248549 C102.395694,164.983573 102.483582,164.709615 102.629849,164.487626 C116.604727,143.319089 120.605889,129.675731 118.284869,115.844388 Z" id="Path" fill="#FFB400"></path>
            </g>
        </g>
    </g>
</svg>