<?xml version="1.0" encoding="UTF-8"?>
<svg width="158px" height="158px" viewBox="0 0 158 158" version="1.1" xmlns="http://www.w3.org/2000/svg" xmlns:xlink="http://www.w3.org/1999/xlink">
    <!-- Generator: Sketch 52.6 (67491) - http://www.bohemiancoding.com/sketch -->
    <title>8</title>
    <desc>Created with Sketch.</desc>
    <g id="Page-1" stroke="none" stroke-width="1" fill="none" fill-rule="evenodd">
        <g id="Artboard-Copy-77" transform="translate(-1271.000000, -199.000000)" fill-rule="nonzero">
            <g id="8" transform="translate(1271.000000, 199.000000)">
                <path d="M79,158 C35.3695048,158 0,122.630495 0,79 C0,35.3695048 35.3695048,0 79,0 C122.630495,0 158,35.3695048 158,79 C158,122.630495 122.630495,158 79,158 Z M20.557268,60.4854573 C20.1559419,61.4605686 20.1717196,62.5575391 20.6009237,63.520705 C21.4672183,65.4647344 23.7454361,66.338411 25.6894683,65.4721225 C45.80794,56.5069677 62.9358408,52.0243902 77.0731707,52.0243902 C91.2571887,52.0243902 108.451563,56.5366237 128.656293,65.5610906 C129.594092,65.9799595 130.6603,66.0071319 131.618218,65.6365754 C133.603188,64.8687182 134.589853,62.6371107 133.822004,60.6521373 C122.856442,32.3053095 103.940164,18.5106946 77.0731707,19.2682927 C50.395447,20.0205537 31.5568128,33.7596086 20.557268,60.4854573 Z M20.5076384,87.6192528 C10.9753209,95.4093094 59.5049632,147.267202 61.2249444,131.067818 C65.9949436,86.1422985 30.0399559,79.8291962 20.5076384,87.6192528 Z M137.492362,87.6192528 C127.960044,79.8291962 92.0050564,86.1422985 96.7750556,131.067818 C98.4950368,147.267202 147.024679,95.4093094 137.492362,87.6192528 Z" id="Combined-Shape" fill="#80808A"></path>
                <circle id="Oval" fill="#FF791A" cx="79" cy="79" r="19.2682927"></circle>
                <circle id="Oval" fill="#FFFFFF" cx="79" cy="79" r="7.70731707"></circle>
            </g>
        </g>
    </g>
</svg>