<?xml version="1.0" encoding="UTF-8"?>
<svg width="150px" height="144px" viewBox="0 0 150 144" version="1.1" xmlns="http://www.w3.org/2000/svg" xmlns:xlink="http://www.w3.org/1999/xlink">
    <!-- Generator: Sketch 52.6 (67491) - http://www.bohemiancoding.com/sketch -->
    <title>9</title>
    <desc>Created with Sketch.</desc>
    <g id="Page-1" stroke="none" stroke-width="1" fill="none" fill-rule="evenodd">
        <g id="Artboard-Copy-77" transform="translate(-1653.000000, -206.000000)" fill-rule="nonzero">
            <g id="9" transform="translate(1657.000000, 210.000000)">
                <path d="M103.971671,35.7454008 L107.807058,33.6017484 C109.253342,32.7933996 111.081083,33.3105484 111.889432,34.7568327 C112.183289,35.2825963 112.312083,35.8846394 112.259052,36.4846118 L110.390778,57.6218213 C110.244901,59.2722412 108.788715,60.4919141 107.138295,60.3460369 C106.80767,60.3168137 106.484187,60.2329263 106.181028,60.0977932 L85.8413293,51.0313838 C84.3280105,50.3568229 83.6480631,48.583196 84.322624,47.0698773 C84.6103652,46.4243549 85.1167702,45.9011451 85.7525585,45.592491 L90.7262638,43.1779223 L74.7934708,15.4690888 C74.385691,14.7599161 73.7937688,14.1746295 73.0806114,13.7753232 C70.9004144,12.5546018 68.1445378,13.3341842 66.9245392,15.5175383 L51.7839869,42.6136261 L38.5324794,35.1939301 L53.6713365,8.10087633 C58.9847967,-1.40828696 70.9943326,-4.80554448 80.4947363,0.513858387 C83.6012331,2.2532274 86.1790742,4.80217005 87.9545826,7.8899693 L103.971671,35.7454008 Z M92.1547103,129.73668 L92.0915195,134.137797 C92.067733,135.794481 90.7054429,137.118205 89.0487594,137.094419 C88.4463572,137.08577 87.8605144,136.895947 87.36751,136.549667 L70.0153051,124.361693 C68.6594798,123.409378 68.3323699,121.538261 69.2846849,120.182435 C69.4746304,119.912007 69.7079529,119.674821 69.9752258,119.480461 L87.9883476,106.381338 C89.3283525,105.406888 91.2045889,105.703228 92.179039,107.043233 C92.5954238,107.61582 92.7958898,108.317218 92.7449789,109.023362 L92.3471791,114.540924 L124.282381,114.583056 C125.099153,114.584133 125.901012,114.36376 126.602861,113.945282 C128.750284,112.664879 129.454519,109.883042 128.174925,107.732594 L112.304998,81.0620634 L125.349765,73.2841104 L141.221527,99.9577234 C146.7909,109.317448 143.725992,121.424299 134.374974,126.999851 C131.316736,128.823328 127.822157,129.783736 124.262363,129.77904 L92.1547103,129.73668 Z M16.7451806,72.4962582 L12.9675227,70.2399283 C11.5450796,69.3903276 11.0806991,67.5484721 11.9302998,66.1260289 C12.2385321,65.6099713 12.6946826,65.1984079 13.2396155,64.944694 L32.4603945,55.9957416 C33.9624286,55.2964135 35.7469852,55.9471352 36.4463133,57.4491692 C36.5864195,57.7500929 36.6756123,58.0721826 36.7102563,58.4023108 L39.0363375,80.5678994 C39.20926,82.2157052 38.013631,83.6916971 36.3658252,83.8646196 C35.6617593,83.9385051 34.9542471,83.7610246 34.3684182,83.3635672 L29.7979664,80.2627301 L13.7941618,107.92615 C13.3843965,108.634451 13.1738758,109.440717 13.1850066,110.259281 C13.2190368,112.761885 15.2724646,114.7622 17.7704803,114.728163 L48.7826123,114.305601 L48.9892274,129.500192 L17.9772065,129.922752 C7.09279585,130.07106 -1.85004548,121.359527 -1.99817432,110.466052 C-2.04661109,106.903986 -1.1304577,103.395241 0.653055802,100.312344 L16.7451806,72.4962582 Z" id="Combined-Shape" stroke="#724E84" stroke-width="4" fill="#5DBC9D"></path>
                <path d="M51,73 L55,73 L55,83 L51,83 L51,73 Z M63,73 L67,73 L67,83 L63,83 L63,73 Z M75,73 L79,73 L79,83 L75,83 L75,73 Z M87,73 L91,73 L91,83 L87,83 L87,73 Z M99,73 L103,73 L103,83 L99,83 L99,73 Z" id="Combined-Shape" fill="#724E84"></path>
            </g>
        </g>
    </g>
</svg>