<?xml version="1.0" encoding="UTF-8"?>
<svg width="119px" height="85px" viewBox="0 0 119 85" version="1.1" xmlns="http://www.w3.org/2000/svg" xmlns:xlink="http://www.w3.org/1999/xlink">
    <!-- Generator: Sketch 52.6 (67491) - http://www.bohemiancoding.com/sketch -->
    <title>Attain deployment fl</title>
    <desc>Created with Sketch.</desc>
    <g id="Page-1" stroke="none" stroke-width="1" fill="none" fill-rule="evenodd">
        <g id="Artboard-Copy-52" transform="translate(-1003.000000, -343.000000)" fill="#333333">
            <g id="Group-63-Copy" transform="translate(0.000000, 343.000000)">
                <path d="M1013.69922,10.4892578 L1010.75586,2.84082031 L1007.80176,10.4892578 L1013.69922,10.4892578 Z M1015.54688,15.2910156 L1014.36523,12.2294922 L1007.13574,12.2294922 L1005.9541,15.2910156 C1005.85384,15.5559909 1005.70524,15.752929 1005.5083,15.8818359 C1005.31136,16.0107428 1005.09115,16.0751953 1004.84766,16.0751953 C1004.62565,16.0751953 1004.41081,16.0214849 1004.20312,15.9140625 C1003.82357,15.7063792 1003.63379,15.4091816 1003.63379,15.0224609 C1003.63379,14.8863925 1003.66243,14.7503262 1003.71973,14.6142578 L1008.75781,2.05664062 C1009.00846,1.42642914 1009.28955,1.00748802 1009.60107,0.799804688 C1009.9126,0.592121357 1010.29752,0.48828125 1010.75586,0.48828125 C1011.20703,0.48828125 1011.58838,0.592121357 1011.8999,0.799804688 C1012.21143,1.00748802 1012.49251,1.42642914 1012.74316,2.05664062 L1017.78125,14.6142578 C1017.83854,14.7574877 1017.86719,14.8971347 1017.86719,15.0332031 C1017.86719,15.233725 1017.80811,15.41455 1017.68994,15.5756836 C1017.57178,15.7368172 1017.42139,15.8603511 1017.23877,15.9462891 C1017.05615,16.032227 1016.861,16.0751953 1016.65332,16.0751953 C1016.1735,16.0393878 1015.80469,15.7779972 1015.54688,15.2910156 Z M1023.67871,16.1289062 C1022.80501,16.1289062 1022.11393,15.8531929 1021.60547,15.3017578 C1021.097,14.7503228 1020.84277,13.9410861 1020.84277,12.8740234 L1020.84277,6.8046875 L1019.59668,6.8046875 C1019.33887,6.8046875 1019.14193,6.73844467 1019.00586,6.60595703 C1018.86979,6.47346939 1018.80176,6.30338646 1018.80176,6.09570312 C1018.80176,5.88801979 1018.868,5.71972721 1019.00049,5.59082031 C1019.13298,5.46191342 1019.32812,5.39746094 1019.58594,5.39746094 L1020.84277,5.39746094 L1021.13281,2.421875 C1021.16862,2.14973822 1021.28499,1.92415454 1021.48193,1.74511719 C1021.67887,1.56607983 1021.91699,1.4765625 1022.19629,1.4765625 C1022.43262,1.4765625 1022.62777,1.54817637 1022.78174,1.69140625 C1022.93571,1.83463613 1023.0127,2.04589704 1023.0127,2.32519531 L1023.0127,5.39746094 L1024.93555,5.39746094 C1025.19336,5.39746094 1025.38672,5.46549411 1025.51562,5.6015625 C1025.64453,5.73763089 1025.70898,5.90950417 1025.70898,6.1171875 C1025.70898,6.32487083 1025.64453,6.49137307 1025.51562,6.61669922 C1025.38672,6.74202537 1025.19336,6.8046875 1024.93555,6.8046875 L1023.0127,6.8046875 L1023.0127,12.4228516 C1023.0127,13.110355 1023.10937,13.6188135 1023.30273,13.9482422 C1023.49609,14.2776709 1023.8112,14.4423828 1024.24805,14.4423828 L1024.35547,14.4423828 L1025.11816,14.3994141 L1025.18262,14.3994141 C1025.44759,14.3994141 1025.65706,14.4835604 1025.81104,14.6518555 C1025.96501,14.8201506 1026.04199,15.0152984 1026.04199,15.2373047 C1026.04199,15.3518886 1026.02409,15.4557287 1025.98828,15.5488281 C1025.95247,15.6419275 1025.90592,15.7189125 1025.84863,15.7797852 C1025.79134,15.8406579 1025.71436,15.8925779 1025.61768,15.9355469 C1025.521,15.9785158 1025.42611,16.0125324 1025.33301,16.0375977 C1025.23991,16.0626629 1025.12354,16.0823567 1024.98389,16.0966797 C1024.84424,16.1110027 1024.71712,16.1199544 1024.60254,16.1235352 C1024.48796,16.1271159 1024.35189,16.1289062 1024.19434,16.1289062 L1023.67871,16.1289062 Z M1031.77832,16.1289062 C1030.90462,16.1289062 1030.21354,15.8531929 1029.70508,15.3017578 C1029.19661,14.7503228 1028.94238,13.9410861 1028.94238,12.8740234 L1028.94238,6.8046875 L1027.69629,6.8046875 C1027.43848,6.8046875 1027.24154,6.73844467 1027.10547,6.60595703 C1026.9694,6.47346939 1026.90137,6.30338646 1026.90137,6.09570312 C1026.90137,5.88801979 1026.96761,5.71972721 1027.1001,5.59082031 C1027.23259,5.46191342 1027.42773,5.39746094 1027.68555,5.39746094 L1028.94238,5.39746094 L1029.23242,2.421875 C1029.26823,2.14973822 1029.3846,1.92415454 1029.58154,1.74511719 C1029.77848,1.56607983 1030.0166,1.4765625 1030.2959,1.4765625 C1030.53223,1.4765625 1030.72738,1.54817637 1030.88135,1.69140625 C1031.03532,1.83463613 1031.1123,2.04589704 1031.1123,2.32519531 L1031.1123,5.39746094 L1033.03516,5.39746094 C1033.29297,5.39746094 1033.48633,5.46549411 1033.61523,5.6015625 C1033.74414,5.73763089 1033.80859,5.90950417 1033.80859,6.1171875 C1033.80859,6.32487083 1033.74414,6.49137307 1033.61523,6.61669922 C1033.48633,6.74202537 1033.29297,6.8046875 1033.03516,6.8046875 L1031.1123,6.8046875 L1031.1123,12.4228516 C1031.1123,13.110355 1031.20898,13.6188135 1031.40234,13.9482422 C1031.5957,14.2776709 1031.91081,14.4423828 1032.34766,14.4423828 L1032.45508,14.4423828 L1033.21777,14.3994141 L1033.28223,14.3994141 C1033.5472,14.3994141 1033.75667,14.4835604 1033.91064,14.6518555 C1034.06462,14.8201506 1034.1416,15.0152984 1034.1416,15.2373047 C1034.1416,15.3518886 1034.1237,15.4557287 1034.08789,15.5488281 C1034.05208,15.6419275 1034.00553,15.7189125 1033.94824,15.7797852 C1033.89095,15.8406579 1033.81397,15.8925779 1033.71729,15.9355469 C1033.6206,15.9785158 1033.52572,16.0125324 1033.43262,16.0375977 C1033.33952,16.0626629 1033.22315,16.0823567 1033.0835,16.0966797 C1032.94385,16.1110027 1032.81673,16.1199544 1032.70215,16.1235352 C1032.58756,16.1271159 1032.4515,16.1289062 1032.29395,16.1289062 L1031.77832,16.1289062 Z M1039.20117,16.171875 C1038.08398,16.171875 1037.17448,15.903323 1036.47266,15.3662109 C1035.77083,14.8290989 1035.41992,14.0664112 1035.41992,13.078125 C1035.41992,12.6555968 1035.46468,12.2849951 1035.5542,11.9663086 C1035.64372,11.6476221 1035.76725,11.3719087 1035.9248,11.1391602 C1036.08236,10.9064116 1036.30794,10.7094735 1036.60156,10.5483398 C1036.89518,10.3872062 1037.20849,10.2565109 1037.5415,10.15625 C1037.87451,10.0559891 1038.3042,9.97900417 1038.83057,9.92529297 C1039.35694,9.87158176 1039.88688,9.83577483 1040.42041,9.81787109 C1040.95394,9.79996736 1041.60742,9.79101562 1042.38086,9.79101562 L1042.38086,8.73828125 C1042.38086,7.29165943 1041.65756,6.56835938 1040.21094,6.56835938 C1039.78841,6.56835938 1039.35515,6.61669874 1038.91113,6.71337891 C1038.46712,6.81005908 1038.13233,6.90136676 1037.90674,6.98730469 C1037.68115,7.07324262 1037.38216,7.19498619 1037.00977,7.35253906 C1036.92383,7.38834653 1036.83431,7.40625 1036.74121,7.40625 C1036.6696,7.40625 1036.60156,7.39550792 1036.53711,7.37402344 C1036.47266,7.35253896 1036.41178,7.32210306 1036.35449,7.28271484 C1036.2972,7.24332663 1036.24528,7.19677761 1036.19873,7.14306641 C1036.15218,7.0893552 1036.11279,7.03206411 1036.08057,6.97119141 C1036.04834,6.91031871 1036.02327,6.84765657 1036.00537,6.78320312 C1035.98747,6.71874968 1035.97852,6.6542972 1035.97852,6.58984375 C1035.97852,6.46809835 1036.00716,6.3588872 1036.06445,6.26220703 C1036.12175,6.16552686 1036.21126,6.08496126 1036.33301,6.02050781 C1037.44304,5.4189423 1038.76073,5.11816406 1040.28613,5.11816406 C1041.60385,5.11816406 1042.64225,5.42610369 1043.40137,6.04199219 C1044.16049,6.65788068 1044.54004,7.6175065 1044.54004,8.92089844 L1044.54004,14.9794922 C1044.54004,15.3017594 1044.43262,15.5541983 1044.21777,15.7368164 C1044.00293,15.9194345 1043.75228,16.0107422 1043.46582,16.0107422 C1043.27962,16.0107422 1043.10954,15.9731449 1042.95557,15.8979492 C1042.80159,15.8227535 1042.67269,15.7081713 1042.56885,15.5541992 C1042.46501,15.4002271 1042.41309,15.2158214 1042.41309,15.0009766 L1042.41309,14.2060547 C1041.77571,15.5166081 1040.70509,16.171875 1039.20117,16.171875 Z M1039.41602,14.7539062 C1040.19662,14.7539062 1040.88411,14.4316438 1041.47852,13.7871094 C1042.07292,13.1425749 1042.37012,12.3225961 1042.37012,11.3271484 L1042.37012,11.0263672 C1041.68261,11.0263672 1041.1097,11.0353189 1040.65137,11.0532227 C1040.19303,11.0711264 1039.76872,11.1069333 1039.37842,11.1606445 C1038.98812,11.2143557 1038.68197,11.2841793 1038.45996,11.3701172 C1038.23795,11.4560551 1038.04639,11.574218 1037.88525,11.7246094 C1037.72412,11.8750008 1037.61491,12.0522451 1037.55762,12.2563477 C1037.50033,12.4604502 1037.47168,12.7057277 1037.47168,12.9921875 C1037.47168,13.593753 1037.64713,14.037759 1037.99805,14.3242188 C1038.34896,14.6106785 1038.82161,14.7539062 1039.41602,14.7539062 Z M1048.74023,16 C1048.43945,16 1048.18522,15.906902 1047.97754,15.7207031 C1047.76986,15.5345043 1047.66602,15.2659523 1047.66602,14.9150391 L1047.66602,6.375 C1047.66602,6.03840978 1047.77523,5.77343847 1047.99365,5.58007812 C1048.21208,5.38671778 1048.4681,5.29003906 1048.76172,5.29003906 C1049.04818,5.29003906 1049.29883,5.38671778 1049.51367,5.58007812 C1049.72852,5.77343847 1049.83594,6.03840978 1049.83594,6.375 L1049.83594,14.9150391 C1049.83594,15.2516293 1049.72673,15.5166006 1049.5083,15.7099609 C1049.28988,15.9033213 1049.03386,16 1048.74023,16 Z M1048.75098,2.9375 C1048.34993,2.9375 1048.02409,2.82112747 1047.77344,2.58837891 C1047.52279,2.35563035 1047.39746,2.04948106 1047.39746,1.66992188 C1047.39746,1.29036269 1047.52279,0.982423057 1047.77344,0.74609375 C1048.02409,0.509764443 1048.35351,0.391601562 1048.76172,0.391601562 C1049.16276,0.391601562 1049.48502,0.509764443 1049.72852,0.74609375 C1049.97201,0.982423057 1050.09375,1.29036269 1050.09375,1.66992188 C1050.09375,2.04948106 1049.97022,2.35563035 1049.72314,2.58837891 C1049.47607,2.82112747 1049.15202,2.9375 1048.75098,2.9375 Z M1053.96094,16 C1053.66732,16 1053.41488,15.9086923 1053.20361,15.7260742 C1052.99235,15.5434561 1052.88672,15.2910172 1052.88672,14.96875 L1052.88672,6.31054688 C1052.88672,5.98827964 1052.99414,5.73942145 1053.20898,5.56396484 C1053.42383,5.38850824 1053.67806,5.30078125 1053.97168,5.30078125 C1054.2653,5.30078125 1054.51774,5.38671789 1054.729,5.55859375 C1054.94027,5.73046961 1055.0459,5.97037606 1055.0459,6.27832031 L1055.0459,7.04101562 C1055.33236,6.41796563 1055.78174,5.94173342 1056.39404,5.61230469 C1057.00635,5.28287596 1057.7207,5.11816406 1058.53711,5.11816406 C1059.08854,5.11816406 1059.59521,5.19872966 1060.05713,5.35986328 C1060.51905,5.5209969 1060.93083,5.76448405 1061.29248,6.09033203 C1061.65414,6.41618001 1061.93522,6.84944391 1062.13574,7.39013672 C1062.33626,7.93082953 1062.43652,8.55207982 1062.43652,9.25390625 L1062.43652,14.96875 C1062.43652,15.2910172 1062.32731,15.5434561 1062.10889,15.7260742 C1061.89046,15.9086923 1061.63444,16 1061.34082,16 C1061.0472,16 1060.79476,15.9086923 1060.5835,15.7260742 C1060.37223,15.5434561 1060.2666,15.2910172 1060.2666,14.96875 L1060.2666,9.23242188 C1060.2666,8.37304258 1060.05892,7.71777569 1059.64355,7.26660156 C1059.22819,6.81542743 1058.66602,6.58984375 1057.95703,6.58984375 C1057.16211,6.58984375 1056.48535,6.88525095 1055.92676,7.47607422 C1055.36816,8.06689749 1055.07454,8.86360176 1055.0459,9.86621094 L1055.0459,14.96875 C1055.0459,15.2910172 1054.93848,15.5434561 1054.72363,15.7260742 C1054.50879,15.9086923 1054.25456,16 1053.96094,16 Z M1008.52148,48.171875 C1007.77669,48.171875 1007.1071,48.0196955 1006.5127,47.715332 C1005.91829,47.4109685 1005.43311,46.9991888 1005.05713,46.4799805 C1004.68115,45.9607721 1004.3929,45.3681674 1004.19238,44.7021484 C1003.99186,44.0361295 1003.8916,43.3271522 1003.8916,42.5751953 C1003.8916,40.9710206 1004.32128,39.6604869 1005.18066,38.6435547 C1006.04004,37.6266225 1007.20735,37.1181641 1008.68262,37.1181641 C1010.30111,37.1181641 1011.45768,37.7447854 1012.15234,38.9980469 L1012.15234,33.6269531 C1012.15234,33.3046859 1012.25976,33.0558277 1012.47461,32.8803711 C1012.68945,32.7049145 1012.94368,32.6171875 1013.2373,32.6171875 C1013.53093,32.6171875 1013.78336,32.7049145 1013.99463,32.8803711 C1014.20589,33.0558277 1014.31152,33.3046859 1014.31152,33.6269531 L1014.31152,46.9580078 C1014.31152,47.280275 1014.2041,47.5327139 1013.98926,47.715332 C1013.77441,47.8979501 1013.52018,47.9892578 1013.22656,47.9892578 C1012.88281,47.9892578 1012.61784,47.9015308 1012.43164,47.7260742 C1012.24544,47.5506176 1012.15234,47.294598 1012.15234,46.9580078 L1012.15234,46.1953125 C1011.44336,47.5130274 1010.23308,48.171875 1008.52148,48.171875 Z M1008.96191,46.7001953 C1009.55632,46.7001953 1010.06299,46.6017262 1010.48193,46.4047852 C1010.90088,46.2078441 1011.22851,45.9231789 1011.46484,45.5507812 C1011.70117,45.1783836 1011.87305,44.752281 1011.98047,44.2724609 C1012.08789,43.7926408 1012.1416,43.2376334 1012.1416,42.6074219 C1012.1416,42.1920552 1012.10758,41.7945983 1012.03955,41.4150391 C1011.97152,41.0354799 1011.85693,40.6720395 1011.6958,40.324707 C1011.53467,39.9773746 1011.33773,39.6765963 1011.10498,39.4223633 C1010.87223,39.1681302 1010.57862,38.9658211 1010.22412,38.8154297 C1009.86963,38.6650383 1009.47396,38.5898438 1009.03711,38.5898438 C1008.49284,38.5898438 1008.02018,38.709797 1007.61914,38.949707 C1007.2181,39.1896171 1006.90837,39.5100891 1006.68994,39.9111328 C1006.47152,40.3121765 1006.31038,40.738279 1006.20654,41.1894531 C1006.1027,41.6406273 1006.05078,42.1132788 1006.05078,42.6074219 C1006.05078,43.087242 1006.09912,43.5509418 1006.1958,43.9985352 C1006.29248,44.4461285 1006.44466,44.8793924 1006.65234,45.2983398 C1006.86003,45.7172873 1007.1626,46.0538724 1007.56006,46.3081055 C1007.95752,46.5623385 1008.4248,46.6930338 1008.96191,46.7001953 Z M1022.18555,48.171875 C1020.5957,48.157552 1019.30127,47.6508839 1018.30225,46.6518555 C1017.30322,45.652827 1016.80371,44.2939539 1016.80371,42.5751953 C1016.80371,41.8447229 1016.92008,41.1536491 1017.15283,40.5019531 C1017.38558,39.8502572 1017.71679,39.2719752 1018.14648,38.7670898 C1018.57617,38.2622045 1019.12223,37.8611669 1019.78467,37.5639648 C1020.44711,37.2667628 1021.18294,37.1181641 1021.99219,37.1181641 C1022.81576,37.1181641 1023.54443,37.2578111 1024.17822,37.5371094 C1024.81201,37.8164076 1025.31689,38.1995418 1025.69287,38.6865234 C1026.06885,39.173505 1026.35531,39.7195608 1026.55225,40.324707 C1026.74919,40.9298533 1026.85482,41.5904912 1026.86914,42.3066406 C1026.86914,42.5429699 1026.81185,42.7363274 1026.69727,42.8867188 C1026.58268,43.0371101 1026.41081,43.1123047 1026.18164,43.1123047 L1018.98438,43.1123047 C1019.01302,44.3011127 1019.3317,45.185544 1019.94043,45.765625 C1020.54916,46.345706 1021.34765,46.6429036 1022.33594,46.6572266 C1022.92318,46.6572266 1023.46028,46.5480154 1023.94727,46.3295898 C1024.43425,46.1111643 1024.93196,45.8157571 1025.44043,45.4433594 C1025.51204,45.3932289 1025.58187,45.3556316 1025.6499,45.3305664 C1025.71794,45.3055012 1025.78776,45.2929688 1025.85938,45.2929688 C1025.98112,45.2929688 1026.09391,45.3269853 1026.19775,45.3950195 C1026.3016,45.4630537 1026.38395,45.5543614 1026.44482,45.6689453 C1026.5057,45.7835292 1026.53613,45.9052728 1026.53613,46.0341797 C1026.53613,46.1559251 1026.50928,46.274088 1026.45557,46.3886719 C1026.40186,46.5032558 1026.31771,46.6070959 1026.20312,46.7001953 C1025.09309,47.68132 1023.75391,48.171875 1022.18555,48.171875 Z M1019.00586,41.8017578 L1025,41.8017578 C1024.93555,40.8707636 1024.66341,40.1027048 1024.18359,39.4975586 C1023.70377,38.8924123 1023.00554,38.5898438 1022.08887,38.5898438 C1021.61621,38.5898438 1021.18653,38.6811514 1020.7998,38.8637695 C1020.41308,39.0463876 1020.09619,39.2934555 1019.84912,39.6049805 C1019.60205,39.9165055 1019.40869,40.2584617 1019.26904,40.6308594 C1019.12939,41.0032571 1019.04167,41.3935526 1019.00586,41.8017578 Z M1030.40332,52.0927734 C1030.11686,52.0927734 1029.86621,52.0032561 1029.65137,51.8242188 C1029.43652,51.6451814 1029.3291,51.3981136 1029.3291,51.0830078 L1029.3291,38.3320312 C1029.3291,38.009764 1029.43652,37.7573251 1029.65137,37.574707 C1029.86621,37.3920889 1030.12044,37.3007812 1030.41406,37.3007812 C1030.75781,37.3007812 1031.02279,37.3885082 1031.20898,37.5639648 C1031.39518,37.7394215 1031.48828,37.9918603 1031.48828,38.3212891 L1031.48828,39.0839844 C1032.19727,37.7734309 1033.40754,37.1181641 1035.11914,37.1181641 C1035.86394,37.1181641 1036.53353,37.2703435 1037.12793,37.574707 C1037.72233,37.8790705 1038.20752,38.2908503 1038.5835,38.8100586 C1038.95947,39.3292669 1039.24772,39.9200813 1039.44824,40.5825195 C1039.64876,41.2449577 1039.74902,41.9521447 1039.74902,42.7041016 C1039.74902,44.3082762 1039.31934,45.6206004 1038.45996,46.6411133 C1037.60058,47.6616262 1036.43328,48.171875 1034.95801,48.171875 C1033.33951,48.171875 1032.18295,47.541673 1031.48828,46.28125 L1031.48828,51.0830078 C1031.48828,51.3981136 1031.38086,51.6451814 1031.16602,51.8242188 C1030.95117,52.0032561 1030.69694,52.0927734 1030.40332,52.0927734 Z M1034.60352,46.7001953 C1035.04037,46.7001953 1035.43245,46.6196297 1035.77979,46.4584961 C1036.12712,46.2973625 1036.41178,46.0861016 1036.63379,45.824707 C1036.8558,45.5633125 1037.0402,45.2553729 1037.18701,44.9008789 C1037.33382,44.5463849 1037.43766,44.1865253 1037.49854,43.8212891 C1037.55941,43.4560529 1037.58984,43.0764994 1037.58984,42.6826172 C1037.58984,42.2027971 1037.5415,41.7390973 1037.44482,41.2915039 C1037.34814,40.8439105 1037.19596,40.4106466 1036.98828,39.9916992 C1036.7806,39.5727518 1036.47803,39.2343763 1036.08057,38.9765625 C1035.6831,38.7187487 1035.21582,38.5898438 1034.67871,38.5898438 C1034.08431,38.5898438 1033.57764,38.6883128 1033.15869,38.8852539 C1032.73974,39.082195 1032.41211,39.3668601 1032.17578,39.7392578 C1031.93945,40.1116555 1031.76758,40.537758 1031.66016,41.0175781 C1031.55273,41.4973982 1031.49902,42.0524057 1031.49902,42.6826172 C1031.49902,43.0979838 1031.53304,43.4954408 1031.60107,43.875 C1031.66911,44.2545592 1031.78369,44.6179996 1031.94482,44.965332 C1032.10596,45.3126645 1032.3029,45.6134427 1032.53564,45.8676758 C1032.76839,46.1219088 1033.06201,46.324218 1033.4165,46.4746094 C1033.771,46.6250008 1034.16666,46.7001953 1034.60352,46.7001953 Z M1043.36914,48 C1043.07552,48 1042.82487,47.906902 1042.61719,47.7207031 C1042.4095,47.5345043 1042.30566,47.2659523 1042.30566,46.9150391 L1042.30566,33.6914062 C1042.30566,33.3619775 1042.41308,33.1005869 1042.62793,32.9072266 C1042.84277,32.7138662 1043.097,32.6171875 1043.39062,32.6171875 C1043.68425,32.6171875 1043.93848,32.7138662 1044.15332,32.9072266 C1044.36817,33.1005869 1044.47559,33.3619775 1044.47559,33.6914062 L1044.47559,46.9150391 C1044.47559,47.2516293 1044.36458,47.5166006 1044.14258,47.7099609 C1043.92057,47.9033213 1043.66276,48 1043.36914,48 Z M1052.38184,46.7001953 C1053.42741,46.6930338 1054.24023,46.3313838 1054.82031,45.6152344 C1055.40039,44.899085 1055.69043,43.9108136 1055.69043,42.6503906 C1055.69043,41.3971292 1055.39681,40.4070674 1054.80957,39.6801758 C1054.22233,38.9532841 1053.41309,38.5898438 1052.38184,38.5898438 C1051.34342,38.5898438 1050.53239,38.9514938 1049.94873,39.6748047 C1049.36507,40.3981156 1049.07324,41.3899677 1049.07324,42.6503906 C1049.07324,43.9036521 1049.36686,44.8919235 1049.9541,45.6152344 C1050.54134,46.3385453 1051.35058,46.7001953 1052.38184,46.7001953 Z M1052.38184,48.171875 C1051.5153,48.171875 1050.73112,48.0232762 1050.0293,47.7260742 C1049.32747,47.4288722 1048.75456,47.0260442 1048.31055,46.5175781 C1047.86653,46.009112 1047.52637,45.425459 1047.29004,44.7666016 C1047.05371,44.1077441 1046.93555,43.4023475 1046.93555,42.6503906 C1046.93555,41.8912722 1047.05371,41.1805046 1047.29004,40.5180664 C1047.52637,39.8556282 1047.86832,39.2701848 1048.31592,38.7617188 C1048.76351,38.2532527 1049.33642,37.852215 1050.03467,37.5585938 C1050.73291,37.2649725 1051.5153,37.1181641 1052.38184,37.1181641 C1053.52051,37.1181641 1054.50699,37.3688126 1055.34131,37.8701172 C1056.17562,38.3714218 1056.79866,39.0356404 1057.21045,39.862793 C1057.62224,40.6899455 1057.82812,41.6191355 1057.82812,42.6503906 C1057.82812,43.395186 1057.70996,44.0987923 1057.47363,44.7612305 C1057.2373,45.4236687 1056.89714,46.009112 1056.45312,46.5175781 C1056.00911,47.0260442 1055.4362,47.4288722 1054.73438,47.7260742 C1054.03255,48.0232762 1053.24838,48.171875 1052.38184,48.171875 Z M1063.30664,51.7490234 C1063.10612,52.1572286 1062.80176,52.3613281 1062.39355,52.3613281 C1062.12142,52.3613281 1061.87793,52.2664398 1061.66309,52.0766602 C1061.44824,51.8868806 1061.34082,51.6595065 1061.34082,51.3945312 C1061.34082,51.2441399 1061.37663,51.0937508 1061.44824,50.9433594 L1063.47852,46.7324219 L1059.54688,38.8261719 C1059.4681,38.668619 1059.42871,38.5110685 1059.42871,38.3535156 C1059.42871,38.0813788 1059.53792,37.8486338 1059.75635,37.6552734 C1059.97477,37.4619131 1060.22363,37.3652344 1060.50293,37.3652344 C1060.62468,37.3652344 1060.74105,37.3867185 1060.85205,37.4296875 C1060.96305,37.4726565 1061.07047,37.5442703 1061.17432,37.6445312 C1061.27816,37.7447922 1061.36589,37.8665357 1061.4375,38.0097656 L1064.56348,44.4873047 L1067.73242,37.9238281 C1067.83984,37.7018218 1067.9777,37.5371099 1068.146,37.4296875 C1068.31429,37.3222651 1068.49154,37.2685547 1068.67773,37.2685547 C1068.95703,37.2685547 1069.20231,37.3634431 1069.41357,37.5532227 C1069.62484,37.7430023 1069.73047,37.973957 1069.73047,38.2460938 C1069.73047,38.3964851 1069.69466,38.5432936 1069.62305,38.6865234 L1063.30664,51.7490234 Z M1072.60938,48 C1072.31575,48 1072.06511,47.9104827 1071.85742,47.7314453 C1071.64974,47.552408 1071.5459,47.2981787 1071.5459,46.96875 L1071.5459,38.2998047 C1071.5459,37.9846989 1071.65332,37.7376311 1071.86816,37.5585938 C1072.08301,37.3795564 1072.33724,37.2900391 1072.63086,37.2900391 C1072.91732,37.2900391 1073.16976,37.3741854 1073.38818,37.5424805 C1073.60661,37.7107756 1073.71582,37.945311 1073.71582,38.2460938 L1073.71582,39.1054688 C1074.05241,38.4394498 1074.51969,37.9417334 1075.11768,37.6123047 C1075.71566,37.282876 1076.39778,37.1181641 1077.16406,37.1181641 C1078.05925,37.1181641 1078.81657,37.3383767 1079.43604,37.7788086 C1080.0555,38.2192405 1080.47624,38.8154259 1080.69824,39.5673828 C1081.00619,38.7509725 1081.48779,38.1386739 1082.14307,37.7304688 C1082.79834,37.3222636 1083.58431,37.1181641 1084.50098,37.1181641 C1085.05241,37.1181641 1085.56087,37.1969393 1086.02637,37.3544922 C1086.49186,37.5120451 1086.90543,37.7519515 1087.26709,38.0742188 C1087.62875,38.396486 1087.91162,38.8243788 1088.11572,39.3579102 C1088.31983,39.8914415 1088.42188,40.5091111 1088.42188,41.2109375 L1088.42188,46.96875 C1088.42188,47.2981787 1088.31445,47.552408 1088.09961,47.7314453 C1087.88476,47.9104827 1087.62695,48 1087.32617,48 C1087.03255,48 1086.78011,47.9104827 1086.56885,47.7314453 C1086.35758,47.552408 1086.25195,47.2981787 1086.25195,46.96875 L1086.25195,41.1572266 C1086.25195,40.2978473 1086.0586,39.6533225 1085.67188,39.2236328 C1085.28515,38.7939432 1084.73015,38.5791016 1084.00684,38.5791016 C1083.14746,38.5791016 1082.44206,38.8780895 1081.89062,39.4760742 C1081.33919,40.074059 1081.06348,40.9244737 1081.06348,42.0273438 L1081.06348,46.9580078 C1081.06348,47.2874365 1080.95606,47.5434561 1080.74121,47.7260742 C1080.52637,47.9086923 1080.26856,48 1079.96777,48 C1079.67415,48 1079.42171,47.9086923 1079.21045,47.7260742 C1078.99919,47.5434561 1078.89355,47.2874365 1078.89355,46.9580078 L1078.89355,41.3291016 C1078.89355,40.3981073 1078.69841,39.7070335 1078.30811,39.2558594 C1077.9178,38.8046852 1077.36459,38.5791016 1076.64844,38.5791016 C1075.76041,38.5791016 1075.04964,38.8727184 1074.51611,39.4599609 C1073.98258,40.0472035 1073.71582,40.8564402 1073.71582,41.8876953 L1073.71582,46.96875 C1073.71582,47.2981787 1073.60661,47.552408 1073.38818,47.7314453 C1073.16976,47.9104827 1072.91016,48 1072.60938,48 Z M1096.18848,48.171875 C1094.59862,48.157552 1093.3042,47.6508839 1092.30518,46.6518555 C1091.30615,45.652827 1090.80664,44.2939539 1090.80664,42.5751953 C1090.80664,41.8447229 1090.92301,41.1536491 1091.15576,40.5019531 C1091.38851,39.8502572 1091.71972,39.2719752 1092.14941,38.7670898 C1092.5791,38.2622045 1093.12516,37.8611669 1093.7876,37.5639648 C1094.45004,37.2667628 1095.18587,37.1181641 1095.99512,37.1181641 C1096.81869,37.1181641 1097.54736,37.2578111 1098.18115,37.5371094 C1098.81494,37.8164076 1099.31982,38.1995418 1099.6958,38.6865234 C1100.07178,39.173505 1100.35823,39.7195608 1100.55518,40.324707 C1100.75212,40.9298533 1100.85775,41.5904912 1100.87207,42.3066406 C1100.87207,42.5429699 1100.81478,42.7363274 1100.7002,42.8867188 C1100.58561,43.0371101 1100.41374,43.1123047 1100.18457,43.1123047 L1092.9873,43.1123047 C1093.01595,44.3011127 1093.33463,45.185544 1093.94336,45.765625 C1094.55209,46.345706 1095.35058,46.6429036 1096.33887,46.6572266 C1096.92611,46.6572266 1097.46321,46.5480154 1097.9502,46.3295898 C1098.43718,46.1111643 1098.93489,45.8157571 1099.44336,45.4433594 C1099.51497,45.3932289 1099.5848,45.3556316 1099.65283,45.3305664 C1099.72087,45.3055012 1099.79069,45.2929688 1099.8623,45.2929688 C1099.98405,45.2929688 1100.09684,45.3269853 1100.20068,45.3950195 C1100.30453,45.4630537 1100.38688,45.5543614 1100.44775,45.6689453 C1100.50863,45.7835292 1100.53906,45.9052728 1100.53906,46.0341797 C1100.53906,46.1559251 1100.51221,46.274088 1100.4585,46.3886719 C1100.40478,46.5032558 1100.32064,46.6070959 1100.20605,46.7001953 C1099.09602,47.68132 1097.75684,48.171875 1096.18848,48.171875 Z M1093.00879,41.8017578 L1099.00293,41.8017578 C1098.93848,40.8707636 1098.66634,40.1027048 1098.18652,39.4975586 C1097.7067,38.8924123 1097.00847,38.5898438 1096.0918,38.5898438 C1095.61914,38.5898438 1095.18946,38.6811514 1094.80273,38.8637695 C1094.41601,39.0463876 1094.09912,39.2934555 1093.85205,39.6049805 C1093.60498,39.9165055 1093.41162,40.2584617 1093.27197,40.6308594 C1093.13232,41.0032571 1093.0446,41.3935526 1093.00879,41.8017578 Z M1104.40625,48 C1104.11263,48 1103.86019,47.9086923 1103.64893,47.7260742 C1103.43766,47.5434561 1103.33203,47.2910172 1103.33203,46.96875 L1103.33203,38.3105469 C1103.33203,37.9882796 1103.43945,37.7394215 1103.6543,37.5639648 C1103.86914,37.3885082 1104.12337,37.3007812 1104.41699,37.3007812 C1104.71061,37.3007812 1104.96305,37.3867179 1105.17432,37.5585938 C1105.38558,37.7304696 1105.49121,37.9703761 1105.49121,38.2783203 L1105.49121,39.0410156 C1105.77767,38.4179656 1106.22705,37.9417334 1106.83936,37.6123047 C1107.45166,37.282876 1108.16601,37.1181641 1108.98242,37.1181641 C1109.53386,37.1181641 1110.04053,37.1987297 1110.50244,37.3598633 C1110.96436,37.5209969 1111.37614,37.764484 1111.73779,38.090332 C1112.09945,38.41618 1112.38053,38.8494439 1112.58105,39.3901367 C1112.78158,39.9308295 1112.88184,40.5520798 1112.88184,41.2539062 L1112.88184,46.96875 C1112.88184,47.2910172 1112.77262,47.5434561 1112.5542,47.7260742 C1112.33577,47.9086923 1112.07975,48 1111.78613,48 C1111.49251,48 1111.24007,47.9086923 1111.02881,47.7260742 C1110.81754,47.5434561 1110.71191,47.2910172 1110.71191,46.96875 L1110.71191,41.2324219 C1110.71191,40.3730426 1110.50423,39.7177757 1110.08887,39.2666016 C1109.6735,38.8154274 1109.11133,38.5898438 1108.40234,38.5898438 C1107.60742,38.5898438 1106.93067,38.885251 1106.37207,39.4760742 C1105.81347,40.0668975 1105.51986,40.8636018 1105.49121,41.8662109 L1105.49121,46.96875 C1105.49121,47.2910172 1105.38379,47.5434561 1105.16895,47.7260742 C1104.9541,47.9086923 1104.69987,48 1104.40625,48 Z M1119.53125,48.1289062 C1118.65755,48.1289062 1117.96647,47.8531929 1117.45801,47.3017578 C1116.94954,46.7503228 1116.69531,45.9410861 1116.69531,44.8740234 L1116.69531,38.8046875 L1115.44922,38.8046875 C1115.1914,38.8046875 1114.99447,38.7384447 1114.8584,38.605957 C1114.72233,38.4734694 1114.6543,38.3033865 1114.6543,38.0957031 C1114.6543,37.8880198 1114.72054,37.7197272 1114.85303,37.5908203 C1114.98551,37.4619134 1115.18066,37.3974609 1115.43848,37.3974609 L1116.69531,37.3974609 L1116.98535,34.421875 C1117.02116,34.1497382 1117.13753,33.9241545 1117.33447,33.7451172 C1117.53141,33.5660798 1117.76953,33.4765625 1118.04883,33.4765625 C1118.28516,33.4765625 1118.48031,33.5481764 1118.63428,33.6914062 C1118.78825,33.8346361 1118.86523,34.045897 1118.86523,34.3251953 L1118.86523,37.3974609 L1120.78809,37.3974609 C1121.0459,37.3974609 1121.23926,37.4654941 1121.36816,37.6015625 C1121.49707,37.7376309 1121.56152,37.9095042 1121.56152,38.1171875 C1121.56152,38.3248708 1121.49707,38.4913731 1121.36816,38.6166992 C1121.23926,38.7420254 1121.0459,38.8046875 1120.78809,38.8046875 L1118.86523,38.8046875 L1118.86523,44.4228516 C1118.86523,45.110355 1118.96191,45.6188135 1119.15527,45.9482422 C1119.34863,46.2776709 1119.66373,46.4423828 1120.10059,46.4423828 L1120.20801,46.4423828 L1120.9707,46.3994141 L1121.03516,46.3994141 C1121.30013,46.3994141 1121.5096,46.4835604 1121.66357,46.6518555 C1121.81755,46.8201506 1121.89453,47.0152984 1121.89453,47.2373047 C1121.89453,47.3518886 1121.87663,47.4557287 1121.84082,47.5488281 C1121.80501,47.6419275 1121.75846,47.7189125 1121.70117,47.7797852 C1121.64388,47.8406579 1121.5669,47.8925779 1121.47021,47.9355469 C1121.37353,47.9785158 1121.27865,48.0125324 1121.18555,48.0375977 C1121.09245,48.0626629 1120.97607,48.0823567 1120.83643,48.0966797 C1120.69678,48.1110027 1120.56966,48.1199544 1120.45508,48.1235352 C1120.34049,48.1271159 1120.20443,48.1289062 1120.04688,48.1289062 L1119.53125,48.1289062 Z M1006.55566,80 C1006.26204,80 1006.00781,79.906902 1005.79297,79.7207031 C1005.57812,79.5345043 1005.4707,79.2731137 1005.4707,78.9365234 L1005.4707,70.8046875 L1004.1709,70.8046875 C1003.91308,70.8046875 1003.71794,70.7384447 1003.58545,70.605957 C1003.45296,70.4734694 1003.38672,70.3069671 1003.38672,70.1064453 C1003.38672,69.913085 1003.45296,69.7465827 1003.58545,69.6069336 C1003.71794,69.4672845 1003.91308,69.3974609 1004.1709,69.3974609 L1005.4707,69.3974609 L1005.4707,68.0869141 C1005.4707,65.680652 1006.54849,64.4775391 1008.7041,64.4775391 L1010.02539,64.4775391 C1010.25456,64.4775391 1010.43538,64.5634757 1010.56787,64.7353516 C1010.70036,64.9072274 1010.7666,65.1041656 1010.7666,65.3261719 C1010.7666,65.5481782 1010.70215,65.7397453 1010.57324,65.9008789 C1010.44434,66.0620125 1010.26172,66.1425781 1010.02539,66.1425781 L1009.1123,66.1425781 C1008.81868,66.1425781 1008.58952,66.1658526 1008.4248,66.2124023 C1008.26009,66.2589521 1008.11328,66.3645825 1007.98438,66.5292969 C1007.85547,66.6940112 1007.76595,66.9321273 1007.71582,67.2436523 C1007.66569,67.5551773 1007.64062,67.9759088 1007.64062,68.5058594 L1007.64062,69.3974609 L1009.34863,69.3974609 C1009.59929,69.3974609 1009.78906,69.4672845 1009.91797,69.6069336 C1010.04688,69.7465827 1010.11133,69.913085 1010.11133,70.1064453 C1010.11133,70.3141286 1010.04867,70.4824212 1009.92334,70.6113281 C1009.79801,70.740235 1009.60645,70.8046875 1009.34863,70.8046875 L1007.64062,70.8046875 L1007.64062,78.9365234 C1007.64062,79.2731137 1007.5332,79.5345043 1007.31836,79.7207031 C1007.10351,79.906902 1006.84929,80 1006.55566,80 Z M1013.36621,80 C1013.07259,80 1012.82194,79.906902 1012.61426,79.7207031 C1012.40657,79.5345043 1012.30273,79.2659523 1012.30273,78.9150391 L1012.30273,65.6914062 C1012.30273,65.3619775 1012.41016,65.1005869 1012.625,64.9072266 C1012.83984,64.7138662 1013.09407,64.6171875 1013.3877,64.6171875 C1013.68132,64.6171875 1013.93555,64.7138662 1014.15039,64.9072266 C1014.36524,65.1005869 1014.47266,65.3619775 1014.47266,65.6914062 L1014.47266,78.9150391 C1014.47266,79.2516293 1014.36165,79.5166006 1014.13965,79.7099609 C1013.91764,79.9033213 1013.65983,80 1013.36621,80 Z M1022.34668,80.171875 C1020.75683,80.157552 1019.46241,79.6508839 1018.46338,78.6518555 C1017.46435,77.652827 1016.96484,76.2939539 1016.96484,74.5751953 C1016.96484,73.8447229 1017.08122,73.1536491 1017.31396,72.5019531 C1017.54671,71.8502572 1017.87793,71.2719752 1018.30762,70.7670898 C1018.73731,70.2622045 1019.28336,69.8611669 1019.9458,69.5639648 C1020.60824,69.2667628 1021.34407,69.1181641 1022.15332,69.1181641 C1022.97689,69.1181641 1023.70556,69.2578111 1024.33936,69.5371094 C1024.97315,69.8164076 1025.47803,70.1995418 1025.854,70.6865234 C1026.22998,71.173505 1026.51644,71.7195608 1026.71338,72.324707 C1026.91032,72.9298533 1027.01595,73.5904912 1027.03027,74.3066406 C1027.03027,74.5429699 1026.97298,74.7363274 1026.8584,74.8867188 C1026.74381,75.0371101 1026.57194,75.1123047 1026.34277,75.1123047 L1019.14551,75.1123047 C1019.17415,76.3011127 1019.49284,77.185544 1020.10156,77.765625 C1020.71029,78.345706 1021.50878,78.6429036 1022.49707,78.6572266 C1023.08431,78.6572266 1023.62142,78.5480154 1024.1084,78.3295898 C1024.59538,78.1111643 1025.0931,77.8157571 1025.60156,77.4433594 C1025.67318,77.3932289 1025.743,77.3556316 1025.81104,77.3305664 C1025.87907,77.3055012 1025.94889,77.2929688 1026.02051,77.2929688 C1026.14225,77.2929688 1026.25505,77.3269853 1026.35889,77.3950195 C1026.46273,77.4630537 1026.54508,77.5543614 1026.60596,77.6689453 C1026.66683,77.7835292 1026.69727,77.9052728 1026.69727,78.0341797 C1026.69727,78.1559251 1026.67041,78.274088 1026.6167,78.3886719 C1026.56299,78.5032558 1026.47884,78.6070959 1026.36426,78.7001953 C1025.25423,79.68132 1023.91505,80.171875 1022.34668,80.171875 Z M1019.16699,73.8017578 L1025.16113,73.8017578 C1025.09668,72.8707636 1024.82455,72.1027048 1024.34473,71.4975586 C1023.86491,70.8924123 1023.16667,70.5898438 1022.25,70.5898438 C1021.77734,70.5898438 1021.34766,70.6811514 1020.96094,70.8637695 C1020.57422,71.0463876 1020.25733,71.2934555 1020.01025,71.6049805 C1019.76318,71.9165055 1019.56982,72.2584617 1019.43018,72.6308594 C1019.29053,73.0032571 1019.2028,73.3935526 1019.16699,73.8017578 Z M1037.24609,80 C1036.9095,80 1036.63021,79.8531916 1036.4082,79.5595703 L1033.46484,75.9501953 L1030.54297,79.6025391 C1030.32812,79.8675143 1030.08464,80 1029.8125,80 C1029.54752,80 1029.31299,79.9033213 1029.10889,79.7099609 C1028.90478,79.5166006 1028.80273,79.2981783 1028.80273,79.0546875 C1028.80273,78.8684887 1028.86719,78.7001961 1028.99609,78.5498047 L1032.2832,74.5214844 L1029.31836,70.890625 C1029.18229,70.7187491 1029.11426,70.5253917 1029.11426,70.3105469 C1029.11426,70.0384101 1029.22168,69.800294 1029.43652,69.5961914 C1029.65137,69.3920888 1029.90202,69.2900391 1030.18848,69.2900391 C1030.51074,69.2900391 1030.79004,69.4404282 1031.02637,69.7412109 L1033.70117,73.0175781 L1036.38672,69.6982422 C1036.60873,69.4261054 1036.85937,69.2900391 1037.13867,69.2900391 C1037.38932,69.2900391 1037.61133,69.3813467 1037.80469,69.5639648 C1037.99805,69.7465829 1038.09473,69.9596342 1038.09473,70.203125 C1038.09473,70.3821624 1038.02669,70.561197 1037.89062,70.7402344 L1034.87207,74.4570312 L1038.11621,78.4316406 C1038.25944,78.610678 1038.33105,78.8004547 1038.33105,79.0009766 C1038.33105,79.2659518 1038.22184,79.4986969 1038.00342,79.6992188 C1037.78499,79.8997406 1037.53255,80 1037.24609,80 Z M1041.92969,80 C1041.6289,80 1041.37468,79.906902 1041.16699,79.7207031 C1040.95931,79.5345043 1040.85547,79.2659523 1040.85547,78.9150391 L1040.85547,70.375 C1040.85547,70.0384098 1040.96468,69.7734385 1041.18311,69.5800781 C1041.40153,69.3867178 1041.65755,69.2900391 1041.95117,69.2900391 C1042.23763,69.2900391 1042.48828,69.3867178 1042.70312,69.5800781 C1042.91797,69.7734385 1043.02539,70.0384098 1043.02539,70.375 L1043.02539,78.9150391 C1043.02539,79.2516293 1042.91618,79.5166006 1042.69775,79.7099609 C1042.47933,79.9033213 1042.22331,80 1041.92969,80 Z M1041.94043,66.9375 C1041.53939,66.9375 1041.21354,66.8211275 1040.96289,66.5883789 C1040.71224,66.3556303 1040.58691,66.0494811 1040.58691,65.6699219 C1040.58691,65.2903627 1040.71224,64.9824231 1040.96289,64.7460938 C1041.21354,64.5097644 1041.54297,64.3916016 1041.95117,64.3916016 C1042.35222,64.3916016 1042.67448,64.5097644 1042.91797,64.7460938 C1043.16146,64.9824231 1043.2832,65.2903627 1043.2832,65.6699219 C1043.2832,66.0494811 1043.15967,66.3556303 1042.9126,66.5883789 C1042.66553,66.8211275 1042.34147,66.9375 1041.94043,66.9375 Z M1051.86621,80.171875 C1050.15461,80.171875 1048.94434,79.5130274 1048.23535,78.1953125 L1048.23535,78.9580078 C1048.23535,79.294598 1048.14225,79.5506176 1047.95605,79.7260742 C1047.76986,79.9015308 1047.50488,79.9892578 1047.16113,79.9892578 C1046.86751,79.9892578 1046.61328,79.8979501 1046.39844,79.715332 C1046.18359,79.5327139 1046.07617,79.280275 1046.07617,78.9580078 L1046.07617,65.6269531 C1046.07617,65.3046859 1046.1818,65.0558277 1046.39307,64.8803711 C1046.60433,64.7049145 1046.85677,64.6171875 1047.15039,64.6171875 C1047.44401,64.6171875 1047.69824,64.7049145 1047.91309,64.8803711 C1048.12793,65.0558277 1048.23535,65.3046859 1048.23535,65.6269531 L1048.23535,70.9980469 C1048.93002,69.7447854 1050.08658,69.1181641 1051.70508,69.1181641 C1053.18035,69.1181641 1054.34765,69.6266225 1055.20703,70.6435547 C1056.06641,71.6604869 1056.49609,72.9710206 1056.49609,74.5751953 C1056.49609,75.3271522 1056.39583,76.0361295 1056.19531,76.7021484 C1055.99479,77.3681674 1055.70654,77.9607721 1055.33057,78.4799805 C1054.95459,78.9991888 1054.4694,79.4109685 1053.875,79.715332 C1053.2806,80.0196955 1052.61101,80.171875 1051.86621,80.171875 Z M1051.42578,78.7001953 C1051.85547,78.6930338 1052.24398,78.6035165 1052.59131,78.4316406 C1052.93864,78.2597648 1053.21794,78.0359714 1053.4292,77.7602539 C1053.64046,77.4845364 1053.81592,77.1640643 1053.95557,76.7988281 C1054.09522,76.4335919 1054.19368,76.0701515 1054.25098,75.7084961 C1054.30827,75.3468406 1054.33691,74.9798196 1054.33691,74.6074219 C1054.33691,74.1132788 1054.28499,73.6406273 1054.18115,73.1894531 C1054.07731,72.738279 1053.91618,72.3121765 1053.69775,71.9111328 C1053.47933,71.5100891 1053.1696,71.1896171 1052.76855,70.949707 C1052.36751,70.709797 1051.89486,70.5898438 1051.35059,70.5898438 C1050.91373,70.5898438 1050.51807,70.6650383 1050.16357,70.8154297 C1049.80908,70.9658211 1049.51546,71.1681302 1049.28271,71.4223633 C1049.04997,71.6765963 1048.85303,71.9773746 1048.69189,72.324707 C1048.53076,72.6720395 1048.41618,73.0354799 1048.34814,73.4150391 C1048.28011,73.7945983 1048.24609,74.1920552 1048.24609,74.6074219 C1048.24609,75.2376334 1048.2998,75.7926408 1048.40723,76.2724609 C1048.51465,76.752281 1048.68652,77.1783836 1048.92285,77.5507812 C1049.15918,77.9231789 1049.48681,78.2078441 1049.90576,78.4047852 C1050.32471,78.6017262 1050.83138,78.7001953 1051.42578,78.7001953 Z M1060.10547,80 C1059.80469,80 1059.55046,79.906902 1059.34277,79.7207031 C1059.13509,79.5345043 1059.03125,79.2659523 1059.03125,78.9150391 L1059.03125,70.375 C1059.03125,70.0384098 1059.14046,69.7734385 1059.35889,69.5800781 C1059.57731,69.3867178 1059.83333,69.2900391 1060.12695,69.2900391 C1060.41341,69.2900391 1060.66406,69.3867178 1060.87891,69.5800781 C1061.09375,69.7734385 1061.20117,70.0384098 1061.20117,70.375 L1061.20117,78.9150391 C1061.20117,79.2516293 1061.09196,79.5166006 1060.87354,79.7099609 C1060.65511,79.9033213 1060.39909,80 1060.10547,80 Z M1060.11621,66.9375 C1059.71517,66.9375 1059.38932,66.8211275 1059.13867,66.5883789 C1058.88802,66.3556303 1058.7627,66.0494811 1058.7627,65.6699219 C1058.7627,65.2903627 1058.88802,64.9824231 1059.13867,64.7460938 C1059.38932,64.5097644 1059.71875,64.3916016 1060.12695,64.3916016 C1060.528,64.3916016 1060.85026,64.5097644 1061.09375,64.7460938 C1061.33724,64.9824231 1061.45898,65.2903627 1061.45898,65.6699219 C1061.45898,66.0494811 1061.33545,66.3556303 1061.08838,66.5883789 C1060.84131,66.8211275 1060.51725,66.9375 1060.11621,66.9375 Z M1065.41211,80 C1065.11849,80 1064.86784,79.906902 1064.66016,79.7207031 C1064.45247,79.5345043 1064.34863,79.2659523 1064.34863,78.9150391 L1064.34863,65.6914062 C1064.34863,65.3619775 1064.45605,65.1005869 1064.6709,64.9072266 C1064.88574,64.7138662 1065.13997,64.6171875 1065.43359,64.6171875 C1065.72722,64.6171875 1065.98144,64.7138662 1066.19629,64.9072266 C1066.41113,65.1005869 1066.51855,65.3619775 1066.51855,65.6914062 L1066.51855,78.9150391 C1066.51855,79.2516293 1066.40755,79.5166006 1066.18555,79.7099609 C1065.96354,79.9033213 1065.70573,80 1065.41211,80 Z M1070.80469,80 C1070.5039,80 1070.24968,79.906902 1070.04199,79.7207031 C1069.83431,79.5345043 1069.73047,79.2659523 1069.73047,78.9150391 L1069.73047,70.375 C1069.73047,70.0384098 1069.83968,69.7734385 1070.05811,69.5800781 C1070.27653,69.3867178 1070.53255,69.2900391 1070.82617,69.2900391 C1071.11263,69.2900391 1071.36328,69.3867178 1071.57812,69.5800781 C1071.79297,69.7734385 1071.90039,70.0384098 1071.90039,70.375 L1071.90039,78.9150391 C1071.90039,79.2516293 1071.79118,79.5166006 1071.57275,79.7099609 C1071.35433,79.9033213 1071.09831,80 1070.80469,80 Z M1070.81543,66.9375 C1070.41439,66.9375 1070.08854,66.8211275 1069.83789,66.5883789 C1069.58724,66.3556303 1069.46191,66.0494811 1069.46191,65.6699219 C1069.46191,65.2903627 1069.58724,64.9824231 1069.83789,64.7460938 C1070.08854,64.5097644 1070.41797,64.3916016 1070.82617,64.3916016 C1071.22722,64.3916016 1071.54948,64.5097644 1071.79297,64.7460938 C1072.03646,64.9824231 1072.1582,65.2903627 1072.1582,65.6699219 C1072.1582,66.0494811 1072.03467,66.3556303 1071.7876,66.5883789 C1071.54053,66.8211275 1071.21647,66.9375 1070.81543,66.9375 Z M1078.58203,80.1289062 C1077.70833,80.1289062 1077.01726,79.8531929 1076.50879,79.3017578 C1076.00032,78.7503228 1075.74609,77.9410861 1075.74609,76.8740234 L1075.74609,70.8046875 L1074.5,70.8046875 C1074.24219,70.8046875 1074.04525,70.7384447 1073.90918,70.605957 C1073.77311,70.4734694 1073.70508,70.3033865 1073.70508,70.0957031 C1073.70508,69.8880198 1073.77132,69.7197272 1073.90381,69.5908203 C1074.0363,69.4619134 1074.23144,69.3974609 1074.48926,69.3974609 L1075.74609,69.3974609 L1076.03613,66.421875 C1076.07194,66.1497382 1076.18831,65.9241545 1076.38525,65.7451172 C1076.58219,65.5660798 1076.82031,65.4765625 1077.09961,65.4765625 C1077.33594,65.4765625 1077.53109,65.5481764 1077.68506,65.6914062 C1077.83903,65.8346361 1077.91602,66.045897 1077.91602,66.3251953 L1077.91602,69.3974609 L1079.83887,69.3974609 C1080.09668,69.3974609 1080.29004,69.4654941 1080.41895,69.6015625 C1080.54785,69.7376309 1080.6123,69.9095042 1080.6123,70.1171875 C1080.6123,70.3248708 1080.54785,70.4913731 1080.41895,70.6166992 C1080.29004,70.7420254 1080.09668,70.8046875 1079.83887,70.8046875 L1077.91602,70.8046875 L1077.91602,76.4228516 C1077.91602,77.110355 1078.01269,77.6188135 1078.20605,77.9482422 C1078.39942,78.2776709 1078.71452,78.4423828 1079.15137,78.4423828 L1079.25879,78.4423828 L1080.02148,78.3994141 L1080.08594,78.3994141 C1080.35091,78.3994141 1080.56038,78.4835604 1080.71436,78.6518555 C1080.86833,78.8201506 1080.94531,79.0152984 1080.94531,79.2373047 C1080.94531,79.3518886 1080.92741,79.4557287 1080.8916,79.5488281 C1080.85579,79.6419275 1080.80925,79.7189125 1080.75195,79.7797852 C1080.69466,79.8406579 1080.61768,79.8925779 1080.521,79.9355469 C1080.42432,79.9785158 1080.32943,80.0125324 1080.23633,80.0375977 C1080.14323,80.0626629 1080.02686,80.0823567 1079.88721,80.0966797 C1079.74756,80.1110027 1079.62044,80.1199544 1079.50586,80.1235352 C1079.39128,80.1271159 1079.25521,80.1289062 1079.09766,80.1289062 L1078.58203,80.1289062 Z M1086.14453,83.7490234 C1085.94401,84.1572286 1085.63965,84.3613281 1085.23145,84.3613281 C1084.95931,84.3613281 1084.71582,84.2664398 1084.50098,84.0766602 C1084.28613,83.8868806 1084.17871,83.6595065 1084.17871,83.3945312 C1084.17871,83.2441399 1084.21452,83.0937508 1084.28613,82.9433594 L1086.31641,78.7324219 L1082.38477,70.8261719 C1082.30599,70.668619 1082.2666,70.5110685 1082.2666,70.3535156 C1082.2666,70.0813788 1082.37581,69.8486338 1082.59424,69.6552734 C1082.81266,69.4619131 1083.06152,69.3652344 1083.34082,69.3652344 C1083.46257,69.3652344 1083.57894,69.3867185 1083.68994,69.4296875 C1083.80094,69.4726565 1083.90837,69.5442703 1084.01221,69.6445312 C1084.11605,69.7447922 1084.20378,69.8665357 1084.27539,70.0097656 L1087.40137,76.4873047 L1090.57031,69.9238281 C1090.67773,69.7018218 1090.81559,69.5371099 1090.98389,69.4296875 C1091.15218,69.3222651 1091.32943,69.2685547 1091.51562,69.2685547 C1091.79492,69.2685547 1092.0402,69.3634431 1092.25146,69.5532227 C1092.46273,69.7430023 1092.56836,69.973957 1092.56836,70.2460938 C1092.56836,70.3964851 1092.53255,70.5432936 1092.46094,70.6865234 L1086.14453,83.7490234 Z" id="Attain-deployment-fl"></path>
            </g>
        </g>
    </g>
</svg>