<?xml version="1.0" encoding="UTF-8"?>
<svg width="171px" height="85px" viewBox="0 0 171 85" version="1.1" xmlns="http://www.w3.org/2000/svg" xmlns:xlink="http://www.w3.org/1999/xlink">
    <!-- Generator: Sketch 52.6 (67491) - http://www.bohemiancoding.com/sketch -->
    <title>Gain powerful wirele</title>
    <desc>Created with Sketch.</desc>
    <g id="Page-1" stroke="none" stroke-width="1" fill="none" fill-rule="evenodd">
        <g id="Artboard-Copy-52" transform="translate(-462.000000, -343.000000)" fill="#333333">
            <g id="Group-63-Copy" transform="translate(0.000000, 343.000000)">
                <path d="M470.765625,16.2363281 C469.655593,16.2363281 468.644048,16.0626645 467.730957,15.715332 C466.817867,15.3679996 466.028324,14.8649121 465.362305,14.2060547 C464.696286,13.5471972 464.180666,12.709315 463.81543,11.6923828 C463.450193,10.6754506 463.267578,9.52604808 463.267578,8.24414062 C463.267578,7.14843202 463.4305,6.12793441 463.756348,5.18261719 C464.082196,4.23729996 464.556638,3.39762737 465.179688,2.66357422 C465.802737,1.92952107 466.617345,1.35123909 467.623535,0.928710938 C468.629725,0.506182783 469.766595,0.294921875 471.03418,0.294921875 C472.702808,0.294921875 474.178053,0.55631249 475.459961,1.07910156 C475.832359,1.23665443 476.018555,1.51594852 476.018555,1.91699219 C476.018555,2.17480598 475.937989,2.40934139 475.776855,2.62060547 C475.615722,2.83186955 475.406251,2.9375 475.148438,2.9375 C475.048177,2.9375 474.969401,2.92317723 474.912109,2.89453125 C474.360674,2.74413987 473.939943,2.63492873 473.649902,2.56689453 C473.359862,2.49886034 472.971357,2.42724647 472.484375,2.35205078 C471.997393,2.27685509 471.542645,2.23925781 471.120117,2.23925781 C470.210607,2.23925781 469.413903,2.38427589 468.72998,2.67431641 C468.046058,2.96435692 467.496421,3.377927 467.081055,3.91503906 C466.665688,4.45215112 466.355958,5.07877246 466.151855,5.79492188 C465.947753,6.51107129 465.845703,7.31672729 465.845703,8.21191406 C465.845703,10.1311945 466.270015,11.6243436 467.118652,12.6914062 C467.967289,13.7584689 469.240226,14.2919922 470.9375,14.2919922 C471.961594,14.2919922 473.032221,14.1523451 474.149414,13.8730469 L474.149414,9.66210938 L471.442383,9.66210938 C471.184569,9.66210938 470.98226,9.56543065 470.835449,9.37207031 C470.688639,9.17870997 470.615234,8.96744906 470.615234,8.73828125 C470.615234,8.50195194 470.688639,8.28532 470.835449,8.08837891 C470.98226,7.89143782 471.184569,7.79296875 471.442383,7.79296875 L475.599609,7.79296875 C475.914715,7.79296875 476.156412,7.89322816 476.324707,8.09375 C476.493002,8.29427184 476.577148,8.55924314 476.577148,8.88867188 L476.577148,14.1416016 C476.577148,14.8362665 476.258467,15.2731111 475.621094,15.4521484 C473.880851,15.9749375 472.262377,16.2363281 470.765625,16.2363281 Z M482.345703,16.171875 C481.22851,16.171875 480.319014,15.903323 479.617188,15.3662109 C478.915361,14.8290989 478.564453,14.0664112 478.564453,13.078125 C478.564453,12.6555968 478.609212,12.2849951 478.69873,11.9663086 C478.788249,11.6476221 478.911783,11.3719087 479.069336,11.1391602 C479.226889,10.9064116 479.452472,10.7094735 479.746094,10.5483398 C480.039715,10.3872062 480.353026,10.2565109 480.686035,10.15625 C481.019045,10.0559891 481.448728,9.97900417 481.975098,9.92529297 C482.501467,9.87158176 483.03141,9.83577483 483.564941,9.81787109 C484.098473,9.79996736 484.751949,9.79101562 485.525391,9.79101562 L485.525391,8.73828125 C485.525391,7.29165943 484.802091,6.56835938 483.355469,6.56835938 C482.932941,6.56835938 482.499677,6.61669874 482.055664,6.71337891 C481.611651,6.81005908 481.276857,6.90136676 481.05127,6.98730469 C480.825682,7.07324262 480.526695,7.19498619 480.154297,7.35253906 C480.068359,7.38834653 479.978842,7.40625 479.885742,7.40625 C479.814127,7.40625 479.746094,7.39550792 479.681641,7.37402344 C479.617187,7.35253896 479.556315,7.32210306 479.499023,7.28271484 C479.441731,7.24332663 479.389811,7.19677761 479.343262,7.14306641 C479.296712,7.0893552 479.257324,7.03206411 479.225098,6.97119141 C479.192871,6.91031871 479.167806,6.84765657 479.149902,6.78320312 C479.131999,6.71874968 479.123047,6.6542972 479.123047,6.58984375 C479.123047,6.46809835 479.151692,6.3588872 479.208984,6.26220703 C479.266276,6.16552686 479.355794,6.08496126 479.477539,6.02050781 C480.587571,5.4189423 481.905266,5.11816406 483.430664,5.11816406 C484.748379,5.11816406 485.78678,5.42610369 486.545898,6.04199219 C487.305017,6.65788068 487.68457,7.6175065 487.68457,8.92089844 L487.68457,14.9794922 C487.68457,15.3017594 487.57715,15.5541983 487.362305,15.7368164 C487.14746,15.9194345 486.896811,16.0107422 486.610352,16.0107422 C486.424153,16.0107422 486.25407,15.9731449 486.100098,15.8979492 C485.946126,15.8227535 485.817221,15.7081713 485.713379,15.5541992 C485.609537,15.4002271 485.557617,15.2158214 485.557617,15.0009766 L485.557617,14.2060547 C484.920244,15.5166081 483.849617,16.171875 482.345703,16.171875 Z M482.560547,14.7539062 C483.34115,14.7539062 484.028643,14.4316438 484.623047,13.7871094 C485.217451,13.1425749 485.514648,12.3225961 485.514648,11.3271484 L485.514648,11.0263672 C484.827145,11.0263672 484.254234,11.0353189 483.795898,11.0532227 C483.337563,11.0711264 482.913251,11.1069333 482.522949,11.1606445 C482.132648,11.2143557 481.826499,11.2841793 481.604492,11.3701172 C481.382486,11.4560551 481.190919,11.574218 481.029785,11.7246094 C480.868652,11.8750008 480.75944,12.0522451 480.702148,12.2563477 C480.644856,12.4604502 480.616211,12.7057277 480.616211,12.9921875 C480.616211,13.593753 480.791665,14.037759 481.142578,14.3242188 C481.493491,14.6106785 481.966143,14.7539062 482.560547,14.7539062 Z M491.884766,16 C491.583983,16 491.329754,15.906902 491.12207,15.7207031 C490.914387,15.5345043 490.810547,15.2659523 490.810547,14.9150391 L490.810547,6.375 C490.810547,6.03840978 490.919758,5.77343847 491.138184,5.58007812 C491.356609,5.38671778 491.612629,5.29003906 491.90625,5.29003906 C492.19271,5.29003906 492.443358,5.38671778 492.658203,5.58007812 C492.873048,5.77343847 492.980469,6.03840978 492.980469,6.375 L492.980469,14.9150391 C492.980469,15.2516293 492.871258,15.5166006 492.652832,15.7099609 C492.434406,15.9033213 492.178387,16 491.884766,16 Z M491.895508,2.9375 C491.494464,2.9375 491.168621,2.82112747 490.917969,2.58837891 C490.667316,2.35563035 490.541992,2.04948106 490.541992,1.66992188 C490.541992,1.29036269 490.667316,0.982423057 490.917969,0.74609375 C491.168621,0.509764443 491.498045,0.391601562 491.90625,0.391601562 C492.307294,0.391601562 492.629556,0.509764443 492.873047,0.74609375 C493.116538,0.982423057 493.238281,1.29036269 493.238281,1.66992188 C493.238281,2.04948106 493.114747,2.35563035 492.867676,2.58837891 C492.620604,2.82112747 492.296551,2.9375 491.895508,2.9375 Z M497.105469,16 C496.811847,16 496.559409,15.9086923 496.348145,15.7260742 C496.13688,15.5434561 496.03125,15.2910172 496.03125,14.96875 L496.03125,6.31054688 C496.03125,5.98827964 496.138671,5.73942145 496.353516,5.56396484 C496.56836,5.38850824 496.82259,5.30078125 497.116211,5.30078125 C497.409832,5.30078125 497.662271,5.38671789 497.873535,5.55859375 C498.084799,5.73046961 498.19043,5.97037606 498.19043,6.27832031 L498.19043,7.04101562 C498.476889,6.41796563 498.926266,5.94173342 499.538574,5.61230469 C500.150882,5.28287596 500.86523,5.11816406 501.681641,5.11816406 C502.233076,5.11816406 502.739744,5.19872966 503.20166,5.35986328 C503.663577,5.5209969 504.075356,5.76448405 504.437012,6.09033203 C504.798667,6.41618001 505.079752,6.84944391 505.280273,7.39013672 C505.480795,7.93082953 505.581055,8.55207982 505.581055,9.25390625 L505.581055,14.96875 C505.581055,15.2910172 505.471844,15.5434561 505.253418,15.7260742 C505.034992,15.9086923 504.778973,16 504.485352,16 C504.19173,16 503.939291,15.9086923 503.728027,15.7260742 C503.516763,15.5434561 503.411133,15.2910172 503.411133,14.96875 L503.411133,9.23242188 C503.411133,8.37304258 503.203453,7.71777569 502.788086,7.26660156 C502.372719,6.81542743 501.81055,6.58984375 501.101562,6.58984375 C500.306637,6.58984375 499.629886,6.88525095 499.071289,7.47607422 C498.512693,8.06689749 498.219076,8.86360176 498.19043,9.86621094 L498.19043,14.96875 C498.19043,15.2910172 498.083009,15.5434561 497.868164,15.7260742 C497.653319,15.9086923 497.39909,16 497.105469,16 Z M515.882812,20.0927734 C515.596353,20.0927734 515.345704,20.0032561 515.130859,19.8242188 C514.916015,19.6451814 514.808594,19.3981136 514.808594,19.0830078 L514.808594,6.33203125 C514.808594,6.00976401 514.916015,5.75732513 515.130859,5.57470703 C515.345704,5.39208893 515.599933,5.30078125 515.893555,5.30078125 C516.237306,5.30078125 516.502278,5.38850824 516.688477,5.56396484 C516.874675,5.73942145 516.967773,5.99186033 516.967773,6.32128906 L516.967773,7.08398438 C517.676761,5.77343095 518.887036,5.11816406 520.598633,5.11816406 C521.343428,5.11816406 522.013018,5.27034353 522.607422,5.57470703 C523.201826,5.87907053 523.68701,6.29085027 524.062988,6.81005859 C524.438967,7.32926692 524.727213,7.92008132 524.927734,8.58251953 C525.128256,9.24495774 525.228516,9.95214468 525.228516,10.7041016 C525.228516,12.3082763 524.798832,13.6206004 523.939453,14.6411133 C523.080074,15.6616262 521.912768,16.171875 520.4375,16.171875 C518.819002,16.171875 517.662438,15.541673 516.967773,14.28125 L516.967773,19.0830078 C516.967773,19.3981136 516.860353,19.6451814 516.645508,19.8242188 C516.430663,20.0032561 516.176434,20.0927734 515.882812,20.0927734 Z M520.083008,14.7001953 C520.519859,14.7001953 520.911945,14.6196297 521.259277,14.4584961 C521.60661,14.2973625 521.891275,14.0861016 522.113281,13.824707 C522.335288,13.5633125 522.519693,13.2553729 522.666504,12.9008789 C522.813315,12.5463849 522.917155,12.1865253 522.978027,11.8212891 C523.0389,11.4560529 523.069336,11.0764994 523.069336,10.6826172 C523.069336,10.2027971 523.020997,9.73909729 522.924316,9.29150391 C522.827636,8.84391052 522.675457,8.41064663 522.467773,7.99169922 C522.26009,7.57275181 521.957522,7.23437629 521.560059,6.9765625 C521.162596,6.71874871 520.695315,6.58984375 520.158203,6.58984375 C519.563799,6.58984375 519.057131,6.68831282 518.638184,6.88525391 C518.219236,7.082195 517.891603,7.36686012 517.655273,7.73925781 C517.418944,8.11165551 517.247071,8.53775802 517.139648,9.01757812 C517.032226,9.49739823 516.978516,10.0524057 516.978516,10.6826172 C516.978516,11.0979838 517.012532,11.4954408 517.080566,11.875 C517.148601,12.2545592 517.263183,12.6179996 517.424316,12.965332 C517.58545,13.3126645 517.782388,13.6134427 518.015137,13.8676758 C518.247885,14.1219088 518.541502,14.324218 518.895996,14.4746094 C519.25049,14.6250008 519.646157,14.7001953 520.083008,14.7001953 Z M532.458008,14.7001953 C533.503586,14.6930338 534.316403,14.3313838 534.896484,13.6152344 C535.476565,12.899085 535.766602,11.9108136 535.766602,10.6503906 C535.766602,9.39712915 535.472985,8.40706744 534.885742,7.68017578 C534.2985,6.95328413 533.489263,6.58984375 532.458008,6.58984375 C531.419591,6.58984375 530.608564,6.95149378 530.024902,7.67480469 C529.441241,8.3981156 529.149414,9.38996766 529.149414,10.6503906 C529.149414,11.9036521 529.443031,12.8919235 530.030273,13.6152344 C530.617516,14.3385453 531.426753,14.7001953 532.458008,14.7001953 Z M532.458008,16.171875 C531.591467,16.171875 530.807295,16.0232762 530.105469,15.7260742 C529.403642,15.4288722 528.830731,15.0260442 528.386719,14.5175781 C527.942706,14.009112 527.60254,13.425459 527.366211,12.7666016 C527.129882,12.1077441 527.011719,11.4023475 527.011719,10.6503906 C527.011719,9.89127225 527.129882,9.18050461 527.366211,8.51806641 C527.60254,7.8556282 527.944496,7.27018483 528.39209,6.76171875 C528.839683,6.25325267 529.412594,5.85221501 530.11084,5.55859375 C530.809086,5.26497249 531.591467,5.11816406 532.458008,5.11816406 C533.596685,5.11816406 534.583166,5.3688126 535.41748,5.87011719 C536.251795,6.37142178 536.874835,7.0356404 537.286621,7.86279297 C537.698407,8.68994554 537.904297,9.61913547 537.904297,10.6503906 C537.904297,11.395186 537.786134,12.0987923 537.549805,12.7612305 C537.313475,13.4236687 536.97331,14.009112 536.529297,14.5175781 C536.085284,15.0260442 535.512373,15.4288722 534.810547,15.7260742 C534.10872,16.0232762 533.324549,16.171875 532.458008,16.171875 Z M552.051758,16 C551.321285,16 550.802085,15.5595747 550.494141,14.6787109 L547.9375,7.35253906 L545.370117,14.6787109 C545.069334,15.5595747 544.553715,16 543.823242,16 C543.1429,16 542.673829,15.5989623 542.416016,14.796875 L539.644531,6.60058594 C539.601562,6.47884054 539.580078,6.35709696 539.580078,6.23535156 C539.580078,6.15657513 539.59082,6.07959022 539.612305,6.00439453 C539.633789,5.92919884 539.662435,5.86116567 539.698242,5.80029297 C539.73405,5.73942027 539.775228,5.68391952 539.821777,5.63378906 C539.868327,5.5836586 539.922037,5.53889994 539.98291,5.49951172 C540.043783,5.4601235 540.106445,5.42610691 540.170898,5.39746094 C540.235352,5.36881496 540.303385,5.3473308 540.375,5.33300781 C540.446615,5.31868482 540.518229,5.31152344 540.589844,5.31152344 C540.797527,5.31152344 540.987304,5.36881453 541.15918,5.48339844 C541.331056,5.59798234 541.452799,5.76985563 541.524414,5.99902344 L543.995117,13.7333984 L546.519531,6.45019531 C546.784507,5.67675395 547.257158,5.29003906 547.9375,5.29003906 C548.61068,5.29003906 549.079751,5.67675395 549.344727,6.45019531 L551.869141,13.7333984 L554.350586,5.99902344 C554.422201,5.76985563 554.542154,5.59798234 554.710449,5.48339844 C554.878744,5.36881453 555.066731,5.31152344 555.274414,5.31152344 C555.346029,5.31152344 555.417643,5.31868482 555.489258,5.33300781 C555.560873,5.3473308 555.630696,5.36881496 555.69873,5.39746094 C555.766765,5.42610691 555.831217,5.4601235 555.89209,5.49951172 C555.952963,5.53889994 556.006673,5.5836586 556.053223,5.63378906 C556.099772,5.68391952 556.14095,5.73942027 556.176758,5.80029297 C556.212565,5.86116567 556.241211,5.92919884 556.262695,6.00439453 C556.28418,6.07959022 556.294922,6.15657513 556.294922,6.23535156 C556.294922,6.35709696 556.273438,6.47884054 556.230469,6.60058594 L553.458984,14.796875 C553.194009,15.5989623 552.724938,16 552.051758,16 Z M563.298828,16.171875 C561.708976,16.157552 560.414556,15.6508839 559.415527,14.6518555 C558.416499,13.652827 557.916992,12.2939539 557.916992,10.5751953 C557.916992,9.84472291 558.033365,9.15364909 558.266113,8.50195312 C558.498862,7.85025716 558.830076,7.27197518 559.259766,6.76708984 C559.689455,6.26220451 560.235511,5.86116685 560.897949,5.56396484 C561.560387,5.26676284 562.29622,5.11816406 563.105469,5.11816406 C563.929041,5.11816406 564.657712,5.2578111 565.291504,5.53710938 C565.925296,5.81640765 566.430174,6.19954184 566.806152,6.68652344 C567.182131,7.17350504 567.468586,7.71956078 567.665527,8.32470703 C567.862468,8.92985329 567.968099,9.59049121 567.982422,10.3066406 C567.982422,10.5429699 567.925131,10.7363274 567.810547,10.8867188 C567.695963,11.0371101 567.52409,11.1123047 567.294922,11.1123047 L560.097656,11.1123047 C560.126302,12.3011127 560.444984,13.185544 561.053711,13.765625 C561.662438,14.345706 562.460933,14.6429036 563.449219,14.6572266 C564.036461,14.6572266 564.573565,14.5480154 565.060547,14.3295898 C565.547528,14.1111643 566.045245,13.8157571 566.553711,13.4433594 C566.625326,13.3932289 566.695149,13.3556316 566.763184,13.3305664 C566.831218,13.3055012 566.901041,13.2929688 566.972656,13.2929688 C567.094402,13.2929688 567.207193,13.3269853 567.311035,13.3950195 C567.414877,13.4630537 567.497233,13.5543614 567.558105,13.6689453 C567.618978,13.7835292 567.649414,13.9052728 567.649414,14.0341797 C567.649414,14.1559251 567.622559,14.274088 567.568848,14.3886719 C567.515136,14.5032558 567.43099,14.6070959 567.316406,14.7001953 C566.206375,15.68132 564.867195,16.171875 563.298828,16.171875 Z M560.119141,9.80175781 L566.113281,9.80175781 C566.048828,8.87076357 565.776695,8.10270485 565.296875,7.49755859 C564.817055,6.89241234 564.11882,6.58984375 563.202148,6.58984375 C562.72949,6.58984375 562.299807,6.68115143 561.913086,6.86376953 C561.526365,7.04638763 561.209474,7.29345547 560.962402,7.60498047 C560.715331,7.91650546 560.521973,8.25846168 560.382324,8.63085938 C560.242675,9.00325707 560.154948,9.39355265 560.119141,9.80175781 Z M571.527344,16 C571.233722,16 570.983074,15.912273 570.775391,15.7368164 C570.567707,15.5613598 570.463867,15.3089209 570.463867,14.9794922 L570.463867,6.29980469 C570.463867,5.98469895 570.573078,5.73942145 570.791504,5.56396484 C571.009929,5.38850824 571.265949,5.30078125 571.55957,5.30078125 C571.674154,5.30078125 571.783365,5.31331368 571.887207,5.33837891 C571.991049,5.36344414 572.087727,5.40283176 572.177246,5.45654297 C572.266765,5.51025417 572.34554,5.57291631 572.413574,5.64453125 C572.481608,5.71614619 572.535319,5.80387318 572.574707,5.90771484 C572.614095,6.01155651 572.633789,6.12434835 572.633789,6.24609375 L572.612305,7.56738281 C572.791342,6.90136386 573.154782,6.34277569 573.702637,5.89160156 C574.250491,5.44042743 574.886064,5.21484375 575.609375,5.21484375 C575.867189,5.21484375 576.067708,5.30794178 576.210938,5.49414062 C576.354167,5.68033947 576.425781,5.90234246 576.425781,6.16015625 C576.425781,6.39648556 576.361329,6.60058508 576.232422,6.77246094 C576.103515,6.9443368 575.9209,7.03027344 575.68457,7.03027344 C574.732092,7.03027344 573.985517,7.25227643 573.444824,7.69628906 C572.904131,8.1403017 572.633789,8.81705274 572.633789,9.7265625 L572.633789,14.9794922 C572.633789,15.3017594 572.522788,15.552408 572.300781,15.7314453 C572.078775,15.9104827 571.820965,16 571.527344,16 Z M580.400391,16 C580.106769,16 579.85254,15.906902 579.637695,15.7207031 C579.42285,15.5345043 579.31543,15.2731137 579.31543,14.9365234 L579.31543,6.8046875 L578.015625,6.8046875 C577.757811,6.8046875 577.562663,6.73844467 577.430176,6.60595703 C577.297688,6.47346939 577.231445,6.30696715 577.231445,6.10644531 C577.231445,5.91308497 577.297688,5.74658273 577.430176,5.60693359 C577.562663,5.46728446 577.757811,5.39746094 578.015625,5.39746094 L579.31543,5.39746094 L579.31543,4.08691406 C579.31543,1.68065203 580.393218,0.477539062 582.548828,0.477539062 L583.870117,0.477539062 C584.099285,0.477539062 584.28011,0.563475703 584.412598,0.735351562 C584.545085,0.907227422 584.611328,1.10416556 584.611328,1.32617188 C584.611328,1.54817819 584.546876,1.73974529 584.417969,1.90087891 C584.289062,2.06201252 584.106446,2.14257812 583.870117,2.14257812 L582.957031,2.14257812 C582.66341,2.14257812 582.434246,2.16585263 582.269531,2.21240234 C582.104817,2.25895206 581.958008,2.36458251 581.829102,2.52929688 C581.700195,2.69401124 581.610677,2.93212735 581.560547,3.24365234 C581.510416,3.55517734 581.485352,3.97590881 581.485352,4.50585938 L581.485352,5.39746094 L583.193359,5.39746094 C583.444012,5.39746094 583.633788,5.46728446 583.762695,5.60693359 C583.891602,5.74658273 583.956055,5.91308497 583.956055,6.10644531 C583.956055,6.31412864 583.893393,6.48242123 583.768066,6.61132812 C583.64274,6.74023502 583.451173,6.8046875 583.193359,6.8046875 L581.485352,6.8046875 L581.485352,14.9365234 C581.485352,15.2731137 581.377931,15.5345043 581.163086,15.7207031 C580.948241,15.906902 580.694012,16 580.400391,16 Z M589.821289,16.171875 C588.67545,16.171875 587.742679,15.8263381 587.022949,15.1352539 C586.303219,14.4441697 585.943359,13.407559 585.943359,12.0253906 L585.943359,6.33203125 C585.943359,6.00260252 586.05078,5.74658294 586.265625,5.56396484 C586.48047,5.38134674 586.734699,5.29003906 587.02832,5.29003906 C587.321942,5.29003906 587.57438,5.38134674 587.785645,5.56396484 C587.996909,5.74658294 588.102539,6.00260252 588.102539,6.33203125 L588.102539,12.046875 C588.102539,12.9134158 588.306639,13.5722634 588.714844,14.0234375 C589.123049,14.4746116 589.681637,14.7001953 590.390625,14.7001953 C591.192712,14.7001953 591.874834,14.4029978 592.437012,13.8085938 C592.999189,13.2141897 593.294596,12.4192758 593.323242,11.4238281 L593.323242,6.33203125 C593.323242,6.00260252 593.430663,5.74658294 593.645508,5.56396484 C593.860353,5.38134674 594.118163,5.29003906 594.418945,5.29003906 C594.712567,5.29003906 594.965005,5.38134674 595.17627,5.56396484 C595.387534,5.74658294 595.493164,6.00260252 595.493164,6.33203125 L595.493164,14.9794922 C595.493164,15.3017594 595.385743,15.552408 595.170898,15.7314453 C594.956054,15.9104827 594.698244,16 594.397461,16 C594.10384,16 593.851401,15.9140634 593.640137,15.7421875 C593.428873,15.5703116 593.323242,15.3304052 593.323242,15.0224609 L593.323242,14.2490234 C593.036782,14.8649119 592.585615,15.3393538 591.969727,15.6723633 C591.353838,16.0053728 590.637699,16.171875 589.821289,16.171875 Z M599.779297,16 C599.485676,16 599.235027,15.906902 599.027344,15.7207031 C598.81966,15.5345043 598.71582,15.2659523 598.71582,14.9150391 L598.71582,1.69140625 C598.71582,1.36197752 598.823241,1.1005869 599.038086,0.907226562 C599.252931,0.713866221 599.50716,0.6171875 599.800781,0.6171875 C600.094403,0.6171875 600.348632,0.713866221 600.563477,0.907226562 C600.778321,1.1005869 600.885742,1.36197752 600.885742,1.69140625 L600.885742,14.9150391 C600.885742,15.2516293 600.774741,15.5166006 600.552734,15.7099609 C600.330728,15.9033213 600.072918,16 599.779297,16 Z M475.331055,48 C474.600582,48 474.081382,47.5595747 473.773438,46.6787109 L471.216797,39.3525391 L468.649414,46.6787109 C468.348631,47.5595747 467.833011,48 467.102539,48 C466.422197,48 465.953126,47.5989623 465.695312,46.796875 L462.923828,38.6005859 C462.880859,38.4788405 462.859375,38.357097 462.859375,38.2353516 C462.859375,38.1565751 462.870117,38.0795902 462.891602,38.0043945 C462.913086,37.9291988 462.941732,37.8611657 462.977539,37.800293 C463.013347,37.7394203 463.054525,37.6839195 463.101074,37.6337891 C463.147624,37.5836586 463.201334,37.5388999 463.262207,37.4995117 C463.32308,37.4601235 463.385742,37.4261069 463.450195,37.3974609 C463.514649,37.368815 463.582682,37.3473308 463.654297,37.3330078 C463.725912,37.3186848 463.797526,37.3115234 463.869141,37.3115234 C464.076824,37.3115234 464.266601,37.3688145 464.438477,37.4833984 C464.610352,37.5979823 464.732096,37.7698556 464.803711,37.9990234 L467.274414,45.7333984 L469.798828,38.4501953 C470.063803,37.6767539 470.536455,37.2900391 471.216797,37.2900391 C471.889977,37.2900391 472.359048,37.6767539 472.624023,38.4501953 L475.148438,45.7333984 L477.629883,37.9990234 C477.701498,37.7698556 477.821451,37.5979823 477.989746,37.4833984 C478.158041,37.3688145 478.346028,37.3115234 478.553711,37.3115234 C478.625326,37.3115234 478.69694,37.3186848 478.768555,37.3330078 C478.84017,37.3473308 478.909993,37.368815 478.978027,37.3974609 C479.046062,37.4261069 479.110514,37.4601235 479.171387,37.4995117 C479.232259,37.5388999 479.28597,37.5836586 479.33252,37.6337891 C479.379069,37.6839195 479.420247,37.7394203 479.456055,37.800293 C479.491862,37.8611657 479.520508,37.9291988 479.541992,38.0043945 C479.563477,38.0795902 479.574219,38.1565751 479.574219,38.2353516 C479.574219,38.357097 479.552735,38.4788405 479.509766,38.6005859 L476.738281,46.796875 C476.473306,47.5989623 476.004235,48 475.331055,48 Z M482.990234,48 C482.689452,48 482.435222,47.906902 482.227539,47.7207031 C482.019856,47.5345043 481.916016,47.2659523 481.916016,46.9150391 L481.916016,38.375 C481.916016,38.0384098 482.025227,37.7734385 482.243652,37.5800781 C482.462078,37.3867178 482.718097,37.2900391 483.011719,37.2900391 C483.298179,37.2900391 483.548827,37.3867178 483.763672,37.5800781 C483.978517,37.7734385 484.085938,38.0384098 484.085938,38.375 L484.085938,46.9150391 C484.085938,47.2516293 483.976726,47.5166006 483.758301,47.7099609 C483.539875,47.9033213 483.283856,48 482.990234,48 Z M483.000977,34.9375 C482.599933,34.9375 482.27409,34.8211275 482.023438,34.5883789 C481.772785,34.3556303 481.647461,34.0494811 481.647461,33.6699219 C481.647461,33.2903627 481.772785,32.9824231 482.023438,32.7460938 C482.27409,32.5097644 482.603514,32.3916016 483.011719,32.3916016 C483.412762,32.3916016 483.735025,32.5097644 483.978516,32.7460938 C484.222006,32.9824231 484.34375,33.2903627 484.34375,33.6699219 C484.34375,34.0494811 484.220216,34.3556303 483.973145,34.5883789 C483.726073,34.8211275 483.40202,34.9375 483.000977,34.9375 Z M488.22168,48 C487.928058,48 487.67741,47.912273 487.469727,47.7368164 C487.262043,47.5613598 487.158203,47.3089209 487.158203,46.9794922 L487.158203,38.2998047 C487.158203,37.9846989 487.267414,37.7394215 487.48584,37.5639648 C487.704265,37.3885082 487.960285,37.3007812 488.253906,37.3007812 C488.36849,37.3007812 488.477701,37.3133137 488.581543,37.3383789 C488.685385,37.3634441 488.782063,37.4028318 488.871582,37.456543 C488.961101,37.5102542 489.039876,37.5729163 489.10791,37.6445312 C489.175944,37.7161462 489.229655,37.8038732 489.269043,37.9077148 C489.308431,38.0115565 489.328125,38.1243483 489.328125,38.2460938 L489.306641,39.5673828 C489.485678,38.9013639 489.849118,38.3427757 490.396973,37.8916016 C490.944827,37.4404274 491.5804,37.2148438 492.303711,37.2148438 C492.561525,37.2148438 492.762044,37.3079418 492.905273,37.4941406 C493.048503,37.6803395 493.120117,37.9023425 493.120117,38.1601562 C493.120117,38.3964856 493.055665,38.6005851 492.926758,38.7724609 C492.797851,38.9443368 492.615236,39.0302734 492.378906,39.0302734 C491.426428,39.0302734 490.679853,39.2522764 490.13916,39.6962891 C489.598467,40.1403017 489.328125,40.8170527 489.328125,41.7265625 L489.328125,46.9794922 C489.328125,47.3017594 489.217124,47.552408 488.995117,47.7314453 C488.773111,47.9104827 488.515301,48 488.22168,48 Z M499.844727,48.171875 C498.254875,48.157552 496.960454,47.6508839 495.961426,46.6518555 C494.962397,45.652827 494.462891,44.2939539 494.462891,42.5751953 C494.462891,41.8447229 494.579263,41.1536491 494.812012,40.5019531 C495.04476,39.8502572 495.375974,39.2719752 495.805664,38.7670898 C496.235354,38.2622045 496.781409,37.8611669 497.443848,37.5639648 C498.106286,37.2667628 498.842118,37.1181641 499.651367,37.1181641 C500.474939,37.1181641 501.20361,37.2578111 501.837402,37.5371094 C502.471195,37.8164076 502.976072,38.1995418 503.352051,38.6865234 C503.728029,39.173505 504.014485,39.7195608 504.211426,40.324707 C504.408367,40.9298533 504.513997,41.5904912 504.52832,42.3066406 C504.52832,42.5429699 504.471029,42.7363274 504.356445,42.8867188 C504.241861,43.0371101 504.069988,43.1123047 503.84082,43.1123047 L496.643555,43.1123047 C496.672201,44.3011127 496.990882,45.185544 497.599609,45.765625 C498.208336,46.345706 499.006831,46.6429036 499.995117,46.6572266 C500.58236,46.6572266 501.119464,46.5480154 501.606445,46.3295898 C502.093427,46.1111643 502.591143,45.8157571 503.099609,45.4433594 C503.171224,45.3932289 503.241048,45.3556316 503.309082,45.3305664 C503.377116,45.3055012 503.44694,45.2929688 503.518555,45.2929688 C503.6403,45.2929688 503.753092,45.3269853 503.856934,45.3950195 C503.960775,45.4630537 504.043131,45.5543614 504.104004,45.6689453 C504.164877,45.7835292 504.195312,45.9052728 504.195312,46.0341797 C504.195312,46.1559251 504.168457,46.274088 504.114746,46.3886719 C504.061035,46.5032558 503.976889,46.6070959 503.862305,46.7001953 C502.752273,47.68132 501.413094,48.171875 499.844727,48.171875 Z M496.665039,41.8017578 L502.65918,41.8017578 C502.594726,40.8707636 502.322594,40.1027048 501.842773,39.4975586 C501.362953,38.8924123 500.664718,38.5898438 499.748047,38.5898438 C499.275388,38.5898438 498.845705,38.6811514 498.458984,38.8637695 C498.072264,39.0463876 497.755372,39.2934555 497.508301,39.6049805 C497.261229,39.9165055 497.067872,40.2584617 496.928223,40.6308594 C496.788574,41.0032571 496.700847,41.3935526 496.665039,41.8017578 Z M508.148438,48 C507.854816,48 507.604168,47.906902 507.396484,47.7207031 C507.188801,47.5345043 507.084961,47.2659523 507.084961,46.9150391 L507.084961,33.6914062 C507.084961,33.3619775 507.192382,33.1005869 507.407227,32.9072266 C507.622071,32.7138662 507.876301,32.6171875 508.169922,32.6171875 C508.463543,32.6171875 508.717772,32.7138662 508.932617,32.9072266 C509.147462,33.1005869 509.254883,33.3619775 509.254883,33.6914062 L509.254883,46.9150391 C509.254883,47.2516293 509.143881,47.5166006 508.921875,47.7099609 C508.699869,47.9033213 508.442059,48 508.148438,48 Z M517.128906,48.171875 C515.539055,48.157552 514.244634,47.6508839 513.245605,46.6518555 C512.246577,45.652827 511.74707,44.2939539 511.74707,42.5751953 C511.74707,41.8447229 511.863443,41.1536491 512.096191,40.5019531 C512.32894,39.8502572 512.660154,39.2719752 513.089844,38.7670898 C513.519533,38.2622045 514.065589,37.8611669 514.728027,37.5639648 C515.390466,37.2667628 516.126298,37.1181641 516.935547,37.1181641 C517.759119,37.1181641 518.48779,37.2578111 519.121582,37.5371094 C519.755374,37.8164076 520.260252,38.1995418 520.63623,38.6865234 C521.012209,39.173505 521.298664,39.7195608 521.495605,40.324707 C521.692547,40.9298533 521.798177,41.5904912 521.8125,42.3066406 C521.8125,42.5429699 521.755209,42.7363274 521.640625,42.8867188 C521.526041,43.0371101 521.354168,43.1123047 521.125,43.1123047 L513.927734,43.1123047 C513.95638,44.3011127 514.275062,45.185544 514.883789,45.765625 C515.492516,46.345706 516.291011,46.6429036 517.279297,46.6572266 C517.866539,46.6572266 518.403643,46.5480154 518.890625,46.3295898 C519.377607,46.1111643 519.875323,45.8157571 520.383789,45.4433594 C520.455404,45.3932289 520.525228,45.3556316 520.593262,45.3305664 C520.661296,45.3055012 520.731119,45.2929688 520.802734,45.2929688 C520.92448,45.2929688 521.037272,45.3269853 521.141113,45.3950195 C521.244955,45.4630537 521.327311,45.5543614 521.388184,45.6689453 C521.449056,45.7835292 521.479492,45.9052728 521.479492,46.0341797 C521.479492,46.1559251 521.452637,46.274088 521.398926,46.3886719 C521.345215,46.5032558 521.261068,46.6070959 521.146484,46.7001953 C520.036453,47.68132 518.697273,48.171875 517.128906,48.171875 Z M513.949219,41.8017578 L519.943359,41.8017578 C519.878906,40.8707636 519.606773,40.1027048 519.126953,39.4975586 C518.647133,38.8924123 517.948898,38.5898438 517.032227,38.5898438 C516.559568,38.5898438 516.129885,38.6811514 515.743164,38.8637695 C515.356443,39.0463876 515.039552,39.2934555 514.79248,39.6049805 C514.545409,39.9165055 514.352051,40.2584617 514.212402,40.6308594 C514.072753,41.0032571 513.985026,41.3935526 513.949219,41.8017578 Z M524.21875,47.0009766 C523.996744,46.8434237 523.885742,46.6393242 523.885742,46.3886719 C523.885742,46.202473 523.953775,46.0377611 524.089844,45.8945312 C524.225912,45.7513014 524.397785,45.6796875 524.605469,45.6796875 C524.770183,45.6796875 524.938476,45.7298172 525.110352,45.8300781 C526.105799,46.4388051 527.129878,46.7431641 528.182617,46.7431641 C528.920251,46.7431641 529.523598,46.5999363 529.992676,46.3134766 C530.461754,46.0270168 530.696289,45.5973336 530.696289,45.0244141 C530.696289,44.6305319 530.563803,44.3118502 530.298828,44.0683594 C530.033853,43.8248686 529.60775,43.6279304 529.020508,43.4775391 L527.194336,43.015625 C526.857746,42.9296871 526.576661,42.8527022 526.351074,42.784668 C526.125487,42.7166338 525.88379,42.6342778 525.625977,42.5375977 C525.368163,42.4409175 525.158692,42.3424484 524.997559,42.2421875 C524.836425,42.1419266 524.677084,42.020183 524.519531,41.8769531 C524.361978,41.7337232 524.240235,41.5761727 524.154297,41.4042969 C524.068359,41.232421 523.998535,41.0319022 523.944824,40.8027344 C523.891113,40.5735666 523.864258,40.3193373 523.864258,40.0400391 C523.864258,39.2809207 524.118487,38.6542993 524.626953,38.1601562 C525.371749,37.4440068 526.524732,37.0859375 528.085938,37.0859375 C528.787764,37.0859375 529.443031,37.1665031 530.051758,37.3276367 C530.660485,37.4887703 531.172524,37.6767567 531.587891,37.8916016 C531.895835,38.0419929 532.049805,38.2711573 532.049805,38.5791016 C532.049805,38.6650395 532.035482,38.7491858 532.006836,38.831543 C531.97819,38.9139002 531.935222,38.985514 531.87793,39.0463867 C531.820638,39.1072594 531.749024,39.1555988 531.663086,39.1914062 C531.577148,39.2272137 531.48405,39.2451172 531.383789,39.2451172 C531.276367,39.2451172 531.158204,39.223633 531.029297,39.1806641 C530.993489,39.1663411 530.923666,39.1394859 530.819824,39.1000977 C530.715983,39.0607094 530.628256,39.0266929 530.556641,38.9980469 C530.485026,38.9694009 530.386557,38.9353843 530.26123,38.8959961 C530.135904,38.8566079 530.021322,38.8208009 529.91748,38.7885742 C529.813639,38.7563475 529.690105,38.7241213 529.546875,38.6918945 C529.403645,38.6596678 529.267579,38.6328126 529.138672,38.6113281 C529.009765,38.5898436 528.866537,38.5719402 528.708984,38.5576172 C528.551432,38.5432942 528.397462,38.5361328 528.24707,38.5361328 C527.795896,38.5361328 527.396649,38.5808915 527.049316,38.6704102 C526.701984,38.7599288 526.419109,38.9138986 526.200684,39.1323242 C525.982258,39.3507498 525.873047,39.6210921 525.873047,39.9433594 C525.873047,40.3515645 525.985839,40.6416007 526.211426,40.8134766 C526.437013,40.9853524 526.911455,41.1608064 527.634766,41.3398438 L529.439453,41.7802734 C530.535162,42.0595717 531.326495,42.4462866 531.813477,42.9404297 C532.300458,43.4345728 532.543945,44.0755169 532.543945,44.8632812 C532.543945,45.4147163 532.436525,45.9052713 532.22168,46.3349609 C532.006835,46.7646506 531.706057,47.1137682 531.319336,47.3823242 C530.932615,47.6508802 530.483238,47.8531894 529.971191,47.9892578 C529.459145,48.1253262 528.895185,48.1933594 528.279297,48.1933594 C527.878253,48.1933594 527.470054,48.1611331 527.054688,48.0966797 C525.930333,47.9104808 524.98503,47.5452501 524.21875,47.0009766 Z M535.003906,47.0009766 C534.7819,46.8434237 534.670898,46.6393242 534.670898,46.3886719 C534.670898,46.202473 534.738932,46.0377611 534.875,45.8945312 C535.011068,45.7513014 535.182942,45.6796875 535.390625,45.6796875 C535.555339,45.6796875 535.723632,45.7298172 535.895508,45.8300781 C536.890955,46.4388051 537.915034,46.7431641 538.967773,46.7431641 C539.705407,46.7431641 540.308754,46.5999363 540.777832,46.3134766 C541.24691,46.0270168 541.481445,45.5973336 541.481445,45.0244141 C541.481445,44.6305319 541.34896,44.3118502 541.083984,44.0683594 C540.819009,43.8248686 540.392907,43.6279304 539.805664,43.4775391 L537.979492,43.015625 C537.642902,42.9296871 537.361818,42.8527022 537.13623,42.784668 C536.910643,42.7166338 536.668947,42.6342778 536.411133,42.5375977 C536.153319,42.4409175 535.943848,42.3424484 535.782715,42.2421875 C535.621581,42.1419266 535.46224,42.020183 535.304688,41.8769531 C535.147135,41.7337232 535.025391,41.5761727 534.939453,41.4042969 C534.853515,41.232421 534.783692,41.0319022 534.72998,40.8027344 C534.676269,40.5735666 534.649414,40.3193373 534.649414,40.0400391 C534.649414,39.2809207 534.903643,38.6542993 535.412109,38.1601562 C536.156905,37.4440068 537.309888,37.0859375 538.871094,37.0859375 C539.57292,37.0859375 540.228187,37.1665031 540.836914,37.3276367 C541.445641,37.4887703 541.95768,37.6767567 542.373047,37.8916016 C542.680991,38.0419929 542.834961,38.2711573 542.834961,38.5791016 C542.834961,38.6650395 542.820638,38.7491858 542.791992,38.831543 C542.763346,38.9139002 542.720378,38.985514 542.663086,39.0463867 C542.605794,39.1072594 542.53418,39.1555988 542.448242,39.1914062 C542.362304,39.2272137 542.269206,39.2451172 542.168945,39.2451172 C542.061523,39.2451172 541.94336,39.223633 541.814453,39.1806641 C541.778646,39.1663411 541.708822,39.1394859 541.60498,39.1000977 C541.501139,39.0607094 541.413412,39.0266929 541.341797,38.9980469 C541.270182,38.9694009 541.171713,38.9353843 541.046387,38.8959961 C540.921061,38.8566079 540.806478,38.8208009 540.702637,38.7885742 C540.598795,38.7563475 540.475261,38.7241213 540.332031,38.6918945 C540.188801,38.6596678 540.052735,38.6328126 539.923828,38.6113281 C539.794921,38.5898436 539.651693,38.5719402 539.494141,38.5576172 C539.336588,38.5432942 539.182618,38.5361328 539.032227,38.5361328 C538.581052,38.5361328 538.181805,38.5808915 537.834473,38.6704102 C537.48714,38.7599288 537.204265,38.9138986 536.98584,39.1323242 C536.767414,39.3507498 536.658203,39.6210921 536.658203,39.9433594 C536.658203,40.3515645 536.770995,40.6416007 536.996582,40.8134766 C537.222169,40.9853524 537.696611,41.1608064 538.419922,41.3398438 L540.224609,41.7802734 C541.320318,42.0595717 542.111651,42.4462866 542.598633,42.9404297 C543.085614,43.4345728 543.329102,44.0755169 543.329102,44.8632812 C543.329102,45.4147163 543.221681,45.9052713 543.006836,46.3349609 C542.791991,46.7646506 542.491213,47.1137682 542.104492,47.3823242 C541.717772,47.6508802 541.268394,47.8531894 540.756348,47.9892578 C540.244301,48.1253262 539.680342,48.1933594 539.064453,48.1933594 C538.663409,48.1933594 538.25521,48.1611331 537.839844,48.0966797 C536.715489,47.9104808 535.770186,47.5452501 535.003906,47.0009766 Z M553.125977,48 C552.832355,48 552.579916,47.9086923 552.368652,47.7260742 C552.157388,47.5434561 552.051758,47.2910172 552.051758,46.96875 L552.051758,38.3105469 C552.051758,37.9882796 552.159179,37.7394215 552.374023,37.5639648 C552.588868,37.3885082 552.843097,37.3007812 553.136719,37.3007812 C553.43034,37.3007812 553.682779,37.3867179 553.894043,37.5585938 C554.105307,37.7304696 554.210938,37.9703761 554.210938,38.2783203 L554.210938,39.0410156 C554.497397,38.4179656 554.946774,37.9417334 555.559082,37.6123047 C556.17139,37.282876 556.885738,37.1181641 557.702148,37.1181641 C558.253583,37.1181641 558.760252,37.1987297 559.222168,37.3598633 C559.684084,37.5209969 560.095864,37.764484 560.45752,38.090332 C560.819175,38.41618 561.100259,38.8494439 561.300781,39.3901367 C561.501303,39.9308295 561.601562,40.5520798 561.601562,41.2539062 L561.601562,46.96875 C561.601562,47.2910172 561.492351,47.5434561 561.273926,47.7260742 C561.0555,47.9086923 560.799481,48 560.505859,48 C560.212238,48 559.959799,47.9086923 559.748535,47.7260742 C559.537271,47.5434561 559.431641,47.2910172 559.431641,46.96875 L559.431641,41.2324219 C559.431641,40.3730426 559.22396,39.7177757 558.808594,39.2666016 C558.393227,38.8154274 557.831058,38.5898438 557.12207,38.5898438 C556.327144,38.5898438 555.650393,38.885251 555.091797,39.4760742 C554.5332,40.0668975 554.239583,40.8636018 554.210938,41.8662109 L554.210938,46.96875 C554.210938,47.2910172 554.103517,47.5434561 553.888672,47.7260742 C553.673827,47.9086923 553.419598,48 553.125977,48 Z M569.357422,48.171875 C567.76757,48.157552 566.47315,47.6508839 565.474121,46.6518555 C564.475093,45.652827 563.975586,44.2939539 563.975586,42.5751953 C563.975586,41.8447229 564.091958,41.1536491 564.324707,40.5019531 C564.557456,39.8502572 564.88867,39.2719752 565.318359,38.7670898 C565.748049,38.2622045 566.294105,37.8611669 566.956543,37.5639648 C567.618981,37.2667628 568.354814,37.1181641 569.164062,37.1181641 C569.987634,37.1181641 570.716305,37.2578111 571.350098,37.5371094 C571.98389,37.8164076 572.488768,38.1995418 572.864746,38.6865234 C573.240725,39.173505 573.52718,39.7195608 573.724121,40.324707 C573.921062,40.9298533 574.026693,41.5904912 574.041016,42.3066406 C574.041016,42.5429699 573.983725,42.7363274 573.869141,42.8867188 C573.754557,43.0371101 573.582683,43.1123047 573.353516,43.1123047 L566.15625,43.1123047 C566.184896,44.3011127 566.503578,45.185544 567.112305,45.765625 C567.721032,46.345706 568.519526,46.6429036 569.507812,46.6572266 C570.095055,46.6572266 570.632159,46.5480154 571.119141,46.3295898 C571.606122,46.1111643 572.103839,45.8157571 572.612305,45.4433594 C572.68392,45.3932289 572.753743,45.3556316 572.821777,45.3305664 C572.889812,45.3055012 572.959635,45.2929688 573.03125,45.2929688 C573.152995,45.2929688 573.265787,45.3269853 573.369629,45.3950195 C573.473471,45.4630537 573.555827,45.5543614 573.616699,45.6689453 C573.677572,45.7835292 573.708008,45.9052728 573.708008,46.0341797 C573.708008,46.1559251 573.681153,46.274088 573.627441,46.3886719 C573.57373,46.5032558 573.489584,46.6070959 573.375,46.7001953 C572.264968,47.68132 570.925789,48.171875 569.357422,48.171875 Z M566.177734,41.8017578 L572.171875,41.8017578 C572.107422,40.8707636 571.835289,40.1027048 571.355469,39.4975586 C570.875649,38.8924123 570.177413,38.5898438 569.260742,38.5898438 C568.788084,38.5898438 568.3584,38.6811514 567.97168,38.8637695 C567.584959,39.0463876 567.268068,39.2934555 567.020996,39.6049805 C566.773925,39.9165055 566.580567,40.2584617 566.440918,40.6308594 C566.301269,41.0032571 566.213542,41.3935526 566.177734,41.8017578 Z M580.131836,48.1289062 C579.258134,48.1289062 578.56706,47.8531929 578.058594,47.3017578 C577.550128,46.7503228 577.295898,45.9410861 577.295898,44.8740234 L577.295898,38.8046875 L576.049805,38.8046875 C575.791991,38.8046875 575.595053,38.7384447 575.458984,38.605957 C575.322916,38.4734694 575.254883,38.3033865 575.254883,38.0957031 C575.254883,37.8880198 575.321126,37.7197272 575.453613,37.5908203 C575.586101,37.4619134 575.781249,37.3974609 576.039062,37.3974609 L577.295898,37.3974609 L577.585938,34.421875 C577.621745,34.1497382 577.738118,33.9241545 577.935059,33.7451172 C578.132,33.5660798 578.370116,33.4765625 578.649414,33.4765625 C578.885743,33.4765625 579.080891,33.5481764 579.234863,33.6914062 C579.388835,33.8346361 579.46582,34.045897 579.46582,34.3251953 L579.46582,37.3974609 L581.388672,37.3974609 C581.646486,37.3974609 581.839843,37.4654941 581.96875,37.6015625 C582.097657,37.7376309 582.162109,37.9095042 582.162109,38.1171875 C582.162109,38.3248708 582.097657,38.4913731 581.96875,38.6166992 C581.839843,38.7420254 581.646486,38.8046875 581.388672,38.8046875 L579.46582,38.8046875 L579.46582,44.4228516 C579.46582,45.110355 579.562499,45.6188135 579.755859,45.9482422 C579.94922,46.2776709 580.264321,46.4423828 580.701172,46.4423828 L580.808594,46.4423828 L581.571289,46.3994141 L581.635742,46.3994141 C581.900717,46.3994141 582.110188,46.4835604 582.26416,46.6518555 C582.418132,46.8201506 582.495117,47.0152984 582.495117,47.2373047 C582.495117,47.3518886 582.477214,47.4557287 582.441406,47.5488281 C582.405599,47.6419275 582.35905,47.7189125 582.301758,47.7797852 C582.244466,47.8406579 582.167481,47.8925779 582.070801,47.9355469 C581.974121,47.9785158 581.879232,48.0125324 581.786133,48.0375977 C581.693033,48.0626629 581.576661,48.0823567 581.437012,48.0966797 C581.297363,48.1110027 581.170248,48.1199544 581.055664,48.1235352 C580.94108,48.1271159 580.805014,48.1289062 580.647461,48.1289062 L580.131836,48.1289062 Z M596.363281,48 C595.632809,48 595.113608,47.5595747 594.805664,46.6787109 L592.249023,39.3525391 L589.681641,46.6787109 C589.380858,47.5595747 588.865238,48 588.134766,48 C587.454424,48 586.985353,47.5989623 586.727539,46.796875 L583.956055,38.6005859 C583.913086,38.4788405 583.891602,38.357097 583.891602,38.2353516 C583.891602,38.1565751 583.902344,38.0795902 583.923828,38.0043945 C583.945313,37.9291988 583.973958,37.8611657 584.009766,37.800293 C584.045573,37.7394203 584.086751,37.6839195 584.133301,37.6337891 C584.17985,37.5836586 584.233561,37.5388999 584.294434,37.4995117 C584.355306,37.4601235 584.417968,37.4261069 584.482422,37.3974609 C584.546875,37.368815 584.614908,37.3473308 584.686523,37.3330078 C584.758138,37.3186848 584.829752,37.3115234 584.901367,37.3115234 C585.109051,37.3115234 585.298827,37.3688145 585.470703,37.4833984 C585.642579,37.5979823 585.764323,37.7698556 585.835938,37.9990234 L588.306641,45.7333984 L590.831055,38.4501953 C591.09603,37.6767539 591.568681,37.2900391 592.249023,37.2900391 C592.922204,37.2900391 593.391275,37.6767539 593.65625,38.4501953 L596.180664,45.7333984 L598.662109,37.9990234 C598.733724,37.7698556 598.853678,37.5979823 599.021973,37.4833984 C599.190268,37.3688145 599.378254,37.3115234 599.585938,37.3115234 C599.657552,37.3115234 599.729166,37.3186848 599.800781,37.3330078 C599.872396,37.3473308 599.94222,37.368815 600.010254,37.3974609 C600.078288,37.4261069 600.142741,37.4601235 600.203613,37.4995117 C600.264486,37.5388999 600.318196,37.5836586 600.364746,37.6337891 C600.411296,37.6839195 600.452474,37.7394203 600.488281,37.800293 C600.524089,37.8611657 600.552734,37.9291988 600.574219,38.0043945 C600.595703,38.0795902 600.606445,38.1565751 600.606445,38.2353516 C600.606445,38.357097 600.584961,38.4788405 600.541992,38.6005859 L597.770508,46.796875 C597.505533,47.5989623 597.036462,48 596.363281,48 Z M607.642578,46.7001953 C608.688156,46.6930338 609.500974,46.3313838 610.081055,45.6152344 C610.661136,44.899085 610.951172,43.9108136 610.951172,42.6503906 C610.951172,41.3971292 610.657555,40.4070674 610.070312,39.6801758 C609.48307,38.9532841 608.673833,38.5898438 607.642578,38.5898438 C606.604161,38.5898438 605.793134,38.9514938 605.209473,39.6748047 C604.625811,40.3981156 604.333984,41.3899677 604.333984,42.6503906 C604.333984,43.9036521 604.627601,44.8919235 605.214844,45.6152344 C605.802086,46.3385453 606.611323,46.7001953 607.642578,46.7001953 Z M607.642578,48.171875 C606.776037,48.171875 605.991865,48.0232762 605.290039,47.7260742 C604.588213,47.4288722 604.015302,47.0260442 603.571289,46.5175781 C603.127276,46.009112 602.787111,45.425459 602.550781,44.7666016 C602.314452,44.1077441 602.196289,43.4023475 602.196289,42.6503906 C602.196289,41.8912722 602.314452,41.1805046 602.550781,40.5180664 C602.787111,39.8556282 603.129067,39.2701848 603.57666,38.7617188 C604.024254,38.2532527 604.597164,37.852215 605.29541,37.5585938 C605.993656,37.2649725 606.776037,37.1181641 607.642578,37.1181641 C608.781256,37.1181641 609.767737,37.3688126 610.602051,37.8701172 C611.436365,38.3714218 612.059405,39.0356404 612.471191,39.862793 C612.882977,40.6899455 613.088867,41.6191355 613.088867,42.6503906 C613.088867,43.395186 612.970704,44.0987923 612.734375,44.7612305 C612.498046,45.4236687 612.15788,46.009112 611.713867,46.5175781 C611.269855,47.0260442 610.696944,47.4288722 609.995117,47.7260742 C609.293291,48.0232762 608.509119,48.171875 607.642578,48.171875 Z M616.558594,48 C616.264972,48 616.014324,47.912273 615.806641,47.7368164 C615.598957,47.5613598 615.495117,47.3089209 615.495117,46.9794922 L615.495117,38.2998047 C615.495117,37.9846989 615.604328,37.7394215 615.822754,37.5639648 C616.041179,37.3885082 616.297199,37.3007812 616.59082,37.3007812 C616.705404,37.3007812 616.814615,37.3133137 616.918457,37.3383789 C617.022299,37.3634441 617.118977,37.4028318 617.208496,37.456543 C617.298015,37.5102542 617.37679,37.5729163 617.444824,37.6445312 C617.512858,37.7161462 617.566569,37.8038732 617.605957,37.9077148 C617.645345,38.0115565 617.665039,38.1243483 617.665039,38.2460938 L617.643555,39.5673828 C617.822592,38.9013639 618.186032,38.3427757 618.733887,37.8916016 C619.281741,37.4404274 619.917314,37.2148438 620.640625,37.2148438 C620.898439,37.2148438 621.098958,37.3079418 621.242188,37.4941406 C621.385417,37.6803395 621.457031,37.9023425 621.457031,38.1601562 C621.457031,38.3964856 621.392579,38.6005851 621.263672,38.7724609 C621.134765,38.9443368 620.95215,39.0302734 620.71582,39.0302734 C619.763342,39.0302734 619.016767,39.2522764 618.476074,39.6962891 C617.935381,40.1403017 617.665039,40.8170527 617.665039,41.7265625 L617.665039,46.9794922 C617.665039,47.3017594 617.554038,47.552408 617.332031,47.7314453 C617.110025,47.9104827 616.852215,48 616.558594,48 Z M624.518555,48 C624.224933,48 623.974285,47.9051116 623.766602,47.715332 C623.558918,47.5255524 623.455078,47.2587908 623.455078,46.9150391 L623.455078,33.6914062 C623.455078,33.3619775 623.562499,33.1005869 623.777344,32.9072266 C623.992189,32.7138662 624.249998,32.6171875 624.550781,32.6171875 C624.837241,32.6171875 625.086099,32.7138662 625.297363,32.9072266 C625.508627,33.1005869 625.614258,33.3619775 625.614258,33.6914062 L625.614258,41.8662109 L630.373047,37.3867188 C630.458985,37.3079423 630.552083,37.2488609 630.652344,37.2094727 C630.752605,37.1700844 630.852864,37.1503906 630.953125,37.1503906 C631.203777,37.1503906 631.42578,37.25065 631.619141,37.4511719 C631.812501,37.6516937 631.90918,37.8772774 631.90918,38.1279297 C631.90918,38.3570975 631.819662,38.5540356 631.640625,38.71875 L627.945312,42.1240234 L632.048828,46.4423828 C632.227865,46.6285817 632.317383,46.8362619 632.317383,47.0654297 C632.317383,47.2301441 632.270834,47.3876946 632.177734,47.5380859 C632.084635,47.6884773 631.959311,47.8084305 631.801758,47.8979492 C631.644205,47.9874679 631.479493,48.0322266 631.307617,48.0322266 C631.228841,48.0322266 631.148275,48.0214845 631.065918,48 C630.983561,47.9785155 630.902995,47.9427086 630.824219,47.8925781 C630.745442,47.8424477 630.670248,47.7779952 630.598633,47.6992188 L625.614258,42.4355469 L625.614258,46.9150391 C625.614258,47.2516293 625.505047,47.5166006 625.286621,47.7099609 C625.068196,47.9033213 624.812176,48 624.518555,48 Z M463.514648,79.0009766 C463.292642,78.8434237 463.181641,78.6393242 463.181641,78.3886719 C463.181641,78.202473 463.249674,78.0377611 463.385742,77.8945312 C463.521811,77.7513014 463.693684,77.6796875 463.901367,77.6796875 C464.066082,77.6796875 464.234374,77.7298172 464.40625,77.8300781 C465.401698,78.4388051 466.425776,78.7431641 467.478516,78.7431641 C468.21615,78.7431641 468.819496,78.5999363 469.288574,78.3134766 C469.757652,78.0270168 469.992188,77.5973336 469.992188,77.0244141 C469.992188,76.6305319 469.859702,76.3118502 469.594727,76.0683594 C469.329751,75.8248686 468.903649,75.6279304 468.316406,75.4775391 L466.490234,75.015625 C466.153644,74.9296871 465.87256,74.8527022 465.646973,74.784668 C465.421386,74.7166338 465.179689,74.6342778 464.921875,74.5375977 C464.664061,74.4409175 464.454591,74.3424484 464.293457,74.2421875 C464.132323,74.1419266 463.972983,74.020183 463.81543,73.8769531 C463.657877,73.7337232 463.536133,73.5761727 463.450195,73.4042969 C463.364257,73.232421 463.294434,73.0319022 463.240723,72.8027344 C463.187011,72.5735666 463.160156,72.3193373 463.160156,72.0400391 C463.160156,71.2809207 463.414385,70.6542993 463.922852,70.1601562 C464.667647,69.4440068 465.82063,69.0859375 467.381836,69.0859375 C468.083662,69.0859375 468.738929,69.1665031 469.347656,69.3276367 C469.956383,69.4887703 470.468422,69.6767567 470.883789,69.8916016 C471.191733,70.0419929 471.345703,70.2711573 471.345703,70.5791016 C471.345703,70.6650395 471.33138,70.7491858 471.302734,70.831543 C471.274088,70.9139002 471.23112,70.985514 471.173828,71.0463867 C471.116536,71.1072594 471.044922,71.1555988 470.958984,71.1914062 C470.873046,71.2272137 470.779948,71.2451172 470.679688,71.2451172 C470.572265,71.2451172 470.454102,71.223633 470.325195,71.1806641 C470.289388,71.1663411 470.219564,71.1394859 470.115723,71.1000977 C470.011881,71.0607094 469.924154,71.0266929 469.852539,70.9980469 C469.780924,70.9694009 469.682455,70.9353843 469.557129,70.8959961 C469.431803,70.8566079 469.317221,70.8208009 469.213379,70.7885742 C469.109537,70.7563475 468.986003,70.7241213 468.842773,70.6918945 C468.699544,70.6596678 468.563477,70.6328126 468.43457,70.6113281 C468.305663,70.5898436 468.162436,70.5719402 468.004883,70.5576172 C467.84733,70.5432942 467.69336,70.5361328 467.542969,70.5361328 C467.091795,70.5361328 466.692547,70.5808915 466.345215,70.6704102 C465.997882,70.7599288 465.715008,70.9138986 465.496582,71.1323242 C465.278156,71.3507498 465.168945,71.6210921 465.168945,71.9433594 C465.168945,72.3515645 465.281737,72.6416007 465.507324,72.8134766 C465.732911,72.9853524 466.207353,73.1608064 466.930664,73.3398438 L468.735352,73.7802734 C469.83106,74.0595717 470.622393,74.4462866 471.109375,74.9404297 C471.596357,75.4345728 471.839844,76.0755169 471.839844,76.8632812 C471.839844,77.4147163 471.732423,77.9052713 471.517578,78.3349609 C471.302733,78.7646506 471.001955,79.1137682 470.615234,79.3823242 C470.228514,79.6508802 469.779137,79.8531894 469.26709,79.9892578 C468.755043,80.1253262 468.191084,80.1933594 467.575195,80.1933594 C467.174152,80.1933594 466.765953,80.1611331 466.350586,80.0966797 C465.226231,79.9104808 464.280928,79.5452501 463.514648,79.0009766 Z M479.09082,80.171875 C477.500969,80.157552 476.206548,79.6508839 475.20752,78.6518555 C474.208491,77.652827 473.708984,76.2939539 473.708984,74.5751953 C473.708984,73.8447229 473.825357,73.1536491 474.058105,72.5019531 C474.290854,71.8502572 474.622068,71.2719752 475.051758,70.7670898 C475.481447,70.2622045 476.027503,69.8611669 476.689941,69.5639648 C477.35238,69.2667628 478.088212,69.1181641 478.897461,69.1181641 C479.721033,69.1181641 480.449704,69.2578111 481.083496,69.5371094 C481.717288,69.8164076 482.222166,70.1995418 482.598145,70.6865234 C482.974123,71.173505 483.260578,71.7195608 483.45752,72.324707 C483.654461,72.9298533 483.760091,73.5904912 483.774414,74.3066406 C483.774414,74.5429699 483.717123,74.7363274 483.602539,74.8867188 C483.487955,75.0371101 483.316082,75.1123047 483.086914,75.1123047 L475.889648,75.1123047 C475.918294,76.3011127 476.236976,77.185544 476.845703,77.765625 C477.45443,78.345706 478.252925,78.6429036 479.241211,78.6572266 C479.828453,78.6572266 480.365557,78.5480154 480.852539,78.3295898 C481.339521,78.1111643 481.837237,77.8157571 482.345703,77.4433594 C482.417318,77.3932289 482.487142,77.3556316 482.555176,77.3305664 C482.62321,77.3055012 482.693033,77.2929688 482.764648,77.2929688 C482.886394,77.2929688 482.999186,77.3269853 483.103027,77.3950195 C483.206869,77.4630537 483.289225,77.5543614 483.350098,77.6689453 C483.41097,77.7835292 483.441406,77.9052728 483.441406,78.0341797 C483.441406,78.1559251 483.414551,78.274088 483.36084,78.3886719 C483.307129,78.5032558 483.222982,78.6070959 483.108398,78.7001953 C481.998367,79.68132 480.659188,80.171875 479.09082,80.171875 Z M475.911133,73.8017578 L481.905273,73.8017578 C481.84082,72.8707636 481.568687,72.1027048 481.088867,71.4975586 C480.609047,70.8924123 479.910812,70.5898438 478.994141,70.5898438 C478.521482,70.5898438 478.091799,70.6811514 477.705078,70.8637695 C477.318357,71.0463876 477.001466,71.2934555 476.754395,71.6049805 C476.507323,71.9165055 476.313966,72.2584617 476.174316,72.6308594 C476.034667,73.0032571 475.94694,73.3935526 475.911133,73.8017578 Z M490.735352,80.171875 C489.689773,80.171875 488.769535,79.9230168 487.974609,79.425293 C487.179684,78.9275691 486.578127,78.2615602 486.169922,77.4272461 C485.761717,76.592932 485.557617,75.6637421 485.557617,74.6396484 C485.557617,73.6227163 485.772459,72.697107 486.202148,71.862793 C486.631838,71.0284789 487.253088,70.3624699 488.065918,69.8647461 C488.878748,69.3670223 489.811518,69.1181641 490.864258,69.1181641 C491.494469,69.1181641 492.06559,69.2023104 492.577637,69.3706055 C493.089684,69.5389006 493.503254,69.7412098 493.818359,69.9775391 C494.090496,70.1780609 494.226562,70.4036446 494.226562,70.6542969 C494.226562,70.7688808 494.196127,70.8745112 494.135254,70.9711914 C494.074381,71.0678716 493.992025,71.1430661 493.888184,71.1967773 C493.784342,71.2504885 493.667969,71.2773438 493.539062,71.2773438 C493.38151,71.2773438 493.22754,71.2343754 493.077148,71.1484375 C492.454098,70.7688783 491.763025,70.5791016 491.003906,70.5791016 C490.008459,70.5791016 489.211754,70.9497033 488.61377,71.690918 C488.015785,72.4321326 487.716797,73.4186136 487.716797,74.6503906 C487.716797,75.4023475 487.831379,76.0790986 488.060547,76.6806641 C488.289715,77.2822296 488.649574,77.7692039 489.140137,78.1416016 C489.630699,78.5139993 490.216142,78.7001953 490.896484,78.7001953 C491.841802,78.7001953 492.625973,78.481773 493.249023,78.0449219 C493.3278,77.9876299 493.408365,77.9464519 493.490723,77.9213867 C493.57308,77.8963215 493.653645,77.8837891 493.732422,77.8837891 C493.825521,77.8837891 493.911458,77.8999022 493.990234,77.9321289 C494.069011,77.9643556 494.138834,78.0091143 494.199707,78.0664062 C494.26058,78.1236982 494.307129,78.1935217 494.339355,78.2758789 C494.371582,78.3582361 494.387695,78.4423824 494.387695,78.5283203 C494.387695,78.6429042 494.357259,78.7610671 494.296387,78.8828125 C494.235514,79.0045579 494.140626,79.1191401 494.011719,79.2265625 C493.2526,79.856774 492.160489,80.171875 490.735352,80.171875 Z M500.338867,80.171875 C499.193028,80.171875 498.260258,79.8263381 497.540527,79.1352539 C496.820797,78.4441697 496.460938,77.407559 496.460938,76.0253906 L496.460938,70.3320312 C496.460938,70.0026025 496.568358,69.7465829 496.783203,69.5639648 C496.998048,69.3813467 497.252277,69.2900391 497.545898,69.2900391 C497.83952,69.2900391 498.091959,69.3813467 498.303223,69.5639648 C498.514487,69.7465829 498.620117,70.0026025 498.620117,70.3320312 L498.620117,76.046875 C498.620117,76.9134158 498.824217,77.5722634 499.232422,78.0234375 C499.640627,78.4746116 500.199215,78.7001953 500.908203,78.7001953 C501.71029,78.7001953 502.392413,78.4029978 502.95459,77.8085938 C503.516767,77.2141897 503.812174,76.4192758 503.84082,75.4238281 L503.84082,70.3320312 C503.84082,70.0026025 503.948241,69.7465829 504.163086,69.5639648 C504.377931,69.3813467 504.635741,69.2900391 504.936523,69.2900391 C505.230145,69.2900391 505.482584,69.3813467 505.693848,69.5639648 C505.905112,69.7465829 506.010742,70.0026025 506.010742,70.3320312 L506.010742,78.9794922 C506.010742,79.3017594 505.903321,79.552408 505.688477,79.7314453 C505.473632,79.9104827 505.215822,80 504.915039,80 C504.621418,80 504.368979,79.9140634 504.157715,79.7421875 C503.946451,79.5703116 503.84082,79.3304052 503.84082,79.0224609 L503.84082,78.2490234 C503.554361,78.8649119 503.103193,79.3393538 502.487305,79.6723633 C501.871416,80.0053728 501.155278,80.171875 500.338867,80.171875 Z M510.22168,80 C509.928058,80 509.67741,79.912273 509.469727,79.7368164 C509.262043,79.5613598 509.158203,79.3089209 509.158203,78.9794922 L509.158203,70.2998047 C509.158203,69.9846989 509.267414,69.7394215 509.48584,69.5639648 C509.704265,69.3885082 509.960285,69.3007812 510.253906,69.3007812 C510.36849,69.3007812 510.477701,69.3133137 510.581543,69.3383789 C510.685385,69.3634441 510.782063,69.4028318 510.871582,69.456543 C510.961101,69.5102542 511.039876,69.5729163 511.10791,69.6445312 C511.175944,69.7161462 511.229655,69.8038732 511.269043,69.9077148 C511.308431,70.0115565 511.328125,70.1243483 511.328125,70.2460938 L511.306641,71.5673828 C511.485678,70.9013639 511.849118,70.3427757 512.396973,69.8916016 C512.944827,69.4404274 513.5804,69.2148438 514.303711,69.2148438 C514.561525,69.2148438 514.762044,69.3079418 514.905273,69.4941406 C515.048503,69.6803395 515.120117,69.9023425 515.120117,70.1601562 C515.120117,70.3964856 515.055665,70.6005851 514.926758,70.7724609 C514.797851,70.9443368 514.615236,71.0302734 514.378906,71.0302734 C513.426428,71.0302734 512.679853,71.2522764 512.13916,71.6962891 C511.598467,72.1403017 511.328125,72.8170527 511.328125,73.7265625 L511.328125,78.9794922 C511.328125,79.3017594 511.217124,79.552408 510.995117,79.7314453 C510.773111,79.9104827 510.515301,80 510.22168,80 Z M518.256836,80 C517.956053,80 517.701824,79.906902 517.494141,79.7207031 C517.286457,79.5345043 517.182617,79.2659523 517.182617,78.9150391 L517.182617,70.375 C517.182617,70.0384098 517.291828,69.7734385 517.510254,69.5800781 C517.728679,69.3867178 517.984699,69.2900391 518.27832,69.2900391 C518.56478,69.2900391 518.815429,69.3867178 519.030273,69.5800781 C519.245118,69.7734385 519.352539,70.0384098 519.352539,70.375 L519.352539,78.9150391 C519.352539,79.2516293 519.243328,79.5166006 519.024902,79.7099609 C518.806477,79.9033213 518.550457,80 518.256836,80 Z M518.267578,66.9375 C517.866534,66.9375 517.540691,66.8211275 517.290039,66.5883789 C517.039387,66.3556303 516.914062,66.0494811 516.914062,65.6699219 C516.914062,65.2903627 517.039387,64.9824231 517.290039,64.7460938 C517.540691,64.5097644 517.870115,64.3916016 518.27832,64.3916016 C518.679364,64.3916016 519.001626,64.5097644 519.245117,64.7460938 C519.488608,64.9824231 519.610352,65.2903627 519.610352,65.6699219 C519.610352,66.0494811 519.486818,66.3556303 519.239746,66.5883789 C518.992675,66.8211275 518.668622,66.9375 518.267578,66.9375 Z M526.03418,80.1289062 C525.160477,80.1289062 524.469404,79.8531929 523.960938,79.3017578 C523.452471,78.7503228 523.198242,77.9410861 523.198242,76.8740234 L523.198242,70.8046875 L521.952148,70.8046875 C521.694335,70.8046875 521.497397,70.7384447 521.361328,70.605957 C521.22526,70.4734694 521.157227,70.3033865 521.157227,70.0957031 C521.157227,69.8880198 521.223469,69.7197272 521.355957,69.5908203 C521.488445,69.4619134 521.683592,69.3974609 521.941406,69.3974609 L523.198242,69.3974609 L523.488281,66.421875 C523.524089,66.1497382 523.640461,65.9241545 523.837402,65.7451172 C524.034343,65.5660798 524.27246,65.4765625 524.551758,65.4765625 C524.788087,65.4765625 524.983235,65.5481764 525.137207,65.6914062 C525.291179,65.8346361 525.368164,66.045897 525.368164,66.3251953 L525.368164,69.3974609 L527.291016,69.3974609 C527.548829,69.3974609 527.742187,69.4654941 527.871094,69.6015625 C528.000001,69.7376309 528.064453,69.9095042 528.064453,70.1171875 C528.064453,70.3248708 528.000001,70.4913731 527.871094,70.6166992 C527.742187,70.7420254 527.548829,70.8046875 527.291016,70.8046875 L525.368164,70.8046875 L525.368164,76.4228516 C525.368164,77.110355 525.464843,77.6188135 525.658203,77.9482422 C525.851563,78.2776709 526.166664,78.4423828 526.603516,78.4423828 L526.710938,78.4423828 L527.473633,78.3994141 L527.538086,78.3994141 C527.803061,78.3994141 528.012532,78.4835604 528.166504,78.6518555 C528.320476,78.8201506 528.397461,79.0152984 528.397461,79.2373047 C528.397461,79.3518886 528.379557,79.4557287 528.34375,79.5488281 C528.307943,79.6419275 528.261394,79.7189125 528.204102,79.7797852 C528.14681,79.8406579 528.069825,79.8925779 527.973145,79.9355469 C527.876464,79.9785158 527.781576,80.0125324 527.688477,80.0375977 C527.595377,80.0626629 527.479005,80.0823567 527.339355,80.0966797 C527.199706,80.1110027 527.072592,80.1199544 526.958008,80.1235352 C526.843424,80.1271159 526.707358,80.1289062 526.549805,80.1289062 L526.03418,80.1289062 Z M533.59668,83.7490234 C533.396158,84.1572286 533.091799,84.3613281 532.683594,84.3613281 C532.411457,84.3613281 532.16797,84.2664398 531.953125,84.0766602 C531.73828,83.8868806 531.630859,83.6595065 531.630859,83.3945312 C531.630859,83.2441399 531.666666,83.0937508 531.738281,82.9433594 L533.768555,78.7324219 L529.836914,70.8261719 C529.758138,70.668619 529.71875,70.5110685 529.71875,70.3535156 C529.71875,70.0813788 529.827961,69.8486338 530.046387,69.6552734 C530.264812,69.4619131 530.51367,69.3652344 530.792969,69.3652344 C530.914714,69.3652344 531.031087,69.3867185 531.14209,69.4296875 C531.253093,69.4726565 531.360514,69.5442703 531.464355,69.6445312 C531.568197,69.7447922 531.655924,69.8665357 531.727539,70.0097656 L534.853516,76.4873047 L538.022461,69.9238281 C538.129883,69.7018218 538.26774,69.5371099 538.436035,69.4296875 C538.60433,69.3222651 538.781575,69.2685547 538.967773,69.2685547 C539.247072,69.2685547 539.492349,69.3634431 539.703613,69.5532227 C539.914877,69.7430023 540.020508,69.973957 540.020508,70.2460938 C540.020508,70.3964851 539.984701,70.5432936 539.913086,70.6865234 L533.59668,83.7490234 Z" id="Gain-powerful-wirele"></path>
            </g>
        </g>
    </g>
</svg>