<?xml version="1.0" encoding="UTF-8"?>
<svg width="86px" height="74px" viewBox="0 0 86 74" version="1.1" xmlns="http://www.w3.org/2000/svg" xmlns:xlink="http://www.w3.org/1999/xlink">
    <!-- Generator: Sketch 52.5 (67469) - http://www.bohemiancoding.com/sketch -->
    <title>Icon_Service_Wireless_Color</title>
    <desc>Created with Sketch.</desc>
    <g id="Page-2" stroke="none" stroke-width="1" fill="none" fill-rule="evenodd">
        <g id="Icon_Service_Wireless_Color" transform="translate(-17.000000, 0.000000)">
            <g id="Group-14">
                <path d="M59.7316277,41.0361831 C59.7316277,41.0361831 48.7848278,37.0592575 46.3713072,30.4417077 C43.6687019,23.0339086 53.6887022,21.34294 63.9382414,21.637527 C69.4615829,21.796449 76.2118534,22.6438714 76.2118534,22.6438714 C76.2118534,22.6438714 60.2636971,24.692899 54.5007323,29.3849734 C48.8736661,33.9670623 59.7316277,41.0361831 59.7316277,41.0361831" id="Fill-1" fill="#FF6C0C"></path>
                <path d="M111.20773,49.9447861 L103.585411,49.9552215 C103.610805,31.4066174 88.5980678,16.3905844 70.0535234,16.415973 L70.0639611,8.79198552 C92.8181959,8.76083362 111.238889,27.18557 111.20773,49.9447861 Z" id="Oval-6" fill="#FF8D20" fill-rule="nonzero" transform="translate(90.630646, 29.373584) rotate(45.000000) translate(-90.630646, -29.373584) "></path>
                <path d="M92.9864932,42.4077469 L85.3641744,42.4181823 C85.3781553,32.2061646 77.1128249,23.9390199 66.9030424,23.9529977 L66.9134801,16.3290103 C81.332953,16.3092692 93.0062386,27.9851172 92.9864932,42.4077469 Z" id="Oval-6" fill="#FF6C0B" fill-rule="nonzero" transform="translate(79.944780, 29.373584) rotate(45.000000) translate(-79.944780, -29.373584) "></path>
                <path d="M49.8928681,49.9421837 L42.2705493,49.9526191 C42.2959434,31.404015 27.2832059,16.387982 8.73866158,16.4133705 L8.74909927,8.78938309 C31.5033341,8.75823119 49.9240268,27.1829676 49.8928681,49.9421837 Z" id="Oval-6" fill="#FF8D20" fill-rule="nonzero" transform="translate(29.315785, 29.370981) scale(-1, 1) rotate(45.000000) translate(-29.315785, -29.370981) "></path>
                <path d="M51.8984505,42.4051444 L44.2761317,42.4155798 C44.2901125,32.2035622 36.0247822,23.9364175 25.8149996,23.9503953 L25.8254373,16.3264078 C40.2449103,16.3066667 51.9181959,27.9825148 51.8984505,42.4051444 Z" id="Oval-6" fill="#FF6C0B" fill-rule="nonzero" transform="translate(38.856738, 29.370981) scale(-1, 1) rotate(45.000000) translate(-38.856738, -29.370981) "></path>
            </g>
            <path d="M63.7956454,60.2479702 C63.6899774,57.1690584 63.5495012,53.0639025 63.4088474,48.9583875 C63.3639455,47.622183 63.3052251,45.8745722 63.232686,43.715555 L63.232707,43.7155543 C63.1767465,42.0499705 61.8103197,40.7286822 60.1437961,40.7286822 L60.1437961,40.7286822 C58.4772725,40.7286822 57.1108457,42.0499705 57.0548852,43.7155543 C56.9823671,45.8745722 56.9236467,47.622183 56.8787448,48.9583875 C56.7382686,53.0639025 56.5974372,57.1690584 56.4919468,60.2479702 C56.4825343,60.5072697 56.4734771,60.7588476 56.4645974,61.0032428 L32.6563275,61.0032428 C31.6263382,61.0032428 30.7913669,61.8382141 30.7913669,62.8682034 L30.7913669,72.1350394 C30.7913669,73.1650287 31.6263382,74 32.6563275,74 L87.6314422,74 C88.6614316,74 89.4964029,73.1650287 89.4964029,72.1350394 L89.4964029,62.8682034 C89.4964029,61.8382141 88.6614316,61.0032428 87.6314422,61.0032428 L63.8228172,61.0032428 C63.8139375,60.7588476 63.8048802,60.5076288 63.7956454,60.2479702 Z" id="Shape" fill="#80808A" fill-rule="nonzero"></path>
            <path d="M60.1438849,74 L60.1438849,40.7296842 C60.1702406,40.7290175 60.1966766,40.7286822 60.2231887,40.7286822 C61.8851671,40.7286822 63.2478261,42.0464469 63.3034832,43.707493 L63.3034538,43.707494 C63.3759209,45.8702226 63.4345726,47.6205205 63.4794087,48.9583875 C63.6196821,53.0639025 63.7597784,57.1690584 63.8651605,60.2479702 C63.8743704,60.5076288 63.8834032,60.7588476 63.8922588,61.0032428 L87.6314422,61.0032428 C88.6614316,61.0032428 89.4964029,61.8382141 89.4964029,62.8682034 L89.4964029,72.1350394 C89.4964029,73.1650287 88.6614316,74 87.6314422,74 L60.1438849,74 Z" id="Combined-Shape" fill="#53535A" fill-rule="nonzero"></path>
        </g>
    </g>
</svg>