<?xml version="1.0" encoding="UTF-8"?>
<svg width="300px" height="300px" viewBox="0 0 300 300" version="1.1" xmlns="http://www.w3.org/2000/svg" xmlns:xlink="http://www.w3.org/1999/xlink">
    <!-- Generator: Sketch 52.5 (67469) - http://www.bohemiancoding.com/sketch -->
    <title>Icon_Service_Wireless_Color</title>
    <desc>Created with Sketch.</desc>
    <g id="Page-1" stroke="none" stroke-width="1" fill="none" fill-rule="evenodd">
        <g id="Icon_Service_Wireless_Color" transform="translate(-57.000000, 26.000000)">
            <g id="Group-14">
                <path d="M206.074116,141.963012 C206.074116,141.963012 168.307656,128.204999 159.98101,105.311854 C150.657022,79.6848729 185.226023,73.8350356 220.586933,74.8541476 C239.642461,75.4039317 262.930894,78.3355551 262.930894,78.3355551 C262.930894,78.3355551 207.909755,85.4240829 188.027526,101.656124 C168.614148,117.507675 206.074116,141.963012 206.074116,141.963012" id="Fill-1" fill="#FF6C0C"></path>
                <path d="M383.868716,172.799926 L357.535713,172.799926 C357.535713,108.719632 305.599741,56.7722905 241.533472,56.7722905 L241.533472,30.4335238 C320.143057,30.4335238 383.868716,94.1731333 383.868716,172.799926 Z" id="Oval-6" fill="#FF8D20" fill-rule="nonzero" transform="translate(312.701094, 101.616725) rotate(45.000000) translate(-312.701094, -101.616725) "></path>
                <path d="M320.934171,146.725877 L294.601169,146.725877 C294.601169,111.446183 266.007585,82.8463393 230.735612,82.8463393 L230.735612,56.5075726 C280.5509,56.5075726 320.934171,96.8996835 320.934171,146.725877 Z" id="Oval-6" fill="#FF6C0B" fill-rule="nonzero" transform="translate(275.834891, 101.616725) rotate(45.000000) translate(-275.834891, -101.616725) "></path>
                <path d="M172.281714,172.790923 L145.948712,172.790923 C145.948712,108.710629 94.0127401,56.7632875 29.9464714,56.7632875 L29.9464714,30.4245208 C108.556055,30.4245208 172.281714,94.1641303 172.281714,172.790923 Z" id="Oval-6" fill="#FF8D20" fill-rule="nonzero" transform="translate(101.114093, 101.607722) scale(-1, 1) rotate(45.000000) translate(-101.114093, -101.607722) "></path>
                <path d="M179.129625,146.716875 L152.796623,146.716875 C152.796623,111.43718 124.203039,82.8373363 88.9310659,82.8373363 L88.9310659,56.4985696 C138.746355,56.4985696 179.129625,96.8906805 179.129625,146.716875 Z" id="Oval-6" fill="#FF6C0B" fill-rule="nonzero" transform="translate(134.030345, 101.607722) scale(-1, 1) rotate(45.000000) translate(-134.030345, -101.607722) "></path>
            </g>
            <path d="M220.094977,208.42541 C219.730422,197.77404 219.245779,183.57242 218.760523,169.369557 C218.605416,164.741177 218.402515,158.685959 218.151819,151.203903 L218.151829,151.203903 C217.959298,145.457804 213.24542,140.899225 207.496097,140.899225 L207.496097,140.899225 C201.746773,140.899225 197.032895,145.457804 196.840364,151.203903 C196.589678,158.685959 196.386777,164.741177 196.23167,169.369557 C195.747027,183.57242 195.261158,197.77404 194.897216,208.42541 C194.864744,209.322446 194.833496,210.19277 194.802861,211.038245 L112.66433,211.038245 C109.110867,211.038245 106.230216,213.918896 106.230216,217.472359 L106.230216,249.565886 C106.230216,253.119349 109.110867,256 112.66433,256 L302.328476,256 C305.881939,256 308.76259,253.119349 308.76259,249.565886 L308.76259,217.472359 C308.76259,213.918896 305.881939,211.038245 302.328476,211.038245 L220.188719,211.038245 C220.158084,210.19277 220.126837,209.323689 220.094977,208.42541 Z" id="Shape" fill="#80808A" fill-rule="nonzero"></path>
            <path d="M207.496403,256 L207.496403,140.902682 C207.58733,140.900382 207.678534,140.899225 207.770001,140.899225 C213.503618,140.899225 218.204478,145.445626 218.395971,151.176045 C218.646418,158.67093 218.849081,164.735434 219.00396,169.369557 C219.487903,183.57242 219.971235,197.77404 220.334804,208.42541 C220.366578,209.323689 220.397741,210.19277 220.428293,211.038245 L302.328476,211.038245 C305.881939,211.038245 308.76259,213.918896 308.76259,217.472359 L308.76259,249.565886 C308.76259,253.119349 305.881939,256 302.328476,256 L207.496403,256 Z" id="Combined-Shape" fill="#53535A" fill-rule="nonzero"></path>
        </g>
    </g>
</svg>