<?xml version="1.0" encoding="UTF-8"?>
<svg width="289px" height="110px" viewBox="0 0 289 110" version="1.1" xmlns="http://www.w3.org/2000/svg" xmlns:xlink="http://www.w3.org/1999/xlink">
    <!-- Generator: Sketch 52.6 (67491) - http://www.bohemiancoding.com/sketch -->
    <title>Leverage simplified</title>
    <desc>Created with Sketch.</desc>
    <g id="Page-1" stroke="none" stroke-width="1" fill="none" fill-rule="evenodd">
        <g id="Artboard-Copy-78" transform="translate(-455.000000, -419.000000)" fill="#333333">
            <path d="M458.964844,439 C458.545571,439 458.178713,438.849611 457.864258,438.548828 C457.549803,438.248045 457.392578,437.883466 457.392578,437.455078 L457.392578,420.925781 C457.392578,420.451821 457.547524,420.082684 457.857422,419.818359 C458.167319,419.554035 458.536456,419.421875 458.964844,419.421875 C459.384117,419.421875 459.744139,419.554035 460.044922,419.818359 C460.345705,420.082684 460.496094,420.451821 460.496094,420.925781 L460.496094,436.539062 L468.849609,436.539062 C469.232424,436.539062 469.530923,436.662108 469.745117,436.908203 C469.959311,437.154298 470.066406,437.441405 470.066406,437.769531 C470.066406,438.097658 469.959311,438.384764 469.745117,438.630859 C469.530923,438.876954 469.232424,439 468.849609,439 L458.964844,439 Z M478.255859,439.21875 C476.232412,439.200521 474.584967,438.55567 473.313477,437.28418 C472.041986,436.012689 471.40625,434.283214 471.40625,432.095703 C471.40625,431.166011 471.55436,430.286462 471.850586,429.457031 C472.146811,428.6276 472.568357,427.891605 473.115234,427.249023 C473.662112,426.606442 474.357092,426.096031 475.200195,425.717773 C476.043298,425.339516 476.979813,425.150391 478.009766,425.150391 C479.057948,425.150391 479.985348,425.328123 480.791992,425.683594 C481.598637,426.039064 482.241209,426.52669 482.719727,427.146484 C483.198245,427.766279 483.562824,428.461259 483.813477,429.231445 C484.064129,430.001631 484.198568,430.842443 484.216797,431.753906 C484.216797,432.054689 484.143881,432.30078 483.998047,432.492188 C483.852213,432.683595 483.633465,432.779297 483.341797,432.779297 L474.181641,432.779297 C474.218099,434.292325 474.623694,435.417965 475.398438,436.15625 C476.173181,436.894535 477.189447,437.272786 478.447266,437.291016 C479.194665,437.291016 479.878252,437.15202 480.498047,436.874023 C481.117842,436.596027 481.751299,436.220054 482.398438,435.746094 C482.489584,435.682291 482.57845,435.63444 482.665039,435.602539 C482.751628,435.570638 482.840494,435.554688 482.931641,435.554688 C483.086589,435.554688 483.230143,435.597981 483.362305,435.68457 C483.494467,435.771159 483.599283,435.887369 483.676758,436.033203 C483.754232,436.179037 483.792969,436.333984 483.792969,436.498047 C483.792969,436.652996 483.758789,436.803385 483.69043,436.949219 C483.62207,437.095053 483.514975,437.227213 483.369141,437.345703 C481.956373,438.594407 480.251963,439.21875 478.255859,439.21875 Z M474.208984,431.111328 L481.837891,431.111328 C481.755859,429.926426 481.409508,428.948897 480.798828,428.178711 C480.188148,427.408525 479.299485,427.023438 478.132812,427.023438 C477.531247,427.023438 476.984377,427.139647 476.492188,427.37207 C475.999998,427.604493 475.596681,427.918943 475.282227,428.31543 C474.967772,428.711916 474.721681,429.147133 474.543945,429.621094 C474.36621,430.095054 474.254558,430.591794 474.208984,431.111328 Z M492.583984,439.027344 C492.000648,439.027344 491.540366,438.872397 491.203125,438.5625 C490.865884,438.252603 490.546877,437.728519 490.246094,436.990234 L486.171875,427.078125 C486.108073,426.932291 486.076172,426.781902 486.076172,426.626953 C486.076172,426.289712 486.217447,425.995769 486.5,425.745117 C486.782553,425.494465 487.097003,425.369141 487.443359,425.369141 C487.534506,425.369141 487.623372,425.378255 487.709961,425.396484 C487.79655,425.414714 487.883138,425.446614 487.969727,425.492188 C488.056316,425.537761 488.136067,425.594726 488.208984,425.663086 C488.281901,425.731446 488.35026,425.813476 488.414062,425.90918 C488.477865,426.004883 488.532552,426.111979 488.578125,426.230469 L492.583984,436.238281 L496.589844,426.230469 C496.817709,425.656247 497.200518,425.369141 497.738281,425.369141 C497.902345,425.369141 498.066405,425.401041 498.230469,425.464844 C498.394532,425.528646 498.540364,425.617512 498.667969,425.731445 C498.795574,425.845378 498.90039,425.982096 498.982422,426.141602 C499.064454,426.301108 499.105469,426.46289 499.105469,426.626953 C499.105469,426.663412 499.10319,426.69987 499.098633,426.736328 C499.094075,426.772787 499.08724,426.811523 499.078125,426.852539 C499.06901,426.893555 499.059896,426.932291 499.050781,426.96875 C499.041667,427.005209 499.027995,427.041666 499.009766,427.078125 L494.921875,436.990234 C494.621092,437.728519 494.302085,438.252603 493.964844,438.5625 C493.627602,438.872397 493.167321,439.027344 492.583984,439.027344 Z M507.746094,439.21875 C505.722646,439.200521 504.075202,438.55567 502.803711,437.28418 C501.53222,436.012689 500.896484,434.283214 500.896484,432.095703 C500.896484,431.166011 501.044595,430.286462 501.34082,429.457031 C501.637046,428.6276 502.058591,427.891605 502.605469,427.249023 C503.152346,426.606442 503.847327,426.096031 504.69043,425.717773 C505.533533,425.339516 506.470047,425.150391 507.5,425.150391 C508.548182,425.150391 509.475582,425.328123 510.282227,425.683594 C511.088871,426.039064 511.731443,426.52669 512.209961,427.146484 C512.688479,427.766279 513.053059,428.461259 513.303711,429.231445 C513.554363,430.001631 513.688802,430.842443 513.707031,431.753906 C513.707031,432.054689 513.634115,432.30078 513.488281,432.492188 C513.342447,432.683595 513.123699,432.779297 512.832031,432.779297 L503.671875,432.779297 C503.708334,434.292325 504.113928,435.417965 504.888672,436.15625 C505.663415,436.894535 506.679681,437.272786 507.9375,437.291016 C508.6849,437.291016 509.368486,437.15202 509.988281,436.874023 C510.608076,436.596027 511.241533,436.220054 511.888672,435.746094 C511.979818,435.682291 512.068684,435.63444 512.155273,435.602539 C512.241862,435.570638 512.330729,435.554688 512.421875,435.554688 C512.576824,435.554688 512.720377,435.597981 512.852539,435.68457 C512.984701,435.771159 513.089518,435.887369 513.166992,436.033203 C513.244467,436.179037 513.283203,436.333984 513.283203,436.498047 C513.283203,436.652996 513.249024,436.803385 513.180664,436.949219 C513.112304,437.095053 513.005209,437.227213 512.859375,437.345703 C511.446608,438.594407 509.742197,439.21875 507.746094,439.21875 Z M503.699219,431.111328 L511.328125,431.111328 C511.246093,429.926426 510.899743,428.948897 510.289062,428.178711 C509.678382,427.408525 508.789719,427.023438 507.623047,427.023438 C507.021481,427.023438 506.474612,427.139647 505.982422,427.37207 C505.490232,427.604493 505.086916,427.918943 504.772461,428.31543 C504.458006,428.711916 504.211915,429.147133 504.03418,429.621094 C503.856444,430.095054 503.744792,430.591794 503.699219,431.111328 Z M518.21875,439 C517.84505,439 517.526043,438.888347 517.261719,438.665039 C516.997395,438.441731 516.865234,438.120445 516.865234,437.701172 L516.865234,426.654297 C516.865234,426.253253 517.00423,425.941082 517.282227,425.717773 C517.560223,425.494465 517.886066,425.382812 518.259766,425.382812 C518.4056,425.382812 518.544596,425.398763 518.676758,425.430664 C518.80892,425.462565 518.931966,425.512695 519.045898,425.581055 C519.159831,425.649414 519.260091,425.729166 519.34668,425.820312 C519.433269,425.911459 519.501627,426.023111 519.551758,426.155273 C519.601888,426.287436 519.626953,426.430989 519.626953,426.585938 L519.599609,428.267578 C519.827475,427.419918 520.290036,426.708987 520.987305,426.134766 C521.684574,425.560544 522.493485,425.273438 523.414062,425.273438 C523.742189,425.273438 523.997395,425.391926 524.179688,425.628906 C524.36198,425.865887 524.453125,426.148436 524.453125,426.476562 C524.453125,426.777345 524.371095,427.037108 524.207031,427.255859 C524.042968,427.47461 523.810548,427.583984 523.509766,427.583984 C522.29752,427.583984 521.347334,427.866534 520.65918,428.431641 C519.971025,428.996748 519.626953,429.858067 519.626953,431.015625 L519.626953,437.701172 C519.626953,438.11133 519.485678,438.430337 519.203125,438.658203 C518.920572,438.886069 518.59245,439 518.21875,439 Z M530.742188,439.21875 C529.320305,439.21875 528.162765,438.876957 527.269531,438.193359 C526.376298,437.509762 525.929688,436.539069 525.929688,435.28125 C525.929688,434.743487 525.986653,434.271812 526.100586,433.866211 C526.214519,433.46061 526.371744,433.109702 526.572266,432.813477 C526.772787,432.517251 527.059894,432.266603 527.433594,432.061523 C527.807294,431.856444 528.206053,431.690105 528.629883,431.5625 C529.053713,431.434895 529.600583,431.336914 530.270508,431.268555 C530.940433,431.200195 531.614905,431.154623 532.293945,431.131836 C532.972985,431.109049 533.804683,431.097656 534.789062,431.097656 L534.789062,429.757812 C534.789062,427.916657 533.868499,426.996094 532.027344,426.996094 C531.489581,426.996094 530.938154,427.057617 530.373047,427.180664 C529.80794,427.303712 529.381837,427.419921 529.094727,427.529297 C528.807616,427.638672 528.427086,427.793619 527.953125,427.994141 C527.843749,428.039714 527.729818,428.0625 527.611328,428.0625 C527.520182,428.0625 527.433594,428.048828 527.351562,428.021484 C527.269531,427.99414 527.192058,427.955404 527.119141,427.905273 C527.046224,427.855143 526.980144,427.795899 526.920898,427.727539 C526.861653,427.659179 526.811524,427.586263 526.770508,427.508789 C526.729492,427.431315 526.697591,427.351563 526.674805,427.269531 C526.652018,427.1875 526.640625,427.105469 526.640625,427.023438 C526.640625,426.868489 526.677083,426.729493 526.75,426.606445 C526.822917,426.483398 526.936848,426.38086 527.091797,426.298828 C528.504564,425.533199 530.181631,425.150391 532.123047,425.150391 C533.800139,425.150391 535.12174,425.542314 536.087891,426.326172 C537.054041,427.11003 537.537109,428.331372 537.537109,429.990234 L537.537109,437.701172 C537.537109,438.11133 537.400392,438.432616 537.126953,438.665039 C536.853514,438.897462 536.534507,439.013672 536.169922,439.013672 C535.932942,439.013672 535.716472,438.965821 535.520508,438.870117 C535.324543,438.774414 535.160482,438.628582 535.02832,438.432617 C534.896158,438.236653 534.830078,438.001954 534.830078,437.728516 L534.830078,436.716797 C534.018876,438.384774 532.65626,439.21875 530.742188,439.21875 Z M531.015625,437.414062 C532.00912,437.414062 532.884111,437.00391 533.640625,436.183594 C534.397139,435.363277 534.775391,434.319668 534.775391,433.052734 L534.775391,432.669922 C533.900386,432.669922 533.171227,432.681315 532.587891,432.704102 C532.004554,432.726888 531.464521,432.772461 530.967773,432.84082 C530.471026,432.90918 530.081382,432.998046 529.798828,433.107422 C529.516275,433.216797 529.272462,433.367187 529.067383,433.558594 C528.862304,433.750001 528.723308,433.975585 528.650391,434.235352 C528.577474,434.495118 528.541016,434.80729 528.541016,435.171875 C528.541016,435.937504 528.764321,436.502602 529.210938,436.867188 C529.657554,437.231773 530.259111,437.414062 531.015625,437.414062 Z M547.162109,444.878906 C546.168615,444.878906 545.252608,444.776368 544.414062,444.571289 C543.575517,444.36621 542.905601,444.11784 542.404297,443.826172 C542.057941,443.62565 541.884766,443.343101 541.884766,442.978516 C541.884766,442.860025 541.907552,442.743816 541.953125,442.629883 C541.998698,442.51595 542.060221,442.415691 542.137695,442.329102 C542.21517,442.242513 542.308593,442.174154 542.417969,442.124023 C542.527344,442.073893 542.645833,442.048828 542.773438,442.048828 C542.891928,442.048828 543.010416,442.071614 543.128906,442.117188 C543.165365,442.135417 543.402342,442.224283 543.839844,442.383789 C544.277346,442.543295 544.596353,442.65039 544.796875,442.705078 C544.997397,442.759766 545.30729,442.823567 545.726562,442.896484 C546.145835,442.969401 546.560545,443.005859 546.970703,443.005859 C548.319668,443.005859 549.356442,442.65723 550.081055,441.959961 C550.805668,441.262692 551.167969,440.276048 551.167969,439 L551.167969,436.525391 C550.77604,437.309249 550.21322,437.917641 549.479492,438.350586 C548.745765,438.783531 547.882166,439 546.888672,439 C544.938141,439 543.395513,438.375657 542.260742,437.126953 C541.125971,435.878249 540.558594,434.255869 540.558594,432.259766 C540.558594,430.190745 541.116856,428.488613 542.233398,427.15332 C543.34994,425.818027 544.874339,425.150391 546.806641,425.150391 C547.936855,425.150391 548.846025,425.360024 549.53418,425.779297 C550.222334,426.19857 550.794269,426.800126 551.25,427.583984 L551.25,426.462891 C551.286459,426.116535 551.427733,425.847657 551.673828,425.65625 C551.919923,425.464843 552.202472,425.369141 552.521484,425.369141 C552.876955,425.369141 553.18229,425.483072 553.4375,425.710938 C553.69271,425.938803 553.820312,426.25781 553.820312,426.667969 L553.820312,438.849609 C553.820312,440.863942 553.223313,442.372391 552.029297,443.375 C550.83528,444.377609 549.212901,444.878906 547.162109,444.878906 Z M547.326172,437.181641 C548.456386,437.181641 549.37695,436.753259 550.087891,435.896484 C550.798832,435.039709 551.154297,433.795581 551.154297,432.164062 C551.154297,431.589841 551.11556,431.056643 551.038086,430.564453 C550.960612,430.072263 550.828451,429.605145 550.641602,429.163086 C550.454752,428.721026 550.217775,428.345054 549.930664,428.035156 C549.643553,427.725259 549.278974,427.479168 548.836914,427.296875 C548.394855,427.114582 547.891279,427.023438 547.326172,427.023438 C546.779294,427.023438 546.280276,427.114582 545.829102,427.296875 C545.377927,427.479168 544.997397,427.727537 544.6875,428.041992 C544.377603,428.356447 544.11784,428.73242 543.908203,429.169922 C543.698567,429.607424 543.545899,430.07682 543.450195,430.578125 C543.354492,431.07943 543.306641,431.612627 543.306641,432.177734 C543.306641,433.01628 543.416015,433.76139 543.634766,434.413086 C543.853517,435.064782 544.149738,435.588865 544.523438,435.985352 C544.897137,436.381838 545.320961,436.680338 545.794922,436.880859 C546.268883,437.081381 546.779294,437.181641 547.326172,437.181641 Z M563.705078,439.21875 C561.681631,439.200521 560.034186,438.55567 558.762695,437.28418 C557.491205,436.012689 556.855469,434.283214 556.855469,432.095703 C556.855469,431.166011 557.003579,430.286462 557.299805,429.457031 C557.59603,428.6276 558.017575,427.891605 558.564453,427.249023 C559.111331,426.606442 559.806311,426.096031 560.649414,425.717773 C561.492517,425.339516 562.429031,425.150391 563.458984,425.150391 C564.507167,425.150391 565.434566,425.328123 566.241211,425.683594 C567.047856,426.039064 567.690427,426.52669 568.168945,427.146484 C568.647463,427.766279 569.012043,428.461259 569.262695,429.231445 C569.513348,430.001631 569.647786,430.842443 569.666016,431.753906 C569.666016,432.054689 569.5931,432.30078 569.447266,432.492188 C569.301432,432.683595 569.082684,432.779297 568.791016,432.779297 L559.630859,432.779297 C559.667318,434.292325 560.072913,435.417965 560.847656,436.15625 C561.6224,436.894535 562.638666,437.272786 563.896484,437.291016 C564.643884,437.291016 565.327471,437.15202 565.947266,436.874023 C566.56706,436.596027 567.200518,436.220054 567.847656,435.746094 C567.938803,435.682291 568.027669,435.63444 568.114258,435.602539 C568.200847,435.570638 568.289713,435.554688 568.380859,435.554688 C568.535808,435.554688 568.679361,435.597981 568.811523,435.68457 C568.943686,435.771159 569.048502,435.887369 569.125977,436.033203 C569.203451,436.179037 569.242188,436.333984 569.242188,436.498047 C569.242188,436.652996 569.208008,436.803385 569.139648,436.949219 C569.071289,437.095053 568.964193,437.227213 568.818359,437.345703 C567.405592,438.594407 565.701182,439.21875 563.705078,439.21875 Z M559.658203,431.111328 L567.287109,431.111328 C567.205078,429.926426 566.858727,428.948897 566.248047,428.178711 C565.637367,427.408525 564.748704,427.023438 563.582031,427.023438 C562.980466,427.023438 562.433596,427.139647 561.941406,427.37207 C561.449216,427.604493 561.0459,427.918943 560.731445,428.31543 C560.416991,428.711916 560.170899,429.147133 559.993164,429.621094 C559.815429,430.095054 559.703776,430.591794 559.658203,431.111328 Z M580.630859,437.728516 C580.348306,437.527994 580.207031,437.268231 580.207031,436.949219 C580.207031,436.712238 580.293619,436.502605 580.466797,436.320312 C580.639975,436.13802 580.858723,436.046875 581.123047,436.046875 C581.332683,436.046875 581.546874,436.110676 581.765625,436.238281 C583.032558,437.013025 584.335931,437.400391 585.675781,437.400391 C586.614588,437.400391 587.382484,437.218101 587.979492,436.853516 C588.5765,436.48893 588.875,435.942061 588.875,435.212891 C588.875,434.711586 588.706382,434.305991 588.369141,433.996094 C588.031899,433.686196 587.489587,433.435548 586.742188,433.244141 L584.417969,432.65625 C583.989581,432.546874 583.631837,432.448894 583.344727,432.362305 C583.057616,432.275716 582.750002,432.170899 582.421875,432.047852 C582.093748,431.924804 581.827149,431.79948 581.62207,431.671875 C581.416991,431.54427 581.214194,431.389324 581.013672,431.207031 C580.81315,431.024739 580.658204,430.82422 580.548828,430.605469 C580.439453,430.386718 580.350586,430.131512 580.282227,429.839844 C580.213867,429.548176 580.179688,429.224611 580.179688,428.869141 C580.179688,427.90299 580.503252,427.105472 581.150391,426.476562 C582.098312,425.5651 583.565745,425.109375 585.552734,425.109375 C586.445968,425.109375 587.279944,425.211913 588.054688,425.416992 C588.829431,425.622071 589.481117,425.861327 590.009766,426.134766 C590.401695,426.326173 590.597656,426.617837 590.597656,427.009766 C590.597656,427.119141 590.579427,427.226236 590.542969,427.331055 C590.50651,427.435873 590.451823,427.527018 590.378906,427.604492 C590.305989,427.681967 590.214844,427.743489 590.105469,427.789062 C589.996093,427.834636 589.877605,427.857422 589.75,427.857422 C589.613281,427.857422 589.462891,427.830078 589.298828,427.775391 C589.253255,427.757161 589.164389,427.722982 589.032227,427.672852 C588.900064,427.622721 588.788412,427.579427 588.697266,427.542969 C588.606119,427.50651 588.480795,427.463216 588.321289,427.413086 C588.161783,427.362955 588.015951,427.317383 587.883789,427.276367 C587.751627,427.235351 587.594402,427.194336 587.412109,427.15332 C587.229817,427.112304 587.056641,427.078125 586.892578,427.050781 C586.728515,427.023437 586.546225,427.000651 586.345703,426.982422 C586.145181,426.964193 585.94922,426.955078 585.757812,426.955078 C585.183591,426.955078 584.675458,427.012044 584.233398,427.125977 C583.791339,427.239909 583.431316,427.435871 583.15332,427.713867 C582.875324,427.991863 582.736328,428.335935 582.736328,428.746094 C582.736328,429.265628 582.879881,429.634765 583.166992,429.853516 C583.454103,430.072267 584.057938,430.295572 584.978516,430.523438 L587.275391,431.083984 C588.669929,431.439455 589.67708,431.931637 590.296875,432.560547 C590.91667,433.189456 591.226562,434.005203 591.226562,435.007812 C591.226562,435.709639 591.089845,436.333982 590.816406,436.880859 C590.542967,437.427737 590.160159,437.872069 589.667969,438.213867 C589.175779,438.555666 588.603844,438.81315 587.952148,438.986328 C587.300452,439.159506 586.582686,439.246094 585.798828,439.246094 C585.288409,439.246094 584.768883,439.205079 584.240234,439.123047 C582.809238,438.886067 581.606125,438.421227 580.630859,437.728516 Z M595.888672,439 C595.505857,439 595.182293,438.881512 594.917969,438.644531 C594.653645,438.407551 594.521484,438.065757 594.521484,437.619141 L594.521484,426.75 C594.521484,426.321612 594.66048,425.984376 594.938477,425.738281 C595.216473,425.492186 595.542316,425.369141 595.916016,425.369141 C596.280601,425.369141 596.599608,425.492186 596.873047,425.738281 C597.146486,425.984376 597.283203,426.321612 597.283203,426.75 L597.283203,437.619141 C597.283203,438.047528 597.144207,438.384764 596.866211,438.630859 C596.588215,438.876954 596.262372,439 595.888672,439 Z M595.902344,422.375 C595.391925,422.375 594.977215,422.22689 594.658203,421.930664 C594.339191,421.634439 594.179688,421.244794 594.179688,420.761719 C594.179688,420.278643 594.339191,419.88672 594.658203,419.585938 C594.977215,419.285155 595.396482,419.134766 595.916016,419.134766 C596.426435,419.134766 596.836587,419.285155 597.146484,419.585938 C597.456382,419.88672 597.611328,420.278643 597.611328,420.761719 C597.611328,421.244794 597.454103,421.634439 597.139648,421.930664 C596.825194,422.22689 596.412763,422.375 595.902344,422.375 Z M602.519531,439 C602.145831,439 601.826824,438.886069 601.5625,438.658203 C601.298176,438.430337 601.166016,438.106773 601.166016,437.6875 L601.166016,426.654297 C601.166016,426.253253 601.302733,425.938803 601.576172,425.710938 C601.849611,425.483072 602.173175,425.369141 602.546875,425.369141 C602.91146,425.369141 603.232746,425.476236 603.510742,425.69043 C603.788738,425.904623 603.927734,426.203123 603.927734,426.585938 L603.927734,427.679688 C604.356122,426.832027 604.950843,426.19857 605.711914,425.779297 C606.472986,425.360024 607.341141,425.150391 608.316406,425.150391 C609.455735,425.150391 610.419592,425.430661 611.208008,425.991211 C611.996423,426.551761 612.5319,427.310542 612.814453,428.267578 C613.206382,427.22851 613.819332,426.449221 614.65332,425.929688 C615.487309,425.410154 616.487624,425.150391 617.654297,425.150391 C618.356123,425.150391 619.003252,425.25065 619.595703,425.451172 C620.188154,425.651694 620.714516,425.957029 621.174805,426.367188 C621.635093,426.777346 621.995116,427.321937 622.254883,428.000977 C622.51465,428.680016 622.644531,429.466141 622.644531,430.359375 L622.644531,437.6875 C622.644531,438.106773 622.507814,438.430337 622.234375,438.658203 C621.960936,438.886069 621.632814,439 621.25,439 C620.8763,439 620.555014,438.886069 620.286133,438.658203 C620.017251,438.430337 619.882812,438.106773 619.882812,437.6875 L619.882812,430.291016 C619.882812,429.19726 619.636721,428.376956 619.144531,427.830078 C618.652341,427.2832 617.945968,427.009766 617.025391,427.009766 C615.931635,427.009766 615.033858,427.390296 614.332031,428.151367 C613.630205,428.912439 613.279297,429.994785 613.279297,431.398438 L613.279297,437.673828 C613.279297,438.093101 613.142579,438.418944 612.869141,438.651367 C612.595702,438.88379 612.26758,439 611.884766,439 C611.511066,439 611.18978,438.88379 610.920898,438.651367 C610.652017,438.418944 610.517578,438.093101 610.517578,437.673828 L610.517578,430.509766 C610.517578,429.324864 610.269208,428.445315 609.772461,427.871094 C609.275714,427.296872 608.571619,427.009766 607.660156,427.009766 C606.529942,427.009766 605.625329,427.38346 604.946289,428.130859 C604.267249,428.878259 603.927734,429.908197 603.927734,431.220703 L603.927734,437.6875 C603.927734,438.106773 603.788738,438.430337 603.510742,438.658203 C603.232746,438.886069 602.902346,439 602.519531,439 Z M627.867188,444.208984 C627.502602,444.208984 627.183595,444.095053 626.910156,443.867188 C626.636717,443.639322 626.5,443.324872 626.5,442.923828 L626.5,426.695312 C626.5,426.285154 626.636717,425.963868 626.910156,425.731445 C627.183595,425.499022 627.50716,425.382812 627.880859,425.382812 C628.318362,425.382812 628.655598,425.494465 628.892578,425.717773 C629.129558,425.941082 629.248047,426.262368 629.248047,426.681641 L629.248047,427.652344 C630.150395,425.984367 631.690744,425.150391 633.869141,425.150391 C634.817062,425.150391 635.669267,425.344074 636.425781,425.731445 C637.182295,426.118817 637.799802,426.6429 638.27832,427.303711 C638.756838,427.964522 639.123697,428.716467 639.378906,429.55957 C639.634116,430.402673 639.761719,431.30273 639.761719,432.259766 C639.761719,434.301443 639.214849,435.971673 638.121094,437.270508 C637.027338,438.569342 635.541676,439.21875 633.664062,439.21875 C631.604156,439.21875 630.132166,438.416675 629.248047,436.8125 L629.248047,442.923828 C629.248047,443.324872 629.111329,443.639322 628.837891,443.867188 C628.564452,444.095053 628.240887,444.208984 627.867188,444.208984 Z M633.212891,437.345703 C633.768883,437.345703 634.267901,437.243165 634.709961,437.038086 C635.15202,436.833007 635.514322,436.564129 635.796875,436.231445 C636.079428,435.898761 636.314127,435.506838 636.500977,435.055664 C636.687826,434.60449 636.819987,434.146487 636.897461,433.681641 C636.974935,433.216795 637.013672,432.733726 637.013672,432.232422 C637.013672,431.621742 636.952149,431.031578 636.829102,430.461914 C636.706054,429.89225 636.512371,429.340823 636.248047,428.807617 C635.983723,428.274411 635.598635,427.843752 635.092773,427.515625 C634.586912,427.187498 633.992191,427.023438 633.308594,427.023438 C632.55208,427.023438 631.907229,427.148762 631.374023,427.399414 C630.840818,427.650066 630.42383,428.012367 630.123047,428.486328 C629.822264,428.960289 629.603516,429.502601 629.466797,430.113281 C629.330077,430.723961 629.261719,431.430335 629.261719,432.232422 C629.261719,432.76107 629.305013,433.266925 629.391602,433.75 C629.478191,434.233075 629.624022,434.695636 629.829102,435.137695 C630.034181,435.579755 630.284829,435.962563 630.581055,436.286133 C630.87728,436.609702 631.250974,436.867187 631.702148,437.058594 C632.153323,437.250001 632.656898,437.345703 633.212891,437.345703 Z M644.369141,439 C643.995441,439 643.676434,438.881512 643.412109,438.644531 C643.147785,438.407551 643.015625,438.065757 643.015625,437.619141 L643.015625,420.789062 C643.015625,420.36979 643.152342,420.037111 643.425781,419.791016 C643.69922,419.544921 644.022785,419.421875 644.396484,419.421875 C644.770184,419.421875 645.093749,419.544921 645.367188,419.791016 C645.640626,420.037111 645.777344,420.36979 645.777344,420.789062 L645.777344,437.619141 C645.777344,438.047528 645.636069,438.384764 645.353516,438.630859 C645.070962,438.876954 644.74284,439 644.369141,439 Z M651.232422,439 C650.849607,439 650.526043,438.881512 650.261719,438.644531 C649.997395,438.407551 649.865234,438.065757 649.865234,437.619141 L649.865234,426.75 C649.865234,426.321612 650.00423,425.984376 650.282227,425.738281 C650.560223,425.492186 650.886066,425.369141 651.259766,425.369141 C651.624351,425.369141 651.943358,425.492186 652.216797,425.738281 C652.490236,425.984376 652.626953,426.321612 652.626953,426.75 L652.626953,437.619141 C652.626953,438.047528 652.487957,438.384764 652.209961,438.630859 C651.931965,438.876954 651.606122,439 651.232422,439 Z M651.246094,422.375 C650.735675,422.375 650.320965,422.22689 650.001953,421.930664 C649.682941,421.634439 649.523438,421.244794 649.523438,420.761719 C649.523438,420.278643 649.682941,419.88672 650.001953,419.585938 C650.320965,419.285155 650.740232,419.134766 651.259766,419.134766 C651.770185,419.134766 652.180337,419.285155 652.490234,419.585938 C652.800132,419.88672 652.955078,420.278643 652.955078,420.761719 C652.955078,421.244794 652.797853,421.634439 652.483398,421.930664 C652.168944,422.22689 651.756513,422.375 651.246094,422.375 Z M659.039062,439 C658.665363,439 658.341798,438.881512 658.068359,438.644531 C657.794921,438.407551 657.658203,438.074872 657.658203,437.646484 L657.658203,427.296875 L656.003906,427.296875 C655.67578,427.296875 655.42741,427.212566 655.258789,427.043945 C655.090168,426.875325 655.005859,426.663413 655.005859,426.408203 C655.005859,426.162108 655.090168,425.950196 655.258789,425.772461 C655.42741,425.594726 655.67578,425.505859 656.003906,425.505859 L657.658203,425.505859 L657.658203,423.837891 C657.658203,420.775375 659.029934,419.244141 661.773438,419.244141 L663.455078,419.244141 C663.746746,419.244141 663.976887,419.353515 664.145508,419.572266 C664.314128,419.791017 664.398438,420.041665 664.398438,420.324219 C664.398438,420.606772 664.316407,420.850585 664.152344,421.055664 C663.98828,421.260743 663.755861,421.363281 663.455078,421.363281 L662.292969,421.363281 C661.919269,421.363281 661.627605,421.392903 661.417969,421.452148 C661.208332,421.511394 661.021485,421.645832 660.857422,421.855469 C660.693359,422.065105 660.579427,422.368162 660.515625,422.764648 C660.451823,423.161135 660.419922,423.696611 660.419922,424.371094 L660.419922,425.505859 L662.59375,425.505859 C662.912762,425.505859 663.154296,425.594726 663.318359,425.772461 C663.482423,425.950196 663.564453,426.162108 663.564453,426.408203 C663.564453,426.672527 663.484701,426.886718 663.325195,427.050781 C663.165689,427.214845 662.921877,427.296875 662.59375,427.296875 L660.419922,427.296875 L660.419922,437.646484 C660.419922,438.074872 660.283204,438.407551 660.009766,438.644531 C659.736327,438.881512 659.412762,439 659.039062,439 Z M667.693359,439 C667.310545,439 666.98698,438.881512 666.722656,438.644531 C666.458332,438.407551 666.326172,438.065757 666.326172,437.619141 L666.326172,426.75 C666.326172,426.321612 666.465168,425.984376 666.743164,425.738281 C667.02116,425.492186 667.347003,425.369141 667.720703,425.369141 C668.085288,425.369141 668.404296,425.492186 668.677734,425.738281 C668.951173,425.984376 669.087891,426.321612 669.087891,426.75 L669.087891,437.619141 C669.087891,438.047528 668.948895,438.384764 668.670898,438.630859 C668.392902,438.876954 668.067059,439 667.693359,439 Z M667.707031,422.375 C667.196612,422.375 666.781903,422.22689 666.462891,421.930664 C666.143879,421.634439 665.984375,421.244794 665.984375,420.761719 C665.984375,420.278643 666.143879,419.88672 666.462891,419.585938 C666.781903,419.285155 667.201169,419.134766 667.720703,419.134766 C668.231122,419.134766 668.641274,419.285155 668.951172,419.585938 C669.261069,419.88672 669.416016,420.278643 669.416016,420.761719 C669.416016,421.244794 669.258791,421.634439 668.944336,421.930664 C668.629881,422.22689 668.21745,422.375 667.707031,422.375 Z M679,439.21875 C676.976552,439.200521 675.329108,438.55567 674.057617,437.28418 C672.786126,436.012689 672.150391,434.283214 672.150391,432.095703 C672.150391,431.166011 672.298501,430.286462 672.594727,429.457031 C672.890952,428.6276 673.312497,427.891605 673.859375,427.249023 C674.406253,426.606442 675.101233,426.096031 675.944336,425.717773 C676.787439,425.339516 677.723953,425.150391 678.753906,425.150391 C679.802089,425.150391 680.729488,425.328123 681.536133,425.683594 C682.342777,426.039064 682.985349,426.52669 683.463867,427.146484 C683.942385,427.766279 684.306965,428.461259 684.557617,429.231445 C684.808269,430.001631 684.942708,430.842443 684.960938,431.753906 C684.960938,432.054689 684.888022,432.30078 684.742188,432.492188 C684.596353,432.683595 684.377606,432.779297 684.085938,432.779297 L674.925781,432.779297 C674.96224,434.292325 675.367835,435.417965 676.142578,436.15625 C676.917322,436.894535 677.933587,437.272786 679.191406,437.291016 C679.938806,437.291016 680.622393,437.15202 681.242188,436.874023 C681.861982,436.596027 682.495439,436.220054 683.142578,435.746094 C683.233724,435.682291 683.322591,435.63444 683.40918,435.602539 C683.495769,435.570638 683.584635,435.554688 683.675781,435.554688 C683.83073,435.554688 683.974283,435.597981 684.106445,435.68457 C684.238607,435.771159 684.343424,435.887369 684.420898,436.033203 C684.498373,436.179037 684.537109,436.333984 684.537109,436.498047 C684.537109,436.652996 684.50293,436.803385 684.43457,436.949219 C684.366211,437.095053 684.259115,437.227213 684.113281,437.345703 C682.700514,438.594407 680.996104,439.21875 679,439.21875 Z M674.953125,431.111328 L682.582031,431.111328 C682.5,429.926426 682.153649,428.948897 681.542969,428.178711 C680.932289,427.408525 680.043626,427.023438 678.876953,427.023438 C678.275388,427.023438 677.728518,427.139647 677.236328,427.37207 C676.744138,427.604493 676.340822,427.918943 676.026367,428.31543 C675.711912,428.711916 675.465821,429.147133 675.288086,429.621094 C675.110351,430.095054 674.998698,430.591794 674.953125,431.111328 Z M693.123047,439.21875 C692.175125,439.21875 691.32292,439.025067 690.566406,438.637695 C689.809892,438.250324 689.192385,437.72624 688.713867,437.06543 C688.235349,436.404619 687.868491,435.650395 687.613281,434.802734 C687.358072,433.955074 687.230469,433.052739 687.230469,432.095703 C687.230469,430.054026 687.777338,428.386074 688.871094,427.091797 C689.964849,425.79752 691.450511,425.150391 693.328125,425.150391 C695.388031,425.150391 696.860022,425.947909 697.744141,427.542969 L697.744141,420.707031 C697.744141,420.296873 697.880858,419.980144 698.154297,419.756836 C698.427736,419.533528 698.7513,419.421875 699.125,419.421875 C699.4987,419.421875 699.819986,419.533528 700.088867,419.756836 C700.357749,419.980144 700.492188,420.296873 700.492188,420.707031 L700.492188,437.673828 C700.492188,438.083986 700.35547,438.405272 700.082031,438.637695 C699.808592,438.870118 699.485028,438.986328 699.111328,438.986328 C698.673826,438.986328 698.33659,438.874676 698.099609,438.651367 C697.862629,438.428059 697.744141,438.102216 697.744141,437.673828 L697.744141,436.703125 C696.841792,438.380217 695.301443,439.21875 693.123047,439.21875 Z M693.683594,437.345703 C694.440108,437.345703 695.084958,437.220379 695.618164,436.969727 C696.15137,436.719074 696.568358,436.356773 696.869141,435.882812 C697.169923,435.408852 697.388671,434.86654 697.525391,434.255859 C697.66211,433.645179 697.730469,432.938806 697.730469,432.136719 C697.730469,431.60807 697.687175,431.102216 697.600586,430.619141 C697.513997,430.136065 697.368165,429.673505 697.163086,429.231445 C696.958007,428.789386 696.707358,428.406577 696.411133,428.083008 C696.114907,427.759438 695.741213,427.501954 695.290039,427.310547 C694.838865,427.11914 694.335289,427.023438 693.779297,427.023438 C693.086585,427.023438 692.485029,427.176105 691.974609,427.481445 C691.46419,427.786785 691.069988,428.194659 690.791992,428.705078 C690.513996,429.215497 690.30892,429.75781 690.176758,430.332031 C690.044596,430.906253 689.978516,431.507809 689.978516,432.136719 C689.978516,432.747399 690.040038,433.337562 690.163086,433.907227 C690.286133,434.476891 690.479816,435.028318 690.744141,435.561523 C691.008465,436.094729 691.393552,436.52311 691.899414,436.84668 C692.405276,437.170249 692.999997,437.336588 693.683594,437.345703 Z M458.349609,481 C457.97591,481 457.656902,480.886069 457.392578,480.658203 C457.128254,480.430337 456.996094,480.106773 456.996094,479.6875 L456.996094,468.654297 C456.996094,468.253253 457.132811,467.938803 457.40625,467.710938 C457.679689,467.483072 458.003253,467.369141 458.376953,467.369141 C458.741538,467.369141 459.062824,467.476236 459.34082,467.69043 C459.618816,467.904623 459.757812,468.203123 459.757812,468.585938 L459.757812,469.679688 C460.1862,468.832027 460.780921,468.19857 461.541992,467.779297 C462.303064,467.360024 463.171219,467.150391 464.146484,467.150391 C465.285813,467.150391 466.249671,467.430661 467.038086,467.991211 C467.826501,468.551761 468.361978,469.310542 468.644531,470.267578 C469.03646,469.22851 469.64941,468.449221 470.483398,467.929688 C471.317387,467.410154 472.317702,467.150391 473.484375,467.150391 C474.186201,467.150391 474.83333,467.25065 475.425781,467.451172 C476.018232,467.651694 476.544594,467.957029 477.004883,468.367188 C477.465172,468.777346 477.825194,469.321937 478.084961,470.000977 C478.344728,470.680016 478.474609,471.466141 478.474609,472.359375 L478.474609,479.6875 C478.474609,480.106773 478.337892,480.430337 478.064453,480.658203 C477.791014,480.886069 477.462893,481 477.080078,481 C476.706378,481 476.385092,480.886069 476.116211,480.658203 C475.847329,480.430337 475.712891,480.106773 475.712891,479.6875 L475.712891,472.291016 C475.712891,471.19726 475.466799,470.376956 474.974609,469.830078 C474.482419,469.2832 473.776046,469.009766 472.855469,469.009766 C471.761713,469.009766 470.863936,469.390296 470.162109,470.151367 C469.460283,470.912439 469.109375,471.994785 469.109375,473.398438 L469.109375,479.673828 C469.109375,480.093101 468.972658,480.418944 468.699219,480.651367 C468.42578,480.88379 468.097658,481 467.714844,481 C467.341144,481 467.019858,480.88379 466.750977,480.651367 C466.482095,480.418944 466.347656,480.093101 466.347656,479.673828 L466.347656,472.509766 C466.347656,471.324864 466.099286,470.445315 465.602539,469.871094 C465.105792,469.296872 464.401697,469.009766 463.490234,469.009766 C462.36002,469.009766 461.455407,469.38346 460.776367,470.130859 C460.097327,470.878259 459.757812,471.908197 459.757812,473.220703 L459.757812,479.6875 C459.757812,480.106773 459.618816,480.430337 459.34082,480.658203 C459.062824,480.886069 458.732424,481 458.349609,481 Z M486.089844,481.21875 C484.667962,481.21875 483.510421,480.876957 482.617188,480.193359 C481.723954,479.509762 481.277344,478.539069 481.277344,477.28125 C481.277344,476.743487 481.334309,476.271812 481.448242,475.866211 C481.562175,475.46061 481.7194,475.109702 481.919922,474.813477 C482.120444,474.517251 482.40755,474.266603 482.78125,474.061523 C483.15495,473.856444 483.553709,473.690105 483.977539,473.5625 C484.401369,473.434895 484.948239,473.336914 485.618164,473.268555 C486.288089,473.200195 486.962562,473.154623 487.641602,473.131836 C488.320641,473.109049 489.152339,473.097656 490.136719,473.097656 L490.136719,471.757812 C490.136719,469.916657 489.216155,468.996094 487.375,468.996094 C486.837237,468.996094 486.28581,469.057617 485.720703,469.180664 C485.155596,469.303712 484.729494,469.419921 484.442383,469.529297 C484.155272,469.638672 483.774742,469.793619 483.300781,469.994141 C483.191406,470.039714 483.077475,470.0625 482.958984,470.0625 C482.867838,470.0625 482.78125,470.048828 482.699219,470.021484 C482.617187,469.99414 482.539714,469.955404 482.466797,469.905273 C482.39388,469.855143 482.3278,469.795899 482.268555,469.727539 C482.20931,469.659179 482.15918,469.586263 482.118164,469.508789 C482.077148,469.431315 482.045248,469.351563 482.022461,469.269531 C481.999674,469.1875 481.988281,469.105469 481.988281,469.023438 C481.988281,468.868489 482.024739,468.729493 482.097656,468.606445 C482.170573,468.483398 482.284504,468.38086 482.439453,468.298828 C483.852221,467.533199 485.529287,467.150391 487.470703,467.150391 C489.147795,467.150391 490.469396,467.542314 491.435547,468.326172 C492.401698,469.11003 492.884766,470.331372 492.884766,471.990234 L492.884766,479.701172 C492.884766,480.11133 492.748048,480.432616 492.474609,480.665039 C492.201171,480.897462 491.882163,481.013672 491.517578,481.013672 C491.280598,481.013672 491.064129,480.965821 490.868164,480.870117 C490.6722,480.774414 490.508139,480.628582 490.375977,480.432617 C490.243814,480.236653 490.177734,480.001954 490.177734,479.728516 L490.177734,478.716797 C489.366532,480.384774 488.003916,481.21875 486.089844,481.21875 Z M486.363281,479.414062 C487.356776,479.414062 488.231767,479.00391 488.988281,478.183594 C489.744795,477.363277 490.123047,476.319668 490.123047,475.052734 L490.123047,474.669922 C489.248042,474.669922 488.518883,474.681315 487.935547,474.704102 C487.352211,474.726888 486.812177,474.772461 486.31543,474.84082 C485.818682,474.90918 485.429038,474.998046 485.146484,475.107422 C484.863931,475.216797 484.620118,475.367187 484.415039,475.558594 C484.20996,475.750001 484.070964,475.975585 483.998047,476.235352 C483.92513,476.495118 483.888672,476.80729 483.888672,477.171875 C483.888672,477.937504 484.111977,478.502602 484.558594,478.867188 C485.005211,479.231773 485.606767,479.414062 486.363281,479.414062 Z M498.134766,481 C497.761066,481 497.43978,480.88379 497.170898,480.651367 C496.902017,480.418944 496.767578,480.097658 496.767578,479.6875 L496.767578,468.667969 C496.767578,468.25781 496.904296,467.941082 497.177734,467.717773 C497.451173,467.494465 497.774738,467.382812 498.148438,467.382812 C498.522137,467.382812 498.843423,467.492186 499.112305,467.710938 C499.381186,467.929689 499.515625,468.235024 499.515625,468.626953 L499.515625,469.597656 C499.88021,468.804684 500.452145,468.19857 501.231445,467.779297 C502.010746,467.360024 502.919917,467.150391 503.958984,467.150391 C504.660811,467.150391 505.305661,467.252929 505.893555,467.458008 C506.481448,467.663087 507.005532,467.97298 507.46582,468.387695 C507.926109,468.802411 508.283853,469.353838 508.539062,470.041992 C508.794272,470.730147 508.921875,471.520829 508.921875,472.414062 L508.921875,479.6875 C508.921875,480.097658 508.782879,480.418944 508.504883,480.651367 C508.226887,480.88379 507.901044,481 507.527344,481 C507.153644,481 506.832358,480.88379 506.563477,480.651367 C506.294595,480.418944 506.160156,480.097658 506.160156,479.6875 L506.160156,472.386719 C506.160156,471.292963 505.895836,470.458987 505.367188,469.884766 C504.838539,469.310544 504.123051,469.023438 503.220703,469.023438 C502.208979,469.023438 501.34766,469.39941 500.636719,470.151367 C499.925778,470.903324 499.552084,471.917311 499.515625,473.193359 L499.515625,479.6875 C499.515625,480.097658 499.378908,480.418944 499.105469,480.651367 C498.83203,480.88379 498.508465,481 498.134766,481 Z M516.523438,481.21875 C515.101555,481.21875 513.944015,480.876957 513.050781,480.193359 C512.157548,479.509762 511.710938,478.539069 511.710938,477.28125 C511.710938,476.743487 511.767903,476.271812 511.881836,475.866211 C511.995769,475.46061 512.152994,475.109702 512.353516,474.813477 C512.554037,474.517251 512.841144,474.266603 513.214844,474.061523 C513.588544,473.856444 513.987303,473.690105 514.411133,473.5625 C514.834963,473.434895 515.381833,473.336914 516.051758,473.268555 C516.721683,473.200195 517.396155,473.154623 518.075195,473.131836 C518.754235,473.109049 519.585933,473.097656 520.570312,473.097656 L520.570312,471.757812 C520.570312,469.916657 519.649749,468.996094 517.808594,468.996094 C517.270831,468.996094 516.719404,469.057617 516.154297,469.180664 C515.58919,469.303712 515.163087,469.419921 514.875977,469.529297 C514.588866,469.638672 514.208336,469.793619 513.734375,469.994141 C513.624999,470.039714 513.511068,470.0625 513.392578,470.0625 C513.301432,470.0625 513.214844,470.048828 513.132812,470.021484 C513.050781,469.99414 512.973308,469.955404 512.900391,469.905273 C512.827474,469.855143 512.761394,469.795899 512.702148,469.727539 C512.642903,469.659179 512.592774,469.586263 512.551758,469.508789 C512.510742,469.431315 512.478841,469.351563 512.456055,469.269531 C512.433268,469.1875 512.421875,469.105469 512.421875,469.023438 C512.421875,468.868489 512.458333,468.729493 512.53125,468.606445 C512.604167,468.483398 512.718098,468.38086 512.873047,468.298828 C514.285814,467.533199 515.962881,467.150391 517.904297,467.150391 C519.581389,467.150391 520.90299,467.542314 521.869141,468.326172 C522.835291,469.11003 523.318359,470.331372 523.318359,471.990234 L523.318359,479.701172 C523.318359,480.11133 523.181642,480.432616 522.908203,480.665039 C522.634764,480.897462 522.315757,481.013672 521.951172,481.013672 C521.714192,481.013672 521.497722,480.965821 521.301758,480.870117 C521.105793,480.774414 520.941732,480.628582 520.80957,480.432617 C520.677408,480.236653 520.611328,480.001954 520.611328,479.728516 L520.611328,478.716797 C519.800126,480.384774 518.43751,481.21875 516.523438,481.21875 Z M516.796875,479.414062 C517.79037,479.414062 518.665361,479.00391 519.421875,478.183594 C520.178389,477.363277 520.556641,476.319668 520.556641,475.052734 L520.556641,474.669922 C519.681636,474.669922 518.952477,474.681315 518.369141,474.704102 C517.785804,474.726888 517.245771,474.772461 516.749023,474.84082 C516.252276,474.90918 515.862632,474.998046 515.580078,475.107422 C515.297525,475.216797 515.053712,475.367187 514.848633,475.558594 C514.643554,475.750001 514.504558,475.975585 514.431641,476.235352 C514.358724,476.495118 514.322266,476.80729 514.322266,477.171875 C514.322266,477.937504 514.545571,478.502602 514.992188,478.867188 C515.438804,479.231773 516.040361,479.414062 516.796875,479.414062 Z M532.943359,486.878906 C531.949865,486.878906 531.033858,486.776368 530.195312,486.571289 C529.356767,486.36621 528.686851,486.11784 528.185547,485.826172 C527.839191,485.62565 527.666016,485.343101 527.666016,484.978516 C527.666016,484.860025 527.688802,484.743816 527.734375,484.629883 C527.779948,484.51595 527.841471,484.415691 527.918945,484.329102 C527.99642,484.242513 528.089843,484.174154 528.199219,484.124023 C528.308594,484.073893 528.427083,484.048828 528.554688,484.048828 C528.673178,484.048828 528.791666,484.071614 528.910156,484.117188 C528.946615,484.135417 529.183592,484.224283 529.621094,484.383789 C530.058596,484.543295 530.377603,484.65039 530.578125,484.705078 C530.778647,484.759766 531.08854,484.823567 531.507812,484.896484 C531.927085,484.969401 532.341795,485.005859 532.751953,485.005859 C534.100918,485.005859 535.137692,484.65723 535.862305,483.959961 C536.586918,483.262692 536.949219,482.276048 536.949219,481 L536.949219,478.525391 C536.55729,479.309249 535.99447,479.917641 535.260742,480.350586 C534.527015,480.783531 533.663416,481 532.669922,481 C530.719391,481 529.176763,480.375657 528.041992,479.126953 C526.907221,477.878249 526.339844,476.255869 526.339844,474.259766 C526.339844,472.190745 526.898106,470.488613 528.014648,469.15332 C529.13119,467.818027 530.655589,467.150391 532.587891,467.150391 C533.718105,467.150391 534.627275,467.360024 535.31543,467.779297 C536.003584,468.19857 536.575519,468.800126 537.03125,469.583984 L537.03125,468.462891 C537.067709,468.116535 537.208983,467.847657 537.455078,467.65625 C537.701173,467.464843 537.983722,467.369141 538.302734,467.369141 C538.658205,467.369141 538.96354,467.483072 539.21875,467.710938 C539.47396,467.938803 539.601562,468.25781 539.601562,468.667969 L539.601562,480.849609 C539.601562,482.863942 539.004563,484.372391 537.810547,485.375 C536.61653,486.377609 534.994151,486.878906 532.943359,486.878906 Z M533.107422,479.181641 C534.237636,479.181641 535.1582,478.753259 535.869141,477.896484 C536.580082,477.039709 536.935547,475.795581 536.935547,474.164062 C536.935547,473.589841 536.89681,473.056643 536.819336,472.564453 C536.741862,472.072263 536.609701,471.605145 536.422852,471.163086 C536.236002,470.721026 535.999025,470.345054 535.711914,470.035156 C535.424803,469.725259 535.060224,469.479168 534.618164,469.296875 C534.176105,469.114582 533.672529,469.023438 533.107422,469.023438 C532.560544,469.023438 532.061526,469.114582 531.610352,469.296875 C531.159177,469.479168 530.778647,469.727537 530.46875,470.041992 C530.158853,470.356447 529.89909,470.73242 529.689453,471.169922 C529.479817,471.607424 529.327149,472.07682 529.231445,472.578125 C529.135742,473.07943 529.087891,473.612627 529.087891,474.177734 C529.087891,475.01628 529.197265,475.76139 529.416016,476.413086 C529.634767,477.064782 529.930988,477.588865 530.304688,477.985352 C530.678387,478.381838 531.102211,478.680338 531.576172,478.880859 C532.050133,479.081381 532.560544,479.181641 533.107422,479.181641 Z M549.486328,481.21875 C547.462881,481.200521 545.815436,480.55567 544.543945,479.28418 C543.272455,478.012689 542.636719,476.283214 542.636719,474.095703 C542.636719,473.166011 542.784829,472.286462 543.081055,471.457031 C543.37728,470.6276 543.798825,469.891605 544.345703,469.249023 C544.892581,468.606442 545.587561,468.096031 546.430664,467.717773 C547.273767,467.339516 548.210281,467.150391 549.240234,467.150391 C550.288417,467.150391 551.215816,467.328123 552.022461,467.683594 C552.829106,468.039064 553.471677,468.52669 553.950195,469.146484 C554.428713,469.766279 554.793293,470.461259 555.043945,471.231445 C555.294598,472.001631 555.429036,472.842443 555.447266,473.753906 C555.447266,474.054689 555.37435,474.30078 555.228516,474.492188 C555.082682,474.683595 554.863934,474.779297 554.572266,474.779297 L545.412109,474.779297 C545.448568,476.292325 545.854163,477.417965 546.628906,478.15625 C547.40365,478.894535 548.419916,479.272786 549.677734,479.291016 C550.425134,479.291016 551.108721,479.15202 551.728516,478.874023 C552.34831,478.596027 552.981768,478.220054 553.628906,477.746094 C553.720053,477.682291 553.808919,477.63444 553.895508,477.602539 C553.982097,477.570638 554.070963,477.554688 554.162109,477.554688 C554.317058,477.554688 554.460611,477.597981 554.592773,477.68457 C554.724936,477.771159 554.829752,477.887369 554.907227,478.033203 C554.984701,478.179037 555.023438,478.333984 555.023438,478.498047 C555.023438,478.652996 554.989258,478.803385 554.920898,478.949219 C554.852539,479.095053 554.745443,479.227213 554.599609,479.345703 C553.186842,480.594407 551.482432,481.21875 549.486328,481.21875 Z M545.439453,473.111328 L553.068359,473.111328 C552.986328,471.926426 552.639977,470.948897 552.029297,470.178711 C551.418617,469.408525 550.529954,469.023438 549.363281,469.023438 C548.761716,469.023438 548.214846,469.139647 547.722656,469.37207 C547.230466,469.604493 546.82715,469.918943 546.512695,470.31543 C546.198241,470.711916 545.952149,471.147133 545.774414,471.621094 C545.596679,472.095054 545.485026,472.591794 545.439453,473.111328 Z M559.931641,481 C559.557941,481 559.238934,480.886069 558.974609,480.658203 C558.710285,480.430337 558.578125,480.106773 558.578125,479.6875 L558.578125,468.654297 C558.578125,468.253253 558.714842,467.938803 558.988281,467.710938 C559.26172,467.483072 559.585285,467.369141 559.958984,467.369141 C560.32357,467.369141 560.644855,467.476236 560.922852,467.69043 C561.200848,467.904623 561.339844,468.203123 561.339844,468.585938 L561.339844,469.679688 C561.768231,468.832027 562.362952,468.19857 563.124023,467.779297 C563.885095,467.360024 564.75325,467.150391 565.728516,467.150391 C566.867844,467.150391 567.831702,467.430661 568.620117,467.991211 C569.408533,468.551761 569.944009,469.310542 570.226562,470.267578 C570.618492,469.22851 571.231441,468.449221 572.06543,467.929688 C572.899418,467.410154 573.899734,467.150391 575.066406,467.150391 C575.768233,467.150391 576.415362,467.25065 577.007812,467.451172 C577.600263,467.651694 578.126625,467.957029 578.586914,468.367188 C579.047203,468.777346 579.407225,469.321937 579.666992,470.000977 C579.926759,470.680016 580.056641,471.466141 580.056641,472.359375 L580.056641,479.6875 C580.056641,480.106773 579.919923,480.430337 579.646484,480.658203 C579.373046,480.886069 579.044924,481 578.662109,481 C578.28841,481 577.967124,480.886069 577.698242,480.658203 C577.429361,480.430337 577.294922,480.106773 577.294922,479.6875 L577.294922,472.291016 C577.294922,471.19726 577.048831,470.376956 576.556641,469.830078 C576.064451,469.2832 575.358078,469.009766 574.4375,469.009766 C573.343745,469.009766 572.445967,469.390296 571.744141,470.151367 C571.042314,470.912439 570.691406,471.994785 570.691406,473.398438 L570.691406,479.673828 C570.691406,480.093101 570.554689,480.418944 570.28125,480.651367 C570.007811,480.88379 569.679689,481 569.296875,481 C568.923175,481 568.601889,480.88379 568.333008,480.651367 C568.064126,480.418944 567.929688,480.093101 567.929688,479.673828 L567.929688,472.509766 C567.929688,471.324864 567.681318,470.445315 567.18457,469.871094 C566.687823,469.296872 565.983729,469.009766 565.072266,469.009766 C563.942052,469.009766 563.037438,469.38346 562.358398,470.130859 C561.679359,470.878259 561.339844,471.908197 561.339844,473.220703 L561.339844,479.6875 C561.339844,480.106773 561.200848,480.430337 560.922852,480.658203 C560.644855,480.886069 560.314455,481 559.931641,481 Z M589.941406,481.21875 C587.917959,481.200521 586.270514,480.55567 584.999023,479.28418 C583.727533,478.012689 583.091797,476.283214 583.091797,474.095703 C583.091797,473.166011 583.239907,472.286462 583.536133,471.457031 C583.832358,470.6276 584.253904,469.891605 584.800781,469.249023 C585.347659,468.606442 586.042639,468.096031 586.885742,467.717773 C587.728845,467.339516 588.665359,467.150391 589.695312,467.150391 C590.743495,467.150391 591.670894,467.328123 592.477539,467.683594 C593.284184,468.039064 593.926755,468.52669 594.405273,469.146484 C594.883791,469.766279 595.248371,470.461259 595.499023,471.231445 C595.749676,472.001631 595.884114,472.842443 595.902344,473.753906 C595.902344,474.054689 595.829428,474.30078 595.683594,474.492188 C595.53776,474.683595 595.319012,474.779297 595.027344,474.779297 L585.867188,474.779297 C585.903646,476.292325 586.309241,477.417965 587.083984,478.15625 C587.858728,478.894535 588.874994,479.272786 590.132812,479.291016 C590.880212,479.291016 591.563799,479.15202 592.183594,478.874023 C592.803389,478.596027 593.436846,478.220054 594.083984,477.746094 C594.175131,477.682291 594.263997,477.63444 594.350586,477.602539 C594.437175,477.570638 594.526041,477.554688 594.617188,477.554688 C594.772136,477.554688 594.915689,477.597981 595.047852,477.68457 C595.180014,477.771159 595.28483,477.887369 595.362305,478.033203 C595.439779,478.179037 595.478516,478.333984 595.478516,478.498047 C595.478516,478.652996 595.444336,478.803385 595.375977,478.949219 C595.307617,479.095053 595.200522,479.227213 595.054688,479.345703 C593.64192,480.594407 591.93751,481.21875 589.941406,481.21875 Z M585.894531,473.111328 L593.523438,473.111328 C593.441406,471.926426 593.095055,470.948897 592.484375,470.178711 C591.873695,469.408525 590.985032,469.023438 589.818359,469.023438 C589.216794,469.023438 588.669924,469.139647 588.177734,469.37207 C587.685544,469.604493 587.282228,469.918943 586.967773,470.31543 C586.653319,470.711916 586.407227,471.147133 586.229492,471.621094 C586.051757,472.095054 585.940104,472.591794 585.894531,473.111328 Z M600.400391,481 C600.026691,481 599.705405,480.88379 599.436523,480.651367 C599.167642,480.418944 599.033203,480.097658 599.033203,479.6875 L599.033203,468.667969 C599.033203,468.25781 599.169921,467.941082 599.443359,467.717773 C599.716798,467.494465 600.040363,467.382812 600.414062,467.382812 C600.787762,467.382812 601.109048,467.492186 601.37793,467.710938 C601.646811,467.929689 601.78125,468.235024 601.78125,468.626953 L601.78125,469.597656 C602.145835,468.804684 602.71777,468.19857 603.49707,467.779297 C604.276371,467.360024 605.185542,467.150391 606.224609,467.150391 C606.926436,467.150391 607.571286,467.252929 608.15918,467.458008 C608.747073,467.663087 609.271157,467.97298 609.731445,468.387695 C610.191734,468.802411 610.549478,469.353838 610.804688,470.041992 C611.059897,470.730147 611.1875,471.520829 611.1875,472.414062 L611.1875,479.6875 C611.1875,480.097658 611.048504,480.418944 610.770508,480.651367 C610.492512,480.88379 610.166669,481 609.792969,481 C609.419269,481 609.097983,480.88379 608.829102,480.651367 C608.56022,480.418944 608.425781,480.097658 608.425781,479.6875 L608.425781,472.386719 C608.425781,471.292963 608.161461,470.458987 607.632812,469.884766 C607.104164,469.310544 606.388676,469.023438 605.486328,469.023438 C604.474604,469.023438 603.613285,469.39941 602.902344,470.151367 C602.191403,470.903324 601.817709,471.917311 601.78125,473.193359 L601.78125,479.6875 C601.78125,480.097658 601.644533,480.418944 601.371094,480.651367 C601.097655,480.88379 600.77409,481 600.400391,481 Z M619.650391,481.164062 C618.538406,481.164062 617.658857,480.813155 617.011719,480.111328 C616.36458,479.409502 616.041016,478.379564 616.041016,477.021484 L616.041016,469.296875 L614.455078,469.296875 C614.126951,469.296875 613.876303,469.212566 613.703125,469.043945 C613.529947,468.875325 613.443359,468.658855 613.443359,468.394531 C613.443359,468.130207 613.527668,467.916016 613.696289,467.751953 C613.86491,467.58789 614.11328,467.505859 614.441406,467.505859 L616.041016,467.505859 L616.410156,463.71875 C616.455729,463.372394 616.60384,463.085288 616.854492,462.857422 C617.105144,462.629556 617.408201,462.515625 617.763672,462.515625 C618.064455,462.515625 618.312825,462.60677 618.508789,462.789062 C618.704754,462.971355 618.802734,463.240233 618.802734,463.595703 L618.802734,467.505859 L621.25,467.505859 C621.578127,467.505859 621.824218,467.592447 621.988281,467.765625 C622.152345,467.938803 622.234375,468.157551 622.234375,468.421875 C622.234375,468.686199 622.152345,468.898111 621.988281,469.057617 C621.824218,469.217123 621.578127,469.296875 621.25,469.296875 L618.802734,469.296875 L618.802734,476.447266 C618.802734,477.32227 618.92578,477.969399 619.171875,478.388672 C619.41797,478.807945 619.819008,479.017578 620.375,479.017578 L620.511719,479.017578 L621.482422,478.962891 L621.564453,478.962891 C621.901694,478.962891 622.168293,479.069986 622.364258,479.28418 C622.560222,479.498373 622.658203,479.746743 622.658203,480.029297 C622.658203,480.175131 622.635417,480.307291 622.589844,480.425781 C622.544271,480.544271 622.485026,480.642252 622.412109,480.719727 C622.339192,480.797201 622.241212,480.863281 622.118164,480.917969 C621.995117,480.972657 621.87435,481.01595 621.755859,481.047852 C621.637369,481.079753 621.489259,481.104818 621.311523,481.123047 C621.133788,481.141276 620.972006,481.152669 620.826172,481.157227 C620.680338,481.161784 620.507162,481.164062 620.306641,481.164062 L619.650391,481.164062 Z M637,481.21875 C635.578118,481.21875 634.420577,480.876957 633.527344,480.193359 C632.63411,479.509762 632.1875,478.539069 632.1875,477.28125 C632.1875,476.743487 632.244466,476.271812 632.358398,475.866211 C632.472331,475.46061 632.629556,475.109702 632.830078,474.813477 C633.0306,474.517251 633.317706,474.266603 633.691406,474.061523 C634.065106,473.856444 634.463865,473.690105 634.887695,473.5625 C635.311526,473.434895 635.858395,473.336914 636.52832,473.268555 C637.198246,473.200195 637.872718,473.154623 638.551758,473.131836 C639.230798,473.109049 640.062495,473.097656 641.046875,473.097656 L641.046875,471.757812 C641.046875,469.916657 640.126311,468.996094 638.285156,468.996094 C637.747393,468.996094 637.195966,469.057617 636.630859,469.180664 C636.065752,469.303712 635.63965,469.419921 635.352539,469.529297 C635.065428,469.638672 634.684898,469.793619 634.210938,469.994141 C634.101562,470.039714 633.987631,470.0625 633.869141,470.0625 C633.777994,470.0625 633.691407,470.048828 633.609375,470.021484 C633.527343,469.99414 633.44987,469.955404 633.376953,469.905273 C633.304036,469.855143 633.237956,469.795899 633.178711,469.727539 C633.119466,469.659179 633.069336,469.586263 633.02832,469.508789 C632.987304,469.431315 632.955404,469.351563 632.932617,469.269531 C632.909831,469.1875 632.898438,469.105469 632.898438,469.023438 C632.898438,468.868489 632.934895,468.729493 633.007812,468.606445 C633.08073,468.483398 633.194661,468.38086 633.349609,468.298828 C634.762377,467.533199 636.439443,467.150391 638.380859,467.150391 C640.057951,467.150391 641.379552,467.542314 642.345703,468.326172 C643.311854,469.11003 643.794922,470.331372 643.794922,471.990234 L643.794922,479.701172 C643.794922,480.11133 643.658204,480.432616 643.384766,480.665039 C643.111327,480.897462 642.79232,481.013672 642.427734,481.013672 C642.190754,481.013672 641.974285,480.965821 641.77832,480.870117 C641.582356,480.774414 641.418295,480.628582 641.286133,480.432617 C641.153971,480.236653 641.087891,480.001954 641.087891,479.728516 L641.087891,478.716797 C640.276689,480.384774 638.914072,481.21875 637,481.21875 Z M637.273438,479.414062 C638.266932,479.414062 639.141923,479.00391 639.898438,478.183594 C640.654952,477.363277 641.033203,476.319668 641.033203,475.052734 L641.033203,474.669922 C640.158199,474.669922 639.429039,474.681315 638.845703,474.704102 C638.262367,474.726888 637.722333,474.772461 637.225586,474.84082 C636.728839,474.90918 636.339194,474.998046 636.056641,475.107422 C635.774087,475.216797 635.530274,475.367187 635.325195,475.558594 C635.120116,475.750001 634.98112,475.975585 634.908203,476.235352 C634.835286,476.495118 634.798828,476.80729 634.798828,477.171875 C634.798828,477.937504 635.022133,478.502602 635.46875,478.867188 C635.915367,479.231773 636.516923,479.414062 637.273438,479.414062 Z M649.044922,481 C648.671222,481 648.349936,480.88379 648.081055,480.651367 C647.812173,480.418944 647.677734,480.097658 647.677734,479.6875 L647.677734,468.667969 C647.677734,468.25781 647.814452,467.941082 648.087891,467.717773 C648.361329,467.494465 648.684894,467.382812 649.058594,467.382812 C649.432294,467.382812 649.753579,467.492186 650.022461,467.710938 C650.291342,467.929689 650.425781,468.235024 650.425781,468.626953 L650.425781,469.597656 C650.790366,468.804684 651.362301,468.19857 652.141602,467.779297 C652.920902,467.360024 653.830073,467.150391 654.869141,467.150391 C655.570967,467.150391 656.215817,467.252929 656.803711,467.458008 C657.391605,467.663087 657.915688,467.97298 658.375977,468.387695 C658.836265,468.802411 659.194009,469.353838 659.449219,470.041992 C659.704428,470.730147 659.832031,471.520829 659.832031,472.414062 L659.832031,479.6875 C659.832031,480.097658 659.693035,480.418944 659.415039,480.651367 C659.137043,480.88379 658.8112,481 658.4375,481 C658.0638,481 657.742514,480.88379 657.473633,480.651367 C657.204751,480.418944 657.070312,480.097658 657.070312,479.6875 L657.070312,472.386719 C657.070312,471.292963 656.805992,470.458987 656.277344,469.884766 C655.748695,469.310544 655.033208,469.023438 654.130859,469.023438 C653.119136,469.023438 652.257816,469.39941 651.546875,470.151367 C650.835934,470.903324 650.46224,471.917311 650.425781,473.193359 L650.425781,479.6875 C650.425781,480.097658 650.289064,480.418944 650.015625,480.651367 C649.742186,480.88379 649.418622,481 649.044922,481 Z M668.705078,481.21875 C667.757157,481.21875 666.904952,481.025067 666.148438,480.637695 C665.391923,480.250324 664.774416,479.72624 664.295898,479.06543 C663.81738,478.404619 663.450522,477.650395 663.195312,476.802734 C662.940103,475.955074 662.8125,475.052739 662.8125,474.095703 C662.8125,472.054026 663.35937,470.386074 664.453125,469.091797 C665.54688,467.79752 667.032543,467.150391 668.910156,467.150391 C670.970062,467.150391 672.442053,467.947909 673.326172,469.542969 L673.326172,462.707031 C673.326172,462.296873 673.462889,461.980144 673.736328,461.756836 C674.009767,461.533528 674.333331,461.421875 674.707031,461.421875 C675.080731,461.421875 675.402017,461.533528 675.670898,461.756836 C675.93978,461.980144 676.074219,462.296873 676.074219,462.707031 L676.074219,479.673828 C676.074219,480.083986 675.937501,480.405272 675.664062,480.637695 C675.390624,480.870118 675.067059,480.986328 674.693359,480.986328 C674.255857,480.986328 673.918621,480.874676 673.681641,480.651367 C673.44466,480.428059 673.326172,480.102216 673.326172,479.673828 L673.326172,478.703125 C672.423824,480.380217 670.883474,481.21875 668.705078,481.21875 Z M669.265625,479.345703 C670.022139,479.345703 670.66699,479.220379 671.200195,478.969727 C671.733401,478.719074 672.150389,478.356773 672.451172,477.882812 C672.751955,477.408852 672.970702,476.86654 673.107422,476.255859 C673.244141,475.645179 673.3125,474.938806 673.3125,474.136719 C673.3125,473.60807 673.269206,473.102216 673.182617,472.619141 C673.096028,472.136065 672.950196,471.673505 672.745117,471.231445 C672.540038,470.789386 672.28939,470.406577 671.993164,470.083008 C671.696939,469.759438 671.323244,469.501954 670.87207,469.310547 C670.420896,469.11914 669.91732,469.023438 669.361328,469.023438 C668.668616,469.023438 668.06706,469.176105 667.556641,469.481445 C667.046221,469.786785 666.65202,470.194659 666.374023,470.705078 C666.096027,471.215497 665.890951,471.75781 665.758789,472.332031 C665.626627,472.906253 665.560547,473.507809 665.560547,474.136719 C665.560547,474.747399 665.62207,475.337562 665.745117,475.907227 C665.868165,476.476891 666.061848,477.028318 666.326172,477.561523 C666.590496,478.094729 666.975583,478.52311 667.481445,478.84668 C667.987307,479.170249 668.582028,479.336588 669.265625,479.345703 Z M693.998047,481.21875 C691.974599,481.200521 690.327155,480.55567 689.055664,479.28418 C687.784173,478.012689 687.148438,476.283214 687.148438,474.095703 C687.148438,473.166011 687.296548,472.286462 687.592773,471.457031 C687.888999,470.6276 688.310544,469.891605 688.857422,469.249023 C689.4043,468.606442 690.09928,468.096031 690.942383,467.717773 C691.785486,467.339516 692.722,467.150391 693.751953,467.150391 C694.800135,467.150391 695.727535,467.328123 696.53418,467.683594 C697.340824,468.039064 697.983396,468.52669 698.461914,469.146484 C698.940432,469.766279 699.305012,470.461259 699.555664,471.231445 C699.806316,472.001631 699.940755,472.842443 699.958984,473.753906 C699.958984,474.054689 699.886068,474.30078 699.740234,474.492188 C699.5944,474.683595 699.375653,474.779297 699.083984,474.779297 L689.923828,474.779297 C689.960287,476.292325 690.365882,477.417965 691.140625,478.15625 C691.915368,478.894535 692.931634,479.272786 694.189453,479.291016 C694.936853,479.291016 695.62044,479.15202 696.240234,478.874023 C696.860029,478.596027 697.493486,478.220054 698.140625,477.746094 C698.231771,477.682291 698.320638,477.63444 698.407227,477.602539 C698.493816,477.570638 698.582682,477.554688 698.673828,477.554688 C698.828777,477.554688 698.97233,477.597981 699.104492,477.68457 C699.236654,477.771159 699.341471,477.887369 699.418945,478.033203 C699.49642,478.179037 699.535156,478.333984 699.535156,478.498047 C699.535156,478.652996 699.500977,478.803385 699.432617,478.949219 C699.364257,479.095053 699.257162,479.227213 699.111328,479.345703 C697.698561,480.594407 695.994151,481.21875 693.998047,481.21875 Z M689.951172,473.111328 L697.580078,473.111328 C697.498046,471.926426 697.151696,470.948897 696.541016,470.178711 C695.930335,469.408525 695.041673,469.023438 693.875,469.023438 C693.273434,469.023438 692.726565,469.139647 692.234375,469.37207 C691.742185,469.604493 691.338869,469.918943 691.024414,470.31543 C690.709959,470.711916 690.463868,471.147133 690.286133,471.621094 C690.108398,472.095054 689.996745,472.591794 689.951172,473.111328 Z M706.849609,481.21875 C705.427727,481.21875 704.270187,480.876957 703.376953,480.193359 C702.483719,479.509762 702.037109,478.539069 702.037109,477.28125 C702.037109,476.743487 702.094075,476.271812 702.208008,475.866211 C702.321941,475.46061 702.479166,475.109702 702.679688,474.813477 C702.880209,474.517251 703.167316,474.266603 703.541016,474.061523 C703.914715,473.856444 704.313474,473.690105 704.737305,473.5625 C705.161135,473.434895 705.708004,473.336914 706.37793,473.268555 C707.047855,473.200195 707.722327,473.154623 708.401367,473.131836 C709.080407,473.109049 709.912104,473.097656 710.896484,473.097656 L710.896484,471.757812 C710.896484,469.916657 709.975921,468.996094 708.134766,468.996094 C707.597003,468.996094 707.045576,469.057617 706.480469,469.180664 C705.915362,469.303712 705.489259,469.419921 705.202148,469.529297 C704.915038,469.638672 704.534508,469.793619 704.060547,469.994141 C703.951171,470.039714 703.83724,470.0625 703.71875,470.0625 C703.627604,470.0625 703.541016,470.048828 703.458984,470.021484 C703.376953,469.99414 703.29948,469.955404 703.226562,469.905273 C703.153645,469.855143 703.087565,469.795899 703.02832,469.727539 C702.969075,469.659179 702.918946,469.586263 702.87793,469.508789 C702.836914,469.431315 702.805013,469.351563 702.782227,469.269531 C702.75944,469.1875 702.748047,469.105469 702.748047,469.023438 C702.748047,468.868489 702.784505,468.729493 702.857422,468.606445 C702.930339,468.483398 703.04427,468.38086 703.199219,468.298828 C704.611986,467.533199 706.289053,467.150391 708.230469,467.150391 C709.90756,467.150391 711.229162,467.542314 712.195312,468.326172 C713.161463,469.11003 713.644531,470.331372 713.644531,471.990234 L713.644531,479.701172 C713.644531,480.11133 713.507814,480.432616 713.234375,480.665039 C712.960936,480.897462 712.641929,481.013672 712.277344,481.013672 C712.040363,481.013672 711.823894,480.965821 711.62793,480.870117 C711.431965,480.774414 711.267904,480.628582 711.135742,480.432617 C711.00358,480.236653 710.9375,480.001954 710.9375,479.728516 L710.9375,478.716797 C710.126298,480.384774 708.763681,481.21875 706.849609,481.21875 Z M707.123047,479.414062 C708.116541,479.414062 708.991533,479.00391 709.748047,478.183594 C710.504561,477.363277 710.882812,476.319668 710.882812,475.052734 L710.882812,474.669922 C710.007808,474.669922 709.278649,474.681315 708.695312,474.704102 C708.111976,474.726888 707.571943,474.772461 707.075195,474.84082 C706.578448,474.90918 706.188803,474.998046 705.90625,475.107422 C705.623697,475.216797 705.379884,475.367187 705.174805,475.558594 C704.969726,475.750001 704.83073,475.975585 704.757812,476.235352 C704.684895,476.495118 704.648438,476.80729 704.648438,477.171875 C704.648438,477.937504 704.871743,478.502602 705.318359,478.867188 C705.764976,479.231773 706.366533,479.414062 707.123047,479.414062 Z M717.458984,479.728516 C717.176431,479.527994 717.035156,479.268231 717.035156,478.949219 C717.035156,478.712238 717.121744,478.502605 717.294922,478.320312 C717.4681,478.13802 717.686848,478.046875 717.951172,478.046875 C718.160808,478.046875 718.374999,478.110676 718.59375,478.238281 C719.860683,479.013025 721.164056,479.400391 722.503906,479.400391 C723.442713,479.400391 724.210609,479.218101 724.807617,478.853516 C725.404625,478.48893 725.703125,477.942061 725.703125,477.212891 C725.703125,476.711586 725.534507,476.305991 725.197266,475.996094 C724.860024,475.686196 724.317712,475.435548 723.570312,475.244141 L721.246094,474.65625 C720.817706,474.546874 720.459962,474.448894 720.172852,474.362305 C719.885741,474.275716 719.578127,474.170899 719.25,474.047852 C718.921873,473.924804 718.655274,473.79948 718.450195,473.671875 C718.245116,473.54427 718.042319,473.389324 717.841797,473.207031 C717.641275,473.024739 717.486329,472.82422 717.376953,472.605469 C717.267578,472.386718 717.178711,472.131512 717.110352,471.839844 C717.041992,471.548176 717.007812,471.224611 717.007812,470.869141 C717.007812,469.90299 717.331377,469.105472 717.978516,468.476562 C718.926437,467.5651 720.39387,467.109375 722.380859,467.109375 C723.274093,467.109375 724.108069,467.211913 724.882812,467.416992 C725.657556,467.622071 726.309242,467.861327 726.837891,468.134766 C727.22982,468.326173 727.425781,468.617837 727.425781,469.009766 C727.425781,469.119141 727.407552,469.226236 727.371094,469.331055 C727.334635,469.435873 727.279948,469.527018 727.207031,469.604492 C727.134114,469.681967 727.042969,469.743489 726.933594,469.789062 C726.824218,469.834636 726.70573,469.857422 726.578125,469.857422 C726.441406,469.857422 726.291016,469.830078 726.126953,469.775391 C726.08138,469.757161 725.992514,469.722982 725.860352,469.672852 C725.728189,469.622721 725.616537,469.579427 725.525391,469.542969 C725.434244,469.50651 725.30892,469.463216 725.149414,469.413086 C724.989908,469.362955 724.844076,469.317383 724.711914,469.276367 C724.579752,469.235351 724.422527,469.194336 724.240234,469.15332 C724.057942,469.112304 723.884766,469.078125 723.720703,469.050781 C723.55664,469.023437 723.37435,469.000651 723.173828,468.982422 C722.973306,468.964193 722.777345,468.955078 722.585938,468.955078 C722.011716,468.955078 721.503583,469.012044 721.061523,469.125977 C720.619464,469.239909 720.259441,469.435871 719.981445,469.713867 C719.703449,469.991863 719.564453,470.335935 719.564453,470.746094 C719.564453,471.265628 719.708006,471.634765 719.995117,471.853516 C720.282228,472.072267 720.886063,472.295572 721.806641,472.523438 L724.103516,473.083984 C725.498054,473.439455 726.505205,473.931637 727.125,474.560547 C727.744795,475.189456 728.054688,476.005203 728.054688,477.007812 C728.054688,477.709639 727.91797,478.333982 727.644531,478.880859 C727.371092,479.427737 726.988284,479.872069 726.496094,480.213867 C726.003904,480.555666 725.431969,480.81315 724.780273,480.986328 C724.128577,481.159506 723.410811,481.246094 722.626953,481.246094 C722.116534,481.246094 721.597008,481.205079 721.068359,481.123047 C719.637363,480.886067 718.43425,480.421227 717.458984,479.728516 Z M735.191406,485.771484 C734.936197,486.291018 734.548831,486.550781 734.029297,486.550781 C733.682941,486.550781 733.373048,486.430014 733.099609,486.188477 C732.826171,485.946939 732.689453,485.657554 732.689453,485.320312 C732.689453,485.128905 732.735026,484.937501 732.826172,484.746094 L735.410156,479.386719 L730.40625,469.324219 C730.305989,469.123697 730.255859,468.923178 730.255859,468.722656 C730.255859,468.3763 730.394855,468.080079 730.672852,467.833984 C730.950848,467.587889 731.267576,467.464844 731.623047,467.464844 C731.777996,467.464844 731.926106,467.492187 732.067383,467.546875 C732.20866,467.601563 732.345377,467.692708 732.477539,467.820312 C732.609701,467.947917 732.721354,468.102864 732.8125,468.285156 L736.791016,476.529297 L740.824219,468.175781 C740.960938,467.893228 741.136392,467.683594 741.350586,467.546875 C741.56478,467.410156 741.790363,467.341797 742.027344,467.341797 C742.382814,467.341797 742.694986,467.462564 742.963867,467.704102 C743.232749,467.945639 743.367188,468.239582 743.367188,468.585938 C743.367188,468.777345 743.321615,468.964192 743.230469,469.146484 L735.191406,485.771484 Z M460.755859,523.21875 C459.333977,523.21875 458.176437,522.876957 457.283203,522.193359 C456.389969,521.509762 455.943359,520.539069 455.943359,519.28125 C455.943359,518.743487 456.000325,518.271812 456.114258,517.866211 C456.228191,517.46061 456.385416,517.109702 456.585938,516.813477 C456.786459,516.517251 457.073566,516.266603 457.447266,516.061523 C457.820965,515.856444 458.219724,515.690105 458.643555,515.5625 C459.067385,515.434895 459.614254,515.336914 460.28418,515.268555 C460.954105,515.200195 461.628577,515.154623 462.307617,515.131836 C462.986657,515.109049 463.818354,515.097656 464.802734,515.097656 L464.802734,513.757812 C464.802734,511.916657 463.882171,510.996094 462.041016,510.996094 C461.503253,510.996094 460.951826,511.057617 460.386719,511.180664 C459.821612,511.303712 459.395509,511.419921 459.108398,511.529297 C458.821288,511.638672 458.440758,511.793619 457.966797,511.994141 C457.857421,512.039714 457.74349,512.0625 457.625,512.0625 C457.533854,512.0625 457.447266,512.048828 457.365234,512.021484 C457.283203,511.99414 457.20573,511.955404 457.132812,511.905273 C457.059895,511.855143 456.993815,511.795899 456.93457,511.727539 C456.875325,511.659179 456.825196,511.586263 456.78418,511.508789 C456.743164,511.431315 456.711263,511.351563 456.688477,511.269531 C456.66569,511.1875 456.654297,511.105469 456.654297,511.023438 C456.654297,510.868489 456.690755,510.729493 456.763672,510.606445 C456.836589,510.483398 456.95052,510.38086 457.105469,510.298828 C458.518236,509.533199 460.195303,509.150391 462.136719,509.150391 C463.81381,509.150391 465.135412,509.542314 466.101562,510.326172 C467.067713,511.11003 467.550781,512.331372 467.550781,513.990234 L467.550781,521.701172 C467.550781,522.11133 467.414064,522.432616 467.140625,522.665039 C466.867186,522.897462 466.548179,523.013672 466.183594,523.013672 C465.946613,523.013672 465.730144,522.965821 465.53418,522.870117 C465.338215,522.774414 465.174154,522.628582 465.041992,522.432617 C464.90983,522.236653 464.84375,522.001954 464.84375,521.728516 L464.84375,520.716797 C464.032548,522.384774 462.669931,523.21875 460.755859,523.21875 Z M461.029297,521.414062 C462.022791,521.414062 462.897783,521.00391 463.654297,520.183594 C464.410811,519.363277 464.789062,518.319668 464.789062,517.052734 L464.789062,516.669922 C463.914058,516.669922 463.184899,516.681315 462.601562,516.704102 C462.018226,516.726888 461.478193,516.772461 460.981445,516.84082 C460.484698,516.90918 460.095053,516.998046 459.8125,517.107422 C459.529947,517.216797 459.286134,517.367187 459.081055,517.558594 C458.875976,517.750001 458.73698,517.975585 458.664062,518.235352 C458.591145,518.495118 458.554688,518.80729 458.554688,519.171875 C458.554688,519.937504 458.777993,520.502602 459.224609,520.867188 C459.671226,521.231773 460.272783,521.414062 461.029297,521.414062 Z M477.162109,523.21875 C475.831374,523.21875 474.660161,522.902021 473.648438,522.268555 C472.636714,521.635088 471.871096,520.78744 471.351562,519.725586 C470.832029,518.663732 470.572266,517.481126 470.572266,516.177734 C470.572266,514.883457 470.8457,513.705409 471.392578,512.643555 C471.939456,511.5817 472.730138,510.734053 473.764648,510.100586 C474.799159,509.467119 475.986321,509.150391 477.326172,509.150391 C478.128259,509.150391 478.85514,509.257486 479.506836,509.47168 C480.158532,509.685873 480.684894,509.943358 481.085938,510.244141 C481.432293,510.49935 481.605469,510.786457 481.605469,511.105469 C481.605469,511.251303 481.566732,511.385742 481.489258,511.508789 C481.411783,511.631837 481.306967,511.727539 481.174805,511.795898 C481.042643,511.864258 480.894532,511.898438 480.730469,511.898438 C480.529947,511.898438 480.333985,511.843751 480.142578,511.734375 C479.349605,511.2513 478.470057,511.009766 477.503906,511.009766 C476.236973,511.009766 475.222986,511.481441 474.461914,512.424805 C473.700843,513.368169 473.320312,514.62369 473.320312,516.191406 C473.320312,517.148442 473.466144,518.009762 473.757812,518.775391 C474.049481,519.541019 474.507484,520.160805 475.131836,520.634766 C475.756188,521.108726 476.501298,521.345703 477.367188,521.345703 C478.570319,521.345703 479.568355,521.067711 480.361328,520.511719 C480.461589,520.438802 480.564127,520.386393 480.668945,520.354492 C480.773764,520.322591 480.876302,520.306641 480.976562,520.306641 C481.095053,520.306641 481.204427,520.327148 481.304688,520.368164 C481.404948,520.40918 481.493815,520.466145 481.571289,520.539062 C481.648763,520.61198 481.708008,520.700846 481.749023,520.805664 C481.790039,520.910482 481.810547,521.017578 481.810547,521.126953 C481.810547,521.272787 481.77181,521.423176 481.694336,521.578125 C481.616862,521.733074 481.496095,521.878906 481.332031,522.015625 C480.365881,522.817712 478.975921,523.21875 477.162109,523.21875 Z M490.314453,523.21875 C488.983717,523.21875 487.812505,522.902021 486.800781,522.268555 C485.789057,521.635088 485.02344,520.78744 484.503906,519.725586 C483.984372,518.663732 483.724609,517.481126 483.724609,516.177734 C483.724609,514.883457 483.998044,513.705409 484.544922,512.643555 C485.0918,511.5817 485.882482,510.734053 486.916992,510.100586 C487.951503,509.467119 489.138665,509.150391 490.478516,509.150391 C491.280603,509.150391 492.007484,509.257486 492.65918,509.47168 C493.310876,509.685873 493.837238,509.943358 494.238281,510.244141 C494.584637,510.49935 494.757812,510.786457 494.757812,511.105469 C494.757812,511.251303 494.719076,511.385742 494.641602,511.508789 C494.564127,511.631837 494.459311,511.727539 494.327148,511.795898 C494.194986,511.864258 494.046876,511.898438 493.882812,511.898438 C493.682291,511.898438 493.486329,511.843751 493.294922,511.734375 C492.501949,511.2513 491.622401,511.009766 490.65625,511.009766 C489.389317,511.009766 488.375329,511.481441 487.614258,512.424805 C486.853186,513.368169 486.472656,514.62369 486.472656,516.191406 C486.472656,517.148442 486.618488,518.009762 486.910156,518.775391 C487.201824,519.541019 487.659828,520.160805 488.28418,520.634766 C488.908532,521.108726 489.653642,521.345703 490.519531,521.345703 C491.722662,521.345703 492.720699,521.067711 493.513672,520.511719 C493.613933,520.438802 493.716471,520.386393 493.821289,520.354492 C493.926107,520.322591 494.028645,520.306641 494.128906,520.306641 C494.247396,520.306641 494.35677,520.327148 494.457031,520.368164 C494.557292,520.40918 494.646158,520.466145 494.723633,520.539062 C494.801107,520.61198 494.860351,520.700846 494.901367,520.805664 C494.942383,520.910482 494.962891,521.017578 494.962891,521.126953 C494.962891,521.272787 494.924154,521.423176 494.84668,521.578125 C494.769205,521.733074 494.648438,521.878906 494.484375,522.015625 C493.518224,522.817712 492.128264,523.21875 490.314453,523.21875 Z M503.767578,523.21875 C501.744131,523.200521 500.096686,522.55567 498.825195,521.28418 C497.553705,520.012689 496.917969,518.283214 496.917969,516.095703 C496.917969,515.166011 497.066079,514.286462 497.362305,513.457031 C497.65853,512.6276 498.080075,511.891605 498.626953,511.249023 C499.173831,510.606442 499.868811,510.096031 500.711914,509.717773 C501.555017,509.339516 502.491531,509.150391 503.521484,509.150391 C504.569667,509.150391 505.497066,509.328123 506.303711,509.683594 C507.110356,510.039064 507.752927,510.52669 508.231445,511.146484 C508.709963,511.766279 509.074543,512.461259 509.325195,513.231445 C509.575848,514.001631 509.710286,514.842443 509.728516,515.753906 C509.728516,516.054689 509.6556,516.30078 509.509766,516.492188 C509.363932,516.683595 509.145184,516.779297 508.853516,516.779297 L499.693359,516.779297 C499.729818,518.292325 500.135413,519.417965 500.910156,520.15625 C501.6849,520.894535 502.701166,521.272786 503.958984,521.291016 C504.706384,521.291016 505.389971,521.15202 506.009766,520.874023 C506.62956,520.596027 507.263018,520.220054 507.910156,519.746094 C508.001303,519.682291 508.090169,519.63444 508.176758,519.602539 C508.263347,519.570638 508.352213,519.554688 508.443359,519.554688 C508.598308,519.554688 508.741861,519.597981 508.874023,519.68457 C509.006186,519.771159 509.111002,519.887369 509.188477,520.033203 C509.265951,520.179037 509.304688,520.333984 509.304688,520.498047 C509.304688,520.652996 509.270508,520.803385 509.202148,520.949219 C509.133789,521.095053 509.026693,521.227213 508.880859,521.345703 C507.468092,522.594407 505.763682,523.21875 503.767578,523.21875 Z M499.720703,515.111328 L507.349609,515.111328 C507.267578,513.926426 506.921227,512.948897 506.310547,512.178711 C505.699867,511.408525 504.811204,511.023438 503.644531,511.023438 C503.042966,511.023438 502.496096,511.139647 502.003906,511.37207 C501.511716,511.604493 501.1084,511.918943 500.793945,512.31543 C500.479491,512.711916 500.233399,513.147133 500.055664,513.621094 C499.877929,514.095054 499.766276,514.591794 499.720703,515.111328 Z M512.791016,521.728516 C512.508462,521.527994 512.367188,521.268231 512.367188,520.949219 C512.367188,520.712238 512.453775,520.502605 512.626953,520.320312 C512.800131,520.13802 513.018879,520.046875 513.283203,520.046875 C513.49284,520.046875 513.70703,520.110676 513.925781,520.238281 C515.192715,521.013025 516.496087,521.400391 517.835938,521.400391 C518.774744,521.400391 519.54264,521.218101 520.139648,520.853516 C520.736657,520.48893 521.035156,519.942061 521.035156,519.212891 C521.035156,518.711586 520.866538,518.305991 520.529297,517.996094 C520.192056,517.686196 519.649743,517.435548 518.902344,517.244141 L516.578125,516.65625 C516.149737,516.546874 515.791994,516.448894 515.504883,516.362305 C515.217772,516.275716 514.910158,516.170899 514.582031,516.047852 C514.253905,515.924804 513.987306,515.79948 513.782227,515.671875 C513.577147,515.54427 513.37435,515.389324 513.173828,515.207031 C512.973306,515.024739 512.81836,514.82422 512.708984,514.605469 C512.599609,514.386718 512.510743,514.131512 512.442383,513.839844 C512.374023,513.548176 512.339844,513.224611 512.339844,512.869141 C512.339844,511.90299 512.663408,511.105472 513.310547,510.476562 C514.258468,509.5651 515.725902,509.109375 517.712891,509.109375 C518.606124,509.109375 519.4401,509.211913 520.214844,509.416992 C520.989587,509.622071 521.641273,509.861327 522.169922,510.134766 C522.561851,510.326173 522.757812,510.617837 522.757812,511.009766 C522.757812,511.119141 522.739584,511.226236 522.703125,511.331055 C522.666666,511.435873 522.61198,511.527018 522.539062,511.604492 C522.466145,511.681967 522.375001,511.743489 522.265625,511.789062 C522.156249,511.834636 522.037761,511.857422 521.910156,511.857422 C521.773437,511.857422 521.623048,511.830078 521.458984,511.775391 C521.413411,511.757161 521.324545,511.722982 521.192383,511.672852 C521.060221,511.622721 520.948568,511.579427 520.857422,511.542969 C520.766276,511.50651 520.640951,511.463216 520.481445,511.413086 C520.321939,511.362955 520.176107,511.317383 520.043945,511.276367 C519.911783,511.235351 519.754558,511.194336 519.572266,511.15332 C519.389973,511.112304 519.216798,511.078125 519.052734,511.050781 C518.888671,511.023437 518.706381,511.000651 518.505859,510.982422 C518.305338,510.964193 518.109376,510.955078 517.917969,510.955078 C517.343747,510.955078 516.835614,511.012044 516.393555,511.125977 C515.951495,511.239909 515.591473,511.435871 515.313477,511.713867 C515.03548,511.991863 514.896484,512.335935 514.896484,512.746094 C514.896484,513.265628 515.040038,513.634765 515.327148,513.853516 C515.614259,514.072267 516.218094,514.295572 517.138672,514.523438 L519.435547,515.083984 C520.830085,515.439455 521.837236,515.931637 522.457031,516.560547 C523.076826,517.189456 523.386719,518.005203 523.386719,519.007812 C523.386719,519.709639 523.250001,520.333982 522.976562,520.880859 C522.703124,521.427737 522.320315,521.872069 521.828125,522.213867 C521.335935,522.555666 520.764001,522.81315 520.112305,522.986328 C519.460609,523.159506 518.742842,523.246094 517.958984,523.246094 C517.448565,523.246094 516.929039,523.205079 516.400391,523.123047 C514.969394,522.886067 513.766281,522.421227 512.791016,521.728516 Z M526.517578,521.728516 C526.235025,521.527994 526.09375,521.268231 526.09375,520.949219 C526.09375,520.712238 526.180338,520.502605 526.353516,520.320312 C526.526694,520.13802 526.745441,520.046875 527.009766,520.046875 C527.219402,520.046875 527.433593,520.110676 527.652344,520.238281 C528.919277,521.013025 530.22265,521.400391 531.5625,521.400391 C532.501307,521.400391 533.269203,521.218101 533.866211,520.853516 C534.463219,520.48893 534.761719,519.942061 534.761719,519.212891 C534.761719,518.711586 534.593101,518.305991 534.255859,517.996094 C533.918618,517.686196 533.376306,517.435548 532.628906,517.244141 L530.304688,516.65625 C529.8763,516.546874 529.518556,516.448894 529.231445,516.362305 C528.944335,516.275716 528.63672,516.170899 528.308594,516.047852 C527.980467,515.924804 527.713868,515.79948 527.508789,515.671875 C527.30371,515.54427 527.100912,515.389324 526.900391,515.207031 C526.699869,515.024739 526.544922,514.82422 526.435547,514.605469 C526.326171,514.386718 526.237305,514.131512 526.168945,513.839844 C526.100586,513.548176 526.066406,513.224611 526.066406,512.869141 C526.066406,511.90299 526.389971,511.105472 527.037109,510.476562 C527.985031,509.5651 529.452464,509.109375 531.439453,509.109375 C532.332687,509.109375 533.166663,509.211913 533.941406,509.416992 C534.71615,509.622071 535.367836,509.861327 535.896484,510.134766 C536.288413,510.326173 536.484375,510.617837 536.484375,511.009766 C536.484375,511.119141 536.466146,511.226236 536.429688,511.331055 C536.393229,511.435873 536.338542,511.527018 536.265625,511.604492 C536.192708,511.681967 536.101563,511.743489 535.992188,511.789062 C535.882812,511.834636 535.764324,511.857422 535.636719,511.857422 C535.499999,511.857422 535.34961,511.830078 535.185547,511.775391 C535.139974,511.757161 535.051107,511.722982 534.918945,511.672852 C534.786783,511.622721 534.675131,511.579427 534.583984,511.542969 C534.492838,511.50651 534.367514,511.463216 534.208008,511.413086 C534.048502,511.362955 533.90267,511.317383 533.770508,511.276367 C533.638346,511.235351 533.481121,511.194336 533.298828,511.15332 C533.116536,511.112304 532.94336,511.078125 532.779297,511.050781 C532.615234,511.023437 532.432944,511.000651 532.232422,510.982422 C532.0319,510.964193 531.835938,510.955078 531.644531,510.955078 C531.07031,510.955078 530.562177,511.012044 530.120117,511.125977 C529.678058,511.239909 529.318035,511.435871 529.040039,511.713867 C528.762043,511.991863 528.623047,512.335935 528.623047,512.746094 C528.623047,513.265628 528.7666,513.634765 529.053711,513.853516 C529.340822,514.072267 529.944657,514.295572 530.865234,514.523438 L533.162109,515.083984 C534.556648,515.439455 535.563799,515.931637 536.183594,516.560547 C536.803389,517.189456 537.113281,518.005203 537.113281,519.007812 C537.113281,519.709639 536.976564,520.333982 536.703125,520.880859 C536.429686,521.427737 536.046877,521.872069 535.554688,522.213867 C535.062498,522.555666 534.490563,522.81315 533.838867,522.986328 C533.187171,523.159506 532.469405,523.246094 531.685547,523.246094 C531.175128,523.246094 530.655602,523.205079 530.126953,523.123047 C528.695956,522.886067 527.492843,522.421227 526.517578,521.728516 Z M541.775391,523 C541.392576,523 541.069012,522.881512 540.804688,522.644531 C540.540363,522.407551 540.408203,522.065757 540.408203,521.619141 L540.408203,510.75 C540.408203,510.321612 540.547199,509.984376 540.825195,509.738281 C541.103191,509.492186 541.429035,509.369141 541.802734,509.369141 C542.16732,509.369141 542.486327,509.492186 542.759766,509.738281 C543.033204,509.984376 543.169922,510.321612 543.169922,510.75 L543.169922,521.619141 C543.169922,522.047528 543.030926,522.384764 542.75293,522.630859 C542.474934,522.876954 542.14909,523 541.775391,523 Z M541.789062,506.375 C541.278643,506.375 540.863934,506.22689 540.544922,505.930664 C540.22591,505.634439 540.066406,505.244794 540.066406,504.761719 C540.066406,504.278643 540.22591,503.88672 540.544922,503.585938 C540.863934,503.285155 541.283201,503.134766 541.802734,503.134766 C542.313154,503.134766 542.723306,503.285155 543.033203,503.585938 C543.343101,503.88672 543.498047,504.278643 543.498047,504.761719 C543.498047,505.244794 543.340822,505.634439 543.026367,505.930664 C542.711912,506.22689 542.299482,506.375 541.789062,506.375 Z M554.421875,523.21875 C552.243479,523.21875 550.70313,522.380217 549.800781,520.703125 L549.800781,521.673828 C549.800781,522.102216 549.682293,522.428059 549.445312,522.651367 C549.208332,522.874676 548.871096,522.986328 548.433594,522.986328 C548.059894,522.986328 547.736329,522.870118 547.462891,522.637695 C547.189452,522.405272 547.052734,522.083986 547.052734,521.673828 L547.052734,504.707031 C547.052734,504.296873 547.187173,503.980144 547.456055,503.756836 C547.724936,503.533528 548.046222,503.421875 548.419922,503.421875 C548.793622,503.421875 549.117186,503.533528 549.390625,503.756836 C549.664064,503.980144 549.800781,504.296873 549.800781,504.707031 L549.800781,511.542969 C550.6849,509.947909 552.156891,509.150391 554.216797,509.150391 C556.09441,509.150391 557.580073,509.79752 558.673828,511.091797 C559.767584,512.386074 560.314453,514.054026 560.314453,516.095703 C560.314453,517.052739 560.18685,517.955074 559.931641,518.802734 C559.676431,519.650395 559.309573,520.404619 558.831055,521.06543 C558.352537,521.72624 557.73503,522.250324 556.978516,522.637695 C556.222001,523.025067 555.369796,523.21875 554.421875,523.21875 Z M553.861328,521.345703 C554.408206,521.336588 554.902667,521.222657 555.344727,521.003906 C555.786786,520.785155 556.142251,520.500327 556.411133,520.149414 C556.680014,519.798501 556.903319,519.390627 557.081055,518.925781 C557.25879,518.460935 557.384114,517.998375 557.457031,517.538086 C557.529948,517.077797 557.566406,516.610679 557.566406,516.136719 C557.566406,515.507809 557.500326,514.906253 557.368164,514.332031 C557.236002,513.75781 557.030926,513.215497 556.75293,512.705078 C556.474934,512.194659 556.080732,511.786785 555.570312,511.481445 C555.059893,511.176105 554.458337,511.023438 553.765625,511.023438 C553.209633,511.023438 552.706057,511.11914 552.254883,511.310547 C551.803709,511.501954 551.430015,511.759438 551.133789,512.083008 C550.837564,512.406577 550.586915,512.789386 550.381836,513.231445 C550.176757,513.673505 550.030925,514.136065 549.944336,514.619141 C549.857747,515.102216 549.814453,515.60807 549.814453,516.136719 C549.814453,516.938806 549.882812,517.645179 550.019531,518.255859 C550.156251,518.86654 550.374998,519.408852 550.675781,519.882812 C550.976564,520.356773 551.393552,520.719074 551.926758,520.969727 C552.459964,521.220379 553.104814,521.345703 553.861328,521.345703 Z M564.908203,523 C564.525389,523 564.201824,522.881512 563.9375,522.644531 C563.673176,522.407551 563.541016,522.065757 563.541016,521.619141 L563.541016,510.75 C563.541016,510.321612 563.680012,509.984376 563.958008,509.738281 C564.236004,509.492186 564.561847,509.369141 564.935547,509.369141 C565.300132,509.369141 565.619139,509.492186 565.892578,509.738281 C566.166017,509.984376 566.302734,510.321612 566.302734,510.75 L566.302734,521.619141 C566.302734,522.047528 566.163738,522.384764 565.885742,522.630859 C565.607746,522.876954 565.281903,523 564.908203,523 Z M564.921875,506.375 C564.411456,506.375 563.996746,506.22689 563.677734,505.930664 C563.358722,505.634439 563.199219,505.244794 563.199219,504.761719 C563.199219,504.278643 563.358722,503.88672 563.677734,503.585938 C563.996746,503.285155 564.416013,503.134766 564.935547,503.134766 C565.445966,503.134766 565.856118,503.285155 566.166016,503.585938 C566.475913,503.88672 566.630859,504.278643 566.630859,504.761719 C566.630859,505.244794 566.473634,505.634439 566.15918,505.930664 C565.844725,506.22689 565.432294,506.375 564.921875,506.375 Z M571.662109,523 C571.28841,523 570.969402,522.881512 570.705078,522.644531 C570.440754,522.407551 570.308594,522.065757 570.308594,521.619141 L570.308594,504.789062 C570.308594,504.36979 570.445311,504.037111 570.71875,503.791016 C570.992189,503.544921 571.315753,503.421875 571.689453,503.421875 C572.063153,503.421875 572.386717,503.544921 572.660156,503.791016 C572.933595,504.037111 573.070312,504.36979 573.070312,504.789062 L573.070312,521.619141 C573.070312,522.047528 572.929038,522.384764 572.646484,522.630859 C572.363931,522.876954 572.035809,523 571.662109,523 Z M578.525391,523 C578.142576,523 577.819012,522.881512 577.554688,522.644531 C577.290363,522.407551 577.158203,522.065757 577.158203,521.619141 L577.158203,510.75 C577.158203,510.321612 577.297199,509.984376 577.575195,509.738281 C577.853191,509.492186 578.179035,509.369141 578.552734,509.369141 C578.91732,509.369141 579.236327,509.492186 579.509766,509.738281 C579.783204,509.984376 579.919922,510.321612 579.919922,510.75 L579.919922,521.619141 C579.919922,522.047528 579.780926,522.384764 579.50293,522.630859 C579.224934,522.876954 578.89909,523 578.525391,523 Z M578.539062,506.375 C578.028643,506.375 577.613934,506.22689 577.294922,505.930664 C576.97591,505.634439 576.816406,505.244794 576.816406,504.761719 C576.816406,504.278643 576.97591,503.88672 577.294922,503.585938 C577.613934,503.285155 578.033201,503.134766 578.552734,503.134766 C579.063154,503.134766 579.473306,503.285155 579.783203,503.585938 C580.093101,503.88672 580.248047,504.278643 580.248047,504.761719 C580.248047,505.244794 580.090822,505.634439 579.776367,505.930664 C579.461912,506.22689 579.049482,506.375 578.539062,506.375 Z M588.423828,523.164062 C587.311843,523.164062 586.432295,522.813155 585.785156,522.111328 C585.138018,521.409502 584.814453,520.379564 584.814453,519.021484 L584.814453,511.296875 L583.228516,511.296875 C582.900389,511.296875 582.64974,511.212566 582.476562,511.043945 C582.303385,510.875325 582.216797,510.658855 582.216797,510.394531 C582.216797,510.130207 582.301106,509.916016 582.469727,509.751953 C582.638347,509.58789 582.886717,509.505859 583.214844,509.505859 L584.814453,509.505859 L585.183594,505.71875 C585.229167,505.372394 585.377277,505.085288 585.62793,504.857422 C585.878582,504.629556 586.181639,504.515625 586.537109,504.515625 C586.837892,504.515625 587.086262,504.60677 587.282227,504.789062 C587.478191,504.971355 587.576172,505.240233 587.576172,505.595703 L587.576172,509.505859 L590.023438,509.505859 C590.351564,509.505859 590.597655,509.592447 590.761719,509.765625 C590.925782,509.938803 591.007812,510.157551 591.007812,510.421875 C591.007812,510.686199 590.925782,510.898111 590.761719,511.057617 C590.597655,511.217123 590.351564,511.296875 590.023438,511.296875 L587.576172,511.296875 L587.576172,518.447266 C587.576172,519.32227 587.699218,519.969399 587.945312,520.388672 C588.191407,520.807945 588.592445,521.017578 589.148438,521.017578 L589.285156,521.017578 L590.255859,520.962891 L590.337891,520.962891 C590.675132,520.962891 590.941731,521.069986 591.137695,521.28418 C591.33366,521.498373 591.431641,521.746743 591.431641,522.029297 C591.431641,522.175131 591.408854,522.307291 591.363281,522.425781 C591.317708,522.544271 591.258464,522.642252 591.185547,522.719727 C591.11263,522.797201 591.014649,522.863281 590.891602,522.917969 C590.768554,522.972657 590.647787,523.01595 590.529297,523.047852 C590.410807,523.079753 590.262696,523.104818 590.084961,523.123047 C589.907226,523.141276 589.745443,523.152669 589.599609,523.157227 C589.453775,523.161784 589.2806,523.164062 589.080078,523.164062 L588.423828,523.164062 Z M598.048828,527.771484 C597.793619,528.291018 597.406253,528.550781 596.886719,528.550781 C596.540363,528.550781 596.23047,528.430014 595.957031,528.188477 C595.683592,527.946939 595.546875,527.657554 595.546875,527.320312 C595.546875,527.128905 595.592447,526.937501 595.683594,526.746094 L598.267578,521.386719 L593.263672,511.324219 C593.163411,511.123697 593.113281,510.923178 593.113281,510.722656 C593.113281,510.3763 593.252277,510.080079 593.530273,509.833984 C593.80827,509.587889 594.124998,509.464844 594.480469,509.464844 C594.635417,509.464844 594.783528,509.492187 594.924805,509.546875 C595.066081,509.601563 595.202799,509.692708 595.334961,509.820312 C595.467123,509.947917 595.578776,510.102864 595.669922,510.285156 L599.648438,518.529297 L603.681641,510.175781 C603.81836,509.893228 603.993814,509.683594 604.208008,509.546875 C604.422202,509.410156 604.647785,509.341797 604.884766,509.341797 C605.240236,509.341797 605.552408,509.462564 605.821289,509.704102 C606.090171,509.945639 606.224609,510.239582 606.224609,510.585938 C606.224609,510.777345 606.179037,510.964192 606.087891,511.146484 L598.048828,527.771484 Z" id="Leverage-simplified"></path>
        </g>
    </g>
</svg>