<?xml version="1.0" encoding="UTF-8"?>
<svg width="86px" height="80px" viewBox="0 0 86 80" version="1.1" xmlns="http://www.w3.org/2000/svg" xmlns:xlink="http://www.w3.org/1999/xlink">
    <!-- Generator: Sketch 52.6 (67491) - http://www.bohemiancoding.com/sketch -->
    <title>Manage from the clou</title>
    <desc>Created with Sketch.</desc>
    <g id="Page-1" stroke="none" stroke-width="1" fill="none" fill-rule="evenodd">
        <g id="Artboard-Copy-52" transform="translate(-1396.000000, -344.000000)" fill="#333333">
            <g id="Group-63-Copy" transform="translate(0.000000, 343.000000)">
                <path d="M1406.22656,15.5595703 C1405.9401,15.5595703 1405.66618,15.4664723 1405.40479,15.2802734 C1405.14339,15.0940746 1404.94108,14.8291033 1404.79785,14.4853516 L1400.14648,3.75390625 L1400.14648,14.96875 C1400.14648,15.2337253 1400.03548,15.4396152 1399.81348,15.5864258 C1399.59147,15.7332364 1399.32829,15.8066406 1399.02393,15.8066406 C1398.71956,15.8066406 1398.45638,15.7332364 1398.23438,15.5864258 C1398.01237,15.4396152 1397.90137,15.2337253 1397.90137,14.96875 L1397.90137,2.58300781 C1397.90137,2.12467219 1398.08398,1.74511869 1398.44922,1.44433594 C1398.81445,1.14355318 1399.24414,0.993164062 1399.73828,0.993164062 C1400.14649,0.993164062 1400.52962,1.1095366 1400.8877,1.34228516 C1401.24577,1.57503372 1401.52506,1.92415132 1401.72559,2.38964844 L1406.22656,12.6269531 L1410.72754,2.38964844 C1410.92806,1.92415132 1411.20735,1.57503372 1411.56543,1.34228516 C1411.9235,1.1095366 1412.30664,0.993164062 1412.71484,0.993164062 C1413.20899,0.993164062 1413.63867,1.14355318 1414.00391,1.44433594 C1414.36914,1.74511869 1414.55176,2.12467219 1414.55176,2.58300781 L1414.55176,14.96875 C1414.55176,15.2337253 1414.44076,15.4396152 1414.21875,15.5864258 C1413.99674,15.7332364 1413.73356,15.8066406 1413.4292,15.8066406 C1413.12484,15.8066406 1412.86165,15.7332364 1412.63965,15.5864258 C1412.41764,15.4396152 1412.30664,15.2337253 1412.30664,14.96875 L1412.30664,3.75390625 L1407.64453,14.4853516 C1407.5013,14.8291033 1407.30078,15.0940746 1407.04297,15.2802734 C1406.78515,15.4664723 1406.51302,15.5595703 1406.22656,15.5595703 Z M1421.07227,16.171875 C1419.95507,16.171875 1419.04558,15.903323 1418.34375,15.3662109 C1417.64192,14.8290989 1417.29102,14.0664112 1417.29102,13.078125 C1417.29102,12.6555968 1417.33577,12.2849951 1417.42529,11.9663086 C1417.51481,11.6476221 1417.63835,11.3719087 1417.7959,11.1391602 C1417.95345,10.9064116 1418.17903,10.7094735 1418.47266,10.5483398 C1418.76628,10.3872062 1419.07959,10.2565109 1419.4126,10.15625 C1419.74561,10.0559891 1420.17529,9.97900417 1420.70166,9.92529297 C1421.22803,9.87158176 1421.75797,9.83577483 1422.2915,9.81787109 C1422.82504,9.79996736 1423.47851,9.79101562 1424.25195,9.79101562 L1424.25195,8.73828125 C1424.25195,7.29165943 1423.52865,6.56835938 1422.08203,6.56835938 C1421.6595,6.56835938 1421.22624,6.61669874 1420.78223,6.71337891 C1420.33821,6.81005908 1420.00342,6.90136676 1419.77783,6.98730469 C1419.55224,7.07324262 1419.25326,7.19498619 1418.88086,7.35253906 C1418.79492,7.38834653 1418.7054,7.40625 1418.6123,7.40625 C1418.54069,7.40625 1418.47266,7.39550792 1418.4082,7.37402344 C1418.34375,7.35253896 1418.28288,7.32210306 1418.22559,7.28271484 C1418.16829,7.24332663 1418.11637,7.19677761 1418.06982,7.14306641 C1418.02327,7.0893552 1417.98389,7.03206411 1417.95166,6.97119141 C1417.91943,6.91031871 1417.89437,6.84765657 1417.87646,6.78320312 C1417.85856,6.71874968 1417.84961,6.6542972 1417.84961,6.58984375 C1417.84961,6.46809835 1417.87825,6.3588872 1417.93555,6.26220703 C1417.99284,6.16552686 1418.08236,6.08496126 1418.2041,6.02050781 C1419.31413,5.4189423 1420.63183,5.11816406 1422.15723,5.11816406 C1423.47494,5.11816406 1424.51334,5.42610369 1425.27246,6.04199219 C1426.03158,6.65788068 1426.41113,7.6175065 1426.41113,8.92089844 L1426.41113,14.9794922 C1426.41113,15.3017594 1426.30371,15.5541983 1426.08887,15.7368164 C1425.87402,15.9194345 1425.62337,16.0107422 1425.33691,16.0107422 C1425.15072,16.0107422 1424.98063,15.9731449 1424.82666,15.8979492 C1424.67269,15.8227535 1424.54378,15.7081713 1424.43994,15.5541992 C1424.3361,15.4002271 1424.28418,15.2158214 1424.28418,15.0009766 L1424.28418,14.2060547 C1423.64681,15.5166081 1422.57618,16.171875 1421.07227,16.171875 Z M1421.28711,14.7539062 C1422.06771,14.7539062 1422.75521,14.4316438 1423.34961,13.7871094 C1423.94401,13.1425749 1424.24121,12.3225961 1424.24121,11.3271484 L1424.24121,11.0263672 C1423.55371,11.0263672 1422.9808,11.0353189 1422.52246,11.0532227 C1422.06413,11.0711264 1421.63981,11.1069333 1421.24951,11.1606445 C1420.85921,11.2143557 1420.55306,11.2841793 1420.33105,11.3701172 C1420.10905,11.4560551 1419.91748,11.574218 1419.75635,11.7246094 C1419.59521,11.8750008 1419.486,12.0522451 1419.42871,12.2563477 C1419.37142,12.4604502 1419.34277,12.7057277 1419.34277,12.9921875 C1419.34277,13.593753 1419.51823,14.037759 1419.86914,14.3242188 C1420.22005,14.6106785 1420.69271,14.7539062 1421.28711,14.7539062 Z M1430.53613,16 C1430.24251,16 1429.99007,15.9086923 1429.77881,15.7260742 C1429.56754,15.5434561 1429.46191,15.2910172 1429.46191,14.96875 L1429.46191,6.31054688 C1429.46191,5.98827964 1429.56933,5.73942145 1429.78418,5.56396484 C1429.99902,5.38850824 1430.25325,5.30078125 1430.54688,5.30078125 C1430.8405,5.30078125 1431.09294,5.38671789 1431.3042,5.55859375 C1431.51546,5.73046961 1431.62109,5.97037606 1431.62109,6.27832031 L1431.62109,7.04101562 C1431.90755,6.41796563 1432.35693,5.94173342 1432.96924,5.61230469 C1433.58155,5.28287596 1434.29589,5.11816406 1435.1123,5.11816406 C1435.66374,5.11816406 1436.17041,5.19872966 1436.63232,5.35986328 C1437.09424,5.5209969 1437.50602,5.76448405 1437.86768,6.09033203 C1438.22933,6.41618001 1438.51042,6.84944391 1438.71094,7.39013672 C1438.91146,7.93082953 1439.01172,8.55207982 1439.01172,9.25390625 L1439.01172,14.96875 C1439.01172,15.2910172 1438.90251,15.5434561 1438.68408,15.7260742 C1438.46566,15.9086923 1438.20964,16 1437.91602,16 C1437.62239,16 1437.36996,15.9086923 1437.15869,15.7260742 C1436.94743,15.5434561 1436.8418,15.2910172 1436.8418,14.96875 L1436.8418,9.23242188 C1436.8418,8.37304258 1436.63412,7.71777569 1436.21875,7.26660156 C1435.80338,6.81542743 1435.24121,6.58984375 1434.53223,6.58984375 C1433.7373,6.58984375 1433.06055,6.88525095 1432.50195,7.47607422 C1431.94336,8.06689749 1431.64974,8.86360176 1431.62109,9.86621094 L1431.62109,14.96875 C1431.62109,15.2910172 1431.51367,15.5434561 1431.29883,15.7260742 C1431.08398,15.9086923 1430.82975,16 1430.53613,16 Z M1444.98438,16.171875 C1443.86718,16.171875 1442.95769,15.903323 1442.25586,15.3662109 C1441.55403,14.8290989 1441.20312,14.0664112 1441.20312,13.078125 C1441.20312,12.6555968 1441.24788,12.2849951 1441.3374,11.9663086 C1441.42692,11.6476221 1441.55045,11.3719087 1441.70801,11.1391602 C1441.86556,10.9064116 1442.09114,10.7094735 1442.38477,10.5483398 C1442.67839,10.3872062 1442.9917,10.2565109 1443.32471,10.15625 C1443.65772,10.0559891 1444.0874,9.97900417 1444.61377,9.92529297 C1445.14014,9.87158176 1445.67008,9.83577483 1446.20361,9.81787109 C1446.73714,9.79996736 1447.39062,9.79101562 1448.16406,9.79101562 L1448.16406,8.73828125 C1448.16406,7.29165943 1447.44076,6.56835938 1445.99414,6.56835938 C1445.57161,6.56835938 1445.13835,6.61669874 1444.69434,6.71337891 C1444.25032,6.81005908 1443.91553,6.90136676 1443.68994,6.98730469 C1443.46435,7.07324262 1443.16537,7.19498619 1442.79297,7.35253906 C1442.70703,7.38834653 1442.61751,7.40625 1442.52441,7.40625 C1442.4528,7.40625 1442.38477,7.39550792 1442.32031,7.37402344 C1442.25586,7.35253896 1442.19499,7.32210306 1442.1377,7.28271484 C1442.0804,7.24332663 1442.02848,7.19677761 1441.98193,7.14306641 C1441.93538,7.0893552 1441.896,7.03206411 1441.86377,6.97119141 C1441.83154,6.91031871 1441.80648,6.84765657 1441.78857,6.78320312 C1441.77067,6.71874968 1441.76172,6.6542972 1441.76172,6.58984375 C1441.76172,6.46809835 1441.79036,6.3588872 1441.84766,6.26220703 C1441.90495,6.16552686 1441.99447,6.08496126 1442.11621,6.02050781 C1443.22624,5.4189423 1444.54394,5.11816406 1446.06934,5.11816406 C1447.38705,5.11816406 1448.42545,5.42610369 1449.18457,6.04199219 C1449.94369,6.65788068 1450.32324,7.6175065 1450.32324,8.92089844 L1450.32324,14.9794922 C1450.32324,15.3017594 1450.21582,15.5541983 1450.00098,15.7368164 C1449.78613,15.9194345 1449.53548,16.0107422 1449.24902,16.0107422 C1449.06282,16.0107422 1448.89274,15.9731449 1448.73877,15.8979492 C1448.5848,15.8227535 1448.45589,15.7081713 1448.35205,15.5541992 C1448.24821,15.4002271 1448.19629,15.2158214 1448.19629,15.0009766 L1448.19629,14.2060547 C1447.55892,15.5166081 1446.48829,16.171875 1444.98438,16.171875 Z M1445.19922,14.7539062 C1445.97982,14.7539062 1446.66731,14.4316438 1447.26172,13.7871094 C1447.85612,13.1425749 1448.15332,12.3225961 1448.15332,11.3271484 L1448.15332,11.0263672 C1447.46582,11.0263672 1446.89291,11.0353189 1446.43457,11.0532227 C1445.97623,11.0711264 1445.55192,11.1069333 1445.16162,11.1606445 C1444.77132,11.2143557 1444.46517,11.2841793 1444.24316,11.3701172 C1444.02116,11.4560551 1443.82959,11.574218 1443.66846,11.7246094 C1443.50732,11.8750008 1443.39811,12.0522451 1443.34082,12.2563477 C1443.28353,12.4604502 1443.25488,12.7057277 1443.25488,12.9921875 C1443.25488,13.593753 1443.43034,14.037759 1443.78125,14.3242188 C1444.13216,14.6106785 1444.60481,14.7539062 1445.19922,14.7539062 Z M1457.88574,20.6191406 C1457.10514,20.6191406 1456.38542,20.538575 1455.72656,20.3774414 C1455.06771,20.2163078 1454.54134,20.02116 1454.14746,19.7919922 C1453.87532,19.6344393 1453.73926,19.4124363 1453.73926,19.1259766 C1453.73926,19.0328771 1453.75716,18.9415695 1453.79297,18.8520508 C1453.82878,18.7625321 1453.87712,18.6837569 1453.93799,18.6157227 C1453.99886,18.5476885 1454.07227,18.4939781 1454.1582,18.4545898 C1454.24414,18.4152016 1454.33724,18.3955078 1454.4375,18.3955078 C1454.5306,18.3955078 1454.6237,18.4134113 1454.7168,18.4492188 C1454.74544,18.4635417 1454.93164,18.5333653 1455.27539,18.6586914 C1455.61914,18.7840176 1455.86979,18.8681638 1456.02734,18.9111328 C1456.1849,18.9541018 1456.42838,19.0042315 1456.75781,19.0615234 C1457.08724,19.1188154 1457.41308,19.1474609 1457.73535,19.1474609 C1458.79525,19.1474609 1459.60986,18.8735379 1460.1792,18.3256836 C1460.74854,17.7778293 1461.0332,17.0026092 1461.0332,16 L1461.0332,14.0556641 C1460.72526,14.6715526 1460.28304,15.1495751 1459.70654,15.4897461 C1459.13004,15.8299171 1458.4515,16 1457.6709,16 C1456.13834,16 1454.92627,15.509445 1454.03467,14.5283203 C1453.14306,13.5471956 1452.69727,12.2724688 1452.69727,10.7041016 C1452.69727,9.07844239 1453.1359,7.74105342 1454.01318,6.69189453 C1454.89047,5.64273564 1456.08821,5.11816406 1457.60645,5.11816406 C1458.49447,5.11816406 1459.20882,5.28287596 1459.74951,5.61230469 C1460.2902,5.94173342 1460.73958,6.41438494 1461.09766,7.03027344 L1461.09766,6.14941406 C1461.1263,5.87727729 1461.2373,5.66601638 1461.43066,5.515625 C1461.62402,5.36523362 1461.84603,5.29003906 1462.09668,5.29003906 C1462.37598,5.29003906 1462.61588,5.3795564 1462.81641,5.55859375 C1463.01693,5.7376311 1463.11719,5.98827964 1463.11719,6.31054688 L1463.11719,15.8818359 C1463.11719,17.4645261 1462.64812,18.6497356 1461.70996,19.4375 C1460.77181,20.2252644 1459.49708,20.6191406 1457.88574,20.6191406 Z M1458.01465,14.5712891 C1458.90267,14.5712891 1459.62597,14.2347039 1460.18457,13.5615234 C1460.74317,12.888343 1461.02246,11.9108137 1461.02246,10.6289062 C1461.02246,10.1777321 1460.99203,9.758791 1460.93115,9.37207031 C1460.87028,8.98534963 1460.76644,8.61832856 1460.61963,8.27099609 C1460.47282,7.92366363 1460.28662,7.62825643 1460.06104,7.38476562 C1459.83545,7.14127482 1459.54899,6.94791738 1459.20166,6.8046875 C1458.85433,6.66145762 1458.45866,6.58984375 1458.01465,6.58984375 C1457.58496,6.58984375 1457.19287,6.66145762 1456.83838,6.8046875 C1456.48388,6.94791738 1456.1849,7.14306517 1455.94141,7.39013672 C1455.69792,7.63720827 1455.49382,7.93261547 1455.3291,8.27636719 C1455.16439,8.62011891 1455.04443,8.98893032 1454.96924,9.3828125 C1454.89404,9.77669468 1454.85645,10.1956358 1454.85645,10.6396484 C1454.85645,11.2985059 1454.94238,11.8839493 1455.11426,12.3959961 C1455.28613,12.9080429 1455.51888,13.3198227 1455.8125,13.6313477 C1456.10612,13.9428727 1456.43913,14.1774081 1456.81152,14.3349609 C1457.18392,14.4925138 1457.58496,14.5712891 1458.01465,14.5712891 Z M1470.88379,16.171875 C1469.29394,16.157552 1467.99952,15.6508839 1467.00049,14.6518555 C1466.00146,13.652827 1465.50195,12.2939539 1465.50195,10.5751953 C1465.50195,9.84472291 1465.61833,9.15364909 1465.85107,8.50195312 C1466.08382,7.85025716 1466.41504,7.27197518 1466.84473,6.76708984 C1467.27442,6.26220451 1467.82047,5.86116685 1468.48291,5.56396484 C1469.14535,5.26676284 1469.88118,5.11816406 1470.69043,5.11816406 C1471.514,5.11816406 1472.24267,5.2578111 1472.87646,5.53710938 C1473.51026,5.81640765 1474.01513,6.19954184 1474.39111,6.68652344 C1474.76709,7.17350504 1475.05355,7.71956078 1475.25049,8.32470703 C1475.44743,8.92985329 1475.55306,9.59049121 1475.56738,10.3066406 C1475.56738,10.5429699 1475.51009,10.7363274 1475.39551,10.8867188 C1475.28092,11.0371101 1475.10905,11.1123047 1474.87988,11.1123047 L1467.68262,11.1123047 C1467.71126,12.3011127 1468.02994,13.185544 1468.63867,13.765625 C1469.2474,14.345706 1470.04589,14.6429036 1471.03418,14.6572266 C1471.62142,14.6572266 1472.15853,14.5480154 1472.64551,14.3295898 C1473.13249,14.1111643 1473.63021,13.8157571 1474.13867,13.4433594 C1474.21029,13.3932289 1474.28011,13.3556316 1474.34814,13.3305664 C1474.41618,13.3055012 1474.486,13.2929688 1474.55762,13.2929688 C1474.67936,13.2929688 1474.79215,13.3269853 1474.896,13.3950195 C1474.99984,13.4630537 1475.08219,13.5543614 1475.14307,13.6689453 C1475.20394,13.7835292 1475.23438,13.9052728 1475.23438,14.0341797 C1475.23438,14.1559251 1475.20752,14.274088 1475.15381,14.3886719 C1475.1001,14.5032558 1475.01595,14.6070959 1474.90137,14.7001953 C1473.79134,15.68132 1472.45216,16.171875 1470.88379,16.171875 Z M1467.7041,9.80175781 L1473.69824,9.80175781 C1473.63379,8.87076357 1473.36166,8.10270485 1472.88184,7.49755859 C1472.40202,6.89241234 1471.70378,6.58984375 1470.78711,6.58984375 C1470.31445,6.58984375 1469.88477,6.68115143 1469.49805,6.86376953 C1469.11133,7.04638763 1468.79443,7.29345547 1468.54736,7.60498047 C1468.30029,7.91650546 1468.10693,8.25846168 1467.96729,8.63085938 C1467.82764,9.00325707 1467.73991,9.39355265 1467.7041,9.80175781 Z M1399.55566,48 C1399.26204,48 1399.00781,47.906902 1398.79297,47.7207031 C1398.57812,47.5345043 1398.4707,47.2731137 1398.4707,46.9365234 L1398.4707,38.8046875 L1397.1709,38.8046875 C1396.91308,38.8046875 1396.71794,38.7384447 1396.58545,38.605957 C1396.45296,38.4734694 1396.38672,38.3069671 1396.38672,38.1064453 C1396.38672,37.913085 1396.45296,37.7465827 1396.58545,37.6069336 C1396.71794,37.4672845 1396.91308,37.3974609 1397.1709,37.3974609 L1398.4707,37.3974609 L1398.4707,36.0869141 C1398.4707,33.680652 1399.54849,32.4775391 1401.7041,32.4775391 L1403.02539,32.4775391 C1403.25456,32.4775391 1403.43538,32.5634757 1403.56787,32.7353516 C1403.70036,32.9072274 1403.7666,33.1041656 1403.7666,33.3261719 C1403.7666,33.5481782 1403.70215,33.7397453 1403.57324,33.9008789 C1403.44434,34.0620125 1403.26172,34.1425781 1403.02539,34.1425781 L1402.1123,34.1425781 C1401.81868,34.1425781 1401.58952,34.1658526 1401.4248,34.2124023 C1401.26009,34.2589521 1401.11328,34.3645825 1400.98438,34.5292969 C1400.85547,34.6940112 1400.76595,34.9321273 1400.71582,35.2436523 C1400.66569,35.5551773 1400.64062,35.9759088 1400.64062,36.5058594 L1400.64062,37.3974609 L1402.34863,37.3974609 C1402.59929,37.3974609 1402.78906,37.4672845 1402.91797,37.6069336 C1403.04688,37.7465827 1403.11133,37.913085 1403.11133,38.1064453 C1403.11133,38.3141286 1403.04867,38.4824212 1402.92334,38.6113281 C1402.79801,38.740235 1402.60645,38.8046875 1402.34863,38.8046875 L1400.64062,38.8046875 L1400.64062,46.9365234 C1400.64062,47.2731137 1400.5332,47.5345043 1400.31836,47.7207031 C1400.10351,47.906902 1399.84929,48 1399.55566,48 Z M1406.29102,48 C1405.99739,48 1405.74675,47.912273 1405.53906,47.7368164 C1405.33138,47.5613598 1405.22754,47.3089209 1405.22754,46.9794922 L1405.22754,38.2998047 C1405.22754,37.9846989 1405.33675,37.7394215 1405.55518,37.5639648 C1405.7736,37.3885082 1406.02962,37.3007812 1406.32324,37.3007812 C1406.43783,37.3007812 1406.54704,37.3133137 1406.65088,37.3383789 C1406.75472,37.3634441 1406.8514,37.4028318 1406.94092,37.456543 C1407.03044,37.5102542 1407.10921,37.5729163 1407.17725,37.6445312 C1407.24528,37.7161462 1407.29899,37.8038732 1407.33838,37.9077148 C1407.37777,38.0115565 1407.39746,38.1243483 1407.39746,38.2460938 L1407.37598,39.5673828 C1407.55501,38.9013639 1407.91845,38.3427757 1408.46631,37.8916016 C1409.01416,37.4404274 1409.64974,37.2148438 1410.37305,37.2148438 C1410.63086,37.2148438 1410.83138,37.3079418 1410.97461,37.4941406 C1411.11784,37.6803395 1411.18945,37.9023425 1411.18945,38.1601562 C1411.18945,38.3964856 1411.125,38.6005851 1410.99609,38.7724609 C1410.86719,38.9443368 1410.68457,39.0302734 1410.44824,39.0302734 C1409.49576,39.0302734 1408.74919,39.2522764 1408.2085,39.6962891 C1407.6678,40.1403017 1407.39746,40.8170527 1407.39746,41.7265625 L1407.39746,46.9794922 C1407.39746,47.3017594 1407.28646,47.552408 1407.06445,47.7314453 C1406.84245,47.9104827 1406.58464,48 1406.29102,48 Z M1417.94629,46.7001953 C1418.99187,46.6930338 1419.80468,46.3313838 1420.38477,45.6152344 C1420.96485,44.899085 1421.25488,43.9108136 1421.25488,42.6503906 C1421.25488,41.3971292 1420.96127,40.4070674 1420.37402,39.6801758 C1419.78678,38.9532841 1418.97754,38.5898438 1417.94629,38.5898438 C1416.90787,38.5898438 1416.09685,38.9514938 1415.51318,39.6748047 C1414.92952,40.3981156 1414.6377,41.3899677 1414.6377,42.6503906 C1414.6377,43.9036521 1414.93131,44.8919235 1415.51855,45.6152344 C1416.1058,46.3385453 1416.91503,46.7001953 1417.94629,46.7001953 Z M1417.94629,48.171875 C1417.07975,48.171875 1416.29558,48.0232762 1415.59375,47.7260742 C1414.89192,47.4288722 1414.31901,47.0260442 1413.875,46.5175781 C1413.43099,46.009112 1413.09082,45.425459 1412.85449,44.7666016 C1412.61816,44.1077441 1412.5,43.4023475 1412.5,42.6503906 C1412.5,41.8912722 1412.61816,41.1805046 1412.85449,40.5180664 C1413.09082,39.8556282 1413.43278,39.2701848 1413.88037,38.7617188 C1414.32796,38.2532527 1414.90088,37.852215 1415.59912,37.5585938 C1416.29737,37.2649725 1417.07975,37.1181641 1417.94629,37.1181641 C1419.08497,37.1181641 1420.07145,37.3688126 1420.90576,37.8701172 C1421.74008,38.3714218 1422.36312,39.0356404 1422.7749,39.862793 C1423.18669,40.6899455 1423.39258,41.6191355 1423.39258,42.6503906 C1423.39258,43.395186 1423.27442,44.0987923 1423.03809,44.7612305 C1422.80176,45.4236687 1422.46159,46.009112 1422.01758,46.5175781 C1421.57357,47.0260442 1421.00065,47.4288722 1420.29883,47.7260742 C1419.597,48.0232762 1418.81283,48.171875 1417.94629,48.171875 Z M1426.84082,48 C1426.5472,48 1426.29655,47.9104827 1426.08887,47.7314453 C1425.88118,47.552408 1425.77734,47.2981787 1425.77734,46.96875 L1425.77734,38.2998047 C1425.77734,37.9846989 1425.88476,37.7376311 1426.09961,37.5585938 C1426.31445,37.3795564 1426.56868,37.2900391 1426.8623,37.2900391 C1427.14876,37.2900391 1427.4012,37.3741854 1427.61963,37.5424805 C1427.83805,37.7107756 1427.94727,37.945311 1427.94727,38.2460938 L1427.94727,39.1054688 C1428.28386,38.4394498 1428.75114,37.9417334 1429.34912,37.6123047 C1429.94711,37.282876 1430.62923,37.1181641 1431.39551,37.1181641 C1432.29069,37.1181641 1433.04801,37.3383767 1433.66748,37.7788086 C1434.28695,38.2192405 1434.70768,38.8154259 1434.92969,39.5673828 C1435.23763,38.7509725 1435.71924,38.1386739 1436.37451,37.7304688 C1437.02979,37.3222636 1437.81575,37.1181641 1438.73242,37.1181641 C1439.28386,37.1181641 1439.79232,37.1969393 1440.25781,37.3544922 C1440.72331,37.5120451 1441.13688,37.7519515 1441.49854,38.0742188 C1441.86019,38.396486 1442.14307,38.8243788 1442.34717,39.3579102 C1442.55127,39.8914415 1442.65332,40.5091111 1442.65332,41.2109375 L1442.65332,46.96875 C1442.65332,47.2981787 1442.5459,47.552408 1442.33105,47.7314453 C1442.11621,47.9104827 1441.8584,48 1441.55762,48 C1441.264,48 1441.01156,47.9104827 1440.80029,47.7314453 C1440.58903,47.552408 1440.4834,47.2981787 1440.4834,46.96875 L1440.4834,41.1572266 C1440.4834,40.2978473 1440.29004,39.6533225 1439.90332,39.2236328 C1439.5166,38.7939432 1438.96159,38.5791016 1438.23828,38.5791016 C1437.3789,38.5791016 1436.67351,38.8780895 1436.12207,39.4760742 C1435.57064,40.074059 1435.29492,40.9244737 1435.29492,42.0273438 L1435.29492,46.9580078 C1435.29492,47.2874365 1435.1875,47.5434561 1434.97266,47.7260742 C1434.75781,47.9086923 1434.5,48 1434.19922,48 C1433.9056,48 1433.65316,47.9086923 1433.44189,47.7260742 C1433.23063,47.5434561 1433.125,47.2874365 1433.125,46.9580078 L1433.125,41.3291016 C1433.125,40.3981073 1432.92985,39.7070335 1432.53955,39.2558594 C1432.14925,38.8046852 1431.59603,38.5791016 1430.87988,38.5791016 C1429.99186,38.5791016 1429.28109,38.8727184 1428.74756,39.4599609 C1428.21403,40.0472035 1427.94727,40.8564402 1427.94727,41.8876953 L1427.94727,46.96875 C1427.94727,47.2981787 1427.83805,47.552408 1427.61963,47.7314453 C1427.4012,47.9104827 1427.1416,48 1426.84082,48 Z M1455.52246,48.1289062 C1454.64876,48.1289062 1453.95768,47.8531929 1453.44922,47.3017578 C1452.94075,46.7503228 1452.68652,45.9410861 1452.68652,44.8740234 L1452.68652,38.8046875 L1451.44043,38.8046875 C1451.18262,38.8046875 1450.98568,38.7384447 1450.84961,38.605957 C1450.71354,38.4734694 1450.64551,38.3033865 1450.64551,38.0957031 C1450.64551,37.8880198 1450.71175,37.7197272 1450.84424,37.5908203 C1450.97673,37.4619134 1451.17187,37.3974609 1451.42969,37.3974609 L1452.68652,37.3974609 L1452.97656,34.421875 C1453.01237,34.1497382 1453.12874,33.9241545 1453.32568,33.7451172 C1453.52262,33.5660798 1453.76074,33.4765625 1454.04004,33.4765625 C1454.27637,33.4765625 1454.47152,33.5481764 1454.62549,33.6914062 C1454.77946,33.8346361 1454.85645,34.045897 1454.85645,34.3251953 L1454.85645,37.3974609 L1456.7793,37.3974609 C1457.03711,37.3974609 1457.23047,37.4654941 1457.35938,37.6015625 C1457.48828,37.7376309 1457.55273,37.9095042 1457.55273,38.1171875 C1457.55273,38.3248708 1457.48828,38.4913731 1457.35938,38.6166992 C1457.23047,38.7420254 1457.03711,38.8046875 1456.7793,38.8046875 L1454.85645,38.8046875 L1454.85645,44.4228516 C1454.85645,45.110355 1454.95312,45.6188135 1455.14648,45.9482422 C1455.33984,46.2776709 1455.65495,46.4423828 1456.0918,46.4423828 L1456.19922,46.4423828 L1456.96191,46.3994141 L1457.02637,46.3994141 C1457.29134,46.3994141 1457.50081,46.4835604 1457.65479,46.6518555 C1457.80876,46.8201506 1457.88574,47.0152984 1457.88574,47.2373047 C1457.88574,47.3518886 1457.86784,47.4557287 1457.83203,47.5488281 C1457.79622,47.6419275 1457.74967,47.7189125 1457.69238,47.7797852 C1457.63509,47.8406579 1457.55811,47.8925779 1457.46143,47.9355469 C1457.36475,47.9785158 1457.26986,48.0125324 1457.17676,48.0375977 C1457.08366,48.0626629 1456.96729,48.0823567 1456.82764,48.0966797 C1456.68799,48.1110027 1456.56087,48.1199544 1456.44629,48.1235352 C1456.33171,48.1271159 1456.19564,48.1289062 1456.03809,48.1289062 L1455.52246,48.1289062 Z M1461.06543,48 C1460.77181,48 1460.51937,47.9086923 1460.30811,47.7260742 C1460.09684,47.5434561 1459.99121,47.2874365 1459.99121,46.9580078 L1459.99121,33.6269531 C1459.99121,33.3118474 1460.09863,33.0647795 1460.31348,32.8857422 C1460.52832,32.7067048 1460.78255,32.6171875 1461.07617,32.6171875 C1461.36979,32.6171875 1461.62402,32.7067048 1461.83887,32.8857422 C1462.05371,33.0647795 1462.16113,33.3118474 1462.16113,33.6269531 L1462.16113,38.8691406 C1462.46908,38.3248671 1462.93457,37.8969742 1463.55762,37.5854492 C1464.18067,37.2739242 1464.88964,37.1181641 1465.68457,37.1181641 C1466.20736,37.1181641 1466.69433,37.1969393 1467.14551,37.3544922 C1467.59668,37.5120451 1468.00309,37.7501612 1468.36475,38.0688477 C1468.7264,38.3875341 1469.01286,38.815427 1469.22412,39.3525391 C1469.43539,39.8896511 1469.54102,40.5091111 1469.54102,41.2109375 L1469.54102,46.9580078 C1469.54102,47.2874365 1469.43359,47.5434561 1469.21875,47.7260742 C1469.00391,47.9086923 1468.7461,48 1468.44531,48 C1468.15169,48 1467.89925,47.9086923 1467.68799,47.7260742 C1467.47672,47.5434561 1467.37109,47.2874365 1467.37109,46.9580078 L1467.37109,41.1464844 C1467.37109,40.3157511 1467.17057,39.6927104 1466.76953,39.2773438 C1466.36849,38.8619771 1465.8278,38.6542969 1465.14746,38.6542969 C1464.31673,38.6542969 1463.61133,38.944333 1463.03125,39.5244141 C1462.45117,40.1044951 1462.16113,40.899409 1462.16113,41.9091797 L1462.16113,46.9580078 C1462.16113,47.2874365 1462.05371,47.5434561 1461.83887,47.7260742 C1461.62402,47.9086923 1461.36621,48 1461.06543,48 Z M1477.28613,48.171875 C1475.69628,48.157552 1474.40186,47.6508839 1473.40283,46.6518555 C1472.4038,45.652827 1471.9043,44.2939539 1471.9043,42.5751953 C1471.9043,41.8447229 1472.02067,41.1536491 1472.25342,40.5019531 C1472.48617,39.8502572 1472.81738,39.2719752 1473.24707,38.7670898 C1473.67676,38.2622045 1474.22282,37.8611669 1474.88525,37.5639648 C1475.54769,37.2667628 1476.28352,37.1181641 1477.09277,37.1181641 C1477.91635,37.1181641 1478.64502,37.2578111 1479.27881,37.5371094 C1479.9126,37.8164076 1480.41748,38.1995418 1480.79346,38.6865234 C1481.16944,39.173505 1481.45589,39.7195608 1481.65283,40.324707 C1481.84977,40.9298533 1481.9554,41.5904912 1481.96973,42.3066406 C1481.96973,42.5429699 1481.91244,42.7363274 1481.79785,42.8867188 C1481.68327,43.0371101 1481.51139,43.1123047 1481.28223,43.1123047 L1474.08496,43.1123047 C1474.11361,44.3011127 1474.43229,45.185544 1475.04102,45.765625 C1475.64974,46.345706 1476.44824,46.6429036 1477.43652,46.6572266 C1478.02377,46.6572266 1478.56087,46.5480154 1479.04785,46.3295898 C1479.53483,46.1111643 1480.03255,45.8157571 1480.54102,45.4433594 C1480.61263,45.3932289 1480.68245,45.3556316 1480.75049,45.3305664 C1480.81852,45.3055012 1480.88835,45.2929688 1480.95996,45.2929688 C1481.08171,45.2929688 1481.1945,45.3269853 1481.29834,45.3950195 C1481.40218,45.4630537 1481.48454,45.5543614 1481.54541,45.6689453 C1481.60628,45.7835292 1481.63672,45.9052728 1481.63672,46.0341797 C1481.63672,46.1559251 1481.60986,46.274088 1481.55615,46.3886719 C1481.50244,46.5032558 1481.41829,46.6070959 1481.30371,46.7001953 C1480.19368,47.68132 1478.8545,48.171875 1477.28613,48.171875 Z M1474.10645,41.8017578 L1480.10059,41.8017578 C1480.03613,40.8707636 1479.764,40.1027048 1479.28418,39.4975586 C1478.80436,38.8924123 1478.10612,38.5898438 1477.18945,38.5898438 C1476.71679,38.5898438 1476.28711,38.6811514 1475.90039,38.8637695 C1475.51367,39.0463876 1475.19678,39.2934555 1474.94971,39.6049805 C1474.70264,39.9165055 1474.50928,40.2584617 1474.36963,40.6308594 C1474.22998,41.0032571 1474.14225,41.3935526 1474.10645,41.8017578 Z M1402.06934,80.171875 C1401.02376,80.171875 1400.10352,79.9230168 1399.30859,79.425293 C1398.51367,78.9275691 1397.91211,78.2615602 1397.50391,77.4272461 C1397.0957,76.592932 1396.8916,75.6637421 1396.8916,74.6396484 C1396.8916,73.6227163 1397.10644,72.697107 1397.53613,71.862793 C1397.96582,71.0284789 1398.58707,70.3624699 1399.3999,69.8647461 C1400.21273,69.3670223 1401.1455,69.1181641 1402.19824,69.1181641 C1402.82845,69.1181641 1403.39957,69.2023104 1403.91162,69.3706055 C1404.42367,69.5389006 1404.83724,69.7412098 1405.15234,69.9775391 C1405.42448,70.1780609 1405.56055,70.4036446 1405.56055,70.6542969 C1405.56055,70.7688808 1405.53011,70.8745112 1405.46924,70.9711914 C1405.40837,71.0678716 1405.32601,71.1430661 1405.22217,71.1967773 C1405.11833,71.2504885 1405.00195,71.2773438 1404.87305,71.2773438 C1404.71549,71.2773438 1404.56152,71.2343754 1404.41113,71.1484375 C1403.78808,70.7688783 1403.09701,70.5791016 1402.33789,70.5791016 C1401.34244,70.5791016 1400.54574,70.9497033 1399.94775,71.690918 C1399.34977,72.4321326 1399.05078,73.4186136 1399.05078,74.6503906 C1399.05078,75.4023475 1399.16536,76.0790986 1399.39453,76.6806641 C1399.6237,77.2822296 1399.98356,77.7692039 1400.47412,78.1416016 C1400.96468,78.5139993 1401.55013,78.7001953 1402.23047,78.7001953 C1403.17579,78.7001953 1403.95996,78.481773 1404.58301,78.0449219 C1404.66178,77.9876299 1404.74235,77.9464519 1404.82471,77.9213867 C1404.90706,77.8963215 1404.98763,77.8837891 1405.06641,77.8837891 C1405.15951,77.8837891 1405.24544,77.8999022 1405.32422,77.9321289 C1405.403,77.9643556 1405.47282,78.0091143 1405.53369,78.0664062 C1405.59456,78.1236982 1405.64111,78.1935217 1405.67334,78.2758789 C1405.70557,78.3582361 1405.72168,78.4423824 1405.72168,78.5283203 C1405.72168,78.6429042 1405.69124,78.7610671 1405.63037,78.8828125 C1405.5695,79.0045579 1405.47461,79.1191401 1405.3457,79.2265625 C1404.58658,79.856774 1403.49447,80.171875 1402.06934,80.171875 Z M1409.0625,80 C1408.76888,80 1408.51823,79.906902 1408.31055,79.7207031 C1408.10286,79.5345043 1407.99902,79.2659523 1407.99902,78.9150391 L1407.99902,65.6914062 C1407.99902,65.3619775 1408.10644,65.1005869 1408.32129,64.9072266 C1408.53613,64.7138662 1408.79036,64.6171875 1409.08398,64.6171875 C1409.37761,64.6171875 1409.63183,64.7138662 1409.84668,64.9072266 C1410.06152,65.1005869 1410.16895,65.3619775 1410.16895,65.6914062 L1410.16895,78.9150391 C1410.16895,79.2516293 1410.05794,79.5166006 1409.83594,79.7099609 C1409.61393,79.9033213 1409.35612,80 1409.0625,80 Z M1418.0752,78.7001953 C1419.12077,78.6930338 1419.93359,78.3313838 1420.51367,77.6152344 C1421.09375,76.899085 1421.38379,75.9108136 1421.38379,74.6503906 C1421.38379,73.3971292 1421.09017,72.4070674 1420.50293,71.6801758 C1419.91569,70.9532841 1419.10645,70.5898438 1418.0752,70.5898438 C1417.03678,70.5898438 1416.22575,70.9514938 1415.64209,71.6748047 C1415.05843,72.3981156 1414.7666,73.3899677 1414.7666,74.6503906 C1414.7666,75.9036521 1415.06022,76.8919235 1415.64746,77.6152344 C1416.2347,78.3385453 1417.04394,78.7001953 1418.0752,78.7001953 Z M1418.0752,80.171875 C1417.20865,80.171875 1416.42448,80.0232762 1415.72266,79.7260742 C1415.02083,79.4288722 1414.44792,79.0260442 1414.00391,78.5175781 C1413.55989,78.009112 1413.21973,77.425459 1412.9834,76.7666016 C1412.74707,76.1077441 1412.62891,75.4023475 1412.62891,74.6503906 C1412.62891,73.8912722 1412.74707,73.1805046 1412.9834,72.5180664 C1413.21973,71.8556282 1413.56168,71.2701848 1414.00928,70.7617188 C1414.45687,70.2532527 1415.02978,69.852215 1415.72803,69.5585938 C1416.42627,69.2649725 1417.20865,69.1181641 1418.0752,69.1181641 C1419.21387,69.1181641 1420.20035,69.3688126 1421.03467,69.8701172 C1421.86898,70.3714218 1422.49202,71.0356404 1422.90381,71.862793 C1423.31559,72.6899455 1423.52148,73.6191355 1423.52148,74.6503906 C1423.52148,75.395186 1423.40332,76.0987923 1423.16699,76.7612305 C1422.93066,77.4236687 1422.5905,78.009112 1422.14648,78.5175781 C1421.70247,79.0260442 1421.12956,79.4288722 1420.42773,79.7260742 C1419.72591,80.0232762 1418.94174,80.171875 1418.0752,80.171875 Z M1429.67676,80.171875 C1428.53092,80.171875 1427.59815,79.8263381 1426.87842,79.1352539 C1426.15869,78.4441697 1425.79883,77.407559 1425.79883,76.0253906 L1425.79883,70.3320312 C1425.79883,70.0026025 1425.90625,69.7465829 1426.12109,69.5639648 C1426.33594,69.3813467 1426.59017,69.2900391 1426.88379,69.2900391 C1427.17741,69.2900391 1427.42985,69.3813467 1427.64111,69.5639648 C1427.85238,69.7465829 1427.95801,70.0026025 1427.95801,70.3320312 L1427.95801,76.046875 C1427.95801,76.9134158 1428.16211,77.5722634 1428.57031,78.0234375 C1428.97852,78.4746116 1429.53711,78.7001953 1430.24609,78.7001953 C1431.04818,78.7001953 1431.7303,78.4029978 1432.29248,77.8085938 C1432.85466,77.2141897 1433.15006,76.4192758 1433.17871,75.4238281 L1433.17871,70.3320312 C1433.17871,70.0026025 1433.28613,69.7465829 1433.50098,69.5639648 C1433.71582,69.3813467 1433.97363,69.2900391 1434.27441,69.2900391 C1434.56804,69.2900391 1434.82047,69.3813467 1435.03174,69.5639648 C1435.243,69.7465829 1435.34863,70.0026025 1435.34863,70.3320312 L1435.34863,78.9794922 C1435.34863,79.3017594 1435.24121,79.552408 1435.02637,79.7314453 C1434.81152,79.9104827 1434.55371,80 1434.25293,80 C1433.95931,80 1433.70687,79.9140634 1433.49561,79.7421875 C1433.28434,79.5703116 1433.17871,79.3304052 1433.17871,79.0224609 L1433.17871,78.2490234 C1432.89225,78.8649119 1432.44108,79.3393538 1431.8252,79.6723633 C1431.20931,80.0053728 1430.49317,80.171875 1429.67676,80.171875 Z M1442.42773,80.171875 C1441.68294,80.171875 1441.01335,80.0196955 1440.41895,79.715332 C1439.82454,79.4109685 1439.33936,78.9991888 1438.96338,78.4799805 C1438.5874,77.9607721 1438.29915,77.3681674 1438.09863,76.7021484 C1437.89811,76.0361295 1437.79785,75.3271522 1437.79785,74.5751953 C1437.79785,72.9710206 1438.22753,71.6604869 1439.08691,70.6435547 C1439.94629,69.6266225 1441.1136,69.1181641 1442.58887,69.1181641 C1444.20736,69.1181641 1445.36393,69.7447854 1446.05859,70.9980469 L1446.05859,65.6269531 C1446.05859,65.3046859 1446.16601,65.0558277 1446.38086,64.8803711 C1446.5957,64.7049145 1446.84993,64.6171875 1447.14355,64.6171875 C1447.43718,64.6171875 1447.68961,64.7049145 1447.90088,64.8803711 C1448.11214,65.0558277 1448.21777,65.3046859 1448.21777,65.6269531 L1448.21777,78.9580078 C1448.21777,79.280275 1448.11035,79.5327139 1447.89551,79.715332 C1447.68066,79.8979501 1447.42643,79.9892578 1447.13281,79.9892578 C1446.78906,79.9892578 1446.52409,79.9015308 1446.33789,79.7260742 C1446.15169,79.5506176 1446.05859,79.294598 1446.05859,78.9580078 L1446.05859,78.1953125 C1445.34961,79.5130274 1444.13933,80.171875 1442.42773,80.171875 Z M1442.86816,78.7001953 C1443.46257,78.7001953 1443.96924,78.6017262 1444.38818,78.4047852 C1444.80713,78.2078441 1445.13476,77.9231789 1445.37109,77.5507812 C1445.60742,77.1783836 1445.7793,76.752281 1445.88672,76.2724609 C1445.99414,75.7926408 1446.04785,75.2376334 1446.04785,74.6074219 C1446.04785,74.1920552 1446.01383,73.7945983 1445.9458,73.4150391 C1445.87777,73.0354799 1445.76318,72.6720395 1445.60205,72.324707 C1445.44092,71.9773746 1445.24398,71.6765963 1445.01123,71.4223633 C1444.77848,71.1681302 1444.48487,70.9658211 1444.13037,70.8154297 C1443.77588,70.6650383 1443.38021,70.5898438 1442.94336,70.5898438 C1442.39909,70.5898438 1441.92643,70.709797 1441.52539,70.949707 C1441.12435,71.1896171 1440.81462,71.5100891 1440.59619,71.9111328 C1440.37777,72.3121765 1440.21663,72.738279 1440.11279,73.1894531 C1440.00895,73.6406273 1439.95703,74.1132788 1439.95703,74.6074219 C1439.95703,75.087242 1440.00537,75.5509418 1440.10205,75.9985352 C1440.19873,76.4461285 1440.35091,76.8793924 1440.55859,77.2983398 C1440.76628,77.7172873 1441.06885,78.0538724 1441.46631,78.3081055 C1441.86377,78.5623385 1442.33105,78.6930338 1442.86816,78.7001953 Z" id="Manage-from-the-clou"></path>
            </g>
        </g>
    </g>
</svg>