<?xml version="1.0" encoding="UTF-8"?>
<svg width="1137px" height="371px" viewBox="0 0 1137 371" version="1.1" xmlns="http://www.w3.org/2000/svg" xmlns:xlink="http://www.w3.org/1999/xlink">
    <!-- Generator: Sketch 52.5 (67469) - http://www.bohemiancoding.com/sketch -->
    <title>Group 50</title>
    <desc>Created with Sketch.</desc>
    <g id="Diagrams_InProgress" stroke="none" stroke-width="1" fill="none" fill-rule="evenodd">
        <g id="Group-50" transform="translate(0.000000, -1.000000)">
            <g id="Group-46" transform="translate(898.000000, 0.000000)">
                <g id="Group-45" transform="translate(0.000000, 231.000000)" fill="#686A6C">
                    <path d="M17.0238521,17.0597245 C19.1013373,17.0597245 20.5964972,16.5606053 21.5093316,15.5676209 C22.422166,14.5746364 22.8785832,13.1876105 22.8785832,11.4065431 C22.8785832,10.6237141 22.7579212,9.90393174 22.5218433,9.25770376 C22.2910116,8.61147578 21.9290256,8.05456387 21.4463775,7.58696801 C20.9689756,7.12462604 20.3604193,6.7673618 19.631201,6.50992138 C18.9019827,6.25773485 18.0311177,6.13689547 17.0238521,6.13689547 L12.8688817,6.13689547 L12.8688817,17.0597245 L17.0238521,17.0597245 Z M17.0238521,0.152719308 C19.4475849,0.152719308 21.5303163,0.441683039 23.2668001,1.01435661 C25.003284,1.59228407 26.4407359,2.38562086 27.5634173,3.39436698 C28.6860987,4.40311309 29.5149943,5.59049133 30.0553503,6.96175558 C30.5904601,8.33301983 30.8580151,9.81461568 30.8580151,11.4065431 C30.8580151,13.1245639 30.585214,14.7007297 30.0291194,16.1350406 C29.4835173,17.5693514 28.6388831,18.7987608 27.5057094,19.8232685 C26.3725356,20.8477763 24.9350837,21.646367 23.1933537,22.2242944 C21.4568698,22.8022219 19.4003693,23.0911856 17.0238521,23.0911856 L12.8688817,23.0911856 L12.8688817,34.6024499 L4.88944982,34.6024499 L4.88944982,0.152719308 L17.0238521,0.152719308 Z" id="Shape" fill-rule="nonzero"></path>
                    <path d="M54.2244776,21.4309577 L51.0400495,12.0002323 C50.8039716,11.4012893 50.5521552,10.6920146 50.2793541,9.8829162 C50.0170454,9.07381775 49.7494905,8.19641879 49.4819356,7.24546542 C49.2458577,8.21218045 48.9887951,9.0948333 48.7264864,9.9196934 C48.4589315,10.7392996 48.2071151,11.4485742 47.9710372,12.0475172 L44.8075938,21.4309577 L54.2244776,21.4309577 Z M66.8992359,34.6024499 L60.719242,34.6024499 C60.0267469,34.6024499 59.4654062,34.4395794 59.040466,34.1138385 C58.6155259,33.7933514 58.2955092,33.3835483 58.0751699,32.8739214 L56.0449002,26.8687297 L42.9661865,26.8687297 L40.9359168,32.8739214 C40.7627931,33.3152478 40.4480226,33.7145431 40.0020977,34.0665535 C39.5561729,34.4238178 39.0000783,34.6024499 38.3390603,34.6024499 L32.1066047,34.6024499 L45.4213963,0.152719308 L53.5844443,0.152719308 L66.8992359,34.6024499 Z" id="Shape" fill-rule="nonzero"></path>
                    <path d="M84.3532594,16.345196 C85.4392176,16.345196 86.3572982,16.2138488 87.1232397,15.9353929 C87.8839351,15.6569369 88.513476,15.2786571 89.0013703,14.7847918 C89.4892646,14.3014343 89.8407583,13.7287608 90.0610976,13.072025 C90.2814369,12.4205431 90.3968528,11.7165224 90.3968528,10.9599628 C90.3968528,9.44684366 89.9037124,8.25946542 88.9226777,7.41358977 C87.9363968,6.56246024 86.4097599,6.13689547 84.3532594,6.13689547 L81.1373543,6.13689547 L81.1373543,16.345196 L84.3532594,16.345196 Z M101.298404,34.6024499 L94.0744213,34.6024499 C92.7366467,34.6024499 91.7818429,34.0928229 91.1942714,33.0893307 L85.481187,23.0911856 C85.2188783,22.660367 84.9198463,22.3503877 84.5893373,22.1559939 C84.2535821,21.9563463 83.7814264,21.8565224 83.1728701,21.8565224 L81.1373543,21.8565224 L81.1373543,34.6024499 L73.1631686,34.6024499 L73.1631686,0.152719308 L84.3532594,0.152719308 C86.8347001,0.152719308 88.9594009,0.410159723 90.7168695,0.925040552 C92.4638457,1.43466749 93.9012976,2.14919599 95.0082404,3.06337216 C96.1204295,3.97754832 96.9230942,5.05459496 97.4319732,6.29976594 C97.9303598,7.55019081 98.1821762,8.90043952 98.1821762,10.3715276 C98.1821762,11.4906053 98.0352833,12.5413825 97.7362513,13.534367 C97.4372194,14.5326053 96.9965407,15.4467815 96.4142153,16.2926571 C95.8318899,17.1332789 95.1079178,17.8845846 94.2527913,18.5465742 C93.3976648,19.2085639 92.4113839,19.754968 91.2939487,20.1805328 C91.8080738,20.448481 92.2959681,20.7794758 92.7523853,21.184025 C93.2088025,21.5833203 93.6180041,22.061424 93.9852363,22.613082 L101.298404,34.6024499 Z" id="Shape" fill-rule="nonzero"></path>
                    <polygon id="Path" points="131.77868 6.48890584 122.099487 6.48890584 122.099487 34.6024499 114.120055 34.6024499 114.120055 6.48890584 104.440863 6.48890584 104.440863 0.152719308 131.77868 0.152719308"></polygon>
                    <path d="M169.388507,0.152719308 L169.388507,34.6024499 L165.233536,34.6024499 C164.614488,34.6024499 164.105609,34.502626 163.685915,34.3029784 C163.271467,34.1085846 162.851773,33.767082 162.442571,33.2784706 L146.231891,12.7305224 C146.289599,13.3452271 146.331568,13.9389162 146.357799,14.5168437 C146.38403,15.0895172 146.394523,15.6359214 146.394523,16.1350406 L146.394523,34.6024499 L139.359402,34.6024499 L139.359402,0.152719308 L143.561588,0.152719308 C143.90259,0.152719308 144.196375,0.168480966 144.432453,0.200004282 C144.673777,0.231527598 144.883624,0.29457423 145.072486,0.378636407 C145.261349,0.467952469 145.439719,0.583537961 145.612842,0.746408427 C145.791212,0.904025008 145.985321,1.11418045 146.20566,1.38738252 L162.563233,22.0719317 C162.484541,21.4046882 162.426833,20.7637141 162.400602,20.1437556 C162.369125,19.523797 162.353386,18.9353618 162.353386,18.3837038 L162.353386,0.152719308 L169.388507,0.152719308 Z" id="Path"></path>
                    <polygon id="Path" points="187.608472 6.29976594 187.608472 14.3434654 198.426084 14.3434654 198.426084 20.2540872 187.608472 20.2540872 187.608472 28.4554032 201.731174 28.4554032 201.731174 34.6024499 179.58707 34.6024499 179.58707 0.152719308 201.731174 0.152719308 201.731174 6.29976594"></polygon>
                    <path d="M221.372853,16.345196 C222.458811,16.345196 223.382138,16.2138488 224.142833,15.9353929 C224.908775,15.6569369 225.533069,15.2786571 226.02621,14.7847918 C226.508858,14.3014343 226.865598,13.7287608 227.085937,13.072025 C227.306276,12.4205431 227.416446,11.7165224 227.416446,10.9599628 C227.416446,9.44684366 226.923306,8.25946542 225.942271,7.41358977 C224.95599,6.56246024 223.429353,6.13689547 221.372853,6.13689547 L218.156948,6.13689547 L218.156948,16.345196 L221.372853,16.345196 Z M238.317997,34.6024499 L231.094015,34.6024499 C229.75624,34.6024499 228.801436,34.0928229 228.213865,33.0893307 L222.506026,23.0911856 C222.238472,22.660367 221.93944,22.3503877 221.608931,22.1559939 C221.273175,21.9563463 220.80102,21.8565224 220.192463,21.8565224 L218.156948,21.8565224 L218.156948,34.6024499 L210.182762,34.6024499 L210.182762,0.152719308 L221.372853,0.152719308 C223.854293,0.152719308 225.978994,0.410159723 227.736463,0.925040552 C229.488685,1.43466749 230.920891,2.14919599 232.027834,3.06337216 C233.140023,3.97754832 233.942687,5.05459496 234.451566,6.29976594 C234.955199,7.55019081 235.207016,8.90043952 235.207016,10.3715276 C235.207016,11.4906053 235.054877,12.5413825 234.761091,13.534367 C234.456813,14.5326053 234.016134,15.4467815 233.439055,16.2926571 C232.851483,17.1332789 232.132757,17.8845846 231.272385,18.5465742 C230.417258,19.2085639 229.430977,19.754968 228.313542,20.1805328 C228.832913,20.448481 229.315561,20.7794758 229.771979,21.184025 C230.228396,21.5833203 230.637597,22.061424 231.00483,22.613082 L238.317997,34.6024499 Z" id="Shape" fill-rule="nonzero"></path>
                    <polygon id="Path" points="12.1081863 58.838626 12.1081863 66.8823255 22.9257988 66.8823255 22.9257988 72.7929473 12.1081863 72.7929473 12.1081863 80.9942633 26.2308889 80.9942633 26.2308889 87.14131 4.08678508 87.14131 4.08678508 52.6915794 26.2308889 52.6915794 26.2308889 58.838626"></polygon>
                    <path d="M64.7063348,52.6915794 L64.7063348,87.14131 L60.5513644,87.14131 C59.9375619,87.14131 59.428683,87.0414861 59.008989,86.8418385 C58.589295,86.6474447 58.1748472,86.3059421 57.7656456,85.8173307 L41.5497193,65.2693825 C41.6126734,65.8840872 41.6546428,66.4777763 41.6808737,67.0557038 C41.7071045,67.6283773 41.7175969,68.1747815 41.7175969,68.6739007 L41.7175969,87.14131 L34.6824765,87.14131 L34.6824765,52.6915794 L38.8846625,52.6915794 C39.2256639,52.6915794 39.5194496,52.7073411 39.7555275,52.7388644 C39.9968515,52.7703877 40.2066985,52.8334343 40.3955608,52.9174965 C40.5844231,53.0068126 40.7627931,53.1223981 40.9359168,53.2852685 C41.1090406,53.4428851 41.3083952,53.6530406 41.5287346,53.9262426 L57.8863076,74.6107918 C57.807615,73.9435483 57.749907,73.3025742 57.71843,72.6826157 C57.6921991,72.0626571 57.6764606,71.4742219 57.6764606,70.9225639 L57.6764606,52.6915794 L64.7063348,52.6915794 Z" id="Path"></path>
                    <path d="M93.0881405,73.9698178 L89.8984662,64.5390924 C89.6623883,63.9401494 89.4105719,63.2308747 89.143017,62.4217763 C88.8754621,61.6126779 88.6079072,60.7352789 88.3403523,59.7843255 C88.1042744,60.7510406 87.852458,61.6336934 87.5849031,62.4585535 C87.3173482,63.2781597 87.0655318,63.9874343 86.8294539,64.5863773 L83.6660105,73.9698178 L93.0881405,73.9698178 Z M105.762899,87.14131 L99.5776587,87.14131 C98.8851636,87.14131 98.3290691,86.9784395 97.9041289,86.6526986 C97.4791888,86.3322115 97.1539259,85.9224084 96.9335866,85.4127815 L94.9033169,79.4075898 L81.8246032,79.4075898 L79.7943335,85.4127815 C79.6212098,85.8541079 79.3116855,86.2534032 78.8657606,86.6054136 C78.4145896,86.9626779 77.858495,87.14131 77.197477,87.14131 L70.9650214,87.14131 L84.279813,52.6915794 L92.4481071,52.6915794 L105.762899,87.14131 Z" id="Shape" fill-rule="nonzero"></path>
                    <path d="M125.61967,81.1098488 C126.674151,81.1098488 127.534524,80.9785017 128.206035,80.7052996 C128.872299,80.4426053 129.396916,80.0958488 129.774641,79.6702841 C130.152365,79.2447193 130.409428,78.7613618 130.551075,78.2307193 C130.697968,77.689569 130.760922,77.1484188 130.760922,76.5967608 C130.760922,75.9662944 130.682229,75.3988747 130.514351,74.8945017 C130.35172,74.3901286 130.068427,73.9645639 129.664471,73.6178074 C129.265762,73.265797 128.735898,73.0031027 128.07488,72.8087089 C127.413862,72.619569 126.574474,72.530253 125.572455,72.530253 L120.001017,72.530253 L120.001017,81.1098488 L125.61967,81.1098488 Z M120.001017,58.6757556 L120.001017,67.1870509 L124.155988,67.1870509 C125.037345,67.1870509 125.829517,67.1187504 126.542997,66.997911 C127.245985,66.8718178 127.849295,66.6511545 128.342435,66.3359214 C128.840822,66.0154343 129.218546,65.5846157 129.475609,65.0329577 C129.737918,64.4812996 129.863826,63.7930406 129.863826,62.9524188 C129.863826,62.1328126 129.764148,61.4498074 129.559548,60.9086571 C129.360193,60.362253 129.040176,59.9261804 128.615236,59.5951856 C128.190296,59.2641908 127.655186,59.0277659 127.004661,58.885911 C126.348889,58.74931 125.572455,58.6757556 124.675359,58.6757556 L120.001017,58.6757556 Z M124.675359,52.6915794 C127.04663,52.6915794 129.071653,52.9122426 130.739937,53.353569 C132.408221,53.7948955 133.772226,54.414854 134.826707,55.2239525 C135.881188,56.027797 136.64713,57.0050198 137.124532,58.150367 C137.60718,59.3062219 137.848504,60.5881701 137.848504,62.0067193 C137.848504,62.7790406 137.733088,63.5250924 137.512749,64.2448747 C137.292409,64.9594032 136.951408,65.6266468 136.479252,66.2518592 C136.00185,66.8770716 135.39854,67.4444913 134.65883,67.9698799 C133.919119,68.4847608 133.032515,68.936595 131.993773,69.3096209 C134.254874,69.8665328 135.938896,70.7544395 137.024854,71.9838488 C138.110813,73.2185121 138.651169,74.8051856 138.651169,76.7596312 C138.651169,78.2307193 138.367875,79.5862219 137.801288,80.8524084 C137.234701,82.1133411 136.40056,83.2114032 135.309355,84.1518488 C134.218151,85.0870406 132.869884,85.8173307 131.259308,86.3479732 C129.653979,86.8733618 127.823064,87.14131 125.761317,87.14131 L112.021585,87.14131 L112.021585,52.6915794 L124.675359,52.6915794 Z" id="Shape" fill-rule="nonzero"></path>
                    <polygon id="Path" points="167.898593 80.7578385 167.898593 87.14131 147.170956 87.14131 147.170956 52.6915794 155.150388 52.6915794 155.150388 80.7578385"></polygon>
                    <polygon id="Path" points="183.521702 58.838626 183.521702 66.8823255 194.334068 66.8823255 194.334068 72.7929473 183.521702 72.7929473 183.521702 80.9942633 197.639158 80.9942633 197.639158 87.14131 175.5003 87.14131 175.5003 52.6915794 197.639158 52.6915794 197.639158 58.838626"></polygon>
                    <path d="M229.131945,69.9085639 C229.131945,68.2010509 228.911606,66.6616623 228.470927,65.295652 C228.030249,63.9243877 227.395461,62.758025 226.571812,61.8070716 C225.748162,60.8508644 224.730405,60.1205742 223.539523,59.6109473 C222.343395,59.0960665 220.984636,58.838626 219.457999,58.838626 L214.117393,58.838626 L214.117393,80.9942633 L219.457999,80.9942633 C220.984636,80.9942633 222.343395,80.7368229 223.539523,80.227196 C224.730405,79.7123152 225.748162,78.9767711 226.571812,78.0258178 C227.395461,77.0748644 228.030249,75.9085017 228.470927,74.5424913 C228.911606,73.1659732 229.131945,71.6213307 229.131945,69.9085639 Z M237.305486,69.9085639 C237.305486,72.393652 236.875299,74.694854 236.014927,76.7964084 C235.1598,78.9032167 233.947934,80.7210613 232.38982,82.255196 C230.831706,83.7945846 228.958821,84.9924706 226.760674,85.8541079 C224.562527,86.7104913 222.128302,87.14131 219.457999,87.14131 L206.095992,87.14131 L206.095992,52.6915794 L219.457999,52.6915794 C222.128302,52.6915794 224.562527,53.1223981 226.760674,53.9892893 C228.958821,54.8561804 230.831706,56.0593203 232.38982,57.5882012 C233.947934,59.117082 235.1598,60.9349266 236.014927,63.036481 C236.875299,65.1380354 237.305486,67.4287297 237.305486,69.9085639 Z" id="Shape" fill-rule="nonzero"></path>
                    <path d="M21.9447641,112.228616 C21.7086862,112.612149 21.462116,112.890605 21.2050534,113.079745 C20.9427447,113.274139 20.6069895,113.363455 20.1977879,113.363455 C19.8358018,113.363455 19.4475849,113.253123 19.0278909,113.021952 C18.6134431,112.796035 18.1412874,112.538595 17.6166699,112.249631 C17.0868062,111.971175 16.4834961,111.713735 15.8067396,111.487818 C15.129983,111.256647 14.3587953,111.141061 13.4984227,111.141061 C12.0032628,111.141061 10.8858276,111.461548 10.1513631,112.102522 C9.42214485,112.738243 9.05491261,113.59988 9.05491261,114.687434 C9.05491261,115.380947 9.27525195,115.953621 9.71593064,116.410709 C10.1566093,116.873051 10.7336885,117.261838 11.4524145,117.598087 C12.1711404,117.923828 12.9842975,118.233807 13.9076243,118.507009 C14.8309511,118.780212 15.7647702,119.090191 16.7300663,119.42644 C17.6901163,119.767942 18.6291816,120.167237 19.5472622,120.624326 C20.470589,121.081414 21.2889922,121.659341 22.0077182,122.37387 C22.7211979,123.083144 23.2982772,123.944781 23.7389559,124.958781 C24.1796345,125.978035 24.3999739,127.202191 24.3999739,128.636502 C24.3999739,130.228429 24.1271728,131.715279 23.5763244,133.107559 C23.0254761,134.494585 22.2280575,135.702978 21.1788226,136.73274 C20.1295876,137.767756 18.8390286,138.576854 17.3071456,139.170543 C15.7700163,139.764232 14.0282863,140.053196 12.0767093,140.053196 C11.0064896,140.053196 9.91528528,139.948118 8.8083424,139.727455 C7.69615334,139.506792 6.62593368,139.191559 5.58719107,138.792263 C4.54844846,138.392968 3.57265995,137.914864 2.65457936,137.363206 C1.74699112,136.811548 0.949572555,136.196844 0.272816006,135.519092 L2.63359466,131.783579 C2.82770313,131.510377 3.06902717,131.289714 3.37855148,131.105828 C3.6880758,130.927196 4.01858481,130.832626 4.38057087,130.832626 C4.8527266,130.832626 5.33012851,130.990243 5.81277659,131.28446 C6.29017849,131.583932 6.8305345,131.914927 7.43909077,132.277445 C8.04764705,132.639963 8.7453883,132.976212 9.52706834,133.270429 C10.3139946,133.569901 11.2425675,133.722263 12.3127872,133.722263 C13.7659776,133.722263 14.8834128,133.401776 15.6913237,132.766056 C16.4939885,132.119828 16.8926978,131.111082 16.8926978,129.724056 C16.8926978,128.920212 16.6723584,128.26873 16.2316797,127.759103 C15.791001,127.259984 15.2139218,126.844927 14.4951959,126.508678 C13.7817161,126.182937 12.968559,125.888719 12.0504784,125.636533 C11.1428902,125.379092 10.2038249,125.10589 9.2437749,124.795911 C8.28897109,124.485932 7.3499058,124.107652 6.43707139,123.661072 C5.52423697,123.209237 4.71107988,122.620802 3.99235394,121.885258 C3.27887416,121.154968 2.69654876,120.240792 2.25587008,119.147984 C1.8151914,118.049921 1.59485205,116.699673 1.59485205,115.08673 C1.59485205,113.799528 1.85716079,112.538595 2.3765321,111.309186 C2.8959034,110.079776 3.65659875,108.981714 4.66386431,108.025507 C5.67637604,107.058792 6.90922712,106.291724 8.37290989,105.713797 C9.83659266,105.141123 11.5101224,104.85216 13.3987453,104.85216 C14.4532265,104.85216 15.4814767,104.936222 16.4782499,105.104346 C17.4802693,105.267217 18.429827,105.508895 19.3269229,105.834636 C20.2240187,106.155123 21.0581605,106.543911 21.8398406,106.990491 C22.6162745,107.442326 23.3140157,107.951952 23.9278182,108.514118 L21.9447641,112.228616 Z" id="Path"></path>
                    <polygon id="Path" points="40.6631157 111.377486 40.6631157 119.421186 51.4807282 119.421186 51.4807282 125.331807 40.6631157 125.331807 40.6631157 133.533123 54.7858183 133.533123 54.7858183 139.68017 32.6417145 139.68017 32.6417145 105.23044 54.7858183 105.23044 54.7858183 111.377486"></polygon>
                    <path d="M74.4274967,121.422916 C75.5134549,121.422916 76.4367817,121.291569 77.197477,121.013113 C77.9634185,120.734657 78.5877133,120.356377 79.0808538,119.862512 C79.568748,119.379155 79.9202417,118.806481 80.1405811,118.149745 C80.3609204,117.498263 80.4710901,116.794243 80.4710901,116.037683 C80.4710901,114.524564 79.9831958,113.337186 78.996915,112.49131 C78.0158803,111.64018 76.4892434,111.214616 74.4274967,111.214616 L71.2168377,111.214616 L71.2168377,121.422916 L74.4274967,121.422916 Z M91.3726413,139.68017 L84.1539048,139.68017 C82.8161302,139.68017 81.8560802,139.170543 81.2737548,138.167051 L75.5606705,128.168906 C75.2931156,127.738087 74.9940836,127.428108 74.6635746,127.233714 C74.3278194,127.034066 73.8609098,126.934243 73.2471074,126.934243 L71.2168377,126.934243 L71.2168377,139.68017 L63.2374059,139.68017 L63.2374059,105.23044 L74.4274967,105.23044 C76.9141836,105.23044 79.0336382,105.48788 80.7911067,106.002761 C82.5433291,106.512388 83.9755348,107.226916 85.0824777,108.141092 C86.1946668,109.055269 87.0025777,110.132315 87.5062105,111.377486 C88.0098433,112.627911 88.2616596,113.97816 88.2616596,115.449248 C88.2616596,116.568326 88.1095206,117.619103 87.8157348,118.612087 C87.5114567,119.610326 87.070778,120.524502 86.4936987,121.370377 C85.9061272,122.210999 85.1874012,122.962305 84.3322747,123.624294 C83.4771482,124.286284 82.4856212,124.832688 81.368186,125.258253 C81.8875573,125.526201 82.3754515,125.857196 82.8318687,126.261745 C83.2830398,126.661041 83.6974876,127.139144 84.0594736,127.690802 L91.3726413,139.68017 Z" id="Shape" fill-rule="nonzero"></path>
                    <path d="M127.445339,105.23044 L113.663638,139.68017 L106.439655,139.68017 L92.652708,105.23044 L99.0740259,105.23044 C99.766521,105.23044 100.327862,105.39331 100.752802,105.713797 C101.177742,106.039538 101.497759,106.454595 101.718098,106.953714 L108.375494,125.400108 C108.690264,126.203952 108.994542,127.081351 109.298821,128.032305 C109.592606,128.988512 109.8759,129.981497 110.148701,131.021766 C110.36904,129.981497 110.610364,128.988512 110.888412,128.032305 C111.166459,127.081351 111.460245,126.203952 111.775015,125.400108 L118.385195,106.953714 C118.558319,106.512388 118.867843,106.118346 119.319014,105.766336 C119.764939,105.409072 120.321034,105.23044 120.982052,105.23044 L127.445339,105.23044 Z" id="Path"></path>
                    <rect id="Rectangle" x="133.709272" y="105.23044" width="8.02140126" height="34.4497306"></rect>
                    <path d="M175.112083,130.769579 C175.306192,130.769579 175.495054,130.801103 175.67867,130.869403 C175.867533,130.942958 176.051149,131.063797 176.219026,131.242429 L179.387716,134.568139 C177.997479,136.385984 176.266242,137.751994 174.18351,138.676678 C172.095533,139.596108 169.629831,140.053196 166.781158,140.053196 C164.163317,140.053196 161.823523,139.61187 159.75653,138.718709 C157.684291,137.830802 155.932068,136.601393 154.494616,135.030481 C153.051918,133.464823 151.944975,131.604947 151.173788,129.456108 C150.4026,127.302015 150.014383,124.964035 150.014383,122.447424 C150.014383,119.87302 150.434077,117.514025 151.268219,115.359932 C152.102361,113.211092 153.272258,111.351217 154.783156,109.790813 C156.294054,108.235662 158.103985,107.022015 160.218193,106.155123 C162.327155,105.288232 164.645965,104.85216 167.179867,104.85216 C168.470426,104.85216 169.687539,104.967745 170.825959,105.193662 C171.969625,105.424833 173.034598,105.740066 174.026125,106.139362 C175.017652,106.543911 175.930487,107.027269 176.764628,107.599942 C177.59877,108.162108 178.338481,108.776813 178.98376,109.438802 L176.292473,113.05873 C176.119349,113.279393 175.914748,113.479041 175.67867,113.662927 C175.442592,113.841559 175.112083,113.936129 174.687143,113.936129 C174.409096,113.936129 174.136295,113.867828 173.884478,113.741735 C173.632662,113.615642 173.365107,113.463279 173.081814,113.284647 C172.79852,113.100761 172.488996,112.901113 172.147995,112.690958 C171.812239,112.475548 171.408284,112.281155 170.941374,112.102522 C170.484957,111.918636 169.939355,111.76102 169.320306,111.64018 C168.696012,111.514087 167.966793,111.451041 167.132651,111.451041 C165.810615,111.451041 164.598749,111.692719 163.507545,112.186585 C162.41634,112.669942 161.472029,113.384471 160.67461,114.324916 C159.882438,115.260108 159.268635,116.410709 158.838449,117.771465 C158.403017,119.137476 158.187923,120.69788 158.187923,122.447424 C158.187923,124.21273 158.429248,125.773134 158.906649,127.149652 C159.384051,128.520916 160.039823,129.676771 160.868719,130.611963 C161.692368,131.547155 162.652418,132.261683 163.754115,132.755548 C164.855812,133.238906 166.041447,133.480585 167.300529,133.480585 C168.024501,133.480585 168.685519,133.449061 169.283583,133.380761 C169.876401,133.307206 170.437742,133.191621 170.957113,133.023497 C171.476484,132.855372 171.964378,132.634709 172.420796,132.361507 C172.882459,132.088305 173.344122,131.731041 173.811032,131.31073 C173.999894,131.153113 174.209741,131.021766 174.430081,130.916688 C174.65042,130.816864 174.876005,130.769579 175.112083,130.769579 Z" id="Path"></path>
                    <polygon id="Path" points="194.444237 111.377486 194.444237 119.421186 205.256604 119.421186 205.256604 125.331807 194.444237 125.331807 194.444237 133.533123 208.561694 133.533123 208.561694 139.68017 186.422836 139.68017 186.422836 105.23044 208.561694 105.23044 208.561694 111.377486"></polygon>
                    <path d="M236.020173,112.228616 C235.784095,112.612149 235.537525,112.890605 235.275216,113.079745 C235.012907,113.274139 234.682398,113.363455 234.273197,113.363455 C233.905964,113.363455 233.517747,113.253123 233.1033,113.021952 C232.688852,112.796035 232.21145,112.538595 231.692079,112.249631 C231.162215,111.971175 230.558905,111.713735 229.882148,111.487818 C229.205392,111.256647 228.428958,111.141061 227.568585,111.141061 C226.073425,111.141061 224.95599,111.461548 224.226772,112.102522 C223.497553,112.738243 223.130321,113.59988 223.130321,114.687434 C223.130321,115.380947 223.350661,115.953621 223.791339,116.410709 C224.232018,116.873051 224.809097,117.261838 225.527823,117.598087 C226.241303,117.923828 227.059706,118.233807 227.983033,118.507009 C228.901114,118.780212 229.840179,119.090191 230.805475,119.42644 C231.760279,119.767942 232.70459,120.167237 233.622671,120.624326 C234.545998,121.081414 235.364401,121.659341 236.077881,122.37387 C236.79136,123.083144 237.373686,123.944781 237.814364,124.958781 C238.255043,125.978035 238.475383,127.202191 238.475383,128.636502 C238.475383,130.228429 238.202581,131.715279 237.646487,133.107559 C237.100885,134.494585 236.29822,135.702978 235.248985,136.73274 C234.204996,137.767756 232.914437,138.576854 231.382554,139.170543 C229.845425,139.764232 228.103695,140.053196 226.152118,140.053196 C225.081898,140.053196 223.990694,139.948118 222.883751,139.727455 C221.771562,139.506792 220.701342,139.191559 219.6626,138.792263 C218.618611,138.392968 217.648069,137.914864 216.729988,137.363206 C215.817154,136.811548 215.024981,136.196844 214.348225,135.519092 L216.709003,131.783579 C216.897866,131.510377 217.144436,131.289714 217.45396,131.105828 C217.758238,130.927196 218.093993,130.832626 218.45598,130.832626 C218.928135,130.832626 219.405537,130.990243 219.888185,131.28446 C220.360341,131.583932 220.905943,131.914927 221.514499,132.277445 C222.11781,132.639963 222.815551,132.976212 223.602477,133.270429 C224.389403,133.569901 225.317976,133.722263 226.388196,133.722263 C227.83614,133.722263 228.958821,133.401776 229.761486,132.766056 C230.569397,132.119828 230.968106,131.111082 230.968106,129.724056 C230.968106,128.920212 230.747767,128.26873 230.307088,127.759103 C229.86641,127.259984 229.28933,126.844927 228.570605,126.508678 C227.857125,126.182937 227.043968,125.888719 226.125887,125.636533 C225.213053,125.379092 224.273987,125.10589 223.319184,124.795911 C222.359134,124.485932 221.425314,124.107652 220.51248,123.661072 C219.599646,123.209237 218.786489,122.620802 218.067763,121.885258 C217.349037,121.154968 216.771957,120.240792 216.331279,119.147984 C215.8906,118.049921 215.670261,116.699673 215.670261,115.08673 C215.670261,113.799528 215.932569,112.538595 216.446695,111.309186 C216.971312,110.079776 217.726761,108.981714 218.739273,108.025507 C219.746539,107.058792 220.984636,106.291724 222.448319,105.713797 C223.906755,105.141123 225.585531,104.85216 227.474154,104.85216 C228.528635,104.85216 229.551639,104.936222 230.553659,105.104346 C231.550432,105.267217 232.505236,105.508895 233.402331,105.834636 C234.299427,106.155123 235.133569,106.543911 235.910003,106.990491 C236.691683,107.442326 237.389424,107.951952 238.003227,108.514118 L236.020173,112.228616 Z" id="Path"></path>
                </g>
                <g id="Group-44" transform="translate(25.000000, 0.000000)">
                    <polygon id="Path" fill="#BDBEC0" points="94.8282888 0.999164904 0.397142515 50.3436623 0.397142515 159.540429 94.8282888 208.884927 189.259435 159.540429 189.259435 50.3436623"></polygon>
                    <polygon id="Path" fill="#A2A2A3" points="94.8282888 208.884927 189.259435 159.540429 189.259435 50.3436623 94.8282888 0.999164904"></polygon>
                    <path d="M120.44536,128.52674 C114.664076,134.968004 106.322658,139.055528 97.0054513,139.11332 C96.9424972,139.11332 96.874297,139.123828 96.8113429,139.123828 C87.5046288,139.123828 79.1632109,135.099351 73.345203,128.721134 C68.182967,123.057445 65.0090313,115.544388 65.0090313,107.274771 C65.0090313,89.6847608 79.2471497,75.4257141 96.8113429,75.4257141 C114.375536,75.4257141 128.613654,89.6847608 128.613654,107.274771 C128.613654,115.449818 125.507919,122.878813 120.450606,128.521486 L120.44536,128.52674 Z M145.40666,110.920968 L154.209741,107.274771 L153.564462,98.705683 L144.320702,96.4149887 L142.175016,89.443082 L148.522888,82.3345742 L144.236763,74.8950716 L134.909064,76.8442633 L129.956675,71.5010613 L132.595501,62.3330302 L125.507919,57.4942012 L117.953427,63.3049991 L111.175369,60.6412789 L109.580532,51.231569 L101.097468,49.9548747 L96.8113429,58.471424 L89.5453908,59.0178281 L84.0369073,51.231569 L75.8423822,53.7639421 L75.6640123,63.3049991 L69.3581102,66.951196 L61.0219384,62.3330302 L54.737021,68.1753514 L58.7083753,76.8442633 L54.6058667,82.8704706 L45.0945518,82.3345742 L41.9625854,90.3309887 L49.2967378,96.4149887 L48.2107796,103.628574 L39.4129445,107.274771 L40.0529778,115.843859 L49.2967378,118.134554 L51.4476694,125.10646 L45.0945518,132.214968 L49.3859227,139.654471 L58.7083753,137.705279 L63.6607644,143.048481 L61.0219384,152.216512 L68.1095206,157.055341 L75.6640123,151.244543 L82.4473163,153.908263 L84.0369073,163.312719 L92.5199719,164.594667 L96.8113429,156.078118 L104.072049,155.531714 L109.580532,163.312719 L117.780304,160.780346 L117.953427,151.244543 L124.264576,147.598346 L132.595501,152.216512 L138.885665,146.374191 L134.909064,137.705279 L139.011573,131.673818 L148.522888,132.214968 L151.654854,124.218554 L144.320702,118.134554 L145.40666,110.920968 Z" id="Shape" fill="#FFFFFF" fill-rule="nonzero"></path>
                </g>
            </g>
            <g id="Group-39-Copy-3" transform="translate(0.000000, 66.000000)">
                <g id="Group-39-Copy" transform="translate(0.000000, 16.000000)">
                    <path d="M115.895327,10.494275 C109.977378,10.494275 104.371668,12.0338977 99.0752792,15.1160589 C93.7788901,18.1923882 89.640995,22.3417879 86.6645119,27.558426 C83.6909469,32.775064 82.2027054,38.5923882 82.2027054,45.0045666 C82.2027054,54.4959903 85.4972636,62.5119423 92.0805439,69.0495066 C98.6638241,75.5899869 106.604031,78.858769 115.895327,78.858769 C122.099251,78.858769 127.839195,77.3570538 133.120993,74.3507073 C138.399874,71.3443608 142.517342,67.2299525 145.473398,62.0133145 C148.432372,56.7995923 149.91186,50.9997639 149.91186,44.6225769 C149.91186,38.2832973 148.432372,32.5505357 145.473398,27.4242922 C142.517342,22.2980486 138.353184,18.1923882 132.983842,15.1160589 C127.611581,12.0338977 121.918328,10.494275 115.895327,10.494275 Z M115.542234,2.73201087 C127.646599,2.73201087 137.781232,6.7676884 145.937379,14.8390435 C154.090608,22.9133145 158.170141,32.8479628 158.170141,44.6517364 C158.170141,56.3417879 154.099363,66.2618565 145.960724,74.4090263 C137.825004,82.5532802 127.900475,86.6239491 116.192975,86.6239491 C104.339569,86.6239491 94.333333,82.5736918 86.1771857,74.4615134 C78.0181203,66.352251 73.9444238,56.5429886 73.9444238,45.0308102 C73.9444238,37.3589405 75.7974304,30.2411018 79.5151162,23.6918736 C83.2298838,17.1397296 88.2986595,12.0076541 94.7156069,8.29564723 C101.129636,4.58364037 108.071845,2.73201087 115.542234,2.73201087 Z" id="Shape" fill="#686A6C" fill-rule="nonzero"></path>
                    <polygon id="Path" fill="#686A6C" points="179.837187 87.2771224 179.837187 2.44333162 181.684358 2.44333162 238.18501 67.4719766 238.18501 2.44333162 246.55418 2.44333162 246.55418 87.2771224 244.648648 87.2771224 188.611976 23.0416164 188.611976 87.2771224"></polygon>
                    <rect id="Rectangle" fill="#686A6C" x="269.560644" y="2.40542425" width="7.9431245" height="84.7113208"></rect>
                    <path d="M537.429532,53.6882716 L548.73725,24.7766078 L559.977851,53.6882716 L537.429532,53.6882716 Z M556.770836,2.45207948 L540.505231,2.45207948 L517.597984,63.684155 L563.666355,63.8707759 L572.514097,86.8338977 L589.185321,86.8338977 L556.770836,2.45207948 Z" id="Shape" fill="#686A6C" fill-rule="nonzero"></path>
                    <polygon id="Path" fill="#686A6C" points="606.513121 2.45207948 622.551113 2.45207948 622.551113 71.3793522 654.533715 71.3793522 654.533715 86.6618565 606.513121 86.6618565"></polygon>
                    <polygon id="Path" fill="#686A6C" points="671.578458 2.45207948 687.61645 2.45207948 687.61645 71.3793522 719.596134 71.3793522 719.596134 86.6618565 671.578458 86.6618565"></polygon>
                    <path d="M542.536243,122.306453 C542.536243,122.306453 503.299193,108.19033 494.646965,84.6965049 C484.961722,58.40045 520.875034,52.3994208 557.614173,53.4433316 C577.413622,54.0090263 601.610679,57.0153728 601.610679,57.0153728 C601.610679,57.0153728 544.444694,64.287757 523.787318,80.9465906 C503.617268,97.2117707 542.536243,122.306453 542.536243,122.306453 Z" id="Path" fill="#F36D23"></path>
                    <path d="M372.115077,66.6992493 C364.621343,75.1467622 355.373819,79.3836404 344.349159,79.3836404 C334.11531,79.3836404 325.641087,76.1090263 318.923573,69.5597982 C312.20606,63.01057 308.847303,54.8400726 308.847303,45.0512218 C308.847303,38.5778085 310.350135,32.7459045 313.352881,27.558426 C316.355627,22.3738634 320.592738,18.2448754 326.052542,15.168546 C331.515264,12.0980486 337.447804,10.55551 343.858915,10.55551 C349.718501,10.55551 355.099516,11.7335546 359.996122,14.07798 C364.679706,16.323263 368.715467,19.5832973 372.115077,23.8405872 L372.115077,12.9699182 C369.690119,10.9608273 367.011284,8.53767125 364.0669,7.09427502 C358.023473,4.12583591 351.247596,2.64453231 343.748026,2.64453231 C331.331423,2.64453231 320.998357,6.65396627 312.751748,14.6786661 C304.505139,22.70045 300.381835,32.5913591 300.381835,44.3426455 C300.381835,55.5136575 303.784363,65.0488205 310.595257,72.9423025 C318.713469,82.2937604 329.802327,86.9680315 343.858915,86.9680315 C351.247596,86.9680315 357.938847,85.5771224 363.929749,82.7923882 C366.903314,81.410227 369.631757,79.0541378 372.115077,77.1033659 L372.115077,66.6992493 Z" id="Path" fill="#686A6C"></path>
                    <path d="M30.6511853,40.8143436 C11.5258224,36.9011361 7.90151647,31.9206901 7.90151647,24.0913591 L7.90151647,23.8639148 C7.90151647,15.5796953 15.8008692,9.56408634 26.6854593,9.56408634 C35.8045865,9.56408634 43.0356895,12.2992493 50.132559,18.4285803 L50.8037268,19.0059388 L50.9700597,18.7989062 L50.9700597,9.43870041 C43.6251499,4.53406919 36.350275,2.46374329 26.9159909,2.46374329 C11.6979915,2.46374329 0.218104707,11.9085117 0.218104707,24.4354414 L0.218104707,24.6658016 C0.218104707,37.329781 8.2721178,44.1210332 28.0102861,48.1129714 C46.5520249,51.8453899 50.0683604,56.7062819 50.0683604,64.3781515 L50.0683604,64.6085117 C50.0683604,73.4963333 42.0581191,79.707311 30.5928229,79.707311 C19.4076663,79.707311 11.4878868,76.4239491 2.34249657,67.9997639 L1.69467377,67.4019937 L1.54876774,67.568203 L1.54876774,77.2316678 C10.3148023,83.8188033 19.3580583,86.813486 30.2484847,86.813486 C46.4411364,86.813486 57.7517721,77.4445323 57.7517721,64.0340692 L57.7517721,63.803709 C57.7517721,51.5596266 49.6452329,44.6808959 30.6511853,40.8143436 Z" id="Path" fill="#686A6C"></path>
                    <polygon id="Path" fill="#686A6C" points="493.389255 2.45207948 474.12674 59.7417879 473.709449 60.9752356 473.30383 59.7388719 454.312701 2.20713951 438.893351 2.20713951 419.902222 59.7388719 419.493685 60.9752356 419.079312 59.7417879 399.813879 2.45207948 380.679761 2.45207948 411.165368 87.058426 426.841513 87.058426 445.949367 31.8827827 446.357904 30.6989062 446.769359 31.8827827 465.877213 87.058426 481.553357 87.058426 512.033128 2.45207948"></polygon>
                    <path d="M74.7439889,198.01623 C75.8820559,199.984498 77.3557069,201.448306 79.170778,202.407654 C80.985849,203.367002 83.0489604,203.848134 85.3659482,203.848134 C86.8104179,203.848134 88.1644259,203.629438 89.4308903,203.194961 C90.7002728,202.754652 91.8033224,202.145218 92.7429573,201.360827 C93.6825921,200.570604 94.4267129,199.620004 94.9753196,198.509026 C95.51809,197.395133 95.7923934,196.138357 95.7923934,194.7387 C95.7923934,193.126179 95.4538914,191.793589 94.7768874,190.74093 C94.0969653,189.694103 93.1894297,188.833898 92.0571989,188.157397 C90.9162137,187.47798 89.640995,186.900622 88.2169521,186.419489 C86.7987454,185.938357 85.3338488,185.460141 83.8251805,184.979009 C82.3194302,184.500793 80.8516155,183.952594 79.4334088,183.337328 C78.012284,182.727894 76.7341472,181.931839 75.5960801,180.949164 C74.4580131,179.966488 73.5533956,178.730124 72.8734735,177.245905 C72.1964695,175.761685 71.8608856,173.927551 71.8608856,171.743503 C71.8608856,169.690673 72.2606682,167.865287 73.0719057,166.270261 C73.8802252,164.675236 74.9745204,163.345561 76.3518734,162.275407 C77.7292263,161.202337 79.3137659,160.397534 81.105492,159.852251 C82.8972181,159.304052 84.7794059,159.029953 86.7433011,159.029953 C89.279148,159.029953 91.6282352,159.481925 93.7905626,160.37129 C95.9587263,161.269404 97.8234054,162.765287 99.3991905,164.861856 L95.661078,167.547448 C94.5697008,166.019489 93.291564,164.87352 91.8266674,164.109541 C90.3617708,163.345561 88.6225709,162.960656 86.6119857,162.960656 C85.2142059,162.960656 83.8806247,163.147277 82.6112422,163.517603 C81.3447779,163.887929 80.2417283,164.436128 79.3020934,165.156368 C78.3595404,165.879524 77.6066653,166.783469 77.0376317,167.876951 C76.4715163,168.970433 76.1855405,170.259284 76.1855405,171.743503 C76.1855405,174.058769 76.7750009,175.8375 77.9568398,177.082611 C79.1386786,178.324807 80.6123296,179.310399 82.3836288,180.027723 C84.1549281,180.753795 86.0779696,181.38364 88.1527534,181.931839 C90.2304554,182.477122 92.1534969,183.20611 93.9247961,184.127551 C95.6960954,185.04316 97.1726645,186.320347 98.3486671,187.959112 C99.530506,189.597877 100.119966,191.85774 100.119966,194.7387 C100.119966,196.838186 99.7289382,198.695647 98.9410456,200.311085 C98.1560711,201.926522 97.0909571,203.291188 95.7602941,204.405081 C94.4267129,205.518975 92.8859452,206.361685 91.1379909,206.930296 C89.3900366,207.493074 87.5749655,207.778838 85.6956958,207.778838 C82.6345872,207.778838 79.8127645,207.242302 77.2360639,206.175064 C74.6564453,205.10491 72.4474279,203.302851 70.61193,200.768889 L74.7439889,198.01623 Z" id="Path" fill="#686A6C"></path>
                    <path d="M158.80921,188.906796 C158.80921,187.559627 158.534906,186.288272 157.989218,185.110227 C157.443529,183.92635 156.699408,182.891188 155.759773,181.993074 C154.820139,181.103709 153.705416,180.389301 152.415607,179.867345 C151.125798,179.342474 149.760117,179.080038 148.318566,179.080038 C146.176665,179.080038 144.390775,179.520347 142.972569,180.389301 C141.554362,181.264086 140.425049,182.27009 139.596303,183.407311 C138.767557,184.541616 138.17226,185.643846 137.825004,186.714001 C137.474829,187.787071 137.30266,188.518975 137.30266,188.906796 L158.80921,188.906796 Z M161.823628,200.903023 C160.291615,203.215373 158.403591,204.877465 156.15372,205.880553 C153.900931,206.88364 151.41761,207.3881 148.712512,207.3881 C146.392606,207.3881 144.294477,206.994447 142.415208,206.20714 C140.535938,205.419832 138.916381,204.320519 137.562373,202.897534 C136.208365,201.480381 135.169514,199.797877 134.448738,197.852937 C133.727962,195.910913 133.366115,193.756025 133.366115,191.399935 C133.366115,189.128409 133.736717,187.031839 134.480837,185.110227 C135.224958,183.185699 136.272564,181.514858 137.62949,180.097706 C138.983498,178.680553 140.57971,177.563743 142.415208,176.753109 C144.250705,175.94539 146.284636,175.542989 148.511162,175.542989 C150.831068,175.542989 152.873752,175.94539 154.645051,176.753109 C156.413432,177.563743 157.901674,178.633898 159.101022,179.966488 C160.303287,181.299078 161.213741,182.818289 161.823628,184.521205 C162.436434,186.221205 162.742836,187.947448 162.742836,189.694103 L162.742836,192.446762 L137.30266,192.446762 C137.30266,193.277808 137.463157,194.336299 137.792904,195.62515 C138.122652,196.914001 138.720867,198.170776 139.596303,199.39256 C140.471739,200.614344 141.638987,201.66117 143.103884,202.535956 C144.568781,203.413658 146.456805,203.848134 148.776711,203.848134 C150.787296,203.848134 152.733682,203.367002 154.610034,202.407654 C156.492222,201.448306 157.933773,200.136128 158.940525,198.476951 L161.823628,200.903023 Z" id="Shape" fill="#686A6C" fill-rule="nonzero"></path>
                    <path d="M223.136262,202.145218 C221.64802,203.938529 219.964265,205.256539 218.084995,206.107997 C216.205725,206.962371 214.171795,207.3881 211.986123,207.3881 C209.669135,207.3881 207.527234,206.994447 205.560421,206.20714 C203.593608,205.419832 201.909852,204.320519 200.512072,202.897534 C199.111374,201.480381 198.019997,199.797877 197.235023,197.852937 C196.44713,195.910913 196.050266,193.779352 196.050266,191.464086 C196.050266,189.145905 196.44713,187.020176 197.235023,185.078152 C198.019997,183.133212 199.111374,181.450707 200.512072,180.027723 C201.909852,178.61057 203.593608,177.50834 205.560421,176.723949 C207.527234,175.933726 209.669135,175.542989 211.986123,175.542989 C214.215567,175.542989 216.281596,176.003709 218.181293,176.919318 C220.086826,177.837843 221.779336,179.123778 223.267577,180.782954 L220.116007,183.144875 C218.980858,181.876436 217.734821,180.882097 216.377894,180.158941 C215.023886,179.441616 213.55899,179.080038 211.986123,179.080038 C210.150625,179.080038 208.487296,179.409541 207.001973,180.062714 C205.516649,180.718803 204.250185,181.605253 203.20258,182.71623 C202.149138,183.83304 201.352491,185.139387 200.806802,186.646934 C200.261114,188.157397 199.986811,189.76117 199.986811,191.464086 C199.986811,193.167002 200.261114,194.773692 200.806802,196.281239 C201.352491,197.78587 202.149138,199.100965 203.20258,200.211942 C204.250185,201.32292 205.516649,202.209369 207.001973,202.868375 C208.487296,203.521548 210.150625,203.848134 211.986123,203.848134 C213.649452,203.848134 215.166874,203.466145 216.544227,202.702165 C217.92158,201.938186 219.112174,200.923435 220.116007,199.654995 L223.136262,202.145218 Z" id="Path" fill="#686A6C"></path>
                    <path d="M281.16601,198.083297 C281.16601,198.648992 281.189355,199.340073 281.230209,200.147791 C281.27398,200.952594 281.308998,201.774893 281.326507,202.605939 C281.349852,203.434069 281.384869,204.209712 281.428641,204.929953 C281.469494,205.650193 281.492839,206.20714 281.492839,206.600793 L277.559213,206.600793 C277.515441,205.466488 277.483342,204.373006 277.459997,203.326179 C277.436652,202.276436 277.384125,201.599935 277.2995,201.290844 L277.09815,201.290844 C276.313175,202.955853 275.002939,204.381754 273.167441,205.586042 C271.331943,206.784498 269.187124,207.3881 266.738821,207.3881 C264.38098,207.3881 262.443348,207.011942 260.934679,206.27129 C259.426011,205.530639 258.24709,204.559627 257.394999,203.355338 C256.542908,202.156882 255.962202,200.768889 255.655799,199.197191 C255.352314,197.625493 255.197654,196.010055 255.197654,194.347963 L255.197654,176.330296 L259.134199,176.330296 L259.134199,194.149678 C259.134199,195.374378 259.242169,196.564086 259.461028,197.724635 C259.676969,198.879352 260.059243,199.917431 260.604932,200.83304 C261.153538,201.751565 261.918086,202.486385 262.904411,203.028752 C263.887817,203.576951 265.165954,203.848134 266.738821,203.848134 C268.183291,203.848134 269.546053,203.597362 270.838781,203.095819 C272.125672,202.594275 273.243312,201.82738 274.182947,200.800965 C275.122582,199.774549 275.863785,198.488615 276.412391,196.934412 C276.955162,195.383126 277.229465,193.560656 277.229465,191.464086 L277.229465,176.330296 L281.16601,176.330296 L281.16601,198.083297 Z" id="Path" fill="#686A6C"></path>
                    <path d="M318.211552,184.847791 C318.211552,184.279181 318.188207,183.591016 318.150271,182.783297 C318.103582,181.972663 318.068564,181.156196 318.048137,180.32515 C318.02771,179.497019 317.995611,178.721376 317.951839,177.99822 C317.908067,177.27798 317.884722,176.723949 317.884722,176.330296 L321.818349,176.330296 C321.862121,177.467517 321.897138,178.558083 321.917565,179.60491 C321.937992,180.654652 321.993436,181.331153 322.08098,181.634412 C323.087732,179.846934 324.374623,178.383126 325.950408,177.245905 C327.526193,176.111599 329.449235,175.542989 331.719533,175.542989 C332.113479,175.542989 332.498671,175.575064 332.869272,175.642131 C333.242792,175.706282 333.622147,175.782097 334.016094,175.872491 L333.557949,179.736128 C333.032687,179.56117 332.527852,179.473692 332.04928,179.473692 C330.34218,179.473692 328.868529,179.747791 327.622491,180.290158 C326.376454,180.841273 325.349275,181.593589 324.540956,182.552937 C323.732636,183.515201 323.131503,184.640759 322.737557,185.926694 C322.343611,187.215544 322.148097,188.603537 322.148097,190.090673 L322.148097,206.600793 L318.211552,206.600793 L318.211552,184.847791 Z" id="Path" fill="#686A6C"></path>
                    <path d="M388.832991,188.906796 C388.832991,187.559627 388.564524,186.288272 388.015917,185.110227 C387.470228,183.92635 386.729026,182.891188 385.786473,181.993074 C384.846838,181.103709 383.729198,180.389301 382.442306,179.867345 C381.152497,179.342474 379.786817,179.080038 378.345265,179.080038 C376.200446,179.080038 374.420393,179.520347 373.002186,180.389301 C371.578143,181.264086 370.451748,182.27009 369.623002,183.407311 C368.791338,184.541616 368.201877,185.643846 367.851703,186.714001 C367.501528,187.787071 367.326441,188.518975 367.326441,188.906796 L388.832991,188.906796 Z M391.850327,200.903023 C390.321232,203.215373 388.433208,204.877465 386.180419,205.880553 C383.92763,206.88364 381.447227,207.3881 378.736293,207.3881 C376.419305,207.3881 374.321177,206.994447 372.441907,206.20714 C370.562637,205.419832 368.94308,204.320519 367.589072,202.897534 C366.235064,201.480381 365.196213,199.797877 364.475437,197.852937 C363.754662,195.910913 363.392815,193.756025 363.392815,191.399935 C363.392815,189.128409 363.763416,187.031839 364.507537,185.110227 C365.251657,183.185699 366.302181,181.514858 367.656189,180.097706 C369.007279,178.680553 370.606409,177.563743 372.441907,176.753109 C374.277405,175.94539 376.308417,175.542989 378.540779,175.542989 C380.857767,175.542989 382.900451,175.94539 384.674669,176.753109 C386.440132,177.563743 387.928373,178.633898 389.130639,179.966488 C390.332905,181.299078 391.24044,182.818289 391.850327,184.521205 C392.463133,186.221205 392.769535,187.947448 392.769535,189.694103 L392.769535,192.446762 L367.326441,192.446762 C367.326441,193.277808 367.492774,194.336299 367.819604,195.62515 C368.146433,196.914001 368.750484,198.170776 369.623002,199.39256 C370.49552,200.614344 371.665687,201.66117 373.127665,202.535956 C374.592562,203.413658 376.486422,203.848134 378.80341,203.848134 C380.813995,203.848134 382.757463,203.367002 384.639651,202.407654 C386.518921,201.448306 387.960473,200.136128 388.964306,198.476951 L391.850327,200.903023 Z" id="Shape" fill="#686A6C" fill-rule="nonzero"></path>
                    <polygon id="Path" fill="#686A6C" points="428.901706 160.210913 456.702642 160.210913 456.702642 164.141616 433.229279 164.141616 433.229279 180.654652 455.068494 180.654652 455.068494 184.585356 433.229279 184.585356 433.229279 206.600793 428.901706 206.600793"></polygon>
                    <path d="M491.127711,176.330296 L495.061338,176.330296 L495.061338,206.600793 L491.127711,206.600793 L491.127711,176.330296 Z M490.144305,164.336985 C490.144305,163.505939 490.43028,162.809026 490.996396,162.243332 C491.562511,161.674721 492.265778,161.388958 493.094525,161.388958 C493.923271,161.388958 494.62362,161.674721 495.195572,162.243332 C495.761687,162.809026 496.047663,163.505939 496.047663,164.336985 C496.047663,165.170947 495.761687,165.86786 495.195572,166.433555 C494.62362,167.005081 493.923271,167.285013 493.094525,167.285013 C492.265778,167.285013 491.562511,167.005081 490.996396,166.433555 C490.43028,165.86786 490.144305,165.170947 490.144305,164.336985 Z" id="Shape" fill="#686A6C" fill-rule="nonzero"></path>
                    <path d="M532.436628,184.847791 C532.436628,184.279181 532.413283,183.591016 532.372429,182.783297 C532.325739,181.972663 532.29364,181.156196 532.276131,180.32515 C532.249868,179.497019 532.217769,178.721376 532.173997,177.99822 C532.130225,177.27798 532.109798,176.723949 532.109798,176.330296 L536.046343,176.330296 C536.087197,177.467517 536.119296,178.558083 536.142641,179.60491 C536.165986,180.654652 536.215594,181.331153 536.303138,181.634412 C537.309889,179.846934 538.599699,178.383126 540.175484,177.245905 C541.748351,176.111599 543.671392,175.542989 545.944608,175.542989 C546.338555,175.542989 546.720828,175.575064 547.094348,175.642131 C547.464949,175.706282 547.847223,175.782097 548.238251,175.872491 L547.780106,179.736128 C547.254845,179.56117 546.755846,179.473692 546.271438,179.473692 C544.567255,179.473692 543.093604,179.747791 541.847567,180.290158 C540.601529,180.841273 539.574351,181.593589 538.766031,182.552937 C537.954794,183.515201 537.353661,184.640759 536.962633,185.926694 C536.565768,187.215544 536.373173,188.603537 536.373173,190.090673 L536.373173,206.600793 L532.436628,206.600793 L532.436628,184.847791 Z" id="Path" fill="#686A6C"></path>
                    <path d="M580.565192,198.867688 C581.396857,200.486042 582.622467,201.719489 584.239106,202.570947 C585.855745,203.422405 587.559927,203.848134 589.351654,203.848134 C590.183318,203.848134 591.012064,203.716917 591.846647,203.457397 C592.675393,203.194961 593.419514,202.824635 594.073173,202.340587 C594.72975,201.862371 595.266684,201.282097 595.678139,200.605596 C596.09543,199.929095 596.302617,199.153452 596.302617,198.278666 C596.302617,196.881925 595.856145,195.832182 594.957363,195.132354 C594.0615,194.435441 592.958451,193.887242 591.648215,193.499421 C590.33506,193.102851 588.893509,192.764601 587.320642,192.481754 C585.747775,192.19599 584.303305,191.758597 582.99015,191.169575 C581.679914,190.580553 580.573947,189.76117 579.681002,188.714344 C578.785139,187.664601 578.335748,186.177465 578.335748,184.255853 C578.335748,182.774549 578.642151,181.482783 579.254956,180.389301 C579.864843,179.298735 580.667326,178.39479 581.647815,177.671634 C582.631222,176.951393 583.734271,176.417774 584.956964,176.064944 C586.182575,175.717946 587.428612,175.542989 588.697995,175.542989 C591.19007,175.542989 593.340725,176.003709 595.155796,176.919318 C596.967949,177.837843 598.380319,179.278323 599.387071,181.240759 L595.844472,183.337328 C595.100351,181.943503 594.172389,180.882097 593.057667,180.158941 C591.942945,179.441616 590.489721,179.080038 588.697995,179.080038 C587.997646,179.080038 587.262279,179.187929 586.50065,179.409541 C585.736102,179.628237 585.047426,179.931496 584.437538,180.32515 C583.821815,180.718803 583.311144,181.223263 582.893852,181.832697 C582.479479,182.447963 582.269375,183.144875 582.269375,183.92635 C582.269375,185.282268 582.718765,186.288272 583.61171,186.944361 C584.510491,187.60045 585.616459,188.110742 586.926695,188.481067 C588.236931,188.857225 589.681401,189.172148 591.257186,189.434584 C592.827135,189.694103 594.271605,190.119832 595.584759,190.711771 C596.892077,191.300793 597.998045,192.155167 598.893908,193.269061 C599.786853,194.377122 600.236244,195.9634 600.236244,198.01623 C600.236244,199.587929 599.941514,200.952594 599.354971,202.113143 C598.762593,203.270776 597.951355,204.241788 596.927095,205.029095 C595.896998,205.813486 594.72975,206.402508 593.419514,206.796162 C592.106359,207.189815 590.729007,207.3881 589.287455,207.3881 C586.664064,207.3881 584.271205,206.88364 582.10596,205.880553 C579.943632,204.877465 578.268631,203.326179 577.08971,201.229609 L580.565192,198.867688 Z" id="Path" fill="#686A6C"></path>
                    <path d="M649.482448,179.867345 L640.827302,179.867345 L640.827302,199.587929 C640.827302,200.943846 641.197904,201.993589 641.942025,202.737157 C642.686145,203.477808 643.713324,203.848134 645.02356,203.848134 C645.764763,203.848134 646.520556,203.748992 647.288022,203.553623 C648.049651,203.355338 648.782099,203.107483 649.482448,202.798392 L649.809278,206.338357 C649.065157,206.600793 648.215984,206.842817 647.255922,207.058597 C646.292942,207.277294 645.440851,207.3881 644.69673,207.3881 C643.296033,207.3881 642.093767,207.181067 641.092851,206.76117 C640.083182,206.350021 639.274862,205.793074 638.664975,205.093246 C638.05217,204.396333 637.602779,203.576951 637.319721,202.635098 C637.036664,201.699078 636.893676,200.681411 636.893676,199.587929 L636.893676,179.867345 L630.336659,179.867345 L630.336659,176.330296 L636.893676,176.330296 L636.893676,167.614515 L640.827302,167.614515 L640.827302,176.330296 L649.482448,176.330296 L649.482448,179.867345 Z" id="Path" fill="#686A6C"></path>
                    <path d="M1.27738252,134.27352 L718.866604,134.27352" id="Path" stroke="#686A6C" stroke-width="0.5" fill="#686A6C" stroke-linecap="round"></path>
                    <path d="M16.2385873,183.486042 C16.2385873,187.711256 12.8097955,191.1375 8.58143859,191.1375 C4.35308172,191.1375 0.924289913,187.711256 0.924289913,183.486042 C0.924289913,179.260827 4.35308172,175.834584 8.58143859,175.834584 C12.8097955,175.834584 16.2385873,179.260827 16.2385873,183.486042 Z" id="Path" fill="#F36D23"></path>
                    <path d="M719.173007,183.486042 C719.173007,187.711256 715.750051,191.1375 711.521694,191.1375 C707.293337,191.1375 703.864545,187.711256 703.864545,183.486042 C703.864545,179.260827 707.293337,175.834584 711.521694,175.834584 C715.750051,175.834584 719.173007,179.260827 719.173007,183.486042 Z" id="Path" fill="#F36D23"></path>
                    <path d="M731.041003,8.13818583 C731.432032,8.13818583 731.750107,8.10611035 731.995229,8.04487536 C732.240351,7.98072442 732.430029,7.884498 732.573017,7.75328017 C732.710168,7.62789423 732.806466,7.47043282 732.856074,7.28089595 C732.911519,7.09427502 732.937782,6.88141053 732.937782,6.63938651 C732.937782,6.40611035 732.914437,6.19907776 732.873583,6.02412065 C732.826893,5.84624758 732.742268,5.69753402 732.616789,5.5838119 C732.491309,5.46425787 732.316222,5.37969526 732.103199,5.32137622 C731.88434,5.26888908 731.598364,5.23681361 731.254026,5.23681361 L730.045924,5.23681361 L730.045924,8.13818583 L731.041003,8.13818583 Z M731.254026,3.40851173 C732.663479,3.40851173 733.696493,3.6592836 734.35307,4.16665924 C735.006729,4.67111893 735.333559,5.39135907 735.333559,6.33321155 C735.333559,7.00388051 735.158472,7.58998685 734.814133,8.09153059 C734.466877,8.59015838 733.927025,8.95465238 733.197495,9.18209663 C733.366746,9.28415495 733.506815,9.40954089 733.62354,9.55825444 C733.737347,9.70405204 733.851154,9.8760932 733.956206,10.071462 L736.001809,13.5385289 L733.684821,13.5385289 C733.346319,13.5385289 733.107033,13.4160589 732.969881,13.165287 L731.344488,10.193932 C731.271535,10.0889577 731.183991,10.010227 731.090611,9.95190795 C730.994313,9.89650487 730.854244,9.86734535 730.667484,9.86734535 L730.045924,9.86734535 L730.045924,13.5385289 L727.618048,13.5385289 L727.618048,3.40851173 L731.254026,3.40851173 Z M731.303634,15.4922167 C731.936866,15.4922167 732.55259,15.4076541 733.144968,15.2443608 C733.731511,15.0781515 734.277199,14.8448754 734.78787,14.5445323 C735.295623,14.2412733 735.756686,13.8826112 736.176896,13.4568822 C736.591269,13.0369851 736.950198,12.5675169 737.244928,12.0484774 C737.53674,11.526522 737.767272,10.9695752 737.927768,10.3776369 C738.091183,9.78278274 738.169972,9.15585306 738.169972,8.49976387 C738.169972,7.84950658 738.091183,7.21966095 737.927768,6.6160589 C737.767272,6.01537279 737.53674,5.44967811 737.244928,4.9277227 C736.950198,4.4057673 736.591269,3.93046713 736.176896,3.50473814 C735.756686,3.07900915 735.295623,2.71451516 734.78787,2.4083402 C734.277199,2.10508119 733.731511,1.86888908 733.144968,1.70267982 C732.55259,1.53938651 731.936866,1.4548239 731.303634,1.4548239 C730.655811,1.4548239 730.051761,1.53938651 729.471054,1.70267982 C728.890348,1.86888908 728.347578,2.10508119 727.842743,2.4083402 C727.33499,2.71451516 726.879763,3.07900915 726.46539,3.50473814 C726.059771,3.93046713 725.706679,4.4057673 725.409031,4.9277227 C725.120137,5.44967811 724.892523,6.01537279 724.732027,6.6160589 C724.577366,7.21966095 724.498577,7.84950658 724.498577,8.49976387 C724.498577,9.47952373 724.673664,10.3951327 725.02092,11.2465906 C725.371095,12.0980486 725.855503,12.8357845 726.462472,13.4627141 C727.069441,14.0925598 727.796053,14.5882716 728.618963,14.9498496 C729.44771,15.3114277 730.340654,15.4922167 731.303634,15.4922167 Z M731.303634,0.157225277 C732.065264,0.157225277 732.806466,0.256367644 733.521406,0.454652378 C734.233427,0.655853064 734.892923,0.935784454 735.511564,1.2973625 C736.133124,1.66185649 736.693403,2.09341739 737.204074,2.60370898 C737.714745,3.11108463 738.149545,3.6709474 738.508474,4.28912922 C738.870321,4.90731104 739.153379,5.57214809 739.351811,6.28364037 C739.553161,6.99513265 739.652378,7.73578445 739.652378,8.49976387 C739.652378,9.26374329 739.553161,9.99856318 739.351811,10.7100555 C739.153379,11.4186318 738.870321,12.0834688 738.508474,12.6958188 C738.149545,13.3110846 737.714745,13.8709474 737.204074,14.381239 C736.693403,14.8886146 736.133124,15.3230915 735.511564,15.6817536 C734.892923,16.0433316 734.233427,16.326179 733.521406,16.5244637 C732.806466,16.7256644 732.065264,16.8248068 731.303634,16.8248068 C730.530332,16.8248068 729.792048,16.7256644 729.082944,16.5244637 C728.376759,16.326179 727.717264,16.0433316 727.101541,15.6817536 C726.488735,15.3230915 725.925538,14.8886146 725.420703,14.381239 C724.907114,13.8709474 724.475232,13.3110846 724.113385,12.6958188 C723.74862,12.0834688 723.471398,11.4215477 723.272966,10.7158874 C723.071616,10.007311 722.969482,9.26957519 722.969482,8.49976387 C722.969482,7.73578445 723.071616,6.99513265 723.272966,6.28364037 C723.471398,5.57214809 723.74862,4.90731104 724.113385,4.28912922 C724.475232,3.6709474 724.907114,3.11108463 725.420703,2.60370898 C725.925538,2.09341739 726.488735,1.66185649 727.101541,1.2973625 C727.717264,0.935784454 728.376759,0.655853064 729.082944,0.454652378 C729.792048,0.256367644 730.530332,0.157225277 731.303634,0.157225277 Z" id="Shape" fill="#686A6C" fill-rule="nonzero"></path>
                </g>
                <path d="M808.5,4.26325641e-14 L808.5,240" id="Path-4" stroke="#9B9B9B" fill-rule="nonzero"></path>
            </g>
        </g>
    </g>
</svg>