<?xml version="1.0" encoding="UTF-8"?>
<svg width="1428px" height="372px" viewBox="0 0 1428 372" version="1.1" xmlns="http://www.w3.org/2000/svg" xmlns:xlink="http://www.w3.org/1999/xlink">
    <!-- Generator: Sketch 52.5 (67469) - http://www.bohemiancoding.com/sketch -->
    <title>Group</title>
    <desc>Created with Sketch.</desc>
    <g id="Page-1" stroke="none" stroke-width="1" fill="none" fill-rule="evenodd">
        <g id="Group">
            <g transform="translate(1283.899111, 160.991099)" fill="#9D9DA0" id="Path">
                <path d="M4.30069144,4.05557361 C4.20982634,3.84136416 4.08001907,3.64662829 3.87881779,3.54276916 C4.08001907,3.64662829 4.20982634,3.84136416 4.30069144,4.05557361 Z"></path>
            </g>
            <g transform="translate(1269.918383, 203.429467)" fill="#9D9DA0" id="Path">
                <path d="M0.932676548,15.6823724 C0.699023448,16.500263 0.51729326,17.3700832 0.374505254,18.2658682 C0.510802896,17.3700832 0.705513812,16.5067542 0.932676548,15.6823724 C2.21127823,14.6113252 3.48338955,13.5337867 4.46992486,12.4627395 C5.49540235,11.5085337 6.65717749,5.44575712 7.29972351,0.720166806 C6.65717749,5.44575712 5.49540235,11.5085337 4.46992486,12.4627395 C3.48338955,13.5337867 2.21127823,14.6113252 0.932676548,15.6823724 Z"></path>
            </g>
            <g transform="translate(1281.899111, 155.499903)" fill="#9D9DA0" id="Path">
                <path d="M4.47040882,0.621375297 C4.39901482,1.9131232 3.67858443,5.60012224 3.15935532,8.30045957 C3.67858443,5.60012224 4.39901482,1.9131232 4.47040882,0.621375297 L4.47040882,0.608392906 C4.47040882,0.575936928 4.47040882,0.543480951 4.47040882,0.517516169 L4.47040882,0.621375297 Z"></path>
            </g>
            <g transform="translate(1281.899111, 239.885445)" fill="#9D9DA0" id="Path">
                <path d="M32.8917123,13.0909618 C32.904693,13.1039442 32.9241641,13.1104354 32.9436352,13.1169266 C32.9241641,13.1104354 32.9111833,13.097453 32.8917123,13.0909618 C25.9340422,9.44290997 14.4655692,8.02133816 1.36801489,3.47101012 C1.38099562,3.39960697 0.874747236,2.22470058 0.245181939,0.835584748 C0.868256872,2.22470058 1.38099562,3.39960697 1.36801489,3.47101012 C14.4655692,8.02133816 25.9340422,9.44290997 32.8917123,13.0909618 Z"></path>
            </g>
            <g transform="translate(1280.899111, 162.991099)" fill="#9D9DA0" id="Path">
                <path d="M4.04252877,3.41223346 C3.85430822,3.61995172 3.70502985,3.7887228 3.62714548,3.86661715 C3.69853949,3.7887228 3.85430822,3.62644292 4.04252877,3.41223346 Z"></path>
            </g>
            <g transform="translate(1281.899111, 161.991099)" fill="#9D9DA0" id="Path">
                <path d="M4.79492702,2.60768112 C5.00261866,2.4843484 5.20381994,2.42592764 5.38555013,2.41943645 C5.19732958,2.42592764 5.00261866,2.4843484 4.79492702,2.60768112 C4.5288221,2.76996101 3.60719043,3.7825875 3.04252877,4.41223346 C3.60719043,3.7825875 4.5288221,2.76996101 4.79492702,2.60768112 Z"></path>
            </g>
            <g transform="translate(1266.918383, 221.411858)" fill="#9D9DA0" id="Path">
                <path d="M3.80286927,9.94237613 C2.94614124,6.45660415 2.90070869,3.26293597 3.34205343,0.419792343 C2.90070869,3.25644477 2.94614124,6.45660415 3.80286927,9.94237613 Z"></path>
            </g>
            <g transform="translate(1282.899111, 177.464685)" fill="#9D9DA0" id="Path">
                <path d="M5.95621819,0.759113979 C5.35910471,4.71874323 3.64564865,8.34083031 1.60767439,11.8980054 C3.64564865,8.34083031 5.35910471,4.71874323 5.95621819,0.759113979 Z"></path>
            </g>
            <g transform="translate(1238.466564, 103.570339)" fill="#9D9DA0" id="Path">
                <path d="M3.99564434,3.33469501 C3.96319252,3.33469501 3.9307407,3.33469501 3.89828888,3.33469501 C3.9307407,3.33469501 3.96319252,3.33469501 3.99564434,3.33469501 Z"></path>
            </g>
            <g transform="translate(1270.918383, 228.394249)" fill="#9D9DA0" id="Path">
                <path d="M3.48939595,3.38840405 C3.85285633,3.46629839 4.17088416,3.55717513 4.48891199,3.65454306 C4.17088416,3.55717513 3.85285633,3.46629839 3.48939595,3.38840405 Z"></path>
            </g>
            <g transform="translate(1272.408747, 228.394249)" fill="#9D9DA0" id="Path">
                <path d="M3.36849885,3.75191099 C3.58268086,3.82331415 3.76441105,3.92717327 3.96561233,4.01805001 C3.76441105,3.92717327 3.58268086,3.82331415 3.36849885,3.75191099 Z"></path>
            </g>
            <g transform="translate(1274.408747, 229.394249)" fill="#9D9DA0" id="Path">
                <path d="M3.45839602,3.94629097 C3.52979002,4.00471173 3.59469366,4.09558846 3.6595973,4.15400922 C3.59469366,4.09558846 3.52979002,4.00471173 3.45839602,3.94629097 Z"></path>
            </g>
            <g transform="translate(1273.408747, 229.394249)" fill="#9D9DA0" id="Path">
                <path d="M3.50431253,3.25822424 C3.56921617,3.30366261 3.62762945,3.35559218 3.69902345,3.40103054 C3.62762945,3.35559218 3.56921617,3.30366261 3.50431253,3.25822424 Z"></path>
            </g>
            <g transform="translate(1268.918383, 227.903054)" fill="#9D9DA0" id="Path">
                <path d="M3.8278628,3.62644292 C3.95767008,3.6459165 4.0615159,3.66539009 4.19132318,3.68486368 C4.0615159,3.66539009 3.95767008,3.6459165 3.8278628,3.62644292 Z"></path>
            </g>
            <g transform="translate(1281.899111, 137.026317)" fill="#9D9DA0" id="Path">
                <path d="M4.4574281,12.8634141 C4.46391846,10.8381611 4.50286064,8.81939931 4.43795701,6.80063751 C4.35358227,4.24310649 3.73050734,1.75048742 3.30214333,0.393827561 C3.73050734,1.75048742 4.35358227,4.24310649 4.43795701,6.80063751 C4.50286064,8.81939931 4.46391846,10.8381611 4.4574281,12.8634141 Z"></path>
            </g>
            <g transform="translate(1258.937655, 109.061535)" fill="#9D9DA0" id="Path">
                <path d="M3.21631671,1.60839291 C6.51342156,3.03645591 9.38865276,4.99030576 11.8679718,7.13889147 C9.38865276,4.99030576 6.51342156,3.03645591 3.21631671,1.60839291 C2.34660795,1.16050042 1.49637028,0.835940642 0.685074795,0.634713582 C0.594209701,0.6087488 0.393008421,0.556819236 0.237239688,0.511380868 C0.393008421,0.556819236 0.594209701,0.6087488 0.685074795,0.634713582 C1.49637028,0.835940642 2.34660795,1.16050042 3.21631671,1.60839291 Z"></path>
            </g>
            <g transform="translate(1165.072561, 106.061535)" fill="#9D9DA0" id="Path">
                <path d="M77.2208975,182.804692 L77.0002252,0.84349952 C70.3281311,0.895429084 61.3779193,3.21927707 59.8397031,3.63471358 C59.4957138,3.71909912 59.1517245,3.82944945 58.8077352,3.95278216 C45.8659496,8.20451521 36.8573246,24.4389951 36.1433846,25.7112695 C35.2996372,27.223718 34.5856972,28.8270433 33.8587765,30.410895 C33.5602197,31.0665057 32.4958001,34.3575419 32.3854639,37.7654195 C32.2556566,41.8029431 32.3270506,45.8469579 32.3465217,49.8909727 C32.3465217,49.936411 32.353012,49.9883406 32.353012,50.0402702 L32.353012,50.0467614 C32.4633482,52.1109615 34.2352176,60.3353062 34.1962754,60.7961811 C33.904209,60.4846037 32.3789735,58.7514545 32.0284939,58.5372451 C31.210708,58.0439142 30.4837873,58.5826834 30.4059029,59.3226797 C30.1008558,62.2307353 29.8217701,65.1452821 29.659511,68.06632 C29.3609543,73.7071689 31.5027744,78.5496008 34.2157465,83.3011559 C35.3580505,85.3004441 35.9616544,87.754116 36.7210269,90.0000696 C36.9676608,90.7270835 37.2078042,91.4865534 37.5842453,92.1421641 C38.1553974,93.1288258 39.1289519,93.3495265 40.1868813,93.4209296 C40.4984187,93.4468944 41.0241382,93.8168926 41.0436093,94.063558 C41.3616371,98.1919583 42.9842281,107.493841 44.2173972,108.928396 C44.8534529,109.681374 46.8914271,111.94031 47.7416648,112.712763 C49.2279581,117.048881 49.3123329,120.852722 48.2479132,125.2927 C42.3481724,125.708136 40.5178898,126.526027 38.3241468,130.771269 C37.3960248,132.582312 35.3515602,137.255973 35.3969927,137.587024 C22.630447,142.02051 11.518944,143.325241 4.6716101,146.914872 C3.25671078,147.654868 1.93916691,148.42732 0.673545955,149.232228 C19.4891108,169.835283 46.4825342,182.843639 76.5848419,182.843639 C76.7990239,182.843639 77.0002252,182.811183 77.2208975,182.804692 Z"></path>
            </g>
            <g transform="translate(1238.466564, 103.570339)" fill="#9D9DA0" id="Path">
                <path d="M3.80742378,3.33469501 C3.7684816,3.33469501 3.72953942,3.33469501 3.69059723,3.33469501 C3.72953942,3.33469501 3.7684816,3.33469501 3.80742378,3.33469501 Z"></path>
            </g>
            <g transform="translate(1272.408747, 228.394249)" fill="#65666C" id="Path">
                <path d="M3.96561233,4.01805001 C4.14085215,4.09594436 4.33556307,4.16734751 4.50431253,4.25822424 C4.33556307,4.16734751 4.14085215,4.09594436 3.96561233,4.01805001 Z"></path>
            </g>
            <g transform="translate(1273.408747, 229.394249)" fill="#65666C" id="Path">
                <path d="M3.69902345,3.40103054 C3.96512837,3.56980163 4.22474292,3.73857271 4.45839602,3.94629097 C4.22474292,3.73857271 3.96512837,3.56980163 3.69902345,3.40103054 Z"></path>
            </g>
            <g transform="translate(1277.408747, 234.885445)" fill="#65666C" id="Path">
                <path d="M2.89228248,1.94735865 C3.24276213,2.62893417 3.74901051,3.69349024 4.24876853,4.77102869 C3.74901051,3.69349024 3.24276213,2.62893417 2.89228248,1.94735865 Z"></path>
            </g>
            <g transform="translate(1275.408747, 231.394249)" fill="#65666C" id="Path">
                <path d="M2.6595973,2.15400922 C3.4514217,2.93944388 4.1329099,3.97154396 4.89228248,5.43855414 C4.13940027,3.97154396 3.4514217,2.93944388 2.6595973,2.15400922 Z"></path>
            </g>
            <g transform="translate(1282.899111, 149.008708)" fill="#65666C" id="Path">
                <path d="M3.47040882,7.00871166 C3.47040882,6.98274688 3.47040882,6.96327329 3.47040882,6.94379971 C3.48987992,4.92503791 3.45093773,2.89978491 3.4574281,0.881023117 C3.45093773,2.89978491 3.48987992,4.92503791 3.47040882,6.94379971 C3.47040882,6.96327329 3.47040882,6.98274688 3.47040882,7.00871166 Z"></path>
            </g>
            <g transform="translate(1283.899111, 160.991099)" fill="#65666C" id="Path">
                <path d="M3.38555013,3.41943645 C3.56728032,3.41294525 3.73602978,3.45838362 3.87881779,3.54276916 C3.73602978,3.45838362 3.56728032,3.41294525 3.38555013,3.41943645 Z"></path>
            </g>
            <g transform="translate(1238.466564, 103.570339)" fill="#65666C" id="Path">
                <path d="M3.6062225,3.33469501 L3.69059723,3.33469501 L3.6062225,3.33469501 Z"></path>
            </g>
            <g transform="translate(1312.350930, 249.867835)" fill="#65666C" id="Path">
                <path d="M5.78243025,4.79628168 C5.78892062,4.78979049 5.78892062,4.78329929 5.79541098,4.77680809 C4.74397203,4.27698604 3.64061017,3.73172562 2.49181577,3.13453563 C3.63411981,3.73172562 4.73099131,4.27698604 5.78243025,4.79628168 Z"></path>
            </g>
            <g transform="translate(1269.918383, 228.394249)" fill="#65666C" id="Path">
                <path d="M3.19132318,3.19366818 C3.64564865,3.25208894 4.09348376,3.3105097 4.48939595,3.38840405 C4.09348376,3.3105097 3.64564865,3.25208894 3.19132318,3.19366818 Z"></path>
            </g>
            <g transform="translate(1266.918383, 218.411858)" fill="#65666C" id="Path">
                <path d="M3.37450525,3.28347724 C3.36152453,3.32891561 3.3485438,3.37435397 3.34205343,3.41979234 C3.3485438,3.37435397 3.36152453,3.32891561 3.37450525,3.28347724 Z"></path>
            </g>
            <g transform="translate(1271.918383, 228.394249)" fill="#65666C" id="Path">
                <path d="M3.48891199,3.65454306 C3.60573854,3.69349024 3.74203618,3.71296382 3.85886273,3.75191099 C3.74203618,3.71296382 3.60573854,3.69349024 3.48891199,3.65454306 Z"></path>
            </g>
            <g transform="translate(1275.408747, 196.938272)" fill="#65666C" id="Path">
                <path d="M2.27017547,3.18682109 C2.23123329,3.69962554 2.16632965,4.31628911 2.08844528,4.99786464 C2.16632965,4.31628911 2.23123329,3.69962554 2.27017547,3.18682109 C2.28964656,2.94015566 2.81536604,2.57015752 3.1269035,2.54419274 C3.65262298,2.51173676 4.16536172,2.44033361 4.60670647,2.25208894 C4.16536172,2.44033361 3.65262298,2.51173676 3.1269035,2.54419274 C2.81536604,2.57015752 2.28964656,2.94015566 2.27017547,3.18682109 Z"></path>
            </g>
            <g transform="translate(1278.899111, 188.955881)" fill="#65666C" id="Path">
                <path d="M2.23917554,9.24781821 C1.95359953,9.73465787 1.56417769,10.0397441 1.11634259,10.2344799 C1.56417769,10.0397441 1.95359953,9.73465787 2.23917554,9.24781821 C2.62210701,8.59220747 2.85576011,7.8327376 3.10239393,7.1057237 C3.86176651,4.85977006 4.46537035,2.40609816 5.60767439,0.406809952 C4.46537035,2.40609816 3.86176651,4.85977006 3.10239393,7.1057237 C2.85576011,7.8327376 2.62210701,8.59220747 2.23917554,9.24781821 Z"></path>
            </g>
            <g transform="translate(1285.389475, 164.482294)" fill="#65666C" id="Path">
                <path d="M3.67354596,9.64556061 C3.74493996,11.0606412 3.67354596,12.4173011 3.46585431,13.741505 C3.67354596,12.4173011 3.74493996,11.0606412 3.67354596,9.64556061 C3.51128686,6.72452264 3.23220121,3.80997586 2.92066375,0.901920279 C2.90768302,0.778587565 2.86225047,0.668237242 2.81032756,0.564378114 C2.86225047,0.668237242 2.90768302,0.778587565 2.92066375,0.901920279 C3.23220121,3.80997586 3.51128686,6.72452264 3.67354596,9.64556061 Z"></path>
            </g>
            <g transform="translate(1241.956928, 104.570339)" fill="#65666C" id="Path">
                <path d="M17.2179674,5.00257636 C14.9528305,4.34047442 6.76199124,2.38662458 0.505280457,2.33469501 C6.76199124,2.38662458 14.9528305,4.34047442 17.2179674,5.00257636 Z"></path>
            </g>
            <g transform="translate(1267.918383, 227.903054)" fill="#65666C" id="Path">
                <path d="M4.8278628,3.62644292 C4.21127823,3.55503977 3.54277075,3.49661901 2.80286927,3.45118064 C3.54926112,3.49661901 4.21127823,3.55503977 4.8278628,3.62644292 Z"></path>
            </g>
            <g transform="translate(1280.899111, 161.991099)" fill="#65666C" id="Path">
                <path d="M3.62714548,4.86661715 C3.60767439,4.69135487 3.85430822,3.43206295 4.15935532,1.80926407 C3.85430822,3.43206295 3.60767439,4.69784607 3.62714548,4.86661715 Z"></path>
            </g>
            <g transform="translate(1238.466564, 103.570339)" fill="#65666C" id="Path">
                <path d="M3.89828888,3.33469501 L3.80742378,3.33469501 L3.89828888,3.33469501 Z"></path>
            </g>
            <g transform="translate(1269.918383, 115.552730)" fill="#65666C" id="Path">
                <path d="M12.6607641,16.220074 C13.5045114,17.7325225 14.2184514,19.3358478 14.9388818,20.9196995 C15.0167662,21.0884706 15.1400831,21.4130304 15.2828711,21.867414 C15.1400831,21.4130304 15.0167662,21.0884706 14.9388818,20.9196995 C14.2184514,19.3358478 13.5045114,17.7325225 12.6607641,16.220074 C12.141535,15.291833 8.32520101,7.09994429 0.887244001,0.647695973 C8.32520101,7.09994429 12.141535,15.291833 12.6607641,16.220074 Z"></path>
            </g>
            <g transform="translate(1266.918383, 227.903054)" fill="#65666C" id="Path">
                <path d="M3.78988854,3.44468944 C3.80935963,3.53556618 3.82883073,3.61995172 3.84830182,3.71082846 L3.84830182,3.70433726 C3.82883073,3.61346053 3.80935963,3.52907498 3.78988854,3.44468944 Z"></path>
            </g>
            <g transform="translate(1266.918383, 227.903054)" fill="#65666C" id="Path">
                <path d="M3.78988854,3.44468944 C3.80935963,3.52907498 3.82883073,3.61346053 3.84830182,3.69784607 C3.83532109,3.6459165 3.82883073,3.60047813 3.82234036,3.54854857 C3.80935963,3.5096014 3.80935963,3.47714542 3.80286927,3.45118064 L3.78988854,3.44468944 Z"></path>
            </g>
            <g transform="translate(1266.918383, 227.903054)" fill="#65666C" id="Path">
                <path d="M3.82234036,3.54854857 C3.81585,3.51609259 3.80935963,3.47714542 3.80286927,3.45118064 C3.80935963,3.47714542 3.80935963,3.5096014 3.82234036,3.54854857 Z"></path>
            </g>
            <g transform="translate(1266.918383, 227.903054)" fill="#65666C" id="Path">
                <path d="M3.84830182,3.71082846 C3.83532109,3.6524077 3.83532109,3.60047813 3.82234036,3.54854857 C3.82883073,3.60047813 3.83532109,3.6459165 3.84830182,3.69784607 C3.84830182,3.69784607 3.84830182,3.70433726 3.84830182,3.71082846 Z"></path>
            </g>
            <g transform="translate(1266.918383, 227.903054)" fill="#65666C" id="Path">
                <path d="M3.80286927,3.45118064 L3.78988854,3.44468944 L3.80286927,3.45118064 Z"></path>
            </g>
            <g transform="translate(1241.956928, 106.061535)" fill="#65666C" id="Path">
                <path d="M0.336530996,182.804692 C30.4777809,182.622938 57.4712042,169.426338 76.1764329,148.602583 C75.124994,148.083287 74.0281225,147.538026 72.8858184,146.940836 C72.8663473,146.934345 72.8468763,146.927854 72.8338955,146.914872 C65.8762254,143.26682 54.4077525,141.845248 41.3101982,137.29492 C41.3231789,137.223517 40.8104401,136.04861 40.1873652,134.659495 C40.0315965,134.30897 39.862847,133.951954 39.7005879,133.594939 C39.2008299,132.5174 38.6945815,131.452844 38.3441019,130.771269 C37.5847293,129.304258 36.9032411,128.272158 36.1114167,127.486724 C36.0465131,127.428303 35.9816094,127.337426 35.9102154,127.279005 C35.6765623,127.071287 35.4169478,126.902516 35.1508428,126.733745 C35.0794488,126.688307 35.0210356,126.636377 34.9561319,126.590939 C34.7873825,126.500062 34.5926715,126.428659 34.4174317,126.350764 C34.2162304,126.259888 34.0345003,126.156029 33.8203182,126.084625 C33.7034917,126.045678 33.5671941,126.026205 33.4503675,125.987257 C33.1323397,125.889889 32.8143118,125.799013 32.4508515,125.721118 C32.0549393,125.643224 31.6071042,125.584803 31.1527787,125.526383 C31.0229714,125.506909 30.9191256,125.487435 30.7893183,125.467962 C30.1727337,125.396559 29.5107166,125.338138 28.7643248,125.2927 C28.7708151,125.318664 28.7773055,125.357611 28.7837959,125.390067 C28.7967766,125.441997 28.7967766,125.493927 28.8097573,125.552347 L28.8097573,125.545856 L28.8097573,125.552347 C28.7902862,125.461471 28.7708151,125.377085 28.7513441,125.286208 L28.7643248,125.2927 C27.9075968,121.806928 27.8621642,118.606768 28.303509,115.770116 C28.3099993,115.724677 28.32298,115.679239 28.3359608,115.633801 C28.4787488,114.738016 28.660479,113.868195 28.8941321,113.050305 C30.1727337,111.979258 31.4448451,110.901719 32.4313804,109.830672 C33.4568579,108.876466 34.618633,102.81369 35.261179,98.0880992 C35.3715152,97.3026645 35.4688707,96.5561771 35.5402647,95.8746015 C35.618149,95.193026 35.6830527,94.5763624 35.7219949,94.063558 C35.741466,93.8168926 36.2671854,93.4468944 36.5787229,93.4209296 C37.1044424,93.3884737 37.6171811,93.3170705 38.0585259,93.1288258 C38.506361,92.93409 38.8957828,92.6290038 39.1813588,92.1421641 C39.5642903,91.4865534 39.7979434,90.7270835 40.0445772,90.0000696 C40.8039498,87.754116 41.4075536,85.3004441 42.5498577,83.3011559 C44.5878319,79.7439807 46.301288,76.1218937 46.8984015,72.1622644 C47.1060931,70.8380605 47.1774871,69.4814007 47.1060931,68.06632 C46.943834,65.1452821 46.6647484,62.2307353 46.3532109,59.3226797 C46.3402302,59.199347 46.2947976,59.0889967 46.2428747,58.9851376 C46.1520096,58.7709281 46.0222023,58.5761922 45.8210011,58.4723331 C45.6782131,58.3879476 45.5094636,58.3425092 45.3277334,58.3490004 C45.1460032,58.3554916 44.9448019,58.4139123 44.7371103,58.5372451 C44.4710054,58.6995249 43.5493737,59.7121514 42.984712,60.3417974 C42.7964915,60.5560069 42.6407228,60.7182867 42.5693288,60.7961811 C42.5498577,60.62741 42.7964915,59.3616269 43.1015386,57.738828 C43.6207677,55.0384907 44.3411981,51.3514917 44.4125921,50.0597437 L44.4125921,50.0467614 L44.4125921,49.8909727 C44.4320632,47.8722109 44.393121,45.8469579 44.3996114,43.8281961 C44.4061017,41.8029431 44.4450439,39.7841813 44.3801403,37.7654195 C44.2957655,35.2078885 43.6726906,32.7152694 43.2443266,31.3586095 C43.1015386,30.9042258 42.9782217,30.5796661 42.9003373,30.410895 C42.1799069,28.8270433 41.4659669,27.223718 40.6222196,25.7112695 C40.1029905,24.7830285 36.2866565,16.5911398 28.8486995,10.1388915 C26.3693805,7.99030576 23.4941493,6.03645591 20.1970445,4.60839291 C19.3273357,4.16050042 18.477098,3.83594064 17.6658026,3.63471358 C17.5749375,3.6087488 17.3737362,3.55681924 17.2179674,3.51138087 C14.9528305,2.84927893 6.76199124,0.895429084 0.505280457,0.84349952 C0.472828638,0.84349952 0.440376818,0.84349952 0.407924999,0.84349952 L0.317059905,0.84349952 C0.278117721,0.84349952 0.239175538,0.84349952 0.200233355,0.84349952 L0.115858625,0.84349952 L0.336530996,182.804692 Z"></path>
            </g>
            <g transform="translate(1314.350930, 250.867835)" fill="#65666C" id="Path">
                <path d="M3.79541098,3.77680809 C3.78892062,3.78329929 3.78892062,3.78979049 3.78243025,3.79628168"></path>
            </g>
            <g transform="translate(1055.736375, 0.711211)" fill="#F36D24" fill-rule="nonzero" id="Shape">
                <path d="M262.396985,253.952906 C243.691757,274.776661 216.698333,287.973261 186.557083,288.155015 C186.336411,288.161506 186.13521,288.193962 185.921028,288.193962 C155.81872,288.193962 128.825297,275.185606 110.009732,254.582552 C93.3035353,236.290363 83.0292893,212.013292 83.0292893,185.28904 C83.0292893,128.458623 129.091402,82.390609 185.921028,82.390609 C242.744164,82.390609 288.799786,128.458623 288.799786,185.28904 C288.799786,211.708206 278.772173,235.719138 262.409966,253.933432 L262.396985,253.952906 Z M343.143602,197.077051 L371.610338,185.28904 L369.539912,157.617074 L339.625825,150.204128 L332.681136,127.67968 L353.223138,104.707339 L339.35323,80.6704422 L309.179528,86.9798842 L293.15482,69.7003218 L301.702629,40.087488 L278.765683,24.4501981 L254.322973,43.2292266 L232.392033,34.6154102 L227.238684,4.2236329 L199.797426,0.0887413724 L185.921028,27.6114103 L162.41942,29.3705242 L144.596881,4.2236329 L118.077254,12.4090304 L117.512593,43.2292266 L97.1003981,55.0107464 L70.1329362,40.087488 L49.7921358,58.9703757 L62.656037,86.9798842 L49.3832429,106.453471 L18.6124278,104.707339 L8.46798901,130.548788 L32.2097401,150.204128 L28.6919629,173.50752 L0.225226885,185.28904 L2.29565296,212.973989 L32.2097401,220.380443 L39.1544294,242.8984 L18.6124278,265.870741 L32.4823354,289.907638 L62.656037,283.604687 L78.6742551,300.884249 L70.1329362,330.490592 L93.0698822,346.134373 L117.512593,327.355345 L139.450022,335.969161 L144.596881,366.360938 L172.038139,370.489339 L185.921028,342.973161 L209.416145,341.214047 L227.238684,366.360938 L253.758311,358.175541 L254.322973,327.355345 L274.728677,315.573825 L301.702629,330.490592 L322.043429,311.614195 L309.179528,283.604687 L322.458813,264.1311 L353.223138,265.870741 L363.367576,240.035783 L339.625825,220.380443 L343.143602,197.077051 Z"></path>
            </g>
            <g transform="translate(980.342372, 11.693602)" id="Path" stroke="#686A6C" stroke-width="0.567629569">
                <path d="M3.69301705,0.991729334 L3.69301705,336.87864"></path>
            </g>
            <g transform="translate(90.672157, 50.640775)" fill="#686A6C" fill-rule="nonzero" id="Shape">
                <path d="M51.7317867,10.0729118 C44.4625792,10.0729118 37.5763031,11.9618497 31.0729585,15.7527079 C24.5631235,19.5370749 19.4811686,24.6391545 15.8206034,31.0524557 C12.1665285,37.4657568 10.3362459,44.6190542 10.3362459,52.4993656 C10.3362459,64.1705351 14.3862329,74.0241698 22.4732263,82.066761 C30.5667101,90.1158435 40.3152366,94.1338935 51.7317867,94.1338935 C59.3514739,94.1338935 66.4064994,92.2839027 72.8903729,88.5839213 C79.3742465,84.8904311 84.4367303,79.8337898 88.0713341,73.4139974 C91.6994475,67.0006963 93.5232397,59.8733637 93.5232397,52.0319995 C93.5232397,44.2360737 91.6994475,37.1866354 88.0713341,30.8836846 C84.4367303,24.5807338 79.3223236,19.5370749 72.7281139,15.7527079 C66.1274138,11.9618497 59.1308015,10.0729118 51.7317867,10.0729118 Z M51.2969323,0.524363259 C66.1728463,0.524363259 78.6213643,5.49012781 88.6359957,15.4086745 C98.6571175,25.3402036 103.667678,37.5566335 103.667678,52.0644555 C103.667678,66.4424535 98.6700983,78.6394098 88.6684475,88.6553245 C78.6732872,98.6712391 66.4843838,103.675951 52.0952471,103.675951 C37.5373609,103.675951 25.2381213,98.6907127 15.2234899,88.7202364 C5.20236805,78.7497601 0.19180714,66.6891189 0.19180714,52.5383127 C0.19180714,43.0936233 2.46992486,34.349983 7.03914103,26.2944094 C11.6083572,18.2388358 17.8261258,11.9293937 25.7054275,7.36608331 C33.5912197,2.80277288 42.1195578,0.524363259 51.2969323,0.524363259 Z"></path>
            </g>
            <g transform="translate(220.479435, 50.640775)" fill="#686A6C" id="Path">
                <polygon points="0.477383151 104.474368 0.477383151 0.173838702 2.74252014 0.173838702 72.1634522 80.1258936 72.1634522 0.173838702 82.4441886 0.173838702 82.4441886 104.474368 80.0946769 104.474368 11.2578776 25.4959923 11.2578776 104.474368"></polygon>
            </g>
            <g transform="translate(330.815621, 50.640775)" fill="#686A6C" id="Rectangle">
                <rect x="0.367046965" y="0.121909138" width="9.75501691" height="104.157723"></rect>
            </g>
            <g transform="translate(744.198909, 50.640775)" fill="#686A6C" id="Path">
                <polygon points="0.932676548 0.180329897 20.6374213 0.180329897 20.6374213 84.9293783 59.9300842 84.9293783 59.9300842 103.721389 0.932676548 103.721389"></polygon>
            </g>
            <g transform="translate(824.573639, 50.640775)" fill="#686A6C" id="Path">
                <polygon points="0.486777291 0.180329897 20.1980124 0.180329897 20.1980124 84.9293783 59.484185 84.9293783 59.484185 103.721389 0.486777291 103.721389"></polygon>
            </g>
            <g transform="translate(639.353087, 50.640775)" fill="#686A6C" id="Path">
                <path d="M34.7998792,27.6315956 L48.5334892,62.9761551 C55.3808231,63.2293117 62.5267137,63.6836954 69.2507307,64.2224646 L44.6717227,0.180329897 L24.6878923,0.180329897 L0.232201212,65.5985981 C6.62520963,64.4107093 13.5893701,63.6058011 20.9169909,63.170891 L34.7998792,27.6315956 Z"></path>
            </g>
            <g transform="translate(692.275998, 122.043926)" fill="#686A6C" id="Path">
                <path d="M0.445899257,4.87346424 L11.0836057,32.525957 L31.5671941,32.525957 L19.3004063,0.569801627 C13.4201367,1.7641816 7.00116677,3.19224461 0.445899257,4.87346424 Z"></path>
            </g>
            <g transform="translate(659.824178, 110.061535)" fill="#F36D24" id="Path">
                <path d="M0.445899257,3.75013152 L0.445899257,3.75662272 L28.1402819,3.75662272 L28.0623976,3.55539566 C27.1212948,3.52293968 26.1737017,3.48399251 25.2390893,3.45802773 C16.8210873,3.21785349 8.43553719,3.28276545 0.445899257,3.75013152 Z"></path>
            </g>
            <g transform="translate(604.901267, 113.552730)" fill="#F36D24" id="Path">
                <path d="M103.70255,1.3105097 C96.9785331,0.771740475 89.8326425,0.317356791 82.9853086,0.0642001668 L83.063193,0.265427227 L55.3688103,0.265427227 L55.3688103,0.258936032 C48.0411895,0.69384613 41.077029,1.49875437 34.6840206,2.68664315 C10.682655,7.18504162 -4.84229542,17.622884 2.80335323,38.3947096 C13.4280789,67.2740383 61.6385018,84.6379862 61.6385018,84.6379862 C61.6385018,84.6379862 13.8239911,53.7788429 38.59771,33.7794696 C49.6637804,24.8540758 69.2452083,18.122706 87.8206297,13.3646597 C94.3758972,11.6834401 100.794867,10.2553771 106.675137,9.06099712 C122.375327,5.86732894 134.20726,4.35488039 134.20726,4.35488039 C134.20726,4.35488039 120.28543,2.62173119 103.70255,1.3105097 Z"></path>
            </g>
            <g transform="translate(368.757804, 50.640775)" fill="#686A6C" id="Path">
                <path d="M88.4093169,79.178179 C79.205981,89.5640918 67.8413538,94.7700306 54.3024548,94.7700306 C41.7306199,94.7700306 31.3135859,90.7454894 23.0643334,82.6899158 C14.8085906,74.6408334 10.6872095,64.5924628 10.6872095,52.5577863 C10.6872095,44.5995807 12.5304728,37.4268096 16.2234899,31.0524557 C19.9165069,24.6781017 25.108798,19.5954956 31.8263246,15.8176198 C38.5373609,12.0397441 45.8260395,10.144315 53.6988509,10.144315 C60.9031548,10.144315 67.5103453,11.5853604 73.5269126,14.4739424 C79.277375,17.2391917 84.236013,21.2442593 88.4093169,26.4761628 L88.4093169,13.1107913 C85.4302399,10.6376458 82.1396254,7.65818711 78.5244928,5.88609074 C71.0995165,2.23803887 62.77887,0.414012935 53.5625533,0.414012935 C38.3101982,0.414012935 25.6215368,5.35381271 15.4835884,15.2139387 C5.35213039,25.0805558 0.283156197,37.238565 0.283156197,51.6879661 C0.283156197,65.4233358 4.4694409,77.1464349 12.8355199,86.8572633 C22.8112092,98.3531705 36.434483,104.097879 53.6988509,104.097879 C62.77887,104.097879 71.002161,102.384203 78.3557433,98.9633429 C82.0098182,97.2626497 85.3653363,94.3675765 88.4093169,91.9658342 L88.4093169,79.178179 Z"></path>
            </g>
            <g transform="translate(0.297427, 50.640775)" fill="#686A6C" id="Path">
                <path d="M37.3780056,47.3518475 C13.8893787,42.5353805 9.43698908,36.4076919 9.43698908,26.7877402 L9.43698908,26.5021276 C9.43698908,16.3174419 19.1400831,8.92397023 32.5102327,8.92397023 C43.7126007,8.92397023 52.5979089,12.2864095 61.3209579,19.8226875 L62.1452341,20.5302278 L62.3464354,20.2770711 L62.3464354,8.76818153 C53.3248296,2.73786092 44.3875986,0.193312288 32.7958087,0.193312288 C14.0970703,0.193312288 0,11.8125522 0,27.2096679 L0,27.4952805 C0,43.0676585 9.89131455,51.4153359 34.139314,56.3291709 C56.9204912,60.9119549 61.2365832,66.890346 61.2365832,76.3285442 L61.2365832,76.6076656 C61.2365832,87.5323476 51.4036819,95.1724847 37.3131019,95.1724847 C23.579492,95.1724847 13.8439462,91.1349611 2.60263592,80.7750131 L1.81081152,80.041508 L1.6355717,80.2492263 L1.6355717,92.1281141 C12.4030854,100.222635 23.508098,103.909634 36.8847379,103.909634 C56.7841936,103.909634 70.6735723,92.3877619 70.6735723,75.9001253 L70.6735723,75.6145127 C70.6735723,60.5614304 60.7173541,52.1034026 37.3780056,47.3518475 Z"></path>
            </g>
            <g transform="translate(467.603626, 49.640775)" fill="#686A6C" id="Path">
                <polygon points="138.556288 1.1803299 114.885931 71.6227834 114.379683 73.1417231 113.879925 71.6162922 90.5470665 0.881734905 71.6016943 0.881734905 48.2753265 71.6162922 47.7690781 73.1417231 47.2628298 71.6227834 23.5924727 1.1803299 0.0908650943 1.1803299 37.5402647 105.208229 56.7971743 105.208229 80.2728205 37.3622536 80.7725785 35.914717 81.2788269 37.3622536 104.754473 105.208229 124.011383 105.208229 161.460782 1.1803299"></polygon>
            </g>
            <g transform="translate(86.672157, 242.376640)" fill="#808184" id="Path">
                <path d="M5.17834245,48.9043109 C6.57377068,51.3255269 8.38458221,53.123588 10.6172674,54.3049856 C12.8434622,55.4863832 15.3747041,56.0835732 18.2304642,56.0835732 C19.9958432,56.0835732 21.6638667,55.810943 23.221554,55.2721737 C24.7792414,54.7334045 26.1357274,53.9804258 27.2910122,53.0197289 C28.446297,52.0460496 29.3614383,50.8776344 30.0299457,49.5144833 C30.6984532,48.1448411 31.0359521,46.5999365 31.0359521,44.8732785 C31.0359521,42.8934639 30.6205689,41.2511915 29.7898023,39.9594436 C28.9525453,38.6741869 27.8362028,37.616122 26.4472649,36.785249 C25.0518366,35.9478847 23.4811686,35.2403444 21.7287703,34.6431545 C19.9828625,34.0524557 18.1850317,33.4617569 16.335278,32.8710581 C14.4855243,32.2803593 12.6812031,31.6117662 10.9352952,30.8587875 C9.18938733,30.1123 7.61871927,29.1256383 6.22329103,27.9182759 C4.82137244,26.7109136 3.71801058,25.198465 2.887244,23.3614567 C2.04998706,21.5374308 1.63460377,19.2914771 1.63460377,16.597631 C1.63460377,14.0725559 2.12787143,11.8330935 3.12738746,9.86626126 C4.11392277,7.91241141 5.4574281,6.27663015 7.15141307,4.95891746 C8.84539804,3.64120478 10.7860168,2.64805187 12.9862502,1.97945873 C15.1929739,1.3043744 17.5035435,0.966832234 19.9179588,0.966832234 C23.0333335,0.966832234 25.915055,1.51858385 28.5825946,2.61559589 C31.2371534,3.71909912 33.5282519,5.55610745 35.4688707,8.13960325 L30.873693,11.4436218 C29.5301877,9.56117507 27.9595197,8.15258565 26.1681792,7.2113623 C24.3573677,6.27663015 22.2285284,5.80277288 19.7556997,5.80277288 C18.0422437,5.80277288 16.406672,6.03645591 14.8424943,6.4908396 C13.2848069,6.94522328 11.9283209,7.62030761 10.7730361,8.49661901 C9.62424171,9.38591279 8.68962931,10.5023984 8.00165074,11.8460759 C7.29420107,13.1897533 6.95021179,14.773605 6.95021179,16.597631 C6.95021179,19.4472658 7.67713254,21.6347987 9.12448369,23.1602296 C10.5718348,24.698643 12.3891367,25.9060053 14.5569183,26.7888079 C16.7376805,27.6845929 19.100173,28.4570451 21.650886,29.1256383 C24.201599,29.8007226 26.5640914,30.6965076 28.7383633,31.8259756 C30.9126352,32.9554436 32.7234468,34.5198217 34.1772883,36.5385835 C35.6311298,38.5508541 36.3515602,41.3290858 36.3515602,44.8732785 C36.3515602,47.4502832 35.8712732,49.7416752 34.904209,51.727981 C33.9371448,53.7142868 32.6325817,55.3955064 30.99701,56.7586575 C29.3614383,58.1282997 27.466252,59.166891 25.3179416,59.8679401 C23.1696311,60.5624981 20.9434363,60.9130226 18.6263764,60.9130226 C14.8684557,60.9130226 11.4026014,60.2509207 8.2417942,58.9396992 C5.07449663,57.6219865 2.36152453,55.4084888 0.102877897,52.292715 L5.17834245,48.9043109 Z"></path>
            </g>
            <g transform="translate(163.556524, 262.850226)" fill="#808184" fill-rule="nonzero" id="Shape">
                <path d="M31.5621556,17.2269211 C31.5621556,15.5716662 31.231147,14.0072881 30.5626395,12.5662427 C29.8941321,11.1057237 28.9789908,9.83344938 27.823706,8.73643735 C26.6619309,7.63293411 25.2924641,6.75662272 23.7088153,6.12048556 C22.1251665,5.47136601 20.4441623,5.14680624 18.6787833,5.14680624 C16.0501859,5.14680624 13.8564429,5.68557546 12.110535,6.75662272 C10.3711175,7.83416117 8.98867001,9.07397951 7.96968288,10.4630953 C6.94420539,11.8587024 6.21728463,13.2153622 5.79541098,14.5330749 C5.3605566,15.8572788 5.14637459,16.7465726 5.14637459,17.2269211 L31.5621556,17.2269211 Z M35.2746437,31.9814084 C33.3924382,34.824552 31.0688879,36.8692786 28.3039929,38.0961146 C25.5390979,39.3359329 22.4886269,39.9525965 19.1590702,39.9525965 C16.3162908,39.9525965 13.733126,39.4657568 11.4290468,38.5050599 C9.11847729,37.5313806 7.13242594,36.1812119 5.47089279,34.4350803 C3.80286927,32.6889487 2.53075795,30.6247485 1.6415781,28.2359886 C0.752398247,25.8472287 0.311053504,23.1923297 0.311053504,20.2972565 C0.311053504,17.4995513 0.765378975,14.9225467 1.68052028,12.5662427 C2.58917123,10.1969563 3.887244,8.13924736 5.54877715,6.39960697 C7.21031031,4.65347538 9.1704002,3.28383313 11.4290468,2.29068022 C13.6812031,1.29103611 16.1799932,0.797705257 18.9189267,0.797705257 C21.7681965,0.797705257 24.2734769,1.29103611 26.4477488,2.29068022 C28.6285111,3.28383313 30.4523034,4.59505462 31.9321063,6.23732708 C33.4054189,7.87959954 34.5152711,9.74257265 35.2746437,11.8327376 C36.0275259,13.9358849 36.3974767,16.0520147 36.3974767,18.2006004 L36.3974767,21.5825132 L5.14637459,21.5825132 C5.14637459,22.6081221 5.34108551,23.9063612 5.74997843,25.4902129 C6.15238099,27.0740646 6.89228248,28.6189691 7.96968288,30.1249265 C9.04059292,31.6243927 10.4749633,32.9161406 12.2727941,33.9871878 C14.0706249,35.0647263 16.3941752,35.6099867 19.2434449,35.6099867 C21.7162736,35.6099867 24.1047275,35.0127967 26.4088067,33.8313991 C28.7193762,32.6500015 30.4912455,31.0336939 31.730905,28.9954585 L35.2746437,31.9814084 Z"></path>
            </g>
            <g transform="translate(240.440890, 262.850226)" fill="#808184" id="Path">
                <path d="M33.7044596,33.5068393 C31.8806674,35.7138458 29.8102413,37.3366447 27.5061621,38.3817272 C25.1955926,39.4268096 22.6968025,39.9525965 20.0162822,39.9525965 C17.1670125,39.9525965 14.5384151,39.4657568 12.1175094,38.5050599 C9.703094,37.5313806 7.63266792,36.1812119 5.91921186,34.4350803 C4.19277507,32.6889487 2.85576011,30.6247485 1.88869589,28.2359886 C0.921631671,25.8472287 0.43485438,23.2182945 0.43485438,20.3751509 C0.43485438,17.525516 0.921631671,14.9095643 1.88869589,12.5208043 C2.85576011,10.1320444 4.19277507,8.06135301 5.91921186,6.31522143 C7.63266792,4.56908984 9.703094,3.21242998 12.1175094,2.25173305 C14.5384151,1.27805372 17.1670125,0.797705257 20.0162822,0.797705257 C22.7552158,0.797705257 25.2864577,1.36243927 27.629479,2.49190728 C29.9595197,3.6213753 32.0429265,5.205227 33.8667187,7.24346238 L30.0049522,10.1450268 C28.6030336,8.58713985 27.0777981,7.3667951 25.4097746,6.47750131 C23.7482414,5.58820753 21.9504106,5.14680624 20.0162822,5.14680624 C17.7576356,5.14680624 15.7196613,5.55575155 13.8893787,6.36065979 C12.0655865,7.16556804 10.5078991,8.25608888 9.22280707,9.62573113 C7.9247343,10.9953734 6.95117971,12.6051899 6.28267223,14.4551806 C5.60767439,16.3116625 5.27017547,18.2849859 5.27017547,20.3751509 C5.27017547,22.471807 5.60767439,24.4451304 6.28267223,26.2951212 C6.95117971,28.1516031 7.9247343,29.7614195 9.22280707,31.1310618 C10.5078991,32.500704 12.0655865,33.5912249 13.8893787,34.3961331 C15.7196613,35.2010414 17.7576356,35.6099867 20.0162822,35.6099867 C22.0542565,35.6099867 23.9169909,35.1296382 25.6109759,34.1949061 C27.3049608,33.2536827 28.7652927,32.0073732 30.0049522,30.4494863 L33.7044596,33.5068393 Z"></path>
            </g>
            <g transform="translate(312.834893, 263.850226)" fill="#808184" id="Path">
                <path d="M32.6006138,27.51511 C32.6006138,28.2096679 32.6265753,29.0600145 32.6849885,30.0466763 C32.7369114,31.0463204 32.782344,32.0524557 32.8083054,33.0715734 C32.8342669,34.090691 32.8667187,35.0448968 32.925132,35.9341906 C32.9770549,36.8169932 33.0030164,37.5050599 33.0030164,37.9854083 L28.1741856,37.9854083 C28.1157724,36.5898013 28.0768302,35.2461238 28.0508687,33.9608671 C28.0249073,32.6691192 27.9600036,31.8382462 27.8496674,31.4617569 L27.609524,31.4617569 C26.6424598,33.5064835 25.0263592,35.2591062 22.7742029,36.7390988 C20.5220466,38.2126002 17.8869589,38.9525965 14.8819204,38.9525965 C11.9807278,38.9525965 9.61174494,38.4917216 7.74901051,37.5829542 C5.8992568,36.6676957 4.45190566,35.4733157 3.40046671,33.9998143 C2.35551813,32.5198217 1.6415781,30.8191285 1.26513699,28.8847523 C0.895186253,26.950376 0.700475336,24.9640702 0.700475336,22.9193436 L0.700475336,0.771384581 L5.54228679,0.771384581 L5.54228679,22.6791694 C5.54228679,24.1851267 5.67209407,25.6521369 5.93819899,27.0672175 C6.21079427,28.4952805 6.6716101,29.7675548 7.34660795,30.8970229 C8.02160579,32.0264909 8.96270855,32.9287671 10.1699162,33.590869 C11.3771239,34.2659533 12.947792,34.6099867 14.8819204,34.6099867 C16.6472994,34.6099867 18.3283036,34.2919181 19.9119524,33.6752545 C21.5020916,33.058591 22.865068,32.1238588 24.0203528,30.8515845 C25.1821279,29.5922926 26.0972692,28.0149321 26.7657767,26.1065206 C27.4342842,24.1981091 27.7652927,21.9521555 27.7652927,19.3751509 L27.7652927,0.771384581 L32.6006138,0.771384581 L32.6006138,27.51511 Z"></path>
            </g>
            <g transform="translate(389.719259, 262.850226)" fill="#808184" id="Path">
                <path d="M1.23316914,12.2416829 C1.23316914,11.5406338 1.20071732,10.6967784 1.14879441,9.69713428 C1.10336186,8.70398137 1.05792931,7.70433726 1.03196786,6.67872837 C1.0060064,5.65961068 0.960573854,4.70540494 0.908650943,3.81611116 C0.863218396,2.93330857 0.830766576,2.25173305 0.830766576,1.77138458 L5.66608767,1.77138458 C5.71801058,3.16050042 5.7504624,4.50417788 5.78291422,5.79592579 C5.80887567,7.08118249 5.88026967,7.91854671 5.99060586,8.28854486 C7.223775,6.09452078 8.80093342,4.28996843 10.7350619,2.88787021 C12.6756807,1.49875437 15.0316827,0.797705257 17.8290296,0.797705257 C18.3093165,0.797705257 18.7766227,0.83665243 19.2374385,0.921037972 C19.691764,0.998932318 20.1655606,1.09630025 20.6458475,1.20665057 L20.0811858,5.95171448 C19.4386398,5.73750503 18.8220552,5.6271547 18.2249418,5.6271547 C16.1350446,5.6271547 14.3242331,5.97118807 12.7860168,6.6397812 C11.2607813,7.31486553 10.0016507,8.23661529 9.0021347,9.41801287 C8.00910903,10.5994105 7.27569791,11.9885263 6.79541098,13.5658868 C6.30863369,15.1497385 6.06199986,16.8634141 6.06199986,18.68744 L6.06199986,38.9854083 L1.23316914,38.9854083 L1.23316914,12.2416829 Z"></path>
            </g>
            <g transform="translate(445.642170, 262.850226)" fill="#808184" fill-rule="nonzero" id="Shape">
                <path d="M32.0669521,17.2269211 C32.0669521,15.5716662 31.7359435,14.0072881 31.0609457,12.5662427 C30.3924382,11.1057237 29.4772969,9.83344938 28.3220121,8.73643735 C27.1667273,7.63293411 25.8037509,6.75662272 24.2136118,6.12048556 C22.629963,5.47136601 20.9489588,5.14680624 19.1835798,5.14680624 C16.548492,5.14680624 14.3612394,5.68557546 12.6153315,6.75662272 C10.8694236,7.83416117 9.48697614,9.07397951 8.46798901,10.4630953 C7.44251152,11.8587024 6.72208113,13.2153622 6.29371711,14.5330749 C5.85886273,15.8572788 5.64468072,16.7465726 5.64468072,17.2269211 L32.0669521,17.2269211 Z M35.7794402,31.9814084 C33.8972347,34.824552 31.5736844,36.8692786 28.802299,38.0961146 C26.0438944,39.3359329 22.9934234,39.9525965 19.6638667,39.9525965 C16.8210873,39.9525965 14.2379225,39.4657568 11.9338433,38.5050599 C9.61678342,37.5313806 7.63722243,36.1812119 5.96919892,34.4350803 C4.3011754,32.6889487 3.02906408,30.6247485 2.13988423,28.2359886 C1.25719474,25.8472287 0.815849998,23.1923297 0.815849998,20.2972565 C0.815849998,17.4995513 1.27017547,14.9225467 2.18531678,12.5662427 C3.09396772,10.1969563 4.38555013,8.13924736 6.05357365,6.39960697 C7.70861644,4.65347538 9.67519669,3.28383313 11.9338433,2.29068022 C14.1795092,1.29103611 16.6782993,0.797705257 19.4237232,0.797705257 C22.272993,0.797705257 24.7782734,1.29103611 26.9525453,2.29068022 C29.1268172,3.28383313 30.9506095,4.59505462 32.4304125,6.23732708 C33.9102154,7.87959954 35.0200676,9.74257265 35.7794402,11.8327376 C36.5258321,13.9358849 36.9022732,16.0520147 36.9022732,18.2006004 L36.9022732,21.5825132 L5.64468072,21.5825132 C5.64468072,22.6081221 5.845882,23.9063612 6.25477493,25.4902129 C6.65068713,27.0740646 7.39707897,28.6189691 8.46798901,30.1249265 C9.54538942,31.6243927 10.9732695,32.9161406 12.7775906,33.9871878 C14.5754214,35.0647263 16.8989717,35.6099867 19.7417511,35.6099867 C22.2145797,35.6099867 24.6030336,35.0127967 26.9071128,33.8313991 C29.2241727,32.6500015 30.9895517,31.0336939 32.2292112,28.9954585 L35.7794402,31.9814084 Z"></path>
            </g>
            <g transform="translate(526.016901, 244.376640)" fill="#808184" id="Path">
                <polygon points="0.915141307 0.420860025 35.0739264 0.420860025 35.0739264 5.25680067 6.23723969 5.25680067 6.23723969 25.554769 33.0554232 25.554769 33.0554232 30.3907096 6.23723969 30.3907096 6.23723969 57.4589948 0.915141307 57.4589948"></polygon>
            </g>
            <g transform="translate(601.410904, 245.376640)" fill="#808184" fill-rule="nonzero" id="Shape">
                <path d="M1.97113477,19.2449711 L6.79996549,19.2449711 L6.79996549,56.4589948 L1.97113477,56.4589948 L1.97113477,19.2449711 Z M0.757436723,4.4904837 C0.757436723,3.47785721 1.10791637,2.61452821 1.80887567,1.91997029 C2.50334461,1.21892118 3.366563,0.86839662 4.38555013,0.86839662 C5.40453726,0.86839662 6.26126529,1.21892118 6.96222459,1.91997029 C7.66318389,2.61452821 8.00717318,3.47785721 8.00717318,4.4904837 C8.00717318,5.51609259 7.66318389,6.3729304 6.96222459,7.07397951 C6.26126529,7.77502862 5.40453726,8.11906199 4.38555013,8.11906199 C3.366563,8.11906199 2.50334461,7.77502862 1.80887567,7.07397951 C1.10791637,6.3729304 0.757436723,5.51609259 0.757436723,4.4904837 Z"></path>
            </g>
            <g transform="translate(653.333815, 262.850226)" fill="#808184" id="Path">
                <path d="M0.789888543,12.2416829 C0.789888543,11.5406338 0.770417451,10.6967784 0.71849454,9.69713428 C0.660081265,8.70398137 0.621139082,7.70433726 0.595177626,6.67872837 C0.562725807,5.65961068 0.523783624,4.70540494 0.478351076,3.81611116 C0.419937802,2.93330857 0.393976346,2.25173305 0.393976346,1.77138458 L5.22929744,1.77138458 C5.28122035,3.16050042 5.32016253,4.50417788 5.35261435,5.79592579 C5.37857581,7.08118249 5.43698908,7.91854671 5.54732527,8.28854486 C6.7804944,6.09452078 8.36414319,4.28996843 10.2982716,2.88787021 C12.2324001,1.49875437 14.5948925,0.797705257 17.3922393,0.797705257 C17.8725263,0.797705257 18.3463228,0.83665243 18.8006483,0.921037972 C19.2549738,0.998932318 19.72228,1.09630025 20.2155476,1.20665057 L19.650886,5.95171448 C19.0018496,5.73750503 18.385265,5.6271547 17.7946419,5.6271547 C15.6982544,5.6271547 13.8874429,5.97118807 12.355717,6.6397812 C10.8239911,7.31486553 9.56486051,8.23661529 8.57183483,9.41801287 C7.5723188,10.5994105 6.83890768,11.9885263 6.35862075,13.5658868 C5.87184346,15.1497385 5.6317,16.8634141 5.6317,18.68744 L5.6317,38.9854083 L0.789888543,38.9854083 L0.789888543,12.2416829 Z"></path>
            </g>
            <g transform="translate(708.747089, 262.850226)" fill="#808184" id="Path">
                <path d="M4.51031893,29.4822981 C5.52930606,31.468604 7.03507048,32.9810525 9.02112183,34.026135 C11.0071732,35.0777087 13.1035607,35.6099867 15.3037941,35.6099867 C16.3227812,35.6099867 17.3417683,35.4412156 18.3672458,35.1166558 C19.3862329,34.7985872 20.2948839,34.3377124 21.099689,33.7470136 C21.9044941,33.162806 22.5665112,32.4487745 23.0727596,31.6114103 C23.5854984,30.7805372 23.8386226,29.8328227 23.8386226,28.7552842 C23.8386226,27.0351174 23.293432,25.7498607 22.1900701,24.8865317 C21.0931986,24.0296939 19.743203,23.3611008 18.120612,22.8807523 C16.5110017,22.3874215 14.7391324,21.971985 12.805004,21.6214604 C10.8708755,21.2709358 9.0990062,20.7321666 7.48939595,20.0116439 C5.87978571,19.2911212 4.52329966,18.2849859 3.42642817,16.993238 C2.32306631,15.7014901 1.77138538,13.8774642 1.77138538,11.514669 C1.77138538,9.69064308 2.14782648,8.10030019 2.90070869,6.75662272 C3.64710054,5.41943645 4.62714548,4.30295082 5.84084353,3.42014824 C7.04805121,2.53085445 8.3980469,1.87524371 9.91030168,1.44033361 C11.4095757,1.01191471 12.9413016,0.797705257 14.4989889,0.797705257 C17.5624407,0.797705257 20.2040188,1.36243927 22.436704,2.49190728 C24.6564084,3.6213753 26.3958259,5.39347167 27.6289951,7.80819639 L23.2804513,10.385201 C22.36531,8.66503419 21.2230059,7.3667951 19.8535391,6.47750131 C18.4840724,5.58820753 16.7057127,5.14680624 14.4989889,5.14680624 C13.6422609,5.14680624 12.73361,5.28312134 11.7989976,5.55575155 C10.8578948,5.82189057 10.0141475,6.19188871 9.26126529,6.67872837 C8.50838308,7.16556804 7.87881779,7.78223161 7.36607904,8.53521029 C6.85983066,9.28818896 6.60670647,10.1450268 6.60670647,11.1057237 C6.60670647,12.7739609 7.15189703,14.0072881 8.25525889,14.8121963 C9.35862075,15.6235958 10.7151068,16.2532417 12.324717,16.7076254 C13.9343273,17.1685003 15.7061966,17.557972 17.6403251,17.8760406 C19.5744535,18.2006004 21.3463228,18.7263872 22.9624234,19.4469099 C24.5720337,20.1739238 25.9285197,21.2254975 27.0318816,22.5951397 C28.1222627,23.964782 28.6739437,25.9056494 28.6739437,28.4307245 C28.6739437,30.3651007 28.3169736,32.0463204 27.5900529,33.461401 C26.8631321,34.889464 25.8701065,36.0903352 24.6109759,37.0510321 C23.3453549,38.0247114 21.9044941,38.7452341 20.2948839,39.2255826 C18.6852736,39.7124222 16.997779,39.9525965 15.2194193,39.9525965 C12.0001988,39.9525965 9.06006401,39.3359329 6.40550519,38.0961146 C3.744456,36.8692786 1.68701065,34.9608671 0.246149865,32.3773713 L4.51031893,29.4822981 Z"></path>
            </g>
            <g transform="translate(773.650728, 253.867835)" fill="#808184" id="Path">
                <path d="M24.2734769,15.1028765 L13.6357705,15.1028765 L13.6357705,39.3474917 C13.6357705,41.015729 14.090096,42.3009857 15.0052373,43.2162442 C15.9203786,44.1315028 17.1859996,44.5923777 18.7956098,44.5923777 C19.7042608,44.5923777 20.6323828,44.4625538 21.5734856,44.2223795 C22.508098,43.9822053 23.4102585,43.6706279 24.2734769,43.2941386 L24.6693891,47.6432396 C23.7607382,47.9677993 22.7157896,48.2663943 21.5345434,48.5325333 C20.3468068,48.8051635 19.3018582,48.9349875 18.3867169,48.9349875 C16.6732608,48.9349875 15.1934579,48.6818308 13.9602887,48.1690264 C12.7206292,47.6627131 11.7276036,46.9811376 10.9812117,46.1178086 C10.2283295,45.2609708 9.67664858,44.2483443 9.32616893,43.0929115 C8.97568928,41.9374787 8.80693982,40.6911692 8.80693982,39.3474917 L8.80693982,15.1028765 L0.752398247,15.1028765 L0.752398247,10.7537756 L8.80693982,10.7537756 L8.80693982,0.030320613 L13.6357705,0.030320613 L13.6357705,10.7537756 L24.2734769,10.7537756 L24.2734769,15.1028765 Z"></path>
            </g>
            <g transform="translate(1.297427, 208.920663)" id="Path" stroke="#808184" stroke-linecap="round" stroke-width="0.5">
                <path d="M0.298072776,3.98559403 L881.864727,3.98559403"></path>
            </g>
            <g transform="translate(0.297427, 263.850226)" fill="#F36D24" id="Path">
                <path d="M19.6787833,9.56695447 C19.6787833,14.7599109 15.4665371,18.9726967 10.274246,18.9726967 C5.07546455,18.9726967 0.863218396,14.7599109 0.863218396,9.56695447 C0.863218396,4.36750688 5.07546455,0.161212205 10.274246,0.161212205 C15.4665371,0.161212205 19.6787833,4.36750688 19.6787833,9.56695447 Z"></path>
            </g>
            <g transform="translate(864.515823, 263.850226)" fill="#F36D24" id="Path">
                <path d="M19.0292629,9.56695447 C19.0292629,14.7599109 14.8170168,18.9726967 9.62472567,18.9726967 C4.4259442,18.9726967 0.220188409,14.7599109 0.220188409,9.56695447 C0.220188409,4.36750688 4.4259442,0.161212205 9.62472567,0.161212205 C14.8170168,0.161212205 19.0292629,4.36750688 19.0292629,9.56695447 Z"></path>
            </g>
            <g transform="translate(887.986914, 47.640775)" fill="#686A6C" fill-rule="nonzero" id="Shape">
                <path d="M10.1290382,10.1713474 C10.6093251,10.1713474 10.998747,10.1324003 11.3037941,10.0545059 C11.6023508,9.97661158 11.8424943,9.85977006 12.0112437,9.70398137 C12.1864836,9.54819268 12.2968197,9.34696562 12.3617234,9.11977377 C12.4331174,8.88609074 12.4655692,8.62644292 12.4655692,8.32784792 C12.4655692,8.04223532 12.4331174,7.7890787 12.3811945,7.56837805 C12.3227812,7.3541686 12.2254257,7.17241513 12.0631666,7.02960882 C11.9138883,6.88680252 11.6997063,6.7764522 11.4336013,6.71154025 C11.1610061,6.6401371 10.8235071,6.60118992 10.3951431,6.60118992 L8.90884979,6.60118992 L8.90884979,10.1713474 L10.1290382,10.1713474 Z M10.3951431,4.35523628 C12.1280703,4.35523628 13.3936912,4.66681367 14.1984964,5.28996843 C15.0033015,5.906632 15.405704,6.79592579 15.405704,7.95135858 C15.405704,8.77574041 15.1980124,9.49626311 14.763158,10.1129267 C14.3412844,10.7295903 13.6792672,11.1774827 12.7771067,11.4566042 C12.9847983,11.5799369 13.1600381,11.7357256 13.3028261,11.917479 C13.4456141,12.0992325 13.5819118,12.3069508 13.7117191,12.547125 L16.2234899,16.8118404 L13.3742201,16.8118404 C12.9653272,16.8118404 12.6732608,16.6560517 12.498021,16.3509656 L10.5054793,12.6964225 C10.4081238,12.5730898 10.3107684,12.4692306 10.1939418,12.4043187 C10.0771153,12.3329155 9.90187547,12.2939684 9.66822237,12.2939684 L8.90884979,12.2939684 L8.90884979,16.8118404 L5.92328241,16.8118404 L5.92328241,4.35523628 L10.3951431,4.35523628 Z M10.447066,19.2135828 C11.2324001,19.2135828 11.9852823,19.1097236 12.712203,18.9084966 C13.4326334,18.7072695 14.1076313,18.4151657 14.7307062,18.0451676 C15.3537811,17.6751694 15.9249331,17.2337681 16.4441623,16.7144725 C16.9504106,16.1951769 17.3917554,15.6174605 17.7487254,14.9813233 C18.1121858,14.3386949 18.3977618,13.6506282 18.5924727,12.9236143 C18.7871836,12.1901092 18.8910294,11.4241482 18.8910294,10.6192399 C18.8910294,9.81433169 18.7871836,9.04187943 18.5924727,8.30188314 C18.3977618,7.55539566 18.1121858,6.86732894 17.7487254,6.22470058 C17.3917554,5.58207223 16.9504106,4.99786464 16.4441623,4.4720778 C15.9249331,3.95278216 15.3537811,3.49839848 14.7307062,3.12840033 C14.1076313,2.75191099 13.4326334,2.4598072 12.712203,2.25858014 C11.9852823,2.05735308 11.2324001,1.95349395 10.447066,1.95349395 C9.661732,1.95349395 8.91534016,2.05735308 8.19490977,2.25858014 C7.4874601,2.4598072 6.81895262,2.75191099 6.20236805,3.12840033 C5.57929312,3.49839848 5.01463147,3.95278216 4.51487345,4.4720778 C4.00862506,4.99786464 3.57377068,5.58207223 3.21680067,6.22470058 C2.85334029,6.86732894 2.57425465,7.55539566 2.38603409,8.30188314 C2.19132318,9.04187943 2.09396772,9.81433169 2.09396772,10.6192399 C2.09396772,11.8201111 2.30814973,12.9495791 2.74300411,13.9946616 C3.16487776,15.0397441 3.75550087,15.9485114 4.50838308,16.7209637 C5.25477493,17.493416 6.14395478,18.1035883 7.15645155,18.5449896 C8.17543867,18.9928821 9.27231017,19.2135828 10.447066,19.2135828 Z M10.447066,0.356659858 C11.3946592,0.356659858 12.3033101,0.479992572 13.1795092,0.726658001 C14.0557083,0.97332343 14.8670038,1.31735679 15.6263764,1.75875808 C16.385749,2.20665057 17.0802179,2.7389286 17.7032928,3.36208337 C18.3263678,3.99172933 18.865068,4.67979606 19.3064127,5.43926593 C19.7542478,6.1987358 20.0917468,7.01662643 20.3383806,7.89293783 C20.5915048,8.76275802 20.7083313,9.67152539 20.7083313,10.6192399 C20.7083313,11.5539721 20.5915048,12.4562483 20.3383806,13.3325596 C20.0917468,14.208871 19.7542478,15.0202705 19.3064127,15.7797403 C18.865068,16.532719 18.3263678,17.2207857 17.7032928,17.8439405 C17.0802179,18.4670953 16.385749,19.0058645 15.6263764,19.4472658 C14.8670038,19.8951583 14.0557083,20.2391917 13.1795092,20.4858571 C12.3033101,20.7260313 11.3946592,20.849364 10.447066,20.849364 C9.50596327,20.849364 8.59731233,20.7260313 7.72760357,20.4858571 C6.85789481,20.2391917 6.04659932,19.8951583 5.29371711,19.4472658 C4.53434454,19.0058645 3.84636597,18.4670953 3.22329103,17.8439405 C2.6002161,17.2207857 2.0615159,16.532719 1.62017116,15.7797403 C1.17233605,15.0202705 0.834837127,14.208871 0.5882033,13.3390508 C0.335079108,12.4692306 0.218252559,11.5669545 0.218252559,10.6192399 C0.218252559,9.67152539 0.335079108,8.76275802 0.5882033,7.89293783 C0.834837127,7.01662643 1.17233605,6.1987358 1.62017116,5.43926593 C2.0615159,4.67979606 2.6002161,3.99172933 3.22329103,3.36208337 C3.84636597,2.7389286 4.53434454,2.20665057 5.29371711,1.75875808 C6.04659932,1.31735679 6.85789481,0.97332343 7.72760357,0.726658001 C8.59731233,0.479992572 9.50596327,0.356659858 10.447066,0.356659858 Z"></path>
            </g>
            <g transform="translate(1116.640014, 111.061535)" fill="#FFFFFF" fill-rule="nonzero" id="Shape">
                <path d="M13.9607727,11.0523706 C14.6552416,9.89044657 14.875914,8.89080246 14.6292802,8.04694705 C14.3826464,7.20309163 13.7595714,6.47607774 12.7665457,5.88537895 C12.325201,5.61923993 11.8773659,5.44397765 11.4425115,5.35959211 C11.0011668,5.27520657 10.5663124,5.28818896 10.1509291,5.39853929 C9.72905545,5.5153808 9.32665289,5.73608145 8.93723106,6.06064123 C8.55429959,6.385201 8.19083922,6.82660229 7.84684993,7.3913363 L6.4514217,9.72167548 L12.5653445,13.3827097 L13.9607727,11.0523706 Z M4.5108029,5.38555689 C5.32209838,4.02889704 6.17233605,2.95784978 7.08098699,2.17890632 C7.98963793,1.39996286 8.91126961,0.861193636 9.85886273,0.569089839 C10.7934751,0.276986042 11.7410683,0.212074087 12.682171,0.374353974 C13.6362545,0.530142666 14.5513958,0.880667223 15.4405757,1.41294525 C16.4076399,1.99066165 17.1929739,2.66574598 17.8095585,3.46416303 C18.4261431,4.24959768 18.835036,5.13240027 19.0232565,6.11257079 C19.2179674,7.08625011 19.1790253,8.16378857 18.9194107,9.33220375 C18.6533058,10.5006189 18.1275863,11.7469285 17.3292716,13.0776236 L15.9338433,15.4014715 L22.3722843,19.2637329 L19.691764,23.7361666 L0.43485438,12.1818386 L4.5108029,5.38555689 Z"></path>
            </g>
            <g transform="translate(1148.601469, 79.096753)" fill="#FFFFFF" fill-rule="nonzero" id="Shape">
                <path d="M13.6398411,10.9960852 L8.07759925,7.6401371 C7.70764851,7.44540123 7.28577486,7.1987358 6.8119783,6.906632 C6.33818173,6.61452821 5.82544299,6.28996843 5.29972351,5.93295268 C5.58529952,6.51066908 5.83193335,7.0559295 6.05260572,7.58820753 C6.26029737,8.10750317 6.42904683,8.56188686 6.56534447,8.95784978 L8.94081765,14.9686968 L13.6398411,10.9960852 Z M25.5042263,12.2034475 L22.4148131,14.8193993 C22.0708238,15.1115031 21.7268345,15.2608006 21.3763548,15.2802742 C21.0323656,15.2997478 20.6948666,15.2283446 20.3768388,15.0725559 L16.8331001,12.9369526 L10.3102844,18.4479776 L11.8290296,22.2972565 C11.926385,22.5893603 11.9393658,22.9204113 11.8679718,23.2839182 C11.7900874,23.6474252 11.5888861,23.971985 11.2578776,24.2511064 L8.15548362,26.8800405 L0.289162599,4.10892675 L4.36511111,0.668593136 L25.5042263,12.2034475 Z"></path>
            </g>
            <g transform="translate(1184.543653, 56.131971)" fill="#FFFFFF" fill-rule="nonzero" id="Shape">
                <path d="M11.0451474,11.111859 C11.7136549,10.8651936 12.2458648,10.5730898 12.6482673,10.2290564 C13.0506699,9.88502305 13.3492266,9.50853371 13.5309568,9.0995884 C13.7191774,8.69064308 13.8100424,8.25573298 13.7905714,7.8078405 C13.7775906,7.35994801 13.6802352,6.89907313 13.5114857,6.44468944 C13.1674964,5.51644849 12.6028348,4.90627611 11.7980296,4.60768112 C11.0062053,4.31557732 9.97423739,4.40645406 8.7151068,4.87382013 L6.74852655,5.60732522 L9.08505754,11.8453641 L11.0451474,11.111859 Z M25.5770722,18.3949803 L21.1571344,20.043744 C20.3393485,20.3488302 19.6318988,20.2644446 19.0542565,19.777605 L13.2713422,14.9741203 C13.0117277,14.7728933 12.7586035,14.6495605 12.5119697,14.6041222 C12.2653358,14.565175 11.9537984,14.6106134 11.5773573,14.7469285 L10.3376978,15.2142946 L13.2388904,22.9972379 L8.35813679,24.8212639 L0.504796495,3.77680809 L7.35213039,1.21927707 C8.87087553,0.654543063 10.2273616,0.323492092 11.4215885,0.239106551 C12.6093251,0.148229814 13.6542737,0.258580137 14.5369632,0.563666326 C15.4196527,0.868752514 16.1595542,1.34260978 16.7566676,1.99172933 C17.3472908,2.63435769 17.8081066,3.40680995 18.1456055,4.30259493 C18.3987297,4.98417046 18.5480081,5.66574598 18.5869503,6.34083031 C18.6323828,7.01591465 18.5739695,7.67801659 18.4117104,8.32713614 C18.2494513,8.96976449 17.9833464,9.59291926 17.6069053,10.1966004 C17.2304642,10.8002816 16.7501773,11.3520332 16.1595542,11.8713289 C16.5424856,11.910276 16.9189267,12.007644 17.2888775,12.1504503 C17.6588282,12.2932566 18.0157982,12.4879924 18.3662779,12.7411491 L25.5770722,18.3949803 Z"></path>
            </g>
            <g transform="translate(1228.976200, 47.640775)" fill="#FFFFFF" id="Path">
                <polygon points="18.0876762 4.58891932 11.7660618 4.75119921 12.233368 23.0758441 7.02809616 23.2121592 6.56078996 4.88102312 0.245665902 5.043303 0.135329716 0.91490267 17.97734 0.460518986"></polygon>
            </g>
            <g transform="translate(1268.918383, 51.640775)" fill="#FFFFFF" id="Path">
                <path d="M26.5181749,6.92432612 L19.4112265,28.2414121 L16.8410424,27.3780831 C16.4581109,27.2482592 16.1595542,27.0859793 15.9453722,26.8782611 C15.7246998,26.6640516 15.5429696,26.3719478 15.3872009,25.9824761 L9.5783252,9.92325844 C9.4874601,10.3192214 9.39010464,10.6957107 9.29274919,11.0592176 C9.182413,11.4162334 9.08505754,11.7537756 8.97472136,12.065353 L5.17136812,23.489857 L0.809843597,22.0358292 L7.91679204,0.725234425 L10.5129376,1.59505462 C10.7271196,1.66645777 10.9088498,1.73786092 11.0451474,1.80277288 C11.1879354,1.87417603 11.304762,1.95207037 11.4086078,2.04943831 C11.5059633,2.14031504 11.590338,2.25066537 11.6682224,2.38698047 C11.7461067,2.51680438 11.8175007,2.69206666 11.9018755,2.89978491 L17.7691644,19.0758441 C17.8600295,18.6539164 17.957385,18.2449711 18.0612308,17.8490081 C18.1780573,17.4595364 18.2819032,17.0895383 18.3987297,16.7519961 L22.1566504,5.47678953 L26.5181749,6.92432612 Z"></path>
            </g>
            <g transform="translate(1308.860566, 73.605557)" fill="#FFFFFF" id="Path">
                <polygon points="16.0162822 6.95171448 12.784081 11.0736236 18.3333421 15.435707 15.9513786 18.4670953 10.4021174 14.1050119 7.09203187 18.3113066 14.3417683 24.004085 11.8689397 27.1523149 0.504312532 18.2204299 14.3742201 0.557886918 25.7453377 9.49626311 23.2660187 12.6444929"></polygon>
            </g>
            <g transform="translate(1335.822022, 105.061535)" fill="#FFFFFF" fill-rule="nonzero" id="Shape">
                <path d="M14.4905627,12.3592362 C14.8799846,12.949935 15.2823871,13.4043187 15.7042608,13.7288785 C16.1261344,14.046947 16.5544984,14.2546653 17.0023335,14.345542 C17.4371879,14.4364188 17.8785327,14.4234364 18.3133871,14.3195773 C18.7482414,14.2027357 19.1766054,14.0144911 19.5854984,13.7418609 C20.4162649,13.2030916 20.8835711,12.5085337 21.0003977,11.6711695 C21.1172242,10.8338053 20.8056868,9.84714356 20.0657853,8.71767555 L18.9234813,6.96505276 L13.3417683,10.593631 L14.4905627,12.3592362 Z M10.5703829,28.1328413 L7.98721812,24.173212 C7.51342156,23.4461981 7.44202756,22.7386578 7.78601684,22.0635735 L11.212929,15.3776421 C11.3492266,15.0790471 11.4141302,14.8064169 11.4076399,14.5532603 C11.3946592,14.3001037 11.2778326,14.0079999 11.0636506,13.6704577 L10.3302395,12.5604633 L3.3725694,17.0978089 L0.529790025,12.7292344 L19.3453549,0.467366075 L23.3304383,6.58856343 C24.2196182,7.94522328 24.8362028,9.20451521 25.1866824,10.3404744 C25.5241813,11.4829248 25.6539886,12.5215161 25.5436524,13.4562483 C25.446297,14.3844892 25.1412499,15.208871 24.6414918,15.9358849 C24.1352435,16.6499164 23.4926974,17.2730712 22.6878923,17.7923668 C22.0777981,18.1883298 21.4482328,18.4869248 20.7991964,18.6751694 C20.15016,18.8699053 19.4946333,18.9477996 18.8196354,18.9348173 C18.1576183,18.9153437 17.4891108,18.792011 16.8206034,18.5583279 C16.1520959,18.3246449 15.5030595,17.9741203 14.8734942,17.5197366 C14.9124364,17.896226 14.905946,18.2792065 14.8475327,18.6751694 C14.7891195,19.0646412 14.6722929,19.4606041 14.5035435,19.856567 L10.5703829,28.1328413 Z"></path>
            </g>
            <g transform="translate(1135.620742, 261.850226)" fill="#FFFFFF" fill-rule="nonzero" id="Shape">
                <path d="M13.8864749,13.6830842 C14.7951259,14.6892195 15.6907961,15.1955328 16.5734856,15.202024 C17.4496847,15.2085151 18.3193935,14.8190434 19.1826119,14.0336088 C19.5655433,13.6895754 19.8576097,13.3195773 20.0653013,12.9171231 C20.272993,12.5276514 20.3833292,12.1057237 20.3963099,11.6708136 C20.4092906,11.2359035 20.3184255,10.788011 20.1172242,10.3206449 C19.916023,9.85327886 19.5979951,9.37942159 19.15016,8.89258193 L17.3263678,6.88680252 L12.0561923,11.6773048 L13.8864749,13.6830842 Z M22.038372,6.27013895 C23.1027916,7.43855414 23.8816353,8.57451335 24.3684126,9.66503419 C24.8486995,10.755555 25.0953333,11.7941463 25.1018237,12.7872992 C25.1148044,13.7739609 24.9071128,14.6957107 24.4722584,15.5525485 C24.0503848,16.4158775 23.4532713,17.1883298 22.6874083,17.8958701 C21.8566418,18.6423576 20.9739523,19.2070916 20.0393399,19.5705985 C19.1047275,19.9276143 18.1441536,20.0639294 17.1576183,19.9600702 C16.1581023,19.8627023 15.1456055,19.5251601 14.1006569,18.9344614 C13.0621987,18.3437626 12.0237405,17.4739424 10.9723015,16.3250008 L9.14850929,14.3192214 L3.59924818,19.3693715 L0.0944516823,15.5136013 L16.7097832,0.402098226 L22.038372,6.27013895 Z"></path>
            </g>
            <g transform="translate(1172.562925, 290.815008)" fill="#FFFFFF" fill-rule="nonzero" id="Shape">
                <path d="M17.5090659,14.6556958 C18.0153143,13.6625429 18.3463228,12.7083372 18.4956012,11.7865874 C18.6448796,10.8713289 18.6254085,10.0079999 18.4242072,9.21607402 C18.2294963,8.41765698 17.8595455,7.69064308 17.314355,7.04152353 C16.7691644,6.39240398 16.0617147,5.84065237 15.1725349,5.37977749 C14.283355,4.9253938 13.4071559,4.65925479 12.5569183,4.58785164 C11.7066806,4.51644849 10.9018755,4.6397812 10.1425029,4.93837619 C9.38313032,5.23047999 8.66269993,5.71731965 8.00068281,6.3729304 C7.3386657,7.03503234 6.74804258,7.85292297 6.2417942,8.83958469 C5.72905545,9.8327376 5.39155653,10.7934345 5.24227816,11.7151843 C5.09299979,12.636934 5.11247089,13.500263 5.31367217,14.2921889 C5.50838308,15.0906059 5.88482419,15.8046374 6.43650512,16.4602482 C6.98818605,17.1093677 7.70861644,17.6546282 8.60428665,18.1219942 C9.48697614,18.5763779 10.3501945,18.8425169 11.1939418,18.9139201 C12.0376891,18.9853232 12.8360039,18.8684817 13.6018668,18.5698867 C14.3612394,18.2648005 15.0751794,17.7909433 15.7371966,17.1288413 C16.405704,16.4732306 16.9898368,15.6488488 17.5090659,14.6556958 Z M22.2405412,17.0963854 C21.5006397,18.5374308 20.5530466,19.7577755 19.4237232,20.737946 C18.2814192,21.7246077 17.0157982,22.4451304 15.6463315,22.8930229 C14.2703743,23.3409154 12.8035521,23.5031953 11.2653358,23.360389 C9.72062924,23.2305651 8.16943227,22.763199 6.62472567,21.9582908 C5.0735287,21.1598737 3.78194629,20.1667208 2.77593989,18.9918144 C1.76993349,17.8039257 1.0495031,16.5251601 0.608158354,15.1360443 C0.179794338,13.7469285 0.0240256049,12.3058831 0.173303974,10.8064169 C0.316091979,9.30695076 0.763927087,7.83994058 1.50382857,6.39240398 C2.25022042,4.94486739 3.19132318,3.73750503 4.32713686,2.75084331 C5.46295054,1.7641816 6.72857149,1.05015009 8.10452863,0.6087488 C9.48697614,0.160856311 10.947308,0.0115588146 12.498505,0.14787392 C14.0432116,0.290680221 15.5944086,0.758046296 17.1456055,1.55646334 C18.6968025,2.36137158 19.9818945,3.3480333 20.9814106,4.53592207 C21.9809266,5.71731965 22.6948666,7.00257636 23.1362114,8.37870981 C23.5645754,9.76133445 23.7138538,11.1958886 23.5645754,12.6953548 C23.4282778,14.194821 22.9804426,15.6618311 22.2405412,17.0963854 Z"></path>
            </g>
            <g transform="translate(1217.995472, 302.797399)" fill="#FFFFFF" fill-rule="nonzero" id="Shape">
                <path d="M8.72760357,12.0465912 C9.43505323,12.1309767 10.0451474,12.1115031 10.5578862,11.9881704 C11.0706249,11.8648377 11.5119697,11.6636106 11.8624493,11.377998 C12.212929,11.0988766 12.4855243,10.7613344 12.6802352,10.3523891 C12.8684557,9.94344381 12.9917726,9.49555132 13.0501859,9.00222047 C13.1605221,8.02854114 12.9333594,7.2236329 12.355717,6.60047813 C11.7780746,5.97083217 10.8175007,5.58785164 9.48048578,5.43206295 L7.40356934,5.19188871 L6.65068713,11.8129081 L8.72760357,12.0465912 Z M18.3722843,25.1328413 L13.6927319,24.6005632 C12.8230232,24.4967041 12.2324001,24.09425 11.927353,23.3996921 L8.96125667,16.4930601 C8.82495902,16.2074475 8.6497192,15.9737644 8.45500828,15.8244669 C8.253807,15.6751694 7.95525026,15.5778015 7.5528477,15.5323631 L6.23530384,15.3830656 L5.29420107,23.6333751 L0.121381063,23.0426763 L2.67209407,0.725946213 L9.92832088,1.55681924 C11.5444215,1.73857271 12.9009075,2.06313248 14.0042694,2.52400736 C15.1011409,2.98488224 15.9708497,3.55610745 16.6263764,4.23119178 C17.2819032,4.90627611 17.7232479,5.66574598 17.956901,6.5096014 C18.1905541,7.35345681 18.2554577,8.24924179 18.1451216,9.19695633 C18.0672372,9.92397023 17.885507,10.5990546 17.6194021,11.2222093 C17.3532972,11.8388729 17.0028175,12.4036069 16.5614728,12.9099202 C16.120128,13.4097422 15.6008989,13.8381611 14.9908047,14.2081593 C14.3872009,14.5781574 13.7057127,14.8572788 12.9528305,15.0455235 C13.2643679,15.2597329 13.5564343,15.5063984 13.8225392,15.8049933 C14.0886441,16.0970971 14.3158069,16.4411305 14.5170081,16.8176198 L18.3722843,25.1328413 Z"></path>
            </g>
            <g transform="translate(1256.937655, 299.797399)" fill="#FFFFFF" id="Path">
                <polygon points="18.6513699 4.90734379 12.4790339 6.25102126 16.3797426 24.1667208 11.2912973 25.2702241 7.39058861 7.36101569 1.21176219 8.70469316 0.335563071 4.66716956 17.7751708 0.869820196"></polygon>
            </g>
            <g transform="translate(1296.879839, 286.815008)" fill="#FFFFFF" fill-rule="nonzero" id="Shape">
                <path d="M12.926385,12.5734457 L7.97423739,8.37364219 C7.64322884,8.11399437 7.26678773,7.80241698 6.84491408,7.43891003 C6.42304043,7.06891189 5.98169568,6.67294897 5.50789912,6.23154767 C5.70261004,6.84821125 5.85837877,7.43241884 5.98818605,7.98417046 C6.11150296,8.52943088 6.20885842,9.00977934 6.27376206,9.42521586 L7.6497192,15.7346579 L12.926385,12.5734457 Z M24.4402906,15.6892195 L20.9744362,17.7599109 C20.5915048,17.9935939 20.221554,18.0909618 19.8710744,18.0520147 C19.5270851,18.0130675 19.2090573,17.8897348 18.9169909,17.6820165 L15.762674,15.007644 L8.43505323,19.3956921 L9.31774272,23.4397069 C9.36966563,23.7447931 9.32423308,24.0693529 9.1944258,24.4133862 C9.06461853,24.7639108 8.81149433,25.0495234 8.43505323,25.2702241 L4.94972783,27.3668802 L0.867288947,3.62857828 L5.43650512,0.882802587 L24.4402906,15.6892195 Z"></path>
            </g>
            <g transform="translate(1324.331658, 264.850226)" fill="#FFFFFF" id="Path">
                <polygon points="23.1186761 5.97696747 26.2924641 8.66432241 17.5499439 18.9983056 0.408892924 4.4904837 3.77090141 0.511380868 17.7446548 12.3253567"></polygon>
            </g>
        </g>
    </g>
</svg>