<?xml version="1.0" encoding="UTF-8"?>
<svg width="1170px" height="300px" viewBox="0 0 1170 300" version="1.1" xmlns="http://www.w3.org/2000/svg" xmlns:xlink="http://www.w3.org/1999/xlink">
    <!-- Generator: Sketch 52.5 (67469) - http://www.bohemiancoding.com/sketch -->
    <title>Group 51</title>
    <desc>Created with Sketch.</desc>
    <g id="Diagrams_InProgress" stroke="none" stroke-width="1" fill="none" fill-rule="evenodd">
        <g id="Group-51">
            <g id="Group-42" transform="translate(870.000000, 0.000000)">
                <g id="Group" transform="translate(189.870818, 267.233660)" fill="#9D9DA0">
                    <path d="M2.87019028,3.29613401 C2.8446186,3.29613401 2.81904692,3.29613401 2.79347524,3.29613401 C2.81904692,3.29613401 2.8446186,3.29613401 2.87019028,3.29613401 Z" id="Path"></path>
                </g>
                <g id="Group" transform="translate(189.870818, 267.233660)" fill="#9D9DA0">
                    <path d="M2.72187453,3.29613401 C2.69118851,3.29613401 2.66050249,3.29613401 2.62981647,3.29613401 C2.66050249,3.29613401 2.69118851,3.29613401 2.72187453,3.29613401 Z" id="Path"></path>
                </g>
                <g id="Group" transform="translate(189.870818, 267.233660)" fill="#65666C">
                    <path d="M2.5633301,3.29613401 L2.62981647,3.29613401 L2.5633301,3.29613401 Z" id="Path"></path>
                </g>
                <g id="Group" transform="translate(192.677703, 268.584676)" fill="#65666C">
                    <path d="M13.2327218,4.04428448 C11.4478185,3.52332367 4.99352601,1.98597856 0.0633057958,1.94511889 C4.99352601,1.98597856 11.4478185,3.52332367 13.2327218,4.04428448 Z" id="Path"></path>
                </g>
                <g id="Group" transform="translate(189.870818, 267.233660)" fill="#65666C">
                    <path d="M2.79347524,3.29613401 L2.72187453,3.29613401 L2.79347524,3.29613401 Z" id="Path"></path>
                </g>
                <g id="Group" transform="translate(118.666733, 248.649441)" fill="#FFFFFF" fill-rule="nonzero">
                    <path d="M10.861078,8.6520353 L6.47809181,6.01147907 C6.18657464,5.8582553 5.85414278,5.66417187 5.48079623,5.43433622 C5.10744968,5.20450057 4.70341711,4.94912763 4.28915586,4.66821739 C4.51418666,5.12278123 4.70853144,5.55180777 4.88241888,5.9706194 C5.04607764,6.37921611 5.17905038,6.73673823 5.28645145,7.04829322 L7.15829854,11.7778001 L10.861078,8.6520353 Z M20.2100848,9.60202264 L17.7756608,11.6603286 C17.5046009,11.8901642 17.2335411,12.0076358 16.9573669,12.0229581 C16.6863071,12.0382805 16.4203616,11.9820985 16.1697591,11.8595195 L13.3773315,10.1791655 L8.23742351,14.5153981 L9.43417821,17.5441212 C9.51089325,17.7739568 9.52112192,18.0344372 9.46486422,18.3204549 C9.40349219,18.6064726 9.24494776,18.8618455 8.98411661,19.0814663 L6.53946385,21.1499871 L0.340888221,3.23302145 L3.55269143,0.526068262 L20.2100848,9.60202264 Z" id="Shape"></path>
                </g>
                <g id="Group" transform="translate(147.045299, 230.526034)" fill="#FFFFFF" fill-rule="nonzero">
                    <path d="M8.75997197,8.79718641 C9.28674861,8.60310297 9.70612419,8.37326732 10.023213,8.102572 C10.3403019,7.83187668 10.5755614,7.53564407 10.7187628,7.21387416 C10.8670785,6.89210425 10.9386792,6.54990451 10.9233362,6.19748985 C10.9131076,5.84507519 10.8363925,5.48244561 10.7034198,5.12492349 C10.4323599,4.39455687 9.98741269,3.91445574 9.35323498,3.67951264 C8.72928595,3.44967699 7.91610647,3.52118141 6.92392523,3.88891845 L5.37428132,4.4660613 L7.2154424,9.37432926 L8.75997197,8.79718641 Z M20.210971,14.5277552 L16.728108,15.8250498 C16.0837016,16.0651004 15.5262389,15.9987034 15.071063,15.615644 L10.5141893,11.8361244 C10.3096159,11.6777932 10.1101568,11.5807515 9.91581198,11.5449993 C9.7214672,11.5143545 9.47597905,11.5501067 9.17934755,11.6573634 L8.20250931,12.0251004 L10.4886176,18.1489436 L6.64263673,19.5841395 L0.454289777,3.0257579 L5.8499146,1.01341911 C7.0466693,0.569070194 8.11556559,0.308589793 9.05660347,0.242192828 C9.99252702,0.170688404 10.8159352,0.257515204 11.5114849,0.49756577 C12.2070347,0.737616336 12.790069,1.11046083 13.2605879,1.62120672 C13.7259925,2.12684514 14.0891104,2.73463275 14.3550559,3.43946207 C14.554515,3.97574525 14.6721448,4.51202843 14.7028308,5.04320415 C14.7386311,5.57437987 14.6926021,6.09534067 14.5647437,6.60608656 C14.4368853,7.11172498 14.2271975,7.60204103 13.930566,8.07703471 C13.6339345,8.55202838 13.2554736,8.98616238 12.790069,9.39475909 C13.0918148,9.42540385 13.3884463,9.50201573 13.6799635,9.61437982 C13.9714807,9.72674392 14.2527692,9.87996768 14.5289433,10.0791586 L20.210971,14.5277552 Z" id="Shape"></path>
                </g>
                <g id="Group" transform="translate(181.493616, 224.067560)" fill="#FFFFFF">
                    <polygon id="Path" points="14.8734569 3.44210806 9.89209333 3.56979453 10.2603255 17.9881509 6.15862781 18.0954075 5.7903956 3.67194371 0.814146356 3.79963018 0.727202638 0.551286349 14.7865132 0.193764229"></polygon>
                </g>
                <g id="Group" transform="translate(213.531672, 227.329404)" fill="#FFFFFF">
                    <path d="M20.9525498,5.16514475 L15.3523515,21.9380396 L13.3270743,21.2587476 C13.0253285,21.1565984 12.790069,21.0289119 12.6212959,20.8654733 C12.4474085,20.6969271 12.304207,20.4670915 12.181463,20.1606439 L7.60413196,7.52479074 C7.53253125,7.83634573 7.45581621,8.13257834 7.37910116,8.41859604 C7.29215744,8.69950627 7.2154424,8.96509413 7.12849868,9.21025216 L4.13149759,18.1993797 L0.694663584,17.055309 L6.29486186,0.287521543 L8.34059639,0.971921029 C8.50936949,1.02810308 8.6525709,1.08428512 8.75997197,1.13535971 C8.87248737,1.19154176 8.96454542,1.25283127 9.0463748,1.32944315 C9.12308985,1.40094757 9.18957622,1.48777437 9.25094825,1.59503101 C9.31232029,1.69718019 9.36857799,1.83508158 9.43506436,1.99852026 L14.0584244,14.7263077 C14.1300251,14.3943229 14.2067402,14.072553 14.2885695,13.760998 C14.3806276,13.4545505 14.462457,13.1634253 14.554515,12.8978375 L17.5157158,4.02618142 L20.9525498,5.16514475 Z" id="Path"></path>
                </g>
                <g id="Group" transform="translate(245.173104, 244.497396)" fill="#FFFFFF">
                    <polygon id="Path" points="12.5097474 5.30122308 9.96280788 8.54445945 14.3355654 11.9766718 12.458604 14.3618551 8.08584645 10.9296427 5.47753493 14.2392761 11.1902486 18.7185175 9.24168646 21.195635 0.286483558 14.1677717 11.2158203 0.270376112 20.1761375 7.30334695 18.222461 9.7804645"></polygon>
                </g>
                <g id="Group" transform="translate(266.585863, 269.079276)" fill="#FFFFFF" fill-rule="nonzero">
                    <path d="M11.1400721,9.72460166 C11.4469323,10.1893804 11.7640212,10.5469025 12.096453,10.8022755 C12.4288849,11.052541 12.7664311,11.2159796 13.1193203,11.2874841 C13.4619808,11.3589885 13.8097557,11.3487736 14.1524162,11.2670542 C14.4950767,11.17512 14.8326229,11.0270037 15.1548261,10.8124904 C15.8094612,10.3885713 16.1776934,9.84207321 16.2697515,9.18321102 C16.3618095,8.52434883 16.1163214,7.74801508 15.533287,6.85931724 L14.6331638,5.48030335 L10.2348346,8.33537285 L11.1400721,9.72460166 Z M8.05101298,22.1357267 L6.01550712,19.0201768 C5.64216057,18.4481414 5.58590287,17.8914284 5.8569627,17.3602526 L8.55733227,12.09957 C8.66473334,11.8646269 8.7158767,11.6501136 8.71076236,11.4509227 C8.70053369,11.2517319 8.60847564,11.0218962 8.43970254,10.7563083 L7.86178253,9.88293288 L2.37921399,13.4530466 L0.139134685,10.0157268 L14.9655957,0.367737037 L18.1057982,5.18407074 C18.8064623,6.25152964 19.2923242,7.24237665 19.5684984,8.13618195 C19.8344439,9.03509471 19.9367306,9.85228813 19.8497869,10.5877622 C19.7730718,11.3181288 19.532698,11.9667761 19.1388941,12.5388115 C18.7399759,13.100632 18.2336566,13.590948 17.5994789,13.9995447 C17.1187313,14.3110997 16.6226407,14.5460428 16.111207,14.6941591 C15.5997734,14.8473829 15.0832254,14.9086724 14.5513344,14.8984575 C14.0296721,14.8831351 13.5028955,14.7860934 12.9761189,14.6022249 C12.4493422,14.4183563 11.9379086,14.1425536 11.441818,13.7850314 C11.472504,14.0812641 11.4673896,14.3826041 11.4213606,14.6941591 C11.3753316,15.0006067 11.2832735,15.3121616 11.1503008,15.6237166 L8.05101298,22.1357267 Z" id="Shape"></path>
                </g>
                <g id="Group" transform="translate(0.638397, 0.223052)" fill="#FFFFFF">
                    <path d="M149.308955,0.0118950056 C66.9046145,0.0118950056 0.103534518,66.9203862 0.103534518,149.455865 C0.103534518,231.991648 66.9046145,298.90014 149.308955,298.90014 C231.713296,298.90014 298.514376,231.991648 298.514376,149.455865 C298.514376,66.9203862 231.713296,0.0118950056 149.308955,0.0118950056 Z" id="Path"></path>
                </g>
                <g id="Group" transform="translate(4.597070, 4.188054)" fill="#E4E4E4" fill-rule="nonzero">
                    <path d="M158.80977,242.858803 C154.601396,246.879925 150.146367,250.886712 145.39596,254.866659 L145.252838,254.060544 L145.246748,254.866659 C140.496341,250.883662 136.038266,246.87413 131.823802,242.849653 C105.224567,239.176232 82.0236993,224.83177 66.6823198,204.260425 C54.3282157,194.035601 43.5240843,181.68706 38.2773203,167.410308 C33.0336015,153.142097 34.0719918,140.754516 41.3681302,130.592826 C43.6702507,127.383309 46.5844428,124.447073 50.095481,121.782592 C53.4055405,108.398881 59.4501292,96.0988349 67.6080402,85.5095349 C68.1013518,80.4657476 68.7651907,76.1835456 69.4016235,72.803229 C70.9576864,63.9954349 79.7093983,61.7698488 79.7093983,61.7698488 C85.9488756,60.2210581 92.9496361,59.1050626 100.008254,58.3032172 C113.571276,51.2128789 128.991829,47.198772 145.350283,47.198772 C161.714827,47.198772 177.138425,51.2159289 190.704492,58.3108422 C197.741794,59.1123826 204.718193,60.2262431 210.93331,61.7698488 C210.93331,61.7698488 219.685021,63.9954349 221.241084,72.803229 C221.877517,76.1658556 222.538311,80.4193875 223.028577,85.4284049 C228.552448,92.5818782 233.111012,100.517372 236.512426,109.043041 C236.524606,109.044871 236.542877,109.046701 236.545922,109.047311 L236.545922,109.126916 C241.022268,120.375321 243.48578,132.644562 243.48578,145.490863 C243.48578,195.201616 206.639672,236.28605 158.80977,242.858803 Z M145.350283,0.00640500299 C65.1293021,0.00640500299 0.0974442522,65.1419304 0.0974442522,145.490863 C0.0974442522,225.8401 65.1293021,290.975931 145.350283,290.975931 C225.571263,290.975931 290.603121,225.8401 290.603121,145.490863 C290.603121,65.1419304 225.571263,0.00640500299 145.350283,0.00640500299 Z" id="Shape"></path>
                </g>
                <g id="Group" transform="translate(104.477429, 51.158076)" fill="#FFFFFF">
                    <path d="M45.442518,9.4138294 C50.0467589,9.31744935 70.6744891,9.04569422 90.8241333,11.3408203 C77.2580663,4.24590698 61.8344683,0.228750107 45.4699242,0.228750107 C29.1114703,0.228750107 13.6909174,4.24285698 0.127895581,11.3331953 C20.2592691,9.04660922 40.8413222,9.31744935 45.442518,9.4138294 Z" id="Path"></path>
                </g>
                <g id="Group" transform="translate(149.849909, 60.308080)" fill="#65666C">
                    <path d="M0.0700380563,0.263825123 C0.688200031,0.276940129 1.02316465,0.286700134 1.02316465,0.286700134 L0.785644283,46.2752316 C4.42457808,46.2999366 8.15182072,46.3652066 11.9673722,46.4737867 C12.786513,46.4972717 13.6086988,46.5235017 14.436975,46.5515617 C14.5922768,46.5570517 14.7506237,46.5619317 14.9089706,46.5674217 C15.7098405,46.5954818 16.5107105,46.6250668 17.3176707,46.6570918 C17.4638371,46.6625818 17.6069583,46.6686818 17.7531247,46.6744768 C18.5539946,46.7068068 19.3579097,46.7406618 20.1648699,46.7766518 C20.2075018,46.7784818 20.2501337,46.7803118 20.2927655,46.7821418 C21.1240868,46.8193519 21.9554081,46.8590019 22.7897745,46.8998719 C22.9633471,46.9084119 23.1369196,46.9169519 23.3104922,46.9254919 C24.1235427,46.9663619 24.9396383,47.0084519 25.758779,47.052372 C25.8927649,47.059692 26.0297959,47.067317 26.1668269,47.074637 C26.9342003,47.116422 27.704619,47.159427 28.4719924,47.203957 C28.5846624,47.210362 28.6942871,47.216462 28.8039119,47.222867 C29.6260978,47.2707521 30.4452386,47.3201621 31.2674244,47.3707921 C31.4440421,47.3817721 31.623705,47.3927521 31.8003227,47.4037321 C32.6225086,47.4549722 33.4446944,47.5074322 34.2638352,47.5611122 C34.3765051,47.5684322 34.4861299,47.5760572 34.5987998,47.5833772 C35.3722636,47.6343122 36.1426822,47.6864673 36.9131008,47.7395373 C37.0409964,47.7483823 37.168892,47.7569223 37.2967875,47.7657673 C38.1037477,47.8218873 38.910708,47.8789224 39.714623,47.9368724 C39.897331,47.9502924 40.0830841,47.9634074 40.2657921,47.9768274 C41.0727523,48.0356924 41.8766674,48.0948625 42.6775373,48.1552525 C42.7749816,48.1625725 42.8724258,48.1705025 42.9729152,48.1778225 C43.7159276,48.2342475 44.4589401,48.2912825 45.1958622,48.3492326 C45.3542091,48.3614326 45.5156012,48.3739376 45.6739481,48.3861376 C46.4595924,48.4480526 47.2421915,48.5105776 48.0187004,48.5737127 C48.1831376,48.5871327 48.3506199,48.6005527 48.5150571,48.6139727 C49.3037465,48.6786327 50.0924359,48.7432928 50.8719899,48.8088678 C50.9389828,48.8143578 50.9998855,48.8198478 51.0668784,48.8250328 C51.812936,48.8878628 52.5529033,48.9509979 53.2898254,49.0147429 C53.4420821,49.0278579 53.5973839,49.0409729 53.7496405,49.0543929 C54.4926529,49.1184429 55.2295751,49.183103 55.960407,49.248068 C56.1339795,49.263623 56.3075521,49.279178 56.4841698,49.294733 C57.2058663,49.359088 57.9214725,49.4234431 58.6309885,49.4881031 C58.6675301,49.4914581 58.7040717,49.4945081 58.7375682,49.4978631 C59.4836257,49.5658781 60.2205479,49.6338932 60.9544249,49.7022132 C61.1005913,49.7159382 61.2467576,49.7296632 61.3959692,49.7433882 C62.1085303,49.8098783 62.8150011,49.8766733 63.5092914,49.9431633 C63.6402321,49.9553633 63.7681277,49.9678683 63.8960233,49.9800683 C64.553772,50.0428984 65.2023853,50.1054234 65.8418632,50.1679484 C65.9179915,50.1749634 65.9910747,50.1819784 66.0641579,50.1892984 C66.7523579,50.2563985 67.4253323,50.3228885 68.0922164,50.3890735 C68.2262022,50.4021885 68.3571429,50.4153035 68.4880836,50.4284185 C69.1366969,50.4927736 69.7761749,50.5568236 70.4034722,50.6205686 C70.5283227,50.6330736 70.6470829,50.6452736 70.7719333,50.6577787 C71.3413732,50.7157287 71.9047227,50.7730687 72.4589369,50.8301037 C72.5502909,50.8395587 72.6416449,50.8490137 72.7329989,50.8584687 C73.3389803,50.9206888 73.9297361,50.9822988 74.5144016,51.0432988 C74.6514326,51.0573288 74.7854184,51.0716638 74.9194043,51.0859989 C75.4736185,51.1439489 76.0217424,51.2015939 76.5515955,51.2580189 C76.6703557,51.2708289 76.7860707,51.2830289 76.9017858,51.2952289 C77.3768265,51.345859 77.8396867,51.395574 78.2964567,51.444679 C78.3482239,51.450474 78.4060814,51.456269 78.4578487,51.462064 C78.7471363,43.0577851 78.3939009,35.5865016 77.7757389,29.3083787 C77.2854725,24.2993613 76.6246787,20.0458294 75.9882459,16.6832028 C74.432183,7.87540868 65.6804711,5.64982264 65.6804711,5.64982264 C59.4653549,4.10621692 52.4889555,2.9923564 45.4516534,2.19081602 C25.3020091,-0.104310049 4.67427897,0.167445078 0.0700380563,0.263825123 Z" id="Path"></path>
                </g>
                <g id="Group" transform="translate(149.849909, 128.018112)" fill="#65666C">
                    <path d="M77.0936292,0.288225135 C66.8558924,1.95596591 52.0778625,4.61678716 36.0878698,8.32497889 C22.9877081,11.3636953 11.114735,14.6247568 0.578575248,18.0614984 L0,130.230486 L0.143121245,131.036601 C4.89352854,127.056654 9.34855795,123.049867 13.5569316,119.028746 C57.245453,77.2958811 72.7269086,33.8913108 77.0936292,0.288225135 Z" id="Path"></path>
                </g>
                <g id="Group" transform="translate(71.285480, 60.308080)" fill="#9D9DA0">
                    <path d="M0.49635666,56.5311664 C18.9955389,49.4835281 45.3420286,46.0455665 79.3500726,46.2752316 L79.587593,0.286700134 C79.587593,0.286700134 79.2526284,0.276940129 78.6344664,0.263825123 C74.0332706,0.167445078 53.4512175,-0.103395048 33.319844,2.18319102 C26.261226,2.98503639 19.2604655,4.10103191 13.0209882,5.64982264 C13.0209882,5.64982264 4.2692763,7.87540868 2.7132134,16.6832028 C2.07678063,20.0635194 1.41294166,24.3457214 0.91963013,29.3895087 C0.185753106,36.8888522 -0.170527441,46.0812515 0.49635666,56.5311664 Z" id="Path"></path>
                </g>
                <g id="Group" transform="translate(95.037517, 146.013120)" fill="#9D9DA0">
                    <path d="M55.3909671,0.066490031 C41.5751992,4.57439214 30.0737323,9.38454938 21.1484479,14.3932617 L21.1454027,14.3889917 C21.1454027,14.3889917 20.6033691,14.6705068 19.7233257,15.2057821 C16.0661211,17.3325481 12.8748218,19.4934741 10.1676987,21.6812401 C9.96671992,21.8453302 9.77487655,22.0112503 9.57998805,22.1762554 C5.52996131,25.3754018 -4.95138607,35.8167767 3.20347979,53.1474948 C3.3618267,53.59005 3.50494795,54.0277252 3.68461079,54.4769904 C3.68461079,54.4769904 6.81500739,60.1127831 12.9661758,68.626862 C16.4010857,73.3815093 20.7738965,79.0291969 26.0815631,85.1060197 C29.5347438,89.0591266 33.3807466,93.1903535 37.6134814,97.3691605 L37.6317522,97.3688555 C38.8589407,98.588856 40.1104903,99.8073316 41.3833559,101.024587 C45.5978198,105.049064 50.0558943,109.058596 54.8063016,113.041593 L54.8123919,112.235477 L55.3909671,0.066490031 Z" id="Path"></path>
                </g>
                <g id="Group" transform="translate(39.311585, 89.588094)" fill="#FFFFFF">
                    <path d="M201.831407,23.647271 C201.828362,23.646661 201.810091,23.644831 201.797911,23.643001 C198.396498,15.1173321 193.837934,7.18183835 188.314063,0.0283650132 C188.932225,6.30648794 189.28546,13.7777714 188.996172,22.1820504 C188.944405,22.1762554 188.886548,22.1704604 188.83478,22.1646653 C188.37801,22.1155603 187.91515,22.0658453 187.440109,22.0152153 C187.324394,22.0030153 187.208679,21.9908153 187.089919,21.9780053 C186.560066,21.9215802 186.011942,21.8639352 185.457728,21.8059852 C185.323742,21.7916502 185.189756,21.7773152 185.052725,21.7632852 C184.46806,21.7022851 183.877304,21.6406751 183.271322,21.5784551 C183.179968,21.5690001 183.088615,21.5595451 182.997261,21.5500901 C182.443046,21.493055 181.879697,21.435715 181.310257,21.377765 C181.185406,21.36526 181.066646,21.35306 180.941796,21.340555 C180.314498,21.2768099 179.675021,21.2127599 179.026407,21.1484049 C178.895467,21.1352899 178.764526,21.1221749 178.63054,21.1090599 C177.963656,21.0428748 177.290682,20.9763848 176.602481,20.9092848 C176.529398,20.9019648 176.456315,20.8949498 176.380187,20.8879348 C175.740709,20.8254097 175.092096,20.7628847 174.434347,20.7000547 C174.306451,20.6878547 174.178556,20.6753497 174.047615,20.6631496 C173.353325,20.5966596 172.646854,20.5298646 171.934293,20.4633746 C171.785081,20.4496495 171.638915,20.4359245 171.492748,20.4221995 C170.758871,20.3538795 170.021949,20.2858645 169.275892,20.2178494 C169.242395,20.2144944 169.205854,20.2114444 169.169312,20.2080894 C168.459796,20.1434294 167.74419,20.0790744 167.022493,20.0147193 C166.845876,19.9991643 166.672303,19.9836093 166.498731,19.9680543 C165.767899,19.9030893 165.030977,19.8384293 164.287964,19.7743792 C164.135707,19.7609592 163.980406,19.7478442 163.828149,19.7347292 C163.091227,19.6709842 162.35126,19.6078492 161.605202,19.5450191 C161.538209,19.5398341 161.477306,19.5343441 161.410314,19.5288541 C160.63076,19.4632791 159.84207,19.3986191 159.053381,19.333959 C158.888943,19.320539 158.721461,19.307119 158.557024,19.293699 C157.780515,19.230564 156.997916,19.1680389 156.212272,19.1061239 C156.053925,19.0939239 155.892533,19.0814189 155.734186,19.0692189 C154.997264,19.0112689 154.254251,18.9542338 153.511239,18.8978088 C153.410749,18.8904888 153.313305,18.8825588 153.215861,18.8752388 C152.414991,18.8148488 151.611076,18.7556788 150.804116,18.6968137 C150.621408,18.6833937 150.435655,18.6702787 150.252947,18.6568587 C149.449032,18.5989087 148.642071,18.5418737 147.835111,18.4857536 C147.707216,18.4769086 147.57932,18.4683686 147.451424,18.4595236 C146.681006,18.4064536 145.910587,18.3542986 145.137123,18.3033635 C145.024453,18.2960435 144.914829,18.2884185 144.802159,18.2810985 C143.983018,18.2274185 143.160832,18.1749585 142.338646,18.1237185 C142.162029,18.1127385 141.982366,18.1017585 141.805748,18.0907784 C140.983562,18.0401484 140.164421,17.9907384 139.342236,17.9428534 C139.232611,17.9364484 139.122986,17.9303484 139.010316,17.9239434 C138.242943,17.8794133 137.472524,17.8364083 136.70515,17.7946233 C136.568119,17.7873033 136.431088,17.7796783 136.297103,17.7723583 C135.477962,17.7284383 134.661866,17.6863483 133.848816,17.6454782 C133.675243,17.6369382 133.501671,17.6283982 133.328098,17.6198582 C132.493732,17.5789882 131.66241,17.5393382 130.831089,17.5021282 C130.788457,17.5002982 130.745825,17.4984682 130.703194,17.4966382 C129.896233,17.4606482 129.092318,17.4267931 128.291448,17.3944631 C128.145282,17.3886681 128.002161,17.3825681 127.855994,17.3770781 C127.049034,17.3450531 126.248164,17.3154681 125.447294,17.2874081 C125.288947,17.2819181 125.1306,17.2770381 124.975299,17.2715481 C124.147022,17.2434881 123.324837,17.217258 122.505696,17.193773 C118.690144,17.085193 114.962902,17.0199229 111.323968,16.9952179 C77.3159239,16.7655528 50.9694342,20.2035144 32.4702519,27.2511527 C31.8033678,16.8012378 32.1596484,7.60883855 32.8935254,0.109495051 C24.7356144,10.698795 18.6910256,22.9988407 15.3809662,36.382552 C11.869928,39.0470332 8.9557358,41.9832696 6.65361535,45.1927861 C-0.642523038,55.3544758 -1.68091335,67.7420566 3.56280547,82.0102683 C8.80956943,96.28702 19.6137009,108.635561 31.967805,118.860385 C47.3091844,139.43173 70.5100519,153.776192 97.1092876,157.449614 C95.8364221,156.232358 94.5848724,155.013882 93.3576839,153.793882 L93.3394131,153.794187 C89.1066784,149.61538 85.2606756,145.484153 81.8074949,141.531046 C60.61337,131.856747 20.8591602,110.197466 9.67134203,79.7569272 C-7.65546406,32.6017702 56.5968397,21.8395352 122.319943,23.7137611 C157.737883,24.7236165 201.027492,30.1193741 201.027492,30.1193741 C201.027492,30.1193741 98.7597496,43.1611802 61.804017,73.0307591 C42.1050524,88.9520715 53.9110325,109.590211 68.6921075,125.051888 C62.5409391,116.537809 59.4105425,110.902017 59.4105425,110.902017 C59.2308797,110.452752 59.0877584,110.015076 58.9294115,109.572521 C50.7745457,92.2418031 61.255893,81.8004282 65.3059198,78.6012817 C65.5008083,78.4362766 65.6926517,78.2703565 65.8936304,78.1062665 C68.6007536,75.9185004 71.7920528,73.7575744 75.4492574,71.6308084 C76.3293008,71.0955332 76.8713345,70.8140181 76.8713345,70.8140181 L76.8743796,70.8182881 C85.7996641,65.8095757 97.301131,60.9994185 111.116899,56.4915164 C121.653059,53.0547748 133.526032,49.7937132 146.626193,46.7549968 C162.616186,43.0468051 177.394216,40.3859839 187.631953,38.7182431 C183.265232,72.3213288 167.783777,115.725899 124.095255,157.458764 C171.925157,150.88601 208.771265,109.801576 208.771265,60.0908231 C208.771265,47.2445221 206.307753,34.9752813 201.831407,23.7268761 L201.831407,23.647271 Z" id="Path"></path>
                </g>
                <g id="Group" transform="translate(46.010877, 113.073105)" fill="#F36D24">
                    <path d="M61.9928152,101.566877 C47.2117402,86.1052002 35.40576,65.4670606 55.1047246,49.5457481 C92.0604573,19.6761692 194.3282,6.6343631 194.3282,6.6343631 C194.3282,6.6343631 151.038591,1.23860558 115.62065,0.228750107 C49.8975474,-1.64547577 -14.3547564,9.11675926 2.97204969,56.2719163 C14.1598679,86.7124555 53.9140777,108.371736 75.1082025,118.046035 C69.8005359,111.969212 65.4277251,106.321525 61.9928152,101.566877 Z" id="Path"></path>
                </g>
                <g id="Group" transform="translate(24.390434, 184.138138)" fill="#65666C">
                    <path d="M7.6676446,19.5075041 C6.69624721,19.4910341 5.78575248,19.281499 4.93920553,18.8773738 C4.08961346,18.4723336 3.32223997,17.8836833 2.63403994,17.112338 C1.94583991,16.3409926 1.38858059,15.4043372 0.956171725,14.3023717 C0.520717723,13.1830212 0.29537789,12.1109457 0.280152225,11.0855352 C0.264926561,10.0589047 0.435454002,9.11736926 0.791734549,8.26001386 C1.14496996,7.40265846 1.67786822,6.6416831 2.38433905,5.97769779 C3.09080987,5.31462748 3.95258248,4.78209723 4.972702,4.38285205 L15.5271326,0.247660116 L17.1166919,4.32185202 L6.90027111,8.32558889 C6.43741091,8.50645397 6.02327284,8.73855908 5.65481176,9.02068421 C5.28635068,9.30280934 4.98792766,9.6325145 4.75649756,10.0076647 C4.5281126,10.3837298 4.39412675,10.812865 4.36367542,11.2950703 C4.33017896,11.7775805 4.42762321,12.3061457 4.65296304,12.882291 C4.87525774,13.4575213 5.16454537,13.9107515 5.51473565,14.2435067 C5.86492593,14.5759568 6.25470294,14.8059269 6.68102154,14.933417 C7.10734015,15.060297 7.54888441,15.098727 8.00869948,15.048707 C8.46546941,14.997467 8.92832961,14.8821769 9.39118981,14.7007019 L19.6076106,10.696965 L21.2093505,14.7952519 L10.65492,18.9304438 C9.63480044,19.329689 8.63904199,19.5221441 7.6676446,19.5075041 Z" id="Path"></path>
                </g>
                <g id="Group" transform="translate(41.138665, 215.553153)" fill="#65666C">
                    <polygon id="Path" points="7.29918352 20.6485096 11.9308306 7.44840848 11.8821085 7.38832345 2.704078 14.970627 0.0182707973 11.6513104 14.1537776 0.180255084 17.3085353 4.0787669 12.6799333 17.2431831 12.7286554 17.3029631 21.88537 9.73712955 24.5711772 13.0567511 10.4356704 24.5275015"></polygon>
                </g>
                <g id="Group" transform="translate(69.762914, 241.478165)" fill="#65666C">
                    <polygon id="Path" points="0.2222947 14.994722 10.907666 0.247660116 14.482652 2.84717633 3.80032584 17.5948482"></polygon>
                </g>
                <g id="Group" transform="translate(98.996189, 253.373170)" fill="#65666C">
                    <polygon id="Path" points="4.17183205 21.330185 0.0822185878 19.7188692 0.334964617 0.238510111 4.927025 2.04685596 4.12615505 15.6144823 4.22055417 15.6523023 12.8382802 5.16609241 17.3603026 6.94668324"></polygon>
                </g>
                <g id="Group" transform="translate(131.579111, 263.743175)" fill="#65666C">
                    <polygon id="Path" points="0.240565498 18.3064135 1.88798239 0.161040075 14.0685139 1.27154559 13.7335493 4.96235232 5.77661708 4.23645198 5.46296839 7.67075358 12.9874917 8.3570039 12.6677528 11.8678605 5.14322944 11.1825252 4.80217455 14.949277 13.221967 15.7169623 12.8809121 19.4587041"></polygon>
                </g>
                <g id="Group" transform="translate(164.771060, 262.523174)" fill="#65666C" fill-rule="nonzero">
                    <path d="M10.6153332,5.33048749 C10.5361598,4.91019729 10.3839031,4.58537214 10.1555182,4.35723203 C9.92713319,4.13000693 9.66220663,3.97049185 9.35769335,3.87960181 C9.05013492,3.78993177 8.71821544,3.75211175 8.36193489,3.76766676 C8.00565435,3.78200177 7.6676446,3.82073678 7.34486051,3.88173681 L5.03664979,4.31849702 L5.8253392,8.49059396 L7.8808039,8.10202378 C8.23403931,8.03431375 8.59336499,7.93671371 8.9557358,7.80617364 C9.31506149,7.67654858 9.63480044,7.50757851 9.9088624,7.29773841 C10.1859695,7.08881331 10.3930385,6.82224319 10.5331146,6.49924803 C10.6731908,6.17533788 10.7036421,5.7858527 10.6153332,5.33048749 Z M13.1367033,17.7131883 L7.91430036,11.3429553 L6.44350118,11.6214204 L7.78640478,18.7270087 L3.56889574,19.5264141 L0.188798239,1.62260076 L7.00380563,0.331230155 C7.8625331,0.168970079 8.71517031,0.0991250463 9.56476238,0.121390057 C10.4173996,0.143655067 11.2030439,0.304085142 11.9308306,0.602985282 C12.6586174,0.901580421 13.2828696,1.35969063 13.8005422,1.97731592 C14.3182148,2.59494121 14.6744954,3.4187466 14.8663387,4.44629208 C15.0977688,5.66019264 14.9607378,6.74294315 14.4613361,7.69301859 C13.9588891,8.64339904 13.1641094,9.40589939 12.0678616,9.97929966 L18.1885787,16.7560978 L13.1367033,17.7131883 Z" id="Shape"></path>
                </g>
                <g id="Group" transform="translate(197.658495, 250.628169)" fill="#65666C">
                    <path d="M9.72006416,4.43927707 C9.16889511,4.18094195 8.5568234,4.0632119 7.88689416,4.08547691 C7.21696493,4.10743692 6.62925428,4.24590698 6.12376223,4.5008871 C5.86492593,4.63356216 5.6121799,4.79002724 5.36856927,4.97089232 C5.12495864,5.15236741 4.927025,5.3622075 4.77781349,5.60102262 C4.63164711,5.83983773 4.53724799,6.09878285 4.49461613,6.37907798 C4.45502941,6.65937311 4.51593206,6.96010325 4.67732411,7.2818784 C4.81740022,7.55759853 4.99097279,7.75767862 5.19804183,7.88333868 C5.40511086,8.00899874 5.65481176,8.08524877 5.94409939,8.11025879 C6.23643214,8.1364888 6.56530649,8.1288638 6.92767731,8.08921378 C7.29309325,8.04864876 7.69505079,7.99344373 8.13964019,7.9217687 C8.78216323,7.82721865 9.45818273,7.74029361 10.1676987,7.66007858 C10.8741695,7.58077854 11.5654147,7.59999355 12.2414342,7.7198586 C12.9144086,7.83972366 13.5508413,8.09012878 14.1476874,8.47076895 C14.7414883,8.85262913 15.2439352,9.44920941 15.6550281,10.2602048 C16.1239786,11.1938102 16.361499,12.0889856 16.361499,12.944511 C16.361499,13.8000364 16.1818361,14.5973068 15.8255556,15.3347972 C15.469275,16.0735075 14.9698732,16.7393228 14.3273502,17.3328531 C13.6878723,17.9263834 12.9692209,18.4241436 12.1744413,18.8273538 C11.0112005,19.4150891 9.78705708,19.7813942 8.49592074,19.9253543 C7.2047844,20.0693144 6.01109231,19.9476193 4.91484447,19.5608791 L6.16334895,15.6422373 C6.80891712,15.9313774 7.53670388,16.0753375 8.35279949,16.0753375 C9.16889511,16.0762525 9.89668187,15.9139924 10.5392049,15.5882523 C10.8315377,15.4412422 11.0995094,15.2673921 11.34312,15.067312 C11.5867306,14.8672319 11.7755289,14.6448868 11.9125598,14.4030217 C12.0495908,14.1605466 12.122674,13.8936715 12.1287643,13.6017864 C12.1348545,13.3099012 12.0587262,13.0033761 11.894289,12.6825159 C11.7389873,12.3759908 11.5319182,12.1548657 11.2730819,12.0176156 C11.0081554,11.8800605 10.6945067,11.7961855 10.3230005,11.7623305 C9.95149426,11.7303055 9.51908539,11.7467755 9.02272873,11.8144855 C8.5294172,11.8821955 7.97215788,11.9672906 7.35399591,12.0688556 C6.74801447,12.1643207 6.13898789,12.2222707 5.52691618,12.2436207 C4.91484447,12.2658857 4.32104356,12.1954307 3.75160371,12.0328656 C3.17911873,11.8706055 2.64622047,11.5930554 2.14986381,11.1996052 C1.65350715,10.807375 1.22109829,10.2428198 0.849592074,9.50807444 C0.392822142,8.60527402 0.185753106,7.73815861 0.228384966,6.90977823 C0.271016826,6.08139784 0.487221261,5.30913748 0.873953137,4.59391214 C1.26068501,3.87838181 1.78140274,3.23574651 2.43306117,2.66448124 C3.08776474,2.09413098 3.79423557,1.61558575 4.55856392,1.22793057 C5.47514892,0.764025357 6.49831357,0.458415214 7.6219676,0.310795145 C8.74866677,0.164700077 9.83577921,0.238205111 10.8893952,0.533140249 L9.72006416,4.43927707 Z" id="Path"></path>
                </g>
                <g id="Group" transform="translate(223.237611, 235.378162)" fill="#65666C">
                    <polygon id="Path" points="11.8790634 16.9729529 0.0152256644 3.15797147 3.36487183 0.271450127 15.2287095 14.0864316"></polygon>
                </g>
                <g id="Group" transform="translate(239.072302, 210.368150)" fill="#65666C">
                    <polygon id="Path" points="8.89483315 6.61606309 20.6429558 15.024612 18.0880893 18.6050087 6.33996666 10.1964598 3.3526913 14.3847217 0.298423022 12.2003107 8.82784022 0.244000114 11.8821085 2.42871613"></polygon>
                </g>
                <g id="Group" transform="translate(26.217514, 95.688097)" fill="#65666C">
                    <path d="M5.5847737,2.37717111 C4.99097279,2.52631618 4.43066834,2.82887632 3.90690549,3.28424153 C3.38618776,3.73960675 2.97813996,4.32520702 2.69189747,5.04195735 C2.53964082,5.42442753 2.43610631,5.83129772 2.38433905,6.26287292 C2.33257179,6.69505813 2.35693285,7.11626332 2.46046737,7.52709851 C2.56400189,7.93854371 2.74670986,8.31216888 3.00859129,8.64797404 C3.27047271,8.98438919 3.64197893,9.24790932 4.11701966,9.43914441 C4.57987985,9.62427949 5.00010819,9.68771952 5.38379493,9.6285495 C5.76748168,9.57029447 6.12985249,9.4284694 6.46786224,9.2039893 C6.80587199,8.97950919 7.13474634,8.68670906 7.45448529,8.32528389 C7.77422425,7.96416372 8.10918886,7.57589854 8.45937915,7.16170834 C8.86438182,6.65876311 9.29679069,6.15764787 9.75356062,5.65714264 C10.2133757,5.15755241 10.7188677,4.74183721 11.2761271,4.41030206 C11.8333864,4.0796819 12.4485032,3.87289181 13.1153873,3.79023677 C13.7853166,3.70819173 14.5435546,3.83568179 15.3840113,4.17362195 C16.2610096,4.52437211 16.9522548,4.99285233 17.4668822,5.5769276 C17.9815097,6.16222288 18.3408353,6.81004318 18.5448592,7.52038851 C18.7488832,8.23103884 18.8128309,8.98255919 18.7367026,9.77372956 C18.6605743,10.5652049 18.4717761,11.3356353 18.173353,12.0838006 C17.7470344,13.1509961 17.1258273,14.0998516 16.315822,14.929147 C15.5027715,15.7584424 14.5618254,16.3370276 13.4899387,16.6645978 L12.6738431,14.2032466 C13.4229457,14.0412916 14.1141909,13.6990814 14.7475785,13.1766162 C15.3809662,12.6547609 15.8529618,12.0032806 16.1635653,11.2227852 C16.3219122,10.8247601 16.4284919,10.4044699 16.4741689,9.96130465 C16.522891,9.51905444 16.4924397,9.08595424 16.38586,8.66383405 C16.2762353,8.24201885 16.0843919,7.85527867 15.8103299,7.5045285 C15.536268,7.15408334 15.1434458,6.87683821 14.6349086,6.67279312 C14.1263714,6.46813802 13.657421,6.40530799 13.2311024,6.48338803 C12.8017386,6.56116306 12.396736,6.73562314 12.0100041,7.00585327 C11.6263173,7.2769984 11.251766,7.62134356 10.8924403,8.04010875 C10.5300695,8.45917895 10.152473,8.90417416 9.76269602,9.37478938 C9.38814467,9.8530296 8.97705174,10.3080898 8.5385526,10.74119 C8.09700833,11.1749002 7.61587734,11.5262604 7.09211448,11.7967955 C6.56835163,12.0673306 5.99282151,12.2250157 5.36552414,12.2689357 C4.73822676,12.3134657 4.0378462,12.1795707 3.25829218,11.8669455 C2.41479038,11.5287004 1.76008681,11.0675402 1.29113634,10.4822449 C0.825231011,9.89725462 0.502446925,9.25065432 0.325829218,8.54183399 C0.146166378,7.83270866 0.106579651,7.09521831 0.197933637,6.32905796 C0.292332757,5.5625926 0.481130995,4.82937225 0.76128322,4.12848193 C1.1571505,3.14119647 1.69918415,2.28750107 2.39347444,1.56739573 C3.08776474,0.847900396 3.8338223,0.34312516 4.63164711,0.0536800251 L5.5847737,2.37717111 Z" id="Path"></path>
                </g>
                <g id="Group" transform="translate(44.792824, 61.528081)" fill="#65666C" fill-rule="nonzero">
                    <path d="M14.3090794,4.66253718 C13.5386608,4.03179688 12.7103846,3.56209666 11.824251,3.25374152 C10.9350722,2.94538638 10.0428482,2.81088131 9.14453404,2.85053133 C8.24926498,2.89140135 7.38140211,3.11649146 6.5470357,3.52824165 C5.70962415,3.93999184 4.95747633,4.55761713 4.28145683,5.37989751 C3.620663,6.18875789 3.16998333,7.04428329 2.92941783,7.94586371 C2.68885233,8.84713913 2.64013021,9.73895955 2.78325145,10.62102 C2.92332757,11.5027754 3.23393112,12.3506758 3.70897185,13.1625861 C4.18401258,13.9751065 4.80521969,14.6970419 5.57259317,15.3277822 C6.35519232,15.9701125 7.19260387,16.4480477 8.08787293,16.7612828 C8.983142,17.075433 9.87536594,17.209938 10.7675899,17.163883 C11.6567687,17.119048 12.512451,16.8909079 13.337682,16.4800727 C14.1598679,16.0698475 14.9028803,15.4598472 15.5667193,14.6503768 C16.2305583,13.8418215 16.6873282,12.9856861 16.9370291,12.0828856 C17.1897751,11.1806952 17.2506778,10.2873498 17.1227822,9.40376439 C16.9918415,8.52078898 16.6842831,7.67014358 16.2031521,6.8524382 C15.7220211,6.03473282 15.0886334,5.30486748 14.3090794,4.66253718 Z M16.0508954,2.53363618 C17.1380079,3.4257616 17.9784645,4.43409207 18.5783557,5.55710259 C19.1752018,6.68041812 19.5284372,7.84338366 19.6411071,9.04477922 C19.753777,10.2473948 19.616746,11.4551953 19.2330593,12.6697059 C18.8463274,13.8842165 18.2159849,15.028577 17.3359415,16.1030925 C16.4558981,17.177608 15.4601396,18.0194084 14.3517113,18.6287987 C13.2432829,19.238799 12.0891775,19.6057142 10.8924403,19.7298492 C9.69265796,19.8548993 8.48678534,19.7304592 7.27482245,19.356224 C6.0659047,18.9825989 4.91484447,18.3491136 3.83077717,17.4569882 C2.73148419,16.5538827 1.87884699,15.5440273 1.27591068,14.4268117 C0.672974367,13.3105112 0.322784085,12.1566957 0.2222947,10.9653651 C0.124850448,9.77464456 0.267971694,8.577824 0.65470357,7.37551344 C1.04143545,6.17289788 1.67482308,5.03433235 2.55486649,3.95981685 C3.43490989,2.88560635 4.42762321,2.03709595 5.53605158,1.41581066 C6.64143481,0.794220371 7.78944991,0.416325194 8.9740066,0.280295131 C10.1585633,0.145180068 11.3613908,0.261080122 12.5763988,0.627995293 C13.794452,0.995215465 14.9516024,1.63083576 16.0508954,2.53363618 Z" id="Shape"></path>
                </g>
                <g id="Group" transform="translate(73.417073, 33.163067)" fill="#65666C">
                    <polygon id="Path" points="18.7397478 13.7491014 18.7854247 13.7216514 11.0934191 1.35938563 13.2524183 0.0122000057 22.8719931 15.4757072 20.1465991 17.177303 4.13529045 9.6434945 4.09265859 9.67094452 11.9491014 22.2952054 9.79010221 23.642696 0.167482308 8.17918882 2.98118509 6.423303"></polygon>
                </g>
                <g id="Group" transform="translate(110.567694, 22.183062)" fill="#65666C">
                    <polygon id="Path" points="7.87775876 17.7442983 5.44165246 18.4741636 0.225339833 1.01870048 2.66449127 0.288225135"></polygon>
                </g>
                <g id="Group" transform="translate(137.973890, 16.693060)" fill="#65666C">
                    <path d="M16.8456751,15.7755224 C16.1574751,16.7759228 15.2500255,17.5994232 14.1233263,18.2451085 C12.993582,18.8907938 11.6263173,19.239714 10.015442,19.292174 C8.62990659,19.336399 7.34181538,19.1421139 6.15421355,18.7087087 C4.96661173,18.2749985 3.93431168,17.6473082 3.06035855,16.8256379 C2.18640541,16.0045775 1.48906998,15.014242 0.971397389,13.8552415 C0.456769932,12.6965459 0.173572574,11.4137153 0.127895581,10.0073597 C0.0822185878,8.58392401 0.286242491,7.2769984 0.736922157,6.08658284 C1.18455669,4.89677729 1.83012486,3.87167181 2.6675364,3.01187641 C3.50494795,2.152081 4.50679666,1.47132069 5.67308256,0.970205453 C6.83936845,0.469090219 8.11527913,0.196420092 9.50081459,0.151585071 C10.1189766,0.131760062 10.7462739,0.17171508 11.3827067,0.270840126 C12.0221846,0.370575173 12.6342563,0.531005248 13.2250121,0.752435351 C13.8127228,0.973560455 14.3547564,1.25263558 14.8450228,1.58783074 C15.3352892,1.9242459 15.7585627,2.31830608 16.1178883,2.77001129 L14.162913,4.37797204 C13.6970077,3.77529176 13.0514395,3.28546153 12.2262085,2.90878636 C11.4009775,2.53241618 10.517889,2.3588711 9.57694291,2.38937112 C8.51419154,2.42353113 7.56411008,2.64740124 6.72974367,3.06067643 C5.89537726,3.47395162 5.18890643,4.02447688 4.61033118,4.7125572 C4.03175594,5.40094252 3.59630193,6.19211289 3.29787891,7.08515331 C3.00250102,7.97941373 2.87156031,8.92308417 2.90201164,9.91738463 C2.9355081,10.9464551 3.12430634,11.9017156 3.47145149,12.782861 C3.8155515,13.6646164 4.29363736,14.4258967 4.90570907,15.067007 C5.51778078,15.7084223 6.25470294,16.2037426 7.11343041,16.5529677 C7.97215788,16.9034129 8.92528448,17.061098 9.96976505,17.027853 C10.9959748,16.9943029 11.9216952,16.7585378 12.7499714,16.3196426 C13.5752024,15.8807474 14.2481768,15.2588521 14.7719396,14.4521267 L16.8456751,15.7755224 Z" id="Path"></path>
                </g>
                <g id="Group" transform="translate(176.951591, 19.438061)" fill="#65666C">
                    <polygon id="Path" points="2.74061959 16.0314175 2.78934172 16.0463625 11.1847731 3.46876662 13.8583997 4.30568701 13.5812927 19.4260691 13.6300148 19.4416241 21.7787904 6.78655817 24.3549728 7.59328355 13.8249033 23.3858859 11.3004881 22.5947155 11.4436094 7.29743341 11.3948872 7.2821834 2.81370278 19.9369443 0.286242491 19.1457739 0.615116842 0.157990074 3.24002139 0.979660457"></polygon>
                </g>
                <g id="Group" transform="translate(210.448053, 42.313072)" fill="#65666C" fill-rule="nonzero">
                    <path d="M8.51419154,8.1337438 L13.9862953,12.1945157 L16.340183,3.30742154 L8.51419154,8.1337438 Z M2.33561692,11.9053756 L0.0639477905,10.2202498 L17.232407,0.286090134 L19.089938,1.66499578 L14.5344192,20.9623548 L12.2201183,19.246119 L13.3985847,14.5448468 L6.46177197,9.39613939 L2.33561692,11.9053756 Z" id="Shape"></path>
                </g>
                <g id="Group" transform="translate(237.854249, 66.103083)" fill="#65666C">
                    <polygon id="Path" points="3.6023922 11.7556205 8.51723667 18.2310785 6.714518 19.6014442 0.261881428 11.0974302 14.7475785 0.0735050343 16.2853707 2.10206098"></polygon>
                </g>
                <g id="Group" transform="translate(255.211506, 179.868136)" fill="#65666C">
                    <polygon id="Path" points="13.6939626 10.1665697 20.9505142 12.765781 19.4736248 16.9098179 12.214028 14.3093867 0.0426318603 17.220003 1.83316999 12.2033607 9.47645353 10.815305 4.44589401 4.88488228 6.17552948 0.0393450184"></polygon>
                </g>
                <g id="Group" transform="translate(253.688940, 95.688097)" fill="#65666C">
                    <polygon id="Path" points="3.28874351 8.46619395 6.34910206 15.9990875 4.25405064 16.8527829 0.237520365 6.95979825 17.0892857 0.0939400439 18.0454575 2.45403115"></polygon>
                </g>
            </g>
            <g id="Group" transform="translate(1078.205605, 278.050372)" fill="#9D9DA0">
                <path d="M2.77100175,1.20471469 C5.49032847,2.38079222 7.86170984,3.9898801 9.90655789,5.7593422 C7.86170984,3.9898801 5.49032847,2.38079222 2.77100175,1.20471469 C2.05369904,0.835854012 1.35245533,0.568563665 0.683329665,0.40284365 C0.60838759,0.381460422 0.442444424,0.338693967 0.313972296,0.301273318 C0.442444424,0.338693967 0.60838759,0.381460422 0.683329665,0.40284365 C1.35245533,0.568563665 2.05369904,0.835854012 2.77100175,1.20471469 Z" id="Path"></path>
            </g>
            <g id="Group" transform="translate(1087.496483, 283.396178)" fill="#65666C">
                <path d="M10.3260318,13.2381261 C11.0219225,14.4836991 11.6107531,15.8041134 12.2049367,17.1084903 C12.2691728,17.2474813 12.3708799,17.5147716 12.488646,17.8889781 C12.3708799,17.5147716 12.2691728,17.2474813 12.2049367,17.1084903 C11.6107531,15.8041134 11.0219225,14.4836991 10.3260318,13.2381261 C9.89779139,12.4736757 6.75022424,5.72726736 0.615680107,0.413535264 C6.75022424,5.72726736 9.89779139,12.4736757 10.3260318,13.2381261 Z" id="Path"></path>
            </g>
            <g id="Group-36" transform="translate(0.000000, 87.000000)">
                <g id="Group" transform="translate(73.632476, 3.902736)" fill="#686A6C" fill-rule="nonzero">
                    <path d="M41.8314534,7.86426657 C35.9397656,7.86426657 30.3541885,9.40167742 25.0784856,12.4783844 C19.8012145,15.5532061 15.6800126,19.6963288 12.7170755,24.9055531 C9.7522565,30.1150917 8.27125839,35.9219361 8.27125839,42.3257724 C8.27125839,51.8047445 11.5515971,59.809147 18.1097653,66.3396083 C24.6698154,72.8716407 32.5769402,76.1359287 41.8314534,76.1359287 C48.0113743,76.1359287 53.7299339,74.6346516 58.9896413,71.6320973 C64.2471533,68.629543 68.3504778,64.522554 71.2952239,59.3130155 C74.2421655,54.1034769 75.7153227,48.3148564 75.7153227,41.9452687 C75.7153227,35.6149567 74.2421655,29.8894916 71.2952239,24.7704445 C68.3504778,19.6510831 64.202303,15.5532061 58.8544634,12.4783844 C53.5050556,9.40167742 47.8310325,7.86426657 41.8314534,7.86426657 Z M41.4782971,0.110600577 C53.5392421,0.110600577 63.6311685,4.14186591 71.7547034,12.2021971 C79.8798065,20.2647278 83.9414172,30.1873591 83.9414172,41.9722904 C83.9414172,53.6507058 79.888902,63.5554273 71.7816763,71.689597 C63.6763323,79.8225099 53.791407,83.8895947 42.1284685,83.8895947 C30.320002,83.8895947 20.354158,79.8423049 12.2306231,71.7439547 C4.10551996,63.6456045 0.0439093044,53.8489699 0.0439093044,42.3527941 C0.0439093044,34.6893053 1.89374557,27.5854177 5.59498629,21.0423881 C9.29654065,14.4993585 14.3417197,9.37465569 20.7339735,5.66827955 C27.1246591,1.96378865 34.0394337,0.110600577 41.4782971,0.110600577 Z" id="Shape"></path>
                </g>
                <g id="Group" transform="translate(179.014807, 3.588530)" fill="#686A6C">
                    <polygon id="Path" points="0.141764326 84.8542077 0.141764326 0.138879133 1.98187782 0.138879133 58.2610605 65.0768137 58.2610605 0.138879133 66.5975556 0.138879133 66.5975556 84.8542077 64.7000464 84.8542077 8.88002954 20.7058733 8.88002954 84.8542077"></polygon>
                </g>
                <g id="Group" transform="translate(268.401605, 3.588530)" fill="#686A6C">
                    <rect id="Rectangle" x="0.126709707" y="0.102431216" width="7.91214301" height="84.594045"></rect>
                </g>
                <g id="Group" transform="translate(515.548261, 3.588530)" fill="#686A6C" fill-rule="nonzero">
                    <path d="M19.7999599,51.3130118 L31.0626965,22.4428051 L42.2595691,51.3130118 L19.7999599,51.3130118 Z M39.0667354,0.1473627 L22.8610657,0.1473627 L0.0439093044,61.2956565 L45.9354051,61.4785245 L54.7454934,84.4118054 L71.3494832,84.4118054 L39.0667354,0.1473627 Z" id="Shape"></path>
                </g>
                <g id="Group" transform="translate(603.994145, 3.588530)" fill="#686A6C">
                    <polygon id="Path" points="0.166228081 0.1473627 16.1429421 0.1473627 16.1429421 68.9776835 47.9991425 68.9776835 47.9991425 84.2402488 0.166228081 84.2402488"></polygon>
                </g>
                <g id="Group" transform="translate(668.917188, 3.588530)" fill="#686A6C">
                    <polygon id="Path" points="0.053318441 0.1473627 16.0300325 0.1473627 16.0300325 68.9776835 47.8862328 68.9776835 47.8862328 84.2402488 0.053318441 84.2402488"></polygon>
                </g>
                <g id="Group" transform="translate(491.084506, 54.489932)" fill="#F36D24">
                    <path d="M49.3509218,68.935894 C49.3509218,68.935894 10.2685045,54.838091 1.64973529,31.3788289 C-8.00090253,5.1171619 27.7757714,-0.876635252 64.3710402,0.16715769 C84.0925907,0.729900964 108.195662,3.7346547 108.195662,3.7346547 C108.195662,3.7346547 51.2515674,10.9978448 30.6769219,27.6328628 C10.5821424,43.8760657 49.3509218,68.935894 49.3509218,68.935894 Z" id="Path"></path>
                </g>
                <g id="Group" transform="translate(299.138118, 3.902736)" fill="#686A6C">
                    <path d="M71.5439387,63.9912313 C64.079357,72.4276673 54.8646758,76.6571968 43.8842134,76.6571968 C33.690982,76.6571968 25.2509864,73.387253 18.5579539,66.8470513 C11.8677441,60.3068496 8.52216871,52.1491145 8.52216871,42.3747885 C8.52216871,35.9071684 10.0175942,30.0833568 13.0100133,24.9052389 C16.0018051,19.727121 20.2202347,15.6044217 25.6587157,12.5339989 C31.100333,9.46326183 37.0124072,7.9271078 43.3949382,7.9271078 C49.2348757,7.9271078 54.5949472,9.09878266 59.4720164,11.4440176 C64.1358118,13.6843077 68.1535132,16.9410548 71.5439387,21.1910076 L71.5439387,10.3358124 C69.1257906,8.32929172 66.4567322,5.90896149 63.5273543,4.4664409 C57.5055069,1.50473341 50.7560195,0.0248222885 43.285165,0.0248222885 C30.918423,0.0248222885 20.6279639,4.03126533 12.4109649,12.0422662 C4.19678859,20.0551523 0.0890731603,29.9290816 0.0890731603,41.6656252 C0.0890731603,52.8218299 3.48012601,62.3416489 10.2619181,70.2260246 C18.3509529,79.5645466 29.3941429,84.2333363 43.3949382,84.2333363 C50.7560195,84.2333363 57.423961,82.8439165 63.3893536,80.063506 C66.3500953,78.6841409 69.0693358,76.3279087 71.5439387,74.3795162 L71.5439387,63.9912313 Z" id="Path"></path>
                </g>
                <g id="Group" transform="translate(0.241210, 3.588530)" fill="#686A6C">
                    <path d="M30.3115337,38.45758 C11.2636775,34.5488551 7.65245084,29.5721434 7.65245084,21.7565788 L7.65245084,21.5275225 C7.65245084,13.2551021 15.5219391,7.2509361 26.3650282,7.2509361 C35.4467269,7.2509361 42.649421,9.9798168 49.7213281,16.0989822 L50.3884359,16.6764932 L50.5527821,16.471945 L50.5527821,7.12211156 C43.237492,2.2255224 35.9886932,0.157731504 26.5936702,0.157731504 C11.4324147,0.157731504 0,9.59145796 0,22.1006345 L0,22.3296908 C0,34.9755471 8.02097536,41.7595728 27.6851301,45.7465351 C46.1533835,49.4701926 49.6548369,54.3281344 49.6548369,61.9884811 L49.6548369,62.21848 C49.6548369,71.0954331 41.6771435,77.2962922 30.2550789,77.2962922 C19.1159157,77.2962922 11.2263546,74.0169222 2.11486028,65.603109 L1.47127533,65.0080025 L1.32574735,65.174846 L1.32574735,74.8234895 C10.0561716,81.4017102 19.0638518,84.3904394 29.9122727,84.3904394 C46.0417284,84.3904394 57.3072877,75.0368355 57.3072877,61.6450537 L57.3072877,61.415369 C57.3072877,49.1852075 49.2339348,42.3194882 30.3115337,38.45758 Z" id="Path"></path>
                </g>
                <g id="Group" transform="translate(379.115779, 3.274324)" fill="#686A6C">
                    <polygon id="Path" points="112.367046 0.459997853 93.1755439 57.6709739 92.7615419 58.9042332 92.3538126 57.6684603 73.4383116 0.21648806 58.0794642 0.21648806 39.1639631 57.6684603 38.7562339 58.9045474 38.3453682 57.6709739 19.1538658 0.459997853 0.0972277454 0.459997853 30.4605117 84.950669 46.0765422 84.950669 65.1080893 29.8514727 65.5158185 28.6684864 65.9266842 29.8514727 84.9613676 84.950669 100.574262 84.950669 130.937546 0.459997853"></polygon>
                </g>
                <g id="Group" transform="translate(720.040164, 0.446468)" fill="#686A6C" fill-rule="nonzero">
                    <path d="M8.27063112,5.86780048 L8.27063112,9.00137874 L9.6694561,9.00137874 C10.8236435,9.00137874 11.3568279,8.46534299 11.3568279,7.47559352 C11.3568279,6.48615824 10.8236435,5.86780048 9.6694561,5.86780048 L8.27063112,5.86780048 Z M11.9746946,15.2679069 L9.34013632,10.8976131 L8.27063112,10.8976131 L8.27063112,15.2679069 L5.347526,15.2679069 L5.347526,3.97156616 L10.3688686,3.97156616 C13.128882,3.97156616 14.2799331,5.62052021 14.2799331,7.43443251 C14.2799331,8.87789571 13.5366113,10.073136 12.1816956,10.5680108 L15.3902112,15.2679069 L11.9746946,15.2679069 Z M9.62868318,1.41518465 C5.06211552,1.41518465 1.35805206,5.12564547 1.35805206,9.70237274 C1.35805206,14.2784716 5.06211552,17.9886182 9.62868318,17.9886182 C14.1983872,17.9886182 17.9432236,14.2784716 17.9432236,9.70237274 C17.9432236,5.12564547 14.1983872,1.41518465 9.62868318,1.41518465 Z M9.62868318,19.2259622 C4.40347595,19.2259622 0.122318777,14.9794656 0.122318777,9.70237274 C0.122318777,4.42527989 4.40347595,0.179097525 9.62868318,0.179097525 C14.8977997,0.179097525 19.1758205,4.42527989 19.1758205,9.70237274 C19.1758205,14.9794656 14.8977997,19.2259622 9.62868318,19.2259622 Z" id="Shape"></path>
                </g>
            </g>
            <path d="M808.5,30 L808.5,270" id="Path-4-Copy" stroke="#9B9B9B" fill-rule="nonzero"></path>
        </g>
    </g>
</svg>