<?xml version="1.0" encoding="UTF-8"?>
<svg width="243px" height="40px" viewBox="0 0 243 40" version="1.1" xmlns="http://www.w3.org/2000/svg" xmlns:xlink="http://www.w3.org/1999/xlink">
    <!-- Generator: Sketch 52.5 (67469) - http://www.bohemiancoding.com/sketch -->
    <title>logo copy 3</title>
    <desc>Created with Sketch.</desc>
    <g id="Page-1" stroke="none" stroke-width="1" fill="none" fill-rule="evenodd">
        <g id="Step2" transform="translate(-1258.000000, -330.000000)" fill-rule="nonzero">
            <g id="Group-5" transform="translate(1144.000000, 159.000000)">
                <g id="Group-88" transform="translate(21.000000, 20.000000)">
                    <g id="Group-83" transform="translate(90.000000, 150.000000)">
                        <g id="logo-copy-3" transform="translate(3.435294, 0.665303)">
                            <path d="M37.7809281,0.945868374 C41.7194805,0.945868374 45.0745437,2.25553228 47.7002452,4.87486008 C50.3988829,7.49418789 51.7117338,10.7683477 51.7117338,14.6245802 C51.7117338,18.4080537 50.3988829,21.6822136 47.7002452,24.3743005 C45.0745437,27.0663874 41.7924167,28.3760513 37.9997366,28.3760513 C34.1341204,28.3760513 30.8519934,27.0663874 28.1533558,24.3743005 C25.454718,21.7549727 24.1418672,18.5535719 24.1418672,14.7700984 C24.1418672,12.2962889 24.7253565,9.96799748 25.9652711,7.78522431 C27.2051858,5.67521024 28.8097812,4.00175082 30.9249296,2.76484602 C33.0400781,1.52794122 35.3010989,0.945868374 37.7809281,0.945868374 Z M37.8538643,3.41967797 C35.8845882,3.41967797 34.0611843,3.92899171 32.3836527,4.94761919 C30.633185,5.96624666 29.3203341,7.27591058 28.2992281,9.02212911 C27.3510581,10.6955885 26.840505,12.5873253 26.840505,14.6973393 C26.840505,17.8259808 27.9345473,20.4453086 30.0496957,22.5553228 C32.2377804,24.6653369 34.7905458,25.7567235 37.8538643,25.7567235 C39.8960766,25.7567235 41.7924167,25.2474097 43.4699483,24.3015414 C45.220416,23.355673 46.5332667,21.97325 47.4814367,20.2997904 C48.4296067,18.626331 48.9401598,16.7345943 48.9401598,14.6245802 C48.9401598,12.5873253 48.4296067,10.6955885 47.4814367,9.02212911 C46.5332667,7.34866968 45.1474799,6.03900577 43.3970121,5.02037829 C41.7194805,3.92899171 39.8231405,3.41967797 37.8538643,3.41967797 Z" id="Shape" fill="#FFFFFF"></path>
                            <path d="M182.048642,0.800350163 L176.724303,0.800350163 L169.211879,20.8091042 L184.309663,20.8818634 L187.227109,28.3760513 L192.697321,28.3760513 L182.048642,0.800350163 Z M175.776133,17.5349444 L179.495876,8.07626074 L183.142684,17.5349444 L175.776133,17.5349444 Z" id="Shape" fill="#FFFFFF"></path>
                            <path d="M198.313405,0.800350163 L203.564808,0.800350163 L203.564808,23.2829139 L213.994678,23.2829139 L213.994678,28.3032922 L198.313405,28.3032922 L198.313405,0.800350163 Z M219.610762,0.800350163 L224.862165,0.800350163 L224.862165,23.2829139 L235.292036,23.2829139 L235.292036,28.3032922 L219.610762,28.3032922 L219.610762,0.800350163 Z M161.334774,0.800350163 L167.461412,0.800350163 L157.469157,28.4488104 L152.363628,28.4488104 L146.091118,10.4045521 L145.945246,10.0407566 L145.799374,10.4045521 L139.599801,28.4488104 L134.421333,28.4488104 L124.502016,0.800350163 L130.774525,0.800350163 L137.047035,19.4994403 L137.192907,19.9359949 L137.338779,19.4994403 L143.538352,0.727591058 L148.570947,0.727591058 L154.77052,19.4994403 L154.916393,19.9359949 L155.062265,19.4994403 L161.334774,0.800350163 Z M121.657506,21.8277318 L121.657506,25.1746506 C120.855208,25.8294826 119.907038,26.6298327 118.958868,27.0663874 C116.989592,28.0122557 114.801508,28.4488104 112.394614,28.4488104 C107.799637,28.4488104 104.152829,26.9208692 101.527127,23.8649867 C99.2661066,21.318418 98.1720643,18.1897764 98.1720643,14.5518211 C98.1720643,10.6955885 99.4849151,7.49418789 102.183553,4.87486008 C104.88219,2.25553228 108.237254,0.945868374 112.321678,0.945868374 C114.801508,0.945868374 116.989592,1.45518211 118.958868,2.40105049 C119.907038,2.83760513 120.782272,3.63795529 121.58457,4.29278724 L121.58457,7.85798342 C120.490528,6.47556042 119.177677,5.38417382 117.646018,4.65658276 C116.041422,3.8562326 114.290954,3.49243708 112.394614,3.49243708 C110.279466,3.49243708 108.31019,4.00175082 106.559722,5.02037829 C104.736318,6.03900577 103.350531,7.42142879 102.402361,9.09488821 C101.454191,10.7683477 100.943638,12.6600844 100.943638,14.7700984 C100.943638,17.9714991 102.037681,20.663586 104.225765,22.7736002 C106.41385,24.8836142 109.185424,25.9750008 112.540487,25.9750008 C116.187295,25.9750008 119.177677,24.5925778 121.657506,21.8277318 Z M88.1068749,0.800350163 L90.7325765,0.800350163 L90.7325765,28.4488104 L88.1068749,28.4488104 L88.1068749,0.800350163 Z M58.7865407,28.5215695 L58.7865407,0.800350163 L59.37003,0.800350163 L77.8228772,22.0460091 L77.8228772,0.800350163 L80.594451,0.800350163 L80.594451,28.5215695 L79.9380256,28.5215695 L61.6310508,7.566947 L61.6310508,28.5215695 L58.7865407,28.5215695 Z M9.9922532,13.3149163 C16.1918263,14.6245802 18.8904641,16.8801125 18.817528,20.8818634 L18.817528,20.9546225 C18.817528,25.3201688 15.1707202,28.3760513 9.84638089,28.3760513 C6.2725093,28.3760513 3.28212696,27.4301829 0.437616929,25.2474097 L0.437616929,22.1187682 L0.510553083,22.0460091 L0.729361547,22.2642864 C3.71974389,25.0291324 6.34544546,26.120519 9.9922532,26.120519 C13.7119971,26.120519 16.3376987,24.0832641 16.3376987,21.1728998 L16.3376987,21.1001407 C16.3376987,18.626331 15.1707202,17.0256307 9.11701934,15.7887259 C2.62570157,14.479062 0,12.2962889 0,8.14901984 L0,8.07626074 C0,3.92899171 3.79268004,0.873109269 8.75233856,0.873109269 C11.8156571,0.873109269 14.2225501,1.52794122 16.6294433,3.12864155 L16.6294433,6.18452398 L16.5565071,6.2572831 L16.3376987,6.03900577 C14.0037417,4.00175082 11.6697848,3.12864155 8.67940241,3.12864155 C5.10553083,3.12864155 2.55276542,5.0931374 2.55276542,7.78522431 L2.55276542,7.85798342 C2.55276542,10.4045521 3.71974389,12.0052524 9.9922532,13.3149163 Z" id="Combined-Shape" fill="#FFFFFF"></path>
                            <path d="M241.418672,4.87486008 C240.908119,5.38417382 240.32463,5.60245114 239.595268,5.60245114 C238.865907,5.60245114 238.209482,5.38417382 237.771864,4.87486008 C237.334248,4.36554634 237.042503,3.7834735 237.042503,3.05588244 C237.042503,2.32829139 237.334248,1.67345943 237.844801,1.16414569 C238.355354,0.727591058 238.938843,0.436554634 239.668205,0.436554634 C240.397566,0.436554634 240.981055,0.654831952 241.491609,1.16414569 C242.002162,1.67345943 242.22097,2.25553228 242.22097,2.98312334 C242.22097,3.7834735 241.929225,4.36554634 241.418672,4.87486008 Z M238.06361,1.52794122 C237.625992,1.96449585 237.407184,2.4738096 237.407184,3.05588244 C237.407184,3.63795529 237.625992,4.14726903 238.06361,4.58382366 C238.501226,5.02037829 239.011779,5.23865561 239.595268,5.23865561 C240.178758,5.23865561 240.689311,5.02037829 241.126928,4.58382366 C241.564544,4.14726903 241.783353,3.63795529 241.783353,3.05588244 C241.783353,2.4738096 241.564544,1.96449585 241.126928,1.52794122 C240.689311,1.09138659 240.178758,0.873109269 239.595268,0.873109269 C239.011779,0.873109269 238.501226,1.09138659 238.06361,1.52794122 Z M238.428291,4.43830545 L238.428291,1.52794122 C238.574163,1.52794122 238.865907,1.52794122 239.230587,1.52794122 C239.595268,1.52794122 239.814077,1.52794122 239.814077,1.52794122 C240.032886,1.52794122 240.251693,1.60070032 240.397566,1.67345943 C240.689311,1.81897764 240.762247,2.03725495 240.762247,2.32829139 C240.762247,2.54656871 240.689311,2.76484602 240.543439,2.83760513 C240.397566,2.91036423 240.251693,2.98312334 240.032886,3.05588244 C240.178758,3.12864155 240.32463,3.12864155 240.470502,3.20140065 C240.616374,3.34691887 240.689311,3.56519618 240.689311,3.8562326 L240.689311,4.14726903 C240.689311,4.14726903 240.689311,4.22002813 240.689311,4.22002813 C240.689311,4.22002813 240.689311,4.29278724 240.689311,4.29278724 L240.689311,4.36554634 L239.959949,4.36554634 C239.959949,4.29278724 239.887012,4.14726903 239.887012,4.00175082 C239.887012,3.8562326 239.887012,3.71071439 239.814077,3.63795529 C239.74114,3.56519618 239.74114,3.49243708 239.595268,3.41967797 C239.522331,3.41967797 239.449396,3.34691887 239.303524,3.34691887 L239.157651,3.34691887 L239.011779,3.34691887 L239.011779,4.36554634 L238.428291,4.36554634 L238.428291,4.43830545 Z M239.814077,2.11001407 C239.74114,2.03725495 239.595268,2.03725495 239.376459,2.03725495 L239.157651,2.03725495 L239.157651,2.91036423 L239.449396,2.91036423 C239.595268,2.91036423 239.74114,2.91036423 239.887012,2.83760513 C239.959949,2.76484602 240.032886,2.61932781 240.032886,2.4738096 C240.032886,2.32829139 239.959949,2.18277318 239.814077,2.11001407 Z" id="Shape" fill="#FFFFFF"></path>
                            <path d="M177.380728,39.944749 C177.380728,39.944749 164.543966,35.3609254 161.699455,27.6484602 C158.5632,19.0628856 170.305921,17.0983898 182.26745,17.4621853 C188.758769,17.6804626 196.635873,18.626331 196.635873,18.626331 C196.635873,18.626331 177.964218,21.0273816 171.181155,26.4115554 C164.689838,31.7229701 177.380728,39.944749 177.380728,39.944749 Z" id="Shape" fill="#F36E21"></path>
                        </g>
                    </g>
                </g>
            </g>
        </g>
    </g>
</svg>