<?xml version="1.0" encoding="UTF-8"?>
<svg width="542px" height="52px" viewBox="0 0 542 52" version="1.1" xmlns="http://www.w3.org/2000/svg" xmlns:xlink="http://www.w3.org/1999/xlink">
    <!-- Generator: Sketch 52.6 (67491) - http://www.bohemiancoding.com/sketch -->
    <title>YOUR BENEFITS</title>
    <desc>Created with Sketch.</desc>
    <g id="Page-1" stroke="none" stroke-width="1" fill="none" fill-rule="evenodd">
        <path d="M37.584,1.368 C38.1600029,0.6479964 38.8559959,0.288 39.672,0.288 C40.3440034,0.288 40.9439974,0.55199736 41.472,1.08 C42.0000026,1.60800264 42.264,2.25599616 42.264,3.024 C42.264,3.7440036 42.0480022,4.3439976 41.616,4.824 L24.12,26.928 L24.12,48.672 C24.12,49.6320048 23.8440028,50.3759974 23.292,50.904 C22.7399972,51.4320026 22.0320043,51.696 21.168,51.696 C20.3039957,51.696 19.5960028,51.4320026 19.044,50.904 C18.4919972,50.3759974 18.216,49.6320048 18.216,48.672 L18.216,26.856 L0.72,4.824 C0.2399976,4.29599736 0,3.69600336 0,3.024 C0,2.25599616 0.27599724,1.60800264 0.828,1.08 C1.38000276,0.55199736 2.0159964,0.288 2.736,0.288 C3.55200408,0.288 4.24799712,0.6479964 4.824,1.368 L21.24,22.32 L37.584,1.368 Z M67.176,51.912 C62.4719765,51.912 58.3800174,50.8560106 54.9,48.744 C51.4199826,46.6319894 48.7440094,43.6320194 46.872,39.744 C44.9999906,35.8559806 44.064,31.2720264 44.064,25.992 C44.064,20.6639734 44.9879908,16.0440196 46.836,12.132 C48.6840092,8.21998044 51.3479826,5.22001044 54.828,3.132 C58.3080174,1.04398956 62.4239762,0 67.176,0 C71.9280238,0 76.0439826,1.04398956 79.524,3.132 C83.0040174,5.22001044 85.6679908,8.21998044 87.516,12.132 C89.3640092,16.0440196 90.288,20.6399736 90.288,25.92 C90.288,31.2000264 89.3520094,35.7959804 87.48,39.708 C85.6079906,43.6200196 82.9320174,46.6319894 79.452,48.744 C75.9719826,50.8560106 71.8800235,51.912 67.176,51.912 Z M67.176,46.872 C72.5520269,46.872 76.739985,45.0600181 79.74,41.436 C82.740015,37.8119819 84.24,32.6400336 84.24,25.92 C84.24,19.1999664 82.7520149,14.040018 79.776,10.44 C76.7999851,6.839982 72.6000271,5.04 67.176,5.04 C61.7999731,5.04 57.612015,6.85198188 54.612,10.476 C51.611985,14.1000181 50.112,19.2479666 50.112,25.92 C50.112,32.5920334 51.611985,37.7519818 54.612,41.4 C57.612015,45.0480182 61.7999731,46.872 67.176,46.872 Z M120.744,51.912 C114.119967,51.912 109.104017,50.1840173 105.696,46.728 C102.287983,43.2719827 100.584,38.1840336 100.584,31.464 L100.584,3.24 C100.584,2.32799544 100.847997,1.59600276 101.376,1.044 C101.904003,0.49199724 102.623995,0.216 103.536,0.216 C104.400004,0.216 105.095997,0.49199724 105.624,1.044 C106.152003,1.59600276 106.416,2.32799544 106.416,3.24 L106.416,31.968 C106.416,36.9120247 107.627988,40.6319875 110.052,43.128 C112.476012,45.6240125 116.039976,46.872 120.744,46.872 C125.448024,46.872 128.999988,45.6240125 131.4,43.128 C133.800012,40.6319875 135,36.9120247 135,31.968 L135,3.24 C135,2.32799544 135.275997,1.59600276 135.828,1.044 C136.380003,0.49199724 137.087996,0.216 137.952,0.216 C138.864005,0.216 139.583997,0.49199724 140.112,1.044 C140.640003,1.59600276 140.904,2.32799544 140.904,3.24 L140.904,31.464 C140.904,38.1360334 139.188017,43.2119826 135.756,46.692 C132.323983,50.1720174 127.320033,51.912 120.744,51.912 Z M191.808,47.664 C192.144002,48.1920026 192.312,48.7439971 192.312,49.32 C192.312,50.0400036 192.036003,50.6279977 191.484,51.084 C190.931997,51.5400023 190.296004,51.768 189.576,51.768 C188.471994,51.768 187.608003,51.2880048 186.984,50.328 L177.336,35.064 C176.087994,33.0959902 174.792007,31.7400037 173.448,30.996 C172.103993,30.2519963 170.280012,29.88 167.976,29.88 L158.904,29.88 L158.904,48.672 C158.904,49.5840046 158.640003,50.3159972 158.112,50.868 C157.583997,51.4200028 156.888004,51.696 156.024,51.696 C155.111995,51.696 154.392003,51.4200028 153.864,50.868 C153.335997,50.3159972 153.072,49.5840046 153.072,48.672 L153.072,3.456 C153.072,2.59199568 153.347997,1.89600264 153.9,1.368 C154.452003,0.83999736 155.183995,0.576 156.096,0.576 L173.952,0.576 C179.472028,0.576 183.683985,1.79998776 186.588,4.248 C189.492015,6.69601224 190.944,10.2959762 190.944,15.048 C190.944,19.0800202 189.780012,22.3199878 187.452,24.768 C185.123988,27.2160122 181.800022,28.7039974 177.48,29.232 C178.680006,29.6160019 179.759995,30.2399957 180.72,31.104 C181.680005,31.9680043 182.639995,33.1679923 183.6,34.704 L191.808,47.664 Z M173.448,24.984 C177.38402,24.984 180.32399,24.1680082 182.268,22.536 C184.21201,20.9039918 185.184,18.4320166 185.184,15.12 C185.184,11.8559837 184.22401,9.43200792 182.304,7.848 C180.38399,6.26399208 177.43202,5.472 173.448,5.472 L158.904,5.472 L158.904,24.984 L173.448,24.984 Z M249.84,25.272 C252.768015,26.0400038 255.035992,27.4799894 256.644,29.592 C258.252008,31.7040106 259.056,34.3439842 259.056,37.512 C259.056,41.9760223 257.592015,45.3959881 254.664,47.772 C251.735985,50.1480119 247.584027,51.336 242.208,51.336 L224.064,51.336 C223.151995,51.336 222.420003,51.0720026 221.868,50.544 C221.315997,50.0159974 221.04,49.3200043 221.04,48.456 L221.04,3.456 C221.04,2.59199568 221.315997,1.89600264 221.868,1.368 C222.420003,0.83999736 223.151995,0.576 224.064,0.576 L241.416,0.576 C246.648026,0.576 250.703986,1.72798848 253.584,4.032 C256.464014,6.33601152 257.904,9.59997888 257.904,13.824 C257.904,16.5600137 257.196007,18.9119902 255.78,20.88 C254.363993,22.8480098 252.384013,24.3119952 249.84,25.272 Z M226.872,23.112 L240.552,23.112 C244.344019,23.112 247.21199,22.3440077 249.156,20.808 C251.10001,19.2719923 252.072,17.0400146 252.072,14.112 C252.072,8.3519712 248.232038,5.472 240.552,5.472 L226.872,5.472 L226.872,23.112 Z M241.632,46.44 C245.61602,46.44 248.555991,45.7080073 250.452,44.244 C252.348009,42.7799927 253.296,40.4880156 253.296,37.368 C253.296,31.1279688 249.408039,28.008 241.632,28.008 L226.872,28.008 L226.872,46.44 L241.632,46.44 Z M272.592,51.336 C271.679995,51.336 270.948003,51.0720026 270.396,50.544 C269.843997,50.0159974 269.568,49.3200043 269.568,48.456 L269.568,3.456 C269.568,2.59199568 269.843997,1.89600264 270.396,1.368 C270.948003,0.83999736 271.679995,0.576 272.592,0.576 L299.52,0.576 C300.384004,0.576 301.055998,0.79199784 301.536,1.224 C302.016002,1.65600216 302.256,2.25599616 302.256,3.024 C302.256,3.79200384 302.016002,4.39199784 301.536,4.824 C301.055998,5.25600216 300.384004,5.472 299.52,5.472 L275.4,5.472 L275.4,23.112 L298.08,23.112 C298.944004,23.112 299.615998,23.3279978 300.096,23.76 C300.576002,24.1920022 300.816,24.7919962 300.816,25.56 C300.816,26.3280038 300.576002,26.9279978 300.096,27.36 C299.615998,27.7920022 298.944004,28.008 298.08,28.008 L275.4,28.008 L275.4,46.44 L299.52,46.44 C300.384004,46.44 301.055998,46.643998 301.536,47.052 C302.016002,47.460002 302.256,48.0719959 302.256,48.888 C302.256,49.6560038 302.016002,50.2559978 301.536,50.688 C301.055998,51.1200022 300.384004,51.336 299.52,51.336 L272.592,51.336 Z M349.416,0.216 C350.280004,0.216 350.951998,0.49199724 351.432,1.044 C351.912002,1.59600276 352.152,2.32799544 352.152,3.24 L352.152,48.672 C352.152,49.5840046 351.900003,50.3159972 351.396,50.868 C350.891997,51.4200028 350.184005,51.696 349.272,51.696 C348.359995,51.696 347.568003,51.2880041 346.896,50.472 L317.016,10.512 L317.016,48.672 C317.016,49.5840046 316.764003,50.3159972 316.26,50.868 C315.755997,51.4200028 315.072004,51.696 314.208,51.696 C313.343996,51.696 312.672002,51.4200028 312.192,50.868 C311.711998,50.3159972 311.472,49.5840046 311.472,48.672 L311.472,3.24 C311.472,2.32799544 311.723997,1.59600276 312.228,1.044 C312.732003,0.49199724 313.439995,0.216 314.352,0.216 C315.312005,0.216 316.127997,0.62399592 316.8,1.44 L346.608,41.4 L346.608,3.24 C346.608,2.32799544 346.859997,1.59600276 347.364,1.044 C347.868003,0.49199724 348.551996,0.216 349.416,0.216 Z M367.704,51.336 C366.791995,51.336 366.060003,51.0720026 365.508,50.544 C364.955997,50.0159974 364.68,49.3200043 364.68,48.456 L364.68,3.456 C364.68,2.59199568 364.955997,1.89600264 365.508,1.368 C366.060003,0.83999736 366.791995,0.576 367.704,0.576 L394.632,0.576 C395.496004,0.576 396.167998,0.79199784 396.648,1.224 C397.128002,1.65600216 397.368,2.25599616 397.368,3.024 C397.368,3.79200384 397.128002,4.39199784 396.648,4.824 C396.167998,5.25600216 395.496004,5.472 394.632,5.472 L370.512,5.472 L370.512,23.112 L393.192,23.112 C394.056004,23.112 394.727998,23.3279978 395.208,23.76 C395.688002,24.1920022 395.928,24.7919962 395.928,25.56 C395.928,26.3280038 395.688002,26.9279978 395.208,27.36 C394.727998,27.7920022 394.056004,28.008 393.192,28.008 L370.512,28.008 L370.512,46.44 L394.632,46.44 C395.496004,46.44 396.167998,46.643998 396.648,47.052 C397.128002,47.460002 397.368,48.0719959 397.368,48.888 C397.368,49.6560038 397.128002,50.2559978 396.648,50.688 C396.167998,51.1200022 395.496004,51.336 394.632,51.336 L367.704,51.336 Z M409.536,51.696 C408.623995,51.696 407.904003,51.4200028 407.376,50.868 C406.847997,50.3159972 406.584,49.5840046 406.584,48.672 L406.584,3.456 C406.584,2.59199568 406.859997,1.89600264 407.412,1.368 C407.964003,0.83999736 408.695995,0.576 409.608,0.576 L435.816,0.576 C436.680004,0.576 437.351998,0.79199784 437.832,1.224 C438.312002,1.65600216 438.552,2.27999592 438.552,3.096 C438.552,3.86400384 438.312002,4.46399784 437.832,4.896 C437.351998,5.32800216 436.680004,5.544 435.816,5.544 L412.416,5.544 L412.416,23.04 L434.376,23.04 C435.240004,23.04 435.911998,23.2559978 436.392,23.688 C436.872002,24.1200022 437.112,24.7439959 437.112,25.56 C437.112,26.3280038 436.872002,26.9279978 436.392,27.36 C435.911998,27.7920022 435.240004,28.008 434.376,28.008 L412.416,28.008 L412.416,48.672 C412.416,49.5840046 412.164003,50.3159972 411.66,50.868 C411.155997,51.4200028 410.448005,51.696 409.536,51.696 Z M449.64,51.696 C448.727995,51.696 448.008003,51.4200028 447.48,50.868 C446.951997,50.3159972 446.688,49.5840046 446.688,48.672 L446.688,3.24 C446.688,2.32799544 446.951997,1.59600276 447.48,1.044 C448.008003,0.49199724 448.727995,0.216 449.64,0.216 C450.552005,0.216 451.271997,0.49199724 451.8,1.044 C452.328003,1.59600276 452.592,2.32799544 452.592,3.24 L452.592,48.672 C452.592,49.5840046 452.328003,50.3159972 451.8,50.868 C451.271997,51.4200028 450.552005,51.696 449.64,51.696 Z M480.384,51.696 C479.471995,51.696 478.740003,51.4200028 478.188,50.868 C477.635997,50.3159972 477.36,49.5840046 477.36,48.672 L477.36,5.616 L461.88,5.616 C461.015996,5.616 460.344002,5.40000216 459.864,4.968 C459.383998,4.53599784 459.144,3.91200408 459.144,3.096 C459.144,2.27999592 459.383998,1.65600216 459.864,1.224 C460.344002,0.79199784 461.015996,0.576 461.88,0.576 L498.816,0.576 C499.680004,0.576 500.351998,0.79199784 500.832,1.224 C501.312002,1.65600216 501.552,2.27999592 501.552,3.096 C501.552,3.91200408 501.312002,4.53599784 500.832,4.968 C500.351998,5.40000216 499.680004,5.616 498.816,5.616 L483.336,5.616 L483.336,48.672 C483.336,49.5840046 483.072003,50.3159972 482.544,50.868 C482.015997,51.4200028 481.296005,51.696 480.384,51.696 Z M522.648,51.912 C519.047982,51.912 515.604016,51.3720054 512.316,50.292 C509.027984,49.2119946 506.40001,47.7600091 504.432,45.936 C503.711996,45.2639966 503.352,44.424005 503.352,43.416 C503.352,42.7439966 503.543998,42.1560025 503.928,41.652 C504.312002,41.1479975 504.767997,40.896 505.296,40.896 C505.920003,40.896 506.591996,41.1599974 507.312,41.688 C511.776022,45.1440173 516.863971,46.872 522.576,46.872 C526.704021,46.872 529.871989,46.0800079 532.08,44.496 C534.288011,42.9119921 535.392,40.6560146 535.392,37.728 C535.392,36.0479916 534.864005,34.6920052 533.808,33.66 C532.751995,32.6279948 531.360009,31.8000031 529.632,31.176 C527.903991,30.5519969 525.576015,29.9040034 522.648,29.232 C518.71198,28.3199954 515.484013,27.360005 512.964,26.352 C510.443987,25.343995 508.404008,23.9040094 506.844,22.032 C505.283992,20.1599906 504.504,17.7120151 504.504,14.688 C504.504,11.8079856 505.283992,9.25201116 506.844,7.02 C508.404008,4.78798884 510.587986,3.06000612 513.396,1.836 C516.204014,0.61199388 519.407982,0 523.008,0 C526.368017,0 529.499985,0.51599484 532.404,1.548 C535.308015,2.58000516 537.74399,4.0559904 539.712,5.976 C540.480004,6.74400384 540.864,7.58399544 540.864,8.496 C540.864,9.16800336 540.672002,9.75599748 540.288,10.26 C539.903998,10.7640025 539.448003,11.016 538.92,11.016 C538.391997,11.016 537.696004,10.7520026 536.832,10.224 C534.479988,8.3039904 532.29601,6.96000384 530.28,6.192 C528.26399,5.42399616 525.840014,5.04 523.008,5.04 C519.02398,5.04 515.928011,5.86799172 513.72,7.524 C511.511989,9.18000828 510.408,11.4959851 510.408,14.472 C510.408,17.0160127 511.37999,18.9239936 513.324,20.196 C515.26801,21.4680064 518.25598,22.5839952 522.288,23.544 C526.656022,24.6000053 530.087988,25.5719956 532.584,26.46 C535.080012,27.3480044 537.155992,28.6799911 538.812,30.456 C540.468008,32.2320089 541.296,34.6079851 541.296,37.584 C541.296,40.4160142 540.516008,42.9119892 538.956,45.072 C537.395992,47.2320108 535.200014,48.911994 532.368,50.112 C529.535986,51.312006 526.296018,51.912 522.648,51.912 Z" id="YOUR-BENEFITS" fill="#4A4A4A"></path>
    </g>
</svg>