<?xml version="1.0" encoding="UTF-8"?>
<svg width="322px" height="69px" viewBox="0 0 322 69" version="1.1" xmlns="http://www.w3.org/2000/svg" xmlns:xlink="http://www.w3.org/1999/xlink">
    <!-- Generator: Sketch 53.2 (72643) - https://sketchapp.com -->
    <title>Group 65</title>
    <desc>Created with Sketch.</desc>
    <g id="Page-2" stroke="none" stroke-width="1" fill="none" fill-rule="evenodd">
        <g id="Group-17" transform="translate(-24.000000, -16.000000)">
            <g id="Group-65">
                <g id="Group-7" transform="translate(0.000000, -0.000000)">
                    <g id="iPhone-X/Status-Bars/Status-Bar-(White)">
                        <g id="iPhone-X/Status-Bars/Status-Bar-(Black)">
                            <rect id="Rectangle" x="0" y="0" width="360" height="42.24"></rect>
                            <g id="Battery" transform="translate(322.560000, 16.320000)">
                                <rect id="Border" stroke="#FFFFFF" stroke-width="0.96" opacity="0.35" x="0.48" y="0.8" width="20.16" height="9.92" rx="2.56000008"></rect>
                                <path d="M22.08,3.84 L22.08,7.68 C22.8525419,7.35477455 23.3549165,6.59820795 23.3549165,5.76 C23.3549165,4.92179205 22.8525419,4.16522545 22.08,3.84" id="Cap" fill="#FFFFFF" fill-rule="nonzero" opacity="0.4"></path>
                                <rect id="Capacity" fill="#FFFFFF" fill-rule="nonzero" x="1.92" y="2.24" width="17.28" height="7.04" rx="1.28000004"></rect>
                            </g>
                            <path d="M310.39712,18.82368 C312.524377,18.8237732 314.57029,19.6411533 316.112,21.10688 C316.228095,21.2200396 316.41366,21.2186122 316.528,21.10368 L317.63776,19.98368 C317.695656,19.9253867 317.727935,19.8464251 317.727454,19.764268 C317.726974,19.6821109 317.693774,19.6035322 317.6352,19.54592 C313.588706,15.6679544 307.204894,15.6679544 303.1584,19.54592 C303.099784,19.6034894 303.066526,19.6820442 303.065985,19.7642015 C303.065445,19.8463587 303.097666,19.9253443 303.15552,19.98368 L304.2656,21.10368 C304.379867,21.2187856 304.565575,21.2202141 304.6816,21.10688 C306.223506,19.6410571 308.269654,18.8236746 310.39712,18.82368 L310.39712,18.82368 Z M310.39712,22.46752 C311.56591,22.4674484 312.69299,22.9018795 313.55936,23.6864 C313.676541,23.7977413 313.861131,23.7953275 313.97536,23.68096 L315.08384,22.56096 C315.142215,22.5022128 315.174605,22.4225171 315.173763,22.339703 C315.172921,22.2568888 315.138918,22.1778682 315.07936,22.12032 C312.441089,19.666193 308.355391,19.666193 305.71712,22.12032 C305.657525,22.1778675 305.623524,22.2569277 305.622742,22.3397686 C305.62196,22.4226096 305.654462,22.5022977 305.71296,22.56096 L306.82112,23.68096 C306.935349,23.7953275 307.119939,23.7977413 307.23712,23.6864 C308.102917,22.9023979 309.229103,22.4680039 310.39712,22.46752 L310.39712,22.46752 Z M312.52736,25.14048 C312.586643,25.0822982 312.619291,25.0022322 312.617595,24.9191856 C312.615899,24.8361391 312.580009,24.7574728 312.5184,24.70176 C311.293851,23.6660315 309.500389,23.6660315 308.27584,24.70176 C308.214188,24.757428 308.17824,24.8360695 308.176483,24.9191165 C308.174727,25.0021635 308.207317,25.0822548 308.26656,25.14048 L310.18432,27.07552 C310.240528,27.1323894 310.317161,27.1643945 310.39712,27.1643945 C310.477079,27.1643945 310.553712,27.1323894 310.60992,27.07552 L312.52736,25.14048 Z" id="Wifi" fill="#FFFFFF" fill-rule="nonzero"></path>
                            <path d="M282.88,23.36 L283.84,23.36 C284.370193,23.36 284.8,23.7898066 284.8,24.32 L284.8,26.24 C284.8,26.7701934 284.370193,27.2 283.84,27.2 L282.88,27.2 C282.349807,27.2 281.92,26.7701934 281.92,26.24 L281.92,24.32 C281.92,23.7898066 282.349807,23.36 282.88,23.36 L282.88,23.36 Z M287.36,21.44 L288.32,21.44 C288.850193,21.44 289.28,21.8698066 289.28,22.4 L289.28,26.24 C289.28,26.7701934 288.850193,27.2 288.32,27.2 L287.36,27.2 C286.829807,27.2 286.4,26.7701934 286.4,26.24 L286.4,22.4 C286.4,21.8698066 286.829807,21.44 287.36,21.44 Z M291.84,19.2 L292.8,19.2 C293.330193,19.2 293.76,19.6298066 293.76,20.16 L293.76,26.24 C293.76,26.7701934 293.330193,27.2 292.8,27.2 L291.84,27.2 C291.309807,27.2 290.88,26.7701934 290.88,26.24 L290.88,20.16 C290.88,19.6298066 291.309807,19.2 291.84,19.2 Z M296.32,16.96 L297.28,16.96 C297.810193,16.96 298.24,17.3898066 298.24,17.92 L298.24,26.24 C298.24,26.7701934 297.810193,27.2 297.28,27.2 L296.32,27.2 C295.789807,27.2 295.36,26.7701934 295.36,26.24 L295.36,17.92 C295.36,17.3898066 295.789807,16.96 296.32,16.96 L296.32,16.96 Z" id="Cellular-Connection" fill="#FFFFFF" fill-rule="nonzero"></path>
                            <g id="iPhone-X/Overrides/Time-White" transform="translate(20.160000, 12.480000)" fill="#FFFFFF" font-family="Helvetica" font-size="13.44" font-weight="normal" letter-spacing="-0.268800001">
                                <text id="↳-Time">
                                    <tspan x="13.2441375" y="15.1517241">9:4</tspan>
                                    <tspan x="31.121175" y="15.1517241">1</tspan>
                                </text>
                            </g>
                        </g>
                    </g>
                </g>
                <path d="M24.96,67.2 L48,67.2 L48,69.6827586 L24.96,69.6827586 L24.96,67.2 Z M24.96,73.1586207 L48,73.1586207 L48,75.6413793 L24.96,75.6413793 L24.96,73.1586207 Z M24.96,79.1172414 L48,79.1172414 L48,81.6 L24.96,81.6 L24.96,79.1172414 Z" id="Combined-Shape" fill="#6F6F6F" fill-rule="nonzero"></path>
                <text id="" font-family="SonicWallIconFont" font-size="21.12" font-weight="normal" fill="#6F6F6F">
                    <tspan x="318.72" y="82.4"></tspan>
                </text>
                <text id="Dashboard" font-family="Helvetica" font-size="19.2" font-weight="normal" fill="#9B9B9B">
                    <tspan x="132.48" y="75.64">Dashboard</tspan>
                </text>
            </g>
        </g>
    </g>
</svg>