<?xml version="1.0" encoding="UTF-8"?>
<svg width="1125px" height="2225px" viewBox="0 0 1125 2225" version="1.1" xmlns="http://www.w3.org/2000/svg" xmlns:xlink="http://www.w3.org/1999/xlink">
    <!-- Generator: Sketch 53.2 (72643) - https://sketchapp.com -->
    <title>Group 17</title>
    <desc>Created with Sketch.</desc>
    <defs>
        <linearGradient x1="100%" y1="2169.52882%" x2="0%" y2="2169.52882%" id="linearGradient-1">
            <stop stop-color="#000000" offset="0%"></stop>
            <stop stop-color="#F36E21" offset="19.4635116%"></stop>
            <stop stop-color="#F36E21" offset="82.7786308%"></stop>
            <stop stop-color="#000000" offset="100%"></stop>
        </linearGradient>
        <linearGradient x1="63.3549332%" y1="100%" x2="63.3549332%" y2="21.9709533%" id="linearGradient-2">
            <stop stop-color="#4D220C" offset="0%"></stop>
            <stop stop-color="#FF7832" offset="100%"></stop>
        </linearGradient>
        <linearGradient x1="50%" y1="35.582038%" x2="50%" y2="91.9504967%" id="linearGradient-3">
            <stop stop-color="#1DDCD0" offset="0%"></stop>
            <stop stop-color="#053832" offset="100%"></stop>
        </linearGradient>
        <linearGradient x1="50%" y1="29.3555816%" x2="50%" y2="100%" id="linearGradient-4">
            <stop stop-color="#FE791A" offset="0%"></stop>
            <stop stop-color="#000000" offset="100%"></stop>
        </linearGradient>
        <linearGradient x1="50%" y1="27.3098808%" x2="50%" y2="100%" id="linearGradient-5">
            <stop stop-color="#0CB6A3" offset="0%"></stop>
            <stop stop-color="#000000" offset="100%"></stop>
        </linearGradient>
    </defs>
    <g id="Page-2" stroke="none" stroke-width="1" fill="none" fill-rule="evenodd">
        <g id="Dashboard" transform="translate(0.000000, -97.000000)">
            <g id="Group-17" transform="translate(0.000000, 45.000000)">
                <g id="Group-7">
                    <g id="iPhone-X/Status-Bars/Status-Bar-(White)">
                        <g id="iPhone-X/Status-Bars/Status-Bar-(Black)">
                            <rect id="Rectangle" x="0" y="0" width="1125" height="132"></rect>
                            <g id="Battery" transform="translate(1008.000000, 51.000000)">
                                <rect id="Border" stroke="#FFFFFF" stroke-width="3" opacity="0.35" x="1.5" y="2.5" width="63" height="31" rx="8.00000024"></rect>
                                <path d="M69,12 L69,24 C71.4141934,22.9836705 72.984114,20.6193998 72.984114,18 C72.984114,15.3806002 71.4141934,13.0163295 69,12" id="Cap" fill="#FFFFFF" fill-rule="nonzero" opacity="0.4"></path>
                                <rect id="Capacity" fill="#FFFFFF" fill-rule="nonzero" x="6" y="7" width="54" height="22" rx="4.00000012"></rect>
                            </g>
                            <path d="M969.991,58.824 C976.638679,58.8242913 983.032158,61.378604 987.85,65.959 C988.212796,66.3126238 988.792687,66.3081631 989.15,65.949 L992.618,62.449 C992.798924,62.2668335 992.899796,62.0200784 992.898295,61.7633375 C992.896793,61.5065965 992.793042,61.261038 992.61,61.081 C979.964707,48.9623575 960.015293,48.9623575 947.37,61.081 C947.186824,61.2609044 947.082892,61.5063883 947.081203,61.7631296 C947.079514,62.019871 947.180207,62.266701 947.361,62.449 L950.83,65.949 C951.187085,66.308705 951.767423,66.3131692 952.13,65.959 C956.948456,61.3783033 963.342669,58.8239832 969.991,58.824 L969.991,58.824 Z M969.991,70.211 C973.643468,70.2107762 977.165594,71.5683735 979.873,74.02 C980.23919,74.3679417 980.816034,74.3603983 981.173,74.003 L984.637,70.503 C984.819423,70.3194151 984.920641,70.0703661 984.91801,69.8115718 C984.915378,69.5527775 984.809117,69.305838 984.623,69.126 C976.378404,61.456853 963.610596,61.456853 955.366,69.126 C955.179767,69.3058358 955.073512,69.5528991 955.071068,69.811777 C955.068624,70.0706549 955.170195,70.3196802 955.353,70.503 L958.816,74.003 C959.172966,74.3603983 959.74981,74.3679417 960.116,74.02 C962.821617,71.5699935 966.340946,70.2125123 969.991,70.211 L969.991,70.211 Z M976.648,78.564 C976.83326,78.3821819 976.935284,78.1319757 976.929983,77.8724551 C976.924683,77.6129346 976.812529,77.3671025 976.62,77.193 C972.793285,73.9563485 967.188715,73.9563485 963.362,77.193 C963.169338,77.3669625 963.057,77.6127172 963.05151,77.8722391 C963.046021,78.131761 963.147866,78.3820462 963.333,78.564 L969.326,84.611 C969.50165,84.788717 969.741127,84.8887329 969.991,84.8887329 C970.240873,84.8887329 970.48035,84.788717 970.656,84.611 L976.648,78.564 Z" id="Wifi" fill="#FFFFFF" fill-rule="nonzero"></path>
                            <path d="M884,73 L887,73 C888.656854,73 890,74.3431458 890,76 L890,82 C890,83.6568542 888.656854,85 887,85 L884,85 C882.343146,85 881,83.6568542 881,82 L881,76 C881,74.3431458 882.343146,73 884,73 L884,73 Z M898,67 L901,67 C902.656854,67 904,68.3431458 904,70 L904,82 C904,83.6568542 902.656854,85 901,85 L898,85 C896.343146,85 895,83.6568542 895,82 L895,70 C895,68.3431458 896.343146,67 898,67 Z M912,60 L915,60 C916.656854,60 918,61.3431458 918,63 L918,82 C918,83.6568542 916.656854,85 915,85 L912,85 C910.343146,85 909,83.6568542 909,82 L909,63 C909,61.3431458 910.343146,60 912,60 Z M926,53 L929,53 C930.656854,53 932,54.3431458 932,56 L932,82 C932,83.6568542 930.656854,85 929,85 L926,85 C924.343146,85 923,83.6568542 923,82 L923,56 C923,54.3431458 924.343146,53 926,53 L926,53 Z" id="Cellular-Connection" fill="#FFFFFF" fill-rule="nonzero"></path>
                            <g id="iPhone-X/Overrides/Time-White" transform="translate(63.000000, 39.000000)" fill="#FFFFFF" font-family="Helvetica" font-size="42" font-weight="normal" letter-spacing="-0.840000004">
                                <text id="↳-Time">
                                    <tspan x="41.3879297" y="47.2">9:4</tspan>
                                    <tspan x="97.2536719" y="47.2">1</tspan>
                                </text>
                            </g>
                        </g>
                    </g>
                </g>
                <path d="M78,210 L150,210 L150,217.758621 L78,217.758621 L78,210 Z M78,228.62069 L150,228.62069 L150,236.37931 L78,236.37931 L78,228.62069 Z M78,247.241379 L150,247.241379 L150,255 L78,255 L78,247.241379 Z" id="Combined-Shape" fill="#6F6F6F" fill-rule="nonzero"></path>
                <text id="" font-family="SonicWallIconFont" font-size="66" font-weight="normal" fill="#6F6F6F">
                    <tspan x="996" y="257"></tspan>
                </text>
                <rect id="Rectangle" fill="#4A4A4A" fill-rule="nonzero" opacity="0.4" x="0" y="327" width="1125" height="144"></rect>
                <text id="XYZ-Corp" font-family="Nunito-Regular, Nunito" font-size="54" font-weight="normal" fill="#9B9B9B">
                    <tspan x="198" y="418">XYZ Corp</tspan>
                </text>
                <text id="Dashboard" font-family="Helvetica" font-size="60" font-weight="normal" fill="#9B9B9B">
                    <tspan x="414" y="235">Dashboard</tspan>
                </text>
                <text id="Silicon-Valley,-CA" font-family="Nunito-Regular, Nunito" font-size="42" font-weight="normal" fill="#9B9B9B">
                    <tspan x="699" y="414">Silicon Valley, CA</tspan>
                </text>
                <text id="" font-family="SonicWallIconFont" font-size="72" font-weight="normal" fill="#6F6F6F">
                    <tspan x="78" y="431"></tspan>
                </text>
                <text id="Threats" font-family="Helvetica" font-size="36" font-weight="normal" fill="#9B9B9B">
                    <tspan x="78" y="596">THREATS</tspan>
                </text>
                <text id="Alerts" font-family="Helvetica" font-size="36" font-weight="normal" fill="#9B9B9B">
                    <tspan x="78" y="992">ALERTS</tspan>
                </text>
                <text id="Access-Points-Status" font-family="Helvetica" font-size="36" font-weight="normal" fill="#9B9B9B">
                    <tspan x="78" y="1412">ACCESS POINTS STATUS</tspan>
                </text>
                <text id="Client-traffic" font-family="Helvetica" font-size="36" font-weight="normal" fill="#9B9B9B">
                    <tspan x="78" y="1745">CLIENT TRAFFIC</tspan>
                </text>
                <text id="--Last-24-hours" font-family="Helvetica" font-size="36" font-weight="normal" fill="#9B9B9B">
                    <tspan x="375" y="1745">- Last 24 hours</tspan>
                </text>
                <path d="M24,906 L1104,906" id="Path-Copy" stroke="url(#linearGradient-1)" stroke-width="1.8" stroke-linecap="round" fill-rule="nonzero"></path>
                <path d="M24,538.5 L1104,538.5" id="Path-Copy-9" stroke="url(#linearGradient-1)" stroke-width="1.8" stroke-linecap="round" fill-rule="nonzero"></path>
                <path d="M24,1327.5 L1104,1327.5" id="Path-Copy-3" stroke="url(#linearGradient-1)" stroke-width="1.8" stroke-linecap="round" fill-rule="nonzero"></path>
                <path d="M24,1687.5 L1104,1687.5" id="Path-Copy-4" stroke="url(#linearGradient-1)" stroke-width="1.8" stroke-linecap="round" fill-rule="nonzero"></path>
                <path d="M24,2112 L1104,2112" id="Path-Copy-7" stroke="url(#linearGradient-1)" stroke-width="1.8" stroke-linecap="round" fill-rule="nonzero"></path>
                <g id="Threats-1" transform="translate(78.000000, 678.000000)">
                    <path d="M69.609375,10.5585938 L10.96875,10.5585938 L10.96875,79.640625 L1.16015625,79.640625 L1.16015625,10.5585938 C1.16015625,7.88670539 2.12694346,5.58399404 4.06054688,3.65039062 C5.99415029,1.71678721 8.29686164,0.75 10.96875,0.75 L69.609375,0.75 L69.609375,10.5585938 Z M60.0117188,102.949219 L27.421875,102.949219 C24.7499866,102.949219 22.4472753,101.982432 20.5136719,100.048828 C18.5800685,98.1152247 17.6132813,95.8125134 17.6132813,93.140625 L17.6132813,27.2226562 C17.6132813,24.480455 18.5800685,22.1601657 20.5136719,20.2617188 C22.4472753,18.3632718 24.7499866,17.4140625 27.421875,17.4140625 L81.1054688,17.4140625 C83.84767,17.4140625 86.1679593,18.3632718 88.0664063,20.2617188 C89.9648532,22.1601657 90.9140625,24.480455 90.9140625,27.2226562 L90.9140625,37.453125 L81.1054688,37.453125 L81.1054688,27.2226562 L27.421875,27.2226562 L27.421875,93.140625 L60.0117188,93.140625 L60.0117188,102.949219 Z M69.2929688,78.0585938 L48.8320313,56.3320312 C48.1992156,55.6289027 47.724611,54.855473 47.4082031,54.0117188 C47.0917953,53.1679645 46.9335938,52.2890671 46.9335938,51.375 C46.9335938,49.3359273 47.6367117,47.6132883 49.0429688,46.2070312 C50.4492258,44.8007742 52.1367089,44.0976562 54.1054688,44.0976562 L99.5625,44.0976562 C100.476567,44.0976562 101.373042,44.2734357 102.251953,44.625 C103.130864,44.9765643 103.886716,45.4687468 104.519531,46.1015625 C105.996101,47.4375067 106.769531,49.1074119 106.839844,51.1113281 C106.910157,53.1152444 106.242195,54.8554614 104.835938,56.3320312 L84.796875,77.53125 L84.796875,105.164062 C84.796875,106.148442 84.445316,106.992184 83.7421875,107.695312 C83.039059,108.398441 82.1953174,108.75 81.2109375,108.75 C80.9296861,108.75 80.6484389,108.714844 80.3671875,108.644531 C80.0859361,108.574218 79.8046889,108.468751 79.5234375,108.328125 L71.296875,104.003906 C70.6640593,103.722655 70.1718768,103.283206 69.8203125,102.685547 C69.4687482,102.087888 69.2929688,101.472659 69.2929688,100.839844 L69.2929688,78.0585938 Z" id="" fill="#9B9B9B"></path>
                    <g id="Group-2" transform="translate(0.000000, 138.000000)">
                        <text id="CFS" font-family="Nunito-Regular, Nunito" font-size="30" font-weight="normal" fill="#9B9B9B">
                            <tspan x="36" y="30">CFS</tspan>
                        </text>
                        <rect id="Rectangle" fill="#CE8ABE" fill-rule="nonzero" x="0" y="9" width="24" height="24"></rect>
                    </g>
                </g>
                <g id="Group-3" transform="translate(81.000000, 2010.000000)">
                    <text id="Upload" font-family="Nunito-Regular, Nunito" font-size="30" font-weight="normal" fill="#9B9B9B">
                        <tspan x="36" y="30">Upload</tspan>
                    </text>
                    <rect id="Rectangle" fill="#FF791A" fill-rule="nonzero" x="0" y="9" width="24" height="24"></rect>
                </g>
                <g id="Group-10" transform="translate(282.000000, 2010.000000)">
                    <text id="Download" font-family="Nunito-Regular, Nunito" font-size="30" font-weight="normal" fill="#9B9B9B">
                        <tspan x="36" y="30.5369878">Download</tspan>
                    </text>
                    <rect id="Rectangle-Copy-6" fill="#0CB6A3" fill-rule="nonzero" x="0" y="9.53698777" width="24" height="24"></rect>
                </g>
                <text id="4.6-GB-/-6.9-GB" font-family="Nunito-Regular, Nunito" font-size="30" font-weight="normal" fill="#9B9B9B">
                    <tspan x="783" y="2040">4.6 GB / 6.9 GB</tspan>
                </text>
                <g id="Threats-2" transform="translate(306.000000, 678.000000)">
                    <path d="M51.7851562,46.3125 L38.1796875,69.4101562 C39.7968831,70.8867261 41.1679631,72.6093652 42.2929688,74.578125 C43.4179744,76.5468848 44.22656,78.6562387 44.71875,80.90625 L63.28125,80.90625 C63.77344,78.515613 64.6347595,76.3007914 65.8652344,74.2617188 C67.0957093,72.2226461 68.589835,70.4296952 70.3476562,68.8828125 L57.0585938,46.2070312 C56.5664038,46.2773441 56.0566433,46.3300779 55.5292969,46.3652344 C55.0019505,46.4003908 54.49219,46.4179688 54,46.4179688 C53.6484357,46.4179688 53.2792988,46.4003908 52.8925781,46.3652344 C52.5058574,46.3300779 52.1367205,46.3125 51.7851562,46.3125 Z M46.828125,45.2578125 C42.3281025,43.7109298 38.6191552,40.9687697 35.7011719,37.03125 C32.7831885,33.0937303 31.3242188,28.5937753 31.3242188,23.53125 C31.3242188,20.4374845 31.921869,17.4843891 33.1171875,14.671875 C34.312506,11.9296738 35.9296773,9.52149475 37.96875,7.44726562 C40.0078227,5.3730365 42.3984238,3.73828723 45.140625,2.54296875 C47.9531391,1.34765027 50.9062345,0.75 54,0.75 C57.0937655,0.75 60.0468609,1.34765027 62.859375,2.54296875 C65.6015762,3.73828723 67.9921773,5.3730365 70.03125,7.44726562 C72.0703227,9.52149475 73.687494,11.9296738 74.8828125,14.671875 C76.078131,17.4843891 76.6757812,20.4374845 76.6757812,23.53125 C76.6757812,28.4531496 75.2871233,32.8476369 72.5097656,36.7148438 C69.732408,40.5820506 66.1992402,43.3242107 61.9101562,44.9414062 L74.3554688,66.0351562 C75.9726643,65.1210892 77.7128813,64.4003933 79.5761719,63.8730469 C81.4394624,63.3457005 83.3554589,63.0820312 85.3242188,63.0820312 C88.4882971,63.0820312 91.4413925,63.6796815 94.1835938,64.875 C96.925795,66.0703185 99.3163961,67.7050678 101.355469,69.7792969 C103.394541,71.853526 105.011713,74.261705 106.207031,77.0039062 C107.40235,79.8164203 108,82.8046717 108,85.96875 C108,89.0625155 107.40235,92.0156109 106.207031,94.828125 C105.011713,97.5703262 103.394541,99.9785053 101.355469,102.052734 C99.3163961,104.126963 96.925795,105.761713 94.1835938,106.957031 C91.4413925,108.15235 88.4882971,108.75 85.3242188,108.75 C82.2304533,108.75 79.3125137,108.15235 76.5703125,106.957031 C73.8281113,105.761713 71.4199322,104.126963 69.3457031,102.052734 C67.271474,99.9785053 65.6367247,97.5703262 64.4414062,94.828125 C63.3164006,92.0156109 62.7539062,89.0625155 62.7539062,85.96875 L62.7539062,84.4921875 L45.2460938,84.4921875 L45.2460938,85.96875 C45.2460938,89.0625155 44.6835994,92.0156109 43.5585938,94.828125 C42.3632753,97.5703262 40.728526,99.9785053 38.6542969,102.052734 C36.5800678,104.126963 34.1718887,105.761713 31.4296875,106.957031 C28.6874863,108.15235 25.7695467,108.75 22.6757812,108.75 C19.5117029,108.75 16.5586075,108.15235 13.8164062,106.957031 C11.074205,105.761713 8.68360395,104.126963 6.64453125,102.052734 C4.60545855,99.9785053 2.98828723,97.5703262 1.79296875,94.828125 C0.597650273,92.0156109 0,89.0625155 0,85.96875 C0,82.8046717 0.597650273,79.8164203 1.79296875,77.0039062 C2.98828723,74.261705 4.60545855,71.853526 6.64453125,69.7792969 C8.68360395,67.7050678 11.074205,66.0703185 13.8164062,64.875 C16.5586075,63.6796815 19.5117029,63.0820312 22.6757812,63.0820312 C24.7851668,63.0820312 26.8417869,63.3808564 28.8457031,63.9785156 C30.8496194,64.5761749 32.6953041,65.4023385 34.3828125,66.4570312 L46.828125,45.2578125 Z M61.8046875,20.7890625 C61.6640618,20.6484368 61.5234382,20.5429691 61.3828125,20.4726562 C61.2421868,20.4023434 61.0664073,20.3671875 60.8554688,20.3671875 L60.4335938,20.3671875 L60.4335938,17.625 C60.4335938,16.7109329 60.2753922,15.8671914 59.9589844,15.09375 C59.6425765,14.3203086 59.1679719,13.6171907 58.5351562,12.984375 C57.9023406,12.3515593 57.1992226,11.8769547 56.4257812,11.5605469 C55.6523399,11.244139 54.8437542,11.0859375 54,11.0859375 C53.1562458,11.0859375 52.3476601,11.244139 51.5742188,11.5605469 C50.8007774,11.8769547 50.0976594,12.3515593 49.4648438,12.984375 C48.8320281,13.6171907 48.3574235,14.3203086 48.0410156,15.09375 C47.7246078,15.8671914 47.5664062,16.7109329 47.5664062,17.625 L47.5664062,20.3671875 L47.1445312,20.3671875 C46.9335927,20.3671875 46.7578132,20.4023434 46.6171875,20.4726562 C46.4765618,20.5429691 46.3359382,20.6484368 46.1953125,20.7890625 C46.0546868,20.9296882 45.9492191,21.0703118 45.8789062,21.2109375 C45.8085934,21.3515632 45.7734375,21.5273427 45.7734375,21.7382812 L45.7734375,30.0703125 C45.7734375,30.2109382 45.8085934,30.3691397 45.8789062,30.5449219 C45.9492191,30.720704 46.0546868,30.8789055 46.1953125,31.0195312 C46.3359382,31.160157 46.4765618,31.2656246 46.6171875,31.3359375 C46.7578132,31.4062504 46.9335927,31.4414062 47.1445312,31.4414062 L60.8554688,31.4414062 C61.0664073,31.4414062 61.2421868,31.4062504 61.3828125,31.3359375 C61.5234382,31.2656246 61.6640618,31.160157 61.8046875,31.0195312 C61.9453132,30.8789055 62.0507809,30.720704 62.1210938,30.5449219 C62.1914066,30.3691397 62.2265625,30.2109382 62.2265625,30.0703125 L62.2265625,21.7382812 C62.2265625,21.5273427 62.1914066,21.3515632 62.1210938,21.2109375 C62.0507809,21.0703118 61.9453132,20.9296882 61.8046875,20.7890625 Z M93.234375,83.1210938 C93.0937493,82.980468 92.9355478,82.8750004 92.7597656,82.8046875 C92.5839835,82.7343746 92.3906261,82.6992188 92.1796875,82.6992188 L91.7578125,82.6992188 L91.7578125,79.9570312 C91.7578125,79.0429642 91.599611,78.2168006 91.2832031,77.4785156 C90.9667953,76.7402307 90.4921907,76.0546907 89.859375,75.421875 C89.2265593,74.7890593 88.5410193,74.3144547 87.8027344,73.9980469 C87.0644494,73.681639 86.2382858,73.5234375 85.3242188,73.5234375 C84.4804645,73.5234375 83.6718789,73.681639 82.8984375,73.9980469 C82.1249961,74.3144547 81.4218782,74.7890593 80.7890625,75.421875 C80.2265597,76.0546907 79.787111,76.7402307 79.4707031,77.4785156 C79.1542953,78.2168006 78.9960938,79.0429642 78.9960938,79.9570312 L78.9960938,82.6992188 L78.46875,82.6992188 C78.3281243,82.6992188 78.1699228,82.7343746 77.9941406,82.8046875 C77.8183585,82.8750004 77.660157,82.980468 77.5195312,83.1210938 C77.3789055,83.2617195 77.2734379,83.402343 77.203125,83.5429688 C77.1328121,83.6835945 77.0976562,83.8593739 77.0976562,84.0703125 L77.0976562,92.4023438 C77.0976562,92.6132823 77.1328121,92.7890618 77.203125,92.9296875 C77.2734379,93.0703132 77.3789055,93.2109368 77.5195312,93.3515625 C77.660157,93.4921882 77.8183585,93.5976559 77.9941406,93.6679688 C78.1699228,93.7382816 78.3281243,93.7734375 78.46875,93.7734375 L92.1796875,93.7734375 C92.3906261,93.7734375 92.5839835,93.7382816 92.7597656,93.6679688 C92.9355478,93.5976559 93.0937493,93.4921882 93.234375,93.3515625 L93.4453125,92.9296875 C93.5156254,92.7890618 93.5507812,92.6132823 93.5507812,92.4023438 L93.5507812,84.0703125 C93.5507812,83.8593739 93.5156254,83.6835945 93.4453125,83.5429688 L93.234375,83.1210938 Z M30.4804688,83.1210938 C30.339843,82.980468 30.1816415,82.8750004 30.0058594,82.8046875 C29.8300772,82.7343746 29.6718757,82.6992188 29.53125,82.6992188 L29.0039062,82.6992188 L29.0039062,79.9570312 C29.0039062,79.0429642 28.8457047,78.2168006 28.5292969,77.4785156 C28.212889,76.7402307 27.7734403,76.0546907 27.2109375,75.421875 C26.5781218,74.7890593 25.8750039,74.3144547 25.1015625,73.9980469 C24.3281211,73.681639 23.5195355,73.5234375 22.6757812,73.5234375 C21.7617142,73.5234375 20.9355506,73.681639 20.1972656,73.9980469 C19.4589807,74.3144547 18.7734407,74.7890593 18.140625,75.421875 C17.5078093,76.0546907 17.0332047,76.7402307 16.7167969,77.4785156 C16.400389,78.2168006 16.2421875,79.0429642 16.2421875,79.9570312 L16.2421875,82.6992188 L15.8203125,82.6992188 C15.6093739,82.6992188 15.4160165,82.7343746 15.2402344,82.8046875 C15.0644522,82.8750004 14.9062507,82.980468 14.765625,83.1210938 L14.5546875,83.5429688 C14.4843746,83.6835945 14.4492188,83.8593739 14.4492188,84.0703125 L14.4492188,92.4023438 C14.4492188,92.6132823 14.4843746,92.7890618 14.5546875,92.9296875 L14.765625,93.3515625 C14.9062507,93.4921882 15.0644522,93.5976559 15.2402344,93.6679688 C15.4160165,93.7382816 15.6093739,93.7734375 15.8203125,93.7734375 L29.53125,93.7734375 C29.6718757,93.7734375 29.8300772,93.7382816 30.0058594,93.6679688 C30.1816415,93.5976559 30.339843,93.4921882 30.4804688,93.3515625 C30.6210945,93.2109368 30.7265621,93.0703132 30.796875,92.9296875 C30.8671879,92.7890618 30.9023438,92.6132823 30.9023438,92.4023438 L30.9023438,84.0703125 C30.9023438,83.8593739 30.8671879,83.6835945 30.796875,83.5429688 C30.7265621,83.402343 30.6210945,83.2617195 30.4804688,83.1210938 Z M58.0078125,20.3671875 L49.9921875,20.3671875 L49.9921875,17.4140625 C49.9921875,16.8515597 50.0976552,16.3417992 50.3085938,15.8847656 C50.5195323,15.4277321 50.8007795,14.9882834 51.1523438,14.5664062 C51.5742209,14.1445291 52.0136696,13.845704 52.4707031,13.6699219 C52.9277367,13.4941397 53.4374972,13.40625 54,13.40625 C54.5625028,13.40625 55.0722633,13.4941397 55.5292969,13.6699219 C55.9863304,13.845704 56.3906232,14.1445291 56.7421875,14.5664062 C57.1640646,14.9882834 57.4804677,15.4277321 57.6914062,15.8847656 C57.9023448,16.3417992 58.0078125,16.8515597 58.0078125,17.4140625 L58.0078125,20.3671875 Z M89.4375,82.8046875 L81.5273438,82.8046875 L81.5273438,79.7460938 C81.5273438,79.1835909 81.6152335,78.6738304 81.7910156,78.2167969 C81.9667978,77.7597633 82.2656229,77.3203146 82.6875,76.8984375 C83.1093771,76.5468732 83.5488258,76.2656261 84.0058594,76.0546875 C84.4628929,75.8437489 84.9726534,75.7382812 85.5351562,75.7382812 C86.0976591,75.7382812 86.6074196,75.8437489 87.0644531,76.0546875 C87.5214867,76.2656261 87.9257795,76.5468732 88.2773438,76.8984375 C88.6992209,77.3203146 88.998046,77.7597633 89.1738281,78.2167969 C89.3496103,78.6738304 89.4375,79.1835909 89.4375,79.7460938 L89.4375,82.8046875 Z M26.6835938,82.8046875 L18.6679688,82.8046875 L18.6679688,79.7460938 C18.6679688,79.1835909 18.7734364,78.6738304 18.984375,78.2167969 C19.1953136,77.7597633 19.4765607,77.3203146 19.828125,76.8984375 C20.2500021,76.5468732 20.6894508,76.2656261 21.1464844,76.0546875 C21.6035179,75.8437489 22.1132784,75.7382812 22.6757812,75.7382812 C23.2382841,75.7382812 23.7480446,75.8437489 24.2050781,76.0546875 C24.6621117,76.2656261 25.1015604,76.5468732 25.5234375,76.8984375 C25.8750018,77.3203146 26.1562489,77.7597633 26.3671875,78.2167969 C26.5781261,78.6738304 26.6835938,79.1835909 26.6835938,79.7460938 L26.6835938,82.8046875 Z" id="" fill="#9B9B9B"></path>
                    <g id="Group-4" transform="translate(0.000000, 138.000000)">
                        <text id="ATP" font-family="Nunito-Regular, Nunito" font-size="30" font-weight="normal" fill="#9B9B9B">
                            <tspan x="36" y="30">ATP</tspan>
                        </text>
                        <rect id="Rectangle-Copy-3" fill="#E90076" fill-rule="nonzero" x="0" y="9" width="24" height="24"></rect>
                    </g>
                </g>
                <g id="Threats-3" transform="translate(534.000000, 678.000000)">
                    <path d="M60.9609375,77.6367188 L50.8359375,77.6367188 L50.8359375,85.8632812 C51.8203174,86.2148455 52.664059,86.8476517 53.3671875,87.7617188 C54.070316,88.6757858 54.421875,89.6953069 54.421875,90.8203125 C54.421875,92.2968824 53.8945365,93.5449168 52.8398438,94.5644531 C51.785151,95.5839895 50.5546945,96.09375 49.1484375,96.09375 C47.6718676,96.09375 46.4238332,95.5839895 45.4042969,94.5644531 C44.3847605,93.5449168 43.875,92.2968824 43.875,90.8203125 C43.875,89.6953069 44.1738251,88.6933638 44.7714844,87.8144531 C45.3691436,86.9355425 46.1601513,86.3203143 47.1445312,85.96875 L47.1445312,77.6367188 L38.2851562,77.6367188 L38.2851562,98.625 C39.1992233,99.0468771 39.9550751,99.6972612 40.5527344,100.576172 C41.1503936,101.455083 41.4492188,102.42187 41.4492188,103.476562 C41.4492188,104.953132 40.9394582,106.201167 39.9199219,107.220703 C38.9003855,108.240239 37.6523511,108.75 36.1757812,108.75 C34.7695242,108.75 33.5566457,108.240239 32.5371094,107.220703 C31.517573,106.201167 31.0078125,104.953132 31.0078125,103.476562 C31.0078125,102.281244 31.3417935,101.226567 32.0097656,100.3125 C32.6777377,99.3984329 33.5390572,98.8007827 34.59375,98.5195312 L34.59375,77.6367188 L31.21875,77.6367188 C29.6718673,77.6367188 28.3535211,77.0918023 27.2636719,76.0019531 C26.1738227,74.9121039 25.6289062,73.6289136 25.6289062,72.1523438 L25.6289062,68.9882812 L20.7773438,68.9882812 C20.4257795,70.042974 19.7929733,70.9218715 18.8789062,71.625 C17.9648392,72.3281285 16.9101622,72.6796875 15.7148438,72.6796875 C14.3085867,72.6796875 13.0957082,72.169927 12.0761719,71.1503906 C11.0566355,70.1308543 10.546875,68.8828199 10.546875,67.40625 C10.546875,65.9296801 11.0566355,64.6816457 12.0761719,63.6621094 C13.0957082,62.642573 14.3085867,62.1328125 15.7148438,62.1328125 C16.8398494,62.1328125 17.8417925,62.4316376 18.7207031,63.0292969 C19.5996138,63.6269561 20.214842,64.4179638 20.5664062,65.4023438 L25.6289062,65.4023438 L25.6289062,56.9648438 L9.28125,56.9648438 C8.78906004,56.9648438 8.36718926,57.1406232 8.015625,57.4921875 C7.66406074,57.8437518 7.48828125,58.2656225 7.48828125,58.7578125 L7.48828125,69.6210938 C8.40234832,70.0429709 9.14062219,70.693355 9.703125,71.5722656 C10.2656278,72.4511763 10.546875,73.4179635 10.546875,74.4726562 C10.546875,75.8789133 10.0195365,77.0917918 8.96484375,78.1113281 C7.91015098,79.1308645 6.67969453,79.640625 5.2734375,79.640625 C3.79686762,79.640625 2.54883322,79.1308645 1.52929688,78.1113281 C0.509760527,77.0917918 0,75.8789133 0,74.4726562 C0,73.2070249 0.369136934,72.1171921 1.10742188,71.203125 C1.84570682,70.2890579 2.77733812,69.6562518 3.90234375,69.3046875 L3.90234375,58.7578125 C3.90234375,57.2812426 4.42968223,55.9980523 5.484375,54.9082031 C6.53906777,53.8183539 7.80468012,53.2734375 9.28125,53.2734375 L25.6289062,53.2734375 L25.6289062,44.4140625 L10.2304688,44.4140625 C9.87890449,45.4687553 9.24609832,46.3476527 8.33203125,47.0507812 C7.41796418,47.7539098 6.39844313,48.1054688 5.2734375,48.1054688 C3.79686762,48.1054688 2.54883322,47.5957082 1.52929688,46.5761719 C0.509760527,45.5566355 0,44.3086011 0,42.8320312 C0,41.3554614 0.509760527,40.107427 1.52929688,39.0878906 C2.54883322,38.0683543 3.79686762,37.5585938 5.2734375,37.5585938 C6.32813027,37.5585938 7.29491748,37.8574189 8.17382812,38.4550781 C9.05273877,39.0527374 9.70312289,39.8437451 10.125,40.828125 L25.6289062,40.828125 L25.6289062,35.5546875 C25.6289062,34.0078048 26.1738227,32.6894586 27.2636719,31.5996094 C28.3535211,30.5097602 29.6718673,29.9648438 31.21875,29.9648438 L31.4296875,29.9648438 L31.4296875,24.1640625 C31.4296875,20.9296713 32.0624937,17.8711082 33.328125,14.9882812 C34.5234435,12.1757672 36.1757707,9.7148543 38.2851562,7.60546875 C40.3945418,5.4960832 42.8906106,3.80860008 45.7734375,2.54296875 C48.5859516,1.34765027 51.6093588,0.75 54.84375,0.75 C58.0781412,0.75 61.1015484,1.34765027 63.9140625,2.54296875 C66.7968894,3.80860008 69.2929582,5.4960832 71.4023438,7.60546875 C73.5117293,9.7148543 75.1640565,12.1757672 76.359375,14.9882812 C77.6250063,17.8711082 78.2578125,20.9296713 78.2578125,24.1640625 L78.2578125,29.9648438 L78.46875,29.9648438 C80.0156327,29.9648438 81.3339789,30.5097602 82.4238281,31.5996094 C83.5136773,32.6894586 84.0585938,34.0078048 84.0585938,35.5546875 L84.0585938,41.4609375 L92.6015625,41.4609375 C93.0937525,41.4609375 93.5156232,41.285158 93.8671875,40.9335938 C94.2187518,40.5820295 94.3945312,40.1601587 94.3945312,39.6679688 L94.3945312,37.1367188 C93.4101513,36.7148416 92.6015657,36.0644575 91.96875,35.1855469 C91.3359343,34.3066362 91.0195312,33.3046931 91.0195312,32.1796875 C91.0195312,30.7031176 91.5292918,29.4550832 92.5488281,28.4355469 C93.5683645,27.4160105 94.781243,26.90625 96.1875,26.90625 C97.6640699,26.90625 98.9121043,27.4160105 99.9316406,28.4355469 C100.951177,29.4550832 101.460938,30.7031176 101.460938,32.1796875 C101.460938,33.3046931 101.144534,34.3242142 100.511719,35.2382812 C99.8789031,36.1523483 99.0351615,36.7851545 97.9804688,37.1367188 L97.9804688,39.6679688 C97.9804688,41.1445386 97.4531303,42.410151 96.3984375,43.4648438 C95.3437447,44.5195365 94.0781324,45.046875 92.6015625,45.046875 L84.0585938,45.046875 L84.0585938,53.8007812 L97.7695312,53.8007812 C98.1210955,52.7460885 98.7539017,51.884769 99.6679688,51.2167969 C100.582036,50.5488248 101.601557,50.2148438 102.726562,50.2148438 C104.203132,50.2148438 105.451167,50.7246043 106.470703,51.7441406 C107.490239,52.763677 108,53.9765555 108,55.3828125 C108,56.8593824 107.490239,58.1074168 106.470703,59.1269531 C105.451167,60.1464895 104.203132,60.65625 102.726562,60.65625 C101.601557,60.65625 100.599614,60.3574249 99.7207031,59.7597656 C98.8417925,59.1621064 98.2265643,58.3710987 97.875,57.3867188 L84.0585938,57.3867188 L84.0585938,66.4570312 L95.9765625,66.4570312 C96.3281268,65.4023385 96.9609329,64.541019 97.875,63.8730469 C98.7890671,63.2050748 99.8085881,62.8710938 100.933594,62.8710938 C102.410164,62.8710938 103.658198,63.3808543 104.677734,64.4003906 C105.697271,65.419927 106.207031,66.6679614 106.207031,68.1445312 C106.207031,69.6211011 105.697271,70.8691355 104.677734,71.8886719 C103.658198,72.9082082 102.410164,73.4179688 100.933594,73.4179688 C99.8085881,73.4179688 98.806645,73.1015657 97.9277344,72.46875 C97.0488237,71.8359343 96.4335955,71.0625046 96.0820312,70.1484375 L84.0585938,70.1484375 L84.0585938,72.1523438 C84.0585938,73.6289136 83.5136773,74.9121039 82.4238281,76.0019531 C81.3339789,77.0918023 80.0156327,77.6367188 78.46875,77.6367188 L76.1484375,77.6367188 L76.1484375,82.3828125 C77.0625046,82.8046896 77.8359343,83.4550737 78.46875,84.3339844 C79.1015657,85.212895 79.4179688,86.2148381 79.4179688,87.3398438 C79.4179688,88.7461008 78.9082082,89.9765572 77.8886719,91.03125 C76.8691355,92.0859428 75.6211011,92.6132812 74.1445312,92.6132812 C72.7382742,92.6132812 71.5078178,92.0859428 70.453125,91.03125 C69.3984322,89.9765572 68.8710938,88.7461008 68.8710938,87.3398438 C68.8710938,86.1445253 69.2226527,85.0898483 69.9257812,84.1757812 C70.6289098,83.2617142 71.4726513,82.628908 72.4570312,82.2773438 L72.4570312,77.6367188 L64.546875,77.6367188 L64.546875,93.7734375 C64.546875,94.3359403 64.7226545,94.792967 65.0742188,95.1445312 C65.425783,95.4960955 65.8828097,95.671875 66.4453125,95.671875 L82.5820312,95.671875 C83.0039084,94.6874951 83.6542925,93.8789094 84.5332031,93.2460938 C85.4121138,92.6132781 86.4140569,92.296875 87.5390625,92.296875 C88.9453195,92.296875 90.175776,92.8066355 91.2304688,93.8261719 C92.2851615,94.8457082 92.8125,96.0937426 92.8125,97.5703125 C92.8125,99.0468824 92.2851615,100.294917 91.2304688,101.314453 C90.175776,102.333989 88.9453195,102.84375 87.5390625,102.84375 C86.343744,102.84375 85.306645,102.509769 84.4277344,101.841797 C83.5488237,101.173825 82.9335955,100.312505 82.5820312,99.2578125 L66.4453125,99.2578125 C64.8984298,99.2578125 63.5976615,98.730474 62.5429688,97.6757812 C61.488276,96.6210885 60.9609375,95.3203202 60.9609375,93.7734375 L60.9609375,77.6367188 Z M71.1914062,29.9648438 L71.1914062,24.1640625 C71.1914062,19.5937271 69.5918129,15.7265783 66.3925781,12.5625 C63.1933434,9.39842168 59.3437725,7.81640625 54.84375,7.81640625 C50.3437275,7.81640625 46.4941566,9.39842168 43.2949219,12.5625 C40.0956871,15.7265783 38.4960938,19.5937271 38.4960938,24.1640625 L38.4960938,29.9648438 L71.1914062,29.9648438 Z M55.8984375,69.4101563 C55.8984375,69.4101563 53.8769733,67.6523613 49.8339844,64.1367188 C45.7909954,60.6210762 45.5624821,57.3867335 49.1484375,54.4335938 C51.0468845,52.886711 53.5429533,51.5859428 56.6367188,50.53125 C59.8007971,49.4062444 62.8945161,48.492191 65.9179688,47.7890625 C68.9414214,47.085934 71.5781138,46.5585955 73.828125,46.2070313 C76.0078234,45.9257798 77.0976562,45.7851563 77.0976562,45.7851563 C77.0976562,45.7851563 75.3574393,45.5917988 71.8769531,45.2050781 C68.396467,44.8183574 64.8632992,44.5546882 61.2773438,44.4140625 C54.7382486,44.2734368 48.9023694,44.9413989 43.7695313,46.4179688 C38.6366931,47.8945386 36.94921,51.0234136 38.7070313,55.8046875 C40.253914,60.0234586 43.5058346,63.345691 48.4628906,65.7714844 C53.4199467,68.1972778 55.8984375,69.4101563 55.8984375,69.4101563 Z" id="" fill="#9B9B9B"></path>
                    <g id="Group-6" transform="translate(0.000000, 138.000000)">
                        <text id="WIDP" font-family="Nunito-Regular, Nunito" font-size="30" font-weight="normal" fill="#9B9B9B">
                            <tspan x="36" y="30">WIDP</tspan>
                        </text>
                        <rect id="Rectangle-Copy-4" fill="#0DA18F" fill-rule="nonzero" x="0" y="9" width="24" height="24"></rect>
                    </g>
                </g>
                <g id="Alerts-1" transform="translate(78.000000, 1086.000000)">
                    <g id="Group-9">
                        <rect id="Rectangle" fill="#CC0300" fill-rule="nonzero" x="0" y="0" width="108" height="108" rx="6"></rect>
                        <text id="" font-family="SonicWallIconFont" font-size="48" font-weight="normal" fill="#FFFFFF">
                            <tspan x="30" y="75"></tspan>
                        </text>
                    </g>
                    <text id="High" font-family="Nunito-Regular, Nunito" font-size="30" font-weight="normal" fill="#9B9B9B">
                        <tspan x="21" y="168">High</tspan>
                    </text>
                </g>
                <g id="Alerts-2" transform="translate(306.000000, 1086.000000)">
                    <rect id="Rectangle-Copy-7" fill="#FC9700" fill-rule="nonzero" x="0" y="0" width="108" height="108" rx="6"></rect>
                    <text id="Medium" font-family="Nunito-Regular, Nunito" font-size="30" font-weight="normal" fill="#9B9B9B">
                        <tspan x="0" y="168">Medium</tspan>
                    </text>
                </g>
                <g id="Alerts3" transform="translate(534.000000, 1086.000000)">
                    <rect id="Rectangle-Copy-8" fill="#EFE47E" fill-rule="nonzero" x="0" y="0" width="108" height="108" rx="6"></rect>
                    <text id="Low" font-family="Nunito-Regular, Nunito" font-size="30" font-weight="normal" fill="#9B9B9B">
                        <tspan x="24" y="168">Low</tspan>
                    </text>
                </g>
                <text id="Online" font-family="Nunito-Regular, Nunito" font-size="36" font-weight="normal" fill="#9B9B9B">
                    <tspan x="591" y="1503">Online</tspan>
                </text>
                <text id="Offline" font-family="Nunito-Regular, Nunito" font-size="36" font-weight="normal" fill="#9B9B9B">
                    <tspan x="240" y="1590">Offline</tspan>
                </text>
                <rect id="Rectangle" fill="#98CB04" fill-rule="nonzero" x="78" y="1482" width="420" height="18" rx="9"></rect>
                <rect id="Rectangle-Copy-5" fill="#FF0000" fill-rule="nonzero" x="78" y="1569" width="90" height="18" rx="9"></rect>
                <g id="logo" transform="translate(354.000000, 2205.000000)" fill-rule="nonzero">
                    <path d="M65.6547007,0.665734266 C72.4854701,0.665734266 78.3042736,3.01787762 82.8581196,7.72216429 C87.5384615,12.426451 89.8153846,18.3068094 89.8153846,25.2325647 C89.8153846,32.0276454 87.5384615,37.908004 82.8581196,42.7429653 C78.3042736,47.5779266 72.6119658,49.9300699 66.0341879,49.9300699 C59.3299146,49.9300699 53.6376068,47.5779266 48.9572651,42.7429653 C44.2769231,38.0386786 42,32.2889947 42,25.4939139 C42,21.0509766 43.0119658,16.8693884 45.1623932,12.9491495 C47.3128206,9.15958522 50.0957266,6.15406874 53.7641025,3.93260003 C57.4324786,1.7111313 61.3538462,0.665734266 65.6547007,0.665734266 Z M65.7811965,5.1086717 C62.365812,5.1086717 59.2034188,6.02339411 56.2940171,7.85283892 C53.2581196,9.68228374 50.9811965,12.0344271 49.2102565,15.1706182 C47.5658121,18.1761347 46.680342,21.5736751 46.680342,25.3632393 C46.680342,30.9822484 48.5777779,35.686535 52.2461538,39.4760995 C56.0410256,43.2656638 60.4683761,45.2257833 65.7811965,45.2257833 C69.3230769,45.2257833 72.6119658,44.3110609 75.5213675,42.6122907 C78.557265,40.9135205 80.8341879,38.4307025 82.4786324,35.4251858 C84.1230768,32.4196693 85.0085469,29.0221289 85.0085469,25.2325647 C85.0085469,21.5736751 84.1230768,18.1761347 82.4786324,15.1706182 C80.8341879,12.1651017 78.4307693,9.81295837 75.3948718,7.98351355 C72.4854701,6.02339411 69.1965811,5.1086717 65.7811965,5.1086717 Z" id="Shape" fill="#646569"></path>
                    <path d="M315.604012,0.665734266 L306.375251,0.665734266 L293.353846,36.4116241 L319.523077,36.5416094 L324.579933,49.9300699 L334.061538,49.9300699 L315.604012,0.665734266 Z M304.731773,30.5622967 L311.179263,13.6642397 L317.500333,30.5622967 L304.731773,30.5622967 Z" id="Shape" fill="#646569"></path>
                    <path d="M343.645085,0.796441254 L352.744918,0.796441254 L352.744918,41.184901 L370.818198,41.184901 L370.818198,50.2036832 L343.645085,50.2036832 L343.645085,0.796441254 Z M380.549964,0.796441254 L389.649797,0.796441254 L389.649797,41.184901 L407.723077,41.184901 L407.723077,50.2036832 L380.549964,50.2036832 L380.549964,0.796441254 Z M279.567093,0.796441254 L290.183567,0.796441254 L272.868604,50.4650972 L264.021547,50.4650972 L253.152301,18.0497638 L252.899528,17.3962289 L252.646755,18.0497638 L241.903897,50.4650972 L232.930449,50.4650972 L215.741876,0.796441254 L226.611121,0.796441254 L237.480366,34.3881373 L237.733139,35.1723793 L237.985912,34.3881373 L248.728771,0.665734266 L257.449443,0.665734266 L268.192302,34.3881373 L268.445077,35.1723793 L268.697849,34.3881373 L279.567093,0.796441254 Z M210.812799,38.5707612 L210.812799,44.5832827 C209.422547,45.7596456 207.779522,47.1974225 206.136497,47.9816644 C202.724059,49.6808553 198.932462,50.4650972 194.761705,50.4650972 C186.799351,50.4650972 180.480023,47.7202504 175.930106,42.2305569 C172.012122,37.6558123 170.116324,32.0354115 170.116324,25.5000621 C170.116324,18.5725918 172.391282,12.8214843 177.067585,8.11603264 C181.743888,3.41058105 187.557671,1.05785523 194.635318,1.05785523 C198.932462,1.05785523 202.724059,1.97280415 206.136497,3.67199503 C207.779522,4.45623696 209.296161,5.89401383 210.686413,7.07037673 L210.686413,13.4750192 C208.790614,10.9915864 206.515656,9.03098156 203.861538,7.72391168 C201.081034,6.2861348 198.047756,5.63259986 194.761705,5.63259986 C191.096495,5.63259986 187.684057,6.54754878 184.650779,8.37744662 C181.491115,10.2073445 179.08977,12.6907773 177.446745,15.697038 C175.80372,18.7032988 174.919014,22.1016805 174.919014,25.8921831 C174.919014,31.6432906 176.814812,36.4794492 180.606409,40.2699521 C184.398006,44.0604548 189.200696,46.0210596 195.014478,46.0210596 C201.333807,46.0210596 206.515656,43.5376268 210.812799,38.5707612 Z M152.674977,0.796441254 L157.224894,0.796441254 L157.224894,50.4650972 L152.674977,50.4650972 L152.674977,0.796441254 Z M101.867576,50.5958042 L101.867576,0.796441254 L102.878668,0.796441254 L134.854471,38.9628822 L134.854471,0.796441254 L139.65716,0.796441254 L139.65716,50.5958042 L138.519681,50.5958042 L106.796652,12.9521912 L106.796652,50.5958042 L101.867576,50.5958042 Z M17.3149602,23.2780434 C28.0578186,25.6307691 32.7341218,29.6826858 32.6077352,36.8715704 L32.6077352,37.0022774 C32.6077352,44.8446967 26.2884066,50.3343902 17.062187,50.3343902 C10.8692451,50.3343902 5.68739567,48.6351994 0.758319424,44.7139897 L0.758319424,39.0935892 L0.884705994,38.9628822 L1.2638657,39.3550032 C6.44571508,44.3218687 10.9956316,46.2824736 17.3149602,46.2824736 C23.7606752,46.2824736 28.3105918,42.6226779 28.3105918,37.3943983 L28.3105918,37.2636913 C28.3105918,32.8196535 26.2884066,29.9440997 15.7983213,27.7220809 C4.54991654,25.3693551 0,21.4481455 0,13.9978472 L0,13.8671402 C0,6.41684179 6.57210165,0.927148243 15.1663884,0.927148243 C20.4746244,0.927148243 24.6453812,2.10351114 28.8161381,4.97906491 L28.8161381,10.4687584 L28.6897515,10.5994655 L28.3105918,10.2073445 C24.2662215,6.54754878 20.2218513,4.97906491 15.0400019,4.97906491 C8.84705994,4.97906491 4.42352997,8.50815361 4.42352997,13.3443122 L4.42352997,13.4750192 C4.42352997,18.0497638 6.44571508,20.9253176 17.3149602,23.2780434 Z" id="Combined-Shape" fill="#646569"></path>
                    <path d="M418.598482,8.00756427 C417.706609,8.92646509 416.687323,9.32027972 415.413217,9.32027972 C414.139111,9.32027972 412.992417,8.92646509 412.227952,8.00756427 C411.46349,7.08866345 410.953846,6.03849109 410.953846,4.72577564 C410.953846,3.41306019 411.46349,2.23161626 412.355364,1.31271546 C413.247238,0.525086183 414.266523,0 415.540629,0 C416.814735,0 417.834018,0.393814638 418.725894,1.31271546 C419.617768,2.23161626 420,3.28178865 420,4.5945041 C420,6.03849109 419.490356,7.08866345 418.598482,8.00756427 Z M412.737596,1.96907317 C411.973131,2.75670244 411.590899,3.67560328 411.590899,4.72577564 C411.590899,5.775948 411.973131,6.69484882 412.737596,7.48247809 C413.502058,8.27010736 414.393932,8.663922 415.413217,8.663922 C416.432503,8.663922 417.324376,8.27010736 418.088841,7.48247809 C418.853303,6.69484882 419.235535,5.775948 419.235535,4.72577564 C419.235535,3.67560328 418.853303,2.75670244 418.088841,1.96907317 C417.324376,1.18144391 416.432503,0.787629273 415.413217,0.787629273 C414.393932,0.787629273 413.502058,1.18144391 412.737596,1.96907317 Z M413.374649,7.219935 L413.374649,1.96907317 C413.62947,1.96907317 414.139111,1.96907317 414.776164,1.96907317 C415.413217,1.96907317 415.79545,1.96907317 415.79545,1.96907317 C416.177682,1.96907317 416.559912,2.10034472 416.814735,2.23161626 C417.324376,2.49415935 417.451788,2.88797399 417.451788,3.41306019 C417.451788,3.80687483 417.324376,4.20068946 417.069556,4.33196101 C416.814735,4.46323255 416.559912,4.5945041 416.177682,4.72577564 C416.432503,4.85704719 416.687323,4.85704719 416.942144,4.98831873 C417.196965,5.25086182 417.324376,5.64467646 417.324376,6.16976264 L417.324376,6.69484882 C417.324376,6.69484882 417.324376,6.82612036 417.324376,6.82612036 C417.324376,6.82612036 417.324376,6.95739191 417.324376,6.95739191 L417.324376,7.08866345 L416.05027,7.08866345 C416.05027,6.95739191 415.922859,6.69484882 415.922859,6.43230573 C415.922859,6.16976264 415.922859,5.90721955 415.79545,5.775948 C415.668038,5.64467646 415.668038,5.51340491 415.413217,5.38213337 C415.285806,5.38213337 415.158397,5.25086182 414.903576,5.25086182 L414.648753,5.25086182 L414.393932,5.25086182 L414.393932,7.08866345 L413.374649,7.08866345 L413.374649,7.219935 Z M415.79545,3.01924556 C415.668038,2.88797399 415.413217,2.88797399 415.030985,2.88797399 L414.648753,2.88797399 L414.648753,4.46323255 L415.158397,4.46323255 C415.413217,4.46323255 415.668038,4.46323255 415.922859,4.33196101 C416.05027,4.20068946 416.177682,3.93814637 416.177682,3.67560328 C416.177682,3.41306019 416.05027,3.1505171 415.79545,3.01924556 Z" id="Shape" fill="#FFFFFF"></path>
                    <path d="M307.182024,71.2335664 C307.182024,71.2335664 284.954657,62.9688911 280.029273,49.0632468 C274.598722,33.5833785 294.931714,30.0413748 315.643579,30.6973014 C326.883557,31.0908573 340.523077,32.7962665 340.523077,32.7962665 C340.523077,32.7962665 308.19236,37.1253825 296.447216,46.8330964 C285.20724,56.4096249 307.182024,71.2335664 307.182024,71.2335664 Z" id="Shape" fill="#F36E21"></path>
                </g>
                <path d="M81,1980.53699 L666.722582,1980.53699 C650.795167,1926.1806 635.704434,1895.12546 621.450381,1887.37159 C600.069302,1875.74079 600.151461,1906.35046 577.282823,1911.68966 C542.264137,1919.86556 560.498954,1944.98688 526.16829,1934.72256 C489.727374,1923.8273 462.298193,1851.31606 444.007429,1854.91737 C421.387094,1859.37113 433.582892,1889.50706 421.387094,1893.50584 C409.191297,1897.50461 401.668409,1875.49087 373.861291,1887.37159 C346.054173,1899.25232 300.267581,1913.98568 291.96512,1925.53811 C280.101097,1942.04626 253.274541,1959.30283 242.122528,1952.98025 C220.914726,1940.95659 217.776836,1897.15785 210.982255,1898.93599 C197.795868,1902.38688 185.055611,1945.2406 179.887332,1948.43395 C168.354461,1955.55984 145.418651,1904.20429 139.158078,1911.68966 C132.150218,1920.06851 112.764192,1943.01762 81,1980.53699 Z" id="Path-2-Copy" stroke="#FF791A" stroke-width="2.4" fill-opacity="0.26" fill="url(#linearGradient-2)" fill-rule="nonzero"></path>
                <path d="M81.4768629,1980.53699 L667.199445,1980.53699 C639.361337,1874.61407 621.036995,1824.17378 612.22642,1829.21611 C599.010557,1836.77961 599.010557,1860.60869 596.815969,1874.80911 C592.68535,1901.53692 592.576781,1920.19891 569.708142,1925.53811 C534.689456,1933.71401 543.060226,1817.335 521.484018,1817.335 C500.657211,1817.335 513.939136,1944.40201 479.608472,1934.13768 C433.425205,1920.32961 435.041522,1904.64625 418.838318,1934.13768 C414.581723,1941.8851 391.078018,1910.51884 385.634299,1916.74262 C380.19058,1922.9664 380.19058,1930.92424 374.338154,1934.13768 C350.62492,1947.1581 357.045877,1849.78473 342.814227,1843.65996 C334.495613,1840.07994 330.529376,1904.03688 315.508387,1934.13768 C304.831168,1955.53393 287.273596,1949.96451 277.974635,1943.95209 C268.675673,1937.93967 251.687398,1848.51189 242.015669,1855.27683 C223.764947,1868.04239 228.363084,1892.79015 225.886518,1906.49752 C220.653348,1935.46222 220.520728,1966.83343 201.930175,1955.45563 C182.007456,1943.26252 190.147385,1916.74262 175.838405,1916.74262 C161.529426,1916.74262 144.803219,1930.94432 139.634941,1934.13768 C128.102069,1941.26357 110.85787,1926.65231 104.597296,1934.13768 C97.5894366,1942.51653 89.8826254,1957.98297 81.4768629,1980.53699 Z" id="Path-2" stroke="#0CB6A3" stroke-width="2.4" fill-opacity="0.26" fill="url(#linearGradient-3)" fill-rule="nonzero"></path>
                <text id="" font-family="SonicWallIconFont" font-size="48" font-weight="normal" fill="#000000">
                    <tspan x="336" y="1161"></tspan>
                </text>
                <text id="-copy" font-family="SonicWallIconFont" font-size="48" font-weight="normal" fill="#000000">
                    <tspan x="564" y="1161"></tspan>
                </text>
                <g id="Group-12" transform="translate(798.000000, 658.500000)" fill="#FFFFFF" fill-opacity="0.12" fill-rule="nonzero">
                    <path d="M99,198 C44.3238098,198 0,153.67619 0,99 C0,44.3238098 44.3238098,0 99,0 C153.67619,0 198,44.3238098 198,99 C198,153.67619 153.67619,198 99,198 Z M99,180 C143.735065,180 180,143.735065 180,99 C180,54.2649353 143.735065,18 99,18 C54.2649353,18 18,54.2649353 18,99 C18,143.735065 54.2649353,180 99,180 Z" id="Shape"></path>
                </g>
                <g id="Group-12-Copy-2" transform="translate(798.000000, 1041.000000)" fill="#FFFFFF" fill-opacity="0.16" fill-rule="nonzero">
                    <path d="M99,198 C44.3238098,198 0,153.67619 0,99 C0,44.3238098 44.3238098,0 99,0 C153.67619,0 198,44.3238098 198,99 C198,153.67619 153.67619,198 99,198 Z M99,180 C143.735065,180 180,143.735065 180,99 C180,54.2649353 143.735065,18 99,18 C54.2649353,18 18,54.2649353 18,99 C18,143.735065 54.2649353,180 99,180 Z" id="Shape"></path>
                </g>
                <g id="Group-12-Copy-3" transform="translate(798.000000, 1410.000000)" fill="#FFFFFF" fill-opacity="0.16" fill-rule="nonzero">
                    <path d="M99,198 C44.3238098,198 0,153.67619 0,99 C0,44.3238098 44.3238098,0 99,0 C153.67619,0 198,44.3238098 198,99 C198,153.67619 153.67619,198 99,198 Z M99,180 C143.735065,180 180,143.735065 180,99 C180,54.2649353 143.735065,18 99,18 C54.2649353,18 18,54.2649353 18,99 C18,143.735065 54.2649353,180 99,180 Z" id="Shape"></path>
                </g>
                <g id="Group-14" transform="translate(807.000000, 669.000000)" fill-rule="nonzero" stroke-linecap="round" stroke-width="18">
                    <g id="Group-13">
                        <path d="M0,90 C0,139.705627 40.2943725,180 90,180 L90,180 C139.705627,180 180,139.705627 180,90 C180,40.2943725 139.705627,0 90,0" id="Path" stroke="#0DA18F"></path>
                        <path d="M131.084253,134.222131 C141.571728,123.418452 150,109.246062 150,93 C150,59.862915 123.137085,33 90,33" id="Path" stroke="#CE8ABE"></path>
                        <path d="M114,90 C114,76.745166 103.254834,66 90,66" id="Path" stroke="#E90076"></path>
                    </g>
                </g>
                <path d="M807,1140 C807,1189.70563 847.294373,1230 897,1230 L897,1230 C946.705627,1230 987,1189.70563 987,1140 C987,1090.29437 946.705627,1050 897,1050" id="Path" stroke="#EFE47E" stroke-width="18" stroke-linecap="round" fill-rule="nonzero"></path>
                <path d="M957,1143 C957,1109.86292 930.137085,1083 897,1083" id="Path" stroke="#FC9700" stroke-width="18" stroke-linecap="round" fill-rule="nonzero"></path>
                <path d="M945.837078,1477.13601 C934.954044,1461.91838 917.135303,1452 897,1452" id="Path" stroke="#FF0000" stroke-width="18" stroke-linecap="round" fill-rule="nonzero"></path>
                <path d="M921,1140 C921,1126.74517 910.254834,1116 897,1116" id="Path" stroke="#CC0300" stroke-width="18" stroke-linecap="round" fill-rule="nonzero"></path>
                <path d="M835.546158,1443.2468 C817.979636,1459.6716 807,1483.05359 807,1509 C807,1558.70563 847.294373,1599 897,1599 L897,1599 C946.705627,1599 987,1558.70563 987,1509 C987,1459.29437 946.705627,1419 897,1419" id="Path" stroke="#98CB04" stroke-width="18" stroke-linecap="round" fill-rule="nonzero"></path>
                <g id="Group" transform="translate(864.000000, 1851.000000)" fill-rule="nonzero" stroke-linecap="round" stroke-width="18">
                    <path d="M1.5,135 L1.5,45" id="Path-3" stroke="url(#linearGradient-4)"></path>
                    <path d="M46.5,135 L46.5,3.19744231e-14" id="Path-3-Copy" stroke="url(#linearGradient-5)"></path>
                </g>
                <g id="Group-15" transform="translate(390.000000, 657.000000)">
                    <circle id="Oval" fill="#FF3B30" fill-rule="nonzero" cx="21" cy="24" r="21"></circle>
                    <text id="1" font-family="Helvetica" font-size="27" font-weight="normal" fill="#FFFFFF">
                        <tspan x="12" y="26">1</tspan>
                    </text>
                </g>
                <g id="Group-15-Copy-3" transform="translate(390.000000, 1062.000000)">
                    <circle id="Oval" fill="#FF3B30" fill-rule="nonzero" cx="21" cy="24" r="21"></circle>
                    <text id="1" font-family="Helvetica" font-size="27" font-weight="normal" fill="#FFFFFF">
                        <tspan x="12" y="26">1</tspan>
                    </text>
                </g>
                <g id="Group-15-Copy" transform="translate(174.000000, 657.000000)">
                    <circle id="Oval" fill="#FF3B30" fill-rule="nonzero" cx="21" cy="24" r="21"></circle>
                    <circle id="Oval-Copy" fill="#FF3B30" fill-rule="nonzero" cx="21" cy="24" r="21"></circle>
                    <text id="4" font-family="Helvetica" font-size="27" font-weight="normal" fill="#FFFFFF">
                        <tspan x="12" y="26">4</tspan>
                    </text>
                </g>
                <g id="Group-15-Copy-4" transform="translate(174.000000, 1062.000000)">
                    <circle id="Oval" fill="#FF3B30" fill-rule="nonzero" cx="21" cy="24" r="21"></circle>
                    <circle id="Oval-Copy" fill="#FF3B30" fill-rule="nonzero" cx="21" cy="24" r="21"></circle>
                    <text id="3" font-family="Helvetica" font-size="27" font-weight="normal" fill="#FFFFFF">
                        <tspan x="15" y="26">3</tspan>
                    </text>
                </g>
                <g id="Group-15-Copy-5" transform="translate(183.000000, 1554.000000)">
                    <circle id="Oval" fill="#FF3B30" fill-rule="nonzero" cx="21" cy="24" r="21"></circle>
                    <circle id="Oval-Copy" fill="#FF3B30" fill-rule="nonzero" cx="21" cy="24" r="21"></circle>
                    <text id="3" font-family="Helvetica" font-size="27" font-weight="normal" fill="#FFFFFF">
                        <tspan x="15" y="26">3</tspan>
                    </text>
                </g>
                <g id="Group-15-Copy-2" transform="translate(633.000000, 657.000000)">
                    <circle id="Oval" fill="#FF3B30" fill-rule="nonzero" cx="21" cy="24" r="21"></circle>
                    <circle id="Oval-Copy" fill="#FF3B30" fill-rule="nonzero" cx="21" cy="24" r="21"></circle>
                    <text id="8" font-family="Helvetica" font-size="27" font-weight="normal" fill="#FFFFFF">
                        <tspan x="15" y="26">8</tspan>
                    </text>
                </g>
                <g id="Group-16" transform="translate(621.000000, 1062.000000)">
                    <rect id="Rectangle" fill="#FF3B30" fill-rule="nonzero" x="0" y="3" width="54" height="42" rx="21"></rect>
                    <text id="12" font-family="Helvetica" font-size="27" font-weight="normal" fill="#FFFFFF">
                        <tspan x="9" y="26">12</tspan>
                    </text>
                </g>
                <g id="Group-16-Copy" transform="translate(519.000000, 1467.000000)">
                    <rect id="Rectangle" fill="#FF3B30" fill-rule="nonzero" x="0" y="3" width="54" height="42" rx="21"></rect>
                    <text id="12" font-family="Helvetica" font-size="27" font-weight="normal" fill="#FFFFFF">
                        <tspan x="9" y="26">12</tspan>
                    </text>
                </g>
            </g>
        </g>
    </g>
</svg>