<?xml version="1.0" encoding="UTF-8"?>
<svg width="347px" height="119px" viewBox="0 0 347 119" version="1.1" xmlns="http://www.w3.org/2000/svg" xmlns:xlink="http://www.w3.org/1999/xlink">
    <!-- Generator: Sketch 53.2 (72643) - https://sketchapp.com -->
    <title>Group 67</title>
    <desc>Created with Sketch.</desc>
    <defs>
        <linearGradient x1="100%" y1="2169.52882%" x2="0%" y2="2169.52882%" id="linearGradient-1">
            <stop stop-color="#000000" offset="0%"></stop>
            <stop stop-color="#F36E21" offset="19.4635116%"></stop>
            <stop stop-color="#F36E21" offset="82.7786308%"></stop>
            <stop stop-color="#000000" offset="100%"></stop>
        </linearGradient>
    </defs>
    <g id="Page-2" stroke="none" stroke-width="1" fill="none" fill-rule="evenodd">
        <g id="Group-17" transform="translate(-7.000000, -172.000000)">
            <g id="Group-67" transform="translate(7.680000, 171.840000)">
                <text id="Threats" font-family="Helvetica" font-size="11.52" font-weight="normal" fill="#9B9B9B">
                    <tspan x="17.28" y="18.68">THREATS</tspan>
                </text>
                <path d="M5.68434189e-14,118.08 L345.6,118.08" id="Path-Copy" stroke="url(#linearGradient-1)" stroke-width="0.576" stroke-linecap="round" fill-rule="nonzero"></path>
                <path d="M5.68434189e-14,0.48 L345.6,0.48" id="Path-Copy-9" stroke="url(#linearGradient-1)" stroke-width="0.576" stroke-linecap="round" fill-rule="nonzero"></path>
                <g id="Group-5" transform="translate(17.280000, 45.120000)">
                    <path d="M22.275,3.37875 L3.51,3.37875 L3.51,25.485 L0.37125,25.485 L0.37125,3.37875 C0.37125,2.52374572 0.680621906,1.78687809 1.299375,1.168125 C1.91812809,0.549371906 2.65499573,0.24 3.51,0.24 L22.275,0.24 L22.275,3.37875 Z M19.20375,32.94375 L8.775,32.94375 C7.91999573,32.94375 7.18312809,32.6343781 6.564375,32.015625 C5.94562191,31.3968719 5.63625,30.6600043 5.63625,29.805 L5.63625,8.71125 C5.63625,7.83374561 5.94562191,7.09125304 6.564375,6.48375 C7.18312809,5.87624696 7.91999573,5.5725 8.775,5.5725 L25.95375,5.5725 C26.8312544,5.5725 27.573747,5.87624696 28.18125,6.48375 C28.788753,7.09125304 29.0925,7.83374561 29.0925,8.71125 L29.0925,11.985 L25.95375,11.985 L25.95375,8.71125 L8.775,8.71125 L8.775,29.805 L19.20375,29.805 L19.20375,32.94375 Z M22.17375,24.97875 L15.62625,18.02625 C15.423749,17.8012489 15.2718755,17.5537514 15.170625,17.28375 C15.0693745,17.0137486 15.01875,16.7325015 15.01875,16.44 C15.01875,15.7874967 15.2437478,15.2362522 15.69375,14.78625 C16.1437523,14.3362478 16.6837469,14.11125 17.31375,14.11125 L31.86,14.11125 C32.1525015,14.11125 32.4393736,14.1674994 32.720625,14.28 C33.0018764,14.3925006 33.243749,14.549999 33.44625,14.7525 C33.9187524,15.1800021 34.1662499,15.7143718 34.18875,16.355625 C34.2112501,16.9968782 33.9975023,17.5537476 33.5475,18.02625 L27.135,24.81 L27.135,33.6525 C27.135,33.9675016 27.0225011,34.2374989 26.7975,34.4625 C26.5724989,34.6875011 26.3025016,34.8 25.9875,34.8 C25.8974996,34.8 25.8075005,34.7887501 25.7175,34.76625 C25.6274996,34.7437499 25.5375005,34.7100002 25.4475,34.665 L22.815,33.28125 C22.612499,33.1912496 22.4550006,33.050626 22.3425,32.859375 C22.2299994,32.668124 22.17375,32.471251 22.17375,32.26875 L22.17375,24.97875 Z" id="" fill="#9B9B9B"></path>
                    <g id="Group-2" transform="translate(0.000000, 44.160000)">
                        <text id="CFS" font-family="Nunito-Regular, Nunito" font-size="9.6" font-weight="normal" fill="#9B9B9B">
                            <tspan x="11.52" y="10">CFS</tspan>
                        </text>
                        <rect id="Rectangle" fill="#CE8ABE" fill-rule="nonzero" x="0" y="2.88" width="7.68" height="7.68"></rect>
                    </g>
                </g>
                <g id="Group-8" transform="translate(90.240000, 45.120000)">
                    <path d="M16.57125,14.82 L12.2175,22.21125 C12.7350026,22.6837524 13.1737482,23.2349968 13.53375,23.865 C13.8937518,24.4950031 14.1524992,25.1699964 14.31,25.89 L20.25,25.89 C20.4075008,25.1249962 20.683123,24.4162533 21.076875,23.76375 C21.470627,23.1112467 21.9487472,22.5375025 22.51125,22.0425 L18.25875,14.78625 C18.1012492,14.8087501 17.9381258,14.8256249 17.769375,14.836875 C17.6006242,14.8481251 17.4375008,14.85375 17.28,14.85375 C17.1674994,14.85375 17.0493756,14.8481251 16.925625,14.836875 C16.8018744,14.8256249 16.6837506,14.82 16.57125,14.82 Z M14.985,14.4825 C13.5449928,13.9874975 12.3581297,13.1100063 11.424375,11.85 C10.4906203,10.5899937 10.02375,9.1500081 10.02375,7.53 C10.02375,6.53999505 10.2149981,5.5950045 10.5975,4.695 C10.9800019,3.81749561 11.4974967,3.04687832 12.15,2.383125 C12.8025033,1.71937168 13.5674956,1.19625191 14.445,0.81375 C15.3450045,0.431248088 16.2899951,0.24 17.28,0.24 C18.2700049,0.24 19.2149955,0.431248088 20.115,0.81375 C20.9925044,1.19625191 21.7574967,1.71937168 22.41,2.383125 C23.0625033,3.04687832 23.5799981,3.81749561 23.9625,4.695 C24.3450019,5.5950045 24.53625,6.53999505 24.53625,7.53 C24.53625,9.10500787 24.0918794,10.5112438 23.203125,11.74875 C22.3143706,12.9862562 21.1837569,13.8637474 19.81125,14.38125 L23.79375,21.13125 C24.3112526,20.8387485 24.868122,20.6081258 25.464375,20.439375 C26.060628,20.2706242 26.6737469,20.18625 27.30375,20.18625 C28.3162551,20.18625 29.2612456,20.3774981 30.13875,20.76 C31.0162544,21.1425019 31.7812467,21.6656217 32.43375,22.329375 C33.0862533,22.9931283 33.6037481,23.7637456 33.98625,24.64125 C34.3687519,25.5412545 34.56,26.4974949 34.56,27.51 C34.56,28.500005 34.3687519,29.4449955 33.98625,30.345 C33.6037481,31.2225044 33.0862533,31.9931217 32.43375,32.656875 C31.7812467,33.3206283 31.0162544,33.8437481 30.13875,34.22625 C29.2612456,34.6087519 28.3162551,34.8 27.30375,34.8 C26.3137451,34.8 25.3800044,34.6087519 24.5025,34.22625 C23.6249956,33.8437481 22.8543783,33.3206283 22.190625,32.656875 C21.5268717,31.9931217 21.0037519,31.2225044 20.62125,30.345 C20.2612482,29.4449955 20.08125,28.500005 20.08125,27.51 L20.08125,27.0375 L14.47875,27.0375 L14.47875,27.51 C14.47875,28.500005 14.2987518,29.4449955 13.93875,30.345 C13.5562481,31.2225044 13.0331283,31.9931217 12.369375,32.656875 C11.7056217,33.3206283 10.9350044,33.8437481 10.0575,34.22625 C9.17999561,34.6087519 8.24625495,34.8 7.25625,34.8 C6.24374494,34.8 5.29875439,34.6087519 4.42125,34.22625 C3.54374561,33.8437481 2.77875326,33.3206283 2.12625,32.656875 C1.47374674,31.9931217 0.956251912,31.2225044 0.57375,30.345 C0.191248088,29.4449955 0,28.500005 0,27.51 C0,26.4974949 0.191248088,25.5412545 0.57375,24.64125 C0.956251912,23.7637456 1.47374674,22.9931283 2.12625,22.329375 C2.77875326,21.6656217 3.54374561,21.1425019 4.42125,20.76 C5.29875439,20.3774981 6.24374494,20.18625 7.25625,20.18625 C7.93125338,20.18625 8.58937179,20.281874 9.230625,20.473125 C9.87187821,20.664376 10.4624973,20.9287483 11.0025,21.26625 L14.985,14.4825 Z M19.7775,6.6525 C19.7324998,6.60749977 19.6875002,6.57375011 19.6425,6.55125 C19.5974998,6.52874989 19.5412503,6.5175 19.47375,6.5175 L19.33875,6.5175 L19.33875,5.64 C19.33875,5.34749854 19.2881255,5.07750124 19.186875,4.83 C19.0856245,4.58249876 18.933751,4.35750101 18.73125,4.155 C18.528749,3.95249899 18.3037512,3.80062551 18.05625,3.699375 C17.8087488,3.59812449 17.5500014,3.5475 17.28,3.5475 C17.0099986,3.5475 16.7512512,3.59812449 16.50375,3.699375 C16.2562488,3.80062551 16.031251,3.95249899 15.82875,4.155 C15.626249,4.35750101 15.4743755,4.58249876 15.373125,4.83 C15.2718745,5.07750124 15.22125,5.34749854 15.22125,5.64 L15.22125,6.5175 L15.08625,6.5175 C15.0187497,6.5175 14.9625002,6.52874989 14.9175,6.55125 C14.8724998,6.57375011 14.8275002,6.60749977 14.7825,6.6525 C14.7374998,6.69750023 14.7037501,6.74249977 14.68125,6.7875 C14.6587499,6.83250022 14.6475,6.88874966 14.6475,6.95625 L14.6475,9.6225 C14.6475,9.66750023 14.6587499,9.71812472 14.68125,9.774375 C14.7037501,9.83062528 14.7374998,9.88124978 14.7825,9.92625 C14.8275002,9.97125023 14.8724998,10.0049999 14.9175,10.0275 C14.9625002,10.0500001 15.0187497,10.06125 15.08625,10.06125 L19.47375,10.06125 C19.5412503,10.06125 19.5974998,10.0500001 19.6425,10.0275 C19.6875002,10.0049999 19.7324998,9.97125023 19.7775,9.92625 C19.8225002,9.88124978 19.8562499,9.83062528 19.87875,9.774375 C19.9012501,9.71812472 19.9125,9.66750023 19.9125,9.6225 L19.9125,6.95625 C19.9125,6.88874966 19.9012501,6.83250022 19.87875,6.7875 C19.8562499,6.74249977 19.8225002,6.69750023 19.7775,6.6525 Z M29.835,26.59875 C29.7899998,26.5537498 29.7393753,26.5200001 29.683125,26.4975 C29.6268747,26.4749999 29.5650003,26.46375 29.4975,26.46375 L29.3625,26.46375 L29.3625,25.58625 C29.3625,25.2937485 29.3118755,25.0293762 29.210625,24.793125 C29.1093745,24.5568738 28.957501,24.337501 28.755,24.135 C28.552499,23.932499 28.3331262,23.7806255 28.096875,23.679375 C27.8606238,23.5781245 27.5962515,23.5275 27.30375,23.5275 C27.0337486,23.5275 26.7750012,23.5781245 26.5275,23.679375 C26.2799988,23.7806255 26.055001,23.932499 25.8525,24.135 C25.6724991,24.337501 25.5318755,24.5568738 25.430625,24.793125 C25.3293745,25.0293762 25.27875,25.2937485 25.27875,25.58625 L25.27875,26.46375 L25.11,26.46375 C25.0649998,26.46375 25.0143753,26.4749999 24.958125,26.4975 C24.9018747,26.5200001 24.8512502,26.5537498 24.80625,26.59875 C24.7612498,26.6437502 24.7275001,26.6887498 24.705,26.73375 C24.6824999,26.7787502 24.67125,26.8349997 24.67125,26.9025 L24.67125,29.56875 C24.67125,29.6362503 24.6824999,29.6924998 24.705,29.7375 C24.7275001,29.7825002 24.7612498,29.8274998 24.80625,29.8725 C24.8512502,29.9175002 24.9018747,29.9512499 24.958125,29.97375 C25.0143753,29.9962501 25.0649998,30.0075 25.11,30.0075 L29.4975,30.0075 C29.5650003,30.0075 29.6268747,29.9962501 29.683125,29.97375 C29.7393753,29.9512499 29.7899998,29.9175002 29.835,29.8725 L29.9025,29.7375 C29.9250001,29.6924998 29.93625,29.6362503 29.93625,29.56875 L29.93625,26.9025 C29.93625,26.8349997 29.9250001,26.7787502 29.9025,26.73375 L29.835,26.59875 Z M9.75375,26.59875 C9.70874977,26.5537498 9.65812528,26.5200001 9.601875,26.4975 C9.54562472,26.4749999 9.49500023,26.46375 9.45,26.46375 L9.28125,26.46375 L9.28125,25.58625 C9.28125,25.2937485 9.23062551,25.0293762 9.129375,24.793125 C9.02812449,24.5568738 8.8875009,24.337501 8.7075,24.135 C8.50499899,23.932499 8.28000124,23.7806255 8.0325,23.679375 C7.78499876,23.5781245 7.52625135,23.5275 7.25625,23.5275 C6.96374854,23.5275 6.69937618,23.5781245 6.463125,23.679375 C6.22687382,23.7806255 6.00750101,23.932499 5.805,24.135 C5.60249899,24.337501 5.45062551,24.5568738 5.349375,24.793125 C5.24812449,25.0293762 5.1975,25.2937485 5.1975,25.58625 L5.1975,26.46375 L5.0625,26.46375 C4.99499966,26.46375 4.93312528,26.4749999 4.876875,26.4975 C4.82062472,26.5200001 4.77000022,26.5537498 4.725,26.59875 L4.6575,26.73375 C4.63499989,26.7787502 4.62375,26.8349997 4.62375,26.9025 L4.62375,29.56875 C4.62375,29.6362503 4.63499989,29.6924998 4.6575,29.7375 L4.725,29.8725 C4.77000022,29.9175002 4.82062472,29.9512499 4.876875,29.97375 C4.93312528,29.9962501 4.99499966,30.0075 5.0625,30.0075 L9.45,30.0075 C9.49500023,30.0075 9.54562472,29.9962501 9.601875,29.97375 C9.65812528,29.9512499 9.70874977,29.9175002 9.75375,29.8725 C9.79875022,29.8274998 9.83249989,29.7825002 9.855,29.7375 C9.87750011,29.6924998 9.88875,29.6362503 9.88875,29.56875 L9.88875,26.9025 C9.88875,26.8349997 9.87750011,26.7787502 9.855,26.73375 C9.83249989,26.6887498 9.79875022,26.6437502 9.75375,26.59875 Z M18.5625,6.5175 L15.9975,6.5175 L15.9975,5.5725 C15.9975,5.3924991 16.0312497,5.22937573 16.09875,5.083125 C16.1662503,4.93687427 16.2562494,4.79625067 16.36875,4.66125 C16.5037507,4.52624932 16.6443743,4.43062528 16.790625,4.374375 C16.9368757,4.31812472 17.0999991,4.29 17.28,4.29 C17.4600009,4.29 17.6231243,4.31812472 17.769375,4.374375 C17.9156257,4.43062528 18.0449994,4.52624932 18.1575,4.66125 C18.2925007,4.79625067 18.3937497,4.93687427 18.46125,5.083125 C18.5287503,5.22937573 18.5625,5.3924991 18.5625,5.5725 L18.5625,6.5175 Z M28.62,26.4975 L26.08875,26.4975 L26.08875,25.51875 C26.08875,25.3387491 26.1168747,25.1756257 26.173125,25.029375 C26.2293753,24.8831243 26.3249993,24.7425007 26.46,24.6075 C26.5950007,24.4949994 26.7356243,24.4050003 26.881875,24.3375 C27.0281257,24.2699997 27.1912491,24.23625 27.37125,24.23625 C27.5512509,24.23625 27.7143743,24.2699997 27.860625,24.3375 C28.0068757,24.4050003 28.1362494,24.4949994 28.24875,24.6075 C28.3837507,24.7425007 28.4793747,24.8831243 28.535625,25.029375 C28.5918753,25.1756257 28.62,25.3387491 28.62,25.51875 L28.62,26.4975 Z M8.53875,26.4975 L5.97375,26.4975 L5.97375,25.51875 C5.97375,25.3387491 6.00749966,25.1756257 6.075,25.029375 C6.14250034,24.8831243 6.23249944,24.7425007 6.345,24.6075 C6.48000067,24.4949994 6.62062427,24.4050003 6.766875,24.3375 C6.91312573,24.2699997 7.0762491,24.23625 7.25625,24.23625 C7.4362509,24.23625 7.59937427,24.2699997 7.745625,24.3375 C7.89187573,24.4050003 8.03249932,24.4949994 8.1675,24.6075 C8.28000056,24.7425007 8.36999966,24.8831243 8.4375,25.029375 C8.50500034,25.1756257 8.53875,25.3387491 8.53875,25.51875 L8.53875,26.4975 Z" id="" fill="#9B9B9B"></path>
                    <g id="Group-4" transform="translate(0.000000, 44.160000)">
                        <text id="ATP" font-family="Nunito-Regular, Nunito" font-size="9.6" font-weight="normal" fill="#9B9B9B">
                            <tspan x="11.52" y="10">ATP</tspan>
                        </text>
                        <rect id="Rectangle-Copy-3" fill="#E90076" fill-rule="nonzero" x="0" y="2.88" width="7.68" height="7.68"></rect>
                    </g>
                </g>
                <g id="Group-11" transform="translate(163.200000, 45.120000)">
                    <path d="M19.5075,24.84375 L16.2675,24.84375 L16.2675,27.47625 C16.5825016,27.5887506 16.8524989,27.7912485 17.0775,28.08375 C17.3025011,28.3762515 17.415,28.7024982 17.415,29.0625 C17.415,29.5350024 17.2462517,29.9343734 16.90875,30.260625 C16.5712483,30.5868766 16.1775022,30.75 15.7275,30.75 C15.2549976,30.75 14.8556266,30.5868766 14.529375,30.260625 C14.2031234,29.9343734 14.04,29.5350024 14.04,29.0625 C14.04,28.7024982 14.135624,28.3818764 14.326875,28.100625 C14.518126,27.8193736 14.7712484,27.6225006 15.08625,27.51 L15.08625,24.84375 L12.25125,24.84375 L12.25125,31.56 C12.5437515,31.6950007 12.785624,31.9031236 12.976875,32.184375 C13.168126,32.4656264 13.26375,32.7749983 13.26375,33.1125 C13.26375,33.5850024 13.1006266,33.9843734 12.774375,34.310625 C12.4481234,34.6368766 12.0487524,34.8 11.57625,34.8 C11.1262478,34.8 10.7381266,34.6368766 10.411875,34.310625 C10.0856234,33.9843734 9.9225,33.5850024 9.9225,33.1125 C9.9225,32.7299981 10.0293739,32.3925015 10.243125,32.1 C10.4568761,31.8074985 10.7324983,31.6162504 11.07,31.52625 L11.07,24.84375 L9.99,24.84375 C9.49499753,24.84375 9.07312674,24.6693767 8.724375,24.320625 C8.37562326,23.9718733 8.20125,23.5612524 8.20125,23.08875 L8.20125,22.07625 L6.64875,22.07625 C6.53624944,22.4137517 6.33375146,22.6949989 6.04125,22.92 C5.74874854,23.1450011 5.41125191,23.2575 5.02875,23.2575 C4.57874775,23.2575 4.19062663,23.0943766 3.864375,22.768125 C3.53812337,22.4418734 3.375,22.0425024 3.375,21.57 C3.375,21.0974976 3.53812337,20.6981266 3.864375,20.371875 C4.19062663,20.0456234 4.57874775,19.8825 5.02875,19.8825 C5.3887518,19.8825 5.70937359,19.978124 5.990625,20.169375 C6.27187641,20.360626 6.46874944,20.6137484 6.58125,20.92875 L8.20125,20.92875 L8.20125,18.22875 L2.97,18.22875 C2.81249921,18.22875 2.67750056,18.2849994 2.565,18.3975 C2.45249944,18.5100006 2.39625,18.6449992 2.39625,18.8025 L2.39625,22.27875 C2.68875146,22.4137507 2.9249991,22.6218736 3.105,22.903125 C3.2850009,23.1843764 3.375,23.4937483 3.375,23.83125 C3.375,24.2812522 3.20625169,24.6693734 2.86875,24.995625 C2.53124831,25.3218766 2.13750225,25.485 1.6875,25.485 C1.21499764,25.485 0.815626631,25.3218766 0.489375,24.995625 C0.163123369,24.6693734 0,24.2812522 0,23.83125 C0,23.426248 0.118123819,23.0775015 0.354375,22.785 C0.590626181,22.4924985 0.8887482,22.2900006 1.24875,22.1775 L1.24875,18.8025 C1.24875,18.3299976 1.41749831,17.9193767 1.755,17.570625 C2.09250169,17.2218733 2.49749764,17.0475 2.97,17.0475 L8.20125,17.0475 L8.20125,14.2125 L3.27375,14.2125 C3.16124944,14.5500017 2.95875146,14.8312489 2.66625,15.05625 C2.37374854,15.2812511 2.0475018,15.39375 1.6875,15.39375 C1.21499764,15.39375 0.815626631,15.2306266 0.489375,14.904375 C0.163123369,14.5781234 0,14.1787524 0,13.70625 C0,13.2337476 0.163123369,12.8343766 0.489375,12.508125 C0.815626631,12.1818734 1.21499764,12.01875 1.6875,12.01875 C2.02500169,12.01875 2.33437359,12.114374 2.615625,12.305625 C2.89687641,12.496876 3.10499932,12.7499984 3.24,13.065 L8.20125,13.065 L8.20125,11.3775 C8.20125,10.8824975 8.37562326,10.4606267 8.724375,10.111875 C9.07312674,9.76312326 9.49499753,9.58875 9.99,9.58875 L10.0575,9.58875 L10.0575,7.7325 C10.0575,6.69749482 10.259998,5.71875461 10.665,4.79625 C11.0475019,3.8962455 11.5762466,3.10875337 12.25125,2.43375 C12.9262534,1.75874663 13.7249954,1.21875203 14.6475,0.81375 C15.5475045,0.431248088 16.5149948,0.24 17.55,0.24 C18.5850052,0.24 19.5524955,0.431248088 20.4525,0.81375 C21.3750046,1.21875203 22.1737466,1.75874663 22.84875,2.43375 C23.5237534,3.10875337 24.0524981,3.8962455 24.435,4.79625 C24.840002,5.71875461 25.0425,6.69749482 25.0425,7.7325 L25.0425,9.58875 L25.11,9.58875 C25.6050025,9.58875 26.0268733,9.76312326 26.375625,10.111875 C26.7243767,10.4606267 26.89875,10.8824975 26.89875,11.3775 L26.89875,13.2675 L29.6325,13.2675 C29.7900008,13.2675 29.9249994,13.2112506 30.0375,13.09875 C30.1500006,12.9862494 30.20625,12.8512508 30.20625,12.69375 L30.20625,11.88375 C29.8912484,11.7487493 29.632501,11.5406264 29.43,11.259375 C29.227499,10.9781236 29.12625,10.6575018 29.12625,10.2975 C29.12625,9.82499764 29.2893734,9.42562663 29.615625,9.099375 C29.9418766,8.77312337 30.3299978,8.61 30.78,8.61 C31.2525024,8.61 31.6518734,8.77312337 31.978125,9.099375 C32.3043766,9.42562663 32.4675,9.82499764 32.4675,10.2975 C32.4675,10.6575018 32.366251,10.9837485 32.16375,11.27625 C31.961249,11.5687515 31.6912517,11.7712494 31.35375,11.88375 L31.35375,12.69375 C31.35375,13.1662524 31.1850017,13.5712483 30.8475,13.90875 C30.5099983,14.2462517 30.1050024,14.415 29.6325,14.415 L26.89875,14.415 L26.89875,17.21625 L31.28625,17.21625 C31.3987506,16.8787483 31.6012485,16.6031261 31.89375,16.389375 C32.1862515,16.1756239 32.5124982,16.06875 32.8725,16.06875 C33.3450024,16.06875 33.7443734,16.2318734 34.070625,16.558125 C34.3968766,16.8843766 34.56,17.2724978 34.56,17.7225 C34.56,18.1950024 34.3968766,18.5943734 34.070625,18.920625 C33.7443734,19.2468766 33.3450024,19.41 32.8725,19.41 C32.5124982,19.41 32.1918764,19.314376 31.910625,19.123125 C31.6293736,18.931874 31.4325006,18.6787516 31.32,18.36375 L26.89875,18.36375 L26.89875,21.26625 L30.7125,21.26625 C30.8250006,20.9287483 31.0274985,20.6531261 31.32,20.439375 C31.6125015,20.2256239 31.9387482,20.11875 32.29875,20.11875 C32.7712524,20.11875 33.1706234,20.2818734 33.496875,20.608125 C33.8231266,20.9343766 33.98625,21.3337476 33.98625,21.80625 C33.98625,22.2787524 33.8231266,22.6781234 33.496875,23.004375 C33.1706234,23.3306266 32.7712524,23.49375 32.29875,23.49375 C31.9387482,23.49375 31.6181264,23.392501 31.336875,23.19 C31.0556236,22.987499 30.8587506,22.7400015 30.74625,22.4475 L26.89875,22.4475 L26.89875,23.08875 C26.89875,23.5612524 26.7243767,23.9718733 26.375625,24.320625 C26.0268733,24.6693767 25.6050025,24.84375 25.11,24.84375 L24.3675,24.84375 L24.3675,26.3625 C24.6600015,26.4975007 24.907499,26.7056236 25.11,26.986875 C25.312501,27.2681264 25.41375,27.5887482 25.41375,27.94875 C25.41375,28.3987523 25.2506266,28.7924983 24.924375,29.13 C24.5981234,29.4675017 24.1987524,29.63625 23.72625,29.63625 C23.2762478,29.63625 22.8825017,29.4675017 22.545,29.13 C22.2074983,28.7924983 22.03875,28.3987523 22.03875,27.94875 C22.03875,27.5662481 22.1512489,27.2287515 22.37625,26.93625 C22.6012511,26.6437485 22.8712484,26.4412506 23.18625,26.32875 L23.18625,24.84375 L20.655,24.84375 L20.655,30.0075 C20.655,30.1875009 20.7112494,30.3337494 20.82375,30.44625 C20.9362506,30.5587506 21.0824991,30.615 21.2625,30.615 L26.42625,30.615 C26.5612507,30.2999984 26.7693736,30.041251 27.050625,29.83875 C27.3318764,29.636249 27.6524982,29.535 28.0125,29.535 C28.4625023,29.535 28.8562483,29.6981234 29.19375,30.024375 C29.5312517,30.3506266 29.7,30.7499976 29.7,31.2225 C29.7,31.6950024 29.5312517,32.0943734 29.19375,32.420625 C28.8562483,32.7468766 28.4625023,32.91 28.0125,32.91 C27.6299981,32.91 27.2981264,32.8031261 27.016875,32.589375 C26.7356236,32.3756239 26.5387506,32.1000017 26.42625,31.7625 L21.2625,31.7625 C20.7674975,31.7625 20.3512517,31.5937517 20.01375,31.25625 C19.6762483,30.9187483 19.5075,30.5025025 19.5075,30.0075 L19.5075,24.84375 Z M22.78125,9.58875 L22.78125,7.7325 C22.78125,6.26999269 22.2693801,5.03250506 21.245625,4.02 C20.2218699,3.00749494 18.9900072,2.50125 17.55,2.50125 C16.1099928,2.50125 14.8781301,3.00749494 13.854375,4.02 C12.8306199,5.03250506 12.31875,6.26999269 12.31875,7.7325 L12.31875,9.58875 L22.78125,9.58875 Z M17.8875,22.21125 C17.8875,22.21125 17.2406315,21.6487556 15.946875,20.52375 C14.6531185,19.3987444 14.5799943,18.3637547 15.7275,17.41875 C16.335003,16.9237475 17.133745,16.5075017 18.12375,16.17 C19.1362551,15.8099982 20.1262452,15.5175011 21.09375,15.2925 C22.0612548,15.0674989 22.9049964,14.8987506 23.625,14.78625 C24.3225035,14.6962496 24.67125,14.65125 24.67125,14.65125 C24.67125,14.65125 24.1143806,14.5893756 23.000625,14.465625 C21.8868694,14.3418744 20.7562557,14.2575002 19.60875,14.2125 C17.5162395,14.1674998 15.6487582,14.3812476 14.00625,14.85375 C12.3637418,15.3262524 11.8237472,16.3274924 12.38625,17.8575 C12.8812525,19.2075067 13.9218671,20.2706211 15.508125,21.046875 C17.0943829,21.8231289 17.8875,22.21125 17.8875,22.21125 Z" id="" fill="#9B9B9B"></path>
                    <g id="Group-6" transform="translate(0.000000, 44.160000)">
                        <text id="WIDP" font-family="Nunito-Regular, Nunito" font-size="9.6" font-weight="normal" fill="#9B9B9B">
                            <tspan x="11.52" y="10">WIDP</tspan>
                        </text>
                        <rect id="Rectangle-Copy-4" fill="#0DA18F" fill-rule="nonzero" x="0" y="2.88" width="7.68" height="7.68"></rect>
                    </g>
                </g>
                <g id="Group-12" transform="translate(247.680000, 38.880000)" fill="#FFFFFF" fill-opacity="0.12" fill-rule="nonzero">
                    <path d="M31.68,63.36 C14.1836191,63.36 0,49.1763809 0,31.68 C0,14.1836191 14.1836191,0 31.68,0 C49.1763809,0 63.36,14.1836191 63.36,31.68 C63.36,49.1763809 49.1763809,63.36 31.68,63.36 Z M31.68,57.6 C45.9952207,57.6 57.6,45.9952207 57.6,31.68 C57.6,17.3647793 45.9952207,5.76 31.68,5.76 C17.3647793,5.76 5.76,17.3647793 5.76,31.68 C5.76,45.9952207 17.3647793,57.6 31.68,57.6 Z" id="Shape"></path>
                </g>
                <g id="Group-14" transform="translate(250.560000, 42.240000)" fill-rule="nonzero" stroke-linecap="round" stroke-width="5.76">
                    <g id="Group-13">
                        <path d="M0,28.8 C0,44.7058008 12.8941992,57.6 28.8,57.6 L28.8,57.6 C44.7058008,57.6 57.6,44.7058008 57.6,28.8 C57.6,12.8941992 44.7058008,0 28.8,0" id="Path" stroke="#0DA18F"></path>
                        <path d="M41.9469609,42.951082 C45.3029529,39.4939047 48,34.9587398 48,29.76 C48,19.1561328 39.4038672,10.56 28.8,10.56" id="Path" stroke="#CE8ABE"></path>
                        <path d="M36.48,28.8 C36.48,24.5584531 33.0415469,21.12 28.8,21.12" id="Path" stroke="#E90076"></path>
                    </g>
                </g>
                <g id="Group-15" transform="translate(117.120000, 38.400000)">
                    <circle id="Oval" fill="#FF3B30" fill-rule="nonzero" cx="6.72" cy="7.68" r="6.72"></circle>
                    <text id="1" font-family="Helvetica" font-size="8.64" font-weight="normal" fill="#FFFFFF">
                        <tspan x="4.84" y="11">1</tspan>
                    </text>
                </g>
                <g id="Group-15-Copy" transform="translate(48.000000, 38.400000)">
                    <circle id="Oval" fill="#FF3B30" fill-rule="nonzero" cx="6.72" cy="7.68" r="6.72"></circle>
                    <circle id="Oval-Copy" fill="#FF3B30" fill-rule="nonzero" cx="6.72" cy="7.68" r="6.72"></circle>
                    <text id="4" font-family="Helvetica" font-size="8.64" font-weight="normal" fill="#FFFFFF">
                        <tspan x="3.84" y="11">4</tspan>
                    </text>
                </g>
                <g id="Group-15-Copy-2" transform="translate(194.880000, 38.400000)">
                    <circle id="Oval" fill="#FF3B30" fill-rule="nonzero" cx="6.72" cy="7.68" r="6.72"></circle>
                    <circle id="Oval-Copy" fill="#FF3B30" fill-rule="nonzero" cx="6.72" cy="7.68" r="6.72"></circle>
                    <text id="8" font-family="Helvetica" font-size="8.64" font-weight="normal" fill="#FFFFFF">
                        <tspan x="3.8" y="11">8</tspan>
                    </text>
                </g>
            </g>
        </g>
    </g>
</svg>