<?xml version="1.0" encoding="UTF-8"?>
<svg width="516px" height="134px" viewBox="0 0 516 134" version="1.1" xmlns="http://www.w3.org/2000/svg" xmlns:xlink="http://www.w3.org/1999/xlink">
    <!-- Generator: Sketch 50 (54983) - http://www.bohemiancoding.com/sketch -->
    <title>Box_Switch</title>
    <desc>Created with Sketch.</desc>
    <defs></defs>
    <g id="Page-2" stroke="none" stroke-width="1" fill="none" fill-rule="evenodd">
        <g id="Box_Switch" fill="#636569" fill-rule="nonzero">
            <path d="M322.81838,32.4108744 L359.057491,32.4108744 L359.057491,61.9862668 L322.81838,61.9862668 L322.81838,32.4108744 Z M322.81838,70.4363789 L359.057491,70.4363789 L359.057491,100.011771 L322.81838,100.011771 L322.81838,70.4363789 Z M366.642422,70.4363789 L402.881533,70.4363789 L402.881533,100.011771 L366.642422,100.011771 L366.642422,70.4363789 Z M411.309233,70.4363789 L447.548345,70.4363789 L447.548345,100.011771 L411.309233,100.011771 L411.309233,70.4363789 Z M366.642422,32.4108744 L402.881533,32.4108744 L402.881533,61.9862668 L366.642422,61.9862668 L366.642422,32.4108744 Z M455.976045,61.9862668 L455.976045,32.4108744 L477.888066,32.4108744 C483.787456,32.4108744 488.001307,36.6359305 488.001307,42.551009 L488.001307,61.9862668 L455.976045,61.9862668 Z M455.976045,70.4363789 L488.001307,70.4363789 L488.001307,89.8716368 C488.001307,95.7867152 483.787456,100.011771 477.888066,100.011771 L455.976045,100.011771 L455.976045,70.4363789 Z M411.309233,32.4108744 L447.548345,32.4108744 L447.548345,61.9862668 L411.309233,61.9862668 L411.309233,32.4108744 Z M313.547909,70.4363789 L313.547909,100.011771 L289.950348,100.011771 C284.050958,100.011771 279.837108,95.7867152 279.837108,89.8716368 L279.837108,70.4363789 L313.547909,70.4363789 Z M313.547909,61.9862668 L279.837108,61.9862668 L279.837108,42.551009 C279.837108,36.6359305 284.050958,32.4108744 289.950348,32.4108744 L313.547909,32.4108744 L313.547909,61.9862668 Z M148.364983,70.4363789 L184.604094,70.4363789 L184.604094,100.011771 L148.364983,100.011771 L148.364983,70.4363789 Z M192.189024,70.4363789 L228.428136,70.4363789 L228.428136,100.011771 L192.189024,100.011771 L192.189024,70.4363789 Z M148.364983,32.4108744 L184.604094,32.4108744 L184.604094,61.9862668 L148.364983,61.9862668 L148.364983,32.4108744 Z M236.855836,61.9862668 L236.855836,32.4108744 L258.767857,32.4108744 C264.667247,32.4108744 268.881098,36.6359305 268.881098,42.551009 L268.881098,61.9862668 L236.855836,61.9862668 Z M236.855836,70.4363789 L268.881098,70.4363789 L268.881098,89.8716368 C268.881098,95.7867152 264.667247,100.011771 258.767857,100.011771 L236.855836,100.011771 L236.855836,70.4363789 Z M192.189024,32.4108744 L228.428136,32.4108744 L228.428136,61.9862668 L192.189024,61.9862668 L192.189024,32.4108744 Z M103.698171,32.4108744 L139.937282,32.4108744 L139.937282,61.9862668 L103.698171,61.9862668 L103.698171,32.4108744 Z M95.2704704,70.4363789 L95.2704704,100.011771 L71.6729094,100.011771 C65.7735192,100.011771 61.559669,95.7867152 61.559669,89.8716368 L61.559669,70.4363789 L95.2704704,70.4363789 Z M95.2704704,61.9862668 L61.559669,61.9862668 L61.559669,42.551009 C61.559669,36.6359305 65.7735192,32.4108744 71.6729094,32.4108744 L95.2704704,32.4108744 L95.2704704,61.9862668 Z M103.698171,70.4363789 L139.937282,70.4363789 L139.937282,100.011771 L103.698171,100.011771 L103.698171,70.4363789 Z" id="Combined-Shape"></path>
            <path d="M483.787456,133.81222 L32.0627178,133.81222 C14.364547,133.81222 0.037456446,119.447029 0.037456446,101.701794 L0.037456446,32.4108744 C0.037456446,14.665639 14.364547,0.30044843 32.0627178,0.30044843 L483.787456,0.30044843 C501.485627,0.30044843 515.812718,14.665639 515.812718,32.4108744 L515.812718,101.701794 C515.812718,119.447029 501.485627,133.81222 483.787456,133.81222 Z M32.0627178,16.3556614 C23.6350174,16.3556614 16.8928571,23.1157511 16.8928571,31.5658632 L16.8928571,100.856783 C16.8928571,109.306895 23.6350174,116.066984 32.0627178,116.066984 L483.787456,116.066984 C492.215157,116.066984 498.957317,109.306895 498.957317,100.856783 L498.957317,31.5658632 C498.957317,23.1157511 492.215157,16.3556614 483.787456,16.3556614 L32.0627178,16.3556614 Z" id="Shape"></path>
        </g>
    </g>
</svg>