<?xml version="1.0" encoding="UTF-8"?>
<svg width="240px" height="242px" viewBox="0 0 240 242" version="1.1" xmlns="http://www.w3.org/2000/svg" xmlns:xlink="http://www.w3.org/1999/xlink">
    <!-- Generator: Sketch 50 (54983) - http://www.bohemiancoding.com/sketch -->
    <title>Home_Office</title>
    <desc>Created with Sketch.</desc>
    <defs></defs>
    <g id="Page-2" stroke="none" stroke-width="1" fill="none" fill-rule="evenodd">
        <g id="Home_Office" fill="#636569">
            <path d="M32.0832098,91.9183866 L32.0832098,20.3811597 C32.0832098,13.1299523 37.9774086,7.2383463 45.239356,7.2383463 L58.622438,7.2383463 C66.0867876,7.2383463 72.1588551,13.3014336 72.1588551,20.7424952 L72.1588551,64.9167702 C72.1588551,72.3762049 32.0832098,99.3778212 32.0832098,91.9183866 Z" id="Fill-72"></path>
            <path d="M93.1030414,241.322509 L45.0381804,241.322509 C37.8866343,241.322509 32.0844365,235.522768 32.0844365,228.387923 L32.0844365,123.623287 L120.004907,35.8328457 L207.93519,123.638873 L207.93519,228.387923 C207.93519,235.522768 202.108459,241.322509 194.963046,241.322509 L146.908534,241.322509 C147.364266,240.24832 147.616254,239.067556 147.616254,237.828579 L147.616254,149.264634 C147.616254,144.303927 143.586609,140.274117 138.61242,140.274117 L101.014669,140.274117 C96.2551495,140.274117 92.39724,144.13857 92.39724,148.897174 L92.39724,237.828579 C92.39724,239.067556 92.6484603,240.24832 93.1030414,241.322509 Z" id="Combined-Shape"></path>
            <path d="M14.1135702,129.535716 C10.4764631,129.535716 7.06015845,128.120995 4.49026323,125.554901 C1.920368,122.994931 0.503552262,119.577554 0.503552262,115.945826 C0.503552262,112.320223 1.920368,108.896722 4.49026323,106.336752 L104.427907,6.55915804 C108.574086,2.40686191 114.106415,0.122486611 120.000613,0.122486611 C125.888679,0.122486611 131.42714,2.40686191 135.579453,6.55915804 L235.510963,106.336752 C238.080859,108.896722 239.497674,112.320223 239.497674,115.945826 C239.497674,119.577554 238.080859,122.994931 235.510963,125.554901 C232.947202,128.120995 229.51863,129.535716 225.89379,129.535716 C222.262816,129.535716 218.840378,128.120995 216.270483,125.554901 L120.006747,29.4335327 L23.7368771,125.554901 C21.1669819,128.120995 17.7506772,129.535716 14.1135702,129.535716" id="Fill-80"></path>
        </g>
    </g>
</svg>