<?xml version="1.0" encoding="UTF-8" standalone="no"?>
<!DOCTYPE svg PUBLIC "-//W3C//DTD SVG 1.1//EN" "http://www.w3.org/Graphics/SVG/1.1/DTD/svg11.dtd">
<svg width="100%" height="100%" viewBox="0 0 131 14" version="1.1" xmlns="http://www.w3.org/2000/svg" xmlns:xlink="http://www.w3.org/1999/xlink" xml:space="preserve" xmlns:serif="http://www.serif.com/" style="fill-rule:evenodd;clip-rule:evenodd;stroke-linejoin:round;stroke-miterlimit:1.41421;">
    <g transform="matrix(1,0,0,1,-264,-179)">
        <g transform="matrix(1,0,0,1,-13,0)">
            <g transform="matrix(1,0,0,1,276.547,189.88)">
                <g id="NSa-or-SuperMassive">
                    <path d="M8.911,-9.821C8.981,-9.742 9.016,-9.632 9.016,-9.492L9.016,-0.378C9.016,-0.247 8.979,-0.14 8.904,-0.056C8.829,0.028 8.727,0.07 8.596,0.07C8.456,0.07 8.33,0 8.218,-0.14L2.086,-8.414L2.086,-0.378C2.086,-0.247 2.049,-0.14 1.974,-0.056C1.899,0.028 1.801,0.07 1.68,0.07C1.54,0.07 1.437,0.03 1.372,-0.049C1.307,-0.128 1.274,-0.238 1.274,-0.378L1.274,-9.492C1.274,-9.623 1.314,-9.73 1.393,-9.814C1.472,-9.898 1.582,-9.94 1.722,-9.94C1.871,-9.94 1.993,-9.87 2.086,-9.73L8.204,-1.47L8.204,-9.492C8.204,-9.623 8.241,-9.73 8.316,-9.814C8.391,-9.898 8.489,-9.94 8.61,-9.94C8.741,-9.94 8.841,-9.9 8.911,-9.821Z" style="fill-rule:nonzero;"/>
                    <path d="M12.561,-0.217C11.921,-0.436 11.42,-0.733 11.056,-1.106C10.934,-1.209 10.874,-1.344 10.874,-1.512C10.874,-1.615 10.904,-1.703 10.965,-1.778C11.025,-1.853 11.093,-1.89 11.168,-1.89C11.261,-1.89 11.368,-1.843 11.49,-1.75C12.367,-1.022 13.389,-0.658 14.556,-0.658C15.405,-0.658 16.061,-0.828 16.523,-1.169C16.985,-1.51 17.216,-1.993 17.216,-2.618C17.216,-2.982 17.104,-3.276 16.88,-3.5C16.656,-3.724 16.371,-3.899 16.026,-4.025C15.68,-4.151 15.218,-4.279 14.64,-4.41C13.874,-4.578 13.256,-4.751 12.785,-4.928C12.313,-5.105 11.914,-5.374 11.588,-5.733C11.261,-6.092 11.098,-6.575 11.098,-7.182C11.098,-7.733 11.245,-8.22 11.539,-8.645C11.833,-9.07 12.246,-9.399 12.778,-9.632C13.31,-9.865 13.921,-9.982 14.612,-9.982C15.256,-9.982 15.862,-9.877 16.432,-9.667C17.001,-9.457 17.472,-9.156 17.846,-8.764C17.967,-8.643 18.028,-8.507 18.028,-8.358C18.028,-8.255 17.997,-8.167 17.937,-8.092C17.876,-8.017 17.808,-7.98 17.734,-7.98C17.64,-7.98 17.533,-8.027 17.412,-8.12C16.908,-8.531 16.453,-8.815 16.047,-8.974C15.641,-9.133 15.162,-9.212 14.612,-9.212C13.781,-9.212 13.132,-9.035 12.666,-8.68C12.199,-8.325 11.966,-7.831 11.966,-7.196C11.966,-6.813 12.068,-6.503 12.274,-6.265C12.479,-6.027 12.747,-5.838 13.079,-5.698C13.41,-5.558 13.837,-5.423 14.36,-5.292L14.724,-5.208C15.48,-5.021 16.077,-4.849 16.516,-4.69C16.954,-4.531 17.325,-4.286 17.629,-3.955C17.932,-3.624 18.084,-3.178 18.084,-2.618C18.084,-2.086 17.937,-1.612 17.643,-1.197C17.349,-0.782 16.933,-0.46 16.397,-0.231C15.86,-0.002 15.246,0.112 14.556,0.112C13.865,0.112 13.2,0.002 12.561,-0.217Z" style="fill-rule:nonzero;"/>
                    <path d="M24.345,-6.314C24.751,-5.885 24.954,-5.236 24.954,-4.368L24.954,-0.378C24.954,-0.247 24.916,-0.142 24.842,-0.063C24.767,0.016 24.664,0.056 24.534,0.056C24.403,0.056 24.3,0.016 24.226,-0.063C24.151,-0.142 24.114,-0.247 24.114,-0.378L24.114,-1.218C23.918,-0.798 23.633,-0.474 23.26,-0.245C22.886,-0.016 22.457,0.098 21.972,0.098C21.533,0.098 21.132,0.009 20.768,-0.168C20.404,-0.345 20.117,-0.593 19.907,-0.91C19.697,-1.227 19.592,-1.577 19.592,-1.96C19.592,-2.464 19.722,-2.856 19.984,-3.136C20.245,-3.416 20.679,-3.617 21.286,-3.738C21.892,-3.859 22.737,-3.92 23.82,-3.92L24.114,-3.92L24.114,-4.438C24.114,-5.054 23.988,-5.504 23.736,-5.789C23.484,-6.074 23.087,-6.216 22.546,-6.216C21.855,-6.216 21.197,-6.034 20.572,-5.67C20.544,-5.651 20.471,-5.602 20.355,-5.523C20.238,-5.444 20.138,-5.404 20.054,-5.404C19.96,-5.404 19.883,-5.439 19.823,-5.509C19.762,-5.579 19.732,-5.665 19.732,-5.768C19.732,-5.973 19.895,-6.174 20.222,-6.37C20.548,-6.557 20.912,-6.701 21.314,-6.804C21.715,-6.907 22.112,-6.958 22.504,-6.958C23.325,-6.958 23.939,-6.743 24.345,-6.314ZM23.533,-1.26C23.92,-1.671 24.114,-2.193 24.114,-2.828L24.114,-3.29L23.848,-3.29C22.952,-3.29 22.266,-3.253 21.79,-3.178C21.314,-3.103 20.978,-2.975 20.782,-2.793C20.586,-2.611 20.488,-2.347 20.488,-2.002C20.488,-1.61 20.637,-1.286 20.936,-1.029C21.234,-0.772 21.603,-0.644 22.042,-0.644C22.648,-0.644 23.145,-0.849 23.533,-1.26Z" style="fill-rule:nonzero;"/>
                    <path d="M31.672,-0.336C31.201,-0.625 30.835,-1.036 30.573,-1.568C30.312,-2.1 30.181,-2.721 30.181,-3.43C30.181,-4.139 30.312,-4.76 30.573,-5.292C30.835,-5.824 31.201,-6.235 31.672,-6.524C32.144,-6.813 32.692,-6.958 33.317,-6.958C33.933,-6.958 34.479,-6.813 34.955,-6.524C35.431,-6.235 35.798,-5.824 36.054,-5.292C36.311,-4.76 36.439,-4.139 36.439,-3.43C36.439,-2.721 36.311,-2.1 36.054,-1.568C35.798,-1.036 35.431,-0.625 34.955,-0.336C34.479,-0.047 33.933,0.098 33.317,0.098C32.692,0.098 32.144,-0.047 31.672,-0.336ZM34.969,-1.372C35.361,-1.848 35.557,-2.534 35.557,-3.43C35.557,-4.307 35.359,-4.991 34.962,-5.481C34.566,-5.971 34.017,-6.216 33.317,-6.216C32.608,-6.216 32.057,-5.971 31.665,-5.481C31.273,-4.991 31.077,-4.307 31.077,-3.43C31.077,-2.534 31.269,-1.848 31.651,-1.372C32.034,-0.896 32.585,-0.658 33.303,-0.658C34.022,-0.658 34.577,-0.896 34.969,-1.372Z" style="fill-rule:nonzero;"/>
                    <path d="M41.741,-6.86C41.816,-6.804 41.853,-6.711 41.853,-6.58C41.853,-6.347 41.713,-6.216 41.433,-6.188L41.013,-6.146C40.35,-6.081 39.858,-5.843 39.536,-5.432C39.214,-5.021 39.053,-4.541 39.053,-3.99L39.053,-0.364C39.053,-0.224 39.016,-0.117 38.941,-0.042C38.866,0.033 38.764,0.07 38.633,0.07C38.502,0.07 38.397,0.033 38.318,-0.042C38.239,-0.117 38.199,-0.224 38.199,-0.364L38.199,-6.496C38.199,-6.636 38.239,-6.743 38.318,-6.818C38.397,-6.893 38.502,-6.93 38.633,-6.93C38.754,-6.93 38.852,-6.893 38.927,-6.818C39.002,-6.743 39.039,-6.641 39.039,-6.51L39.039,-5.6C39.422,-6.403 40.131,-6.841 41.167,-6.916L41.363,-6.93C41.54,-6.939 41.666,-6.916 41.741,-6.86Z" style="fill-rule:nonzero;"/>
                    <path d="M47.578,-0.217C46.938,-0.436 46.437,-0.733 46.073,-1.106C45.951,-1.209 45.891,-1.344 45.891,-1.512C45.891,-1.615 45.921,-1.703 45.982,-1.778C46.042,-1.853 46.11,-1.89 46.185,-1.89C46.278,-1.89 46.385,-1.843 46.507,-1.75C47.384,-1.022 48.406,-0.658 49.573,-0.658C50.422,-0.658 51.078,-0.828 51.54,-1.169C52.002,-1.51 52.233,-1.993 52.233,-2.618C52.233,-2.982 52.121,-3.276 51.897,-3.5C51.673,-3.724 51.388,-3.899 51.043,-4.025C50.697,-4.151 50.235,-4.279 49.657,-4.41C48.891,-4.578 48.273,-4.751 47.802,-4.928C47.33,-5.105 46.931,-5.374 46.605,-5.733C46.278,-6.092 46.115,-6.575 46.115,-7.182C46.115,-7.733 46.262,-8.22 46.556,-8.645C46.85,-9.07 47.263,-9.399 47.795,-9.632C48.327,-9.865 48.938,-9.982 49.629,-9.982C50.273,-9.982 50.879,-9.877 51.449,-9.667C52.018,-9.457 52.489,-9.156 52.863,-8.764C52.984,-8.643 53.045,-8.507 53.045,-8.358C53.045,-8.255 53.014,-8.167 52.954,-8.092C52.893,-8.017 52.825,-7.98 52.751,-7.98C52.657,-7.98 52.55,-8.027 52.429,-8.12C51.925,-8.531 51.47,-8.815 51.064,-8.974C50.658,-9.133 50.179,-9.212 49.629,-9.212C48.798,-9.212 48.149,-9.035 47.683,-8.68C47.216,-8.325 46.983,-7.831 46.983,-7.196C46.983,-6.813 47.085,-6.503 47.291,-6.265C47.496,-6.027 47.764,-5.838 48.096,-5.698C48.427,-5.558 48.854,-5.423 49.377,-5.292L49.741,-5.208C50.497,-5.021 51.094,-4.849 51.533,-4.69C51.971,-4.531 52.342,-4.286 52.646,-3.955C52.949,-3.624 53.101,-3.178 53.101,-2.618C53.101,-2.086 52.954,-1.612 52.66,-1.197C52.366,-0.782 51.95,-0.46 51.414,-0.231C50.877,-0.002 50.263,0.112 49.573,0.112C48.882,0.112 48.217,0.002 47.578,-0.217Z" style="fill-rule:nonzero;"/>
                    <path d="M60.215,-6.811C60.295,-6.732 60.334,-6.627 60.334,-6.496L60.334,-0.364C60.334,-0.233 60.295,-0.128 60.215,-0.049C60.136,0.03 60.031,0.07 59.9,0.07C59.779,0.07 59.681,0.03 59.606,-0.049C59.532,-0.128 59.494,-0.233 59.494,-0.364L59.494,-1.218C59.28,-0.789 58.974,-0.462 58.577,-0.238C58.181,-0.014 57.73,0.098 57.226,0.098C56.424,0.098 55.819,-0.124 55.413,-0.567C55.007,-1.01 54.804,-1.666 54.804,-2.534L54.804,-6.496C54.804,-6.627 54.844,-6.732 54.923,-6.811C55.003,-6.89 55.108,-6.93 55.238,-6.93C55.369,-6.93 55.472,-6.89 55.546,-6.811C55.621,-6.732 55.658,-6.627 55.658,-6.496L55.658,-2.59C55.658,-1.927 55.791,-1.44 56.057,-1.127C56.323,-0.814 56.741,-0.658 57.31,-0.658C57.964,-0.658 58.489,-0.866 58.885,-1.281C59.282,-1.696 59.48,-2.249 59.48,-2.94L59.48,-6.496C59.48,-6.627 59.518,-6.732 59.592,-6.811C59.667,-6.89 59.77,-6.93 59.9,-6.93C60.031,-6.93 60.136,-6.89 60.215,-6.811Z" style="fill-rule:nonzero;"/>
                    <path d="M67.302,-6.517C67.76,-6.223 68.114,-5.808 68.366,-5.271C68.618,-4.734 68.744,-4.111 68.744,-3.402C68.744,-2.702 68.618,-2.088 68.366,-1.561C68.114,-1.034 67.76,-0.625 67.302,-0.336C66.845,-0.047 66.318,0.098 65.72,0.098C65.17,0.098 64.694,-0.021 64.292,-0.259C63.891,-0.497 63.588,-0.845 63.382,-1.302L63.382,2.156C63.382,2.287 63.345,2.392 63.27,2.471C63.196,2.55 63.093,2.59 62.962,2.59C62.832,2.59 62.727,2.55 62.647,2.471C62.568,2.392 62.528,2.287 62.528,2.156L62.528,-6.496C62.528,-6.627 62.568,-6.732 62.647,-6.811C62.727,-6.89 62.832,-6.93 62.962,-6.93C63.093,-6.93 63.196,-6.89 63.27,-6.811C63.345,-6.732 63.382,-6.627 63.382,-6.496L63.382,-5.558C63.588,-6.015 63.891,-6.363 64.292,-6.601C64.694,-6.839 65.17,-6.958 65.72,-6.958C66.318,-6.958 66.845,-6.811 67.302,-6.517ZM67.267,-1.379C67.664,-1.86 67.862,-2.534 67.862,-3.402C67.862,-4.289 67.664,-4.979 67.267,-5.474C66.871,-5.969 66.318,-6.216 65.608,-6.216C64.899,-6.216 64.351,-5.973 63.963,-5.488C63.576,-5.003 63.382,-4.317 63.382,-3.43C63.382,-2.543 63.574,-1.86 63.956,-1.379C64.339,-0.898 64.885,-0.658 65.594,-0.658C66.313,-0.658 66.871,-0.898 67.267,-1.379Z" style="fill-rule:nonzero;"/>
                    <path d="M75.929,-1.351C75.99,-1.281 76.02,-1.199 76.02,-1.106C76.02,-0.901 75.861,-0.7 75.544,-0.504C74.872,-0.103 74.163,0.098 73.416,0.098C72.38,0.098 71.563,-0.215 70.966,-0.84C70.369,-1.465 70.07,-2.324 70.07,-3.416C70.07,-4.116 70.203,-4.734 70.469,-5.271C70.735,-5.808 71.108,-6.223 71.589,-6.517C72.07,-6.811 72.623,-6.958 73.248,-6.958C74.125,-6.958 74.818,-6.676 75.327,-6.111C75.836,-5.546 76.09,-4.769 76.09,-3.78C76.09,-3.612 76.053,-3.488 75.978,-3.409C75.903,-3.33 75.782,-3.29 75.614,-3.29L70.952,-3.29C70.98,-2.431 71.204,-1.778 71.624,-1.33C72.044,-0.882 72.637,-0.658 73.402,-0.658C73.803,-0.658 74.139,-0.712 74.41,-0.819C74.681,-0.926 74.97,-1.069 75.278,-1.246C75.483,-1.386 75.628,-1.456 75.712,-1.456C75.796,-1.456 75.868,-1.421 75.929,-1.351ZM71.68,-5.642C71.288,-5.231 71.055,-4.657 70.98,-3.92L75.306,-3.92C75.287,-4.667 75.101,-5.243 74.746,-5.649C74.391,-6.055 73.892,-6.258 73.248,-6.258C72.595,-6.258 72.072,-6.053 71.68,-5.642Z" style="fill-rule:nonzero;"/>
                    <path d="M81.364,-6.86C81.438,-6.804 81.476,-6.711 81.476,-6.58C81.476,-6.347 81.336,-6.216 81.056,-6.188L80.636,-6.146C79.973,-6.081 79.481,-5.843 79.159,-5.432C78.837,-5.021 78.676,-4.541 78.676,-3.99L78.676,-0.364C78.676,-0.224 78.638,-0.117 78.564,-0.042C78.489,0.033 78.386,0.07 78.256,0.07C78.125,0.07 78.02,0.033 77.941,-0.042C77.861,-0.117 77.822,-0.224 77.822,-0.364L77.822,-6.496C77.822,-6.636 77.861,-6.743 77.941,-6.818C78.02,-6.893 78.125,-6.93 78.256,-6.93C78.377,-6.93 78.475,-6.893 78.55,-6.818C78.624,-6.743 78.662,-6.641 78.662,-6.51L78.662,-5.6C79.044,-6.403 79.754,-6.841 80.79,-6.916L80.986,-6.93C81.163,-6.939 81.289,-6.916 81.364,-6.86Z" style="fill-rule:nonzero;"/>
                    <path d="M91.769,-9.814C91.848,-9.73 91.888,-9.623 91.888,-9.492L91.888,-0.378C91.888,-0.247 91.85,-0.14 91.776,-0.056C91.701,0.028 91.598,0.07 91.468,0.07C91.337,0.07 91.239,0.03 91.174,-0.049C91.108,-0.128 91.076,-0.238 91.076,-0.378L91.076,-8.148L87.758,-1.736C87.646,-1.521 87.492,-1.414 87.296,-1.414C87.1,-1.414 86.946,-1.521 86.834,-1.736L83.488,-8.092L83.488,-0.378C83.488,-0.238 83.455,-0.128 83.39,-0.049C83.324,0.03 83.226,0.07 83.096,0.07C82.956,0.07 82.851,0.03 82.781,-0.049C82.711,-0.128 82.676,-0.238 82.676,-0.378L82.676,-9.492C82.676,-9.623 82.715,-9.73 82.795,-9.814C82.874,-9.898 82.984,-9.94 83.124,-9.94C83.292,-9.94 83.432,-9.833 83.544,-9.618L87.31,-2.394L91.02,-9.618C91.132,-9.833 91.272,-9.94 91.44,-9.94C91.58,-9.94 91.689,-9.898 91.769,-9.814Z" style="fill-rule:nonzero;"/>
                    <path d="M98.764,-6.314C99.17,-5.885 99.373,-5.236 99.373,-4.368L99.373,-0.378C99.373,-0.247 99.336,-0.142 99.261,-0.063C99.187,0.016 99.084,0.056 98.953,0.056C98.823,0.056 98.72,0.016 98.645,-0.063C98.571,-0.142 98.533,-0.247 98.533,-0.378L98.533,-1.218C98.337,-0.798 98.053,-0.474 97.679,-0.245C97.306,-0.016 96.877,0.098 96.391,0.098C95.953,0.098 95.551,0.009 95.187,-0.168C94.823,-0.345 94.536,-0.593 94.326,-0.91C94.116,-1.227 94.011,-1.577 94.011,-1.96C94.011,-2.464 94.142,-2.856 94.403,-3.136C94.665,-3.416 95.099,-3.617 95.705,-3.738C96.312,-3.859 97.157,-3.92 98.239,-3.92L98.533,-3.92L98.533,-4.438C98.533,-5.054 98.407,-5.504 98.155,-5.789C97.903,-6.074 97.507,-6.216 96.965,-6.216C96.275,-6.216 95.617,-6.034 94.991,-5.67C94.963,-5.651 94.891,-5.602 94.774,-5.523C94.658,-5.444 94.557,-5.404 94.473,-5.404C94.38,-5.404 94.303,-5.439 94.242,-5.509C94.182,-5.579 94.151,-5.665 94.151,-5.768C94.151,-5.973 94.315,-6.174 94.641,-6.37C94.968,-6.557 95.332,-6.701 95.733,-6.804C96.135,-6.907 96.531,-6.958 96.923,-6.958C97.745,-6.958 98.358,-6.743 98.764,-6.314ZM97.952,-1.26C98.34,-1.671 98.533,-2.193 98.533,-2.828L98.533,-3.29L98.267,-3.29C97.371,-3.29 96.685,-3.253 96.209,-3.178C95.733,-3.103 95.397,-2.975 95.201,-2.793C95.005,-2.611 94.907,-2.347 94.907,-2.002C94.907,-1.61 95.057,-1.286 95.355,-1.029C95.654,-0.772 96.023,-0.644 96.461,-0.644C97.068,-0.644 97.565,-0.849 97.952,-1.26Z" style="fill-rule:nonzero;"/>
                    <path d="M102.596,-0.063C102.218,-0.17 101.885,-0.317 101.595,-0.504C101.418,-0.625 101.294,-0.73 101.224,-0.819C101.154,-0.908 101.119,-1.008 101.119,-1.12C101.119,-1.213 101.15,-1.293 101.21,-1.358C101.271,-1.423 101.343,-1.456 101.427,-1.456C101.511,-1.456 101.656,-1.386 101.861,-1.246C102.132,-1.069 102.41,-0.924 102.694,-0.812C102.979,-0.7 103.336,-0.644 103.765,-0.644C104.316,-0.644 104.745,-0.744 105.053,-0.945C105.361,-1.146 105.515,-1.433 105.515,-1.806C105.515,-2.03 105.459,-2.214 105.347,-2.359C105.235,-2.504 105.049,-2.63 104.787,-2.737C104.526,-2.844 104.153,-2.949 103.667,-3.052C102.837,-3.239 102.246,-3.479 101.896,-3.773C101.546,-4.067 101.371,-4.461 101.371,-4.956C101.371,-5.553 101.605,-6.036 102.071,-6.405C102.538,-6.774 103.145,-6.958 103.891,-6.958C104.255,-6.958 104.603,-6.911 104.934,-6.818C105.266,-6.725 105.553,-6.589 105.795,-6.412C106.122,-6.188 106.285,-5.969 106.285,-5.754C106.285,-5.661 106.255,-5.579 106.194,-5.509C106.134,-5.439 106.061,-5.404 105.977,-5.404C105.884,-5.404 105.739,-5.479 105.543,-5.628C105.291,-5.805 105.042,-5.948 104.794,-6.055C104.547,-6.162 104.232,-6.216 103.849,-6.216C103.364,-6.216 102.977,-6.106 102.687,-5.887C102.398,-5.668 102.253,-5.371 102.253,-4.998C102.253,-4.783 102.302,-4.606 102.4,-4.466C102.498,-4.326 102.666,-4.202 102.904,-4.095C103.142,-3.988 103.485,-3.883 103.933,-3.78C104.577,-3.631 105.072,-3.472 105.417,-3.304C105.763,-3.136 106.01,-2.935 106.159,-2.702C106.309,-2.469 106.383,-2.17 106.383,-1.806C106.383,-1.237 106.143,-0.777 105.662,-0.427C105.182,-0.077 104.545,0.098 103.751,0.098C103.359,0.098 102.974,0.044 102.596,-0.063Z" style="fill-rule:nonzero;"/>
                    <path d="M109.242,-0.063C108.864,-0.17 108.53,-0.317 108.241,-0.504C108.064,-0.625 107.94,-0.73 107.87,-0.819C107.8,-0.908 107.765,-1.008 107.765,-1.12C107.765,-1.213 107.795,-1.293 107.856,-1.358C107.917,-1.423 107.989,-1.456 108.073,-1.456C108.157,-1.456 108.302,-1.386 108.507,-1.246C108.778,-1.069 109.055,-0.924 109.34,-0.812C109.625,-0.7 109.982,-0.644 110.411,-0.644C110.962,-0.644 111.391,-0.744 111.699,-0.945C112.007,-1.146 112.161,-1.433 112.161,-1.806C112.161,-2.03 112.105,-2.214 111.993,-2.359C111.881,-2.504 111.694,-2.63 111.433,-2.737C111.172,-2.844 110.798,-2.949 110.313,-3.052C109.482,-3.239 108.892,-3.479 108.542,-3.773C108.192,-4.067 108.017,-4.461 108.017,-4.956C108.017,-5.553 108.25,-6.036 108.717,-6.405C109.184,-6.774 109.79,-6.958 110.537,-6.958C110.901,-6.958 111.249,-6.911 111.58,-6.818C111.911,-6.725 112.198,-6.589 112.441,-6.412C112.768,-6.188 112.931,-5.969 112.931,-5.754C112.931,-5.661 112.901,-5.579 112.84,-5.509C112.779,-5.439 112.707,-5.404 112.623,-5.404C112.53,-5.404 112.385,-5.479 112.189,-5.628C111.937,-5.805 111.687,-5.948 111.44,-6.055C111.193,-6.162 110.878,-6.216 110.495,-6.216C110.01,-6.216 109.622,-6.106 109.333,-5.887C109.044,-5.668 108.899,-5.371 108.899,-4.998C108.899,-4.783 108.948,-4.606 109.046,-4.466C109.144,-4.326 109.312,-4.202 109.55,-4.095C109.788,-3.988 110.131,-3.883 110.579,-3.78C111.223,-3.631 111.718,-3.472 112.063,-3.304C112.408,-3.136 112.656,-2.935 112.805,-2.702C112.954,-2.469 113.029,-2.17 113.029,-1.806C113.029,-1.237 112.789,-0.777 112.308,-0.427C111.827,-0.077 111.19,0.098 110.397,0.098C110.005,0.098 109.62,0.044 109.242,-0.063Z" style="fill-rule:nonzero;"/>
                    <path d="M114.964,-0.042C114.884,-0.117 114.845,-0.224 114.845,-0.364L114.845,-6.496C114.845,-6.636 114.884,-6.743 114.964,-6.818C115.043,-6.893 115.148,-6.93 115.279,-6.93C115.409,-6.93 115.512,-6.893 115.587,-6.818C115.661,-6.743 115.699,-6.636 115.699,-6.496L115.699,-0.364C115.699,-0.224 115.661,-0.117 115.587,-0.042C115.512,0.033 115.409,0.07 115.279,0.07C115.148,0.07 115.043,0.033 114.964,-0.042ZM114.824,-8.68C114.707,-8.792 114.649,-8.937 114.649,-9.114C114.649,-9.301 114.707,-9.45 114.824,-9.562C114.94,-9.674 115.092,-9.73 115.279,-9.73C115.465,-9.73 115.617,-9.674 115.734,-9.562C115.85,-9.45 115.909,-9.301 115.909,-9.114C115.909,-8.937 115.85,-8.792 115.734,-8.68C115.617,-8.568 115.465,-8.512 115.279,-8.512C115.092,-8.512 114.94,-8.568 114.824,-8.68Z" style="fill-rule:nonzero;"/>
                    <path d="M123.255,-6.93C123.357,-6.93 123.451,-6.893 123.535,-6.818C123.619,-6.743 123.661,-6.655 123.661,-6.552C123.661,-6.487 123.647,-6.426 123.619,-6.37L120.847,-0.28C120.8,-0.177 120.732,-0.098 120.644,-0.042C120.555,0.014 120.459,0.042 120.357,0.042C120.245,0.042 120.144,0.014 120.056,-0.042C119.967,-0.098 119.899,-0.177 119.853,-0.28L117.067,-6.37C117.039,-6.426 117.025,-6.482 117.025,-6.538C117.025,-6.65 117.074,-6.746 117.172,-6.825C117.27,-6.904 117.375,-6.944 117.487,-6.944C117.664,-6.944 117.785,-6.86 117.851,-6.692L120.371,-1.036L122.891,-6.678C122.965,-6.846 123.087,-6.93 123.255,-6.93Z" style="fill-rule:nonzero;"/>
                    <path d="M130.341,-1.351C130.402,-1.281 130.432,-1.199 130.432,-1.106C130.432,-0.901 130.274,-0.7 129.956,-0.504C129.284,-0.103 128.575,0.098 127.828,0.098C126.792,0.098 125.976,-0.215 125.378,-0.84C124.781,-1.465 124.482,-2.324 124.482,-3.416C124.482,-4.116 124.615,-4.734 124.881,-5.271C125.147,-5.808 125.521,-6.223 126.001,-6.517C126.482,-6.811 127.035,-6.958 127.66,-6.958C128.538,-6.958 129.231,-6.676 129.739,-6.111C130.248,-5.546 130.502,-4.769 130.502,-3.78C130.502,-3.612 130.465,-3.488 130.39,-3.409C130.316,-3.33 130.194,-3.29 130.026,-3.29L125.364,-3.29C125.392,-2.431 125.616,-1.778 126.036,-1.33C126.456,-0.882 127.049,-0.658 127.814,-0.658C128.216,-0.658 128.552,-0.712 128.822,-0.819C129.093,-0.926 129.382,-1.069 129.69,-1.246C129.896,-1.386 130.04,-1.456 130.124,-1.456C130.208,-1.456 130.281,-1.421 130.341,-1.351ZM126.092,-5.642C125.7,-5.231 125.467,-4.657 125.392,-3.92L129.718,-3.92C129.7,-4.667 129.513,-5.243 129.158,-5.649C128.804,-6.055 128.304,-6.258 127.66,-6.258C127.007,-6.258 126.484,-6.053 126.092,-5.642Z" style="fill-rule:nonzero;"/>
                </g>
            </g>
        </g>
    </g>
</svg>
