<?xml version="1.0" encoding="UTF-8" standalone="no"?>
<!DOCTYPE svg PUBLIC "-//W3C//DTD SVG 1.1//EN" "http://www.w3.org/Graphics/SVG/1.1/DTD/svg11.dtd">
<svg width="100%" height="100%" viewBox="0 0 78 27" version="1.1" xmlns="http://www.w3.org/2000/svg" xmlns:xlink="http://www.w3.org/1999/xlink" xml:space="preserve" xmlns:serif="http://www.serif.com/" style="fill-rule:evenodd;clip-rule:evenodd;stroke-linejoin:round;stroke-miterlimit:1.41421;">
    <g transform="matrix(1,0,0,1,-1169,-304)">
        <g transform="matrix(1,0,0,1,-13,0)">
            <g id="Small-branch-office">
                <g transform="matrix(1,0,0,1,1202.84,314)">
                    <path d="M2.317,-0.217C1.678,-0.436 1.176,-0.733 0.812,-1.106C0.691,-1.209 0.63,-1.344 0.63,-1.512C0.63,-1.615 0.66,-1.703 0.721,-1.778C0.782,-1.853 0.849,-1.89 0.924,-1.89C1.017,-1.89 1.125,-1.843 1.246,-1.75C2.123,-1.022 3.145,-0.658 4.312,-0.658C5.161,-0.658 5.817,-0.828 6.279,-1.169C6.741,-1.51 6.972,-1.993 6.972,-2.618C6.972,-2.982 6.86,-3.276 6.636,-3.5C6.412,-3.724 6.127,-3.899 5.782,-4.025C5.437,-4.151 4.975,-4.279 4.396,-4.41C3.631,-4.578 3.012,-4.751 2.541,-4.928C2.07,-5.105 1.671,-5.374 1.344,-5.733C1.017,-6.092 0.854,-6.575 0.854,-7.182C0.854,-7.733 1.001,-8.22 1.295,-8.645C1.589,-9.07 2.002,-9.399 2.534,-9.632C3.066,-9.865 3.677,-9.982 4.368,-9.982C5.012,-9.982 5.619,-9.877 6.188,-9.667C6.757,-9.457 7.229,-9.156 7.602,-8.764C7.723,-8.643 7.784,-8.507 7.784,-8.358C7.784,-8.255 7.754,-8.167 7.693,-8.092C7.632,-8.017 7.565,-7.98 7.49,-7.98C7.397,-7.98 7.289,-8.027 7.168,-8.12C6.664,-8.531 6.209,-8.815 5.803,-8.974C5.397,-9.133 4.919,-9.212 4.368,-9.212C3.537,-9.212 2.889,-9.035 2.422,-8.68C1.955,-8.325 1.722,-7.831 1.722,-7.196C1.722,-6.813 1.825,-6.503 2.03,-6.265C2.235,-6.027 2.504,-5.838 2.835,-5.698C3.166,-5.558 3.593,-5.423 4.116,-5.292L4.48,-5.208C5.236,-5.021 5.833,-4.849 6.272,-4.69C6.711,-4.531 7.082,-4.286 7.385,-3.955C7.688,-3.624 7.84,-3.178 7.84,-2.618C7.84,-2.086 7.693,-1.612 7.399,-1.197C7.105,-0.782 6.69,-0.46 6.153,-0.231C5.616,-0.002 5.003,0.112 4.312,0.112C3.621,0.112 2.956,0.002 2.317,-0.217Z" style="fill-rule:nonzero;"/>
                    <path d="M19.162,-4.326L19.162,-0.364C19.162,-0.233 19.124,-0.128 19.05,-0.049C18.975,0.03 18.872,0.07 18.742,0.07C18.611,0.07 18.506,0.03 18.427,-0.049C18.347,-0.128 18.308,-0.233 18.308,-0.364L18.308,-4.27C18.308,-4.951 18.186,-5.444 17.944,-5.747C17.701,-6.05 17.314,-6.202 16.782,-6.202C16.175,-6.202 15.692,-5.997 15.333,-5.586C14.973,-5.175 14.794,-4.625 14.794,-3.934L14.794,-0.364C14.794,-0.233 14.756,-0.128 14.682,-0.049C14.607,0.03 14.504,0.07 14.374,0.07C14.243,0.07 14.138,0.03 14.059,-0.049C13.979,-0.128 13.94,-0.233 13.94,-0.364L13.94,-4.27C13.94,-4.951 13.818,-5.444 13.576,-5.747C13.333,-6.05 12.946,-6.202 12.414,-6.202C11.807,-6.202 11.324,-5.997 10.965,-5.586C10.605,-5.175 10.426,-4.625 10.426,-3.934L10.426,-0.364C10.426,-0.233 10.388,-0.128 10.314,-0.049C10.239,0.03 10.136,0.07 10.006,0.07C9.875,0.07 9.77,0.03 9.691,-0.049C9.611,-0.128 9.572,-0.233 9.572,-0.364L9.572,-6.496C9.572,-6.636 9.611,-6.743 9.691,-6.818C9.77,-6.893 9.875,-6.93 10.006,-6.93C10.136,-6.93 10.237,-6.893 10.307,-6.818C10.377,-6.743 10.412,-6.641 10.412,-6.51L10.412,-5.67C10.608,-6.09 10.89,-6.41 11.259,-6.629C11.627,-6.848 12.054,-6.958 12.54,-6.958C13.613,-6.958 14.308,-6.51 14.626,-5.614C14.822,-6.034 15.12,-6.363 15.522,-6.601C15.923,-6.839 16.385,-6.958 16.908,-6.958C18.41,-6.958 19.162,-6.081 19.162,-4.326Z" style="fill-rule:nonzero;"/>
                    <path d="M25.857,-6.314C26.263,-5.885 26.466,-5.236 26.466,-4.368L26.466,-0.378C26.466,-0.247 26.428,-0.142 26.354,-0.063C26.279,0.016 26.176,0.056 26.046,0.056C25.915,0.056 25.812,0.016 25.738,-0.063C25.663,-0.142 25.626,-0.247 25.626,-0.378L25.626,-1.218C25.43,-0.798 25.145,-0.474 24.772,-0.245C24.398,-0.016 23.969,0.098 23.484,0.098C23.045,0.098 22.644,0.009 22.28,-0.168C21.916,-0.345 21.629,-0.593 21.419,-0.91C21.209,-1.227 21.104,-1.577 21.104,-1.96C21.104,-2.464 21.234,-2.856 21.496,-3.136C21.757,-3.416 22.191,-3.617 22.798,-3.738C23.404,-3.859 24.249,-3.92 25.332,-3.92L25.626,-3.92L25.626,-4.438C25.626,-5.054 25.5,-5.504 25.248,-5.789C24.996,-6.074 24.599,-6.216 24.058,-6.216C23.367,-6.216 22.709,-6.034 22.084,-5.67C22.056,-5.651 21.983,-5.602 21.867,-5.523C21.75,-5.444 21.65,-5.404 21.566,-5.404C21.472,-5.404 21.395,-5.439 21.335,-5.509C21.274,-5.579 21.244,-5.665 21.244,-5.768C21.244,-5.973 21.407,-6.174 21.734,-6.37C22.06,-6.557 22.424,-6.701 22.826,-6.804C23.227,-6.907 23.624,-6.958 24.016,-6.958C24.837,-6.958 25.451,-6.743 25.857,-6.314ZM25.045,-1.26C25.432,-1.671 25.626,-2.193 25.626,-2.828L25.626,-3.29L25.36,-3.29C24.464,-3.29 23.778,-3.253 23.302,-3.178C22.826,-3.103 22.49,-2.975 22.294,-2.793C22.098,-2.611 22,-2.347 22,-2.002C22,-1.61 22.149,-1.286 22.448,-1.029C22.746,-0.772 23.115,-0.644 23.554,-0.644C24.16,-0.644 24.657,-0.849 25.045,-1.26Z" style="fill-rule:nonzero;"/>
                    <path d="M28.764,-0.042C28.685,-0.117 28.645,-0.224 28.645,-0.364L28.645,-9.506C28.645,-9.646 28.685,-9.753 28.764,-9.828C28.844,-9.903 28.949,-9.94 29.079,-9.94C29.201,-9.94 29.301,-9.903 29.38,-9.828C29.46,-9.753 29.499,-9.646 29.499,-9.506L29.499,-0.364C29.499,-0.224 29.46,-0.117 29.38,-0.042C29.301,0.033 29.201,0.07 29.079,0.07C28.949,0.07 28.844,0.033 28.764,-0.042Z" style="fill-rule:nonzero;"/>
                    <path d="M31.826,-0.042C31.747,-0.117 31.707,-0.224 31.707,-0.364L31.707,-9.506C31.707,-9.646 31.747,-9.753 31.826,-9.828C31.906,-9.903 32.011,-9.94 32.141,-9.94C32.263,-9.94 32.363,-9.903 32.442,-9.828C32.522,-9.753 32.561,-9.646 32.561,-9.506L32.561,-0.364C32.561,-0.224 32.522,-0.117 32.442,-0.042C32.363,0.033 32.263,0.07 32.141,0.07C32.011,0.07 31.906,0.033 31.826,-0.042Z" style="fill-rule:nonzero;"/>
                </g>
                <g transform="matrix(1,0,0,1,1181,330)">
                    <path d="M5.894,-6.524C6.351,-6.235 6.706,-5.826 6.958,-5.299C7.21,-4.772 7.336,-4.158 7.336,-3.458C7.336,-2.749 7.21,-2.126 6.958,-1.589C6.706,-1.052 6.351,-0.637 5.894,-0.343C5.437,-0.049 4.909,0.098 4.312,0.098C3.761,0.098 3.285,-0.021 2.884,-0.259C2.483,-0.497 2.179,-0.845 1.974,-1.302L1.974,-0.378C1.974,-0.247 1.937,-0.142 1.862,-0.063C1.787,0.016 1.685,0.056 1.554,0.056C1.423,0.056 1.318,0.016 1.239,-0.063C1.16,-0.142 1.12,-0.247 1.12,-0.378L1.12,-9.506C1.12,-9.637 1.16,-9.742 1.239,-9.821C1.318,-9.9 1.423,-9.94 1.554,-9.94C1.685,-9.94 1.787,-9.9 1.862,-9.821C1.937,-9.742 1.974,-9.637 1.974,-9.506L1.974,-5.558C2.179,-6.015 2.483,-6.363 2.884,-6.601C3.285,-6.839 3.761,-6.958 4.312,-6.958C4.909,-6.958 5.437,-6.813 5.894,-6.524ZM5.859,-1.4C6.256,-1.895 6.454,-2.581 6.454,-3.458C6.454,-4.335 6.256,-5.014 5.859,-5.495C5.462,-5.976 4.905,-6.216 4.186,-6.216C3.477,-6.216 2.931,-5.973 2.548,-5.488C2.165,-5.003 1.974,-4.317 1.974,-3.43C1.974,-2.543 2.168,-1.86 2.555,-1.379C2.942,-0.898 3.491,-0.658 4.2,-0.658C4.909,-0.658 5.462,-0.905 5.859,-1.4Z" style="fill-rule:nonzero;"/>
                    <path d="M12.638,-6.86C12.712,-6.804 12.75,-6.711 12.75,-6.58C12.75,-6.347 12.61,-6.216 12.33,-6.188L11.91,-6.146C11.247,-6.081 10.755,-5.843 10.433,-5.432C10.111,-5.021 9.95,-4.541 9.95,-3.99L9.95,-0.364C9.95,-0.224 9.912,-0.117 9.838,-0.042C9.763,0.033 9.66,0.07 9.53,0.07C9.399,0.07 9.294,0.033 9.215,-0.042C9.135,-0.117 9.096,-0.224 9.096,-0.364L9.096,-6.496C9.096,-6.636 9.135,-6.743 9.215,-6.818C9.294,-6.893 9.399,-6.93 9.53,-6.93C9.651,-6.93 9.749,-6.893 9.824,-6.818C9.898,-6.743 9.936,-6.641 9.936,-6.51L9.936,-5.6C10.318,-6.403 11.028,-6.841 12.064,-6.916L12.26,-6.93C12.437,-6.939 12.563,-6.916 12.638,-6.86Z" style="fill-rule:nonzero;"/>
                    <path d="M18.255,-6.314C18.661,-5.885 18.864,-5.236 18.864,-4.368L18.864,-0.378C18.864,-0.247 18.826,-0.142 18.752,-0.063C18.677,0.016 18.574,0.056 18.444,0.056C18.313,0.056 18.21,0.016 18.136,-0.063C18.061,-0.142 18.024,-0.247 18.024,-0.378L18.024,-1.218C17.828,-0.798 17.543,-0.474 17.17,-0.245C16.796,-0.016 16.367,0.098 15.882,0.098C15.443,0.098 15.042,0.009 14.678,-0.168C14.314,-0.345 14.027,-0.593 13.817,-0.91C13.607,-1.227 13.502,-1.577 13.502,-1.96C13.502,-2.464 13.632,-2.856 13.894,-3.136C14.155,-3.416 14.589,-3.617 15.196,-3.738C15.802,-3.859 16.647,-3.92 17.73,-3.92L18.024,-3.92L18.024,-4.438C18.024,-5.054 17.898,-5.504 17.646,-5.789C17.394,-6.074 16.997,-6.216 16.456,-6.216C15.765,-6.216 15.107,-6.034 14.482,-5.67C14.454,-5.651 14.381,-5.602 14.265,-5.523C14.148,-5.444 14.048,-5.404 13.964,-5.404C13.87,-5.404 13.793,-5.439 13.733,-5.509C13.672,-5.579 13.642,-5.665 13.642,-5.768C13.642,-5.973 13.805,-6.174 14.132,-6.37C14.458,-6.557 14.822,-6.701 15.224,-6.804C15.625,-6.907 16.022,-6.958 16.414,-6.958C17.235,-6.958 17.849,-6.743 18.255,-6.314ZM17.443,-1.26C17.83,-1.671 18.024,-2.193 18.024,-2.828L18.024,-3.29L17.758,-3.29C16.862,-3.29 16.176,-3.253 15.7,-3.178C15.224,-3.103 14.888,-2.975 14.692,-2.793C14.496,-2.611 14.398,-2.347 14.398,-2.002C14.398,-1.61 14.547,-1.286 14.846,-1.029C15.144,-0.772 15.513,-0.644 15.952,-0.644C16.558,-0.644 17.055,-0.849 17.443,-1.26Z" style="fill-rule:nonzero;"/>
                    <path d="M26.671,-4.326L26.671,-0.364C26.671,-0.233 26.634,-0.128 26.559,-0.049C26.485,0.03 26.382,0.07 26.251,0.07C26.121,0.07 26.016,0.03 25.936,-0.049C25.857,-0.128 25.817,-0.233 25.817,-0.364L25.817,-4.27C25.817,-4.942 25.682,-5.432 25.411,-5.74C25.141,-6.048 24.711,-6.202 24.123,-6.202C23.451,-6.202 22.912,-5.997 22.506,-5.586C22.1,-5.175 21.897,-4.625 21.897,-3.934L21.897,-0.364C21.897,-0.233 21.86,-0.128 21.785,-0.049C21.711,0.03 21.608,0.07 21.477,0.07C21.347,0.07 21.242,0.03 21.162,-0.049C21.083,-0.128 21.043,-0.233 21.043,-0.364L21.043,-6.496C21.043,-6.627 21.083,-6.732 21.162,-6.811C21.242,-6.89 21.347,-6.93 21.477,-6.93C21.599,-6.93 21.697,-6.893 21.771,-6.818C21.846,-6.743 21.883,-6.641 21.883,-6.51L21.883,-5.628C22.098,-6.057 22.408,-6.386 22.814,-6.615C23.22,-6.844 23.689,-6.958 24.221,-6.958C25.855,-6.958 26.671,-6.081 26.671,-4.326Z" style="fill-rule:nonzero;"/>
                    <path d="M29.915,-0.336C29.439,-0.625 29.071,-1.036 28.809,-1.568C28.548,-2.1 28.417,-2.711 28.417,-3.402C28.417,-4.102 28.55,-4.72 28.816,-5.257C29.082,-5.794 29.456,-6.211 29.936,-6.51C30.417,-6.809 30.97,-6.958 31.595,-6.958C31.95,-6.958 32.295,-6.911 32.631,-6.818C32.967,-6.725 33.266,-6.585 33.527,-6.398C33.695,-6.277 33.814,-6.167 33.884,-6.069C33.954,-5.971 33.989,-5.866 33.989,-5.754C33.989,-5.651 33.961,-5.567 33.905,-5.502C33.849,-5.437 33.779,-5.404 33.695,-5.404C33.602,-5.404 33.453,-5.483 33.247,-5.642C33.005,-5.819 32.762,-5.959 32.519,-6.062C32.277,-6.165 31.983,-6.216 31.637,-6.216C30.909,-6.216 30.34,-5.966 29.929,-5.467C29.519,-4.968 29.313,-4.279 29.313,-3.402C29.313,-2.534 29.516,-1.86 29.922,-1.379C30.328,-0.898 30.895,-0.658 31.623,-0.658C31.978,-0.658 32.274,-0.709 32.512,-0.812C32.75,-0.915 33.009,-1.055 33.289,-1.232C33.373,-1.288 33.455,-1.339 33.534,-1.386C33.614,-1.433 33.677,-1.456 33.723,-1.456C33.817,-1.456 33.891,-1.423 33.947,-1.358C34.003,-1.293 34.031,-1.213 34.031,-1.12C34.031,-1.008 33.999,-0.91 33.933,-0.826C33.868,-0.742 33.742,-0.635 33.555,-0.504C33.303,-0.317 32.998,-0.17 32.638,-0.063C32.279,0.044 31.922,0.098 31.567,0.098C30.942,0.098 30.391,-0.047 29.915,-0.336Z" style="fill-rule:nonzero;"/>
                    <path d="M41.083,-4.326L41.083,-0.364C41.083,-0.233 41.046,-0.128 40.971,-0.049C40.896,0.03 40.794,0.07 40.663,0.07C40.532,0.07 40.427,0.03 40.348,-0.049C40.269,-0.128 40.229,-0.233 40.229,-0.364L40.229,-4.27C40.229,-4.942 40.094,-5.432 39.823,-5.74C39.552,-6.048 39.123,-6.202 38.535,-6.202C37.863,-6.202 37.324,-5.997 36.918,-5.586C36.512,-5.175 36.309,-4.625 36.309,-3.934L36.309,-0.364C36.309,-0.233 36.272,-0.128 36.197,-0.049C36.122,0.03 36.02,0.07 35.889,0.07C35.758,0.07 35.653,0.03 35.574,-0.049C35.495,-0.128 35.455,-0.233 35.455,-0.364L35.455,-9.506C35.455,-9.637 35.495,-9.742 35.574,-9.821C35.653,-9.9 35.758,-9.94 35.889,-9.94C36.02,-9.94 36.122,-9.9 36.197,-9.821C36.272,-9.742 36.309,-9.637 36.309,-9.506L36.309,-5.656C36.524,-6.076 36.834,-6.398 37.24,-6.622C37.646,-6.846 38.11,-6.958 38.633,-6.958C40.266,-6.958 41.083,-6.081 41.083,-4.326Z" style="fill-rule:nonzero;"/>
                    <path d="M47.802,-0.336C47.33,-0.625 46.964,-1.036 46.703,-1.568C46.441,-2.1 46.311,-2.721 46.311,-3.43C46.311,-4.139 46.441,-4.76 46.703,-5.292C46.964,-5.824 47.33,-6.235 47.802,-6.524C48.273,-6.813 48.821,-6.958 49.447,-6.958C50.063,-6.958 50.609,-6.813 51.085,-6.524C51.561,-6.235 51.927,-5.824 52.184,-5.292C52.44,-4.76 52.569,-4.139 52.569,-3.43C52.569,-2.721 52.44,-2.1 52.184,-1.568C51.927,-1.036 51.561,-0.625 51.085,-0.336C50.609,-0.047 50.063,0.098 49.447,0.098C48.821,0.098 48.273,-0.047 47.802,-0.336ZM51.099,-1.372C51.491,-1.848 51.687,-2.534 51.687,-3.43C51.687,-4.307 51.488,-4.991 51.092,-5.481C50.695,-5.971 50.147,-6.216 49.447,-6.216C48.737,-6.216 48.187,-5.971 47.795,-5.481C47.403,-4.991 47.207,-4.307 47.207,-3.43C47.207,-2.534 47.398,-1.848 47.781,-1.372C48.163,-0.896 48.714,-0.658 49.433,-0.658C50.151,-0.658 50.707,-0.896 51.099,-1.372Z" style="fill-rule:nonzero;"/>
                    <path d="M55.924,-8.659C55.654,-8.365 55.518,-7.915 55.518,-7.308L55.518,-6.79L57.212,-6.79C57.334,-6.79 57.427,-6.757 57.492,-6.692C57.558,-6.627 57.59,-6.543 57.59,-6.44C57.59,-6.337 57.558,-6.256 57.492,-6.195C57.427,-6.134 57.334,-6.104 57.212,-6.104L55.518,-6.104L55.518,-0.364C55.518,-0.233 55.476,-0.128 55.392,-0.049C55.308,0.03 55.206,0.07 55.084,0.07C54.954,0.07 54.851,0.033 54.776,-0.042C54.702,-0.117 54.664,-0.224 54.664,-0.364L54.664,-6.104L53.6,-6.104C53.488,-6.104 53.4,-6.134 53.334,-6.195C53.269,-6.256 53.236,-6.337 53.236,-6.44C53.236,-6.543 53.269,-6.627 53.334,-6.692C53.4,-6.757 53.488,-6.79 53.6,-6.79L54.664,-6.79L54.664,-7.14C54.664,-7.961 54.863,-8.605 55.259,-9.072C55.656,-9.539 56.232,-9.8 56.988,-9.856L57.352,-9.884C57.716,-9.912 57.898,-9.805 57.898,-9.562C57.898,-9.338 57.763,-9.212 57.492,-9.184L57.128,-9.156C56.596,-9.119 56.195,-8.953 55.924,-8.659Z" style="fill-rule:nonzero;"/>
                    <path d="M63.886,-6.692C63.952,-6.627 63.984,-6.543 63.984,-6.44L63.984,-0.364C63.984,-0.224 63.945,-0.117 63.865,-0.042C63.786,0.033 63.686,0.07 63.564,0.07C63.434,0.07 63.329,0.033 63.249,-0.042C63.17,-0.117 63.13,-0.224 63.13,-0.364L63.13,-6.104L59.938,-6.104L59.938,-0.364C59.938,-0.233 59.896,-0.128 59.812,-0.049C59.728,0.03 59.626,0.07 59.504,0.07C59.374,0.07 59.271,0.033 59.196,-0.042C59.122,-0.117 59.084,-0.224 59.084,-0.364L59.084,-6.104L58.02,-6.104C57.908,-6.104 57.82,-6.134 57.754,-6.195C57.689,-6.256 57.656,-6.337 57.656,-6.44C57.656,-6.543 57.689,-6.627 57.754,-6.692C57.82,-6.757 57.908,-6.79 58.02,-6.79L59.084,-6.79L59.084,-7.126C59.084,-7.947 59.283,-8.594 59.679,-9.065C60.076,-9.536 60.652,-9.8 61.408,-9.856L61.772,-9.884C62.127,-9.912 62.304,-9.805 62.304,-9.562C62.304,-9.338 62.169,-9.212 61.898,-9.184L61.548,-9.156C61.016,-9.109 60.615,-8.939 60.344,-8.645C60.074,-8.351 59.938,-7.905 59.938,-7.308L59.938,-6.79L63.62,-6.79C63.732,-6.79 63.821,-6.757 63.886,-6.692ZM64.019,-9.562C64.136,-9.45 64.194,-9.301 64.194,-9.114C64.194,-8.937 64.136,-8.792 64.019,-8.68C63.903,-8.568 63.751,-8.512 63.564,-8.512C63.378,-8.512 63.226,-8.568 63.109,-8.68C62.993,-8.792 62.934,-8.937 62.934,-9.114C62.934,-9.301 62.993,-9.45 63.109,-9.562C63.226,-9.674 63.378,-9.73 63.564,-9.73C63.751,-9.73 63.903,-9.674 64.019,-9.562Z" style="fill-rule:nonzero;"/>
                    <path d="M67.242,-0.336C66.766,-0.625 66.397,-1.036 66.136,-1.568C65.875,-2.1 65.744,-2.711 65.744,-3.402C65.744,-4.102 65.877,-4.72 66.143,-5.257C66.409,-5.794 66.782,-6.211 67.263,-6.51C67.744,-6.809 68.297,-6.958 68.922,-6.958C69.277,-6.958 69.622,-6.911 69.958,-6.818C70.294,-6.725 70.593,-6.585 70.854,-6.398C71.022,-6.277 71.141,-6.167 71.211,-6.069C71.281,-5.971 71.316,-5.866 71.316,-5.754C71.316,-5.651 71.288,-5.567 71.232,-5.502C71.176,-5.437 71.106,-5.404 71.022,-5.404C70.929,-5.404 70.779,-5.483 70.574,-5.642C70.331,-5.819 70.089,-5.959 69.846,-6.062C69.603,-6.165 69.309,-6.216 68.964,-6.216C68.236,-6.216 67.667,-5.966 67.256,-5.467C66.845,-4.968 66.64,-4.279 66.64,-3.402C66.64,-2.534 66.843,-1.86 67.249,-1.379C67.655,-0.898 68.222,-0.658 68.95,-0.658C69.305,-0.658 69.601,-0.709 69.839,-0.812C70.077,-0.915 70.336,-1.055 70.616,-1.232C70.7,-1.288 70.782,-1.339 70.861,-1.386C70.94,-1.433 71.003,-1.456 71.05,-1.456C71.143,-1.456 71.218,-1.423 71.274,-1.358C71.33,-1.293 71.358,-1.213 71.358,-1.12C71.358,-1.008 71.325,-0.91 71.26,-0.826C71.195,-0.742 71.069,-0.635 70.882,-0.504C70.63,-0.317 70.324,-0.17 69.965,-0.063C69.606,0.044 69.249,0.098 68.894,0.098C68.269,0.098 67.718,-0.047 67.242,-0.336Z" style="fill-rule:nonzero;"/>
                    <path d="M78.207,-1.351C78.267,-1.281 78.298,-1.199 78.298,-1.106C78.298,-0.901 78.139,-0.7 77.822,-0.504C77.15,-0.103 76.44,0.098 75.694,0.098C74.658,0.098 73.841,-0.215 73.244,-0.84C72.646,-1.465 72.348,-2.324 72.348,-3.416C72.348,-4.116 72.481,-4.734 72.747,-5.271C73.013,-5.808 73.386,-6.223 73.867,-6.517C74.347,-6.811 74.9,-6.958 75.526,-6.958C76.403,-6.958 77.096,-6.676 77.605,-6.111C78.113,-5.546 78.368,-4.769 78.368,-3.78C78.368,-3.612 78.33,-3.488 78.256,-3.409C78.181,-3.33 78.06,-3.29 77.892,-3.29L73.23,-3.29C73.258,-2.431 73.482,-1.778 73.902,-1.33C74.322,-0.882 74.914,-0.658 75.68,-0.658C76.081,-0.658 76.417,-0.712 76.688,-0.819C76.958,-0.926 77.248,-1.069 77.556,-1.246C77.761,-1.386 77.906,-1.456 77.99,-1.456C78.074,-1.456 78.146,-1.421 78.207,-1.351ZM73.958,-5.642C73.566,-5.231 73.332,-4.657 73.258,-3.92L77.584,-3.92C77.565,-4.667 77.378,-5.243 77.024,-5.649C76.669,-6.055 76.17,-6.258 75.526,-6.258C74.872,-6.258 74.35,-6.053 73.958,-5.642Z" style="fill-rule:nonzero;"/>
                </g>
            </g>
        </g>
    </g>
</svg>
