<?xml version="1.0" encoding="UTF-8"?>
<svg width="366px" height="130px" viewBox="0 0 366 130" version="1.1" xmlns="http://www.w3.org/2000/svg" xmlns:xlink="http://www.w3.org/1999/xlink">
    <!-- Generator: Sketch 50 (54983) - http://www.bohemiancoding.com/sketch -->
    <title>TZ600</title>
    <desc>Created with Sketch.</desc>
    <defs></defs>
    <g id="Page-2" stroke="none" stroke-width="1" fill="none" fill-rule="evenodd">
        <g id="TZ600">
            <path d="M344.368269,54.4347638 L21.8682692,54.4347638 L21.8682692,32.8981855 C21.8682692,26.6049827 26.9884615,21.4926555 33.2841346,21.4926555 L332.945192,21.4926555 C339.240865,21.4926555 344.368269,26.6049827 344.368269,32.8981855 L344.368269,54.4347638 Z M136.589423,65.0842454 C136.589423,61.4408122 139.553365,58.4814228 143.195192,58.4814228 C146.844231,58.4814228 149.800962,61.4408122 149.800962,65.0842454 C149.800962,68.7204781 146.844231,71.6726671 143.195192,71.6726671 C139.553365,71.6726671 136.589423,68.7204781 136.589423,65.0842454 Z M118.091827,65.0842454 C118.091827,61.4408122 121.041346,58.4814228 124.683173,58.4814228 C128.332212,58.4814228 131.288942,61.4408122 131.288942,65.0842454 C131.288942,68.7204781 128.332212,71.6726671 124.683173,71.6726671 C121.041346,71.6726671 118.091827,68.7204781 118.091827,65.0842454 Z M344.368269,97.2703053 C344.368269,103.556308 339.240865,108.675835 332.945192,108.675835 L33.2841346,108.675835 C26.9884615,108.675835 21.8682692,103.556308 21.8682692,97.2703053 L21.8682692,75.733727 L344.368269,75.733727 L344.368269,97.2703053 Z M52.7913462,0.193692396 L33.2841346,0.193692396 C15.2336538,0.193692396 0.529326923,14.8682316 0.529326923,32.8981855 L0.529326923,97.2703053 C0.529326923,115.300259 15.2336538,129.974798 33.2841346,129.974798 L332.945192,129.974798 C351.010096,129.974798 365.7,115.300259 365.7,97.2703053 L365.7,32.8981855 C365.7,14.8682316 351.010096,0.193692396 332.945192,0.193692396 L313.430769,0.193692396 L292.099038,0.193692396 L193.784135,0.193692396 L172.452404,0.193692396 L74.1302885,0.193692396 L52.7913462,0.193692396 Z" id="Fill-17" fill="#636569"></path>
            <path d="M231.441346,35.5119528 C235.090385,35.5119528 238.047115,38.4569412 238.047115,42.1075749 C238.047115,45.7438076 235.090385,48.6887961 231.441346,48.6887961 C227.792308,48.6887961 224.842788,45.7438076 224.842788,42.1075749 C224.842788,38.4569412 227.792308,35.5119528 231.441346,35.5119528 Z M249.949038,35.5119528 C253.598077,35.5119528 256.554808,38.4569412 256.554808,42.1075749 C256.554808,45.7438076 253.598077,48.6887961 249.949038,48.6887961 C246.3,48.6887961 243.350481,45.7438076 243.350481,42.1075749 C243.350481,38.4569412 246.3,35.5119528 249.949038,35.5119528 Z M268.456731,35.5119528 C272.105769,35.5119528 275.055288,38.4569412 275.055288,42.1075749 C275.055288,45.7438076 272.105769,48.6887961 268.456731,48.6887961 C264.807692,48.6887961 261.850962,45.7438076 261.850962,42.1075749 C261.850962,38.4569412 264.807692,35.5119528 268.456731,35.5119528 Z M286.957212,35.5119528 C290.60625,35.5119528 293.562981,38.4569412 293.562981,42.1075749 C293.562981,45.7438076 290.60625,48.6887961 286.957212,48.6887961 C283.308173,48.6887961 280.358654,45.7438076 280.358654,42.1075749 C280.358654,38.4569412 283.308173,35.5119528 286.957212,35.5119528 Z M305.464904,35.5119528 C309.113942,35.5119528 312.063462,38.4569412 312.063462,42.1075749 C312.063462,45.7438076 309.113942,48.6887961 305.464904,48.6887961 C301.815865,48.6887961 298.859135,45.7438076 298.859135,42.1075749 C298.859135,38.4569412 301.815865,35.5119528 305.464904,35.5119528 Z" id="Combined-Shape" fill="#646566"></path>
        </g>
    </g>
</svg>