<?xml version="1.0" encoding="UTF-8" standalone="no"?>
<!DOCTYPE svg PUBLIC "-//W3C//DTD SVG 1.1//EN" "http://www.w3.org/Graphics/SVG/1.1/DTD/svg11.dtd">
<svg width="100%" height="100%" viewBox="0 0 41 11" version="1.1" xmlns="http://www.w3.org/2000/svg" xmlns:xlink="http://www.w3.org/1999/xlink" xml:space="preserve" xmlns:serif="http://www.serif.com/" style="fill-rule:evenodd;clip-rule:evenodd;stroke-linejoin:round;stroke-miterlimit:1.41421;">
    <g transform="matrix(1,0,0,1,-947,-355)">
        <g transform="matrix(1,0,0,1,-13,0)">
            <g transform="matrix(1,0,0,1,960.049,365)">
                <g id="TZ600">
                    <path d="M3.822,-0.056C3.747,-0.14 3.71,-0.247 3.71,-0.378L3.71,-9.114L0.476,-9.114C0.355,-9.114 0.259,-9.147 0.189,-9.212C0.119,-9.277 0.084,-9.371 0.084,-9.492C0.084,-9.613 0.119,-9.707 0.189,-9.772C0.259,-9.837 0.355,-9.87 0.476,-9.87L7.784,-9.87C7.896,-9.87 7.989,-9.835 8.064,-9.765C8.139,-9.695 8.176,-9.604 8.176,-9.492C8.176,-9.38 8.139,-9.289 8.064,-9.219C7.989,-9.149 7.896,-9.114 7.784,-9.114L4.564,-9.114L4.564,-0.378C4.564,-0.247 4.524,-0.14 4.445,-0.056C4.366,0.028 4.261,0.07 4.13,0.07C3.999,0.07 3.897,0.028 3.822,-0.056Z" style="fill-rule:nonzero;"/>
                    <path d="M15.781,-0.651C15.851,-0.59 15.886,-0.499 15.886,-0.378C15.886,-0.257 15.851,-0.163 15.781,-0.098C15.711,-0.033 15.61,0 15.48,0L9.096,0C8.965,0 8.862,-0.033 8.788,-0.098C8.713,-0.163 8.676,-0.252 8.676,-0.364C8.676,-0.476 8.718,-0.588 8.802,-0.7L14.654,-9.128L9.068,-9.128C8.956,-9.128 8.865,-9.161 8.795,-9.226C8.725,-9.291 8.69,-9.38 8.69,-9.492C8.69,-9.613 8.725,-9.707 8.795,-9.772C8.865,-9.837 8.956,-9.87 9.068,-9.87L15.326,-9.87C15.456,-9.87 15.559,-9.835 15.634,-9.765C15.708,-9.695 15.746,-9.604 15.746,-9.492C15.746,-9.38 15.708,-9.273 15.634,-9.17L9.768,-0.742L15.48,-0.742C15.61,-0.742 15.711,-0.712 15.781,-0.651Z" style="fill-rule:nonzero;"/>
                    <path d="M22.413,-5.754C22.884,-5.493 23.25,-5.126 23.512,-4.655C23.773,-4.184 23.904,-3.64 23.904,-3.024C23.904,-2.427 23.768,-1.89 23.498,-1.414C23.227,-0.938 22.854,-0.565 22.378,-0.294C21.902,-0.023 21.365,0.112 20.768,0.112C19.601,0.112 18.7,-0.301 18.066,-1.127C17.431,-1.953 17.114,-3.131 17.114,-4.662C17.114,-6.342 17.44,-7.649 18.094,-8.582C18.747,-9.515 19.657,-9.982 20.824,-9.982C21.365,-9.982 21.897,-9.875 22.42,-9.66C22.942,-9.445 23.386,-9.156 23.75,-8.792C23.871,-8.68 23.932,-8.545 23.932,-8.386C23.932,-8.283 23.904,-8.195 23.848,-8.12C23.792,-8.045 23.726,-8.008 23.652,-8.008C23.558,-8.008 23.451,-8.055 23.33,-8.148C22.48,-8.867 21.645,-9.226 20.824,-9.226C19.937,-9.226 19.242,-8.825 18.738,-8.022C18.234,-7.219 17.982,-6.099 17.982,-4.662L17.982,-4.284C18.196,-4.863 18.556,-5.318 19.06,-5.649C19.564,-5.98 20.142,-6.146 20.796,-6.146C21.402,-6.146 21.941,-6.015 22.413,-5.754ZM22.399,-1.295C22.814,-1.729 23.022,-2.305 23.022,-3.024C23.022,-3.733 22.812,-4.303 22.392,-4.732C21.972,-5.161 21.416,-5.376 20.726,-5.376C20.026,-5.376 19.452,-5.157 19.004,-4.718C18.556,-4.279 18.332,-3.715 18.332,-3.024C18.332,-2.315 18.553,-1.741 18.997,-1.302C19.44,-0.863 20.021,-0.644 20.74,-0.644C21.43,-0.644 21.983,-0.861 22.399,-1.295Z" style="fill-rule:nonzero;"/>
                    <path d="M26.279,-1.169C25.701,-2.023 25.411,-3.276 25.411,-4.928C25.411,-6.589 25.701,-7.847 26.279,-8.701C26.858,-9.555 27.703,-9.982 28.813,-9.982C29.924,-9.982 30.769,-9.555 31.347,-8.701C31.926,-7.847 32.215,-6.594 32.215,-4.942C32.215,-3.29 31.926,-2.035 31.347,-1.176C30.769,-0.317 29.924,0.112 28.813,0.112C27.703,0.112 26.858,-0.315 26.279,-1.169ZM30.71,-1.701C31.116,-2.396 31.319,-3.477 31.319,-4.942C31.319,-6.407 31.116,-7.485 30.71,-8.176C30.304,-8.867 29.672,-9.212 28.813,-9.212C27.955,-9.212 27.322,-8.867 26.916,-8.176C26.51,-7.485 26.307,-6.407 26.307,-4.942C26.307,-3.486 26.513,-2.408 26.923,-1.708C27.334,-1.008 27.964,-0.658 28.813,-0.658C29.672,-0.658 30.304,-1.006 30.71,-1.701Z" style="fill-rule:nonzero;"/>
                    <path d="M34.633,-1.169C34.055,-2.023 33.765,-3.276 33.765,-4.928C33.765,-6.589 34.055,-7.847 34.633,-8.701C35.212,-9.555 36.057,-9.982 37.167,-9.982C38.278,-9.982 39.123,-9.555 39.701,-8.701C40.28,-7.847 40.569,-6.594 40.569,-4.942C40.569,-3.29 40.28,-2.035 39.701,-1.176C39.123,-0.317 38.278,0.112 37.167,0.112C36.057,0.112 35.212,-0.315 34.633,-1.169ZM39.064,-1.701C39.47,-2.396 39.673,-3.477 39.673,-4.942C39.673,-6.407 39.47,-7.485 39.064,-8.176C38.658,-8.867 38.026,-9.212 37.167,-9.212C36.309,-9.212 35.676,-8.867 35.27,-8.176C34.864,-7.485 34.661,-6.407 34.661,-4.942C34.661,-3.486 34.867,-2.408 35.277,-1.708C35.688,-1.008 36.318,-0.658 37.167,-0.658C38.026,-0.658 38.658,-1.006 39.064,-1.701Z" style="fill-rule:nonzero;"/>
                </g>
            </g>
        </g>
    </g>
</svg>
