<?xml version="1.0" encoding="UTF-8" standalone="no"?>
<!DOCTYPE svg PUBLIC "-//W3C//DTD SVG 1.1//EN" "http://www.w3.org/Graphics/SVG/1.1/DTD/svg11.dtd">
<svg width="100%" height="100%" viewBox="0 0 114 60" version="1.1" xmlns="http://www.w3.org/2000/svg" xmlns:xlink="http://www.w3.org/1999/xlink" xml:space="preserve" xmlns:serif="http://www.serif.com/" style="fill-rule:evenodd;clip-rule:evenodd;stroke-linejoin:round;stroke-miterlimit:1.41421;">
    <g transform="matrix(1,0,0,1,-815,-448)">
        <g id="_--Botnet-Filtering--" serif:id="•-Botnet-Filtering-•" transform="matrix(1,0,0,1,43.6315,0)">
            <g transform="matrix(1,0,0,1,771,457)">
                <path d="M2.064,-1.338C1.728,-1.526 1.462,-1.782 1.266,-2.106C1.07,-2.43 0.972,-2.788 0.972,-3.18C0.972,-3.548 1.066,-3.896 1.254,-4.224C1.442,-4.552 1.702,-4.816 2.034,-5.016C2.366,-5.216 2.736,-5.316 3.144,-5.316C3.528,-5.316 3.886,-5.222 4.218,-5.034C4.55,-4.846 4.816,-4.59 5.016,-4.266C5.216,-3.942 5.316,-3.58 5.316,-3.18C5.316,-2.796 5.218,-2.442 5.022,-2.118C4.826,-1.794 4.562,-1.536 4.23,-1.344C3.898,-1.152 3.536,-1.056 3.144,-1.056C2.76,-1.056 2.4,-1.15 2.064,-1.338Z" style="fill-rule:nonzero;"/>
                <path d="M16.17,-3.618C16.438,-3.262 16.572,-2.82 16.572,-2.292C16.572,-1.548 16.33,-0.98 15.846,-0.588C15.362,-0.196 14.676,0 13.788,0L10.8,0C10.688,0 10.594,-0.036 10.518,-0.108C10.442,-0.18 10.404,-0.268 10.404,-0.372L10.404,-8.088C10.404,-8.192 10.442,-8.28 10.518,-8.352C10.594,-8.424 10.688,-8.46 10.8,-8.46L13.668,-8.46C14.532,-8.46 15.2,-8.268 15.672,-7.884C16.144,-7.5 16.38,-6.952 16.38,-6.24C16.38,-5.784 16.262,-5.392 16.026,-5.064C15.79,-4.736 15.46,-4.492 15.036,-4.332C15.524,-4.212 15.902,-3.974 16.17,-3.618ZM11.136,-4.62L13.56,-4.62C14.24,-4.62 14.756,-4.76 15.108,-5.04C15.46,-5.32 15.636,-5.724 15.636,-6.252C15.636,-7.3 14.944,-7.824 13.56,-7.824L11.136,-7.824L11.136,-4.62ZM15.318,-1.038C15.658,-1.306 15.828,-1.716 15.828,-2.268C15.828,-3.404 15.132,-3.972 13.74,-3.972L11.136,-3.972L11.136,-0.636L13.74,-0.636C14.452,-0.636 14.978,-0.77 15.318,-1.038Z" style="fill-rule:nonzero;"/>
                <path d="M19.218,-0.288C18.814,-0.536 18.5,-0.888 18.276,-1.344C18.052,-1.8 17.94,-2.332 17.94,-2.94C17.94,-3.548 18.052,-4.08 18.276,-4.536C18.5,-4.992 18.814,-5.344 19.218,-5.592C19.622,-5.84 20.092,-5.964 20.628,-5.964C21.156,-5.964 21.624,-5.84 22.032,-5.592C22.44,-5.344 22.754,-4.992 22.974,-4.536C23.194,-4.08 23.304,-3.548 23.304,-2.94C23.304,-2.332 23.194,-1.8 22.974,-1.344C22.754,-0.888 22.44,-0.536 22.032,-0.288C21.624,-0.04 21.156,0.084 20.628,0.084C20.092,0.084 19.622,-0.04 19.218,-0.288ZM22.044,-1.176C22.38,-1.584 22.548,-2.172 22.548,-2.94C22.548,-3.692 22.378,-4.278 22.038,-4.698C21.698,-5.118 21.228,-5.328 20.628,-5.328C20.02,-5.328 19.548,-5.118 19.212,-4.698C18.876,-4.278 18.708,-3.692 18.708,-2.94C18.708,-2.172 18.872,-1.584 19.2,-1.176C19.528,-0.768 20,-0.564 20.616,-0.564C21.232,-0.564 21.708,-0.768 22.044,-1.176Z" style="fill-rule:nonzero;"/>
                <path d="M27.72,-0.24C27.72,-0.144 27.684,-0.068 27.612,-0.012C27.54,0.044 27.424,0.068 27.264,0.06L26.928,0.036C26.32,-0.004 25.87,-0.19 25.578,-0.522C25.286,-0.854 25.14,-1.36 25.14,-2.04L25.14,-5.232L24.228,-5.232C24.132,-5.232 24.056,-5.258 24,-5.31C23.944,-5.362 23.916,-5.432 23.916,-5.52C23.916,-5.608 23.944,-5.68 24,-5.736C24.056,-5.792 24.132,-5.82 24.228,-5.82L25.14,-5.82L25.14,-7.308C25.14,-7.428 25.172,-7.52 25.236,-7.584C25.3,-7.648 25.388,-7.68 25.5,-7.68C25.612,-7.68 25.702,-7.648 25.77,-7.584C25.838,-7.52 25.872,-7.428 25.872,-7.308L25.872,-5.82L27.324,-5.82C27.428,-5.82 27.508,-5.792 27.564,-5.736C27.62,-5.68 27.648,-5.608 27.648,-5.52C27.648,-5.432 27.62,-5.362 27.564,-5.31C27.508,-5.258 27.428,-5.232 27.324,-5.232L25.872,-5.232L25.872,-2.004C25.872,-1.508 25.968,-1.154 26.16,-0.942C26.352,-0.73 26.652,-0.608 27.06,-0.576L27.384,-0.552C27.608,-0.528 27.72,-0.424 27.72,-0.24Z" style="fill-rule:nonzero;"/>
                <path d="M33.6,-3.708L33.6,-0.312C33.6,-0.2 33.568,-0.11 33.504,-0.042C33.44,0.026 33.352,0.06 33.24,0.06C33.128,0.06 33.038,0.026 32.97,-0.042C32.902,-0.11 32.868,-0.2 32.868,-0.312L32.868,-3.66C32.868,-4.236 32.752,-4.656 32.52,-4.92C32.288,-5.184 31.92,-5.316 31.416,-5.316C30.84,-5.316 30.378,-5.14 30.03,-4.788C29.682,-4.436 29.508,-3.964 29.508,-3.372L29.508,-0.312C29.508,-0.2 29.476,-0.11 29.412,-0.042C29.348,0.026 29.26,0.06 29.148,0.06C29.036,0.06 28.946,0.026 28.878,-0.042C28.81,-0.11 28.776,-0.2 28.776,-0.312L28.776,-5.568C28.776,-5.68 28.81,-5.77 28.878,-5.838C28.946,-5.906 29.036,-5.94 29.148,-5.94C29.252,-5.94 29.336,-5.908 29.4,-5.844C29.464,-5.78 29.496,-5.692 29.496,-5.58L29.496,-4.824C29.68,-5.192 29.946,-5.474 30.294,-5.67C30.642,-5.866 31.044,-5.964 31.5,-5.964C32.9,-5.964 33.6,-5.212 33.6,-3.708Z" style="fill-rule:nonzero;"/>
                <path d="M40.158,-1.158C40.21,-1.098 40.236,-1.028 40.236,-0.948C40.236,-0.772 40.1,-0.6 39.828,-0.432C39.252,-0.088 38.644,0.084 38.004,0.084C37.116,0.084 36.416,-0.184 35.904,-0.72C35.392,-1.256 35.136,-1.992 35.136,-2.928C35.136,-3.528 35.25,-4.058 35.478,-4.518C35.706,-4.978 36.026,-5.334 36.438,-5.586C36.85,-5.838 37.324,-5.964 37.86,-5.964C38.612,-5.964 39.206,-5.722 39.642,-5.238C40.078,-4.754 40.296,-4.088 40.296,-3.24C40.296,-3.096 40.264,-2.99 40.2,-2.922C40.136,-2.854 40.032,-2.82 39.888,-2.82L35.892,-2.82C35.916,-2.084 36.108,-1.524 36.468,-1.14C36.828,-0.756 37.336,-0.564 37.992,-0.564C38.336,-0.564 38.624,-0.61 38.856,-0.702C39.088,-0.794 39.336,-0.916 39.6,-1.068C39.776,-1.188 39.9,-1.248 39.972,-1.248C40.044,-1.248 40.106,-1.218 40.158,-1.158ZM36.516,-4.836C36.18,-4.484 35.98,-3.992 35.916,-3.36L39.624,-3.36C39.608,-4 39.448,-4.494 39.144,-4.842C38.84,-5.19 38.412,-5.364 37.86,-5.364C37.3,-5.364 36.852,-5.188 36.516,-4.836Z" style="fill-rule:nonzero;"/>
                <path d="M44.676,-0.24C44.676,-0.144 44.64,-0.068 44.568,-0.012C44.496,0.044 44.38,0.068 44.22,0.06L43.884,0.036C43.276,-0.004 42.826,-0.19 42.534,-0.522C42.242,-0.854 42.096,-1.36 42.096,-2.04L42.096,-5.232L41.184,-5.232C41.088,-5.232 41.012,-5.258 40.956,-5.31C40.9,-5.362 40.872,-5.432 40.872,-5.52C40.872,-5.608 40.9,-5.68 40.956,-5.736C41.012,-5.792 41.088,-5.82 41.184,-5.82L42.096,-5.82L42.096,-7.308C42.096,-7.428 42.128,-7.52 42.192,-7.584C42.256,-7.648 42.344,-7.68 42.456,-7.68C42.568,-7.68 42.658,-7.648 42.726,-7.584C42.794,-7.52 42.828,-7.428 42.828,-7.308L42.828,-5.82L44.28,-5.82C44.384,-5.82 44.464,-5.792 44.52,-5.736C44.576,-5.68 44.604,-5.608 44.604,-5.52C44.604,-5.432 44.576,-5.362 44.52,-5.31C44.464,-5.258 44.384,-5.232 44.28,-5.232L42.828,-5.232L42.828,-2.004C42.828,-1.508 42.924,-1.154 43.116,-0.942C43.308,-0.73 43.608,-0.608 44.016,-0.576L44.34,-0.552C44.564,-0.528 44.676,-0.424 44.676,-0.24Z" style="fill-rule:nonzero;"/>
                <path d="M48.99,-0.048C48.922,-0.12 48.888,-0.212 48.888,-0.324L48.888,-8.088C48.888,-8.192 48.926,-8.28 49.002,-8.352C49.078,-8.424 49.172,-8.46 49.284,-8.46L53.724,-8.46C53.828,-8.46 53.91,-8.432 53.97,-8.376C54.03,-8.32 54.06,-8.24 54.06,-8.136C54.06,-8.032 54.03,-7.954 53.97,-7.902C53.91,-7.85 53.828,-7.824 53.724,-7.824L49.632,-7.824L49.632,-4.62L53.484,-4.62C53.588,-4.62 53.67,-4.592 53.73,-4.536C53.79,-4.48 53.82,-4.4 53.82,-4.296C53.82,-4.192 53.79,-4.112 53.73,-4.056C53.67,-4 53.588,-3.972 53.484,-3.972L49.632,-3.972L49.632,-0.324C49.632,-0.204 49.6,-0.11 49.536,-0.042C49.472,0.026 49.38,0.06 49.26,0.06C49.148,0.06 49.058,0.024 48.99,-0.048Z" style="fill-rule:nonzero;"/>
                <path d="M55.494,-0.036C55.426,-0.1 55.392,-0.192 55.392,-0.312L55.392,-5.568C55.392,-5.688 55.426,-5.78 55.494,-5.844C55.562,-5.908 55.652,-5.94 55.764,-5.94C55.876,-5.94 55.964,-5.908 56.028,-5.844C56.092,-5.78 56.124,-5.688 56.124,-5.568L56.124,-0.312C56.124,-0.192 56.092,-0.1 56.028,-0.036C55.964,0.028 55.876,0.06 55.764,0.06C55.652,0.06 55.562,0.028 55.494,-0.036ZM55.374,-7.44C55.274,-7.536 55.224,-7.66 55.224,-7.812C55.224,-7.972 55.274,-8.1 55.374,-8.196C55.474,-8.292 55.604,-8.34 55.764,-8.34C55.924,-8.34 56.054,-8.292 56.154,-8.196C56.254,-8.1 56.304,-7.972 56.304,-7.812C56.304,-7.66 56.254,-7.536 56.154,-7.44C56.054,-7.344 55.924,-7.296 55.764,-7.296C55.604,-7.296 55.474,-7.344 55.374,-7.44Z" style="fill-rule:nonzero;"/>
                <path d="M58.158,-0.036C58.09,-0.1 58.056,-0.192 58.056,-0.312L58.056,-8.148C58.056,-8.268 58.09,-8.36 58.158,-8.424C58.226,-8.488 58.316,-8.52 58.428,-8.52C58.532,-8.52 58.618,-8.488 58.686,-8.424C58.754,-8.36 58.788,-8.268 58.788,-8.148L58.788,-0.312C58.788,-0.192 58.754,-0.1 58.686,-0.036C58.618,0.028 58.532,0.06 58.428,0.06C58.316,0.06 58.226,0.028 58.158,-0.036Z" style="fill-rule:nonzero;"/>
                <path d="M63.588,-0.24C63.588,-0.144 63.552,-0.068 63.48,-0.012C63.408,0.044 63.292,0.068 63.132,0.06L62.796,0.036C62.188,-0.004 61.738,-0.19 61.446,-0.522C61.154,-0.854 61.008,-1.36 61.008,-2.04L61.008,-5.232L60.096,-5.232C60,-5.232 59.924,-5.258 59.868,-5.31C59.812,-5.362 59.784,-5.432 59.784,-5.52C59.784,-5.608 59.812,-5.68 59.868,-5.736C59.924,-5.792 60,-5.82 60.096,-5.82L61.008,-5.82L61.008,-7.308C61.008,-7.428 61.04,-7.52 61.104,-7.584C61.168,-7.648 61.256,-7.68 61.368,-7.68C61.48,-7.68 61.57,-7.648 61.638,-7.584C61.706,-7.52 61.74,-7.428 61.74,-7.308L61.74,-5.82L63.192,-5.82C63.296,-5.82 63.376,-5.792 63.432,-5.736C63.488,-5.68 63.516,-5.608 63.516,-5.52C63.516,-5.432 63.488,-5.362 63.432,-5.31C63.376,-5.258 63.296,-5.232 63.192,-5.232L61.74,-5.232L61.74,-2.004C61.74,-1.508 61.836,-1.154 62.028,-0.942C62.22,-0.73 62.52,-0.608 62.928,-0.576L63.252,-0.552C63.476,-0.528 63.588,-0.424 63.588,-0.24Z" style="fill-rule:nonzero;"/>
                <path d="M69.294,-1.158C69.346,-1.098 69.372,-1.028 69.372,-0.948C69.372,-0.772 69.236,-0.6 68.964,-0.432C68.388,-0.088 67.78,0.084 67.14,0.084C66.252,0.084 65.552,-0.184 65.04,-0.72C64.528,-1.256 64.272,-1.992 64.272,-2.928C64.272,-3.528 64.386,-4.058 64.614,-4.518C64.842,-4.978 65.162,-5.334 65.574,-5.586C65.986,-5.838 66.46,-5.964 66.996,-5.964C67.748,-5.964 68.342,-5.722 68.778,-5.238C69.214,-4.754 69.432,-4.088 69.432,-3.24C69.432,-3.096 69.4,-2.99 69.336,-2.922C69.272,-2.854 69.168,-2.82 69.024,-2.82L65.028,-2.82C65.052,-2.084 65.244,-1.524 65.604,-1.14C65.964,-0.756 66.472,-0.564 67.128,-0.564C67.472,-0.564 67.76,-0.61 67.992,-0.702C68.224,-0.794 68.472,-0.916 68.736,-1.068C68.912,-1.188 69.036,-1.248 69.108,-1.248C69.18,-1.248 69.242,-1.218 69.294,-1.158ZM65.652,-4.836C65.316,-4.484 65.116,-3.992 65.052,-3.36L68.76,-3.36C68.744,-4 68.584,-4.494 68.28,-4.842C67.976,-5.19 67.548,-5.364 66.996,-5.364C66.436,-5.364 65.988,-5.188 65.652,-4.836Z" style="fill-rule:nonzero;"/>
                <path d="M73.992,-5.88C74.056,-5.832 74.088,-5.752 74.088,-5.64C74.088,-5.44 73.968,-5.328 73.728,-5.304L73.368,-5.268C72.8,-5.212 72.378,-5.008 72.102,-4.656C71.826,-4.304 71.688,-3.892 71.688,-3.42L71.688,-0.312C71.688,-0.192 71.656,-0.1 71.592,-0.036C71.528,0.028 71.44,0.06 71.328,0.06C71.216,0.06 71.126,0.028 71.058,-0.036C70.99,-0.1 70.956,-0.192 70.956,-0.312L70.956,-5.568C70.956,-5.688 70.99,-5.78 71.058,-5.844C71.126,-5.908 71.216,-5.94 71.328,-5.94C71.432,-5.94 71.516,-5.908 71.58,-5.844C71.644,-5.78 71.676,-5.692 71.676,-5.58L71.676,-4.8C72.004,-5.488 72.612,-5.864 73.5,-5.928L73.668,-5.94C73.82,-5.948 73.928,-5.928 73.992,-5.88Z" style="fill-rule:nonzero;"/>
                <path d="M75.126,-0.036C75.058,-0.1 75.024,-0.192 75.024,-0.312L75.024,-5.568C75.024,-5.688 75.058,-5.78 75.126,-5.844C75.194,-5.908 75.284,-5.94 75.396,-5.94C75.508,-5.94 75.596,-5.908 75.66,-5.844C75.724,-5.78 75.756,-5.688 75.756,-5.568L75.756,-0.312C75.756,-0.192 75.724,-0.1 75.66,-0.036C75.596,0.028 75.508,0.06 75.396,0.06C75.284,0.06 75.194,0.028 75.126,-0.036ZM75.006,-7.44C74.906,-7.536 74.856,-7.66 74.856,-7.812C74.856,-7.972 74.906,-8.1 75.006,-8.196C75.106,-8.292 75.236,-8.34 75.396,-8.34C75.556,-8.34 75.686,-8.292 75.786,-8.196C75.886,-8.1 75.936,-7.972 75.936,-7.812C75.936,-7.66 75.886,-7.536 75.786,-7.44C75.686,-7.344 75.556,-7.296 75.396,-7.296C75.236,-7.296 75.106,-7.344 75.006,-7.44Z" style="fill-rule:nonzero;"/>
                <path d="M82.512,-3.708L82.512,-0.312C82.512,-0.2 82.48,-0.11 82.416,-0.042C82.352,0.026 82.264,0.06 82.152,0.06C82.04,0.06 81.95,0.026 81.882,-0.042C81.814,-0.11 81.78,-0.2 81.78,-0.312L81.78,-3.66C81.78,-4.236 81.664,-4.656 81.432,-4.92C81.2,-5.184 80.832,-5.316 80.328,-5.316C79.752,-5.316 79.29,-5.14 78.942,-4.788C78.594,-4.436 78.42,-3.964 78.42,-3.372L78.42,-0.312C78.42,-0.2 78.388,-0.11 78.324,-0.042C78.26,0.026 78.172,0.06 78.06,0.06C77.948,0.06 77.858,0.026 77.79,-0.042C77.722,-0.11 77.688,-0.2 77.688,-0.312L77.688,-5.568C77.688,-5.68 77.722,-5.77 77.79,-5.838C77.858,-5.906 77.948,-5.94 78.06,-5.94C78.164,-5.94 78.248,-5.908 78.312,-5.844C78.376,-5.78 78.408,-5.692 78.408,-5.58L78.408,-4.824C78.592,-5.192 78.858,-5.474 79.206,-5.67C79.554,-5.866 79.956,-5.964 80.412,-5.964C81.812,-5.964 82.512,-5.212 82.512,-3.708Z" style="fill-rule:nonzero;"/>
                <path d="M89.322,-5.838C89.39,-5.77 89.424,-5.68 89.424,-5.568L89.424,-0.336C89.424,0.512 89.214,1.154 88.794,1.59C88.374,2.026 87.752,2.244 86.928,2.244C86.496,2.244 86.11,2.202 85.77,2.118C85.43,2.034 85.112,1.904 84.816,1.728C84.528,1.552 84.384,1.38 84.384,1.212C84.384,1.124 84.41,1.052 84.462,0.996C84.514,0.94 84.58,0.912 84.66,0.912C84.708,0.912 84.774,0.934 84.858,0.978C84.942,1.022 85,1.052 85.032,1.068C85.304,1.22 85.584,1.346 85.872,1.446C86.16,1.546 86.516,1.596 86.94,1.596C87.524,1.596 87.964,1.44 88.26,1.128C88.556,0.816 88.704,0.352 88.704,-0.264L88.704,-1.404C88.536,-1.012 88.278,-0.71 87.93,-0.498C87.582,-0.286 87.16,-0.18 86.664,-0.18C86.152,-0.18 85.698,-0.3 85.302,-0.54C84.906,-0.78 84.598,-1.12 84.378,-1.56C84.158,-2 84.048,-2.504 84.048,-3.072C84.048,-3.64 84.158,-4.144 84.378,-4.584C84.598,-5.024 84.906,-5.364 85.302,-5.604C85.698,-5.844 86.152,-5.964 86.664,-5.964C87.152,-5.964 87.568,-5.862 87.912,-5.658C88.256,-5.454 88.516,-5.156 88.692,-4.764L88.692,-5.568C88.692,-5.68 88.724,-5.77 88.788,-5.838C88.852,-5.906 88.94,-5.94 89.052,-5.94C89.164,-5.94 89.254,-5.906 89.322,-5.838ZM88.182,-1.428C88.522,-1.828 88.692,-2.376 88.692,-3.072C88.692,-3.768 88.52,-4.318 88.176,-4.722C87.832,-5.126 87.36,-5.328 86.76,-5.328C86.152,-5.328 85.676,-5.128 85.332,-4.728C84.988,-4.328 84.816,-3.776 84.816,-3.072C84.816,-2.368 84.988,-1.818 85.332,-1.422C85.676,-1.026 86.152,-0.828 86.76,-0.828C87.368,-0.828 87.842,-1.028 88.182,-1.428Z" style="fill-rule:nonzero;"/>
            </g>
            <g transform="matrix(1,0,0,1,771,473)">
                <path d="M2.064,-1.338C1.728,-1.526 1.462,-1.782 1.266,-2.106C1.07,-2.43 0.972,-2.788 0.972,-3.18C0.972,-3.548 1.066,-3.896 1.254,-4.224C1.442,-4.552 1.702,-4.816 2.034,-5.016C2.366,-5.216 2.736,-5.316 3.144,-5.316C3.528,-5.316 3.886,-5.222 4.218,-5.034C4.55,-4.846 4.816,-4.59 5.016,-4.266C5.216,-3.942 5.316,-3.58 5.316,-3.18C5.316,-2.796 5.218,-2.442 5.022,-2.118C4.826,-1.794 4.562,-1.536 4.23,-1.344C3.898,-1.152 3.536,-1.056 3.144,-1.056C2.76,-1.056 2.4,-1.15 2.064,-1.338Z" style="fill-rule:nonzero;"/>
                <path d="M17.568,-0.252C17.568,-0.164 17.532,-0.09 17.46,-0.03C17.388,0.03 17.304,0.06 17.208,0.06C17.144,0.06 17.082,0.04 17.022,0C16.962,-0.04 16.916,-0.096 16.884,-0.168L15.972,-2.256L11.316,-2.256L10.392,-0.168C10.32,-0.016 10.208,0.06 10.056,0.06C9.96,0.06 9.878,0.03 9.81,-0.03C9.742,-0.09 9.708,-0.168 9.708,-0.264C9.708,-0.32 9.716,-0.364 9.732,-0.396L13.236,-8.268C13.308,-8.444 13.44,-8.532 13.632,-8.532C13.72,-8.532 13.802,-8.508 13.878,-8.46C13.954,-8.412 14.008,-8.348 14.04,-8.268L17.532,-0.396C17.556,-0.348 17.568,-0.3 17.568,-0.252ZM11.592,-2.904L15.684,-2.904L13.644,-7.548L11.592,-2.904Z" style="fill-rule:nonzero;"/>
                <path d="M23.736,-3.708L23.736,-0.312C23.736,-0.2 23.704,-0.11 23.64,-0.042C23.576,0.026 23.488,0.06 23.376,0.06C23.264,0.06 23.174,0.026 23.106,-0.042C23.038,-0.11 23.004,-0.2 23.004,-0.312L23.004,-3.66C23.004,-4.236 22.888,-4.656 22.656,-4.92C22.424,-5.184 22.056,-5.316 21.552,-5.316C20.976,-5.316 20.514,-5.14 20.166,-4.788C19.818,-4.436 19.644,-3.964 19.644,-3.372L19.644,-0.312C19.644,-0.2 19.612,-0.11 19.548,-0.042C19.484,0.026 19.396,0.06 19.284,0.06C19.172,0.06 19.082,0.026 19.014,-0.042C18.946,-0.11 18.912,-0.2 18.912,-0.312L18.912,-5.568C18.912,-5.68 18.946,-5.77 19.014,-5.838C19.082,-5.906 19.172,-5.94 19.284,-5.94C19.388,-5.94 19.472,-5.908 19.536,-5.844C19.6,-5.78 19.632,-5.692 19.632,-5.58L19.632,-4.824C19.816,-5.192 20.082,-5.474 20.43,-5.67C20.778,-5.866 21.18,-5.964 21.636,-5.964C23.036,-5.964 23.736,-5.212 23.736,-3.708Z" style="fill-rule:nonzero;"/>
                <path d="M28.512,-0.24C28.512,-0.144 28.476,-0.068 28.404,-0.012C28.332,0.044 28.216,0.068 28.056,0.06L27.72,0.036C27.112,-0.004 26.662,-0.19 26.37,-0.522C26.078,-0.854 25.932,-1.36 25.932,-2.04L25.932,-5.232L25.02,-5.232C24.924,-5.232 24.848,-5.258 24.792,-5.31C24.736,-5.362 24.708,-5.432 24.708,-5.52C24.708,-5.608 24.736,-5.68 24.792,-5.736C24.848,-5.792 24.924,-5.82 25.02,-5.82L25.932,-5.82L25.932,-7.308C25.932,-7.428 25.964,-7.52 26.028,-7.584C26.092,-7.648 26.18,-7.68 26.292,-7.68C26.404,-7.68 26.494,-7.648 26.562,-7.584C26.63,-7.52 26.664,-7.428 26.664,-7.308L26.664,-5.82L28.116,-5.82C28.22,-5.82 28.3,-5.792 28.356,-5.736C28.412,-5.68 28.44,-5.608 28.44,-5.52C28.44,-5.432 28.412,-5.362 28.356,-5.31C28.3,-5.258 28.22,-5.232 28.116,-5.232L26.664,-5.232L26.664,-2.004C26.664,-1.508 26.76,-1.154 26.952,-0.942C27.144,-0.73 27.444,-0.608 27.852,-0.576L28.176,-0.552C28.4,-0.528 28.512,-0.424 28.512,-0.24Z" style="fill-rule:nonzero;"/>
                <path d="M29.67,-0.036C29.602,-0.1 29.568,-0.192 29.568,-0.312L29.568,-5.568C29.568,-5.688 29.602,-5.78 29.67,-5.844C29.738,-5.908 29.828,-5.94 29.94,-5.94C30.052,-5.94 30.14,-5.908 30.204,-5.844C30.268,-5.78 30.3,-5.688 30.3,-5.568L30.3,-0.312C30.3,-0.192 30.268,-0.1 30.204,-0.036C30.14,0.028 30.052,0.06 29.94,0.06C29.828,0.06 29.738,0.028 29.67,-0.036ZM29.55,-7.44C29.45,-7.536 29.4,-7.66 29.4,-7.812C29.4,-7.972 29.45,-8.1 29.55,-8.196C29.65,-8.292 29.78,-8.34 29.94,-8.34C30.1,-8.34 30.23,-8.292 30.33,-8.196C30.43,-8.1 30.48,-7.972 30.48,-7.812C30.48,-7.66 30.43,-7.536 30.33,-7.44C30.23,-7.344 30.1,-7.296 29.94,-7.296C29.78,-7.296 29.65,-7.344 29.55,-7.44Z" style="fill-rule:nonzero;"/>
                <path d="M32.19,-2.964C32.13,-3.02 32.1,-3.092 32.1,-3.18C32.1,-3.276 32.13,-3.354 32.19,-3.414C32.25,-3.474 32.332,-3.504 32.436,-3.504L35.16,-3.504C35.264,-3.504 35.346,-3.474 35.406,-3.414C35.466,-3.354 35.496,-3.276 35.496,-3.18C35.496,-3.092 35.466,-3.02 35.406,-2.964C35.346,-2.908 35.264,-2.88 35.16,-2.88L32.436,-2.88C32.332,-2.88 32.25,-2.908 32.19,-2.964Z" style="fill-rule:nonzero;"/>
                <path d="M45.21,-8.412C45.278,-8.34 45.312,-8.248 45.312,-8.136L45.312,-0.324C45.312,-0.212 45.28,-0.12 45.216,-0.048C45.152,0.024 45.064,0.06 44.952,0.06C44.84,0.06 44.756,0.026 44.7,-0.042C44.644,-0.11 44.616,-0.204 44.616,-0.324L44.616,-6.984L41.772,-1.488C41.676,-1.304 41.544,-1.212 41.376,-1.212C41.208,-1.212 41.076,-1.304 40.98,-1.488L38.112,-6.936L38.112,-0.324C38.112,-0.204 38.084,-0.11 38.028,-0.042C37.972,0.026 37.888,0.06 37.776,0.06C37.656,0.06 37.566,0.026 37.506,-0.042C37.446,-0.11 37.416,-0.204 37.416,-0.324L37.416,-8.136C37.416,-8.248 37.45,-8.34 37.518,-8.412C37.586,-8.484 37.68,-8.52 37.8,-8.52C37.944,-8.52 38.064,-8.428 38.16,-8.244L41.388,-2.052L44.568,-8.244C44.664,-8.428 44.784,-8.52 44.928,-8.52C45.048,-8.52 45.142,-8.484 45.21,-8.412Z" style="fill-rule:nonzero;"/>
                <path d="M51.246,-5.412C51.594,-5.044 51.768,-4.488 51.768,-3.744L51.768,-0.324C51.768,-0.212 51.736,-0.122 51.672,-0.054C51.608,0.014 51.52,0.048 51.408,0.048C51.296,0.048 51.208,0.014 51.144,-0.054C51.08,-0.122 51.048,-0.212 51.048,-0.324L51.048,-1.044C50.88,-0.684 50.636,-0.406 50.316,-0.21C49.996,-0.014 49.628,0.084 49.212,0.084C48.836,0.084 48.492,0.008 48.18,-0.144C47.868,-0.296 47.622,-0.508 47.442,-0.78C47.262,-1.052 47.172,-1.352 47.172,-1.68C47.172,-2.112 47.284,-2.448 47.508,-2.688C47.732,-2.928 48.104,-3.1 48.624,-3.204C49.144,-3.308 49.868,-3.36 50.796,-3.36L51.048,-3.36L51.048,-3.804C51.048,-4.332 50.94,-4.718 50.724,-4.962C50.508,-5.206 50.168,-5.328 49.704,-5.328C49.112,-5.328 48.548,-5.172 48.012,-4.86C47.988,-4.844 47.926,-4.802 47.826,-4.734C47.726,-4.666 47.64,-4.632 47.568,-4.632C47.488,-4.632 47.422,-4.662 47.37,-4.722C47.318,-4.782 47.292,-4.856 47.292,-4.944C47.292,-5.12 47.432,-5.292 47.712,-5.46C47.992,-5.62 48.304,-5.744 48.648,-5.832C48.992,-5.92 49.332,-5.964 49.668,-5.964C50.372,-5.964 50.898,-5.78 51.246,-5.412ZM50.55,-1.08C50.882,-1.432 51.048,-1.88 51.048,-2.424L51.048,-2.82L50.82,-2.82C50.052,-2.82 49.464,-2.788 49.056,-2.724C48.648,-2.66 48.36,-2.55 48.192,-2.394C48.024,-2.238 47.94,-2.012 47.94,-1.716C47.94,-1.38 48.068,-1.102 48.324,-0.882C48.58,-0.662 48.896,-0.552 49.272,-0.552C49.792,-0.552 50.218,-0.728 50.55,-1.08Z" style="fill-rule:nonzero;"/>
                <path d="M53.778,-0.036C53.71,-0.1 53.676,-0.192 53.676,-0.312L53.676,-8.148C53.676,-8.268 53.71,-8.36 53.778,-8.424C53.846,-8.488 53.936,-8.52 54.048,-8.52C54.152,-8.52 54.238,-8.488 54.306,-8.424C54.374,-8.36 54.408,-8.268 54.408,-8.148L54.408,-0.312C54.408,-0.192 54.374,-0.1 54.306,-0.036C54.238,0.028 54.152,0.06 54.048,0.06C53.936,0.06 53.846,0.028 53.778,-0.036Z" style="fill-rule:nonzero;"/>
                <path d="M64.656,-5.928C64.752,-5.928 64.836,-5.896 64.908,-5.832C64.98,-5.768 65.016,-5.688 65.016,-5.592C65.016,-5.576 65.008,-5.536 64.992,-5.472L62.988,-0.24C62.956,-0.152 62.902,-0.084 62.826,-0.036C62.75,0.012 62.668,0.036 62.58,0.036C62.492,0.036 62.41,0.012 62.334,-0.036C62.258,-0.084 62.204,-0.152 62.172,-0.24L60.396,-4.824L58.632,-0.24C58.6,-0.152 58.546,-0.084 58.47,-0.036C58.394,0.012 58.312,0.036 58.224,0.036C58.136,0.036 58.054,0.012 57.978,-0.036C57.902,-0.084 57.848,-0.152 57.816,-0.24L55.8,-5.46C55.784,-5.508 55.776,-5.548 55.776,-5.58C55.776,-5.676 55.818,-5.76 55.902,-5.832C55.986,-5.904 56.076,-5.94 56.172,-5.94C56.324,-5.94 56.428,-5.864 56.484,-5.712L58.236,-0.96L60.048,-5.676C60.08,-5.764 60.132,-5.832 60.204,-5.88C60.276,-5.928 60.348,-5.952 60.42,-5.952C60.5,-5.952 60.574,-5.928 60.642,-5.88C60.71,-5.832 60.76,-5.764 60.792,-5.676L62.58,-0.972L64.356,-5.7C64.412,-5.852 64.512,-5.928 64.656,-5.928Z" style="fill-rule:nonzero;"/>
                <path d="M70.134,-5.412C70.482,-5.044 70.656,-4.488 70.656,-3.744L70.656,-0.324C70.656,-0.212 70.624,-0.122 70.56,-0.054C70.496,0.014 70.408,0.048 70.296,0.048C70.184,0.048 70.096,0.014 70.032,-0.054C69.968,-0.122 69.936,-0.212 69.936,-0.324L69.936,-1.044C69.768,-0.684 69.524,-0.406 69.204,-0.21C68.884,-0.014 68.516,0.084 68.1,0.084C67.724,0.084 67.38,0.008 67.068,-0.144C66.756,-0.296 66.51,-0.508 66.33,-0.78C66.15,-1.052 66.06,-1.352 66.06,-1.68C66.06,-2.112 66.172,-2.448 66.396,-2.688C66.62,-2.928 66.992,-3.1 67.512,-3.204C68.032,-3.308 68.756,-3.36 69.684,-3.36L69.936,-3.36L69.936,-3.804C69.936,-4.332 69.828,-4.718 69.612,-4.962C69.396,-5.206 69.056,-5.328 68.592,-5.328C68,-5.328 67.436,-5.172 66.9,-4.86C66.876,-4.844 66.814,-4.802 66.714,-4.734C66.614,-4.666 66.528,-4.632 66.456,-4.632C66.376,-4.632 66.31,-4.662 66.258,-4.722C66.206,-4.782 66.18,-4.856 66.18,-4.944C66.18,-5.12 66.32,-5.292 66.6,-5.46C66.88,-5.62 67.192,-5.744 67.536,-5.832C67.88,-5.92 68.22,-5.964 68.556,-5.964C69.26,-5.964 69.786,-5.78 70.134,-5.412ZM69.438,-1.08C69.77,-1.432 69.936,-1.88 69.936,-2.424L69.936,-2.82L69.708,-2.82C68.94,-2.82 68.352,-2.788 67.944,-2.724C67.536,-2.66 67.248,-2.55 67.08,-2.394C66.912,-2.238 66.828,-2.012 66.828,-1.716C66.828,-1.38 66.956,-1.102 67.212,-0.882C67.468,-0.662 67.784,-0.552 68.16,-0.552C68.68,-0.552 69.106,-0.728 69.438,-1.08Z" style="fill-rule:nonzero;"/>
                <path d="M75.6,-5.88C75.664,-5.832 75.696,-5.752 75.696,-5.64C75.696,-5.44 75.576,-5.328 75.336,-5.304L74.976,-5.268C74.408,-5.212 73.986,-5.008 73.71,-4.656C73.434,-4.304 73.296,-3.892 73.296,-3.42L73.296,-0.312C73.296,-0.192 73.264,-0.1 73.2,-0.036C73.136,0.028 73.048,0.06 72.936,0.06C72.824,0.06 72.734,0.028 72.666,-0.036C72.598,-0.1 72.564,-0.192 72.564,-0.312L72.564,-5.568C72.564,-5.688 72.598,-5.78 72.666,-5.844C72.734,-5.908 72.824,-5.94 72.936,-5.94C73.04,-5.94 73.124,-5.908 73.188,-5.844C73.252,-5.78 73.284,-5.692 73.284,-5.58L73.284,-4.8C73.612,-5.488 74.22,-5.864 75.108,-5.928L75.276,-5.94C75.428,-5.948 75.536,-5.928 75.6,-5.88Z" style="fill-rule:nonzero;"/>
                <path d="M81.162,-1.158C81.214,-1.098 81.24,-1.028 81.24,-0.948C81.24,-0.772 81.104,-0.6 80.832,-0.432C80.256,-0.088 79.648,0.084 79.008,0.084C78.12,0.084 77.42,-0.184 76.908,-0.72C76.396,-1.256 76.14,-1.992 76.14,-2.928C76.14,-3.528 76.254,-4.058 76.482,-4.518C76.71,-4.978 77.03,-5.334 77.442,-5.586C77.854,-5.838 78.328,-5.964 78.864,-5.964C79.616,-5.964 80.21,-5.722 80.646,-5.238C81.082,-4.754 81.3,-4.088 81.3,-3.24C81.3,-3.096 81.268,-2.99 81.204,-2.922C81.14,-2.854 81.036,-2.82 80.892,-2.82L76.896,-2.82C76.92,-2.084 77.112,-1.524 77.472,-1.14C77.832,-0.756 78.34,-0.564 78.996,-0.564C79.34,-0.564 79.628,-0.61 79.86,-0.702C80.092,-0.794 80.34,-0.916 80.604,-1.068C80.78,-1.188 80.904,-1.248 80.976,-1.248C81.048,-1.248 81.11,-1.218 81.162,-1.158ZM77.52,-4.836C77.184,-4.484 76.984,-3.992 76.92,-3.36L80.628,-3.36C80.612,-4 80.452,-4.494 80.148,-4.842C79.844,-5.19 79.416,-5.364 78.864,-5.364C78.304,-5.364 77.856,-5.188 77.52,-4.836Z" style="fill-rule:nonzero;"/>
            </g>
            <g transform="matrix(1,0,0,1,771,489)">
                <path d="M2.064,-1.338C1.728,-1.526 1.462,-1.782 1.266,-2.106C1.07,-2.43 0.972,-2.788 0.972,-3.18C0.972,-3.548 1.066,-3.896 1.254,-4.224C1.442,-4.552 1.702,-4.816 2.034,-5.016C2.366,-5.216 2.736,-5.316 3.144,-5.316C3.528,-5.316 3.886,-5.222 4.218,-5.034C4.55,-4.846 4.816,-4.59 5.016,-4.266C5.216,-3.942 5.316,-3.58 5.316,-3.18C5.316,-2.796 5.218,-2.442 5.022,-2.118C4.826,-1.794 4.562,-1.536 4.23,-1.344C3.898,-1.152 3.536,-1.056 3.144,-1.056C2.76,-1.056 2.4,-1.15 2.064,-1.338Z" style="fill-rule:nonzero;"/>
                <path d="M10.506,-0.048C10.438,-0.12 10.404,-0.212 10.404,-0.324L10.404,-8.136C10.404,-8.248 10.438,-8.34 10.506,-8.412C10.574,-8.484 10.664,-8.52 10.776,-8.52C10.888,-8.52 10.978,-8.484 11.046,-8.412C11.114,-8.34 11.148,-8.248 11.148,-8.136L11.148,-0.324C11.148,-0.212 11.114,-0.12 11.046,-0.048C10.978,0.024 10.888,0.06 10.776,0.06C10.664,0.06 10.574,0.024 10.506,-0.048Z" style="fill-rule:nonzero;"/>
                <path d="M18.024,-3.708L18.024,-0.312C18.024,-0.2 17.992,-0.11 17.928,-0.042C17.864,0.026 17.776,0.06 17.664,0.06C17.552,0.06 17.462,0.026 17.394,-0.042C17.326,-0.11 17.292,-0.2 17.292,-0.312L17.292,-3.66C17.292,-4.236 17.176,-4.656 16.944,-4.92C16.712,-5.184 16.344,-5.316 15.84,-5.316C15.264,-5.316 14.802,-5.14 14.454,-4.788C14.106,-4.436 13.932,-3.964 13.932,-3.372L13.932,-0.312C13.932,-0.2 13.9,-0.11 13.836,-0.042C13.772,0.026 13.684,0.06 13.572,0.06C13.46,0.06 13.37,0.026 13.302,-0.042C13.234,-0.11 13.2,-0.2 13.2,-0.312L13.2,-5.568C13.2,-5.68 13.234,-5.77 13.302,-5.838C13.37,-5.906 13.46,-5.94 13.572,-5.94C13.676,-5.94 13.76,-5.908 13.824,-5.844C13.888,-5.78 13.92,-5.692 13.92,-5.58L13.92,-4.824C14.104,-5.192 14.37,-5.474 14.718,-5.67C15.066,-5.866 15.468,-5.964 15.924,-5.964C17.324,-5.964 18.024,-5.212 18.024,-3.708Z" style="fill-rule:nonzero;"/>
                <path d="M22.8,-0.24C22.8,-0.144 22.764,-0.068 22.692,-0.012C22.62,0.044 22.504,0.068 22.344,0.06L22.008,0.036C21.4,-0.004 20.95,-0.19 20.658,-0.522C20.366,-0.854 20.22,-1.36 20.22,-2.04L20.22,-5.232L19.308,-5.232C19.212,-5.232 19.136,-5.258 19.08,-5.31C19.024,-5.362 18.996,-5.432 18.996,-5.52C18.996,-5.608 19.024,-5.68 19.08,-5.736C19.136,-5.792 19.212,-5.82 19.308,-5.82L20.22,-5.82L20.22,-7.308C20.22,-7.428 20.252,-7.52 20.316,-7.584C20.38,-7.648 20.468,-7.68 20.58,-7.68C20.692,-7.68 20.782,-7.648 20.85,-7.584C20.918,-7.52 20.952,-7.428 20.952,-7.308L20.952,-5.82L22.404,-5.82C22.508,-5.82 22.588,-5.792 22.644,-5.736C22.7,-5.68 22.728,-5.608 22.728,-5.52C22.728,-5.432 22.7,-5.362 22.644,-5.31C22.588,-5.258 22.508,-5.232 22.404,-5.232L20.952,-5.232L20.952,-2.004C20.952,-1.508 21.048,-1.154 21.24,-0.942C21.432,-0.73 21.732,-0.608 22.14,-0.576L22.464,-0.552C22.688,-0.528 22.8,-0.424 22.8,-0.24Z" style="fill-rule:nonzero;"/>
                <path d="M26.892,-5.88C26.956,-5.832 26.988,-5.752 26.988,-5.64C26.988,-5.44 26.868,-5.328 26.628,-5.304L26.268,-5.268C25.7,-5.212 25.278,-5.008 25.002,-4.656C24.726,-4.304 24.588,-3.892 24.588,-3.42L24.588,-0.312C24.588,-0.192 24.556,-0.1 24.492,-0.036C24.428,0.028 24.34,0.06 24.228,0.06C24.116,0.06 24.026,0.028 23.958,-0.036C23.89,-0.1 23.856,-0.192 23.856,-0.312L23.856,-5.568C23.856,-5.688 23.89,-5.78 23.958,-5.844C24.026,-5.908 24.116,-5.94 24.228,-5.94C24.332,-5.94 24.416,-5.908 24.48,-5.844C24.544,-5.78 24.576,-5.692 24.576,-5.58L24.576,-4.8C24.904,-5.488 25.512,-5.864 26.4,-5.928L26.568,-5.94C26.72,-5.948 26.828,-5.928 26.892,-5.88Z" style="fill-rule:nonzero;"/>
                <path d="M32.538,-5.838C32.606,-5.77 32.64,-5.68 32.64,-5.568L32.64,-0.312C32.64,-0.2 32.606,-0.11 32.538,-0.042C32.47,0.026 32.38,0.06 32.268,0.06C32.164,0.06 32.08,0.026 32.016,-0.042C31.952,-0.11 31.92,-0.2 31.92,-0.312L31.92,-1.044C31.736,-0.676 31.474,-0.396 31.134,-0.204C30.794,-0.012 30.408,0.084 29.976,0.084C29.288,0.084 28.77,-0.106 28.422,-0.486C28.074,-0.866 27.9,-1.428 27.9,-2.172L27.9,-5.568C27.9,-5.68 27.934,-5.77 28.002,-5.838C28.07,-5.906 28.16,-5.94 28.272,-5.94C28.384,-5.94 28.472,-5.906 28.536,-5.838C28.6,-5.77 28.632,-5.68 28.632,-5.568L28.632,-2.22C28.632,-1.652 28.746,-1.234 28.974,-0.966C29.202,-0.698 29.56,-0.564 30.048,-0.564C30.608,-0.564 31.058,-0.742 31.398,-1.098C31.738,-1.454 31.908,-1.928 31.908,-2.52L31.908,-5.568C31.908,-5.68 31.94,-5.77 32.004,-5.838C32.068,-5.906 32.156,-5.94 32.268,-5.94C32.38,-5.94 32.47,-5.906 32.538,-5.838Z" style="fill-rule:nonzero;"/>
                <path d="M35.454,-0.054C35.13,-0.146 34.844,-0.272 34.596,-0.432C34.444,-0.536 34.338,-0.626 34.278,-0.702C34.218,-0.778 34.188,-0.864 34.188,-0.96C34.188,-1.04 34.214,-1.108 34.266,-1.164C34.318,-1.22 34.38,-1.248 34.452,-1.248C34.524,-1.248 34.648,-1.188 34.824,-1.068C35.056,-0.916 35.294,-0.792 35.538,-0.696C35.782,-0.6 36.088,-0.552 36.456,-0.552C36.928,-0.552 37.296,-0.638 37.56,-0.81C37.824,-0.982 37.956,-1.228 37.956,-1.548C37.956,-1.74 37.908,-1.898 37.812,-2.022C37.716,-2.146 37.556,-2.254 37.332,-2.346C37.108,-2.438 36.788,-2.528 36.372,-2.616C35.66,-2.776 35.154,-2.982 34.854,-3.234C34.554,-3.486 34.404,-3.824 34.404,-4.248C34.404,-4.76 34.604,-5.174 35.004,-5.49C35.404,-5.806 35.924,-5.964 36.564,-5.964C36.876,-5.964 37.174,-5.924 37.458,-5.844C37.742,-5.764 37.988,-5.648 38.196,-5.496C38.476,-5.304 38.616,-5.116 38.616,-4.932C38.616,-4.852 38.59,-4.782 38.538,-4.722C38.486,-4.662 38.424,-4.632 38.352,-4.632C38.272,-4.632 38.148,-4.696 37.98,-4.824C37.764,-4.976 37.55,-5.098 37.338,-5.19C37.126,-5.282 36.856,-5.328 36.528,-5.328C36.112,-5.328 35.78,-5.234 35.532,-5.046C35.284,-4.858 35.16,-4.604 35.16,-4.284C35.16,-4.1 35.202,-3.948 35.286,-3.828C35.37,-3.708 35.514,-3.602 35.718,-3.51C35.922,-3.418 36.216,-3.328 36.6,-3.24C37.152,-3.112 37.576,-2.976 37.872,-2.832C38.168,-2.688 38.38,-2.516 38.508,-2.316C38.636,-2.116 38.7,-1.86 38.7,-1.548C38.7,-1.06 38.494,-0.666 38.082,-0.366C37.67,-0.066 37.124,0.084 36.444,0.084C36.108,0.084 35.778,0.038 35.454,-0.054Z" style="fill-rule:nonzero;"/>
                <path d="M40.398,-0.036C40.33,-0.1 40.296,-0.192 40.296,-0.312L40.296,-5.568C40.296,-5.688 40.33,-5.78 40.398,-5.844C40.466,-5.908 40.556,-5.94 40.668,-5.94C40.78,-5.94 40.868,-5.908 40.932,-5.844C40.996,-5.78 41.028,-5.688 41.028,-5.568L41.028,-0.312C41.028,-0.192 40.996,-0.1 40.932,-0.036C40.868,0.028 40.78,0.06 40.668,0.06C40.556,0.06 40.466,0.028 40.398,-0.036ZM40.278,-7.44C40.178,-7.536 40.128,-7.66 40.128,-7.812C40.128,-7.972 40.178,-8.1 40.278,-8.196C40.378,-8.292 40.508,-8.34 40.668,-8.34C40.828,-8.34 40.958,-8.292 41.058,-8.196C41.158,-8.1 41.208,-7.972 41.208,-7.812C41.208,-7.66 41.158,-7.536 41.058,-7.44C40.958,-7.344 40.828,-7.296 40.668,-7.296C40.508,-7.296 40.378,-7.344 40.278,-7.44Z" style="fill-rule:nonzero;"/>
                <path d="M43.866,-0.288C43.462,-0.536 43.148,-0.888 42.924,-1.344C42.7,-1.8 42.588,-2.332 42.588,-2.94C42.588,-3.548 42.7,-4.08 42.924,-4.536C43.148,-4.992 43.462,-5.344 43.866,-5.592C44.27,-5.84 44.74,-5.964 45.276,-5.964C45.804,-5.964 46.272,-5.84 46.68,-5.592C47.088,-5.344 47.402,-4.992 47.622,-4.536C47.842,-4.08 47.952,-3.548 47.952,-2.94C47.952,-2.332 47.842,-1.8 47.622,-1.344C47.402,-0.888 47.088,-0.536 46.68,-0.288C46.272,-0.04 45.804,0.084 45.276,0.084C44.74,0.084 44.27,-0.04 43.866,-0.288ZM46.692,-1.176C47.028,-1.584 47.196,-2.172 47.196,-2.94C47.196,-3.692 47.026,-4.278 46.686,-4.698C46.346,-5.118 45.876,-5.328 45.276,-5.328C44.668,-5.328 44.196,-5.118 43.86,-4.698C43.524,-4.278 43.356,-3.692 43.356,-2.94C43.356,-2.172 43.52,-1.584 43.848,-1.176C44.176,-0.768 44.648,-0.564 45.264,-0.564C45.88,-0.564 46.356,-0.768 46.692,-1.176Z" style="fill-rule:nonzero;"/>
                <path d="M54.324,-3.708L54.324,-0.312C54.324,-0.2 54.292,-0.11 54.228,-0.042C54.164,0.026 54.076,0.06 53.964,0.06C53.852,0.06 53.762,0.026 53.694,-0.042C53.626,-0.11 53.592,-0.2 53.592,-0.312L53.592,-3.66C53.592,-4.236 53.476,-4.656 53.244,-4.92C53.012,-5.184 52.644,-5.316 52.14,-5.316C51.564,-5.316 51.102,-5.14 50.754,-4.788C50.406,-4.436 50.232,-3.964 50.232,-3.372L50.232,-0.312C50.232,-0.2 50.2,-0.11 50.136,-0.042C50.072,0.026 49.984,0.06 49.872,0.06C49.76,0.06 49.67,0.026 49.602,-0.042C49.534,-0.11 49.5,-0.2 49.5,-0.312L49.5,-5.568C49.5,-5.68 49.534,-5.77 49.602,-5.838C49.67,-5.906 49.76,-5.94 49.872,-5.94C49.976,-5.94 50.06,-5.908 50.124,-5.844C50.188,-5.78 50.22,-5.692 50.22,-5.58L50.22,-4.824C50.404,-5.192 50.67,-5.474 51.018,-5.67C51.366,-5.866 51.768,-5.964 52.224,-5.964C53.624,-5.964 54.324,-5.212 54.324,-3.708Z" style="fill-rule:nonzero;"/>
                <path d="M59.49,-0.042C59.422,-0.11 59.388,-0.204 59.388,-0.324L59.388,-8.088C59.388,-8.192 59.426,-8.28 59.502,-8.352C59.578,-8.424 59.672,-8.46 59.784,-8.46L62.592,-8.46C63.472,-8.46 64.154,-8.248 64.638,-7.824C65.122,-7.4 65.364,-6.8 65.364,-6.024C65.364,-5.24 65.12,-4.634 64.632,-4.206C64.144,-3.778 63.464,-3.564 62.592,-3.564L60.132,-3.564L60.132,-0.324C60.132,-0.204 60.098,-0.11 60.03,-0.042C59.962,0.026 59.872,0.06 59.76,0.06C59.648,0.06 59.558,0.026 59.49,-0.042ZM62.544,-4.2C63.928,-4.2 64.62,-4.808 64.62,-6.024C64.62,-7.224 63.928,-7.824 62.544,-7.824L60.132,-7.824L60.132,-4.2L62.544,-4.2Z" style="fill-rule:nonzero;"/>
                <path d="M69.828,-5.88C69.892,-5.832 69.924,-5.752 69.924,-5.64C69.924,-5.44 69.804,-5.328 69.564,-5.304L69.204,-5.268C68.636,-5.212 68.214,-5.008 67.938,-4.656C67.662,-4.304 67.524,-3.892 67.524,-3.42L67.524,-0.312C67.524,-0.192 67.492,-0.1 67.428,-0.036C67.364,0.028 67.276,0.06 67.164,0.06C67.052,0.06 66.962,0.028 66.894,-0.036C66.826,-0.1 66.792,-0.192 66.792,-0.312L66.792,-5.568C66.792,-5.688 66.826,-5.78 66.894,-5.844C66.962,-5.908 67.052,-5.94 67.164,-5.94C67.268,-5.94 67.352,-5.908 67.416,-5.844C67.48,-5.78 67.512,-5.692 67.512,-5.58L67.512,-4.8C67.84,-5.488 68.448,-5.864 69.336,-5.928L69.504,-5.94C69.656,-5.948 69.764,-5.928 69.828,-5.88Z" style="fill-rule:nonzero;"/>
                <path d="M75.39,-1.158C75.442,-1.098 75.468,-1.028 75.468,-0.948C75.468,-0.772 75.332,-0.6 75.06,-0.432C74.484,-0.088 73.876,0.084 73.236,0.084C72.348,0.084 71.648,-0.184 71.136,-0.72C70.624,-1.256 70.368,-1.992 70.368,-2.928C70.368,-3.528 70.482,-4.058 70.71,-4.518C70.938,-4.978 71.258,-5.334 71.67,-5.586C72.082,-5.838 72.556,-5.964 73.092,-5.964C73.844,-5.964 74.438,-5.722 74.874,-5.238C75.31,-4.754 75.528,-4.088 75.528,-3.24C75.528,-3.096 75.496,-2.99 75.432,-2.922C75.368,-2.854 75.264,-2.82 75.12,-2.82L71.124,-2.82C71.148,-2.084 71.34,-1.524 71.7,-1.14C72.06,-0.756 72.568,-0.564 73.224,-0.564C73.568,-0.564 73.856,-0.61 74.088,-0.702C74.32,-0.794 74.568,-0.916 74.832,-1.068C75.008,-1.188 75.132,-1.248 75.204,-1.248C75.276,-1.248 75.338,-1.218 75.39,-1.158ZM71.748,-4.836C71.412,-4.484 71.212,-3.992 71.148,-3.36L74.856,-3.36C74.84,-4 74.68,-4.494 74.376,-4.842C74.072,-5.19 73.644,-5.364 73.092,-5.364C72.532,-5.364 72.084,-5.188 71.748,-4.836Z" style="fill-rule:nonzero;"/>
                <path d="M81.576,-5.94C81.664,-5.94 81.744,-5.908 81.816,-5.844C81.888,-5.78 81.924,-5.704 81.924,-5.616C81.924,-5.56 81.912,-5.508 81.888,-5.46L79.512,-0.24C79.472,-0.152 79.414,-0.084 79.338,-0.036C79.262,0.012 79.18,0.036 79.092,0.036C78.996,0.036 78.91,0.012 78.834,-0.036C78.758,-0.084 78.7,-0.152 78.66,-0.24L76.272,-5.46C76.248,-5.508 76.236,-5.556 76.236,-5.604C76.236,-5.7 76.278,-5.782 76.362,-5.85C76.446,-5.918 76.536,-5.952 76.632,-5.952C76.784,-5.952 76.888,-5.88 76.944,-5.736L79.104,-0.888L81.264,-5.724C81.328,-5.868 81.432,-5.94 81.576,-5.94Z" style="fill-rule:nonzero;"/>
                <path d="M87.69,-1.158C87.742,-1.098 87.768,-1.028 87.768,-0.948C87.768,-0.772 87.632,-0.6 87.36,-0.432C86.784,-0.088 86.176,0.084 85.536,0.084C84.648,0.084 83.948,-0.184 83.436,-0.72C82.924,-1.256 82.668,-1.992 82.668,-2.928C82.668,-3.528 82.782,-4.058 83.01,-4.518C83.238,-4.978 83.558,-5.334 83.97,-5.586C84.382,-5.838 84.856,-5.964 85.392,-5.964C86.144,-5.964 86.738,-5.722 87.174,-5.238C87.61,-4.754 87.828,-4.088 87.828,-3.24C87.828,-3.096 87.796,-2.99 87.732,-2.922C87.668,-2.854 87.564,-2.82 87.42,-2.82L83.424,-2.82C83.448,-2.084 83.64,-1.524 84,-1.14C84.36,-0.756 84.868,-0.564 85.524,-0.564C85.868,-0.564 86.156,-0.61 86.388,-0.702C86.62,-0.794 86.868,-0.916 87.132,-1.068C87.308,-1.188 87.432,-1.248 87.504,-1.248C87.576,-1.248 87.638,-1.218 87.69,-1.158ZM84.048,-4.836C83.712,-4.484 83.512,-3.992 83.448,-3.36L87.156,-3.36C87.14,-4 86.98,-4.494 86.676,-4.842C86.372,-5.19 85.944,-5.364 85.392,-5.364C84.832,-5.364 84.384,-5.188 84.048,-4.836Z" style="fill-rule:nonzero;"/>
                <path d="M94.176,-3.708L94.176,-0.312C94.176,-0.2 94.144,-0.11 94.08,-0.042C94.016,0.026 93.928,0.06 93.816,0.06C93.704,0.06 93.614,0.026 93.546,-0.042C93.478,-0.11 93.444,-0.2 93.444,-0.312L93.444,-3.66C93.444,-4.236 93.328,-4.656 93.096,-4.92C92.864,-5.184 92.496,-5.316 91.992,-5.316C91.416,-5.316 90.954,-5.14 90.606,-4.788C90.258,-4.436 90.084,-3.964 90.084,-3.372L90.084,-0.312C90.084,-0.2 90.052,-0.11 89.988,-0.042C89.924,0.026 89.836,0.06 89.724,0.06C89.612,0.06 89.522,0.026 89.454,-0.042C89.386,-0.11 89.352,-0.2 89.352,-0.312L89.352,-5.568C89.352,-5.68 89.386,-5.77 89.454,-5.838C89.522,-5.906 89.612,-5.94 89.724,-5.94C89.828,-5.94 89.912,-5.908 89.976,-5.844C90.04,-5.78 90.072,-5.692 90.072,-5.58L90.072,-4.824C90.256,-5.192 90.522,-5.474 90.87,-5.67C91.218,-5.866 91.62,-5.964 92.076,-5.964C93.476,-5.964 94.176,-5.212 94.176,-3.708Z" style="fill-rule:nonzero;"/>
                <path d="M98.952,-0.24C98.952,-0.144 98.916,-0.068 98.844,-0.012C98.772,0.044 98.656,0.068 98.496,0.06L98.16,0.036C97.552,-0.004 97.102,-0.19 96.81,-0.522C96.518,-0.854 96.372,-1.36 96.372,-2.04L96.372,-5.232L95.46,-5.232C95.364,-5.232 95.288,-5.258 95.232,-5.31C95.176,-5.362 95.148,-5.432 95.148,-5.52C95.148,-5.608 95.176,-5.68 95.232,-5.736C95.288,-5.792 95.364,-5.82 95.46,-5.82L96.372,-5.82L96.372,-7.308C96.372,-7.428 96.404,-7.52 96.468,-7.584C96.532,-7.648 96.62,-7.68 96.732,-7.68C96.844,-7.68 96.934,-7.648 97.002,-7.584C97.07,-7.52 97.104,-7.428 97.104,-7.308L97.104,-5.82L98.556,-5.82C98.66,-5.82 98.74,-5.792 98.796,-5.736C98.852,-5.68 98.88,-5.608 98.88,-5.52C98.88,-5.432 98.852,-5.362 98.796,-5.31C98.74,-5.258 98.66,-5.232 98.556,-5.232L97.104,-5.232L97.104,-2.004C97.104,-1.508 97.2,-1.154 97.392,-0.942C97.584,-0.73 97.884,-0.608 98.292,-0.576L98.616,-0.552C98.84,-0.528 98.952,-0.424 98.952,-0.24Z" style="fill-rule:nonzero;"/>
                <path d="M100.11,-0.036C100.042,-0.1 100.008,-0.192 100.008,-0.312L100.008,-5.568C100.008,-5.688 100.042,-5.78 100.11,-5.844C100.178,-5.908 100.268,-5.94 100.38,-5.94C100.492,-5.94 100.58,-5.908 100.644,-5.844C100.708,-5.78 100.74,-5.688 100.74,-5.568L100.74,-0.312C100.74,-0.192 100.708,-0.1 100.644,-0.036C100.58,0.028 100.492,0.06 100.38,0.06C100.268,0.06 100.178,0.028 100.11,-0.036ZM99.99,-7.44C99.89,-7.536 99.84,-7.66 99.84,-7.812C99.84,-7.972 99.89,-8.1 99.99,-8.196C100.09,-8.292 100.22,-8.34 100.38,-8.34C100.54,-8.34 100.67,-8.292 100.77,-8.196C100.87,-8.1 100.92,-7.972 100.92,-7.812C100.92,-7.66 100.87,-7.536 100.77,-7.44C100.67,-7.344 100.54,-7.296 100.38,-7.296C100.22,-7.296 100.09,-7.344 99.99,-7.44Z" style="fill-rule:nonzero;"/>
                <path d="M103.578,-0.288C103.174,-0.536 102.86,-0.888 102.636,-1.344C102.412,-1.8 102.3,-2.332 102.3,-2.94C102.3,-3.548 102.412,-4.08 102.636,-4.536C102.86,-4.992 103.174,-5.344 103.578,-5.592C103.982,-5.84 104.452,-5.964 104.988,-5.964C105.516,-5.964 105.984,-5.84 106.392,-5.592C106.8,-5.344 107.114,-4.992 107.334,-4.536C107.554,-4.08 107.664,-3.548 107.664,-2.94C107.664,-2.332 107.554,-1.8 107.334,-1.344C107.114,-0.888 106.8,-0.536 106.392,-0.288C105.984,-0.04 105.516,0.084 104.988,0.084C104.452,0.084 103.982,-0.04 103.578,-0.288ZM106.404,-1.176C106.74,-1.584 106.908,-2.172 106.908,-2.94C106.908,-3.692 106.738,-4.278 106.398,-4.698C106.058,-5.118 105.588,-5.328 104.988,-5.328C104.38,-5.328 103.908,-5.118 103.572,-4.698C103.236,-4.278 103.068,-3.692 103.068,-2.94C103.068,-2.172 103.232,-1.584 103.56,-1.176C103.888,-0.768 104.36,-0.564 104.976,-0.564C105.592,-0.564 106.068,-0.768 106.404,-1.176Z" style="fill-rule:nonzero;"/>
                <path d="M114.036,-3.708L114.036,-0.312C114.036,-0.2 114.004,-0.11 113.94,-0.042C113.876,0.026 113.788,0.06 113.676,0.06C113.564,0.06 113.474,0.026 113.406,-0.042C113.338,-0.11 113.304,-0.2 113.304,-0.312L113.304,-3.66C113.304,-4.236 113.188,-4.656 112.956,-4.92C112.724,-5.184 112.356,-5.316 111.852,-5.316C111.276,-5.316 110.814,-5.14 110.466,-4.788C110.118,-4.436 109.944,-3.964 109.944,-3.372L109.944,-0.312C109.944,-0.2 109.912,-0.11 109.848,-0.042C109.784,0.026 109.696,0.06 109.584,0.06C109.472,0.06 109.382,0.026 109.314,-0.042C109.246,-0.11 109.212,-0.2 109.212,-0.312L109.212,-5.568C109.212,-5.68 109.246,-5.77 109.314,-5.838C109.382,-5.906 109.472,-5.94 109.584,-5.94C109.688,-5.94 109.772,-5.908 109.836,-5.844C109.9,-5.78 109.932,-5.692 109.932,-5.58L109.932,-4.824C110.116,-5.192 110.382,-5.474 110.73,-5.67C111.078,-5.866 111.48,-5.964 111.936,-5.964C113.336,-5.964 114.036,-5.212 114.036,-3.708Z" style="fill-rule:nonzero;"/>
            </g>
            <g transform="matrix(1,0,0,1,771,505)">
                <path d="M2.064,-1.338C1.728,-1.526 1.462,-1.782 1.266,-2.106C1.07,-2.43 0.972,-2.788 0.972,-3.18C0.972,-3.548 1.066,-3.896 1.254,-4.224C1.442,-4.552 1.702,-4.816 2.034,-5.016C2.366,-5.216 2.736,-5.316 3.144,-5.316C3.528,-5.316 3.886,-5.222 4.218,-5.034C4.55,-4.846 4.816,-4.59 5.016,-4.266C5.216,-3.942 5.316,-3.58 5.316,-3.18C5.316,-2.796 5.218,-2.442 5.022,-2.118C4.826,-1.794 4.562,-1.536 4.23,-1.344C3.898,-1.152 3.536,-1.056 3.144,-1.056C2.76,-1.056 2.4,-1.15 2.064,-1.338Z" style="fill-rule:nonzero;"/>
                <path d="M11.298,-0.186C10.75,-0.374 10.32,-0.628 10.008,-0.948C9.904,-1.036 9.852,-1.152 9.852,-1.296C9.852,-1.384 9.878,-1.46 9.93,-1.524C9.982,-1.588 10.04,-1.62 10.104,-1.62C10.184,-1.62 10.276,-1.58 10.38,-1.5C11.132,-0.876 12.008,-0.564 13.008,-0.564C13.736,-0.564 14.298,-0.71 14.694,-1.002C15.09,-1.294 15.288,-1.708 15.288,-2.244C15.288,-2.556 15.192,-2.808 15,-3C14.808,-3.192 14.564,-3.342 14.268,-3.45C13.972,-3.558 13.576,-3.668 13.08,-3.78C12.424,-3.924 11.894,-4.072 11.49,-4.224C11.086,-4.376 10.744,-4.606 10.464,-4.914C10.184,-5.222 10.044,-5.636 10.044,-6.156C10.044,-6.628 10.17,-7.046 10.422,-7.41C10.674,-7.774 11.028,-8.056 11.484,-8.256C11.94,-8.456 12.464,-8.556 13.056,-8.556C13.608,-8.556 14.128,-8.466 14.616,-8.286C15.104,-8.106 15.508,-7.848 15.828,-7.512C15.932,-7.408 15.984,-7.292 15.984,-7.164C15.984,-7.076 15.958,-7 15.906,-6.936C15.854,-6.872 15.796,-6.84 15.732,-6.84C15.652,-6.84 15.56,-6.88 15.456,-6.96C15.024,-7.312 14.634,-7.556 14.286,-7.692C13.938,-7.828 13.528,-7.896 13.056,-7.896C12.344,-7.896 11.788,-7.744 11.388,-7.44C10.988,-7.136 10.788,-6.712 10.788,-6.168C10.788,-5.84 10.876,-5.574 11.052,-5.37C11.228,-5.166 11.458,-5.004 11.742,-4.884C12.026,-4.764 12.392,-4.648 12.84,-4.536L13.152,-4.464C13.8,-4.304 14.312,-4.156 14.688,-4.02C15.064,-3.884 15.382,-3.674 15.642,-3.39C15.902,-3.106 16.032,-2.724 16.032,-2.244C16.032,-1.788 15.906,-1.382 15.654,-1.026C15.402,-0.67 15.046,-0.394 14.586,-0.198C14.126,-0.002 13.6,0.096 13.008,0.096C12.416,0.096 11.846,0.002 11.298,-0.186Z" style="fill-rule:nonzero;"/>
                <path d="M18.582,-0.186C18.034,-0.374 17.604,-0.628 17.292,-0.948C17.188,-1.036 17.136,-1.152 17.136,-1.296C17.136,-1.384 17.162,-1.46 17.214,-1.524C17.266,-1.588 17.324,-1.62 17.388,-1.62C17.468,-1.62 17.56,-1.58 17.664,-1.5C18.416,-0.876 19.292,-0.564 20.292,-0.564C21.02,-0.564 21.582,-0.71 21.978,-1.002C22.374,-1.294 22.572,-1.708 22.572,-2.244C22.572,-2.556 22.476,-2.808 22.284,-3C22.092,-3.192 21.848,-3.342 21.552,-3.45C21.256,-3.558 20.86,-3.668 20.364,-3.78C19.708,-3.924 19.178,-4.072 18.774,-4.224C18.37,-4.376 18.028,-4.606 17.748,-4.914C17.468,-5.222 17.328,-5.636 17.328,-6.156C17.328,-6.628 17.454,-7.046 17.706,-7.41C17.958,-7.774 18.312,-8.056 18.768,-8.256C19.224,-8.456 19.748,-8.556 20.34,-8.556C20.892,-8.556 21.412,-8.466 21.9,-8.286C22.388,-8.106 22.792,-7.848 23.112,-7.512C23.216,-7.408 23.268,-7.292 23.268,-7.164C23.268,-7.076 23.242,-7 23.19,-6.936C23.138,-6.872 23.08,-6.84 23.016,-6.84C22.936,-6.84 22.844,-6.88 22.74,-6.96C22.308,-7.312 21.918,-7.556 21.57,-7.692C21.222,-7.828 20.812,-7.896 20.34,-7.896C19.628,-7.896 19.072,-7.744 18.672,-7.44C18.272,-7.136 18.072,-6.712 18.072,-6.168C18.072,-5.84 18.16,-5.574 18.336,-5.37C18.512,-5.166 18.742,-5.004 19.026,-4.884C19.31,-4.764 19.676,-4.648 20.124,-4.536L20.436,-4.464C21.084,-4.304 21.596,-4.156 21.972,-4.02C22.348,-3.884 22.666,-3.674 22.926,-3.39C23.186,-3.106 23.316,-2.724 23.316,-2.244C23.316,-1.788 23.19,-1.382 22.938,-1.026C22.686,-0.67 22.33,-0.394 21.87,-0.198C21.41,-0.002 20.884,0.096 20.292,0.096C19.7,0.096 19.13,0.002 18.582,-0.186Z" style="fill-rule:nonzero;"/>
                <path d="M25.086,-0.096C25.01,-0.16 24.972,-0.24 24.972,-0.336L24.972,-8.136C24.972,-8.248 25.006,-8.34 25.074,-8.412C25.142,-8.484 25.232,-8.52 25.344,-8.52C25.464,-8.52 25.556,-8.486 25.62,-8.418C25.684,-8.35 25.716,-8.256 25.716,-8.136L25.716,-0.648L29.82,-0.648C29.924,-0.648 30.006,-0.62 30.066,-0.564C30.126,-0.508 30.156,-0.428 30.156,-0.324C30.156,-0.22 30.126,-0.14 30.066,-0.084C30.006,-0.028 29.924,0 29.82,0L25.356,0C25.252,0 25.162,-0.032 25.086,-0.096Z" style="fill-rule:nonzero;"/>
                <path d="M34.494,-0.048C34.426,-0.12 34.392,-0.212 34.392,-0.324L34.392,-8.136C34.392,-8.248 34.426,-8.34 34.494,-8.412C34.562,-8.484 34.652,-8.52 34.764,-8.52C34.876,-8.52 34.966,-8.484 35.034,-8.412C35.102,-8.34 35.136,-8.248 35.136,-8.136L35.136,-0.324C35.136,-0.212 35.102,-0.12 35.034,-0.048C34.966,0.024 34.876,0.06 34.764,0.06C34.652,0.06 34.562,0.024 34.494,-0.048Z" style="fill-rule:nonzero;"/>
                <path d="M42.012,-3.708L42.012,-0.312C42.012,-0.2 41.98,-0.11 41.916,-0.042C41.852,0.026 41.764,0.06 41.652,0.06C41.54,0.06 41.45,0.026 41.382,-0.042C41.314,-0.11 41.28,-0.2 41.28,-0.312L41.28,-3.66C41.28,-4.236 41.164,-4.656 40.932,-4.92C40.7,-5.184 40.332,-5.316 39.828,-5.316C39.252,-5.316 38.79,-5.14 38.442,-4.788C38.094,-4.436 37.92,-3.964 37.92,-3.372L37.92,-0.312C37.92,-0.2 37.888,-0.11 37.824,-0.042C37.76,0.026 37.672,0.06 37.56,0.06C37.448,0.06 37.358,0.026 37.29,-0.042C37.222,-0.11 37.188,-0.2 37.188,-0.312L37.188,-5.568C37.188,-5.68 37.222,-5.77 37.29,-5.838C37.358,-5.906 37.448,-5.94 37.56,-5.94C37.664,-5.94 37.748,-5.908 37.812,-5.844C37.876,-5.78 37.908,-5.692 37.908,-5.58L37.908,-4.824C38.092,-5.192 38.358,-5.474 38.706,-5.67C39.054,-5.866 39.456,-5.964 39.912,-5.964C41.312,-5.964 42.012,-5.212 42.012,-3.708Z" style="fill-rule:nonzero;"/>
                <path d="M44.814,-0.054C44.49,-0.146 44.204,-0.272 43.956,-0.432C43.804,-0.536 43.698,-0.626 43.638,-0.702C43.578,-0.778 43.548,-0.864 43.548,-0.96C43.548,-1.04 43.574,-1.108 43.626,-1.164C43.678,-1.22 43.74,-1.248 43.812,-1.248C43.884,-1.248 44.008,-1.188 44.184,-1.068C44.416,-0.916 44.654,-0.792 44.898,-0.696C45.142,-0.6 45.448,-0.552 45.816,-0.552C46.288,-0.552 46.656,-0.638 46.92,-0.81C47.184,-0.982 47.316,-1.228 47.316,-1.548C47.316,-1.74 47.268,-1.898 47.172,-2.022C47.076,-2.146 46.916,-2.254 46.692,-2.346C46.468,-2.438 46.148,-2.528 45.732,-2.616C45.02,-2.776 44.514,-2.982 44.214,-3.234C43.914,-3.486 43.764,-3.824 43.764,-4.248C43.764,-4.76 43.964,-5.174 44.364,-5.49C44.764,-5.806 45.284,-5.964 45.924,-5.964C46.236,-5.964 46.534,-5.924 46.818,-5.844C47.102,-5.764 47.348,-5.648 47.556,-5.496C47.836,-5.304 47.976,-5.116 47.976,-4.932C47.976,-4.852 47.95,-4.782 47.898,-4.722C47.846,-4.662 47.784,-4.632 47.712,-4.632C47.632,-4.632 47.508,-4.696 47.34,-4.824C47.124,-4.976 46.91,-5.098 46.698,-5.19C46.486,-5.282 46.216,-5.328 45.888,-5.328C45.472,-5.328 45.14,-5.234 44.892,-5.046C44.644,-4.858 44.52,-4.604 44.52,-4.284C44.52,-4.1 44.562,-3.948 44.646,-3.828C44.73,-3.708 44.874,-3.602 45.078,-3.51C45.282,-3.418 45.576,-3.328 45.96,-3.24C46.512,-3.112 46.936,-2.976 47.232,-2.832C47.528,-2.688 47.74,-2.516 47.868,-2.316C47.996,-2.116 48.06,-1.86 48.06,-1.548C48.06,-1.06 47.854,-0.666 47.442,-0.366C47.03,-0.066 46.484,0.084 45.804,0.084C45.468,0.084 45.138,0.038 44.814,-0.054Z" style="fill-rule:nonzero;"/>
                <path d="M53.748,-5.586C54.14,-5.334 54.444,-4.978 54.66,-4.518C54.876,-4.058 54.984,-3.524 54.984,-2.916C54.984,-2.316 54.876,-1.79 54.66,-1.338C54.444,-0.886 54.14,-0.536 53.748,-0.288C53.356,-0.04 52.904,0.084 52.392,0.084C51.92,0.084 51.512,-0.018 51.168,-0.222C50.824,-0.426 50.564,-0.724 50.388,-1.116L50.388,1.848C50.388,1.96 50.356,2.05 50.292,2.118C50.228,2.186 50.14,2.22 50.028,2.22C49.916,2.22 49.826,2.186 49.758,2.118C49.69,2.05 49.656,1.96 49.656,1.848L49.656,-5.568C49.656,-5.68 49.69,-5.77 49.758,-5.838C49.826,-5.906 49.916,-5.94 50.028,-5.94C50.14,-5.94 50.228,-5.906 50.292,-5.838C50.356,-5.77 50.388,-5.68 50.388,-5.568L50.388,-4.764C50.564,-5.156 50.824,-5.454 51.168,-5.658C51.512,-5.862 51.92,-5.964 52.392,-5.964C52.904,-5.964 53.356,-5.838 53.748,-5.586ZM53.718,-1.182C54.058,-1.594 54.228,-2.172 54.228,-2.916C54.228,-3.676 54.058,-4.268 53.718,-4.692C53.378,-5.116 52.904,-5.328 52.296,-5.328C51.688,-5.328 51.218,-5.12 50.886,-4.704C50.554,-4.288 50.388,-3.7 50.388,-2.94C50.388,-2.18 50.552,-1.594 50.88,-1.182C51.208,-0.77 51.676,-0.564 52.284,-0.564C52.9,-0.564 53.378,-0.77 53.718,-1.182Z" style="fill-rule:nonzero;"/>
                <path d="M61.182,-1.158C61.234,-1.098 61.26,-1.028 61.26,-0.948C61.26,-0.772 61.124,-0.6 60.852,-0.432C60.276,-0.088 59.668,0.084 59.028,0.084C58.14,0.084 57.44,-0.184 56.928,-0.72C56.416,-1.256 56.16,-1.992 56.16,-2.928C56.16,-3.528 56.274,-4.058 56.502,-4.518C56.73,-4.978 57.05,-5.334 57.462,-5.586C57.874,-5.838 58.348,-5.964 58.884,-5.964C59.636,-5.964 60.23,-5.722 60.666,-5.238C61.102,-4.754 61.32,-4.088 61.32,-3.24C61.32,-3.096 61.288,-2.99 61.224,-2.922C61.16,-2.854 61.056,-2.82 60.912,-2.82L56.916,-2.82C56.94,-2.084 57.132,-1.524 57.492,-1.14C57.852,-0.756 58.36,-0.564 59.016,-0.564C59.36,-0.564 59.648,-0.61 59.88,-0.702C60.112,-0.794 60.36,-0.916 60.624,-1.068C60.8,-1.188 60.924,-1.248 60.996,-1.248C61.068,-1.248 61.13,-1.218 61.182,-1.158ZM57.54,-4.836C57.204,-4.484 57.004,-3.992 56.94,-3.36L60.648,-3.36C60.632,-4 60.472,-4.494 60.168,-4.842C59.864,-5.19 59.436,-5.364 58.884,-5.364C58.324,-5.364 57.876,-5.188 57.54,-4.836Z" style="fill-rule:nonzero;"/>
                <path d="M63.756,-0.288C63.348,-0.536 63.032,-0.888 62.808,-1.344C62.584,-1.8 62.472,-2.324 62.472,-2.916C62.472,-3.516 62.586,-4.046 62.814,-4.506C63.042,-4.966 63.362,-5.324 63.774,-5.58C64.186,-5.836 64.66,-5.964 65.196,-5.964C65.5,-5.964 65.796,-5.924 66.084,-5.844C66.372,-5.764 66.628,-5.644 66.852,-5.484C66.996,-5.38 67.098,-5.286 67.158,-5.202C67.218,-5.118 67.248,-5.028 67.248,-4.932C67.248,-4.844 67.224,-4.772 67.176,-4.716C67.128,-4.66 67.068,-4.632 66.996,-4.632C66.916,-4.632 66.788,-4.7 66.612,-4.836C66.404,-4.988 66.196,-5.108 65.988,-5.196C65.78,-5.284 65.528,-5.328 65.232,-5.328C64.608,-5.328 64.12,-5.114 63.768,-4.686C63.416,-4.258 63.24,-3.668 63.24,-2.916C63.24,-2.172 63.414,-1.594 63.762,-1.182C64.11,-0.77 64.596,-0.564 65.22,-0.564C65.524,-0.564 65.778,-0.608 65.982,-0.696C66.186,-0.784 66.408,-0.904 66.648,-1.056C66.72,-1.104 66.79,-1.148 66.858,-1.188C66.926,-1.228 66.98,-1.248 67.02,-1.248C67.1,-1.248 67.164,-1.22 67.212,-1.164C67.26,-1.108 67.284,-1.04 67.284,-0.96C67.284,-0.864 67.256,-0.78 67.2,-0.708C67.144,-0.636 67.036,-0.544 66.876,-0.432C66.66,-0.272 66.398,-0.146 66.09,-0.054C65.782,0.038 65.476,0.084 65.172,0.084C64.636,0.084 64.164,-0.04 63.756,-0.288Z" style="fill-rule:nonzero;"/>
                <path d="M71.412,-0.24C71.412,-0.144 71.376,-0.068 71.304,-0.012C71.232,0.044 71.116,0.068 70.956,0.06L70.62,0.036C70.012,-0.004 69.562,-0.19 69.27,-0.522C68.978,-0.854 68.832,-1.36 68.832,-2.04L68.832,-5.232L67.92,-5.232C67.824,-5.232 67.748,-5.258 67.692,-5.31C67.636,-5.362 67.608,-5.432 67.608,-5.52C67.608,-5.608 67.636,-5.68 67.692,-5.736C67.748,-5.792 67.824,-5.82 67.92,-5.82L68.832,-5.82L68.832,-7.308C68.832,-7.428 68.864,-7.52 68.928,-7.584C68.992,-7.648 69.08,-7.68 69.192,-7.68C69.304,-7.68 69.394,-7.648 69.462,-7.584C69.53,-7.52 69.564,-7.428 69.564,-7.308L69.564,-5.82L71.016,-5.82C71.12,-5.82 71.2,-5.792 71.256,-5.736C71.312,-5.68 71.34,-5.608 71.34,-5.52C71.34,-5.432 71.312,-5.362 71.256,-5.31C71.2,-5.258 71.12,-5.232 71.016,-5.232L69.564,-5.232L69.564,-2.004C69.564,-1.508 69.66,-1.154 69.852,-0.942C70.044,-0.73 70.344,-0.608 70.752,-0.576L71.076,-0.552C71.3,-0.528 71.412,-0.424 71.412,-0.24Z" style="fill-rule:nonzero;"/>
                <path d="M72.57,-0.036C72.502,-0.1 72.468,-0.192 72.468,-0.312L72.468,-5.568C72.468,-5.688 72.502,-5.78 72.57,-5.844C72.638,-5.908 72.728,-5.94 72.84,-5.94C72.952,-5.94 73.04,-5.908 73.104,-5.844C73.168,-5.78 73.2,-5.688 73.2,-5.568L73.2,-0.312C73.2,-0.192 73.168,-0.1 73.104,-0.036C73.04,0.028 72.952,0.06 72.84,0.06C72.728,0.06 72.638,0.028 72.57,-0.036ZM72.45,-7.44C72.35,-7.536 72.3,-7.66 72.3,-7.812C72.3,-7.972 72.35,-8.1 72.45,-8.196C72.55,-8.292 72.68,-8.34 72.84,-8.34C73,-8.34 73.13,-8.292 73.23,-8.196C73.33,-8.1 73.38,-7.972 73.38,-7.812C73.38,-7.66 73.33,-7.536 73.23,-7.44C73.13,-7.344 73,-7.296 72.84,-7.296C72.68,-7.296 72.55,-7.344 72.45,-7.44Z" style="fill-rule:nonzero;"/>
                <path d="M76.038,-0.288C75.634,-0.536 75.32,-0.888 75.096,-1.344C74.872,-1.8 74.76,-2.332 74.76,-2.94C74.76,-3.548 74.872,-4.08 75.096,-4.536C75.32,-4.992 75.634,-5.344 76.038,-5.592C76.442,-5.84 76.912,-5.964 77.448,-5.964C77.976,-5.964 78.444,-5.84 78.852,-5.592C79.26,-5.344 79.574,-4.992 79.794,-4.536C80.014,-4.08 80.124,-3.548 80.124,-2.94C80.124,-2.332 80.014,-1.8 79.794,-1.344C79.574,-0.888 79.26,-0.536 78.852,-0.288C78.444,-0.04 77.976,0.084 77.448,0.084C76.912,0.084 76.442,-0.04 76.038,-0.288ZM78.864,-1.176C79.2,-1.584 79.368,-2.172 79.368,-2.94C79.368,-3.692 79.198,-4.278 78.858,-4.698C78.518,-5.118 78.048,-5.328 77.448,-5.328C76.84,-5.328 76.368,-5.118 76.032,-4.698C75.696,-4.278 75.528,-3.692 75.528,-2.94C75.528,-2.172 75.692,-1.584 76.02,-1.176C76.348,-0.768 76.82,-0.564 77.436,-0.564C78.052,-0.564 78.528,-0.768 78.864,-1.176Z" style="fill-rule:nonzero;"/>
                <path d="M86.496,-3.708L86.496,-0.312C86.496,-0.2 86.464,-0.11 86.4,-0.042C86.336,0.026 86.248,0.06 86.136,0.06C86.024,0.06 85.934,0.026 85.866,-0.042C85.798,-0.11 85.764,-0.2 85.764,-0.312L85.764,-3.66C85.764,-4.236 85.648,-4.656 85.416,-4.92C85.184,-5.184 84.816,-5.316 84.312,-5.316C83.736,-5.316 83.274,-5.14 82.926,-4.788C82.578,-4.436 82.404,-3.964 82.404,-3.372L82.404,-0.312C82.404,-0.2 82.372,-0.11 82.308,-0.042C82.244,0.026 82.156,0.06 82.044,0.06C81.932,0.06 81.842,0.026 81.774,-0.042C81.706,-0.11 81.672,-0.2 81.672,-0.312L81.672,-5.568C81.672,-5.68 81.706,-5.77 81.774,-5.838C81.842,-5.906 81.932,-5.94 82.044,-5.94C82.148,-5.94 82.232,-5.908 82.296,-5.844C82.36,-5.78 82.392,-5.692 82.392,-5.58L82.392,-4.824C82.576,-5.192 82.842,-5.474 83.19,-5.67C83.538,-5.866 83.94,-5.964 84.396,-5.964C85.796,-5.964 86.496,-5.212 86.496,-3.708Z" style="fill-rule:nonzero;"/>
            </g>
        </g>
    </g>
</svg>
