<?xml version="1.0" encoding="UTF-8" standalone="no"?>
<!DOCTYPE svg PUBLIC "-//W3C//DTD SVG 1.1//EN" "http://www.w3.org/Graphics/SVG/1.1/DTD/svg11.dtd">
<svg width="100%" height="100%" viewBox="0 0 64 11" version="1.1" xmlns="http://www.w3.org/2000/svg" xmlns:xlink="http://www.w3.org/1999/xlink" xml:space="preserve" xmlns:serif="http://www.serif.com/" style="fill-rule:evenodd;clip-rule:evenodd;stroke-linejoin:round;stroke-miterlimit:1.41421;">
    <g transform="matrix(1,0,0,1,-25,-348)">
        <g transform="matrix(1,0,0,1,24,358)">
            <g id="DMZ-Zone">
                <path d="M1.379,-0.154C1.272,-0.257 1.218,-0.392 1.218,-0.56L1.218,-9.31C1.218,-9.478 1.272,-9.613 1.379,-9.716C1.486,-9.819 1.629,-9.87 1.806,-9.87L4.536,-9.87C6.113,-9.87 7.334,-9.443 8.197,-8.589C9.06,-7.735 9.492,-6.519 9.492,-4.942C9.492,-3.365 9.058,-2.147 8.19,-1.288C7.322,-0.429 6.104,0 4.536,0L1.806,0C1.629,0 1.486,-0.051 1.379,-0.154ZM4.466,-0.98C7.023,-0.98 8.302,-2.301 8.302,-4.942C8.302,-7.574 7.023,-8.89 4.466,-8.89L2.366,-8.89L2.366,-0.98L4.466,-0.98Z" style="fill-rule:nonzero;"/>
                <path d="M20.741,-9.779C20.839,-9.672 20.888,-9.529 20.888,-9.352L20.888,-0.49C20.888,-0.322 20.841,-0.187 20.748,-0.084C20.655,0.019 20.524,0.07 20.356,0.07C20.188,0.07 20.062,0.019 19.978,-0.084C19.894,-0.187 19.852,-0.322 19.852,-0.49L19.852,-7.644L16.814,-1.82C16.683,-1.549 16.492,-1.414 16.24,-1.414C15.997,-1.414 15.806,-1.549 15.666,-1.82L12.614,-7.574L12.614,-0.49C12.614,-0.322 12.57,-0.187 12.481,-0.084C12.392,0.019 12.264,0.07 12.096,0.07C11.928,0.07 11.797,0.019 11.704,-0.084C11.611,-0.187 11.564,-0.322 11.564,-0.49L11.564,-9.352C11.564,-9.529 11.615,-9.672 11.718,-9.779C11.821,-9.886 11.961,-9.94 12.138,-9.94C12.371,-9.94 12.558,-9.805 12.698,-9.534L16.254,-2.716L19.768,-9.534C19.843,-9.683 19.924,-9.788 20.013,-9.849C20.102,-9.91 20.207,-9.94 20.328,-9.94C20.505,-9.94 20.643,-9.886 20.741,-9.779Z" style="fill-rule:nonzero;"/>
                <path d="M29.834,-0.84C29.927,-0.756 29.974,-0.639 29.974,-0.49C29.974,-0.331 29.927,-0.21 29.834,-0.126C29.741,-0.042 29.61,0 29.442,0L23.184,0C23.016,0 22.883,-0.047 22.785,-0.14C22.687,-0.233 22.638,-0.35 22.638,-0.49C22.638,-0.63 22.689,-0.775 22.792,-0.924L28.392,-8.904L23.184,-8.904C23.016,-8.904 22.885,-8.946 22.792,-9.03C22.699,-9.114 22.652,-9.231 22.652,-9.38C22.652,-9.539 22.699,-9.66 22.792,-9.744C22.885,-9.828 23.016,-9.87 23.184,-9.87L29.288,-9.87C29.456,-9.87 29.589,-9.823 29.687,-9.73C29.785,-9.637 29.834,-9.52 29.834,-9.38C29.834,-9.249 29.783,-9.109 29.68,-8.96L24.066,-0.966L29.442,-0.966C29.61,-0.966 29.741,-0.924 29.834,-0.84Z" style="fill-rule:nonzero;"/>
                <path d="M41.706,-0.84C41.799,-0.756 41.846,-0.639 41.846,-0.49C41.846,-0.331 41.799,-0.21 41.706,-0.126C41.613,-0.042 41.482,0 41.314,0L35.056,0C34.888,0 34.755,-0.047 34.657,-0.14C34.559,-0.233 34.51,-0.35 34.51,-0.49C34.51,-0.63 34.561,-0.775 34.664,-0.924L40.264,-8.904L35.056,-8.904C34.888,-8.904 34.757,-8.946 34.664,-9.03C34.571,-9.114 34.524,-9.231 34.524,-9.38C34.524,-9.539 34.571,-9.66 34.664,-9.744C34.757,-9.828 34.888,-9.87 35.056,-9.87L41.16,-9.87C41.328,-9.87 41.461,-9.823 41.559,-9.73C41.657,-9.637 41.706,-9.52 41.706,-9.38C41.706,-9.249 41.655,-9.109 41.552,-8.96L35.938,-0.966L41.314,-0.966C41.482,-0.966 41.613,-0.924 41.706,-0.84Z" style="fill-rule:nonzero;"/>
                <path d="M44.345,-0.336C43.855,-0.625 43.477,-1.038 43.211,-1.575C42.945,-2.112 42.812,-2.735 42.812,-3.444C42.812,-4.153 42.945,-4.776 43.211,-5.313C43.477,-5.85 43.855,-6.263 44.345,-6.552C44.835,-6.841 45.402,-6.986 46.046,-6.986C46.69,-6.986 47.259,-6.841 47.754,-6.552C48.249,-6.263 48.629,-5.85 48.895,-5.313C49.161,-4.776 49.294,-4.153 49.294,-3.444C49.294,-2.735 49.161,-2.112 48.895,-1.575C48.629,-1.038 48.249,-0.625 47.754,-0.336C47.259,-0.047 46.69,0.098 46.046,0.098C45.402,0.098 44.835,-0.047 44.345,-0.336ZM47.593,-1.505C47.952,-1.948 48.132,-2.595 48.132,-3.444C48.132,-4.275 47.95,-4.916 47.586,-5.369C47.222,-5.822 46.709,-6.048 46.046,-6.048C45.383,-6.048 44.87,-5.822 44.506,-5.369C44.142,-4.916 43.96,-4.275 43.96,-3.444C43.96,-2.604 44.14,-1.96 44.499,-1.512C44.858,-1.064 45.374,-0.84 46.046,-0.84C46.718,-0.84 47.234,-1.062 47.593,-1.505Z" style="fill-rule:nonzero;"/>
                <path d="M56.868,-4.284L56.868,-0.49C56.868,-0.313 56.819,-0.175 56.721,-0.077C56.623,0.021 56.485,0.07 56.308,0.07C56.131,0.07 55.991,0.021 55.888,-0.077C55.785,-0.175 55.734,-0.313 55.734,-0.49L55.734,-4.214C55.734,-4.849 55.61,-5.311 55.363,-5.6C55.116,-5.889 54.721,-6.034 54.18,-6.034C53.555,-6.034 53.055,-5.843 52.682,-5.46C52.309,-5.077 52.122,-4.559 52.122,-3.906L52.122,-0.49C52.122,-0.313 52.073,-0.175 51.975,-0.077C51.877,0.021 51.739,0.07 51.562,0.07C51.385,0.07 51.245,0.021 51.142,-0.077C51.039,-0.175 50.988,-0.313 50.988,-0.49L50.988,-6.398C50.988,-6.566 51.039,-6.701 51.142,-6.804C51.245,-6.907 51.385,-6.958 51.562,-6.958C51.73,-6.958 51.863,-6.907 51.961,-6.804C52.059,-6.701 52.108,-6.571 52.108,-6.412L52.108,-5.698C52.332,-6.118 52.645,-6.438 53.046,-6.657C53.447,-6.876 53.905,-6.986 54.418,-6.986C56.051,-6.986 56.868,-6.085 56.868,-4.284Z" style="fill-rule:nonzero;"/>
                <path d="M64.484,-1.456C64.559,-1.372 64.596,-1.265 64.596,-1.134C64.596,-0.901 64.433,-0.686 64.106,-0.49C63.77,-0.294 63.415,-0.147 63.042,-0.049C62.669,0.049 62.305,0.098 61.95,0.098C60.895,0.098 60.062,-0.215 59.451,-0.84C58.84,-1.465 58.534,-2.329 58.534,-3.43C58.534,-4.13 58.669,-4.748 58.94,-5.285C59.211,-5.822 59.591,-6.239 60.081,-6.538C60.571,-6.837 61.129,-6.986 61.754,-6.986C62.641,-6.986 63.345,-6.697 63.868,-6.118C64.391,-5.539 64.652,-4.755 64.652,-3.766C64.652,-3.579 64.615,-3.444 64.54,-3.36C64.465,-3.276 64.344,-3.234 64.176,-3.234L59.668,-3.234C59.752,-1.629 60.513,-0.826 61.95,-0.826C62.314,-0.826 62.627,-0.875 62.888,-0.973C63.149,-1.071 63.429,-1.204 63.728,-1.372C63.971,-1.512 64.134,-1.582 64.218,-1.582C64.321,-1.582 64.409,-1.54 64.484,-1.456ZM60.333,-5.544C59.974,-5.171 59.761,-4.643 59.696,-3.962L63.658,-3.962C63.639,-4.653 63.467,-5.182 63.14,-5.551C62.813,-5.92 62.356,-6.104 61.768,-6.104C61.171,-6.104 60.692,-5.917 60.333,-5.544Z" style="fill-rule:nonzero;"/>
            </g>
        </g>
    </g>
</svg>
