<?xml version="1.0" encoding="UTF-8" standalone="no"?>
<!DOCTYPE svg PUBLIC "-//W3C//DTD SVG 1.1//EN" "http://www.w3.org/Graphics/SVG/1.1/DTD/svg11.dtd">
<svg width="100%" height="100%" viewBox="0 0 72 11" version="1.1" xmlns="http://www.w3.org/2000/svg" xmlns:xlink="http://www.w3.org/1999/xlink" xml:space="preserve" xmlns:serif="http://www.serif.com/" style="fill-rule:evenodd;clip-rule:evenodd;stroke-linejoin:round;stroke-miterlimit:1.41421;">
    <g transform="matrix(1,0,0,1,-31,-181)">
        <g id="Guest-Zone">
            <g transform="matrix(1,0,0,1,31,191)">
                <g id="text-38">
                    <path d="M8.897,-5.012C8.986,-4.928 9.03,-4.811 9.03,-4.662L9.03,-1.176C9.03,-0.952 8.995,-0.784 8.925,-0.672C8.855,-0.56 8.727,-0.471 8.54,-0.406C8.167,-0.247 7.714,-0.121 7.182,-0.028C6.65,0.065 6.118,0.112 5.586,0.112C4.606,0.112 3.761,-0.089 3.052,-0.49C2.343,-0.891 1.799,-1.47 1.421,-2.226C1.043,-2.982 0.854,-3.887 0.854,-4.942C0.854,-5.978 1.041,-6.874 1.414,-7.63C1.787,-8.386 2.324,-8.967 3.024,-9.373C3.724,-9.779 4.545,-9.982 5.488,-9.982C6.141,-9.982 6.748,-9.882 7.308,-9.681C7.868,-9.48 8.339,-9.193 8.722,-8.82C8.881,-8.661 8.96,-8.498 8.96,-8.33C8.96,-8.199 8.923,-8.085 8.848,-7.987C8.773,-7.889 8.68,-7.84 8.568,-7.84C8.456,-7.84 8.325,-7.896 8.176,-8.008C7.691,-8.381 7.252,-8.64 6.86,-8.785C6.468,-8.93 6.015,-9.002 5.502,-9.002C4.391,-9.002 3.54,-8.652 2.947,-7.952C2.354,-7.252 2.058,-6.249 2.058,-4.942C2.058,-3.607 2.359,-2.592 2.961,-1.897C3.563,-1.202 4.447,-0.854 5.614,-0.854C6.482,-0.854 7.271,-0.985 7.98,-1.246L7.98,-4.242L5.936,-4.242C5.777,-4.242 5.651,-4.284 5.558,-4.368C5.465,-4.452 5.418,-4.559 5.418,-4.69C5.418,-4.83 5.465,-4.94 5.558,-5.019C5.651,-5.098 5.777,-5.138 5.936,-5.138L8.554,-5.138C8.694,-5.138 8.808,-5.096 8.897,-5.012Z" style="fill-rule:nonzero;"/>
                    <path d="M16.813,-6.804C16.911,-6.701 16.96,-6.566 16.96,-6.398L16.96,-0.476C16.96,-0.317 16.911,-0.187 16.813,-0.084C16.715,0.019 16.577,0.07 16.4,0.07C16.232,0.07 16.099,0.021 16.001,-0.077C15.903,-0.175 15.854,-0.303 15.854,-0.462L15.854,-1.162C15.639,-0.751 15.338,-0.439 14.951,-0.224C14.563,-0.009 14.127,0.098 13.642,0.098C12.83,0.098 12.218,-0.128 11.808,-0.581C11.397,-1.034 11.192,-1.703 11.192,-2.59L11.192,-6.398C11.192,-6.566 11.243,-6.701 11.346,-6.804C11.448,-6.907 11.588,-6.958 11.766,-6.958C11.943,-6.958 12.081,-6.907 12.179,-6.804C12.277,-6.701 12.326,-6.566 12.326,-6.398L12.326,-2.618C12.326,-2.011 12.447,-1.566 12.69,-1.281C12.932,-0.996 13.315,-0.854 13.838,-0.854C14.435,-0.854 14.916,-1.048 15.28,-1.435C15.644,-1.822 15.826,-2.333 15.826,-2.968L15.826,-6.398C15.826,-6.566 15.877,-6.701 15.98,-6.804C16.082,-6.907 16.222,-6.958 16.4,-6.958C16.577,-6.958 16.715,-6.907 16.813,-6.804Z" style="fill-rule:nonzero;"/>
                    <path d="M24.651,-1.456C24.726,-1.372 24.763,-1.265 24.763,-1.134C24.763,-0.901 24.6,-0.686 24.273,-0.49C23.937,-0.294 23.582,-0.147 23.209,-0.049C22.836,0.049 22.472,0.098 22.117,0.098C21.062,0.098 20.229,-0.215 19.618,-0.84C19.007,-1.465 18.701,-2.329 18.701,-3.43C18.701,-4.13 18.836,-4.748 19.107,-5.285C19.378,-5.822 19.758,-6.239 20.248,-6.538C20.738,-6.837 21.296,-6.986 21.921,-6.986C22.808,-6.986 23.512,-6.697 24.035,-6.118C24.558,-5.539 24.819,-4.755 24.819,-3.766C24.819,-3.579 24.782,-3.444 24.707,-3.36C24.632,-3.276 24.511,-3.234 24.343,-3.234L19.835,-3.234C19.919,-1.629 20.68,-0.826 22.117,-0.826C22.481,-0.826 22.794,-0.875 23.055,-0.973C23.316,-1.071 23.596,-1.204 23.895,-1.372C24.138,-1.512 24.301,-1.582 24.385,-1.582C24.488,-1.582 24.576,-1.54 24.651,-1.456ZM20.5,-5.544C20.141,-5.171 19.928,-4.643 19.863,-3.962L23.825,-3.962C23.806,-4.653 23.634,-5.182 23.307,-5.551C22.98,-5.92 22.523,-6.104 21.935,-6.104C21.338,-6.104 20.859,-5.917 20.5,-5.544Z" style="fill-rule:nonzero;"/>
                    <path d="M27.59,-0.056C27.202,-0.159 26.859,-0.303 26.561,-0.49C26.393,-0.602 26.274,-0.707 26.204,-0.805C26.134,-0.903 26.099,-1.022 26.099,-1.162C26.099,-1.283 26.134,-1.384 26.204,-1.463C26.274,-1.542 26.365,-1.582 26.477,-1.582C26.589,-1.582 26.752,-1.512 26.967,-1.372C27.247,-1.204 27.524,-1.071 27.8,-0.973C28.075,-0.875 28.418,-0.826 28.829,-0.826C29.333,-0.826 29.725,-0.915 30.005,-1.092C30.285,-1.269 30.425,-1.526 30.425,-1.862C30.425,-2.067 30.373,-2.233 30.271,-2.359C30.168,-2.485 29.991,-2.597 29.739,-2.695C29.487,-2.793 29.118,-2.893 28.633,-2.996C27.811,-3.173 27.223,-3.411 26.869,-3.71C26.514,-4.009 26.337,-4.415 26.337,-4.928C26.337,-5.329 26.449,-5.684 26.673,-5.992C26.897,-6.3 27.207,-6.543 27.604,-6.72C28,-6.897 28.451,-6.986 28.955,-6.986C29.319,-6.986 29.671,-6.937 30.012,-6.839C30.352,-6.741 30.653,-6.603 30.915,-6.426C31.232,-6.202 31.391,-5.969 31.391,-5.726C31.391,-5.605 31.353,-5.502 31.279,-5.418C31.204,-5.334 31.115,-5.292 31.013,-5.292C30.901,-5.292 30.733,-5.371 30.509,-5.53C30.247,-5.698 30,-5.829 29.767,-5.922C29.533,-6.015 29.244,-6.062 28.899,-6.062C28.46,-6.062 28.108,-5.964 27.842,-5.768C27.576,-5.572 27.443,-5.311 27.443,-4.984C27.443,-4.779 27.492,-4.613 27.59,-4.487C27.688,-4.361 27.851,-4.249 28.08,-4.151C28.308,-4.053 28.637,-3.957 29.067,-3.864C29.701,-3.724 30.194,-3.57 30.544,-3.402C30.894,-3.234 31.143,-3.029 31.293,-2.786C31.442,-2.543 31.517,-2.235 31.517,-1.862C31.517,-1.274 31.269,-0.8 30.775,-0.441C30.28,-0.082 29.627,0.098 28.815,0.098C28.385,0.098 27.977,0.047 27.59,-0.056Z" style="fill-rule:nonzero;"/>
                    <path d="M36.842,-0.378C36.842,-0.219 36.784,-0.1 36.667,-0.021C36.55,0.058 36.375,0.089 36.142,0.07L35.764,0.042C35.017,-0.014 34.467,-0.238 34.112,-0.63C33.757,-1.022 33.58,-1.615 33.58,-2.408L33.58,-5.922L32.642,-5.922C32.483,-5.922 32.36,-5.962 32.271,-6.041C32.182,-6.12 32.138,-6.225 32.138,-6.356C32.138,-6.496 32.182,-6.608 32.271,-6.692C32.36,-6.776 32.483,-6.818 32.642,-6.818L33.58,-6.818L33.58,-8.4C33.58,-8.577 33.631,-8.715 33.734,-8.813C33.837,-8.911 33.977,-8.96 34.154,-8.96C34.322,-8.96 34.457,-8.911 34.56,-8.813C34.663,-8.715 34.714,-8.577 34.714,-8.4L34.714,-6.818L36.268,-6.818C36.417,-6.818 36.536,-6.776 36.625,-6.692C36.714,-6.608 36.758,-6.496 36.758,-6.356C36.758,-6.225 36.714,-6.12 36.625,-6.041C36.536,-5.962 36.417,-5.922 36.268,-5.922L34.714,-5.922L34.714,-2.352C34.714,-1.839 34.819,-1.468 35.029,-1.239C35.239,-1.01 35.554,-0.882 35.974,-0.854L36.352,-0.826C36.679,-0.798 36.842,-0.649 36.842,-0.378Z" style="fill-rule:nonzero;"/>
                    <path d="M48.305,-0.84C48.398,-0.756 48.445,-0.639 48.445,-0.49C48.445,-0.331 48.398,-0.21 48.305,-0.126C48.212,-0.042 48.081,0 47.913,0L41.655,0C41.487,0 41.354,-0.047 41.256,-0.14C41.158,-0.233 41.109,-0.35 41.109,-0.49C41.109,-0.63 41.16,-0.775 41.263,-0.924L46.863,-8.904L41.655,-8.904C41.487,-8.904 41.356,-8.946 41.263,-9.03C41.17,-9.114 41.123,-9.231 41.123,-9.38C41.123,-9.539 41.17,-9.66 41.263,-9.744C41.356,-9.828 41.487,-9.87 41.655,-9.87L47.759,-9.87C47.927,-9.87 48.06,-9.823 48.158,-9.73C48.256,-9.637 48.305,-9.52 48.305,-9.38C48.305,-9.249 48.254,-9.109 48.151,-8.96L42.537,-0.966L47.913,-0.966C48.081,-0.966 48.212,-0.924 48.305,-0.84Z" style="fill-rule:nonzero;"/>
                    <path d="M50.978,-0.336C50.488,-0.625 50.11,-1.038 49.844,-1.575C49.578,-2.112 49.445,-2.735 49.445,-3.444C49.445,-4.153 49.578,-4.776 49.844,-5.313C50.11,-5.85 50.488,-6.263 50.978,-6.552C51.468,-6.841 52.035,-6.986 52.679,-6.986C53.323,-6.986 53.892,-6.841 54.387,-6.552C54.881,-6.263 55.262,-5.85 55.528,-5.313C55.794,-4.776 55.927,-4.153 55.927,-3.444C55.927,-2.735 55.794,-2.112 55.528,-1.575C55.262,-1.038 54.881,-0.625 54.387,-0.336C53.892,-0.047 53.323,0.098 52.679,0.098C52.035,0.098 51.468,-0.047 50.978,-0.336ZM54.226,-1.505C54.585,-1.948 54.765,-2.595 54.765,-3.444C54.765,-4.275 54.583,-4.916 54.219,-5.369C53.855,-5.822 53.341,-6.048 52.679,-6.048C52.016,-6.048 51.503,-5.822 51.139,-5.369C50.775,-4.916 50.593,-4.275 50.593,-3.444C50.593,-2.604 50.772,-1.96 51.132,-1.512C51.491,-1.064 52.007,-0.84 52.679,-0.84C53.351,-0.84 53.866,-1.062 54.226,-1.505Z" style="fill-rule:nonzero;"/>
                    <path d="M63.534,-4.284L63.534,-0.49C63.534,-0.313 63.485,-0.175 63.387,-0.077C63.289,0.021 63.151,0.07 62.974,0.07C62.797,0.07 62.657,0.021 62.554,-0.077C62.451,-0.175 62.4,-0.313 62.4,-0.49L62.4,-4.214C62.4,-4.849 62.276,-5.311 62.029,-5.6C61.782,-5.889 61.387,-6.034 60.846,-6.034C60.221,-6.034 59.721,-5.843 59.348,-5.46C58.975,-5.077 58.788,-4.559 58.788,-3.906L58.788,-0.49C58.788,-0.313 58.739,-0.175 58.641,-0.077C58.543,0.021 58.405,0.07 58.228,0.07C58.051,0.07 57.911,0.021 57.808,-0.077C57.705,-0.175 57.654,-0.313 57.654,-0.49L57.654,-6.398C57.654,-6.566 57.705,-6.701 57.808,-6.804C57.911,-6.907 58.051,-6.958 58.228,-6.958C58.396,-6.958 58.529,-6.907 58.627,-6.804C58.725,-6.701 58.774,-6.571 58.774,-6.412L58.774,-5.698C58.998,-6.118 59.311,-6.438 59.712,-6.657C60.113,-6.876 60.571,-6.986 61.084,-6.986C62.717,-6.986 63.534,-6.085 63.534,-4.284Z" style="fill-rule:nonzero;"/>
                    <path d="M71.184,-1.456C71.258,-1.372 71.296,-1.265 71.296,-1.134C71.296,-0.901 71.132,-0.686 70.806,-0.49C70.47,-0.294 70.115,-0.147 69.742,-0.049C69.368,0.049 69.004,0.098 68.65,0.098C67.595,0.098 66.762,-0.215 66.151,-0.84C65.539,-1.465 65.234,-2.329 65.234,-3.43C65.234,-4.13 65.369,-4.748 65.64,-5.285C65.91,-5.822 66.291,-6.239 66.781,-6.538C67.271,-6.837 67.828,-6.986 68.454,-6.986C69.34,-6.986 70.045,-6.697 70.568,-6.118C71.09,-5.539 71.352,-4.755 71.352,-3.766C71.352,-3.579 71.314,-3.444 71.24,-3.36C71.165,-3.276 71.044,-3.234 70.876,-3.234L66.368,-3.234C66.452,-1.629 67.212,-0.826 68.65,-0.826C69.014,-0.826 69.326,-0.875 69.588,-0.973C69.849,-1.071 70.129,-1.204 70.428,-1.372C70.67,-1.512 70.834,-1.582 70.918,-1.582C71.02,-1.582 71.109,-1.54 71.184,-1.456ZM67.033,-5.544C66.673,-5.171 66.461,-4.643 66.396,-3.962L70.358,-3.962C70.339,-4.653 70.166,-5.182 69.84,-5.551C69.513,-5.92 69.056,-6.104 68.468,-6.104C67.87,-6.104 67.392,-5.917 67.033,-5.544Z" style="fill-rule:nonzero;"/>
                </g>
            </g>
            <g transform="matrix(1,0,0,1,31,191)">
                <g id="text-381" serif:id="text-38">
                    <path d="M8.897,-5.012C8.986,-4.928 9.03,-4.811 9.03,-4.662L9.03,-1.176C9.03,-0.952 8.995,-0.784 8.925,-0.672C8.855,-0.56 8.727,-0.471 8.54,-0.406C8.167,-0.247 7.714,-0.121 7.182,-0.028C6.65,0.065 6.118,0.112 5.586,0.112C4.606,0.112 3.761,-0.089 3.052,-0.49C2.343,-0.891 1.799,-1.47 1.421,-2.226C1.043,-2.982 0.854,-3.887 0.854,-4.942C0.854,-5.978 1.041,-6.874 1.414,-7.63C1.787,-8.386 2.324,-8.967 3.024,-9.373C3.724,-9.779 4.545,-9.982 5.488,-9.982C6.141,-9.982 6.748,-9.882 7.308,-9.681C7.868,-9.48 8.339,-9.193 8.722,-8.82C8.881,-8.661 8.96,-8.498 8.96,-8.33C8.96,-8.199 8.923,-8.085 8.848,-7.987C8.773,-7.889 8.68,-7.84 8.568,-7.84C8.456,-7.84 8.325,-7.896 8.176,-8.008C7.691,-8.381 7.252,-8.64 6.86,-8.785C6.468,-8.93 6.015,-9.002 5.502,-9.002C4.391,-9.002 3.54,-8.652 2.947,-7.952C2.354,-7.252 2.058,-6.249 2.058,-4.942C2.058,-3.607 2.359,-2.592 2.961,-1.897C3.563,-1.202 4.447,-0.854 5.614,-0.854C6.482,-0.854 7.271,-0.985 7.98,-1.246L7.98,-4.242L5.936,-4.242C5.777,-4.242 5.651,-4.284 5.558,-4.368C5.465,-4.452 5.418,-4.559 5.418,-4.69C5.418,-4.83 5.465,-4.94 5.558,-5.019C5.651,-5.098 5.777,-5.138 5.936,-5.138L8.554,-5.138C8.694,-5.138 8.808,-5.096 8.897,-5.012Z" style="fill-rule:nonzero;"/>
                    <path d="M16.813,-6.804C16.911,-6.701 16.96,-6.566 16.96,-6.398L16.96,-0.476C16.96,-0.317 16.911,-0.187 16.813,-0.084C16.715,0.019 16.577,0.07 16.4,0.07C16.232,0.07 16.099,0.021 16.001,-0.077C15.903,-0.175 15.854,-0.303 15.854,-0.462L15.854,-1.162C15.639,-0.751 15.338,-0.439 14.951,-0.224C14.563,-0.009 14.127,0.098 13.642,0.098C12.83,0.098 12.218,-0.128 11.808,-0.581C11.397,-1.034 11.192,-1.703 11.192,-2.59L11.192,-6.398C11.192,-6.566 11.243,-6.701 11.346,-6.804C11.448,-6.907 11.588,-6.958 11.766,-6.958C11.943,-6.958 12.081,-6.907 12.179,-6.804C12.277,-6.701 12.326,-6.566 12.326,-6.398L12.326,-2.618C12.326,-2.011 12.447,-1.566 12.69,-1.281C12.932,-0.996 13.315,-0.854 13.838,-0.854C14.435,-0.854 14.916,-1.048 15.28,-1.435C15.644,-1.822 15.826,-2.333 15.826,-2.968L15.826,-6.398C15.826,-6.566 15.877,-6.701 15.98,-6.804C16.082,-6.907 16.222,-6.958 16.4,-6.958C16.577,-6.958 16.715,-6.907 16.813,-6.804Z" style="fill-rule:nonzero;"/>
                    <path d="M24.651,-1.456C24.726,-1.372 24.763,-1.265 24.763,-1.134C24.763,-0.901 24.6,-0.686 24.273,-0.49C23.937,-0.294 23.582,-0.147 23.209,-0.049C22.836,0.049 22.472,0.098 22.117,0.098C21.062,0.098 20.229,-0.215 19.618,-0.84C19.007,-1.465 18.701,-2.329 18.701,-3.43C18.701,-4.13 18.836,-4.748 19.107,-5.285C19.378,-5.822 19.758,-6.239 20.248,-6.538C20.738,-6.837 21.296,-6.986 21.921,-6.986C22.808,-6.986 23.512,-6.697 24.035,-6.118C24.558,-5.539 24.819,-4.755 24.819,-3.766C24.819,-3.579 24.782,-3.444 24.707,-3.36C24.632,-3.276 24.511,-3.234 24.343,-3.234L19.835,-3.234C19.919,-1.629 20.68,-0.826 22.117,-0.826C22.481,-0.826 22.794,-0.875 23.055,-0.973C23.316,-1.071 23.596,-1.204 23.895,-1.372C24.138,-1.512 24.301,-1.582 24.385,-1.582C24.488,-1.582 24.576,-1.54 24.651,-1.456ZM20.5,-5.544C20.141,-5.171 19.928,-4.643 19.863,-3.962L23.825,-3.962C23.806,-4.653 23.634,-5.182 23.307,-5.551C22.98,-5.92 22.523,-6.104 21.935,-6.104C21.338,-6.104 20.859,-5.917 20.5,-5.544Z" style="fill-rule:nonzero;"/>
                    <path d="M27.59,-0.056C27.202,-0.159 26.859,-0.303 26.561,-0.49C26.393,-0.602 26.274,-0.707 26.204,-0.805C26.134,-0.903 26.099,-1.022 26.099,-1.162C26.099,-1.283 26.134,-1.384 26.204,-1.463C26.274,-1.542 26.365,-1.582 26.477,-1.582C26.589,-1.582 26.752,-1.512 26.967,-1.372C27.247,-1.204 27.524,-1.071 27.8,-0.973C28.075,-0.875 28.418,-0.826 28.829,-0.826C29.333,-0.826 29.725,-0.915 30.005,-1.092C30.285,-1.269 30.425,-1.526 30.425,-1.862C30.425,-2.067 30.373,-2.233 30.271,-2.359C30.168,-2.485 29.991,-2.597 29.739,-2.695C29.487,-2.793 29.118,-2.893 28.633,-2.996C27.811,-3.173 27.223,-3.411 26.869,-3.71C26.514,-4.009 26.337,-4.415 26.337,-4.928C26.337,-5.329 26.449,-5.684 26.673,-5.992C26.897,-6.3 27.207,-6.543 27.604,-6.72C28,-6.897 28.451,-6.986 28.955,-6.986C29.319,-6.986 29.671,-6.937 30.012,-6.839C30.352,-6.741 30.653,-6.603 30.915,-6.426C31.232,-6.202 31.391,-5.969 31.391,-5.726C31.391,-5.605 31.353,-5.502 31.279,-5.418C31.204,-5.334 31.115,-5.292 31.013,-5.292C30.901,-5.292 30.733,-5.371 30.509,-5.53C30.247,-5.698 30,-5.829 29.767,-5.922C29.533,-6.015 29.244,-6.062 28.899,-6.062C28.46,-6.062 28.108,-5.964 27.842,-5.768C27.576,-5.572 27.443,-5.311 27.443,-4.984C27.443,-4.779 27.492,-4.613 27.59,-4.487C27.688,-4.361 27.851,-4.249 28.08,-4.151C28.308,-4.053 28.637,-3.957 29.067,-3.864C29.701,-3.724 30.194,-3.57 30.544,-3.402C30.894,-3.234 31.143,-3.029 31.293,-2.786C31.442,-2.543 31.517,-2.235 31.517,-1.862C31.517,-1.274 31.269,-0.8 30.775,-0.441C30.28,-0.082 29.627,0.098 28.815,0.098C28.385,0.098 27.977,0.047 27.59,-0.056Z" style="fill-rule:nonzero;"/>
                    <path d="M36.842,-0.378C36.842,-0.219 36.784,-0.1 36.667,-0.021C36.55,0.058 36.375,0.089 36.142,0.07L35.764,0.042C35.017,-0.014 34.467,-0.238 34.112,-0.63C33.757,-1.022 33.58,-1.615 33.58,-2.408L33.58,-5.922L32.642,-5.922C32.483,-5.922 32.36,-5.962 32.271,-6.041C32.182,-6.12 32.138,-6.225 32.138,-6.356C32.138,-6.496 32.182,-6.608 32.271,-6.692C32.36,-6.776 32.483,-6.818 32.642,-6.818L33.58,-6.818L33.58,-8.4C33.58,-8.577 33.631,-8.715 33.734,-8.813C33.837,-8.911 33.977,-8.96 34.154,-8.96C34.322,-8.96 34.457,-8.911 34.56,-8.813C34.663,-8.715 34.714,-8.577 34.714,-8.4L34.714,-6.818L36.268,-6.818C36.417,-6.818 36.536,-6.776 36.625,-6.692C36.714,-6.608 36.758,-6.496 36.758,-6.356C36.758,-6.225 36.714,-6.12 36.625,-6.041C36.536,-5.962 36.417,-5.922 36.268,-5.922L34.714,-5.922L34.714,-2.352C34.714,-1.839 34.819,-1.468 35.029,-1.239C35.239,-1.01 35.554,-0.882 35.974,-0.854L36.352,-0.826C36.679,-0.798 36.842,-0.649 36.842,-0.378Z" style="fill-rule:nonzero;"/>
                    <path d="M48.305,-0.84C48.398,-0.756 48.445,-0.639 48.445,-0.49C48.445,-0.331 48.398,-0.21 48.305,-0.126C48.212,-0.042 48.081,0 47.913,0L41.655,0C41.487,0 41.354,-0.047 41.256,-0.14C41.158,-0.233 41.109,-0.35 41.109,-0.49C41.109,-0.63 41.16,-0.775 41.263,-0.924L46.863,-8.904L41.655,-8.904C41.487,-8.904 41.356,-8.946 41.263,-9.03C41.17,-9.114 41.123,-9.231 41.123,-9.38C41.123,-9.539 41.17,-9.66 41.263,-9.744C41.356,-9.828 41.487,-9.87 41.655,-9.87L47.759,-9.87C47.927,-9.87 48.06,-9.823 48.158,-9.73C48.256,-9.637 48.305,-9.52 48.305,-9.38C48.305,-9.249 48.254,-9.109 48.151,-8.96L42.537,-0.966L47.913,-0.966C48.081,-0.966 48.212,-0.924 48.305,-0.84Z" style="fill-rule:nonzero;"/>
                    <path d="M50.978,-0.336C50.488,-0.625 50.11,-1.038 49.844,-1.575C49.578,-2.112 49.445,-2.735 49.445,-3.444C49.445,-4.153 49.578,-4.776 49.844,-5.313C50.11,-5.85 50.488,-6.263 50.978,-6.552C51.468,-6.841 52.035,-6.986 52.679,-6.986C53.323,-6.986 53.892,-6.841 54.387,-6.552C54.881,-6.263 55.262,-5.85 55.528,-5.313C55.794,-4.776 55.927,-4.153 55.927,-3.444C55.927,-2.735 55.794,-2.112 55.528,-1.575C55.262,-1.038 54.881,-0.625 54.387,-0.336C53.892,-0.047 53.323,0.098 52.679,0.098C52.035,0.098 51.468,-0.047 50.978,-0.336ZM54.226,-1.505C54.585,-1.948 54.765,-2.595 54.765,-3.444C54.765,-4.275 54.583,-4.916 54.219,-5.369C53.855,-5.822 53.341,-6.048 52.679,-6.048C52.016,-6.048 51.503,-5.822 51.139,-5.369C50.775,-4.916 50.593,-4.275 50.593,-3.444C50.593,-2.604 50.772,-1.96 51.132,-1.512C51.491,-1.064 52.007,-0.84 52.679,-0.84C53.351,-0.84 53.866,-1.062 54.226,-1.505Z" style="fill-rule:nonzero;"/>
                    <path d="M63.534,-4.284L63.534,-0.49C63.534,-0.313 63.485,-0.175 63.387,-0.077C63.289,0.021 63.151,0.07 62.974,0.07C62.797,0.07 62.657,0.021 62.554,-0.077C62.451,-0.175 62.4,-0.313 62.4,-0.49L62.4,-4.214C62.4,-4.849 62.276,-5.311 62.029,-5.6C61.782,-5.889 61.387,-6.034 60.846,-6.034C60.221,-6.034 59.721,-5.843 59.348,-5.46C58.975,-5.077 58.788,-4.559 58.788,-3.906L58.788,-0.49C58.788,-0.313 58.739,-0.175 58.641,-0.077C58.543,0.021 58.405,0.07 58.228,0.07C58.051,0.07 57.911,0.021 57.808,-0.077C57.705,-0.175 57.654,-0.313 57.654,-0.49L57.654,-6.398C57.654,-6.566 57.705,-6.701 57.808,-6.804C57.911,-6.907 58.051,-6.958 58.228,-6.958C58.396,-6.958 58.529,-6.907 58.627,-6.804C58.725,-6.701 58.774,-6.571 58.774,-6.412L58.774,-5.698C58.998,-6.118 59.311,-6.438 59.712,-6.657C60.113,-6.876 60.571,-6.986 61.084,-6.986C62.717,-6.986 63.534,-6.085 63.534,-4.284Z" style="fill-rule:nonzero;"/>
                    <path d="M71.184,-1.456C71.258,-1.372 71.296,-1.265 71.296,-1.134C71.296,-0.901 71.132,-0.686 70.806,-0.49C70.47,-0.294 70.115,-0.147 69.742,-0.049C69.368,0.049 69.004,0.098 68.65,0.098C67.595,0.098 66.762,-0.215 66.151,-0.84C65.539,-1.465 65.234,-2.329 65.234,-3.43C65.234,-4.13 65.369,-4.748 65.64,-5.285C65.91,-5.822 66.291,-6.239 66.781,-6.538C67.271,-6.837 67.828,-6.986 68.454,-6.986C69.34,-6.986 70.045,-6.697 70.568,-6.118C71.09,-5.539 71.352,-4.755 71.352,-3.766C71.352,-3.579 71.314,-3.444 71.24,-3.36C71.165,-3.276 71.044,-3.234 70.876,-3.234L66.368,-3.234C66.452,-1.629 67.212,-0.826 68.65,-0.826C69.014,-0.826 69.326,-0.875 69.588,-0.973C69.849,-1.071 70.129,-1.204 70.428,-1.372C70.67,-1.512 70.834,-1.582 70.918,-1.582C71.02,-1.582 71.109,-1.54 71.184,-1.456ZM67.033,-5.544C66.673,-5.171 66.461,-4.643 66.396,-3.962L70.358,-3.962C70.339,-4.653 70.166,-5.182 69.84,-5.551C69.513,-5.92 69.056,-6.104 68.468,-6.104C67.87,-6.104 67.392,-5.917 67.033,-5.544Z" style="fill-rule:nonzero;"/>
                </g>
            </g>
        </g>
    </g>
</svg>
