<?xml version="1.0" encoding="UTF-8" standalone="no"?>
<svg width="41px" height="32px" viewBox="0 0 41 32" version="1.1" xmlns="http://www.w3.org/2000/svg" xmlns:xlink="http://www.w3.org/1999/xlink">
    <!-- Generator: Sketch 50 (54983) - http://www.bohemiancoding.com/sketch -->
    <title>headquarter</title>
    <desc>Created with Sketch.</desc>
    <defs></defs>
    <g id="Page-1" stroke="none" stroke-width="1" fill="none" fill-rule="evenodd">
        <path d="M8,32 L26,32 L26,0 L8,0 L8,32 Z M19.375,5.75 L23.125,5.75 L23.125,9.5 L19.375,9.5 L19.375,5.75 Z M19.375,13.25 L23.125,13.25 L23.125,17 L19.375,17 L19.375,13.25 Z M19.375,20.75 L23.125,20.75 L23.125,24.5 L19.375,24.5 L19.375,20.75 Z M11.875,5.75 L15.625,5.75 L15.625,9.5 L11.875,9.5 L11.875,5.75 Z M11.875,13.25 L15.625,13.25 L15.625,17 L11.875,17 L11.875,13.25 Z M11.875,20.75 L15.625,20.75 L15.625,24.5 L11.875,24.5 L11.875,20.75 Z M34,10.0189448 L34,7 L34,4 L40,4 L40,7 L35,7 L35,10.0189448 C38.3562239,10.2742573 41,13.0783851 41,16.5 L28,16.5 C28,13.0783851 30.6437761,10.2742573 34,10.0189448 Z M27.875,32 L27.875,17.9043472 L41,17.9043472 L41,32 L37.25,32 L37.25,24.5 L31.625,24.5 L31.625,32 L27.875,32 Z M0,15.1328302 L6,8 L6,32 L0,32 L0,15.1328302 Z" id="headquarter" fill="#EDEDED" fill-rule="nonzero"></path>
    </g>
</svg>