<?xml version="1.0" encoding="UTF-8" standalone="no"?>
<svg width="81px" height="63px" viewBox="0 0 81 63" version="1.1" xmlns="http://www.w3.org/2000/svg" xmlns:xlink="http://www.w3.org/1999/xlink">
    <!-- Generator: Sketch 50.2 (55047) - http://www.bohemiancoding.com/sketch -->
    <title>Host_Computer_LAN_Zone</title>
    <desc>Created with Sketch.</desc>
    <defs></defs>
    <g id="Page-1" stroke="none" stroke-width="1" fill="none" fill-rule="evenodd">
        <g id="Host_Computer_LAN_Zone" transform="translate(-3.000000, 0.000000)" fill="#636569" fill-rule="nonzero">
            <g id="computer1">
                <path d="M29.9675851,0.466666667 L6.03997839,0.466666667 C4.41383036,0.466666667 3.0199892,1.86666667 3.0199892,3.5 L3.0199892,59.7333333 C3.0199892,61.3666667 4.41383036,62.7666667 6.03997839,62.7666667 L29.9675851,62.7666667 C31.5937331,62.7666667 32.9875743,61.3666667 32.9875743,59.7333333 L32.9875743,3.5 C32.9875743,1.86666667 31.5937331,0.466666667 29.9675851,0.466666667 M11.1507293,58.3333333 C9.98919503,58.3333333 9.05996759,57.4 9.05996759,56.2333333 C9.05996759,55.0666667 9.98919503,54.1333333 11.1507293,54.1333333 C12.3122636,54.1333333 13.2414911,55.0666667 13.2414911,56.2333333 C13.2414911,57.4 12.3122636,58.3333333 11.1507293,58.3333333 M26.715289,45.0333333 L9.75688817,45.0333333 C9.05996759,45.0333333 8.59535386,44.5666667 8.59535386,43.8666667 C8.59535386,43.1666667 9.05996759,42.7 9.75688817,42.7 L26.715289,42.7 C27.4122096,42.7 27.8768233,43.1666667 27.8768233,43.8666667 C27.8768233,44.5666667 27.4122096,45.0333333 26.715289,45.0333333 M26.715289,38.0333333 L9.75688817,38.0333333 C9.05996759,38.0333333 8.59535386,37.5666667 8.59535386,36.8666667 C8.59535386,36.1666667 9.05996759,35.7 9.75688817,35.7 L26.715289,35.7 C27.4122096,35.7 27.8768233,36.1666667 27.8768233,36.8666667 C27.8768233,37.3333333 27.4122096,38.0333333 26.715289,38.0333333 M26.715289,30.8 L9.75688817,30.8 C9.05996759,30.8 8.59535386,30.3333333 8.59535386,29.6333333 C8.59535386,28.9333333 9.05996759,28.4666667 9.75688817,28.4666667 L26.715289,28.4666667 C27.4122096,28.4666667 27.8768233,28.9333333 27.8768233,29.6333333 C27.8768233,30.3333333 27.4122096,30.8 26.715289,30.8 M26.715289,23.8 L9.75688817,23.8 C9.05996759,23.8 8.59535386,23.3333333 8.59535386,22.6333333 C8.59535386,21.9333333 9.05996759,21.4666667 9.75688817,21.4666667 L26.715289,21.4666667 C27.4122096,21.4666667 27.8768233,21.9333333 27.8768233,22.6333333 C27.8768233,23.1 27.4122096,23.8 26.715289,23.8 M26.715289,16.5666667 L9.75688817,16.5666667 C9.05996759,16.5666667 8.59535386,16.1 8.59535386,15.4 C8.59535386,14.7 9.05996759,14.2333333 9.75688817,14.2333333 L26.715289,14.2333333 C27.4122096,14.2333333 27.8768233,14.7 27.8768233,15.4 C27.8768233,16.1 27.4122096,16.5666667 26.715289,16.5666667 M26.715289,9.33333333 L9.75688817,9.33333333 C9.05996759,9.33333333 8.59535386,8.86666667 8.59535386,8.16666667 C8.59535386,7.46666667 9.05996759,7 9.75688817,7 L26.715289,7 C27.4122096,7 27.8768233,7.46666667 27.8768233,8.16666667 C27.8768233,8.86666667 27.4122096,9.33333333 26.715289,9.33333333" id="Shape"></path>
            </g>
            <g id="laptop1" transform="translate(33.684495, 17.500000)">
                <path d="M38.7952458,3.26666667 L12.7768774,3.26666667 C8.13074014,3.26666667 4.41383036,7.23333333 4.41383036,11.6666667 L4.41383036,28.7 C4.41383036,33.1333333 8.363047,37.1 12.7768774,37.1 L39.0275527,37.1 C43.6736899,37.1 47.3905997,33.3666667 47.3905997,28.7 L47.3905997,11.6666667 C47.3905997,7 43.6736899,3.26666667 38.7952458,3.26666667 Z M44.3706105,27.7666667 C44.3706105,31.2666667 41.5829281,33.8333333 38.3306321,33.8333333 L13.7061048,33.8333333 C10.2215019,33.8333333 7.66612642,31.0333333 7.66612642,27.7666667 L7.66612642,12.3666667 C7.66612642,8.86666667 10.4538088,6.3 13.7061048,6.3 L38.3306321,6.3 C41.815235,6.3 44.3706105,9.1 44.3706105,12.3666667 L44.3706105,27.7666667 Z" id="Shape"></path>
                <path d="M44.1383036,42.7 L7.43381956,42.7 C6.27228525,42.7 2.32306861,42 1.62614803,40.3666667 C1.39384117,39.4333333 2.55537547,38.9666667 3.48460292,38.9666667 L47.8552134,38.9666667 C49.0167477,38.9666667 50.178282,39.4333333 49.7136683,40.3666667 C49.2490546,41.7666667 45.2998379,42.7 44.1383036,42.7" id="Shape"></path>
            </g>
        </g>
    </g>
</svg>