<?xml version="1.0" encoding="UTF-8" standalone="no"?>
<svg width="370px" height="90px" viewBox="0 0 370 90" version="1.1" xmlns="http://www.w3.org/2000/svg" xmlns:xlink="http://www.w3.org/1999/xlink">
    <!-- Generator: Sketch 50.2 (55047) - http://www.bohemiancoding.com/sketch -->
    <title>Box_Secure_Mobile_Access</title>
    <desc>Created with Sketch.</desc>
    <defs></defs>
    <g id="Page-1" stroke="none" stroke-width="1" fill="none" fill-rule="evenodd">
        <g id="Box_Secure_Mobile_Access" fill="#636569" fill-rule="nonzero">
            <path d="M348.708218,2.84217094e-14 L321.841453,2.84217094e-14 L48.1362869,2.84217094e-14 L21.2695221,2.84217094e-14 C9.51531252,2.84217094e-14 0,9.52962599 0,21.3015169 L0,67.8285144 C0,79.6004053 9.51531252,89.1300313 21.2695221,89.1300313 L48.1362869,89.1300313 L321.841453,89.1300313 L348.708218,89.1300313 C360.462427,89.1300313 369.97774,79.6004053 369.97774,67.8285144 L369.97774,21.3015169 C370.537464,9.52962599 360.462427,2.84217094e-14 348.708218,2.84217094e-14 Z M26.3070405,50.4509611 L10.634761,50.4509611 L10.634761,38.6790702 L26.3070405,38.6790702 L26.3070405,50.4509611 Z M21.2695221,77.9187066 C15.6722794,77.9187066 11.1944853,73.4341767 11.1944853,67.8285144 L11.1944853,62.222852 L26.8667648,62.222852 L26.8667648,67.8285144 C26.8667648,71.752478 27.9862133,75.1158754 29.6653861,77.9187066 L21.2695221,77.9187066 Z M26.3070405,21.3015169 L26.3070405,26.9071793 L10.634761,26.9071793 L10.634761,21.3015169 C10.634761,15.6958546 15.1125552,11.2113247 20.7097978,11.2113247 L28.5459376,11.2113247 C27.426489,14.5747221 26.3070405,17.9381195 26.3070405,21.3015169 Z M331.91649,67.8285144 C331.91649,73.4341767 327.438695,77.9187066 321.841453,77.9187066 L48.1362869,77.9187066 C42.5390442,77.9187066 38.0612501,73.4341767 38.0612501,67.8285144 L38.0612501,21.3015169 C38.0612501,15.6958546 42.5390442,11.2113247 48.1362869,11.2113247 L321.841453,11.2113247 C327.438695,11.2113247 331.91649,15.6958546 331.91649,21.3015169 L331.91649,67.8285144 Z M348.708218,11.2113247 C354.30546,11.2113247 358.783254,15.6958546 358.783254,21.3015169 L358.783254,26.9071793 L343.110975,26.9071793 L343.110975,21.3015169 C343.110975,17.3775533 341.991526,14.0141559 340.312354,11.2113247 L348.708218,11.2113247 Z M343.110975,38.6790702 L358.783254,38.6790702 L358.783254,50.4509611 L343.110975,50.4509611 L343.110975,38.6790702 Z M348.708218,77.9187066 L340.872078,77.9187066 C342.551251,75.1158754 343.670699,71.1919118 343.670699,67.8285144 L343.670699,62.222852 L359.342979,62.222852 L359.342979,67.8285144 C358.783254,73.4341767 354.30546,77.9187066 348.708218,77.9187066 Z" id="Shape"></path>
            <path d="M124.344444,66.516413 C120.427719,66.516413 117.630058,63.6958424 117.630058,59.7470435 L117.630058,51.2853317 C117.630058,47.3365329 120.427719,44.5159622 124.344444,44.5159622 L143.928072,44.5159622 C147.844797,44.5159622 150.642458,47.3365329 150.642458,51.2853317 L150.642458,59.7470435 C151.20199,63.6958424 147.844797,66.516413 143.928072,66.516413 L124.344444,66.516413 Z M269.822819,46.7724187 L293.882704,46.7724187 L293.882704,66.516413 L269.822819,66.516413 L269.822819,46.7724187 Z M299.478026,41.1312775 L300.037559,41.1312775 L300.037559,21.3872832 L314.585396,21.3872832 C318.502122,21.3872832 321.299783,24.2078538 321.299783,28.1566527 L321.299783,41.1312775 L299.478026,41.1312775 Z M299.478026,46.7724187 L320.74025,46.7724187 L320.74025,59.7470435 C320.74025,63.6958424 317.942589,66.516413 314.025864,66.516413 L299.478026,66.516413 L299.478026,46.7724187 Z" id="Combined-Shape"></path>
        </g>
    </g>
</svg>