<?xml version="1.0" encoding="UTF-8" standalone="no"?>
<svg width="179px" height="254px" viewBox="0 0 179 254" version="1.1" xmlns="http://www.w3.org/2000/svg" xmlns:xlink="http://www.w3.org/1999/xlink">
    <!-- Generator: Sketch 50.2 (55047) - http://www.bohemiancoding.com/sketch -->
    <title>Group 118</title>
    <desc>Created with Sketch.</desc>
    <defs></defs>
    <g id="Page-1" stroke="none" stroke-width="1" fill="none" fill-rule="evenodd">
        <g id="Group-118">
            <g id="Doc" transform="translate(19.000000, 49.000000)" fill="#636569" fill-rule="nonzero">
                <path d="M101.682243,1.4953271 L101.682243,45.0101761 C101.682243,55.1299084 106.70687,59.1778013 115.751199,59.1778013 L158.962994,59.1778013 L101.682243,1.4953271 Z" id="Shape"></path>
                <path d="M118,204.418593 L29.1428383,204.418593 C13.0640309,204.418593 0,191.262941 0,175.071369 L0,62 L14.0689564,62 L14.0689564,174.059396 C14.0689564,184.179128 21.1034346,191.262941 30.1477637,191.262941 L118,191.262941 L118,204.418593 Z M159.783148,156 L144.709266,156 L144.709266,67.8022065 L144.709266,65.77826 L159.783148,65.77826 L159.783148,156 Z M72,0 L94.462993,0 L94.462993,1.01197323 L94.462993,15.1795985 L72,15.1795985 L72,0 Z" id="Combined-Shape"></path>
            </g>
            <path d="M131.823773,140.147135 C149.36983,140.012505 163.728968,154.115722 163.858005,171.635544 C164.038057,189.143399 149.846967,203.435097 132.273903,203.569727 C114.712842,203.791118 100.368708,189.646016 100.233669,172.126195 C100.080625,154.600389 114.226702,140.281764 131.823773,140.147135 M58.21556,247.007277 C62.389763,251.055146 69.2197313,250.992319 73.3009075,246.845721 L109.0142,210.25634 C115.853171,214.295233 123.808463,216.655742 132.360928,216.598898 C157.205088,216.512137 177.178844,196.224925 176.998792,171.468005 C176.803736,146.73801 156.514889,126.815795 131.670729,127.001285 C106.832571,127.189767 86.8438104,147.357307 87.029864,172.126195 C87.0898813,180.616846 89.5866009,188.551028 93.7758082,195.303459 L58.0625159,231.928742 C53.9243233,236.129191 53.9843406,242.890598 58.21556,247.007277" id="Scan" fill="#FE791A" transform="translate(116.000000, 188.500000) scale(-1, 1) translate(-116.000000, -188.500000) "></path>
            <g id="Group-60" fill="#02A289" fill-rule="nonzero">
                <g id="Lock">
                    <path d="M72,44.4 L66,44.4 L66,26.48 C66,12.24 54.32,0.64 40,0.64 C25.68,0.64 14,12.24 14,26.48 L14,35.2 L24,35.2 L24,26.48 C24,17.68 31.12,10.56 40,10.56 C48.8,10.56 56,17.68 56,26.48 L56,44.4 L31.28,44.4 L24,44.4 L14,44.4 L8,44.4 C3.6,44.4 0,48 0,52.4 L0,92.24 C0,96.64 3.6,100.16 8,100.16 L72,100.16 C76.4,100.16 80,96.56 80,92.24 L80,52.4 C80,48 76.4,44.4 72,44.4 Z M46,83.28 C46,84.96 44.64,86.24 42.96,86.24 L36.96,86.24 C35.28,86.24 34,84.88 34,83.28 L35.68,73.04 C33.52,71.6 32,69.12 32,66.32 C32,61.92 35.6,58.32 40,58.32 C44.4,58.32 48,61.92 48,66.32 C48,69.12 46.56,71.6 44.32,73.04 C44.32,73.04 45.12,77.68 46,83.28 Z" id="Shape"></path>
                </g>
            </g>
        </g>
    </g>
</svg>