<?xml version="1.0" encoding="UTF-8" standalone="no"?>
<svg width="129px" height="109px" viewBox="0 0 129 109" version="1.1" xmlns="http://www.w3.org/2000/svg" xmlns:xlink="http://www.w3.org/1999/xlink">
    <!-- Generator: Sketch 50.2 (55047) - http://www.bohemiancoding.com/sketch -->
    <title>Group 116</title>
    <desc>Created with Sketch.</desc>
    <defs></defs>
    <g id="Page-1" stroke="none" stroke-width="1" fill="none" fill-rule="evenodd">
        <g id="Group-116">
            <g id="Files" fill="#636569" fill-rule="nonzero">
                <path d="M76.78,85.2866667 L17.9666667,85.2866667 C12.1733333,85.2866667 8.36,80.8133333 8.36,75.68 L8.36,41.6533333 C9.02,38.4266667 11.5866667,35.86 14.8133333,35.86 L39.2333333,35.86 C40.5533333,35.86 41.8,35.2 43.12,34.6133333 L52.7266667,26.9133333 C53.3866667,26.2533333 54.0466667,26.2533333 54.0466667,26.2533333 L96.4333333,26.2533333 C99.66,26.2533333 102.886667,28.82 102.886667,32.0466667 L102.886667,46.9333333 L109.926667,46.9333333 L109.926667,25.6666667 C110.586667,16.06 102.886667,8.36 93.2066667,8.36 L53.9733333,8.36 L53.3133333,8.36 L43.0466667,1.32 C41.7266667,0.66 39.82,0 38.5,0 L17.3066667,0 C7.7,0 0,7.7 0,17.3066667 L0,76.2666667 C0,85.8733333 7.7,93.5733333 17.3066667,93.5733333 L76.7066667,93.5733333 L76.7066667,85.2866667 L76.78,85.2866667 Z M17.9666667,7.04 L39.16,7.04 C39.16,7.04 39.16,7.04 39.82,7.04 L50.0866667,14.08 C51.4066667,15.3266667 53.3133333,15.3266667 55.22,15.3266667 L94.38,15.3266667 C99.5133333,15.3266667 103.986667,19.8 103.986667,24.9333333 C102.08,23.6866667 100.1,22.3666667 97.5333333,22.3666667 L55.22,22.3666667 C53.9,22.3666667 52.6533333,23.0266667 51.3333333,23.6133333 L41.7266667,31.3866667 C41.0666667,32.0466667 40.4066667,32.0466667 39.82,32.0466667 L15.4,32.0466667 C12.8333333,32.0466667 10.2666667,32.7066667 8.94666667,34.6133333 L8.94666667,17.3066667 C8.36,11.5133333 12.8333333,7.04 17.9666667,7.04 Z" id="Shape"></path>
            </g>
            <g id="Group-60" transform="translate(81.000000, 51.000000)" fill="#02A289">
                <path d="M8.40001981,15.5223815 C8.40001981,6.94933146 15.3845612,0 24,0 C32.6154388,0 39.5999802,6.94946288 39.5999802,15.5223815 L39.5999802,23.8804251 L43.1996302,23.8804251 C45.8514895,23.8804251 48,26.0177408 48,28.6565627 L48,52.5373821 C48,55.1760727 45.8514895,57.3132569 43.1996302,57.3132569 L4.80010566,57.3132569 C2.14811431,57.3132569 0,55.1760727 0,52.5373821 L0,28.6565627 C0,26.0177408 2.14811431,23.8804251 4.80010566,23.8804251 L8.40001981,23.8804251 L8.40001981,15.5223815 Z M14.4000528,23.8804251 L33.5999472,23.8804251 L33.5999472,15.5223815 C33.5999472,10.244869 29.3038506,5.96997486 23.9998679,5.96997486 C18.6958852,5.96997486 14.4000528,10.244869 14.4000528,15.5223815 L14.4000528,23.8804251 Z M19.1998943,37.0148692 C19.1998943,38.6985162 20.076363,40.1793791 21.396085,41.0270509 L20.3999538,47.1643259 C20.3999538,48.1549848 21.2037796,48.9549504 22.1997788,48.9549504 L25.7999571,48.9549504 C26.7960883,48.9549504 27.6000462,48.1549848 27.6000462,47.1643259 C27.0727914,43.8455267 26.603915,41.0270509 26.603915,41.0270509 C27.9235049,40.1793791 28.7997094,38.6986476 28.7997094,37.0148692 C28.7997094,34.3761787 26.6518593,32.2388631 23.9998679,32.2388631 C21.3478766,32.2388631 19.1998943,34.3761787 19.1998943,37.0148692 Z" id="Lock"></path>
            </g>
        </g>
    </g>
</svg>