<?xml version="1.0" encoding="UTF-8" standalone="no"?>
<!DOCTYPE svg PUBLIC "-//W3C//DTD SVG 1.1//EN" "http://www.w3.org/Graphics/SVG/1.1/DTD/svg11.dtd">
<svg width="100%" height="100%" viewBox="0 0 170 26" version="1.1" xmlns="http://www.w3.org/2000/svg" xmlns:xlink="http://www.w3.org/1999/xlink" xml:space="preserve" xmlns:serif="http://www.serif.com/" style="fill-rule:evenodd;clip-rule:evenodd;stroke-linejoin:round;stroke-miterlimit:1.41421;">
    <g transform="matrix(1,0,0,1,-615,-353)">
        <g transform="matrix(1,0,0,1,-1,0)">
            <g transform="matrix(1,0,0,1,614,373)">
                <g id="Re-encrypted">
                    <path d="M17.948,-1.008C17.948,-0.672 17.813,-0.387 17.542,-0.154C17.271,0.079 16.959,0.196 16.604,0.196C16.081,0.196 15.661,-0.037 15.344,-0.504L11.592,-6.328C11.163,-7 10.705,-7.471 10.22,-7.742C9.735,-8.013 9.1,-8.148 8.316,-8.148L5.152,-8.148L5.152,-1.316C5.152,-0.868 5.026,-0.513 4.774,-0.252C4.522,0.009 4.172,0.14 3.724,0.14C3.295,0.14 2.949,0.009 2.688,-0.252C2.427,-0.513 2.296,-0.868 2.296,-1.316L2.296,-18.34C2.296,-18.769 2.422,-19.11 2.674,-19.362C2.926,-19.614 3.276,-19.74 3.724,-19.74L10.696,-19.74C12.88,-19.74 14.546,-19.255 15.694,-18.284C16.842,-17.313 17.416,-15.895 17.416,-14.028C17.416,-12.479 16.977,-11.223 16.1,-10.262C15.223,-9.301 13.972,-8.689 12.348,-8.428C12.833,-8.297 13.272,-8.064 13.664,-7.728C14.056,-7.392 14.439,-6.925 14.812,-6.328L17.696,-1.792C17.864,-1.549 17.948,-1.288 17.948,-1.008ZM10.36,-10.472C11.816,-10.472 12.894,-10.757 13.594,-11.326C14.294,-11.895 14.644,-12.777 14.644,-13.972C14.644,-15.167 14.299,-16.039 13.608,-16.59C12.917,-17.141 11.835,-17.416 10.36,-17.416L5.124,-17.416L5.124,-10.472L10.36,-10.472Z" style="fill-rule:nonzero;"/>
                    <path d="M32.482,-3.136C32.65,-2.931 32.734,-2.669 32.734,-2.352C32.734,-1.811 32.398,-1.353 31.726,-0.98C31.073,-0.607 30.359,-0.317 29.584,-0.112C28.809,0.093 28.067,0.196 27.358,0.196C25.193,0.196 23.485,-0.434 22.234,-1.694C20.983,-2.954 20.358,-4.676 20.358,-6.86C20.358,-8.26 20.633,-9.501 21.184,-10.584C21.735,-11.667 22.509,-12.507 23.508,-13.104C24.507,-13.701 25.641,-14 26.91,-14C28.739,-14 30.186,-13.412 31.25,-12.236C32.314,-11.06 32.846,-9.473 32.846,-7.476C32.846,-6.729 32.51,-6.356 31.838,-6.356L23.186,-6.356C23.373,-3.463 24.763,-2.016 27.358,-2.016C28.049,-2.016 28.646,-2.109 29.15,-2.296C29.654,-2.483 30.186,-2.725 30.746,-3.024C30.802,-3.061 30.956,-3.141 31.208,-3.262C31.46,-3.383 31.67,-3.444 31.838,-3.444C32.099,-3.444 32.314,-3.341 32.482,-3.136ZM24.362,-10.892C23.709,-10.201 23.317,-9.231 23.186,-7.98L30.41,-7.98C30.354,-9.249 30.032,-10.225 29.444,-10.906C28.856,-11.587 28.03,-11.928 26.966,-11.928C25.883,-11.928 25.015,-11.583 24.362,-10.892Z" style="fill-rule:nonzero;"/>
                    <path d="M36.236,-6.622C36.012,-6.818 35.9,-7.093 35.9,-7.448C35.9,-7.803 36.012,-8.083 36.236,-8.288C36.46,-8.493 36.787,-8.596 37.216,-8.596L43.18,-8.596C43.609,-8.596 43.936,-8.493 44.16,-8.288C44.384,-8.083 44.496,-7.803 44.496,-7.448C44.496,-7.093 44.384,-6.818 44.16,-6.622C43.936,-6.426 43.609,-6.328 43.18,-6.328L37.216,-6.328C36.787,-6.328 36.46,-6.426 36.236,-6.622Z" style="fill-rule:nonzero;"/>
                    <path d="M59.786,-3.136C59.954,-2.931 60.038,-2.669 60.038,-2.352C60.038,-1.811 59.702,-1.353 59.03,-0.98C58.377,-0.607 57.663,-0.317 56.888,-0.112C56.113,0.093 55.371,0.196 54.662,0.196C52.497,0.196 50.789,-0.434 49.538,-1.694C48.287,-2.954 47.662,-4.676 47.662,-6.86C47.662,-8.26 47.937,-9.501 48.488,-10.584C49.039,-11.667 49.813,-12.507 50.812,-13.104C51.811,-13.701 52.945,-14 54.214,-14C56.043,-14 57.49,-13.412 58.554,-12.236C59.618,-11.06 60.15,-9.473 60.15,-7.476C60.15,-6.729 59.814,-6.356 59.142,-6.356L50.49,-6.356C50.677,-3.463 52.067,-2.016 54.662,-2.016C55.353,-2.016 55.95,-2.109 56.454,-2.296C56.958,-2.483 57.49,-2.725 58.05,-3.024C58.106,-3.061 58.26,-3.141 58.512,-3.262C58.764,-3.383 58.974,-3.444 59.142,-3.444C59.403,-3.444 59.618,-3.341 59.786,-3.136ZM51.666,-10.892C51.013,-10.201 50.621,-9.231 50.49,-7.98L57.714,-7.98C57.658,-9.249 57.336,-10.225 56.748,-10.906C56.16,-11.587 55.334,-11.928 54.27,-11.928C53.187,-11.928 52.319,-11.583 51.666,-10.892Z" style="fill-rule:nonzero;"/>
                    <path d="M75.384,-8.484L75.384,-1.204C75.384,-0.775 75.258,-0.443 75.006,-0.21C74.754,0.023 74.404,0.14 73.956,0.14C73.527,0.14 73.186,0.019 72.934,-0.224C72.682,-0.467 72.556,-0.793 72.556,-1.204L72.556,-8.344C72.556,-9.501 72.327,-10.351 71.87,-10.892C71.413,-11.433 70.699,-11.704 69.728,-11.704C68.589,-11.704 67.675,-11.349 66.984,-10.64C66.293,-9.931 65.948,-8.979 65.948,-7.784L65.948,-1.204C65.948,-0.793 65.822,-0.467 65.57,-0.224C65.318,0.019 64.977,0.14 64.548,0.14C64.119,0.14 63.773,0.019 63.512,-0.224C63.251,-0.467 63.12,-0.793 63.12,-1.204L63.12,-12.6C63.12,-12.992 63.255,-13.314 63.526,-13.566C63.797,-13.818 64.137,-13.944 64.548,-13.944C64.959,-13.944 65.285,-13.823 65.528,-13.58C65.771,-13.337 65.892,-13.02 65.892,-12.628L65.892,-11.48C66.34,-12.301 66.965,-12.927 67.768,-13.356C68.571,-13.785 69.476,-14 70.484,-14C73.751,-14 75.384,-12.161 75.384,-8.484Z" style="fill-rule:nonzero;"/>
                    <path d="M81.476,-0.672C80.477,-1.251 79.703,-2.072 79.152,-3.136C78.601,-4.2 78.326,-5.432 78.326,-6.832C78.326,-8.251 78.611,-9.501 79.18,-10.584C79.749,-11.667 80.547,-12.507 81.574,-13.104C82.601,-13.701 83.777,-14 85.102,-14C85.811,-14 86.525,-13.897 87.244,-13.692C87.963,-13.487 88.602,-13.207 89.162,-12.852C89.759,-12.441 90.058,-11.965 90.058,-11.424C90.058,-11.107 89.974,-10.841 89.806,-10.626C89.638,-10.411 89.423,-10.304 89.162,-10.304C88.994,-10.304 88.826,-10.346 88.658,-10.43C88.49,-10.514 88.275,-10.64 88.014,-10.808C87.547,-11.107 87.113,-11.335 86.712,-11.494C86.311,-11.653 85.83,-11.732 85.27,-11.732C84.001,-11.732 83.016,-11.303 82.316,-10.444C81.616,-9.585 81.266,-8.391 81.266,-6.86C81.266,-5.329 81.611,-4.149 82.302,-3.318C82.993,-2.487 83.973,-2.072 85.242,-2.072C85.802,-2.072 86.297,-2.156 86.726,-2.324C87.155,-2.492 87.594,-2.716 88.042,-2.996C88.247,-3.127 88.453,-3.239 88.658,-3.332C88.863,-3.425 89.05,-3.472 89.218,-3.472C89.479,-3.472 89.694,-3.365 89.862,-3.15C90.03,-2.935 90.114,-2.669 90.114,-2.352C90.114,-2.091 90.044,-1.853 89.904,-1.638C89.764,-1.423 89.526,-1.204 89.19,-0.98C88.63,-0.607 87.977,-0.317 87.23,-0.112C86.483,0.093 85.727,0.196 84.962,0.196C83.637,0.196 82.475,-0.093 81.476,-0.672Z" style="fill-rule:nonzero;"/>
                    <path d="M101.008,-12.796C101.008,-12.385 100.905,-12.077 100.7,-11.872C100.495,-11.667 100.14,-11.545 99.636,-11.508L98.796,-11.424C97.62,-11.312 96.747,-10.901 96.178,-10.192C95.609,-9.483 95.324,-8.624 95.324,-7.616L95.324,-1.204C95.324,-0.756 95.193,-0.42 94.932,-0.196C94.671,0.028 94.335,0.14 93.924,0.14C93.513,0.14 93.173,0.028 92.902,-0.196C92.631,-0.42 92.496,-0.756 92.496,-1.204L92.496,-12.6C92.496,-13.029 92.631,-13.361 92.902,-13.594C93.173,-13.827 93.513,-13.944 93.924,-13.944C94.297,-13.944 94.61,-13.827 94.862,-13.594C95.114,-13.361 95.24,-13.039 95.24,-12.628L95.24,-11.284C95.613,-12.105 96.155,-12.731 96.864,-13.16C97.573,-13.589 98.376,-13.841 99.272,-13.916L99.664,-13.944C100.56,-14 101.008,-13.617 101.008,-12.796Z" style="fill-rule:nonzero;"/>
                    <path d="M113.652,-13.72C113.867,-13.851 114.095,-13.916 114.338,-13.916C114.693,-13.916 115.005,-13.795 115.276,-13.552C115.547,-13.309 115.682,-13.02 115.682,-12.684C115.682,-12.497 115.645,-12.32 115.57,-12.152L107.786,4.368C107.674,4.629 107.511,4.83 107.296,4.97C107.081,5.11 106.853,5.18 106.61,5.18C106.274,5.18 105.971,5.068 105.7,4.844C105.429,4.62 105.294,4.34 105.294,4.004C105.294,3.855 105.341,3.668 105.434,3.444L107.366,-0.672L101.962,-12.152C101.887,-12.301 101.85,-12.469 101.85,-12.656C101.85,-13.011 101.999,-13.309 102.298,-13.552C102.597,-13.795 102.933,-13.916 103.306,-13.916C103.866,-13.916 104.267,-13.655 104.51,-13.132L108.85,-3.5L113.162,-13.104C113.274,-13.384 113.437,-13.589 113.652,-13.72Z" style="fill-rule:nonzero;"/>
                    <path d="M128.354,-13.104C129.278,-12.507 129.997,-11.667 130.51,-10.584C131.023,-9.501 131.28,-8.251 131.28,-6.832C131.28,-5.432 131.028,-4.2 130.524,-3.136C130.02,-2.072 129.306,-1.251 128.382,-0.672C127.458,-0.093 126.399,0.196 125.204,0.196C124.177,0.196 123.272,-0.023 122.488,-0.462C121.704,-0.901 121.107,-1.531 120.696,-2.352L120.696,3.892C120.696,4.284 120.57,4.597 120.318,4.83C120.066,5.063 119.735,5.18 119.324,5.18C118.895,5.18 118.545,5.059 118.274,4.816C118.003,4.573 117.868,4.247 117.868,3.836L117.868,-12.572C117.868,-12.983 117.999,-13.314 118.26,-13.566C118.521,-13.818 118.867,-13.944 119.296,-13.944C119.707,-13.944 120.043,-13.818 120.304,-13.566C120.565,-13.314 120.696,-12.983 120.696,-12.572L120.696,-11.424C121.107,-12.245 121.704,-12.88 122.488,-13.328C123.272,-13.776 124.177,-14 125.204,-14C126.38,-14 127.43,-13.701 128.354,-13.104ZM127.388,-3.29C128.06,-4.121 128.396,-5.301 128.396,-6.832C128.396,-8.381 128.055,-9.585 127.374,-10.444C126.693,-11.303 125.745,-11.732 124.532,-11.732C123.3,-11.732 122.353,-11.312 121.69,-10.472C121.027,-9.632 120.696,-8.437 120.696,-6.888C120.696,-5.339 121.027,-4.144 121.69,-3.304C122.353,-2.464 123.3,-2.044 124.532,-2.044C125.764,-2.044 126.716,-2.459 127.388,-3.29Z" style="fill-rule:nonzero;"/>
                    <path d="M141.796,-1.694C141.973,-1.517 142.062,-1.269 142.062,-0.952C142.062,-0.579 141.917,-0.294 141.628,-0.098C141.339,0.098 140.914,0.177 140.354,0.14L139.598,0.084C138.086,-0.028 136.957,-0.49 136.21,-1.302C135.463,-2.114 135.09,-3.313 135.09,-4.9L135.09,-11.48L133.41,-11.48C132.589,-11.48 132.178,-11.844 132.178,-12.572C132.178,-12.908 132.285,-13.174 132.5,-13.37C132.715,-13.566 133.018,-13.664 133.41,-13.664L135.09,-13.664L135.09,-16.548C135.09,-16.977 135.216,-17.313 135.468,-17.556C135.72,-17.799 136.061,-17.92 136.49,-17.92C136.919,-17.92 137.265,-17.799 137.526,-17.556C137.787,-17.313 137.918,-16.977 137.918,-16.548L137.918,-13.664L140.69,-13.664C141.082,-13.664 141.385,-13.566 141.6,-13.37C141.815,-13.174 141.922,-12.908 141.922,-12.572C141.922,-12.217 141.815,-11.947 141.6,-11.76C141.385,-11.573 141.082,-11.48 140.69,-11.48L137.918,-11.48L137.918,-4.704C137.918,-3.827 138.1,-3.183 138.464,-2.772C138.828,-2.361 139.383,-2.128 140.13,-2.072L140.914,-2.016C141.325,-1.979 141.619,-1.871 141.796,-1.694Z" style="fill-rule:nonzero;"/>
                    <path d="M155.308,-3.136C155.476,-2.931 155.56,-2.669 155.56,-2.352C155.56,-1.811 155.224,-1.353 154.552,-0.98C153.899,-0.607 153.185,-0.317 152.41,-0.112C151.635,0.093 150.893,0.196 150.184,0.196C148.019,0.196 146.311,-0.434 145.06,-1.694C143.809,-2.954 143.184,-4.676 143.184,-6.86C143.184,-8.26 143.459,-9.501 144.01,-10.584C144.561,-11.667 145.335,-12.507 146.334,-13.104C147.333,-13.701 148.467,-14 149.736,-14C151.565,-14 153.012,-13.412 154.076,-12.236C155.14,-11.06 155.672,-9.473 155.672,-7.476C155.672,-6.729 155.336,-6.356 154.664,-6.356L146.012,-6.356C146.199,-3.463 147.589,-2.016 150.184,-2.016C150.875,-2.016 151.472,-2.109 151.976,-2.296C152.48,-2.483 153.012,-2.725 153.572,-3.024C153.628,-3.061 153.782,-3.141 154.034,-3.262C154.286,-3.383 154.496,-3.444 154.664,-3.444C154.925,-3.444 155.14,-3.341 155.308,-3.136ZM147.188,-10.892C146.535,-10.201 146.143,-9.231 146.012,-7.98L153.236,-7.98C153.18,-9.249 152.858,-10.225 152.27,-10.906C151.682,-11.587 150.856,-11.928 149.792,-11.928C148.709,-11.928 147.841,-11.583 147.188,-10.892Z" style="fill-rule:nonzero;"/>
                    <path d="M170.85,-19.516C171.112,-19.273 171.242,-18.947 171.242,-18.536L171.242,-1.232C171.242,-0.803 171.116,-0.467 170.864,-0.224C170.612,0.019 170.272,0.14 169.842,0.14C169.413,0.14 169.072,0.019 168.82,-0.224C168.568,-0.467 168.442,-0.803 168.442,-1.232L168.442,-2.352C168.032,-1.531 167.434,-0.901 166.65,-0.462C165.866,-0.023 164.961,0.196 163.934,0.196C162.758,0.196 161.708,-0.103 160.784,-0.7C159.86,-1.297 159.142,-2.137 158.628,-3.22C158.115,-4.303 157.858,-5.544 157.858,-6.944C157.858,-8.363 158.115,-9.604 158.628,-10.668C159.142,-11.732 159.856,-12.553 160.77,-13.132C161.685,-13.711 162.74,-14 163.934,-14C164.961,-14 165.862,-13.781 166.636,-13.342C167.411,-12.903 168.004,-12.283 168.414,-11.48L168.414,-18.592C168.414,-18.984 168.54,-19.297 168.792,-19.53C169.044,-19.763 169.385,-19.88 169.814,-19.88C170.244,-19.88 170.589,-19.759 170.85,-19.516ZM167.434,-3.304C168.106,-4.144 168.442,-5.339 168.442,-6.888C168.442,-8.437 168.111,-9.632 167.448,-10.472C166.786,-11.312 165.838,-11.732 164.606,-11.732C163.374,-11.732 162.418,-11.317 161.736,-10.486C161.055,-9.655 160.714,-8.475 160.714,-6.944C160.714,-5.413 161.06,-4.214 161.75,-3.346C162.441,-2.478 163.393,-2.044 164.606,-2.044C165.82,-2.044 166.762,-2.464 167.434,-3.304Z" style="fill-rule:nonzero;"/>
                </g>
            </g>
        </g>
    </g>
</svg>
