<?xml version="1.0" encoding="UTF-8" standalone="no"?>
<svg width="720px" height="511px" viewBox="0 0 720 511" version="1.1" xmlns="http://www.w3.org/2000/svg" xmlns:xlink="http://www.w3.org/1999/xlink">
    <!-- Generator: Sketch 50.2 (55047) - http://www.bohemiancoding.com/sketch -->
    <title>Rectangle 32</title>
    <desc>Created with Sketch.</desc>
    <defs></defs>
    <g id="Page-1" stroke="none" stroke-width="1" fill="none" fill-rule="evenodd">
        <path d="M12,-5.68434189e-14 L708,-6.39488462e-14 C714.627417,-6.5166283e-14 720,5.372583 720,12 L720,442.979237 C720,449.606654 714.627417,454.979237 708,454.979237 L422.474247,454.979237 C418.036328,454.979237 413.960743,457.428563 411.877927,461.347363 L388.875127,504.626925 C385.764729,510.479111 378.499119,512.701769 372.646933,509.591371 C370.578775,508.492159 368.877493,506.811754 367.75283,504.757326 L343.917367,461.216962 C341.811844,457.370791 337.776166,454.979237 333.39139,454.979237 L12,454.979237 C5.372583,454.979237 4.73972874e-14,449.606654 1.42108547e-14,442.979237 L0,12 C-8.11624501e-16,5.372583 5.372583,-5.74023389e-14 12,-5.86197757e-14 Z" id="Rectangle-32" fill="#F2F2F2"></path>
    </g>
</svg>