<?xml version="1.0" encoding="UTF-8" standalone="no"?>
<!DOCTYPE svg PUBLIC "-//W3C//DTD SVG 1.1//EN" "http://www.w3.org/Graphics/SVG/1.1/DTD/svg11.dtd">
<svg width="100%" height="100%" viewBox="0 0 182 51" version="1.1" xmlns="http://www.w3.org/2000/svg" xmlns:xlink="http://www.w3.org/1999/xlink" xml:space="preserve" xmlns:serif="http://www.serif.com/" style="fill-rule:evenodd;clip-rule:evenodd;stroke-linejoin:round;stroke-miterlimit:1.41421;">
    <g transform="matrix(1,0,0,1,-336,-353)">
        <g transform="matrix(1,0,0,1,-1,0)">
            <g id="SSL-decrypted-and-sc">
                <g transform="matrix(1,0,0,1,336,373)">
                    <path d="M4.774,-0.364C3.495,-0.756 2.473,-1.297 1.708,-1.988C1.353,-2.287 1.176,-2.669 1.176,-3.136C1.176,-3.472 1.269,-3.757 1.456,-3.99C1.643,-4.223 1.867,-4.34 2.128,-4.34C2.389,-4.34 2.707,-4.219 3.08,-3.976C4.741,-2.744 6.636,-2.128 8.764,-2.128C10.257,-2.128 11.405,-2.408 12.208,-2.968C13.011,-3.528 13.412,-4.331 13.412,-5.376C13.412,-6.197 13.039,-6.813 12.292,-7.224C11.545,-7.635 10.351,-8.027 8.708,-8.4C7.14,-8.736 5.852,-9.119 4.844,-9.548C3.836,-9.977 3.047,-10.561 2.478,-11.298C1.909,-12.035 1.624,-12.973 1.624,-14.112C1.624,-15.251 1.937,-16.263 2.562,-17.15C3.187,-18.037 4.06,-18.727 5.18,-19.222C6.3,-19.717 7.579,-19.964 9.016,-19.964C10.341,-19.964 11.564,-19.777 12.684,-19.404C13.804,-19.031 14.756,-18.48 15.54,-17.752C15.913,-17.435 16.1,-17.052 16.1,-16.604C16.1,-16.287 16.002,-16.007 15.806,-15.764C15.61,-15.521 15.381,-15.4 15.12,-15.4C14.877,-15.4 14.569,-15.521 14.196,-15.764C13.337,-16.417 12.53,-16.889 11.774,-17.178C11.018,-17.467 10.108,-17.612 9.044,-17.612C7.607,-17.612 6.487,-17.318 5.684,-16.73C4.881,-16.142 4.48,-15.325 4.48,-14.28C4.48,-13.384 4.835,-12.707 5.544,-12.25C6.253,-11.793 7.392,-11.377 8.96,-11.004C10.603,-10.631 11.933,-10.243 12.95,-9.842C13.967,-9.441 14.779,-8.89 15.386,-8.19C15.993,-7.49 16.296,-6.589 16.296,-5.488C16.296,-4.368 15.983,-3.374 15.358,-2.506C14.733,-1.638 13.855,-0.966 12.726,-0.49C11.597,-0.014 10.295,0.224 8.82,0.224C7.401,0.224 6.053,0.028 4.774,-0.364Z" style="fill-rule:nonzero;"/>
                    <path d="M22.192,-0.364C20.913,-0.756 19.891,-1.297 19.126,-1.988C18.771,-2.287 18.594,-2.669 18.594,-3.136C18.594,-3.472 18.687,-3.757 18.874,-3.99C19.061,-4.223 19.285,-4.34 19.546,-4.34C19.807,-4.34 20.125,-4.219 20.498,-3.976C22.159,-2.744 24.054,-2.128 26.182,-2.128C27.675,-2.128 28.823,-2.408 29.626,-2.968C30.429,-3.528 30.83,-4.331 30.83,-5.376C30.83,-6.197 30.457,-6.813 29.71,-7.224C28.963,-7.635 27.769,-8.027 26.126,-8.4C24.558,-8.736 23.27,-9.119 22.262,-9.548C21.254,-9.977 20.465,-10.561 19.896,-11.298C19.327,-12.035 19.042,-12.973 19.042,-14.112C19.042,-15.251 19.355,-16.263 19.98,-17.15C20.605,-18.037 21.478,-18.727 22.598,-19.222C23.718,-19.717 24.997,-19.964 26.434,-19.964C27.759,-19.964 28.982,-19.777 30.102,-19.404C31.222,-19.031 32.174,-18.48 32.958,-17.752C33.331,-17.435 33.518,-17.052 33.518,-16.604C33.518,-16.287 33.42,-16.007 33.224,-15.764C33.028,-15.521 32.799,-15.4 32.538,-15.4C32.295,-15.4 31.987,-15.521 31.614,-15.764C30.755,-16.417 29.948,-16.889 29.192,-17.178C28.436,-17.467 27.526,-17.612 26.462,-17.612C25.025,-17.612 23.905,-17.318 23.102,-16.73C22.299,-16.142 21.898,-15.325 21.898,-14.28C21.898,-13.384 22.253,-12.707 22.962,-12.25C23.671,-11.793 24.81,-11.377 26.378,-11.004C28.021,-10.631 29.351,-10.243 30.368,-9.842C31.385,-9.441 32.197,-8.89 32.804,-8.19C33.411,-7.49 33.714,-6.589 33.714,-5.488C33.714,-4.368 33.401,-3.374 32.776,-2.506C32.151,-1.638 31.273,-0.966 30.144,-0.49C29.015,-0.014 27.713,0.224 26.238,0.224C24.819,0.224 23.471,0.028 22.192,-0.364Z" style="fill-rule:nonzero;"/>
                    <path d="M37.51,-0.364C37.258,-0.607 37.132,-0.933 37.132,-1.344L37.132,-18.424C37.132,-18.853 37.263,-19.203 37.524,-19.474C37.785,-19.745 38.131,-19.88 38.56,-19.88C39.008,-19.88 39.363,-19.749 39.624,-19.488C39.885,-19.227 40.016,-18.872 40.016,-18.424L40.016,-2.408L48.528,-2.408C48.957,-2.408 49.289,-2.305 49.522,-2.1C49.755,-1.895 49.872,-1.596 49.872,-1.204C49.872,-0.812 49.755,-0.513 49.522,-0.308C49.289,-0.103 48.957,0 48.528,0L38.532,0C38.103,0 37.762,-0.121 37.51,-0.364Z" style="fill-rule:nonzero;"/>
                    <path d="M71.436,-19.516C71.697,-19.273 71.828,-18.947 71.828,-18.536L71.828,-1.232C71.828,-0.803 71.702,-0.467 71.45,-0.224C71.198,0.019 70.857,0.14 70.428,0.14C69.999,0.14 69.658,0.019 69.406,-0.224C69.154,-0.467 69.028,-0.803 69.028,-1.232L69.028,-2.352C68.617,-1.531 68.02,-0.901 67.236,-0.462C66.452,-0.023 65.547,0.196 64.52,0.196C63.344,0.196 62.294,-0.103 61.37,-0.7C60.446,-1.297 59.727,-2.137 59.214,-3.22C58.701,-4.303 58.444,-5.544 58.444,-6.944C58.444,-8.363 58.701,-9.604 59.214,-10.668C59.727,-11.732 60.441,-12.553 61.356,-13.132C62.271,-13.711 63.325,-14 64.52,-14C65.547,-14 66.447,-13.781 67.222,-13.342C67.997,-12.903 68.589,-12.283 69,-11.48L69,-18.592C69,-18.984 69.126,-19.297 69.378,-19.53C69.63,-19.763 69.971,-19.88 70.4,-19.88C70.829,-19.88 71.175,-19.759 71.436,-19.516ZM68.02,-3.304C68.692,-4.144 69.028,-5.339 69.028,-6.888C69.028,-8.437 68.697,-9.632 68.034,-10.472C67.371,-11.312 66.424,-11.732 65.192,-11.732C63.96,-11.732 63.003,-11.317 62.322,-10.486C61.641,-9.655 61.3,-8.475 61.3,-6.944C61.3,-5.413 61.645,-4.214 62.336,-3.346C63.027,-2.478 63.979,-2.044 65.192,-2.044C66.405,-2.044 67.348,-2.464 68.02,-3.304Z" style="fill-rule:nonzero;"/>
                    <path d="M86.978,-3.136C87.146,-2.931 87.23,-2.669 87.23,-2.352C87.23,-1.811 86.894,-1.353 86.222,-0.98C85.569,-0.607 84.855,-0.317 84.08,-0.112C83.305,0.093 82.563,0.196 81.854,0.196C79.689,0.196 77.981,-0.434 76.73,-1.694C75.479,-2.954 74.854,-4.676 74.854,-6.86C74.854,-8.26 75.129,-9.501 75.68,-10.584C76.231,-11.667 77.005,-12.507 78.004,-13.104C79.003,-13.701 80.137,-14 81.406,-14C83.235,-14 84.682,-13.412 85.746,-12.236C86.81,-11.06 87.342,-9.473 87.342,-7.476C87.342,-6.729 87.006,-6.356 86.334,-6.356L77.682,-6.356C77.869,-3.463 79.259,-2.016 81.854,-2.016C82.545,-2.016 83.142,-2.109 83.646,-2.296C84.15,-2.483 84.682,-2.725 85.242,-3.024C85.298,-3.061 85.452,-3.141 85.704,-3.262C85.956,-3.383 86.166,-3.444 86.334,-3.444C86.595,-3.444 86.81,-3.341 86.978,-3.136ZM78.858,-10.892C78.205,-10.201 77.813,-9.231 77.682,-7.98L84.906,-7.98C84.85,-9.249 84.528,-10.225 83.94,-10.906C83.352,-11.587 82.526,-11.928 81.462,-11.928C80.379,-11.928 79.511,-11.583 78.858,-10.892Z" style="fill-rule:nonzero;"/>
                    <path d="M92.678,-0.672C91.679,-1.251 90.905,-2.072 90.354,-3.136C89.803,-4.2 89.528,-5.432 89.528,-6.832C89.528,-8.251 89.813,-9.501 90.382,-10.584C90.951,-11.667 91.749,-12.507 92.776,-13.104C93.803,-13.701 94.979,-14 96.304,-14C97.013,-14 97.727,-13.897 98.446,-13.692C99.165,-13.487 99.804,-13.207 100.364,-12.852C100.961,-12.441 101.26,-11.965 101.26,-11.424C101.26,-11.107 101.176,-10.841 101.008,-10.626C100.84,-10.411 100.625,-10.304 100.364,-10.304C100.196,-10.304 100.028,-10.346 99.86,-10.43C99.692,-10.514 99.477,-10.64 99.216,-10.808C98.749,-11.107 98.315,-11.335 97.914,-11.494C97.513,-11.653 97.032,-11.732 96.472,-11.732C95.203,-11.732 94.218,-11.303 93.518,-10.444C92.818,-9.585 92.468,-8.391 92.468,-6.86C92.468,-5.329 92.813,-4.149 93.504,-3.318C94.195,-2.487 95.175,-2.072 96.444,-2.072C97.004,-2.072 97.499,-2.156 97.928,-2.324C98.357,-2.492 98.796,-2.716 99.244,-2.996C99.449,-3.127 99.655,-3.239 99.86,-3.332C100.065,-3.425 100.252,-3.472 100.42,-3.472C100.681,-3.472 100.896,-3.365 101.064,-3.15C101.232,-2.935 101.316,-2.669 101.316,-2.352C101.316,-2.091 101.246,-1.853 101.106,-1.638C100.966,-1.423 100.728,-1.204 100.392,-0.98C99.832,-0.607 99.179,-0.317 98.432,-0.112C97.685,0.093 96.929,0.196 96.164,0.196C94.839,0.196 93.677,-0.093 92.678,-0.672Z" style="fill-rule:nonzero;"/>
                    <path d="M112.21,-12.796C112.21,-12.385 112.107,-12.077 111.902,-11.872C111.697,-11.667 111.342,-11.545 110.838,-11.508L109.998,-11.424C108.822,-11.312 107.949,-10.901 107.38,-10.192C106.811,-9.483 106.526,-8.624 106.526,-7.616L106.526,-1.204C106.526,-0.756 106.395,-0.42 106.134,-0.196C105.873,0.028 105.537,0.14 105.126,0.14C104.715,0.14 104.375,0.028 104.104,-0.196C103.833,-0.42 103.698,-0.756 103.698,-1.204L103.698,-12.6C103.698,-13.029 103.833,-13.361 104.104,-13.594C104.375,-13.827 104.715,-13.944 105.126,-13.944C105.499,-13.944 105.812,-13.827 106.064,-13.594C106.316,-13.361 106.442,-13.039 106.442,-12.628L106.442,-11.284C106.815,-12.105 107.357,-12.731 108.066,-13.16C108.775,-13.589 109.578,-13.841 110.474,-13.916L110.866,-13.944C111.762,-14 112.21,-13.617 112.21,-12.796Z" style="fill-rule:nonzero;"/>
                    <path d="M124.854,-13.72C125.069,-13.851 125.297,-13.916 125.54,-13.916C125.895,-13.916 126.207,-13.795 126.478,-13.552C126.749,-13.309 126.884,-13.02 126.884,-12.684C126.884,-12.497 126.847,-12.32 126.772,-12.152L118.988,4.368C118.876,4.629 118.713,4.83 118.498,4.97C118.283,5.11 118.055,5.18 117.812,5.18C117.476,5.18 117.173,5.068 116.902,4.844C116.631,4.62 116.496,4.34 116.496,4.004C116.496,3.855 116.543,3.668 116.636,3.444L118.568,-0.672L113.164,-12.152C113.089,-12.301 113.052,-12.469 113.052,-12.656C113.052,-13.011 113.201,-13.309 113.5,-13.552C113.799,-13.795 114.135,-13.916 114.508,-13.916C115.068,-13.916 115.469,-13.655 115.712,-13.132L120.052,-3.5L124.364,-13.104C124.476,-13.384 124.639,-13.589 124.854,-13.72Z" style="fill-rule:nonzero;"/>
                    <path d="M139.556,-13.104C140.48,-12.507 141.199,-11.667 141.712,-10.584C142.225,-9.501 142.482,-8.251 142.482,-6.832C142.482,-5.432 142.23,-4.2 141.726,-3.136C141.222,-2.072 140.508,-1.251 139.584,-0.672C138.66,-0.093 137.601,0.196 136.406,0.196C135.379,0.196 134.474,-0.023 133.69,-0.462C132.906,-0.901 132.309,-1.531 131.898,-2.352L131.898,3.892C131.898,4.284 131.772,4.597 131.52,4.83C131.268,5.063 130.937,5.18 130.526,5.18C130.097,5.18 129.747,5.059 129.476,4.816C129.205,4.573 129.07,4.247 129.07,3.836L129.07,-12.572C129.07,-12.983 129.201,-13.314 129.462,-13.566C129.723,-13.818 130.069,-13.944 130.498,-13.944C130.909,-13.944 131.245,-13.818 131.506,-13.566C131.767,-13.314 131.898,-12.983 131.898,-12.572L131.898,-11.424C132.309,-12.245 132.906,-12.88 133.69,-13.328C134.474,-13.776 135.379,-14 136.406,-14C137.582,-14 138.632,-13.701 139.556,-13.104ZM138.59,-3.29C139.262,-4.121 139.598,-5.301 139.598,-6.832C139.598,-8.381 139.257,-9.585 138.576,-10.444C137.895,-11.303 136.947,-11.732 135.734,-11.732C134.502,-11.732 133.555,-11.312 132.892,-10.472C132.229,-9.632 131.898,-8.437 131.898,-6.888C131.898,-5.339 132.229,-4.144 132.892,-3.304C133.555,-2.464 134.502,-2.044 135.734,-2.044C136.966,-2.044 137.918,-2.459 138.59,-3.29Z" style="fill-rule:nonzero;"/>
                    <path d="M152.998,-1.694C153.175,-1.517 153.264,-1.269 153.264,-0.952C153.264,-0.579 153.119,-0.294 152.83,-0.098C152.541,0.098 152.116,0.177 151.556,0.14L150.8,0.084C149.288,-0.028 148.159,-0.49 147.412,-1.302C146.665,-2.114 146.292,-3.313 146.292,-4.9L146.292,-11.48L144.612,-11.48C143.791,-11.48 143.38,-11.844 143.38,-12.572C143.38,-12.908 143.487,-13.174 143.702,-13.37C143.917,-13.566 144.22,-13.664 144.612,-13.664L146.292,-13.664L146.292,-16.548C146.292,-16.977 146.418,-17.313 146.67,-17.556C146.922,-17.799 147.263,-17.92 147.692,-17.92C148.121,-17.92 148.467,-17.799 148.728,-17.556C148.989,-17.313 149.12,-16.977 149.12,-16.548L149.12,-13.664L151.892,-13.664C152.284,-13.664 152.587,-13.566 152.802,-13.37C153.017,-13.174 153.124,-12.908 153.124,-12.572C153.124,-12.217 153.017,-11.947 152.802,-11.76C152.587,-11.573 152.284,-11.48 151.892,-11.48L149.12,-11.48L149.12,-4.704C149.12,-3.827 149.302,-3.183 149.666,-2.772C150.03,-2.361 150.585,-2.128 151.332,-2.072L152.116,-2.016C152.527,-1.979 152.821,-1.871 152.998,-1.694Z" style="fill-rule:nonzero;"/>
                    <path d="M166.51,-3.136C166.678,-2.931 166.762,-2.669 166.762,-2.352C166.762,-1.811 166.426,-1.353 165.754,-0.98C165.101,-0.607 164.387,-0.317 163.612,-0.112C162.838,0.093 162.096,0.196 161.386,0.196C159.221,0.196 157.513,-0.434 156.262,-1.694C155.012,-2.954 154.386,-4.676 154.386,-6.86C154.386,-8.26 154.662,-9.501 155.212,-10.584C155.763,-11.667 156.538,-12.507 157.536,-13.104C158.535,-13.701 159.669,-14 160.938,-14C162.768,-14 164.214,-13.412 165.278,-12.236C166.342,-11.06 166.874,-9.473 166.874,-7.476C166.874,-6.729 166.538,-6.356 165.866,-6.356L157.214,-6.356C157.401,-3.463 158.792,-2.016 161.386,-2.016C162.077,-2.016 162.674,-2.109 163.178,-2.296C163.682,-2.483 164.214,-2.725 164.774,-3.024C164.83,-3.061 164.984,-3.141 165.236,-3.262C165.488,-3.383 165.698,-3.444 165.866,-3.444C166.128,-3.444 166.342,-3.341 166.51,-3.136ZM158.39,-10.892C157.737,-10.201 157.345,-9.231 157.214,-7.98L164.438,-7.98C164.382,-9.249 164.06,-10.225 163.472,-10.906C162.884,-11.587 162.058,-11.928 160.994,-11.928C159.912,-11.928 159.044,-11.583 158.39,-10.892Z" style="fill-rule:nonzero;"/>
                    <path d="M182.052,-19.516C182.314,-19.273 182.444,-18.947 182.444,-18.536L182.444,-1.232C182.444,-0.803 182.318,-0.467 182.066,-0.224C181.814,0.019 181.474,0.14 181.044,0.14C180.615,0.14 180.274,0.019 180.022,-0.224C179.77,-0.467 179.644,-0.803 179.644,-1.232L179.644,-2.352C179.234,-1.531 178.636,-0.901 177.852,-0.462C177.068,-0.023 176.163,0.196 175.136,0.196C173.96,0.196 172.91,-0.103 171.986,-0.7C171.062,-1.297 170.344,-2.137 169.83,-3.22C169.317,-4.303 169.06,-5.544 169.06,-6.944C169.06,-8.363 169.317,-9.604 169.83,-10.668C170.344,-11.732 171.058,-12.553 171.972,-13.132C172.887,-13.711 173.942,-14 175.136,-14C176.163,-14 177.064,-13.781 177.838,-13.342C178.613,-12.903 179.206,-12.283 179.616,-11.48L179.616,-18.592C179.616,-18.984 179.742,-19.297 179.994,-19.53C180.246,-19.763 180.587,-19.88 181.016,-19.88C181.446,-19.88 181.791,-19.759 182.052,-19.516ZM178.636,-3.304C179.308,-4.144 179.644,-5.339 179.644,-6.888C179.644,-8.437 179.313,-9.632 178.65,-10.472C177.988,-11.312 177.04,-11.732 175.808,-11.732C174.576,-11.732 173.62,-11.317 172.938,-10.486C172.257,-9.655 171.916,-8.475 171.916,-6.944C171.916,-5.413 172.262,-4.214 172.952,-3.346C173.643,-2.478 174.595,-2.044 175.808,-2.044C177.022,-2.044 177.964,-2.464 178.636,-3.304Z" style="fill-rule:nonzero;"/>
                </g>
                <g transform="matrix(1,0,0,1,336,403)">
                    <path d="M11.746,-12.628C12.633,-11.713 13.076,-10.323 13.076,-8.456L13.076,-1.204C13.076,-0.775 12.955,-0.443 12.712,-0.21C12.469,0.023 12.133,0.14 11.704,0.14C11.293,0.14 10.967,0.019 10.724,-0.224C10.481,-0.467 10.36,-0.793 10.36,-1.204L10.36,-2.24C10.005,-1.456 9.478,-0.854 8.778,-0.434C8.078,-0.014 7.261,0.196 6.328,0.196C5.432,0.196 4.611,0.014 3.864,-0.35C3.117,-0.714 2.534,-1.223 2.114,-1.876C1.694,-2.529 1.484,-3.257 1.484,-4.06C1.484,-5.049 1.741,-5.829 2.254,-6.398C2.767,-6.967 3.617,-7.373 4.802,-7.616C5.987,-7.859 7.616,-7.98 9.688,-7.98L10.332,-7.98L10.332,-8.792C10.332,-9.837 10.117,-10.593 9.688,-11.06C9.259,-11.527 8.568,-11.76 7.616,-11.76C6.963,-11.76 6.347,-11.676 5.768,-11.508C5.189,-11.34 4.555,-11.097 3.864,-10.78C3.36,-10.5 3.005,-10.36 2.8,-10.36C2.52,-10.36 2.291,-10.463 2.114,-10.668C1.937,-10.873 1.848,-11.135 1.848,-11.452C1.848,-11.732 1.927,-11.979 2.086,-12.194C2.245,-12.409 2.501,-12.619 2.856,-12.824C3.509,-13.179 4.275,-13.463 5.152,-13.678C6.029,-13.893 6.879,-14 7.7,-14C9.511,-14 10.859,-13.543 11.746,-12.628ZM9.352,-2.954C10.005,-3.654 10.332,-4.555 10.332,-5.656L10.332,-6.384L9.828,-6.384C8.372,-6.384 7.252,-6.319 6.468,-6.188C5.684,-6.057 5.124,-5.838 4.788,-5.53C4.452,-5.222 4.284,-4.779 4.284,-4.2C4.284,-3.528 4.527,-2.977 5.012,-2.548C5.497,-2.119 6.104,-1.904 6.832,-1.904C7.859,-1.904 8.699,-2.254 9.352,-2.954Z" style="fill-rule:nonzero;"/>
                    <path d="M29.066,-8.484L29.066,-1.204C29.066,-0.775 28.94,-0.443 28.688,-0.21C28.436,0.023 28.086,0.14 27.638,0.14C27.209,0.14 26.868,0.019 26.616,-0.224C26.364,-0.467 26.238,-0.793 26.238,-1.204L26.238,-8.344C26.238,-9.501 26.009,-10.351 25.552,-10.892C25.095,-11.433 24.381,-11.704 23.41,-11.704C22.271,-11.704 21.357,-11.349 20.666,-10.64C19.975,-9.931 19.63,-8.979 19.63,-7.784L19.63,-1.204C19.63,-0.793 19.504,-0.467 19.252,-0.224C19,0.019 18.659,0.14 18.23,0.14C17.801,0.14 17.455,0.019 17.194,-0.224C16.933,-0.467 16.802,-0.793 16.802,-1.204L16.802,-12.6C16.802,-12.992 16.937,-13.314 17.208,-13.566C17.479,-13.818 17.819,-13.944 18.23,-13.944C18.641,-13.944 18.967,-13.823 19.21,-13.58C19.453,-13.337 19.574,-13.02 19.574,-12.628L19.574,-11.48C20.022,-12.301 20.647,-12.927 21.45,-13.356C22.253,-13.785 23.158,-14 24.166,-14C27.433,-14 29.066,-12.161 29.066,-8.484Z" style="fill-rule:nonzero;"/>
                    <path d="M45,-19.516C45.261,-19.273 45.392,-18.947 45.392,-18.536L45.392,-1.232C45.392,-0.803 45.266,-0.467 45.014,-0.224C44.762,0.019 44.421,0.14 43.992,0.14C43.563,0.14 43.222,0.019 42.97,-0.224C42.718,-0.467 42.592,-0.803 42.592,-1.232L42.592,-2.352C42.181,-1.531 41.584,-0.901 40.8,-0.462C40.016,-0.023 39.111,0.196 38.084,0.196C36.908,0.196 35.858,-0.103 34.934,-0.7C34.01,-1.297 33.291,-2.137 32.778,-3.22C32.265,-4.303 32.008,-5.544 32.008,-6.944C32.008,-8.363 32.265,-9.604 32.778,-10.668C33.291,-11.732 34.005,-12.553 34.92,-13.132C35.835,-13.711 36.889,-14 38.084,-14C39.111,-14 40.011,-13.781 40.786,-13.342C41.561,-12.903 42.153,-12.283 42.564,-11.48L42.564,-18.592C42.564,-18.984 42.69,-19.297 42.942,-19.53C43.194,-19.763 43.535,-19.88 43.964,-19.88C44.393,-19.88 44.739,-19.759 45,-19.516ZM41.584,-3.304C42.256,-4.144 42.592,-5.339 42.592,-6.888C42.592,-8.437 42.261,-9.632 41.598,-10.472C40.935,-11.312 39.988,-11.732 38.756,-11.732C37.524,-11.732 36.567,-11.317 35.886,-10.486C35.205,-9.655 34.864,-8.475 34.864,-6.944C34.864,-5.413 35.209,-4.214 35.9,-3.346C36.591,-2.478 37.543,-2.044 38.756,-2.044C39.969,-2.044 40.912,-2.464 41.584,-3.304Z" style="fill-rule:nonzero;"/>
                    <path d="M56.54,-0.98C56.204,-1.185 55.966,-1.4 55.826,-1.624C55.686,-1.848 55.616,-2.1 55.616,-2.38C55.616,-2.679 55.7,-2.931 55.868,-3.136C56.036,-3.341 56.251,-3.444 56.512,-3.444C56.755,-3.444 57.137,-3.295 57.66,-2.996C58.22,-2.697 58.766,-2.455 59.298,-2.268C59.83,-2.081 60.497,-1.988 61.3,-1.988C62.196,-1.988 62.896,-2.147 63.4,-2.464C63.904,-2.781 64.156,-3.229 64.156,-3.808C64.156,-4.181 64.058,-4.48 63.862,-4.704C63.666,-4.928 63.325,-5.129 62.84,-5.306C62.355,-5.483 61.636,-5.675 60.684,-5.88C59.041,-6.235 57.861,-6.715 57.142,-7.322C56.423,-7.929 56.064,-8.755 56.064,-9.8C56.064,-10.603 56.297,-11.326 56.764,-11.97C57.231,-12.614 57.875,-13.113 58.696,-13.468C59.517,-13.823 60.451,-14 61.496,-14C62.243,-14 62.971,-13.902 63.68,-13.706C64.389,-13.51 65.015,-13.225 65.556,-12.852C66.172,-12.441 66.48,-11.965 66.48,-11.424C66.48,-11.125 66.391,-10.873 66.214,-10.668C66.037,-10.463 65.827,-10.36 65.584,-10.36C65.416,-10.36 65.248,-10.397 65.08,-10.472C64.912,-10.547 64.688,-10.668 64.408,-10.836C63.904,-11.135 63.433,-11.368 62.994,-11.536C62.555,-11.704 62.009,-11.788 61.356,-11.788C60.572,-11.788 59.942,-11.62 59.466,-11.284C58.99,-10.948 58.752,-10.491 58.752,-9.912C58.752,-9.389 58.971,-8.983 59.41,-8.694C59.849,-8.405 60.675,-8.129 61.888,-7.868C63.139,-7.607 64.119,-7.308 64.828,-6.972C65.537,-6.636 66.046,-6.221 66.354,-5.726C66.662,-5.231 66.816,-4.601 66.816,-3.836C66.816,-2.623 66.307,-1.647 65.29,-0.91C64.273,-0.173 62.915,0.196 61.216,0.196C59.312,0.196 57.753,-0.196 56.54,-0.98Z" style="fill-rule:nonzero;"/>
                    <path d="M72.18,-0.672C71.181,-1.251 70.407,-2.072 69.856,-3.136C69.305,-4.2 69.03,-5.432 69.03,-6.832C69.03,-8.251 69.315,-9.501 69.884,-10.584C70.453,-11.667 71.251,-12.507 72.278,-13.104C73.305,-13.701 74.481,-14 75.806,-14C76.515,-14 77.229,-13.897 77.948,-13.692C78.667,-13.487 79.306,-13.207 79.866,-12.852C80.463,-12.441 80.762,-11.965 80.762,-11.424C80.762,-11.107 80.678,-10.841 80.51,-10.626C80.342,-10.411 80.127,-10.304 79.866,-10.304C79.698,-10.304 79.53,-10.346 79.362,-10.43C79.194,-10.514 78.979,-10.64 78.718,-10.808C78.251,-11.107 77.817,-11.335 77.416,-11.494C77.015,-11.653 76.534,-11.732 75.974,-11.732C74.705,-11.732 73.72,-11.303 73.02,-10.444C72.32,-9.585 71.97,-8.391 71.97,-6.86C71.97,-5.329 72.315,-4.149 73.006,-3.318C73.697,-2.487 74.677,-2.072 75.946,-2.072C76.506,-2.072 77.001,-2.156 77.43,-2.324C77.859,-2.492 78.298,-2.716 78.746,-2.996C78.951,-3.127 79.157,-3.239 79.362,-3.332C79.567,-3.425 79.754,-3.472 79.922,-3.472C80.183,-3.472 80.398,-3.365 80.566,-3.15C80.734,-2.935 80.818,-2.669 80.818,-2.352C80.818,-2.091 80.748,-1.853 80.608,-1.638C80.468,-1.423 80.23,-1.204 79.894,-0.98C79.334,-0.607 78.681,-0.317 77.934,-0.112C77.187,0.093 76.431,0.196 75.666,0.196C74.341,0.196 73.179,-0.093 72.18,-0.672Z" style="fill-rule:nonzero;"/>
                    <path d="M92.986,-12.628C93.873,-11.713 94.316,-10.323 94.316,-8.456L94.316,-1.204C94.316,-0.775 94.195,-0.443 93.952,-0.21C93.709,0.023 93.373,0.14 92.944,0.14C92.533,0.14 92.207,0.019 91.964,-0.224C91.721,-0.467 91.6,-0.793 91.6,-1.204L91.6,-2.24C91.245,-1.456 90.718,-0.854 90.018,-0.434C89.318,-0.014 88.501,0.196 87.568,0.196C86.672,0.196 85.851,0.014 85.104,-0.35C84.357,-0.714 83.774,-1.223 83.354,-1.876C82.934,-2.529 82.724,-3.257 82.724,-4.06C82.724,-5.049 82.981,-5.829 83.494,-6.398C84.007,-6.967 84.857,-7.373 86.042,-7.616C87.227,-7.859 88.856,-7.98 90.928,-7.98L91.572,-7.98L91.572,-8.792C91.572,-9.837 91.357,-10.593 90.928,-11.06C90.499,-11.527 89.808,-11.76 88.856,-11.76C88.203,-11.76 87.587,-11.676 87.008,-11.508C86.429,-11.34 85.795,-11.097 85.104,-10.78C84.6,-10.5 84.245,-10.36 84.04,-10.36C83.76,-10.36 83.531,-10.463 83.354,-10.668C83.177,-10.873 83.088,-11.135 83.088,-11.452C83.088,-11.732 83.167,-11.979 83.326,-12.194C83.485,-12.409 83.741,-12.619 84.096,-12.824C84.749,-13.179 85.515,-13.463 86.392,-13.678C87.269,-13.893 88.119,-14 88.94,-14C90.751,-14 92.099,-13.543 92.986,-12.628ZM90.592,-2.954C91.245,-3.654 91.572,-4.555 91.572,-5.656L91.572,-6.384L91.068,-6.384C89.612,-6.384 88.492,-6.319 87.708,-6.188C86.924,-6.057 86.364,-5.838 86.028,-5.53C85.692,-5.222 85.524,-4.779 85.524,-4.2C85.524,-3.528 85.767,-2.977 86.252,-2.548C86.737,-2.119 87.344,-1.904 88.072,-1.904C89.099,-1.904 89.939,-2.254 90.592,-2.954Z" style="fill-rule:nonzero;"/>
                    <path d="M110.306,-8.484L110.306,-1.204C110.306,-0.775 110.18,-0.443 109.928,-0.21C109.676,0.023 109.326,0.14 108.878,0.14C108.449,0.14 108.108,0.019 107.856,-0.224C107.604,-0.467 107.478,-0.793 107.478,-1.204L107.478,-8.344C107.478,-9.501 107.249,-10.351 106.792,-10.892C106.335,-11.433 105.621,-11.704 104.65,-11.704C103.511,-11.704 102.597,-11.349 101.906,-10.64C101.215,-9.931 100.87,-8.979 100.87,-7.784L100.87,-1.204C100.87,-0.793 100.744,-0.467 100.492,-0.224C100.24,0.019 99.899,0.14 99.47,0.14C99.041,0.14 98.695,0.019 98.434,-0.224C98.173,-0.467 98.042,-0.793 98.042,-1.204L98.042,-12.6C98.042,-12.992 98.177,-13.314 98.448,-13.566C98.719,-13.818 99.059,-13.944 99.47,-13.944C99.881,-13.944 100.207,-13.823 100.45,-13.58C100.693,-13.337 100.814,-13.02 100.814,-12.628L100.814,-11.48C101.262,-12.301 101.887,-12.927 102.69,-13.356C103.493,-13.785 104.398,-14 105.406,-14C108.673,-14 110.306,-12.161 110.306,-8.484Z" style="fill-rule:nonzero;"/>
                    <path d="M126.296,-8.484L126.296,-1.204C126.296,-0.775 126.17,-0.443 125.918,-0.21C125.666,0.023 125.316,0.14 124.868,0.14C124.439,0.14 124.098,0.019 123.846,-0.224C123.594,-0.467 123.468,-0.793 123.468,-1.204L123.468,-8.344C123.468,-9.501 123.239,-10.351 122.782,-10.892C122.325,-11.433 121.611,-11.704 120.64,-11.704C119.501,-11.704 118.587,-11.349 117.896,-10.64C117.205,-9.931 116.86,-8.979 116.86,-7.784L116.86,-1.204C116.86,-0.793 116.734,-0.467 116.482,-0.224C116.23,0.019 115.889,0.14 115.46,0.14C115.031,0.14 114.685,0.019 114.424,-0.224C114.163,-0.467 114.032,-0.793 114.032,-1.204L114.032,-12.6C114.032,-12.992 114.167,-13.314 114.438,-13.566C114.709,-13.818 115.049,-13.944 115.46,-13.944C115.871,-13.944 116.197,-13.823 116.44,-13.58C116.683,-13.337 116.804,-13.02 116.804,-12.628L116.804,-11.48C117.252,-12.301 117.877,-12.927 118.68,-13.356C119.483,-13.785 120.388,-14 121.396,-14C124.663,-14 126.296,-12.161 126.296,-8.484Z" style="fill-rule:nonzero;"/>
                    <path d="M141.362,-3.136C141.53,-2.931 141.614,-2.669 141.614,-2.352C141.614,-1.811 141.278,-1.353 140.606,-0.98C139.953,-0.607 139.239,-0.317 138.464,-0.112C137.689,0.093 136.947,0.196 136.238,0.196C134.073,0.196 132.365,-0.434 131.114,-1.694C129.863,-2.954 129.238,-4.676 129.238,-6.86C129.238,-8.26 129.513,-9.501 130.064,-10.584C130.615,-11.667 131.389,-12.507 132.388,-13.104C133.387,-13.701 134.521,-14 135.79,-14C137.619,-14 139.066,-13.412 140.13,-12.236C141.194,-11.06 141.726,-9.473 141.726,-7.476C141.726,-6.729 141.39,-6.356 140.718,-6.356L132.066,-6.356C132.253,-3.463 133.643,-2.016 136.238,-2.016C136.929,-2.016 137.526,-2.109 138.03,-2.296C138.534,-2.483 139.066,-2.725 139.626,-3.024C139.682,-3.061 139.836,-3.141 140.088,-3.262C140.34,-3.383 140.55,-3.444 140.718,-3.444C140.979,-3.444 141.194,-3.341 141.362,-3.136ZM133.242,-10.892C132.589,-10.201 132.197,-9.231 132.066,-7.98L139.29,-7.98C139.234,-9.249 138.912,-10.225 138.324,-10.906C137.736,-11.587 136.91,-11.928 135.846,-11.928C134.763,-11.928 133.895,-11.583 133.242,-10.892Z" style="fill-rule:nonzero;"/>
                    <path d="M156.904,-19.516C157.165,-19.273 157.296,-18.947 157.296,-18.536L157.296,-1.232C157.296,-0.803 157.17,-0.467 156.918,-0.224C156.666,0.019 156.325,0.14 155.896,0.14C155.467,0.14 155.126,0.019 154.874,-0.224C154.622,-0.467 154.496,-0.803 154.496,-1.232L154.496,-2.352C154.085,-1.531 153.488,-0.901 152.704,-0.462C151.92,-0.023 151.015,0.196 149.988,0.196C148.812,0.196 147.762,-0.103 146.838,-0.7C145.914,-1.297 145.195,-2.137 144.682,-3.22C144.169,-4.303 143.912,-5.544 143.912,-6.944C143.912,-8.363 144.169,-9.604 144.682,-10.668C145.195,-11.732 145.909,-12.553 146.824,-13.132C147.739,-13.711 148.793,-14 149.988,-14C151.015,-14 151.915,-13.781 152.69,-13.342C153.465,-12.903 154.057,-12.283 154.468,-11.48L154.468,-18.592C154.468,-18.984 154.594,-19.297 154.846,-19.53C155.098,-19.763 155.439,-19.88 155.868,-19.88C156.297,-19.88 156.643,-19.759 156.904,-19.516ZM153.488,-3.304C154.16,-4.144 154.496,-5.339 154.496,-6.888C154.496,-8.437 154.165,-9.632 153.502,-10.472C152.839,-11.312 151.892,-11.732 150.66,-11.732C149.428,-11.732 148.471,-11.317 147.79,-10.486C147.109,-9.655 146.768,-8.475 146.768,-6.944C146.768,-5.413 147.113,-4.214 147.804,-3.346C148.495,-2.478 149.447,-2.044 150.66,-2.044C151.873,-2.044 152.816,-2.464 153.488,-3.304Z" style="fill-rule:nonzero;"/>
                </g>
            </g>
        </g>
    </g>
</svg>
