<?xml version="1.0" encoding="UTF-8"?>
<svg width="78px" height="13px" viewBox="0 0 78 13" version="1.1" xmlns="http://www.w3.org/2000/svg" xmlns:xlink="http://www.w3.org/1999/xlink">
    <!-- Generator: Sketch 48.1 (47250) - http://www.bohemiancoding.com/sketch -->
    <title>SonicWall_Registered-2C</title>
    <desc>Created with Sketch.</desc>
    <defs>
        <polygon id="path-1" points="23.9876364 12.9888571 0.0569972582 12.9888571 0.0569972582 0.0590571429 23.9876364 0.0590571429"></polygon>
        <polygon id="path-3" points="23.9876364 12.9888571 0.0569972582 12.9888571 0.0569972582 0.0590571429 23.9876364 0.0590571429"></polygon>
    </defs>
    <g id="Page-1" stroke="none" stroke-width="1" fill="none" fill-rule="evenodd">
        <g id="SonicWall_Registered-2C">
            <path d="M12.4826191,0.833111225 C11.8506529,0.833111225 11.2514254,0.998257304 10.6854883,1.32873398 C10.1193673,1.65902614 9.6772117,2.10409021 9.35938937,2.66355715 C9.04138312,3.22339313 8.88265588,3.8470733 8.88265588,4.5351512 C8.88265588,5.55333675 9.23450432,6.41320349 9.93801729,7.11493593 C10.6417142,7.81648385 11.4897922,8.16725782 12.4826191,8.16725782 C13.1456686,8.16725782 13.7590583,8.00598667 14.3233401,7.68344439 C14.887254,7.3609021 15.3273864,6.91952845 15.6433695,6.35987699 C15.9595365,5.80022553 16.117528,5.17839057 16.117528,4.4941876 C16.117528,3.81404408 15.9595365,3.19903639 15.6433695,2.64916453 C15.3273864,2.09910815 14.882472,1.65902614 14.30881,1.32873398 C13.7349641,0.998257304 13.1263564,0.833111225 12.4826191,0.833111225 Z M12.4447305,0 C13.7386426,0 14.8212249,0.43307022 15.6926614,1.29902614 C16.5642818,2.16516658 17,3.231143 17,4.49713993 C17,5.75169657 16.5652014,6.81564326 15.6956042,7.68953357 C14.826007,8.56323936 13.7656796,9 12.514622,9 C11.2477469,9 10.1785911,8.56526909 9.30733861,7.69525372 C8.43571823,6.82523834 8,5.77291645 8,4.53791902 C8,3.71477191 8.19845503,2.95159405 8.59554902,2.24856996 C8.99245908,1.54573039 9.53375023,0.995304972 10.2194225,0.597109175 C10.9050947,0.199097899 11.6466802,0 12.4447305,0 Z" id="Fill-1" fill="#616261" fill-rule="nonzero"></path>
            <polyline id="Fill-2" fill="#616261" fill-rule="nonzero" points="19 9 19 0 19.1937822 0 25.1219298 6.89890511 25.1219298 0 26 0 26 9 25.8000774 9 19.9203302 2.1850365 19.9203302 9 19 9"></polyline>
            <polygon id="Fill-3" fill="#616261" fill-rule="nonzero" points="28 9 29 9 29 0 28 0"></polygon>
            <path d="M56.2165476,5.46472471 L57.4799586,2.38131154 L58.73606,5.46472471 L56.2165476,5.46472471 Z M58.3778884,0 L56.5599077,0 L54,6.53099456 L59.1484768,6.55062478 L60.1370074,9 L62,9 L58.3778884,0 Z" id="Fill-4" fill="#616261" fill-rule="nonzero"></path>
            <polyline id="Fill-5" fill="#616261" fill-rule="nonzero" points="64 0 65.6700721 0 65.6700721 7.36647739 69 7.36647739 69 9 64 9 64 0"></polyline>
            <g id="Group-9" transform="translate(52.000000, 0.000000)">
                <g id="Fill-6-Clipped">
                    <mask id="mask-2" fill="white">
                        <use xlink:href="#path-1"></use>
                    </mask>
                    <g id="path-1"></g>
                    <polyline id="Fill-6" fill="#616261" fill-rule="nonzero" mask="url(#mask-2)" points="18.9150909 0.0590571429 20.6094545 0.0590571429 20.6094545 7.501 23.9876364 7.501 23.9876364 9.15125714 18.9150909 9.15125714 18.9150909 0.0590571429"></polyline>
                </g>
                <g id="Fill-8-Clipped">
                    <mask id="mask-4" fill="white">
                        <use xlink:href="#path-3"></use>
                    </mask>
                    <g id="path-1"></g>
                    <path d="M5.28490909,13.0001857 C5.28490909,13.0001857 1.14018182,11.4756571 0.226181818,8.93917143 C-0.797090909,6.09978571 2.99690909,5.45182857 6.87745455,5.56455714 C8.96872727,5.62547143 11.5247273,5.95028571 11.5247273,5.95028571 C11.5247273,5.95028571 5.48636364,6.73567143 3.30436364,8.53431429 C1.17363636,10.2906143 5.28490909,13.0001857 5.28490909,13.0001857" id="Fill-8" fill="#E2652C" fill-rule="nonzero" mask="url(#mask-4)"></path>
                </g>
            </g>
            <path d="M39,6.83655611 C38.1642192,7.73809815 37.1326423,8.19024599 35.9033496,8.19024599 C34.7623572,8.19024599 33.817161,7.84071717 33.0679528,7.14165953 C32.3187446,6.44278546 31.9442365,5.57079917 31.9442365,4.52625138 C31.9442365,3.8350875 32.111623,3.21258108 32.4467799,2.65909925 C32.7817449,2.105801 33.2537672,1.66503488 33.8628467,1.33698446 C34.4719263,1.00875046 35.133794,0.84463346 35.8486419,0.84463346 C36.5024475,0.84463346 37.1023131,0.969832334 37.6486227,1.22041366 C38.1705538,1.45998042 38.620501,1.80804063 39,2.26220781 L39,1.1020071 C38.7295326,0.887590258 38.4306555,0.628931587 38.1024091,0.474727696 C37.4282561,0.158242565 36.6729053,0 35.8363567,0 C34.4517708,0 33.2994529,0.428282952 32.379595,1.2844817 C31.459929,2.14086403 31,3.19605923 31,4.45043446 C31,5.64276098 31.3796909,6.66013952 32.1390728,7.50275364 C33.044534,8.50104026 34.281121,9 35.8486419,9 C36.6729053,9 37.4190421,8.85148697 38.0870525,8.55427732 C38.4185622,8.40686574 38.7228141,8.15499939 39,7.94682413 L39,6.83655611" id="Fill-10" fill="#616261" fill-rule="nonzero"></path>
            <path d="M3.17358784,4.09211036 C1.17921254,3.67458553 0.801340354,3.14290667 0.801340354,2.30767348 L0.801340354,2.28326434 C0.801340354,1.3993964 1.62511967,0.757968148 2.76053135,0.757968148 C3.71122547,0.757968148 4.46535424,1.04940965 5.20584011,1.70313424 L5.27567018,1.76498297 L5.29272379,1.74314321 L5.29272379,0.744020066 C4.52692676,0.220966985 3.76795117,0 2.78440641,0 C1.1969842,0 0,1.00793246 0,2.34456249 L0,2.36897163 C0,3.72010033 0.839755864,4.44503354 2.89857587,4.87100063 C4.83227621,5.26888803 5.19883916,5.78790351 5.19883916,6.60643569 L5.19883916,6.63102837 C5.19883916,7.57949795 4.36357109,8.24203185 3.16766395,8.24203185 C2.00155577,8.24203185 1.1754428,7.89167805 0.221517472,6.99257734 L0.154021063,6.92907686 L0.138942078,6.94687901 L0.138942078,7.9777524 C1.05283629,8.68066233 1.9959909,9 3.13176161,9 C4.82060795,9 6,8.0005098 6,6.56973021 L6,6.54513754 C6,5.23842248 5.15467927,4.50486348 3.17358784,4.09211036" id="Fill-11" fill="#616261" fill-rule="nonzero"></path>
            <polyline id="Fill-12" fill="#616261" fill-rule="nonzero" points="52.0131305 0.0259066307 49.9152678 6.23364619 47.8478594 0 46.2042432 0 44.1801313 6.10228862 44.1366513 6.23364619 42.0391556 0.0259066307 40 0.0259066307 43.2488894 9 44.9198412 9 46.9562448 3.14765563 47.0000917 3.02213618 49.0803423 9 50.751294 9 54 0.0259066307 52.0131305 0.0259066307"></polyline>
            <path d="M76.8552146,0.597348724 L76.8552146,0.926323384 L77.0020696,0.926323384 C77.1230091,0.926323384 77.1791595,0.870051402 77.1791595,0.766164668 C77.1791595,0.662277933 77.1230091,0.597348724 77.0020696,0.597348724 L76.8552146,0.597348724 Z M77.2439485,1.5842727 L76.9675155,1.12543962 L76.8552146,1.12543962 L76.8552146,1.5842727 L76.5485467,1.5842727 L76.5485467,0.398232483 L77.0754972,0.398232483 C77.3650679,0.398232483 77.4860074,0.57137704 77.4860074,0.761836054 C77.4860074,0.913337542 77.4080806,1.03886735 77.2655449,1.09081071 L77.6024476,1.5842727 L77.2439485,1.5842727 Z M76.9979304,0.129858418 C76.5183119,0.129858418 76.129398,0.519433673 76.129398,0.999909821 C76.129398,1.48038597 76.5183119,1.86996122 76.9979304,1.86996122 C77.4773688,1.86996122 77.8702421,1.48038597 77.8702421,0.999909821 C77.8702421,0.519433673 77.4773688,0.129858418 76.9979304,0.129858418 Z M76.9979304,2 C76.4492036,2 76,1.55397241 76,0.999909821 C76,0.445847236 76.4492036,0 76.9979304,0 C77.5507964,0 78,0.445847236 78,0.999909821 C78,1.55397241 77.5507964,2 76.9979304,2 Z" id="Fill-13" fill="#616261" fill-rule="nonzero"></path>
        </g>
    </g>
</svg>