<?xml version="1.0" encoding="UTF-8"?>
<svg width="195px" height="33px" viewBox="0 0 195 33" version="1.1" xmlns="http://www.w3.org/2000/svg" xmlns:xlink="http://www.w3.org/1999/xlink">
    <!-- Generator: Sketch 48.1 (47250) - http://www.bohemiancoding.com/sketch -->
    <title>SonicWall_Registered-2C</title>
    <desc>Created with Sketch.</desc>
    <defs>
        <polygon id="path-1" points="59.9690909 32.9717143 0.142493145 32.9717143 0.142493145 0.149914286 59.9690909 0.149914286"></polygon>
        <polygon id="path-3" points="59.9690909 32.9717143 0.142493145 32.9717143 0.142493145 0.149914286 59.9690909 0.149914286"></polygon>
    </defs>
    <g id="Page-1" stroke="none" stroke-width="1" fill="none" fill-rule="evenodd">
        <g id="SonicWall_Registered-2C">
            <path d="M30.9575133,2.12906202 C29.4127072,2.12906202 27.9479288,2.551102 26.564527,3.39565351 C25.1806756,4.23973347 24.0998508,5.37711943 23.3229518,6.80686827 C22.5456032,8.23756023 22.1576033,9.83140953 22.1576033,11.5898309 C22.1576033,14.1918606 23.0176772,16.3892978 24.7373756,18.182614 C26.4575236,19.9754587 28.5306031,20.8718811 30.9575133,20.8718811 C32.5783009,20.8718811 34.0776981,20.4597437 35.4570535,19.635469 C36.8355098,18.8111943 37.911389,17.6832394 38.6837921,16.253019 C39.4566448,14.8227986 39.8428463,13.2336648 39.8428463,11.4851461 C39.8428463,9.74700154 39.4566448,8.17531522 38.6837921,6.77008713 C37.911389,5.36438749 36.8238203,4.23973347 35.4215356,3.39565351 C34.0188012,2.551102 32.5310935,2.12906202 30.9575133,2.12906202 Z M30.8648969,0 C34.0277931,0 36.6741054,1.10673501 38.8042834,3.31973347 C40.934911,5.53320349 42,8.25736545 42,11.4926909 C42,14.6987801 40.937159,17.417755 38.8114769,19.6510302 C36.6857949,21.8838339 34.0938835,23 31.0357428,23 C27.9389369,23 25.325445,21.889021 23.1957166,19.6656484 C21.065089,17.4422758 20,14.7530087 20,11.5969042 C20,9.493306 20.4851123,7.54296258 21.4557865,5.74634546 C22.4260111,3.9501999 23.7491672,2.54355715 25.4252549,1.52594567 C27.1013427,0.508805741 28.914107,0 30.8648969,0 Z" id="Fill-1" fill="#616261" fill-rule="nonzero"></path>
            <polyline id="Fill-2" fill="#616261" fill-rule="nonzero" points="47 23 47 0 47.470614 0 61.8675439 17.6305353 61.8675439 0 64 0 64 23 63.5144737 23 49.2350877 5.58398216 49.2350877 23 47 23"></polyline>
            <polygon id="Fill-3" fill="#616261" fill-rule="nonzero" points="70 23 73 23 73 0 70 0"></polygon>
            <path d="M140.541369,13.9654076 L143.699897,6.08557392 L146.84015,13.9654076 L140.541369,13.9654076 Z M145.944721,0 L141.399769,0 L135,16.6903194 L147.871192,16.7404856 L150.342518,23 L155,23 L145.944721,0 Z" id="Fill-4" fill="#616261" fill-rule="nonzero"></path>
            <polyline id="Fill-5" fill="#616261" fill-rule="nonzero" points="160 0 164.008173 0 164.008173 18.8254422 172 18.8254422 172 23 160 23 160 0"></polyline>
            <g id="Group-9" transform="translate(130.000000, 0.000000)">
                <g id="Fill-6-Clipped">
                    <mask id="mask-2" fill="white">
                        <use xlink:href="#path-1"></use>
                    </mask>
                    <g id="path-1"></g>
                    <polyline id="Fill-6" fill="#616261" fill-rule="nonzero" mask="url(#mask-2)" points="47.2877273 0.149914286 51.5236364 0.149914286 51.5236364 19.041 59.9690909 19.041 59.9690909 23.2301143 47.2877273 23.2301143 47.2877273 0.149914286"></polyline>
                </g>
                <g id="Fill-8-Clipped">
                    <mask id="mask-4" fill="white">
                        <use xlink:href="#path-3"></use>
                    </mask>
                    <g id="path-1"></g>
                    <path d="M13.2122727,33.0004714 C13.2122727,33.0004714 2.85045455,29.1305143 0.565454545,22.6917429 C-1.99272727,15.4840714 7.49227273,13.8392571 17.1936364,14.1254143 C22.4218182,14.2800429 28.8118182,15.1045714 28.8118182,15.1045714 C28.8118182,15.1045714 13.7159091,17.0982429 8.26090909,21.6640286 C2.93409091,26.1223286 13.2122727,33.0004714 13.2122727,33.0004714" id="Fill-8" fill="#E2652C" fill-rule="nonzero" mask="url(#mask-4)"></path>
                </g>
            </g>
            <path d="M97,17.471199 C94.910548,19.7751397 92.3316057,20.9306286 89.2583741,20.9306286 C86.4058931,20.9306286 84.0429024,20.0373883 82.1698819,18.2509077 C80.2968615,16.4648962 79.3605912,14.2364868 79.3605912,11.5670869 C79.3605912,9.80077918 79.7790575,8.20992943 80.6169498,6.79547587 C81.4543622,5.38149145 82.6344179,4.25508914 84.1571168,3.41673806 C85.6798157,2.57791784 87.3344851,2.15850773 89.1216048,2.15850773 C90.7561186,2.15850773 92.2557827,2.47846041 93.6215568,3.1188349 C94.9263845,3.73106107 96.0512525,4.62054828 97,5.78119773 L97,2.81624036 C96.3238315,2.26828622 95.5766388,1.60726961 94.7560227,1.213193 C93.0706402,0.404397667 91.1822632,0 89.0908916,0 C85.629427,0 82.7486323,1.09450088 80.4489874,3.28256435 C78.1498224,5.47109697 77,8.16770693 77,11.3733325 C77,14.4203892 77.9492274,17.0203565 79.8476821,19.1737037 C82.1113351,21.7248807 85.2028026,23 89.1216048,23 C91.1822632,23 93.0476053,22.6204667 94.7176313,21.8609309 C95.5464056,21.4842125 96.3070352,20.840554 97,20.3085506 L97,17.471199" id="Fill-10" fill="#616261" fill-rule="nonzero"></path>
            <path d="M7.9339696,10.4576154 C2.94803135,9.39060748 2.00335089,8.03187259 2.00335089,5.89738779 L2.00335089,5.83500887 C2.00335089,3.57623524 4.06279919,1.93702971 6.90132839,1.93702971 C9.27806367,1.93702971 11.1633856,2.68182467 13.0146003,4.35245417 L13.1891754,4.51051204 L13.2318095,4.45469932 L13.2318095,1.90138461 C11.3173169,0.564693407 9.41987793,0 6.96101604,0 C2.99246051,0 0,2.5758274 0,5.9916597 L0,6.05403862 C0,9.50692306 2.09938966,11.3595302 7.24643968,12.4481127 C12.0806905,13.4649361 12.9970979,14.791309 12.9970979,16.8831134 L12.9970979,16.9459614 C12.9970979,19.3698281 10.9089277,21.0629703 7.91915989,21.0629703 C5.00388942,21.0629703 2.93860699,20.1676217 0.553793681,17.8699199 L0.385052657,17.7076409 L0.347355194,17.7531353 L0.347355194,20.3875895 C2.63209071,22.1839148 4.98997726,23 7.82940402,23 C12.0515199,23 15,20.4457473 15,16.7893105 L15,16.7264626 C15,13.3870797 12.8866982,11.5124289 7.9339696,10.4576154" id="Fill-11" fill="#616261" fill-rule="nonzero"></path>
            <polyline id="Fill-12" fill="#616261" fill-rule="nonzero" points="130.032826 0.0662058341 124.788169 15.9304291 119.619649 0 115.510608 0 110.450328 15.5947376 110.341628 15.9304291 105.097889 0.0662058341 100 0.0662058341 108.122224 23 112.299603 23 117.390612 8.04400884 117.500229 7.72323691 122.700856 23 126.878235 23 135 0.0662058341 130.032826 0.0662058341"></polyline>
            <path d="M192.138037,1.49337181 L192.138037,2.31580846 L192.505174,2.31580846 C192.807523,2.31580846 192.947899,2.17512851 192.947899,1.91541167 C192.947899,1.65569483 192.807523,1.49337181 192.505174,1.49337181 L192.138037,1.49337181 Z M193.109871,3.96068176 L192.418789,2.81359906 L192.138037,2.81359906 L192.138037,3.96068176 L191.371367,3.96068176 L191.371367,0.995581207 L192.688743,0.995581207 C193.41267,0.995581207 193.715018,1.4284426 193.715018,1.90459013 C193.715018,2.28334385 193.520202,2.59716837 193.163862,2.72702678 L194.006119,3.96068176 L193.109871,3.96068176 Z M192.494826,0.324646046 C191.29578,0.324646046 190.323495,1.29858418 190.323495,2.49977455 C190.323495,3.70096492 191.29578,4.67490306 192.494826,4.67490306 C193.693422,4.67490306 194.675605,3.70096492 194.675605,2.49977455 C194.675605,1.29858418 193.693422,0.324646046 192.494826,0.324646046 Z M192.494826,5 C191.123009,5 190,3.88493101 190,2.49977455 C190,1.11461809 191.123009,0 192.494826,0 C193.876991,0 195,1.11461809 195,2.49977455 C195,3.88493101 193.876991,5 192.494826,5 Z" id="Fill-13" fill="#616261" fill-rule="nonzero"></path>
        </g>
    </g>
</svg>