<?xml version="1.0" encoding="UTF-8"?>
<svg width="240px" height="307px" viewBox="0 0 240 307" version="1.1" xmlns="http://www.w3.org/2000/svg" xmlns:xlink="http://www.w3.org/1999/xlink">
    <!-- Generator: Sketch 50.2 (55047) - http://www.bohemiancoding.com/sketch -->
    <title>Group 20</title>
    <desc>Created with Sketch.</desc>
    <defs></defs>
    <g id="Page-2" stroke="none" stroke-width="1" fill="none" fill-rule="evenodd">
        <g id="Group-20">
            <g id="Group-19" fill="#646566" fill-rule="nonzero">
                <g id="Doc">
                    <path d="M152.246207,3.27879327 L152.246207,68.5510667 C152.246207,83.7306652 159.783148,89.8025046 173.349641,89.8025046 L238.167333,89.8025046 L152.246207,3.27879327 Z" id="Shape"></path>
                    <path d="M217.063899,101.946183 L217.063899,262.849927 C217.063899,276.511566 208.01957,287.137285 192.945688,287.137285 L45.2216456,287.137285 C31.6551519,287.137285 21.1034346,276.511566 21.1034346,261.331967 L21.1034346,47.2996288 C21.1034346,33.6379902 31.6551519,23.0122713 46.7290338,23.0122713 L141.694489,23.0122713 L141.694489,1.76083342 L141.694489,0.242873576 L43.7142574,0.242873576 C19.5960464,0.242873576 -1.42108547e-14,19.9763516 -1.42108547e-14,44.2637091 L-1.42108547e-14,262.849927 C-1.42108547e-14,287.137285 19.5960464,306.870763 43.7142574,306.870763 L195.960464,306.870763 C220.078675,306.870763 239.674721,287.137285 239.674721,262.849927 L239.674721,98.9102636 L217.063899,98.9102636 L217.063899,101.946183 Z" id="Shape"></path>
                </g>
            </g>
            <g id="Status_Bad-Copy" transform="translate(60.000000, 129.000000)">
                <path d="M113.516162,0 L6.50833617,0 C2.92344335,0 0,2.90454175 0,6.48626598 L0,113.497416 C0,117.087299 2.92344335,120 6.50833617,120 L113.516162,120 C117.092889,120 120,117.087299 120,113.497416 L120,6.48626598 C120,2.90454175 117.092889,0 113.516162,0 Z" id="Bad-Copy" fill="#DD0031"></path>
                <rect id="Rectangle-7" fill="#FFFFFF" x="53" y="24" width="14" height="52" rx="1"></rect>
                <circle id="Oval-3" fill="#FFFFFF" cx="60.5" cy="92.5" r="7.5"></circle>
            </g>
        </g>
    </g>
</svg>