<?xml version="1.0" encoding="UTF-8"?>
<svg width="487px" height="315px" viewBox="0 0 487 315" version="1.1" xmlns="http://www.w3.org/2000/svg" xmlns:xlink="http://www.w3.org/1999/xlink">
    <!-- Generator: Sketch 50.2 (55047) - http://www.bohemiancoding.com/sketch -->
    <title>Group 21</title>
    <desc>Created with Sketch.</desc>
    <defs></defs>
    <g id="Page-2" stroke="none" stroke-width="1" fill="none" fill-rule="evenodd">
        <g id="Group-21" fill="#636569">
            <g id="Host_Home_Small_Office_LAN-Copy" transform="translate(167.000000, 0.000000)">
                <g id="Group-4">
                    <path d="M270.68026,0 C297.858701,0 319.901299,22.1132468 319.901299,49.3787987 L319.901299,197.484708 C319.901299,224.760422 297.858701,246.863506 270.68026,246.863506 L49.2109091,246.863506 C22.0324675,246.863506 0,224.760422 0,197.484708 L0,49.3787987 C0,23.6579221 22.0425974,0 49.2109091,0 L270.68026,0 Z M295.292805,185.149662 L295.292805,60.9455714 C295.292805,36.2612532 282.985013,24.5034286 258.369429,24.5034286 L61.5257922,24.5034286 C36.9000779,24.5034286 24.6024156,36.2612532 24.6024156,60.9455714 L24.6024156,185.149662 C24.6024156,209.833981 36.9000779,222.181221 61.5257922,222.181221 L258.369429,222.181221 C282.985013,222.181221 295.292805,209.833981 295.292805,185.149662 Z" id="Combined-Shape"></path>
                    <path d="M98.978961,264.220779 C98.978961,264.220779 81.038961,274.261169 81.038961,287.35026 C81.038961,298.681266 91.2093506,308.853766 102.494026,308.853766 L218.795065,308.853766 C229.29974,308.853766 239.216883,298.843864 239.216883,287.848214 C239.216883,274.759123 222.816623,264.220779 222.816623,264.220779 C222.816623,264.220779 222.26961,284.362532 204.319481,284.362532 L116.412468,284.362532 C97.9558442,284.362532 98.978961,264.220779 98.978961,264.220779" id="Fill-32"></path>
                </g>
            </g>
            <path d="M160.656002,282.67024 C143.491757,293.435253 103.925688,295.147239 90.1666967,294.953325 L90.0232014,294.947784 L89.8852252,294.947784 C76.1262337,295.141698 36.6043173,293.213636 19.2358672,282.359977 C21.6973635,246.125709 52.1183666,218.800417 89.9956062,218.800417 C127.90596,218.800417 158.326963,246.147871 160.760864,282.409841 C160.771902,282.526189 160.711193,282.636998 160.656002,282.67024 M89.9956062,114.308322 C113.390859,114.308322 132.415024,133.411649 132.415024,156.891898 C132.415024,180.372147 113.390859,199.475474 89.9956062,199.475474 C66.6058726,199.475474 47.5817076,180.372147 47.5817076,156.891898 C47.5817076,133.411649 66.6058726,114.308322 89.9956062,114.308322 M126.476526,206.750029 C141.73118,195.469759 151.648913,177.324922 151.648913,156.891898 C151.648913,122.762984 123.992954,95 89.9956062,95 C56.0037777,95 28.3478186,122.762984 28.3478186,156.891898 C28.3478186,177.324922 38.2655513,195.475299 53.5257243,206.750029 C23.5517642,219.332296 2.3530935,247.134063 0.0461306304,281.04136 C-0.450583862,288.354699 3.09264618,295.258047 9.29053924,299.069848 C34.3856592,314.488803 86.2316141,314.322591 89.9680109,314.261646 C90.304673,314.267187 91.0221494,314.272727 92.0707689,314.272727 C102.777726,314.272727 147.973226,313.397343 170.849687,299.047686 C176.948238,295.219264 180.436277,288.349158 179.95612,281.118926 L179.95612,281.113385 C177.676752,247.167306 156.467043,219.332296 126.476526,206.750029" id="Fill-16"></path>
        </g>
    </g>
</svg>