<?xml version="1.0" encoding="UTF-8"?>
<svg width="409px" height="350px" viewBox="0 0 409 350" version="1.1" xmlns="http://www.w3.org/2000/svg" xmlns:xlink="http://www.w3.org/1999/xlink">
    <!-- Generator: Sketch 50.2 (55047) - http://www.bohemiancoding.com/sketch -->
    <title>Host_Home_Small_Office_LAN</title>
    <desc>Created with Sketch.</desc>
    <defs></defs>
    <g id="Page-2" stroke="none" stroke-width="1" fill="none" fill-rule="evenodd">
        <g id="Host_Home_Small_Office_LAN" transform="translate(11.000000, 10.333333)">
            <path d="M141.047579,328.421053 L11.140727,328.421053 C5.0111929,328.421053 0,323.38371 0,317.232668 L0,11.1969511 C0,5.03734294 5.0111929,0 11.140727,0 L141.047579,0 C147.18565,0 152.196843,5.03734294 152.196843,11.1969511 L152.196843,317.232668 C152.196843,323.38371 147.18565,328.421053 141.047579,328.421053 Z M88.7920208,300.314735 C88.7920208,293.281302 83.1149454,287.57574 76.0975679,287.57574 C69.0887274,287.57574 63.3945781,293.281302 63.3945781,300.314735 C63.3945781,307.348168 69.0887274,313.05373 76.0975679,313.05373 C83.1149454,313.05373 88.7920208,307.348168 88.7920208,300.314735 Z M61.2057027,266.912354 L90.9911405,266.912354 C93.8200387,266.912354 96.1133139,264.611032 96.1133139,261.772208 C96.1133139,258.933384 93.8200387,256.632062 90.9911405,256.632062 L61.2057027,256.632062 C58.3768045,256.632062 56.0835294,258.933384 56.0835294,261.772208 C56.0835294,264.611032 58.3768045,266.912354 61.2057027,266.912354 Z M61.2057027,245.804345 L90.9911405,245.804345 C93.8200387,245.804345 96.1133139,243.503023 96.1133139,240.664199 C96.1133139,237.825375 93.8200387,235.524053 90.9911405,235.524053 L61.2057027,235.524053 C58.3768045,235.524053 56.0835294,237.825375 56.0835294,240.664199 C56.0835294,243.503023 58.3768045,245.804345 61.2057027,245.804345 Z M61.2057027,224.692909 L90.9911405,224.692909 C93.8200387,224.692909 96.1133139,222.391588 96.1133139,219.552763 C96.1133139,216.713939 93.8200387,214.412618 90.9911405,214.412618 L61.2057027,214.412618 C58.3768045,214.412618 56.0835294,216.713939 56.0835294,219.552763 C56.0835294,222.391588 58.3768045,224.692909 61.2057027,224.692909 Z" id="Combined-Shape" fill="#636569"></path>
            <path d="M141.047579,328.421053 L11.140727,328.421053 C5.0111929,328.421053 0,323.38371 0,317.232668 L0,11.1969511 C0,5.03734294 5.0111929,0 11.140727,0 L141.047579,0 C147.18565,0 152.196843,5.03734294 152.196843,11.1969511 L152.196843,317.232668 C152.196843,323.38371 147.18565,328.421053 141.047579,328.421053 Z" id="Stroke-20" stroke="#636569" stroke-width="20.505"></path>
            <g id="Group-4" transform="translate(181.818182, 127.719298)" fill="#636569">
                <path d="M182.188636,0 C200.481818,0 215.318182,14.8884211 215.318182,33.2457895 L215.318182,132.962632 C215.318182,151.326842 200.481818,166.208421 182.188636,166.208421 L33.1227273,166.208421 C14.8295455,166.208421 0,151.326842 0,132.962632 L0,33.2457895 C0,15.9284211 14.8363636,0 33.1227273,0 L182.188636,0 Z M198.754773,124.657684 L198.754773,41.0334737 C198.754773,24.414 190.470682,16.4976842 173.9025,16.4976842 L41.4115909,16.4976842 C24.8365909,16.4976842 16.5593182,24.414 16.5593182,41.0334737 L16.5593182,124.657684 C16.5593182,141.277158 24.8365909,149.590316 41.4115909,149.590316 L173.9025,149.590316 C190.470682,149.590316 198.754773,141.277158 198.754773,124.657684 Z" id="Combined-Shape"></path>
                <path d="M66.6204545,177.894737 C66.6204545,177.894737 54.5454545,184.654737 54.5454545,193.467368 C54.5454545,201.096316 61.3909091,207.945263 68.9863636,207.945263 L147.265909,207.945263 C154.336364,207.945263 161.011364,201.205789 161.011364,193.802632 C161.011364,184.99 149.972727,177.894737 149.972727,177.894737 C149.972727,177.894737 149.604545,191.455789 137.522727,191.455789 L78.3545455,191.455789 C65.9318182,191.455789 66.6204545,177.894737 66.6204545,177.894737" id="Fill-32"></path>
            </g>
        </g>
    </g>
</svg>