<?xml version="1.0" encoding="UTF-8" standalone="no"?>
<svg width="94px" height="48px" viewBox="0 0 94 48" version="1.1" xmlns="http://www.w3.org/2000/svg" xmlns:xlink="http://www.w3.org/1999/xlink">
    <!-- Generator: Sketch 50 (54983) - http://www.bohemiancoding.com/sketch -->
    <title>PoE_Switch</title>
    <desc>Created with Sketch.</desc>
    <defs></defs>
    <g id="Page-1" stroke="none" stroke-width="1" fill="none" fill-rule="evenodd">
        <g id="PoE_Switch" fill="#636569">
            <path d="M11.5544012,6.10273684 C8.54583832,6.10273684 6.10296407,8.54203509 6.10296407,11.5399298 L6.10296407,36.2922105 C6.10296407,39.2929123 8.54583832,41.7322105 11.5544012,41.7322105 L82.1866766,41.7322105 C85.1896108,41.7322105 87.6352994,39.2929123 87.6352994,36.2922105 L87.6352994,11.5399298 C87.6352994,8.54203509 85.1896108,6.10273684 82.1866766,6.10273684 L11.5544012,6.10273684 Z M82.1866766,47.8150175 L11.5544012,47.8150175 C5.1798503,47.8150175 0.00140718563,42.6472982 0.00140718563,36.2922105 L0.00140718563,11.5399298 C0.00140718563,5.18484211 5.1798503,0.017122807 11.5544012,0.017122807 L82.1866766,0.017122807 C88.5527844,0.017122807 93.7368563,5.18484211 93.7368563,11.5399298 L93.7368563,36.2922105 C93.7368563,42.6472982 88.5527844,47.8150175 82.1866766,47.8150175 Z" id="Fill-3"></path>
            <path d="M24.5272455,22.3963509 L24.5272455,11.858807 L37.3664072,11.858807 L37.3664072,22.3963509 L24.5272455,22.3963509 Z M24.5272455,35.9767018 L24.5272455,25.4391579 L37.3664072,25.4391579 L37.3664072,35.9767018 L24.5272455,35.9767018 Z M40.42,35.9767018 L40.42,25.4391579 L53.2591617,25.4391579 L53.2591617,35.9767018 L40.42,35.9767018 Z M56.3099401,35.9767018 L56.3099401,25.4391579 L69.1519162,25.4391579 L69.1519162,35.9767018 L56.3099401,35.9767018 Z M40.42,22.3963509 L40.42,11.858807 L53.2591617,11.858807 L53.2591617,22.3963509 L40.42,22.3963509 Z M72.2035389,22.3966316 L72.2035389,11.8590877 L80.1288084,11.8590877 C82.1438982,11.8590877 83.7903054,13.501193 83.7903054,15.5082105 L83.7903054,22.3966316 L72.2035389,22.3966316 Z M72.2035389,25.4391579 L83.7903054,25.4391579 L83.7903054,32.3275789 C83.7903054,34.3345965 82.1438982,35.9767018 80.1288084,35.9767018 L72.2035389,35.9767018 L72.2035389,25.4391579 Z M56.3099401,22.3963509 L56.3099401,11.858807 L69.1491018,11.858807 L69.1491018,22.3963509 L56.3099401,22.3963509 Z M21.4761856,25.4391579 L21.4761856,35.9767018 L13.1569042,35.9767018 C11.1446287,35.9767018 9.49822156,34.3345965 9.49822156,32.3275789 L9.49822156,25.4391579 L21.4761856,25.4391579 Z M21.4761856,22.3966316 L9.49822156,22.3966316 L9.49822156,15.5082105 C9.49822156,13.501193 11.1446287,11.8590877 13.1569042,11.8590877 L21.4761856,11.8590877 L21.4761856,22.3966316 Z" id="Combined-Shape"></path>
        </g>
    </g>
</svg>