<?xml version="1.0" encoding="UTF-8" standalone="no"?>
<!DOCTYPE svg PUBLIC "-//W3C//DTD SVG 1.1//EN" "http://www.w3.org/Graphics/SVG/1.1/DTD/svg11.dtd">
<svg width="100%" height="100%" viewBox="0 0 300 30" version="1.1" xmlns="http://www.w3.org/2000/svg" xmlns:xlink="http://www.w3.org/1999/xlink" xml:space="preserve" xmlns:serif="http://www.serif.com/" style="fill-rule:evenodd;clip-rule:evenodd;stroke-linejoin:round;stroke-miterlimit:1.41421;">
    <g transform="matrix(1,0,0,1,-361,-39)">
        <g transform="matrix(1,0,0,1,-459.601,7.45328)">
            <path d="M837.793,46.074C837.977,46.25 838.069,46.49 838.069,46.794L838.069,52.41C838.069,52.954 837.993,53.346 837.841,53.586C837.689,53.826 837.389,54.018 836.941,54.162C836.301,54.418 835.541,54.618 834.661,54.762C833.781,54.906 832.909,54.978 832.045,54.978C830.333,54.978 828.853,54.634 827.605,53.946C826.357,53.258 825.405,52.266 824.749,50.97C824.093,49.674 823.765,48.122 823.765,46.314C823.765,44.538 824.093,43.002 824.749,41.706C825.405,40.41 826.345,39.414 827.569,38.718C828.793,38.022 830.229,37.674 831.877,37.674C832.997,37.674 834.033,37.838 834.985,38.166C835.937,38.494 836.749,38.97 837.421,39.594C837.741,39.85 837.901,40.17 837.901,40.554C837.901,40.842 837.821,41.086 837.661,41.286C837.501,41.486 837.309,41.586 837.085,41.586C836.941,41.586 836.813,41.562 836.701,41.514C836.589,41.466 836.445,41.386 836.269,41.274C835.485,40.698 834.773,40.294 834.133,40.062C833.493,39.83 832.757,39.714 831.925,39.714C830.101,39.714 828.709,40.278 827.749,41.406C826.789,42.534 826.309,44.17 826.309,46.314C826.309,48.506 826.801,50.166 827.785,51.294C828.769,52.422 830.213,52.986 832.117,52.986C833.397,52.986 834.629,52.794 835.813,52.41L835.813,47.682L832.669,47.682C832.349,47.682 832.097,47.598 831.913,47.43C831.729,47.262 831.637,47.034 831.637,46.746C831.637,46.458 831.729,46.23 831.913,46.062C832.097,45.894 832.349,45.81 832.669,45.81L837.061,45.81C837.365,45.81 837.609,45.898 837.793,46.074Z" style="fill-rule:nonzero;"/>
            <path d="M849.913,43.962C850.673,44.746 851.053,45.938 851.053,47.538L851.053,53.754C851.053,54.122 850.949,54.406 850.741,54.606C850.533,54.806 850.245,54.906 849.877,54.906C849.525,54.906 849.245,54.802 849.037,54.594C848.829,54.386 848.725,54.106 848.725,53.754L848.725,52.866C848.421,53.538 847.969,54.054 847.369,54.414C846.769,54.774 846.069,54.954 845.269,54.954C844.501,54.954 843.797,54.798 843.157,54.486C842.517,54.174 842.017,53.738 841.657,53.178C841.297,52.618 841.117,51.994 841.117,51.306C841.117,50.458 841.337,49.79 841.777,49.302C842.217,48.814 842.945,48.466 843.961,48.258C844.977,48.05 846.373,47.946 848.149,47.946L848.701,47.946L848.701,47.25C848.701,46.354 848.517,45.706 848.149,45.306C847.781,44.906 847.189,44.706 846.373,44.706C845.813,44.706 845.285,44.778 844.789,44.922C844.293,45.066 843.749,45.274 843.157,45.546C842.725,45.786 842.421,45.906 842.245,45.906C842.005,45.906 841.809,45.818 841.657,45.642C841.505,45.466 841.429,45.242 841.429,44.97C841.429,44.73 841.497,44.518 841.633,44.334C841.769,44.15 841.989,43.97 842.293,43.794C842.853,43.49 843.509,43.246 844.261,43.062C845.013,42.878 845.741,42.786 846.445,42.786C847.997,42.786 849.153,43.178 849.913,43.962ZM847.861,52.254C848.421,51.654 848.701,50.882 848.701,49.938L848.701,49.314L848.269,49.314C847.021,49.314 846.061,49.37 845.389,49.482C844.717,49.594 844.237,49.782 843.949,50.046C843.661,50.31 843.517,50.69 843.517,51.186C843.517,51.762 843.725,52.234 844.141,52.602C844.557,52.97 845.077,53.154 845.701,53.154C846.581,53.154 847.301,52.854 847.861,52.254Z" style="fill-rule:nonzero;"/>
            <path d="M860.857,53.334C861.009,53.486 861.085,53.698 861.085,53.97C861.085,54.29 860.961,54.534 860.713,54.702C860.465,54.87 860.101,54.938 859.621,54.906L858.973,54.858C857.677,54.762 856.709,54.366 856.069,53.67C855.429,52.974 855.109,51.946 855.109,50.586L855.109,44.946L853.669,44.946C852.965,44.946 852.613,44.634 852.613,44.01C852.613,43.722 852.705,43.494 852.889,43.326C853.073,43.158 853.333,43.074 853.669,43.074L855.109,43.074L855.109,40.602C855.109,40.234 855.217,39.946 855.433,39.738C855.649,39.53 855.941,39.426 856.309,39.426C856.677,39.426 856.973,39.53 857.197,39.738C857.421,39.946 857.533,40.234 857.533,40.602L857.533,43.074L859.909,43.074C860.245,43.074 860.505,43.158 860.689,43.326C860.873,43.494 860.965,43.722 860.965,44.01C860.965,44.314 860.873,44.546 860.689,44.706C860.505,44.866 860.245,44.946 859.909,44.946L857.533,44.946L857.533,50.754C857.533,51.506 857.689,52.058 858.001,52.41C858.313,52.762 858.789,52.962 859.429,53.01L860.101,53.058C860.453,53.09 860.705,53.182 860.857,53.334Z" style="fill-rule:nonzero;"/>
            <path d="M872.557,52.098C872.701,52.274 872.773,52.498 872.773,52.77C872.773,53.234 872.485,53.626 871.909,53.946C871.349,54.266 870.737,54.514 870.073,54.69C869.409,54.866 868.773,54.954 868.165,54.954C866.309,54.954 864.845,54.414 863.773,53.334C862.701,52.254 862.165,50.778 862.165,48.906C862.165,47.706 862.401,46.642 862.873,45.714C863.345,44.786 864.009,44.066 864.865,43.554C865.721,43.042 866.693,42.786 867.781,42.786C869.349,42.786 870.589,43.29 871.501,44.298C872.413,45.306 872.869,46.666 872.869,48.378C872.869,49.018 872.581,49.338 872.005,49.338L864.589,49.338C864.749,51.818 865.941,53.058 868.165,53.058C868.757,53.058 869.269,52.978 869.701,52.818C870.133,52.658 870.589,52.45 871.069,52.194C871.117,52.162 871.249,52.094 871.465,51.99C871.681,51.886 871.861,51.834 872.005,51.834C872.229,51.834 872.413,51.922 872.557,52.098ZM865.597,45.45C865.037,46.042 864.701,46.874 864.589,47.946L870.781,47.946C870.733,46.858 870.457,46.022 869.953,45.438C869.449,44.854 868.741,44.562 867.829,44.562C866.901,44.562 866.157,44.858 865.597,45.45Z" style="fill-rule:nonzero;"/>
            <path d="M892.285,42.858C892.589,42.858 892.861,42.962 893.101,43.17C893.341,43.378 893.461,43.634 893.461,43.938C893.461,44.098 893.429,44.242 893.365,44.37L889.381,54.09C889.285,54.346 889.125,54.542 888.901,54.678C888.677,54.814 888.429,54.882 888.157,54.882C887.901,54.882 887.661,54.814 887.437,54.678C887.213,54.542 887.053,54.346 886.957,54.09L883.837,46.386L880.789,54.09C880.693,54.346 880.537,54.542 880.321,54.678C880.105,54.814 879.861,54.882 879.589,54.882C879.333,54.882 879.089,54.814 878.857,54.678C878.625,54.542 878.453,54.346 878.341,54.09L874.381,44.37C874.317,44.242 874.285,44.106 874.285,43.962C874.285,43.642 874.417,43.378 874.681,43.17C874.945,42.962 875.237,42.858 875.557,42.858C876.037,42.858 876.365,43.09 876.541,43.554L879.637,51.738L882.805,43.626C882.901,43.37 883.053,43.178 883.261,43.05C883.469,42.922 883.693,42.858 883.933,42.858C884.157,42.858 884.373,42.922 884.581,43.05C884.789,43.178 884.941,43.37 885.037,43.626L888.205,51.69L891.301,43.578C891.477,43.098 891.805,42.858 892.285,42.858Z" style="fill-rule:nonzero;"/>
            <path d="M903.913,43.962C904.673,44.746 905.053,45.938 905.053,47.538L905.053,53.754C905.053,54.122 904.949,54.406 904.741,54.606C904.533,54.806 904.245,54.906 903.877,54.906C903.525,54.906 903.245,54.802 903.037,54.594C902.829,54.386 902.725,54.106 902.725,53.754L902.725,52.866C902.421,53.538 901.969,54.054 901.369,54.414C900.769,54.774 900.069,54.954 899.269,54.954C898.501,54.954 897.797,54.798 897.157,54.486C896.517,54.174 896.017,53.738 895.657,53.178C895.297,52.618 895.117,51.994 895.117,51.306C895.117,50.458 895.337,49.79 895.777,49.302C896.217,48.814 896.945,48.466 897.961,48.258C898.977,48.05 900.373,47.946 902.149,47.946L902.701,47.946L902.701,47.25C902.701,46.354 902.517,45.706 902.149,45.306C901.781,44.906 901.189,44.706 900.373,44.706C899.813,44.706 899.285,44.778 898.789,44.922C898.293,45.066 897.749,45.274 897.157,45.546C896.725,45.786 896.421,45.906 896.245,45.906C896.005,45.906 895.809,45.818 895.657,45.642C895.505,45.466 895.429,45.242 895.429,44.97C895.429,44.73 895.497,44.518 895.633,44.334C895.769,44.15 895.989,43.97 896.293,43.794C896.853,43.49 897.509,43.246 898.261,43.062C899.013,42.878 899.741,42.786 900.445,42.786C901.997,42.786 903.153,43.178 903.913,43.962ZM901.861,52.254C902.421,51.654 902.701,50.882 902.701,49.938L902.701,49.314L902.269,49.314C901.021,49.314 900.061,49.37 899.389,49.482C898.717,49.594 898.237,49.782 897.949,50.046C897.661,50.31 897.517,50.69 897.517,51.186C897.517,51.762 897.725,52.234 898.141,52.602C898.557,52.97 899.077,53.154 899.701,53.154C900.581,53.154 901.301,52.854 901.861,52.254Z" style="fill-rule:nonzero;"/>
            <path d="M917.113,43.026C917.297,42.914 917.493,42.858 917.701,42.858C918.005,42.858 918.273,42.962 918.505,43.17C918.737,43.378 918.853,43.626 918.853,43.914C918.853,44.074 918.821,44.226 918.757,44.37L912.085,58.53C911.989,58.754 911.849,58.926 911.665,59.046C911.481,59.166 911.285,59.226 911.077,59.226C910.789,59.226 910.529,59.13 910.297,58.938C910.065,58.746 909.949,58.506 909.949,58.218C909.949,58.09 909.989,57.93 910.069,57.738L911.725,54.21L907.093,44.37C907.029,44.242 906.997,44.098 906.997,43.938C906.997,43.634 907.125,43.378 907.381,43.17C907.637,42.962 907.925,42.858 908.245,42.858C908.725,42.858 909.069,43.082 909.277,43.53L912.997,51.786L916.693,43.554C916.789,43.314 916.929,43.138 917.113,43.026Z" style="fill-rule:nonzero;"/>
            <path d="M929.593,54.474C928.497,54.138 927.621,53.674 926.965,53.082C926.661,52.826 926.509,52.498 926.509,52.098C926.509,51.81 926.589,51.566 926.749,51.366C926.909,51.166 927.101,51.066 927.325,51.066C927.549,51.066 927.821,51.17 928.141,51.378C929.565,52.434 931.189,52.962 933.013,52.962C934.293,52.962 935.277,52.722 935.965,52.242C936.653,51.762 936.997,51.074 936.997,50.178C936.997,49.474 936.677,48.946 936.037,48.594C935.397,48.242 934.373,47.906 932.965,47.586C931.621,47.298 930.517,46.97 929.653,46.602C928.789,46.234 928.113,45.734 927.625,45.102C927.137,44.47 926.893,43.666 926.893,42.69C926.893,41.714 927.161,40.846 927.697,40.086C928.233,39.326 928.981,38.734 929.941,38.31C930.901,37.886 931.997,37.674 933.229,37.674C934.365,37.674 935.413,37.834 936.373,38.154C937.333,38.474 938.149,38.946 938.821,39.57C939.141,39.842 939.301,40.17 939.301,40.554C939.301,40.826 939.217,41.066 939.049,41.274C938.881,41.482 938.685,41.586 938.461,41.586C938.253,41.586 937.989,41.482 937.669,41.274C936.933,40.714 936.241,40.31 935.593,40.062C934.945,39.814 934.165,39.69 933.253,39.69C932.021,39.69 931.061,39.942 930.373,40.446C929.685,40.95 929.341,41.65 929.341,42.546C929.341,43.314 929.645,43.894 930.253,44.286C930.861,44.678 931.837,45.034 933.181,45.354C934.589,45.674 935.729,46.006 936.601,46.35C937.473,46.694 938.169,47.166 938.689,47.766C939.209,48.366 939.469,49.138 939.469,50.082C939.469,51.042 939.201,51.894 938.665,52.638C938.129,53.382 937.377,53.958 936.409,54.366C935.441,54.774 934.325,54.978 933.061,54.978C931.845,54.978 930.689,54.81 929.593,54.474Z" style="fill-rule:nonzero;"/>
            <path d="M951.949,52.098C952.093,52.274 952.165,52.498 952.165,52.77C952.165,53.234 951.877,53.626 951.301,53.946C950.741,54.266 950.129,54.514 949.465,54.69C948.801,54.866 948.165,54.954 947.557,54.954C945.701,54.954 944.237,54.414 943.165,53.334C942.093,52.254 941.557,50.778 941.557,48.906C941.557,47.706 941.793,46.642 942.265,45.714C942.737,44.786 943.401,44.066 944.257,43.554C945.113,43.042 946.085,42.786 947.173,42.786C948.741,42.786 949.981,43.29 950.893,44.298C951.805,45.306 952.261,46.666 952.261,48.378C952.261,49.018 951.973,49.338 951.397,49.338L943.981,49.338C944.141,51.818 945.333,53.058 947.557,53.058C948.149,53.058 948.661,52.978 949.093,52.818C949.525,52.658 949.981,52.45 950.461,52.194C950.509,52.162 950.641,52.094 950.857,51.99C951.073,51.886 951.253,51.834 951.397,51.834C951.621,51.834 951.805,51.922 951.949,52.098ZM944.989,45.45C944.429,46.042 944.093,46.874 943.981,47.946L950.173,47.946C950.125,46.858 949.849,46.022 949.345,45.438C948.841,44.854 948.133,44.562 947.221,44.562C946.293,44.562 945.549,44.858 944.989,45.45Z" style="fill-rule:nonzero;"/>
            <path d="M956.953,54.21C956.097,53.714 955.433,53.01 954.961,52.098C954.489,51.186 954.253,50.13 954.253,48.93C954.253,47.714 954.497,46.642 954.985,45.714C955.473,44.786 956.157,44.066 957.037,43.554C957.917,43.042 958.925,42.786 960.061,42.786C960.669,42.786 961.281,42.874 961.897,43.05C962.513,43.226 963.061,43.466 963.541,43.77C964.053,44.122 964.309,44.53 964.309,44.994C964.309,45.266 964.237,45.494 964.093,45.678C963.949,45.862 963.765,45.954 963.541,45.954C963.397,45.954 963.253,45.918 963.109,45.846C962.965,45.774 962.781,45.666 962.557,45.522C962.157,45.266 961.785,45.07 961.441,44.934C961.097,44.798 960.685,44.73 960.205,44.73C959.117,44.73 958.273,45.098 957.673,45.834C957.073,46.57 956.773,47.594 956.773,48.906C956.773,50.218 957.069,51.23 957.661,51.942C958.253,52.654 959.093,53.01 960.181,53.01C960.661,53.01 961.085,52.938 961.453,52.794C961.821,52.65 962.197,52.458 962.581,52.218C962.757,52.106 962.933,52.01 963.109,51.93C963.285,51.85 963.445,51.81 963.589,51.81C963.813,51.81 963.997,51.902 964.141,52.086C964.285,52.27 964.357,52.498 964.357,52.77C964.357,52.994 964.297,53.198 964.177,53.382C964.057,53.566 963.853,53.754 963.565,53.946C963.085,54.266 962.525,54.514 961.885,54.69C961.245,54.866 960.597,54.954 959.941,54.954C958.805,54.954 957.809,54.706 956.953,54.21Z" style="fill-rule:nonzero;"/>
            <path d="M976.465,43.146C976.681,43.354 976.789,43.642 976.789,44.01L976.789,53.778C976.789,54.114 976.677,54.386 976.453,54.594C976.229,54.802 975.933,54.906 975.565,54.906C975.229,54.906 974.957,54.806 974.749,54.606C974.541,54.406 974.437,54.138 974.437,53.802L974.437,52.89C974.069,53.562 973.561,54.074 972.913,54.426C972.265,54.778 971.541,54.954 970.741,54.954C967.893,54.954 966.469,53.386 966.469,50.25L966.469,44.01C966.469,43.642 966.577,43.354 966.793,43.146C967.009,42.938 967.309,42.834 967.693,42.834C968.061,42.834 968.353,42.938 968.569,43.146C968.785,43.354 968.893,43.642 968.893,44.01L968.893,50.226C968.893,51.17 969.085,51.866 969.469,52.314C969.853,52.762 970.445,52.986 971.245,52.986C972.189,52.986 972.945,52.682 973.513,52.074C974.081,51.466 974.365,50.658 974.365,49.65L974.365,44.01C974.365,43.658 974.477,43.374 974.701,43.158C974.925,42.942 975.221,42.834 975.589,42.834C975.957,42.834 976.249,42.938 976.465,43.146Z" style="fill-rule:nonzero;"/>
            <path d="M987.469,43.818C987.469,44.17 987.381,44.434 987.205,44.61C987.029,44.786 986.725,44.89 986.293,44.922L985.573,44.994C984.565,45.09 983.817,45.442 983.329,46.05C982.841,46.658 982.597,47.394 982.597,48.258L982.597,53.754C982.597,54.138 982.485,54.426 982.261,54.618C982.037,54.81 981.749,54.906 981.397,54.906C981.045,54.906 980.753,54.81 980.521,54.618C980.289,54.426 980.173,54.138 980.173,53.754L980.173,43.986C980.173,43.618 980.289,43.334 980.521,43.134C980.753,42.934 981.045,42.834 981.397,42.834C981.717,42.834 981.985,42.934 982.201,43.134C982.417,43.334 982.525,43.61 982.525,43.962L982.525,45.114C982.845,44.41 983.309,43.874 983.917,43.506C984.525,43.138 985.213,42.922 985.981,42.858L986.317,42.834C987.085,42.786 987.469,43.114 987.469,43.818Z" style="fill-rule:nonzero;"/>
            <path d="M989.305,54.618C989.073,54.426 988.957,54.138 988.957,53.754L988.957,44.01C988.957,43.626 989.073,43.334 989.305,43.134C989.537,42.934 989.829,42.834 990.181,42.834C990.533,42.834 990.821,42.934 991.045,43.134C991.269,43.334 991.381,43.626 991.381,44.01L991.381,53.754C991.381,54.138 991.269,54.426 991.045,54.618C990.821,54.81 990.533,54.906 990.181,54.906C989.829,54.906 989.537,54.81 989.305,54.618ZM989.077,40.098C988.805,39.842 988.669,39.506 988.669,39.09C988.669,38.674 988.805,38.342 989.077,38.094C989.349,37.846 989.717,37.722 990.181,37.722C990.629,37.722 990.993,37.846 991.273,38.094C991.553,38.342 991.693,38.674 991.693,39.09C991.693,39.506 991.557,39.842 991.285,40.098C991.013,40.354 990.645,40.482 990.181,40.482C989.717,40.482 989.349,40.354 989.077,40.098Z" style="fill-rule:nonzero;"/>
            <path d="M1001.26,53.334C1001.41,53.486 1001.49,53.698 1001.49,53.97C1001.49,54.29 1001.36,54.534 1001.11,54.702C1000.87,54.87 1000.5,54.938 1000.02,54.906L999.373,54.858C998.077,54.762 997.109,54.366 996.469,53.67C995.829,52.974 995.509,51.946 995.509,50.586L995.509,44.946L994.069,44.946C993.365,44.946 993.013,44.634 993.013,44.01C993.013,43.722 993.105,43.494 993.289,43.326C993.473,43.158 993.733,43.074 994.069,43.074L995.509,43.074L995.509,40.602C995.509,40.234 995.617,39.946 995.833,39.738C996.049,39.53 996.341,39.426 996.709,39.426C997.077,39.426 997.373,39.53 997.597,39.738C997.821,39.946 997.933,40.234 997.933,40.602L997.933,43.074L1000.31,43.074C1000.64,43.074 1000.9,43.158 1001.09,43.326C1001.27,43.494 1001.37,43.722 1001.37,44.01C1001.37,44.314 1001.27,44.546 1001.09,44.706C1000.9,44.866 1000.64,44.946 1000.31,44.946L997.933,44.946L997.933,50.754C997.933,51.506 998.089,52.058 998.401,52.41C998.713,52.762 999.189,52.962 999.829,53.01L1000.5,53.058C1000.85,53.09 1001.11,53.182 1001.26,53.334Z" style="fill-rule:nonzero;"/>
            <path d="M1012.15,43.026C1012.34,42.914 1012.53,42.858 1012.74,42.858C1013.05,42.858 1013.31,42.962 1013.55,43.17C1013.78,43.378 1013.89,43.626 1013.89,43.914C1013.89,44.074 1013.86,44.226 1013.8,44.37L1007.12,58.53C1007.03,58.754 1006.89,58.926 1006.71,59.046C1006.52,59.166 1006.33,59.226 1006.12,59.226C1005.83,59.226 1005.57,59.13 1005.34,58.938C1005.11,58.746 1004.99,58.506 1004.99,58.218C1004.99,58.09 1005.03,57.93 1005.11,57.738L1006.76,54.21L1002.13,44.37C1002.07,44.242 1002.04,44.098 1002.04,43.938C1002.04,43.634 1002.17,43.378 1002.42,43.17C1002.68,42.962 1002.97,42.858 1003.28,42.858C1003.76,42.858 1004.11,43.082 1004.32,43.53L1008.04,51.786L1011.73,43.554C1011.83,43.314 1011.97,43.138 1012.15,43.026Z" style="fill-rule:nonzero;"/>
            <path d="M1024.63,54.474C1023.54,54.138 1022.66,53.674 1022,53.082C1021.7,52.826 1021.55,52.498 1021.55,52.098C1021.55,51.81 1021.63,51.566 1021.79,51.366C1021.95,51.166 1022.14,51.066 1022.37,51.066C1022.59,51.066 1022.86,51.17 1023.18,51.378C1024.61,52.434 1026.23,52.962 1028.05,52.962C1029.33,52.962 1030.32,52.722 1031.01,52.242C1031.69,51.762 1032.04,51.074 1032.04,50.178C1032.04,49.474 1031.72,48.946 1031.08,48.594C1030.44,48.242 1029.41,47.906 1028.01,47.586C1026.66,47.298 1025.56,46.97 1024.69,46.602C1023.83,46.234 1023.15,45.734 1022.67,45.102C1022.18,44.47 1021.93,43.666 1021.93,42.69C1021.93,41.714 1022.2,40.846 1022.74,40.086C1023.27,39.326 1024.02,38.734 1024.98,38.31C1025.94,37.886 1027.04,37.674 1028.27,37.674C1029.4,37.674 1030.45,37.834 1031.41,38.154C1032.37,38.474 1033.19,38.946 1033.86,39.57C1034.18,39.842 1034.34,40.17 1034.34,40.554C1034.34,40.826 1034.26,41.066 1034.09,41.274C1033.92,41.482 1033.72,41.586 1033.5,41.586C1033.29,41.586 1033.03,41.482 1032.71,41.274C1031.97,40.714 1031.28,40.31 1030.63,40.062C1029.99,39.814 1029.2,39.69 1028.29,39.69C1027.06,39.69 1026.1,39.942 1025.41,40.446C1024.72,40.95 1024.38,41.65 1024.38,42.546C1024.38,43.314 1024.68,43.894 1025.29,44.286C1025.9,44.678 1026.88,45.034 1028.22,45.354C1029.63,45.674 1030.77,46.006 1031.64,46.35C1032.51,46.694 1033.21,47.166 1033.73,47.766C1034.25,48.366 1034.51,49.138 1034.51,50.082C1034.51,51.042 1034.24,51.894 1033.7,52.638C1033.17,53.382 1032.42,53.958 1031.45,54.366C1030.48,54.774 1029.37,54.978 1028.1,54.978C1026.88,54.978 1025.73,54.81 1024.63,54.474Z" style="fill-rule:nonzero;"/>
            <path d="M1046.99,52.098C1047.13,52.274 1047.2,52.498 1047.2,52.77C1047.2,53.234 1046.92,53.626 1046.34,53.946C1045.78,54.266 1045.17,54.514 1044.51,54.69C1043.84,54.866 1043.2,54.954 1042.6,54.954C1040.74,54.954 1039.28,54.414 1038.2,53.334C1037.13,52.254 1036.6,50.778 1036.6,48.906C1036.6,47.706 1036.83,46.642 1037.31,45.714C1037.78,44.786 1038.44,44.066 1039.3,43.554C1040.15,43.042 1041.12,42.786 1042.21,42.786C1043.78,42.786 1045.02,43.29 1045.93,44.298C1046.85,45.306 1047.3,46.666 1047.3,48.378C1047.3,49.018 1047.01,49.338 1046.44,49.338L1039.02,49.338C1039.18,51.818 1040.37,53.058 1042.6,53.058C1043.19,53.058 1043.7,52.978 1044.13,52.818C1044.57,52.658 1045.02,52.45 1045.5,52.194C1045.55,52.162 1045.68,52.094 1045.9,51.99C1046.11,51.886 1046.29,51.834 1046.44,51.834C1046.66,51.834 1046.85,51.922 1046.99,52.098ZM1040.03,45.45C1039.47,46.042 1039.13,46.874 1039.02,47.946L1045.21,47.946C1045.16,46.858 1044.89,46.022 1044.38,45.438C1043.88,44.854 1043.17,44.562 1042.26,44.562C1041.33,44.562 1040.59,44.858 1040.03,45.45Z" style="fill-rule:nonzero;"/>
            <path d="M1057.26,43.818C1057.26,44.17 1057.17,44.434 1057,44.61C1056.82,44.786 1056.52,44.89 1056.09,44.922L1055.37,44.994C1054.36,45.09 1053.61,45.442 1053.12,46.05C1052.63,46.658 1052.39,47.394 1052.39,48.258L1052.39,53.754C1052.39,54.138 1052.28,54.426 1052.05,54.618C1051.83,54.81 1051.54,54.906 1051.19,54.906C1050.84,54.906 1050.55,54.81 1050.31,54.618C1050.08,54.426 1049.96,54.138 1049.96,53.754L1049.96,43.986C1049.96,43.618 1050.08,43.334 1050.31,43.134C1050.55,42.934 1050.84,42.834 1051.19,42.834C1051.51,42.834 1051.78,42.934 1051.99,43.134C1052.21,43.334 1052.32,43.61 1052.32,43.962L1052.32,45.114C1052.64,44.41 1053.1,43.874 1053.71,43.506C1054.32,43.138 1055.01,42.922 1055.77,42.858L1056.11,42.834C1056.88,42.786 1057.26,43.114 1057.26,43.818Z" style="fill-rule:nonzero;"/>
            <path d="M1068.22,43.026C1068.4,42.914 1068.6,42.858 1068.81,42.858C1069.11,42.858 1069.38,42.962 1069.61,43.17C1069.84,43.378 1069.96,43.626 1069.96,43.914C1069.96,44.074 1069.92,44.226 1069.86,44.37L1065.28,54.09C1065.16,54.346 1064.99,54.542 1064.76,54.678C1064.53,54.814 1064.29,54.882 1064.03,54.882C1063.77,54.882 1063.53,54.814 1063.3,54.678C1063.07,54.542 1062.89,54.346 1062.78,54.09L1058.2,44.37C1058.13,44.242 1058.1,44.09 1058.1,43.914C1058.1,43.626 1058.23,43.378 1058.49,43.17C1058.74,42.962 1059.03,42.858 1059.35,42.858C1059.81,42.858 1060.16,43.082 1060.38,43.53L1064.1,51.786L1067.8,43.554C1067.89,43.314 1068.03,43.138 1068.22,43.026Z" style="fill-rule:nonzero;"/>
            <path d="M1072.3,54.618C1072.07,54.426 1071.95,54.138 1071.95,53.754L1071.95,44.01C1071.95,43.626 1072.07,43.334 1072.3,43.134C1072.53,42.934 1072.82,42.834 1073.17,42.834C1073.53,42.834 1073.81,42.934 1074.04,43.134C1074.26,43.334 1074.37,43.626 1074.37,44.01L1074.37,53.754C1074.37,54.138 1074.26,54.426 1074.04,54.618C1073.81,54.81 1073.53,54.906 1073.17,54.906C1072.82,54.906 1072.53,54.81 1072.3,54.618ZM1072.07,40.098C1071.8,39.842 1071.66,39.506 1071.66,39.09C1071.66,38.674 1071.8,38.342 1072.07,38.094C1072.34,37.846 1072.71,37.722 1073.17,37.722C1073.62,37.722 1073.99,37.846 1074.27,38.094C1074.55,38.342 1074.68,38.674 1074.68,39.09C1074.68,39.506 1074.55,39.842 1074.28,40.098C1074.01,40.354 1073.64,40.482 1073.17,40.482C1072.71,40.482 1072.34,40.354 1072.07,40.098Z" style="fill-rule:nonzero;"/>
            <path d="M1079.79,54.21C1078.93,53.714 1078.27,53.01 1077.79,52.098C1077.32,51.186 1077.09,50.13 1077.09,48.93C1077.09,47.714 1077.33,46.642 1077.82,45.714C1078.31,44.786 1078.99,44.066 1079.87,43.554C1080.75,43.042 1081.76,42.786 1082.89,42.786C1083.5,42.786 1084.11,42.874 1084.73,43.05C1085.35,43.226 1085.89,43.466 1086.37,43.77C1086.88,44.122 1087.14,44.53 1087.14,44.994C1087.14,45.266 1087.07,45.494 1086.92,45.678C1086.78,45.862 1086.6,45.954 1086.37,45.954C1086.23,45.954 1086.09,45.918 1085.94,45.846C1085.8,45.774 1085.61,45.666 1085.39,45.522C1084.99,45.266 1084.62,45.07 1084.27,44.934C1083.93,44.798 1083.52,44.73 1083.04,44.73C1081.95,44.73 1081.11,45.098 1080.51,45.834C1079.9,46.57 1079.61,47.594 1079.61,48.906C1079.61,50.218 1079.9,51.23 1080.49,51.942C1081.09,52.654 1081.92,53.01 1083.01,53.01C1083.49,53.01 1083.92,52.938 1084.29,52.794C1084.65,52.65 1085.03,52.458 1085.41,52.218C1085.59,52.106 1085.77,52.01 1085.94,51.93C1086.12,51.85 1086.28,51.81 1086.42,51.81C1086.64,51.81 1086.83,51.902 1086.97,52.086C1087.12,52.27 1087.19,52.498 1087.19,52.77C1087.19,52.994 1087.13,53.198 1087.01,53.382C1086.89,53.566 1086.68,53.754 1086.4,53.946C1085.92,54.266 1085.36,54.514 1084.72,54.69C1084.08,54.866 1083.43,54.954 1082.77,54.954C1081.64,54.954 1080.64,54.706 1079.79,54.21Z" style="fill-rule:nonzero;"/>
            <path d="M1099.07,52.098C1099.21,52.274 1099.29,52.498 1099.29,52.77C1099.29,53.234 1099,53.626 1098.42,53.946C1097.86,54.266 1097.25,54.514 1096.59,54.69C1095.92,54.866 1095.29,54.954 1094.68,54.954C1092.82,54.954 1091.36,54.414 1090.29,53.334C1089.21,52.254 1088.68,50.778 1088.68,48.906C1088.68,47.706 1088.91,46.642 1089.38,45.714C1089.86,44.786 1090.52,44.066 1091.38,43.554C1092.23,43.042 1093.2,42.786 1094.29,42.786C1095.86,42.786 1097.1,43.29 1098.01,44.298C1098.92,45.306 1099.38,46.666 1099.38,48.378C1099.38,49.018 1099.09,49.338 1098.52,49.338L1091.1,49.338C1091.26,51.818 1092.45,53.058 1094.68,53.058C1095.27,53.058 1095.78,52.978 1096.21,52.818C1096.64,52.658 1097.1,52.45 1097.58,52.194C1097.63,52.162 1097.76,52.094 1097.98,51.99C1098.19,51.886 1098.37,51.834 1098.52,51.834C1098.74,51.834 1098.92,51.922 1099.07,52.098ZM1092.11,45.45C1091.55,46.042 1091.21,46.874 1091.1,47.946L1097.29,47.946C1097.25,46.858 1096.97,46.022 1096.46,45.438C1095.96,44.854 1095.25,44.562 1094.34,44.562C1093.41,44.562 1092.67,44.858 1092.11,45.45Z" style="fill-rule:nonzero;"/>
            <path d="M1102.12,53.946C1101.83,53.77 1101.62,53.586 1101.51,53.394C1101.38,53.202 1101.33,52.986 1101.33,52.746C1101.33,52.49 1101.4,52.274 1101.54,52.098C1101.68,51.922 1101.87,51.834 1102.09,51.834C1102.3,51.834 1102.63,51.962 1103.08,52.218C1103.56,52.474 1104.03,52.682 1104.48,52.842C1104.94,53.002 1105.51,53.082 1106.2,53.082C1106.96,53.082 1107.57,52.946 1108,52.674C1108.43,52.402 1108.64,52.018 1108.64,51.522C1108.64,51.202 1108.56,50.946 1108.39,50.754C1108.23,50.562 1107.93,50.39 1107.52,50.238C1107.1,50.086 1106.49,49.922 1105.67,49.746C1104.26,49.442 1103.25,49.03 1102.63,48.51C1102.02,47.99 1101.71,47.282 1101.71,46.386C1101.71,45.698 1101.91,45.078 1102.31,44.526C1102.71,43.974 1103.26,43.546 1103.96,43.242C1104.67,42.938 1105.47,42.786 1106.37,42.786C1107.01,42.786 1107.63,42.87 1108.24,43.038C1108.85,43.206 1109.38,43.45 1109.85,43.77C1110.37,44.122 1110.64,44.53 1110.64,44.994C1110.64,45.25 1110.56,45.466 1110.41,45.642C1110.26,45.818 1110.08,45.906 1109.87,45.906C1109.73,45.906 1109.58,45.874 1109.44,45.81C1109.29,45.746 1109.1,45.642 1108.86,45.498C1108.43,45.242 1108.03,45.042 1107.65,44.898C1107.27,44.754 1106.81,44.682 1106.25,44.682C1105.57,44.682 1105.03,44.826 1104.62,45.114C1104.22,45.402 1104.01,45.794 1104.01,46.29C1104.01,46.738 1104.2,47.086 1104.58,47.334C1104.95,47.582 1105.66,47.818 1106.7,48.042C1107.77,48.266 1108.61,48.522 1109.22,48.81C1109.83,49.098 1110.27,49.454 1110.53,49.878C1110.79,50.302 1110.92,50.842 1110.92,51.498C1110.92,52.538 1110.49,53.374 1109.62,54.006C1108.75,54.638 1107.58,54.954 1106.12,54.954C1104.49,54.954 1103.16,54.618 1102.12,53.946Z" style="fill-rule:nonzero;"/>
        </g>
    </g>
</svg>
