<?xml version="1.0" encoding="UTF-8"?>
<svg width="199px" height="150px" viewBox="0 0 199 150" version="1.1" xmlns="http://www.w3.org/2000/svg" xmlns:xlink="http://www.w3.org/1999/xlink">
    <!-- Generator: Sketch 50 (54983) - http://www.bohemiancoding.com/sketch -->
    <title>CMS</title>
    <desc>Created with Sketch.</desc>
    <defs></defs>
    <g id="Page-2" stroke="none" stroke-width="1" fill="none" fill-rule="evenodd">
        <g id="CMS" fill="#636569" fill-rule="nonzero">
            <g id="Box_Secure_Mobile_Access-Copy-12">
                <path d="M187.363627,0.18224752 L172.943337,0.18224752 L26.0366345,0.18224752 L11.6163446,0.18224752 C5.30746779,0.18224752 0.200281804,5.34592726 0.200281804,11.7245905 L0.200281804,36.9354974 C0.200281804,43.3141606 5.30746779,48.4778404 11.6163446,48.4778404 L26.0366345,48.4778404 L172.943337,48.4778404 L187.363627,48.4778404 C193.672504,48.4778404 198.77969,43.3141606 198.77969,36.9354974 L198.77969,11.7245905 C199.080113,5.34592726 193.672504,0.18224752 187.363627,0.18224752 Z M14.320149,27.5193756 L5.9083132,27.5193756 L5.9083132,21.1407123 L14.320149,21.1407123 L14.320149,27.5193756 Z M11.6163446,42.402923 C8.61211755,42.402923 6.20873591,39.9729561 6.20873591,36.9354974 L6.20873591,33.8980388 L14.6205717,33.8980388 L14.6205717,36.9354974 C14.6205717,39.0617185 15.2214171,40.8841937 16.1226852,42.402923 L11.6163446,42.402923 Z M14.320149,11.7245905 L14.320149,14.7620491 L5.9083132,14.7620491 L5.9083132,11.7245905 C5.9083132,8.6871318 8.31169485,6.25716486 11.3159219,6.25716486 L15.5218398,6.25716486 C14.9209944,8.07964006 14.320149,9.90211527 14.320149,11.7245905 Z M178.350946,36.9354974 C178.350946,39.9729561 175.947564,42.402923 172.943337,42.402923 L26.0366345,42.402923 C23.0324074,42.402923 20.6290258,39.9729561 20.6290258,36.9354974 L20.6290258,11.7245905 C20.6290258,8.6871318 23.0324074,6.25716486 26.0366345,6.25716486 L172.943337,6.25716486 C175.947564,6.25716486 178.350946,8.6871318 178.350946,11.7245905 L178.350946,36.9354974 Z M187.363627,6.25716486 C190.367854,6.25716486 192.771236,8.6871318 192.771236,11.7245905 L192.771236,14.7620491 L184.3594,14.7620491 L184.3594,11.7245905 C184.3594,9.5983694 183.758555,7.7758942 182.857287,6.25716486 L187.363627,6.25716486 Z M184.3594,21.1407123 L192.771236,21.1407123 L192.771236,27.5193756 L184.3594,27.5193756 L184.3594,21.1407123 Z M187.363627,42.402923 L183.157709,42.402923 C184.058977,40.8841937 184.659823,38.7579726 184.659823,36.9354974 L184.659823,33.8980388 L193.071659,33.8980388 L193.071659,36.9354974 C192.771236,39.9729561 190.367854,42.402923 187.363627,42.402923 Z" id="Shape"></path>
                <path d="M76.507649,36.3280057 L65.9928543,36.3280057 C63.8898953,36.3280057 62.3877818,34.8092764 62.3877818,32.6830553 L62.3877818,28.1268673 C62.3877818,26.0006462 63.8898953,24.4819169 65.9928543,24.4819169 L76.507649,24.4819169 C78.6106079,24.4819169 80.1127214,26.0006462 80.1127214,28.1268673 L80.1127214,32.6830553 C80.4131441,34.8092764 78.6106079,36.3280057 76.507649,36.3280057 Z M100.841888,36.3280057 L90.3270934,36.3280057 C88.2241345,36.3280057 86.7220209,34.8092764 86.7220209,32.6830553 L86.7220209,28.1268673 C86.7220209,26.0006462 88.2241345,24.4819169 90.3270934,24.4819169 L100.841888,24.4819169 C102.944847,24.4819169 104.446961,26.0006462 104.446961,28.1268673 L104.446961,32.6830553 C104.446961,34.8092764 102.944847,36.3280057 100.841888,36.3280057 Z M128.180354,25.6969004 L141.098531,25.6969004 L141.098531,36.3280057 L128.180354,36.3280057 L128.180354,25.6969004 Z M144.102758,25.6969004 L157.020934,25.6969004 L157.020934,36.3280057 L144.102758,36.3280057 L144.102758,25.6969004 Z M128.180354,12.0283363 L141.098531,12.0283363 L141.098531,22.6594417 L128.180354,22.6594417 L128.180354,12.0283363 Z M160.025161,22.6594417 L160.325584,22.6594417 L160.325584,12.0283363 L168.136574,12.0283363 C170.239533,12.0283363 171.741647,13.5470657 171.741647,15.6732867 L171.741647,22.6594417 L160.025161,22.6594417 Z M125.176127,25.6969004 L125.176127,36.3280057 L116.764291,36.3280057 C114.661333,36.3280057 113.159219,34.8092764 113.159219,32.6830553 L113.159219,25.6969004 L125.176127,25.6969004 Z M160.025161,25.6969004 L171.441224,25.6969004 L171.441224,32.6830553 C171.441224,34.8092764 169.93911,36.3280057 167.836151,36.3280057 L160.025161,36.3280057 L160.025161,25.6969004 Z M125.176127,22.6594417 L113.159219,22.6594417 L113.159219,15.6732867 C113.159219,13.5470657 114.661333,12.0283363 116.764291,12.0283363 L125.176127,12.0283363 L125.176127,22.6594417 Z M144.102758,12.0283363 L157.020934,12.0283363 L157.020934,22.6594417 L144.102758,22.6594417 L144.102758,12.0283363 Z" id="Combined-Shape"></path>
            </g>
            <g id="Box_Secure_Mobile_Access-Copy-13" transform="translate(0.000000, 51.063830)">
                <path d="M187.363627,0.18224752 L172.943337,0.18224752 L26.0366345,0.18224752 L11.6163446,0.18224752 C5.30746779,0.18224752 0.200281804,5.34592726 0.200281804,11.7245905 L0.200281804,36.9354974 C0.200281804,43.3141606 5.30746779,48.4778404 11.6163446,48.4778404 L26.0366345,48.4778404 L172.943337,48.4778404 L187.363627,48.4778404 C193.672504,48.4778404 198.77969,43.3141606 198.77969,36.9354974 L198.77969,11.7245905 C199.080113,5.34592726 193.672504,0.18224752 187.363627,0.18224752 Z M14.320149,27.5193756 L5.9083132,27.5193756 L5.9083132,21.1407123 L14.320149,21.1407123 L14.320149,27.5193756 Z M11.6163446,42.402923 C8.61211755,42.402923 6.20873591,39.9729561 6.20873591,36.9354974 L6.20873591,33.8980388 L14.6205717,33.8980388 L14.6205717,36.9354974 C14.6205717,39.0617185 15.2214171,40.8841937 16.1226852,42.402923 L11.6163446,42.402923 Z M14.320149,11.7245905 L14.320149,14.7620491 L5.9083132,14.7620491 L5.9083132,11.7245905 C5.9083132,8.6871318 8.31169485,6.25716486 11.3159219,6.25716486 L15.5218398,6.25716486 C14.9209944,8.07964006 14.320149,9.90211527 14.320149,11.7245905 Z M178.350946,36.9354974 C178.350946,39.9729561 175.947564,42.402923 172.943337,42.402923 L26.0366345,42.402923 C23.0324074,42.402923 20.6290258,39.9729561 20.6290258,36.9354974 L20.6290258,11.7245905 C20.6290258,8.6871318 23.0324074,6.25716486 26.0366345,6.25716486 L172.943337,6.25716486 C175.947564,6.25716486 178.350946,8.6871318 178.350946,11.7245905 L178.350946,36.9354974 Z M187.363627,6.25716486 C190.367854,6.25716486 192.771236,8.6871318 192.771236,11.7245905 L192.771236,14.7620491 L184.3594,14.7620491 L184.3594,11.7245905 C184.3594,9.5983694 183.758555,7.7758942 182.857287,6.25716486 L187.363627,6.25716486 Z M184.3594,21.1407123 L192.771236,21.1407123 L192.771236,27.5193756 L184.3594,27.5193756 L184.3594,21.1407123 Z M187.363627,42.402923 L183.157709,42.402923 C184.058977,40.8841937 184.659823,38.7579726 184.659823,36.9354974 L184.659823,33.8980388 L193.071659,33.8980388 L193.071659,36.9354974 C192.771236,39.9729561 190.367854,42.402923 187.363627,42.402923 Z" id="Shape"></path>
                <path d="M76.507649,36.3280057 L65.9928543,36.3280057 C63.8898953,36.3280057 62.3877818,34.8092764 62.3877818,32.6830553 L62.3877818,28.1268673 C62.3877818,26.0006462 63.8898953,24.4819169 65.9928543,24.4819169 L76.507649,24.4819169 C78.6106079,24.4819169 80.1127214,26.0006462 80.1127214,28.1268673 L80.1127214,32.6830553 C80.4131441,34.8092764 78.6106079,36.3280057 76.507649,36.3280057 Z M100.841888,36.3280057 L90.3270934,36.3280057 C88.2241345,36.3280057 86.7220209,34.8092764 86.7220209,32.6830553 L86.7220209,28.1268673 C86.7220209,26.0006462 88.2241345,24.4819169 90.3270934,24.4819169 L100.841888,24.4819169 C102.944847,24.4819169 104.446961,26.0006462 104.446961,28.1268673 L104.446961,32.6830553 C104.446961,34.8092764 102.944847,36.3280057 100.841888,36.3280057 Z M128.180354,25.6969004 L141.098531,25.6969004 L141.098531,36.3280057 L128.180354,36.3280057 L128.180354,25.6969004 Z M144.102758,25.6969004 L157.020934,25.6969004 L157.020934,36.3280057 L144.102758,36.3280057 L144.102758,25.6969004 Z M128.180354,12.0283363 L141.098531,12.0283363 L141.098531,22.6594417 L128.180354,22.6594417 L128.180354,12.0283363 Z M160.025161,22.6594417 L160.325584,22.6594417 L160.325584,12.0283363 L168.136574,12.0283363 C170.239533,12.0283363 171.741647,13.5470657 171.741647,15.6732867 L171.741647,22.6594417 L160.025161,22.6594417 Z M125.176127,25.6969004 L125.176127,36.3280057 L116.764291,36.3280057 C114.661333,36.3280057 113.159219,34.8092764 113.159219,32.6830553 L113.159219,25.6969004 L125.176127,25.6969004 Z M160.025161,25.6969004 L171.441224,25.6969004 L171.441224,32.6830553 C171.441224,34.8092764 169.93911,36.3280057 167.836151,36.3280057 L160.025161,36.3280057 L160.025161,25.6969004 Z M125.176127,22.6594417 L113.159219,22.6594417 L113.159219,15.6732867 C113.159219,13.5470657 114.661333,12.0283363 116.764291,12.0283363 L125.176127,12.0283363 L125.176127,22.6594417 Z M144.102758,12.0283363 L157.020934,12.0283363 L157.020934,22.6594417 L144.102758,22.6594417 L144.102758,12.0283363 Z" id="Combined-Shape"></path>
            </g>
            <g id="Box_Secure_Mobile_Access-Copy-14" transform="translate(0.000000, 101.329787)">
                <path d="M187.363627,0.18224752 L172.943337,0.18224752 L26.0366345,0.18224752 L11.6163446,0.18224752 C5.30746779,0.18224752 0.200281804,5.34592726 0.200281804,11.7245905 L0.200281804,36.9354974 C0.200281804,43.3141606 5.30746779,48.4778404 11.6163446,48.4778404 L26.0366345,48.4778404 L172.943337,48.4778404 L187.363627,48.4778404 C193.672504,48.4778404 198.77969,43.3141606 198.77969,36.9354974 L198.77969,11.7245905 C199.080113,5.34592726 193.672504,0.18224752 187.363627,0.18224752 Z M14.320149,27.5193756 L5.9083132,27.5193756 L5.9083132,21.1407123 L14.320149,21.1407123 L14.320149,27.5193756 Z M11.6163446,42.402923 C8.61211755,42.402923 6.20873591,39.9729561 6.20873591,36.9354974 L6.20873591,33.8980388 L14.6205717,33.8980388 L14.6205717,36.9354974 C14.6205717,39.0617185 15.2214171,40.8841937 16.1226852,42.402923 L11.6163446,42.402923 Z M14.320149,11.7245905 L14.320149,14.7620491 L5.9083132,14.7620491 L5.9083132,11.7245905 C5.9083132,8.6871318 8.31169485,6.25716486 11.3159219,6.25716486 L15.5218398,6.25716486 C14.9209944,8.07964006 14.320149,9.90211527 14.320149,11.7245905 Z M178.350946,36.9354974 C178.350946,39.9729561 175.947564,42.402923 172.943337,42.402923 L26.0366345,42.402923 C23.0324074,42.402923 20.6290258,39.9729561 20.6290258,36.9354974 L20.6290258,11.7245905 C20.6290258,8.6871318 23.0324074,6.25716486 26.0366345,6.25716486 L172.943337,6.25716486 C175.947564,6.25716486 178.350946,8.6871318 178.350946,11.7245905 L178.350946,36.9354974 Z M187.363627,6.25716486 C190.367854,6.25716486 192.771236,8.6871318 192.771236,11.7245905 L192.771236,14.7620491 L184.3594,14.7620491 L184.3594,11.7245905 C184.3594,9.5983694 183.758555,7.7758942 182.857287,6.25716486 L187.363627,6.25716486 Z M184.3594,21.1407123 L192.771236,21.1407123 L192.771236,27.5193756 L184.3594,27.5193756 L184.3594,21.1407123 Z M187.363627,42.402923 L183.157709,42.402923 C184.058977,40.8841937 184.659823,38.7579726 184.659823,36.9354974 L184.659823,33.8980388 L193.071659,33.8980388 L193.071659,36.9354974 C192.771236,39.9729561 190.367854,42.402923 187.363627,42.402923 Z" id="Shape"></path>
                <path d="M76.507649,36.3280057 L65.9928543,36.3280057 C63.8898953,36.3280057 62.3877818,34.8092764 62.3877818,32.6830553 L62.3877818,28.1268673 C62.3877818,26.0006462 63.8898953,24.4819169 65.9928543,24.4819169 L76.507649,24.4819169 C78.6106079,24.4819169 80.1127214,26.0006462 80.1127214,28.1268673 L80.1127214,32.6830553 C80.4131441,34.8092764 78.6106079,36.3280057 76.507649,36.3280057 Z M100.841888,36.3280057 L90.3270934,36.3280057 C88.2241345,36.3280057 86.7220209,34.8092764 86.7220209,32.6830553 L86.7220209,28.1268673 C86.7220209,26.0006462 88.2241345,24.4819169 90.3270934,24.4819169 L100.841888,24.4819169 C102.944847,24.4819169 104.446961,26.0006462 104.446961,28.1268673 L104.446961,32.6830553 C104.446961,34.8092764 102.944847,36.3280057 100.841888,36.3280057 Z M128.180354,25.6969004 L141.098531,25.6969004 L141.098531,36.3280057 L128.180354,36.3280057 L128.180354,25.6969004 Z M144.102758,25.6969004 L157.020934,25.6969004 L157.020934,36.3280057 L144.102758,36.3280057 L144.102758,25.6969004 Z M128.180354,12.0283363 L141.098531,12.0283363 L141.098531,22.6594417 L128.180354,22.6594417 L128.180354,12.0283363 Z M160.025161,22.6594417 L160.325584,22.6594417 L160.325584,12.0283363 L168.136574,12.0283363 C170.239533,12.0283363 171.741647,13.5470657 171.741647,15.6732867 L171.741647,22.6594417 L160.025161,22.6594417 Z M125.176127,25.6969004 L125.176127,36.3280057 L116.764291,36.3280057 C114.661333,36.3280057 113.159219,34.8092764 113.159219,32.6830553 L113.159219,25.6969004 L125.176127,25.6969004 Z M160.025161,25.6969004 L171.441224,25.6969004 L171.441224,32.6830553 C171.441224,34.8092764 169.93911,36.3280057 167.836151,36.3280057 L160.025161,36.3280057 L160.025161,25.6969004 Z M125.176127,22.6594417 L113.159219,22.6594417 L113.159219,15.6732867 C113.159219,13.5470657 114.661333,12.0283363 116.764291,12.0283363 L125.176127,12.0283363 L125.176127,22.6594417 Z M144.102758,12.0283363 L157.020934,12.0283363 L157.020934,22.6594417 L144.102758,22.6594417 L144.102758,12.0283363 Z" id="Combined-Shape"></path>
            </g>
        </g>
    </g>
</svg>