<?xml version="1.0" encoding="UTF-8" standalone="no"?>
<svg width="75px" height="84px" viewBox="0 0 75 84" version="1.1" xmlns="http://www.w3.org/2000/svg" xmlns:xlink="http://www.w3.org/1999/xlink">
    <!-- Generator: Sketch 50.2 (55047) - http://www.bohemiancoding.com/sketch -->
    <title>Line 23</title>
    <desc>Created with Sketch.</desc>
    <defs></defs>
    <g id="Page-1" stroke="none" stroke-width="1" fill="none" fill-rule="evenodd">
        <path d="M0.508124677,3.33203154 C-0.227536028,2.50809155 -0.155971528,1.24378538 0.667968461,0.508124677 C1.49190845,-0.227536028 2.75621462,-0.155971528 3.49187532,0.667968461 L4.15789109,1.41390612 C4.8935518,2.23784611 4.8219873,3.50215228 3.99804731,4.23781298 C3.17410732,4.97347369 1.90980115,4.90190919 1.17414045,4.0779692 L0.508124677,3.33203154 Z M10.4983612,14.5210965 C9.76270051,13.6971565 9.83426501,12.4328503 10.658205,11.6971896 C11.482145,10.9615289 12.7464512,11.0330934 13.4821119,11.8570334 L14.1481276,12.602971 C14.8837883,13.426911 14.8122238,14.6912172 13.9882838,15.4268779 C13.1643439,16.1625386 11.9000377,16.0909741 11.164377,15.2670341 L10.4983612,14.5210965 Z M20.4885978,25.7101614 C19.7529371,24.8862214 19.8245016,23.6219152 20.6484415,22.8862545 C21.4723815,22.1505938 22.7366877,22.2221583 23.4723484,23.0460983 L24.1383642,23.792036 C24.8740249,24.615976 24.8024604,25.8802821 23.9785204,26.6159428 C23.1545804,27.3516035 21.8902742,27.280039 21.1546135,26.456099 L20.4885978,25.7101614 Z M30.4788343,36.8992263 C29.7431736,36.0752863 29.8147381,34.8109802 30.6386781,34.0753194 C31.4626181,33.3396587 32.7269242,33.4112232 33.4625849,34.2351632 L34.1286007,34.9811009 C34.8642614,35.8050409 34.7926969,37.0693471 33.9687569,37.8050078 C33.1448169,38.5406685 31.8805108,38.469104 31.1448501,37.645164 L30.4788343,36.8992263 Z M40.4690708,48.0882912 C39.7334101,47.2643512 39.8049746,46.0000451 40.6289146,45.2643844 C41.4528546,44.5287237 42.7171608,44.6002882 43.4528215,45.4242282 L44.1188373,46.1701658 C44.854498,46.9941058 44.7829335,48.258412 43.9589935,48.9940727 C43.1350535,49.7297334 41.8707473,49.6581689 41.1350866,48.8342289 L40.4690708,48.0882912 Z M50.4593074,59.2773562 C49.7236467,58.4534162 49.7952112,57.18911 50.6191512,56.4534493 C51.4430911,55.7177886 52.7073973,55.7893531 53.443058,56.6132931 L54.1090738,57.3592307 C54.8447345,58.1831707 54.77317,59.4474769 53.94923,60.1831376 C53.12529,60.9187983 51.8609838,60.8472338 51.1253231,60.0232938 L50.4593074,59.2773562 Z M60.4495439,70.4664211 C59.7138832,69.6424811 59.7854477,68.3781749 60.6093877,67.6425142 C61.4333277,66.9068535 62.6976339,66.978418 63.4332946,67.802358 L64.0993103,68.5482957 C64.834971,69.3722357 64.7634065,70.6365418 63.9394665,71.3722025 C63.1155266,72.1078632 61.8512204,72.0362987 61.1155597,71.2123587 L60.4495439,70.4664211 Z M70.4397805,81.655486 C69.7041197,80.831546 69.7756842,79.5672399 70.5996242,78.8315791 C71.4235642,78.0959184 72.6878704,78.1674829 73.4235311,78.9914229 L74.0895469,79.7373606 C74.8252076,80.5613006 74.7536431,81.8256068 73.9297031,82.5612675 C73.1057631,83.2969282 71.8414569,83.2253637 71.1057962,82.4014237 L70.4397805,81.655486 Z" id="Line-23" fill="#47AFE8" fill-rule="nonzero"></path>
    </g>
</svg>