<?xml version="1.0" encoding="UTF-8" standalone="no"?>
<svg width="260px" height="93px" viewBox="0 0 260 93" version="1.1" xmlns="http://www.w3.org/2000/svg" xmlns:xlink="http://www.w3.org/1999/xlink">
    <!-- Generator: Sketch 50.2 (55047) - http://www.bohemiancoding.com/sketch -->
    <title>Line 28</title>
    <desc>Created with Sketch.</desc>
    <defs></defs>
    <g id="Page-1" stroke="none" stroke-width="1" fill="none" fill-rule="evenodd">
        <path d="M1.34406499,3.88937801 C0.300590331,3.52711511 -0.251640912,2.38753965 0.11062199,1.34406499 C0.472884891,0.300590331 1.61246035,-0.251640912 2.65593501,0.11062199 L3.60062401,0.438589493 C4.64409867,0.800852395 5.19632992,1.94042785 4.83406702,2.98390251 C4.47180411,4.02737717 3.33222866,4.57960842 2.288754,4.21734551 L1.34406499,3.88937801 Z M15.5144001,8.80889057 C14.4709254,8.44662766 13.9186942,7.30705221 14.2809571,6.26357755 C14.64322,5.22010289 15.7827954,4.66787164 16.8262701,5.03013454 L17.7709591,5.35810205 C18.8144338,5.72036495 19.366665,6.8599404 19.0044021,7.90341507 C18.6421392,8.94688973 17.5025637,9.49912097 16.4590891,9.13685807 L15.5144001,8.80889057 Z M29.6847351,13.7284031 C28.6412605,13.3661402 28.0890292,12.2265648 28.4512921,11.1830901 C28.813555,10.1396154 29.9531305,9.5873842 30.9966052,9.9496471 L31.9412942,10.2776146 C32.9847688,10.6398775 33.5370001,11.779453 33.1747372,12.8229276 C32.8124743,13.8664023 31.6728988,14.4186335 30.6294242,14.0563706 L29.6847351,13.7284031 Z M43.8550702,18.6479157 C42.8115956,18.2856528 42.2593643,17.1460773 42.6216272,16.1026027 C42.9838901,15.059128 44.1234656,14.5068968 45.1669402,14.8691597 L46.1116292,15.1971272 C47.1551039,15.5593901 47.7073352,16.6989655 47.3450722,17.7424402 C46.9828093,18.7859148 45.8432339,19.3381461 44.7997592,18.9758832 L43.8550702,18.6479157 Z M58.0254053,23.5674282 C56.9819306,23.2051653 56.4296994,22.0655899 56.7919623,21.0221152 C57.1542252,19.9786406 58.2938007,19.4264093 59.3372753,19.7886722 L60.2819643,20.1166397 C61.325439,20.4789026 61.8776702,21.6184781 61.5154073,22.6619527 C61.1531444,23.7054274 60.013569,24.2576586 58.9700943,23.8953957 L58.0254053,23.5674282 Z M72.1957404,28.4869408 C71.1522657,28.1246779 70.6000345,26.9851024 70.9622974,25.9416278 C71.3245603,24.8981531 72.4641357,24.3459219 73.5076104,24.7081848 L74.4522994,25.0361523 C75.4957741,25.3984152 76.0480053,26.5379906 75.6857424,27.5814653 C75.3234795,28.6249399 74.183904,29.1771712 73.1404294,28.8149083 L72.1957404,28.4869408 Z M86.3660755,33.4064533 C85.3226008,33.0441904 84.7703696,31.904615 85.1326325,30.8611403 C85.4948954,29.8176657 86.6344708,29.2654344 87.6779455,29.6276973 L88.6226345,29.9556648 C89.6661091,30.3179277 90.2183404,31.4575032 89.8560775,32.5009778 C89.4938146,33.5444525 88.3542391,34.0966837 87.3107645,33.7344208 L86.3660755,33.4064533 Z M100.536411,38.3259659 C99.4929359,37.963703 98.9407046,36.8241275 99.3029675,35.7806529 C99.6652304,34.7371782 100.804806,34.184947 101.848281,34.5472099 L102.79297,34.8751774 C103.836444,35.2374403 104.388675,36.3770157 104.026413,37.4204904 C103.66415,38.4639651 102.524574,39.0161963 101.4811,38.6539334 L100.536411,38.3259659 Z M114.706746,43.2454785 C113.663271,42.8832156 113.11104,41.7436401 113.473303,40.7001654 C113.835566,39.6566908 114.975141,39.1044595 116.018616,39.4667224 L116.963305,39.7946899 C118.006779,40.1569528 118.559011,41.2965283 118.196748,42.340003 C117.834485,43.3834776 116.694909,43.9357089 115.651435,43.573446 L114.706746,43.2454785 Z M128.877081,48.164991 C127.833606,47.8027281 127.281375,46.6631527 127.643638,45.619678 C128.005901,44.5762033 129.145476,44.0239721 130.188951,44.386235 L131.13364,44.7142025 C132.177114,45.0764654 132.729346,46.2160408 132.367083,47.2595155 C132.00482,48.3029902 130.865244,48.8552214 129.82177,48.4929585 L128.877081,48.164991 Z M143.047416,53.0845036 C142.003941,52.7222407 141.45171,51.5826652 141.813973,50.5391905 C142.176236,49.4957159 143.315811,48.9434846 144.359286,49.3057475 L145.303975,49.633715 C146.347449,49.9959779 146.899681,51.1355534 146.537418,52.1790281 C146.175155,53.2225027 145.035579,53.774734 143.992105,53.4124711 L143.047416,53.0845036 Z M157.217751,58.0040161 C156.174276,57.6417532 155.622045,56.5021778 155.984308,55.4587031 C156.346571,54.4152284 157.486146,53.8629972 158.529621,54.2252601 L159.47431,54.5532276 C160.517785,54.9154905 161.070016,56.055066 160.707753,57.0985406 C160.34549,58.1420153 159.205915,58.6942465 158.16244,58.3319836 L157.217751,58.0040161 Z M171.388086,62.9235287 C170.344611,62.5612658 169.79238,61.4216903 170.154643,60.3782157 C170.516906,59.334741 171.656481,58.7825098 172.699956,59.1447727 L173.644645,59.4727402 C174.68812,59.8350031 175.240351,60.9745785 174.878088,62.0180532 C174.515825,63.0615278 173.37625,63.6137591 172.332775,63.2514962 L171.388086,62.9235287 Z M185.558421,67.8430412 C184.514946,67.4807783 183.962715,66.3412029 184.324978,65.2977282 C184.687241,64.2542536 185.826816,63.7020223 186.870291,64.0642852 L187.81498,64.3922527 C188.858455,64.7545156 189.410686,65.8940911 189.048423,66.9375657 C188.68616,67.9810404 187.546585,68.5332716 186.50311,68.1710087 L185.558421,67.8430412 Z M199.728756,72.7625538 C198.685281,72.4002909 198.13305,71.2607154 198.495313,70.2172408 C198.857576,69.1737661 199.997151,68.6215349 201.040626,68.9837978 L201.985315,69.3117653 C203.02879,69.6740282 203.581021,70.8136036 203.218758,71.8570783 C202.856495,72.9005529 201.71692,73.4527842 200.673445,73.0905213 L199.728756,72.7625538 Z M213.899091,77.6820663 C212.855616,77.3198034 212.303385,76.180228 212.665648,75.1367533 C213.027911,74.0932787 214.167487,73.5410474 215.210961,73.9033103 L216.15565,74.2312778 C217.199125,74.5935407 217.751356,75.7331162 217.389093,76.7765908 C217.02683,77.8200655 215.887255,78.3722967 214.84378,78.0100338 L213.899091,77.6820663 Z M228.069426,82.6015789 C227.025952,82.239316 226.47372,81.0997405 226.835983,80.0562659 C227.198246,79.0127912 228.337822,78.46056 229.381296,78.8228229 L230.325985,79.1507904 C231.36946,79.5130533 231.921691,80.6526287 231.559428,81.6961034 C231.197165,82.7395781 230.05759,83.2918093 229.014115,82.9295464 L228.069426,82.6015789 Z M242.239761,87.5210915 C241.196287,87.1588285 240.644055,86.0192531 241.006318,84.9757784 C241.368581,83.9323038 242.508157,83.3800725 243.551631,83.7423354 L244.49632,84.0703029 C245.539795,84.4325658 246.092026,85.5721413 245.729763,86.615616 C245.3675,87.6590906 244.227925,88.2113219 243.18445,87.849059 L242.239761,87.5210915 Z M256.410096,92.440604 C255.366622,92.0783411 254.81439,90.9387657 255.176653,89.895291 C255.538916,88.8518163 256.678492,88.2995851 257.721966,88.661848 L258.666655,88.9898155 C259.71013,89.3520784 260.262361,90.4916538 259.900098,91.5351285 C259.537836,92.5786032 258.39826,93.1308344 257.354785,92.7685715 L256.410096,92.440604 Z" id="Line-28" fill="#47AFE8" fill-rule="nonzero"></path>
    </g>
</svg>