<?xml version="1.0" encoding="UTF-8" standalone="no"?>
<svg width="141px" height="70px" viewBox="0 0 141 70" version="1.1" xmlns="http://www.w3.org/2000/svg" xmlns:xlink="http://www.w3.org/1999/xlink">
    <!-- Generator: Sketch 50.2 (55047) - http://www.bohemiancoding.com/sketch -->
    <title>Line 27</title>
    <desc>Created with Sketch.</desc>
    <defs></defs>
    <g id="Page-1" stroke="none" stroke-width="1" fill="none" fill-rule="evenodd">
        <path d="M2.86291099,69.8042684 C1.86644105,70.280841 0.67230414,69.8593809 0.195731557,68.862911 C-0.280841026,67.866441 0.14061906,66.6723041 1.13708901,66.1957316 L2.03922323,65.7642761 C3.03569317,65.2877035 4.22983008,65.7091636 4.70640266,66.7056335 C5.18297525,67.7021035 4.76151516,68.8962404 3.76504522,69.3728129 L2.86291099,69.8042684 Z M16.3949243,63.332436 C15.3984544,63.8090086 14.2043175,63.3875485 13.7277449,62.3910785 C13.2511723,61.3946086 13.6726324,60.2004717 14.6691023,59.7238991 L15.5712366,59.2924436 C16.5677065,58.815871 17.7618434,59.2373311 18.238416,60.233801 C18.7149886,61.230271 18.2935285,62.4244079 17.2970585,62.9009805 L16.3949243,63.332436 Z M29.9269376,56.8606035 C28.9304677,57.3371761 27.7363308,56.915716 27.2597582,55.9192461 C26.7831856,54.9227761 27.2046457,53.7286392 28.2011157,53.2520666 L29.1032499,52.8206111 C30.0997198,52.3440386 31.2938567,52.7654986 31.7704293,53.7619686 C32.2470019,54.7584385 31.8255418,55.9525754 30.8290719,56.429148 L29.9269376,56.8606035 Z M43.458951,50.3887711 C42.462481,50.8653436 41.2683441,50.4438836 40.7917715,49.4474136 C40.3151989,48.4509437 40.736659,47.2568068 41.733129,46.7802342 L42.6352632,46.3487787 C43.6317331,45.8722061 44.8258701,46.2936662 45.3024426,47.2901361 C45.7790152,48.2866061 45.3575551,49.480743 44.3610852,49.9573156 L43.458951,50.3887711 Z M56.9909643,43.9169386 C55.9944943,44.3935112 54.8003574,43.9720511 54.3237849,42.9755812 C53.8472123,41.9791112 54.2686724,40.7849743 55.2651423,40.3084017 L56.1672765,39.8769462 C57.1637465,39.4003736 58.3578834,39.8218337 58.834456,40.8183037 C59.3110285,41.8147736 58.8895685,43.0089105 57.8930985,43.4854831 L56.9909643,43.9169386 Z M70.5229776,37.4451061 C69.5265077,37.9216787 68.3323708,37.5002186 67.8557982,36.5037487 C67.3792256,35.5072788 67.8006857,34.3131418 68.7971556,33.8365693 L69.6992898,33.4051138 C70.6957598,32.9285412 71.8898967,33.3500013 72.3664693,34.3464712 C72.8430419,35.3429412 72.4215818,36.5370781 71.4251118,37.0136506 L70.5229776,37.4451061 Z M84.0549909,30.9732737 C83.058521,31.4498463 81.8643841,31.0283862 81.3878115,30.0319162 C80.9112389,29.0354463 81.332699,27.8413094 82.329169,27.3647368 L83.2313032,26.9332813 C84.2277731,26.4567087 85.42191,26.8781688 85.8984826,27.8746388 C86.3750552,28.8711087 85.9535951,30.0652456 84.9571252,30.5418182 L84.0549909,30.9732737 Z M97.5870043,24.5014412 C96.5905343,24.9780138 95.3963974,24.5565537 94.9198248,23.5600838 C94.4432522,22.5636138 94.8647123,21.3694769 95.8611823,20.8929043 L96.7633165,20.4614488 C97.7597864,19.9848763 98.9539234,20.4063363 99.4304959,21.4028063 C99.9070685,22.3992762 99.4856084,23.5934131 98.4891385,24.0699857 L97.5870043,24.5014412 Z M111.119018,18.0296088 C110.122548,18.5061813 108.928411,18.0847213 108.451838,17.0882513 C107.975266,16.0917814 108.396726,14.8976445 109.393196,14.4210719 L110.29533,13.9896164 C111.2918,13.5130438 112.485937,13.9345039 112.962509,14.9309738 C113.439082,15.9274438 113.017622,17.1215807 112.021152,17.5981533 L111.119018,18.0296088 Z M124.651031,11.5577763 C123.654561,12.0343489 122.460424,11.6128888 121.983851,10.6164189 C121.507279,9.61994891 121.928739,8.425812 122.925209,7.94923942 L123.827343,7.51778392 C124.823813,7.04121134 126.01795,7.46267143 126.494523,8.45914137 C126.971095,9.45561132 126.549635,10.6497482 125.553165,11.1263208 L124.651031,11.5577763 Z M138.183044,5.08594385 C137.186574,5.56251643 135.992437,5.14105634 135.515865,4.1445864 C135.039292,3.14811645 135.460752,1.95397954 136.457222,1.47740696 L137.359356,1.04595146 C138.355826,0.569378881 139.549963,0.990838967 140.026536,1.98730891 C140.503108,2.98377886 140.081648,4.17791577 139.085178,4.65448835 L138.183044,5.08594385 Z" id="Line-27" fill="#47AFE8" fill-rule="nonzero"></path>
    </g>
</svg>