<?xml version="1.0" encoding="UTF-8" standalone="no"?>
<svg width="315px" height="157px" viewBox="0 0 315 157" version="1.1" xmlns="http://www.w3.org/2000/svg" xmlns:xlink="http://www.w3.org/1999/xlink">
    <!-- Generator: Sketch 50.2 (55047) - http://www.bohemiancoding.com/sketch -->
    <title>Line 30</title>
    <desc>Created with Sketch.</desc>
    <defs></defs>
    <g id="Page-1" stroke="none" stroke-width="1" fill="none" fill-rule="evenodd">
        <path d="M1.11906468,3.79553696 C0.127417002,3.30900981 -0.282064099,2.11071236 0.204463043,1.11906468 C0.690990186,0.127417002 1.88928764,-0.282064099 2.88093532,0.204463043 L3.7787038,0.644930703 C4.77035148,1.13145785 5.17983258,2.3297553 4.69330544,3.32140298 C4.20677829,4.31305066 3.00848084,4.72253176 2.01683316,4.23600462 L1.11906468,3.79553696 Z M14.5855919,10.4025519 C13.5939442,9.91602471 13.1844631,8.71772726 13.6709902,7.72607958 C14.1575174,6.7344319 15.3558148,6.3249508 16.3474625,6.81147794 L17.245231,7.2519456 C18.2368787,7.73847274 18.6463598,8.9367702 18.1598326,9.92841787 C17.6733055,10.9200656 16.475008,11.3295467 15.4833603,10.8430195 L14.5855919,10.4025519 Z M28.052119,17.0095667 C27.0604714,16.5230396 26.6509903,15.3247422 27.1375174,14.3330945 C27.6240445,13.3414468 28.822342,12.9319657 29.8139897,13.4184928 L30.7117581,13.8589605 C31.7034058,14.3454876 32.1128869,15.5437851 31.6263598,16.5354328 C31.1398326,17.5270804 29.9415352,17.9365615 28.9498875,17.4500344 L28.052119,17.0095667 Z M41.5186462,23.6165816 C40.5269985,23.1300545 40.1175174,21.931757 40.6040446,20.9401094 C41.0905717,19.9484617 42.2888692,19.5389806 43.2805168,20.0255077 L44.1782853,20.4659754 C45.169933,20.9525025 45.5794141,22.1508 45.092887,23.1424477 C44.6063598,24.1340953 43.4080624,24.5435764 42.4164147,24.0570493 L41.5186462,23.6165816 Z M54.9851734,30.2235965 C53.9935257,29.7370694 53.5840446,28.5387719 54.0705717,27.5471243 C54.5570989,26.5554766 55.7553963,26.1459955 56.747044,26.6325226 L57.6448125,27.0729903 C58.6364602,27.5595174 59.0459413,28.7578149 58.5594141,29.7494626 C58.072887,30.7411102 56.8745895,31.1505913 55.8829419,30.6640642 L54.9851734,30.2235965 Z M68.4517006,36.8306114 C67.4600529,36.3440843 67.0505718,35.1457868 67.5370989,34.1541392 C68.0236261,33.1624915 69.2219235,32.7530104 70.2135712,33.2395375 L71.1113397,33.6800052 C72.1029874,34.1665323 72.5124685,35.3648298 72.0259413,36.3564775 C71.5394142,37.3481251 70.3411167,37.7576062 69.349469,37.2710791 L68.4517006,36.8306114 Z M81.9182277,43.4376263 C80.9265801,42.9510992 80.517099,41.7528017 81.0036261,40.7611541 C81.4901532,39.7695064 82.6884507,39.3600253 83.6800984,39.8465524 L84.5778669,40.2870201 C85.5695145,40.7735472 85.9789956,41.9718447 85.4924685,42.9634924 C85.0059413,43.95514 83.8076439,44.3646211 82.8159962,43.878094 L81.9182277,43.4376263 Z M95.3847549,50.0446412 C94.3931072,49.5581141 93.9836261,48.3598166 94.4701533,47.3681689 C94.9566804,46.3765213 96.1549779,45.9670402 97.1466255,46.4535673 L98.044394,46.894035 C99.0360417,47.3805621 99.4455228,48.5788596 98.9589957,49.5705072 C98.4724685,50.5621549 97.2741711,50.971636 96.2825234,50.4851089 L95.3847549,50.0446412 Z M108.851282,56.6516561 C107.859634,56.165129 107.450153,54.9668315 107.93668,53.9751838 C108.423208,52.9835362 109.621505,52.5740551 110.613153,53.0605822 L111.510921,53.5010499 C112.502569,53.987577 112.91205,55.1858745 112.425523,56.1775221 C111.938996,57.1691698 110.740698,57.5786509 109.749051,57.0921238 L108.851282,56.6516561 Z M122.317809,63.258671 C121.326162,62.7721439 120.91668,61.5738464 121.403208,60.5821987 C121.889735,59.5905511 123.088032,59.18107 124.07968,59.6675971 L124.977448,60.1080648 C125.969096,60.5945919 126.378577,61.7928894 125.89205,62.784537 C125.405523,63.7761847 124.207225,64.1856658 123.215578,63.6991387 L122.317809,63.258671 Z M135.784336,69.8656859 C134.792689,69.3791588 134.383208,68.1808613 134.869735,67.1892136 C135.356262,66.197566 136.554559,65.7880849 137.546207,66.274612 L138.443976,66.7150797 C139.435623,67.2016068 139.845104,68.3999043 139.358577,69.3915519 C138.87205,70.3831996 137.673753,70.7926807 136.682105,70.3061536 L135.784336,69.8656859 Z M149.250864,76.4727008 C148.259216,75.9861737 147.849735,74.7878762 148.336262,73.7962285 C148.822789,72.8045809 150.021087,72.3950998 151.012734,72.8816269 L151.910503,73.3220946 C152.90215,73.8086217 153.311632,75.0069192 152.825104,75.9985668 C152.338577,76.9902145 151.14028,77.3996956 150.148632,76.9131685 L149.250864,76.4727008 Z M162.717391,83.0797157 C161.725743,82.5931886 161.316262,81.3948911 161.802789,80.4032434 C162.289316,79.4115957 163.487614,79.0021146 164.479261,79.4886418 L165.37703,79.9291094 C166.368678,80.4156366 166.778159,81.613934 166.291632,82.6055817 C165.805104,83.5972294 164.606807,84.0067105 163.615159,83.5201834 L162.717391,83.0797157 Z M176.183918,89.6867306 C175.19227,89.2002035 174.782789,88.001906 175.269316,87.0102583 C175.755843,86.0186106 176.954141,85.6091295 177.945789,86.0956567 L178.843557,86.5361243 C179.835205,87.0226515 180.244686,88.2209489 179.758159,89.2125966 C179.271632,90.2042443 178.073334,90.6137254 177.081686,90.1271983 L176.183918,89.6867306 Z M189.650445,96.2937455 C188.658797,95.8072184 188.249316,94.6089209 188.735844,93.6172732 C189.222371,92.6256255 190.420668,92.2161444 191.412316,92.7026716 L192.310084,93.1431392 C193.301732,93.6296664 193.711213,94.8279638 193.224686,95.8196115 C192.738159,96.8112592 191.539861,97.2207403 190.548214,96.7342132 L189.650445,96.2937455 Z M203.116972,102.90076 C202.125325,102.414233 201.715844,101.215936 202.202371,100.224288 C202.688898,99.2326404 203.887195,98.8231593 204.878843,99.3096865 L205.776611,99.7501541 C206.768259,100.236681 207.17774,101.434979 206.691213,102.426626 C206.204686,103.418274 205.006388,103.827755 204.014741,103.341228 L203.116972,102.90076 Z M216.583499,109.507775 C215.591852,109.021248 215.182371,107.822951 215.668898,106.831303 C216.155425,105.839655 217.353722,105.430174 218.34537,105.916701 L219.243139,106.357169 C220.234786,106.843696 220.644267,108.041994 220.15774,109.033641 C219.671213,110.025289 218.472916,110.43477 217.481268,109.948243 L216.583499,109.507775 Z M230.050027,116.11479 C229.058379,115.628263 228.648898,114.429966 229.135425,113.438318 C229.621952,112.44667 230.82025,112.037189 231.811897,112.523716 L232.709666,112.964184 C233.701313,113.450711 234.110795,114.649009 233.624267,115.640656 C233.13774,116.632304 231.939443,117.041785 230.947795,116.555258 L230.050027,116.11479 Z M243.516554,122.721805 C242.524906,122.235278 242.115425,121.03698 242.601952,120.045333 C243.088479,119.053685 244.286777,118.644204 245.278424,119.130731 L246.176193,119.571199 C247.167841,120.057726 247.577322,121.256023 247.090795,122.247671 C246.604267,123.239319 245.40597,123.6488 244.414322,123.162273 L243.516554,122.721805 Z M256.983081,129.32882 C255.991433,128.842293 255.581952,127.643995 256.068479,126.652348 C256.555007,125.6607 257.753304,125.251219 258.744952,125.737746 L259.64272,126.178214 C260.634368,126.664741 261.043849,127.863038 260.557322,128.854686 C260.070795,129.846334 258.872497,130.255815 257.880849,129.769288 L256.983081,129.32882 Z M270.449608,135.935835 C269.457961,135.449308 269.048479,134.25101 269.535007,133.259363 C270.021534,132.267715 271.219831,131.858234 272.211479,132.344761 L273.109247,132.785229 C274.100895,133.271756 274.510376,134.470053 274.023849,135.461701 C273.537322,136.453349 272.339024,136.86283 271.347377,136.376303 L270.449608,135.935835 Z M283.916135,142.54285 C282.924488,142.056323 282.515007,140.858025 283.001534,139.866377 C283.488061,138.87473 284.686358,138.465249 285.678006,138.951776 L286.575774,139.392244 C287.567422,139.878771 287.976903,141.077068 287.490376,142.068716 C287.003849,143.060363 285.805552,143.469845 284.813904,142.983317 L283.916135,142.54285 Z M297.382663,149.149865 C296.391015,148.663338 295.981534,147.46504 296.468061,146.473392 C296.954588,145.481745 298.152886,145.072264 299.144533,145.558791 L300.042302,145.999258 C301.033949,146.485786 301.44343,147.684083 300.956903,148.675731 C300.470376,149.667378 299.272079,150.076859 298.280431,149.590332 L297.382663,149.149865 Z M310.84919,155.75688 C309.857542,155.270352 309.448061,154.072055 309.934588,153.080407 C310.421115,152.08876 311.619413,151.679278 312.61106,152.165806 L313.508829,152.606273 C314.500477,153.0928 314.909958,154.291098 314.42343,155.282746 C313.936903,156.274393 312.738606,156.683874 311.746958,156.197347 L310.84919,155.75688 Z" id="Line-30" fill="#47AFE8" fill-rule="nonzero"></path>
    </g>
</svg>