<?xml version="1.0" encoding="UTF-8"?>
<svg width="221px" height="268px" viewBox="0 0 221 268" version="1.1" xmlns="http://www.w3.org/2000/svg" xmlns:xlink="http://www.w3.org/1999/xlink">
    <!-- Generator: Sketch 50 (54983) - http://www.bohemiancoding.com/sketch -->
    <title>User</title>
    <desc>Created with Sketch.</desc>
    <defs></defs>
    <g id="Page-1" stroke="none" stroke-width="1" fill="none" fill-rule="evenodd">
        <path d="M196.449464,229.374738 C175.461099,242.531976 127.079881,244.624403 110.255446,244.387397 L110.079981,244.380625 L109.911264,244.380625 C93.0868289,244.617631 44.7596006,242.261111 23.5215351,228.995528 C26.5314421,184.7092 63.730113,151.31162 110.046237,151.31162 C156.402854,151.31162 193.601525,184.736286 196.577689,229.056472 C196.591186,229.198676 196.516951,229.334108 196.449464,229.374738 M110.046237,23.5990601 C138.653851,23.5990601 161.916518,46.9475706 161.916518,75.6456528 C161.916518,104.343735 138.653851,127.692245 110.046237,127.692245 C81.4453726,127.692245 58.1827059,104.343735 58.1827059,75.6456528 C58.1827059,46.9475706 81.4453726,23.5990601 110.046237,23.5990601 M154.654948,136.583369 C173.308273,122.796372 185.435634,100.61935 185.435634,75.6456528 C185.435634,33.9325366 151.618047,0 110.046237,0 C68.4811769,0 34.6635898,33.9325366 34.6635898,75.6456528 C34.6635898,100.61935 46.7909504,122.803143 65.4510239,136.583369 C28.7989953,151.961695 2.87735254,185.941633 0.0564083351,227.383885 C-0.550971995,236.322409 3.78167436,244.759835 11.3604311,249.418703 C42.0466352,268.264093 105.443644,268.060944 110.012494,267.986457 C110.424163,267.993228 111.30149,268 112.583738,268 C125.676158,268 180.941019,266.930086 208.914258,249.391616 C216.371539,244.712434 220.636698,236.315638 220.049564,227.478687 L220.049564,227.471916 C217.262363,185.982262 191.327223,151.961695 154.654948,136.583369" id="User" fill="#636569"></path>
    </g>
</svg>