<?xml version="1.0" encoding="UTF-8" standalone="no"?>
<svg width="119px" height="75px" viewBox="0 0 119 75" version="1.1" xmlns="http://www.w3.org/2000/svg" xmlns:xlink="http://www.w3.org/1999/xlink">
    <!-- Generator: Sketch 50.2 (55047) - http://www.bohemiancoding.com/sketch -->
    <title>Remote_Worker Copy 2</title>
    <desc>Created with Sketch.</desc>
    <defs></defs>
    <g id="Page-1" stroke="none" stroke-width="1" fill="none" fill-rule="evenodd">
        <g id="Remote_Worker-Copy-2">
            <path d="M54.8549916,62.8265514 C54.8608796,62.7457082 54.8726556,62.6668369 54.8785436,62.5859937 L3.49982901,62.5859937 C1.68043607,62.5859937 -0.384290332,63.3392151 0.20647264,65.0684695 C1.19958249,67.9748787 8.26322347,69.2033 10.0826164,69.2033 L56.7862566,69.2033 C55.4163145,67.4148921 54.6960155,65.1690305 54.8549916,62.8265514" id="Fill-11" fill="#646569"></path>
            <path d="M57.7866283,54.3098258 L21.7069083,54.3098258 C15.8699346,54.3098258 11.1340175,49.5558552 11.1340175,43.6878267 L11.1340175,17.1318431 C11.1340175,11.2677583 15.8699346,6.50984406 21.7069083,6.50984406 L64.0004342,6.50984406 C66.0003925,6.50984406 67.8472628,7.0994074 69.440949,8.06755322 C70.5164909,6.41914201 71.7981129,4.92452992 73.2367483,3.59554767 C70.9482778,2.0871331 68.2162443,1.19785863 65.2683175,1.19785863 L20.2761236,1.19785863 C12.4568555,1.19785863 5.84855342,7.89403625 5.84855342,15.7476509 L5.84855342,45.235677 C5.84855342,52.9256336 12.4568555,59.6218112 20.3310782,59.6218112 L56.4147236,59.6218112 C56.7228624,57.799883 57.1821266,56.0233059 57.7866283,54.3098258" id="Fill-13" fill="#646569"></path>
            <path d="M111.903657,63.567942 C106.103974,67.2117984 92.7323189,67.7895311 88.0827592,67.7224904 L88.0376178,67.7205186 L87.9885511,67.7205186 C83.340954,67.7875593 69.9869631,67.1368706 64.1185868,63.4614657 C64.9507579,51.2088015 75.2272858,41.9709946 88.0297671,41.9709946 C100.836174,41.9709946 111.11859,51.2186604 111.940947,63.4811836 C111.94291,63.5206192 111.923283,63.5561113 111.903657,63.567942 M88.0297671,6.63662975 C95.9295045,6.63662975 102.361167,13.0961933 102.361167,21.0385383 C102.361167,28.9749679 95.9295045,35.4345315 88.0297671,35.4345315 C80.1241417,35.4345315 73.696405,28.9749679 73.696405,21.0385383 C73.696405,13.0961933 80.1241417,6.63662975 88.0297671,6.63662975 M100.351395,37.8953176 C105.509285,34.0818878 108.857597,27.9476686 108.857597,21.0385383 C108.857597,9.4957162 99.5152984,0.106081966 88.0297671,0.106081966 C76.5403105,0.106081966 67.1960497,9.4957162 67.1960497,21.0385383 C67.1960497,27.9476686 70.5482861,34.0818878 75.7061768,37.8953176 C65.5768488,42.1523987 58.4131118,51.5518919 57.6339327,63.0197862 C57.467106,65.492403 58.6643333,67.8250232 60.756537,69.1145697 C69.2372241,74.327966 86.7559958,74.2707843 88.0199538,74.2490946 C88.1318258,74.2510664 88.3751966,74.25501 88.7284768,74.25501 C92.347636,74.25501 107.615228,73.9592424 115.346176,69.1086544 C117.40894,67.8112207 118.58654,65.4904312 118.423639,63.0414758 C117.654273,51.5637226 110.486611,42.1543705 100.351395,37.8953176" id="Fill-15" fill="#013A5C"></path>
        </g>
    </g>
</svg>