<?xml version="1.0" encoding="UTF-8" standalone="no"?>
<svg width="106px" height="106px" viewBox="0 0 106 106" version="1.1" xmlns="http://www.w3.org/2000/svg" xmlns:xlink="http://www.w3.org/1999/xlink">
    <!-- Generator: Sketch 50.2 (55047) - http://www.bohemiancoding.com/sketch -->
    <title>Scan Copy 5</title>
    <desc>Created with Sketch.</desc>
    <defs></defs>
    <g id="Page-1" stroke="none" stroke-width="1" fill="none" fill-rule="evenodd">
        <path d="M66.2523686,11.3300511 C81.3839842,11.2140286 93.7672202,23.3680207 93.8785011,38.4664037 C94.0337768,53.5544736 81.7954648,65.870897 66.6405578,65.9869194 C51.4960025,66.1777118 39.1257061,53.9876239 39.0092494,38.8892409 C38.877265,23.7857014 51.0767581,11.4460735 66.2523686,11.3300511 M2.77307999,103.420906 C6.37288799,106.909313 12.2630124,106.855169 15.7825946,103.281679 L46.581527,71.7493658 C52.4794152,75.2300381 59.3400126,77.2642977 66.7156077,77.2153105 C88.1410645,77.1405405 105.366314,59.6572524 105.211038,38.3220202 C105.042823,17.0099926 87.545841,-0.15874584 66.1203842,0.00110725901 C44.7001033,0.163538633 27.4619141,17.5436957 27.6223657,38.8892409 C27.6741243,46.2063876 29.8272804,53.043975 33.4400281,58.8631434 L2.64109566,90.4263956 C-0.927657202,94.0462948 -0.875898639,99.8731981 2.77307999,103.420906" id="Scan-Copy-5" fill="#FFFFFF" transform="translate(52.606040, 53.000000) scale(-1, 1) translate(-52.606040, -53.000000) "></path>
    </g>
</svg>