<?xml version="1.0" encoding="UTF-8" standalone="no"?>
<!DOCTYPE svg PUBLIC "-//W3C//DTD SVG 1.1//EN" "http://www.w3.org/Graphics/SVG/1.1/DTD/svg11.dtd">
<svg width="100%" height="100%" viewBox="0 0 83 10" version="1.1" xmlns="http://www.w3.org/2000/svg" xmlns:xlink="http://www.w3.org/1999/xlink" xml:space="preserve" xmlns:serif="http://www.serif.com/" style="fill-rule:evenodd;clip-rule:evenodd;stroke-linejoin:round;stroke-miterlimit:1.41421;">
    <g transform="matrix(1,0,0,1,0,-455)">
        <g transform="matrix(1,0,0,1,0,464)">
            <g id="Sender-s-server" serif:id="Sender’s-server">
                <path d="M2.022,-0.174C1.474,-0.354 1.036,-0.596 0.708,-0.9C0.588,-1.012 0.528,-1.152 0.528,-1.32C0.528,-1.432 0.56,-1.53 0.624,-1.614C0.688,-1.698 0.764,-1.74 0.852,-1.74C0.956,-1.74 1.068,-1.696 1.188,-1.608C1.932,-1.032 2.78,-0.744 3.732,-0.744C4.42,-0.744 4.948,-0.876 5.316,-1.14C5.684,-1.404 5.868,-1.78 5.868,-2.268C5.868,-2.548 5.78,-2.774 5.604,-2.946C5.428,-3.118 5.196,-3.256 4.908,-3.36C4.62,-3.464 4.232,-3.572 3.744,-3.684C3.088,-3.836 2.55,-3.996 2.13,-4.164C1.71,-4.332 1.37,-4.572 1.11,-4.884C0.85,-5.196 0.72,-5.604 0.72,-6.108C0.72,-6.588 0.85,-7.014 1.11,-7.386C1.37,-7.758 1.734,-8.046 2.202,-8.25C2.67,-8.454 3.204,-8.556 3.804,-8.556C4.364,-8.556 4.886,-8.47 5.37,-8.298C5.854,-8.126 6.26,-7.88 6.588,-7.56C6.716,-7.432 6.78,-7.292 6.78,-7.14C6.78,-7.028 6.748,-6.93 6.684,-6.846C6.62,-6.762 6.544,-6.72 6.456,-6.72C6.368,-6.72 6.252,-6.764 6.108,-6.852C5.716,-7.172 5.352,-7.396 5.016,-7.524C4.68,-7.652 4.276,-7.716 3.804,-7.716C3.14,-7.716 2.624,-7.578 2.256,-7.302C1.888,-7.026 1.704,-6.64 1.704,-6.144C1.704,-5.72 1.866,-5.402 2.19,-5.19C2.514,-4.978 3.012,-4.792 3.684,-4.632C4.412,-4.456 4.984,-4.294 5.4,-4.146C5.816,-3.998 6.162,-3.776 6.438,-3.48C6.714,-3.184 6.852,-2.788 6.852,-2.292C6.852,-1.82 6.722,-1.404 6.462,-1.044C6.202,-0.684 5.836,-0.404 5.364,-0.204C4.892,-0.004 4.352,0.096 3.744,0.096C3.144,0.096 2.57,0.006 2.022,-0.174Z" style="fill-rule:nonzero;"/>
                <path d="M13.047,-1.248C13.111,-1.176 13.143,-1.084 13.143,-0.972C13.143,-0.772 13.003,-0.588 12.723,-0.42C12.435,-0.252 12.131,-0.126 11.811,-0.042C11.491,0.042 11.179,0.084 10.875,0.084C9.971,0.084 9.257,-0.184 8.733,-0.72C8.209,-1.256 7.947,-1.996 7.947,-2.94C7.947,-3.54 8.063,-4.07 8.295,-4.53C8.527,-4.99 8.853,-5.348 9.273,-5.604C9.693,-5.86 10.171,-5.988 10.707,-5.988C11.467,-5.988 12.071,-5.74 12.519,-5.244C12.967,-4.748 13.191,-4.076 13.191,-3.228C13.191,-3.068 13.159,-2.952 13.095,-2.88C13.031,-2.808 12.927,-2.772 12.783,-2.772L8.919,-2.772C8.991,-1.396 9.643,-0.708 10.875,-0.708C11.187,-0.708 11.455,-0.75 11.679,-0.834C11.903,-0.918 12.143,-1.032 12.399,-1.176C12.607,-1.296 12.747,-1.356 12.819,-1.356C12.907,-1.356 12.983,-1.32 13.047,-1.248ZM9.489,-4.752C9.181,-4.432 8.999,-3.98 8.943,-3.396L12.339,-3.396C12.323,-3.988 12.175,-4.442 11.895,-4.758C11.615,-5.074 11.223,-5.232 10.719,-5.232C10.207,-5.232 9.797,-5.072 9.489,-4.752Z" style="fill-rule:nonzero;"/>
                <path d="M19.65,-3.672L19.65,-0.42C19.65,-0.268 19.608,-0.15 19.524,-0.066C19.44,0.018 19.322,0.06 19.17,0.06C19.018,0.06 18.898,0.018 18.81,-0.066C18.722,-0.15 18.678,-0.268 18.678,-0.42L18.678,-3.612C18.678,-4.156 18.572,-4.552 18.36,-4.8C18.148,-5.048 17.81,-5.172 17.346,-5.172C16.81,-5.172 16.382,-5.008 16.062,-4.68C15.742,-4.352 15.582,-3.908 15.582,-3.348L15.582,-0.42C15.582,-0.268 15.54,-0.15 15.456,-0.066C15.372,0.018 15.254,0.06 15.102,0.06C14.95,0.06 14.83,0.018 14.742,-0.066C14.654,-0.15 14.61,-0.268 14.61,-0.42L14.61,-5.484C14.61,-5.628 14.654,-5.744 14.742,-5.832C14.83,-5.92 14.95,-5.964 15.102,-5.964C15.246,-5.964 15.36,-5.92 15.444,-5.832C15.528,-5.744 15.57,-5.632 15.57,-5.496L15.57,-4.884C15.762,-5.244 16.03,-5.518 16.374,-5.706C16.718,-5.894 17.11,-5.988 17.55,-5.988C18.95,-5.988 19.65,-5.216 19.65,-3.672Z" style="fill-rule:nonzero;"/>
                <path d="M26.469,-8.388C26.557,-8.3 26.601,-8.188 26.601,-8.052L26.601,-0.42C26.601,-0.276 26.557,-0.16 26.469,-0.072C26.381,0.016 26.261,0.06 26.109,0.06C25.957,0.06 25.839,0.016 25.755,-0.072C25.671,-0.16 25.629,-0.276 25.629,-0.42L25.629,-1.068C25.453,-0.7 25.195,-0.416 24.855,-0.216C24.515,-0.016 24.117,0.084 23.661,0.084C23.149,0.084 22.697,-0.044 22.305,-0.3C21.913,-0.556 21.609,-0.914 21.393,-1.374C21.177,-1.834 21.069,-2.368 21.069,-2.976C21.069,-3.576 21.177,-4.104 21.393,-4.56C21.609,-5.016 21.913,-5.368 22.305,-5.616C22.697,-5.864 23.149,-5.988 23.661,-5.988C24.117,-5.988 24.515,-5.888 24.855,-5.688C25.195,-5.488 25.453,-5.204 25.629,-4.836L25.629,-8.052C25.629,-8.196 25.671,-8.31 25.755,-8.394C25.839,-8.478 25.957,-8.52 26.109,-8.52C26.261,-8.52 26.381,-8.476 26.469,-8.388ZM25.167,-1.302C25.475,-1.69 25.629,-2.24 25.629,-2.952C25.629,-3.664 25.475,-4.212 25.167,-4.596C24.859,-4.98 24.421,-5.172 23.853,-5.172C23.285,-5.172 22.843,-4.98 22.527,-4.596C22.211,-4.212 22.053,-3.672 22.053,-2.976C22.053,-2.264 22.211,-1.71 22.527,-1.314C22.843,-0.918 23.285,-0.72 23.853,-0.72C24.421,-0.72 24.859,-0.914 25.167,-1.302Z" style="fill-rule:nonzero;"/>
                <path d="M33.144,-1.248C33.208,-1.176 33.24,-1.084 33.24,-0.972C33.24,-0.772 33.1,-0.588 32.82,-0.42C32.532,-0.252 32.228,-0.126 31.908,-0.042C31.588,0.042 31.276,0.084 30.972,0.084C30.068,0.084 29.354,-0.184 28.83,-0.72C28.306,-1.256 28.044,-1.996 28.044,-2.94C28.044,-3.54 28.16,-4.07 28.392,-4.53C28.624,-4.99 28.95,-5.348 29.37,-5.604C29.79,-5.86 30.268,-5.988 30.804,-5.988C31.564,-5.988 32.168,-5.74 32.616,-5.244C33.064,-4.748 33.288,-4.076 33.288,-3.228C33.288,-3.068 33.256,-2.952 33.192,-2.88C33.128,-2.808 33.024,-2.772 32.88,-2.772L29.016,-2.772C29.088,-1.396 29.74,-0.708 30.972,-0.708C31.284,-0.708 31.552,-0.75 31.776,-0.834C32,-0.918 32.24,-1.032 32.496,-1.176C32.704,-1.296 32.844,-1.356 32.916,-1.356C33.004,-1.356 33.08,-1.32 33.144,-1.248ZM29.586,-4.752C29.278,-4.432 29.096,-3.98 29.04,-3.396L32.436,-3.396C32.42,-3.988 32.272,-4.442 31.992,-4.758C31.712,-5.074 31.32,-5.232 30.816,-5.232C30.304,-5.232 29.894,-5.072 29.586,-4.752Z" style="fill-rule:nonzero;"/>
                <path d="M38.103,-5.556C38.103,-5.428 38.067,-5.326 37.995,-5.25C37.923,-5.174 37.799,-5.128 37.623,-5.112L37.263,-5.076C36.727,-5.028 36.329,-4.838 36.069,-4.506C35.809,-4.174 35.679,-3.784 35.679,-3.336L35.679,-0.42C35.679,-0.26 35.635,-0.14 35.547,-0.06C35.459,0.02 35.343,0.06 35.199,0.06C35.055,0.06 34.937,0.018 34.845,-0.066C34.753,-0.15 34.707,-0.268 34.707,-0.42L34.707,-5.484C34.707,-5.636 34.755,-5.754 34.851,-5.838C34.947,-5.922 35.063,-5.964 35.199,-5.964C35.327,-5.964 35.435,-5.922 35.523,-5.838C35.611,-5.754 35.655,-5.64 35.655,-5.496L35.655,-4.824C35.823,-5.176 36.061,-5.444 36.369,-5.628C36.677,-5.812 37.031,-5.92 37.431,-5.952L37.599,-5.964C37.935,-5.988 38.103,-5.852 38.103,-5.556Z" style="fill-rule:nonzero;"/>
                <path d="M40.224,-8.286C40.348,-8.13 40.41,-7.896 40.41,-7.584C40.41,-6.952 40.206,-6.42 39.798,-5.988C39.718,-5.908 39.63,-5.868 39.534,-5.868C39.446,-5.868 39.37,-5.898 39.306,-5.958C39.242,-6.018 39.21,-6.088 39.21,-6.168C39.21,-6.256 39.242,-6.332 39.306,-6.396C39.514,-6.604 39.646,-6.868 39.702,-7.188C39.526,-7.204 39.38,-7.272 39.264,-7.392C39.148,-7.512 39.09,-7.664 39.09,-7.848C39.09,-8.048 39.152,-8.21 39.276,-8.334C39.4,-8.458 39.554,-8.52 39.738,-8.52C39.938,-8.52 40.1,-8.442 40.224,-8.286Z" style="fill-rule:nonzero;"/>
                <path d="M42.591,-0.048C42.259,-0.136 41.965,-0.26 41.709,-0.42C41.565,-0.516 41.463,-0.606 41.403,-0.69C41.343,-0.774 41.313,-0.876 41.313,-0.996C41.313,-1.1 41.343,-1.186 41.403,-1.254C41.463,-1.322 41.541,-1.356 41.637,-1.356C41.733,-1.356 41.873,-1.296 42.057,-1.176C42.297,-1.032 42.535,-0.918 42.771,-0.834C43.007,-0.75 43.301,-0.708 43.653,-0.708C44.085,-0.708 44.421,-0.784 44.661,-0.936C44.901,-1.088 45.021,-1.308 45.021,-1.596C45.021,-1.772 44.977,-1.914 44.889,-2.022C44.801,-2.13 44.649,-2.226 44.433,-2.31C44.217,-2.394 43.901,-2.48 43.485,-2.568C42.781,-2.72 42.277,-2.924 41.973,-3.18C41.669,-3.436 41.517,-3.784 41.517,-4.224C41.517,-4.568 41.613,-4.872 41.805,-5.136C41.997,-5.4 42.263,-5.608 42.603,-5.76C42.943,-5.912 43.329,-5.988 43.761,-5.988C44.073,-5.988 44.375,-5.946 44.667,-5.862C44.959,-5.778 45.217,-5.66 45.441,-5.508C45.713,-5.316 45.849,-5.116 45.849,-4.908C45.849,-4.804 45.817,-4.716 45.753,-4.644C45.689,-4.572 45.613,-4.536 45.525,-4.536C45.429,-4.536 45.285,-4.604 45.093,-4.74C44.869,-4.884 44.657,-4.996 44.457,-5.076C44.257,-5.156 44.009,-5.196 43.713,-5.196C43.337,-5.196 43.035,-5.112 42.807,-4.944C42.579,-4.776 42.465,-4.552 42.465,-4.272C42.465,-4.096 42.507,-3.954 42.591,-3.846C42.675,-3.738 42.815,-3.642 43.011,-3.558C43.207,-3.474 43.489,-3.392 43.857,-3.312C44.401,-3.192 44.823,-3.06 45.123,-2.916C45.423,-2.772 45.637,-2.596 45.765,-2.388C45.893,-2.18 45.957,-1.916 45.957,-1.596C45.957,-1.092 45.745,-0.686 45.321,-0.378C44.897,-0.07 44.337,0.084 43.641,0.084C43.273,0.084 42.923,0.04 42.591,-0.048Z" style="fill-rule:nonzero;"/>
                <path d="M51.429,-0.048C51.097,-0.136 50.803,-0.26 50.547,-0.42C50.403,-0.516 50.301,-0.606 50.241,-0.69C50.181,-0.774 50.151,-0.876 50.151,-0.996C50.151,-1.1 50.181,-1.186 50.241,-1.254C50.301,-1.322 50.379,-1.356 50.475,-1.356C50.571,-1.356 50.711,-1.296 50.895,-1.176C51.135,-1.032 51.373,-0.918 51.609,-0.834C51.845,-0.75 52.139,-0.708 52.491,-0.708C52.923,-0.708 53.259,-0.784 53.499,-0.936C53.739,-1.088 53.859,-1.308 53.859,-1.596C53.859,-1.772 53.815,-1.914 53.727,-2.022C53.639,-2.13 53.487,-2.226 53.271,-2.31C53.055,-2.394 52.739,-2.48 52.323,-2.568C51.619,-2.72 51.115,-2.924 50.811,-3.18C50.507,-3.436 50.355,-3.784 50.355,-4.224C50.355,-4.568 50.451,-4.872 50.643,-5.136C50.835,-5.4 51.101,-5.608 51.441,-5.76C51.781,-5.912 52.167,-5.988 52.599,-5.988C52.911,-5.988 53.213,-5.946 53.505,-5.862C53.797,-5.778 54.055,-5.66 54.279,-5.508C54.551,-5.316 54.687,-5.116 54.687,-4.908C54.687,-4.804 54.655,-4.716 54.591,-4.644C54.527,-4.572 54.451,-4.536 54.363,-4.536C54.267,-4.536 54.123,-4.604 53.931,-4.74C53.707,-4.884 53.495,-4.996 53.295,-5.076C53.095,-5.156 52.847,-5.196 52.551,-5.196C52.175,-5.196 51.873,-5.112 51.645,-4.944C51.417,-4.776 51.303,-4.552 51.303,-4.272C51.303,-4.096 51.345,-3.954 51.429,-3.846C51.513,-3.738 51.653,-3.642 51.849,-3.558C52.045,-3.474 52.327,-3.392 52.695,-3.312C53.239,-3.192 53.661,-3.06 53.961,-2.916C54.261,-2.772 54.475,-2.596 54.603,-2.388C54.731,-2.18 54.795,-1.916 54.795,-1.596C54.795,-1.092 54.583,-0.686 54.159,-0.378C53.735,-0.07 53.175,0.084 52.479,0.084C52.111,0.084 51.761,0.04 51.429,-0.048Z" style="fill-rule:nonzero;"/>
                <path d="M61.013,-1.248C61.077,-1.176 61.109,-1.084 61.109,-0.972C61.109,-0.772 60.969,-0.588 60.689,-0.42C60.401,-0.252 60.097,-0.126 59.777,-0.042C59.457,0.042 59.145,0.084 58.841,0.084C57.937,0.084 57.223,-0.184 56.699,-0.72C56.175,-1.256 55.913,-1.996 55.913,-2.94C55.913,-3.54 56.029,-4.07 56.261,-4.53C56.493,-4.99 56.819,-5.348 57.239,-5.604C57.659,-5.86 58.137,-5.988 58.673,-5.988C59.433,-5.988 60.037,-5.74 60.485,-5.244C60.933,-4.748 61.157,-4.076 61.157,-3.228C61.157,-3.068 61.125,-2.952 61.061,-2.88C60.997,-2.808 60.893,-2.772 60.749,-2.772L56.885,-2.772C56.957,-1.396 57.609,-0.708 58.841,-0.708C59.153,-0.708 59.421,-0.75 59.645,-0.834C59.869,-0.918 60.109,-1.032 60.365,-1.176C60.573,-1.296 60.713,-1.356 60.785,-1.356C60.873,-1.356 60.949,-1.32 61.013,-1.248ZM57.455,-4.752C57.147,-4.432 56.965,-3.98 56.909,-3.396L60.305,-3.396C60.289,-3.988 60.141,-4.442 59.861,-4.758C59.581,-5.074 59.189,-5.232 58.685,-5.232C58.173,-5.232 57.763,-5.072 57.455,-4.752Z" style="fill-rule:nonzero;"/>
                <path d="M65.972,-5.556C65.972,-5.428 65.936,-5.326 65.864,-5.25C65.792,-5.174 65.668,-5.128 65.492,-5.112L65.132,-5.076C64.596,-5.028 64.198,-4.838 63.938,-4.506C63.678,-4.174 63.548,-3.784 63.548,-3.336L63.548,-0.42C63.548,-0.26 63.504,-0.14 63.416,-0.06C63.328,0.02 63.212,0.06 63.068,0.06C62.924,0.06 62.806,0.018 62.714,-0.066C62.622,-0.15 62.576,-0.268 62.576,-0.42L62.576,-5.484C62.576,-5.636 62.624,-5.754 62.72,-5.838C62.816,-5.922 62.932,-5.964 63.068,-5.964C63.196,-5.964 63.304,-5.922 63.392,-5.838C63.48,-5.754 63.524,-5.64 63.524,-5.496L63.524,-4.824C63.692,-5.176 63.93,-5.444 64.238,-5.628C64.546,-5.812 64.9,-5.92 65.3,-5.952L65.468,-5.964C65.804,-5.988 65.972,-5.852 65.972,-5.556Z" style="fill-rule:nonzero;"/>
                <path d="M71.795,-5.952C71.915,-5.952 72.023,-5.912 72.119,-5.832C72.215,-5.752 72.263,-5.652 72.263,-5.532C72.263,-5.46 72.247,-5.396 72.215,-5.34L69.875,-0.3C69.827,-0.196 69.755,-0.114 69.659,-0.054C69.563,0.006 69.459,0.036 69.347,0.036C69.243,0.036 69.143,0.006 69.047,-0.054C68.951,-0.114 68.875,-0.196 68.819,-0.3L66.491,-5.34C66.459,-5.396 66.443,-5.456 66.443,-5.52C66.443,-5.64 66.497,-5.744 66.605,-5.832C66.713,-5.92 66.831,-5.964 66.959,-5.964C67.039,-5.964 67.117,-5.94 67.193,-5.892C67.269,-5.844 67.327,-5.776 67.367,-5.688L69.371,-1.188L71.375,-5.664C71.463,-5.856 71.603,-5.952 71.795,-5.952Z" style="fill-rule:nonzero;"/>
                <path d="M78.002,-1.248C78.066,-1.176 78.098,-1.084 78.098,-0.972C78.098,-0.772 77.958,-0.588 77.678,-0.42C77.39,-0.252 77.086,-0.126 76.766,-0.042C76.446,0.042 76.134,0.084 75.83,0.084C74.926,0.084 74.212,-0.184 73.688,-0.72C73.164,-1.256 72.902,-1.996 72.902,-2.94C72.902,-3.54 73.018,-4.07 73.25,-4.53C73.482,-4.99 73.808,-5.348 74.228,-5.604C74.648,-5.86 75.126,-5.988 75.662,-5.988C76.422,-5.988 77.026,-5.74 77.474,-5.244C77.922,-4.748 78.146,-4.076 78.146,-3.228C78.146,-3.068 78.114,-2.952 78.05,-2.88C77.986,-2.808 77.882,-2.772 77.738,-2.772L73.874,-2.772C73.946,-1.396 74.598,-0.708 75.83,-0.708C76.142,-0.708 76.41,-0.75 76.634,-0.834C76.858,-0.918 77.098,-1.032 77.354,-1.176C77.562,-1.296 77.702,-1.356 77.774,-1.356C77.862,-1.356 77.938,-1.32 78.002,-1.248ZM74.444,-4.752C74.136,-4.432 73.954,-3.98 73.898,-3.396L77.294,-3.396C77.278,-3.988 77.13,-4.442 76.85,-4.758C76.57,-5.074 76.178,-5.232 75.674,-5.232C75.162,-5.232 74.752,-5.072 74.444,-4.752Z" style="fill-rule:nonzero;"/>
                <path d="M82.961,-5.556C82.961,-5.428 82.925,-5.326 82.853,-5.25C82.781,-5.174 82.657,-5.128 82.481,-5.112L82.121,-5.076C81.585,-5.028 81.187,-4.838 80.927,-4.506C80.667,-4.174 80.537,-3.784 80.537,-3.336L80.537,-0.42C80.537,-0.26 80.493,-0.14 80.405,-0.06C80.317,0.02 80.201,0.06 80.057,0.06C79.913,0.06 79.795,0.018 79.703,-0.066C79.611,-0.15 79.565,-0.268 79.565,-0.42L79.565,-5.484C79.565,-5.636 79.613,-5.754 79.709,-5.838C79.805,-5.922 79.921,-5.964 80.057,-5.964C80.185,-5.964 80.293,-5.922 80.381,-5.838C80.469,-5.754 80.513,-5.64 80.513,-5.496L80.513,-4.824C80.681,-5.176 80.919,-5.444 81.227,-5.628C81.535,-5.812 81.889,-5.92 82.289,-5.952L82.457,-5.964C82.793,-5.988 82.961,-5.852 82.961,-5.556Z" style="fill-rule:nonzero;"/>
            </g>
        </g>
    </g>
</svg>
