<?xml version="1.0" encoding="UTF-8" standalone="no"?>
<!DOCTYPE svg PUBLIC "-//W3C//DTD SVG 1.1//EN" "http://www.w3.org/Graphics/SVG/1.1/DTD/svg11.dtd">
<svg width="100%" height="100%" viewBox="0 0 49 24" version="1.1" xmlns="http://www.w3.org/2000/svg" xmlns:xlink="http://www.w3.org/1999/xlink" xml:space="preserve" xmlns:serif="http://www.serif.com/" style="fill-rule:evenodd;clip-rule:evenodd;stroke-linejoin:round;stroke-miterlimit:1.41421;">
    <g transform="matrix(1,0,0,1,-632,-196)">
        <g id="Threat-collection">
            <g transform="matrix(1,0,0,1,632,205)">
                <path d="M3.276,-0.048C3.212,-0.12 3.18,-0.212 3.18,-0.324L3.18,-7.812L0.408,-7.812C0.304,-7.812 0.222,-7.84 0.162,-7.896C0.102,-7.952 0.072,-8.032 0.072,-8.136C0.072,-8.24 0.102,-8.32 0.162,-8.376C0.222,-8.432 0.304,-8.46 0.408,-8.46L6.672,-8.46C6.768,-8.46 6.848,-8.43 6.912,-8.37C6.976,-8.31 7.008,-8.232 7.008,-8.136C7.008,-8.04 6.976,-7.962 6.912,-7.902C6.848,-7.842 6.768,-7.812 6.672,-7.812L3.912,-7.812L3.912,-0.324C3.912,-0.212 3.878,-0.12 3.81,-0.048C3.742,0.024 3.652,0.06 3.54,0.06C3.428,0.06 3.34,0.024 3.276,-0.048Z" style="fill-rule:nonzero;"/>
                <path d="M12.855,-3.708L12.855,-0.312C12.855,-0.2 12.823,-0.11 12.759,-0.042C12.695,0.026 12.607,0.06 12.495,0.06C12.383,0.06 12.293,0.026 12.225,-0.042C12.157,-0.11 12.123,-0.2 12.123,-0.312L12.123,-3.66C12.123,-4.236 12.007,-4.656 11.775,-4.92C11.543,-5.184 11.175,-5.316 10.671,-5.316C10.095,-5.316 9.633,-5.14 9.285,-4.788C8.937,-4.436 8.763,-3.964 8.763,-3.372L8.763,-0.312C8.763,-0.2 8.731,-0.11 8.667,-0.042C8.603,0.026 8.515,0.06 8.403,0.06C8.291,0.06 8.201,0.026 8.133,-0.042C8.065,-0.11 8.031,-0.2 8.031,-0.312L8.031,-8.148C8.031,-8.26 8.065,-8.35 8.133,-8.418C8.201,-8.486 8.291,-8.52 8.403,-8.52C8.515,-8.52 8.603,-8.486 8.667,-8.418C8.731,-8.35 8.763,-8.26 8.763,-8.148L8.763,-4.848C8.947,-5.208 9.213,-5.484 9.561,-5.676C9.909,-5.868 10.307,-5.964 10.755,-5.964C12.155,-5.964 12.855,-5.212 12.855,-3.708Z" style="fill-rule:nonzero;"/>
                <path d="M17.79,-5.88C17.854,-5.832 17.886,-5.752 17.886,-5.64C17.886,-5.44 17.766,-5.328 17.526,-5.304L17.166,-5.268C16.598,-5.212 16.176,-5.008 15.9,-4.656C15.624,-4.304 15.486,-3.892 15.486,-3.42L15.486,-0.312C15.486,-0.192 15.454,-0.1 15.39,-0.036C15.326,0.028 15.238,0.06 15.126,0.06C15.014,0.06 14.924,0.028 14.856,-0.036C14.788,-0.1 14.754,-0.192 14.754,-0.312L14.754,-5.568C14.754,-5.688 14.788,-5.78 14.856,-5.844C14.924,-5.908 15.014,-5.94 15.126,-5.94C15.23,-5.94 15.314,-5.908 15.378,-5.844C15.442,-5.78 15.474,-5.692 15.474,-5.58L15.474,-4.8C15.802,-5.488 16.41,-5.864 17.298,-5.928L17.466,-5.94C17.618,-5.948 17.726,-5.928 17.79,-5.88Z" style="fill-rule:nonzero;"/>
                <path d="M23.343,-1.158C23.395,-1.098 23.421,-1.028 23.421,-0.948C23.421,-0.772 23.285,-0.6 23.013,-0.432C22.437,-0.088 21.829,0.084 21.189,0.084C20.301,0.084 19.601,-0.184 19.089,-0.72C18.577,-1.256 18.321,-1.992 18.321,-2.928C18.321,-3.528 18.435,-4.058 18.663,-4.518C18.891,-4.978 19.211,-5.334 19.623,-5.586C20.035,-5.838 20.509,-5.964 21.045,-5.964C21.797,-5.964 22.391,-5.722 22.827,-5.238C23.263,-4.754 23.481,-4.088 23.481,-3.24C23.481,-3.096 23.449,-2.99 23.385,-2.922C23.321,-2.854 23.217,-2.82 23.073,-2.82L19.077,-2.82C19.101,-2.084 19.293,-1.524 19.653,-1.14C20.013,-0.756 20.521,-0.564 21.177,-0.564C21.521,-0.564 21.809,-0.61 22.041,-0.702C22.273,-0.794 22.521,-0.916 22.785,-1.068C22.961,-1.188 23.085,-1.248 23.157,-1.248C23.229,-1.248 23.291,-1.218 23.343,-1.158ZM19.701,-4.836C19.365,-4.484 19.165,-3.992 19.101,-3.36L22.809,-3.36C22.793,-4 22.633,-4.494 22.329,-4.842C22.025,-5.19 21.597,-5.364 21.045,-5.364C20.485,-5.364 20.037,-5.188 19.701,-4.836Z" style="fill-rule:nonzero;"/>
                <path d="M28.878,-5.412C29.226,-5.044 29.4,-4.488 29.4,-3.744L29.4,-0.324C29.4,-0.212 29.368,-0.122 29.304,-0.054C29.24,0.014 29.152,0.048 29.04,0.048C28.928,0.048 28.84,0.014 28.776,-0.054C28.712,-0.122 28.68,-0.212 28.68,-0.324L28.68,-1.044C28.512,-0.684 28.268,-0.406 27.948,-0.21C27.628,-0.014 27.26,0.084 26.844,0.084C26.468,0.084 26.124,0.008 25.812,-0.144C25.5,-0.296 25.254,-0.508 25.074,-0.78C24.894,-1.052 24.804,-1.352 24.804,-1.68C24.804,-2.112 24.916,-2.448 25.14,-2.688C25.364,-2.928 25.736,-3.1 26.256,-3.204C26.776,-3.308 27.5,-3.36 28.428,-3.36L28.68,-3.36L28.68,-3.804C28.68,-4.332 28.572,-4.718 28.356,-4.962C28.14,-5.206 27.8,-5.328 27.336,-5.328C26.744,-5.328 26.18,-5.172 25.644,-4.86C25.62,-4.844 25.558,-4.802 25.458,-4.734C25.358,-4.666 25.272,-4.632 25.2,-4.632C25.12,-4.632 25.054,-4.662 25.002,-4.722C24.95,-4.782 24.924,-4.856 24.924,-4.944C24.924,-5.12 25.064,-5.292 25.344,-5.46C25.624,-5.62 25.936,-5.744 26.28,-5.832C26.624,-5.92 26.964,-5.964 27.3,-5.964C28.004,-5.964 28.53,-5.78 28.878,-5.412ZM28.182,-1.08C28.514,-1.432 28.68,-1.88 28.68,-2.424L28.68,-2.82L28.452,-2.82C27.684,-2.82 27.096,-2.788 26.688,-2.724C26.28,-2.66 25.992,-2.55 25.824,-2.394C25.656,-2.238 25.572,-2.012 25.572,-1.716C25.572,-1.38 25.7,-1.102 25.956,-0.882C26.212,-0.662 26.528,-0.552 26.904,-0.552C27.424,-0.552 27.85,-0.728 28.182,-1.08Z" style="fill-rule:nonzero;"/>
                <path d="M34.167,-0.24C34.167,-0.144 34.131,-0.068 34.059,-0.012C33.987,0.044 33.871,0.068 33.711,0.06L33.375,0.036C32.767,-0.004 32.317,-0.19 32.025,-0.522C31.733,-0.854 31.587,-1.36 31.587,-2.04L31.587,-5.232L30.675,-5.232C30.579,-5.232 30.503,-5.258 30.447,-5.31C30.391,-5.362 30.363,-5.432 30.363,-5.52C30.363,-5.608 30.391,-5.68 30.447,-5.736C30.503,-5.792 30.579,-5.82 30.675,-5.82L31.587,-5.82L31.587,-7.308C31.587,-7.428 31.619,-7.52 31.683,-7.584C31.747,-7.648 31.835,-7.68 31.947,-7.68C32.059,-7.68 32.149,-7.648 32.217,-7.584C32.285,-7.52 32.319,-7.428 32.319,-7.308L32.319,-5.82L33.771,-5.82C33.875,-5.82 33.955,-5.792 34.011,-5.736C34.067,-5.68 34.095,-5.608 34.095,-5.52C34.095,-5.432 34.067,-5.362 34.011,-5.31C33.955,-5.258 33.875,-5.232 33.771,-5.232L32.319,-5.232L32.319,-2.004C32.319,-1.508 32.415,-1.154 32.607,-0.942C32.799,-0.73 33.099,-0.608 33.507,-0.576L33.831,-0.552C34.055,-0.528 34.167,-0.424 34.167,-0.24Z" style="fill-rule:nonzero;"/>
            </g>
            <g transform="matrix(1,0,0,1,632,219)">
                <path d="M1.872,-0.288C1.464,-0.536 1.148,-0.888 0.924,-1.344C0.7,-1.8 0.588,-2.324 0.588,-2.916C0.588,-3.516 0.702,-4.046 0.93,-4.506C1.158,-4.966 1.478,-5.324 1.89,-5.58C2.302,-5.836 2.776,-5.964 3.312,-5.964C3.616,-5.964 3.912,-5.924 4.2,-5.844C4.488,-5.764 4.744,-5.644 4.968,-5.484C5.112,-5.38 5.214,-5.286 5.274,-5.202C5.334,-5.118 5.364,-5.028 5.364,-4.932C5.364,-4.844 5.34,-4.772 5.292,-4.716C5.244,-4.66 5.184,-4.632 5.112,-4.632C5.032,-4.632 4.904,-4.7 4.728,-4.836C4.52,-4.988 4.312,-5.108 4.104,-5.196C3.896,-5.284 3.644,-5.328 3.348,-5.328C2.724,-5.328 2.236,-5.114 1.884,-4.686C1.532,-4.258 1.356,-3.668 1.356,-2.916C1.356,-2.172 1.53,-1.594 1.878,-1.182C2.226,-0.77 2.712,-0.564 3.336,-0.564C3.64,-0.564 3.894,-0.608 4.098,-0.696C4.302,-0.784 4.524,-0.904 4.764,-1.056C4.836,-1.104 4.906,-1.148 4.974,-1.188C5.042,-1.228 5.096,-1.248 5.136,-1.248C5.216,-1.248 5.28,-1.22 5.328,-1.164C5.376,-1.108 5.4,-1.04 5.4,-0.96C5.4,-0.864 5.372,-0.78 5.316,-0.708C5.26,-0.636 5.152,-0.544 4.992,-0.432C4.776,-0.272 4.514,-0.146 4.206,-0.054C3.898,0.038 3.592,0.084 3.288,0.084C2.752,0.084 2.28,-0.04 1.872,-0.288Z" style="fill-rule:nonzero;"/>
                <path d="M7.557,-0.288C7.153,-0.536 6.839,-0.888 6.615,-1.344C6.391,-1.8 6.279,-2.332 6.279,-2.94C6.279,-3.548 6.391,-4.08 6.615,-4.536C6.839,-4.992 7.153,-5.344 7.557,-5.592C7.961,-5.84 8.431,-5.964 8.967,-5.964C9.495,-5.964 9.963,-5.84 10.371,-5.592C10.779,-5.344 11.093,-4.992 11.313,-4.536C11.533,-4.08 11.643,-3.548 11.643,-2.94C11.643,-2.332 11.533,-1.8 11.313,-1.344C11.093,-0.888 10.779,-0.536 10.371,-0.288C9.963,-0.04 9.495,0.084 8.967,0.084C8.431,0.084 7.961,-0.04 7.557,-0.288ZM10.383,-1.176C10.719,-1.584 10.887,-2.172 10.887,-2.94C10.887,-3.692 10.717,-4.278 10.377,-4.698C10.037,-5.118 9.567,-5.328 8.967,-5.328C8.359,-5.328 7.887,-5.118 7.551,-4.698C7.215,-4.278 7.047,-3.692 7.047,-2.94C7.047,-2.172 7.211,-1.584 7.539,-1.176C7.867,-0.768 8.339,-0.564 8.955,-0.564C9.571,-0.564 10.047,-0.768 10.383,-1.176Z" style="fill-rule:nonzero;"/>
                <path d="M13.284,-0.036C13.216,-0.1 13.182,-0.192 13.182,-0.312L13.182,-8.148C13.182,-8.268 13.216,-8.36 13.284,-8.424C13.352,-8.488 13.442,-8.52 13.554,-8.52C13.658,-8.52 13.744,-8.488 13.812,-8.424C13.88,-8.36 13.914,-8.268 13.914,-8.148L13.914,-0.312C13.914,-0.192 13.88,-0.1 13.812,-0.036C13.744,0.028 13.658,0.06 13.554,0.06C13.442,0.06 13.352,0.028 13.284,-0.036Z" style="fill-rule:nonzero;"/>
                <path d="M15.939,-0.036C15.871,-0.1 15.837,-0.192 15.837,-0.312L15.837,-8.148C15.837,-8.268 15.871,-8.36 15.939,-8.424C16.007,-8.488 16.097,-8.52 16.209,-8.52C16.313,-8.52 16.399,-8.488 16.467,-8.424C16.535,-8.36 16.569,-8.268 16.569,-8.148L16.569,-0.312C16.569,-0.192 16.535,-0.1 16.467,-0.036C16.399,0.028 16.313,0.06 16.209,0.06C16.097,0.06 16.007,0.028 15.939,-0.036Z" style="fill-rule:nonzero;"/>
                <path d="M23.142,-1.158C23.194,-1.098 23.22,-1.028 23.22,-0.948C23.22,-0.772 23.084,-0.6 22.812,-0.432C22.236,-0.088 21.628,0.084 20.988,0.084C20.1,0.084 19.4,-0.184 18.888,-0.72C18.376,-1.256 18.12,-1.992 18.12,-2.928C18.12,-3.528 18.234,-4.058 18.462,-4.518C18.69,-4.978 19.01,-5.334 19.422,-5.586C19.834,-5.838 20.308,-5.964 20.844,-5.964C21.596,-5.964 22.19,-5.722 22.626,-5.238C23.062,-4.754 23.28,-4.088 23.28,-3.24C23.28,-3.096 23.248,-2.99 23.184,-2.922C23.12,-2.854 23.016,-2.82 22.872,-2.82L18.876,-2.82C18.9,-2.084 19.092,-1.524 19.452,-1.14C19.812,-0.756 20.32,-0.564 20.976,-0.564C21.32,-0.564 21.608,-0.61 21.84,-0.702C22.072,-0.794 22.32,-0.916 22.584,-1.068C22.76,-1.188 22.884,-1.248 22.956,-1.248C23.028,-1.248 23.09,-1.218 23.142,-1.158ZM19.5,-4.836C19.164,-4.484 18.964,-3.992 18.9,-3.36L22.608,-3.36C22.592,-4 22.432,-4.494 22.128,-4.842C21.824,-5.19 21.396,-5.364 20.844,-5.364C20.284,-5.364 19.836,-5.188 19.5,-4.836Z" style="fill-rule:nonzero;"/>
                <path d="M25.707,-0.288C25.299,-0.536 24.983,-0.888 24.759,-1.344C24.535,-1.8 24.423,-2.324 24.423,-2.916C24.423,-3.516 24.537,-4.046 24.765,-4.506C24.993,-4.966 25.313,-5.324 25.725,-5.58C26.137,-5.836 26.611,-5.964 27.147,-5.964C27.451,-5.964 27.747,-5.924 28.035,-5.844C28.323,-5.764 28.579,-5.644 28.803,-5.484C28.947,-5.38 29.049,-5.286 29.109,-5.202C29.169,-5.118 29.199,-5.028 29.199,-4.932C29.199,-4.844 29.175,-4.772 29.127,-4.716C29.079,-4.66 29.019,-4.632 28.947,-4.632C28.867,-4.632 28.739,-4.7 28.563,-4.836C28.355,-4.988 28.147,-5.108 27.939,-5.196C27.731,-5.284 27.479,-5.328 27.183,-5.328C26.559,-5.328 26.071,-5.114 25.719,-4.686C25.367,-4.258 25.191,-3.668 25.191,-2.916C25.191,-2.172 25.365,-1.594 25.713,-1.182C26.061,-0.77 26.547,-0.564 27.171,-0.564C27.475,-0.564 27.729,-0.608 27.933,-0.696C28.137,-0.784 28.359,-0.904 28.599,-1.056C28.671,-1.104 28.741,-1.148 28.809,-1.188C28.877,-1.228 28.931,-1.248 28.971,-1.248C29.051,-1.248 29.115,-1.22 29.163,-1.164C29.211,-1.108 29.235,-1.04 29.235,-0.96C29.235,-0.864 29.207,-0.78 29.151,-0.708C29.095,-0.636 28.987,-0.544 28.827,-0.432C28.611,-0.272 28.349,-0.146 28.041,-0.054C27.733,0.038 27.427,0.084 27.123,0.084C26.587,0.084 26.115,-0.04 25.707,-0.288Z" style="fill-rule:nonzero;"/>
                <path d="M33.354,-0.24C33.354,-0.144 33.318,-0.068 33.246,-0.012C33.174,0.044 33.058,0.068 32.898,0.06L32.562,0.036C31.954,-0.004 31.504,-0.19 31.212,-0.522C30.92,-0.854 30.774,-1.36 30.774,-2.04L30.774,-5.232L29.862,-5.232C29.766,-5.232 29.69,-5.258 29.634,-5.31C29.578,-5.362 29.55,-5.432 29.55,-5.52C29.55,-5.608 29.578,-5.68 29.634,-5.736C29.69,-5.792 29.766,-5.82 29.862,-5.82L30.774,-5.82L30.774,-7.308C30.774,-7.428 30.806,-7.52 30.87,-7.584C30.934,-7.648 31.022,-7.68 31.134,-7.68C31.246,-7.68 31.336,-7.648 31.404,-7.584C31.472,-7.52 31.506,-7.428 31.506,-7.308L31.506,-5.82L32.958,-5.82C33.062,-5.82 33.142,-5.792 33.198,-5.736C33.254,-5.68 33.282,-5.608 33.282,-5.52C33.282,-5.432 33.254,-5.362 33.198,-5.31C33.142,-5.258 33.062,-5.232 32.958,-5.232L31.506,-5.232L31.506,-2.004C31.506,-1.508 31.602,-1.154 31.794,-0.942C31.986,-0.73 32.286,-0.608 32.694,-0.576L33.018,-0.552C33.242,-0.528 33.354,-0.424 33.354,-0.24Z" style="fill-rule:nonzero;"/>
                <path d="M34.503,-0.036C34.435,-0.1 34.401,-0.192 34.401,-0.312L34.401,-5.568C34.401,-5.688 34.435,-5.78 34.503,-5.844C34.571,-5.908 34.661,-5.94 34.773,-5.94C34.885,-5.94 34.973,-5.908 35.037,-5.844C35.101,-5.78 35.133,-5.688 35.133,-5.568L35.133,-0.312C35.133,-0.192 35.101,-0.1 35.037,-0.036C34.973,0.028 34.885,0.06 34.773,0.06C34.661,0.06 34.571,0.028 34.503,-0.036ZM34.383,-7.44C34.283,-7.536 34.233,-7.66 34.233,-7.812C34.233,-7.972 34.283,-8.1 34.383,-8.196C34.483,-8.292 34.613,-8.34 34.773,-8.34C34.933,-8.34 35.063,-8.292 35.163,-8.196C35.263,-8.1 35.313,-7.972 35.313,-7.812C35.313,-7.66 35.263,-7.536 35.163,-7.44C35.063,-7.344 34.933,-7.296 34.773,-7.296C34.613,-7.296 34.483,-7.344 34.383,-7.44Z" style="fill-rule:nonzero;"/>
                <path d="M37.962,-0.288C37.558,-0.536 37.244,-0.888 37.02,-1.344C36.796,-1.8 36.684,-2.332 36.684,-2.94C36.684,-3.548 36.796,-4.08 37.02,-4.536C37.244,-4.992 37.558,-5.344 37.962,-5.592C38.366,-5.84 38.836,-5.964 39.372,-5.964C39.9,-5.964 40.368,-5.84 40.776,-5.592C41.184,-5.344 41.498,-4.992 41.718,-4.536C41.938,-4.08 42.048,-3.548 42.048,-2.94C42.048,-2.332 41.938,-1.8 41.718,-1.344C41.498,-0.888 41.184,-0.536 40.776,-0.288C40.368,-0.04 39.9,0.084 39.372,0.084C38.836,0.084 38.366,-0.04 37.962,-0.288ZM40.788,-1.176C41.124,-1.584 41.292,-2.172 41.292,-2.94C41.292,-3.692 41.122,-4.278 40.782,-4.698C40.442,-5.118 39.972,-5.328 39.372,-5.328C38.764,-5.328 38.292,-5.118 37.956,-4.698C37.62,-4.278 37.452,-3.692 37.452,-2.94C37.452,-2.172 37.616,-1.584 37.944,-1.176C38.272,-0.768 38.744,-0.564 39.36,-0.564C39.976,-0.564 40.452,-0.768 40.788,-1.176Z" style="fill-rule:nonzero;"/>
                <path d="M48.411,-3.708L48.411,-0.312C48.411,-0.2 48.379,-0.11 48.315,-0.042C48.251,0.026 48.163,0.06 48.051,0.06C47.939,0.06 47.849,0.026 47.781,-0.042C47.713,-0.11 47.679,-0.2 47.679,-0.312L47.679,-3.66C47.679,-4.236 47.563,-4.656 47.331,-4.92C47.099,-5.184 46.731,-5.316 46.227,-5.316C45.651,-5.316 45.189,-5.14 44.841,-4.788C44.493,-4.436 44.319,-3.964 44.319,-3.372L44.319,-0.312C44.319,-0.2 44.287,-0.11 44.223,-0.042C44.159,0.026 44.071,0.06 43.959,0.06C43.847,0.06 43.757,0.026 43.689,-0.042C43.621,-0.11 43.587,-0.2 43.587,-0.312L43.587,-5.568C43.587,-5.68 43.621,-5.77 43.689,-5.838C43.757,-5.906 43.847,-5.94 43.959,-5.94C44.063,-5.94 44.147,-5.908 44.211,-5.844C44.275,-5.78 44.307,-5.692 44.307,-5.58L44.307,-4.824C44.491,-5.192 44.757,-5.474 45.105,-5.67C45.453,-5.866 45.855,-5.964 46.311,-5.964C47.711,-5.964 48.411,-5.212 48.411,-3.708Z" style="fill-rule:nonzero;"/>
            </g>
        </g>
    </g>
</svg>
