<?xml version="1.0" encoding="UTF-8" standalone="no"?>
<svg width="179px" height="250px" viewBox="0 0 179 250" version="1.1" xmlns="http://www.w3.org/2000/svg" xmlns:xlink="http://www.w3.org/1999/xlink">
    <!-- Generator: Sketch 50.2 (55047) - http://www.bohemiancoding.com/sketch -->
    <title>Group 117</title>
    <desc>Created with Sketch.</desc>
    <defs></defs>
    <g id="Page-1" stroke="none" stroke-width="1" fill="none" fill-rule="evenodd">
        <g id="Group-117">
            <g id="Doc" transform="translate(19.000000, 45.000000)" fill="#636569" fill-rule="nonzero">
                <path d="M101.682243,1.4953271 L101.682243,45.0101761 C101.682243,55.1299084 106.70687,59.1778013 115.751199,59.1778013 L158.962994,59.1778013 L101.682243,1.4953271 Z" id="Shape"></path>
                <path d="M3.55271368e-15,62 L14.0689564,62 L14.0689564,174.059396 C14.0689564,184.179128 21.1034346,191.262941 30.1477637,191.262941 L128.630458,191.262941 C138.679713,191.262941 144.709266,184.179128 144.709266,175.071369 L144.709266,67.8022065 L144.709266,65.77826 L159.783148,65.77826 L159.783148,175.071369 C159.783148,191.262941 146.719117,204.418593 130.640309,204.418593 L29.1428383,204.418593 C13.0640309,204.418593 0,191.262941 0,175.071369 L0,62 Z M72,0 L94.462993,0 L94.462993,1.01197323 L94.462993,15.1795985 L72,15.1795985 L72,0 Z" id="Combined-Shape"></path>
            </g>
            <g id="Group-60" fill="#02A289">
                <path d="M14.000033,25.8706358 C14.000033,11.5822191 25.6409353,0 40,0 C54.3590647,0 65.999967,11.5824381 65.999967,25.8706358 L65.999967,39.8007086 L71.9993836,39.8007086 C76.4191491,39.8007086 80,43.3629013 80,47.7609379 L80,87.5623036 C80,91.9601211 76.4191491,95.5220948 71.9993836,95.5220948 L8.0001761,95.5220948 C3.58019052,95.5220948 0,91.9601211 0,87.5623036 L0,47.7609379 C0,43.3629013 3.58019052,39.8007086 8.0001761,39.8007086 L14.000033,39.8007086 L14.000033,25.8706358 Z M24.0000881,39.8007086 L55.9999119,39.8007086 L55.9999119,25.8706358 C55.9999119,17.0747817 48.839751,9.94995811 39.9997799,9.94995811 C31.1598087,9.94995811 24.0000881,17.0747817 24.0000881,25.8706358 L24.0000881,39.8007086 Z M31.9998239,61.6914487 C31.9998239,64.497527 33.460605,66.9656318 35.6601417,68.3784181 L33.999923,78.6072099 C33.999923,80.258308 35.3396327,81.591584 36.9996313,81.591584 L42.9999285,81.591584 C44.6601472,81.591584 46.000077,80.258308 46.000077,78.6072099 C45.121319,73.0758778 44.3398583,68.3784181 44.3398583,68.3784181 C46.5391748,66.9656318 47.9995157,64.4977461 47.9995157,61.6914487 C47.9995157,57.2936312 44.4197655,53.7314384 39.9997799,53.7314384 C35.5797943,53.7314384 31.9998239,57.2936312 31.9998239,61.6914487 Z" id="Lock"></path>
            </g>
        </g>
    </g>
</svg>