<?xml version="1.0" encoding="UTF-8"?>
<svg width="294px" height="294px" viewBox="0 0 294 294" version="1.1" xmlns="http://www.w3.org/2000/svg" xmlns:xlink="http://www.w3.org/1999/xlink">
    <!-- Generator: Sketch 50 (54983) - http://www.bohemiancoding.com/sketch -->
    <title>Phone_Home_Small_Office_LAN</title>
    <desc>Created with Sketch.</desc>
    <defs></defs>
    <g id="Page-2" stroke="none" stroke-width="1" fill="none" fill-rule="evenodd">
        <g id="Phone_Home_Small_Office_LAN" fill="#646566">
            <path d="M239.088,236.791894 L204.493714,202.293727 C197.310857,195.125499 184.925143,195.912464 176.799429,203.978859 L150.528,230.21389 C150.528,230.21389 149.396571,232.00167 149.036571,231.685173 C133.548,221.069695 116.730857,207.845255 101.945143,193.089654 C86.8937143,178.06888 74.1822857,162.124277 63.4165714,146.461955 C63.1251429,146.034257 62.5508571,145.178859 62.5508571,145.178859 C62.5508571,145.178859 65.6022857,142.1422 67.4022857,140.337312 L69.2965714,138.318574 L90.2022857,117.4811 C98.2937143,109.406151 99.0137143,97.0371079 91.8137143,89.8688798 L57.3822857,55.4733605 C50.1822857,48.2965784 37.7965714,49.023666 29.7137143,57.0986151 L6.91371429,79.8607332 C1.82228571,84.9417923 -0.337714286,91.6737678 0.536571429,97.7813035 C0.579428571,98.0379226 0.853714286,99.9967821 1.10228571,101.510835 C1.40228571,103.384155 1.65085714,104.829776 1.71942857,105.035071 C10.6937143,140.585377 36.408,183.218371 74.088,220.838737 C113.353714,259.990265 156.699429,284.77112 193.196571,292.700652 C193.273714,292.726314 193.376571,292.726314 193.445143,292.777637 C193.522286,292.777637 193.633714,292.803299 193.702286,292.828961 C200.585143,295.052994 208.753714,293.111242 214.736571,287.166232 L237.528,264.421222 C245.568,256.337719 246.288,243.97723 239.088,236.791894" id="Fill-42"></path>
            <path d="M135.159429,91.859389 C135.159429,91.859389 126.802286,92.6976782 126.802286,100.199511 C126.802286,107.701344 135.142286,108.522525 135.142286,108.522525 C147.948,108.522525 160.770857,113.398289 170.542286,123.149817 C180.330857,132.909898 185.199429,145.70664 185.199429,158.511935 C185.199429,158.511935 186.005143,166.877719 193.565143,166.877719 C201.039429,166.877719 201.905143,158.511935 201.905143,158.511935 C201.905143,141.438208 195.408,124.381589 182.353714,111.39666 C169.316571,98.3604073 152.233714,91.8764969 135.159429,91.859389" id="Fill-44"></path>
            <path d="M135.150857,46.0657026 C135.150857,46.0657026 126.553714,47.2375967 126.553714,54.645336 C126.553714,62.0530754 135.168,63.2335234 135.168,63.2335234 C159.588,63.2335234 184.008,72.5316904 202.642286,91.1280244 C221.276571,109.715804 230.585143,134.094623 230.610857,158.49055 C230.610857,158.49055 231.382286,167.035967 239.139429,167.035967 C247.025143,167.061629 247.753714,158.49055 247.753714,158.49055 C247.753714,129.706436 236.765143,100.93943 214.796571,78.9899389 C192.819429,57.049002 163.985143,46.0657026 135.150857,46.0657026" id="Fill-46"></path>
            <path d="M235.464,58.3782892 C263.166857,86.0161711 277.009714,122.250794 277.009714,158.493971 C277.009714,158.493971 277.241143,166.902525 285.238286,166.902525 C293.235429,166.902525 293.698286,158.485418 293.698286,158.485418 C293.706857,117.982363 278.218286,77.4964155 247.266857,46.6507943 C216.324,15.8137271 175.712571,0.305376782 135.152571,0.305376782 C135.152571,0.305376782 126.692571,1.54570265 126.692571,8.75670061 C126.692571,15.9848065 135.152571,16.9685132 135.152571,16.9685132 C171.452571,16.9257434 207.744,30.7404073 235.464,58.3782892" id="Fill-48"></path>
        </g>
    </g>
</svg>