<?xml version="1.0" encoding="UTF-8" standalone="no"?><!DOCTYPE svg PUBLIC "-//W3C//DTD SVG 1.1//EN" "http://www.w3.org/Graphics/SVG/1.1/DTD/svg11.dtd"><svg width="100%" height="100%" viewBox="0 0 406 22" version="1.1" xmlns="http://www.w3.org/2000/svg" xmlns:xlink="http://www.w3.org/1999/xlink" xml:space="preserve" xmlns:serif="http://www.serif.com/" style="fill-rule:evenodd;clip-rule:evenodd;stroke-linejoin:round;stroke-miterlimit:1.41421;"><path d="M3.72,16.26c-1.2,-0.696 -2.12,-1.696 -2.76,-3c-0.64,-1.304 -0.96,-2.844 -0.96,-4.62c0,-1.76 0.32,-3.292 0.96,-4.596c0.64,-1.304 1.56,-2.304 2.76,-3c1.2,-0.696 2.608,-1.044 4.224,-1.044c1.056,0 2.056,0.164 3,0.492c0.944,0.328 1.768,0.804 2.472,1.428c0.304,0.24 0.456,0.56 0.456,0.96c0,0.288 -0.08,0.532 -0.24,0.732c-0.16,0.2 -0.352,0.3 -0.576,0.3c-0.272,0 -0.536,-0.104 -0.792,-0.312c-0.768,-0.576 -1.468,-0.98 -2.1,-1.212c-0.632,-0.232 -1.348,-0.348 -2.148,-0.348c-1.76,0 -3.112,0.568 -4.056,1.704c-0.944,1.136 -1.416,2.768 -1.416,4.896c0,2.144 0.472,3.784 1.416,4.92c0.944,1.136 2.296,1.704 4.056,1.704c0.768,0 1.468,-0.12 2.1,-0.36c0.632,-0.24 1.348,-0.64 2.148,-1.2c0.32,-0.208 0.584,-0.312 0.792,-0.312c0.224,0 0.416,0.1 0.576,0.3c0.16,0.2 0.24,0.444 0.24,0.732c0,0.4 -0.152,0.72 -0.456,0.96c-0.704,0.624 -1.528,1.1 -2.472,1.428c-0.944,0.328 -1.944,0.492 -3,0.492c-1.616,0 -3.024,-0.348 -4.224,-1.044Z" style="fill-rule:nonzero;"/><path d="M18.348,16.536c-0.872,-0.496 -1.544,-1.204 -2.016,-2.124c-0.472,-0.92 -0.708,-1.988 -0.708,-3.204c0,-1.232 0.236,-2.308 0.708,-3.228c0.472,-0.92 1.144,-1.628 2.016,-2.124c0.872,-0.496 1.884,-0.744 3.036,-0.744c1.152,0 2.164,0.248 3.036,0.744c0.872,0.496 1.544,1.204 2.016,2.124c0.472,0.92 0.708,1.996 0.708,3.228c0,1.216 -0.236,2.284 -0.708,3.204c-0.472,0.92 -1.144,1.628 -2.016,2.124c-0.872,0.496 -1.884,0.744 -3.036,0.744c-1.152,0 -2.164,-0.248 -3.036,-0.744Zm5.496,-2.232c0.568,-0.704 0.852,-1.736 0.852,-3.096c0,-1.344 -0.288,-2.372 -0.864,-3.084c-0.576,-0.712 -1.392,-1.068 -2.448,-1.068c-1.056,0 -1.872,0.356 -2.448,1.068c-0.576,0.712 -0.864,1.74 -0.864,3.084c0,1.36 0.284,2.392 0.852,3.096c0.568,0.704 1.388,1.056 2.46,1.056c1.072,0 1.892,-0.352 2.46,-1.056Z" style="fill-rule:nonzero;"/><path d="M47.208,9.84l0,6.24c0,0.368 -0.112,0.652 -0.336,0.852c-0.224,0.2 -0.52,0.3 -0.888,0.3c-0.352,0 -0.64,-0.1 -0.864,-0.3c-0.224,-0.2 -0.336,-0.484 -0.336,-0.852l0,-6.216c0,-0.976 -0.176,-1.684 -0.528,-2.124c-0.352,-0.44 -0.904,-0.66 -1.656,-0.66c-0.88,0 -1.576,0.3 -2.088,0.9c-0.512,0.6 -0.768,1.42 -0.768,2.46l0,5.64c0,0.368 -0.112,0.652 -0.336,0.852c-0.224,0.2 -0.52,0.3 -0.888,0.3c-0.352,0 -0.64,-0.1 -0.864,-0.3c-0.224,-0.2 -0.336,-0.484 -0.336,-0.852l0,-6.216c0,-0.976 -0.176,-1.684 -0.528,-2.124c-0.352,-0.44 -0.904,-0.66 -1.656,-0.66c-0.88,0 -1.58,0.3 -2.1,0.9c-0.52,0.6 -0.78,1.42 -0.78,2.46l0,5.64c0,0.368 -0.112,0.652 -0.336,0.852c-0.224,0.2 -0.512,0.3 -0.864,0.3c-0.352,0 -0.644,-0.1 -0.876,-0.3c-0.232,-0.2 -0.348,-0.484 -0.348,-0.852l0,-9.768c0,-0.352 0.12,-0.632 0.36,-0.84c0.24,-0.208 0.528,-0.312 0.864,-0.312c0.336,0 0.612,0.1 0.828,0.3c0.216,0.2 0.324,0.476 0.324,0.828l0,0.888c0.352,-0.672 0.84,-1.184 1.464,-1.536c0.624,-0.352 1.344,-0.528 2.16,-0.528c0.896,0 1.636,0.184 2.22,0.552c0.584,0.368 1.02,0.936 1.308,1.704c0.352,-0.688 0.872,-1.236 1.56,-1.644c0.688,-0.408 1.472,-0.612 2.352,-0.612c2.624,0 3.936,1.576 3.936,4.728Z" style="fill-rule:nonzero;"/><path d="M59.508,5.88c0.792,0.512 1.408,1.232 1.848,2.16c0.44,0.928 0.66,2 0.66,3.216c0,1.2 -0.216,2.256 -0.648,3.168c-0.432,0.912 -1.044,1.616 -1.836,2.112c-0.792,0.496 -1.7,0.744 -2.724,0.744c-0.88,0 -1.656,-0.188 -2.328,-0.564c-0.672,-0.376 -1.184,-0.916 -1.536,-1.62l0,5.352c0,0.336 -0.108,0.604 -0.324,0.804c-0.216,0.2 -0.5,0.3 -0.852,0.3c-0.368,0 -0.668,-0.104 -0.9,-0.312c-0.232,-0.208 -0.348,-0.488 -0.348,-0.84l0,-14.064c0,-0.352 0.112,-0.636 0.336,-0.852c0.224,-0.216 0.52,-0.324 0.888,-0.324c0.352,0 0.64,0.108 0.864,0.324c0.224,0.216 0.336,0.5 0.336,0.852l0,0.984c0.352,-0.704 0.864,-1.248 1.536,-1.632c0.672,-0.384 1.448,-0.576 2.328,-0.576c1.008,0 1.908,0.256 2.7,0.768Zm-0.828,8.412c0.576,-0.712 0.864,-1.724 0.864,-3.036c0,-1.328 -0.292,-2.36 -0.876,-3.096c-0.584,-0.736 -1.396,-1.104 -2.436,-1.104c-1.056,0 -1.868,0.36 -2.436,1.08c-0.568,0.72 -0.852,1.744 -0.852,3.072c0,1.328 0.284,2.352 0.852,3.072c0.568,0.72 1.38,1.08 2.436,1.08c1.056,0 1.872,-0.356 2.448,-1.068Z" style="fill-rule:nonzero;"/><path d="M74.424,14.424c0.144,0.176 0.216,0.4 0.216,0.672c0,0.464 -0.288,0.856 -0.864,1.176c-0.56,0.32 -1.172,0.568 -1.836,0.744c-0.664,0.176 -1.3,0.264 -1.908,0.264c-1.856,0 -3.32,-0.54 -4.392,-1.62c-1.072,-1.08 -1.608,-2.556 -1.608,-4.428c0,-1.2 0.236,-2.264 0.708,-3.192c0.472,-0.928 1.136,-1.648 1.992,-2.16c0.856,-0.512 1.828,-0.768 2.916,-0.768c1.568,0 2.808,0.504 3.72,1.512c0.912,1.008 1.368,2.368 1.368,4.08c0,0.64 -0.288,0.96 -0.864,0.96l-7.416,0c0.16,2.48 1.352,3.72 3.576,3.72c0.592,0 1.104,-0.08 1.536,-0.24c0.432,-0.16 0.888,-0.368 1.368,-0.624c0.048,-0.032 0.18,-0.1 0.396,-0.204c0.216,-0.104 0.396,-0.156 0.54,-0.156c0.224,0 0.408,0.088 0.552,0.264Zm-6.96,-6.648c-0.56,0.592 -0.896,1.424 -1.008,2.496l6.192,0c-0.048,-1.088 -0.324,-1.924 -0.828,-2.508c-0.504,-0.584 -1.212,-0.876 -2.124,-0.876c-0.928,0 -1.672,0.296 -2.232,0.888Z" style="fill-rule:nonzero;"/><path d="M83.772,15.66c0.152,0.152 0.228,0.364 0.228,0.636c0,0.32 -0.124,0.564 -0.372,0.732c-0.248,0.168 -0.612,0.236 -1.092,0.204l-0.648,-0.048c-1.296,-0.096 -2.264,-0.492 -2.904,-1.188c-0.64,-0.696 -0.96,-1.724 -0.96,-3.084l0,-5.64l-1.44,0c-0.704,0 -1.056,-0.312 -1.056,-0.936c0,-0.288 0.092,-0.516 0.276,-0.684c0.184,-0.168 0.444,-0.252 0.78,-0.252l1.44,0l0,-2.472c0,-0.368 0.108,-0.656 0.324,-0.864c0.216,-0.208 0.508,-0.312 0.876,-0.312c0.368,0 0.664,0.104 0.888,0.312c0.224,0.208 0.336,0.496 0.336,0.864l0,2.472l2.376,0c0.336,0 0.596,0.084 0.78,0.252c0.184,0.168 0.276,0.396 0.276,0.684c0,0.304 -0.092,0.536 -0.276,0.696c-0.184,0.16 -0.444,0.24 -0.78,0.24l-2.376,0l0,5.808c0,0.752 0.156,1.304 0.468,1.656c0.312,0.352 0.788,0.552 1.428,0.6l0.672,0.048c0.352,0.032 0.604,0.124 0.756,0.276Z" style="fill-rule:nonzero;"/><path d="M86.1,16.944c-0.232,-0.192 -0.348,-0.48 -0.348,-0.864l0,-9.744c0,-0.384 0.116,-0.676 0.348,-0.876c0.232,-0.2 0.524,-0.3 0.876,-0.3c0.352,0 0.64,0.1 0.864,0.3c0.224,0.2 0.336,0.492 0.336,0.876l0,9.744c0,0.384 -0.112,0.672 -0.336,0.864c-0.224,0.192 -0.512,0.288 -0.864,0.288c-0.352,0 -0.644,-0.096 -0.876,-0.288Zm-0.228,-14.52c-0.272,-0.256 -0.408,-0.592 -0.408,-1.008c0,-0.416 0.136,-0.748 0.408,-0.996c0.272,-0.248 0.64,-0.372 1.104,-0.372c0.448,0 0.812,0.124 1.092,0.372c0.28,0.248 0.42,0.58 0.42,0.996c0,0.416 -0.136,0.752 -0.408,1.008c-0.272,0.256 -0.64,0.384 -1.104,0.384c-0.464,0 -0.832,-0.128 -1.104,-0.384Z" style="fill-rule:nonzero;"/><path d="M98.052,15.66c0.152,0.152 0.228,0.364 0.228,0.636c0,0.32 -0.124,0.564 -0.372,0.732c-0.248,0.168 -0.612,0.236 -1.092,0.204l-0.648,-0.048c-1.296,-0.096 -2.264,-0.492 -2.904,-1.188c-0.64,-0.696 -0.96,-1.724 -0.96,-3.084l0,-5.64l-1.44,0c-0.704,0 -1.056,-0.312 -1.056,-0.936c0,-0.288 0.092,-0.516 0.276,-0.684c0.184,-0.168 0.444,-0.252 0.78,-0.252l1.44,0l0,-2.472c0,-0.368 0.108,-0.656 0.324,-0.864c0.216,-0.208 0.508,-0.312 0.876,-0.312c0.368,0 0.664,0.104 0.888,0.312c0.224,0.208 0.336,0.496 0.336,0.864l0,2.472l2.376,0c0.336,0 0.596,0.084 0.78,0.252c0.184,0.168 0.276,0.396 0.276,0.684c0,0.304 -0.092,0.536 -0.276,0.696c-0.184,0.16 -0.444,0.24 -0.78,0.24l-2.376,0l0,5.808c0,0.752 0.156,1.304 0.468,1.656c0.312,0.352 0.788,0.552 1.428,0.6l0.672,0.048c0.352,0.032 0.604,0.124 0.756,0.276Z" style="fill-rule:nonzero;"/><path d="M100.38,16.944c-0.232,-0.192 -0.348,-0.48 -0.348,-0.864l0,-9.744c0,-0.384 0.116,-0.676 0.348,-0.876c0.232,-0.2 0.524,-0.3 0.876,-0.3c0.352,0 0.64,0.1 0.864,0.3c0.224,0.2 0.336,0.492 0.336,0.876l0,9.744c0,0.384 -0.112,0.672 -0.336,0.864c-0.224,0.192 -0.512,0.288 -0.864,0.288c-0.352,0 -0.644,-0.096 -0.876,-0.288Zm-0.228,-14.52c-0.272,-0.256 -0.408,-0.592 -0.408,-1.008c0,-0.416 0.136,-0.748 0.408,-0.996c0.272,-0.248 0.64,-0.372 1.104,-0.372c0.448,0 0.812,0.124 1.092,0.372c0.28,0.248 0.42,0.58 0.42,0.996c0,0.416 -0.136,0.752 -0.408,1.008c-0.272,0.256 -0.64,0.384 -1.104,0.384c-0.464,0 -0.832,-0.128 -1.104,-0.384Z" style="fill-rule:nonzero;"/><path d="M114.588,5.352c0.184,-0.112 0.38,-0.168 0.588,-0.168c0.304,0 0.572,0.104 0.804,0.312c0.232,0.208 0.348,0.456 0.348,0.744c0,0.16 -0.032,0.312 -0.096,0.456l-4.584,9.72c-0.112,0.256 -0.284,0.452 -0.516,0.588c-0.232,0.136 -0.476,0.204 -0.732,0.204c-0.256,0 -0.5,-0.068 -0.732,-0.204c-0.232,-0.136 -0.404,-0.332 -0.516,-0.588l-4.584,-9.72c-0.064,-0.128 -0.096,-0.28 -0.096,-0.456c0,-0.288 0.128,-0.536 0.384,-0.744c0.256,-0.208 0.544,-0.312 0.864,-0.312c0.464,0 0.808,0.224 1.032,0.672l3.72,8.256l3.696,-8.232c0.096,-0.24 0.236,-0.416 0.42,-0.528Z" style="fill-rule:nonzero;"/><path d="M127.872,14.424c0.144,0.176 0.216,0.4 0.216,0.672c0,0.464 -0.288,0.856 -0.864,1.176c-0.56,0.32 -1.172,0.568 -1.836,0.744c-0.664,0.176 -1.3,0.264 -1.908,0.264c-1.856,0 -3.32,-0.54 -4.392,-1.62c-1.072,-1.08 -1.608,-2.556 -1.608,-4.428c0,-1.2 0.236,-2.264 0.708,-3.192c0.472,-0.928 1.136,-1.648 1.992,-2.16c0.856,-0.512 1.828,-0.768 2.916,-0.768c1.568,0 2.808,0.504 3.72,1.512c0.912,1.008 1.368,2.368 1.368,4.08c0,0.64 -0.288,0.96 -0.864,0.96l-7.416,0c0.16,2.48 1.352,3.72 3.576,3.72c0.592,0 1.104,-0.08 1.536,-0.24c0.432,-0.16 0.888,-0.368 1.368,-0.624c0.048,-0.032 0.18,-0.1 0.396,-0.204c0.216,-0.104 0.396,-0.156 0.54,-0.156c0.224,0 0.408,0.088 0.552,0.264Zm-6.96,-6.648c-0.56,0.592 -0.896,1.424 -1.008,2.496l6.192,0c-0.048,-1.088 -0.324,-1.924 -0.828,-2.508c-0.504,-0.584 -1.212,-0.876 -2.124,-0.876c-0.928,0 -1.672,0.296 -2.232,0.888Z" style="fill-rule:nonzero;"/><path d="M146.172,5.88c0.792,0.512 1.408,1.232 1.848,2.16c0.44,0.928 0.66,2 0.66,3.216c0,1.2 -0.216,2.256 -0.648,3.168c-0.432,0.912 -1.044,1.616 -1.836,2.112c-0.792,0.496 -1.7,0.744 -2.724,0.744c-0.88,0 -1.656,-0.188 -2.328,-0.564c-0.672,-0.376 -1.184,-0.916 -1.536,-1.62l0,5.352c0,0.336 -0.108,0.604 -0.324,0.804c-0.216,0.2 -0.5,0.3 -0.852,0.3c-0.368,0 -0.668,-0.104 -0.9,-0.312c-0.232,-0.208 -0.348,-0.488 -0.348,-0.84l0,-14.064c0,-0.352 0.112,-0.636 0.336,-0.852c0.224,-0.216 0.52,-0.324 0.888,-0.324c0.352,0 0.64,0.108 0.864,0.324c0.224,0.216 0.336,0.5 0.336,0.852l0,0.984c0.352,-0.704 0.864,-1.248 1.536,-1.632c0.672,-0.384 1.448,-0.576 2.328,-0.576c1.008,0 1.908,0.256 2.7,0.768Zm-0.828,8.412c0.576,-0.712 0.864,-1.724 0.864,-3.036c0,-1.328 -0.292,-2.36 -0.876,-3.096c-0.584,-0.736 -1.396,-1.104 -2.436,-1.104c-1.056,0 -1.868,0.36 -2.436,1.08c-0.568,0.72 -0.852,1.744 -0.852,3.072c0,1.328 0.284,2.352 0.852,3.072c0.568,0.72 1.38,1.08 2.436,1.08c1.056,0 1.872,-0.356 2.448,-1.068Z" style="fill-rule:nonzero;"/><path d="M158.664,6.144c0,0.352 -0.088,0.616 -0.264,0.792c-0.176,0.176 -0.48,0.28 -0.912,0.312l-0.72,0.072c-1.008,0.096 -1.756,0.448 -2.244,1.056c-0.488,0.608 -0.732,1.344 -0.732,2.208l0,5.496c0,0.384 -0.112,0.672 -0.336,0.864c-0.224,0.192 -0.512,0.288 -0.864,0.288c-0.352,0 -0.644,-0.096 -0.876,-0.288c-0.232,-0.192 -0.348,-0.48 -0.348,-0.864l0,-9.768c0,-0.368 0.116,-0.652 0.348,-0.852c0.232,-0.2 0.524,-0.3 0.876,-0.3c0.32,0 0.588,0.1 0.804,0.3c0.216,0.2 0.324,0.476 0.324,0.828l0,1.152c0.32,-0.704 0.784,-1.24 1.392,-1.608c0.608,-0.368 1.296,-0.584 2.064,-0.648l0.336,-0.024c0.768,-0.048 1.152,0.28 1.152,0.984Z" style="fill-rule:nonzero;"/><path d="M161.964,16.536c-0.872,-0.496 -1.544,-1.204 -2.016,-2.124c-0.472,-0.92 -0.708,-1.988 -0.708,-3.204c0,-1.232 0.236,-2.308 0.708,-3.228c0.472,-0.92 1.144,-1.628 2.016,-2.124c0.872,-0.496 1.884,-0.744 3.036,-0.744c1.152,0 2.164,0.248 3.036,0.744c0.872,0.496 1.544,1.204 2.016,2.124c0.472,0.92 0.708,1.996 0.708,3.228c0,1.216 -0.236,2.284 -0.708,3.204c-0.472,0.92 -1.144,1.628 -2.016,2.124c-0.872,0.496 -1.884,0.744 -3.036,0.744c-1.152,0 -2.164,-0.248 -3.036,-0.744Zm5.496,-2.232c0.568,-0.704 0.852,-1.736 0.852,-3.096c0,-1.344 -0.288,-2.372 -0.864,-3.084c-0.576,-0.712 -1.392,-1.068 -2.448,-1.068c-1.056,0 -1.872,0.356 -2.448,1.068c-0.576,0.712 -0.864,1.74 -0.864,3.084c0,1.36 0.284,2.392 0.852,3.096c0.568,0.704 1.388,1.056 2.46,1.056c1.072,0 1.892,-0.352 2.46,-1.056Z" style="fill-rule:nonzero;"/><path d="M183.432,16.128c0,0.304 -0.108,0.564 -0.324,0.78c-0.216,0.216 -0.476,0.324 -0.78,0.324c-0.304,0 -0.584,-0.136 -0.84,-0.408l-3.672,-4.128l-3.648,4.128c-0.256,0.272 -0.536,0.408 -0.84,0.408c-0.304,0 -0.564,-0.112 -0.78,-0.336c-0.216,-0.224 -0.324,-0.488 -0.324,-0.792c0,-0.304 0.112,-0.576 0.336,-0.816l3.792,-4.176l-3.6,-4.008c-0.24,-0.272 -0.36,-0.544 -0.36,-0.816c0,-0.304 0.112,-0.564 0.336,-0.78c0.224,-0.216 0.48,-0.324 0.768,-0.324c0.304,0 0.584,0.136 0.84,0.408l3.48,3.936l3.48,-3.936c0.256,-0.272 0.544,-0.408 0.864,-0.408c0.288,0 0.544,0.108 0.768,0.324c0.224,0.216 0.336,0.476 0.336,0.78c0,0.304 -0.12,0.576 -0.36,0.816l-3.6,4.008l3.768,4.176c0.24,0.24 0.36,0.52 0.36,0.84Z" style="fill-rule:nonzero;"/><path d="M194.388,5.352c0.184,-0.112 0.38,-0.168 0.588,-0.168c0.304,0 0.572,0.104 0.804,0.312c0.232,0.208 0.348,0.456 0.348,0.744c0,0.16 -0.032,0.312 -0.096,0.456l-6.672,14.16c-0.096,0.224 -0.236,0.396 -0.42,0.516c-0.184,0.12 -0.38,0.18 -0.588,0.18c-0.288,0 -0.548,-0.096 -0.78,-0.288c-0.232,-0.192 -0.348,-0.432 -0.348,-0.72c0,-0.128 0.04,-0.288 0.12,-0.48l1.656,-3.528l-4.632,-9.84c-0.064,-0.128 -0.096,-0.272 -0.096,-0.432c0,-0.304 0.128,-0.56 0.384,-0.768c0.256,-0.208 0.544,-0.312 0.864,-0.312c0.48,0 0.824,0.224 1.032,0.672l3.72,8.256l3.696,-8.232c0.096,-0.24 0.236,-0.416 0.42,-0.528Z" style="fill-rule:nonzero;"/><path d="M197.832,11.436c-0.192,-0.168 -0.288,-0.404 -0.288,-0.708c0,-0.304 0.096,-0.544 0.288,-0.72c0.192,-0.176 0.472,-0.264 0.84,-0.264l5.112,0c0.368,0 0.648,0.088 0.84,0.264c0.192,0.176 0.288,0.416 0.288,0.72c0,0.304 -0.096,0.54 -0.288,0.708c-0.192,0.168 -0.472,0.252 -0.84,0.252l-5.112,0c-0.368,0 -0.648,-0.084 -0.84,-0.252Z" style="fill-rule:nonzero;"/><path d="M217.056,5.856c0.784,0.496 1.396,1.2 1.836,2.112c0.44,0.912 0.66,1.976 0.66,3.192c0,1.2 -0.22,2.264 -0.66,3.192c-0.44,0.928 -1.056,1.648 -1.848,2.16c-0.792,0.512 -1.692,0.768 -2.7,0.768c-0.88,0 -1.656,-0.188 -2.328,-0.564c-0.672,-0.376 -1.184,-0.916 -1.536,-1.62l0,0.96c0,0.352 -0.108,0.636 -0.324,0.852c-0.216,0.216 -0.508,0.324 -0.876,0.324c-0.368,0 -0.664,-0.108 -0.888,-0.324c-0.224,-0.216 -0.336,-0.5 -0.336,-0.852l0,-14.832c0,-0.352 0.116,-0.632 0.348,-0.84c0.232,-0.208 0.532,-0.312 0.9,-0.312c0.352,0 0.636,0.1 0.852,0.3c0.216,0.2 0.324,0.468 0.324,0.804l0,6.144c0.352,-0.704 0.864,-1.248 1.536,-1.632c0.672,-0.384 1.448,-0.576 2.328,-0.576c1.024,0 1.928,0.248 2.712,0.744Zm-0.852,8.4c0.584,-0.736 0.876,-1.768 0.876,-3.096c0,-1.312 -0.288,-2.324 -0.864,-3.036c-0.576,-0.712 -1.392,-1.068 -2.448,-1.068c-1.056,0 -1.868,0.36 -2.436,1.08c-0.568,0.72 -0.852,1.744 -0.852,3.072c0,1.328 0.284,2.352 0.852,3.072c0.568,0.72 1.38,1.08 2.436,1.08c1.04,0 1.852,-0.368 2.436,-1.104Z" style="fill-rule:nonzero;"/><path d="M230.628,6.288c0.76,0.784 1.14,1.976 1.14,3.576l0,6.216c0,0.368 -0.104,0.652 -0.312,0.852c-0.208,0.2 -0.496,0.3 -0.864,0.3c-0.352,0 -0.632,-0.104 -0.84,-0.312c-0.208,-0.208 -0.312,-0.488 -0.312,-0.84l0,-0.888c-0.304,0.672 -0.756,1.188 -1.356,1.548c-0.6,0.36 -1.3,0.54 -2.1,0.54c-0.768,0 -1.472,-0.156 -2.112,-0.468c-0.64,-0.312 -1.14,-0.748 -1.5,-1.308c-0.36,-0.56 -0.54,-1.184 -0.54,-1.872c0,-0.848 0.22,-1.516 0.66,-2.004c0.44,-0.488 1.168,-0.836 2.184,-1.044c1.016,-0.208 2.412,-0.312 4.188,-0.312l0.552,0l0,-0.696c0,-0.896 -0.184,-1.544 -0.552,-1.944c-0.368,-0.4 -0.96,-0.6 -1.776,-0.6c-0.56,0 -1.088,0.072 -1.584,0.216c-0.496,0.144 -1.04,0.352 -1.632,0.624c-0.432,0.24 -0.736,0.36 -0.912,0.36c-0.24,0 -0.436,-0.088 -0.588,-0.264c-0.152,-0.176 -0.228,-0.4 -0.228,-0.672c0,-0.24 0.068,-0.452 0.204,-0.636c0.136,-0.184 0.356,-0.364 0.66,-0.54c0.56,-0.304 1.216,-0.548 1.968,-0.732c0.752,-0.184 1.48,-0.276 2.184,-0.276c1.552,0 2.708,0.392 3.468,1.176Zm-2.052,8.292c0.56,-0.6 0.84,-1.372 0.84,-2.316l0,-0.624l-0.432,0c-1.248,0 -2.208,0.056 -2.88,0.168c-0.672,0.112 -1.152,0.3 -1.44,0.564c-0.288,0.264 -0.432,0.644 -0.432,1.14c0,0.576 0.208,1.048 0.624,1.416c0.416,0.368 0.936,0.552 1.56,0.552c0.88,0 1.6,-0.3 2.16,-0.9Z" style="fill-rule:nonzero;"/><path d="M235.152,16.272c-0.288,-0.176 -0.492,-0.36 -0.612,-0.552c-0.12,-0.192 -0.18,-0.408 -0.18,-0.648c0,-0.256 0.072,-0.472 0.216,-0.648c0.144,-0.176 0.328,-0.264 0.552,-0.264c0.208,0 0.536,0.128 0.984,0.384c0.48,0.256 0.948,0.464 1.404,0.624c0.456,0.16 1.028,0.24 1.716,0.24c0.768,0 1.368,-0.136 1.8,-0.408c0.432,-0.272 0.648,-0.656 0.648,-1.152c0,-0.32 -0.084,-0.576 -0.252,-0.768c-0.168,-0.192 -0.46,-0.364 -0.876,-0.516c-0.416,-0.152 -1.032,-0.316 -1.848,-0.492c-1.408,-0.304 -2.42,-0.716 -3.036,-1.236c-0.616,-0.52 -0.924,-1.228 -0.924,-2.124c0,-0.688 0.2,-1.308 0.6,-1.86c0.4,-0.552 0.952,-0.98 1.656,-1.284c0.704,-0.304 1.504,-0.456 2.4,-0.456c0.64,0 1.264,0.084 1.872,0.252c0.608,0.168 1.144,0.412 1.608,0.732c0.528,0.352 0.792,0.76 0.792,1.224c0,0.256 -0.076,0.472 -0.228,0.648c-0.152,0.176 -0.332,0.264 -0.54,0.264c-0.144,0 -0.288,-0.032 -0.432,-0.096c-0.144,-0.064 -0.336,-0.168 -0.576,-0.312c-0.432,-0.256 -0.836,-0.456 -1.212,-0.6c-0.376,-0.144 -0.844,-0.216 -1.404,-0.216c-0.672,0 -1.212,0.144 -1.62,0.432c-0.408,0.288 -0.612,0.68 -0.612,1.176c0,0.448 0.188,0.796 0.564,1.044c0.376,0.248 1.084,0.484 2.124,0.708c1.072,0.224 1.912,0.48 2.52,0.768c0.608,0.288 1.044,0.644 1.308,1.068c0.264,0.424 0.396,0.964 0.396,1.62c0,1.04 -0.436,1.876 -1.308,2.508c-0.872,0.632 -2.036,0.948 -3.492,0.948c-1.632,0 -2.968,-0.336 -4.008,-1.008Z" style="fill-rule:nonzero;"/><path d="M256.368,14.424c0.144,0.176 0.216,0.4 0.216,0.672c0,0.464 -0.288,0.856 -0.864,1.176c-0.56,0.32 -1.172,0.568 -1.836,0.744c-0.664,0.176 -1.3,0.264 -1.908,0.264c-1.856,0 -3.32,-0.54 -4.392,-1.62c-1.072,-1.08 -1.608,-2.556 -1.608,-4.428c0,-1.2 0.236,-2.264 0.708,-3.192c0.472,-0.928 1.136,-1.648 1.992,-2.16c0.856,-0.512 1.828,-0.768 2.916,-0.768c1.568,0 2.808,0.504 3.72,1.512c0.912,1.008 1.368,2.368 1.368,4.08c0,0.64 -0.288,0.96 -0.864,0.96l-7.416,0c0.16,2.48 1.352,3.72 3.576,3.72c0.592,0 1.104,-0.08 1.536,-0.24c0.432,-0.16 0.888,-0.368 1.368,-0.624c0.048,-0.032 0.18,-0.1 0.396,-0.204c0.216,-0.104 0.396,-0.156 0.54,-0.156c0.224,0 0.408,0.088 0.552,0.264Zm-6.96,-6.648c-0.56,0.592 -0.896,1.424 -1.008,2.496l6.192,0c-0.048,-1.088 -0.324,-1.924 -0.828,-2.508c-0.504,-0.584 -1.212,-0.876 -2.124,-0.876c-0.928,0 -1.672,0.296 -2.232,0.888Z" style="fill-rule:nonzero;"/><path d="M269.808,0.384c0.224,0.208 0.336,0.488 0.336,0.84l0,14.832c0,0.368 -0.108,0.656 -0.324,0.864c-0.216,0.208 -0.508,0.312 -0.876,0.312c-0.368,0 -0.66,-0.104 -0.876,-0.312c-0.216,-0.208 -0.324,-0.496 -0.324,-0.864l0,-0.96c-0.352,0.704 -0.864,1.244 -1.536,1.62c-0.672,0.376 -1.448,0.564 -2.328,0.564c-1.008,0 -1.908,-0.256 -2.7,-0.768c-0.792,-0.512 -1.408,-1.232 -1.848,-2.16c-0.44,-0.928 -0.66,-1.992 -0.66,-3.192c0,-1.216 0.22,-2.28 0.66,-3.192c0.44,-0.912 1.052,-1.616 1.836,-2.112c0.784,-0.496 1.688,-0.744 2.712,-0.744c0.88,0 1.652,0.188 2.316,0.564c0.664,0.376 1.172,0.908 1.524,1.596l0,-6.096c0,-0.336 0.108,-0.604 0.324,-0.804c0.216,-0.2 0.508,-0.3 0.876,-0.3c0.368,0 0.664,0.104 0.888,0.312Zm-2.928,13.896c0.576,-0.72 0.864,-1.744 0.864,-3.072c0,-1.328 -0.284,-2.352 -0.852,-3.072c-0.568,-0.72 -1.38,-1.08 -2.436,-1.08c-1.056,0 -1.876,0.356 -2.46,1.068c-0.584,0.712 -0.876,1.724 -0.876,3.036c0,1.312 0.296,2.34 0.888,3.084c0.592,0.744 1.408,1.116 2.448,1.116c1.04,0 1.848,-0.36 2.424,-1.08Z" style="fill-rule:nonzero;"/><path d="M288.252,6.288c0.76,0.784 1.14,1.976 1.14,3.576l0,6.216c0,0.368 -0.104,0.652 -0.312,0.852c-0.208,0.2 -0.496,0.3 -0.864,0.3c-0.352,0 -0.632,-0.104 -0.84,-0.312c-0.208,-0.208 -0.312,-0.488 -0.312,-0.84l0,-0.888c-0.304,0.672 -0.756,1.188 -1.356,1.548c-0.6,0.36 -1.3,0.54 -2.1,0.54c-0.768,0 -1.472,-0.156 -2.112,-0.468c-0.64,-0.312 -1.14,-0.748 -1.5,-1.308c-0.36,-0.56 -0.54,-1.184 -0.54,-1.872c0,-0.848 0.22,-1.516 0.66,-2.004c0.44,-0.488 1.168,-0.836 2.184,-1.044c1.016,-0.208 2.412,-0.312 4.188,-0.312l0.552,0l0,-0.696c0,-0.896 -0.184,-1.544 -0.552,-1.944c-0.368,-0.4 -0.96,-0.6 -1.776,-0.6c-0.56,0 -1.088,0.072 -1.584,0.216c-0.496,0.144 -1.04,0.352 -1.632,0.624c-0.432,0.24 -0.736,0.36 -0.912,0.36c-0.24,0 -0.436,-0.088 -0.588,-0.264c-0.152,-0.176 -0.228,-0.4 -0.228,-0.672c0,-0.24 0.068,-0.452 0.204,-0.636c0.136,-0.184 0.356,-0.364 0.66,-0.54c0.56,-0.304 1.216,-0.548 1.968,-0.732c0.752,-0.184 1.48,-0.276 2.184,-0.276c1.552,0 2.708,0.392 3.468,1.176Zm-2.052,8.292c0.56,-0.6 0.84,-1.372 0.84,-2.316l0,-0.624l-0.432,0c-1.248,0 -2.208,0.056 -2.88,0.168c-0.672,0.112 -1.152,0.3 -1.44,0.564c-0.288,0.264 -0.432,0.644 -0.432,1.14c0,0.576 0.208,1.048 0.624,1.416c0.416,0.368 0.936,0.552 1.56,0.552c0.88,0 1.6,-0.3 2.16,-0.9Z" style="fill-rule:nonzero;"/><path d="M300,6.144c0,0.352 -0.088,0.616 -0.264,0.792c-0.176,0.176 -0.48,0.28 -0.912,0.312l-0.72,0.072c-1.008,0.096 -1.756,0.448 -2.244,1.056c-0.488,0.608 -0.732,1.344 -0.732,2.208l0,5.496c0,0.384 -0.112,0.672 -0.336,0.864c-0.224,0.192 -0.512,0.288 -0.864,0.288c-0.352,0 -0.644,-0.096 -0.876,-0.288c-0.232,-0.192 -0.348,-0.48 -0.348,-0.864l0,-9.768c0,-0.368 0.116,-0.652 0.348,-0.852c0.232,-0.2 0.524,-0.3 0.876,-0.3c0.32,0 0.588,0.1 0.804,0.3c0.216,0.2 0.324,0.476 0.324,0.828l0,1.152c0.32,-0.704 0.784,-1.24 1.392,-1.608c0.608,-0.368 1.296,-0.584 2.064,-0.648l0.336,-0.024c0.768,-0.048 1.152,0.28 1.152,0.984Z" style="fill-rule:nonzero;"/><path d="M303.276,16.536c-0.856,-0.496 -1.52,-1.2 -1.992,-2.112c-0.472,-0.912 -0.708,-1.968 -0.708,-3.168c0,-1.216 0.244,-2.288 0.732,-3.216c0.488,-0.928 1.172,-1.648 2.052,-2.16c0.88,-0.512 1.888,-0.768 3.024,-0.768c0.608,0 1.22,0.088 1.836,0.264c0.616,0.176 1.164,0.416 1.644,0.72c0.512,0.352 0.768,0.76 0.768,1.224c0,0.272 -0.072,0.5 -0.216,0.684c-0.144,0.184 -0.328,0.276 -0.552,0.276c-0.144,0 -0.288,-0.036 -0.432,-0.108c-0.144,-0.072 -0.328,-0.18 -0.552,-0.324c-0.4,-0.256 -0.772,-0.452 -1.116,-0.588c-0.344,-0.136 -0.756,-0.204 -1.236,-0.204c-1.088,0 -1.932,0.368 -2.532,1.104c-0.6,0.736 -0.9,1.76 -0.9,3.072c0,1.312 0.296,2.324 0.888,3.036c0.592,0.712 1.432,1.068 2.52,1.068c0.48,0 0.904,-0.072 1.272,-0.216c0.368,-0.144 0.744,-0.336 1.128,-0.576c0.176,-0.112 0.352,-0.208 0.528,-0.288c0.176,-0.08 0.336,-0.12 0.48,-0.12c0.224,0 0.408,0.092 0.552,0.276c0.144,0.184 0.216,0.412 0.216,0.684c0,0.224 -0.06,0.428 -0.18,0.612c-0.12,0.184 -0.324,0.372 -0.612,0.564c-0.48,0.32 -1.04,0.568 -1.68,0.744c-0.64,0.176 -1.288,0.264 -1.944,0.264c-1.136,0 -2.132,-0.248 -2.988,-0.744Z" style="fill-rule:nonzero;"/><path d="M323.352,9.84l0,6.24c0,0.352 -0.112,0.632 -0.336,0.84c-0.224,0.208 -0.52,0.312 -0.888,0.312c-0.368,0 -0.66,-0.104 -0.876,-0.312c-0.216,-0.208 -0.324,-0.488 -0.324,-0.84l0,-6.216c0,-0.96 -0.196,-1.664 -0.588,-2.112c-0.392,-0.448 -1.004,-0.672 -1.836,-0.672c-0.976,0 -1.76,0.304 -2.352,0.912c-0.592,0.608 -0.888,1.424 -0.888,2.448l0,5.64c0,0.352 -0.108,0.632 -0.324,0.84c-0.216,0.208 -0.508,0.312 -0.876,0.312c-0.368,0 -0.664,-0.104 -0.888,-0.312c-0.224,-0.208 -0.336,-0.488 -0.336,-0.84l0,-14.856c0,-0.352 0.116,-0.632 0.348,-0.84c0.232,-0.208 0.532,-0.312 0.9,-0.312c0.352,0 0.636,0.1 0.852,0.3c0.216,0.2 0.324,0.468 0.324,0.804l0,6c0.4,-0.672 0.936,-1.184 1.608,-1.536c0.672,-0.352 1.44,-0.528 2.304,-0.528c2.784,0 4.176,1.576 4.176,4.728Z" style="fill-rule:nonzero;"/><path d="M327.012,16.944c-0.232,-0.192 -0.348,-0.48 -0.348,-0.864l0,-9.744c0,-0.384 0.116,-0.676 0.348,-0.876c0.232,-0.2 0.524,-0.3 0.876,-0.3c0.352,0 0.64,0.1 0.864,0.3c0.224,0.2 0.336,0.492 0.336,0.876l0,9.744c0,0.384 -0.112,0.672 -0.336,0.864c-0.224,0.192 -0.512,0.288 -0.864,0.288c-0.352,0 -0.644,-0.096 -0.876,-0.288Zm-0.228,-14.52c-0.272,-0.256 -0.408,-0.592 -0.408,-1.008c0,-0.416 0.136,-0.748 0.408,-0.996c0.272,-0.248 0.64,-0.372 1.104,-0.372c0.448,0 0.812,0.124 1.092,0.372c0.28,0.248 0.42,0.58 0.42,0.996c0,0.416 -0.136,0.752 -0.408,1.008c-0.272,0.256 -0.64,0.384 -1.104,0.384c-0.464,0 -0.832,-0.128 -1.104,-0.384Z" style="fill-rule:nonzero;"/><path d="M338.964,15.66c0.152,0.152 0.228,0.364 0.228,0.636c0,0.32 -0.124,0.564 -0.372,0.732c-0.248,0.168 -0.612,0.236 -1.092,0.204l-0.648,-0.048c-1.296,-0.096 -2.264,-0.492 -2.904,-1.188c-0.64,-0.696 -0.96,-1.724 -0.96,-3.084l0,-5.64l-1.44,0c-0.704,0 -1.056,-0.312 -1.056,-0.936c0,-0.288 0.092,-0.516 0.276,-0.684c0.184,-0.168 0.444,-0.252 0.78,-0.252l1.44,0l0,-2.472c0,-0.368 0.108,-0.656 0.324,-0.864c0.216,-0.208 0.508,-0.312 0.876,-0.312c0.368,0 0.664,0.104 0.888,0.312c0.224,0.208 0.336,0.496 0.336,0.864l0,2.472l2.376,0c0.336,0 0.596,0.084 0.78,0.252c0.184,0.168 0.276,0.396 0.276,0.684c0,0.304 -0.092,0.536 -0.276,0.696c-0.184,0.16 -0.444,0.24 -0.78,0.24l-2.376,0l0,5.808c0,0.752 0.156,1.304 0.468,1.656c0.312,0.352 0.788,0.552 1.428,0.6l0.672,0.048c0.352,0.032 0.604,0.124 0.756,0.276Z" style="fill-rule:nonzero;"/><path d="M350.664,14.424c0.144,0.176 0.216,0.4 0.216,0.672c0,0.464 -0.288,0.856 -0.864,1.176c-0.56,0.32 -1.172,0.568 -1.836,0.744c-0.664,0.176 -1.3,0.264 -1.908,0.264c-1.856,0 -3.32,-0.54 -4.392,-1.62c-1.072,-1.08 -1.608,-2.556 -1.608,-4.428c0,-1.2 0.236,-2.264 0.708,-3.192c0.472,-0.928 1.136,-1.648 1.992,-2.16c0.856,-0.512 1.828,-0.768 2.916,-0.768c1.568,0 2.808,0.504 3.72,1.512c0.912,1.008 1.368,2.368 1.368,4.08c0,0.64 -0.288,0.96 -0.864,0.96l-7.416,0c0.16,2.48 1.352,3.72 3.576,3.72c0.592,0 1.104,-0.08 1.536,-0.24c0.432,-0.16 0.888,-0.368 1.368,-0.624c0.048,-0.032 0.18,-0.1 0.396,-0.204c0.216,-0.104 0.396,-0.156 0.54,-0.156c0.224,0 0.408,0.088 0.552,0.264Zm-6.96,-6.648c-0.56,0.592 -0.896,1.424 -1.008,2.496l6.192,0c-0.048,-1.088 -0.324,-1.924 -0.828,-2.508c-0.504,-0.584 -1.212,-0.876 -2.124,-0.876c-0.928,0 -1.672,0.296 -2.232,0.888Z" style="fill-rule:nonzero;"/><path d="M355.668,16.536c-0.856,-0.496 -1.52,-1.2 -1.992,-2.112c-0.472,-0.912 -0.708,-1.968 -0.708,-3.168c0,-1.216 0.244,-2.288 0.732,-3.216c0.488,-0.928 1.172,-1.648 2.052,-2.16c0.88,-0.512 1.888,-0.768 3.024,-0.768c0.608,0 1.22,0.088 1.836,0.264c0.616,0.176 1.164,0.416 1.644,0.72c0.512,0.352 0.768,0.76 0.768,1.224c0,0.272 -0.072,0.5 -0.216,0.684c-0.144,0.184 -0.328,0.276 -0.552,0.276c-0.144,0 -0.288,-0.036 -0.432,-0.108c-0.144,-0.072 -0.328,-0.18 -0.552,-0.324c-0.4,-0.256 -0.772,-0.452 -1.116,-0.588c-0.344,-0.136 -0.756,-0.204 -1.236,-0.204c-1.088,0 -1.932,0.368 -2.532,1.104c-0.6,0.736 -0.9,1.76 -0.9,3.072c0,1.312 0.296,2.324 0.888,3.036c0.592,0.712 1.432,1.068 2.52,1.068c0.48,0 0.904,-0.072 1.272,-0.216c0.368,-0.144 0.744,-0.336 1.128,-0.576c0.176,-0.112 0.352,-0.208 0.528,-0.288c0.176,-0.08 0.336,-0.12 0.48,-0.12c0.224,0 0.408,0.092 0.552,0.276c0.144,0.184 0.216,0.412 0.216,0.684c0,0.224 -0.06,0.428 -0.18,0.612c-0.12,0.184 -0.324,0.372 -0.612,0.564c-0.48,0.32 -1.04,0.568 -1.68,0.744c-0.64,0.176 -1.288,0.264 -1.944,0.264c-1.136,0 -2.132,-0.248 -2.988,-0.744Z" style="fill-rule:nonzero;"/><path d="M371.772,15.66c0.152,0.152 0.228,0.364 0.228,0.636c0,0.32 -0.124,0.564 -0.372,0.732c-0.248,0.168 -0.612,0.236 -1.092,0.204l-0.648,-0.048c-1.296,-0.096 -2.264,-0.492 -2.904,-1.188c-0.64,-0.696 -0.96,-1.724 -0.96,-3.084l0,-5.64l-1.44,0c-0.704,0 -1.056,-0.312 -1.056,-0.936c0,-0.288 0.092,-0.516 0.276,-0.684c0.184,-0.168 0.444,-0.252 0.78,-0.252l1.44,0l0,-2.472c0,-0.368 0.108,-0.656 0.324,-0.864c0.216,-0.208 0.508,-0.312 0.876,-0.312c0.368,0 0.664,0.104 0.888,0.312c0.224,0.208 0.336,0.496 0.336,0.864l0,2.472l2.376,0c0.336,0 0.596,0.084 0.78,0.252c0.184,0.168 0.276,0.396 0.276,0.684c0,0.304 -0.092,0.536 -0.276,0.696c-0.184,0.16 -0.444,0.24 -0.78,0.24l-2.376,0l0,5.808c0,0.752 0.156,1.304 0.468,1.656c0.312,0.352 0.788,0.552 1.428,0.6l0.672,0.048c0.352,0.032 0.604,0.124 0.756,0.276Z" style="fill-rule:nonzero;"/><path d="M383.7,5.472c0.216,0.208 0.324,0.496 0.324,0.864l0,9.768c0,0.336 -0.112,0.608 -0.336,0.816c-0.224,0.208 -0.52,0.312 -0.888,0.312c-0.336,0 -0.608,-0.1 -0.816,-0.3c-0.208,-0.2 -0.312,-0.468 -0.312,-0.804l0,-0.912c-0.368,0.672 -0.876,1.184 -1.524,1.536c-0.648,0.352 -1.372,0.528 -2.172,0.528c-2.848,0 -4.272,-1.568 -4.272,-4.704l0,-6.24c0,-0.368 0.108,-0.656 0.324,-0.864c0.216,-0.208 0.516,-0.312 0.9,-0.312c0.368,0 0.66,0.104 0.876,0.312c0.216,0.208 0.324,0.496 0.324,0.864l0,6.216c0,0.944 0.192,1.64 0.576,2.088c0.384,0.448 0.976,0.672 1.776,0.672c0.944,0 1.7,-0.304 2.268,-0.912c0.568,-0.608 0.852,-1.416 0.852,-2.424l0,-5.64c0,-0.352 0.112,-0.636 0.336,-0.852c0.224,-0.216 0.52,-0.324 0.888,-0.324c0.368,0 0.66,0.104 0.876,0.312Z" style="fill-rule:nonzero;"/><path d="M394.704,6.144c0,0.352 -0.088,0.616 -0.264,0.792c-0.176,0.176 -0.48,0.28 -0.912,0.312l-0.72,0.072c-1.008,0.096 -1.756,0.448 -2.244,1.056c-0.488,0.608 -0.732,1.344 -0.732,2.208l0,5.496c0,0.384 -0.112,0.672 -0.336,0.864c-0.224,0.192 -0.512,0.288 -0.864,0.288c-0.352,0 -0.644,-0.096 -0.876,-0.288c-0.232,-0.192 -0.348,-0.48 -0.348,-0.864l0,-9.768c0,-0.368 0.116,-0.652 0.348,-0.852c0.232,-0.2 0.524,-0.3 0.876,-0.3c0.32,0 0.588,0.1 0.804,0.3c0.216,0.2 0.324,0.476 0.324,0.828l0,1.152c0.32,-0.704 0.784,-1.24 1.392,-1.608c0.608,-0.368 1.296,-0.584 2.064,-0.648l0.336,-0.024c0.768,-0.048 1.152,0.28 1.152,0.984Z" style="fill-rule:nonzero;"/><path d="M405.672,14.424c0.144,0.176 0.216,0.4 0.216,0.672c0,0.464 -0.288,0.856 -0.864,1.176c-0.56,0.32 -1.172,0.568 -1.836,0.744c-0.664,0.176 -1.3,0.264 -1.908,0.264c-1.856,0 -3.32,-0.54 -4.392,-1.62c-1.072,-1.08 -1.608,-2.556 -1.608,-4.428c0,-1.2 0.236,-2.264 0.708,-3.192c0.472,-0.928 1.136,-1.648 1.992,-2.16c0.856,-0.512 1.828,-0.768 2.916,-0.768c1.568,0 2.808,0.504 3.72,1.512c0.912,1.008 1.368,2.368 1.368,4.08c0,0.64 -0.288,0.96 -0.864,0.96l-7.416,0c0.16,2.48 1.352,3.72 3.576,3.72c0.592,0 1.104,-0.08 1.536,-0.24c0.432,-0.16 0.888,-0.368 1.368,-0.624c0.048,-0.032 0.18,-0.1 0.396,-0.204c0.216,-0.104 0.396,-0.156 0.54,-0.156c0.224,0 0.408,0.088 0.552,0.264Zm-6.96,-6.648c-0.56,0.592 -0.896,1.424 -1.008,2.496l6.192,0c-0.048,-1.088 -0.324,-1.924 -0.828,-2.508c-0.504,-0.584 -1.212,-0.876 -2.124,-0.876c-0.928,0 -1.672,0.296 -2.232,0.888Z" style="fill-rule:nonzero;"/></svg>