<?xml version="1.0" encoding="UTF-8" standalone="no"?><!DOCTYPE svg PUBLIC "-//W3C//DTD SVG 1.1//EN" "http://www.w3.org/Graphics/SVG/1.1/DTD/svg11.dtd"><svg width="39px" height="11px" version="1.1" xmlns="http://www.w3.org/2000/svg" xmlns:xlink="http://www.w3.org/1999/xlink" xml:space="preserve" xmlns:serif="http://www.serif.com/" style="fill-rule:evenodd;clip-rule:evenodd;stroke-linejoin:round;stroke-miterlimit:1.41421;"><g transform="matrix(1,0,0,1,-926,-32)"><g transform="matrix(1,0,0,1,13.4444,-227.968)"><path d="M914.747,269.453C914.065,269.047 913.54,268.463 913.172,267.703C912.803,266.942 912.619,266.044 912.619,265.008C912.619,263.981 912.803,263.087 913.172,262.327C913.54,261.566 914.065,260.983 914.747,260.577C915.428,260.171 916.235,259.968 917.169,259.968C917.794,259.968 918.384,260.068 918.94,260.269C919.495,260.469 919.978,260.756 920.389,261.13C920.538,261.27 920.613,261.433 920.613,261.62C920.613,261.75 920.575,261.865 920.501,261.963C920.426,262.061 920.337,262.11 920.235,262.11C920.123,262.11 919.987,262.058 919.829,261.956C919.353,261.582 918.921,261.321 918.534,261.172C918.146,261.022 917.701,260.948 917.197,260.948C916.114,260.948 915.281,261.3 914.698,262.005C914.114,262.709 913.823,263.71 913.823,265.008C913.823,266.314 914.114,267.32 914.698,268.025C915.281,268.729 916.114,269.082 917.197,269.082C917.691,269.082 918.135,269.007 918.527,268.858C918.919,268.708 919.353,268.447 919.829,268.074C919.987,267.971 920.123,267.92 920.235,267.92C920.337,267.92 920.426,267.966 920.501,268.06C920.575,268.153 920.613,268.27 920.613,268.41C920.613,268.596 920.538,268.76 920.389,268.9C919.978,269.273 919.495,269.56 918.94,269.761C918.384,269.961 917.794,270.062 917.169,270.062C916.235,270.062 915.428,269.859 914.747,269.453Z" style="fill-rule:nonzero;"/><path d="M922.615,269.859C922.512,269.751 922.461,269.609 922.461,269.432L922.461,260.64C922.461,260.472 922.514,260.336 922.622,260.234C922.729,260.131 922.871,260.08 923.049,260.08L926.367,260.08C927.403,260.08 928.208,260.332 928.782,260.836C929.356,261.34 929.643,262.054 929.643,262.978C929.643,263.902 929.353,264.62 928.775,265.134C928.196,265.647 927.393,265.904 926.367,265.904L923.609,265.904L923.609,269.432C923.609,269.609 923.557,269.751 923.455,269.859C923.352,269.966 923.212,270.02 923.035,270.02C922.857,270.02 922.717,269.966 922.615,269.859ZM926.255,264.952C927.757,264.952 928.509,264.294 928.509,262.978C928.509,261.68 927.757,261.032 926.255,261.032L923.609,261.032L923.609,264.952L926.255,264.952Z" style="fill-rule:nonzero;"/><path d="M932.415,269.054C931.752,268.382 931.421,267.392 931.421,266.086L931.421,260.598C931.421,260.42 931.472,260.278 931.575,260.171C931.677,260.063 931.817,260.01 931.995,260.01C932.163,260.01 932.298,260.063 932.401,260.171C932.503,260.278 932.555,260.42 932.555,260.598L932.555,266.184C932.555,267.145 932.79,267.868 933.262,268.354C933.733,268.839 934.426,269.082 935.341,269.082C936.255,269.082 936.946,268.839 937.413,268.354C937.879,267.868 938.113,267.145 938.113,266.184L938.113,260.598C938.113,260.42 938.166,260.278 938.274,260.171C938.381,260.063 938.519,260.01 938.687,260.01C938.864,260.01 939.004,260.063 939.107,260.171C939.209,260.278 939.261,260.42 939.261,260.598L939.261,266.086C939.261,267.383 938.927,268.37 938.26,269.047C937.592,269.723 936.619,270.062 935.341,270.062C934.053,270.062 933.077,269.726 932.415,269.054Z" style="fill-rule:nonzero;"/><path d="M950.951,265.666L950.951,269.46C950.951,269.637 950.902,269.775 950.804,269.873C950.706,269.971 950.568,270.02 950.391,270.02C950.213,270.02 950.073,269.971 949.971,269.873C949.868,269.775 949.817,269.637 949.817,269.46L949.817,265.736C949.817,265.101 949.693,264.639 949.446,264.35C949.198,264.06 948.804,263.916 948.263,263.916C947.637,263.916 947.138,264.107 946.765,264.49C946.391,264.872 946.205,265.39 946.205,266.044L946.205,269.46C946.205,269.637 946.156,269.775 946.058,269.873C945.96,269.971 945.822,270.02 945.645,270.02C945.467,270.02 945.327,269.971 945.225,269.873C945.122,269.775 945.071,269.637 945.071,269.46L945.071,263.552C945.071,263.384 945.122,263.248 945.225,263.146C945.327,263.043 945.467,262.992 945.645,262.992C945.813,262.992 945.946,263.043 946.044,263.146C946.142,263.248 946.191,263.379 946.191,263.538L946.191,264.252C946.415,263.832 946.727,263.512 947.129,263.293C947.53,263.073 947.987,262.964 948.501,262.964C950.134,262.964 950.951,263.864 950.951,265.666Z" style="fill-rule:nonzero;"/></g></g></svg>