<?xml version="1.0" encoding="UTF-8" standalone="no"?><!DOCTYPE svg PUBLIC "-//W3C//DTD SVG 1.1//EN" "http://www.w3.org/Graphics/SVG/1.1/DTD/svg11.dtd"><svg width="40px" height="11px" version="1.1" xmlns="http://www.w3.org/2000/svg" xmlns:xlink="http://www.w3.org/1999/xlink" xml:space="preserve" xmlns:serif="http://www.serif.com/" style="fill-rule:evenodd;clip-rule:evenodd;stroke-linejoin:round;stroke-miterlimit:1.41421;"><g transform="matrix(1,0,0,1,-925,-203)"><g transform="matrix(1,0,0,1,13.4444,-56.9677)"><path d="M914.523,269.453C913.841,269.047 913.316,268.463 912.948,267.703C912.579,266.942 912.395,266.044 912.395,265.008C912.395,263.981 912.579,263.087 912.948,262.327C913.316,261.566 913.841,260.983 914.523,260.577C915.204,260.171 916.011,259.968 916.945,259.968C917.57,259.968 918.16,260.068 918.716,260.269C919.271,260.469 919.754,260.756 920.165,261.13C920.314,261.27 920.389,261.433 920.389,261.62C920.389,261.75 920.351,261.865 920.277,261.963C920.202,262.061 920.113,262.11 920.011,262.11C919.899,262.11 919.763,262.058 919.605,261.956C919.129,261.582 918.697,261.321 918.31,261.172C917.922,261.022 917.477,260.948 916.973,260.948C915.89,260.948 915.057,261.3 914.474,262.005C913.89,262.709 913.599,263.71 913.599,265.008C913.599,266.314 913.89,267.32 914.474,268.025C915.057,268.729 915.89,269.082 916.973,269.082C917.467,269.082 917.911,269.007 918.303,268.858C918.695,268.708 919.129,268.447 919.605,268.074C919.763,267.971 919.899,267.92 920.011,267.92C920.113,267.92 920.202,267.966 920.277,268.06C920.351,268.153 920.389,268.27 920.389,268.41C920.389,268.596 920.314,268.76 920.165,268.9C919.754,269.273 919.271,269.56 918.716,269.761C918.16,269.961 917.57,270.062 916.945,270.062C916.011,270.062 915.204,269.859 914.523,269.453Z" style="fill-rule:nonzero;"/><path d="M922.391,269.859C922.288,269.751 922.237,269.609 922.237,269.432L922.237,260.64C922.237,260.472 922.29,260.336 922.398,260.234C922.505,260.131 922.647,260.08 922.825,260.08L926.143,260.08C927.179,260.08 927.984,260.332 928.558,260.836C929.132,261.34 929.419,262.054 929.419,262.978C929.419,263.902 929.129,264.62 928.551,265.134C927.972,265.647 927.169,265.904 926.143,265.904L923.385,265.904L923.385,269.432C923.385,269.609 923.333,269.751 923.231,269.859C923.128,269.966 922.988,270.02 922.811,270.02C922.633,270.02 922.493,269.966 922.391,269.859ZM926.031,264.952C927.533,264.952 928.285,264.294 928.285,262.978C928.285,261.68 927.533,261.032 926.031,261.032L923.385,261.032L923.385,264.952L926.031,264.952Z" style="fill-rule:nonzero;"/><path d="M932.191,269.054C931.528,268.382 931.197,267.392 931.197,266.086L931.197,260.598C931.197,260.42 931.248,260.278 931.351,260.171C931.453,260.063 931.593,260.01 931.771,260.01C931.939,260.01 932.074,260.063 932.177,260.171C932.279,260.278 932.331,260.42 932.331,260.598L932.331,266.184C932.331,267.145 932.566,267.868 933.038,268.354C933.509,268.839 934.202,269.082 935.117,269.082C936.031,269.082 936.722,268.839 937.189,268.354C937.655,267.868 937.889,267.145 937.889,266.184L937.889,260.598C937.889,260.42 937.942,260.278 938.05,260.171C938.157,260.063 938.295,260.01 938.463,260.01C938.64,260.01 938.78,260.063 938.883,260.171C938.985,260.278 939.037,260.42 939.037,260.598L939.037,266.086C939.037,267.383 938.703,268.37 938.036,269.047C937.368,269.723 936.395,270.062 935.117,270.062C933.829,270.062 932.853,269.726 932.191,269.054Z" style="fill-rule:nonzero;"/><path d="M951.301,269.11C951.394,269.194 951.441,269.31 951.441,269.46C951.441,269.786 951.263,269.95 950.909,269.95L945.421,269.95C945.262,269.95 945.131,269.901 945.029,269.803C944.926,269.705 944.875,269.586 944.875,269.446C944.875,269.268 944.94,269.114 945.071,268.984L948.445,265.274C948.911,264.751 949.25,264.282 949.46,263.867C949.67,263.451 949.775,263.034 949.775,262.614C949.775,262.072 949.618,261.657 949.306,261.368C948.993,261.078 948.552,260.934 947.983,260.934C947.535,260.934 947.105,261.015 946.695,261.179C946.284,261.342 945.873,261.592 945.463,261.928C945.323,262.04 945.192,262.096 945.071,262.096C944.968,262.096 944.879,262.047 944.805,261.949C944.73,261.851 944.693,261.732 944.693,261.592C944.693,261.396 944.767,261.237 944.917,261.116C945.299,260.761 945.766,260.481 946.317,260.276C946.867,260.07 947.432,259.968 948.011,259.968C948.897,259.968 949.604,260.201 950.132,260.668C950.659,261.134 950.923,261.764 950.923,262.558C950.923,263.127 950.794,263.673 950.538,264.196C950.281,264.718 949.859,265.302 949.271,265.946L946.471,268.984L950.909,268.984C951.077,268.984 951.207,269.026 951.301,269.11Z" style="fill-rule:nonzero;"/></g></g></svg>