<?xml version="1.0" encoding="UTF-8" standalone="no"?><!DOCTYPE svg PUBLIC "-//W3C//DTD SVG 1.1//EN" "http://www.w3.org/Graphics/SVG/1.1/DTD/svg11.dtd"><svg width="40px" height="11px" version="1.1" xmlns="http://www.w3.org/2000/svg" xmlns:xlink="http://www.w3.org/1999/xlink" xml:space="preserve" xmlns:serif="http://www.serif.com/" style="fill-rule:evenodd;clip-rule:evenodd;stroke-linejoin:round;stroke-miterlimit:1.41421;"><g transform="matrix(1,0,0,1,-925,-262)"><g transform="matrix(1,0,0,1,13.4444,2.03232)"><path d="M914.523,269.453C913.841,269.047 913.316,268.463 912.948,267.703C912.579,266.942 912.395,266.044 912.395,265.008C912.395,263.981 912.579,263.087 912.948,262.327C913.316,261.566 913.841,260.983 914.523,260.577C915.204,260.171 916.011,259.968 916.945,259.968C917.57,259.968 918.16,260.068 918.716,260.269C919.271,260.469 919.754,260.756 920.165,261.13C920.314,261.27 920.389,261.433 920.389,261.62C920.389,261.75 920.351,261.865 920.277,261.963C920.202,262.061 920.113,262.11 920.011,262.11C919.899,262.11 919.763,262.058 919.605,261.956C919.129,261.582 918.697,261.321 918.31,261.172C917.922,261.022 917.477,260.948 916.973,260.948C915.89,260.948 915.057,261.3 914.474,262.005C913.89,262.709 913.599,263.71 913.599,265.008C913.599,266.314 913.89,267.32 914.474,268.025C915.057,268.729 915.89,269.082 916.973,269.082C917.467,269.082 917.911,269.007 918.303,268.858C918.695,268.708 919.129,268.447 919.605,268.074C919.763,267.971 919.899,267.92 920.011,267.92C920.113,267.92 920.202,267.966 920.277,268.06C920.351,268.153 920.389,268.27 920.389,268.41C920.389,268.596 920.314,268.76 920.165,268.9C919.754,269.273 919.271,269.56 918.716,269.761C918.16,269.961 917.57,270.062 916.945,270.062C916.011,270.062 915.204,269.859 914.523,269.453Z" style="fill-rule:nonzero;"/><path d="M922.391,269.859C922.288,269.751 922.237,269.609 922.237,269.432L922.237,260.64C922.237,260.472 922.29,260.336 922.398,260.234C922.505,260.131 922.647,260.08 922.825,260.08L926.143,260.08C927.179,260.08 927.984,260.332 928.558,260.836C929.132,261.34 929.419,262.054 929.419,262.978C929.419,263.902 929.129,264.62 928.551,265.134C927.972,265.647 927.169,265.904 926.143,265.904L923.385,265.904L923.385,269.432C923.385,269.609 923.333,269.751 923.231,269.859C923.128,269.966 922.988,270.02 922.811,270.02C922.633,270.02 922.493,269.966 922.391,269.859ZM926.031,264.952C927.533,264.952 928.285,264.294 928.285,262.978C928.285,261.68 927.533,261.032 926.031,261.032L923.385,261.032L923.385,264.952L926.031,264.952Z" style="fill-rule:nonzero;"/><path d="M932.191,269.054C931.528,268.382 931.197,267.392 931.197,266.086L931.197,260.598C931.197,260.42 931.248,260.278 931.351,260.171C931.453,260.063 931.593,260.01 931.771,260.01C931.939,260.01 932.074,260.063 932.177,260.171C932.279,260.278 932.331,260.42 932.331,260.598L932.331,266.184C932.331,267.145 932.566,267.868 933.038,268.354C933.509,268.839 934.202,269.082 935.117,269.082C936.031,269.082 936.722,268.839 937.189,268.354C937.655,267.868 937.889,267.145 937.889,266.184L937.889,260.598C937.889,260.42 937.942,260.278 938.05,260.171C938.157,260.063 938.295,260.01 938.463,260.01C938.64,260.01 938.78,260.063 938.883,260.171C938.985,260.278 939.037,260.42 939.037,260.598L939.037,266.086C939.037,267.383 938.703,268.37 938.036,269.047C937.368,269.723 936.395,270.062 935.117,270.062C933.829,270.062 932.853,269.726 932.191,269.054Z" style="fill-rule:nonzero;"/><path d="M951.077,269.11C951.17,269.194 951.217,269.31 951.217,269.46C951.217,269.618 951.172,269.74 951.084,269.824C950.995,269.908 950.862,269.95 950.685,269.95L946.051,269.95C945.873,269.95 945.74,269.908 945.652,269.824C945.563,269.74 945.519,269.618 945.519,269.46C945.519,269.31 945.565,269.194 945.659,269.11C945.752,269.026 945.883,268.984 946.051,268.984L947.787,268.984L947.787,261.48L946.261,262.474C946.186,262.52 946.111,262.544 946.037,262.544C945.906,262.544 945.792,262.483 945.694,262.362C945.596,262.24 945.547,262.11 945.547,261.97C945.547,261.774 945.621,261.634 945.771,261.55L947.899,260.164C948.057,260.061 948.221,260.01 948.389,260.01C948.547,260.01 948.678,260.061 948.781,260.164C948.883,260.266 948.935,260.411 948.935,260.598L948.935,268.984L950.685,268.984C950.853,268.984 950.983,269.026 951.077,269.11Z" style="fill-rule:nonzero;"/></g></g></svg>