<?xml version="1.0" encoding="UTF-8" standalone="no"?><!DOCTYPE svg PUBLIC "-//W3C//DTD SVG 1.1//EN" "http://www.w3.org/Graphics/SVG/1.1/DTD/svg11.dtd"><svg width="40px" height="11px" version="1.1" xmlns="http://www.w3.org/2000/svg" xmlns:xlink="http://www.w3.org/1999/xlink" xml:space="preserve" xmlns:serif="http://www.serif.com/" style="fill-rule:evenodd;clip-rule:evenodd;stroke-linejoin:round;stroke-miterlimit:1.41421;"><g transform="matrix(1,0,0,1,-925,-149)"><g transform="matrix(1,0,0,1,13.4444,-110.968)"><path d="M914.523,269.453C913.841,269.047 913.316,268.463 912.948,267.703C912.579,266.942 912.395,266.044 912.395,265.008C912.395,263.981 912.579,263.087 912.948,262.327C913.316,261.566 913.841,260.983 914.523,260.577C915.204,260.171 916.011,259.968 916.945,259.968C917.57,259.968 918.16,260.068 918.716,260.269C919.271,260.469 919.754,260.756 920.165,261.13C920.314,261.27 920.389,261.433 920.389,261.62C920.389,261.75 920.351,261.865 920.277,261.963C920.202,262.061 920.113,262.11 920.011,262.11C919.899,262.11 919.763,262.058 919.605,261.956C919.129,261.582 918.697,261.321 918.31,261.172C917.922,261.022 917.477,260.948 916.973,260.948C915.89,260.948 915.057,261.3 914.474,262.005C913.89,262.709 913.599,263.71 913.599,265.008C913.599,266.314 913.89,267.32 914.474,268.025C915.057,268.729 915.89,269.082 916.973,269.082C917.467,269.082 917.911,269.007 918.303,268.858C918.695,268.708 919.129,268.447 919.605,268.074C919.763,267.971 919.899,267.92 920.011,267.92C920.113,267.92 920.202,267.966 920.277,268.06C920.351,268.153 920.389,268.27 920.389,268.41C920.389,268.596 920.314,268.76 920.165,268.9C919.754,269.273 919.271,269.56 918.716,269.761C918.16,269.961 917.57,270.062 916.945,270.062C916.011,270.062 915.204,269.859 914.523,269.453Z" style="fill-rule:nonzero;"/><path d="M922.391,269.859C922.288,269.751 922.237,269.609 922.237,269.432L922.237,260.64C922.237,260.472 922.29,260.336 922.398,260.234C922.505,260.131 922.647,260.08 922.825,260.08L926.143,260.08C927.179,260.08 927.984,260.332 928.558,260.836C929.132,261.34 929.419,262.054 929.419,262.978C929.419,263.902 929.129,264.62 928.551,265.134C927.972,265.647 927.169,265.904 926.143,265.904L923.385,265.904L923.385,269.432C923.385,269.609 923.333,269.751 923.231,269.859C923.128,269.966 922.988,270.02 922.811,270.02C922.633,270.02 922.493,269.966 922.391,269.859ZM926.031,264.952C927.533,264.952 928.285,264.294 928.285,262.978C928.285,261.68 927.533,261.032 926.031,261.032L923.385,261.032L923.385,264.952L926.031,264.952Z" style="fill-rule:nonzero;"/><path d="M932.191,269.054C931.528,268.382 931.197,267.392 931.197,266.086L931.197,260.598C931.197,260.42 931.248,260.278 931.351,260.171C931.453,260.063 931.593,260.01 931.771,260.01C931.939,260.01 932.074,260.063 932.177,260.171C932.279,260.278 932.331,260.42 932.331,260.598L932.331,266.184C932.331,267.145 932.566,267.868 933.038,268.354C933.509,268.839 934.202,269.082 935.117,269.082C936.031,269.082 936.722,268.839 937.189,268.354C937.655,267.868 937.889,267.145 937.889,266.184L937.889,260.598C937.889,260.42 937.942,260.278 938.05,260.171C938.157,260.063 938.295,260.01 938.463,260.01C938.64,260.01 938.78,260.063 938.883,260.171C938.985,260.278 939.037,260.42 939.037,260.598L939.037,266.086C939.037,267.383 938.703,268.37 938.036,269.047C937.368,269.723 936.395,270.062 935.117,270.062C933.829,270.062 932.853,269.726 932.191,269.054Z" style="fill-rule:nonzero;"/><path d="M950.678,265.75C950.99,266.16 951.147,266.669 951.147,267.276C951.147,268.134 950.857,268.811 950.279,269.306C949.7,269.8 948.911,270.048 947.913,270.048C947.306,270.048 946.725,269.945 946.17,269.74C945.614,269.534 945.145,269.254 944.763,268.9C944.613,268.76 944.539,268.601 944.539,268.424C944.539,268.284 944.576,268.167 944.651,268.074C944.725,267.98 944.814,267.934 944.917,267.934C945.047,267.934 945.178,267.985 945.309,268.088C945.738,268.433 946.158,268.685 946.569,268.844C946.979,269.002 947.423,269.082 947.899,269.082C948.589,269.082 949.114,268.923 949.474,268.606C949.833,268.288 950.013,267.831 950.013,267.234C950.013,266.03 949.257,265.428 947.745,265.428L947.003,265.428C946.853,265.428 946.734,265.379 946.646,265.281C946.557,265.183 946.513,265.068 946.513,264.938C946.513,264.807 946.557,264.695 946.646,264.602C946.734,264.508 946.853,264.462 947.003,264.462L947.521,264.462C948.249,264.462 948.809,264.301 949.201,263.979C949.593,263.657 949.789,263.192 949.789,262.586C949.789,262.054 949.63,261.645 949.313,261.361C948.995,261.076 948.547,260.934 947.969,260.934C947.53,260.934 947.105,261.015 946.695,261.179C946.284,261.342 945.873,261.592 945.463,261.928C945.332,262.03 945.201,262.082 945.071,262.082C944.968,262.082 944.879,262.035 944.805,261.942C944.73,261.848 944.693,261.732 944.693,261.592C944.693,261.414 944.767,261.256 944.917,261.116C945.299,260.761 945.764,260.481 946.31,260.276C946.856,260.07 947.418,259.968 947.997,259.968C948.893,259.968 949.604,260.194 950.132,260.647C950.659,261.099 950.923,261.708 950.923,262.474C950.923,263.043 950.78,263.54 950.496,263.965C950.211,264.389 949.817,264.695 949.313,264.882C949.91,265.05 950.365,265.339 950.678,265.75Z" style="fill-rule:nonzero;"/></g></g></svg>