<?xml version="1.0" encoding="UTF-8"?>
<svg width="140px" height="180px" viewBox="0 0 140 180" version="1.1" xmlns="http://www.w3.org/2000/svg" xmlns:xlink="http://www.w3.org/1999/xlink">
    <!-- Generator: Sketch 50 (54983) - http://www.bohemiancoding.com/sketch -->
    <title>Group 56 Copy</title>
    <desc>Created with Sketch.</desc>
    <defs></defs>
    <g id="Page-2" stroke="none" stroke-width="1" fill="none" fill-rule="evenodd">
        <g id="Group-56-Copy">
            <rect id="Rectangle-24" fill="#636569" x="0" y="0" width="140" height="180" rx="12"></rect>
            <g id="Files-Copy-5" transform="translate(36.000000, 50.000000)">
                <path d="M42.3832172,3.82876712 L24.5530362,3.82876712 C24.5530362,3.82876712 24.2607381,3.82876712 24.2607381,3.82876712 L19.5839693,0.589041096 C18.9993732,0.294520548 18.1224791,0 17.537883,0 L7.89204735,0 C3.5075766,0 0,3.53424658 0,7.95205479 L0,35.0479452 C0,39.4657534 3.5075766,43 7.89204735,43 L42.0909192,43 C46.4753899,43 49.9829665,39.4657534 49.9829665,35.0479452 L49.9829665,11.7808219 C50.2752646,7.3630137 46.767688,3.82876712 42.3832172,3.82876712" id="Shape" fill="#636569" fill-rule="nonzero"></path>
                <path d="M8.1843454,2.39658877 L17.830181,2.39658877 C17.830181,2.39658877 17.830181,2.39658877 18.1224791,2.39658877 L22.7992479,5.6363148 C23.383844,6.2253559 24.2607381,6.2253559 25.1376323,6.2253559 L42.9678133,6.2253559 C45.3061977,6.2253559 47.3522841,8.28699973 47.3522841,10.6431641 C46.4753899,10.054123 45.5984958,9.46508192 44.4293036,9.46508192 L25.1376323,9.46508192 C24.5530362,9.46508192 23.9684401,9.75960247 23.383844,10.054123 L18.9993732,13.5883696 C18.7070752,13.8828901 18.4147771,13.8828901 18.1224791,13.8828901 L7.0151532,13.8828901 C5.845961,13.8828901 4.6767688,14.1774107 4.0921727,15.0609723 L4.0921727,7.10891754 C3.79987465,4.45823261 5.845961,2.39658877 8.1843454,2.39658877" id="Path" fill="#FFFFFF"></path>
                <path d="M42.3832172,39.1712329 L8.1843454,39.1712329 C5.55366295,39.1712329 3.79987465,37.109589 3.79987465,34.7534247 L3.79987465,19.1438356 C4.0921727,17.6712329 5.2613649,16.4931507 6.72285515,16.4931507 L17.830181,16.4931507 C18.4147771,16.4931507 18.9993732,16.1986301 19.5839693,15.9041096 L23.9684401,12.369863 C24.2607381,12.0753425 24.5530362,12.0753425 24.5530362,12.0753425 L43.8447075,12.0753425 C45.3061977,12.0753425 46.767688,13.2534247 46.767688,14.7260274 L46.767688,34.7534247 C47.059986,37.109589 45.0138997,39.1712329 42.3832172,39.1712329" id="Path" fill="#FFFFFF"></path>
            </g>
            <g id="Email-Copy-9" transform="translate(59.000000, 80.000000)">
                <path d="M45.9677419,0 L45.4301075,0 L4.56989247,0 L4.03225806,0 C1.61290323,0 0,1.88461538 0,4.30769231 C0,4.30769231 0,9.15384615 0,18.8461538 L0,30.6923077 C0,33.1153846 1.88172043,35 4.30107527,35 L25,35 L45.6989247,35 C48.1182796,35 50,33.1153846 50,30.6923077 L50,18.8461538 L50,4.30769231 C50,1.88461538 48.3870968,0 45.9677419,0 Z" id="Shape" fill="#636569" fill-rule="nonzero"></path>
                <path d="M25,30.4230769 L13.9784946,30.4230769 L5.37634409,30.4230769 L16.9354839,17.5 L19.6236559,19.9230769 C19.6236559,19.9230769 21.7741935,21.8076923 25,21.8076923 C28.2258065,21.8076923 30.3763441,20.1923077 30.3763441,19.9230769 L33.0645161,17.5 L44.6236559,30.4230769 L36.0215054,30.4230769 L25,30.4230769 Z" id="Path" fill="#FFFFFF"></path>
                <path d="M3.33333333,5.83333333 L14.3548387,16.0641026 L9.24731183,21.9871795 C9.24731183,21.9871795 7.27598566,24.2307692 3.33333333,28.7179487 L3.33333333,19.025641 L3.33333333,5.83333333 Z" id="Path" fill="#FFFFFF"></path>
                <path d="M39.7849462,21.8076923 C39.7849462,21.8076923 38.0824373,19.8333333 34.6774194,15.8846154 L45.6989247,5.65384615 L45.6989247,18.8461538 L45.6989247,28.5384615 L39.7849462,21.8076923 Z" id="Path" fill="#FFFFFF"></path>
                <path d="M28.4946237,18.3076923 C28.4946237,18.3076923 27.1505376,19.6538462 25,19.6538462 C22.8494624,19.6538462 21.5053763,18.3076923 21.5053763,18.3076923 L6.1827957,4.30769231 L43.8172043,4.30769231 L28.4946237,18.3076923 Z" id="Path" fill="#FFFFFF"></path>
            </g>
        </g>
    </g>
</svg>