<?xml version="1.0" encoding="UTF-8"?>
<svg width="552px" height="100px" viewBox="0 0 552 100" version="1.1" xmlns="http://www.w3.org/2000/svg" xmlns:xlink="http://www.w3.org/1999/xlink">
    <!-- Generator: Sketch 50.2 (55047) - http://www.bohemiancoding.com/sketch -->
    <title>Group 55 Copy 4</title>
    <desc>Created with Sketch.</desc>
    <defs></defs>
    <g id="Page-2" stroke="none" stroke-width="1" fill="none" fill-rule="evenodd">
        <g id="Group-48" transform="translate(-2263.000000, -1143.000000)">
            <g id="Group-55-Copy-4" transform="translate(2263.000000, 1143.000000)">
                <rect id="Rectangle-25" fill="#FAFAFA" x="0" y="0" width="20" height="100" rx="10"></rect>
                <rect id="Rectangle-25-Copy" fill="#FAFAFA" x="28" y="0" width="20" height="100" rx="10"></rect>
                <rect id="Rectangle-25-Copy-2" fill="#FAFAFA" x="56" y="0" width="20" height="100" rx="10"></rect>
                <rect id="Rectangle-25-Copy-3" fill="#FAFAFA" x="84" y="0" width="20" height="100" rx="10"></rect>
                <rect id="Rectangle-25-Copy-4" fill="#FAFAFA" x="112" y="0" width="20" height="100" rx="10"></rect>
                <rect id="Rectangle-25-Copy-9" fill="#FAFAFA" x="0" y="0" width="20" height="100" rx="10"></rect>
                <rect id="Rectangle-25-Copy-8" fill="#FAFAFA" x="28" y="0" width="20" height="100" rx="10"></rect>
                <rect id="Rectangle-25-Copy-7" fill="#FAFAFA" x="56" y="0" width="20" height="100" rx="10"></rect>
                <rect id="Rectangle-25-Copy-6" fill="#FAFAFA" x="84" y="0" width="20" height="100" rx="10"></rect>
                <rect id="Rectangle-25-Copy-5" fill="#FAFAFA" x="112" y="0" width="20" height="100" rx="10"></rect>
                <rect id="Rectangle-25" fill="#FAFAFA" x="140" y="0" width="20" height="100" rx="10"></rect>
                <rect id="Rectangle-25-Copy" fill="#FAFAFA" x="168" y="0" width="20" height="100" rx="10"></rect>
                <rect id="Rectangle-25-Copy-2" fill="#FAFAFA" x="196" y="0" width="20" height="100" rx="10"></rect>
                <rect id="Rectangle-25-Copy-3" fill="#FAFAFA" x="224" y="0" width="20" height="100" rx="10"></rect>
                <rect id="Rectangle-25-Copy-4" fill="#FAFAFA" x="252" y="0" width="20" height="100" rx="10"></rect>
                <rect id="Rectangle-25-Copy-9" fill="#FAFAFA" x="140" y="0" width="20" height="100" rx="10"></rect>
                <rect id="Rectangle-25-Copy-8" fill="#FAFAFA" x="168" y="0" width="20" height="100" rx="10"></rect>
                <rect id="Rectangle-25-Copy-7" fill="#FAFAFA" x="196" y="0" width="20" height="100" rx="10"></rect>
                <rect id="Rectangle-25-Copy-6" fill="#FAFAFA" x="224" y="0" width="20" height="100" rx="10"></rect>
                <rect id="Rectangle-25-Copy-5" fill="#FAFAFA" x="252" y="0" width="20" height="100" rx="10"></rect>
                <rect id="Rectangle-25" fill="#FAFAFA" x="280" y="0" width="20" height="100" rx="10"></rect>
                <rect id="Rectangle-25-Copy" fill="#FAFAFA" x="308" y="0" width="20" height="100" rx="10"></rect>
                <rect id="Rectangle-25-Copy-2" fill="#FAFAFA" x="336" y="0" width="20" height="100" rx="10"></rect>
                <rect id="Rectangle-25-Copy-3" fill="#FAFAFA" x="364" y="0" width="20" height="100" rx="10"></rect>
                <rect id="Rectangle-25-Copy-4" fill="#FAFAFA" x="392" y="0" width="20" height="100" rx="10"></rect>
                <rect id="Rectangle-25-Copy-9" fill="#FAFAFA" x="280" y="0" width="20" height="100" rx="10"></rect>
                <rect id="Rectangle-25-Copy-8" fill="#FAFAFA" x="308" y="0" width="20" height="100" rx="10"></rect>
                <rect id="Rectangle-25-Copy-7" fill="#FAFAFA" x="336" y="0" width="20" height="100" rx="10"></rect>
                <rect id="Rectangle-25-Copy-6" fill="#FAFAFA" x="364" y="0" width="20" height="100" rx="10"></rect>
                <rect id="Rectangle-25-Copy-5" fill="#FAFAFA" x="392" y="0" width="20" height="100" rx="10"></rect>
                <rect id="Rectangle-25" fill="#FAFAFA" x="420" y="0" width="20" height="100" rx="10"></rect>
                <rect id="Rectangle-25-Copy" fill="#FAFAFA" x="448" y="0" width="20" height="100" rx="10"></rect>
                <rect id="Rectangle-25-Copy-2" fill="#FAFAFA" x="476" y="0" width="20" height="100" rx="10"></rect>
                <rect id="Rectangle-25-Copy-3" fill="#FAFAFA" x="504" y="0" width="20" height="100" rx="10"></rect>
                <rect id="Rectangle-25-Copy-4" fill="#FAFAFA" x="532" y="0" width="20" height="100" rx="10"></rect>
                <rect id="Rectangle-25-Copy-9" fill="#FAFAFA" x="420" y="0" width="20" height="100" rx="10"></rect>
                <rect id="Rectangle-25-Copy-8" fill="#FAFAFA" x="448" y="0" width="20" height="100" rx="10"></rect>
                <rect id="Rectangle-25-Copy-7" fill="#FAFAFA" x="476" y="0" width="20" height="100" rx="10"></rect>
                <rect id="Rectangle-25-Copy-6" fill="#FAFAFA" x="504" y="0" width="20" height="100" rx="10"></rect>
                <rect id="Rectangle-25-Copy-5" fill="#FAFAFA" x="532" y="0" width="20" height="100" rx="10"></rect>
                <rect id="Rectangle-25" fill="#FAFAFA" x="0" y="0" width="20" height="100" rx="10"></rect>
                <rect id="Rectangle-25-Copy" fill="#FAFAFA" x="28" y="0" width="20" height="100" rx="10"></rect>
                <rect id="Rectangle-25-Copy-2" fill="#FAFAFA" x="56" y="0" width="20" height="100" rx="10"></rect>
                <rect id="Rectangle-25-Copy-3" fill="#FAFAFA" x="84" y="0" width="20" height="100" rx="10"></rect>
                <rect id="Rectangle-25-Copy-4" fill="#FAFAFA" x="112" y="0" width="20" height="100" rx="10"></rect>
                <rect id="Rectangle-25-Copy-9" fill="#E6E7E8" x="0" y="0" width="20" height="100" rx="10"></rect>
                <rect id="Rectangle-25-Copy-8" fill="#E6E7E8" x="28" y="0" width="20" height="100" rx="10"></rect>
                <rect id="Rectangle-25-Copy-7" fill="#E6E7E8" x="56" y="0" width="20" height="100" rx="10"></rect>
                <rect id="Rectangle-25-Copy-6" fill="#E6E7E8" x="84" y="0" width="20" height="100" rx="10"></rect>
                <rect id="Rectangle-25-Copy-5" fill="#E6E7E8" x="112" y="0" width="20" height="100" rx="10"></rect>
                <rect id="Rectangle-25" fill="#FAFAFA" x="140" y="0" width="20" height="100" rx="10"></rect>
                <rect id="Rectangle-25-Copy" fill="#FAFAFA" x="168" y="0" width="20" height="100" rx="10"></rect>
                <rect id="Rectangle-25-Copy-2" fill="#FAFAFA" x="196" y="0" width="20" height="100" rx="10"></rect>
                <rect id="Rectangle-25-Copy-3" fill="#FAFAFA" x="224" y="0" width="20" height="100" rx="10"></rect>
                <rect id="Rectangle-25-Copy-4" fill="#FAFAFA" x="252" y="0" width="20" height="100" rx="10"></rect>
                <rect id="Rectangle-25-Copy-9" fill="#E6E7E8" x="140" y="0" width="20" height="100" rx="10"></rect>
                <rect id="Rectangle-25-Copy-8" fill="#E6E7E8" x="168" y="0" width="20" height="100" rx="10"></rect>
                <rect id="Rectangle-25-Copy-7" fill="#E6E7E8" x="196" y="0" width="20" height="100" rx="10"></rect>
                <rect id="Rectangle-25-Copy-6" fill="#E6E7E8" x="224" y="0" width="20" height="100" rx="10"></rect>
                <rect id="Rectangle-25-Copy-5" fill="#E6E7E8" x="252" y="0" width="20" height="100" rx="10"></rect>
                <rect id="Rectangle-25" fill="#FAFAFA" x="280" y="0" width="20" height="100" rx="10"></rect>
                <rect id="Rectangle-25-Copy" fill="#FAFAFA" x="308" y="0" width="20" height="100" rx="10"></rect>
                <rect id="Rectangle-25-Copy-2" fill="#FAFAFA" x="336" y="0" width="20" height="100" rx="10"></rect>
                <rect id="Rectangle-25-Copy-3" fill="#FAFAFA" x="364" y="0" width="20" height="100" rx="10"></rect>
                <rect id="Rectangle-25-Copy-4" fill="#FAFAFA" x="392" y="0" width="20" height="100" rx="10"></rect>
                <rect id="Rectangle-25-Copy-9" fill="#E6E7E8" x="280" y="0" width="20" height="100" rx="10"></rect>
                <rect id="Rectangle-25-Copy-8" fill="#E6E7E8" x="308" y="0" width="20" height="100" rx="10"></rect>
                <rect id="Rectangle-25-Copy-7" fill="#E6E7E8" x="336" y="0" width="20" height="100" rx="10"></rect>
                <rect id="Rectangle-25-Copy-6" fill="#E6E7E8" x="364" y="0" width="20" height="100" rx="10"></rect>
                <rect id="Rectangle-25-Copy-5" fill="#E6E7E8" x="392" y="0" width="20" height="100" rx="10"></rect>
                <rect id="Rectangle-25" fill="#FAFAFA" x="420" y="0" width="20" height="100" rx="10"></rect>
                <rect id="Rectangle-25-Copy" fill="#FAFAFA" x="448" y="0" width="20" height="100" rx="10"></rect>
                <rect id="Rectangle-25-Copy-2" fill="#FAFAFA" x="476" y="0" width="20" height="100" rx="10"></rect>
                <rect id="Rectangle-25-Copy-3" fill="#FAFAFA" x="504" y="0" width="20" height="100" rx="10"></rect>
                <rect id="Rectangle-25-Copy-4" fill="#FAFAFA" x="532" y="0" width="20" height="100" rx="10"></rect>
                <rect id="Rectangle-25-Copy-9" fill="#E6E7E8" x="420" y="0" width="20" height="100" rx="10"></rect>
                <rect id="Rectangle-25-Copy-8" fill="#E6E7E8" x="448" y="0" width="20" height="100" rx="10"></rect>
                <rect id="Rectangle-25-Copy-7" fill="#E6E7E8" x="476" y="0" width="20" height="100" rx="10"></rect>
                <rect id="Rectangle-25-Copy-6" fill="#E6E7E8" x="504" y="0" width="20" height="100" rx="10"></rect>
                <rect id="Rectangle-25-Copy-5" fill="#E6E7E8" x="532" y="0" width="20" height="100" rx="10"></rect>
            </g>
        </g>
    </g>
</svg>