<?xml version="1.0" encoding="UTF-8" standalone="no"?><!DOCTYPE svg PUBLIC "-//W3C//DTD SVG 1.1//EN" "http://www.w3.org/Graphics/SVG/1.1/DTD/svg11.dtd"><svg width="77px" height="27px" version="1.1" xmlns="http://www.w3.org/2000/svg" xmlns:xlink="http://www.w3.org/1999/xlink" xml:space="preserve" xmlns:serif="http://www.serif.com/" style="fill-rule:evenodd;clip-rule:evenodd;stroke-linejoin:round;stroke-miterlimit:1.41421;"><g transform="matrix(1,0,0,1,-372,-54)"><g transform="matrix(1,0,0,1,98.0573,-0.742824)"><path d="M292.639,64.592C292.536,64.484 292.485,64.342 292.485,64.165L292.485,55.373C292.485,55.205 292.538,55.069 292.646,54.967C292.753,54.864 292.895,54.813 293.073,54.813L296.391,54.813C297.427,54.813 298.232,55.065 298.806,55.569C299.38,56.073 299.667,56.787 299.667,57.711C299.667,58.635 299.377,59.353 298.799,59.867C298.22,60.38 297.417,60.637 296.391,60.637L293.633,60.637L293.633,64.165C293.633,64.342 293.581,64.484 293.479,64.592C293.376,64.699 293.236,64.753 293.059,64.753C292.881,64.753 292.741,64.699 292.639,64.592ZM296.279,59.685C297.781,59.685 298.533,59.027 298.533,57.711C298.533,56.413 297.781,55.765 296.279,55.765L293.633,55.765L293.633,59.685L296.279,59.685Z" style="fill-rule:nonzero;"/><path d="M306.541,60.385L306.541,64.193C306.541,64.361 306.492,64.496 306.394,64.599C306.296,64.701 306.163,64.753 305.995,64.753C305.827,64.753 305.691,64.701 305.589,64.599C305.486,64.496 305.435,64.361 305.435,64.193L305.435,63.521C305.257,63.922 304.987,64.232 304.623,64.452C304.259,64.671 303.839,64.781 303.363,64.781C302.924,64.781 302.52,64.692 302.152,64.515C301.783,64.337 301.491,64.09 301.277,63.773C301.062,63.455 300.955,63.105 300.955,62.723C300.955,62.209 301.085,61.81 301.347,61.526C301.608,61.241 302.037,61.036 302.635,60.91C303.232,60.784 304.063,60.721 305.127,60.721L305.435,60.721L305.435,60.259C305.435,59.699 305.32,59.288 305.092,59.027C304.863,58.765 304.492,58.635 303.979,58.635C303.344,58.635 302.7,58.807 302.047,59.153C301.795,59.311 301.617,59.391 301.515,59.391C301.403,59.391 301.309,59.349 301.235,59.265C301.16,59.181 301.123,59.073 301.123,58.943C301.123,58.812 301.162,58.698 301.242,58.6C301.321,58.502 301.449,58.401 301.627,58.299C301.953,58.112 302.324,57.965 302.74,57.858C303.155,57.75 303.568,57.697 303.979,57.697C305.687,57.697 306.541,58.593 306.541,60.385ZM304.896,63.318C305.255,62.94 305.435,62.452 305.435,61.855L305.435,61.449L305.183,61.449C304.361,61.449 303.736,61.484 303.307,61.554C302.877,61.624 302.572,61.74 302.39,61.904C302.208,62.067 302.117,62.307 302.117,62.625C302.117,62.989 302.25,63.29 302.516,63.528C302.782,63.766 303.115,63.885 303.517,63.885C304.077,63.885 304.536,63.696 304.896,63.318Z" style="fill-rule:nonzero;"/><path d="M309.74,64.347C309.25,64.057 308.872,63.647 308.606,63.115C308.34,62.583 308.207,61.967 308.207,61.267C308.207,60.567 308.344,59.946 308.62,59.405C308.895,58.863 309.28,58.443 309.775,58.145C310.269,57.846 310.839,57.697 311.483,57.697C311.837,57.697 312.19,57.746 312.54,57.844C312.89,57.942 313.195,58.084 313.457,58.271C313.625,58.383 313.744,58.492 313.814,58.6C313.884,58.707 313.919,58.826 313.919,58.957C313.919,59.087 313.884,59.195 313.814,59.279C313.744,59.363 313.653,59.405 313.541,59.405C313.475,59.405 313.405,59.386 313.331,59.349C313.256,59.311 313.193,59.274 313.142,59.237C313.09,59.199 313.055,59.176 313.037,59.167C312.794,59.008 312.563,58.882 312.344,58.789C312.124,58.695 311.856,58.649 311.539,58.649C310.857,58.649 310.328,58.88 309.95,59.342C309.572,59.804 309.383,60.445 309.383,61.267C309.383,62.088 309.572,62.723 309.95,63.171C310.328,63.619 310.857,63.843 311.539,63.843C311.856,63.843 312.129,63.796 312.358,63.703C312.586,63.609 312.817,63.483 313.051,63.325C313.153,63.259 313.251,63.203 313.345,63.157C313.438,63.11 313.517,63.087 313.583,63.087C313.685,63.087 313.772,63.129 313.842,63.213C313.912,63.297 313.947,63.404 313.947,63.535C313.947,63.656 313.914,63.766 313.849,63.864C313.783,63.962 313.662,64.071 313.485,64.193C313.223,64.37 312.908,64.512 312.54,64.62C312.171,64.727 311.8,64.781 311.427,64.781C310.792,64.781 310.23,64.636 309.74,64.347Z" style="fill-rule:nonzero;"/><path d="M320.989,64.235C320.989,64.375 320.94,64.496 320.842,64.599C320.744,64.701 320.625,64.753 320.485,64.753C320.363,64.753 320.237,64.697 320.107,64.585L316.453,61.435L316.453,64.193C316.453,64.37 316.399,64.508 316.292,64.606C316.184,64.704 316.051,64.753 315.893,64.753C315.725,64.753 315.587,64.704 315.48,64.606C315.372,64.508 315.319,64.37 315.319,64.193L315.319,55.303C315.319,55.125 315.372,54.988 315.48,54.89C315.587,54.792 315.725,54.743 315.893,54.743C316.051,54.743 316.184,54.792 316.292,54.89C316.399,54.988 316.453,55.125 316.453,55.303L316.453,60.987L319.799,57.921C319.911,57.809 320.037,57.753 320.177,57.753C320.317,57.753 320.438,57.804 320.541,57.907C320.643,58.009 320.695,58.131 320.695,58.271C320.695,58.429 320.629,58.569 320.499,58.691L317.741,61.155L320.765,63.787C320.914,63.927 320.989,64.076 320.989,64.235Z" style="fill-rule:nonzero;"/><path d="M327.737,63.227C327.811,63.311 327.849,63.418 327.849,63.549C327.849,63.782 327.685,63.997 327.359,64.193C327.023,64.389 326.668,64.536 326.295,64.634C325.921,64.732 325.557,64.781 325.203,64.781C324.148,64.781 323.315,64.468 322.704,63.843C322.092,63.217 321.787,62.354 321.787,61.253C321.787,60.553 321.922,59.934 322.193,59.398C322.463,58.861 322.844,58.443 323.334,58.145C323.824,57.846 324.381,57.697 325.007,57.697C325.893,57.697 326.598,57.986 327.121,58.565C327.643,59.143 327.905,59.927 327.905,60.917C327.905,61.103 327.867,61.239 327.793,61.323C327.718,61.407 327.597,61.449 327.429,61.449L322.921,61.449C323.005,63.054 323.765,63.857 325.203,63.857C325.567,63.857 325.879,63.808 326.141,63.71C326.402,63.612 326.682,63.479 326.981,63.311C327.223,63.171 327.387,63.101 327.471,63.101C327.573,63.101 327.662,63.143 327.737,63.227ZM323.586,59.139C323.226,59.512 323.014,60.039 322.949,60.721L326.911,60.721C326.892,60.03 326.719,59.5 326.393,59.132C326.066,58.763 325.609,58.579 325.021,58.579C324.423,58.579 323.945,58.765 323.586,59.139Z" style="fill-rule:nonzero;"/><path d="M333.169,64.305C333.169,64.463 333.11,64.582 332.994,64.662C332.877,64.741 332.702,64.771 332.469,64.753L332.091,64.725C331.344,64.669 330.793,64.445 330.439,64.053C330.084,63.661 329.907,63.068 329.907,62.275L329.907,58.761L328.969,58.761C328.81,58.761 328.686,58.721 328.598,58.642C328.509,58.562 328.465,58.457 328.465,58.327C328.465,58.187 328.509,58.075 328.598,57.991C328.686,57.907 328.81,57.865 328.969,57.865L329.907,57.865L329.907,56.283C329.907,56.105 329.958,55.968 330.061,55.87C330.163,55.772 330.303,55.723 330.481,55.723C330.649,55.723 330.784,55.772 330.887,55.87C330.989,55.968 331.041,56.105 331.041,56.283L331.041,57.865L332.595,57.865C332.744,57.865 332.863,57.907 332.952,57.991C333.04,58.075 333.085,58.187 333.085,58.327C333.085,58.457 333.04,58.562 332.952,58.642C332.863,58.721 332.744,58.761 332.595,58.761L331.041,58.761L331.041,62.331C331.041,62.844 331.146,63.215 331.356,63.444C331.566,63.672 331.881,63.801 332.301,63.829L332.679,63.857C333.005,63.885 333.169,64.034 333.169,64.305Z" style="fill-rule:nonzero;"/><path d="M280.76,68.897C280.862,68.999 280.914,69.13 280.914,69.289L280.914,78.193C280.914,78.361 280.862,78.496 280.76,78.599C280.657,78.701 280.517,78.753 280.34,78.753C280.162,78.753 280.025,78.701 279.927,78.599C279.829,78.496 279.78,78.361 279.78,78.193L279.78,77.437C279.574,77.866 279.273,78.197 278.877,78.431C278.48,78.664 278.016,78.781 277.484,78.781C276.886,78.781 276.359,78.631 275.902,78.333C275.444,78.034 275.09,77.616 274.838,77.08C274.586,76.543 274.46,75.92 274.46,75.211C274.46,74.511 274.586,73.895 274.838,73.363C275.09,72.831 275.444,72.42 275.902,72.131C276.359,71.841 276.886,71.697 277.484,71.697C278.016,71.697 278.48,71.813 278.877,72.047C279.273,72.28 279.574,72.611 279.78,73.041L279.78,69.289C279.78,69.121 279.829,68.988 279.927,68.89C280.025,68.792 280.162,68.743 280.34,68.743C280.517,68.743 280.657,68.794 280.76,68.897ZM279.241,77.164C279.6,76.711 279.78,76.069 279.78,75.239C279.78,74.408 279.6,73.769 279.241,73.321C278.881,72.873 278.37,72.649 277.708,72.649C277.045,72.649 276.529,72.873 276.161,73.321C275.792,73.769 275.608,74.399 275.608,75.211C275.608,76.041 275.792,76.688 276.161,77.15C276.529,77.612 277.045,77.843 277.708,77.843C278.37,77.843 278.881,77.616 279.241,77.164Z" style="fill-rule:nonzero;"/><path d="M283.175,78.606C283.067,78.508 283.014,78.37 283.014,78.193L283.014,72.285C283.014,72.107 283.067,71.97 283.175,71.872C283.282,71.774 283.42,71.725 283.588,71.725C283.756,71.725 283.891,71.774 283.994,71.872C284.096,71.97 284.148,72.107 284.148,72.285L284.148,78.193C284.148,78.379 284.096,78.519 283.994,78.613C283.891,78.706 283.756,78.753 283.588,78.753C283.42,78.753 283.282,78.704 283.175,78.606ZM283.042,70.059C282.902,69.928 282.832,69.755 282.832,69.541C282.832,69.335 282.902,69.167 283.042,69.037C283.182,68.906 283.364,68.841 283.588,68.841C283.812,68.841 283.994,68.906 284.134,69.037C284.274,69.167 284.344,69.335 284.344,69.541C284.344,69.755 284.274,69.928 284.134,70.059C283.994,70.189 283.812,70.255 283.588,70.255C283.364,70.255 283.182,70.189 283.042,70.059Z" style="fill-rule:nonzero;"/><path d="M287.333,78.627C286.945,78.524 286.602,78.379 286.304,78.193C286.136,78.081 286.017,77.976 285.947,77.878C285.877,77.78 285.842,77.661 285.842,77.521C285.842,77.399 285.877,77.299 285.947,77.22C286.017,77.14 286.108,77.101 286.22,77.101C286.332,77.101 286.495,77.171 286.71,77.311C286.99,77.479 287.267,77.612 287.543,77.71C287.818,77.808 288.161,77.857 288.572,77.857C289.076,77.857 289.468,77.768 289.748,77.591C290.028,77.413 290.168,77.157 290.168,76.821C290.168,76.615 290.116,76.45 290.014,76.324C289.911,76.198 289.734,76.086 289.482,75.988C289.23,75.89 288.861,75.789 288.376,75.687C287.554,75.509 286.966,75.271 286.612,74.973C286.257,74.674 286.08,74.268 286.08,73.755C286.08,73.353 286.192,72.999 286.416,72.691C286.64,72.383 286.95,72.14 287.347,71.963C287.743,71.785 288.194,71.697 288.698,71.697C289.062,71.697 289.414,71.746 289.755,71.844C290.095,71.942 290.396,72.079 290.658,72.257C290.975,72.481 291.134,72.714 291.134,72.957C291.134,73.078 291.096,73.181 291.022,73.265C290.947,73.349 290.858,73.391 290.756,73.391C290.644,73.391 290.476,73.311 290.252,73.153C289.99,72.985 289.743,72.854 289.51,72.761C289.276,72.667 288.987,72.621 288.642,72.621C288.203,72.621 287.851,72.719 287.585,72.915C287.319,73.111 287.186,73.372 287.186,73.699C287.186,73.904 287.235,74.07 287.333,74.196C287.431,74.322 287.594,74.434 287.823,74.532C288.051,74.63 288.38,74.725 288.81,74.819C289.444,74.959 289.937,75.113 290.287,75.281C290.637,75.449 290.886,75.654 291.036,75.897C291.185,76.139 291.26,76.447 291.26,76.821C291.26,77.409 291.012,77.882 290.518,78.242C290.023,78.601 289.37,78.781 288.558,78.781C288.128,78.781 287.72,78.729 287.333,78.627Z" style="fill-rule:nonzero;"/><path d="M298.33,74.385L298.33,78.193C298.33,78.361 298.281,78.496 298.183,78.599C298.085,78.701 297.952,78.753 297.784,78.753C297.616,78.753 297.48,78.701 297.378,78.599C297.275,78.496 297.224,78.361 297.224,78.193L297.224,77.521C297.046,77.922 296.776,78.232 296.412,78.452C296.048,78.671 295.628,78.781 295.152,78.781C294.713,78.781 294.309,78.692 293.941,78.515C293.572,78.337 293.28,78.09 293.066,77.773C292.851,77.455 292.744,77.105 292.744,76.723C292.744,76.209 292.874,75.81 293.136,75.526C293.397,75.241 293.826,75.036 294.424,74.91C295.021,74.784 295.852,74.721 296.916,74.721L297.224,74.721L297.224,74.259C297.224,73.699 297.109,73.288 296.881,73.027C296.652,72.765 296.281,72.635 295.768,72.635C295.133,72.635 294.489,72.807 293.836,73.153C293.584,73.311 293.406,73.391 293.304,73.391C293.192,73.391 293.098,73.349 293.024,73.265C292.949,73.181 292.912,73.073 292.912,72.943C292.912,72.812 292.951,72.698 293.031,72.6C293.11,72.502 293.238,72.401 293.416,72.299C293.742,72.112 294.113,71.965 294.529,71.858C294.944,71.75 295.357,71.697 295.768,71.697C297.476,71.697 298.33,72.593 298.33,74.385ZM296.685,77.318C297.044,76.94 297.224,76.452 297.224,75.855L297.224,75.449L296.972,75.449C296.15,75.449 295.525,75.484 295.096,75.554C294.666,75.624 294.361,75.74 294.179,75.904C293.997,76.067 293.906,76.307 293.906,76.625C293.906,76.989 294.039,77.29 294.305,77.528C294.571,77.766 294.904,77.885 295.306,77.885C295.866,77.885 296.325,77.696 296.685,77.318Z" style="fill-rule:nonzero;"/><path d="M301.473,78.627C301.085,78.524 300.742,78.379 300.444,78.193C300.276,78.081 300.157,77.976 300.087,77.878C300.017,77.78 299.982,77.661 299.982,77.521C299.982,77.399 300.017,77.299 300.087,77.22C300.157,77.14 300.248,77.101 300.36,77.101C300.472,77.101 300.635,77.171 300.85,77.311C301.13,77.479 301.407,77.612 301.683,77.71C301.958,77.808 302.301,77.857 302.712,77.857C303.216,77.857 303.608,77.768 303.888,77.591C304.168,77.413 304.308,77.157 304.308,76.821C304.308,76.615 304.256,76.45 304.154,76.324C304.051,76.198 303.874,76.086 303.622,75.988C303.37,75.89 303.001,75.789 302.516,75.687C301.694,75.509 301.106,75.271 300.752,74.973C300.397,74.674 300.22,74.268 300.22,73.755C300.22,73.353 300.332,72.999 300.556,72.691C300.78,72.383 301.09,72.14 301.487,71.963C301.883,71.785 302.334,71.697 302.838,71.697C303.202,71.697 303.554,71.746 303.895,71.844C304.235,71.942 304.536,72.079 304.798,72.257C305.115,72.481 305.274,72.714 305.274,72.957C305.274,73.078 305.236,73.181 305.162,73.265C305.087,73.349 304.998,73.391 304.896,73.391C304.784,73.391 304.616,73.311 304.392,73.153C304.13,72.985 303.883,72.854 303.65,72.761C303.416,72.667 303.127,72.621 302.782,72.621C302.343,72.621 301.991,72.719 301.725,72.915C301.459,73.111 301.326,73.372 301.326,73.699C301.326,73.904 301.375,74.07 301.473,74.196C301.571,74.322 301.734,74.434 301.963,74.532C302.191,74.63 302.52,74.725 302.95,74.819C303.584,74.959 304.077,75.113 304.427,75.281C304.777,75.449 305.026,75.654 305.176,75.897C305.325,76.139 305.4,76.447 305.4,76.821C305.4,77.409 305.152,77.882 304.658,78.242C304.163,78.601 303.51,78.781 302.698,78.781C302.268,78.781 301.86,78.729 301.473,78.627Z" style="fill-rule:nonzero;"/><path d="M308.193,78.627C307.805,78.524 307.462,78.379 307.164,78.193C306.996,78.081 306.877,77.976 306.807,77.878C306.737,77.78 306.702,77.661 306.702,77.521C306.702,77.399 306.737,77.299 306.807,77.22C306.877,77.14 306.968,77.101 307.08,77.101C307.192,77.101 307.355,77.171 307.57,77.311C307.85,77.479 308.127,77.612 308.403,77.71C308.678,77.808 309.021,77.857 309.432,77.857C309.936,77.857 310.328,77.768 310.608,77.591C310.888,77.413 311.028,77.157 311.028,76.821C311.028,76.615 310.976,76.45 310.874,76.324C310.771,76.198 310.594,76.086 310.342,75.988C310.09,75.89 309.721,75.789 309.236,75.687C308.414,75.509 307.826,75.271 307.472,74.973C307.117,74.674 306.94,74.268 306.94,73.755C306.94,73.353 307.052,72.999 307.276,72.691C307.5,72.383 307.81,72.14 308.207,71.963C308.603,71.785 309.054,71.697 309.558,71.697C309.922,71.697 310.274,71.746 310.615,71.844C310.955,71.942 311.256,72.079 311.518,72.257C311.835,72.481 311.994,72.714 311.994,72.957C311.994,73.078 311.956,73.181 311.882,73.265C311.807,73.349 311.718,73.391 311.616,73.391C311.504,73.391 311.336,73.311 311.112,73.153C310.85,72.985 310.603,72.854 310.37,72.761C310.136,72.667 309.847,72.621 309.502,72.621C309.063,72.621 308.711,72.719 308.445,72.915C308.179,73.111 308.046,73.372 308.046,73.699C308.046,73.904 308.095,74.07 308.193,74.196C308.291,74.322 308.454,74.434 308.683,74.532C308.911,74.63 309.24,74.725 309.67,74.819C310.304,74.959 310.797,75.113 311.147,75.281C311.497,75.449 311.746,75.654 311.896,75.897C312.045,76.139 312.12,76.447 312.12,76.821C312.12,77.409 311.872,77.882 311.378,78.242C310.883,78.601 310.23,78.781 309.418,78.781C308.988,78.781 308.58,78.729 308.193,78.627Z" style="fill-rule:nonzero;"/><path d="M319.386,77.227C319.46,77.311 319.498,77.418 319.498,77.549C319.498,77.782 319.334,77.997 319.008,78.193C318.672,78.389 318.317,78.536 317.944,78.634C317.57,78.732 317.206,78.781 316.852,78.781C315.797,78.781 314.964,78.468 314.353,77.843C313.741,77.217 313.436,76.354 313.436,75.253C313.436,74.553 313.571,73.934 313.842,73.398C314.112,72.861 314.493,72.443 314.983,72.145C315.473,71.846 316.03,71.697 316.656,71.697C317.542,71.697 318.247,71.986 318.77,72.565C319.292,73.143 319.554,73.927 319.554,74.917C319.554,75.103 319.516,75.239 319.442,75.323C319.367,75.407 319.246,75.449 319.078,75.449L314.57,75.449C314.654,77.054 315.414,77.857 316.852,77.857C317.216,77.857 317.528,77.808 317.79,77.71C318.051,77.612 318.331,77.479 318.63,77.311C318.872,77.171 319.036,77.101 319.12,77.101C319.222,77.101 319.311,77.143 319.386,77.227ZM315.235,73.139C314.875,73.512 314.663,74.039 314.598,74.721L318.56,74.721C318.541,74.03 318.368,73.5 318.042,73.132C317.715,72.763 317.258,72.579 316.67,72.579C316.072,72.579 315.594,72.765 315.235,73.139Z" style="fill-rule:nonzero;"/><path d="M331.076,74.399L331.076,78.193C331.076,78.37 331.024,78.508 330.922,78.606C330.819,78.704 330.684,78.753 330.516,78.753C330.348,78.753 330.21,78.704 330.103,78.606C329.995,78.508 329.942,78.37 329.942,78.193L329.942,74.427C329.942,73.801 329.83,73.349 329.606,73.069C329.382,72.789 329.032,72.649 328.556,72.649C327.986,72.649 327.538,72.84 327.212,73.223C326.885,73.605 326.722,74.123 326.722,74.777L326.722,78.193C326.722,78.37 326.668,78.508 326.561,78.606C326.453,78.704 326.316,78.753 326.148,78.753C325.98,78.753 325.844,78.704 325.742,78.606C325.639,78.508 325.588,78.37 325.588,78.193L325.588,74.427C325.588,73.801 325.476,73.349 325.252,73.069C325.028,72.789 324.673,72.649 324.188,72.649C323.628,72.649 323.182,72.84 322.851,73.223C322.519,73.605 322.354,74.123 322.354,74.777L322.354,78.193C322.354,78.37 322.302,78.508 322.2,78.606C322.097,78.704 321.962,78.753 321.794,78.753C321.626,78.753 321.488,78.704 321.381,78.606C321.273,78.508 321.22,78.37 321.22,78.193L321.22,72.285C321.22,72.117 321.273,71.981 321.381,71.879C321.488,71.776 321.626,71.725 321.794,71.725C321.952,71.725 322.083,71.774 322.186,71.872C322.288,71.97 322.34,72.103 322.34,72.271L322.34,72.943C322.545,72.541 322.83,72.233 323.194,72.019C323.558,71.804 323.978,71.697 324.454,71.697C325.518,71.697 326.213,72.145 326.54,73.041C326.736,72.63 327.034,72.303 327.436,72.061C327.837,71.818 328.294,71.697 328.808,71.697C330.32,71.697 331.076,72.597 331.076,74.399Z" style="fill-rule:nonzero;"/><path d="M338.16,72.131C338.617,72.42 338.972,72.831 339.224,73.363C339.476,73.895 339.602,74.511 339.602,75.211C339.602,75.92 339.476,76.543 339.224,77.08C338.972,77.616 338.617,78.034 338.16,78.333C337.702,78.631 337.175,78.781 336.578,78.781C336.046,78.781 335.581,78.664 335.185,78.431C334.788,78.197 334.487,77.866 334.282,77.437L334.282,78.193C334.282,78.361 334.233,78.496 334.135,78.599C334.037,78.701 333.899,78.753 333.722,78.753C333.544,78.753 333.404,78.701 333.302,78.599C333.199,78.496 333.148,78.361 333.148,78.193L333.148,69.289C333.148,69.13 333.199,68.999 333.302,68.897C333.404,68.794 333.544,68.743 333.722,68.743C333.899,68.743 334.037,68.792 334.135,68.89C334.233,68.988 334.282,69.121 334.282,69.289L334.282,73.041C334.487,72.611 334.788,72.28 335.185,72.047C335.581,71.813 336.046,71.697 336.578,71.697C337.175,71.697 337.702,71.841 338.16,72.131ZM337.894,77.15C338.258,76.688 338.44,76.041 338.44,75.211C338.44,74.399 338.258,73.769 337.894,73.321C337.53,72.873 337.016,72.649 336.354,72.649C335.691,72.649 335.18,72.873 334.821,73.321C334.461,73.769 334.282,74.408 334.282,75.239C334.282,76.069 334.461,76.711 334.821,77.164C335.18,77.616 335.691,77.843 336.354,77.843C337.016,77.843 337.53,77.612 337.894,77.15Z" style="fill-rule:nonzero;"/><path d="M341.457,78.606C341.349,78.508 341.296,78.37 341.296,78.193L341.296,69.303C341.296,69.125 341.349,68.988 341.457,68.89C341.564,68.792 341.702,68.743 341.87,68.743C342.028,68.743 342.161,68.792 342.269,68.89C342.376,68.988 342.43,69.125 342.43,69.303L342.43,78.193C342.43,78.37 342.376,78.508 342.269,78.606C342.161,78.704 342.028,78.753 341.87,78.753C341.702,78.753 341.564,78.704 341.457,78.606Z" style="fill-rule:nonzero;"/><path d="M349.948,71.739C350.088,71.739 350.214,71.785 350.326,71.879C350.438,71.972 350.494,72.089 350.494,72.229C350.494,72.313 350.475,72.387 350.438,72.453L346.504,80.937C346.457,81.039 346.389,81.119 346.301,81.175C346.212,81.231 346.121,81.259 346.028,81.259C345.888,81.259 345.764,81.214 345.657,81.126C345.549,81.037 345.496,80.923 345.496,80.783C345.496,80.708 345.514,80.633 345.552,80.559L346.532,78.445L343.76,72.453C343.722,72.387 343.704,72.317 343.704,72.243C343.704,72.103 343.767,71.981 343.893,71.879C344.019,71.776 344.156,71.725 344.306,71.725C344.399,71.725 344.49,71.753 344.579,71.809C344.667,71.865 344.735,71.944 344.782,72.047L347.12,77.297L349.458,72.075C349.56,71.851 349.724,71.739 349.948,71.739Z" style="fill-rule:nonzero;"/></g></g></svg>