<?xml version="1.0" encoding="UTF-8" standalone="no"?>
<!DOCTYPE svg PUBLIC "-//W3C//DTD SVG 1.1//EN" "http://www.w3.org/Graphics/SVG/1.1/DTD/svg11.dtd">
<svg width="36px" height="13px" version="1.1" xmlns="http://www.w3.org/2000/svg" xmlns:xlink="http://www.w3.org/1999/xlink" xml:space="preserve" xmlns:serif="http://www.serif.com/" style="fill-rule:evenodd;clip-rule:evenodd;stroke-linejoin:round;stroke-miterlimit:1.41421;">
    <g transform="matrix(1,0,0,1,-176,-63)">
        <g transform="matrix(1,0,0,1,175.726,72.87)">
            <g id="Proxy">
                <path d="M1.372,-0.091C1.269,-0.198 1.218,-0.341 1.218,-0.518L1.218,-9.31C1.218,-9.478 1.272,-9.613 1.379,-9.716C1.486,-9.819 1.629,-9.87 1.806,-9.87L5.124,-9.87C6.16,-9.87 6.965,-9.618 7.539,-9.114C8.113,-8.61 8.4,-7.896 8.4,-6.972C8.4,-6.048 8.111,-5.329 7.532,-4.816C6.953,-4.303 6.151,-4.046 5.124,-4.046L2.366,-4.046L2.366,-0.518C2.366,-0.341 2.315,-0.198 2.212,-0.091C2.109,0.016 1.969,0.07 1.792,0.07C1.615,0.07 1.475,0.016 1.372,-0.091ZM5.012,-4.998C6.515,-4.998 7.266,-5.656 7.266,-6.972C7.266,-8.269 6.515,-8.918 5.012,-8.918L2.366,-8.918L2.366,-4.998L5.012,-4.998Z" style="fill:rgb(45,45,45);fill-rule:nonzero;"/>
                <path d="M13.897,-6.482C13.897,-6.333 13.855,-6.214 13.771,-6.125C13.687,-6.036 13.543,-5.983 13.337,-5.964L12.917,-5.922C12.292,-5.866 11.828,-5.644 11.524,-5.257C11.221,-4.87 11.069,-4.415 11.069,-3.892L11.069,-0.49C11.069,-0.303 11.018,-0.163 10.915,-0.07C10.813,0.023 10.677,0.07 10.509,0.07C10.341,0.07 10.204,0.021 10.096,-0.077C9.989,-0.175 9.935,-0.313 9.935,-0.49L9.935,-6.398C9.935,-6.575 9.991,-6.713 10.103,-6.811C10.215,-6.909 10.351,-6.958 10.509,-6.958C10.659,-6.958 10.785,-6.909 10.887,-6.811C10.99,-6.713 11.041,-6.58 11.041,-6.412L11.041,-5.628C11.237,-6.039 11.515,-6.351 11.874,-6.566C12.234,-6.781 12.647,-6.907 13.113,-6.944L13.309,-6.958C13.701,-6.986 13.897,-6.827 13.897,-6.482Z" style="fill:rgb(45,45,45);fill-rule:nonzero;"/>
                <path d="M15.859,-0.336C15.369,-0.625 14.991,-1.038 14.725,-1.575C14.459,-2.112 14.326,-2.735 14.326,-3.444C14.326,-4.153 14.459,-4.776 14.725,-5.313C14.991,-5.85 15.369,-6.263 15.859,-6.552C16.349,-6.841 16.916,-6.986 17.56,-6.986C18.204,-6.986 18.774,-6.841 19.268,-6.552C19.763,-6.263 20.143,-5.85 20.409,-5.313C20.675,-4.776 20.808,-4.153 20.808,-3.444C20.808,-2.735 20.675,-2.112 20.409,-1.575C20.143,-1.038 19.763,-0.625 19.268,-0.336C18.774,-0.047 18.204,0.098 17.56,0.098C16.916,0.098 16.349,-0.047 15.859,-0.336ZM19.107,-1.505C19.467,-1.948 19.646,-2.595 19.646,-3.444C19.646,-4.275 19.464,-4.916 19.1,-5.369C18.736,-5.822 18.223,-6.048 17.56,-6.048C16.898,-6.048 16.384,-5.822 16.02,-5.369C15.656,-4.916 15.474,-4.275 15.474,-3.444C15.474,-2.604 15.654,-1.96 16.013,-1.512C16.373,-1.064 16.888,-0.84 17.56,-0.84C18.232,-0.84 18.748,-1.062 19.107,-1.505Z" style="fill:rgb(45,45,45);fill-rule:nonzero;"/>
                <path d="M28.126,-0.462C28.126,-0.322 28.074,-0.201 27.972,-0.098C27.869,0.005 27.748,0.056 27.608,0.056C27.458,0.056 27.323,-0.009 27.202,-0.14L24.934,-2.73L22.68,-0.14C22.558,-0.009 22.423,0.056 22.274,0.056C22.134,0.056 22.01,0.005 21.903,-0.098C21.795,-0.201 21.742,-0.327 21.742,-0.476C21.742,-0.616 21.798,-0.747 21.91,-0.868L24.234,-3.486L22.008,-6.02C21.896,-6.151 21.84,-6.281 21.84,-6.412C21.84,-6.561 21.893,-6.687 22.001,-6.79C22.108,-6.893 22.227,-6.944 22.358,-6.944C22.507,-6.944 22.642,-6.879 22.764,-6.748L24.934,-4.256L27.104,-6.748C27.225,-6.879 27.36,-6.944 27.51,-6.944C27.65,-6.944 27.771,-6.893 27.874,-6.79C27.976,-6.687 28.028,-6.566 28.028,-6.426C28.028,-6.267 27.972,-6.132 27.86,-6.02L25.634,-3.486L27.958,-0.868C28.07,-0.756 28.126,-0.621 28.126,-0.462Z" style="fill:rgb(45,45,45);fill-rule:nonzero;"/>
                <path d="M34.925,-6.944C35.065,-6.944 35.191,-6.897 35.303,-6.804C35.415,-6.711 35.471,-6.594 35.471,-6.454C35.471,-6.37 35.452,-6.295 35.415,-6.23L31.481,2.254C31.434,2.357 31.367,2.436 31.278,2.492C31.189,2.548 31.098,2.576 31.005,2.576C30.865,2.576 30.741,2.532 30.634,2.443C30.527,2.354 30.473,2.24 30.473,2.1C30.473,2.025 30.492,1.951 30.529,1.876L31.509,-0.238L28.737,-6.23C28.7,-6.295 28.681,-6.365 28.681,-6.44C28.681,-6.58 28.744,-6.701 28.87,-6.804C28.996,-6.907 29.134,-6.958 29.283,-6.958C29.376,-6.958 29.467,-6.93 29.556,-6.874C29.645,-6.818 29.712,-6.739 29.759,-6.636L32.097,-1.386L34.435,-6.608C34.538,-6.832 34.701,-6.944 34.925,-6.944Z" style="fill:rgb(45,45,45);fill-rule:nonzero;"/>
            </g>
        </g>
    </g>
</svg>
