<?xml version="1.0" encoding="UTF-8" standalone="no"?><!DOCTYPE svg PUBLIC "-//W3C//DTD SVG 1.1//EN" "http://www.w3.org/Graphics/SVG/1.1/DTD/svg11.dtd"><svg width="58px" height="14px" version="1.1" xmlns="http://www.w3.org/2000/svg" xmlns:xlink="http://www.w3.org/1999/xlink" xml:space="preserve" xmlns:serif="http://www.serif.com/" style="fill-rule:evenodd;clip-rule:evenodd;stroke-linejoin:round;stroke-miterlimit:1.41421;"><g transform="matrix(1,0,0,1,-276,-63)"><g transform="matrix(1,0,0,1,2.11334,9.13118)"><path d="M276.616,64.48C275.976,64.27 275.465,63.987 275.083,63.633C274.943,63.502 274.873,63.339 274.873,63.143C274.873,63.012 274.91,62.898 274.985,62.8C275.059,62.702 275.148,62.653 275.251,62.653C275.372,62.653 275.503,62.704 275.643,62.807C276.511,63.479 277.5,63.815 278.611,63.815C279.413,63.815 280.029,63.661 280.459,63.353C280.888,63.045 281.103,62.606 281.103,62.037C281.103,61.71 281,61.446 280.795,61.246C280.589,61.045 280.319,60.884 279.983,60.763C279.647,60.641 279.194,60.515 278.625,60.385C277.859,60.207 277.232,60.021 276.742,59.825C276.252,59.629 275.855,59.349 275.552,58.985C275.248,58.621 275.097,58.145 275.097,57.557C275.097,56.997 275.248,56.5 275.552,56.066C275.855,55.632 276.28,55.296 276.826,55.058C277.372,54.82 277.995,54.701 278.695,54.701C279.348,54.701 279.957,54.801 280.522,55.002C281.086,55.202 281.56,55.489 281.943,55.863C282.092,56.012 282.167,56.175 282.167,56.353C282.167,56.483 282.129,56.598 282.055,56.696C281.98,56.794 281.891,56.843 281.789,56.843C281.686,56.843 281.551,56.791 281.383,56.689C280.925,56.315 280.501,56.054 280.109,55.905C279.717,55.755 279.245,55.681 278.695,55.681C277.92,55.681 277.318,55.842 276.889,56.164C276.459,56.486 276.245,56.936 276.245,57.515C276.245,58.009 276.434,58.38 276.812,58.628C277.19,58.875 277.771,59.092 278.555,59.279C279.404,59.484 280.071,59.673 280.557,59.846C281.042,60.018 281.446,60.277 281.768,60.623C282.09,60.968 282.251,61.43 282.251,62.009C282.251,62.559 282.099,63.045 281.796,63.465C281.492,63.885 281.065,64.211 280.515,64.445C279.964,64.678 279.334,64.795 278.625,64.795C277.925,64.795 277.255,64.69 276.616,64.48Z" style="fill-rule:nonzero;"/><path d="M285.072,64.347C284.582,64.057 284.204,63.647 283.938,63.115C283.672,62.583 283.539,61.967 283.539,61.267C283.539,60.567 283.676,59.946 283.952,59.405C284.227,58.863 284.612,58.443 285.107,58.145C285.601,57.846 286.171,57.697 286.815,57.697C287.169,57.697 287.522,57.746 287.872,57.844C288.222,57.942 288.527,58.084 288.789,58.271C288.957,58.383 289.076,58.492 289.146,58.6C289.216,58.707 289.251,58.826 289.251,58.957C289.251,59.087 289.216,59.195 289.146,59.279C289.076,59.363 288.985,59.405 288.873,59.405C288.807,59.405 288.737,59.386 288.663,59.349C288.588,59.311 288.525,59.274 288.474,59.237C288.422,59.199 288.387,59.176 288.369,59.167C288.126,59.008 287.895,58.882 287.676,58.789C287.456,58.695 287.188,58.649 286.871,58.649C286.189,58.649 285.66,58.88 285.282,59.342C284.904,59.804 284.715,60.445 284.715,61.267C284.715,62.088 284.904,62.723 285.282,63.171C285.66,63.619 286.189,63.843 286.871,63.843C287.188,63.843 287.461,63.796 287.69,63.703C287.918,63.609 288.149,63.483 288.383,63.325C288.485,63.259 288.583,63.203 288.677,63.157C288.77,63.11 288.849,63.087 288.915,63.087C289.017,63.087 289.104,63.129 289.174,63.213C289.244,63.297 289.279,63.404 289.279,63.535C289.279,63.656 289.246,63.766 289.181,63.864C289.115,63.962 288.994,64.071 288.817,64.193C288.555,64.37 288.24,64.512 287.872,64.62C287.503,64.727 287.132,64.781 286.759,64.781C286.124,64.781 285.562,64.636 285.072,64.347Z" style="fill-rule:nonzero;"/><path d="M295.999,60.385L295.999,64.193C295.999,64.361 295.95,64.496 295.852,64.599C295.754,64.701 295.621,64.753 295.453,64.753C295.285,64.753 295.149,64.701 295.047,64.599C294.944,64.496 294.893,64.361 294.893,64.193L294.893,63.521C294.715,63.922 294.445,64.232 294.081,64.452C293.717,64.671 293.297,64.781 292.821,64.781C292.382,64.781 291.978,64.692 291.61,64.515C291.241,64.337 290.949,64.09 290.735,63.773C290.52,63.455 290.413,63.105 290.413,62.723C290.413,62.209 290.543,61.81 290.805,61.526C291.066,61.241 291.495,61.036 292.093,60.91C292.69,60.784 293.521,60.721 294.585,60.721L294.893,60.721L294.893,60.259C294.893,59.699 294.778,59.288 294.55,59.027C294.321,58.765 293.95,58.635 293.437,58.635C292.802,58.635 292.158,58.807 291.505,59.153C291.253,59.311 291.075,59.391 290.973,59.391C290.861,59.391 290.767,59.349 290.693,59.265C290.618,59.181 290.581,59.073 290.581,58.943C290.581,58.812 290.62,58.698 290.7,58.6C290.779,58.502 290.907,58.401 291.085,58.299C291.411,58.112 291.782,57.965 292.198,57.858C292.613,57.75 293.026,57.697 293.437,57.697C295.145,57.697 295.999,58.593 295.999,60.385ZM294.354,63.318C294.713,62.94 294.893,62.452 294.893,61.855L294.893,61.449L294.641,61.449C293.819,61.449 293.194,61.484 292.765,61.554C292.335,61.624 292.03,61.74 291.848,61.904C291.666,62.067 291.575,62.307 291.575,62.625C291.575,62.989 291.708,63.29 291.974,63.528C292.24,63.766 292.573,63.885 292.975,63.885C293.535,63.885 293.994,63.696 294.354,63.318Z" style="fill-rule:nonzero;"/><path d="M303.951,60.399L303.951,64.193C303.951,64.37 303.902,64.508 303.804,64.606C303.706,64.704 303.568,64.753 303.391,64.753C303.213,64.753 303.073,64.704 302.971,64.606C302.868,64.508 302.817,64.37 302.817,64.193L302.817,60.469C302.817,59.834 302.693,59.372 302.446,59.083C302.198,58.793 301.804,58.649 301.263,58.649C300.637,58.649 300.138,58.84 299.765,59.223C299.391,59.605 299.205,60.123 299.205,60.777L299.205,64.193C299.205,64.37 299.156,64.508 299.058,64.606C298.96,64.704 298.822,64.753 298.645,64.753C298.467,64.753 298.327,64.704 298.225,64.606C298.122,64.508 298.071,64.37 298.071,64.193L298.071,58.285C298.071,58.117 298.122,57.981 298.225,57.879C298.327,57.776 298.467,57.725 298.645,57.725C298.813,57.725 298.946,57.776 299.044,57.879C299.142,57.981 299.191,58.112 299.191,58.271L299.191,58.985C299.415,58.565 299.727,58.245 300.129,58.026C300.53,57.806 300.987,57.697 301.501,57.697C303.134,57.697 303.951,58.597 303.951,60.399Z" style="fill-rule:nonzero;"/><path d="M311.903,60.399L311.903,64.193C311.903,64.37 311.854,64.508 311.756,64.606C311.658,64.704 311.52,64.753 311.343,64.753C311.165,64.753 311.025,64.704 310.923,64.606C310.82,64.508 310.769,64.37 310.769,64.193L310.769,60.469C310.769,59.834 310.645,59.372 310.398,59.083C310.15,58.793 309.756,58.649 309.215,58.649C308.589,58.649 308.09,58.84 307.717,59.223C307.343,59.605 307.157,60.123 307.157,60.777L307.157,64.193C307.157,64.37 307.108,64.508 307.01,64.606C306.912,64.704 306.774,64.753 306.597,64.753C306.419,64.753 306.279,64.704 306.177,64.606C306.074,64.508 306.023,64.37 306.023,64.193L306.023,58.285C306.023,58.117 306.074,57.981 306.177,57.879C306.279,57.776 306.419,57.725 306.597,57.725C306.765,57.725 306.898,57.776 306.996,57.879C307.094,57.981 307.143,58.112 307.143,58.271L307.143,58.985C307.367,58.565 307.679,58.245 308.081,58.026C308.482,57.806 308.939,57.697 309.453,57.697C311.086,57.697 311.903,58.597 311.903,60.399Z" style="fill-rule:nonzero;"/><path d="M314.136,64.606C314.028,64.508 313.975,64.37 313.975,64.193L313.975,58.285C313.975,58.107 314.028,57.97 314.136,57.872C314.243,57.774 314.381,57.725 314.549,57.725C314.717,57.725 314.852,57.774 314.955,57.872C315.057,57.97 315.109,58.107 315.109,58.285L315.109,64.193C315.109,64.379 315.057,64.519 314.955,64.613C314.852,64.706 314.717,64.753 314.549,64.753C314.381,64.753 314.243,64.704 314.136,64.606ZM314.003,56.059C313.863,55.928 313.793,55.755 313.793,55.541C313.793,55.335 313.863,55.167 314.003,55.037C314.143,54.906 314.325,54.841 314.549,54.841C314.773,54.841 314.955,54.906 315.095,55.037C315.235,55.167 315.305,55.335 315.305,55.541C315.305,55.755 315.235,55.928 315.095,56.059C314.955,56.189 314.773,56.255 314.549,56.255C314.325,56.255 314.143,56.189 314.003,56.059Z" style="fill-rule:nonzero;"/><path d="M323.103,60.399L323.103,64.193C323.103,64.37 323.054,64.508 322.956,64.606C322.858,64.704 322.72,64.753 322.543,64.753C322.365,64.753 322.225,64.704 322.123,64.606C322.02,64.508 321.969,64.37 321.969,64.193L321.969,60.469C321.969,59.834 321.845,59.372 321.598,59.083C321.35,58.793 320.956,58.649 320.415,58.649C319.789,58.649 319.29,58.84 318.917,59.223C318.543,59.605 318.357,60.123 318.357,60.777L318.357,64.193C318.357,64.37 318.308,64.508 318.21,64.606C318.112,64.704 317.974,64.753 317.797,64.753C317.619,64.753 317.479,64.704 317.377,64.606C317.274,64.508 317.223,64.37 317.223,64.193L317.223,58.285C317.223,58.117 317.274,57.981 317.377,57.879C317.479,57.776 317.619,57.725 317.797,57.725C317.965,57.725 318.098,57.776 318.196,57.879C318.294,57.981 318.343,58.112 318.343,58.271L318.343,58.985C318.567,58.565 318.879,58.245 319.281,58.026C319.682,57.806 320.139,57.697 320.653,57.697C322.286,57.697 323.103,58.597 323.103,60.399Z" style="fill-rule:nonzero;"/><path d="M331.125,57.879C331.227,57.981 331.279,58.117 331.279,58.285L331.279,64.221C331.279,65.238 331.017,66.006 330.495,66.524C329.972,67.042 329.197,67.301 328.171,67.301C327.172,67.301 326.341,67.105 325.679,66.713C325.343,66.526 325.175,66.311 325.175,66.069C325.175,65.938 325.21,65.831 325.28,65.747C325.35,65.663 325.441,65.621 325.553,65.621C325.646,65.621 325.814,65.686 326.057,65.817C326.383,65.985 326.705,66.12 327.023,66.223C327.34,66.325 327.718,66.377 328.157,66.377C328.819,66.377 329.319,66.202 329.655,65.852C329.991,65.502 330.159,64.991 330.159,64.319L330.159,63.115C329.963,63.553 329.662,63.889 329.256,64.123C328.85,64.356 328.371,64.473 327.821,64.473C327.223,64.473 326.694,64.333 326.232,64.053C325.77,63.773 325.41,63.376 325.154,62.863C324.897,62.349 324.769,61.757 324.769,61.085C324.769,60.413 324.897,59.82 325.154,59.307C325.41,58.793 325.77,58.397 326.232,58.117C326.694,57.837 327.223,57.697 327.821,57.697C328.362,57.697 328.833,57.813 329.235,58.047C329.636,58.28 329.939,58.611 330.145,59.041L330.145,58.285C330.145,58.117 330.194,57.981 330.292,57.879C330.39,57.776 330.527,57.725 330.705,57.725C330.882,57.725 331.022,57.776 331.125,57.879ZM329.585,62.884C329.958,62.45 330.145,61.85 330.145,61.085C330.145,60.329 329.96,59.734 329.592,59.3C329.223,58.866 328.707,58.649 328.045,58.649C327.382,58.649 326.862,58.866 326.484,59.3C326.106,59.734 325.917,60.329 325.917,61.085C325.917,61.85 326.106,62.45 326.484,62.884C326.862,63.318 327.382,63.535 328.045,63.535C328.698,63.535 329.211,63.318 329.585,62.884Z" style="fill-rule:nonzero;"/></g></g></svg>