<?xml version="1.0" encoding="UTF-8" standalone="no"?>
<svg width="35px" height="35px" viewBox="0 0 35 35" version="1.1" xmlns="http://www.w3.org/2000/svg" xmlns:xlink="http://www.w3.org/1999/xlink">
    <!-- Generator: Sketch 50.2 (55047) - http://www.bohemiancoding.com/sketch -->
    <title>Scan Copy 6</title>
    <desc>Created with Sketch.</desc>
    <defs></defs>
    <g id="Page-1" stroke="none" stroke-width="1" fill="none" fill-rule="evenodd">
        <g id="Group-91" transform="translate(0.000000, -5.000000)" fill="#FE791A">
            <path d="M22.0396071,8.74105459 C27.0733118,8.70274531 31.1927367,12.7158559 31.2297556,17.701171 C31.2814098,22.6830809 27.2101955,26.7498245 22.1687426,26.7881338 C17.1307334,26.8511313 13.015613,22.8261022 12.9768723,17.8407871 C12.9329662,12.8537693 16.9912669,8.77936388 22.0396071,8.74105459 M0.922496731,39.1484122 C2.12001398,40.3002448 4.07943112,40.2823671 5.25026034,39.1024411 L15.495877,28.6908283 C17.4578768,29.8401069 19.7401329,30.5117964 22.1937089,30.4956214 C29.3211318,30.4709332 35.0513077,24.6981494 34.9996535,17.6534973 C34.9436948,10.616507 29.1231239,4.94758392 21.995701,5.0003656 C14.8699999,5.05399861 9.13551938,10.7927297 9.18889542,17.8407871 C9.2061135,20.2568261 9.92238549,22.51452 11.1242073,24.4359436 L0.878590635,34.8577721 C-0.308595763,36.0530219 -0.291377686,37.9769994 0.922496731,39.1484122" id="Scan-Copy-6"></path>
        </g>
    </g>
</svg>