<?xml version="1.0" encoding="UTF-8" standalone="no"?><!DOCTYPE svg PUBLIC "-//W3C//DTD SVG 1.1//EN" "http://www.w3.org/Graphics/SVG/1.1/DTD/svg11.dtd"><svg width="245px" height="29px" version="1.1" xmlns="http://www.w3.org/2000/svg" xmlns:xlink="http://www.w3.org/1999/xlink" xml:space="preserve" xmlns:serif="http://www.serif.com/" style="fill-rule:evenodd;clip-rule:evenodd;stroke-linejoin:round;stroke-miterlimit:1.41421;"><g transform="matrix(1,0,0,1,-212,-218)"><g transform="matrix(1,0,0,1,72.0674,0.62938)"><path d="M168.63,217.462C168.723,217.401 168.826,217.371 168.938,217.371C169.087,217.371 169.215,217.415 169.323,217.504C169.43,217.592 169.484,217.711 169.484,217.861C169.484,217.926 169.47,218.001 169.442,218.085L166.278,227.003C166.231,227.133 166.152,227.234 166.04,227.304C165.928,227.374 165.802,227.409 165.662,227.409C165.531,227.409 165.41,227.374 165.298,227.304C165.186,227.234 165.106,227.133 165.06,227.003L162.316,219.247L159.544,227.003C159.497,227.133 159.418,227.234 159.306,227.304C159.194,227.374 159.072,227.409 158.942,227.409C158.811,227.409 158.69,227.374 158.578,227.304C158.466,227.234 158.386,227.133 158.34,227.003L155.162,218.085C155.134,218.01 155.12,217.94 155.12,217.875C155.12,217.725 155.178,217.604 155.295,217.511C155.411,217.417 155.544,217.371 155.694,217.371C155.806,217.371 155.911,217.401 156.009,217.462C156.107,217.522 156.174,217.613 156.212,217.735L158.97,225.687L161.77,217.819C161.816,217.679 161.891,217.574 161.994,217.504C162.096,217.434 162.208,217.399 162.33,217.399C162.451,217.399 162.563,217.436 162.666,217.511C162.768,217.585 162.843,217.693 162.89,217.833L165.648,225.715L168.434,217.735C168.471,217.613 168.536,217.522 168.63,217.462Z" style="fill-rule:nonzero;"/><path d="M176.33,221.018C176.74,221.47 176.946,222.145 176.946,223.041L176.946,226.835C176.946,227.012 176.894,227.15 176.792,227.248C176.689,227.346 176.554,227.395 176.386,227.395C176.208,227.395 176.068,227.346 175.966,227.248C175.863,227.15 175.812,227.012 175.812,226.835L175.812,223.069C175.812,222.462 175.688,222.014 175.441,221.725C175.193,221.435 174.799,221.291 174.258,221.291C173.632,221.291 173.133,221.482 172.76,221.865C172.386,222.247 172.2,222.765 172.2,223.419L172.2,226.835C172.2,227.012 172.151,227.15 172.053,227.248C171.955,227.346 171.817,227.395 171.64,227.395C171.462,227.395 171.322,227.346 171.22,227.248C171.117,227.15 171.066,227.012 171.066,226.835L171.066,217.931C171.066,217.772 171.119,217.641 171.227,217.539C171.334,217.436 171.472,217.385 171.64,217.385C171.817,217.385 171.955,217.434 172.053,217.532C172.151,217.63 172.2,217.763 172.2,217.931L172.2,221.599C172.424,221.188 172.736,220.875 173.138,220.661C173.539,220.446 173.996,220.339 174.51,220.339C175.312,220.339 175.919,220.565 176.33,221.018Z" style="fill-rule:nonzero;"/><path d="M184.562,225.869C184.636,225.953 184.674,226.06 184.674,226.191C184.674,226.424 184.51,226.639 184.184,226.835C183.848,227.031 183.493,227.178 183.12,227.276C182.746,227.374 182.382,227.423 182.028,227.423C180.973,227.423 180.14,227.11 179.529,226.485C178.917,225.859 178.612,224.996 178.612,223.895C178.612,223.195 178.747,222.576 179.018,222.04C179.288,221.503 179.669,221.085 180.159,220.787C180.649,220.488 181.206,220.339 181.832,220.339C182.718,220.339 183.423,220.628 183.946,221.207C184.468,221.785 184.73,222.569 184.73,223.559C184.73,223.745 184.692,223.881 184.618,223.965C184.543,224.049 184.422,224.091 184.254,224.091L179.746,224.091C179.83,225.696 180.59,226.499 182.028,226.499C182.392,226.499 182.704,226.45 182.966,226.352C183.227,226.254 183.507,226.121 183.806,225.953C184.048,225.813 184.212,225.743 184.296,225.743C184.398,225.743 184.487,225.785 184.562,225.869ZM180.411,221.781C180.051,222.154 179.839,222.681 179.774,223.363L183.736,223.363C183.717,222.672 183.544,222.142 183.218,221.774C182.891,221.405 182.434,221.221 181.846,221.221C181.248,221.221 180.77,221.407 180.411,221.781Z" style="fill-rule:nonzero;"/><path d="M192.276,223.041L192.276,226.835C192.276,227.012 192.227,227.15 192.129,227.248C192.031,227.346 191.893,227.395 191.716,227.395C191.538,227.395 191.398,227.346 191.296,227.248C191.193,227.15 191.142,227.012 191.142,226.835L191.142,223.111C191.142,222.476 191.018,222.014 190.771,221.725C190.523,221.435 190.129,221.291 189.588,221.291C188.962,221.291 188.463,221.482 188.09,221.865C187.716,222.247 187.53,222.765 187.53,223.419L187.53,226.835C187.53,227.012 187.481,227.15 187.383,227.248C187.285,227.346 187.147,227.395 186.97,227.395C186.792,227.395 186.652,227.346 186.55,227.248C186.447,227.15 186.396,227.012 186.396,226.835L186.396,220.927C186.396,220.759 186.447,220.623 186.55,220.521C186.652,220.418 186.792,220.367 186.97,220.367C187.138,220.367 187.271,220.418 187.369,220.521C187.467,220.623 187.516,220.754 187.516,220.913L187.516,221.627C187.74,221.207 188.052,220.887 188.454,220.668C188.855,220.448 189.312,220.339 189.826,220.339C191.459,220.339 192.276,221.239 192.276,223.041Z" style="fill-rule:nonzero;"/><path d="M202.972,220.787C203.429,221.085 203.784,221.503 204.036,222.04C204.288,222.576 204.414,223.199 204.414,223.909C204.414,224.618 204.288,225.236 204.036,225.764C203.784,226.291 203.431,226.699 202.979,226.989C202.526,227.278 201.996,227.423 201.39,227.423C200.858,227.423 200.393,227.306 199.997,227.073C199.6,226.839 199.299,226.508 199.094,226.079L199.094,229.369C199.094,229.537 199.045,229.67 198.947,229.768C198.849,229.866 198.711,229.915 198.534,229.915C198.356,229.915 198.216,229.863 198.114,229.761C198.011,229.658 197.96,229.527 197.96,229.369L197.96,220.927C197.96,220.759 198.011,220.623 198.114,220.521C198.216,220.418 198.356,220.367 198.534,220.367C198.711,220.367 198.849,220.418 198.947,220.521C199.045,220.623 199.094,220.759 199.094,220.927L199.094,221.683C199.299,221.253 199.6,220.922 199.997,220.689C200.393,220.455 200.858,220.339 201.39,220.339C201.987,220.339 202.514,220.488 202.972,220.787ZM202.706,225.813C203.07,225.365 203.252,224.73 203.252,223.909C203.252,223.087 203.07,222.446 202.706,221.984C202.342,221.522 201.828,221.291 201.166,221.291C200.503,221.291 199.992,221.515 199.633,221.963C199.273,222.411 199.094,223.05 199.094,223.881C199.094,224.711 199.273,225.353 199.633,225.806C199.992,226.258 200.503,226.485 201.166,226.485C201.828,226.485 202.342,226.261 202.706,225.813Z" style="fill-rule:nonzero;"/><path d="M210.07,220.843C210.07,220.992 210.028,221.111 209.944,221.2C209.86,221.288 209.715,221.342 209.51,221.361L209.09,221.403C208.464,221.459 208,221.68 207.697,222.068C207.393,222.455 207.242,222.91 207.242,223.433L207.242,226.835C207.242,227.021 207.19,227.161 207.088,227.255C206.985,227.348 206.85,227.395 206.682,227.395C206.514,227.395 206.376,227.346 206.269,227.248C206.161,227.15 206.108,227.012 206.108,226.835L206.108,220.927C206.108,220.749 206.164,220.612 206.276,220.514C206.388,220.416 206.523,220.367 206.682,220.367C206.831,220.367 206.957,220.416 207.06,220.514C207.162,220.612 207.214,220.745 207.214,220.913L207.214,221.697C207.41,221.286 207.687,220.973 208.047,220.759C208.406,220.544 208.819,220.418 209.286,220.381L209.482,220.367C209.874,220.339 210.07,220.497 210.07,220.843Z" style="fill-rule:nonzero;"/><path d="M212.037,226.989C211.547,226.699 211.169,226.286 210.903,225.75C210.637,225.213 210.504,224.59 210.504,223.881C210.504,223.171 210.637,222.548 210.903,222.012C211.169,221.475 211.547,221.062 212.037,220.773C212.527,220.483 213.094,220.339 213.738,220.339C214.382,220.339 214.951,220.483 215.446,220.773C215.94,221.062 216.321,221.475 216.587,222.012C216.853,222.548 216.986,223.171 216.986,223.881C216.986,224.59 216.853,225.213 216.587,225.75C216.321,226.286 215.94,226.699 215.446,226.989C214.951,227.278 214.382,227.423 213.738,227.423C213.094,227.423 212.527,227.278 212.037,226.989ZM215.285,225.82C215.644,225.376 215.824,224.73 215.824,223.881C215.824,223.05 215.642,222.408 215.278,221.956C214.914,221.503 214.4,221.277 213.738,221.277C213.075,221.277 212.562,221.503 212.198,221.956C211.834,222.408 211.652,223.05 211.652,223.881C211.652,224.721 211.831,225.365 212.191,225.813C212.55,226.261 213.066,226.485 213.738,226.485C214.41,226.485 214.925,226.263 215.285,225.82Z" style="fill-rule:nonzero;"/><path d="M224.308,226.863C224.308,227.003 224.256,227.124 224.154,227.227C224.051,227.329 223.93,227.381 223.79,227.381C223.64,227.381 223.505,227.315 223.384,227.185L221.116,224.595L218.862,227.185C218.74,227.315 218.605,227.381 218.456,227.381C218.316,227.381 218.192,227.329 218.085,227.227C217.977,227.124 217.924,226.998 217.924,226.849C217.924,226.709 217.98,226.578 218.092,226.457L220.416,223.839L218.19,221.305C218.078,221.174 218.022,221.043 218.022,220.913C218.022,220.763 218.075,220.637 218.183,220.535C218.29,220.432 218.409,220.381 218.54,220.381C218.689,220.381 218.824,220.446 218.946,220.577L221.116,223.069L223.286,220.577C223.407,220.446 223.542,220.381 223.692,220.381C223.832,220.381 223.953,220.432 224.056,220.535C224.158,220.637 224.21,220.759 224.21,220.899C224.21,221.057 224.154,221.193 224.042,221.305L221.816,223.839L224.14,226.457C224.252,226.569 224.308,226.704 224.308,226.863Z" style="fill-rule:nonzero;"/><path d="M231.112,220.381C231.252,220.381 231.378,220.427 231.49,220.521C231.602,220.614 231.658,220.731 231.658,220.871C231.658,220.955 231.639,221.029 231.602,221.095L227.668,229.579C227.621,229.681 227.553,229.761 227.465,229.817C227.376,229.873 227.285,229.901 227.192,229.901C227.052,229.901 226.928,229.856 226.821,229.768C226.713,229.679 226.66,229.565 226.66,229.425C226.66,229.35 226.678,229.275 226.716,229.201L227.696,227.087L224.924,221.095C224.886,221.029 224.868,220.959 224.868,220.885C224.868,220.745 224.931,220.623 225.057,220.521C225.183,220.418 225.32,220.367 225.47,220.367C225.563,220.367 225.654,220.395 225.743,220.451C225.831,220.507 225.899,220.586 225.946,220.689L228.284,225.939L230.622,220.717C230.724,220.493 230.888,220.381 231.112,220.381Z" style="fill-rule:nonzero;"/><path d="M241.528,220.773C241.985,221.062 242.34,221.473 242.592,222.005C242.844,222.537 242.97,223.153 242.97,223.853C242.97,224.562 242.844,225.185 242.592,225.722C242.34,226.258 241.985,226.676 241.528,226.975C241.07,227.273 240.543,227.423 239.946,227.423C239.414,227.423 238.949,227.306 238.553,227.073C238.156,226.839 237.855,226.508 237.65,226.079L237.65,226.835C237.65,227.003 237.601,227.138 237.503,227.241C237.405,227.343 237.267,227.395 237.09,227.395C236.912,227.395 236.772,227.343 236.67,227.241C236.567,227.138 236.516,227.003 236.516,226.835L236.516,217.931C236.516,217.772 236.567,217.641 236.67,217.539C236.772,217.436 236.912,217.385 237.09,217.385C237.267,217.385 237.405,217.434 237.503,217.532C237.601,217.63 237.65,217.763 237.65,217.931L237.65,221.683C237.855,221.253 238.156,220.922 238.553,220.689C238.949,220.455 239.414,220.339 239.946,220.339C240.543,220.339 241.07,220.483 241.528,220.773ZM241.262,225.792C241.626,225.33 241.808,224.683 241.808,223.853C241.808,223.041 241.626,222.411 241.262,221.963C240.898,221.515 240.384,221.291 239.722,221.291C239.059,221.291 238.548,221.515 238.189,221.963C237.829,222.411 237.65,223.05 237.65,223.881C237.65,224.711 237.829,225.353 238.189,225.806C238.548,226.258 239.059,226.485 239.722,226.485C240.384,226.485 240.898,226.254 241.262,225.792Z" style="fill-rule:nonzero;"/><path d="M250.257,220.521C250.355,220.623 250.404,220.759 250.404,220.927L250.404,226.849C250.404,227.007 250.355,227.138 250.257,227.241C250.159,227.343 250.021,227.395 249.844,227.395C249.676,227.395 249.543,227.346 249.445,227.248C249.347,227.15 249.298,227.021 249.298,226.863L249.298,226.163C249.083,226.573 248.782,226.886 248.395,227.101C248.007,227.315 247.571,227.423 247.086,227.423C246.274,227.423 245.662,227.196 245.252,226.744C244.841,226.291 244.636,225.621 244.636,224.735L244.636,220.927C244.636,220.759 244.687,220.623 244.79,220.521C244.892,220.418 245.032,220.367 245.21,220.367C245.387,220.367 245.525,220.418 245.623,220.521C245.721,220.623 245.77,220.759 245.77,220.927L245.77,224.707C245.77,225.313 245.891,225.759 246.134,226.044C246.376,226.328 246.759,226.471 247.282,226.471C247.879,226.471 248.36,226.277 248.724,225.89C249.088,225.502 249.27,224.991 249.27,224.357L249.27,220.927C249.27,220.759 249.321,220.623 249.424,220.521C249.526,220.418 249.666,220.367 249.844,220.367C250.021,220.367 250.159,220.418 250.257,220.521Z" style="fill-rule:nonzero;"/><path d="M254.408,218.82C254.156,219.095 254.03,219.508 254.03,220.059L254.03,220.507L255.584,220.507C255.742,220.507 255.864,220.549 255.948,220.633C256.032,220.717 256.074,220.829 256.074,220.969C256.074,221.109 256.032,221.216 255.948,221.291C255.864,221.365 255.742,221.403 255.584,221.403L254.03,221.403L254.03,226.835C254.03,227.012 253.976,227.15 253.869,227.248C253.761,227.346 253.628,227.395 253.47,227.395C253.302,227.395 253.164,227.346 253.057,227.248C252.949,227.15 252.896,227.012 252.896,226.835L252.896,221.403L251.958,221.403C251.799,221.403 251.675,221.363 251.587,221.284C251.498,221.204 251.454,221.099 251.454,220.969C251.454,220.829 251.498,220.717 251.587,220.633C251.675,220.549 251.799,220.507 251.958,220.507L252.896,220.507L252.896,220.255C252.896,219.415 253.106,218.754 253.526,218.274C253.946,217.793 254.548,217.525 255.332,217.469L255.696,217.441C255.938,217.422 256.113,217.445 256.221,217.511C256.328,217.576 256.382,217.693 256.382,217.861C256.382,218.131 256.218,218.285 255.892,218.323L255.528,218.351C255.033,218.388 254.66,218.544 254.408,218.82Z" style="fill-rule:nonzero;"/><path d="M259,218.82C258.748,219.095 258.622,219.508 258.622,220.059L258.622,220.507L260.176,220.507C260.334,220.507 260.456,220.549 260.54,220.633C260.624,220.717 260.666,220.829 260.666,220.969C260.666,221.109 260.624,221.216 260.54,221.291C260.456,221.365 260.334,221.403 260.176,221.403L258.622,221.403L258.622,226.835C258.622,227.012 258.568,227.15 258.461,227.248C258.353,227.346 258.22,227.395 258.062,227.395C257.894,227.395 257.756,227.346 257.649,227.248C257.541,227.15 257.488,227.012 257.488,226.835L257.488,221.403L256.55,221.403C256.391,221.403 256.267,221.363 256.179,221.284C256.09,221.204 256.046,221.099 256.046,220.969C256.046,220.829 256.09,220.717 256.179,220.633C256.267,220.549 256.391,220.507 256.55,220.507L257.488,220.507L257.488,220.255C257.488,219.415 257.698,218.754 258.118,218.274C258.538,217.793 259.14,217.525 259.924,217.469L260.288,217.441C260.53,217.422 260.705,217.445 260.813,217.511C260.92,217.576 260.974,217.693 260.974,217.861C260.974,218.131 260.81,218.285 260.484,218.323L260.12,218.351C259.625,218.388 259.252,218.544 259,218.82Z" style="fill-rule:nonzero;"/><path d="M267.176,225.869C267.25,225.953 267.288,226.06 267.288,226.191C267.288,226.424 267.124,226.639 266.798,226.835C266.462,227.031 266.107,227.178 265.734,227.276C265.36,227.374 264.996,227.423 264.642,227.423C263.587,227.423 262.754,227.11 262.143,226.485C261.531,225.859 261.226,224.996 261.226,223.895C261.226,223.195 261.361,222.576 261.632,222.04C261.902,221.503 262.283,221.085 262.773,220.787C263.263,220.488 263.82,220.339 264.446,220.339C265.332,220.339 266.037,220.628 266.56,221.207C267.082,221.785 267.344,222.569 267.344,223.559C267.344,223.745 267.306,223.881 267.232,223.965C267.157,224.049 267.036,224.091 266.868,224.091L262.36,224.091C262.444,225.696 263.204,226.499 264.642,226.499C265.006,226.499 265.318,226.45 265.58,226.352C265.841,226.254 266.121,226.121 266.42,225.953C266.662,225.813 266.826,225.743 266.91,225.743C267.012,225.743 267.101,225.785 267.176,225.869ZM263.025,221.781C262.665,222.154 262.453,222.681 262.388,223.363L266.35,223.363C266.331,222.672 266.158,222.142 265.832,221.774C265.505,221.405 265.048,221.221 264.46,221.221C263.862,221.221 263.384,221.407 263.025,221.781Z" style="fill-rule:nonzero;"/><path d="M272.972,220.843C272.972,220.992 272.93,221.111 272.846,221.2C272.762,221.288 272.617,221.342 272.412,221.361L271.992,221.403C271.366,221.459 270.902,221.68 270.599,222.068C270.295,222.455 270.144,222.91 270.144,223.433L270.144,226.835C270.144,227.021 270.092,227.161 269.99,227.255C269.887,227.348 269.752,227.395 269.584,227.395C269.416,227.395 269.278,227.346 269.171,227.248C269.063,227.15 269.01,227.012 269.01,226.835L269.01,220.927C269.01,220.749 269.066,220.612 269.178,220.514C269.29,220.416 269.425,220.367 269.584,220.367C269.733,220.367 269.859,220.416 269.962,220.514C270.064,220.612 270.116,220.745 270.116,220.913L270.116,221.697C270.312,221.286 270.589,220.973 270.949,220.759C271.308,220.544 271.721,220.418 272.188,220.381L272.384,220.367C272.776,220.339 272.972,220.497 272.972,220.843Z" style="fill-rule:nonzero;"/><path d="M282.576,220.773C283.033,221.062 283.388,221.473 283.64,222.005C283.892,222.537 284.018,223.153 284.018,223.853C284.018,224.562 283.892,225.185 283.64,225.722C283.388,226.258 283.033,226.676 282.576,226.975C282.118,227.273 281.591,227.423 280.994,227.423C280.462,227.423 279.997,227.306 279.601,227.073C279.204,226.839 278.903,226.508 278.698,226.079L278.698,226.835C278.698,227.003 278.649,227.138 278.551,227.241C278.453,227.343 278.315,227.395 278.138,227.395C277.96,227.395 277.82,227.343 277.718,227.241C277.615,227.138 277.564,227.003 277.564,226.835L277.564,217.931C277.564,217.772 277.615,217.641 277.718,217.539C277.82,217.436 277.96,217.385 278.138,217.385C278.315,217.385 278.453,217.434 278.551,217.532C278.649,217.63 278.698,217.763 278.698,217.931L278.698,221.683C278.903,221.253 279.204,220.922 279.601,220.689C279.997,220.455 280.462,220.339 280.994,220.339C281.591,220.339 282.118,220.483 282.576,220.773ZM282.31,225.792C282.674,225.33 282.856,224.683 282.856,223.853C282.856,223.041 282.674,222.411 282.31,221.963C281.946,221.515 281.432,221.291 280.77,221.291C280.107,221.291 279.596,221.515 279.237,221.963C278.877,222.411 278.698,223.05 278.698,223.881C278.698,224.711 278.877,225.353 279.237,225.806C279.596,226.258 280.107,226.485 280.77,226.485C281.432,226.485 281.946,226.254 282.31,225.792Z" style="fill-rule:nonzero;"/><path d="M291.256,225.869C291.33,225.953 291.368,226.06 291.368,226.191C291.368,226.424 291.204,226.639 290.878,226.835C290.542,227.031 290.187,227.178 289.814,227.276C289.44,227.374 289.076,227.423 288.722,227.423C287.667,227.423 286.834,227.11 286.223,226.485C285.611,225.859 285.306,224.996 285.306,223.895C285.306,223.195 285.441,222.576 285.712,222.04C285.982,221.503 286.363,221.085 286.853,220.787C287.343,220.488 287.9,220.339 288.526,220.339C289.412,220.339 290.117,220.628 290.64,221.207C291.162,221.785 291.424,222.569 291.424,223.559C291.424,223.745 291.386,223.881 291.312,223.965C291.237,224.049 291.116,224.091 290.948,224.091L286.44,224.091C286.524,225.696 287.284,226.499 288.722,226.499C289.086,226.499 289.398,226.45 289.66,226.352C289.921,226.254 290.201,226.121 290.5,225.953C290.742,225.813 290.906,225.743 290.99,225.743C291.092,225.743 291.181,225.785 291.256,225.869ZM287.105,221.781C286.745,222.154 286.533,222.681 286.468,223.363L290.43,223.363C290.411,222.672 290.238,222.142 289.912,221.774C289.585,221.405 289.128,221.221 288.54,221.221C287.942,221.221 287.464,221.407 287.105,221.781Z" style="fill-rule:nonzero;"/><path d="M294.217,226.989C293.727,226.699 293.349,226.289 293.083,225.757C292.817,225.225 292.684,224.609 292.684,223.909C292.684,223.209 292.821,222.588 293.097,222.047C293.372,221.505 293.757,221.085 294.252,220.787C294.746,220.488 295.316,220.339 295.96,220.339C296.314,220.339 296.667,220.388 297.017,220.486C297.367,220.584 297.672,220.726 297.934,220.913C298.102,221.025 298.221,221.134 298.291,221.242C298.361,221.349 298.396,221.468 298.396,221.599C298.396,221.729 298.361,221.837 298.291,221.921C298.221,222.005 298.13,222.047 298.018,222.047C297.952,222.047 297.882,222.028 297.808,221.991C297.733,221.953 297.67,221.916 297.619,221.879C297.567,221.841 297.532,221.818 297.514,221.809C297.271,221.65 297.04,221.524 296.821,221.431C296.601,221.337 296.333,221.291 296.016,221.291C295.334,221.291 294.805,221.522 294.427,221.984C294.049,222.446 293.86,223.087 293.86,223.909C293.86,224.73 294.049,225.365 294.427,225.813C294.805,226.261 295.334,226.485 296.016,226.485C296.333,226.485 296.606,226.438 296.835,226.345C297.063,226.251 297.294,226.125 297.528,225.967C297.63,225.901 297.728,225.845 297.822,225.799C297.915,225.752 297.994,225.729 298.06,225.729C298.162,225.729 298.249,225.771 298.319,225.855C298.389,225.939 298.424,226.046 298.424,226.177C298.424,226.298 298.391,226.408 298.326,226.506C298.26,226.604 298.139,226.713 297.962,226.835C297.7,227.012 297.385,227.154 297.017,227.262C296.648,227.369 296.277,227.423 295.904,227.423C295.269,227.423 294.707,227.278 294.217,226.989Z" style="fill-rule:nonzero;"/><path d="M300.923,226.989C300.433,226.699 300.055,226.286 299.789,225.75C299.523,225.213 299.39,224.59 299.39,223.881C299.39,223.171 299.523,222.548 299.789,222.012C300.055,221.475 300.433,221.062 300.923,220.773C301.413,220.483 301.98,220.339 302.624,220.339C303.268,220.339 303.837,220.483 304.332,220.773C304.826,221.062 305.207,221.475 305.473,222.012C305.739,222.548 305.872,223.171 305.872,223.881C305.872,224.59 305.739,225.213 305.473,225.75C305.207,226.286 304.826,226.699 304.332,226.989C303.837,227.278 303.268,227.423 302.624,227.423C301.98,227.423 301.413,227.278 300.923,226.989ZM304.171,225.82C304.53,225.376 304.71,224.73 304.71,223.881C304.71,223.05 304.528,222.408 304.164,221.956C303.8,221.503 303.286,221.277 302.624,221.277C301.961,221.277 301.448,221.503 301.084,221.956C300.72,222.408 300.538,223.05 300.538,223.881C300.538,224.721 300.717,225.365 301.077,225.813C301.436,226.261 301.952,226.485 302.624,226.485C303.296,226.485 303.811,226.263 304.171,225.82Z" style="fill-rule:nonzero;"/><path d="M317.422,223.041L317.422,226.835C317.422,227.012 317.37,227.15 317.268,227.248C317.165,227.346 317.03,227.395 316.862,227.395C316.694,227.395 316.556,227.346 316.449,227.248C316.341,227.15 316.288,227.012 316.288,226.835L316.288,223.069C316.288,222.443 316.176,221.991 315.952,221.711C315.728,221.431 315.378,221.291 314.902,221.291C314.332,221.291 313.884,221.482 313.558,221.865C313.231,222.247 313.068,222.765 313.068,223.419L313.068,226.835C313.068,227.012 313.014,227.15 312.907,227.248C312.799,227.346 312.662,227.395 312.494,227.395C312.326,227.395 312.19,227.346 312.088,227.248C311.985,227.15 311.934,227.012 311.934,226.835L311.934,223.069C311.934,222.443 311.822,221.991 311.598,221.711C311.374,221.431 311.019,221.291 310.534,221.291C309.974,221.291 309.528,221.482 309.197,221.865C308.865,222.247 308.7,222.765 308.7,223.419L308.7,226.835C308.7,227.012 308.648,227.15 308.546,227.248C308.443,227.346 308.308,227.395 308.14,227.395C307.972,227.395 307.834,227.346 307.727,227.248C307.619,227.15 307.566,227.012 307.566,226.835L307.566,220.927C307.566,220.759 307.619,220.623 307.727,220.521C307.834,220.418 307.972,220.367 308.14,220.367C308.298,220.367 308.429,220.416 308.532,220.514C308.634,220.612 308.686,220.745 308.686,220.913L308.686,221.585C308.891,221.183 309.176,220.875 309.54,220.661C309.904,220.446 310.324,220.339 310.8,220.339C311.864,220.339 312.559,220.787 312.886,221.683C313.082,221.272 313.38,220.945 313.782,220.703C314.183,220.46 314.64,220.339 315.154,220.339C316.666,220.339 317.422,221.239 317.422,223.041Z" style="fill-rule:nonzero;"/><path d="M325.038,225.869C325.112,225.953 325.15,226.06 325.15,226.191C325.15,226.424 324.986,226.639 324.66,226.835C324.324,227.031 323.969,227.178 323.596,227.276C323.222,227.374 322.858,227.423 322.504,227.423C321.449,227.423 320.616,227.11 320.005,226.485C319.393,225.859 319.088,224.996 319.088,223.895C319.088,223.195 319.223,222.576 319.494,222.04C319.764,221.503 320.145,221.085 320.635,220.787C321.125,220.488 321.682,220.339 322.308,220.339C323.194,220.339 323.899,220.628 324.422,221.207C324.944,221.785 325.206,222.569 325.206,223.559C325.206,223.745 325.168,223.881 325.094,223.965C325.019,224.049 324.898,224.091 324.73,224.091L320.222,224.091C320.306,225.696 321.066,226.499 322.504,226.499C322.868,226.499 323.18,226.45 323.442,226.352C323.703,226.254 323.983,226.121 324.282,225.953C324.524,225.813 324.688,225.743 324.772,225.743C324.874,225.743 324.963,225.785 325.038,225.869ZM320.887,221.781C320.527,222.154 320.315,222.681 320.25,223.363L324.212,223.363C324.193,222.672 324.02,222.142 323.694,221.774C323.367,221.405 322.91,221.221 322.322,221.221C321.724,221.221 321.246,221.407 320.887,221.781Z" style="fill-rule:nonzero;"/><path d="M327.943,227.269C327.555,227.166 327.212,227.021 326.914,226.835C326.746,226.723 326.627,226.618 326.557,226.52C326.487,226.422 326.452,226.303 326.452,226.163C326.452,226.041 326.487,225.941 326.557,225.862C326.627,225.782 326.718,225.743 326.83,225.743C326.942,225.743 327.105,225.813 327.32,225.953C327.6,226.121 327.877,226.254 328.153,226.352C328.428,226.45 328.771,226.499 329.182,226.499C329.686,226.499 330.078,226.41 330.358,226.233C330.638,226.055 330.778,225.799 330.778,225.463C330.778,225.257 330.726,225.092 330.624,224.966C330.521,224.84 330.344,224.728 330.092,224.63C329.84,224.532 329.471,224.431 328.986,224.329C328.164,224.151 327.576,223.913 327.222,223.615C326.867,223.316 326.69,222.91 326.69,222.397C326.69,221.995 326.802,221.641 327.026,221.333C327.25,221.025 327.56,220.782 327.957,220.605C328.353,220.427 328.804,220.339 329.308,220.339C329.672,220.339 330.024,220.388 330.365,220.486C330.705,220.584 331.006,220.721 331.268,220.899C331.585,221.123 331.744,221.356 331.744,221.599C331.744,221.72 331.706,221.823 331.632,221.907C331.557,221.991 331.468,222.033 331.366,222.033C331.254,222.033 331.086,221.953 330.862,221.795C330.6,221.627 330.353,221.496 330.12,221.403C329.886,221.309 329.597,221.263 329.252,221.263C328.813,221.263 328.461,221.361 328.195,221.557C327.929,221.753 327.796,222.014 327.796,222.341C327.796,222.546 327.845,222.712 327.943,222.838C328.041,222.964 328.204,223.076 328.433,223.174C328.661,223.272 328.99,223.367 329.42,223.461C330.054,223.601 330.547,223.755 330.897,223.923C331.247,224.091 331.496,224.296 331.646,224.539C331.795,224.781 331.87,225.089 331.87,225.463C331.87,226.051 331.622,226.524 331.128,226.884C330.633,227.243 329.98,227.423 329.168,227.423C328.738,227.423 328.33,227.371 327.943,227.269Z" style="fill-rule:nonzero;"/><path d="M339.094,218.82C338.842,219.095 338.716,219.508 338.716,220.059L338.716,220.507L340.27,220.507C340.428,220.507 340.55,220.549 340.634,220.633C340.718,220.717 340.76,220.829 340.76,220.969C340.76,221.109 340.718,221.216 340.634,221.291C340.55,221.365 340.428,221.403 340.27,221.403L338.716,221.403L338.716,226.835C338.716,227.012 338.662,227.15 338.555,227.248C338.447,227.346 338.314,227.395 338.156,227.395C337.988,227.395 337.85,227.346 337.743,227.248C337.635,227.15 337.582,227.012 337.582,226.835L337.582,221.403L336.644,221.403C336.485,221.403 336.361,221.363 336.273,221.284C336.184,221.204 336.14,221.099 336.14,220.969C336.14,220.829 336.184,220.717 336.273,220.633C336.361,220.549 336.485,220.507 336.644,220.507L337.582,220.507L337.582,220.255C337.582,219.415 337.792,218.754 338.212,218.274C338.632,217.793 339.234,217.525 340.018,217.469L340.382,217.441C340.624,217.422 340.799,217.445 340.907,217.511C341.014,217.576 341.068,217.693 341.068,217.861C341.068,218.131 340.904,218.285 340.578,218.323L340.214,218.351C339.719,218.388 339.346,218.544 339.094,218.82Z" style="fill-rule:nonzero;"/><path d="M347.389,220.521C347.487,220.623 347.536,220.759 347.536,220.927L347.536,226.849C347.536,227.007 347.487,227.138 347.389,227.241C347.291,227.343 347.153,227.395 346.976,227.395C346.808,227.395 346.675,227.346 346.577,227.248C346.479,227.15 346.43,227.021 346.43,226.863L346.43,226.163C346.215,226.573 345.914,226.886 345.527,227.101C345.139,227.315 344.703,227.423 344.218,227.423C343.406,227.423 342.794,227.196 342.384,226.744C341.973,226.291 341.768,225.621 341.768,224.735L341.768,220.927C341.768,220.759 341.819,220.623 341.922,220.521C342.024,220.418 342.164,220.367 342.342,220.367C342.519,220.367 342.657,220.418 342.755,220.521C342.853,220.623 342.902,220.759 342.902,220.927L342.902,224.707C342.902,225.313 343.023,225.759 343.266,226.044C343.508,226.328 343.891,226.471 344.414,226.471C345.011,226.471 345.492,226.277 345.856,225.89C346.22,225.502 346.402,224.991 346.402,224.357L346.402,220.927C346.402,220.759 346.453,220.623 346.556,220.521C346.658,220.418 346.798,220.367 346.976,220.367C347.153,220.367 347.291,220.418 347.389,220.521Z" style="fill-rule:nonzero;"/><path d="M349.811,227.248C349.703,227.15 349.65,227.012 349.65,226.835L349.65,217.945C349.65,217.767 349.703,217.63 349.811,217.532C349.918,217.434 350.056,217.385 350.224,217.385C350.382,217.385 350.515,217.434 350.623,217.532C350.73,217.63 350.784,217.767 350.784,217.945L350.784,226.835C350.784,227.012 350.73,227.15 350.623,227.248C350.515,227.346 350.382,227.395 350.224,227.395C350.056,227.395 349.918,227.346 349.811,227.248Z" style="fill-rule:nonzero;"/><path d="M353.059,227.248C352.951,227.15 352.898,227.012 352.898,226.835L352.898,217.945C352.898,217.767 352.951,217.63 353.059,217.532C353.166,217.434 353.304,217.385 353.472,217.385C353.63,217.385 353.763,217.434 353.871,217.532C353.978,217.63 354.032,217.767 354.032,217.945L354.032,226.835C354.032,227.012 353.978,227.15 353.871,227.248C353.763,227.346 353.63,227.395 353.472,227.395C353.304,227.395 353.166,227.346 353.059,227.248Z" style="fill-rule:nonzero;"/><path d="M360.885,226.989C360.395,226.699 360.017,226.286 359.751,225.75C359.485,225.213 359.352,224.59 359.352,223.881C359.352,223.171 359.485,222.548 359.751,222.012C360.017,221.475 360.395,221.062 360.885,220.773C361.375,220.483 361.942,220.339 362.586,220.339C363.23,220.339 363.799,220.483 364.294,220.773C364.788,221.062 365.169,221.475 365.435,222.012C365.701,222.548 365.834,223.171 365.834,223.881C365.834,224.59 365.701,225.213 365.435,225.75C365.169,226.286 364.788,226.699 364.294,226.989C363.799,227.278 363.23,227.423 362.586,227.423C361.942,227.423 361.375,227.278 360.885,226.989ZM364.133,225.82C364.492,225.376 364.672,224.73 364.672,223.881C364.672,223.05 364.49,222.408 364.126,221.956C363.762,221.503 363.248,221.277 362.586,221.277C361.923,221.277 361.41,221.503 361.046,221.956C360.682,222.408 360.5,223.05 360.5,223.881C360.5,224.721 360.679,225.365 361.039,225.813C361.398,226.261 361.914,226.485 362.586,226.485C363.258,226.485 363.773,226.263 364.133,225.82Z" style="fill-rule:nonzero;"/><path d="M371.49,220.843C371.49,220.992 371.448,221.111 371.364,221.2C371.28,221.288 371.135,221.342 370.93,221.361L370.51,221.403C369.884,221.459 369.42,221.68 369.117,222.068C368.813,222.455 368.662,222.91 368.662,223.433L368.662,226.835C368.662,227.021 368.61,227.161 368.508,227.255C368.405,227.348 368.27,227.395 368.102,227.395C367.934,227.395 367.796,227.346 367.689,227.248C367.581,227.15 367.528,227.012 367.528,226.835L367.528,220.927C367.528,220.749 367.584,220.612 367.696,220.514C367.808,220.416 367.943,220.367 368.102,220.367C368.251,220.367 368.377,220.416 368.48,220.514C368.582,220.612 368.634,220.745 368.634,220.913L368.634,221.697C368.83,221.286 369.107,220.973 369.467,220.759C369.826,220.544 370.239,220.418 370.706,220.381L370.902,220.367C371.294,220.339 371.49,220.497 371.49,220.843Z" style="fill-rule:nonzero;"/><path d="M142.443,242.989C141.953,242.699 141.575,242.289 141.309,241.757C141.043,241.225 140.91,240.609 140.91,239.909C140.91,239.209 141.047,238.588 141.323,238.047C141.598,237.505 141.983,237.085 142.478,236.787C142.972,236.488 143.542,236.339 144.186,236.339C144.54,236.339 144.893,236.388 145.243,236.486C145.593,236.584 145.898,236.726 146.16,236.913C146.328,237.025 146.447,237.134 146.517,237.242C146.587,237.349 146.622,237.468 146.622,237.599C146.622,237.729 146.587,237.837 146.517,237.921C146.447,238.005 146.356,238.047 146.244,238.047C146.178,238.047 146.108,238.028 146.034,237.991C145.959,237.953 145.896,237.916 145.845,237.879C145.793,237.841 145.758,237.818 145.74,237.809C145.497,237.65 145.266,237.524 145.047,237.431C144.827,237.337 144.559,237.291 144.242,237.291C143.56,237.291 143.031,237.522 142.653,237.984C142.275,238.446 142.086,239.087 142.086,239.909C142.086,240.73 142.275,241.365 142.653,241.813C143.031,242.261 143.56,242.485 144.242,242.485C144.559,242.485 144.832,242.438 145.061,242.345C145.289,242.251 145.52,242.125 145.754,241.967C145.856,241.901 145.954,241.845 146.048,241.799C146.141,241.752 146.22,241.729 146.286,241.729C146.388,241.729 146.475,241.771 146.545,241.855C146.615,241.939 146.65,242.046 146.65,242.177C146.65,242.298 146.617,242.408 146.552,242.506C146.486,242.604 146.365,242.713 146.188,242.835C145.926,243.012 145.611,243.154 145.243,243.262C144.874,243.369 144.503,243.423 144.13,243.423C143.495,243.423 142.933,243.278 142.443,242.989Z" style="fill-rule:nonzero;"/><path d="M149.149,242.989C148.659,242.699 148.281,242.286 148.015,241.75C147.749,241.213 147.616,240.59 147.616,239.881C147.616,239.171 147.749,238.548 148.015,238.012C148.281,237.475 148.659,237.062 149.149,236.773C149.639,236.483 150.206,236.339 150.85,236.339C151.494,236.339 152.063,236.483 152.558,236.773C153.052,237.062 153.433,237.475 153.699,238.012C153.965,238.548 154.098,239.171 154.098,239.881C154.098,240.59 153.965,241.213 153.699,241.75C153.433,242.286 153.052,242.699 152.558,242.989C152.063,243.278 151.494,243.423 150.85,243.423C150.206,243.423 149.639,243.278 149.149,242.989ZM152.397,241.82C152.756,241.376 152.936,240.73 152.936,239.881C152.936,239.05 152.754,238.408 152.39,237.956C152.026,237.503 151.512,237.277 150.85,237.277C150.187,237.277 149.674,237.503 149.31,237.956C148.946,238.408 148.764,239.05 148.764,239.881C148.764,240.721 148.943,241.365 149.303,241.813C149.662,242.261 150.178,242.485 150.85,242.485C151.522,242.485 152.037,242.263 152.397,241.82Z" style="fill-rule:nonzero;"/><path d="M161.672,239.041L161.672,242.835C161.672,243.012 161.623,243.15 161.525,243.248C161.427,243.346 161.289,243.395 161.112,243.395C160.934,243.395 160.794,243.346 160.692,243.248C160.589,243.15 160.538,243.012 160.538,242.835L160.538,239.111C160.538,238.476 160.414,238.014 160.167,237.725C159.919,237.435 159.525,237.291 158.984,237.291C158.358,237.291 157.859,237.482 157.486,237.865C157.112,238.247 156.926,238.765 156.926,239.419L156.926,242.835C156.926,243.012 156.877,243.15 156.779,243.248C156.681,243.346 156.543,243.395 156.366,243.395C156.188,243.395 156.048,243.346 155.946,243.248C155.843,243.15 155.792,243.012 155.792,242.835L155.792,236.927C155.792,236.759 155.843,236.623 155.946,236.521C156.048,236.418 156.188,236.367 156.366,236.367C156.534,236.367 156.667,236.418 156.765,236.521C156.863,236.623 156.912,236.754 156.912,236.913L156.912,237.627C157.136,237.207 157.448,236.887 157.85,236.668C158.251,236.448 158.708,236.339 159.222,236.339C160.855,236.339 161.672,237.239 161.672,239.041Z" style="fill-rule:nonzero;"/><path d="M167.384,242.947C167.384,243.105 167.325,243.224 167.209,243.304C167.092,243.383 166.917,243.413 166.684,243.395L166.306,243.367C165.559,243.311 165.008,243.087 164.654,242.695C164.299,242.303 164.122,241.71 164.122,240.917L164.122,237.403L163.184,237.403C163.025,237.403 162.901,237.363 162.813,237.284C162.724,237.204 162.68,237.099 162.68,236.969C162.68,236.829 162.724,236.717 162.813,236.633C162.901,236.549 163.025,236.507 163.184,236.507L164.122,236.507L164.122,234.925C164.122,234.747 164.173,234.61 164.276,234.512C164.378,234.414 164.518,234.365 164.696,234.365C164.864,234.365 164.999,234.414 165.102,234.512C165.204,234.61 165.256,234.747 165.256,234.925L165.256,236.507L166.81,236.507C166.959,236.507 167.078,236.549 167.167,236.633C167.255,236.717 167.3,236.829 167.3,236.969C167.3,237.099 167.255,237.204 167.167,237.284C167.078,237.363 166.959,237.403 166.81,237.403L165.256,237.403L165.256,240.973C165.256,241.486 165.361,241.857 165.571,242.086C165.781,242.314 166.096,242.443 166.516,242.471L166.894,242.499C167.22,242.527 167.384,242.676 167.384,242.947Z" style="fill-rule:nonzero;"/><path d="M174.048,241.869C174.122,241.953 174.16,242.06 174.16,242.191C174.16,242.424 173.996,242.639 173.67,242.835C173.334,243.031 172.979,243.178 172.606,243.276C172.232,243.374 171.868,243.423 171.514,243.423C170.459,243.423 169.626,243.11 169.015,242.485C168.403,241.859 168.098,240.996 168.098,239.895C168.098,239.195 168.233,238.576 168.504,238.04C168.774,237.503 169.155,237.085 169.645,236.787C170.135,236.488 170.692,236.339 171.318,236.339C172.204,236.339 172.909,236.628 173.432,237.207C173.954,237.785 174.216,238.569 174.216,239.559C174.216,239.745 174.178,239.881 174.104,239.965C174.029,240.049 173.908,240.091 173.74,240.091L169.232,240.091C169.316,241.696 170.076,242.499 171.514,242.499C171.878,242.499 172.19,242.45 172.452,242.352C172.713,242.254 172.993,242.121 173.292,241.953C173.534,241.813 173.698,241.743 173.782,241.743C173.884,241.743 173.973,241.785 174.048,241.869ZM169.897,237.781C169.537,238.154 169.325,238.681 169.26,239.363L173.222,239.363C173.203,238.672 173.03,238.142 172.704,237.774C172.377,237.405 171.92,237.221 171.332,237.221C170.734,237.221 170.256,237.407 169.897,237.781Z" style="fill-rule:nonzero;"/><path d="M181.762,239.041L181.762,242.835C181.762,243.012 181.713,243.15 181.615,243.248C181.517,243.346 181.379,243.395 181.202,243.395C181.024,243.395 180.884,243.346 180.782,243.248C180.679,243.15 180.628,243.012 180.628,242.835L180.628,239.111C180.628,238.476 180.504,238.014 180.257,237.725C180.009,237.435 179.615,237.291 179.074,237.291C178.448,237.291 177.949,237.482 177.576,237.865C177.202,238.247 177.016,238.765 177.016,239.419L177.016,242.835C177.016,243.012 176.967,243.15 176.869,243.248C176.771,243.346 176.633,243.395 176.456,243.395C176.278,243.395 176.138,243.346 176.036,243.248C175.933,243.15 175.882,243.012 175.882,242.835L175.882,236.927C175.882,236.759 175.933,236.623 176.036,236.521C176.138,236.418 176.278,236.367 176.456,236.367C176.624,236.367 176.757,236.418 176.855,236.521C176.953,236.623 177.002,236.754 177.002,236.913L177.002,237.627C177.226,237.207 177.538,236.887 177.94,236.668C178.341,236.448 178.798,236.339 179.312,236.339C180.945,236.339 181.762,237.239 181.762,239.041Z" style="fill-rule:nonzero;"/><path d="M187.474,242.947C187.474,243.105 187.415,243.224 187.299,243.304C187.182,243.383 187.007,243.413 186.774,243.395L186.396,243.367C185.649,243.311 185.098,243.087 184.744,242.695C184.389,242.303 184.212,241.71 184.212,240.917L184.212,237.403L183.274,237.403C183.115,237.403 182.991,237.363 182.903,237.284C182.814,237.204 182.77,237.099 182.77,236.969C182.77,236.829 182.814,236.717 182.903,236.633C182.991,236.549 183.115,236.507 183.274,236.507L184.212,236.507L184.212,234.925C184.212,234.747 184.263,234.61 184.366,234.512C184.468,234.414 184.608,234.365 184.786,234.365C184.954,234.365 185.089,234.414 185.192,234.512C185.294,234.61 185.346,234.747 185.346,234.925L185.346,236.507L186.9,236.507C187.049,236.507 187.168,236.549 187.257,236.633C187.345,236.717 187.39,236.829 187.39,236.969C187.39,237.099 187.345,237.204 187.257,237.284C187.168,237.363 187.049,237.403 186.9,237.403L185.346,237.403L185.346,240.973C185.346,241.486 185.451,241.857 185.661,242.086C185.871,242.314 186.186,242.443 186.606,242.471L186.984,242.499C187.31,242.527 187.474,242.676 187.474,242.947Z" style="fill-rule:nonzero;"/><path d="M195.846,242.947C195.846,243.105 195.787,243.224 195.671,243.304C195.554,243.383 195.379,243.413 195.146,243.395L194.768,243.367C194.021,243.311 193.47,243.087 193.116,242.695C192.761,242.303 192.584,241.71 192.584,240.917L192.584,237.403L191.646,237.403C191.487,237.403 191.363,237.363 191.275,237.284C191.186,237.204 191.142,237.099 191.142,236.969C191.142,236.829 191.186,236.717 191.275,236.633C191.363,236.549 191.487,236.507 191.646,236.507L192.584,236.507L192.584,234.925C192.584,234.747 192.635,234.61 192.738,234.512C192.84,234.414 192.98,234.365 193.158,234.365C193.326,234.365 193.461,234.414 193.564,234.512C193.666,234.61 193.718,234.747 193.718,234.925L193.718,236.507L195.272,236.507C195.421,236.507 195.54,236.549 195.629,236.633C195.717,236.717 195.762,236.829 195.762,236.969C195.762,237.099 195.717,237.204 195.629,237.284C195.54,237.363 195.421,237.403 195.272,237.403L193.718,237.403L193.718,240.973C193.718,241.486 193.823,241.857 194.033,242.086C194.243,242.314 194.558,242.443 194.978,242.471L195.356,242.499C195.682,242.527 195.846,242.676 195.846,242.947Z" style="fill-rule:nonzero;"/><path d="M198.093,242.989C197.603,242.699 197.225,242.286 196.959,241.75C196.693,241.213 196.56,240.59 196.56,239.881C196.56,239.171 196.693,238.548 196.959,238.012C197.225,237.475 197.603,237.062 198.093,236.773C198.583,236.483 199.15,236.339 199.794,236.339C200.438,236.339 201.007,236.483 201.502,236.773C201.996,237.062 202.377,237.475 202.643,238.012C202.909,238.548 203.042,239.171 203.042,239.881C203.042,240.59 202.909,241.213 202.643,241.75C202.377,242.286 201.996,242.699 201.502,242.989C201.007,243.278 200.438,243.423 199.794,243.423C199.15,243.423 198.583,243.278 198.093,242.989ZM201.341,241.82C201.7,241.376 201.88,240.73 201.88,239.881C201.88,239.05 201.698,238.408 201.334,237.956C200.97,237.503 200.456,237.277 199.794,237.277C199.131,237.277 198.618,237.503 198.254,237.956C197.89,238.408 197.708,239.05 197.708,239.881C197.708,240.721 197.887,241.365 198.247,241.813C198.606,242.261 199.122,242.485 199.794,242.485C200.466,242.485 200.981,242.263 201.341,241.82Z" style="fill-rule:nonzero;"/><path d="M205.863,242.989C205.373,242.699 204.995,242.286 204.729,241.75C204.463,241.213 204.33,240.59 204.33,239.881C204.33,239.171 204.463,238.548 204.729,238.012C204.995,237.475 205.373,237.062 205.863,236.773C206.353,236.483 206.92,236.339 207.564,236.339C208.208,236.339 208.777,236.483 209.272,236.773C209.766,237.062 210.147,237.475 210.413,238.012C210.679,238.548 210.812,239.171 210.812,239.881C210.812,240.59 210.679,241.213 210.413,241.75C210.147,242.286 209.766,242.699 209.272,242.989C208.777,243.278 208.208,243.423 207.564,243.423C206.92,243.423 206.353,243.278 205.863,242.989ZM209.111,241.82C209.47,241.376 209.65,240.73 209.65,239.881C209.65,239.05 209.468,238.408 209.104,237.956C208.74,237.503 208.226,237.277 207.564,237.277C206.901,237.277 206.388,237.503 206.024,237.956C205.66,238.408 205.478,239.05 205.478,239.881C205.478,240.721 205.657,241.365 206.017,241.813C206.376,242.261 206.892,242.485 207.564,242.485C208.236,242.485 208.751,242.263 209.111,241.82Z" style="fill-rule:nonzero;"/><path d="M216.279,243.248C216.171,243.15 216.118,243.012 216.118,242.835L216.118,233.945C216.118,233.767 216.171,233.63 216.279,233.532C216.386,233.434 216.524,233.385 216.692,233.385C216.85,233.385 216.983,233.434 217.091,233.532C217.198,233.63 217.252,233.767 217.252,233.945L217.252,242.835C217.252,243.012 217.198,243.15 217.091,243.248C216.983,243.346 216.85,243.395 216.692,243.395C216.524,243.395 216.386,243.346 216.279,243.248Z" style="fill-rule:nonzero;"/><path d="M224.714,239.027L224.714,242.835C224.714,243.003 224.665,243.138 224.567,243.241C224.469,243.343 224.336,243.395 224.168,243.395C224,243.395 223.864,243.343 223.762,243.241C223.659,243.138 223.608,243.003 223.608,242.835L223.608,242.163C223.43,242.564 223.16,242.874 222.796,243.094C222.432,243.313 222.012,243.423 221.536,243.423C221.097,243.423 220.693,243.334 220.325,243.157C219.956,242.979 219.664,242.732 219.45,242.415C219.235,242.097 219.128,241.747 219.128,241.365C219.128,240.851 219.258,240.452 219.52,240.168C219.781,239.883 220.21,239.678 220.808,239.552C221.405,239.426 222.236,239.363 223.3,239.363L223.608,239.363L223.608,238.901C223.608,238.341 223.493,237.93 223.265,237.669C223.036,237.407 222.665,237.277 222.152,237.277C221.517,237.277 220.873,237.449 220.22,237.795C219.968,237.953 219.79,238.033 219.688,238.033C219.576,238.033 219.482,237.991 219.408,237.907C219.333,237.823 219.296,237.715 219.296,237.585C219.296,237.454 219.335,237.34 219.415,237.242C219.494,237.144 219.622,237.043 219.8,236.941C220.126,236.754 220.497,236.607 220.913,236.5C221.328,236.392 221.741,236.339 222.152,236.339C223.86,236.339 224.714,237.235 224.714,239.027ZM223.069,241.96C223.428,241.582 223.608,241.094 223.608,240.497L223.608,240.091L223.356,240.091C222.534,240.091 221.909,240.126 221.48,240.196C221.05,240.266 220.745,240.382 220.563,240.546C220.381,240.709 220.29,240.949 220.29,241.267C220.29,241.631 220.423,241.932 220.689,242.17C220.955,242.408 221.288,242.527 221.69,242.527C222.25,242.527 222.709,242.338 223.069,241.96Z" style="fill-rule:nonzero;"/><path d="M230.748,236.843C230.748,236.992 230.706,237.111 230.622,237.2C230.538,237.288 230.393,237.342 230.188,237.361L229.768,237.403C229.142,237.459 228.678,237.68 228.375,238.068C228.071,238.455 227.92,238.91 227.92,239.433L227.92,242.835C227.92,243.021 227.868,243.161 227.766,243.255C227.663,243.348 227.528,243.395 227.36,243.395C227.192,243.395 227.054,243.346 226.947,243.248C226.839,243.15 226.786,243.012 226.786,242.835L226.786,236.927C226.786,236.749 226.842,236.612 226.954,236.514C227.066,236.416 227.201,236.367 227.36,236.367C227.509,236.367 227.635,236.416 227.738,236.514C227.84,236.612 227.892,236.745 227.892,236.913L227.892,237.697C228.088,237.286 228.365,236.973 228.725,236.759C229.084,236.544 229.497,236.418 229.964,236.381L230.16,236.367C230.552,236.339 230.748,236.497 230.748,236.843Z" style="fill-rule:nonzero;"/><path d="M237.538,236.521C237.64,236.623 237.692,236.759 237.692,236.927L237.692,242.863C237.692,243.88 237.43,244.648 236.908,245.166C236.385,245.684 235.61,245.943 234.584,245.943C233.585,245.943 232.754,245.747 232.092,245.355C231.756,245.168 231.588,244.953 231.588,244.711C231.588,244.58 231.623,244.473 231.693,244.389C231.763,244.305 231.854,244.263 231.966,244.263C232.059,244.263 232.227,244.328 232.47,244.459C232.796,244.627 233.118,244.762 233.436,244.865C233.753,244.967 234.131,245.019 234.57,245.019C235.232,245.019 235.732,244.844 236.068,244.494C236.404,244.144 236.572,243.633 236.572,242.961L236.572,241.757C236.376,242.195 236.075,242.531 235.669,242.765C235.263,242.998 234.784,243.115 234.234,243.115C233.636,243.115 233.107,242.975 232.645,242.695C232.183,242.415 231.823,242.018 231.567,241.505C231.31,240.991 231.182,240.399 231.182,239.727C231.182,239.055 231.31,238.462 231.567,237.949C231.823,237.435 232.183,237.039 232.645,236.759C233.107,236.479 233.636,236.339 234.234,236.339C234.775,236.339 235.246,236.455 235.648,236.689C236.049,236.922 236.352,237.253 236.558,237.683L236.558,236.927C236.558,236.759 236.607,236.623 236.705,236.521C236.803,236.418 236.94,236.367 237.118,236.367C237.295,236.367 237.435,236.418 237.538,236.521ZM235.998,241.526C236.371,241.092 236.558,240.492 236.558,239.727C236.558,238.971 236.373,238.376 236.005,237.942C235.636,237.508 235.12,237.291 234.458,237.291C233.795,237.291 233.275,237.508 232.897,237.942C232.519,238.376 232.33,238.971 232.33,239.727C232.33,240.492 232.519,241.092 232.897,241.526C233.275,241.96 233.795,242.177 234.458,242.177C235.111,242.177 235.624,241.96 235.998,241.526Z" style="fill-rule:nonzero;"/><path d="M245.336,241.869C245.41,241.953 245.448,242.06 245.448,242.191C245.448,242.424 245.284,242.639 244.958,242.835C244.622,243.031 244.267,243.178 243.894,243.276C243.52,243.374 243.156,243.423 242.802,243.423C241.747,243.423 240.914,243.11 240.303,242.485C239.691,241.859 239.386,240.996 239.386,239.895C239.386,239.195 239.521,238.576 239.792,238.04C240.062,237.503 240.443,237.085 240.933,236.787C241.423,236.488 241.98,236.339 242.606,236.339C243.492,236.339 244.197,236.628 244.72,237.207C245.242,237.785 245.504,238.569 245.504,239.559C245.504,239.745 245.466,239.881 245.392,239.965C245.317,240.049 245.196,240.091 245.028,240.091L240.52,240.091C240.604,241.696 241.364,242.499 242.802,242.499C243.166,242.499 243.478,242.45 243.74,242.352C244.001,242.254 244.281,242.121 244.58,241.953C244.822,241.813 244.986,241.743 245.07,241.743C245.172,241.743 245.261,241.785 245.336,241.869ZM241.185,237.781C240.825,238.154 240.613,238.681 240.548,239.363L244.51,239.363C244.491,238.672 244.318,238.142 243.992,237.774C243.665,237.405 243.208,237.221 242.62,237.221C242.022,237.221 241.544,237.407 241.185,237.781Z" style="fill-rule:nonzero;"/><path d="M248.269,242.086C248.413,242.268 248.486,242.541 248.486,242.905C248.486,243.642 248.248,244.263 247.772,244.767C247.678,244.869 247.571,244.921 247.45,244.921C247.356,244.921 247.272,244.886 247.198,244.816C247.123,244.746 247.086,244.664 247.086,244.571C247.086,244.468 247.123,244.379 247.198,244.305C247.44,244.053 247.594,243.74 247.66,243.367C247.454,243.348 247.284,243.271 247.149,243.136C247.013,243 246.946,242.825 246.946,242.611C246.946,242.377 247.018,242.186 247.163,242.037C247.307,241.887 247.487,241.813 247.702,241.813C247.935,241.813 248.124,241.904 248.269,242.086Z" style="fill-rule:nonzero;"/><path d="M259.574,236.633C259.658,236.717 259.7,236.829 259.7,236.969L259.7,242.835C259.7,243.012 259.646,243.15 259.539,243.248C259.431,243.346 259.298,243.395 259.14,243.395C258.972,243.395 258.834,243.346 258.727,243.248C258.619,243.15 258.566,243.012 258.566,242.835L258.566,237.403L255.5,237.403L255.5,242.835C255.5,243.012 255.446,243.15 255.339,243.248C255.231,243.346 255.098,243.395 254.94,243.395C254.772,243.395 254.634,243.346 254.527,243.248C254.419,243.15 254.366,243.012 254.366,242.835L254.366,237.403L253.428,237.403C253.269,237.403 253.145,237.363 253.057,237.284C252.968,237.204 252.924,237.099 252.924,236.969C252.924,236.829 252.968,236.717 253.057,236.633C253.145,236.549 253.269,236.507 253.428,236.507L254.366,236.507L254.366,236.269C254.366,235.429 254.576,234.768 254.996,234.288C255.416,233.807 256.018,233.534 256.802,233.469L257.138,233.441C257.586,233.403 257.81,233.543 257.81,233.861C257.81,234.131 257.651,234.285 257.334,234.323L256.998,234.351C256.503,234.388 256.13,234.544 255.878,234.82C255.626,235.095 255.5,235.508 255.5,236.059L255.5,236.507L259.21,236.507C259.368,236.507 259.49,236.549 259.574,236.633ZM259.679,233.679C259.823,233.809 259.896,233.977 259.896,234.183C259.896,234.397 259.826,234.57 259.686,234.701C259.546,234.831 259.364,234.897 259.14,234.897C258.916,234.897 258.734,234.831 258.594,234.701C258.454,234.57 258.384,234.397 258.384,234.183C258.384,233.977 258.454,233.809 258.594,233.679C258.734,233.548 258.916,233.483 259.14,233.483C259.354,233.483 259.534,233.548 259.679,233.679Z" style="fill-rule:nonzero;"/><path d="M261.975,243.248C261.867,243.15 261.814,243.012 261.814,242.835L261.814,233.945C261.814,233.767 261.867,233.63 261.975,233.532C262.082,233.434 262.22,233.385 262.388,233.385C262.546,233.385 262.679,233.434 262.787,233.532C262.894,233.63 262.948,233.767 262.948,233.945L262.948,242.835C262.948,243.012 262.894,243.15 262.787,243.248C262.679,243.346 262.546,243.395 262.388,243.395C262.22,243.395 262.082,243.346 261.975,243.248Z" style="fill-rule:nonzero;"/><path d="M270.606,241.869C270.68,241.953 270.718,242.06 270.718,242.191C270.718,242.424 270.554,242.639 270.228,242.835C269.892,243.031 269.537,243.178 269.164,243.276C268.79,243.374 268.426,243.423 268.072,243.423C267.017,243.423 266.184,243.11 265.573,242.485C264.961,241.859 264.656,240.996 264.656,239.895C264.656,239.195 264.791,238.576 265.062,238.04C265.332,237.503 265.713,237.085 266.203,236.787C266.693,236.488 267.25,236.339 267.876,236.339C268.762,236.339 269.467,236.628 269.99,237.207C270.512,237.785 270.774,238.569 270.774,239.559C270.774,239.745 270.736,239.881 270.662,239.965C270.587,240.049 270.466,240.091 270.298,240.091L265.79,240.091C265.874,241.696 266.634,242.499 268.072,242.499C268.436,242.499 268.748,242.45 269.01,242.352C269.271,242.254 269.551,242.121 269.85,241.953C270.092,241.813 270.256,241.743 270.34,241.743C270.442,241.743 270.531,241.785 270.606,241.869ZM266.455,237.781C266.095,238.154 265.883,238.681 265.818,239.363L269.78,239.363C269.761,238.672 269.588,238.142 269.262,237.774C268.935,237.405 268.478,237.221 267.89,237.221C267.292,237.221 266.814,237.407 266.455,237.781Z" style="fill-rule:nonzero;"/><path d="M273.511,243.269C273.123,243.166 272.78,243.021 272.482,242.835C272.314,242.723 272.195,242.618 272.125,242.52C272.055,242.422 272.02,242.303 272.02,242.163C272.02,242.041 272.055,241.941 272.125,241.862C272.195,241.782 272.286,241.743 272.398,241.743C272.51,241.743 272.673,241.813 272.888,241.953C273.168,242.121 273.445,242.254 273.721,242.352C273.996,242.45 274.339,242.499 274.75,242.499C275.254,242.499 275.646,242.41 275.926,242.233C276.206,242.055 276.346,241.799 276.346,241.463C276.346,241.257 276.294,241.092 276.192,240.966C276.089,240.84 275.912,240.728 275.66,240.63C275.408,240.532 275.039,240.431 274.554,240.329C273.732,240.151 273.144,239.913 272.79,239.615C272.435,239.316 272.258,238.91 272.258,238.397C272.258,237.995 272.37,237.641 272.594,237.333C272.818,237.025 273.128,236.782 273.525,236.605C273.921,236.427 274.372,236.339 274.876,236.339C275.24,236.339 275.592,236.388 275.933,236.486C276.273,236.584 276.574,236.721 276.836,236.899C277.153,237.123 277.312,237.356 277.312,237.599C277.312,237.72 277.274,237.823 277.2,237.907C277.125,237.991 277.036,238.033 276.934,238.033C276.822,238.033 276.654,237.953 276.43,237.795C276.168,237.627 275.921,237.496 275.688,237.403C275.454,237.309 275.165,237.263 274.82,237.263C274.381,237.263 274.029,237.361 273.763,237.557C273.497,237.753 273.364,238.014 273.364,238.341C273.364,238.546 273.413,238.712 273.511,238.838C273.609,238.964 273.772,239.076 274.001,239.174C274.229,239.272 274.558,239.367 274.988,239.461C275.622,239.601 276.115,239.755 276.465,239.923C276.815,240.091 277.064,240.296 277.214,240.539C277.363,240.781 277.438,241.089 277.438,241.463C277.438,242.051 277.19,242.524 276.696,242.884C276.201,243.243 275.548,243.423 274.736,243.423C274.306,243.423 273.898,243.371 273.511,243.269Z" style="fill-rule:nonzero;"/><path d="M287.784,236.773C288.241,237.062 288.596,237.473 288.848,238.005C289.1,238.537 289.226,239.153 289.226,239.853C289.226,240.562 289.1,241.185 288.848,241.722C288.596,242.258 288.241,242.676 287.784,242.975C287.326,243.273 286.799,243.423 286.202,243.423C285.67,243.423 285.205,243.306 284.809,243.073C284.412,242.839 284.111,242.508 283.906,242.079L283.906,242.835C283.906,243.003 283.857,243.138 283.759,243.241C283.661,243.343 283.523,243.395 283.346,243.395C283.168,243.395 283.028,243.343 282.926,243.241C282.823,243.138 282.772,243.003 282.772,242.835L282.772,233.931C282.772,233.772 282.823,233.641 282.926,233.539C283.028,233.436 283.168,233.385 283.346,233.385C283.523,233.385 283.661,233.434 283.759,233.532C283.857,233.63 283.906,233.763 283.906,233.931L283.906,237.683C284.111,237.253 284.412,236.922 284.809,236.689C285.205,236.455 285.67,236.339 286.202,236.339C286.799,236.339 287.326,236.483 287.784,236.773ZM287.518,241.792C287.882,241.33 288.064,240.683 288.064,239.853C288.064,239.041 287.882,238.411 287.518,237.963C287.154,237.515 286.64,237.291 285.978,237.291C285.315,237.291 284.804,237.515 284.445,237.963C284.085,238.411 283.906,239.05 283.906,239.881C283.906,240.711 284.085,241.353 284.445,241.806C284.804,242.258 285.315,242.485 285.978,242.485C286.64,242.485 287.154,242.254 287.518,241.792Z" style="fill-rule:nonzero;"/><path d="M296.24,236.381C296.38,236.381 296.506,236.427 296.618,236.521C296.73,236.614 296.786,236.731 296.786,236.871C296.786,236.955 296.767,237.029 296.73,237.095L292.796,245.579C292.749,245.681 292.681,245.761 292.593,245.817C292.504,245.873 292.413,245.901 292.32,245.901C292.18,245.901 292.056,245.856 291.949,245.768C291.841,245.679 291.788,245.565 291.788,245.425C291.788,245.35 291.806,245.275 291.844,245.201L292.824,243.087L290.052,237.095C290.014,237.029 289.996,236.959 289.996,236.885C289.996,236.745 290.059,236.623 290.185,236.521C290.311,236.418 290.448,236.367 290.598,236.367C290.691,236.367 290.782,236.395 290.871,236.451C290.959,236.507 291.027,236.586 291.074,236.689L293.412,241.939L295.75,236.717C295.852,236.493 296.016,236.381 296.24,236.381Z" style="fill-rule:nonzero;"/><path d="M303.044,236.787C303.501,237.085 303.856,237.503 304.108,238.04C304.36,238.576 304.486,239.199 304.486,239.909C304.486,240.618 304.36,241.236 304.108,241.764C303.856,242.291 303.503,242.699 303.051,242.989C302.598,243.278 302.068,243.423 301.462,243.423C300.93,243.423 300.465,243.306 300.069,243.073C299.672,242.839 299.371,242.508 299.166,242.079L299.166,245.369C299.166,245.537 299.117,245.67 299.019,245.768C298.921,245.866 298.783,245.915 298.606,245.915C298.428,245.915 298.288,245.863 298.186,245.761C298.083,245.658 298.032,245.527 298.032,245.369L298.032,236.927C298.032,236.759 298.083,236.623 298.186,236.521C298.288,236.418 298.428,236.367 298.606,236.367C298.783,236.367 298.921,236.418 299.019,236.521C299.117,236.623 299.166,236.759 299.166,236.927L299.166,237.683C299.371,237.253 299.672,236.922 300.069,236.689C300.465,236.455 300.93,236.339 301.462,236.339C302.059,236.339 302.586,236.488 303.044,236.787ZM302.778,241.813C303.142,241.365 303.324,240.73 303.324,239.909C303.324,239.087 303.142,238.446 302.778,237.984C302.414,237.522 301.9,237.291 301.238,237.291C300.575,237.291 300.064,237.515 299.705,237.963C299.345,238.411 299.166,239.05 299.166,239.881C299.166,240.711 299.345,241.353 299.705,241.806C300.064,242.258 300.575,242.485 301.238,242.485C301.9,242.485 302.414,242.261 302.778,241.813Z" style="fill-rule:nonzero;"/><path d="M311.528,239.027L311.528,242.835C311.528,243.003 311.479,243.138 311.381,243.241C311.283,243.343 311.15,243.395 310.982,243.395C310.814,243.395 310.678,243.343 310.576,243.241C310.473,243.138 310.422,243.003 310.422,242.835L310.422,242.163C310.244,242.564 309.974,242.874 309.61,243.094C309.246,243.313 308.826,243.423 308.35,243.423C307.911,243.423 307.507,243.334 307.139,243.157C306.77,242.979 306.478,242.732 306.264,242.415C306.049,242.097 305.942,241.747 305.942,241.365C305.942,240.851 306.072,240.452 306.334,240.168C306.595,239.883 307.024,239.678 307.622,239.552C308.219,239.426 309.05,239.363 310.114,239.363L310.422,239.363L310.422,238.901C310.422,238.341 310.307,237.93 310.079,237.669C309.85,237.407 309.479,237.277 308.966,237.277C308.331,237.277 307.687,237.449 307.034,237.795C306.782,237.953 306.604,238.033 306.502,238.033C306.39,238.033 306.296,237.991 306.222,237.907C306.147,237.823 306.11,237.715 306.11,237.585C306.11,237.454 306.149,237.34 306.229,237.242C306.308,237.144 306.436,237.043 306.614,236.941C306.94,236.754 307.311,236.607 307.727,236.5C308.142,236.392 308.555,236.339 308.966,236.339C310.674,236.339 311.528,237.235 311.528,239.027ZM309.883,241.96C310.242,241.582 310.422,241.094 310.422,240.497L310.422,240.091L310.17,240.091C309.348,240.091 308.723,240.126 308.294,240.196C307.864,240.266 307.559,240.382 307.377,240.546C307.195,240.709 307.104,240.949 307.104,241.267C307.104,241.631 307.237,241.932 307.503,242.17C307.769,242.408 308.102,242.527 308.504,242.527C309.064,242.527 309.523,242.338 309.883,241.96Z" style="fill-rule:nonzero;"/><path d="M314.671,243.269C314.283,243.166 313.94,243.021 313.642,242.835C313.474,242.723 313.355,242.618 313.285,242.52C313.215,242.422 313.18,242.303 313.18,242.163C313.18,242.041 313.215,241.941 313.285,241.862C313.355,241.782 313.446,241.743 313.558,241.743C313.67,241.743 313.833,241.813 314.048,241.953C314.328,242.121 314.605,242.254 314.881,242.352C315.156,242.45 315.499,242.499 315.91,242.499C316.414,242.499 316.806,242.41 317.086,242.233C317.366,242.055 317.506,241.799 317.506,241.463C317.506,241.257 317.454,241.092 317.352,240.966C317.249,240.84 317.072,240.728 316.82,240.63C316.568,240.532 316.199,240.431 315.714,240.329C314.892,240.151 314.304,239.913 313.95,239.615C313.595,239.316 313.418,238.91 313.418,238.397C313.418,237.995 313.53,237.641 313.754,237.333C313.978,237.025 314.288,236.782 314.685,236.605C315.081,236.427 315.532,236.339 316.036,236.339C316.4,236.339 316.752,236.388 317.093,236.486C317.433,236.584 317.734,236.721 317.996,236.899C318.313,237.123 318.472,237.356 318.472,237.599C318.472,237.72 318.434,237.823 318.36,237.907C318.285,237.991 318.196,238.033 318.094,238.033C317.982,238.033 317.814,237.953 317.59,237.795C317.328,237.627 317.081,237.496 316.848,237.403C316.614,237.309 316.325,237.263 315.98,237.263C315.541,237.263 315.189,237.361 314.923,237.557C314.657,237.753 314.524,238.014 314.524,238.341C314.524,238.546 314.573,238.712 314.671,238.838C314.769,238.964 314.932,239.076 315.161,239.174C315.389,239.272 315.718,239.367 316.148,239.461C316.782,239.601 317.275,239.755 317.625,239.923C317.975,240.091 318.224,240.296 318.374,240.539C318.523,240.781 318.598,241.089 318.598,241.463C318.598,242.051 318.35,242.524 317.856,242.884C317.361,243.243 316.708,243.423 315.896,243.423C315.466,243.423 315.058,243.371 314.671,243.269Z" style="fill-rule:nonzero;"/><path d="M321.391,243.269C321.003,243.166 320.66,243.021 320.362,242.835C320.194,242.723 320.075,242.618 320.005,242.52C319.935,242.422 319.9,242.303 319.9,242.163C319.9,242.041 319.935,241.941 320.005,241.862C320.075,241.782 320.166,241.743 320.278,241.743C320.39,241.743 320.553,241.813 320.768,241.953C321.048,242.121 321.325,242.254 321.601,242.352C321.876,242.45 322.219,242.499 322.63,242.499C323.134,242.499 323.526,242.41 323.806,242.233C324.086,242.055 324.226,241.799 324.226,241.463C324.226,241.257 324.174,241.092 324.072,240.966C323.969,240.84 323.792,240.728 323.54,240.63C323.288,240.532 322.919,240.431 322.434,240.329C321.612,240.151 321.024,239.913 320.67,239.615C320.315,239.316 320.138,238.91 320.138,238.397C320.138,237.995 320.25,237.641 320.474,237.333C320.698,237.025 321.008,236.782 321.405,236.605C321.801,236.427 322.252,236.339 322.756,236.339C323.12,236.339 323.472,236.388 323.813,236.486C324.153,236.584 324.454,236.721 324.716,236.899C325.033,237.123 325.192,237.356 325.192,237.599C325.192,237.72 325.154,237.823 325.08,237.907C325.005,237.991 324.916,238.033 324.814,238.033C324.702,238.033 324.534,237.953 324.31,237.795C324.048,237.627 323.801,237.496 323.568,237.403C323.334,237.309 323.045,237.263 322.7,237.263C322.261,237.263 321.909,237.361 321.643,237.557C321.377,237.753 321.244,238.014 321.244,238.341C321.244,238.546 321.293,238.712 321.391,238.838C321.489,238.964 321.652,239.076 321.881,239.174C322.109,239.272 322.438,239.367 322.868,239.461C323.502,239.601 323.995,239.755 324.345,239.923C324.695,240.091 324.944,240.296 325.094,240.539C325.243,240.781 325.318,241.089 325.318,241.463C325.318,242.051 325.07,242.524 324.576,242.884C324.081,243.243 323.428,243.423 322.616,243.423C322.186,243.423 321.778,243.371 321.391,243.269Z" style="fill-rule:nonzero;"/><path d="M331.723,243.269C331.335,243.166 330.992,243.021 330.694,242.835C330.526,242.723 330.407,242.618 330.337,242.52C330.267,242.422 330.232,242.303 330.232,242.163C330.232,242.041 330.267,241.941 330.337,241.862C330.407,241.782 330.498,241.743 330.61,241.743C330.722,241.743 330.885,241.813 331.1,241.953C331.38,242.121 331.657,242.254 331.933,242.352C332.208,242.45 332.551,242.499 332.962,242.499C333.466,242.499 333.858,242.41 334.138,242.233C334.418,242.055 334.558,241.799 334.558,241.463C334.558,241.257 334.506,241.092 334.404,240.966C334.301,240.84 334.124,240.728 333.872,240.63C333.62,240.532 333.251,240.431 332.766,240.329C331.944,240.151 331.356,239.913 331.002,239.615C330.647,239.316 330.47,238.91 330.47,238.397C330.47,237.995 330.582,237.641 330.806,237.333C331.03,237.025 331.34,236.782 331.737,236.605C332.133,236.427 332.584,236.339 333.088,236.339C333.452,236.339 333.804,236.388 334.145,236.486C334.485,236.584 334.786,236.721 335.048,236.899C335.365,237.123 335.524,237.356 335.524,237.599C335.524,237.72 335.486,237.823 335.412,237.907C335.337,237.991 335.248,238.033 335.146,238.033C335.034,238.033 334.866,237.953 334.642,237.795C334.38,237.627 334.133,237.496 333.9,237.403C333.666,237.309 333.377,237.263 333.032,237.263C332.593,237.263 332.241,237.361 331.975,237.557C331.709,237.753 331.576,238.014 331.576,238.341C331.576,238.546 331.625,238.712 331.723,238.838C331.821,238.964 331.984,239.076 332.213,239.174C332.441,239.272 332.77,239.367 333.2,239.461C333.834,239.601 334.327,239.755 334.677,239.923C335.027,240.091 335.276,240.296 335.426,240.539C335.575,240.781 335.65,241.089 335.65,241.463C335.65,242.051 335.402,242.524 334.908,242.884C334.413,243.243 333.76,243.423 332.948,243.423C332.518,243.423 332.11,243.371 331.723,243.269Z" style="fill-rule:nonzero;"/><path d="M338.499,242.989C338.009,242.699 337.631,242.289 337.365,241.757C337.099,241.225 336.966,240.609 336.966,239.909C336.966,239.209 337.103,238.588 337.379,238.047C337.654,237.505 338.039,237.085 338.534,236.787C339.028,236.488 339.598,236.339 340.242,236.339C340.596,236.339 340.949,236.388 341.299,236.486C341.649,236.584 341.954,236.726 342.216,236.913C342.384,237.025 342.503,237.134 342.573,237.242C342.643,237.349 342.678,237.468 342.678,237.599C342.678,237.729 342.643,237.837 342.573,237.921C342.503,238.005 342.412,238.047 342.3,238.047C342.234,238.047 342.164,238.028 342.09,237.991C342.015,237.953 341.952,237.916 341.901,237.879C341.849,237.841 341.814,237.818 341.796,237.809C341.553,237.65 341.322,237.524 341.103,237.431C340.883,237.337 340.615,237.291 340.298,237.291C339.616,237.291 339.087,237.522 338.709,237.984C338.331,238.446 338.142,239.087 338.142,239.909C338.142,240.73 338.331,241.365 338.709,241.813C339.087,242.261 339.616,242.485 340.298,242.485C340.615,242.485 340.888,242.438 341.117,242.345C341.345,242.251 341.576,242.125 341.81,241.967C341.912,241.901 342.01,241.845 342.104,241.799C342.197,241.752 342.276,241.729 342.342,241.729C342.444,241.729 342.531,241.771 342.601,241.855C342.671,241.939 342.706,242.046 342.706,242.177C342.706,242.298 342.673,242.408 342.608,242.506C342.542,242.604 342.421,242.713 342.244,242.835C341.982,243.012 341.667,243.154 341.299,243.262C340.93,243.369 340.559,243.423 340.186,243.423C339.551,243.423 338.989,243.278 338.499,242.989Z" style="fill-rule:nonzero;"/><path d="M349.426,239.027L349.426,242.835C349.426,243.003 349.377,243.138 349.279,243.241C349.181,243.343 349.048,243.395 348.88,243.395C348.712,243.395 348.576,243.343 348.474,243.241C348.371,243.138 348.32,243.003 348.32,242.835L348.32,242.163C348.142,242.564 347.872,242.874 347.508,243.094C347.144,243.313 346.724,243.423 346.248,243.423C345.809,243.423 345.405,243.334 345.037,243.157C344.668,242.979 344.376,242.732 344.162,242.415C343.947,242.097 343.84,241.747 343.84,241.365C343.84,240.851 343.97,240.452 344.232,240.168C344.493,239.883 344.922,239.678 345.52,239.552C346.117,239.426 346.948,239.363 348.012,239.363L348.32,239.363L348.32,238.901C348.32,238.341 348.205,237.93 347.977,237.669C347.748,237.407 347.377,237.277 346.864,237.277C346.229,237.277 345.585,237.449 344.932,237.795C344.68,237.953 344.502,238.033 344.4,238.033C344.288,238.033 344.194,237.991 344.12,237.907C344.045,237.823 344.008,237.715 344.008,237.585C344.008,237.454 344.047,237.34 344.127,237.242C344.206,237.144 344.334,237.043 344.512,236.941C344.838,236.754 345.209,236.607 345.625,236.5C346.04,236.392 346.453,236.339 346.864,236.339C348.572,236.339 349.426,237.235 349.426,239.027ZM347.781,241.96C348.14,241.582 348.32,241.094 348.32,240.497L348.32,240.091L348.068,240.091C347.246,240.091 346.621,240.126 346.192,240.196C345.762,240.266 345.457,240.382 345.275,240.546C345.093,240.709 345.002,240.949 345.002,241.267C345.002,241.631 345.135,241.932 345.401,242.17C345.667,242.408 346,242.527 346.402,242.527C346.962,242.527 347.421,242.338 347.781,241.96Z" style="fill-rule:nonzero;"/><path d="M357.378,239.041L357.378,242.835C357.378,243.012 357.329,243.15 357.231,243.248C357.133,243.346 356.995,243.395 356.818,243.395C356.64,243.395 356.5,243.346 356.398,243.248C356.295,243.15 356.244,243.012 356.244,242.835L356.244,239.111C356.244,238.476 356.12,238.014 355.873,237.725C355.625,237.435 355.231,237.291 354.69,237.291C354.064,237.291 353.565,237.482 353.192,237.865C352.818,238.247 352.632,238.765 352.632,239.419L352.632,242.835C352.632,243.012 352.583,243.15 352.485,243.248C352.387,243.346 352.249,243.395 352.072,243.395C351.894,243.395 351.754,243.346 351.652,243.248C351.549,243.15 351.498,243.012 351.498,242.835L351.498,236.927C351.498,236.759 351.549,236.623 351.652,236.521C351.754,236.418 351.894,236.367 352.072,236.367C352.24,236.367 352.373,236.418 352.471,236.521C352.569,236.623 352.618,236.754 352.618,236.913L352.618,237.627C352.842,237.207 353.154,236.887 353.556,236.668C353.957,236.448 354.414,236.339 354.928,236.339C356.561,236.339 357.378,237.239 357.378,239.041Z" style="fill-rule:nonzero;"/><path d="M365.33,239.041L365.33,242.835C365.33,243.012 365.281,243.15 365.183,243.248C365.085,243.346 364.947,243.395 364.77,243.395C364.592,243.395 364.452,243.346 364.35,243.248C364.247,243.15 364.196,243.012 364.196,242.835L364.196,239.111C364.196,238.476 364.072,238.014 363.825,237.725C363.577,237.435 363.183,237.291 362.642,237.291C362.016,237.291 361.517,237.482 361.144,237.865C360.77,238.247 360.584,238.765 360.584,239.419L360.584,242.835C360.584,243.012 360.535,243.15 360.437,243.248C360.339,243.346 360.201,243.395 360.024,243.395C359.846,243.395 359.706,243.346 359.604,243.248C359.501,243.15 359.45,243.012 359.45,242.835L359.45,236.927C359.45,236.759 359.501,236.623 359.604,236.521C359.706,236.418 359.846,236.367 360.024,236.367C360.192,236.367 360.325,236.418 360.423,236.521C360.521,236.623 360.57,236.754 360.57,236.913L360.57,237.627C360.794,237.207 361.106,236.887 361.508,236.668C361.909,236.448 362.366,236.339 362.88,236.339C364.513,236.339 365.33,237.239 365.33,239.041Z" style="fill-rule:nonzero;"/><path d="M367.563,243.248C367.455,243.15 367.402,243.012 367.402,242.835L367.402,236.927C367.402,236.749 367.455,236.612 367.563,236.514C367.67,236.416 367.808,236.367 367.976,236.367C368.144,236.367 368.279,236.416 368.382,236.514C368.484,236.612 368.536,236.749 368.536,236.927L368.536,242.835C368.536,243.021 368.484,243.161 368.382,243.255C368.279,243.348 368.144,243.395 367.976,243.395C367.808,243.395 367.67,243.346 367.563,243.248ZM367.43,234.701C367.29,234.57 367.22,234.397 367.22,234.183C367.22,233.977 367.29,233.809 367.43,233.679C367.57,233.548 367.752,233.483 367.976,233.483C368.2,233.483 368.382,233.548 368.522,233.679C368.662,233.809 368.732,233.977 368.732,234.183C368.732,234.397 368.662,234.57 368.522,234.701C368.382,234.831 368.2,234.897 367.976,234.897C367.752,234.897 367.57,234.831 367.43,234.701Z" style="fill-rule:nonzero;"/><path d="M376.53,239.041L376.53,242.835C376.53,243.012 376.481,243.15 376.383,243.248C376.285,243.346 376.147,243.395 375.97,243.395C375.792,243.395 375.652,243.346 375.55,243.248C375.447,243.15 375.396,243.012 375.396,242.835L375.396,239.111C375.396,238.476 375.272,238.014 375.025,237.725C374.777,237.435 374.383,237.291 373.842,237.291C373.216,237.291 372.717,237.482 372.344,237.865C371.97,238.247 371.784,238.765 371.784,239.419L371.784,242.835C371.784,243.012 371.735,243.15 371.637,243.248C371.539,243.346 371.401,243.395 371.224,243.395C371.046,243.395 370.906,243.346 370.804,243.248C370.701,243.15 370.65,243.012 370.65,242.835L370.65,236.927C370.65,236.759 370.701,236.623 370.804,236.521C370.906,236.418 371.046,236.367 371.224,236.367C371.392,236.367 371.525,236.418 371.623,236.521C371.721,236.623 371.77,236.754 371.77,236.913L371.77,237.627C371.994,237.207 372.306,236.887 372.708,236.668C373.109,236.448 373.566,236.339 374.08,236.339C375.713,236.339 376.53,237.239 376.53,239.041Z" style="fill-rule:nonzero;"/><path d="M384.552,236.521C384.654,236.623 384.706,236.759 384.706,236.927L384.706,242.863C384.706,243.88 384.444,244.648 383.922,245.166C383.399,245.684 382.624,245.943 381.598,245.943C380.599,245.943 379.768,245.747 379.106,245.355C378.77,245.168 378.602,244.953 378.602,244.711C378.602,244.58 378.637,244.473 378.707,244.389C378.777,244.305 378.868,244.263 378.98,244.263C379.073,244.263 379.241,244.328 379.484,244.459C379.81,244.627 380.132,244.762 380.45,244.865C380.767,244.967 381.145,245.019 381.584,245.019C382.246,245.019 382.746,244.844 383.082,244.494C383.418,244.144 383.586,243.633 383.586,242.961L383.586,241.757C383.39,242.195 383.089,242.531 382.683,242.765C382.277,242.998 381.798,243.115 381.248,243.115C380.65,243.115 380.121,242.975 379.659,242.695C379.197,242.415 378.837,242.018 378.581,241.505C378.324,240.991 378.196,240.399 378.196,239.727C378.196,239.055 378.324,238.462 378.581,237.949C378.837,237.435 379.197,237.039 379.659,236.759C380.121,236.479 380.65,236.339 381.248,236.339C381.789,236.339 382.26,236.455 382.662,236.689C383.063,236.922 383.366,237.253 383.572,237.683L383.572,236.927C383.572,236.759 383.621,236.623 383.719,236.521C383.817,236.418 383.954,236.367 384.132,236.367C384.309,236.367 384.449,236.418 384.552,236.521ZM383.012,241.526C383.385,241.092 383.572,240.492 383.572,239.727C383.572,238.971 383.387,238.376 383.019,237.942C382.65,237.508 382.134,237.291 381.472,237.291C380.809,237.291 380.289,237.508 379.911,237.942C379.533,238.376 379.344,238.971 379.344,239.727C379.344,240.492 379.533,241.092 379.911,241.526C380.289,241.96 380.809,242.177 381.472,242.177C382.125,242.177 382.638,241.96 383.012,241.526Z" style="fill-rule:nonzero;"/></g></g></svg>