<?xml version="1.0" encoding="UTF-8" standalone="no"?><!DOCTYPE svg PUBLIC "-//W3C//DTD SVG 1.1//EN" "http://www.w3.org/Graphics/SVG/1.1/DTD/svg11.dtd"><svg width="100%" height="100%" viewBox="0 0 113 38" version="1.1" xmlns="http://www.w3.org/2000/svg" xmlns:xlink="http://www.w3.org/1999/xlink" xml:space="preserve" xmlns:serif="http://www.serif.com/" style="fill-rule:evenodd;clip-rule:evenodd;stroke-linejoin:round;stroke-miterlimit:1.41421;"><g id="Group-30"><g id="_24-7-Support-and-Fir" serif:id="24/7-Support-and-Fir"><path d="M8.524,13.618c0.093,0.084 0.14,0.201 0.14,0.35c0,0.327 -0.177,0.49 -0.532,0.49l-5.488,0c-0.159,0 -0.289,-0.049 -0.392,-0.147c-0.103,-0.098 -0.154,-0.217 -0.154,-0.357c0,-0.177 0.065,-0.331 0.196,-0.462l3.374,-3.71c0.467,-0.523 0.805,-0.992 1.015,-1.407c0.21,-0.415 0.315,-0.833 0.315,-1.253c0,-0.541 -0.156,-0.957 -0.469,-1.246c-0.313,-0.289 -0.754,-0.434 -1.323,-0.434c-0.448,0 -0.877,0.082 -1.288,0.245c-0.411,0.163 -0.821,0.413 -1.232,0.749c-0.14,0.112 -0.271,0.168 -0.392,0.168c-0.103,0 -0.191,-0.049 -0.266,-0.147c-0.075,-0.098 -0.112,-0.217 -0.112,-0.357c0,-0.196 0.075,-0.355 0.224,-0.476c0.383,-0.355 0.849,-0.635 1.4,-0.84c0.551,-0.205 1.115,-0.308 1.694,-0.308c0.887,0 1.594,0.233 2.121,0.7c0.527,0.467 0.791,1.097 0.791,1.89c0,0.569 -0.128,1.115 -0.385,1.638c-0.257,0.523 -0.679,1.106 -1.267,1.75l-2.8,3.038l4.438,0c0.168,0 0.299,0.042 0.392,0.126Z" style="fill:#343534;fill-rule:nonzero;"/><path d="M17.282,11.497c0.093,0.089 0.14,0.203 0.14,0.343c0,0.317 -0.177,0.476 -0.532,0.476l-1.05,0l0,1.624c0,0.187 -0.054,0.331 -0.161,0.434c-0.107,0.103 -0.245,0.154 -0.413,0.154c-0.168,0 -0.303,-0.051 -0.406,-0.154c-0.103,-0.103 -0.154,-0.247 -0.154,-0.434l0,-1.624l-4.144,0c-0.168,0 -0.299,-0.047 -0.392,-0.14c-0.093,-0.093 -0.14,-0.21 -0.14,-0.35c0,-0.131 0.051,-0.275 0.154,-0.434l4.578,-6.622c0.131,-0.168 0.299,-0.252 0.504,-0.252c0.159,0 0.294,0.051 0.406,0.154c0.112,0.103 0.168,0.247 0.168,0.434l0,6.258l1.05,0c0.168,0 0.299,0.044 0.392,0.133Zm-5.95,-0.133l3.374,0l0,-4.858l-3.374,4.858Z" style="fill:#343534;fill-rule:nonzero;"/><path d="M18.438,15.242c-0.084,0.065 -0.177,0.098 -0.28,0.098c-0.131,0 -0.247,-0.047 -0.35,-0.14c-0.103,-0.093 -0.154,-0.21 -0.154,-0.35c0,-0.056 0.014,-0.121 0.042,-0.196l3.304,-10.332c0.037,-0.121 0.098,-0.215 0.182,-0.28c0.084,-0.065 0.177,-0.098 0.28,-0.098c0.131,0 0.247,0.047 0.35,0.14c0.103,0.093 0.154,0.215 0.154,0.364c0,0.028 -0.009,0.089 -0.028,0.182l-3.318,10.332c-0.037,0.121 -0.098,0.215 -0.182,0.28Z" style="fill:#343534;fill-rule:nonzero;"/><path d="M29.233,4.721c0.089,0.089 0.133,0.203 0.133,0.343c0,0.131 -0.042,0.275 -0.126,0.434l-4.648,8.75c-0.112,0.205 -0.275,0.308 -0.49,0.308c-0.149,0 -0.282,-0.051 -0.399,-0.154c-0.117,-0.103 -0.175,-0.229 -0.175,-0.378c0,-0.103 0.033,-0.205 0.098,-0.308l4.368,-8.162l-4.83,0c-0.168,0 -0.296,-0.042 -0.385,-0.126c-0.089,-0.084 -0.133,-0.201 -0.133,-0.35c0,-0.159 0.044,-0.28 0.133,-0.364c0.089,-0.084 0.217,-0.126 0.385,-0.126l5.684,0c0.168,0 0.296,0.044 0.385,0.133Z" style="fill:#343534;fill-rule:nonzero;"/><path d="M36.193,14.255c-0.639,-0.21 -1.15,-0.492 -1.533,-0.847c-0.14,-0.131 -0.21,-0.294 -0.21,-0.49c0,-0.131 0.038,-0.245 0.112,-0.343c0.075,-0.098 0.164,-0.147 0.266,-0.147c0.122,0 0.252,0.051 0.392,0.154c0.868,0.672 1.858,1.008 2.968,1.008c0.803,0 1.419,-0.154 1.848,-0.462c0.43,-0.308 0.644,-0.747 0.644,-1.316c0,-0.327 -0.102,-0.59 -0.308,-0.791c-0.205,-0.201 -0.476,-0.362 -0.812,-0.483c-0.336,-0.121 -0.788,-0.247 -1.358,-0.378c-0.765,-0.177 -1.393,-0.364 -1.883,-0.56c-0.49,-0.196 -0.886,-0.476 -1.19,-0.84c-0.303,-0.364 -0.455,-0.84 -0.455,-1.428c0,-0.56 0.152,-1.057 0.455,-1.491c0.304,-0.434 0.728,-0.77 1.274,-1.008c0.546,-0.238 1.169,-0.357 1.869,-0.357c0.654,0 1.263,0.1 1.827,0.301c0.565,0.201 1.039,0.488 1.421,0.861c0.15,0.149 0.224,0.313 0.224,0.49c0,0.131 -0.037,0.245 -0.112,0.343c-0.074,0.098 -0.163,0.147 -0.266,0.147c-0.102,0 -0.238,-0.051 -0.406,-0.154c-0.457,-0.373 -0.882,-0.635 -1.274,-0.784c-0.392,-0.149 -0.863,-0.224 -1.414,-0.224c-0.774,0 -1.376,0.161 -1.806,0.483c-0.429,0.322 -0.644,0.772 -0.644,1.351c0,0.495 0.189,0.866 0.567,1.113c0.378,0.247 0.959,0.464 1.743,0.651c0.85,0.205 1.517,0.394 2.002,0.567c0.486,0.173 0.889,0.432 1.211,0.777c0.322,0.345 0.483,0.807 0.483,1.386c0,0.551 -0.151,1.036 -0.455,1.456c-0.303,0.42 -0.73,0.747 -1.281,0.98c-0.55,0.233 -1.18,0.35 -1.89,0.35c-0.7,0 -1.369,-0.105 -2.009,-0.315Z" style="fill:#343534;fill-rule:nonzero;"/><path d="M49.123,7.654c0.098,0.103 0.147,0.238 0.147,0.406l0,5.922c0,0.159 -0.049,0.289 -0.147,0.392c-0.098,0.103 -0.235,0.154 -0.413,0.154c-0.168,0 -0.301,-0.049 -0.399,-0.147c-0.098,-0.098 -0.147,-0.226 -0.147,-0.385l0,-0.7c-0.214,0.411 -0.515,0.723 -0.903,0.938c-0.387,0.215 -0.823,0.322 -1.309,0.322c-0.812,0 -1.423,-0.226 -1.834,-0.679c-0.41,-0.453 -0.616,-1.122 -0.616,-2.009l0,-3.808c0,-0.168 0.052,-0.303 0.154,-0.406c0.103,-0.103 0.243,-0.154 0.42,-0.154c0.178,0 0.315,0.051 0.413,0.154c0.098,0.103 0.147,0.238 0.147,0.406l0,3.78c0,0.607 0.122,1.052 0.364,1.337c0.243,0.285 0.626,0.427 1.148,0.427c0.598,0 1.078,-0.194 1.442,-0.581c0.364,-0.387 0.546,-0.898 0.546,-1.533l0,-3.43c0,-0.168 0.052,-0.303 0.154,-0.406c0.103,-0.103 0.243,-0.154 0.42,-0.154c0.178,0 0.315,0.051 0.413,0.154Z" style="fill:#343534;fill-rule:nonzero;"/><path d="M56.404,7.92c0.458,0.299 0.812,0.716 1.064,1.253c0.252,0.537 0.378,1.16 0.378,1.869c0,0.709 -0.126,1.328 -0.378,1.855c-0.252,0.527 -0.604,0.936 -1.057,1.225c-0.452,0.289 -0.982,0.434 -1.589,0.434c-0.532,0 -0.996,-0.117 -1.393,-0.35c-0.396,-0.233 -0.697,-0.565 -0.903,-0.994l0,3.29c0,0.168 -0.049,0.301 -0.147,0.399c-0.098,0.098 -0.235,0.147 -0.413,0.147c-0.177,0 -0.317,-0.051 -0.42,-0.154c-0.102,-0.103 -0.154,-0.233 -0.154,-0.392l0,-8.442c0,-0.168 0.052,-0.303 0.154,-0.406c0.103,-0.103 0.243,-0.154 0.42,-0.154c0.178,0 0.315,0.051 0.413,0.154c0.098,0.103 0.147,0.238 0.147,0.406l0,0.756c0.206,-0.429 0.507,-0.761 0.903,-0.994c0.397,-0.233 0.861,-0.35 1.393,-0.35c0.598,0 1.125,0.149 1.582,0.448Zm-0.266,5.026c0.364,-0.448 0.546,-1.083 0.546,-1.904c0,-0.821 -0.182,-1.463 -0.546,-1.925c-0.364,-0.462 -0.877,-0.693 -1.54,-0.693c-0.662,0 -1.173,0.224 -1.533,0.672c-0.359,0.448 -0.539,1.087 -0.539,1.918c0,0.831 0.18,1.472 0.539,1.925c0.36,0.453 0.871,0.679 1.533,0.679c0.663,0 1.176,-0.224 1.54,-0.672Z" style="fill:#343534;fill-rule:nonzero;"/><path d="M64.56,7.92c0.458,0.299 0.812,0.716 1.064,1.253c0.252,0.537 0.378,1.16 0.378,1.869c0,0.709 -0.126,1.328 -0.378,1.855c-0.252,0.527 -0.604,0.936 -1.057,1.225c-0.452,0.289 -0.982,0.434 -1.589,0.434c-0.532,0 -0.996,-0.117 -1.393,-0.35c-0.396,-0.233 -0.697,-0.565 -0.903,-0.994l0,3.29c0,0.168 -0.049,0.301 -0.147,0.399c-0.098,0.098 -0.235,0.147 -0.413,0.147c-0.177,0 -0.317,-0.051 -0.42,-0.154c-0.102,-0.103 -0.154,-0.233 -0.154,-0.392l0,-8.442c0,-0.168 0.052,-0.303 0.154,-0.406c0.103,-0.103 0.243,-0.154 0.42,-0.154c0.178,0 0.315,0.051 0.413,0.154c0.098,0.103 0.147,0.238 0.147,0.406l0,0.756c0.206,-0.429 0.507,-0.761 0.903,-0.994c0.397,-0.233 0.861,-0.35 1.393,-0.35c0.598,0 1.125,0.149 1.582,0.448Zm-0.266,5.026c0.364,-0.448 0.546,-1.083 0.546,-1.904c0,-0.821 -0.182,-1.463 -0.546,-1.925c-0.364,-0.462 -0.877,-0.693 -1.54,-0.693c-0.662,0 -1.173,0.224 -1.533,0.672c-0.359,0.448 -0.539,1.087 -0.539,1.918c0,0.831 0.18,1.472 0.539,1.925c0.36,0.453 0.871,0.679 1.533,0.679c0.663,0 1.176,-0.224 1.54,-0.672Z" style="fill:#343534;fill-rule:nonzero;"/><path d="M68.831,14.122c-0.49,-0.289 -0.868,-0.702 -1.134,-1.239c-0.266,-0.537 -0.399,-1.16 -0.399,-1.869c0,-0.709 0.133,-1.332 0.399,-1.869c0.266,-0.537 0.644,-0.95 1.134,-1.239c0.49,-0.289 1.057,-0.434 1.701,-0.434c0.644,0 1.214,0.145 1.708,0.434c0.495,0.289 0.875,0.702 1.141,1.239c0.266,0.537 0.399,1.16 0.399,1.869c0,0.709 -0.133,1.332 -0.399,1.869c-0.266,0.537 -0.646,0.95 -1.141,1.239c-0.494,0.289 -1.064,0.434 -1.708,0.434c-0.644,0 -1.211,-0.145 -1.701,-0.434Zm3.248,-1.169c0.36,-0.443 0.539,-1.09 0.539,-1.939c0,-0.831 -0.182,-1.472 -0.546,-1.925c-0.364,-0.453 -0.877,-0.679 -1.54,-0.679c-0.662,0 -1.176,0.226 -1.54,0.679c-0.364,0.453 -0.546,1.094 -0.546,1.925c0,0.84 0.18,1.484 0.539,1.932c0.36,0.448 0.875,0.672 1.547,0.672c0.672,0 1.188,-0.222 1.547,-0.665Z" style="fill:#343534;fill-rule:nonzero;"/><path d="M79.444,7.976c0,0.149 -0.042,0.268 -0.126,0.357c-0.084,0.089 -0.228,0.142 -0.434,0.161l-0.42,0.042c-0.625,0.056 -1.089,0.278 -1.393,0.665c-0.303,0.387 -0.455,0.842 -0.455,1.365l0,3.402c0,0.187 -0.051,0.327 -0.154,0.42c-0.102,0.093 -0.238,0.14 -0.406,0.14c-0.168,0 -0.305,-0.049 -0.413,-0.147c-0.107,-0.098 -0.161,-0.236 -0.161,-0.413l0,-5.908c0,-0.177 0.056,-0.315 0.168,-0.413c0.112,-0.098 0.248,-0.147 0.406,-0.147c0.15,0 0.276,0.049 0.378,0.147c0.103,0.098 0.154,0.231 0.154,0.399l0,0.784c0.196,-0.411 0.474,-0.723 0.833,-0.938c0.36,-0.215 0.773,-0.341 1.239,-0.378l0.196,-0.014c0.392,-0.028 0.588,0.131 0.588,0.476Z" style="fill:#343534;fill-rule:nonzero;"/><path d="M84.618,14.08c0,0.159 -0.058,0.278 -0.175,0.357c-0.116,0.079 -0.291,0.11 -0.525,0.091l-0.378,-0.028c-0.746,-0.056 -1.297,-0.28 -1.652,-0.672c-0.354,-0.392 -0.532,-0.985 -0.532,-1.778l0,-3.514l-0.938,0c-0.158,0 -0.282,-0.04 -0.371,-0.119c-0.088,-0.079 -0.133,-0.184 -0.133,-0.315c0,-0.14 0.045,-0.252 0.133,-0.336c0.089,-0.084 0.213,-0.126 0.371,-0.126l0.938,0l0,-1.582c0,-0.177 0.052,-0.315 0.154,-0.413c0.103,-0.098 0.243,-0.147 0.42,-0.147c0.168,0 0.304,0.049 0.406,0.147c0.103,0.098 0.154,0.236 0.154,0.413l0,1.582l1.554,0c0.15,0 0.269,0.042 0.357,0.126c0.089,0.084 0.133,0.196 0.133,0.336c0,0.131 -0.044,0.236 -0.133,0.315c-0.088,0.079 -0.207,0.119 -0.357,0.119l-1.554,0l0,3.57c0,0.513 0.105,0.884 0.315,1.113c0.21,0.229 0.525,0.357 0.945,0.385l0.378,0.028c0.327,0.028 0.49,0.177 0.49,0.448Z" style="fill:#343534;fill-rule:nonzero;"/><path d="M94.714,10.16l0,3.808c0,0.168 -0.049,0.303 -0.147,0.406c-0.098,0.103 -0.231,0.154 -0.399,0.154c-0.168,0 -0.303,-0.051 -0.406,-0.154c-0.102,-0.103 -0.154,-0.238 -0.154,-0.406l0,-0.672c-0.177,0.401 -0.448,0.712 -0.812,0.931c-0.364,0.219 -0.784,0.329 -1.26,0.329c-0.438,0 -0.842,-0.089 -1.211,-0.266c-0.368,-0.177 -0.66,-0.425 -0.875,-0.742c-0.214,-0.317 -0.322,-0.667 -0.322,-1.05c0,-0.513 0.131,-0.912 0.392,-1.197c0.262,-0.285 0.691,-0.49 1.288,-0.616c0.598,-0.126 1.428,-0.189 2.492,-0.189l0.308,0l0,-0.462c0,-0.56 -0.114,-0.971 -0.343,-1.232c-0.228,-0.261 -0.599,-0.392 -1.113,-0.392c-0.634,0 -1.278,0.173 -1.932,0.518c-0.252,0.159 -0.429,0.238 -0.532,0.238c-0.112,0 -0.205,-0.042 -0.28,-0.126c-0.074,-0.084 -0.112,-0.191 -0.112,-0.322c0,-0.131 0.04,-0.245 0.119,-0.343c0.08,-0.098 0.208,-0.198 0.385,-0.301c0.327,-0.187 0.698,-0.334 1.113,-0.441c0.416,-0.107 0.829,-0.161 1.239,-0.161c1.708,0 2.562,0.896 2.562,2.688Zm-1.645,2.933c0.36,-0.378 0.539,-0.866 0.539,-1.463l0,-0.406l-0.252,0c-0.821,0 -1.446,0.035 -1.876,0.105c-0.429,0.07 -0.735,0.187 -0.917,0.35c-0.182,0.163 -0.273,0.404 -0.273,0.721c0,0.364 0.133,0.665 0.399,0.903c0.266,0.238 0.6,0.357 1.001,0.357c0.56,0 1.02,-0.189 1.379,-0.567Z" style="fill:#343534;fill-rule:nonzero;"/><path d="M102.675,10.174l0,3.794c0,0.177 -0.049,0.315 -0.147,0.413c-0.098,0.098 -0.236,0.147 -0.413,0.147c-0.178,0 -0.318,-0.049 -0.42,-0.147c-0.103,-0.098 -0.154,-0.236 -0.154,-0.413l0,-3.724c0,-0.635 -0.124,-1.097 -0.371,-1.386c-0.248,-0.289 -0.642,-0.434 -1.183,-0.434c-0.626,0 -1.125,0.191 -1.498,0.574c-0.374,0.383 -0.56,0.901 -0.56,1.554l0,3.416c0,0.177 -0.049,0.315 -0.147,0.413c-0.098,0.098 -0.236,0.147 -0.413,0.147c-0.178,0 -0.318,-0.049 -0.42,-0.147c-0.103,-0.098 -0.154,-0.236 -0.154,-0.413l0,-5.908c0,-0.168 0.051,-0.303 0.154,-0.406c0.102,-0.103 0.242,-0.154 0.42,-0.154c0.168,0 0.301,0.051 0.399,0.154c0.098,0.103 0.147,0.233 0.147,0.392l0,0.714c0.224,-0.42 0.536,-0.74 0.938,-0.959c0.401,-0.219 0.858,-0.329 1.372,-0.329c1.633,0 2.45,0.901 2.45,2.702Z" style="fill:#343534;fill-rule:nonzero;"/><path d="M110.649,4.672c0.102,0.103 0.154,0.233 0.154,0.392l0,8.904c0,0.168 -0.052,0.303 -0.154,0.406c-0.103,0.103 -0.243,0.154 -0.42,0.154c-0.178,0 -0.315,-0.051 -0.413,-0.154c-0.098,-0.103 -0.147,-0.238 -0.147,-0.406l0,-0.756c-0.206,0.429 -0.507,0.761 -0.903,0.994c-0.397,0.233 -0.861,0.35 -1.393,0.35c-0.598,0 -1.125,-0.149 -1.582,-0.448c-0.458,-0.299 -0.812,-0.716 -1.064,-1.253c-0.252,-0.537 -0.378,-1.16 -0.378,-1.869c0,-0.7 0.126,-1.316 0.378,-1.848c0.252,-0.532 0.606,-0.943 1.064,-1.232c0.457,-0.289 0.984,-0.434 1.582,-0.434c0.532,0 0.996,0.117 1.393,0.35c0.396,0.233 0.697,0.565 0.903,0.994l0,-3.752c0,-0.168 0.049,-0.301 0.147,-0.399c0.098,-0.098 0.235,-0.147 0.413,-0.147c0.177,0 0.317,0.051 0.42,0.154Zm-1.519,8.267c0.359,-0.453 0.539,-1.094 0.539,-1.925c0,-0.831 -0.18,-1.47 -0.539,-1.918c-0.36,-0.448 -0.871,-0.672 -1.533,-0.672c-0.663,0 -1.179,0.224 -1.547,0.672c-0.369,0.448 -0.553,1.078 -0.553,1.89c0,0.831 0.184,1.477 0.553,1.939c0.368,0.462 0.884,0.693 1.547,0.693c0.662,0 1.173,-0.226 1.533,-0.679Z" style="fill:#343534;fill-rule:nonzero;"/><path d="M2.392,33.367c-0.103,-0.107 -0.154,-0.25 -0.154,-0.427l0,-8.792c0,-0.168 0.054,-0.303 0.161,-0.406c0.107,-0.103 0.25,-0.154 0.427,-0.154l5.096,0c0.168,0 0.299,0.042 0.392,0.126c0.093,0.084 0.14,0.205 0.14,0.364c0,0.149 -0.047,0.266 -0.14,0.35c-0.093,0.084 -0.224,0.126 -0.392,0.126l-4.55,0l0,3.402l4.27,0c0.168,0 0.299,0.042 0.392,0.126c0.093,0.084 0.14,0.205 0.14,0.364c0,0.149 -0.047,0.266 -0.14,0.35c-0.093,0.084 -0.224,0.126 -0.392,0.126l-4.27,0l0,4.018c0,0.177 -0.049,0.32 -0.147,0.427c-0.098,0.107 -0.236,0.161 -0.413,0.161c-0.177,0 -0.317,-0.054 -0.42,-0.161Z" style="fill:#343534;fill-rule:nonzero;"/><path d="M10.037,33.381c-0.107,-0.098 -0.161,-0.236 -0.161,-0.413l0,-5.908c0,-0.177 0.054,-0.315 0.161,-0.413c0.107,-0.098 0.245,-0.147 0.413,-0.147c0.168,0 0.303,0.049 0.406,0.147c0.103,0.098 0.154,0.236 0.154,0.413l0,5.908c0,0.187 -0.051,0.327 -0.154,0.42c-0.103,0.093 -0.238,0.14 -0.406,0.14c-0.168,0 -0.306,-0.049 -0.413,-0.147Zm-0.133,-8.547c-0.14,-0.131 -0.21,-0.303 -0.21,-0.518c0,-0.205 0.07,-0.373 0.21,-0.504c0.14,-0.131 0.322,-0.196 0.546,-0.196c0.224,0 0.406,0.065 0.546,0.196c0.14,0.131 0.21,0.299 0.21,0.504c0,0.215 -0.07,0.387 -0.21,0.518c-0.14,0.131 -0.322,0.196 -0.546,0.196c-0.224,0 -0.406,-0.065 -0.546,-0.196Z" style="fill:#343534;fill-rule:nonzero;"/><path d="M17.094,26.976c0,0.149 -0.042,0.268 -0.126,0.357c-0.084,0.089 -0.229,0.142 -0.434,0.161l-0.42,0.042c-0.625,0.056 -1.09,0.278 -1.393,0.665c-0.303,0.387 -0.455,0.842 -0.455,1.365l0,3.402c0,0.187 -0.051,0.327 -0.154,0.42c-0.103,0.093 -0.238,0.14 -0.406,0.14c-0.168,0 -0.306,-0.049 -0.413,-0.147c-0.107,-0.098 -0.161,-0.236 -0.161,-0.413l0,-5.908c0,-0.177 0.056,-0.315 0.168,-0.413c0.112,-0.098 0.247,-0.147 0.406,-0.147c0.149,0 0.275,0.049 0.378,0.147c0.103,0.098 0.154,0.231 0.154,0.399l0,0.784c0.196,-0.411 0.474,-0.723 0.833,-0.938c0.359,-0.215 0.772,-0.341 1.239,-0.378l0.196,-0.014c0.392,-0.028 0.588,0.131 0.588,0.476Z" style="fill:#343534;fill-rule:nonzero;"/><path d="M27.938,29.174l0,3.794c0,0.177 -0.051,0.315 -0.154,0.413c-0.103,0.098 -0.238,0.147 -0.406,0.147c-0.168,0 -0.306,-0.049 -0.413,-0.147c-0.107,-0.098 -0.161,-0.236 -0.161,-0.413l0,-3.766c0,-0.625 -0.112,-1.078 -0.336,-1.358c-0.224,-0.28 -0.574,-0.42 -1.05,-0.42c-0.569,0 -1.017,0.191 -1.344,0.574c-0.327,0.383 -0.49,0.901 -0.49,1.554l0,3.416c0,0.177 -0.054,0.315 -0.161,0.413c-0.107,0.098 -0.245,0.147 -0.413,0.147c-0.168,0 -0.303,-0.049 -0.406,-0.147c-0.103,-0.098 -0.154,-0.236 -0.154,-0.413l0,-3.766c0,-0.625 -0.112,-1.078 -0.336,-1.358c-0.224,-0.28 -0.579,-0.42 -1.064,-0.42c-0.56,0 -1.006,0.191 -1.337,0.574c-0.331,0.383 -0.497,0.901 -0.497,1.554l0,3.416c0,0.177 -0.051,0.315 -0.154,0.413c-0.103,0.098 -0.238,0.147 -0.406,0.147c-0.168,0 -0.306,-0.049 -0.413,-0.147c-0.107,-0.098 -0.161,-0.236 -0.161,-0.413l0,-5.908c0,-0.168 0.054,-0.303 0.161,-0.406c0.107,-0.103 0.245,-0.154 0.413,-0.154c0.159,0 0.289,0.049 0.392,0.147c0.103,0.098 0.154,0.231 0.154,0.399l0,0.672c0.205,-0.401 0.49,-0.709 0.854,-0.924c0.364,-0.215 0.784,-0.322 1.26,-0.322c1.064,0 1.759,0.448 2.086,1.344c0.196,-0.411 0.495,-0.737 0.896,-0.98c0.401,-0.243 0.859,-0.364 1.372,-0.364c1.512,0 2.268,0.901 2.268,2.702Z" style="fill:#343534;fill-rule:nonzero;"/><path d="M39.804,26.528c0.14,0 0.266,0.047 0.378,0.14c0.112,0.093 0.168,0.21 0.168,0.35c0,0.065 -0.014,0.135 -0.042,0.21l-2.324,5.88c-0.056,0.121 -0.138,0.217 -0.245,0.287c-0.107,0.07 -0.226,0.105 -0.357,0.105c-0.121,0 -0.236,-0.035 -0.343,-0.105c-0.107,-0.07 -0.189,-0.166 -0.245,-0.287l-1.932,-4.914l-1.918,4.914c-0.047,0.121 -0.126,0.217 -0.238,0.287c-0.112,0.07 -0.233,0.105 -0.364,0.105c-0.121,0 -0.238,-0.035 -0.35,-0.105c-0.112,-0.07 -0.196,-0.166 -0.252,-0.287l-2.324,-5.866c-0.028,-0.075 -0.042,-0.14 -0.042,-0.196c0,-0.149 0.063,-0.275 0.189,-0.378c0.126,-0.103 0.264,-0.154 0.413,-0.154c0.224,0 0.383,0.112 0.476,0.336l1.918,5.166l1.974,-5.124c0.056,-0.121 0.133,-0.215 0.231,-0.28c0.098,-0.065 0.203,-0.098 0.315,-0.098c0.121,0 0.231,0.033 0.329,0.098c0.098,0.065 0.17,0.159 0.217,0.28l1.974,5.11l1.932,-5.138c0.093,-0.224 0.247,-0.336 0.462,-0.336Z" style="fill:#343534;fill-rule:nonzero;"/><path d="M47.036,29.16l0,3.808c0,0.168 -0.049,0.303 -0.147,0.406c-0.098,0.103 -0.231,0.154 -0.399,0.154c-0.168,0 -0.303,-0.051 -0.406,-0.154c-0.102,-0.103 -0.154,-0.238 -0.154,-0.406l0,-0.672c-0.177,0.401 -0.448,0.712 -0.812,0.931c-0.364,0.219 -0.784,0.329 -1.26,0.329c-0.438,0 -0.842,-0.089 -1.211,-0.266c-0.368,-0.177 -0.66,-0.425 -0.875,-0.742c-0.214,-0.317 -0.322,-0.667 -0.322,-1.05c0,-0.513 0.131,-0.912 0.392,-1.197c0.262,-0.285 0.691,-0.49 1.288,-0.616c0.598,-0.126 1.428,-0.189 2.492,-0.189l0.308,0l0,-0.462c0,-0.56 -0.114,-0.971 -0.343,-1.232c-0.228,-0.261 -0.599,-0.392 -1.113,-0.392c-0.634,0 -1.278,0.173 -1.932,0.518c-0.252,0.159 -0.429,0.238 -0.532,0.238c-0.112,0 -0.205,-0.042 -0.28,-0.126c-0.074,-0.084 -0.112,-0.191 -0.112,-0.322c0,-0.131 0.04,-0.245 0.119,-0.343c0.08,-0.098 0.208,-0.198 0.385,-0.301c0.327,-0.187 0.698,-0.334 1.113,-0.441c0.416,-0.107 0.829,-0.161 1.239,-0.161c1.708,0 2.562,0.896 2.562,2.688Zm-1.645,2.933c0.36,-0.378 0.539,-0.866 0.539,-1.463l0,-0.406l-0.252,0c-0.821,0 -1.446,0.035 -1.876,0.105c-0.429,0.07 -0.735,0.187 -0.917,0.35c-0.182,0.163 -0.273,0.404 -0.273,0.721c0,0.364 0.133,0.665 0.399,0.903c0.266,0.238 0.6,0.357 1.001,0.357c0.56,0 1.02,-0.189 1.379,-0.567Z" style="fill:#343534;fill-rule:nonzero;"/><path d="M53.078,26.976c0,0.149 -0.042,0.268 -0.126,0.357c-0.084,0.089 -0.228,0.142 -0.434,0.161l-0.42,0.042c-0.625,0.056 -1.089,0.278 -1.393,0.665c-0.303,0.387 -0.455,0.842 -0.455,1.365l0,3.402c0,0.187 -0.051,0.327 -0.154,0.42c-0.102,0.093 -0.238,0.14 -0.406,0.14c-0.168,0 -0.305,-0.049 -0.413,-0.147c-0.107,-0.098 -0.161,-0.236 -0.161,-0.413l0,-5.908c0,-0.177 0.056,-0.315 0.168,-0.413c0.112,-0.098 0.248,-0.147 0.406,-0.147c0.15,0 0.276,0.049 0.378,0.147c0.103,0.098 0.154,0.231 0.154,0.399l0,0.784c0.196,-0.411 0.474,-0.723 0.833,-0.938c0.36,-0.215 0.773,-0.341 1.239,-0.378l0.196,-0.014c0.392,-0.028 0.588,0.131 0.588,0.476Z" style="fill:#343534;fill-rule:nonzero;"/><path d="M59.47,32.002c0.075,0.084 0.112,0.191 0.112,0.322c0,0.233 -0.163,0.448 -0.49,0.644c-0.336,0.196 -0.69,0.343 -1.064,0.441c-0.373,0.098 -0.737,0.147 -1.092,0.147c-1.054,0 -1.887,-0.313 -2.499,-0.938c-0.611,-0.625 -0.917,-1.489 -0.917,-2.59c0,-0.7 0.136,-1.318 0.406,-1.855c0.271,-0.537 0.651,-0.954 1.141,-1.253c0.49,-0.299 1.048,-0.448 1.673,-0.448c0.887,0 1.592,0.289 2.114,0.868c0.523,0.579 0.784,1.363 0.784,2.352c0,0.187 -0.037,0.322 -0.112,0.406c-0.074,0.084 -0.196,0.126 -0.364,0.126l-4.508,0c0.084,1.605 0.845,2.408 2.282,2.408c0.364,0 0.677,-0.049 0.938,-0.147c0.262,-0.098 0.542,-0.231 0.84,-0.399c0.243,-0.14 0.406,-0.21 0.49,-0.21c0.103,0 0.192,0.042 0.266,0.126Zm-4.151,-4.088c-0.359,0.373 -0.571,0.901 -0.637,1.582l3.962,0c-0.018,-0.691 -0.191,-1.22 -0.518,-1.589c-0.326,-0.369 -0.784,-0.553 -1.372,-0.553c-0.597,0 -1.075,0.187 -1.435,0.56Z" style="fill:#343534;fill-rule:nonzero;"/><path d="M70.525,26.654c0.098,0.103 0.147,0.238 0.147,0.406l0,5.922c0,0.159 -0.049,0.289 -0.147,0.392c-0.098,0.103 -0.235,0.154 -0.413,0.154c-0.168,0 -0.301,-0.049 -0.399,-0.147c-0.098,-0.098 -0.147,-0.226 -0.147,-0.385l0,-0.7c-0.214,0.411 -0.515,0.723 -0.903,0.938c-0.387,0.215 -0.823,0.322 -1.309,0.322c-0.812,0 -1.423,-0.226 -1.834,-0.679c-0.41,-0.453 -0.616,-1.122 -0.616,-2.009l0,-3.808c0,-0.168 0.052,-0.303 0.154,-0.406c0.103,-0.103 0.243,-0.154 0.42,-0.154c0.178,0 0.315,0.051 0.413,0.154c0.098,0.103 0.147,0.238 0.147,0.406l0,3.78c0,0.607 0.122,1.052 0.364,1.337c0.243,0.285 0.626,0.427 1.148,0.427c0.598,0 1.078,-0.194 1.442,-0.581c0.364,-0.387 0.546,-0.898 0.546,-1.533l0,-3.43c0,-0.168 0.052,-0.303 0.154,-0.406c0.103,-0.103 0.243,-0.154 0.42,-0.154c0.178,0 0.315,0.051 0.413,0.154Z" style="fill:#343534;fill-rule:nonzero;"/><path d="M77.806,26.92c0.458,0.299 0.812,0.716 1.064,1.253c0.252,0.537 0.378,1.16 0.378,1.869c0,0.709 -0.126,1.328 -0.378,1.855c-0.252,0.527 -0.604,0.936 -1.057,1.225c-0.452,0.289 -0.982,0.434 -1.589,0.434c-0.532,0 -0.996,-0.117 -1.393,-0.35c-0.396,-0.233 -0.697,-0.565 -0.903,-0.994l0,3.29c0,0.168 -0.049,0.301 -0.147,0.399c-0.098,0.098 -0.235,0.147 -0.413,0.147c-0.177,0 -0.317,-0.051 -0.42,-0.154c-0.102,-0.103 -0.154,-0.233 -0.154,-0.392l0,-8.442c0,-0.168 0.052,-0.303 0.154,-0.406c0.103,-0.103 0.243,-0.154 0.42,-0.154c0.178,0 0.315,0.051 0.413,0.154c0.098,0.103 0.147,0.238 0.147,0.406l0,0.756c0.206,-0.429 0.507,-0.761 0.903,-0.994c0.397,-0.233 0.861,-0.35 1.393,-0.35c0.598,0 1.125,0.149 1.582,0.448Zm-0.266,5.026c0.364,-0.448 0.546,-1.083 0.546,-1.904c0,-0.821 -0.182,-1.463 -0.546,-1.925c-0.364,-0.462 -0.877,-0.693 -1.54,-0.693c-0.662,0 -1.173,0.224 -1.533,0.672c-0.359,0.448 -0.539,1.087 -0.539,1.918c0,0.831 0.18,1.472 0.539,1.925c0.36,0.453 0.871,0.679 1.533,0.679c0.663,0 1.176,-0.224 1.54,-0.672Z" style="fill:#343534;fill-rule:nonzero;"/><path d="M86.844,23.672c0.103,0.103 0.154,0.233 0.154,0.392l0,8.904c0,0.168 -0.051,0.303 -0.154,0.406c-0.102,0.103 -0.242,0.154 -0.42,0.154c-0.177,0 -0.315,-0.051 -0.413,-0.154c-0.098,-0.103 -0.147,-0.238 -0.147,-0.406l0,-0.756c-0.205,0.429 -0.506,0.761 -0.903,0.994c-0.396,0.233 -0.861,0.35 -1.393,0.35c-0.597,0 -1.124,-0.149 -1.582,-0.448c-0.457,-0.299 -0.812,-0.716 -1.064,-1.253c-0.252,-0.537 -0.378,-1.16 -0.378,-1.869c0,-0.7 0.126,-1.316 0.378,-1.848c0.252,-0.532 0.607,-0.943 1.064,-1.232c0.458,-0.289 0.985,-0.434 1.582,-0.434c0.532,0 0.997,0.117 1.393,0.35c0.397,0.233 0.698,0.565 0.903,0.994l0,-3.752c0,-0.168 0.049,-0.301 0.147,-0.399c0.098,-0.098 0.236,-0.147 0.413,-0.147c0.178,0 0.318,0.051 0.42,0.154Zm-1.519,8.267c0.36,-0.453 0.539,-1.094 0.539,-1.925c0,-0.831 -0.179,-1.47 -0.539,-1.918c-0.359,-0.448 -0.87,-0.672 -1.533,-0.672c-0.662,0 -1.178,0.224 -1.547,0.672c-0.368,0.448 -0.553,1.078 -0.553,1.89c0,0.831 0.185,1.477 0.553,1.939c0.369,0.462 0.885,0.693 1.547,0.693c0.663,0 1.174,-0.226 1.533,-0.679Z" style="fill:#343534;fill-rule:nonzero;"/><path d="M94.454,29.16l0,3.808c0,0.168 -0.049,0.303 -0.147,0.406c-0.098,0.103 -0.231,0.154 -0.399,0.154c-0.168,0 -0.303,-0.051 -0.406,-0.154c-0.102,-0.103 -0.154,-0.238 -0.154,-0.406l0,-0.672c-0.177,0.401 -0.448,0.712 -0.812,0.931c-0.364,0.219 -0.784,0.329 -1.26,0.329c-0.438,0 -0.842,-0.089 -1.211,-0.266c-0.368,-0.177 -0.66,-0.425 -0.875,-0.742c-0.214,-0.317 -0.322,-0.667 -0.322,-1.05c0,-0.513 0.131,-0.912 0.392,-1.197c0.262,-0.285 0.691,-0.49 1.288,-0.616c0.598,-0.126 1.428,-0.189 2.492,-0.189l0.308,0l0,-0.462c0,-0.56 -0.114,-0.971 -0.343,-1.232c-0.228,-0.261 -0.599,-0.392 -1.113,-0.392c-0.634,0 -1.278,0.173 -1.932,0.518c-0.252,0.159 -0.429,0.238 -0.532,0.238c-0.112,0 -0.205,-0.042 -0.28,-0.126c-0.074,-0.084 -0.112,-0.191 -0.112,-0.322c0,-0.131 0.04,-0.245 0.119,-0.343c0.08,-0.098 0.208,-0.198 0.385,-0.301c0.327,-0.187 0.698,-0.334 1.113,-0.441c0.416,-0.107 0.829,-0.161 1.239,-0.161c1.708,0 2.562,0.896 2.562,2.688Zm-1.645,2.933c0.36,-0.378 0.539,-0.866 0.539,-1.463l0,-0.406l-0.252,0c-0.821,0 -1.446,0.035 -1.876,0.105c-0.429,0.07 -0.735,0.187 -0.917,0.35c-0.182,0.163 -0.273,0.404 -0.273,0.721c0,0.364 0.133,0.665 0.399,0.903c0.266,0.238 0.6,0.357 1.001,0.357c0.56,0 1.02,-0.189 1.379,-0.567Z" style="fill:#343534;fill-rule:nonzero;"/><path d="M100.174,33.08c0,0.159 -0.058,0.278 -0.175,0.357c-0.116,0.079 -0.291,0.11 -0.525,0.091l-0.378,-0.028c-0.746,-0.056 -1.297,-0.28 -1.652,-0.672c-0.354,-0.392 -0.532,-0.985 -0.532,-1.778l0,-3.514l-0.938,0c-0.158,0 -0.282,-0.04 -0.371,-0.119c-0.088,-0.079 -0.133,-0.184 -0.133,-0.315c0,-0.14 0.045,-0.252 0.133,-0.336c0.089,-0.084 0.213,-0.126 0.371,-0.126l0.938,0l0,-1.582c0,-0.177 0.052,-0.315 0.154,-0.413c0.103,-0.098 0.243,-0.147 0.42,-0.147c0.168,0 0.304,0.049 0.406,0.147c0.103,0.098 0.154,0.236 0.154,0.413l0,1.582l1.554,0c0.15,0 0.269,0.042 0.357,0.126c0.089,0.084 0.133,0.196 0.133,0.336c0,0.131 -0.044,0.236 -0.133,0.315c-0.088,0.079 -0.207,0.119 -0.357,0.119l-1.554,0l0,3.57c0,0.513 0.105,0.884 0.315,1.113c0.21,0.229 0.525,0.357 0.945,0.385l0.378,0.028c0.327,0.028 0.49,0.177 0.49,0.448Z" style="fill:#343534;fill-rule:nonzero;"/><path d="M106.847,32.002c0.074,0.084 0.112,0.191 0.112,0.322c0,0.233 -0.164,0.448 -0.49,0.644c-0.336,0.196 -0.691,0.343 -1.064,0.441c-0.374,0.098 -0.738,0.147 -1.092,0.147c-1.055,0 -1.888,-0.313 -2.499,-0.938c-0.612,-0.625 -0.917,-1.489 -0.917,-2.59c0,-0.7 0.135,-1.318 0.406,-1.855c0.27,-0.537 0.651,-0.954 1.141,-1.253c0.49,-0.299 1.047,-0.448 1.673,-0.448c0.886,0 1.591,0.289 2.114,0.868c0.522,0.579 0.784,1.363 0.784,2.352c0,0.187 -0.038,0.322 -0.112,0.406c-0.075,0.084 -0.196,0.126 -0.364,0.126l-4.508,0c0.084,1.605 0.844,2.408 2.282,2.408c0.364,0 0.676,-0.049 0.938,-0.147c0.261,-0.098 0.541,-0.231 0.84,-0.399c0.242,-0.14 0.406,-0.21 0.49,-0.21c0.102,0 0.191,0.042 0.266,0.126Zm-4.151,-4.088c-0.36,0.373 -0.572,0.901 -0.637,1.582l3.962,0c-0.019,-0.691 -0.192,-1.22 -0.518,-1.589c-0.327,-0.369 -0.784,-0.553 -1.372,-0.553c-0.598,0 -1.076,0.187 -1.435,0.56Z" style="fill:#343534;fill-rule:nonzero;"/><path d="M109.76,33.402c-0.388,-0.103 -0.731,-0.247 -1.029,-0.434c-0.168,-0.112 -0.287,-0.217 -0.357,-0.315c-0.07,-0.098 -0.105,-0.217 -0.105,-0.357c0,-0.121 0.035,-0.222 0.105,-0.301c0.07,-0.079 0.161,-0.119 0.273,-0.119c0.112,0 0.275,0.07 0.49,0.21c0.28,0.168 0.557,0.301 0.833,0.399c0.275,0.098 0.618,0.147 1.029,0.147c0.504,0 0.896,-0.089 1.176,-0.266c0.28,-0.177 0.42,-0.434 0.42,-0.77c0,-0.205 -0.052,-0.371 -0.154,-0.497c-0.103,-0.126 -0.28,-0.238 -0.532,-0.336c-0.252,-0.098 -0.621,-0.198 -1.106,-0.301c-0.822,-0.177 -1.41,-0.415 -1.764,-0.714c-0.355,-0.299 -0.532,-0.705 -0.532,-1.218c0,-0.401 0.112,-0.756 0.336,-1.064c0.224,-0.308 0.534,-0.551 0.931,-0.728c0.396,-0.177 0.847,-0.266 1.351,-0.266c0.364,0 0.716,0.049 1.057,0.147c0.34,0.098 0.641,0.236 0.903,0.413c0.317,0.224 0.476,0.457 0.476,0.7c0,0.121 -0.038,0.224 -0.112,0.308c-0.075,0.084 -0.164,0.126 -0.266,0.126c-0.112,0 -0.28,-0.079 -0.504,-0.238c-0.262,-0.168 -0.509,-0.299 -0.742,-0.392c-0.234,-0.093 -0.523,-0.14 -0.868,-0.14c-0.439,0 -0.791,0.098 -1.057,0.294c-0.266,0.196 -0.399,0.457 -0.399,0.784c0,0.205 0.049,0.371 0.147,0.497c0.098,0.126 0.261,0.238 0.49,0.336c0.228,0.098 0.557,0.194 0.987,0.287c0.634,0.14 1.127,0.294 1.477,0.462c0.35,0.168 0.599,0.373 0.749,0.616c0.149,0.243 0.224,0.551 0.224,0.924c0,0.588 -0.248,1.062 -0.742,1.421c-0.495,0.359 -1.148,0.539 -1.96,0.539c-0.43,0 -0.838,-0.051 -1.225,-0.154Z" style="fill:#343534;fill-rule:nonzero;"/></g></g></svg>