<?xml version="1.0" encoding="UTF-8" standalone="no"?><!DOCTYPE svg PUBLIC "-//W3C//DTD SVG 1.1//EN" "http://www.w3.org/Graphics/SVG/1.1/DTD/svg11.dtd"><svg width="500px" height="40px" version="1.1" xmlns="http://www.w3.org/2000/svg" xmlns:xlink="http://www.w3.org/1999/xlink" xml:space="preserve" xmlns:serif="http://www.serif.com/" style="fill-rule:evenodd;clip-rule:evenodd;stroke-linejoin:round;stroke-miterlimit:1.41421;"><g transform="matrix(1,0,0,1,-365,-732)"><g transform="matrix(1,0,0,1,-453.553,705.838)"><path d="M839.389,53.826C839.389,54.13 839.265,54.386 839.017,54.594C838.769,54.802 838.493,54.906 838.189,54.906C837.981,54.906 837.785,54.846 837.601,54.726C837.417,54.606 837.277,54.434 837.181,54.21L835.597,50.61L826.813,50.61L825.229,54.21C825.133,54.434 824.989,54.606 824.797,54.726C824.605,54.846 824.405,54.906 824.197,54.906C823.877,54.906 823.593,54.802 823.345,54.594C823.097,54.386 822.973,54.13 822.973,53.826C822.973,53.698 823.013,53.538 823.093,53.346L829.861,38.538C829.973,38.282 830.153,38.082 830.401,37.938C830.649,37.794 830.909,37.722 831.181,37.722C831.453,37.722 831.713,37.794 831.961,37.938C832.209,38.082 832.389,38.282 832.501,38.538L839.269,53.346C839.349,53.538 839.389,53.698 839.389,53.826ZM827.701,48.642L834.733,48.642L831.205,40.698L827.701,48.642Z" style="fill-rule:nonzero;"/><path d="M852.133,38.058C852.357,38.266 852.469,38.546 852.469,38.898L852.469,53.73C852.469,54.098 852.361,54.386 852.145,54.594C851.929,54.802 851.637,54.906 851.269,54.906C850.901,54.906 850.609,54.802 850.393,54.594C850.177,54.386 850.069,54.098 850.069,53.73L850.069,52.77C849.717,53.474 849.205,54.014 848.533,54.39C847.861,54.766 847.085,54.954 846.205,54.954C845.197,54.954 844.297,54.698 843.505,54.186C842.713,53.674 842.097,52.954 841.657,52.026C841.217,51.098 840.997,50.034 840.997,48.834C840.997,47.618 841.217,46.554 841.657,45.642C842.097,44.73 842.709,44.026 843.493,43.53C844.277,43.034 845.181,42.786 846.205,42.786C847.085,42.786 847.857,42.974 848.521,43.35C849.185,43.726 849.693,44.258 850.045,44.946L850.045,38.85C850.045,38.514 850.153,38.246 850.369,38.046C850.585,37.846 850.877,37.746 851.245,37.746C851.613,37.746 851.909,37.85 852.133,38.058ZM849.205,51.954C849.781,51.234 850.069,50.21 850.069,48.882C850.069,47.554 849.785,46.53 849.217,45.81C848.649,45.09 847.837,44.73 846.781,44.73C845.725,44.73 844.905,45.086 844.321,45.798C843.737,46.51 843.445,47.522 843.445,48.834C843.445,50.146 843.741,51.174 844.333,51.918C844.925,52.662 845.741,53.034 846.781,53.034C847.821,53.034 848.629,52.674 849.205,51.954Z" style="fill-rule:nonzero;"/><path d="M864.601,43.026C864.785,42.914 864.981,42.858 865.189,42.858C865.493,42.858 865.761,42.962 865.993,43.17C866.225,43.378 866.341,43.626 866.341,43.914C866.341,44.074 866.309,44.226 866.245,44.37L861.661,54.09C861.549,54.346 861.377,54.542 861.145,54.678C860.913,54.814 860.669,54.882 860.413,54.882C860.157,54.882 859.913,54.814 859.681,54.678C859.449,54.542 859.277,54.346 859.165,54.09L854.581,44.37C854.517,44.242 854.485,44.09 854.485,43.914C854.485,43.626 854.613,43.378 854.869,43.17C855.125,42.962 855.413,42.858 855.733,42.858C856.197,42.858 856.541,43.082 856.765,43.53L860.485,51.786L864.181,43.554C864.277,43.314 864.417,43.138 864.601,43.026Z" style="fill-rule:nonzero;"/><path d="M876.529,43.962C877.289,44.746 877.669,45.938 877.669,47.538L877.669,53.754C877.669,54.122 877.565,54.406 877.357,54.606C877.149,54.806 876.861,54.906 876.493,54.906C876.141,54.906 875.861,54.802 875.653,54.594C875.445,54.386 875.341,54.106 875.341,53.754L875.341,52.866C875.037,53.538 874.585,54.054 873.985,54.414C873.385,54.774 872.685,54.954 871.885,54.954C871.117,54.954 870.413,54.798 869.773,54.486C869.133,54.174 868.633,53.738 868.273,53.178C867.913,52.618 867.733,51.994 867.733,51.306C867.733,50.458 867.953,49.79 868.393,49.302C868.833,48.814 869.561,48.466 870.577,48.258C871.593,48.05 872.989,47.946 874.765,47.946L875.317,47.946L875.317,47.25C875.317,46.354 875.133,45.706 874.765,45.306C874.397,44.906 873.805,44.706 872.989,44.706C872.429,44.706 871.901,44.778 871.405,44.922C870.909,45.066 870.365,45.274 869.773,45.546C869.341,45.786 869.037,45.906 868.861,45.906C868.621,45.906 868.425,45.818 868.273,45.642C868.121,45.466 868.045,45.242 868.045,44.97C868.045,44.73 868.113,44.518 868.249,44.334C868.385,44.15 868.605,43.97 868.909,43.794C869.469,43.49 870.125,43.246 870.877,43.062C871.629,42.878 872.357,42.786 873.061,42.786C874.613,42.786 875.769,43.178 876.529,43.962ZM874.477,52.254C875.037,51.654 875.317,50.882 875.317,49.938L875.317,49.314L874.885,49.314C873.637,49.314 872.677,49.37 872.005,49.482C871.333,49.594 870.853,49.782 870.565,50.046C870.277,50.31 870.133,50.69 870.133,51.186C870.133,51.762 870.341,52.234 870.757,52.602C871.173,52.97 871.693,53.154 872.317,53.154C873.197,53.154 873.917,52.854 874.477,52.254Z" style="fill-rule:nonzero;"/><path d="M891.493,47.514L891.493,53.754C891.493,54.122 891.385,54.406 891.169,54.606C890.953,54.806 890.653,54.906 890.269,54.906C889.901,54.906 889.609,54.802 889.393,54.594C889.177,54.386 889.069,54.106 889.069,53.754L889.069,47.634C889.069,46.642 888.873,45.914 888.481,45.45C888.089,44.986 887.477,44.754 886.645,44.754C885.669,44.754 884.885,45.058 884.293,45.666C883.701,46.274 883.405,47.09 883.405,48.114L883.405,53.754C883.405,54.106 883.297,54.386 883.081,54.594C882.865,54.802 882.573,54.906 882.205,54.906C881.837,54.906 881.541,54.802 881.317,54.594C881.093,54.386 880.981,54.106 880.981,53.754L880.981,43.986C880.981,43.65 881.097,43.374 881.329,43.158C881.561,42.942 881.853,42.834 882.205,42.834C882.557,42.834 882.837,42.938 883.045,43.146C883.253,43.354 883.357,43.626 883.357,43.962L883.357,44.946C883.741,44.242 884.277,43.706 884.965,43.338C885.653,42.97 886.429,42.786 887.293,42.786C890.093,42.786 891.493,44.362 891.493,47.514Z" style="fill-rule:nonzero;"/><path d="M896.833,54.21C895.977,53.714 895.313,53.01 894.841,52.098C894.369,51.186 894.133,50.13 894.133,48.93C894.133,47.714 894.377,46.642 894.865,45.714C895.353,44.786 896.037,44.066 896.917,43.554C897.797,43.042 898.805,42.786 899.941,42.786C900.549,42.786 901.161,42.874 901.777,43.05C902.393,43.226 902.941,43.466 903.421,43.77C903.933,44.122 904.189,44.53 904.189,44.994C904.189,45.266 904.117,45.494 903.973,45.678C903.829,45.862 903.645,45.954 903.421,45.954C903.277,45.954 903.133,45.918 902.989,45.846C902.845,45.774 902.661,45.666 902.437,45.522C902.037,45.266 901.665,45.07 901.321,44.934C900.977,44.798 900.565,44.73 900.085,44.73C898.997,44.73 898.153,45.098 897.553,45.834C896.953,46.57 896.653,47.594 896.653,48.906C896.653,50.218 896.949,51.23 897.541,51.942C898.133,52.654 898.973,53.01 900.061,53.01C900.541,53.01 900.965,52.938 901.333,52.794C901.701,52.65 902.077,52.458 902.461,52.218C902.637,52.106 902.813,52.01 902.989,51.93C903.165,51.85 903.325,51.81 903.469,51.81C903.693,51.81 903.877,51.902 904.021,52.086C904.165,52.27 904.237,52.498 904.237,52.77C904.237,52.994 904.177,53.198 904.057,53.382C903.937,53.566 903.733,53.754 903.445,53.946C902.965,54.266 902.405,54.514 901.765,54.69C901.125,54.866 900.477,54.954 899.821,54.954C898.685,54.954 897.689,54.706 896.833,54.21Z" style="fill-rule:nonzero;"/><path d="M916.117,52.098C916.261,52.274 916.333,52.498 916.333,52.77C916.333,53.234 916.045,53.626 915.469,53.946C914.909,54.266 914.297,54.514 913.633,54.69C912.969,54.866 912.333,54.954 911.725,54.954C909.869,54.954 908.405,54.414 907.333,53.334C906.261,52.254 905.725,50.778 905.725,48.906C905.725,47.706 905.961,46.642 906.433,45.714C906.905,44.786 907.569,44.066 908.425,43.554C909.281,43.042 910.253,42.786 911.341,42.786C912.909,42.786 914.149,43.29 915.061,44.298C915.973,45.306 916.429,46.666 916.429,48.378C916.429,49.018 916.141,49.338 915.565,49.338L908.149,49.338C908.309,51.818 909.501,53.058 911.725,53.058C912.317,53.058 912.829,52.978 913.261,52.818C913.693,52.658 914.149,52.45 914.629,52.194C914.677,52.162 914.809,52.094 915.025,51.99C915.241,51.886 915.421,51.834 915.565,51.834C915.789,51.834 915.973,51.922 916.117,52.098ZM909.157,45.45C908.597,46.042 908.261,46.874 908.149,47.946L914.341,47.946C914.293,46.858 914.017,46.022 913.513,45.438C913.009,44.854 912.301,44.562 911.389,44.562C910.461,44.562 909.717,44.858 909.157,45.45Z" style="fill-rule:nonzero;"/><path d="M929.557,38.058C929.781,38.266 929.893,38.546 929.893,38.898L929.893,53.73C929.893,54.098 929.785,54.386 929.569,54.594C929.353,54.802 929.061,54.906 928.693,54.906C928.325,54.906 928.033,54.802 927.817,54.594C927.601,54.386 927.493,54.098 927.493,53.73L927.493,52.77C927.141,53.474 926.629,54.014 925.957,54.39C925.285,54.766 924.509,54.954 923.629,54.954C922.621,54.954 921.721,54.698 920.929,54.186C920.137,53.674 919.521,52.954 919.081,52.026C918.641,51.098 918.421,50.034 918.421,48.834C918.421,47.618 918.641,46.554 919.081,45.642C919.521,44.73 920.133,44.026 920.917,43.53C921.701,43.034 922.605,42.786 923.629,42.786C924.509,42.786 925.281,42.974 925.945,43.35C926.609,43.726 927.117,44.258 927.469,44.946L927.469,38.85C927.469,38.514 927.577,38.246 927.793,38.046C928.009,37.846 928.301,37.746 928.669,37.746C929.037,37.746 929.333,37.85 929.557,38.058ZM926.629,51.954C927.205,51.234 927.493,50.21 927.493,48.882C927.493,47.554 927.209,46.53 926.641,45.81C926.073,45.09 925.261,44.73 924.205,44.73C923.149,44.73 922.329,45.086 921.745,45.798C921.161,46.51 920.869,47.522 920.869,48.834C920.869,50.146 921.165,51.174 921.757,51.918C922.349,52.662 923.165,53.034 924.205,53.034C925.245,53.034 926.053,52.674 926.629,51.954Z" style="fill-rule:nonzero;"/><path d="M953.353,46.074C953.537,46.25 953.629,46.49 953.629,46.794L953.629,52.41C953.629,52.954 953.553,53.346 953.401,53.586C953.249,53.826 952.949,54.018 952.501,54.162C951.861,54.418 951.101,54.618 950.221,54.762C949.341,54.906 948.469,54.978 947.605,54.978C945.893,54.978 944.413,54.634 943.165,53.946C941.917,53.258 940.965,52.266 940.309,50.97C939.653,49.674 939.325,48.122 939.325,46.314C939.325,44.538 939.653,43.002 940.309,41.706C940.965,40.41 941.905,39.414 943.129,38.718C944.353,38.022 945.789,37.674 947.437,37.674C948.557,37.674 949.593,37.838 950.545,38.166C951.497,38.494 952.309,38.97 952.981,39.594C953.301,39.85 953.461,40.17 953.461,40.554C953.461,40.842 953.381,41.086 953.221,41.286C953.061,41.486 952.869,41.586 952.645,41.586C952.501,41.586 952.373,41.562 952.261,41.514C952.149,41.466 952.005,41.386 951.829,41.274C951.045,40.698 950.333,40.294 949.693,40.062C949.053,39.83 948.317,39.714 947.485,39.714C945.661,39.714 944.269,40.278 943.309,41.406C942.349,42.534 941.869,44.17 941.869,46.314C941.869,48.506 942.361,50.166 943.345,51.294C944.329,52.422 945.773,52.986 947.677,52.986C948.957,52.986 950.189,52.794 951.373,52.41L951.373,47.682L948.229,47.682C947.909,47.682 947.657,47.598 947.473,47.43C947.289,47.262 947.197,47.034 947.197,46.746C947.197,46.458 947.289,46.23 947.473,46.062C947.657,45.894 947.909,45.81 948.229,45.81L952.621,45.81C952.925,45.81 953.169,45.898 953.353,46.074Z" style="fill-rule:nonzero;"/><path d="M965.473,43.962C966.233,44.746 966.613,45.938 966.613,47.538L966.613,53.754C966.613,54.122 966.509,54.406 966.301,54.606C966.093,54.806 965.805,54.906 965.437,54.906C965.085,54.906 964.805,54.802 964.597,54.594C964.389,54.386 964.285,54.106 964.285,53.754L964.285,52.866C963.981,53.538 963.529,54.054 962.929,54.414C962.329,54.774 961.629,54.954 960.829,54.954C960.061,54.954 959.357,54.798 958.717,54.486C958.077,54.174 957.577,53.738 957.217,53.178C956.857,52.618 956.677,51.994 956.677,51.306C956.677,50.458 956.897,49.79 957.337,49.302C957.777,48.814 958.505,48.466 959.521,48.258C960.537,48.05 961.933,47.946 963.709,47.946L964.261,47.946L964.261,47.25C964.261,46.354 964.077,45.706 963.709,45.306C963.341,44.906 962.749,44.706 961.933,44.706C961.373,44.706 960.845,44.778 960.349,44.922C959.853,45.066 959.309,45.274 958.717,45.546C958.285,45.786 957.981,45.906 957.805,45.906C957.565,45.906 957.369,45.818 957.217,45.642C957.065,45.466 956.989,45.242 956.989,44.97C956.989,44.73 957.057,44.518 957.193,44.334C957.329,44.15 957.549,43.97 957.853,43.794C958.413,43.49 959.069,43.246 959.821,43.062C960.573,42.878 961.301,42.786 962.005,42.786C963.557,42.786 964.713,43.178 965.473,43.962ZM963.421,52.254C963.981,51.654 964.261,50.882 964.261,49.938L964.261,49.314L963.829,49.314C962.581,49.314 961.621,49.37 960.949,49.482C960.277,49.594 959.797,49.782 959.509,50.046C959.221,50.31 959.077,50.69 959.077,51.186C959.077,51.762 959.285,52.234 959.701,52.602C960.117,52.97 960.637,53.154 961.261,53.154C962.141,53.154 962.861,52.854 963.421,52.254Z" style="fill-rule:nonzero;"/><path d="M976.417,53.334C976.569,53.486 976.645,53.698 976.645,53.97C976.645,54.29 976.521,54.534 976.273,54.702C976.025,54.87 975.661,54.938 975.181,54.906L974.533,54.858C973.237,54.762 972.269,54.366 971.629,53.67C970.989,52.974 970.669,51.946 970.669,50.586L970.669,44.946L969.229,44.946C968.525,44.946 968.173,44.634 968.173,44.01C968.173,43.722 968.265,43.494 968.449,43.326C968.633,43.158 968.893,43.074 969.229,43.074L970.669,43.074L970.669,40.602C970.669,40.234 970.777,39.946 970.993,39.738C971.209,39.53 971.501,39.426 971.869,39.426C972.237,39.426 972.533,39.53 972.757,39.738C972.981,39.946 973.093,40.234 973.093,40.602L973.093,43.074L975.469,43.074C975.805,43.074 976.065,43.158 976.249,43.326C976.433,43.494 976.525,43.722 976.525,44.01C976.525,44.314 976.433,44.546 976.249,44.706C976.065,44.866 975.805,44.946 975.469,44.946L973.093,44.946L973.093,50.754C973.093,51.506 973.249,52.058 973.561,52.41C973.873,52.762 974.349,52.962 974.989,53.01L975.661,53.058C976.013,53.09 976.265,53.182 976.417,53.334Z" style="fill-rule:nonzero;"/><path d="M988.117,52.098C988.261,52.274 988.333,52.498 988.333,52.77C988.333,53.234 988.045,53.626 987.469,53.946C986.909,54.266 986.297,54.514 985.633,54.69C984.969,54.866 984.333,54.954 983.725,54.954C981.869,54.954 980.405,54.414 979.333,53.334C978.261,52.254 977.725,50.778 977.725,48.906C977.725,47.706 977.961,46.642 978.433,45.714C978.905,44.786 979.569,44.066 980.425,43.554C981.281,43.042 982.253,42.786 983.341,42.786C984.909,42.786 986.149,43.29 987.061,44.298C987.973,45.306 988.429,46.666 988.429,48.378C988.429,49.018 988.141,49.338 987.565,49.338L980.149,49.338C980.309,51.818 981.501,53.058 983.725,53.058C984.317,53.058 984.829,52.978 985.261,52.818C985.693,52.658 986.149,52.45 986.629,52.194C986.677,52.162 986.809,52.094 987.025,51.99C987.241,51.886 987.421,51.834 987.565,51.834C987.789,51.834 987.973,51.922 988.117,52.098ZM981.157,45.45C980.597,46.042 980.261,46.874 980.149,47.946L986.341,47.946C986.293,46.858 986.017,46.022 985.513,45.438C985.009,44.854 984.301,44.562 983.389,44.562C982.461,44.562 981.717,44.858 981.157,45.45Z" style="fill-rule:nonzero;"/><path d="M1007.85,42.858C1008.15,42.858 1008.42,42.962 1008.66,43.17C1008.9,43.378 1009.02,43.634 1009.02,43.938C1009.02,44.098 1008.99,44.242 1008.93,44.37L1004.94,54.09C1004.85,54.346 1004.69,54.542 1004.46,54.678C1004.24,54.814 1003.99,54.882 1003.72,54.882C1003.46,54.882 1003.22,54.814 1003,54.678C1002.77,54.542 1002.61,54.346 1002.52,54.09L999.397,46.386L996.349,54.09C996.253,54.346 996.097,54.542 995.881,54.678C995.665,54.814 995.421,54.882 995.149,54.882C994.893,54.882 994.649,54.814 994.417,54.678C994.185,54.542 994.013,54.346 993.901,54.09L989.941,44.37C989.877,44.242 989.845,44.106 989.845,43.962C989.845,43.642 989.977,43.378 990.241,43.17C990.505,42.962 990.797,42.858 991.117,42.858C991.597,42.858 991.925,43.09 992.101,43.554L995.197,51.738L998.365,43.626C998.461,43.37 998.613,43.178 998.821,43.05C999.029,42.922 999.253,42.858 999.493,42.858C999.717,42.858 999.933,42.922 1000.14,43.05C1000.35,43.178 1000.5,43.37 1000.6,43.626L1003.76,51.69L1006.86,43.578C1007.04,43.098 1007.37,42.858 1007.85,42.858Z" style="fill-rule:nonzero;"/><path d="M1019.47,43.962C1020.23,44.746 1020.61,45.938 1020.61,47.538L1020.61,53.754C1020.61,54.122 1020.51,54.406 1020.3,54.606C1020.09,54.806 1019.81,54.906 1019.44,54.906C1019.09,54.906 1018.81,54.802 1018.6,54.594C1018.39,54.386 1018.28,54.106 1018.28,53.754L1018.28,52.866C1017.98,53.538 1017.53,54.054 1016.93,54.414C1016.33,54.774 1015.63,54.954 1014.83,54.954C1014.06,54.954 1013.36,54.798 1012.72,54.486C1012.08,54.174 1011.58,53.738 1011.22,53.178C1010.86,52.618 1010.68,51.994 1010.68,51.306C1010.68,50.458 1010.9,49.79 1011.34,49.302C1011.78,48.814 1012.5,48.466 1013.52,48.258C1014.54,48.05 1015.93,47.946 1017.71,47.946L1018.26,47.946L1018.26,47.25C1018.26,46.354 1018.08,45.706 1017.71,45.306C1017.34,44.906 1016.75,44.706 1015.93,44.706C1015.37,44.706 1014.85,44.778 1014.35,44.922C1013.85,45.066 1013.31,45.274 1012.72,45.546C1012.28,45.786 1011.98,45.906 1011.81,45.906C1011.57,45.906 1011.37,45.818 1011.22,45.642C1011.07,45.466 1010.99,45.242 1010.99,44.97C1010.99,44.73 1011.06,44.518 1011.19,44.334C1011.33,44.15 1011.55,43.97 1011.85,43.794C1012.41,43.49 1013.07,43.246 1013.82,43.062C1014.57,42.878 1015.3,42.786 1016,42.786C1017.56,42.786 1018.71,43.178 1019.47,43.962ZM1017.42,52.254C1017.98,51.654 1018.26,50.882 1018.26,49.938L1018.26,49.314L1017.83,49.314C1016.58,49.314 1015.62,49.37 1014.95,49.482C1014.28,49.594 1013.8,49.782 1013.51,50.046C1013.22,50.31 1013.08,50.69 1013.08,51.186C1013.08,51.762 1013.28,52.234 1013.7,52.602C1014.12,52.97 1014.64,53.154 1015.26,53.154C1016.14,53.154 1016.86,52.854 1017.42,52.254Z" style="fill-rule:nonzero;"/><path d="M1032.67,43.026C1032.86,42.914 1033.05,42.858 1033.26,42.858C1033.57,42.858 1033.83,42.962 1034.07,43.17C1034.3,43.378 1034.41,43.626 1034.41,43.914C1034.41,44.074 1034.38,44.226 1034.32,44.37L1027.64,58.53C1027.55,58.754 1027.41,58.926 1027.22,59.046C1027.04,59.166 1026.85,59.226 1026.64,59.226C1026.35,59.226 1026.09,59.13 1025.86,58.938C1025.62,58.746 1025.51,58.506 1025.51,58.218C1025.51,58.09 1025.55,57.93 1025.63,57.738L1027.29,54.21L1022.65,44.37C1022.59,44.242 1022.56,44.098 1022.56,43.938C1022.56,43.634 1022.69,43.378 1022.94,43.17C1023.2,42.962 1023.49,42.858 1023.81,42.858C1024.29,42.858 1024.63,43.082 1024.84,43.53L1028.56,51.786L1032.25,43.554C1032.35,43.314 1032.49,43.138 1032.67,43.026Z" style="fill-rule:nonzero;"/><path d="M1045.15,54.474C1044.06,54.138 1043.18,53.674 1042.53,53.082C1042.22,52.826 1042.07,52.498 1042.07,52.098C1042.07,51.81 1042.15,51.566 1042.31,51.366C1042.47,51.166 1042.66,51.066 1042.88,51.066C1043.11,51.066 1043.38,51.17 1043.7,51.378C1045.12,52.434 1046.75,52.962 1048.57,52.962C1049.85,52.962 1050.84,52.722 1051.53,52.242C1052.21,51.762 1052.56,51.074 1052.56,50.178C1052.56,49.474 1052.24,48.946 1051.6,48.594C1050.96,48.242 1049.93,47.906 1048.53,47.586C1047.18,47.298 1046.08,46.97 1045.21,46.602C1044.35,46.234 1043.67,45.734 1043.18,45.102C1042.7,44.47 1042.45,43.666 1042.45,42.69C1042.45,41.714 1042.72,40.846 1043.26,40.086C1043.79,39.326 1044.54,38.734 1045.5,38.31C1046.46,37.886 1047.56,37.674 1048.79,37.674C1049.92,37.674 1050.97,37.834 1051.93,38.154C1052.89,38.474 1053.71,38.946 1054.38,39.57C1054.7,39.842 1054.86,40.17 1054.86,40.554C1054.86,40.826 1054.78,41.066 1054.61,41.274C1054.44,41.482 1054.25,41.586 1054.02,41.586C1053.81,41.586 1053.55,41.482 1053.23,41.274C1052.49,40.714 1051.8,40.31 1051.15,40.062C1050.51,39.814 1049.72,39.69 1048.81,39.69C1047.58,39.69 1046.62,39.942 1045.93,40.446C1045.25,40.95 1044.9,41.65 1044.9,42.546C1044.9,43.314 1045.2,43.894 1045.81,44.286C1046.42,44.678 1047.4,45.034 1048.74,45.354C1050.15,45.674 1051.29,46.006 1052.16,46.35C1053.03,46.694 1053.73,47.166 1054.25,47.766C1054.77,48.366 1055.03,49.138 1055.03,50.082C1055.03,51.042 1054.76,51.894 1054.22,52.638C1053.69,53.382 1052.94,53.958 1051.97,54.366C1051,54.774 1049.88,54.978 1048.62,54.978C1047.4,54.978 1046.25,54.81 1045.15,54.474Z" style="fill-rule:nonzero;"/><path d="M1067.51,52.098C1067.65,52.274 1067.72,52.498 1067.72,52.77C1067.72,53.234 1067.44,53.626 1066.86,53.946C1066.3,54.266 1065.69,54.514 1065.03,54.69C1064.36,54.866 1063.72,54.954 1063.12,54.954C1061.26,54.954 1059.8,54.414 1058.72,53.334C1057.65,52.254 1057.12,50.778 1057.12,48.906C1057.12,47.706 1057.35,46.642 1057.83,45.714C1058.3,44.786 1058.96,44.066 1059.82,43.554C1060.67,43.042 1061.64,42.786 1062.73,42.786C1064.3,42.786 1065.54,43.29 1066.45,44.298C1067.37,45.306 1067.82,46.666 1067.82,48.378C1067.82,49.018 1067.53,49.338 1066.96,49.338L1059.54,49.338C1059.7,51.818 1060.89,53.058 1063.12,53.058C1063.71,53.058 1064.22,52.978 1064.65,52.818C1065.09,52.658 1065.54,52.45 1066.02,52.194C1066.07,52.162 1066.2,52.094 1066.42,51.99C1066.63,51.886 1066.81,51.834 1066.96,51.834C1067.18,51.834 1067.37,51.922 1067.51,52.098ZM1060.55,45.45C1059.99,46.042 1059.65,46.874 1059.54,47.946L1065.73,47.946C1065.68,46.858 1065.41,46.022 1064.9,45.438C1064.4,44.854 1063.69,44.562 1062.78,44.562C1061.85,44.562 1061.11,44.858 1060.55,45.45Z" style="fill-rule:nonzero;"/><path d="M1072.51,54.21C1071.66,53.714 1070.99,53.01 1070.52,52.098C1070.05,51.186 1069.81,50.13 1069.81,48.93C1069.81,47.714 1070.06,46.642 1070.55,45.714C1071.03,44.786 1071.72,44.066 1072.6,43.554C1073.48,43.042 1074.49,42.786 1075.62,42.786C1076.23,42.786 1076.84,42.874 1077.46,43.05C1078.07,43.226 1078.62,43.466 1079.1,43.77C1079.61,44.122 1079.87,44.53 1079.87,44.994C1079.87,45.266 1079.8,45.494 1079.65,45.678C1079.51,45.862 1079.33,45.954 1079.1,45.954C1078.96,45.954 1078.81,45.918 1078.67,45.846C1078.53,45.774 1078.34,45.666 1078.12,45.522C1077.72,45.266 1077.35,45.07 1077,44.934C1076.66,44.798 1076.25,44.73 1075.77,44.73C1074.68,44.73 1073.83,45.098 1073.23,45.834C1072.63,46.57 1072.33,47.594 1072.33,48.906C1072.33,50.218 1072.63,51.23 1073.22,51.942C1073.81,52.654 1074.65,53.01 1075.74,53.01C1076.22,53.01 1076.64,52.938 1077.01,52.794C1077.38,52.65 1077.76,52.458 1078.14,52.218C1078.32,52.106 1078.49,52.01 1078.67,51.93C1078.85,51.85 1079.01,51.81 1079.15,51.81C1079.37,51.81 1079.56,51.902 1079.7,52.086C1079.85,52.27 1079.92,52.498 1079.92,52.77C1079.92,52.994 1079.86,53.198 1079.74,53.382C1079.62,53.566 1079.41,53.754 1079.12,53.946C1078.64,54.266 1078.09,54.514 1077.44,54.69C1076.81,54.866 1076.16,54.954 1075.5,54.954C1074.37,54.954 1073.37,54.706 1072.51,54.21Z" style="fill-rule:nonzero;"/><path d="M1092.03,43.146C1092.24,43.354 1092.35,43.642 1092.35,44.01L1092.35,53.778C1092.35,54.114 1092.24,54.386 1092.01,54.594C1091.79,54.802 1091.49,54.906 1091.12,54.906C1090.79,54.906 1090.52,54.806 1090.31,54.606C1090.1,54.406 1090,54.138 1090,53.802L1090,52.89C1089.63,53.562 1089.12,54.074 1088.47,54.426C1087.83,54.778 1087.1,54.954 1086.3,54.954C1083.45,54.954 1082.03,53.386 1082.03,50.25L1082.03,44.01C1082.03,43.642 1082.14,43.354 1082.35,43.146C1082.57,42.938 1082.87,42.834 1083.25,42.834C1083.62,42.834 1083.91,42.938 1084.13,43.146C1084.35,43.354 1084.45,43.642 1084.45,44.01L1084.45,50.226C1084.45,51.17 1084.64,51.866 1085.03,52.314C1085.41,52.762 1086.01,52.986 1086.81,52.986C1087.75,52.986 1088.51,52.682 1089.07,52.074C1089.64,51.466 1089.92,50.658 1089.92,49.65L1089.92,44.01C1089.92,43.658 1090.04,43.374 1090.26,43.158C1090.49,42.942 1090.78,42.834 1091.15,42.834C1091.52,42.834 1091.81,42.938 1092.03,43.146Z" style="fill-rule:nonzero;"/><path d="M1103.03,43.818C1103.03,44.17 1102.94,44.434 1102.77,44.61C1102.59,44.786 1102.29,44.89 1101.85,44.922L1101.13,44.994C1100.12,45.09 1099.38,45.442 1098.89,46.05C1098.4,46.658 1098.16,47.394 1098.16,48.258L1098.16,53.754C1098.16,54.138 1098.05,54.426 1097.82,54.618C1097.6,54.81 1097.31,54.906 1096.96,54.906C1096.61,54.906 1096.31,54.81 1096.08,54.618C1095.85,54.426 1095.73,54.138 1095.73,53.754L1095.73,43.986C1095.73,43.618 1095.85,43.334 1096.08,43.134C1096.31,42.934 1096.61,42.834 1096.96,42.834C1097.28,42.834 1097.55,42.934 1097.76,43.134C1097.98,43.334 1098.09,43.61 1098.09,43.962L1098.09,45.114C1098.4,44.41 1098.87,43.874 1099.48,43.506C1100.09,43.138 1100.77,42.922 1101.54,42.858L1101.88,42.834C1102.64,42.786 1103.03,43.114 1103.03,43.818Z" style="fill-rule:nonzero;"/><path d="M1104.87,54.618C1104.63,54.426 1104.52,54.138 1104.52,53.754L1104.52,44.01C1104.52,43.626 1104.63,43.334 1104.87,43.134C1105.1,42.934 1105.39,42.834 1105.74,42.834C1106.09,42.834 1106.38,42.934 1106.61,43.134C1106.83,43.334 1106.94,43.626 1106.94,44.01L1106.94,53.754C1106.94,54.138 1106.83,54.426 1106.61,54.618C1106.38,54.81 1106.09,54.906 1105.74,54.906C1105.39,54.906 1105.1,54.81 1104.87,54.618ZM1104.64,40.098C1104.37,39.842 1104.23,39.506 1104.23,39.09C1104.23,38.674 1104.37,38.342 1104.64,38.094C1104.91,37.846 1105.28,37.722 1105.74,37.722C1106.19,37.722 1106.55,37.846 1106.83,38.094C1107.11,38.342 1107.25,38.674 1107.25,39.09C1107.25,39.506 1107.12,39.842 1106.85,40.098C1106.57,40.354 1106.2,40.482 1105.74,40.482C1105.28,40.482 1104.91,40.354 1104.64,40.098Z" style="fill-rule:nonzero;"/><path d="M1116.82,53.334C1116.97,53.486 1117.05,53.698 1117.05,53.97C1117.05,54.29 1116.92,54.534 1116.67,54.702C1116.42,54.87 1116.06,54.938 1115.58,54.906L1114.93,54.858C1113.64,54.762 1112.67,54.366 1112.03,53.67C1111.39,52.974 1111.07,51.946 1111.07,50.586L1111.07,44.946L1109.63,44.946C1108.92,44.946 1108.57,44.634 1108.57,44.01C1108.57,43.722 1108.66,43.494 1108.85,43.326C1109.03,43.158 1109.29,43.074 1109.63,43.074L1111.07,43.074L1111.07,40.602C1111.07,40.234 1111.18,39.946 1111.39,39.738C1111.61,39.53 1111.9,39.426 1112.27,39.426C1112.64,39.426 1112.93,39.53 1113.16,39.738C1113.38,39.946 1113.49,40.234 1113.49,40.602L1113.49,43.074L1115.87,43.074C1116.2,43.074 1116.46,43.158 1116.65,43.326C1116.83,43.494 1116.92,43.722 1116.92,44.01C1116.92,44.314 1116.83,44.546 1116.65,44.706C1116.46,44.866 1116.2,44.946 1115.87,44.946L1113.49,44.946L1113.49,50.754C1113.49,51.506 1113.65,52.058 1113.96,52.41C1114.27,52.762 1114.75,52.962 1115.39,53.01L1116.06,53.058C1116.41,53.09 1116.66,53.182 1116.82,53.334Z" style="fill-rule:nonzero;"/><path d="M1127.71,43.026C1127.9,42.914 1128.09,42.858 1128.3,42.858C1128.61,42.858 1128.87,42.962 1129.11,43.17C1129.34,43.378 1129.45,43.626 1129.45,43.914C1129.45,44.074 1129.42,44.226 1129.36,44.37L1122.68,58.53C1122.59,58.754 1122.45,58.926 1122.27,59.046C1122.08,59.166 1121.88,59.226 1121.68,59.226C1121.39,59.226 1121.13,59.13 1120.9,58.938C1120.66,58.746 1120.55,58.506 1120.55,58.218C1120.55,58.09 1120.59,57.93 1120.67,57.738L1122.33,54.21L1117.69,44.37C1117.63,44.242 1117.6,44.098 1117.6,43.938C1117.6,43.634 1117.73,43.378 1117.98,43.17C1118.24,42.962 1118.53,42.858 1118.85,42.858C1119.33,42.858 1119.67,43.082 1119.88,43.53L1123.6,51.786L1127.29,43.554C1127.39,43.314 1127.53,43.138 1127.71,43.026Z" style="fill-rule:nonzero;"/><path d="M1140.19,54.474C1139.1,54.138 1138.22,53.674 1137.57,53.082C1137.26,52.826 1137.11,52.498 1137.11,52.098C1137.11,51.81 1137.19,51.566 1137.35,51.366C1137.51,51.166 1137.7,51.066 1137.92,51.066C1138.15,51.066 1138.42,51.17 1138.74,51.378C1140.16,52.434 1141.79,52.962 1143.61,52.962C1144.89,52.962 1145.88,52.722 1146.57,52.242C1147.25,51.762 1147.6,51.074 1147.6,50.178C1147.6,49.474 1147.28,48.946 1146.64,48.594C1146,48.242 1144.97,47.906 1143.57,47.586C1142.22,47.298 1141.12,46.97 1140.25,46.602C1139.39,46.234 1138.71,45.734 1138.23,45.102C1137.74,44.47 1137.49,43.666 1137.49,42.69C1137.49,41.714 1137.76,40.846 1138.3,40.086C1138.83,39.326 1139.58,38.734 1140.54,38.31C1141.5,37.886 1142.6,37.674 1143.83,37.674C1144.96,37.674 1146.01,37.834 1146.97,38.154C1147.93,38.474 1148.75,38.946 1149.42,39.57C1149.74,39.842 1149.9,40.17 1149.9,40.554C1149.9,40.826 1149.82,41.066 1149.65,41.274C1149.48,41.482 1149.29,41.586 1149.06,41.586C1148.85,41.586 1148.59,41.482 1148.27,41.274C1147.53,40.714 1146.84,40.31 1146.19,40.062C1145.55,39.814 1144.77,39.69 1143.85,39.69C1142.62,39.69 1141.66,39.942 1140.97,40.446C1140.29,40.95 1139.94,41.65 1139.94,42.546C1139.94,43.314 1140.25,43.894 1140.85,44.286C1141.46,44.678 1142.44,45.034 1143.78,45.354C1145.19,45.674 1146.33,46.006 1147.2,46.35C1148.07,46.694 1148.77,47.166 1149.29,47.766C1149.81,48.366 1150.07,49.138 1150.07,50.082C1150.07,51.042 1149.8,51.894 1149.27,52.638C1148.73,53.382 1147.98,53.958 1147.01,54.366C1146.04,54.774 1144.92,54.978 1143.66,54.978C1142.44,54.978 1141.29,54.81 1140.19,54.474Z" style="fill-rule:nonzero;"/><path d="M1162.55,52.098C1162.69,52.274 1162.77,52.498 1162.77,52.77C1162.77,53.234 1162.48,53.626 1161.9,53.946C1161.34,54.266 1160.73,54.514 1160.07,54.69C1159.4,54.866 1158.77,54.954 1158.16,54.954C1156.3,54.954 1154.84,54.414 1153.77,53.334C1152.69,52.254 1152.16,50.778 1152.16,48.906C1152.16,47.706 1152.39,46.642 1152.87,45.714C1153.34,44.786 1154,44.066 1154.86,43.554C1155.71,43.042 1156.68,42.786 1157.77,42.786C1159.34,42.786 1160.58,43.29 1161.49,44.298C1162.4,45.306 1162.86,46.666 1162.86,48.378C1162.86,49.018 1162.57,49.338 1162,49.338L1154.58,49.338C1154.74,51.818 1155.93,53.058 1158.16,53.058C1158.75,53.058 1159.26,52.978 1159.69,52.818C1160.12,52.658 1160.58,52.45 1161.06,52.194C1161.11,52.162 1161.24,52.094 1161.46,51.99C1161.67,51.886 1161.85,51.834 1162,51.834C1162.22,51.834 1162.4,51.922 1162.55,52.098ZM1155.59,45.45C1155.03,46.042 1154.69,46.874 1154.58,47.946L1160.77,47.946C1160.73,46.858 1160.45,46.022 1159.94,45.438C1159.44,44.854 1158.73,44.562 1157.82,44.562C1156.89,44.562 1156.15,44.858 1155.59,45.45Z" style="fill-rule:nonzero;"/><path d="M1172.82,43.818C1172.82,44.17 1172.73,44.434 1172.56,44.61C1172.38,44.786 1172.08,44.89 1171.64,44.922L1170.92,44.994C1169.92,45.09 1169.17,45.442 1168.68,46.05C1168.19,46.658 1167.95,47.394 1167.95,48.258L1167.95,53.754C1167.95,54.138 1167.84,54.426 1167.61,54.618C1167.39,54.81 1167.1,54.906 1166.75,54.906C1166.4,54.906 1166.11,54.81 1165.87,54.618C1165.64,54.426 1165.53,54.138 1165.53,53.754L1165.53,43.986C1165.53,43.618 1165.64,43.334 1165.87,43.134C1166.11,42.934 1166.4,42.834 1166.75,42.834C1167.07,42.834 1167.34,42.934 1167.55,43.134C1167.77,43.334 1167.88,43.61 1167.88,43.962L1167.88,45.114C1168.2,44.41 1168.66,43.874 1169.27,43.506C1169.88,43.138 1170.57,42.922 1171.33,42.858L1171.67,42.834C1172.44,42.786 1172.82,43.114 1172.82,43.818Z" style="fill-rule:nonzero;"/><path d="M1183.78,43.026C1183.96,42.914 1184.16,42.858 1184.37,42.858C1184.67,42.858 1184.94,42.962 1185.17,43.17C1185.4,43.378 1185.52,43.626 1185.52,43.914C1185.52,44.074 1185.49,44.226 1185.42,44.37L1180.84,54.09C1180.73,54.346 1180.55,54.542 1180.32,54.678C1180.09,54.814 1179.85,54.882 1179.59,54.882C1179.33,54.882 1179.09,54.814 1178.86,54.678C1178.62,54.542 1178.45,54.346 1178.34,54.09L1173.76,44.37C1173.69,44.242 1173.66,44.09 1173.66,43.914C1173.66,43.626 1173.79,43.378 1174.05,43.17C1174.3,42.962 1174.59,42.858 1174.91,42.858C1175.37,42.858 1175.72,43.082 1175.94,43.53L1179.66,51.786L1183.36,43.554C1183.45,43.314 1183.59,43.138 1183.78,43.026Z" style="fill-rule:nonzero;"/><path d="M1187.86,54.618C1187.62,54.426 1187.51,54.138 1187.51,53.754L1187.51,44.01C1187.51,43.626 1187.62,43.334 1187.86,43.134C1188.09,42.934 1188.38,42.834 1188.73,42.834C1189.09,42.834 1189.37,42.934 1189.6,43.134C1189.82,43.334 1189.93,43.626 1189.93,44.01L1189.93,53.754C1189.93,54.138 1189.82,54.426 1189.6,54.618C1189.37,54.81 1189.09,54.906 1188.73,54.906C1188.38,54.906 1188.09,54.81 1187.86,54.618ZM1187.63,40.098C1187.36,39.842 1187.22,39.506 1187.22,39.09C1187.22,38.674 1187.36,38.342 1187.63,38.094C1187.9,37.846 1188.27,37.722 1188.73,37.722C1189.18,37.722 1189.55,37.846 1189.83,38.094C1190.11,38.342 1190.25,38.674 1190.25,39.09C1190.25,39.506 1190.11,39.842 1189.84,40.098C1189.57,40.354 1189.2,40.482 1188.73,40.482C1188.27,40.482 1187.9,40.354 1187.63,40.098Z" style="fill-rule:nonzero;"/><path d="M1195.35,54.21C1194.49,53.714 1193.83,53.01 1193.35,52.098C1192.88,51.186 1192.64,50.13 1192.64,48.93C1192.64,47.714 1192.89,46.642 1193.38,45.714C1193.87,44.786 1194.55,44.066 1195.43,43.554C1196.31,43.042 1197.32,42.786 1198.45,42.786C1199.06,42.786 1199.67,42.874 1200.29,43.05C1200.9,43.226 1201.45,43.466 1201.93,43.77C1202.44,44.122 1202.7,44.53 1202.7,44.994C1202.7,45.266 1202.63,45.494 1202.49,45.678C1202.34,45.862 1202.16,45.954 1201.93,45.954C1201.79,45.954 1201.64,45.918 1201.5,45.846C1201.36,45.774 1201.17,45.666 1200.95,45.522C1200.55,45.266 1200.18,45.07 1199.83,44.934C1199.49,44.798 1199.08,44.73 1198.6,44.73C1197.51,44.73 1196.66,45.098 1196.07,45.834C1195.46,46.57 1195.16,47.594 1195.16,48.906C1195.16,50.218 1195.46,51.23 1196.05,51.942C1196.64,52.654 1197.49,53.01 1198.57,53.01C1199.05,53.01 1199.48,52.938 1199.85,52.794C1200.21,52.65 1200.59,52.458 1200.97,52.218C1201.15,52.106 1201.33,52.01 1201.5,51.93C1201.68,51.85 1201.84,51.81 1201.98,51.81C1202.2,51.81 1202.39,51.902 1202.53,52.086C1202.68,52.27 1202.75,52.498 1202.75,52.77C1202.75,52.994 1202.69,53.198 1202.57,53.382C1202.45,53.566 1202.25,53.754 1201.96,53.946C1201.48,54.266 1200.92,54.514 1200.28,54.69C1199.64,54.866 1198.99,54.954 1198.33,54.954C1197.2,54.954 1196.2,54.706 1195.35,54.21Z" style="fill-rule:nonzero;"/><path d="M1214.63,52.098C1214.77,52.274 1214.85,52.498 1214.85,52.77C1214.85,53.234 1214.56,53.626 1213.98,53.946C1213.42,54.266 1212.81,54.514 1212.14,54.69C1211.48,54.866 1210.85,54.954 1210.24,54.954C1208.38,54.954 1206.92,54.414 1205.85,53.334C1204.77,52.254 1204.24,50.778 1204.24,48.906C1204.24,47.706 1204.47,46.642 1204.94,45.714C1205.42,44.786 1206.08,44.066 1206.94,43.554C1207.79,43.042 1208.77,42.786 1209.85,42.786C1211.42,42.786 1212.66,43.29 1213.57,44.298C1214.49,45.306 1214.94,46.666 1214.94,48.378C1214.94,49.018 1214.65,49.338 1214.08,49.338L1206.66,49.338C1206.82,51.818 1208.01,53.058 1210.24,53.058C1210.83,53.058 1211.34,52.978 1211.77,52.818C1212.2,52.658 1212.66,52.45 1213.14,52.194C1213.19,52.162 1213.32,52.094 1213.54,51.99C1213.75,51.886 1213.93,51.834 1214.08,51.834C1214.3,51.834 1214.49,51.922 1214.63,52.098ZM1207.67,45.45C1207.11,46.042 1206.77,46.874 1206.66,47.946L1212.85,47.946C1212.81,46.858 1212.53,46.022 1212.03,45.438C1211.52,44.854 1210.81,44.562 1209.9,44.562C1208.97,44.562 1208.23,44.858 1207.67,45.45Z" style="fill-rule:nonzero;"/><path d="M1217.68,53.946C1217.39,53.77 1217.18,53.586 1217.07,53.394C1216.94,53.202 1216.88,52.986 1216.88,52.746C1216.88,52.49 1216.96,52.274 1217.1,52.098C1217.25,51.922 1217.43,51.834 1217.65,51.834C1217.86,51.834 1218.19,51.962 1218.64,52.218C1219.12,52.474 1219.59,52.682 1220.04,52.842C1220.5,53.002 1221.07,53.082 1221.76,53.082C1222.53,53.082 1223.12,52.946 1223.56,52.674C1223.99,52.402 1224.2,52.018 1224.2,51.522C1224.2,51.202 1224.12,50.946 1223.95,50.754C1223.79,50.562 1223.49,50.39 1223.08,50.238C1222.66,50.086 1222.05,49.922 1221.23,49.746C1219.82,49.442 1218.81,49.03 1218.19,48.51C1217.58,47.99 1217.27,47.282 1217.27,46.386C1217.27,45.698 1217.47,45.078 1217.87,44.526C1218.27,43.974 1218.82,43.546 1219.53,43.242C1220.23,42.938 1221.03,42.786 1221.92,42.786C1222.57,42.786 1223.19,42.87 1223.8,43.038C1224.4,43.206 1224.94,43.45 1225.4,43.77C1225.93,44.122 1226.2,44.53 1226.2,44.994C1226.2,45.25 1226.12,45.466 1225.97,45.642C1225.82,45.818 1225.64,45.906 1225.43,45.906C1225.29,45.906 1225.14,45.874 1225,45.81C1224.85,45.746 1224.66,45.642 1224.42,45.498C1223.99,45.242 1223.59,45.042 1223.21,44.898C1222.83,44.754 1222.37,44.682 1221.81,44.682C1221.13,44.682 1220.59,44.826 1220.18,45.114C1219.78,45.402 1219.57,45.794 1219.57,46.29C1219.57,46.738 1219.76,47.086 1220.14,47.334C1220.51,47.582 1221.22,47.818 1222.26,48.042C1223.33,48.266 1224.17,48.522 1224.78,48.81C1225.39,49.098 1225.83,49.454 1226.09,49.878C1226.35,50.302 1226.49,50.842 1226.49,51.498C1226.49,52.538 1226.05,53.374 1225.18,54.006C1224.31,54.638 1223.14,54.954 1221.68,54.954C1220.05,54.954 1218.72,54.618 1217.68,53.946Z" style="fill-rule:nonzero;"/><path d="M1236.28,48.474C1236.28,44.938 1237.13,41.578 1238.85,38.394C1238.99,38.17 1239.16,37.998 1239.35,37.878C1239.54,37.758 1239.74,37.698 1239.95,37.698C1240.19,37.698 1240.38,37.766 1240.54,37.902C1240.69,38.038 1240.77,38.226 1240.77,38.466C1240.77,38.642 1240.73,38.802 1240.67,38.946C1239.4,42.002 1238.77,45.178 1238.77,48.474C1238.77,51.754 1239.4,54.922 1240.67,57.978C1240.73,58.122 1240.77,58.282 1240.77,58.458C1240.77,58.682 1240.68,58.866 1240.53,59.01C1240.37,59.154 1240.17,59.226 1239.95,59.226C1239.74,59.226 1239.54,59.166 1239.35,59.046C1239.16,58.926 1238.99,58.754 1238.85,58.53C1237.13,55.378 1236.28,52.026 1236.28,48.474Z" style="fill-rule:nonzero;"/><path d="M1258.81,53.826C1258.81,54.13 1258.69,54.386 1258.44,54.594C1258.19,54.802 1257.92,54.906 1257.61,54.906C1257.4,54.906 1257.21,54.846 1257.03,54.726C1256.84,54.606 1256.7,54.434 1256.61,54.21L1255.02,50.61L1246.24,50.61L1244.65,54.21C1244.56,54.434 1244.41,54.606 1244.22,54.726C1244.03,54.846 1243.83,54.906 1243.62,54.906C1243.3,54.906 1243.02,54.802 1242.77,54.594C1242.52,54.386 1242.4,54.13 1242.4,53.826C1242.4,53.698 1242.44,53.538 1242.52,53.346L1249.29,38.538C1249.4,38.282 1249.58,38.082 1249.83,37.938C1250.07,37.794 1250.33,37.722 1250.61,37.722C1250.88,37.722 1251.14,37.794 1251.38,37.938C1251.63,38.082 1251.81,38.282 1251.92,38.538L1258.69,53.346C1258.77,53.538 1258.81,53.698 1258.81,53.826ZM1247.12,48.642L1254.16,48.642L1250.63,40.698L1247.12,48.642Z" style="fill-rule:nonzero;"/><path d="M1274.28,46.074C1274.46,46.25 1274.56,46.49 1274.56,46.794L1274.56,52.41C1274.56,52.954 1274.48,53.346 1274.33,53.586C1274.18,53.826 1273.88,54.018 1273.43,54.162C1272.79,54.418 1272.03,54.618 1271.15,54.762C1270.27,54.906 1269.4,54.978 1268.53,54.978C1266.82,54.978 1265.34,54.634 1264.09,53.946C1262.85,53.258 1261.89,52.266 1261.24,50.97C1260.58,49.674 1260.25,48.122 1260.25,46.314C1260.25,44.538 1260.58,43.002 1261.24,41.706C1261.89,40.41 1262.83,39.414 1264.06,38.718C1265.28,38.022 1266.72,37.674 1268.37,37.674C1269.49,37.674 1270.52,37.838 1271.47,38.166C1272.42,38.494 1273.24,38.97 1273.91,39.594C1274.23,39.85 1274.39,40.17 1274.39,40.554C1274.39,40.842 1274.31,41.086 1274.15,41.286C1273.99,41.486 1273.8,41.586 1273.57,41.586C1273.43,41.586 1273.3,41.562 1273.19,41.514C1273.08,41.466 1272.93,41.386 1272.76,41.274C1271.97,40.698 1271.26,40.294 1270.62,40.062C1269.98,39.83 1269.25,39.714 1268.41,39.714C1266.59,39.714 1265.2,40.278 1264.24,41.406C1263.28,42.534 1262.8,44.17 1262.8,46.314C1262.8,48.506 1263.29,50.166 1264.27,51.294C1265.26,52.422 1266.7,52.986 1268.61,52.986C1269.88,52.986 1271.12,52.794 1272.3,52.41L1272.3,47.682L1269.16,47.682C1268.84,47.682 1268.59,47.598 1268.4,47.43C1268.22,47.262 1268.12,47.034 1268.12,46.746C1268.12,46.458 1268.22,46.23 1268.4,46.062C1268.59,45.894 1268.84,45.81 1269.16,45.81L1273.55,45.81C1273.85,45.81 1274.1,45.898 1274.28,46.074Z" style="fill-rule:nonzero;"/><path d="M1280.42,54.474C1279.33,54.138 1278.45,53.674 1277.8,53.082C1277.49,52.826 1277.34,52.498 1277.34,52.098C1277.34,51.81 1277.42,51.566 1277.58,51.366C1277.74,51.166 1277.93,51.066 1278.16,51.066C1278.38,51.066 1278.65,51.17 1278.97,51.378C1280.4,52.434 1282.02,52.962 1283.85,52.962C1285.12,52.962 1286.11,52.722 1286.8,52.242C1287.49,51.762 1287.83,51.074 1287.83,50.178C1287.83,49.474 1287.51,48.946 1286.87,48.594C1286.23,48.242 1285.2,47.906 1283.8,47.586C1282.45,47.298 1281.35,46.97 1280.49,46.602C1279.62,46.234 1278.94,45.734 1278.46,45.102C1277.97,44.47 1277.73,43.666 1277.73,42.69C1277.73,41.714 1277.99,40.846 1278.53,40.086C1279.07,39.326 1279.81,38.734 1280.77,38.31C1281.73,37.886 1282.83,37.674 1284.06,37.674C1285.2,37.674 1286.25,37.834 1287.2,38.154C1288.16,38.474 1288.98,38.946 1289.65,39.57C1289.97,39.842 1290.13,40.17 1290.13,40.554C1290.13,40.826 1290.05,41.066 1289.88,41.274C1289.71,41.482 1289.52,41.586 1289.29,41.586C1289.09,41.586 1288.82,41.482 1288.5,41.274C1287.77,40.714 1287.07,40.31 1286.42,40.062C1285.78,39.814 1285,39.69 1284.09,39.69C1282.85,39.69 1281.89,39.942 1281.2,40.446C1280.52,40.95 1280.17,41.65 1280.17,42.546C1280.17,43.314 1280.48,43.894 1281.09,44.286C1281.69,44.678 1282.67,45.034 1284.01,45.354C1285.42,45.674 1286.56,46.006 1287.43,46.35C1288.31,46.694 1289,47.166 1289.52,47.766C1290.04,48.366 1290.3,49.138 1290.3,50.082C1290.3,51.042 1290.03,51.894 1289.5,52.638C1288.96,53.382 1288.21,53.958 1287.24,54.366C1286.27,54.774 1285.16,54.978 1283.89,54.978C1282.68,54.978 1281.52,54.81 1280.42,54.474Z" style="fill-rule:nonzero;"/><path d="M1295.47,54.474C1294.38,54.138 1293.5,53.674 1292.85,53.082C1292.54,52.826 1292.39,52.498 1292.39,52.098C1292.39,51.81 1292.47,51.566 1292.63,51.366C1292.79,51.166 1292.98,51.066 1293.2,51.066C1293.43,51.066 1293.7,51.17 1294.02,51.378C1295.44,52.434 1297.07,52.962 1298.89,52.962C1300.17,52.962 1301.16,52.722 1301.85,52.242C1302.53,51.762 1302.88,51.074 1302.88,50.178C1302.88,49.474 1302.56,48.946 1301.92,48.594C1301.28,48.242 1300.25,47.906 1298.85,47.586C1297.5,47.298 1296.4,46.97 1295.53,46.602C1294.67,46.234 1293.99,45.734 1293.51,45.102C1293.02,44.47 1292.77,43.666 1292.77,42.69C1292.77,41.714 1293.04,40.846 1293.58,40.086C1294.11,39.326 1294.86,38.734 1295.82,38.31C1296.78,37.886 1297.88,37.674 1299.11,37.674C1300.25,37.674 1301.29,37.834 1302.25,38.154C1303.21,38.474 1304.03,38.946 1304.7,39.57C1305.02,39.842 1305.18,40.17 1305.18,40.554C1305.18,40.826 1305.1,41.066 1304.93,41.274C1304.76,41.482 1304.57,41.586 1304.34,41.586C1304.13,41.586 1303.87,41.482 1303.55,41.274C1302.81,40.714 1302.12,40.31 1301.47,40.062C1300.83,39.814 1300.05,39.69 1299.13,39.69C1297.9,39.69 1296.94,39.942 1296.25,40.446C1295.57,40.95 1295.22,41.65 1295.22,42.546C1295.22,43.314 1295.53,43.894 1296.13,44.286C1296.74,44.678 1297.72,45.034 1299.06,45.354C1300.47,45.674 1301.61,46.006 1302.48,46.35C1303.35,46.694 1304.05,47.166 1304.57,47.766C1305.09,48.366 1305.35,49.138 1305.35,50.082C1305.35,51.042 1305.08,51.894 1304.55,52.638C1304.01,53.382 1303.26,53.958 1302.29,54.366C1301.32,54.774 1300.2,54.978 1298.94,54.978C1297.73,54.978 1296.57,54.81 1295.47,54.474Z" style="fill-rule:nonzero;"/><path d="M1308.88,59.046C1308.68,59.166 1308.49,59.226 1308.28,59.226C1308.04,59.226 1307.84,59.158 1307.69,59.022C1307.54,58.886 1307.46,58.698 1307.46,58.458C1307.46,58.282 1307.49,58.122 1307.56,57.978C1308.82,54.922 1309.45,51.754 1309.45,48.474C1309.45,45.178 1308.82,42.002 1307.56,38.946C1307.49,38.802 1307.46,38.642 1307.46,38.466C1307.46,38.242 1307.54,38.058 1307.7,37.914C1307.86,37.77 1308.05,37.698 1308.28,37.698C1308.49,37.698 1308.68,37.758 1308.88,37.878C1309.07,37.998 1309.24,38.17 1309.38,38.394C1311.08,41.546 1311.92,44.906 1311.92,48.474C1311.92,52.058 1311.08,55.41 1309.38,58.53C1309.24,58.754 1309.07,58.926 1308.88,59.046Z" style="fill-rule:nonzero;"/></g></g></svg>