<?xml version="1.0" encoding="UTF-8" standalone="no"?>
<svg width="718px" height="161px" viewBox="0 0 718 161" version="1.1" xmlns="http://www.w3.org/2000/svg" xmlns:xlink="http://www.w3.org/1999/xlink">
    <!-- Generator: Sketch 50.2 (55047) - http://www.bohemiancoding.com/sketch -->
    <title>Group 72</title>
    <desc>Created with Sketch.</desc>
    <defs></defs>
    <g id="Page-1" stroke="none" stroke-width="1" fill="none" fill-rule="evenodd">
        <g id="Group-72" fill="#979797" fill-rule="nonzero">
            <path d="M0,94.2 L0,87.8 L374.204815,87.8 L374.204815,94.2 L0,94.2 Z M528.356918,94.2 L528.356918,87.8 L709.2,87.8 C710.083656,87.8 710.8,87.0836556 710.8,86.2 L710.8,68 L717.2,68 L717.2,86.2 C717.2,90.618278 713.618278,94.2 709.2,94.2 L528.356918,94.2 Z" id="Path-45-Copy" transform="translate(358.600000, 81.100000) scale(-1, 1) translate(-358.600000, -81.100000) "></path>
            <g id="Group-23" transform="translate(183.000000, 0.000000)">
                <path d="M6,6 L6,154.176991 L154.194175,154.176991 L154.194175,6 L6,6 Z M6,0 L154.194175,-8.8817842e-16 C157.507883,-1.4968968e-15 160.194175,2.6862915 160.194175,6 L160.194175,154.176991 C160.194175,157.4907 157.507883,160.176991 154.194175,160.176991 L6,160.176991 C2.6862915,160.176991 -4.82366169e-16,157.4907 -8.8817842e-16,154.176991 L8.8817842e-16,6 C4.82366169e-16,2.6862915 2.6862915,-2.79460044e-16 6,0 Z" id="Rectangle-3-Copy-15"></path>
            </g>
        </g>
    </g>
</svg>