<?xml version="1.0" encoding="UTF-8" standalone="no"?>
<svg width="167px" height="110px" viewBox="0 0 167 110" version="1.1" xmlns="http://www.w3.org/2000/svg" xmlns:xlink="http://www.w3.org/1999/xlink">
    <!-- Generator: Sketch 50 (54983) - http://www.bohemiancoding.com/sketch -->
    <title>Internet_Cloud_Headquarter</title>
    <desc>Created with Sketch.</desc>
    <defs></defs>
    <g id="Page-1" stroke="none" stroke-width="1" fill="none" fill-rule="evenodd">
        <g id="Internet_Cloud_Headquarter" fill="#47AFE8">
            <path d="M73.1165803,9.96062992 C90.4222798,9.96062992 104.699482,21.6535433 108.593264,37.6771654 C111.189119,35.9448819 114.650259,35.0787402 117.678756,35.0787402 C127.629534,35.0787402 135.849741,43.3070866 135.849741,53.2677165 C135.849741,55 135.417098,56.7322835 134.984456,58.4645669 C135.417098,58.4645669 135.417098,58.4645669 135.849741,58.4645669 C147.098446,58.4645669 156.61658,67.5590551 156.61658,79.2519685 C156.61658,90.511811 147.531088,100.03937 135.849741,100.03937 L38.5051813,100.03937 C22.4974093,100.03937 9.9507772,87.0472441 9.9507772,71.4566929 C9.9507772,56.2992126 21.6321244,43.7401575 36.3419689,42.8740157 C38.9378238,24.2519685 54.5129534,9.96062992 73.1165803,9.96062992 M73.1165803,0 C51.9170984,0 33.746114,14.2913386 28.1217617,33.7795276 C11.6813472,38.5433071 0,53.7007874 0,71.023622 C0,92.6771654 17.3056995,110 38.9378238,110 L136.282383,110 C153.15544,110 167,96.1417323 167,79.2519685 C167,65.3937008 157.914508,54.1338583 145.800518,49.8031496 C144.069948,35.9448819 131.955959,25.1181102 117.678756,25.1181102 C116.813472,25.1181102 115.515544,25.1181102 114.650259,25.1181102 C106.862694,9.96062992 90.8549223,0 73.1165803,0" id="Shape" fill-rule="nonzero"></path>
            <path d="M34.4828626,78.2986072 C34.188131,77.9977701 34.0407674,77.6050164 34.0407674,77.1203343 L34.0407674,62.4044568 C34.0407674,61.9197747 34.188131,61.5311992 34.4828626,61.2387187 C34.7775942,60.9462381 35.1691603,60.8 35.6575727,60.8 C36.1628269,60.8 36.5628138,60.9462381 36.8575454,61.2387187 C37.1522771,61.5311992 37.2996407,61.9197747 37.2996407,62.4044568 L37.2996407,77.1203343 C37.2996407,77.6050164 37.1522771,77.9977701 36.8575454,78.2986072 C36.5628138,78.5994444 36.1628269,78.7498607 35.6575727,78.7498607 C35.1691603,78.7498607 34.7775942,78.5994444 34.4828626,78.2986072 Z M51.3456371,67.2930362 C52.0698348,68.128695 52.4319282,69.3905208 52.4319282,71.0785515 L52.4319282,77.2456825 C52.4319282,77.7136514 52.2929854,78.0813357 52.0150956,78.3487465 C51.7372057,78.6161573 51.3540604,78.7498607 50.865648,78.7498607 C50.3772356,78.7498607 49.9898799,78.6161573 49.7035692,78.3487465 C49.4172585,78.0813357 49.2741052,77.7136514 49.2741052,77.2456825 L49.2741052,71.254039 C49.2741052,70.301388 49.0930585,69.6078016 48.7309597,69.1732591 C48.3688609,68.7387165 47.8004584,68.5214485 47.0257353,68.5214485 C46.1162778,68.5214485 45.3878806,68.8055682 44.8405218,69.3738162 C44.2931631,69.9420641 44.0194879,70.7025022 44.0194879,71.6551532 L44.0194879,77.2456825 C44.0194879,77.7136514 43.8763347,78.0813357 43.590024,78.3487465 C43.3037132,78.6161573 42.9163575,78.7498607 42.4279451,78.7498607 C41.9395327,78.7498607 41.5563874,78.6161573 41.2784976,78.3487465 C41.0006078,78.0813357 40.8616649,77.7136514 40.8616649,77.2456825 L40.8616649,67.5437326 C40.8616649,67.10919 41.0048181,66.7582186 41.2911289,66.4908078 C41.5774396,66.223397 41.9647953,66.0896936 42.4532077,66.0896936 C42.8910947,66.0896936 43.2489777,66.2192188 43.5268675,66.478273 C43.8047573,66.7373272 43.9437001,67.0757639 43.9437001,67.4935933 L43.9437001,68.1704735 C44.3647453,67.4852333 44.9289373,66.9587762 45.6362932,66.5910864 C46.3436491,66.2233965 47.1436229,66.0395543 48.0362387,66.0395543 C49.5183176,66.0395543 50.6214394,66.4573774 51.3456371,67.2930362 Z M63.3201017,77.5465181 C63.3201017,77.9476343 63.1558965,78.2526452 62.8274813,78.4615599 C62.4990661,78.6704746 62.0317129,78.7582174 61.4254079,78.7247911 L60.7433182,78.6746518 C57.9138947,78.4740937 56.4992041,76.9699305 56.4992041,74.162117 L56.4992041,68.6969359 L55.236075,68.6969359 C54.7813462,68.6969359 54.4318839,68.5966584 54.1876777,68.3961003 C53.9434715,68.1955422 53.8213703,67.903066 53.8213703,67.518663 C53.8213703,67.1342599 53.9434715,66.8417837 54.1876777,66.6412256 C54.4318839,66.4406675 54.7813462,66.34039 55.236075,66.34039 L56.4992041,66.34039 L56.4992041,64.0339833 C56.4992041,63.5827275 56.6423573,63.2233997 56.928668,62.9559889 C57.2149788,62.6885781 57.6023345,62.5548747 58.0907469,62.5548747 C58.5623175,62.5548747 58.9412524,62.6885781 59.2275631,62.9559889 C59.5138739,63.2233997 59.6570271,63.5827275 59.6570271,64.0339833 L59.6570271,66.34039 L61.8043467,66.34039 C62.2590754,66.34039 62.6085377,66.4406675 62.8527439,66.6412256 C63.0969501,66.8417837 63.2190513,67.1342599 63.2190513,67.518663 C63.2190513,67.903066 63.0969501,68.1955422 62.8527439,68.3961003 C62.6085377,68.5966584 62.2590754,68.6969359 61.8043467,68.6969359 L59.6570271,68.6969359 L59.6570271,74.3877437 C59.6570271,75.6245187 60.2296399,76.2846792 61.3748827,76.3682451 L62.0569725,76.4183844 C62.8990628,76.4685239 63.3201017,76.8445647 63.3201017,77.5465181 Z M75.4335105,75.5660167 C75.6103494,75.783288 75.6987676,76.0757642 75.6987676,76.443454 C75.6987676,76.9615625 75.3871989,77.3960985 74.764052,77.7470752 C74.1914306,78.0646255 73.5430308,78.3194976 72.8188331,78.5116992 C72.0946354,78.7039007 71.4041317,78.8 70.7473012,78.8 C68.7599681,78.8 67.1852828,78.2317606 66.0231981,77.0952646 C64.8611135,75.9587687 64.2800799,74.4044667 64.2800799,72.432312 C64.2800799,71.1788238 64.5327032,70.0674143 65.0379574,69.0980501 C65.5432116,68.128686 66.2547672,67.3766043 67.1726457,66.8417827 C68.0905241,66.3069611 69.1304901,66.0395543 70.2925747,66.0395543 C71.404134,66.0395543 72.3725233,66.2818917 73.1977718,66.7665738 C74.0230204,67.2512559 74.6629994,67.9364858 75.1177282,68.8222841 C75.572457,69.7080824 75.7998179,70.7526402 75.7998179,71.9559889 C75.7998179,72.6746554 75.4798284,73.0339833 74.8398398,73.0339833 L67.3873776,73.0339833 C67.4884285,74.1871924 67.8168388,75.0353733 68.3726184,75.5785515 C68.928398,76.1217297 69.7367926,76.3933148 70.7978264,76.3933148 C71.3367642,76.3933148 71.8125381,76.3264631 72.2251624,76.1927577 C72.6377866,76.0590523 73.1051397,75.8752101 73.6272358,75.6412256 C74.1324899,75.3738148 74.5030041,75.2401114 74.7387894,75.2401114 C75.0251001,75.2401114 75.2566715,75.3487454 75.4335105,75.5660167 Z M68.3094619,69.0479109 C67.7957868,69.5827325 67.4884285,70.351527 67.3873776,71.3543175 L73.0967215,71.3543175 C73.0630379,70.3348138 72.8104146,69.5618411 72.338844,69.035376 C71.8672734,68.508911 71.2104528,68.2456825 70.3683625,68.2456825 C69.5094303,68.2456825 68.823137,68.5130892 68.3094619,69.0479109 Z M86.3090527,66.3654596 C86.5616798,66.5827309 86.6879914,66.9086329 86.6879914,67.3431755 C86.6879914,67.7944312 86.5785213,68.1286897 86.3595778,68.345961 C86.1406344,68.5632323 85.7448578,68.7052921 85.1722364,68.7721448 L84.4143589,68.8473538 C83.4206923,68.9476328 82.6922951,69.2818913 82.2291454,69.8501393 C81.7659958,70.4183872 81.5344244,71.1286865 81.5344244,71.9810585 L81.5344244,77.2456825 C81.5344244,77.7303645 81.3828504,78.1022271 81.0796979,78.3612813 C80.7765454,78.6203356 80.3976104,78.7498607 79.9428816,78.7498607 C79.4881529,78.7498607 79.1134283,78.6203356 78.8186967,78.3612813 C78.523965,78.1022271 78.3766015,77.7303645 78.3766015,77.2456825 L78.3766015,67.5437326 C78.3766015,67.0757637 78.523965,66.7164358 78.8186967,66.4657382 C79.1134283,66.2150405 79.4797321,66.0896936 79.917619,66.0896936 C80.355506,66.0896936 80.7091786,66.2108623 80.9786476,66.4532033 C81.2481165,66.6955444 81.3828489,67.0423376 81.3828489,67.4935933 L81.3828489,68.4963788 C81.7028432,67.7609991 82.1786171,67.1927597 82.8101849,66.7916435 C83.4417526,66.3905272 84.1448875,66.1649028 84.9196106,66.1147632 L85.2732867,66.0896936 C85.7111737,66.0562672 86.0564256,66.1481883 86.3090527,66.3654596 Z M98.5361431,67.2930362 C99.2603408,68.128695 99.6224342,69.3905208 99.6224342,71.0785515 L99.6224342,77.2456825 C99.6224342,77.7136514 99.4834914,78.0813357 99.2056016,78.3487465 C98.9277117,78.6161573 98.5445664,78.7498607 98.056154,78.7498607 C97.5677416,78.7498607 97.1803859,78.6161573 96.8940752,78.3487465 C96.6077645,78.0813357 96.4646112,77.7136514 96.4646112,77.2456825 L96.4646112,71.254039 C96.4646112,70.301388 96.2835645,69.6078016 95.9214657,69.1732591 C95.5593669,68.7387165 94.9909644,68.5214485 94.2162413,68.5214485 C93.3067838,68.5214485 92.5783866,68.8055682 92.0310278,69.3738162 C91.4836691,69.9420641 91.2099939,70.7025022 91.2099939,71.6551532 L91.2099939,77.2456825 C91.2099939,77.7136514 91.0668407,78.0813357 90.78053,78.3487465 C90.4942192,78.6161573 90.1068635,78.7498607 89.6184511,78.7498607 C89.1300387,78.7498607 88.7468934,78.6161573 88.4690036,78.3487465 C88.1911138,78.0813357 88.0521709,77.7136514 88.0521709,77.2456825 L88.0521709,67.5437326 C88.0521709,67.10919 88.1953241,66.7582186 88.4816349,66.4908078 C88.7679456,66.223397 89.1553013,66.0896936 89.6437137,66.0896936 C90.0816007,66.0896936 90.4394837,66.2192188 90.7173735,66.478273 C90.9952633,66.7373272 91.1342061,67.0757639 91.1342061,67.4935933 L91.1342061,68.1704735 C91.5552513,67.4852333 92.1194433,66.9587762 92.8267992,66.5910864 C93.5341551,66.2233965 94.3341289,66.0395543 95.2267447,66.0395543 C96.7088236,66.0395543 97.8119454,66.4573774 98.5361431,67.2930362 Z M113.302123,75.5660167 C113.478962,75.783288 113.56738,76.0757642 113.56738,76.443454 C113.56738,76.9615625 113.255812,77.3960985 112.632665,77.7470752 C112.060043,78.0646255 111.411643,78.3194976 110.687446,78.5116992 C109.963248,78.7039007 109.272744,78.8 108.615914,78.8 C106.628581,78.8 105.053895,78.2317606 103.891811,77.0952646 C102.729726,75.9587687 102.148693,74.4044667 102.148693,72.432312 C102.148693,71.1788238 102.401316,70.0674143 102.90657,69.0980501 C103.411824,68.128686 104.12338,67.3766043 105.041258,66.8417827 C105.959137,66.3069611 106.999103,66.0395543 108.161187,66.0395543 C109.272747,66.0395543 110.241136,66.2818917 111.066385,66.7665738 C111.891633,67.2512559 112.531612,67.9364858 112.986341,68.8222841 C113.44107,69.7080824 113.668431,70.7526402 113.668431,71.9559889 C113.668431,72.6746554 113.348441,73.0339833 112.708452,73.0339833 L105.25599,73.0339833 C105.357041,74.1871924 105.685451,75.0353733 106.241231,75.5785515 C106.797011,76.1217297 107.605405,76.3933148 108.666439,76.3933148 C109.205377,76.3933148 109.681151,76.3264631 110.093775,76.1927577 C110.506399,76.0590523 110.973752,75.8752101 111.495848,75.6412256 C112.001103,75.3738148 112.371617,75.2401114 112.607402,75.2401114 C112.893713,75.2401114 113.125284,75.3487454 113.302123,75.5660167 Z M106.178075,69.0479109 C105.6644,69.5827325 105.357041,70.351527 105.25599,71.3543175 L110.965334,71.3543175 C110.931651,70.3348138 110.679027,69.5618411 110.207457,69.035376 C109.735886,68.508911 109.079065,68.2456825 108.236975,68.2456825 C107.378043,68.2456825 106.69175,68.5130892 106.178075,69.0479109 Z M123.748201,77.5465181 C123.748201,77.9476343 123.583996,78.2526452 123.255581,78.4615599 C122.927166,78.6704746 122.459813,78.7582174 121.853508,78.7247911 L121.171418,78.6746518 C118.341994,78.4740937 116.927304,76.9699305 116.927304,74.162117 L116.927304,68.6969359 L115.664175,68.6969359 C115.209446,68.6969359 114.859984,68.5966584 114.615777,68.3961003 C114.371571,68.1955422 114.24947,67.903066 114.24947,67.518663 C114.24947,67.1342599 114.371571,66.8417837 114.615777,66.6412256 C114.859984,66.4406675 115.209446,66.34039 115.664175,66.34039 L116.927304,66.34039 L116.927304,64.0339833 C116.927304,63.5827275 117.070457,63.2233997 117.356768,62.9559889 C117.643079,62.6885781 118.030434,62.5548747 118.518847,62.5548747 C118.990417,62.5548747 119.369352,62.6885781 119.655663,62.9559889 C119.941974,63.2233997 120.085127,63.5827275 120.085127,64.0339833 L120.085127,66.34039 L122.232446,66.34039 C122.687175,66.34039 123.036637,66.4406675 123.280844,66.6412256 C123.52505,66.8417837 123.647151,67.1342599 123.647151,67.518663 C123.647151,67.903066 123.52505,68.1955422 123.280844,68.3961003 C123.036637,68.5966584 122.687175,68.6969359 122.232446,68.6969359 L120.085127,68.6969359 L120.085127,74.3877437 C120.085127,75.6245187 120.65774,76.2846792 121.802983,76.3682451 L122.485072,76.4183844 C123.327163,76.4685239 123.748201,76.8445647 123.748201,77.5465181 Z" id="Internet"></path>
        </g>
    </g>
</svg>