<?xml version="1.0" encoding="UTF-8" standalone="no"?><!DOCTYPE svg PUBLIC "-//W3C//DTD SVG 1.1//EN" "http://www.w3.org/Graphics/SVG/1.1/DTD/svg11.dtd"><svg width="100%" height="100%" viewBox="0 0 96 11" version="1.1" xmlns="http://www.w3.org/2000/svg" xmlns:xlink="http://www.w3.org/1999/xlink" xml:space="preserve" xmlns:serif="http://www.serif.com/" style="fill-rule:evenodd;clip-rule:evenodd;stroke-linejoin:round;stroke-miterlimit:1.41421;"><g id="Remote-worker"><path d="M8.063,9.608c0,0.14 -0.054,0.254 -0.161,0.343c-0.107,0.089 -0.231,0.133 -0.371,0.133c-0.215,0 -0.383,-0.093 -0.504,-0.28l-1.876,-2.968c-0.243,-0.383 -0.495,-0.646 -0.756,-0.791c-0.261,-0.145 -0.616,-0.217 -1.064,-0.217l-1.764,0l0,3.654c0,0.177 -0.051,0.32 -0.154,0.427c-0.103,0.107 -0.238,0.161 -0.406,0.161c-0.177,0 -0.317,-0.054 -0.42,-0.161c-0.103,-0.107 -0.154,-0.25 -0.154,-0.427l0,-8.792c0,-0.168 0.054,-0.303 0.161,-0.406c0.107,-0.103 0.25,-0.154 0.427,-0.154l3.472,0c1.073,0 1.892,0.238 2.457,0.714c0.565,0.476 0.847,1.176 0.847,2.1c0,0.784 -0.226,1.414 -0.679,1.89c-0.453,0.476 -1.099,0.765 -1.939,0.868c0.233,0.075 0.443,0.196 0.63,0.364c0.187,0.168 0.373,0.401 0.56,0.7l1.596,2.52c0.065,0.103 0.098,0.21 0.098,0.322Zm-3.668,-4.732c0.765,0 1.337,-0.159 1.715,-0.476c0.378,-0.317 0.567,-0.798 0.567,-1.442c0,-0.635 -0.187,-1.106 -0.56,-1.414c-0.373,-0.308 -0.947,-0.462 -1.722,-0.462l-2.828,0l0,3.794l2.828,0Z" style="fill-rule:nonzero;"/><path d="M15.413,8.544c0.075,0.084 0.112,0.191 0.112,0.322c0,0.233 -0.163,0.448 -0.49,0.644c-0.336,0.196 -0.691,0.343 -1.064,0.441c-0.373,0.098 -0.737,0.147 -1.092,0.147c-1.055,0 -1.888,-0.313 -2.499,-0.938c-0.611,-0.625 -0.917,-1.489 -0.917,-2.59c0,-0.7 0.135,-1.318 0.406,-1.855c0.271,-0.537 0.651,-0.954 1.141,-1.253c0.49,-0.299 1.048,-0.448 1.673,-0.448c0.887,0 1.591,0.289 2.114,0.868c0.523,0.579 0.784,1.363 0.784,2.352c0,0.187 -0.037,0.322 -0.112,0.406c-0.075,0.084 -0.196,0.126 -0.364,0.126l-4.508,0c0.084,1.605 0.845,2.408 2.282,2.408c0.364,0 0.677,-0.049 0.938,-0.147c0.261,-0.098 0.541,-0.231 0.84,-0.399c0.243,-0.14 0.406,-0.21 0.49,-0.21c0.103,0 0.191,0.042 0.266,0.126Zm-4.151,-4.088c-0.359,0.373 -0.572,0.901 -0.637,1.582l3.962,0c-0.019,-0.691 -0.191,-1.22 -0.518,-1.589c-0.327,-0.369 -0.784,-0.553 -1.372,-0.553c-0.597,0 -1.076,0.187 -1.435,0.56Z" style="fill-rule:nonzero;"/><path d="M27.103,5.716l0,3.794c0,0.177 -0.051,0.315 -0.154,0.413c-0.103,0.098 -0.238,0.147 -0.406,0.147c-0.168,0 -0.306,-0.049 -0.413,-0.147c-0.107,-0.098 -0.161,-0.236 -0.161,-0.413l0,-3.766c0,-0.625 -0.112,-1.078 -0.336,-1.358c-0.224,-0.28 -0.574,-0.42 -1.05,-0.42c-0.569,0 -1.017,0.191 -1.344,0.574c-0.327,0.383 -0.49,0.901 -0.49,1.554l0,3.416c0,0.177 -0.054,0.315 -0.161,0.413c-0.107,0.098 -0.245,0.147 -0.413,0.147c-0.168,0 -0.303,-0.049 -0.406,-0.147c-0.103,-0.098 -0.154,-0.236 -0.154,-0.413l0,-3.766c0,-0.625 -0.112,-1.078 -0.336,-1.358c-0.224,-0.28 -0.579,-0.42 -1.064,-0.42c-0.56,0 -1.006,0.191 -1.337,0.574c-0.331,0.383 -0.497,0.901 -0.497,1.554l0,3.416c0,0.177 -0.051,0.315 -0.154,0.413c-0.103,0.098 -0.238,0.147 -0.406,0.147c-0.168,0 -0.306,-0.049 -0.413,-0.147c-0.107,-0.098 -0.161,-0.236 -0.161,-0.413l0,-5.908c0,-0.168 0.054,-0.303 0.161,-0.406c0.107,-0.103 0.245,-0.154 0.413,-0.154c0.159,0 0.289,0.049 0.392,0.147c0.103,0.098 0.154,0.231 0.154,0.399l0,0.672c0.205,-0.401 0.49,-0.709 0.854,-0.924c0.364,-0.215 0.784,-0.322 1.26,-0.322c1.064,0 1.759,0.448 2.086,1.344c0.196,-0.411 0.495,-0.737 0.896,-0.98c0.401,-0.243 0.859,-0.364 1.372,-0.364c1.512,0 2.268,0.901 2.268,2.702Z" style="fill-rule:nonzero;"/><path d="M30.302,9.664c-0.49,-0.289 -0.868,-0.702 -1.134,-1.239c-0.266,-0.537 -0.399,-1.16 -0.399,-1.869c0,-0.709 0.133,-1.332 0.399,-1.869c0.266,-0.537 0.644,-0.95 1.134,-1.239c0.49,-0.289 1.057,-0.434 1.701,-0.434c0.644,0 1.213,0.145 1.708,0.434c0.495,0.289 0.875,0.702 1.141,1.239c0.266,0.537 0.399,1.16 0.399,1.869c0,0.709 -0.133,1.332 -0.399,1.869c-0.266,0.537 -0.646,0.95 -1.141,1.239c-0.495,0.289 -1.064,0.434 -1.708,0.434c-0.644,0 -1.211,-0.145 -1.701,-0.434Zm3.248,-1.169c0.359,-0.443 0.539,-1.09 0.539,-1.939c0,-0.831 -0.182,-1.472 -0.546,-1.925c-0.364,-0.453 -0.877,-0.679 -1.54,-0.679c-0.663,0 -1.176,0.226 -1.54,0.679c-0.364,0.453 -0.546,1.094 -0.546,1.925c0,0.84 0.18,1.484 0.539,1.932c0.359,0.448 0.875,0.672 1.547,0.672c0.672,0 1.188,-0.222 1.547,-0.665Z" style="fill-rule:nonzero;"/><path d="M40.571,9.622c0,0.159 -0.058,0.278 -0.175,0.357c-0.117,0.079 -0.292,0.11 -0.525,0.091l-0.378,-0.028c-0.747,-0.056 -1.297,-0.28 -1.652,-0.672c-0.355,-0.392 -0.532,-0.985 -0.532,-1.778l0,-3.514l-0.938,0c-0.159,0 -0.282,-0.04 -0.371,-0.119c-0.089,-0.079 -0.133,-0.184 -0.133,-0.315c0,-0.14 0.044,-0.252 0.133,-0.336c0.089,-0.084 0.212,-0.126 0.371,-0.126l0.938,0l0,-1.582c0,-0.177 0.051,-0.315 0.154,-0.413c0.103,-0.098 0.243,-0.147 0.42,-0.147c0.168,0 0.303,0.049 0.406,0.147c0.103,0.098 0.154,0.236 0.154,0.413l0,1.582l1.554,0c0.149,0 0.268,0.042 0.357,0.126c0.089,0.084 0.133,0.196 0.133,0.336c0,0.131 -0.044,0.236 -0.133,0.315c-0.089,0.079 -0.208,0.119 -0.357,0.119l-1.554,0l0,3.57c0,0.513 0.105,0.884 0.315,1.113c0.21,0.229 0.525,0.357 0.945,0.385l0.378,0.028c0.327,0.028 0.49,0.177 0.49,0.448Z" style="fill-rule:nonzero;"/><path d="M47.235,8.544c0.075,0.084 0.112,0.191 0.112,0.322c0,0.233 -0.163,0.448 -0.49,0.644c-0.336,0.196 -0.691,0.343 -1.064,0.441c-0.373,0.098 -0.737,0.147 -1.092,0.147c-1.055,0 -1.888,-0.313 -2.499,-0.938c-0.611,-0.625 -0.917,-1.489 -0.917,-2.59c0,-0.7 0.135,-1.318 0.406,-1.855c0.271,-0.537 0.651,-0.954 1.141,-1.253c0.49,-0.299 1.048,-0.448 1.673,-0.448c0.887,0 1.591,0.289 2.114,0.868c0.523,0.579 0.784,1.363 0.784,2.352c0,0.187 -0.037,0.322 -0.112,0.406c-0.075,0.084 -0.196,0.126 -0.364,0.126l-4.508,0c0.084,1.605 0.845,2.408 2.282,2.408c0.364,0 0.677,-0.049 0.938,-0.147c0.261,-0.098 0.541,-0.231 0.84,-0.399c0.243,-0.14 0.406,-0.21 0.49,-0.21c0.103,0 0.191,0.042 0.266,0.126Zm-4.151,-4.088c-0.359,0.373 -0.572,0.901 -0.637,1.582l3.962,0c-0.019,-0.691 -0.191,-1.22 -0.518,-1.589c-0.327,-0.369 -0.784,-0.553 -1.372,-0.553c-0.597,0 -1.076,0.187 -1.435,0.56Z" style="fill-rule:nonzero;"/><path d="M62.467,3.07c0.14,0 0.266,0.047 0.378,0.14c0.112,0.093 0.168,0.21 0.168,0.35c0,0.065 -0.014,0.135 -0.042,0.21l-2.324,5.88c-0.056,0.121 -0.138,0.217 -0.245,0.287c-0.107,0.07 -0.226,0.105 -0.357,0.105c-0.121,0 -0.236,-0.035 -0.343,-0.105c-0.107,-0.07 -0.189,-0.166 -0.245,-0.287l-1.932,-4.914l-1.918,4.914c-0.047,0.121 -0.126,0.217 -0.238,0.287c-0.112,0.07 -0.233,0.105 -0.364,0.105c-0.121,0 -0.238,-0.035 -0.35,-0.105c-0.112,-0.07 -0.196,-0.166 -0.252,-0.287l-2.324,-5.866c-0.028,-0.075 -0.042,-0.14 -0.042,-0.196c0,-0.149 0.063,-0.275 0.189,-0.378c0.126,-0.103 0.264,-0.154 0.413,-0.154c0.224,0 0.383,0.112 0.476,0.336l1.918,5.166l1.974,-5.124c0.056,-0.121 0.133,-0.215 0.231,-0.28c0.098,-0.065 0.203,-0.098 0.315,-0.098c0.121,0 0.231,0.033 0.329,0.098c0.098,0.065 0.17,0.159 0.217,0.28l1.974,5.11l1.932,-5.138c0.093,-0.224 0.247,-0.336 0.462,-0.336Z" style="fill-rule:nonzero;"/><path d="M65.512,9.664c-0.49,-0.289 -0.868,-0.702 -1.134,-1.239c-0.266,-0.537 -0.399,-1.16 -0.399,-1.869c0,-0.709 0.133,-1.332 0.399,-1.869c0.266,-0.537 0.644,-0.95 1.134,-1.239c0.49,-0.289 1.057,-0.434 1.701,-0.434c0.644,0 1.213,0.145 1.708,0.434c0.495,0.289 0.875,0.702 1.141,1.239c0.266,0.537 0.399,1.16 0.399,1.869c0,0.709 -0.133,1.332 -0.399,1.869c-0.266,0.537 -0.646,0.95 -1.141,1.239c-0.495,0.289 -1.064,0.434 -1.708,0.434c-0.644,0 -1.211,-0.145 -1.701,-0.434Zm3.248,-1.169c0.359,-0.443 0.539,-1.09 0.539,-1.939c0,-0.831 -0.182,-1.472 -0.546,-1.925c-0.364,-0.453 -0.877,-0.679 -1.54,-0.679c-0.663,0 -1.176,0.226 -1.54,0.679c-0.364,0.453 -0.546,1.094 -0.546,1.925c0,0.84 0.18,1.484 0.539,1.932c0.359,0.448 0.875,0.672 1.547,0.672c0.672,0 1.188,-0.222 1.547,-0.665Z" style="fill-rule:nonzero;"/><path d="M76.117,3.518c0,0.149 -0.042,0.268 -0.126,0.357c-0.084,0.089 -0.229,0.142 -0.434,0.161l-0.42,0.042c-0.625,0.056 -1.09,0.278 -1.393,0.665c-0.303,0.387 -0.455,0.842 -0.455,1.365l0,3.402c0,0.187 -0.051,0.327 -0.154,0.42c-0.103,0.093 -0.238,0.14 -0.406,0.14c-0.168,0 -0.306,-0.049 -0.413,-0.147c-0.107,-0.098 -0.161,-0.236 -0.161,-0.413l0,-5.908c0,-0.177 0.056,-0.315 0.168,-0.413c0.112,-0.098 0.247,-0.147 0.406,-0.147c0.149,0 0.275,0.049 0.378,0.147c0.103,0.098 0.154,0.231 0.154,0.399l0,0.784c0.196,-0.411 0.474,-0.723 0.833,-0.938c0.359,-0.215 0.772,-0.341 1.239,-0.378l0.196,-0.014c0.392,-0.028 0.588,0.131 0.588,0.476Z" style="fill-rule:nonzero;"/><path d="M82.767,9.552c0,0.14 -0.049,0.261 -0.147,0.364c-0.098,0.103 -0.217,0.154 -0.357,0.154c-0.121,0 -0.247,-0.056 -0.378,-0.168l-3.654,-3.15l0,2.758c0,0.177 -0.054,0.315 -0.161,0.413c-0.107,0.098 -0.24,0.147 -0.399,0.147c-0.168,0 -0.306,-0.049 -0.413,-0.147c-0.107,-0.098 -0.161,-0.236 -0.161,-0.413l0,-8.89c0,-0.177 0.054,-0.315 0.161,-0.413c0.107,-0.098 0.245,-0.147 0.413,-0.147c0.159,0 0.292,0.049 0.399,0.147c0.107,0.098 0.161,0.236 0.161,0.413l0,5.684l3.346,-3.066c0.112,-0.112 0.238,-0.168 0.378,-0.168c0.14,0 0.261,0.051 0.364,0.154c0.103,0.103 0.154,0.224 0.154,0.364c0,0.159 -0.065,0.299 -0.196,0.42l-2.758,2.464l3.024,2.632c0.149,0.14 0.224,0.289 0.224,0.448Z" style="fill-rule:nonzero;"/><path d="M89.515,8.544c0.075,0.084 0.112,0.191 0.112,0.322c0,0.233 -0.163,0.448 -0.49,0.644c-0.336,0.196 -0.691,0.343 -1.064,0.441c-0.373,0.098 -0.737,0.147 -1.092,0.147c-1.055,0 -1.888,-0.313 -2.499,-0.938c-0.611,-0.625 -0.917,-1.489 -0.917,-2.59c0,-0.7 0.135,-1.318 0.406,-1.855c0.271,-0.537 0.651,-0.954 1.141,-1.253c0.49,-0.299 1.048,-0.448 1.673,-0.448c0.887,0 1.591,0.289 2.114,0.868c0.523,0.579 0.784,1.363 0.784,2.352c0,0.187 -0.037,0.322 -0.112,0.406c-0.075,0.084 -0.196,0.126 -0.364,0.126l-4.508,0c0.084,1.605 0.845,2.408 2.282,2.408c0.364,0 0.677,-0.049 0.938,-0.147c0.261,-0.098 0.541,-0.231 0.84,-0.399c0.243,-0.14 0.406,-0.21 0.49,-0.21c0.103,0 0.191,0.042 0.266,0.126Zm-4.151,-4.088c-0.359,0.373 -0.572,0.901 -0.637,1.582l3.962,0c-0.019,-0.691 -0.191,-1.22 -0.518,-1.589c-0.327,-0.369 -0.784,-0.553 -1.372,-0.553c-0.597,0 -1.076,0.187 -1.435,0.56Z" style="fill-rule:nonzero;"/><path d="M95.311,3.518c0,0.149 -0.042,0.268 -0.126,0.357c-0.084,0.089 -0.229,0.142 -0.434,0.161l-0.42,0.042c-0.625,0.056 -1.09,0.278 -1.393,0.665c-0.303,0.387 -0.455,0.842 -0.455,1.365l0,3.402c0,0.187 -0.051,0.327 -0.154,0.42c-0.103,0.093 -0.238,0.14 -0.406,0.14c-0.168,0 -0.306,-0.049 -0.413,-0.147c-0.107,-0.098 -0.161,-0.236 -0.161,-0.413l0,-5.908c0,-0.177 0.056,-0.315 0.168,-0.413c0.112,-0.098 0.247,-0.147 0.406,-0.147c0.149,0 0.275,0.049 0.378,0.147c0.103,0.098 0.154,0.231 0.154,0.399l0,0.784c0.196,-0.411 0.474,-0.723 0.833,-0.938c0.359,-0.215 0.772,-0.341 1.239,-0.378l0.196,-0.014c0.392,-0.028 0.588,0.131 0.588,0.476Z" style="fill-rule:nonzero;"/></g></svg>