<?xml version="1.0" encoding="UTF-8"?>
<svg width="250px" height="231px" viewBox="0 0 250 231" version="1.1" xmlns="http://www.w3.org/2000/svg" xmlns:xlink="http://www.w3.org/1999/xlink">
    <!-- Generator: Sketch 50 (54983) - http://www.bohemiancoding.com/sketch -->
    <title>Reporting</title>
    <desc>Created with Sketch.</desc>
    <defs></defs>
    <g id="Page-2" stroke="none" stroke-width="1" fill="none" fill-rule="evenodd">
        <g id="Reporting" fill="#636569">
            <path d="M70.0279638,180.556796 L10.1462311,180.556796 L10.1462311,29.8026695 L149.867306,30.0980201 L149.867306,60.1969353 L159.841657,60.1969353 L159.841657,10.0589268 C159.841657,4.5278148 155.379916,0.0259550562 149.867306,0.0259550562 L10.1462311,0.0259550562 C4.64252636,0.0259550562 0.171879453,4.5278148 0.171879453,10.0589268 L0.171879453,180.977447 C0.171879453,186.535409 4.64252636,190.580818 10.1462311,190.580818 L70.0279638,190.580818 L70.0279638,180.556796 Z" id="Fill-22"></path>
            <polygon id="Fill-24" points="30.1100741 120.358966 70.0252921 120.358966 70.0252921 110.343894 30.1100741 110.343894"></polygon>
            <polygon id="Fill-26" points="30.1100741 150.457881 70.0252921 150.457881 70.0252921 140.442809 30.1100741 140.442809"></polygon>
            <path d="M73.6801795,80.2628787 L30.1136364,80.2539287 L30.1136364,90.2869004 L70.0288544,90.2869004 C70.4830436,86.6084425 71.7031205,83.180585 73.6801795,80.2628787" id="Fill-27"></path>
            <polygon id="Fill-28" points="30.1100741 60.1969353 129.907025 60.1969353 129.907025 50.1729136 30.1100741 50.1729136"></polygon>
            <path d="M230.078014,201.804142 C230.078014,207.353154 224.877102,210.637811 219.34668,210.637811 L109.530849,210.637811 C104.027144,210.637811 99.9661584,205.74215 99.9661584,200.202088 L99.9661584,99.9081713 C99.9661584,94.3770593 104.027144,90.3048005 109.530849,90.3048005 L219.337774,90.3048005 C224.85929,90.3048005 230.060202,95.9701627 230.060202,101.510225 L230.078014,201.804142 Z M249.643773,93.0972065 C249.643773,80.4597792 239.464591,70.238857 226.9165,70.238857 L102.789256,70.238857 C90.2233542,70.238857 80.0352665,80.4597792 80.0352665,93.0972065 L80.0352665,207.800655 C80.0352665,220.438082 90.2233542,230.667954 102.789256,230.667954 L226.9165,230.685854 C239.464591,230.685854 249.563622,220.438082 249.563622,207.836455 L249.643773,93.0972065 Z" id="Fill-29"></path>
            <path d="M179.801047,170.531879 C171.447528,170.531879 166.718616,158.691003 160.208571,142.303518 C157.358756,135.170353 152.745618,123.562177 149.833464,120.733971 C145.906063,124.260279 139.663188,141.569616 136.57292,150.125835 C131.069215,165.385618 129.216835,170.531879 124.087169,170.531879 L109.944963,170.531879 L109.944963,160.498907 L121.851845,160.498907 C123.205507,157.769151 125.387397,151.718938 127.204154,146.706928 C135.361748,124.090229 140.95451,110.342999 149.869087,110.342999 C158.231512,110.342999 162.942612,122.192824 169.470469,138.58031 C172.26685,145.606075 176.79093,156.9726 179.703085,160.006656 C182.28573,156.8652 185.785658,145.776126 187.940831,138.929361 C192.972535,122.962526 196.95337,110.342999 205.591871,110.342999 L219.751888,110.342999 L219.751888,120.375971 L206.144023,120.375971 C203.534661,122.649275 199.740845,134.678102 197.452087,141.954467 C192.420383,157.921302 188.448454,170.531879 179.801047,170.531879" id="Fill-30"></path>
            <polygon id="Fill-31" points="109.949416 190.571867 219.756341 190.571867 219.756341 180.547846 109.949416 180.547846"></polygon>
        </g>
    </g>
</svg>