<?xml version="1.0" encoding="UTF-8" standalone="no"?><!DOCTYPE svg PUBLIC "-//W3C//DTD SVG 1.1//EN" "http://www.w3.org/Graphics/SVG/1.1/DTD/svg11.dtd"><svg width="100%" height="100%" viewBox="0 0 126 13" version="1.1" xmlns="http://www.w3.org/2000/svg" xmlns:xlink="http://www.w3.org/1999/xlink" xml:space="preserve" xmlns:serif="http://www.serif.com/" style="fill-rule:evenodd;clip-rule:evenodd;stroke-linejoin:round;stroke-miterlimit:1.41421;"><g id="Scanning-for-threats"><path d="M1.825,9.797c-0.639,-0.21 -1.15,-0.492 -1.533,-0.847c-0.14,-0.131 -0.21,-0.294 -0.21,-0.49c0,-0.131 0.037,-0.245 0.112,-0.343c0.075,-0.098 0.163,-0.147 0.266,-0.147c0.121,0 0.252,0.051 0.392,0.154c0.868,0.672 1.857,1.008 2.968,1.008c0.803,0 1.419,-0.154 1.848,-0.462c0.429,-0.308 0.644,-0.747 0.644,-1.316c0,-0.327 -0.103,-0.59 -0.308,-0.791c-0.205,-0.201 -0.476,-0.362 -0.812,-0.483c-0.336,-0.121 -0.789,-0.247 -1.358,-0.378c-0.765,-0.177 -1.393,-0.364 -1.883,-0.56c-0.49,-0.196 -0.887,-0.476 -1.19,-0.84c-0.303,-0.364 -0.455,-0.84 -0.455,-1.428c0,-0.56 0.152,-1.057 0.455,-1.491c0.303,-0.434 0.728,-0.77 1.274,-1.008c0.546,-0.238 1.169,-0.357 1.869,-0.357c0.653,0 1.262,0.1 1.827,0.301c0.565,0.201 1.038,0.488 1.421,0.861c0.149,0.149 0.224,0.313 0.224,0.49c0,0.131 -0.037,0.245 -0.112,0.343c-0.075,0.098 -0.163,0.147 -0.266,0.147c-0.103,0 -0.238,-0.051 -0.406,-0.154c-0.457,-0.373 -0.882,-0.635 -1.274,-0.784c-0.392,-0.149 -0.863,-0.224 -1.414,-0.224c-0.775,0 -1.377,0.161 -1.806,0.483c-0.429,0.322 -0.644,0.772 -0.644,1.351c0,0.495 0.189,0.866 0.567,1.113c0.378,0.247 0.959,0.464 1.743,0.651c0.849,0.205 1.517,0.394 2.002,0.567c0.485,0.173 0.889,0.432 1.211,0.777c0.322,0.345 0.483,0.807 0.483,1.386c0,0.551 -0.152,1.036 -0.455,1.456c-0.303,0.42 -0.73,0.747 -1.281,0.98c-0.551,0.233 -1.181,0.35 -1.89,0.35c-0.7,0 -1.37,-0.105 -2.009,-0.315Z" style="fill-rule:nonzero;"/><path d="M10.281,9.664c-0.49,-0.289 -0.868,-0.7 -1.134,-1.232c-0.266,-0.532 -0.399,-1.148 -0.399,-1.848c0,-0.7 0.138,-1.321 0.413,-1.862c0.275,-0.541 0.66,-0.961 1.155,-1.26c0.495,-0.299 1.064,-0.448 1.708,-0.448c0.355,0 0.707,0.049 1.057,0.147c0.35,0.098 0.656,0.24 0.917,0.427c0.168,0.112 0.287,0.222 0.357,0.329c0.07,0.107 0.105,0.226 0.105,0.357c0,0.131 -0.035,0.238 -0.105,0.322c-0.07,0.084 -0.161,0.126 -0.273,0.126c-0.065,0 -0.135,-0.019 -0.21,-0.056c-0.075,-0.037 -0.138,-0.075 -0.189,-0.112c-0.051,-0.037 -0.086,-0.061 -0.105,-0.07c-0.243,-0.159 -0.474,-0.285 -0.693,-0.378c-0.219,-0.093 -0.488,-0.14 -0.805,-0.14c-0.681,0 -1.211,0.231 -1.589,0.693c-0.378,0.462 -0.567,1.104 -0.567,1.925c0,0.821 0.189,1.456 0.567,1.904c0.378,0.448 0.908,0.672 1.589,0.672c0.317,0 0.59,-0.047 0.819,-0.14c0.229,-0.093 0.46,-0.219 0.693,-0.378c0.103,-0.065 0.201,-0.121 0.294,-0.168c0.093,-0.047 0.173,-0.07 0.238,-0.07c0.103,0 0.189,0.042 0.259,0.126c0.07,0.084 0.105,0.191 0.105,0.322c0,0.121 -0.033,0.231 -0.098,0.329c-0.065,0.098 -0.187,0.208 -0.364,0.329c-0.261,0.177 -0.576,0.32 -0.945,0.427c-0.369,0.107 -0.74,0.161 -1.113,0.161c-0.635,0 -1.197,-0.145 -1.687,-0.434Z" style="fill-rule:nonzero;"/><path d="M21.208,5.702l0,3.808c0,0.168 -0.049,0.303 -0.147,0.406c-0.098,0.103 -0.231,0.154 -0.399,0.154c-0.168,0 -0.303,-0.051 -0.406,-0.154c-0.103,-0.103 -0.154,-0.238 -0.154,-0.406l0,-0.672c-0.177,0.401 -0.448,0.712 -0.812,0.931c-0.364,0.219 -0.784,0.329 -1.26,0.329c-0.439,0 -0.842,-0.089 -1.211,-0.266c-0.369,-0.177 -0.66,-0.425 -0.875,-0.742c-0.215,-0.317 -0.322,-0.667 -0.322,-1.05c0,-0.513 0.131,-0.912 0.392,-1.197c0.261,-0.285 0.691,-0.49 1.288,-0.616c0.597,-0.126 1.428,-0.189 2.492,-0.189l0.308,0l0,-0.462c0,-0.56 -0.114,-0.971 -0.343,-1.232c-0.229,-0.261 -0.6,-0.392 -1.113,-0.392c-0.635,0 -1.279,0.173 -1.932,0.518c-0.252,0.159 -0.429,0.238 -0.532,0.238c-0.112,0 -0.205,-0.042 -0.28,-0.126c-0.075,-0.084 -0.112,-0.191 -0.112,-0.322c0,-0.131 0.04,-0.245 0.119,-0.343c0.079,-0.098 0.208,-0.198 0.385,-0.301c0.327,-0.187 0.698,-0.334 1.113,-0.441c0.415,-0.107 0.828,-0.161 1.239,-0.161c1.708,0 2.562,0.896 2.562,2.688Zm-1.645,2.933c0.359,-0.378 0.539,-0.866 0.539,-1.463l0,-0.406l-0.252,0c-0.821,0 -1.447,0.035 -1.876,0.105c-0.429,0.07 -0.735,0.187 -0.917,0.35c-0.182,0.163 -0.273,0.404 -0.273,0.721c0,0.364 0.133,0.665 0.399,0.903c0.266,0.238 0.6,0.357 1.001,0.357c0.56,0 1.02,-0.189 1.379,-0.567Z" style="fill-rule:nonzero;"/><path d="M29.16,5.716l0,3.794c0,0.177 -0.049,0.315 -0.147,0.413c-0.098,0.098 -0.236,0.147 -0.413,0.147c-0.177,0 -0.317,-0.049 -0.42,-0.147c-0.103,-0.098 -0.154,-0.236 -0.154,-0.413l0,-3.724c0,-0.635 -0.124,-1.097 -0.371,-1.386c-0.247,-0.289 -0.642,-0.434 -1.183,-0.434c-0.625,0 -1.125,0.191 -1.498,0.574c-0.373,0.383 -0.56,0.901 -0.56,1.554l0,3.416c0,0.177 -0.049,0.315 -0.147,0.413c-0.098,0.098 -0.236,0.147 -0.413,0.147c-0.177,0 -0.317,-0.049 -0.42,-0.147c-0.103,-0.098 -0.154,-0.236 -0.154,-0.413l0,-5.908c0,-0.168 0.051,-0.303 0.154,-0.406c0.103,-0.103 0.243,-0.154 0.42,-0.154c0.168,0 0.301,0.051 0.399,0.154c0.098,0.103 0.147,0.233 0.147,0.392l0,0.714c0.224,-0.42 0.537,-0.74 0.938,-0.959c0.401,-0.219 0.859,-0.329 1.372,-0.329c1.633,0 2.45,0.901 2.45,2.702Z" style="fill-rule:nonzero;"/><path d="M37.112,5.716l0,3.794c0,0.177 -0.049,0.315 -0.147,0.413c-0.098,0.098 -0.236,0.147 -0.413,0.147c-0.177,0 -0.317,-0.049 -0.42,-0.147c-0.103,-0.098 -0.154,-0.236 -0.154,-0.413l0,-3.724c0,-0.635 -0.124,-1.097 -0.371,-1.386c-0.247,-0.289 -0.642,-0.434 -1.183,-0.434c-0.625,0 -1.125,0.191 -1.498,0.574c-0.373,0.383 -0.56,0.901 -0.56,1.554l0,3.416c0,0.177 -0.049,0.315 -0.147,0.413c-0.098,0.098 -0.236,0.147 -0.413,0.147c-0.177,0 -0.317,-0.049 -0.42,-0.147c-0.103,-0.098 -0.154,-0.236 -0.154,-0.413l0,-5.908c0,-0.168 0.051,-0.303 0.154,-0.406c0.103,-0.103 0.243,-0.154 0.42,-0.154c0.168,0 0.301,0.051 0.399,0.154c0.098,0.103 0.147,0.233 0.147,0.392l0,0.714c0.224,-0.42 0.537,-0.74 0.938,-0.959c0.401,-0.219 0.859,-0.329 1.372,-0.329c1.633,0 2.45,0.901 2.45,2.702Z" style="fill-rule:nonzero;"/><path d="M39.345,9.923c-0.107,-0.098 -0.161,-0.236 -0.161,-0.413l0,-5.908c0,-0.177 0.054,-0.315 0.161,-0.413c0.107,-0.098 0.245,-0.147 0.413,-0.147c0.168,0 0.303,0.049 0.406,0.147c0.103,0.098 0.154,0.236 0.154,0.413l0,5.908c0,0.187 -0.051,0.327 -0.154,0.42c-0.103,0.093 -0.238,0.14 -0.406,0.14c-0.168,0 -0.306,-0.049 -0.413,-0.147Zm-0.133,-8.547c-0.14,-0.131 -0.21,-0.303 -0.21,-0.518c0,-0.205 0.07,-0.373 0.21,-0.504c0.14,-0.131 0.322,-0.196 0.546,-0.196c0.224,0 0.406,0.065 0.546,0.196c0.14,0.131 0.21,0.299 0.21,0.504c0,0.215 -0.07,0.387 -0.21,0.518c-0.14,0.131 -0.322,0.196 -0.546,0.196c-0.224,0 -0.406,-0.065 -0.546,-0.196Z" style="fill-rule:nonzero;"/><path d="M48.312,5.716l0,3.794c0,0.177 -0.049,0.315 -0.147,0.413c-0.098,0.098 -0.236,0.147 -0.413,0.147c-0.177,0 -0.317,-0.049 -0.42,-0.147c-0.103,-0.098 -0.154,-0.236 -0.154,-0.413l0,-3.724c0,-0.635 -0.124,-1.097 -0.371,-1.386c-0.247,-0.289 -0.642,-0.434 -1.183,-0.434c-0.625,0 -1.125,0.191 -1.498,0.574c-0.373,0.383 -0.56,0.901 -0.56,1.554l0,3.416c0,0.177 -0.049,0.315 -0.147,0.413c-0.098,0.098 -0.236,0.147 -0.413,0.147c-0.177,0 -0.317,-0.049 -0.42,-0.147c-0.103,-0.098 -0.154,-0.236 -0.154,-0.413l0,-5.908c0,-0.168 0.051,-0.303 0.154,-0.406c0.103,-0.103 0.243,-0.154 0.42,-0.154c0.168,0 0.301,0.051 0.399,0.154c0.098,0.103 0.147,0.233 0.147,0.392l0,0.714c0.224,-0.42 0.537,-0.74 0.938,-0.959c0.401,-0.219 0.859,-0.329 1.372,-0.329c1.633,0 2.45,0.901 2.45,2.702Z" style="fill-rule:nonzero;"/><path d="M56.334,3.196c0.103,0.103 0.154,0.238 0.154,0.406l0,5.936c0,1.017 -0.261,1.785 -0.784,2.303c-0.523,0.518 -1.297,0.777 -2.324,0.777c-0.999,0 -1.829,-0.196 -2.492,-0.588c-0.336,-0.187 -0.504,-0.401 -0.504,-0.644c0,-0.131 0.035,-0.238 0.105,-0.322c0.07,-0.084 0.161,-0.126 0.273,-0.126c0.093,0 0.261,0.065 0.504,0.196c0.327,0.168 0.649,0.303 0.966,0.406c0.317,0.103 0.695,0.154 1.134,0.154c0.663,0 1.162,-0.175 1.498,-0.525c0.336,-0.35 0.504,-0.861 0.504,-1.533l0,-1.204c-0.196,0.439 -0.497,0.775 -0.903,1.008c-0.406,0.233 -0.884,0.35 -1.435,0.35c-0.597,0 -1.127,-0.14 -1.589,-0.42c-0.462,-0.28 -0.821,-0.677 -1.078,-1.19c-0.257,-0.513 -0.385,-1.106 -0.385,-1.778c0,-0.672 0.128,-1.265 0.385,-1.778c0.257,-0.513 0.616,-0.91 1.078,-1.19c0.462,-0.28 0.992,-0.42 1.589,-0.42c0.541,0 1.013,0.117 1.414,0.35c0.401,0.233 0.705,0.565 0.91,0.994l0,-0.756c0,-0.168 0.049,-0.303 0.147,-0.406c0.098,-0.103 0.236,-0.154 0.413,-0.154c0.177,0 0.317,0.051 0.42,0.154Zm-1.54,5.005c0.373,-0.434 0.56,-1.034 0.56,-1.799c0,-0.756 -0.184,-1.351 -0.553,-1.785c-0.369,-0.434 -0.884,-0.651 -1.547,-0.651c-0.663,0 -1.183,0.217 -1.561,0.651c-0.378,0.434 -0.567,1.029 -0.567,1.785c0,0.765 0.189,1.365 0.567,1.799c0.378,0.434 0.898,0.651 1.561,0.651c0.653,0 1.167,-0.217 1.54,-0.651Z" style="fill-rule:nonzero;"/><path d="M64.09,1.495c-0.252,0.275 -0.378,0.688 -0.378,1.239l0,0.448l1.554,0c0.159,0 0.28,0.042 0.364,0.126c0.084,0.084 0.126,0.196 0.126,0.336c0,0.14 -0.042,0.247 -0.126,0.322c-0.084,0.075 -0.205,0.112 -0.364,0.112l-1.554,0l0,5.432c0,0.177 -0.054,0.315 -0.161,0.413c-0.107,0.098 -0.24,0.147 -0.399,0.147c-0.168,0 -0.306,-0.049 -0.413,-0.147c-0.107,-0.098 -0.161,-0.236 -0.161,-0.413l0,-5.432l-0.938,0c-0.159,0 -0.282,-0.04 -0.371,-0.119c-0.089,-0.079 -0.133,-0.184 -0.133,-0.315c0,-0.14 0.044,-0.252 0.133,-0.336c0.089,-0.084 0.212,-0.126 0.371,-0.126l0.938,0l0,-0.252c0,-0.84 0.21,-1.5 0.63,-1.981c0.42,-0.481 1.022,-0.749 1.806,-0.805l0.364,-0.028c0.243,-0.019 0.418,0.005 0.525,0.07c0.107,0.065 0.161,0.182 0.161,0.35c0,0.271 -0.163,0.425 -0.49,0.462l-0.364,0.028c-0.495,0.037 -0.868,0.194 -1.12,0.469Z" style="fill-rule:nonzero;"/><path d="M67.849,9.664c-0.49,-0.289 -0.868,-0.702 -1.134,-1.239c-0.266,-0.537 -0.399,-1.16 -0.399,-1.869c0,-0.709 0.133,-1.332 0.399,-1.869c0.266,-0.537 0.644,-0.95 1.134,-1.239c0.49,-0.289 1.057,-0.434 1.701,-0.434c0.644,0 1.213,0.145 1.708,0.434c0.495,0.289 0.875,0.702 1.141,1.239c0.266,0.537 0.399,1.16 0.399,1.869c0,0.709 -0.133,1.332 -0.399,1.869c-0.266,0.537 -0.646,0.95 -1.141,1.239c-0.495,0.289 -1.064,0.434 -1.708,0.434c-0.644,0 -1.211,-0.145 -1.701,-0.434Zm3.248,-1.169c0.359,-0.443 0.539,-1.09 0.539,-1.939c0,-0.831 -0.182,-1.472 -0.546,-1.925c-0.364,-0.453 -0.877,-0.679 -1.54,-0.679c-0.663,0 -1.176,0.226 -1.54,0.679c-0.364,0.453 -0.546,1.094 -0.546,1.925c0,0.84 0.18,1.484 0.539,1.932c0.359,0.448 0.875,0.672 1.547,0.672c0.672,0 1.188,-0.222 1.547,-0.665Z" style="fill-rule:nonzero;"/><path d="M78.454,3.518c0,0.149 -0.042,0.268 -0.126,0.357c-0.084,0.089 -0.229,0.142 -0.434,0.161l-0.42,0.042c-0.625,0.056 -1.09,0.278 -1.393,0.665c-0.303,0.387 -0.455,0.842 -0.455,1.365l0,3.402c0,0.187 -0.051,0.327 -0.154,0.42c-0.103,0.093 -0.238,0.14 -0.406,0.14c-0.168,0 -0.306,-0.049 -0.413,-0.147c-0.107,-0.098 -0.161,-0.236 -0.161,-0.413l0,-5.908c0,-0.177 0.056,-0.315 0.168,-0.413c0.112,-0.098 0.247,-0.147 0.406,-0.147c0.149,0 0.275,0.049 0.378,0.147c0.103,0.098 0.154,0.231 0.154,0.399l0,0.784c0.196,-0.411 0.474,-0.723 0.833,-0.938c0.359,-0.215 0.772,-0.341 1.239,-0.378l0.196,-0.014c0.392,-0.028 0.588,0.131 0.588,0.476Z" style="fill-rule:nonzero;"/><path d="M86.686,9.622c0,0.159 -0.058,0.278 -0.175,0.357c-0.117,0.079 -0.292,0.11 -0.525,0.091l-0.378,-0.028c-0.747,-0.056 -1.297,-0.28 -1.652,-0.672c-0.355,-0.392 -0.532,-0.985 -0.532,-1.778l0,-3.514l-0.938,0c-0.159,0 -0.282,-0.04 -0.371,-0.119c-0.089,-0.079 -0.133,-0.184 -0.133,-0.315c0,-0.14 0.044,-0.252 0.133,-0.336c0.089,-0.084 0.212,-0.126 0.371,-0.126l0.938,0l0,-1.582c0,-0.177 0.051,-0.315 0.154,-0.413c0.103,-0.098 0.243,-0.147 0.42,-0.147c0.168,0 0.303,0.049 0.406,0.147c0.103,0.098 0.154,0.236 0.154,0.413l0,1.582l1.554,0c0.149,0 0.268,0.042 0.357,0.126c0.089,0.084 0.133,0.196 0.133,0.336c0,0.131 -0.044,0.236 -0.133,0.315c-0.089,0.079 -0.208,0.119 -0.357,0.119l-1.554,0l0,3.57c0,0.513 0.105,0.884 0.315,1.113c0.21,0.229 0.525,0.357 0.945,0.385l0.378,0.028c0.327,0.028 0.49,0.177 0.49,0.448Z" style="fill-rule:nonzero;"/><path d="M93.07,3.693c0.411,0.453 0.616,1.127 0.616,2.023l0,3.794c0,0.177 -0.051,0.315 -0.154,0.413c-0.103,0.098 -0.238,0.147 -0.406,0.147c-0.177,0 -0.317,-0.049 -0.42,-0.147c-0.103,-0.098 -0.154,-0.236 -0.154,-0.413l0,-3.766c0,-0.607 -0.124,-1.055 -0.371,-1.344c-0.247,-0.289 -0.642,-0.434 -1.183,-0.434c-0.625,0 -1.125,0.191 -1.498,0.574c-0.373,0.383 -0.56,0.901 -0.56,1.554l0,3.416c0,0.177 -0.049,0.315 -0.147,0.413c-0.098,0.098 -0.236,0.147 -0.413,0.147c-0.177,0 -0.317,-0.049 -0.42,-0.147c-0.103,-0.098 -0.154,-0.236 -0.154,-0.413l0,-8.904c0,-0.159 0.054,-0.289 0.161,-0.392c0.107,-0.103 0.245,-0.154 0.413,-0.154c0.177,0 0.315,0.049 0.413,0.147c0.098,0.098 0.147,0.231 0.147,0.399l0,3.668c0.224,-0.411 0.537,-0.723 0.938,-0.938c0.401,-0.215 0.859,-0.322 1.372,-0.322c0.803,0 1.409,0.226 1.82,0.679Z" style="fill-rule:nonzero;"/><path d="M99.72,3.518c0,0.149 -0.042,0.268 -0.126,0.357c-0.084,0.089 -0.229,0.142 -0.434,0.161l-0.42,0.042c-0.625,0.056 -1.09,0.278 -1.393,0.665c-0.303,0.387 -0.455,0.842 -0.455,1.365l0,3.402c0,0.187 -0.051,0.327 -0.154,0.42c-0.103,0.093 -0.238,0.14 -0.406,0.14c-0.168,0 -0.306,-0.049 -0.413,-0.147c-0.107,-0.098 -0.161,-0.236 -0.161,-0.413l0,-5.908c0,-0.177 0.056,-0.315 0.168,-0.413c0.112,-0.098 0.247,-0.147 0.406,-0.147c0.149,0 0.275,0.049 0.378,0.147c0.103,0.098 0.154,0.231 0.154,0.399l0,0.784c0.196,-0.411 0.474,-0.723 0.833,-0.938c0.359,-0.215 0.772,-0.341 1.239,-0.378l0.196,-0.014c0.392,-0.028 0.588,0.131 0.588,0.476Z" style="fill-rule:nonzero;"/><path d="M106.104,8.544c0.075,0.084 0.112,0.191 0.112,0.322c0,0.233 -0.163,0.448 -0.49,0.644c-0.336,0.196 -0.691,0.343 -1.064,0.441c-0.373,0.098 -0.737,0.147 -1.092,0.147c-1.055,0 -1.888,-0.313 -2.499,-0.938c-0.611,-0.625 -0.917,-1.489 -0.917,-2.59c0,-0.7 0.135,-1.318 0.406,-1.855c0.271,-0.537 0.651,-0.954 1.141,-1.253c0.49,-0.299 1.048,-0.448 1.673,-0.448c0.887,0 1.591,0.289 2.114,0.868c0.523,0.579 0.784,1.363 0.784,2.352c0,0.187 -0.037,0.322 -0.112,0.406c-0.075,0.084 -0.196,0.126 -0.364,0.126l-4.508,0c0.084,1.605 0.845,2.408 2.282,2.408c0.364,0 0.677,-0.049 0.938,-0.147c0.261,-0.098 0.541,-0.231 0.84,-0.399c0.243,-0.14 0.406,-0.21 0.49,-0.21c0.103,0 0.191,0.042 0.266,0.126Zm-4.151,-4.088c-0.359,0.373 -0.572,0.901 -0.637,1.582l3.962,0c-0.019,-0.691 -0.191,-1.22 -0.518,-1.589c-0.327,-0.369 -0.784,-0.553 -1.372,-0.553c-0.597,0 -1.076,0.187 -1.435,0.56Z" style="fill-rule:nonzero;"/><path d="M113.286,5.702l0,3.808c0,0.168 -0.049,0.303 -0.147,0.406c-0.098,0.103 -0.231,0.154 -0.399,0.154c-0.168,0 -0.303,-0.051 -0.406,-0.154c-0.103,-0.103 -0.154,-0.238 -0.154,-0.406l0,-0.672c-0.177,0.401 -0.448,0.712 -0.812,0.931c-0.364,0.219 -0.784,0.329 -1.26,0.329c-0.439,0 -0.842,-0.089 -1.211,-0.266c-0.369,-0.177 -0.66,-0.425 -0.875,-0.742c-0.215,-0.317 -0.322,-0.667 -0.322,-1.05c0,-0.513 0.131,-0.912 0.392,-1.197c0.261,-0.285 0.691,-0.49 1.288,-0.616c0.597,-0.126 1.428,-0.189 2.492,-0.189l0.308,0l0,-0.462c0,-0.56 -0.114,-0.971 -0.343,-1.232c-0.229,-0.261 -0.6,-0.392 -1.113,-0.392c-0.635,0 -1.279,0.173 -1.932,0.518c-0.252,0.159 -0.429,0.238 -0.532,0.238c-0.112,0 -0.205,-0.042 -0.28,-0.126c-0.075,-0.084 -0.112,-0.191 -0.112,-0.322c0,-0.131 0.04,-0.245 0.119,-0.343c0.079,-0.098 0.208,-0.198 0.385,-0.301c0.327,-0.187 0.698,-0.334 1.113,-0.441c0.415,-0.107 0.828,-0.161 1.239,-0.161c1.708,0 2.562,0.896 2.562,2.688Zm-1.645,2.933c0.359,-0.378 0.539,-0.866 0.539,-1.463l0,-0.406l-0.252,0c-0.821,0 -1.447,0.035 -1.876,0.105c-0.429,0.07 -0.735,0.187 -0.917,0.35c-0.182,0.163 -0.273,0.404 -0.273,0.721c0,0.364 0.133,0.665 0.399,0.903c0.266,0.238 0.6,0.357 1.001,0.357c0.56,0 1.02,-0.189 1.379,-0.567Z" style="fill-rule:nonzero;"/><path d="M118.998,9.622c0,0.159 -0.058,0.278 -0.175,0.357c-0.117,0.079 -0.292,0.11 -0.525,0.091l-0.378,-0.028c-0.747,-0.056 -1.297,-0.28 -1.652,-0.672c-0.355,-0.392 -0.532,-0.985 -0.532,-1.778l0,-3.514l-0.938,0c-0.159,0 -0.282,-0.04 -0.371,-0.119c-0.089,-0.079 -0.133,-0.184 -0.133,-0.315c0,-0.14 0.044,-0.252 0.133,-0.336c0.089,-0.084 0.212,-0.126 0.371,-0.126l0.938,0l0,-1.582c0,-0.177 0.051,-0.315 0.154,-0.413c0.103,-0.098 0.243,-0.147 0.42,-0.147c0.168,0 0.303,0.049 0.406,0.147c0.103,0.098 0.154,0.236 0.154,0.413l0,1.582l1.554,0c0.149,0 0.268,0.042 0.357,0.126c0.089,0.084 0.133,0.196 0.133,0.336c0,0.131 -0.044,0.236 -0.133,0.315c-0.089,0.079 -0.208,0.119 -0.357,0.119l-1.554,0l0,3.57c0,0.513 0.105,0.884 0.315,1.113c0.21,0.229 0.525,0.357 0.945,0.385l0.378,0.028c0.327,0.028 0.49,0.177 0.49,0.448Z" style="fill-rule:nonzero;"/><path d="M121.189,9.944c-0.387,-0.103 -0.73,-0.247 -1.029,-0.434c-0.168,-0.112 -0.287,-0.217 -0.357,-0.315c-0.07,-0.098 -0.105,-0.217 -0.105,-0.357c0,-0.121 0.035,-0.222 0.105,-0.301c0.07,-0.079 0.161,-0.119 0.273,-0.119c0.112,0 0.275,0.07 0.49,0.21c0.28,0.168 0.558,0.301 0.833,0.399c0.275,0.098 0.618,0.147 1.029,0.147c0.504,0 0.896,-0.089 1.176,-0.266c0.28,-0.177 0.42,-0.434 0.42,-0.77c0,-0.205 -0.051,-0.371 -0.154,-0.497c-0.103,-0.126 -0.28,-0.238 -0.532,-0.336c-0.252,-0.098 -0.621,-0.198 -1.106,-0.301c-0.821,-0.177 -1.409,-0.415 -1.764,-0.714c-0.355,-0.299 -0.532,-0.705 -0.532,-1.218c0,-0.401 0.112,-0.756 0.336,-1.064c0.224,-0.308 0.534,-0.551 0.931,-0.728c0.397,-0.177 0.847,-0.266 1.351,-0.266c0.364,0 0.716,0.049 1.057,0.147c0.341,0.098 0.642,0.236 0.903,0.413c0.317,0.224 0.476,0.457 0.476,0.7c0,0.121 -0.037,0.224 -0.112,0.308c-0.075,0.084 -0.163,0.126 -0.266,0.126c-0.112,0 -0.28,-0.079 -0.504,-0.238c-0.261,-0.168 -0.509,-0.299 -0.742,-0.392c-0.233,-0.093 -0.523,-0.14 -0.868,-0.14c-0.439,0 -0.791,0.098 -1.057,0.294c-0.266,0.196 -0.399,0.457 -0.399,0.784c0,0.205 0.049,0.371 0.147,0.497c0.098,0.126 0.261,0.238 0.49,0.336c0.229,0.098 0.558,0.194 0.987,0.287c0.635,0.14 1.127,0.294 1.477,0.462c0.35,0.168 0.6,0.373 0.749,0.616c0.149,0.243 0.224,0.551 0.224,0.924c0,0.588 -0.247,1.062 -0.742,1.421c-0.495,0.359 -1.148,0.539 -1.96,0.539c-0.429,0 -0.838,-0.051 -1.225,-0.154Z" style="fill-rule:nonzero;"/></g></svg>