<?xml version="1.0" encoding="UTF-8" standalone="no"?>
<!DOCTYPE svg PUBLIC "-//W3C//DTD SVG 1.1//EN" "http://www.w3.org/Graphics/SVG/1.1/DTD/svg11.dtd">
<svg width="100%" height="100%" viewBox="0 0 193 18" version="1.1" xmlns="http://www.w3.org/2000/svg" xmlns:xlink="http://www.w3.org/1999/xlink" xml:space="preserve" xmlns:serif="http://www.serif.com/" style="fill-rule:evenodd;clip-rule:evenodd;stroke-linejoin:round;stroke-miterlimit:1.41421;">
    <g transform="matrix(1,0,0,1,-592,-559)">
        <g transform="matrix(1,0,0,1,0,2)">
            <g transform="matrix(1,0,0,1,590.352,570.879)">
                <g id="_18-port-X-Series-swi" serif:id="18-port-X-Series-swi">
                    <path d="M9.435,-0.864C9.534,-0.771 9.584,-0.65 9.584,-0.501C9.584,-0.341 9.537,-0.217 9.444,-0.13C9.351,-0.043 9.218,0 9.045,0L2.972,0C2.811,0 2.684,-0.043 2.591,-0.13C2.498,-0.217 2.452,-0.341 2.452,-0.501C2.452,-0.65 2.498,-0.771 2.591,-0.864C2.684,-0.957 2.811,-1.003 2.972,-1.003L5.442,-1.003L5.442,-11.608L3.306,-10.215C3.244,-10.166 3.164,-10.141 3.065,-10.141C2.928,-10.141 2.808,-10.203 2.702,-10.327C2.597,-10.45 2.544,-10.593 2.544,-10.754C2.544,-10.927 2.625,-11.069 2.786,-11.181L5.572,-13.038C5.733,-13.137 5.888,-13.187 6.036,-13.187C6.197,-13.187 6.33,-13.134 6.435,-13.029C6.541,-12.924 6.593,-12.778 6.593,-12.592L6.593,-1.003L9.045,-1.003C9.206,-1.003 9.336,-0.957 9.435,-0.864Z" style="fill-rule:nonzero;"/>
                    <path d="M20.662,-5.507C21.102,-4.931 21.322,-4.241 21.322,-3.436C21.322,-2.322 20.922,-1.449 20.124,-0.817C19.325,-0.186 18.189,0.13 16.716,0.13C15.242,0.13 14.106,-0.186 13.307,-0.817C12.509,-1.449 12.11,-2.322 12.11,-3.436C12.11,-4.253 12.326,-4.947 12.76,-5.516C13.193,-6.086 13.8,-6.482 14.58,-6.705C13.911,-6.952 13.382,-7.349 12.992,-7.893C12.602,-8.438 12.407,-9.07 12.407,-9.788C12.407,-10.853 12.784,-11.695 13.54,-12.314C14.295,-12.933 15.354,-13.242 16.716,-13.242C18.078,-13.242 19.136,-12.933 19.892,-12.314C20.647,-11.695 21.024,-10.853 21.024,-9.788C21.024,-9.07 20.829,-8.438 20.439,-7.893C20.049,-7.349 19.52,-6.952 18.851,-6.705C19.619,-6.482 20.223,-6.083 20.662,-5.507ZM14.375,-7.819C14.908,-7.361 15.688,-7.132 16.716,-7.132C17.743,-7.132 18.523,-7.361 19.056,-7.819C19.588,-8.277 19.854,-8.915 19.854,-9.732C19.854,-10.525 19.588,-11.141 19.056,-11.58C18.523,-12.02 17.743,-12.24 16.716,-12.24C15.688,-12.24 14.908,-12.02 14.375,-11.58C13.843,-11.141 13.577,-10.525 13.577,-9.732C13.577,-8.915 13.843,-8.277 14.375,-7.819ZM20.152,-3.492C20.152,-5.25 19.006,-6.129 16.716,-6.129C14.425,-6.129 13.28,-5.25 13.28,-3.492C13.28,-1.746 14.425,-0.873 16.716,-0.873C19.006,-0.873 20.152,-1.746 20.152,-3.492Z" style="fill-rule:nonzero;"/>
                    <path d="M23.708,-4.587C23.615,-4.674 23.569,-4.786 23.569,-4.922C23.569,-5.07 23.615,-5.191 23.708,-5.284C23.801,-5.377 23.928,-5.423 24.089,-5.423L28.305,-5.423C28.466,-5.423 28.593,-5.377 28.686,-5.284C28.779,-5.191 28.825,-5.07 28.825,-4.922C28.825,-4.786 28.779,-4.674 28.686,-4.587C28.593,-4.501 28.466,-4.457 28.305,-4.457L24.089,-4.457C23.928,-4.457 23.801,-4.501 23.708,-4.587Z" style="fill-rule:nonzero;"/>
                    <path d="M37.926,-8.646C38.533,-8.256 39.003,-7.705 39.337,-6.993C39.672,-6.281 39.839,-5.454 39.839,-4.513C39.839,-3.585 39.672,-2.77 39.337,-2.071C39.003,-1.371 38.533,-0.83 37.926,-0.446C37.319,-0.062 36.619,0.13 35.827,0.13C35.097,0.13 34.465,-0.028 33.933,-0.344C33.4,-0.659 32.998,-1.121 32.725,-1.727L32.725,2.86C32.725,3.034 32.676,3.173 32.577,3.278C32.478,3.383 32.342,3.436 32.168,3.436C31.995,3.436 31.856,3.383 31.75,3.278C31.645,3.173 31.592,3.034 31.592,2.86L31.592,-8.618C31.592,-8.791 31.645,-8.93 31.75,-9.036C31.856,-9.141 31.995,-9.194 32.168,-9.194C32.342,-9.194 32.478,-9.141 32.577,-9.036C32.676,-8.93 32.725,-8.791 32.725,-8.618L32.725,-7.373C32.998,-7.98 33.4,-8.441 33.933,-8.757C34.465,-9.073 35.097,-9.231 35.827,-9.231C36.619,-9.231 37.319,-9.036 37.926,-8.646ZM37.879,-1.829C38.406,-2.467 38.669,-3.362 38.669,-4.513C38.669,-5.689 38.406,-6.606 37.879,-7.262C37.353,-7.918 36.619,-8.246 35.678,-8.246C34.737,-8.246 34.01,-7.924 33.496,-7.281C32.982,-6.637 32.725,-5.727 32.725,-4.55C32.725,-3.374 32.979,-2.467 33.487,-1.829C33.995,-1.192 34.719,-0.873 35.66,-0.873C36.613,-0.873 37.353,-1.192 37.879,-1.829Z" style="fill-rule:nonzero;"/>
                    <path d="M43.637,-0.446C43.012,-0.83 42.526,-1.374 42.179,-2.08C41.832,-2.786 41.659,-3.609 41.659,-4.55C41.659,-5.491 41.832,-6.315 42.179,-7.021C42.526,-7.726 43.012,-8.271 43.637,-8.655C44.262,-9.039 44.99,-9.231 45.819,-9.231C46.636,-9.231 47.361,-9.039 47.992,-8.655C48.624,-8.271 49.11,-7.726 49.45,-7.021C49.791,-6.315 49.961,-5.491 49.961,-4.55C49.961,-3.609 49.791,-2.786 49.45,-2.08C49.11,-1.374 48.624,-0.83 47.992,-0.446C47.361,-0.062 46.636,0.13 45.819,0.13C44.99,0.13 44.262,-0.062 43.637,-0.446ZM48.011,-1.82C48.531,-2.452 48.791,-3.362 48.791,-4.55C48.791,-5.714 48.528,-6.621 48.002,-7.271C47.475,-7.921 46.748,-8.246 45.819,-8.246C44.878,-8.246 44.148,-7.921 43.628,-7.271C43.108,-6.621 42.848,-5.714 42.848,-4.55C42.848,-3.362 43.101,-2.452 43.609,-1.82C44.117,-1.189 44.847,-0.873 45.801,-0.873C46.754,-0.873 47.491,-1.189 48.011,-1.82Z" style="fill-rule:nonzero;"/>
                    <path d="M57.056,-9.101C57.155,-9.026 57.204,-8.903 57.204,-8.729C57.204,-8.42 57.019,-8.246 56.647,-8.209L56.09,-8.153C55.211,-8.067 54.558,-7.751 54.131,-7.206C53.703,-6.661 53.49,-6.024 53.49,-5.293L53.49,-0.483C53.49,-0.297 53.44,-0.155 53.341,-0.056C53.242,0.043 53.106,0.093 52.933,0.093C52.759,0.093 52.62,0.043 52.515,-0.056C52.41,-0.155 52.357,-0.297 52.357,-0.483L52.357,-8.618C52.357,-8.804 52.41,-8.946 52.515,-9.045C52.62,-9.144 52.759,-9.194 52.933,-9.194C53.094,-9.194 53.224,-9.144 53.323,-9.045C53.422,-8.946 53.471,-8.81 53.471,-8.636L53.471,-7.429C53.979,-8.494 54.92,-9.076 56.294,-9.175L56.554,-9.194C56.79,-9.206 56.957,-9.175 57.056,-9.101Z" style="fill-rule:nonzero;"/>
                    <path d="M63.761,-0.371C63.761,-0.223 63.705,-0.105 63.593,-0.019C63.482,0.068 63.303,0.105 63.055,0.093L62.535,0.056C61.594,-0.006 60.897,-0.294 60.445,-0.808C59.993,-1.322 59.767,-2.105 59.767,-3.157L59.767,-8.098L58.356,-8.098C58.207,-8.098 58.09,-8.138 58.003,-8.218C57.916,-8.299 57.873,-8.407 57.873,-8.544C57.873,-8.68 57.916,-8.791 58.003,-8.878C58.09,-8.965 58.207,-9.008 58.356,-9.008L59.767,-9.008L59.767,-11.311C59.767,-11.497 59.817,-11.639 59.916,-11.738C60.015,-11.837 60.151,-11.887 60.325,-11.887C60.498,-11.887 60.637,-11.837 60.743,-11.738C60.848,-11.639 60.9,-11.497 60.9,-11.311L60.9,-9.008L63.148,-9.008C63.309,-9.008 63.433,-8.965 63.519,-8.878C63.606,-8.791 63.649,-8.68 63.649,-8.544C63.649,-8.407 63.606,-8.299 63.519,-8.218C63.433,-8.138 63.309,-8.098 63.148,-8.098L60.9,-8.098L60.9,-3.102C60.9,-2.334 61.049,-1.786 61.346,-1.458C61.643,-1.13 62.108,-0.941 62.739,-0.891L63.241,-0.854C63.587,-0.817 63.761,-0.656 63.761,-0.371Z" style="fill-rule:nonzero;"/>
                    <path d="M79.919,-0.446C79.919,-0.31 79.866,-0.189 79.761,-0.084C79.656,0.022 79.529,0.074 79.38,0.074C79.207,0.074 79.065,0 78.953,-0.149L74.514,-5.869L70.038,-0.149C69.914,0 69.778,0.074 69.63,0.074C69.493,0.074 69.37,0.022 69.258,-0.084C69.147,-0.189 69.091,-0.31 69.091,-0.446C69.091,-0.582 69.134,-0.7 69.221,-0.799L73.846,-6.705L69.463,-12.295C69.376,-12.394 69.333,-12.512 69.333,-12.648C69.333,-12.784 69.385,-12.905 69.49,-13.01C69.596,-13.116 69.716,-13.168 69.853,-13.168C70.026,-13.168 70.168,-13.094 70.28,-12.945L74.514,-7.541L78.73,-12.945C78.842,-13.094 78.984,-13.168 79.158,-13.168C79.294,-13.168 79.418,-13.116 79.529,-13.01C79.64,-12.905 79.696,-12.784 79.696,-12.648C79.696,-12.512 79.653,-12.394 79.566,-12.295L75.183,-6.705L79.789,-0.799C79.876,-0.7 79.919,-0.582 79.919,-0.446Z" style="fill-rule:nonzero;"/>
                    <path d="M81.321,-4.587C81.228,-4.674 81.182,-4.786 81.182,-4.922C81.182,-5.07 81.228,-5.191 81.321,-5.284C81.414,-5.377 81.541,-5.423 81.702,-5.423L85.918,-5.423C86.079,-5.423 86.206,-5.377 86.299,-5.284C86.392,-5.191 86.438,-5.07 86.438,-4.922C86.438,-4.786 86.392,-4.674 86.299,-4.587C86.206,-4.501 86.079,-4.457 85.918,-4.457L81.702,-4.457C81.541,-4.457 81.414,-4.501 81.321,-4.587Z" style="fill-rule:nonzero;"/>
                    <path d="M90.422,-0.288C89.574,-0.579 88.908,-0.972 88.425,-1.467C88.264,-1.603 88.184,-1.783 88.184,-2.006C88.184,-2.142 88.224,-2.26 88.305,-2.359C88.385,-2.458 88.475,-2.507 88.574,-2.507C88.698,-2.507 88.84,-2.445 89.001,-2.322C90.165,-1.356 91.521,-0.873 93.069,-0.873C94.195,-0.873 95.065,-1.099 95.678,-1.551C96.291,-2.003 96.597,-2.644 96.597,-3.473C96.597,-3.956 96.449,-4.346 96.152,-4.643C95.855,-4.94 95.477,-5.173 95.019,-5.34C94.561,-5.507 93.948,-5.677 93.18,-5.85C92.165,-6.073 91.344,-6.302 90.719,-6.538C90.094,-6.773 89.565,-7.129 89.131,-7.606C88.698,-8.082 88.481,-8.723 88.481,-9.528C88.481,-10.258 88.676,-10.905 89.066,-11.469C89.456,-12.032 90.004,-12.469 90.71,-12.778C91.416,-13.088 92.227,-13.242 93.143,-13.242C93.997,-13.242 94.802,-13.103 95.557,-12.825C96.313,-12.546 96.938,-12.147 97.433,-11.627C97.594,-11.466 97.675,-11.286 97.675,-11.088C97.675,-10.952 97.634,-10.834 97.554,-10.735C97.473,-10.636 97.384,-10.587 97.285,-10.587C97.161,-10.587 97.018,-10.648 96.857,-10.772C96.189,-11.317 95.585,-11.695 95.047,-11.905C94.508,-12.116 93.873,-12.221 93.143,-12.221C92.041,-12.221 91.18,-11.986 90.561,-11.515C89.942,-11.045 89.633,-10.388 89.633,-9.546C89.633,-9.039 89.769,-8.627 90.041,-8.311C90.314,-7.996 90.67,-7.745 91.109,-7.559C91.549,-7.373 92.115,-7.194 92.809,-7.021L93.291,-6.909C94.294,-6.661 95.087,-6.432 95.669,-6.222C96.251,-6.011 96.743,-5.686 97.145,-5.247C97.548,-4.807 97.749,-4.216 97.749,-3.473C97.749,-2.767 97.554,-2.139 97.164,-1.588C96.774,-1.037 96.223,-0.61 95.511,-0.306C94.799,-0.003 93.985,0.149 93.069,0.149C92.152,0.149 91.27,0.003 90.422,-0.288Z" style="fill-rule:nonzero;"/>
                    <path d="M107.305,-1.792C107.385,-1.699 107.425,-1.591 107.425,-1.467C107.425,-1.195 107.215,-0.929 106.794,-0.669C105.902,-0.136 104.961,0.13 103.971,0.13C102.597,0.13 101.513,-0.285 100.721,-1.114C99.928,-1.944 99.532,-3.083 99.532,-4.532C99.532,-5.46 99.708,-6.281 100.061,-6.993C100.414,-7.705 100.909,-8.256 101.547,-8.646C102.185,-9.036 102.918,-9.231 103.748,-9.231C104.912,-9.231 105.831,-8.856 106.506,-8.107C107.181,-7.358 107.518,-6.327 107.518,-5.015C107.518,-4.792 107.469,-4.628 107.37,-4.522C107.271,-4.417 107.11,-4.365 106.887,-4.365L100.702,-4.365C100.739,-3.225 101.036,-2.359 101.594,-1.764C102.151,-1.17 102.937,-0.873 103.952,-0.873C104.485,-0.873 104.93,-0.944 105.29,-1.087C105.649,-1.229 106.032,-1.418 106.441,-1.653C106.713,-1.839 106.905,-1.932 107.017,-1.932C107.128,-1.932 107.224,-1.885 107.305,-1.792ZM101.668,-7.485C101.148,-6.94 100.838,-6.179 100.739,-5.2L106.478,-5.2C106.453,-6.191 106.206,-6.956 105.735,-7.494C105.265,-8.033 104.602,-8.302 103.748,-8.302C102.881,-8.302 102.188,-8.03 101.668,-7.485Z" style="fill-rule:nonzero;"/>
                    <path d="M114.576,-9.101C114.675,-9.026 114.725,-8.903 114.725,-8.729C114.725,-8.42 114.539,-8.246 114.167,-8.209L113.61,-8.153C112.731,-8.067 112.078,-7.751 111.651,-7.206C111.224,-6.661 111.01,-6.024 111.01,-5.293L111.01,-0.483C111.01,-0.297 110.96,-0.155 110.861,-0.056C110.762,0.043 110.626,0.093 110.453,0.093C110.279,0.093 110.14,0.043 110.035,-0.056C109.93,-0.155 109.877,-0.297 109.877,-0.483L109.877,-8.618C109.877,-8.804 109.93,-8.946 110.035,-9.045C110.14,-9.144 110.279,-9.194 110.453,-9.194C110.614,-9.194 110.744,-9.144 110.843,-9.045C110.942,-8.946 110.991,-8.81 110.991,-8.636L110.991,-7.429C111.499,-8.494 112.44,-9.076 113.815,-9.175L114.075,-9.194C114.31,-9.206 114.477,-9.175 114.576,-9.101Z" style="fill-rule:nonzero;"/>
                    <path d="M116.331,-0.056C116.226,-0.155 116.173,-0.297 116.173,-0.483L116.173,-8.618C116.173,-8.804 116.226,-8.946 116.331,-9.045C116.436,-9.144 116.576,-9.194 116.749,-9.194C116.922,-9.194 117.059,-9.144 117.158,-9.045C117.257,-8.946 117.306,-8.804 117.306,-8.618L117.306,-0.483C117.306,-0.297 117.257,-0.155 117.158,-0.056C117.059,0.043 116.922,0.093 116.749,0.093C116.576,0.093 116.436,0.043 116.331,-0.056ZM116.145,-11.515C115.991,-11.664 115.913,-11.856 115.913,-12.091C115.913,-12.339 115.991,-12.537 116.145,-12.685C116.3,-12.834 116.501,-12.908 116.749,-12.908C116.997,-12.908 117.198,-12.834 117.353,-12.685C117.507,-12.537 117.585,-12.339 117.585,-12.091C117.585,-11.856 117.507,-11.664 117.353,-11.515C117.198,-11.367 116.997,-11.292 116.749,-11.292C116.501,-11.292 116.3,-11.367 116.145,-11.515Z" style="fill-rule:nonzero;"/>
                    <path d="M127.493,-1.792C127.574,-1.699 127.614,-1.591 127.614,-1.467C127.614,-1.195 127.404,-0.929 126.983,-0.669C126.091,-0.136 125.15,0.13 124.16,0.13C122.785,0.13 121.702,-0.285 120.909,-1.114C120.117,-1.944 119.721,-3.083 119.721,-4.532C119.721,-5.46 119.897,-6.281 120.25,-6.993C120.603,-7.705 121.098,-8.256 121.736,-8.646C122.374,-9.036 123.107,-9.231 123.937,-9.231C125.101,-9.231 126.02,-8.856 126.695,-8.107C127.37,-7.358 127.707,-6.327 127.707,-5.015C127.707,-4.792 127.657,-4.628 127.558,-4.522C127.459,-4.417 127.298,-4.365 127.076,-4.365L120.891,-4.365C120.928,-3.225 121.225,-2.359 121.782,-1.764C122.339,-1.17 123.126,-0.873 124.141,-0.873C124.673,-0.873 125.119,-0.944 125.478,-1.087C125.837,-1.229 126.221,-1.418 126.63,-1.653C126.902,-1.839 127.094,-1.932 127.206,-1.932C127.317,-1.932 127.413,-1.885 127.493,-1.792ZM121.857,-7.485C121.337,-6.94 121.027,-6.179 120.928,-5.2L126.667,-5.2C126.642,-6.191 126.395,-6.956 125.924,-7.494C125.454,-8.033 124.791,-8.302 123.937,-8.302C123.07,-8.302 122.377,-8.03 121.857,-7.485Z" style="fill-rule:nonzero;"/>
                    <path d="M131.449,-0.084C130.948,-0.226 130.505,-0.421 130.121,-0.669C129.886,-0.83 129.722,-0.969 129.629,-1.087C129.536,-1.204 129.49,-1.337 129.49,-1.486C129.49,-1.61 129.53,-1.715 129.611,-1.802C129.691,-1.888 129.787,-1.932 129.899,-1.932C130.01,-1.932 130.202,-1.839 130.474,-1.653C130.833,-1.418 131.202,-1.226 131.579,-1.077C131.957,-0.929 132.431,-0.854 133,-0.854C133.731,-0.854 134.3,-0.987 134.709,-1.254C135.118,-1.52 135.322,-1.901 135.322,-2.396C135.322,-2.693 135.248,-2.938 135.099,-3.13C134.95,-3.321 134.703,-3.489 134.356,-3.631C134.009,-3.773 133.514,-3.913 132.87,-4.049C131.768,-4.297 130.985,-4.615 130.521,-5.005C130.056,-5.395 129.824,-5.919 129.824,-6.575C129.824,-7.367 130.134,-8.008 130.753,-8.497C131.372,-8.986 132.177,-9.231 133.167,-9.231C133.65,-9.231 134.112,-9.169 134.551,-9.045C134.991,-8.921 135.371,-8.742 135.693,-8.506C136.127,-8.209 136.343,-7.918 136.343,-7.633C136.343,-7.51 136.303,-7.401 136.223,-7.308C136.142,-7.216 136.046,-7.169 135.935,-7.169C135.811,-7.169 135.619,-7.268 135.359,-7.466C135.025,-7.702 134.694,-7.89 134.365,-8.033C134.037,-8.175 133.619,-8.246 133.112,-8.246C132.468,-8.246 131.954,-8.101 131.57,-7.81C131.186,-7.519 130.994,-7.126 130.994,-6.631C130.994,-6.346 131.059,-6.11 131.189,-5.925C131.319,-5.739 131.542,-5.575 131.858,-5.433C132.174,-5.29 132.629,-5.151 133.223,-5.015C134.078,-4.817 134.734,-4.606 135.192,-4.383C135.65,-4.16 135.978,-3.894 136.176,-3.585C136.374,-3.275 136.473,-2.879 136.473,-2.396C136.473,-1.641 136.155,-1.031 135.517,-0.566C134.879,-0.102 134.034,0.13 132.982,0.13C132.462,0.13 131.951,0.059 131.449,-0.084Z" style="fill-rule:nonzero;"/>
                    <path d="M145.008,-0.084C144.506,-0.226 144.064,-0.421 143.68,-0.669C143.444,-0.83 143.28,-0.969 143.187,-1.087C143.095,-1.204 143.048,-1.337 143.048,-1.486C143.048,-1.61 143.088,-1.715 143.169,-1.802C143.249,-1.888 143.345,-1.932 143.457,-1.932C143.568,-1.932 143.76,-1.839 144.033,-1.653C144.392,-1.418 144.76,-1.226 145.138,-1.077C145.515,-0.929 145.989,-0.854 146.558,-0.854C147.289,-0.854 147.859,-0.987 148.267,-1.254C148.676,-1.52 148.88,-1.901 148.88,-2.396C148.88,-2.693 148.806,-2.938 148.657,-3.13C148.509,-3.321 148.261,-3.489 147.914,-3.631C147.568,-3.773 147.072,-3.913 146.428,-4.049C145.326,-4.297 144.543,-4.615 144.079,-5.005C143.615,-5.395 143.383,-5.919 143.383,-6.575C143.383,-7.367 143.692,-8.008 144.311,-8.497C144.93,-8.986 145.735,-9.231 146.726,-9.231C147.209,-9.231 147.67,-9.169 148.109,-9.045C148.549,-8.921 148.93,-8.742 149.252,-8.506C149.685,-8.209 149.902,-7.918 149.902,-7.633C149.902,-7.51 149.861,-7.401 149.781,-7.308C149.7,-7.216 149.604,-7.169 149.493,-7.169C149.369,-7.169 149.177,-7.268 148.917,-7.466C148.583,-7.702 148.252,-7.89 147.924,-8.033C147.595,-8.175 147.178,-8.246 146.67,-8.246C146.026,-8.246 145.512,-8.101 145.128,-7.81C144.745,-7.519 144.553,-7.126 144.553,-6.631C144.553,-6.346 144.618,-6.11 144.748,-5.925C144.878,-5.739 145.101,-5.575 145.416,-5.433C145.732,-5.29 146.187,-5.151 146.781,-5.015C147.636,-4.817 148.292,-4.606 148.75,-4.383C149.208,-4.16 149.536,-3.894 149.734,-3.585C149.933,-3.275 150.032,-2.879 150.032,-2.396C150.032,-1.641 149.713,-1.031 149.075,-0.566C148.437,-0.102 147.592,0.13 146.54,0.13C146.02,0.13 145.509,0.059 145.008,-0.084Z" style="fill-rule:nonzero;"/>
                    <path d="M165.187,-9.175C165.336,-9.175 165.466,-9.125 165.577,-9.026C165.689,-8.927 165.744,-8.804 165.744,-8.655C165.744,-8.63 165.732,-8.568 165.707,-8.469L162.605,-0.371C162.556,-0.235 162.472,-0.13 162.355,-0.056C162.237,0.019 162.11,0.056 161.974,0.056C161.838,0.056 161.711,0.019 161.593,-0.056C161.476,-0.13 161.392,-0.235 161.342,-0.371L158.594,-7.466L155.863,-0.371C155.814,-0.235 155.73,-0.13 155.613,-0.056C155.495,0.019 155.368,0.056 155.232,0.056C155.096,0.056 154.969,0.019 154.851,-0.056C154.734,-0.13 154.65,-0.235 154.601,-0.371L151.48,-8.451C151.456,-8.525 151.443,-8.587 151.443,-8.636C151.443,-8.785 151.508,-8.915 151.638,-9.026C151.768,-9.138 151.907,-9.194 152.056,-9.194C152.291,-9.194 152.452,-9.076 152.539,-8.841L155.251,-1.486L158.055,-8.785C158.105,-8.921 158.185,-9.026 158.297,-9.101C158.408,-9.175 158.519,-9.212 158.631,-9.212C158.755,-9.212 158.869,-9.175 158.974,-9.101C159.08,-9.026 159.157,-8.921 159.207,-8.785L161.974,-1.504L164.723,-8.822C164.809,-9.057 164.964,-9.175 165.187,-9.175Z" style="fill-rule:nonzero;"/>
                    <path d="M168.001,-0.056C167.896,-0.155 167.843,-0.297 167.843,-0.483L167.843,-8.618C167.843,-8.804 167.896,-8.946 168.001,-9.045C168.106,-9.144 168.245,-9.194 168.419,-9.194C168.592,-9.194 168.728,-9.144 168.827,-9.045C168.926,-8.946 168.976,-8.804 168.976,-8.618L168.976,-0.483C168.976,-0.297 168.926,-0.155 168.827,-0.056C168.728,0.043 168.592,0.093 168.419,0.093C168.245,0.093 168.106,0.043 168.001,-0.056ZM167.815,-11.515C167.66,-11.664 167.583,-11.856 167.583,-12.091C167.583,-12.339 167.66,-12.537 167.815,-12.685C167.97,-12.834 168.171,-12.908 168.419,-12.908C168.666,-12.908 168.868,-12.834 169.022,-12.685C169.177,-12.537 169.255,-12.339 169.255,-12.091C169.255,-11.856 169.177,-11.664 169.022,-11.515C168.868,-11.367 168.666,-11.292 168.419,-11.292C168.171,-11.292 167.97,-11.367 167.815,-11.515Z" style="fill-rule:nonzero;"/>
                    <path d="M176.405,-0.371C176.405,-0.223 176.349,-0.105 176.238,-0.019C176.126,0.068 175.947,0.105 175.699,0.093L175.179,0.056C174.238,-0.006 173.542,-0.294 173.09,-0.808C172.638,-1.322 172.412,-2.105 172.412,-3.157L172.412,-8.098L171,-8.098C170.852,-8.098 170.734,-8.138 170.647,-8.218C170.561,-8.299 170.517,-8.407 170.517,-8.544C170.517,-8.68 170.561,-8.791 170.647,-8.878C170.734,-8.965 170.852,-9.008 171,-9.008L172.412,-9.008L172.412,-11.311C172.412,-11.497 172.461,-11.639 172.56,-11.738C172.66,-11.837 172.796,-11.887 172.969,-11.887C173.142,-11.887 173.282,-11.837 173.387,-11.738C173.492,-11.639 173.545,-11.497 173.545,-11.311L173.545,-9.008L175.792,-9.008C175.953,-9.008 176.077,-8.965 176.164,-8.878C176.25,-8.791 176.294,-8.68 176.294,-8.544C176.294,-8.407 176.25,-8.299 176.164,-8.218C176.077,-8.138 175.953,-8.098 175.792,-8.098L173.545,-8.098L173.545,-3.102C173.545,-2.334 173.693,-1.786 173.991,-1.458C174.288,-1.13 174.752,-0.941 175.384,-0.891L175.885,-0.854C176.232,-0.817 176.405,-0.656 176.405,-0.371Z" style="fill-rule:nonzero;"/>
                    <path d="M179.451,-0.446C178.82,-0.83 178.33,-1.374 177.984,-2.08C177.637,-2.786 177.464,-3.597 177.464,-4.513C177.464,-5.442 177.64,-6.262 177.993,-6.974C178.346,-7.686 178.841,-8.24 179.479,-8.636C180.117,-9.033 180.85,-9.231 181.68,-9.231C182.15,-9.231 182.608,-9.169 183.054,-9.045C183.5,-8.921 183.896,-8.735 184.243,-8.488C184.466,-8.327 184.624,-8.181 184.716,-8.051C184.809,-7.921 184.856,-7.782 184.856,-7.633C184.856,-7.497 184.819,-7.386 184.744,-7.299C184.67,-7.212 184.577,-7.169 184.466,-7.169C184.342,-7.169 184.144,-7.274 183.871,-7.485C183.549,-7.72 183.227,-7.906 182.906,-8.042C182.584,-8.178 182.194,-8.246 181.735,-8.246C180.77,-8.246 180.014,-7.915 179.47,-7.253C178.925,-6.59 178.652,-5.677 178.652,-4.513C178.652,-3.362 178.922,-2.467 179.46,-1.829C179.999,-1.192 180.751,-0.873 181.717,-0.873C182.187,-0.873 182.581,-0.941 182.896,-1.077C183.212,-1.213 183.556,-1.399 183.927,-1.634C184.039,-1.709 184.147,-1.777 184.252,-1.839C184.357,-1.901 184.441,-1.932 184.503,-1.932C184.627,-1.932 184.726,-1.888 184.8,-1.802C184.874,-1.715 184.911,-1.61 184.911,-1.486C184.911,-1.337 184.868,-1.207 184.781,-1.096C184.695,-0.984 184.528,-0.842 184.28,-0.669C183.946,-0.421 183.54,-0.226 183.063,-0.084C182.587,0.059 182.113,0.13 181.643,0.13C180.813,0.13 180.082,-0.062 179.451,-0.446Z" style="fill-rule:nonzero;"/>
                    <path d="M194.328,-5.739L194.328,-0.483C194.328,-0.31 194.278,-0.17 194.179,-0.065C194.08,0.04 193.944,0.093 193.771,0.093C193.597,0.093 193.458,0.04 193.353,-0.065C193.248,-0.17 193.195,-0.31 193.195,-0.483L193.195,-5.665C193.195,-6.556 193.015,-7.206 192.656,-7.615C192.297,-8.023 191.728,-8.228 190.948,-8.228C190.056,-8.228 189.341,-7.955 188.802,-7.411C188.264,-6.866 187.995,-6.135 187.995,-5.219L187.995,-0.483C187.995,-0.31 187.945,-0.17 187.846,-0.065C187.747,0.04 187.611,0.093 187.437,0.093C187.264,0.093 187.125,0.04 187.019,-0.065C186.914,-0.17 186.862,-0.31 186.862,-0.483L186.862,-12.611C186.862,-12.784 186.914,-12.924 187.019,-13.029C187.125,-13.134 187.264,-13.187 187.437,-13.187C187.611,-13.187 187.747,-13.134 187.846,-13.029C187.945,-12.924 187.995,-12.784 187.995,-12.611L187.995,-7.503C188.279,-8.061 188.691,-8.488 189.23,-8.785C189.768,-9.082 190.384,-9.231 191.078,-9.231C193.244,-9.231 194.328,-8.067 194.328,-5.739Z" style="fill-rule:nonzero;"/>
                </g>
            </g>
        </g>
    </g>
</svg>
