<?xml version="1.0" encoding="UTF-8"?>
<svg width="366px" height="298px" viewBox="0 0 366 298" version="1.1" xmlns="http://www.w3.org/2000/svg" xmlns:xlink="http://www.w3.org/1999/xlink">
    <!-- Generator: Sketch 50 (54983) - http://www.bohemiancoding.com/sketch -->
    <title>Computer_Home_Small_Office_LAN</title>
    <desc>Created with Sketch.</desc>
    <defs></defs>
    <g id="Page-2" stroke="none" stroke-width="1" fill="none" fill-rule="evenodd">
        <g id="Computer_Home_Small_Office_LAN" fill="#636569">
            <path d="M322.431,186.029148 C322.431,211.681932 301.611,232.487968 275.941,232.487968 L89.961,232.487968 C64.281,232.487968 43.461,211.681932 43.461,186.029148 L43.461,69.8671093 C43.461,44.2043327 64.281,23.4082897 89.961,23.4082897 L275.941,23.4082897 C301.611,23.4082897 322.431,44.2043327 322.431,69.8671093 L322.431,186.029148 Z M281.501,0.1738833 L83.661,0.1738833 C49.271,0.1738833 20.211,29.4542321 20.211,63.821167 L20.211,192.804601 C20.211,226.442025 49.271,255.722374 83.891,255.722374 L282.471,255.722374 C317.101,255.722374 345.681,227.171536 345.681,192.814594 L345.681,64.3108384 C345.681,29.2243863 317.101,0.1738833 281.501,0.1738833 Z" id="Fill-38"></path>
            <path d="M321.924,297.639242 L43.964,297.639242 C35.964,297.639242 4.914,292.26285 0.544,279.541388 C-2.046,271.986459 7.034,268.698665 15.034,268.698665 L350.874,268.698665 C358.864,268.698665 368.164,272.066405 365.364,279.541388 C360.984,291.143602 329.934,297.639242 321.924,297.639242" id="Fill-40"></path>
        </g>
    </g>
</svg>