<?xml version="1.0" encoding="UTF-8" standalone="no"?>
<!DOCTYPE svg PUBLIC "-//W3C//DTD SVG 1.1//EN" "http://www.w3.org/Graphics/SVG/1.1/DTD/svg11.dtd">
<svg width="100%" height="100%" viewBox="0 0 111 39" version="1.1" xmlns="http://www.w3.org/2000/svg" xmlns:xlink="http://www.w3.org/1999/xlink" xml:space="preserve" xmlns:serif="http://www.serif.com/" style="fill-rule:evenodd;clip-rule:evenodd;stroke-linejoin:round;stroke-miterlimit:1.41421;">
    <g transform="matrix(1,0,0,1,-32,-182)">
        <g transform="matrix(1,0,0,1,0,2)">
            <g id="Corporate-Headquarte">
                <g transform="matrix(1,0,0,1,46.1973,194.116)">
                    <path d="M3.965,-0.659C3.068,-1.198 2.38,-1.972 1.904,-2.981C1.427,-3.99 1.189,-5.182 1.189,-6.556C1.189,-7.931 1.427,-9.119 1.904,-10.122C2.38,-11.125 3.068,-11.896 3.965,-12.435C4.863,-12.973 5.919,-13.242 7.132,-13.242C7.962,-13.242 8.751,-13.103 9.5,-12.825C10.249,-12.546 10.884,-12.147 11.404,-11.627C11.577,-11.466 11.664,-11.286 11.664,-11.088C11.664,-10.952 11.624,-10.834 11.543,-10.735C11.463,-10.636 11.373,-10.587 11.274,-10.587C11.15,-10.587 11.008,-10.648 10.847,-10.772C10.178,-11.317 9.571,-11.695 9.026,-11.905C8.482,-12.116 7.844,-12.221 7.113,-12.221C5.615,-12.221 4.454,-11.726 3.631,-10.735C2.808,-9.745 2.396,-8.352 2.396,-6.556C2.396,-4.748 2.808,-3.349 3.631,-2.359C4.454,-1.368 5.615,-0.873 7.113,-0.873C7.844,-0.873 8.482,-0.978 9.026,-1.189C9.571,-1.399 10.178,-1.777 10.847,-2.322C11.032,-2.445 11.175,-2.507 11.274,-2.507C11.373,-2.507 11.463,-2.458 11.543,-2.359C11.624,-2.26 11.664,-2.142 11.664,-2.006C11.664,-1.808 11.577,-1.628 11.404,-1.467C10.884,-0.947 10.249,-0.548 9.5,-0.269C8.751,0.009 7.962,0.149 7.132,0.149C5.919,0.149 4.863,-0.121 3.965,-0.659Z" style="fill-rule:nonzero;"/>
                    <path d="M15.276,-0.446C14.651,-0.83 14.165,-1.374 13.818,-2.08C13.472,-2.786 13.298,-3.609 13.298,-4.55C13.298,-5.491 13.472,-6.315 13.818,-7.021C14.165,-7.726 14.651,-8.271 15.276,-8.655C15.901,-9.039 16.629,-9.231 17.458,-9.231C18.276,-9.231 19,-9.039 19.632,-8.655C20.263,-8.271 20.749,-7.726 21.089,-7.021C21.43,-6.315 21.6,-5.491 21.6,-4.55C21.6,-3.609 21.43,-2.786 21.089,-2.08C20.749,-1.374 20.263,-0.83 19.632,-0.446C19,-0.062 18.276,0.13 17.458,0.13C16.629,0.13 15.901,-0.062 15.276,-0.446ZM19.65,-1.82C20.17,-2.452 20.43,-3.362 20.43,-4.55C20.43,-5.714 20.167,-6.621 19.641,-7.271C19.115,-7.921 18.387,-8.246 17.458,-8.246C16.517,-8.246 15.787,-7.921 15.267,-7.271C14.747,-6.621 14.487,-5.714 14.487,-4.55C14.487,-3.362 14.741,-2.452 15.248,-1.82C15.756,-1.189 16.487,-0.873 17.44,-0.873C18.393,-0.873 19.13,-1.189 19.65,-1.82Z" style="fill-rule:nonzero;"/>
                    <path d="M28.695,-9.101C28.794,-9.026 28.844,-8.903 28.844,-8.729C28.844,-8.42 28.658,-8.246 28.286,-8.209L27.729,-8.153C26.85,-8.067 26.197,-7.751 25.77,-7.206C25.343,-6.661 25.129,-6.024 25.129,-5.293L25.129,-0.483C25.129,-0.297 25.08,-0.155 24.981,-0.056C24.881,0.043 24.745,0.093 24.572,0.093C24.399,0.093 24.259,0.043 24.154,-0.056C24.049,-0.155 23.996,-0.297 23.996,-0.483L23.996,-8.618C23.996,-8.804 24.049,-8.946 24.154,-9.045C24.259,-9.144 24.399,-9.194 24.572,-9.194C24.733,-9.194 24.863,-9.144 24.962,-9.045C25.061,-8.946 25.111,-8.81 25.111,-8.636L25.111,-7.429C25.618,-8.494 26.559,-9.076 27.934,-9.175L28.194,-9.194C28.429,-9.206 28.596,-9.175 28.695,-9.101Z" style="fill-rule:nonzero;"/>
                    <path d="M36.626,-8.646C37.232,-8.256 37.703,-7.705 38.037,-6.993C38.372,-6.281 38.539,-5.454 38.539,-4.513C38.539,-3.585 38.372,-2.77 38.037,-2.071C37.703,-1.371 37.232,-0.83 36.626,-0.446C36.019,-0.062 35.319,0.13 34.527,0.13C33.796,0.13 33.165,-0.028 32.633,-0.344C32.1,-0.659 31.698,-1.121 31.425,-1.727L31.425,2.86C31.425,3.034 31.376,3.173 31.277,3.278C31.178,3.383 31.041,3.436 30.868,3.436C30.695,3.436 30.555,3.383 30.45,3.278C30.345,3.173 30.292,3.034 30.292,2.86L30.292,-8.618C30.292,-8.791 30.345,-8.93 30.45,-9.036C30.555,-9.141 30.695,-9.194 30.868,-9.194C31.041,-9.194 31.178,-9.141 31.277,-9.036C31.376,-8.93 31.425,-8.791 31.425,-8.618L31.425,-7.373C31.698,-7.98 32.1,-8.441 32.633,-8.757C33.165,-9.073 33.796,-9.231 34.527,-9.231C35.319,-9.231 36.019,-9.036 36.626,-8.646ZM36.579,-1.829C37.105,-2.467 37.369,-3.362 37.369,-4.513C37.369,-5.689 37.105,-6.606 36.579,-7.262C36.053,-7.918 35.319,-8.246 34.378,-8.246C33.437,-8.246 32.71,-7.924 32.196,-7.281C31.682,-6.637 31.425,-5.727 31.425,-4.55C31.425,-3.374 31.679,-2.467 32.187,-1.829C32.694,-1.192 33.419,-0.873 34.36,-0.873C35.313,-0.873 36.053,-1.192 36.579,-1.829Z" style="fill-rule:nonzero;"/>
                    <path d="M42.337,-0.446C41.712,-0.83 41.226,-1.374 40.879,-2.08C40.532,-2.786 40.359,-3.609 40.359,-4.55C40.359,-5.491 40.532,-6.315 40.879,-7.021C41.226,-7.726 41.712,-8.271 42.337,-8.655C42.962,-9.039 43.69,-9.231 44.519,-9.231C45.336,-9.231 46.061,-9.039 46.692,-8.655C47.324,-8.271 47.81,-7.726 48.15,-7.021C48.491,-6.315 48.661,-5.491 48.661,-4.55C48.661,-3.609 48.491,-2.786 48.15,-2.08C47.81,-1.374 47.324,-0.83 46.692,-0.446C46.061,-0.062 45.336,0.13 44.519,0.13C43.69,0.13 42.962,-0.062 42.337,-0.446ZM46.711,-1.82C47.231,-2.452 47.491,-3.362 47.491,-4.55C47.491,-5.714 47.228,-6.621 46.701,-7.271C46.175,-7.921 45.448,-8.246 44.519,-8.246C43.578,-8.246 42.848,-7.921 42.328,-7.271C41.808,-6.621 41.547,-5.714 41.547,-4.55C41.547,-3.362 41.801,-2.452 42.309,-1.82C42.817,-1.189 43.547,-0.873 44.501,-0.873C45.454,-0.873 46.191,-1.189 46.711,-1.82Z" style="fill-rule:nonzero;"/>
                    <path d="M55.756,-9.101C55.855,-9.026 55.904,-8.903 55.904,-8.729C55.904,-8.42 55.719,-8.246 55.347,-8.209L54.79,-8.153C53.911,-8.067 53.258,-7.751 52.831,-7.206C52.403,-6.661 52.19,-6.024 52.19,-5.293L52.19,-0.483C52.19,-0.297 52.14,-0.155 52.041,-0.056C51.942,0.043 51.806,0.093 51.633,0.093C51.459,0.093 51.32,0.043 51.215,-0.056C51.109,-0.155 51.057,-0.297 51.057,-0.483L51.057,-8.618C51.057,-8.804 51.109,-8.946 51.215,-9.045C51.32,-9.144 51.459,-9.194 51.633,-9.194C51.794,-9.194 51.924,-9.144 52.023,-9.045C52.122,-8.946 52.171,-8.81 52.171,-8.636L52.171,-7.429C52.679,-8.494 53.62,-9.076 54.994,-9.175L55.254,-9.194C55.49,-9.206 55.657,-9.175 55.756,-9.101Z" style="fill-rule:nonzero;"/>
                    <path d="M63.268,-8.376C63.807,-7.807 64.076,-6.946 64.076,-5.795L64.076,-0.501C64.076,-0.328 64.027,-0.189 63.928,-0.084C63.829,0.022 63.693,0.074 63.519,0.074C63.346,0.074 63.21,0.022 63.111,-0.084C63.012,-0.189 62.962,-0.328 62.962,-0.501L62.962,-1.616C62.702,-1.059 62.324,-0.628 61.829,-0.325C61.334,-0.022 60.764,0.13 60.12,0.13C59.538,0.13 59.006,0.012 58.523,-0.223C58.04,-0.458 57.659,-0.786 57.381,-1.207C57.102,-1.628 56.963,-2.093 56.963,-2.6C56.963,-3.269 57.136,-3.789 57.483,-4.16C57.83,-4.532 58.405,-4.798 59.21,-4.959C60.015,-5.12 61.136,-5.2 62.572,-5.2L62.962,-5.2L62.962,-5.888C62.962,-6.705 62.795,-7.302 62.461,-7.68C62.126,-8.058 61.6,-8.246 60.882,-8.246C59.966,-8.246 59.093,-8.005 58.263,-7.522C58.226,-7.497 58.13,-7.432 57.975,-7.327C57.82,-7.222 57.687,-7.169 57.576,-7.169C57.452,-7.169 57.35,-7.216 57.269,-7.308C57.189,-7.401 57.149,-7.516 57.149,-7.652C57.149,-7.924 57.365,-8.191 57.799,-8.451C58.232,-8.698 58.715,-8.89 59.247,-9.026C59.78,-9.163 60.306,-9.231 60.826,-9.231C61.916,-9.231 62.73,-8.946 63.268,-8.376ZM62.191,-1.672C62.705,-2.216 62.962,-2.91 62.962,-3.752L62.962,-4.365L62.609,-4.365C61.42,-4.365 60.51,-4.315 59.879,-4.216C59.247,-4.117 58.802,-3.947 58.542,-3.705C58.282,-3.464 58.152,-3.114 58.152,-2.656C58.152,-2.136 58.35,-1.706 58.746,-1.365C59.142,-1.025 59.631,-0.854 60.213,-0.854C61.018,-0.854 61.677,-1.127 62.191,-1.672Z" style="fill-rule:nonzero;"/>
                    <path d="M71.468,-0.371C71.468,-0.223 71.413,-0.105 71.301,-0.019C71.19,0.068 71.01,0.105 70.763,0.093L70.243,0.056C69.302,-0.006 68.605,-0.294 68.153,-0.808C67.701,-1.322 67.475,-2.105 67.475,-3.157L67.475,-8.098L66.064,-8.098C65.915,-8.098 65.797,-8.138 65.711,-8.218C65.624,-8.299 65.581,-8.407 65.581,-8.544C65.581,-8.68 65.624,-8.791 65.711,-8.878C65.797,-8.965 65.915,-9.008 66.064,-9.008L67.475,-9.008L67.475,-11.311C67.475,-11.497 67.525,-11.639 67.624,-11.738C67.723,-11.837 67.859,-11.887 68.032,-11.887C68.206,-11.887 68.345,-11.837 68.45,-11.738C68.556,-11.639 68.608,-11.497 68.608,-11.311L68.608,-9.008L70.855,-9.008C71.016,-9.008 71.14,-8.965 71.227,-8.878C71.314,-8.791 71.357,-8.68 71.357,-8.544C71.357,-8.407 71.314,-8.299 71.227,-8.218C71.14,-8.138 71.016,-8.098 70.855,-8.098L68.608,-8.098L68.608,-3.102C68.608,-2.334 68.757,-1.786 69.054,-1.458C69.351,-1.13 69.815,-0.941 70.447,-0.891L70.948,-0.854C71.295,-0.817 71.468,-0.656 71.468,-0.371Z" style="fill-rule:nonzero;"/>
                    <path d="M80.3,-1.792C80.38,-1.699 80.421,-1.591 80.421,-1.467C80.421,-1.195 80.21,-0.929 79.789,-0.669C78.898,-0.136 77.957,0.13 76.966,0.13C75.592,0.13 74.508,-0.285 73.716,-1.114C72.923,-1.944 72.527,-3.083 72.527,-4.532C72.527,-5.46 72.703,-6.281 73.056,-6.993C73.409,-7.705 73.905,-8.256 74.542,-8.646C75.18,-9.036 75.913,-9.231 76.743,-9.231C77.907,-9.231 78.826,-8.856 79.501,-8.107C80.176,-7.358 80.513,-6.327 80.513,-5.015C80.513,-4.792 80.464,-4.628 80.365,-4.522C80.266,-4.417 80.105,-4.365 79.882,-4.365L73.697,-4.365C73.734,-3.225 74.031,-2.359 74.589,-1.764C75.146,-1.17 75.932,-0.873 76.947,-0.873C77.48,-0.873 77.926,-0.944 78.285,-1.087C78.644,-1.229 79.028,-1.418 79.436,-1.653C79.709,-1.839 79.9,-1.932 80.012,-1.932C80.123,-1.932 80.219,-1.885 80.3,-1.792ZM74.663,-7.485C74.143,-6.94 73.833,-6.179 73.734,-5.2L79.473,-5.2C79.449,-6.191 79.201,-6.956 78.73,-7.494C78.26,-8.033 77.597,-8.302 76.743,-8.302C75.876,-8.302 75.183,-8.03 74.663,-7.485Z" style="fill-rule:nonzero;"/>
                </g>
                <g transform="matrix(1,0,0,1,30.5126,215.342)">
                    <path d="M12.165,-13.029C12.264,-12.924 12.314,-12.778 12.314,-12.592L12.314,-0.501C12.314,-0.316 12.264,-0.17 12.165,-0.065C12.066,0.04 11.924,0.093 11.738,0.093C11.565,0.093 11.429,0.037 11.329,-0.074C11.23,-0.186 11.181,-0.328 11.181,-0.501L11.181,-6.148L2.823,-6.148L2.823,-0.501C2.823,-0.328 2.774,-0.186 2.674,-0.074C2.575,0.037 2.439,0.093 2.266,0.093C2.093,0.093 1.953,0.037 1.848,-0.074C1.743,-0.186 1.69,-0.328 1.69,-0.501L1.69,-12.592C1.69,-12.766 1.743,-12.908 1.848,-13.02C1.953,-13.131 2.093,-13.187 2.266,-13.187C2.439,-13.187 2.575,-13.131 2.674,-13.02C2.774,-12.908 2.823,-12.766 2.823,-12.592L2.823,-7.151L11.181,-7.151L11.181,-12.592C11.181,-12.766 11.23,-12.908 11.329,-13.02C11.429,-13.131 11.565,-13.187 11.738,-13.187C11.924,-13.187 12.066,-13.134 12.165,-13.029Z" style="fill-rule:nonzero;"/>
                    <path d="M22.687,-1.792C22.767,-1.699 22.807,-1.591 22.807,-1.467C22.807,-1.195 22.597,-0.929 22.176,-0.669C21.285,-0.136 20.343,0.13 19.353,0.13C17.979,0.13 16.895,-0.285 16.103,-1.114C15.31,-1.944 14.914,-3.083 14.914,-4.532C14.914,-5.46 15.09,-6.281 15.443,-6.993C15.796,-7.705 16.291,-8.256 16.929,-8.646C17.567,-9.036 18.3,-9.231 19.13,-9.231C20.294,-9.231 21.213,-8.856 21.888,-8.107C22.563,-7.358 22.9,-6.327 22.9,-5.015C22.9,-4.792 22.851,-4.628 22.752,-4.522C22.653,-4.417 22.492,-4.365 22.269,-4.365L16.084,-4.365C16.121,-3.225 16.418,-2.359 16.976,-1.764C17.533,-1.17 18.319,-0.873 19.334,-0.873C19.867,-0.873 20.313,-0.944 20.672,-1.087C21.031,-1.229 21.415,-1.418 21.823,-1.653C22.096,-1.839 22.287,-1.932 22.399,-1.932C22.51,-1.932 22.606,-1.885 22.687,-1.792ZM17.05,-7.485C16.53,-6.94 16.22,-6.179 16.121,-5.2L21.86,-5.2C21.835,-6.191 21.588,-6.956 21.117,-7.494C20.647,-8.033 19.984,-8.302 19.13,-8.302C18.263,-8.302 17.57,-8.03 17.05,-7.485Z" style="fill-rule:nonzero;"/>
                    <path d="M31.267,-8.376C31.806,-7.807 32.075,-6.946 32.075,-5.795L32.075,-0.501C32.075,-0.328 32.026,-0.189 31.927,-0.084C31.828,0.022 31.691,0.074 31.518,0.074C31.345,0.074 31.209,0.022 31.11,-0.084C31.01,-0.189 30.961,-0.328 30.961,-0.501L30.961,-1.616C30.701,-1.059 30.323,-0.628 29.828,-0.325C29.333,-0.022 28.763,0.13 28.119,0.13C27.537,0.13 27.005,0.012 26.522,-0.223C26.039,-0.458 25.658,-0.786 25.38,-1.207C25.101,-1.628 24.962,-2.093 24.962,-2.6C24.962,-3.269 25.135,-3.789 25.482,-4.16C25.829,-4.532 26.404,-4.798 27.209,-4.959C28.014,-5.12 29.135,-5.2 30.571,-5.2L30.961,-5.2L30.961,-5.888C30.961,-6.705 30.794,-7.302 30.459,-7.68C30.125,-8.058 29.599,-8.246 28.881,-8.246C27.965,-8.246 27.092,-8.005 26.262,-7.522C26.225,-7.497 26.129,-7.432 25.974,-7.327C25.819,-7.222 25.686,-7.169 25.575,-7.169C25.451,-7.169 25.349,-7.216 25.268,-7.308C25.188,-7.401 25.148,-7.516 25.148,-7.652C25.148,-7.924 25.364,-8.191 25.798,-8.451C26.231,-8.698 26.714,-8.89 27.246,-9.026C27.779,-9.163 28.305,-9.231 28.825,-9.231C29.915,-9.231 30.729,-8.946 31.267,-8.376ZM30.19,-1.672C30.704,-2.216 30.961,-2.91 30.961,-3.752L30.961,-4.365L30.608,-4.365C29.419,-4.365 28.509,-4.315 27.878,-4.216C27.246,-4.117 26.801,-3.947 26.541,-3.705C26.281,-3.464 26.151,-3.114 26.151,-2.656C26.151,-2.136 26.349,-1.706 26.745,-1.365C27.141,-1.025 27.63,-0.854 28.212,-0.854C29.017,-0.854 29.676,-1.127 30.19,-1.672Z" style="fill-rule:nonzero;"/>
                    <path d="M42.541,-13.029C42.646,-12.924 42.699,-12.784 42.699,-12.611L42.699,-0.501C42.699,-0.328 42.646,-0.189 42.541,-0.084C42.436,0.022 42.297,0.074 42.123,0.074C41.95,0.074 41.814,0.022 41.715,-0.084C41.616,-0.189 41.566,-0.328 41.566,-0.501L41.566,-1.727C41.294,-1.121 40.891,-0.659 40.359,-0.344C39.826,-0.028 39.195,0.13 38.464,0.13C37.672,0.13 36.972,-0.065 36.366,-0.455C35.759,-0.845 35.288,-1.396 34.954,-2.108C34.62,-2.82 34.453,-3.646 34.453,-4.587C34.453,-5.516 34.62,-6.33 34.954,-7.03C35.288,-7.729 35.759,-8.271 36.366,-8.655C36.972,-9.039 37.672,-9.231 38.464,-9.231C39.195,-9.231 39.826,-9.073 40.359,-8.757C40.891,-8.441 41.294,-7.98 41.566,-7.373L41.566,-12.611C41.566,-12.784 41.616,-12.924 41.715,-13.029C41.814,-13.134 41.95,-13.187 42.123,-13.187C42.297,-13.187 42.436,-13.134 42.541,-13.029ZM40.795,-1.829C41.309,-2.467 41.566,-3.374 41.566,-4.55C41.566,-5.727 41.312,-6.637 40.805,-7.281C40.297,-7.924 39.573,-8.246 38.632,-8.246C37.678,-8.246 36.941,-7.928 36.421,-7.29C35.901,-6.652 35.641,-5.751 35.641,-4.587C35.641,-3.411 35.901,-2.498 36.421,-1.848C36.941,-1.198 37.672,-0.873 38.613,-0.873C39.554,-0.873 40.281,-1.192 40.795,-1.829Z" style="fill-rule:nonzero;"/>
                    <path d="M53.183,-9.036C53.289,-8.93 53.341,-8.791 53.341,-8.618L53.341,2.86C53.341,3.034 53.289,3.173 53.183,3.278C53.078,3.383 52.939,3.436 52.766,3.436C52.592,3.436 52.456,3.383 52.357,3.278C52.258,3.173 52.208,3.034 52.208,2.86L52.208,-1.727C51.936,-1.121 51.534,-0.659 51.001,-0.344C50.469,-0.028 49.837,0.13 49.107,0.13C48.314,0.13 47.615,-0.062 47.008,-0.446C46.401,-0.83 45.931,-1.371 45.596,-2.071C45.262,-2.77 45.095,-3.585 45.095,-4.513C45.095,-5.454 45.262,-6.281 45.596,-6.993C45.931,-7.705 46.401,-8.256 47.008,-8.646C47.615,-9.036 48.314,-9.231 49.107,-9.231C49.837,-9.231 50.469,-9.073 51.001,-8.757C51.534,-8.441 51.936,-7.98 52.208,-7.373L52.208,-8.618C52.208,-8.791 52.258,-8.93 52.357,-9.036C52.456,-9.141 52.592,-9.194 52.766,-9.194C52.939,-9.194 53.078,-9.141 53.183,-9.036ZM51.447,-1.829C51.954,-2.467 52.208,-3.374 52.208,-4.55C52.208,-5.727 51.951,-6.637 51.438,-7.281C50.924,-7.924 50.196,-8.246 49.255,-8.246C48.314,-8.246 47.584,-7.918 47.064,-7.262C46.544,-6.606 46.284,-5.689 46.284,-4.513C46.284,-3.349 46.544,-2.452 47.064,-1.82C47.584,-1.189 48.32,-0.873 49.274,-0.873C50.215,-0.873 50.939,-1.192 51.447,-1.829Z" style="fill-rule:nonzero;"/>
                    <path d="M63.454,-9.036C63.559,-8.93 63.612,-8.791 63.612,-8.618L63.612,-0.483C63.612,-0.31 63.559,-0.17 63.454,-0.065C63.349,0.04 63.21,0.093 63.036,0.093C62.875,0.093 62.745,0.04 62.646,-0.065C62.547,-0.17 62.498,-0.31 62.498,-0.483L62.498,-1.616C62.213,-1.046 61.807,-0.613 61.281,-0.316C60.755,-0.019 60.158,0.13 59.489,0.13C58.424,0.13 57.622,-0.164 57.084,-0.752C56.545,-1.34 56.276,-2.21 56.276,-3.362L56.276,-8.618C56.276,-8.791 56.328,-8.93 56.434,-9.036C56.539,-9.141 56.678,-9.194 56.852,-9.194C57.025,-9.194 57.161,-9.141 57.26,-9.036C57.359,-8.93 57.409,-8.791 57.409,-8.618L57.409,-3.436C57.409,-2.557 57.585,-1.91 57.938,-1.495C58.291,-1.08 58.845,-0.873 59.6,-0.873C60.467,-0.873 61.164,-1.148 61.69,-1.699C62.216,-2.25 62.479,-2.984 62.479,-3.9L62.479,-8.618C62.479,-8.791 62.529,-8.93 62.628,-9.036C62.727,-9.141 62.863,-9.194 63.036,-9.194C63.21,-9.194 63.349,-9.141 63.454,-9.036Z" style="fill-rule:nonzero;"/>
                    <path d="M72.592,-8.376C73.131,-7.807 73.4,-6.946 73.4,-5.795L73.4,-0.501C73.4,-0.328 73.35,-0.189 73.251,-0.084C73.152,0.022 73.016,0.074 72.843,0.074C72.669,0.074 72.533,0.022 72.434,-0.084C72.335,-0.189 72.286,-0.328 72.286,-0.501L72.286,-1.616C72.026,-1.059 71.648,-0.628 71.153,-0.325C70.657,-0.022 70.088,0.13 69.444,0.13C68.862,0.13 68.33,0.012 67.847,-0.223C67.364,-0.458 66.983,-0.786 66.704,-1.207C66.426,-1.628 66.287,-2.093 66.287,-2.6C66.287,-3.269 66.46,-3.789 66.807,-4.16C67.153,-4.532 67.729,-4.798 68.534,-4.959C69.339,-5.12 70.459,-5.2 71.896,-5.2L72.286,-5.2L72.286,-5.888C72.286,-6.705 72.118,-7.302 71.784,-7.68C71.45,-8.058 70.924,-8.246 70.205,-8.246C69.289,-8.246 68.416,-8.005 67.587,-7.522C67.55,-7.497 67.454,-7.432 67.299,-7.327C67.144,-7.222 67.011,-7.169 66.899,-7.169C66.776,-7.169 66.673,-7.216 66.593,-7.308C66.513,-7.401 66.472,-7.516 66.472,-7.652C66.472,-7.924 66.689,-8.191 67.122,-8.451C67.556,-8.698 68.039,-8.89 68.571,-9.026C69.103,-9.163 69.63,-9.231 70.15,-9.231C71.239,-9.231 72.053,-8.946 72.592,-8.376ZM71.515,-1.672C72.029,-2.216 72.286,-2.91 72.286,-3.752L72.286,-4.365L71.933,-4.365C70.744,-4.365 69.834,-4.315 69.202,-4.216C68.571,-4.117 68.125,-3.947 67.865,-3.705C67.605,-3.464 67.475,-3.114 67.475,-2.656C67.475,-2.136 67.673,-1.706 68.07,-1.365C68.466,-1.025 68.955,-0.854 69.537,-0.854C70.342,-0.854 71.001,-1.127 71.515,-1.672Z" style="fill-rule:nonzero;"/>
                    <path d="M81.052,-9.101C81.151,-9.026 81.201,-8.903 81.201,-8.729C81.201,-8.42 81.015,-8.246 80.643,-8.209L80.086,-8.153C79.207,-8.067 78.554,-7.751 78.127,-7.206C77.7,-6.661 77.486,-6.024 77.486,-5.293L77.486,-0.483C77.486,-0.297 77.436,-0.155 77.337,-0.056C77.238,0.043 77.102,0.093 76.929,0.093C76.755,0.093 76.616,0.043 76.511,-0.056C76.406,-0.155 76.353,-0.297 76.353,-0.483L76.353,-8.618C76.353,-8.804 76.406,-8.946 76.511,-9.045C76.616,-9.144 76.755,-9.194 76.929,-9.194C77.09,-9.194 77.22,-9.144 77.319,-9.045C77.418,-8.946 77.467,-8.81 77.467,-8.636L77.467,-7.429C77.975,-8.494 78.916,-9.076 80.29,-9.175L80.551,-9.194C80.786,-9.206 80.953,-9.175 81.052,-9.101Z" style="fill-rule:nonzero;"/>
                    <path d="M87.757,-0.371C87.757,-0.223 87.701,-0.105 87.59,-0.019C87.478,0.068 87.299,0.105 87.051,0.093L86.531,0.056C85.59,-0.006 84.893,-0.294 84.442,-0.808C83.99,-1.322 83.764,-2.105 83.764,-3.157L83.764,-8.098L82.352,-8.098C82.203,-8.098 82.086,-8.138 81.999,-8.218C81.913,-8.299 81.869,-8.407 81.869,-8.544C81.869,-8.68 81.913,-8.791 81.999,-8.878C82.086,-8.965 82.203,-9.008 82.352,-9.008L83.764,-9.008L83.764,-11.311C83.764,-11.497 83.813,-11.639 83.912,-11.738C84.011,-11.837 84.147,-11.887 84.321,-11.887C84.494,-11.887 84.633,-11.837 84.739,-11.738C84.844,-11.639 84.897,-11.497 84.897,-11.311L84.897,-9.008L87.144,-9.008C87.305,-9.008 87.429,-8.965 87.515,-8.878C87.602,-8.791 87.645,-8.68 87.645,-8.544C87.645,-8.407 87.602,-8.299 87.515,-8.218C87.429,-8.138 87.305,-8.098 87.144,-8.098L84.897,-8.098L84.897,-3.102C84.897,-2.334 85.045,-1.786 85.342,-1.458C85.639,-1.13 86.104,-0.941 86.735,-0.891L87.237,-0.854C87.583,-0.817 87.757,-0.656 87.757,-0.371Z" style="fill-rule:nonzero;"/>
                    <path d="M96.588,-1.792C96.669,-1.699 96.709,-1.591 96.709,-1.467C96.709,-1.195 96.498,-0.929 96.077,-0.669C95.186,-0.136 94.245,0.13 93.254,0.13C91.88,0.13 90.797,-0.285 90.004,-1.114C89.212,-1.944 88.815,-3.083 88.815,-4.532C88.815,-5.46 88.992,-6.281 89.345,-6.993C89.698,-7.705 90.193,-8.256 90.831,-8.646C91.468,-9.036 92.202,-9.231 93.031,-9.231C94.195,-9.231 95.115,-8.856 95.79,-8.107C96.464,-7.358 96.802,-6.327 96.802,-5.015C96.802,-4.792 96.752,-4.628 96.653,-4.522C96.554,-4.417 96.393,-4.365 96.17,-4.365L89.986,-4.365C90.023,-3.225 90.32,-2.359 90.877,-1.764C91.434,-1.17 92.22,-0.873 93.236,-0.873C93.768,-0.873 94.214,-0.944 94.573,-1.087C94.932,-1.229 95.316,-1.418 95.725,-1.653C95.997,-1.839 96.189,-1.932 96.3,-1.932C96.412,-1.932 96.508,-1.885 96.588,-1.792ZM90.951,-7.485C90.431,-6.94 90.122,-6.179 90.023,-5.2L95.762,-5.2C95.737,-6.191 95.489,-6.956 95.019,-7.494C94.548,-8.033 93.886,-8.302 93.031,-8.302C92.165,-8.302 91.471,-8.03 90.951,-7.485Z" style="fill-rule:nonzero;"/>
                    <path d="M103.859,-9.101C103.959,-9.026 104.008,-8.903 104.008,-8.729C104.008,-8.42 103.822,-8.246 103.451,-8.209L102.894,-8.153C102.015,-8.067 101.361,-7.751 100.934,-7.206C100.507,-6.661 100.293,-6.024 100.293,-5.293L100.293,-0.483C100.293,-0.297 100.244,-0.155 100.145,-0.056C100.046,0.043 99.91,0.093 99.736,0.093C99.563,0.093 99.424,0.043 99.318,-0.056C99.213,-0.155 99.161,-0.297 99.161,-0.483L99.161,-8.618C99.161,-8.804 99.213,-8.946 99.318,-9.045C99.424,-9.144 99.563,-9.194 99.736,-9.194C99.897,-9.194 100.027,-9.144 100.126,-9.045C100.225,-8.946 100.275,-8.81 100.275,-8.636L100.275,-7.429C100.783,-8.494 101.724,-9.076 103.098,-9.175L103.358,-9.194C103.593,-9.206 103.76,-9.175 103.859,-9.101Z" style="fill-rule:nonzero;"/>
                    <path d="M106.748,-0.084C106.246,-0.226 105.803,-0.421 105.42,-0.669C105.184,-0.83 105.02,-0.969 104.927,-1.087C104.835,-1.204 104.788,-1.337 104.788,-1.486C104.788,-1.61 104.828,-1.715 104.909,-1.802C104.989,-1.888 105.085,-1.932 105.197,-1.932C105.308,-1.932 105.5,-1.839 105.772,-1.653C106.132,-1.418 106.5,-1.226 106.878,-1.077C107.255,-0.929 107.729,-0.854 108.298,-0.854C109.029,-0.854 109.598,-0.987 110.007,-1.254C110.416,-1.52 110.62,-1.901 110.62,-2.396C110.62,-2.693 110.546,-2.938 110.397,-3.13C110.249,-3.321 110.001,-3.489 109.654,-3.631C109.307,-3.773 108.812,-3.913 108.168,-4.049C107.066,-4.297 106.283,-4.615 105.819,-5.005C105.355,-5.395 105.122,-5.919 105.122,-6.575C105.122,-7.367 105.432,-8.008 106.051,-8.497C106.67,-8.986 107.475,-9.231 108.466,-9.231C108.948,-9.231 109.41,-9.169 109.849,-9.045C110.289,-8.921 110.67,-8.742 110.991,-8.506C111.425,-8.209 111.641,-7.918 111.641,-7.633C111.641,-7.51 111.601,-7.401 111.521,-7.308C111.44,-7.216 111.344,-7.169 111.233,-7.169C111.109,-7.169 110.917,-7.268 110.657,-7.466C110.323,-7.702 109.992,-7.89 109.663,-8.033C109.335,-8.175 108.917,-8.246 108.41,-8.246C107.766,-8.246 107.252,-8.101 106.868,-7.81C106.484,-7.519 106.293,-7.126 106.293,-6.631C106.293,-6.346 106.358,-6.11 106.488,-5.925C106.618,-5.739 106.84,-5.575 107.156,-5.433C107.472,-5.29 107.927,-5.151 108.521,-5.015C109.376,-4.817 110.032,-4.606 110.49,-4.383C110.948,-4.16 111.276,-3.894 111.474,-3.585C111.672,-3.275 111.771,-2.879 111.771,-2.396C111.771,-1.641 111.453,-1.031 110.815,-0.566C110.177,-0.102 109.332,0.13 108.28,0.13C107.76,0.13 107.249,0.059 106.748,-0.084Z" style="fill-rule:nonzero;"/>
                </g>
            </g>
        </g>
    </g>
</svg>
