<?xml version="1.0" encoding="UTF-8"?>
<svg width="240px" height="240px" viewBox="0 0 240 240" version="1.1" xmlns="http://www.w3.org/2000/svg" xmlns:xlink="http://www.w3.org/1999/xlink">
    <!-- Generator: Sketch 50 (54983) - http://www.bohemiancoding.com/sketch -->
    <title>Engineering</title>
    <desc>Created with Sketch.</desc>
    <defs></defs>
    <g id="Page-2" stroke="none" stroke-width="1" fill="none" fill-rule="evenodd">
        <g id="Engineering" fill="#636569">
            <path d="M120.225404,78.39721 C116.767254,78.39721 113.301762,78.8303965 109.93906,79.6967695 C99.1828194,82.428047 90.1446402,89.1901615 84.4911894,98.7349486 C78.8450808,108.265051 77.2444934,119.432452 79.9831131,130.188693 C84.6820852,148.580764 101.209251,161.429515 120.181351,161.429515 C123.639501,161.429515 127.104993,160.988987 130.475037,160.129956 C141.216593,157.376652 150.254772,150.62188 155.900881,141.084435 C161.554332,131.561674 163.147577,120.386931 160.401615,109.652717 C155.680617,91.2459618 139.160793,78.39721 120.225404,78.39721 M120.225404,86.2606461 C135.232746,86.253304 148.881791,96.3781204 152.787812,111.598385 C157.406021,129.601322 146.539648,147.905286 128.536711,152.508811 C125.739354,153.228341 122.941997,153.573421 120.181351,153.573421 C105.166667,153.573421 91.4882526,143.455947 87.6042584,128.243025 C83.0007342,110.225404 93.8450808,91.8994126 111.870044,87.3105727 C114.667401,86.5910426 117.464758,86.2606461 120.225404,86.2606461" id="Fill-132"></path>
            <path d="M120.257709,43.4757709 C114.002203,43.4757709 107.643906,44.246696 101.300294,45.8693098 C60.3531571,56.2951542 35.7202643,97.9030837 46.1754772,138.828194 C54.9933921,173.372981 86.0726872,196.346549 120.169604,196.346549 C126.432452,196.346549 132.790749,195.575624 139.134361,193.95301 C180.015419,183.50514 204.692364,141.919236 194.215125,101.045521 C185.345815,66.4566814 154.347283,43.4757709 120.257709,43.4757709 M120.257709,51.339207 C151.520558,51.339207 178.803965,72.5800294 186.601322,102.991189 C191.146109,120.722467 188.510279,139.151248 179.178414,154.900147 C169.846549,170.641703 154.927313,181.809104 137.188693,186.346549 C131.601322,187.763583 125.881791,188.490455 120.169604,188.490455 C88.8406755,188.490455 61.5352423,167.271659 53.7819383,136.882526 C49.2444934,119.114537 51.8876652,100.66373 61.2195301,84.9221733 C70.551395,69.1732746 85.4779736,58.0058737 103.23862,53.4831131 C108.833333,52.0587372 114.552863,51.339207 120.257709,51.339207" id="Fill-133"></path>
            <path d="M168.709251,189.831131 C168.606461,189.904552 168.518355,189.992658 168.415565,190.073421 C160.390602,195.587372 151.271659,199.816446 141.286344,202.371512 C137.967695,203.215859 134.641703,203.832599 131.330396,204.273128 C130.625551,204.368576 129.920705,204.441997 129.215859,204.508076 C128.36417,204.610866 127.50514,204.69163 126.653451,204.757709 C125.948605,204.809104 125.251101,204.860499 124.546256,204.89721 C123.518355,204.955947 122.490455,204.977974 121.462555,204.992658 C116.007342,205.073421 110.559471,204.647577 105.060206,203.656388 C92.9089574,201.446402 81.4405286,196.637298 71.4405286,189.654919 C69.4361233,188.245228 67.4904552,186.769457 65.6255507,185.212922 C65.6255507,185.20558 65.6108664,185.198238 65.6035242,185.190896 C63.6872247,183.582966 61.8370044,181.901615 60.0602056,180.132159 C60.030837,180.088106 59.9867841,180.044053 59.9500734,180.007342 C58.195301,178.25257 56.5286344,176.424376 54.928047,174.515419 C54.9060206,174.48605 54.8839941,174.464023 54.8693098,174.434655 C53.2687225,172.518355 51.7415565,170.528634 50.3024963,168.465492 C44.671072,160.352423 40.339207,151.116006 37.7547724,140.976505 C37.0792952,138.325991 36.5433186,135.675477 36.1321586,133.024963 C36.0807636,132.709251 36.0293686,132.400881 35.9779736,132.077827 C35.8311307,131.035242 35.6989721,129.992658 35.5888399,128.942731 C35.5521292,128.604993 35.5080764,128.274596 35.4713656,127.929515 C35.3538913,126.651982 35.2584435,125.381791 35.1923642,124.111601 C35.185022,124.038179 35.185022,123.9721 35.1776799,123.891336 C35.1116006,122.511013 35.0748899,121.116006 35.082232,119.735683 C35.082232,119.508076 35.0969163,119.28047 35.0969163,119.052863 C35.1042584,118.002937 35.133627,116.960352 35.1776799,115.932452 C35.2217327,114.992658 35.2951542,114.045521 35.3685756,113.091043 C35.3906021,112.804699 35.4126285,112.511013 35.4419971,112.209985 C35.5447871,111.057269 35.6769457,109.904552 35.8311307,108.737151 C35.8384728,108.66373 35.845815,108.582966 35.8604993,108.502203 C36.0220264,107.298091 36.2129222,106.101322 36.4258443,104.911894 C38.5991189,92.7606461 43.3861968,81.3069016 50.339207,71.3069016 C56.154185,62.9662261 63.3274596,55.7929515 71.6754772,49.9853157 C71.7782673,49.9118943 71.8590308,49.8237885 71.9544787,49.7503671 C80.0014684,44.2290749 89.1350954,40 99.1497797,37.4449339 C102.556535,36.5785609 105.970631,35.9471366 109.370044,35.4992658 C109.781204,35.4478708 110.185022,35.4111601 110.596182,35.3671072 C111.785609,35.2276065 112.975037,35.1101322 114.157122,35.0293686 C114.649046,34.9926579 115.133627,34.9632893 115.618209,34.9339207 C117.035242,34.8531571 118.437592,34.8017621 119.839941,34.8017621 C124.986784,34.7723935 130.126285,35.2276065 135.309838,36.1527166 C147.556535,38.3700441 159.113069,43.2452276 169.164464,50.3230543 C170.860499,51.5198238 172.497797,52.7826725 174.098385,54.0895742 C174.56094,54.4713656 175.016153,54.8604993 175.478708,55.2496329 C177.005874,56.5565345 178.488987,57.9001468 179.913363,59.3098385 C180.309838,59.7063142 180.69163,60.10279 181.080764,60.4992658 C182.417034,61.8722467 183.701909,63.2745962 184.942731,64.7283407 C185.331865,65.1835536 185.713656,65.6461087 186.095448,66.1086637 C187.270191,67.5550661 188.400881,69.0381791 189.487518,70.5580029 C195.405286,78.8839941 199.935389,88.3994126 202.629956,98.8913363 C204.773862,107.290749 205.58884,115.71953 205.207048,123.950073 C205.170338,124.845815 205.096916,125.741557 205.030837,126.651982 C205.001468,126.967695 204.979442,127.290749 204.957416,127.599119 C204.839941,128.788546 204.715125,129.985316 204.553598,131.167401 C204.546256,131.204112 204.546256,131.240822 204.538913,131.270191 C204.370044,132.503671 204.179148,133.729809 203.958884,134.955947 C201.770925,147.114537 196.969163,158.575624 190.001468,168.582966 C184.193833,176.886931 177.035242,184.045521 168.709251,189.831131 M235.229075,138.164464 L220.353891,131.659325 C221.014684,125.910426 221.20558,120.10279 220.860499,114.28047 C220.831131,113.810573 220.779736,113.340675 220.750367,112.885463 C220.662261,111.600587 220.552129,110.323054 220.412628,109.038179 C220.375918,108.751836 220.361233,108.465492 220.331865,108.171806 L235.155653,101.681351 C238.606461,100.176211 240.493392,96.4243759 239.66373,92.753304 L239.487518,91.938326 C239.311307,91.1674009 239.142438,90.3964758 238.9442,89.6182085 C235.765051,77.2173275 230.706314,65.4478708 223.907489,54.6328928 C221.903084,51.4390602 217.901615,50.1248164 214.399413,51.4977974 L199.296623,57.4008811 C198.679883,56.6079295 198.011747,55.8590308 197.358297,55.0954479 C197.093979,54.7723935 196.829662,54.4493392 196.565345,54.1409692 C195.845815,53.3039648 195.126285,52.4889868 194.384728,51.6886931 C194.002937,51.2701909 193.613803,50.866373 193.22467,50.4625551 C192.093979,49.2731278 190.933921,48.113069 189.751836,46.9750367 C189.164464,46.4096916 188.577093,45.8516887 187.975037,45.3010279 C187.350954,44.7356828 186.712188,44.1776799 186.073421,43.6270191 C185.339207,42.9955947 184.590308,42.3641703 183.834068,41.7547724 C183.452276,41.4390602 183.092511,41.1086637 182.703377,40.8076358 L188.599119,25.7048458 C189.979442,22.195301 188.665198,18.2085169 185.478708,16.1967695 C173.716593,8.7958884 160.904552,3.46549192 147.395007,0.381791483 C143.709251,-0.462555066 139.964758,1.43171806 138.452276,4.88986784 L131.939794,19.7650514 C130.096916,19.5521292 128.239354,19.3906021 126.374449,19.2731278 L125.809104,19.2437592 C123.966226,19.1409692 122.13069,19.0748899 120.265786,19.0748899 L120.265786,19.082232 L120.265786,19.0748899 L120.258443,19.0748899 C119.935389,19.0748899 119.604993,19.1042584 119.281938,19.1042584 C117.578561,19.1189427 115.875184,19.1629956 114.171806,19.2657856 C113.444934,19.3024963 112.732746,19.3979442 112.005874,19.4566814 C110.831131,19.5521292 109.649046,19.6328928 108.452276,19.7723935 L101.954479,4.91189427 C100.441997,1.46108664 96.6828194,-0.43318649 93.0044053,0.403817915 L92.1160059,0.594713656 C91.3671072,0.763582966 90.6182085,0.925110132 89.8839941,1.11600587 C77.4684288,4.2804699 65.7063142,9.31718062 54.8913363,16.1086637 C51.6975037,18.1204112 50.3759178,22.1145374 51.7562408,25.6240822 L57.6740088,40.7709251 C51.5359765,45.6093979 45.9706314,51.1820852 41.0807636,57.4008811 L25.948605,51.4831131 C22.4390602,50.10279 18.4375918,51.4243759 16.4331865,54.6182085 C9.03964758,66.3729809 3.73127753,79.1923642 0.654919236,92.7092511 C-0.189427313,96.3876652 1.71218796,100.139501 5.16299559,101.651982 L20.0455213,108.164464 C19.3700441,113.964758 19.1864905,119.823789 19.5389134,125.697504 C19.5462555,125.807636 19.5535977,125.92511 19.5682819,126.035242 C19.671072,127.709251 19.8179148,129.38326 20.0088106,131.049927 C20.030837,131.255507 20.0381791,131.446402 20.0602056,131.64464 L5.2143906,138.142438 C1.75624082,139.654919 -0.130690162,143.406755 0.6989721,147.085169 L0.897209985,147.951542 C1.0660793,148.729809 1.24229075,149.500734 1.43318649,150.256975 C4.59030837,162.643172 9.63436123,174.405286 16.4331865,185.20558 C18.4375918,188.39207 22.4243759,189.706314 25.948605,188.333333 L41.0734214,182.422907 C45.9632893,188.612335 51.5433186,194.170338 57.681351,199.030837 L51.7782673,214.126285 C50.4052863,217.628488 51.7268722,221.629956 54.9133627,223.634361 C66.6681351,231.035242 79.4875184,236.343612 92.9970631,239.427313 C93.5770925,239.574156 94.164464,239.632893 94.7444934,239.632893 C97.8135095,239.632893 100.669604,237.826725 101.939794,234.933921 L108.452276,220.051395 C110.331865,220.271659 112.226138,220.433186 114.135095,220.550661 C114.25257,220.558003 114.377386,220.572687 114.502203,220.572687 C116.381791,220.675477 118.268722,220.748899 120.170338,220.748899 C121.580029,220.748899 122.997063,220.675477 124.414097,220.61674 C124.979442,220.587372 125.537445,220.587372 126.10279,220.572687 C127.446402,220.477239 128.782673,220.337739 130.118943,220.20558 C130.728341,220.139501 131.323054,220.110132 131.932452,220.036711 L138.444934,234.926579 C139.950073,238.370044 143.701909,240.271659 147.372981,239.427313 L148.246696,239.236417 C149.017621,239.067548 149.795888,238.906021 150.574156,238.700441 C162.945668,235.550661 174.700441,230.491924 185.500734,223.700441 C188.687225,221.696035 190.008811,217.701909 188.63583,214.192364 L182.71072,199.052863 C188.848752,194.207048 194.414097,188.634361 199.303965,182.422907 L214.436123,188.333333 C217.95301,189.706314 221.947137,188.39207 223.951542,185.20558 C231.352423,173.443465 236.660793,160.61674 239.737151,147.114537 C240.574156,143.436123 238.687225,139.676946 235.229075,138.164464" id="Fill-134"></path>
        </g>
    </g>
</svg>