<?xml version="1.0" encoding="UTF-8"?>
<svg width="582px" height="285px" viewBox="0 0 582 285" version="1.1" xmlns="http://www.w3.org/2000/svg" xmlns:xlink="http://www.w3.org/1999/xlink">
    <!-- Generator: Sketch 50 (54983) - http://www.bohemiancoding.com/sketch -->
    <title>GMS</title>
    <desc>Created with Sketch.</desc>
    <defs>
        <polygon id="path-1" points="0 0.599535623 585.742418 0.599535623 585.742418 290.290969 0 290.290969"></polygon>
    </defs>
    <g id="Page-2" stroke="none" stroke-width="1" fill="none" fill-rule="evenodd">
        <g id="GMS" transform="translate(-2.000000, -3.000000)">
            <g id="Group-6" transform="translate(0.000000, 0.116094)">
                <path d="M29.3607159,287.867041 C14.5067964,287.867041 2.42495447,275.836001 2.42495447,261.037028 L2.42495447,29.8504216 C2.42495447,15.0575584 14.5067964,3.02040816 29.3607159,3.02040816 L556.380475,3.02040816 C571.228262,3.02040816 583.310104,15.0575584 583.310104,29.8504216 L583.310104,261.037028 C583.310104,275.836001 571.228262,287.867041 556.380475,287.867041 L29.3607159,287.867041 Z" id="Fill-1" fill="#46AFE8"></path>
                <g id="Group-5">
                    <mask id="mask-2" fill="white">
                        <use xlink:href="#path-1"></use>
                    </mask>
                    <g id="Clip-4"></g>
                </g>
            </g>
            <path d="M74.3159027,240.460383 C74.562227,240.692879 74.6853872,241.015786 74.6853872,241.429114 L74.6853872,251.077673 C74.6853872,251.697664 74.5881554,252.16265 74.3936889,252.472646 C74.1992224,252.782641 73.8427059,253.028051 73.3241285,253.208881 C72.2869739,253.648042 71.0294427,253.996781 69.5514973,254.255111 C68.073552,254.51344 66.5956287,254.642603 65.1176833,254.642603 C62.3951524,254.642603 60.0486252,254.087203 58.0780313,252.976386 C56.1074375,251.865569 54.5971036,250.26395 53.5469846,248.171481 C52.4968655,246.079011 51.9718138,243.573253 51.9718138,240.654129 C51.9718138,237.786671 52.4903833,235.306745 53.527538,233.214276 C54.5646927,231.121806 56.0555801,229.513729 58.0002451,228.389996 C59.9449101,227.266262 62.2266161,226.704404 64.8454316,226.704404 C66.6604523,226.704404 68.3458033,226.982104 69.9015353,227.537512 C71.4572673,228.092921 72.7666554,228.887272 73.8297389,229.92059 C74.2705296,230.359751 74.4909217,230.811821 74.4909217,231.276814 C74.4909217,231.638475 74.3872078,231.954924 74.1797769,232.22617 C73.9723459,232.497416 73.7130611,232.633037 73.4019148,232.633037 C73.0907684,232.633037 72.7277697,232.478042 72.3129078,232.168046 C70.9646068,231.134728 69.7459683,230.417874 68.6569559,230.017464 C67.5679435,229.617053 66.3104124,229.41685 64.8843247,229.41685 C61.7987896,229.41685 59.432816,230.385572 57.786333,232.323043 C56.13985,234.260515 55.3166208,237.037515 55.3166208,240.654129 C55.3166208,244.348241 56.1528142,247.157533 57.8252261,249.082088 C59.497638,251.006643 61.9543613,251.968906 65.1954696,251.968906 C67.6068541,251.968906 69.7978105,251.60725 71.7684043,250.883927 L71.7684043,242.591591 L66.090011,242.591591 C65.6492202,242.591591 65.2991858,242.475344 65.0398971,242.242848 C64.7806085,242.010351 64.6509661,241.713276 64.6509661,241.351615 C64.6509661,240.964121 64.7806085,240.660588 65.0398971,240.441008 C65.2991858,240.221428 65.6492202,240.11164 66.090011,240.11164 L73.3630216,240.11164 C73.7519546,240.11164 74.0695785,240.227886 74.3159027,240.460383 Z M81.1221961,254.119488 C80.8240142,253.848242 80.6749254,253.467212 80.6749254,252.976386 L80.6749254,228.370621 C80.6749254,227.879795 80.8240142,227.498765 81.1221961,227.227519 C81.4203781,226.956273 81.8028231,226.820652 82.2695427,226.820652 C82.7103335,226.820652 83.0798143,226.956273 83.3779962,227.227519 C83.6761782,227.498765 83.8252669,227.879795 83.8252669,228.370621 L83.8252669,252.976386 C83.8252669,253.467212 83.6761782,253.848242 83.3779962,254.119488 C83.0798143,254.390734 82.7103335,254.526355 82.2695427,254.526355 C81.8028231,254.526355 81.4203781,254.390734 81.1221961,254.119488 Z M92.8290208,253.402628 C91.4677553,252.601806 90.417652,251.458715 89.6786793,249.97332 C88.9397066,248.487925 88.5702258,246.763602 88.5702258,244.800297 C88.5702258,242.836993 88.9397066,241.112669 89.6786793,239.627274 C90.417652,238.141879 91.4677553,236.998788 92.8290208,236.197967 C94.1902863,235.397145 95.7654413,234.99674 97.5545331,234.99674 C99.3436249,234.99674 100.925262,235.397145 102.299492,236.197967 C103.673722,236.998788 104.730307,238.141879 105.46928,239.627274 C106.208253,241.112669 106.577733,242.836993 106.577733,244.800297 C106.577733,246.763602 106.208253,248.487925 105.46928,249.97332 C104.730307,251.458715 103.673722,252.601806 102.299492,253.402628 C100.925262,254.203449 99.3436249,254.603854 97.5545331,254.603854 C95.7654413,254.603854 94.1902863,254.203449 92.8290208,253.402628 Z M101.852221,250.167066 C102.850483,248.940001 103.349606,247.151096 103.349606,244.800297 C103.349606,242.501164 102.844,240.725175 101.832775,239.472277 C100.821549,238.219379 99.3954826,237.592939 97.5545331,237.592939 C95.7135836,237.592939 94.2875173,238.219379 93.2762915,239.472277 C92.2650657,240.725175 91.7594604,242.501164 91.7594604,244.800297 C91.7594604,247.125263 92.2585836,248.90771 93.2568449,250.147692 C94.2551063,251.387674 95.6876547,252.007655 97.5545331,252.007655 C99.4214115,252.007655 100.85396,251.394132 101.852221,250.167066 Z M125.207531,236.197967 C126.478045,236.998788 127.463327,238.135421 128.163407,239.607899 C128.863486,241.080378 129.213521,242.785327 129.213521,244.722799 C129.213521,246.686103 128.863486,248.410427 128.163407,249.895822 C127.463327,251.381217 126.478045,252.537224 125.207531,253.363878 C123.937016,254.190533 122.472057,254.603854 120.81261,254.603854 C119.334665,254.603854 118.044723,254.280947 116.942746,253.635123 C115.840769,252.989299 115.004576,252.072243 114.434141,250.883927 L114.434141,252.976386 C114.434141,253.441379 114.298016,253.815951 114.025763,254.100114 C113.75351,254.384276 113.371065,254.526355 112.878417,254.526355 C112.385768,254.526355 111.996841,254.384276 111.711623,254.100114 C111.426406,253.815951 111.283799,253.441379 111.283799,252.976386 L111.283799,228.331872 C111.283799,227.892712 111.426406,227.531056 111.711623,227.246893 C111.996841,226.962731 112.385768,226.820652 112.878417,226.820652 C113.371065,226.820652 113.75351,226.956273 114.025763,227.227519 C114.298016,227.498765 114.434141,227.866879 114.434141,228.331872 L114.434141,238.716667 C115.004576,237.528351 115.840769,236.611295 116.942746,235.965471 C118.044723,235.319647 119.334665,234.99674 120.81261,234.99674 C122.472057,234.99674 123.937016,235.397145 125.207531,236.197967 Z M124.468562,250.089568 C125.479788,248.810837 125.985393,247.021932 125.985393,244.722799 C125.985393,242.475332 125.479788,240.731634 124.468562,239.491652 C123.457336,238.25167 122.03127,237.631688 120.19032,237.631688 C118.349371,237.631688 116.929787,238.25167 115.931525,239.491652 C114.933264,240.731634 114.434141,242.501164 114.434141,244.800297 C114.434141,247.09943 114.933264,248.875419 115.931525,250.128317 C116.929787,251.381215 118.349371,252.007655 120.19032,252.007655 C122.03127,252.007655 123.457336,251.368299 124.468562,250.089568 Z M148.776753,242.436594 L148.776753,252.976386 C148.776753,253.441379 148.640628,253.815951 148.368375,254.100114 C148.096122,254.384276 147.726641,254.526355 147.259921,254.526355 C146.793202,254.526355 146.417239,254.384276 146.132021,254.100114 C145.846804,253.815951 145.704197,253.441379 145.704197,252.976386 L145.704197,251.116423 C145.211549,252.22724 144.459623,253.086172 143.448397,253.693247 C142.437171,254.300321 141.27039,254.603854 139.948018,254.603854 C138.729361,254.603854 137.607954,254.358445 136.583764,253.867618 C135.559574,253.376792 134.749309,252.692229 134.152945,251.813909 C133.556581,250.935588 133.258404,249.966867 133.258404,248.907716 C133.258404,247.486904 133.621402,246.382562 134.347411,245.594656 C135.073419,244.806751 136.266129,244.238435 137.925576,243.88969 C139.585024,243.540945 141.892658,243.366575 144.848549,243.366575 L145.704197,243.366575 L145.704197,242.087851 C145.704197,240.537873 145.386573,239.401241 144.751316,238.677918 C144.116059,237.954595 143.085402,237.592939 141.659314,237.592939 C139.896151,237.592939 138.107086,238.070842 136.292066,239.026661 C135.591986,239.465821 135.099345,239.685398 134.814128,239.685398 C134.502981,239.685398 134.243697,239.569151 134.036266,239.336655 C133.828835,239.104158 133.725121,238.807084 133.725121,238.445422 C133.725121,238.083761 133.835317,237.767312 134.055712,237.496066 C134.276108,237.22482 134.632624,236.94712 135.125273,236.662958 C136.032783,236.146298 137.06344,235.739436 138.217275,235.442357 C139.371109,235.145278 140.518444,234.99674 141.659314,234.99674 C146.404297,234.99674 148.776753,237.476667 148.776753,242.436594 Z M144.206813,250.554559 C145.205074,249.508324 145.704197,248.158573 145.704197,246.505264 L145.704197,245.381536 L145.004121,245.381536 C142.722381,245.381536 140.985173,245.478408 139.792445,245.672155 C138.599717,245.865902 137.75056,246.188809 137.244947,246.640886 C136.739334,247.092963 136.486531,247.758151 136.486531,248.636472 C136.486531,249.643957 136.856012,250.477057 137.594985,251.135797 C138.333958,251.794538 139.260901,252.123903 140.375842,252.123903 C141.931574,252.123903 143.208551,251.600793 144.206813,250.554559 Z M154.980203,254.119488 C154.682021,253.848242 154.532932,253.467212 154.532932,252.976386 L154.532932,228.370621 C154.532932,227.879795 154.682021,227.498765 154.980203,227.227519 C155.278385,226.956273 155.66083,226.820652 156.127549,226.820652 C156.56834,226.820652 156.937821,226.956273 157.236003,227.227519 C157.534185,227.498765 157.683274,227.879795 157.683274,228.370621 L157.683274,252.976386 C157.683274,253.467212 157.534185,253.848242 157.236003,254.119488 C156.937821,254.390734 156.56834,254.526355 156.127549,254.526355 C155.66083,254.526355 155.278385,254.390734 154.980203,254.119488 Z M199.551701,227.266268 C199.823955,227.563347 199.960079,227.957293 199.960079,228.448119 L199.960079,252.976386 C199.960079,253.441379 199.830437,253.815951 199.571148,254.100114 C199.311859,254.384276 198.948861,254.526355 198.482141,254.526355 C198.015421,254.526355 197.665387,254.384276 197.432027,254.100114 C197.198667,253.815951 197.081989,253.441379 197.081989,252.976386 L197.081989,233.175526 L188.642185,249.295209 C188.279181,250.044364 187.747647,250.418936 187.047568,250.418936 C186.373418,250.418936 185.841884,250.044364 185.452951,249.295209 L176.974254,233.369272 L176.974254,252.976386 C176.974254,253.441379 176.851094,253.815951 176.604769,254.100114 C176.358445,254.384276 176.001929,254.526355 175.535209,254.526355 C175.068489,254.526355 174.705491,254.384276 174.446202,254.100114 C174.186913,253.815951 174.057271,253.441379 174.057271,252.976386 L174.057271,228.448119 C174.057271,227.957293 174.199878,227.563347 174.485095,227.266268 C174.770313,226.969189 175.15924,226.820652 175.651888,226.820652 C176.30011,226.820652 176.818679,227.195224 177.207612,227.944379 L187.086461,246.815257 L196.848631,227.944379 C197.056062,227.531052 197.282936,227.240436 197.52926,227.072522 C197.775584,226.904607 198.06728,226.820652 198.404355,226.820652 C198.897003,226.820652 199.279448,226.969189 199.551701,227.266268 Z M221.156821,242.436594 L221.156821,252.976386 C221.156821,253.441379 221.020697,253.815951 220.748444,254.100114 C220.476191,254.384276 220.10671,254.526355 219.63999,254.526355 C219.173271,254.526355 218.797308,254.384276 218.51209,254.100114 C218.226873,253.815951 218.084266,253.441379 218.084266,252.976386 L218.084266,251.116423 C217.591618,252.22724 216.839692,253.086172 215.828466,253.693247 C214.81724,254.300321 213.650459,254.603854 212.328086,254.603854 C211.10943,254.603854 209.988023,254.358445 208.963833,253.867618 C207.939643,253.376792 207.129378,252.692229 206.533014,251.813909 C205.93665,250.935588 205.638472,249.966867 205.638472,248.907716 C205.638472,247.486904 206.001471,246.382562 206.727479,245.594656 C207.453488,244.806751 208.646198,244.238435 210.305645,243.88969 C211.965092,243.540945 214.272727,243.366575 217.228618,243.366575 L218.084266,243.366575 L218.084266,242.087851 C218.084266,240.537873 217.766642,239.401241 217.131385,238.677918 C216.496128,237.954595 215.465471,237.592939 214.039383,237.592939 C212.27622,237.592939 210.487155,238.070842 208.672135,239.026661 C207.972055,239.465821 207.479414,239.685398 207.194197,239.685398 C206.88305,239.685398 206.623765,239.569151 206.416334,239.336655 C206.208904,239.104158 206.10519,238.807084 206.10519,238.445422 C206.10519,238.083761 206.215386,237.767312 206.435781,237.496066 C206.656176,237.22482 207.012693,236.94712 207.505341,236.662958 C208.412852,236.146298 209.443509,235.739436 210.597343,235.442357 C211.751178,235.145278 212.898513,234.99674 214.039383,234.99674 C218.784366,234.99674 221.156821,237.476667 221.156821,242.436594 Z M216.586881,250.554559 C217.585143,249.508324 218.084266,248.158573 218.084266,246.505264 L218.084266,245.381536 L217.38419,245.381536 C215.10245,245.381536 213.365242,245.478408 212.172514,245.672155 C210.979786,245.865902 210.130629,246.188809 209.625016,246.640886 C209.119403,247.092963 208.8666,247.758151 208.8666,248.636472 C208.8666,249.643957 209.236081,250.477057 209.975054,251.135797 C210.714026,251.794538 211.640969,252.123903 212.755911,252.123903 C214.311643,252.123903 215.58862,251.600793 216.586881,250.554559 Z M243.248105,242.475343 L243.248105,252.976386 C243.248105,253.467212 243.111981,253.848242 242.839727,254.119488 C242.567474,254.390734 242.185029,254.526355 241.692381,254.526355 C241.199732,254.526355 240.810805,254.390734 240.525588,254.119488 C240.24037,253.848242 240.097764,253.467212 240.097764,252.976386 L240.097764,242.669089 C240.097764,240.912448 239.754211,239.633736 239.067096,238.832915 C238.379981,238.032093 237.284503,237.631688 235.780629,237.631688 C234.043395,237.631688 232.656221,238.161256 231.619067,239.220407 C230.581912,240.279558 230.063342,241.713266 230.063342,243.521572 L230.063342,252.976386 C230.063342,253.467212 229.927218,253.848242 229.654965,254.119488 C229.382712,254.390734 229.000267,254.526355 228.507618,254.526355 C228.01497,254.526355 227.626043,254.390734 227.340825,254.119488 C227.055608,253.848242 226.913001,253.467212 226.913001,252.976386 L226.913001,236.624208 C226.913001,236.159215 227.055608,235.784643 227.340825,235.50048 C227.626043,235.216318 228.01497,235.074239 228.507618,235.074239 C228.974338,235.074239 229.343819,235.216318 229.616072,235.50048 C229.888325,235.784643 230.024449,236.146299 230.024449,236.585459 L230.024449,238.56167 C230.646742,237.399187 231.515346,236.514422 232.630287,235.907347 C233.745229,235.300273 235.015724,234.99674 236.441812,234.99674 C240.979363,234.99674 243.248105,237.489583 243.248105,242.475343 Z M263.861451,242.436594 L263.861451,252.976386 C263.861451,253.441379 263.725326,253.815951 263.453073,254.100114 C263.18082,254.384276 262.811339,254.526355 262.34462,254.526355 C261.8779,254.526355 261.501937,254.384276 261.21672,254.100114 C260.931502,253.815951 260.788896,253.441379 260.788896,252.976386 L260.788896,251.116423 C260.296247,252.22724 259.544321,253.086172 258.533095,253.693247 C257.52187,254.300321 256.355088,254.603854 255.032716,254.603854 C253.814059,254.603854 252.692653,254.358445 251.668462,253.867618 C250.644272,253.376792 249.834007,252.692229 249.237643,251.813909 C248.641279,250.935588 248.343102,249.966867 248.343102,248.907716 C248.343102,247.486904 248.706101,246.382562 249.432109,245.594656 C250.158117,244.806751 251.350827,244.238435 253.010274,243.88969 C254.669722,243.540945 256.977356,243.366575 259.933247,243.366575 L260.788896,243.366575 L260.788896,242.087851 C260.788896,240.537873 260.471272,239.401241 259.836014,238.677918 C259.200757,237.954595 258.1701,237.592939 256.744013,237.592939 C254.98085,237.592939 253.191785,238.070842 251.376764,239.026661 C250.676685,239.465821 250.184044,239.685398 249.898826,239.685398 C249.58768,239.685398 249.328395,239.569151 249.120964,239.336655 C248.913533,239.104158 248.809819,238.807084 248.809819,238.445422 C248.809819,238.083761 248.920015,237.767312 249.140411,237.496066 C249.360806,237.22482 249.717322,236.94712 250.209971,236.662958 C251.117481,236.146298 252.148138,235.739436 253.301973,235.442357 C254.455807,235.145278 255.603142,234.99674 256.744013,234.99674 C261.488995,234.99674 263.861451,237.476667 263.861451,242.436594 Z M259.291511,250.554559 C260.289772,249.508324 260.788896,248.158573 260.788896,246.505264 L260.788896,245.381536 L260.08882,245.381536 C257.807079,245.381536 256.069871,245.478408 254.877144,245.672155 C253.684416,245.865902 252.835258,246.188809 252.329645,246.640886 C251.824032,247.092963 251.57123,247.758151 251.57123,248.636472 C251.57123,249.643957 251.94071,250.477057 252.679683,251.135797 C253.418656,251.794538 254.345599,252.123903 255.46054,252.123903 C257.016272,252.123903 258.29325,251.600793 259.291511,250.554559 Z M286.1472,235.50048 C286.432418,235.784643 286.575024,236.159215 286.575024,236.624208 L286.575024,253.053884 C286.575024,255.869676 285.849027,257.994405 284.39701,259.428134 C282.944994,260.861863 280.79293,261.578716 277.940755,261.578716 C275.166366,261.578716 272.858732,261.036233 271.017782,259.951249 C270.084343,259.434589 269.61763,258.84044 269.61763,258.168784 C269.61763,257.807122 269.714862,257.510048 269.909329,257.277551 C270.103795,257.045055 270.356598,256.928808 270.667744,256.928808 C270.927033,256.928808 271.393745,257.109636 272.067896,257.471297 C272.975406,257.936291 273.869939,258.310863 274.75152,258.595025 C275.633102,258.879188 276.683205,259.021267 277.901862,259.021267 C279.742811,259.021267 281.129985,258.536906 282.063424,257.56817 C282.996863,256.599435 283.463576,255.185102 283.463576,253.325129 L283.463576,249.992695 C282.91907,251.206844 282.082876,252.136816 280.954971,252.78264 C279.827065,253.428464 278.49823,253.751371 276.968427,253.751371 C275.30898,253.751371 273.837539,253.363882 272.55406,252.588894 C271.270581,251.813905 270.272335,250.716021 269.559291,249.295209 C268.846247,247.874396 268.48973,246.234028 268.48973,244.374056 C268.48973,242.514083 268.846247,240.873715 269.559291,239.452903 C270.272335,238.03209 271.270581,236.934206 272.55406,236.159217 C273.837539,235.384229 275.30898,234.99674 276.968427,234.99674 C278.472302,234.99674 279.78169,235.319647 280.896631,235.965471 C282.011572,236.611295 282.854248,237.528351 283.424683,238.716667 L283.424683,236.624208 C283.424683,236.159215 283.560807,235.784643 283.83306,235.50048 C284.105313,235.216318 284.487758,235.074239 284.980407,235.074239 C285.473055,235.074239 285.861983,235.216318 286.1472,235.50048 Z M281.868959,249.353332 C282.906113,248.1521 283.424683,246.492358 283.424683,244.374056 C283.424683,242.281586 282.912595,240.63476 281.888405,239.433528 C280.864215,238.232296 279.431666,237.631688 277.590717,237.631688 C275.749767,237.631688 274.304255,238.232296 273.254136,239.433528 C272.204017,240.63476 271.678965,242.281586 271.678965,244.374056 C271.678965,246.492358 272.204017,248.1521 273.254136,249.353332 C274.304255,250.554565 275.749767,251.155172 277.590717,251.155172 C279.405738,251.155172 280.831804,250.554565 281.868959,249.353332 Z M307.81066,250.302689 C308.018091,250.535185 308.121805,250.83226 308.121805,251.193921 C308.121805,251.839745 307.668056,252.433894 306.760546,252.976386 C305.827107,253.518878 304.841824,253.925741 303.80467,254.196987 C302.767515,254.468233 301.756305,254.603854 300.771008,254.603854 C297.841046,254.603854 295.526929,253.738463 293.828588,252.007655 C292.130248,250.276847 291.28109,247.887335 291.28109,244.839046 C291.28109,242.901575 291.657053,241.190167 292.40899,239.704773 C293.160927,238.219378 294.217513,237.06337 295.578778,236.236716 C296.940044,235.410061 298.48927,234.99674 300.226504,234.99674 C302.689746,234.99674 304.647347,235.79755 306.099363,237.399193 C307.55138,239.000836 308.277377,241.170772 308.277377,243.909065 C308.277377,244.425724 308.173663,244.800296 307.966232,245.032793 C307.758801,245.265289 307.421731,245.381536 306.955011,245.381536 L294.431431,245.381536 C294.664791,249.824804 296.777962,252.046404 300.771008,252.046404 C301.782233,252.046404 302.650837,251.910783 303.376846,251.639537 C304.102854,251.368291 304.880708,251.000177 305.710432,250.535184 C306.384583,250.14769 306.838331,249.953946 307.071691,249.953946 C307.356908,249.953946 307.603229,250.070192 307.81066,250.302689 Z M296.278854,238.987912 C295.280593,240.02123 294.69072,241.48077 294.509218,243.366575 L305.515966,243.366575 C305.464109,241.454937 304.984432,239.988939 304.076922,238.968537 C303.169411,237.948135 301.898916,237.437942 300.265397,237.437942 C298.60595,237.437942 297.277115,237.954594 296.278854,238.987912 Z M340.286402,242.475343 L340.286402,252.976386 C340.286402,253.467212 340.143796,253.848242 339.858578,254.119488 C339.573361,254.390734 339.197398,254.526355 338.730678,254.526355 C338.263959,254.526355 337.881514,254.390734 337.583332,254.119488 C337.28515,253.848242 337.136061,253.467212 337.136061,252.976386 L337.136061,242.552841 C337.136061,240.822034 336.824919,239.569154 336.202626,238.794166 C335.580334,238.019177 334.608016,237.631688 333.285644,237.631688 C331.703983,237.631688 330.459416,238.161256 329.551905,239.220407 C328.644395,240.279558 328.190647,241.713266 328.190647,243.521572 L328.190647,252.976386 C328.190647,253.467212 328.041558,253.848242 327.743376,254.119488 C327.445194,254.390734 327.062749,254.526355 326.596029,254.526355 C326.12931,254.526355 325.753347,254.390734 325.468129,254.119488 C325.182912,253.848242 325.040305,253.467212 325.040305,252.976386 L325.040305,242.552841 C325.040305,240.822034 324.729164,239.569154 324.106871,238.794166 C323.484578,238.019177 322.499296,237.631688 321.150995,237.631688 C319.595263,237.631688 318.357178,238.161256 317.436703,239.220407 C316.516228,240.279558 316.055998,241.713266 316.055998,243.521572 L316.055998,252.976386 C316.055998,253.467212 315.913391,253.848242 315.628174,254.119488 C315.342956,254.390734 314.966993,254.526355 314.500274,254.526355 C314.033554,254.526355 313.651109,254.390734 313.352927,254.119488 C313.054745,253.848242 312.905656,253.467212 312.905656,252.976386 L312.905656,236.624208 C312.905656,236.159215 313.054745,235.784643 313.352927,235.50048 C313.651109,235.216318 314.033554,235.074239 314.500274,235.074239 C314.941064,235.074239 315.304063,235.20986 315.589281,235.481106 C315.874498,235.752352 316.017105,236.120466 316.017105,236.585459 L316.017105,238.445422 C316.58754,237.334605 317.378358,236.482131 318.389584,235.887973 C319.40081,235.293815 320.567592,234.99674 321.889964,234.99674 C324.845855,234.99674 326.777526,236.236704 327.685036,238.716667 C328.229543,237.580017 329.059254,236.675877 330.174195,236.004221 C331.289136,235.332564 332.559632,234.99674 333.985719,234.99674 C338.186196,234.99674 340.286402,237.489583 340.286402,242.475343 Z M361.444252,250.302689 C361.651683,250.535185 361.755397,250.83226 361.755397,251.193921 C361.755397,251.839745 361.301648,252.433894 360.394138,252.976386 C359.460699,253.518878 358.475417,253.925741 357.438262,254.196987 C356.401107,254.468233 355.389897,254.603854 354.4046,254.603854 C351.474638,254.603854 349.160521,253.738463 347.46218,252.007655 C345.76384,250.276847 344.914682,247.887335 344.914682,244.839046 C344.914682,242.901575 345.290645,241.190167 346.042582,239.704773 C346.794519,238.219378 347.851105,237.06337 349.21237,236.236716 C350.573636,235.410061 352.122862,234.99674 353.860096,234.99674 C356.323339,234.99674 358.280939,235.79755 359.732955,237.399193 C361.184972,239.000836 361.910969,241.170772 361.910969,243.909065 C361.910969,244.425724 361.807255,244.800296 361.599824,245.032793 C361.392393,245.265289 361.055323,245.381536 360.588603,245.381536 L348.065024,245.381536 C348.298383,249.824804 350.411554,252.046404 354.4046,252.046404 C355.415825,252.046404 356.284429,251.910783 357.010438,251.639537 C357.736446,251.368291 358.5143,251.000177 359.344024,250.535184 C360.018175,250.14769 360.471923,249.953946 360.705283,249.953946 C360.9905,249.953946 361.236821,250.070192 361.444252,250.302689 Z M349.912446,238.987912 C348.914185,240.02123 348.324312,241.48077 348.14281,243.366575 L359.149559,243.366575 C359.097701,241.454937 358.618024,239.988939 357.710514,238.968537 C356.803003,237.948135 355.532508,237.437942 353.898989,237.437942 C352.239542,237.437942 350.910707,237.954594 349.912446,238.987912 Z M382.874353,242.475343 L382.874353,252.976386 C382.874353,253.467212 382.738228,253.848242 382.465975,254.119488 C382.193722,254.390734 381.811277,254.526355 381.318628,254.526355 C380.82598,254.526355 380.437053,254.390734 380.151835,254.119488 C379.866618,253.848242 379.724011,253.467212 379.724011,252.976386 L379.724011,242.669089 C379.724011,240.912448 379.380459,239.633736 378.693344,238.832915 C378.006229,238.032093 376.910751,237.631688 375.406876,237.631688 C373.669642,237.631688 372.282469,238.161256 371.245314,239.220407 C370.20816,240.279558 369.68959,241.713266 369.68959,243.521572 L369.68959,252.976386 C369.68959,253.467212 369.553466,253.848242 369.281212,254.119488 C369.008959,254.390734 368.626514,254.526355 368.133866,254.526355 C367.641217,254.526355 367.25229,254.390734 366.967073,254.119488 C366.681855,253.848242 366.539248,253.467212 366.539248,252.976386 L366.539248,236.624208 C366.539248,236.159215 366.681855,235.784643 366.967073,235.50048 C367.25229,235.216318 367.641217,235.074239 368.133866,235.074239 C368.600585,235.074239 368.970066,235.216318 369.242319,235.50048 C369.514572,235.784643 369.650697,236.146299 369.650697,236.585459 L369.650697,238.56167 C370.27299,237.399187 371.141594,236.514422 372.256535,235.907347 C373.371476,235.300273 374.641972,234.99674 376.068059,234.99674 C380.605611,234.99674 382.874353,237.489583 382.874353,242.475343 Z M398.74274,253.28638 C398.74274,253.72554 398.580687,254.054905 398.256576,254.274485 C397.932465,254.494066 397.446306,254.578021 396.798084,254.526355 L395.74797,254.448857 C393.673661,254.293859 392.143881,253.673878 391.158584,252.588894 C390.173287,251.50391 389.680646,249.863542 389.680646,247.667741 L389.680646,237.941682 L387.074808,237.941682 C386.634017,237.941682 386.290465,237.831894 386.044141,237.612314 C385.797817,237.392734 385.674656,237.102117 385.674656,236.740456 C385.674656,236.352962 385.797817,236.042971 386.044141,235.810474 C386.290465,235.577978 386.634017,235.461731 387.074808,235.461731 L389.680646,235.461731 L389.680646,231.083068 C389.680646,230.592241 389.823253,230.211211 390.10847,229.939965 C390.393688,229.668719 390.782615,229.533098 391.275263,229.533098 C391.741983,229.533098 392.117946,229.668719 392.403163,229.939965 C392.688381,230.211211 392.830988,230.592241 392.830988,231.083068 L392.830988,235.461731 L397.148122,235.461731 C397.562984,235.461731 397.893572,235.577978 398.139896,235.810474 C398.386221,236.042971 398.509381,236.352962 398.509381,236.740456 C398.509381,237.102117 398.386221,237.392734 398.139896,237.612314 C397.893572,237.831894 397.562984,237.941682 397.148122,237.941682 L392.830988,237.941682 L392.830988,247.822738 C392.830988,249.24355 393.122683,250.270394 393.706082,250.903302 C394.289482,251.536209 395.164568,251.891407 396.331367,251.968906 L397.381481,252.046404 C398.288991,252.123903 398.74274,252.537224 398.74274,253.28638 Z M415.525114,253.770745 C413.748987,253.189504 412.329403,252.408069 411.266319,251.426417 C410.877386,251.064755 410.682923,250.612685 410.682923,250.070193 C410.682923,249.708532 410.786637,249.392083 410.994068,249.120837 C411.201499,248.849591 411.447819,248.71397 411.733037,248.71397 C412.070112,248.71397 412.433111,248.856049 412.822044,249.140212 C415.233428,251.000184 417.981847,251.930157 421.067382,251.930157 C423.297264,251.930157 425.008544,251.503919 426.201272,250.651432 C427.394,249.798944 427.990355,248.584814 427.990355,247.009004 C427.990355,246.10485 427.705141,245.37508 427.134706,244.819672 C426.564271,244.264263 425.812345,243.818652 424.878906,243.482823 C423.945467,243.146995 422.687936,242.798255 421.106275,242.436594 C418.980108,241.945768 417.236418,241.429116 415.875152,240.886624 C414.513887,240.344132 413.411927,239.569155 412.569238,238.56167 C411.72655,237.554185 411.305213,236.236724 411.305213,234.609248 C411.305213,233.059271 411.72655,231.683687 412.569238,230.482454 C413.411927,229.281222 414.591672,228.35125 416.108511,227.692509 C417.62535,227.033769 419.356076,226.704404 421.300741,226.704404 C423.115761,226.704404 424.807594,226.982104 426.376291,227.537512 C427.944987,228.092921 429.260857,228.887272 430.323941,229.92059 C430.738803,230.333918 430.946231,230.785988 430.946231,231.276814 C430.946231,231.638475 430.842517,231.954924 430.635086,232.22617 C430.427655,232.497416 430.181334,232.633037 429.896117,232.633037 C429.610899,232.633037 429.234936,232.490958 428.768217,232.206795 C427.497702,231.173477 426.317957,230.450165 425.228944,230.036838 C424.139932,229.623511 422.830544,229.41685 421.300741,229.41685 C419.148645,229.41685 417.476258,229.862462 416.28353,230.753699 C415.090802,231.644936 414.494447,232.891357 414.494447,234.493 C414.494447,235.862147 415.019499,236.888991 416.069618,237.573565 C417.119737,238.258138 418.733785,238.858745 420.91181,239.375404 C423.271336,239.943729 425.125223,240.466839 426.473524,240.944748 C427.821825,241.422658 428.943231,242.139511 429.837777,243.095331 C430.732323,244.05115 431.179589,245.329862 431.179589,246.931505 C431.179589,248.455649 430.758252,249.798943 429.915563,250.961426 C429.072875,252.123909 427.886647,253.028048 426.356844,253.673872 C424.827041,254.319696 423.076869,254.642603 421.106275,254.642603 C419.16161,254.642603 417.301242,254.351987 415.525114,253.770745 Z M450.665035,235.112988 C451.053968,235.112988 451.404002,235.242151 451.715149,235.50048 C452.026295,235.75881 452.181866,236.081717 452.181866,236.469211 C452.181866,236.701708 452.130009,236.908368 452.026294,237.089199 L441.097331,260.571236 C440.967687,260.855399 440.779705,261.074976 440.533381,261.229973 C440.287057,261.384971 440.034254,261.462469 439.774966,261.462469 C439.386033,261.462469 439.04248,261.339764 438.744298,261.094351 C438.446116,260.848938 438.297028,260.532489 438.297028,260.144995 C438.297028,259.938331 438.348885,259.731671 438.4526,259.525007 L441.175117,253.673872 L433.474283,237.089199 C433.370567,236.908368 433.31871,236.714624 433.31871,236.507961 C433.31871,236.120466 433.493727,235.784643 433.843767,235.50048 C434.193807,235.216318 434.576252,235.074239 434.991114,235.074239 C435.250402,235.074239 435.503205,235.151737 435.749529,235.306734 C435.995853,235.461732 436.183835,235.681309 436.313479,235.965471 L442.808628,250.496435 L449.303776,236.04297 C449.588994,235.422979 450.042742,235.112988 450.665035,235.112988 Z M458.268637,254.177612 C457.192589,253.89345 456.239718,253.493045 455.409994,252.976386 C454.943274,252.666391 454.612686,252.375774 454.41822,252.104528 C454.223753,251.833282 454.126521,251.503917 454.126521,251.116423 C454.126521,250.780594 454.223753,250.502894 454.41822,250.283314 C454.612686,250.063734 454.865489,249.953946 455.176635,249.953946 C455.487782,249.953946 455.94153,250.14769 456.537894,250.535184 C457.31576,251.000177 458.087132,251.368291 458.852034,251.639537 C459.616935,251.910783 460.569807,252.046404 461.710677,252.046404 C463.110836,252.046404 464.199832,251.800995 464.977698,251.310169 C465.755564,250.819343 466.144491,250.108947 466.144491,249.178961 C466.144491,248.610636 466.001884,248.152108 465.716667,247.803363 C465.431449,247.454618 464.938808,247.144627 464.238729,246.873381 C463.538649,246.602135 462.514474,246.324435 461.166173,246.040273 C458.884433,245.549447 457.250939,244.890716 456.265642,244.064062 C455.280345,243.237407 454.787704,242.113691 454.787704,240.692878 C454.787704,239.582061 455.098846,238.600424 455.721139,237.747936 C456.343431,236.895449 457.205553,236.223802 458.30753,235.732976 C459.409507,235.24215 460.660556,234.99674 462.060715,234.99674 C463.071941,234.99674 464.050741,235.132361 464.997144,235.403607 C465.943548,235.674853 466.779741,236.055884 467.50575,236.54671 C468.387331,237.166701 468.828115,237.812515 468.828115,238.484172 C468.828115,238.82 468.724401,239.104158 468.51697,239.336655 C468.309539,239.569151 468.063219,239.685398 467.778001,239.685398 C467.466855,239.685398 467.000142,239.465821 466.377849,239.026661 C465.651841,238.561668 464.964737,238.200012 464.316515,237.941682 C463.668293,237.683353 462.86451,237.55419 461.905142,237.55419 C460.686486,237.55419 459.707686,237.825432 458.968713,238.367924 C458.22974,238.910416 457.860259,239.633728 457.860259,240.537881 C457.860259,241.106206 457.996384,241.564734 458.268637,241.913479 C458.54089,242.262224 458.994639,242.572215 459.629896,242.843461 C460.265153,243.114707 461.179132,243.379491 462.37186,243.63782 C464.135023,244.025314 465.50275,244.451552 466.475082,244.916545 C467.447415,245.381538 468.141002,245.949854 468.555863,246.621511 C468.970725,247.293168 469.178153,248.145643 469.178153,249.178961 C469.178153,250.806437 468.491048,252.11744 467.116818,253.112008 C465.742589,254.106577 463.927595,254.603854 461.671784,254.603854 C460.479056,254.603854 459.344685,254.461775 458.268637,254.177612 Z M483.879747,253.28638 C483.879747,253.72554 483.717694,254.054905 483.393583,254.274485 C483.069472,254.494066 482.583313,254.578021 481.935092,254.526355 L480.884978,254.448857 C478.810668,254.293859 477.280888,253.673878 476.295591,252.588894 C475.310294,251.50391 474.817653,249.863542 474.817653,247.667741 L474.817653,237.941682 L472.211815,237.941682 C471.771025,237.941682 471.427472,237.831894 471.181148,237.612314 C470.934824,237.392734 470.811663,237.102117 470.811663,236.740456 C470.811663,236.352962 470.934824,236.042971 471.181148,235.810474 C471.427472,235.577978 471.771025,235.461731 472.211815,235.461731 L474.817653,235.461731 L474.817653,231.083068 C474.817653,230.592241 474.96026,230.211211 475.245477,229.939965 C475.530695,229.668719 475.919622,229.533098 476.412271,229.533098 C476.87899,229.533098 477.254953,229.668719 477.540171,229.939965 C477.825388,230.211211 477.967995,230.592241 477.967995,231.083068 L477.967995,235.461731 L482.28513,235.461731 C482.699991,235.461731 483.030579,235.577978 483.276904,235.810474 C483.523228,236.042971 483.646388,236.352962 483.646388,236.740456 C483.646388,237.102117 483.523228,237.392734 483.276904,237.612314 C483.030579,237.831894 482.699991,237.941682 482.28513,237.941682 L477.967995,237.941682 L477.967995,247.822738 C477.967995,249.24355 478.25969,250.270394 478.84309,250.903302 C479.426489,251.536209 480.301575,251.891407 481.468374,251.968906 L482.518488,252.046404 C483.425998,252.123903 483.879747,252.537224 483.879747,253.28638 Z M502.392865,250.302689 C502.600296,250.535185 502.70401,250.83226 502.70401,251.193921 C502.70401,251.839745 502.250261,252.433894 501.342751,252.976386 C500.409312,253.518878 499.42403,253.925741 498.386875,254.196987 C497.34972,254.468233 496.33851,254.603854 495.353213,254.603854 C492.423251,254.603854 490.109134,253.738463 488.410794,252.007655 C486.712453,250.276847 485.863295,247.887335 485.863295,244.839046 C485.863295,242.901575 486.239258,241.190167 486.991195,239.704773 C487.743132,238.219378 488.799718,237.06337 490.160983,236.236716 C491.522249,235.410061 493.071475,234.99674 494.808709,234.99674 C497.271952,234.99674 499.229552,235.79755 500.681568,237.399193 C502.133585,239.000836 502.859582,241.170772 502.859582,243.909065 C502.859582,244.425724 502.755868,244.800296 502.548437,245.032793 C502.341006,245.265289 502.003936,245.381536 501.537217,245.381536 L489.013637,245.381536 C489.246997,249.824804 491.360167,252.046404 495.353213,252.046404 C496.364439,252.046404 497.233043,251.910783 497.959051,251.639537 C498.685059,251.368291 499.462913,251.000177 500.292637,250.535184 C500.966788,250.14769 501.420536,249.953946 501.653896,249.953946 C501.939113,249.953946 502.185434,250.070192 502.392865,250.302689 Z M490.861059,238.987912 C489.862798,240.02123 489.272925,241.48077 489.091423,243.366575 L500.098172,243.366575 C500.046314,241.454937 499.566637,239.988939 498.659127,238.968537 C497.751616,237.948135 496.481121,237.437942 494.847602,237.437942 C493.188155,237.437942 491.859321,237.954594 490.861059,238.987912 Z M534.868608,242.475343 L534.868608,252.976386 C534.868608,253.467212 534.726001,253.848242 534.440784,254.119488 C534.155566,254.390734 533.779603,254.526355 533.312884,254.526355 C532.846164,254.526355 532.463719,254.390734 532.165537,254.119488 C531.867355,253.848242 531.718266,253.467212 531.718266,252.976386 L531.718266,242.552841 C531.718266,240.822034 531.407124,239.569154 530.784832,238.794166 C530.162539,238.019177 529.190221,237.631688 527.867849,237.631688 C526.286188,237.631688 525.041621,238.161256 524.134111,239.220407 C523.2266,240.279558 522.772852,241.713266 522.772852,243.521572 L522.772852,252.976386 C522.772852,253.467212 522.623763,253.848242 522.325581,254.119488 C522.027399,254.390734 521.644954,254.526355 521.178235,254.526355 C520.711515,254.526355 520.335552,254.390734 520.050335,254.119488 C519.765117,253.848242 519.62251,253.467212 519.62251,252.976386 L519.62251,242.552841 C519.62251,240.822034 519.311369,239.569154 518.689076,238.794166 C518.066783,238.019177 517.081501,237.631688 515.7332,237.631688 C514.177468,237.631688 512.939383,238.161256 512.018908,239.220407 C511.098434,240.279558 510.638203,241.713266 510.638203,243.521572 L510.638203,252.976386 C510.638203,253.467212 510.495597,253.848242 510.210379,254.119488 C509.925162,254.390734 509.549199,254.526355 509.082479,254.526355 C508.615759,254.526355 508.233314,254.390734 507.935132,254.119488 C507.63695,253.848242 507.487862,253.467212 507.487862,252.976386 L507.487862,236.624208 C507.487862,236.159215 507.63695,235.784643 507.935132,235.50048 C508.233314,235.216318 508.615759,235.074239 509.082479,235.074239 C509.52327,235.074239 509.886268,235.20986 510.171486,235.481106 C510.456703,235.752352 510.59931,236.120466 510.59931,236.585459 L510.59931,238.445422 C511.169745,237.334605 511.960564,236.482131 512.97179,235.887973 C513.983015,235.293815 515.149797,234.99674 516.472169,234.99674 C519.42806,234.99674 521.359731,236.236704 522.267242,238.716667 C522.811748,237.580017 523.641459,236.675877 524.7564,236.004221 C525.871342,235.332564 527.141837,234.99674 528.567925,234.99674 C532.768401,234.99674 534.868608,237.489583 534.868608,242.475343 Z" id="Global-Management-System-" fill="#FFFFFF"></path>
            <g id="Group-59" transform="translate(202.386185, 27.667237)">
                <path d="M166.297049,141.085788 C140.348687,179.513015 88.7156777,192.313944 47.3920984,169.321154 C5.55948718,146.047293 -10.4658189,94.544177 9.90159079,52.059758" id="Stroke-7" stroke="#FFFFFF" stroke-width="7.5" stroke-linecap="round"></path>
                <polygon id="Fill-9" fill="#FFFFFF" points="149.67133 146.259318 165.19987 142.703165 168.756961 158.174264 173.835014 150.102652 170.271791 134.637663 154.749384 138.187706"></polygon>
                <path d="M16.5558032,40.4521569 C42.5041654,2.02492973 94.1433072,-10.7698888 135.454621,12.2167909 C177.489618,35.6006355 193.471994,87.4764756 172.669147,130.070879" id="Stroke-11" stroke="#FFFFFF" stroke-width="7.5" stroke-linecap="round"></path>
                <polygon id="Fill-13" fill="#FFFFFF" points="33.1815217 35.2786264 17.6529817 38.8347794 14.0958912 23.3636808 9.01170487 31.4352927 12.5749283 46.9002811 28.1034683 43.3502383"></polygon>
                <path d="M137.596848,105.581694 C137.866696,103.100941 138.013886,100.595747 138.013886,98.047782 C138.013886,90.0556031 136.965158,82.7355493 134.996492,76.2648173 C131.770579,80.2975681 127.318083,83.8353904 121.976314,86.6522058 C123.000511,92.2430649 123.552473,98.1455456 123.552473,104.182451 C123.552473,109.082855 123.190631,113.842723 122.522143,118.394843 C128.458805,114.979225 133.585922,110.622632 137.596848,105.581694" id="Fill-15" fill="#FFFFFF"></path>
                <path d="M109.124178,49.4146401 C109.124178,43.8482219 100.844743,38.9600391 91.4245861,38.9600391 C81.9921633,38.9600391 73.7188613,43.8482219 73.7188613,49.4146401 C73.7188613,54.9810583 81.9921633,59.8631309 91.4245861,59.8631309 C100.844743,59.8631309 109.124178,54.9810583 109.124178,49.4146401" id="Fill-17" fill="#FFFFFF"></path>
                <path d="M58.707326,138.421728 C61.9271062,140.62752 65.3799372,142.515581 69.0167556,144.037028 C65.5884563,138.415618 62.9881005,131.596603 61.3444793,123.995478 C55.8371219,121.258096 50.8755939,117.793596 46.6561486,113.742515 C48.8210675,122.96896 52.8994558,131.413296 58.6705285,138.366736 L58.707326,138.421728" id="Fill-19" fill="#FFFFFF"></path>
                <path d="M89.1866855,34.9211781 L89.1866855,33.0648906 C83.900113,33.3044116 78.7852622,34.412196 73.9525254,36.2834535 C75.5716149,36.6726751 77.1293752,37.3014176 78.6074076,38.1921361 C81.6493333,36.410699 85.267753,35.2505194 89.1866855,34.9211781" id="Fill-21" fill="#FFFFFF"></path>
                <path d="M142.49582,97.9830136 C145.433486,92.2271783 147.089373,85.8786509 147.089373,79.2062813 C147.089373,77.1410241 146.929917,75.106318 146.623272,73.1082732 C145.169771,68.6050348 143.164308,64.3400953 140.711142,60.3867775 C140.717275,60.5639741 140.741806,60.7472809 140.741806,60.9305878 C140.741806,64.6089454 139.809603,68.1589881 138.110786,71.470732 C140.956458,79.1696199 142.489687,88.1088843 142.49582,97.9830136" id="Fill-23" fill="#FFFFFF"></path>
                <path d="M108.90278,36.2846755 C104.06391,34.4134181 98.955192,33.3056336 93.6686196,33.0661127 L93.6686196,34.9224001 C97.5875521,35.2442564 101.199839,36.4119211 104.247897,38.1933582 C105.719797,37.3026396 107.277557,36.6738971 108.90278,36.2846755" id="Fill-25" fill="#FFFFFF"></path>
                <path d="M88.9708069,130.882317 C80.9734861,130.601246 73.3870706,128.988146 66.4936745,126.287425 C68.5543339,134.157399 71.7434495,140.964194 75.8954328,146.084566 C75.9996923,146.20677 76.0855531,146.341195 76.1530152,146.48173 C80.262068,147.599902 84.5489754,148.284248 88.9708069,148.467555 L88.9708069,130.882317 Z" id="Fill-27" fill="#FFFFFF"></path>
                <path d="M49.4300659,51.0045216 C47.5963244,54.0962972 46.5905264,57.4385922 46.5905264,60.9275327 C46.5905264,62.5650739 46.8174443,64.172064 47.2467483,65.7362825 C52.4351941,55.3977759 60.3711858,47.9127459 70.5518242,44.3504827 C70.5579571,44.3443725 70.5702229,44.3443725 70.5824887,44.3382623 C71.3736347,42.8595869 72.5020911,41.4908958 73.9126614,40.2749603 C69.9998619,39.2912135 65.3940429,39.920567 60.1565338,42.1691311 C56.2314683,44.680435 52.6314474,47.6500061 49.4300659,51.0045216" id="Fill-29" fill="#FFFFFF"></path>
                <path d="M36.2062752,73.1748747 C35.9057624,75.1484786 35.7585725,77.164854 35.7585725,79.2117805 C35.7585725,85.8902603 37.4021936,92.244898 40.3643914,98.0007332 C40.3643914,88.1204937 41.8976201,79.1873396 44.7432925,71.4823414 C43.0383422,68.1644874 42.1061392,64.6144446 42.1061392,60.9299768 C42.1061392,60.7588904 42.1368038,60.5755835 42.1368038,60.4044971 C39.6652391,64.3761457 37.659776,68.6533056 36.2062752,73.1748747" id="Fill-31" fill="#FFFFFF"></path>
                <path d="M88.9708069,64.2362214 C84.1993993,63.875718 79.8879602,62.5009165 76.5087242,60.4356593 C76.453528,60.533423 76.3983318,60.6250764 76.3247368,60.7167298 C71.6023925,66.5825492 68.039169,74.813027 65.9294464,84.2227789 C72.5407284,87.1251375 80.4460555,88.9154344 88.9708069,89.2026152 L88.9708069,64.2362214 Z" id="Fill-33" fill="#FFFFFF"></path>
                <path d="M40.9378189,107.321276 C37.6751083,102.989124 35.1667462,98.1987046 33.5108592,93.102774 C34.032157,106.09312 38.8587609,117.989735 46.6352967,127.405597 C43.7834914,121.167054 41.8332245,114.409141 40.9378189,107.321276" id="Fill-35" fill="#FFFFFF"></path>
                <path d="M47.8551334,76.2721496 C45.8864678,82.7367714 44.8377394,90.0568251 44.8377394,98.0428938 C44.8377394,100.590859 44.9849294,103.108273 45.2609105,105.595136 C49.2657038,110.636075 54.3866876,114.986557 60.3356149,118.389955 C59.6609942,113.843945 59.2991523,109.084077 59.2991523,104.183673 C59.2991523,98.1467677 59.8511146,92.2442869 60.8814443,86.6595381 C55.5335426,83.8366125 51.0749137,80.3049004 47.8551334,76.2721496" id="Fill-37" fill="#FFFFFF"></path>
                <path d="M49.6698629,71.229989 C52.3008833,75.4704876 56.495797,79.2160577 61.8191669,82.1856287 C64.1067441,72.5436881 67.8784867,64.0688012 72.8277488,57.9219113 C72.8829451,57.8546988 72.9504071,57.7997067 73.0117363,57.7386044 C70.6996274,55.428938 69.3381204,52.6671148 69.2583925,49.6914335 C60.5067232,53.6447513 53.8218462,61.1481119 49.6698629,71.229989" id="Fill-39" fill="#FFFFFF"></path>
                <path d="M63.786606,104.179396 C63.786606,110.032995 64.3140366,115.666626 65.295303,120.921422 C72.409484,124.147623 80.4497352,126.084566 88.9683537,126.408408 L88.9683537,93.6759135 C80.2166845,93.3826225 72.053775,91.5801051 65.0683851,88.6288647 C64.2220429,93.5964805 63.786606,98.8329464 63.786606,104.179396" id="Fill-41" fill="#FFFFFF"></path>
                <path d="M124.181097,138.364903 C129.95217,131.411463 134.030558,122.954907 136.20161,113.734572 C131.976031,117.785653 127.014503,121.250153 121.507146,123.993645 C119.863525,131.59477 117.263169,138.413785 113.83487,144.035195 C117.477821,142.513748 120.930652,140.625687 124.144299,138.426005 C124.156565,138.401564 124.168831,138.383234 124.181097,138.364903" id="Fill-43" fill="#FFFFFF"></path>
                <path d="M133.176856,71.2208237 C129.024873,61.1389466 122.333863,53.635586 113.588327,49.6883783 C113.508599,52.6579494 112.140959,55.4258829 109.834983,57.7294391 C109.896312,57.7966516 109.97604,57.8455334 110.025103,57.9188562 C114.968232,64.0718563 118.739975,72.5345228 121.033685,82.1825736 C126.357055,79.2130026 130.545836,75.4613223 133.176856,71.2208237" id="Fill-45" fill="#FFFFFF"></path>
                <path d="M93.882045,126.406575 C102.406796,126.088843 110.447048,124.1519 117.555096,120.919589 C118.542495,115.658683 119.063793,110.031162 119.063793,104.177563 C119.063793,98.8311133 118.628356,93.6007577 117.782014,88.6270317 C110.802757,91.578272 102.639847,93.3807894 93.882045,93.6740804 L93.882045,126.406575 Z" id="Fill-47" fill="#FFFFFF"></path>
                <path d="M108.932831,40.2761823 C110.337268,41.4921178 111.465725,42.860809 112.263004,44.3394843 C112.275269,44.3455945 112.293668,44.3455945 112.305934,44.3517048 C122.474307,47.9078578 130.410298,55.3928877 135.598744,65.7252841 C136.021915,64.1671759 136.254966,62.5601858 136.254966,60.9287547 C136.254966,57.4275938 135.243035,54.0730783 133.403161,50.9813027 C130.201779,47.6390077 126.614024,44.6755469 122.701224,42.1703532 C117.457582,39.9156788 112.851763,39.2863253 108.932831,40.2761823" id="Fill-49" fill="#FFFFFF"></path>
                <path d="M106.339221,60.4326042 C102.972251,62.5039716 98.6546792,63.8787731 93.8832716,64.2270561 L93.8832716,89.2056703 C102.40189,88.9123793 110.307217,87.1220824 116.924632,84.2197238 C114.821042,74.8160821 111.251686,66.5917145 106.523209,60.7197849 C106.455747,60.6281315 106.40055,60.5364781 106.339221,60.4326042" id="Fill-51" fill="#FFFFFF"></path>
                <path d="M141.915033,107.303556 C141.019627,114.397531 139.069361,121.167665 136.223688,127.400098 C143.994091,117.978125 148.826828,106.0754 149.341993,93.0728339 C147.692239,98.1748747 145.183877,102.971404 141.915033,107.303556" id="Fill-53" fill="#FFFFFF"></path>
                <path d="M106.956193,146.080288 C111.114309,140.966027 114.297291,134.153122 116.364084,126.277038 C109.464555,128.989979 101.878139,130.60308 93.8808184,130.87804 L93.8808184,148.469388 C98.296517,148.286081 102.583424,147.601735 106.69861,146.483563 C106.772205,146.349138 106.851933,146.208603 106.956193,146.080288" id="Fill-55" fill="#FFFFFF"></path>
                <path d="M91.426426,28.5414885 C56.983977,28.5414885 28.9626897,56.4530123 28.9626897,90.774166 C28.9626897,125.083099 56.983977,152.994623 91.426426,152.994623 C125.868875,152.994623 153.890162,125.083099 153.890162,90.774166 C153.890162,56.4530123 125.868875,28.5414885 91.426426,28.5414885 M91.426426,161.927777 C52.0408477,161.927777 20.0025013,130.007943 20.0025013,90.774166 C20.0025013,51.5281682 52.0408477,19.6022241 91.426426,19.6022241 C130.812004,19.6022241 162.850351,51.5281682 162.850351,90.774166 C162.850351,130.007943 130.812004,161.927777 91.426426,161.927777" id="Fill-57" fill="#FFFFFF"></path>
            </g>
        </g>
    </g>
</svg>