<?xml version="1.0" encoding="UTF-8"?>
<svg width="144px" height="163px" viewBox="0 0 144 163" version="1.1" xmlns="http://www.w3.org/2000/svg" xmlns:xlink="http://www.w3.org/1999/xlink">
    <!-- Generator: Sketch 50 (54983) - http://www.bohemiancoding.com/sketch -->
    <title>Monitor_IoT_Zone</title>
    <desc>Created with Sketch.</desc>
    <defs></defs>
    <g id="Page-2" stroke="none" stroke-width="1" fill="none" fill-rule="evenodd">
        <g id="Monitor_IoT_Zone" fill="#636569" fill-rule="nonzero">
            <path d="M72,128 C102,128 127,102.772727 127,72.5 C127,42.2272727 102,17 72,17 C42,17 17,42.2272727 17,72.5 C17,102.772727 42,128 72,128 M72,23.7272727 C98.6666667,23.7272727 120.333333,45.5909091 120.333333,72.5 C120.333333,99.4090909 98.6666667,121.272727 72,121.272727 C45.3333333,121.272727 23.6666667,99.4090909 23.6666667,72.5 C23.6666667,45.5909091 45.3333333,23.7272727 72,23.7272727" id="Shape"></path>
            <path d="M144,72.257732 C144,31.9278351 112.186047,0 72,0 C31.8139535,0 0,31.9278351 0,72.257732 C0,107.546392 25.1162791,136.113402 56.9302326,142.835052 L56.9302326,152.917526 L30.1395349,152.917526 C26.7906977,152.917526 25.1162791,154.597938 25.1162791,157.958763 C25.1162791,161.319588 26.7906977,163 30.1395349,163 L112.186047,163 C115.534884,163 117.209302,161.319588 117.209302,157.958763 C117.209302,154.597938 115.534884,152.917526 112.186047,152.917526 L85.3953488,152.917526 L85.3953488,142.835052 C118.883721,137.793814 144,107.546392 144,72.257732 M10.0465116,80.6597938 C10.0465116,78.9793814 10.0465116,75.6185567 10.0465116,73.9381443 C10.0465116,72.257732 10.0465116,68.8969072 10.0465116,67.2164948 C13.3953488,36.9690722 40.1860465,11.7628866 70.3255814,11.7628866 C70.3255814,11.7628866 70.3255814,11.7628866 72,11.7628866 C107.162791,11.7628866 133.953488,40.3298969 133.953488,73.9381443 C133.953488,109.226804 105.488372,136.113402 72,136.113402 C40.1860465,134.43299 13.3953488,110.907216 10.0465116,80.6597938" id="Shape"></path>
            <path d="M72.5,29 C49.0769231,29 29,49.0769231 29,72.5 C29,95.9230769 49.0769231,116 72.5,116 C95.9230769,116 116,95.9230769 116,72.5 C116,49.0769231 95.9230769,29 72.5,29 M60.7884615,72.5 C54.0961538,72.5 49.0769231,67.4807692 49.0769231,60.7884615 C49.0769231,54.0961538 54.0961538,49.0769231 60.7884615,49.0769231 C67.4807692,49.0769231 72.5,54.0961538 72.5,60.7884615 C72.5,67.4807692 67.4807692,72.5 60.7884615,72.5" id="Shape"></path>
        </g>
    </g>
</svg>