<?xml version="1.0" encoding="UTF-8"?>
<svg width="480px" height="226px" viewBox="0 0 480 226" version="1.1" xmlns="http://www.w3.org/2000/svg" xmlns:xlink="http://www.w3.org/1999/xlink">
    <!-- Generator: Sketch 50 (54983) - http://www.bohemiancoding.com/sketch -->
    <title>NSA_or_SuperMassive</title>
    <desc>Created with Sketch.</desc>
    <defs></defs>
    <g id="Page-2" stroke="none" stroke-width="1" fill="none" fill-rule="evenodd">
        <g id="NSA_or_SuperMassive" fill="#636569">
            <path d="M133.200814,141.256098 C131.095941,141.256098 129.376577,139.532324 129.376577,137.414324 C129.376577,135.296324 131.095941,133.58028 133.200814,133.58028 L363.811558,133.58028 C365.931851,133.58028 367.635795,135.296324 367.635795,137.414324 C367.635795,139.532324 365.931851,141.256098 363.811558,141.256098 L133.200814,141.256098 Z M135.752875,129.290943 C133.640293,129.290943 131.928638,127.574899 131.928638,125.449169 C131.928638,123.331169 133.640293,121.615125 135.752875,121.615125 L389.355303,121.615125 C391.467885,121.615125 393.17954,123.331169 393.17954,125.449169 C393.17954,127.574899 391.467885,129.290943 389.355303,129.290943 L135.752875,129.290943 Z M158.740703,105.376093 C156.635831,105.376093 154.916466,103.652319 154.916466,101.534318 C154.916466,99.4163183 156.635831,97.7002743 158.740703,97.7002743 L412.34313,97.7002743 C414.448003,97.7002743 416.175078,99.4163183 416.175078,101.534318 C416.175078,103.652319 414.448003,105.376093 412.34313,105.376093 L158.740703,105.376093 Z M184.280593,93.4117104 C182.16801,93.4117104 180.456356,91.6956665 180.456356,89.5776663 C180.456356,87.4519362 182.16801,85.7358922 184.280593,85.7358922 L414.891337,85.7358922 C417.011629,85.7358922 418.723284,87.4519362 418.723284,89.5776663 C418.723284,91.6956665 417.011629,93.4117104 414.891337,93.4117104 L184.280593,93.4117104 Z M143.418312,117.329653 C141.305729,117.329653 139.594075,115.613609 139.594075,113.495609 C139.594075,111.369879 141.305729,109.661565 143.418312,109.661565 L404.676923,109.661565 C406.789506,109.661565 408.50116,111.369879 408.50116,113.495609 C408.50116,115.613609 406.789506,117.329653 404.676923,117.329653 L143.418312,117.329653 Z M343.136777,56.9357275 C338.078915,56.9357275 333.953982,52.7847563 333.953982,47.7216536 L333.953982,36.026273 C333.953982,30.9631703 338.078915,26.819929 343.136777,26.819929 L402.3739,26.819929 C407.431762,26.819929 411.556695,30.9631703 411.556695,36.026273 L411.556695,47.7216536 C411.556695,52.7847563 407.431762,56.9357275 402.3739,56.9357275 L343.136777,56.9357275 Z M125.785187,206.429438 L125.785187,189.284458 L151.097626,189.284458 L151.097626,206.429438 L125.785187,206.429438 Z M92.8242727,181.61637 L92.8242727,164.47139 L118.136712,164.47139 L118.136712,181.61637 L92.8242727,181.61637 Z M125.785187,181.61637 L125.785187,164.47139 L151.097626,164.47139 L151.097626,181.61637 L125.785187,181.61637 Z M92.8242727,206.429438 L92.8242727,189.284458 L118.136712,189.284458 L118.136712,206.429438 L92.8242727,206.429438 Z M237.370409,164.472163 C242.428271,164.472163 246.553204,168.623134 246.553204,173.678507 L246.553204,181.617143 L224.679493,181.617143 L224.679493,164.472163 L237.370409,164.472163 Z M158.7461,181.61637 L158.7461,164.47139 L184.05854,164.47139 L184.05854,181.61637 L158.7461,181.61637 Z M63.2820418,197.230051 L63.2820418,189.291415 L85.1711726,189.291415 L85.1711726,206.436395 L72.4648367,206.436395 C67.414685,206.436395 63.2820418,202.293153 63.2820418,197.230051 Z M63.2820418,173.681599 C63.2820418,168.618496 67.414685,164.475255 72.4648367,164.475255 L85.1711726,164.475255 L85.1711726,181.620235 L63.2820418,181.620235 L63.2820418,173.681599 Z M224.675638,206.439487 L224.675638,189.294507 L246.564769,189.294507 L246.564769,197.233143 C246.564769,202.288516 242.432126,206.439487 237.366554,206.439487 L224.675638,206.439487 Z M191.722434,206.429438 L191.722434,189.284458 L217.019454,189.284458 L217.019454,206.429438 L191.722434,206.429438 Z M191.722434,181.61637 L191.722434,164.47139 L217.019454,164.47139 L217.019454,181.61637 L191.722434,181.61637 Z M158.7461,206.429438 L158.7461,189.284458 L184.05854,189.284458 L184.05854,206.429438 L158.7461,206.429438 Z M107.472797,84.4550432 C112.530659,84.4550432 116.647881,88.5982844 116.647881,93.669117 L116.647881,132.573843 C116.647881,137.636946 112.530659,141.780187 107.472797,141.780187 L92.7001392,141.780187 L92.7001392,132.272376 L92.7001392,84.4550432 L107.472797,84.4550432 Z M85.042413,141.780187 L70.2697555,141.780187 C65.2118936,141.780187 61.0792504,137.629216 61.0792504,132.573843 L61.0792504,93.6613871 C61.0792504,88.5905545 65.2118936,84.4550432 70.2697555,84.4550432 L85.042413,84.4550432 L85.042413,132.264646 L85.042413,141.780187 Z" id="Combined-Shape"></path>
            <path d="M450.566996,79.9260785 L446.596266,79.9260785 L446.596266,64.6672012 L464.237102,64.6672012 L464.237102,66.2054568 C464.237102,73.7653261 458.107528,79.9260785 450.566996,79.9260785 Z M464.237102,159.899911 L464.237102,160.897071 L446.596266,160.897071 L446.596266,146.187019 L450.566996,146.187019 C458.107528,146.187019 464.237102,152.332312 464.237102,159.899911 Z M446.596266,188.067767 L464.237102,188.067767 L464.237102,168.56516 L446.596266,168.56516 L446.596266,188.067767 Z M464.237102,196.733016 C464.237102,204.300616 458.107528,210.453638 450.566996,210.453638 L443.836031,210.453638 C445.593946,207.261178 446.596266,203.612652 446.596266,199.716769 L446.596266,195.743586 L464.237102,195.743586 L464.237102,196.733016 Z M450.566996,15.6517294 C458.107528,15.6517294 464.237102,21.8047519 464.237102,29.3646212 L464.237102,29.812957 L446.596266,29.812957 L446.596266,26.396329 C446.596266,22.5004454 445.593946,18.8441896 443.836031,15.6517294 L450.566996,15.6517294 Z M424.398729,214.295412 L55.3675674,214.295412 C47.3490059,214.295412 40.8107942,207.748163 40.8107942,199.716769 L40.8107942,157.387684 L438.955502,157.387684 L438.955502,199.716769 C438.955502,207.748163 432.417291,214.295412 424.398729,214.295412 Z M33.1623202,26.396329 L33.1623202,29.812957 L15.5291951,29.812957 L15.5291951,29.3646212 C15.5291951,21.8047519 21.6664787,15.6517294 29.2070105,15.6517294 L35.9379761,15.6517294 C34.1723505,18.8441896 33.1623202,22.5004454 33.1623202,26.396329 Z M29.2070105,210.453638 C21.6664787,210.453638 15.5291951,204.300616 15.5291951,196.733016 L15.5291951,195.743586 L33.1623202,195.743586 L33.1623202,199.716769 C33.1623202,203.612652 34.1723505,207.261178 35.9379761,210.453638 L29.2070105,210.453638 Z M15.5291951,188.067767 L33.1623202,188.067767 L33.1623202,168.56516 L15.5291951,168.56516 L15.5291951,188.067767 Z M15.5291951,159.899911 C15.5291951,152.332312 21.6664787,146.187019 29.2070105,146.187019 L33.1623202,146.187019 L33.1623202,160.897071 L15.5291951,160.897071 L15.5291951,159.899911 Z M15.5291951,66.2054568 L15.5291951,64.6672012 L33.1623202,64.6672012 L33.1623202,79.9260785 L29.2070105,79.9260785 C21.6664787,79.9260785 15.5291951,73.7653261 15.5291951,66.2054568 Z M15.5291951,56.983653 L33.1623202,56.983653 L33.1623202,37.4887753 L15.5291951,37.4887753 L15.5291951,56.983653 Z M40.8185044,149.711866 L438.955502,149.711866 L438.955502,77.2824432 L40.8185044,77.2824432 L40.8185044,149.711866 Z M55.3675674,11.8099554 L424.398729,11.8099554 C432.417291,11.8099554 438.955502,18.3494742 438.955502,26.396329 L438.955502,69.5988951 L40.8107942,69.5988951 L40.8107942,26.396329 C40.8107942,18.3494742 47.3490059,11.8099554 55.3675674,11.8099554 Z M446.596266,56.9913829 L464.237102,56.9913829 L464.237102,37.4965052 L446.596266,37.4965052 L446.596266,56.9913829 Z M479.56489,66.2054568 L479.56489,29.3646212 C479.56489,13.3404811 466.550148,0.300092972 450.566996,0.300092972 L29.2070105,0.300092972 C13.2084383,0.300092972 0.209116545,13.3404811 0.209116545,29.3646212 L0.209116545,66.2054568 C0.209116545,80.7145311 10.8799714,92.7422987 24.7582509,94.8989485 L24.7582509,131.206419 C10.8799714,133.363069 0.209116545,145.390836 0.209116545,159.899911 L0.209116545,196.733016 C0.209116545,212.764887 13.2084383,225.805275 29.2070105,225.805275 L450.566996,225.805275 C466.550148,225.805275 479.56489,212.764887 479.56489,196.733016 L479.56489,159.899911 C479.56489,145.189858 468.601049,133.030682 454.445204,131.11366 L454.445204,94.9839777 C468.601049,93.0746856 479.56489,80.9155093 479.56489,66.2054568 Z" id="Fill-127"></path>
        </g>
    </g>
</svg>