<?xml version="1.0" encoding="UTF-8" standalone="no"?>
<!DOCTYPE svg PUBLIC "-//W3C//DTD SVG 1.1//EN" "http://www.w3.org/Graphics/SVG/1.1/DTD/svg11.dtd">
<svg width="100%" height="100%" viewBox="0 0 62 15" version="1.1" xmlns="http://www.w3.org/2000/svg" xmlns:xlink="http://www.w3.org/1999/xlink" xml:space="preserve" xmlns:serif="http://www.serif.com/" style="fill-rule:evenodd;clip-rule:evenodd;stroke-linejoin:round;stroke-miterlimit:1.41421;">
    <g transform="matrix(1,0,0,1,-1094,-470)">
        <g transform="matrix(1,0,0,1,0,2)">
            <g transform="matrix(1,0,0,1,1093.15,481.995)">
                <g id="Printers">
                    <path d="M1.848,-0.065C1.743,-0.17 1.69,-0.316 1.69,-0.501L1.69,-12.518C1.69,-12.679 1.749,-12.815 1.867,-12.927C1.984,-13.038 2.13,-13.094 2.303,-13.094L6.649,-13.094C8.011,-13.094 9.067,-12.766 9.816,-12.11C10.565,-11.453 10.939,-10.525 10.939,-9.324C10.939,-8.11 10.562,-7.172 9.806,-6.51C9.051,-5.847 7.999,-5.516 6.649,-5.516L2.842,-5.516L2.842,-0.501C2.842,-0.316 2.789,-0.17 2.684,-0.065C2.579,0.04 2.439,0.093 2.266,0.093C2.093,0.093 1.953,0.04 1.848,-0.065ZM6.575,-6.501C8.717,-6.501 9.788,-7.442 9.788,-9.324C9.788,-11.181 8.717,-12.11 6.575,-12.11L2.842,-12.11L2.842,-6.501L6.575,-6.501Z" style="fill-rule:nonzero;"/>
                    <path d="M17.849,-9.101C17.948,-9.026 17.997,-8.903 17.997,-8.729C17.997,-8.42 17.811,-8.246 17.44,-8.209L16.883,-8.153C16.004,-8.067 15.35,-7.751 14.923,-7.206C14.496,-6.661 14.283,-6.024 14.283,-5.293L14.283,-0.483C14.283,-0.297 14.233,-0.155 14.134,-0.056C14.035,0.043 13.899,0.093 13.725,0.093C13.552,0.093 13.413,0.043 13.307,-0.056C13.202,-0.155 13.15,-0.297 13.15,-0.483L13.15,-8.618C13.15,-8.804 13.202,-8.946 13.307,-9.045C13.413,-9.144 13.552,-9.194 13.725,-9.194C13.886,-9.194 14.016,-9.144 14.115,-9.045C14.214,-8.946 14.264,-8.81 14.264,-8.636L14.264,-7.429C14.772,-8.494 15.713,-9.076 17.087,-9.175L17.347,-9.194C17.582,-9.206 17.749,-9.175 17.849,-9.101Z" style="fill-rule:nonzero;"/>
                    <path d="M19.604,-0.056C19.498,-0.155 19.446,-0.297 19.446,-0.483L19.446,-8.618C19.446,-8.804 19.498,-8.946 19.604,-9.045C19.709,-9.144 19.848,-9.194 20.022,-9.194C20.195,-9.194 20.331,-9.144 20.43,-9.045C20.529,-8.946 20.579,-8.804 20.579,-8.618L20.579,-0.483C20.579,-0.297 20.529,-0.155 20.43,-0.056C20.331,0.043 20.195,0.093 20.022,0.093C19.848,0.093 19.709,0.043 19.604,-0.056ZM19.418,-11.515C19.263,-11.664 19.186,-11.856 19.186,-12.091C19.186,-12.339 19.263,-12.537 19.418,-12.685C19.573,-12.834 19.774,-12.908 20.022,-12.908C20.269,-12.908 20.47,-12.834 20.625,-12.685C20.78,-12.537 20.857,-12.339 20.857,-12.091C20.857,-11.856 20.78,-11.664 20.625,-11.515C20.47,-11.367 20.269,-11.292 20.022,-11.292C19.774,-11.292 19.573,-11.367 19.418,-11.515Z" style="fill-rule:nonzero;"/>
                    <path d="M31.035,-5.739L31.035,-0.483C31.035,-0.31 30.986,-0.17 30.887,-0.065C30.788,0.04 30.651,0.093 30.478,0.093C30.305,0.093 30.165,0.04 30.06,-0.065C29.955,-0.17 29.902,-0.31 29.902,-0.483L29.902,-5.665C29.902,-6.556 29.723,-7.206 29.364,-7.615C29.005,-8.023 28.435,-8.228 27.655,-8.228C26.763,-8.228 26.048,-7.955 25.51,-7.411C24.971,-6.866 24.702,-6.135 24.702,-5.219L24.702,-0.483C24.702,-0.31 24.652,-0.17 24.553,-0.065C24.454,0.04 24.318,0.093 24.145,0.093C23.971,0.093 23.832,0.04 23.727,-0.065C23.622,-0.17 23.569,-0.31 23.569,-0.483L23.569,-8.618C23.569,-8.791 23.622,-8.93 23.727,-9.036C23.832,-9.141 23.971,-9.194 24.145,-9.194C24.306,-9.194 24.436,-9.144 24.535,-9.045C24.634,-8.946 24.683,-8.81 24.683,-8.636L24.683,-7.466C24.968,-8.036 25.38,-8.472 25.918,-8.776C26.457,-9.079 27.079,-9.231 27.785,-9.231C29.952,-9.231 31.035,-8.067 31.035,-5.739Z" style="fill-rule:nonzero;"/>
                    <path d="M38.427,-0.371C38.427,-0.223 38.372,-0.105 38.26,-0.019C38.149,0.068 37.969,0.105 37.721,0.093L37.201,0.056C36.26,-0.006 35.564,-0.294 35.112,-0.808C34.66,-1.322 34.434,-2.105 34.434,-3.157L34.434,-8.098L33.023,-8.098C32.874,-8.098 32.756,-8.138 32.67,-8.218C32.583,-8.299 32.54,-8.407 32.54,-8.544C32.54,-8.68 32.583,-8.791 32.67,-8.878C32.756,-8.965 32.874,-9.008 33.023,-9.008L34.434,-9.008L34.434,-11.311C34.434,-11.497 34.484,-11.639 34.583,-11.738C34.682,-11.837 34.818,-11.887 34.991,-11.887C35.165,-11.887 35.304,-11.837 35.409,-11.738C35.514,-11.639 35.567,-11.497 35.567,-11.311L35.567,-9.008L37.814,-9.008C37.975,-9.008 38.099,-8.965 38.186,-8.878C38.272,-8.791 38.316,-8.68 38.316,-8.544C38.316,-8.407 38.272,-8.299 38.186,-8.218C38.099,-8.138 37.975,-8.098 37.814,-8.098L35.567,-8.098L35.567,-3.102C35.567,-2.334 35.716,-1.786 36.013,-1.458C36.31,-1.13 36.774,-0.941 37.406,-0.891L37.907,-0.854C38.254,-0.817 38.427,-0.656 38.427,-0.371Z" style="fill-rule:nonzero;"/>
                    <path d="M47.259,-1.792C47.339,-1.699 47.379,-1.591 47.379,-1.467C47.379,-1.195 47.169,-0.929 46.748,-0.669C45.856,-0.136 44.915,0.13 43.925,0.13C42.55,0.13 41.467,-0.285 40.675,-1.114C39.882,-1.944 39.486,-3.083 39.486,-4.532C39.486,-5.46 39.662,-6.281 40.015,-6.993C40.368,-7.705 40.863,-8.256 41.501,-8.646C42.139,-9.036 42.872,-9.231 43.702,-9.231C44.866,-9.231 45.785,-8.856 46.46,-8.107C47.135,-7.358 47.472,-6.327 47.472,-5.015C47.472,-4.792 47.423,-4.628 47.324,-4.522C47.225,-4.417 47.064,-4.365 46.841,-4.365L40.656,-4.365C40.693,-3.225 40.99,-2.359 41.547,-1.764C42.105,-1.17 42.891,-0.873 43.906,-0.873C44.439,-0.873 44.884,-0.944 45.243,-1.087C45.603,-1.229 45.986,-1.418 46.395,-1.653C46.667,-1.839 46.859,-1.932 46.971,-1.932C47.082,-1.932 47.178,-1.885 47.259,-1.792ZM41.622,-7.485C41.102,-6.94 40.792,-6.179 40.693,-5.2L46.432,-5.2C46.407,-6.191 46.16,-6.956 45.689,-7.494C45.219,-8.033 44.556,-8.302 43.702,-8.302C42.835,-8.302 42.142,-8.03 41.622,-7.485Z" style="fill-rule:nonzero;"/>
                    <path d="M54.53,-9.101C54.629,-9.026 54.679,-8.903 54.679,-8.729C54.679,-8.42 54.493,-8.246 54.121,-8.209L53.564,-8.153C52.685,-8.067 52.032,-7.751 51.605,-7.206C51.178,-6.661 50.964,-6.024 50.964,-5.293L50.964,-0.483C50.964,-0.297 50.914,-0.155 50.815,-0.056C50.716,0.043 50.58,0.093 50.407,0.093C50.233,0.093 50.094,0.043 49.989,-0.056C49.884,-0.155 49.831,-0.297 49.831,-0.483L49.831,-8.618C49.831,-8.804 49.884,-8.946 49.989,-9.045C50.094,-9.144 50.233,-9.194 50.407,-9.194C50.568,-9.194 50.698,-9.144 50.797,-9.045C50.896,-8.946 50.945,-8.81 50.945,-8.636L50.945,-7.429C51.453,-8.494 52.394,-9.076 53.768,-9.175L54.028,-9.194C54.264,-9.206 54.431,-9.175 54.53,-9.101Z" style="fill-rule:nonzero;"/>
                    <path d="M57.418,-0.084C56.917,-0.226 56.474,-0.421 56.09,-0.669C55.855,-0.83 55.691,-0.969 55.598,-1.087C55.505,-1.204 55.459,-1.337 55.459,-1.486C55.459,-1.61 55.499,-1.715 55.579,-1.802C55.66,-1.888 55.756,-1.932 55.867,-1.932C55.979,-1.932 56.171,-1.839 56.443,-1.653C56.802,-1.418 57.17,-1.226 57.548,-1.077C57.926,-0.929 58.399,-0.854 58.969,-0.854C59.699,-0.854 60.269,-0.987 60.678,-1.254C61.086,-1.52 61.29,-1.901 61.29,-2.396C61.29,-2.693 61.216,-2.938 61.068,-3.13C60.919,-3.321 60.671,-3.489 60.325,-3.631C59.978,-3.773 59.483,-3.913 58.839,-4.049C57.737,-4.297 56.954,-4.615 56.489,-5.005C56.025,-5.395 55.793,-5.919 55.793,-6.575C55.793,-7.367 56.102,-8.008 56.722,-8.497C57.341,-8.986 58.145,-9.231 59.136,-9.231C59.619,-9.231 60.08,-9.169 60.52,-9.045C60.959,-8.921 61.34,-8.742 61.662,-8.506C62.095,-8.209 62.312,-7.918 62.312,-7.633C62.312,-7.51 62.272,-7.401 62.191,-7.308C62.111,-7.216 62.015,-7.169 61.903,-7.169C61.78,-7.169 61.588,-7.268 61.328,-7.466C60.993,-7.702 60.662,-7.89 60.334,-8.033C60.006,-8.175 59.588,-8.246 59.08,-8.246C58.436,-8.246 57.923,-8.101 57.539,-7.81C57.155,-7.519 56.963,-7.126 56.963,-6.631C56.963,-6.346 57.028,-6.11 57.158,-5.925C57.288,-5.739 57.511,-5.575 57.827,-5.433C58.142,-5.29 58.597,-5.151 59.192,-5.015C60.046,-4.817 60.702,-4.606 61.16,-4.383C61.619,-4.16 61.947,-3.894 62.145,-3.585C62.343,-3.275 62.442,-2.879 62.442,-2.396C62.442,-1.641 62.123,-1.031 61.485,-0.566C60.848,-0.102 60.003,0.13 58.95,0.13C58.43,0.13 57.919,0.059 57.418,-0.084Z" style="fill-rule:nonzero;"/>
                </g>
            </g>
        </g>
    </g>
</svg>
