<?xml version="1.0" encoding="UTF-8"?>
<svg width="132px" height="260px" viewBox="0 0 132 260" version="1.1" xmlns="http://www.w3.org/2000/svg" xmlns:xlink="http://www.w3.org/1999/xlink">
    <!-- Generator: Sketch 50 (54983) - http://www.bohemiancoding.com/sketch -->
    <title>Server_Network</title>
    <desc>Created with Sketch.</desc>
    <defs></defs>
    <g id="Page-2" stroke="none" stroke-width="1" fill="none" fill-rule="evenodd">
        <g id="Server_Network" transform="translate(10.000000, 10.000000)">
            <path d="M103.967223,239.995851 L8.30520562,239.995851 C3.78924138,239.995851 0.100045977,236.316736 0.100045977,231.821577 L0.100045977,8.28077455 C0.100045977,3.78561549 3.78924138,0.106500692 8.30520562,0.106500692 L103.967223,0.106500692 C108.469292,0.106500692 112.172383,3.78561549 112.172383,8.28077455 L112.172383,231.821577 C112.172383,236.316736 108.469292,239.995851 103.967223,239.995851 Z M22.5360511,33.3077455 L90.8730115,33.3077455 C94.3263782,33.3077455 97.1258851,30.5211361 97.1258851,27.0836791 C97.1258851,23.6462222 94.3263782,20.8596127 90.8730115,20.8596127 L22.5360511,20.8596127 C19.0826844,20.8596127 16.2831775,23.6462222 16.2831775,27.0836791 C16.2831775,30.5211361 19.0826844,33.3077455 22.5360511,33.3077455 Z M22.5360511,61.6728907 L90.8730115,61.6728907 C94.3263782,61.6728907 97.1258851,58.8862813 97.1258851,55.4488243 C97.1258851,52.0113674 94.3263782,49.224758 90.8730115,49.224758 L22.5360511,49.224758 C19.0826844,49.224758 16.2831775,52.0113674 16.2831775,55.4488243 C16.2831775,58.8862813 19.0826844,61.6728907 22.5360511,61.6728907 Z M37.130258,217.892116 C37.130258,213.037344 33.1770524,209.102351 28.299811,209.102351 C23.4225696,209.102351 19.4763116,213.037344 19.4763116,217.892116 C19.4763116,222.746888 23.4225696,226.681881 28.299811,226.681881 C33.1770524,226.681881 37.130258,222.746888 37.130258,217.892116 Z" id="Combined-Shape" fill="#636569"></path>
            <path d="M103.967223,239.995851 L8.30520562,239.995851 C3.78924138,239.995851 0.100045977,236.316736 0.100045977,231.821577 L0.100045977,8.28077455 C0.100045977,3.78561549 3.78924138,0.106500692 8.30520562,0.106500692 L103.967223,0.106500692 C108.469292,0.106500692 112.172383,3.78561549 112.172383,8.28077455 L112.172383,231.821577 C112.172383,236.316736 108.469292,239.995851 103.967223,239.995851 Z" id="Stroke-89" stroke="#636569" stroke-width="18.555"></path>
        </g>
    </g>
</svg>