<?xml version="1.0" encoding="UTF-8" standalone="no"?>
<svg width="270px" height="66px" viewBox="0 0 270 66" version="1.1" xmlns="http://www.w3.org/2000/svg" xmlns:xlink="http://www.w3.org/1999/xlink">
    <!-- Generator: Sketch 50.2 (55047) - http://www.bohemiancoding.com/sketch -->
    <title>Box_Secure_Mobile_Access</title>
    <desc>Created with Sketch.</desc>
    <defs></defs>
    <g id="Page-1" stroke="none" stroke-width="1" fill="none" fill-rule="evenodd">
        <g id="Box_Secure_Mobile_Access" transform="translate(0.000000, 0.250000)" fill="#636569" fill-rule="nonzero">
            <path d="M254.462753,2.84217094e-14 L234.857276,2.84217094e-14 L35.1264796,2.84217094e-14 L15.5210026,2.84217094e-14 C6.94360643,2.84217094e-14 0,6.98839239 0,15.6211124 L0,49.7409105 C0,58.3736306 6.94360643,65.3620229 15.5210026,65.3620229 L35.1264796,65.3620229 L234.857276,65.3620229 L254.462753,65.3620229 C263.04015,65.3620229 269.983756,58.3736306 269.983756,49.7409105 L269.983756,15.6211124 C270.392203,6.98839239 263.04015,2.84217094e-14 254.462753,2.84217094e-14 Z M19.1970295,36.9973715 L7.76050131,36.9973715 L7.76050131,28.3646515 L19.1970295,28.3646515 L19.1970295,36.9973715 Z M15.5210026,57.1403848 C11.4365282,57.1403848 8.16894874,53.8517296 8.16894874,49.7409105 L8.16894874,45.6300915 L19.605477,45.6300915 L19.605477,49.7409105 C19.605477,52.6184839 20.4223719,55.0849753 21.6477142,57.1403848 L15.5210026,57.1403848 Z M19.1970295,15.6211124 L19.1970295,19.7319315 L7.76050131,19.7319315 L7.76050131,15.6211124 C7.76050131,11.5102933 11.0280808,8.22163811 15.1125552,8.22163811 L20.8308193,8.22163811 C20.0139244,10.6881295 19.1970295,13.154621 19.1970295,15.6211124 Z M242.20933,49.7409105 C242.20933,53.8517296 238.941751,57.1403848 234.857276,57.1403848 L35.1264796,57.1403848 C31.0420052,57.1403848 27.7744257,53.8517296 27.7744257,49.7409105 L27.7744257,15.6211124 C27.7744257,11.5102933 31.0420052,8.22163811 35.1264796,8.22163811 L234.857276,8.22163811 C238.941751,8.22163811 242.20933,11.5102933 242.20933,15.6211124 L242.20933,49.7409105 Z M254.462753,8.22163811 C258.547228,8.22163811 261.814807,11.5102933 261.814807,15.6211124 L261.814807,19.7319315 L250.378279,19.7319315 L250.378279,15.6211124 C250.378279,12.7435391 249.561384,10.2770476 248.336042,8.22163811 L254.462753,8.22163811 Z M250.378279,28.3646515 L261.814807,28.3646515 L261.814807,36.9973715 L250.378279,36.9973715 L250.378279,28.3646515 Z M254.462753,57.1403848 L248.744489,57.1403848 C249.969832,55.0849753 250.786726,52.207402 250.786726,49.7409105 L250.786726,45.6300915 L262.223255,45.6300915 L262.223255,49.7409105 C261.814807,53.8517296 258.547228,57.1403848 254.462753,57.1403848 Z" id="Shape"></path>
            <path d="M90.7378378,48.7787029 C87.8796867,48.7787029 85.8381503,46.7102844 85.8381503,43.8144986 L85.8381503,37.6092433 C85.8381503,34.7134574 87.8796867,32.645039 90.7378378,32.645039 L105.028593,32.645039 C107.886744,32.645039 109.92828,34.7134574 109.92828,37.6092433 L109.92828,43.8144986 C110.336588,46.7102844 107.886744,48.7787029 105.028593,48.7787029 L90.7378378,48.7787029 Z M196.897733,34.2997737 L214.454946,34.2997737 L214.454946,48.7787029 L196.897733,48.7787029 L196.897733,34.2997737 Z M218.538019,30.1629368 L218.946327,30.1629368 L218.946327,15.6840077 L229.562316,15.6840077 C232.420467,15.6840077 234.462004,17.7524262 234.462004,20.648212 L234.462004,30.1629368 L218.538019,30.1629368 Z M218.538019,34.2997737 L234.053696,34.2997737 L234.053696,43.8144986 C234.053696,46.7102844 232.01216,48.7787029 229.154009,48.7787029 L218.538019,48.7787029 L218.538019,34.2997737 Z" id="Combined-Shape"></path>
        </g>
    </g>
</svg>