<?xml version="1.0" encoding="UTF-8" standalone="no"?>
<!DOCTYPE svg PUBLIC "-//W3C//DTD SVG 1.1//EN" "http://www.w3.org/Graphics/SVG/1.1/DTD/svg11.dtd">
<svg width="100%" height="100%" viewBox="0 0 125 26" version="1.1" xmlns="http://www.w3.org/2000/svg" xmlns:xlink="http://www.w3.org/1999/xlink" xml:space="preserve" xmlns:serif="http://www.serif.com/" style="fill-rule:evenodd;clip-rule:evenodd;stroke-linejoin:round;stroke-miterlimit:1.41421;">
    <g transform="matrix(1,0,0,1,-272,-208)">
        <g transform="matrix(1,0,0,1,0,-8)">
            <g transform="matrix(1,0,0,1,270,236.25)">
                <g id="Encrypted">
                    <path d="M2.674,-0.378C2.422,-0.63 2.296,-0.971 2.296,-1.4L2.296,-18.34C2.296,-18.769 2.422,-19.11 2.674,-19.362C2.926,-19.614 3.276,-19.74 3.724,-19.74L14.028,-19.74C14.457,-19.74 14.789,-19.637 15.022,-19.432C15.255,-19.227 15.372,-18.937 15.372,-18.564C15.372,-18.191 15.255,-17.906 15.022,-17.71C14.789,-17.514 14.457,-17.416 14.028,-17.416L5.124,-17.416L5.124,-11.2L13.468,-11.2C13.897,-11.2 14.229,-11.097 14.462,-10.892C14.695,-10.687 14.812,-10.397 14.812,-10.024C14.812,-9.651 14.695,-9.361 14.462,-9.156C14.229,-8.951 13.897,-8.848 13.468,-8.848L5.124,-8.848L5.124,-2.324L14.028,-2.324C14.924,-2.324 15.372,-1.941 15.372,-1.176C15.372,-0.803 15.255,-0.513 15.022,-0.308C14.789,-0.103 14.457,0 14.028,0L3.724,0C3.276,0 2.926,-0.126 2.674,-0.378Z" style="fill-rule:nonzero;"/>
                    <path d="M30.466,-8.484L30.466,-1.204C30.466,-0.775 30.34,-0.443 30.088,-0.21C29.836,0.023 29.486,0.14 29.038,0.14C28.609,0.14 28.268,0.019 28.016,-0.224C27.764,-0.467 27.638,-0.793 27.638,-1.204L27.638,-8.344C27.638,-9.501 27.409,-10.351 26.952,-10.892C26.495,-11.433 25.781,-11.704 24.81,-11.704C23.671,-11.704 22.757,-11.349 22.066,-10.64C21.375,-9.931 21.03,-8.979 21.03,-7.784L21.03,-1.204C21.03,-0.793 20.904,-0.467 20.652,-0.224C20.4,0.019 20.059,0.14 19.63,0.14C19.201,0.14 18.855,0.019 18.594,-0.224C18.333,-0.467 18.202,-0.793 18.202,-1.204L18.202,-12.6C18.202,-12.992 18.337,-13.314 18.608,-13.566C18.879,-13.818 19.219,-13.944 19.63,-13.944C20.041,-13.944 20.367,-13.823 20.61,-13.58C20.853,-13.337 20.974,-13.02 20.974,-12.628L20.974,-11.48C21.422,-12.301 22.047,-12.927 22.85,-13.356C23.653,-13.785 24.558,-14 25.566,-14C28.833,-14 30.466,-12.161 30.466,-8.484Z" style="fill-rule:nonzero;"/>
                    <path d="M36.558,-0.672C35.559,-1.251 34.785,-2.072 34.234,-3.136C33.683,-4.2 33.408,-5.432 33.408,-6.832C33.408,-8.251 33.693,-9.501 34.262,-10.584C34.831,-11.667 35.629,-12.507 36.656,-13.104C37.683,-13.701 38.859,-14 40.184,-14C40.893,-14 41.607,-13.897 42.326,-13.692C43.045,-13.487 43.684,-13.207 44.244,-12.852C44.841,-12.441 45.14,-11.965 45.14,-11.424C45.14,-11.107 45.056,-10.841 44.888,-10.626C44.72,-10.411 44.505,-10.304 44.244,-10.304C44.076,-10.304 43.908,-10.346 43.74,-10.43C43.572,-10.514 43.357,-10.64 43.096,-10.808C42.629,-11.107 42.195,-11.335 41.794,-11.494C41.393,-11.653 40.912,-11.732 40.352,-11.732C39.083,-11.732 38.098,-11.303 37.398,-10.444C36.698,-9.585 36.348,-8.391 36.348,-6.86C36.348,-5.329 36.693,-4.149 37.384,-3.318C38.075,-2.487 39.055,-2.072 40.324,-2.072C40.884,-2.072 41.379,-2.156 41.808,-2.324C42.237,-2.492 42.676,-2.716 43.124,-2.996C43.329,-3.127 43.535,-3.239 43.74,-3.332C43.945,-3.425 44.132,-3.472 44.3,-3.472C44.561,-3.472 44.776,-3.365 44.944,-3.15C45.112,-2.935 45.196,-2.669 45.196,-2.352C45.196,-2.091 45.126,-1.853 44.986,-1.638C44.846,-1.423 44.608,-1.204 44.272,-0.98C43.712,-0.607 43.059,-0.317 42.312,-0.112C41.565,0.093 40.809,0.196 40.044,0.196C38.719,0.196 37.557,-0.093 36.558,-0.672Z" style="fill-rule:nonzero;"/>
                    <path d="M56.09,-12.796C56.09,-12.385 55.987,-12.077 55.782,-11.872C55.577,-11.667 55.222,-11.545 54.718,-11.508L53.878,-11.424C52.702,-11.312 51.829,-10.901 51.26,-10.192C50.691,-9.483 50.406,-8.624 50.406,-7.616L50.406,-1.204C50.406,-0.756 50.275,-0.42 50.014,-0.196C49.753,0.028 49.417,0.14 49.006,0.14C48.595,0.14 48.255,0.028 47.984,-0.196C47.713,-0.42 47.578,-0.756 47.578,-1.204L47.578,-12.6C47.578,-13.029 47.713,-13.361 47.984,-13.594C48.255,-13.827 48.595,-13.944 49.006,-13.944C49.379,-13.944 49.692,-13.827 49.944,-13.594C50.196,-13.361 50.322,-13.039 50.322,-12.628L50.322,-11.284C50.695,-12.105 51.237,-12.731 51.946,-13.16C52.655,-13.589 53.458,-13.841 54.354,-13.916L54.746,-13.944C55.642,-14 56.09,-13.617 56.09,-12.796Z" style="fill-rule:nonzero;"/>
                    <path d="M68.734,-13.72C68.949,-13.851 69.177,-13.916 69.42,-13.916C69.775,-13.916 70.087,-13.795 70.358,-13.552C70.629,-13.309 70.764,-13.02 70.764,-12.684C70.764,-12.497 70.727,-12.32 70.652,-12.152L62.868,4.368C62.756,4.629 62.593,4.83 62.378,4.97C62.163,5.11 61.935,5.18 61.692,5.18C61.356,5.18 61.053,5.068 60.782,4.844C60.511,4.62 60.376,4.34 60.376,4.004C60.376,3.855 60.423,3.668 60.516,3.444L62.448,-0.672L57.044,-12.152C56.969,-12.301 56.932,-12.469 56.932,-12.656C56.932,-13.011 57.081,-13.309 57.38,-13.552C57.679,-13.795 58.015,-13.916 58.388,-13.916C58.948,-13.916 59.349,-13.655 59.592,-13.132L63.932,-3.5L68.244,-13.104C68.356,-13.384 68.519,-13.589 68.734,-13.72Z" style="fill-rule:nonzero;"/>
                    <path d="M83.436,-13.104C84.36,-12.507 85.079,-11.667 85.592,-10.584C86.105,-9.501 86.362,-8.251 86.362,-6.832C86.362,-5.432 86.11,-4.2 85.606,-3.136C85.102,-2.072 84.388,-1.251 83.464,-0.672C82.54,-0.093 81.481,0.196 80.286,0.196C79.259,0.196 78.354,-0.023 77.57,-0.462C76.786,-0.901 76.189,-1.531 75.778,-2.352L75.778,3.892C75.778,4.284 75.652,4.597 75.4,4.83C75.148,5.063 74.817,5.18 74.406,5.18C73.977,5.18 73.627,5.059 73.356,4.816C73.085,4.573 72.95,4.247 72.95,3.836L72.95,-12.572C72.95,-12.983 73.081,-13.314 73.342,-13.566C73.603,-13.818 73.949,-13.944 74.378,-13.944C74.789,-13.944 75.125,-13.818 75.386,-13.566C75.647,-13.314 75.778,-12.983 75.778,-12.572L75.778,-11.424C76.189,-12.245 76.786,-12.88 77.57,-13.328C78.354,-13.776 79.259,-14 80.286,-14C81.462,-14 82.512,-13.701 83.436,-13.104ZM82.47,-3.29C83.142,-4.121 83.478,-5.301 83.478,-6.832C83.478,-8.381 83.137,-9.585 82.456,-10.444C81.775,-11.303 80.827,-11.732 79.614,-11.732C78.382,-11.732 77.435,-11.312 76.772,-10.472C76.109,-9.632 75.778,-8.437 75.778,-6.888C75.778,-5.339 76.109,-4.144 76.772,-3.304C77.435,-2.464 78.382,-2.044 79.614,-2.044C80.846,-2.044 81.798,-2.459 82.47,-3.29Z" style="fill-rule:nonzero;"/>
                    <path d="M96.878,-1.694C97.055,-1.517 97.144,-1.269 97.144,-0.952C97.144,-0.579 96.999,-0.294 96.71,-0.098C96.421,0.098 95.996,0.177 95.436,0.14L94.68,0.084C93.168,-0.028 92.039,-0.49 91.292,-1.302C90.545,-2.114 90.172,-3.313 90.172,-4.9L90.172,-11.48L88.492,-11.48C87.671,-11.48 87.26,-11.844 87.26,-12.572C87.26,-12.908 87.367,-13.174 87.582,-13.37C87.797,-13.566 88.1,-13.664 88.492,-13.664L90.172,-13.664L90.172,-16.548C90.172,-16.977 90.298,-17.313 90.55,-17.556C90.802,-17.799 91.143,-17.92 91.572,-17.92C92.001,-17.92 92.347,-17.799 92.608,-17.556C92.869,-17.313 93,-16.977 93,-16.548L93,-13.664L95.772,-13.664C96.164,-13.664 96.467,-13.566 96.682,-13.37C96.897,-13.174 97.004,-12.908 97.004,-12.572C97.004,-12.217 96.897,-11.947 96.682,-11.76C96.467,-11.573 96.164,-11.48 95.772,-11.48L93,-11.48L93,-4.704C93,-3.827 93.182,-3.183 93.546,-2.772C93.91,-2.361 94.465,-2.128 95.212,-2.072L95.996,-2.016C96.407,-1.979 96.701,-1.871 96.878,-1.694Z" style="fill-rule:nonzero;"/>
                    <path d="M110.39,-3.136C110.558,-2.931 110.642,-2.669 110.642,-2.352C110.642,-1.811 110.306,-1.353 109.634,-0.98C108.981,-0.607 108.267,-0.317 107.492,-0.112C106.717,0.093 105.975,0.196 105.266,0.196C103.101,0.196 101.393,-0.434 100.142,-1.694C98.891,-2.954 98.266,-4.676 98.266,-6.86C98.266,-8.26 98.541,-9.501 99.092,-10.584C99.643,-11.667 100.417,-12.507 101.416,-13.104C102.415,-13.701 103.549,-14 104.818,-14C106.647,-14 108.094,-13.412 109.158,-12.236C110.222,-11.06 110.754,-9.473 110.754,-7.476C110.754,-6.729 110.418,-6.356 109.746,-6.356L101.094,-6.356C101.281,-3.463 102.671,-2.016 105.266,-2.016C105.957,-2.016 106.554,-2.109 107.058,-2.296C107.562,-2.483 108.094,-2.725 108.654,-3.024C108.71,-3.061 108.864,-3.141 109.116,-3.262C109.368,-3.383 109.578,-3.444 109.746,-3.444C110.007,-3.444 110.222,-3.341 110.39,-3.136ZM102.27,-10.892C101.617,-10.201 101.225,-9.231 101.094,-7.98L108.318,-7.98C108.262,-9.249 107.94,-10.225 107.352,-10.906C106.764,-11.587 105.938,-11.928 104.874,-11.928C103.791,-11.928 102.923,-11.583 102.27,-10.892Z" style="fill-rule:nonzero;"/>
                    <path d="M125.932,-19.516C126.193,-19.273 126.324,-18.947 126.324,-18.536L126.324,-1.232C126.324,-0.803 126.198,-0.467 125.946,-0.224C125.694,0.019 125.353,0.14 124.924,0.14C124.495,0.14 124.154,0.019 123.902,-0.224C123.65,-0.467 123.524,-0.803 123.524,-1.232L123.524,-2.352C123.113,-1.531 122.516,-0.901 121.732,-0.462C120.948,-0.023 120.043,0.196 119.016,0.196C117.84,0.196 116.79,-0.103 115.866,-0.7C114.942,-1.297 114.223,-2.137 113.71,-3.22C113.197,-4.303 112.94,-5.544 112.94,-6.944C112.94,-8.363 113.197,-9.604 113.71,-10.668C114.223,-11.732 114.937,-12.553 115.852,-13.132C116.767,-13.711 117.821,-14 119.016,-14C120.043,-14 120.943,-13.781 121.718,-13.342C122.493,-12.903 123.085,-12.283 123.496,-11.48L123.496,-18.592C123.496,-18.984 123.622,-19.297 123.874,-19.53C124.126,-19.763 124.467,-19.88 124.896,-19.88C125.325,-19.88 125.671,-19.759 125.932,-19.516ZM122.516,-3.304C123.188,-4.144 123.524,-5.339 123.524,-6.888C123.524,-8.437 123.193,-9.632 122.53,-10.472C121.867,-11.312 120.92,-11.732 119.688,-11.732C118.456,-11.732 117.499,-11.317 116.818,-10.486C116.137,-9.655 115.796,-8.475 115.796,-6.944C115.796,-5.413 116.141,-4.214 116.832,-3.346C117.523,-2.478 118.475,-2.044 119.688,-2.044C120.901,-2.044 121.844,-2.464 122.516,-3.304Z" style="fill-rule:nonzero;"/>
                </g>
            </g>
        </g>
    </g>
</svg>
