<?xml version="1.0" encoding="UTF-8" standalone="no"?>
<svg width="60px" height="72px" viewBox="0 0 60 72" version="1.1" xmlns="http://www.w3.org/2000/svg" xmlns:xlink="http://www.w3.org/1999/xlink">
    <!-- Generator: Sketch 50.2 (55047) - http://www.bohemiancoding.com/sketch -->
    <title>Lock</title>
    <desc>Created with Sketch.</desc>
    <defs></defs>
    <g id="Page-1" stroke="none" stroke-width="1" fill="none" fill-rule="evenodd">
        <path d="M10.5000248,19.6529768 C10.5000248,8.93666432 19.2307015,0.25 30,0.25 C40.7692985,0.25 49.4999752,8.9368286 49.4999752,19.6529768 L49.4999752,30.1005314 L53.9995377,30.1005314 C57.3143618,30.1005314 60,32.772176 60,36.0707034 L60,65.9217277 C60,69.2200908 57.3143618,71.8915711 53.9995377,71.8915711 L6.00013208,71.8915711 C2.68514289,71.8915711 0,69.2200908 0,65.9217277 L0,36.0707034 C0,32.772176 2.68514289,30.1005314 6.00013208,30.1005314 L10.5000248,30.1005314 L10.5000248,19.6529768 Z M18.000066,30.1005314 L41.999934,30.1005314 L41.999934,19.6529768 C41.999934,13.0560863 36.6298133,7.71246858 29.9998349,7.71246858 C23.3698565,7.71246858 18.000066,13.0560863 18.000066,19.6529768 L18.000066,30.1005314 Z M23.9998679,46.5185866 C23.9998679,48.6231453 25.0954538,50.4742239 26.7451062,51.5338136 L25.4999422,59.2054074 C25.4999422,60.443731 26.5047245,61.443688 27.7497235,61.443688 L32.2499463,61.443688 C33.4951104,61.443688 34.5000578,60.443731 34.5000578,59.2054074 C33.8409893,55.0569083 33.2548938,51.5338136 33.2548938,51.5338136 C34.9043811,50.4742239 35.9996368,48.6233096 35.9996368,46.5185866 C35.9996368,43.2202234 33.3148241,40.5485788 29.9998349,40.5485788 C26.6848457,40.5485788 23.9998679,43.2202234 23.9998679,46.5185866 Z" id="Lock" fill="#636569"></path>
    </g>
</svg>