<?xml version="1.0" encoding="UTF-8" standalone="no"?>
<!DOCTYPE svg PUBLIC "-//W3C//DTD SVG 1.1//EN" "http://www.w3.org/Graphics/SVG/1.1/DTD/svg11.dtd">
<svg width="100%" height="100%" viewBox="0 0 411 41" version="1.1" xmlns="http://www.w3.org/2000/svg" xmlns:xlink="http://www.w3.org/1999/xlink" xml:space="preserve" xmlns:serif="http://www.serif.com/" style="fill-rule:evenodd;clip-rule:evenodd;stroke-linejoin:round;stroke-miterlimit:1.41421;">
    <g transform="matrix(1,0,0,1,-1034,-818)">
        <g transform="matrix(1,0,0,1,-2,-8)">
            <g id="NGFW-decrypts-and-in">
                <g transform="matrix(1,0,0,1,1036,839)">
                    <path d="M11.655,-12.519C11.817,-12.345 11.898,-12.12 11.898,-11.844L11.898,-0.846C11.898,-0.57 11.814,-0.345 11.646,-0.171C11.478,0.003 11.262,0.09 10.998,0.09C10.686,0.09 10.446,-0.03 10.278,-0.27L3.222,-9.576L3.222,-0.846C3.222,-0.57 3.141,-0.345 2.979,-0.171C2.817,0.003 2.604,0.09 2.34,0.09C2.076,0.09 1.866,0.006 1.71,-0.162C1.554,-0.33 1.476,-0.558 1.476,-0.846L1.476,-11.844C1.476,-12.12 1.56,-12.345 1.728,-12.519C1.896,-12.693 2.112,-12.78 2.376,-12.78C2.688,-12.78 2.928,-12.66 3.096,-12.42L10.152,-3.096L10.152,-11.844C10.152,-12.12 10.23,-12.345 10.386,-12.519C10.542,-12.693 10.752,-12.78 11.016,-12.78C11.28,-12.78 11.493,-12.693 11.655,-12.519Z" style="fill-rule:nonzero;"/>
                    <path d="M24.882,-6.534C25.02,-6.402 25.089,-6.222 25.089,-5.994L25.089,-1.782C25.089,-1.374 25.032,-1.08 24.918,-0.9C24.804,-0.72 24.579,-0.576 24.243,-0.468C23.763,-0.276 23.193,-0.126 22.533,-0.018C21.873,0.09 21.219,0.144 20.571,0.144C19.287,0.144 18.177,-0.114 17.241,-0.63C16.305,-1.146 15.591,-1.89 15.099,-2.862C14.607,-3.834 14.361,-4.998 14.361,-6.354C14.361,-7.686 14.607,-8.838 15.099,-9.81C15.591,-10.782 16.296,-11.529 17.214,-12.051C18.132,-12.573 19.209,-12.834 20.445,-12.834C21.285,-12.834 22.062,-12.711 22.776,-12.465C23.49,-12.219 24.099,-11.862 24.603,-11.394C24.843,-11.202 24.963,-10.962 24.963,-10.674C24.963,-10.458 24.903,-10.275 24.783,-10.125C24.663,-9.975 24.519,-9.9 24.351,-9.9C24.243,-9.9 24.147,-9.918 24.063,-9.954C23.979,-9.99 23.871,-10.05 23.739,-10.134C23.151,-10.566 22.617,-10.869 22.137,-11.043C21.657,-11.217 21.105,-11.304 20.481,-11.304C19.113,-11.304 18.069,-10.881 17.349,-10.035C16.629,-9.189 16.269,-7.962 16.269,-6.354C16.269,-4.71 16.638,-3.465 17.376,-2.619C18.114,-1.773 19.197,-1.35 20.625,-1.35C21.585,-1.35 22.509,-1.494 23.397,-1.782L23.397,-5.328L21.039,-5.328C20.799,-5.328 20.61,-5.391 20.472,-5.517C20.334,-5.643 20.265,-5.814 20.265,-6.03C20.265,-6.246 20.334,-6.417 20.472,-6.543C20.61,-6.669 20.799,-6.732 21.039,-6.732L24.333,-6.732C24.561,-6.732 24.744,-6.666 24.882,-6.534Z" style="fill-rule:nonzero;"/>
                    <path d="M28.092,-0.171C27.924,-0.345 27.84,-0.57 27.84,-0.846L27.84,-11.79C27.84,-12.066 27.921,-12.285 28.083,-12.447C28.245,-12.609 28.47,-12.69 28.758,-12.69L35.202,-12.69C35.778,-12.69 36.066,-12.438 36.066,-11.934C36.066,-11.43 35.778,-11.178 35.202,-11.178L29.676,-11.178L29.676,-7.2L34.842,-7.2C35.418,-7.2 35.706,-6.948 35.706,-6.444C35.706,-5.94 35.418,-5.688 34.842,-5.688L29.676,-5.688L29.676,-0.846C29.676,-0.558 29.595,-0.33 29.433,-0.162C29.271,0.006 29.046,0.09 28.758,0.09C28.482,0.09 28.26,0.003 28.092,-0.171Z" style="fill-rule:nonzero;"/>
                    <path d="M54.423,-12.654C54.567,-12.75 54.729,-12.798 54.909,-12.798C55.137,-12.798 55.338,-12.723 55.512,-12.573C55.686,-12.423 55.773,-12.228 55.773,-11.988C55.773,-11.856 55.749,-11.736 55.701,-11.628L51.723,-0.504C51.639,-0.3 51.507,-0.144 51.327,-0.036C51.147,0.072 50.949,0.126 50.733,0.126C50.529,0.126 50.337,0.072 50.157,-0.036C49.977,-0.144 49.851,-0.3 49.779,-0.504L46.503,-9.792L43.155,-0.504C43.083,-0.3 42.957,-0.144 42.777,-0.036C42.597,0.072 42.405,0.126 42.201,0.126C41.985,0.126 41.79,0.072 41.616,-0.036C41.442,-0.144 41.313,-0.3 41.229,-0.504L37.251,-11.628C37.203,-11.736 37.179,-11.856 37.179,-11.988C37.179,-12.228 37.269,-12.423 37.449,-12.573C37.629,-12.723 37.845,-12.798 38.097,-12.798C38.277,-12.798 38.442,-12.75 38.592,-12.654C38.742,-12.558 38.853,-12.414 38.925,-12.222L42.255,-2.646L45.639,-12.132C45.711,-12.336 45.828,-12.492 45.99,-12.6C46.152,-12.708 46.329,-12.762 46.521,-12.762C46.713,-12.762 46.887,-12.705 47.043,-12.591C47.199,-12.477 47.319,-12.318 47.403,-12.114L50.715,-2.556L54.099,-12.222C54.171,-12.414 54.279,-12.558 54.423,-12.654Z" style="fill-rule:nonzero;"/>
                    <path d="M70.167,-12.546C70.335,-12.39 70.419,-12.18 70.419,-11.916L70.419,-0.792C70.419,-0.516 70.338,-0.3 70.176,-0.144C70.014,0.012 69.795,0.09 69.519,0.09C69.243,0.09 69.024,0.012 68.862,-0.144C68.7,-0.3 68.619,-0.516 68.619,-0.792L68.619,-1.512C68.355,-0.984 67.971,-0.579 67.467,-0.297C66.963,-0.015 66.381,0.126 65.721,0.126C64.965,0.126 64.29,-0.066 63.696,-0.45C63.102,-0.834 62.64,-1.374 62.31,-2.07C61.98,-2.766 61.815,-3.564 61.815,-4.464C61.815,-5.376 61.98,-6.174 62.31,-6.858C62.64,-7.542 63.099,-8.07 63.687,-8.442C64.275,-8.814 64.953,-9 65.721,-9C66.381,-9 66.96,-8.859 67.458,-8.577C67.956,-8.295 68.337,-7.896 68.601,-7.38L68.601,-11.952C68.601,-12.204 68.682,-12.405 68.844,-12.555C69.006,-12.705 69.225,-12.78 69.501,-12.78C69.777,-12.78 69.999,-12.702 70.167,-12.546ZM67.971,-2.124C68.403,-2.664 68.619,-3.432 68.619,-4.428C68.619,-5.424 68.406,-6.192 67.98,-6.732C67.554,-7.272 66.945,-7.542 66.153,-7.542C65.361,-7.542 64.746,-7.275 64.308,-6.741C63.87,-6.207 63.651,-5.448 63.651,-4.464C63.651,-3.48 63.873,-2.709 64.317,-2.151C64.761,-1.593 65.373,-1.314 66.153,-1.314C66.933,-1.314 67.539,-1.584 67.971,-2.124Z" style="fill-rule:nonzero;"/>
                    <path d="M80.19,-2.016C80.298,-1.884 80.352,-1.716 80.352,-1.512C80.352,-1.164 80.136,-0.87 79.704,-0.63C79.284,-0.39 78.825,-0.204 78.327,-0.072C77.829,0.06 77.352,0.126 76.896,0.126C75.504,0.126 74.406,-0.279 73.602,-1.089C72.798,-1.899 72.396,-3.006 72.396,-4.41C72.396,-5.31 72.573,-6.108 72.927,-6.804C73.281,-7.5 73.779,-8.04 74.421,-8.424C75.063,-8.808 75.792,-9 76.608,-9C77.784,-9 78.714,-8.622 79.398,-7.866C80.082,-7.11 80.424,-6.09 80.424,-4.806C80.424,-4.326 80.208,-4.086 79.776,-4.086L74.214,-4.086C74.334,-2.226 75.228,-1.296 76.896,-1.296C77.34,-1.296 77.724,-1.356 78.048,-1.476C78.372,-1.596 78.714,-1.752 79.074,-1.944C79.11,-1.968 79.209,-2.019 79.371,-2.097C79.533,-2.175 79.668,-2.214 79.776,-2.214C79.944,-2.214 80.082,-2.148 80.19,-2.016ZM74.97,-7.002C74.55,-6.558 74.298,-5.934 74.214,-5.13L78.858,-5.13C78.822,-5.946 78.615,-6.573 78.237,-7.011C77.859,-7.449 77.328,-7.668 76.644,-7.668C75.948,-7.668 75.39,-7.446 74.97,-7.002Z" style="fill-rule:nonzero;"/>
                    <path d="M83.886,-0.432C83.244,-0.804 82.746,-1.332 82.392,-2.016C82.038,-2.7 81.861,-3.492 81.861,-4.392C81.861,-5.304 82.044,-6.108 82.41,-6.804C82.776,-7.5 83.289,-8.04 83.949,-8.424C84.609,-8.808 85.365,-9 86.217,-9C86.673,-9 87.132,-8.934 87.594,-8.802C88.056,-8.67 88.467,-8.49 88.827,-8.262C89.211,-7.998 89.403,-7.692 89.403,-7.344C89.403,-7.14 89.349,-6.969 89.241,-6.831C89.133,-6.693 88.995,-6.624 88.827,-6.624C88.719,-6.624 88.611,-6.651 88.503,-6.705C88.395,-6.759 88.257,-6.84 88.089,-6.948C87.789,-7.14 87.51,-7.287 87.252,-7.389C86.994,-7.491 86.685,-7.542 86.325,-7.542C85.509,-7.542 84.876,-7.266 84.426,-6.714C83.976,-6.162 83.751,-5.394 83.751,-4.41C83.751,-3.426 83.973,-2.667 84.417,-2.133C84.861,-1.599 85.491,-1.332 86.307,-1.332C86.667,-1.332 86.985,-1.386 87.261,-1.494C87.537,-1.602 87.819,-1.746 88.107,-1.926C88.239,-2.01 88.371,-2.082 88.503,-2.142C88.635,-2.202 88.755,-2.232 88.863,-2.232C89.031,-2.232 89.169,-2.163 89.277,-2.025C89.385,-1.887 89.439,-1.716 89.439,-1.512C89.439,-1.344 89.394,-1.191 89.304,-1.053C89.214,-0.915 89.061,-0.774 88.845,-0.63C88.485,-0.39 88.065,-0.204 87.585,-0.072C87.105,0.06 86.619,0.126 86.127,0.126C85.275,0.126 84.528,-0.06 83.886,-0.432Z" style="fill-rule:nonzero;"/>
                    <path d="M96.474,-8.226C96.474,-7.962 96.408,-7.764 96.276,-7.632C96.144,-7.5 95.916,-7.422 95.592,-7.398L95.052,-7.344C94.296,-7.272 93.735,-7.008 93.369,-6.552C93.003,-6.096 92.82,-5.544 92.82,-4.896L92.82,-0.774C92.82,-0.486 92.736,-0.27 92.568,-0.126C92.4,0.018 92.184,0.09 91.92,0.09C91.656,0.09 91.437,0.018 91.263,-0.126C91.089,-0.27 91.002,-0.486 91.002,-0.774L91.002,-8.1C91.002,-8.376 91.089,-8.589 91.263,-8.739C91.437,-8.889 91.656,-8.964 91.92,-8.964C92.16,-8.964 92.361,-8.889 92.523,-8.739C92.685,-8.589 92.766,-8.382 92.766,-8.118L92.766,-7.254C93.006,-7.782 93.354,-8.184 93.81,-8.46C94.266,-8.736 94.782,-8.898 95.358,-8.946L95.61,-8.964C96.186,-9 96.474,-8.754 96.474,-8.226Z" style="fill-rule:nonzero;"/>
                    <path d="M104.634,-8.82C104.772,-8.904 104.919,-8.946 105.075,-8.946C105.303,-8.946 105.504,-8.868 105.678,-8.712C105.852,-8.556 105.939,-8.37 105.939,-8.154C105.939,-8.034 105.915,-7.92 105.867,-7.812L100.863,2.808C100.791,2.976 100.686,3.105 100.548,3.195C100.41,3.285 100.263,3.33 100.107,3.33C99.891,3.33 99.696,3.258 99.522,3.114C99.348,2.97 99.261,2.79 99.261,2.574C99.261,2.478 99.291,2.358 99.351,2.214L100.593,-0.432L97.119,-7.812C97.071,-7.908 97.047,-8.016 97.047,-8.136C97.047,-8.364 97.143,-8.556 97.335,-8.712C97.527,-8.868 97.743,-8.946 97.983,-8.946C98.343,-8.946 98.601,-8.778 98.757,-8.442L101.547,-2.25L104.319,-8.424C104.391,-8.604 104.496,-8.736 104.634,-8.82Z" style="fill-rule:nonzero;"/>
                    <path d="M114.117,-8.424C114.711,-8.04 115.173,-7.5 115.503,-6.804C115.833,-6.108 115.998,-5.304 115.998,-4.392C115.998,-3.492 115.836,-2.7 115.512,-2.016C115.188,-1.332 114.729,-0.804 114.135,-0.432C113.541,-0.06 112.86,0.126 112.092,0.126C111.432,0.126 110.85,-0.015 110.346,-0.297C109.842,-0.579 109.458,-0.984 109.194,-1.512L109.194,2.502C109.194,2.754 109.113,2.955 108.951,3.105C108.789,3.255 108.576,3.33 108.312,3.33C108.036,3.33 107.811,3.252 107.637,3.096C107.463,2.94 107.376,2.73 107.376,2.466L107.376,-8.082C107.376,-8.346 107.46,-8.559 107.628,-8.721C107.796,-8.883 108.018,-8.964 108.294,-8.964C108.558,-8.964 108.774,-8.883 108.942,-8.721C109.11,-8.559 109.194,-8.346 109.194,-8.082L109.194,-7.344C109.458,-7.872 109.842,-8.28 110.346,-8.568C110.85,-8.856 111.432,-9 112.092,-9C112.848,-9 113.523,-8.808 114.117,-8.424ZM113.496,-2.115C113.928,-2.649 114.144,-3.408 114.144,-4.392C114.144,-5.388 113.925,-6.162 113.487,-6.714C113.049,-7.266 112.44,-7.542 111.66,-7.542C110.868,-7.542 110.259,-7.272 109.833,-6.732C109.407,-6.192 109.194,-5.424 109.194,-4.428C109.194,-3.432 109.407,-2.664 109.833,-2.124C110.259,-1.584 110.868,-1.314 111.66,-1.314C112.452,-1.314 113.064,-1.581 113.496,-2.115Z" style="fill-rule:nonzero;"/>
                    <path d="M122.79,-1.089C122.904,-0.975 122.961,-0.816 122.961,-0.612C122.961,-0.372 122.868,-0.189 122.682,-0.063C122.496,0.063 122.223,0.114 121.863,0.09L121.377,0.054C120.405,-0.018 119.679,-0.315 119.199,-0.837C118.719,-1.359 118.479,-2.13 118.479,-3.15L118.479,-7.38L117.399,-7.38C116.871,-7.38 116.607,-7.614 116.607,-8.082C116.607,-8.298 116.676,-8.469 116.814,-8.595C116.952,-8.721 117.147,-8.784 117.399,-8.784L118.479,-8.784L118.479,-10.638C118.479,-10.914 118.56,-11.13 118.722,-11.286C118.884,-11.442 119.103,-11.52 119.379,-11.52C119.655,-11.52 119.877,-11.442 120.045,-11.286C120.213,-11.13 120.297,-10.914 120.297,-10.638L120.297,-8.784L122.079,-8.784C122.331,-8.784 122.526,-8.721 122.664,-8.595C122.802,-8.469 122.871,-8.298 122.871,-8.082C122.871,-7.854 122.802,-7.68 122.664,-7.56C122.526,-7.44 122.331,-7.38 122.079,-7.38L120.297,-7.38L120.297,-3.024C120.297,-2.46 120.414,-2.046 120.648,-1.782C120.882,-1.518 121.239,-1.368 121.719,-1.332L122.223,-1.296C122.487,-1.272 122.676,-1.203 122.79,-1.089Z" style="fill-rule:nonzero;"/>
                    <path d="M124.272,-0.63C124.056,-0.762 123.903,-0.9 123.813,-1.044C123.723,-1.188 123.678,-1.35 123.678,-1.53C123.678,-1.722 123.732,-1.884 123.84,-2.016C123.948,-2.148 124.086,-2.214 124.254,-2.214C124.41,-2.214 124.656,-2.118 124.992,-1.926C125.352,-1.734 125.703,-1.578 126.045,-1.458C126.387,-1.338 126.816,-1.278 127.332,-1.278C127.908,-1.278 128.358,-1.38 128.682,-1.584C129.006,-1.788 129.168,-2.076 129.168,-2.448C129.168,-2.688 129.105,-2.88 128.979,-3.024C128.853,-3.168 128.634,-3.297 128.322,-3.411C128.01,-3.525 127.548,-3.648 126.936,-3.78C125.88,-4.008 125.121,-4.317 124.659,-4.707C124.197,-5.097 123.966,-5.628 123.966,-6.3C123.966,-6.816 124.116,-7.281 124.416,-7.695C124.716,-8.109 125.13,-8.43 125.658,-8.658C126.186,-8.886 126.786,-9 127.458,-9C127.938,-9 128.406,-8.937 128.862,-8.811C129.318,-8.685 129.72,-8.502 130.068,-8.262C130.464,-7.998 130.662,-7.692 130.662,-7.344C130.662,-7.152 130.605,-6.99 130.491,-6.858C130.377,-6.726 130.242,-6.66 130.086,-6.66C129.978,-6.66 129.87,-6.684 129.762,-6.732C129.654,-6.78 129.51,-6.858 129.33,-6.966C129.006,-7.158 128.703,-7.308 128.421,-7.416C128.139,-7.524 127.788,-7.578 127.368,-7.578C126.864,-7.578 126.459,-7.47 126.153,-7.254C125.847,-7.038 125.694,-6.744 125.694,-6.372C125.694,-6.036 125.835,-5.775 126.117,-5.589C126.399,-5.403 126.93,-5.226 127.71,-5.058C128.514,-4.89 129.144,-4.698 129.6,-4.482C130.056,-4.266 130.383,-3.999 130.581,-3.681C130.779,-3.363 130.878,-2.958 130.878,-2.466C130.878,-1.686 130.551,-1.059 129.897,-0.585C129.243,-0.111 128.37,0.126 127.278,0.126C126.054,0.126 125.052,-0.126 124.272,-0.63Z" style="fill-rule:nonzero;"/>
                    <path d="M143.823,-8.118C144.393,-7.53 144.678,-6.636 144.678,-5.436L144.678,-0.774C144.678,-0.498 144.6,-0.285 144.444,-0.135C144.288,0.015 144.072,0.09 143.796,0.09C143.532,0.09 143.322,0.012 143.166,-0.144C143.01,-0.3 142.932,-0.51 142.932,-0.774L142.932,-1.44C142.704,-0.936 142.365,-0.549 141.915,-0.279C141.465,-0.009 140.94,0.126 140.34,0.126C139.764,0.126 139.236,0.009 138.756,-0.225C138.276,-0.459 137.901,-0.786 137.631,-1.206C137.361,-1.626 137.226,-2.094 137.226,-2.61C137.226,-3.246 137.391,-3.747 137.721,-4.113C138.051,-4.479 138.597,-4.74 139.359,-4.896C140.121,-5.052 141.168,-5.13 142.5,-5.13L142.914,-5.13L142.914,-5.652C142.914,-6.324 142.776,-6.81 142.5,-7.11C142.224,-7.41 141.78,-7.56 141.168,-7.56C140.748,-7.56 140.352,-7.506 139.98,-7.398C139.608,-7.29 139.2,-7.134 138.756,-6.93C138.432,-6.75 138.204,-6.66 138.072,-6.66C137.892,-6.66 137.745,-6.726 137.631,-6.858C137.517,-6.99 137.46,-7.158 137.46,-7.362C137.46,-7.542 137.511,-7.701 137.613,-7.839C137.715,-7.977 137.88,-8.112 138.108,-8.244C138.528,-8.472 139.02,-8.655 139.584,-8.793C140.148,-8.931 140.694,-9 141.222,-9C142.386,-9 143.253,-8.706 143.823,-8.118ZM142.284,-1.899C142.704,-2.349 142.914,-2.928 142.914,-3.636L142.914,-4.104L142.59,-4.104C141.654,-4.104 140.934,-4.062 140.43,-3.978C139.926,-3.894 139.566,-3.753 139.35,-3.555C139.134,-3.357 139.026,-3.072 139.026,-2.7C139.026,-2.268 139.182,-1.914 139.494,-1.638C139.806,-1.362 140.196,-1.224 140.664,-1.224C141.324,-1.224 141.864,-1.449 142.284,-1.899Z" style="fill-rule:nonzero;"/>
                    <path d="M154.989,-5.454L154.989,-0.774C154.989,-0.498 154.908,-0.285 154.746,-0.135C154.584,0.015 154.359,0.09 154.071,0.09C153.795,0.09 153.576,0.012 153.414,-0.144C153.252,-0.3 153.171,-0.51 153.171,-0.774L153.171,-5.364C153.171,-6.108 153.024,-6.654 152.73,-7.002C152.436,-7.35 151.977,-7.524 151.353,-7.524C150.621,-7.524 150.033,-7.296 149.589,-6.84C149.145,-6.384 148.923,-5.772 148.923,-5.004L148.923,-0.774C148.923,-0.51 148.842,-0.3 148.68,-0.144C148.518,0.012 148.299,0.09 148.023,0.09C147.747,0.09 147.525,0.012 147.357,-0.144C147.189,-0.3 147.105,-0.51 147.105,-0.774L147.105,-8.1C147.105,-8.352 147.192,-8.559 147.366,-8.721C147.54,-8.883 147.759,-8.964 148.023,-8.964C148.287,-8.964 148.497,-8.886 148.653,-8.73C148.809,-8.574 148.887,-8.37 148.887,-8.118L148.887,-7.38C149.175,-7.908 149.577,-8.31 150.093,-8.586C150.609,-8.862 151.191,-9 151.839,-9C153.939,-9 154.989,-7.818 154.989,-5.454Z" style="fill-rule:nonzero;"/>
                    <path d="M165.264,-12.546C165.432,-12.39 165.516,-12.18 165.516,-11.916L165.516,-0.792C165.516,-0.516 165.435,-0.3 165.273,-0.144C165.111,0.012 164.892,0.09 164.616,0.09C164.34,0.09 164.121,0.012 163.959,-0.144C163.797,-0.3 163.716,-0.516 163.716,-0.792L163.716,-1.512C163.452,-0.984 163.068,-0.579 162.564,-0.297C162.06,-0.015 161.478,0.126 160.818,0.126C160.062,0.126 159.387,-0.066 158.793,-0.45C158.199,-0.834 157.737,-1.374 157.407,-2.07C157.077,-2.766 156.912,-3.564 156.912,-4.464C156.912,-5.376 157.077,-6.174 157.407,-6.858C157.737,-7.542 158.196,-8.07 158.784,-8.442C159.372,-8.814 160.05,-9 160.818,-9C161.478,-9 162.057,-8.859 162.555,-8.577C163.053,-8.295 163.434,-7.896 163.698,-7.38L163.698,-11.952C163.698,-12.204 163.779,-12.405 163.941,-12.555C164.103,-12.705 164.322,-12.78 164.598,-12.78C164.874,-12.78 165.096,-12.702 165.264,-12.546ZM163.068,-2.124C163.5,-2.664 163.716,-3.432 163.716,-4.428C163.716,-5.424 163.503,-6.192 163.077,-6.732C162.651,-7.272 162.042,-7.542 161.25,-7.542C160.458,-7.542 159.843,-7.275 159.405,-6.741C158.967,-6.207 158.748,-5.448 158.748,-4.464C158.748,-3.48 158.97,-2.709 159.414,-2.151C159.858,-1.593 160.47,-1.314 161.25,-1.314C162.03,-1.314 162.636,-1.584 163.068,-2.124Z" style="fill-rule:nonzero;"/>
                    <path d="M172.953,-0.126C172.779,-0.27 172.692,-0.486 172.692,-0.774L172.692,-8.082C172.692,-8.37 172.779,-8.589 172.953,-8.739C173.127,-8.889 173.346,-8.964 173.61,-8.964C173.874,-8.964 174.09,-8.889 174.258,-8.739C174.426,-8.589 174.51,-8.37 174.51,-8.082L174.51,-0.774C174.51,-0.486 174.426,-0.27 174.258,-0.126C174.09,0.018 173.874,0.09 173.61,0.09C173.346,0.09 173.127,0.018 172.953,-0.126ZM172.782,-11.016C172.578,-11.208 172.476,-11.46 172.476,-11.772C172.476,-12.084 172.578,-12.333 172.782,-12.519C172.986,-12.705 173.262,-12.798 173.61,-12.798C173.946,-12.798 174.219,-12.705 174.429,-12.519C174.639,-12.333 174.744,-12.084 174.744,-11.772C174.744,-11.46 174.642,-11.208 174.438,-11.016C174.234,-10.824 173.958,-10.728 173.61,-10.728C173.262,-10.728 172.986,-10.824 172.782,-11.016Z" style="fill-rule:nonzero;"/>
                    <path d="M184.875,-5.454L184.875,-0.774C184.875,-0.498 184.794,-0.285 184.632,-0.135C184.47,0.015 184.245,0.09 183.957,0.09C183.681,0.09 183.462,0.012 183.3,-0.144C183.138,-0.3 183.057,-0.51 183.057,-0.774L183.057,-5.364C183.057,-6.108 182.91,-6.654 182.616,-7.002C182.322,-7.35 181.863,-7.524 181.239,-7.524C180.507,-7.524 179.919,-7.296 179.475,-6.84C179.031,-6.384 178.809,-5.772 178.809,-5.004L178.809,-0.774C178.809,-0.51 178.728,-0.3 178.566,-0.144C178.404,0.012 178.185,0.09 177.909,0.09C177.633,0.09 177.411,0.012 177.243,-0.144C177.075,-0.3 176.991,-0.51 176.991,-0.774L176.991,-8.1C176.991,-8.352 177.078,-8.559 177.252,-8.721C177.426,-8.883 177.645,-8.964 177.909,-8.964C178.173,-8.964 178.383,-8.886 178.539,-8.73C178.695,-8.574 178.773,-8.37 178.773,-8.118L178.773,-7.38C179.061,-7.908 179.463,-8.31 179.979,-8.586C180.495,-8.862 181.077,-9 181.725,-9C183.825,-9 184.875,-7.818 184.875,-5.454Z" style="fill-rule:nonzero;"/>
                    <path d="M187.356,-0.63C187.14,-0.762 186.987,-0.9 186.897,-1.044C186.807,-1.188 186.762,-1.35 186.762,-1.53C186.762,-1.722 186.816,-1.884 186.924,-2.016C187.032,-2.148 187.17,-2.214 187.338,-2.214C187.494,-2.214 187.74,-2.118 188.076,-1.926C188.436,-1.734 188.787,-1.578 189.129,-1.458C189.471,-1.338 189.9,-1.278 190.416,-1.278C190.992,-1.278 191.442,-1.38 191.766,-1.584C192.09,-1.788 192.252,-2.076 192.252,-2.448C192.252,-2.688 192.189,-2.88 192.063,-3.024C191.937,-3.168 191.718,-3.297 191.406,-3.411C191.094,-3.525 190.632,-3.648 190.02,-3.78C188.964,-4.008 188.205,-4.317 187.743,-4.707C187.281,-5.097 187.05,-5.628 187.05,-6.3C187.05,-6.816 187.2,-7.281 187.5,-7.695C187.8,-8.109 188.214,-8.43 188.742,-8.658C189.27,-8.886 189.87,-9 190.542,-9C191.022,-9 191.49,-8.937 191.946,-8.811C192.402,-8.685 192.804,-8.502 193.152,-8.262C193.548,-7.998 193.746,-7.692 193.746,-7.344C193.746,-7.152 193.689,-6.99 193.575,-6.858C193.461,-6.726 193.326,-6.66 193.17,-6.66C193.062,-6.66 192.954,-6.684 192.846,-6.732C192.738,-6.78 192.594,-6.858 192.414,-6.966C192.09,-7.158 191.787,-7.308 191.505,-7.416C191.223,-7.524 190.872,-7.578 190.452,-7.578C189.948,-7.578 189.543,-7.47 189.237,-7.254C188.931,-7.038 188.778,-6.744 188.778,-6.372C188.778,-6.036 188.919,-5.775 189.201,-5.589C189.483,-5.403 190.014,-5.226 190.794,-5.058C191.598,-4.89 192.228,-4.698 192.684,-4.482C193.14,-4.266 193.467,-3.999 193.665,-3.681C193.863,-3.363 193.962,-2.958 193.962,-2.466C193.962,-1.686 193.635,-1.059 192.981,-0.585C192.327,-0.111 191.454,0.126 190.362,0.126C189.138,0.126 188.136,-0.126 187.356,-0.63Z" style="fill-rule:nonzero;"/>
                    <path d="M202.661,-8.424C203.255,-8.04 203.717,-7.5 204.047,-6.804C204.377,-6.108 204.542,-5.304 204.542,-4.392C204.542,-3.492 204.38,-2.7 204.056,-2.016C203.732,-1.332 203.273,-0.804 202.679,-0.432C202.085,-0.06 201.404,0.126 200.636,0.126C199.976,0.126 199.394,-0.015 198.89,-0.297C198.386,-0.579 198.002,-0.984 197.738,-1.512L197.738,2.502C197.738,2.754 197.657,2.955 197.495,3.105C197.333,3.255 197.12,3.33 196.856,3.33C196.58,3.33 196.355,3.252 196.181,3.096C196.007,2.94 195.92,2.73 195.92,2.466L195.92,-8.082C195.92,-8.346 196.004,-8.559 196.172,-8.721C196.34,-8.883 196.562,-8.964 196.838,-8.964C197.102,-8.964 197.318,-8.883 197.486,-8.721C197.654,-8.559 197.738,-8.346 197.738,-8.082L197.738,-7.344C198.002,-7.872 198.386,-8.28 198.89,-8.568C199.394,-8.856 199.976,-9 200.636,-9C201.392,-9 202.067,-8.808 202.661,-8.424ZM202.04,-2.115C202.472,-2.649 202.688,-3.408 202.688,-4.392C202.688,-5.388 202.469,-6.162 202.031,-6.714C201.593,-7.266 200.984,-7.542 200.204,-7.542C199.412,-7.542 198.803,-7.272 198.377,-6.732C197.951,-6.192 197.738,-5.424 197.738,-4.428C197.738,-3.432 197.951,-2.664 198.377,-2.124C198.803,-1.584 199.412,-1.314 200.204,-1.314C200.996,-1.314 201.608,-1.581 202.04,-2.115Z" style="fill-rule:nonzero;"/>
                    <path d="M213.791,-2.016C213.899,-1.884 213.953,-1.716 213.953,-1.512C213.953,-1.164 213.737,-0.87 213.305,-0.63C212.885,-0.39 212.426,-0.204 211.928,-0.072C211.43,0.06 210.953,0.126 210.497,0.126C209.105,0.126 208.007,-0.279 207.203,-1.089C206.399,-1.899 205.997,-3.006 205.997,-4.41C205.997,-5.31 206.174,-6.108 206.528,-6.804C206.882,-7.5 207.38,-8.04 208.022,-8.424C208.664,-8.808 209.393,-9 210.209,-9C211.385,-9 212.315,-8.622 212.999,-7.866C213.683,-7.11 214.025,-6.09 214.025,-4.806C214.025,-4.326 213.809,-4.086 213.377,-4.086L207.815,-4.086C207.935,-2.226 208.829,-1.296 210.497,-1.296C210.941,-1.296 211.325,-1.356 211.649,-1.476C211.973,-1.596 212.315,-1.752 212.675,-1.944C212.711,-1.968 212.81,-2.019 212.972,-2.097C213.134,-2.175 213.269,-2.214 213.377,-2.214C213.545,-2.214 213.683,-2.148 213.791,-2.016ZM208.571,-7.002C208.151,-6.558 207.899,-5.934 207.815,-5.13L212.459,-5.13C212.423,-5.946 212.216,-6.573 211.838,-7.011C211.46,-7.449 210.929,-7.668 210.245,-7.668C209.549,-7.668 208.991,-7.446 208.571,-7.002Z" style="fill-rule:nonzero;"/>
                    <path d="M217.487,-0.432C216.845,-0.804 216.347,-1.332 215.993,-2.016C215.639,-2.7 215.462,-3.492 215.462,-4.392C215.462,-5.304 215.645,-6.108 216.011,-6.804C216.377,-7.5 216.89,-8.04 217.55,-8.424C218.21,-8.808 218.966,-9 219.818,-9C220.274,-9 220.733,-8.934 221.195,-8.802C221.657,-8.67 222.068,-8.49 222.428,-8.262C222.812,-7.998 223.004,-7.692 223.004,-7.344C223.004,-7.14 222.95,-6.969 222.842,-6.831C222.734,-6.693 222.596,-6.624 222.428,-6.624C222.32,-6.624 222.212,-6.651 222.104,-6.705C221.996,-6.759 221.858,-6.84 221.69,-6.948C221.39,-7.14 221.111,-7.287 220.853,-7.389C220.595,-7.491 220.286,-7.542 219.926,-7.542C219.11,-7.542 218.477,-7.266 218.027,-6.714C217.577,-6.162 217.352,-5.394 217.352,-4.41C217.352,-3.426 217.574,-2.667 218.018,-2.133C218.462,-1.599 219.092,-1.332 219.908,-1.332C220.268,-1.332 220.586,-1.386 220.862,-1.494C221.138,-1.602 221.42,-1.746 221.708,-1.926C221.84,-2.01 221.972,-2.082 222.104,-2.142C222.236,-2.202 222.356,-2.232 222.464,-2.232C222.632,-2.232 222.77,-2.163 222.878,-2.025C222.986,-1.887 223.04,-1.716 223.04,-1.512C223.04,-1.344 222.995,-1.191 222.905,-1.053C222.815,-0.915 222.662,-0.774 222.446,-0.63C222.086,-0.39 221.666,-0.204 221.186,-0.072C220.706,0.06 220.22,0.126 219.728,0.126C218.876,0.126 218.129,-0.06 217.487,-0.432Z" style="fill-rule:nonzero;"/>
                    <path d="M229.508,-1.089C229.622,-0.975 229.679,-0.816 229.679,-0.612C229.679,-0.372 229.586,-0.189 229.4,-0.063C229.214,0.063 228.941,0.114 228.581,0.09L228.095,0.054C227.123,-0.018 226.397,-0.315 225.917,-0.837C225.437,-1.359 225.197,-2.13 225.197,-3.15L225.197,-7.38L224.117,-7.38C223.589,-7.38 223.325,-7.614 223.325,-8.082C223.325,-8.298 223.394,-8.469 223.532,-8.595C223.67,-8.721 223.865,-8.784 224.117,-8.784L225.197,-8.784L225.197,-10.638C225.197,-10.914 225.278,-11.13 225.44,-11.286C225.602,-11.442 225.821,-11.52 226.097,-11.52C226.373,-11.52 226.595,-11.442 226.763,-11.286C226.931,-11.13 227.015,-10.914 227.015,-10.638L227.015,-8.784L228.797,-8.784C229.049,-8.784 229.244,-8.721 229.382,-8.595C229.52,-8.469 229.589,-8.298 229.589,-8.082C229.589,-7.854 229.52,-7.68 229.382,-7.56C229.244,-7.44 229.049,-7.38 228.797,-7.38L227.015,-7.38L227.015,-3.024C227.015,-2.46 227.132,-2.046 227.366,-1.782C227.6,-1.518 227.957,-1.368 228.437,-1.332L228.941,-1.296C229.205,-1.272 229.394,-1.203 229.508,-1.089Z" style="fill-rule:nonzero;"/>
                    <path d="M241.922,-8.118C242.492,-7.53 242.777,-6.636 242.777,-5.436L242.777,-0.774C242.777,-0.498 242.699,-0.285 242.543,-0.135C242.387,0.015 242.171,0.09 241.895,0.09C241.631,0.09 241.421,0.012 241.265,-0.144C241.109,-0.3 241.031,-0.51 241.031,-0.774L241.031,-1.44C240.803,-0.936 240.464,-0.549 240.014,-0.279C239.564,-0.009 239.039,0.126 238.439,0.126C237.863,0.126 237.335,0.009 236.855,-0.225C236.375,-0.459 236,-0.786 235.73,-1.206C235.46,-1.626 235.325,-2.094 235.325,-2.61C235.325,-3.246 235.49,-3.747 235.82,-4.113C236.15,-4.479 236.696,-4.74 237.458,-4.896C238.22,-5.052 239.267,-5.13 240.599,-5.13L241.013,-5.13L241.013,-5.652C241.013,-6.324 240.875,-6.81 240.599,-7.11C240.323,-7.41 239.879,-7.56 239.267,-7.56C238.847,-7.56 238.451,-7.506 238.079,-7.398C237.707,-7.29 237.299,-7.134 236.855,-6.93C236.531,-6.75 236.303,-6.66 236.171,-6.66C235.991,-6.66 235.844,-6.726 235.73,-6.858C235.616,-6.99 235.559,-7.158 235.559,-7.362C235.559,-7.542 235.61,-7.701 235.712,-7.839C235.814,-7.977 235.979,-8.112 236.207,-8.244C236.627,-8.472 237.119,-8.655 237.683,-8.793C238.247,-8.931 238.793,-9 239.321,-9C240.485,-9 241.352,-8.706 241.922,-8.118ZM240.383,-1.899C240.803,-2.349 241.013,-2.928 241.013,-3.636L241.013,-4.104L240.689,-4.104C239.753,-4.104 239.033,-4.062 238.529,-3.978C238.025,-3.894 237.665,-3.753 237.449,-3.555C237.233,-3.357 237.125,-3.072 237.125,-2.7C237.125,-2.268 237.281,-1.914 237.593,-1.638C237.905,-1.362 238.295,-1.224 238.763,-1.224C239.423,-1.224 239.963,-1.449 240.383,-1.899Z" style="fill-rule:nonzero;"/>
                    <path d="M245.465,-0.126C245.291,-0.27 245.204,-0.486 245.204,-0.774L245.204,-11.898C245.204,-12.186 245.291,-12.405 245.465,-12.555C245.639,-12.705 245.858,-12.78 246.122,-12.78C246.386,-12.78 246.602,-12.705 246.77,-12.555C246.938,-12.405 247.022,-12.186 247.022,-11.898L247.022,-0.774C247.022,-0.486 246.938,-0.27 246.77,-0.126C246.602,0.018 246.386,0.09 246.122,0.09C245.858,0.09 245.639,0.018 245.465,-0.126Z" style="fill-rule:nonzero;"/>
                    <path d="M249.764,-0.126C249.59,-0.27 249.503,-0.486 249.503,-0.774L249.503,-11.898C249.503,-12.186 249.59,-12.405 249.764,-12.555C249.938,-12.705 250.157,-12.78 250.421,-12.78C250.685,-12.78 250.901,-12.705 251.069,-12.555C251.237,-12.405 251.321,-12.186 251.321,-11.898L251.321,-0.774C251.321,-0.486 251.237,-0.27 251.069,-0.126C250.901,0.018 250.685,0.09 250.421,0.09C250.157,0.09 249.938,0.018 249.764,-0.126Z" style="fill-rule:nonzero;"/>
                    <path d="M263.366,-1.089C263.48,-0.975 263.537,-0.816 263.537,-0.612C263.537,-0.372 263.444,-0.189 263.258,-0.063C263.072,0.063 262.799,0.114 262.439,0.09L261.953,0.054C260.981,-0.018 260.255,-0.315 259.775,-0.837C259.295,-1.359 259.055,-2.13 259.055,-3.15L259.055,-7.38L257.975,-7.38C257.447,-7.38 257.183,-7.614 257.183,-8.082C257.183,-8.298 257.252,-8.469 257.39,-8.595C257.528,-8.721 257.723,-8.784 257.975,-8.784L259.055,-8.784L259.055,-10.638C259.055,-10.914 259.136,-11.13 259.298,-11.286C259.46,-11.442 259.679,-11.52 259.955,-11.52C260.231,-11.52 260.453,-11.442 260.621,-11.286C260.789,-11.13 260.873,-10.914 260.873,-10.638L260.873,-8.784L262.655,-8.784C262.907,-8.784 263.102,-8.721 263.24,-8.595C263.378,-8.469 263.447,-8.298 263.447,-8.082C263.447,-7.854 263.378,-7.68 263.24,-7.56C263.102,-7.44 262.907,-7.38 262.655,-7.38L260.873,-7.38L260.873,-3.024C260.873,-2.46 260.99,-2.046 261.224,-1.782C261.458,-1.518 261.815,-1.368 262.295,-1.332L262.799,-1.296C263.063,-1.272 263.252,-1.203 263.366,-1.089Z" style="fill-rule:nonzero;"/>
                    <path d="M270.266,-8.226C270.266,-7.962 270.2,-7.764 270.068,-7.632C269.936,-7.5 269.708,-7.422 269.384,-7.398L268.844,-7.344C268.088,-7.272 267.527,-7.008 267.161,-6.552C266.795,-6.096 266.612,-5.544 266.612,-4.896L266.612,-0.774C266.612,-0.486 266.528,-0.27 266.36,-0.126C266.192,0.018 265.976,0.09 265.712,0.09C265.448,0.09 265.229,0.018 265.055,-0.126C264.881,-0.27 264.794,-0.486 264.794,-0.774L264.794,-8.1C264.794,-8.376 264.881,-8.589 265.055,-8.739C265.229,-8.889 265.448,-8.964 265.712,-8.964C265.952,-8.964 266.153,-8.889 266.315,-8.739C266.477,-8.589 266.558,-8.382 266.558,-8.118L266.558,-7.254C266.798,-7.782 267.146,-8.184 267.602,-8.46C268.058,-8.736 268.574,-8.898 269.15,-8.946L269.402,-8.964C269.978,-9 270.266,-8.754 270.266,-8.226Z" style="fill-rule:nonzero;"/>
                    <path d="M277.562,-8.118C278.132,-7.53 278.417,-6.636 278.417,-5.436L278.417,-0.774C278.417,-0.498 278.339,-0.285 278.183,-0.135C278.027,0.015 277.811,0.09 277.535,0.09C277.271,0.09 277.061,0.012 276.905,-0.144C276.749,-0.3 276.671,-0.51 276.671,-0.774L276.671,-1.44C276.443,-0.936 276.104,-0.549 275.654,-0.279C275.204,-0.009 274.679,0.126 274.079,0.126C273.503,0.126 272.975,0.009 272.495,-0.225C272.015,-0.459 271.64,-0.786 271.37,-1.206C271.1,-1.626 270.965,-2.094 270.965,-2.61C270.965,-3.246 271.13,-3.747 271.46,-4.113C271.79,-4.479 272.336,-4.74 273.098,-4.896C273.86,-5.052 274.907,-5.13 276.239,-5.13L276.653,-5.13L276.653,-5.652C276.653,-6.324 276.515,-6.81 276.239,-7.11C275.963,-7.41 275.519,-7.56 274.907,-7.56C274.487,-7.56 274.091,-7.506 273.719,-7.398C273.347,-7.29 272.939,-7.134 272.495,-6.93C272.171,-6.75 271.943,-6.66 271.811,-6.66C271.631,-6.66 271.484,-6.726 271.37,-6.858C271.256,-6.99 271.199,-7.158 271.199,-7.362C271.199,-7.542 271.25,-7.701 271.352,-7.839C271.454,-7.977 271.619,-8.112 271.847,-8.244C272.267,-8.472 272.759,-8.655 273.323,-8.793C273.887,-8.931 274.433,-9 274.961,-9C276.125,-9 276.992,-8.706 277.562,-8.118ZM276.023,-1.899C276.443,-2.349 276.653,-2.928 276.653,-3.636L276.653,-4.104L276.329,-4.104C275.393,-4.104 274.673,-4.062 274.169,-3.978C273.665,-3.894 273.305,-3.753 273.089,-3.555C272.873,-3.357 272.765,-3.072 272.765,-2.7C272.765,-2.268 272.921,-1.914 273.233,-1.638C273.545,-1.362 273.935,-1.224 274.403,-1.224C275.063,-1.224 275.603,-1.449 276.023,-1.899Z" style="fill-rule:nonzero;"/>
                    <path d="M283.652,-10.737C283.364,-10.407 283.22,-9.924 283.22,-9.288L283.22,-8.784L285.002,-8.784C285.254,-8.784 285.449,-8.721 285.587,-8.595C285.725,-8.469 285.794,-8.298 285.794,-8.082C285.794,-7.866 285.725,-7.695 285.587,-7.569C285.449,-7.443 285.254,-7.38 285.002,-7.38L283.22,-7.38L283.22,-0.792C283.22,-0.504 283.133,-0.285 282.959,-0.135C282.785,0.015 282.566,0.09 282.302,0.09C282.038,0.09 281.822,0.015 281.654,-0.135C281.486,-0.285 281.402,-0.504 281.402,-0.792L281.402,-7.38L280.322,-7.38C280.07,-7.38 279.875,-7.443 279.737,-7.569C279.599,-7.695 279.53,-7.866 279.53,-8.082C279.53,-8.298 279.599,-8.469 279.737,-8.595C279.875,-8.721 280.07,-8.784 280.322,-8.784L281.402,-8.784L281.402,-9.018C281.402,-10.122 281.684,-10.989 282.248,-11.619C282.812,-12.249 283.61,-12.6 284.642,-12.672L285.11,-12.708C285.494,-12.732 285.773,-12.69 285.947,-12.582C286.121,-12.474 286.208,-12.3 286.208,-12.06C286.208,-11.64 285.956,-11.4 285.452,-11.34L284.984,-11.304C284.384,-11.256 283.94,-11.067 283.652,-10.737Z" style="fill-rule:nonzero;"/>
                    <path d="M293.099,-11.016C292.895,-11.208 292.793,-11.46 292.793,-11.772C292.793,-12.084 292.895,-12.333 293.099,-12.519C293.303,-12.705 293.579,-12.798 293.927,-12.798C294.263,-12.798 294.536,-12.705 294.746,-12.519C294.956,-12.333 295.061,-12.084 295.061,-11.772C295.061,-11.46 294.959,-11.208 294.755,-11.016C294.551,-10.824 294.275,-10.728 293.927,-10.728C293.579,-10.728 293.303,-10.824 293.099,-11.016ZM294.62,-8.595C294.758,-8.469 294.827,-8.298 294.827,-8.082L294.827,-0.774C294.827,-0.486 294.743,-0.27 294.575,-0.126C294.407,0.018 294.191,0.09 293.927,0.09C293.663,0.09 293.444,0.018 293.27,-0.126C293.096,-0.27 293.009,-0.486 293.009,-0.774L293.009,-7.38L289.247,-7.38L289.247,-0.792C289.247,-0.504 289.16,-0.285 288.986,-0.135C288.812,0.015 288.593,0.09 288.329,0.09C288.065,0.09 287.849,0.015 287.681,-0.135C287.513,-0.285 287.429,-0.504 287.429,-0.792L287.429,-7.38L286.349,-7.38C286.097,-7.38 285.902,-7.443 285.764,-7.569C285.626,-7.695 285.557,-7.866 285.557,-8.082C285.557,-8.298 285.626,-8.469 285.764,-8.595C285.902,-8.721 286.097,-8.784 286.349,-8.784L287.429,-8.784L287.429,-8.982C287.429,-10.086 287.711,-10.953 288.275,-11.583C288.839,-12.213 289.637,-12.576 290.669,-12.672L291.101,-12.708L291.335,-12.726C291.863,-12.726 292.127,-12.504 292.127,-12.06C292.127,-11.64 291.893,-11.4 291.425,-11.34L291.011,-11.304C290.411,-11.256 289.967,-11.067 289.679,-10.737C289.391,-10.407 289.247,-9.924 289.247,-9.288L289.247,-8.784L294.035,-8.784C294.287,-8.784 294.482,-8.721 294.62,-8.595Z" style="fill-rule:nonzero;"/>
                    <path d="M298.829,-0.432C298.187,-0.804 297.689,-1.332 297.335,-2.016C296.981,-2.7 296.804,-3.492 296.804,-4.392C296.804,-5.304 296.987,-6.108 297.353,-6.804C297.719,-7.5 298.232,-8.04 298.892,-8.424C299.552,-8.808 300.308,-9 301.16,-9C301.616,-9 302.075,-8.934 302.537,-8.802C302.999,-8.67 303.41,-8.49 303.77,-8.262C304.154,-7.998 304.346,-7.692 304.346,-7.344C304.346,-7.14 304.292,-6.969 304.184,-6.831C304.076,-6.693 303.938,-6.624 303.77,-6.624C303.662,-6.624 303.554,-6.651 303.446,-6.705C303.338,-6.759 303.2,-6.84 303.032,-6.948C302.732,-7.14 302.453,-7.287 302.195,-7.389C301.937,-7.491 301.628,-7.542 301.268,-7.542C300.452,-7.542 299.819,-7.266 299.369,-6.714C298.919,-6.162 298.694,-5.394 298.694,-4.41C298.694,-3.426 298.916,-2.667 299.36,-2.133C299.804,-1.599 300.434,-1.332 301.25,-1.332C301.61,-1.332 301.928,-1.386 302.204,-1.494C302.48,-1.602 302.762,-1.746 303.05,-1.926C303.182,-2.01 303.314,-2.082 303.446,-2.142C303.578,-2.202 303.698,-2.232 303.806,-2.232C303.974,-2.232 304.112,-2.163 304.22,-2.025C304.328,-1.887 304.382,-1.716 304.382,-1.512C304.382,-1.344 304.337,-1.191 304.247,-1.053C304.157,-0.915 304.004,-0.774 303.788,-0.63C303.428,-0.39 303.008,-0.204 302.528,-0.072C302.048,0.06 301.562,0.126 301.07,0.126C300.218,0.126 299.471,-0.06 298.829,-0.432Z" style="fill-rule:nonzero;"/>
                    <path d="M312.161,-0.432C311.519,-0.804 311.021,-1.332 310.667,-2.016C310.313,-2.7 310.136,-3.492 310.136,-4.392C310.136,-5.304 310.319,-6.108 310.685,-6.804C311.051,-7.5 311.564,-8.04 312.224,-8.424C312.884,-8.808 313.64,-9 314.492,-9C314.948,-9 315.407,-8.934 315.869,-8.802C316.331,-8.67 316.742,-8.49 317.102,-8.262C317.486,-7.998 317.678,-7.692 317.678,-7.344C317.678,-7.14 317.624,-6.969 317.516,-6.831C317.408,-6.693 317.27,-6.624 317.102,-6.624C316.994,-6.624 316.886,-6.651 316.778,-6.705C316.67,-6.759 316.532,-6.84 316.364,-6.948C316.064,-7.14 315.785,-7.287 315.527,-7.389C315.269,-7.491 314.96,-7.542 314.6,-7.542C313.784,-7.542 313.151,-7.266 312.701,-6.714C312.251,-6.162 312.026,-5.394 312.026,-4.41C312.026,-3.426 312.248,-2.667 312.692,-2.133C313.136,-1.599 313.766,-1.332 314.582,-1.332C314.942,-1.332 315.26,-1.386 315.536,-1.494C315.812,-1.602 316.094,-1.746 316.382,-1.926C316.514,-2.01 316.646,-2.082 316.778,-2.142C316.91,-2.202 317.03,-2.232 317.138,-2.232C317.306,-2.232 317.444,-2.163 317.552,-2.025C317.66,-1.887 317.714,-1.716 317.714,-1.512C317.714,-1.344 317.669,-1.191 317.579,-1.053C317.489,-0.915 317.336,-0.774 317.12,-0.63C316.76,-0.39 316.34,-0.204 315.86,-0.072C315.38,0.06 314.894,0.126 314.402,0.126C313.55,0.126 312.803,-0.06 312.161,-0.432Z" style="fill-rule:nonzero;"/>
                    <path d="M320.816,-0.432C320.162,-0.804 319.658,-1.335 319.304,-2.025C318.95,-2.715 318.773,-3.516 318.773,-4.428C318.773,-5.352 318.95,-6.159 319.304,-6.849C319.658,-7.539 320.162,-8.07 320.816,-8.442C321.47,-8.814 322.229,-9 323.093,-9C323.957,-9 324.716,-8.814 325.37,-8.442C326.024,-8.07 326.528,-7.539 326.882,-6.849C327.236,-6.159 327.413,-5.352 327.413,-4.428C327.413,-3.516 327.236,-2.715 326.882,-2.025C326.528,-1.335 326.024,-0.804 325.37,-0.432C324.716,-0.06 323.957,0.126 323.093,0.126C322.229,0.126 321.47,-0.06 320.816,-0.432ZM324.938,-2.106C325.364,-2.634 325.577,-3.408 325.577,-4.428C325.577,-5.436 325.361,-6.207 324.929,-6.741C324.497,-7.275 323.885,-7.542 323.093,-7.542C322.301,-7.542 321.689,-7.275 321.257,-6.741C320.825,-6.207 320.609,-5.436 320.609,-4.428C320.609,-3.408 320.822,-2.634 321.248,-2.106C321.674,-1.578 322.289,-1.314 323.093,-1.314C323.897,-1.314 324.512,-1.578 324.938,-2.106Z" style="fill-rule:nonzero;"/>
                    <path d="M342.404,-5.454L342.404,-0.774C342.404,-0.498 342.32,-0.285 342.152,-0.135C341.984,0.015 341.762,0.09 341.486,0.09C341.222,0.09 341.006,0.015 340.838,-0.135C340.67,-0.285 340.586,-0.498 340.586,-0.774L340.586,-5.436C340.586,-6.168 340.454,-6.699 340.19,-7.029C339.926,-7.359 339.512,-7.524 338.948,-7.524C338.288,-7.524 337.766,-7.299 337.382,-6.849C336.998,-6.399 336.806,-5.784 336.806,-5.004L336.806,-0.774C336.806,-0.498 336.722,-0.285 336.554,-0.135C336.386,0.015 336.164,0.09 335.888,0.09C335.624,0.09 335.408,0.015 335.24,-0.135C335.072,-0.285 334.988,-0.498 334.988,-0.774L334.988,-5.436C334.988,-6.168 334.856,-6.699 334.592,-7.029C334.328,-7.359 333.914,-7.524 333.35,-7.524C332.69,-7.524 332.165,-7.299 331.775,-6.849C331.385,-6.399 331.19,-5.784 331.19,-5.004L331.19,-0.774C331.19,-0.498 331.106,-0.285 330.938,-0.135C330.77,0.015 330.554,0.09 330.29,0.09C330.026,0.09 329.807,0.015 329.633,-0.135C329.459,-0.285 329.372,-0.498 329.372,-0.774L329.372,-8.1C329.372,-8.364 329.462,-8.574 329.642,-8.73C329.822,-8.886 330.038,-8.964 330.29,-8.964C330.542,-8.964 330.749,-8.889 330.911,-8.739C331.073,-8.589 331.154,-8.382 331.154,-8.118L331.154,-7.452C331.418,-7.956 331.784,-8.34 332.252,-8.604C332.72,-8.868 333.26,-9 333.872,-9C334.544,-9 335.099,-8.862 335.537,-8.586C335.975,-8.31 336.302,-7.884 336.518,-7.308C336.782,-7.824 337.172,-8.235 337.688,-8.541C338.204,-8.847 338.792,-9 339.452,-9C341.42,-9 342.404,-7.818 342.404,-5.454Z" style="fill-rule:nonzero;"/>
                    <path d="M345.092,-0.126C344.918,-0.27 344.831,-0.486 344.831,-0.774L344.831,-8.082C344.831,-8.37 344.918,-8.589 345.092,-8.739C345.266,-8.889 345.485,-8.964 345.749,-8.964C346.013,-8.964 346.229,-8.889 346.397,-8.739C346.565,-8.589 346.649,-8.37 346.649,-8.082L346.649,-0.774C346.649,-0.486 346.565,-0.27 346.397,-0.126C346.229,0.018 346.013,0.09 345.749,0.09C345.485,0.09 345.266,0.018 345.092,-0.126ZM344.921,-11.016C344.717,-11.208 344.615,-11.46 344.615,-11.772C344.615,-12.084 344.717,-12.333 344.921,-12.519C345.125,-12.705 345.401,-12.798 345.749,-12.798C346.085,-12.798 346.358,-12.705 346.568,-12.519C346.778,-12.333 346.883,-12.084 346.883,-11.772C346.883,-11.46 346.781,-11.208 346.577,-11.016C346.373,-10.824 346.097,-10.728 345.749,-10.728C345.401,-10.728 345.125,-10.824 344.921,-11.016Z" style="fill-rule:nonzero;"/>
                    <path d="M357.014,-5.454L357.014,-0.774C357.014,-0.498 356.933,-0.285 356.771,-0.135C356.609,0.015 356.384,0.09 356.096,0.09C355.82,0.09 355.601,0.012 355.439,-0.144C355.277,-0.3 355.196,-0.51 355.196,-0.774L355.196,-5.364C355.196,-6.108 355.049,-6.654 354.755,-7.002C354.461,-7.35 354.002,-7.524 353.378,-7.524C352.646,-7.524 352.058,-7.296 351.614,-6.84C351.17,-6.384 350.948,-5.772 350.948,-5.004L350.948,-0.774C350.948,-0.51 350.867,-0.3 350.705,-0.144C350.543,0.012 350.324,0.09 350.048,0.09C349.772,0.09 349.55,0.012 349.382,-0.144C349.214,-0.3 349.13,-0.51 349.13,-0.774L349.13,-8.1C349.13,-8.352 349.217,-8.559 349.391,-8.721C349.565,-8.883 349.784,-8.964 350.048,-8.964C350.312,-8.964 350.522,-8.886 350.678,-8.73C350.834,-8.574 350.912,-8.37 350.912,-8.118L350.912,-7.38C351.2,-7.908 351.602,-8.31 352.118,-8.586C352.634,-8.862 353.216,-9 353.864,-9C355.964,-9 357.014,-7.818 357.014,-5.454Z" style="fill-rule:nonzero;"/>
                    <path d="M367.37,-8.721C367.532,-8.559 367.613,-8.346 367.613,-8.082L367.613,-0.702C367.613,0.642 367.256,1.656 366.542,2.34C365.828,3.024 364.775,3.366 363.383,3.366C362.087,3.366 361.007,3.12 360.143,2.628C359.699,2.376 359.477,2.076 359.477,1.728C359.477,1.524 359.534,1.356 359.648,1.224C359.762,1.092 359.903,1.026 360.071,1.026C360.227,1.026 360.473,1.116 360.809,1.296C361.241,1.5 361.643,1.659 362.015,1.773C362.387,1.887 362.831,1.944 363.347,1.944C365.003,1.944 365.831,1.11 365.831,-0.558L365.831,-1.944C365.579,-1.416 365.195,-1.005 364.679,-0.711C364.163,-0.417 363.563,-0.27 362.879,-0.27C362.111,-0.27 361.427,-0.45 360.827,-0.81C360.227,-1.17 359.762,-1.68 359.432,-2.34C359.102,-3 358.937,-3.762 358.937,-4.626C358.937,-5.49 359.105,-6.252 359.441,-6.912C359.777,-7.572 360.242,-8.085 360.836,-8.451C361.43,-8.817 362.111,-9 362.879,-9C363.551,-9 364.142,-8.856 364.652,-8.568C365.162,-8.28 365.549,-7.872 365.813,-7.344L365.813,-8.1C365.813,-8.364 365.894,-8.574 366.056,-8.73C366.218,-8.886 366.437,-8.964 366.713,-8.964C366.989,-8.964 367.208,-8.883 367.37,-8.721ZM365.147,-2.484C365.591,-3 365.813,-3.714 365.813,-4.626C365.813,-5.526 365.594,-6.237 365.156,-6.759C364.718,-7.281 364.103,-7.542 363.311,-7.542C362.519,-7.542 361.898,-7.284 361.448,-6.768C360.998,-6.252 360.773,-5.538 360.773,-4.626C360.773,-3.714 361.001,-3 361.457,-2.484C361.913,-1.968 362.531,-1.71 363.311,-1.71C364.091,-1.71 364.703,-1.968 365.147,-2.484Z" style="fill-rule:nonzero;"/>
                    <path d="M377.597,-10.737C377.309,-10.407 377.165,-9.924 377.165,-9.288L377.165,-8.784L378.947,-8.784C379.199,-8.784 379.394,-8.721 379.532,-8.595C379.67,-8.469 379.739,-8.298 379.739,-8.082C379.739,-7.866 379.67,-7.695 379.532,-7.569C379.394,-7.443 379.199,-7.38 378.947,-7.38L377.165,-7.38L377.165,-0.792C377.165,-0.504 377.078,-0.285 376.904,-0.135C376.73,0.015 376.511,0.09 376.247,0.09C375.983,0.09 375.767,0.015 375.599,-0.135C375.431,-0.285 375.347,-0.504 375.347,-0.792L375.347,-7.38L374.267,-7.38C374.015,-7.38 373.82,-7.443 373.682,-7.569C373.544,-7.695 373.475,-7.866 373.475,-8.082C373.475,-8.298 373.544,-8.469 373.682,-8.595C373.82,-8.721 374.015,-8.784 374.267,-8.784L375.347,-8.784L375.347,-9.018C375.347,-10.122 375.629,-10.989 376.193,-11.619C376.757,-12.249 377.555,-12.6 378.587,-12.672L379.055,-12.708C379.439,-12.732 379.718,-12.69 379.892,-12.582C380.066,-12.474 380.153,-12.3 380.153,-12.06C380.153,-11.64 379.901,-11.4 379.397,-11.34L378.929,-11.304C378.329,-11.256 377.885,-11.067 377.597,-10.737Z" style="fill-rule:nonzero;"/>
                    <path d="M386.36,-8.226C386.36,-7.962 386.294,-7.764 386.162,-7.632C386.03,-7.5 385.802,-7.422 385.478,-7.398L384.938,-7.344C384.182,-7.272 383.621,-7.008 383.255,-6.552C382.889,-6.096 382.706,-5.544 382.706,-4.896L382.706,-0.774C382.706,-0.486 382.622,-0.27 382.454,-0.126C382.286,0.018 382.07,0.09 381.806,0.09C381.542,0.09 381.323,0.018 381.149,-0.126C380.975,-0.27 380.888,-0.486 380.888,-0.774L380.888,-8.1C380.888,-8.376 380.975,-8.589 381.149,-8.739C381.323,-8.889 381.542,-8.964 381.806,-8.964C382.046,-8.964 382.247,-8.889 382.409,-8.739C382.571,-8.589 382.652,-8.382 382.652,-8.118L382.652,-7.254C382.892,-7.782 383.24,-8.184 383.696,-8.46C384.152,-8.736 384.668,-8.898 385.244,-8.946L385.496,-8.964C386.072,-9 386.36,-8.754 386.36,-8.226Z" style="fill-rule:nonzero;"/>
                    <path d="M388.778,-0.432C388.124,-0.804 387.62,-1.335 387.266,-2.025C386.912,-2.715 386.735,-3.516 386.735,-4.428C386.735,-5.352 386.912,-6.159 387.266,-6.849C387.62,-7.539 388.124,-8.07 388.778,-8.442C389.432,-8.814 390.191,-9 391.055,-9C391.919,-9 392.678,-8.814 393.332,-8.442C393.986,-8.07 394.49,-7.539 394.844,-6.849C395.198,-6.159 395.375,-5.352 395.375,-4.428C395.375,-3.516 395.198,-2.715 394.844,-2.025C394.49,-1.335 393.986,-0.804 393.332,-0.432C392.678,-0.06 391.919,0.126 391.055,0.126C390.191,0.126 389.432,-0.06 388.778,-0.432ZM392.9,-2.106C393.326,-2.634 393.539,-3.408 393.539,-4.428C393.539,-5.436 393.323,-6.207 392.891,-6.741C392.459,-7.275 391.847,-7.542 391.055,-7.542C390.263,-7.542 389.651,-7.275 389.219,-6.741C388.787,-6.207 388.571,-5.436 388.571,-4.428C388.571,-3.408 388.784,-2.634 389.21,-2.106C389.636,-1.578 390.251,-1.314 391.055,-1.314C391.859,-1.314 392.474,-1.578 392.9,-2.106Z" style="fill-rule:nonzero;"/>
                    <path d="M410.366,-5.454L410.366,-0.774C410.366,-0.498 410.282,-0.285 410.114,-0.135C409.946,0.015 409.724,0.09 409.448,0.09C409.184,0.09 408.968,0.015 408.8,-0.135C408.632,-0.285 408.548,-0.498 408.548,-0.774L408.548,-5.436C408.548,-6.168 408.416,-6.699 408.152,-7.029C407.888,-7.359 407.474,-7.524 406.91,-7.524C406.25,-7.524 405.728,-7.299 405.344,-6.849C404.96,-6.399 404.768,-5.784 404.768,-5.004L404.768,-0.774C404.768,-0.498 404.684,-0.285 404.516,-0.135C404.348,0.015 404.126,0.09 403.85,0.09C403.586,0.09 403.37,0.015 403.202,-0.135C403.034,-0.285 402.95,-0.498 402.95,-0.774L402.95,-5.436C402.95,-6.168 402.818,-6.699 402.554,-7.029C402.29,-7.359 401.876,-7.524 401.312,-7.524C400.652,-7.524 400.127,-7.299 399.737,-6.849C399.347,-6.399 399.152,-5.784 399.152,-5.004L399.152,-0.774C399.152,-0.498 399.068,-0.285 398.9,-0.135C398.732,0.015 398.516,0.09 398.252,0.09C397.988,0.09 397.769,0.015 397.595,-0.135C397.421,-0.285 397.334,-0.498 397.334,-0.774L397.334,-8.1C397.334,-8.364 397.424,-8.574 397.604,-8.73C397.784,-8.886 398,-8.964 398.252,-8.964C398.504,-8.964 398.711,-8.889 398.873,-8.739C399.035,-8.589 399.116,-8.382 399.116,-8.118L399.116,-7.452C399.38,-7.956 399.746,-8.34 400.214,-8.604C400.682,-8.868 401.222,-9 401.834,-9C402.506,-9 403.061,-8.862 403.499,-8.586C403.937,-8.31 404.264,-7.884 404.48,-7.308C404.744,-7.824 405.134,-8.235 405.65,-8.541C406.166,-8.847 406.754,-9 407.414,-9C409.382,-9 410.366,-7.818 410.366,-5.454Z" style="fill-rule:nonzero;"/>
                </g>
                <g transform="matrix(1,0,0,1,1036,863)">
                    <path d="M2.799,-0.432C2.145,-0.804 1.641,-1.335 1.287,-2.025C0.933,-2.715 0.756,-3.516 0.756,-4.428C0.756,-5.352 0.933,-6.159 1.287,-6.849C1.641,-7.539 2.145,-8.07 2.799,-8.442C3.453,-8.814 4.212,-9 5.076,-9C5.94,-9 6.699,-8.814 7.353,-8.442C8.007,-8.07 8.511,-7.539 8.865,-6.849C9.219,-6.159 9.396,-5.352 9.396,-4.428C9.396,-3.516 9.219,-2.715 8.865,-2.025C8.511,-1.335 8.007,-0.804 7.353,-0.432C6.699,-0.06 5.94,0.126 5.076,0.126C4.212,0.126 3.453,-0.06 2.799,-0.432ZM6.921,-2.106C7.347,-2.634 7.56,-3.408 7.56,-4.428C7.56,-5.436 7.344,-6.207 6.912,-6.741C6.48,-7.275 5.868,-7.542 5.076,-7.542C4.284,-7.542 3.672,-7.275 3.24,-6.741C2.808,-6.207 2.592,-5.436 2.592,-4.428C2.592,-3.408 2.805,-2.634 3.231,-2.106C3.657,-1.578 4.272,-1.314 5.076,-1.314C5.88,-1.314 6.495,-1.578 6.921,-2.106Z" style="fill-rule:nonzero;"/>
                    <path d="M16.827,-8.226C16.827,-7.962 16.761,-7.764 16.629,-7.632C16.497,-7.5 16.269,-7.422 15.945,-7.398L15.405,-7.344C14.649,-7.272 14.088,-7.008 13.722,-6.552C13.356,-6.096 13.173,-5.544 13.173,-4.896L13.173,-0.774C13.173,-0.486 13.089,-0.27 12.921,-0.126C12.753,0.018 12.537,0.09 12.273,0.09C12.009,0.09 11.79,0.018 11.616,-0.126C11.442,-0.27 11.355,-0.486 11.355,-0.774L11.355,-8.1C11.355,-8.376 11.442,-8.589 11.616,-8.739C11.79,-8.889 12.009,-8.964 12.273,-8.964C12.513,-8.964 12.714,-8.889 12.876,-8.739C13.038,-8.589 13.119,-8.382 13.119,-8.118L13.119,-7.254C13.359,-7.782 13.707,-8.184 14.163,-8.46C14.619,-8.736 15.135,-8.898 15.711,-8.946L15.963,-8.964C16.539,-9 16.827,-8.754 16.827,-8.226Z" style="fill-rule:nonzero;"/>
                    <path d="M30.51,-8.721C30.672,-8.559 30.753,-8.346 30.753,-8.082L30.753,-0.702C30.753,0.642 30.396,1.656 29.682,2.34C28.968,3.024 27.915,3.366 26.523,3.366C25.227,3.366 24.147,3.12 23.283,2.628C22.839,2.376 22.617,2.076 22.617,1.728C22.617,1.524 22.674,1.356 22.788,1.224C22.902,1.092 23.043,1.026 23.211,1.026C23.367,1.026 23.613,1.116 23.949,1.296C24.381,1.5 24.783,1.659 25.155,1.773C25.527,1.887 25.971,1.944 26.487,1.944C28.143,1.944 28.971,1.11 28.971,-0.558L28.971,-1.944C28.719,-1.416 28.335,-1.005 27.819,-0.711C27.303,-0.417 26.703,-0.27 26.019,-0.27C25.251,-0.27 24.567,-0.45 23.967,-0.81C23.367,-1.17 22.902,-1.68 22.572,-2.34C22.242,-3 22.077,-3.762 22.077,-4.626C22.077,-5.49 22.245,-6.252 22.581,-6.912C22.917,-7.572 23.382,-8.085 23.976,-8.451C24.57,-8.817 25.251,-9 26.019,-9C26.691,-9 27.282,-8.856 27.792,-8.568C28.302,-8.28 28.689,-7.872 28.953,-7.344L28.953,-8.1C28.953,-8.364 29.034,-8.574 29.196,-8.73C29.358,-8.886 29.577,-8.964 29.853,-8.964C30.129,-8.964 30.348,-8.883 30.51,-8.721ZM28.287,-2.484C28.731,-3 28.953,-3.714 28.953,-4.626C28.953,-5.526 28.734,-6.237 28.296,-6.759C27.858,-7.281 27.243,-7.542 26.451,-7.542C25.659,-7.542 25.038,-7.284 24.588,-6.768C24.138,-6.252 23.913,-5.538 23.913,-4.626C23.913,-3.714 24.141,-3 24.597,-2.484C25.053,-1.968 25.671,-1.71 26.451,-1.71C27.231,-1.71 27.843,-1.968 28.287,-2.484Z" style="fill-rule:nonzero;"/>
                    <path d="M34.773,-0.432C34.119,-0.804 33.615,-1.335 33.261,-2.025C32.907,-2.715 32.73,-3.516 32.73,-4.428C32.73,-5.352 32.907,-6.159 33.261,-6.849C33.615,-7.539 34.119,-8.07 34.773,-8.442C35.427,-8.814 36.186,-9 37.05,-9C37.914,-9 38.673,-8.814 39.327,-8.442C39.981,-8.07 40.485,-7.539 40.839,-6.849C41.193,-6.159 41.37,-5.352 41.37,-4.428C41.37,-3.516 41.193,-2.715 40.839,-2.025C40.485,-1.335 39.981,-0.804 39.327,-0.432C38.673,-0.06 37.914,0.126 37.05,0.126C36.186,0.126 35.427,-0.06 34.773,-0.432ZM38.895,-2.106C39.321,-2.634 39.534,-3.408 39.534,-4.428C39.534,-5.436 39.318,-6.207 38.886,-6.741C38.454,-7.275 37.842,-7.542 37.05,-7.542C36.258,-7.542 35.646,-7.275 35.214,-6.741C34.782,-6.207 34.566,-5.436 34.566,-4.428C34.566,-3.408 34.779,-2.634 35.205,-2.106C35.631,-1.578 36.246,-1.314 37.05,-1.314C37.854,-1.314 38.469,-1.578 38.895,-2.106Z" style="fill-rule:nonzero;"/>
                    <path d="M43.59,-0.126C43.416,-0.27 43.329,-0.486 43.329,-0.774L43.329,-8.082C43.329,-8.37 43.416,-8.589 43.59,-8.739C43.764,-8.889 43.983,-8.964 44.247,-8.964C44.511,-8.964 44.727,-8.889 44.895,-8.739C45.063,-8.589 45.147,-8.37 45.147,-8.082L45.147,-0.774C45.147,-0.486 45.063,-0.27 44.895,-0.126C44.727,0.018 44.511,0.09 44.247,0.09C43.983,0.09 43.764,0.018 43.59,-0.126ZM43.419,-11.016C43.215,-11.208 43.113,-11.46 43.113,-11.772C43.113,-12.084 43.215,-12.333 43.419,-12.519C43.623,-12.705 43.899,-12.798 44.247,-12.798C44.583,-12.798 44.856,-12.705 45.066,-12.519C45.276,-12.333 45.381,-12.084 45.381,-11.772C45.381,-11.46 45.279,-11.208 45.075,-11.016C44.871,-10.824 44.595,-10.728 44.247,-10.728C43.899,-10.728 43.623,-10.824 43.419,-11.016Z" style="fill-rule:nonzero;"/>
                    <path d="M55.512,-5.454L55.512,-0.774C55.512,-0.498 55.431,-0.285 55.269,-0.135C55.107,0.015 54.882,0.09 54.594,0.09C54.318,0.09 54.099,0.012 53.937,-0.144C53.775,-0.3 53.694,-0.51 53.694,-0.774L53.694,-5.364C53.694,-6.108 53.547,-6.654 53.253,-7.002C52.959,-7.35 52.5,-7.524 51.876,-7.524C51.144,-7.524 50.556,-7.296 50.112,-6.84C49.668,-6.384 49.446,-5.772 49.446,-5.004L49.446,-0.774C49.446,-0.51 49.365,-0.3 49.203,-0.144C49.041,0.012 48.822,0.09 48.546,0.09C48.27,0.09 48.048,0.012 47.88,-0.144C47.712,-0.3 47.628,-0.51 47.628,-0.774L47.628,-8.1C47.628,-8.352 47.715,-8.559 47.889,-8.721C48.063,-8.883 48.282,-8.964 48.546,-8.964C48.81,-8.964 49.02,-8.886 49.176,-8.73C49.332,-8.574 49.41,-8.37 49.41,-8.118L49.41,-7.38C49.698,-7.908 50.1,-8.31 50.616,-8.586C51.132,-8.862 51.714,-9 52.362,-9C54.462,-9 55.512,-7.818 55.512,-5.454Z" style="fill-rule:nonzero;"/>
                    <path d="M65.868,-8.721C66.03,-8.559 66.111,-8.346 66.111,-8.082L66.111,-0.702C66.111,0.642 65.754,1.656 65.04,2.34C64.326,3.024 63.273,3.366 61.881,3.366C60.585,3.366 59.505,3.12 58.641,2.628C58.197,2.376 57.975,2.076 57.975,1.728C57.975,1.524 58.032,1.356 58.146,1.224C58.26,1.092 58.401,1.026 58.569,1.026C58.725,1.026 58.971,1.116 59.307,1.296C59.739,1.5 60.141,1.659 60.513,1.773C60.885,1.887 61.329,1.944 61.845,1.944C63.501,1.944 64.329,1.11 64.329,-0.558L64.329,-1.944C64.077,-1.416 63.693,-1.005 63.177,-0.711C62.661,-0.417 62.061,-0.27 61.377,-0.27C60.609,-0.27 59.925,-0.45 59.325,-0.81C58.725,-1.17 58.26,-1.68 57.93,-2.34C57.6,-3 57.435,-3.762 57.435,-4.626C57.435,-5.49 57.603,-6.252 57.939,-6.912C58.275,-7.572 58.74,-8.085 59.334,-8.451C59.928,-8.817 60.609,-9 61.377,-9C62.049,-9 62.64,-8.856 63.15,-8.568C63.66,-8.28 64.047,-7.872 64.311,-7.344L64.311,-8.1C64.311,-8.364 64.392,-8.574 64.554,-8.73C64.716,-8.886 64.935,-8.964 65.211,-8.964C65.487,-8.964 65.706,-8.883 65.868,-8.721ZM63.645,-2.484C64.089,-3 64.311,-3.714 64.311,-4.626C64.311,-5.526 64.092,-6.237 63.654,-6.759C63.216,-7.281 62.601,-7.542 61.809,-7.542C61.017,-7.542 60.396,-7.284 59.946,-6.768C59.496,-6.252 59.271,-5.538 59.271,-4.626C59.271,-3.714 59.499,-3 59.955,-2.484C60.411,-1.968 61.029,-1.71 61.809,-1.71C62.589,-1.71 63.201,-1.968 63.645,-2.484Z" style="fill-rule:nonzero;"/>
                    <path d="M78.156,-1.089C78.27,-0.975 78.327,-0.816 78.327,-0.612C78.327,-0.372 78.234,-0.189 78.048,-0.063C77.862,0.063 77.589,0.114 77.229,0.09L76.743,0.054C75.771,-0.018 75.045,-0.315 74.565,-0.837C74.085,-1.359 73.845,-2.13 73.845,-3.15L73.845,-7.38L72.765,-7.38C72.237,-7.38 71.973,-7.614 71.973,-8.082C71.973,-8.298 72.042,-8.469 72.18,-8.595C72.318,-8.721 72.513,-8.784 72.765,-8.784L73.845,-8.784L73.845,-10.638C73.845,-10.914 73.926,-11.13 74.088,-11.286C74.25,-11.442 74.469,-11.52 74.745,-11.52C75.021,-11.52 75.243,-11.442 75.411,-11.286C75.579,-11.13 75.663,-10.914 75.663,-10.638L75.663,-8.784L77.445,-8.784C77.697,-8.784 77.892,-8.721 78.03,-8.595C78.168,-8.469 78.237,-8.298 78.237,-8.082C78.237,-7.854 78.168,-7.68 78.03,-7.56C77.892,-7.44 77.697,-7.38 77.445,-7.38L75.663,-7.38L75.663,-3.024C75.663,-2.46 75.78,-2.046 76.014,-1.782C76.248,-1.518 76.605,-1.368 77.085,-1.332L77.589,-1.296C77.853,-1.272 78.042,-1.203 78.156,-1.089Z" style="fill-rule:nonzero;"/>
                    <path d="M81.123,-0.432C80.469,-0.804 79.965,-1.335 79.611,-2.025C79.257,-2.715 79.08,-3.516 79.08,-4.428C79.08,-5.352 79.257,-6.159 79.611,-6.849C79.965,-7.539 80.469,-8.07 81.123,-8.442C81.777,-8.814 82.536,-9 83.4,-9C84.264,-9 85.023,-8.814 85.677,-8.442C86.331,-8.07 86.835,-7.539 87.189,-6.849C87.543,-6.159 87.72,-5.352 87.72,-4.428C87.72,-3.516 87.543,-2.715 87.189,-2.025C86.835,-1.335 86.331,-0.804 85.677,-0.432C85.023,-0.06 84.264,0.126 83.4,0.126C82.536,0.126 81.777,-0.06 81.123,-0.432ZM85.245,-2.106C85.671,-2.634 85.884,-3.408 85.884,-4.428C85.884,-5.436 85.668,-6.207 85.236,-6.741C84.804,-7.275 84.192,-7.542 83.4,-7.542C82.608,-7.542 81.996,-7.275 81.564,-6.741C81.132,-6.207 80.916,-5.436 80.916,-4.428C80.916,-3.408 81.129,-2.634 81.555,-2.106C81.981,-1.578 82.596,-1.314 83.4,-1.314C84.204,-1.314 84.819,-1.578 85.245,-2.106Z" style="fill-rule:nonzero;"/>
                    <path d="M95.895,-0.432C95.253,-0.804 94.755,-1.332 94.401,-2.016C94.047,-2.7 93.87,-3.492 93.87,-4.392C93.87,-5.304 94.053,-6.108 94.419,-6.804C94.785,-7.5 95.298,-8.04 95.958,-8.424C96.618,-8.808 97.374,-9 98.226,-9C98.682,-9 99.141,-8.934 99.603,-8.802C100.065,-8.67 100.476,-8.49 100.836,-8.262C101.22,-7.998 101.412,-7.692 101.412,-7.344C101.412,-7.14 101.358,-6.969 101.25,-6.831C101.142,-6.693 101.004,-6.624 100.836,-6.624C100.728,-6.624 100.62,-6.651 100.512,-6.705C100.404,-6.759 100.266,-6.84 100.098,-6.948C99.798,-7.14 99.519,-7.287 99.261,-7.389C99.003,-7.491 98.694,-7.542 98.334,-7.542C97.518,-7.542 96.885,-7.266 96.435,-6.714C95.985,-6.162 95.76,-5.394 95.76,-4.41C95.76,-3.426 95.982,-2.667 96.426,-2.133C96.87,-1.599 97.5,-1.332 98.316,-1.332C98.676,-1.332 98.994,-1.386 99.27,-1.494C99.546,-1.602 99.828,-1.746 100.116,-1.926C100.248,-2.01 100.38,-2.082 100.512,-2.142C100.644,-2.202 100.764,-2.232 100.872,-2.232C101.04,-2.232 101.178,-2.163 101.286,-2.025C101.394,-1.887 101.448,-1.716 101.448,-1.512C101.448,-1.344 101.403,-1.191 101.313,-1.053C101.223,-0.915 101.07,-0.774 100.854,-0.63C100.494,-0.39 100.074,-0.204 99.594,-0.072C99.114,0.06 98.628,0.126 98.136,0.126C97.284,0.126 96.537,-0.06 95.895,-0.432Z" style="fill-rule:nonzero;"/>
                    <path d="M103.272,-0.126C103.098,-0.27 103.011,-0.486 103.011,-0.774L103.011,-11.898C103.011,-12.186 103.098,-12.405 103.272,-12.555C103.446,-12.705 103.665,-12.78 103.929,-12.78C104.193,-12.78 104.409,-12.705 104.577,-12.555C104.745,-12.405 104.829,-12.186 104.829,-11.898L104.829,-0.774C104.829,-0.486 104.745,-0.27 104.577,-0.126C104.409,0.018 104.193,0.09 103.929,0.09C103.665,0.09 103.446,0.018 103.272,-0.126Z" style="fill-rule:nonzero;"/>
                    <path d="M107.571,-0.126C107.397,-0.27 107.31,-0.486 107.31,-0.774L107.31,-8.082C107.31,-8.37 107.397,-8.589 107.571,-8.739C107.745,-8.889 107.964,-8.964 108.228,-8.964C108.492,-8.964 108.708,-8.889 108.876,-8.739C109.044,-8.589 109.128,-8.37 109.128,-8.082L109.128,-0.774C109.128,-0.486 109.044,-0.27 108.876,-0.126C108.708,0.018 108.492,0.09 108.228,0.09C107.964,0.09 107.745,0.018 107.571,-0.126ZM107.4,-11.016C107.196,-11.208 107.094,-11.46 107.094,-11.772C107.094,-12.084 107.196,-12.333 107.4,-12.519C107.604,-12.705 107.88,-12.798 108.228,-12.798C108.564,-12.798 108.837,-12.705 109.047,-12.519C109.257,-12.333 109.362,-12.084 109.362,-11.772C109.362,-11.46 109.26,-11.208 109.056,-11.016C108.852,-10.824 108.576,-10.728 108.228,-10.728C107.88,-10.728 107.604,-10.824 107.4,-11.016Z" style="fill-rule:nonzero;"/>
                    <path d="M118.899,-2.016C119.007,-1.884 119.061,-1.716 119.061,-1.512C119.061,-1.164 118.845,-0.87 118.413,-0.63C117.993,-0.39 117.534,-0.204 117.036,-0.072C116.538,0.06 116.061,0.126 115.605,0.126C114.213,0.126 113.115,-0.279 112.311,-1.089C111.507,-1.899 111.105,-3.006 111.105,-4.41C111.105,-5.31 111.282,-6.108 111.636,-6.804C111.99,-7.5 112.488,-8.04 113.13,-8.424C113.772,-8.808 114.501,-9 115.317,-9C116.493,-9 117.423,-8.622 118.107,-7.866C118.791,-7.11 119.133,-6.09 119.133,-4.806C119.133,-4.326 118.917,-4.086 118.485,-4.086L112.923,-4.086C113.043,-2.226 113.937,-1.296 115.605,-1.296C116.049,-1.296 116.433,-1.356 116.757,-1.476C117.081,-1.596 117.423,-1.752 117.783,-1.944C117.819,-1.968 117.918,-2.019 118.08,-2.097C118.242,-2.175 118.377,-2.214 118.485,-2.214C118.653,-2.214 118.791,-2.148 118.899,-2.016ZM113.679,-7.002C113.259,-6.558 113.007,-5.934 112.923,-5.13L117.567,-5.13C117.531,-5.946 117.324,-6.573 116.946,-7.011C116.568,-7.449 116.037,-7.668 115.353,-7.668C114.657,-7.668 114.099,-7.446 113.679,-7.002Z" style="fill-rule:nonzero;"/>
                    <path d="M128.958,-5.454L128.958,-0.774C128.958,-0.498 128.877,-0.285 128.715,-0.135C128.553,0.015 128.328,0.09 128.04,0.09C127.764,0.09 127.545,0.012 127.383,-0.144C127.221,-0.3 127.14,-0.51 127.14,-0.774L127.14,-5.364C127.14,-6.108 126.993,-6.654 126.699,-7.002C126.405,-7.35 125.946,-7.524 125.322,-7.524C124.59,-7.524 124.002,-7.296 123.558,-6.84C123.114,-6.384 122.892,-5.772 122.892,-5.004L122.892,-0.774C122.892,-0.51 122.811,-0.3 122.649,-0.144C122.487,0.012 122.268,0.09 121.992,0.09C121.716,0.09 121.494,0.012 121.326,-0.144C121.158,-0.3 121.074,-0.51 121.074,-0.774L121.074,-8.1C121.074,-8.352 121.161,-8.559 121.335,-8.721C121.509,-8.883 121.728,-8.964 121.992,-8.964C122.256,-8.964 122.466,-8.886 122.622,-8.73C122.778,-8.574 122.856,-8.37 122.856,-8.118L122.856,-7.38C123.144,-7.908 123.546,-8.31 124.062,-8.586C124.578,-8.862 125.16,-9 125.808,-9C127.908,-9 128.958,-7.818 128.958,-5.454Z" style="fill-rule:nonzero;"/>
                    <path d="M136.254,-1.089C136.368,-0.975 136.425,-0.816 136.425,-0.612C136.425,-0.372 136.332,-0.189 136.146,-0.063C135.96,0.063 135.687,0.114 135.327,0.09L134.841,0.054C133.869,-0.018 133.143,-0.315 132.663,-0.837C132.183,-1.359 131.943,-2.13 131.943,-3.15L131.943,-7.38L130.863,-7.38C130.335,-7.38 130.071,-7.614 130.071,-8.082C130.071,-8.298 130.14,-8.469 130.278,-8.595C130.416,-8.721 130.611,-8.784 130.863,-8.784L131.943,-8.784L131.943,-10.638C131.943,-10.914 132.024,-11.13 132.186,-11.286C132.348,-11.442 132.567,-11.52 132.843,-11.52C133.119,-11.52 133.341,-11.442 133.509,-11.286C133.677,-11.13 133.761,-10.914 133.761,-10.638L133.761,-8.784L135.543,-8.784C135.795,-8.784 135.99,-8.721 136.128,-8.595C136.266,-8.469 136.335,-8.298 136.335,-8.082C136.335,-7.854 136.266,-7.68 136.128,-7.56C135.99,-7.44 135.795,-7.38 135.543,-7.38L133.761,-7.38L133.761,-3.024C133.761,-2.46 133.878,-2.046 134.112,-1.782C134.346,-1.518 134.703,-1.368 135.183,-1.332L135.687,-1.296C135.951,-1.272 136.14,-1.203 136.254,-1.089Z" style="fill-rule:nonzero;"/>
                    <path d="M145.185,-10.737C144.897,-10.407 144.753,-9.924 144.753,-9.288L144.753,-8.784L146.535,-8.784C146.787,-8.784 146.982,-8.721 147.12,-8.595C147.258,-8.469 147.327,-8.298 147.327,-8.082C147.327,-7.866 147.258,-7.695 147.12,-7.569C146.982,-7.443 146.787,-7.38 146.535,-7.38L144.753,-7.38L144.753,-0.792C144.753,-0.504 144.666,-0.285 144.492,-0.135C144.318,0.015 144.099,0.09 143.835,0.09C143.571,0.09 143.355,0.015 143.187,-0.135C143.019,-0.285 142.935,-0.504 142.935,-0.792L142.935,-7.38L141.855,-7.38C141.603,-7.38 141.408,-7.443 141.27,-7.569C141.132,-7.695 141.063,-7.866 141.063,-8.082C141.063,-8.298 141.132,-8.469 141.27,-8.595C141.408,-8.721 141.603,-8.784 141.855,-8.784L142.935,-8.784L142.935,-9.018C142.935,-10.122 143.217,-10.989 143.781,-11.619C144.345,-12.249 145.143,-12.6 146.175,-12.672L146.643,-12.708C147.027,-12.732 147.306,-12.69 147.48,-12.582C147.654,-12.474 147.741,-12.3 147.741,-12.06C147.741,-11.64 147.489,-11.4 146.985,-11.34L146.517,-11.304C145.917,-11.256 145.473,-11.067 145.185,-10.737Z" style="fill-rule:nonzero;"/>
                    <path d="M149.925,-0.432C149.271,-0.804 148.767,-1.335 148.413,-2.025C148.059,-2.715 147.882,-3.516 147.882,-4.428C147.882,-5.352 148.059,-6.159 148.413,-6.849C148.767,-7.539 149.271,-8.07 149.925,-8.442C150.579,-8.814 151.338,-9 152.202,-9C153.066,-9 153.825,-8.814 154.479,-8.442C155.133,-8.07 155.637,-7.539 155.991,-6.849C156.345,-6.159 156.522,-5.352 156.522,-4.428C156.522,-3.516 156.345,-2.715 155.991,-2.025C155.637,-1.335 155.133,-0.804 154.479,-0.432C153.825,-0.06 153.066,0.126 152.202,0.126C151.338,0.126 150.579,-0.06 149.925,-0.432ZM154.047,-2.106C154.473,-2.634 154.686,-3.408 154.686,-4.428C154.686,-5.436 154.47,-6.207 154.038,-6.741C153.606,-7.275 152.994,-7.542 152.202,-7.542C151.41,-7.542 150.798,-7.275 150.366,-6.741C149.934,-6.207 149.718,-5.436 149.718,-4.428C149.718,-3.408 149.931,-2.634 150.357,-2.106C150.783,-1.578 151.398,-1.314 152.202,-1.314C153.006,-1.314 153.621,-1.578 154.047,-2.106Z" style="fill-rule:nonzero;"/>
                    <path d="M163.952,-8.226C163.952,-7.962 163.886,-7.764 163.754,-7.632C163.622,-7.5 163.394,-7.422 163.07,-7.398L162.53,-7.344C161.774,-7.272 161.213,-7.008 160.847,-6.552C160.481,-6.096 160.298,-5.544 160.298,-4.896L160.298,-0.774C160.298,-0.486 160.214,-0.27 160.046,-0.126C159.878,0.018 159.662,0.09 159.398,0.09C159.134,0.09 158.915,0.018 158.741,-0.126C158.567,-0.27 158.48,-0.486 158.48,-0.774L158.48,-8.1C158.48,-8.376 158.567,-8.589 158.741,-8.739C158.915,-8.889 159.134,-8.964 159.398,-8.964C159.638,-8.964 159.839,-8.889 160.001,-8.739C160.163,-8.589 160.244,-8.382 160.244,-8.118L160.244,-7.254C160.484,-7.782 160.832,-8.184 161.288,-8.46C161.744,-8.736 162.26,-8.898 162.836,-8.946L163.088,-8.964C163.664,-9 163.952,-8.754 163.952,-8.226Z" style="fill-rule:nonzero;"/>
                    <path d="M174.575,-1.089C174.689,-0.975 174.746,-0.816 174.746,-0.612C174.746,-0.372 174.653,-0.189 174.467,-0.063C174.281,0.063 174.008,0.114 173.648,0.09L173.162,0.054C172.19,-0.018 171.464,-0.315 170.984,-0.837C170.504,-1.359 170.264,-2.13 170.264,-3.15L170.264,-7.38L169.184,-7.38C168.656,-7.38 168.392,-7.614 168.392,-8.082C168.392,-8.298 168.461,-8.469 168.599,-8.595C168.737,-8.721 168.932,-8.784 169.184,-8.784L170.264,-8.784L170.264,-10.638C170.264,-10.914 170.345,-11.13 170.507,-11.286C170.669,-11.442 170.888,-11.52 171.164,-11.52C171.44,-11.52 171.662,-11.442 171.83,-11.286C171.998,-11.13 172.082,-10.914 172.082,-10.638L172.082,-8.784L173.864,-8.784C174.116,-8.784 174.311,-8.721 174.449,-8.595C174.587,-8.469 174.656,-8.298 174.656,-8.082C174.656,-7.854 174.587,-7.68 174.449,-7.56C174.311,-7.44 174.116,-7.38 173.864,-7.38L172.082,-7.38L172.082,-3.024C172.082,-2.46 172.199,-2.046 172.433,-1.782C172.667,-1.518 173.024,-1.368 173.504,-1.332L174.008,-1.296C174.272,-1.272 174.461,-1.203 174.575,-1.089Z" style="fill-rule:nonzero;"/>
                    <path d="M183.887,-5.454L183.887,-0.774C183.887,-0.51 183.803,-0.3 183.635,-0.144C183.467,0.012 183.245,0.09 182.969,0.09C182.693,0.09 182.474,0.012 182.312,-0.144C182.15,-0.3 182.069,-0.51 182.069,-0.774L182.069,-5.436C182.069,-6.156 181.922,-6.684 181.628,-7.02C181.334,-7.356 180.875,-7.524 180.251,-7.524C179.519,-7.524 178.931,-7.296 178.487,-6.84C178.043,-6.384 177.821,-5.772 177.821,-5.004L177.821,-0.774C177.821,-0.51 177.74,-0.3 177.578,-0.144C177.416,0.012 177.197,0.09 176.921,0.09C176.645,0.09 176.423,0.012 176.255,-0.144C176.087,-0.3 176.003,-0.51 176.003,-0.774L176.003,-11.916C176.003,-12.18 176.09,-12.39 176.264,-12.546C176.438,-12.702 176.663,-12.78 176.939,-12.78C177.203,-12.78 177.416,-12.705 177.578,-12.555C177.74,-12.405 177.821,-12.204 177.821,-11.952L177.821,-7.452C178.121,-7.956 178.523,-8.34 179.027,-8.604C179.531,-8.868 180.107,-9 180.755,-9C182.843,-9 183.887,-7.818 183.887,-5.454Z" style="fill-rule:nonzero;"/>
                    <path d="M191.786,-8.226C191.786,-7.962 191.72,-7.764 191.588,-7.632C191.456,-7.5 191.228,-7.422 190.904,-7.398L190.364,-7.344C189.608,-7.272 189.047,-7.008 188.681,-6.552C188.315,-6.096 188.132,-5.544 188.132,-4.896L188.132,-0.774C188.132,-0.486 188.048,-0.27 187.88,-0.126C187.712,0.018 187.496,0.09 187.232,0.09C186.968,0.09 186.749,0.018 186.575,-0.126C186.401,-0.27 186.314,-0.486 186.314,-0.774L186.314,-8.1C186.314,-8.376 186.401,-8.589 186.575,-8.739C186.749,-8.889 186.968,-8.964 187.232,-8.964C187.472,-8.964 187.673,-8.889 187.835,-8.739C187.997,-8.589 188.078,-8.382 188.078,-8.118L188.078,-7.254C188.318,-7.782 188.666,-8.184 189.122,-8.46C189.578,-8.736 190.094,-8.898 190.67,-8.946L190.922,-8.964C191.498,-9 191.786,-8.754 191.786,-8.226Z" style="fill-rule:nonzero;"/>
                    <path d="M199.955,-2.016C200.063,-1.884 200.117,-1.716 200.117,-1.512C200.117,-1.164 199.901,-0.87 199.469,-0.63C199.049,-0.39 198.59,-0.204 198.092,-0.072C197.594,0.06 197.117,0.126 196.661,0.126C195.269,0.126 194.171,-0.279 193.367,-1.089C192.563,-1.899 192.161,-3.006 192.161,-4.41C192.161,-5.31 192.338,-6.108 192.692,-6.804C193.046,-7.5 193.544,-8.04 194.186,-8.424C194.828,-8.808 195.557,-9 196.373,-9C197.549,-9 198.479,-8.622 199.163,-7.866C199.847,-7.11 200.189,-6.09 200.189,-4.806C200.189,-4.326 199.973,-4.086 199.541,-4.086L193.979,-4.086C194.099,-2.226 194.993,-1.296 196.661,-1.296C197.105,-1.296 197.489,-1.356 197.813,-1.476C198.137,-1.596 198.479,-1.752 198.839,-1.944C198.875,-1.968 198.974,-2.019 199.136,-2.097C199.298,-2.175 199.433,-2.214 199.541,-2.214C199.709,-2.214 199.847,-2.148 199.955,-2.016ZM194.735,-7.002C194.315,-6.558 194.063,-5.934 193.979,-5.13L198.623,-5.13C198.587,-5.946 198.38,-6.573 198.002,-7.011C197.624,-7.449 197.093,-7.668 196.409,-7.668C195.713,-7.668 195.155,-7.446 194.735,-7.002Z" style="fill-rule:nonzero;"/>
                    <path d="M208.421,-8.118C208.991,-7.53 209.276,-6.636 209.276,-5.436L209.276,-0.774C209.276,-0.498 209.198,-0.285 209.042,-0.135C208.886,0.015 208.67,0.09 208.394,0.09C208.13,0.09 207.92,0.012 207.764,-0.144C207.608,-0.3 207.53,-0.51 207.53,-0.774L207.53,-1.44C207.302,-0.936 206.963,-0.549 206.513,-0.279C206.063,-0.009 205.538,0.126 204.938,0.126C204.362,0.126 203.834,0.009 203.354,-0.225C202.874,-0.459 202.499,-0.786 202.229,-1.206C201.959,-1.626 201.824,-2.094 201.824,-2.61C201.824,-3.246 201.989,-3.747 202.319,-4.113C202.649,-4.479 203.195,-4.74 203.957,-4.896C204.719,-5.052 205.766,-5.13 207.098,-5.13L207.512,-5.13L207.512,-5.652C207.512,-6.324 207.374,-6.81 207.098,-7.11C206.822,-7.41 206.378,-7.56 205.766,-7.56C205.346,-7.56 204.95,-7.506 204.578,-7.398C204.206,-7.29 203.798,-7.134 203.354,-6.93C203.03,-6.75 202.802,-6.66 202.67,-6.66C202.49,-6.66 202.343,-6.726 202.229,-6.858C202.115,-6.99 202.058,-7.158 202.058,-7.362C202.058,-7.542 202.109,-7.701 202.211,-7.839C202.313,-7.977 202.478,-8.112 202.706,-8.244C203.126,-8.472 203.618,-8.655 204.182,-8.793C204.746,-8.931 205.292,-9 205.82,-9C206.984,-9 207.851,-8.706 208.421,-8.118ZM206.882,-1.899C207.302,-2.349 207.512,-2.928 207.512,-3.636L207.512,-4.104L207.188,-4.104C206.252,-4.104 205.532,-4.062 205.028,-3.978C204.524,-3.894 204.164,-3.753 203.948,-3.555C203.732,-3.357 203.624,-3.072 203.624,-2.7C203.624,-2.268 203.78,-1.914 204.092,-1.638C204.404,-1.362 204.794,-1.224 205.262,-1.224C205.922,-1.224 206.462,-1.449 206.882,-1.899Z" style="fill-rule:nonzero;"/>
                    <path d="M216.572,-1.089C216.686,-0.975 216.743,-0.816 216.743,-0.612C216.743,-0.372 216.65,-0.189 216.464,-0.063C216.278,0.063 216.005,0.114 215.645,0.09L215.159,0.054C214.187,-0.018 213.461,-0.315 212.981,-0.837C212.501,-1.359 212.261,-2.13 212.261,-3.15L212.261,-7.38L211.181,-7.38C210.653,-7.38 210.389,-7.614 210.389,-8.082C210.389,-8.298 210.458,-8.469 210.596,-8.595C210.734,-8.721 210.929,-8.784 211.181,-8.784L212.261,-8.784L212.261,-10.638C212.261,-10.914 212.342,-11.13 212.504,-11.286C212.666,-11.442 212.885,-11.52 213.161,-11.52C213.437,-11.52 213.659,-11.442 213.827,-11.286C213.995,-11.13 214.079,-10.914 214.079,-10.638L214.079,-8.784L215.861,-8.784C216.113,-8.784 216.308,-8.721 216.446,-8.595C216.584,-8.469 216.653,-8.298 216.653,-8.082C216.653,-7.854 216.584,-7.68 216.446,-7.56C216.308,-7.44 216.113,-7.38 215.861,-7.38L214.079,-7.38L214.079,-3.024C214.079,-2.46 214.196,-2.046 214.43,-1.782C214.664,-1.518 215.021,-1.368 215.501,-1.332L216.005,-1.296C216.269,-1.272 216.458,-1.203 216.572,-1.089Z" style="fill-rule:nonzero;"/>
                    <path d="M218.054,-0.63C217.838,-0.762 217.685,-0.9 217.595,-1.044C217.505,-1.188 217.46,-1.35 217.46,-1.53C217.46,-1.722 217.514,-1.884 217.622,-2.016C217.73,-2.148 217.868,-2.214 218.036,-2.214C218.192,-2.214 218.438,-2.118 218.774,-1.926C219.134,-1.734 219.485,-1.578 219.827,-1.458C220.169,-1.338 220.598,-1.278 221.114,-1.278C221.69,-1.278 222.14,-1.38 222.464,-1.584C222.788,-1.788 222.95,-2.076 222.95,-2.448C222.95,-2.688 222.887,-2.88 222.761,-3.024C222.635,-3.168 222.416,-3.297 222.104,-3.411C221.792,-3.525 221.33,-3.648 220.718,-3.78C219.662,-4.008 218.903,-4.317 218.441,-4.707C217.979,-5.097 217.748,-5.628 217.748,-6.3C217.748,-6.816 217.898,-7.281 218.198,-7.695C218.498,-8.109 218.912,-8.43 219.44,-8.658C219.968,-8.886 220.568,-9 221.24,-9C221.72,-9 222.188,-8.937 222.644,-8.811C223.1,-8.685 223.502,-8.502 223.85,-8.262C224.246,-7.998 224.444,-7.692 224.444,-7.344C224.444,-7.152 224.387,-6.99 224.273,-6.858C224.159,-6.726 224.024,-6.66 223.868,-6.66C223.76,-6.66 223.652,-6.684 223.544,-6.732C223.436,-6.78 223.292,-6.858 223.112,-6.966C222.788,-7.158 222.485,-7.308 222.203,-7.416C221.921,-7.524 221.57,-7.578 221.15,-7.578C220.646,-7.578 220.241,-7.47 219.935,-7.254C219.629,-7.038 219.476,-6.744 219.476,-6.372C219.476,-6.036 219.617,-5.775 219.899,-5.589C220.181,-5.403 220.712,-5.226 221.492,-5.058C222.296,-4.89 222.926,-4.698 223.382,-4.482C223.838,-4.266 224.165,-3.999 224.363,-3.681C224.561,-3.363 224.66,-2.958 224.66,-2.466C224.66,-1.686 224.333,-1.059 223.679,-0.585C223.025,-0.111 222.152,0.126 221.06,0.126C219.836,0.126 218.834,-0.126 218.054,-0.63Z" style="fill-rule:nonzero;"/>
                    <path d="M237.605,-8.118C238.175,-7.53 238.46,-6.636 238.46,-5.436L238.46,-0.774C238.46,-0.498 238.382,-0.285 238.226,-0.135C238.07,0.015 237.854,0.09 237.578,0.09C237.314,0.09 237.104,0.012 236.948,-0.144C236.792,-0.3 236.714,-0.51 236.714,-0.774L236.714,-1.44C236.486,-0.936 236.147,-0.549 235.697,-0.279C235.247,-0.009 234.722,0.126 234.122,0.126C233.546,0.126 233.018,0.009 232.538,-0.225C232.058,-0.459 231.683,-0.786 231.413,-1.206C231.143,-1.626 231.008,-2.094 231.008,-2.61C231.008,-3.246 231.173,-3.747 231.503,-4.113C231.833,-4.479 232.379,-4.74 233.141,-4.896C233.903,-5.052 234.95,-5.13 236.282,-5.13L236.696,-5.13L236.696,-5.652C236.696,-6.324 236.558,-6.81 236.282,-7.11C236.006,-7.41 235.562,-7.56 234.95,-7.56C234.53,-7.56 234.134,-7.506 233.762,-7.398C233.39,-7.29 232.982,-7.134 232.538,-6.93C232.214,-6.75 231.986,-6.66 231.854,-6.66C231.674,-6.66 231.527,-6.726 231.413,-6.858C231.299,-6.99 231.242,-7.158 231.242,-7.362C231.242,-7.542 231.293,-7.701 231.395,-7.839C231.497,-7.977 231.662,-8.112 231.89,-8.244C232.31,-8.472 232.802,-8.655 233.366,-8.793C233.93,-8.931 234.476,-9 235.004,-9C236.168,-9 237.035,-8.706 237.605,-8.118ZM236.066,-1.899C236.486,-2.349 236.696,-2.928 236.696,-3.636L236.696,-4.104L236.372,-4.104C235.436,-4.104 234.716,-4.062 234.212,-3.978C233.708,-3.894 233.348,-3.753 233.132,-3.555C232.916,-3.357 232.808,-3.072 232.808,-2.7C232.808,-2.268 232.964,-1.914 233.276,-1.638C233.588,-1.362 233.978,-1.224 234.446,-1.224C235.106,-1.224 235.646,-1.449 236.066,-1.899Z" style="fill-rule:nonzero;"/>
                    <path d="M248.771,-5.454L248.771,-0.774C248.771,-0.498 248.69,-0.285 248.528,-0.135C248.366,0.015 248.141,0.09 247.853,0.09C247.577,0.09 247.358,0.012 247.196,-0.144C247.034,-0.3 246.953,-0.51 246.953,-0.774L246.953,-5.364C246.953,-6.108 246.806,-6.654 246.512,-7.002C246.218,-7.35 245.759,-7.524 245.135,-7.524C244.403,-7.524 243.815,-7.296 243.371,-6.84C242.927,-6.384 242.705,-5.772 242.705,-5.004L242.705,-0.774C242.705,-0.51 242.624,-0.3 242.462,-0.144C242.3,0.012 242.081,0.09 241.805,0.09C241.529,0.09 241.307,0.012 241.139,-0.144C240.971,-0.3 240.887,-0.51 240.887,-0.774L240.887,-8.1C240.887,-8.352 240.974,-8.559 241.148,-8.721C241.322,-8.883 241.541,-8.964 241.805,-8.964C242.069,-8.964 242.279,-8.886 242.435,-8.73C242.591,-8.574 242.669,-8.37 242.669,-8.118L242.669,-7.38C242.957,-7.908 243.359,-8.31 243.875,-8.586C244.391,-8.862 244.973,-9 245.621,-9C247.721,-9 248.771,-7.818 248.771,-5.454Z" style="fill-rule:nonzero;"/>
                    <path d="M259.046,-12.546C259.214,-12.39 259.298,-12.18 259.298,-11.916L259.298,-0.792C259.298,-0.516 259.217,-0.3 259.055,-0.144C258.893,0.012 258.674,0.09 258.398,0.09C258.122,0.09 257.903,0.012 257.741,-0.144C257.579,-0.3 257.498,-0.516 257.498,-0.792L257.498,-1.512C257.234,-0.984 256.85,-0.579 256.346,-0.297C255.842,-0.015 255.26,0.126 254.6,0.126C253.844,0.126 253.169,-0.066 252.575,-0.45C251.981,-0.834 251.519,-1.374 251.189,-2.07C250.859,-2.766 250.694,-3.564 250.694,-4.464C250.694,-5.376 250.859,-6.174 251.189,-6.858C251.519,-7.542 251.978,-8.07 252.566,-8.442C253.154,-8.814 253.832,-9 254.6,-9C255.26,-9 255.839,-8.859 256.337,-8.577C256.835,-8.295 257.216,-7.896 257.48,-7.38L257.48,-11.952C257.48,-12.204 257.561,-12.405 257.723,-12.555C257.885,-12.705 258.104,-12.78 258.38,-12.78C258.656,-12.78 258.878,-12.702 259.046,-12.546ZM256.85,-2.124C257.282,-2.664 257.498,-3.432 257.498,-4.428C257.498,-5.424 257.285,-6.192 256.859,-6.732C256.433,-7.272 255.824,-7.542 255.032,-7.542C254.24,-7.542 253.625,-7.275 253.187,-6.741C252.749,-6.207 252.53,-5.448 252.53,-4.464C252.53,-3.48 252.752,-2.709 253.196,-2.151C253.64,-1.593 254.252,-1.314 255.032,-1.314C255.812,-1.314 256.418,-1.584 256.85,-2.124Z" style="fill-rule:nonzero;"/>
                    <path d="M273.215,-8.424C273.809,-8.04 274.271,-7.5 274.601,-6.804C274.931,-6.108 275.096,-5.304 275.096,-4.392C275.096,-3.492 274.934,-2.7 274.61,-2.016C274.286,-1.332 273.827,-0.804 273.233,-0.432C272.639,-0.06 271.958,0.126 271.19,0.126C270.53,0.126 269.948,-0.015 269.444,-0.297C268.94,-0.579 268.556,-0.984 268.292,-1.512L268.292,2.502C268.292,2.754 268.211,2.955 268.049,3.105C267.887,3.255 267.674,3.33 267.41,3.33C267.134,3.33 266.909,3.252 266.735,3.096C266.561,2.94 266.474,2.73 266.474,2.466L266.474,-8.082C266.474,-8.346 266.558,-8.559 266.726,-8.721C266.894,-8.883 267.116,-8.964 267.392,-8.964C267.656,-8.964 267.872,-8.883 268.04,-8.721C268.208,-8.559 268.292,-8.346 268.292,-8.082L268.292,-7.344C268.556,-7.872 268.94,-8.28 269.444,-8.568C269.948,-8.856 270.53,-9 271.19,-9C271.946,-9 272.621,-8.808 273.215,-8.424ZM272.594,-2.115C273.026,-2.649 273.242,-3.408 273.242,-4.392C273.242,-5.388 273.023,-6.162 272.585,-6.714C272.147,-7.266 271.538,-7.542 270.758,-7.542C269.966,-7.542 269.357,-7.272 268.931,-6.732C268.505,-6.192 268.292,-5.424 268.292,-4.428C268.292,-3.432 268.505,-2.664 268.931,-2.124C269.357,-1.584 269.966,-1.314 270.758,-1.314C271.55,-1.314 272.162,-1.581 272.594,-2.115Z" style="fill-rule:nonzero;"/>
                    <path d="M278.594,-0.432C277.94,-0.804 277.436,-1.335 277.082,-2.025C276.728,-2.715 276.551,-3.516 276.551,-4.428C276.551,-5.352 276.728,-6.159 277.082,-6.849C277.436,-7.539 277.94,-8.07 278.594,-8.442C279.248,-8.814 280.007,-9 280.871,-9C281.735,-9 282.494,-8.814 283.148,-8.442C283.802,-8.07 284.306,-7.539 284.66,-6.849C285.014,-6.159 285.191,-5.352 285.191,-4.428C285.191,-3.516 285.014,-2.715 284.66,-2.025C284.306,-1.335 283.802,-0.804 283.148,-0.432C282.494,-0.06 281.735,0.126 280.871,0.126C280.007,0.126 279.248,-0.06 278.594,-0.432ZM282.716,-2.106C283.142,-2.634 283.355,-3.408 283.355,-4.428C283.355,-5.436 283.139,-6.207 282.707,-6.741C282.275,-7.275 281.663,-7.542 280.871,-7.542C280.079,-7.542 279.467,-7.275 279.035,-6.741C278.603,-6.207 278.387,-5.436 278.387,-4.428C278.387,-3.408 278.6,-2.634 279.026,-2.106C279.452,-1.578 280.067,-1.314 280.871,-1.314C281.675,-1.314 282.29,-1.578 282.716,-2.106Z" style="fill-rule:nonzero;"/>
                    <path d="M287.411,-0.126C287.237,-0.27 287.15,-0.486 287.15,-0.774L287.15,-11.898C287.15,-12.186 287.237,-12.405 287.411,-12.555C287.585,-12.705 287.804,-12.78 288.068,-12.78C288.332,-12.78 288.548,-12.705 288.716,-12.555C288.884,-12.405 288.968,-12.186 288.968,-11.898L288.968,-0.774C288.968,-0.486 288.884,-0.27 288.716,-0.126C288.548,0.018 288.332,0.09 288.068,0.09C287.804,0.09 287.585,0.018 287.411,-0.126Z" style="fill-rule:nonzero;"/>
                    <path d="M291.71,-0.126C291.536,-0.27 291.449,-0.486 291.449,-0.774L291.449,-8.082C291.449,-8.37 291.536,-8.589 291.71,-8.739C291.884,-8.889 292.103,-8.964 292.367,-8.964C292.631,-8.964 292.847,-8.889 293.015,-8.739C293.183,-8.589 293.267,-8.37 293.267,-8.082L293.267,-0.774C293.267,-0.486 293.183,-0.27 293.015,-0.126C292.847,0.018 292.631,0.09 292.367,0.09C292.103,0.09 291.884,0.018 291.71,-0.126ZM291.539,-11.016C291.335,-11.208 291.233,-11.46 291.233,-11.772C291.233,-12.084 291.335,-12.333 291.539,-12.519C291.743,-12.705 292.019,-12.798 292.367,-12.798C292.703,-12.798 292.976,-12.705 293.186,-12.519C293.396,-12.333 293.501,-12.084 293.501,-11.772C293.501,-11.46 293.399,-11.208 293.195,-11.016C292.991,-10.824 292.715,-10.728 292.367,-10.728C292.019,-10.728 291.743,-10.824 291.539,-11.016Z" style="fill-rule:nonzero;"/>
                    <path d="M297.269,-0.432C296.627,-0.804 296.129,-1.332 295.775,-2.016C295.421,-2.7 295.244,-3.492 295.244,-4.392C295.244,-5.304 295.427,-6.108 295.793,-6.804C296.159,-7.5 296.672,-8.04 297.332,-8.424C297.992,-8.808 298.748,-9 299.6,-9C300.056,-9 300.515,-8.934 300.977,-8.802C301.439,-8.67 301.85,-8.49 302.21,-8.262C302.594,-7.998 302.786,-7.692 302.786,-7.344C302.786,-7.14 302.732,-6.969 302.624,-6.831C302.516,-6.693 302.378,-6.624 302.21,-6.624C302.102,-6.624 301.994,-6.651 301.886,-6.705C301.778,-6.759 301.64,-6.84 301.472,-6.948C301.172,-7.14 300.893,-7.287 300.635,-7.389C300.377,-7.491 300.068,-7.542 299.708,-7.542C298.892,-7.542 298.259,-7.266 297.809,-6.714C297.359,-6.162 297.134,-5.394 297.134,-4.41C297.134,-3.426 297.356,-2.667 297.8,-2.133C298.244,-1.599 298.874,-1.332 299.69,-1.332C300.05,-1.332 300.368,-1.386 300.644,-1.494C300.92,-1.602 301.202,-1.746 301.49,-1.926C301.622,-2.01 301.754,-2.082 301.886,-2.142C302.018,-2.202 302.138,-2.232 302.246,-2.232C302.414,-2.232 302.552,-2.163 302.66,-2.025C302.768,-1.887 302.822,-1.716 302.822,-1.512C302.822,-1.344 302.777,-1.191 302.687,-1.053C302.597,-0.915 302.444,-0.774 302.228,-0.63C301.868,-0.39 301.448,-0.204 300.968,-0.072C300.488,0.06 300.002,0.126 299.51,0.126C298.658,0.126 297.911,-0.06 297.269,-0.432Z" style="fill-rule:nonzero;"/>
                    <path d="M310.946,-8.82C311.084,-8.904 311.231,-8.946 311.387,-8.946C311.615,-8.946 311.816,-8.868 311.99,-8.712C312.164,-8.556 312.251,-8.37 312.251,-8.154C312.251,-8.034 312.227,-7.92 312.179,-7.812L307.175,2.808C307.103,2.976 306.998,3.105 306.86,3.195C306.722,3.285 306.575,3.33 306.419,3.33C306.203,3.33 306.008,3.258 305.834,3.114C305.66,2.97 305.573,2.79 305.573,2.574C305.573,2.478 305.603,2.358 305.663,2.214L306.905,-0.432L303.431,-7.812C303.383,-7.908 303.359,-8.016 303.359,-8.136C303.359,-8.364 303.455,-8.556 303.647,-8.712C303.839,-8.868 304.055,-8.946 304.295,-8.946C304.655,-8.946 304.913,-8.778 305.069,-8.442L307.859,-2.25L310.631,-8.424C310.703,-8.604 310.808,-8.736 310.946,-8.82Z" style="fill-rule:nonzero;"/>
                    <path d="M324.944,-8.82C325.082,-8.904 325.229,-8.946 325.385,-8.946C325.613,-8.946 325.814,-8.868 325.988,-8.712C326.162,-8.556 326.249,-8.37 326.249,-8.154C326.249,-8.034 326.225,-7.92 326.177,-7.812L322.739,-0.522C322.655,-0.33 322.526,-0.183 322.352,-0.081C322.178,0.021 321.995,0.072 321.803,0.072C321.611,0.072 321.428,0.021 321.254,-0.081C321.08,-0.183 320.951,-0.33 320.867,-0.522L317.429,-7.812C317.381,-7.908 317.357,-8.022 317.357,-8.154C317.357,-8.37 317.453,-8.556 317.645,-8.712C317.837,-8.868 318.053,-8.946 318.293,-8.946C318.641,-8.946 318.899,-8.778 319.067,-8.442L321.857,-2.25L324.629,-8.424C324.701,-8.604 324.806,-8.736 324.944,-8.82Z" style="fill-rule:nonzero;"/>
                    <path d="M327.947,-0.126C327.773,-0.27 327.686,-0.486 327.686,-0.774L327.686,-8.082C327.686,-8.37 327.773,-8.589 327.947,-8.739C328.121,-8.889 328.34,-8.964 328.604,-8.964C328.868,-8.964 329.084,-8.889 329.252,-8.739C329.42,-8.589 329.504,-8.37 329.504,-8.082L329.504,-0.774C329.504,-0.486 329.42,-0.27 329.252,-0.126C329.084,0.018 328.868,0.09 328.604,0.09C328.34,0.09 328.121,0.018 327.947,-0.126ZM327.776,-11.016C327.572,-11.208 327.47,-11.46 327.47,-11.772C327.47,-12.084 327.572,-12.333 327.776,-12.519C327.98,-12.705 328.256,-12.798 328.604,-12.798C328.94,-12.798 329.213,-12.705 329.423,-12.519C329.633,-12.333 329.738,-12.084 329.738,-11.772C329.738,-11.46 329.636,-11.208 329.432,-11.016C329.228,-10.824 328.952,-10.728 328.604,-10.728C328.256,-10.728 327.98,-10.824 327.776,-11.016Z" style="fill-rule:nonzero;"/>
                    <path d="M333.524,-0.432C332.87,-0.804 332.366,-1.335 332.012,-2.025C331.658,-2.715 331.481,-3.516 331.481,-4.428C331.481,-5.352 331.658,-6.159 332.012,-6.849C332.366,-7.539 332.87,-8.07 333.524,-8.442C334.178,-8.814 334.937,-9 335.801,-9C336.665,-9 337.424,-8.814 338.078,-8.442C338.732,-8.07 339.236,-7.539 339.59,-6.849C339.944,-6.159 340.121,-5.352 340.121,-4.428C340.121,-3.516 339.944,-2.715 339.59,-2.025C339.236,-1.335 338.732,-0.804 338.078,-0.432C337.424,-0.06 336.665,0.126 335.801,0.126C334.937,0.126 334.178,-0.06 333.524,-0.432ZM337.646,-2.106C338.072,-2.634 338.285,-3.408 338.285,-4.428C338.285,-5.436 338.069,-6.207 337.637,-6.741C337.205,-7.275 336.593,-7.542 335.801,-7.542C335.009,-7.542 334.397,-7.275 333.965,-6.741C333.533,-6.207 333.317,-5.436 333.317,-4.428C333.317,-3.408 333.53,-2.634 333.956,-2.106C334.382,-1.578 334.997,-1.314 335.801,-1.314C336.605,-1.314 337.22,-1.578 337.646,-2.106Z" style="fill-rule:nonzero;"/>
                    <path d="M342.341,-0.126C342.167,-0.27 342.08,-0.486 342.08,-0.774L342.08,-11.898C342.08,-12.186 342.167,-12.405 342.341,-12.555C342.515,-12.705 342.734,-12.78 342.998,-12.78C343.262,-12.78 343.478,-12.705 343.646,-12.555C343.814,-12.405 343.898,-12.186 343.898,-11.898L343.898,-0.774C343.898,-0.486 343.814,-0.27 343.646,-0.126C343.478,0.018 343.262,0.09 342.998,0.09C342.734,0.09 342.515,0.018 342.341,-0.126Z" style="fill-rule:nonzero;"/>
                    <path d="M352.67,-8.118C353.24,-7.53 353.525,-6.636 353.525,-5.436L353.525,-0.774C353.525,-0.498 353.447,-0.285 353.291,-0.135C353.135,0.015 352.919,0.09 352.643,0.09C352.379,0.09 352.169,0.012 352.013,-0.144C351.857,-0.3 351.779,-0.51 351.779,-0.774L351.779,-1.44C351.551,-0.936 351.212,-0.549 350.762,-0.279C350.312,-0.009 349.787,0.126 349.187,0.126C348.611,0.126 348.083,0.009 347.603,-0.225C347.123,-0.459 346.748,-0.786 346.478,-1.206C346.208,-1.626 346.073,-2.094 346.073,-2.61C346.073,-3.246 346.238,-3.747 346.568,-4.113C346.898,-4.479 347.444,-4.74 348.206,-4.896C348.968,-5.052 350.015,-5.13 351.347,-5.13L351.761,-5.13L351.761,-5.652C351.761,-6.324 351.623,-6.81 351.347,-7.11C351.071,-7.41 350.627,-7.56 350.015,-7.56C349.595,-7.56 349.199,-7.506 348.827,-7.398C348.455,-7.29 348.047,-7.134 347.603,-6.93C347.279,-6.75 347.051,-6.66 346.919,-6.66C346.739,-6.66 346.592,-6.726 346.478,-6.858C346.364,-6.99 346.307,-7.158 346.307,-7.362C346.307,-7.542 346.358,-7.701 346.46,-7.839C346.562,-7.977 346.727,-8.112 346.955,-8.244C347.375,-8.472 347.867,-8.655 348.431,-8.793C348.995,-8.931 349.541,-9 350.069,-9C351.233,-9 352.1,-8.706 352.67,-8.118ZM351.131,-1.899C351.551,-2.349 351.761,-2.928 351.761,-3.636L351.761,-4.104L351.437,-4.104C350.501,-4.104 349.781,-4.062 349.277,-3.978C348.773,-3.894 348.413,-3.753 348.197,-3.555C347.981,-3.357 347.873,-3.072 347.873,-2.7C347.873,-2.268 348.029,-1.914 348.341,-1.638C348.653,-1.362 349.043,-1.224 349.511,-1.224C350.171,-1.224 350.711,-1.449 351.131,-1.899Z" style="fill-rule:nonzero;"/>
                    <path d="M360.821,-1.089C360.935,-0.975 360.992,-0.816 360.992,-0.612C360.992,-0.372 360.899,-0.189 360.713,-0.063C360.527,0.063 360.254,0.114 359.894,0.09L359.408,0.054C358.436,-0.018 357.71,-0.315 357.23,-0.837C356.75,-1.359 356.51,-2.13 356.51,-3.15L356.51,-7.38L355.43,-7.38C354.902,-7.38 354.638,-7.614 354.638,-8.082C354.638,-8.298 354.707,-8.469 354.845,-8.595C354.983,-8.721 355.178,-8.784 355.43,-8.784L356.51,-8.784L356.51,-10.638C356.51,-10.914 356.591,-11.13 356.753,-11.286C356.915,-11.442 357.134,-11.52 357.41,-11.52C357.686,-11.52 357.908,-11.442 358.076,-11.286C358.244,-11.13 358.328,-10.914 358.328,-10.638L358.328,-8.784L360.11,-8.784C360.362,-8.784 360.557,-8.721 360.695,-8.595C360.833,-8.469 360.902,-8.298 360.902,-8.082C360.902,-7.854 360.833,-7.68 360.695,-7.56C360.557,-7.44 360.362,-7.38 360.11,-7.38L358.328,-7.38L358.328,-3.024C358.328,-2.46 358.445,-2.046 358.679,-1.782C358.913,-1.518 359.27,-1.368 359.75,-1.332L360.254,-1.296C360.518,-1.272 360.707,-1.203 360.821,-1.089Z" style="fill-rule:nonzero;"/>
                    <path d="M362.51,-0.126C362.336,-0.27 362.249,-0.486 362.249,-0.774L362.249,-8.082C362.249,-8.37 362.336,-8.589 362.51,-8.739C362.684,-8.889 362.903,-8.964 363.167,-8.964C363.431,-8.964 363.647,-8.889 363.815,-8.739C363.983,-8.589 364.067,-8.37 364.067,-8.082L364.067,-0.774C364.067,-0.486 363.983,-0.27 363.815,-0.126C363.647,0.018 363.431,0.09 363.167,0.09C362.903,0.09 362.684,0.018 362.51,-0.126ZM362.339,-11.016C362.135,-11.208 362.033,-11.46 362.033,-11.772C362.033,-12.084 362.135,-12.333 362.339,-12.519C362.543,-12.705 362.819,-12.798 363.167,-12.798C363.503,-12.798 363.776,-12.705 363.986,-12.519C364.196,-12.333 364.301,-12.084 364.301,-11.772C364.301,-11.46 364.199,-11.208 363.995,-11.016C363.791,-10.824 363.515,-10.728 363.167,-10.728C362.819,-10.728 362.543,-10.824 362.339,-11.016Z" style="fill-rule:nonzero;"/>
                    <path d="M368.087,-0.432C367.433,-0.804 366.929,-1.335 366.575,-2.025C366.221,-2.715 366.044,-3.516 366.044,-4.428C366.044,-5.352 366.221,-6.159 366.575,-6.849C366.929,-7.539 367.433,-8.07 368.087,-8.442C368.741,-8.814 369.5,-9 370.364,-9C371.228,-9 371.987,-8.814 372.641,-8.442C373.295,-8.07 373.799,-7.539 374.153,-6.849C374.507,-6.159 374.684,-5.352 374.684,-4.428C374.684,-3.516 374.507,-2.715 374.153,-2.025C373.799,-1.335 373.295,-0.804 372.641,-0.432C371.987,-0.06 371.228,0.126 370.364,0.126C369.5,0.126 368.741,-0.06 368.087,-0.432ZM372.209,-2.106C372.635,-2.634 372.848,-3.408 372.848,-4.428C372.848,-5.436 372.632,-6.207 372.2,-6.741C371.768,-7.275 371.156,-7.542 370.364,-7.542C369.572,-7.542 368.96,-7.275 368.528,-6.741C368.096,-6.207 367.88,-5.436 367.88,-4.428C367.88,-3.408 368.093,-2.634 368.519,-2.106C368.945,-1.578 369.56,-1.314 370.364,-1.314C371.168,-1.314 371.783,-1.578 372.209,-2.106Z" style="fill-rule:nonzero;"/>
                    <path d="M384.527,-5.454L384.527,-0.774C384.527,-0.498 384.446,-0.285 384.284,-0.135C384.122,0.015 383.897,0.09 383.609,0.09C383.333,0.09 383.114,0.012 382.952,-0.144C382.79,-0.3 382.709,-0.51 382.709,-0.774L382.709,-5.364C382.709,-6.108 382.562,-6.654 382.268,-7.002C381.974,-7.35 381.515,-7.524 380.891,-7.524C380.159,-7.524 379.571,-7.296 379.127,-6.84C378.683,-6.384 378.461,-5.772 378.461,-5.004L378.461,-0.774C378.461,-0.51 378.38,-0.3 378.218,-0.144C378.056,0.012 377.837,0.09 377.561,0.09C377.285,0.09 377.063,0.012 376.895,-0.144C376.727,-0.3 376.643,-0.51 376.643,-0.774L376.643,-8.1C376.643,-8.352 376.73,-8.559 376.904,-8.721C377.078,-8.883 377.297,-8.964 377.561,-8.964C377.825,-8.964 378.035,-8.886 378.191,-8.73C378.347,-8.574 378.425,-8.37 378.425,-8.118L378.425,-7.38C378.713,-7.908 379.115,-8.31 379.631,-8.586C380.147,-8.862 380.729,-9 381.377,-9C383.477,-9 384.527,-7.818 384.527,-5.454Z" style="fill-rule:nonzero;"/>
                    <path d="M387.008,-0.63C386.792,-0.762 386.639,-0.9 386.549,-1.044C386.459,-1.188 386.414,-1.35 386.414,-1.53C386.414,-1.722 386.468,-1.884 386.576,-2.016C386.684,-2.148 386.822,-2.214 386.99,-2.214C387.146,-2.214 387.392,-2.118 387.728,-1.926C388.088,-1.734 388.439,-1.578 388.781,-1.458C389.123,-1.338 389.552,-1.278 390.068,-1.278C390.644,-1.278 391.094,-1.38 391.418,-1.584C391.742,-1.788 391.904,-2.076 391.904,-2.448C391.904,-2.688 391.841,-2.88 391.715,-3.024C391.589,-3.168 391.37,-3.297 391.058,-3.411C390.746,-3.525 390.284,-3.648 389.672,-3.78C388.616,-4.008 387.857,-4.317 387.395,-4.707C386.933,-5.097 386.702,-5.628 386.702,-6.3C386.702,-6.816 386.852,-7.281 387.152,-7.695C387.452,-8.109 387.866,-8.43 388.394,-8.658C388.922,-8.886 389.522,-9 390.194,-9C390.674,-9 391.142,-8.937 391.598,-8.811C392.054,-8.685 392.456,-8.502 392.804,-8.262C393.2,-7.998 393.398,-7.692 393.398,-7.344C393.398,-7.152 393.341,-6.99 393.227,-6.858C393.113,-6.726 392.978,-6.66 392.822,-6.66C392.714,-6.66 392.606,-6.684 392.498,-6.732C392.39,-6.78 392.246,-6.858 392.066,-6.966C391.742,-7.158 391.439,-7.308 391.157,-7.416C390.875,-7.524 390.524,-7.578 390.104,-7.578C389.6,-7.578 389.195,-7.47 388.889,-7.254C388.583,-7.038 388.43,-6.744 388.43,-6.372C388.43,-6.036 388.571,-5.775 388.853,-5.589C389.135,-5.403 389.666,-5.226 390.446,-5.058C391.25,-4.89 391.88,-4.698 392.336,-4.482C392.792,-4.266 393.119,-3.999 393.317,-3.681C393.515,-3.363 393.614,-2.958 393.614,-2.466C393.614,-1.686 393.287,-1.059 392.633,-0.585C391.979,-0.111 391.106,0.126 390.014,0.126C388.79,0.126 387.788,-0.126 387.008,-0.63Z" style="fill-rule:nonzero;"/>
                </g>
            </g>
        </g>
    </g>
</svg>
