<?xml version="1.0" encoding="UTF-8" standalone="no"?>
<!DOCTYPE svg PUBLIC "-//W3C//DTD SVG 1.1//EN" "http://www.w3.org/Graphics/SVG/1.1/DTD/svg11.dtd">
<svg width="100%" height="100%" viewBox="0 0 136 52" version="1.1" xmlns="http://www.w3.org/2000/svg" xmlns:xlink="http://www.w3.org/1999/xlink" xml:space="preserve" xmlns:serif="http://www.serif.com/" style="fill-rule:evenodd;clip-rule:evenodd;stroke-linejoin:round;stroke-miterlimit:1.41421;">
    <g transform="matrix(1,0,0,1,-321,-260)">
        <g transform="matrix(1,0,0,1,0,-8)">
            <g id="Inspection-Protectio" serif:id="Inspection/Protectio">
                <g transform="matrix(1,0,0,1,319,289.25)">
                    <path d="M2.688,-0.252C2.427,-0.513 2.296,-0.868 2.296,-1.316L2.296,-18.424C2.296,-18.853 2.427,-19.203 2.688,-19.474C2.949,-19.745 3.295,-19.88 3.724,-19.88C4.172,-19.88 4.527,-19.749 4.788,-19.488C5.049,-19.227 5.18,-18.872 5.18,-18.424L5.18,-1.316C5.18,-0.868 5.054,-0.513 4.802,-0.252C4.55,0.009 4.191,0.14 3.724,0.14C3.295,0.14 2.949,0.009 2.688,-0.252Z" style="fill-rule:nonzero;"/>
                    <path d="M21.562,-8.484L21.562,-1.204C21.562,-0.775 21.436,-0.443 21.184,-0.21C20.932,0.023 20.582,0.14 20.134,0.14C19.705,0.14 19.364,0.019 19.112,-0.224C18.86,-0.467 18.734,-0.793 18.734,-1.204L18.734,-8.344C18.734,-9.501 18.505,-10.351 18.048,-10.892C17.591,-11.433 16.877,-11.704 15.906,-11.704C14.767,-11.704 13.853,-11.349 13.162,-10.64C12.471,-9.931 12.126,-8.979 12.126,-7.784L12.126,-1.204C12.126,-0.793 12,-0.467 11.748,-0.224C11.496,0.019 11.155,0.14 10.726,0.14C10.297,0.14 9.951,0.019 9.69,-0.224C9.429,-0.467 9.298,-0.793 9.298,-1.204L9.298,-12.6C9.298,-12.992 9.433,-13.314 9.704,-13.566C9.975,-13.818 10.315,-13.944 10.726,-13.944C11.137,-13.944 11.463,-13.823 11.706,-13.58C11.949,-13.337 12.07,-13.02 12.07,-12.628L12.07,-11.48C12.518,-12.301 13.143,-12.927 13.946,-13.356C14.749,-13.785 15.654,-14 16.662,-14C19.929,-14 21.562,-12.161 21.562,-8.484Z" style="fill-rule:nonzero;"/>
                    <path d="M25.372,-0.98C25.036,-1.185 24.798,-1.4 24.658,-1.624C24.518,-1.848 24.448,-2.1 24.448,-2.38C24.448,-2.679 24.532,-2.931 24.7,-3.136C24.868,-3.341 25.083,-3.444 25.344,-3.444C25.587,-3.444 25.969,-3.295 26.492,-2.996C27.052,-2.697 27.598,-2.455 28.13,-2.268C28.662,-2.081 29.329,-1.988 30.132,-1.988C31.028,-1.988 31.728,-2.147 32.232,-2.464C32.736,-2.781 32.988,-3.229 32.988,-3.808C32.988,-4.181 32.89,-4.48 32.694,-4.704C32.498,-4.928 32.157,-5.129 31.672,-5.306C31.187,-5.483 30.468,-5.675 29.516,-5.88C27.873,-6.235 26.693,-6.715 25.974,-7.322C25.255,-7.929 24.896,-8.755 24.896,-9.8C24.896,-10.603 25.129,-11.326 25.596,-11.97C26.063,-12.614 26.707,-13.113 27.528,-13.468C28.349,-13.823 29.283,-14 30.328,-14C31.075,-14 31.803,-13.902 32.512,-13.706C33.221,-13.51 33.847,-13.225 34.388,-12.852C35.004,-12.441 35.312,-11.965 35.312,-11.424C35.312,-11.125 35.223,-10.873 35.046,-10.668C34.869,-10.463 34.659,-10.36 34.416,-10.36C34.248,-10.36 34.08,-10.397 33.912,-10.472C33.744,-10.547 33.52,-10.668 33.24,-10.836C32.736,-11.135 32.265,-11.368 31.826,-11.536C31.387,-11.704 30.841,-11.788 30.188,-11.788C29.404,-11.788 28.774,-11.62 28.298,-11.284C27.822,-10.948 27.584,-10.491 27.584,-9.912C27.584,-9.389 27.803,-8.983 28.242,-8.694C28.681,-8.405 29.507,-8.129 30.72,-7.868C31.971,-7.607 32.951,-7.308 33.66,-6.972C34.369,-6.636 34.878,-6.221 35.186,-5.726C35.494,-5.231 35.648,-4.601 35.648,-3.836C35.648,-2.623 35.139,-1.647 34.122,-0.91C33.105,-0.173 31.747,0.196 30.048,0.196C28.144,0.196 26.585,-0.196 25.372,-0.98Z" style="fill-rule:nonzero;"/>
                    <path d="M49.132,-13.104C50.056,-12.507 50.775,-11.667 51.288,-10.584C51.801,-9.501 52.058,-8.251 52.058,-6.832C52.058,-5.432 51.806,-4.2 51.302,-3.136C50.798,-2.072 50.084,-1.251 49.16,-0.672C48.236,-0.093 47.177,0.196 45.982,0.196C44.955,0.196 44.05,-0.023 43.266,-0.462C42.482,-0.901 41.885,-1.531 41.474,-2.352L41.474,3.892C41.474,4.284 41.348,4.597 41.096,4.83C40.844,5.063 40.513,5.18 40.102,5.18C39.673,5.18 39.323,5.059 39.052,4.816C38.781,4.573 38.646,4.247 38.646,3.836L38.646,-12.572C38.646,-12.983 38.777,-13.314 39.038,-13.566C39.299,-13.818 39.645,-13.944 40.074,-13.944C40.485,-13.944 40.821,-13.818 41.082,-13.566C41.343,-13.314 41.474,-12.983 41.474,-12.572L41.474,-11.424C41.885,-12.245 42.482,-12.88 43.266,-13.328C44.05,-13.776 44.955,-14 45.982,-14C47.158,-14 48.208,-13.701 49.132,-13.104ZM48.166,-3.29C48.838,-4.121 49.174,-5.301 49.174,-6.832C49.174,-8.381 48.833,-9.585 48.152,-10.444C47.471,-11.303 46.523,-11.732 45.31,-11.732C44.078,-11.732 43.131,-11.312 42.468,-10.472C41.805,-9.632 41.474,-8.437 41.474,-6.888C41.474,-5.339 41.805,-4.144 42.468,-3.304C43.131,-2.464 44.078,-2.044 45.31,-2.044C46.542,-2.044 47.494,-2.459 48.166,-3.29Z" style="fill-rule:nonzero;"/>
                    <path d="M66.396,-3.136C66.564,-2.931 66.648,-2.669 66.648,-2.352C66.648,-1.811 66.312,-1.353 65.64,-0.98C64.987,-0.607 64.273,-0.317 63.498,-0.112C62.723,0.093 61.981,0.196 61.272,0.196C59.107,0.196 57.399,-0.434 56.148,-1.694C54.897,-2.954 54.272,-4.676 54.272,-6.86C54.272,-8.26 54.547,-9.501 55.098,-10.584C55.649,-11.667 56.423,-12.507 57.422,-13.104C58.421,-13.701 59.555,-14 60.824,-14C62.653,-14 64.1,-13.412 65.164,-12.236C66.228,-11.06 66.76,-9.473 66.76,-7.476C66.76,-6.729 66.424,-6.356 65.752,-6.356L57.1,-6.356C57.287,-3.463 58.677,-2.016 61.272,-2.016C61.963,-2.016 62.56,-2.109 63.064,-2.296C63.568,-2.483 64.1,-2.725 64.66,-3.024C64.716,-3.061 64.87,-3.141 65.122,-3.262C65.374,-3.383 65.584,-3.444 65.752,-3.444C66.013,-3.444 66.228,-3.341 66.396,-3.136ZM58.276,-10.892C57.623,-10.201 57.231,-9.231 57.1,-7.98L64.324,-7.98C64.268,-9.249 63.946,-10.225 63.358,-10.906C62.77,-11.587 61.944,-11.928 60.88,-11.928C59.797,-11.928 58.929,-11.583 58.276,-10.892Z" style="fill-rule:nonzero;"/>
                    <path d="M72.096,-0.672C71.097,-1.251 70.323,-2.072 69.772,-3.136C69.221,-4.2 68.946,-5.432 68.946,-6.832C68.946,-8.251 69.231,-9.501 69.8,-10.584C70.369,-11.667 71.167,-12.507 72.194,-13.104C73.221,-13.701 74.397,-14 75.722,-14C76.431,-14 77.145,-13.897 77.864,-13.692C78.583,-13.487 79.222,-13.207 79.782,-12.852C80.379,-12.441 80.678,-11.965 80.678,-11.424C80.678,-11.107 80.594,-10.841 80.426,-10.626C80.258,-10.411 80.043,-10.304 79.782,-10.304C79.614,-10.304 79.446,-10.346 79.278,-10.43C79.11,-10.514 78.895,-10.64 78.634,-10.808C78.167,-11.107 77.733,-11.335 77.332,-11.494C76.931,-11.653 76.45,-11.732 75.89,-11.732C74.621,-11.732 73.636,-11.303 72.936,-10.444C72.236,-9.585 71.886,-8.391 71.886,-6.86C71.886,-5.329 72.231,-4.149 72.922,-3.318C73.613,-2.487 74.593,-2.072 75.862,-2.072C76.422,-2.072 76.917,-2.156 77.346,-2.324C77.775,-2.492 78.214,-2.716 78.662,-2.996C78.867,-3.127 79.073,-3.239 79.278,-3.332C79.483,-3.425 79.67,-3.472 79.838,-3.472C80.099,-3.472 80.314,-3.365 80.482,-3.15C80.65,-2.935 80.734,-2.669 80.734,-2.352C80.734,-2.091 80.664,-1.853 80.524,-1.638C80.384,-1.423 80.146,-1.204 79.81,-0.98C79.25,-0.607 78.597,-0.317 77.85,-0.112C77.103,0.093 76.347,0.196 75.582,0.196C74.257,0.196 73.095,-0.093 72.096,-0.672Z" style="fill-rule:nonzero;"/>
                    <path d="M90.746,-1.694C90.923,-1.517 91.012,-1.269 91.012,-0.952C91.012,-0.579 90.867,-0.294 90.578,-0.098C90.289,0.098 89.864,0.177 89.304,0.14L88.548,0.084C87.036,-0.028 85.907,-0.49 85.16,-1.302C84.413,-2.114 84.04,-3.313 84.04,-4.9L84.04,-11.48L82.36,-11.48C81.539,-11.48 81.128,-11.844 81.128,-12.572C81.128,-12.908 81.235,-13.174 81.45,-13.37C81.665,-13.566 81.968,-13.664 82.36,-13.664L84.04,-13.664L84.04,-16.548C84.04,-16.977 84.166,-17.313 84.418,-17.556C84.67,-17.799 85.011,-17.92 85.44,-17.92C85.869,-17.92 86.215,-17.799 86.476,-17.556C86.737,-17.313 86.868,-16.977 86.868,-16.548L86.868,-13.664L89.64,-13.664C90.032,-13.664 90.335,-13.566 90.55,-13.37C90.765,-13.174 90.872,-12.908 90.872,-12.572C90.872,-12.217 90.765,-11.947 90.55,-11.76C90.335,-11.573 90.032,-11.48 89.64,-11.48L86.868,-11.48L86.868,-4.704C86.868,-3.827 87.05,-3.183 87.414,-2.772C87.778,-2.361 88.333,-2.128 89.08,-2.072L89.864,-2.016C90.275,-1.979 90.569,-1.871 90.746,-1.694Z" style="fill-rule:nonzero;"/>
                    <path d="M93.324,-0.196C93.053,-0.42 92.918,-0.756 92.918,-1.204L92.918,-12.572C92.918,-13.02 93.053,-13.361 93.324,-13.594C93.595,-13.827 93.935,-13.944 94.346,-13.944C94.757,-13.944 95.093,-13.827 95.354,-13.594C95.615,-13.361 95.746,-13.02 95.746,-12.572L95.746,-1.204C95.746,-0.756 95.615,-0.42 95.354,-0.196C95.093,0.028 94.757,0.14 94.346,0.14C93.935,0.14 93.595,0.028 93.324,-0.196ZM93.058,-17.136C92.741,-17.435 92.582,-17.827 92.582,-18.312C92.582,-18.797 92.741,-19.185 93.058,-19.474C93.375,-19.763 93.805,-19.908 94.346,-19.908C94.869,-19.908 95.293,-19.763 95.62,-19.474C95.947,-19.185 96.11,-18.797 96.11,-18.312C96.11,-17.827 95.951,-17.435 95.634,-17.136C95.317,-16.837 94.887,-16.688 94.346,-16.688C93.805,-16.688 93.375,-16.837 93.058,-17.136Z" style="fill-rule:nonzero;"/>
                    <path d="M101.95,-0.672C100.933,-1.251 100.149,-2.077 99.598,-3.15C99.047,-4.223 98.772,-5.469 98.772,-6.888C98.772,-8.325 99.047,-9.581 99.598,-10.654C100.149,-11.727 100.933,-12.553 101.95,-13.132C102.967,-13.711 104.148,-14 105.492,-14C106.836,-14 108.017,-13.711 109.034,-13.132C110.051,-12.553 110.835,-11.727 111.386,-10.654C111.937,-9.581 112.212,-8.325 112.212,-6.888C112.212,-5.469 111.937,-4.223 111.386,-3.15C110.835,-2.077 110.051,-1.251 109.034,-0.672C108.017,-0.093 106.836,0.196 105.492,0.196C104.148,0.196 102.967,-0.093 101.95,-0.672ZM108.362,-3.276C109.025,-4.097 109.356,-5.301 109.356,-6.888C109.356,-8.456 109.02,-9.655 108.348,-10.486C107.676,-11.317 106.724,-11.732 105.492,-11.732C104.26,-11.732 103.308,-11.317 102.636,-10.486C101.964,-9.655 101.628,-8.456 101.628,-6.888C101.628,-5.301 101.959,-4.097 102.622,-3.276C103.285,-2.455 104.241,-2.044 105.492,-2.044C106.743,-2.044 107.699,-2.455 108.362,-3.276Z" style="fill-rule:nonzero;"/>
                    <path d="M127.474,-8.484L127.474,-1.204C127.474,-0.775 127.348,-0.443 127.096,-0.21C126.844,0.023 126.494,0.14 126.046,0.14C125.617,0.14 125.276,0.019 125.024,-0.224C124.772,-0.467 124.646,-0.793 124.646,-1.204L124.646,-8.344C124.646,-9.501 124.417,-10.351 123.96,-10.892C123.503,-11.433 122.789,-11.704 121.818,-11.704C120.679,-11.704 119.765,-11.349 119.074,-10.64C118.383,-9.931 118.038,-8.979 118.038,-7.784L118.038,-1.204C118.038,-0.793 117.912,-0.467 117.66,-0.224C117.408,0.019 117.067,0.14 116.638,0.14C116.209,0.14 115.863,0.019 115.602,-0.224C115.341,-0.467 115.21,-0.793 115.21,-1.204L115.21,-12.6C115.21,-12.992 115.345,-13.314 115.616,-13.566C115.887,-13.818 116.227,-13.944 116.638,-13.944C117.049,-13.944 117.375,-13.823 117.618,-13.58C117.861,-13.337 117.982,-13.02 117.982,-12.628L117.982,-11.48C118.43,-12.301 119.055,-12.927 119.858,-13.356C120.661,-13.785 121.566,-14 122.574,-14C125.841,-14 127.474,-12.161 127.474,-8.484Z" style="fill-rule:nonzero;"/>
                    <path d="M130.78,1.638C130.575,1.778 130.351,1.848 130.108,1.848C129.791,1.848 129.511,1.745 129.268,1.54C129.025,1.335 128.904,1.064 128.904,0.728C128.904,0.597 128.932,0.448 128.988,0.28L135.54,-20.244C135.633,-20.543 135.783,-20.762 135.988,-20.902C136.193,-21.042 136.417,-21.112 136.66,-21.112C136.977,-21.112 137.257,-21.009 137.5,-20.804C137.743,-20.599 137.864,-20.328 137.864,-19.992C137.864,-19.861 137.836,-19.712 137.78,-19.544L131.228,0.98C131.135,1.279 130.985,1.498 130.78,1.638Z" style="fill-rule:nonzero;"/>
                </g>
                <g transform="matrix(1,0,0,1,319,319.25)">
                    <path d="M2.688,-0.252C2.427,-0.513 2.296,-0.868 2.296,-1.316L2.296,-18.34C2.296,-18.769 2.422,-19.11 2.674,-19.362C2.926,-19.614 3.276,-19.74 3.724,-19.74L10.472,-19.74C12.563,-19.74 14.187,-19.227 15.344,-18.2C16.501,-17.173 17.08,-15.717 17.08,-13.832C17.08,-11.965 16.501,-10.509 15.344,-9.464C14.187,-8.419 12.563,-7.896 10.472,-7.896L5.18,-7.896L5.18,-1.316C5.18,-0.868 5.054,-0.513 4.802,-0.252C4.55,0.009 4.191,0.14 3.724,0.14C3.295,0.14 2.949,0.009 2.688,-0.252ZM10.164,-10.22C12.927,-10.22 14.308,-11.424 14.308,-13.832C14.308,-16.221 12.927,-17.416 10.164,-17.416L5.18,-17.416L5.18,-10.22L10.164,-10.22Z" style="fill-rule:nonzero;"/>
                    <path d="M28.31,-12.796C28.31,-12.385 28.207,-12.077 28.002,-11.872C27.797,-11.667 27.442,-11.545 26.938,-11.508L26.098,-11.424C24.922,-11.312 24.049,-10.901 23.48,-10.192C22.911,-9.483 22.626,-8.624 22.626,-7.616L22.626,-1.204C22.626,-0.756 22.495,-0.42 22.234,-0.196C21.973,0.028 21.637,0.14 21.226,0.14C20.815,0.14 20.475,0.028 20.204,-0.196C19.933,-0.42 19.798,-0.756 19.798,-1.204L19.798,-12.6C19.798,-13.029 19.933,-13.361 20.204,-13.594C20.475,-13.827 20.815,-13.944 21.226,-13.944C21.599,-13.944 21.912,-13.827 22.164,-13.594C22.416,-13.361 22.542,-13.039 22.542,-12.628L22.542,-11.284C22.915,-12.105 23.457,-12.731 24.166,-13.16C24.875,-13.589 25.678,-13.841 26.574,-13.916L26.966,-13.944C27.862,-14 28.31,-13.617 28.31,-12.796Z" style="fill-rule:nonzero;"/>
                    <path d="M32.022,-0.672C31.005,-1.251 30.221,-2.077 29.67,-3.15C29.119,-4.223 28.844,-5.469 28.844,-6.888C28.844,-8.325 29.119,-9.581 29.67,-10.654C30.221,-11.727 31.005,-12.553 32.022,-13.132C33.039,-13.711 34.22,-14 35.564,-14C36.908,-14 38.089,-13.711 39.106,-13.132C40.123,-12.553 40.907,-11.727 41.458,-10.654C42.009,-9.581 42.284,-8.325 42.284,-6.888C42.284,-5.469 42.009,-4.223 41.458,-3.15C40.907,-2.077 40.123,-1.251 39.106,-0.672C38.089,-0.093 36.908,0.196 35.564,0.196C34.22,0.196 33.039,-0.093 32.022,-0.672ZM38.434,-3.276C39.097,-4.097 39.428,-5.301 39.428,-6.888C39.428,-8.456 39.092,-9.655 38.42,-10.486C37.748,-11.317 36.796,-11.732 35.564,-11.732C34.332,-11.732 33.38,-11.317 32.708,-10.486C32.036,-9.655 31.7,-8.456 31.7,-6.888C31.7,-5.301 32.031,-4.097 32.694,-3.276C33.357,-2.455 34.313,-2.044 35.564,-2.044C36.815,-2.044 37.771,-2.455 38.434,-3.276Z" style="fill-rule:nonzero;"/>
                    <path d="M52.8,-1.694C52.977,-1.517 53.066,-1.269 53.066,-0.952C53.066,-0.579 52.921,-0.294 52.632,-0.098C52.343,0.098 51.918,0.177 51.358,0.14L50.602,0.084C49.09,-0.028 47.961,-0.49 47.214,-1.302C46.467,-2.114 46.094,-3.313 46.094,-4.9L46.094,-11.48L44.414,-11.48C43.593,-11.48 43.182,-11.844 43.182,-12.572C43.182,-12.908 43.289,-13.174 43.504,-13.37C43.719,-13.566 44.022,-13.664 44.414,-13.664L46.094,-13.664L46.094,-16.548C46.094,-16.977 46.22,-17.313 46.472,-17.556C46.724,-17.799 47.065,-17.92 47.494,-17.92C47.923,-17.92 48.269,-17.799 48.53,-17.556C48.791,-17.313 48.922,-16.977 48.922,-16.548L48.922,-13.664L51.694,-13.664C52.086,-13.664 52.389,-13.566 52.604,-13.37C52.819,-13.174 52.926,-12.908 52.926,-12.572C52.926,-12.217 52.819,-11.947 52.604,-11.76C52.389,-11.573 52.086,-11.48 51.694,-11.48L48.922,-11.48L48.922,-4.704C48.922,-3.827 49.104,-3.183 49.468,-2.772C49.832,-2.361 50.387,-2.128 51.134,-2.072L51.918,-2.016C52.329,-1.979 52.623,-1.871 52.8,-1.694Z" style="fill-rule:nonzero;"/>
                    <path d="M66.312,-3.136C66.48,-2.931 66.564,-2.669 66.564,-2.352C66.564,-1.811 66.228,-1.353 65.556,-0.98C64.903,-0.607 64.189,-0.317 63.414,-0.112C62.639,0.093 61.897,0.196 61.188,0.196C59.023,0.196 57.315,-0.434 56.064,-1.694C54.813,-2.954 54.188,-4.676 54.188,-6.86C54.188,-8.26 54.463,-9.501 55.014,-10.584C55.565,-11.667 56.339,-12.507 57.338,-13.104C58.337,-13.701 59.471,-14 60.74,-14C62.569,-14 64.016,-13.412 65.08,-12.236C66.144,-11.06 66.676,-9.473 66.676,-7.476C66.676,-6.729 66.34,-6.356 65.668,-6.356L57.016,-6.356C57.203,-3.463 58.593,-2.016 61.188,-2.016C61.879,-2.016 62.476,-2.109 62.98,-2.296C63.484,-2.483 64.016,-2.725 64.576,-3.024C64.632,-3.061 64.786,-3.141 65.038,-3.262C65.29,-3.383 65.5,-3.444 65.668,-3.444C65.929,-3.444 66.144,-3.341 66.312,-3.136ZM58.192,-10.892C57.539,-10.201 57.147,-9.231 57.016,-7.98L64.24,-7.98C64.184,-9.249 63.862,-10.225 63.274,-10.906C62.686,-11.587 61.86,-11.928 60.796,-11.928C59.713,-11.928 58.845,-11.583 58.192,-10.892Z" style="fill-rule:nonzero;"/>
                    <path d="M72.012,-0.672C71.013,-1.251 70.239,-2.072 69.688,-3.136C69.137,-4.2 68.862,-5.432 68.862,-6.832C68.862,-8.251 69.147,-9.501 69.716,-10.584C70.285,-11.667 71.083,-12.507 72.11,-13.104C73.137,-13.701 74.313,-14 75.638,-14C76.347,-14 77.061,-13.897 77.78,-13.692C78.499,-13.487 79.138,-13.207 79.698,-12.852C80.295,-12.441 80.594,-11.965 80.594,-11.424C80.594,-11.107 80.51,-10.841 80.342,-10.626C80.174,-10.411 79.959,-10.304 79.698,-10.304C79.53,-10.304 79.362,-10.346 79.194,-10.43C79.026,-10.514 78.811,-10.64 78.55,-10.808C78.083,-11.107 77.649,-11.335 77.248,-11.494C76.847,-11.653 76.366,-11.732 75.806,-11.732C74.537,-11.732 73.552,-11.303 72.852,-10.444C72.152,-9.585 71.802,-8.391 71.802,-6.86C71.802,-5.329 72.147,-4.149 72.838,-3.318C73.529,-2.487 74.509,-2.072 75.778,-2.072C76.338,-2.072 76.833,-2.156 77.262,-2.324C77.691,-2.492 78.13,-2.716 78.578,-2.996C78.783,-3.127 78.989,-3.239 79.194,-3.332C79.399,-3.425 79.586,-3.472 79.754,-3.472C80.015,-3.472 80.23,-3.365 80.398,-3.15C80.566,-2.935 80.65,-2.669 80.65,-2.352C80.65,-2.091 80.58,-1.853 80.44,-1.638C80.3,-1.423 80.062,-1.204 79.726,-0.98C79.166,-0.607 78.513,-0.317 77.766,-0.112C77.019,0.093 76.263,0.196 75.498,0.196C74.173,0.196 73.011,-0.093 72.012,-0.672Z" style="fill-rule:nonzero;"/>
                    <path d="M90.662,-1.694C90.839,-1.517 90.928,-1.269 90.928,-0.952C90.928,-0.579 90.783,-0.294 90.494,-0.098C90.205,0.098 89.78,0.177 89.22,0.14L88.464,0.084C86.952,-0.028 85.823,-0.49 85.076,-1.302C84.329,-2.114 83.956,-3.313 83.956,-4.9L83.956,-11.48L82.276,-11.48C81.455,-11.48 81.044,-11.844 81.044,-12.572C81.044,-12.908 81.151,-13.174 81.366,-13.37C81.581,-13.566 81.884,-13.664 82.276,-13.664L83.956,-13.664L83.956,-16.548C83.956,-16.977 84.082,-17.313 84.334,-17.556C84.586,-17.799 84.927,-17.92 85.356,-17.92C85.785,-17.92 86.131,-17.799 86.392,-17.556C86.653,-17.313 86.784,-16.977 86.784,-16.548L86.784,-13.664L89.556,-13.664C89.948,-13.664 90.251,-13.566 90.466,-13.37C90.681,-13.174 90.788,-12.908 90.788,-12.572C90.788,-12.217 90.681,-11.947 90.466,-11.76C90.251,-11.573 89.948,-11.48 89.556,-11.48L86.784,-11.48L86.784,-4.704C86.784,-3.827 86.966,-3.183 87.33,-2.772C87.694,-2.361 88.249,-2.128 88.996,-2.072L89.78,-2.016C90.191,-1.979 90.485,-1.871 90.662,-1.694Z" style="fill-rule:nonzero;"/>
                    <path d="M93.24,-0.196C92.969,-0.42 92.834,-0.756 92.834,-1.204L92.834,-12.572C92.834,-13.02 92.969,-13.361 93.24,-13.594C93.511,-13.827 93.851,-13.944 94.262,-13.944C94.673,-13.944 95.009,-13.827 95.27,-13.594C95.531,-13.361 95.662,-13.02 95.662,-12.572L95.662,-1.204C95.662,-0.756 95.531,-0.42 95.27,-0.196C95.009,0.028 94.673,0.14 94.262,0.14C93.851,0.14 93.511,0.028 93.24,-0.196ZM92.974,-17.136C92.657,-17.435 92.498,-17.827 92.498,-18.312C92.498,-18.797 92.657,-19.185 92.974,-19.474C93.291,-19.763 93.721,-19.908 94.262,-19.908C94.785,-19.908 95.209,-19.763 95.536,-19.474C95.863,-19.185 96.026,-18.797 96.026,-18.312C96.026,-17.827 95.867,-17.435 95.55,-17.136C95.233,-16.837 94.803,-16.688 94.262,-16.688C93.721,-16.688 93.291,-16.837 92.974,-17.136Z" style="fill-rule:nonzero;"/>
                    <path d="M101.866,-0.672C100.849,-1.251 100.065,-2.077 99.514,-3.15C98.963,-4.223 98.688,-5.469 98.688,-6.888C98.688,-8.325 98.963,-9.581 99.514,-10.654C100.065,-11.727 100.849,-12.553 101.866,-13.132C102.883,-13.711 104.064,-14 105.408,-14C106.752,-14 107.933,-13.711 108.95,-13.132C109.967,-12.553 110.751,-11.727 111.302,-10.654C111.853,-9.581 112.128,-8.325 112.128,-6.888C112.128,-5.469 111.853,-4.223 111.302,-3.15C110.751,-2.077 109.967,-1.251 108.95,-0.672C107.933,-0.093 106.752,0.196 105.408,0.196C104.064,0.196 102.883,-0.093 101.866,-0.672ZM108.278,-3.276C108.941,-4.097 109.272,-5.301 109.272,-6.888C109.272,-8.456 108.936,-9.655 108.264,-10.486C107.592,-11.317 106.64,-11.732 105.408,-11.732C104.176,-11.732 103.224,-11.317 102.552,-10.486C101.88,-9.655 101.544,-8.456 101.544,-6.888C101.544,-5.301 101.875,-4.097 102.538,-3.276C103.201,-2.455 104.157,-2.044 105.408,-2.044C106.659,-2.044 107.615,-2.455 108.278,-3.276Z" style="fill-rule:nonzero;"/>
                    <path d="M127.39,-8.484L127.39,-1.204C127.39,-0.775 127.264,-0.443 127.012,-0.21C126.76,0.023 126.41,0.14 125.962,0.14C125.533,0.14 125.192,0.019 124.94,-0.224C124.688,-0.467 124.562,-0.793 124.562,-1.204L124.562,-8.344C124.562,-9.501 124.333,-10.351 123.876,-10.892C123.419,-11.433 122.705,-11.704 121.734,-11.704C120.595,-11.704 119.681,-11.349 118.99,-10.64C118.299,-9.931 117.954,-8.979 117.954,-7.784L117.954,-1.204C117.954,-0.793 117.828,-0.467 117.576,-0.224C117.324,0.019 116.983,0.14 116.554,0.14C116.125,0.14 115.779,0.019 115.518,-0.224C115.257,-0.467 115.126,-0.793 115.126,-1.204L115.126,-12.6C115.126,-12.992 115.261,-13.314 115.532,-13.566C115.803,-13.818 116.143,-13.944 116.554,-13.944C116.965,-13.944 117.291,-13.823 117.534,-13.58C117.777,-13.337 117.898,-13.02 117.898,-12.628L117.898,-11.48C118.346,-12.301 118.971,-12.927 119.774,-13.356C120.577,-13.785 121.482,-14 122.49,-14C125.757,-14 127.39,-12.161 127.39,-8.484Z" style="fill-rule:nonzero;"/>
                </g>
            </g>
        </g>
    </g>
</svg>
