<?xml version="1.0" encoding="UTF-8" standalone="no"?>
<!DOCTYPE svg PUBLIC "-//W3C//DTD SVG 1.1//EN" "http://www.w3.org/Graphics/SVG/1.1/DTD/svg11.dtd">
<svg width="100%" height="100%" viewBox="0 0 82 21" version="1.1" xmlns="http://www.w3.org/2000/svg" xmlns:xlink="http://www.w3.org/1999/xlink" xml:space="preserve" xmlns:serif="http://www.serif.com/" style="fill-rule:evenodd;clip-rule:evenodd;stroke-linejoin:round;stroke-miterlimit:1.41421;">
    <g transform="matrix(1,0,0,1,-1316,-386)">
        <g transform="matrix(1,0,0,1,0,-8)">
            <g transform="matrix(1,0,0,1,1315,414.25)">
                <g id="Server">
                    <path d="M4.774,-0.364C3.495,-0.756 2.473,-1.297 1.708,-1.988C1.353,-2.287 1.176,-2.669 1.176,-3.136C1.176,-3.472 1.269,-3.757 1.456,-3.99C1.643,-4.223 1.867,-4.34 2.128,-4.34C2.389,-4.34 2.707,-4.219 3.08,-3.976C4.741,-2.744 6.636,-2.128 8.764,-2.128C10.257,-2.128 11.405,-2.408 12.208,-2.968C13.011,-3.528 13.412,-4.331 13.412,-5.376C13.412,-6.197 13.039,-6.813 12.292,-7.224C11.545,-7.635 10.351,-8.027 8.708,-8.4C7.14,-8.736 5.852,-9.119 4.844,-9.548C3.836,-9.977 3.047,-10.561 2.478,-11.298C1.909,-12.035 1.624,-12.973 1.624,-14.112C1.624,-15.251 1.937,-16.263 2.562,-17.15C3.187,-18.037 4.06,-18.727 5.18,-19.222C6.3,-19.717 7.579,-19.964 9.016,-19.964C10.341,-19.964 11.564,-19.777 12.684,-19.404C13.804,-19.031 14.756,-18.48 15.54,-17.752C15.913,-17.435 16.1,-17.052 16.1,-16.604C16.1,-16.287 16.002,-16.007 15.806,-15.764C15.61,-15.521 15.381,-15.4 15.12,-15.4C14.877,-15.4 14.569,-15.521 14.196,-15.764C13.337,-16.417 12.53,-16.889 11.774,-17.178C11.018,-17.467 10.108,-17.612 9.044,-17.612C7.607,-17.612 6.487,-17.318 5.684,-16.73C4.881,-16.142 4.48,-15.325 4.48,-14.28C4.48,-13.384 4.835,-12.707 5.544,-12.25C6.253,-11.793 7.392,-11.377 8.96,-11.004C10.603,-10.631 11.933,-10.243 12.95,-9.842C13.967,-9.441 14.779,-8.89 15.386,-8.19C15.993,-7.49 16.296,-6.589 16.296,-5.488C16.296,-4.368 15.983,-3.374 15.358,-2.506C14.733,-1.638 13.855,-0.966 12.726,-0.49C11.597,-0.014 10.295,0.224 8.82,0.224C7.401,0.224 6.053,0.028 4.774,-0.364Z" style="fill-rule:nonzero;"/>
                    <path d="M30.718,-3.136C30.886,-2.931 30.97,-2.669 30.97,-2.352C30.97,-1.811 30.634,-1.353 29.962,-0.98C29.309,-0.607 28.595,-0.317 27.82,-0.112C27.045,0.093 26.303,0.196 25.594,0.196C23.429,0.196 21.721,-0.434 20.47,-1.694C19.219,-2.954 18.594,-4.676 18.594,-6.86C18.594,-8.26 18.869,-9.501 19.42,-10.584C19.971,-11.667 20.745,-12.507 21.744,-13.104C22.743,-13.701 23.877,-14 25.146,-14C26.975,-14 28.422,-13.412 29.486,-12.236C30.55,-11.06 31.082,-9.473 31.082,-7.476C31.082,-6.729 30.746,-6.356 30.074,-6.356L21.422,-6.356C21.609,-3.463 22.999,-2.016 25.594,-2.016C26.285,-2.016 26.882,-2.109 27.386,-2.296C27.89,-2.483 28.422,-2.725 28.982,-3.024C29.038,-3.061 29.192,-3.141 29.444,-3.262C29.696,-3.383 29.906,-3.444 30.074,-3.444C30.335,-3.444 30.55,-3.341 30.718,-3.136ZM22.598,-10.892C21.945,-10.201 21.553,-9.231 21.422,-7.98L28.646,-7.98C28.59,-9.249 28.268,-10.225 27.68,-10.906C27.092,-11.587 26.266,-11.928 25.202,-11.928C24.119,-11.928 23.251,-11.583 22.598,-10.892Z" style="fill-rule:nonzero;"/>
                    <path d="M42.564,-12.796C42.564,-12.385 42.461,-12.077 42.256,-11.872C42.051,-11.667 41.696,-11.545 41.192,-11.508L40.352,-11.424C39.176,-11.312 38.303,-10.901 37.734,-10.192C37.165,-9.483 36.88,-8.624 36.88,-7.616L36.88,-1.204C36.88,-0.756 36.749,-0.42 36.488,-0.196C36.227,0.028 35.891,0.14 35.48,0.14C35.069,0.14 34.729,0.028 34.458,-0.196C34.187,-0.42 34.052,-0.756 34.052,-1.204L34.052,-12.6C34.052,-13.029 34.187,-13.361 34.458,-13.594C34.729,-13.827 35.069,-13.944 35.48,-13.944C35.853,-13.944 36.166,-13.827 36.418,-13.594C36.67,-13.361 36.796,-13.039 36.796,-12.628L36.796,-11.284C37.169,-12.105 37.711,-12.731 38.42,-13.16C39.129,-13.589 39.932,-13.841 40.828,-13.916L41.22,-13.944C42.116,-14 42.564,-13.617 42.564,-12.796Z" style="fill-rule:nonzero;"/>
                    <path d="M55.208,-13.72C55.423,-13.851 55.651,-13.916 55.894,-13.916C56.249,-13.916 56.561,-13.795 56.832,-13.552C57.103,-13.309 57.238,-13.02 57.238,-12.684C57.238,-12.497 57.201,-12.32 57.126,-12.152L51.778,-0.812C51.647,-0.513 51.447,-0.285 51.176,-0.126C50.905,0.033 50.621,0.112 50.322,0.112C50.023,0.112 49.739,0.033 49.468,-0.126C49.197,-0.285 48.997,-0.513 48.866,-0.812L43.518,-12.152C43.443,-12.301 43.406,-12.479 43.406,-12.684C43.406,-13.02 43.555,-13.309 43.854,-13.552C44.153,-13.795 44.489,-13.916 44.862,-13.916C45.403,-13.916 45.805,-13.655 46.066,-13.132L50.406,-3.5L54.718,-13.104C54.83,-13.384 54.993,-13.589 55.208,-13.72Z" style="fill-rule:nonzero;"/>
                    <path d="M70.568,-3.136C70.736,-2.931 70.82,-2.669 70.82,-2.352C70.82,-1.811 70.484,-1.353 69.812,-0.98C69.159,-0.607 68.445,-0.317 67.67,-0.112C66.895,0.093 66.153,0.196 65.444,0.196C63.279,0.196 61.571,-0.434 60.32,-1.694C59.069,-2.954 58.444,-4.676 58.444,-6.86C58.444,-8.26 58.719,-9.501 59.27,-10.584C59.821,-11.667 60.595,-12.507 61.594,-13.104C62.593,-13.701 63.727,-14 64.996,-14C66.825,-14 68.272,-13.412 69.336,-12.236C70.4,-11.06 70.932,-9.473 70.932,-7.476C70.932,-6.729 70.596,-6.356 69.924,-6.356L61.272,-6.356C61.459,-3.463 62.849,-2.016 65.444,-2.016C66.135,-2.016 66.732,-2.109 67.236,-2.296C67.74,-2.483 68.272,-2.725 68.832,-3.024C68.888,-3.061 69.042,-3.141 69.294,-3.262C69.546,-3.383 69.756,-3.444 69.924,-3.444C70.185,-3.444 70.4,-3.341 70.568,-3.136ZM62.448,-10.892C61.795,-10.201 61.403,-9.231 61.272,-7.98L68.496,-7.98C68.44,-9.249 68.118,-10.225 67.53,-10.906C66.942,-11.587 66.116,-11.928 65.052,-11.928C63.969,-11.928 63.101,-11.583 62.448,-10.892Z" style="fill-rule:nonzero;"/>
                    <path d="M82.414,-12.796C82.414,-12.385 82.311,-12.077 82.106,-11.872C81.901,-11.667 81.546,-11.545 81.042,-11.508L80.202,-11.424C79.026,-11.312 78.153,-10.901 77.584,-10.192C77.015,-9.483 76.73,-8.624 76.73,-7.616L76.73,-1.204C76.73,-0.756 76.599,-0.42 76.338,-0.196C76.077,0.028 75.741,0.14 75.33,0.14C74.919,0.14 74.579,0.028 74.308,-0.196C74.037,-0.42 73.902,-0.756 73.902,-1.204L73.902,-12.6C73.902,-13.029 74.037,-13.361 74.308,-13.594C74.579,-13.827 74.919,-13.944 75.33,-13.944C75.703,-13.944 76.016,-13.827 76.268,-13.594C76.52,-13.361 76.646,-13.039 76.646,-12.628L76.646,-11.284C77.019,-12.105 77.561,-12.731 78.27,-13.16C78.979,-13.589 79.782,-13.841 80.678,-13.916L81.07,-13.944C81.966,-14 82.414,-13.617 82.414,-12.796Z" style="fill-rule:nonzero;"/>
                </g>
            </g>
        </g>
    </g>
</svg>
