<?xml version="1.0" encoding="UTF-8" standalone="no"?>
<svg width="60px" height="75px" viewBox="0 0 60 75" version="1.1" xmlns="http://www.w3.org/2000/svg" xmlns:xlink="http://www.w3.org/1999/xlink">
    <!-- Generator: Sketch 50.2 (55047) - http://www.bohemiancoding.com/sketch -->
    <title>Shape</title>
    <desc>Created with Sketch.</desc>
    <defs></defs>
    <g id="Page-1" stroke="none" stroke-width="1" fill="none" fill-rule="evenodd">
        <path d="M54,33.07 L49.5,33.07 L49.5,19.63 C49.5,8.95 40.74,0.25 30,0.25 C19.26,0.25 10.5,8.95 10.5,19.63 L10.5,26.17 L18,26.17 L18,19.63 C18,13.03 23.34,7.69 30,7.69 C36.6,7.69 42,13.03 42,19.63 L42,33.07 L23.46,33.07 L18,33.07 L10.5,33.07 L6,33.07 C2.7,33.07 0,35.77 0,39.07 L0,68.95 C0,72.25 2.7,74.89 6,74.89 L54,74.89 C57.3,74.89 60,72.19 60,68.95 L60,39.07 C60,35.77 57.3,33.07 54,33.07 Z M34.5,62.23 C34.5,63.49 33.48,64.45 32.22,64.45 L27.72,64.45 C26.46,64.45 25.5,63.43 25.5,62.23 L26.76,54.55 C25.14,53.47 24,51.61 24,49.51 C24,46.21 26.7,43.51 30,43.51 C33.3,43.51 36,46.21 36,49.51 C36,51.61 34.92,53.47 33.24,54.55 C33.24,54.55 33.84,58.03 34.5,62.23 Z" id="Shape" fill="#636569" fill-rule="nonzero"></path>
    </g>
</svg>