<?xml version="1.0" encoding="UTF-8" standalone="no"?>
<svg width="720px" height="511px" viewBox="0 0 720 511" version="1.1" xmlns="http://www.w3.org/2000/svg" xmlns:xlink="http://www.w3.org/1999/xlink">
    <!-- Generator: Sketch 50.2 (55047) - http://www.bohemiancoding.com/sketch -->
    <title>Rectangle 32</title>
    <desc>Created with Sketch.</desc>
    <defs></defs>
    <g id="Page-1" stroke="none" stroke-width="1" fill="none" fill-rule="evenodd">
        <g id="Group-124" transform="translate(-268.000000, 0.000000)" fill="#E8E8E8">
            <path d="M280,-5.68434189e-14 L976,-6.39488462e-14 C982.627417,-6.5166283e-14 988,5.372583 988,12 L988,442.979237 C988,449.606654 982.627417,454.979237 976,454.979237 L690.474247,454.979237 C686.036328,454.979237 681.960743,457.428563 679.877927,461.347363 L656.875127,504.626925 C653.764729,510.479111 646.499119,512.701769 640.646933,509.591371 C638.578775,508.492159 636.877493,506.811754 635.75283,504.757326 L611.917367,461.216962 C609.811844,457.370791 605.776166,454.979237 601.39139,454.979237 L280,454.979237 C273.372583,454.979237 268,449.606654 268,442.979237 L268,12 C268,5.372583 273.372583,-5.74023389e-14 280,-5.86197757e-14 Z" id="Rectangle-32"></path>
        </g>
    </g>
</svg>