<?xml version="1.0" encoding="UTF-8" standalone="no"?>
<!DOCTYPE svg PUBLIC "-//W3C//DTD SVG 1.1//EN" "http://www.w3.org/Graphics/SVG/1.1/DTD/svg11.dtd">
<svg width="100%" height="100%" viewBox="0 0 353 166" version="1.1" xmlns="http://www.w3.org/2000/svg" xmlns:xlink="http://www.w3.org/1999/xlink" xml:space="preserve" xmlns:serif="http://www.serif.com/" style="fill-rule:evenodd;clip-rule:evenodd;stroke-linejoin:round;stroke-miterlimit:1.5;">
    <g transform="matrix(1,0,0,1,-166,-276)">
        <g transform="matrix(1,0,0,1,-0.684275,0)">
            <g>
                <g>
                    <g transform="matrix(1,0,0,-1,0,597.858)">
                        <path d="M230.38,298.929L461.287,298.929" style="fill:none;stroke:url(#_Linear1);stroke-width:2px;stroke-dasharray:1,0.6,0,0;"/>
                    </g>
                    <g transform="matrix(1,0,0,-1,0,645.581)">
                        <path d="M320.044,298.929L461.158,298.929" style="fill:none;stroke:url(#_Linear2);stroke-width:2px;stroke-dasharray:1,0.6,0,0;"/>
                    </g>
                    <g transform="matrix(1.07111,0,0,-1.07111,-21.7323,713.979)">
                        <path d="M305.602,298.929L450.951,298.929" style="fill:none;stroke:url(#_Linear3);stroke-width:1.87px;stroke-dasharray:0.93,0.56,0,0;"/>
                    </g>
                    <g transform="matrix(1,0,0,-1,0,739.63)">
                        <path d="M267.944,298.929L461.287,298.929" style="fill:none;stroke:url(#_Linear4);stroke-width:2px;stroke-dasharray:1,0.6,0,0;"/>
                    </g>
                    <g transform="matrix(1.04253,0,0,1.25304,-7.104,-74.9752)">
                        <rect x="167.024" y="280.752" width="61.007" height="18.417" style="fill:rgb(243,110,35);"/>
                    </g>
                    <g transform="matrix(1.07915,0,0,1.25304,73.9653,-27.2351)">
                        <rect x="167.024" y="280.752" width="61.007" height="18.417" style="fill:rgb(243,110,35);"/>
                    </g>
                    <g transform="matrix(1.23695,0,0,1.25304,23.3928,19.8717)">
                        <rect x="167.024" y="280.752" width="61.007" height="18.417" style="fill:rgb(243,110,35);"/>
                    </g>
                    <g transform="matrix(1.46467,0,0,1.25304,-66.047,66.7997)">
                        <rect x="167.024" y="280.752" width="61.007" height="18.417" style="fill:rgb(243,110,35);"/>
                    </g>
                </g>
                <g>
                    <g>
                        <g transform="matrix(1,0,0,1,-5.70065,6.42816)">
                            <path d="M359.484,281.204C359.527,281.289 359.548,281.38 359.548,281.476C359.548,281.636 359.487,281.769 359.364,281.876C359.242,281.983 359.095,282.036 358.924,282.036C358.658,282.036 358.471,281.908 358.364,281.652L357.228,279.06L351.196,279.06L350.044,281.652C349.938,281.908 349.751,282.036 349.484,282.036C349.314,282.036 349.164,281.98 349.036,281.868C348.908,281.756 348.844,281.62 348.844,281.46C348.844,281.375 348.866,281.289 348.908,281.204L353.484,271.028C353.548,270.879 353.644,270.767 353.772,270.692C353.9,270.617 354.039,270.58 354.188,270.58C354.348,270.58 354.492,270.62 354.62,270.7C354.748,270.78 354.844,270.889 354.908,271.028L359.484,281.204ZM351.676,277.972L356.748,277.972L354.204,272.228L351.676,277.972Z" style="fill:rgb(99,101,105);fill-rule:nonzero;"/>
                            <path d="M365.068,274.004C365.516,273.972 365.74,274.153 365.74,274.548C365.74,274.719 365.692,274.855 365.596,274.956C365.5,275.057 365.335,275.119 365.1,275.14L364.62,275.188C363.906,275.252 363.375,275.505 363.028,275.948C362.682,276.391 362.508,276.911 362.508,277.508L362.508,281.396C362.508,281.609 362.45,281.769 362.332,281.876C362.215,281.983 362.06,282.036 361.868,282.036C361.676,282.036 361.519,281.98 361.396,281.868C361.274,281.756 361.212,281.599 361.212,281.396L361.212,274.644C361.212,274.441 361.276,274.284 361.404,274.172C361.532,274.06 361.687,274.004 361.868,274.004C362.039,274.004 362.183,274.06 362.3,274.172C362.418,274.284 362.476,274.436 362.476,274.628L362.476,275.524C362.7,275.055 363.018,274.697 363.428,274.452C363.839,274.207 364.311,274.063 364.844,274.02L365.068,274.004Z" style="fill:rgb(99,101,105);fill-rule:nonzero;"/>
                            <path d="M371.084,281.012C371.458,281.044 371.644,281.215 371.644,281.524C371.644,281.705 371.578,281.841 371.444,281.932C371.311,282.023 371.111,282.057 370.844,282.036L370.412,282.004C369.559,281.94 368.93,281.684 368.524,281.236C368.119,280.788 367.916,280.111 367.916,279.204L367.916,275.188L366.844,275.188C366.663,275.188 366.522,275.143 366.42,275.052C366.319,274.961 366.268,274.841 366.268,274.692C366.268,274.532 366.319,274.404 366.42,274.308C366.522,274.212 366.663,274.164 366.844,274.164L367.916,274.164L367.916,272.356C367.916,272.153 367.975,271.996 368.092,271.884C368.21,271.772 368.37,271.716 368.572,271.716C368.764,271.716 368.919,271.772 369.036,271.884C369.154,271.996 369.212,272.153 369.212,272.356L369.212,274.164L370.988,274.164C371.159,274.164 371.295,274.212 371.396,274.308C371.498,274.404 371.548,274.532 371.548,274.692C371.548,274.841 371.498,274.961 371.396,275.052C371.295,275.143 371.159,275.188 370.988,275.188L369.212,275.188L369.212,279.268C369.212,279.855 369.332,280.279 369.572,280.54C369.812,280.801 370.172,280.948 370.652,280.98L371.084,281.012Z" style="fill:rgb(99,101,105);fill-rule:nonzero;"/>
                            <path d="M373.58,282.036C373.388,282.036 373.231,281.98 373.108,281.868C372.986,281.756 372.924,281.599 372.924,281.396L372.924,274.644C372.924,274.441 372.986,274.284 373.108,274.172C373.231,274.06 373.388,274.004 373.58,274.004C373.772,274.004 373.927,274.06 374.044,274.172C374.162,274.284 374.22,274.441 374.22,274.644L374.22,281.396C374.22,281.609 374.162,281.769 374.044,281.876C373.927,281.983 373.772,282.036 373.58,282.036ZM373.58,272.324C373.324,272.324 373.116,272.249 372.956,272.1C372.796,271.951 372.716,271.753 372.716,271.508C372.716,271.273 372.796,271.081 372.956,270.932C373.116,270.783 373.324,270.708 373.58,270.708C373.836,270.708 374.044,270.783 374.204,270.932C374.364,271.081 374.444,271.273 374.444,271.508C374.444,271.753 374.364,271.951 374.204,272.1C374.044,272.249 373.836,272.324 373.58,272.324Z" style="fill:rgb(99,101,105);fill-rule:nonzero;"/>
                            <path d="M380.076,271.7C379.511,271.743 379.084,271.921 378.796,272.236C378.508,272.551 378.364,273.023 378.364,273.652L378.364,274.164L380.14,274.164C380.322,274.164 380.46,274.212 380.556,274.308C380.652,274.404 380.7,274.532 380.7,274.692C380.7,274.852 380.652,274.975 380.556,275.06C380.46,275.145 380.322,275.188 380.14,275.188L378.364,275.188L378.364,281.396C378.364,281.599 378.303,281.756 378.18,281.868C378.058,281.98 377.906,282.036 377.724,282.036C377.532,282.036 377.375,281.98 377.252,281.868C377.13,281.756 377.068,281.599 377.068,281.396L377.068,275.188L375.996,275.188C375.815,275.188 375.674,275.143 375.572,275.052C375.471,274.961 375.42,274.841 375.42,274.692C375.42,274.532 375.471,274.404 375.572,274.308C375.674,274.212 375.815,274.164 375.996,274.164L377.068,274.164L377.068,273.876C377.068,272.916 377.308,272.161 377.788,271.612C378.268,271.063 378.956,270.756 379.852,270.692L380.268,270.66C380.546,270.639 380.746,270.665 380.868,270.74C380.991,270.815 381.052,270.948 381.052,271.14C381.052,271.449 380.866,271.625 380.492,271.668L380.076,271.7Z" style="fill:rgb(99,101,105);fill-rule:nonzero;"/>
                            <path d="M384.988,273.972C386.94,273.972 387.916,274.996 387.916,277.044L387.916,281.396C387.916,281.588 387.86,281.743 387.748,281.86C387.636,281.977 387.484,282.036 387.292,282.036C387.1,282.036 386.946,281.977 386.828,281.86C386.711,281.743 386.652,281.588 386.652,281.396L386.652,280.628C386.45,281.087 386.14,281.441 385.724,281.692C385.308,281.943 384.828,282.068 384.284,282.068C383.783,282.068 383.322,281.967 382.9,281.764C382.479,281.561 382.146,281.279 381.9,280.916C381.655,280.553 381.532,280.153 381.532,279.716C381.532,279.129 381.682,278.673 381.98,278.348C382.279,278.023 382.77,277.788 383.452,277.644C384.135,277.5 385.084,277.428 386.3,277.428L386.652,277.428L386.652,276.9C386.652,276.26 386.522,275.791 386.26,275.492C385.999,275.193 385.575,275.044 384.988,275.044C384.263,275.044 383.527,275.241 382.78,275.636C382.492,275.817 382.29,275.908 382.172,275.908C382.044,275.908 381.938,275.86 381.852,275.764C381.767,275.668 381.724,275.545 381.724,275.396C381.724,275.247 381.77,275.116 381.86,275.004C381.951,274.892 382.098,274.777 382.3,274.66C382.674,274.447 383.098,274.279 383.572,274.156C384.047,274.033 384.519,273.972 384.988,273.972ZM384.46,281.044C385.1,281.044 385.626,280.828 386.036,280.396C386.447,279.964 386.652,279.407 386.652,278.724L386.652,278.26L386.364,278.26C385.426,278.26 384.711,278.3 384.22,278.38C383.73,278.46 383.38,278.593 383.172,278.78C382.964,278.967 382.86,279.241 382.86,279.604C382.86,280.02 383.012,280.364 383.316,280.636C383.62,280.908 384.002,281.044 384.46,281.044Z" style="fill:rgb(99,101,105);fill-rule:nonzero;"/>
                            <path d="M393.5,282.068C392.775,282.068 392.132,281.903 391.572,281.572C391.012,281.241 390.58,280.772 390.276,280.164C389.972,279.556 389.82,278.852 389.82,278.052C389.82,277.252 389.978,276.543 390.292,275.924C390.607,275.305 391.047,274.825 391.612,274.484C392.178,274.143 392.828,273.972 393.564,273.972C393.97,273.972 394.372,274.028 394.772,274.14C395.172,274.252 395.522,274.415 395.82,274.628C396.012,274.756 396.148,274.881 396.228,275.004C396.308,275.127 396.348,275.263 396.348,275.412C396.348,275.561 396.308,275.684 396.228,275.78C396.148,275.876 396.044,275.924 395.916,275.924C395.842,275.924 395.762,275.903 395.676,275.86C395.591,275.817 395.519,275.775 395.46,275.732C395.402,275.689 395.362,275.663 395.34,275.652C395.063,275.471 394.799,275.327 394.548,275.22C394.298,275.113 393.991,275.06 393.628,275.06C392.85,275.06 392.244,275.324 391.812,275.852C391.38,276.38 391.164,277.113 391.164,278.052C391.164,278.991 391.38,279.716 391.812,280.228C392.244,280.74 392.85,280.996 393.628,280.996C393.991,280.996 394.303,280.943 394.564,280.836C394.826,280.729 395.09,280.585 395.356,280.404C395.474,280.329 395.586,280.265 395.692,280.212C395.799,280.159 395.89,280.132 395.964,280.132C396.082,280.132 396.18,280.18 396.26,280.276C396.34,280.372 396.38,280.495 396.38,280.644C396.38,280.783 396.343,280.908 396.268,281.02C396.194,281.132 396.055,281.257 395.852,281.396C395.554,281.599 395.194,281.761 394.772,281.884C394.351,282.007 393.927,282.068 393.5,282.068Z" style="fill:rgb(99,101,105);fill-rule:nonzero;"/>
                            <path d="M401.564,281.012C401.938,281.044 402.124,281.215 402.124,281.524C402.124,281.705 402.058,281.841 401.924,281.932C401.791,282.023 401.591,282.057 401.324,282.036L400.892,282.004C400.039,281.94 399.41,281.684 399.004,281.236C398.599,280.788 398.396,280.111 398.396,279.204L398.396,275.188L397.324,275.188C397.143,275.188 397.002,275.143 396.9,275.052C396.799,274.961 396.748,274.841 396.748,274.692C396.748,274.532 396.799,274.404 396.9,274.308C397.002,274.212 397.143,274.164 397.324,274.164L398.396,274.164L398.396,272.356C398.396,272.153 398.455,271.996 398.572,271.884C398.69,271.772 398.85,271.716 399.052,271.716C399.244,271.716 399.399,271.772 399.516,271.884C399.634,271.996 399.692,272.153 399.692,272.356L399.692,274.164L401.468,274.164C401.639,274.164 401.775,274.212 401.876,274.308C401.978,274.404 402.028,274.532 402.028,274.692C402.028,274.841 401.978,274.961 401.876,275.052C401.775,275.143 401.639,275.188 401.468,275.188L399.692,275.188L399.692,279.268C399.692,279.855 399.812,280.279 400.052,280.54C400.292,280.801 400.652,280.948 401.132,280.98L401.564,281.012Z" style="fill:rgb(99,101,105);fill-rule:nonzero;"/>
                            <path d="M414.204,280.852C414.396,280.852 414.546,280.9 414.652,280.996C414.759,281.092 414.812,281.225 414.812,281.396C414.812,281.577 414.762,281.716 414.66,281.812C414.559,281.908 414.407,281.956 414.204,281.956L408.908,281.956C408.706,281.956 408.554,281.908 408.452,281.812C408.351,281.716 408.3,281.577 408.3,281.396C408.3,281.225 408.354,281.092 408.46,280.996C408.567,280.9 408.716,280.852 408.908,280.852L410.892,280.852L410.892,272.276L409.148,273.412C409.063,273.465 408.978,273.492 408.892,273.492C408.743,273.492 408.612,273.423 408.5,273.284C408.388,273.145 408.332,272.996 408.332,272.836C408.332,272.612 408.418,272.452 408.588,272.356L411.02,270.772C411.202,270.655 411.388,270.596 411.58,270.596C411.762,270.596 411.911,270.655 412.028,270.772C412.146,270.889 412.204,271.055 412.204,271.268L412.204,280.852L414.204,280.852Z" style="fill:rgb(99,101,105);fill-rule:nonzero;"/>
                        </g>
                        <g transform="matrix(1,0,0,1,-5.70065,54.6495)">
                            <path d="M359.484,281.204C359.527,281.289 359.548,281.38 359.548,281.476C359.548,281.636 359.487,281.769 359.364,281.876C359.242,281.983 359.095,282.036 358.924,282.036C358.658,282.036 358.471,281.908 358.364,281.652L357.228,279.06L351.196,279.06L350.044,281.652C349.938,281.908 349.751,282.036 349.484,282.036C349.314,282.036 349.164,281.98 349.036,281.868C348.908,281.756 348.844,281.62 348.844,281.46C348.844,281.375 348.866,281.289 348.908,281.204L353.484,271.028C353.548,270.879 353.644,270.767 353.772,270.692C353.9,270.617 354.039,270.58 354.188,270.58C354.348,270.58 354.492,270.62 354.62,270.7C354.748,270.78 354.844,270.889 354.908,271.028L359.484,281.204ZM351.676,277.972L356.748,277.972L354.204,272.228L351.676,277.972Z" style="fill:rgb(99,101,105);fill-rule:nonzero;"/>
                            <path d="M365.068,274.004C365.516,273.972 365.74,274.153 365.74,274.548C365.74,274.719 365.692,274.855 365.596,274.956C365.5,275.057 365.335,275.119 365.1,275.14L364.62,275.188C363.906,275.252 363.375,275.505 363.028,275.948C362.682,276.391 362.508,276.911 362.508,277.508L362.508,281.396C362.508,281.609 362.45,281.769 362.332,281.876C362.215,281.983 362.06,282.036 361.868,282.036C361.676,282.036 361.519,281.98 361.396,281.868C361.274,281.756 361.212,281.599 361.212,281.396L361.212,274.644C361.212,274.441 361.276,274.284 361.404,274.172C361.532,274.06 361.687,274.004 361.868,274.004C362.039,274.004 362.183,274.06 362.3,274.172C362.418,274.284 362.476,274.436 362.476,274.628L362.476,275.524C362.7,275.055 363.018,274.697 363.428,274.452C363.839,274.207 364.311,274.063 364.844,274.02L365.068,274.004Z" style="fill:rgb(99,101,105);fill-rule:nonzero;"/>
                            <path d="M371.084,281.012C371.458,281.044 371.644,281.215 371.644,281.524C371.644,281.705 371.578,281.841 371.444,281.932C371.311,282.023 371.111,282.057 370.844,282.036L370.412,282.004C369.559,281.94 368.93,281.684 368.524,281.236C368.119,280.788 367.916,280.111 367.916,279.204L367.916,275.188L366.844,275.188C366.663,275.188 366.522,275.143 366.42,275.052C366.319,274.961 366.268,274.841 366.268,274.692C366.268,274.532 366.319,274.404 366.42,274.308C366.522,274.212 366.663,274.164 366.844,274.164L367.916,274.164L367.916,272.356C367.916,272.153 367.975,271.996 368.092,271.884C368.21,271.772 368.37,271.716 368.572,271.716C368.764,271.716 368.919,271.772 369.036,271.884C369.154,271.996 369.212,272.153 369.212,272.356L369.212,274.164L370.988,274.164C371.159,274.164 371.295,274.212 371.396,274.308C371.498,274.404 371.548,274.532 371.548,274.692C371.548,274.841 371.498,274.961 371.396,275.052C371.295,275.143 371.159,275.188 370.988,275.188L369.212,275.188L369.212,279.268C369.212,279.855 369.332,280.279 369.572,280.54C369.812,280.801 370.172,280.948 370.652,280.98L371.084,281.012Z" style="fill:rgb(99,101,105);fill-rule:nonzero;"/>
                            <path d="M373.58,282.036C373.388,282.036 373.231,281.98 373.108,281.868C372.986,281.756 372.924,281.599 372.924,281.396L372.924,274.644C372.924,274.441 372.986,274.284 373.108,274.172C373.231,274.06 373.388,274.004 373.58,274.004C373.772,274.004 373.927,274.06 374.044,274.172C374.162,274.284 374.22,274.441 374.22,274.644L374.22,281.396C374.22,281.609 374.162,281.769 374.044,281.876C373.927,281.983 373.772,282.036 373.58,282.036ZM373.58,272.324C373.324,272.324 373.116,272.249 372.956,272.1C372.796,271.951 372.716,271.753 372.716,271.508C372.716,271.273 372.796,271.081 372.956,270.932C373.116,270.783 373.324,270.708 373.58,270.708C373.836,270.708 374.044,270.783 374.204,270.932C374.364,271.081 374.444,271.273 374.444,271.508C374.444,271.753 374.364,271.951 374.204,272.1C374.044,272.249 373.836,272.324 373.58,272.324Z" style="fill:rgb(99,101,105);fill-rule:nonzero;"/>
                            <path d="M380.076,271.7C379.511,271.743 379.084,271.921 378.796,272.236C378.508,272.551 378.364,273.023 378.364,273.652L378.364,274.164L380.14,274.164C380.322,274.164 380.46,274.212 380.556,274.308C380.652,274.404 380.7,274.532 380.7,274.692C380.7,274.852 380.652,274.975 380.556,275.06C380.46,275.145 380.322,275.188 380.14,275.188L378.364,275.188L378.364,281.396C378.364,281.599 378.303,281.756 378.18,281.868C378.058,281.98 377.906,282.036 377.724,282.036C377.532,282.036 377.375,281.98 377.252,281.868C377.13,281.756 377.068,281.599 377.068,281.396L377.068,275.188L375.996,275.188C375.815,275.188 375.674,275.143 375.572,275.052C375.471,274.961 375.42,274.841 375.42,274.692C375.42,274.532 375.471,274.404 375.572,274.308C375.674,274.212 375.815,274.164 375.996,274.164L377.068,274.164L377.068,273.876C377.068,272.916 377.308,272.161 377.788,271.612C378.268,271.063 378.956,270.756 379.852,270.692L380.268,270.66C380.546,270.639 380.746,270.665 380.868,270.74C380.991,270.815 381.052,270.948 381.052,271.14C381.052,271.449 380.866,271.625 380.492,271.668L380.076,271.7Z" style="fill:rgb(99,101,105);fill-rule:nonzero;"/>
                            <path d="M384.988,273.972C386.94,273.972 387.916,274.996 387.916,277.044L387.916,281.396C387.916,281.588 387.86,281.743 387.748,281.86C387.636,281.977 387.484,282.036 387.292,282.036C387.1,282.036 386.946,281.977 386.828,281.86C386.711,281.743 386.652,281.588 386.652,281.396L386.652,280.628C386.45,281.087 386.14,281.441 385.724,281.692C385.308,281.943 384.828,282.068 384.284,282.068C383.783,282.068 383.322,281.967 382.9,281.764C382.479,281.561 382.146,281.279 381.9,280.916C381.655,280.553 381.532,280.153 381.532,279.716C381.532,279.129 381.682,278.673 381.98,278.348C382.279,278.023 382.77,277.788 383.452,277.644C384.135,277.5 385.084,277.428 386.3,277.428L386.652,277.428L386.652,276.9C386.652,276.26 386.522,275.791 386.26,275.492C385.999,275.193 385.575,275.044 384.988,275.044C384.263,275.044 383.527,275.241 382.78,275.636C382.492,275.817 382.29,275.908 382.172,275.908C382.044,275.908 381.938,275.86 381.852,275.764C381.767,275.668 381.724,275.545 381.724,275.396C381.724,275.247 381.77,275.116 381.86,275.004C381.951,274.892 382.098,274.777 382.3,274.66C382.674,274.447 383.098,274.279 383.572,274.156C384.047,274.033 384.519,273.972 384.988,273.972ZM384.46,281.044C385.1,281.044 385.626,280.828 386.036,280.396C386.447,279.964 386.652,279.407 386.652,278.724L386.652,278.26L386.364,278.26C385.426,278.26 384.711,278.3 384.22,278.38C383.73,278.46 383.38,278.593 383.172,278.78C382.964,278.967 382.86,279.241 382.86,279.604C382.86,280.02 383.012,280.364 383.316,280.636C383.62,280.908 384.002,281.044 384.46,281.044Z" style="fill:rgb(99,101,105);fill-rule:nonzero;"/>
                            <path d="M393.5,282.068C392.775,282.068 392.132,281.903 391.572,281.572C391.012,281.241 390.58,280.772 390.276,280.164C389.972,279.556 389.82,278.852 389.82,278.052C389.82,277.252 389.978,276.543 390.292,275.924C390.607,275.305 391.047,274.825 391.612,274.484C392.178,274.143 392.828,273.972 393.564,273.972C393.97,273.972 394.372,274.028 394.772,274.14C395.172,274.252 395.522,274.415 395.82,274.628C396.012,274.756 396.148,274.881 396.228,275.004C396.308,275.127 396.348,275.263 396.348,275.412C396.348,275.561 396.308,275.684 396.228,275.78C396.148,275.876 396.044,275.924 395.916,275.924C395.842,275.924 395.762,275.903 395.676,275.86C395.591,275.817 395.519,275.775 395.46,275.732C395.402,275.689 395.362,275.663 395.34,275.652C395.063,275.471 394.799,275.327 394.548,275.22C394.298,275.113 393.991,275.06 393.628,275.06C392.85,275.06 392.244,275.324 391.812,275.852C391.38,276.38 391.164,277.113 391.164,278.052C391.164,278.991 391.38,279.716 391.812,280.228C392.244,280.74 392.85,280.996 393.628,280.996C393.991,280.996 394.303,280.943 394.564,280.836C394.826,280.729 395.09,280.585 395.356,280.404C395.474,280.329 395.586,280.265 395.692,280.212C395.799,280.159 395.89,280.132 395.964,280.132C396.082,280.132 396.18,280.18 396.26,280.276C396.34,280.372 396.38,280.495 396.38,280.644C396.38,280.783 396.343,280.908 396.268,281.02C396.194,281.132 396.055,281.257 395.852,281.396C395.554,281.599 395.194,281.761 394.772,281.884C394.351,282.007 393.927,282.068 393.5,282.068Z" style="fill:rgb(99,101,105);fill-rule:nonzero;"/>
                            <path d="M401.564,281.012C401.938,281.044 402.124,281.215 402.124,281.524C402.124,281.705 402.058,281.841 401.924,281.932C401.791,282.023 401.591,282.057 401.324,282.036L400.892,282.004C400.039,281.94 399.41,281.684 399.004,281.236C398.599,280.788 398.396,280.111 398.396,279.204L398.396,275.188L397.324,275.188C397.143,275.188 397.002,275.143 396.9,275.052C396.799,274.961 396.748,274.841 396.748,274.692C396.748,274.532 396.799,274.404 396.9,274.308C397.002,274.212 397.143,274.164 397.324,274.164L398.396,274.164L398.396,272.356C398.396,272.153 398.455,271.996 398.572,271.884C398.69,271.772 398.85,271.716 399.052,271.716C399.244,271.716 399.399,271.772 399.516,271.884C399.634,271.996 399.692,272.153 399.692,272.356L399.692,274.164L401.468,274.164C401.639,274.164 401.775,274.212 401.876,274.308C401.978,274.404 402.028,274.532 402.028,274.692C402.028,274.841 401.978,274.961 401.876,275.052C401.775,275.143 401.639,275.188 401.468,275.188L399.692,275.188L399.692,279.268C399.692,279.855 399.812,280.279 400.052,280.54C400.292,280.801 400.652,280.948 401.132,280.98L401.564,281.012Z" style="fill:rgb(99,101,105);fill-rule:nonzero;"/>
                            <path d="M414.46,280.852C414.652,280.852 414.802,280.9 414.908,280.996C415.015,281.092 415.068,281.225 415.068,281.396C415.068,281.769 414.866,281.956 414.46,281.956L408.188,281.956C408.007,281.956 407.858,281.9 407.74,281.788C407.623,281.676 407.564,281.54 407.564,281.38C407.564,281.177 407.639,281.001 407.788,280.852L411.644,276.612C412.178,276.015 412.564,275.479 412.804,275.004C413.044,274.529 413.164,274.052 413.164,273.572C413.164,272.953 412.986,272.479 412.628,272.148C412.271,271.817 411.767,271.652 411.116,271.652C410.604,271.652 410.114,271.745 409.644,271.932C409.175,272.119 408.706,272.404 408.236,272.788C408.076,272.916 407.927,272.98 407.788,272.98C407.671,272.98 407.57,272.924 407.484,272.812C407.399,272.7 407.356,272.564 407.356,272.404C407.356,272.18 407.442,271.999 407.612,271.86C408.05,271.455 408.583,271.135 409.212,270.9C409.842,270.665 410.487,270.548 411.148,270.548C412.162,270.548 412.97,270.815 413.572,271.348C414.175,271.881 414.476,272.601 414.476,273.508C414.476,274.159 414.33,274.783 414.036,275.38C413.743,275.977 413.26,276.644 412.588,277.38L409.388,280.852L414.46,280.852Z" style="fill:rgb(99,101,105);fill-rule:nonzero;"/>
                        </g>
                        <g transform="matrix(1,0,0,1,-5.70065,101.517)">
                            <path d="M359.484,281.204C359.527,281.289 359.548,281.38 359.548,281.476C359.548,281.636 359.487,281.769 359.364,281.876C359.242,281.983 359.095,282.036 358.924,282.036C358.658,282.036 358.471,281.908 358.364,281.652L357.228,279.06L351.196,279.06L350.044,281.652C349.938,281.908 349.751,282.036 349.484,282.036C349.314,282.036 349.164,281.98 349.036,281.868C348.908,281.756 348.844,281.62 348.844,281.46C348.844,281.375 348.866,281.289 348.908,281.204L353.484,271.028C353.548,270.879 353.644,270.767 353.772,270.692C353.9,270.617 354.039,270.58 354.188,270.58C354.348,270.58 354.492,270.62 354.62,270.7C354.748,270.78 354.844,270.889 354.908,271.028L359.484,281.204ZM351.676,277.972L356.748,277.972L354.204,272.228L351.676,277.972Z" style="fill:rgb(99,101,105);fill-rule:nonzero;"/>
                            <path d="M365.068,274.004C365.516,273.972 365.74,274.153 365.74,274.548C365.74,274.719 365.692,274.855 365.596,274.956C365.5,275.057 365.335,275.119 365.1,275.14L364.62,275.188C363.906,275.252 363.375,275.505 363.028,275.948C362.682,276.391 362.508,276.911 362.508,277.508L362.508,281.396C362.508,281.609 362.45,281.769 362.332,281.876C362.215,281.983 362.06,282.036 361.868,282.036C361.676,282.036 361.519,281.98 361.396,281.868C361.274,281.756 361.212,281.599 361.212,281.396L361.212,274.644C361.212,274.441 361.276,274.284 361.404,274.172C361.532,274.06 361.687,274.004 361.868,274.004C362.039,274.004 362.183,274.06 362.3,274.172C362.418,274.284 362.476,274.436 362.476,274.628L362.476,275.524C362.7,275.055 363.018,274.697 363.428,274.452C363.839,274.207 364.311,274.063 364.844,274.02L365.068,274.004Z" style="fill:rgb(99,101,105);fill-rule:nonzero;"/>
                            <path d="M371.084,281.012C371.458,281.044 371.644,281.215 371.644,281.524C371.644,281.705 371.578,281.841 371.444,281.932C371.311,282.023 371.111,282.057 370.844,282.036L370.412,282.004C369.559,281.94 368.93,281.684 368.524,281.236C368.119,280.788 367.916,280.111 367.916,279.204L367.916,275.188L366.844,275.188C366.663,275.188 366.522,275.143 366.42,275.052C366.319,274.961 366.268,274.841 366.268,274.692C366.268,274.532 366.319,274.404 366.42,274.308C366.522,274.212 366.663,274.164 366.844,274.164L367.916,274.164L367.916,272.356C367.916,272.153 367.975,271.996 368.092,271.884C368.21,271.772 368.37,271.716 368.572,271.716C368.764,271.716 368.919,271.772 369.036,271.884C369.154,271.996 369.212,272.153 369.212,272.356L369.212,274.164L370.988,274.164C371.159,274.164 371.295,274.212 371.396,274.308C371.498,274.404 371.548,274.532 371.548,274.692C371.548,274.841 371.498,274.961 371.396,275.052C371.295,275.143 371.159,275.188 370.988,275.188L369.212,275.188L369.212,279.268C369.212,279.855 369.332,280.279 369.572,280.54C369.812,280.801 370.172,280.948 370.652,280.98L371.084,281.012Z" style="fill:rgb(99,101,105);fill-rule:nonzero;"/>
                            <path d="M373.58,282.036C373.388,282.036 373.231,281.98 373.108,281.868C372.986,281.756 372.924,281.599 372.924,281.396L372.924,274.644C372.924,274.441 372.986,274.284 373.108,274.172C373.231,274.06 373.388,274.004 373.58,274.004C373.772,274.004 373.927,274.06 374.044,274.172C374.162,274.284 374.22,274.441 374.22,274.644L374.22,281.396C374.22,281.609 374.162,281.769 374.044,281.876C373.927,281.983 373.772,282.036 373.58,282.036ZM373.58,272.324C373.324,272.324 373.116,272.249 372.956,272.1C372.796,271.951 372.716,271.753 372.716,271.508C372.716,271.273 372.796,271.081 372.956,270.932C373.116,270.783 373.324,270.708 373.58,270.708C373.836,270.708 374.044,270.783 374.204,270.932C374.364,271.081 374.444,271.273 374.444,271.508C374.444,271.753 374.364,271.951 374.204,272.1C374.044,272.249 373.836,272.324 373.58,272.324Z" style="fill:rgb(99,101,105);fill-rule:nonzero;"/>
                            <path d="M380.076,271.7C379.511,271.743 379.084,271.921 378.796,272.236C378.508,272.551 378.364,273.023 378.364,273.652L378.364,274.164L380.14,274.164C380.322,274.164 380.46,274.212 380.556,274.308C380.652,274.404 380.7,274.532 380.7,274.692C380.7,274.852 380.652,274.975 380.556,275.06C380.46,275.145 380.322,275.188 380.14,275.188L378.364,275.188L378.364,281.396C378.364,281.599 378.303,281.756 378.18,281.868C378.058,281.98 377.906,282.036 377.724,282.036C377.532,282.036 377.375,281.98 377.252,281.868C377.13,281.756 377.068,281.599 377.068,281.396L377.068,275.188L375.996,275.188C375.815,275.188 375.674,275.143 375.572,275.052C375.471,274.961 375.42,274.841 375.42,274.692C375.42,274.532 375.471,274.404 375.572,274.308C375.674,274.212 375.815,274.164 375.996,274.164L377.068,274.164L377.068,273.876C377.068,272.916 377.308,272.161 377.788,271.612C378.268,271.063 378.956,270.756 379.852,270.692L380.268,270.66C380.546,270.639 380.746,270.665 380.868,270.74C380.991,270.815 381.052,270.948 381.052,271.14C381.052,271.449 380.866,271.625 380.492,271.668L380.076,271.7Z" style="fill:rgb(99,101,105);fill-rule:nonzero;"/>
                            <path d="M384.988,273.972C386.94,273.972 387.916,274.996 387.916,277.044L387.916,281.396C387.916,281.588 387.86,281.743 387.748,281.86C387.636,281.977 387.484,282.036 387.292,282.036C387.1,282.036 386.946,281.977 386.828,281.86C386.711,281.743 386.652,281.588 386.652,281.396L386.652,280.628C386.45,281.087 386.14,281.441 385.724,281.692C385.308,281.943 384.828,282.068 384.284,282.068C383.783,282.068 383.322,281.967 382.9,281.764C382.479,281.561 382.146,281.279 381.9,280.916C381.655,280.553 381.532,280.153 381.532,279.716C381.532,279.129 381.682,278.673 381.98,278.348C382.279,278.023 382.77,277.788 383.452,277.644C384.135,277.5 385.084,277.428 386.3,277.428L386.652,277.428L386.652,276.9C386.652,276.26 386.522,275.791 386.26,275.492C385.999,275.193 385.575,275.044 384.988,275.044C384.263,275.044 383.527,275.241 382.78,275.636C382.492,275.817 382.29,275.908 382.172,275.908C382.044,275.908 381.938,275.86 381.852,275.764C381.767,275.668 381.724,275.545 381.724,275.396C381.724,275.247 381.77,275.116 381.86,275.004C381.951,274.892 382.098,274.777 382.3,274.66C382.674,274.447 383.098,274.279 383.572,274.156C384.047,274.033 384.519,273.972 384.988,273.972ZM384.46,281.044C385.1,281.044 385.626,280.828 386.036,280.396C386.447,279.964 386.652,279.407 386.652,278.724L386.652,278.26L386.364,278.26C385.426,278.26 384.711,278.3 384.22,278.38C383.73,278.46 383.38,278.593 383.172,278.78C382.964,278.967 382.86,279.241 382.86,279.604C382.86,280.02 383.012,280.364 383.316,280.636C383.62,280.908 384.002,281.044 384.46,281.044Z" style="fill:rgb(99,101,105);fill-rule:nonzero;"/>
                            <path d="M393.5,282.068C392.775,282.068 392.132,281.903 391.572,281.572C391.012,281.241 390.58,280.772 390.276,280.164C389.972,279.556 389.82,278.852 389.82,278.052C389.82,277.252 389.978,276.543 390.292,275.924C390.607,275.305 391.047,274.825 391.612,274.484C392.178,274.143 392.828,273.972 393.564,273.972C393.97,273.972 394.372,274.028 394.772,274.14C395.172,274.252 395.522,274.415 395.82,274.628C396.012,274.756 396.148,274.881 396.228,275.004C396.308,275.127 396.348,275.263 396.348,275.412C396.348,275.561 396.308,275.684 396.228,275.78C396.148,275.876 396.044,275.924 395.916,275.924C395.842,275.924 395.762,275.903 395.676,275.86C395.591,275.817 395.519,275.775 395.46,275.732C395.402,275.689 395.362,275.663 395.34,275.652C395.063,275.471 394.799,275.327 394.548,275.22C394.298,275.113 393.991,275.06 393.628,275.06C392.85,275.06 392.244,275.324 391.812,275.852C391.38,276.38 391.164,277.113 391.164,278.052C391.164,278.991 391.38,279.716 391.812,280.228C392.244,280.74 392.85,280.996 393.628,280.996C393.991,280.996 394.303,280.943 394.564,280.836C394.826,280.729 395.09,280.585 395.356,280.404C395.474,280.329 395.586,280.265 395.692,280.212C395.799,280.159 395.89,280.132 395.964,280.132C396.082,280.132 396.18,280.18 396.26,280.276C396.34,280.372 396.38,280.495 396.38,280.644C396.38,280.783 396.343,280.908 396.268,281.02C396.194,281.132 396.055,281.257 395.852,281.396C395.554,281.599 395.194,281.761 394.772,281.884C394.351,282.007 393.927,282.068 393.5,282.068Z" style="fill:rgb(99,101,105);fill-rule:nonzero;"/>
                            <path d="M401.564,281.012C401.938,281.044 402.124,281.215 402.124,281.524C402.124,281.705 402.058,281.841 401.924,281.932C401.791,282.023 401.591,282.057 401.324,282.036L400.892,282.004C400.039,281.94 399.41,281.684 399.004,281.236C398.599,280.788 398.396,280.111 398.396,279.204L398.396,275.188L397.324,275.188C397.143,275.188 397.002,275.143 396.9,275.052C396.799,274.961 396.748,274.841 396.748,274.692C396.748,274.532 396.799,274.404 396.9,274.308C397.002,274.212 397.143,274.164 397.324,274.164L398.396,274.164L398.396,272.356C398.396,272.153 398.455,271.996 398.572,271.884C398.69,271.772 398.85,271.716 399.052,271.716C399.244,271.716 399.399,271.772 399.516,271.884C399.634,271.996 399.692,272.153 399.692,272.356L399.692,274.164L401.468,274.164C401.639,274.164 401.775,274.212 401.876,274.308C401.978,274.404 402.028,274.532 402.028,274.692C402.028,274.841 401.978,274.961 401.876,275.052C401.775,275.143 401.639,275.188 401.468,275.188L399.692,275.188L399.692,279.268C399.692,279.855 399.812,280.279 400.052,280.54C400.292,280.801 400.652,280.948 401.132,280.98L401.564,281.012Z" style="fill:rgb(99,101,105);fill-rule:nonzero;"/>
                            <path d="M412.636,276.164C413.319,276.356 413.839,276.687 414.196,277.156C414.554,277.625 414.732,278.207 414.732,278.9C414.732,279.881 414.402,280.655 413.74,281.22C413.079,281.785 412.178,282.068 411.036,282.068C410.343,282.068 409.679,281.951 409.044,281.716C408.41,281.481 407.874,281.161 407.436,280.756C407.266,280.596 407.18,280.415 407.18,280.212C407.18,280.052 407.223,279.919 407.308,279.812C407.394,279.705 407.495,279.652 407.612,279.652C407.762,279.652 407.911,279.711 408.06,279.828C408.551,280.223 409.031,280.511 409.5,280.692C409.97,280.873 410.476,280.964 411.02,280.964C411.81,280.964 412.41,280.783 412.82,280.42C413.231,280.057 413.436,279.535 413.436,278.852C413.436,277.476 412.572,276.788 410.844,276.788L409.996,276.788C409.826,276.788 409.69,276.732 409.588,276.62C409.487,276.508 409.436,276.377 409.436,276.228C409.436,276.079 409.487,275.951 409.588,275.844C409.69,275.737 409.826,275.684 409.996,275.684L410.588,275.684C411.42,275.684 412.06,275.5 412.508,275.132C412.956,274.764 413.18,274.233 413.18,273.54C413.18,272.932 412.999,272.465 412.636,272.14C412.274,271.815 411.762,271.652 411.1,271.652C410.599,271.652 410.114,271.745 409.644,271.932C409.175,272.119 408.706,272.404 408.236,272.788C408.087,272.905 407.938,272.964 407.788,272.964C407.671,272.964 407.57,272.911 407.484,272.804C407.399,272.697 407.356,272.564 407.356,272.404C407.356,272.201 407.442,272.02 407.612,271.86C408.05,271.455 408.58,271.135 409.204,270.9C409.828,270.665 410.471,270.548 411.132,270.548C412.156,270.548 412.97,270.807 413.572,271.324C414.175,271.841 414.476,272.537 414.476,273.412C414.476,274.063 414.314,274.631 413.988,275.116C413.663,275.601 413.212,275.951 412.636,276.164Z" style="fill:rgb(99,101,105);fill-rule:nonzero;"/>
                        </g>
                        <g transform="matrix(1,0,0,1,-5.70065,149.099)">
                            <path d="M359.484,281.204C359.527,281.289 359.548,281.38 359.548,281.476C359.548,281.636 359.487,281.769 359.364,281.876C359.242,281.983 359.095,282.036 358.924,282.036C358.658,282.036 358.471,281.908 358.364,281.652L357.228,279.06L351.196,279.06L350.044,281.652C349.938,281.908 349.751,282.036 349.484,282.036C349.314,282.036 349.164,281.98 349.036,281.868C348.908,281.756 348.844,281.62 348.844,281.46C348.844,281.375 348.866,281.289 348.908,281.204L353.484,271.028C353.548,270.879 353.644,270.767 353.772,270.692C353.9,270.617 354.039,270.58 354.188,270.58C354.348,270.58 354.492,270.62 354.62,270.7C354.748,270.78 354.844,270.889 354.908,271.028L359.484,281.204ZM351.676,277.972L356.748,277.972L354.204,272.228L351.676,277.972Z" style="fill:rgb(99,101,105);fill-rule:nonzero;"/>
                            <path d="M365.068,274.004C365.516,273.972 365.74,274.153 365.74,274.548C365.74,274.719 365.692,274.855 365.596,274.956C365.5,275.057 365.335,275.119 365.1,275.14L364.62,275.188C363.906,275.252 363.375,275.505 363.028,275.948C362.682,276.391 362.508,276.911 362.508,277.508L362.508,281.396C362.508,281.609 362.45,281.769 362.332,281.876C362.215,281.983 362.06,282.036 361.868,282.036C361.676,282.036 361.519,281.98 361.396,281.868C361.274,281.756 361.212,281.599 361.212,281.396L361.212,274.644C361.212,274.441 361.276,274.284 361.404,274.172C361.532,274.06 361.687,274.004 361.868,274.004C362.039,274.004 362.183,274.06 362.3,274.172C362.418,274.284 362.476,274.436 362.476,274.628L362.476,275.524C362.7,275.055 363.018,274.697 363.428,274.452C363.839,274.207 364.311,274.063 364.844,274.02L365.068,274.004Z" style="fill:rgb(99,101,105);fill-rule:nonzero;"/>
                            <path d="M371.084,281.012C371.458,281.044 371.644,281.215 371.644,281.524C371.644,281.705 371.578,281.841 371.444,281.932C371.311,282.023 371.111,282.057 370.844,282.036L370.412,282.004C369.559,281.94 368.93,281.684 368.524,281.236C368.119,280.788 367.916,280.111 367.916,279.204L367.916,275.188L366.844,275.188C366.663,275.188 366.522,275.143 366.42,275.052C366.319,274.961 366.268,274.841 366.268,274.692C366.268,274.532 366.319,274.404 366.42,274.308C366.522,274.212 366.663,274.164 366.844,274.164L367.916,274.164L367.916,272.356C367.916,272.153 367.975,271.996 368.092,271.884C368.21,271.772 368.37,271.716 368.572,271.716C368.764,271.716 368.919,271.772 369.036,271.884C369.154,271.996 369.212,272.153 369.212,272.356L369.212,274.164L370.988,274.164C371.159,274.164 371.295,274.212 371.396,274.308C371.498,274.404 371.548,274.532 371.548,274.692C371.548,274.841 371.498,274.961 371.396,275.052C371.295,275.143 371.159,275.188 370.988,275.188L369.212,275.188L369.212,279.268C369.212,279.855 369.332,280.279 369.572,280.54C369.812,280.801 370.172,280.948 370.652,280.98L371.084,281.012Z" style="fill:rgb(99,101,105);fill-rule:nonzero;"/>
                            <path d="M373.58,282.036C373.388,282.036 373.231,281.98 373.108,281.868C372.986,281.756 372.924,281.599 372.924,281.396L372.924,274.644C372.924,274.441 372.986,274.284 373.108,274.172C373.231,274.06 373.388,274.004 373.58,274.004C373.772,274.004 373.927,274.06 374.044,274.172C374.162,274.284 374.22,274.441 374.22,274.644L374.22,281.396C374.22,281.609 374.162,281.769 374.044,281.876C373.927,281.983 373.772,282.036 373.58,282.036ZM373.58,272.324C373.324,272.324 373.116,272.249 372.956,272.1C372.796,271.951 372.716,271.753 372.716,271.508C372.716,271.273 372.796,271.081 372.956,270.932C373.116,270.783 373.324,270.708 373.58,270.708C373.836,270.708 374.044,270.783 374.204,270.932C374.364,271.081 374.444,271.273 374.444,271.508C374.444,271.753 374.364,271.951 374.204,272.1C374.044,272.249 373.836,272.324 373.58,272.324Z" style="fill:rgb(99,101,105);fill-rule:nonzero;"/>
                            <path d="M380.076,271.7C379.511,271.743 379.084,271.921 378.796,272.236C378.508,272.551 378.364,273.023 378.364,273.652L378.364,274.164L380.14,274.164C380.322,274.164 380.46,274.212 380.556,274.308C380.652,274.404 380.7,274.532 380.7,274.692C380.7,274.852 380.652,274.975 380.556,275.06C380.46,275.145 380.322,275.188 380.14,275.188L378.364,275.188L378.364,281.396C378.364,281.599 378.303,281.756 378.18,281.868C378.058,281.98 377.906,282.036 377.724,282.036C377.532,282.036 377.375,281.98 377.252,281.868C377.13,281.756 377.068,281.599 377.068,281.396L377.068,275.188L375.996,275.188C375.815,275.188 375.674,275.143 375.572,275.052C375.471,274.961 375.42,274.841 375.42,274.692C375.42,274.532 375.471,274.404 375.572,274.308C375.674,274.212 375.815,274.164 375.996,274.164L377.068,274.164L377.068,273.876C377.068,272.916 377.308,272.161 377.788,271.612C378.268,271.063 378.956,270.756 379.852,270.692L380.268,270.66C380.546,270.639 380.746,270.665 380.868,270.74C380.991,270.815 381.052,270.948 381.052,271.14C381.052,271.449 380.866,271.625 380.492,271.668L380.076,271.7Z" style="fill:rgb(99,101,105);fill-rule:nonzero;"/>
                            <path d="M384.988,273.972C386.94,273.972 387.916,274.996 387.916,277.044L387.916,281.396C387.916,281.588 387.86,281.743 387.748,281.86C387.636,281.977 387.484,282.036 387.292,282.036C387.1,282.036 386.946,281.977 386.828,281.86C386.711,281.743 386.652,281.588 386.652,281.396L386.652,280.628C386.45,281.087 386.14,281.441 385.724,281.692C385.308,281.943 384.828,282.068 384.284,282.068C383.783,282.068 383.322,281.967 382.9,281.764C382.479,281.561 382.146,281.279 381.9,280.916C381.655,280.553 381.532,280.153 381.532,279.716C381.532,279.129 381.682,278.673 381.98,278.348C382.279,278.023 382.77,277.788 383.452,277.644C384.135,277.5 385.084,277.428 386.3,277.428L386.652,277.428L386.652,276.9C386.652,276.26 386.522,275.791 386.26,275.492C385.999,275.193 385.575,275.044 384.988,275.044C384.263,275.044 383.527,275.241 382.78,275.636C382.492,275.817 382.29,275.908 382.172,275.908C382.044,275.908 381.938,275.86 381.852,275.764C381.767,275.668 381.724,275.545 381.724,275.396C381.724,275.247 381.77,275.116 381.86,275.004C381.951,274.892 382.098,274.777 382.3,274.66C382.674,274.447 383.098,274.279 383.572,274.156C384.047,274.033 384.519,273.972 384.988,273.972ZM384.46,281.044C385.1,281.044 385.626,280.828 386.036,280.396C386.447,279.964 386.652,279.407 386.652,278.724L386.652,278.26L386.364,278.26C385.426,278.26 384.711,278.3 384.22,278.38C383.73,278.46 383.38,278.593 383.172,278.78C382.964,278.967 382.86,279.241 382.86,279.604C382.86,280.02 383.012,280.364 383.316,280.636C383.62,280.908 384.002,281.044 384.46,281.044Z" style="fill:rgb(99,101,105);fill-rule:nonzero;"/>
                            <path d="M393.5,282.068C392.775,282.068 392.132,281.903 391.572,281.572C391.012,281.241 390.58,280.772 390.276,280.164C389.972,279.556 389.82,278.852 389.82,278.052C389.82,277.252 389.978,276.543 390.292,275.924C390.607,275.305 391.047,274.825 391.612,274.484C392.178,274.143 392.828,273.972 393.564,273.972C393.97,273.972 394.372,274.028 394.772,274.14C395.172,274.252 395.522,274.415 395.82,274.628C396.012,274.756 396.148,274.881 396.228,275.004C396.308,275.127 396.348,275.263 396.348,275.412C396.348,275.561 396.308,275.684 396.228,275.78C396.148,275.876 396.044,275.924 395.916,275.924C395.842,275.924 395.762,275.903 395.676,275.86C395.591,275.817 395.519,275.775 395.46,275.732C395.402,275.689 395.362,275.663 395.34,275.652C395.063,275.471 394.799,275.327 394.548,275.22C394.298,275.113 393.991,275.06 393.628,275.06C392.85,275.06 392.244,275.324 391.812,275.852C391.38,276.38 391.164,277.113 391.164,278.052C391.164,278.991 391.38,279.716 391.812,280.228C392.244,280.74 392.85,280.996 393.628,280.996C393.991,280.996 394.303,280.943 394.564,280.836C394.826,280.729 395.09,280.585 395.356,280.404C395.474,280.329 395.586,280.265 395.692,280.212C395.799,280.159 395.89,280.132 395.964,280.132C396.082,280.132 396.18,280.18 396.26,280.276C396.34,280.372 396.38,280.495 396.38,280.644C396.38,280.783 396.343,280.908 396.268,281.02C396.194,281.132 396.055,281.257 395.852,281.396C395.554,281.599 395.194,281.761 394.772,281.884C394.351,282.007 393.927,282.068 393.5,282.068Z" style="fill:rgb(99,101,105);fill-rule:nonzero;"/>
                            <path d="M401.564,281.012C401.938,281.044 402.124,281.215 402.124,281.524C402.124,281.705 402.058,281.841 401.924,281.932C401.791,282.023 401.591,282.057 401.324,282.036L400.892,282.004C400.039,281.94 399.41,281.684 399.004,281.236C398.599,280.788 398.396,280.111 398.396,279.204L398.396,275.188L397.324,275.188C397.143,275.188 397.002,275.143 396.9,275.052C396.799,274.961 396.748,274.841 396.748,274.692C396.748,274.532 396.799,274.404 396.9,274.308C397.002,274.212 397.143,274.164 397.324,274.164L398.396,274.164L398.396,272.356C398.396,272.153 398.455,271.996 398.572,271.884C398.69,271.772 398.85,271.716 399.052,271.716C399.244,271.716 399.399,271.772 399.516,271.884C399.634,271.996 399.692,272.153 399.692,272.356L399.692,274.164L401.468,274.164C401.639,274.164 401.775,274.212 401.876,274.308C401.978,274.404 402.028,274.532 402.028,274.692C402.028,274.841 401.978,274.961 401.876,275.052C401.775,275.143 401.639,275.188 401.468,275.188L399.692,275.188L399.692,279.268C399.692,279.855 399.812,280.279 400.052,280.54C400.292,280.801 400.652,280.948 401.132,280.98L401.564,281.012Z" style="fill:rgb(99,101,105);fill-rule:nonzero;"/>
                            <path d="M414.86,278.42C415.052,278.42 415.202,278.471 415.308,278.572C415.415,278.673 415.468,278.804 415.468,278.964C415.468,279.327 415.266,279.508 414.86,279.508L413.66,279.508L413.66,281.364C413.66,281.577 413.599,281.743 413.476,281.86C413.354,281.977 413.196,282.036 413.004,282.036C412.812,282.036 412.658,281.977 412.54,281.86C412.423,281.743 412.364,281.577 412.364,281.364L412.364,279.508L407.628,279.508C407.436,279.508 407.287,279.455 407.18,279.348C407.074,279.241 407.02,279.108 407.02,278.948C407.02,278.799 407.079,278.633 407.196,278.452L412.428,270.884C412.578,270.692 412.77,270.596 413.004,270.596C413.186,270.596 413.34,270.655 413.468,270.772C413.596,270.889 413.66,271.055 413.66,271.268L413.66,278.42L414.86,278.42ZM408.508,278.42L412.364,278.42L412.364,272.868L408.508,278.42Z" style="fill:rgb(99,101,105);fill-rule:nonzero;"/>
                        </g>
                    </g>
                    <g id="Files-more-arrows" serif:id="Files more arrows">
                        <path id="aa" d="M461.287,298.929L461.287,440.701" style="fill:none;stroke:rgb(54,54,54);stroke-width:2px;stroke-dasharray:1,0.6,0,0;"/>
                        <g transform="matrix(1,0,0,-1,76.3189,669.593)">
                            <path d="M384.964,298.929L441.902,298.929" style="fill:none;stroke:rgb(54,54,54);stroke-width:2px;stroke-dasharray:1,0.6,0,0;"/>
                        </g>
                    </g>
                </g>
            </g>
        </g>
    </g>
    <defs>
        <linearGradient id="_Linear1" x1="0" y1="0" x2="1" y2="0" gradientUnits="userSpaceOnUse" gradientTransform="matrix(218.635,0,0,13.3506,223.267,292.254)"><stop offset="0" style="stop-color:rgb(243,110,35);stop-opacity:1"/><stop offset="1" style="stop-color:rgb(54,54,54);stop-opacity:1"/></linearGradient>
        <linearGradient id="_Linear2" x1="0" y1="0" x2="1" y2="0" gradientUnits="userSpaceOnUse" gradientTransform="matrix(130.111,0,0,26.7011,311.791,298.929)"><stop offset="0" style="stop-color:rgb(243,110,35);stop-opacity:1"/><stop offset="1" style="stop-color:rgb(54,54,54);stop-opacity:1"/></linearGradient>
        <linearGradient id="_Linear3" x1="0" y1="0" x2="1" y2="0" gradientUnits="userSpaceOnUse" gradientTransform="matrix(136.3,0,0,26.7011,305.602,298.929)"><stop offset="0" style="stop-color:rgb(243,110,35);stop-opacity:1"/><stop offset="1" style="stop-color:rgb(54,54,54);stop-opacity:1"/></linearGradient>
        <linearGradient id="_Linear4" x1="0" y1="0" x2="1" y2="0" gradientUnits="userSpaceOnUse" gradientTransform="matrix(173.958,0,0,26.7011,267.944,298.929)"><stop offset="0" style="stop-color:rgb(243,110,35);stop-opacity:1"/><stop offset="1" style="stop-color:rgb(54,54,54);stop-opacity:1"/></linearGradient>
    </defs>
</svg>
