<?xml version="1.0" encoding="UTF-8" standalone="no"?>
<!DOCTYPE svg PUBLIC "-//W3C//DTD SVG 1.1//EN" "http://www.w3.org/Graphics/SVG/1.1/DTD/svg11.dtd">
<svg width="100%" height="100%" viewBox="0 0 101 87" version="1.1" xmlns="http://www.w3.org/2000/svg" xmlns:xlink="http://www.w3.org/1999/xlink" xml:space="preserve" xmlns:serif="http://www.serif.com/" style="fill-rule:evenodd;clip-rule:evenodd;stroke-linecap:round;stroke-linejoin:round;stroke-miterlimit:1.5;">
    <g transform="matrix(1,0,0,1,-1070,-207)">
        <g transform="matrix(1,0,0,1,-0.684275,0)">
            <g transform="matrix(1,0,0,1,4,2)">
                <g transform="matrix(1,0,0,1,-4,-4)">
                    <path d="M1071.41,252.556L1095.71,209.901L1146.43,209.901L1171.33,252.556L1146.43,295.211L1095.71,295.211L1071.41,252.556Z" style="fill:rgb(204,0,0);"/>
                </g>
                <g transform="matrix(1,0,0,1,-4,-4)">
                    <path d="M1164.6,252.556L1143.06,289.468L1099.17,289.468L1078.14,252.556L1099.17,215.644L1143.06,215.644L1164.6,252.556Z" style="fill:none;stroke:white;stroke-width:1px;"/>
                </g>
                <g transform="matrix(1,0,0,1,29.6177,10.2878)">
                    <path d="M1062.38,235.831C1063.19,236.058 1063.82,236.471 1064.27,237.071C1064.71,237.671 1064.93,238.405 1064.93,239.271C1064.93,240.471 1064.51,241.411 1063.64,242.091C1062.79,242.771 1061.6,243.111 1060.1,243.111L1054.93,243.111C1054.55,243.111 1054.25,243.005 1054.03,242.791C1053.81,242.578 1053.69,242.278 1053.69,241.891L1053.69,230.231C1053.69,229.845 1053.81,229.545 1054.03,229.331C1054.25,229.118 1054.55,229.011 1054.93,229.011L1059.89,229.011C1061.36,229.011 1062.51,229.335 1063.35,229.981C1064.18,230.628 1064.6,231.531 1064.6,232.691C1064.6,233.438 1064.4,234.085 1064.01,234.631C1063.61,235.178 1063.07,235.578 1062.38,235.831ZM1056.21,234.951L1059.47,234.951C1061.25,234.951 1062.13,234.291 1062.13,232.971C1062.13,232.305 1061.91,231.811 1061.47,231.491C1061.04,231.171 1060.37,231.011 1059.47,231.011L1056.21,231.011L1056.21,234.951ZM1059.82,241.111C1060.75,241.111 1061.43,240.945 1061.86,240.611C1062.28,240.278 1062.5,239.758 1062.5,239.051C1062.5,238.345 1062.28,237.818 1061.85,237.471C1061.41,237.125 1060.74,236.951 1059.82,236.951L1056.21,236.951L1056.21,241.111L1059.82,241.111Z" style="fill:white;fill-rule:nonzero;"/>
                    <path d="M1068.58,243.111C1068.19,243.111 1067.89,243.005 1067.67,242.791C1067.46,242.578 1067.36,242.285 1067.36,241.911L1067.36,230.191C1067.36,229.805 1067.47,229.495 1067.7,229.261C1067.94,229.028 1068.25,228.911 1068.63,228.911C1069.04,228.911 1069.35,229.028 1069.59,229.261C1069.82,229.495 1069.93,229.805 1069.93,230.191L1069.93,240.991L1075.56,240.991C1076.36,240.991 1076.76,241.345 1076.76,242.051C1076.76,242.758 1076.36,243.111 1075.56,243.111L1068.58,243.111Z" style="fill:white;fill-rule:nonzero;"/>
                    <path d="M1083.97,243.291C1082.6,243.291 1081.41,242.998 1080.4,242.411C1079.4,241.825 1078.62,240.985 1078.08,239.891C1077.53,238.798 1077.26,237.518 1077.26,236.051C1077.26,234.585 1077.53,233.308 1078.07,232.221C1078.61,231.135 1079.38,230.298 1080.39,229.711C1081.41,229.125 1082.6,228.831 1083.97,228.831C1085.35,228.831 1086.54,229.125 1087.55,229.711C1088.55,230.298 1089.33,231.135 1089.87,232.221C1090.4,233.308 1090.67,234.585 1090.67,236.051C1090.67,237.518 1090.4,238.798 1089.86,239.891C1089.31,240.985 1088.53,241.825 1087.53,242.411C1086.52,242.998 1085.34,243.291 1083.97,243.291ZM1083.97,241.231C1085.27,241.231 1086.28,240.785 1087.01,239.891C1087.73,238.998 1088.1,237.718 1088.1,236.051C1088.1,234.385 1087.73,233.108 1087.01,232.221C1086.28,231.335 1085.27,230.891 1083.97,230.891C1082.67,230.891 1081.65,231.335 1080.92,232.221C1080.2,233.108 1079.84,234.385 1079.84,236.051C1079.84,237.718 1080.2,238.998 1080.92,239.891C1081.65,240.785 1082.67,241.231 1083.97,241.231Z" style="fill:white;fill-rule:nonzero;"/>
                    <path d="M1099.58,243.291C1098.21,243.291 1097.03,242.998 1096.01,242.411C1094.99,241.825 1094.2,240.985 1093.65,239.891C1093.11,238.798 1092.84,237.518 1092.84,236.051C1092.84,234.585 1093.11,233.308 1093.65,232.221C1094.2,231.135 1094.99,230.298 1096.01,229.711C1097.03,229.125 1098.21,228.831 1099.58,228.831C1100.45,228.831 1101.28,228.961 1102.06,229.221C1102.83,229.481 1103.52,229.858 1104.12,230.351C1104.29,230.485 1104.41,230.625 1104.48,230.771C1104.54,230.918 1104.58,231.098 1104.58,231.311C1104.58,231.605 1104.5,231.851 1104.34,232.051C1104.17,232.251 1103.98,232.351 1103.76,232.351C1103.49,232.351 1103.21,232.258 1102.93,232.071C1102.36,231.645 1101.83,231.348 1101.34,231.181C1100.84,231.015 1100.3,230.931 1099.69,230.931C1098.31,230.931 1097.26,231.365 1096.55,232.231C1095.83,233.098 1095.48,234.371 1095.48,236.051C1095.48,237.745 1095.83,239.025 1096.55,239.891C1097.26,240.758 1098.31,241.191 1099.69,241.191C1100.27,241.191 1100.8,241.105 1101.29,240.931C1101.77,240.758 1102.32,240.465 1102.93,240.051C1103.07,239.971 1103.2,239.905 1103.34,239.851C1103.47,239.798 1103.61,239.771 1103.76,239.771C1103.98,239.771 1104.17,239.871 1104.34,240.071C1104.5,240.271 1104.58,240.518 1104.58,240.811C1104.58,241.011 1104.54,241.188 1104.48,241.341C1104.41,241.495 1104.29,241.638 1104.12,241.771C1103.52,242.265 1102.83,242.641 1102.06,242.901C1101.28,243.161 1100.45,243.291 1099.58,243.291Z" style="fill:white;fill-rule:nonzero;"/>
                    <path d="M1117.78,241.171C1118.04,241.425 1118.17,241.711 1118.17,242.031C1118.17,242.338 1118.06,242.608 1117.83,242.841C1117.59,243.075 1117.32,243.191 1117,243.191C1116.66,243.191 1116.36,243.051 1116.08,242.771L1109.41,236.531L1109.41,241.931C1109.41,242.318 1109.3,242.631 1109.07,242.871C1108.83,243.111 1108.52,243.231 1108.12,243.231C1107.73,243.231 1107.42,243.111 1107.18,242.871C1106.95,242.631 1106.84,242.318 1106.84,241.931L1106.84,230.191C1106.84,229.805 1106.95,229.495 1107.18,229.261C1107.42,229.028 1107.73,228.911 1108.12,228.911C1108.52,228.911 1108.83,229.028 1109.07,229.261C1109.3,229.495 1109.41,229.805 1109.41,230.191L1109.41,235.331L1115.86,229.291C1116.1,229.051 1116.37,228.931 1116.67,228.931C1116.98,228.931 1117.25,229.048 1117.49,229.281C1117.72,229.515 1117.84,229.785 1117.84,230.091C1117.84,230.398 1117.7,230.678 1117.43,230.931L1112.06,235.851L1117.78,241.171Z" style="fill:white;fill-rule:nonzero;"/>
                </g>
            </g>
        </g>
    </g>
</svg>
