<?xml version="1.0" standalone="no"?>
<!DOCTYPE svg PUBLIC "-//W3C//DTD SVG 1.1//EN" "http://www.w3.org/Graphics/SVG/1.1/DTD/svg11.dtd">
<svg xmlns="http://www.w3.org/2000/svg">
<metadata>Copyright (C) 2019 by original authors @ fontello.com</metadata>
<defs>
<font id="sonicwalliconfont" horiz-adv-x="1000" >
<font-face font-family="sonicwalliconfont" font-weight="400" font-stretch="normal" units-per-em="1000" ascent="850" descent="-150" />
<missing-glyph horiz-adv-x="1000" />
<glyph glyph-name="close" unicode="&#xe800;" d="M600 350l379 378q21 22 21 51t-21 50-50 21-51-21l-378-379-378 379q-22 21-51 21t-50-21-21-50 21-51l379-378-379-378q-21-22-21-51t21-50q10-11 24-16t26-5 27 5 24 16l378 379 378-379q10-11 24-16t27-5 26 5 24 16q21 21 21 50t-21 51l-379 378z" horiz-adv-x="1000" />

<glyph glyph-name="locked" unicode="&#xe801;" d="M909 406v111c0 46-11 89-32 129s-50 76-87 106c-38 30-81 54-130 72s-103 26-160 26c-57 0-110-9-159-26s-93-42-131-72c-37-30-66-65-87-106s-32-83-32-129v-111h-91v-482c0-21 9-38 26-53s40-21 65-21h818c26 0 47 7 65 21s26 32 26 53v482h-91z m-680 96c0 32 7 62 21 90s34 53 58 74c25 21 54 37 87 49s68 19 105 19c37 0 72-6 105-19s62-28 87-49c24-21 44-46 58-74s21-58 21-90v-117h-542v117z m271-477c-55 0-100 45-100 100s45 100 100 100c55 0 100-45 100-100s-45-100-100-100z" horiz-adv-x="1000" />

<glyph glyph-name="signal-no" unicode="&#xe802;" d="M143-79q0-29-21-50t-51-21-50 21-21 50 21 51 50 21 51-21 21-51z m857 0q0-29-21-50t-50-21-51 21-21 50 21 51 51 21 50-21 21-51z m-286 0q0-29-21-50t-50-21q-30 0-51 21t-21 50 21 51 51 21q30 0 50-21t21-51z m-285 0q0-29-21-50t-51-21q-30 0-50 21t-21 50 21 51 50 21q30 0 51-21t21-51z m276 666q-15 16-37 16t-38-16l-126-126-127 126q-16 16-38 16t-37-16-16-37 16-38l126-127-126-126q-16-15-16-37t16-38q15-17 37-17t38 17l127 126 126-126q16-17 38-17t37 17q16 16 16 38t-16 37l-126 126 126 127q16 16 16 38t-16 37z" horiz-adv-x="1000" />

<glyph glyph-name="signal-low" unicode="&#xe803;" d="M71 168q-29 0-50-21t-21-51v-175q0-29 21-50t50-21 51 21 21 50v175q0 30-21 51t-51 21v0z m929-247q0-29-21-50t-50-21-51 21-21 50 21 51 51 21 50-21 21-51z m-286 0q0-29-21-50t-50-21q-30 0-51 21t-21 50 21 51 51 21q30 0 50-21t21-51z m-285 0q0-29-21-50t-51-21q-30 0-50 21t-21 50 21 51 50 21q30 0 51-21t21-51z" horiz-adv-x="1000" />

<glyph glyph-name="signal-medium" unicode="&#xe804;" d="M71 171q-29 0-50-21t-21-50v-175q0-29 21-50t50-21 51 21 21 50v175q0 29-21 50t-51 21z m286 179q-30 0-50-21t-21-50v-354q0-29 21-50t50-21q30 0 51 21t21 50v354q0 29-21 50t-51 21z m643-425q0-30-21-51t-50-20-51 20-21 51q0 29 21 50t51 21 50-21 21-50z m-286 0q0-30-21-51t-50-20q-30 0-51 20t-21 51q0 29 21 50t51 21q30 0 50-21t21-50z" horiz-adv-x="1000" />

<glyph glyph-name="signal-high" unicode="&#xe805;" d="M71 168q-29 0-50-21t-21-51v-175q0-29 21-50t50-21 51 21 21 50v175q0 30-21 51t-51 21v0z m572 428q-30 0-51-21t-21-50v-604q0-29 21-50t51-21q30 0 50 21t21 50v604q0 29-21 50t-50 21v0z m-286-250q-30 0-50-21t-21-50v-354q0-29 21-50t50-21q30 0 51 21t21 50v354q0 29-21 50t-51 21v0z m643-425q0-29-21-50t-50-21-51 21-21 50 21 51 51 21 50-21 21-51z" horiz-adv-x="1000" />

<glyph glyph-name="signal-perfect" unicode="&#xe806;" d="M71 169q-29 0-50-21t-21-50v-175q0-29 21-50t50-21 51 21 21 50v175q0 29-21 50t-51 21z m572 429q-30 0-51-21t-21-50v-604q0-29 21-50t51-21q30 0 50 21t21 50v604q0 29-21 50t-50 21z m-286-250q-30 0-50-21t-21-50v-354q0-29 21-50t50-21q30 0 51 21t21 50v354q0 29-21 50t-51 21z m572 500q-30 0-51-21t-21-50v-854q0-29 21-50t51-21 50 21 21 50v854q0 29-21 50t-50 21v0z" horiz-adv-x="1000" />

<glyph glyph-name="mic" unicode="&#xe807;" d="M779 376h89c0-180-143-328-316-353v-173h-104v173c-173 25-316 173-316 353h89c0-158 133-267 279-267s279 109 279 267z m-279-158c-86 0-158 72-158 158v316c0 86 72 158 158 158s158-72 158-158v-316c0-86-72-158-158-158z" horiz-adv-x="1000" />

<glyph glyph-name="mic-off" unicode="&#xe808;" d="M93 798l881-881-67-67-219 220c-40-25-89-40-136-47v-173h-104v173c-173 25-316 173-316 353h89c0-158 133-267 279-267 42 0 84 10 121 27l-86 87c-10-3-23-5-35-5-86 0-158 72-158 158v39l-316 317z m565-429l-316 313v10c0 86 72 158 158 158s158-72 158-158v-323z m210 7c0-62-17-121-47-173l-64 67c15 32 22 66 22 106h89z" horiz-adv-x="1000" />

<glyph glyph-name="dragdable-handle" unicode="&#xe809;" d="M306 850h111v-167h-111v167z m277 0h111v-167h-111v167z m-277-277h111v-167h-111v167z m277 0h111v-167h-111v167z m-277-279h111v-167h-111v167z m277 0h111v-167h-111v167z m-277-277h111v-167h-111v167z m277 0h111v-167h-111v167z" horiz-adv-x="1000" />

<glyph glyph-name="info" unicode="&#xe80a;" d="M500-150q-103 0-194 40t-159 107-107 159-40 194 40 194 107 159 159 107 194 40 194-40 159-107 107-159 40-194-40-194-107-159-159-107-194-40z m0 941q-91 0-171-34t-141-95-95-141-34-171 34-171 95-141 141-95 171-34 171 34 141 95 95 141 34 171-34 171-95 141-141 95-171 34v0z m137-192q0-25-19-44t-44-18q-26 0-45 18t-18 44q0 26 18 45t45 19q26 0 44-19t19-45z m-56-154l-11 8t-59-18l-65-37t-54-63l4-1t11 1l27 17t39 13l3-5t-3-21q-4-8-22-50t-36-89-35-85l-16-38 1-17t34-22l69 22t131 114l-1 11t-15 1-39-33-48-28l-11 2t6 37l16 38t34 84 34 86 16 42q1 4 0 13t-10 18z" horiz-adv-x="1000" />

<glyph glyph-name="chart-area2" unicode="&#xe80b;" d="M834 640q-19-25-40-33t-46 10l-104 85q-31 27-53 25t-46-36l-113-193q-21-29-62-89t-65-53l-81 34q-29 13-53-7t-37-49l-115-265h950v781l-135-210z m107-790h-882q-25 0-42 18t-17 42q0 25 17 42t42 18h882q25 0 42-18t17-42q0-25-17-42t-42-18z" horiz-adv-x="1000" />

<glyph glyph-name="chart-column" unicode="&#xe80c;" d="M942-135h-875q-24 0-41 17t-16 40q0 25 16 42t41 17h875q24 0 41-17t17-42q0-23-17-40t-41-17z m-872 413q-29 0-49-21t-21-50v-49q0-30 21-51t49-21 51 21 21 51v49q0 30-21 50t-51 21z m567 309q-30 0-50-20t-21-50v-359q0-30 21-51t50-21 50 21 21 51v359q0 29-21 50t-50 20z m-283-132q-30 0-50-21t-21-50v-226q0-30 21-51t50-21 50 21 21 51v226q0 30-21 50t-50 21z m566 380q-29 0-50-21t-20-50v-606q0-30 20-51t50-21 50 21 20 51v606q0 29-20 50t-50 21z" horiz-adv-x="1000" />

<glyph glyph-name="chart-bubble" unicode="&#xe80d;" d="M833 656q0-58-40-98t-99-41-98 41-40 98 40 98 98 40 99-40 40-98z m-444-341q0-40-15-75t-42-62-62-42-76-15-75 15-62 42-42 62-15 75q0 41 15 76t42 62 62 42 75 15 76-15 62-42 42-62 15-76z m611-156q0-52-20-99t-54-80-81-54-99-20q-52 0-98 20t-81 54-54 80-20 99q0 52 20 99t54 80 81 55 98 20q53 0 99-20t81-55 54-80 20-99v0z" horiz-adv-x="1000" />

<glyph glyph-name="chart-lines" unicode="&#xe80e;" d="M941-150h-882q-25 0-42 17t-17 40 17 39 42 16h882q25 0 42-16t17-39-17-40-42-17z m-892 195l-48 41 406 440 253-295 293 327 48-40-342-382-254 296z m296 36l-342 317 44 44 294-273 612 684 48-40z" horiz-adv-x="1000" />

<glyph glyph-name="chart-bubbles" unicode="&#xe80f;" d="M747 507q0-44-31-74t-74-31q-43 0-74 31t-31 74 31 75 74 32q44 0 74-32t31-75v0z m249-130q0-43-31-74t-73-31q-44 0-75 31t-31 74q0 44 31 76t75 31q43 0 73-31t31-76z m-165-388q0-44-31-75t-74-31q-43 0-74 31t-31 75 31 74 74 31q44 0 74-31t31-74z m-221 278q0-44-30-75t-75-31q-43 0-74 31t-31 75 31 75 74 31q44 0 75-31t30-75z m-165 444q0-44-31-74t-74-31q-44 0-75 31t-31 74 31 75 75 31q43 0 74-31t31-75z m-200-506q43-6 69-41t19-80q-6-43-41-69t-78-20q-43 6-69 42t-20 79q7 43 42 69t78 20v0z m-31 178q0-44-31-74t-75-31q-43 0-73 31t-31 74 31 75 73 31q44 0 75-31t31-75v0z" horiz-adv-x="1000" />

<glyph glyph-name="tree" unicode="&#xe810;" d="M125 725q0-26-19-44t-43-18v0q-26 0-44 18t-19 44v0q0 26 19 44t44 19v0q25 0 43-19t19-44v0z m250-250q0-26-19-44t-43-18v0q-26 0-44 18t-19 44v0q0 26 19 44t44 19v0q25 0 43-19t19-44v0z m0-250q0-26-19-44t-43-18v0q-26 0-44 18t-19 44v0q0 25 19 44t44 19v0q25 0 43-19t19-44v0z m0-250q0-26-19-44t-43-19v0q-26 0-44 19t-19 44v0q0 25 19 44t44 19v0q25 0 43-19t19-44v0z m625 500q0-26-19-44t-43-18h-375q-26 0-44 18t-19 44v0q0 26 19 44t44 19h375q25 0 43-19t19-44v0z m0 250q0-26-19-44t-43-18h-625q-26 0-44 18t-19 44v0q0 26 19 44t44 19h625q25 0 43-19t19-44v0z m0-500q0-26-19-44t-43-18h-375q-26 0-44 18t-19 44v0q0 25 19 44t44 19h375q25 0 43-19t19-44v0z m0-250q0-26-19-44t-43-19h-375q-26 0-44 19t-19 44v0q0 25 19 44t44 19h375q25 0 43-19t19-44v0z" horiz-adv-x="1000" />

<glyph glyph-name="item-list" unicode="&#xe811;" d="M99 399v-98h101v98h-101z m-99-150v202h1000v-202h-1000z m200 352v99h-101v-99h101z m-200 150h1000v-201h-1000v201z m99-652v-99h101v99h-101z m-99-150v202h1000v-202h-1000z" horiz-adv-x="1000" />

<glyph glyph-name="device-hub" unicode="&#xe812;" d="M779 129h221v-279h-279v169l-221 235-221-235v-169h-279v279h221l224 221v177c-65 24-112 83-112 156 0 92 76 167 167 167s167-75 167-167c0-73-47-132-112-156v-177z" horiz-adv-x="1000" />

<glyph glyph-name="grid" unicode="&#xe813;" d="M749-150v252h251v-252h-251z m0 374v252h251v-252h-251z m-375 375v251h252v-251h-252z m375 251h251v-251h-251v251z m-375-626v252h252v-252h-252z m-374 0v252h252v-252h-252z m0-374v252h252v-252h-252z m374 0v252h252v-252h-252z m-374 749v251h252v-251h-252z" horiz-adv-x="1000" />

<glyph glyph-name="cloud-stack" unicode="&#xe814;" d="M307 540q13 66 61 114t113 61q-18 20-45 29t-61 9q-70 0-120-49t-49-120v0q-47-4-79-41t-33-84 28-81 66-44v32q0 56 31 104t88 70z m581-305q-29-33-69-51t-82-19h-362q-52 0-96 26t-73 68h-37l-169-62v-63l500-187 500 187v70l-112 31z m-157-7h-356q-52 0-91 38t-40 94q0 51 33 85t79 40v0q0 70 50 122t119 53q66 0 113-42t55-102q10 0 17 3t15 3q61 0 103-42t41-102q0-61-38-106t-100-44z" horiz-adv-x="1000" />

<glyph glyph-name="more" unicode="&#xe815;" d="M214 350q0-45-31-76t-76-31-76 31-31 76 31 76 76 31 76-31 31-76z m786 0q0-45-31-76t-76-31-76 31-31 76 31 76 76 31 76-31 31-76z m-393 0q0-45-31-76t-76-31-76 31-31 76 31 76 76 31 76-31 31-76z" horiz-adv-x="1000" />

<glyph glyph-name="unlocked" unicode="&#xe816;" d="M228 407h772v-483c0-20-9-37-26-52s-39-22-65-22h-818c-25 0-47 7-65 22s-26 32-26 52v483h91v107c0 47 11 90 33 131s51 76 88 107c37 30 80 54 130 72s103 26 159 26c41 0 80-5 118-14s74-23 106-40c33-18 63-38 89-63s47-52 64-82c7-14 7-28 0-43s-18-24-35-30c-18-6-35-7-53-1s-30 15-37 28c-22 41-56 73-102 97s-95 37-150 37c-37 0-73-6-106-18s-62-28-87-48c-25-20-44-44-59-71s-21-57-21-88v-107z m272-382c55 0 100 45 100 100s-45 100-100 100c-55 0-100-45-100-100s45-100 100-100z" horiz-adv-x="1000" />

<glyph glyph-name="bullet-list" unicode="&#xe817;" d="M250 663q0-52-37-89t-88-36-88 36-37 89 37 88 88 37 88-37 37-88z m0-313q0-52-37-88t-88-37-88 37-37 88 37 88 88 37 88-37 37-88z m0-312q0-52-37-89t-88-37-88 37-37 89 37 88 88 37 88-37 37-88z m188 562h500q25 0 43 19t19 44-19 43-43 19h-500q-26 0-44-19t-19-43 19-44 44-19z m500-187h-500q-26 0-44-19t-19-44 19-44 44-18h500q25 0 43 18t19 44-19 44-43 19z m0-313h-500q-26 0-44-19t-19-43 19-44 44-19h500q25 0 43 19t19 44-19 43-43 19z" horiz-adv-x="1000" />

<glyph glyph-name="close-thin" unicode="&#xe818;" d="M1000 806l-44 44-456-456-456 456-44-44 456-456-456-456 44-44 456 456 456-456 44 44-456 456z" horiz-adv-x="1000" />

<glyph glyph-name="share" unicode="&#xe819;" d="M667 850c-92 0-167-75-167-167 0-23 5-45 14-65l-238-170c-30 26-68 41-109 41-92 0-167-75-167-167s75-166 167-166c45 0 85 17 115 46l390-146c-3-13-5-26-5-39 0-92 75-167 166-167s167 75 167 167c0 91-75 166-167 166-58 0-109-30-139-76l-378 142c11 22 17 47 17 73 0 31-8 59-22 83l233 166c30-33 74-54 123-54 91 0 166 75 166 166s-75 167-166 167z" horiz-adv-x="1000" />

<glyph glyph-name="topo" unicode="&#xe81a;" d="M600 850c-61 0-111-50-111-111 0-43 25-80 61-99l-44-176c-16 5-33 8-50 8-39 0-75-13-103-35l-171 144c11 17 18 37 18 58 0 55-45 100-100 100s-100-45-100-100c0-55 45-100 100-100 17 0 34 5 48 12l174-146c-21-28-33-62-33-99 0-38 13-73 34-101l-113-113c-21 15-48 25-77 25-73 0-133-60-133-134s60-133 133-133c74 0 134 60 134 133 0 29-10 56-25 77l113 113c28-21 63-34 101-34 55 0 104 28 135 70l167-79c-2-8-2-16-2-24 0-68 55-123 122-123s122 55 122 123c0 67-55 122-122 122-44 0-82-23-104-58l-162 78c6 18 10 37 10 58 0 16-2 31-7 46l166 110c18-21 45-34 75-34 55 0 100 45 100 100s-45 100-100 100c-55 0-100-45-100-100 0-9 1-18 3-26l-162-109c-13 21-30 39-50 52l45 183c3 0 6 0 8 0 61 0 111 50 111 111-2 74-58 108-111 111z" horiz-adv-x="1000" />

<glyph glyph-name="world-net" unicode="&#xe81b;" d="M413 753c-28 27-55 50-77 69 145 51 306 32 436-52-78-2-155-15-229-38-14 21-36 34-61 38s-49-2-69-17v0z m-128-357c63-60 138-109 219-142 58-23 119-37 181-41 4 18 14 36 28 49-53 120-123 233-207 334-37-17-80-7-107 24-19-13-37-27-54-42-26-23-50-48-71-75 27-29 31-72 11-106v0-1z m538 335c-90 3-179-9-265-35 5-28-3-56-22-77 86-102 156-216 210-338v0c9 3 19 5 28 5 23 0 45-9 61-24v0c53 32 108 60 165 85 0 0 0 1 0 2 1 148-64 288-177 383l0-1z m-110-604c-129-109-187-215-212-277 108 0 213 35 299 99-7 52-18 104-32 154-20 2-40 10-55 25l0-1z m-15 33v0c-2 5-5 10-8 14-68 5-135 20-198 45-86 35-165 86-232 149v0c-22-16-50-21-76-13-44-98-71-203-80-311 88-112 219-181 360-192 24 66 76 186 234 308z m163 65c3-10 5-20 5-30 0-3 0-6 0-9-3-35-27-64-59-76 11-44 21-88 27-132 94 84 153 201 164 326-48-21-94-46-139-73 1-2 1-4 2-6v0z m-747 217c1 23 9 45 24 61v0c-24 33-47 67-67 103-95-158-95-355 0-513 11 97 37 191 77 280-21 17-34 43-34 70v-1z m56 84c23 10 49 10 72 0 23 29 49 56 77 81 20 17 40 33 62 47-8 23-5 48 7 69-36 34-67 62-93 83-80-36-149-93-200-164 22-39 47-77 75-114v0-2z" horiz-adv-x="1000" />

<glyph glyph-name="laptop" unicode="&#xe81c;" d="M915 133h-834l-81-145h1000l-85 145z m-281-83h-272c-12 0-20 9-20 21s8 20 20 20h272c12 0 20-8 20-20s-8-21-20-21z m-442 561h612v-358h-612v358z m713 41c0 34-26 60-61 60h-692c-35 0-61-26-61-60v-480h814v480z m-61-417c0-12-8-21-20-21h-652c-12 0-20 9-20 21v396c0 13 8 21 20 21h652c12 0 20-8 20-21v-396z" horiz-adv-x="1000" />

<glyph glyph-name="monitor" unicode="&#xe81d;" d="M48 779c-27 0-48-20-48-45v-578c0-24 21-44 48-44h904c27 0 48 20 48 44v578c0 25-21 45-48 45h-904z m344-691c-1-36-7-69-20-95h256c-13 26-19 59-20 95h-216z m-118-119c-13 0-24-11-24-24s11-24 24-24h452c13 0 24 11 24 24s-11 24-24 24h-452z" horiz-adv-x="1000" />

<glyph glyph-name="monitoring" unicode="&#xe81e;" d="M48 779c-27 0-48-20-48-45v-578c0-24 21-44 48-44h904c27 0 48 20 48 44v578c0 25-21 45-48 45h-904z m346-143c8 0 16-6 21-16l98-276 96 230c4 8 12 14 22 14 9 0 18-5 22-14l53-117h223c13 0 23-10 23-24s-10-23-23-23h-238c-10 0-18 5-22 14l-37 81-98-235c-4-9-13-15-22-15-10 0-19 5-22 16l-99 276-48-111c-3-9-12-15-22-15h-250c-13 0-23 11-23 24s10 24 23 24h234l66 153c6 9 15 14 23 14v0z m-2-548c-1-36-7-69-20-95h256c-13 26-19 59-20 95h-216z m-118-119c-13 0-24-11-24-24s11-24 24-24h452c13 0 24 11 24 24s-11 24-24 24h-452z" horiz-adv-x="1000" />

<glyph glyph-name="app-issue" unicode="&#xe849;" d="M782 503l40-20-22-11-18 31z m-204-144l-167-84-411 208 82 41 329-166 235 119-68-118z m-123-211l-44-22-411 207 82 42 329-166 112 56-68-117z m-44 277l-411 212 411 211 411-211-411-212z m356-83l219-408c12-23 14-43 6-59s-24-23-48-23h-443c-23 0-39 7-47 23s-7 36 6 59l219 408c6 11 12 19 20 25s16 8 24 8c8 0 15-3 23-8s15-14 21-25z m-5-241c3 25 5 49 7 75s2 44 2 56c0 12-4 22-14 30s-21 13-35 13c-13 0-25-4-34-13s-15-18-15-30c0-12 1-31 3-56s4-50 6-75c3-24 8-44 15-61s16-25 25-25c8 0 16 9 24 25s14 37 16 61z m-43-206c12 0 23 5 32 16s14 22 14 37c0 14-4 27-14 37s-20 16-32 16c-13 0-24-5-33-16s-13-23-13-37c0-15 4-27 13-37s20-16 33-16z" horiz-adv-x="1000" />

<glyph glyph-name="app-add" unicode="&#xe850;" d="M812 490c-28 7-57 10-87 10-12 0-24-1-35-2l52 27 70-35z m-425-202l-387 195 83 42 330-167 33 17c-24-26-43-55-59-87z m-36-132l-351 177 83 42 283-143c-8-24-13-50-15-76z m62 269l-413 213 413 212 412-212-412-213z m312-25c38 0 74-7 107-21s63-34 88-59c25-25 44-54 59-88s21-69 21-107c0-38-7-74-21-107s-34-63-59-88c-25-25-54-44-88-59s-69-21-107-21c-38 0-74 7-107 21s-63 34-88 59c-25 25-44 54-58 88s-22 69-22 107c0 38 7 74 22 107s33 63 58 88c25 25 54 44 88 59s69 21 107 21z m138-308c11 0 21 5 30 13s13 19 13 30c0 10-5 19-13 28s-19 13-30 13h-105v107c0 10-4 20-13 29s-19 13-30 13c-10 0-20-4-29-13s-13-19-13-29v-107h-105c-11 0-21-4-30-13s-13-18-13-28c0-11 4-21 13-30s19-13 30-13h105v-106c0-10 4-20 13-29s19-13 29-13c11 0 21 5 30 13s13 19 13 29v106h105z" horiz-adv-x="1000" />

<glyph glyph-name="app-remove" unicode="&#xe851;" d="M812 490c-28 7-57 10-87 10-12 0-24-1-35-2l52 27 70-35z m-425-202l-387 195 83 42 330-167 33 17c-24-26-43-55-59-87z m-36-132l-351 177 83 42 283-143c-8-24-13-50-15-76z m62 269l-413 213 413 212 412-212-412-213z m312-25c-38 0-74-7-107-21s-63-34-88-59c-25-25-44-54-58-88s-22-69-22-107c0-38 7-74 22-107s33-63 58-88c25-25 54-44 88-59s69-21 107-21c38 0 74 7 107 21s63 34 88 59c25 25 44 54 59 88s21 69 21 107c0 38-7 74-21 107s-34 63-59 88c-25 25-54 44-88 59s-69 21-107 21z m-176-322c-12 0-24 5-34 16s-15 21-15 33c0 12 5 23 15 33s22 15 34 15h340c12 0 23-5 33-15s16-21 16-33c0-12-5-23-16-33s-21-16-33-16h-340z" horiz-adv-x="1000" />

<glyph glyph-name="announcement" unicode="&#xe85a;" d="M541 225v84h-82v-84h82z m0 166v250h-82v-250h82z m293 375c45 0 82-37 82-82v-500c0-45-37-84-82-84h-584l-166-166v750c0 45 37 82 82 82h668z" horiz-adv-x="1000" />

<glyph glyph-name="reload" unicode="&#xe86a;" d="M956 512c85-151 45-324-102-440-95-75-221-115-350-115-66 0-132 10-196 31l20-77c7-27-15-54-50-60-4-1-9-1-13-1-30 0-57 16-63 40l-44 168c-5 19 4 39 23 51l170 105c28 17 69 13 91-9 22-22 17-54-11-71l-67-42c135-44 286-21 389 60 105 83 133 206 72 314-16 29 0 62 36 75 37 13 79 0 95-29z m-781-274c16-29 0-62-36-75-10-3-20-5-29-5-28 0-54 13-66 34-85 151-45 324 102 440 147 116 366 147 557 80 1 0 1 0 2-1l-21 78c-7 27 15 54 50 60 35 6 69-12 76-39l45-168c5-19-4-39-24-51l-170-105c-12-7-26-11-39-11-20 0-38 7-51 20-22 22-17 54 11 71l67 42c-2 0-3 0-4 1-137 48-293 26-398-57-105-83-133-206-72-314z" horiz-adv-x="1000" />

<glyph glyph-name="shopping-cart" unicode="&#xe8cc;" d="M801 50c54 0 98-47 98-101s-44-98-98-98-101 45-101 98 47 101 101 101z m-801 799h164l47-98h740c28 0 49-24 49-52 0-9-2-16-7-23l-178-324c-16-30-49-51-87-51h-372l-44-82-3-7c0-7 5-12 12-12h578v-101h-599c-54 0-99 47-99 101 0 17 5 33 12 47l68 124-180 380h-101v98z m300-799c54 0 101-47 101-101s-47-98-101-98-99 45-99 98 45 101 99 101z" horiz-adv-x="1000" />

<glyph glyph-name="list" unicode="&#xe8ee;" d="M0 800h1000v-135h-1000v135z m0-382v135h1000v-135l-1000 0z m0-518v135h1000v-135h-1000z m0 248v135h1000v-135h-1000z" horiz-adv-x="1000" />

<glyph glyph-name="pin" unicode="&#xe900;" d="M233 80l-107-166 11-54 54 12 108 165c-12 7-23 13-34 20-11 8-22 15-32 23z m455 58c1 2 1 3 2 5 3 6 5 12 7 18 0 1 0 2 1 3 2 7 4 14 5 21 0 1 0 1 0 1 10 60-8 126-47 187l56 87c66-8 122 8 149 50 47 73-10 194-128 270-117 77-251 80-298 8-27-42-19-101 15-157l-57-88c-70 12-138 1-189-32 0 0 0-1 0-1-6-4-12-8-17-13-1 0-2-1-3-2-5-4-9-9-14-14-1-1-2-2-3-3-6-6-11-13-15-20-71-109-10-274 134-368 145-94 320-82 390 27 5 7 9 14 12 21z m-41 508c-46 30-68 76-50 104 18 28 70 27 115-3 45-29 67-76 49-103s-69-27-114 2z" horiz-adv-x="1000" />

<glyph glyph-name="archive" unicode="&#xe901;" d="M700 751h-400c0 0-50 0-50-50h500c0 50-50 50-50 50z m149-150c0 50-49 50-49 50h-599c0 0-50 0-50-50v-50h699v50z m100-50c-29 29-29 29-29 29v-79h-840v79c0 0 0 0-29-29s-51-38-39-101c12-62 69-405 78-451 9-51 61-50 61-50h699c0 0 51-1 61 50 8 46 65 389 77 451 12 63-9 71-39 101z m-248-301c0-28-23-50-51-50h-300c-28 0-51 22-51 50v100h51v-100h300v100h51v-100z" horiz-adv-x="1000" />

<glyph glyph-name="ethernet" unicode="&#xe902;" d="M94-49h812c52 0 94 43 94 95v608c0 52-42 95-94 95h-812c-52 0-94-43-94-95v-608c0-52 42-95 94-95z m495 264v-76c0-7-7-13-13-13h-1c-8 0-13 7-13 13v76c0 8 6 13 13 13h1c6 1 13-5 13-13z m-75 0v-76c0-7-6-13-13-13h-1c-8 0-13 7-13 13v76c0 8 7 13 13 13h1c7 1 13-5 13-13z m-75 0v-76c0-7-6-13-13-13h-1c-7 0-13 7-13 13v76c0 8 7 13 13 13 8 1 14-5 14-13z m-388 439c0 24 20 44 43 44h278v-42c0-5-4-10-11-10h-74c-5 0-10-5-10-11v-41c0-6-5-11-11-11h-153c-6 0-11-5-11-11v-493c0-5 4-10 11-10h772c6 0 11 4 11 10v495c0 5-4 11-11 11h-153c-5 0-11 4-11 11v41c0 5-4 11-11 11h-73c-6 0-11 4-11 11v41h280c24 0 43-20 43-44v-610c0-24-19-44-43-44h-812c-23 0-43 20-43 44v608z m313-439v-76c0-7-6-13-13-13h-2c-7 0-13 7-13 13v76c0 8 7 13 13 13h1c8 1 14-5 14-13z m-74 0v-76c0-7-7-13-13-13h-1c-8 0-13 7-13 13v76c0 8 6 13 13 13h1c6 1 13-5 13-13z m346-76v76c0 8 6 13 13 13h1c7 0 13-6 13-13v-76c0-7-7-13-13-13h-1c-8 0-13 7-13 13z m74 0v76c0 8 7 13 13 13h2c7 0 13-6 13-13v-76c0-7-7-13-13-13h-2c-7 0-13 7-13 13z" horiz-adv-x="1000" />

<glyph glyph-name="kill" unicode="&#xe903;" d="M518 475h-36v-107h-107v-36h107v-107h36v107h107v36h-107z m1 300v75h-37v-75c-221-9-397-186-407-406h-75v-37h75c10-221 186-398 407-407v-75h37v75c220 9 397 186 406 407h75v37h-75c-9 220-186 397-406 406z m369-443c-9-200-170-361-369-370v73h-37v-73c-200 9-360 170-370 370h73v37h-73c10 199 170 360 370 369v-73h37v73c199-9 360-170 369-369h-73v-37h73z" horiz-adv-x="1000" />

<glyph glyph-name="home" unicode="&#xe904;" d="M500 426c25 0 45 17 45 38s-20 39-45 39c-25 0-45-18-45-39s20-38 45-38z m451-419h-324c-13 32-44 58-82 70v44h270c25 0 45 17 45 38v290l59-50c9-7 20-11 32-11s23 4 31 11c18 15 18 39 0 54l-450 381c-18 15-46 15-64 0l-450-381c-18-15-18-39 0-54 8-7 20-11 31-11s24 4 32 11l59 50v-290c0-21 20-38 45-38h270v-44c-38-12-69-38-82-70h-324c-24 0-45-17-45-38s21-38 45-38h324c18-45 68-77 127-77s109 32 127 77h324c24 0 45 17 45 38s-21 38-45 38z m-586 457c0 63 61 115 135 115s135-52 135-115c0-49-37-92-90-107v-83c0-21-20-38-45-38s-45 17-45 38v83c-52 15-90 58-90 107z" horiz-adv-x="1000" />

<glyph glyph-name="topo-home" unicode="&#xe905;" d="M675 850l325-515h-105l-276 446 56 69z m-51-9l-439-543h-116l407 490 148 53z m-27-88l273-443v-219c-167-1-360-19-516-86v274c0 10-8 19-16 19h-109l368 455z m-52-249c-8-2-14-10-14-19v-263c0-9 8-18 17-18h161c8 0 16 9 16 18v263c0 10-8 19-16 19-55 0-110 0-164 0v0z m19-38h48v-93h-48v93z m80 0h49v-93h-49v93z m-80-131h48v-94h-48v94z m80 0h49v-94h-49v94z m-435-75h113v-252l-113 58v194z m749-235c-357 25-489-24-779-175l-179 119c77 36 106 48 190 65l141-73c4-2 9-2 13 0 158 74 366 93 543 93 0 0 48-18 71-29z" horiz-adv-x="1000" />

<glyph glyph-name="quarantine" unicode="&#xe906;" d="M641 847c-19-6-29-22-29-42 0-16 6-29 17-37l8-6v-90c0-50 0-90-1-90s-3 1-6 4c-9 6-32 17-48 23l-15 6v80c0 84-1 90-9 93-7 3-15 1-19-3s-4-6-4-83c-1-77-1-79-5-78-2 0-18 1-35 2-36 1-34-1-32 30l0 20 8 5c15 10 24 31 19 48-10 39-57 48-78 15-4-5-7-13-8-18-2-16 7-38 20-45 5-2 5-2 5-32 0-21-1-29-3-29-15-4-41-14-52-19-8-4-15-7-16-7s0 34 0 76v77l-19 20c-15 16-18 20-17 23 8 21-9 51-31 56-13 4-24 1-35-6-31-22-22-72 15-81 6-1 12-1 17 0l9 2 27-30 0-79v-80l-25-26-25-25-80 0c-83 0-88-1-91-9-3-8-2-16 3-21l5-5h140l-7-15c-4-8-9-20-12-28l-4-13-73 0c-45-1-73 0-73 1 0 4-11 15-19 19-6 3-10 4-22 3-12 0-16-1-23-7-23-16-24-53-2-71 21-18 50-13 65 12l5 8h134l-1-5c-1-3-2-16-3-29l-1-25h-79l-5-6c-7-7-8-14-2-22l4-5 43 0 42-1 4-16c2-9 5-22 7-28l4-12h-42c-25 0-44-1-48-2-3-1-17-14-31-29l-25-26-9 2c-26 7-52-16-52-44 0-34 34-55 64-39 16 8 25 26 22 46l-1 11 45 46h93l7-13c10-19 27-40 48-60l18-18v-183l-7-4c-11-7-20-24-20-38 0-34 37-56 65-39 14 8 20 19 21 36 1 18-4 30-17 39l-8 6v80c0 69 0 80 2 80 2 0 4 0 4-1 2-3 29-14 47-19l17-6 2-151 5-5c7-6 14-6 20 0l5 5v145h28c15 0 31 1 36 1l9 2v-45l-6-3c-14-6-26-29-23-46 5-24 21-38 44-38 25 0 43 18 43 44 0 15-7 29-18 37l-6 4v53l21 9c12 5 28 12 35 17 7 4 13 8 14 8 0 0 1-35 1-78v-78l18-19c15-16 18-20 17-24-8-21 8-50 31-56 18-4 36 3 47 19 8 11 9 31 3 44-9 18-31 30-47 25-7-2-8-2-22 12l-14 15v166l16 18c9 10 23 27 30 39l13 20h140l4 5c2 3 4 7 4 11 0 19-2 19-74 19h-59l4 14c2 7 6 20 7 28l3 14 150 1 5-10c8-12 20-19 36-19 21 0 35 12 42 32 3 13 1 25-6 37-17 25-54 26-71 1l-6-8h-147l-1 26c0 14-1 27-1 28-1 3 5 4 43 4l45 1 6-10c18-26 57-24 72 3 14 23 5 53-17 64-11 5-29 5-39 0-7-4-20-17-20-21 0-1-19-2-50-2h-50l-4 13c-2 7-8 19-11 26-4 8-7 15-7 16s15 2 44 2c31 0 45 1 47 3 9 7 9 20 0 28-4 4-7 4-60 4h-55l-15 17-16 16 0 104v105l6 3c8 4 17 16 19 25 5 18 2 32-11 45-13 13-28 17-44 12z m-100-279c60-17 107-53 138-107 50-86 38-198-30-273-25-28-68-55-103-64-77-21-158 1-214 59-34 34-55 77-63 124-4 21-3 62 1 82 19 93 86 162 176 182 20 4 75 2 95-3z m44-93c-1 3-4 5-8 4-33-14-47-20-52-38-10 6-33 9-45 9-12 0-35-3-45-9-5 18-19 24-52 38-4 1-7-1-8-4-2-3 0-7 3-8 32-14 43-18 46-33-9-7-16-15-23-25 15-11 51-24 79-24 28 0 64 13 79 24-7 10-14 18-23 25 3 15 14 19 46 33 3 1 5 5 3 8z m-255-154c0-7 6-13 13-13h39c1-6 3-11 4-17l-37-23c-6-4-8-12-4-18 2-4 6-6 10-6 3 0 5 0 7 2l33 20c15-35 55-45 85-45 30 0 70 10 85 45l33-20c2-2 4-2 7-2 4 0 8 2 10 6 4 6 2 14-4 18l-37 23c1 6 3 11 4 17h39c7 0 12 6 12 13 0 7-5 13-12 13h-37c0 7-1 14-2 20l31 19c6 3 8 11 5 17-4 7-11 9-17 5l-25-15c-2 6-4 12-7 18-16-12-54-25-85-25-31 0-69 13-85 25-3-6-5-12-7-18l-25 15c-6 4-13 2-17-5-3-6-1-14 5-17l31-19c-1-6-2-13-2-20h-37c-7 0-13-6-13-13z" horiz-adv-x="1000" />

<glyph glyph-name="remediate" unicode="&#xe907;" d="M665 41c-28-15-57-27-89-36l-15-89c-3-17-18-29-34-29h-90c-17 0-31 12-34 29l-15 89c-34 9-66 22-95 39l-74-53c-14-10-33-8-45 4l-63 63c-12 12-13 31-3 44l52 74c-18 29-32 62-41 96l-90 16c-17 3-29 17-29 34v90c0 17 12 31 29 34l89 15c8 34 22 67 39 97l-53 74c-10 14-8 33 4 45l63 63c12 12 30 13 44 3l73-53c30 18 62 32 96 41l16 90c3 17 17 29 34 29h90c17 0 31-12 34-29l15-89c36-8 69-22 99-40l75 53c13 9 32 8 44-4l63-63c12-12 13-31 4-44l-53-75c18-30 31-62 40-97l90-15c16-2 28-17 29-33v-90c0-17-12-31-29-34l-90-15c-8-31-19-60-34-87l-98 90c11 28 17 59 17 91 0 137-111 248-248 248s-249-111-249-248c0-138 112-249 249-249 32 0 62 6 90 17l93-96z m-34 256c-24 27-30 37-24 68 8 34 8 75-34 112-6 5-22 15-22 17-65 38-134 3-134 3l-5-8c0 0 60-39 67-44 8-5 34-34 3-79-30-46-62-31-72-23-7 4-67 42-67 42l-5-8c0 0-4-80 61-122 31-20 64-20 87-12 24 7 41-1 69-29l334-342c26-27 69-27 96-1 27 28 28 70 1 96l-355 330z m331-403c-14-14-36-12-51 1-13 13-13 36 0 50 15 14 37 14 51 0 14-14 14-38 0-51z" horiz-adv-x="1000" />

<glyph glyph-name="rollback" unicode="&#xe908;" d="M193 750h307c276 0 500-202 500-450 0-248-224-450-500-450s-500 202-500 451c0 20 19 37 42 37s42-17 42-37c0-207 186-376 416-376s417 169 417 376c0 206-187 374-417 374h-278l46-39c16-14 4-36-18-36h-54c-7 0-13 2-17 6l-122 104c-9 8-9 21 0 30l122 104c4 4 10 6 17 6h54c22 0 34-22 18-36l-75-64z m506-396l0-55c-1-8-3-15-8-20s-13-9-20-10l-117-7 0-117c0-7-3-15-8-20s-12-9-20-10l-54-4c-8 0-15 2-20 7s-8 12-8 19l1 117-117-9c-7 0-14 2-19 7s-8 12-8 19l0 55c0 7 3 14 8 20s12 9 19 9l119 7 0 118c0 7 3 14 8 20s12 8 19 9l55 4c7 1 15-2 20-7s8-11 8-18l-1-118 117 9c7 1 14-2 19-6s7-12 7-19z" horiz-adv-x="1000" />

<glyph glyph-name="threat-suspicious" unicode="&#xe909;" d="M427-127l51-20c5-2 10-3 15-3s10 1 14 3l59 23c211 82 347 273 347 488v265c0 12-8 24-19 30l-382 191-406-191c-11-6-18-18-18-30v-271c0-210 132-400 339-485z m111 285v-45c0-14-10-26-22-26h-57c-12 0-21 12-21 26v45c0 15 9 27 21 27h57c12 0 22-12 22-27z m116 291v0c1-29-7-56-22-79-15-24-35-43-58-56-11-7-20-18-27-31-3-9-5-19-6-29-1-9-8-15-16-15h-70c-5 0-9 2-12 5s-5 9-4 14c0 18 5 36 14 52 15 21 33 40 54 55 13 9 24 21 32 35 8 15 12 32 12 49 0 16-5 32-14 45-10 12-24 18-39 17-12 1-24-4-34-14-6-6-10-14-12-23-3-11-12-18-23-18l-65 1c-8 1-14 9-13 17 0 36 15 69 40 90 32 25 70 38 108 36 48 0 86-14 114-41 28-28 43-69 41-110z" horiz-adv-x="1000" />

<glyph glyph-name="threat-blocked" unicode="&#xe90a;" d="M427-127l51-20c5-2 10-3 15-3s10 1 14 3l59 23c211 82 347 273 347 488v265c0 12-8 24-19 30l-382 191-406-191c-11-6-18-18-18-30v-271c0-210 132-400 339-485z m274 333l-49-46c-6-6-15-10-24-10s-18 4-25 10l-103 99-104-98c-7-6-16-10-25-10s-18 4-24 10l-49 46c-7 6-10 14-10 23s3 17 10 23l104 98-104 98c-7 6-10 14-10 23s3 16 10 22l49 46c6 6 15 10 24 10s18-4 25-10l104-100 104 98c7 6 16 10 25 10s18-4 24-10l49-46c7-6 11-14 11-23s-4-17-11-23l-104-98 104-98c7-6 11-14 11-23s-6-15-12-21z" horiz-adv-x="1000" />

<glyph glyph-name="botnet" unicode="&#xe90b;" d="M59 113h49c34-88 97-163 181-211 60-34 129-52 199-52 69 0 138 18 199 52 76 43 135 110 170 187 3 0 7-1 11-1h48c47 0 84 38 84 84v158c0 46-37 83-84 83h-48c-3 0-6 0-9 0-56 131-181 227-329 242l-7 44c29 11 50 39 50 73 0 43-35 78-79 78-43 0-78-35-78-78 0-34 20-62 49-73l-6-43c-163-11-299-119-352-267h-48c-33 0-59-26-59-59v-158c0-33 26-59 59-59z m431 0h66c19 0 35-16 35-35v-10c0-19-16-34-35-34h-66v79z m0-128h66c46 0 84 37 84 83v10c0 46-38 84-84 84h-66v446c145 0 270-89 324-214 8-19 15-39 20-60 2 17 16 30 34 30h48c19 0 35-15 35-34v-158c0-19-16-34-35-34h-48c-19 0-35 15-35 34v1c-5-22-12-43-21-63-30-69-82-127-150-165-52-30-112-46-172-46v86h0z m108 360h-13c-25 0-44-20-44-44s19-44 44-44h1l47 17 174 71h-209z" horiz-adv-x="1000" />

<glyph glyph-name="router" unicode="&#xe90c;" d="M825-100h50v-50h-50v50z m151 225h-902c-13 0-24-11-24-25v-150c0-14 11-25 24-25h902c13 0 24 11 24 25v150c0 14-11 25-24 25z m-855-100c-13 0-23 11-23 25s10 25 23 25c13 0 24-11 24-25s-11-25-24-25z m95 0c-13 0-23 11-23 25s10 25 23 25c13 0 24-11 24-25s-11-25-24-25z m95 0c-13 0-23 11-23 25s10 25 23 25c13 0 24-11 24-25s-11-25-24-25z m262-50h-48v100h48v-100z m95 0h-48v100h48v-100z m95 0h-48v100h48v-100z m95 0h-48v100h48v-100z m95 0h-48v100h48v-100z m23 425h-902c-13 0-24-11-24-25v-150c0-14 11-25 24-25h902c13 0 24 11 24 25v150c0 14-11 25-24 25z m-855-100c-13 0-23 11-23 25s10 25 23 25c13 0 24-11 24-25s-11-25-24-25z m95 0c-13 0-23 11-23 25s10 25 23 25c13 0 24-11 24-25s-11-25-24-25z m95 0c-13 0-23 11-23 25s10 25 23 25c13 0 24-11 24-25s-11-25-24-25z m262-50h-48v100h48v-100z m95 0h-48v100h48v-100z m95 0h-48v100h48v-100z m95 0h-48v100h48v-100z m95 0h-48v100h48v-100z m-778-350h50v-50h-50v50z m125 550v147c34 11 55 42 49 73s-37 55-74 55c-36 0-68-23-74-55s15-62 49-73v-147h50z m-25 231c14 0 25-10 25-22s-11-22-25-22c-14 0-25 10-25 22s11 22 25 22z m-105-131l30 32c-42 45-42 116 0 161l-30 32c-29-30-45-70-45-112s16-83 45-113z m236 0c28 30 44 70 44 113s-16 82-44 112l-31-32c42-44 42-116 0-161l31-32z m-318-75l37 33c-96 86-96 224 0 309l-37 33c-117-104-117-271 0-375z m375 375l-38-33c96-85 96-223 0-309l38-33c116 104 116 271 0 375z" horiz-adv-x="1000" />

<glyph glyph-name="active-threats" unicode="&#xe90d;" d="M427-127l51-20c5-2 10-3 15-3s10 1 14 3l59 23c211 82 347 273 347 488v265c0 12-8 24-19 30l-382 191-406-191c-11-6-18-18-18-30v-271c0-210 132-400 339-485z m1 727h139v-310h-139v310z m0-413h139v-103h-139v103z" horiz-adv-x="1000" />

<glyph glyph-name="CCP" unicode="&#xe90e;" d="M502 126c-9 9-17 19-25 32-19 34-37 76 16 114 25 17 58 31 93 43v-25c22 8 42 2 42-30 0-15-9-38-41-58l-1-140-60 41h0c-1 2-3 3-5 5 2-2 3-3 5-5-51 24-152 78-179 152-42 115 114 141 273 137 85-3 190-16 190-16 106-3 191-89 190-196 0-104-81-189-183-196-2 0-3 0-4 0h-606c-3 0-5 0-8 1-112 12-199 107-199 223 0 123 99 223 222 223 2 0 4 0 6 0 0 5 0 10 0 14 0 150 121 271 269 271 80 0 151-35 201-90-43 38-100 61-161 61-136 0-245-111-245-247 0-3 0-6 0-9 0 0 0 0 0 0-108 0-196-88-196-197s88-197 196-197h527c86 1 155 71 155 158 0 87-55 152-147 173-17 4-25 6-46 4-68-11-237-43-308-100-47-39-22-93 14-130 4-5 10-11 15-16z m96 193c67 22 142 38 192 46v-52c0-69-33-132-89-171l-103-72 0 126c35 21 42 40 44 63 2 32-21 52-44 44v16z m-67 109l50-26c-80 0-155-9-202-34v138l65-33c0-28 16-43 31-53 16-11 48-8 56 8z m193 41l66 36v-121c-46 7-112 16-166 17-12 1-23 1-34 1l81 44c-24 15-27 24-11 32 17 8 34 4 64-9z m-345 49l160 81c29 15 64 15 93 0l159-81-72-36c-27 11-48 11-68 2-14-7-21-22 1-35l-67-34-61 31c0-16-23-31-47-16-14 9-25 25-25 52l-73 36z" horiz-adv-x="1000" />

<glyph glyph-name="lightbulb" unicode="&#xe90f;" d="M643 296c68 47 108 122 108 204 0 139-112 251-251 251s-251-112-251-251c0-82 40-157 108-204l42-30v-115h202v115z m-143 554c193 0 350-157 350-350 0-119-59-223-150-286v-115c0-28-22-49-50-49h-300c-28 0-49 21-49 49v115c-92 63-151 167-151 286 0 193 158 350 350 350z m-150-951v50h300v-50c0-28-21-49-49-49h-202c-28 0-49 21-49 49z" horiz-adv-x="1000" />

<glyph glyph-name="help" unicode="&#xe910;" d="M615-25v-29c0-23-18-42-41-46l-7-26c-4-13-17-23-32-24h-73c-16 0-29 10-33 24l-7 26c-23 4-41 23-41 46v29c0 7 4 14 9 19s13 9 21 9h176c15-1 27-14 28-28v0z m-154 838v-96c0-21 18-37 39-37s38 16 38 37v96c0 20-17 37-38 37s-39-17-39-37z m-323-481c21 0 38 16 38 37 0 20-17 37-38 37h-100c-21 0-38-17-38-37s17-37 38-37l100 0z m822 74h-99c-13 0-26-7-33-19s-7-25 0-37c7-11 20-18 33-18h100c21 0 38 16 38 36 1 10-2 19-9 26-8 8-18 12-29 12l-1 0z m-827-352c0-15 9-29 24-35s31-2 42 8l71 69c8 7 12 16 12 26s-4 20-12 27c-15 14-39 14-54 0l-71-68c-7-7-11-17-11-27l-1 0z m721 656c-16 14-40 14-56 0l-70-68c-7-7-11-17-11-27 0-10 4-20 12-27 8-6 17-10 27-10 10 0 20 4 27 11l71 68c7 7 11 17 11 27s-4 19-11 26l0 0z m-638-121c10-10 24-14 38-11s25 14 28 27c3 14-1 28-12 37l-71 68c-9 11-24 16-39 13s-26-14-29-28c-3-14 2-29 14-38l71-68z m583-561c15-15 39-15 54 0s15 38 0 53l-70 68c-15 14-39 14-55 0-7-7-11-17-11-27s4-19 11-26l71-68z m-161 65c-6-31-34-54-67-54h-144c-34-1-63 23-67 55-6 36-24 70-50 97-73 73-94 180-53 273s134 153 239 155h2c105 0 201-60 242-154s21-201-52-275c-27-26-44-60-50-97v0z m-110 102c0 10-7 17-17 17h-44c-10 0-18-7-18-17v-27c0-10 8-17 18-17h44c10 0 17 7 17 17v27z m89 190c1 28-11 55-33 74-21 18-51 27-88 27-30 2-60-7-84-24-19-14-31-36-31-59-1-6 4-11 10-12l51-1c8 0 15 5 18 13 1 5 4 11 9 15 7 6 17 9 26 9 12 1 23-3 30-11 8-9 11-19 11-30 0-12-3-23-9-33-7-10-15-18-25-24-16-9-30-22-42-36-7-11-10-23-11-35 0-3 1-6 3-9s6-4 9-4h55c7 0 12 5 13 11 0 7 2 13 4 19 5 9 12 16 21 20 18 9 33 22 45 38 11 15 18 34 18 52v0z" horiz-adv-x="1000" />

<glyph glyph-name="service-captureclient" unicode="&#xe911;" d="M838 461c4 74-5 127-6 138-2 34-15 77-85 87-219 32-319 31-487 0-42-8-57-25-63-76-2-19-13-79-8-162-72-35-106-93-76-182 33-98 141-174 237-221 43-51 97-102 165-151 237 169 304 380 320 527 58 11 96 16 96 16s-33 11-93 24z m-338-611c-276 0-500 224-500 500s224 500 500 500c276 0 500-224 500-500s-224-500-500-500z m283 622c-47 8-106 16-174 21-34 2-69 4-102 4v153c-11 0 5 1 3 1 16 0 88 1 158-8 25-2 49-6 71-12 0 0 30-7 36-38 2-12 4-27 6-45 2-21 3-47 2-76z m-271-129c74 27 154 48 224 64 17 3 32 5 44 7-15-117-69-268-222-414-15-14-31-28-47-42l-1 3 2 382z m-278 125c-2 31 0 57 2 80 1 18 4 33 6 45 6 31 36 38 36 38 22 6 46 10 71 13 70 8 142 7 158 7 2-1 3-1 3-1l-1-153c-104 2-202-6-275-29z m280-125l-2-382v-3c-17 14-33 28-48 42-4 4-9 9-13 13h0c-15 14-29 29-41 43-19 21-34 41-46 57-1 1-1 1-2 2-47 97-20 144 32 174 35 21 76 38 120 54z m-151-229c-52 54-94 126-24 181 129 105 489 150 489 150s-152 19-277 23c-231 6-456-31-396-196 40-106 179-182 254-216-19 21-34 41-46 58z" horiz-adv-x="1000" />

<glyph glyph-name="service-cas" unicode="&#xe912;" d="M1000 205c0-1 0-2 0-3 0 1 0 2 0 3z m-1-21c0-1 0-2 0-3 0 1 0 2 0 3z m-221-205c-3 0-7 0-10 0v0c3 0 7 0 10 0z m-289 0h-303v0c-104 6-186 93-186 200 0 110 89 200 198 200 12 0 24-1 35-4 0 5 0 10 0 15 0 119 87 218 202 242-12-28-20-58-20-90v-6c-33-3-59-30-59-63v-294c0-35 29-64 64-64h415c32 0 58 23 63 53-5-30-31-53-63-53h-346v-136z m95 639c-30-16-51-47-51-82h165c-29 36-68 65-114 82z m315-227v-211c0-36-29-64-64-64h-347v-137h279v0c4 0 8 0 12 0 122 0 221 100 221 224 0 79-40 148-101 188z m-145 108v44c0 69-56 125-125 125s-125-56-125-125v-44h250z m-117-280c0 0-107 69-51 113 56 46 213 66 213 66s-66 8-121 10c-100 3-199-14-172-86 23-64 131-103 131-103z m-187 280v44c0 99 80 178 179 178s179-79 179-178v-44h2c23 0 42-19 42-42v-254c0-23-19-42-42-42h-362c-23 0-42 19-42 42v254c0 23 19 42 42 42h2z m179-91v91h124v44c0 69-55 124-124 125v53c99-1 178-80 178-178v-44h2c24 0 43-19 43-42v-254c0-23-19-42-43-42h-180v60c4-1 7-2 7-2s-3 1-7 4v134c70 29 170 41 170 41s-67 8-122 10c-16 1-32 0-48 0z" horiz-adv-x="1000" />

<glyph glyph-name="service-wifi-planner" unicode="&#xe913;" d="M400 225h75v75c-37-11-66-40-75-75z m100 377v-102h400v250h-262c-7-74-63-135-138-148z m92-275c0 8 7 15 16 15s15-7 15-15v-377h277v515h-431v162c71 0 130 53 138 123h-507v-531h272c11 63 65 108 128 108v-138h-400v-239h492v377z m62-8h215v-15h-215v15z m0-46h215v-15h-215v15z m0-46h215v-15h-215v15z m0-46h215v-16h-215v16z m0-46h215v-16h-215v16z m0-46h215v-16h-215v16z m0-47h215v-15h-215v15z m0-46h215v-15h-215v15z m-397 729c0-73-59-132-132-132v39c25 0 49 9 66 27 18 18 28 41 28 66h38z m-105 0c14 0 26-12 26-27 0-14-12-26-26-26-15 0-27 12-27 26 0 15 12 27 27 27z m173 0c0-110-90-200-200-200v39c89 0 162 72 162 161h38z m613 125h-875c-35 0-63-28-63-62v-876c0-34 28-62 63-62h875c34 0 62 28 62 62v876c0 34-28 62-62 62z m0-938h-875v876h875v-876z" horiz-adv-x="1000" />

<glyph glyph-name="CSC" unicode="&#xe914;" d="M733 500c2-18 4-39 2-63 0 0 0 0 0 0-1 0-3 0-4 1 0 0-1 0-1 0-2 0-3 0-5 0 0 0-1 0-1 0-2 1-3 1-5 1 0 0 0 0-1 0-1 0-3 0-5 1 0 0 0 0-1 0-1 0-3 0-5 0 0 0-1 0-1 0-2 1-4 1-6 1 0 0 0 0-1 0-1 0-3 0-5 1-1 0-1 0-1 0-2 0-4 0-6 0 0 0-1 0-2 0-2 1-4 1-6 1h0c-2 0-4 0-6 1-1 0-1 0-2 0-2 0-4 0-6 1 0 0-1 0-1 0-2 0-4 0-6 1-1 0-1 0-1 0-2 0-4 0-7 0 0 0-1 0-1 0-2 1-4 1-7 1 0 0-1 0-1 0-2 0-4 0-6 1-1 0-1 0-1 0-3 0-5 0-7 0-1 0-1 0-2 0-2 1-4 1-7 1 0 0 0 0-1 0-2 0-4 0-6 0-1 0-1 0-1 0-2 0-5 0-7 1-1 0-1 0-2 0-2 0-4 0-7 0 0 0 0 0-1 0-2 0-4 0-6 0 0 0-1 0-1 0-2 0-5 1-7 1 0 0-1 0-1 0-3 0-5 0-8 0h0c-2 0-4 0-7 0-1 0-1 0-1 0-3 0-5 1-7 1 0 0-1 0-2 0-2 0-4 0-6 0-11 0-25 1-36 1-95 0-169-10-221-30-2 30-1 57 1 78 1 14 3 26 5 36 4 25 29 31 29 31 18 5 38 8 58 10 58 7 116 6 129 6 0 0 1 0 1 0 13 0 71 1 128-7 20-2 40-5 58-9 0 0 25-7 29-32 2-9 4-22 5-36z m-340-355c10-14 22-30 38-47-61 28-174 89-206 176-49 135 134 165 321 160 101-3 225-18 225-18s-292-38-397-123c-57-45-23-104 19-148z m223 223c45 11 87 18 116 23-12-95-56-219-181-338-12-11-25-22-39-34-13 12-26 23-38 35-4 3-7 6-10 10-13 12-24 23-33 35-16 17-28 33-38 47-17 24-26 40-26 40-1 1-1 2-2 4-23 49 7 79 19 88 0 0 1 1 1 1 8 6 17 12 27 19 3 1 5 2 5 2 25 14 58 28 96 40 0 0 1 0 1 0s0 0 0 0c30 10 65 19 102 28z m-553 8h-63c17 250 218 449 468 465v-64c-215-15-387-186-405-401z m467 401l0 64c251-16 451-215 468-464h-63c-18 214-190 385-405 400z m405-463h64c-14-254-216-458-469-473v64c218 15 392 190 405 409z m-467-409v-64c-254 15-456 219-469 473h64c13-219 186-394 405-409z" horiz-adv-x="1000" />

<glyph glyph-name="fw-shield" unicode="&#xe915;" d="M537 722l108 0v-115h-108v-23h246v-117h-246v-19c-12 21-30 49-30 49-7-19-12-51-35-100v365c0 1-1 2-2 3h-3l-313-87c-2-1-4-2-4-4v-331c0-109 66-212 137-287 0-24 6-47 18-67 24-44 78-87 134-114-123 58-353 223-353 465v382c0 2 2 4 4 4l439 124c1 0 2 0 3 0h1c2-1 3-2 4-4v-124z m130-394h0v117h247v-104c0-4-1-9-1-13h-246z m240 395c4 0 7-3 6-6v-110h-246v115l240 1z m-103-138h110v-118h-110v118z m0-397v118h108c-4-41-14-80-29-118h-79z m-266 257h107v-118h-65c-7 44-25 85-42 118z m45-140h199v-117h-83c-28 53-75 87-91 100-17 13-11-15-11-21 1-46-2-54-7-29-3 20-4 36-7 67z m141-279h51c-35-36-74-69-115-97 13 11 24 23 35 37 13 18 23 38 29 60z m-15 140h164c-21-43-47-82-78-118h-67c6 44-6 86-19 118z m-200-316l-4 0c-64 14-150 75-180 130-12 23-48 106 43 215 124 146 140 248 140 248 19-10 51-76 58-168 1-30 4-55 10-70 16-36 43-20 39 43 0 6-5 17 11 5 16-11 43-39 65-97 17-46 20-83 18-109-6-86-80-134-132-167-45-26-68-30-68-30z" horiz-adv-x="1000" />

<glyph glyph-name="eraser" unicode="&#xe916;" d="M3-81h870v-67h-870v67z m976 636l-254 272c-12 13-28 21-44 21-16 0-32-7-44-20l-498-531c-24-25-24-68 0-93l144-163c53-47 192-74 192-74 35 0 504 492 504 492 24 26 24 71 0 96z m-649-465l-144 161 192 203 248-262-160-156c-1 0-2-1-3-1 0 0-56 6-133 55z" horiz-adv-x="1000" />

<glyph glyph-name="calendar" unicode="&#xe917;" d="M889 750h-56v-112h-166v112h-334v-112h-166v112h-56c-61 0-111-51-111-112v-676c0-61 50-112 111-112h778c61 0 111 51 111 112v676c0 61-50 112-111 112z m-14-800h-775v525h775v-525z m-575 900h-100v-200h100v200z m500 0h-100v-200h100v200z" horiz-adv-x="1000" />

<glyph glyph-name="calendar-date" unicode="&#xe918;" d="M300 850h-100v-200h100v200z m500 0h-100v-200h100v200z m75-900h-775v525h775v-525z m14 800h-56v-112h-166v112h-334v-112h-166v112h-56c-61 0-111-51-111-112v-676c0-61 50-112 111-112h778c61 0 111 51 111 112v676c0 61-50 112-111 112z m-692-375h278v-250h-278v250z" horiz-adv-x="1000" />

<glyph glyph-name="calendar-event" unicode="&#xe919;" d="M586 150h-389v-100h389v100z m167 200h-556v-100h556v100z m136 400h-56v-112h-166v112h-334v-112h-166v112h-56c-61 0-111-51-111-112v-676c0-61 50-112 111-112h778c61 0 111 51 111 112v676c0 61-50 112-111 112z m-14-800h-775v525h775v-525z m-575 900h-100v-200h100v200z m500 0h-100v-200h100v200z" horiz-adv-x="1000" />

<glyph glyph-name="calendar-date-range" unicode="&#xe91a;" d="M325 425h130v-117h-130v117z m200 0h130v-117h-130v117z m175 0h130v-117h-130v117z m-575-325h130v-117h-130v117z m200 0h130v-117h-130v117z m200 0h130v-117h-130v117z m-200 150h130v-117h-130v117z m200 0h130v-117h-130v117z m175 0h130v-117h-130v117z m-575 0h130v-117h-130v117z m764 500h-56v-112h-166v112h-334v-112h-166v112h-56c-61 0-111-51-111-112v-676c0-61 50-112 111-112h778c61 0 111 51 111 112v676c0 61-50 112-111 112z m-14-800h-775v525h775v-525z m-575 900h-100v-200h100v200z m500 0h-100v-200h100v200z" horiz-adv-x="1000" />

<glyph glyph-name="service-analytics" unicode="&#xe91b;" d="M315 523c-51-56-83-130-83-212 0-26 4-52 10-76h-68v523h141v-235z m-315 68h140v-356h-140v356z m667 13c-37 15-77 23-119 23-7 0-14 0-21 0v65h140v-88z m-178 18c-53-10-100-33-140-65v281h140v-216z m504-658l-132 132c-9 9-24 9-33 0l-7-7-27 27c-14-18-29-34-47-48l27-27-7-7c-9-9-9-23 0-33l132-132c9-9 24-9 33 0l61 61c9 10 9 24 0 34z m-299 209c81 81 81 211 0 291s-210 81-291 0c-80-80-80-210 0-291s211-80 291 0z m53-57c-109-110-287-110-396 0-110 109-110 287 0 396 109 110 287 110 396 0s110-287 0-396z m-193 77c0 0-109 39-133 105-27 74 73 91 175 88 55-1 123-10 123-10s-159-20-217-67c-56-46 52-116 52-116z" horiz-adv-x="1000" />

<glyph glyph-name="service-msw" unicode="&#xe91c;" d="M553-63c-1 0-2 1-2 1-33 32-55 63-60 87-4 18 1 31 19 46 38 31 107 60 197 86 21 5 42 11 64 16 3-30 5-64 5-103 1-14 1-17 1-15 0-4 0-10 0-18 0 0-37-74-224-100z m-172-9c-175 3-284 33-327 92-7 9-11 20-11 31 0 5 0 8 0 10 0-2 0-1 1 17 4 222 35 286 260 326 0 0 31-41 106-41s106 41 106 41c115-21 179-47 215-98-14 0-28 1-42 1-128 4-234-7-308-35-99-37-142-110-107-207 18-50 55-96 107-137z m29 494c-107 0-194 96-194 214 0 118 28 214 194 214s194-96 194-214c0-118-87-214-194-214z m-2-141v83c1 0 3 0 5 0 74 0 105 41 105 41 114-21 178-48 214-99-15 1-29 2-42 2-114 3-210-5-282-27z m363-107c3-30 5-64 5-103 1-14 1-17 1-15 0-1 0-2 0-4 0-11-4-22-11-31-32-44-103-73-210-85-1 1-2 2-3 3-34 32-55 63-60 87-4 18 1 31 19 46 38 31 106 60 195 85 21 6 43 12 64 17z m-363 249v427c1 0 3 0 5 0 164 0 192-96 192-214 0-117-86-213-192-213-2 0-4 0-5 0z m194-573c0 0-235 86-287 228-58 159 157 196 378 189 119-3 264-21 264-21s-343-44-467-145c-121-99 112-251 112-251z" horiz-adv-x="1000" />

<glyph glyph-name="service-fwmanagement" unicode="&#xe91d;" d="M609 75c4 31 5 62 3 94-2 28-6 55-12 82h346c16 0 28-16 28-35v-106c0-19-12-35-28-35h-337z m361-50c16 0 29-15 29-34v-106c0-19-13-35-29-35h-191c-16 0-29 16-29 35v106c0 19 13 34 29 34h191z m-298 0c15 0 28-15 28-34v-106c0-19-13-35-28-35h-147c40 49 70 109 87 175h60z m299 447c16 0 29-16 29-35v-106c0-19-13-34-29-34h-191c-16 0-29 15-29 34v106c0 19 13 35 29 35h191z m-236-189c0 0-176 64-215 172-44 120 118 147 283 142 88-2 197-16 197-16s-257-33-349-109c-91-75 84-189 84-189z m-185-122c-5 72-31 137-69 187-62 81-104 201-111 316-10-74-55-141-50-214-11 148-55 284-121 400 4-21 6-43 7-65 11-167-48-321-137-438-47-62-74-145-68-234 7-117 70-215 156-262-10 23-16 48-15 75 2 44 19 84 45 111 49 51 85 123 89 205 0 1-1 2-1 3h1c0-1 0-2 0-3 3-82 38-154 87-206 26-28 43-67 44-111 1-27-5-52-15-75 100 54 167 176 158 311z m-273 76v5c0 1 0 1 0 2h0v430c24-71 39-147 45-226-5 73 40 140 50 214 8-115 50-235 112-315 39-50 65-115 70-187 9-135-58-256-160-310 10 22 16 48 16 75-1 44-18 83-45 111-48 51-84 121-88 201z" horiz-adv-x="1000" />

<glyph glyph-name="service-wireless" unicode="&#xe91e;" d="M859 166l-63 63c153 154 153 404 0 558l63 63c188-189 188-495 0-684z m-125 125l-63 64c84 84 84 222 0 307l63 63c119-120 119-314 0-434z m-593-125l63 63c-153 154-153 404 1 558l-64 63c-188-189-188-495 0-684z m111 125l64 63c-82 82-79 217 6 302l-61 61c-120-120-124-311-9-426z m296-103c1-55 3-111 5-152 0-4 0-7 0-10h291c18 0 33-15 33-34v-109c0-18-15-33-33-33h-680c-18 0-33 15-33 33v109c0 19 15 34 33 34h290c0 3 1 6 1 10 1 41 3 97 5 152 0 18 1 42 2 71 1 23 19 41 42 41 22 0 40-18 41-41 1-29 2-53 3-71z m-331-281c18 0 33 15 33 33s-15 33-33 33c-19 0-34-15-34-33s15-33 34-33z m124 589c28-78 156-125 156-125s-127 83-61 137c67 55 254 79 254 79s-79 10-144 12c-8 0-16 0-24 0-111 0-210-22-181-103z" horiz-adv-x="1000" />

<glyph glyph-name="service-licensing" unicode="&#xe91f;" d="M837 38h-653c-9 1-17 8-17 17s8 15 17 16h653c10-1 18-8 18-16s-8-16-18-17z m0-65h-653c-9 1-17 8-17 16 0 9 8 16 17 17h653c10-1 18-8 18-17 0-8-8-15-18-16z m134 490h-182c3-19 2-38-9-56-11-19-27-30-46-37-7-2-12-3-20-5v-255l-206 116-206-116v256c-9 2-14 3-22 6-19 6-36 17-47 37-10 17-11 35-8 54h-196c-16 0-29-13-29-30v-529c0-16 13-29 29-29h942c16 0 29 13 29 29v529c0 17-13 30-29 30z m-1 0h-181c3-19 2-38-8-56-11-19-28-30-47-37-6-2-12-3-19-5v-255l-205 116-2 0v-155h329c10 0 18-8 18-16s-8-16-18-17h-329v-32h329c10-1 18-8 18-17 0-8-8-15-18-16h-329v-98h462c16 0 29 13 29 29v530c0 16-13 29-29 29z m0 0h-181c3-19 2-38-8-56-11-19-28-30-47-37-6-2-12-3-19-5v-255l-205 116-2 0v-155h329c10 0 18-8 18-16s-8-16-18-17h-329v-32h329c10-1 18-8 18-17 0-8-8-15-18-16h-329v-98h462c16 0 29 13 29 29v530c0 16-13 29-29 29z m-315-57v-192l-148 83-147-83v184c-2 7-4 13-8 17-15 15-59 7-69 25-10 18 18 52 13 73-6 20-47 35-47 56 0 22 41 37 47 56v2c5 20-23 54-13 72 10 18 54 11 69 25s7 59 25 69c18 11 52-17 73-12 20 5 35 44 56 44 21 0 37-42 56-47 20-5 55 23 73 13 17-10 10-55 25-69 14-15 58-8 69-26 10-17-18-52-13-72 6-20 47-35 47-56s-42-37-47-57c-5-20 23-54 13-72-11-18-55-11-69-26-2-2-4-4-5-7z m-144 36c0 0-105 68-50 112 55 45 210 65 210 65s-66 8-119 10c-99 3-196-14-170-85 23-63 129-102 129-102z m-1 2c3-1 4-2 4-2s-1 1-4 3v135c68 27 164 39 164 39s-65 8-119 10c-15 0-30 0-45 0v196c21-2 36-42 56-47 19-5 54 23 72 13 18-10 11-54 26-69 14-15 58-8 69-26s-18-52-13-72c6-20 48-35 48-56 0-22-42-37-48-57-5-20 23-54 13-72-11-18-55-11-69-26-2-2-4-4-5-7v-192l-149 83v147z" horiz-adv-x="1000" />

<glyph glyph-name="service-waf" unicode="&#xe920;" d="M497 159h265v-26h-265v-23h122v-124h-122v-22h209c-89-74-180-114-206-114-1 0-2 0-3 0v0c-57 6-271 118-361 310h50c19-36 44-68 67-94 67-75 163-132 195-135v229h49v-1z m0 412h-49v201l-301-102v-99h-52v141l402 138v-135h6l116 0v-144h-122z m-358-469l-129 57h98l31-57z m722 0l30 57h99l-129-57z m-219 8h195c-30-47-67-89-105-124h-90v124z m257 606c4 0 7-2 7-6v-139h-264v144l257 1z m-114-557h79c-4-9-9-17-13-26h-66v26z m-233 276l-31-77c15 1 31 1 47 1 6 0 10-1 15-1l-30 77h-1z m-542 117v-372h980v372h-980z m354-266l-41 138h-1l-42-138h-37l-55 180h37l37-138h1l42 138h37l40-138h1l39 138h37l-58-180h-37z m284 0h-38l-21 52c-36-9-76-22-98-39-24-20-9-45 9-64 4-6 9-12 16-20-26 12-75 39-89 76-13 36 13 54 54 63l50 112h38l49-110c25-2 44-5 44-5s-17-2-40-6l26-59z m163 153h-106v-48h93v-25h-93v-81h-37v181h143v-27z" horiz-adv-x="1000" />

<glyph glyph-name="all-traffic" unicode="&#xe921;" d="M16 65c-22-22-21-58 0-80l119-119c22-22 57-22 79 0 22 22 22 58 0 80l-23 23h753c31 0 56 25 56 56 0 16-6 30-16 40-10 10-24 16-40 16h-753l23 23c22 22 22 58 0 80-22 22-57 22-79 0l-119-119z m909 730c0 31-24 55-55 55h-164c-30 0-55-24-55-55 0-30 25-54 55-54h32l-447-448c-21-21-21-56 0-77 11-11 25-16 39-16 14 0 28 5 38 16l448 447v-32c0-30 24-55 54-55 31 0 55 25 55 55v164z m-605-320c30 0 55 25 55 55v166c0 30-25 55-55 55-31 0-55-25-55-55v-32l-171 170c-21 21-56 21-78 0-11-11-16-25-16-39 0-14 5-28 16-39l171-171h-33c-30 0-55-24-55-55 0-30 25-55 55-55h166z m664-190c22 22 21 58 0 80l-119 119c-21 21-57 22-79 0-21-22-21-58 0-80l24-23-129 0c-31 0-56-25-56-56 0-15 6-29 16-40 10-10 24-16 40-16l129 0-24-23c-21-22-21-58 0-80 22-21 58-21 79 0l119 119z" horiz-adv-x="1000" />

<glyph glyph-name="threat" unicode="&#xe922;" d="M614 486c-29 25-64 39-101 39-12 0-24-1-35-4-72-16-126-85-128-163-3-46 22-89 60-109v-26c0-27 19-48 44-48h14v48c0 9 7 16 15 16s15-7 15-16v-48h29v48c0 9 7 16 15 16s15-7 15-16v-48h14c25 0 44 21 44 48v26c24 13 44 35 53 62 5 12 7 25 7 39 0 53-23 103-61 136z m-164-186c-28 0-50 22-50 50v33c0 6 3 12 8 15 5 3 11 3 16 0l67-33c5-3 9-9 9-15 0-28-22-50-50-50z m175 50c0-28-22-50-50-50s-50 22-50 50c0 6 4 12 9 15l67 33c5 3 11 3 16 0 5-3 8-9 8-15v-33z m-50 438c0-35-28-63-62-63s-63 28-63 63c0 34 28 62 63 62s62-28 62-62z m375-300c0-35-28-63-62-63s-63 28-63 63c0 34 28 62 63 62s62-28 62-62z m50-551c0-34-28-62-62-62s-63 28-63 62c0 35 28 63 63 63s62-28 62-63z m-700-25c0-34-28-62-62-62s-63 28-63 62c0 35 28 63 63 63s62-28 62-63z m-175 551c0-35-28-63-62-63s-63 28-63 63c0 34 28 62 63 62s62-28 62-62z m606-258c27 42 43 91 43 145 0 22-3 43-9 64 2 0 4 1 6 2l76 31c-12 14-20 33-21 54l-76-31c-1-1-3-2-4-2-38 77-112 132-200 143v89c-9-3-19-5-29-5s-19 2-28 5v-88c-109-11-197-91-224-196l-117 51c-2-20-10-39-23-53l132-58c0-2-1-4-1-6 0-79 35-149 88-198-1-1-2-2-3-3l-76-117c19-5 36-16 48-32l76 117c0 0 1 1 1 2 37-21 80-33 125-33 70 0 133 29 180 74l167-149c8 18 21 34 38 44l-169 150z m-216-64c-113 0-205 93-205 209s92 208 205 208c113 0 205-93 205-208s-92-209-205-209z" horiz-adv-x="1000" />

<glyph glyph-name="web-activities" unicode="&#xe923;" d="M636 373c-49-22-92-56-124-98-13 4-26 8-39 13-79 31-151 76-212 131l0 0v1c20 31 15 71-11 98 21 25 44 48 69 69 17 13 34 26 53 38 25-28 67-37 103-22 62-71 116-148 161-230z m285-16c-46 27-101 43-158 43-24 0-48-3-70-8-47 89-103 173-168 250 18 20 26 47 21 73 83 25 170 37 257 34h0l0 1c110-91 173-225 172-367 0 0 0-2 0-2-18-7-36-16-54-24z m-391-479c-18-2-36-3-55-3 5 14 12 31 21 49 10-16 22-31 34-46z m-41 58c-11-23-19-44-25-61-143 11-275 82-364 196 9 109 36 216 80 316 27-8 55-3 77 13 69-65 148-116 234-152 1 0 2 0 3-1-28-46-44-101-44-159 0-55 14-107 39-152z m-89 831c-27 24-53 43-75 60 142 42 299 26 425-45-76-2-151-12-223-32-14 17-35 29-59 32s-48-2-68-15l0 0z m-284-293l0 0v0c0-25 12-49 34-65-40-82-67-170-78-259-96 146-96 329 0 475 20-33 43-64 68-95-15-15-24-35-24-56z m54 51h0v2c-25 36-49 73-70 112 48 70 113 126 188 161 24-21 54-48 87-81-11-21-14-46-7-68-20-14-39-30-57-46-27-25-51-51-73-80-21 10-46 10-68 0z m605-675c124 0 225 101 225 225s-101 225-225 225c-124 0-225-101-225-225s101-225 225-225z m-219 275h124l71 100 79-225 47 112h119l4-37h-82l-72-175-95 262-51-76h-151l7 39z" horiz-adv-x="1000" />

<glyph glyph-name="blog" unicode="&#xe924;" d="M388 210v280c0 73 62 131 107 131h180v67c0 89-46 162-102 162h-471c-56 0-102-73-102-162v-346c0-90 46-163 102-163h78c0-63 0-127 0-191 0-11 9-18 14-9 37 67 74 134 111 200h85c-1 10-2 21-2 31z m62 221v-313c0-65 33-119 73-119h193c27-48 53-97 80-146 3-7 10-1 10 7 0 46 0 93 0 139h121c40 0 73 54 73 119v313c0 66-33 119-73 119h-404c-40 0-73-53-73-119z" horiz-adv-x="1000" />

<glyph glyph-name="entry-level-firewalls" unicode="&#xe925;" d="M387 755v-112h533v112h-533z m-40 80h613c22 0 40-18 40-40v-192c0-22-18-40-40-40h-613c-22 0-40 18-40 40v192c0 22 18 40 40 40z m-123-233v-116h-168v116h-56l140 233 140-233h-56z m-168-155h168v-78h-168v78z m0-233h168v-38h-168v38z m0-77h168v-39h-168v39z m0 194h168v-78h-168v78z m0-272h168v-39h-168v39z m0-78h168v-27h-168v27z m0-77h168v-20h-168v20z m331 502v-112h533v112h-533z m-40 80h613c22 0 40-18 40-40v-192c0-22-18-40-40-40h-613c-22 0-40 18-40 40v192c0 22 18 40 40 40z m-7-349h627c18 0 33-15 33-34v-205c0-18-15-33-33-33h-627c-18 0-33 15-33 33v205c0 19 15 34 33 34z" horiz-adv-x="1000" />

<glyph glyph-name="mid-range-level-firewalls" unicode="&#xe926;" d="M387 745v-111h533v111h-533z m-40 80h613c22 0 40-18 40-40v-191c0-22-18-40-40-40h-613c-22 0-40 18-40 40v191c0 22 18 40 40 40z m-123-233v-116h-168v116h-56l140 233 140-233h-56z m-168-155h168v-77h-168v77z m0-232h168v-39h-168v39z m0-78h168v-39h-168v39z m0 194h168v-78h-168v78z m0-272h168v-38h-168v38z m0-77h168v-27h-168v27z m0-78h168v-19h-168v19z m324 185v-112h533v112h-533z m-40 80h613c22 0 40-18 40-40v-192c0-22-18-40-40-40h-613c-22 0-40 18-40 40v192c0 22 18 40 40 40z m-7 333h627c18 0 33-15 33-33v-205c0-19-15-34-33-34h-627c-18 0-33 15-33 34v205c0 18 15 33 33 33z" horiz-adv-x="1000" />

<glyph glyph-name="pencil" unicode="&#xe927;" d="M1000 694c0 86-70 156-156 156-51 0-97-25-125-62l-563-563 219-219 563 563c37 28 62 74 62 125z m-1000-844l94 313 219-219z" horiz-adv-x="1000" />

<glyph glyph-name="high-end-level-firewalls" unicode="&#xe928;" d="M380 79v-112h533v112h-533z m-40 80h613c22 0 40-18 40-40v-192c0-22-18-40-40-40h-613c-22 0-40 18-40 40v192c0 22 18 40 40 40z m-116 433v-116h-168v116h-56l140 233 140-233h-56z m-168-155h168v-77h-168v77z m0-232h168v-39h-168v39z m0-78h168v-39h-168v39z m0 194h168v-78h-168v78z m0-272h168v-38h-168v38z m0-77h168v-27h-168v27z m0-78h168v-19h-168v19z m331 518v-112h533v112h-533z m-40 80h613c22 0 40-18 40-40v-192c0-22-18-40-40-40h-613c-22 0-40 18-40 40v192c0 22 18 40 40 40z m-14 333h627c18 0 33-15 33-33v-205c0-18-15-33-33-33h-627c-18 0-33 15-33 33v205c0 18 15 33 33 33z" horiz-adv-x="1000" />

<glyph glyph-name="finacial-services-industries" unicode="&#xe929;" d="M612 808c144 0 261-114 261-255s-117-254-261-254c-145 0-262 114-262 254s117 255 262 255z m74-245c-14 9-31 15-50 18v72c29-8 29-26 29-34h60c0 33-13 59-39 76-14 8-31 14-50 17v29h-60v-29c-19-3-36-9-50-17-26-17-39-43-39-76s13-58 39-75c14-9 31-15 50-18v-72c-29 7-29 26-29 34h-60c0-33 13-59 39-76 14-9 31-14 50-17v-29h60v29c19 3 36 8 50 17 26 17 39 43 39 76s-13 58-39 75z m-139 56c0 8 0 26 29 34v-67c-29 7-29 25-29 33z m89-98c29-7 29-26 29-33s0-27-29-34v67z m-636-276c0 18 14 32 32 32h116v-354c0-17-14-31-31-31h-85c-18 0-32 14-32 31v322z m945-117c0 0 0 0 1 0 23 6 46-8 53-31 6-24-8-49-31-56l-307-103c-16-6-33-7-49-4l-244 49c-9 2-19 2-28 1l-91-10c-1 0-2 0-4 0-20 0-37 17-37 38v226c0 1 1 2 3 2l231 36c12 2 25 2 37-1l221-56c22-5 37-25 37-48 0-2 0-4-1-7-4-16-20-26-37-22l-131 32c-16 4-32-6-36-22 0 0 0 0 0 0-4-16 6-32 22-36l160-39c15-4 32-4 47 0l184 51z" horiz-adv-x="1000" />

<glyph glyph-name="manage-security-services-security-as-a-Services" unicode="&#xe92a;" d="M895 768c38-7 65-38 65-75v-153c0-50-14-99-43-146-23-36-54-71-94-103-66-54-131-83-134-84l-11-4-10 4c-3 1-68 30-134 84-40 32-71 67-94 103-29 47-43 96-43 146v153c0 37 27 68 65 75 64 11 123 44 152 63 19 12 41 19 64 19s46-7 65-19c29-19 88-52 152-63z m-245-279l-85 78-36-37 124-114 190 203-39 34-154-164z m-650-302c0 18 15 33 33 33h115v-337c0-18-15-33-33-33h-82c-18 0-33 15-33 33v304z m946-110c23 6 46-7 52-30 7-23-6-46-29-54l-308-99c-16-5-33-6-49-3l-231 44c-18 3-36 2-53-5l-64-23c-5-2-10-3-15-3-22 0-41 19-41 42v236c0 1 1 3 2 3l231 34c13 2 26 2 39-1l221-54c21-5 36-24 36-45 0-3 0-5-1-7-4-16-20-26-35-22l-134 31c-16 4-31-6-35-21 0 0 0-1 0-1-4-15 6-30 21-34l160-37c16-4 33-4 49 0l184 49z" horiz-adv-x="1000" />

<glyph glyph-name="sonicwall-university" unicode="&#xe92b;" d="M512 850c98 0 179-82 179-180s-81-177-179-177c-99 0-179 80-179 177s80 180 179 180z m59-357c42 0 83-10 120-27-63-16-122-38-179-68-57 30-116 52-179 68 37 17 78 27 120 27h118z m370-167c32 0 59-26 59-59v-119c0-33-27-60-59-60s-60 27-60 60v119c0 33 27 59 60 59z m-881 0c32 0 59-26 59-59v-119c0-33-27-60-59-60s-60 27-60 60v119c0 33 27 59 60 59z m16 119c146 0 265-30 376-96v-499c-110 73-228 121-376 121-15 0-28 13-28 29v30c63 0 115 53 115 119v118c0 66-52 119-115 119v30c0 16 13 29 28 29z m853-59c-64 0-115-53-115-119v-118c0-66 51-119 115-119v-30c0-16-13-29-29-29-148 0-266-48-376-121v499c111 66 230 96 376 96 16 0 29-13 29-29v-30z" horiz-adv-x="1000" />

<glyph glyph-name="group" unicode="&#xe92c;" d="M247 466c-106 0-192 86-192 192s86 192 192 192c106 0 192-86 192-192s-86-192-192-192z m-5-185l100 144h126c7 0 12-8 12-17v-540c0-10-5-18-12-18h-450c-7 0-12 8-12 18v540c0 9 5 17 12 17h128l96-144z m519 185c-106 0-192 86-192 192s86 192 192 192c106 0 192-86 192-192s-86-192-192-192z m-5-185l100 144h126c7 0 12-8 12-17v-540c0-10-5-18-12-18h-450c-7 0-12 8-12 18v540c0 9 5 17 12 17h128l96-144z" horiz-adv-x="1000" />

<glyph glyph-name="carriers-industries" unicode="&#xe92d;" d="M812 73l-31 29c71 77 110 178 110 284 0 233-188 422-421 422s-422-189-422-422c0-109 42-212 116-290l-31-29c-81 86-127 199-127 319 0 256 208 464 464 464s464-208 464-464c0-117-44-228-122-313z m-574-223v141c0 110 104 163 232 163s232-53 232-163v-141h-464z m474 302l-30 29c53 55 83 128 83 205 0 163-132 295-295 295s-295-132-295-295c0-76 29-147 80-202l-31-29c-58 62-92 144-92 231 0 187 151 338 338 338s337-151 337-338c0-89-34-172-95-234z m-242 45c-105 0-190 85-190 189s85 190 190 190c105 0 189-85 189-190s-84-189-189-189z" horiz-adv-x="939.5" />

<glyph glyph-name="CSSA-CSSP-certification-tranining" unicode="&#xe92e;" d="M836 24v-153c0-12-9-21-21-21-4 0-9 2-12 5l-89 72-90-72c-8-8-21-6-28 3-3 3-5 8-5 13v156c36-25 79-39 125-39 44 0 85 13 120 36z m27 4v16c48 42 78 105 78 175 0 127-101 230-225 230s-226-103-226-230c0-70 31-133 79-175v-16h-469c-55 0-100 45-100 100v622c0 55 45 100 100 100h800c55 0 100-45 100-100v-622c0-55-45-100-100-100h-37z m-7 614c-45 0-81 37-81 83 0 12-9 21-21 21h-530c-11 0-20-9-20-21 0-46-37-83-82-83-11 0-20-10-20-21v-375c0-12 9-21 20-21 45 0 82-37 82-83 0-12 9-21 20-21h265v42h-246c-9 52-49 93-100 102v337c51 9 91 50 100 102h493c8-52 49-93 100-102v-169h41v188c0 11-10 21-21 21z m-163-40h-408c-11 0-20-10-20-21v-84c0-11 9-20 20-20h408c11 0 21 9 21 20v84c0 11-10 21-21 21z m-429-231v-60h236v60h-236z m452 38c103 0 186-85 186-190 0-105-83-190-186-191-103 0-187 86-187 191s84 190 187 190z m0-84c-57 0-104-48-104-106s47-106 104-106c57 0 103 47 103 106 0 58-46 106-103 106z m0-170c-35 0-62 29-62 64s27 63 62 63c34 0 62-28 62-63s-28-64-62-64z" horiz-adv-x="1000" />

<glyph glyph-name="authorized-distributors" unicode="&#xe92f;" d="M228 652v-35c0-37 30-67 67-67h393c36 0 66 30 66 67v35h179c37 0 67-30 67-67v-668c0-37-30-67-67-67h-866c-37 0-67 30-67 67v668c0 37 30 67 67 67h161z m54 45c0 17 13 31 30 31h59c16 0 29 14 29 30 0 50 43 92 93 92 49 0 89-41 89-92 0-16 13-30 30-30h59c16 0 30-14 30-31v-61c0-16-14-30-30-30h-359c-17 0-30 14-30 30v61z m211 31c17 0 30 14 30 30s-13 31-30 31c-16 0-29-14-29-31s13-30 29-30z m369-427l-98 15-44 92c-10 20-37 20-46 0l-45-92-98-15c-21-3-30-30-14-45l71-72-17-101c-3-22 19-38 37-28l89 48 88-48c19-10 41 6 37 28l-17 101 72 72c15 15 7 42-15 45z m-455 104h-253c-17 0-31-16-31-36s14-37 31-37h253c18 0 32 17 32 37s-14 36-32 36z m0-145h-253c-17 0-31-16-31-36s14-36 31-36h253c18 0 32 16 32 36s-14 36-32 36z m0-145h-253c-17 0-31-16-31-36s14-36 31-36h253c18 0 32 16 32 36s-14 36-32 36z" horiz-adv-x="1000" />

<glyph glyph-name="healthcare-industries" unicode="&#xe930;" d="M387 719v-46h-52v46c0 44 36 80 80 80h162c43 0 79-36 79-80v-46h-51v46c0 16-13 28-28 28h-162c-16 0-28-12-28-28z m159-327v-76h76v-92h-76v-76h-92v76h-76v92h76v76h92z m377 246h-846c-42 0-77-34-77-77v-582c0-43 35-78 77-78h846c42 0 77 35 77 78v582c0 43-35 77-77 77z m-423-584c-119 0-216 96-216 216s97 216 216 216c119 0 216-97 216-216s-97-216-216-216z" horiz-adv-x="1000" />

<glyph glyph-name="retail-hospitality-industries" unicode="&#xe931;" d="M917 642h-209v41c0 46-37 84-83 84h-250c-46 0-83-38-83-84v-41h-209c-46 0-83-38-83-84v-125c0-46 37-83 83-83h334v21c0 11 9 21 21 21h125c11 0 20-10 20-21v-21h334c46 0 83 37 83 83v125c0 46-37 84-83 84z m-292 0h-250v41h250v-41z m363-314c8-4 12-11 12-19v-292c0-46-37-84-83-84h-834c-46 0-83 38-83 84v292c0 8 5 15 12 19 7 3 15 2 21-2 15-12 33-18 50-18h334v-62c0-12 9-21 21-21h125c11 0 20 9 20 21v62h334c18 0 35 6 50 18 6 4 14 5 21 2z" horiz-adv-x="1000" />

<glyph glyph-name="higher-education-industries" unicode="&#xe932;" d="M563 158l298 183c0 0 19 15 19-15 0-44 0-175 0-175 0-2 0-10 0-13 0-93-171-195-381-195s-381 102-381 195c0 3 0 11 0 13 0 0 0 124 0 165 0 37 26 21 26 21l291-179c17-10 40-16 64-16s46 6 64 16z m420 317l-442-271c-23-14-59-14-82 0l-442 271c-23 14-23 36 0 50l442 221c23 14 59 14 82 0l442-221c23-14 23-36 0-50z m-952-382c0 75 0 300 0 300s-1 14 8 10c7-4 23-13 29-18 7-6 5-19 5-19s0-205 0-273c0-4 3-5 5-6 15-9 26-26 26-45 0-29-24-52-52-52-29 0-52 23-52 52 0 19 10 36 26 45 1 1 5 2 5 6z" horiz-adv-x="1000" />

<glyph glyph-name="secure-first-partner-program" unicode="&#xe933;" d="M67 850h866c37 0 67-30 67-67v-866c0-37-30-67-67-67h-866c-37 0-67 30-67 67v866c0 37 30 67 67 67z m0-67v-866h866v866h-866z m0 67h866c37 0 67-30 67-67v-100h-1000v100c0 37 30 67 67 67z m200-233h466v-67h-466v67z m404-324h-10v48c0 87-69 160-156 162-3 0-7 0-10 0-87-2-156-75-156-162v-48h-10c-16 0-29-16-29-36v-237c0-20 13-36 29-36h342c16 0 28 16 28 36v237c0 20-12 36-28 36z m-139-154v-72c0-8-7-15-15-15h-34c-8 0-15 7-15 15v72c-8 8-13 18-13 30 0 23 18 43 40 44 3 0 7 0 10 0 22-1 40-21 40-44 0-12-5-22-13-30z m62 154h-189v48c0 52 43 95 95 95s94-43 94-95v-48z" horiz-adv-x="1000" />

<glyph glyph-name="email-threats-advanced-threats" unicode="&#xe934;" d="M207 848h588v-415l-198-147-80 67c-10 8-22 8-32 0l-81-67-197 146v416z m293-96c-18 0-33-14-33-33v-133c0-19 15-34 33-34s33 15 33 34v133c0 19-15 33-33 33z m0-300c18 0 33 15 33 34s-15 33-33 33c-18 0-33-15-33-33s15-34 33-34z m499 22l1-593c0-15-11-27-26-27-632-1-948-2-948-2-6 0-13 3-18 8-4 5-7 12-7 20-1 396-1 594-1 594 0 9 4 17 11 23l144 106v-67l-84-62 333-246 96 80 96-83 331 249-82 61v67h0l143-107c5-4 9-9 10-15 1-1 1-4 1-6z m-360-281l310-257-1 487-309-230z m-538-286l797 1-398 331-399-332z m-50 515l1-486 309 256-310 230z" horiz-adv-x="1000" />

<glyph glyph-name="sw-shield" unicode="&#xe935;" d="M124 622c0 39 23 74 58 91l276 128c27 12 57 12 84 0l276-128c35-17 58-52 58-91v-381c0-32-7-63-20-94-13-32-29-60-49-84-19-24-42-48-69-71-27-23-51-42-74-57-23-15-47-30-71-43-25-14-42-23-53-28-10-4-18-8-25-11-4-2-9-3-15-3-5 0-11 1-15 3-6 3-15 7-25 11-11 5-28 14-53 28-24 13-48 28-71 43-22 15-47 34-74 57-27 23-50 47-69 71-20 24-36 52-49 84-13 31-20 62-20 94v381z m373-477c0 0-195 122-94 202 104 81 389 116 389 116s-121 15-220 18c-12 0-25 0-38 0-169 0-321-33-276-153 43-114 239-183 239-183z" horiz-adv-x="1000" />

<glyph glyph-name="sw-client" unicode="&#xe936;" d="M511 850c2 0 3 0 4 0 160 0 289-42 382-127l11-10 1-14c2-311-4-487-21-540-23-70-88-138-153-176-7-4-84-51-104-63-1-1-1-1-3-1-30-19-55-34-74-44-10-7-19-12-26-15-3-2-6-4-9-5-1-1-3-2-5-2-4-2-8-3-15-3-14 0-10-2-127 69-1 0-1 0-3 1-20 12-97 59-103 63-66 38-131 106-154 176-17 53-23 229-20 540l0 14 11 10c94 85 222 127 382 127 1 0 2 0 4 0 5 0 8 0 11 0 3 0 6 0 11 0z m-80-314c1 4 2 6 3 9 52 54 118 54 197-3l76 98c-129 94-272 92-372-18-20-23-36-72-36-112 1-35 15-70 30-92 27-41 62-61 114-77 40-12 55-17 102-36 26-10 44-28 44-42 0-26-4-41-12-51-10-12-59-36-90-35-34 2-78 25-116 55l-81-93c58-47 121-81 192-84 74-3 160 39 195 81 28 34 39 75 39 127 0 73-54 128-123 156-50 20-68 26-112 39-27 8-37 14-45 26-4 5-9 20-10 28 0 7 2 16 5 24z" horiz-adv-x="1000" />

<glyph glyph-name="botnet-filter" unicode="&#xe937;" d="M721 327c-72-33-122-107-122-191 0-18 2-37 7-56h-40c0 17 0 34 0 52-1 25-11 36-36 36-60 1-120 1-180 0-24 0-34-11-35-35 0-17 0-35 0-53h-152c-1 3-2 4-2 5 0 109-3 218 2 326 6 126 99 227 221 253 8 1 21 6 21 11 1 16 4 37-5 47-46 52-38 98 26 128h29c16-13 36-23 47-40 18-27 9-60-17-83-9-8-16-47-9-57 3-3 8-5 13-6 142-30 231-138 232-283 0-18 0-36 0-54z m-415-79c42 0 77 35 76 76 0 42-36 77-77 77-41 0-77-36-76-77 0-43 34-77 77-76z m357 76c0 42-34 77-76 77-42 0-77-34-77-77 0-42 34-76 76-76 43-1 77 33 77 76z m-555-393c-14 6-19 15-18 27 1 18 0 36 0 54 1 19 9 25 33 25 62 0 124 0 186 0 148 0 295 0 442 0 33 0 40-4 40-29 0-17-1-34 0-50 1-12-4-21-18-27h-665z m11 484v-206c-57-15-92 12-88 62 2 28 0 56 0 84 0 40 20 59 60 60 9 0 18 0 28 0z m644-209v208c15 0 30 1 45-1 23-3 41-24 42-49 0-36 0-73 0-109-1-27-20-47-46-49-13-1-25 0-41 0z m48-356c-106 111-159 206-159 286 0 87 71 158 159 158s159-71 159-158c0-80-53-175-159-286z m0 222c35 0 63 29 63 64s-28 63-63 63c-35 0-64-28-64-63s29-64 64-64z" horiz-adv-x="1000" />

<glyph glyph-name="secureSD-WAN-useCases" unicode="&#xe938;" d="M200 90c49-50 109-85 175-104-15 17-29 36-42 58-18 28-32 58-45 90h-126c11-16 24-30 38-44z m-74 99h144c-15 52-24 108-26 165h-164c3-58 19-114 46-165z m0 385c-27-50-43-106-46-164h164c2 56 11 112 26 164h-144z m74 99c-14-13-27-28-38-43h126c13 32 27 62 45 89 13 22 27 42 42 59-66-19-126-55-175-105z m263 110c-23-15-54-46-83-93-12-19-22-39-32-60h115v153z m56 0v-153h115c-9 21-20 41-32 60-29 47-60 78-83 93z m264-110c-50 50-110 86-176 105 15-17 29-37 43-59 17-27 32-57 44-89h127c-12 15-24 30-38 43z m-328-700c17-20 36-39 59-57 0-1 1-1 1-1-6-1-11-1-18-1-2-1-4-1-6-1-2 0-4 0-6 1-123 1-238 50-325 137-88 88-137 206-137 331 0 125 49 242 137 331 87 87 202 135 325 137 2 0 4 0 6 0 2 0 4 0 6 0 123-2 238-50 325-137 55-55 95-121 117-193l-72 32c-4 7-7 15-11 22h-40l-75 33c-16 8-35 8-51 0l-75-33h-96v-43l-56-24v67h-135c-17-51-26-107-29-164h98v-56h-98c3-57 12-113 29-165h69v-55h-49c10-22 20-42 32-61 17-28 35-49 51-65 8-13 16-24 24-35z m485 467c22-10 37-32 37-57v-264c0-22-5-44-14-65-10-22-22-41-36-58s-31-33-50-48c-20-16-38-29-55-40-16-10-33-20-51-29-18-10-31-16-39-19-7-3-13-6-18-8-3-1-7-2-11-2s-8 1-11 2c-5 2-11 5-18 8-8 3-21 9-39 19s-35 19-51 29c-17 11-35 24-55 40-19 15-36 32-50 48-14 17-26 36-36 58-9 21-14 43-14 65v264c0 25 15 47 37 57l212 93c16 7 34 7 50 0l212-93z m-297-250c71 55 268 79 268 79s-83 10-152 12c-8 0-17 0-26 0-117 0-222-23-191-104 30-78 165-125 165-125s-134 84-64 138z" horiz-adv-x="1000" />

<glyph glyph-name="encrypted-threats-advancedThreats" unicode="&#xe939;" d="M564 138h-94v-76c20-6 33-24 33-46 0-27-21-49-48-49s-49 22-49 49c0 21 13 38 31 45v77h-83v-194c18-8 30-25 30-45 0-27-22-49-49-49s-48 22-48 49c0 21 14 40 34 46v193h-32c-29 0-52 23-52 51v29h-45c-6-20-24-34-46-34-27 0-49 22-49 49s22 49 49 49c20 0 37-13 45-30h46v78h-151c-9 0-16-8-16-17v-101c16-8 27-25 27-44 0-27-21-49-48-49s-49 22-49 49c0 22 15 41 36 47v98c0 28 23 50 50 50h151v82h-142c-6-19-25-33-46-33-27 0-49 21-49 48s22 49 49 49c20 0 37-12 45-30h143v49c0 28 23 51 52 51h3v54c0 120 96 217 216 217s216-97 216-217v-54h3c28 0 51-23 51-51v-55h79c9 0 17 8 17 17v23c-19 7-32 25-32 46 0 27 22 49 49 49s49-22 49-49c0-21-14-39-33-46v-23c0-28-22-50-50-50h-79v-81h127c7 20 25 34 46 34 27 0 49-22 49-49s-22-49-49-49c-20 0-38 13-45 31h-128v-84h111c6 19 24 33 46 33 26 0 48-22 48-49s-22-49-48-49c-21 0-38 13-46 31h-111v-19c0-28-23-51-51-51h-22v-44c18-7 30-25 30-45 0-27-21-49-48-49s-49 22-49 49c0 21 14 39 33 46v43h-73v-150c0-9 8-17 17-17h150c7 18 25 31 45 31 27 0 49-21 49-48s-22-49-49-49c-21 0-39 14-46 33h-149c-28 0-51 22-51 50v150z m95 441v54c0 84-68 152-151 152s-152-68-152-152v-54h303z m-141-364c0 0-130 84-63 138 69 56 259 80 259 80s-80 10-146 12c-122 4-242-16-209-104 28-79 159-126 159-126z" horiz-adv-x="1000" />

<glyph glyph-name="content-filtering-client_endpoint-security" unicode="&#xe93a;" d="M644 850h-542c-50 0-91-41-91-91v-639h91v639h542v91z m-88-947h-302c-50 0-91 41-91 92v610c0 50 41 91 91 91h497c50 0 91-41 91-91v-95h-91v95h-497v-610h302v-92z m86 231l-190 202c-11 12-18 29-18 46 0 37 30 66 67 66h421c17 0 34-6 46-18 27-25 28-67 3-94l-186-197v-256c0-18-14-33-33-33-5 0-11 1-15 4l-77 40c-11 5-18 17-18 29v211z" horiz-adv-x="1000" />

<glyph glyph-name="cloud-app-security-cloud-security" unicode="&#xe93b;" d="M899 199c0-36-29-65-64-65h-415c-35 0-64 29-64 65v238c0 34 0 51 7 59-78-43-130-126-130-221 0-5 0-10 0-15-11 2-23 3-35 3-109 0-198-91-198-204 0-109 82-198 186-205l581 0c4 0 8 0 12 0 122 0 221 102 221 229 0 80-40 151-101 192v-76z m-152 361v100c0 64-53 116-117 116s-117-52-117-116v-100h234z m-241-200c24-65 131-104 131-104s-106 69-51 114c57 46 213 66 213 66s-66 8-120 10c-101 2-199-14-173-86z m-55 197v111c0 98 80 178 178 178s179-80 179-178v-111h2c23 0 42-19 42-43v-286c0-24-19-43-42-43h-361c-24 0-43 19-43 43v286c0 24 19 43 43 43h2z" horiz-adv-x="1000" />

<glyph glyph-name="email-security-appliances" unicode="&#xe93c;" d="M817 847c24 0 45-20 45-45v-152c0-25-21-45-45-45h-772c-25 0-45 20-45 45v152c0 25 20 45 45 45h772z m-680-165c28 0 50 22 50 50 0 27-22 50-50 50-28 0-50-23-50-50 0-28 22-50 50-50z m680-96c24 0 45-20 45-45v-152c0-25-21-45-45-45h-772c-25 0-45 20-45 45v152c0 25 20 45 45 45h772z m-680-165c28 0 50 22 50 50 0 27-22 50-50 50-28 0-50-23-50-50 0-28 22-50 50-50z m120-96l1-241c-48 0-119 0-213 0-25 0-45 20-45 44v152c0 25 20 45 45 45 94 0 165 0 212 0z m-120-165c28 0 50 22 50 50 0 27-22 50-50 50-28 0-50-23-50-50 0-28 22-50 50-50z m191 165c-11 0-18-1-21-3s-3-4-1-7c1-2 6-7 14-13 4-3 7-6 8-8l324-265c229 188 345 283 346 285 3 2 3 5 0 7s-10 4-22 4h-648z m-24-43v-396c0-18 15-33 34-33h629c18 0 33 15 33 33v396l-348-303-348 303z" horiz-adv-x="1000" />

<glyph glyph-name="image-compare" unicode="&#xe93d;" d="M813 506c0-51-42-93-94-93s-94 42-94 93c0 52 42 94 94 94s94-42 94-94z m-813 157v-625c0-35 28-63 63-63h375v63h-375c0 0 0 0 0 0v624c0 0 0 1 0 1h375v62h-375c-35 0-63-28-63-62z m938 62h-375v125h-63v-1000h63v125h375c34 0 62 28 62 63v625c0 34-28 62-62 62z m0-687c0 0-1 0-1 0h-374v62h312v313l-219-188h-62l-31 39v399h374c0 0 1-1 1-1v-624z m-813 125v-63h313v320l-94 118z" horiz-adv-x="1000" />

<glyph glyph-name="device-management" unicode="&#xe93e;" d="M667 25h-667l81 146h586v-146z m137 425h-35c-57 0-102-45-102-102v-57h-475v357h612v-198z m0 0v-143z m-137-159v0z m238 159h-61v219c0 6-2 11-6 15s-8 5-14 5h-652c-6 0-11-2-15-5s-6-9-6-15v-397c0-5 2-10 6-14s9-6 15-6h495v-42h-539c-20 0-37 14-37 38 0 98 0 245 0 441 0 17 6 32 17 43s26 18 43 18h693c17 0 32-6 44-18s17-26 17-43v-239z m0 0v-143z m-238-240v0z m0 42v0z m177 198v-143z m-210-362c6 0 11 2 14 6s6 8 6 14c0 6-2 11-6 15s-8 6-14 6h-272c-6 0-10-2-14-6s-6-9-6-15c0-6 2-10 6-14s8-6 14-6h272z m88 237v23c0 26 21 47 47 47h185c25 0 46-21 46-47v-352c0-25-21-46-46-46h-185c-26 0-47 21-47 46v329z m97-319c-7 0-13-7-13-14s6-14 13-14h84c7 0 14 6 14 14s-7 14-14 14h-84z" horiz-adv-x="1000" />

<glyph glyph-name="endpoint-control" unicode="&#xe93f;" d="M660 19h-635c-27 0-32 12-15 35s52 72 106 144h544v-179z m187 433h-83c-57 0-104-46-104-104v-113h-529c-18 0-30 12-30 32 0 96 0 240 0 432 0 17 6 31 16 42s24 17 40 17h633c17 0 30-6 41-17s16-25 16-42v-247z m-279 88l31 44-34 34-44-31c-4 2-8 4-13 5s-8 4-13 5l-9 53h-48l-10-53c-4-1-9-3-13-5s-8-3-12-5l-44 31-35-34 32-44c-2-4-4-9-6-13s-4-9-5-13l-53-9v-49l53-9c1-4 3-9 5-13s4-9 6-13l-32-44 35-34 44 31c4-2 8-4 12-5s9-4 13-5l10-54h48l9 54c5 1 9 3 13 5s9 3 13 5l44-31 34 34-31 44c2 4 4 8 6 13s3 9 5 13l53 9v49l-53 9c-2 4-3 9-5 13s-4 9-6 13z m-106-108c-14 0-25 5-35 14s-14 21-14 34c0 14 5 26 14 35s21 14 35 14c13 0 25-5 34-14s14-21 14-35c0-13-4-25-14-34s-21-14-34-14z m255-107v23c0 26 21 47 47 47h189c26 0 47-21 47-47v-359c0-26-21-47-47-47h-189c-26 0-47 21-47 47v336z m99-326c-8 0-14-7-14-14s6-15 14-15h85c8 0 14 7 14 15s-6 14-14 14h-85z" horiz-adv-x="1000" />

<glyph glyph-name="camera" unicode="&#xe944;" d="M297 288c0-113 91-204 203-204s203 91 203 204-91 203-203 203-203-91-203-203z m641 343h-219c-16 63-31 125-94 125h-250c-62 0-78-62-94-125h-218c-35 0-63-28-63-62v-563c0-34 28-62 63-62h875c34 0 62 28 62 62v563c0 34-28 62-62 62z m-438-621c-153 0-277 124-277 278 0 153 124 277 277 277 153 0 277-124 277-277 0-154-124-278-277-278z m438 434h-125v62h125v-62z" horiz-adv-x="1000" />

<glyph glyph-name="private-cloud-firewall-cloud-security" unicode="&#xe946;" d="M752 472c16 0 29-13 29-29v-100c0-16-13-29-29-29h-504c-16 0-29 13-29 29v100c0 16 13 29 29 29h504z m0-174c16 0 29-13 29-29v-99c0-16-13-30-29-30h-504c-16 0-29 14-29 30v99c0 16 13 29 29 29h504z m-432 75c18 0 32 15 32 33 0 18-14 33-32 33-18 0-33-15-33-33 0-18 15-33 33-33z m0-173c18 0 32 14 32 32 0 18-14 33-32 33-18 0-33-15-33-33 0-18 15-32 33-32z m477 481c-7 1-14 5-18 11-40 61-105 99-174 99-4 0-8-1-13-1-6 0-12 2-16 6-42 35-93 54-146 54-96 0-180-62-220-155-3-8-11-14-19-15-105-17-186-118-186-239 0-116 74-213 171-236v71c0 9 2 18 4 26-52 19-90 74-90 139 0 80 59 146 131 146 4 0 7-1 11-1 21-2 40 13 45 36 17 78 80 133 153 133 41 0 80-18 110-50 10-11 24-16 38-13 9 2 18 3 27 3 51 0 96-31 118-82 8-18 25-29 43-27 4 1 9 1 13 1 72 0 131-66 131-146 0-65-38-120-90-139 2-8 4-17 4-26v-71c97 23 171 120 171 236 0 126-87 230-198 240z m-225-764c0-37-30-67-67-67s-67 30-67 67c0 36 30 66 67 66s67-30 67-66z m-100 233h66v-200h-66v200z m-334-200h734c18 0 33-15 33-33s-15-34-33-34h-734c-18 0-33 15-33 34s15 33 33 33z" horiz-adv-x="1000" />

<glyph glyph-name="public-cloud-firewall_cloud-security" unicode="&#xe947;" d="M752 528h-504c-16 0-29-14-29-31v-102c0-17 13-30 29-30h504c16 0 29 13 29 30v102c0 17-13 31-29 31z m-393-582v239h-56v-96c0-34-26-61-58-61h-119c-9-14-25-23-42-23-28 0-50 23-50 52s22 52 50 52c20 0 37-12 45-29h116c5 0 8 4 8 9v96h-5c-16 0-29 13-29 30v103c0 17 13 30 29 30h504c16 0 29-13 29-30v-103c0-14-9-26-22-29v-97c0-5 4-9 8-9h72c8 17 25 29 45 29 28 0 50-23 50-52s-22-52-50-52c-17 0-32 9-41 23h-76c-32 0-58 27-58 61v96h-67v-239c15-8 25-25 25-44 0-29-22-52-50-52s-50 23-50 52c0 19 10 36 25 44v239h-66v-135c15-9 25-26 25-45 0-28-23-52-50-52s-50 24-50 52c0 19 10 36 25 45v135h-67v-239c15-8 25-25 25-44 0-29-22-52-50-52s-50 23-50 52c0 19 10 36 25 44z m-39 480c-18 0-33 15-33 34 0 18 15 33 33 33 18 0 32-15 32-33 0-19-14-34-32-34z m0-180c18 0 32 15 32 34 0 19-14 34-32 34-18 0-33-15-33-34 0-19 15-34 33-34z m477 447c111-9 198-106 198-223 0-107-74-197-171-219v67c0 8-2 16-4 23 52 18 90 69 90 129 0 75-59 136-131 136-4 0-9 0-13-1-18-2-35 8-43 25-22 47-67 77-118 77-9 0-18-1-27-3-14-3-28 1-38 11-30 30-69 47-110 47-73 0-136-51-153-124-5-20-24-34-45-33-4 1-7 1-11 1-72 0-131-61-131-136 0-60 38-111 90-129-2-7-4-15-4-23v-67c-97 22-171 112-171 219 0 113 81 207 186 222 8 1 16 7 19 14 40 87 124 144 220 144 53 0 104-18 146-50 4-4 10-6 16-6 5 1 9 1 13 1 69 0 134-35 174-91 4-6 11-10 18-11z" horiz-adv-x="1000" />

<glyph glyph-name="VPN-clients-secure-remote-access" unicode="&#xe948;" d="M481 278c-12 7-19 19-19 34 0 21 17 38 38 38s39-17 39-38c0-15-8-27-20-34v-43c0-11-8-20-19-20s-19 9-19 20v43z m-89 127c-26-9-46-34-46-64v-106c0-37 30-67 67-67h174c37 0 67 30 67 67v106c0 30-19 55-46 64h1v44c0 61-49 109-109 109s-109-48-109-109v-44h1z m179 3h-141v41c0 39 31 71 70 71s71-32 71-71v-41z m331-363c54 0 98-43 98-97s-44-98-98-98c-53 0-97 44-97 98 0 16 4 31 11 45l-68 68c-67-57-153-92-248-92s-181 35-248 92l-68-68c7-14 11-29 11-45 0-54-43-98-97-98s-98 44-98 98c0 54 44 97 98 97 16 0 31-4 45-11l68 68c-57 67-92 154-92 248s35 181 92 248l-68 68c-14-7-29-11-45-11-54 0-98 44-98 97s44 98 98 98c54 0 97-44 97-98 0-16-4-31-11-45l68-68c67 57 154 92 248 92s181-35 248-92l68 68c-7 14-11 29-11 45 0 54 44 98 97 98s98-44 98-98c0-53-44-97-98-97-16 0-31 4-45 11l-68-68c57-67 92-153 92-248s-35-181-92-248l68-68c14 7 29 11 45 11z" horiz-adv-x="1000" />

<glyph glyph-name="email-security-email-security" unicode="&#xe949;" d="M782 609h-395c-37 0-67-29-67-66v-408c0-37 30-67 67-67h322c-19-24-43-48-70-71-28-24-54-44-77-59-24-16-49-31-74-45-26-14-44-23-55-28-11-5-19-9-26-12-5-2-10-3-16-3-6 0-11 1-16 3-6 3-15 7-26 12-11 5-29 14-54 28-26 14-51 29-74 45-24 15-50 35-78 59-28 24-52 48-72 73-20 25-37 54-50 86-14 32-21 65-21 98v419c0 28 18 54 45 63l313 109c22 7 45 7 66 0l313-109c27-9 45-35 45-63v-64z m-379-61h576c10 0 16-1 19-4s3-4 1-6c-2-2-104-81-308-238l-288 222c-1 2-4 4-7 6-7 5-11 9-13 11s-1 4 1 6c3 2 9 3 19 3z m-21-62l309-253 309 253v-325c0-19-15-34-33-34h-552c-18 0-33 15-33 34v325z" horiz-adv-x="1000" />

<glyph glyph-name="email-security" unicode="&#xe94a;" d="M219 574v119c0 27 16 52 41 62l215 90c17 7 35 7 52 0l215-90c25-10 41-35 41-62v-119h98c66 0 119-51 119-113v-497c0-63-53-114-119-114h-762c-66 0-119 51-119 114v497c0 62 53 113 119 113h100z m662-624c10 0 18 7 18 14v426l-312-266c-50-43-124-43-173 0l-313 266v-426c0-7 8-14 18-14h762z m-662 624v-136c0-22 5-43 15-64 10-21 22-40 36-56 15-17 32-33 52-48 21-16 39-28 56-39 17-10 35-20 54-29 18-9 31-15 39-18 8-4 14-6 19-8 3-1 7-2 11-2 4 0 8 1 12 2 4 2 11 4 18 8 8 3 21 9 40 18 18 9 36 19 53 29 17 11 36 23 56 39 20 15 37 31 52 48 14 16 27 35 36 56 10 21 15 42 15 64v136h-564z m245-351c0 0-176 65-215 173-41 112 96 144 249 144 11 0 23 0 34-1 90-2 199-16 199-16s-258-33-351-110c-91-75 84-190 84-190z" horiz-adv-x="1000" />

<glyph glyph-name="cloud-security" unicode="&#xe94b;" d="M424 685c0 26 15 49 39 60l206 95c18 8 38 8 56 0l206-95c24-11 39-34 39-60v-277c0-23-5-46-15-68-9-23-21-43-35-60-14-18-31-35-50-51-20-17-38-30-54-41-17-11-34-22-52-31-18-10-30-17-38-20-7-4-13-6-18-8-3-2-7-3-11-3-4 0-8 1-11 3-5 2-11 4-18 8-8 3-20 10-38 20-18 9-35 20-52 31-16 11-34 24-54 41-19 16-36 33-50 51-14 17-26 37-35 60-10 22-15 45-15 68v277z m277-347c0 0-133 88-64 144 71 58 267 84 267 84s-83 10-151 12c-9 0-17 0-26 0-116 0-221-24-190-109 30-82 164-131 164-131z m-701-268c0-120 97-216 216-216h568c119 0 216 96 216 216 0 60-25 117-68 157-1 1-45-44-65-58 32-28 42-65 42-99 0-69-56-125-125-125h-568c-69 0-125 56-125 125 0 53 34 100 84 117l32 11-1 34c-1 3-1 5-1 9 0 100 81 181 181 181v91c-144 0-262-112-272-253-69-37-114-109-114-190z" horiz-adv-x="1000" />

<glyph glyph-name="access-point-secure-wireless" unicode="&#xe94c;" d="M879 282c52 0 95-43 95-96s-43-95-95-95c-42 0-77 27-90 64h-82l-54-110c-6-11-17-18-29-18h-94c-17 0-32 14-32 32s15 32 32 32h74l55 110c6 10 17 17 29 17h101c13 37 48 64 90 64z m0-237c52 0 95-43 95-95s-43-96-95-96c-42 0-77 27-90 64h-259c-17 0-32 14-32 32s15 32 32 32h259c13 37 48 63 90 63z m22 473c53 0 96-42 96-95s-43-96-96-96c-41 0-76 27-89 64h-84l-118-177c-6-9-16-14-27-14h-154c-18 0-32 14-32 32s14 32 32 32h137l118 177c6 8 16 14 26 14h102c13 37 48 63 89 63z m-878-34c-13 32-20 66-20 102 0 34 7 67 19 99 14 33 33 62 59 88 25 25 54 45 87 58 32 13 66 19 101 19s68-7 100-20c33-14 63-33 89-59 25-26 45-55 59-89 13-32 20-66 20-100 0-35-7-68-19-100-14-33-33-63-58-88-32-32-71-55-114-67l1-239 55-1c10 0 20-6 24-17 1-2 2-5 2-7l0-100c0-11-6-20-17-24-2-1-5-1-7-1l-56 0 0-63c0-10-6-20-17-24-2-1-5-1-7-1l-101 0c-2 1-5 1-7 2-11 4-17 14-17 24l-2 452c-43 12-83 36-115 68-25 25-45 55-59 88z m341 5c25 25 38 58 38 93 0 0 0 0 0 1 0 35-14 68-39 93-25 25-58 39-94 40-35 0-68-14-93-39-25-25-39-58-38-93 0-35 14-69 39-94 25-25 58-39 94-39 35 0 68 14 93 38z" horiz-adv-x="1000" />

<glyph glyph-name="wireless-mobile-access-use-cases" unicode="&#xe94d;" d="M536 300l40-38v-356c0-31-25-56-56-56h-463c-31 0-57 25-57 56v888c0 31 26 56 57 56h463c31 0 56-25 56-56v-145l-40-20v127h-495v-795h495v339z m-170 502h-156c-3 0-7-3-7-7s4-7 7-7h156c4 0 7 3 7 7s-3 7-7 7z m-215-388c-6 16-10 34-10 53 0 18 3 35 10 52 7 17 17 33 30 46 13 13 29 24 46 30 16 7 34 10 52 10s36-3 52-10c17-7 33-18 46-31 14-13 24-29 31-47 7-16 10-34 10-52 0-18-3-36-10-53-6-17-17-32-30-46-16-16-37-28-59-35l1-125 28 0c6 0 11-4 13-9 0-2 1-3 1-4l0-52c0-6-3-11-9-13-1-1-2-1-4-1l-29 0 0-32c0-6-3-11-8-13-2 0-3-1-4-1l-53 1c-1 0-2 0-4 0-5 3-8 8-8 13l-1 237c-23 6-43 19-60 35-13 14-24 29-31 47z m178 1c12 13 19 31 19 49 0 0 0 0 0 0 0 19-7 36-20 49-13 14-30 21-49 21-18 0-35-7-48-20-13-13-20-30-20-49 0-19 7-36 20-49 13-13 31-21 49-21 18 0 36 7 49 20z m665 87c4-2 6-8 6-15s-2-10-6-14l-30-29c-8-9-21-9-29 0-53 52-126 85-208 85s-156-33-209-85c-8-9-21-9-29 0l-29 29c-5 4-7 8-7 14s2 11 7 15c67 69 162 111 267 111s197-42 267-111z m-415-117c38 38 89 61 148 61s109-23 147-61c8-8 8-21 0-29l-30-29c-8-9-21-9-29 0-23 21-55 35-88 35s-66-12-89-35c-8-9-21-9-29 0l-30 29c-8 8-8 21 0 29z m148-190c-24 0-42 19-42 42s18 42 42 42c23 0 42-19 42-42s-19-42-42-42z" horiz-adv-x="1000" />

<glyph glyph-name="secure-mobile-access-appliances-secure-remote-access" unicode="&#xe94e;" d="M528 69l40-38v-122c0-30-25-55-56-55h-456c-31 0-56 25-56 55v882c0 30 25 55 56 55h456c31 0 56-25 56-55v-144l-40-20v126h-488v-790h488v106z m-167 730h-154c-4 0-7-3-7-7s3-7 7-7h154c3 0 6 3 6 7s-3 7-6 7z m-213-386c-7 16-10 34-10 52 0 18 3 35 10 51 7 17 17 33 30 46 13 13 28 23 45 30 17 6 34 10 52 10s35-4 52-11c17-7 32-17 45-30 14-13 24-29 31-46 7-17 10-34 10-52 0-18-3-35-10-52-6-17-17-32-30-45-16-16-36-28-58-35l0-123 29 0c5 0 10-4 12-9 1-1 1-3 1-4l0-51c0-6-3-11-9-13-1 0-2-1-3-1l-29 1 0-33c0-5-3-10-9-12-1-1-2-1-4-1l-52 1c-1 0-2 0-3 0-6 2-9 7-9 13l-1 233c-23 6-43 18-59 35-14 13-24 29-31 46z m176 2c13 13 20 30 20 48 0 0 0 0 0 1 0 18-7 35-20 48-13 13-31 20-49 20-18 0-35-7-48-20-13-12-20-30-20-48 0-18 7-35 20-48 13-13 31-20 49-20 18-1 35 7 48 19z m166 93c0 27 15 51 39 62l188 86c18 8 38 8 56 0l188-86c24-11 39-35 39-62v-255c0-22-4-43-13-64-9-21-20-40-33-56-14-17-29-33-47-48-19-15-35-28-51-39-15-10-31-19-48-28-17-10-29-16-36-19-7-3-12-6-17-8-3-1-6-2-10-2-4 0-7 1-10 2-5 2-10 5-17 8-7 3-19 9-36 19-17 9-33 18-48 28-16 11-33 24-51 39-18 15-34 31-47 48-13 16-24 35-33 56-9 21-13 42-13 64v255z m259-321c0 0-125 82-60 135 66 54 250 78 250 78s-78 10-142 12c-8 0-16 0-24 0-109 0-207-22-178-102 28-77 154-123 154-123z" horiz-adv-x="1000" />

<glyph glyph-name="partner-portal" unicode="&#xe94f;" d="M832 563v-319c95-13 168-95 168-194 0-108-88-196-196-196s-196 88-196 196c0 98 71 178 164 194v550c0 16 13 28 30 28s30-12 30-28v-12h103c18 0 33-15 33-33v-43c0-19-15-33-33-33h-43v-76c0-19-15-34-33-34h-27z m-28-628c64 0 115 52 115 115s-51 116-115 116c-64 0-115-52-115-116s51-115 115-115z m-525 466c-123 0-222 100-222 223s99 222 222 222c123 0 222-100 222-222s-99-223-222-223z m-6-161l116 114h146c7 0 14-6 14-14v-429c0-7-7-14-14-14h-521c-8 0-14 7-14 14v429c0 8 6 14 14 14h149l110-114z" horiz-adv-x="1000" />

<glyph glyph-name="remote-access-mangement-reporting-secure-remote-access" unicode="&#xe950;" d="M531 332l8-205 235-97c21 36 60 61 105 61 67 0 121-54 121-120s-54-121-121-121c-62 0-114 47-120 108l-260 110-258-102c-2-64-55-116-120-116-67 0-121 54-121 121s54 120 121 120c45 0 85-25 105-61l236 93v214c-3 2-6 4-9 7l-82 82c-27 26-27 69 0 95l82 82c26 26 68 26 94 0l82-82c26-26 26-69 0-95l-82-82c-5-5-10-9-16-12z m-31 518c104 0 198-41 267-108l-49-48c-56 55-133 89-218 89s-162-34-218-89l-49 48c69 67 163 108 267 108z m-167-186c44 42 104 68 171 68s127-26 171-68l-49-47c-31 30-74 48-122 48s-91-18-122-48l-49 47z" horiz-adv-x="1000" />

<glyph glyph-name="Phishing" unicode="&#xe955;" d="M691 322c79-38 178-24 245 43 84 85 86 219 4 301s-216 80-300-5c-65-64-81-157-49-235l-275-275c-39-39-103-40-141-2-35 35-37 92-7 131 3-3 5-7 8-10 29-28 75-27 104 2l109 109c9 8 14 19 16 31 4 29-16 55-45 59-24 3-40 4-49 4-95 2-181-28-236-82-98-98-100-254-5-349s251-93 348 5l273 273z m41 146c-34 34-34 90 0 124s90 35 125 0c34-34 34-90 0-124s-90-34-125 0z" horiz-adv-x="1000" />

<glyph glyph-name="WAN-acceleration-firewalls" unicode="&#xe956;" d="M646 543l-40-92c-129 38-268 8-371-86-21-19-55-19-77 0-21 20-21 51 0 71 135 123 320 160 488 107z m-86-231l-46-106c-47 3-96-14-132-50-22-22-57-22-78 0-22 22-22 57 0 79 69 70 166 96 256 77z m207 49l31 106c11-9 22-18 33-27 21-20 21-51 0-71-11-9-25-14-39-14-8 0-17 2-25 6z m-71 224c11 25 40 38 66 29 27-10 41-38 32-65l-204-643c-14-42-59-66-101-52-1 0-2 0-3 1-41 15-63 61-48 102 1 1 1 2 1 3l257 625z m-680 69c267 261 701 261 968 0 21-21 21-54 0-74-10-10-24-15-37-15s-28 5-38 15c-226 221-592 221-817 0-22-21-55-21-76 0-21 21-21 54 0 74z" horiz-adv-x="1000" />

<glyph glyph-name="public-sector-industries" unicode="&#xe957;" d="M464 787v30c0 18 15 33 33 33s34-15 34-33v-30c155-16 277-148 277-309h-621c0 161 121 293 277 309z m-314-403c-18 0-32 15-32 33 0 18 15 32 32 32h700c18 0 32-14 32-32 0-18-14-33-32-33h-33c0 0 1 0 1-1v-140h-65v140c0 0 0 1 0 1h-31c0 0 1 0 1-1v-140h-65v140c0 0 0 1 0 1h-31c0 0 1 0 1-1v-140h-65v140c0 0 0 1 0 1h-31c0 0 1 0 1-1v-140h-65v140c0 0 0 1 0 1h-31c0 0 1 0 1-1v-140h-65v140c0 0 0 1 0 1h-31c0 0 0 0 0-1v-140h-64v140c0 0 0 1 0 1h-31c0 0 0 0 0-1v-140h-64v140c0 0 0 1 0 1h-33z m791-469h-33v227h33c18 0 32 15 32 33 0 17-14 32-32 32h-882c-17 0-32-15-32-32 0-18 15-33 32-33h33v-227h-33c-17 0-32-15-32-33 0-18 15-32 32-32h882c18 0 32 14 32 32 0 18-14 33-32 33z m-178 0v227h55v-227h-55z m-290 227h54v-227h-54v227z m-91-227h-54v227h54v-227z m236 227h54v-227h-54v227z m-435 0h54v-227h-54v227z" horiz-adv-x="1000" />

<glyph glyph-name="manage-security-services-manage-security-services" unicode="&#xe958;" d="M479 428l-125-213c30-29 51-65 60-107h172c10 44 33 83 65 112l-123 209c-9-1-18-2-28-2-7 0-14 1-21 1z m-45 10c-84 28-144 107-144 201 0 116 94 211 210 211s210-95 210-211c0-91-57-168-136-198l114-195c30 17 65 27 102 27 116 0 210-95 210-212s-94-211-210-211c-115 0-209 95-209 211 0 5 0 9 0 14h-162c0-5 0-9 0-14 0-116-93-211-209-211s-210 95-210 211c0 117 94 212 210 212 40 0 77-12 109-31l115 196z m139 227c-3 2-6 4-9 4h-5v25c0 17-5 31-17 42s-26 18-42 18c-16 0-30-6-42-18-11-11-17-25-17-42v-25h-4c-4 0-7-2-9-4-3-3-4-6-4-9v-77c0-4 1-7 4-9 2-3 5-4 9-4h127c3 0 6 1 9 4 2 2 3 5 3 9v77c0 3-1 6-3 9z m290-577c-3 2-6 3-9 3h-4v26c0 16-6 30-18 42s-25 18-42 18c-16 0-30-6-41-18-12-12-18-26-18-42v-26h-4c-4 0-7-1-9-3-3-3-4-6-4-10v-76c0-4 1-7 4-10 2-2 5-3 9-3h127c3 0 6 1 9 3 2 3 4 6 4 10v76c0 4-2 7-4 10z m-581 0c-2 2-5 3-9 3h-4v26c0 16-6 30-17 42s-26 18-42 18c-17 0-30-6-42-18-12-12-18-26-18-42v-26h-4c-3 0-6-1-9-3-2-3-4-6-4-10v-76c0-4 2-7 4-10 3-2 6-3 9-3h127c4 0 7 1 9 3 3 3 4 6 4 10v76c0 4-1 7-4 10z m255 580h-74v28c0 10 4 19 11 26s16 11 26 11 19-4 26-11c7-7 11-16 11-26v-28z m292-577h-74v28c0 10 3 19 11 26s16 11 26 11 19-4 26-11c7-7 11-16 11-26v-28z m-582 0h-74v28c0 10 4 19 11 26s16 11 26 11 19-4 26-11c7-7 11-16 11-26v-28z" horiz-adv-x="1000" />

<glyph glyph-name="k-12-education-industries" unicode="&#xe959;" d="M723 372h198c44 0 79-35 79-78v-304c0-43-35-79-79-79h-303c-44 0-79 36-79 79v304c0 12 3 23 8 34h-94c5-11 8-22 8-34v-304c0-43-35-79-79-79h-303c-44 0-79 36-79 79v304c0 43 35 78 79 78h198c-5 11-7 22-7 35v303c0 43 35 79 78 79h304c43 0 79-36 79-79v-303c0-13-3-24-8-35z m107-182c0 39-31 71-70 71h-28c-12 0-22-10-22-22v-194c0-12 10-22 22-22h49c39 0 70 31 70 70 0 25-12 47-32 59 7 11 11 24 11 38z m-599 26c14 0 26-11 26-26 0-12 10-22 22-22s22 10 22 22c0 39-31 71-70 71s-71-32-71-71v-97c0-39 32-70 71-70s70 31 70 70c0 13-10 23-22 23s-22-10-22-23c0-14-12-26-26-26s-27 12-27 26v97c0 15 12 26 27 26z m241 240l7 28h42l8-28c2-10 11-17 21-17 2 0 4 0 6 1 12 3 19 15 16 27l-50 194c-3 10-12 16-22 16s-19-6-22-16l-50-194c-3-12 4-24 16-27 12-3 24 4 28 16z m288-240c14 0 26-11 26-26s-12-26-26-26h-6v52h6z m-6-149v53h27c14 0 26-12 26-27s-12-26-26-26h-27z m-244 461h-20l10 38 10-38z" horiz-adv-x="1000" />

<glyph glyph-name="management-reporting" unicode="&#xe95a;" d="M559 547c0-86 71-156 158-156 87 0 158 70 158 156 0 86-71 156-158 156v-156h-158z m119 36v156c-87 0-158-70-158-156h158z m-153-337h318c18 0 32 15 32 32s-14 32-32 32h-345c-29 50-72 90-123 115h39c18 0 32 14 32 32s-14 32-32 32h-257c-18 0-32-14-32-32 0-11 5-21 14-26-59-25-108-70-139-125v477c0 35 29 63 64 63h872c36 0 64-28 64-63v-624c0-35-28-63-64-63-155 1-292 1-409 2 6 22 9 45 9 70 0 27-4 53-11 78z m-368 422c-18 0-32-15-32-33s14-32 32-32h257c18 0 32 15 32 32s-14 33-32 33h-257z m220-627c-68-68-177-68-245 0-68 68-68 177 0 245 68 67 177 67 245 0 67-68 67-177 0-245z m57 302c-99 99-260 99-359 0s-100-260 0-360c87-87 221-97 320-32l83-82c20-20 51-20 71 0s20 51 0 71l-83 82c66 99 55 234-32 321z" horiz-adv-x="1000" />

<glyph glyph-name="secure-remote-access" unicode="&#xe95b;" d="M852 693c98-98 148-227 148-356l-91 1c-1 105-41 210-122 291s-185 121-291 121l0 91c129 0 258-49 356-148z m-336-21c81-1 163-33 227-96s95-145 96-227l-91 2c-1 58-24 116-69 161s-104 68-162 69l-1 91z m141-351l-195 195c-18 18-46 18-64 0l-385-384c-18-18-17-47 1-65l195-195c18-18 46-18 64 0l385 385c17 17 17 46-1 64z m-289-95c-36 36-37 94-1 129s93 35 129-1 36-93 1-129c-36-35-94-35-129 1z" horiz-adv-x="1000" />

<glyph glyph-name="risk-meters-risk-management" unicode="&#xe95c;" d="M779 47c-158-146-400-146-558 0 158 145 400 145 558 0z m-245 244c-28-25-74-7-93 25-18 33-11 82 25 93l292 90-224-208z m1 59c0 20-15 35-35 35s-35-15-35-35c0-19 16-35 35-35s35 16 35 35z m-35 500c-276 0-500-224-500-500s224-500 500-500c276 0 500 224 500 500 0 276-224 500-500 500z m0-912c-221 0-403 175-412 396h44c9 0 17 7 17 16s-8 17-17 17h-44c2 61 19 121 47 175l39-22c8-5 18-2 22 6s2 18-6 22l-38 22c33 52 76 95 127 128l23-38c4-8 14-11 22-6 8 4 11 15 6 22l-22 39c54 28 114 45 176 47v-44c-1-9 6-17 15-17 1 0 1 0 1 0 9 0 17 7 17 16v44c61-2 121-18 175-47l-22-38c-5-8-2-18 6-23 8-4 18-2 22 6l22 39c52-33 95-76 128-127l-38-22c-8-5-11-15-6-23 4-8 15-11 22-6l39 22c28-54 45-114 47-175h-44c-9 0-17-7-17-17s8-16 17-16h44c-9-221-191-396-412-396 0 0 0 0 0 0z" horiz-adv-x="1000" />

<glyph glyph-name="state-local-industries" unicode="&#xe95d;" d="M500 849c-96 0-175-79-175-175 0-58 22-93 72-166 27-39 61-88 103-158 43 70 76 119 103 158 50 73 73 108 73 166 0 96-79 175-176 175z m0-263c-48 0-87 39-87 88s39 87 87 87c49 0 88-39 88-87s-39-88-88-88z m480-76c23-36 26-69 10-100-10-20-18-69-41-89-32-28-47-65-47-114 1-55-20-91-36-118-18-31-29-49-9-97 14-34 12-67-6-100l-23-41-27 38c-70 99-72 99-145 81-45-11-23-6-129-28-1-2 0-6-23-88-29 20-45 19-81 63-16 18-32 37-102 68-343 154-346 212-301 448 18 92 16 98 20 126 193-29 220-33 281-42 9-13 18-27 28-42 90-132 108-168 151-238 41 65 64 109 140 220 13-4 13-5 40-17l-18-35c-2-4-4-7-5-11-5-12 1-22 11-15 19 16 40 34 66 25 24-8 33-34 36-43 2-9 4-14 6-17 13 8 36 37 51 55 24 29 23 30 45 44 18 12 41 27 56 63l22 50 30-46z" horiz-adv-x="1000" />

<glyph glyph-name="ns-v" unicode="&#xe95e;" d="M603 86c0 9 1 42 4 99 1 10 1 17 2 21 1 4 3 8 7 10 3 3 8 4 15 4 9 0 14-2 16-5 3-3 4-10 4-19 0-11-1-30-4-59-2-28-3-49-3-63 0-28 6-42 17-42 17 0 37 17 61 51s45 72 64 114c2 57 13 86 34 86 9 0 16-4 20-10 5-6 8-13 8-19 0-5-3-11-7-19s-9-18-13-32c-5-14-33-98-40-49-21-42-44-77-70-107s-51-44-74-44c-28 0-41 28-41 83z m-585 217c-12 43-18 88-18 133v232c0 6 1 11 4 15 2 5 6 9 10 11 35 19 61 33 78 43l163-505v593c4 2 35 21 43 25l1-847c-2-2-4-2-6-2-2 1-4 2-5 2l-38 18c-9 4-19 9-28 14-91 281-150 464-178 549-1 4-1-113 0-353-16 41-24 64-26 72z m304 547l281-163c5-3 8-6 11-11 2-4 4-9 4-15v-226c0-46-6-90-18-133-13-42-30-81-52-118-22-36-49-69-81-97-31-28-66-51-106-68-16-8-29-14-37-18l-2 849z m251-495c0 28-5 52-16 70-11 19-26 33-45 44-6 2-11 5-16 7-5 3-10 5-15 7s-10 5-15 7c-5 3-10 5-16 8-15 8-27 18-36 31s-14 29-14 50c0 14 2 25 5 36 3 10 8 19 14 26s13 13 21 16c7 4 16 6 25 6 11 0 21-3 31-10 9-6 17-14 24-24 7-10 14-22 19-35 6-12 10-25 14-39h4v110h-4c-3-4-5-9-8-14-3-5-4-7-5-7 0 0-2 1-5 4-3 3-8 7-14 10s-13 7-22 10c-9 3-21 4-33 4-14 0-27-2-40-7-12-5-23-13-33-23-9-11-17-24-22-39-6-16-9-34-9-55 0-13 2-25 5-36s7-22 12-31c6-9 12-17 19-24 6-7 14-12 21-17 7-3 12-6 17-8 5-2 9-4 14-7 4-2 9-4 14-7s12-5 18-8c7-4 14-8 20-12s11-10 16-16c4-6 7-13 10-22 3-8 4-18 4-29 0-27-7-49-20-65-13-16-30-24-51-24-8 0-16 2-24 6-8 3-14 7-19 10s-10 9-15 16c-6 6-11 14-16 23-4 9-9 18-13 29-4 10-7 20-10 31h-4l1-118h4c2 4 5 9 8 13 3 5 4 7 5 7s3-1 7-4c3-2 8-6 15-9 6-3 15-6 25-8 10-3 22-4 36-4 16 0 32 3 46 8 13 5 25 13 35 24 10 10 18 23 24 38s7 32 7 51z" horiz-adv-x="1000" />

<glyph glyph-name="Undetectable-Threats" unicode="&#xe95f;" d="M440 300h-80v56h-40v-56h-42c-5 0-9 4-9 9v55c-42 35-69 87-69 145 0 105 90 191 200 191s200-86 200-191c0-62-30-116-77-151v-49c0-5-4-9-9-9h-34v56h-40v-56z m-159 177c37-13 68 2 94 46l-131 54c-12-54 1-87 37-100z m231 0c36 13 49 46 37 100l-131-54c26-44 57-59 94-46z m118 119l86 86c46-65 71-143 71-225 0-106-41-204-115-279-75-74-173-115-279-115-81 0-160 25-225 71l86 86c42-24 90-38 139-38 74 0 143 29 194 81 91 90 105 228 43 333z m-107 103c-40 21-84 32-130 32-73 0-142-29-194-80-51-52-80-121-80-194 0-46 11-90 32-129l-87-87c-41 63-64 138-64 216 0 105 41 204 115 278 75 74 173 115 278 115 78 0 153-22 216-64l-86-87z m458-737c12-12 19-29 19-46 0-18-7-34-19-47-13-12-29-19-47-19s-34 7-46 19l-201 201c-25 25-25 67 0 93 12 12 29 19 47 19s34-7 46-19l201-201z m-291 869l71-71-681-681-71 71 681 681z" horiz-adv-x="1000" />

<glyph glyph-name="0day-Threats-Off-Network" unicode="&#xe960;" d="M308 850h-95v-200h95v200z m480 0h-96v-200h96v200z m40-650l-292-286c-47 12-83 54-83 105 0 60 49 108 110 108 7 0 15-1 22-2 9 67 68 119 140 119 40 0 77-17 103-44z m74-95c48-7 86-47 86-97 0-53-45-97-99-97-3 0-5 0-8 0-1 0-2 0-3 0h-173l197 194z m-43 127c-7 8-15 15-24 22v242h-728v-485h314c5-38 27-71 58-93h-362c-57 0-104 47-104 104v624c0 57 47 104 104 104h52v-104h157v104h314v-104h156v104h53c57 0 104-47 104-104v-359l-18 19-76-74z m76 31l43-42-381-371-42 42 380 371z m-408-64c1 1 1 3 2 5 6 16 9 42 9 79 0 36-3 63-9 79s-16 24-29 24c-13 0-23-8-29-24s-9-42-9-79c0-37 3-63 9-79 5-14 13-22 23-24-17-14-31-33-40-55-15 7-27 18-38 33-19 29-28 71-28 125 0 54 9 95 28 124s48 43 84 43c36 0 64-14 84-43 18-28 28-68 29-120-24-20-43-49-52-81-12-1-23-3-34-7z" horiz-adv-x="1000" />

<glyph glyph-name="Intrusions-Off-Network" unicode="&#xe961;" d="M653 523c-8 0-15-6-19-16-1-3-2-7-4-12-11-39-35-120-117-120s-107 81-118 120c-2 5-3 9-4 12-4 10-10 16-18 16-7 3-21 36-23 55 47 15 101 22 163 22s115-7 162-22c-2-19-16-52-22-55z m172-291l-291-282c-48 11-84 53-84 103 0 59 49 106 110 106 7 0 15 0 22-2 9 67 68 118 140 118 41 0 77-17 103-43z m67-82c47-6 83-49 83-100 0-55-43-100-96-100-3 0-5 0-7 0-1 0-2 0-3 0h-169l192 200z m104 123l-64 61-79-76c-33 35-80 57-133 57-78 0-145-48-170-116-73-5-130-64-130-135 0-48 25-90 64-114h-329c-39 0-73 31-81 74l-72 258c-1 7-2 14-2 21 0 59 43 106 97 106h95c-13 27-25 66-25 115 0 58 24 85 87 156 152 170 237 170 246 170s88 8 244-170c62-72 89-98 89-156 0-49-12-88-24-115h94c54 0 97-47 97-106 0-7-1-14-2-21l-2-9z m-21-73l-18-50c-10 5-21 10-32 13l50 37z m-42 100l42-42-408-408-42 42 408 408z" horiz-adv-x="1000" />

<glyph glyph-name="Malware-Off-Network" unicode="&#xe962;" d="M851 270l-270-261c-45 11-78 50-78 96 0 54 46 98 102 98 7 0 14-1 21-2 9 62 63 109 130 109 37 0 71-15 95-40z m69-87c45-6 80-43 80-88 0-49-41-88-92-88-2 0-5 0-7 0-1 0-3 0-4 0h-160l183 176z m-36 119c-31 33-77 54-127 54-16 0-31-2-46-6-6 24-27 41-54 41h-55c8 13 15 28 18 43h82v-11c0-6 5-10 11-10s11 4 11 10v43c0 6-5 11-11 11s-11-5-11-11v-11h-78c0 4 0 7 0 11 0 15-2 29-7 43h62c31 0 56 23 56 53v42c18 0 33 15 33 32s-15 32-33 32c-19 0-33-14-33-32 0-9 4-18 11-23v-51c0-18-15-32-34-32h-71c-24 44-72 74-128 74s-103-30-127-74h-71c-19 0-34 14-34 32v51c7 5 11 14 11 23 0 18-14 32-33 32s-33-14-33-32c0-17 15-32 33-32v-42c0-30 25-53 56-53h62c-5-14-7-28-7-43 0-4 0-7 0-11h-78v11c0 6-5 11-11 11s-11-5-11-11v-43c0-6 5-10 11-10s11 4 11 10v11h82c3-15 10-30 18-43h-55c-31 0-56-23-56-53v-53c-18 0-33-14-33-32s15-32 33-32c19 0 34 14 34 32 0 9-5 18-12 24v61c0 18 15 32 34 32h73c4-4 8-7 12-11v-47c0-5 5-10 10-10h163c5 0 10 5 10 10v47c4 4 8 7 12 11h73c17 0 31-12 33-27-45-18-81-55-96-100-67-3-121-52-128-116h-406c-33 0-60 26-60 59v543c0 32 27 59 60 59h820c33 0 60-27 60-59v-374l-56-53z m-331-320h-336c-14 0-25 11-25 25s11 25 25 25h135l18 68h96c6-49 41-91 88-107 1-2 2-4 4-6l-5-5z m398 346l40-39-391-377-40 39 391 377z m-516 114c-21 8-28 29-21 62l73-34c-14-27-31-36-52-28z m129 0c-21-8-38 1-53 28l74 34c6-33-1-54-21-62z m-112-103h31v-48h-31v48z m62 0h31v-48h-31v48z" horiz-adv-x="1000" />

<glyph glyph-name="Cloud-Data-Loss" unicode="&#xe963;" d="M596 389h-346v-250h-17c-2 0-5 0-8 0-2 0-5 0-7 0h-6l1 0c-119 7-213 104-213 223 0 124 101 224 225 224 1 0 1 0 1 0 0 4-1 8-1 11 0 140 114 253 255 253 125 0 228-89 250-207 5 1 10 1 16 1 140 0 254-113 254-253 0-1 0-2 0-2h-250v-96c0-11-9-20-20-20h-114c-11 0-20 9-20 20v96z m-268-116h114c11 0 20-9 20-20v-114c0-11-9-20-20-20h-114c-11 0-20 9-20 20v114c0 11 9 20 20 20z m231-58h113c11 0 20-9 20-20v-113c0-11-9-20-20-20h-113c-12 0-20 9-20 20v113c0 11 8 20 20 20z m288 97h114c11 0 20-9 20-20v-114c0-11-9-20-20-20h-114c-11 0-20 9-20 20v114c0 11 9 20 20 20z m-481-308h114c11 0 20-9 20-20v-114c0-11-9-20-20-20h-114c-11 0-20 9-20 20v114c0 11 9 20 20 20z" horiz-adv-x="1000" />

<glyph glyph-name="Malware-on-Cloud" unicode="&#xe964;" d="M751 225c1 8 1 16 1 24 0 133-109 241-244 241s-244-108-244-241c0-8 1-16 1-24h-51c0 0-1 0-2 0-2 0-4 0-7 0-113 0-205 91-205 202s92 203 205 203c14 0 28-2 41-4 18 126 129 224 262 224 146 0 264-117 264-260 0-2 0-4 0-5 14 3 28 5 43 5 102 0 185-82 185-183s-83-182-185-182c-1 0-1 0-2 0 0 0 0 0 0 0h-62z m-169-206v60h-40v-60h-81v60h-40v-60h-41c-6 0-10 4-10 10v22h-81c-23 0-21 1-21-22v-84c9-8 14-19 14-32 0-24-18-42-41-42s-41 18-41 42c0 15 8 29 20 36v80c0 39 31 70 69 70h69c-6 7-12 14-17 21h-114v-8c0-8-6-14-13-14s-14 6-14 14v56c0 8 6 14 14 14s13-6 13-14v-7h90c-10 26-16 53-16 83 0 114 90 206 201 206s201-92 201-206c0-30-6-57-17-83h97v7c0 8 6 14 14 14s13-6 13-14v-56c0-8-6-14-13-14s-14 6-14 14v8h-121c-5-7-11-14-17-21h87c38 0 68-31 68-70v-98c15-7 25-22 25-39 0-23-18-42-41-42s-41 19-41 42c0 11 4 20 10 28v109c0 23 1 22-21 22h-107v-22c0-6-4-10-10-10h-33z m-178 199c30-12 56 2 76 41l-107 49c-10-48 1-78 31-90z m188 0c31 12 41 42 31 90l-107-49c21-39 46-53 76-41z" horiz-adv-x="1000" />

<glyph glyph-name="0day-Attachments" unicode="&#xe965;" d="M557 67c-21 28-32 68-32 121 0 52 11 92 32 120s52 42 93 42c40 0 71-14 93-42s32-68 32-120c0-53-11-93-32-121s-52-42-93-42c-41 0-72 14-93 42z m125 44c7 15 10 41 10 77 0 35-3 61-10 76s-17 24-32 24c-15 0-26-8-32-24s-10-41-10-76c0-36 3-62 10-77s17-23 32-23c15 0 26 7 32 23z m-209 434l62 105h315c55 0 100-44 100-98v-604c0-54-45-98-100-98h-700c-55 0-100 44-100 98v604c0 54 45 98 100 98h177l-62-105h-107v-590h684v590h-369z m165 128l3 6c9 17 4 39-12 49l-7 5c-20 12-46 5-58-17l-232-430c-5-8-2-18 5-22 8-5 17-2 22 6l87 159c15 26 47 35 71 19s34-49 19-76l-87-159c-34-60-107-81-164-46-57 35-77 114-44 175l233 430c40 75 130 100 200 57l7-4c51-32 76-93 67-152h-110z" horiz-adv-x="1000" />

<glyph glyph-name="0day-Threats" unicode="&#xe966;" d="M889 750h-56v-112h-166v112h-334v-112h-166v112h-56c-61 0-111-51-111-112v-676c0-61 50-112 111-112h778c61 0 111 51 111 112v676c0 61-50 112-111 112z m-14-800h-775v525h775v-525z m-575 900h-100v-200h100v200z m500 0h-100v-200h100v200z m-368-733c-21 28-32 68-32 121 0 52 11 92 32 120s52 42 93 42c40 0 71-14 93-42s32-68 32-120c0-53-11-93-32-121s-52-42-93-42c-41 0-72 14-93 42z m125 44c7 15 10 41 10 77 0 35-3 61-10 76s-17 24-32 24c-15 0-26-8-32-24s-10-41-10-76c0-36 3-62 10-77s17-23 32-23c15 0 26 7 32 23z" horiz-adv-x="1000" />

<glyph glyph-name="Malware" unicode="&#xe967;" d="M414 321v-53c0-6 5-10 10-10h175c5 0 10 4 10 10v53c4 4 9 8 13 12h78c19 0 35-16 35-35v-93c-7-6-12-16-12-26 0-20 16-36 35-36s36 16 36 36c0 19-16 35-36 35v84c0 33-26 59-58 59h-60c9 15 16 31 20 48h87v-12c0-7 5-12 11-12s12 5 12 12v48c0 6-5 12-12 12s-11-6-11-12v-12h-83c0 4 0 8 0 12 0 16-2 32-7 47h66c33 0 59 27 59 60v47c20 0 35 16 35 36s-15 36-35 36c-19 0-35-16-35-36 0-10 4-20 11-26v-57c0-20-15-36-35-36h-76c-25 50-77 83-136 83s-110-33-135-83h-76c-20 0-36 16-36 36v57c8 6 12 16 12 26 0 20-16 36-35 36s-36-16-36-36c0-20 16-36 36-36v-47c0-33 26-60 59-60h66c-5-15-8-31-8-47 0-4 1-8 1-12h-83v12c0 6-5 12-12 12s-11-6-11-12v-48c0-7 5-12 11-12s12 5 12 12v12h87c4-17 10-33 19-48h-59c-32 0-59-26-59-59v-60c-19 0-35-16-35-36s16-35 35-35c20 0 36 16 36 35 0 11-5 21-12 27v69c0 19 16 35 35 35h78c4-4 8-8 13-12z m363-366c15 0 27-12 27-27s-12-28-27-28h-546c-15 0-27 12-27 28s12 27 27 27h144l18 77h221l19-77h144z m-717 845h880c33 0 60-27 60-61v-616c0-34-27-61-60-61h-880c-33 0-60 27-60 61v616c0 34 27 61 60 61z m392-416c-24 9-32 31-24 66l83-36c-16-28-36-38-59-30z m146 0c-23-8-43 2-59 30l83 36c8-35 0-57-24-66z m-126-108h35v-51h-35v51z m70 0h36v-51h-36v51z" horiz-adv-x="1000" />

<glyph glyph-name="Risk-Meters-Logo" unicode="&#xe968;" d="M786 316l-275 143c-3 1-4 1-7 2-17 5-34-5-40-22-5-18 5-35 21-41l301-85c1 0 3 2 0 3z m-308 110c-1 11 5 20 14 21 10 1 19-5 20-14 1-11-5-20-14-21-10-1-19 5-20 14z m381 54l68 22c8 2 14-2 17-8 12-39 20-82 21-125 0-6-5-13-13-13h-92c-8 0-15 8-13 16 2 19 4 37 4 57 0 13 0 26-2 38 0 5 4 12 10 13z m-51-144c1 5 6 9 13 8h166c8 0 13-5 13-13-3-43-11-95-23-135-2-7-10-11-17-8l-171 56c-8 3-12 12-8 19 13 26 20 45 27 73z m-78-387c4-6 3-15-2-18-34-20-71-37-110-50-8-3-14 1-17 8l-43 131c-2 6 2 13 8 16 23 8 44 17 66 29 6 3 13 1 17-4l81-112z m82 649c-3 5-2 13 4 16l37 26c7 4 15 3 19-2 25-34 45-71 61-110 3-6-1-14-8-17l-62-20c-8-3-16 3-18 11-6 33-18 65-33 96z m112-407c7-3 11-11 9-18-16-39-36-76-61-109-4-6-13-7-19-3l-105 76c-6 5-7 15-2 20 19 20 35 43 48 66 3 5 10 6 15 5l115-37z m-203-61c4 6 12 6 16 2l108-78c7-5 8-14 3-20-27-30-58-59-91-83-7-4-15-2-19 3l-80 111c-4 7-2 15 4 19 22 13 40 29 59 46z m7 581c-6 6-7 12-2 19l14 19c4 5 13 6 18 2 34-24 65-52 91-83 6-6 4-16-2-20l-33-24c-5-4-14-2-18 4-19 31-42 59-68 83z m-127 103c1 7 9 11 16 9 39-12 76-29 109-50 7-4 8-12 4-19l-10-16c-4-7-14-8-19-3-28 23-60 42-95 56-6 3-10 10-8 16l3 7z m-68-789c6 1 13-1 16-9l43-131c2-8-2-16-10-18-39-10-77-16-119-17-6 0-13 5-13 13v136c0 7 5 14 12 14 24 3 48 7 71 12z m-83 801v24c45 0 89-7 132-17 8-3 12-11 10-18l-2-4c-2-6-10-10-17-8-39 14-80 22-123 23z m-450-291c0 20 11 37 29 46l137 64c14 6 29 6 43 0l137-64c18-9 29-26 29-46v-190c0-16-3-31-10-47-6-16-14-29-24-42-10-12-21-23-35-35-13-11-25-21-37-29-11-7-23-14-35-21-12-7-21-11-26-14-6-2-10-4-13-5-2-1-5-2-7-2-3 0-6 1-8 2-3 1-7 3-13 5-5 3-13 7-26 14-12 7-24 14-35 21-12 8-24 18-37 29-14 12-25 23-35 35-9 13-18 26-24 42-7 16-10 31-10 47v190z m186-238c0 0-97 61-47 101 52 40 194 58 194 58s-60 8-109 9c-7 0-13 0-19 0-85 0-161-17-138-76 21-57 119-92 119-92z" horiz-adv-x="1000" />

</font>
</defs>
</svg>
