<?xml version="1.0" encoding="UTF-8" standalone="no"?>
<svg width="128px" height="14px" viewBox="0 0 128 14" version="1.1" xmlns="http://www.w3.org/2000/svg" xmlns:xlink="http://www.w3.org/1999/xlink">
    <!-- Generator: Sketch 50 (54983) - http://www.bohemiancoding.com/sketch -->
    <title>Combined Shape</title>
    <desc>Created with Sketch.</desc>
    <defs></defs>
    <g id="Page-1" stroke="none" stroke-width="1" fill="none" fill-rule="evenodd">
        <path d="M70.7518657,9.04166667 L4.16024418,9.04166667 C3.55655276,9.04166667 3.06716418,9.53105525 3.06716418,10.1347467 L3.06716418,13.5322946 L0.0671641791,13.5322946 L0.0671641791,10.1347467 C0.0671641791,7.874201 1.89969852,6.04166667 4.16024418,6.04166667 L24.9197761,6.04166667 L24.9197761,0.5 L27.9197761,0.5 L27.9197761,6.04166667 L123.8888,6.04166667 C126.149346,6.04166667 127.98188,7.874201 127.98188,10.1347467 L127.98188,13.5322946 L124.98188,13.5322946 L124.98188,10.1347467 C124.98188,9.53105525 124.492491,9.04166667 123.8888,9.04166667 L73.7518657,9.04166667 L73.7518657,13.2198283 L70.7518657,13.2198283 L70.7518657,9.04166667 Z" id="Combined-Shape" fill="#47AFE8" fill-rule="nonzero"></path>
    </g>
</svg>