<?xml version="1.0" encoding="UTF-8" standalone="no"?>
<svg width="392px" height="182px" viewBox="0 0 392 182" version="1.1" xmlns="http://www.w3.org/2000/svg" xmlns:xlink="http://www.w3.org/1999/xlink">
    <!-- Generator: Sketch 50 (54983) - http://www.bohemiancoding.com/sketch -->
    <title>Line1</title>
    <desc>Created with Sketch.</desc>
    <defs></defs>
    <g id="Page-1" stroke="none" stroke-width="1" fill="none" fill-rule="evenodd">
        <path d="M219,165 L8,165 C5.790861,165 4,166.790861 4,169 L4,181.551622 L0,181.551622 L0,169 C0,164.581722 3.581722,161 8,161 L77,161 L77,138 L81,138 L81,161 L383.019004,161 C387.437282,161 391.019004,164.581722 391.019004,169 L391.019004,181.551622 L387.019004,181.551622 L387.019004,169 C387.019004,166.790861 385.228143,165 383.019004,165 L223,165 L223,180.583984 L219,180.583984 L219,165 Z M153,4 L153,0 L173.50732,0 L173.50732,4 L153,4 Z M77,62.4411273 L81,62.4411273 L81,86.6855469 L77,86.6855469 L77,62.4411273 Z" id="Line1" fill="#47AFE8" fill-rule="nonzero"></path>
    </g>
</svg>