<?xml version="1.0" encoding="UTF-8" standalone="no"?>
<svg width="93px" height="86px" viewBox="0 0 93 86" version="1.1" xmlns="http://www.w3.org/2000/svg" xmlns:xlink="http://www.w3.org/1999/xlink">
    <!-- Generator: Sketch 50 (54983) - http://www.bohemiancoding.com/sketch -->
    <title>Reporting</title>
    <desc>Created with Sketch.</desc>
    <defs></defs>
    <g id="Page-1" stroke="none" stroke-width="1" fill="none" fill-rule="evenodd">
        <g id="Reporting" fill="#636569">
            <path d="M26.0504025,67.220279 L3.77439798,67.220279 L3.77439798,11.0953661 L55.7506376,11.2053235 L55.7506376,22.4109802 L59.4610965,22.4109802 L59.4610965,3.74488183 C59.4610965,1.68567997 57.8013287,0.00966292135 55.7506376,0.00966292135 L3.77439798,0.00966292135 C1.72701981,0.00966292135 0.0639391565,1.68567997 0.0639391565,3.74488183 L0.0639391565,67.3768849 C0.0639391565,69.4460829 1.72701981,70.9521658 3.77439798,70.9521658 L26.0504025,70.9521658 L26.0504025,67.220279 Z" id="Fill-22"></path>
            <polygon id="Fill-24" points="11.2009476 44.8089655 26.0494087 44.8089655 26.0494087 41.0804107 11.2009476 41.0804107"></polygon>
            <polygon id="Fill-26" points="11.2009476 56.0146222 26.0494087 56.0146222 26.0494087 52.2860674 11.2009476 52.2860674"></polygon>
            <path d="M27.4090268,29.8814181 L11.2022727,29.878086 L11.2022727,33.6133049 L26.0507338,33.6133049 C26.2196922,32.2438357 26.6735608,30.9676637 27.4090268,29.8814181" id="Fill-27"></path>
            <polygon id="Fill-28" points="11.2009476 22.4109802 48.3254132 22.4109802 48.3254132 18.6790934 11.2009476 18.6790934"></polygon>
            <path d="M85.5890211,75.1305463 C85.5890211,77.1964122 83.6542818,78.4192716 81.5969649,78.4192716 L40.7454759,78.4192716 C38.6980977,78.4192716 37.1874109,76.5966447 37.1874109,74.5341108 L37.1874109,37.1952499 C37.1874109,35.136048 38.6980977,33.619969 40.7454759,33.619969 L81.593652,33.619969 C83.647656,33.619969 85.5823953,35.7291515 85.5823953,37.7916854 L85.5890211,75.1305463 Z M92.8674836,34.6595661 C92.8674836,29.954723 89.0808279,26.1495312 84.4129382,26.1495312 L38.2376033,26.1495312 C33.5630878,26.1495312 29.7731191,29.954723 29.7731191,34.6595661 L29.7731191,77.3630143 C29.7731191,82.0678574 33.5630878,85.8763812 38.2376033,85.8763812 L84.4129382,85.8830453 C89.0808279,85.8830453 92.8376674,82.0678574 92.8376674,77.3763425 L92.8674836,34.6595661 Z" id="Fill-29"></path>
            <path d="M66.8859896,63.4880589 C63.7784803,63.4880589 62.0193253,59.0797675 59.5975883,52.9787989 C58.5374573,50.3231616 56.82137,46.0015033 55.7380486,44.9485781 C54.2770554,46.2614026 51.9547058,52.7055715 50.8051261,55.8910035 C48.7577479,61.5721348 48.0686627,63.4880589 46.1604268,63.4880589 L40.8995262,63.4880589 L40.8995262,59.75284 L45.3288864,59.75284 C45.8324487,58.7365672 46.6441116,56.4841069 47.3199451,54.6181635 C50.3545704,46.1980938 52.4350777,41.0800775 55.7513002,41.0800775 C58.8621224,41.0800775 60.6146516,45.4917009 63.0430144,51.5926695 C64.083268,54.2083224 65.7662261,58.4400155 66.8495476,59.5695777 C67.8102914,58.400031 69.1122649,54.2716312 69.913989,51.7226191 C71.785783,45.7782565 73.2666536,41.0800775 76.480176,41.0800775 L81.7477023,41.0800775 L81.7477023,44.8152964 L76.6855764,44.8152964 C75.7148938,45.661635 74.3035943,50.1398993 73.4521765,52.8488493 C71.5803826,58.7932119 70.1028249,63.4880589 66.8859896,63.4880589" id="Fill-30"></path>
            <polygon id="Fill-31" points="40.9011827 70.9488338 81.7493588 70.9488338 81.7493588 67.2169469 40.9011827 67.2169469"></polygon>
        </g>
    </g>
</svg>