<?xml version="1.0" encoding="UTF-8" standalone="no"?><!DOCTYPE svg PUBLIC "-//W3C//DTD SVG 1.1//EN" "http://www.w3.org/Graphics/SVG/1.1/DTD/svg11.dtd"><svg width="61px" height="13px" version="1.1" xmlns="http://www.w3.org/2000/svg" xmlns:xlink="http://www.w3.org/1999/xlink" xml:space="preserve" xmlns:serif="http://www.serif.com/" style="fill-rule:evenodd;clip-rule:evenodd;stroke-linejoin:round;stroke-miterlimit:1.41421;"><g transform="matrix(1,0,0,1,-323,-158)"><g transform="matrix(1,0,0,1,0,-6)"><g transform="matrix(1,0,0,1,322.218,174)"><g id="Reporting"><path d="M8.848,-0.392C8.848,-0.252 8.794,-0.138 8.687,-0.049C8.58,0.04 8.456,0.084 8.316,0.084C8.101,0.084 7.933,-0.009 7.812,-0.196L5.936,-3.164C5.693,-3.547 5.441,-3.81 5.18,-3.955C4.919,-4.1 4.564,-4.172 4.116,-4.172L2.352,-4.172L2.352,-0.518C2.352,-0.341 2.301,-0.198 2.198,-0.091C2.095,0.016 1.96,0.07 1.792,0.07C1.615,0.07 1.475,0.016 1.372,-0.091C1.269,-0.198 1.218,-0.341 1.218,-0.518L1.218,-9.31C1.218,-9.478 1.272,-9.613 1.379,-9.716C1.486,-9.819 1.629,-9.87 1.806,-9.87L5.278,-9.87C6.351,-9.87 7.17,-9.632 7.735,-9.156C8.3,-8.68 8.582,-7.98 8.582,-7.056C8.582,-6.272 8.356,-5.642 7.903,-5.166C7.45,-4.69 6.804,-4.401 5.964,-4.298C6.197,-4.223 6.407,-4.102 6.594,-3.934C6.781,-3.766 6.967,-3.533 7.154,-3.234L8.75,-0.714C8.815,-0.611 8.848,-0.504 8.848,-0.392ZM5.18,-5.124C5.945,-5.124 6.517,-5.283 6.895,-5.6C7.273,-5.917 7.462,-6.398 7.462,-7.042C7.462,-7.677 7.275,-8.148 6.902,-8.456C6.529,-8.764 5.955,-8.918 5.18,-8.918L2.352,-8.918L2.352,-5.124L5.18,-5.124Z" style="fill-rule:nonzero;"/><path d="M16.186,-1.456C16.261,-1.372 16.298,-1.265 16.298,-1.134C16.298,-0.901 16.135,-0.686 15.808,-0.49C15.472,-0.294 15.117,-0.147 14.744,-0.049C14.371,0.049 14.007,0.098 13.652,0.098C12.597,0.098 11.764,-0.215 11.153,-0.84C10.542,-1.465 10.236,-2.329 10.236,-3.43C10.236,-4.13 10.371,-4.748 10.642,-5.285C10.913,-5.822 11.293,-6.239 11.783,-6.538C12.273,-6.837 12.831,-6.986 13.456,-6.986C14.343,-6.986 15.047,-6.697 15.57,-6.118C16.093,-5.539 16.354,-4.755 16.354,-3.766C16.354,-3.579 16.317,-3.444 16.242,-3.36C16.167,-3.276 16.046,-3.234 15.878,-3.234L11.37,-3.234C11.454,-1.629 12.215,-0.826 13.652,-0.826C14.016,-0.826 14.329,-0.875 14.59,-0.973C14.851,-1.071 15.131,-1.204 15.43,-1.372C15.673,-1.512 15.836,-1.582 15.92,-1.582C16.023,-1.582 16.111,-1.54 16.186,-1.456ZM12.035,-5.544C11.676,-5.171 11.463,-4.643 11.398,-3.962L15.36,-3.962C15.341,-4.653 15.169,-5.182 14.842,-5.551C14.515,-5.92 14.058,-6.104 13.47,-6.104C12.873,-6.104 12.394,-5.917 12.035,-5.544Z" style="fill-rule:nonzero;"/><path d="M23.02,-6.538C23.477,-6.239 23.832,-5.822 24.084,-5.285C24.336,-4.748 24.462,-4.125 24.462,-3.416C24.462,-2.707 24.336,-2.088 24.084,-1.561C23.832,-1.034 23.48,-0.625 23.027,-0.336C22.574,-0.047 22.045,0.098 21.438,0.098C20.906,0.098 20.442,-0.019 20.045,-0.252C19.648,-0.485 19.347,-0.817 19.142,-1.246L19.142,2.044C19.142,2.212 19.093,2.345 18.995,2.443C18.897,2.541 18.759,2.59 18.582,2.59C18.405,2.59 18.265,2.539 18.162,2.436C18.059,2.333 18.008,2.203 18.008,2.044L18.008,-6.398C18.008,-6.566 18.059,-6.701 18.162,-6.804C18.265,-6.907 18.405,-6.958 18.582,-6.958C18.759,-6.958 18.897,-6.907 18.995,-6.804C19.093,-6.701 19.142,-6.566 19.142,-6.398L19.142,-5.642C19.347,-6.071 19.648,-6.403 20.045,-6.636C20.442,-6.869 20.906,-6.986 21.438,-6.986C22.035,-6.986 22.563,-6.837 23.02,-6.538ZM22.754,-1.512C23.118,-1.96 23.3,-2.595 23.3,-3.416C23.3,-4.237 23.118,-4.879 22.754,-5.341C22.39,-5.803 21.877,-6.034 21.214,-6.034C20.551,-6.034 20.04,-5.81 19.681,-5.362C19.322,-4.914 19.142,-4.275 19.142,-3.444C19.142,-2.613 19.322,-1.972 19.681,-1.519C20.04,-1.066 20.551,-0.84 21.214,-0.84C21.877,-0.84 22.39,-1.064 22.754,-1.512Z" style="fill-rule:nonzero;"/><path d="M27.271,-0.336C26.781,-0.625 26.403,-1.038 26.137,-1.575C25.871,-2.112 25.738,-2.735 25.738,-3.444C25.738,-4.153 25.871,-4.776 26.137,-5.313C26.403,-5.85 26.781,-6.263 27.271,-6.552C27.761,-6.841 28.328,-6.986 28.972,-6.986C29.616,-6.986 30.185,-6.841 30.68,-6.552C31.175,-6.263 31.555,-5.85 31.821,-5.313C32.087,-4.776 32.22,-4.153 32.22,-3.444C32.22,-2.735 32.087,-2.112 31.821,-1.575C31.555,-1.038 31.175,-0.625 30.68,-0.336C30.185,-0.047 29.616,0.098 28.972,0.098C28.328,0.098 27.761,-0.047 27.271,-0.336ZM30.519,-1.505C30.878,-1.948 31.058,-2.595 31.058,-3.444C31.058,-4.275 30.876,-4.916 30.512,-5.369C30.148,-5.822 29.635,-6.048 28.972,-6.048C28.309,-6.048 27.796,-5.822 27.432,-5.369C27.068,-4.916 26.886,-4.275 26.886,-3.444C26.886,-2.604 27.066,-1.96 27.425,-1.512C27.784,-1.064 28.3,-0.84 28.972,-0.84C29.644,-0.84 30.16,-1.062 30.519,-1.505Z" style="fill-rule:nonzero;"/><path d="M37.864,-6.482C37.864,-6.333 37.822,-6.214 37.738,-6.125C37.654,-6.036 37.509,-5.983 37.304,-5.964L36.884,-5.922C36.259,-5.866 35.794,-5.644 35.491,-5.257C35.188,-4.87 35.036,-4.415 35.036,-3.892L35.036,-0.49C35.036,-0.303 34.985,-0.163 34.882,-0.07C34.779,0.023 34.644,0.07 34.476,0.07C34.308,0.07 34.17,0.021 34.063,-0.077C33.956,-0.175 33.902,-0.313 33.902,-0.49L33.902,-6.398C33.902,-6.575 33.958,-6.713 34.07,-6.811C34.182,-6.909 34.317,-6.958 34.476,-6.958C34.625,-6.958 34.751,-6.909 34.854,-6.811C34.957,-6.713 35.008,-6.58 35.008,-6.412L35.008,-5.628C35.204,-6.039 35.482,-6.351 35.841,-6.566C36.2,-6.781 36.613,-6.907 37.08,-6.944L37.276,-6.958C37.668,-6.986 37.864,-6.827 37.864,-6.482Z" style="fill-rule:nonzero;"/><path d="M43.018,-0.378C43.018,-0.219 42.96,-0.1 42.843,-0.021C42.726,0.058 42.551,0.089 42.318,0.07L41.94,0.042C41.193,-0.014 40.643,-0.238 40.288,-0.63C39.933,-1.022 39.756,-1.615 39.756,-2.408L39.756,-5.922L38.818,-5.922C38.659,-5.922 38.536,-5.962 38.447,-6.041C38.358,-6.12 38.314,-6.225 38.314,-6.356C38.314,-6.496 38.358,-6.608 38.447,-6.692C38.536,-6.776 38.659,-6.818 38.818,-6.818L39.756,-6.818L39.756,-8.4C39.756,-8.577 39.807,-8.715 39.91,-8.813C40.013,-8.911 40.153,-8.96 40.33,-8.96C40.498,-8.96 40.633,-8.911 40.736,-8.813C40.839,-8.715 40.89,-8.577 40.89,-8.4L40.89,-6.818L42.444,-6.818C42.593,-6.818 42.712,-6.776 42.801,-6.692C42.89,-6.608 42.934,-6.496 42.934,-6.356C42.934,-6.225 42.89,-6.12 42.801,-6.041C42.712,-5.962 42.593,-5.922 42.444,-5.922L40.89,-5.922L40.89,-2.352C40.89,-1.839 40.995,-1.468 41.205,-1.239C41.415,-1.01 41.73,-0.882 42.15,-0.854L42.528,-0.826C42.855,-0.798 43.018,-0.649 43.018,-0.378Z" style="fill-rule:nonzero;"/><path d="M44.287,-0.077C44.18,-0.175 44.126,-0.313 44.126,-0.49L44.126,-6.398C44.126,-6.575 44.18,-6.713 44.287,-6.811C44.394,-6.909 44.532,-6.958 44.7,-6.958C44.868,-6.958 45.003,-6.909 45.106,-6.811C45.209,-6.713 45.26,-6.575 45.26,-6.398L45.26,-0.49C45.26,-0.303 45.209,-0.163 45.106,-0.07C45.003,0.023 44.868,0.07 44.7,0.07C44.532,0.07 44.394,0.021 44.287,-0.077ZM44.154,-8.624C44.014,-8.755 43.944,-8.927 43.944,-9.142C43.944,-9.347 44.014,-9.515 44.154,-9.646C44.294,-9.777 44.476,-9.842 44.7,-9.842C44.924,-9.842 45.106,-9.777 45.246,-9.646C45.386,-9.515 45.456,-9.347 45.456,-9.142C45.456,-8.927 45.386,-8.755 45.246,-8.624C45.106,-8.493 44.924,-8.428 44.7,-8.428C44.476,-8.428 44.294,-8.493 44.154,-8.624Z" style="fill-rule:nonzero;"/><path d="M53.242,-4.284L53.242,-0.49C53.242,-0.313 53.193,-0.175 53.095,-0.077C52.997,0.021 52.859,0.07 52.682,0.07C52.505,0.07 52.365,0.021 52.262,-0.077C52.159,-0.175 52.108,-0.313 52.108,-0.49L52.108,-4.214C52.108,-4.849 51.984,-5.311 51.737,-5.6C51.49,-5.889 51.095,-6.034 50.554,-6.034C49.929,-6.034 49.429,-5.843 49.056,-5.46C48.683,-5.077 48.496,-4.559 48.496,-3.906L48.496,-0.49C48.496,-0.313 48.447,-0.175 48.349,-0.077C48.251,0.021 48.113,0.07 47.936,0.07C47.759,0.07 47.619,0.021 47.516,-0.077C47.413,-0.175 47.362,-0.313 47.362,-0.49L47.362,-6.398C47.362,-6.566 47.413,-6.701 47.516,-6.804C47.619,-6.907 47.759,-6.958 47.936,-6.958C48.104,-6.958 48.237,-6.907 48.335,-6.804C48.433,-6.701 48.482,-6.571 48.482,-6.412L48.482,-5.698C48.706,-6.118 49.019,-6.438 49.42,-6.657C49.821,-6.876 50.279,-6.986 50.792,-6.986C52.425,-6.986 53.242,-6.085 53.242,-4.284Z" style="fill-rule:nonzero;"/><path d="M61.252,-6.804C61.355,-6.701 61.406,-6.566 61.406,-6.398L61.406,-0.462C61.406,0.555 61.145,1.323 60.622,1.841C60.1,2.359 59.325,2.618 58.298,2.618C57.3,2.618 56.469,2.422 55.806,2.03C55.47,1.843 55.302,1.629 55.302,1.386C55.302,1.255 55.337,1.148 55.407,1.064C55.477,0.98 55.568,0.938 55.68,0.938C55.774,0.938 55.942,1.003 56.184,1.134C56.511,1.302 56.833,1.437 57.15,1.54C57.468,1.643 57.846,1.694 58.284,1.694C58.947,1.694 59.446,1.519 59.782,1.169C60.118,0.819 60.286,0.308 60.286,-0.364L60.286,-1.568C60.09,-1.129 59.789,-0.793 59.383,-0.56C58.977,-0.327 58.499,-0.21 57.948,-0.21C57.351,-0.21 56.821,-0.35 56.359,-0.63C55.897,-0.91 55.538,-1.307 55.281,-1.82C55.025,-2.333 54.896,-2.926 54.896,-3.598C54.896,-4.27 55.025,-4.863 55.281,-5.376C55.538,-5.889 55.897,-6.286 56.359,-6.566C56.821,-6.846 57.351,-6.986 57.948,-6.986C58.49,-6.986 58.961,-6.869 59.362,-6.636C59.764,-6.403 60.067,-6.071 60.272,-5.642L60.272,-6.398C60.272,-6.566 60.321,-6.701 60.419,-6.804C60.517,-6.907 60.655,-6.958 60.832,-6.958C61.01,-6.958 61.15,-6.907 61.252,-6.804ZM59.712,-1.799C60.086,-2.233 60.272,-2.833 60.272,-3.598C60.272,-4.354 60.088,-4.949 59.719,-5.383C59.351,-5.817 58.835,-6.034 58.172,-6.034C57.51,-6.034 56.989,-5.817 56.611,-5.383C56.233,-4.949 56.044,-4.354 56.044,-3.598C56.044,-2.833 56.233,-2.233 56.611,-1.799C56.989,-1.365 57.51,-1.148 58.172,-1.148C58.826,-1.148 59.339,-1.365 59.712,-1.799Z" style="fill-rule:nonzero;"/></g></g></g></g></svg>