<?xml version="1.0" encoding="UTF-8" standalone="no"?>
<svg width="142px" height="113px" viewBox="0 0 142 113" version="1.1" xmlns="http://www.w3.org/2000/svg" xmlns:xlink="http://www.w3.org/1999/xlink">
    <!-- Generator: Sketch 50 (54983) - http://www.bohemiancoding.com/sketch -->
    <title>Single_Management_Console</title>
    <desc>Created with Sketch.</desc>
    <defs></defs>
    <g id="Page-1" stroke="none" stroke-width="1" fill="none" fill-rule="evenodd">
        <g id="Single_Management_Console" fill="#636569">
            <path d="M131.637148,81.735311 C131.637148,93.0115316 122.571532,102.156702 111.393404,102.156702 L30.4114335,102.156702 C19.2263103,102.156702 10.1641921,93.0115316 10.1641921,81.735311 L10.1641921,30.6712494 C10.1641921,19.3985571 19.2263103,10.2463305 30.4114335,10.2463305 L111.393404,10.2463305 C122.571532,10.2463305 131.637148,19.3985571 131.637148,30.6712494 L131.637148,81.735311 Z M113.817197,0.0391633444 L27.6623695,0.0391633444 C12.6929113,0.0391633444 0.0388226601,12.9101435 0.0388226601,28.0109646 L0.0388226601,84.7131364 C0.0388226601,99.4964169 12.6929113,112.370925 27.7742906,112.370925 L114.236901,112.370925 C129.318281,112.370925 141.766015,99.821014 141.766015,84.7166647 L141.766015,28.2297148 C141.766015,12.8042967 129.318281,0.0391633444 113.817197,0.0391633444 Z" id="Fill-5"></path>
            <path d="M109.558946,86.9172212 L55.7668276,86.9172212 L55.7668276,45.8309919 L117.246532,45.8309919 L117.246532,79.1692299 C117.246532,83.4419155 113.797961,86.9172212 109.558946,86.9172212 M24.5513103,79.1692299 L24.5513103,45.8309919 L51.2445123,45.8309919 L51.2445123,86.9172212 L32.2388966,86.9172212 C27.9998818,86.9172212 24.5513103,83.4419155 24.5513103,79.1692299 M32.2388966,25.4872223 L109.558946,25.4872223 C113.797961,25.4872223 117.246532,28.9660563 117.246532,33.2422701 L117.246532,41.2689916 L24.5513103,41.2689916 L24.5513103,33.2422701 C24.5513103,28.9660563 27.9998818,25.4872223 32.2388966,25.4872223 M109.558946,20.9287501 L32.2388966,20.9287501 C25.5271232,20.9287501 20.0324926,26.46807 20.0324926,33.2422701 L20.0324926,79.1692299 C20.0324926,85.9399017 25.5271232,91.4792216 32.2388966,91.4792216 L109.558946,91.4792216 C116.274217,91.4792216 121.76535,85.9399017 121.76535,79.1692299 L121.76535,33.2422701 C121.76535,26.46807 116.274217,20.9287501 109.558946,20.9287501" id="Fill-7"></path>
            <path d="M108.390768,52.386089 L63.7831823,52.386089 C62.5380591,52.386089 61.5237734,53.4092755 61.5237734,54.6653251 C61.5237734,55.9249029 62.5380591,56.9480894 63.7831823,56.9480894 L108.390768,56.9480894 C109.635892,56.9480894 110.650177,55.9249029 110.650177,54.6653251 C110.650177,53.4092755 109.635892,52.386089 108.390768,52.386089" id="Fill-9"></path>
            <path d="M108.390768,63.6531362 L63.7831823,63.6531362 C62.5380591,63.6531362 61.5237734,64.6763227 61.5237734,65.9323723 C61.5237734,67.1919501 62.5380591,68.2151366 63.7831823,68.2151366 L108.390768,68.2151366 C109.635892,68.2151366 110.650177,67.1919501 110.650177,65.9323723 C110.650177,64.6763227 109.635892,63.6531362 108.390768,63.6531362" id="Fill-11"></path>
            <path d="M108.390768,74.9233588 L63.7831823,74.9233588 C62.5380591,74.9233588 61.5237734,75.9465453 61.5237734,77.2025949 C61.5237734,78.4621727 62.5380591,79.4853592 63.7831823,79.4853592 L108.390768,79.4853592 C109.635892,79.4853592 110.650177,78.4621727 110.650177,77.2025949 C110.650177,75.9465453 109.635892,74.9233588 108.390768,74.9233588" id="Fill-13"></path>
        </g>
    </g>
</svg>