<?xml version="1.0" encoding="UTF-8" standalone="no"?><!DOCTYPE svg PUBLIC "-//W3C//DTD SVG 1.1//EN" "http://www.w3.org/Graphics/SVG/1.1/DTD/svg11.dtd"><svg width="101px" height="27px" version="1.1" xmlns="http://www.w3.org/2000/svg" xmlns:xlink="http://www.w3.org/1999/xlink" xml:space="preserve" xmlns:serif="http://www.serif.com/" style="fill-rule:evenodd;clip-rule:evenodd;stroke-linejoin:round;stroke-miterlimit:1.41421;"><g transform="matrix(1,0,0,1,-72,-350)"><g transform="matrix(1,0,0,1,0,-6)"><g id="SonicWall-WAN-Accele"><g transform="matrix(1,0,0,1,72.1861,366.866)"><path d="M2.359,-0.203C1.72,-0.413 1.209,-0.695 0.826,-1.05C0.686,-1.181 0.616,-1.344 0.616,-1.54C0.616,-1.671 0.653,-1.785 0.728,-1.883C0.803,-1.981 0.891,-2.03 0.994,-2.03C1.115,-2.03 1.246,-1.979 1.386,-1.876C2.254,-1.204 3.243,-0.868 4.354,-0.868C5.157,-0.868 5.773,-1.022 6.202,-1.33C6.631,-1.638 6.846,-2.077 6.846,-2.646C6.846,-2.973 6.743,-3.236 6.538,-3.437C6.333,-3.638 6.062,-3.799 5.726,-3.92C5.39,-4.041 4.937,-4.167 4.368,-4.298C3.603,-4.475 2.975,-4.662 2.485,-4.858C1.995,-5.054 1.598,-5.334 1.295,-5.698C0.992,-6.062 0.84,-6.538 0.84,-7.126C0.84,-7.686 0.992,-8.183 1.295,-8.617C1.598,-9.051 2.023,-9.387 2.569,-9.625C3.115,-9.863 3.738,-9.982 4.438,-9.982C5.091,-9.982 5.7,-9.882 6.265,-9.681C6.83,-9.48 7.303,-9.193 7.686,-8.82C7.835,-8.671 7.91,-8.507 7.91,-8.33C7.91,-8.199 7.873,-8.085 7.798,-7.987C7.723,-7.889 7.635,-7.84 7.532,-7.84C7.429,-7.84 7.294,-7.891 7.126,-7.994C6.669,-8.367 6.244,-8.629 5.852,-8.778C5.46,-8.927 4.989,-9.002 4.438,-9.002C3.663,-9.002 3.061,-8.841 2.632,-8.519C2.203,-8.197 1.988,-7.747 1.988,-7.168C1.988,-6.673 2.177,-6.302 2.555,-6.055C2.933,-5.808 3.514,-5.591 4.298,-5.404C5.147,-5.199 5.815,-5.01 6.3,-4.837C6.785,-4.664 7.189,-4.405 7.511,-4.06C7.833,-3.715 7.994,-3.253 7.994,-2.674C7.994,-2.123 7.842,-1.638 7.539,-1.218C7.236,-0.798 6.809,-0.471 6.258,-0.238C5.707,-0.005 5.077,0.112 4.368,0.112C3.668,0.112 2.998,0.007 2.359,-0.203Z" style="fill-rule:nonzero;"/><path d="M10.803,-0.336C10.313,-0.625 9.935,-1.038 9.669,-1.575C9.403,-2.112 9.27,-2.735 9.27,-3.444C9.27,-4.153 9.403,-4.776 9.669,-5.313C9.935,-5.85 10.313,-6.263 10.803,-6.552C11.293,-6.841 11.86,-6.986 12.504,-6.986C13.148,-6.986 13.717,-6.841 14.212,-6.552C14.707,-6.263 15.087,-5.85 15.353,-5.313C15.619,-4.776 15.752,-4.153 15.752,-3.444C15.752,-2.735 15.619,-2.112 15.353,-1.575C15.087,-1.038 14.707,-0.625 14.212,-0.336C13.717,-0.047 13.148,0.098 12.504,0.098C11.86,0.098 11.293,-0.047 10.803,-0.336ZM14.051,-1.505C14.41,-1.948 14.59,-2.595 14.59,-3.444C14.59,-4.275 14.408,-4.916 14.044,-5.369C13.68,-5.822 13.167,-6.048 12.504,-6.048C11.841,-6.048 11.328,-5.822 10.964,-5.369C10.6,-4.916 10.418,-4.275 10.418,-3.444C10.418,-2.604 10.598,-1.96 10.957,-1.512C11.316,-1.064 11.832,-0.84 12.504,-0.84C13.176,-0.84 13.692,-1.062 14.051,-1.505Z" style="fill-rule:nonzero;"/><path d="M23.314,-4.284L23.314,-0.49C23.314,-0.313 23.265,-0.175 23.167,-0.077C23.069,0.021 22.931,0.07 22.754,0.07C22.577,0.07 22.437,0.021 22.334,-0.077C22.231,-0.175 22.18,-0.313 22.18,-0.49L22.18,-4.214C22.18,-4.849 22.056,-5.311 21.809,-5.6C21.562,-5.889 21.167,-6.034 20.626,-6.034C20.001,-6.034 19.501,-5.843 19.128,-5.46C18.755,-5.077 18.568,-4.559 18.568,-3.906L18.568,-0.49C18.568,-0.313 18.519,-0.175 18.421,-0.077C18.323,0.021 18.185,0.07 18.008,0.07C17.831,0.07 17.691,0.021 17.588,-0.077C17.485,-0.175 17.434,-0.313 17.434,-0.49L17.434,-6.398C17.434,-6.566 17.485,-6.701 17.588,-6.804C17.691,-6.907 17.831,-6.958 18.008,-6.958C18.176,-6.958 18.309,-6.907 18.407,-6.804C18.505,-6.701 18.554,-6.571 18.554,-6.412L18.554,-5.698C18.778,-6.118 19.091,-6.438 19.492,-6.657C19.893,-6.876 20.351,-6.986 20.864,-6.986C22.497,-6.986 23.314,-6.085 23.314,-4.284Z" style="fill-rule:nonzero;"/><path d="M25.535,-0.077C25.428,-0.175 25.374,-0.313 25.374,-0.49L25.374,-6.398C25.374,-6.575 25.428,-6.713 25.535,-6.811C25.642,-6.909 25.78,-6.958 25.948,-6.958C26.116,-6.958 26.251,-6.909 26.354,-6.811C26.457,-6.713 26.508,-6.575 26.508,-6.398L26.508,-0.49C26.508,-0.303 26.457,-0.163 26.354,-0.07C26.251,0.023 26.116,0.07 25.948,0.07C25.78,0.07 25.642,0.021 25.535,-0.077ZM25.402,-8.624C25.262,-8.755 25.192,-8.927 25.192,-9.142C25.192,-9.347 25.262,-9.515 25.402,-9.646C25.542,-9.777 25.724,-9.842 25.948,-9.842C26.172,-9.842 26.354,-9.777 26.494,-9.646C26.634,-9.515 26.704,-9.347 26.704,-9.142C26.704,-8.927 26.634,-8.755 26.494,-8.624C26.354,-8.493 26.172,-8.428 25.948,-8.428C25.724,-8.428 25.542,-8.493 25.402,-8.624Z" style="fill-rule:nonzero;"/><path d="M29.737,-0.336C29.247,-0.625 28.869,-1.036 28.603,-1.568C28.337,-2.1 28.204,-2.716 28.204,-3.416C28.204,-4.116 28.342,-4.737 28.617,-5.278C28.892,-5.819 29.277,-6.239 29.772,-6.538C30.267,-6.837 30.836,-6.986 31.48,-6.986C31.835,-6.986 32.187,-6.937 32.537,-6.839C32.887,-6.741 33.193,-6.599 33.454,-6.412C33.622,-6.3 33.741,-6.19 33.811,-6.083C33.881,-5.976 33.916,-5.857 33.916,-5.726C33.916,-5.595 33.881,-5.488 33.811,-5.404C33.741,-5.32 33.65,-5.278 33.538,-5.278C33.473,-5.278 33.403,-5.297 33.328,-5.334C33.253,-5.371 33.19,-5.409 33.139,-5.446C33.088,-5.483 33.053,-5.507 33.034,-5.516C32.791,-5.675 32.56,-5.801 32.341,-5.894C32.122,-5.987 31.853,-6.034 31.536,-6.034C30.855,-6.034 30.325,-5.803 29.947,-5.341C29.569,-4.879 29.38,-4.237 29.38,-3.416C29.38,-2.595 29.569,-1.96 29.947,-1.512C30.325,-1.064 30.855,-0.84 31.536,-0.84C31.853,-0.84 32.126,-0.887 32.355,-0.98C32.584,-1.073 32.815,-1.199 33.048,-1.358C33.151,-1.423 33.249,-1.479 33.342,-1.526C33.435,-1.573 33.515,-1.596 33.58,-1.596C33.683,-1.596 33.769,-1.554 33.839,-1.47C33.909,-1.386 33.944,-1.279 33.944,-1.148C33.944,-1.027 33.911,-0.917 33.846,-0.819C33.781,-0.721 33.659,-0.611 33.482,-0.49C33.221,-0.313 32.906,-0.17 32.537,-0.063C32.168,0.044 31.797,0.098 31.424,0.098C30.789,0.098 30.227,-0.047 29.737,-0.336Z" style="fill-rule:nonzero;"/><path d="M48.282,-9.863C48.375,-9.924 48.478,-9.954 48.59,-9.954C48.739,-9.954 48.868,-9.91 48.975,-9.821C49.082,-9.732 49.136,-9.613 49.136,-9.464C49.136,-9.399 49.122,-9.324 49.094,-9.24L45.93,-0.322C45.883,-0.191 45.804,-0.091 45.692,-0.021C45.58,0.049 45.454,0.084 45.314,0.084C45.183,0.084 45.062,0.049 44.95,-0.021C44.838,-0.091 44.759,-0.191 44.712,-0.322L41.968,-8.078L39.196,-0.322C39.149,-0.191 39.07,-0.091 38.958,-0.021C38.846,0.049 38.725,0.084 38.594,0.084C38.463,0.084 38.342,0.049 38.23,-0.021C38.118,-0.091 38.039,-0.191 37.992,-0.322L34.814,-9.24C34.786,-9.315 34.772,-9.385 34.772,-9.45C34.772,-9.599 34.83,-9.721 34.947,-9.814C35.064,-9.907 35.197,-9.954 35.346,-9.954C35.458,-9.954 35.563,-9.924 35.661,-9.863C35.759,-9.802 35.827,-9.711 35.864,-9.59L38.622,-1.638L41.422,-9.506C41.469,-9.646 41.543,-9.751 41.646,-9.821C41.749,-9.891 41.861,-9.926 41.982,-9.926C42.103,-9.926 42.215,-9.889 42.318,-9.814C42.421,-9.739 42.495,-9.632 42.542,-9.492L45.3,-1.61L48.086,-9.59C48.123,-9.711 48.189,-9.802 48.282,-9.863Z" style="fill-rule:nonzero;"/><path d="M55.27,-4.298L55.27,-0.49C55.27,-0.322 55.221,-0.187 55.123,-0.084C55.025,0.019 54.892,0.07 54.724,0.07C54.556,0.07 54.421,0.019 54.318,-0.084C54.215,-0.187 54.164,-0.322 54.164,-0.49L54.164,-1.162C53.987,-0.761 53.716,-0.45 53.352,-0.231C52.988,-0.012 52.568,0.098 52.092,0.098C51.653,0.098 51.25,0.009 50.881,-0.168C50.512,-0.345 50.221,-0.593 50.006,-0.91C49.791,-1.227 49.684,-1.577 49.684,-1.96C49.684,-2.473 49.815,-2.872 50.076,-3.157C50.337,-3.442 50.767,-3.647 51.364,-3.773C51.961,-3.899 52.792,-3.962 53.856,-3.962L54.164,-3.962L54.164,-4.424C54.164,-4.984 54.05,-5.395 53.821,-5.656C53.592,-5.917 53.221,-6.048 52.708,-6.048C52.073,-6.048 51.429,-5.875 50.776,-5.53C50.524,-5.371 50.347,-5.292 50.244,-5.292C50.132,-5.292 50.039,-5.334 49.964,-5.418C49.889,-5.502 49.852,-5.609 49.852,-5.74C49.852,-5.871 49.892,-5.985 49.971,-6.083C50.05,-6.181 50.179,-6.281 50.356,-6.384C50.683,-6.571 51.054,-6.718 51.469,-6.825C51.884,-6.932 52.297,-6.986 52.708,-6.986C54.416,-6.986 55.27,-6.09 55.27,-4.298ZM53.625,-1.365C53.984,-1.743 54.164,-2.231 54.164,-2.828L54.164,-3.234L53.912,-3.234C53.091,-3.234 52.465,-3.199 52.036,-3.129C51.607,-3.059 51.301,-2.942 51.119,-2.779C50.937,-2.616 50.846,-2.375 50.846,-2.058C50.846,-1.694 50.979,-1.393 51.245,-1.155C51.511,-0.917 51.845,-0.798 52.246,-0.798C52.806,-0.798 53.266,-0.987 53.625,-1.365Z" style="fill-rule:nonzero;"/><path d="M57.491,-0.077C57.384,-0.175 57.33,-0.313 57.33,-0.49L57.33,-9.38C57.33,-9.557 57.384,-9.695 57.491,-9.793C57.598,-9.891 57.736,-9.94 57.904,-9.94C58.063,-9.94 58.196,-9.891 58.303,-9.793C58.41,-9.695 58.464,-9.557 58.464,-9.38L58.464,-0.49C58.464,-0.313 58.41,-0.175 58.303,-0.077C58.196,0.021 58.063,0.07 57.904,0.07C57.736,0.07 57.598,0.021 57.491,-0.077Z" style="fill-rule:nonzero;"/><path d="M60.727,-0.077C60.62,-0.175 60.566,-0.313 60.566,-0.49L60.566,-9.38C60.566,-9.557 60.62,-9.695 60.727,-9.793C60.835,-9.891 60.972,-9.94 61.14,-9.94C61.299,-9.94 61.432,-9.891 61.539,-9.793C61.647,-9.695 61.7,-9.557 61.7,-9.38L61.7,-0.49C61.7,-0.313 61.647,-0.175 61.539,-0.077C61.432,0.021 61.299,0.07 61.14,0.07C60.972,0.07 60.835,0.021 60.727,-0.077Z" style="fill-rule:nonzero;"/><path d="M80.38,-9.863C80.474,-9.924 80.576,-9.954 80.688,-9.954C80.838,-9.954 80.966,-9.91 81.073,-9.821C81.181,-9.732 81.234,-9.613 81.234,-9.464C81.234,-9.399 81.22,-9.324 81.192,-9.24L78.028,-0.322C77.982,-0.191 77.902,-0.091 77.79,-0.021C77.678,0.049 77.552,0.084 77.412,0.084C77.282,0.084 77.16,0.049 77.048,-0.021C76.936,-0.091 76.857,-0.191 76.81,-0.322L74.066,-8.078L71.294,-0.322C71.248,-0.191 71.168,-0.091 71.056,-0.021C70.944,0.049 70.823,0.084 70.692,0.084C70.562,0.084 70.44,0.049 70.328,-0.021C70.216,-0.091 70.137,-0.191 70.09,-0.322L66.912,-9.24C66.884,-9.315 66.87,-9.385 66.87,-9.45C66.87,-9.599 66.929,-9.721 67.045,-9.814C67.162,-9.907 67.295,-9.954 67.444,-9.954C67.556,-9.954 67.661,-9.924 67.759,-9.863C67.857,-9.802 67.925,-9.711 67.962,-9.59L70.72,-1.638L73.52,-9.506C73.567,-9.646 73.642,-9.751 73.744,-9.821C73.847,-9.891 73.959,-9.926 74.08,-9.926C74.202,-9.926 74.314,-9.889 74.416,-9.814C74.519,-9.739 74.594,-9.632 74.64,-9.492L77.398,-1.61L80.184,-9.59C80.222,-9.711 80.287,-9.802 80.38,-9.863Z" style="fill-rule:nonzero;"/><path d="M90.644,-0.42C90.644,-0.28 90.591,-0.163 90.483,-0.07C90.376,0.023 90.248,0.07 90.098,0.07C89.865,0.07 89.702,-0.042 89.608,-0.266L88.614,-2.534L83.336,-2.534L82.328,-0.266C82.235,-0.042 82.072,0.07 81.838,0.07C81.689,0.07 81.558,0.021 81.446,-0.077C81.334,-0.175 81.278,-0.294 81.278,-0.434C81.278,-0.509 81.297,-0.583 81.334,-0.658L85.338,-9.562C85.394,-9.693 85.478,-9.791 85.59,-9.856C85.702,-9.921 85.824,-9.954 85.954,-9.954C86.094,-9.954 86.22,-9.919 86.332,-9.849C86.444,-9.779 86.528,-9.683 86.584,-9.562L90.588,-0.658C90.626,-0.583 90.644,-0.504 90.644,-0.42ZM83.756,-3.486L88.194,-3.486L85.968,-8.512L83.756,-3.486Z" style="fill-rule:nonzero;"/><path d="M100.026,-9.779C100.12,-9.672 100.166,-9.529 100.166,-9.352L100.166,-0.518C100.166,-0.341 100.117,-0.198 100.019,-0.091C99.921,0.016 99.784,0.07 99.606,0.07C99.429,0.07 99.275,-0.009 99.144,-0.168L93.334,-7.938L93.334,-0.518C93.334,-0.341 93.285,-0.198 93.187,-0.091C93.089,0.016 92.956,0.07 92.788,0.07C92.62,0.07 92.49,0.016 92.396,-0.091C92.303,-0.198 92.256,-0.341 92.256,-0.518L92.256,-9.352C92.256,-9.529 92.305,-9.672 92.403,-9.779C92.501,-9.886 92.639,-9.94 92.816,-9.94C93.003,-9.94 93.162,-9.861 93.292,-9.702L99.088,-1.932L99.088,-9.352C99.088,-9.529 99.137,-9.672 99.235,-9.779C99.333,-9.886 99.466,-9.94 99.634,-9.94C99.802,-9.94 99.933,-9.886 100.026,-9.779Z" style="fill-rule:nonzero;"/></g><g transform="matrix(1,0,0,1,84.0923,382.866)"><path d="M9.772,-0.42C9.772,-0.28 9.718,-0.163 9.611,-0.07C9.504,0.023 9.375,0.07 9.226,0.07C8.993,0.07 8.829,-0.042 8.736,-0.266L7.742,-2.534L2.464,-2.534L1.456,-0.266C1.363,-0.042 1.199,0.07 0.966,0.07C0.817,0.07 0.686,0.021 0.574,-0.077C0.462,-0.175 0.406,-0.294 0.406,-0.434C0.406,-0.509 0.425,-0.583 0.462,-0.658L4.466,-9.562C4.522,-9.693 4.606,-9.791 4.718,-9.856C4.83,-9.921 4.951,-9.954 5.082,-9.954C5.222,-9.954 5.348,-9.919 5.46,-9.849C5.572,-9.779 5.656,-9.683 5.712,-9.562L9.716,-0.658C9.753,-0.583 9.772,-0.504 9.772,-0.42ZM2.884,-3.486L7.322,-3.486L5.096,-8.512L2.884,-3.486Z" style="fill-rule:nonzero;"/><path d="M12.343,-0.336C11.853,-0.625 11.475,-1.036 11.209,-1.568C10.943,-2.1 10.81,-2.716 10.81,-3.416C10.81,-4.116 10.948,-4.737 11.223,-5.278C11.498,-5.819 11.883,-6.239 12.378,-6.538C12.873,-6.837 13.442,-6.986 14.086,-6.986C14.441,-6.986 14.793,-6.937 15.143,-6.839C15.493,-6.741 15.799,-6.599 16.06,-6.412C16.228,-6.3 16.347,-6.19 16.417,-6.083C16.487,-5.976 16.522,-5.857 16.522,-5.726C16.522,-5.595 16.487,-5.488 16.417,-5.404C16.347,-5.32 16.256,-5.278 16.144,-5.278C16.079,-5.278 16.009,-5.297 15.934,-5.334C15.859,-5.371 15.796,-5.409 15.745,-5.446C15.694,-5.483 15.659,-5.507 15.64,-5.516C15.397,-5.675 15.166,-5.801 14.947,-5.894C14.728,-5.987 14.459,-6.034 14.142,-6.034C13.461,-6.034 12.931,-5.803 12.553,-5.341C12.175,-4.879 11.986,-4.237 11.986,-3.416C11.986,-2.595 12.175,-1.96 12.553,-1.512C12.931,-1.064 13.461,-0.84 14.142,-0.84C14.459,-0.84 14.732,-0.887 14.961,-0.98C15.19,-1.073 15.421,-1.199 15.654,-1.358C15.757,-1.423 15.855,-1.479 15.948,-1.526C16.041,-1.573 16.121,-1.596 16.186,-1.596C16.289,-1.596 16.375,-1.554 16.445,-1.47C16.515,-1.386 16.55,-1.279 16.55,-1.148C16.55,-1.027 16.517,-0.917 16.452,-0.819C16.387,-0.721 16.265,-0.611 16.088,-0.49C15.827,-0.313 15.512,-0.17 15.143,-0.063C14.774,0.044 14.403,0.098 14.03,0.098C13.395,0.098 12.833,-0.047 12.343,-0.336Z" style="fill-rule:nonzero;"/><path d="M19.037,-0.336C18.547,-0.625 18.169,-1.036 17.903,-1.568C17.637,-2.1 17.504,-2.716 17.504,-3.416C17.504,-4.116 17.642,-4.737 17.917,-5.278C18.192,-5.819 18.577,-6.239 19.072,-6.538C19.567,-6.837 20.136,-6.986 20.78,-6.986C21.135,-6.986 21.487,-6.937 21.837,-6.839C22.187,-6.741 22.493,-6.599 22.754,-6.412C22.922,-6.3 23.041,-6.19 23.111,-6.083C23.181,-5.976 23.216,-5.857 23.216,-5.726C23.216,-5.595 23.181,-5.488 23.111,-5.404C23.041,-5.32 22.95,-5.278 22.838,-5.278C22.773,-5.278 22.703,-5.297 22.628,-5.334C22.553,-5.371 22.49,-5.409 22.439,-5.446C22.388,-5.483 22.353,-5.507 22.334,-5.516C22.091,-5.675 21.86,-5.801 21.641,-5.894C21.422,-5.987 21.153,-6.034 20.836,-6.034C20.155,-6.034 19.625,-5.803 19.247,-5.341C18.869,-4.879 18.68,-4.237 18.68,-3.416C18.68,-2.595 18.869,-1.96 19.247,-1.512C19.625,-1.064 20.155,-0.84 20.836,-0.84C21.153,-0.84 21.426,-0.887 21.655,-0.98C21.884,-1.073 22.115,-1.199 22.348,-1.358C22.451,-1.423 22.549,-1.479 22.642,-1.526C22.735,-1.573 22.815,-1.596 22.88,-1.596C22.983,-1.596 23.069,-1.554 23.139,-1.47C23.209,-1.386 23.244,-1.279 23.244,-1.148C23.244,-1.027 23.211,-0.917 23.146,-0.819C23.081,-0.721 22.959,-0.611 22.782,-0.49C22.521,-0.313 22.206,-0.17 21.837,-0.063C21.468,0.044 21.097,0.098 20.724,0.098C20.089,0.098 19.527,-0.047 19.037,-0.336Z" style="fill-rule:nonzero;"/><path d="M30.148,-1.456C30.223,-1.372 30.26,-1.265 30.26,-1.134C30.26,-0.901 30.097,-0.686 29.77,-0.49C29.434,-0.294 29.079,-0.147 28.706,-0.049C28.333,0.049 27.969,0.098 27.614,0.098C26.559,0.098 25.726,-0.215 25.115,-0.84C24.504,-1.465 24.198,-2.329 24.198,-3.43C24.198,-4.13 24.333,-4.748 24.604,-5.285C24.875,-5.822 25.255,-6.239 25.745,-6.538C26.235,-6.837 26.793,-6.986 27.418,-6.986C28.305,-6.986 29.009,-6.697 29.532,-6.118C30.055,-5.539 30.316,-4.755 30.316,-3.766C30.316,-3.579 30.279,-3.444 30.204,-3.36C30.129,-3.276 30.008,-3.234 29.84,-3.234L25.332,-3.234C25.416,-1.629 26.177,-0.826 27.614,-0.826C27.978,-0.826 28.291,-0.875 28.552,-0.973C28.813,-1.071 29.093,-1.204 29.392,-1.372C29.635,-1.512 29.798,-1.582 29.882,-1.582C29.985,-1.582 30.073,-1.54 30.148,-1.456ZM25.997,-5.544C25.638,-5.171 25.425,-4.643 25.36,-3.962L29.322,-3.962C29.303,-4.653 29.131,-5.182 28.804,-5.551C28.477,-5.92 28.02,-6.104 27.432,-6.104C26.835,-6.104 26.356,-5.917 25.997,-5.544Z" style="fill-rule:nonzero;"/><path d="M32.131,-0.077C32.024,-0.175 31.97,-0.313 31.97,-0.49L31.97,-9.38C31.97,-9.557 32.024,-9.695 32.131,-9.793C32.238,-9.891 32.376,-9.94 32.544,-9.94C32.703,-9.94 32.836,-9.891 32.943,-9.793C33.05,-9.695 33.104,-9.557 33.104,-9.38L33.104,-0.49C33.104,-0.313 33.05,-0.175 32.943,-0.077C32.836,0.021 32.703,0.07 32.544,0.07C32.376,0.07 32.238,0.021 32.131,-0.077Z" style="fill-rule:nonzero;"/><path d="M40.75,-1.456C40.825,-1.372 40.862,-1.265 40.862,-1.134C40.862,-0.901 40.699,-0.686 40.372,-0.49C40.036,-0.294 39.681,-0.147 39.308,-0.049C38.935,0.049 38.571,0.098 38.216,0.098C37.161,0.098 36.328,-0.215 35.717,-0.84C35.106,-1.465 34.8,-2.329 34.8,-3.43C34.8,-4.13 34.935,-4.748 35.206,-5.285C35.477,-5.822 35.857,-6.239 36.347,-6.538C36.837,-6.837 37.395,-6.986 38.02,-6.986C38.907,-6.986 39.611,-6.697 40.134,-6.118C40.657,-5.539 40.918,-4.755 40.918,-3.766C40.918,-3.579 40.881,-3.444 40.806,-3.36C40.731,-3.276 40.61,-3.234 40.442,-3.234L35.934,-3.234C36.018,-1.629 36.779,-0.826 38.216,-0.826C38.58,-0.826 38.893,-0.875 39.154,-0.973C39.415,-1.071 39.695,-1.204 39.994,-1.372C40.237,-1.512 40.4,-1.582 40.484,-1.582C40.587,-1.582 40.675,-1.54 40.75,-1.456ZM36.599,-5.544C36.24,-5.171 36.027,-4.643 35.962,-3.962L39.924,-3.962C39.905,-4.653 39.733,-5.182 39.406,-5.551C39.079,-5.92 38.622,-6.104 38.034,-6.104C37.437,-6.104 36.958,-5.917 36.599,-5.544Z" style="fill-rule:nonzero;"/><path d="M46.534,-6.482C46.534,-6.333 46.492,-6.214 46.408,-6.125C46.324,-6.036 46.179,-5.983 45.974,-5.964L45.554,-5.922C44.929,-5.866 44.464,-5.644 44.161,-5.257C43.858,-4.87 43.706,-4.415 43.706,-3.892L43.706,-0.49C43.706,-0.303 43.655,-0.163 43.552,-0.07C43.449,0.023 43.314,0.07 43.146,0.07C42.978,0.07 42.84,0.021 42.733,-0.077C42.626,-0.175 42.572,-0.313 42.572,-0.49L42.572,-6.398C42.572,-6.575 42.628,-6.713 42.74,-6.811C42.852,-6.909 42.987,-6.958 43.146,-6.958C43.295,-6.958 43.421,-6.909 43.524,-6.811C43.627,-6.713 43.678,-6.58 43.678,-6.412L43.678,-5.628C43.874,-6.039 44.152,-6.351 44.511,-6.566C44.87,-6.781 45.283,-6.907 45.75,-6.944L45.946,-6.958C46.338,-6.986 46.534,-6.827 46.534,-6.482Z" style="fill-rule:nonzero;"/><path d="M52.794,-4.298L52.794,-0.49C52.794,-0.322 52.745,-0.187 52.647,-0.084C52.549,0.019 52.416,0.07 52.248,0.07C52.08,0.07 51.945,0.019 51.842,-0.084C51.739,-0.187 51.688,-0.322 51.688,-0.49L51.688,-1.162C51.511,-0.761 51.24,-0.45 50.876,-0.231C50.512,-0.012 50.092,0.098 49.616,0.098C49.177,0.098 48.774,0.009 48.405,-0.168C48.036,-0.345 47.745,-0.593 47.53,-0.91C47.315,-1.227 47.208,-1.577 47.208,-1.96C47.208,-2.473 47.339,-2.872 47.6,-3.157C47.861,-3.442 48.291,-3.647 48.888,-3.773C49.485,-3.899 50.316,-3.962 51.38,-3.962L51.688,-3.962L51.688,-4.424C51.688,-4.984 51.574,-5.395 51.345,-5.656C51.116,-5.917 50.745,-6.048 50.232,-6.048C49.597,-6.048 48.953,-5.875 48.3,-5.53C48.048,-5.371 47.871,-5.292 47.768,-5.292C47.656,-5.292 47.563,-5.334 47.488,-5.418C47.413,-5.502 47.376,-5.609 47.376,-5.74C47.376,-5.871 47.416,-5.985 47.495,-6.083C47.574,-6.181 47.703,-6.281 47.88,-6.384C48.207,-6.571 48.578,-6.718 48.993,-6.825C49.408,-6.932 49.821,-6.986 50.232,-6.986C51.94,-6.986 52.794,-6.09 52.794,-4.298ZM51.149,-1.365C51.508,-1.743 51.688,-2.231 51.688,-2.828L51.688,-3.234L51.436,-3.234C50.615,-3.234 49.989,-3.199 49.56,-3.129C49.131,-3.059 48.825,-2.942 48.643,-2.779C48.461,-2.616 48.37,-2.375 48.37,-2.058C48.37,-1.694 48.503,-1.393 48.769,-1.155C49.035,-0.917 49.369,-0.798 49.77,-0.798C50.33,-0.798 50.79,-0.987 51.149,-1.365Z" style="fill-rule:nonzero;"/><path d="M58.494,-0.378C58.494,-0.219 58.436,-0.1 58.319,-0.021C58.203,0.058 58.028,0.089 57.794,0.07L57.416,0.042C56.67,-0.014 56.119,-0.238 55.764,-0.63C55.41,-1.022 55.232,-1.615 55.232,-2.408L55.232,-5.922L54.294,-5.922C54.136,-5.922 54.012,-5.962 53.923,-6.041C53.835,-6.12 53.79,-6.225 53.79,-6.356C53.79,-6.496 53.835,-6.608 53.923,-6.692C54.012,-6.776 54.136,-6.818 54.294,-6.818L55.232,-6.818L55.232,-8.4C55.232,-8.577 55.284,-8.715 55.386,-8.813C55.489,-8.911 55.629,-8.96 55.806,-8.96C55.974,-8.96 56.11,-8.911 56.212,-8.813C56.315,-8.715 56.366,-8.577 56.366,-8.4L56.366,-6.818L57.92,-6.818C58.07,-6.818 58.189,-6.776 58.277,-6.692C58.366,-6.608 58.41,-6.496 58.41,-6.356C58.41,-6.225 58.366,-6.12 58.277,-6.041C58.189,-5.962 58.07,-5.922 57.92,-5.922L56.366,-5.922L56.366,-2.352C56.366,-1.839 56.471,-1.468 56.681,-1.239C56.891,-1.01 57.206,-0.882 57.626,-0.854L58.004,-0.826C58.331,-0.798 58.494,-0.649 58.494,-0.378Z" style="fill-rule:nonzero;"/><path d="M59.763,-0.077C59.656,-0.175 59.602,-0.313 59.602,-0.49L59.602,-6.398C59.602,-6.575 59.656,-6.713 59.763,-6.811C59.871,-6.909 60.008,-6.958 60.176,-6.958C60.344,-6.958 60.48,-6.909 60.582,-6.811C60.685,-6.713 60.736,-6.575 60.736,-6.398L60.736,-0.49C60.736,-0.303 60.685,-0.163 60.582,-0.07C60.48,0.023 60.344,0.07 60.176,0.07C60.008,0.07 59.871,0.021 59.763,-0.077ZM59.63,-8.624C59.49,-8.755 59.42,-8.927 59.42,-9.142C59.42,-9.347 59.49,-9.515 59.63,-9.646C59.77,-9.777 59.952,-9.842 60.176,-9.842C60.4,-9.842 60.582,-9.777 60.722,-9.646C60.862,-9.515 60.932,-9.347 60.932,-9.142C60.932,-8.927 60.862,-8.755 60.722,-8.624C60.582,-8.493 60.4,-8.428 60.176,-8.428C59.952,-8.428 59.77,-8.493 59.63,-8.624Z" style="fill-rule:nonzero;"/><path d="M63.965,-0.336C63.475,-0.625 63.097,-1.038 62.831,-1.575C62.565,-2.112 62.432,-2.735 62.432,-3.444C62.432,-4.153 62.565,-4.776 62.831,-5.313C63.097,-5.85 63.475,-6.263 63.965,-6.552C64.455,-6.841 65.022,-6.986 65.666,-6.986C66.31,-6.986 66.88,-6.841 67.374,-6.552C67.869,-6.263 68.249,-5.85 68.515,-5.313C68.781,-4.776 68.914,-4.153 68.914,-3.444C68.914,-2.735 68.781,-2.112 68.515,-1.575C68.249,-1.038 67.869,-0.625 67.374,-0.336C66.88,-0.047 66.31,0.098 65.666,0.098C65.022,0.098 64.455,-0.047 63.965,-0.336ZM67.213,-1.505C67.573,-1.948 67.752,-2.595 67.752,-3.444C67.752,-4.275 67.57,-4.916 67.206,-5.369C66.842,-5.822 66.329,-6.048 65.666,-6.048C65.004,-6.048 64.49,-5.822 64.126,-5.369C63.762,-4.916 63.58,-4.275 63.58,-3.444C63.58,-2.604 63.76,-1.96 64.119,-1.512C64.479,-1.064 64.994,-0.84 65.666,-0.84C66.338,-0.84 66.854,-1.062 67.213,-1.505Z" style="fill-rule:nonzero;"/><path d="M76.476,-4.284L76.476,-0.49C76.476,-0.313 76.427,-0.175 76.329,-0.077C76.231,0.021 76.094,0.07 75.916,0.07C75.739,0.07 75.599,0.021 75.496,-0.077C75.394,-0.175 75.342,-0.313 75.342,-0.49L75.342,-4.214C75.342,-4.849 75.219,-5.311 74.971,-5.6C74.724,-5.889 74.33,-6.034 73.788,-6.034C73.163,-6.034 72.664,-5.843 72.29,-5.46C71.917,-5.077 71.73,-4.559 71.73,-3.906L71.73,-0.49C71.73,-0.313 71.681,-0.175 71.583,-0.077C71.485,0.021 71.348,0.07 71.17,0.07C70.993,0.07 70.853,0.021 70.75,-0.077C70.648,-0.175 70.596,-0.313 70.596,-0.49L70.596,-6.398C70.596,-6.566 70.648,-6.701 70.75,-6.804C70.853,-6.907 70.993,-6.958 71.17,-6.958C71.338,-6.958 71.471,-6.907 71.569,-6.804C71.667,-6.701 71.716,-6.571 71.716,-6.412L71.716,-5.698C71.94,-6.118 72.253,-6.438 72.654,-6.657C73.056,-6.876 73.513,-6.986 74.026,-6.986C75.66,-6.986 76.476,-6.085 76.476,-4.284Z" style="fill-rule:nonzero;"/></g></g></g></g></svg>