<?xml version="1.0" encoding="UTF-8"?>
<svg width="160px" height="124px" viewBox="0 0 160 124" version="1.1" xmlns="http://www.w3.org/2000/svg" xmlns:xlink="http://www.w3.org/1999/xlink">
    <!-- Generator: Sketch 50 (54983) - http://www.bohemiancoding.com/sketch -->
    <title>Approved_Sites</title>
    <desc>Created with Sketch.</desc>
    <defs></defs>
    <g id="Page-2" stroke="none" stroke-width="1" fill="none" fill-rule="evenodd">
        <g id="Approved_Sites">
            <path d="M105.237323,108.690377 C73.6301704,108.690377 49.6612388,108.690377 33.3305284,108.690377 C31.9626296,108.690377 29.9107815,108.690377 27.1749839,108.690377 C12.3983722,108.690377 0,96.2332131 0,81.9291525 C0,79.1640808 0,77.0902771 0,75.7077412 C0,64.898256 0,48.6840282 0,27.0650578 C0,12.4537501 12.3983722,0 27.0653245,0 L111.479118,0 C126.666952,0 138.86314,12.3513344 138.86314,27.2767169 L138.86314,70.2904644 L128.938959,70.2904644 L128.938959,29.6391059 C128.938959,18.731833 120.056543,9.8762881 109.104305,9.8762881 L29.7588349,9.8762881 C18.799743,9.8762881 9.92075391,18.731833 9.92075391,29.6391059 C9.92075391,50.0922368 9.92075391,65.4320851 9.92075391,75.6586506 C9.92075391,76.4118076 9.92075391,77.5415432 9.92075391,79.0478573 C9.92075391,89.958544 18.799743,98.8072612 29.7588349,98.8072612 C31.2972513,98.8072612 32.4510635,98.8072612 33.2202717,98.8072612 L105.237324,98.8072612 L105.237324,108.690377 Z M119.266652,70.2904644 L114.839152,70.2904644 L114.839152,44.307425 L54.6018419,44.307425 L54.6018419,84.0617889 L105.237324,84.0617889 L105.237324,88.4759059 L31.5493682,88.4759059 C24.9732277,88.4759059 19.5896338,83.1161506 19.5896338,76.5649591 L19.5896338,32.1267834 C19.5896338,25.5721781 24.9732277,20.2124227 31.5493682,20.2124227 L107.306918,20.2124227 C113.886485,20.2124227 119.266652,25.5721781 119.266652,32.1267834 L119.266652,70.2904644 Z M105.572816,72.4567237 C105.357403,72.92681 105.237324,73.4496867 105.237324,74.0006093 L105.237324,76.8708407 L62.4562005,76.8708407 C61.236239,76.8708407 60.2424502,75.8808222 60.2424502,74.6620753 C60.2424502,73.4467422 61.236239,72.4567237 62.4562005,72.4567237 L105.572816,72.4567237 Z M31.5493682,24.6231259 C27.3960163,24.6231259 24.0171343,27.9891888 24.0171343,32.1267834 L24.0171343,39.893308 L114.839152,39.893308 L114.839152,32.1267834 C114.839152,27.9891888 111.46027,24.6231259 107.306918,24.6231259 L31.5493682,24.6231259 Z M24.0171343,76.5649591 C24.0171343,80.6991399 27.3960163,84.0617889 31.5493682,84.0617889 L50.1709145,84.0617889 L50.1709145,44.307425 L24.0171343,44.307425 L24.0171343,76.5649591 Z M106.162347,50.6500298 C107.382309,50.6500298 108.376098,51.6400483 108.376098,52.8553813 C108.376098,54.0741283 107.382309,55.0641468 106.162347,55.0641468 L62.4562005,55.0641468 C61.236239,55.0641468 60.2424502,54.0741283 60.2424502,52.8553813 C60.2424502,51.6400483 61.236239,50.6500298 62.4562005,50.6500298 L106.162347,50.6500298 Z M106.162347,61.5518405 C107.382309,61.5518405 108.376098,62.541859 108.376098,63.7571921 C108.376098,64.975939 107.382309,65.9659575 106.162347,65.9659575 L62.4562005,65.9659575 C61.236239,65.9659575 60.2424502,64.975939 60.2424502,63.7571921 C60.2424502,62.541859 61.236239,61.5518405 62.4562005,61.5518405 L106.162347,61.5518405 Z" id="Combined-Shape" fill="#636569"></path>
            <g id="Status_Good" transform="translate(108.985507, 73.104478)">
                <path d="M48.2577033,0 L2.76026147,0 C1.23604161,0 0,1.22844101 0,2.75101579 L0,48.1375858 C0,49.6567002 1.23604161,50.8955224 2.76026147,50.8955224 L48.2577033,50.8955224 C49.7784511,50.8955224 51.0144928,49.6567002 51.0144928,48.1375858 L51.0144928,2.75101579 C51.0144928,1.22844101 49.7784511,0 48.2577033,0" id="Good-Copy" fill="#73A950"></path>
                <polygon id="Path-7" fill="#FFFFFF" fill-rule="nonzero" transform="translate(25.944914, 22.067244) rotate(-315.000000) translate(-25.944914, -22.067244) " points="28.9207595 30.6028473 28.9207595 7.59382988 34.8724503 7.59382988 34.8724503 36.5406582 17.0173779 36.5406582 17.0173779 30.6028473"></polygon>
            </g>
        </g>
    </g>
</svg>