<?xml version="1.0" encoding="UTF-8"?>
<svg width="264px" height="65px" viewBox="0 0 264 65" version="1.1" xmlns="http://www.w3.org/2000/svg" xmlns:xlink="http://www.w3.org/1999/xlink">
    <!-- Generator: Sketch 50 (54983) - http://www.bohemiancoding.com/sketch -->
    <title>Group 29</title>
    <desc>Created with Sketch.</desc>
    <defs></defs>
    <g id="Page-2" stroke="none" stroke-width="1" fill="none" fill-rule="evenodd">
        <g id="Group-29" transform="translate(0.000000, 4.000000)">
            <path d="M248.538464,57 L30.811715,57 C24.5027423,57 19.3466425,51.7859966 19.3466425,45.4097497 L19.3466425,11.5902503 C19.3466425,5.21400339 24.5027423,0 30.811715,0 L248.538464,0 C254.840364,0 260,5.21400339 260,11.5902503 L260,45.4097497 C260,51.7859966 254.840364,57 248.538464,57 Z" id="Stroke-1" stroke="#646569" stroke-width="7.64428312"></path>
            <path d="M209.207182,24.225 L217.692088,24.225 L217.692088,32.775 L209.203648,32.775 L209.203648,24.225 L200.722276,24.225 L200.722276,15.675 L209.207182,15.675 L209.207182,24.225 Z M150.028407,24.225 L150.028407,32.775 L141.543501,32.775 L141.543501,24.225 L149.798703,24.225 L149.798703,15.675 L158.287143,15.675 L158.287143,24.225 L150.028407,24.225 Z M192.23737,24.225 L200.718742,24.225 L200.718742,32.775 L192.230302,32.775 L192.230302,24.225 L183.74893,24.225 L183.74893,15.675 L192.23737,15.675 L192.23737,24.225 Z M166.775583,24.225 L166.775583,32.775 L158.290677,32.775 L158.290677,24.225 L166.77205,24.225 L166.77205,15.675 L175.26049,15.675 L175.26049,24.225 L166.775583,24.225 Z M175.264023,32.775 L175.264023,24.225 L183.74893,24.225 L183.74893,32.775 L175.264023,32.775 Z M149.798703,41.325 L149.798703,32.7785595 L158.287143,32.7785595 L158.287143,41.325 L149.798703,41.325 Z M133.055061,24.225 L133.055061,15.675 L141.543501,15.675 L141.543501,24.225 L133.055061,24.225 Z M32.734563,24.225 L32.734563,15.675 L41.223003,15.675 L41.223003,24.225 L32.734563,24.225 Z M133.055061,41.325 L133.055061,32.7785595 L141.543501,32.7785595 L141.543501,41.325 L133.055061,41.325 Z M0,24.225 L0,15.675 L17.0793634,15.675 L17.0793634,24.225 L0,24.225 Z M0,41.325 L0,32.7785595 L17.0793634,32.7785595 L17.0793634,41.325 L0,41.325 Z M242.924171,24.225 L242.924171,15.675 L260,15.675 L260,24.225 L242.924171,24.225 Z M242.924171,41.325 L242.924171,32.7785595 L260,32.7785595 L260,41.325 L242.924171,41.325 Z M166.77205,41.325 L166.77205,32.7785595 L175.26049,32.7785595 L175.26049,41.325 L166.77205,41.325 Z M92.5141016,41.325 L92.5141016,32.7785595 L101.002542,32.7785595 L101.002542,41.325 L92.5141016,41.325 Z M75.7669254,41.325 L75.7669254,32.7785595 L84.2553654,32.7785595 L84.2553654,41.325 L75.7669254,41.325 Z M109.490982,41.325 L109.490982,32.7785595 L117.979422,32.7785595 L117.979422,41.325 L109.490982,41.325 Z M183.74893,41.325 L183.74893,32.7785595 L192.23737,32.7785595 L192.23737,41.325 L183.74893,41.325 Z M200.722276,41.325 L200.722276,32.7785595 L209.207182,32.7785595 L209.207182,41.325 L200.722276,41.325 Z M217.692088,24.225 L217.692088,15.675 L226.180528,15.675 L226.180528,24.225 L217.692088,24.225 Z M217.692088,41.325 L217.692088,32.7785595 L226.180528,32.7785595 L226.180528,41.325 L217.692088,41.325 Z" id="Combined-Shape" fill="#646569"></path>
        </g>
    </g>
</svg>