<?xml version="1.0" encoding="UTF-8" standalone="no"?>
<!DOCTYPE svg PUBLIC "-//W3C//DTD SVG 1.1//EN" "http://www.w3.org/Graphics/SVG/1.1/DTD/svg11.dtd">
<svg width="100%" height="100%" viewBox="0 0 30 30" version="1.1" xmlns="http://www.w3.org/2000/svg" xmlns:xlink="http://www.w3.org/1999/xlink" xml:space="preserve" xmlns:serif="http://www.serif.com/" style="fill-rule:evenodd;clip-rule:evenodd;stroke-linejoin:round;stroke-miterlimit:1.41421;">
    <g transform="matrix(1,0,0,1,-810,-908)">
        <g id="Group-20" transform="matrix(1,0,0,1,810,908)">
            <circle id="Oval-4" cx="15" cy="15" r="15" style="fill:rgb(255,120,27);"/>
            <g transform="matrix(1,0,0,1,9,21)">
                <g id="_6" serif:id="6">
                    <path d="M8.19,-7.623C8.778,-7.281 9.237,-6.801 9.567,-6.183C9.897,-5.565 10.062,-4.86 10.062,-4.068C10.062,-3.252 9.879,-2.523 9.513,-1.881C9.147,-1.239 8.643,-0.738 8.001,-0.378C7.359,-0.018 6.63,0.162 5.814,0.162C4.206,0.162 2.967,-0.381 2.097,-1.467C1.227,-2.553 0.792,-4.104 0.792,-6.12C0.792,-7.5 0.996,-8.697 1.404,-9.711C1.812,-10.725 2.397,-11.502 3.159,-12.042C3.921,-12.582 4.818,-12.852 5.85,-12.852C6.534,-12.852 7.221,-12.729 7.911,-12.483C8.601,-12.237 9.186,-11.904 9.666,-11.484C9.822,-11.352 9.933,-11.223 9.999,-11.097C10.065,-10.971 10.098,-10.818 10.098,-10.638C10.098,-10.374 10.023,-10.149 9.873,-9.963C9.723,-9.777 9.546,-9.684 9.342,-9.684C9.222,-9.684 9.108,-9.705 9,-9.747C8.892,-9.789 8.76,-9.858 8.604,-9.954C7.608,-10.65 6.72,-10.998 5.94,-10.998C5.064,-10.998 4.374,-10.593 3.87,-9.783C3.366,-8.973 3.102,-7.836 3.078,-6.372C3.354,-6.912 3.768,-7.341 4.32,-7.659C4.872,-7.977 5.49,-8.136 6.174,-8.136C6.93,-8.136 7.602,-7.965 8.19,-7.623ZM7.272,-2.313C7.668,-2.739 7.866,-3.3 7.866,-3.996C7.866,-4.692 7.668,-5.25 7.272,-5.67C6.876,-6.09 6.348,-6.3 5.688,-6.3C5.016,-6.3 4.473,-6.087 4.059,-5.661C3.645,-5.235 3.438,-4.68 3.438,-3.996C3.438,-3.3 3.645,-2.739 4.059,-2.313C4.473,-1.887 5.016,-1.674 5.688,-1.674C6.348,-1.674 6.876,-1.887 7.272,-2.313Z" style="fill:white;fill-rule:nonzero;"/>
                </g>
            </g>
        </g>
    </g>
</svg>
