<?xml version="1.0" encoding="UTF-8" standalone="no"?>
<!DOCTYPE svg PUBLIC "-//W3C//DTD SVG 1.1//EN" "http://www.w3.org/Graphics/SVG/1.1/DTD/svg11.dtd">
<svg width="100%" height="100%" viewBox="0 0 30 30" version="1.1" xmlns="http://www.w3.org/2000/svg" xmlns:xlink="http://www.w3.org/1999/xlink" xml:space="preserve" xmlns:serif="http://www.serif.com/" style="fill-rule:evenodd;clip-rule:evenodd;stroke-linejoin:round;stroke-miterlimit:1.41421;">
    <g transform="matrix(1,0,0,1,-810,-860)">
        <g id="Group-20" transform="matrix(1,0,0,1,810,860)">
            <circle id="Oval-4" cx="15" cy="15" r="15" style="fill:rgb(255,120,27);"/>
            <g transform="matrix(1,0,0,1,10,21)">
                <g id="_5" serif:id="5">
                    <path d="M8.163,-7.605C8.769,-7.263 9.24,-6.786 9.576,-6.174C9.912,-5.562 10.08,-4.86 10.08,-4.068C10.08,-3.24 9.891,-2.508 9.513,-1.872C9.135,-1.236 8.601,-0.741 7.911,-0.387C7.221,-0.033 6.426,0.144 5.526,0.144C4.782,0.144 4.053,0.021 3.339,-0.225C2.625,-0.471 2.016,-0.804 1.512,-1.224C1.236,-1.464 1.098,-1.746 1.098,-2.07C1.098,-2.334 1.173,-2.559 1.323,-2.745C1.473,-2.931 1.65,-3.024 1.854,-3.024C1.974,-3.024 2.088,-3.003 2.196,-2.961C2.304,-2.919 2.43,-2.85 2.574,-2.754C3.054,-2.418 3.522,-2.16 3.978,-1.98C4.434,-1.8 4.92,-1.71 5.436,-1.71C6.228,-1.71 6.834,-1.908 7.254,-2.304C7.674,-2.7 7.884,-3.264 7.884,-3.996C7.884,-4.704 7.671,-5.265 7.245,-5.679C6.819,-6.093 6.234,-6.3 5.49,-6.3C5.022,-6.3 4.605,-6.234 4.239,-6.102C3.873,-5.97 3.498,-5.748 3.114,-5.436C2.886,-5.28 2.652,-5.202 2.412,-5.202C2.172,-5.202 1.968,-5.274 1.8,-5.418C1.632,-5.562 1.548,-5.754 1.548,-5.994L1.548,-11.61C1.548,-11.946 1.644,-12.21 1.836,-12.402C2.028,-12.594 2.298,-12.69 2.646,-12.69L8.64,-12.69C9.36,-12.69 9.72,-12.39 9.72,-11.79C9.72,-11.19 9.36,-10.89 8.64,-10.89L3.816,-10.89L3.816,-7.47C4.428,-7.902 5.178,-8.118 6.066,-8.118C6.858,-8.118 7.557,-7.947 8.163,-7.605Z" style="fill:white;fill-rule:nonzero;"/>
                </g>
            </g>
        </g>
    </g>
</svg>
