<?xml version="1.0" encoding="UTF-8" standalone="no"?>
<!DOCTYPE svg PUBLIC "-//W3C//DTD SVG 1.1//EN" "http://www.w3.org/Graphics/SVG/1.1/DTD/svg11.dtd">
<svg width="100%" height="100%" viewBox="0 0 241 11" version="1.1" xmlns="http://www.w3.org/2000/svg" xmlns:xlink="http://www.w3.org/1999/xlink" xml:space="preserve" xmlns:serif="http://www.serif.com/" style="fill-rule:evenodd;clip-rule:evenodd;stroke-linejoin:round;stroke-miterlimit:1.41421;">
    <g transform="matrix(1,0,0,1,-41,-871)">
        <g transform="matrix(1,0,0,1,41,881)">
            <g id="SonicWall-CFS-user-b">
                <path d="M2.359,-0.203C1.72,-0.413 1.209,-0.695 0.826,-1.05C0.686,-1.181 0.616,-1.344 0.616,-1.54C0.616,-1.671 0.653,-1.785 0.728,-1.883C0.803,-1.981 0.891,-2.03 0.994,-2.03C1.115,-2.03 1.246,-1.979 1.386,-1.876C2.254,-1.204 3.243,-0.868 4.354,-0.868C5.157,-0.868 5.773,-1.022 6.202,-1.33C6.631,-1.638 6.846,-2.077 6.846,-2.646C6.846,-2.973 6.743,-3.236 6.538,-3.437C6.333,-3.638 6.062,-3.799 5.726,-3.92C5.39,-4.041 4.937,-4.167 4.368,-4.298C3.603,-4.475 2.975,-4.662 2.485,-4.858C1.995,-5.054 1.598,-5.334 1.295,-5.698C0.992,-6.062 0.84,-6.538 0.84,-7.126C0.84,-7.686 0.992,-8.183 1.295,-8.617C1.598,-9.051 2.023,-9.387 2.569,-9.625C3.115,-9.863 3.738,-9.982 4.438,-9.982C5.091,-9.982 5.7,-9.882 6.265,-9.681C6.83,-9.48 7.303,-9.193 7.686,-8.82C7.835,-8.671 7.91,-8.507 7.91,-8.33C7.91,-8.199 7.873,-8.085 7.798,-7.987C7.723,-7.889 7.635,-7.84 7.532,-7.84C7.429,-7.84 7.294,-7.891 7.126,-7.994C6.669,-8.367 6.244,-8.629 5.852,-8.778C5.46,-8.927 4.989,-9.002 4.438,-9.002C3.663,-9.002 3.061,-8.841 2.632,-8.519C2.203,-8.197 1.988,-7.747 1.988,-7.168C1.988,-6.673 2.177,-6.302 2.555,-6.055C2.933,-5.808 3.514,-5.591 4.298,-5.404C5.147,-5.199 5.815,-5.01 6.3,-4.837C6.785,-4.664 7.189,-4.405 7.511,-4.06C7.833,-3.715 7.994,-3.253 7.994,-2.674C7.994,-2.123 7.842,-1.638 7.539,-1.218C7.236,-0.798 6.809,-0.471 6.258,-0.238C5.707,-0.005 5.077,0.112 4.368,0.112C3.668,0.112 2.998,0.007 2.359,-0.203Z" style="fill-rule:nonzero;"/>
                <path d="M10.81,-0.336C10.32,-0.625 9.942,-1.038 9.676,-1.575C9.41,-2.112 9.277,-2.735 9.277,-3.444C9.277,-4.153 9.41,-4.776 9.676,-5.313C9.942,-5.85 10.32,-6.263 10.81,-6.552C11.3,-6.841 11.867,-6.986 12.511,-6.986C13.155,-6.986 13.725,-6.841 14.219,-6.552C14.714,-6.263 15.094,-5.85 15.36,-5.313C15.626,-4.776 15.759,-4.153 15.759,-3.444C15.759,-2.735 15.626,-2.112 15.36,-1.575C15.094,-1.038 14.714,-0.625 14.219,-0.336C13.725,-0.047 13.155,0.098 12.511,0.098C11.867,0.098 11.3,-0.047 10.81,-0.336ZM14.058,-1.505C14.418,-1.948 14.597,-2.595 14.597,-3.444C14.597,-4.275 14.415,-4.916 14.051,-5.369C13.687,-5.822 13.174,-6.048 12.511,-6.048C11.849,-6.048 11.335,-5.822 10.971,-5.369C10.607,-4.916 10.425,-4.275 10.425,-3.444C10.425,-2.604 10.605,-1.96 10.964,-1.512C11.324,-1.064 11.839,-0.84 12.511,-0.84C13.183,-0.84 13.699,-1.062 14.058,-1.505Z" style="fill-rule:nonzero;"/>
                <path d="M23.328,-4.284L23.328,-0.49C23.328,-0.313 23.279,-0.175 23.181,-0.077C23.083,0.021 22.946,0.07 22.768,0.07C22.591,0.07 22.451,0.021 22.348,-0.077C22.246,-0.175 22.194,-0.313 22.194,-0.49L22.194,-4.214C22.194,-4.849 22.071,-5.311 21.823,-5.6C21.576,-5.889 21.182,-6.034 20.64,-6.034C20.015,-6.034 19.516,-5.843 19.142,-5.46C18.769,-5.077 18.582,-4.559 18.582,-3.906L18.582,-0.49C18.582,-0.313 18.533,-0.175 18.435,-0.077C18.337,0.021 18.2,0.07 18.022,0.07C17.845,0.07 17.705,0.021 17.602,-0.077C17.5,-0.175 17.448,-0.313 17.448,-0.49L17.448,-6.398C17.448,-6.566 17.5,-6.701 17.602,-6.804C17.705,-6.907 17.845,-6.958 18.022,-6.958C18.19,-6.958 18.323,-6.907 18.421,-6.804C18.519,-6.701 18.568,-6.571 18.568,-6.412L18.568,-5.698C18.792,-6.118 19.105,-6.438 19.506,-6.657C19.908,-6.876 20.365,-6.986 20.878,-6.986C22.512,-6.986 23.328,-6.085 23.328,-4.284Z" style="fill-rule:nonzero;"/>
                <path d="M25.557,-0.077C25.449,-0.175 25.396,-0.313 25.396,-0.49L25.396,-6.398C25.396,-6.575 25.449,-6.713 25.557,-6.811C25.664,-6.909 25.802,-6.958 25.97,-6.958C26.138,-6.958 26.273,-6.909 26.376,-6.811C26.478,-6.713 26.53,-6.575 26.53,-6.398L26.53,-0.49C26.53,-0.303 26.478,-0.163 26.376,-0.07C26.273,0.023 26.138,0.07 25.97,0.07C25.802,0.07 25.664,0.021 25.557,-0.077ZM25.424,-8.624C25.284,-8.755 25.214,-8.927 25.214,-9.142C25.214,-9.347 25.284,-9.515 25.424,-9.646C25.564,-9.777 25.746,-9.842 25.97,-9.842C26.194,-9.842 26.376,-9.777 26.516,-9.646C26.656,-9.515 26.726,-9.347 26.726,-9.142C26.726,-8.927 26.656,-8.755 26.516,-8.624C26.376,-8.493 26.194,-8.428 25.97,-8.428C25.746,-8.428 25.564,-8.493 25.424,-8.624Z" style="fill-rule:nonzero;"/>
                <path d="M29.766,-0.336C29.276,-0.625 28.898,-1.036 28.632,-1.568C28.366,-2.1 28.233,-2.716 28.233,-3.416C28.233,-4.116 28.371,-4.737 28.646,-5.278C28.921,-5.819 29.306,-6.239 29.801,-6.538C30.296,-6.837 30.865,-6.986 31.509,-6.986C31.864,-6.986 32.216,-6.937 32.566,-6.839C32.916,-6.741 33.222,-6.599 33.483,-6.412C33.651,-6.3 33.77,-6.19 33.84,-6.083C33.91,-5.976 33.945,-5.857 33.945,-5.726C33.945,-5.595 33.91,-5.488 33.84,-5.404C33.77,-5.32 33.679,-5.278 33.567,-5.278C33.502,-5.278 33.432,-5.297 33.357,-5.334C33.282,-5.371 33.219,-5.409 33.168,-5.446C33.117,-5.483 33.082,-5.507 33.063,-5.516C32.82,-5.675 32.589,-5.801 32.37,-5.894C32.151,-5.987 31.882,-6.034 31.565,-6.034C30.884,-6.034 30.354,-5.803 29.976,-5.341C29.598,-4.879 29.409,-4.237 29.409,-3.416C29.409,-2.595 29.598,-1.96 29.976,-1.512C30.354,-1.064 30.884,-0.84 31.565,-0.84C31.882,-0.84 32.155,-0.887 32.384,-0.98C32.613,-1.073 32.844,-1.199 33.077,-1.358C33.18,-1.423 33.278,-1.479 33.371,-1.526C33.464,-1.573 33.544,-1.596 33.609,-1.596C33.712,-1.596 33.798,-1.554 33.868,-1.47C33.938,-1.386 33.973,-1.279 33.973,-1.148C33.973,-1.027 33.94,-0.917 33.875,-0.819C33.81,-0.721 33.688,-0.611 33.511,-0.49C33.25,-0.313 32.935,-0.17 32.566,-0.063C32.197,0.044 31.826,0.098 31.453,0.098C30.818,0.098 30.256,-0.047 29.766,-0.336Z" style="fill-rule:nonzero;"/>
                <path d="M48.318,-9.863C48.411,-9.924 48.514,-9.954 48.626,-9.954C48.775,-9.954 48.904,-9.91 49.011,-9.821C49.118,-9.732 49.172,-9.613 49.172,-9.464C49.172,-9.399 49.158,-9.324 49.13,-9.24L45.966,-0.322C45.919,-0.191 45.84,-0.091 45.728,-0.021C45.616,0.049 45.49,0.084 45.35,0.084C45.219,0.084 45.098,0.049 44.986,-0.021C44.874,-0.091 44.795,-0.191 44.748,-0.322L42.004,-8.078L39.232,-0.322C39.185,-0.191 39.106,-0.091 38.994,-0.021C38.882,0.049 38.761,0.084 38.63,0.084C38.499,0.084 38.378,0.049 38.266,-0.021C38.154,-0.091 38.075,-0.191 38.028,-0.322L34.85,-9.24C34.822,-9.315 34.808,-9.385 34.808,-9.45C34.808,-9.599 34.866,-9.721 34.983,-9.814C35.1,-9.907 35.233,-9.954 35.382,-9.954C35.494,-9.954 35.599,-9.924 35.697,-9.863C35.795,-9.802 35.863,-9.711 35.9,-9.59L38.658,-1.638L41.458,-9.506C41.505,-9.646 41.579,-9.751 41.682,-9.821C41.785,-9.891 41.897,-9.926 42.018,-9.926C42.139,-9.926 42.251,-9.889 42.354,-9.814C42.457,-9.739 42.531,-9.632 42.578,-9.492L45.336,-1.61L48.122,-9.59C48.159,-9.711 48.225,-9.802 48.318,-9.863Z" style="fill-rule:nonzero;"/>
                <path d="M55.313,-4.298L55.313,-0.49C55.313,-0.322 55.264,-0.187 55.166,-0.084C55.068,0.019 54.935,0.07 54.767,0.07C54.599,0.07 54.464,0.019 54.361,-0.084C54.259,-0.187 54.207,-0.322 54.207,-0.49L54.207,-1.162C54.03,-0.761 53.759,-0.45 53.395,-0.231C53.031,-0.012 52.611,0.098 52.135,0.098C51.697,0.098 51.293,0.009 50.924,-0.168C50.556,-0.345 50.264,-0.593 50.049,-0.91C49.835,-1.227 49.727,-1.577 49.727,-1.96C49.727,-2.473 49.858,-2.872 50.119,-3.157C50.381,-3.442 50.81,-3.647 51.407,-3.773C52.005,-3.899 52.835,-3.962 53.899,-3.962L54.207,-3.962L54.207,-4.424C54.207,-4.984 54.093,-5.395 53.864,-5.656C53.636,-5.917 53.265,-6.048 52.751,-6.048C52.117,-6.048 51.473,-5.875 50.819,-5.53C50.567,-5.371 50.39,-5.292 50.287,-5.292C50.175,-5.292 50.082,-5.334 50.007,-5.418C49.933,-5.502 49.895,-5.609 49.895,-5.74C49.895,-5.871 49.935,-5.985 50.014,-6.083C50.094,-6.181 50.222,-6.281 50.399,-6.384C50.726,-6.571 51.097,-6.718 51.512,-6.825C51.928,-6.932 52.341,-6.986 52.751,-6.986C54.459,-6.986 55.313,-6.09 55.313,-4.298ZM53.668,-1.365C54.028,-1.743 54.207,-2.231 54.207,-2.828L54.207,-3.234L53.955,-3.234C53.134,-3.234 52.509,-3.199 52.079,-3.129C51.65,-3.059 51.344,-2.942 51.162,-2.779C50.98,-2.616 50.889,-2.375 50.889,-2.058C50.889,-1.694 51.022,-1.393 51.288,-1.155C51.554,-0.917 51.888,-0.798 52.289,-0.798C52.849,-0.798 53.309,-0.987 53.668,-1.365Z" style="fill-rule:nonzero;"/>
                <path d="M57.541,-0.077C57.434,-0.175 57.38,-0.313 57.38,-0.49L57.38,-9.38C57.38,-9.557 57.434,-9.695 57.541,-9.793C57.649,-9.891 57.786,-9.94 57.954,-9.94C58.113,-9.94 58.246,-9.891 58.353,-9.793C58.461,-9.695 58.514,-9.557 58.514,-9.38L58.514,-0.49C58.514,-0.313 58.461,-0.175 58.353,-0.077C58.246,0.021 58.113,0.07 57.954,0.07C57.786,0.07 57.649,0.021 57.541,-0.077Z" style="fill-rule:nonzero;"/>
                <path d="M60.785,-0.077C60.677,-0.175 60.624,-0.313 60.624,-0.49L60.624,-9.38C60.624,-9.557 60.677,-9.695 60.785,-9.793C60.892,-9.891 61.03,-9.94 61.198,-9.94C61.356,-9.94 61.489,-9.891 61.597,-9.793C61.704,-9.695 61.758,-9.557 61.758,-9.38L61.758,-0.49C61.758,-0.313 61.704,-0.175 61.597,-0.077C61.489,0.021 61.356,0.07 61.198,0.07C61.03,0.07 60.892,0.021 60.785,-0.077Z" style="fill-rule:nonzero;"/>
                <path d="M69.406,-0.497C68.725,-0.903 68.2,-1.486 67.831,-2.247C67.462,-3.008 67.278,-3.906 67.278,-4.942C67.278,-5.969 67.462,-6.862 67.831,-7.623C68.2,-8.384 68.725,-8.967 69.406,-9.373C70.087,-9.779 70.895,-9.982 71.828,-9.982C72.453,-9.982 73.044,-9.882 73.599,-9.681C74.154,-9.48 74.637,-9.193 75.048,-8.82C75.197,-8.68 75.272,-8.517 75.272,-8.33C75.272,-8.199 75.235,-8.085 75.16,-7.987C75.085,-7.889 74.997,-7.84 74.894,-7.84C74.782,-7.84 74.647,-7.891 74.488,-7.994C74.012,-8.367 73.58,-8.629 73.193,-8.778C72.806,-8.927 72.36,-9.002 71.856,-9.002C70.773,-9.002 69.94,-8.65 69.357,-7.945C68.774,-7.24 68.482,-6.239 68.482,-4.942C68.482,-3.635 68.774,-2.63 69.357,-1.925C69.94,-1.22 70.773,-0.868 71.856,-0.868C72.351,-0.868 72.794,-0.943 73.186,-1.092C73.578,-1.241 74.012,-1.503 74.488,-1.876C74.647,-1.979 74.782,-2.03 74.894,-2.03C74.997,-2.03 75.085,-1.983 75.16,-1.89C75.235,-1.797 75.272,-1.68 75.272,-1.54C75.272,-1.353 75.197,-1.19 75.048,-1.05C74.637,-0.677 74.154,-0.39 73.599,-0.189C73.044,0.012 72.453,0.112 71.828,0.112C70.895,0.112 70.087,-0.091 69.406,-0.497Z" style="fill-rule:nonzero;"/>
                <path d="M77.269,-0.091C77.167,-0.198 77.115,-0.341 77.115,-0.518L77.115,-9.31C77.115,-9.478 77.169,-9.613 77.276,-9.716C77.384,-9.819 77.526,-9.87 77.703,-9.87L82.799,-9.87C82.967,-9.87 83.098,-9.828 83.191,-9.744C83.285,-9.66 83.331,-9.539 83.331,-9.38C83.331,-9.231 83.285,-9.114 83.191,-9.03C83.098,-8.946 82.967,-8.904 82.799,-8.904L78.249,-8.904L78.249,-5.502L82.519,-5.502C82.687,-5.502 82.818,-5.46 82.911,-5.376C83.005,-5.292 83.051,-5.171 83.051,-5.012C83.051,-4.863 83.005,-4.746 82.911,-4.662C82.818,-4.578 82.687,-4.536 82.519,-4.536L78.249,-4.536L78.249,-0.518C78.249,-0.341 78.2,-0.198 78.102,-0.091C78.004,0.016 77.867,0.07 77.689,0.07C77.512,0.07 77.372,0.016 77.269,-0.091Z" style="fill-rule:nonzero;"/>
                <path d="M85.742,-0.203C85.102,-0.413 84.591,-0.695 84.209,-1.05C84.069,-1.181 83.999,-1.344 83.999,-1.54C83.999,-1.671 84.036,-1.785 84.111,-1.883C84.185,-1.981 84.274,-2.03 84.377,-2.03C84.498,-2.03 84.629,-1.979 84.769,-1.876C85.637,-1.204 86.626,-0.868 87.737,-0.868C88.539,-0.868 89.155,-1.022 89.585,-1.33C90.014,-1.638 90.229,-2.077 90.229,-2.646C90.229,-2.973 90.126,-3.236 89.921,-3.437C89.715,-3.638 89.445,-3.799 89.109,-3.92C88.773,-4.041 88.32,-4.167 87.751,-4.298C86.985,-4.475 86.358,-4.662 85.868,-4.858C85.378,-5.054 84.981,-5.334 84.678,-5.698C84.374,-6.062 84.223,-6.538 84.223,-7.126C84.223,-7.686 84.374,-8.183 84.678,-8.617C84.981,-9.051 85.406,-9.387 85.952,-9.625C86.498,-9.863 87.121,-9.982 87.821,-9.982C88.474,-9.982 89.083,-9.882 89.648,-9.681C90.212,-9.48 90.686,-9.193 91.069,-8.82C91.218,-8.671 91.293,-8.507 91.293,-8.33C91.293,-8.199 91.255,-8.085 91.181,-7.987C91.106,-7.889 91.017,-7.84 90.915,-7.84C90.812,-7.84 90.677,-7.891 90.509,-7.994C90.051,-8.367 89.627,-8.629 89.235,-8.778C88.843,-8.927 88.371,-9.002 87.821,-9.002C87.046,-9.002 86.444,-8.841 86.015,-8.519C85.585,-8.197 85.371,-7.747 85.371,-7.168C85.371,-6.673 85.56,-6.302 85.938,-6.055C86.316,-5.808 86.897,-5.591 87.681,-5.404C88.53,-5.199 89.197,-5.01 89.683,-4.837C90.168,-4.664 90.572,-4.405 90.894,-4.06C91.216,-3.715 91.377,-3.253 91.377,-2.674C91.377,-2.123 91.225,-1.638 90.922,-1.218C90.618,-0.798 90.191,-0.471 89.641,-0.238C89.09,-0.005 88.46,0.112 87.751,0.112C87.051,0.112 86.381,0.007 85.742,-0.203Z" style="fill-rule:nonzero;"/>
                <path d="M102.266,-6.804C102.364,-6.701 102.413,-6.566 102.413,-6.398L102.413,-0.476C102.413,-0.317 102.364,-0.187 102.266,-0.084C102.168,0.019 102.03,0.07 101.853,0.07C101.685,0.07 101.552,0.021 101.454,-0.077C101.356,-0.175 101.307,-0.303 101.307,-0.462L101.307,-1.162C101.092,-0.751 100.791,-0.439 100.404,-0.224C100.017,-0.009 99.58,0.098 99.095,0.098C98.283,0.098 97.672,-0.128 97.261,-0.581C96.85,-1.034 96.645,-1.703 96.645,-2.59L96.645,-6.398C96.645,-6.566 96.696,-6.701 96.799,-6.804C96.902,-6.907 97.042,-6.958 97.219,-6.958C97.396,-6.958 97.534,-6.907 97.632,-6.804C97.73,-6.701 97.779,-6.566 97.779,-6.398L97.779,-2.618C97.779,-2.011 97.9,-1.566 98.143,-1.281C98.386,-0.996 98.768,-0.854 99.291,-0.854C99.888,-0.854 100.369,-1.048 100.733,-1.435C101.097,-1.822 101.279,-2.333 101.279,-2.968L101.279,-6.398C101.279,-6.566 101.33,-6.701 101.433,-6.804C101.536,-6.907 101.676,-6.958 101.853,-6.958C102.03,-6.958 102.168,-6.907 102.266,-6.804Z" style="fill-rule:nonzero;"/>
                <path d="M105.593,-0.056C105.206,-0.159 104.863,-0.303 104.564,-0.49C104.396,-0.602 104.277,-0.707 104.207,-0.805C104.137,-0.903 104.102,-1.022 104.102,-1.162C104.102,-1.283 104.137,-1.384 104.207,-1.463C104.277,-1.542 104.368,-1.582 104.48,-1.582C104.592,-1.582 104.755,-1.512 104.97,-1.372C105.25,-1.204 105.528,-1.071 105.803,-0.973C106.078,-0.875 106.421,-0.826 106.832,-0.826C107.336,-0.826 107.728,-0.915 108.008,-1.092C108.288,-1.269 108.428,-1.526 108.428,-1.862C108.428,-2.067 108.377,-2.233 108.274,-2.359C108.171,-2.485 107.994,-2.597 107.742,-2.695C107.49,-2.793 107.121,-2.893 106.636,-2.996C105.815,-3.173 105.227,-3.411 104.872,-3.71C104.517,-4.009 104.34,-4.415 104.34,-4.928C104.34,-5.329 104.452,-5.684 104.676,-5.992C104.9,-6.3 105.21,-6.543 105.607,-6.72C106.004,-6.897 106.454,-6.986 106.958,-6.986C107.322,-6.986 107.674,-6.937 108.015,-6.839C108.356,-6.741 108.657,-6.603 108.918,-6.426C109.235,-6.202 109.394,-5.969 109.394,-5.726C109.394,-5.605 109.357,-5.502 109.282,-5.418C109.207,-5.334 109.119,-5.292 109.016,-5.292C108.904,-5.292 108.736,-5.371 108.512,-5.53C108.251,-5.698 108.003,-5.829 107.77,-5.922C107.537,-6.015 107.247,-6.062 106.902,-6.062C106.463,-6.062 106.111,-5.964 105.845,-5.768C105.579,-5.572 105.446,-5.311 105.446,-4.984C105.446,-4.779 105.495,-4.613 105.593,-4.487C105.691,-4.361 105.854,-4.249 106.083,-4.151C106.312,-4.053 106.641,-3.957 107.07,-3.864C107.705,-3.724 108.197,-3.57 108.547,-3.402C108.897,-3.234 109.147,-3.029 109.296,-2.786C109.445,-2.543 109.52,-2.235 109.52,-1.862C109.52,-1.274 109.273,-0.8 108.778,-0.441C108.283,-0.082 107.63,0.098 106.818,0.098C106.389,0.098 105.98,0.047 105.593,-0.056Z" style="fill-rule:nonzero;"/>
                <path d="M116.781,-1.456C116.856,-1.372 116.893,-1.265 116.893,-1.134C116.893,-0.901 116.73,-0.686 116.403,-0.49C116.067,-0.294 115.713,-0.147 115.339,-0.049C114.966,0.049 114.602,0.098 114.247,0.098C113.193,0.098 112.36,-0.215 111.748,-0.84C111.137,-1.465 110.831,-2.329 110.831,-3.43C110.831,-4.13 110.967,-4.748 111.237,-5.285C111.508,-5.822 111.888,-6.239 112.378,-6.538C112.868,-6.837 113.426,-6.986 114.051,-6.986C114.938,-6.986 115.643,-6.697 116.165,-6.118C116.688,-5.539 116.949,-4.755 116.949,-3.766C116.949,-3.579 116.912,-3.444 116.837,-3.36C116.763,-3.276 116.641,-3.234 116.473,-3.234L111.965,-3.234C112.049,-1.629 112.81,-0.826 114.247,-0.826C114.611,-0.826 114.924,-0.875 115.185,-0.973C115.447,-1.071 115.727,-1.204 116.025,-1.372C116.268,-1.512 116.431,-1.582 116.515,-1.582C116.618,-1.582 116.707,-1.54 116.781,-1.456ZM112.63,-5.544C112.271,-5.171 112.059,-4.643 111.993,-3.962L115.955,-3.962C115.937,-4.653 115.764,-5.182 115.437,-5.551C115.111,-5.92 114.653,-6.104 114.065,-6.104C113.468,-6.104 112.99,-5.917 112.63,-5.544Z" style="fill-rule:nonzero;"/>
                <path d="M122.573,-6.482C122.573,-6.333 122.531,-6.214 122.447,-6.125C122.363,-6.036 122.218,-5.983 122.013,-5.964L121.593,-5.922C120.967,-5.866 120.503,-5.644 120.2,-5.257C119.896,-4.87 119.745,-4.415 119.745,-3.892L119.745,-0.49C119.745,-0.303 119.693,-0.163 119.591,-0.07C119.488,0.023 119.353,0.07 119.185,0.07C119.017,0.07 118.879,0.021 118.772,-0.077C118.664,-0.175 118.611,-0.313 118.611,-0.49L118.611,-6.398C118.611,-6.575 118.667,-6.713 118.779,-6.811C118.891,-6.909 119.026,-6.958 119.185,-6.958C119.334,-6.958 119.46,-6.909 119.563,-6.811C119.665,-6.713 119.717,-6.58 119.717,-6.412L119.717,-5.628C119.913,-6.039 120.19,-6.351 120.55,-6.566C120.909,-6.781 121.322,-6.907 121.789,-6.944L121.985,-6.958C122.377,-6.986 122.573,-6.827 122.573,-6.482Z" style="fill-rule:nonzero;"/>
                <path d="M132.167,-6.552C132.624,-6.263 132.979,-5.852 133.231,-5.32C133.483,-4.788 133.609,-4.172 133.609,-3.472C133.609,-2.763 133.483,-2.14 133.231,-1.603C132.979,-1.066 132.624,-0.649 132.167,-0.35C131.71,-0.051 131.182,0.098 130.585,0.098C130.053,0.098 129.589,-0.019 129.192,-0.252C128.795,-0.485 128.494,-0.817 128.289,-1.246L128.289,-0.49C128.289,-0.322 128.24,-0.187 128.142,-0.084C128.044,0.019 127.906,0.07 127.729,0.07C127.552,0.07 127.412,0.019 127.309,-0.084C127.206,-0.187 127.155,-0.322 127.155,-0.49L127.155,-9.394C127.155,-9.553 127.206,-9.683 127.309,-9.786C127.412,-9.889 127.552,-9.94 127.729,-9.94C127.906,-9.94 128.044,-9.891 128.142,-9.793C128.24,-9.695 128.289,-9.562 128.289,-9.394L128.289,-5.642C128.494,-6.071 128.795,-6.403 129.192,-6.636C129.589,-6.869 130.053,-6.986 130.585,-6.986C131.182,-6.986 131.71,-6.841 132.167,-6.552ZM131.901,-1.533C132.265,-1.995 132.447,-2.641 132.447,-3.472C132.447,-4.284 132.265,-4.914 131.901,-5.362C131.537,-5.81 131.024,-6.034 130.361,-6.034C129.698,-6.034 129.187,-5.81 128.828,-5.362C128.469,-4.914 128.289,-4.275 128.289,-3.444C128.289,-2.613 128.469,-1.972 128.828,-1.519C129.187,-1.066 129.698,-0.84 130.361,-0.84C131.024,-0.84 131.537,-1.071 131.901,-1.533Z" style="fill-rule:nonzero;"/>
                <path d="M140.842,-1.456C140.917,-1.372 140.954,-1.265 140.954,-1.134C140.954,-0.901 140.791,-0.686 140.464,-0.49C140.128,-0.294 139.774,-0.147 139.4,-0.049C139.027,0.049 138.663,0.098 138.308,0.098C137.254,0.098 136.421,-0.215 135.809,-0.84C135.198,-1.465 134.892,-2.329 134.892,-3.43C134.892,-4.13 135.028,-4.748 135.298,-5.285C135.569,-5.822 135.949,-6.239 136.439,-6.538C136.929,-6.837 137.487,-6.986 138.112,-6.986C138.999,-6.986 139.704,-6.697 140.226,-6.118C140.749,-5.539 141.01,-4.755 141.01,-3.766C141.01,-3.579 140.973,-3.444 140.898,-3.36C140.824,-3.276 140.702,-3.234 140.534,-3.234L136.026,-3.234C136.11,-1.629 136.871,-0.826 138.308,-0.826C138.672,-0.826 138.985,-0.875 139.246,-0.973C139.508,-1.071 139.788,-1.204 140.086,-1.372C140.329,-1.512 140.492,-1.582 140.576,-1.582C140.679,-1.582 140.768,-1.54 140.842,-1.456ZM136.691,-5.544C136.332,-5.171 136.12,-4.643 136.054,-3.962L140.016,-3.962C139.998,-4.653 139.825,-5.182 139.498,-5.551C139.172,-5.92 138.714,-6.104 138.126,-6.104C137.529,-6.104 137.051,-5.917 136.691,-5.544Z" style="fill-rule:nonzero;"/>
                <path d="M147.935,-6.307C148.346,-5.854 148.551,-5.18 148.551,-4.284L148.551,-0.49C148.551,-0.313 148.5,-0.175 148.397,-0.077C148.295,0.021 148.159,0.07 147.991,0.07C147.814,0.07 147.674,0.021 147.571,-0.077C147.469,-0.175 147.417,-0.313 147.417,-0.49L147.417,-4.256C147.417,-4.863 147.294,-5.311 147.046,-5.6C146.799,-5.889 146.405,-6.034 145.863,-6.034C145.238,-6.034 144.739,-5.843 144.365,-5.46C143.992,-5.077 143.805,-4.559 143.805,-3.906L143.805,-0.49C143.805,-0.313 143.756,-0.175 143.658,-0.077C143.56,0.021 143.423,0.07 143.245,0.07C143.068,0.07 142.928,0.021 142.825,-0.077C142.723,-0.175 142.671,-0.313 142.671,-0.49L142.671,-9.394C142.671,-9.553 142.725,-9.683 142.832,-9.786C142.94,-9.889 143.077,-9.94 143.245,-9.94C143.423,-9.94 143.56,-9.891 143.658,-9.793C143.756,-9.695 143.805,-9.562 143.805,-9.394L143.805,-5.726C144.029,-6.137 144.342,-6.449 144.743,-6.664C145.145,-6.879 145.602,-6.986 146.115,-6.986C146.918,-6.986 147.525,-6.76 147.935,-6.307Z" style="fill-rule:nonzero;"/>
                <path d="M150.78,-0.077C150.672,-0.175 150.619,-0.313 150.619,-0.49L150.619,-6.398C150.619,-6.575 150.672,-6.713 150.78,-6.811C150.887,-6.909 151.025,-6.958 151.193,-6.958C151.361,-6.958 151.496,-6.909 151.599,-6.811C151.701,-6.713 151.753,-6.575 151.753,-6.398L151.753,-0.49C151.753,-0.303 151.701,-0.163 151.599,-0.07C151.496,0.023 151.361,0.07 151.193,0.07C151.025,0.07 150.887,0.021 150.78,-0.077ZM150.647,-8.624C150.507,-8.755 150.437,-8.927 150.437,-9.142C150.437,-9.347 150.507,-9.515 150.647,-9.646C150.787,-9.777 150.969,-9.842 151.193,-9.842C151.417,-9.842 151.599,-9.777 151.739,-9.646C151.879,-9.515 151.949,-9.347 151.949,-9.142C151.949,-8.927 151.879,-8.755 151.739,-8.624C151.599,-8.493 151.417,-8.428 151.193,-8.428C150.969,-8.428 150.787,-8.493 150.647,-8.624Z" style="fill-rule:nonzero;"/>
                <path d="M159.742,-4.284L159.742,-0.49C159.742,-0.313 159.693,-0.175 159.595,-0.077C159.497,0.021 159.359,0.07 159.182,0.07C159.004,0.07 158.864,0.021 158.762,-0.077C158.659,-0.175 158.608,-0.313 158.608,-0.49L158.608,-4.214C158.608,-4.849 158.484,-5.311 158.237,-5.6C157.989,-5.889 157.595,-6.034 157.054,-6.034C156.428,-6.034 155.929,-5.843 155.556,-5.46C155.182,-5.077 154.996,-4.559 154.996,-3.906L154.996,-0.49C154.996,-0.313 154.947,-0.175 154.849,-0.077C154.751,0.021 154.613,0.07 154.436,0.07C154.258,0.07 154.118,0.021 154.016,-0.077C153.913,-0.175 153.862,-0.313 153.862,-0.49L153.862,-6.398C153.862,-6.566 153.913,-6.701 154.016,-6.804C154.118,-6.907 154.258,-6.958 154.436,-6.958C154.604,-6.958 154.737,-6.907 154.835,-6.804C154.933,-6.701 154.982,-6.571 154.982,-6.412L154.982,-5.698C155.206,-6.118 155.518,-6.438 155.92,-6.657C156.321,-6.876 156.778,-6.986 157.292,-6.986C158.925,-6.986 159.742,-6.085 159.742,-4.284Z" style="fill-rule:nonzero;"/>
                <path d="M167.703,-9.786C167.806,-9.683 167.857,-9.553 167.857,-9.394L167.857,-0.49C167.857,-0.322 167.806,-0.187 167.703,-0.084C167.6,0.019 167.46,0.07 167.283,0.07C167.106,0.07 166.968,0.019 166.87,-0.084C166.772,-0.187 166.723,-0.322 166.723,-0.49L166.723,-1.246C166.518,-0.817 166.217,-0.485 165.82,-0.252C165.423,-0.019 164.959,0.098 164.427,0.098C163.83,0.098 163.302,-0.051 162.845,-0.35C162.388,-0.649 162.033,-1.066 161.781,-1.603C161.529,-2.14 161.403,-2.763 161.403,-3.472C161.403,-4.172 161.529,-4.788 161.781,-5.32C162.033,-5.852 162.388,-6.263 162.845,-6.552C163.302,-6.841 163.83,-6.986 164.427,-6.986C164.959,-6.986 165.423,-6.869 165.82,-6.636C166.217,-6.403 166.518,-6.071 166.723,-5.642L166.723,-9.394C166.723,-9.562 166.772,-9.695 166.87,-9.793C166.968,-9.891 167.106,-9.94 167.283,-9.94C167.46,-9.94 167.6,-9.889 167.703,-9.786ZM166.184,-1.519C166.543,-1.972 166.723,-2.613 166.723,-3.444C166.723,-4.275 166.543,-4.914 166.184,-5.362C165.825,-5.81 165.314,-6.034 164.651,-6.034C163.988,-6.034 163.473,-5.81 163.104,-5.362C162.735,-4.914 162.551,-4.284 162.551,-3.472C162.551,-2.641 162.735,-1.995 163.104,-1.533C163.473,-1.071 163.988,-0.84 164.651,-0.84C165.314,-0.84 165.825,-1.066 166.184,-1.519Z" style="fill-rule:nonzero;"/>
                <path d="M177.199,-0.378C177.199,-0.219 177.141,-0.1 177.024,-0.021C176.908,0.058 176.733,0.089 176.499,0.07L176.121,0.042C175.375,-0.014 174.824,-0.238 174.469,-0.63C174.115,-1.022 173.937,-1.615 173.937,-2.408L173.937,-5.922L172.999,-5.922C172.841,-5.922 172.717,-5.962 172.628,-6.041C172.54,-6.12 172.495,-6.225 172.495,-6.356C172.495,-6.496 172.54,-6.608 172.628,-6.692C172.717,-6.776 172.841,-6.818 172.999,-6.818L173.937,-6.818L173.937,-8.4C173.937,-8.577 173.989,-8.715 174.091,-8.813C174.194,-8.911 174.334,-8.96 174.511,-8.96C174.679,-8.96 174.815,-8.911 174.917,-8.813C175.02,-8.715 175.071,-8.577 175.071,-8.4L175.071,-6.818L176.625,-6.818C176.775,-6.818 176.894,-6.776 176.982,-6.692C177.071,-6.608 177.115,-6.496 177.115,-6.356C177.115,-6.225 177.071,-6.12 176.982,-6.041C176.894,-5.962 176.775,-5.922 176.625,-5.922L175.071,-5.922L175.071,-2.352C175.071,-1.839 175.176,-1.468 175.386,-1.239C175.596,-1.01 175.911,-0.882 176.331,-0.854L176.709,-0.826C177.036,-0.798 177.199,-0.649 177.199,-0.378Z" style="fill-rule:nonzero;"/>
                <path d="M183.579,-6.307C183.989,-5.854 184.195,-5.18 184.195,-4.284L184.195,-0.49C184.195,-0.313 184.143,-0.175 184.041,-0.077C183.938,0.021 183.803,0.07 183.635,0.07C183.457,0.07 183.317,0.021 183.215,-0.077C183.112,-0.175 183.061,-0.313 183.061,-0.49L183.061,-4.256C183.061,-4.863 182.937,-5.311 182.69,-5.6C182.442,-5.889 182.048,-6.034 181.507,-6.034C180.881,-6.034 180.382,-5.843 180.009,-5.46C179.635,-5.077 179.449,-4.559 179.449,-3.906L179.449,-0.49C179.449,-0.313 179.4,-0.175 179.302,-0.077C179.204,0.021 179.066,0.07 178.889,0.07C178.711,0.07 178.571,0.021 178.469,-0.077C178.366,-0.175 178.315,-0.313 178.315,-0.49L178.315,-9.394C178.315,-9.553 178.368,-9.683 178.476,-9.786C178.583,-9.889 178.721,-9.94 178.889,-9.94C179.066,-9.94 179.204,-9.891 179.302,-9.793C179.4,-9.695 179.449,-9.562 179.449,-9.394L179.449,-5.726C179.673,-6.137 179.985,-6.449 180.387,-6.664C180.788,-6.879 181.245,-6.986 181.759,-6.986C182.561,-6.986 183.168,-6.76 183.579,-6.307Z" style="fill-rule:nonzero;"/>
                <path d="M191.806,-1.456C191.881,-1.372 191.918,-1.265 191.918,-1.134C191.918,-0.901 191.755,-0.686 191.428,-0.49C191.092,-0.294 190.737,-0.147 190.364,-0.049C189.991,0.049 189.627,0.098 189.272,0.098C188.217,0.098 187.384,-0.215 186.773,-0.84C186.162,-1.465 185.856,-2.329 185.856,-3.43C185.856,-4.13 185.991,-4.748 186.262,-5.285C186.533,-5.822 186.913,-6.239 187.403,-6.538C187.893,-6.837 188.451,-6.986 189.076,-6.986C189.963,-6.986 190.667,-6.697 191.19,-6.118C191.713,-5.539 191.974,-4.755 191.974,-3.766C191.974,-3.579 191.937,-3.444 191.862,-3.36C191.787,-3.276 191.666,-3.234 191.498,-3.234L186.99,-3.234C187.074,-1.629 187.835,-0.826 189.272,-0.826C189.636,-0.826 189.949,-0.875 190.21,-0.973C190.471,-1.071 190.751,-1.204 191.05,-1.372C191.293,-1.512 191.456,-1.582 191.54,-1.582C191.643,-1.582 191.731,-1.54 191.806,-1.456ZM187.655,-5.544C187.296,-5.171 187.083,-4.643 187.018,-3.962L190.98,-3.962C190.961,-4.653 190.789,-5.182 190.462,-5.551C190.135,-5.92 189.678,-6.104 189.09,-6.104C188.493,-6.104 188.014,-5.917 187.655,-5.544Z" style="fill-rule:nonzero;"/>
                <path d="M202.828,-6.692C202.912,-6.608 202.954,-6.496 202.954,-6.356L202.954,-0.49C202.954,-0.313 202.901,-0.175 202.793,-0.077C202.686,0.021 202.553,0.07 202.394,0.07C202.226,0.07 202.089,0.021 201.981,-0.077C201.874,-0.175 201.82,-0.313 201.82,-0.49L201.82,-5.922L198.754,-5.922L198.754,-0.49C198.754,-0.313 198.701,-0.175 198.593,-0.077C198.486,0.021 198.353,0.07 198.194,0.07C198.026,0.07 197.889,0.021 197.781,-0.077C197.674,-0.175 197.62,-0.313 197.62,-0.49L197.62,-5.922L196.682,-5.922C196.524,-5.922 196.4,-5.962 196.311,-6.041C196.223,-6.12 196.178,-6.225 196.178,-6.356C196.178,-6.496 196.223,-6.608 196.311,-6.692C196.4,-6.776 196.524,-6.818 196.682,-6.818L197.62,-6.818L197.62,-7.056C197.62,-7.896 197.83,-8.556 198.25,-9.037C198.67,-9.518 199.272,-9.791 200.056,-9.856L200.392,-9.884C200.84,-9.921 201.064,-9.781 201.064,-9.464C201.064,-9.193 200.906,-9.039 200.588,-9.002L200.252,-8.974C199.758,-8.937 199.384,-8.78 199.132,-8.505C198.88,-8.23 198.754,-7.817 198.754,-7.266L198.754,-6.818L202.464,-6.818C202.623,-6.818 202.744,-6.776 202.828,-6.692ZM202.933,-9.646C203.078,-9.515 203.15,-9.347 203.15,-9.142C203.15,-8.927 203.08,-8.755 202.94,-8.624C202.8,-8.493 202.618,-8.428 202.394,-8.428C202.17,-8.428 201.988,-8.493 201.848,-8.624C201.708,-8.755 201.638,-8.927 201.638,-9.142C201.638,-9.347 201.708,-9.515 201.848,-9.646C201.988,-9.777 202.17,-9.842 202.394,-9.842C202.609,-9.842 202.789,-9.777 202.933,-9.646Z" style="fill-rule:nonzero;"/>
                <path d="M209.025,-6.482C209.025,-6.333 208.983,-6.214 208.899,-6.125C208.815,-6.036 208.671,-5.983 208.465,-5.964L208.045,-5.922C207.42,-5.866 206.956,-5.644 206.652,-5.257C206.349,-4.87 206.197,-4.415 206.197,-3.892L206.197,-0.49C206.197,-0.303 206.146,-0.163 206.043,-0.07C205.941,0.023 205.805,0.07 205.637,0.07C205.469,0.07 205.332,0.021 205.224,-0.077C205.117,-0.175 205.063,-0.313 205.063,-0.49L205.063,-6.398C205.063,-6.575 205.119,-6.713 205.231,-6.811C205.343,-6.909 205.479,-6.958 205.637,-6.958C205.787,-6.958 205.913,-6.909 206.015,-6.811C206.118,-6.713 206.169,-6.58 206.169,-6.412L206.169,-5.628C206.365,-6.039 206.643,-6.351 207.002,-6.566C207.362,-6.781 207.775,-6.907 208.241,-6.944L208.437,-6.958C208.829,-6.986 209.025,-6.827 209.025,-6.482Z" style="fill-rule:nonzero;"/>
                <path d="M215.405,-1.456C215.479,-1.372 215.517,-1.265 215.517,-1.134C215.517,-0.901 215.353,-0.686 215.027,-0.49C214.691,-0.294 214.336,-0.147 213.963,-0.049C213.589,0.049 213.225,0.098 212.871,0.098C211.816,0.098 210.983,-0.215 210.372,-0.84C209.76,-1.465 209.455,-2.329 209.455,-3.43C209.455,-4.13 209.59,-4.748 209.861,-5.285C210.131,-5.822 210.512,-6.239 211.002,-6.538C211.492,-6.837 212.049,-6.986 212.675,-6.986C213.561,-6.986 214.266,-6.697 214.789,-6.118C215.311,-5.539 215.573,-4.755 215.573,-3.766C215.573,-3.579 215.535,-3.444 215.461,-3.36C215.386,-3.276 215.265,-3.234 215.097,-3.234L210.589,-3.234C210.673,-1.629 211.433,-0.826 212.871,-0.826C213.235,-0.826 213.547,-0.875 213.809,-0.973C214.07,-1.071 214.35,-1.204 214.649,-1.372C214.891,-1.512 215.055,-1.582 215.139,-1.582C215.241,-1.582 215.33,-1.54 215.405,-1.456ZM211.254,-5.544C210.894,-5.171 210.682,-4.643 210.617,-3.962L214.579,-3.962C214.56,-4.653 214.387,-5.182 214.061,-5.551C213.734,-5.92 213.277,-6.104 212.689,-6.104C212.091,-6.104 211.613,-5.917 211.254,-5.544Z" style="fill-rule:nonzero;"/>
                <path d="M226.936,-6.93C227.076,-6.93 227.202,-6.883 227.314,-6.79C227.426,-6.697 227.482,-6.58 227.482,-6.44C227.482,-6.375 227.468,-6.305 227.44,-6.23L225.116,-0.35C225.06,-0.229 224.978,-0.133 224.871,-0.063C224.764,0.007 224.645,0.042 224.514,0.042C224.393,0.042 224.278,0.007 224.171,-0.063C224.064,-0.133 223.982,-0.229 223.926,-0.35L221.994,-5.264L220.076,-0.35C220.029,-0.229 219.95,-0.133 219.838,-0.063C219.726,0.007 219.605,0.042 219.474,0.042C219.353,0.042 219.236,0.007 219.124,-0.063C219.012,-0.133 218.928,-0.229 218.872,-0.35L216.548,-6.216C216.52,-6.291 216.506,-6.356 216.506,-6.412C216.506,-6.561 216.569,-6.687 216.695,-6.79C216.821,-6.893 216.959,-6.944 217.108,-6.944C217.332,-6.944 217.491,-6.832 217.584,-6.608L219.502,-1.442L221.476,-6.566C221.532,-6.687 221.609,-6.781 221.707,-6.846C221.805,-6.911 221.91,-6.944 222.022,-6.944C222.143,-6.944 222.253,-6.911 222.351,-6.846C222.449,-6.781 222.521,-6.687 222.568,-6.566L224.542,-1.456L226.474,-6.594C226.567,-6.818 226.721,-6.93 226.936,-6.93Z" style="fill-rule:nonzero;"/>
                <path d="M234.155,-4.298L234.155,-0.49C234.155,-0.322 234.106,-0.187 234.008,-0.084C233.91,0.019 233.777,0.07 233.609,0.07C233.441,0.07 233.306,0.019 233.203,-0.084C233.1,-0.187 233.049,-0.322 233.049,-0.49L233.049,-1.162C232.872,-0.761 232.601,-0.45 232.237,-0.231C231.873,-0.012 231.453,0.098 230.977,0.098C230.538,0.098 230.135,0.009 229.766,-0.168C229.397,-0.345 229.106,-0.593 228.891,-0.91C228.676,-1.227 228.569,-1.577 228.569,-1.96C228.569,-2.473 228.7,-2.872 228.961,-3.157C229.222,-3.442 229.652,-3.647 230.249,-3.773C230.846,-3.899 231.677,-3.962 232.741,-3.962L233.049,-3.962L233.049,-4.424C233.049,-4.984 232.935,-5.395 232.706,-5.656C232.477,-5.917 232.106,-6.048 231.593,-6.048C230.958,-6.048 230.314,-5.875 229.661,-5.53C229.409,-5.371 229.232,-5.292 229.129,-5.292C229.017,-5.292 228.924,-5.334 228.849,-5.418C228.774,-5.502 228.737,-5.609 228.737,-5.74C228.737,-5.871 228.777,-5.985 228.856,-6.083C228.935,-6.181 229.064,-6.281 229.241,-6.384C229.568,-6.571 229.939,-6.718 230.354,-6.825C230.769,-6.932 231.182,-6.986 231.593,-6.986C233.301,-6.986 234.155,-6.09 234.155,-4.298ZM232.51,-1.365C232.869,-1.743 233.049,-2.231 233.049,-2.828L233.049,-3.234L232.797,-3.234C231.976,-3.234 231.35,-3.199 230.921,-3.129C230.492,-3.059 230.186,-2.942 230.004,-2.779C229.822,-2.616 229.731,-2.375 229.731,-2.058C229.731,-1.694 229.864,-1.393 230.13,-1.155C230.396,-0.917 230.73,-0.798 231.131,-0.798C231.691,-0.798 232.151,-0.987 232.51,-1.365Z" style="fill-rule:nonzero;"/>
                <path d="M236.383,-0.077C236.276,-0.175 236.222,-0.313 236.222,-0.49L236.222,-9.38C236.222,-9.557 236.276,-9.695 236.383,-9.793C236.491,-9.891 236.628,-9.94 236.796,-9.94C236.955,-9.94 237.088,-9.891 237.195,-9.793C237.303,-9.695 237.356,-9.557 237.356,-9.38L237.356,-0.49C237.356,-0.313 237.303,-0.175 237.195,-0.077C237.088,0.021 236.955,0.07 236.796,0.07C236.628,0.07 236.491,0.021 236.383,-0.077Z" style="fill-rule:nonzero;"/>
                <path d="M239.627,-0.077C239.519,-0.175 239.466,-0.313 239.466,-0.49L239.466,-9.38C239.466,-9.557 239.519,-9.695 239.627,-9.793C239.734,-9.891 239.872,-9.94 240.04,-9.94C240.198,-9.94 240.331,-9.891 240.439,-9.793C240.546,-9.695 240.6,-9.557 240.6,-9.38L240.6,-0.49C240.6,-0.313 240.546,-0.175 240.439,-0.077C240.331,0.021 240.198,0.07 240.04,0.07C239.872,0.07 239.734,0.021 239.627,-0.077Z" style="fill-rule:nonzero;"/>
            </g>
        </g>
    </g>
</svg>
