<?xml version="1.0" encoding="UTF-8" standalone="no"?>
<!DOCTYPE svg PUBLIC "-//W3C//DTD SVG 1.1//EN" "http://www.w3.org/Graphics/SVG/1.1/DTD/svg11.dtd">
<svg width="100%" height="100%" viewBox="0 0 81 29" version="1.1" xmlns="http://www.w3.org/2000/svg" xmlns:xlink="http://www.w3.org/1999/xlink" xml:space="preserve" xmlns:serif="http://www.serif.com/" style="fill-rule:evenodd;clip-rule:evenodd;stroke-linejoin:round;stroke-miterlimit:1.41421;">
    <g transform="matrix(1,0,0,1,-31,-524)">
        <g transform="matrix(1,0,0,1,26,28)">
            <g id="_40G-backup-port-chan" serif:id="40G-backup-port-chan">
                <g transform="matrix(1,0,0,1,6.526,506)">
                    <path d="M7.98,-3.15C8.12,-3.029 8.19,-2.856 8.19,-2.632C8.19,-2.165 7.91,-1.932 7.35,-1.932L6.636,-1.932L6.636,-0.826C6.636,-0.537 6.554,-0.313 6.391,-0.154C6.228,0.005 6.015,0.084 5.754,0.084C5.493,0.084 5.28,0.005 5.117,-0.154C4.954,-0.313 4.872,-0.537 4.872,-0.826L4.872,-1.932L1.204,-1.932C0.952,-1.932 0.756,-2.004 0.616,-2.149C0.476,-2.294 0.406,-2.473 0.406,-2.688C0.406,-2.912 0.481,-3.127 0.63,-3.332L4.956,-9.548C5.049,-9.679 5.166,-9.779 5.306,-9.849C5.446,-9.919 5.591,-9.954 5.74,-9.954C5.983,-9.954 6.193,-9.875 6.37,-9.716C6.547,-9.557 6.636,-9.333 6.636,-9.044L6.636,-3.332L7.35,-3.332C7.63,-3.332 7.84,-3.271 7.98,-3.15ZM2.268,-3.332L4.872,-3.332L4.872,-7.098L2.268,-3.332Z" style="fill:white;fill-rule:nonzero;"/>
                    <path d="M9.926,-1.169C9.31,-2.032 9.002,-3.29 9.002,-4.942C9.002,-6.585 9.31,-7.838 9.926,-8.701C10.542,-9.564 11.433,-9.996 12.6,-9.996C13.767,-9.996 14.658,-9.564 15.274,-8.701C15.89,-7.838 16.198,-6.585 16.198,-4.942C16.198,-3.299 15.89,-2.044 15.274,-1.176C14.658,-0.308 13.767,0.126 12.6,0.126C11.433,0.126 10.542,-0.306 9.926,-1.169ZM13.986,-2.163C14.275,-2.746 14.42,-3.673 14.42,-4.942C14.42,-6.221 14.275,-7.147 13.986,-7.721C13.697,-8.295 13.235,-8.582 12.6,-8.582C11.965,-8.582 11.503,-8.293 11.214,-7.714C10.925,-7.135 10.78,-6.211 10.78,-4.942C10.78,-3.673 10.925,-2.746 11.214,-2.163C11.503,-1.58 11.965,-1.288 12.6,-1.288C13.235,-1.288 13.697,-1.58 13.986,-2.163Z" style="fill:white;fill-rule:nonzero;"/>
                    <path d="M25.9,-5.145C26.031,-5.019 26.096,-4.853 26.096,-4.648L26.096,-1.638C26.096,-1.209 26.04,-0.905 25.928,-0.728C25.816,-0.551 25.587,-0.406 25.242,-0.294C24.869,-0.163 24.435,-0.061 23.94,0.014C23.445,0.089 22.969,0.126 22.512,0.126C21.495,0.126 20.613,-0.075 19.866,-0.476C19.119,-0.877 18.548,-1.458 18.151,-2.219C17.754,-2.98 17.556,-3.887 17.556,-4.942C17.556,-5.978 17.754,-6.876 18.151,-7.637C18.548,-8.398 19.11,-8.981 19.838,-9.387C20.566,-9.793 21.425,-9.996 22.414,-9.996C23.73,-9.996 24.808,-9.641 25.648,-8.932C25.76,-8.829 25.842,-8.727 25.893,-8.624C25.944,-8.521 25.97,-8.4 25.97,-8.26C25.97,-8.055 25.914,-7.882 25.802,-7.742C25.69,-7.602 25.555,-7.532 25.396,-7.532C25.293,-7.532 25.2,-7.548 25.116,-7.581C25.032,-7.614 24.934,-7.667 24.822,-7.742C24.411,-8.031 24.029,-8.234 23.674,-8.351C23.319,-8.468 22.918,-8.526 22.47,-8.526C21.453,-8.526 20.685,-8.225 20.167,-7.623C19.649,-7.021 19.39,-6.127 19.39,-4.942C19.39,-2.515 20.454,-1.302 22.582,-1.302C23.217,-1.302 23.851,-1.391 24.486,-1.568L24.486,-4.046L22.904,-4.046C22.68,-4.046 22.505,-4.102 22.379,-4.214C22.253,-4.326 22.19,-4.485 22.19,-4.69C22.19,-4.895 22.253,-5.054 22.379,-5.166C22.505,-5.278 22.68,-5.334 22.904,-5.334L25.382,-5.334C25.597,-5.334 25.769,-5.271 25.9,-5.145Z" style="fill:white;fill-rule:nonzero;"/>
                    <path d="M37.282,-6.58C37.739,-6.291 38.096,-5.88 38.353,-5.348C38.61,-4.816 38.738,-4.195 38.738,-3.486C38.738,-2.777 38.61,-2.149 38.353,-1.603C38.096,-1.057 37.737,-0.635 37.275,-0.336C36.813,-0.037 36.288,0.112 35.7,0.112C35.205,0.112 34.764,0.005 34.377,-0.21C33.99,-0.425 33.693,-0.723 33.488,-1.106L33.488,-0.756C33.488,-0.504 33.409,-0.303 33.25,-0.154C33.091,-0.005 32.881,0.07 32.62,0.07C32.359,0.07 32.151,-0.005 31.997,-0.154C31.843,-0.303 31.766,-0.504 31.766,-0.756L31.766,-9.128C31.766,-9.371 31.848,-9.567 32.011,-9.716C32.174,-9.865 32.387,-9.94 32.648,-9.94C32.909,-9.94 33.119,-9.87 33.278,-9.73C33.437,-9.59 33.516,-9.399 33.516,-9.156L33.516,-5.852C33.721,-6.225 34.015,-6.512 34.398,-6.713C34.781,-6.914 35.215,-7.014 35.7,-7.014C36.297,-7.014 36.825,-6.869 37.282,-6.58ZM36.526,-1.834C36.834,-2.226 36.988,-2.777 36.988,-3.486C36.988,-4.186 36.836,-4.723 36.533,-5.096C36.23,-5.469 35.798,-5.656 35.238,-5.656C34.678,-5.656 34.246,-5.467 33.943,-5.089C33.64,-4.711 33.488,-4.167 33.488,-3.458C33.488,-2.749 33.64,-2.203 33.943,-1.82C34.246,-1.437 34.678,-1.246 35.238,-1.246C35.789,-1.246 36.218,-1.442 36.526,-1.834Z" style="fill:white;fill-rule:nonzero;"/>
                    <path d="M45.269,-6.307C45.731,-5.836 45.962,-5.119 45.962,-4.158L45.962,-0.742C45.962,-0.49 45.887,-0.292 45.738,-0.147C45.589,-0.002 45.383,0.07 45.122,0.07C44.879,0.07 44.681,-0.005 44.527,-0.154C44.373,-0.303 44.296,-0.499 44.296,-0.742L44.296,-1.05C44.137,-0.686 43.888,-0.401 43.547,-0.196C43.206,0.009 42.812,0.112 42.364,0.112C41.907,0.112 41.491,0.019 41.118,-0.168C40.745,-0.355 40.451,-0.611 40.236,-0.938C40.021,-1.265 39.914,-1.629 39.914,-2.03C39.914,-2.534 40.042,-2.931 40.299,-3.22C40.556,-3.509 40.973,-3.719 41.552,-3.85C42.131,-3.981 42.929,-4.046 43.946,-4.046L44.296,-4.046L44.296,-4.368C44.296,-4.825 44.198,-5.159 44.002,-5.369C43.806,-5.579 43.489,-5.684 43.05,-5.684C42.779,-5.684 42.504,-5.644 42.224,-5.565C41.944,-5.486 41.613,-5.371 41.23,-5.222C40.987,-5.101 40.81,-5.04 40.698,-5.04C40.53,-5.04 40.392,-5.101 40.285,-5.222C40.178,-5.343 40.124,-5.502 40.124,-5.698C40.124,-5.857 40.164,-5.994 40.243,-6.111C40.322,-6.228 40.455,-6.337 40.642,-6.44C40.969,-6.617 41.358,-6.757 41.811,-6.86C42.264,-6.963 42.709,-7.014 43.148,-7.014C44.1,-7.014 44.807,-6.778 45.269,-6.307ZM43.855,-1.617C44.149,-1.93 44.296,-2.333 44.296,-2.828L44.296,-3.122L44.044,-3.122C43.419,-3.122 42.933,-3.094 42.588,-3.038C42.243,-2.982 41.995,-2.884 41.846,-2.744C41.697,-2.604 41.622,-2.413 41.622,-2.17C41.622,-1.871 41.727,-1.626 41.937,-1.435C42.147,-1.244 42.406,-1.148 42.714,-1.148C43.181,-1.148 43.561,-1.304 43.855,-1.617Z" style="fill:white;fill-rule:nonzero;"/>
                    <path d="M48.979,-0.322C48.461,-0.611 48.062,-1.022 47.782,-1.554C47.502,-2.086 47.362,-2.707 47.362,-3.416C47.362,-4.125 47.509,-4.753 47.803,-5.299C48.097,-5.845 48.51,-6.267 49.042,-6.566C49.574,-6.865 50.185,-7.014 50.876,-7.014C51.24,-7.014 51.606,-6.963 51.975,-6.86C52.344,-6.757 52.668,-6.617 52.948,-6.44C53.247,-6.244 53.396,-5.997 53.396,-5.698C53.396,-5.493 53.347,-5.327 53.249,-5.201C53.151,-5.075 53.023,-5.012 52.864,-5.012C52.761,-5.012 52.654,-5.035 52.542,-5.082C52.43,-5.129 52.318,-5.185 52.206,-5.25C52.001,-5.371 51.805,-5.467 51.618,-5.537C51.431,-5.607 51.217,-5.642 50.974,-5.642C50.395,-5.642 49.95,-5.453 49.637,-5.075C49.324,-4.697 49.168,-4.153 49.168,-3.444C49.168,-2.744 49.324,-2.205 49.637,-1.827C49.95,-1.449 50.395,-1.26 50.974,-1.26C51.207,-1.26 51.415,-1.295 51.597,-1.365C51.779,-1.435 51.982,-1.531 52.206,-1.652C52.346,-1.736 52.467,-1.799 52.57,-1.841C52.673,-1.883 52.775,-1.904 52.878,-1.904C53.027,-1.904 53.153,-1.839 53.256,-1.708C53.359,-1.577 53.41,-1.414 53.41,-1.218C53.41,-1.059 53.375,-0.922 53.305,-0.805C53.235,-0.688 53.121,-0.583 52.962,-0.49C52.673,-0.303 52.337,-0.156 51.954,-0.049C51.571,0.058 51.179,0.112 50.778,0.112C50.097,0.112 49.497,-0.033 48.979,-0.322Z" style="fill:white;fill-rule:nonzero;"/>
                    <path d="M60.942,-0.756C60.942,-0.541 60.865,-0.35 60.711,-0.182C60.557,-0.014 60.377,0.07 60.172,0.07C59.967,0.07 59.775,-0.014 59.598,-0.182L56.322,-3.15L56.322,-0.756C56.322,-0.485 56.238,-0.28 56.07,-0.14C55.902,0 55.692,0.07 55.44,0.07C55.188,0.07 54.98,0 54.817,-0.14C54.654,-0.28 54.572,-0.485 54.572,-0.756L54.572,-9.114C54.572,-9.385 54.654,-9.59 54.817,-9.73C54.98,-9.87 55.188,-9.94 55.44,-9.94C55.692,-9.94 55.902,-9.87 56.07,-9.73C56.238,-9.59 56.322,-9.385 56.322,-9.114L56.322,-3.85L59.318,-6.72C59.486,-6.888 59.677,-6.972 59.892,-6.972C60.107,-6.972 60.293,-6.893 60.452,-6.734C60.611,-6.575 60.69,-6.389 60.69,-6.174C60.69,-5.959 60.601,-5.763 60.424,-5.586L58.226,-3.542L60.662,-1.358C60.849,-1.181 60.942,-0.98 60.942,-0.756Z" style="fill:white;fill-rule:nonzero;"/>
                    <path d="M68.124,-6.762C68.283,-6.613 68.362,-6.412 68.362,-6.16L68.362,-0.728C68.362,-0.485 68.28,-0.289 68.117,-0.14C67.954,0.009 67.741,0.084 67.48,0.084C67.228,0.084 67.027,0.014 66.878,-0.126C66.729,-0.266 66.654,-0.457 66.654,-0.7L66.654,-1.05C66.439,-0.677 66.15,-0.39 65.786,-0.189C65.422,0.012 65.011,0.112 64.554,0.112C62.874,0.112 62.034,-0.831 62.034,-2.716L62.034,-6.16C62.034,-6.412 62.113,-6.613 62.272,-6.762C62.431,-6.911 62.641,-6.986 62.902,-6.986C63.173,-6.986 63.387,-6.911 63.546,-6.762C63.705,-6.613 63.784,-6.412 63.784,-6.16L63.784,-2.702C63.784,-2.217 63.882,-1.857 64.078,-1.624C64.274,-1.391 64.582,-1.274 65.002,-1.274C65.487,-1.274 65.877,-1.435 66.171,-1.757C66.465,-2.079 66.612,-2.506 66.612,-3.038L66.612,-6.16C66.612,-6.412 66.691,-6.613 66.85,-6.762C67.009,-6.911 67.219,-6.986 67.48,-6.986C67.751,-6.986 67.965,-6.911 68.124,-6.762Z" style="fill:white;fill-rule:nonzero;"/>
                    <path d="M75.691,-6.566C76.153,-6.267 76.512,-5.845 76.769,-5.299C77.026,-4.753 77.154,-4.125 77.154,-3.416C77.154,-2.707 77.026,-2.086 76.769,-1.554C76.512,-1.022 76.155,-0.611 75.698,-0.322C75.241,-0.033 74.713,0.112 74.116,0.112C73.631,0.112 73.197,0.009 72.814,-0.196C72.431,-0.401 72.137,-0.686 71.932,-1.05L71.932,1.806C71.932,2.049 71.853,2.24 71.694,2.38C71.535,2.52 71.325,2.59 71.064,2.59C70.803,2.59 70.59,2.515 70.427,2.366C70.264,2.217 70.182,2.021 70.182,1.778L70.182,-6.16C70.182,-6.412 70.259,-6.613 70.413,-6.762C70.567,-6.911 70.775,-6.986 71.036,-6.986C71.297,-6.986 71.507,-6.911 71.666,-6.762C71.825,-6.613 71.904,-6.412 71.904,-6.16L71.904,-5.81C72.109,-6.193 72.406,-6.489 72.793,-6.699C73.18,-6.909 73.621,-7.014 74.116,-7.014C74.704,-7.014 75.229,-6.865 75.691,-6.566ZM74.942,-1.813C75.25,-2.191 75.404,-2.725 75.404,-3.416C75.404,-4.125 75.25,-4.676 74.942,-5.068C74.634,-5.46 74.205,-5.656 73.654,-5.656C73.094,-5.656 72.662,-5.465 72.359,-5.082C72.056,-4.699 71.904,-4.153 71.904,-3.444C71.904,-2.744 72.056,-2.203 72.359,-1.82C72.662,-1.437 73.094,-1.246 73.654,-1.246C74.205,-1.246 74.634,-1.435 74.942,-1.813Z" style="fill:white;fill-rule:nonzero;"/>
                </g>
                <g transform="matrix(1,0,0,1,5,522)">
                    <path d="M6.419,-6.566C6.881,-6.267 7.24,-5.845 7.497,-5.299C7.754,-4.753 7.882,-4.125 7.882,-3.416C7.882,-2.707 7.754,-2.086 7.497,-1.554C7.24,-1.022 6.883,-0.611 6.426,-0.322C5.969,-0.033 5.441,0.112 4.844,0.112C4.359,0.112 3.925,0.009 3.542,-0.196C3.159,-0.401 2.865,-0.686 2.66,-1.05L2.66,1.806C2.66,2.049 2.581,2.24 2.422,2.38C2.263,2.52 2.053,2.59 1.792,2.59C1.531,2.59 1.318,2.515 1.155,2.366C0.992,2.217 0.91,2.021 0.91,1.778L0.91,-6.16C0.91,-6.412 0.987,-6.613 1.141,-6.762C1.295,-6.911 1.503,-6.986 1.764,-6.986C2.025,-6.986 2.235,-6.911 2.394,-6.762C2.553,-6.613 2.632,-6.412 2.632,-6.16L2.632,-5.81C2.837,-6.193 3.134,-6.489 3.521,-6.699C3.908,-6.909 4.349,-7.014 4.844,-7.014C5.432,-7.014 5.957,-6.865 6.419,-6.566ZM5.67,-1.813C5.978,-2.191 6.132,-2.725 6.132,-3.416C6.132,-4.125 5.978,-4.676 5.67,-5.068C5.362,-5.46 4.933,-5.656 4.382,-5.656C3.822,-5.656 3.39,-5.465 3.087,-5.082C2.784,-4.699 2.632,-4.153 2.632,-3.444C2.632,-2.744 2.784,-2.203 3.087,-1.82C3.39,-1.437 3.822,-1.246 4.382,-1.246C4.933,-1.246 5.362,-1.435 5.67,-1.813Z" style="fill:white;fill-rule:nonzero;"/>
                    <path d="M10.605,-0.322C10.078,-0.611 9.669,-1.027 9.38,-1.568C9.091,-2.109 8.946,-2.739 8.946,-3.458C8.946,-4.177 9.091,-4.804 9.38,-5.341C9.669,-5.878 10.078,-6.291 10.605,-6.58C11.132,-6.869 11.746,-7.014 12.446,-7.014C13.146,-7.014 13.76,-6.869 14.287,-6.58C14.814,-6.291 15.22,-5.878 15.505,-5.341C15.79,-4.804 15.932,-4.177 15.932,-3.458C15.932,-2.739 15.79,-2.109 15.505,-1.568C15.22,-1.027 14.814,-0.611 14.287,-0.322C13.76,-0.033 13.146,0.112 12.446,0.112C11.746,0.112 11.132,-0.033 10.605,-0.322ZM13.734,-1.806C14.033,-2.179 14.182,-2.73 14.182,-3.458C14.182,-4.177 14.033,-4.725 13.734,-5.103C13.435,-5.481 13.006,-5.67 12.446,-5.67C11.886,-5.67 11.454,-5.481 11.151,-5.103C10.848,-4.725 10.696,-4.177 10.696,-3.458C10.696,-2.73 10.845,-2.179 11.144,-1.806C11.443,-1.433 11.872,-1.246 12.432,-1.246C13.001,-1.246 13.435,-1.433 13.734,-1.806Z" style="fill:white;fill-rule:nonzero;"/>
                    <path d="M21.77,-6.832C21.91,-6.711 21.98,-6.529 21.98,-6.286C21.98,-6.034 21.919,-5.847 21.798,-5.726C21.677,-5.605 21.457,-5.525 21.14,-5.488L20.72,-5.446C20.169,-5.39 19.766,-5.203 19.509,-4.886C19.252,-4.569 19.124,-4.172 19.124,-3.696L19.124,-0.756C19.124,-0.485 19.04,-0.278 18.872,-0.133C18.704,0.012 18.494,0.084 18.242,0.084C17.99,0.084 17.782,0.012 17.619,-0.133C17.456,-0.278 17.374,-0.485 17.374,-0.756L17.374,-6.174C17.374,-6.435 17.456,-6.636 17.619,-6.776C17.782,-6.916 17.985,-6.986 18.228,-6.986C18.471,-6.986 18.667,-6.918 18.816,-6.783C18.965,-6.648 19.04,-6.454 19.04,-6.202L19.04,-5.642C19.217,-6.053 19.481,-6.37 19.831,-6.594C20.181,-6.818 20.571,-6.944 21,-6.972L21.196,-6.986C21.439,-7.005 21.63,-6.953 21.77,-6.832Z" style="fill:white;fill-rule:nonzero;"/>
                    <path d="M27.622,-0.588C27.622,-0.364 27.531,-0.194 27.349,-0.077C27.167,0.04 26.908,0.089 26.572,0.07L26.194,0.042C24.626,-0.07 23.842,-0.91 23.842,-2.478L23.842,-5.53L23.142,-5.53C22.89,-5.53 22.696,-5.586 22.561,-5.698C22.426,-5.81 22.358,-5.973 22.358,-6.188C22.358,-6.403 22.426,-6.566 22.561,-6.678C22.696,-6.79 22.89,-6.846 23.142,-6.846L23.842,-6.846L23.842,-8.134C23.842,-8.386 23.921,-8.587 24.08,-8.736C24.239,-8.885 24.453,-8.96 24.724,-8.96C24.985,-8.96 25.195,-8.885 25.354,-8.736C25.513,-8.587 25.592,-8.386 25.592,-8.134L25.592,-6.846L26.782,-6.846C27.034,-6.846 27.228,-6.79 27.363,-6.678C27.498,-6.566 27.566,-6.403 27.566,-6.188C27.566,-5.973 27.498,-5.81 27.363,-5.698C27.228,-5.586 27.034,-5.53 26.782,-5.53L25.592,-5.53L25.592,-2.352C25.592,-1.661 25.909,-1.293 26.544,-1.246L26.922,-1.218C27.389,-1.19 27.622,-0.98 27.622,-0.588Z" style="fill:white;fill-rule:nonzero;"/>
                    <path d="M33.565,-0.322C33.047,-0.611 32.648,-1.022 32.368,-1.554C32.088,-2.086 31.948,-2.707 31.948,-3.416C31.948,-4.125 32.095,-4.753 32.389,-5.299C32.683,-5.845 33.096,-6.267 33.628,-6.566C34.16,-6.865 34.771,-7.014 35.462,-7.014C35.826,-7.014 36.192,-6.963 36.561,-6.86C36.93,-6.757 37.254,-6.617 37.534,-6.44C37.833,-6.244 37.982,-5.997 37.982,-5.698C37.982,-5.493 37.933,-5.327 37.835,-5.201C37.737,-5.075 37.609,-5.012 37.45,-5.012C37.347,-5.012 37.24,-5.035 37.128,-5.082C37.016,-5.129 36.904,-5.185 36.792,-5.25C36.587,-5.371 36.391,-5.467 36.204,-5.537C36.017,-5.607 35.803,-5.642 35.56,-5.642C34.981,-5.642 34.536,-5.453 34.223,-5.075C33.91,-4.697 33.754,-4.153 33.754,-3.444C33.754,-2.744 33.91,-2.205 34.223,-1.827C34.536,-1.449 34.981,-1.26 35.56,-1.26C35.793,-1.26 36.001,-1.295 36.183,-1.365C36.365,-1.435 36.568,-1.531 36.792,-1.652C36.932,-1.736 37.053,-1.799 37.156,-1.841C37.259,-1.883 37.361,-1.904 37.464,-1.904C37.613,-1.904 37.739,-1.839 37.842,-1.708C37.945,-1.577 37.996,-1.414 37.996,-1.218C37.996,-1.059 37.961,-0.922 37.891,-0.805C37.821,-0.688 37.707,-0.583 37.548,-0.49C37.259,-0.303 36.923,-0.156 36.54,-0.049C36.157,0.058 35.765,0.112 35.364,0.112C34.683,0.112 34.083,-0.033 33.565,-0.322Z" style="fill:white;fill-rule:nonzero;"/>
                    <path d="M45.57,-4.2L45.57,-0.756C45.57,-0.495 45.493,-0.289 45.339,-0.14C45.185,0.009 44.973,0.084 44.702,0.084C44.431,0.084 44.217,0.009 44.058,-0.14C43.899,-0.289 43.82,-0.495 43.82,-0.756L43.82,-4.2C43.82,-4.695 43.72,-5.056 43.519,-5.285C43.318,-5.514 43.003,-5.628 42.574,-5.628C42.07,-5.628 41.666,-5.469 41.363,-5.152C41.06,-4.835 40.908,-4.41 40.908,-3.878L40.908,-0.756C40.908,-0.495 40.829,-0.289 40.67,-0.14C40.511,0.009 40.297,0.084 40.026,0.084C39.755,0.084 39.543,0.009 39.389,-0.14C39.235,-0.289 39.158,-0.495 39.158,-0.756L39.158,-9.128C39.158,-9.371 39.24,-9.567 39.403,-9.716C39.566,-9.865 39.779,-9.94 40.04,-9.94C40.301,-9.94 40.511,-9.87 40.67,-9.73C40.829,-9.59 40.908,-9.399 40.908,-9.156L40.908,-5.894C41.141,-6.258 41.452,-6.536 41.839,-6.727C42.226,-6.918 42.667,-7.014 43.162,-7.014C44.767,-7.014 45.57,-6.076 45.57,-4.2Z" style="fill:white;fill-rule:nonzero;"/>
                    <path d="M52.437,-6.307C52.899,-5.836 53.13,-5.119 53.13,-4.158L53.13,-0.742C53.13,-0.49 53.055,-0.292 52.906,-0.147C52.757,-0.002 52.551,0.07 52.29,0.07C52.047,0.07 51.849,-0.005 51.695,-0.154C51.541,-0.303 51.464,-0.499 51.464,-0.742L51.464,-1.05C51.305,-0.686 51.056,-0.401 50.715,-0.196C50.374,0.009 49.98,0.112 49.532,0.112C49.075,0.112 48.659,0.019 48.286,-0.168C47.913,-0.355 47.619,-0.611 47.404,-0.938C47.189,-1.265 47.082,-1.629 47.082,-2.03C47.082,-2.534 47.21,-2.931 47.467,-3.22C47.724,-3.509 48.141,-3.719 48.72,-3.85C49.299,-3.981 50.097,-4.046 51.114,-4.046L51.464,-4.046L51.464,-4.368C51.464,-4.825 51.366,-5.159 51.17,-5.369C50.974,-5.579 50.657,-5.684 50.218,-5.684C49.947,-5.684 49.672,-5.644 49.392,-5.565C49.112,-5.486 48.781,-5.371 48.398,-5.222C48.155,-5.101 47.978,-5.04 47.866,-5.04C47.698,-5.04 47.56,-5.101 47.453,-5.222C47.346,-5.343 47.292,-5.502 47.292,-5.698C47.292,-5.857 47.332,-5.994 47.411,-6.111C47.49,-6.228 47.623,-6.337 47.81,-6.44C48.137,-6.617 48.526,-6.757 48.979,-6.86C49.432,-6.963 49.877,-7.014 50.316,-7.014C51.268,-7.014 51.975,-6.778 52.437,-6.307ZM51.023,-1.617C51.317,-1.93 51.464,-2.333 51.464,-2.828L51.464,-3.122L51.212,-3.122C50.587,-3.122 50.101,-3.094 49.756,-3.038C49.411,-2.982 49.163,-2.884 49.014,-2.744C48.865,-2.604 48.79,-2.413 48.79,-2.17C48.79,-1.871 48.895,-1.626 49.105,-1.435C49.315,-1.244 49.574,-1.148 49.882,-1.148C50.349,-1.148 50.729,-1.304 51.023,-1.617Z" style="fill:white;fill-rule:nonzero;"/>
                    <path d="M60.718,-6.314C61.119,-5.847 61.32,-5.143 61.32,-4.2L61.32,-0.756C61.32,-0.495 61.243,-0.289 61.089,-0.14C60.935,0.009 60.723,0.084 60.452,0.084C60.181,0.084 59.967,0.009 59.808,-0.14C59.649,-0.289 59.57,-0.495 59.57,-0.756L59.57,-4.102C59.57,-4.634 59.47,-5.021 59.269,-5.264C59.068,-5.507 58.753,-5.628 58.324,-5.628C57.82,-5.628 57.416,-5.469 57.113,-5.152C56.81,-4.835 56.658,-4.41 56.658,-3.878L56.658,-0.756C56.658,-0.495 56.579,-0.289 56.42,-0.14C56.261,0.009 56.047,0.084 55.776,0.084C55.505,0.084 55.293,0.009 55.139,-0.14C54.985,-0.289 54.908,-0.495 54.908,-0.756L54.908,-6.174C54.908,-6.417 54.987,-6.613 55.146,-6.762C55.305,-6.911 55.519,-6.986 55.79,-6.986C56.033,-6.986 56.231,-6.914 56.385,-6.769C56.539,-6.624 56.616,-6.435 56.616,-6.202L56.616,-5.824C56.849,-6.207 57.162,-6.501 57.554,-6.706C57.946,-6.911 58.389,-7.014 58.884,-7.014C59.705,-7.014 60.317,-6.781 60.718,-6.314Z" style="fill:white;fill-rule:nonzero;"/>
                    <path d="M68.908,-6.314C69.309,-5.847 69.51,-5.143 69.51,-4.2L69.51,-0.756C69.51,-0.495 69.433,-0.289 69.279,-0.14C69.125,0.009 68.913,0.084 68.642,0.084C68.371,0.084 68.157,0.009 67.998,-0.14C67.839,-0.289 67.76,-0.495 67.76,-0.756L67.76,-4.102C67.76,-4.634 67.66,-5.021 67.459,-5.264C67.258,-5.507 66.943,-5.628 66.514,-5.628C66.01,-5.628 65.606,-5.469 65.303,-5.152C65,-4.835 64.848,-4.41 64.848,-3.878L64.848,-0.756C64.848,-0.495 64.769,-0.289 64.61,-0.14C64.451,0.009 64.237,0.084 63.966,0.084C63.695,0.084 63.483,0.009 63.329,-0.14C63.175,-0.289 63.098,-0.495 63.098,-0.756L63.098,-6.174C63.098,-6.417 63.177,-6.613 63.336,-6.762C63.495,-6.911 63.709,-6.986 63.98,-6.986C64.223,-6.986 64.421,-6.914 64.575,-6.769C64.729,-6.624 64.806,-6.435 64.806,-6.202L64.806,-5.824C65.039,-6.207 65.352,-6.501 65.744,-6.706C66.136,-6.911 66.579,-7.014 67.074,-7.014C67.895,-7.014 68.507,-6.781 68.908,-6.314Z" style="fill:white;fill-rule:nonzero;"/>
                    <path d="M77.091,-1.694C77.189,-1.573 77.238,-1.409 77.238,-1.204C77.238,-0.915 77.065,-0.672 76.72,-0.476C76.403,-0.299 76.043,-0.156 75.642,-0.049C75.241,0.058 74.858,0.112 74.494,0.112C73.393,0.112 72.52,-0.205 71.876,-0.84C71.232,-1.475 70.91,-2.343 70.91,-3.444C70.91,-4.144 71.05,-4.765 71.33,-5.306C71.61,-5.847 72.004,-6.267 72.513,-6.566C73.022,-6.865 73.598,-7.014 74.242,-7.014C74.858,-7.014 75.395,-6.879 75.852,-6.608C76.309,-6.337 76.664,-5.955 76.916,-5.46C77.168,-4.965 77.294,-4.382 77.294,-3.71C77.294,-3.309 77.117,-3.108 76.762,-3.108L72.632,-3.108C72.688,-2.464 72.87,-1.99 73.178,-1.687C73.486,-1.384 73.934,-1.232 74.522,-1.232C74.821,-1.232 75.084,-1.269 75.313,-1.344C75.542,-1.419 75.801,-1.521 76.09,-1.652C76.37,-1.801 76.575,-1.876 76.706,-1.876C76.865,-1.876 76.993,-1.815 77.091,-1.694ZM73.143,-5.334C72.858,-5.035 72.688,-4.606 72.632,-4.046L75.796,-4.046C75.777,-4.615 75.637,-5.047 75.376,-5.341C75.115,-5.635 74.751,-5.782 74.284,-5.782C73.808,-5.782 73.428,-5.633 73.143,-5.334Z" style="fill:white;fill-rule:nonzero;"/>
                    <path d="M78.967,-0.133C78.804,-0.278 78.722,-0.485 78.722,-0.756L78.722,-9.114C78.722,-9.385 78.804,-9.59 78.967,-9.73C79.13,-9.87 79.338,-9.94 79.59,-9.94C79.842,-9.94 80.052,-9.87 80.22,-9.73C80.388,-9.59 80.472,-9.385 80.472,-9.114L80.472,-0.756C80.472,-0.485 80.388,-0.278 80.22,-0.133C80.052,0.012 79.842,0.084 79.59,0.084C79.338,0.084 79.13,0.012 78.967,-0.133Z" style="fill:white;fill-rule:nonzero;"/>
                </g>
            </g>
        </g>
    </g>
</svg>
