<?xml version="1.0" encoding="UTF-8"?>
<svg width="206px" height="53px" viewBox="0 0 206 53" version="1.1" xmlns="http://www.w3.org/2000/svg" xmlns:xlink="http://www.w3.org/1999/xlink">
    <!-- Generator: Sketch 50 (54983) - http://www.bohemiancoding.com/sketch -->
    <title>Box_SuperMassive</title>
    <desc>Created with Sketch.</desc>
    <defs></defs>
    <g id="Page-1" stroke="none" stroke-width="1" fill="none" fill-rule="evenodd">
        <g id="Box_SuperMassive" fill="#636569">
            <path d="M184.274771,0 L21.0198127,0 L9.28782421,0 C4.15507925,0 0,4.22542936 0,9.44507739 L0,43.5549226 C0,48.7745706 4.15507925,53 9.28782421,53 L21.0198127,53 L184.274771,53 L196.006759,53 C201.139504,53 205.294583,48.7745706 205.294583,43.5549226 L205.294583,9.44507739 C205.539,4.22542936 201.139504,0 196.006759,0 L184.274771,0 Z M11.487572,29.109824 L4.6439121,29.109824 L4.6439121,23.890176 L11.487572,23.890176 L11.487572,29.109824 Z M9.28782421,48.0289066 C6.84365994,48.0289066 4.88832853,46.0404693 4.88832853,43.5549226 L4.88832853,34.329472 L11.7319885,34.329472 L11.7319885,43.5549226 C11.7319885,45.2948053 12.2208213,46.7861333 12.9540706,48.0289066 L9.28782421,48.0289066 Z M11.487572,18.670528 L4.6439121,18.670528 L4.6439121,9.44507739 C4.6439121,6.95953071 6.59924352,4.97109336 9.04340778,4.97109336 L12.4652378,4.97109336 C11.9764049,6.46242137 11.487572,7.95374938 11.487572,9.44507739 L11.487572,18.670528 Z M188.674266,43.5549226 C188.674266,46.0404693 186.718935,48.0289066 184.274771,48.0289066 L21.0198127,48.0289066 C18.5756484,48.0289066 16.620317,46.0404693 16.620317,43.5549226 L16.620317,9.44507739 C16.620317,6.95953071 18.5756484,4.97109336 21.0198127,4.97109336 L184.274771,4.97109336 C186.718935,4.97109336 188.674266,6.95953071 188.674266,9.44507739 L188.674266,43.5549226 Z M196.006759,4.97109336 C198.450923,4.97109336 200.406255,6.95953071 200.406255,9.44507739 L200.406255,18.670528 L193.562595,18.670528 L193.562595,9.44507739 C193.562595,7.70519472 193.073762,6.21386671 192.340513,4.97109336 L196.006759,4.97109336 Z M193.562595,23.890176 L200.406255,23.890176 L200.406255,29.109824 L193.562595,29.109824 L193.562595,23.890176 Z M192.584929,48.0289066 C193.318179,46.7861333 193.807011,45.0462506 193.807011,43.5549226 L193.807011,34.329472 L200.650671,34.329472 L200.650671,43.5549226 C200.406255,46.0404693 198.450923,48.0289066 196.006759,48.0289066 L192.584929,48.0289066 Z" id="Shape" fill-rule="nonzero"></path>
            <path d="M85.1664535,45.854357 L77.4710702,45.854357 C75.9319935,45.854357 74.8326531,44.721218 74.8326531,43.1348235 L74.8326531,39.7354065 C74.8326531,38.149012 75.9319935,37.015873 77.4710702,37.015873 L85.1664535,37.015873 C86.7055302,37.015873 87.8048707,38.149012 87.8048707,39.7354065 L87.8048707,43.1348235 C88.0247388,44.721218 86.7055302,45.854357 85.1664535,45.854357 Z M150.490094,37.1188856 L159.944422,37.1188856 L159.944422,45.0508584 L150.490094,45.0508584 L150.490094,37.1188856 Z M162.143103,37.1188856 L171.597431,37.1188856 L171.597431,45.0508584 L162.143103,45.0508584 L162.143103,37.1188856 Z M116.684338,37.4965986 L125.744562,37.4965986 L125.744562,45.4285714 L116.684338,45.4285714 L116.684338,37.4965986 Z M150.490094,27.7619048 L159.944422,27.7619048 L159.944422,35.6938776 L150.490094,35.6938776 L150.490094,27.7619048 Z M173.796112,35.6938776 L174.015981,35.6938776 L174.015981,27.7619048 L179.732551,27.7619048 C181.271628,27.7619048 182.370968,28.8950437 182.370968,30.4814383 L182.370968,35.6938776 L173.796112,35.6938776 Z M102.966152,37.8571429 L102.966152,45.7891156 L96.8098457,45.7891156 C95.270769,45.7891156 94.1714286,44.6559767 94.1714286,43.0695821 L94.1714286,40.3771429 C94.1714286,38.9853853 95.299671,37.8571429 96.6914286,37.8571429 L102.966152,37.8571429 Z M173.796112,37.1188856 L182.1511,37.1188856 L182.1511,42.3313249 C182.1511,43.9177195 181.05176,45.0508584 179.512683,45.0508584 L173.796112,45.0508584 L173.796112,37.1188856 Z M114.162266,35.6938776 L105.102041,35.6938776 L105.102041,30.4814383 C105.102041,28.8950437 106.234569,27.7619048 107.820108,27.7619048 L114.162266,27.7619048 L114.162266,35.6938776 Z M162.143103,27.7619048 L171.597431,27.7619048 L171.597431,35.6938776 L162.143103,35.6938776 L162.143103,27.7619048 Z M127.478617,37.4965986 L136.932945,37.4965986 L136.932945,45.4285714 L127.478617,45.4285714 L127.478617,37.4965986 Z M138.803898,37.4965986 L148.258226,37.4965986 L148.258226,45.4285714 L138.803898,45.4285714 L138.803898,37.4965986 Z M127.478617,27.7619048 L136.932945,27.7619048 L136.932945,35.6938776 L127.478617,35.6938776 L127.478617,27.7619048 Z M105.359622,37.8571429 L114.419847,37.8571429 L114.419847,45.7891156 L105.359622,45.7891156 L105.359622,37.8571429 Z M116.290234,27.7619048 L125.744562,27.7619048 L125.744562,35.6938776 L116.290234,35.6938776 L116.290234,27.7619048 Z M138.803898,27.7619048 L148.258226,27.7619048 L148.258226,35.6938776 L138.803898,35.6938776 L138.803898,27.7619048 Z M25.2220408,30.2857143 L60.5412245,30.2857143 C61.9329821,30.2857143 63.0612245,31.4139567 63.0612245,32.8057143 L63.0612245,42.9085714 C63.0612245,44.300329 61.9329821,45.4285714 60.5412245,45.4285714 L25.2220408,45.4285714 C23.8302832,45.4285714 22.7020408,44.300329 22.7020408,42.9085714 L22.7020408,32.8057143 C22.7020408,31.4139567 23.8302832,30.2857143 25.2220408,30.2857143 Z" id="Combined-Shape" fill-rule="nonzero"></path>
            <path d="M23.9639456,12.6190476 L76.9340136,12.6190476 C77.6309444,12.6190476 78.1959184,13.1840216 78.1959184,13.8809524 C78.1959184,14.5778831 77.6309444,15.1428571 76.9340136,15.1428571 L23.9639456,15.1428571 C23.2670148,15.1428571 22.7020408,14.5778831 22.7020408,13.8809524 C22.7020408,13.1840216 23.2670148,12.6190476 23.9639456,12.6190476 Z M23.9639456,15.984127 L76.9340136,15.984127 C77.6309444,15.984127 78.1959184,16.549101 78.1959184,17.2460317 C78.1959184,17.9429625 77.6309444,18.5079365 76.9340136,18.5079365 L23.9639456,18.5079365 C23.2670148,18.5079365 22.7020408,17.9429625 22.7020408,17.2460317 C22.7020408,16.549101 23.2670148,15.984127 23.9639456,15.984127 Z M23.9639456,19.3492063 L76.9340136,19.3492063 C77.6309444,19.3492063 78.1959184,19.9141804 78.1959184,20.6111111 C78.1959184,21.3080419 77.6309444,21.8730159 76.9340136,21.8730159 L23.9639456,21.8730159 C23.2670148,21.8730159 22.7020408,21.3080419 22.7020408,20.6111111 C22.7020408,19.9141804 23.2670148,19.3492063 23.9639456,19.3492063 Z M23.9639456,9.25396825 L76.9340136,9.25396825 C77.6309444,9.25396825 78.1959184,9.81894226 78.1959184,10.515873 C78.1959184,11.2128038 77.6309444,11.7777778 76.9340136,11.7777778 L23.9639456,11.7777778 C23.2670148,11.7777778 22.7020408,11.2128038 22.7020408,10.515873 C22.7020408,9.81894226 23.2670148,9.25396825 23.9639456,9.25396825 Z M127.384354,12.6190476 L180.354422,12.6190476 C181.051353,12.6190476 181.616327,13.1840216 181.616327,13.8809524 C181.616327,14.5778831 181.051353,15.1428571 180.354422,15.1428571 L127.384354,15.1428571 C126.687423,15.1428571 126.122449,14.5778831 126.122449,13.8809524 C126.122449,13.1840216 126.687423,12.6190476 127.384354,12.6190476 Z M127.384354,15.984127 L180.354422,15.984127 C181.051353,15.984127 181.616327,16.549101 181.616327,17.2460317 C181.616327,17.9429625 181.051353,18.5079365 180.354422,18.5079365 L127.384354,18.5079365 C126.687423,18.5079365 126.122449,17.9429625 126.122449,17.2460317 C126.122449,16.549101 126.687423,15.984127 127.384354,15.984127 Z M127.384354,19.3492063 L180.354422,19.3492063 C181.051353,19.3492063 181.616327,19.9141804 181.616327,20.6111111 C181.616327,21.3080419 181.051353,21.8730159 180.354422,21.8730159 L127.384354,21.8730159 C126.687423,21.8730159 126.122449,21.3080419 126.122449,20.6111111 C126.122449,19.9141804 126.687423,19.3492063 127.384354,19.3492063 Z M127.384354,9.25396825 L180.354422,9.25396825 C181.051353,9.25396825 181.616327,9.81894226 181.616327,10.515873 C181.616327,11.2128038 181.051353,11.7777778 180.354422,11.7777778 L127.384354,11.7777778 C126.687423,11.7777778 126.122449,11.2128038 126.122449,10.515873 C126.122449,9.81894226 126.687423,9.25396825 127.384354,9.25396825 Z M81.5591837,15.1428571 L123.6,15.1428571 L123.6,20.1942857 C123.6,21.5860433 122.471758,22.7142857 121.08,22.7142857 L84.0791837,22.7142857 C82.6874261,22.7142857 81.5591837,21.5860433 81.5591837,20.1942857 L81.5591837,15.1428571 Z M84.0791837,6.73015873 L121.08,6.73015873 C122.471758,6.73015873 123.6,7.85840116 123.6,9.25015873 L123.6,14.3015873 L81.5591837,14.3015873 L81.5591837,9.25015873 C81.5591837,7.85840116 82.6874261,6.73015873 84.0791837,6.73015873 Z M15.9755102,26.0793651 L15.9755102,25.2380952 L190.026531,25.2380952 L190.026531,26.0793651 L15.9755102,26.0793651 Z" id="Combined-Shape"></path>
        </g>
    </g>
</svg>