<?xml version="1.0" encoding="UTF-8" standalone="no"?>
<!DOCTYPE svg PUBLIC "-//W3C//DTD SVG 1.1//EN" "http://www.w3.org/Graphics/SVG/1.1/DTD/svg11.dtd">
<svg width="100%" height="100%" viewBox="0 0 135 14" version="1.1" xmlns="http://www.w3.org/2000/svg" xmlns:xlink="http://www.w3.org/1999/xlink" xml:space="preserve" xmlns:serif="http://www.serif.com/" style="fill-rule:evenodd;clip-rule:evenodd;stroke-linejoin:round;stroke-miterlimit:1.41421;">
    <g transform="matrix(1,0,0,1,-210,-465)">
        <g transform="matrix(1,0,0,1,26,28)">
            <g transform="matrix(1,0,0,1,184.338,448)">
                <g id="SuperMassive-12000">
                    <path d="M2.443,-0.161C1.804,-0.352 1.283,-0.611 0.882,-0.938C0.667,-1.097 0.56,-1.321 0.56,-1.61C0.56,-1.806 0.618,-1.976 0.735,-2.121C0.852,-2.266 0.989,-2.338 1.148,-2.338C1.316,-2.338 1.507,-2.273 1.722,-2.142C2.123,-1.853 2.543,-1.643 2.982,-1.512C3.421,-1.381 3.906,-1.316 4.438,-1.316C5.119,-1.316 5.642,-1.435 6.006,-1.673C6.37,-1.911 6.552,-2.259 6.552,-2.716C6.552,-3.071 6.382,-3.344 6.041,-3.535C5.7,-3.726 5.133,-3.911 4.34,-4.088C3.519,-4.265 2.851,-4.471 2.338,-4.704C1.825,-4.937 1.437,-5.236 1.176,-5.6C0.915,-5.964 0.784,-6.426 0.784,-6.986C0.784,-7.565 0.947,-8.083 1.274,-8.54C1.601,-8.997 2.056,-9.354 2.639,-9.611C3.222,-9.868 3.878,-9.996 4.606,-9.996C5.941,-9.996 7.028,-9.641 7.868,-8.932C7.989,-8.829 8.076,-8.729 8.127,-8.631C8.178,-8.533 8.204,-8.409 8.204,-8.26C8.204,-8.064 8.146,-7.894 8.029,-7.749C7.912,-7.604 7.775,-7.532 7.616,-7.532C7.523,-7.532 7.436,-7.546 7.357,-7.574C7.278,-7.602 7.173,-7.653 7.042,-7.728C6.659,-8.008 6.288,-8.216 5.929,-8.351C5.57,-8.486 5.129,-8.554 4.606,-8.554C3.971,-8.554 3.47,-8.426 3.101,-8.169C2.732,-7.912 2.548,-7.555 2.548,-7.098C2.548,-6.715 2.711,-6.421 3.038,-6.216C3.365,-6.011 3.92,-5.819 4.704,-5.642C5.535,-5.455 6.209,-5.248 6.727,-5.019C7.245,-4.79 7.642,-4.499 7.917,-4.144C8.192,-3.789 8.33,-3.346 8.33,-2.814C8.33,-2.235 8.169,-1.724 7.847,-1.281C7.525,-0.838 7.072,-0.492 6.489,-0.245C5.906,0.002 5.236,0.126 4.48,0.126C3.761,0.126 3.082,0.03 2.443,-0.161Z" style="fill:rgb(74,74,74);fill-rule:nonzero;"/>
                    <path d="M15.89,-6.762C16.049,-6.613 16.128,-6.412 16.128,-6.16L16.128,-0.728C16.128,-0.485 16.046,-0.289 15.883,-0.14C15.72,0.009 15.507,0.084 15.246,0.084C14.994,0.084 14.793,0.014 14.644,-0.126C14.495,-0.266 14.42,-0.457 14.42,-0.7L14.42,-1.05C14.205,-0.677 13.916,-0.39 13.552,-0.189C13.188,0.012 12.777,0.112 12.32,0.112C10.64,0.112 9.8,-0.831 9.8,-2.716L9.8,-6.16C9.8,-6.412 9.879,-6.613 10.038,-6.762C10.197,-6.911 10.407,-6.986 10.668,-6.986C10.939,-6.986 11.153,-6.911 11.312,-6.762C11.471,-6.613 11.55,-6.412 11.55,-6.16L11.55,-2.702C11.55,-2.217 11.648,-1.857 11.844,-1.624C12.04,-1.391 12.348,-1.274 12.768,-1.274C13.253,-1.274 13.643,-1.435 13.937,-1.757C14.231,-2.079 14.378,-2.506 14.378,-3.038L14.378,-6.16C14.378,-6.412 14.457,-6.613 14.616,-6.762C14.775,-6.911 14.985,-6.986 15.246,-6.986C15.517,-6.986 15.731,-6.911 15.89,-6.762Z" style="fill:rgb(74,74,74);fill-rule:nonzero;"/>
                    <path d="M23.457,-6.566C23.919,-6.267 24.278,-5.845 24.535,-5.299C24.792,-4.753 24.92,-4.125 24.92,-3.416C24.92,-2.707 24.792,-2.086 24.535,-1.554C24.278,-1.022 23.921,-0.611 23.464,-0.322C23.007,-0.033 22.479,0.112 21.882,0.112C21.397,0.112 20.963,0.009 20.58,-0.196C20.197,-0.401 19.903,-0.686 19.698,-1.05L19.698,1.806C19.698,2.049 19.619,2.24 19.46,2.38C19.301,2.52 19.091,2.59 18.83,2.59C18.569,2.59 18.356,2.515 18.193,2.366C18.03,2.217 17.948,2.021 17.948,1.778L17.948,-6.16C17.948,-6.412 18.025,-6.613 18.179,-6.762C18.333,-6.911 18.541,-6.986 18.802,-6.986C19.063,-6.986 19.273,-6.911 19.432,-6.762C19.591,-6.613 19.67,-6.412 19.67,-6.16L19.67,-5.81C19.875,-6.193 20.172,-6.489 20.559,-6.699C20.946,-6.909 21.387,-7.014 21.882,-7.014C22.47,-7.014 22.995,-6.865 23.457,-6.566ZM22.708,-1.813C23.016,-2.191 23.17,-2.725 23.17,-3.416C23.17,-4.125 23.016,-4.676 22.708,-5.068C22.4,-5.46 21.971,-5.656 21.42,-5.656C20.86,-5.656 20.428,-5.465 20.125,-5.082C19.822,-4.699 19.67,-4.153 19.67,-3.444C19.67,-2.744 19.822,-2.203 20.125,-1.82C20.428,-1.437 20.86,-1.246 21.42,-1.246C21.971,-1.246 22.4,-1.435 22.708,-1.813Z" style="fill:rgb(74,74,74);fill-rule:nonzero;"/>
                    <path d="M32.165,-1.694C32.263,-1.573 32.312,-1.409 32.312,-1.204C32.312,-0.915 32.139,-0.672 31.794,-0.476C31.477,-0.299 31.117,-0.156 30.716,-0.049C30.315,0.058 29.932,0.112 29.568,0.112C28.467,0.112 27.594,-0.205 26.95,-0.84C26.306,-1.475 25.984,-2.343 25.984,-3.444C25.984,-4.144 26.124,-4.765 26.404,-5.306C26.684,-5.847 27.078,-6.267 27.587,-6.566C28.096,-6.865 28.672,-7.014 29.316,-7.014C29.932,-7.014 30.469,-6.879 30.926,-6.608C31.383,-6.337 31.738,-5.955 31.99,-5.46C32.242,-4.965 32.368,-4.382 32.368,-3.71C32.368,-3.309 32.191,-3.108 31.836,-3.108L27.706,-3.108C27.762,-2.464 27.944,-1.99 28.252,-1.687C28.56,-1.384 29.008,-1.232 29.596,-1.232C29.895,-1.232 30.158,-1.269 30.387,-1.344C30.616,-1.419 30.875,-1.521 31.164,-1.652C31.444,-1.801 31.649,-1.876 31.78,-1.876C31.939,-1.876 32.067,-1.815 32.165,-1.694ZM28.217,-5.334C27.932,-5.035 27.762,-4.606 27.706,-4.046L30.87,-4.046C30.851,-4.615 30.711,-5.047 30.45,-5.341C30.189,-5.635 29.825,-5.782 29.358,-5.782C28.882,-5.782 28.502,-5.633 28.217,-5.334Z" style="fill:rgb(74,74,74);fill-rule:nonzero;"/>
                    <path d="M38.192,-6.832C38.332,-6.711 38.402,-6.529 38.402,-6.286C38.402,-6.034 38.341,-5.847 38.22,-5.726C38.099,-5.605 37.879,-5.525 37.562,-5.488L37.142,-5.446C36.591,-5.39 36.188,-5.203 35.931,-4.886C35.674,-4.569 35.546,-4.172 35.546,-3.696L35.546,-0.756C35.546,-0.485 35.462,-0.278 35.294,-0.133C35.126,0.012 34.916,0.084 34.664,0.084C34.412,0.084 34.204,0.012 34.041,-0.133C33.878,-0.278 33.796,-0.485 33.796,-0.756L33.796,-6.174C33.796,-6.435 33.878,-6.636 34.041,-6.776C34.204,-6.916 34.407,-6.986 34.65,-6.986C34.893,-6.986 35.089,-6.918 35.238,-6.783C35.387,-6.648 35.462,-6.454 35.462,-6.202L35.462,-5.642C35.639,-6.053 35.903,-6.37 36.253,-6.594C36.603,-6.818 36.993,-6.944 37.422,-6.972L37.618,-6.986C37.861,-7.005 38.052,-6.953 38.192,-6.832Z" style="fill:rgb(74,74,74);fill-rule:nonzero;"/>
                    <path d="M48.706,-9.695C48.865,-9.532 48.944,-9.315 48.944,-9.044L48.944,-0.756C48.944,-0.495 48.869,-0.289 48.72,-0.14C48.571,0.009 48.375,0.084 48.132,0.084C47.889,0.084 47.698,0.009 47.558,-0.14C47.418,-0.289 47.348,-0.495 47.348,-0.756L47.348,-6.524L44.968,-2.016C44.856,-1.811 44.735,-1.659 44.604,-1.561C44.473,-1.463 44.319,-1.414 44.142,-1.414C43.965,-1.414 43.811,-1.461 43.68,-1.554C43.549,-1.647 43.428,-1.801 43.316,-2.016L40.922,-6.454L40.922,-0.756C40.922,-0.504 40.85,-0.301 40.705,-0.147C40.56,0.007 40.367,0.084 40.124,0.084C39.881,0.084 39.69,0.009 39.55,-0.14C39.41,-0.289 39.34,-0.495 39.34,-0.756L39.34,-9.044C39.34,-9.315 39.417,-9.532 39.571,-9.695C39.725,-9.858 39.933,-9.94 40.194,-9.94C40.558,-9.94 40.843,-9.739 41.048,-9.338L44.156,-3.416L47.25,-9.338C47.455,-9.739 47.731,-9.94 48.076,-9.94C48.337,-9.94 48.547,-9.858 48.706,-9.695Z" style="fill:rgb(74,74,74);fill-rule:nonzero;"/>
                    <path d="M56.021,-6.307C56.483,-5.836 56.714,-5.119 56.714,-4.158L56.714,-0.742C56.714,-0.49 56.639,-0.292 56.49,-0.147C56.341,-0.002 56.135,0.07 55.874,0.07C55.631,0.07 55.433,-0.005 55.279,-0.154C55.125,-0.303 55.048,-0.499 55.048,-0.742L55.048,-1.05C54.889,-0.686 54.64,-0.401 54.299,-0.196C53.958,0.009 53.564,0.112 53.116,0.112C52.659,0.112 52.243,0.019 51.87,-0.168C51.497,-0.355 51.203,-0.611 50.988,-0.938C50.773,-1.265 50.666,-1.629 50.666,-2.03C50.666,-2.534 50.794,-2.931 51.051,-3.22C51.308,-3.509 51.725,-3.719 52.304,-3.85C52.883,-3.981 53.681,-4.046 54.698,-4.046L55.048,-4.046L55.048,-4.368C55.048,-4.825 54.95,-5.159 54.754,-5.369C54.558,-5.579 54.241,-5.684 53.802,-5.684C53.531,-5.684 53.256,-5.644 52.976,-5.565C52.696,-5.486 52.365,-5.371 51.982,-5.222C51.739,-5.101 51.562,-5.04 51.45,-5.04C51.282,-5.04 51.144,-5.101 51.037,-5.222C50.93,-5.343 50.876,-5.502 50.876,-5.698C50.876,-5.857 50.916,-5.994 50.995,-6.111C51.074,-6.228 51.207,-6.337 51.394,-6.44C51.721,-6.617 52.11,-6.757 52.563,-6.86C53.016,-6.963 53.461,-7.014 53.9,-7.014C54.852,-7.014 55.559,-6.778 56.021,-6.307ZM54.607,-1.617C54.901,-1.93 55.048,-2.333 55.048,-2.828L55.048,-3.122L54.796,-3.122C54.171,-3.122 53.685,-3.094 53.34,-3.038C52.995,-2.982 52.747,-2.884 52.598,-2.744C52.449,-2.604 52.374,-2.413 52.374,-2.17C52.374,-1.871 52.479,-1.626 52.689,-1.435C52.899,-1.244 53.158,-1.148 53.466,-1.148C53.933,-1.148 54.313,-1.304 54.607,-1.617Z" style="fill:rgb(74,74,74);fill-rule:nonzero;"/>
                    <path d="M58.506,-0.49C58.207,-0.667 58.058,-0.919 58.058,-1.246C58.058,-1.433 58.109,-1.584 58.212,-1.701C58.315,-1.818 58.441,-1.876 58.59,-1.876C58.749,-1.876 58.968,-1.801 59.248,-1.652C59.547,-1.512 59.82,-1.405 60.067,-1.33C60.314,-1.255 60.629,-1.218 61.012,-1.218C61.404,-1.218 61.71,-1.283 61.929,-1.414C62.148,-1.545 62.258,-1.727 62.258,-1.96C62.258,-2.119 62.214,-2.245 62.125,-2.338C62.036,-2.431 61.878,-2.518 61.649,-2.597C61.42,-2.676 61.073,-2.767 60.606,-2.87C59.775,-3.038 59.18,-3.276 58.821,-3.584C58.462,-3.892 58.282,-4.317 58.282,-4.858C58.282,-5.269 58.403,-5.64 58.646,-5.971C58.889,-6.302 59.222,-6.559 59.647,-6.741C60.072,-6.923 60.555,-7.014 61.096,-7.014C61.488,-7.014 61.866,-6.965 62.23,-6.867C62.594,-6.769 62.921,-6.627 63.21,-6.44C63.509,-6.253 63.658,-6.006 63.658,-5.698C63.658,-5.511 63.607,-5.355 63.504,-5.229C63.401,-5.103 63.275,-5.04 63.126,-5.04C63.023,-5.04 62.923,-5.061 62.825,-5.103C62.727,-5.145 62.603,-5.208 62.454,-5.292C62.183,-5.432 61.95,-5.537 61.754,-5.607C61.558,-5.677 61.315,-5.712 61.026,-5.712C60.681,-5.712 60.408,-5.642 60.207,-5.502C60.006,-5.362 59.906,-5.171 59.906,-4.928C59.906,-4.695 60.009,-4.517 60.214,-4.396C60.419,-4.275 60.816,-4.153 61.404,-4.032C62.029,-3.901 62.519,-3.752 62.874,-3.584C63.229,-3.416 63.483,-3.206 63.637,-2.954C63.791,-2.702 63.868,-2.38 63.868,-1.988C63.868,-1.353 63.604,-0.845 63.077,-0.462C62.55,-0.079 61.847,0.112 60.97,0.112C59.953,0.112 59.131,-0.089 58.506,-0.49Z" style="fill:rgb(74,74,74);fill-rule:nonzero;"/>
                    <path d="M65.296,-0.49C64.997,-0.667 64.848,-0.919 64.848,-1.246C64.848,-1.433 64.899,-1.584 65.002,-1.701C65.105,-1.818 65.231,-1.876 65.38,-1.876C65.539,-1.876 65.758,-1.801 66.038,-1.652C66.337,-1.512 66.61,-1.405 66.857,-1.33C67.104,-1.255 67.419,-1.218 67.802,-1.218C68.194,-1.218 68.5,-1.283 68.719,-1.414C68.938,-1.545 69.048,-1.727 69.048,-1.96C69.048,-2.119 69.004,-2.245 68.915,-2.338C68.826,-2.431 68.668,-2.518 68.439,-2.597C68.21,-2.676 67.863,-2.767 67.396,-2.87C66.565,-3.038 65.97,-3.276 65.611,-3.584C65.252,-3.892 65.072,-4.317 65.072,-4.858C65.072,-5.269 65.193,-5.64 65.436,-5.971C65.679,-6.302 66.012,-6.559 66.437,-6.741C66.862,-6.923 67.345,-7.014 67.886,-7.014C68.278,-7.014 68.656,-6.965 69.02,-6.867C69.384,-6.769 69.711,-6.627 70,-6.44C70.299,-6.253 70.448,-6.006 70.448,-5.698C70.448,-5.511 70.397,-5.355 70.294,-5.229C70.191,-5.103 70.065,-5.04 69.916,-5.04C69.813,-5.04 69.713,-5.061 69.615,-5.103C69.517,-5.145 69.393,-5.208 69.244,-5.292C68.973,-5.432 68.74,-5.537 68.544,-5.607C68.348,-5.677 68.105,-5.712 67.816,-5.712C67.471,-5.712 67.198,-5.642 66.997,-5.502C66.796,-5.362 66.696,-5.171 66.696,-4.928C66.696,-4.695 66.799,-4.517 67.004,-4.396C67.209,-4.275 67.606,-4.153 68.194,-4.032C68.819,-3.901 69.309,-3.752 69.664,-3.584C70.019,-3.416 70.273,-3.206 70.427,-2.954C70.581,-2.702 70.658,-2.38 70.658,-1.988C70.658,-1.353 70.394,-0.845 69.867,-0.462C69.34,-0.079 68.637,0.112 67.76,0.112C66.743,0.112 65.921,-0.089 65.296,-0.49Z" style="fill:rgb(74,74,74);fill-rule:nonzero;"/>
                    <path d="M72.317,-0.133C72.154,-0.278 72.072,-0.485 72.072,-0.756L72.072,-6.16C72.072,-6.431 72.154,-6.636 72.317,-6.776C72.48,-6.916 72.688,-6.986 72.94,-6.986C73.192,-6.986 73.402,-6.916 73.57,-6.776C73.738,-6.636 73.822,-6.431 73.822,-6.16L73.822,-0.756C73.822,-0.485 73.738,-0.278 73.57,-0.133C73.402,0.012 73.192,0.084 72.94,0.084C72.688,0.084 72.48,0.012 72.317,-0.133ZM72.184,-8.491C71.997,-8.664 71.904,-8.89 71.904,-9.17C71.904,-9.45 71.997,-9.674 72.184,-9.842C72.371,-10.01 72.623,-10.094 72.94,-10.094C73.248,-10.094 73.498,-10.01 73.689,-9.842C73.88,-9.674 73.976,-9.45 73.976,-9.17C73.976,-8.89 73.883,-8.664 73.696,-8.491C73.509,-8.318 73.257,-8.232 72.94,-8.232C72.623,-8.232 72.371,-8.318 72.184,-8.491Z" style="fill:rgb(74,74,74);fill-rule:nonzero;"/>
                    <path d="M80.703,-6.86C80.829,-6.944 80.967,-6.986 81.116,-6.986C81.331,-6.986 81.524,-6.914 81.697,-6.769C81.87,-6.624 81.956,-6.445 81.956,-6.23C81.956,-6.118 81.928,-6.006 81.872,-5.894L79.282,-0.476C79.198,-0.299 79.079,-0.163 78.925,-0.07C78.771,0.023 78.601,0.07 78.414,0.07C78.237,0.07 78.066,0.023 77.903,-0.07C77.74,-0.163 77.616,-0.299 77.532,-0.476L74.928,-5.894C74.881,-5.987 74.858,-6.095 74.858,-6.216C74.858,-6.431 74.949,-6.613 75.131,-6.762C75.313,-6.911 75.521,-6.986 75.754,-6.986C76.09,-6.986 76.337,-6.823 76.496,-6.496L78.456,-2.17L80.402,-6.482C80.477,-6.65 80.577,-6.776 80.703,-6.86Z" style="fill:rgb(74,74,74);fill-rule:nonzero;"/>
                    <path d="M88.683,-1.694C88.781,-1.573 88.83,-1.409 88.83,-1.204C88.83,-0.915 88.657,-0.672 88.312,-0.476C87.995,-0.299 87.635,-0.156 87.234,-0.049C86.833,0.058 86.45,0.112 86.086,0.112C84.985,0.112 84.112,-0.205 83.468,-0.84C82.824,-1.475 82.502,-2.343 82.502,-3.444C82.502,-4.144 82.642,-4.765 82.922,-5.306C83.202,-5.847 83.596,-6.267 84.105,-6.566C84.614,-6.865 85.19,-7.014 85.834,-7.014C86.45,-7.014 86.987,-6.879 87.444,-6.608C87.901,-6.337 88.256,-5.955 88.508,-5.46C88.76,-4.965 88.886,-4.382 88.886,-3.71C88.886,-3.309 88.709,-3.108 88.354,-3.108L84.224,-3.108C84.28,-2.464 84.462,-1.99 84.77,-1.687C85.078,-1.384 85.526,-1.232 86.114,-1.232C86.413,-1.232 86.676,-1.269 86.905,-1.344C87.134,-1.419 87.393,-1.521 87.682,-1.652C87.962,-1.801 88.167,-1.876 88.298,-1.876C88.457,-1.876 88.585,-1.815 88.683,-1.694ZM84.735,-5.334C84.45,-5.035 84.28,-4.606 84.224,-4.046L87.388,-4.046C87.369,-4.615 87.229,-5.047 86.968,-5.341C86.707,-5.635 86.343,-5.782 85.876,-5.782C85.4,-5.782 85.02,-5.633 84.735,-5.334Z" style="fill:rgb(74,74,74);fill-rule:nonzero;"/>
                    <path d="M101.052,-0.742C101.052,-0.247 100.772,0 100.212,0L95.48,0C94.911,0 94.626,-0.247 94.626,-0.742C94.626,-1.218 94.911,-1.456 95.48,-1.456L96.936,-1.456L96.936,-7.84L95.592,-7.014C95.461,-6.939 95.345,-6.902 95.242,-6.902C95.046,-6.902 94.88,-6.986 94.745,-7.154C94.61,-7.322 94.542,-7.509 94.542,-7.714C94.542,-7.985 94.663,-8.195 94.906,-8.344L97.076,-9.688C97.356,-9.856 97.622,-9.94 97.874,-9.94C98.135,-9.94 98.345,-9.861 98.504,-9.702C98.663,-9.543 98.742,-9.324 98.742,-9.044L98.742,-1.456L100.212,-1.456C100.772,-1.456 101.052,-1.218 101.052,-0.742Z" style="fill:rgb(74,74,74);fill-rule:nonzero;"/>
                    <path d="M109.41,-0.742C109.41,-0.247 109.13,0 108.57,0L103.25,0C103.007,0 102.816,-0.072 102.676,-0.217C102.536,-0.362 102.466,-0.541 102.466,-0.756C102.466,-1.036 102.573,-1.288 102.788,-1.512L105.98,-4.942C106.372,-5.371 106.659,-5.766 106.841,-6.125C107.023,-6.484 107.114,-6.841 107.114,-7.196C107.114,-7.635 106.988,-7.971 106.736,-8.204C106.484,-8.437 106.125,-8.554 105.658,-8.554C105.275,-8.554 104.904,-8.482 104.545,-8.337C104.186,-8.192 103.824,-7.994 103.46,-7.742C103.367,-7.677 103.273,-7.623 103.18,-7.581C103.087,-7.539 102.993,-7.518 102.9,-7.518C102.741,-7.518 102.604,-7.593 102.487,-7.742C102.37,-7.891 102.312,-8.069 102.312,-8.274C102.312,-8.414 102.338,-8.535 102.389,-8.638C102.44,-8.741 102.522,-8.839 102.634,-8.932C103.045,-9.259 103.525,-9.518 104.076,-9.709C104.627,-9.9 105.177,-9.996 105.728,-9.996C106.689,-9.996 107.457,-9.753 108.031,-9.268C108.605,-8.783 108.892,-8.129 108.892,-7.308C108.892,-6.739 108.771,-6.204 108.528,-5.705C108.285,-5.206 107.875,-4.648 107.296,-4.032L104.874,-1.456L108.57,-1.456C109.13,-1.456 109.41,-1.218 109.41,-0.742Z" style="fill:rgb(74,74,74);fill-rule:nonzero;"/>
                    <path d="M111.538,-1.169C110.922,-2.032 110.614,-3.29 110.614,-4.942C110.614,-6.585 110.922,-7.838 111.538,-8.701C112.154,-9.564 113.045,-9.996 114.212,-9.996C115.379,-9.996 116.27,-9.564 116.886,-8.701C117.502,-7.838 117.81,-6.585 117.81,-4.942C117.81,-3.299 117.502,-2.044 116.886,-1.176C116.27,-0.308 115.379,0.126 114.212,0.126C113.045,0.126 112.154,-0.306 111.538,-1.169ZM115.598,-2.163C115.887,-2.746 116.032,-3.673 116.032,-4.942C116.032,-6.221 115.887,-7.147 115.598,-7.721C115.309,-8.295 114.847,-8.582 114.212,-8.582C113.577,-8.582 113.115,-8.293 112.826,-7.714C112.537,-7.135 112.392,-6.211 112.392,-4.942C112.392,-3.673 112.537,-2.746 112.826,-2.163C113.115,-1.58 113.577,-1.288 114.212,-1.288C114.847,-1.288 115.309,-1.58 115.598,-2.163Z" style="fill:rgb(74,74,74);fill-rule:nonzero;"/>
                    <path d="M119.938,-1.169C119.322,-2.032 119.014,-3.29 119.014,-4.942C119.014,-6.585 119.322,-7.838 119.938,-8.701C120.554,-9.564 121.445,-9.996 122.612,-9.996C123.779,-9.996 124.67,-9.564 125.286,-8.701C125.902,-7.838 126.21,-6.585 126.21,-4.942C126.21,-3.299 125.902,-2.044 125.286,-1.176C124.67,-0.308 123.779,0.126 122.612,0.126C121.445,0.126 120.554,-0.306 119.938,-1.169ZM123.998,-2.163C124.287,-2.746 124.432,-3.673 124.432,-4.942C124.432,-6.221 124.287,-7.147 123.998,-7.721C123.709,-8.295 123.247,-8.582 122.612,-8.582C121.977,-8.582 121.515,-8.293 121.226,-7.714C120.937,-7.135 120.792,-6.211 120.792,-4.942C120.792,-3.673 120.937,-2.746 121.226,-2.163C121.515,-1.58 121.977,-1.288 122.612,-1.288C123.247,-1.288 123.709,-1.58 123.998,-2.163Z" style="fill:rgb(74,74,74);fill-rule:nonzero;"/>
                    <path d="M128.338,-1.169C127.722,-2.032 127.414,-3.29 127.414,-4.942C127.414,-6.585 127.722,-7.838 128.338,-8.701C128.954,-9.564 129.845,-9.996 131.012,-9.996C132.179,-9.996 133.07,-9.564 133.686,-8.701C134.302,-7.838 134.61,-6.585 134.61,-4.942C134.61,-3.299 134.302,-2.044 133.686,-1.176C133.07,-0.308 132.179,0.126 131.012,0.126C129.845,0.126 128.954,-0.306 128.338,-1.169ZM132.398,-2.163C132.687,-2.746 132.832,-3.673 132.832,-4.942C132.832,-6.221 132.687,-7.147 132.398,-7.721C132.109,-8.295 131.647,-8.582 131.012,-8.582C130.377,-8.582 129.915,-8.293 129.626,-7.714C129.337,-7.135 129.192,-6.211 129.192,-4.942C129.192,-3.673 129.337,-2.746 129.626,-2.163C129.915,-1.58 130.377,-1.288 131.012,-1.288C131.647,-1.288 132.109,-1.58 132.398,-2.163Z" style="fill:rgb(74,74,74);fill-rule:nonzero;"/>
                </g>
            </g>
        </g>
    </g>
</svg>
