<?xml version="1.0" encoding="UTF-8" standalone="no"?>
<!DOCTYPE svg PUBLIC "-//W3C//DTD SVG 1.1//EN" "http://www.w3.org/Graphics/SVG/1.1/DTD/svg11.dtd">
<svg width="100%" height="100%" viewBox="0 0 59 28" version="1.1" xmlns="http://www.w3.org/2000/svg" xmlns:xlink="http://www.w3.org/1999/xlink" xml:space="preserve" xmlns:serif="http://www.serif.com/" style="fill-rule:evenodd;clip-rule:evenodd;stroke-linejoin:round;stroke-miterlimit:1.41421;">
    <g transform="matrix(1,0,0,1,-352,-237)">
        <g transform="matrix(1,0,0,1,26,28)">
            <g id="Switch-A-VLAN-11">
                <g transform="matrix(1,0,0,1,326.182,220)">
                    <path d="M2.443,-0.161C1.804,-0.352 1.283,-0.611 0.882,-0.938C0.667,-1.097 0.56,-1.321 0.56,-1.61C0.56,-1.806 0.618,-1.976 0.735,-2.121C0.852,-2.266 0.989,-2.338 1.148,-2.338C1.316,-2.338 1.507,-2.273 1.722,-2.142C2.123,-1.853 2.543,-1.643 2.982,-1.512C3.421,-1.381 3.906,-1.316 4.438,-1.316C5.119,-1.316 5.642,-1.435 6.006,-1.673C6.37,-1.911 6.552,-2.259 6.552,-2.716C6.552,-3.071 6.382,-3.344 6.041,-3.535C5.7,-3.726 5.133,-3.911 4.34,-4.088C3.519,-4.265 2.851,-4.471 2.338,-4.704C1.825,-4.937 1.437,-5.236 1.176,-5.6C0.915,-5.964 0.784,-6.426 0.784,-6.986C0.784,-7.565 0.947,-8.083 1.274,-8.54C1.601,-8.997 2.056,-9.354 2.639,-9.611C3.222,-9.868 3.878,-9.996 4.606,-9.996C5.941,-9.996 7.028,-9.641 7.868,-8.932C7.989,-8.829 8.076,-8.729 8.127,-8.631C8.178,-8.533 8.204,-8.409 8.204,-8.26C8.204,-8.064 8.146,-7.894 8.029,-7.749C7.912,-7.604 7.775,-7.532 7.616,-7.532C7.523,-7.532 7.436,-7.546 7.357,-7.574C7.278,-7.602 7.173,-7.653 7.042,-7.728C6.659,-8.008 6.288,-8.216 5.929,-8.351C5.57,-8.486 5.129,-8.554 4.606,-8.554C3.971,-8.554 3.47,-8.426 3.101,-8.169C2.732,-7.912 2.548,-7.555 2.548,-7.098C2.548,-6.715 2.711,-6.421 3.038,-6.216C3.365,-6.011 3.92,-5.819 4.704,-5.642C5.535,-5.455 6.209,-5.248 6.727,-5.019C7.245,-4.79 7.642,-4.499 7.917,-4.144C8.192,-3.789 8.33,-3.346 8.33,-2.814C8.33,-2.235 8.169,-1.724 7.847,-1.281C7.525,-0.838 7.072,-0.492 6.489,-0.245C5.906,0.002 5.236,0.126 4.48,0.126C3.761,0.126 3.082,0.03 2.443,-0.161Z" style="fill:rgb(74,74,74);fill-rule:nonzero;"/>
                    <path d="M19.271,-6.846C19.397,-6.93 19.535,-6.972 19.684,-6.972C19.899,-6.972 20.092,-6.9 20.265,-6.755C20.438,-6.61 20.524,-6.431 20.524,-6.216C20.524,-6.095 20.501,-5.987 20.454,-5.894L18.144,-0.476C18.069,-0.299 17.955,-0.163 17.801,-0.07C17.647,0.023 17.477,0.07 17.29,0.07C17.113,0.07 16.947,0.023 16.793,-0.07C16.639,-0.163 16.525,-0.299 16.45,-0.476L14.784,-4.48L13.174,-0.476C13.099,-0.299 12.985,-0.163 12.831,-0.07C12.677,0.023 12.507,0.07 12.32,0.07C12.143,0.07 11.975,0.023 11.816,-0.07C11.657,-0.163 11.541,-0.299 11.466,-0.476L9.17,-5.894C9.123,-6.015 9.1,-6.118 9.1,-6.202C9.1,-6.417 9.193,-6.601 9.38,-6.755C9.567,-6.909 9.772,-6.986 9.996,-6.986C10.155,-6.986 10.299,-6.944 10.43,-6.86C10.561,-6.776 10.659,-6.65 10.724,-6.482L12.376,-2.212L14.07,-6.44C14.145,-6.617 14.252,-6.75 14.392,-6.839C14.532,-6.928 14.686,-6.972 14.854,-6.972C15.022,-6.972 15.176,-6.928 15.316,-6.839C15.456,-6.75 15.563,-6.617 15.638,-6.44L17.346,-2.198L18.984,-6.468C19.049,-6.636 19.145,-6.762 19.271,-6.846Z" style="fill:rgb(74,74,74);fill-rule:nonzero;"/>
                    <path d="M21.959,-0.133C21.796,-0.278 21.714,-0.485 21.714,-0.756L21.714,-6.16C21.714,-6.431 21.796,-6.636 21.959,-6.776C22.122,-6.916 22.33,-6.986 22.582,-6.986C22.834,-6.986 23.044,-6.916 23.212,-6.776C23.38,-6.636 23.464,-6.431 23.464,-6.16L23.464,-0.756C23.464,-0.485 23.38,-0.278 23.212,-0.133C23.044,0.012 22.834,0.084 22.582,0.084C22.33,0.084 22.122,0.012 21.959,-0.133ZM21.826,-8.491C21.639,-8.664 21.546,-8.89 21.546,-9.17C21.546,-9.45 21.639,-9.674 21.826,-9.842C22.013,-10.01 22.265,-10.094 22.582,-10.094C22.89,-10.094 23.14,-10.01 23.331,-9.842C23.522,-9.674 23.618,-9.45 23.618,-9.17C23.618,-8.89 23.525,-8.664 23.338,-8.491C23.151,-8.318 22.899,-8.232 22.582,-8.232C22.265,-8.232 22.013,-8.318 21.826,-8.491Z" style="fill:rgb(74,74,74);fill-rule:nonzero;"/>
                    <path d="M29.526,-0.588C29.526,-0.364 29.435,-0.194 29.253,-0.077C29.071,0.04 28.812,0.089 28.476,0.07L28.098,0.042C26.53,-0.07 25.746,-0.91 25.746,-2.478L25.746,-5.53L25.046,-5.53C24.794,-5.53 24.6,-5.586 24.465,-5.698C24.33,-5.81 24.262,-5.973 24.262,-6.188C24.262,-6.403 24.33,-6.566 24.465,-6.678C24.6,-6.79 24.794,-6.846 25.046,-6.846L25.746,-6.846L25.746,-8.134C25.746,-8.386 25.825,-8.587 25.984,-8.736C26.143,-8.885 26.357,-8.96 26.628,-8.96C26.889,-8.96 27.099,-8.885 27.258,-8.736C27.417,-8.587 27.496,-8.386 27.496,-8.134L27.496,-6.846L28.686,-6.846C28.938,-6.846 29.132,-6.79 29.267,-6.678C29.402,-6.566 29.47,-6.403 29.47,-6.188C29.47,-5.973 29.402,-5.81 29.267,-5.698C29.132,-5.586 28.938,-5.53 28.686,-5.53L27.496,-5.53L27.496,-2.352C27.496,-1.661 27.813,-1.293 28.448,-1.246L28.826,-1.218C29.293,-1.19 29.526,-0.98 29.526,-0.588Z" style="fill:rgb(74,74,74);fill-rule:nonzero;"/>
                    <path d="M31.675,-0.322C31.157,-0.611 30.758,-1.022 30.478,-1.554C30.198,-2.086 30.058,-2.707 30.058,-3.416C30.058,-4.125 30.205,-4.753 30.499,-5.299C30.793,-5.845 31.206,-6.267 31.738,-6.566C32.27,-6.865 32.881,-7.014 33.572,-7.014C33.936,-7.014 34.302,-6.963 34.671,-6.86C35.04,-6.757 35.364,-6.617 35.644,-6.44C35.943,-6.244 36.092,-5.997 36.092,-5.698C36.092,-5.493 36.043,-5.327 35.945,-5.201C35.847,-5.075 35.719,-5.012 35.56,-5.012C35.457,-5.012 35.35,-5.035 35.238,-5.082C35.126,-5.129 35.014,-5.185 34.902,-5.25C34.697,-5.371 34.501,-5.467 34.314,-5.537C34.127,-5.607 33.913,-5.642 33.67,-5.642C33.091,-5.642 32.646,-5.453 32.333,-5.075C32.02,-4.697 31.864,-4.153 31.864,-3.444C31.864,-2.744 32.02,-2.205 32.333,-1.827C32.646,-1.449 33.091,-1.26 33.67,-1.26C33.903,-1.26 34.111,-1.295 34.293,-1.365C34.475,-1.435 34.678,-1.531 34.902,-1.652C35.042,-1.736 35.163,-1.799 35.266,-1.841C35.369,-1.883 35.471,-1.904 35.574,-1.904C35.723,-1.904 35.849,-1.839 35.952,-1.708C36.055,-1.577 36.106,-1.414 36.106,-1.218C36.106,-1.059 36.071,-0.922 36.001,-0.805C35.931,-0.688 35.817,-0.583 35.658,-0.49C35.369,-0.303 35.033,-0.156 34.65,-0.049C34.267,0.058 33.875,0.112 33.474,0.112C32.793,0.112 32.193,-0.033 31.675,-0.322Z" style="fill:rgb(74,74,74);fill-rule:nonzero;"/>
                    <path d="M43.68,-4.2L43.68,-0.756C43.68,-0.495 43.603,-0.289 43.449,-0.14C43.295,0.009 43.083,0.084 42.812,0.084C42.541,0.084 42.327,0.009 42.168,-0.14C42.009,-0.289 41.93,-0.495 41.93,-0.756L41.93,-4.2C41.93,-4.695 41.83,-5.056 41.629,-5.285C41.428,-5.514 41.113,-5.628 40.684,-5.628C40.18,-5.628 39.776,-5.469 39.473,-5.152C39.17,-4.835 39.018,-4.41 39.018,-3.878L39.018,-0.756C39.018,-0.495 38.939,-0.289 38.78,-0.14C38.621,0.009 38.407,0.084 38.136,0.084C37.865,0.084 37.653,0.009 37.499,-0.14C37.345,-0.289 37.268,-0.495 37.268,-0.756L37.268,-9.128C37.268,-9.371 37.35,-9.567 37.513,-9.716C37.676,-9.865 37.889,-9.94 38.15,-9.94C38.411,-9.94 38.621,-9.87 38.78,-9.73C38.939,-9.59 39.018,-9.399 39.018,-9.156L39.018,-5.894C39.251,-6.258 39.562,-6.536 39.949,-6.727C40.336,-6.918 40.777,-7.014 41.272,-7.014C42.877,-7.014 43.68,-6.076 43.68,-4.2Z" style="fill:rgb(74,74,74);fill-rule:nonzero;"/>
                    <path d="M58.436,-0.714C58.436,-0.499 58.35,-0.317 58.177,-0.168C58.004,-0.019 57.806,0.056 57.582,0.056C57.433,0.056 57.293,0.016 57.162,-0.063C57.031,-0.142 56.929,-0.266 56.854,-0.434L56.014,-2.31L51.086,-2.31L50.246,-0.434C50.171,-0.266 50.069,-0.142 49.938,-0.063C49.807,0.016 49.663,0.056 49.504,0.056C49.289,0.056 49.093,-0.019 48.916,-0.168C48.739,-0.317 48.65,-0.499 48.65,-0.714C48.65,-0.835 48.678,-0.957 48.734,-1.078L52.598,-9.38C52.682,-9.567 52.81,-9.709 52.983,-9.807C53.156,-9.905 53.34,-9.954 53.536,-9.954C53.732,-9.954 53.916,-9.905 54.089,-9.807C54.262,-9.709 54.39,-9.567 54.474,-9.38L58.352,-1.078C58.408,-0.957 58.436,-0.835 58.436,-0.714ZM51.702,-3.71L55.398,-3.71L53.55,-7.868L51.702,-3.71Z" style="fill:rgb(74,74,74);fill-rule:nonzero;"/>
                </g>
                <g transform="matrix(1,0,0,1,326,236)">
                    <path d="M8.988,-9.954C9.221,-9.954 9.431,-9.879 9.618,-9.73C9.805,-9.581 9.898,-9.394 9.898,-9.17C9.898,-9.067 9.87,-8.951 9.814,-8.82L5.936,-0.476C5.852,-0.299 5.724,-0.161 5.551,-0.063C5.378,0.035 5.194,0.084 4.998,0.084C4.802,0.084 4.618,0.035 4.445,-0.063C4.272,-0.161 4.144,-0.299 4.06,-0.476L0.196,-8.82C0.14,-8.951 0.112,-9.063 0.112,-9.156C0.112,-9.389 0.208,-9.581 0.399,-9.73C0.59,-9.879 0.807,-9.954 1.05,-9.954C1.209,-9.954 1.356,-9.914 1.491,-9.835C1.626,-9.756 1.731,-9.637 1.806,-9.478L5.026,-2.324L8.246,-9.478C8.395,-9.795 8.643,-9.954 8.988,-9.954Z" style="fill:rgb(74,74,74);fill-rule:nonzero;"/>
                    <path d="M11.284,-0.224C11.135,-0.373 11.06,-0.579 11.06,-0.84L11.06,-9.044C11.06,-9.315 11.142,-9.532 11.305,-9.695C11.468,-9.858 11.685,-9.94 11.956,-9.94C12.236,-9.94 12.458,-9.858 12.621,-9.695C12.784,-9.532 12.866,-9.315 12.866,-9.044L12.866,-1.484L16.8,-1.484C17.36,-1.484 17.64,-1.237 17.64,-0.742C17.64,-0.247 17.36,0 16.8,0L11.914,0C11.643,0 11.433,-0.075 11.284,-0.224Z" style="fill:rgb(74,74,74);fill-rule:nonzero;"/>
                    <path d="M27.776,-0.714C27.776,-0.499 27.69,-0.317 27.517,-0.168C27.344,-0.019 27.146,0.056 26.922,0.056C26.773,0.056 26.633,0.016 26.502,-0.063C26.371,-0.142 26.269,-0.266 26.194,-0.434L25.354,-2.31L20.426,-2.31L19.586,-0.434C19.511,-0.266 19.409,-0.142 19.278,-0.063C19.147,0.016 19.003,0.056 18.844,0.056C18.629,0.056 18.433,-0.019 18.256,-0.168C18.079,-0.317 17.99,-0.499 17.99,-0.714C17.99,-0.835 18.018,-0.957 18.074,-1.078L21.938,-9.38C22.022,-9.567 22.15,-9.709 22.323,-9.807C22.496,-9.905 22.68,-9.954 22.876,-9.954C23.072,-9.954 23.256,-9.905 23.429,-9.807C23.602,-9.709 23.73,-9.567 23.814,-9.38L27.692,-1.078C27.748,-0.957 27.776,-0.835 27.776,-0.714ZM21.042,-3.71L24.738,-3.71L22.89,-7.868L21.042,-3.71Z" style="fill:rgb(74,74,74);fill-rule:nonzero;"/>
                    <path d="M37.233,-9.695C37.387,-9.532 37.464,-9.315 37.464,-9.044L37.464,-0.826C37.464,-0.555 37.385,-0.336 37.226,-0.168C37.067,0 36.862,0.084 36.61,0.084C36.311,0.084 36.083,-0.023 35.924,-0.238L30.814,-6.888L30.814,-0.826C30.814,-0.555 30.739,-0.336 30.59,-0.168C30.441,0 30.235,0.084 29.974,0.084C29.713,0.084 29.507,0 29.358,-0.168C29.209,-0.336 29.134,-0.555 29.134,-0.826L29.134,-9.044C29.134,-9.315 29.213,-9.532 29.372,-9.695C29.531,-9.858 29.741,-9.94 30.002,-9.94C30.291,-9.94 30.515,-9.833 30.674,-9.618L35.77,-2.996L35.77,-9.044C35.77,-9.315 35.847,-9.532 36.001,-9.695C36.155,-9.858 36.358,-9.94 36.61,-9.94C36.871,-9.94 37.079,-9.858 37.233,-9.695Z" style="fill:rgb(74,74,74);fill-rule:nonzero;"/>
                    <path d="M50.176,-0.742C50.176,-0.247 49.896,0 49.336,0L44.604,0C44.035,0 43.75,-0.247 43.75,-0.742C43.75,-1.218 44.035,-1.456 44.604,-1.456L46.06,-1.456L46.06,-7.84L44.716,-7.014C44.585,-6.939 44.469,-6.902 44.366,-6.902C44.17,-6.902 44.004,-6.986 43.869,-7.154C43.734,-7.322 43.666,-7.509 43.666,-7.714C43.666,-7.985 43.787,-8.195 44.03,-8.344L46.2,-9.688C46.48,-9.856 46.746,-9.94 46.998,-9.94C47.259,-9.94 47.469,-9.861 47.628,-9.702C47.787,-9.543 47.866,-9.324 47.866,-9.044L47.866,-1.456L49.336,-1.456C49.896,-1.456 50.176,-1.218 50.176,-0.742Z" style="fill:rgb(74,74,74);fill-rule:nonzero;"/>
                    <path d="M58.576,-0.742C58.576,-0.247 58.296,0 57.736,0L53.004,0C52.435,0 52.15,-0.247 52.15,-0.742C52.15,-1.218 52.435,-1.456 53.004,-1.456L54.46,-1.456L54.46,-7.84L53.116,-7.014C52.985,-6.939 52.869,-6.902 52.766,-6.902C52.57,-6.902 52.404,-6.986 52.269,-7.154C52.134,-7.322 52.066,-7.509 52.066,-7.714C52.066,-7.985 52.187,-8.195 52.43,-8.344L54.6,-9.688C54.88,-9.856 55.146,-9.94 55.398,-9.94C55.659,-9.94 55.869,-9.861 56.028,-9.702C56.187,-9.543 56.266,-9.324 56.266,-9.044L56.266,-1.456L57.736,-1.456C58.296,-1.456 58.576,-1.218 58.576,-0.742Z" style="fill:rgb(74,74,74);fill-rule:nonzero;"/>
                </g>
            </g>
        </g>
    </g>
</svg>
