<?xml version="1.0" encoding="UTF-8" standalone="no"?>
<!DOCTYPE svg PUBLIC "-//W3C//DTD SVG 1.1//EN" "http://www.w3.org/Graphics/SVG/1.1/DTD/svg11.dtd">
<svg width="100%" height="100%" viewBox="0 0 47 10" version="1.1" xmlns="http://www.w3.org/2000/svg" xmlns:xlink="http://www.w3.org/1999/xlink" xml:space="preserve" xmlns:serif="http://www.serif.com/" style="fill-rule:evenodd;clip-rule:evenodd;stroke-linejoin:round;stroke-miterlimit:1.41421;">
    <g transform="matrix(1,0,0,1,-1082,-491)">
        <g transform="matrix(1,0,0,1,0,-7)">
            <g transform="matrix(1,0,0,1,1081,507)">
                <g id="_1st-Floor" serif:id="1st-Floor">
                    <path d="M6.24,-0.72C6.32,-0.648 6.36,-0.548 6.36,-0.42C6.36,-0.284 6.322,-0.18 6.246,-0.108C6.17,-0.036 6.056,0 5.904,0L1.932,0C1.78,0 1.666,-0.036 1.59,-0.108C1.514,-0.18 1.476,-0.284 1.476,-0.42C1.476,-0.548 1.516,-0.648 1.596,-0.72C1.676,-0.792 1.788,-0.828 1.932,-0.828L3.42,-0.828L3.42,-7.26L2.112,-6.408C2.048,-6.368 1.984,-6.348 1.92,-6.348C1.808,-6.348 1.71,-6.4 1.626,-6.504C1.542,-6.608 1.5,-6.72 1.5,-6.84C1.5,-7.008 1.564,-7.128 1.692,-7.2L3.516,-8.388C3.652,-8.476 3.792,-8.52 3.936,-8.52C4.072,-8.52 4.184,-8.476 4.272,-8.388C4.36,-8.3 4.404,-8.176 4.404,-8.016L4.404,-0.828L5.904,-0.828C6.048,-0.828 6.16,-0.792 6.24,-0.72Z" style="fill-rule:nonzero;"/>
                    <path d="M9.006,-0.048C8.674,-0.136 8.38,-0.26 8.124,-0.42C7.98,-0.516 7.878,-0.606 7.818,-0.69C7.758,-0.774 7.728,-0.876 7.728,-0.996C7.728,-1.1 7.758,-1.186 7.818,-1.254C7.878,-1.322 7.956,-1.356 8.052,-1.356C8.148,-1.356 8.288,-1.296 8.472,-1.176C8.712,-1.032 8.95,-0.918 9.186,-0.834C9.422,-0.75 9.716,-0.708 10.068,-0.708C10.5,-0.708 10.836,-0.784 11.076,-0.936C11.316,-1.088 11.436,-1.308 11.436,-1.596C11.436,-1.772 11.392,-1.914 11.304,-2.022C11.216,-2.13 11.064,-2.226 10.848,-2.31C10.632,-2.394 10.316,-2.48 9.9,-2.568C9.196,-2.72 8.692,-2.924 8.388,-3.18C8.084,-3.436 7.932,-3.784 7.932,-4.224C7.932,-4.568 8.028,-4.872 8.22,-5.136C8.412,-5.4 8.678,-5.608 9.018,-5.76C9.358,-5.912 9.744,-5.988 10.176,-5.988C10.488,-5.988 10.79,-5.946 11.082,-5.862C11.374,-5.778 11.632,-5.66 11.856,-5.508C12.128,-5.316 12.264,-5.116 12.264,-4.908C12.264,-4.804 12.232,-4.716 12.168,-4.644C12.104,-4.572 12.028,-4.536 11.94,-4.536C11.844,-4.536 11.7,-4.604 11.508,-4.74C11.284,-4.884 11.072,-4.996 10.872,-5.076C10.672,-5.156 10.424,-5.196 10.128,-5.196C9.752,-5.196 9.45,-5.112 9.222,-4.944C8.994,-4.776 8.88,-4.552 8.88,-4.272C8.88,-4.096 8.922,-3.954 9.006,-3.846C9.09,-3.738 9.23,-3.642 9.426,-3.558C9.622,-3.474 9.904,-3.392 10.272,-3.312C10.816,-3.192 11.238,-3.06 11.538,-2.916C11.838,-2.772 12.052,-2.596 12.18,-2.388C12.308,-2.18 12.372,-1.916 12.372,-1.596C12.372,-1.092 12.16,-0.686 11.736,-0.378C11.312,-0.07 10.752,0.084 10.056,0.084C9.688,0.084 9.338,0.04 9.006,-0.048Z" style="fill-rule:nonzero;"/>
                    <path d="M16.896,-0.324C16.896,-0.188 16.846,-0.086 16.746,-0.018C16.646,0.05 16.496,0.076 16.296,0.06L15.972,0.036C15.332,-0.012 14.86,-0.204 14.556,-0.54C14.252,-0.876 14.1,-1.384 14.1,-2.064L14.1,-5.076L13.296,-5.076C13.16,-5.076 13.054,-5.11 12.978,-5.178C12.902,-5.246 12.864,-5.336 12.864,-5.448C12.864,-5.568 12.902,-5.664 12.978,-5.736C13.054,-5.808 13.16,-5.844 13.296,-5.844L14.1,-5.844L14.1,-7.2C14.1,-7.352 14.144,-7.47 14.232,-7.554C14.32,-7.638 14.44,-7.68 14.592,-7.68C14.736,-7.68 14.852,-7.638 14.94,-7.554C15.028,-7.47 15.072,-7.352 15.072,-7.2L15.072,-5.844L16.404,-5.844C16.532,-5.844 16.634,-5.808 16.71,-5.736C16.786,-5.664 16.824,-5.568 16.824,-5.448C16.824,-5.336 16.786,-5.246 16.71,-5.178C16.634,-5.11 16.532,-5.076 16.404,-5.076L15.072,-5.076L15.072,-2.016C15.072,-1.576 15.162,-1.258 15.342,-1.062C15.522,-0.866 15.792,-0.756 16.152,-0.732L16.476,-0.708C16.756,-0.684 16.896,-0.556 16.896,-0.324Z" style="fill-rule:nonzero;"/>
                    <path d="M21.204,-0.078C21.116,-0.17 21.072,-0.292 21.072,-0.444L21.072,-7.98C21.072,-8.124 21.118,-8.24 21.21,-8.328C21.302,-8.416 21.424,-8.46 21.576,-8.46L25.944,-8.46C26.088,-8.46 26.2,-8.424 26.28,-8.352C26.36,-8.28 26.4,-8.176 26.4,-8.04C26.4,-7.912 26.36,-7.812 26.28,-7.74C26.2,-7.668 26.088,-7.632 25.944,-7.632L22.044,-7.632L22.044,-4.716L25.704,-4.716C25.848,-4.716 25.96,-4.68 26.04,-4.608C26.12,-4.536 26.16,-4.432 26.16,-4.296C26.16,-4.168 26.12,-4.068 26.04,-3.996C25.96,-3.924 25.848,-3.888 25.704,-3.888L22.044,-3.888L22.044,-0.444C22.044,-0.292 22.002,-0.17 21.918,-0.078C21.834,0.014 21.716,0.06 21.564,0.06C21.412,0.06 21.292,0.014 21.204,-0.078Z" style="fill-rule:nonzero;"/>
                    <path d="M27.738,-0.066C27.646,-0.15 27.6,-0.268 27.6,-0.42L27.6,-8.04C27.6,-8.192 27.646,-8.31 27.738,-8.394C27.83,-8.478 27.948,-8.52 28.092,-8.52C28.228,-8.52 28.342,-8.478 28.434,-8.394C28.526,-8.31 28.572,-8.192 28.572,-8.04L28.572,-0.42C28.572,-0.268 28.526,-0.15 28.434,-0.066C28.342,0.018 28.228,0.06 28.092,0.06C27.948,0.06 27.83,0.018 27.738,-0.066Z" style="fill-rule:nonzero;"/>
                    <path d="M31.338,-0.288C30.918,-0.536 30.594,-0.89 30.366,-1.35C30.138,-1.81 30.024,-2.344 30.024,-2.952C30.024,-3.56 30.138,-4.094 30.366,-4.554C30.594,-5.014 30.918,-5.368 31.338,-5.616C31.758,-5.864 32.244,-5.988 32.796,-5.988C33.348,-5.988 33.836,-5.864 34.26,-5.616C34.684,-5.368 35.01,-5.014 35.238,-4.554C35.466,-4.094 35.58,-3.56 35.58,-2.952C35.58,-2.344 35.466,-1.81 35.238,-1.35C35.01,-0.89 34.684,-0.536 34.26,-0.288C33.836,-0.04 33.348,0.084 32.796,0.084C32.244,0.084 31.758,-0.04 31.338,-0.288ZM34.122,-1.29C34.43,-1.67 34.584,-2.224 34.584,-2.952C34.584,-3.664 34.428,-4.214 34.116,-4.602C33.804,-4.99 33.364,-5.184 32.796,-5.184C32.228,-5.184 31.788,-4.99 31.476,-4.602C31.164,-4.214 31.008,-3.664 31.008,-2.952C31.008,-2.232 31.162,-1.68 31.47,-1.296C31.778,-0.912 32.22,-0.72 32.796,-0.72C33.372,-0.72 33.814,-0.91 34.122,-1.29Z" style="fill-rule:nonzero;"/>
                    <path d="M37.986,-0.288C37.566,-0.536 37.242,-0.89 37.014,-1.35C36.786,-1.81 36.672,-2.344 36.672,-2.952C36.672,-3.56 36.786,-4.094 37.014,-4.554C37.242,-5.014 37.566,-5.368 37.986,-5.616C38.406,-5.864 38.892,-5.988 39.444,-5.988C39.996,-5.988 40.484,-5.864 40.908,-5.616C41.332,-5.368 41.658,-5.014 41.886,-4.554C42.114,-4.094 42.228,-3.56 42.228,-2.952C42.228,-2.344 42.114,-1.81 41.886,-1.35C41.658,-0.89 41.332,-0.536 40.908,-0.288C40.484,-0.04 39.996,0.084 39.444,0.084C38.892,0.084 38.406,-0.04 37.986,-0.288ZM40.77,-1.29C41.078,-1.67 41.232,-2.224 41.232,-2.952C41.232,-3.664 41.076,-4.214 40.764,-4.602C40.452,-4.99 40.012,-5.184 39.444,-5.184C38.876,-5.184 38.436,-4.99 38.124,-4.602C37.812,-4.214 37.656,-3.664 37.656,-2.952C37.656,-2.232 37.81,-1.68 38.118,-1.296C38.426,-0.912 38.868,-0.72 39.444,-0.72C40.02,-0.72 40.462,-0.91 40.77,-1.29Z" style="fill-rule:nonzero;"/>
                    <path d="M47.063,-5.556C47.063,-5.428 47.027,-5.326 46.955,-5.25C46.883,-5.174 46.759,-5.128 46.583,-5.112L46.223,-5.076C45.687,-5.028 45.289,-4.838 45.029,-4.506C44.769,-4.174 44.639,-3.784 44.639,-3.336L44.639,-0.42C44.639,-0.26 44.595,-0.14 44.507,-0.06C44.419,0.02 44.303,0.06 44.159,0.06C44.015,0.06 43.897,0.018 43.805,-0.066C43.713,-0.15 43.667,-0.268 43.667,-0.42L43.667,-5.484C43.667,-5.636 43.715,-5.754 43.811,-5.838C43.907,-5.922 44.023,-5.964 44.159,-5.964C44.287,-5.964 44.395,-5.922 44.483,-5.838C44.571,-5.754 44.615,-5.64 44.615,-5.496L44.615,-4.824C44.783,-5.176 45.021,-5.444 45.329,-5.628C45.637,-5.812 45.991,-5.92 46.391,-5.952L46.559,-5.964C46.895,-5.988 47.063,-5.852 47.063,-5.556Z" style="fill-rule:nonzero;"/>
                </g>
            </g>
        </g>
    </g>
</svg>
