<?xml version="1.0" encoding="UTF-8" standalone="no"?>
<svg width="335px" height="133px" viewBox="0 0 335 133" version="1.1" xmlns="http://www.w3.org/2000/svg" xmlns:xlink="http://www.w3.org/1999/xlink">
    <!-- Generator: Sketch 50 (54983) - http://www.bohemiancoding.com/sketch -->
    <title>Border_lobby_1</title>
    <desc>Created with Sketch.</desc>
    <defs></defs>
    <g id="Page-1" stroke="none" stroke-width="1" fill="none" fill-rule="evenodd">
        <path d="M30,3 C29.1715729,3 28.5,2.32842712 28.5,1.5 C28.5,0.671572875 29.1715729,0 30,0 L31,0 C31.8284271,0 32.5,0.671572875 32.5,1.5 C32.5,2.32842712 31.8284271,3 31,3 L30,3 Z M41,3 C40.1715729,3 39.5,2.32842712 39.5,1.5 C39.5,0.671572875 40.1715729,0 41,0 L42,0 C42.8284271,0 43.5,0.671572875 43.5,1.5 C43.5,2.32842712 42.8284271,3 42,3 L41,3 Z M52,3 C51.1715729,3 50.5,2.32842712 50.5,1.5 C50.5,0.671572875 51.1715729,0 52,0 L53,0 C53.8284271,0 54.5,0.671572875 54.5,1.5 C54.5,2.32842712 53.8284271,3 53,3 L52,3 Z M63,3 C62.1715729,3 61.5,2.32842712 61.5,1.5 C61.5,0.671572875 62.1715729,0 63,0 L64,0 C64.8284271,0 65.5,0.671572875 65.5,1.5 C65.5,2.32842712 64.8284271,3 64,3 L63,3 Z M74,3 C73.1715729,3 72.5,2.32842712 72.5,1.5 C72.5,0.671572875 73.1715729,0 74,0 L75,0 C75.8284271,0 76.5,0.671572875 76.5,1.5 C76.5,2.32842712 75.8284271,3 75,3 L74,3 Z M85,3 C84.1715729,3 83.5,2.32842712 83.5,1.5 C83.5,0.671572875 84.1715729,0 85,0 L86,0 C86.8284271,0 87.5,0.671572875 87.5,1.5 C87.5,2.32842712 86.8284271,3 86,3 L85,3 Z M96,3 C95.1715729,3 94.5,2.32842712 94.5,1.5 C94.5,0.671572875 95.1715729,0 96,0 L97,0 C97.8284271,0 98.5,0.671572875 98.5,1.5 C98.5,2.32842712 97.8284271,3 97,3 L96,3 Z M107,3 C106.171573,3 105.5,2.32842712 105.5,1.5 C105.5,0.671572875 106.171573,0 107,0 L108,0 C108.828427,0 109.5,0.671572875 109.5,1.5 C109.5,2.32842712 108.828427,3 108,3 L107,3 Z M118,3 C117.171573,3 116.5,2.32842712 116.5,1.5 C116.5,0.671572875 117.171573,0 118,0 L119,0 C119.828427,0 120.5,0.671572875 120.5,1.5 C120.5,2.32842712 119.828427,3 119,3 L118,3 Z M129,3 C128.171573,3 127.5,2.32842712 127.5,1.5 C127.5,0.671572875 128.171573,0 129,0 L130,0 C130.828427,0 131.5,0.671572875 131.5,1.5 C131.5,2.32842712 130.828427,3 130,3 L129,3 Z M140,3 C139.171573,3 138.5,2.32842712 138.5,1.5 C138.5,0.671572875 139.171573,0 140,0 L141,0 C141.828427,0 142.5,0.671572875 142.5,1.5 C142.5,2.32842712 141.828427,3 141,3 L140,3 Z M151,3 C150.171573,3 149.5,2.32842712 149.5,1.5 C149.5,0.671572875 150.171573,0 151,0 L152,0 C152.828427,0 153.5,0.671572875 153.5,1.5 C153.5,2.32842712 152.828427,3 152,3 L151,3 Z M162,3 C161.171573,3 160.5,2.32842712 160.5,1.5 C160.5,0.671572875 161.171573,0 162,0 L163,0 C163.828427,0 164.5,0.671572875 164.5,1.5 C164.5,2.32842712 163.828427,3 163,3 L162,3 Z M173,3 C172.171573,3 171.5,2.32842712 171.5,1.5 C171.5,0.671572875 172.171573,0 173,0 L174,0 C174.828427,0 175.5,0.671572875 175.5,1.5 C175.5,2.32842712 174.828427,3 174,3 L173,3 Z M184,3 C183.171573,3 182.5,2.32842712 182.5,1.5 C182.5,0.671572875 183.171573,0 184,0 L185,0 C185.828427,0 186.5,0.671572875 186.5,1.5 C186.5,2.32842712 185.828427,3 185,3 L184,3 Z M195,3 C194.171573,3 193.5,2.32842712 193.5,1.5 C193.5,0.671572875 194.171573,0 195,0 L196,0 C196.828427,0 197.5,0.671572875 197.5,1.5 C197.5,2.32842712 196.828427,3 196,3 L195,3 Z M206,3 C205.171573,3 204.5,2.32842712 204.5,1.5 C204.5,0.671572875 205.171573,0 206,0 L207,0 C207.828427,0 208.5,0.671572875 208.5,1.5 C208.5,2.32842712 207.828427,3 207,3 L206,3 Z M217,3 C216.171573,3 215.5,2.32842712 215.5,1.5 C215.5,0.671572875 216.171573,0 217,0 L218,0 C218.828427,0 219.5,0.671572875 219.5,1.5 C219.5,2.32842712 218.828427,3 218,3 L217,3 Z M228,3 C227.171573,3 226.5,2.32842712 226.5,1.5 C226.5,0.671572875 227.171573,0 228,0 L229,0 C229.828427,0 230.5,0.671572875 230.5,1.5 C230.5,2.32842712 229.828427,3 229,3 L228,3 Z M239,3 C238.171573,3 237.5,2.32842712 237.5,1.5 C237.5,0.671572875 238.171573,0 239,0 L240,0 C240.828427,0 241.5,0.671572875 241.5,1.5 C241.5,2.32842712 240.828427,3 240,3 L239,3 Z M250,3 C249.171573,3 248.5,2.32842712 248.5,1.5 C248.5,0.671572875 249.171573,0 250,0 L251,0 C251.828427,0 252.5,0.671572875 252.5,1.5 C252.5,2.32842712 251.828427,3 251,3 L250,3 Z M261,3 C260.171573,3 259.5,2.32842712 259.5,1.5 C259.5,0.671572875 260.171573,0 261,0 L262,0 C262.828427,0 263.5,0.671572875 263.5,1.5 C263.5,2.32842712 262.828427,3 262,3 L261,3 Z M272,3 C271.171573,3 270.5,2.32842712 270.5,1.5 C270.5,0.671572875 271.171573,0 272,0 L273,0 C273.828427,0 274.5,0.671572875 274.5,1.5 C274.5,2.32842712 273.828427,3 273,3 L272,3 Z M283,3 C282.171573,3 281.5,2.32842712 281.5,1.5 C281.5,0.671572875 282.171573,0 283,0 L284,0 C284.828427,0 285.5,0.671572875 285.5,1.5 C285.5,2.32842712 284.828427,3 284,3 L283,3 Z M294,3 C293.171573,3 292.5,2.32842712 292.5,1.5 C292.5,0.671572875 293.171573,0 294,0 L295,0 C295.828427,0 296.5,0.671572875 296.5,1.5 C296.5,2.32842712 295.828427,3 295,3 L294,3 Z M305,3 C304.171573,3 303.5,2.32842712 303.5,1.5 C303.5,0.671572875 304.171573,0 305,0 L306,0 C306.828427,0 307.5,0.671572875 307.5,1.5 C307.5,2.32842712 306.828427,3 306,3 L305,3 Z M316,3 C315.171573,3 314.5,2.32842712 314.5,1.5 C314.5,0.671572875 315.171573,0 316,0 L317,0 C317.828427,0 318.5,0.671572875 318.5,1.5 C318.5,2.32842712 317.828427,3 317,3 L316,3 Z M327,3 C326.171573,3 325.5,2.32842712 325.5,1.5 C325.5,0.671572875 326.171573,0 327,0 L328,0 C328.828427,0 329.5,0.671572875 329.5,1.5 C329.5,2.32842712 328.828427,3 328,3 L327,3 Z M332,6.81971717 C332,5.99129004 332.671573,5.31971717 333.5,5.31971717 C334.328427,5.31971717 335,5.99129004 335,6.81971717 L335,7.81971717 C335,8.64814429 334.328427,9.31971717 333.5,9.31971717 C332.671573,9.31971717 332,8.64814429 332,7.81971717 L332,6.81971717 Z M332,17.8197172 C332,16.99129 332.671573,16.3197172 333.5,16.3197172 C334.328427,16.3197172 335,16.99129 335,17.8197172 L335,18.8197172 C335,19.6481443 334.328427,20.3197172 333.5,20.3197172 C332.671573,20.3197172 332,19.6481443 332,18.8197172 L332,17.8197172 Z M332,28.8197172 C332,27.99129 332.671573,27.3197172 333.5,27.3197172 C334.328427,27.3197172 335,27.99129 335,28.8197172 L335,29.8197172 C335,30.6481443 334.328427,31.3197172 333.5,31.3197172 C332.671573,31.3197172 332,30.6481443 332,29.8197172 L332,28.8197172 Z M332,39.8197172 C332,38.99129 332.671573,38.3197172 333.5,38.3197172 C334.328427,38.3197172 335,38.99129 335,39.8197172 L335,40.8197172 C335,41.6481443 334.328427,42.3197172 333.5,42.3197172 C332.671573,42.3197172 332,41.6481443 332,40.8197172 L332,39.8197172 Z M332,50.8197172 C332,49.99129 332.671573,49.3197172 333.5,49.3197172 C334.328427,49.3197172 335,49.99129 335,50.8197172 L335,51.8197172 C335,52.6481443 334.328427,53.3197172 333.5,53.3197172 C332.671573,53.3197172 332,52.6481443 332,51.8197172 L332,50.8197172 Z M332,61.8197172 C332,60.99129 332.671573,60.3197172 333.5,60.3197172 C334.328427,60.3197172 335,60.99129 335,61.8197172 L335,62.8197172 C335,63.6481443 334.328427,64.3197172 333.5,64.3197172 C332.671573,64.3197172 332,63.6481443 332,62.8197172 L332,61.8197172 Z M332,72.8197172 C332,71.99129 332.671573,71.3197172 333.5,71.3197172 C334.328427,71.3197172 335,71.99129 335,72.8197172 L335,73.8197172 C335,74.6481443 334.328427,75.3197172 333.5,75.3197172 C332.671573,75.3197172 332,74.6481443 332,73.8197172 L332,72.8197172 Z M332,83.8197172 C332,82.99129 332.671573,82.3197172 333.5,82.3197172 C334.328427,82.3197172 335,82.99129 335,83.8197172 L335,84.8197172 C335,85.6481443 334.328427,86.3197172 333.5,86.3197172 C332.671573,86.3197172 332,85.6481443 332,84.8197172 L332,83.8197172 Z M332,94.8197172 C332,93.99129 332.671573,93.3197172 333.5,93.3197172 C334.328427,93.3197172 335,93.99129 335,94.8197172 L335,95.8197172 C335,96.6481443 334.328427,97.3197172 333.5,97.3197172 C332.671573,97.3197172 332,96.6481443 332,95.8197172 L332,94.8197172 Z M332,105.819717 C332,104.99129 332.671573,104.319717 333.5,104.319717 C334.328427,104.319717 335,104.99129 335,105.819717 L335,106.819717 C335,107.648144 334.328427,108.319717 333.5,108.319717 C332.671573,108.319717 332,107.648144 332,106.819717 L332,105.819717 Z M332,116.819717 C332,115.99129 332.671573,115.319717 333.5,115.319717 C334.328427,115.319717 335,115.99129 335,116.819717 L335,117.819717 C335,118.648144 334.328427,119.319717 333.5,119.319717 C332.671573,119.319717 332,118.648144 332,117.819717 L332,116.819717 Z M332,127.819717 C332,126.99129 332.671573,126.319717 333.5,126.319717 C334.328427,126.319717 335,126.99129 335,127.819717 L335,128.819717 C335,129.648144 334.328427,130.319717 333.5,130.319717 C332.671573,130.319717 332,129.648144 332,128.819717 L332,127.819717 Z M325.360566,130 C326.188993,130 326.860566,130.671573 326.860566,131.5 C326.860566,132.328427 326.188993,133 325.360566,133 L324.360566,133 C323.532139,133 322.860566,132.328427 322.860566,131.5 C322.860566,130.671573 323.532139,130 324.360566,130 L325.360566,130 Z M314.360566,130 C315.188993,130 315.860566,130.671573 315.860566,131.5 C315.860566,132.328427 315.188993,133 314.360566,133 L313.360566,133 C312.532139,133 311.860566,132.328427 311.860566,131.5 C311.860566,130.671573 312.532139,130 313.360566,130 L314.360566,130 Z M303.360566,130 C304.188993,130 304.860566,130.671573 304.860566,131.5 C304.860566,132.328427 304.188993,133 303.360566,133 L302.360566,133 C301.532139,133 300.860566,132.328427 300.860566,131.5 C300.860566,130.671573 301.532139,130 302.360566,130 L303.360566,130 Z M292.360566,130 C293.188993,130 293.860566,130.671573 293.860566,131.5 C293.860566,132.328427 293.188993,133 292.360566,133 L291.360566,133 C290.532139,133 289.860566,132.328427 289.860566,131.5 C289.860566,130.671573 290.532139,130 291.360566,130 L292.360566,130 Z M281.360566,130 C282.188993,130 282.860566,130.671573 282.860566,131.5 C282.860566,132.328427 282.188993,133 281.360566,133 L280.360566,133 C279.532139,133 278.860566,132.328427 278.860566,131.5 C278.860566,130.671573 279.532139,130 280.360566,130 L281.360566,130 Z M270.360566,130 C271.188993,130 271.860566,130.671573 271.860566,131.5 C271.860566,132.328427 271.188993,133 270.360566,133 L269.360566,133 C268.532139,133 267.860566,132.328427 267.860566,131.5 C267.860566,130.671573 268.532139,130 269.360566,130 L270.360566,130 Z M259.360566,130 C260.188993,130 260.860566,130.671573 260.860566,131.5 C260.860566,132.328427 260.188993,133 259.360566,133 L258.360566,133 C257.532139,133 256.860566,132.328427 256.860566,131.5 C256.860566,130.671573 257.532139,130 258.360566,130 L259.360566,130 Z M248.360566,130 C249.188993,130 249.860566,130.671573 249.860566,131.5 C249.860566,132.328427 249.188993,133 248.360566,133 L247.360566,133 C246.532139,133 245.860566,132.328427 245.860566,131.5 C245.860566,130.671573 246.532139,130 247.360566,130 L248.360566,130 Z M237.360566,130 C238.188993,130 238.860566,130.671573 238.860566,131.5 C238.860566,132.328427 238.188993,133 237.360566,133 L236.360566,133 C235.532139,133 234.860566,132.328427 234.860566,131.5 C234.860566,130.671573 235.532139,130 236.360566,130 L237.360566,130 Z M226.360566,130 C227.188993,130 227.860566,130.671573 227.860566,131.5 C227.860566,132.328427 227.188993,133 226.360566,133 L225.360566,133 C224.532139,133 223.860566,132.328427 223.860566,131.5 C223.860566,130.671573 224.532139,130 225.360566,130 L226.360566,130 Z M215.360566,130 C216.188993,130 216.860566,130.671573 216.860566,131.5 C216.860566,132.328427 216.188993,133 215.360566,133 L214.360566,133 C213.532139,133 212.860566,132.328427 212.860566,131.5 C212.860566,130.671573 213.532139,130 214.360566,130 L215.360566,130 Z M204.360566,130 C205.188993,130 205.860566,130.671573 205.860566,131.5 C205.860566,132.328427 205.188993,133 204.360566,133 L203.360566,133 C202.532139,133 201.860566,132.328427 201.860566,131.5 C201.860566,130.671573 202.532139,130 203.360566,130 L204.360566,130 Z M193.360566,130 C194.188993,130 194.860566,130.671573 194.860566,131.5 C194.860566,132.328427 194.188993,133 193.360566,133 L192.360566,133 C191.532139,133 190.860566,132.328427 190.860566,131.5 C190.860566,130.671573 191.532139,130 192.360566,130 L193.360566,130 Z M182.360566,130 C183.188993,130 183.860566,130.671573 183.860566,131.5 C183.860566,132.328427 183.188993,133 182.360566,133 L181.360566,133 C180.532139,133 179.860566,132.328427 179.860566,131.5 C179.860566,130.671573 180.532139,130 181.360566,130 L182.360566,130 Z M171.360566,130 C172.188993,130 172.860566,130.671573 172.860566,131.5 C172.860566,132.328427 172.188993,133 171.360566,133 L170.360566,133 C169.532139,133 168.860566,132.328427 168.860566,131.5 C168.860566,130.671573 169.532139,130 170.360566,130 L171.360566,130 Z M160.360566,130 C161.188993,130 161.860566,130.671573 161.860566,131.5 C161.860566,132.328427 161.188993,133 160.360566,133 L159.360566,133 C158.532139,133 157.860566,132.328427 157.860566,131.5 C157.860566,130.671573 158.532139,130 159.360566,130 L160.360566,130 Z M149.360566,130 C150.188993,130 150.860566,130.671573 150.860566,131.5 C150.860566,132.328427 150.188993,133 149.360566,133 L148.360566,133 C147.532139,133 146.860566,132.328427 146.860566,131.5 C146.860566,130.671573 147.532139,130 148.360566,130 L149.360566,130 Z M138.360566,130 C139.188993,130 139.860566,130.671573 139.860566,131.5 C139.860566,132.328427 139.188993,133 138.360566,133 L137.360566,133 C136.532139,133 135.860566,132.328427 135.860566,131.5 C135.860566,130.671573 136.532139,130 137.360566,130 L138.360566,130 Z M127.360566,130 C128.188993,130 128.860566,130.671573 128.860566,131.5 C128.860566,132.328427 128.188993,133 127.360566,133 L126.360566,133 C125.532139,133 124.860566,132.328427 124.860566,131.5 C124.860566,130.671573 125.532139,130 126.360566,130 L127.360566,130 Z M116.360566,130 C117.188993,130 117.860566,130.671573 117.860566,131.5 C117.860566,132.328427 117.188993,133 116.360566,133 L115.360566,133 C114.532139,133 113.860566,132.328427 113.860566,131.5 C113.860566,130.671573 114.532139,130 115.360566,130 L116.360566,130 Z M105.360566,130 C106.188993,130 106.860566,130.671573 106.860566,131.5 C106.860566,132.328427 106.188993,133 105.360566,133 L104.360566,133 C103.532139,133 102.860566,132.328427 102.860566,131.5 C102.860566,130.671573 103.532139,130 104.360566,130 L105.360566,130 Z M94.3605657,130 C95.1889928,130 95.8605657,130.671573 95.8605657,131.5 C95.8605657,132.328427 95.1889928,133 94.3605657,133 L93.3605657,133 C92.5321385,133 91.8605657,132.328427 91.8605657,131.5 C91.8605657,130.671573 92.5321385,130 93.3605657,130 L94.3605657,130 Z M83.3605657,130 C84.1889928,130 84.8605657,130.671573 84.8605657,131.5 C84.8605657,132.328427 84.1889928,133 83.3605657,133 L82.3605657,133 C81.5321385,133 80.8605657,132.328427 80.8605657,131.5 C80.8605657,130.671573 81.5321385,130 82.3605657,130 L83.3605657,130 Z M72.3605657,130 C73.1889928,130 73.8605657,130.671573 73.8605657,131.5 C73.8605657,132.328427 73.1889928,133 72.3605657,133 L71.3605657,133 C70.5321385,133 69.8605657,132.328427 69.8605657,131.5 C69.8605657,130.671573 70.5321385,130 71.3605657,130 L72.3605657,130 Z M61.3605657,130 C62.1889928,130 62.8605657,130.671573 62.8605657,131.5 C62.8605657,132.328427 62.1889928,133 61.3605657,133 L60.3605657,133 C59.5321385,133 58.8605657,132.328427 58.8605657,131.5 C58.8605657,130.671573 59.5321385,130 60.3605657,130 L61.3605657,130 Z M50.3605657,130 C51.1889928,130 51.8605657,130.671573 51.8605657,131.5 C51.8605657,132.328427 51.1889928,133 50.3605657,133 L49.3605657,133 C48.5321385,133 47.8605657,132.328427 47.8605657,131.5 C47.8605657,130.671573 48.5321385,130 49.3605657,130 L50.3605657,130 Z M39.3605657,130 C40.1889928,130 40.8605657,130.671573 40.8605657,131.5 C40.8605657,132.328427 40.1889928,133 39.3605657,133 L38.3605657,133 C37.5321385,133 36.8605657,132.328427 36.8605657,131.5 C36.8605657,130.671573 37.5321385,130 38.3605657,130 L39.3605657,130 Z M28.3605657,130 C29.1889928,130 29.8605657,130.671573 29.8605657,131.5 C29.8605657,132.328427 29.1889928,133 28.3605657,133 L27.3605657,133 C26.5321385,133 25.8605657,132.328427 25.8605657,131.5 C25.8605657,130.671573 26.5321385,130 27.3605657,130 L28.3605657,130 Z M17.3605657,130 C18.1889928,130 18.8605657,130.671573 18.8605657,131.5 C18.8605657,132.328427 18.1889928,133 17.3605657,133 L16.3605657,133 C15.5321385,133 14.8605657,132.328427 14.8605657,131.5 C14.8605657,130.671573 15.5321385,130 16.3605657,130 L17.3605657,130 Z M6.36056566,130 C7.18899279,130 7.86056566,130.671573 7.86056566,131.5 C7.86056566,132.328427 7.18899279,133 6.36056566,133 L5.70253165,133 C5.55333235,133 5.40526867,132.994992 5.25853149,132.984948 C4.4320381,132.928378 3.80789192,132.212514 3.86446197,131.38602 C3.92103203,130.559527 4.6368964,129.935381 5.4633898,129.991951 C5.54158077,129.997303 5.62132508,130 5.70253165,130 L6.36056566,130 Z M3,123.367773 C3,124.1962 2.32842712,124.867773 1.5,124.867773 C0.671572875,124.867773 0,124.1962 0,123.367773 L0,122.367773 C0,121.539346 0.671572875,120.867773 1.5,120.867773 C2.32842712,120.867773 3,121.539346 3,122.367773 L3,123.367773 Z M3,112.367773 C3,113.1962 2.32842712,113.867773 1.5,113.867773 C0.671572875,113.867773 0,113.1962 0,112.367773 L0,111.367773 C0,110.539346 0.671572875,109.867773 1.5,109.867773 C2.32842712,109.867773 3,110.539346 3,111.367773 L3,112.367773 Z M3,101.367773 C3,102.1962 2.32842712,102.867773 1.5,102.867773 C0.671572875,102.867773 0,102.1962 0,101.367773 L0,100.367773 C0,99.539346 0.671572875,98.8677731 1.5,98.8677731 C2.32842712,98.8677731 3,99.539346 3,100.367773 L3,101.367773 Z M3,90.3677731 C3,91.1962002 2.32842712,91.8677731 1.5,91.8677731 C0.671572875,91.8677731 0,91.1962002 0,90.3677731 L0,89.3677731 C0,88.539346 0.671572875,87.8677731 1.5,87.8677731 C2.32842712,87.8677731 3,88.539346 3,89.3677731 L3,90.3677731 Z M3,79.3677731 C3,80.1962002 2.32842712,80.8677731 1.5,80.8677731 C0.671572875,80.8677731 0,80.1962002 0,79.3677731 L0,78.3677731 C0,77.539346 0.671572875,76.8677731 1.5,76.8677731 C2.32842712,76.8677731 3,77.539346 3,78.3677731 L3,79.3677731 Z M3,68.3677731 C3,69.1962002 2.32842712,69.8677731 1.5,69.8677731 C0.671572875,69.8677731 0,69.1962002 0,68.3677731 L0,67.3677731 C0,66.539346 0.671572875,65.8677731 1.5,65.8677731 C2.32842712,65.8677731 3,66.539346 3,67.3677731 L3,68.3677731 Z M3,57.3677731 C3,58.1962002 2.32842712,58.8677731 1.5,58.8677731 C0.671572875,58.8677731 0,58.1962002 0,57.3677731 L0,56.3677731 C0,55.539346 0.671572875,54.8677731 1.5,54.8677731 C2.32842712,54.8677731 3,55.539346 3,56.3677731 L3,57.3677731 Z M3,46.3677731 C3,47.1962002 2.32842712,47.8677731 1.5,47.8677731 C0.671572875,47.8677731 0,47.1962002 0,46.3677731 L0,45.3677731 C0,44.539346 0.671572875,43.8677731 1.5,43.8677731 C2.32842712,43.8677731 3,44.539346 3,45.3677731 L3,46.3677731 Z" id="Border_lobby_1" fill="#815283" fill-rule="nonzero"></path>
    </g>
</svg>