<?xml version="1.0" encoding="UTF-8" standalone="no"?>
<svg width="255px" height="168px" viewBox="0 0 255 168" version="1.1" xmlns="http://www.w3.org/2000/svg" xmlns:xlink="http://www.w3.org/1999/xlink">
    <!-- Generator: Sketch 50 (54983) - http://www.bohemiancoding.com/sketch -->
    <title>Border_Branch_1</title>
    <desc>Created with Sketch.</desc>
    <defs></defs>
    <g id="Page-1" stroke="none" stroke-width="1" fill="none" fill-rule="evenodd">
        <path d="M9,3.5 C8.17157288,3.5 7.5,2.82842712 7.5,2 C7.5,1.17157288 8.17157288,0.5 9,0.5 L10,0.5 C10.8284271,0.5 11.5,1.17157288 11.5,2 C11.5,2.82842712 10.8284271,3.5 10,3.5 L9,3.5 Z M20,3.5 C19.1715729,3.5 18.5,2.82842712 18.5,2 C18.5,1.17157288 19.1715729,0.5 20,0.5 L21,0.5 C21.8284271,0.5 22.5,1.17157288 22.5,2 C22.5,2.82842712 21.8284271,3.5 21,3.5 L20,3.5 Z M31,3.5 C30.1715729,3.5 29.5,2.82842712 29.5,2 C29.5,1.17157288 30.1715729,0.5 31,0.5 L32,0.5 C32.8284271,0.5 33.5,1.17157288 33.5,2 C33.5,2.82842712 32.8284271,3.5 32,3.5 L31,3.5 Z M42,3.5 C41.1715729,3.5 40.5,2.82842712 40.5,2 C40.5,1.17157288 41.1715729,0.5 42,0.5 L43,0.5 C43.8284271,0.5 44.5,1.17157288 44.5,2 C44.5,2.82842712 43.8284271,3.5 43,3.5 L42,3.5 Z M53,3.5 C52.1715729,3.5 51.5,2.82842712 51.5,2 C51.5,1.17157288 52.1715729,0.5 53,0.5 L54,0.5 C54.8284271,0.5 55.5,1.17157288 55.5,2 C55.5,2.82842712 54.8284271,3.5 54,3.5 L53,3.5 Z M64,3.5 C63.1715729,3.5 62.5,2.82842712 62.5,2 C62.5,1.17157288 63.1715729,0.5 64,0.5 L65,0.5 C65.8284271,0.5 66.5,1.17157288 66.5,2 C66.5,2.82842712 65.8284271,3.5 65,3.5 L64,3.5 Z M75,3.5 C74.1715729,3.5 73.5,2.82842712 73.5,2 C73.5,1.17157288 74.1715729,0.5 75,0.5 L76,0.5 C76.8284271,0.5 77.5,1.17157288 77.5,2 C77.5,2.82842712 76.8284271,3.5 76,3.5 L75,3.5 Z M86,3.5 C85.1715729,3.5 84.5,2.82842712 84.5,2 C84.5,1.17157288 85.1715729,0.5 86,0.5 L87,0.5 C87.8284271,0.5 88.5,1.17157288 88.5,2 C88.5,2.82842712 87.8284271,3.5 87,3.5 L86,3.5 Z M97,3.5 C96.1715729,3.5 95.5,2.82842712 95.5,2 C95.5,1.17157288 96.1715729,0.5 97,0.5 L98,0.5 C98.8284271,0.5 99.5,1.17157288 99.5,2 C99.5,2.82842712 98.8284271,3.5 98,3.5 L97,3.5 Z M108,3.5 C107.171573,3.5 106.5,2.82842712 106.5,2 C106.5,1.17157288 107.171573,0.5 108,0.5 L109,0.5 C109.828427,0.5 110.5,1.17157288 110.5,2 C110.5,2.82842712 109.828427,3.5 109,3.5 L108,3.5 Z M119,3.5 C118.171573,3.5 117.5,2.82842712 117.5,2 C117.5,1.17157288 118.171573,0.5 119,0.5 L120,0.5 C120.828427,0.5 121.5,1.17157288 121.5,2 C121.5,2.82842712 120.828427,3.5 120,3.5 L119,3.5 Z M130,3.5 C129.171573,3.5 128.5,2.82842712 128.5,2 C128.5,1.17157288 129.171573,0.5 130,0.5 L131,0.5 C131.828427,0.5 132.5,1.17157288 132.5,2 C132.5,2.82842712 131.828427,3.5 131,3.5 L130,3.5 Z M141,3.5 C140.171573,3.5 139.5,2.82842712 139.5,2 C139.5,1.17157288 140.171573,0.5 141,0.5 L142,0.5 C142.828427,0.5 143.5,1.17157288 143.5,2 C143.5,2.82842712 142.828427,3.5 142,3.5 L141,3.5 Z M152,3.5 C151.171573,3.5 150.5,2.82842712 150.5,2 C150.5,1.17157288 151.171573,0.5 152,0.5 L153,0.5 C153.828427,0.5 154.5,1.17157288 154.5,2 C154.5,2.82842712 153.828427,3.5 153,3.5 L152,3.5 Z M163,3.5 C162.171573,3.5 161.5,2.82842712 161.5,2 C161.5,1.17157288 162.171573,0.5 163,0.5 L164,0.5 C164.828427,0.5 165.5,1.17157288 165.5,2 C165.5,2.82842712 164.828427,3.5 164,3.5 L163,3.5 Z M174,3.5 C173.171573,3.5 172.5,2.82842712 172.5,2 C172.5,1.17157288 173.171573,0.5 174,0.5 L175,0.5 C175.828427,0.5 176.5,1.17157288 176.5,2 C176.5,2.82842712 175.828427,3.5 175,3.5 L174,3.5 Z M185,3.5 C184.171573,3.5 183.5,2.82842712 183.5,2 C183.5,1.17157288 184.171573,0.5 185,0.5 L186,0.5 C186.828427,0.5 187.5,1.17157288 187.5,2 C187.5,2.82842712 186.828427,3.5 186,3.5 L185,3.5 Z M196,3.5 C195.171573,3.5 194.5,2.82842712 194.5,2 C194.5,1.17157288 195.171573,0.5 196,0.5 L197,0.5 C197.828427,0.5 198.5,1.17157288 198.5,2 C198.5,2.82842712 197.828427,3.5 197,3.5 L196,3.5 Z M207,3.5 C206.171573,3.5 205.5,2.82842712 205.5,2 C205.5,1.17157288 206.171573,0.5 207,0.5 L208,0.5 C208.828427,0.5 209.5,1.17157288 209.5,2 C209.5,2.82842712 208.828427,3.5 208,3.5 L207,3.5 Z M218,3.5 C217.171573,3.5 216.5,2.82842712 216.5,2 C216.5,1.17157288 217.171573,0.5 218,0.5 L219,0.5 C219.828427,0.5 220.5,1.17157288 220.5,2 C220.5,2.82842712 219.828427,3.5 219,3.5 L218,3.5 Z M229,3.5 C228.171573,3.5 227.5,2.82842712 227.5,2 C227.5,1.17157288 228.171573,0.5 229,0.5 L230,0.5 C230.828427,0.5 231.5,1.17157288 231.5,2 C231.5,2.82842712 230.828427,3.5 230,3.5 L229,3.5 Z M240,3.5 C239.171573,3.5 238.5,2.82842712 238.5,2 C238.5,1.17157288 239.171573,0.5 240,0.5 L241,0.5 C241.828427,0.5 242.5,1.17157288 242.5,2 C242.5,2.82842712 241.828427,3.5 241,3.5 L240,3.5 Z M251.585201,3.5 L251,3.5 C250.171573,3.5 249.5,2.82842712 249.5,2 C249.5,1.17157288 250.171573,0.5 251,0.5 L251.597701,0.5 C251.878315,0.5 252.155179,0.540262675 252.421019,0.618820839 C253.215484,0.853592016 253.669205,1.68795246 253.434434,2.48241706 C253.201077,3.27209528 252.375334,3.72512343 251.585201,3.5 Z M251.5,11.821275 C251.5,10.9928478 252.171573,10.321275 253,10.321275 C253.828427,10.321275 254.5,10.9928478 254.5,11.821275 L254.5,12.821275 C254.5,13.6497021 253.828427,14.321275 253,14.321275 C252.171573,14.321275 251.5,13.6497021 251.5,12.821275 L251.5,11.821275 Z M251.5,22.821275 C251.5,21.9928478 252.171573,21.321275 253,21.321275 C253.828427,21.321275 254.5,21.9928478 254.5,22.821275 L254.5,23.821275 C254.5,24.6497021 253.828427,25.321275 253,25.321275 C252.171573,25.321275 251.5,24.6497021 251.5,23.821275 L251.5,22.821275 Z M251.5,33.821275 C251.5,32.9928478 252.171573,32.321275 253,32.321275 C253.828427,32.321275 254.5,32.9928478 254.5,33.821275 L254.5,34.821275 C254.5,35.6497021 253.828427,36.321275 253,36.321275 C252.171573,36.321275 251.5,35.6497021 251.5,34.821275 L251.5,33.821275 Z M251.5,44.821275 C251.5,43.9928478 252.171573,43.321275 253,43.321275 C253.828427,43.321275 254.5,43.9928478 254.5,44.821275 L254.5,45.821275 C254.5,46.6497021 253.828427,47.321275 253,47.321275 C252.171573,47.321275 251.5,46.6497021 251.5,45.821275 L251.5,44.821275 Z M251.5,55.821275 C251.5,54.9928478 252.171573,54.321275 253,54.321275 C253.828427,54.321275 254.5,54.9928478 254.5,55.821275 L254.5,56.821275 C254.5,57.6497021 253.828427,58.321275 253,58.321275 C252.171573,58.321275 251.5,57.6497021 251.5,56.821275 L251.5,55.821275 Z M251.5,66.821275 C251.5,65.9928478 252.171573,65.321275 253,65.321275 C253.828427,65.321275 254.5,65.9928478 254.5,66.821275 L254.5,67.821275 C254.5,68.6497021 253.828427,69.321275 253,69.321275 C252.171573,69.321275 251.5,68.6497021 251.5,67.821275 L251.5,66.821275 Z M251.5,77.821275 C251.5,76.9928478 252.171573,76.321275 253,76.321275 C253.828427,76.321275 254.5,76.9928478 254.5,77.821275 L254.5,78.821275 C254.5,79.6497021 253.828427,80.321275 253,80.321275 C252.171573,80.321275 251.5,79.6497021 251.5,78.821275 L251.5,77.821275 Z M251.5,88.821275 C251.5,87.9928478 252.171573,87.321275 253,87.321275 C253.828427,87.321275 254.5,87.9928478 254.5,88.821275 L254.5,89.821275 C254.5,90.6497021 253.828427,91.321275 253,91.321275 C252.171573,91.321275 251.5,90.6497021 251.5,89.821275 L251.5,88.821275 Z M251.5,99.821275 C251.5,98.9928478 252.171573,98.321275 253,98.321275 C253.828427,98.321275 254.5,98.9928478 254.5,99.821275 L254.5,100.821275 C254.5,101.649702 253.828427,102.321275 253,102.321275 C252.171573,102.321275 251.5,101.649702 251.5,100.821275 L251.5,99.821275 Z M251.5,110.821275 C251.5,109.992848 252.171573,109.321275 253,109.321275 C253.828427,109.321275 254.5,109.992848 254.5,110.821275 L254.5,111.821275 C254.5,112.649702 253.828427,113.321275 253,113.321275 C252.171573,113.321275 251.5,112.649702 251.5,111.821275 L251.5,110.821275 Z M251.5,121.821275 C251.5,120.992848 252.171573,120.321275 253,120.321275 C253.828427,120.321275 254.5,120.992848 254.5,121.821275 L254.5,122.821275 C254.5,123.649702 253.828427,124.321275 253,124.321275 C252.171573,124.321275 251.5,123.649702 251.5,122.821275 L251.5,121.821275 Z M251.5,132.821275 C251.5,131.992848 252.171573,131.321275 253,131.321275 C253.828427,131.321275 254.5,131.992848 254.5,132.821275 L254.5,133.821275 C254.5,134.649702 253.828427,135.321275 253,135.321275 C252.171573,135.321275 251.5,134.649702 251.5,133.821275 L251.5,132.821275 Z M251.5,143.821275 C251.5,142.992848 252.171573,142.321275 253,142.321275 C253.828427,142.321275 254.5,142.992848 254.5,143.821275 L254.5,144.821275 C254.5,145.649702 253.828427,146.321275 253,146.321275 C252.171573,146.321275 251.5,145.649702 251.5,144.821275 L251.5,143.821275 Z M251.5,154.821275 C251.5,153.992848 252.171573,153.321275 253,153.321275 C253.828427,153.321275 254.5,153.992848 254.5,154.821275 L254.5,155.821275 C254.5,156.649702 253.828427,157.321275 253,157.321275 C252.171573,157.321275 251.5,156.649702 251.5,155.821275 L251.5,154.821275 Z M253.64352,164.76898 C254.156999,165.419081 254.046244,166.362349 253.396143,166.875827 C252.97866,167.205573 252.476813,167.416179 251.941556,167.479701 L251.801033,167.489715 L251.393699,167.499562 C250.565514,167.519582 249.877908,166.864434 249.857888,166.036249 C249.837868,165.208064 250.493016,164.520458 251.321201,164.500438 L251.572208,164.49437 C252.220733,164.012304 253.139323,164.130629 253.64352,164.76898 Z M241.35745,164.5 C242.185877,164.5 242.85745,165.171573 242.85745,166 C242.85745,166.828427 242.185877,167.5 241.35745,167.5 L240.35745,167.5 C239.529023,167.5 238.85745,166.828427 238.85745,166 C238.85745,165.171573 239.529023,164.5 240.35745,164.5 L241.35745,164.5 Z M230.35745,164.5 C231.185877,164.5 231.85745,165.171573 231.85745,166 C231.85745,166.828427 231.185877,167.5 230.35745,167.5 L229.35745,167.5 C228.529023,167.5 227.85745,166.828427 227.85745,166 C227.85745,165.171573 228.529023,164.5 229.35745,164.5 L230.35745,164.5 Z M219.35745,164.5 C220.185877,164.5 220.85745,165.171573 220.85745,166 C220.85745,166.828427 220.185877,167.5 219.35745,167.5 L218.35745,167.5 C217.529023,167.5 216.85745,166.828427 216.85745,166 C216.85745,165.171573 217.529023,164.5 218.35745,164.5 L219.35745,164.5 Z M208.35745,164.5 C209.185877,164.5 209.85745,165.171573 209.85745,166 C209.85745,166.828427 209.185877,167.5 208.35745,167.5 L207.35745,167.5 C206.529023,167.5 205.85745,166.828427 205.85745,166 C205.85745,165.171573 206.529023,164.5 207.35745,164.5 L208.35745,164.5 Z M197.35745,164.5 C198.185877,164.5 198.85745,165.171573 198.85745,166 C198.85745,166.828427 198.185877,167.5 197.35745,167.5 L196.35745,167.5 C195.529023,167.5 194.85745,166.828427 194.85745,166 C194.85745,165.171573 195.529023,164.5 196.35745,164.5 L197.35745,164.5 Z M186.35745,164.5 C187.185877,164.5 187.85745,165.171573 187.85745,166 C187.85745,166.828427 187.185877,167.5 186.35745,167.5 L185.35745,167.5 C184.529023,167.5 183.85745,166.828427 183.85745,166 C183.85745,165.171573 184.529023,164.5 185.35745,164.5 L186.35745,164.5 Z M175.35745,164.5 C176.185877,164.5 176.85745,165.171573 176.85745,166 C176.85745,166.828427 176.185877,167.5 175.35745,167.5 L174.35745,167.5 C173.529023,167.5 172.85745,166.828427 172.85745,166 C172.85745,165.171573 173.529023,164.5 174.35745,164.5 L175.35745,164.5 Z M164.35745,164.5 C165.185877,164.5 165.85745,165.171573 165.85745,166 C165.85745,166.828427 165.185877,167.5 164.35745,167.5 L163.35745,167.5 C162.529023,167.5 161.85745,166.828427 161.85745,166 C161.85745,165.171573 162.529023,164.5 163.35745,164.5 L164.35745,164.5 Z M153.35745,164.5 C154.185877,164.5 154.85745,165.171573 154.85745,166 C154.85745,166.828427 154.185877,167.5 153.35745,167.5 L152.35745,167.5 C151.529023,167.5 150.85745,166.828427 150.85745,166 C150.85745,165.171573 151.529023,164.5 152.35745,164.5 L153.35745,164.5 Z M142.35745,164.5 C143.185877,164.5 143.85745,165.171573 143.85745,166 C143.85745,166.828427 143.185877,167.5 142.35745,167.5 L141.35745,167.5 C140.529023,167.5 139.85745,166.828427 139.85745,166 C139.85745,165.171573 140.529023,164.5 141.35745,164.5 L142.35745,164.5 Z M131.35745,164.5 C132.185877,164.5 132.85745,165.171573 132.85745,166 C132.85745,166.828427 132.185877,167.5 131.35745,167.5 L130.35745,167.5 C129.529023,167.5 128.85745,166.828427 128.85745,166 C128.85745,165.171573 129.529023,164.5 130.35745,164.5 L131.35745,164.5 Z M120.35745,164.5 C121.185877,164.5 121.85745,165.171573 121.85745,166 C121.85745,166.828427 121.185877,167.5 120.35745,167.5 L119.35745,167.5 C118.529023,167.5 117.85745,166.828427 117.85745,166 C117.85745,165.171573 118.529023,164.5 119.35745,164.5 L120.35745,164.5 Z M109.35745,164.5 C110.185877,164.5 110.85745,165.171573 110.85745,166 C110.85745,166.828427 110.185877,167.5 109.35745,167.5 L108.35745,167.5 C107.529023,167.5 106.85745,166.828427 106.85745,166 C106.85745,165.171573 107.529023,164.5 108.35745,164.5 L109.35745,164.5 Z M98.3574501,164.5 C99.1858772,164.5 99.8574501,165.171573 99.8574501,166 C99.8574501,166.828427 99.1858772,167.5 98.3574501,167.5 L97.3574501,167.5 C96.529023,167.5 95.8574501,166.828427 95.8574501,166 C95.8574501,165.171573 96.529023,164.5 97.3574501,164.5 L98.3574501,164.5 Z M87.3574501,164.5 C88.1858772,164.5 88.8574501,165.171573 88.8574501,166 C88.8574501,166.828427 88.1858772,167.5 87.3574501,167.5 L86.3574501,167.5 C85.529023,167.5 84.8574501,166.828427 84.8574501,166 C84.8574501,165.171573 85.529023,164.5 86.3574501,164.5 L87.3574501,164.5 Z M76.3574501,164.5 C77.1858772,164.5 77.8574501,165.171573 77.8574501,166 C77.8574501,166.828427 77.1858772,167.5 76.3574501,167.5 L75.3574501,167.5 C74.529023,167.5 73.8574501,166.828427 73.8574501,166 C73.8574501,165.171573 74.529023,164.5 75.3574501,164.5 L76.3574501,164.5 Z M65.3574501,164.5 C66.1858772,164.5 66.8574501,165.171573 66.8574501,166 C66.8574501,166.828427 66.1858772,167.5 65.3574501,167.5 L64.3574501,167.5 C63.529023,167.5 62.8574501,166.828427 62.8574501,166 C62.8574501,165.171573 63.529023,164.5 64.3574501,164.5 L65.3574501,164.5 Z M54.3574501,164.5 C55.1858772,164.5 55.8574501,165.171573 55.8574501,166 C55.8574501,166.828427 55.1858772,167.5 54.3574501,167.5 L53.3574501,167.5 C52.529023,167.5 51.8574501,166.828427 51.8574501,166 C51.8574501,165.171573 52.529023,164.5 53.3574501,164.5 L54.3574501,164.5 Z M43.3574501,164.5 C44.1858772,164.5 44.8574501,165.171573 44.8574501,166 C44.8574501,166.828427 44.1858772,167.5 43.3574501,167.5 L42.3574501,167.5 C41.529023,167.5 40.8574501,166.828427 40.8574501,166 C40.8574501,165.171573 41.529023,164.5 42.3574501,164.5 L43.3574501,164.5 Z M32.3574501,164.5 C33.1858772,164.5 33.8574501,165.171573 33.8574501,166 C33.8574501,166.828427 33.1858772,167.5 32.3574501,167.5 L31.3574501,167.5 C30.529023,167.5 29.8574501,166.828427 29.8574501,166 C29.8574501,165.171573 30.529023,164.5 31.3574501,164.5 L32.3574501,164.5 Z M21.3574501,164.5 C22.1858772,164.5 22.8574501,165.171573 22.8574501,166 C22.8574501,166.828427 22.1858772,167.5 21.3574501,167.5 L20.3574501,167.5 C19.529023,167.5 18.8574501,166.828427 18.8574501,166 C18.8574501,165.171573 19.529023,164.5 20.3574501,164.5 L21.3574501,164.5 Z M10.3574501,164.5 C11.1858772,164.5 11.8574501,165.171573 11.8574501,166 C11.8574501,166.828427 11.1858772,167.5 10.3574501,167.5 L9.35745008,167.5 C8.52902296,167.5 7.85745008,166.828427 7.85745008,166 C7.85745008,165.171573 8.52902296,164.5 9.35745008,164.5 L10.3574501,164.5 Z M0.5,7.65002441 C0.5,6.82159729 1.17157288,6.15002441 2,6.15002441 C2.82842712,6.15002441 3.5,6.82159729 3.5,7.65002441 L3.5,8.65002441 C3.5,9.47845154 2.82842712,10.1500244 2,10.1500244 C1.17157288,10.1500244 0.5,9.47845154 0.5,8.65002441 L0.5,7.65002441 Z M0.5,18.6500244 C0.5,17.8215973 1.17157288,17.1500244 2,17.1500244 C2.82842712,17.1500244 3.5,17.8215973 3.5,18.6500244 L3.5,19.6500244 C3.5,20.4784515 2.82842712,21.1500244 2,21.1500244 C1.17157288,21.1500244 0.5,20.4784515 0.5,19.6500244 L0.5,18.6500244 Z M0.5,29.6500244 C0.5,28.8215973 1.17157288,28.1500244 2,28.1500244 C2.82842712,28.1500244 3.5,28.8215973 3.5,29.6500244 L3.5,30.6500244 C3.5,31.4784515 2.82842712,32.1500244 2,32.1500244 C1.17157288,32.1500244 0.5,31.4784515 0.5,30.6500244 L0.5,29.6500244 Z M0.5,40.6500244 C0.5,39.8215973 1.17157288,39.1500244 2,39.1500244 C2.82842712,39.1500244 3.5,39.8215973 3.5,40.6500244 L3.5,41.6500244 C3.5,42.4784515 2.82842712,43.1500244 2,43.1500244 C1.17157288,43.1500244 0.5,42.4784515 0.5,41.6500244 L0.5,40.6500244 Z M0.5,51.6500244 C0.5,50.8215973 1.17157288,50.1500244 2,50.1500244 C2.82842712,50.1500244 3.5,50.8215973 3.5,51.6500244 L3.5,52.6500244 C3.5,53.4784515 2.82842712,54.1500244 2,54.1500244 C1.17157288,54.1500244 0.5,53.4784515 0.5,52.6500244 L0.5,51.6500244 Z M0.5,62.6500244 C0.5,61.8215973 1.17157288,61.1500244 2,61.1500244 C2.82842712,61.1500244 3.5,61.8215973 3.5,62.6500244 L3.5,63.6500244 C3.5,64.4784515 2.82842712,65.1500244 2,65.1500244 C1.17157288,65.1500244 0.5,64.4784515 0.5,63.6500244 L0.5,62.6500244 Z M0.5,73.6500244 C0.5,72.8215973 1.17157288,72.1500244 2,72.1500244 C2.82842712,72.1500244 3.5,72.8215973 3.5,73.6500244 L3.5,74.6500244 C3.5,75.4784515 2.82842712,76.1500244 2,76.1500244 C1.17157288,76.1500244 0.5,75.4784515 0.5,74.6500244 L0.5,73.6500244 Z M0.5,84.6500244 C0.5,83.8215973 1.17157288,83.1500244 2,83.1500244 C2.82842712,83.1500244 3.5,83.8215973 3.5,84.6500244 L3.5,85.6500244 C3.5,86.4784515 2.82842712,87.1500244 2,87.1500244 C1.17157288,87.1500244 0.5,86.4784515 0.5,85.6500244 L0.5,84.6500244 Z M0.5,95.6500244 C0.5,94.8215973 1.17157288,94.1500244 2,94.1500244 C2.82842712,94.1500244 3.5,94.8215973 3.5,95.6500244 L3.5,96.6500244 C3.5,97.4784515 2.82842712,98.1500244 2,98.1500244 C1.17157288,98.1500244 0.5,97.4784515 0.5,96.6500244 L0.5,95.6500244 Z M0.5,106.650024 C0.5,105.821597 1.17157288,105.150024 2,105.150024 C2.82842712,105.150024 3.5,105.821597 3.5,106.650024 L3.5,107.650024 C3.5,108.478452 2.82842712,109.150024 2,109.150024 C1.17157288,109.150024 0.5,108.478452 0.5,107.650024 L0.5,106.650024 Z M0.5,117.650024 C0.5,116.821597 1.17157288,116.150024 2,116.150024 C2.82842712,116.150024 3.5,116.821597 3.5,117.650024 L3.5,118.650024 C3.5,119.478452 2.82842712,120.150024 2,120.150024 C1.17157288,120.150024 0.5,119.478452 0.5,118.650024 L0.5,117.650024 Z M0.5,128.650024 C0.5,127.821597 1.17157288,127.150024 2,127.150024 C2.82842712,127.150024 3.5,127.821597 3.5,128.650024 L3.5,129.650024 C3.5,130.478452 2.82842712,131.150024 2,131.150024 C1.17157288,131.150024 0.5,130.478452 0.5,129.650024 L0.5,128.650024 Z M0.5,139.650024 C0.5,138.821597 1.17157288,138.150024 2,138.150024 C2.82842712,138.150024 3.5,138.821597 3.5,139.650024 L3.5,140.650024 C3.5,141.478452 2.82842712,142.150024 2,142.150024 C1.17157288,142.150024 0.5,141.478452 0.5,140.650024 L0.5,139.650024 Z M0.5,150.650024 C0.5,149.821597 1.17157288,149.150024 2,149.150024 C2.82842712,149.150024 3.5,149.821597 3.5,150.650024 L3.5,151.650024 C3.5,152.478452 2.82842712,153.150024 2,153.150024 C1.17157288,153.150024 0.5,152.478452 0.5,151.650024 L0.5,150.650024 Z M0.5,161.650024 C0.5,160.821597 1.17157288,160.150024 2,160.150024 C2.82842712,160.150024 3.5,160.821597 3.5,161.650024 L3.5,162.495709 C3.5,163.324136 2.82842712,163.995709 2,163.995709 C1.17157288,163.995709 0.5,163.324136 0.5,162.495709 L0.5,161.650024 Z" id="Border_Branch_1" fill="#FE791A" fill-rule="nonzero"></path>
    </g>
</svg>