<?xml version="1.0" encoding="UTF-8" standalone="no"?>
<svg width="405px" height="134px" viewBox="0 0 405 134" version="1.1" xmlns="http://www.w3.org/2000/svg" xmlns:xlink="http://www.w3.org/1999/xlink">
    <!-- Generator: Sketch 50 (54983) - http://www.bohemiancoding.com/sketch -->
    <title>Border_2edFloor_2</title>
    <desc>Created with Sketch.</desc>
    <defs></defs>
    <g id="Page-1" stroke="none" stroke-width="1" fill="none" fill-rule="evenodd">
        <path d="M5,3.5 C4.17157288,3.5 3.5,2.82842712 3.5,2 C3.5,1.17157288 4.17157288,0.5 5,0.5 L6,0.5 C6.82842712,0.5 7.5,1.17157288 7.5,2 C7.5,2.82842712 6.82842712,3.5 6,3.5 L5,3.5 Z M16,3.5 C15.1715729,3.5 14.5,2.82842712 14.5,2 C14.5,1.17157288 15.1715729,0.5 16,0.5 L17,0.5 C17.8284271,0.5 18.5,1.17157288 18.5,2 C18.5,2.82842712 17.8284271,3.5 17,3.5 L16,3.5 Z M27,3.5 C26.1715729,3.5 25.5,2.82842712 25.5,2 C25.5,1.17157288 26.1715729,0.5 27,0.5 L28,0.5 C28.8284271,0.5 29.5,1.17157288 29.5,2 C29.5,2.82842712 28.8284271,3.5 28,3.5 L27,3.5 Z M38,3.5 C37.1715729,3.5 36.5,2.82842712 36.5,2 C36.5,1.17157288 37.1715729,0.5 38,0.5 L39,0.5 C39.8284271,0.5 40.5,1.17157288 40.5,2 C40.5,2.82842712 39.8284271,3.5 39,3.5 L38,3.5 Z M49,3.5 C48.1715729,3.5 47.5,2.82842712 47.5,2 C47.5,1.17157288 48.1715729,0.5 49,0.5 L50,0.5 C50.8284271,0.5 51.5,1.17157288 51.5,2 C51.5,2.82842712 50.8284271,3.5 50,3.5 L49,3.5 Z M60,3.5 C59.1715729,3.5 58.5,2.82842712 58.5,2 C58.5,1.17157288 59.1715729,0.5 60,0.5 L61,0.5 C61.8284271,0.5 62.5,1.17157288 62.5,2 C62.5,2.82842712 61.8284271,3.5 61,3.5 L60,3.5 Z M71,3.5 C70.1715729,3.5 69.5,2.82842712 69.5,2 C69.5,1.17157288 70.1715729,0.5 71,0.5 L72,0.5 C72.8284271,0.5 73.5,1.17157288 73.5,2 C73.5,2.82842712 72.8284271,3.5 72,3.5 L71,3.5 Z M82,3.5 C81.1715729,3.5 80.5,2.82842712 80.5,2 C80.5,1.17157288 81.1715729,0.5 82,0.5 L83,0.5 C83.8284271,0.5 84.5,1.17157288 84.5,2 C84.5,2.82842712 83.8284271,3.5 83,3.5 L82,3.5 Z M93,3.5 C92.1715729,3.5 91.5,2.82842712 91.5,2 C91.5,1.17157288 92.1715729,0.5 93,0.5 L94,0.5 C94.8284271,0.5 95.5,1.17157288 95.5,2 C95.5,2.82842712 94.8284271,3.5 94,3.5 L93,3.5 Z M104,3.5 C103.171573,3.5 102.5,2.82842712 102.5,2 C102.5,1.17157288 103.171573,0.5 104,0.5 L105,0.5 C105.828427,0.5 106.5,1.17157288 106.5,2 C106.5,2.82842712 105.828427,3.5 105,3.5 L104,3.5 Z M115,3.5 C114.171573,3.5 113.5,2.82842712 113.5,2 C113.5,1.17157288 114.171573,0.5 115,0.5 L116,0.5 C116.828427,0.5 117.5,1.17157288 117.5,2 C117.5,2.82842712 116.828427,3.5 116,3.5 L115,3.5 Z M126,3.5 C125.171573,3.5 124.5,2.82842712 124.5,2 C124.5,1.17157288 125.171573,0.5 126,0.5 L127,0.5 C127.828427,0.5 128.5,1.17157288 128.5,2 C128.5,2.82842712 127.828427,3.5 127,3.5 L126,3.5 Z M137,3.5 C136.171573,3.5 135.5,2.82842712 135.5,2 C135.5,1.17157288 136.171573,0.5 137,0.5 L138,0.5 C138.828427,0.5 139.5,1.17157288 139.5,2 C139.5,2.82842712 138.828427,3.5 138,3.5 L137,3.5 Z M148,3.5 C147.171573,3.5 146.5,2.82842712 146.5,2 C146.5,1.17157288 147.171573,0.5 148,0.5 L149,0.5 C149.828427,0.5 150.5,1.17157288 150.5,2 C150.5,2.82842712 149.828427,3.5 149,3.5 L148,3.5 Z M159,3.5 C158.171573,3.5 157.5,2.82842712 157.5,2 C157.5,1.17157288 158.171573,0.5 159,0.5 L160,0.5 C160.828427,0.5 161.5,1.17157288 161.5,2 C161.5,2.82842712 160.828427,3.5 160,3.5 L159,3.5 Z M170,3.5 C169.171573,3.5 168.5,2.82842712 168.5,2 C168.5,1.17157288 169.171573,0.5 170,0.5 L171,0.5 C171.828427,0.5 172.5,1.17157288 172.5,2 C172.5,2.82842712 171.828427,3.5 171,3.5 L170,3.5 Z M181,3.5 C180.171573,3.5 179.5,2.82842712 179.5,2 C179.5,1.17157288 180.171573,0.5 181,0.5 L182,0.5 C182.828427,0.5 183.5,1.17157288 183.5,2 C183.5,2.82842712 182.828427,3.5 182,3.5 L181,3.5 Z M192,3.5 C191.171573,3.5 190.5,2.82842712 190.5,2 C190.5,1.17157288 191.171573,0.5 192,0.5 L193,0.5 C193.828427,0.5 194.5,1.17157288 194.5,2 C194.5,2.82842712 193.828427,3.5 193,3.5 L192,3.5 Z M203,3.5 C202.171573,3.5 201.5,2.82842712 201.5,2 C201.5,1.17157288 202.171573,0.5 203,0.5 L204,0.5 C204.828427,0.5 205.5,1.17157288 205.5,2 C205.5,2.82842712 204.828427,3.5 204,3.5 L203,3.5 Z M214,3.5 C213.171573,3.5 212.5,2.82842712 212.5,2 C212.5,1.17157288 213.171573,0.5 214,0.5 L215,0.5 C215.828427,0.5 216.5,1.17157288 216.5,2 C216.5,2.82842712 215.828427,3.5 215,3.5 L214,3.5 Z M225,3.5 C224.171573,3.5 223.5,2.82842712 223.5,2 C223.5,1.17157288 224.171573,0.5 225,0.5 L226,0.5 C226.828427,0.5 227.5,1.17157288 227.5,2 C227.5,2.82842712 226.828427,3.5 226,3.5 L225,3.5 Z M236,3.5 C235.171573,3.5 234.5,2.82842712 234.5,2 C234.5,1.17157288 235.171573,0.5 236,0.5 L237,0.5 C237.828427,0.5 238.5,1.17157288 238.5,2 C238.5,2.82842712 237.828427,3.5 237,3.5 L236,3.5 Z M247,3.5 C246.171573,3.5 245.5,2.82842712 245.5,2 C245.5,1.17157288 246.171573,0.5 247,0.5 L248,0.5 C248.828427,0.5 249.5,1.17157288 249.5,2 C249.5,2.82842712 248.828427,3.5 248,3.5 L247,3.5 Z M258,3.5 C257.171573,3.5 256.5,2.82842712 256.5,2 C256.5,1.17157288 257.171573,0.5 258,0.5 L259,0.5 C259.828427,0.5 260.5,1.17157288 260.5,2 C260.5,2.82842712 259.828427,3.5 259,3.5 L258,3.5 Z M269,3.5 C268.171573,3.5 267.5,2.82842712 267.5,2 C267.5,1.17157288 268.171573,0.5 269,0.5 L270,0.5 C270.828427,0.5 271.5,1.17157288 271.5,2 C271.5,2.82842712 270.828427,3.5 270,3.5 L269,3.5 Z M280,3.5 C279.171573,3.5 278.5,2.82842712 278.5,2 C278.5,1.17157288 279.171573,0.5 280,0.5 L281,0.5 C281.828427,0.5 282.5,1.17157288 282.5,2 C282.5,2.82842712 281.828427,3.5 281,3.5 L280,3.5 Z M291,3.5 C290.171573,3.5 289.5,2.82842712 289.5,2 C289.5,1.17157288 290.171573,0.5 291,0.5 L292,0.5 C292.828427,0.5 293.5,1.17157288 293.5,2 C293.5,2.82842712 292.828427,3.5 292,3.5 L291,3.5 Z M302,3.5 C301.171573,3.5 300.5,2.82842712 300.5,2 C300.5,1.17157288 301.171573,0.5 302,0.5 L303,0.5 C303.828427,0.5 304.5,1.17157288 304.5,2 C304.5,2.82842712 303.828427,3.5 303,3.5 L302,3.5 Z M313,3.5 C312.171573,3.5 311.5,2.82842712 311.5,2 C311.5,1.17157288 312.171573,0.5 313,0.5 L314,0.5 C314.828427,0.5 315.5,1.17157288 315.5,2 C315.5,2.82842712 314.828427,3.5 314,3.5 L313,3.5 Z M324,3.5 C323.171573,3.5 322.5,2.82842712 322.5,2 C322.5,1.17157288 323.171573,0.5 324,0.5 L325,0.5 C325.828427,0.5 326.5,1.17157288 326.5,2 C326.5,2.82842712 325.828427,3.5 325,3.5 L324,3.5 Z M335,3.5 C334.171573,3.5 333.5,2.82842712 333.5,2 C333.5,1.17157288 334.171573,0.5 335,0.5 L336,0.5 C336.828427,0.5 337.5,1.17157288 337.5,2 C337.5,2.82842712 336.828427,3.5 336,3.5 L335,3.5 Z M346,3.5 C345.171573,3.5 344.5,2.82842712 344.5,2 C344.5,1.17157288 345.171573,0.5 346,0.5 L347,0.5 C347.828427,0.5 348.5,1.17157288 348.5,2 C348.5,2.82842712 347.828427,3.5 347,3.5 L346,3.5 Z M357,3.5 C356.171573,3.5 355.5,2.82842712 355.5,2 C355.5,1.17157288 356.171573,0.5 357,0.5 L358,0.5 C358.828427,0.5 359.5,1.17157288 359.5,2 C359.5,2.82842712 358.828427,3.5 358,3.5 L357,3.5 Z M368,3.5 C367.171573,3.5 366.5,2.82842712 366.5,2 C366.5,1.17157288 367.171573,0.5 368,0.5 L369,0.5 C369.828427,0.5 370.5,1.17157288 370.5,2 C370.5,2.82842712 369.828427,3.5 369,3.5 L368,3.5 Z M379,3.5 C378.171573,3.5 377.5,2.82842712 377.5,2 C377.5,1.17157288 378.171573,0.5 379,0.5 L380,0.5 C380.828427,0.5 381.5,1.17157288 381.5,2 C381.5,2.82842712 380.828427,3.5 380,3.5 L379,3.5 Z M390,3.5 C389.171573,3.5 388.5,2.82842712 388.5,2 C388.5,1.17157288 389.171573,0.5 390,0.5 L391,0.5 C391.828427,0.5 392.5,1.17157288 392.5,2 C392.5,2.82842712 391.828427,3.5 391,3.5 L390,3.5 Z M400.834418,3.5047716 C400.011027,3.4135625 399.417476,2.6721328 399.508685,1.848742 C399.599894,1.02535121 400.341324,0.431800668 401.164715,0.523009768 C401.727866,0.58539144 402.264383,0.77327971 402.738829,1.06957135 C403.441491,1.50838473 403.655383,2.4337336 403.216569,3.13639591 C402.777756,3.83905823 401.852407,4.05295005 401.149745,3.61413668 C401.054604,3.5547209 400.947854,3.51733729 400.834418,3.5047716 Z M401.5,12.0538186 C401.5,11.2253915 402.171573,10.5538186 403,10.5538186 C403.828427,10.5538186 404.5,11.2253915 404.5,12.0538186 L404.5,13.0538186 C404.5,13.8822458 403.828427,14.5538186 403,14.5538186 C402.171573,14.5538186 401.5,13.8822458 401.5,13.0538186 L401.5,12.0538186 Z M401.5,23.0538186 C401.5,22.2253915 402.171573,21.5538186 403,21.5538186 C403.828427,21.5538186 404.5,22.2253915 404.5,23.0538186 L404.5,24.0538186 C404.5,24.8822458 403.828427,25.5538186 403,25.5538186 C402.171573,25.5538186 401.5,24.8822458 401.5,24.0538186 L401.5,23.0538186 Z M401.5,34.0538186 C401.5,33.2253915 402.171573,32.5538186 403,32.5538186 C403.828427,32.5538186 404.5,33.2253915 404.5,34.0538186 L404.5,35.0538186 C404.5,35.8822458 403.828427,36.5538186 403,36.5538186 C402.171573,36.5538186 401.5,35.8822458 401.5,35.0538186 L401.5,34.0538186 Z M401.5,45.0538186 C401.5,44.2253915 402.171573,43.5538186 403,43.5538186 C403.828427,43.5538186 404.5,44.2253915 404.5,45.0538186 L404.5,46.0538186 C404.5,46.8822458 403.828427,47.5538186 403,47.5538186 C402.171573,47.5538186 401.5,46.8822458 401.5,46.0538186 L401.5,45.0538186 Z M401.5,56.0538186 C401.5,55.2253915 402.171573,54.5538186 403,54.5538186 C403.828427,54.5538186 404.5,55.2253915 404.5,56.0538186 L404.5,57.0538186 C404.5,57.8822458 403.828427,58.5538186 403,58.5538186 C402.171573,58.5538186 401.5,57.8822458 401.5,57.0538186 L401.5,56.0538186 Z M401.5,67.0538186 C401.5,66.2253915 402.171573,65.5538186 403,65.5538186 C403.828427,65.5538186 404.5,66.2253915 404.5,67.0538186 L404.5,68.0538186 C404.5,68.8822458 403.828427,69.5538186 403,69.5538186 C402.171573,69.5538186 401.5,68.8822458 401.5,68.0538186 L401.5,67.0538186 Z M401.5,78.0538186 C401.5,77.2253915 402.171573,76.5538186 403,76.5538186 C403.828427,76.5538186 404.5,77.2253915 404.5,78.0538186 L404.5,79.0538186 C404.5,79.8822458 403.828427,80.5538186 403,80.5538186 C402.171573,80.5538186 401.5,79.8822458 401.5,79.0538186 L401.5,78.0538186 Z M401.5,89.0538186 C401.5,88.2253915 402.171573,87.5538186 403,87.5538186 C403.828427,87.5538186 404.5,88.2253915 404.5,89.0538186 L404.5,90.0538186 C404.5,90.8822458 403.828427,91.5538186 403,91.5538186 C402.171573,91.5538186 401.5,90.8822458 401.5,90.0538186 L401.5,89.0538186 Z M401.5,100.053819 C401.5,99.2253915 402.171573,98.5538186 403,98.5538186 C403.828427,98.5538186 404.5,99.2253915 404.5,100.053819 L404.5,101.053819 C404.5,101.882246 403.828427,102.553819 403,102.553819 C402.171573,102.553819 401.5,101.882246 401.5,101.053819 L401.5,100.053819 Z M401.5,111.053819 C401.5,110.225392 402.171573,109.553819 403,109.553819 C403.828427,109.553819 404.5,110.225392 404.5,111.053819 L404.5,112.053819 C404.5,112.882246 403.828427,113.553819 403,113.553819 C402.171573,113.553819 401.5,112.882246 401.5,112.053819 L401.5,111.053819 Z M401.5,122.053819 C401.5,121.225392 402.171573,120.553819 403,120.553819 C403.828427,120.553819 404.5,121.225392 404.5,122.053819 L404.5,123.053819 C404.5,123.882246 403.828427,124.553819 403,124.553819 C402.171573,124.553819 401.5,123.882246 401.5,123.053819 L401.5,122.053819 Z M400.729251,130.336888 C401.557678,130.336888 402.229251,131.008461 402.229251,131.836888 C402.229251,132.665315 401.557678,133.336888 400.729251,133.336888 L399.729251,133.336888 C398.900824,133.336888 398.229251,132.665315 398.229251,131.836888 C398.229251,131.008461 398.900824,130.336888 399.729251,130.336888 L400.729251,130.336888 Z M389.729251,130.336888 C390.557678,130.336888 391.229251,131.008461 391.229251,131.836888 C391.229251,132.665315 390.557678,133.336888 389.729251,133.336888 L388.729251,133.336888 C387.900824,133.336888 387.229251,132.665315 387.229251,131.836888 C387.229251,131.008461 387.900824,130.336888 388.729251,130.336888 L389.729251,130.336888 Z M378.729251,130.336888 C379.557678,130.336888 380.229251,131.008461 380.229251,131.836888 C380.229251,132.665315 379.557678,133.336888 378.729251,133.336888 L377.729251,133.336888 C376.900824,133.336888 376.229251,132.665315 376.229251,131.836888 C376.229251,131.008461 376.900824,130.336888 377.729251,130.336888 L378.729251,130.336888 Z M367.729251,130.336888 C368.557678,130.336888 369.229251,131.008461 369.229251,131.836888 C369.229251,132.665315 368.557678,133.336888 367.729251,133.336888 L366.729251,133.336888 C365.900824,133.336888 365.229251,132.665315 365.229251,131.836888 C365.229251,131.008461 365.900824,130.336888 366.729251,130.336888 L367.729251,130.336888 Z M356.729251,130.336888 C357.557678,130.336888 358.229251,131.008461 358.229251,131.836888 C358.229251,132.665315 357.557678,133.336888 356.729251,133.336888 L355.729251,133.336888 C354.900824,133.336888 354.229251,132.665315 354.229251,131.836888 C354.229251,131.008461 354.900824,130.336888 355.729251,130.336888 L356.729251,130.336888 Z M345.729251,130.336888 C346.557678,130.336888 347.229251,131.008461 347.229251,131.836888 C347.229251,132.665315 346.557678,133.336888 345.729251,133.336888 L344.729251,133.336888 C343.900824,133.336888 343.229251,132.665315 343.229251,131.836888 C343.229251,131.008461 343.900824,130.336888 344.729251,130.336888 L345.729251,130.336888 Z M334.729251,130.336888 C335.557678,130.336888 336.229251,131.008461 336.229251,131.836888 C336.229251,132.665315 335.557678,133.336888 334.729251,133.336888 L333.729251,133.336888 C332.900824,133.336888 332.229251,132.665315 332.229251,131.836888 C332.229251,131.008461 332.900824,130.336888 333.729251,130.336888 L334.729251,130.336888 Z M323.729251,130.336888 C324.557678,130.336888 325.229251,131.008461 325.229251,131.836888 C325.229251,132.665315 324.557678,133.336888 323.729251,133.336888 L322.729251,133.336888 C321.900824,133.336888 321.229251,132.665315 321.229251,131.836888 C321.229251,131.008461 321.900824,130.336888 322.729251,130.336888 L323.729251,130.336888 Z M312.729251,130.336888 C313.557678,130.336888 314.229251,131.008461 314.229251,131.836888 C314.229251,132.665315 313.557678,133.336888 312.729251,133.336888 L311.729251,133.336888 C310.900824,133.336888 310.229251,132.665315 310.229251,131.836888 C310.229251,131.008461 310.900824,130.336888 311.729251,130.336888 L312.729251,130.336888 Z M301.729251,130.336888 C302.557678,130.336888 303.229251,131.008461 303.229251,131.836888 C303.229251,132.665315 302.557678,133.336888 301.729251,133.336888 L300.729251,133.336888 C299.900824,133.336888 299.229251,132.665315 299.229251,131.836888 C299.229251,131.008461 299.900824,130.336888 300.729251,130.336888 L301.729251,130.336888 Z M290.729251,130.336888 C291.557678,130.336888 292.229251,131.008461 292.229251,131.836888 C292.229251,132.665315 291.557678,133.336888 290.729251,133.336888 L289.729251,133.336888 C288.900824,133.336888 288.229251,132.665315 288.229251,131.836888 C288.229251,131.008461 288.900824,130.336888 289.729251,130.336888 L290.729251,130.336888 Z M279.729251,130.336888 C280.557678,130.336888 281.229251,131.008461 281.229251,131.836888 C281.229251,132.665315 280.557678,133.336888 279.729251,133.336888 L278.729251,133.336888 C277.900824,133.336888 277.229251,132.665315 277.229251,131.836888 C277.229251,131.008461 277.900824,130.336888 278.729251,130.336888 L279.729251,130.336888 Z M268.729251,130.336888 C269.557678,130.336888 270.229251,131.008461 270.229251,131.836888 C270.229251,132.665315 269.557678,133.336888 268.729251,133.336888 L267.729251,133.336888 C266.900824,133.336888 266.229251,132.665315 266.229251,131.836888 C266.229251,131.008461 266.900824,130.336888 267.729251,130.336888 L268.729251,130.336888 Z M257.729251,130.336888 C258.557678,130.336888 259.229251,131.008461 259.229251,131.836888 C259.229251,132.665315 258.557678,133.336888 257.729251,133.336888 L256.729251,133.336888 C255.900824,133.336888 255.229251,132.665315 255.229251,131.836888 C255.229251,131.008461 255.900824,130.336888 256.729251,130.336888 L257.729251,130.336888 Z M246.729251,130.336888 C247.557678,130.336888 248.229251,131.008461 248.229251,131.836888 C248.229251,132.665315 247.557678,133.336888 246.729251,133.336888 L245.729251,133.336888 C244.900824,133.336888 244.229251,132.665315 244.229251,131.836888 C244.229251,131.008461 244.900824,130.336888 245.729251,130.336888 L246.729251,130.336888 Z M235.729251,130.336888 C236.557678,130.336888 237.229251,131.008461 237.229251,131.836888 C237.229251,132.665315 236.557678,133.336888 235.729251,133.336888 L234.729251,133.336888 C233.900824,133.336888 233.229251,132.665315 233.229251,131.836888 C233.229251,131.008461 233.900824,130.336888 234.729251,130.336888 L235.729251,130.336888 Z M224.729251,130.336888 C225.557678,130.336888 226.229251,131.008461 226.229251,131.836888 C226.229251,132.665315 225.557678,133.336888 224.729251,133.336888 L223.729251,133.336888 C222.900824,133.336888 222.229251,132.665315 222.229251,131.836888 C222.229251,131.008461 222.900824,130.336888 223.729251,130.336888 L224.729251,130.336888 Z M213.729251,130.336888 C214.557678,130.336888 215.229251,131.008461 215.229251,131.836888 C215.229251,132.665315 214.557678,133.336888 213.729251,133.336888 L212.729251,133.336888 C211.900824,133.336888 211.229251,132.665315 211.229251,131.836888 C211.229251,131.008461 211.900824,130.336888 212.729251,130.336888 L213.729251,130.336888 Z M202.729251,130.336888 C203.557678,130.336888 204.229251,131.008461 204.229251,131.836888 C204.229251,132.665315 203.557678,133.336888 202.729251,133.336888 L201.729251,133.336888 C200.900824,133.336888 200.229251,132.665315 200.229251,131.836888 C200.229251,131.008461 200.900824,130.336888 201.729251,130.336888 L202.729251,130.336888 Z M191.729251,130.336888 C192.557678,130.336888 193.229251,131.008461 193.229251,131.836888 C193.229251,132.665315 192.557678,133.336888 191.729251,133.336888 L190.729251,133.336888 C189.900824,133.336888 189.229251,132.665315 189.229251,131.836888 C189.229251,131.008461 189.900824,130.336888 190.729251,130.336888 L191.729251,130.336888 Z M180.729251,130.336888 C181.557678,130.336888 182.229251,131.008461 182.229251,131.836888 C182.229251,132.665315 181.557678,133.336888 180.729251,133.336888 L179.729251,133.336888 C178.900824,133.336888 178.229251,132.665315 178.229251,131.836888 C178.229251,131.008461 178.900824,130.336888 179.729251,130.336888 L180.729251,130.336888 Z M169.729251,130.336888 C170.557678,130.336888 171.229251,131.008461 171.229251,131.836888 C171.229251,132.665315 170.557678,133.336888 169.729251,133.336888 L168.729251,133.336888 C167.900824,133.336888 167.229251,132.665315 167.229251,131.836888 C167.229251,131.008461 167.900824,130.336888 168.729251,130.336888 L169.729251,130.336888 Z M158.729251,130.336888 C159.557678,130.336888 160.229251,131.008461 160.229251,131.836888 C160.229251,132.665315 159.557678,133.336888 158.729251,133.336888 L157.729251,133.336888 C156.900824,133.336888 156.229251,132.665315 156.229251,131.836888 C156.229251,131.008461 156.900824,130.336888 157.729251,130.336888 L158.729251,130.336888 Z M147.729251,130.336888 C148.557678,130.336888 149.229251,131.008461 149.229251,131.836888 C149.229251,132.665315 148.557678,133.336888 147.729251,133.336888 L146.729251,133.336888 C145.900824,133.336888 145.229251,132.665315 145.229251,131.836888 C145.229251,131.008461 145.900824,130.336888 146.729251,130.336888 L147.729251,130.336888 Z M136.729251,130.336888 C137.557678,130.336888 138.229251,131.008461 138.229251,131.836888 C138.229251,132.665315 137.557678,133.336888 136.729251,133.336888 L135.729251,133.336888 C134.900824,133.336888 134.229251,132.665315 134.229251,131.836888 C134.229251,131.008461 134.900824,130.336888 135.729251,130.336888 L136.729251,130.336888 Z M125.729251,130.336888 C126.557678,130.336888 127.229251,131.008461 127.229251,131.836888 C127.229251,132.665315 126.557678,133.336888 125.729251,133.336888 L124.729251,133.336888 C123.900824,133.336888 123.229251,132.665315 123.229251,131.836888 C123.229251,131.008461 123.900824,130.336888 124.729251,130.336888 L125.729251,130.336888 Z M114.729251,130.336888 C115.557678,130.336888 116.229251,131.008461 116.229251,131.836888 C116.229251,132.665315 115.557678,133.336888 114.729251,133.336888 L113.729251,133.336888 C112.900824,133.336888 112.229251,132.665315 112.229251,131.836888 C112.229251,131.008461 112.900824,130.336888 113.729251,130.336888 L114.729251,130.336888 Z M103.729251,130.336888 C104.557678,130.336888 105.229251,131.008461 105.229251,131.836888 C105.229251,132.665315 104.557678,133.336888 103.729251,133.336888 L102.729251,133.336888 C101.900824,133.336888 101.229251,132.665315 101.229251,131.836888 C101.229251,131.008461 101.900824,130.336888 102.729251,130.336888 L103.729251,130.336888 Z M92.729251,130.336888 C93.5576782,130.336888 94.229251,131.008461 94.229251,131.836888 C94.229251,132.665315 93.5576782,133.336888 92.729251,133.336888 L91.729251,133.336888 C90.9008239,133.336888 90.229251,132.665315 90.229251,131.836888 C90.229251,131.008461 90.9008239,130.336888 91.729251,130.336888 L92.729251,130.336888 Z M81.729251,130.336888 C82.5576782,130.336888 83.229251,131.008461 83.229251,131.836888 C83.229251,132.665315 82.5576782,133.336888 81.729251,133.336888 L80.729251,133.336888 C79.9008239,133.336888 79.229251,132.665315 79.229251,131.836888 C79.229251,131.008461 79.9008239,130.336888 80.729251,130.336888 L81.729251,130.336888 Z M70.729251,130.336888 C71.5576782,130.336888 72.229251,131.008461 72.229251,131.836888 C72.229251,132.665315 71.5576782,133.336888 70.729251,133.336888 L69.729251,133.336888 C68.9008239,133.336888 68.229251,132.665315 68.229251,131.836888 C68.229251,131.008461 68.9008239,130.336888 69.729251,130.336888 L70.729251,130.336888 Z M59.729251,130.336888 C60.5576782,130.336888 61.229251,131.008461 61.229251,131.836888 C61.229251,132.665315 60.5576782,133.336888 59.729251,133.336888 L58.729251,133.336888 C57.9008239,133.336888 57.229251,132.665315 57.229251,131.836888 C57.229251,131.008461 57.9008239,130.336888 58.729251,130.336888 L59.729251,130.336888 Z M48.729251,130.336888 C49.5576782,130.336888 50.229251,131.008461 50.229251,131.836888 C50.229251,132.665315 49.5576782,133.336888 48.729251,133.336888 L47.729251,133.336888 C46.9008239,133.336888 46.229251,132.665315 46.229251,131.836888 C46.229251,131.008461 46.9008239,130.336888 47.729251,130.336888 L48.729251,130.336888 Z M37.729251,130.336888 C38.5576782,130.336888 39.229251,131.008461 39.229251,131.836888 C39.229251,132.665315 38.5576782,133.336888 37.729251,133.336888 L36.729251,133.336888 C35.9008239,133.336888 35.229251,132.665315 35.229251,131.836888 C35.229251,131.008461 35.9008239,130.336888 36.729251,130.336888 L37.729251,130.336888 Z M26.729251,130.336888 C27.5576782,130.336888 28.229251,131.008461 28.229251,131.836888 C28.229251,132.665315 27.5576782,133.336888 26.729251,133.336888 L25.729251,133.336888 C24.9008239,133.336888 24.229251,132.665315 24.229251,131.836888 C24.229251,131.008461 24.9008239,130.336888 25.729251,130.336888 L26.729251,130.336888 Z M15.729251,130.336888 C16.5576782,130.336888 17.229251,131.008461 17.229251,131.836888 C17.229251,132.665315 16.5576782,133.336888 15.729251,133.336888 L14.729251,133.336888 C13.9008239,133.336888 13.229251,132.665315 13.229251,131.836888 C13.229251,131.008461 13.9008239,130.336888 14.729251,130.336888 L15.729251,130.336888 Z M3.63797881e-12,11.5 C3.63797881e-12,10.6715729 0.671572875,10 1.5,10 C2.32842712,10 3,10.6715729 3,11.5 L3,12.5 C3,13.3284271 2.32842712,14 1.5,14 C0.671572875,14 3.63797881e-12,13.3284271 3.63797881e-12,12.5 L3.63797881e-12,11.5 Z M3.63797881e-12,22.5 C3.63797881e-12,21.6715729 0.671572875,21 1.5,21 C2.32842712,21 3,21.6715729 3,22.5 L3,23.5 C3,24.3284271 2.32842712,25 1.5,25 C0.671572875,25 3.63797881e-12,24.3284271 3.63797881e-12,23.5 L3.63797881e-12,22.5 Z M3.63797881e-12,33.5 C3.63797881e-12,32.6715729 0.671572875,32 1.5,32 C2.32842712,32 3,32.6715729 3,33.5 L3,34.5 C3,35.3284271 2.32842712,36 1.5,36 C0.671572875,36 3.63797881e-12,35.3284271 3.63797881e-12,34.5 L3.63797881e-12,33.5 Z M3.63797881e-12,44.5 C3.63797881e-12,43.6715729 0.671572875,43 1.5,43 C2.32842712,43 3,43.6715729 3,44.5 L3,45.5 C3,46.3284271 2.32842712,47 1.5,47 C0.671572875,47 3.63797881e-12,46.3284271 3.63797881e-12,45.5 L3.63797881e-12,44.5 Z M3.63797881e-12,55.5 C3.63797881e-12,54.6715729 0.671572875,54 1.5,54 C2.32842712,54 3,54.6715729 3,55.5 L3,56.5 C3,57.3284271 2.32842712,58 1.5,58 C0.671572875,58 3.63797881e-12,57.3284271 3.63797881e-12,56.5 L3.63797881e-12,55.5 Z M3.63797881e-12,66.5 C3.63797881e-12,65.6715729 0.671572875,65 1.5,65 C2.32842712,65 3,65.6715729 3,66.5 L3,67.5 C3,68.3284271 2.32842712,69 1.5,69 C0.671572875,69 3.63797881e-12,68.3284271 3.63797881e-12,67.5 L3.63797881e-12,66.5 Z M3.63797881e-12,77.5 C3.63797881e-12,76.6715729 0.671572875,76 1.5,76 C2.32842712,76 3,76.6715729 3,77.5 L3,78.5 C3,79.3284271 2.32842712,80 1.5,80 C0.671572875,80 3.63797881e-12,79.3284271 3.63797881e-12,78.5 L3.63797881e-12,77.5 Z M3.63797881e-12,88.5 C3.63797881e-12,87.6715729 0.671572875,87 1.5,87 C2.32842712,87 3,87.6715729 3,88.5 L3,89.5 C3,90.3284271 2.32842712,91 1.5,91 C0.671572875,91 3.63797881e-12,90.3284271 3.63797881e-12,89.5 L3.63797881e-12,88.5 Z M3.63797881e-12,99.5 C3.63797881e-12,98.6715729 0.671572875,98 1.5,98 C2.32842712,98 3,98.6715729 3,99.5 L3,100.5 C3,101.328427 2.32842712,102 1.5,102 C0.671572875,102 3.63797881e-12,101.328427 3.63797881e-12,100.5 L3.63797881e-12,99.5 Z M3.63797881e-12,110.5 C3.63797881e-12,109.671573 0.671572875,109 1.5,109 C2.32842712,109 3,109.671573 3,110.5 L3,111.5 C3,112.328427 2.32842712,113 1.5,113 C0.671572875,113 3.63797881e-12,112.328427 3.63797881e-12,111.5 L3.63797881e-12,110.5 Z M3.63797881e-12,121.5 C3.63797881e-12,120.671573 0.671572875,120 1.5,120 C2.32842712,120 3,120.671573 3,121.5 L3,122.5 C3,123.328427 2.32842712,124 1.5,124 C0.671572875,124 3.63797881e-12,123.328427 3.63797881e-12,122.5 L3.63797881e-12,121.5 Z M4.5,130.5 L5,130.5 C5.82842712,130.5 6.5,131.171573 6.5,132 C6.5,132.828427 5.82842712,133.5 5,133.5 L4.5,133.5 C3.67157288,133.5 3,132.828427 3,132 C3,131.171573 3.67157288,130.5 4.5,130.5 Z" id="Border_2edFloor_2" fill="#FE791A" fill-rule="nonzero"></path>
    </g>
</svg>