<?xml version="1.0" encoding="UTF-8" standalone="no"?>
<svg width="255px" height="168px" viewBox="0 0 255 168" version="1.1" xmlns="http://www.w3.org/2000/svg" xmlns:xlink="http://www.w3.org/1999/xlink">
    <!-- Generator: Sketch 50 (54983) - http://www.bohemiancoding.com/sketch -->
    <title>Border_Branch_2</title>
    <desc>Created with Sketch.</desc>
    <defs></defs>
    <g id="Page-1" stroke="none" stroke-width="1" fill="none" fill-rule="evenodd">
        <path d="M3.4,3.5 C2.57157288,3.5 1.9,2.82842712 1.9,2 C1.9,1.17157288 2.57157288,0.5 3.4,0.5 L4.4,0.5 C5.22842712,0.5 5.9,1.17157288 5.9,2 C5.9,2.82842712 5.22842712,3.5 4.4,3.5 L3.4,3.5 Z M14.4,3.5 C13.5715729,3.5 12.9,2.82842712 12.9,2 C12.9,1.17157288 13.5715729,0.5 14.4,0.5 L15.4,0.5 C16.2284271,0.5 16.9,1.17157288 16.9,2 C16.9,2.82842712 16.2284271,3.5 15.4,3.5 L14.4,3.5 Z M25.4,3.5 C24.5715729,3.5 23.9,2.82842712 23.9,2 C23.9,1.17157288 24.5715729,0.5 25.4,0.5 L26.4,0.5 C27.2284271,0.5 27.9,1.17157288 27.9,2 C27.9,2.82842712 27.2284271,3.5 26.4,3.5 L25.4,3.5 Z M36.4,3.5 C35.5715729,3.5 34.9,2.82842712 34.9,2 C34.9,1.17157288 35.5715729,0.5 36.4,0.5 L37.4,0.5 C38.2284271,0.5 38.9,1.17157288 38.9,2 C38.9,2.82842712 38.2284271,3.5 37.4,3.5 L36.4,3.5 Z M47.4,3.5 C46.5715729,3.5 45.9,2.82842712 45.9,2 C45.9,1.17157288 46.5715729,0.5 47.4,0.5 L48.4,0.5 C49.2284271,0.5 49.9,1.17157288 49.9,2 C49.9,2.82842712 49.2284271,3.5 48.4,3.5 L47.4,3.5 Z M58.4,3.5 C57.5715729,3.5 56.9,2.82842712 56.9,2 C56.9,1.17157288 57.5715729,0.5 58.4,0.5 L59.4,0.5 C60.2284271,0.5 60.9,1.17157288 60.9,2 C60.9,2.82842712 60.2284271,3.5 59.4,3.5 L58.4,3.5 Z M69.4,3.5 C68.5715729,3.5 67.9,2.82842712 67.9,2 C67.9,1.17157288 68.5715729,0.5 69.4,0.5 L70.4,0.5 C71.2284271,0.5 71.9,1.17157288 71.9,2 C71.9,2.82842712 71.2284271,3.5 70.4,3.5 L69.4,3.5 Z M80.4,3.5 C79.5715729,3.5 78.9,2.82842712 78.9,2 C78.9,1.17157288 79.5715729,0.5 80.4,0.5 L81.4,0.5 C82.2284271,0.5 82.9,1.17157288 82.9,2 C82.9,2.82842712 82.2284271,3.5 81.4,3.5 L80.4,3.5 Z M91.4,3.5 C90.5715729,3.5 89.9,2.82842712 89.9,2 C89.9,1.17157288 90.5715729,0.5 91.4,0.5 L92.4,0.5 C93.2284271,0.5 93.9,1.17157288 93.9,2 C93.9,2.82842712 93.2284271,3.5 92.4,3.5 L91.4,3.5 Z M102.4,3.5 C101.571573,3.5 100.9,2.82842712 100.9,2 C100.9,1.17157288 101.571573,0.5 102.4,0.5 L103.4,0.5 C104.228427,0.5 104.9,1.17157288 104.9,2 C104.9,2.82842712 104.228427,3.5 103.4,3.5 L102.4,3.5 Z M113.4,3.5 C112.571573,3.5 111.9,2.82842712 111.9,2 C111.9,1.17157288 112.571573,0.5 113.4,0.5 L114.4,0.5 C115.228427,0.5 115.9,1.17157288 115.9,2 C115.9,2.82842712 115.228427,3.5 114.4,3.5 L113.4,3.5 Z M124.4,3.5 C123.571573,3.5 122.9,2.82842712 122.9,2 C122.9,1.17157288 123.571573,0.5 124.4,0.5 L125.4,0.5 C126.228427,0.5 126.9,1.17157288 126.9,2 C126.9,2.82842712 126.228427,3.5 125.4,3.5 L124.4,3.5 Z M135.4,3.5 C134.571573,3.5 133.9,2.82842712 133.9,2 C133.9,1.17157288 134.571573,0.5 135.4,0.5 L136.4,0.5 C137.228427,0.5 137.9,1.17157288 137.9,2 C137.9,2.82842712 137.228427,3.5 136.4,3.5 L135.4,3.5 Z M146.4,3.5 C145.571573,3.5 144.9,2.82842712 144.9,2 C144.9,1.17157288 145.571573,0.5 146.4,0.5 L147.4,0.5 C148.228427,0.5 148.9,1.17157288 148.9,2 C148.9,2.82842712 148.228427,3.5 147.4,3.5 L146.4,3.5 Z M157.4,3.5 C156.571573,3.5 155.9,2.82842712 155.9,2 C155.9,1.17157288 156.571573,0.5 157.4,0.5 L158.4,0.5 C159.228427,0.5 159.9,1.17157288 159.9,2 C159.9,2.82842712 159.228427,3.5 158.4,3.5 L157.4,3.5 Z M168.4,3.5 C167.571573,3.5 166.9,2.82842712 166.9,2 C166.9,1.17157288 167.571573,0.5 168.4,0.5 L169.4,0.5 C170.228427,0.5 170.9,1.17157288 170.9,2 C170.9,2.82842712 170.228427,3.5 169.4,3.5 L168.4,3.5 Z M179.4,3.5 C178.571573,3.5 177.9,2.82842712 177.9,2 C177.9,1.17157288 178.571573,0.5 179.4,0.5 L180.4,0.5 C181.228427,0.5 181.9,1.17157288 181.9,2 C181.9,2.82842712 181.228427,3.5 180.4,3.5 L179.4,3.5 Z M190.4,3.5 C189.571573,3.5 188.9,2.82842712 188.9,2 C188.9,1.17157288 189.571573,0.5 190.4,0.5 L191.4,0.5 C192.228427,0.5 192.9,1.17157288 192.9,2 C192.9,2.82842712 192.228427,3.5 191.4,3.5 L190.4,3.5 Z M201.4,3.5 C200.571573,3.5 199.9,2.82842712 199.9,2 C199.9,1.17157288 200.571573,0.5 201.4,0.5 L202.4,0.5 C203.228427,0.5 203.9,1.17157288 203.9,2 C203.9,2.82842712 203.228427,3.5 202.4,3.5 L201.4,3.5 Z M212.4,3.5 C211.571573,3.5 210.9,2.82842712 210.9,2 C210.9,1.17157288 211.571573,0.5 212.4,0.5 L213.4,0.5 C214.228427,0.5 214.9,1.17157288 214.9,2 C214.9,2.82842712 214.228427,3.5 213.4,3.5 L212.4,3.5 Z M223.4,3.5 C222.571573,3.5 221.9,2.82842712 221.9,2 C221.9,1.17157288 222.571573,0.5 223.4,0.5 L224.4,0.5 C225.228427,0.5 225.9,1.17157288 225.9,2 C225.9,2.82842712 225.228427,3.5 224.4,3.5 L223.4,3.5 Z M234.4,3.5 C233.571573,3.5 232.9,2.82842712 232.9,2 C232.9,1.17157288 233.571573,0.5 234.4,0.5 L235.4,0.5 C236.228427,0.5 236.9,1.17157288 236.9,2 C236.9,2.82842712 236.228427,3.5 235.4,3.5 L234.4,3.5 Z M245.4,3.5 C244.571573,3.5 243.9,2.82842712 243.9,2 C243.9,1.17157288 244.571573,0.5 245.4,0.5 L246.4,0.5 C247.228427,0.5 247.9,1.17157288 247.9,2 C247.9,2.82842712 247.228427,3.5 246.4,3.5 L245.4,3.5 Z M251.5,6.22010101 C251.5,5.39167389 252.171573,4.72010101 253,4.72010101 C253.828427,4.72010101 254.5,5.39167389 254.5,6.22010101 L254.5,7.22010101 C254.5,8.04852814 253.828427,8.72010101 253,8.72010101 C252.171573,8.72010101 251.5,8.04852814 251.5,7.22010101 L251.5,6.22010101 Z M251.5,17.220101 C251.5,16.3916739 252.171573,15.720101 253,15.720101 C253.828427,15.720101 254.5,16.3916739 254.5,17.220101 L254.5,18.220101 C254.5,19.0485281 253.828427,19.720101 253,19.720101 C252.171573,19.720101 251.5,19.0485281 251.5,18.220101 L251.5,17.220101 Z M251.5,28.220101 C251.5,27.3916739 252.171573,26.720101 253,26.720101 C253.828427,26.720101 254.5,27.3916739 254.5,28.220101 L254.5,29.220101 C254.5,30.0485281 253.828427,30.720101 253,30.720101 C252.171573,30.720101 251.5,30.0485281 251.5,29.220101 L251.5,28.220101 Z M251.5,39.220101 C251.5,38.3916739 252.171573,37.720101 253,37.720101 C253.828427,37.720101 254.5,38.3916739 254.5,39.220101 L254.5,40.220101 C254.5,41.0485281 253.828427,41.720101 253,41.720101 C252.171573,41.720101 251.5,41.0485281 251.5,40.220101 L251.5,39.220101 Z M251.5,50.220101 C251.5,49.3916739 252.171573,48.720101 253,48.720101 C253.828427,48.720101 254.5,49.3916739 254.5,50.220101 L254.5,51.220101 C254.5,52.0485281 253.828427,52.720101 253,52.720101 C252.171573,52.720101 251.5,52.0485281 251.5,51.220101 L251.5,50.220101 Z M251.5,61.220101 C251.5,60.3916739 252.171573,59.720101 253,59.720101 C253.828427,59.720101 254.5,60.3916739 254.5,61.220101 L254.5,62.220101 C254.5,63.0485281 253.828427,63.720101 253,63.720101 C252.171573,63.720101 251.5,63.0485281 251.5,62.220101 L251.5,61.220101 Z M251.5,72.220101 C251.5,71.3916739 252.171573,70.720101 253,70.720101 C253.828427,70.720101 254.5,71.3916739 254.5,72.220101 L254.5,73.220101 C254.5,74.0485281 253.828427,74.720101 253,74.720101 C252.171573,74.720101 251.5,74.0485281 251.5,73.220101 L251.5,72.220101 Z M251.5,83.220101 C251.5,82.3916739 252.171573,81.720101 253,81.720101 C253.828427,81.720101 254.5,82.3916739 254.5,83.220101 L254.5,84.220101 C254.5,85.0485281 253.828427,85.720101 253,85.720101 C252.171573,85.720101 251.5,85.0485281 251.5,84.220101 L251.5,83.220101 Z M251.5,94.220101 C251.5,93.3916739 252.171573,92.720101 253,92.720101 C253.828427,92.720101 254.5,93.3916739 254.5,94.220101 L254.5,95.220101 C254.5,96.0485281 253.828427,96.720101 253,96.720101 C252.171573,96.720101 251.5,96.0485281 251.5,95.220101 L251.5,94.220101 Z M251.5,105.220101 C251.5,104.391674 252.171573,103.720101 253,103.720101 C253.828427,103.720101 254.5,104.391674 254.5,105.220101 L254.5,106.220101 C254.5,107.048528 253.828427,107.720101 253,107.720101 C252.171573,107.720101 251.5,107.048528 251.5,106.220101 L251.5,105.220101 Z M251.5,116.220101 C251.5,115.391674 252.171573,114.720101 253,114.720101 C253.828427,114.720101 254.5,115.391674 254.5,116.220101 L254.5,117.220101 C254.5,118.048528 253.828427,118.720101 253,118.720101 C252.171573,118.720101 251.5,118.048528 251.5,117.220101 L251.5,116.220101 Z M251.5,127.220101 C251.5,126.391674 252.171573,125.720101 253,125.720101 C253.828427,125.720101 254.5,126.391674 254.5,127.220101 L254.5,128.220101 C254.5,129.048528 253.828427,129.720101 253,129.720101 C252.171573,129.720101 251.5,129.048528 251.5,128.220101 L251.5,127.220101 Z M251.5,138.220101 C251.5,137.391674 252.171573,136.720101 253,136.720101 C253.828427,136.720101 254.5,137.391674 254.5,138.220101 L254.5,139.220101 C254.5,140.048528 253.828427,140.720101 253,140.720101 C252.171573,140.720101 251.5,140.048528 251.5,139.220101 L251.5,138.220101 Z M251.5,149.220101 C251.5,148.391674 252.171573,147.720101 253,147.720101 C253.828427,147.720101 254.5,148.391674 254.5,149.220101 L254.5,150.220101 C254.5,151.048528 253.828427,151.720101 253,151.720101 C252.171573,151.720101 251.5,151.048528 251.5,150.220101 L251.5,149.220101 Z M251.5,160.220101 C251.5,159.391674 252.171573,158.720101 253,158.720101 C253.828427,158.720101 254.5,159.391674 254.5,160.220101 L254.5,161.220101 C254.5,162.048528 253.828427,162.720101 253,162.720101 C252.171573,162.720101 251.5,162.048528 251.5,161.220101 L251.5,160.220101 Z M246.959798,164.5 C247.788225,164.5 248.459798,165.171573 248.459798,166 C248.459798,166.828427 247.788225,167.5 246.959798,167.5 L245.959798,167.5 C245.131371,167.5 244.459798,166.828427 244.459798,166 C244.459798,165.171573 245.131371,164.5 245.959798,164.5 L246.959798,164.5 Z M235.959798,164.5 C236.788225,164.5 237.459798,165.171573 237.459798,166 C237.459798,166.828427 236.788225,167.5 235.959798,167.5 L234.959798,167.5 C234.131371,167.5 233.459798,166.828427 233.459798,166 C233.459798,165.171573 234.131371,164.5 234.959798,164.5 L235.959798,164.5 Z M224.959798,164.5 C225.788225,164.5 226.459798,165.171573 226.459798,166 C226.459798,166.828427 225.788225,167.5 224.959798,167.5 L223.959798,167.5 C223.131371,167.5 222.459798,166.828427 222.459798,166 C222.459798,165.171573 223.131371,164.5 223.959798,164.5 L224.959798,164.5 Z M213.959798,164.5 C214.788225,164.5 215.459798,165.171573 215.459798,166 C215.459798,166.828427 214.788225,167.5 213.959798,167.5 L212.959798,167.5 C212.131371,167.5 211.459798,166.828427 211.459798,166 C211.459798,165.171573 212.131371,164.5 212.959798,164.5 L213.959798,164.5 Z M202.959798,164.5 C203.788225,164.5 204.459798,165.171573 204.459798,166 C204.459798,166.828427 203.788225,167.5 202.959798,167.5 L201.959798,167.5 C201.131371,167.5 200.459798,166.828427 200.459798,166 C200.459798,165.171573 201.131371,164.5 201.959798,164.5 L202.959798,164.5 Z M191.959798,164.5 C192.788225,164.5 193.459798,165.171573 193.459798,166 C193.459798,166.828427 192.788225,167.5 191.959798,167.5 L190.959798,167.5 C190.131371,167.5 189.459798,166.828427 189.459798,166 C189.459798,165.171573 190.131371,164.5 190.959798,164.5 L191.959798,164.5 Z M180.959798,164.5 C181.788225,164.5 182.459798,165.171573 182.459798,166 C182.459798,166.828427 181.788225,167.5 180.959798,167.5 L179.959798,167.5 C179.131371,167.5 178.459798,166.828427 178.459798,166 C178.459798,165.171573 179.131371,164.5 179.959798,164.5 L180.959798,164.5 Z M169.959798,164.5 C170.788225,164.5 171.459798,165.171573 171.459798,166 C171.459798,166.828427 170.788225,167.5 169.959798,167.5 L168.959798,167.5 C168.131371,167.5 167.459798,166.828427 167.459798,166 C167.459798,165.171573 168.131371,164.5 168.959798,164.5 L169.959798,164.5 Z M158.959798,164.5 C159.788225,164.5 160.459798,165.171573 160.459798,166 C160.459798,166.828427 159.788225,167.5 158.959798,167.5 L157.959798,167.5 C157.131371,167.5 156.459798,166.828427 156.459798,166 C156.459798,165.171573 157.131371,164.5 157.959798,164.5 L158.959798,164.5 Z M147.959798,164.5 C148.788225,164.5 149.459798,165.171573 149.459798,166 C149.459798,166.828427 148.788225,167.5 147.959798,167.5 L146.959798,167.5 C146.131371,167.5 145.459798,166.828427 145.459798,166 C145.459798,165.171573 146.131371,164.5 146.959798,164.5 L147.959798,164.5 Z M136.959798,164.5 C137.788225,164.5 138.459798,165.171573 138.459798,166 C138.459798,166.828427 137.788225,167.5 136.959798,167.5 L135.959798,167.5 C135.131371,167.5 134.459798,166.828427 134.459798,166 C134.459798,165.171573 135.131371,164.5 135.959798,164.5 L136.959798,164.5 Z M125.959798,164.5 C126.788225,164.5 127.459798,165.171573 127.459798,166 C127.459798,166.828427 126.788225,167.5 125.959798,167.5 L124.959798,167.5 C124.131371,167.5 123.459798,166.828427 123.459798,166 C123.459798,165.171573 124.131371,164.5 124.959798,164.5 L125.959798,164.5 Z M114.959798,164.5 C115.788225,164.5 116.459798,165.171573 116.459798,166 C116.459798,166.828427 115.788225,167.5 114.959798,167.5 L113.959798,167.5 C113.131371,167.5 112.459798,166.828427 112.459798,166 C112.459798,165.171573 113.131371,164.5 113.959798,164.5 L114.959798,164.5 Z M103.959798,164.5 C104.788225,164.5 105.459798,165.171573 105.459798,166 C105.459798,166.828427 104.788225,167.5 103.959798,167.5 L102.959798,167.5 C102.131371,167.5 101.459798,166.828427 101.459798,166 C101.459798,165.171573 102.131371,164.5 102.959798,164.5 L103.959798,164.5 Z M92.959798,164.5 C93.7882251,164.5 94.459798,165.171573 94.459798,166 C94.459798,166.828427 93.7882251,167.5 92.959798,167.5 L91.959798,167.5 C91.1313708,167.5 90.459798,166.828427 90.459798,166 C90.459798,165.171573 91.1313708,164.5 91.959798,164.5 L92.959798,164.5 Z M81.959798,164.5 C82.7882251,164.5 83.459798,165.171573 83.459798,166 C83.459798,166.828427 82.7882251,167.5 81.959798,167.5 L80.959798,167.5 C80.1313708,167.5 79.459798,166.828427 79.459798,166 C79.459798,165.171573 80.1313708,164.5 80.959798,164.5 L81.959798,164.5 Z M70.959798,164.5 C71.7882251,164.5 72.459798,165.171573 72.459798,166 C72.459798,166.828427 71.7882251,167.5 70.959798,167.5 L69.959798,167.5 C69.1313708,167.5 68.459798,166.828427 68.459798,166 C68.459798,165.171573 69.1313708,164.5 69.959798,164.5 L70.959798,164.5 Z M59.959798,164.5 C60.7882251,164.5 61.459798,165.171573 61.459798,166 C61.459798,166.828427 60.7882251,167.5 59.959798,167.5 L58.959798,167.5 C58.1313708,167.5 57.459798,166.828427 57.459798,166 C57.459798,165.171573 58.1313708,164.5 58.959798,164.5 L59.959798,164.5 Z M48.959798,164.5 C49.7882251,164.5 50.459798,165.171573 50.459798,166 C50.459798,166.828427 49.7882251,167.5 48.959798,167.5 L47.959798,167.5 C47.1313708,167.5 46.459798,166.828427 46.459798,166 C46.459798,165.171573 47.1313708,164.5 47.959798,164.5 L48.959798,164.5 Z M37.959798,164.5 C38.7882251,164.5 39.459798,165.171573 39.459798,166 C39.459798,166.828427 38.7882251,167.5 37.959798,167.5 L36.959798,167.5 C36.1313708,167.5 35.459798,166.828427 35.459798,166 C35.459798,165.171573 36.1313708,164.5 36.959798,164.5 L37.959798,164.5 Z M26.959798,164.5 C27.7882251,164.5 28.459798,165.171573 28.459798,166 C28.459798,166.828427 27.7882251,167.5 26.959798,167.5 L25.959798,167.5 C25.1313708,167.5 24.459798,166.828427 24.459798,166 C24.459798,165.171573 25.1313708,164.5 25.959798,164.5 L26.959798,164.5 Z M15.959798,164.5 C16.7882251,164.5 17.459798,165.171573 17.459798,166 C17.459798,166.828427 16.7882251,167.5 15.959798,167.5 L14.959798,167.5 C14.1313708,167.5 13.459798,166.828427 13.459798,166 C13.459798,165.171573 14.1313708,164.5 14.959798,164.5 L15.959798,164.5 Z M4.95979797,164.5 C5.7882251,164.5 6.45979797,165.171573 6.45979797,166 C6.45979797,166.828427 5.7882251,167.5 4.95979797,167.5 L3.95979797,167.5 C3.13137085,167.5 2.45979797,166.828427 2.45979797,166 C2.45979797,165.171573 3.13137085,164.5 3.95979797,164.5 L4.95979797,164.5 Z M3.5,157.139697 C3.5,157.968124 2.82842712,158.639697 2,158.639697 C1.17157288,158.639697 0.5,157.968124 0.5,157.139697 L0.5,156.139697 C0.5,155.31127 1.17157288,154.639697 2,154.639697 C2.82842712,154.639697 3.5,155.31127 3.5,156.139697 L3.5,157.139697 Z M3.5,146.139697 C3.5,146.968124 2.82842712,147.639697 2,147.639697 C1.17157288,147.639697 0.5,146.968124 0.5,146.139697 L0.5,145.139697 C0.5,144.31127 1.17157288,143.639697 2,143.639697 C2.82842712,143.639697 3.5,144.31127 3.5,145.139697 L3.5,146.139697 Z M3.5,135.139697 C3.5,135.968124 2.82842712,136.639697 2,136.639697 C1.17157288,136.639697 0.5,135.968124 0.5,135.139697 L0.5,134.139697 C0.5,133.31127 1.17157288,132.639697 2,132.639697 C2.82842712,132.639697 3.5,133.31127 3.5,134.139697 L3.5,135.139697 Z M3.5,124.139697 C3.5,124.968124 2.82842712,125.639697 2,125.639697 C1.17157288,125.639697 0.5,124.968124 0.5,124.139697 L0.5,123.139697 C0.5,122.31127 1.17157288,121.639697 2,121.639697 C2.82842712,121.639697 3.5,122.31127 3.5,123.139697 L3.5,124.139697 Z M3.5,113.139697 C3.5,113.968124 2.82842712,114.639697 2,114.639697 C1.17157288,114.639697 0.5,113.968124 0.5,113.139697 L0.5,112.139697 C0.5,111.31127 1.17157288,110.639697 2,110.639697 C2.82842712,110.639697 3.5,111.31127 3.5,112.139697 L3.5,113.139697 Z M3.5,102.139697 C3.5,102.968124 2.82842712,103.639697 2,103.639697 C1.17157288,103.639697 0.5,102.968124 0.5,102.139697 L0.5,101.139697 C0.5,100.31127 1.17157288,99.639697 2,99.639697 C2.82842712,99.639697 3.5,100.31127 3.5,101.139697 L3.5,102.139697 Z M3.5,91.139697 C3.5,91.9681241 2.82842712,92.639697 2,92.639697 C1.17157288,92.639697 0.5,91.9681241 0.5,91.139697 L0.5,90.139697 C0.5,89.3112698 1.17157288,88.639697 2,88.639697 C2.82842712,88.639697 3.5,89.3112698 3.5,90.139697 L3.5,91.139697 Z M3.5,80.139697 C3.5,80.9681241 2.82842712,81.639697 2,81.639697 C1.17157288,81.639697 0.5,80.9681241 0.5,80.139697 L0.5,79.139697 C0.5,78.3112698 1.17157288,77.639697 2,77.639697 C2.82842712,77.639697 3.5,78.3112698 3.5,79.139697 L3.5,80.139697 Z M3.5,69.139697 C3.5,69.9681241 2.82842712,70.639697 2,70.639697 C1.17157288,70.639697 0.5,69.9681241 0.5,69.139697 L0.5,68.139697 C0.5,67.3112698 1.17157288,66.639697 2,66.639697 C2.82842712,66.639697 3.5,67.3112698 3.5,68.139697 L3.5,69.139697 Z M3.5,58.139697 C3.5,58.9681241 2.82842712,59.639697 2,59.639697 C1.17157288,59.639697 0.5,58.9681241 0.5,58.139697 L0.5,57.139697 C0.5,56.3112698 1.17157288,55.639697 2,55.639697 C2.82842712,55.639697 3.5,56.3112698 3.5,57.139697 L3.5,58.139697 Z M3.5,47.139697 C3.5,47.9681241 2.82842712,48.639697 2,48.639697 C1.17157288,48.639697 0.5,47.9681241 0.5,47.139697 L0.5,46.139697 C0.5,45.3112698 1.17157288,44.639697 2,44.639697 C2.82842712,44.639697 3.5,45.3112698 3.5,46.139697 L3.5,47.139697 Z M3.5,36.139697 C3.5,36.9681241 2.82842712,37.639697 2,37.639697 C1.17157288,37.639697 0.5,36.9681241 0.5,36.139697 L0.5,35.139697 C0.5,34.3112698 1.17157288,33.639697 2,33.639697 C2.82842712,33.639697 3.5,34.3112698 3.5,35.139697 L3.5,36.139697 Z M3.5,25.139697 C3.5,25.9681241 2.82842712,26.639697 2,26.639697 C1.17157288,26.639697 0.5,25.9681241 0.5,25.139697 L0.5,24.139697 C0.5,23.3112698 1.17157288,22.639697 2,22.639697 C2.82842712,22.639697 3.5,23.3112698 3.5,24.139697 L3.5,25.139697 Z M3.5,14.139697 C3.5,14.9681241 2.82842712,15.639697 2,15.639697 C1.17157288,15.639697 0.5,14.9681241 0.5,14.139697 L0.5,13.139697 C0.5,12.3112698 1.17157288,11.639697 2,11.639697 C2.82842712,11.639697 3.5,12.3112698 3.5,13.139697 L3.5,14.139697 Z M1.7479568,4.6152055 C0.933672796,4.46278154 0.397129219,3.6791099 0.549553179,2.86482589 C0.68165267,2.1591199 1.07077992,1.53227127 1.63417925,1.09950305 C2.29115739,0.594853436 3.23284274,0.718340103 3.73749235,1.37531824 C4.23467813,2.02257959 4.12217065,2.94618872 3.49047711,3.45595538 C3.32064348,4.24820196 2.54911691,4.76517283 1.7479568,4.6152055 Z M3.46167716,3.47863134 C3.48003216,3.46453217 3.49344703,3.44292202 3.4983364,3.41680188 C3.49587977,3.42992577 3.49325917,3.44297751 3.49047711,3.45595538 C3.48099403,3.46360808 3.47139394,3.47116751 3.46167716,3.47863134 Z" id="Border_Branch_2" fill="#FE791A" fill-rule="nonzero"></path>
    </g>
</svg>