<?xml version="1.0" encoding="UTF-8" standalone="no"?>
<svg width="533px" height="134px" viewBox="0 0 533 134" version="1.1" xmlns="http://www.w3.org/2000/svg" xmlns:xlink="http://www.w3.org/1999/xlink">
    <!-- Generator: Sketch 50 (54983) - http://www.bohemiancoding.com/sketch -->
    <title>Border_1stFloor_2</title>
    <desc>Created with Sketch.</desc>
    <defs></defs>
    <g id="Page-1" stroke="none" stroke-width="1" fill="none" fill-rule="evenodd">
        <path d="M4.5,3.5 C3.67157288,3.5 3,2.82842712 3,2 C3,1.17157288 3.67157288,0.5 4.5,0.5 L5.5,0.5 C6.32842712,0.5 7,1.17157288 7,2 C7,2.82842712 6.32842712,3.5 5.5,3.5 L4.5,3.5 Z M15.5,3.5 C14.6715729,3.5 14,2.82842712 14,2 C14,1.17157288 14.6715729,0.5 15.5,0.5 L16.5,0.5 C17.3284271,0.5 18,1.17157288 18,2 C18,2.82842712 17.3284271,3.5 16.5,3.5 L15.5,3.5 Z M26.5,3.5 C25.6715729,3.5 25,2.82842712 25,2 C25,1.17157288 25.6715729,0.5 26.5,0.5 L27.5,0.5 C28.3284271,0.5 29,1.17157288 29,2 C29,2.82842712 28.3284271,3.5 27.5,3.5 L26.5,3.5 Z M37.5,3.5 C36.6715729,3.5 36,2.82842712 36,2 C36,1.17157288 36.6715729,0.5 37.5,0.5 L38.5,0.5 C39.3284271,0.5 40,1.17157288 40,2 C40,2.82842712 39.3284271,3.5 38.5,3.5 L37.5,3.5 Z M48.5,3.5 C47.6715729,3.5 47,2.82842712 47,2 C47,1.17157288 47.6715729,0.5 48.5,0.5 L49.5,0.5 C50.3284271,0.5 51,1.17157288 51,2 C51,2.82842712 50.3284271,3.5 49.5,3.5 L48.5,3.5 Z M59.5,3.5 C58.6715729,3.5 58,2.82842712 58,2 C58,1.17157288 58.6715729,0.5 59.5,0.5 L60.5,0.5 C61.3284271,0.5 62,1.17157288 62,2 C62,2.82842712 61.3284271,3.5 60.5,3.5 L59.5,3.5 Z M70.5,3.5 C69.6715729,3.5 69,2.82842712 69,2 C69,1.17157288 69.6715729,0.5 70.5,0.5 L71.5,0.5 C72.3284271,0.5 73,1.17157288 73,2 C73,2.82842712 72.3284271,3.5 71.5,3.5 L70.5,3.5 Z M81.5,3.5 C80.6715729,3.5 80,2.82842712 80,2 C80,1.17157288 80.6715729,0.5 81.5,0.5 L82.5,0.5 C83.3284271,0.5 84,1.17157288 84,2 C84,2.82842712 83.3284271,3.5 82.5,3.5 L81.5,3.5 Z M92.5,3.5 C91.6715729,3.5 91,2.82842712 91,2 C91,1.17157288 91.6715729,0.5 92.5,0.5 L93.5,0.5 C94.3284271,0.5 95,1.17157288 95,2 C95,2.82842712 94.3284271,3.5 93.5,3.5 L92.5,3.5 Z M103.5,3.5 C102.671573,3.5 102,2.82842712 102,2 C102,1.17157288 102.671573,0.5 103.5,0.5 L104.5,0.5 C105.328427,0.5 106,1.17157288 106,2 C106,2.82842712 105.328427,3.5 104.5,3.5 L103.5,3.5 Z M114.5,3.5 C113.671573,3.5 113,2.82842712 113,2 C113,1.17157288 113.671573,0.5 114.5,0.5 L115.5,0.5 C116.328427,0.5 117,1.17157288 117,2 C117,2.82842712 116.328427,3.5 115.5,3.5 L114.5,3.5 Z M125.5,3.5 C124.671573,3.5 124,2.82842712 124,2 C124,1.17157288 124.671573,0.5 125.5,0.5 L126.5,0.5 C127.328427,0.5 128,1.17157288 128,2 C128,2.82842712 127.328427,3.5 126.5,3.5 L125.5,3.5 Z M136.5,3.5 C135.671573,3.5 135,2.82842712 135,2 C135,1.17157288 135.671573,0.5 136.5,0.5 L137.5,0.5 C138.328427,0.5 139,1.17157288 139,2 C139,2.82842712 138.328427,3.5 137.5,3.5 L136.5,3.5 Z M147.5,3.5 C146.671573,3.5 146,2.82842712 146,2 C146,1.17157288 146.671573,0.5 147.5,0.5 L148.5,0.5 C149.328427,0.5 150,1.17157288 150,2 C150,2.82842712 149.328427,3.5 148.5,3.5 L147.5,3.5 Z M158.5,3.5 C157.671573,3.5 157,2.82842712 157,2 C157,1.17157288 157.671573,0.5 158.5,0.5 L159.5,0.5 C160.328427,0.5 161,1.17157288 161,2 C161,2.82842712 160.328427,3.5 159.5,3.5 L158.5,3.5 Z M169.5,3.5 C168.671573,3.5 168,2.82842712 168,2 C168,1.17157288 168.671573,0.5 169.5,0.5 L170.5,0.5 C171.328427,0.5 172,1.17157288 172,2 C172,2.82842712 171.328427,3.5 170.5,3.5 L169.5,3.5 Z M180.5,3.5 C179.671573,3.5 179,2.82842712 179,2 C179,1.17157288 179.671573,0.5 180.5,0.5 L181.5,0.5 C182.328427,0.5 183,1.17157288 183,2 C183,2.82842712 182.328427,3.5 181.5,3.5 L180.5,3.5 Z M191.5,3.5 C190.671573,3.5 190,2.82842712 190,2 C190,1.17157288 190.671573,0.5 191.5,0.5 L192.5,0.5 C193.328427,0.5 194,1.17157288 194,2 C194,2.82842712 193.328427,3.5 192.5,3.5 L191.5,3.5 Z M202.5,3.5 C201.671573,3.5 201,2.82842712 201,2 C201,1.17157288 201.671573,0.5 202.5,0.5 L203.5,0.5 C204.328427,0.5 205,1.17157288 205,2 C205,2.82842712 204.328427,3.5 203.5,3.5 L202.5,3.5 Z M213.5,3.5 C212.671573,3.5 212,2.82842712 212,2 C212,1.17157288 212.671573,0.5 213.5,0.5 L214.5,0.5 C215.328427,0.5 216,1.17157288 216,2 C216,2.82842712 215.328427,3.5 214.5,3.5 L213.5,3.5 Z M224.5,3.5 C223.671573,3.5 223,2.82842712 223,2 C223,1.17157288 223.671573,0.5 224.5,0.5 L225.5,0.5 C226.328427,0.5 227,1.17157288 227,2 C227,2.82842712 226.328427,3.5 225.5,3.5 L224.5,3.5 Z M235.5,3.5 C234.671573,3.5 234,2.82842712 234,2 C234,1.17157288 234.671573,0.5 235.5,0.5 L236.5,0.5 C237.328427,0.5 238,1.17157288 238,2 C238,2.82842712 237.328427,3.5 236.5,3.5 L235.5,3.5 Z M246.5,3.5 C245.671573,3.5 245,2.82842712 245,2 C245,1.17157288 245.671573,0.5 246.5,0.5 L247.5,0.5 C248.328427,0.5 249,1.17157288 249,2 C249,2.82842712 248.328427,3.5 247.5,3.5 L246.5,3.5 Z M257.5,3.5 C256.671573,3.5 256,2.82842712 256,2 C256,1.17157288 256.671573,0.5 257.5,0.5 L258.5,0.5 C259.328427,0.5 260,1.17157288 260,2 C260,2.82842712 259.328427,3.5 258.5,3.5 L257.5,3.5 Z M268.5,3.5 C267.671573,3.5 267,2.82842712 267,2 C267,1.17157288 267.671573,0.5 268.5,0.5 L269.5,0.5 C270.328427,0.5 271,1.17157288 271,2 C271,2.82842712 270.328427,3.5 269.5,3.5 L268.5,3.5 Z M279.5,3.5 C278.671573,3.5 278,2.82842712 278,2 C278,1.17157288 278.671573,0.5 279.5,0.5 L280.5,0.5 C281.328427,0.5 282,1.17157288 282,2 C282,2.82842712 281.328427,3.5 280.5,3.5 L279.5,3.5 Z M290.5,3.5 C289.671573,3.5 289,2.82842712 289,2 C289,1.17157288 289.671573,0.5 290.5,0.5 L291.5,0.5 C292.328427,0.5 293,1.17157288 293,2 C293,2.82842712 292.328427,3.5 291.5,3.5 L290.5,3.5 Z M301.5,3.5 C300.671573,3.5 300,2.82842712 300,2 C300,1.17157288 300.671573,0.5 301.5,0.5 L302.5,0.5 C303.328427,0.5 304,1.17157288 304,2 C304,2.82842712 303.328427,3.5 302.5,3.5 L301.5,3.5 Z M312.5,3.5 C311.671573,3.5 311,2.82842712 311,2 C311,1.17157288 311.671573,0.5 312.5,0.5 L313.5,0.5 C314.328427,0.5 315,1.17157288 315,2 C315,2.82842712 314.328427,3.5 313.5,3.5 L312.5,3.5 Z M323.5,3.5 C322.671573,3.5 322,2.82842712 322,2 C322,1.17157288 322.671573,0.5 323.5,0.5 L324.5,0.5 C325.328427,0.5 326,1.17157288 326,2 C326,2.82842712 325.328427,3.5 324.5,3.5 L323.5,3.5 Z M334.5,3.5 C333.671573,3.5 333,2.82842712 333,2 C333,1.17157288 333.671573,0.5 334.5,0.5 L335.5,0.5 C336.328427,0.5 337,1.17157288 337,2 C337,2.82842712 336.328427,3.5 335.5,3.5 L334.5,3.5 Z M345.5,3.5 C344.671573,3.5 344,2.82842712 344,2 C344,1.17157288 344.671573,0.5 345.5,0.5 L346.5,0.5 C347.328427,0.5 348,1.17157288 348,2 C348,2.82842712 347.328427,3.5 346.5,3.5 L345.5,3.5 Z M356.5,3.5 C355.671573,3.5 355,2.82842712 355,2 C355,1.17157288 355.671573,0.5 356.5,0.5 L357.5,0.5 C358.328427,0.5 359,1.17157288 359,2 C359,2.82842712 358.328427,3.5 357.5,3.5 L356.5,3.5 Z M367.5,3.5 C366.671573,3.5 366,2.82842712 366,2 C366,1.17157288 366.671573,0.5 367.5,0.5 L368.5,0.5 C369.328427,0.5 370,1.17157288 370,2 C370,2.82842712 369.328427,3.5 368.5,3.5 L367.5,3.5 Z M378.5,3.5 C377.671573,3.5 377,2.82842712 377,2 C377,1.17157288 377.671573,0.5 378.5,0.5 L379.5,0.5 C380.328427,0.5 381,1.17157288 381,2 C381,2.82842712 380.328427,3.5 379.5,3.5 L378.5,3.5 Z M389.5,3.5 C388.671573,3.5 388,2.82842712 388,2 C388,1.17157288 388.671573,0.5 389.5,0.5 L390.5,0.5 C391.328427,0.5 392,1.17157288 392,2 C392,2.82842712 391.328427,3.5 390.5,3.5 L389.5,3.5 Z M400.5,3.5 C399.671573,3.5 399,2.82842712 399,2 C399,1.17157288 399.671573,0.5 400.5,0.5 L401.5,0.5 C402.328427,0.5 403,1.17157288 403,2 C403,2.82842712 402.328427,3.5 401.5,3.5 L400.5,3.5 Z M411.5,3.5 C410.671573,3.5 410,2.82842712 410,2 C410,1.17157288 410.671573,0.5 411.5,0.5 L412.5,0.5 C413.328427,0.5 414,1.17157288 414,2 C414,2.82842712 413.328427,3.5 412.5,3.5 L411.5,3.5 Z M422.5,3.5 C421.671573,3.5 421,2.82842712 421,2 C421,1.17157288 421.671573,0.5 422.5,0.5 L423.5,0.5 C424.328427,0.5 425,1.17157288 425,2 C425,2.82842712 424.328427,3.5 423.5,3.5 L422.5,3.5 Z M433.5,3.5 C432.671573,3.5 432,2.82842712 432,2 C432,1.17157288 432.671573,0.5 433.5,0.5 L434.5,0.5 C435.328427,0.5 436,1.17157288 436,2 C436,2.82842712 435.328427,3.5 434.5,3.5 L433.5,3.5 Z M444.5,3.5 C443.671573,3.5 443,2.82842712 443,2 C443,1.17157288 443.671573,0.5 444.5,0.5 L445.5,0.5 C446.328427,0.5 447,1.17157288 447,2 C447,2.82842712 446.328427,3.5 445.5,3.5 L444.5,3.5 Z M455.5,3.5 C454.671573,3.5 454,2.82842712 454,2 C454,1.17157288 454.671573,0.5 455.5,0.5 L456.5,0.5 C457.328427,0.5 458,1.17157288 458,2 C458,2.82842712 457.328427,3.5 456.5,3.5 L455.5,3.5 Z M466.5,3.5 C465.671573,3.5 465,2.82842712 465,2 C465,1.17157288 465.671573,0.5 466.5,0.5 L467.5,0.5 C468.328427,0.5 469,1.17157288 469,2 C469,2.82842712 468.328427,3.5 467.5,3.5 L466.5,3.5 Z M477.5,3.5 C476.671573,3.5 476,2.82842712 476,2 C476,1.17157288 476.671573,0.5 477.5,0.5 L478.5,0.5 C479.328427,0.5 480,1.17157288 480,2 C480,2.82842712 479.328427,3.5 478.5,3.5 L477.5,3.5 Z M488.5,3.5 C487.671573,3.5 487,2.82842712 487,2 C487,1.17157288 487.671573,0.5 488.5,0.5 L489.5,0.5 C490.328427,0.5 491,1.17157288 491,2 C491,2.82842712 490.328427,3.5 489.5,3.5 L488.5,3.5 Z M499.5,3.5 C498.671573,3.5 498,2.82842712 498,2 C498,1.17157288 498.671573,0.5 499.5,0.5 L500.5,0.5 C501.328427,0.5 502,1.17157288 502,2 C502,2.82842712 501.328427,3.5 500.5,3.5 L499.5,3.5 Z M510.5,3.5 C509.671573,3.5 509,2.82842712 509,2 C509,1.17157288 509.671573,0.5 510.5,0.5 L511.5,0.5 C512.328427,0.5 513,1.17157288 513,2 C513,2.82842712 512.328427,3.5 511.5,3.5 L510.5,3.5 Z M521.5,3.5 C520.671573,3.5 520,2.82842712 520,2 C520,1.17157288 520.671573,0.5 521.5,0.5 L522.5,0.5 C523.328427,0.5 524,1.17157288 524,2 C524,2.82842712 523.328427,3.5 522.5,3.5 L521.5,3.5 Z M529.5,4.70499804 C529.5,3.87657091 530.171573,3.20499804 531,3.20499804 C531.828427,3.20499804 532.5,3.87657091 532.5,4.70499804 L532.5,5.70499804 C532.5,6.53342516 531.828427,7.20499804 531,7.20499804 C530.171573,7.20499804 529.5,6.53342516 529.5,5.70499804 L529.5,4.70499804 Z M529.5,15.704998 C529.5,14.8765709 530.171573,14.204998 531,14.204998 C531.828427,14.204998 532.5,14.8765709 532.5,15.704998 L532.5,16.704998 C532.5,17.5334252 531.828427,18.204998 531,18.204998 C530.171573,18.204998 529.5,17.5334252 529.5,16.704998 L529.5,15.704998 Z M529.5,26.704998 C529.5,25.8765709 530.171573,25.204998 531,25.204998 C531.828427,25.204998 532.5,25.8765709 532.5,26.704998 L532.5,27.704998 C532.5,28.5334252 531.828427,29.204998 531,29.204998 C530.171573,29.204998 529.5,28.5334252 529.5,27.704998 L529.5,26.704998 Z M529.5,37.704998 C529.5,36.8765709 530.171573,36.204998 531,36.204998 C531.828427,36.204998 532.5,36.8765709 532.5,37.704998 L532.5,38.704998 C532.5,39.5334252 531.828427,40.204998 531,40.204998 C530.171573,40.204998 529.5,39.5334252 529.5,38.704998 L529.5,37.704998 Z M529.5,48.704998 C529.5,47.8765709 530.171573,47.204998 531,47.204998 C531.828427,47.204998 532.5,47.8765709 532.5,48.704998 L532.5,49.704998 C532.5,50.5334252 531.828427,51.204998 531,51.204998 C530.171573,51.204998 529.5,50.5334252 529.5,49.704998 L529.5,48.704998 Z M529.5,59.704998 C529.5,58.8765709 530.171573,58.204998 531,58.204998 C531.828427,58.204998 532.5,58.8765709 532.5,59.704998 L532.5,60.704998 C532.5,61.5334252 531.828427,62.204998 531,62.204998 C530.171573,62.204998 529.5,61.5334252 529.5,60.704998 L529.5,59.704998 Z M529.5,70.704998 C529.5,69.8765709 530.171573,69.204998 531,69.204998 C531.828427,69.204998 532.5,69.8765709 532.5,70.704998 L532.5,71.704998 C532.5,72.5334252 531.828427,73.204998 531,73.204998 C530.171573,73.204998 529.5,72.5334252 529.5,71.704998 L529.5,70.704998 Z M529.5,81.704998 C529.5,80.8765709 530.171573,80.204998 531,80.204998 C531.828427,80.204998 532.5,80.8765709 532.5,81.704998 L532.5,82.704998 C532.5,83.5334252 531.828427,84.204998 531,84.204998 C530.171573,84.204998 529.5,83.5334252 529.5,82.704998 L529.5,81.704998 Z M529.5,92.704998 C529.5,91.8765709 530.171573,91.204998 531,91.204998 C531.828427,91.204998 532.5,91.8765709 532.5,92.704998 L532.5,93.704998 C532.5,94.5334252 531.828427,95.204998 531,95.204998 C530.171573,95.204998 529.5,94.5334252 529.5,93.704998 L529.5,92.704998 Z M529.5,103.704998 C529.5,102.876571 530.171573,102.204998 531,102.204998 C531.828427,102.204998 532.5,102.876571 532.5,103.704998 L532.5,104.704998 C532.5,105.533425 531.828427,106.204998 531,106.204998 C530.171573,106.204998 529.5,105.533425 529.5,104.704998 L529.5,103.704998 Z M529.5,114.704998 C529.5,113.876571 530.171573,113.204998 531,113.204998 C531.828427,113.204998 532.5,113.876571 532.5,114.704998 L532.5,115.704998 C532.5,116.533425 531.828427,117.204998 531,117.204998 C530.171573,117.204998 529.5,116.533425 529.5,115.704998 L529.5,114.704998 Z M529.5,125.704998 C529.5,124.876571 530.171573,124.204998 531,124.204998 C531.828427,124.204998 532.5,124.876571 532.5,125.704998 L532.5,126.704998 C532.5,127.533425 531.828427,128.204998 531,128.204998 C530.171573,128.204998 529.5,127.533425 529.5,126.704998 L529.5,125.704998 Z M525.090004,130.5 C525.918431,130.5 526.590004,131.171573 526.590004,132 C526.590004,132.828427 525.918431,133.5 525.090004,133.5 L524.090004,133.5 C523.261577,133.5 522.590004,132.828427 522.590004,132 C522.590004,131.171573 523.261577,130.5 524.090004,130.5 L525.090004,130.5 Z M514.090004,130.5 C514.918431,130.5 515.590004,131.171573 515.590004,132 C515.590004,132.828427 514.918431,133.5 514.090004,133.5 L513.090004,133.5 C512.261577,133.5 511.590004,132.828427 511.590004,132 C511.590004,131.171573 512.261577,130.5 513.090004,130.5 L514.090004,130.5 Z M503.090004,130.5 C503.918431,130.5 504.590004,131.171573 504.590004,132 C504.590004,132.828427 503.918431,133.5 503.090004,133.5 L502.090004,133.5 C501.261577,133.5 500.590004,132.828427 500.590004,132 C500.590004,131.171573 501.261577,130.5 502.090004,130.5 L503.090004,130.5 Z M492.090004,130.5 C492.918431,130.5 493.590004,131.171573 493.590004,132 C493.590004,132.828427 492.918431,133.5 492.090004,133.5 L491.090004,133.5 C490.261577,133.5 489.590004,132.828427 489.590004,132 C489.590004,131.171573 490.261577,130.5 491.090004,130.5 L492.090004,130.5 Z M481.090004,130.5 C481.918431,130.5 482.590004,131.171573 482.590004,132 C482.590004,132.828427 481.918431,133.5 481.090004,133.5 L480.090004,133.5 C479.261577,133.5 478.590004,132.828427 478.590004,132 C478.590004,131.171573 479.261577,130.5 480.090004,130.5 L481.090004,130.5 Z M470.090004,130.5 C470.918431,130.5 471.590004,131.171573 471.590004,132 C471.590004,132.828427 470.918431,133.5 470.090004,133.5 L469.090004,133.5 C468.261577,133.5 467.590004,132.828427 467.590004,132 C467.590004,131.171573 468.261577,130.5 469.090004,130.5 L470.090004,130.5 Z M459.090004,130.5 C459.918431,130.5 460.590004,131.171573 460.590004,132 C460.590004,132.828427 459.918431,133.5 459.090004,133.5 L458.090004,133.5 C457.261577,133.5 456.590004,132.828427 456.590004,132 C456.590004,131.171573 457.261577,130.5 458.090004,130.5 L459.090004,130.5 Z M448.090004,130.5 C448.918431,130.5 449.590004,131.171573 449.590004,132 C449.590004,132.828427 448.918431,133.5 448.090004,133.5 L447.090004,133.5 C446.261577,133.5 445.590004,132.828427 445.590004,132 C445.590004,131.171573 446.261577,130.5 447.090004,130.5 L448.090004,130.5 Z M437.090004,130.5 C437.918431,130.5 438.590004,131.171573 438.590004,132 C438.590004,132.828427 437.918431,133.5 437.090004,133.5 L436.090004,133.5 C435.261577,133.5 434.590004,132.828427 434.590004,132 C434.590004,131.171573 435.261577,130.5 436.090004,130.5 L437.090004,130.5 Z M426.090004,130.5 C426.918431,130.5 427.590004,131.171573 427.590004,132 C427.590004,132.828427 426.918431,133.5 426.090004,133.5 L425.090004,133.5 C424.261577,133.5 423.590004,132.828427 423.590004,132 C423.590004,131.171573 424.261577,130.5 425.090004,130.5 L426.090004,130.5 Z M415.090004,130.5 C415.918431,130.5 416.590004,131.171573 416.590004,132 C416.590004,132.828427 415.918431,133.5 415.090004,133.5 L414.090004,133.5 C413.261577,133.5 412.590004,132.828427 412.590004,132 C412.590004,131.171573 413.261577,130.5 414.090004,130.5 L415.090004,130.5 Z M404.090004,130.5 C404.918431,130.5 405.590004,131.171573 405.590004,132 C405.590004,132.828427 404.918431,133.5 404.090004,133.5 L403.090004,133.5 C402.261577,133.5 401.590004,132.828427 401.590004,132 C401.590004,131.171573 402.261577,130.5 403.090004,130.5 L404.090004,130.5 Z M393.090004,130.5 C393.918431,130.5 394.590004,131.171573 394.590004,132 C394.590004,132.828427 393.918431,133.5 393.090004,133.5 L392.090004,133.5 C391.261577,133.5 390.590004,132.828427 390.590004,132 C390.590004,131.171573 391.261577,130.5 392.090004,130.5 L393.090004,130.5 Z M382.090004,130.5 C382.918431,130.5 383.590004,131.171573 383.590004,132 C383.590004,132.828427 382.918431,133.5 382.090004,133.5 L381.090004,133.5 C380.261577,133.5 379.590004,132.828427 379.590004,132 C379.590004,131.171573 380.261577,130.5 381.090004,130.5 L382.090004,130.5 Z M371.090004,130.5 C371.918431,130.5 372.590004,131.171573 372.590004,132 C372.590004,132.828427 371.918431,133.5 371.090004,133.5 L370.090004,133.5 C369.261577,133.5 368.590004,132.828427 368.590004,132 C368.590004,131.171573 369.261577,130.5 370.090004,130.5 L371.090004,130.5 Z M360.090004,130.5 C360.918431,130.5 361.590004,131.171573 361.590004,132 C361.590004,132.828427 360.918431,133.5 360.090004,133.5 L359.090004,133.5 C358.261577,133.5 357.590004,132.828427 357.590004,132 C357.590004,131.171573 358.261577,130.5 359.090004,130.5 L360.090004,130.5 Z M349.090004,130.5 C349.918431,130.5 350.590004,131.171573 350.590004,132 C350.590004,132.828427 349.918431,133.5 349.090004,133.5 L348.090004,133.5 C347.261577,133.5 346.590004,132.828427 346.590004,132 C346.590004,131.171573 347.261577,130.5 348.090004,130.5 L349.090004,130.5 Z M338.090004,130.5 C338.918431,130.5 339.590004,131.171573 339.590004,132 C339.590004,132.828427 338.918431,133.5 338.090004,133.5 L337.090004,133.5 C336.261577,133.5 335.590004,132.828427 335.590004,132 C335.590004,131.171573 336.261577,130.5 337.090004,130.5 L338.090004,130.5 Z M327.090004,130.5 C327.918431,130.5 328.590004,131.171573 328.590004,132 C328.590004,132.828427 327.918431,133.5 327.090004,133.5 L326.090004,133.5 C325.261577,133.5 324.590004,132.828427 324.590004,132 C324.590004,131.171573 325.261577,130.5 326.090004,130.5 L327.090004,130.5 Z M316.090004,130.5 C316.918431,130.5 317.590004,131.171573 317.590004,132 C317.590004,132.828427 316.918431,133.5 316.090004,133.5 L315.090004,133.5 C314.261577,133.5 313.590004,132.828427 313.590004,132 C313.590004,131.171573 314.261577,130.5 315.090004,130.5 L316.090004,130.5 Z M305.090004,130.5 C305.918431,130.5 306.590004,131.171573 306.590004,132 C306.590004,132.828427 305.918431,133.5 305.090004,133.5 L304.090004,133.5 C303.261577,133.5 302.590004,132.828427 302.590004,132 C302.590004,131.171573 303.261577,130.5 304.090004,130.5 L305.090004,130.5 Z M294.090004,130.5 C294.918431,130.5 295.590004,131.171573 295.590004,132 C295.590004,132.828427 294.918431,133.5 294.090004,133.5 L293.090004,133.5 C292.261577,133.5 291.590004,132.828427 291.590004,132 C291.590004,131.171573 292.261577,130.5 293.090004,130.5 L294.090004,130.5 Z M283.090004,130.5 C283.918431,130.5 284.590004,131.171573 284.590004,132 C284.590004,132.828427 283.918431,133.5 283.090004,133.5 L282.090004,133.5 C281.261577,133.5 280.590004,132.828427 280.590004,132 C280.590004,131.171573 281.261577,130.5 282.090004,130.5 L283.090004,130.5 Z M272.090004,130.5 C272.918431,130.5 273.590004,131.171573 273.590004,132 C273.590004,132.828427 272.918431,133.5 272.090004,133.5 L271.090004,133.5 C270.261577,133.5 269.590004,132.828427 269.590004,132 C269.590004,131.171573 270.261577,130.5 271.090004,130.5 L272.090004,130.5 Z M261.090004,130.5 C261.918431,130.5 262.590004,131.171573 262.590004,132 C262.590004,132.828427 261.918431,133.5 261.090004,133.5 L260.090004,133.5 C259.261577,133.5 258.590004,132.828427 258.590004,132 C258.590004,131.171573 259.261577,130.5 260.090004,130.5 L261.090004,130.5 Z M250.090004,130.5 C250.918431,130.5 251.590004,131.171573 251.590004,132 C251.590004,132.828427 250.918431,133.5 250.090004,133.5 L249.090004,133.5 C248.261577,133.5 247.590004,132.828427 247.590004,132 C247.590004,131.171573 248.261577,130.5 249.090004,130.5 L250.090004,130.5 Z M239.090004,130.5 C239.918431,130.5 240.590004,131.171573 240.590004,132 C240.590004,132.828427 239.918431,133.5 239.090004,133.5 L238.090004,133.5 C237.261577,133.5 236.590004,132.828427 236.590004,132 C236.590004,131.171573 237.261577,130.5 238.090004,130.5 L239.090004,130.5 Z M228.090004,130.5 C228.918431,130.5 229.590004,131.171573 229.590004,132 C229.590004,132.828427 228.918431,133.5 228.090004,133.5 L227.090004,133.5 C226.261577,133.5 225.590004,132.828427 225.590004,132 C225.590004,131.171573 226.261577,130.5 227.090004,130.5 L228.090004,130.5 Z M217.090004,130.5 C217.918431,130.5 218.590004,131.171573 218.590004,132 C218.590004,132.828427 217.918431,133.5 217.090004,133.5 L216.090004,133.5 C215.261577,133.5 214.590004,132.828427 214.590004,132 C214.590004,131.171573 215.261577,130.5 216.090004,130.5 L217.090004,130.5 Z M206.090004,130.5 C206.918431,130.5 207.590004,131.171573 207.590004,132 C207.590004,132.828427 206.918431,133.5 206.090004,133.5 L205.090004,133.5 C204.261577,133.5 203.590004,132.828427 203.590004,132 C203.590004,131.171573 204.261577,130.5 205.090004,130.5 L206.090004,130.5 Z M195.090004,130.5 C195.918431,130.5 196.590004,131.171573 196.590004,132 C196.590004,132.828427 195.918431,133.5 195.090004,133.5 L194.090004,133.5 C193.261577,133.5 192.590004,132.828427 192.590004,132 C192.590004,131.171573 193.261577,130.5 194.090004,130.5 L195.090004,130.5 Z M184.090004,130.5 C184.918431,130.5 185.590004,131.171573 185.590004,132 C185.590004,132.828427 184.918431,133.5 184.090004,133.5 L183.090004,133.5 C182.261577,133.5 181.590004,132.828427 181.590004,132 C181.590004,131.171573 182.261577,130.5 183.090004,130.5 L184.090004,130.5 Z M173.090004,130.5 C173.918431,130.5 174.590004,131.171573 174.590004,132 C174.590004,132.828427 173.918431,133.5 173.090004,133.5 L172.090004,133.5 C171.261577,133.5 170.590004,132.828427 170.590004,132 C170.590004,131.171573 171.261577,130.5 172.090004,130.5 L173.090004,130.5 Z M162.090004,130.5 C162.918431,130.5 163.590004,131.171573 163.590004,132 C163.590004,132.828427 162.918431,133.5 162.090004,133.5 L161.090004,133.5 C160.261577,133.5 159.590004,132.828427 159.590004,132 C159.590004,131.171573 160.261577,130.5 161.090004,130.5 L162.090004,130.5 Z M151.090004,130.5 C151.918431,130.5 152.590004,131.171573 152.590004,132 C152.590004,132.828427 151.918431,133.5 151.090004,133.5 L150.090004,133.5 C149.261577,133.5 148.590004,132.828427 148.590004,132 C148.590004,131.171573 149.261577,130.5 150.090004,130.5 L151.090004,130.5 Z M140.090004,130.5 C140.918431,130.5 141.590004,131.171573 141.590004,132 C141.590004,132.828427 140.918431,133.5 140.090004,133.5 L139.090004,133.5 C138.261577,133.5 137.590004,132.828427 137.590004,132 C137.590004,131.171573 138.261577,130.5 139.090004,130.5 L140.090004,130.5 Z M129.090004,130.5 C129.918431,130.5 130.590004,131.171573 130.590004,132 C130.590004,132.828427 129.918431,133.5 129.090004,133.5 L128.090004,133.5 C127.261577,133.5 126.590004,132.828427 126.590004,132 C126.590004,131.171573 127.261577,130.5 128.090004,130.5 L129.090004,130.5 Z M118.090004,130.5 C118.918431,130.5 119.590004,131.171573 119.590004,132 C119.590004,132.828427 118.918431,133.5 118.090004,133.5 L117.090004,133.5 C116.261577,133.5 115.590004,132.828427 115.590004,132 C115.590004,131.171573 116.261577,130.5 117.090004,130.5 L118.090004,130.5 Z M107.090004,130.5 C107.918431,130.5 108.590004,131.171573 108.590004,132 C108.590004,132.828427 107.918431,133.5 107.090004,133.5 L106.090004,133.5 C105.261577,133.5 104.590004,132.828427 104.590004,132 C104.590004,131.171573 105.261577,130.5 106.090004,130.5 L107.090004,130.5 Z M96.0900039,130.5 C96.9184311,130.5 97.5900039,131.171573 97.5900039,132 C97.5900039,132.828427 96.9184311,133.5 96.0900039,133.5 L95.0900039,133.5 C94.2615768,133.5 93.5900039,132.828427 93.5900039,132 C93.5900039,131.171573 94.2615768,130.5 95.0900039,130.5 L96.0900039,130.5 Z M85.0900039,130.5 C85.9184311,130.5 86.5900039,131.171573 86.5900039,132 C86.5900039,132.828427 85.9184311,133.5 85.0900039,133.5 L84.0900039,133.5 C83.2615768,133.5 82.5900039,132.828427 82.5900039,132 C82.5900039,131.171573 83.2615768,130.5 84.0900039,130.5 L85.0900039,130.5 Z M74.0900039,130.5 C74.9184311,130.5 75.5900039,131.171573 75.5900039,132 C75.5900039,132.828427 74.9184311,133.5 74.0900039,133.5 L73.0900039,133.5 C72.2615768,133.5 71.5900039,132.828427 71.5900039,132 C71.5900039,131.171573 72.2615768,130.5 73.0900039,130.5 L74.0900039,130.5 Z M63.0900039,130.5 C63.9184311,130.5 64.5900039,131.171573 64.5900039,132 C64.5900039,132.828427 63.9184311,133.5 63.0900039,133.5 L62.0900039,133.5 C61.2615768,133.5 60.5900039,132.828427 60.5900039,132 C60.5900039,131.171573 61.2615768,130.5 62.0900039,130.5 L63.0900039,130.5 Z M52.0900039,130.5 C52.9184311,130.5 53.5900039,131.171573 53.5900039,132 C53.5900039,132.828427 52.9184311,133.5 52.0900039,133.5 L51.0900039,133.5 C50.2615768,133.5 49.5900039,132.828427 49.5900039,132 C49.5900039,131.171573 50.2615768,130.5 51.0900039,130.5 L52.0900039,130.5 Z M41.0900039,130.5 C41.9184311,130.5 42.5900039,131.171573 42.5900039,132 C42.5900039,132.828427 41.9184311,133.5 41.0900039,133.5 L40.0900039,133.5 C39.2615768,133.5 38.5900039,132.828427 38.5900039,132 C38.5900039,131.171573 39.2615768,130.5 40.0900039,130.5 L41.0900039,130.5 Z M30.0900039,130.5 C30.9184311,130.5 31.5900039,131.171573 31.5900039,132 C31.5900039,132.828427 30.9184311,133.5 30.0900039,133.5 L29.0900039,133.5 C28.2615768,133.5 27.5900039,132.828427 27.5900039,132 C27.5900039,131.171573 28.2615768,130.5 29.0900039,130.5 L30.0900039,130.5 Z M19.0900039,130.5 C19.9184311,130.5 20.5900039,131.171573 20.5900039,132 C20.5900039,132.828427 19.9184311,133.5 19.0900039,133.5 L18.0900039,133.5 C17.2615768,133.5 16.5900039,132.828427 16.5900039,132 C16.5900039,131.171573 17.2615768,130.5 18.0900039,130.5 L19.0900039,130.5 Z M8.09000393,130.5 C8.91843105,130.5 9.59000393,131.171573 9.59000393,132 C9.59000393,132.828427 8.91843105,133.5 8.09000393,133.5 L7.09000393,133.5 C6.2615768,133.5 5.59000393,132.828427 5.59000393,132 C5.59000393,131.171573 6.2615768,130.5 7.09000393,130.5 L8.09000393,130.5 Z M0,10.5 C0,9.67157288 0.671572875,9 1.5,9 C2.32842712,9 3,9.67157288 3,10.5 L3,11.5 C3,12.3284271 2.32842712,13 1.5,13 C0.671572875,13 0,12.3284271 0,11.5 L0,10.5 Z M0,21.5 C0,20.6715729 0.671572875,20 1.5,20 C2.32842712,20 3,20.6715729 3,21.5 L3,22.5 C3,23.3284271 2.32842712,24 1.5,24 C0.671572875,24 0,23.3284271 0,22.5 L0,21.5 Z M0,32.5 C0,31.6715729 0.671572875,31 1.5,31 C2.32842712,31 3,31.6715729 3,32.5 L3,33.5 C3,34.3284271 2.32842712,35 1.5,35 C0.671572875,35 0,34.3284271 0,33.5 L0,32.5 Z M0,43.5 C0,42.6715729 0.671572875,42 1.5,42 C2.32842712,42 3,42.6715729 3,43.5 L3,44.5 C3,45.3284271 2.32842712,46 1.5,46 C0.671572875,46 0,45.3284271 0,44.5 L0,43.5 Z M0,54.5 C0,53.6715729 0.671572875,53 1.5,53 C2.32842712,53 3,53.6715729 3,54.5 L3,55.5 C3,56.3284271 2.32842712,57 1.5,57 C0.671572875,57 0,56.3284271 0,55.5 L0,54.5 Z M0,65.5 C0,64.6715729 0.671572875,64 1.5,64 C2.32842712,64 3,64.6715729 3,65.5 L3,66.5 C3,67.3284271 2.32842712,68 1.5,68 C0.671572875,68 0,67.3284271 0,66.5 L0,65.5 Z M0,76.5 C0,75.6715729 0.671572875,75 1.5,75 C2.32842712,75 3,75.6715729 3,76.5 L3,77.5 C3,78.3284271 2.32842712,79 1.5,79 C0.671572875,79 0,78.3284271 0,77.5 L0,76.5 Z M0,87.5 C0,86.6715729 0.671572875,86 1.5,86 C2.32842712,86 3,86.6715729 3,87.5 L3,88.5 C3,89.3284271 2.32842712,90 1.5,90 C0.671572875,90 0,89.3284271 0,88.5 L0,87.5 Z M0,98.5 C0,97.6715729 0.671572875,97 1.5,97 C2.32842712,97 3,97.6715729 3,98.5 L3,99.5 C3,100.328427 2.32842712,101 1.5,101 C0.671572875,101 0,100.328427 0,99.5 L0,98.5 Z M0,109.5 C0,108.671573 0.671572875,108 1.5,108 C2.32842712,108 3,108.671573 3,109.5 L3,110.5 C3,111.328427 2.32842712,112 1.5,112 C0.671572875,112 0,111.328427 0,110.5 L0,109.5 Z M0,120.5 C0,119.671573 0.671572875,119 1.5,119 C2.32842712,119 3,119.671573 3,120.5 L3,121.5 C3,122.328427 2.32842712,123 1.5,123 C0.671572875,123 0,122.328427 0,121.5 L0,120.5 Z" id="Border_1stFloor_2" fill="#FE791A" fill-rule="nonzero"></path>
    </g>
</svg>