<?xml version="1.0" encoding="UTF-8" standalone="no"?>
<svg width="533px" height="134px" viewBox="0 0 533 134" version="1.1" xmlns="http://www.w3.org/2000/svg" xmlns:xlink="http://www.w3.org/1999/xlink">
    <!-- Generator: Sketch 50 (54983) - http://www.bohemiancoding.com/sketch -->
    <title>Border_1stFloor_1</title>
    <desc>Created with Sketch.</desc>
    <defs></defs>
    <g id="Page-1" stroke="none" stroke-width="1" fill="none" fill-rule="evenodd">
        <path d="M10,3.5 C9.17157288,3.5 8.5,2.82842712 8.5,2 C8.5,1.17157288 9.17157288,0.5 10,0.5 L11,0.5 C11.8284271,0.5 12.5,1.17157288 12.5,2 C12.5,2.82842712 11.8284271,3.5 11,3.5 L10,3.5 Z M21,3.5 C20.1715729,3.5 19.5,2.82842712 19.5,2 C19.5,1.17157288 20.1715729,0.5 21,0.5 L22,0.5 C22.8284271,0.5 23.5,1.17157288 23.5,2 C23.5,2.82842712 22.8284271,3.5 22,3.5 L21,3.5 Z M32,3.5 C31.1715729,3.5 30.5,2.82842712 30.5,2 C30.5,1.17157288 31.1715729,0.5 32,0.5 L33,0.5 C33.8284271,0.5 34.5,1.17157288 34.5,2 C34.5,2.82842712 33.8284271,3.5 33,3.5 L32,3.5 Z M43,3.5 C42.1715729,3.5 41.5,2.82842712 41.5,2 C41.5,1.17157288 42.1715729,0.5 43,0.5 L44,0.5 C44.8284271,0.5 45.5,1.17157288 45.5,2 C45.5,2.82842712 44.8284271,3.5 44,3.5 L43,3.5 Z M54,3.5 C53.1715729,3.5 52.5,2.82842712 52.5,2 C52.5,1.17157288 53.1715729,0.5 54,0.5 L55,0.5 C55.8284271,0.5 56.5,1.17157288 56.5,2 C56.5,2.82842712 55.8284271,3.5 55,3.5 L54,3.5 Z M65,3.5 C64.1715729,3.5 63.5,2.82842712 63.5,2 C63.5,1.17157288 64.1715729,0.5 65,0.5 L66,0.5 C66.8284271,0.5 67.5,1.17157288 67.5,2 C67.5,2.82842712 66.8284271,3.5 66,3.5 L65,3.5 Z M76,3.5 C75.1715729,3.5 74.5,2.82842712 74.5,2 C74.5,1.17157288 75.1715729,0.5 76,0.5 L77,0.5 C77.8284271,0.5 78.5,1.17157288 78.5,2 C78.5,2.82842712 77.8284271,3.5 77,3.5 L76,3.5 Z M87,3.5 C86.1715729,3.5 85.5,2.82842712 85.5,2 C85.5,1.17157288 86.1715729,0.5 87,0.5 L88,0.5 C88.8284271,0.5 89.5,1.17157288 89.5,2 C89.5,2.82842712 88.8284271,3.5 88,3.5 L87,3.5 Z M98,3.5 C97.1715729,3.5 96.5,2.82842712 96.5,2 C96.5,1.17157288 97.1715729,0.5 98,0.5 L99,0.5 C99.8284271,0.5 100.5,1.17157288 100.5,2 C100.5,2.82842712 99.8284271,3.5 99,3.5 L98,3.5 Z M109,3.5 C108.171573,3.5 107.5,2.82842712 107.5,2 C107.5,1.17157288 108.171573,0.5 109,0.5 L110,0.5 C110.828427,0.5 111.5,1.17157288 111.5,2 C111.5,2.82842712 110.828427,3.5 110,3.5 L109,3.5 Z M120,3.5 C119.171573,3.5 118.5,2.82842712 118.5,2 C118.5,1.17157288 119.171573,0.5 120,0.5 L121,0.5 C121.828427,0.5 122.5,1.17157288 122.5,2 C122.5,2.82842712 121.828427,3.5 121,3.5 L120,3.5 Z M131,3.5 C130.171573,3.5 129.5,2.82842712 129.5,2 C129.5,1.17157288 130.171573,0.5 131,0.5 L132,0.5 C132.828427,0.5 133.5,1.17157288 133.5,2 C133.5,2.82842712 132.828427,3.5 132,3.5 L131,3.5 Z M142,3.5 C141.171573,3.5 140.5,2.82842712 140.5,2 C140.5,1.17157288 141.171573,0.5 142,0.5 L143,0.5 C143.828427,0.5 144.5,1.17157288 144.5,2 C144.5,2.82842712 143.828427,3.5 143,3.5 L142,3.5 Z M153,3.5 C152.171573,3.5 151.5,2.82842712 151.5,2 C151.5,1.17157288 152.171573,0.5 153,0.5 L154,0.5 C154.828427,0.5 155.5,1.17157288 155.5,2 C155.5,2.82842712 154.828427,3.5 154,3.5 L153,3.5 Z M164,3.5 C163.171573,3.5 162.5,2.82842712 162.5,2 C162.5,1.17157288 163.171573,0.5 164,0.5 L165,0.5 C165.828427,0.5 166.5,1.17157288 166.5,2 C166.5,2.82842712 165.828427,3.5 165,3.5 L164,3.5 Z M175,3.5 C174.171573,3.5 173.5,2.82842712 173.5,2 C173.5,1.17157288 174.171573,0.5 175,0.5 L176,0.5 C176.828427,0.5 177.5,1.17157288 177.5,2 C177.5,2.82842712 176.828427,3.5 176,3.5 L175,3.5 Z M186,3.5 C185.171573,3.5 184.5,2.82842712 184.5,2 C184.5,1.17157288 185.171573,0.5 186,0.5 L187,0.5 C187.828427,0.5 188.5,1.17157288 188.5,2 C188.5,2.82842712 187.828427,3.5 187,3.5 L186,3.5 Z M197,3.5 C196.171573,3.5 195.5,2.82842712 195.5,2 C195.5,1.17157288 196.171573,0.5 197,0.5 L198,0.5 C198.828427,0.5 199.5,1.17157288 199.5,2 C199.5,2.82842712 198.828427,3.5 198,3.5 L197,3.5 Z M208,3.5 C207.171573,3.5 206.5,2.82842712 206.5,2 C206.5,1.17157288 207.171573,0.5 208,0.5 L209,0.5 C209.828427,0.5 210.5,1.17157288 210.5,2 C210.5,2.82842712 209.828427,3.5 209,3.5 L208,3.5 Z M219,3.5 C218.171573,3.5 217.5,2.82842712 217.5,2 C217.5,1.17157288 218.171573,0.5 219,0.5 L220,0.5 C220.828427,0.5 221.5,1.17157288 221.5,2 C221.5,2.82842712 220.828427,3.5 220,3.5 L219,3.5 Z M230,3.5 C229.171573,3.5 228.5,2.82842712 228.5,2 C228.5,1.17157288 229.171573,0.5 230,0.5 L231,0.5 C231.828427,0.5 232.5,1.17157288 232.5,2 C232.5,2.82842712 231.828427,3.5 231,3.5 L230,3.5 Z M241,3.5 C240.171573,3.5 239.5,2.82842712 239.5,2 C239.5,1.17157288 240.171573,0.5 241,0.5 L242,0.5 C242.828427,0.5 243.5,1.17157288 243.5,2 C243.5,2.82842712 242.828427,3.5 242,3.5 L241,3.5 Z M252,3.5 C251.171573,3.5 250.5,2.82842712 250.5,2 C250.5,1.17157288 251.171573,0.5 252,0.5 L253,0.5 C253.828427,0.5 254.5,1.17157288 254.5,2 C254.5,2.82842712 253.828427,3.5 253,3.5 L252,3.5 Z M263,3.5 C262.171573,3.5 261.5,2.82842712 261.5,2 C261.5,1.17157288 262.171573,0.5 263,0.5 L264,0.5 C264.828427,0.5 265.5,1.17157288 265.5,2 C265.5,2.82842712 264.828427,3.5 264,3.5 L263,3.5 Z M274,3.5 C273.171573,3.5 272.5,2.82842712 272.5,2 C272.5,1.17157288 273.171573,0.5 274,0.5 L275,0.5 C275.828427,0.5 276.5,1.17157288 276.5,2 C276.5,2.82842712 275.828427,3.5 275,3.5 L274,3.5 Z M285,3.5 C284.171573,3.5 283.5,2.82842712 283.5,2 C283.5,1.17157288 284.171573,0.5 285,0.5 L286,0.5 C286.828427,0.5 287.5,1.17157288 287.5,2 C287.5,2.82842712 286.828427,3.5 286,3.5 L285,3.5 Z M296,3.5 C295.171573,3.5 294.5,2.82842712 294.5,2 C294.5,1.17157288 295.171573,0.5 296,0.5 L297,0.5 C297.828427,0.5 298.5,1.17157288 298.5,2 C298.5,2.82842712 297.828427,3.5 297,3.5 L296,3.5 Z M307,3.5 C306.171573,3.5 305.5,2.82842712 305.5,2 C305.5,1.17157288 306.171573,0.5 307,0.5 L308,0.5 C308.828427,0.5 309.5,1.17157288 309.5,2 C309.5,2.82842712 308.828427,3.5 308,3.5 L307,3.5 Z M318,3.5 C317.171573,3.5 316.5,2.82842712 316.5,2 C316.5,1.17157288 317.171573,0.5 318,0.5 L319,0.5 C319.828427,0.5 320.5,1.17157288 320.5,2 C320.5,2.82842712 319.828427,3.5 319,3.5 L318,3.5 Z M329,3.5 C328.171573,3.5 327.5,2.82842712 327.5,2 C327.5,1.17157288 328.171573,0.5 329,0.5 L330,0.5 C330.828427,0.5 331.5,1.17157288 331.5,2 C331.5,2.82842712 330.828427,3.5 330,3.5 L329,3.5 Z M340,3.5 C339.171573,3.5 338.5,2.82842712 338.5,2 C338.5,1.17157288 339.171573,0.5 340,0.5 L341,0.5 C341.828427,0.5 342.5,1.17157288 342.5,2 C342.5,2.82842712 341.828427,3.5 341,3.5 L340,3.5 Z M351,3.5 C350.171573,3.5 349.5,2.82842712 349.5,2 C349.5,1.17157288 350.171573,0.5 351,0.5 L352,0.5 C352.828427,0.5 353.5,1.17157288 353.5,2 C353.5,2.82842712 352.828427,3.5 352,3.5 L351,3.5 Z M362,3.5 C361.171573,3.5 360.5,2.82842712 360.5,2 C360.5,1.17157288 361.171573,0.5 362,0.5 L363,0.5 C363.828427,0.5 364.5,1.17157288 364.5,2 C364.5,2.82842712 363.828427,3.5 363,3.5 L362,3.5 Z M373,3.5 C372.171573,3.5 371.5,2.82842712 371.5,2 C371.5,1.17157288 372.171573,0.5 373,0.5 L374,0.5 C374.828427,0.5 375.5,1.17157288 375.5,2 C375.5,2.82842712 374.828427,3.5 374,3.5 L373,3.5 Z M384,3.5 C383.171573,3.5 382.5,2.82842712 382.5,2 C382.5,1.17157288 383.171573,0.5 384,0.5 L385,0.5 C385.828427,0.5 386.5,1.17157288 386.5,2 C386.5,2.82842712 385.828427,3.5 385,3.5 L384,3.5 Z M395,3.5 C394.171573,3.5 393.5,2.82842712 393.5,2 C393.5,1.17157288 394.171573,0.5 395,0.5 L396,0.5 C396.828427,0.5 397.5,1.17157288 397.5,2 C397.5,2.82842712 396.828427,3.5 396,3.5 L395,3.5 Z M406,3.5 C405.171573,3.5 404.5,2.82842712 404.5,2 C404.5,1.17157288 405.171573,0.5 406,0.5 L407,0.5 C407.828427,0.5 408.5,1.17157288 408.5,2 C408.5,2.82842712 407.828427,3.5 407,3.5 L406,3.5 Z M417,3.5 C416.171573,3.5 415.5,2.82842712 415.5,2 C415.5,1.17157288 416.171573,0.5 417,0.5 L418,0.5 C418.828427,0.5 419.5,1.17157288 419.5,2 C419.5,2.82842712 418.828427,3.5 418,3.5 L417,3.5 Z M428,3.5 C427.171573,3.5 426.5,2.82842712 426.5,2 C426.5,1.17157288 427.171573,0.5 428,0.5 L429,0.5 C429.828427,0.5 430.5,1.17157288 430.5,2 C430.5,2.82842712 429.828427,3.5 429,3.5 L428,3.5 Z M439,3.5 C438.171573,3.5 437.5,2.82842712 437.5,2 C437.5,1.17157288 438.171573,0.5 439,0.5 L440,0.5 C440.828427,0.5 441.5,1.17157288 441.5,2 C441.5,2.82842712 440.828427,3.5 440,3.5 L439,3.5 Z M450,3.5 C449.171573,3.5 448.5,2.82842712 448.5,2 C448.5,1.17157288 449.171573,0.5 450,0.5 L451,0.5 C451.828427,0.5 452.5,1.17157288 452.5,2 C452.5,2.82842712 451.828427,3.5 451,3.5 L450,3.5 Z M461,3.5 C460.171573,3.5 459.5,2.82842712 459.5,2 C459.5,1.17157288 460.171573,0.5 461,0.5 L462,0.5 C462.828427,0.5 463.5,1.17157288 463.5,2 C463.5,2.82842712 462.828427,3.5 462,3.5 L461,3.5 Z M472,3.5 C471.171573,3.5 470.5,2.82842712 470.5,2 C470.5,1.17157288 471.171573,0.5 472,0.5 L473,0.5 C473.828427,0.5 474.5,1.17157288 474.5,2 C474.5,2.82842712 473.828427,3.5 473,3.5 L472,3.5 Z M483,3.5 C482.171573,3.5 481.5,2.82842712 481.5,2 C481.5,1.17157288 482.171573,0.5 483,0.5 L484,0.5 C484.828427,0.5 485.5,1.17157288 485.5,2 C485.5,2.82842712 484.828427,3.5 484,3.5 L483,3.5 Z M494,3.5 C493.171573,3.5 492.5,2.82842712 492.5,2 C492.5,1.17157288 493.171573,0.5 494,0.5 L495,0.5 C495.828427,0.5 496.5,1.17157288 496.5,2 C496.5,2.82842712 495.828427,3.5 495,3.5 L494,3.5 Z M505,3.5 C504.171573,3.5 503.5,2.82842712 503.5,2 C503.5,1.17157288 504.171573,0.5 505,0.5 L506,0.5 C506.828427,0.5 507.5,1.17157288 507.5,2 C507.5,2.82842712 506.828427,3.5 506,3.5 L505,3.5 Z M516,3.5 C515.171573,3.5 514.5,2.82842712 514.5,2 C514.5,1.17157288 515.171573,0.5 516,0.5 L517,0.5 C517.828427,0.5 518.5,1.17157288 518.5,2 C518.5,2.82842712 517.828427,3.5 517,3.5 L516,3.5 Z M527,3.5 C526.171573,3.5 525.5,2.82842712 525.5,2 C525.5,1.17157288 526.171573,0.5 527,0.5 L527.963908,0.5 C527.988375,0.500035017 527.988375,0.500035017 528.012809,0.500209813 C528.841206,0.507320723 529.50699,1.18463339 529.499879,2.01302999 C529.492768,2.8414266 528.815455,3.5072102 527.987059,3.50009929 C527.975499,3.5000166 527.975499,3.5000166 527.963908,3.5 L527,3.5 Z M529.5,10.2151778 C529.5,9.38675068 530.171573,8.7151778 531,8.7151778 C531.828427,8.7151778 532.5,9.38675068 532.5,10.2151778 L532.5,11.2151778 C532.5,12.0436049 531.828427,12.7151778 531,12.7151778 C530.171573,12.7151778 529.5,12.0436049 529.5,11.2151778 L529.5,10.2151778 Z M529.5,21.2151778 C529.5,20.3867507 530.171573,19.7151778 531,19.7151778 C531.828427,19.7151778 532.5,20.3867507 532.5,21.2151778 L532.5,22.2151778 C532.5,23.0436049 531.828427,23.7151778 531,23.7151778 C530.171573,23.7151778 529.5,23.0436049 529.5,22.2151778 L529.5,21.2151778 Z M529.5,32.2151778 C529.5,31.3867507 530.171573,30.7151778 531,30.7151778 C531.828427,30.7151778 532.5,31.3867507 532.5,32.2151778 L532.5,33.2151778 C532.5,34.0436049 531.828427,34.7151778 531,34.7151778 C530.171573,34.7151778 529.5,34.0436049 529.5,33.2151778 L529.5,32.2151778 Z M529.5,43.2151778 C529.5,42.3867507 530.171573,41.7151778 531,41.7151778 C531.828427,41.7151778 532.5,42.3867507 532.5,43.2151778 L532.5,44.2151778 C532.5,45.0436049 531.828427,45.7151778 531,45.7151778 C530.171573,45.7151778 529.5,45.0436049 529.5,44.2151778 L529.5,43.2151778 Z M529.5,54.2151778 C529.5,53.3867507 530.171573,52.7151778 531,52.7151778 C531.828427,52.7151778 532.5,53.3867507 532.5,54.2151778 L532.5,55.2151778 C532.5,56.0436049 531.828427,56.7151778 531,56.7151778 C530.171573,56.7151778 529.5,56.0436049 529.5,55.2151778 L529.5,54.2151778 Z M529.5,65.2151778 C529.5,64.3867507 530.171573,63.7151778 531,63.7151778 C531.828427,63.7151778 532.5,64.3867507 532.5,65.2151778 L532.5,66.2151778 C532.5,67.0436049 531.828427,67.7151778 531,67.7151778 C530.171573,67.7151778 529.5,67.0436049 529.5,66.2151778 L529.5,65.2151778 Z M529.5,76.2151778 C529.5,75.3867507 530.171573,74.7151778 531,74.7151778 C531.828427,74.7151778 532.5,75.3867507 532.5,76.2151778 L532.5,77.2151778 C532.5,78.0436049 531.828427,78.7151778 531,78.7151778 C530.171573,78.7151778 529.5,78.0436049 529.5,77.2151778 L529.5,76.2151778 Z M529.5,87.2151778 C529.5,86.3867507 530.171573,85.7151778 531,85.7151778 C531.828427,85.7151778 532.5,86.3867507 532.5,87.2151778 L532.5,88.2151778 C532.5,89.0436049 531.828427,89.7151778 531,89.7151778 C530.171573,89.7151778 529.5,89.0436049 529.5,88.2151778 L529.5,87.2151778 Z M529.5,98.2151778 C529.5,97.3867507 530.171573,96.7151778 531,96.7151778 C531.828427,96.7151778 532.5,97.3867507 532.5,98.2151778 L532.5,99.2151778 C532.5,100.043605 531.828427,100.715178 531,100.715178 C530.171573,100.715178 529.5,100.043605 529.5,99.2151778 L529.5,98.2151778 Z M529.5,109.215178 C529.5,108.386751 530.171573,107.715178 531,107.715178 C531.828427,107.715178 532.5,108.386751 532.5,109.215178 L532.5,110.215178 C532.5,111.043605 531.828427,111.715178 531,111.715178 C530.171573,111.715178 529.5,111.043605 529.5,110.215178 L529.5,109.215178 Z M529.5,120.215178 C529.5,119.386751 530.171573,118.715178 531,118.715178 C531.828427,118.715178 532.5,119.386751 532.5,120.215178 L532.5,121.215178 C532.5,122.043605 531.828427,122.715178 531,122.715178 C530.171573,122.715178 529.5,122.043605 529.5,121.215178 L529.5,120.215178 Z M529.347188,130.028074 C529.933185,129.442498 530.882932,129.44284 531.468508,130.028837 C532.054084,130.614834 532.053742,131.564581 531.467745,132.150157 C531.115966,132.501683 530.691265,132.793305 530.216992,133.014463 C529.466183,133.364573 528.573712,133.039742 528.223602,132.288933 C527.873492,131.538124 528.198323,130.645652 528.949132,130.295542 C529.114384,130.218484 529.249454,130.125738 529.347188,130.028074 Z M519.569644,130.5 C520.398072,130.5 521.069644,131.171573 521.069644,132 C521.069644,132.828427 520.398072,133.5 519.569644,133.5 L518.569644,133.5 C517.741217,133.5 517.069644,132.828427 517.069644,132 C517.069644,131.171573 517.741217,130.5 518.569644,130.5 L519.569644,130.5 Z M508.569644,130.5 C509.398072,130.5 510.069644,131.171573 510.069644,132 C510.069644,132.828427 509.398072,133.5 508.569644,133.5 L507.569644,133.5 C506.741217,133.5 506.069644,132.828427 506.069644,132 C506.069644,131.171573 506.741217,130.5 507.569644,130.5 L508.569644,130.5 Z M497.569644,130.5 C498.398072,130.5 499.069644,131.171573 499.069644,132 C499.069644,132.828427 498.398072,133.5 497.569644,133.5 L496.569644,133.5 C495.741217,133.5 495.069644,132.828427 495.069644,132 C495.069644,131.171573 495.741217,130.5 496.569644,130.5 L497.569644,130.5 Z M486.569644,130.5 C487.398072,130.5 488.069644,131.171573 488.069644,132 C488.069644,132.828427 487.398072,133.5 486.569644,133.5 L485.569644,133.5 C484.741217,133.5 484.069644,132.828427 484.069644,132 C484.069644,131.171573 484.741217,130.5 485.569644,130.5 L486.569644,130.5 Z M475.569644,130.5 C476.398072,130.5 477.069644,131.171573 477.069644,132 C477.069644,132.828427 476.398072,133.5 475.569644,133.5 L474.569644,133.5 C473.741217,133.5 473.069644,132.828427 473.069644,132 C473.069644,131.171573 473.741217,130.5 474.569644,130.5 L475.569644,130.5 Z M464.569644,130.5 C465.398072,130.5 466.069644,131.171573 466.069644,132 C466.069644,132.828427 465.398072,133.5 464.569644,133.5 L463.569644,133.5 C462.741217,133.5 462.069644,132.828427 462.069644,132 C462.069644,131.171573 462.741217,130.5 463.569644,130.5 L464.569644,130.5 Z M453.569644,130.5 C454.398072,130.5 455.069644,131.171573 455.069644,132 C455.069644,132.828427 454.398072,133.5 453.569644,133.5 L452.569644,133.5 C451.741217,133.5 451.069644,132.828427 451.069644,132 C451.069644,131.171573 451.741217,130.5 452.569644,130.5 L453.569644,130.5 Z M442.569644,130.5 C443.398072,130.5 444.069644,131.171573 444.069644,132 C444.069644,132.828427 443.398072,133.5 442.569644,133.5 L441.569644,133.5 C440.741217,133.5 440.069644,132.828427 440.069644,132 C440.069644,131.171573 440.741217,130.5 441.569644,130.5 L442.569644,130.5 Z M431.569644,130.5 C432.398072,130.5 433.069644,131.171573 433.069644,132 C433.069644,132.828427 432.398072,133.5 431.569644,133.5 L430.569644,133.5 C429.741217,133.5 429.069644,132.828427 429.069644,132 C429.069644,131.171573 429.741217,130.5 430.569644,130.5 L431.569644,130.5 Z M420.569644,130.5 C421.398072,130.5 422.069644,131.171573 422.069644,132 C422.069644,132.828427 421.398072,133.5 420.569644,133.5 L419.569644,133.5 C418.741217,133.5 418.069644,132.828427 418.069644,132 C418.069644,131.171573 418.741217,130.5 419.569644,130.5 L420.569644,130.5 Z M409.569644,130.5 C410.398072,130.5 411.069644,131.171573 411.069644,132 C411.069644,132.828427 410.398072,133.5 409.569644,133.5 L408.569644,133.5 C407.741217,133.5 407.069644,132.828427 407.069644,132 C407.069644,131.171573 407.741217,130.5 408.569644,130.5 L409.569644,130.5 Z M398.569644,130.5 C399.398072,130.5 400.069644,131.171573 400.069644,132 C400.069644,132.828427 399.398072,133.5 398.569644,133.5 L397.569644,133.5 C396.741217,133.5 396.069644,132.828427 396.069644,132 C396.069644,131.171573 396.741217,130.5 397.569644,130.5 L398.569644,130.5 Z M387.569644,130.5 C388.398072,130.5 389.069644,131.171573 389.069644,132 C389.069644,132.828427 388.398072,133.5 387.569644,133.5 L386.569644,133.5 C385.741217,133.5 385.069644,132.828427 385.069644,132 C385.069644,131.171573 385.741217,130.5 386.569644,130.5 L387.569644,130.5 Z M376.569644,130.5 C377.398072,130.5 378.069644,131.171573 378.069644,132 C378.069644,132.828427 377.398072,133.5 376.569644,133.5 L375.569644,133.5 C374.741217,133.5 374.069644,132.828427 374.069644,132 C374.069644,131.171573 374.741217,130.5 375.569644,130.5 L376.569644,130.5 Z M365.569644,130.5 C366.398072,130.5 367.069644,131.171573 367.069644,132 C367.069644,132.828427 366.398072,133.5 365.569644,133.5 L364.569644,133.5 C363.741217,133.5 363.069644,132.828427 363.069644,132 C363.069644,131.171573 363.741217,130.5 364.569644,130.5 L365.569644,130.5 Z M354.569644,130.5 C355.398072,130.5 356.069644,131.171573 356.069644,132 C356.069644,132.828427 355.398072,133.5 354.569644,133.5 L353.569644,133.5 C352.741217,133.5 352.069644,132.828427 352.069644,132 C352.069644,131.171573 352.741217,130.5 353.569644,130.5 L354.569644,130.5 Z M343.569644,130.5 C344.398072,130.5 345.069644,131.171573 345.069644,132 C345.069644,132.828427 344.398072,133.5 343.569644,133.5 L342.569644,133.5 C341.741217,133.5 341.069644,132.828427 341.069644,132 C341.069644,131.171573 341.741217,130.5 342.569644,130.5 L343.569644,130.5 Z M332.569644,130.5 C333.398072,130.5 334.069644,131.171573 334.069644,132 C334.069644,132.828427 333.398072,133.5 332.569644,133.5 L331.569644,133.5 C330.741217,133.5 330.069644,132.828427 330.069644,132 C330.069644,131.171573 330.741217,130.5 331.569644,130.5 L332.569644,130.5 Z M321.569644,130.5 C322.398072,130.5 323.069644,131.171573 323.069644,132 C323.069644,132.828427 322.398072,133.5 321.569644,133.5 L320.569644,133.5 C319.741217,133.5 319.069644,132.828427 319.069644,132 C319.069644,131.171573 319.741217,130.5 320.569644,130.5 L321.569644,130.5 Z M310.569644,130.5 C311.398072,130.5 312.069644,131.171573 312.069644,132 C312.069644,132.828427 311.398072,133.5 310.569644,133.5 L309.569644,133.5 C308.741217,133.5 308.069644,132.828427 308.069644,132 C308.069644,131.171573 308.741217,130.5 309.569644,130.5 L310.569644,130.5 Z M299.569644,130.5 C300.398072,130.5 301.069644,131.171573 301.069644,132 C301.069644,132.828427 300.398072,133.5 299.569644,133.5 L298.569644,133.5 C297.741217,133.5 297.069644,132.828427 297.069644,132 C297.069644,131.171573 297.741217,130.5 298.569644,130.5 L299.569644,130.5 Z M288.569644,130.5 C289.398072,130.5 290.069644,131.171573 290.069644,132 C290.069644,132.828427 289.398072,133.5 288.569644,133.5 L287.569644,133.5 C286.741217,133.5 286.069644,132.828427 286.069644,132 C286.069644,131.171573 286.741217,130.5 287.569644,130.5 L288.569644,130.5 Z M277.569644,130.5 C278.398072,130.5 279.069644,131.171573 279.069644,132 C279.069644,132.828427 278.398072,133.5 277.569644,133.5 L276.569644,133.5 C275.741217,133.5 275.069644,132.828427 275.069644,132 C275.069644,131.171573 275.741217,130.5 276.569644,130.5 L277.569644,130.5 Z M266.569644,130.5 C267.398072,130.5 268.069644,131.171573 268.069644,132 C268.069644,132.828427 267.398072,133.5 266.569644,133.5 L265.569644,133.5 C264.741217,133.5 264.069644,132.828427 264.069644,132 C264.069644,131.171573 264.741217,130.5 265.569644,130.5 L266.569644,130.5 Z M255.569644,130.5 C256.398072,130.5 257.069644,131.171573 257.069644,132 C257.069644,132.828427 256.398072,133.5 255.569644,133.5 L254.569644,133.5 C253.741217,133.5 253.069644,132.828427 253.069644,132 C253.069644,131.171573 253.741217,130.5 254.569644,130.5 L255.569644,130.5 Z M244.569644,130.5 C245.398072,130.5 246.069644,131.171573 246.069644,132 C246.069644,132.828427 245.398072,133.5 244.569644,133.5 L243.569644,133.5 C242.741217,133.5 242.069644,132.828427 242.069644,132 C242.069644,131.171573 242.741217,130.5 243.569644,130.5 L244.569644,130.5 Z M233.569644,130.5 C234.398072,130.5 235.069644,131.171573 235.069644,132 C235.069644,132.828427 234.398072,133.5 233.569644,133.5 L232.569644,133.5 C231.741217,133.5 231.069644,132.828427 231.069644,132 C231.069644,131.171573 231.741217,130.5 232.569644,130.5 L233.569644,130.5 Z M222.569644,130.5 C223.398072,130.5 224.069644,131.171573 224.069644,132 C224.069644,132.828427 223.398072,133.5 222.569644,133.5 L221.569644,133.5 C220.741217,133.5 220.069644,132.828427 220.069644,132 C220.069644,131.171573 220.741217,130.5 221.569644,130.5 L222.569644,130.5 Z M211.569644,130.5 C212.398072,130.5 213.069644,131.171573 213.069644,132 C213.069644,132.828427 212.398072,133.5 211.569644,133.5 L210.569644,133.5 C209.741217,133.5 209.069644,132.828427 209.069644,132 C209.069644,131.171573 209.741217,130.5 210.569644,130.5 L211.569644,130.5 Z M200.569644,130.5 C201.398072,130.5 202.069644,131.171573 202.069644,132 C202.069644,132.828427 201.398072,133.5 200.569644,133.5 L199.569644,133.5 C198.741217,133.5 198.069644,132.828427 198.069644,132 C198.069644,131.171573 198.741217,130.5 199.569644,130.5 L200.569644,130.5 Z M189.569644,130.5 C190.398072,130.5 191.069644,131.171573 191.069644,132 C191.069644,132.828427 190.398072,133.5 189.569644,133.5 L188.569644,133.5 C187.741217,133.5 187.069644,132.828427 187.069644,132 C187.069644,131.171573 187.741217,130.5 188.569644,130.5 L189.569644,130.5 Z M178.569644,130.5 C179.398072,130.5 180.069644,131.171573 180.069644,132 C180.069644,132.828427 179.398072,133.5 178.569644,133.5 L177.569644,133.5 C176.741217,133.5 176.069644,132.828427 176.069644,132 C176.069644,131.171573 176.741217,130.5 177.569644,130.5 L178.569644,130.5 Z M167.569644,130.5 C168.398072,130.5 169.069644,131.171573 169.069644,132 C169.069644,132.828427 168.398072,133.5 167.569644,133.5 L166.569644,133.5 C165.741217,133.5 165.069644,132.828427 165.069644,132 C165.069644,131.171573 165.741217,130.5 166.569644,130.5 L167.569644,130.5 Z M156.569644,130.5 C157.398072,130.5 158.069644,131.171573 158.069644,132 C158.069644,132.828427 157.398072,133.5 156.569644,133.5 L155.569644,133.5 C154.741217,133.5 154.069644,132.828427 154.069644,132 C154.069644,131.171573 154.741217,130.5 155.569644,130.5 L156.569644,130.5 Z M145.569644,130.5 C146.398072,130.5 147.069644,131.171573 147.069644,132 C147.069644,132.828427 146.398072,133.5 145.569644,133.5 L144.569644,133.5 C143.741217,133.5 143.069644,132.828427 143.069644,132 C143.069644,131.171573 143.741217,130.5 144.569644,130.5 L145.569644,130.5 Z M134.569644,130.5 C135.398072,130.5 136.069644,131.171573 136.069644,132 C136.069644,132.828427 135.398072,133.5 134.569644,133.5 L133.569644,133.5 C132.741217,133.5 132.069644,132.828427 132.069644,132 C132.069644,131.171573 132.741217,130.5 133.569644,130.5 L134.569644,130.5 Z M123.569644,130.5 C124.398072,130.5 125.069644,131.171573 125.069644,132 C125.069644,132.828427 124.398072,133.5 123.569644,133.5 L122.569644,133.5 C121.741217,133.5 121.069644,132.828427 121.069644,132 C121.069644,131.171573 121.741217,130.5 122.569644,130.5 L123.569644,130.5 Z M112.569644,130.5 C113.398072,130.5 114.069644,131.171573 114.069644,132 C114.069644,132.828427 113.398072,133.5 112.569644,133.5 L111.569644,133.5 C110.741217,133.5 110.069644,132.828427 110.069644,132 C110.069644,131.171573 110.741217,130.5 111.569644,130.5 L112.569644,130.5 Z M101.569644,130.5 C102.398072,130.5 103.069644,131.171573 103.069644,132 C103.069644,132.828427 102.398072,133.5 101.569644,133.5 L100.569644,133.5 C99.7412173,133.5 99.0696444,132.828427 99.0696444,132 C99.0696444,131.171573 99.7412173,130.5 100.569644,130.5 L101.569644,130.5 Z M90.5696444,130.5 C91.3980715,130.5 92.0696444,131.171573 92.0696444,132 C92.0696444,132.828427 91.3980715,133.5 90.5696444,133.5 L89.5696444,133.5 C88.7412173,133.5 88.0696444,132.828427 88.0696444,132 C88.0696444,131.171573 88.7412173,130.5 89.5696444,130.5 L90.5696444,130.5 Z M79.5696444,130.5 C80.3980715,130.5 81.0696444,131.171573 81.0696444,132 C81.0696444,132.828427 80.3980715,133.5 79.5696444,133.5 L78.5696444,133.5 C77.7412173,133.5 77.0696444,132.828427 77.0696444,132 C77.0696444,131.171573 77.7412173,130.5 78.5696444,130.5 L79.5696444,130.5 Z M68.5696444,130.5 C69.3980715,130.5 70.0696444,131.171573 70.0696444,132 C70.0696444,132.828427 69.3980715,133.5 68.5696444,133.5 L67.5696444,133.5 C66.7412173,133.5 66.0696444,132.828427 66.0696444,132 C66.0696444,131.171573 66.7412173,130.5 67.5696444,130.5 L68.5696444,130.5 Z M57.5696444,130.5 C58.3980715,130.5 59.0696444,131.171573 59.0696444,132 C59.0696444,132.828427 58.3980715,133.5 57.5696444,133.5 L56.5696444,133.5 C55.7412173,133.5 55.0696444,132.828427 55.0696444,132 C55.0696444,131.171573 55.7412173,130.5 56.5696444,130.5 L57.5696444,130.5 Z M46.5696444,130.5 C47.3980715,130.5 48.0696444,131.171573 48.0696444,132 C48.0696444,132.828427 47.3980715,133.5 46.5696444,133.5 L45.5696444,133.5 C44.7412173,133.5 44.0696444,132.828427 44.0696444,132 C44.0696444,131.171573 44.7412173,130.5 45.5696444,130.5 L46.5696444,130.5 Z M35.5696444,130.5 C36.3980715,130.5 37.0696444,131.171573 37.0696444,132 C37.0696444,132.828427 36.3980715,133.5 35.5696444,133.5 L34.5696444,133.5 C33.7412173,133.5 33.0696444,132.828427 33.0696444,132 C33.0696444,131.171573 33.7412173,130.5 34.5696444,130.5 L35.5696444,130.5 Z M24.5696444,130.5 C25.3980715,130.5 26.0696444,131.171573 26.0696444,132 C26.0696444,132.828427 25.3980715,133.5 24.5696444,133.5 L23.5696444,133.5 C22.7412173,133.5 22.0696444,132.828427 22.0696444,132 C22.0696444,131.171573 22.7412173,130.5 23.5696444,130.5 L24.5696444,130.5 Z M13.5696444,130.5 C14.3980715,130.5 15.0696444,131.171573 15.0696444,132 C15.0696444,132.828427 14.3980715,133.5 13.5696444,133.5 L12.5696444,133.5 C11.7412173,133.5 11.0696444,132.828427 11.0696444,132 C11.0696444,131.171573 11.7412173,130.5 12.5696444,130.5 L13.5696444,130.5 Z M2.56964439,130.5 C3.39807152,130.5 4.06964439,131.171573 4.06964439,132 C4.06964439,132.828427 3.39807152,133.5 2.56964439,133.5 L2,133.5 C1.17157288,133.5 0.5,132.828427 0.5,132 C0.5,131.171573 1.17157288,130.5 2,130.5 L2.56964439,130.5 Z M0,5 C0,4.17157288 0.671572875,3.5 1.5,3.5 C2.32842712,3.5 3,4.17157288 3,5 L3,6 C3,6.82842712 2.32842712,7.5 1.5,7.5 C0.671572875,7.5 0,6.82842712 0,6 L0,5 Z M0,16 C0,15.1715729 0.671572875,14.5 1.5,14.5 C2.32842712,14.5 3,15.1715729 3,16 L3,17 C3,17.8284271 2.32842712,18.5 1.5,18.5 C0.671572875,18.5 0,17.8284271 0,17 L0,16 Z M0,27 C0,26.1715729 0.671572875,25.5 1.5,25.5 C2.32842712,25.5 3,26.1715729 3,27 L3,28 C3,28.8284271 2.32842712,29.5 1.5,29.5 C0.671572875,29.5 0,28.8284271 0,28 L0,27 Z M0,38 C0,37.1715729 0.671572875,36.5 1.5,36.5 C2.32842712,36.5 3,37.1715729 3,38 L3,39 C3,39.8284271 2.32842712,40.5 1.5,40.5 C0.671572875,40.5 0,39.8284271 0,39 L0,38 Z M0,49 C0,48.1715729 0.671572875,47.5 1.5,47.5 C2.32842712,47.5 3,48.1715729 3,49 L3,50 C3,50.8284271 2.32842712,51.5 1.5,51.5 C0.671572875,51.5 0,50.8284271 0,50 L0,49 Z M0,60 C0,59.1715729 0.671572875,58.5 1.5,58.5 C2.32842712,58.5 3,59.1715729 3,60 L3,61 C3,61.8284271 2.32842712,62.5 1.5,62.5 C0.671572875,62.5 0,61.8284271 0,61 L0,60 Z M0,71 C0,70.1715729 0.671572875,69.5 1.5,69.5 C2.32842712,69.5 3,70.1715729 3,71 L3,72 C3,72.8284271 2.32842712,73.5 1.5,73.5 C0.671572875,73.5 0,72.8284271 0,72 L0,71 Z M0,82 C0,81.1715729 0.671572875,80.5 1.5,80.5 C2.32842712,80.5 3,81.1715729 3,82 L3,83 C3,83.8284271 2.32842712,84.5 1.5,84.5 C0.671572875,84.5 0,83.8284271 0,83 L0,82 Z M0,93 C0,92.1715729 0.671572875,91.5 1.5,91.5 C2.32842712,91.5 3,92.1715729 3,93 L3,94 C3,94.8284271 2.32842712,95.5 1.5,95.5 C0.671572875,95.5 0,94.8284271 0,94 L0,93 Z M0,104 C0,103.171573 0.671572875,102.5 1.5,102.5 C2.32842712,102.5 3,103.171573 3,104 L3,105 C3,105.828427 2.32842712,106.5 1.5,106.5 C0.671572875,106.5 0,105.828427 0,105 L0,104 Z M0,115 C0,114.171573 0.671572875,113.5 1.5,113.5 C2.32842712,113.5 3,114.171573 3,115 L3,116 C3,116.828427 2.32842712,117.5 1.5,117.5 C0.671572875,117.5 0,116.828427 0,116 L0,115 Z M0,126 C0,125.171573 0.671572875,124.5 1.5,124.5 C2.32842712,124.5 3,125.171573 3,126 L3,127 C3,127.828427 2.32842712,128.5 1.5,128.5 C0.671572875,128.5 0,127.828427 0,127 L0,126 Z" id="Border_1stFloor_1" fill="#FE791A" fill-rule="nonzero"></path>
    </g>
</svg>