<?xml version="1.0" encoding="UTF-8" standalone="no"?>
<svg width="405px" height="134px" viewBox="0 0 405 134" version="1.1" xmlns="http://www.w3.org/2000/svg" xmlns:xlink="http://www.w3.org/1999/xlink">
    <!-- Generator: Sketch 50 (54983) - http://www.bohemiancoding.com/sketch -->
    <title>Border_2edFloor_1</title>
    <desc>Created with Sketch.</desc>
    <defs></defs>
    <g id="Page-1" stroke="none" stroke-width="1" fill="none" fill-rule="evenodd">
        <path d="M10.526465,3.5 C9.6980379,3.5 9.02646503,2.82842712 9.02646503,2 C9.02646503,1.17157288 9.6980379,0.5 10.526465,0.5 L11.526465,0.5 C12.3548922,0.5 13.026465,1.17157288 13.026465,2 C13.026465,2.82842712 12.3548922,3.5 11.526465,3.5 L10.526465,3.5 Z M21.526465,3.5 C20.6980379,3.5 20.026465,2.82842712 20.026465,2 C20.026465,1.17157288 20.6980379,0.5 21.526465,0.5 L22.526465,0.5 C23.3548922,0.5 24.026465,1.17157288 24.026465,2 C24.026465,2.82842712 23.3548922,3.5 22.526465,3.5 L21.526465,3.5 Z M32.526465,3.5 C31.6980379,3.5 31.026465,2.82842712 31.026465,2 C31.026465,1.17157288 31.6980379,0.5 32.526465,0.5 L33.526465,0.5 C34.3548922,0.5 35.026465,1.17157288 35.026465,2 C35.026465,2.82842712 34.3548922,3.5 33.526465,3.5 L32.526465,3.5 Z M43.526465,3.5 C42.6980379,3.5 42.026465,2.82842712 42.026465,2 C42.026465,1.17157288 42.6980379,0.5 43.526465,0.5 L44.526465,0.5 C45.3548922,0.5 46.026465,1.17157288 46.026465,2 C46.026465,2.82842712 45.3548922,3.5 44.526465,3.5 L43.526465,3.5 Z M54.526465,3.5 C53.6980379,3.5 53.026465,2.82842712 53.026465,2 C53.026465,1.17157288 53.6980379,0.5 54.526465,0.5 L55.526465,0.5 C56.3548922,0.5 57.026465,1.17157288 57.026465,2 C57.026465,2.82842712 56.3548922,3.5 55.526465,3.5 L54.526465,3.5 Z M65.526465,3.5 C64.6980379,3.5 64.026465,2.82842712 64.026465,2 C64.026465,1.17157288 64.6980379,0.5 65.526465,0.5 L66.526465,0.5 C67.3548922,0.5 68.026465,1.17157288 68.026465,2 C68.026465,2.82842712 67.3548922,3.5 66.526465,3.5 L65.526465,3.5 Z M76.526465,3.5 C75.6980379,3.5 75.026465,2.82842712 75.026465,2 C75.026465,1.17157288 75.6980379,0.5 76.526465,0.5 L77.526465,0.5 C78.3548922,0.5 79.026465,1.17157288 79.026465,2 C79.026465,2.82842712 78.3548922,3.5 77.526465,3.5 L76.526465,3.5 Z M87.526465,3.5 C86.6980379,3.5 86.026465,2.82842712 86.026465,2 C86.026465,1.17157288 86.6980379,0.5 87.526465,0.5 L88.526465,0.5 C89.3548922,0.5 90.026465,1.17157288 90.026465,2 C90.026465,2.82842712 89.3548922,3.5 88.526465,3.5 L87.526465,3.5 Z M98.526465,3.5 C97.6980379,3.5 97.026465,2.82842712 97.026465,2 C97.026465,1.17157288 97.6980379,0.5 98.526465,0.5 L99.526465,0.5 C100.354892,0.5 101.026465,1.17157288 101.026465,2 C101.026465,2.82842712 100.354892,3.5 99.526465,3.5 L98.526465,3.5 Z M109.526465,3.5 C108.698038,3.5 108.026465,2.82842712 108.026465,2 C108.026465,1.17157288 108.698038,0.5 109.526465,0.5 L110.526465,0.5 C111.354892,0.5 112.026465,1.17157288 112.026465,2 C112.026465,2.82842712 111.354892,3.5 110.526465,3.5 L109.526465,3.5 Z M120.526465,3.5 C119.698038,3.5 119.026465,2.82842712 119.026465,2 C119.026465,1.17157288 119.698038,0.5 120.526465,0.5 L121.526465,0.5 C122.354892,0.5 123.026465,1.17157288 123.026465,2 C123.026465,2.82842712 122.354892,3.5 121.526465,3.5 L120.526465,3.5 Z M131.526465,3.5 C130.698038,3.5 130.026465,2.82842712 130.026465,2 C130.026465,1.17157288 130.698038,0.5 131.526465,0.5 L132.526465,0.5 C133.354892,0.5 134.026465,1.17157288 134.026465,2 C134.026465,2.82842712 133.354892,3.5 132.526465,3.5 L131.526465,3.5 Z M142.526465,3.5 C141.698038,3.5 141.026465,2.82842712 141.026465,2 C141.026465,1.17157288 141.698038,0.5 142.526465,0.5 L143.526465,0.5 C144.354892,0.5 145.026465,1.17157288 145.026465,2 C145.026465,2.82842712 144.354892,3.5 143.526465,3.5 L142.526465,3.5 Z M153.526465,3.5 C152.698038,3.5 152.026465,2.82842712 152.026465,2 C152.026465,1.17157288 152.698038,0.5 153.526465,0.5 L154.526465,0.5 C155.354892,0.5 156.026465,1.17157288 156.026465,2 C156.026465,2.82842712 155.354892,3.5 154.526465,3.5 L153.526465,3.5 Z M164.526465,3.5 C163.698038,3.5 163.026465,2.82842712 163.026465,2 C163.026465,1.17157288 163.698038,0.5 164.526465,0.5 L165.526465,0.5 C166.354892,0.5 167.026465,1.17157288 167.026465,2 C167.026465,2.82842712 166.354892,3.5 165.526465,3.5 L164.526465,3.5 Z M175.526465,3.5 C174.698038,3.5 174.026465,2.82842712 174.026465,2 C174.026465,1.17157288 174.698038,0.5 175.526465,0.5 L176.526465,0.5 C177.354892,0.5 178.026465,1.17157288 178.026465,2 C178.026465,2.82842712 177.354892,3.5 176.526465,3.5 L175.526465,3.5 Z M186.526465,3.5 C185.698038,3.5 185.026465,2.82842712 185.026465,2 C185.026465,1.17157288 185.698038,0.5 186.526465,0.5 L187.526465,0.5 C188.354892,0.5 189.026465,1.17157288 189.026465,2 C189.026465,2.82842712 188.354892,3.5 187.526465,3.5 L186.526465,3.5 Z M197.526465,3.5 C196.698038,3.5 196.026465,2.82842712 196.026465,2 C196.026465,1.17157288 196.698038,0.5 197.526465,0.5 L198.526465,0.5 C199.354892,0.5 200.026465,1.17157288 200.026465,2 C200.026465,2.82842712 199.354892,3.5 198.526465,3.5 L197.526465,3.5 Z M208.526465,3.5 C207.698038,3.5 207.026465,2.82842712 207.026465,2 C207.026465,1.17157288 207.698038,0.5 208.526465,0.5 L209.526465,0.5 C210.354892,0.5 211.026465,1.17157288 211.026465,2 C211.026465,2.82842712 210.354892,3.5 209.526465,3.5 L208.526465,3.5 Z M219.526465,3.5 C218.698038,3.5 218.026465,2.82842712 218.026465,2 C218.026465,1.17157288 218.698038,0.5 219.526465,0.5 L220.526465,0.5 C221.354892,0.5 222.026465,1.17157288 222.026465,2 C222.026465,2.82842712 221.354892,3.5 220.526465,3.5 L219.526465,3.5 Z M230.526465,3.5 C229.698038,3.5 229.026465,2.82842712 229.026465,2 C229.026465,1.17157288 229.698038,0.5 230.526465,0.5 L231.526465,0.5 C232.354892,0.5 233.026465,1.17157288 233.026465,2 C233.026465,2.82842712 232.354892,3.5 231.526465,3.5 L230.526465,3.5 Z M241.526465,3.5 C240.698038,3.5 240.026465,2.82842712 240.026465,2 C240.026465,1.17157288 240.698038,0.5 241.526465,0.5 L242.526465,0.5 C243.354892,0.5 244.026465,1.17157288 244.026465,2 C244.026465,2.82842712 243.354892,3.5 242.526465,3.5 L241.526465,3.5 Z M252.526465,3.5 C251.698038,3.5 251.026465,2.82842712 251.026465,2 C251.026465,1.17157288 251.698038,0.5 252.526465,0.5 L253.526465,0.5 C254.354892,0.5 255.026465,1.17157288 255.026465,2 C255.026465,2.82842712 254.354892,3.5 253.526465,3.5 L252.526465,3.5 Z M263.526465,3.5 C262.698038,3.5 262.026465,2.82842712 262.026465,2 C262.026465,1.17157288 262.698038,0.5 263.526465,0.5 L264.526465,0.5 C265.354892,0.5 266.026465,1.17157288 266.026465,2 C266.026465,2.82842712 265.354892,3.5 264.526465,3.5 L263.526465,3.5 Z M274.526465,3.5 C273.698038,3.5 273.026465,2.82842712 273.026465,2 C273.026465,1.17157288 273.698038,0.5 274.526465,0.5 L275.526465,0.5 C276.354892,0.5 277.026465,1.17157288 277.026465,2 C277.026465,2.82842712 276.354892,3.5 275.526465,3.5 L274.526465,3.5 Z M285.526465,3.5 C284.698038,3.5 284.026465,2.82842712 284.026465,2 C284.026465,1.17157288 284.698038,0.5 285.526465,0.5 L286.526465,0.5 C287.354892,0.5 288.026465,1.17157288 288.026465,2 C288.026465,2.82842712 287.354892,3.5 286.526465,3.5 L285.526465,3.5 Z M296.526465,3.5 C295.698038,3.5 295.026465,2.82842712 295.026465,2 C295.026465,1.17157288 295.698038,0.5 296.526465,0.5 L297.526465,0.5 C298.354892,0.5 299.026465,1.17157288 299.026465,2 C299.026465,2.82842712 298.354892,3.5 297.526465,3.5 L296.526465,3.5 Z M307.526465,3.5 C306.698038,3.5 306.026465,2.82842712 306.026465,2 C306.026465,1.17157288 306.698038,0.5 307.526465,0.5 L308.526465,0.5 C309.354892,0.5 310.026465,1.17157288 310.026465,2 C310.026465,2.82842712 309.354892,3.5 308.526465,3.5 L307.526465,3.5 Z M318.526465,3.5 C317.698038,3.5 317.026465,2.82842712 317.026465,2 C317.026465,1.17157288 317.698038,0.5 318.526465,0.5 L319.526465,0.5 C320.354892,0.5 321.026465,1.17157288 321.026465,2 C321.026465,2.82842712 320.354892,3.5 319.526465,3.5 L318.526465,3.5 Z M329.526465,3.5 C328.698038,3.5 328.026465,2.82842712 328.026465,2 C328.026465,1.17157288 328.698038,0.5 329.526465,0.5 L330.526465,0.5 C331.354892,0.5 332.026465,1.17157288 332.026465,2 C332.026465,2.82842712 331.354892,3.5 330.526465,3.5 L329.526465,3.5 Z M340.526465,3.5 C339.698038,3.5 339.026465,2.82842712 339.026465,2 C339.026465,1.17157288 339.698038,0.5 340.526465,0.5 L341.526465,0.5 C342.354892,0.5 343.026465,1.17157288 343.026465,2 C343.026465,2.82842712 342.354892,3.5 341.526465,3.5 L340.526465,3.5 Z M351.526465,3.5 C350.698038,3.5 350.026465,2.82842712 350.026465,2 C350.026465,1.17157288 350.698038,0.5 351.526465,0.5 L352.526465,0.5 C353.354892,0.5 354.026465,1.17157288 354.026465,2 C354.026465,2.82842712 353.354892,3.5 352.526465,3.5 L351.526465,3.5 Z M362.526465,3.5 C361.698038,3.5 361.026465,2.82842712 361.026465,2 C361.026465,1.17157288 361.698038,0.5 362.526465,0.5 L363.526465,0.5 C364.354892,0.5 365.026465,1.17157288 365.026465,2 C365.026465,2.82842712 364.354892,3.5 363.526465,3.5 L362.526465,3.5 Z M373.526465,3.5 C372.698038,3.5 372.026465,2.82842712 372.026465,2 C372.026465,1.17157288 372.698038,0.5 373.526465,0.5 L374.526465,0.5 C375.354892,0.5 376.026465,1.17157288 376.026465,2 C376.026465,2.82842712 375.354892,3.5 374.526465,3.5 L373.526465,3.5 Z M384.526465,3.5 C383.698038,3.5 383.026465,2.82842712 383.026465,2 C383.026465,1.17157288 383.698038,0.5 384.526465,0.5 L385.526465,0.5 C386.354892,0.5 387.026465,1.17157288 387.026465,2 C387.026465,2.82842712 386.354892,3.5 385.526465,3.5 L384.526465,3.5 Z M395.526465,3.5 C394.698038,3.5 394.026465,2.82842712 394.026465,2 C394.026465,1.17157288 394.698038,0.5 395.526465,0.5 L396.526465,0.5 C397.354892,0.5 398.026465,1.17157288 398.026465,2 C398.026465,2.82842712 397.354892,3.5 396.526465,3.5 L395.526465,3.5 Z M401.5,6.58891104 C401.5,5.76048391 402.171573,5.08891104 403,5.08891104 C403.828427,5.08891104 404.5,5.76048391 404.5,6.58891104 L404.5,7.58891104 C404.5,8.41733816 403.828427,9.08891104 403,9.08891104 C402.171573,9.08891104 401.5,8.41733816 401.5,7.58891104 L401.5,6.58891104 Z M401.5,17.588911 C401.5,16.7604839 402.171573,16.088911 403,16.088911 C403.828427,16.088911 404.5,16.7604839 404.5,17.588911 L404.5,18.588911 C404.5,19.4173382 403.828427,20.088911 403,20.088911 C402.171573,20.088911 401.5,19.4173382 401.5,18.588911 L401.5,17.588911 Z M401.5,28.588911 C401.5,27.7604839 402.171573,27.088911 403,27.088911 C403.828427,27.088911 404.5,27.7604839 404.5,28.588911 L404.5,29.588911 C404.5,30.4173382 403.828427,31.088911 403,31.088911 C402.171573,31.088911 401.5,30.4173382 401.5,29.588911 L401.5,28.588911 Z M401.5,39.588911 C401.5,38.7604839 402.171573,38.088911 403,38.088911 C403.828427,38.088911 404.5,38.7604839 404.5,39.588911 L404.5,40.588911 C404.5,41.4173382 403.828427,42.088911 403,42.088911 C402.171573,42.088911 401.5,41.4173382 401.5,40.588911 L401.5,39.588911 Z M401.5,50.588911 C401.5,49.7604839 402.171573,49.088911 403,49.088911 C403.828427,49.088911 404.5,49.7604839 404.5,50.588911 L404.5,51.588911 C404.5,52.4173382 403.828427,53.088911 403,53.088911 C402.171573,53.088911 401.5,52.4173382 401.5,51.588911 L401.5,50.588911 Z M401.5,61.588911 C401.5,60.7604839 402.171573,60.088911 403,60.088911 C403.828427,60.088911 404.5,60.7604839 404.5,61.588911 L404.5,62.588911 C404.5,63.4173382 403.828427,64.088911 403,64.088911 C402.171573,64.088911 401.5,63.4173382 401.5,62.588911 L401.5,61.588911 Z M401.5,72.588911 C401.5,71.7604839 402.171573,71.088911 403,71.088911 C403.828427,71.088911 404.5,71.7604839 404.5,72.588911 L404.5,73.588911 C404.5,74.4173382 403.828427,75.088911 403,75.088911 C402.171573,75.088911 401.5,74.4173382 401.5,73.588911 L401.5,72.588911 Z M401.5,83.588911 C401.5,82.7604839 402.171573,82.088911 403,82.088911 C403.828427,82.088911 404.5,82.7604839 404.5,83.588911 L404.5,84.588911 C404.5,85.4173382 403.828427,86.088911 403,86.088911 C402.171573,86.088911 401.5,85.4173382 401.5,84.588911 L401.5,83.588911 Z M401.5,94.588911 C401.5,93.7604839 402.171573,93.088911 403,93.088911 C403.828427,93.088911 404.5,93.7604839 404.5,94.588911 L404.5,95.588911 C404.5,96.4173382 403.828427,97.088911 403,97.088911 C402.171573,97.088911 401.5,96.4173382 401.5,95.588911 L401.5,94.588911 Z M401.5,105.588911 C401.5,104.760484 402.171573,104.088911 403,104.088911 C403.828427,104.088911 404.5,104.760484 404.5,105.588911 L404.5,106.588911 C404.5,107.417338 403.828427,108.088911 403,108.088911 C402.171573,108.088911 401.5,107.417338 401.5,106.588911 L401.5,105.588911 Z M401.5,116.588911 C401.5,115.760484 402.171573,115.088911 403,115.088911 C403.828427,115.088911 404.5,115.760484 404.5,116.588911 L404.5,117.588911 C404.5,118.417338 403.828427,119.088911 403,119.088911 C402.171573,119.088911 401.5,118.417338 401.5,117.588911 L401.5,116.588911 Z M401.5,127.588911 C401.5,126.760484 402.171573,126.088911 403,126.088911 C403.828427,126.088911 404.5,126.760484 404.5,127.588911 L404.5,128.588911 C404.5,129.417338 403.828427,130.088911 403,130.088911 C402.171573,130.088911 401.5,129.417338 401.5,128.588911 L401.5,127.588911 Z M395.348643,130.5 C396.17707,130.5 396.848643,131.171573 396.848643,132 C396.848643,132.828427 396.17707,133.5 395.348643,133.5 L394.348643,133.5 C393.520216,133.5 392.848643,132.828427 392.848643,132 C392.848643,131.171573 393.520216,130.5 394.348643,130.5 L395.348643,130.5 Z M384.348643,130.5 C385.17707,130.5 385.848643,131.171573 385.848643,132 C385.848643,132.828427 385.17707,133.5 384.348643,133.5 L383.348643,133.5 C382.520216,133.5 381.848643,132.828427 381.848643,132 C381.848643,131.171573 382.520216,130.5 383.348643,130.5 L384.348643,130.5 Z M373.348643,130.5 C374.17707,130.5 374.848643,131.171573 374.848643,132 C374.848643,132.828427 374.17707,133.5 373.348643,133.5 L372.348643,133.5 C371.520216,133.5 370.848643,132.828427 370.848643,132 C370.848643,131.171573 371.520216,130.5 372.348643,130.5 L373.348643,130.5 Z M362.348643,130.5 C363.17707,130.5 363.848643,131.171573 363.848643,132 C363.848643,132.828427 363.17707,133.5 362.348643,133.5 L361.348643,133.5 C360.520216,133.5 359.848643,132.828427 359.848643,132 C359.848643,131.171573 360.520216,130.5 361.348643,130.5 L362.348643,130.5 Z M351.348643,130.5 C352.17707,130.5 352.848643,131.171573 352.848643,132 C352.848643,132.828427 352.17707,133.5 351.348643,133.5 L350.348643,133.5 C349.520216,133.5 348.848643,132.828427 348.848643,132 C348.848643,131.171573 349.520216,130.5 350.348643,130.5 L351.348643,130.5 Z M340.348643,130.5 C341.17707,130.5 341.848643,131.171573 341.848643,132 C341.848643,132.828427 341.17707,133.5 340.348643,133.5 L339.348643,133.5 C338.520216,133.5 337.848643,132.828427 337.848643,132 C337.848643,131.171573 338.520216,130.5 339.348643,130.5 L340.348643,130.5 Z M329.348643,130.5 C330.17707,130.5 330.848643,131.171573 330.848643,132 C330.848643,132.828427 330.17707,133.5 329.348643,133.5 L328.348643,133.5 C327.520216,133.5 326.848643,132.828427 326.848643,132 C326.848643,131.171573 327.520216,130.5 328.348643,130.5 L329.348643,130.5 Z M318.348643,130.5 C319.17707,130.5 319.848643,131.171573 319.848643,132 C319.848643,132.828427 319.17707,133.5 318.348643,133.5 L317.348643,133.5 C316.520216,133.5 315.848643,132.828427 315.848643,132 C315.848643,131.171573 316.520216,130.5 317.348643,130.5 L318.348643,130.5 Z M307.348643,130.5 C308.17707,130.5 308.848643,131.171573 308.848643,132 C308.848643,132.828427 308.17707,133.5 307.348643,133.5 L306.348643,133.5 C305.520216,133.5 304.848643,132.828427 304.848643,132 C304.848643,131.171573 305.520216,130.5 306.348643,130.5 L307.348643,130.5 Z M296.348643,130.5 C297.17707,130.5 297.848643,131.171573 297.848643,132 C297.848643,132.828427 297.17707,133.5 296.348643,133.5 L295.348643,133.5 C294.520216,133.5 293.848643,132.828427 293.848643,132 C293.848643,131.171573 294.520216,130.5 295.348643,130.5 L296.348643,130.5 Z M285.348643,130.5 C286.17707,130.5 286.848643,131.171573 286.848643,132 C286.848643,132.828427 286.17707,133.5 285.348643,133.5 L284.348643,133.5 C283.520216,133.5 282.848643,132.828427 282.848643,132 C282.848643,131.171573 283.520216,130.5 284.348643,130.5 L285.348643,130.5 Z M274.348643,130.5 C275.17707,130.5 275.848643,131.171573 275.848643,132 C275.848643,132.828427 275.17707,133.5 274.348643,133.5 L273.348643,133.5 C272.520216,133.5 271.848643,132.828427 271.848643,132 C271.848643,131.171573 272.520216,130.5 273.348643,130.5 L274.348643,130.5 Z M263.348643,130.5 C264.17707,130.5 264.848643,131.171573 264.848643,132 C264.848643,132.828427 264.17707,133.5 263.348643,133.5 L262.348643,133.5 C261.520216,133.5 260.848643,132.828427 260.848643,132 C260.848643,131.171573 261.520216,130.5 262.348643,130.5 L263.348643,130.5 Z M252.348643,130.5 C253.17707,130.5 253.848643,131.171573 253.848643,132 C253.848643,132.828427 253.17707,133.5 252.348643,133.5 L251.348643,133.5 C250.520216,133.5 249.848643,132.828427 249.848643,132 C249.848643,131.171573 250.520216,130.5 251.348643,130.5 L252.348643,130.5 Z M241.348643,130.5 C242.17707,130.5 242.848643,131.171573 242.848643,132 C242.848643,132.828427 242.17707,133.5 241.348643,133.5 L240.348643,133.5 C239.520216,133.5 238.848643,132.828427 238.848643,132 C238.848643,131.171573 239.520216,130.5 240.348643,130.5 L241.348643,130.5 Z M230.348643,130.5 C231.17707,130.5 231.848643,131.171573 231.848643,132 C231.848643,132.828427 231.17707,133.5 230.348643,133.5 L229.348643,133.5 C228.520216,133.5 227.848643,132.828427 227.848643,132 C227.848643,131.171573 228.520216,130.5 229.348643,130.5 L230.348643,130.5 Z M219.348643,130.5 C220.17707,130.5 220.848643,131.171573 220.848643,132 C220.848643,132.828427 220.17707,133.5 219.348643,133.5 L218.348643,133.5 C217.520216,133.5 216.848643,132.828427 216.848643,132 C216.848643,131.171573 217.520216,130.5 218.348643,130.5 L219.348643,130.5 Z M208.348643,130.5 C209.17707,130.5 209.848643,131.171573 209.848643,132 C209.848643,132.828427 209.17707,133.5 208.348643,133.5 L207.348643,133.5 C206.520216,133.5 205.848643,132.828427 205.848643,132 C205.848643,131.171573 206.520216,130.5 207.348643,130.5 L208.348643,130.5 Z M197.348643,130.5 C198.17707,130.5 198.848643,131.171573 198.848643,132 C198.848643,132.828427 198.17707,133.5 197.348643,133.5 L196.348643,133.5 C195.520216,133.5 194.848643,132.828427 194.848643,132 C194.848643,131.171573 195.520216,130.5 196.348643,130.5 L197.348643,130.5 Z M186.348643,130.5 C187.17707,130.5 187.848643,131.171573 187.848643,132 C187.848643,132.828427 187.17707,133.5 186.348643,133.5 L185.348643,133.5 C184.520216,133.5 183.848643,132.828427 183.848643,132 C183.848643,131.171573 184.520216,130.5 185.348643,130.5 L186.348643,130.5 Z M175.348643,130.5 C176.17707,130.5 176.848643,131.171573 176.848643,132 C176.848643,132.828427 176.17707,133.5 175.348643,133.5 L174.348643,133.5 C173.520216,133.5 172.848643,132.828427 172.848643,132 C172.848643,131.171573 173.520216,130.5 174.348643,130.5 L175.348643,130.5 Z M164.348643,130.5 C165.17707,130.5 165.848643,131.171573 165.848643,132 C165.848643,132.828427 165.17707,133.5 164.348643,133.5 L163.348643,133.5 C162.520216,133.5 161.848643,132.828427 161.848643,132 C161.848643,131.171573 162.520216,130.5 163.348643,130.5 L164.348643,130.5 Z M153.348643,130.5 C154.17707,130.5 154.848643,131.171573 154.848643,132 C154.848643,132.828427 154.17707,133.5 153.348643,133.5 L152.348643,133.5 C151.520216,133.5 150.848643,132.828427 150.848643,132 C150.848643,131.171573 151.520216,130.5 152.348643,130.5 L153.348643,130.5 Z M142.348643,130.5 C143.17707,130.5 143.848643,131.171573 143.848643,132 C143.848643,132.828427 143.17707,133.5 142.348643,133.5 L141.348643,133.5 C140.520216,133.5 139.848643,132.828427 139.848643,132 C139.848643,131.171573 140.520216,130.5 141.348643,130.5 L142.348643,130.5 Z M131.348643,130.5 C132.17707,130.5 132.848643,131.171573 132.848643,132 C132.848643,132.828427 132.17707,133.5 131.348643,133.5 L130.348643,133.5 C129.520216,133.5 128.848643,132.828427 128.848643,132 C128.848643,131.171573 129.520216,130.5 130.348643,130.5 L131.348643,130.5 Z M120.348643,130.5 C121.17707,130.5 121.848643,131.171573 121.848643,132 C121.848643,132.828427 121.17707,133.5 120.348643,133.5 L119.348643,133.5 C118.520216,133.5 117.848643,132.828427 117.848643,132 C117.848643,131.171573 118.520216,130.5 119.348643,130.5 L120.348643,130.5 Z M109.348643,130.5 C110.17707,130.5 110.848643,131.171573 110.848643,132 C110.848643,132.828427 110.17707,133.5 109.348643,133.5 L108.348643,133.5 C107.520216,133.5 106.848643,132.828427 106.848643,132 C106.848643,131.171573 107.520216,130.5 108.348643,130.5 L109.348643,130.5 Z M98.348643,130.5 C99.1770701,130.5 99.848643,131.171573 99.848643,132 C99.848643,132.828427 99.1770701,133.5 98.348643,133.5 L97.348643,133.5 C96.5202158,133.5 95.848643,132.828427 95.848643,132 C95.848643,131.171573 96.5202158,130.5 97.348643,130.5 L98.348643,130.5 Z M87.348643,130.5 C88.1770701,130.5 88.848643,131.171573 88.848643,132 C88.848643,132.828427 88.1770701,133.5 87.348643,133.5 L86.348643,133.5 C85.5202158,133.5 84.848643,132.828427 84.848643,132 C84.848643,131.171573 85.5202158,130.5 86.348643,130.5 L87.348643,130.5 Z M76.348643,130.5 C77.1770701,130.5 77.848643,131.171573 77.848643,132 C77.848643,132.828427 77.1770701,133.5 76.348643,133.5 L75.348643,133.5 C74.5202158,133.5 73.848643,132.828427 73.848643,132 C73.848643,131.171573 74.5202158,130.5 75.348643,130.5 L76.348643,130.5 Z M65.348643,130.5 C66.1770701,130.5 66.848643,131.171573 66.848643,132 C66.848643,132.828427 66.1770701,133.5 65.348643,133.5 L64.348643,133.5 C63.5202158,133.5 62.848643,132.828427 62.848643,132 C62.848643,131.171573 63.5202158,130.5 64.348643,130.5 L65.348643,130.5 Z M54.348643,130.5 C55.1770701,130.5 55.848643,131.171573 55.848643,132 C55.848643,132.828427 55.1770701,133.5 54.348643,133.5 L53.348643,133.5 C52.5202158,133.5 51.848643,132.828427 51.848643,132 C51.848643,131.171573 52.5202158,130.5 53.348643,130.5 L54.348643,130.5 Z M43.348643,130.5 C44.1770701,130.5 44.848643,131.171573 44.848643,132 C44.848643,132.828427 44.1770701,133.5 43.348643,133.5 L42.348643,133.5 C41.5202158,133.5 40.848643,132.828427 40.848643,132 C40.848643,131.171573 41.5202158,130.5 42.348643,130.5 L43.348643,130.5 Z M32.348643,130.5 C33.1770701,130.5 33.848643,131.171573 33.848643,132 C33.848643,132.828427 33.1770701,133.5 32.348643,133.5 L31.348643,133.5 C30.5202158,133.5 29.848643,132.828427 29.848643,132 C29.848643,131.171573 30.5202158,130.5 31.348643,130.5 L32.348643,130.5 Z M21.348643,130.5 C22.1770701,130.5 22.848643,131.171573 22.848643,132 C22.848643,132.828427 22.1770701,133.5 21.348643,133.5 L20.348643,133.5 C19.5202158,133.5 18.848643,132.828427 18.848643,132 C18.848643,131.171573 19.5202158,130.5 20.348643,130.5 L21.348643,130.5 Z M10.348643,130.5 C11.1770701,130.5 11.848643,131.171573 11.848643,132 C11.848643,132.828427 11.1770701,133.5 10.348643,133.5 L9.34864296,133.5 C8.52021583,133.5 7.84864296,132.828427 7.84864296,132 C7.84864296,131.171573 8.52021583,130.5 9.34864296,130.5 L10.348643,130.5 Z M0,6 C0,5.17157288 0.671572875,4.5 1.5,4.5 C2.32842712,4.5 3,5.17157288 3,6 L3,7 C3,7.82842712 2.32842712,8.5 1.5,8.5 C0.671572875,8.5 0,7.82842712 0,7 L0,6 Z M0,17 C0,16.1715729 0.671572875,15.5 1.5,15.5 C2.32842712,15.5 3,16.1715729 3,17 L3,18 C3,18.8284271 2.32842712,19.5 1.5,19.5 C0.671572875,19.5 0,18.8284271 0,18 L0,17 Z M0,28 C0,27.1715729 0.671572875,26.5 1.5,26.5 C2.32842712,26.5 3,27.1715729 3,28 L3,29 C3,29.8284271 2.32842712,30.5 1.5,30.5 C0.671572875,30.5 0,29.8284271 0,29 L0,28 Z M0,39 C0,38.1715729 0.671572875,37.5 1.5,37.5 C2.32842712,37.5 3,38.1715729 3,39 L3,40 C3,40.8284271 2.32842712,41.5 1.5,41.5 C0.671572875,41.5 0,40.8284271 0,40 L0,39 Z M0,50 C0,49.1715729 0.671572875,48.5 1.5,48.5 C2.32842712,48.5 3,49.1715729 3,50 L3,51 C3,51.8284271 2.32842712,52.5 1.5,52.5 C0.671572875,52.5 0,51.8284271 0,51 L0,50 Z M0,61 C0,60.1715729 0.671572875,59.5 1.5,59.5 C2.32842712,59.5 3,60.1715729 3,61 L3,62 C3,62.8284271 2.32842712,63.5 1.5,63.5 C0.671572875,63.5 0,62.8284271 0,62 L0,61 Z M0,72 C0,71.1715729 0.671572875,70.5 1.5,70.5 C2.32842712,70.5 3,71.1715729 3,72 L3,73 C3,73.8284271 2.32842712,74.5 1.5,74.5 C0.671572875,74.5 0,73.8284271 0,73 L0,72 Z M0,83 C0,82.1715729 0.671572875,81.5 1.5,81.5 C2.32842712,81.5 3,82.1715729 3,83 L3,84 C3,84.8284271 2.32842712,85.5 1.5,85.5 C0.671572875,85.5 0,84.8284271 0,84 L0,83 Z M0,94 C0,93.1715729 0.671572875,92.5 1.5,92.5 C2.32842712,92.5 3,93.1715729 3,94 L3,95 C3,95.8284271 2.32842712,96.5 1.5,96.5 C0.671572875,96.5 0,95.8284271 0,95 L0,94 Z M0,105 C0,104.171573 0.671572875,103.5 1.5,103.5 C2.32842712,103.5 3,104.171573 3,105 L3,106 C3,106.828427 2.32842712,107.5 1.5,107.5 C0.671572875,107.5 0,106.828427 0,106 L0,105 Z M0,116 C0,115.171573 0.671572875,114.5 1.5,114.5 C2.32842712,114.5 3,115.171573 3,116 L3,117 C3,117.828427 2.32842712,118.5 1.5,118.5 C0.671572875,118.5 0,117.828427 0,117 L0,116 Z M0,127 C0,126.171573 0.671572875,125.5 1.5,125.5 C2.32842712,125.5 3,126.171573 3,127 L3,128 C3,128.828427 2.32842712,129.5 1.5,129.5 C0.671572875,129.5 0,128.828427 0,128 L0,127 Z" id="Border_2edFloor_1" fill="#FE791A" fill-rule="nonzero"></path>
    </g>
</svg>