<?xml version="1.0" encoding="UTF-8" standalone="no"?>
<svg width="335px" height="133px" viewBox="0 0 335 133" version="1.1" xmlns="http://www.w3.org/2000/svg" xmlns:xlink="http://www.w3.org/1999/xlink">
    <!-- Generator: Sketch 50 (54983) - http://www.bohemiancoding.com/sketch -->
    <title>Border_lobby_2</title>
    <desc>Created with Sketch.</desc>
    <defs></defs>
    <g id="Page-1" stroke="none" stroke-width="1" fill="none" fill-rule="evenodd">
        <path d="M35.5,3 C34.6715729,3 34,2.32842712 34,1.5 C34,0.671572875 34.6715729,0 35.5,0 L36.4991008,0 C37.3275279,0 37.9991008,0.671572875 37.9991008,1.5 C37.9991008,2.32842712 37.3275279,3 36.4991008,3 L35.5,3 Z M46.5011764,3 C45.6727493,3 45.0011764,2.32842712 45.0011764,1.5 C45.0011764,0.671572875 45.6727493,0 46.5011764,0 L47.4998524,0 C48.3282796,0 48.9998524,0.671572875 48.9998524,1.5 C48.9998524,2.32842712 48.3282796,3 47.4998524,3 L46.5011764,3 Z M57.4997006,3 C56.6712735,3 55.9997006,2.32842712 55.9997006,1.5 C55.9997006,0.671572875 56.6712735,0 57.4997006,0 L58.4974244,0 C59.3258515,0 59.9974244,0.671572875 59.9974244,1.5 C59.9974244,2.32842712 59.3258515,3 58.4974244,3 L57.4997006,3 Z M68.500145,3 C67.6717179,3 67.000145,2.32842712 67.000145,1.5 C67.000145,0.671572875 67.6717179,0 68.500145,0 L69.5016747,0 C70.3301019,0 71.0016747,0.671572875 71.0016747,1.5 C71.0016747,2.32842712 70.3301019,3 69.5016747,3 L68.500145,3 Z M79.5011621,3 C78.6727349,3 78.0011621,2.32842712 78.0011621,1.5 C78.0011621,0.671572875 78.6727349,0 79.5011621,0 L80.4970759,0 C81.3255031,0 81.9970759,0.671572875 81.9970759,1.5 C81.9970759,2.32842712 81.3255031,3 80.4970759,3 L79.5011621,3 Z M90.5023485,3 C89.6739214,3 89.0023485,2.32842712 89.0023485,1.5 C89.0023485,0.671572875 89.6739214,0 90.5023485,0 L91.5056059,0 C92.334033,0 93.0056059,0.671572875 93.0056059,1.5 C93.0056059,2.32842712 92.334033,3 91.5056059,3 L90.5023485,3 Z M101.499356,3 C100.670928,3 99.9993555,2.32842712 99.9993555,1.5 C99.9993555,0.671572875 100.670928,0 101.499356,0 L102.500137,0 C103.328564,0 104.000137,0.671572875 104.000137,1.5 C104.000137,2.32842712 103.328564,3 102.500137,3 L101.499356,3 Z M112.502533,3 C111.674106,3 111.002533,2.32842712 111.002533,1.5 C111.002533,0.671572875 111.674106,0 112.502533,0 L113.505627,0 C114.334054,0 115.005627,0.671572875 115.005627,1.5 C115.005627,2.32842712 114.334054,3 113.505627,3 L112.502533,3 Z M123.506975,3 C122.678548,3 122.006975,2.32842712 122.006975,1.5 C122.006975,0.671572875 122.678548,0 123.506975,0 L124.511009,0 C125.339436,0 126.011009,0.671572875 126.011009,1.5 C126.011009,2.32842712 125.339436,3 124.511009,3 L123.506975,3 Z M134.494761,3 C133.666334,3 132.994761,2.32842712 132.994761,1.5 C132.994761,0.671572875 133.666334,0 134.494761,0 L135.490958,0 C136.319385,0 136.990958,0.671572875 136.990958,1.5 C136.990958,2.32842712 136.319385,3 135.490958,3 L134.494761,3 Z M145.49102,3 C144.662593,3 143.99102,2.32842712 143.99102,1.5 C143.99102,0.671572875 144.662593,0 145.49102,0 L146.489083,0 C147.317511,0 147.989083,0.671572875 147.989083,1.5 C147.989083,2.32842712 147.317511,3 146.489083,3 L145.49102,3 Z M156.489852,3 C155.661425,3 154.989852,2.32842712 154.989852,1.5 C154.989852,0.671572875 155.661425,0 156.489852,0 L157.490359,0 C158.318786,0 158.990359,0.671572875 158.990359,1.5 C158.990359,2.32842712 158.318786,3 157.490359,3 L156.489852,3 Z M167.507084,3 C166.678657,3 166.007084,2.32842712 166.007084,1.5 C166.007084,0.671572875 166.678657,0 167.507084,0 L168.509991,0 C169.338418,0 170.009991,0.671572875 170.009991,1.5 C170.009991,2.32842712 169.338418,3 168.509991,3 L167.507084,3 Z M178.50314,3 C177.674713,3 177.00314,2.32842712 177.00314,1.5 C177.00314,0.671572875 177.674713,0 178.50314,0 L179.499926,0 C180.328353,0 180.999926,0.671572875 180.999926,1.5 C180.999926,2.32842712 180.328353,3 179.499926,3 L178.50314,3 Z M189.497044,3 C188.668617,3 187.997044,2.32842712 187.997044,1.5 C187.997044,0.671572875 188.668617,0 189.497044,0 L190.493773,0 C191.3222,0 191.993773,0.671572875 191.993773,1.5 C191.993773,2.32842712 191.3222,3 190.493773,3 L189.497044,3 Z M200.494405,3 C199.665978,3 198.994405,2.32842712 198.994405,1.5 C198.994405,0.671572875 199.665978,0 200.494405,0 L201.494523,0 C202.32295,0 202.994523,0.671572875 202.994523,1.5 C202.994523,2.32842712 202.32295,3 201.494523,3 L200.494405,3 Z M211.509746,3 C210.681319,3 210.009746,2.32842712 210.009746,1.5 C210.009746,0.671572875 210.681319,0 211.509746,0 L212.507209,0 C213.335636,0 214.007209,0.671572875 214.007209,1.5 C214.007209,2.32842712 213.335636,3 212.507209,3 L211.509746,3 Z M222.508625,3 C221.680197,3 221.008625,2.32842712 221.008625,1.5 C221.008625,0.671572875 221.680197,0 222.508625,0 L223.507661,0 C224.336088,0 225.007661,0.671572875 225.007661,1.5 C225.007661,2.32842712 224.336088,3 223.507661,3 L222.508625,3 Z M233.487165,3 C232.658738,3 231.987165,2.32842712 231.987165,1.5 C231.987165,0.671572875 232.658738,0 233.487165,0 L234.487084,0 C235.315511,0 235.987084,0.671572875 235.987084,1.5 C235.987084,2.32842712 235.315511,3 234.487084,3 L233.487165,3 Z M244.506337,3 C243.67791,3 243.006337,2.32842712 243.006337,1.5 C243.006337,0.671572875 243.67791,0 244.506337,0 L245.505429,0 C246.333856,0 247.005429,0.671572875 247.005429,1.5 C247.005429,2.32842712 246.333856,3 245.505429,3 L244.506337,3 Z M255.513253,3 C254.684826,3 254.013253,2.32842712 254.013253,1.5 C254.013253,0.671572875 254.684826,0 255.513253,0 L256.511554,0 C257.339981,0 258.011554,0.671572875 258.011554,1.5 C258.011554,2.32842712 257.339981,3 256.511554,3 L255.513253,3 Z M266.484311,3 C265.655884,3 264.984311,2.32842712 264.984311,1.5 C264.984311,0.671572875 265.655884,0 266.484311,0 L267.486076,0 C268.314503,0 268.986076,0.671572875 268.986076,1.5 C268.986076,2.32842712 268.314503,3 267.486076,3 L266.484311,3 Z M277.49426,3 C276.665833,3 275.99426,2.32842712 275.99426,1.5 C275.99426,0.671572875 276.665833,0 277.49426,0 L278.493383,0 C279.321811,0 279.993383,0.671572875 279.993383,1.5 C279.993383,2.32842712 279.321811,3 278.493383,3 L277.49426,3 Z M288.494061,3 C287.665634,3 286.994061,2.32842712 286.994061,1.5 C286.994061,0.671572875 287.665634,0 288.494061,0 L289.493083,0 C290.32151,0 290.993083,0.671572875 290.993083,1.5 C290.993083,2.32842712 290.32151,3 289.493083,3 L288.494061,3 Z M299.500161,3 C298.671734,3 298.000161,2.32842712 298.000161,1.5 C298.000161,0.671572875 298.671734,0 299.500161,0 L300.500858,0 C301.329285,0 302.000858,0.671572875 302.000858,1.5 C302.000858,2.32842712 301.329285,3 300.500858,3 L299.500161,3 Z M310.497514,3 C309.669086,3 308.997514,2.32842712 308.997514,1.5 C308.997514,0.671572875 309.669086,0 310.497514,0 L311.497756,0 C312.326183,0 312.997756,0.671572875 312.997756,1.5 C312.997756,2.32842712 312.326183,3 311.497756,3 L310.497514,3 Z M321.506795,3 C320.678368,3 320.006795,2.32842712 320.006795,1.5 C320.006795,0.671572875 320.678368,0 321.506795,0 L322.506886,0 C323.335313,0 324.006886,0.671572875 324.006886,1.5 C324.006886,2.32842712 323.335313,3 322.506886,3 L321.506795,3 Z M331.056717,1.13400388 C331.290068,0.339120761 332.123615,-0.116091601 332.918499,0.117258615 C333.605114,0.318825227 334.191268,0.767919856 334.566051,1.37243959 C335.002567,2.07653185 334.785653,3.00117696 334.081561,3.43769225 C333.387942,3.86771393 332.480284,3.66360258 332.03611,2.98429958 C331.264393,2.73615353 330.827047,1.91635131 331.056717,1.13400388 Z M332,12.3192248 C332,11.4907977 332.671573,10.8192248 333.5,10.8192248 C334.328427,10.8192248 335,11.4907977 335,12.3192248 L335,13.3192248 C335,14.1476519 334.328427,14.8192248 333.5,14.8192248 C332.671573,14.8192248 332,14.1476519 332,13.3192248 L332,12.3192248 Z M332,23.3192248 C332,22.4907977 332.671573,21.8192248 333.5,21.8192248 C334.328427,21.8192248 335,22.4907977 335,23.3192248 L335,24.3192248 C335,25.1476519 334.328427,25.8192248 333.5,25.8192248 C332.671573,25.8192248 332,25.1476519 332,24.3192248 L332,23.3192248 Z M332,34.3192248 C332,33.4907977 332.671573,32.8192248 333.5,32.8192248 C334.328427,32.8192248 335,33.4907977 335,34.3192248 L335,35.3192248 C335,36.1476519 334.328427,36.8192248 333.5,36.8192248 C332.671573,36.8192248 332,36.1476519 332,35.3192248 L332,34.3192248 Z M332,45.3192248 C332,44.4907977 332.671573,43.8192248 333.5,43.8192248 C334.328427,43.8192248 335,44.4907977 335,45.3192248 L335,46.3192248 C335,47.1476519 334.328427,47.8192248 333.5,47.8192248 C332.671573,47.8192248 332,47.1476519 332,46.3192248 L332,45.3192248 Z M332,56.3192248 C332,55.4907977 332.671573,54.8192248 333.5,54.8192248 C334.328427,54.8192248 335,55.4907977 335,56.3192248 L335,57.3192248 C335,58.1476519 334.328427,58.8192248 333.5,58.8192248 C332.671573,58.8192248 332,58.1476519 332,57.3192248 L332,56.3192248 Z M332,67.3192248 C332,66.4907977 332.671573,65.8192248 333.5,65.8192248 C334.328427,65.8192248 335,66.4907977 335,67.3192248 L335,68.3192248 C335,69.1476519 334.328427,69.8192248 333.5,69.8192248 C332.671573,69.8192248 332,69.1476519 332,68.3192248 L332,67.3192248 Z M332,78.3192248 C332,77.4907977 332.671573,76.8192248 333.5,76.8192248 C334.328427,76.8192248 335,77.4907977 335,78.3192248 L335,79.3192248 C335,80.1476519 334.328427,80.8192248 333.5,80.8192248 C332.671573,80.8192248 332,80.1476519 332,79.3192248 L332,78.3192248 Z M332,89.3192248 C332,88.4907977 332.671573,87.8192248 333.5,87.8192248 C334.328427,87.8192248 335,88.4907977 335,89.3192248 L335,90.3192248 C335,91.1476519 334.328427,91.8192248 333.5,91.8192248 C332.671573,91.8192248 332,91.1476519 332,90.3192248 L332,89.3192248 Z M332,100.319225 C332,99.4907977 332.671573,98.8192248 333.5,98.8192248 C334.328427,98.8192248 335,99.4907977 335,100.319225 L335,101.319225 C335,102.147652 334.328427,102.819225 333.5,102.819225 C332.671573,102.819225 332,102.147652 332,101.319225 L332,100.319225 Z M332,111.319225 C332,110.490798 332.671573,109.819225 333.5,109.819225 C334.328427,109.819225 335,110.490798 335,111.319225 L335,112.319225 C335,113.147652 334.328427,113.819225 333.5,113.819225 C332.671573,113.819225 332,113.147652 332,112.319225 L332,111.319225 Z M332,122.319225 C332,121.490798 332.671573,120.819225 333.5,120.819225 C334.328427,120.819225 335,121.490798 335,122.319225 L335,123.319225 C335,124.147652 334.328427,124.819225 333.5,124.819225 C332.671573,124.819225 332,124.147652 332,123.319225 L332,122.319225 Z M330.86155,130 C331.689978,130 332.36155,130.671573 332.36155,131.5 C332.36155,132.328427 331.689978,133 330.86155,133 L329.86155,133 C329.033123,133 328.36155,132.328427 328.36155,131.5 C328.36155,130.671573 329.033123,130 329.86155,130 L330.86155,130 Z M319.86155,130 C320.689978,130 321.36155,130.671573 321.36155,131.5 C321.36155,132.328427 320.689978,133 319.86155,133 L318.86155,133 C318.033123,133 317.36155,132.328427 317.36155,131.5 C317.36155,130.671573 318.033123,130 318.86155,130 L319.86155,130 Z M308.86155,130 C309.689978,130 310.36155,130.671573 310.36155,131.5 C310.36155,132.328427 309.689978,133 308.86155,133 L307.86155,133 C307.033123,133 306.36155,132.328427 306.36155,131.5 C306.36155,130.671573 307.033123,130 307.86155,130 L308.86155,130 Z M297.86155,130 C298.689978,130 299.36155,130.671573 299.36155,131.5 C299.36155,132.328427 298.689978,133 297.86155,133 L296.86155,133 C296.033123,133 295.36155,132.328427 295.36155,131.5 C295.36155,130.671573 296.033123,130 296.86155,130 L297.86155,130 Z M286.86155,130 C287.689978,130 288.36155,130.671573 288.36155,131.5 C288.36155,132.328427 287.689978,133 286.86155,133 L285.86155,133 C285.033123,133 284.36155,132.328427 284.36155,131.5 C284.36155,130.671573 285.033123,130 285.86155,130 L286.86155,130 Z M275.86155,130 C276.689978,130 277.36155,130.671573 277.36155,131.5 C277.36155,132.328427 276.689978,133 275.86155,133 L274.86155,133 C274.033123,133 273.36155,132.328427 273.36155,131.5 C273.36155,130.671573 274.033123,130 274.86155,130 L275.86155,130 Z M264.86155,130 C265.689978,130 266.36155,130.671573 266.36155,131.5 C266.36155,132.328427 265.689978,133 264.86155,133 L263.86155,133 C263.033123,133 262.36155,132.328427 262.36155,131.5 C262.36155,130.671573 263.033123,130 263.86155,130 L264.86155,130 Z M253.86155,130 C254.689978,130 255.36155,130.671573 255.36155,131.5 C255.36155,132.328427 254.689978,133 253.86155,133 L252.86155,133 C252.033123,133 251.36155,132.328427 251.36155,131.5 C251.36155,130.671573 252.033123,130 252.86155,130 L253.86155,130 Z M242.86155,130 C243.689978,130 244.36155,130.671573 244.36155,131.5 C244.36155,132.328427 243.689978,133 242.86155,133 L241.86155,133 C241.033123,133 240.36155,132.328427 240.36155,131.5 C240.36155,130.671573 241.033123,130 241.86155,130 L242.86155,130 Z M231.86155,130 C232.689978,130 233.36155,130.671573 233.36155,131.5 C233.36155,132.328427 232.689978,133 231.86155,133 L230.86155,133 C230.033123,133 229.36155,132.328427 229.36155,131.5 C229.36155,130.671573 230.033123,130 230.86155,130 L231.86155,130 Z M220.86155,130 C221.689978,130 222.36155,130.671573 222.36155,131.5 C222.36155,132.328427 221.689978,133 220.86155,133 L219.86155,133 C219.033123,133 218.36155,132.328427 218.36155,131.5 C218.36155,130.671573 219.033123,130 219.86155,130 L220.86155,130 Z M209.86155,130 C210.689978,130 211.36155,130.671573 211.36155,131.5 C211.36155,132.328427 210.689978,133 209.86155,133 L208.86155,133 C208.033123,133 207.36155,132.328427 207.36155,131.5 C207.36155,130.671573 208.033123,130 208.86155,130 L209.86155,130 Z M198.86155,130 C199.689978,130 200.36155,130.671573 200.36155,131.5 C200.36155,132.328427 199.689978,133 198.86155,133 L197.86155,133 C197.033123,133 196.36155,132.328427 196.36155,131.5 C196.36155,130.671573 197.033123,130 197.86155,130 L198.86155,130 Z M187.86155,130 C188.689978,130 189.36155,130.671573 189.36155,131.5 C189.36155,132.328427 188.689978,133 187.86155,133 L186.86155,133 C186.033123,133 185.36155,132.328427 185.36155,131.5 C185.36155,130.671573 186.033123,130 186.86155,130 L187.86155,130 Z M176.86155,130 C177.689978,130 178.36155,130.671573 178.36155,131.5 C178.36155,132.328427 177.689978,133 176.86155,133 L175.86155,133 C175.033123,133 174.36155,132.328427 174.36155,131.5 C174.36155,130.671573 175.033123,130 175.86155,130 L176.86155,130 Z M165.86155,130 C166.689978,130 167.36155,130.671573 167.36155,131.5 C167.36155,132.328427 166.689978,133 165.86155,133 L164.86155,133 C164.033123,133 163.36155,132.328427 163.36155,131.5 C163.36155,130.671573 164.033123,130 164.86155,130 L165.86155,130 Z M154.86155,130 C155.689978,130 156.36155,130.671573 156.36155,131.5 C156.36155,132.328427 155.689978,133 154.86155,133 L153.86155,133 C153.033123,133 152.36155,132.328427 152.36155,131.5 C152.36155,130.671573 153.033123,130 153.86155,130 L154.86155,130 Z M143.86155,130 C144.689978,130 145.36155,130.671573 145.36155,131.5 C145.36155,132.328427 144.689978,133 143.86155,133 L142.86155,133 C142.033123,133 141.36155,132.328427 141.36155,131.5 C141.36155,130.671573 142.033123,130 142.86155,130 L143.86155,130 Z M132.86155,130 C133.689978,130 134.36155,130.671573 134.36155,131.5 C134.36155,132.328427 133.689978,133 132.86155,133 L131.86155,133 C131.033123,133 130.36155,132.328427 130.36155,131.5 C130.36155,130.671573 131.033123,130 131.86155,130 L132.86155,130 Z M121.86155,130 C122.689978,130 123.36155,130.671573 123.36155,131.5 C123.36155,132.328427 122.689978,133 121.86155,133 L120.86155,133 C120.033123,133 119.36155,132.328427 119.36155,131.5 C119.36155,130.671573 120.033123,130 120.86155,130 L121.86155,130 Z M110.86155,130 C111.689978,130 112.36155,130.671573 112.36155,131.5 C112.36155,132.328427 111.689978,133 110.86155,133 L109.86155,133 C109.033123,133 108.36155,132.328427 108.36155,131.5 C108.36155,130.671573 109.033123,130 109.86155,130 L110.86155,130 Z M99.8615504,130 C100.689978,130 101.36155,130.671573 101.36155,131.5 C101.36155,132.328427 100.689978,133 99.8615504,133 L98.8615504,133 C98.0331233,133 97.3615504,132.328427 97.3615504,131.5 C97.3615504,130.671573 98.0331233,130 98.8615504,130 L99.8615504,130 Z M88.8615504,130 C89.6899775,130 90.3615504,130.671573 90.3615504,131.5 C90.3615504,132.328427 89.6899775,133 88.8615504,133 L87.8615504,133 C87.0331233,133 86.3615504,132.328427 86.3615504,131.5 C86.3615504,130.671573 87.0331233,130 87.8615504,130 L88.8615504,130 Z M77.8615504,130 C78.6899775,130 79.3615504,130.671573 79.3615504,131.5 C79.3615504,132.328427 78.6899775,133 77.8615504,133 L76.8615504,133 C76.0331233,133 75.3615504,132.328427 75.3615504,131.5 C75.3615504,130.671573 76.0331233,130 76.8615504,130 L77.8615504,130 Z M66.8615504,130 C67.6899775,130 68.3615504,130.671573 68.3615504,131.5 C68.3615504,132.328427 67.6899775,133 66.8615504,133 L65.8615504,133 C65.0331233,133 64.3615504,132.328427 64.3615504,131.5 C64.3615504,130.671573 65.0331233,130 65.8615504,130 L66.8615504,130 Z M55.8615504,130 C56.6899775,130 57.3615504,130.671573 57.3615504,131.5 C57.3615504,132.328427 56.6899775,133 55.8615504,133 L54.8615504,133 C54.0331233,133 53.3615504,132.328427 53.3615504,131.5 C53.3615504,130.671573 54.0331233,130 54.8615504,130 L55.8615504,130 Z M44.8615504,130 C45.6899775,130 46.3615504,130.671573 46.3615504,131.5 C46.3615504,132.328427 45.6899775,133 44.8615504,133 L43.8615504,133 C43.0331233,133 42.3615504,132.328427 42.3615504,131.5 C42.3615504,130.671573 43.0331233,130 43.8615504,130 L44.8615504,130 Z M33.8615504,130 C34.6899775,130 35.3615504,130.671573 35.3615504,131.5 C35.3615504,132.328427 34.6899775,133 33.8615504,133 L32.8615504,133 C32.0331233,133 31.3615504,132.328427 31.3615504,131.5 C31.3615504,130.671573 32.0331233,130 32.8615504,130 L33.8615504,130 Z M22.8615504,130 C23.6899775,130 24.3615504,130.671573 24.3615504,131.5 C24.3615504,132.328427 23.6899775,133 22.8615504,133 L21.8615504,133 C21.0331233,133 20.3615504,132.328427 20.3615504,131.5 C20.3615504,130.671573 21.0331233,130 21.8615504,130 L22.8615504,130 Z M11.8615504,130 C12.6899775,130 13.3615504,130.671573 13.3615504,131.5 C13.3615504,132.328427 12.6899775,133 11.8615504,133 L10.8615504,133 C10.0331233,133 9.36155042,132.328427 9.36155042,131.5 C9.36155042,130.671573 10.0331233,130 10.8615504,130 L11.8615504,130 Z M3,129 C3,129.828427 2.32842712,130.5 1.5,130.5 C0.671572875,130.5 0,129.828427 0,129 L0,128 C0,127.171573 0.671572875,126.5 1.5,126.5 C2.32842712,126.5 3,127.171573 3,128 L3,129 Z M3,118 C3,118.828427 2.32842712,119.5 1.5,119.5 C0.671572875,119.5 0,118.828427 0,118 L0,117 C0,116.171573 0.671572875,115.5 1.5,115.5 C2.32842712,115.5 3,116.171573 3,117 L3,118 Z M3,107 C3,107.828427 2.32842712,108.5 1.5,108.5 C0.671572875,108.5 0,107.828427 0,107 L0,106 C0,105.171573 0.671572875,104.5 1.5,104.5 C2.32842712,104.5 3,105.171573 3,106 L3,107 Z M3,96 C3,96.8284271 2.32842712,97.5 1.5,97.5 C0.671572875,97.5 0,96.8284271 0,96 L0,95 C0,94.1715729 0.671572875,93.5 1.5,93.5 C2.32842712,93.5 3,94.1715729 3,95 L3,96 Z M3,85 C3,85.8284271 2.32842712,86.5 1.5,86.5 C0.671572875,86.5 0,85.8284271 0,85 L0,84 C0,83.1715729 0.671572875,82.5 1.5,82.5 C2.32842712,82.5 3,83.1715729 3,84 L3,85 Z M3,74 C3,74.8284271 2.32842712,75.5 1.5,75.5 C0.671572875,75.5 0,74.8284271 0,74 L0,73 C0,72.1715729 0.671572875,71.5 1.5,71.5 C2.32842712,71.5 3,72.1715729 3,73 L3,74 Z M3,63 C3,63.8284271 2.32842712,64.5 1.5,64.5 C0.671572875,64.5 0,63.8284271 0,63 L0,62 C0,61.1715729 0.671572875,60.5 1.5,60.5 C2.32842712,60.5 3,61.1715729 3,62 L3,63 Z M3,52 C3,52.8284271 2.32842712,53.5 1.5,53.5 C0.671572875,53.5 0,52.8284271 0,52 L0,51 C0,50.1715729 0.671572875,49.5 1.5,49.5 C2.32842712,49.5 3,50.1715729 3,51 L3,52 Z M3,41 C3,41.8284271 2.32842712,42.5 1.5,42.5 C0.671572875,42.5 0,41.8284271 0,41 L0,40 C0,39.1715729 0.671572875,38.5 1.5,38.5 C2.32842712,38.5 3,39.1715729 3,40 L3,41 Z" id="Border_lobby_2" fill="#815283" fill-rule="nonzero"></path>
    </g>
</svg>