<?xml version="1.0" encoding="UTF-8" standalone="no"?>
<svg width="36px" height="36px" viewBox="0 0 36 36" version="1.1" xmlns="http://www.w3.org/2000/svg" xmlns:xlink="http://www.w3.org/1999/xlink">
    <!-- Generator: Sketch 50 (54983) - http://www.bohemiancoding.com/sketch -->
    <title>Icon_Lobby</title>
    <desc>Created with Sketch.</desc>
    <defs>
        <rect id="path-1" x="0" y="0" width="36" height="36" rx="6"></rect>
    </defs>
    <g id="Page-1" stroke="none" stroke-width="1" fill="none" fill-rule="evenodd">
        <g id="Icon_Lobby">
            <g id="Path-23">
                <mask id="mask-2" fill="white">
                    <use xlink:href="#path-1"></use>
                </mask>
                <use id="Mask" fill="#636569" xlink:href="#path-1"></use>
                <polygon fill="#FFCC00" mask="url(#mask-2)" points="36.113521 16.3960396 29.4557549 16.3960396 29.4557549 23.0588546 22.5551536 23.0588546 22.5551536 29.4652477 16.039604 29.4652477 16.039604 36 36.113521 36"></polygon>
            </g>
            <path d="M14.6319037,18.6284553 L11.4886337,20.257415 C11.0963539,20.4607089 10.6135461,20.3075057 10.4102521,19.915226 C10.3297381,19.7598646 10.3023831,19.5823899 10.3323787,19.4099952 L10.9270633,15.9921409 C10.9726635,15.730061 10.8850083,15.4624575 10.6931896,15.2781457 L8.18252795,12.8657395 C7.86393664,12.5596164 7.8538292,12.0531853 8.15995234,11.734594 C8.28359956,11.6059107 8.44672375,11.5222654 8.62338087,11.4969616 L12.1133933,10.9970618 C12.3730036,10.9598759 12.5979011,10.7978063 12.7153123,10.5632964 L14.2846489,7.42879873 C14.4824508,7.03372125 14.9630745,6.87379778 15.358152,7.07159968 C15.5126719,7.14896256 15.6379882,7.2742788 15.7153511,7.42879873 L17.2846877,10.5632964 C17.4020989,10.7978063 17.6269964,10.9598759 17.8866067,10.9970618 L21.3766191,11.4969616 C21.813983,11.5596084 22.1177513,11.9649471 22.0551045,12.402311 C22.0298006,12.5789681 21.9461553,12.7420923 21.8174721,12.8657395 L19.3068104,15.2781457 C19.1149917,15.4624575 19.0273365,15.730061 19.0729367,15.9921409 L19.6676213,19.4099952 C19.7433586,19.8452832 19.4518852,20.2595511 19.0165972,20.3352884 C18.8442024,20.365284 18.6667277,20.337929 18.5113663,20.257415 L15.3680963,18.6284553 C15.137276,18.5088356 14.862724,18.5088356 14.6319037,18.6284553 Z" id="Star" fill="#FFCC00"></path>
        </g>
    </g>
</svg>