<?xml version="1.0" encoding="UTF-8" standalone="no"?>
<svg width="162px" height="542px" viewBox="0 0 162 542" version="1.1" xmlns="http://www.w3.org/2000/svg" xmlns:xlink="http://www.w3.org/1999/xlink">
    <!-- Generator: Sketch 50 (54983) - http://www.bohemiancoding.com/sketch -->
    <title>Line3_3</title>
    <desc>Created with Sketch.</desc>
    <defs></defs>
    <g id="Page-1" stroke="none" stroke-width="1" fill="none" fill-rule="evenodd">
        <path d="M162,0.5 L162,5.5 L100,5.5 L100,0.5 L162,0.5 Z M43.5805053,0.5 L43.5805053,5.5 L14.9689255,5.5 C9.74056233,5.5 5.5,9.74950239 5.5,14.9941587 L5.5,477.921088 C5.5,483.165745 9.74056233,487.415247 14.9689255,487.415247 L82.8823735,487.415247 C88.6958381,487.415247 90.5,489.147499 90.5,494.921365 L90.5,542 L85.5,542 L85.5,494.921365 C85.5,491.955445 85.978889,492.415247 82.8823735,492.415247 L14.9689255,492.415247 C6.97677861,492.415247 0.5,485.924814 0.5,477.921088 L0.5,14.9941587 C0.5,6.99043312 6.97677861,0.5 14.9689255,0.5 L43.5805053,0.5 Z" id="Line3_3" fill="#47AFE8" fill-rule="nonzero"></path>
    </g>
</svg>