<?xml version="1.0" encoding="UTF-8" standalone="no"?>
<svg width="232px" height="109px" viewBox="0 0 232 109" version="1.1" xmlns="http://www.w3.org/2000/svg" xmlns:xlink="http://www.w3.org/1999/xlink">
    <!-- Generator: Sketch 50 (54983) - http://www.bohemiancoding.com/sketch -->
    <title>NSA_or_SuperMassive</title>
    <desc>Created with Sketch.</desc>
    <defs></defs>
    <g id="Page-1" stroke="none" stroke-width="1" fill="none" fill-rule="evenodd">
        <g id="NSA_or_SuperMassive" fill="#636569">
            <path d="M64.3803934,68.0976931 C63.3630384,68.0976931 62.5320121,67.2666845 62.5320121,66.2456247 C62.5320121,65.2245649 63.3630384,64.3972828 64.3803934,64.3972828 L175.842253,64.3972828 C176.867061,64.3972828 177.690634,65.2245649 177.690634,66.2456247 C177.690634,67.2666845 176.867061,68.0976931 175.842253,68.0976931 L64.3803934,68.0976931 Z M65.6138897,62.3294503 C64.5928081,62.3294503 63.7655085,61.5021683 63.7655085,60.477382 C63.7655085,59.4563221 64.5928081,58.6290401 65.6138897,58.6290401 L188.188396,58.6290401 C189.209478,58.6290401 190.036777,59.4563221 190.036777,60.477382 C190.036777,61.5021683 189.209478,62.3294503 188.188396,62.3294503 L65.6138897,62.3294503 Z M76.7246732,50.8004179 C75.7073182,50.8004179 74.876292,49.9694093 74.876292,48.9483495 C74.876292,47.9272896 75.7073182,47.1000076 76.7246732,47.1000076 L199.29918,47.1000076 C200.316535,47.1000076 201.151288,47.9272896 201.151288,48.9483495 C201.151288,49.9694093 200.316535,50.8004179 199.29918,50.8004179 L76.7246732,50.8004179 Z M89.0689531,45.0325478 C88.0478715,45.0325478 87.2205718,44.2052657 87.2205718,43.1842059 C87.2205718,42.1594196 88.0478715,41.3321375 89.0689531,41.3321375 L200.530813,41.3321375 C201.555621,41.3321375 202.382921,42.1594196 202.382921,43.1842059 C202.382921,44.2052657 201.555621,45.0325478 200.530813,45.0325478 L89.0689531,45.0325478 Z M69.3188506,56.5630708 C68.2977691,56.5630708 67.4704694,55.7357888 67.4704694,54.714729 C67.4704694,53.6899426 68.2977691,52.8663871 69.3188506,52.8663871 L195.593846,52.8663871 C196.614928,52.8663871 197.442227,53.6899426 197.442227,54.714729 C197.442227,55.7357888 196.614928,56.5630708 195.593846,56.5630708 L69.3188506,56.5630708 Z M165.849442,27.4479597 C163.404809,27.4479597 161.411091,25.4468315 161.411091,23.0059768 L161.411091,17.3677888 C161.411091,14.9269341 163.404809,12.9295324 165.849442,12.9295324 L194.480718,12.9295324 C196.925351,12.9295324 198.919069,14.9269341 198.919069,17.3677888 L198.919069,23.0059768 C198.919069,25.4468315 196.925351,27.4479597 194.480718,27.4479597 L165.849442,27.4479597 Z M60.7961735,99.5168965 L60.7961735,91.251529 L73.0305194,91.251529 L73.0305194,99.5168965 L60.7961735,99.5168965 Z M44.8650651,87.5548452 L44.8650651,79.2894777 L57.099411,79.2894777 L57.099411,87.5548452 L44.8650651,87.5548452 Z M60.7961735,87.5548452 L60.7961735,79.2894777 L73.0305194,79.2894777 L73.0305194,87.5548452 L60.7961735,87.5548452 Z M44.8650651,99.5168965 L44.8650651,91.251529 L57.099411,91.251529 L57.099411,99.5168965 L44.8650651,99.5168965 Z M114.729031,79.2898503 C117.173664,79.2898503 119.167382,81.2909785 119.167382,83.7281067 L119.167382,87.5552179 L108.595088,87.5552179 L108.595088,79.2898503 L114.729031,79.2898503 Z M76.7272818,87.5548452 L76.7272818,79.2894777 L88.9616277,79.2894777 L88.9616277,87.5548452 L76.7272818,87.5548452 Z M30.5863202,95.0819939 L30.5863202,91.2548828 L41.1660667,91.2548828 L41.1660667,99.5202503 L35.0246711,99.5202503 C32.5837644,99.5202503 30.5863202,97.5228486 30.5863202,95.0819939 Z M30.5863202,83.7295973 C30.5863202,81.2887426 32.5837644,79.2913409 35.0246711,79.2913409 L41.1660667,79.2913409 L41.1660667,87.5567085 L30.5863202,87.5567085 L30.5863202,83.7295973 Z M108.593225,99.5217409 L108.593225,91.2563734 L119.172972,91.2563734 L119.172972,95.0834845 C119.172972,97.5206127 117.175527,99.5217409 114.727168,99.5217409 L108.593225,99.5217409 Z M92.6658433,99.5168965 L92.6658433,91.251529 L104.892736,91.251529 L104.892736,99.5168965 L92.6658433,99.5168965 Z M92.6658433,87.5548452 L92.6658433,79.2894777 L104.892736,79.2894777 L104.892736,87.5548452 L92.6658433,87.5548452 Z M76.7272818,99.5168965 L76.7272818,91.251529 L88.9616277,91.251529 L88.9616277,99.5168965 L76.7272818,99.5168965 Z M51.9451851,40.7146572 C54.3898183,40.7146572 56.3798094,42.7120589 56.3798094,45.1566401 L56.3798094,63.9120931 C56.3798094,66.3529478 54.3898183,68.3503495 51.9451851,68.3503495 L44.8050673,68.3503495 L44.8050673,63.7667597 L44.8050673,40.7146572 L51.9451851,40.7146572 Z M41.1038329,68.3503495 L33.9637152,68.3503495 C31.5190819,68.3503495 29.5216377,66.3492213 29.5216377,63.9120931 L29.5216377,45.1529136 C29.5216377,42.7083324 31.5190819,40.7146572 33.9637152,40.7146572 L41.1038329,40.7146572 L41.1038329,63.7630332 L41.1038329,68.3503495 Z" id="Combined-Shape"></path>
            <path d="M217.774048,38.5313033 L215.854862,38.5313033 L215.854862,31.1752008 L224.381266,31.1752008 L224.381266,31.9167734 C224.381266,35.5612862 221.418639,38.5313033 217.774048,38.5313033 Z M224.381266,77.0856281 L224.381266,77.5663461 L215.854862,77.5663461 L215.854862,70.4748247 L217.774048,70.4748247 C221.418639,70.4748247 224.381266,73.4373888 224.381266,77.0856281 Z M215.854862,90.6649785 L224.381266,90.6649785 L224.381266,81.2630298 L215.854862,81.2630298 L215.854862,90.6649785 Z M224.381266,94.8423802 C224.381266,98.4906196 221.418639,101.45691 217.774048,101.45691 L214.520748,101.45691 C215.370407,99.9178674 215.854862,98.1589614 215.854862,96.2808076 L215.854862,94.3653888 L224.381266,94.3653888 L224.381266,94.8423802 Z M217.774048,7.54549136 C221.418639,7.54549136 224.381266,10.511782 224.381266,14.1562948 L224.381266,14.3724315 L215.854862,14.3724315 L215.854862,12.7253204 C215.854862,10.8471666 215.370407,9.08453409 214.520748,7.54549136 L217.774048,7.54549136 Z M205.126052,103.308979 L26.7609909,103.308979 C22.8853528,103.308979 19.7252172,100.152637 19.7252172,96.2808076 L19.7252172,75.874517 L212.161826,75.874517 L212.161826,96.2808076 C212.161826,100.152637 209.001691,103.308979 205.126052,103.308979 Z M16.0284548,12.7253204 L16.0284548,14.3724315 L7.50577762,14.3724315 L7.50577762,14.1562948 C7.50577762,10.511782 10.4721314,7.54549136 14.1167218,7.54549136 L17.3700218,7.54549136 C16.5166361,9.08453409 16.0284548,10.8471666 16.0284548,12.7253204 Z M14.1167218,101.45691 C10.4721314,101.45691 7.50577762,98.4906196 7.50577762,94.8423802 L7.50577762,94.3653888 L16.0284548,94.3653888 L16.0284548,96.2808076 C16.0284548,98.1589614 16.5166361,99.9178674 17.3700218,101.45691 L14.1167218,101.45691 Z M7.50577762,90.6649785 L16.0284548,90.6649785 L16.0284548,81.2630298 L7.50577762,81.2630298 L7.50577762,90.6649785 Z M7.50577762,77.0856281 C7.50577762,73.4373888 10.4721314,70.4748247 14.1167218,70.4748247 L16.0284548,70.4748247 L16.0284548,77.5663461 L7.50577762,77.5663461 L7.50577762,77.0856281 Z M7.50577762,31.9167734 L7.50577762,31.1752008 L16.0284548,31.1752008 L16.0284548,38.5313033 L14.1167218,38.5313033 C10.4721314,38.5313033 7.50577762,35.5612862 7.50577762,31.9167734 Z M7.50577762,27.471064 L16.0284548,27.471064 L16.0284548,18.0728418 L7.50577762,18.0728418 L7.50577762,27.471064 Z M19.7289438,72.1741067 L212.161826,72.1741067 L212.161826,37.2568418 L19.7289438,37.2568418 L19.7289438,72.1741067 Z M26.7609909,5.69342298 L205.126052,5.69342298 C209.001691,5.69342298 212.161826,8.84603837 212.161826,12.7253204 L212.161826,33.552705 L19.7252172,33.552705 L19.7252172,12.7253204 C19.7252172,8.84603837 22.8853528,5.69342298 26.7609909,5.69342298 Z M215.854862,27.4747905 L224.381266,27.4747905 L224.381266,18.0765683 L215.854862,18.0765683 L215.854862,27.4747905 Z M231.789697,31.9167734 L231.789697,14.1562948 C231.789697,6.43126914 225.499238,0.144670845 217.774048,0.144670845 L14.1167218,0.144670845 C6.38407853,0.144670845 0.101072997,6.43126914 0.101072997,14.1562948 L0.101072997,31.9167734 C0.101072997,38.9114059 5.25865286,44.7098332 11.966488,45.7495255 L11.966488,63.252876 C5.25865286,64.2925683 0.101072997,70.0909956 0.101072997,77.0856281 L0.101072997,94.8423802 C0.101072997,102.571132 6.38407853,108.857731 14.1167218,108.857731 L217.774048,108.857731 C225.499238,108.857731 231.789697,102.571132 231.789697,94.8423802 L231.789697,77.0856281 C231.789697,69.9941067 226.490507,64.132329 219.648515,63.208158 L219.648515,45.790517 C226.490507,44.8700726 231.789697,39.0082948 231.789697,31.9167734 Z" id="Fill-127"></path>
        </g>
    </g>
</svg>