<?xml version="1.0" encoding="UTF-8" standalone="no"?>
<svg width="40px" height="51px" viewBox="0 0 40 51" version="1.1" xmlns="http://www.w3.org/2000/svg" xmlns:xlink="http://www.w3.org/1999/xlink">
    <!-- Generator: Sketch 50 (54983) - http://www.bohemiancoding.com/sketch -->
    <title>Pad</title>
    <desc>Created with Sketch.</desc>
    <defs></defs>
    <g id="Page-1" stroke="none" stroke-width="1" fill="none" fill-rule="evenodd">
        <g id="Pad" fill="#636569">
            <path d="M41.5996682,34.5357157 C41.5996682,38.526542 38.3756291,41.7633555 34.400553,41.7633555 L5.60099548,41.7633555 C1.62437091,41.7633555 -1.59966817,38.526542 -1.59966817,34.5357157 L-1.59966817,16.4642843 C-1.59966817,12.4719033 1.62437091,9.23664447 5.60099548,9.23664447 L34.400553,9.23664447 C38.3756291,9.23664447 41.5996682,12.4719033 41.5996682,16.4642843 L41.5996682,34.5357157 Z M35.2615356,5.62204724 L4.6254217,5.62204724 C-0.699972348,5.62204724 -5.2,10.1772171 -5.2,15.5237117 L-5.2,35.5897789 C-5.2,40.8227829 -0.699972348,45.3779528 4.66103788,45.3779528 L35.411743,45.3779528 C40.7743018,45.3779528 45.2,40.9362735 45.2,35.5913336 L45.2,15.5998903 C45.2,10.1414598 40.7743018,5.62204724 35.2615356,5.62204724 Z" id="Fill-38" transform="translate(20.000000, 25.500000) rotate(-270.000000) translate(-20.000000, -25.500000) "></path>
            <ellipse id="Oval-4" cx="19.8" cy="43.9724409" rx="2.2" ry="2.20866142"></ellipse>
        </g>
    </g>
</svg>