<?xml version="1.0" encoding="UTF-8" standalone="no"?>
<svg width="55px" height="55px" viewBox="0 0 55 55" version="1.1" xmlns="http://www.w3.org/2000/svg" xmlns:xlink="http://www.w3.org/1999/xlink">
    <!-- Generator: Sketch 50 (54983) - http://www.bohemiancoding.com/sketch -->
    <title>Phone_Home_Small_Office_LAN</title>
    <desc>Created with Sketch.</desc>
    <defs></defs>
    <g id="Page-1" stroke="none" stroke-width="1" fill="none" fill-rule="evenodd">
        <g id="Phone_Home_Small_Office_LAN" fill="#646566">
            <path d="M44.8336688,44.3800749 L38.337127,37.944744 C36.9882415,36.6075739 34.6622992,36.7543754 33.1363524,38.2590907 L28.2027794,43.1530058 C28.2027794,43.1530058 27.9903058,43.4865005 27.9227005,43.4274608 C25.0140655,41.4472363 21.8559349,38.9803329 19.0792911,36.2278048 C16.2527481,33.425811 13.8656393,30.451485 11.8439206,27.5298161 C11.7891926,27.4500327 11.6813461,27.2904658 11.6813461,27.2904658 C11.6813461,27.2904658 12.254381,26.7240035 12.5924072,26.3873175 L12.9481396,26.0107397 L16.8740725,22.1236914 C18.3935808,20.6173804 18.5287913,18.3100438 17.1766864,16.9728736 L10.710728,10.5566908 C9.35862316,9.217925 7.03268093,9.35355681 5.5147823,10.8598678 L1.23311701,15.1059416 C0.276985736,16.0537686 -0.128645712,17.3095597 0.0355384455,18.448867 C0.0435866885,18.496737 0.0950954439,18.8621451 0.141775253,19.1445784 C0.198112955,19.4940298 0.244792764,19.7636978 0.257669953,19.8019938 C1.94297204,26.4335919 6.77191786,34.3864034 13.8479331,41.4041532 C21.2217334,48.7075277 29.3617264,53.3301792 36.2156101,54.8093638 C36.230097,54.8141508 36.2494128,54.8141508 36.2622899,54.8237249 C36.2767768,54.8237249 36.2977022,54.8285119 36.3105794,54.8332989 C37.6031272,55.2481727 39.1371224,54.8859559 40.2606571,53.7769664 L44.5407127,49.534084 C46.0505631,48.0261773 46.1857736,45.7204364 44.8336688,44.3800749" id="Fill-42"></path>
            <path d="M25.2496805,17.2627737 C25.2496805,17.2627737 23.6861314,17.4197871 23.6861314,18.8248966 C23.6861314,20.2300061 25.2464732,20.3838151 25.2464732,20.3838151 C27.6423116,20.3838151 30.0413573,21.2970562 31.869507,23.1235383 C33.700864,24.9516226 34.6117316,27.3484798 34.6117316,29.7469392 C34.6117316,29.7469392 34.7624738,31.3138686 36.1768844,31.3138686 C37.5752586,31.3138686 37.7372263,29.7469392 37.7372263,29.7469392 C37.7372263,26.5489933 36.5216671,23.3542518 34.0793231,20.9221467 C31.6401865,18.4804285 28.4441317,17.2659781 25.2496805,17.2627737" id="Fill-44"></path>
            <path d="M25.2808412,8.43065693 C25.2808412,8.43065693 23.6861314,8.64844781 23.6861314,10.0251405 C23.6861314,11.4018332 25.2840211,11.6212137 25.2840211,11.6212137 C29.8137602,11.6212137 34.3434993,13.3492333 37.8000289,16.8052724 C41.2565585,20.2597218 42.9832334,24.7904079 42.9880032,29.3242734 C42.9880032,29.3242734 43.1310978,30.9123981 44.5699935,30.9123981 C46.0327383,30.9171672 46.1678832,29.3242734 46.1678832,29.3242734 C46.1678832,23.9748844 44.1295801,18.6286749 40.0545639,14.5494677 C35.9779576,10.4718502 30.6293994,8.43065693 25.2808412,8.43065693" id="Fill-46"></path>
            <path d="M44.0809674,10.9154782 C49.2753023,16.1103391 51.8708626,22.9210572 51.8708626,29.7333833 C51.8708626,29.7333833 51.9142558,31.3138686 53.4137343,31.3138686 C54.9132128,31.3138686 54.9999993,29.7317754 54.9999993,29.7317754 C55.0016065,22.1187559 52.0974718,14.5089521 46.294024,8.71115938 C40.4921834,2.91497452 32.8774684,0 25.2723964,0 C25.2723964,0 23.6861314,0.233133649 23.6861314,1.58852445 C23.6861314,2.94713089 25.2723964,3.13202999 25.2723964,3.13202999 C32.0787109,3.1239909 38.8834182,5.7206174 44.0809674,10.9154782" id="Fill-48"></path>
        </g>
    </g>
</svg>