<?xml version="1.0" encoding="UTF-8" standalone="no"?>
<!DOCTYPE svg PUBLIC "-//W3C//DTD SVG 1.1//EN" "http://www.w3.org/Graphics/SVG/1.1/DTD/svg11.dtd">
<svg width="100%" height="100%" viewBox="0 0 60 10" version="1.1" xmlns="http://www.w3.org/2000/svg" xmlns:xlink="http://www.w3.org/1999/xlink" xml:space="preserve" xmlns:serif="http://www.serif.com/" style="fill-rule:evenodd;clip-rule:evenodd;stroke-linejoin:round;stroke-miterlimit:1.41421;">
    <g transform="matrix(1,0,0,1,-679,-392)">
        <g transform="matrix(1,0,0,1,0,-7)">
            <g transform="matrix(1,0,0,1,678,408)">
                <g id="PoE-Switch">
                    <path d="M1.176,-0.078C1.088,-0.17 1.044,-0.292 1.044,-0.444L1.044,-7.98C1.044,-8.124 1.09,-8.24 1.182,-8.328C1.274,-8.416 1.396,-8.46 1.548,-8.46L4.392,-8.46C5.28,-8.46 5.97,-8.244 6.462,-7.812C6.954,-7.38 7.2,-6.768 7.2,-5.976C7.2,-5.184 6.952,-4.568 6.456,-4.128C5.96,-3.688 5.272,-3.468 4.392,-3.468L2.028,-3.468L2.028,-0.444C2.028,-0.292 1.984,-0.17 1.896,-0.078C1.808,0.014 1.688,0.06 1.536,0.06C1.384,0.06 1.264,0.014 1.176,-0.078ZM4.296,-4.284C5.584,-4.284 6.228,-4.848 6.228,-5.976C6.228,-7.088 5.584,-7.644 4.296,-7.644L2.028,-7.644L2.028,-4.284L4.296,-4.284Z" style="fill-rule:nonzero;"/>
                    <path d="M9.402,-0.288C8.982,-0.536 8.658,-0.89 8.43,-1.35C8.202,-1.81 8.088,-2.344 8.088,-2.952C8.088,-3.56 8.202,-4.094 8.43,-4.554C8.658,-5.014 8.982,-5.368 9.402,-5.616C9.822,-5.864 10.308,-5.988 10.86,-5.988C11.412,-5.988 11.9,-5.864 12.324,-5.616C12.748,-5.368 13.074,-5.014 13.302,-4.554C13.53,-4.094 13.644,-3.56 13.644,-2.952C13.644,-2.344 13.53,-1.81 13.302,-1.35C13.074,-0.89 12.748,-0.536 12.324,-0.288C11.9,-0.04 11.412,0.084 10.86,0.084C10.308,0.084 9.822,-0.04 9.402,-0.288ZM12.186,-1.29C12.494,-1.67 12.648,-2.224 12.648,-2.952C12.648,-3.664 12.492,-4.214 12.18,-4.602C11.868,-4.99 11.428,-5.184 10.86,-5.184C10.292,-5.184 9.852,-4.99 9.54,-4.602C9.228,-4.214 9.072,-3.664 9.072,-2.952C9.072,-2.232 9.226,-1.68 9.534,-1.296C9.842,-0.912 10.284,-0.72 10.86,-0.72C11.436,-0.72 11.878,-0.91 12.186,-1.29Z" style="fill-rule:nonzero;"/>
                    <path d="M15.366,-0.132C15.274,-0.22 15.228,-0.336 15.228,-0.48L15.228,-7.98C15.228,-8.124 15.274,-8.24 15.366,-8.328C15.458,-8.416 15.58,-8.46 15.732,-8.46L20.22,-8.46C20.364,-8.46 20.476,-8.424 20.556,-8.352C20.636,-8.28 20.676,-8.18 20.676,-8.052C20.676,-7.924 20.636,-7.824 20.556,-7.752C20.476,-7.68 20.364,-7.644 20.22,-7.644L16.2,-7.644L16.2,-4.704L19.98,-4.704C20.124,-4.704 20.236,-4.668 20.316,-4.596C20.396,-4.524 20.436,-4.424 20.436,-4.296C20.436,-4.168 20.396,-4.068 20.316,-3.996C20.236,-3.924 20.124,-3.888 19.98,-3.888L16.2,-3.888L16.2,-0.816L20.22,-0.816C20.364,-0.816 20.476,-0.782 20.556,-0.714C20.636,-0.646 20.676,-0.544 20.676,-0.408C20.676,-0.28 20.636,-0.18 20.556,-0.108C20.476,-0.036 20.364,0 20.22,0L15.732,0C15.58,0 15.458,-0.044 15.366,-0.132Z" style="fill-rule:nonzero;"/>
                    <path d="M26.262,-0.174C25.714,-0.354 25.276,-0.596 24.948,-0.9C24.828,-1.012 24.768,-1.152 24.768,-1.32C24.768,-1.432 24.8,-1.53 24.864,-1.614C24.928,-1.698 25.004,-1.74 25.092,-1.74C25.196,-1.74 25.308,-1.696 25.428,-1.608C26.172,-1.032 27.02,-0.744 27.972,-0.744C28.66,-0.744 29.188,-0.876 29.556,-1.14C29.924,-1.404 30.108,-1.78 30.108,-2.268C30.108,-2.548 30.02,-2.774 29.844,-2.946C29.668,-3.118 29.436,-3.256 29.148,-3.36C28.86,-3.464 28.472,-3.572 27.984,-3.684C27.328,-3.836 26.79,-3.996 26.37,-4.164C25.95,-4.332 25.61,-4.572 25.35,-4.884C25.09,-5.196 24.96,-5.604 24.96,-6.108C24.96,-6.588 25.09,-7.014 25.35,-7.386C25.61,-7.758 25.974,-8.046 26.442,-8.25C26.91,-8.454 27.444,-8.556 28.044,-8.556C28.604,-8.556 29.126,-8.47 29.61,-8.298C30.094,-8.126 30.5,-7.88 30.828,-7.56C30.956,-7.432 31.02,-7.292 31.02,-7.14C31.02,-7.028 30.988,-6.93 30.924,-6.846C30.86,-6.762 30.784,-6.72 30.696,-6.72C30.608,-6.72 30.492,-6.764 30.348,-6.852C29.956,-7.172 29.592,-7.396 29.256,-7.524C28.92,-7.652 28.516,-7.716 28.044,-7.716C27.38,-7.716 26.864,-7.578 26.496,-7.302C26.128,-7.026 25.944,-6.64 25.944,-6.144C25.944,-5.72 26.106,-5.402 26.43,-5.19C26.754,-4.978 27.252,-4.792 27.924,-4.632C28.652,-4.456 29.224,-4.294 29.64,-4.146C30.056,-3.998 30.402,-3.776 30.678,-3.48C30.954,-3.184 31.092,-2.788 31.092,-2.292C31.092,-1.82 30.962,-1.404 30.702,-1.044C30.442,-0.684 30.076,-0.404 29.604,-0.204C29.132,-0.004 28.592,0.096 27.984,0.096C27.384,0.096 26.81,0.006 26.262,-0.174Z" style="fill-rule:nonzero;"/>
                    <path d="M40.848,-5.94C40.968,-5.94 41.076,-5.9 41.172,-5.82C41.268,-5.74 41.316,-5.64 41.316,-5.52C41.316,-5.464 41.304,-5.404 41.28,-5.34L39.288,-0.3C39.24,-0.196 39.17,-0.114 39.078,-0.054C38.986,0.006 38.884,0.036 38.772,0.036C38.668,0.036 38.57,0.006 38.478,-0.054C38.386,-0.114 38.316,-0.196 38.268,-0.3L36.612,-4.512L34.968,-0.3C34.928,-0.196 34.86,-0.114 34.764,-0.054C34.668,0.006 34.564,0.036 34.452,0.036C34.348,0.036 34.248,0.006 34.152,-0.054C34.056,-0.114 33.984,-0.196 33.936,-0.3L31.944,-5.328C31.92,-5.392 31.908,-5.448 31.908,-5.496C31.908,-5.624 31.962,-5.732 32.07,-5.82C32.178,-5.908 32.296,-5.952 32.424,-5.952C32.616,-5.952 32.752,-5.856 32.832,-5.664L34.476,-1.236L36.168,-5.628C36.216,-5.732 36.282,-5.812 36.366,-5.868C36.45,-5.924 36.54,-5.952 36.636,-5.952C36.74,-5.952 36.834,-5.924 36.918,-5.868C37.002,-5.812 37.064,-5.732 37.104,-5.628L38.796,-1.248L40.452,-5.652C40.532,-5.844 40.664,-5.94 40.848,-5.94Z" style="fill-rule:nonzero;"/>
                    <path d="M42.69,-0.066C42.598,-0.15 42.552,-0.268 42.552,-0.42L42.552,-5.484C42.552,-5.636 42.598,-5.754 42.69,-5.838C42.782,-5.922 42.9,-5.964 43.044,-5.964C43.188,-5.964 43.304,-5.922 43.392,-5.838C43.48,-5.754 43.524,-5.636 43.524,-5.484L43.524,-0.42C43.524,-0.26 43.48,-0.14 43.392,-0.06C43.304,0.02 43.188,0.06 43.044,0.06C42.9,0.06 42.782,0.018 42.69,-0.066ZM42.576,-7.392C42.456,-7.504 42.396,-7.652 42.396,-7.836C42.396,-8.012 42.456,-8.156 42.576,-8.268C42.696,-8.38 42.852,-8.436 43.044,-8.436C43.236,-8.436 43.392,-8.38 43.512,-8.268C43.632,-8.156 43.692,-8.012 43.692,-7.836C43.692,-7.652 43.632,-7.504 43.512,-7.392C43.392,-7.28 43.236,-7.224 43.044,-7.224C42.852,-7.224 42.696,-7.28 42.576,-7.392Z" style="fill-rule:nonzero;"/>
                    <path d="M48.444,-0.324C48.444,-0.188 48.394,-0.086 48.294,-0.018C48.194,0.05 48.044,0.076 47.844,0.06L47.52,0.036C46.88,-0.012 46.408,-0.204 46.104,-0.54C45.8,-0.876 45.648,-1.384 45.648,-2.064L45.648,-5.076L44.844,-5.076C44.708,-5.076 44.602,-5.11 44.526,-5.178C44.45,-5.246 44.412,-5.336 44.412,-5.448C44.412,-5.568 44.45,-5.664 44.526,-5.736C44.602,-5.808 44.708,-5.844 44.844,-5.844L45.648,-5.844L45.648,-7.2C45.648,-7.352 45.692,-7.47 45.78,-7.554C45.868,-7.638 45.988,-7.68 46.14,-7.68C46.284,-7.68 46.4,-7.638 46.488,-7.554C46.576,-7.47 46.62,-7.352 46.62,-7.2L46.62,-5.844L47.952,-5.844C48.08,-5.844 48.182,-5.808 48.258,-5.736C48.334,-5.664 48.372,-5.568 48.372,-5.448C48.372,-5.336 48.334,-5.246 48.258,-5.178C48.182,-5.11 48.08,-5.076 47.952,-5.076L46.62,-5.076L46.62,-2.016C46.62,-1.576 46.71,-1.258 46.89,-1.062C47.07,-0.866 47.34,-0.756 47.7,-0.732L48.024,-0.708C48.304,-0.684 48.444,-0.556 48.444,-0.324Z" style="fill-rule:nonzero;"/>
                    <path d="M50.357,-0.288C49.937,-0.536 49.613,-0.888 49.385,-1.344C49.157,-1.8 49.043,-2.328 49.043,-2.928C49.043,-3.528 49.161,-4.06 49.397,-4.524C49.633,-4.988 49.963,-5.348 50.387,-5.604C50.811,-5.86 51.299,-5.988 51.851,-5.988C52.155,-5.988 52.457,-5.946 52.757,-5.862C53.057,-5.778 53.319,-5.656 53.543,-5.496C53.687,-5.4 53.789,-5.306 53.849,-5.214C53.909,-5.122 53.939,-5.02 53.939,-4.908C53.939,-4.796 53.909,-4.704 53.849,-4.632C53.789,-4.56 53.711,-4.524 53.615,-4.524C53.559,-4.524 53.499,-4.54 53.435,-4.572C53.371,-4.604 53.317,-4.636 53.273,-4.668C53.229,-4.7 53.199,-4.72 53.183,-4.728C52.975,-4.864 52.777,-4.972 52.589,-5.052C52.401,-5.132 52.171,-5.172 51.899,-5.172C51.315,-5.172 50.861,-4.974 50.537,-4.578C50.213,-4.182 50.051,-3.632 50.051,-2.928C50.051,-2.224 50.213,-1.68 50.537,-1.296C50.861,-0.912 51.315,-0.72 51.899,-0.72C52.171,-0.72 52.405,-0.76 52.601,-0.84C52.797,-0.92 52.995,-1.028 53.195,-1.164C53.283,-1.22 53.367,-1.268 53.447,-1.308C53.527,-1.348 53.595,-1.368 53.651,-1.368C53.739,-1.368 53.813,-1.332 53.873,-1.26C53.933,-1.188 53.963,-1.096 53.963,-0.984C53.963,-0.88 53.935,-0.786 53.879,-0.702C53.823,-0.618 53.719,-0.524 53.567,-0.42C53.343,-0.268 53.073,-0.146 52.757,-0.054C52.441,0.038 52.123,0.084 51.803,0.084C51.259,0.084 50.777,-0.04 50.357,-0.288Z" style="fill-rule:nonzero;"/>
                    <path d="M59.639,-5.406C59.991,-5.018 60.167,-4.44 60.167,-3.672L60.167,-0.42C60.167,-0.268 60.123,-0.15 60.035,-0.066C59.947,0.018 59.831,0.06 59.687,0.06C59.535,0.06 59.415,0.018 59.327,-0.066C59.239,-0.15 59.195,-0.268 59.195,-0.42L59.195,-3.648C59.195,-4.168 59.089,-4.552 58.877,-4.8C58.665,-5.048 58.327,-5.172 57.863,-5.172C57.327,-5.172 56.899,-5.008 56.579,-4.68C56.259,-4.352 56.099,-3.908 56.099,-3.348L56.099,-0.42C56.099,-0.268 56.057,-0.15 55.973,-0.066C55.889,0.018 55.771,0.06 55.619,0.06C55.467,0.06 55.347,0.018 55.259,-0.066C55.171,-0.15 55.127,-0.268 55.127,-0.42L55.127,-8.052C55.127,-8.188 55.173,-8.3 55.265,-8.388C55.357,-8.476 55.475,-8.52 55.619,-8.52C55.771,-8.52 55.889,-8.478 55.973,-8.394C56.057,-8.31 56.099,-8.196 56.099,-8.052L56.099,-4.908C56.291,-5.26 56.559,-5.528 56.903,-5.712C57.247,-5.896 57.639,-5.988 58.079,-5.988C58.767,-5.988 59.287,-5.794 59.639,-5.406Z" style="fill-rule:nonzero;"/>
                </g>
            </g>
        </g>
    </g>
</svg>
