<?xml version="1.0" encoding="UTF-8" standalone="no"?>
<svg width="31px" height="53px" viewBox="0 0 31 53" version="1.1" xmlns="http://www.w3.org/2000/svg" xmlns:xlink="http://www.w3.org/1999/xlink">
    <!-- Generator: Sketch 50 (54983) - http://www.bohemiancoding.com/sketch -->
    <title>Secure_Wireless_Zone</title>
    <desc>Created with Sketch.</desc>
    <defs></defs>
    <g id="Page-1" stroke="none" stroke-width="1" fill="none" fill-rule="evenodd">
        <g id="Secure_Wireless_Zone" fill="#636569">
            <path d="M21.7884615,9.22462783 C25.4697802,9.22462783 27.3159341,11.0501887 27.3159341,14.6958692 L27.3159341,43.8776369 C27.3159341,47.5287586 25.4697802,49.3488782 21.7884615,49.3488782 L9.09340659,49.3488782 C5.40934066,49.3488782 3.65659341,47.5287586 3.65659341,43.8776369 L3.65659341,14.6958692 C3.65659341,11.0501887 5.40934066,9.22462783 9.09340659,9.22462783 L21.7884615,9.22462783 Z M5.03246753,5.95335926 L5.03246753,2.39097744 C5.03246753,1.18051876 6.02383701,0.19924812 7.24675325,0.19924812 C8.46966948,0.19924812 9.46103896,1.18051876 9.46103896,2.39097744 L9.46103896,5.57894737 L23.6318681,5.57894737 C27.6978022,5.57894737 31,8.84373585 31,12.8703083 L31,45.7031978 C31,49.7324909 27.6978022,53 23.6318681,53 L7.36813187,53 C3.53021978,53 0,49.7297702 0,45.7031978 L0,12.8703083 C0,9.65200771 2.10952782,6.92035407 5.03246753,5.95335926 Z" id="Combined-Shape"></path>
            <path d="M8.05194805,15.3421053 C6.82903182,15.3421053 5.83766234,14.3608346 5.83766234,13.1503759 C5.83766234,11.9399173 6.82903182,10.9586466 8.05194805,10.9586466 L23.3506494,10.9586466 C24.5735656,10.9586466 25.5649351,11.9399173 25.5649351,13.1503759 C25.5649351,14.3608346 24.5735656,15.3421053 23.3506494,15.3421053 L8.05194805,15.3421053 Z" id="Stroke-54" fill-rule="nonzero"></path>
        </g>
    </g>
</svg>