<?xml version="1.0" encoding="UTF-8" standalone="no"?>
<!DOCTYPE svg PUBLIC "-//W3C//DTD SVG 1.1//EN" "http://www.w3.org/Graphics/SVG/1.1/DTD/svg11.dtd">
<svg width="100%" height="100%" viewBox="0 0 93 93" version="1.1" xmlns="http://www.w3.org/2000/svg" xmlns:xlink="http://www.w3.org/1999/xlink" xml:space="preserve" xmlns:serif="http://www.serif.com/" style="fill-rule:evenodd;clip-rule:evenodd;stroke-linejoin:round;stroke-miterlimit:1.41421;">
    <g transform="matrix(1,0,0,1,-1202,-189)">
        <g transform="matrix(1,0,0,1,0,-7)">
            <g id="Secure-wireless-zone">
                <g transform="matrix(1,0,0,1,1202,206)">
                    <path d="M2.191,-0.189C1.597,-0.383 1.122,-0.646 0.767,-0.975C0.637,-1.096 0.572,-1.248 0.572,-1.43C0.572,-1.551 0.607,-1.658 0.676,-1.749C0.745,-1.839 0.828,-1.885 0.923,-1.885C1.036,-1.885 1.157,-1.837 1.287,-1.742C2.093,-1.118 3.012,-0.806 4.043,-0.806C4.788,-0.806 5.36,-0.949 5.759,-1.235C6.158,-1.521 6.357,-1.928 6.357,-2.457C6.357,-2.76 6.262,-3.005 6.071,-3.192C5.88,-3.378 5.629,-3.527 5.317,-3.64C5.005,-3.753 4.585,-3.87 4.056,-3.991C3.345,-4.156 2.762,-4.329 2.308,-4.511C1.852,-4.693 1.484,-4.953 1.202,-5.291C0.921,-5.629 0.78,-6.071 0.78,-6.617C0.78,-7.137 0.921,-7.599 1.202,-8.002C1.484,-8.405 1.878,-8.717 2.386,-8.938C2.893,-9.159 3.471,-9.269 4.121,-9.269C4.728,-9.269 5.293,-9.176 5.818,-8.99C6.342,-8.803 6.782,-8.537 7.137,-8.19C7.276,-8.051 7.345,-7.9 7.345,-7.735C7.345,-7.614 7.31,-7.508 7.241,-7.417C7.172,-7.326 7.089,-7.28 6.994,-7.28C6.899,-7.28 6.773,-7.328 6.617,-7.423C6.192,-7.77 5.798,-8.012 5.434,-8.151C5.07,-8.29 4.632,-8.359 4.121,-8.359C3.402,-8.359 2.843,-8.21 2.444,-7.911C2.045,-7.612 1.846,-7.193 1.846,-6.656C1.846,-6.197 2.022,-5.852 2.373,-5.622C2.724,-5.393 3.263,-5.191 3.991,-5.018C4.78,-4.827 5.399,-4.652 5.85,-4.492C6.301,-4.331 6.675,-4.091 6.975,-3.77C7.274,-3.449 7.423,-3.02 7.423,-2.483C7.423,-1.972 7.282,-1.521 7.001,-1.131C6.719,-0.741 6.322,-0.438 5.811,-0.221C5.3,-0.004 4.715,0.104 4.056,0.104C3.406,0.104 2.784,0.006 2.191,-0.189Z" style="fill:rgb(255,120,27);fill-rule:nonzero;"/>
                    <path d="M14.13,-1.352C14.199,-1.274 14.234,-1.174 14.234,-1.053C14.234,-0.836 14.082,-0.637 13.779,-0.455C13.467,-0.273 13.138,-0.137 12.791,-0.046C12.444,0.046 12.106,0.091 11.777,0.091C10.798,0.091 10.024,-0.199 9.456,-0.78C8.889,-1.361 8.605,-2.162 8.605,-3.185C8.605,-3.835 8.731,-4.409 8.982,-4.908C9.233,-5.406 9.586,-5.794 10.041,-6.071C10.496,-6.348 11.014,-6.487 11.595,-6.487C12.418,-6.487 13.073,-6.218 13.558,-5.681C14.043,-5.144 14.286,-4.416 14.286,-3.497C14.286,-3.324 14.251,-3.198 14.182,-3.12C14.113,-3.042 14,-3.003 13.844,-3.003L9.658,-3.003C9.736,-1.512 10.442,-0.767 11.777,-0.767C12.115,-0.767 12.405,-0.813 12.648,-0.904C12.891,-0.994 13.151,-1.118 13.428,-1.274C13.653,-1.404 13.805,-1.469 13.883,-1.469C13.978,-1.469 14.061,-1.43 14.13,-1.352ZM10.275,-5.148C9.942,-4.801 9.745,-4.312 9.684,-3.679L13.363,-3.679C13.346,-4.32 13.185,-4.812 12.882,-5.155C12.579,-5.497 12.154,-5.668 11.608,-5.668C11.053,-5.668 10.609,-5.495 10.275,-5.148Z" style="fill:rgb(255,120,27);fill-rule:nonzero;"/>
                    <path d="M16.865,-0.312C16.41,-0.581 16.059,-0.962 15.812,-1.456C15.565,-1.95 15.442,-2.522 15.442,-3.172C15.442,-3.822 15.57,-4.398 15.825,-4.901C16.081,-5.404 16.438,-5.794 16.898,-6.071C17.357,-6.348 17.886,-6.487 18.484,-6.487C18.813,-6.487 19.14,-6.441 19.465,-6.351C19.79,-6.26 20.074,-6.127 20.317,-5.954C20.473,-5.85 20.583,-5.748 20.648,-5.649C20.713,-5.549 20.746,-5.438 20.746,-5.317C20.746,-5.196 20.713,-5.096 20.648,-5.018C20.583,-4.94 20.499,-4.901 20.395,-4.901C20.334,-4.901 20.269,-4.918 20.2,-4.953C20.13,-4.988 20.072,-5.022 20.024,-5.057C19.977,-5.092 19.944,-5.113 19.927,-5.122C19.701,-5.269 19.487,-5.386 19.283,-5.473C19.08,-5.56 18.83,-5.603 18.536,-5.603C17.903,-5.603 17.411,-5.389 17.06,-4.96C16.709,-4.531 16.534,-3.935 16.534,-3.172C16.534,-2.409 16.709,-1.82 17.06,-1.404C17.411,-0.988 17.903,-0.78 18.536,-0.78C18.83,-0.78 19.084,-0.823 19.296,-0.91C19.509,-0.997 19.723,-1.114 19.94,-1.261C20.035,-1.322 20.126,-1.374 20.213,-1.417C20.299,-1.46 20.373,-1.482 20.434,-1.482C20.529,-1.482 20.609,-1.443 20.674,-1.365C20.739,-1.287 20.772,-1.187 20.772,-1.066C20.772,-0.953 20.741,-0.852 20.681,-0.761C20.62,-0.67 20.507,-0.568 20.343,-0.455C20.1,-0.29 19.808,-0.158 19.465,-0.059C19.123,0.041 18.778,0.091 18.432,0.091C17.842,0.091 17.32,-0.043 16.865,-0.312Z" style="fill:rgb(255,120,27);fill-rule:nonzero;"/>
                    <path d="M27.225,-6.318C27.316,-6.223 27.362,-6.097 27.362,-5.941L27.362,-0.442C27.362,-0.295 27.316,-0.173 27.225,-0.078C27.134,0.017 27.006,0.065 26.842,0.065C26.686,0.065 26.562,0.02 26.471,-0.071C26.38,-0.162 26.335,-0.282 26.335,-0.429L26.335,-1.079C26.135,-0.698 25.856,-0.407 25.496,-0.208C25.136,-0.009 24.731,0.091 24.281,0.091C23.527,0.091 22.959,-0.119 22.578,-0.54C22.196,-0.96 22.006,-1.582 22.006,-2.405L22.006,-5.941C22.006,-6.097 22.053,-6.223 22.149,-6.318C22.244,-6.413 22.374,-6.461 22.539,-6.461C22.703,-6.461 22.831,-6.413 22.922,-6.318C23.013,-6.223 23.059,-6.097 23.059,-5.941L23.059,-2.431C23.059,-1.868 23.171,-1.454 23.397,-1.19C23.622,-0.925 23.977,-0.793 24.463,-0.793C25.017,-0.793 25.464,-0.973 25.802,-1.333C26.14,-1.692 26.309,-2.167 26.309,-2.756L26.309,-5.941C26.309,-6.097 26.356,-6.223 26.452,-6.318C26.547,-6.413 26.677,-6.461 26.842,-6.461C27.006,-6.461 27.134,-6.413 27.225,-6.318Z" style="fill:rgb(255,120,27);fill-rule:nonzero;"/>
                    <path d="M32.989,-6.019C32.989,-5.88 32.95,-5.77 32.872,-5.688C32.794,-5.605 32.66,-5.555 32.469,-5.538L32.079,-5.499C31.499,-5.447 31.068,-5.241 30.786,-4.882C30.504,-4.522 30.363,-4.099 30.363,-3.614L30.363,-0.455C30.363,-0.282 30.316,-0.152 30.22,-0.065C30.125,0.022 29.999,0.065 29.843,0.065C29.687,0.065 29.56,0.02 29.46,-0.071C29.36,-0.162 29.31,-0.29 29.31,-0.455L29.31,-5.941C29.31,-6.106 29.362,-6.234 29.466,-6.324C29.57,-6.416 29.696,-6.461 29.843,-6.461C29.982,-6.461 30.099,-6.416 30.194,-6.324C30.29,-6.234 30.337,-6.11 30.337,-5.954L30.337,-5.226C30.519,-5.607 30.777,-5.898 31.111,-6.097C31.445,-6.296 31.828,-6.413 32.261,-6.448L32.443,-6.461C32.807,-6.487 32.989,-6.34 32.989,-6.019Z" style="fill:rgb(255,120,27);fill-rule:nonzero;"/>
                    <path d="M38.903,-1.352C38.973,-1.274 39.007,-1.174 39.007,-1.053C39.007,-0.836 38.856,-0.637 38.552,-0.455C38.24,-0.273 37.911,-0.137 37.564,-0.046C37.218,0.046 36.88,0.091 36.55,0.091C35.571,0.091 34.797,-0.199 34.23,-0.78C33.662,-1.361 33.378,-2.162 33.378,-3.185C33.378,-3.835 33.504,-4.409 33.755,-4.908C34.007,-5.406 34.36,-5.794 34.815,-6.071C35.27,-6.348 35.788,-6.487 36.368,-6.487C37.192,-6.487 37.846,-6.218 38.331,-5.681C38.817,-5.144 39.059,-4.416 39.059,-3.497C39.059,-3.324 39.025,-3.198 38.955,-3.12C38.886,-3.042 38.773,-3.003 38.617,-3.003L34.431,-3.003C34.509,-1.512 35.216,-0.767 36.55,-0.767C36.888,-0.767 37.179,-0.813 37.421,-0.904C37.664,-0.994 37.924,-1.118 38.201,-1.274C38.427,-1.404 38.578,-1.469 38.656,-1.469C38.752,-1.469 38.834,-1.43 38.903,-1.352ZM35.049,-5.148C34.715,-4.801 34.518,-4.312 34.457,-3.679L38.136,-3.679C38.119,-4.32 37.959,-4.812 37.655,-5.155C37.352,-5.497 36.927,-5.668 36.381,-5.668C35.827,-5.668 35.382,-5.495 35.049,-5.148Z" style="fill:rgb(255,120,27);fill-rule:nonzero;"/>
                    <path d="M53.019,-6.435C53.149,-6.435 53.266,-6.392 53.37,-6.305C53.474,-6.218 53.526,-6.11 53.526,-5.98C53.526,-5.919 53.513,-5.854 53.487,-5.785L51.329,-0.325C51.277,-0.212 51.201,-0.124 51.101,-0.059C51.002,0.006 50.891,0.039 50.77,0.039C50.657,0.039 50.551,0.006 50.451,-0.059C50.352,-0.124 50.276,-0.212 50.224,-0.325L48.43,-4.888L46.649,-0.325C46.606,-0.212 46.532,-0.124 46.428,-0.059C46.324,0.006 46.211,0.039 46.09,0.039C45.977,0.039 45.869,0.006 45.765,-0.059C45.661,-0.124 45.583,-0.212 45.531,-0.325L43.373,-5.772C43.347,-5.841 43.334,-5.902 43.334,-5.954C43.334,-6.093 43.392,-6.21 43.509,-6.305C43.626,-6.4 43.754,-6.448 43.893,-6.448C44.101,-6.448 44.248,-6.344 44.335,-6.136L46.116,-1.339L47.949,-6.097C48.001,-6.21 48.072,-6.296 48.163,-6.357C48.254,-6.418 48.352,-6.448 48.456,-6.448C48.569,-6.448 48.67,-6.418 48.761,-6.357C48.852,-6.296 48.92,-6.21 48.963,-6.097L50.796,-1.352L52.59,-6.123C52.677,-6.331 52.82,-6.435 53.019,-6.435Z" style="fill:rgb(255,120,27);fill-rule:nonzero;"/>
                    <path d="M55.013,-0.071C54.914,-0.162 54.864,-0.29 54.864,-0.455L54.864,-5.941C54.864,-6.106 54.914,-6.234 55.013,-6.324C55.113,-6.416 55.241,-6.461 55.397,-6.461C55.553,-6.461 55.678,-6.416 55.774,-6.324C55.869,-6.234 55.917,-6.106 55.917,-5.941L55.917,-0.455C55.917,-0.282 55.869,-0.152 55.774,-0.065C55.678,0.022 55.553,0.065 55.397,0.065C55.241,0.065 55.113,0.02 55.013,-0.071ZM54.89,-8.008C54.76,-8.129 54.695,-8.29 54.695,-8.489C54.695,-8.68 54.76,-8.836 54.89,-8.957C55.02,-9.078 55.189,-9.139 55.397,-9.139C55.605,-9.139 55.774,-9.078 55.904,-8.957C56.034,-8.836 56.099,-8.68 56.099,-8.489C56.099,-8.29 56.034,-8.129 55.904,-8.008C55.774,-7.887 55.605,-7.826 55.397,-7.826C55.189,-7.826 55.02,-7.887 54.89,-8.008Z" style="fill:rgb(255,120,27);fill-rule:nonzero;"/>
                    <path d="M61.545,-6.019C61.545,-5.88 61.506,-5.77 61.428,-5.688C61.35,-5.605 61.215,-5.555 61.025,-5.538L60.635,-5.499C60.054,-5.447 59.623,-5.241 59.341,-4.882C59.059,-4.522 58.919,-4.099 58.919,-3.614L58.919,-0.455C58.919,-0.282 58.871,-0.152 58.776,-0.065C58.68,0.022 58.555,0.065 58.399,0.065C58.243,0.065 58.115,0.02 58.015,-0.071C57.915,-0.162 57.866,-0.29 57.866,-0.455L57.866,-5.941C57.866,-6.106 57.918,-6.234 58.022,-6.324C58.126,-6.416 58.251,-6.461 58.399,-6.461C58.537,-6.461 58.654,-6.416 58.75,-6.324C58.845,-6.234 58.893,-6.11 58.893,-5.954L58.893,-5.226C59.075,-5.607 59.332,-5.898 59.666,-6.097C60,-6.296 60.383,-6.413 60.817,-6.448L60.999,-6.461C61.363,-6.487 61.545,-6.34 61.545,-6.019Z" style="fill:rgb(255,120,27);fill-rule:nonzero;"/>
                    <path d="M67.458,-1.352C67.528,-1.274 67.562,-1.174 67.562,-1.053C67.562,-0.836 67.411,-0.637 67.107,-0.455C66.795,-0.273 66.466,-0.137 66.119,-0.046C65.773,0.046 65.435,0.091 65.105,0.091C64.126,0.091 63.353,-0.199 62.785,-0.78C62.217,-1.361 61.933,-2.162 61.933,-3.185C61.933,-3.835 62.059,-4.409 62.31,-4.908C62.562,-5.406 62.915,-5.794 63.37,-6.071C63.825,-6.348 64.343,-6.487 64.923,-6.487C65.747,-6.487 66.401,-6.218 66.886,-5.681C67.372,-5.144 67.614,-4.416 67.614,-3.497C67.614,-3.324 67.58,-3.198 67.51,-3.12C67.441,-3.042 67.328,-3.003 67.172,-3.003L62.986,-3.003C63.064,-1.512 63.771,-0.767 65.105,-0.767C65.443,-0.767 65.734,-0.813 65.976,-0.904C66.219,-0.994 66.479,-1.118 66.756,-1.274C66.982,-1.404 67.133,-1.469 67.211,-1.469C67.307,-1.469 67.389,-1.43 67.458,-1.352ZM63.604,-5.148C63.27,-4.801 63.073,-4.312 63.012,-3.679L66.691,-3.679C66.674,-4.32 66.514,-4.812 66.21,-5.155C65.907,-5.497 65.482,-5.668 64.936,-5.668C64.382,-5.668 63.938,-5.495 63.604,-5.148Z" style="fill:rgb(255,120,27);fill-rule:nonzero;"/>
                    <path d="M69.297,-0.071C69.197,-0.162 69.147,-0.29 69.147,-0.455L69.147,-8.71C69.147,-8.875 69.197,-9.003 69.297,-9.094C69.396,-9.185 69.524,-9.23 69.68,-9.23C69.828,-9.23 69.951,-9.185 70.051,-9.094C70.15,-9.003 70.2,-8.875 70.2,-8.71L70.2,-0.455C70.2,-0.29 70.15,-0.162 70.051,-0.071C69.951,0.02 69.828,0.065 69.68,0.065C69.524,0.065 69.396,0.02 69.297,-0.071Z" style="fill:rgb(255,120,27);fill-rule:nonzero;"/>
                    <path d="M77.297,-1.352C77.366,-1.274 77.401,-1.174 77.401,-1.053C77.401,-0.836 77.249,-0.637 76.946,-0.455C76.634,-0.273 76.305,-0.137 75.958,-0.046C75.611,0.046 75.273,0.091 74.944,0.091C73.965,0.091 73.191,-0.199 72.624,-0.78C72.056,-1.361 71.772,-2.162 71.772,-3.185C71.772,-3.835 71.898,-4.409 72.149,-4.908C72.4,-5.406 72.754,-5.794 73.209,-6.071C73.664,-6.348 74.181,-6.487 74.762,-6.487C75.585,-6.487 76.24,-6.218 76.725,-5.681C77.21,-5.144 77.453,-4.416 77.453,-3.497C77.453,-3.324 77.418,-3.198 77.349,-3.12C77.28,-3.042 77.167,-3.003 77.011,-3.003L72.825,-3.003C72.903,-1.512 73.609,-0.767 74.944,-0.767C75.282,-0.767 75.572,-0.813 75.815,-0.904C76.058,-0.994 76.318,-1.118 76.595,-1.274C76.82,-1.404 76.972,-1.469 77.05,-1.469C77.145,-1.469 77.228,-1.43 77.297,-1.352ZM73.443,-5.148C73.109,-4.801 72.912,-4.312 72.851,-3.679L76.53,-3.679C76.513,-4.32 76.352,-4.812 76.049,-5.155C75.746,-5.497 75.321,-5.668 74.775,-5.668C74.22,-5.668 73.776,-5.495 73.443,-5.148Z" style="fill:rgb(255,120,27);fill-rule:nonzero;"/>
                    <path d="M79.98,-0.052C79.621,-0.147 79.302,-0.282 79.025,-0.455C78.869,-0.559 78.758,-0.657 78.693,-0.748C78.628,-0.839 78.596,-0.949 78.596,-1.079C78.596,-1.192 78.628,-1.285 78.693,-1.359C78.758,-1.432 78.843,-1.469 78.947,-1.469C79.051,-1.469 79.203,-1.404 79.402,-1.274C79.662,-1.118 79.92,-0.994 80.175,-0.904C80.431,-0.813 80.75,-0.767 81.131,-0.767C81.599,-0.767 81.963,-0.849 82.223,-1.014C82.483,-1.179 82.613,-1.417 82.613,-1.729C82.613,-1.92 82.565,-2.074 82.47,-2.191C82.375,-2.308 82.21,-2.412 81.976,-2.503C81.742,-2.594 81.4,-2.687 80.949,-2.782C80.186,-2.947 79.64,-3.168 79.311,-3.445C78.982,-3.722 78.817,-4.099 78.817,-4.576C78.817,-4.949 78.921,-5.278 79.129,-5.564C79.337,-5.85 79.625,-6.075 79.993,-6.24C80.362,-6.405 80.78,-6.487 81.248,-6.487C81.586,-6.487 81.913,-6.441 82.229,-6.351C82.546,-6.26 82.825,-6.132 83.068,-5.967C83.363,-5.759 83.51,-5.542 83.51,-5.317C83.51,-5.204 83.475,-5.109 83.406,-5.031C83.337,-4.953 83.254,-4.914 83.159,-4.914C83.055,-4.914 82.899,-4.988 82.691,-5.135C82.448,-5.291 82.219,-5.412 82.002,-5.499C81.785,-5.586 81.517,-5.629 81.196,-5.629C80.789,-5.629 80.461,-5.538 80.214,-5.356C79.967,-5.174 79.844,-4.931 79.844,-4.628C79.844,-4.437 79.889,-4.284 79.98,-4.167C80.071,-4.05 80.223,-3.946 80.435,-3.854C80.648,-3.764 80.953,-3.675 81.352,-3.588C81.941,-3.458 82.398,-3.315 82.723,-3.159C83.048,-3.003 83.28,-2.812 83.419,-2.587C83.558,-2.362 83.627,-2.076 83.627,-1.729C83.627,-1.183 83.397,-0.743 82.938,-0.409C82.479,-0.076 81.872,0.091 81.118,0.091C80.719,0.091 80.34,0.043 79.98,-0.052Z" style="fill:rgb(255,120,27);fill-rule:nonzero;"/>
                    <path d="M86.206,-0.052C85.847,-0.147 85.528,-0.282 85.251,-0.455C85.095,-0.559 84.984,-0.657 84.919,-0.748C84.854,-0.839 84.822,-0.949 84.822,-1.079C84.822,-1.192 84.854,-1.285 84.919,-1.359C84.984,-1.432 85.069,-1.469 85.173,-1.469C85.277,-1.469 85.428,-1.404 85.628,-1.274C85.888,-1.118 86.146,-0.994 86.401,-0.904C86.657,-0.813 86.975,-0.767 87.357,-0.767C87.825,-0.767 88.189,-0.849 88.449,-1.014C88.709,-1.179 88.839,-1.417 88.839,-1.729C88.839,-1.92 88.791,-2.074 88.696,-2.191C88.6,-2.308 88.436,-2.412 88.202,-2.503C87.968,-2.594 87.625,-2.687 87.175,-2.782C86.412,-2.947 85.866,-3.168 85.537,-3.445C85.207,-3.722 85.043,-4.099 85.043,-4.576C85.043,-4.949 85.147,-5.278 85.355,-5.564C85.563,-5.85 85.851,-6.075 86.219,-6.24C86.588,-6.405 87.006,-6.487 87.474,-6.487C87.812,-6.487 88.139,-6.441 88.455,-6.351C88.772,-6.26 89.051,-6.132 89.294,-5.967C89.588,-5.759 89.736,-5.542 89.736,-5.317C89.736,-5.204 89.701,-5.109 89.632,-5.031C89.562,-4.953 89.48,-4.914 89.385,-4.914C89.281,-4.914 89.125,-4.988 88.917,-5.135C88.674,-5.291 88.444,-5.412 88.228,-5.499C88.011,-5.586 87.742,-5.629 87.422,-5.629C87.014,-5.629 86.687,-5.538 86.44,-5.356C86.193,-5.174 86.07,-4.931 86.07,-4.628C86.07,-4.437 86.115,-4.284 86.206,-4.167C86.297,-4.05 86.449,-3.946 86.661,-3.854C86.874,-3.764 87.179,-3.675 87.578,-3.588C88.167,-3.458 88.624,-3.315 88.949,-3.159C89.274,-3.003 89.506,-2.812 89.645,-2.587C89.783,-2.362 89.853,-2.076 89.853,-1.729C89.853,-1.183 89.623,-0.743 89.164,-0.409C88.704,-0.076 88.098,0.091 87.344,0.091C86.945,0.091 86.566,0.043 86.206,-0.052Z" style="fill:rgb(255,120,27);fill-rule:nonzero;"/>
                </g>
                <g transform="matrix(1,0,0,1,1202,222)">
                    <path d="M5.967,-0.722C6.045,-0.648 6.084,-0.546 6.084,-0.416C6.084,-0.286 6.045,-0.184 5.967,-0.111C5.889,-0.037 5.776,0 5.629,0L1.079,0C0.932,0 0.81,-0.046 0.715,-0.137C0.62,-0.228 0.572,-0.338 0.572,-0.468C0.572,-0.607 0.624,-0.741 0.728,-0.871L4.576,-5.499L1.014,-5.499C0.867,-5.499 0.752,-5.536 0.67,-5.61C0.587,-5.683 0.546,-5.781 0.546,-5.902C0.546,-6.032 0.587,-6.136 0.67,-6.214C0.752,-6.292 0.867,-6.331 1.014,-6.331L5.421,-6.331C5.577,-6.331 5.703,-6.286 5.798,-6.195C5.893,-6.104 5.941,-5.993 5.941,-5.863C5.941,-5.724 5.889,-5.59 5.785,-5.46L1.924,-0.832L5.629,-0.832C5.776,-0.832 5.889,-0.795 5.967,-0.722Z" style="fill:rgb(255,120,27);fill-rule:nonzero;"/>
                    <path d="M8.403,-0.312C7.948,-0.581 7.597,-0.964 7.35,-1.463C7.103,-1.961 6.98,-2.539 6.98,-3.198C6.98,-3.857 7.103,-4.435 7.35,-4.934C7.597,-5.432 7.948,-5.815 8.403,-6.084C8.858,-6.353 9.385,-6.487 9.983,-6.487C10.581,-6.487 11.11,-6.353 11.569,-6.084C12.028,-5.815 12.381,-5.432 12.628,-4.934C12.875,-4.435 12.999,-3.857 12.999,-3.198C12.999,-2.539 12.875,-1.961 12.628,-1.463C12.381,-0.964 12.028,-0.581 11.569,-0.312C11.11,-0.043 10.581,0.091 9.983,0.091C9.385,0.091 8.858,-0.043 8.403,-0.312ZM11.419,-1.398C11.753,-1.809 11.92,-2.409 11.92,-3.198C11.92,-3.969 11.751,-4.565 11.413,-4.986C11.075,-5.406 10.598,-5.616 9.983,-5.616C9.368,-5.616 8.891,-5.406 8.553,-4.986C8.215,-4.565 8.046,-3.969 8.046,-3.198C8.046,-2.418 8.213,-1.82 8.546,-1.404C8.88,-0.988 9.359,-0.78 9.983,-0.78C10.607,-0.78 11.086,-0.986 11.419,-1.398Z" style="fill:rgb(255,120,27);fill-rule:nonzero;"/>
                    <path d="M20.018,-3.978L20.018,-0.455C20.018,-0.29 19.972,-0.162 19.881,-0.071C19.79,0.02 19.662,0.065 19.498,0.065C19.333,0.065 19.203,0.02 19.108,-0.071C19.012,-0.162 18.965,-0.29 18.965,-0.455L18.965,-3.913C18.965,-4.502 18.85,-4.931 18.62,-5.2C18.391,-5.469 18.024,-5.603 17.522,-5.603C16.941,-5.603 16.477,-5.425 16.131,-5.07C15.784,-4.715 15.611,-4.234 15.611,-3.627L15.611,-0.455C15.611,-0.29 15.565,-0.162 15.474,-0.071C15.383,0.02 15.255,0.065 15.091,0.065C14.926,0.065 14.796,0.02 14.701,-0.071C14.605,-0.162 14.558,-0.29 14.558,-0.455L14.558,-5.941C14.558,-6.097 14.605,-6.223 14.701,-6.318C14.796,-6.413 14.926,-6.461 15.091,-6.461C15.247,-6.461 15.37,-6.413 15.461,-6.318C15.552,-6.223 15.598,-6.101 15.598,-5.954L15.598,-5.291C15.806,-5.681 16.096,-5.978 16.469,-6.182C16.841,-6.385 17.266,-6.487 17.743,-6.487C19.259,-6.487 20.018,-5.651 20.018,-3.978Z" style="fill:rgb(255,120,27);fill-rule:nonzero;"/>
                    <path d="M27.076,-1.352C27.145,-1.274 27.18,-1.174 27.18,-1.053C27.18,-0.836 27.028,-0.637 26.725,-0.455C26.413,-0.273 26.083,-0.137 25.737,-0.046C25.39,0.046 25.052,0.091 24.723,0.091C23.743,0.091 22.97,-0.199 22.402,-0.78C21.834,-1.361 21.551,-2.162 21.551,-3.185C21.551,-3.835 21.676,-4.409 21.928,-4.908C22.179,-5.406 22.532,-5.794 22.987,-6.071C23.442,-6.348 23.96,-6.487 24.541,-6.487C25.364,-6.487 26.018,-6.218 26.504,-5.681C26.989,-5.144 27.232,-4.416 27.232,-3.497C27.232,-3.324 27.197,-3.198 27.128,-3.12C27.058,-3.042 26.946,-3.003 26.79,-3.003L22.604,-3.003C22.682,-1.512 23.388,-0.767 24.723,-0.767C25.061,-0.767 25.351,-0.813 25.594,-0.904C25.836,-0.994 26.096,-1.118 26.374,-1.274C26.599,-1.404 26.751,-1.469 26.829,-1.469C26.924,-1.469 27.006,-1.43 27.076,-1.352ZM23.221,-5.148C22.887,-4.801 22.69,-4.312 22.63,-3.679L26.309,-3.679C26.291,-4.32 26.131,-4.812 25.828,-5.155C25.524,-5.497 25.1,-5.668 24.554,-5.668C23.999,-5.668 23.555,-5.495 23.221,-5.148Z" style="fill:rgb(255,120,27);fill-rule:nonzero;"/>
                    <path d="M29.759,-0.052C29.399,-0.147 29.081,-0.282 28.803,-0.455C28.647,-0.559 28.537,-0.657 28.472,-0.748C28.407,-0.839 28.374,-0.949 28.374,-1.079C28.374,-1.192 28.407,-1.285 28.472,-1.359C28.537,-1.432 28.621,-1.469 28.725,-1.469C28.829,-1.469 28.981,-1.404 29.18,-1.274C29.44,-1.118 29.698,-0.994 29.954,-0.904C30.21,-0.813 30.528,-0.767 30.909,-0.767C31.377,-0.767 31.741,-0.849 32.001,-1.014C32.261,-1.179 32.391,-1.417 32.391,-1.729C32.391,-1.92 32.344,-2.074 32.248,-2.191C32.153,-2.308 31.988,-2.412 31.754,-2.503C31.52,-2.594 31.178,-2.687 30.727,-2.782C29.965,-2.947 29.419,-3.168 29.089,-3.445C28.76,-3.722 28.595,-4.099 28.595,-4.576C28.595,-4.949 28.699,-5.278 28.907,-5.564C29.115,-5.85 29.404,-6.075 29.772,-6.24C30.14,-6.405 30.558,-6.487 31.026,-6.487C31.364,-6.487 31.692,-6.441 32.008,-6.351C32.324,-6.26 32.604,-6.132 32.846,-5.967C33.141,-5.759 33.288,-5.542 33.288,-5.317C33.288,-5.204 33.254,-5.109 33.184,-5.031C33.115,-4.953 33.033,-4.914 32.937,-4.914C32.833,-4.914 32.677,-4.988 32.469,-5.135C32.227,-5.291 31.997,-5.412 31.78,-5.499C31.564,-5.586 31.295,-5.629 30.974,-5.629C30.567,-5.629 30.24,-5.538 29.993,-5.356C29.746,-5.174 29.622,-4.931 29.622,-4.628C29.622,-4.437 29.668,-4.284 29.759,-4.167C29.85,-4.05 30.002,-3.946 30.214,-3.854C30.426,-3.764 30.732,-3.675 31.13,-3.588C31.72,-3.458 32.177,-3.315 32.502,-3.159C32.827,-3.003 33.059,-2.812 33.197,-2.587C33.336,-2.362 33.405,-2.076 33.405,-1.729C33.405,-1.183 33.176,-0.743 32.716,-0.409C32.257,-0.076 31.65,0.091 30.896,0.091C30.498,0.091 30.119,0.043 29.759,-0.052Z" style="fill:rgb(255,120,27);fill-rule:nonzero;"/>
                    <path d="M47.417,-6.435C47.547,-6.435 47.664,-6.392 47.768,-6.305C47.872,-6.218 47.924,-6.11 47.924,-5.98C47.924,-5.919 47.911,-5.854 47.885,-5.785L45.727,-0.325C45.675,-0.212 45.599,-0.124 45.5,-0.059C45.4,0.006 45.289,0.039 45.168,0.039C45.055,0.039 44.949,0.006 44.85,-0.059C44.75,-0.124 44.674,-0.212 44.622,-0.325L42.828,-4.888L41.047,-0.325C41.004,-0.212 40.93,-0.124 40.826,-0.059C40.722,0.006 40.609,0.039 40.488,0.039C40.375,0.039 40.267,0.006 40.163,-0.059C40.059,-0.124 39.981,-0.212 39.929,-0.325L37.771,-5.772C37.745,-5.841 37.732,-5.902 37.732,-5.954C37.732,-6.093 37.791,-6.21 37.908,-6.305C38.025,-6.4 38.152,-6.448 38.291,-6.448C38.499,-6.448 38.646,-6.344 38.733,-6.136L40.514,-1.339L42.347,-6.097C42.399,-6.21 42.471,-6.296 42.562,-6.357C42.653,-6.418 42.75,-6.448 42.854,-6.448C42.967,-6.448 43.069,-6.418 43.16,-6.357C43.251,-6.296 43.318,-6.21 43.361,-6.097L45.194,-1.352L46.988,-6.123C47.075,-6.331 47.218,-6.435 47.417,-6.435Z" style="fill:rgb(255,120,27);fill-rule:nonzero;"/>
                    <path d="M49.411,-0.071C49.312,-0.162 49.262,-0.29 49.262,-0.455L49.262,-5.941C49.262,-6.106 49.312,-6.234 49.411,-6.324C49.511,-6.416 49.639,-6.461 49.795,-6.461C49.951,-6.461 50.077,-6.416 50.172,-6.324C50.267,-6.234 50.315,-6.106 50.315,-5.941L50.315,-0.455C50.315,-0.282 50.267,-0.152 50.172,-0.065C50.077,0.022 49.951,0.065 49.795,0.065C49.639,0.065 49.511,0.02 49.411,-0.071ZM49.288,-8.008C49.158,-8.129 49.093,-8.29 49.093,-8.489C49.093,-8.68 49.158,-8.836 49.288,-8.957C49.418,-9.078 49.587,-9.139 49.795,-9.139C50.003,-9.139 50.172,-9.078 50.302,-8.957C50.432,-8.836 50.497,-8.68 50.497,-8.489C50.497,-8.29 50.432,-8.129 50.302,-8.008C50.172,-7.887 50.003,-7.826 49.795,-7.826C49.587,-7.826 49.418,-7.887 49.288,-8.008Z" style="fill:rgb(255,120,27);fill-rule:nonzero;"/>
                    <path d="M55.644,-0.351C55.644,-0.204 55.59,-0.093 55.481,-0.02C55.373,0.054 55.21,0.082 54.994,0.065L54.643,0.039C53.949,-0.013 53.438,-0.221 53.109,-0.585C52.779,-0.949 52.615,-1.499 52.615,-2.236L52.615,-5.499L51.744,-5.499C51.596,-5.499 51.482,-5.536 51.399,-5.61C51.317,-5.683 51.276,-5.781 51.276,-5.902C51.276,-6.032 51.317,-6.136 51.399,-6.214C51.482,-6.292 51.596,-6.331 51.744,-6.331L52.615,-6.331L52.615,-7.8C52.615,-7.965 52.662,-8.093 52.758,-8.184C52.853,-8.275 52.983,-8.32 53.148,-8.32C53.304,-8.32 53.429,-8.275 53.525,-8.184C53.62,-8.093 53.668,-7.965 53.668,-7.8L53.668,-6.331L55.111,-6.331C55.249,-6.331 55.36,-6.292 55.442,-6.214C55.525,-6.136 55.566,-6.032 55.566,-5.902C55.566,-5.781 55.525,-5.683 55.442,-5.61C55.36,-5.536 55.249,-5.499 55.111,-5.499L53.668,-5.499L53.668,-2.184C53.668,-1.707 53.765,-1.363 53.96,-1.15C54.155,-0.938 54.448,-0.819 54.838,-0.793L55.189,-0.767C55.492,-0.741 55.644,-0.602 55.644,-0.351Z" style="fill:rgb(255,120,27);fill-rule:nonzero;"/>
                    <path d="M61.558,-5.857C61.939,-5.436 62.13,-4.81 62.13,-3.978L62.13,-0.455C62.13,-0.29 62.082,-0.162 61.987,-0.071C61.891,0.02 61.766,0.065 61.61,0.065C61.445,0.065 61.315,0.02 61.22,-0.071C61.124,-0.162 61.077,-0.29 61.077,-0.455L61.077,-3.952C61.077,-4.515 60.962,-4.931 60.732,-5.2C60.502,-5.469 60.136,-5.603 59.634,-5.603C59.053,-5.603 58.589,-5.425 58.243,-5.07C57.896,-4.715 57.723,-4.234 57.723,-3.627L57.723,-0.455C57.723,-0.29 57.677,-0.162 57.586,-0.071C57.495,0.02 57.367,0.065 57.203,0.065C57.038,0.065 56.908,0.02 56.813,-0.071C56.717,-0.162 56.67,-0.29 56.67,-0.455L56.67,-8.723C56.67,-8.87 56.719,-8.992 56.819,-9.087C56.919,-9.182 57.047,-9.23 57.203,-9.23C57.367,-9.23 57.495,-9.185 57.586,-9.094C57.677,-9.003 57.723,-8.879 57.723,-8.723L57.723,-5.317C57.931,-5.698 58.221,-5.989 58.594,-6.188C58.966,-6.387 59.391,-6.487 59.868,-6.487C60.613,-6.487 61.176,-6.277 61.558,-5.857Z" style="fill:rgb(255,120,27);fill-rule:nonzero;"/>
                </g>
                <g transform="matrix(1,0,0,1,1202,238)">
                    <path d="M4.654,-6.019C4.654,-5.88 4.615,-5.77 4.537,-5.688C4.459,-5.605 4.325,-5.555 4.134,-5.538L3.744,-5.499C3.163,-5.447 2.732,-5.241 2.451,-4.882C2.169,-4.522 2.028,-4.099 2.028,-3.614L2.028,-0.455C2.028,-0.282 1.98,-0.152 1.885,-0.065C1.79,0.022 1.664,0.065 1.508,0.065C1.352,0.065 1.224,0.02 1.125,-0.071C1.025,-0.162 0.975,-0.29 0.975,-0.455L0.975,-5.941C0.975,-6.106 1.027,-6.234 1.131,-6.324C1.235,-6.416 1.361,-6.461 1.508,-6.461C1.647,-6.461 1.764,-6.416 1.859,-6.324C1.954,-6.234 2.002,-6.11 2.002,-5.954L2.002,-5.226C2.184,-5.607 2.442,-5.898 2.776,-6.097C3.109,-6.296 3.493,-6.413 3.926,-6.448L4.108,-6.461C4.472,-6.487 4.654,-6.34 4.654,-6.019Z" style="fill:rgb(255,120,27);fill-rule:nonzero;"/>
                    <path d="M10.568,-1.352C10.637,-1.274 10.672,-1.174 10.672,-1.053C10.672,-0.836 10.52,-0.637 10.217,-0.455C9.905,-0.273 9.576,-0.137 9.229,-0.046C8.882,0.046 8.544,0.091 8.215,0.091C7.236,0.091 6.462,-0.199 5.894,-0.78C5.327,-1.361 5.043,-2.162 5.043,-3.185C5.043,-3.835 5.169,-4.409 5.42,-4.908C5.671,-5.406 6.024,-5.794 6.479,-6.071C6.934,-6.348 7.452,-6.487 8.033,-6.487C8.856,-6.487 9.511,-6.218 9.996,-5.681C10.481,-5.144 10.724,-4.416 10.724,-3.497C10.724,-3.324 10.689,-3.198 10.62,-3.12C10.551,-3.042 10.438,-3.003 10.282,-3.003L6.096,-3.003C6.174,-1.512 6.88,-0.767 8.215,-0.767C8.553,-0.767 8.843,-0.813 9.086,-0.904C9.329,-0.994 9.589,-1.118 9.866,-1.274C10.091,-1.404 10.243,-1.469 10.321,-1.469C10.416,-1.469 10.499,-1.43 10.568,-1.352ZM6.713,-5.148C6.38,-4.801 6.183,-4.312 6.122,-3.679L9.801,-3.679C9.784,-4.32 9.623,-4.812 9.32,-5.155C9.017,-5.497 8.592,-5.668 8.046,-5.668C7.491,-5.668 7.047,-5.495 6.713,-5.148Z" style="fill:rgb(255,120,27);fill-rule:nonzero;"/>
                    <path d="M17.223,-3.991L17.223,-0.455C17.223,-0.299 17.177,-0.173 17.086,-0.078C16.995,0.017 16.872,0.065 16.716,0.065C16.56,0.065 16.434,0.017 16.339,-0.078C16.243,-0.173 16.196,-0.299 16.196,-0.455L16.196,-1.079C16.031,-0.706 15.78,-0.418 15.442,-0.215C15.104,-0.011 14.714,0.091 14.272,0.091C13.864,0.091 13.49,0.009 13.147,-0.156C12.805,-0.321 12.534,-0.55 12.335,-0.845C12.135,-1.14 12.036,-1.465 12.036,-1.82C12.036,-2.297 12.157,-2.667 12.4,-2.932C12.642,-3.196 13.041,-3.387 13.596,-3.504C14.15,-3.621 14.922,-3.679 15.91,-3.679L16.196,-3.679L16.196,-4.108C16.196,-4.628 16.09,-5.009 15.877,-5.252C15.665,-5.495 15.32,-5.616 14.844,-5.616C14.254,-5.616 13.656,-5.456 13.05,-5.135C12.816,-4.988 12.651,-4.914 12.556,-4.914C12.452,-4.914 12.365,-4.953 12.296,-5.031C12.226,-5.109 12.192,-5.209 12.192,-5.33C12.192,-5.451 12.229,-5.558 12.302,-5.649C12.376,-5.739 12.495,-5.833 12.66,-5.928C12.963,-6.101 13.308,-6.238 13.693,-6.337C14.079,-6.437 14.462,-6.487 14.844,-6.487C16.43,-6.487 17.223,-5.655 17.223,-3.991ZM15.695,-1.268C16.029,-1.619 16.196,-2.071 16.196,-2.626L16.196,-3.003L15.962,-3.003C15.199,-3.003 14.618,-2.971 14.22,-2.906C13.821,-2.841 13.537,-2.732 13.368,-2.581C13.199,-2.429 13.115,-2.206 13.115,-1.911C13.115,-1.573 13.238,-1.293 13.485,-1.073C13.732,-0.852 14.042,-0.741 14.415,-0.741C14.935,-0.741 15.362,-0.917 15.695,-1.268Z" style="fill:rgb(255,120,27);fill-rule:nonzero;"/>
                    <path d="M20.127,-0.052C19.767,-0.147 19.449,-0.282 19.172,-0.455C19.016,-0.559 18.905,-0.657 18.84,-0.748C18.775,-0.839 18.743,-0.949 18.743,-1.079C18.743,-1.192 18.775,-1.285 18.84,-1.359C18.905,-1.432 18.99,-1.469 19.094,-1.469C19.198,-1.469 19.349,-1.404 19.549,-1.274C19.809,-1.118 20.066,-0.994 20.322,-0.904C20.578,-0.813 20.896,-0.767 21.278,-0.767C21.746,-0.767 22.11,-0.849 22.37,-1.014C22.63,-1.179 22.76,-1.417 22.76,-1.729C22.76,-1.92 22.712,-2.074 22.617,-2.191C22.521,-2.308 22.357,-2.412 22.123,-2.503C21.889,-2.594 21.546,-2.687 21.096,-2.782C20.333,-2.947 19.787,-3.168 19.458,-3.445C19.128,-3.722 18.964,-4.099 18.964,-4.576C18.964,-4.949 19.068,-5.278 19.276,-5.564C19.484,-5.85 19.772,-6.075 20.14,-6.24C20.508,-6.405 20.927,-6.487 21.395,-6.487C21.733,-6.487 22.06,-6.441 22.376,-6.351C22.692,-6.26 22.972,-6.132 23.215,-5.967C23.509,-5.759 23.657,-5.542 23.657,-5.317C23.657,-5.204 23.622,-5.109 23.553,-5.031C23.483,-4.953 23.401,-4.914 23.306,-4.914C23.202,-4.914 23.046,-4.988 22.838,-5.135C22.595,-5.291 22.365,-5.412 22.149,-5.499C21.932,-5.586 21.663,-5.629 21.343,-5.629C20.935,-5.629 20.608,-5.538 20.361,-5.356C20.114,-5.174 19.991,-4.931 19.991,-4.628C19.991,-4.437 20.036,-4.284 20.127,-4.167C20.218,-4.05 20.37,-3.946 20.582,-3.854C20.794,-3.764 21.1,-3.675 21.499,-3.588C22.088,-3.458 22.545,-3.315 22.87,-3.159C23.195,-3.003 23.427,-2.812 23.566,-2.587C23.704,-2.362 23.774,-2.076 23.774,-1.729C23.774,-1.183 23.544,-0.743 23.085,-0.409C22.625,-0.076 22.019,0.091 21.265,0.091C20.866,0.091 20.487,0.043 20.127,-0.052Z" style="fill:rgb(255,120,27);fill-rule:nonzero;"/>
                    <path d="M26.353,-0.052C25.993,-0.147 25.675,-0.282 25.397,-0.455C25.241,-0.559 25.131,-0.657 25.066,-0.748C25.001,-0.839 24.968,-0.949 24.968,-1.079C24.968,-1.192 25.001,-1.285 25.066,-1.359C25.131,-1.432 25.215,-1.469 25.319,-1.469C25.423,-1.469 25.575,-1.404 25.774,-1.274C26.034,-1.118 26.292,-0.994 26.548,-0.904C26.804,-0.813 27.122,-0.767 27.503,-0.767C27.971,-0.767 28.335,-0.849 28.595,-1.014C28.855,-1.179 28.985,-1.417 28.985,-1.729C28.985,-1.92 28.938,-2.074 28.842,-2.191C28.747,-2.308 28.582,-2.412 28.348,-2.503C28.114,-2.594 27.772,-2.687 27.321,-2.782C26.559,-2.947 26.013,-3.168 25.683,-3.445C25.354,-3.722 25.189,-4.099 25.189,-4.576C25.189,-4.949 25.293,-5.278 25.501,-5.564C25.709,-5.85 25.998,-6.075 26.366,-6.24C26.734,-6.405 27.152,-6.487 27.62,-6.487C27.958,-6.487 28.286,-6.441 28.602,-6.351C28.918,-6.26 29.198,-6.132 29.44,-5.967C29.735,-5.759 29.882,-5.542 29.882,-5.317C29.882,-5.204 29.848,-5.109 29.778,-5.031C29.709,-4.953 29.627,-4.914 29.531,-4.914C29.427,-4.914 29.271,-4.988 29.063,-5.135C28.821,-5.291 28.591,-5.412 28.374,-5.499C28.158,-5.586 27.889,-5.629 27.568,-5.629C27.161,-5.629 26.834,-5.538 26.587,-5.356C26.34,-5.174 26.216,-4.931 26.216,-4.628C26.216,-4.437 26.262,-4.284 26.353,-4.167C26.444,-4.05 26.596,-3.946 26.808,-3.854C27.02,-3.764 27.326,-3.675 27.724,-3.588C28.314,-3.458 28.771,-3.315 29.096,-3.159C29.421,-3.003 29.653,-2.812 29.791,-2.587C29.93,-2.362 29.999,-2.076 29.999,-1.729C29.999,-1.183 29.77,-0.743 29.31,-0.409C28.851,-0.076 28.244,0.091 27.49,0.091C27.092,0.091 26.713,0.043 26.353,-0.052Z" style="fill:rgb(255,120,27);fill-rule:nonzero;"/>
                    <path d="M36.732,-1.352C36.802,-1.274 36.836,-1.174 36.836,-1.053C36.836,-0.836 36.685,-0.637 36.381,-0.455C36.069,-0.273 35.74,-0.137 35.393,-0.046C35.047,0.046 34.709,0.091 34.379,0.091C33.4,0.091 32.626,-0.199 32.059,-0.78C31.491,-1.361 31.207,-2.162 31.207,-3.185C31.207,-3.835 31.333,-4.409 31.584,-4.908C31.836,-5.406 32.189,-5.794 32.644,-6.071C33.099,-6.348 33.617,-6.487 34.197,-6.487C35.021,-6.487 35.675,-6.218 36.16,-5.681C36.646,-5.144 36.888,-4.416 36.888,-3.497C36.888,-3.324 36.854,-3.198 36.784,-3.12C36.715,-3.042 36.602,-3.003 36.446,-3.003L32.26,-3.003C32.338,-1.512 33.045,-0.767 34.379,-0.767C34.717,-0.767 35.008,-0.813 35.25,-0.904C35.493,-0.994 35.753,-1.118 36.03,-1.274C36.256,-1.404 36.407,-1.469 36.485,-1.469C36.581,-1.469 36.663,-1.43 36.732,-1.352ZM32.878,-5.148C32.544,-4.801 32.347,-4.312 32.286,-3.679L35.965,-3.679C35.948,-4.32 35.788,-4.812 35.484,-5.155C35.181,-5.497 34.756,-5.668 34.21,-5.668C33.656,-5.668 33.211,-5.495 32.878,-5.148Z" style="fill:rgb(255,120,27);fill-rule:nonzero;"/>
                    <path d="M47.573,-3.978L47.573,-0.455C47.573,-0.29 47.525,-0.162 47.43,-0.071C47.335,0.02 47.209,0.065 47.053,0.065C46.897,0.065 46.769,0.02 46.67,-0.071C46.57,-0.162 46.52,-0.29 46.52,-0.455L46.52,-3.952C46.52,-4.533 46.416,-4.953 46.208,-5.213C46,-5.473 45.675,-5.603 45.233,-5.603C44.704,-5.603 44.288,-5.425 43.985,-5.07C43.682,-4.715 43.53,-4.234 43.53,-3.627L43.53,-0.455C43.53,-0.29 43.48,-0.162 43.381,-0.071C43.281,0.02 43.153,0.065 42.997,0.065C42.841,0.065 42.715,0.02 42.62,-0.071C42.525,-0.162 42.477,-0.29 42.477,-0.455L42.477,-3.952C42.477,-4.533 42.373,-4.953 42.165,-5.213C41.957,-5.473 41.628,-5.603 41.177,-5.603C40.657,-5.603 40.243,-5.425 39.936,-5.07C39.628,-4.715 39.474,-4.234 39.474,-3.627L39.474,-0.455C39.474,-0.29 39.426,-0.162 39.331,-0.071C39.236,0.02 39.11,0.065 38.954,0.065C38.798,0.065 38.67,0.02 38.571,-0.071C38.471,-0.162 38.421,-0.29 38.421,-0.455L38.421,-5.941C38.421,-6.097 38.471,-6.223 38.571,-6.318C38.67,-6.413 38.798,-6.461 38.954,-6.461C39.101,-6.461 39.223,-6.416 39.318,-6.324C39.413,-6.234 39.461,-6.11 39.461,-5.954L39.461,-5.33C39.652,-5.703 39.916,-5.989 40.254,-6.188C40.592,-6.387 40.982,-6.487 41.424,-6.487C42.412,-6.487 43.058,-6.071 43.361,-5.239C43.543,-5.62 43.82,-5.924 44.193,-6.149C44.566,-6.374 44.99,-6.487 45.467,-6.487C46.871,-6.487 47.573,-5.651 47.573,-3.978Z" style="fill:rgb(255,120,27);fill-rule:nonzero;"/>
                    <path d="M54.137,-6.084C54.562,-5.815 54.891,-5.434 55.125,-4.94C55.359,-4.446 55.476,-3.874 55.476,-3.224C55.476,-2.565 55.359,-1.987 55.125,-1.489C54.891,-0.99 54.562,-0.602 54.137,-0.325C53.712,-0.048 53.223,0.091 52.668,0.091C52.174,0.091 51.743,-0.017 51.374,-0.234C51.006,-0.451 50.727,-0.758 50.536,-1.157L50.536,-0.455C50.536,-0.299 50.49,-0.173 50.399,-0.078C50.308,0.017 50.181,0.065 50.016,0.065C49.851,0.065 49.721,0.017 49.626,-0.078C49.531,-0.173 49.483,-0.299 49.483,-0.455L49.483,-8.723C49.483,-8.87 49.531,-8.992 49.626,-9.087C49.721,-9.182 49.851,-9.23 50.016,-9.23C50.181,-9.23 50.308,-9.185 50.399,-9.094C50.49,-9.003 50.536,-8.879 50.536,-8.723L50.536,-5.239C50.727,-5.638 51.006,-5.945 51.374,-6.162C51.743,-6.379 52.174,-6.487 52.668,-6.487C53.223,-6.487 53.712,-6.353 54.137,-6.084ZM53.89,-1.424C54.228,-1.852 54.397,-2.453 54.397,-3.224C54.397,-3.978 54.228,-4.563 53.89,-4.979C53.552,-5.395 53.075,-5.603 52.46,-5.603C51.845,-5.603 51.37,-5.395 51.036,-4.979C50.703,-4.563 50.536,-3.969 50.536,-3.198C50.536,-2.427 50.703,-1.831 51.036,-1.411C51.37,-0.99 51.845,-0.78 52.46,-0.78C53.075,-0.78 53.552,-0.994 53.89,-1.424Z" style="fill:rgb(255,120,27);fill-rule:nonzero;"/>
                    <path d="M57.184,-0.071C57.085,-0.162 57.035,-0.29 57.035,-0.455L57.035,-8.71C57.035,-8.875 57.085,-9.003 57.184,-9.094C57.284,-9.185 57.412,-9.23 57.568,-9.23C57.715,-9.23 57.839,-9.185 57.938,-9.094C58.038,-9.003 58.088,-8.875 58.088,-8.71L58.088,-0.455C58.088,-0.29 58.038,-0.162 57.938,-0.071C57.839,0.02 57.715,0.065 57.568,0.065C57.412,0.065 57.284,0.02 57.184,-0.071Z" style="fill:rgb(255,120,27);fill-rule:nonzero;"/>
                    <path d="M65.055,-6.448C65.185,-6.448 65.302,-6.405 65.406,-6.318C65.51,-6.231 65.562,-6.123 65.562,-5.993C65.562,-5.915 65.544,-5.846 65.51,-5.785L61.857,2.093C61.813,2.188 61.75,2.262 61.668,2.314C61.586,2.366 61.501,2.392 61.415,2.392C61.285,2.392 61.17,2.351 61.07,2.269C60.97,2.186 60.921,2.08 60.921,1.95C60.921,1.881 60.938,1.811 60.973,1.742L61.883,-0.221L59.309,-5.785C59.274,-5.846 59.257,-5.911 59.257,-5.98C59.257,-6.11 59.315,-6.223 59.432,-6.318C59.549,-6.413 59.677,-6.461 59.816,-6.461C59.902,-6.461 59.987,-6.435 60.069,-6.383C60.151,-6.331 60.214,-6.257 60.258,-6.162L62.429,-1.287L64.6,-6.136C64.695,-6.344 64.847,-6.448 65.055,-6.448Z" style="fill:rgb(255,120,27);fill-rule:nonzero;"/>
                    <path d="M66.503,-3.146C66.421,-3.224 66.379,-3.328 66.379,-3.458C66.379,-3.588 66.421,-3.694 66.503,-3.776C66.585,-3.859 66.704,-3.9 66.86,-3.9L69.72,-3.9C69.885,-3.9 70.009,-3.859 70.091,-3.776C70.173,-3.694 70.214,-3.588 70.214,-3.458C70.214,-3.328 70.173,-3.224 70.091,-3.146C70.009,-3.068 69.885,-3.029 69.72,-3.029L66.86,-3.029C66.704,-3.029 66.585,-3.068 66.503,-3.146Z" style="fill:rgb(255,120,27);fill-rule:nonzero;"/>
                    <path d="M73.775,-7.898C73.541,-7.642 73.424,-7.258 73.424,-6.747L73.424,-6.331L74.867,-6.331C75.015,-6.331 75.127,-6.292 75.205,-6.214C75.283,-6.136 75.322,-6.032 75.322,-5.902C75.322,-5.772 75.283,-5.672 75.205,-5.603C75.127,-5.534 75.015,-5.499 74.867,-5.499L73.424,-5.499L73.424,-0.455C73.424,-0.29 73.374,-0.162 73.275,-0.071C73.175,0.02 73.052,0.065 72.904,0.065C72.748,0.065 72.62,0.02 72.521,-0.071C72.421,-0.162 72.371,-0.29 72.371,-0.455L72.371,-5.499L71.5,-5.499C71.353,-5.499 71.238,-5.536 71.156,-5.61C71.073,-5.683 71.032,-5.781 71.032,-5.902C71.032,-6.032 71.073,-6.136 71.156,-6.214C71.238,-6.292 71.353,-6.331 71.5,-6.331L72.371,-6.331L72.371,-6.565C72.371,-7.345 72.566,-7.958 72.956,-8.404C73.346,-8.851 73.905,-9.1 74.633,-9.152L74.971,-9.178C75.197,-9.195 75.359,-9.174 75.459,-9.113C75.558,-9.052 75.608,-8.944 75.608,-8.788C75.608,-8.537 75.457,-8.394 75.153,-8.359L74.815,-8.333C74.356,-8.298 74.009,-8.153 73.775,-7.898Z" style="fill:rgb(255,120,27);fill-rule:nonzero;"/>
                    <path d="M79.949,-6.019C79.949,-5.88 79.91,-5.77 79.832,-5.688C79.754,-5.605 79.62,-5.555 79.429,-5.538L79.039,-5.499C78.458,-5.447 78.027,-5.241 77.746,-4.882C77.464,-4.522 77.323,-4.099 77.323,-3.614L77.323,-0.455C77.323,-0.282 77.275,-0.152 77.18,-0.065C77.085,0.022 76.959,0.065 76.803,0.065C76.647,0.065 76.519,0.02 76.42,-0.071C76.32,-0.162 76.27,-0.29 76.27,-0.455L76.27,-5.941C76.27,-6.106 76.322,-6.234 76.426,-6.324C76.53,-6.416 76.656,-6.461 76.803,-6.461C76.942,-6.461 77.059,-6.416 77.154,-6.324C77.249,-6.234 77.297,-6.11 77.297,-5.954L77.297,-5.226C77.479,-5.607 77.737,-5.898 78.071,-6.097C78.404,-6.296 78.788,-6.413 79.221,-6.448L79.403,-6.461C79.767,-6.487 79.949,-6.34 79.949,-6.019Z" style="fill:rgb(255,120,27);fill-rule:nonzero;"/>
                    <path d="M85.863,-1.352C85.932,-1.274 85.967,-1.174 85.967,-1.053C85.967,-0.836 85.815,-0.637 85.512,-0.455C85.2,-0.273 84.871,-0.137 84.524,-0.046C84.177,0.046 83.839,0.091 83.51,0.091C82.531,0.091 81.757,-0.199 81.189,-0.78C80.622,-1.361 80.338,-2.162 80.338,-3.185C80.338,-3.835 80.464,-4.409 80.715,-4.908C80.966,-5.406 81.319,-5.794 81.774,-6.071C82.229,-6.348 82.747,-6.487 83.328,-6.487C84.151,-6.487 84.806,-6.218 85.291,-5.681C85.776,-5.144 86.019,-4.416 86.019,-3.497C86.019,-3.324 85.984,-3.198 85.915,-3.12C85.846,-3.042 85.733,-3.003 85.577,-3.003L81.391,-3.003C81.469,-1.512 82.175,-0.767 83.51,-0.767C83.848,-0.767 84.138,-0.813 84.381,-0.904C84.624,-0.994 84.884,-1.118 85.161,-1.274C85.386,-1.404 85.538,-1.469 85.616,-1.469C85.711,-1.469 85.794,-1.43 85.863,-1.352ZM82.008,-5.148C81.675,-4.801 81.478,-4.312 81.417,-3.679L85.096,-3.679C85.079,-4.32 84.918,-4.812 84.615,-5.155C84.312,-5.497 83.887,-5.668 83.341,-5.668C82.786,-5.668 82.342,-5.495 82.008,-5.148Z" style="fill:rgb(255,120,27);fill-rule:nonzero;"/>
                    <path d="M92.7,-1.352C92.769,-1.274 92.804,-1.174 92.804,-1.053C92.804,-0.836 92.652,-0.637 92.349,-0.455C92.037,-0.273 91.707,-0.137 91.361,-0.046C91.014,0.046 90.676,0.091 90.347,0.091C89.367,0.091 88.594,-0.199 88.026,-0.78C87.459,-1.361 87.175,-2.162 87.175,-3.185C87.175,-3.835 87.3,-4.409 87.552,-4.908C87.803,-5.406 88.156,-5.794 88.611,-6.071C89.066,-6.348 89.584,-6.487 90.165,-6.487C90.988,-6.487 91.642,-6.218 92.128,-5.681C92.613,-5.144 92.856,-4.416 92.856,-3.497C92.856,-3.324 92.821,-3.198 92.752,-3.12C92.682,-3.042 92.57,-3.003 92.414,-3.003L88.228,-3.003C88.306,-1.512 89.012,-0.767 90.347,-0.767C90.685,-0.767 90.975,-0.813 91.218,-0.904C91.46,-0.994 91.72,-1.118 91.998,-1.274C92.223,-1.404 92.375,-1.469 92.453,-1.469C92.548,-1.469 92.63,-1.43 92.7,-1.352ZM88.845,-5.148C88.512,-4.801 88.314,-4.312 88.254,-3.679L91.933,-3.679C91.915,-4.32 91.755,-4.812 91.452,-5.155C91.148,-5.497 90.724,-5.668 90.178,-5.668C89.623,-5.668 89.179,-5.495 88.845,-5.148Z" style="fill:rgb(255,120,27);fill-rule:nonzero;"/>
                </g>
                <g transform="matrix(1,0,0,1,1202,254)">
                    <path d="M6.448,-9.087C6.543,-8.992 6.591,-8.87 6.591,-8.723L6.591,-0.455C6.591,-0.299 6.543,-0.173 6.448,-0.078C6.353,0.017 6.223,0.065 6.058,0.065C5.893,0.065 5.766,0.017 5.675,-0.078C5.584,-0.173 5.538,-0.299 5.538,-0.455L5.538,-1.157C5.347,-0.758 5.068,-0.451 4.699,-0.234C4.331,-0.017 3.9,0.091 3.406,0.091C2.851,0.091 2.362,-0.048 1.937,-0.325C1.512,-0.602 1.183,-0.99 0.949,-1.489C0.715,-1.987 0.598,-2.565 0.598,-3.224C0.598,-3.874 0.715,-4.446 0.949,-4.94C1.183,-5.434 1.512,-5.815 1.937,-6.084C2.362,-6.353 2.851,-6.487 3.406,-6.487C3.9,-6.487 4.331,-6.379 4.699,-6.162C5.068,-5.945 5.347,-5.638 5.538,-5.239L5.538,-8.723C5.538,-8.879 5.584,-9.003 5.675,-9.094C5.766,-9.185 5.893,-9.23 6.058,-9.23C6.223,-9.23 6.353,-9.182 6.448,-9.087ZM5.038,-1.411C5.371,-1.831 5.538,-2.427 5.538,-3.198C5.538,-3.969 5.371,-4.563 5.038,-4.979C4.704,-5.395 4.229,-5.603 3.614,-5.603C2.999,-5.603 2.52,-5.395 2.178,-4.979C1.835,-4.563 1.664,-3.978 1.664,-3.224C1.664,-2.453 1.835,-1.852 2.178,-1.424C2.52,-0.994 2.999,-0.78 3.614,-0.78C4.229,-0.78 4.704,-0.99 5.038,-1.411Z" style="fill:rgb(255,120,27);fill-rule:nonzero;"/>
                    <path d="M13.675,-1.352C13.744,-1.274 13.779,-1.174 13.779,-1.053C13.779,-0.836 13.627,-0.637 13.324,-0.455C13.012,-0.273 12.683,-0.137 12.336,-0.046C11.989,0.046 11.651,0.091 11.322,0.091C10.343,0.091 9.569,-0.199 9.001,-0.78C8.434,-1.361 8.15,-2.162 8.15,-3.185C8.15,-3.835 8.276,-4.409 8.527,-4.908C8.778,-5.406 9.131,-5.794 9.586,-6.071C10.041,-6.348 10.559,-6.487 11.14,-6.487C11.963,-6.487 12.618,-6.218 13.103,-5.681C13.588,-5.144 13.831,-4.416 13.831,-3.497C13.831,-3.324 13.796,-3.198 13.727,-3.12C13.658,-3.042 13.545,-3.003 13.389,-3.003L9.203,-3.003C9.281,-1.512 9.987,-0.767 11.322,-0.767C11.66,-0.767 11.95,-0.813 12.193,-0.904C12.436,-0.994 12.696,-1.118 12.973,-1.274C13.198,-1.404 13.35,-1.469 13.428,-1.469C13.523,-1.469 13.606,-1.43 13.675,-1.352ZM9.82,-5.148C9.487,-4.801 9.29,-4.312 9.229,-3.679L12.908,-3.679C12.891,-4.32 12.73,-4.812 12.427,-5.155C12.124,-5.497 11.699,-5.668 11.153,-5.668C10.598,-5.668 10.154,-5.495 9.82,-5.148Z" style="fill:rgb(255,120,27);fill-rule:nonzero;"/>
                    <path d="M20.512,-1.352C20.581,-1.274 20.616,-1.174 20.616,-1.053C20.616,-0.836 20.464,-0.637 20.161,-0.455C19.849,-0.273 19.519,-0.137 19.173,-0.046C18.826,0.046 18.488,0.091 18.159,0.091C17.179,0.091 16.406,-0.199 15.838,-0.78C15.271,-1.361 14.987,-2.162 14.987,-3.185C14.987,-3.835 15.112,-4.409 15.364,-4.908C15.615,-5.406 15.968,-5.794 16.423,-6.071C16.878,-6.348 17.396,-6.487 17.977,-6.487C18.8,-6.487 19.454,-6.218 19.94,-5.681C20.425,-5.144 20.668,-4.416 20.668,-3.497C20.668,-3.324 20.633,-3.198 20.564,-3.12C20.494,-3.042 20.382,-3.003 20.226,-3.003L16.04,-3.003C16.118,-1.512 16.824,-0.767 18.159,-0.767C18.497,-0.767 18.787,-0.813 19.03,-0.904C19.272,-0.994 19.532,-1.118 19.81,-1.274C20.035,-1.404 20.187,-1.469 20.265,-1.469C20.36,-1.469 20.442,-1.43 20.512,-1.352ZM16.657,-5.148C16.324,-4.801 16.126,-4.312 16.066,-3.679L19.745,-3.679C19.727,-4.32 19.567,-4.812 19.264,-5.155C18.96,-5.497 18.536,-5.668 17.99,-5.668C17.435,-5.668 16.991,-5.495 16.657,-5.148Z" style="fill:rgb(255,120,27);fill-rule:nonzero;"/>
                    <path d="M26.855,-6.071C27.279,-5.794 27.609,-5.406 27.843,-4.908C28.077,-4.409 28.194,-3.831 28.194,-3.172C28.194,-2.513 28.077,-1.939 27.843,-1.45C27.609,-0.96 27.281,-0.581 26.861,-0.312C26.441,-0.043 25.949,0.091 25.386,0.091C24.892,0.091 24.46,-0.017 24.092,-0.234C23.724,-0.451 23.444,-0.758 23.254,-1.157L23.254,1.898C23.254,2.054 23.208,2.178 23.117,2.269C23.026,2.359 22.898,2.405 22.734,2.405C22.569,2.405 22.439,2.357 22.344,2.262C22.248,2.167 22.201,2.045 22.201,1.898L22.201,-5.941C22.201,-6.097 22.248,-6.223 22.344,-6.318C22.439,-6.413 22.569,-6.461 22.734,-6.461C22.898,-6.461 23.026,-6.413 23.117,-6.318C23.208,-6.223 23.254,-6.097 23.254,-5.941L23.254,-5.239C23.444,-5.638 23.724,-5.945 24.092,-6.162C24.46,-6.379 24.892,-6.487 25.386,-6.487C25.94,-6.487 26.43,-6.348 26.855,-6.071ZM26.608,-1.404C26.946,-1.82 27.115,-2.409 27.115,-3.172C27.115,-3.935 26.946,-4.531 26.608,-4.96C26.27,-5.389 25.793,-5.603 25.178,-5.603C24.562,-5.603 24.088,-5.395 23.754,-4.979C23.42,-4.563 23.254,-3.969 23.254,-3.198C23.254,-2.427 23.42,-1.831 23.754,-1.411C24.088,-0.99 24.562,-0.78 25.178,-0.78C25.793,-0.78 26.27,-0.988 26.608,-1.404Z" style="fill:rgb(255,120,27);fill-rule:nonzero;"/>
                    <path d="M37.746,-6.071C38.171,-5.794 38.5,-5.406 38.734,-4.908C38.968,-4.409 39.085,-3.831 39.085,-3.172C39.085,-2.513 38.968,-1.939 38.734,-1.45C38.5,-0.96 38.173,-0.581 37.753,-0.312C37.332,-0.043 36.841,0.091 36.277,0.091C35.783,0.091 35.352,-0.017 34.984,-0.234C34.615,-0.451 34.336,-0.758 34.145,-1.157L34.145,1.898C34.145,2.054 34.1,2.178 34.009,2.269C33.918,2.359 33.79,2.405 33.625,2.405C33.461,2.405 33.331,2.357 33.235,2.262C33.14,2.167 33.092,2.045 33.092,1.898L33.092,-5.941C33.092,-6.097 33.14,-6.223 33.235,-6.318C33.331,-6.413 33.461,-6.461 33.625,-6.461C33.79,-6.461 33.918,-6.413 34.009,-6.318C34.1,-6.223 34.145,-6.097 34.145,-5.941L34.145,-5.239C34.336,-5.638 34.615,-5.945 34.984,-6.162C35.352,-6.379 35.783,-6.487 36.277,-6.487C36.832,-6.487 37.322,-6.348 37.746,-6.071ZM37.499,-1.404C37.837,-1.82 38.006,-2.409 38.006,-3.172C38.006,-3.935 37.837,-4.531 37.499,-4.96C37.161,-5.389 36.685,-5.603 36.069,-5.603C35.454,-5.603 34.979,-5.395 34.646,-4.979C34.312,-4.563 34.145,-3.969 34.145,-3.198C34.145,-2.427 34.312,-1.831 34.646,-1.411C34.979,-0.99 35.454,-0.78 36.069,-0.78C36.685,-0.78 37.161,-0.988 37.499,-1.404Z" style="fill:rgb(255,120,27);fill-rule:nonzero;"/>
                    <path d="M45.61,-3.991L45.61,-0.455C45.61,-0.299 45.565,-0.173 45.474,-0.078C45.383,0.017 45.259,0.065 45.103,0.065C44.947,0.065 44.821,0.017 44.726,-0.078C44.631,-0.173 44.583,-0.299 44.583,-0.455L44.583,-1.079C44.418,-0.706 44.167,-0.418 43.829,-0.215C43.491,-0.011 43.101,0.091 42.659,0.091C42.252,0.091 41.877,0.009 41.535,-0.156C41.192,-0.321 40.921,-0.55 40.722,-0.845C40.523,-1.14 40.423,-1.465 40.423,-1.82C40.423,-2.297 40.544,-2.667 40.787,-2.932C41.03,-3.196 41.428,-3.387 41.983,-3.504C42.538,-3.621 43.309,-3.679 44.297,-3.679L44.583,-3.679L44.583,-4.108C44.583,-4.628 44.477,-5.009 44.265,-5.252C44.052,-5.495 43.708,-5.616 43.231,-5.616C42.642,-5.616 42.044,-5.456 41.437,-5.135C41.203,-4.988 41.038,-4.914 40.943,-4.914C40.839,-4.914 40.752,-4.953 40.683,-5.031C40.614,-5.109 40.579,-5.209 40.579,-5.33C40.579,-5.451 40.616,-5.558 40.69,-5.649C40.763,-5.739 40.882,-5.833 41.047,-5.928C41.35,-6.101 41.695,-6.238 42.081,-6.337C42.466,-6.437 42.85,-6.487 43.231,-6.487C44.817,-6.487 45.61,-5.655 45.61,-3.991ZM44.083,-1.268C44.416,-1.619 44.583,-2.071 44.583,-2.626L44.583,-3.003L44.349,-3.003C43.586,-3.003 43.006,-2.971 42.607,-2.906C42.208,-2.841 41.925,-2.732 41.756,-2.581C41.587,-2.429 41.502,-2.206 41.502,-1.911C41.502,-1.573 41.626,-1.293 41.873,-1.073C42.12,-0.852 42.429,-0.741 42.802,-0.741C43.322,-0.741 43.749,-0.917 44.083,-1.268Z" style="fill:rgb(255,120,27);fill-rule:nonzero;"/>
                    <path d="M48.566,-0.312C48.111,-0.581 47.76,-0.962 47.513,-1.456C47.266,-1.95 47.143,-2.522 47.143,-3.172C47.143,-3.822 47.271,-4.398 47.526,-4.901C47.782,-5.404 48.14,-5.794 48.599,-6.071C49.058,-6.348 49.587,-6.487 50.185,-6.487C50.514,-6.487 50.841,-6.441 51.166,-6.351C51.491,-6.26 51.775,-6.127 52.018,-5.954C52.174,-5.85 52.284,-5.748 52.349,-5.649C52.414,-5.549 52.447,-5.438 52.447,-5.317C52.447,-5.196 52.414,-5.096 52.349,-5.018C52.284,-4.94 52.2,-4.901 52.096,-4.901C52.035,-4.901 51.97,-4.918 51.901,-4.953C51.832,-4.988 51.773,-5.022 51.725,-5.057C51.678,-5.092 51.645,-5.113 51.628,-5.122C51.403,-5.269 51.188,-5.386 50.984,-5.473C50.781,-5.56 50.532,-5.603 50.237,-5.603C49.604,-5.603 49.112,-5.389 48.761,-4.96C48.41,-4.531 48.235,-3.935 48.235,-3.172C48.235,-2.409 48.41,-1.82 48.761,-1.404C49.112,-0.988 49.604,-0.78 50.237,-0.78C50.532,-0.78 50.785,-0.823 50.997,-0.91C51.21,-0.997 51.424,-1.114 51.641,-1.261C51.736,-1.322 51.827,-1.374 51.914,-1.417C52.001,-1.46 52.074,-1.482 52.135,-1.482C52.23,-1.482 52.31,-1.443 52.375,-1.365C52.44,-1.287 52.473,-1.187 52.473,-1.066C52.473,-0.953 52.443,-0.852 52.382,-0.761C52.321,-0.67 52.209,-0.568 52.044,-0.455C51.801,-0.29 51.509,-0.158 51.166,-0.059C50.824,0.041 50.48,0.091 50.133,0.091C49.544,0.091 49.021,-0.043 48.566,-0.312Z" style="fill:rgb(255,120,27);fill-rule:nonzero;"/>
                    <path d="M58.998,-0.416C58.998,-0.286 58.952,-0.173 58.861,-0.078C58.77,0.017 58.66,0.065 58.53,0.065C58.417,0.065 58.3,0.013 58.179,-0.091L54.786,-3.016L54.786,-0.455C54.786,-0.29 54.736,-0.162 54.636,-0.071C54.537,0.02 54.413,0.065 54.266,0.065C54.11,0.065 53.982,0.02 53.882,-0.071C53.783,-0.162 53.733,-0.29 53.733,-0.455L53.733,-8.71C53.733,-8.875 53.783,-9.003 53.882,-9.094C53.982,-9.185 54.11,-9.23 54.266,-9.23C54.413,-9.23 54.537,-9.185 54.636,-9.094C54.736,-9.003 54.786,-8.875 54.786,-8.71L54.786,-3.432L57.893,-6.279C57.997,-6.383 58.114,-6.435 58.244,-6.435C58.374,-6.435 58.486,-6.387 58.582,-6.292C58.677,-6.197 58.725,-6.084 58.725,-5.954C58.725,-5.807 58.664,-5.677 58.543,-5.564L55.982,-3.276L58.79,-0.832C58.928,-0.702 58.998,-0.563 58.998,-0.416Z" style="fill:rgb(255,120,27);fill-rule:nonzero;"/>
                    <path d="M65.25,-1.352C65.319,-1.274 65.354,-1.174 65.354,-1.053C65.354,-0.836 65.202,-0.637 64.899,-0.455C64.587,-0.273 64.257,-0.137 63.911,-0.046C63.564,0.046 63.226,0.091 62.897,0.091C61.917,0.091 61.144,-0.199 60.576,-0.78C60.008,-1.361 59.725,-2.162 59.725,-3.185C59.725,-3.835 59.85,-4.409 60.102,-4.908C60.353,-5.406 60.706,-5.794 61.161,-6.071C61.616,-6.348 62.134,-6.487 62.715,-6.487C63.538,-6.487 64.192,-6.218 64.678,-5.681C65.163,-5.144 65.406,-4.416 65.406,-3.497C65.406,-3.324 65.371,-3.198 65.302,-3.12C65.232,-3.042 65.12,-3.003 64.964,-3.003L60.778,-3.003C60.856,-1.512 61.562,-0.767 62.897,-0.767C63.235,-0.767 63.525,-0.813 63.768,-0.904C64.01,-0.994 64.27,-1.118 64.548,-1.274C64.773,-1.404 64.925,-1.469 65.003,-1.469C65.098,-1.469 65.18,-1.43 65.25,-1.352ZM61.395,-5.148C61.061,-4.801 60.864,-4.312 60.804,-3.679L64.483,-3.679C64.465,-4.32 64.305,-4.812 64.002,-5.155C63.698,-5.497 63.274,-5.668 62.728,-5.668C62.173,-5.668 61.729,-5.495 61.395,-5.148Z" style="fill:rgb(255,120,27);fill-rule:nonzero;"/>
                    <path d="M70.279,-0.351C70.279,-0.204 70.225,-0.093 70.117,-0.02C70.009,0.054 69.846,0.082 69.629,0.065L69.278,0.039C68.585,-0.013 68.074,-0.221 67.744,-0.585C67.415,-0.949 67.25,-1.499 67.25,-2.236L67.25,-5.499L66.379,-5.499C66.232,-5.499 66.117,-5.536 66.035,-5.61C65.953,-5.683 65.911,-5.781 65.911,-5.902C65.911,-6.032 65.953,-6.136 66.035,-6.214C66.117,-6.292 66.232,-6.331 66.379,-6.331L67.25,-6.331L67.25,-7.8C67.25,-7.965 67.298,-8.093 67.393,-8.184C67.489,-8.275 67.619,-8.32 67.783,-8.32C67.939,-8.32 68.065,-8.275 68.16,-8.184C68.256,-8.093 68.303,-7.965 68.303,-7.8L68.303,-6.331L69.746,-6.331C69.885,-6.331 69.996,-6.292 70.078,-6.214C70.16,-6.136 70.201,-6.032 70.201,-5.902C70.201,-5.781 70.16,-5.683 70.078,-5.61C69.996,-5.536 69.885,-5.499 69.746,-5.499L68.303,-5.499L68.303,-2.184C68.303,-1.707 68.401,-1.363 68.596,-1.15C68.791,-0.938 69.083,-0.819 69.473,-0.793L69.824,-0.767C70.128,-0.741 70.279,-0.602 70.279,-0.351Z" style="fill:rgb(255,120,27);fill-rule:nonzero;"/>
                </g>
                <g transform="matrix(1,0,0,1,1202,270)">
                    <path d="M1.125,-0.071C1.025,-0.162 0.975,-0.29 0.975,-0.455L0.975,-5.941C0.975,-6.106 1.025,-6.234 1.125,-6.324C1.224,-6.416 1.352,-6.461 1.508,-6.461C1.664,-6.461 1.79,-6.416 1.885,-6.324C1.98,-6.234 2.028,-6.106 2.028,-5.941L2.028,-0.455C2.028,-0.282 1.98,-0.152 1.885,-0.065C1.79,0.022 1.664,0.065 1.508,0.065C1.352,0.065 1.224,0.02 1.125,-0.071ZM1.001,-8.008C0.871,-8.129 0.806,-8.29 0.806,-8.489C0.806,-8.68 0.871,-8.836 1.001,-8.957C1.131,-9.078 1.3,-9.139 1.508,-9.139C1.716,-9.139 1.885,-9.078 2.015,-8.957C2.145,-8.836 2.21,-8.68 2.21,-8.489C2.21,-8.29 2.145,-8.129 2.015,-8.008C1.885,-7.887 1.716,-7.826 1.508,-7.826C1.3,-7.826 1.131,-7.887 1.001,-8.008Z" style="fill:rgb(255,120,27);fill-rule:nonzero;"/>
                    <path d="M9.437,-3.978L9.437,-0.455C9.437,-0.29 9.391,-0.162 9.3,-0.071C9.209,0.02 9.082,0.065 8.917,0.065C8.752,0.065 8.622,0.02 8.527,-0.071C8.432,-0.162 8.384,-0.29 8.384,-0.455L8.384,-3.913C8.384,-4.502 8.269,-4.931 8.039,-5.2C7.81,-5.469 7.444,-5.603 6.941,-5.603C6.36,-5.603 5.897,-5.425 5.55,-5.07C5.203,-4.715 5.03,-4.234 5.03,-3.627L5.03,-0.455C5.03,-0.29 4.984,-0.162 4.893,-0.071C4.802,0.02 4.675,0.065 4.51,0.065C4.345,0.065 4.215,0.02 4.12,-0.071C4.025,-0.162 3.977,-0.29 3.977,-0.455L3.977,-5.941C3.977,-6.097 4.025,-6.223 4.12,-6.318C4.215,-6.413 4.345,-6.461 4.51,-6.461C4.666,-6.461 4.789,-6.413 4.88,-6.318C4.971,-6.223 5.017,-6.101 5.017,-5.954L5.017,-5.291C5.225,-5.681 5.515,-5.978 5.888,-6.182C6.261,-6.385 6.685,-6.487 7.162,-6.487C8.679,-6.487 9.437,-5.651 9.437,-3.978Z" style="fill:rgb(255,120,27);fill-rule:nonzero;"/>
                    <path d="M12.341,-0.052C11.982,-0.147 11.663,-0.282 11.386,-0.455C11.23,-0.559 11.119,-0.657 11.054,-0.748C10.989,-0.839 10.957,-0.949 10.957,-1.079C10.957,-1.192 10.989,-1.285 11.054,-1.359C11.119,-1.432 11.204,-1.469 11.308,-1.469C11.412,-1.469 11.563,-1.404 11.763,-1.274C12.023,-1.118 12.281,-0.994 12.536,-0.904C12.792,-0.813 13.11,-0.767 13.492,-0.767C13.96,-0.767 14.324,-0.849 14.584,-1.014C14.844,-1.179 14.974,-1.417 14.974,-1.729C14.974,-1.92 14.926,-2.074 14.831,-2.191C14.735,-2.308 14.571,-2.412 14.337,-2.503C14.103,-2.594 13.76,-2.687 13.31,-2.782C12.547,-2.947 12.001,-3.168 11.672,-3.445C11.342,-3.722 11.178,-4.099 11.178,-4.576C11.178,-4.949 11.282,-5.278 11.49,-5.564C11.698,-5.85 11.986,-6.075 12.354,-6.24C12.723,-6.405 13.141,-6.487 13.609,-6.487C13.947,-6.487 14.274,-6.441 14.59,-6.351C14.907,-6.26 15.186,-6.132 15.429,-5.967C15.723,-5.759 15.871,-5.542 15.871,-5.317C15.871,-5.204 15.836,-5.109 15.767,-5.031C15.697,-4.953 15.615,-4.914 15.52,-4.914C15.416,-4.914 15.26,-4.988 15.052,-5.135C14.809,-5.291 14.579,-5.412 14.363,-5.499C14.146,-5.586 13.877,-5.629 13.557,-5.629C13.149,-5.629 12.822,-5.538 12.575,-5.356C12.328,-5.174 12.205,-4.931 12.205,-4.628C12.205,-4.437 12.25,-4.284 12.341,-4.167C12.432,-4.05 12.584,-3.946 12.796,-3.854C13.009,-3.764 13.314,-3.675 13.713,-3.588C14.302,-3.458 14.759,-3.315 15.084,-3.159C15.409,-3.003 15.641,-2.812 15.78,-2.587C15.918,-2.362 15.988,-2.076 15.988,-1.729C15.988,-1.183 15.758,-0.743 15.299,-0.409C14.839,-0.076 14.233,0.091 13.479,0.091C13.08,0.091 12.701,0.043 12.341,-0.052Z" style="fill:rgb(255,120,27);fill-rule:nonzero;"/>
                    <path d="M22.227,-6.071C22.651,-5.794 22.981,-5.406 23.215,-4.908C23.449,-4.409 23.566,-3.831 23.566,-3.172C23.566,-2.513 23.449,-1.939 23.215,-1.45C22.981,-0.96 22.653,-0.581 22.233,-0.312C21.813,-0.043 21.321,0.091 20.758,0.091C20.264,0.091 19.832,-0.017 19.464,-0.234C19.096,-0.451 18.816,-0.758 18.626,-1.157L18.626,1.898C18.626,2.054 18.58,2.178 18.489,2.269C18.398,2.359 18.27,2.405 18.106,2.405C17.941,2.405 17.811,2.357 17.716,2.262C17.62,2.167 17.573,2.045 17.573,1.898L17.573,-5.941C17.573,-6.097 17.62,-6.223 17.716,-6.318C17.811,-6.413 17.941,-6.461 18.106,-6.461C18.27,-6.461 18.398,-6.413 18.489,-6.318C18.58,-6.223 18.626,-6.097 18.626,-5.941L18.626,-5.239C18.816,-5.638 19.096,-5.945 19.464,-6.162C19.832,-6.379 20.264,-6.487 20.758,-6.487C21.312,-6.487 21.802,-6.348 22.227,-6.071ZM21.98,-1.404C22.318,-1.82 22.487,-2.409 22.487,-3.172C22.487,-3.935 22.318,-4.531 21.98,-4.96C21.642,-5.389 21.165,-5.603 20.55,-5.603C19.934,-5.603 19.46,-5.395 19.126,-4.979C18.792,-4.563 18.626,-3.969 18.626,-3.198C18.626,-2.427 18.792,-1.831 19.126,-1.411C19.46,-0.99 19.934,-0.78 20.55,-0.78C21.165,-0.78 21.642,-0.988 21.98,-1.404Z" style="fill:rgb(255,120,27);fill-rule:nonzero;"/>
                    <path d="M30.272,-1.352C30.342,-1.274 30.376,-1.174 30.376,-1.053C30.376,-0.836 30.225,-0.637 29.921,-0.455C29.609,-0.273 29.28,-0.137 28.933,-0.046C28.587,0.046 28.249,0.091 27.919,0.091C26.94,0.091 26.167,-0.199 25.599,-0.78C25.031,-1.361 24.747,-2.162 24.747,-3.185C24.747,-3.835 24.873,-4.409 25.124,-4.908C25.376,-5.406 25.729,-5.794 26.184,-6.071C26.639,-6.348 27.157,-6.487 27.737,-6.487C28.561,-6.487 29.215,-6.218 29.7,-5.681C30.186,-5.144 30.428,-4.416 30.428,-3.497C30.428,-3.324 30.394,-3.198 30.324,-3.12C30.255,-3.042 30.142,-3.003 29.986,-3.003L25.8,-3.003C25.878,-1.512 26.585,-0.767 27.919,-0.767C28.257,-0.767 28.548,-0.813 28.79,-0.904C29.033,-0.994 29.293,-1.118 29.57,-1.274C29.796,-1.404 29.947,-1.469 30.025,-1.469C30.121,-1.469 30.203,-1.43 30.272,-1.352ZM26.418,-5.148C26.084,-4.801 25.887,-4.312 25.826,-3.679L29.505,-3.679C29.488,-4.32 29.328,-4.812 29.024,-5.155C28.721,-5.497 28.296,-5.668 27.75,-5.668C27.196,-5.668 26.752,-5.495 26.418,-5.148Z" style="fill:rgb(255,120,27);fill-rule:nonzero;"/>
                    <path d="M33.008,-0.312C32.553,-0.581 32.202,-0.962 31.955,-1.456C31.708,-1.95 31.584,-2.522 31.584,-3.172C31.584,-3.822 31.712,-4.398 31.968,-4.901C32.223,-5.404 32.581,-5.794 33.04,-6.071C33.5,-6.348 34.028,-6.487 34.626,-6.487C34.956,-6.487 35.283,-6.441 35.608,-6.351C35.933,-6.26 36.217,-6.127 36.459,-5.954C36.615,-5.85 36.726,-5.748 36.791,-5.649C36.856,-5.549 36.888,-5.438 36.888,-5.317C36.888,-5.196 36.856,-5.096 36.791,-5.018C36.726,-4.94 36.641,-4.901 36.537,-4.901C36.477,-4.901 36.412,-4.918 36.342,-4.953C36.273,-4.988 36.214,-5.022 36.167,-5.057C36.119,-5.092 36.087,-5.113 36.069,-5.122C35.844,-5.269 35.629,-5.386 35.426,-5.473C35.222,-5.56 34.973,-5.603 34.678,-5.603C34.046,-5.603 33.554,-5.389 33.203,-4.96C32.852,-4.531 32.676,-3.935 32.676,-3.172C32.676,-2.409 32.852,-1.82 33.203,-1.404C33.554,-0.988 34.046,-0.78 34.678,-0.78C34.973,-0.78 35.226,-0.823 35.439,-0.91C35.651,-0.997 35.866,-1.114 36.082,-1.261C36.178,-1.322 36.269,-1.374 36.355,-1.417C36.442,-1.46 36.516,-1.482 36.576,-1.482C36.672,-1.482 36.752,-1.443 36.817,-1.365C36.882,-1.287 36.914,-1.187 36.914,-1.066C36.914,-0.953 36.884,-0.852 36.823,-0.761C36.763,-0.67 36.65,-0.568 36.485,-0.455C36.243,-0.29 35.95,-0.158 35.608,-0.059C35.265,0.041 34.921,0.091 34.574,0.091C33.985,0.091 33.463,-0.043 33.008,-0.312Z" style="fill:rgb(255,120,27);fill-rule:nonzero;"/>
                    <path d="M41.567,-0.351C41.567,-0.204 41.513,-0.093 41.405,-0.02C41.296,0.054 41.134,0.082 40.917,0.065L40.566,0.039C39.873,-0.013 39.361,-0.221 39.032,-0.585C38.703,-0.949 38.538,-1.499 38.538,-2.236L38.538,-5.499L37.667,-5.499C37.52,-5.499 37.405,-5.536 37.323,-5.61C37.24,-5.683 37.199,-5.781 37.199,-5.902C37.199,-6.032 37.24,-6.136 37.323,-6.214C37.405,-6.292 37.52,-6.331 37.667,-6.331L38.538,-6.331L38.538,-7.8C38.538,-7.965 38.586,-8.093 38.681,-8.184C38.776,-8.275 38.906,-8.32 39.071,-8.32C39.227,-8.32 39.353,-8.275 39.448,-8.184C39.543,-8.093 39.591,-7.965 39.591,-7.8L39.591,-6.331L41.034,-6.331C41.173,-6.331 41.283,-6.292 41.366,-6.214C41.448,-6.136 41.489,-6.032 41.489,-5.902C41.489,-5.781 41.448,-5.683 41.366,-5.61C41.283,-5.536 41.173,-5.499 41.034,-5.499L39.591,-5.499L39.591,-2.184C39.591,-1.707 39.689,-1.363 39.884,-1.15C40.079,-0.938 40.371,-0.819 40.761,-0.793L41.112,-0.767C41.415,-0.741 41.567,-0.602 41.567,-0.351Z" style="fill:rgb(255,120,27);fill-rule:nonzero;"/>
                    <path d="M42.742,-0.071C42.643,-0.162 42.593,-0.29 42.593,-0.455L42.593,-5.941C42.593,-6.106 42.643,-6.234 42.742,-6.324C42.842,-6.416 42.97,-6.461 43.126,-6.461C43.282,-6.461 43.408,-6.416 43.503,-6.324C43.598,-6.234 43.646,-6.106 43.646,-5.941L43.646,-0.455C43.646,-0.282 43.598,-0.152 43.503,-0.065C43.408,0.022 43.282,0.065 43.126,0.065C42.97,0.065 42.842,0.02 42.742,-0.071ZM42.619,-8.008C42.489,-8.129 42.424,-8.29 42.424,-8.489C42.424,-8.68 42.489,-8.836 42.619,-8.957C42.749,-9.078 42.918,-9.139 43.126,-9.139C43.334,-9.139 43.503,-9.078 43.633,-8.957C43.763,-8.836 43.828,-8.68 43.828,-8.489C43.828,-8.29 43.763,-8.129 43.633,-8.008C43.503,-7.887 43.334,-7.826 43.126,-7.826C42.918,-7.826 42.749,-7.887 42.619,-8.008Z" style="fill:rgb(255,120,27);fill-rule:nonzero;"/>
                    <path d="M46.641,-0.312C46.186,-0.581 45.835,-0.964 45.588,-1.463C45.341,-1.961 45.218,-2.539 45.218,-3.198C45.218,-3.857 45.341,-4.435 45.588,-4.934C45.835,-5.432 46.186,-5.815 46.641,-6.084C47.096,-6.353 47.623,-6.487 48.221,-6.487C48.819,-6.487 49.347,-6.353 49.807,-6.084C50.266,-5.815 50.619,-5.432 50.866,-4.934C51.113,-4.435 51.237,-3.857 51.237,-3.198C51.237,-2.539 51.113,-1.961 50.866,-1.463C50.619,-0.964 50.266,-0.581 49.807,-0.312C49.347,-0.043 48.819,0.091 48.221,0.091C47.623,0.091 47.096,-0.043 46.641,-0.312ZM49.657,-1.398C49.991,-1.809 50.158,-2.409 50.158,-3.198C50.158,-3.969 49.989,-4.565 49.651,-4.986C49.313,-5.406 48.836,-5.616 48.221,-5.616C47.605,-5.616 47.129,-5.406 46.791,-4.986C46.453,-4.565 46.284,-3.969 46.284,-3.198C46.284,-2.418 46.451,-1.82 46.784,-1.404C47.118,-0.988 47.597,-0.78 48.221,-0.78C48.845,-0.78 49.324,-0.986 49.657,-1.398Z" style="fill:rgb(255,120,27);fill-rule:nonzero;"/>
                    <path d="M58.256,-3.978L58.256,-0.455C58.256,-0.29 58.21,-0.162 58.119,-0.071C58.028,0.02 57.9,0.065 57.736,0.065C57.571,0.065 57.441,0.02 57.346,-0.071C57.25,-0.162 57.203,-0.29 57.203,-0.455L57.203,-3.913C57.203,-4.502 57.088,-4.931 56.858,-5.2C56.628,-5.469 56.262,-5.603 55.76,-5.603C55.179,-5.603 54.715,-5.425 54.369,-5.07C54.022,-4.715 53.849,-4.234 53.849,-3.627L53.849,-0.455C53.849,-0.29 53.803,-0.162 53.712,-0.071C53.621,0.02 53.493,0.065 53.329,0.065C53.164,0.065 53.034,0.02 52.939,-0.071C52.843,-0.162 52.796,-0.29 52.796,-0.455L52.796,-5.941C52.796,-6.097 52.843,-6.223 52.939,-6.318C53.034,-6.413 53.164,-6.461 53.329,-6.461C53.485,-6.461 53.608,-6.413 53.699,-6.318C53.79,-6.223 53.836,-6.101 53.836,-5.954L53.836,-5.291C54.044,-5.681 54.334,-5.978 54.707,-6.182C55.079,-6.385 55.504,-6.487 55.981,-6.487C57.497,-6.487 58.256,-5.651 58.256,-3.978Z" style="fill:rgb(255,120,27);fill-rule:nonzero;"/>
                </g>
                <g transform="matrix(1,0,0,1,1202,286)">
                    <path d="M1.97,-0.052C1.61,-0.147 1.291,-0.282 1.014,-0.455C0.858,-0.559 0.747,-0.657 0.683,-0.748C0.617,-0.839 0.585,-0.949 0.585,-1.079C0.585,-1.192 0.617,-1.285 0.683,-1.359C0.747,-1.432 0.832,-1.469 0.936,-1.469C1.04,-1.469 1.192,-1.404 1.391,-1.274C1.651,-1.118 1.909,-0.994 2.165,-0.904C2.42,-0.813 2.739,-0.767 3.12,-0.767C3.588,-0.767 3.952,-0.849 4.212,-1.014C4.472,-1.179 4.602,-1.417 4.602,-1.729C4.602,-1.92 4.554,-2.074 4.459,-2.191C4.364,-2.308 4.199,-2.412 3.965,-2.503C3.731,-2.594 3.389,-2.687 2.938,-2.782C2.175,-2.947 1.629,-3.168 1.3,-3.445C0.971,-3.722 0.806,-4.099 0.806,-4.576C0.806,-4.949 0.91,-5.278 1.118,-5.564C1.326,-5.85 1.614,-6.075 1.983,-6.24C2.351,-6.405 2.769,-6.487 3.237,-6.487C3.575,-6.487 3.902,-6.441 4.219,-6.351C4.535,-6.26 4.814,-6.132 5.057,-5.967C5.352,-5.759 5.499,-5.542 5.499,-5.317C5.499,-5.204 5.464,-5.109 5.395,-5.031C5.326,-4.953 5.243,-4.914 5.148,-4.914C5.044,-4.914 4.888,-4.988 4.68,-5.135C4.437,-5.291 4.208,-5.412 3.991,-5.499C3.774,-5.586 3.506,-5.629 3.185,-5.629C2.778,-5.629 2.451,-5.538 2.204,-5.356C1.956,-5.174 1.833,-4.931 1.833,-4.628C1.833,-4.437 1.878,-4.284 1.97,-4.167C2.061,-4.05 2.212,-3.946 2.425,-3.854C2.637,-3.764 2.942,-3.675 3.341,-3.588C3.93,-3.458 4.387,-3.315 4.712,-3.159C5.038,-3.003 5.269,-2.812 5.408,-2.587C5.547,-2.362 5.616,-2.076 5.616,-1.729C5.616,-1.183 5.386,-0.743 4.927,-0.409C4.468,-0.076 3.861,0.091 3.107,0.091C2.708,0.091 2.329,0.043 1.97,-0.052Z" style="fill:rgb(255,120,27);fill-rule:nonzero;"/>
                    <path d="M8.247,-0.312C7.792,-0.581 7.441,-0.962 7.194,-1.456C6.947,-1.95 6.824,-2.522 6.824,-3.172C6.824,-3.822 6.952,-4.398 7.207,-4.901C7.463,-5.404 7.821,-5.794 8.28,-6.071C8.739,-6.348 9.268,-6.487 9.866,-6.487C10.195,-6.487 10.522,-6.441 10.847,-6.351C11.172,-6.26 11.456,-6.127 11.699,-5.954C11.855,-5.85 11.965,-5.748 12.03,-5.649C12.095,-5.549 12.128,-5.438 12.128,-5.317C12.128,-5.196 12.095,-5.096 12.03,-5.018C11.965,-4.94 11.881,-4.901 11.777,-4.901C11.716,-4.901 11.651,-4.918 11.582,-4.953C11.513,-4.988 11.454,-5.022 11.406,-5.057C11.359,-5.092 11.326,-5.113 11.309,-5.122C11.084,-5.269 10.869,-5.386 10.665,-5.473C10.462,-5.56 10.213,-5.603 9.918,-5.603C9.285,-5.603 8.793,-5.389 8.442,-4.96C8.091,-4.531 7.916,-3.935 7.916,-3.172C7.916,-2.409 8.091,-1.82 8.442,-1.404C8.793,-0.988 9.285,-0.78 9.918,-0.78C10.213,-0.78 10.466,-0.823 10.678,-0.91C10.891,-0.997 11.105,-1.114 11.322,-1.261C11.417,-1.322 11.508,-1.374 11.595,-1.417C11.682,-1.46 11.755,-1.482 11.816,-1.482C11.911,-1.482 11.991,-1.443 12.056,-1.365C12.121,-1.287 12.154,-1.187 12.154,-1.066C12.154,-0.953 12.124,-0.852 12.063,-0.761C12.002,-0.67 11.89,-0.568 11.725,-0.455C11.482,-0.29 11.19,-0.158 10.847,-0.059C10.505,0.041 10.161,0.091 9.814,0.091C9.225,0.091 8.702,-0.043 8.247,-0.312Z" style="fill:rgb(255,120,27);fill-rule:nonzero;"/>
                    <path d="M18.38,-3.991L18.38,-0.455C18.38,-0.299 18.334,-0.173 18.243,-0.078C18.152,0.017 18.029,0.065 17.873,0.065C17.717,0.065 17.591,0.017 17.496,-0.078C17.4,-0.173 17.353,-0.299 17.353,-0.455L17.353,-1.079C17.188,-0.706 16.937,-0.418 16.599,-0.215C16.261,-0.011 15.871,0.091 15.429,0.091C15.021,0.091 14.647,0.009 14.304,-0.156C13.962,-0.321 13.691,-0.55 13.492,-0.845C13.292,-1.14 13.193,-1.465 13.193,-1.82C13.193,-2.297 13.314,-2.667 13.557,-2.932C13.799,-3.196 14.198,-3.387 14.753,-3.504C15.307,-3.621 16.079,-3.679 17.067,-3.679L17.353,-3.679L17.353,-4.108C17.353,-4.628 17.247,-5.009 17.034,-5.252C16.822,-5.495 16.477,-5.616 16.001,-5.616C15.411,-5.616 14.813,-5.456 14.207,-5.135C13.973,-4.988 13.808,-4.914 13.713,-4.914C13.609,-4.914 13.522,-4.953 13.453,-5.031C13.383,-5.109 13.349,-5.209 13.349,-5.33C13.349,-5.451 13.386,-5.558 13.459,-5.649C13.533,-5.739 13.652,-5.833 13.817,-5.928C14.12,-6.101 14.465,-6.238 14.85,-6.337C15.236,-6.437 15.619,-6.487 16.001,-6.487C17.587,-6.487 18.38,-5.655 18.38,-3.991ZM16.852,-1.268C17.186,-1.619 17.353,-2.071 17.353,-2.626L17.353,-3.003L17.119,-3.003C16.356,-3.003 15.775,-2.971 15.377,-2.906C14.978,-2.841 14.694,-2.732 14.525,-2.581C14.356,-2.429 14.272,-2.206 14.272,-1.911C14.272,-1.573 14.395,-1.293 14.642,-1.073C14.889,-0.852 15.199,-0.741 15.572,-0.741C16.092,-0.741 16.519,-0.917 16.852,-1.268Z" style="fill:rgb(255,120,27);fill-rule:nonzero;"/>
                    <path d="M25.75,-3.978L25.75,-0.455C25.75,-0.29 25.704,-0.162 25.613,-0.071C25.522,0.02 25.394,0.065 25.23,0.065C25.065,0.065 24.935,0.02 24.84,-0.071C24.744,-0.162 24.697,-0.29 24.697,-0.455L24.697,-3.913C24.697,-4.502 24.582,-4.931 24.352,-5.2C24.122,-5.469 23.756,-5.603 23.254,-5.603C22.673,-5.603 22.209,-5.425 21.863,-5.07C21.516,-4.715 21.343,-4.234 21.343,-3.627L21.343,-0.455C21.343,-0.29 21.297,-0.162 21.206,-0.071C21.115,0.02 20.987,0.065 20.823,0.065C20.658,0.065 20.528,0.02 20.433,-0.071C20.337,-0.162 20.29,-0.29 20.29,-0.455L20.29,-5.941C20.29,-6.097 20.337,-6.223 20.433,-6.318C20.528,-6.413 20.658,-6.461 20.823,-6.461C20.979,-6.461 21.102,-6.413 21.193,-6.318C21.284,-6.223 21.33,-6.101 21.33,-5.954L21.33,-5.291C21.538,-5.681 21.828,-5.978 22.201,-6.182C22.573,-6.385 22.998,-6.487 23.475,-6.487C24.991,-6.487 25.75,-5.651 25.75,-3.978Z" style="fill:rgb(255,120,27);fill-rule:nonzero;"/>
                    <path d="M33.119,-3.978L33.119,-0.455C33.119,-0.29 33.074,-0.162 32.983,-0.071C32.892,0.02 32.764,0.065 32.599,0.065C32.435,0.065 32.305,0.02 32.209,-0.071C32.114,-0.162 32.066,-0.29 32.066,-0.455L32.066,-3.913C32.066,-4.502 31.952,-4.931 31.722,-5.2C31.492,-5.469 31.126,-5.603 30.623,-5.603C30.043,-5.603 29.579,-5.425 29.232,-5.07C28.886,-4.715 28.712,-4.234 28.712,-3.627L28.712,-0.455C28.712,-0.29 28.667,-0.162 28.576,-0.071C28.485,0.02 28.357,0.065 28.192,0.065C28.028,0.065 27.898,0.02 27.802,-0.071C27.707,-0.162 27.659,-0.29 27.659,-0.455L27.659,-5.941C27.659,-6.097 27.707,-6.223 27.802,-6.318C27.898,-6.413 28.028,-6.461 28.192,-6.461C28.348,-6.461 28.472,-6.413 28.563,-6.318C28.654,-6.223 28.699,-6.101 28.699,-5.954L28.699,-5.291C28.907,-5.681 29.198,-5.978 29.57,-6.182C29.943,-6.385 30.368,-6.487 30.844,-6.487C32.361,-6.487 33.119,-5.651 33.119,-3.978Z" style="fill:rgb(255,120,27);fill-rule:nonzero;"/>
                    <path d="M35.179,-0.071C35.079,-0.162 35.029,-0.29 35.029,-0.455L35.029,-5.941C35.029,-6.106 35.079,-6.234 35.179,-6.324C35.278,-6.416 35.406,-6.461 35.562,-6.461C35.718,-6.461 35.844,-6.416 35.939,-6.324C36.035,-6.234 36.082,-6.106 36.082,-5.941L36.082,-0.455C36.082,-0.282 36.035,-0.152 35.939,-0.065C35.844,0.022 35.718,0.065 35.562,0.065C35.406,0.065 35.278,0.02 35.179,-0.071ZM35.055,-8.008C34.925,-8.129 34.86,-8.29 34.86,-8.489C34.86,-8.68 34.925,-8.836 35.055,-8.957C35.185,-9.078 35.354,-9.139 35.562,-9.139C35.77,-9.139 35.939,-9.078 36.069,-8.957C36.199,-8.836 36.264,-8.68 36.264,-8.489C36.264,-8.29 36.199,-8.129 36.069,-8.008C35.939,-7.887 35.77,-7.826 35.562,-7.826C35.354,-7.826 35.185,-7.887 35.055,-8.008Z" style="fill:rgb(255,120,27);fill-rule:nonzero;"/>
                    <path d="M43.491,-3.978L43.491,-0.455C43.491,-0.29 43.446,-0.162 43.355,-0.071C43.264,0.02 43.136,0.065 42.971,0.065C42.806,0.065 42.676,0.02 42.581,-0.071C42.486,-0.162 42.438,-0.29 42.438,-0.455L42.438,-3.913C42.438,-4.502 42.323,-4.931 42.094,-5.2C41.864,-5.469 41.498,-5.603 40.995,-5.603C40.414,-5.603 39.951,-5.425 39.604,-5.07C39.257,-4.715 39.084,-4.234 39.084,-3.627L39.084,-0.455C39.084,-0.29 39.039,-0.162 38.948,-0.071C38.857,0.02 38.729,0.065 38.564,0.065C38.399,0.065 38.269,0.02 38.174,-0.071C38.079,-0.162 38.031,-0.29 38.031,-0.455L38.031,-5.941C38.031,-6.097 38.079,-6.223 38.174,-6.318C38.269,-6.413 38.399,-6.461 38.564,-6.461C38.72,-6.461 38.844,-6.413 38.935,-6.318C39.026,-6.223 39.071,-6.101 39.071,-5.954L39.071,-5.291C39.279,-5.681 39.569,-5.978 39.942,-6.182C40.315,-6.385 40.739,-6.487 41.216,-6.487C42.733,-6.487 43.491,-5.651 43.491,-3.978Z" style="fill:rgb(255,120,27);fill-rule:nonzero;"/>
                    <path d="M50.926,-6.318C51.021,-6.223 51.069,-6.097 51.069,-5.941L51.069,-0.429C51.069,0.516 50.826,1.229 50.341,1.71C49.856,2.191 49.136,2.431 48.183,2.431C47.256,2.431 46.484,2.249 45.869,1.885C45.557,1.712 45.401,1.512 45.401,1.287C45.401,1.166 45.433,1.066 45.498,0.988C45.563,0.91 45.648,0.871 45.752,0.871C45.839,0.871 45.995,0.932 46.22,1.053C46.523,1.209 46.822,1.335 47.117,1.43C47.412,1.525 47.763,1.573 48.17,1.573C48.785,1.573 49.249,1.411 49.561,1.086C49.873,0.76 50.029,0.286 50.029,-0.338L50.029,-1.456C49.847,-1.049 49.567,-0.737 49.19,-0.52C48.813,-0.303 48.369,-0.195 47.858,-0.195C47.303,-0.195 46.811,-0.325 46.382,-0.585C45.953,-0.845 45.62,-1.213 45.381,-1.69C45.143,-2.167 45.024,-2.717 45.024,-3.341C45.024,-3.965 45.143,-4.515 45.381,-4.992C45.62,-5.469 45.953,-5.837 46.382,-6.097C46.811,-6.357 47.303,-6.487 47.858,-6.487C48.361,-6.487 48.798,-6.379 49.171,-6.162C49.544,-5.945 49.825,-5.638 50.016,-5.239L50.016,-5.941C50.016,-6.097 50.061,-6.223 50.152,-6.318C50.243,-6.413 50.371,-6.461 50.536,-6.461C50.701,-6.461 50.831,-6.413 50.926,-6.318ZM49.496,-1.671C49.843,-2.074 50.016,-2.63 50.016,-3.341C50.016,-4.043 49.845,-4.595 49.502,-4.999C49.16,-5.401 48.681,-5.603 48.066,-5.603C47.451,-5.603 46.967,-5.401 46.616,-4.999C46.265,-4.595 46.09,-4.043 46.09,-3.341C46.09,-2.63 46.265,-2.074 46.616,-1.671C46.967,-1.267 47.451,-1.066 48.066,-1.066C48.673,-1.066 49.149,-1.267 49.496,-1.671Z" style="fill:rgb(255,120,27);fill-rule:nonzero;"/>
                </g>
            </g>
        </g>
    </g>
</svg>
