<?xml version="1.0" encoding="UTF-8" standalone="no"?>
<!DOCTYPE svg PUBLIC "-//W3C//DTD SVG 1.1//EN" "http://www.w3.org/Graphics/SVG/1.1/DTD/svg11.dtd">
<svg width="100%" height="100%" viewBox="0 0 107 27" version="1.1" xmlns="http://www.w3.org/2000/svg" xmlns:xlink="http://www.w3.org/1999/xlink" xml:space="preserve" xmlns:serif="http://www.serif.com/" style="fill-rule:evenodd;clip-rule:evenodd;stroke-linejoin:round;stroke-miterlimit:1.41421;">
    <g transform="matrix(1,0,0,1,-429,-676)">
        <g transform="matrix(1,0,0,1,0,-7)">
            <g id="Secured-traffic-to-c">
                <g transform="matrix(1,0,0,1,429.104,693.88)">
                    <path d="M2.359,-0.203C1.72,-0.413 1.209,-0.695 0.826,-1.05C0.686,-1.181 0.616,-1.344 0.616,-1.54C0.616,-1.671 0.653,-1.785 0.728,-1.883C0.803,-1.981 0.891,-2.03 0.994,-2.03C1.115,-2.03 1.246,-1.979 1.386,-1.876C2.254,-1.204 3.243,-0.868 4.354,-0.868C5.157,-0.868 5.773,-1.022 6.202,-1.33C6.631,-1.638 6.846,-2.077 6.846,-2.646C6.846,-2.973 6.743,-3.236 6.538,-3.437C6.333,-3.638 6.062,-3.799 5.726,-3.92C5.39,-4.041 4.937,-4.167 4.368,-4.298C3.603,-4.475 2.975,-4.662 2.485,-4.858C1.995,-5.054 1.598,-5.334 1.295,-5.698C0.992,-6.062 0.84,-6.538 0.84,-7.126C0.84,-7.686 0.992,-8.183 1.295,-8.617C1.598,-9.051 2.023,-9.387 2.569,-9.625C3.115,-9.863 3.738,-9.982 4.438,-9.982C5.091,-9.982 5.7,-9.882 6.265,-9.681C6.83,-9.48 7.303,-9.193 7.686,-8.82C7.835,-8.671 7.91,-8.507 7.91,-8.33C7.91,-8.199 7.873,-8.085 7.798,-7.987C7.723,-7.889 7.635,-7.84 7.532,-7.84C7.429,-7.84 7.294,-7.891 7.126,-7.994C6.669,-8.367 6.244,-8.629 5.852,-8.778C5.46,-8.927 4.989,-9.002 4.438,-9.002C3.663,-9.002 3.061,-8.841 2.632,-8.519C2.203,-8.197 1.988,-7.747 1.988,-7.168C1.988,-6.673 2.177,-6.302 2.555,-6.055C2.933,-5.808 3.514,-5.591 4.298,-5.404C5.147,-5.199 5.815,-5.01 6.3,-4.837C6.785,-4.664 7.189,-4.405 7.511,-4.06C7.833,-3.715 7.994,-3.253 7.994,-2.674C7.994,-2.123 7.842,-1.638 7.539,-1.218C7.236,-0.798 6.809,-0.471 6.258,-0.238C5.707,-0.005 5.077,0.112 4.368,0.112C3.668,0.112 2.998,0.007 2.359,-0.203Z" style="fill-rule:nonzero;"/>
                    <path d="M15.216,-1.456C15.29,-1.372 15.328,-1.265 15.328,-1.134C15.328,-0.901 15.164,-0.686 14.838,-0.49C14.502,-0.294 14.147,-0.147 13.774,-0.049C13.4,0.049 13.036,0.098 12.682,0.098C11.627,0.098 10.794,-0.215 10.183,-0.84C9.571,-1.465 9.266,-2.329 9.266,-3.43C9.266,-4.13 9.401,-4.748 9.672,-5.285C9.942,-5.822 10.323,-6.239 10.813,-6.538C11.303,-6.837 11.86,-6.986 12.486,-6.986C13.372,-6.986 14.077,-6.697 14.6,-6.118C15.122,-5.539 15.384,-4.755 15.384,-3.766C15.384,-3.579 15.346,-3.444 15.272,-3.36C15.197,-3.276 15.076,-3.234 14.908,-3.234L10.4,-3.234C10.484,-1.629 11.244,-0.826 12.682,-0.826C13.046,-0.826 13.358,-0.875 13.62,-0.973C13.881,-1.071 14.161,-1.204 14.46,-1.372C14.702,-1.512 14.866,-1.582 14.95,-1.582C15.052,-1.582 15.141,-1.54 15.216,-1.456ZM11.065,-5.544C10.705,-5.171 10.493,-4.643 10.428,-3.962L14.39,-3.962C14.371,-4.653 14.198,-5.182 13.872,-5.551C13.545,-5.92 13.088,-6.104 12.5,-6.104C11.902,-6.104 11.424,-5.917 11.065,-5.544Z" style="fill-rule:nonzero;"/>
                    <path d="M18.16,-0.336C17.67,-0.625 17.292,-1.036 17.026,-1.568C16.76,-2.1 16.627,-2.716 16.627,-3.416C16.627,-4.116 16.765,-4.737 17.04,-5.278C17.315,-5.819 17.7,-6.239 18.195,-6.538C18.69,-6.837 19.259,-6.986 19.903,-6.986C20.258,-6.986 20.61,-6.937 20.96,-6.839C21.31,-6.741 21.616,-6.599 21.877,-6.412C22.045,-6.3 22.164,-6.19 22.234,-6.083C22.304,-5.976 22.339,-5.857 22.339,-5.726C22.339,-5.595 22.304,-5.488 22.234,-5.404C22.164,-5.32 22.073,-5.278 21.961,-5.278C21.896,-5.278 21.826,-5.297 21.751,-5.334C21.676,-5.371 21.613,-5.409 21.562,-5.446C21.511,-5.483 21.476,-5.507 21.457,-5.516C21.214,-5.675 20.983,-5.801 20.764,-5.894C20.545,-5.987 20.276,-6.034 19.959,-6.034C19.278,-6.034 18.748,-5.803 18.37,-5.341C17.992,-4.879 17.803,-4.237 17.803,-3.416C17.803,-2.595 17.992,-1.96 18.37,-1.512C18.748,-1.064 19.278,-0.84 19.959,-0.84C20.276,-0.84 20.549,-0.887 20.778,-0.98C21.007,-1.073 21.238,-1.199 21.471,-1.358C21.574,-1.423 21.672,-1.479 21.765,-1.526C21.858,-1.573 21.938,-1.596 22.003,-1.596C22.106,-1.596 22.192,-1.554 22.262,-1.47C22.332,-1.386 22.367,-1.279 22.367,-1.148C22.367,-1.027 22.334,-0.917 22.269,-0.819C22.204,-0.721 22.082,-0.611 21.905,-0.49C21.644,-0.313 21.329,-0.17 20.96,-0.063C20.591,0.044 20.22,0.098 19.847,0.098C19.212,0.098 18.65,-0.047 18.16,-0.336Z" style="fill-rule:nonzero;"/>
                    <path d="M29.316,-6.804C29.414,-6.701 29.463,-6.566 29.463,-6.398L29.463,-0.476C29.463,-0.317 29.414,-0.187 29.316,-0.084C29.218,0.019 29.08,0.07 28.903,0.07C28.735,0.07 28.602,0.021 28.504,-0.077C28.406,-0.175 28.357,-0.303 28.357,-0.462L28.357,-1.162C28.142,-0.751 27.841,-0.439 27.454,-0.224C27.066,-0.009 26.63,0.098 26.145,0.098C25.333,0.098 24.721,-0.128 24.311,-0.581C23.9,-1.034 23.695,-1.703 23.695,-2.59L23.695,-6.398C23.695,-6.566 23.746,-6.701 23.849,-6.804C23.951,-6.907 24.091,-6.958 24.269,-6.958C24.446,-6.958 24.584,-6.907 24.682,-6.804C24.78,-6.701 24.829,-6.566 24.829,-6.398L24.829,-2.618C24.829,-2.011 24.95,-1.566 25.193,-1.281C25.435,-0.996 25.818,-0.854 26.341,-0.854C26.938,-0.854 27.419,-1.048 27.783,-1.435C28.147,-1.822 28.329,-2.333 28.329,-2.968L28.329,-6.398C28.329,-6.566 28.38,-6.701 28.483,-6.804C28.585,-6.907 28.725,-6.958 28.903,-6.958C29.08,-6.958 29.218,-6.907 29.316,-6.804Z" style="fill-rule:nonzero;"/>
                    <path d="M35.522,-6.482C35.522,-6.333 35.48,-6.214 35.396,-6.125C35.312,-6.036 35.168,-5.983 34.962,-5.964L34.542,-5.922C33.917,-5.866 33.453,-5.644 33.149,-5.257C32.846,-4.87 32.694,-4.415 32.694,-3.892L32.694,-0.49C32.694,-0.303 32.643,-0.163 32.54,-0.07C32.438,0.023 32.302,0.07 32.134,0.07C31.966,0.07 31.829,0.021 31.721,-0.077C31.614,-0.175 31.56,-0.313 31.56,-0.49L31.56,-6.398C31.56,-6.575 31.616,-6.713 31.728,-6.811C31.84,-6.909 31.976,-6.958 32.134,-6.958C32.284,-6.958 32.41,-6.909 32.512,-6.811C32.615,-6.713 32.666,-6.58 32.666,-6.412L32.666,-5.628C32.862,-6.039 33.14,-6.351 33.499,-6.566C33.859,-6.781 34.272,-6.907 34.738,-6.944L34.934,-6.958C35.326,-6.986 35.522,-6.827 35.522,-6.482Z" style="fill-rule:nonzero;"/>
                    <path d="M41.89,-1.456C41.965,-1.372 42.002,-1.265 42.002,-1.134C42.002,-0.901 41.839,-0.686 41.512,-0.49C41.176,-0.294 40.821,-0.147 40.448,-0.049C40.075,0.049 39.711,0.098 39.356,0.098C38.301,0.098 37.468,-0.215 36.857,-0.84C36.246,-1.465 35.94,-2.329 35.94,-3.43C35.94,-4.13 36.075,-4.748 36.346,-5.285C36.617,-5.822 36.997,-6.239 37.487,-6.538C37.977,-6.837 38.535,-6.986 39.16,-6.986C40.047,-6.986 40.751,-6.697 41.274,-6.118C41.797,-5.539 42.058,-4.755 42.058,-3.766C42.058,-3.579 42.021,-3.444 41.946,-3.36C41.871,-3.276 41.75,-3.234 41.582,-3.234L37.074,-3.234C37.158,-1.629 37.919,-0.826 39.356,-0.826C39.72,-0.826 40.033,-0.875 40.294,-0.973C40.555,-1.071 40.835,-1.204 41.134,-1.372C41.377,-1.512 41.54,-1.582 41.624,-1.582C41.727,-1.582 41.815,-1.54 41.89,-1.456ZM37.739,-5.544C37.38,-5.171 37.167,-4.643 37.102,-3.962L41.064,-3.962C41.045,-4.653 40.873,-5.182 40.546,-5.551C40.219,-5.92 39.762,-6.104 39.174,-6.104C38.577,-6.104 38.098,-5.917 37.739,-5.544Z" style="fill-rule:nonzero;"/>
                    <path d="M49.601,-9.786C49.704,-9.683 49.755,-9.553 49.755,-9.394L49.755,-0.49C49.755,-0.322 49.704,-0.187 49.601,-0.084C49.499,0.019 49.359,0.07 49.181,0.07C49.004,0.07 48.866,0.019 48.768,-0.084C48.67,-0.187 48.621,-0.322 48.621,-0.49L48.621,-1.246C48.416,-0.817 48.115,-0.485 47.718,-0.252C47.322,-0.019 46.857,0.098 46.325,0.098C45.728,0.098 45.201,-0.051 44.743,-0.35C44.286,-0.649 43.931,-1.066 43.679,-1.603C43.427,-2.14 43.301,-2.763 43.301,-3.472C43.301,-4.172 43.427,-4.788 43.679,-5.32C43.931,-5.852 44.286,-6.263 44.743,-6.552C45.201,-6.841 45.728,-6.986 46.325,-6.986C46.857,-6.986 47.322,-6.869 47.718,-6.636C48.115,-6.403 48.416,-6.071 48.621,-5.642L48.621,-9.394C48.621,-9.562 48.67,-9.695 48.768,-9.793C48.866,-9.891 49.004,-9.94 49.181,-9.94C49.359,-9.94 49.499,-9.889 49.601,-9.786ZM48.082,-1.519C48.442,-1.972 48.621,-2.613 48.621,-3.444C48.621,-4.275 48.442,-4.914 48.082,-5.362C47.723,-5.81 47.212,-6.034 46.549,-6.034C45.887,-6.034 45.371,-5.81 45.002,-5.362C44.634,-4.914 44.449,-4.284 44.449,-3.472C44.449,-2.641 44.634,-1.995 45.002,-1.533C45.371,-1.071 45.887,-0.84 46.549,-0.84C47.212,-0.84 47.723,-1.066 48.082,-1.519Z" style="fill-rule:nonzero;"/>
                    <path d="M59.075,-0.378C59.075,-0.219 59.016,-0.1 58.9,-0.021C58.783,0.058 58.608,0.089 58.375,0.07L57.997,0.042C57.25,-0.014 56.699,-0.238 56.345,-0.63C55.99,-1.022 55.813,-1.615 55.813,-2.408L55.813,-5.922L54.875,-5.922C54.716,-5.922 54.592,-5.962 54.504,-6.041C54.415,-6.12 54.371,-6.225 54.371,-6.356C54.371,-6.496 54.415,-6.608 54.504,-6.692C54.592,-6.776 54.716,-6.818 54.875,-6.818L55.813,-6.818L55.813,-8.4C55.813,-8.577 55.864,-8.715 55.967,-8.813C56.069,-8.911 56.209,-8.96 56.387,-8.96C56.555,-8.96 56.69,-8.911 56.793,-8.813C56.895,-8.715 56.947,-8.577 56.947,-8.4L56.947,-6.818L58.501,-6.818C58.65,-6.818 58.769,-6.776 58.858,-6.692C58.946,-6.608 58.991,-6.496 58.991,-6.356C58.991,-6.225 58.946,-6.12 58.858,-6.041C58.769,-5.962 58.65,-5.922 58.501,-5.922L56.947,-5.922L56.947,-2.352C56.947,-1.839 57.052,-1.468 57.262,-1.239C57.472,-1.01 57.787,-0.882 58.207,-0.854L58.585,-0.826C58.911,-0.798 59.075,-0.649 59.075,-0.378Z" style="fill-rule:nonzero;"/>
                    <path d="M64.14,-6.482C64.14,-6.333 64.098,-6.214 64.014,-6.125C63.93,-6.036 63.785,-5.983 63.58,-5.964L63.16,-5.922C62.535,-5.866 62.07,-5.644 61.767,-5.257C61.464,-4.87 61.312,-4.415 61.312,-3.892L61.312,-0.49C61.312,-0.303 61.261,-0.163 61.158,-0.07C61.055,0.023 60.92,0.07 60.752,0.07C60.584,0.07 60.446,0.021 60.339,-0.077C60.232,-0.175 60.178,-0.313 60.178,-0.49L60.178,-6.398C60.178,-6.575 60.234,-6.713 60.346,-6.811C60.458,-6.909 60.593,-6.958 60.752,-6.958C60.901,-6.958 61.027,-6.909 61.13,-6.811C61.233,-6.713 61.284,-6.58 61.284,-6.412L61.284,-5.628C61.48,-6.039 61.758,-6.351 62.117,-6.566C62.476,-6.781 62.889,-6.907 63.356,-6.944L63.552,-6.958C63.944,-6.986 64.14,-6.827 64.14,-6.482Z" style="fill-rule:nonzero;"/>
                    <path d="M70.396,-4.298L70.396,-0.49C70.396,-0.322 70.347,-0.187 70.249,-0.084C70.151,0.019 70.018,0.07 69.85,0.07C69.682,0.07 69.546,0.019 69.444,-0.084C69.341,-0.187 69.29,-0.322 69.29,-0.49L69.29,-1.162C69.112,-0.761 68.842,-0.45 68.478,-0.231C68.114,-0.012 67.694,0.098 67.218,0.098C66.779,0.098 66.375,0.009 66.007,-0.168C65.638,-0.345 65.346,-0.593 65.132,-0.91C64.917,-1.227 64.81,-1.577 64.81,-1.96C64.81,-2.473 64.94,-2.872 65.202,-3.157C65.463,-3.442 65.892,-3.647 66.49,-3.773C67.087,-3.899 67.918,-3.962 68.982,-3.962L69.29,-3.962L69.29,-4.424C69.29,-4.984 69.175,-5.395 68.947,-5.656C68.718,-5.917 68.347,-6.048 67.834,-6.048C67.199,-6.048 66.555,-5.875 65.902,-5.53C65.65,-5.371 65.472,-5.292 65.37,-5.292C65.258,-5.292 65.164,-5.334 65.09,-5.418C65.015,-5.502 64.978,-5.609 64.978,-5.74C64.978,-5.871 65.017,-5.985 65.097,-6.083C65.176,-6.181 65.304,-6.281 65.482,-6.384C65.808,-6.571 66.179,-6.718 66.595,-6.825C67.01,-6.932 67.423,-6.986 67.834,-6.986C69.542,-6.986 70.396,-6.09 70.396,-4.298ZM68.751,-1.365C69.11,-1.743 69.29,-2.231 69.29,-2.828L69.29,-3.234L69.038,-3.234C68.216,-3.234 67.591,-3.199 67.162,-3.129C66.732,-3.059 66.427,-2.942 66.245,-2.779C66.063,-2.616 65.972,-2.375 65.972,-2.058C65.972,-1.694 66.105,-1.393 66.371,-1.155C66.637,-0.917 66.97,-0.798 67.372,-0.798C67.932,-0.798 68.391,-0.987 68.751,-1.365Z" style="fill-rule:nonzero;"/>
                    <path d="M74.341,-8.505C74.089,-8.23 73.963,-7.817 73.963,-7.266L73.963,-6.818L75.517,-6.818C75.676,-6.818 75.797,-6.776 75.881,-6.692C75.965,-6.608 76.007,-6.496 76.007,-6.356C76.007,-6.216 75.965,-6.109 75.881,-6.034C75.797,-5.959 75.676,-5.922 75.517,-5.922L73.963,-5.922L73.963,-0.49C73.963,-0.313 73.91,-0.175 73.802,-0.077C73.695,0.021 73.562,0.07 73.403,0.07C73.235,0.07 73.098,0.021 72.99,-0.077C72.883,-0.175 72.829,-0.313 72.829,-0.49L72.829,-5.922L71.891,-5.922C71.733,-5.922 71.609,-5.962 71.52,-6.041C71.432,-6.12 71.387,-6.225 71.387,-6.356C71.387,-6.496 71.432,-6.608 71.52,-6.692C71.609,-6.776 71.733,-6.818 71.891,-6.818L72.829,-6.818L72.829,-7.07C72.829,-7.91 73.039,-8.57 73.459,-9.051C73.879,-9.532 74.481,-9.8 75.265,-9.856L75.629,-9.884C75.872,-9.903 76.047,-9.879 76.154,-9.814C76.262,-9.749 76.315,-9.632 76.315,-9.464C76.315,-9.193 76.152,-9.039 75.825,-9.002L75.461,-8.974C74.967,-8.937 74.593,-8.78 74.341,-8.505Z" style="fill-rule:nonzero;"/>
                    <path d="M82.613,-6.692C82.697,-6.608 82.739,-6.496 82.739,-6.356L82.739,-0.49C82.739,-0.313 82.685,-0.175 82.578,-0.077C82.471,0.021 82.338,0.07 82.179,0.07C82.011,0.07 81.873,0.021 81.766,-0.077C81.659,-0.175 81.605,-0.313 81.605,-0.49L81.605,-5.922L78.539,-5.922L78.539,-0.49C78.539,-0.313 78.485,-0.175 78.378,-0.077C78.271,0.021 78.138,0.07 77.979,0.07C77.811,0.07 77.673,0.021 77.566,-0.077C77.459,-0.175 77.405,-0.313 77.405,-0.49L77.405,-5.922L76.467,-5.922C76.308,-5.922 76.185,-5.962 76.096,-6.041C76.007,-6.12 75.963,-6.225 75.963,-6.356C75.963,-6.496 76.007,-6.608 76.096,-6.692C76.185,-6.776 76.308,-6.818 76.467,-6.818L77.405,-6.818L77.405,-7.056C77.405,-7.896 77.615,-8.556 78.035,-9.037C78.455,-9.518 79.057,-9.791 79.841,-9.856L80.177,-9.884C80.625,-9.921 80.849,-9.781 80.849,-9.464C80.849,-9.193 80.69,-9.039 80.373,-9.002L80.037,-8.974C79.542,-8.937 79.169,-8.78 78.917,-8.505C78.665,-8.23 78.539,-7.817 78.539,-7.266L78.539,-6.818L82.249,-6.818C82.408,-6.818 82.529,-6.776 82.613,-6.692ZM82.718,-9.646C82.863,-9.515 82.935,-9.347 82.935,-9.142C82.935,-8.927 82.865,-8.755 82.725,-8.624C82.585,-8.493 82.403,-8.428 82.179,-8.428C81.955,-8.428 81.773,-8.493 81.633,-8.624C81.493,-8.755 81.423,-8.927 81.423,-9.142C81.423,-9.347 81.493,-9.515 81.633,-9.646C81.773,-9.777 81.955,-9.842 82.179,-9.842C82.394,-9.842 82.573,-9.777 82.718,-9.646Z" style="fill-rule:nonzero;"/>
                    <path d="M85.963,-0.336C85.473,-0.625 85.095,-1.036 84.829,-1.568C84.563,-2.1 84.43,-2.716 84.43,-3.416C84.43,-4.116 84.568,-4.737 84.843,-5.278C85.119,-5.819 85.504,-6.239 85.998,-6.538C86.493,-6.837 87.062,-6.986 87.706,-6.986C88.061,-6.986 88.413,-6.937 88.763,-6.839C89.113,-6.741 89.419,-6.599 89.68,-6.412C89.848,-6.3 89.967,-6.19 90.037,-6.083C90.107,-5.976 90.142,-5.857 90.142,-5.726C90.142,-5.595 90.107,-5.488 90.037,-5.404C89.967,-5.32 89.876,-5.278 89.764,-5.278C89.699,-5.278 89.629,-5.297 89.554,-5.334C89.48,-5.371 89.417,-5.409 89.365,-5.446C89.314,-5.483 89.279,-5.507 89.26,-5.516C89.018,-5.675 88.787,-5.801 88.567,-5.894C88.348,-5.987 88.08,-6.034 87.762,-6.034C87.081,-6.034 86.551,-5.803 86.173,-5.341C85.795,-4.879 85.606,-4.237 85.606,-3.416C85.606,-2.595 85.795,-1.96 86.173,-1.512C86.551,-1.064 87.081,-0.84 87.762,-0.84C88.08,-0.84 88.353,-0.887 88.581,-0.98C88.81,-1.073 89.041,-1.199 89.274,-1.358C89.377,-1.423 89.475,-1.479 89.568,-1.526C89.662,-1.573 89.741,-1.596 89.806,-1.596C89.909,-1.596 89.995,-1.554 90.065,-1.47C90.135,-1.386 90.17,-1.279 90.17,-1.148C90.17,-1.027 90.138,-0.917 90.072,-0.819C90.007,-0.721 89.886,-0.611 89.708,-0.49C89.447,-0.313 89.132,-0.17 88.763,-0.063C88.395,0.044 88.024,0.098 87.65,0.098C87.016,0.098 86.453,-0.047 85.963,-0.336Z" style="fill-rule:nonzero;"/>
                    <path d="M98.762,-0.378C98.762,-0.219 98.703,-0.1 98.587,-0.021C98.47,0.058 98.295,0.089 98.062,0.07L97.684,0.042C96.937,-0.014 96.386,-0.238 96.032,-0.63C95.677,-1.022 95.5,-1.615 95.5,-2.408L95.5,-5.922L94.562,-5.922C94.403,-5.922 94.279,-5.962 94.191,-6.041C94.102,-6.12 94.058,-6.225 94.058,-6.356C94.058,-6.496 94.102,-6.608 94.191,-6.692C94.279,-6.776 94.403,-6.818 94.562,-6.818L95.5,-6.818L95.5,-8.4C95.5,-8.577 95.551,-8.715 95.654,-8.813C95.756,-8.911 95.896,-8.96 96.074,-8.96C96.242,-8.96 96.377,-8.911 96.48,-8.813C96.582,-8.715 96.634,-8.577 96.634,-8.4L96.634,-6.818L98.188,-6.818C98.337,-6.818 98.456,-6.776 98.545,-6.692C98.633,-6.608 98.678,-6.496 98.678,-6.356C98.678,-6.225 98.633,-6.12 98.545,-6.041C98.456,-5.962 98.337,-5.922 98.188,-5.922L96.634,-5.922L96.634,-2.352C96.634,-1.839 96.739,-1.468 96.949,-1.239C97.159,-1.01 97.474,-0.882 97.894,-0.854L98.272,-0.826C98.598,-0.798 98.762,-0.649 98.762,-0.378Z" style="fill-rule:nonzero;"/>
                    <path d="M100.992,-0.336C100.502,-0.625 100.124,-1.038 99.858,-1.575C99.592,-2.112 99.459,-2.735 99.459,-3.444C99.459,-4.153 99.592,-4.776 99.858,-5.313C100.124,-5.85 100.502,-6.263 100.992,-6.552C101.482,-6.841 102.049,-6.986 102.693,-6.986C103.337,-6.986 103.907,-6.841 104.401,-6.552C104.896,-6.263 105.276,-5.85 105.542,-5.313C105.808,-4.776 105.941,-4.153 105.941,-3.444C105.941,-2.735 105.808,-2.112 105.542,-1.575C105.276,-1.038 104.896,-0.625 104.401,-0.336C103.907,-0.047 103.337,0.098 102.693,0.098C102.049,0.098 101.482,-0.047 100.992,-0.336ZM104.24,-1.505C104.6,-1.948 104.779,-2.595 104.779,-3.444C104.779,-4.275 104.597,-4.916 104.233,-5.369C103.869,-5.822 103.356,-6.048 102.693,-6.048C102.031,-6.048 101.517,-5.822 101.153,-5.369C100.789,-4.916 100.607,-4.275 100.607,-3.444C100.607,-2.604 100.787,-1.96 101.146,-1.512C101.506,-1.064 102.021,-0.84 102.693,-0.84C103.365,-0.84 103.881,-1.062 104.24,-1.505Z" style="fill-rule:nonzero;"/>
                </g>
                <g transform="matrix(1,0,0,1,447.68,709.88)">
                    <path d="M2.177,-0.336C1.687,-0.625 1.309,-1.036 1.043,-1.568C0.777,-2.1 0.644,-2.716 0.644,-3.416C0.644,-4.116 0.782,-4.737 1.057,-5.278C1.332,-5.819 1.717,-6.239 2.212,-6.538C2.707,-6.837 3.276,-6.986 3.92,-6.986C4.275,-6.986 4.627,-6.937 4.977,-6.839C5.327,-6.741 5.633,-6.599 5.894,-6.412C6.062,-6.3 6.181,-6.19 6.251,-6.083C6.321,-5.976 6.356,-5.857 6.356,-5.726C6.356,-5.595 6.321,-5.488 6.251,-5.404C6.181,-5.32 6.09,-5.278 5.978,-5.278C5.913,-5.278 5.843,-5.297 5.768,-5.334C5.693,-5.371 5.63,-5.409 5.579,-5.446C5.528,-5.483 5.493,-5.507 5.474,-5.516C5.231,-5.675 5,-5.801 4.781,-5.894C4.562,-5.987 4.293,-6.034 3.976,-6.034C3.295,-6.034 2.765,-5.803 2.387,-5.341C2.009,-4.879 1.82,-4.237 1.82,-3.416C1.82,-2.595 2.009,-1.96 2.387,-1.512C2.765,-1.064 3.295,-0.84 3.976,-0.84C4.293,-0.84 4.566,-0.887 4.795,-0.98C5.024,-1.073 5.255,-1.199 5.488,-1.358C5.591,-1.423 5.689,-1.479 5.782,-1.526C5.875,-1.573 5.955,-1.596 6.02,-1.596C6.123,-1.596 6.209,-1.554 6.279,-1.47C6.349,-1.386 6.384,-1.279 6.384,-1.148C6.384,-1.027 6.351,-0.917 6.286,-0.819C6.221,-0.721 6.099,-0.611 5.922,-0.49C5.661,-0.313 5.346,-0.17 4.977,-0.063C4.608,0.044 4.237,0.098 3.864,0.098C3.229,0.098 2.667,-0.047 2.177,-0.336Z" style="fill-rule:nonzero;"/>
                    <path d="M13.284,-1.456C13.358,-1.372 13.396,-1.265 13.396,-1.134C13.396,-0.901 13.232,-0.686 12.906,-0.49C12.57,-0.294 12.215,-0.147 11.842,-0.049C11.468,0.049 11.104,0.098 10.75,0.098C9.695,0.098 8.862,-0.215 8.251,-0.84C7.639,-1.465 7.334,-2.329 7.334,-3.43C7.334,-4.13 7.469,-4.748 7.74,-5.285C8.01,-5.822 8.391,-6.239 8.881,-6.538C9.371,-6.837 9.928,-6.986 10.554,-6.986C11.44,-6.986 12.145,-6.697 12.668,-6.118C13.19,-5.539 13.452,-4.755 13.452,-3.766C13.452,-3.579 13.414,-3.444 13.34,-3.36C13.265,-3.276 13.144,-3.234 12.976,-3.234L8.468,-3.234C8.552,-1.629 9.312,-0.826 10.75,-0.826C11.114,-0.826 11.426,-0.875 11.688,-0.973C11.949,-1.071 12.229,-1.204 12.528,-1.372C12.77,-1.512 12.934,-1.582 13.018,-1.582C13.12,-1.582 13.209,-1.54 13.284,-1.456ZM9.133,-5.544C8.773,-5.171 8.561,-4.643 8.496,-3.962L12.458,-3.962C12.439,-4.653 12.266,-5.182 11.94,-5.551C11.613,-5.92 11.156,-6.104 10.568,-6.104C9.97,-6.104 9.492,-5.917 9.133,-5.544Z" style="fill-rule:nonzero;"/>
                    <path d="M20.981,-4.284L20.981,-0.49C20.981,-0.313 20.932,-0.175 20.834,-0.077C20.736,0.021 20.598,0.07 20.421,0.07C20.244,0.07 20.104,0.021 20.001,-0.077C19.898,-0.175 19.847,-0.313 19.847,-0.49L19.847,-4.214C19.847,-4.849 19.723,-5.311 19.476,-5.6C19.229,-5.889 18.834,-6.034 18.293,-6.034C17.668,-6.034 17.168,-5.843 16.795,-5.46C16.422,-5.077 16.235,-4.559 16.235,-3.906L16.235,-0.49C16.235,-0.313 16.186,-0.175 16.088,-0.077C15.99,0.021 15.852,0.07 15.675,0.07C15.498,0.07 15.358,0.021 15.255,-0.077C15.152,-0.175 15.101,-0.313 15.101,-0.49L15.101,-6.398C15.101,-6.566 15.152,-6.701 15.255,-6.804C15.358,-6.907 15.498,-6.958 15.675,-6.958C15.843,-6.958 15.976,-6.907 16.074,-6.804C16.172,-6.701 16.221,-6.571 16.221,-6.412L16.221,-5.698C16.445,-6.118 16.758,-6.438 17.159,-6.657C17.56,-6.876 18.018,-6.986 18.531,-6.986C20.164,-6.986 20.981,-6.085 20.981,-4.284Z" style="fill-rule:nonzero;"/>
                    <path d="M26.677,-0.378C26.677,-0.219 26.618,-0.1 26.502,-0.021C26.385,0.058 26.21,0.089 25.977,0.07L25.599,0.042C24.852,-0.014 24.301,-0.238 23.947,-0.63C23.592,-1.022 23.415,-1.615 23.415,-2.408L23.415,-5.922L22.477,-5.922C22.318,-5.922 22.194,-5.962 22.106,-6.041C22.017,-6.12 21.973,-6.225 21.973,-6.356C21.973,-6.496 22.017,-6.608 22.106,-6.692C22.194,-6.776 22.318,-6.818 22.477,-6.818L23.415,-6.818L23.415,-8.4C23.415,-8.577 23.466,-8.715 23.569,-8.813C23.671,-8.911 23.811,-8.96 23.989,-8.96C24.157,-8.96 24.292,-8.911 24.395,-8.813C24.497,-8.715 24.549,-8.577 24.549,-8.4L24.549,-6.818L26.103,-6.818C26.252,-6.818 26.371,-6.776 26.46,-6.692C26.548,-6.608 26.593,-6.496 26.593,-6.356C26.593,-6.225 26.548,-6.12 26.46,-6.041C26.371,-5.962 26.252,-5.922 26.103,-5.922L24.549,-5.922L24.549,-2.352C24.549,-1.839 24.654,-1.468 24.864,-1.239C25.074,-1.01 25.389,-0.882 25.809,-0.854L26.187,-0.826C26.513,-0.798 26.677,-0.649 26.677,-0.378Z" style="fill-rule:nonzero;"/>
                    <path d="M31.742,-6.482C31.742,-6.333 31.7,-6.214 31.616,-6.125C31.532,-6.036 31.388,-5.983 31.182,-5.964L30.762,-5.922C30.137,-5.866 29.673,-5.644 29.369,-5.257C29.066,-4.87 28.914,-4.415 28.914,-3.892L28.914,-0.49C28.914,-0.303 28.863,-0.163 28.76,-0.07C28.658,0.023 28.522,0.07 28.354,0.07C28.186,0.07 28.049,0.021 27.941,-0.077C27.834,-0.175 27.78,-0.313 27.78,-0.49L27.78,-6.398C27.78,-6.575 27.836,-6.713 27.948,-6.811C28.06,-6.909 28.196,-6.958 28.354,-6.958C28.504,-6.958 28.63,-6.909 28.732,-6.811C28.835,-6.713 28.886,-6.58 28.886,-6.412L28.886,-5.628C29.082,-6.039 29.36,-6.351 29.719,-6.566C30.079,-6.781 30.492,-6.907 30.958,-6.944L31.154,-6.958C31.546,-6.986 31.742,-6.827 31.742,-6.482Z" style="fill-rule:nonzero;"/>
                    <path d="M37.998,-4.298L37.998,-0.49C37.998,-0.322 37.949,-0.187 37.851,-0.084C37.753,0.019 37.62,0.07 37.452,0.07C37.284,0.07 37.149,0.019 37.046,-0.084C36.943,-0.187 36.892,-0.322 36.892,-0.49L36.892,-1.162C36.715,-0.761 36.444,-0.45 36.08,-0.231C35.716,-0.012 35.296,0.098 34.82,0.098C34.381,0.098 33.978,0.009 33.609,-0.168C33.24,-0.345 32.949,-0.593 32.734,-0.91C32.519,-1.227 32.412,-1.577 32.412,-1.96C32.412,-2.473 32.543,-2.872 32.804,-3.157C33.065,-3.442 33.495,-3.647 34.092,-3.773C34.689,-3.899 35.52,-3.962 36.584,-3.962L36.892,-3.962L36.892,-4.424C36.892,-4.984 36.778,-5.395 36.549,-5.656C36.32,-5.917 35.949,-6.048 35.436,-6.048C34.801,-6.048 34.157,-5.875 33.504,-5.53C33.252,-5.371 33.075,-5.292 32.972,-5.292C32.86,-5.292 32.767,-5.334 32.692,-5.418C32.617,-5.502 32.58,-5.609 32.58,-5.74C32.58,-5.871 32.62,-5.985 32.699,-6.083C32.778,-6.181 32.907,-6.281 33.084,-6.384C33.411,-6.571 33.782,-6.718 34.197,-6.825C34.612,-6.932 35.025,-6.986 35.436,-6.986C37.144,-6.986 37.998,-6.09 37.998,-4.298ZM36.353,-1.365C36.712,-1.743 36.892,-2.231 36.892,-2.828L36.892,-3.234L36.64,-3.234C35.819,-3.234 35.193,-3.199 34.764,-3.129C34.335,-3.059 34.029,-2.942 33.847,-2.779C33.665,-2.616 33.574,-2.375 33.574,-2.058C33.574,-1.694 33.707,-1.393 33.973,-1.155C34.239,-0.917 34.573,-0.798 34.974,-0.798C35.534,-0.798 35.994,-0.987 36.353,-1.365Z" style="fill-rule:nonzero;"/>
                    <path d="M40.214,-0.077C40.107,-0.175 40.053,-0.313 40.053,-0.49L40.053,-9.38C40.053,-9.557 40.107,-9.695 40.214,-9.793C40.322,-9.891 40.459,-9.94 40.627,-9.94C40.786,-9.94 40.919,-9.891 41.026,-9.793C41.134,-9.695 41.187,-9.557 41.187,-9.38L41.187,-0.49C41.187,-0.313 41.134,-0.175 41.026,-0.077C40.919,0.021 40.786,0.07 40.627,0.07C40.459,0.07 40.322,0.021 40.214,-0.077Z" style="fill-rule:nonzero;"/>
                    <path d="M47.952,-0.056C47.564,-0.159 47.221,-0.303 46.923,-0.49C46.755,-0.602 46.636,-0.707 46.566,-0.805C46.496,-0.903 46.461,-1.022 46.461,-1.162C46.461,-1.283 46.496,-1.384 46.566,-1.463C46.636,-1.542 46.727,-1.582 46.839,-1.582C46.951,-1.582 47.114,-1.512 47.329,-1.372C47.609,-1.204 47.886,-1.071 48.162,-0.973C48.437,-0.875 48.78,-0.826 49.191,-0.826C49.695,-0.826 50.087,-0.915 50.367,-1.092C50.647,-1.269 50.787,-1.526 50.787,-1.862C50.787,-2.067 50.735,-2.233 50.633,-2.359C50.53,-2.485 50.353,-2.597 50.101,-2.695C49.849,-2.793 49.48,-2.893 48.995,-2.996C48.173,-3.173 47.585,-3.411 47.231,-3.71C46.876,-4.009 46.699,-4.415 46.699,-4.928C46.699,-5.329 46.811,-5.684 47.035,-5.992C47.259,-6.3 47.569,-6.543 47.966,-6.72C48.362,-6.897 48.813,-6.986 49.317,-6.986C49.681,-6.986 50.033,-6.937 50.374,-6.839C50.714,-6.741 51.015,-6.603 51.277,-6.426C51.594,-6.202 51.753,-5.969 51.753,-5.726C51.753,-5.605 51.715,-5.502 51.641,-5.418C51.566,-5.334 51.477,-5.292 51.375,-5.292C51.263,-5.292 51.095,-5.371 50.871,-5.53C50.609,-5.698 50.362,-5.829 50.129,-5.922C49.895,-6.015 49.606,-6.062 49.261,-6.062C48.822,-6.062 48.47,-5.964 48.204,-5.768C47.938,-5.572 47.805,-5.311 47.805,-4.984C47.805,-4.779 47.854,-4.613 47.952,-4.487C48.05,-4.361 48.213,-4.249 48.442,-4.151C48.67,-4.053 48.999,-3.957 49.429,-3.864C50.063,-3.724 50.556,-3.57 50.906,-3.402C51.256,-3.234 51.505,-3.029 51.655,-2.786C51.804,-2.543 51.879,-2.235 51.879,-1.862C51.879,-1.274 51.631,-0.8 51.137,-0.441C50.642,-0.082 49.989,0.098 49.177,0.098C48.747,0.098 48.339,0.047 47.952,-0.056Z" style="fill-rule:nonzero;"/>
                    <path d="M53.745,-0.077C53.638,-0.175 53.584,-0.313 53.584,-0.49L53.584,-6.398C53.584,-6.575 53.638,-6.713 53.745,-6.811C53.852,-6.909 53.99,-6.958 54.158,-6.958C54.326,-6.958 54.461,-6.909 54.564,-6.811C54.667,-6.713 54.718,-6.575 54.718,-6.398L54.718,-0.49C54.718,-0.303 54.667,-0.163 54.564,-0.07C54.461,0.023 54.326,0.07 54.158,0.07C53.99,0.07 53.852,0.021 53.745,-0.077ZM53.612,-8.624C53.472,-8.755 53.402,-8.927 53.402,-9.142C53.402,-9.347 53.472,-9.515 53.612,-9.646C53.752,-9.777 53.934,-9.842 54.158,-9.842C54.382,-9.842 54.564,-9.777 54.704,-9.646C54.844,-9.515 54.914,-9.347 54.914,-9.142C54.914,-8.927 54.844,-8.755 54.704,-8.624C54.564,-8.493 54.382,-8.428 54.158,-8.428C53.934,-8.428 53.752,-8.493 53.612,-8.624Z" style="fill-rule:nonzero;"/>
                    <path d="M60.456,-0.378C60.456,-0.219 60.397,-0.1 60.281,-0.021C60.164,0.058 59.989,0.089 59.756,0.07L59.378,0.042C58.631,-0.014 58.08,-0.238 57.726,-0.63C57.371,-1.022 57.194,-1.615 57.194,-2.408L57.194,-5.922L56.256,-5.922C56.097,-5.922 55.973,-5.962 55.885,-6.041C55.796,-6.12 55.752,-6.225 55.752,-6.356C55.752,-6.496 55.796,-6.608 55.885,-6.692C55.973,-6.776 56.097,-6.818 56.256,-6.818L57.194,-6.818L57.194,-8.4C57.194,-8.577 57.245,-8.715 57.348,-8.813C57.45,-8.911 57.59,-8.96 57.768,-8.96C57.936,-8.96 58.071,-8.911 58.174,-8.813C58.276,-8.715 58.328,-8.577 58.328,-8.4L58.328,-6.818L59.882,-6.818C60.031,-6.818 60.15,-6.776 60.239,-6.692C60.327,-6.608 60.372,-6.496 60.372,-6.356C60.372,-6.225 60.327,-6.12 60.239,-6.041C60.15,-5.962 60.031,-5.922 59.882,-5.922L58.328,-5.922L58.328,-2.352C58.328,-1.839 58.433,-1.468 58.643,-1.239C58.853,-1.01 59.168,-0.882 59.588,-0.854L59.966,-0.826C60.292,-0.798 60.456,-0.649 60.456,-0.378Z" style="fill-rule:nonzero;"/>
                    <path d="M67.103,-1.456C67.178,-1.372 67.215,-1.265 67.215,-1.134C67.215,-0.901 67.052,-0.686 66.725,-0.49C66.389,-0.294 66.035,-0.147 65.661,-0.049C65.288,0.049 64.924,0.098 64.569,0.098C63.515,0.098 62.682,-0.215 62.07,-0.84C61.459,-1.465 61.153,-2.329 61.153,-3.43C61.153,-4.13 61.289,-4.748 61.559,-5.285C61.83,-5.822 62.21,-6.239 62.7,-6.538C63.19,-6.837 63.748,-6.986 64.373,-6.986C65.26,-6.986 65.965,-6.697 66.487,-6.118C67.01,-5.539 67.271,-4.755 67.271,-3.766C67.271,-3.579 67.234,-3.444 67.159,-3.36C67.085,-3.276 66.963,-3.234 66.795,-3.234L62.287,-3.234C62.371,-1.629 63.132,-0.826 64.569,-0.826C64.933,-0.826 65.246,-0.875 65.507,-0.973C65.769,-1.071 66.049,-1.204 66.347,-1.372C66.59,-1.512 66.753,-1.582 66.837,-1.582C66.94,-1.582 67.029,-1.54 67.103,-1.456ZM62.952,-5.544C62.593,-5.171 62.381,-4.643 62.315,-3.962L66.277,-3.962C66.259,-4.653 66.086,-5.182 65.759,-5.551C65.433,-5.92 64.975,-6.104 64.387,-6.104C63.79,-6.104 63.312,-5.917 62.952,-5.544Z" style="fill-rule:nonzero;"/>
                </g>
            </g>
        </g>
    </g>
</svg>
