<?xml version="1.0" encoding="UTF-8" standalone="no"?>
<!DOCTYPE svg PUBLIC "-//W3C//DTD SVG 1.1//EN" "http://www.w3.org/Graphics/SVG/1.1/DTD/svg11.dtd">
<svg width="100%" height="100%" viewBox="0 0 31 11" version="1.1" xmlns="http://www.w3.org/2000/svg" xmlns:xlink="http://www.w3.org/1999/xlink" xml:space="preserve" xmlns:serif="http://www.serif.com/" style="fill-rule:evenodd;clip-rule:evenodd;stroke-linejoin:round;stroke-miterlimit:1.41421;">
    <g transform="matrix(1,0,0,1,-1044,-490)">
        <g transform="matrix(1,0,0,1,0,-7)">
            <g transform="matrix(1,0,0,1,1043.79,507)">
                <path d="M2.217,-0.169C1.623,-0.351 1.148,-0.602 0.793,-0.923C0.628,-1.062 0.546,-1.239 0.546,-1.456C0.546,-1.612 0.589,-1.744 0.676,-1.853C0.763,-1.961 0.867,-2.015 0.988,-2.015C1.109,-2.015 1.257,-1.959 1.43,-1.846C2.201,-1.274 3.081,-0.988 4.069,-0.988C4.762,-0.988 5.295,-1.118 5.668,-1.378C6.041,-1.638 6.227,-2.011 6.227,-2.496C6.227,-2.877 6.054,-3.163 5.707,-3.354C5.36,-3.545 4.806,-3.727 4.043,-3.9C3.315,-4.056 2.717,-4.234 2.249,-4.433C1.781,-4.632 1.415,-4.903 1.15,-5.246C0.886,-5.588 0.754,-6.023 0.754,-6.552C0.754,-7.081 0.899,-7.551 1.19,-7.963C1.48,-8.374 1.885,-8.695 2.405,-8.925C2.925,-9.154 3.519,-9.269 4.186,-9.269C4.801,-9.269 5.369,-9.182 5.889,-9.009C6.409,-8.836 6.851,-8.58 7.215,-8.242C7.388,-8.095 7.475,-7.917 7.475,-7.709C7.475,-7.562 7.43,-7.432 7.339,-7.319C7.247,-7.206 7.141,-7.15 7.02,-7.15C6.907,-7.15 6.764,-7.206 6.591,-7.319C6.192,-7.622 5.818,-7.841 5.467,-7.976C5.115,-8.11 4.693,-8.177 4.199,-8.177C3.532,-8.177 3.012,-8.041 2.639,-7.768C2.266,-7.495 2.08,-7.115 2.08,-6.63C2.08,-6.214 2.245,-5.9 2.574,-5.688C2.903,-5.475 3.432,-5.282 4.16,-5.109C4.923,-4.936 5.54,-4.756 6.013,-4.57C6.485,-4.383 6.862,-4.128 7.143,-3.802C7.425,-3.478 7.566,-3.059 7.566,-2.548C7.566,-2.028 7.421,-1.567 7.13,-1.164C6.84,-0.76 6.433,-0.449 5.909,-0.228C5.384,-0.007 4.78,0.104 4.095,0.104C3.436,0.104 2.81,0.013 2.217,-0.169Z" style="fill-rule:nonzero;"/>
                <path d="M13.59,-5.863C14.002,-5.438 14.208,-4.793 14.208,-3.926L14.208,-0.559C14.208,-0.36 14.152,-0.206 14.039,-0.098C13.926,0.011 13.77,0.065 13.571,0.065C13.38,0.065 13.229,0.009 13.116,-0.104C13.003,-0.217 12.947,-0.368 12.947,-0.559L12.947,-1.04C12.782,-0.676 12.537,-0.396 12.212,-0.202C11.887,-0.006 11.508,0.091 11.075,0.091C10.659,0.091 10.278,0.006 9.931,-0.163C9.584,-0.331 9.313,-0.568 9.118,-0.871C8.923,-1.174 8.826,-1.512 8.826,-1.885C8.826,-2.344 8.945,-2.706 9.183,-2.971C9.422,-3.235 9.816,-3.423 10.366,-3.536C10.917,-3.649 11.673,-3.705 12.635,-3.705L12.934,-3.705L12.934,-4.082C12.934,-4.567 12.834,-4.918 12.635,-5.135C12.436,-5.352 12.115,-5.46 11.673,-5.46C11.37,-5.46 11.084,-5.421 10.815,-5.343C10.546,-5.265 10.252,-5.152 9.931,-5.005C9.697,-4.875 9.532,-4.81 9.437,-4.81C9.307,-4.81 9.201,-4.858 9.118,-4.953C9.036,-5.048 8.995,-5.17 8.995,-5.317C8.995,-5.447 9.032,-5.562 9.105,-5.662C9.179,-5.761 9.298,-5.859 9.463,-5.954C9.766,-6.119 10.122,-6.251 10.529,-6.351C10.936,-6.45 11.331,-6.5 11.712,-6.5C12.553,-6.5 13.179,-6.288 13.59,-5.863ZM12.479,-1.372C12.782,-1.697 12.934,-2.115 12.934,-2.626L12.934,-2.964L12.7,-2.964C12.024,-2.964 11.504,-2.934 11.14,-2.873C10.776,-2.812 10.516,-2.71 10.36,-2.568C10.204,-2.425 10.126,-2.219 10.126,-1.95C10.126,-1.638 10.239,-1.382 10.464,-1.183C10.689,-0.984 10.971,-0.884 11.309,-0.884C11.786,-0.884 12.176,-1.047 12.479,-1.372Z" style="fill-rule:nonzero;"/>
                <path d="M16.176,-0.091C16.051,-0.195 15.988,-0.351 15.988,-0.559L15.988,-8.593C15.988,-8.801 16.051,-8.959 16.176,-9.068C16.302,-9.176 16.46,-9.23 16.651,-9.23C16.841,-9.23 16.997,-9.176 17.119,-9.068C17.24,-8.959 17.301,-8.801 17.301,-8.593L17.301,-0.559C17.301,-0.351 17.24,-0.195 17.119,-0.091C16.997,0.013 16.841,0.065 16.651,0.065C16.46,0.065 16.302,0.013 16.176,-0.091Z" style="fill-rule:nonzero;"/>
                <path d="M24.385,-1.456C24.463,-1.361 24.502,-1.239 24.502,-1.092C24.502,-0.841 24.346,-0.628 24.034,-0.455C23.73,-0.282 23.399,-0.147 23.039,-0.052C22.679,0.043 22.335,0.091 22.006,0.091C21,0.091 20.207,-0.202 19.627,-0.787C19.046,-1.372 18.756,-2.171 18.756,-3.185C18.756,-3.835 18.883,-4.411 19.139,-4.914C19.395,-5.417 19.754,-5.807 20.218,-6.084C20.682,-6.361 21.208,-6.5 21.798,-6.5C22.647,-6.5 23.319,-6.227 23.813,-5.681C24.307,-5.135 24.554,-4.398 24.554,-3.471C24.554,-3.124 24.398,-2.951 24.086,-2.951L20.069,-2.951C20.155,-1.608 20.801,-0.936 22.006,-0.936C22.326,-0.936 22.604,-0.979 22.838,-1.066C23.072,-1.153 23.319,-1.265 23.579,-1.404C23.605,-1.421 23.676,-1.458 23.793,-1.515C23.91,-1.571 24.008,-1.599 24.086,-1.599C24.207,-1.599 24.307,-1.551 24.385,-1.456ZM20.615,-5.057C20.311,-4.736 20.129,-4.286 20.069,-3.705L23.423,-3.705C23.397,-4.294 23.247,-4.747 22.974,-5.064C22.701,-5.38 22.318,-5.538 21.824,-5.538C21.321,-5.538 20.918,-5.378 20.615,-5.057Z" style="fill-rule:nonzero;"/>
                <path d="M26.021,-0.455C25.865,-0.55 25.755,-0.65 25.69,-0.754C25.625,-0.858 25.592,-0.975 25.592,-1.105C25.592,-1.244 25.631,-1.361 25.709,-1.456C25.787,-1.551 25.887,-1.599 26.008,-1.599C26.121,-1.599 26.299,-1.53 26.541,-1.391C26.801,-1.252 27.055,-1.14 27.302,-1.053C27.549,-0.966 27.859,-0.923 28.231,-0.923C28.647,-0.923 28.972,-0.997 29.206,-1.144C29.44,-1.291 29.557,-1.499 29.557,-1.768C29.557,-1.941 29.512,-2.08 29.421,-2.184C29.33,-2.288 29.172,-2.381 28.946,-2.463C28.721,-2.546 28.387,-2.635 27.945,-2.73C27.183,-2.895 26.635,-3.118 26.301,-3.4C25.967,-3.681 25.8,-4.065 25.8,-4.55C25.8,-4.923 25.909,-5.259 26.125,-5.558C26.342,-5.857 26.641,-6.088 27.022,-6.253C27.404,-6.418 27.837,-6.5 28.322,-6.5C28.669,-6.5 29.007,-6.455 29.336,-6.364C29.666,-6.273 29.956,-6.14 30.207,-5.967C30.493,-5.776 30.636,-5.555 30.636,-5.304C30.636,-5.165 30.595,-5.048 30.513,-4.953C30.431,-4.858 30.333,-4.81 30.22,-4.81C30.142,-4.81 30.064,-4.827 29.986,-4.862C29.908,-4.897 29.804,-4.953 29.674,-5.031C29.44,-5.17 29.222,-5.278 29.018,-5.356C28.814,-5.434 28.561,-5.473 28.257,-5.473C27.893,-5.473 27.601,-5.395 27.38,-5.239C27.159,-5.083 27.048,-4.871 27.048,-4.602C27.048,-4.359 27.15,-4.171 27.354,-4.037C27.558,-3.902 27.941,-3.774 28.504,-3.653C29.085,-3.532 29.54,-3.393 29.869,-3.237C30.199,-3.081 30.435,-2.888 30.578,-2.659C30.721,-2.429 30.792,-2.136 30.792,-1.781C30.792,-1.218 30.556,-0.765 30.084,-0.423C29.612,-0.08 28.981,0.091 28.192,0.091C27.308,0.091 26.585,-0.091 26.021,-0.455Z" style="fill-rule:nonzero;"/>
            </g>
        </g>
    </g>
</svg>
