<?xml version="1.0" encoding="UTF-8" standalone="no"?>
<!DOCTYPE svg PUBLIC "-//W3C//DTD SVG 1.1//EN" "http://www.w3.org/Graphics/SVG/1.1/DTD/svg11.dtd">
<svg width="100%" height="100%" viewBox="0 0 75 24" version="1.1" xmlns="http://www.w3.org/2000/svg" xmlns:xlink="http://www.w3.org/1999/xlink" xml:space="preserve" xmlns:serif="http://www.serif.com/" style="fill-rule:evenodd;clip-rule:evenodd;stroke-linejoin:round;stroke-miterlimit:1.41421;">
    <g transform="matrix(1,0,0,1,-217,-190)">
        <g transform="matrix(1,0,0,1,0,74.5)">
            <g transform="matrix(1,0,0,1,-5.68773,58.1314)">
                <path d="M234.314,57.746C234.394,57.694 234.482,57.668 234.578,57.668C234.706,57.668 234.816,57.706 234.908,57.782C235,57.858 235.046,57.96 235.046,58.088C235.046,58.144 235.034,58.208 235.01,58.28L232.298,65.924C232.258,66.036 232.19,66.122 232.094,66.182C231.998,66.242 231.89,66.272 231.77,66.272C231.658,66.272 231.554,66.242 231.458,66.182C231.362,66.122 231.294,66.036 231.254,65.924L228.902,59.276L226.526,65.924C226.486,66.036 226.418,66.122 226.322,66.182C226.226,66.242 226.122,66.272 226.01,66.272C225.898,66.272 225.794,66.242 225.698,66.182C225.602,66.122 225.534,66.036 225.494,65.924L222.77,58.28C222.746,58.216 222.734,58.156 222.734,58.1C222.734,57.972 222.784,57.868 222.884,57.788C222.984,57.708 223.098,57.668 223.226,57.668C223.322,57.668 223.412,57.694 223.496,57.746C223.58,57.798 223.638,57.876 223.67,57.98L226.034,64.796L228.434,58.052C228.474,57.932 228.538,57.842 228.626,57.782C228.714,57.722 228.81,57.692 228.914,57.692C229.018,57.692 229.114,57.724 229.202,57.788C229.29,57.852 229.354,57.944 229.394,58.064L231.758,64.82L234.146,57.98C234.178,57.876 234.234,57.798 234.314,57.746Z" style="fill-rule:nonzero;"/>
                <path d="M236.54,66.134C236.448,66.05 236.402,65.932 236.402,65.78L236.402,60.716C236.402,60.564 236.448,60.446 236.54,60.362C236.632,60.278 236.75,60.236 236.894,60.236C237.038,60.236 237.154,60.278 237.242,60.362C237.33,60.446 237.374,60.564 237.374,60.716L237.374,65.78C237.374,65.94 237.33,66.06 237.242,66.14C237.154,66.22 237.038,66.26 236.894,66.26C236.75,66.26 236.632,66.218 236.54,66.134ZM236.426,58.808C236.306,58.696 236.246,58.548 236.246,58.364C236.246,58.188 236.306,58.044 236.426,57.932C236.546,57.82 236.702,57.764 236.894,57.764C237.086,57.764 237.242,57.82 237.362,57.932C237.482,58.044 237.542,58.188 237.542,58.364C237.542,58.548 237.482,58.696 237.362,58.808C237.242,58.92 237.086,58.976 236.894,58.976C236.702,58.976 236.546,58.92 236.426,58.808Z" style="fill-rule:nonzero;"/>
                <path d="M242.582,60.644C242.582,60.772 242.546,60.874 242.474,60.95C242.402,61.026 242.278,61.072 242.102,61.088L241.742,61.124C241.206,61.172 240.808,61.362 240.548,61.694C240.288,62.026 240.158,62.416 240.158,62.864L240.158,65.78C240.158,65.94 240.114,66.06 240.026,66.14C239.938,66.22 239.822,66.26 239.678,66.26C239.534,66.26 239.416,66.218 239.324,66.134C239.232,66.05 239.186,65.932 239.186,65.78L239.186,60.716C239.186,60.564 239.234,60.446 239.33,60.362C239.426,60.278 239.542,60.236 239.678,60.236C239.806,60.236 239.914,60.278 240.002,60.362C240.09,60.446 240.134,60.56 240.134,60.704L240.134,61.376C240.302,61.024 240.54,60.756 240.848,60.572C241.156,60.388 241.51,60.28 241.91,60.248L242.078,60.236C242.414,60.212 242.582,60.348 242.582,60.644Z" style="fill-rule:nonzero;"/>
                <path d="M248.054,64.952C248.118,65.024 248.15,65.116 248.15,65.228C248.15,65.428 248.01,65.612 247.73,65.78C247.442,65.948 247.138,66.074 246.818,66.158C246.498,66.242 246.186,66.284 245.882,66.284C244.978,66.284 244.264,66.016 243.74,65.48C243.216,64.944 242.954,64.204 242.954,63.26C242.954,62.66 243.07,62.13 243.302,61.67C243.534,61.21 243.86,60.852 244.28,60.596C244.7,60.34 245.178,60.212 245.714,60.212C246.474,60.212 247.078,60.46 247.526,60.956C247.974,61.452 248.198,62.124 248.198,62.972C248.198,63.132 248.166,63.248 248.102,63.32C248.038,63.392 247.934,63.428 247.79,63.428L243.926,63.428C243.998,64.804 244.65,65.492 245.882,65.492C246.194,65.492 246.462,65.45 246.686,65.366C246.91,65.282 247.15,65.168 247.406,65.024C247.614,64.904 247.754,64.844 247.826,64.844C247.914,64.844 247.99,64.88 248.054,64.952ZM244.496,61.448C244.188,61.768 244.006,62.22 243.95,62.804L247.346,62.804C247.33,62.212 247.182,61.758 246.902,61.442C246.622,61.126 246.23,60.968 245.726,60.968C245.214,60.968 244.804,61.128 244.496,61.448Z" style="fill-rule:nonzero;"/>
                <path d="M249.764,66.134C249.672,66.05 249.626,65.932 249.626,65.78L249.626,58.16C249.626,58.008 249.672,57.89 249.764,57.806C249.856,57.722 249.974,57.68 250.118,57.68C250.254,57.68 250.368,57.722 250.46,57.806C250.552,57.89 250.598,58.008 250.598,58.16L250.598,65.78C250.598,65.932 250.552,66.05 250.46,66.134C250.368,66.218 250.254,66.26 250.118,66.26C249.974,66.26 249.856,66.218 249.764,66.134Z" style="fill-rule:nonzero;"/>
                <path d="M257.162,64.952C257.226,65.024 257.258,65.116 257.258,65.228C257.258,65.428 257.118,65.612 256.838,65.78C256.55,65.948 256.246,66.074 255.926,66.158C255.606,66.242 255.294,66.284 254.99,66.284C254.086,66.284 253.372,66.016 252.848,65.48C252.324,64.944 252.062,64.204 252.062,63.26C252.062,62.66 252.178,62.13 252.41,61.67C252.642,61.21 252.968,60.852 253.388,60.596C253.808,60.34 254.286,60.212 254.822,60.212C255.582,60.212 256.186,60.46 256.634,60.956C257.082,61.452 257.306,62.124 257.306,62.972C257.306,63.132 257.274,63.248 257.21,63.32C257.146,63.392 257.042,63.428 256.898,63.428L253.034,63.428C253.106,64.804 253.758,65.492 254.99,65.492C255.302,65.492 255.57,65.45 255.794,65.366C256.018,65.282 256.258,65.168 256.514,65.024C256.722,64.904 256.862,64.844 256.934,64.844C257.022,64.844 257.098,64.88 257.162,64.952ZM253.604,61.448C253.296,61.768 253.114,62.22 253.058,62.804L256.454,62.804C256.438,62.212 256.29,61.758 256.01,61.442C255.73,61.126 255.338,60.968 254.834,60.968C254.322,60.968 253.912,61.128 253.604,61.448Z" style="fill-rule:nonzero;"/>
                <path d="M259.652,66.152C259.32,66.064 259.026,65.94 258.77,65.78C258.626,65.684 258.524,65.594 258.464,65.51C258.404,65.426 258.374,65.324 258.374,65.204C258.374,65.1 258.404,65.014 258.464,64.946C258.524,64.878 258.602,64.844 258.698,64.844C258.794,64.844 258.934,64.904 259.118,65.024C259.358,65.168 259.596,65.282 259.832,65.366C260.068,65.45 260.362,65.492 260.714,65.492C261.146,65.492 261.482,65.416 261.722,65.264C261.962,65.112 262.082,64.892 262.082,64.604C262.082,64.428 262.038,64.286 261.95,64.178C261.862,64.07 261.71,63.974 261.494,63.89C261.278,63.806 260.962,63.72 260.546,63.632C259.842,63.48 259.338,63.276 259.034,63.02C258.73,62.764 258.578,62.416 258.578,61.976C258.578,61.632 258.674,61.328 258.866,61.064C259.058,60.8 259.324,60.592 259.664,60.44C260.004,60.288 260.39,60.212 260.822,60.212C261.134,60.212 261.436,60.254 261.728,60.338C262.02,60.422 262.278,60.54 262.502,60.692C262.774,60.884 262.91,61.084 262.91,61.292C262.91,61.396 262.878,61.484 262.814,61.556C262.75,61.628 262.674,61.664 262.586,61.664C262.49,61.664 262.346,61.596 262.154,61.46C261.93,61.316 261.718,61.204 261.518,61.124C261.318,61.044 261.07,61.004 260.774,61.004C260.398,61.004 260.096,61.088 259.868,61.256C259.64,61.424 259.526,61.648 259.526,61.928C259.526,62.104 259.568,62.246 259.652,62.354C259.736,62.462 259.876,62.558 260.072,62.642C260.268,62.726 260.55,62.808 260.918,62.888C261.462,63.008 261.884,63.14 262.184,63.284C262.484,63.428 262.698,63.604 262.826,63.812C262.954,64.02 263.018,64.284 263.018,64.604C263.018,65.108 262.806,65.514 262.382,65.822C261.958,66.13 261.398,66.284 260.702,66.284C260.334,66.284 259.984,66.24 259.652,66.152Z" style="fill-rule:nonzero;"/>
                <path d="M265.412,66.152C265.08,66.064 264.786,65.94 264.53,65.78C264.386,65.684 264.284,65.594 264.224,65.51C264.164,65.426 264.134,65.324 264.134,65.204C264.134,65.1 264.164,65.014 264.224,64.946C264.284,64.878 264.362,64.844 264.458,64.844C264.554,64.844 264.694,64.904 264.878,65.024C265.118,65.168 265.356,65.282 265.592,65.366C265.828,65.45 266.122,65.492 266.474,65.492C266.906,65.492 267.242,65.416 267.482,65.264C267.722,65.112 267.842,64.892 267.842,64.604C267.842,64.428 267.798,64.286 267.71,64.178C267.622,64.07 267.47,63.974 267.254,63.89C267.038,63.806 266.722,63.72 266.306,63.632C265.602,63.48 265.098,63.276 264.794,63.02C264.49,62.764 264.338,62.416 264.338,61.976C264.338,61.632 264.434,61.328 264.626,61.064C264.818,60.8 265.084,60.592 265.424,60.44C265.764,60.288 266.15,60.212 266.582,60.212C266.894,60.212 267.196,60.254 267.488,60.338C267.78,60.422 268.038,60.54 268.262,60.692C268.534,60.884 268.67,61.084 268.67,61.292C268.67,61.396 268.638,61.484 268.574,61.556C268.51,61.628 268.434,61.664 268.346,61.664C268.25,61.664 268.106,61.596 267.914,61.46C267.69,61.316 267.478,61.204 267.278,61.124C267.078,61.044 266.83,61.004 266.534,61.004C266.158,61.004 265.856,61.088 265.628,61.256C265.4,61.424 265.286,61.648 265.286,61.928C265.286,62.104 265.328,62.246 265.412,62.354C265.496,62.462 265.636,62.558 265.832,62.642C266.028,62.726 266.31,62.808 266.678,62.888C267.222,63.008 267.644,63.14 267.944,63.284C268.244,63.428 268.458,63.604 268.586,63.812C268.714,64.02 268.778,64.284 268.778,64.604C268.778,65.108 268.566,65.514 268.142,65.822C267.718,66.13 267.158,66.284 266.462,66.284C266.094,66.284 265.744,66.24 265.412,66.152Z" style="fill-rule:nonzero;"/>
                <path d="M279.872,57.728C279.948,57.68 280.03,57.656 280.118,57.656C280.246,57.656 280.36,57.698 280.46,57.782C280.56,57.866 280.61,57.968 280.61,58.088C280.61,58.152 280.594,58.216 280.562,58.28L277.118,65.936C277.07,66.04 276.998,66.12 276.902,66.176C276.806,66.232 276.702,66.26 276.59,66.26C276.478,66.26 276.374,66.232 276.278,66.176C276.182,66.12 276.11,66.04 276.062,65.936L272.63,58.28C272.606,58.216 272.594,58.156 272.594,58.1C272.594,57.972 272.646,57.866 272.75,57.782C272.854,57.698 272.97,57.656 273.098,57.656C273.29,57.656 273.43,57.748 273.518,57.932L276.614,64.928L279.698,57.932C279.738,57.844 279.796,57.776 279.872,57.728Z" style="fill-rule:nonzero;"/>
                <path d="M281.936,65.912C281.516,65.664 281.192,65.31 280.964,64.85C280.736,64.39 280.622,63.856 280.622,63.248C280.622,62.64 280.736,62.106 280.964,61.646C281.192,61.186 281.516,60.832 281.936,60.584C282.356,60.336 282.842,60.212 283.394,60.212C283.946,60.212 284.434,60.336 284.858,60.584C285.282,60.832 285.608,61.186 285.836,61.646C286.064,62.106 286.178,62.64 286.178,63.248C286.178,63.856 286.064,64.39 285.836,64.85C285.608,65.31 285.282,65.664 284.858,65.912C284.434,66.16 283.946,66.284 283.394,66.284C282.842,66.284 282.356,66.16 281.936,65.912ZM284.72,64.91C285.028,64.53 285.182,63.976 285.182,63.248C285.182,62.536 285.026,61.986 284.714,61.598C284.402,61.21 283.962,61.016 283.394,61.016C282.826,61.016 282.386,61.21 282.074,61.598C281.762,61.986 281.606,62.536 281.606,63.248C281.606,63.968 281.76,64.52 282.068,64.904C282.376,65.288 282.818,65.48 283.394,65.48C283.97,65.48 284.412,65.29 284.72,64.91Z" style="fill-rule:nonzero;"/>
                <path d="M287.906,66.122C287.818,66.03 287.774,65.908 287.774,65.756L287.774,58.184C287.774,58.032 287.818,57.91 287.906,57.818C287.994,57.726 288.114,57.68 288.266,57.68C288.418,57.68 288.538,57.726 288.626,57.818C288.714,57.91 288.758,58.032 288.758,58.184L288.758,65.756C288.758,65.908 288.714,66.03 288.626,66.122C288.538,66.214 288.418,66.26 288.266,66.26C288.114,66.26 287.994,66.214 287.906,66.122Z" style="fill-rule:nonzero;"/>
                <path d="M290.978,66.122C290.89,66.03 290.846,65.908 290.846,65.756L290.846,58.22C290.846,58.076 290.892,57.96 290.984,57.872C291.076,57.784 291.198,57.74 291.35,57.74L294.194,57.74C295.082,57.74 295.772,57.956 296.264,58.388C296.756,58.82 297.002,59.432 297.002,60.224C297.002,61.016 296.754,61.632 296.258,62.072C295.762,62.512 295.074,62.732 294.194,62.732L291.83,62.732L291.83,65.756C291.83,65.908 291.786,66.03 291.698,66.122C291.61,66.214 291.49,66.26 291.338,66.26C291.186,66.26 291.066,66.214 290.978,66.122ZM294.098,61.916C295.386,61.916 296.03,61.352 296.03,60.224C296.03,59.112 295.386,58.556 294.098,58.556L291.83,58.556L291.83,61.916L294.098,61.916Z" style="fill-rule:nonzero;"/>
                <path d="M245.432,72.596C245.824,72.852 246.128,73.21 246.344,73.67C246.56,74.13 246.668,74.664 246.668,75.272C246.668,75.88 246.56,76.41 246.344,76.862C246.128,77.314 245.826,77.664 245.438,77.912C245.05,78.16 244.596,78.284 244.076,78.284C243.62,78.284 243.222,78.184 242.882,77.984C242.542,77.784 242.284,77.5 242.108,77.132L242.108,79.952C242.108,80.096 242.066,80.21 241.982,80.294C241.898,80.378 241.78,80.42 241.628,80.42C241.476,80.42 241.356,80.376 241.268,80.288C241.18,80.2 241.136,80.088 241.136,79.952L241.136,72.716C241.136,72.572 241.18,72.456 241.268,72.368C241.356,72.28 241.476,72.236 241.628,72.236C241.78,72.236 241.898,72.28 241.982,72.368C242.066,72.456 242.108,72.572 242.108,72.716L242.108,73.364C242.284,72.996 242.542,72.712 242.882,72.512C243.222,72.312 243.62,72.212 244.076,72.212C244.588,72.212 245.04,72.34 245.432,72.596ZM245.204,76.904C245.516,76.52 245.672,75.976 245.672,75.272C245.672,74.568 245.516,74.018 245.204,73.622C244.892,73.226 244.452,73.028 243.884,73.028C243.316,73.028 242.878,73.22 242.57,73.604C242.262,73.988 242.108,74.536 242.108,75.248C242.108,75.96 242.262,76.51 242.57,76.898C242.878,77.286 243.316,77.48 243.884,77.48C244.452,77.48 244.892,77.288 245.204,76.904Z" style="fill-rule:nonzero;"/>
                <path d="M252.632,72.794C252.984,73.182 253.16,73.76 253.16,74.528L253.16,77.78C253.16,77.932 253.116,78.05 253.028,78.134C252.94,78.218 252.824,78.26 252.68,78.26C252.528,78.26 252.408,78.218 252.32,78.134C252.232,78.05 252.188,77.932 252.188,77.78L252.188,74.552C252.188,74.032 252.082,73.648 251.87,73.4C251.658,73.152 251.32,73.028 250.856,73.028C250.32,73.028 249.892,73.192 249.572,73.52C249.252,73.848 249.092,74.292 249.092,74.852L249.092,77.78C249.092,77.932 249.05,78.05 248.966,78.134C248.882,78.218 248.764,78.26 248.612,78.26C248.46,78.26 248.34,78.218 248.252,78.134C248.164,78.05 248.12,77.932 248.12,77.78L248.12,70.148C248.12,70.012 248.166,69.9 248.258,69.812C248.35,69.724 248.468,69.68 248.612,69.68C248.764,69.68 248.882,69.722 248.966,69.806C249.05,69.89 249.092,70.004 249.092,70.148L249.092,73.292C249.284,72.94 249.552,72.672 249.896,72.488C250.24,72.304 250.632,72.212 251.072,72.212C251.76,72.212 252.28,72.406 252.632,72.794Z" style="fill-rule:nonzero;"/>
                <path d="M255.902,77.912C255.482,77.664 255.158,77.31 254.93,76.85C254.702,76.39 254.588,75.856 254.588,75.248C254.588,74.64 254.702,74.106 254.93,73.646C255.158,73.186 255.482,72.832 255.902,72.584C256.322,72.336 256.808,72.212 257.36,72.212C257.912,72.212 258.4,72.336 258.824,72.584C259.248,72.832 259.574,73.186 259.802,73.646C260.03,74.106 260.144,74.64 260.144,75.248C260.144,75.856 260.03,76.39 259.802,76.85C259.574,77.31 259.248,77.664 258.824,77.912C258.4,78.16 257.912,78.284 257.36,78.284C256.808,78.284 256.322,78.16 255.902,77.912ZM258.686,76.91C258.994,76.53 259.148,75.976 259.148,75.248C259.148,74.536 258.992,73.986 258.68,73.598C258.368,73.21 257.928,73.016 257.36,73.016C256.792,73.016 256.352,73.21 256.04,73.598C255.728,73.986 255.572,74.536 255.572,75.248C255.572,75.968 255.726,76.52 256.034,76.904C256.342,77.288 256.784,77.48 257.36,77.48C257.936,77.48 258.378,77.29 258.686,76.91Z" style="fill-rule:nonzero;"/>
                <path d="M266.636,74.528L266.636,77.78C266.636,77.932 266.594,78.05 266.51,78.134C266.426,78.218 266.308,78.26 266.156,78.26C266.004,78.26 265.884,78.218 265.796,78.134C265.708,78.05 265.664,77.932 265.664,77.78L265.664,74.588C265.664,74.044 265.558,73.648 265.346,73.4C265.134,73.152 264.796,73.028 264.332,73.028C263.796,73.028 263.368,73.192 263.048,73.52C262.728,73.848 262.568,74.292 262.568,74.852L262.568,77.78C262.568,77.932 262.526,78.05 262.442,78.134C262.358,78.218 262.24,78.26 262.088,78.26C261.936,78.26 261.816,78.218 261.728,78.134C261.64,78.05 261.596,77.932 261.596,77.78L261.596,72.716C261.596,72.572 261.64,72.456 261.728,72.368C261.816,72.28 261.936,72.236 262.088,72.236C262.232,72.236 262.346,72.28 262.43,72.368C262.514,72.456 262.556,72.568 262.556,72.704L262.556,73.316C262.748,72.956 263.016,72.682 263.36,72.494C263.704,72.306 264.096,72.212 264.536,72.212C265.936,72.212 266.636,72.984 266.636,74.528Z" style="fill-rule:nonzero;"/>
                <path d="M273.164,76.952C273.228,77.024 273.26,77.116 273.26,77.228C273.26,77.428 273.12,77.612 272.84,77.78C272.552,77.948 272.248,78.074 271.928,78.158C271.608,78.242 271.296,78.284 270.992,78.284C270.088,78.284 269.374,78.016 268.85,77.48C268.326,76.944 268.064,76.204 268.064,75.26C268.064,74.66 268.18,74.13 268.412,73.67C268.644,73.21 268.97,72.852 269.39,72.596C269.81,72.34 270.288,72.212 270.824,72.212C271.584,72.212 272.188,72.46 272.636,72.956C273.084,73.452 273.308,74.124 273.308,74.972C273.308,75.132 273.276,75.248 273.212,75.32C273.148,75.392 273.044,75.428 272.9,75.428L269.036,75.428C269.108,76.804 269.76,77.492 270.992,77.492C271.304,77.492 271.572,77.45 271.796,77.366C272.02,77.282 272.26,77.168 272.516,77.024C272.724,76.904 272.864,76.844 272.936,76.844C273.024,76.844 273.1,76.88 273.164,76.952ZM269.606,73.448C269.298,73.768 269.116,74.22 269.06,74.804L272.456,74.804C272.44,74.212 272.292,73.758 272.012,73.442C271.732,73.126 271.34,72.968 270.836,72.968C270.324,72.968 269.914,73.128 269.606,73.448Z" style="fill-rule:nonzero;"/>
                <path d="M275.654,78.152C275.322,78.064 275.028,77.94 274.772,77.78C274.628,77.684 274.526,77.594 274.466,77.51C274.406,77.426 274.376,77.324 274.376,77.204C274.376,77.1 274.406,77.014 274.466,76.946C274.526,76.878 274.604,76.844 274.7,76.844C274.796,76.844 274.936,76.904 275.12,77.024C275.36,77.168 275.598,77.282 275.834,77.366C276.07,77.45 276.364,77.492 276.716,77.492C277.148,77.492 277.484,77.416 277.724,77.264C277.964,77.112 278.084,76.892 278.084,76.604C278.084,76.428 278.04,76.286 277.952,76.178C277.864,76.07 277.712,75.974 277.496,75.89C277.28,75.806 276.964,75.72 276.548,75.632C275.844,75.48 275.34,75.276 275.036,75.02C274.732,74.764 274.58,74.416 274.58,73.976C274.58,73.632 274.676,73.328 274.868,73.064C275.06,72.8 275.326,72.592 275.666,72.44C276.006,72.288 276.392,72.212 276.824,72.212C277.136,72.212 277.438,72.254 277.73,72.338C278.022,72.422 278.28,72.54 278.504,72.692C278.776,72.884 278.912,73.084 278.912,73.292C278.912,73.396 278.88,73.484 278.816,73.556C278.752,73.628 278.676,73.664 278.588,73.664C278.492,73.664 278.348,73.596 278.156,73.46C277.932,73.316 277.72,73.204 277.52,73.124C277.32,73.044 277.072,73.004 276.776,73.004C276.4,73.004 276.098,73.088 275.87,73.256C275.642,73.424 275.528,73.648 275.528,73.928C275.528,74.104 275.57,74.246 275.654,74.354C275.738,74.462 275.878,74.558 276.074,74.642C276.27,74.726 276.552,74.808 276.92,74.888C277.464,75.008 277.886,75.14 278.186,75.284C278.486,75.428 278.7,75.604 278.828,75.812C278.956,76.02 279.02,76.284 279.02,76.604C279.02,77.108 278.808,77.514 278.384,77.822C277.96,78.13 277.4,78.284 276.704,78.284C276.336,78.284 275.986,78.24 275.654,78.152Z" style="fill-rule:nonzero;"/>
            </g>
        </g>
    </g>
</svg>
