<?xml version="1.0" encoding="UTF-8" standalone="no"?>
<!DOCTYPE svg PUBLIC "-//W3C//DTD SVG 1.1//EN" "http://www.w3.org/Graphics/SVG/1.1/DTD/svg11.dtd">
<svg width="100%" height="100%" viewBox="0 0 142 10" version="1.1" xmlns="http://www.w3.org/2000/svg" xmlns:xlink="http://www.w3.org/1999/xlink" xml:space="preserve" xmlns:serif="http://www.serif.com/" style="fill-rule:evenodd;clip-rule:evenodd;stroke-linejoin:round;stroke-miterlimit:1.41421;">
    <g transform="matrix(1,0,0,1,-943,-700)">
        <g transform="matrix(1,0,0,1,0,-7)">
            <g transform="matrix(1,0,0,1,943.372,716.413)">
                <path d="M12.922,-9.139C13.026,-9.208 13.143,-9.243 13.273,-9.243C13.438,-9.243 13.583,-9.189 13.709,-9.081C13.834,-8.972 13.897,-8.831 13.897,-8.658C13.897,-8.563 13.88,-8.476 13.845,-8.398L10.972,-0.364C10.911,-0.217 10.816,-0.104 10.686,-0.026C10.556,0.052 10.413,0.091 10.257,0.091C10.11,0.091 9.971,0.052 9.841,-0.026C9.711,-0.104 9.62,-0.217 9.568,-0.364L7.202,-7.072L4.784,-0.364C4.732,-0.217 4.641,-0.104 4.511,-0.026C4.381,0.052 4.242,0.091 4.095,0.091C3.939,0.091 3.798,0.052 3.673,-0.026C3.547,-0.104 3.454,-0.217 3.393,-0.364L0.52,-8.398C0.485,-8.476 0.468,-8.563 0.468,-8.658C0.468,-8.831 0.533,-8.972 0.663,-9.081C0.793,-9.189 0.949,-9.243 1.131,-9.243C1.261,-9.243 1.38,-9.208 1.489,-9.139C1.597,-9.07 1.677,-8.966 1.729,-8.827L4.134,-1.911L6.578,-8.762C6.63,-8.909 6.715,-9.022 6.831,-9.1C6.948,-9.178 7.076,-9.217 7.215,-9.217C7.354,-9.217 7.479,-9.176 7.592,-9.094C7.705,-9.011 7.791,-8.896 7.852,-8.749L10.244,-1.846L12.688,-8.827C12.74,-8.966 12.818,-9.07 12.922,-9.139Z" style="fill-rule:nonzero;"/>
                <path d="M15.449,-0.091C15.324,-0.195 15.261,-0.351 15.261,-0.559L15.261,-5.837C15.261,-6.045 15.324,-6.203 15.449,-6.311C15.575,-6.42 15.733,-6.474 15.924,-6.474C16.115,-6.474 16.271,-6.42 16.392,-6.311C16.513,-6.203 16.574,-6.045 16.574,-5.837L16.574,-0.559C16.574,-0.351 16.513,-0.195 16.392,-0.091C16.271,0.013 16.115,0.065 15.924,0.065C15.733,0.065 15.575,0.013 15.449,-0.091ZM15.326,-7.956C15.179,-8.095 15.105,-8.277 15.105,-8.502C15.105,-8.727 15.179,-8.907 15.326,-9.041C15.473,-9.176 15.673,-9.243 15.924,-9.243C16.167,-9.243 16.364,-9.176 16.515,-9.041C16.667,-8.907 16.743,-8.727 16.743,-8.502C16.743,-8.277 16.669,-8.095 16.522,-7.956C16.375,-7.817 16.175,-7.748 15.924,-7.748C15.673,-7.748 15.473,-7.817 15.326,-7.956Z" style="fill-rule:nonzero;"/>
                <path d="M22.345,-5.941C22.345,-5.75 22.297,-5.607 22.202,-5.512C22.106,-5.417 21.942,-5.36 21.708,-5.343L21.318,-5.304C20.772,-5.252 20.367,-5.061 20.102,-4.732C19.838,-4.403 19.706,-4.004 19.706,-3.536L19.706,-0.559C19.706,-0.351 19.645,-0.195 19.524,-0.091C19.402,0.013 19.246,0.065 19.056,0.065C18.865,0.065 18.707,0.013 18.581,-0.091C18.456,-0.195 18.393,-0.351 18.393,-0.559L18.393,-5.85C18.393,-6.049 18.456,-6.203 18.581,-6.311C18.707,-6.42 18.865,-6.474 19.056,-6.474C19.229,-6.474 19.374,-6.42 19.491,-6.311C19.608,-6.203 19.667,-6.054 19.667,-5.863L19.667,-5.239C19.84,-5.62 20.091,-5.911 20.421,-6.11C20.75,-6.309 21.123,-6.426 21.539,-6.461L21.721,-6.474C22.137,-6.5 22.345,-6.322 22.345,-5.941Z" style="fill-rule:nonzero;"/>
                <path d="M28.272,-1.456C28.35,-1.361 28.389,-1.239 28.389,-1.092C28.389,-0.841 28.233,-0.628 27.921,-0.455C27.617,-0.282 27.286,-0.147 26.926,-0.052C26.566,0.043 26.222,0.091 25.893,0.091C24.887,0.091 24.094,-0.202 23.514,-0.787C22.933,-1.372 22.643,-2.171 22.643,-3.185C22.643,-3.835 22.77,-4.411 23.026,-4.914C23.282,-5.417 23.641,-5.807 24.105,-6.084C24.569,-6.361 25.095,-6.5 25.685,-6.5C26.534,-6.5 27.206,-6.227 27.7,-5.681C28.194,-5.135 28.441,-4.398 28.441,-3.471C28.441,-3.124 28.285,-2.951 27.973,-2.951L23.956,-2.951C24.042,-1.608 24.688,-0.936 25.893,-0.936C26.213,-0.936 26.491,-0.979 26.725,-1.066C26.959,-1.153 27.206,-1.265 27.466,-1.404C27.492,-1.421 27.563,-1.458 27.68,-1.515C27.797,-1.571 27.895,-1.599 27.973,-1.599C28.094,-1.599 28.194,-1.551 28.272,-1.456ZM24.502,-5.057C24.198,-4.736 24.016,-4.286 23.956,-3.705L27.31,-3.705C27.284,-4.294 27.134,-4.747 26.861,-5.064C26.588,-5.38 26.205,-5.538 25.711,-5.538C25.208,-5.538 24.805,-5.378 24.502,-5.057Z" style="fill-rule:nonzero;"/>
                <path d="M30.058,-0.091C29.932,-0.195 29.869,-0.351 29.869,-0.559L29.869,-8.593C29.869,-8.801 29.932,-8.959 30.058,-9.068C30.184,-9.176 30.342,-9.23 30.532,-9.23C30.723,-9.23 30.879,-9.176 31,-9.068C31.122,-8.959 31.182,-8.801 31.182,-8.593L31.182,-0.559C31.182,-0.351 31.122,-0.195 31,-0.091C30.879,0.013 30.723,0.065 30.532,0.065C30.342,0.065 30.184,0.013 30.058,-0.091Z" style="fill-rule:nonzero;"/>
                <path d="M38.266,-1.456C38.344,-1.361 38.383,-1.239 38.383,-1.092C38.383,-0.841 38.227,-0.628 37.915,-0.455C37.612,-0.282 37.28,-0.147 36.921,-0.052C36.561,0.043 36.217,0.091 35.887,0.091C34.882,0.091 34.089,-0.202 33.508,-0.787C32.928,-1.372 32.637,-2.171 32.637,-3.185C32.637,-3.835 32.765,-4.411 33.021,-4.914C33.276,-5.417 33.636,-5.807 34.1,-6.084C34.563,-6.361 35.09,-6.5 35.679,-6.5C36.529,-6.5 37.2,-6.227 37.694,-5.681C38.188,-5.135 38.435,-4.398 38.435,-3.471C38.435,-3.124 38.279,-2.951 37.967,-2.951L33.95,-2.951C34.037,-1.608 34.683,-0.936 35.887,-0.936C36.208,-0.936 36.485,-0.979 36.719,-1.066C36.953,-1.153 37.2,-1.265 37.46,-1.404C37.486,-1.421 37.558,-1.458 37.675,-1.515C37.792,-1.571 37.889,-1.599 37.967,-1.599C38.089,-1.599 38.188,-1.551 38.266,-1.456ZM34.496,-5.057C34.193,-4.736 34.011,-4.286 33.95,-3.705L37.304,-3.705C37.278,-4.294 37.129,-4.747 36.856,-5.064C36.583,-5.38 36.199,-5.538 35.705,-5.538C35.203,-5.538 34.8,-5.378 34.496,-5.057Z" style="fill-rule:nonzero;"/>
                <path d="M39.903,-0.455C39.747,-0.55 39.637,-0.65 39.572,-0.754C39.507,-0.858 39.474,-0.975 39.474,-1.105C39.474,-1.244 39.513,-1.361 39.591,-1.456C39.669,-1.551 39.769,-1.599 39.89,-1.599C40.003,-1.599 40.18,-1.53 40.423,-1.391C40.683,-1.252 40.937,-1.14 41.184,-1.053C41.431,-0.966 41.74,-0.923 42.113,-0.923C42.529,-0.923 42.854,-0.997 43.088,-1.144C43.322,-1.291 43.439,-1.499 43.439,-1.768C43.439,-1.941 43.394,-2.08 43.303,-2.184C43.212,-2.288 43.053,-2.381 42.828,-2.463C42.603,-2.546 42.269,-2.635 41.827,-2.73C41.064,-2.895 40.516,-3.118 40.183,-3.4C39.849,-3.681 39.682,-4.065 39.682,-4.55C39.682,-4.923 39.79,-5.259 40.007,-5.558C40.224,-5.857 40.523,-6.088 40.904,-6.253C41.285,-6.418 41.719,-6.5 42.204,-6.5C42.551,-6.5 42.889,-6.455 43.218,-6.364C43.547,-6.273 43.838,-6.14 44.089,-5.967C44.375,-5.776 44.518,-5.555 44.518,-5.304C44.518,-5.165 44.477,-5.048 44.395,-4.953C44.312,-4.858 44.215,-4.81 44.102,-4.81C44.024,-4.81 43.946,-4.827 43.868,-4.862C43.79,-4.897 43.686,-4.953 43.556,-5.031C43.322,-5.17 43.103,-5.278 42.9,-5.356C42.696,-5.434 42.442,-5.473 42.139,-5.473C41.775,-5.473 41.483,-5.395 41.262,-5.239C41.041,-5.083 40.93,-4.871 40.93,-4.602C40.93,-4.359 41.032,-4.171 41.236,-4.037C41.439,-3.902 41.823,-3.774 42.386,-3.653C42.967,-3.532 43.422,-3.393 43.751,-3.237C44.08,-3.081 44.317,-2.888 44.46,-2.659C44.603,-2.429 44.674,-2.136 44.674,-1.781C44.674,-1.218 44.438,-0.765 43.966,-0.423C43.493,-0.08 42.863,0.091 42.074,0.091C41.19,0.091 40.466,-0.091 39.903,-0.455Z" style="fill-rule:nonzero;"/>
                <path d="M46.155,-0.455C45.999,-0.55 45.888,-0.65 45.823,-0.754C45.758,-0.858 45.726,-0.975 45.726,-1.105C45.726,-1.244 45.765,-1.361 45.843,-1.456C45.921,-1.551 46.021,-1.599 46.142,-1.599C46.255,-1.599 46.432,-1.53 46.675,-1.391C46.935,-1.252 47.188,-1.14 47.435,-1.053C47.682,-0.966 47.992,-0.923 48.365,-0.923C48.781,-0.923 49.106,-0.997 49.34,-1.144C49.574,-1.291 49.691,-1.499 49.691,-1.768C49.691,-1.941 49.645,-2.08 49.554,-2.184C49.463,-2.288 49.305,-2.381 49.08,-2.463C48.855,-2.546 48.521,-2.635 48.079,-2.73C47.316,-2.895 46.768,-3.118 46.434,-3.4C46.101,-3.681 45.934,-4.065 45.934,-4.55C45.934,-4.923 46.042,-5.259 46.259,-5.558C46.476,-5.857 46.775,-6.088 47.156,-6.253C47.537,-6.418 47.971,-6.5 48.456,-6.5C48.803,-6.5 49.141,-6.455 49.47,-6.364C49.799,-6.273 50.09,-6.14 50.341,-5.967C50.627,-5.776 50.77,-5.555 50.77,-5.304C50.77,-5.165 50.729,-5.048 50.646,-4.953C50.564,-4.858 50.467,-4.81 50.354,-4.81C50.276,-4.81 50.198,-4.827 50.12,-4.862C50.042,-4.897 49.938,-4.953 49.808,-5.031C49.574,-5.17 49.355,-5.278 49.151,-5.356C48.948,-5.434 48.694,-5.473 48.391,-5.473C48.027,-5.473 47.734,-5.395 47.513,-5.239C47.292,-5.083 47.182,-4.871 47.182,-4.602C47.182,-4.359 47.284,-4.171 47.487,-4.037C47.691,-3.902 48.075,-3.774 48.638,-3.653C49.219,-3.532 49.674,-3.393 50.003,-3.237C50.332,-3.081 50.568,-2.888 50.711,-2.659C50.854,-2.429 50.926,-2.136 50.926,-1.781C50.926,-1.218 50.69,-0.765 50.217,-0.423C49.745,-0.08 49.115,0.091 48.326,0.091C47.442,0.091 46.718,-0.091 46.155,-0.455Z" style="fill-rule:nonzero;"/>
                <path d="M63.228,-4.719C63.328,-4.624 63.378,-4.494 63.378,-4.329L63.378,-1.287C63.378,-0.992 63.336,-0.78 63.254,-0.65C63.172,-0.52 63.009,-0.416 62.767,-0.338C62.42,-0.199 62.008,-0.091 61.532,-0.013C61.055,0.065 60.583,0.104 60.115,0.104C59.187,0.104 58.386,-0.082 57.71,-0.455C57.034,-0.828 56.518,-1.365 56.163,-2.067C55.807,-2.769 55.63,-3.61 55.63,-4.589C55.63,-5.551 55.807,-6.383 56.163,-7.085C56.518,-7.787 57.027,-8.327 57.69,-8.704C58.353,-9.081 59.131,-9.269 60.024,-9.269C60.63,-9.269 61.191,-9.18 61.707,-9.003C62.223,-8.825 62.663,-8.567 63.027,-8.229C63.2,-8.09 63.287,-7.917 63.287,-7.709C63.287,-7.553 63.243,-7.421 63.157,-7.313C63.07,-7.204 62.966,-7.15 62.845,-7.15C62.767,-7.15 62.697,-7.163 62.637,-7.189C62.576,-7.215 62.498,-7.258 62.403,-7.319C61.978,-7.631 61.592,-7.85 61.246,-7.976C60.899,-8.101 60.5,-8.164 60.05,-8.164C59.062,-8.164 58.308,-7.858 57.788,-7.247C57.268,-6.637 57.008,-5.75 57.008,-4.589C57.008,-3.402 57.274,-2.503 57.807,-1.892C58.34,-1.281 59.122,-0.975 60.154,-0.975C60.847,-0.975 61.514,-1.079 62.156,-1.287L62.156,-3.848L60.453,-3.848C60.279,-3.848 60.143,-3.894 60.043,-3.984C59.943,-4.076 59.894,-4.199 59.894,-4.355C59.894,-4.511 59.943,-4.635 60.043,-4.726C60.143,-4.816 60.279,-4.862 60.453,-4.862L62.832,-4.862C62.996,-4.862 63.128,-4.814 63.228,-4.719Z" style="fill-rule:nonzero;"/>
                <path d="M70.624,-6.305C70.741,-6.192 70.799,-6.036 70.799,-5.837L70.799,-0.546C70.799,-0.364 70.739,-0.217 70.617,-0.104C70.496,0.009 70.336,0.065 70.136,0.065C69.954,0.065 69.807,0.011 69.694,-0.098C69.582,-0.206 69.525,-0.351 69.525,-0.533L69.525,-1.027C69.326,-0.663 69.051,-0.386 68.7,-0.195C68.349,-0.004 67.957,0.091 67.523,0.091C65.981,0.091 65.209,-0.758 65.209,-2.457L65.209,-5.837C65.209,-6.036 65.268,-6.192 65.385,-6.305C65.502,-6.418 65.664,-6.474 65.872,-6.474C66.072,-6.474 66.23,-6.418 66.347,-6.305C66.464,-6.192 66.522,-6.036 66.522,-5.837L66.522,-2.47C66.522,-1.959 66.626,-1.582 66.834,-1.339C67.042,-1.096 67.363,-0.975 67.796,-0.975C68.308,-0.975 68.717,-1.14 69.025,-1.469C69.333,-1.798 69.486,-2.236 69.486,-2.782L69.486,-5.837C69.486,-6.028 69.547,-6.182 69.668,-6.299C69.79,-6.416 69.95,-6.474 70.149,-6.474C70.349,-6.474 70.507,-6.418 70.624,-6.305Z" style="fill-rule:nonzero;"/>
                <path d="M77.883,-1.456C77.961,-1.361 78,-1.239 78,-1.092C78,-0.841 77.844,-0.628 77.532,-0.455C77.229,-0.282 76.897,-0.147 76.538,-0.052C76.178,0.043 75.834,0.091 75.504,0.091C74.499,0.091 73.706,-0.202 73.125,-0.787C72.545,-1.372 72.254,-2.171 72.254,-3.185C72.254,-3.835 72.382,-4.411 72.638,-4.914C72.893,-5.417 73.253,-5.807 73.717,-6.084C74.18,-6.361 74.707,-6.5 75.296,-6.5C76.146,-6.5 76.817,-6.227 77.311,-5.681C77.805,-5.135 78.052,-4.398 78.052,-3.471C78.052,-3.124 77.896,-2.951 77.584,-2.951L73.567,-2.951C73.654,-1.608 74.3,-0.936 75.504,-0.936C75.825,-0.936 76.102,-0.979 76.336,-1.066C76.57,-1.153 76.817,-1.265 77.077,-1.404C77.103,-1.421 77.175,-1.458 77.292,-1.515C77.409,-1.571 77.506,-1.599 77.584,-1.599C77.706,-1.599 77.805,-1.551 77.883,-1.456ZM74.113,-5.057C73.81,-4.736 73.628,-4.286 73.567,-3.705L76.921,-3.705C76.895,-4.294 76.746,-4.747 76.473,-5.064C76.2,-5.38 75.816,-5.538 75.322,-5.538C74.82,-5.538 74.417,-5.378 74.113,-5.057Z" style="fill-rule:nonzero;"/>
                <path d="M79.52,-0.455C79.364,-0.55 79.254,-0.65 79.189,-0.754C79.124,-0.858 79.091,-0.975 79.091,-1.105C79.091,-1.244 79.13,-1.361 79.208,-1.456C79.286,-1.551 79.386,-1.599 79.507,-1.599C79.62,-1.599 79.797,-1.53 80.04,-1.391C80.3,-1.252 80.554,-1.14 80.801,-1.053C81.048,-0.966 81.357,-0.923 81.73,-0.923C82.146,-0.923 82.471,-0.997 82.705,-1.144C82.939,-1.291 83.056,-1.499 83.056,-1.768C83.056,-1.941 83.011,-2.08 82.92,-2.184C82.829,-2.288 82.67,-2.381 82.445,-2.463C82.22,-2.546 81.886,-2.635 81.444,-2.73C80.681,-2.895 80.133,-3.118 79.8,-3.4C79.466,-3.681 79.299,-4.065 79.299,-4.55C79.299,-4.923 79.407,-5.259 79.624,-5.558C79.841,-5.857 80.14,-6.088 80.521,-6.253C80.902,-6.418 81.336,-6.5 81.821,-6.5C82.168,-6.5 82.506,-6.455 82.835,-6.364C83.164,-6.273 83.455,-6.14 83.706,-5.967C83.992,-5.776 84.135,-5.555 84.135,-5.304C84.135,-5.165 84.094,-5.048 84.012,-4.953C83.929,-4.858 83.832,-4.81 83.719,-4.81C83.641,-4.81 83.563,-4.827 83.485,-4.862C83.407,-4.897 83.303,-4.953 83.173,-5.031C82.939,-5.17 82.72,-5.278 82.517,-5.356C82.313,-5.434 82.059,-5.473 81.756,-5.473C81.392,-5.473 81.1,-5.395 80.879,-5.239C80.658,-5.083 80.547,-4.871 80.547,-4.602C80.547,-4.359 80.649,-4.171 80.853,-4.037C81.056,-3.902 81.44,-3.774 82.003,-3.653C82.584,-3.532 83.039,-3.393 83.368,-3.237C83.697,-3.081 83.934,-2.888 84.077,-2.659C84.22,-2.429 84.291,-2.136 84.291,-1.781C84.291,-1.218 84.055,-0.765 83.583,-0.423C83.11,-0.08 82.48,0.091 81.691,0.091C80.807,0.091 80.083,-0.091 79.52,-0.455Z" style="fill-rule:nonzero;"/>
                <path d="M89.184,-0.787C89.267,-0.704 89.308,-0.589 89.308,-0.442C89.308,-0.269 89.241,-0.137 89.106,-0.046C88.972,0.046 88.775,0.082 88.515,0.065L88.164,0.039C87.462,-0.013 86.938,-0.227 86.591,-0.605C86.244,-0.981 86.071,-1.538 86.071,-2.275L86.071,-5.33L85.291,-5.33C84.91,-5.33 84.719,-5.499 84.719,-5.837C84.719,-5.993 84.769,-6.117 84.868,-6.208C84.968,-6.299 85.109,-6.344 85.291,-6.344L86.071,-6.344L86.071,-7.683C86.071,-7.882 86.129,-8.038 86.246,-8.151C86.363,-8.264 86.522,-8.32 86.721,-8.32C86.92,-8.32 87.081,-8.264 87.202,-8.151C87.323,-8.038 87.384,-7.882 87.384,-7.683L87.384,-6.344L88.671,-6.344C88.853,-6.344 88.994,-6.299 89.093,-6.208C89.193,-6.117 89.243,-5.993 89.243,-5.837C89.243,-5.672 89.193,-5.547 89.093,-5.46C88.994,-5.373 88.853,-5.33 88.671,-5.33L87.384,-5.33L87.384,-2.184C87.384,-1.777 87.468,-1.478 87.637,-1.287C87.806,-1.096 88.064,-0.988 88.411,-0.962L88.775,-0.936C88.966,-0.919 89.102,-0.869 89.184,-0.787Z" style="fill-rule:nonzero;"/>
                <path d="M94.967,-0.169C94.373,-0.351 93.899,-0.602 93.544,-0.923C93.379,-1.062 93.297,-1.239 93.297,-1.456C93.297,-1.612 93.34,-1.744 93.427,-1.853C93.513,-1.961 93.617,-2.015 93.739,-2.015C93.86,-2.015 94.007,-1.959 94.181,-1.846C94.952,-1.274 95.832,-0.988 96.82,-0.988C97.513,-0.988 98.046,-1.118 98.419,-1.378C98.791,-1.638 98.978,-2.011 98.978,-2.496C98.978,-2.877 98.804,-3.163 98.458,-3.354C98.111,-3.545 97.556,-3.727 96.794,-3.9C96.066,-4.056 95.468,-4.234 95,-4.433C94.532,-4.632 94.165,-4.903 93.901,-5.246C93.637,-5.588 93.505,-6.023 93.505,-6.552C93.505,-7.081 93.65,-7.551 93.94,-7.963C94.23,-8.374 94.636,-8.695 95.156,-8.925C95.676,-9.154 96.269,-9.269 96.937,-9.269C97.552,-9.269 98.12,-9.182 98.64,-9.009C99.16,-8.836 99.602,-8.58 99.966,-8.242C100.139,-8.095 100.226,-7.917 100.226,-7.709C100.226,-7.562 100.18,-7.432 100.089,-7.319C99.998,-7.206 99.892,-7.15 99.771,-7.15C99.658,-7.15 99.515,-7.206 99.342,-7.319C98.943,-7.622 98.568,-7.841 98.217,-7.976C97.866,-8.11 97.444,-8.177 96.95,-8.177C96.282,-8.177 95.762,-8.041 95.39,-7.768C95.017,-7.495 94.831,-7.115 94.831,-6.63C94.831,-6.214 94.995,-5.9 95.325,-5.688C95.654,-5.475 96.183,-5.282 96.911,-5.109C97.673,-4.936 98.291,-4.756 98.763,-4.57C99.235,-4.383 99.612,-4.128 99.894,-3.802C100.176,-3.478 100.317,-3.059 100.317,-2.548C100.317,-2.028 100.171,-1.567 99.881,-1.164C99.591,-0.76 99.183,-0.449 98.659,-0.228C98.135,-0.007 97.53,0.104 96.846,0.104C96.187,0.104 95.561,0.013 94.967,-0.169Z" style="fill-rule:nonzero;"/>
                <path d="M107.062,-1.456C107.14,-1.361 107.179,-1.239 107.179,-1.092C107.179,-0.841 107.023,-0.628 106.711,-0.455C106.408,-0.282 106.077,-0.147 105.717,-0.052C105.357,0.043 105.013,0.091 104.683,0.091C103.678,0.091 102.885,-0.202 102.304,-0.787C101.724,-1.372 101.433,-2.171 101.433,-3.185C101.433,-3.835 101.561,-4.411 101.817,-4.914C102.073,-5.417 102.432,-5.807 102.896,-6.084C103.36,-6.361 103.886,-6.5 104.475,-6.5C105.325,-6.5 105.996,-6.227 106.49,-5.681C106.984,-5.135 107.231,-4.398 107.231,-3.471C107.231,-3.124 107.075,-2.951 106.763,-2.951L102.746,-2.951C102.833,-1.608 103.479,-0.936 104.683,-0.936C105.004,-0.936 105.281,-0.979 105.515,-1.066C105.749,-1.153 105.996,-1.265 106.256,-1.404C106.282,-1.421 106.354,-1.458 106.471,-1.515C106.588,-1.571 106.685,-1.599 106.763,-1.599C106.885,-1.599 106.984,-1.551 107.062,-1.456ZM103.292,-5.057C102.989,-4.736 102.807,-4.286 102.746,-3.705L106.1,-3.705C106.074,-4.294 105.925,-4.747 105.652,-5.064C105.379,-5.38 104.995,-5.538 104.501,-5.538C103.999,-5.538 103.596,-5.378 103.292,-5.057Z" style="fill-rule:nonzero;"/>
                <path d="M112.612,-5.941C112.612,-5.75 112.565,-5.607 112.469,-5.512C112.374,-5.417 112.209,-5.36 111.975,-5.343L111.585,-5.304C111.039,-5.252 110.634,-5.061 110.37,-4.732C110.105,-4.403 109.973,-4.004 109.973,-3.536L109.973,-0.559C109.973,-0.351 109.913,-0.195 109.791,-0.091C109.67,0.013 109.514,0.065 109.323,0.065C109.133,0.065 108.974,0.013 108.849,-0.091C108.723,-0.195 108.66,-0.351 108.66,-0.559L108.66,-5.85C108.66,-6.049 108.723,-6.203 108.849,-6.311C108.974,-6.42 109.133,-6.474 109.323,-6.474C109.497,-6.474 109.642,-6.42 109.759,-6.311C109.876,-6.203 109.934,-6.054 109.934,-5.863L109.934,-5.239C110.108,-5.62 110.359,-5.911 110.688,-6.11C111.018,-6.309 111.39,-6.426 111.806,-6.461L111.988,-6.474C112.404,-6.5 112.612,-6.322 112.612,-5.941Z" style="fill-rule:nonzero;"/>
                <path d="M118.533,-6.37C118.632,-6.431 118.738,-6.461 118.851,-6.461C119.016,-6.461 119.161,-6.405 119.287,-6.292C119.412,-6.179 119.475,-6.045 119.475,-5.889C119.475,-5.802 119.458,-5.72 119.423,-5.642L116.94,-0.377C116.879,-0.238 116.786,-0.132 116.661,-0.059C116.535,0.015 116.403,0.052 116.264,0.052C116.125,0.052 115.993,0.015 115.868,-0.059C115.742,-0.132 115.649,-0.238 115.588,-0.377L113.105,-5.642C113.07,-5.711 113.053,-5.794 113.053,-5.889C113.053,-6.045 113.122,-6.179 113.261,-6.292C113.4,-6.405 113.556,-6.461 113.729,-6.461C113.98,-6.461 114.167,-6.34 114.288,-6.097L116.303,-1.625L118.305,-6.084C118.357,-6.214 118.433,-6.309 118.533,-6.37Z" style="fill-rule:nonzero;"/>
                <path d="M120.728,-0.091C120.603,-0.195 120.54,-0.351 120.54,-0.559L120.54,-5.837C120.54,-6.045 120.603,-6.203 120.728,-6.311C120.854,-6.42 121.012,-6.474 121.203,-6.474C121.394,-6.474 121.55,-6.42 121.671,-6.311C121.792,-6.203 121.853,-6.045 121.853,-5.837L121.853,-0.559C121.853,-0.351 121.792,-0.195 121.671,-0.091C121.55,0.013 121.394,0.065 121.203,0.065C121.012,0.065 120.854,0.013 120.728,-0.091ZM120.605,-7.956C120.458,-8.095 120.384,-8.277 120.384,-8.502C120.384,-8.727 120.458,-8.907 120.605,-9.041C120.752,-9.176 120.952,-9.243 121.203,-9.243C121.446,-9.243 121.643,-9.176 121.794,-9.041C121.946,-8.907 122.022,-8.727 122.022,-8.502C122.022,-8.277 121.948,-8.095 121.801,-7.956C121.654,-7.817 121.454,-7.748 121.203,-7.748C120.952,-7.748 120.752,-7.817 120.605,-7.956Z" style="fill-rule:nonzero;"/>
                <path d="M124.77,-0.312C124.307,-0.581 123.947,-0.962 123.691,-1.456C123.436,-1.95 123.308,-2.522 123.308,-3.172C123.308,-3.831 123.44,-4.411 123.704,-4.914C123.969,-5.417 124.339,-5.807 124.816,-6.084C125.292,-6.361 125.838,-6.5 126.454,-6.5C126.783,-6.5 127.115,-6.452 127.448,-6.357C127.782,-6.262 128.079,-6.132 128.339,-5.967C128.616,-5.776 128.755,-5.555 128.755,-5.304C128.755,-5.157 128.716,-5.033 128.638,-4.934C128.56,-4.834 128.46,-4.784 128.339,-4.784C128.261,-4.784 128.183,-4.804 128.105,-4.843C128.027,-4.882 127.927,-4.94 127.806,-5.018C127.589,-5.157 127.388,-5.263 127.201,-5.337C127.015,-5.41 126.792,-5.447 126.532,-5.447C125.942,-5.447 125.485,-5.248 125.16,-4.849C124.835,-4.45 124.673,-3.896 124.673,-3.185C124.673,-2.474 124.833,-1.926 125.154,-1.541C125.474,-1.155 125.929,-0.962 126.519,-0.962C126.779,-0.962 127.008,-1.001 127.208,-1.079C127.407,-1.157 127.611,-1.261 127.819,-1.391C127.914,-1.452 128.009,-1.504 128.105,-1.547C128.2,-1.59 128.287,-1.612 128.365,-1.612C128.486,-1.612 128.586,-1.562 128.664,-1.463C128.742,-1.363 128.781,-1.239 128.781,-1.092C128.781,-0.971 128.748,-0.86 128.683,-0.761C128.618,-0.661 128.508,-0.559 128.352,-0.455C128.092,-0.282 127.788,-0.147 127.442,-0.052C127.095,0.043 126.744,0.091 126.389,0.091C125.773,0.091 125.234,-0.043 124.77,-0.312Z" style="fill-rule:nonzero;"/>
                <path d="M135.202,-1.456C135.28,-1.361 135.319,-1.239 135.319,-1.092C135.319,-0.841 135.163,-0.628 134.851,-0.455C134.547,-0.282 134.216,-0.147 133.856,-0.052C133.496,0.043 133.152,0.091 132.823,0.091C131.817,0.091 131.024,-0.202 130.444,-0.787C129.863,-1.372 129.573,-2.171 129.573,-3.185C129.573,-3.835 129.7,-4.411 129.956,-4.914C130.212,-5.417 130.571,-5.807 131.035,-6.084C131.499,-6.361 132.025,-6.5 132.615,-6.5C133.464,-6.5 134.136,-6.227 134.63,-5.681C135.124,-5.135 135.371,-4.398 135.371,-3.471C135.371,-3.124 135.215,-2.951 134.903,-2.951L130.886,-2.951C130.972,-1.608 131.618,-0.936 132.823,-0.936C133.143,-0.936 133.421,-0.979 133.655,-1.066C133.889,-1.153 134.136,-1.265 134.396,-1.404C134.422,-1.421 134.493,-1.458 134.61,-1.515C134.727,-1.571 134.825,-1.599 134.903,-1.599C135.024,-1.599 135.124,-1.551 135.202,-1.456ZM131.432,-5.057C131.128,-4.736 130.946,-4.286 130.886,-3.705L134.24,-3.705C134.214,-4.294 134.064,-4.747 133.791,-5.064C133.518,-5.38 133.135,-5.538 132.641,-5.538C132.138,-5.538 131.735,-5.378 131.432,-5.057Z" style="fill-rule:nonzero;"/>
                <path d="M136.838,-0.455C136.682,-0.55 136.572,-0.65 136.507,-0.754C136.442,-0.858 136.409,-0.975 136.409,-1.105C136.409,-1.244 136.448,-1.361 136.526,-1.456C136.604,-1.551 136.704,-1.599 136.825,-1.599C136.938,-1.599 137.116,-1.53 137.358,-1.391C137.618,-1.252 137.872,-1.14 138.119,-1.053C138.366,-0.966 138.676,-0.923 139.048,-0.923C139.464,-0.923 139.789,-0.997 140.023,-1.144C140.257,-1.291 140.374,-1.499 140.374,-1.768C140.374,-1.941 140.329,-2.08 140.238,-2.184C140.147,-2.288 139.989,-2.381 139.763,-2.463C139.538,-2.546 139.204,-2.635 138.762,-2.73C138,-2.895 137.452,-3.118 137.118,-3.4C136.784,-3.681 136.617,-4.065 136.617,-4.55C136.617,-4.923 136.726,-5.259 136.942,-5.558C137.159,-5.857 137.458,-6.088 137.839,-6.253C138.221,-6.418 138.654,-6.5 139.139,-6.5C139.486,-6.5 139.824,-6.455 140.153,-6.364C140.483,-6.273 140.773,-6.14 141.024,-5.967C141.31,-5.776 141.453,-5.555 141.453,-5.304C141.453,-5.165 141.412,-5.048 141.33,-4.953C141.248,-4.858 141.15,-4.81 141.037,-4.81C140.959,-4.81 140.881,-4.827 140.803,-4.862C140.725,-4.897 140.621,-4.953 140.491,-5.031C140.257,-5.17 140.039,-5.278 139.835,-5.356C139.631,-5.434 139.378,-5.473 139.074,-5.473C138.71,-5.473 138.418,-5.395 138.197,-5.239C137.976,-5.083 137.865,-4.871 137.865,-4.602C137.865,-4.359 137.967,-4.171 138.171,-4.037C138.375,-3.902 138.758,-3.774 139.321,-3.653C139.902,-3.532 140.357,-3.393 140.686,-3.237C141.016,-3.081 141.252,-2.888 141.395,-2.659C141.538,-2.429 141.609,-2.136 141.609,-1.781C141.609,-1.218 141.373,-0.765 140.901,-0.423C140.429,-0.08 139.798,0.091 139.009,0.091C138.125,0.091 137.402,-0.091 136.838,-0.455Z" style="fill-rule:nonzero;"/>
            </g>
        </g>
    </g>
</svg>
