<?xml version="1.0" encoding="UTF-8" standalone="no"?>
<!DOCTYPE svg PUBLIC "-//W3C//DTD SVG 1.1//EN" "http://www.w3.org/Graphics/SVG/1.1/DTD/svg11.dtd">
<svg width="100%" height="100%" viewBox="0 0 36 14" version="1.1" xmlns="http://www.w3.org/2000/svg" xmlns:xlink="http://www.w3.org/1999/xlink" xml:space="preserve" xmlns:serif="http://www.serif.com/" style="fill-rule:evenodd;clip-rule:evenodd;stroke-linejoin:round;stroke-miterlimit:1.41421;">
    <g transform="matrix(1,0,0,1,-466,-653)">
        <g transform="matrix(1,0,0,1,0,-7)">
            <g transform="matrix(1,0,0,1,466,673)">
                <g id="VPN">
                    <path d="M11.133,-12.708C11.247,-12.78 11.37,-12.816 11.502,-12.816C11.694,-12.816 11.865,-12.753 12.015,-12.627C12.165,-12.501 12.24,-12.348 12.24,-12.168C12.24,-12.072 12.216,-11.976 12.168,-11.88L7.002,-0.396C6.93,-0.24 6.822,-0.12 6.678,-0.036C6.534,0.048 6.378,0.09 6.21,0.09C6.042,0.09 5.886,0.048 5.742,-0.036C5.598,-0.12 5.49,-0.24 5.418,-0.396L0.27,-11.88C0.234,-11.976 0.216,-12.066 0.216,-12.15C0.216,-12.342 0.294,-12.501 0.45,-12.627C0.606,-12.753 0.78,-12.816 0.972,-12.816C1.26,-12.816 1.47,-12.678 1.602,-12.402L6.246,-1.908L10.872,-12.402C10.932,-12.534 11.019,-12.636 11.133,-12.708Z" style="fill-rule:nonzero;"/>
                    <path d="M14.175,-0.117C14.043,-0.255 13.977,-0.438 13.977,-0.666L13.977,-11.97C13.977,-12.186 14.046,-12.36 14.184,-12.492C14.322,-12.624 14.505,-12.69 14.733,-12.69L18.999,-12.69C20.331,-12.69 21.366,-12.366 22.104,-11.718C22.842,-11.07 23.211,-10.152 23.211,-8.964C23.211,-7.776 22.839,-6.852 22.095,-6.192C21.351,-5.532 20.319,-5.202 18.999,-5.202L15.453,-5.202L15.453,-0.666C15.453,-0.438 15.387,-0.255 15.255,-0.117C15.123,0.021 14.943,0.09 14.715,0.09C14.487,0.09 14.307,0.021 14.175,-0.117ZM18.855,-6.426C20.787,-6.426 21.753,-7.272 21.753,-8.964C21.753,-10.632 20.787,-11.466 18.855,-11.466L15.453,-11.466L15.453,-6.426L18.855,-6.426Z" style="fill-rule:nonzero;"/>
                    <path d="M35.55,-12.573C35.67,-12.435 35.73,-12.252 35.73,-12.024L35.73,-0.666C35.73,-0.438 35.667,-0.255 35.541,-0.117C35.415,0.021 35.238,0.09 35.01,0.09C34.782,0.09 34.584,-0.012 34.416,-0.216L26.946,-10.206L26.946,-0.666C26.946,-0.438 26.883,-0.255 26.757,-0.117C26.631,0.021 26.46,0.09 26.244,0.09C26.028,0.09 25.86,0.021 25.74,-0.117C25.62,-0.255 25.56,-0.438 25.56,-0.666L25.56,-12.024C25.56,-12.252 25.623,-12.435 25.749,-12.573C25.875,-12.711 26.052,-12.78 26.28,-12.78C26.52,-12.78 26.724,-12.678 26.892,-12.474L34.344,-2.484L34.344,-12.024C34.344,-12.252 34.407,-12.435 34.533,-12.573C34.659,-12.711 34.83,-12.78 35.046,-12.78C35.262,-12.78 35.43,-12.711 35.55,-12.573Z" style="fill-rule:nonzero;"/>
                </g>
            </g>
        </g>
    </g>
</svg>
