<?xml version="1.0" encoding="UTF-8" standalone="no"?>
<svg width="113px" height="97px" viewBox="0 0 113 97" version="1.1" xmlns="http://www.w3.org/2000/svg" xmlns:xlink="http://www.w3.org/1999/xlink">
    <!-- Generator: Sketch 50 (54983) - http://www.bohemiancoding.com/sketch -->
    <title>Wireless_VoIP_Phone</title>
    <desc>Created with Sketch.</desc>
    <defs></defs>
    <g id="Page-1" stroke="none" stroke-width="1" fill="none" fill-rule="evenodd">
        <g id="Wireless_VoIP_Phone">
            <path d="M47.7883204,74.5289575 C47.7625567,74.522948 47.736793,74.5169384 47.7110294,74.5089257 C38.2141449,72.4035823 27.4786226,65.8531797 18.249284,56.5283713 C9.20821826,47.3838491 2.69397387,36.8010428 0.371280095,27.4922598 C0.369298274,27.4862502 0.327680041,27.3460275 0.194898059,26.4946755 C0.143370723,26.1721633 0.0858979246,25.7534985 0.0621160771,25.6112726 C-0.227229734,23.5459928 0.506043897,21.4326366 2.01619121,19.9082157 L7.52367073,14.3373688 C8.8078905,13.035301 10.5400017,12.2921208 12.272113,12.2921208 C13.817933,12.2921208 15.2507894,12.8750465 16.3031361,13.9387357 L24.6267827,22.3561032 C25.7702932,23.5099355 26.347003,25.0884423 26.247912,26.7971559 C26.1527846,28.4397645 25.4373474,30.0142649 24.2343822,31.2301959 L19.1847033,36.3322984 L18.7546482,36.7950333 L18.4236842,37.1295645 C21.1110329,41.003717 24.0183638,44.531319 27.0723494,47.6202245 C30.5960265,51.1798775 34.3931948,54.1465888 37.2390892,56.1798177 L43.0715873,50.2844555 C44.3637343,48.9803845 46.101791,48.2331979 47.8398477,48.2331979 C49.383686,48.2331979 50.8066332,48.8161236 51.8550163,49.8718001 L60.2143357,58.3172121 C60.3510813,58.4574348 60.4521542,58.6196924 60.5730452,58.769931 C54.7742381,62.6440835 50.344869,68.1388095 47.7883204,74.5289575 Z M46.6475844,38.3583159 C46.6436208,38.3102395 46.6396572,38.2621632 46.6396572,38.21609 C46.6396572,35.3435282 45.5357831,32.6452431 43.5301806,30.6220301 C41.5285418,28.5948107 38.8610112,27.4790388 36.0250259,27.4790388 C35.9774622,27.4790388 35.9298985,27.4770356 35.880353,27.471026 C34.5346968,27.3368129 32.5290943,26.2871459 32.5290943,23.9454271 C32.5290943,21.6037083 34.5346968,20.550035 35.880353,20.4158218 C35.9298985,20.4118155 36.0289895,20.4078091 36.0289895,20.4078091 C40.7358135,20.4118155 45.1592371,22.2647581 48.4807685,25.6280993 C51.8062635,28.9834278 53.6374658,33.4545283 53.6374658,38.21609 C53.6374658,38.2681727 53.635484,38.3202554 53.6295385,38.3703349 C53.4908111,39.7345013 52.4463916,41.7617207 50.1415342,41.7617207 C47.812895,41.7617207 46.774421,39.7264886 46.6475844,38.3583159 Z M56.1771689,34.7970603 C55.336877,30.6484721 53.325329,26.8384214 50.3010708,23.7815669 C46.2244657,19.6610232 40.8041863,17.3914189 35.0410519,17.3914189 C34.97367,17.3914189 34.9062881,17.3874125 34.8389062,17.3793998 C33.6775593,17.2191453 31.4817021,16.2636279 31.4817021,13.7957086 C31.4817021,11.3277894 33.6755775,10.3722719 34.8369244,10.2120174 C34.9043063,10.2040047 34.9697064,10.1999984 35.0370883,10.1999984 C42.7067341,10.1999984 49.9126339,13.2167892 55.3289497,18.6934866 C57.3484249,20.7367315 59.027027,23.0323771 60.3429559,25.5103123 C58.375008,28.248661 56.9342244,31.3896491 56.1771689,34.7970603 Z M62.1914,23.226886 C60.8179983,20.9072022 59.1849781,18.7237347 57.2447757,16.7626203 C51.0515862,10.5106918 42.8270306,7.0652201 34.083238,7.0652201 C34.0277471,7.0652201 33.9365833,7.06321691 33.8810923,7.05520419 C32.2639267,6.86690516 30.5238882,5.69304097 30.5238882,3.56165617 C30.5238882,1.14381647 32.692,0.18429267 33.8355105,0.0140222684 C33.9088378,0.0040063624 33.9782015,0 34.0515289,0 C44.6701238,0 54.6624634,4.18264235 62.1914,11.7787055 C64.290148,13.896068 66.0955866,16.2277709 67.6513158,18.6976933 C65.6239133,19.9456752 63.7887474,21.4700961 62.1914,23.226886 Z" id="Combined-Shape" fill="#646566"></path>
            <path d="M106.049311,85.6108563 C99.8818517,89.4904331 85.6649649,90.1074117 80.7210817,90.0375274 L80.6695209,90.0355307 L80.6199433,90.0355307 C75.6760601,90.105415 61.4750381,89.4105654 55.2342036,85.4990415 C56.1186689,72.4406614 67.049549,62.5929657 80.6596054,62.5929657 C94.2815604,62.5929657 105.212441,72.4486482 106.08699,85.5170117 C106.090957,85.5589423 106.069142,85.5988762 106.049311,85.6108563 M80.6596054,24.9353132 C89.0659917,24.9353132 95.901758,31.8199148 95.901758,40.2819048 C95.901758,48.7438948 89.0659917,55.6284963 80.6596054,55.6284963 C72.2552023,55.6284963 65.4194359,48.7438948 65.4194359,40.2819048 C65.4194359,31.8199148 72.2552023,24.9353132 80.6596054,24.9353132 M93.767936,58.2501558 C99.2492409,54.1848864 102.812882,47.645713 102.812882,40.2819048 C102.812882,27.9822686 92.8755383,17.976834 80.6596054,17.976834 C68.4456557,17.976834 58.5083116,27.9822686 58.5083116,40.2819048 C58.5083116,47.645713 62.071953,54.1868831 67.5552411,58.2501558 C56.7849925,62.7846483 49.1678824,72.8040598 48.3389441,85.0238282 C48.1604645,87.6594646 49.4336186,90.1473455 51.6606466,91.5210711 C60.6778295,97.0778711 79.3071271,97.0179702 80.6496899,96.9960066 C80.7706594,96.9980033 81.02648,97 81.4052533,97 C85.2524789,97 101.492134,96.6845223 109.712108,91.5130844 C111.90344,90.1333687 113.156763,87.6574679 112.984233,85.051782 L112.984233,85.0497853 C112.16521,72.81604 104.544134,62.7846483 93.767936,58.2501558" id="Fill-32" fill="#015E85"></path>
        </g>
    </g>
</svg>