<?xml version="1.0" encoding="UTF-8" standalone="no"?>
<svg width="871px" height="388px" viewBox="0 0 871 388" version="1.1" xmlns="http://www.w3.org/2000/svg" xmlns:xlink="http://www.w3.org/1999/xlink">
    <!-- Generator: Sketch 50.2 (55047) - http://www.bohemiancoding.com/sketch -->
    <title>Combined Shape2</title>
    <desc>Created with Sketch.</desc>
    <defs></defs>
    <g id="Page-1" stroke="none" stroke-width="1" fill="none" fill-rule="evenodd">
        <path d="M3.5,8 C3.5,8.82842712 2.82842712,9.5 2,9.5 C1.17157288,9.5 0.5,8.82842712 0.5,8 C0.5,7.58062699 0.534568282,7.16498643 0.602894249,6.75622557 C0.73947416,5.93913474 1.51257705,5.38747164 2.32966788,5.52405155 C3.14675871,5.66063146 3.69842182,6.43373435 3.5618419,7.25082518 C3.52080972,7.49630066 3.5,7.74651168 3.5,8 Z M13.6345087,3.5 C12.8060816,3.5 12.1345087,2.82842712 12.1345087,2 C12.1345087,1.17157288 12.8060816,0.5 13.6345087,0.5 L14.6345087,0.5 C15.4629359,0.5 16.1345087,1.17157288 16.1345087,2 C16.1345087,2.82842712 15.4629359,3.5 14.6345087,3.5 L13.6345087,3.5 Z M28.6345087,3.5 C27.8060816,3.5 27.1345087,2.82842712 27.1345087,2 C27.1345087,1.17157288 27.8060816,0.5 28.6345087,0.5 L29.6345087,0.5 C30.4629359,0.5 31.1345087,1.17157288 31.1345087,2 C31.1345087,2.82842712 30.4629359,3.5 29.6345087,3.5 L28.6345087,3.5 Z M43.6345087,3.5 C42.8060816,3.5 42.1345087,2.82842712 42.1345087,2 C42.1345087,1.17157288 42.8060816,0.5 43.6345087,0.5 L44.6345087,0.5 C45.4629359,0.5 46.1345087,1.17157288 46.1345087,2 C46.1345087,2.82842712 45.4629359,3.5 44.6345087,3.5 L43.6345087,3.5 Z M58.6345087,3.5 C57.8060816,3.5 57.1345087,2.82842712 57.1345087,2 C57.1345087,1.17157288 57.8060816,0.5 58.6345087,0.5 L59.6345087,0.5 C60.4629359,0.5 61.1345087,1.17157288 61.1345087,2 C61.1345087,2.82842712 60.4629359,3.5 59.6345087,3.5 L58.6345087,3.5 Z M73.6345087,3.5 C72.8060816,3.5 72.1345087,2.82842712 72.1345087,2 C72.1345087,1.17157288 72.8060816,0.5 73.6345087,0.5 L74.6345087,0.5 C75.4629359,0.5 76.1345087,1.17157288 76.1345087,2 C76.1345087,2.82842712 75.4629359,3.5 74.6345087,3.5 L73.6345087,3.5 Z M88.6345087,3.5 C87.8060816,3.5 87.1345087,2.82842712 87.1345087,2 C87.1345087,1.17157288 87.8060816,0.5 88.6345087,0.5 L89.6345087,0.5 C90.4629359,0.5 91.1345087,1.17157288 91.1345087,2 C91.1345087,2.82842712 90.4629359,3.5 89.6345087,3.5 L88.6345087,3.5 Z M103.634509,3.5 C102.806082,3.5 102.134509,2.82842712 102.134509,2 C102.134509,1.17157288 102.806082,0.5 103.634509,0.5 L104.634509,0.5 C105.462936,0.5 106.134509,1.17157288 106.134509,2 C106.134509,2.82842712 105.462936,3.5 104.634509,3.5 L103.634509,3.5 Z M118.634509,3.5 C117.806082,3.5 117.134509,2.82842712 117.134509,2 C117.134509,1.17157288 117.806082,0.5 118.634509,0.5 L119.634509,0.5 C120.462936,0.5 121.134509,1.17157288 121.134509,2 C121.134509,2.82842712 120.462936,3.5 119.634509,3.5 L118.634509,3.5 Z M133.634509,3.5 C132.806082,3.5 132.134509,2.82842712 132.134509,2 C132.134509,1.17157288 132.806082,0.5 133.634509,0.5 L134.634509,0.5 C135.462936,0.5 136.134509,1.17157288 136.134509,2 C136.134509,2.82842712 135.462936,3.5 134.634509,3.5 L133.634509,3.5 Z M148.634509,3.5 C147.806082,3.5 147.134509,2.82842712 147.134509,2 C147.134509,1.17157288 147.806082,0.5 148.634509,0.5 L149.634509,0.5 C150.462936,0.5 151.134509,1.17157288 151.134509,2 C151.134509,2.82842712 150.462936,3.5 149.634509,3.5 L148.634509,3.5 Z M163.634509,3.5 C162.806082,3.5 162.134509,2.82842712 162.134509,2 C162.134509,1.17157288 162.806082,0.5 163.634509,0.5 L164.634509,0.5 C165.462936,0.5 166.134509,1.17157288 166.134509,2 C166.134509,2.82842712 165.462936,3.5 164.634509,3.5 L163.634509,3.5 Z M178.634509,3.5 C177.806082,3.5 177.134509,2.82842712 177.134509,2 C177.134509,1.17157288 177.806082,0.5 178.634509,0.5 L179.634509,0.5 C180.462936,0.5 181.134509,1.17157288 181.134509,2 C181.134509,2.82842712 180.462936,3.5 179.634509,3.5 L178.634509,3.5 Z M193.634509,3.5 C192.806082,3.5 192.134509,2.82842712 192.134509,2 C192.134509,1.17157288 192.806082,0.5 193.634509,0.5 L194.634509,0.5 C195.462936,0.5 196.134509,1.17157288 196.134509,2 C196.134509,2.82842712 195.462936,3.5 194.634509,3.5 L193.634509,3.5 Z M208.634509,3.5 C207.806082,3.5 207.134509,2.82842712 207.134509,2 C207.134509,1.17157288 207.806082,0.5 208.634509,0.5 L209.634509,0.5 C210.462936,0.5 211.134509,1.17157288 211.134509,2 C211.134509,2.82842712 210.462936,3.5 209.634509,3.5 L208.634509,3.5 Z M223.634509,3.5 C222.806082,3.5 222.134509,2.82842712 222.134509,2 C222.134509,1.17157288 222.806082,0.5 223.634509,0.5 L224.634509,0.5 C225.462936,0.5 226.134509,1.17157288 226.134509,2 C226.134509,2.82842712 225.462936,3.5 224.634509,3.5 L223.634509,3.5 Z M238.634509,3.5 C237.806082,3.5 237.134509,2.82842712 237.134509,2 C237.134509,1.17157288 237.806082,0.5 238.634509,0.5 L239.634509,0.5 C240.462936,0.5 241.134509,1.17157288 241.134509,2 C241.134509,2.82842712 240.462936,3.5 239.634509,3.5 L238.634509,3.5 Z M253.634509,3.5 C252.806082,3.5 252.134509,2.82842712 252.134509,2 C252.134509,1.17157288 252.806082,0.5 253.634509,0.5 L254.634509,0.5 C255.462936,0.5 256.134509,1.17157288 256.134509,2 C256.134509,2.82842712 255.462936,3.5 254.634509,3.5 L253.634509,3.5 Z M268.634509,3.5 C267.806082,3.5 267.134509,2.82842712 267.134509,2 C267.134509,1.17157288 267.806082,0.5 268.634509,0.5 L269.634509,0.5 C270.462936,0.5 271.134509,1.17157288 271.134509,2 C271.134509,2.82842712 270.462936,3.5 269.634509,3.5 L268.634509,3.5 Z M283.634509,3.5 C282.806082,3.5 282.134509,2.82842712 282.134509,2 C282.134509,1.17157288 282.806082,0.5 283.634509,0.5 L284.634509,0.5 C285.462936,0.5 286.134509,1.17157288 286.134509,2 C286.134509,2.82842712 285.462936,3.5 284.634509,3.5 L283.634509,3.5 Z M298.634509,3.5 C297.806082,3.5 297.134509,2.82842712 297.134509,2 C297.134509,1.17157288 297.806082,0.5 298.634509,0.5 L299.634509,0.5 C300.462936,0.5 301.134509,1.17157288 301.134509,2 C301.134509,2.82842712 300.462936,3.5 299.634509,3.5 L298.634509,3.5 Z M313.634509,3.5 C312.806082,3.5 312.134509,2.82842712 312.134509,2 C312.134509,1.17157288 312.806082,0.5 313.634509,0.5 L314.634509,0.5 C315.462936,0.5 316.134509,1.17157288 316.134509,2 C316.134509,2.82842712 315.462936,3.5 314.634509,3.5 L313.634509,3.5 Z M328.634509,3.5 C327.806082,3.5 327.134509,2.82842712 327.134509,2 C327.134509,1.17157288 327.806082,0.5 328.634509,0.5 L329.634509,0.5 C330.462936,0.5 331.134509,1.17157288 331.134509,2 C331.134509,2.82842712 330.462936,3.5 329.634509,3.5 L328.634509,3.5 Z M343.634509,3.5 C342.806082,3.5 342.134509,2.82842712 342.134509,2 C342.134509,1.17157288 342.806082,0.5 343.634509,0.5 L344.634509,0.5 C345.462936,0.5 346.134509,1.17157288 346.134509,2 C346.134509,2.82842712 345.462936,3.5 344.634509,3.5 L343.634509,3.5 Z M358.634509,3.5 C357.806082,3.5 357.134509,2.82842712 357.134509,2 C357.134509,1.17157288 357.806082,0.5 358.634509,0.5 L359.634509,0.5 C360.462936,0.5 361.134509,1.17157288 361.134509,2 C361.134509,2.82842712 360.462936,3.5 359.634509,3.5 L358.634509,3.5 Z M373.634509,3.5 C372.806082,3.5 372.134509,2.82842712 372.134509,2 C372.134509,1.17157288 372.806082,0.5 373.634509,0.5 L374.634509,0.5 C375.462936,0.5 376.134509,1.17157288 376.134509,2 C376.134509,2.82842712 375.462936,3.5 374.634509,3.5 L373.634509,3.5 Z M388.634509,3.5 C387.806082,3.5 387.134509,2.82842712 387.134509,2 C387.134509,1.17157288 387.806082,0.5 388.634509,0.5 L389.634509,0.5 C390.462936,0.5 391.134509,1.17157288 391.134509,2 C391.134509,2.82842712 390.462936,3.5 389.634509,3.5 L388.634509,3.5 Z M403.634509,3.5 C402.806082,3.5 402.134509,2.82842712 402.134509,2 C402.134509,1.17157288 402.806082,0.5 403.634509,0.5 L404.634509,0.5 C405.462936,0.5 406.134509,1.17157288 406.134509,2 C406.134509,2.82842712 405.462936,3.5 404.634509,3.5 L403.634509,3.5 Z M418.634509,3.5 C417.806082,3.5 417.134509,2.82842712 417.134509,2 C417.134509,1.17157288 417.806082,0.5 418.634509,0.5 L419.634509,0.5 C420.462936,0.5 421.134509,1.17157288 421.134509,2 C421.134509,2.82842712 420.462936,3.5 419.634509,3.5 L418.634509,3.5 Z M433.634509,3.5 C432.806082,3.5 432.134509,2.82842712 432.134509,2 C432.134509,1.17157288 432.806082,0.5 433.634509,0.5 L434.634509,0.5 C435.462936,0.5 436.134509,1.17157288 436.134509,2 C436.134509,2.82842712 435.462936,3.5 434.634509,3.5 L433.634509,3.5 Z M448.634509,3.5 C447.806082,3.5 447.134509,2.82842712 447.134509,2 C447.134509,1.17157288 447.806082,0.5 448.634509,0.5 L449.634509,0.5 C450.462936,0.5 451.134509,1.17157288 451.134509,2 C451.134509,2.82842712 450.462936,3.5 449.634509,3.5 L448.634509,3.5 Z M463.634509,3.5 C462.806082,3.5 462.134509,2.82842712 462.134509,2 C462.134509,1.17157288 462.806082,0.5 463.634509,0.5 L464.634509,0.5 C465.462936,0.5 466.134509,1.17157288 466.134509,2 C466.134509,2.82842712 465.462936,3.5 464.634509,3.5 L463.634509,3.5 Z M478.634509,3.5 C477.806082,3.5 477.134509,2.82842712 477.134509,2 C477.134509,1.17157288 477.806082,0.5 478.634509,0.5 L479.634509,0.5 C480.462936,0.5 481.134509,1.17157288 481.134509,2 C481.134509,2.82842712 480.462936,3.5 479.634509,3.5 L478.634509,3.5 Z M493.634509,3.5 C492.806082,3.5 492.134509,2.82842712 492.134509,2 C492.134509,1.17157288 492.806082,0.5 493.634509,0.5 L494.634509,0.5 C495.462936,0.5 496.134509,1.17157288 496.134509,2 C496.134509,2.82842712 495.462936,3.5 494.634509,3.5 L493.634509,3.5 Z M508.634509,3.5 C507.806082,3.5 507.134509,2.82842712 507.134509,2 C507.134509,1.17157288 507.806082,0.5 508.634509,0.5 L509.634509,0.5 C510.462936,0.5 511.134509,1.17157288 511.134509,2 C511.134509,2.82842712 510.462936,3.5 509.634509,3.5 L508.634509,3.5 Z M523.634509,3.5 C522.806082,3.5 522.134509,2.82842712 522.134509,2 C522.134509,1.17157288 522.806082,0.5 523.634509,0.5 L524.634509,0.5 C525.462936,0.5 526.134509,1.17157288 526.134509,2 C526.134509,2.82842712 525.462936,3.5 524.634509,3.5 L523.634509,3.5 Z M538.634509,3.5 C537.806082,3.5 537.134509,2.82842712 537.134509,2 C537.134509,1.17157288 537.806082,0.5 538.634509,0.5 L539.634509,0.5 C540.462936,0.5 541.134509,1.17157288 541.134509,2 C541.134509,2.82842712 540.462936,3.5 539.634509,3.5 L538.634509,3.5 Z M553.634509,3.5 C552.806082,3.5 552.134509,2.82842712 552.134509,2 C552.134509,1.17157288 552.806082,0.5 553.634509,0.5 L554.634509,0.5 C555.462936,0.5 556.134509,1.17157288 556.134509,2 C556.134509,2.82842712 555.462936,3.5 554.634509,3.5 L553.634509,3.5 Z M568.634509,3.5 C567.806082,3.5 567.134509,2.82842712 567.134509,2 C567.134509,1.17157288 567.806082,0.5 568.634509,0.5 L569.634509,0.5 C570.462936,0.5 571.134509,1.17157288 571.134509,2 C571.134509,2.82842712 570.462936,3.5 569.634509,3.5 L568.634509,3.5 Z M583.634509,3.5 C582.806082,3.5 582.134509,2.82842712 582.134509,2 C582.134509,1.17157288 582.806082,0.5 583.634509,0.5 L584.634509,0.5 C585.462936,0.5 586.134509,1.17157288 586.134509,2 C586.134509,2.82842712 585.462936,3.5 584.634509,3.5 L583.634509,3.5 Z M598.634509,3.5 C597.806082,3.5 597.134509,2.82842712 597.134509,2 C597.134509,1.17157288 597.806082,0.5 598.634509,0.5 L599.634509,0.5 C600.462936,0.5 601.134509,1.17157288 601.134509,2 C601.134509,2.82842712 600.462936,3.5 599.634509,3.5 L598.634509,3.5 Z M613.634509,3.5 C612.806082,3.5 612.134509,2.82842712 612.134509,2 C612.134509,1.17157288 612.806082,0.5 613.634509,0.5 L614.634509,0.5 C615.462936,0.5 616.134509,1.17157288 616.134509,2 C616.134509,2.82842712 615.462936,3.5 614.634509,3.5 L613.634509,3.5 Z M628.634509,3.5 C627.806082,3.5 627.134509,2.82842712 627.134509,2 C627.134509,1.17157288 627.806082,0.5 628.634509,0.5 L629.634509,0.5 C630.462936,0.5 631.134509,1.17157288 631.134509,2 C631.134509,2.82842712 630.462936,3.5 629.634509,3.5 L628.634509,3.5 Z M643.634509,3.5 C642.806082,3.5 642.134509,2.82842712 642.134509,2 C642.134509,1.17157288 642.806082,0.5 643.634509,0.5 L644.634509,0.5 C645.462936,0.5 646.134509,1.17157288 646.134509,2 C646.134509,2.82842712 645.462936,3.5 644.634509,3.5 L643.634509,3.5 Z M658.634509,3.5 C657.806082,3.5 657.134509,2.82842712 657.134509,2 C657.134509,1.17157288 657.806082,0.5 658.634509,0.5 L659.634509,0.5 C660.462936,0.5 661.134509,1.17157288 661.134509,2 C661.134509,2.82842712 660.462936,3.5 659.634509,3.5 L658.634509,3.5 Z M673.634509,3.5 C672.806082,3.5 672.134509,2.82842712 672.134509,2 C672.134509,1.17157288 672.806082,0.5 673.634509,0.5 L674.634509,0.5 C675.462936,0.5 676.134509,1.17157288 676.134509,2 C676.134509,2.82842712 675.462936,3.5 674.634509,3.5 L673.634509,3.5 Z M688.634509,3.5 C687.806082,3.5 687.134509,2.82842712 687.134509,2 C687.134509,1.17157288 687.806082,0.5 688.634509,0.5 L689.634509,0.5 C690.462936,0.5 691.134509,1.17157288 691.134509,2 C691.134509,2.82842712 690.462936,3.5 689.634509,3.5 L688.634509,3.5 Z M703.634509,3.5 C702.806082,3.5 702.134509,2.82842712 702.134509,2 C702.134509,1.17157288 702.806082,0.5 703.634509,0.5 L704.634509,0.5 C705.462936,0.5 706.134509,1.17157288 706.134509,2 C706.134509,2.82842712 705.462936,3.5 704.634509,3.5 L703.634509,3.5 Z M718.634509,3.5 C717.806082,3.5 717.134509,2.82842712 717.134509,2 C717.134509,1.17157288 717.806082,0.5 718.634509,0.5 L719.634509,0.5 C720.462936,0.5 721.134509,1.17157288 721.134509,2 C721.134509,2.82842712 720.462936,3.5 719.634509,3.5 L718.634509,3.5 Z M733.634509,3.5 C732.806082,3.5 732.134509,2.82842712 732.134509,2 C732.134509,1.17157288 732.806082,0.5 733.634509,0.5 L734.634509,0.5 C735.462936,0.5 736.134509,1.17157288 736.134509,2 C736.134509,2.82842712 735.462936,3.5 734.634509,3.5 L733.634509,3.5 Z M748.634509,3.5 C747.806082,3.5 747.134509,2.82842712 747.134509,2 C747.134509,1.17157288 747.806082,0.5 748.634509,0.5 L749.634509,0.5 C750.462936,0.5 751.134509,1.17157288 751.134509,2 C751.134509,2.82842712 750.462936,3.5 749.634509,3.5 L748.634509,3.5 Z M763.634509,3.5 C762.806082,3.5 762.134509,2.82842712 762.134509,2 C762.134509,1.17157288 762.806082,0.5 763.634509,0.5 L764.634509,0.5 C765.462936,0.5 766.134509,1.17157288 766.134509,2 C766.134509,2.82842712 765.462936,3.5 764.634509,3.5 L763.634509,3.5 Z M778.634509,3.5 C777.806082,3.5 777.134509,2.82842712 777.134509,2 C777.134509,1.17157288 777.806082,0.5 778.634509,0.5 L779.634509,0.5 C780.462936,0.5 781.134509,1.17157288 781.134509,2 C781.134509,2.82842712 780.462936,3.5 779.634509,3.5 L778.634509,3.5 Z M793.634509,3.5 C792.806082,3.5 792.134509,2.82842712 792.134509,2 C792.134509,1.17157288 792.806082,0.5 793.634509,0.5 L794.634509,0.5 C795.462936,0.5 796.134509,1.17157288 796.134509,2 C796.134509,2.82842712 795.462936,3.5 794.634509,3.5 L793.634509,3.5 Z M808.634509,3.5 C807.806082,3.5 807.134509,2.82842712 807.134509,2 C807.134509,1.17157288 807.806082,0.5 808.634509,0.5 L809.634509,0.5 C810.462936,0.5 811.134509,1.17157288 811.134509,2 C811.134509,2.82842712 810.462936,3.5 809.634509,3.5 L808.634509,3.5 Z M823.634509,3.5 C822.806082,3.5 822.134509,2.82842712 822.134509,2 C822.134509,1.17157288 822.806082,0.5 823.634509,0.5 L824.634509,0.5 C825.462936,0.5 826.134509,1.17157288 826.134509,2 C826.134509,2.82842712 825.462936,3.5 824.634509,3.5 L823.634509,3.5 Z M838.634509,3.5 C837.806082,3.5 837.134509,2.82842712 837.134509,2 C837.134509,1.17157288 837.806082,0.5 838.634509,0.5 L839.634509,0.5 C840.462936,0.5 841.134509,1.17157288 841.134509,2 C841.134509,2.82842712 840.462936,3.5 839.634509,3.5 L838.634509,3.5 Z M853.634509,3.5 C852.806082,3.5 852.134509,2.82842712 852.134509,2 C852.134509,1.17157288 852.806082,0.5 853.634509,0.5 L854.634509,0.5 C855.462936,0.5 856.134509,1.17157288 856.134509,2 C856.134509,2.82842712 855.462936,3.5 854.634509,3.5 L853.634509,3.5 Z M866.655713,5.37515369 C866.171791,4.70276181 866.324576,3.76538407 866.996968,3.28146191 C867.66936,2.79753974 868.606737,2.95032464 869.09066,3.62271652 C869.334352,3.96131788 869.549575,4.31979802 869.733807,4.69454419 C870.099298,5.43798773 869.792906,6.33695627 869.049463,6.70244663 C868.306019,7.06793698 867.40705,6.76154539 867.04156,6.01810185 C866.931152,5.79352061 866.80204,5.57846871 866.655713,5.37515369 Z M867.5,19.2690175 C867.5,18.4405904 868.171573,17.7690175 869,17.7690175 C869.828427,17.7690175 870.5,18.4405904 870.5,19.2690175 L870.5,20.2690175 C870.5,21.0974446 869.828427,21.7690175 869,21.7690175 C868.171573,21.7690175 867.5,21.0974446 867.5,20.2690175 L867.5,19.2690175 Z M867.5,34.2690175 C867.5,33.4405904 868.171573,32.7690175 869,32.7690175 C869.828427,32.7690175 870.5,33.4405904 870.5,34.2690175 L870.5,35.2690175 C870.5,36.0974446 869.828427,36.7690175 869,36.7690175 C868.171573,36.7690175 867.5,36.0974446 867.5,35.2690175 L867.5,34.2690175 Z M867.5,49.2690175 C867.5,48.4405904 868.171573,47.7690175 869,47.7690175 C869.828427,47.7690175 870.5,48.4405904 870.5,49.2690175 L870.5,50.2690175 C870.5,51.0974446 869.828427,51.7690175 869,51.7690175 C868.171573,51.7690175 867.5,51.0974446 867.5,50.2690175 L867.5,49.2690175 Z M867.5,64.2690175 C867.5,63.4405904 868.171573,62.7690175 869,62.7690175 C869.828427,62.7690175 870.5,63.4405904 870.5,64.2690175 L870.5,65.2690175 C870.5,66.0974446 869.828427,66.7690175 869,66.7690175 C868.171573,66.7690175 867.5,66.0974446 867.5,65.2690175 L867.5,64.2690175 Z M867.5,79.2690175 C867.5,78.4405904 868.171573,77.7690175 869,77.7690175 C869.828427,77.7690175 870.5,78.4405904 870.5,79.2690175 L870.5,80.2690175 C870.5,81.0974446 869.828427,81.7690175 869,81.7690175 C868.171573,81.7690175 867.5,81.0974446 867.5,80.2690175 L867.5,79.2690175 Z M867.5,94.2690175 C867.5,93.4405904 868.171573,92.7690175 869,92.7690175 C869.828427,92.7690175 870.5,93.4405904 870.5,94.2690175 L870.5,95.2690175 C870.5,96.0974446 869.828427,96.7690175 869,96.7690175 C868.171573,96.7690175 867.5,96.0974446 867.5,95.2690175 L867.5,94.2690175 Z M867.5,109.269017 C867.5,108.44059 868.171573,107.769017 869,107.769017 C869.828427,107.769017 870.5,108.44059 870.5,109.269017 L870.5,110.269017 C870.5,111.097445 869.828427,111.769017 869,111.769017 C868.171573,111.769017 867.5,111.097445 867.5,110.269017 L867.5,109.269017 Z M867.5,124.269017 C867.5,123.44059 868.171573,122.769017 869,122.769017 C869.828427,122.769017 870.5,123.44059 870.5,124.269017 L870.5,125.269017 C870.5,126.097445 869.828427,126.769017 869,126.769017 C868.171573,126.769017 867.5,126.097445 867.5,125.269017 L867.5,124.269017 Z M867.5,139.269017 C867.5,138.44059 868.171573,137.769017 869,137.769017 C869.828427,137.769017 870.5,138.44059 870.5,139.269017 L870.5,140.269017 C870.5,141.097445 869.828427,141.769017 869,141.769017 C868.171573,141.769017 867.5,141.097445 867.5,140.269017 L867.5,139.269017 Z M867.5,154.269017 C867.5,153.44059 868.171573,152.769017 869,152.769017 C869.828427,152.769017 870.5,153.44059 870.5,154.269017 L870.5,155.269017 C870.5,156.097445 869.828427,156.769017 869,156.769017 C868.171573,156.769017 867.5,156.097445 867.5,155.269017 L867.5,154.269017 Z M867.5,169.269017 C867.5,168.44059 868.171573,167.769017 869,167.769017 C869.828427,167.769017 870.5,168.44059 870.5,169.269017 L870.5,170.269017 C870.5,171.097445 869.828427,171.769017 869,171.769017 C868.171573,171.769017 867.5,171.097445 867.5,170.269017 L867.5,169.269017 Z M867.5,184.269017 C867.5,183.44059 868.171573,182.769017 869,182.769017 C869.828427,182.769017 870.5,183.44059 870.5,184.269017 L870.5,185.269017 C870.5,186.097445 869.828427,186.769017 869,186.769017 C868.171573,186.769017 867.5,186.097445 867.5,185.269017 L867.5,184.269017 Z M867.5,199.269017 C867.5,198.44059 868.171573,197.769017 869,197.769017 C869.828427,197.769017 870.5,198.44059 870.5,199.269017 L870.5,200.269017 C870.5,201.097445 869.828427,201.769017 869,201.769017 C868.171573,201.769017 867.5,201.097445 867.5,200.269017 L867.5,199.269017 Z M867.5,214.269017 C867.5,213.44059 868.171573,212.769017 869,212.769017 C869.828427,212.769017 870.5,213.44059 870.5,214.269017 L870.5,215.269017 C870.5,216.097445 869.828427,216.769017 869,216.769017 C868.171573,216.769017 867.5,216.097445 867.5,215.269017 L867.5,214.269017 Z M867.5,229.269017 C867.5,228.44059 868.171573,227.769017 869,227.769017 C869.828427,227.769017 870.5,228.44059 870.5,229.269017 L870.5,230.269017 C870.5,231.097445 869.828427,231.769017 869,231.769017 C868.171573,231.769017 867.5,231.097445 867.5,230.269017 L867.5,229.269017 Z M867.5,244.269017 C867.5,243.44059 868.171573,242.769017 869,242.769017 C869.828427,242.769017 870.5,243.44059 870.5,244.269017 L870.5,245.269017 C870.5,246.097445 869.828427,246.769017 869,246.769017 C868.171573,246.769017 867.5,246.097445 867.5,245.269017 L867.5,244.269017 Z M867.5,259.269017 C867.5,258.44059 868.171573,257.769017 869,257.769017 C869.828427,257.769017 870.5,258.44059 870.5,259.269017 L870.5,260.269017 C870.5,261.097445 869.828427,261.769017 869,261.769017 C868.171573,261.769017 867.5,261.097445 867.5,260.269017 L867.5,259.269017 Z M867.5,274.269017 C867.5,273.44059 868.171573,272.769017 869,272.769017 C869.828427,272.769017 870.5,273.44059 870.5,274.269017 L870.5,275.269017 C870.5,276.097445 869.828427,276.769017 869,276.769017 C868.171573,276.769017 867.5,276.097445 867.5,275.269017 L867.5,274.269017 Z M867.5,289.269017 C867.5,288.44059 868.171573,287.769017 869,287.769017 C869.828427,287.769017 870.5,288.44059 870.5,289.269017 L870.5,290.269017 C870.5,291.097445 869.828427,291.769017 869,291.769017 C868.171573,291.769017 867.5,291.097445 867.5,290.269017 L867.5,289.269017 Z M867.5,304.269017 C867.5,303.44059 868.171573,302.769017 869,302.769017 C869.828427,302.769017 870.5,303.44059 870.5,304.269017 L870.5,305.269017 C870.5,306.097445 869.828427,306.769017 869,306.769017 C868.171573,306.769017 867.5,306.097445 867.5,305.269017 L867.5,304.269017 Z M867.5,319.269017 C867.5,318.44059 868.171573,317.769017 869,317.769017 C869.828427,317.769017 870.5,318.44059 870.5,319.269017 L870.5,320.269017 C870.5,321.097445 869.828427,321.769017 869,321.769017 C868.171573,321.769017 867.5,321.097445 867.5,320.269017 L867.5,319.269017 Z M867.5,334.269017 C867.5,333.44059 868.171573,332.769017 869,332.769017 C869.828427,332.769017 870.5,333.44059 870.5,334.269017 L870.5,335.269017 C870.5,336.097445 869.828427,336.769017 869,336.769017 C868.171573,336.769017 867.5,336.097445 867.5,335.269017 L867.5,334.269017 Z M867.5,349.269017 C867.5,348.44059 868.171573,347.769017 869,347.769017 C869.828427,347.769017 870.5,348.44059 870.5,349.269017 L870.5,350.269017 C870.5,351.097445 869.828427,351.769017 869,351.769017 C868.171573,351.769017 867.5,351.097445 867.5,350.269017 L867.5,349.269017 Z M867.5,364.269017 C867.5,363.44059 868.171573,362.769017 869,362.769017 C869.828427,362.769017 870.5,363.44059 870.5,364.269017 L870.5,365.269017 C870.5,366.097445 869.828427,366.769017 869,366.769017 C868.171573,366.769017 867.5,366.097445 867.5,365.269017 L867.5,364.269017 Z M867.5,379.269017 C867.5,378.44059 868.171573,377.769017 869,377.769017 C869.828427,377.769017 870.5,378.44059 870.5,379.269017 L870.5,380 C870.5,380.111913 870.497538,380.223587 870.492626,380.334964 C870.456128,381.162587 869.755619,381.80392 868.927996,381.767421 C868.100374,381.730923 867.459041,381.030414 867.49554,380.202791 C867.49851,380.135441 867.5,380.067835 867.5,380 L867.5,379.269017 Z M858.096474,384.5 C858.924901,384.5 859.596474,385.171573 859.596474,386 C859.596474,386.828427 858.924901,387.5 858.096474,387.5 L857.096474,387.5 C856.268047,387.5 855.596474,386.828427 855.596474,386 C855.596474,385.171573 856.268047,384.5 857.096474,384.5 L858.096474,384.5 Z M843.096474,384.5 C843.924901,384.5 844.596474,385.171573 844.596474,386 C844.596474,386.828427 843.924901,387.5 843.096474,387.5 L842.096474,387.5 C841.268047,387.5 840.596474,386.828427 840.596474,386 C840.596474,385.171573 841.268047,384.5 842.096474,384.5 L843.096474,384.5 Z M828.096474,384.5 C828.924901,384.5 829.596474,385.171573 829.596474,386 C829.596474,386.828427 828.924901,387.5 828.096474,387.5 L827.096474,387.5 C826.268047,387.5 825.596474,386.828427 825.596474,386 C825.596474,385.171573 826.268047,384.5 827.096474,384.5 L828.096474,384.5 Z M813.096474,384.5 C813.924901,384.5 814.596474,385.171573 814.596474,386 C814.596474,386.828427 813.924901,387.5 813.096474,387.5 L812.096474,387.5 C811.268047,387.5 810.596474,386.828427 810.596474,386 C810.596474,385.171573 811.268047,384.5 812.096474,384.5 L813.096474,384.5 Z M798.096474,384.5 C798.924901,384.5 799.596474,385.171573 799.596474,386 C799.596474,386.828427 798.924901,387.5 798.096474,387.5 L797.096474,387.5 C796.268047,387.5 795.596474,386.828427 795.596474,386 C795.596474,385.171573 796.268047,384.5 797.096474,384.5 L798.096474,384.5 Z M783.096474,384.5 C783.924901,384.5 784.596474,385.171573 784.596474,386 C784.596474,386.828427 783.924901,387.5 783.096474,387.5 L782.096474,387.5 C781.268047,387.5 780.596474,386.828427 780.596474,386 C780.596474,385.171573 781.268047,384.5 782.096474,384.5 L783.096474,384.5 Z M768.096474,384.5 C768.924901,384.5 769.596474,385.171573 769.596474,386 C769.596474,386.828427 768.924901,387.5 768.096474,387.5 L767.096474,387.5 C766.268047,387.5 765.596474,386.828427 765.596474,386 C765.596474,385.171573 766.268047,384.5 767.096474,384.5 L768.096474,384.5 Z M753.096474,384.5 C753.924901,384.5 754.596474,385.171573 754.596474,386 C754.596474,386.828427 753.924901,387.5 753.096474,387.5 L752.096474,387.5 C751.268047,387.5 750.596474,386.828427 750.596474,386 C750.596474,385.171573 751.268047,384.5 752.096474,384.5 L753.096474,384.5 Z M738.096474,384.5 C738.924901,384.5 739.596474,385.171573 739.596474,386 C739.596474,386.828427 738.924901,387.5 738.096474,387.5 L737.096474,387.5 C736.268047,387.5 735.596474,386.828427 735.596474,386 C735.596474,385.171573 736.268047,384.5 737.096474,384.5 L738.096474,384.5 Z M723.096474,384.5 C723.924901,384.5 724.596474,385.171573 724.596474,386 C724.596474,386.828427 723.924901,387.5 723.096474,387.5 L722.096474,387.5 C721.268047,387.5 720.596474,386.828427 720.596474,386 C720.596474,385.171573 721.268047,384.5 722.096474,384.5 L723.096474,384.5 Z M708.096474,384.5 C708.924901,384.5 709.596474,385.171573 709.596474,386 C709.596474,386.828427 708.924901,387.5 708.096474,387.5 L707.096474,387.5 C706.268047,387.5 705.596474,386.828427 705.596474,386 C705.596474,385.171573 706.268047,384.5 707.096474,384.5 L708.096474,384.5 Z M693.096474,384.5 C693.924901,384.5 694.596474,385.171573 694.596474,386 C694.596474,386.828427 693.924901,387.5 693.096474,387.5 L692.096474,387.5 C691.268047,387.5 690.596474,386.828427 690.596474,386 C690.596474,385.171573 691.268047,384.5 692.096474,384.5 L693.096474,384.5 Z M678.096474,384.5 C678.924901,384.5 679.596474,385.171573 679.596474,386 C679.596474,386.828427 678.924901,387.5 678.096474,387.5 L677.096474,387.5 C676.268047,387.5 675.596474,386.828427 675.596474,386 C675.596474,385.171573 676.268047,384.5 677.096474,384.5 L678.096474,384.5 Z M663.096474,384.5 C663.924901,384.5 664.596474,385.171573 664.596474,386 C664.596474,386.828427 663.924901,387.5 663.096474,387.5 L662.096474,387.5 C661.268047,387.5 660.596474,386.828427 660.596474,386 C660.596474,385.171573 661.268047,384.5 662.096474,384.5 L663.096474,384.5 Z M648.096474,384.5 C648.924901,384.5 649.596474,385.171573 649.596474,386 C649.596474,386.828427 648.924901,387.5 648.096474,387.5 L647.096474,387.5 C646.268047,387.5 645.596474,386.828427 645.596474,386 C645.596474,385.171573 646.268047,384.5 647.096474,384.5 L648.096474,384.5 Z M633.096474,384.5 C633.924901,384.5 634.596474,385.171573 634.596474,386 C634.596474,386.828427 633.924901,387.5 633.096474,387.5 L632.096474,387.5 C631.268047,387.5 630.596474,386.828427 630.596474,386 C630.596474,385.171573 631.268047,384.5 632.096474,384.5 L633.096474,384.5 Z M618.096474,384.5 C618.924901,384.5 619.596474,385.171573 619.596474,386 C619.596474,386.828427 618.924901,387.5 618.096474,387.5 L617.096474,387.5 C616.268047,387.5 615.596474,386.828427 615.596474,386 C615.596474,385.171573 616.268047,384.5 617.096474,384.5 L618.096474,384.5 Z M603.096474,384.5 C603.924901,384.5 604.596474,385.171573 604.596474,386 C604.596474,386.828427 603.924901,387.5 603.096474,387.5 L602.096474,387.5 C601.268047,387.5 600.596474,386.828427 600.596474,386 C600.596474,385.171573 601.268047,384.5 602.096474,384.5 L603.096474,384.5 Z M588.096474,384.5 C588.924901,384.5 589.596474,385.171573 589.596474,386 C589.596474,386.828427 588.924901,387.5 588.096474,387.5 L587.096474,387.5 C586.268047,387.5 585.596474,386.828427 585.596474,386 C585.596474,385.171573 586.268047,384.5 587.096474,384.5 L588.096474,384.5 Z M573.096474,384.5 C573.924901,384.5 574.596474,385.171573 574.596474,386 C574.596474,386.828427 573.924901,387.5 573.096474,387.5 L572.096474,387.5 C571.268047,387.5 570.596474,386.828427 570.596474,386 C570.596474,385.171573 571.268047,384.5 572.096474,384.5 L573.096474,384.5 Z M558.096474,384.5 C558.924901,384.5 559.596474,385.171573 559.596474,386 C559.596474,386.828427 558.924901,387.5 558.096474,387.5 L557.096474,387.5 C556.268047,387.5 555.596474,386.828427 555.596474,386 C555.596474,385.171573 556.268047,384.5 557.096474,384.5 L558.096474,384.5 Z M543.096474,384.5 C543.924901,384.5 544.596474,385.171573 544.596474,386 C544.596474,386.828427 543.924901,387.5 543.096474,387.5 L542.096474,387.5 C541.268047,387.5 540.596474,386.828427 540.596474,386 C540.596474,385.171573 541.268047,384.5 542.096474,384.5 L543.096474,384.5 Z M528.096474,384.5 C528.924901,384.5 529.596474,385.171573 529.596474,386 C529.596474,386.828427 528.924901,387.5 528.096474,387.5 L527.096474,387.5 C526.268047,387.5 525.596474,386.828427 525.596474,386 C525.596474,385.171573 526.268047,384.5 527.096474,384.5 L528.096474,384.5 Z M513.096474,384.5 C513.924901,384.5 514.596474,385.171573 514.596474,386 C514.596474,386.828427 513.924901,387.5 513.096474,387.5 L512.096474,387.5 C511.268047,387.5 510.596474,386.828427 510.596474,386 C510.596474,385.171573 511.268047,384.5 512.096474,384.5 L513.096474,384.5 Z M498.096474,384.5 C498.924901,384.5 499.596474,385.171573 499.596474,386 C499.596474,386.828427 498.924901,387.5 498.096474,387.5 L497.096474,387.5 C496.268047,387.5 495.596474,386.828427 495.596474,386 C495.596474,385.171573 496.268047,384.5 497.096474,384.5 L498.096474,384.5 Z M483.096474,384.5 C483.924901,384.5 484.596474,385.171573 484.596474,386 C484.596474,386.828427 483.924901,387.5 483.096474,387.5 L482.096474,387.5 C481.268047,387.5 480.596474,386.828427 480.596474,386 C480.596474,385.171573 481.268047,384.5 482.096474,384.5 L483.096474,384.5 Z M468.096474,384.5 C468.924901,384.5 469.596474,385.171573 469.596474,386 C469.596474,386.828427 468.924901,387.5 468.096474,387.5 L467.096474,387.5 C466.268047,387.5 465.596474,386.828427 465.596474,386 C465.596474,385.171573 466.268047,384.5 467.096474,384.5 L468.096474,384.5 Z M453.096474,384.5 C453.924901,384.5 454.596474,385.171573 454.596474,386 C454.596474,386.828427 453.924901,387.5 453.096474,387.5 L452.096474,387.5 C451.268047,387.5 450.596474,386.828427 450.596474,386 C450.596474,385.171573 451.268047,384.5 452.096474,384.5 L453.096474,384.5 Z M438.096474,384.5 C438.924901,384.5 439.596474,385.171573 439.596474,386 C439.596474,386.828427 438.924901,387.5 438.096474,387.5 L437.096474,387.5 C436.268047,387.5 435.596474,386.828427 435.596474,386 C435.596474,385.171573 436.268047,384.5 437.096474,384.5 L438.096474,384.5 Z M423.096474,384.5 C423.924901,384.5 424.596474,385.171573 424.596474,386 C424.596474,386.828427 423.924901,387.5 423.096474,387.5 L422.096474,387.5 C421.268047,387.5 420.596474,386.828427 420.596474,386 C420.596474,385.171573 421.268047,384.5 422.096474,384.5 L423.096474,384.5 Z M408.096474,384.5 C408.924901,384.5 409.596474,385.171573 409.596474,386 C409.596474,386.828427 408.924901,387.5 408.096474,387.5 L407.096474,387.5 C406.268047,387.5 405.596474,386.828427 405.596474,386 C405.596474,385.171573 406.268047,384.5 407.096474,384.5 L408.096474,384.5 Z M393.096474,384.5 C393.924901,384.5 394.596474,385.171573 394.596474,386 C394.596474,386.828427 393.924901,387.5 393.096474,387.5 L392.096474,387.5 C391.268047,387.5 390.596474,386.828427 390.596474,386 C390.596474,385.171573 391.268047,384.5 392.096474,384.5 L393.096474,384.5 Z M378.096474,384.5 C378.924901,384.5 379.596474,385.171573 379.596474,386 C379.596474,386.828427 378.924901,387.5 378.096474,387.5 L377.096474,387.5 C376.268047,387.5 375.596474,386.828427 375.596474,386 C375.596474,385.171573 376.268047,384.5 377.096474,384.5 L378.096474,384.5 Z M363.096474,384.5 C363.924901,384.5 364.596474,385.171573 364.596474,386 C364.596474,386.828427 363.924901,387.5 363.096474,387.5 L362.096474,387.5 C361.268047,387.5 360.596474,386.828427 360.596474,386 C360.596474,385.171573 361.268047,384.5 362.096474,384.5 L363.096474,384.5 Z M348.096474,384.5 C348.924901,384.5 349.596474,385.171573 349.596474,386 C349.596474,386.828427 348.924901,387.5 348.096474,387.5 L347.096474,387.5 C346.268047,387.5 345.596474,386.828427 345.596474,386 C345.596474,385.171573 346.268047,384.5 347.096474,384.5 L348.096474,384.5 Z M333.096474,384.5 C333.924901,384.5 334.596474,385.171573 334.596474,386 C334.596474,386.828427 333.924901,387.5 333.096474,387.5 L332.096474,387.5 C331.268047,387.5 330.596474,386.828427 330.596474,386 C330.596474,385.171573 331.268047,384.5 332.096474,384.5 L333.096474,384.5 Z M318.096474,384.5 C318.924901,384.5 319.596474,385.171573 319.596474,386 C319.596474,386.828427 318.924901,387.5 318.096474,387.5 L317.096474,387.5 C316.268047,387.5 315.596474,386.828427 315.596474,386 C315.596474,385.171573 316.268047,384.5 317.096474,384.5 L318.096474,384.5 Z M303.096474,384.5 C303.924901,384.5 304.596474,385.171573 304.596474,386 C304.596474,386.828427 303.924901,387.5 303.096474,387.5 L302.096474,387.5 C301.268047,387.5 300.596474,386.828427 300.596474,386 C300.596474,385.171573 301.268047,384.5 302.096474,384.5 L303.096474,384.5 Z M288.096474,384.5 C288.924901,384.5 289.596474,385.171573 289.596474,386 C289.596474,386.828427 288.924901,387.5 288.096474,387.5 L287.096474,387.5 C286.268047,387.5 285.596474,386.828427 285.596474,386 C285.596474,385.171573 286.268047,384.5 287.096474,384.5 L288.096474,384.5 Z M273.096474,384.5 C273.924901,384.5 274.596474,385.171573 274.596474,386 C274.596474,386.828427 273.924901,387.5 273.096474,387.5 L272.096474,387.5 C271.268047,387.5 270.596474,386.828427 270.596474,386 C270.596474,385.171573 271.268047,384.5 272.096474,384.5 L273.096474,384.5 Z M258.096474,384.5 C258.924901,384.5 259.596474,385.171573 259.596474,386 C259.596474,386.828427 258.924901,387.5 258.096474,387.5 L257.096474,387.5 C256.268047,387.5 255.596474,386.828427 255.596474,386 C255.596474,385.171573 256.268047,384.5 257.096474,384.5 L258.096474,384.5 Z M243.096474,384.5 C243.924901,384.5 244.596474,385.171573 244.596474,386 C244.596474,386.828427 243.924901,387.5 243.096474,387.5 L242.096474,387.5 C241.268047,387.5 240.596474,386.828427 240.596474,386 C240.596474,385.171573 241.268047,384.5 242.096474,384.5 L243.096474,384.5 Z M228.096474,384.5 C228.924901,384.5 229.596474,385.171573 229.596474,386 C229.596474,386.828427 228.924901,387.5 228.096474,387.5 L227.096474,387.5 C226.268047,387.5 225.596474,386.828427 225.596474,386 C225.596474,385.171573 226.268047,384.5 227.096474,384.5 L228.096474,384.5 Z M213.096474,384.5 C213.924901,384.5 214.596474,385.171573 214.596474,386 C214.596474,386.828427 213.924901,387.5 213.096474,387.5 L212.096474,387.5 C211.268047,387.5 210.596474,386.828427 210.596474,386 C210.596474,385.171573 211.268047,384.5 212.096474,384.5 L213.096474,384.5 Z M198.096474,384.5 C198.924901,384.5 199.596474,385.171573 199.596474,386 C199.596474,386.828427 198.924901,387.5 198.096474,387.5 L197.096474,387.5 C196.268047,387.5 195.596474,386.828427 195.596474,386 C195.596474,385.171573 196.268047,384.5 197.096474,384.5 L198.096474,384.5 Z M183.096474,384.5 C183.924901,384.5 184.596474,385.171573 184.596474,386 C184.596474,386.828427 183.924901,387.5 183.096474,387.5 L182.096474,387.5 C181.268047,387.5 180.596474,386.828427 180.596474,386 C180.596474,385.171573 181.268047,384.5 182.096474,384.5 L183.096474,384.5 Z M168.096474,384.5 C168.924901,384.5 169.596474,385.171573 169.596474,386 C169.596474,386.828427 168.924901,387.5 168.096474,387.5 L167.096474,387.5 C166.268047,387.5 165.596474,386.828427 165.596474,386 C165.596474,385.171573 166.268047,384.5 167.096474,384.5 L168.096474,384.5 Z M153.096474,384.5 C153.924901,384.5 154.596474,385.171573 154.596474,386 C154.596474,386.828427 153.924901,387.5 153.096474,387.5 L152.096474,387.5 C151.268047,387.5 150.596474,386.828427 150.596474,386 C150.596474,385.171573 151.268047,384.5 152.096474,384.5 L153.096474,384.5 Z M138.096474,384.5 C138.924901,384.5 139.596474,385.171573 139.596474,386 C139.596474,386.828427 138.924901,387.5 138.096474,387.5 L137.096474,387.5 C136.268047,387.5 135.596474,386.828427 135.596474,386 C135.596474,385.171573 136.268047,384.5 137.096474,384.5 L138.096474,384.5 Z M123.096474,384.5 C123.924901,384.5 124.596474,385.171573 124.596474,386 C124.596474,386.828427 123.924901,387.5 123.096474,387.5 L122.096474,387.5 C121.268047,387.5 120.596474,386.828427 120.596474,386 C120.596474,385.171573 121.268047,384.5 122.096474,384.5 L123.096474,384.5 Z M108.096474,384.5 C108.924901,384.5 109.596474,385.171573 109.596474,386 C109.596474,386.828427 108.924901,387.5 108.096474,387.5 L107.096474,387.5 C106.268047,387.5 105.596474,386.828427 105.596474,386 C105.596474,385.171573 106.268047,384.5 107.096474,384.5 L108.096474,384.5 Z M93.0964738,384.5 C93.9249009,384.5 94.5964738,385.171573 94.5964738,386 C94.5964738,386.828427 93.9249009,387.5 93.0964738,387.5 L92.0964738,387.5 C91.2680466,387.5 90.5964738,386.828427 90.5964738,386 C90.5964738,385.171573 91.2680466,384.5 92.0964738,384.5 L93.0964738,384.5 Z M78.0964738,384.5 C78.9249009,384.5 79.5964738,385.171573 79.5964738,386 C79.5964738,386.828427 78.9249009,387.5 78.0964738,387.5 L77.0964738,387.5 C76.2680466,387.5 75.5964738,386.828427 75.5964738,386 C75.5964738,385.171573 76.2680466,384.5 77.0964738,384.5 L78.0964738,384.5 Z M63.0964738,384.5 C63.9249009,384.5 64.5964738,385.171573 64.5964738,386 C64.5964738,386.828427 63.9249009,387.5 63.0964738,387.5 L62.0964738,387.5 C61.2680466,387.5 60.5964738,386.828427 60.5964738,386 C60.5964738,385.171573 61.2680466,384.5 62.0964738,384.5 L63.0964738,384.5 Z M48.0964738,384.5 C48.9249009,384.5 49.5964738,385.171573 49.5964738,386 C49.5964738,386.828427 48.9249009,387.5 48.0964738,387.5 L47.0964738,387.5 C46.2680466,387.5 45.5964738,386.828427 45.5964738,386 C45.5964738,385.171573 46.2680466,384.5 47.0964738,384.5 L48.0964738,384.5 Z M33.0964738,384.5 C33.9249009,384.5 34.5964738,385.171573 34.5964738,386 C34.5964738,386.828427 33.9249009,387.5 33.0964738,387.5 L32.0964738,387.5 C31.2680466,387.5 30.5964738,386.828427 30.5964738,386 C30.5964738,385.171573 31.2680466,384.5 32.0964738,384.5 L33.0964738,384.5 Z M18.0964738,384.5 C18.9249009,384.5 19.5964738,385.171573 19.5964738,386 C19.5964738,386.828427 18.9249009,387.5 18.0964738,387.5 L17.0964738,387.5 C16.2680466,387.5 15.5964738,386.828427 15.5964738,386 C15.5964738,385.171573 16.2680466,384.5 17.0964738,384.5 L18.0964738,384.5 Z M4.70059089,383.060088 C5.26412207,383.667314 5.22869996,384.616401 4.62147339,385.179932 C4.01424682,385.743463 3.06516014,385.708041 2.50162895,385.100815 C2.21803335,384.795229 1.96016637,384.466515 1.73095275,384.118148 C1.27560086,383.426089 1.46749017,382.495928 2.15954952,382.040577 C2.85160888,381.585225 3.78176948,381.777114 4.23712138,382.469173 C4.37486598,382.678522 4.5299544,382.87622 4.70059089,383.060088 Z M0,21.5 C0,20.6715729 0.671572875,20 1.5,20 C2.32842712,20 3,20.6715729 3,21.5 L3,22.5 C3,23.3284271 2.32842712,24 1.5,24 C0.671572875,24 0,23.3284271 0,22.5 L0,21.5 Z M0,36.5 C0,35.6715729 0.671572875,35 1.5,35 C2.32842712,35 3,35.6715729 3,36.5 L3,37.5 C3,38.3284271 2.32842712,39 1.5,39 C0.671572875,39 0,38.3284271 0,37.5 L0,36.5 Z M0,51.5 C0,50.6715729 0.671572875,50 1.5,50 C2.32842712,50 3,50.6715729 3,51.5 L3,52.5 C3,53.3284271 2.32842712,54 1.5,54 C0.671572875,54 0,53.3284271 0,52.5 L0,51.5 Z M0,66.5 C0,65.6715729 0.671572875,65 1.5,65 C2.32842712,65 3,65.6715729 3,66.5 L3,67.5 C3,68.3284271 2.32842712,69 1.5,69 C0.671572875,69 0,68.3284271 0,67.5 L0,66.5 Z M0,81.5 C0,80.6715729 0.671572875,80 1.5,80 C2.32842712,80 3,80.6715729 3,81.5 L3,82.5 C3,83.3284271 2.32842712,84 1.5,84 C0.671572875,84 0,83.3284271 0,82.5 L0,81.5 Z M0,96.5 C0,95.6715729 0.671572875,95 1.5,95 C2.32842712,95 3,95.6715729 3,96.5 L3,97.5 C3,98.3284271 2.32842712,99 1.5,99 C0.671572875,99 0,98.3284271 0,97.5 L0,96.5 Z M0,111.5 C0,110.671573 0.671572875,110 1.5,110 C2.32842712,110 3,110.671573 3,111.5 L3,112.5 C3,113.328427 2.32842712,114 1.5,114 C0.671572875,114 0,113.328427 0,112.5 L0,111.5 Z M0,126.5 C0,125.671573 0.671572875,125 1.5,125 C2.32842712,125 3,125.671573 3,126.5 L3,127.5 C3,128.328427 2.32842712,129 1.5,129 C0.671572875,129 0,128.328427 0,127.5 L0,126.5 Z M0,141.5 C0,140.671573 0.671572875,140 1.5,140 C2.32842712,140 3,140.671573 3,141.5 L3,142.5 C3,143.328427 2.32842712,144 1.5,144 C0.671572875,144 0,143.328427 0,142.5 L0,141.5 Z M0,156.5 C0,155.671573 0.671572875,155 1.5,155 C2.32842712,155 3,155.671573 3,156.5 L3,157.5 C3,158.328427 2.32842712,159 1.5,159 C0.671572875,159 0,158.328427 0,157.5 L0,156.5 Z M0,171.5 C0,170.671573 0.671572875,170 1.5,170 C2.32842712,170 3,170.671573 3,171.5 L3,172.5 C3,173.328427 2.32842712,174 1.5,174 C0.671572875,174 0,173.328427 0,172.5 L0,171.5 Z M0,186.5 C0,185.671573 0.671572875,185 1.5,185 C2.32842712,185 3,185.671573 3,186.5 L3,187.5 C3,188.328427 2.32842712,189 1.5,189 C0.671572875,189 0,188.328427 0,187.5 L0,186.5 Z M0,201.5 C0,200.671573 0.671572875,200 1.5,200 C2.32842712,200 3,200.671573 3,201.5 L3,202.5 C3,203.328427 2.32842712,204 1.5,204 C0.671572875,204 0,203.328427 0,202.5 L0,201.5 Z M0,216.5 C0,215.671573 0.671572875,215 1.5,215 C2.32842712,215 3,215.671573 3,216.5 L3,217.5 C3,218.328427 2.32842712,219 1.5,219 C0.671572875,219 0,218.328427 0,217.5 L0,216.5 Z M0,231.5 C0,230.671573 0.671572875,230 1.5,230 C2.32842712,230 3,230.671573 3,231.5 L3,232.5 C3,233.328427 2.32842712,234 1.5,234 C0.671572875,234 0,233.328427 0,232.5 L0,231.5 Z M0,246.5 C0,245.671573 0.671572875,245 1.5,245 C2.32842712,245 3,245.671573 3,246.5 L3,247.5 C3,248.328427 2.32842712,249 1.5,249 C0.671572875,249 0,248.328427 0,247.5 L0,246.5 Z M0,261.5 C0,260.671573 0.671572875,260 1.5,260 C2.32842712,260 3,260.671573 3,261.5 L3,262.5 C3,263.328427 2.32842712,264 1.5,264 C0.671572875,264 0,263.328427 0,262.5 L0,261.5 Z M0,276.5 C0,275.671573 0.671572875,275 1.5,275 C2.32842712,275 3,275.671573 3,276.5 L3,277.5 C3,278.328427 2.32842712,279 1.5,279 C0.671572875,279 0,278.328427 0,277.5 L0,276.5 Z M0,291.5 C0,290.671573 0.671572875,290 1.5,290 C2.32842712,290 3,290.671573 3,291.5 L3,292.5 C3,293.328427 2.32842712,294 1.5,294 C0.671572875,294 0,293.328427 0,292.5 L0,291.5 Z M0,306.5 C0,305.671573 0.671572875,305 1.5,305 C2.32842712,305 3,305.671573 3,306.5 L3,307.5 C3,308.328427 2.32842712,309 1.5,309 C0.671572875,309 0,308.328427 0,307.5 L0,306.5 Z M0,321.5 C0,320.671573 0.671572875,320 1.5,320 C2.32842712,320 3,320.671573 3,321.5 L3,322.5 C3,323.328427 2.32842712,324 1.5,324 C0.671572875,324 0,323.328427 0,322.5 L0,321.5 Z M0,336.5 C0,335.671573 0.671572875,335 1.5,335 C2.32842712,335 3,335.671573 3,336.5 L3,337.5 C3,338.328427 2.32842712,339 1.5,339 C0.671572875,339 0,338.328427 0,337.5 L0,336.5 Z M0,351.5 C0,350.671573 0.671572875,350 1.5,350 C2.32842712,350 3,350.671573 3,351.5 L3,352.5 C3,353.328427 2.32842712,354 1.5,354 C0.671572875,354 0,353.328427 0,352.5 L0,351.5 Z M0,366.5 C0,365.671573 0.671572875,365 1.5,365 C2.32842712,365 3,365.671573 3,366.5 L3,367.5 C3,368.328427 2.32842712,369 1.5,369 C0.671572875,369 0,368.328427 0,367.5 L0,366.5 Z" id="Combined-Shape2" fill="#FE791A" fill-rule="nonzero"></path>
    </g>
</svg>