<?xml version="1.0" encoding="UTF-8" standalone="no"?><!DOCTYPE svg PUBLIC "-//W3C//DTD SVG 1.1//EN" "http://www.w3.org/Graphics/SVG/1.1/DTD/svg11.dtd"><svg width="100%" height="100%" viewBox="0 0 344 15" version="1.1" xmlns="http://www.w3.org/2000/svg" xmlns:xlink="http://www.w3.org/1999/xlink" xml:space="preserve" xmlns:serif="http://www.serif.com/" style="fill-rule:evenodd;clip-rule:evenodd;stroke-linejoin:round;stroke-miterlimit:1.41421;"><g transform="matrix(1,0,0,1,-961,-442)"><g transform="matrix(1,0,0,1,0,-4)"><g transform="matrix(1,0,0,1,960.114,458)"><g id="Connect-to-a-SonicWa"><path d="M3.408,-0.568C2.629,-1.032 2.029,-1.699 1.608,-2.568C1.187,-3.437 0.976,-4.464 0.976,-5.648C0.976,-6.821 1.187,-7.843 1.608,-8.712C2.029,-9.581 2.629,-10.248 3.408,-10.712C4.187,-11.176 5.109,-11.408 6.176,-11.408C6.891,-11.408 7.565,-11.293 8.2,-11.064C8.835,-10.835 9.387,-10.507 9.856,-10.08C10.027,-9.92 10.112,-9.733 10.112,-9.52C10.112,-9.371 10.069,-9.24 9.984,-9.128C9.899,-9.016 9.797,-8.96 9.68,-8.96C9.552,-8.96 9.397,-9.019 9.216,-9.136C8.672,-9.563 8.179,-9.861 7.736,-10.032C7.293,-10.203 6.784,-10.288 6.208,-10.288C4.971,-10.288 4.019,-9.885 3.352,-9.08C2.685,-8.275 2.352,-7.131 2.352,-5.648C2.352,-4.155 2.685,-3.005 3.352,-2.2C4.019,-1.395 4.971,-0.992 6.208,-0.992C6.773,-0.992 7.28,-1.077 7.728,-1.248C8.176,-1.419 8.672,-1.717 9.216,-2.144C9.397,-2.261 9.552,-2.32 9.68,-2.32C9.797,-2.32 9.899,-2.267 9.984,-2.16C10.069,-2.053 10.112,-1.92 10.112,-1.76C10.112,-1.547 10.027,-1.36 9.856,-1.2C9.387,-0.773 8.835,-0.445 8.2,-0.216C7.565,0.013 6.891,0.128 6.176,0.128C5.109,0.128 4.187,-0.104 3.408,-0.568Z" style="fill-rule:nonzero;"/><path d="M13.17,-0.384C12.61,-0.715 12.178,-1.187 11.874,-1.8C11.57,-2.413 11.418,-3.125 11.418,-3.936C11.418,-4.747 11.57,-5.459 11.874,-6.072C12.178,-6.685 12.61,-7.157 13.17,-7.488C13.73,-7.819 14.378,-7.984 15.114,-7.984C15.85,-7.984 16.501,-7.819 17.066,-7.488C17.632,-7.157 18.066,-6.685 18.37,-6.072C18.674,-5.459 18.826,-4.747 18.826,-3.936C18.826,-3.125 18.674,-2.413 18.37,-1.8C18.066,-1.187 17.632,-0.715 17.066,-0.384C16.501,-0.053 15.85,0.112 15.114,0.112C14.378,0.112 13.73,-0.053 13.17,-0.384ZM16.882,-1.72C17.293,-2.227 17.498,-2.965 17.498,-3.936C17.498,-4.885 17.29,-5.619 16.874,-6.136C16.458,-6.653 15.872,-6.912 15.114,-6.912C14.357,-6.912 13.77,-6.653 13.354,-6.136C12.938,-5.619 12.73,-4.885 12.73,-3.936C12.73,-2.976 12.936,-2.24 13.346,-1.728C13.757,-1.216 14.346,-0.96 15.114,-0.96C15.882,-0.96 16.472,-1.213 16.882,-1.72Z" style="fill-rule:nonzero;"/><path d="M27.493,-4.896L27.493,-0.56C27.493,-0.357 27.437,-0.2 27.325,-0.088C27.213,0.024 27.056,0.08 26.853,0.08C26.65,0.08 26.49,0.024 26.373,-0.088C26.256,-0.2 26.197,-0.357 26.197,-0.56L26.197,-4.816C26.197,-5.541 26.056,-6.069 25.773,-6.4C25.49,-6.731 25.04,-6.896 24.421,-6.896C23.706,-6.896 23.136,-6.677 22.709,-6.24C22.282,-5.803 22.069,-5.211 22.069,-4.464L22.069,-0.56C22.069,-0.357 22.013,-0.2 21.901,-0.088C21.789,0.024 21.632,0.08 21.429,0.08C21.226,0.08 21.066,0.024 20.949,-0.088C20.832,-0.2 20.773,-0.357 20.773,-0.56L20.773,-7.312C20.773,-7.504 20.832,-7.659 20.949,-7.776C21.066,-7.893 21.226,-7.952 21.429,-7.952C21.621,-7.952 21.773,-7.893 21.885,-7.776C21.997,-7.659 22.053,-7.509 22.053,-7.328L22.053,-6.512C22.309,-6.992 22.666,-7.357 23.125,-7.608C23.584,-7.859 24.106,-7.984 24.693,-7.984C26.56,-7.984 27.493,-6.955 27.493,-4.896Z" style="fill-rule:nonzero;"/><path d="M36.591,-4.896L36.591,-0.56C36.591,-0.357 36.535,-0.2 36.423,-0.088C36.311,0.024 36.154,0.08 35.951,0.08C35.749,0.08 35.589,0.024 35.471,-0.088C35.354,-0.2 35.295,-0.357 35.295,-0.56L35.295,-4.816C35.295,-5.541 35.154,-6.069 34.871,-6.4C34.589,-6.731 34.138,-6.896 33.519,-6.896C32.805,-6.896 32.234,-6.677 31.807,-6.24C31.381,-5.803 31.167,-5.211 31.167,-4.464L31.167,-0.56C31.167,-0.357 31.111,-0.2 30.999,-0.088C30.887,0.024 30.73,0.08 30.527,0.08C30.325,0.08 30.165,0.024 30.047,-0.088C29.93,-0.2 29.871,-0.357 29.871,-0.56L29.871,-7.312C29.871,-7.504 29.93,-7.659 30.047,-7.776C30.165,-7.893 30.325,-7.952 30.527,-7.952C30.719,-7.952 30.871,-7.893 30.983,-7.776C31.095,-7.659 31.151,-7.509 31.151,-7.328L31.151,-6.512C31.407,-6.992 31.765,-7.357 32.223,-7.608C32.682,-7.859 33.205,-7.984 33.791,-7.984C35.658,-7.984 36.591,-6.955 36.591,-4.896Z" style="fill-rule:nonzero;"/><path d="M45.306,-1.664C45.391,-1.568 45.434,-1.445 45.434,-1.296C45.434,-1.029 45.247,-0.784 44.874,-0.56C44.49,-0.336 44.085,-0.168 43.658,-0.056C43.231,0.056 42.815,0.112 42.41,0.112C41.205,0.112 40.253,-0.245 39.554,-0.96C38.855,-1.675 38.506,-2.661 38.506,-3.92C38.506,-4.72 38.661,-5.427 38.97,-6.04C39.279,-6.653 39.714,-7.131 40.274,-7.472C40.834,-7.813 41.471,-7.984 42.186,-7.984C43.199,-7.984 44.005,-7.653 44.602,-6.992C45.199,-6.331 45.498,-5.435 45.498,-4.304C45.498,-4.091 45.455,-3.936 45.37,-3.84C45.285,-3.744 45.146,-3.696 44.954,-3.696L39.802,-3.696C39.898,-1.861 40.767,-0.944 42.41,-0.944C42.826,-0.944 43.183,-1 43.482,-1.112C43.781,-1.224 44.101,-1.376 44.442,-1.568C44.719,-1.728 44.906,-1.808 45.002,-1.808C45.119,-1.808 45.221,-1.76 45.306,-1.664ZM40.562,-6.336C40.151,-5.909 39.909,-5.307 39.834,-4.528L44.362,-4.528C44.341,-5.317 44.143,-5.923 43.77,-6.344C43.397,-6.765 42.874,-6.976 42.202,-6.976C41.519,-6.976 40.973,-6.763 40.562,-6.336Z" style="fill-rule:nonzero;"/><path d="M48.7,-0.384C48.14,-0.715 47.708,-1.184 47.404,-1.792C47.1,-2.4 46.948,-3.104 46.948,-3.904C46.948,-4.704 47.106,-5.413 47.42,-6.032C47.735,-6.651 48.175,-7.131 48.74,-7.472C49.306,-7.813 49.956,-7.984 50.692,-7.984C51.098,-7.984 51.5,-7.928 51.9,-7.816C52.3,-7.704 52.65,-7.541 52.948,-7.328C53.14,-7.2 53.276,-7.075 53.356,-6.952C53.436,-6.829 53.476,-6.693 53.476,-6.544C53.476,-6.395 53.436,-6.272 53.356,-6.176C53.276,-6.08 53.172,-6.032 53.044,-6.032C52.97,-6.032 52.89,-6.053 52.804,-6.096C52.719,-6.139 52.647,-6.181 52.588,-6.224C52.53,-6.267 52.49,-6.293 52.468,-6.304C52.191,-6.485 51.927,-6.629 51.676,-6.736C51.426,-6.843 51.119,-6.896 50.756,-6.896C49.978,-6.896 49.372,-6.632 48.94,-6.104C48.508,-5.576 48.292,-4.843 48.292,-3.904C48.292,-2.965 48.508,-2.24 48.94,-1.728C49.372,-1.216 49.978,-0.96 50.756,-0.96C51.119,-0.96 51.431,-1.013 51.692,-1.12C51.954,-1.227 52.218,-1.371 52.484,-1.552C52.602,-1.627 52.714,-1.691 52.82,-1.744C52.927,-1.797 53.018,-1.824 53.092,-1.824C53.21,-1.824 53.308,-1.776 53.388,-1.68C53.468,-1.584 53.508,-1.461 53.508,-1.312C53.508,-1.173 53.471,-1.048 53.396,-0.936C53.322,-0.824 53.183,-0.699 52.98,-0.56C52.682,-0.357 52.322,-0.195 51.9,-0.072C51.479,0.051 51.055,0.112 50.628,0.112C49.903,0.112 49.26,-0.053 48.7,-0.384Z" style="fill-rule:nonzero;"/><path d="M59.263,-0.432C59.263,-0.251 59.196,-0.115 59.063,-0.024C58.93,0.067 58.73,0.101 58.463,0.08L58.031,0.048C57.178,-0.016 56.548,-0.272 56.143,-0.72C55.738,-1.168 55.535,-1.845 55.535,-2.752L55.535,-6.768L54.463,-6.768C54.282,-6.768 54.14,-6.813 54.039,-6.904C53.938,-6.995 53.887,-7.115 53.887,-7.264C53.887,-7.424 53.938,-7.552 54.039,-7.648C54.14,-7.744 54.282,-7.792 54.463,-7.792L55.535,-7.792L55.535,-9.6C55.535,-9.803 55.594,-9.96 55.711,-10.072C55.828,-10.184 55.988,-10.24 56.191,-10.24C56.383,-10.24 56.538,-10.184 56.655,-10.072C56.772,-9.96 56.831,-9.803 56.831,-9.6L56.831,-7.792L58.607,-7.792C58.778,-7.792 58.914,-7.744 59.015,-7.648C59.116,-7.552 59.167,-7.424 59.167,-7.264C59.167,-7.115 59.116,-6.995 59.015,-6.904C58.914,-6.813 58.778,-6.768 58.607,-6.768L56.831,-6.768L56.831,-2.688C56.831,-2.101 56.951,-1.677 57.191,-1.416C57.431,-1.155 57.791,-1.008 58.271,-0.976L58.703,-0.944C59.076,-0.912 59.263,-0.741 59.263,-0.432Z" style="fill-rule:nonzero;"/><path d="M68.852,-0.432C68.852,-0.251 68.785,-0.115 68.652,-0.024C68.519,0.067 68.319,0.101 68.052,0.08L67.62,0.048C66.767,-0.016 66.137,-0.272 65.732,-0.72C65.327,-1.168 65.124,-1.845 65.124,-2.752L65.124,-6.768L64.052,-6.768C63.871,-6.768 63.729,-6.813 63.628,-6.904C63.527,-6.995 63.476,-7.115 63.476,-7.264C63.476,-7.424 63.527,-7.552 63.628,-7.648C63.729,-7.744 63.871,-7.792 64.052,-7.792L65.124,-7.792L65.124,-9.6C65.124,-9.803 65.183,-9.96 65.3,-10.072C65.417,-10.184 65.577,-10.24 65.78,-10.24C65.972,-10.24 66.127,-10.184 66.244,-10.072C66.361,-9.96 66.42,-9.803 66.42,-9.6L66.42,-7.792L68.196,-7.792C68.367,-7.792 68.503,-7.744 68.604,-7.648C68.705,-7.552 68.756,-7.424 68.756,-7.264C68.756,-7.115 68.705,-6.995 68.604,-6.904C68.503,-6.813 68.367,-6.768 68.196,-6.768L66.42,-6.768L66.42,-2.688C66.42,-2.101 66.54,-1.677 66.78,-1.416C67.02,-1.155 67.38,-1.008 67.86,-0.976L68.292,-0.944C68.665,-0.912 68.852,-0.741 68.852,-0.432Z" style="fill-rule:nonzero;"/><path d="M71.43,-0.384C70.87,-0.715 70.438,-1.187 70.134,-1.8C69.83,-2.413 69.678,-3.125 69.678,-3.936C69.678,-4.747 69.83,-5.459 70.134,-6.072C70.438,-6.685 70.87,-7.157 71.43,-7.488C71.99,-7.819 72.638,-7.984 73.374,-7.984C74.11,-7.984 74.761,-7.819 75.326,-7.488C75.892,-7.157 76.326,-6.685 76.63,-6.072C76.934,-5.459 77.086,-4.747 77.086,-3.936C77.086,-3.125 76.934,-2.413 76.63,-1.8C76.326,-1.187 75.892,-0.715 75.326,-0.384C74.761,-0.053 74.11,0.112 73.374,0.112C72.638,0.112 71.99,-0.053 71.43,-0.384ZM75.142,-1.72C75.553,-2.227 75.758,-2.965 75.758,-3.936C75.758,-4.885 75.55,-5.619 75.134,-6.136C74.718,-6.653 74.132,-6.912 73.374,-6.912C72.617,-6.912 72.03,-6.653 71.614,-6.136C71.198,-5.619 70.99,-4.885 70.99,-3.936C70.99,-2.976 71.196,-2.24 71.606,-1.728C72.017,-1.216 72.606,-0.96 73.374,-0.96C74.142,-0.96 74.732,-1.213 75.142,-1.72Z" style="fill-rule:nonzero;"/><path d="M89.283,-4.912L89.283,-0.56C89.283,-0.368 89.227,-0.213 89.115,-0.096C89.003,0.021 88.851,0.08 88.659,0.08C88.467,0.08 88.313,0.021 88.195,-0.096C88.078,-0.213 88.019,-0.368 88.019,-0.56L88.019,-1.328C87.817,-0.869 87.507,-0.515 87.091,-0.264C86.675,-0.013 86.195,0.112 85.651,0.112C85.15,0.112 84.689,0.011 84.267,-0.192C83.846,-0.395 83.513,-0.677 83.267,-1.04C83.022,-1.403 82.899,-1.803 82.899,-2.24C82.899,-2.827 83.049,-3.283 83.347,-3.608C83.646,-3.933 84.137,-4.168 84.819,-4.312C85.502,-4.456 86.451,-4.528 87.667,-4.528L88.019,-4.528L88.019,-5.056C88.019,-5.696 87.889,-6.165 87.627,-6.464C87.366,-6.763 86.942,-6.912 86.355,-6.912C85.63,-6.912 84.894,-6.715 84.147,-6.32C83.859,-6.139 83.657,-6.048 83.539,-6.048C83.411,-6.048 83.305,-6.096 83.219,-6.192C83.134,-6.288 83.091,-6.411 83.091,-6.56C83.091,-6.709 83.137,-6.84 83.227,-6.952C83.318,-7.064 83.465,-7.179 83.667,-7.296C84.041,-7.509 84.465,-7.677 84.939,-7.8C85.414,-7.923 85.886,-7.984 86.355,-7.984C88.307,-7.984 89.283,-6.96 89.283,-4.912ZM87.403,-1.56C87.814,-1.992 88.019,-2.549 88.019,-3.232L88.019,-3.696L87.731,-3.696C86.793,-3.696 86.078,-3.656 85.587,-3.576C85.097,-3.496 84.747,-3.363 84.539,-3.176C84.331,-2.989 84.227,-2.715 84.227,-2.352C84.227,-1.936 84.379,-1.592 84.683,-1.32C84.987,-1.048 85.369,-0.912 85.827,-0.912C86.467,-0.912 86.993,-1.128 87.403,-1.56Z" style="fill-rule:nonzero;"/><path d="M97.296,-0.232C96.566,-0.472 95.982,-0.795 95.544,-1.2C95.384,-1.349 95.304,-1.536 95.304,-1.76C95.304,-1.909 95.347,-2.04 95.432,-2.152C95.518,-2.264 95.619,-2.32 95.736,-2.32C95.875,-2.32 96.024,-2.261 96.184,-2.144C97.176,-1.376 98.307,-0.992 99.576,-0.992C100.494,-0.992 101.198,-1.168 101.688,-1.52C102.179,-1.872 102.424,-2.373 102.424,-3.024C102.424,-3.397 102.307,-3.699 102.072,-3.928C101.838,-4.157 101.528,-4.341 101.144,-4.48C100.76,-4.619 100.243,-4.763 99.592,-4.912C98.718,-5.115 98,-5.328 97.44,-5.552C96.88,-5.776 96.427,-6.096 96.08,-6.512C95.734,-6.928 95.56,-7.472 95.56,-8.144C95.56,-8.784 95.734,-9.352 96.08,-9.848C96.427,-10.344 96.912,-10.728 97.536,-11C98.16,-11.272 98.872,-11.408 99.672,-11.408C100.419,-11.408 101.115,-11.293 101.76,-11.064C102.406,-10.835 102.947,-10.507 103.384,-10.08C103.555,-9.909 103.64,-9.723 103.64,-9.52C103.64,-9.371 103.598,-9.24 103.512,-9.128C103.427,-9.016 103.326,-8.96 103.208,-8.96C103.091,-8.96 102.936,-9.019 102.744,-9.136C102.222,-9.563 101.736,-9.861 101.288,-10.032C100.84,-10.203 100.302,-10.288 99.672,-10.288C98.787,-10.288 98.099,-10.104 97.608,-9.736C97.118,-9.368 96.872,-8.853 96.872,-8.192C96.872,-7.627 97.088,-7.203 97.52,-6.92C97.952,-6.637 98.616,-6.389 99.512,-6.176C100.483,-5.941 101.246,-5.725 101.8,-5.528C102.355,-5.331 102.816,-5.035 103.184,-4.64C103.552,-4.245 103.736,-3.717 103.736,-3.056C103.736,-2.427 103.563,-1.872 103.216,-1.392C102.87,-0.912 102.382,-0.539 101.752,-0.272C101.123,-0.005 100.403,0.128 99.592,0.128C98.792,0.128 98.027,0.008 97.296,-0.232Z" style="fill-rule:nonzero;"/><path d="M106.971,-0.384C106.411,-0.715 105.979,-1.187 105.675,-1.8C105.371,-2.413 105.219,-3.125 105.219,-3.936C105.219,-4.747 105.371,-5.459 105.675,-6.072C105.979,-6.685 106.411,-7.157 106.971,-7.488C107.531,-7.819 108.179,-7.984 108.915,-7.984C109.651,-7.984 110.302,-7.819 110.867,-7.488C111.432,-7.157 111.867,-6.685 112.171,-6.072C112.475,-5.459 112.627,-4.747 112.627,-3.936C112.627,-3.125 112.475,-2.413 112.171,-1.8C111.867,-1.187 111.432,-0.715 110.867,-0.384C110.302,-0.053 109.651,0.112 108.915,0.112C108.179,0.112 107.531,-0.053 106.971,-0.384ZM110.683,-1.72C111.094,-2.227 111.299,-2.965 111.299,-3.936C111.299,-4.885 111.091,-5.619 110.675,-6.136C110.259,-6.653 109.672,-6.912 108.915,-6.912C108.158,-6.912 107.571,-6.653 107.155,-6.136C106.739,-5.619 106.531,-4.885 106.531,-3.936C106.531,-2.976 106.736,-2.24 107.147,-1.728C107.558,-1.216 108.147,-0.96 108.915,-0.96C109.683,-0.96 110.272,-1.213 110.683,-1.72Z" style="fill-rule:nonzero;"/><path d="M121.293,-4.896L121.293,-0.56C121.293,-0.357 121.237,-0.2 121.125,-0.088C121.013,0.024 120.856,0.08 120.653,0.08C120.451,0.08 120.291,0.024 120.173,-0.088C120.056,-0.2 119.997,-0.357 119.997,-0.56L119.997,-4.816C119.997,-5.541 119.856,-6.069 119.573,-6.4C119.291,-6.731 118.84,-6.896 118.221,-6.896C117.507,-6.896 116.936,-6.677 116.509,-6.24C116.083,-5.803 115.869,-5.211 115.869,-4.464L115.869,-0.56C115.869,-0.357 115.813,-0.2 115.701,-0.088C115.589,0.024 115.432,0.08 115.229,0.08C115.027,0.08 114.867,0.024 114.749,-0.088C114.632,-0.2 114.573,-0.357 114.573,-0.56L114.573,-7.312C114.573,-7.504 114.632,-7.659 114.749,-7.776C114.867,-7.893 115.027,-7.952 115.229,-7.952C115.421,-7.952 115.573,-7.893 115.685,-7.776C115.797,-7.659 115.853,-7.509 115.853,-7.328L115.853,-6.512C116.109,-6.992 116.467,-7.357 116.925,-7.608C117.384,-7.859 117.907,-7.984 118.493,-7.984C120.36,-7.984 121.293,-6.955 121.293,-4.896Z" style="fill-rule:nonzero;"/><path d="M123.856,-0.088C123.733,-0.2 123.672,-0.357 123.672,-0.56L123.672,-7.312C123.672,-7.515 123.733,-7.672 123.856,-7.784C123.979,-7.896 124.136,-7.952 124.328,-7.952C124.52,-7.952 124.675,-7.896 124.792,-7.784C124.909,-7.672 124.968,-7.515 124.968,-7.312L124.968,-0.56C124.968,-0.347 124.909,-0.187 124.792,-0.08C124.675,0.027 124.52,0.08 124.328,0.08C124.136,0.08 123.979,0.024 123.856,-0.088ZM123.704,-9.856C123.544,-10.005 123.464,-10.203 123.464,-10.448C123.464,-10.683 123.544,-10.875 123.704,-11.024C123.864,-11.173 124.072,-11.248 124.328,-11.248C124.584,-11.248 124.792,-11.173 124.952,-11.024C125.112,-10.875 125.192,-10.683 125.192,-10.448C125.192,-10.203 125.112,-10.005 124.952,-9.856C124.792,-9.707 124.584,-9.632 124.328,-9.632C124.072,-9.632 123.864,-9.707 123.704,-9.856Z" style="fill-rule:nonzero;"/><path d="M128.682,-0.384C128.122,-0.715 127.69,-1.184 127.386,-1.792C127.082,-2.4 126.93,-3.104 126.93,-3.904C126.93,-4.704 127.088,-5.413 127.402,-6.032C127.717,-6.651 128.157,-7.131 128.722,-7.472C129.288,-7.813 129.938,-7.984 130.674,-7.984C131.08,-7.984 131.482,-7.928 131.882,-7.816C132.282,-7.704 132.632,-7.541 132.93,-7.328C133.122,-7.2 133.258,-7.075 133.338,-6.952C133.418,-6.829 133.458,-6.693 133.458,-6.544C133.458,-6.395 133.418,-6.272 133.338,-6.176C133.258,-6.08 133.154,-6.032 133.026,-6.032C132.952,-6.032 132.872,-6.053 132.786,-6.096C132.701,-6.139 132.629,-6.181 132.57,-6.224C132.512,-6.267 132.472,-6.293 132.45,-6.304C132.173,-6.485 131.909,-6.629 131.658,-6.736C131.408,-6.843 131.101,-6.896 130.738,-6.896C129.96,-6.896 129.354,-6.632 128.922,-6.104C128.49,-5.576 128.274,-4.843 128.274,-3.904C128.274,-2.965 128.49,-2.24 128.922,-1.728C129.354,-1.216 129.96,-0.96 130.738,-0.96C131.101,-0.96 131.413,-1.013 131.674,-1.12C131.936,-1.227 132.2,-1.371 132.466,-1.552C132.584,-1.627 132.696,-1.691 132.802,-1.744C132.909,-1.797 133,-1.824 133.074,-1.824C133.192,-1.824 133.29,-1.776 133.37,-1.68C133.45,-1.584 133.49,-1.461 133.49,-1.312C133.49,-1.173 133.453,-1.048 133.378,-0.936C133.304,-0.824 133.165,-0.699 132.962,-0.56C132.664,-0.357 132.304,-0.195 131.882,-0.072C131.461,0.051 131.037,0.112 130.61,0.112C129.885,0.112 129.242,-0.053 128.682,-0.384Z" style="fill-rule:nonzero;"/><path d="M149.901,-11.272C150.008,-11.341 150.125,-11.376 150.253,-11.376C150.424,-11.376 150.57,-11.325 150.693,-11.224C150.816,-11.123 150.877,-10.987 150.877,-10.816C150.877,-10.741 150.861,-10.656 150.829,-10.56L147.213,-0.368C147.16,-0.219 147.069,-0.104 146.941,-0.024C146.813,0.056 146.669,0.096 146.509,0.096C146.36,0.096 146.221,0.056 146.093,-0.024C145.965,-0.104 145.874,-0.219 145.821,-0.368L142.685,-9.232L139.517,-0.368C139.464,-0.219 139.373,-0.104 139.245,-0.024C139.117,0.056 138.978,0.096 138.829,0.096C138.68,0.096 138.541,0.056 138.413,-0.024C138.285,-0.104 138.194,-0.219 138.141,-0.368L134.509,-10.56C134.477,-10.645 134.461,-10.725 134.461,-10.8C134.461,-10.971 134.528,-11.109 134.661,-11.216C134.794,-11.323 134.946,-11.376 135.117,-11.376C135.245,-11.376 135.365,-11.341 135.477,-11.272C135.589,-11.203 135.666,-11.099 135.709,-10.96L138.861,-1.872L142.061,-10.864C142.114,-11.024 142.2,-11.144 142.317,-11.224C142.434,-11.304 142.562,-11.344 142.701,-11.344C142.84,-11.344 142.968,-11.301 143.085,-11.216C143.202,-11.131 143.288,-11.008 143.341,-10.848L146.493,-1.84L149.677,-10.96C149.72,-11.099 149.794,-11.203 149.901,-11.272Z" style="fill-rule:nonzero;"/><path d="M157.911,-4.912L157.911,-0.56C157.911,-0.368 157.855,-0.213 157.743,-0.096C157.631,0.021 157.479,0.08 157.287,0.08C157.095,0.08 156.941,0.021 156.823,-0.096C156.706,-0.213 156.647,-0.368 156.647,-0.56L156.647,-1.328C156.445,-0.869 156.135,-0.515 155.719,-0.264C155.303,-0.013 154.823,0.112 154.279,0.112C153.778,0.112 153.317,0.011 152.895,-0.192C152.474,-0.395 152.141,-0.677 151.895,-1.04C151.65,-1.403 151.527,-1.803 151.527,-2.24C151.527,-2.827 151.677,-3.283 151.975,-3.608C152.274,-3.933 152.765,-4.168 153.447,-4.312C154.13,-4.456 155.079,-4.528 156.295,-4.528L156.647,-4.528L156.647,-5.056C156.647,-5.696 156.517,-6.165 156.255,-6.464C155.994,-6.763 155.57,-6.912 154.983,-6.912C154.258,-6.912 153.522,-6.715 152.775,-6.32C152.487,-6.139 152.285,-6.048 152.167,-6.048C152.039,-6.048 151.933,-6.096 151.847,-6.192C151.762,-6.288 151.719,-6.411 151.719,-6.56C151.719,-6.709 151.765,-6.84 151.855,-6.952C151.946,-7.064 152.093,-7.179 152.295,-7.296C152.669,-7.509 153.093,-7.677 153.567,-7.8C154.042,-7.923 154.514,-7.984 154.983,-7.984C156.935,-7.984 157.911,-6.96 157.911,-4.912ZM156.031,-1.56C156.442,-1.992 156.647,-2.549 156.647,-3.232L156.647,-3.696L156.359,-3.696C155.421,-3.696 154.706,-3.656 154.215,-3.576C153.725,-3.496 153.375,-3.363 153.167,-3.176C152.959,-2.989 152.855,-2.715 152.855,-2.352C152.855,-1.936 153.007,-1.592 153.311,-1.32C153.615,-1.048 153.997,-0.912 154.455,-0.912C155.095,-0.912 155.621,-1.128 156.031,-1.56Z" style="fill-rule:nonzero;"/><path d="M160.474,-0.088C160.351,-0.2 160.29,-0.357 160.29,-0.56L160.29,-10.72C160.29,-10.923 160.351,-11.08 160.474,-11.192C160.597,-11.304 160.754,-11.36 160.946,-11.36C161.127,-11.36 161.279,-11.304 161.402,-11.192C161.525,-11.08 161.586,-10.923 161.586,-10.72L161.586,-0.56C161.586,-0.357 161.525,-0.2 161.402,-0.088C161.279,0.024 161.127,0.08 160.946,0.08C160.754,0.08 160.597,0.024 160.474,-0.088Z" style="fill-rule:nonzero;"/><path d="M164.196,-0.088C164.074,-0.2 164.012,-0.357 164.012,-0.56L164.012,-10.72C164.012,-10.923 164.074,-11.08 164.196,-11.192C164.319,-11.304 164.476,-11.36 164.668,-11.36C164.85,-11.36 165.002,-11.304 165.124,-11.192C165.247,-11.08 165.308,-10.923 165.308,-10.72L165.308,-0.56C165.308,-0.357 165.247,-0.2 165.124,-0.088C165.002,0.024 164.85,0.08 164.668,0.08C164.476,0.08 164.319,0.024 164.196,-0.088Z" style="fill-rule:nonzero;"/><path d="M178.593,-4.896L178.593,-0.56C178.593,-0.357 178.537,-0.2 178.425,-0.088C178.313,0.024 178.156,0.08 177.953,0.08C177.751,0.08 177.591,0.024 177.473,-0.088C177.356,-0.2 177.297,-0.357 177.297,-0.56L177.297,-4.816C177.297,-5.541 177.156,-6.069 176.873,-6.4C176.591,-6.731 176.14,-6.896 175.521,-6.896C174.807,-6.896 174.236,-6.677 173.809,-6.24C173.383,-5.803 173.169,-5.211 173.169,-4.464L173.169,-0.56C173.169,-0.357 173.113,-0.2 173.001,-0.088C172.889,0.024 172.732,0.08 172.529,0.08C172.327,0.08 172.167,0.024 172.049,-0.088C171.932,-0.2 171.873,-0.357 171.873,-0.56L171.873,-7.312C171.873,-7.504 171.932,-7.659 172.049,-7.776C172.167,-7.893 172.327,-7.952 172.529,-7.952C172.721,-7.952 172.873,-7.893 172.985,-7.776C173.097,-7.659 173.153,-7.509 173.153,-7.328L173.153,-6.512C173.409,-6.992 173.767,-7.357 174.225,-7.608C174.684,-7.859 175.207,-7.984 175.793,-7.984C177.66,-7.984 178.593,-6.955 178.593,-4.896Z" style="fill-rule:nonzero;"/><path d="M187.308,-1.664C187.393,-1.568 187.436,-1.445 187.436,-1.296C187.436,-1.029 187.249,-0.784 186.876,-0.56C186.492,-0.336 186.087,-0.168 185.66,-0.056C185.233,0.056 184.817,0.112 184.412,0.112C183.207,0.112 182.255,-0.245 181.556,-0.96C180.857,-1.675 180.508,-2.661 180.508,-3.92C180.508,-4.72 180.663,-5.427 180.972,-6.04C181.281,-6.653 181.716,-7.131 182.276,-7.472C182.836,-7.813 183.473,-7.984 184.188,-7.984C185.201,-7.984 186.007,-7.653 186.604,-6.992C187.201,-6.331 187.5,-5.435 187.5,-4.304C187.5,-4.091 187.457,-3.936 187.372,-3.84C187.287,-3.744 187.148,-3.696 186.956,-3.696L181.804,-3.696C181.9,-1.861 182.769,-0.944 184.412,-0.944C184.828,-0.944 185.185,-1 185.484,-1.112C185.783,-1.224 186.103,-1.376 186.444,-1.568C186.721,-1.728 186.908,-1.808 187.004,-1.808C187.121,-1.808 187.223,-1.76 187.308,-1.664ZM182.564,-6.336C182.153,-5.909 181.911,-5.307 181.836,-4.528L186.364,-4.528C186.343,-5.317 186.145,-5.923 185.772,-6.344C185.399,-6.765 184.876,-6.976 184.204,-6.976C183.521,-6.976 182.975,-6.763 182.564,-6.336Z" style="fill-rule:nonzero;"/><path d="M195.894,-0.528C195.894,-0.368 195.836,-0.229 195.718,-0.112C195.601,0.005 195.462,0.064 195.302,0.064C195.132,0.064 194.977,-0.011 194.838,-0.16L192.246,-3.12L189.67,-0.16C189.532,-0.011 189.377,0.064 189.206,0.064C189.046,0.064 188.905,0.005 188.782,-0.112C188.66,-0.229 188.598,-0.373 188.598,-0.544C188.598,-0.704 188.662,-0.853 188.79,-0.992L191.446,-3.984L188.902,-6.88C188.774,-7.029 188.71,-7.179 188.71,-7.328C188.71,-7.499 188.772,-7.643 188.894,-7.76C189.017,-7.877 189.153,-7.936 189.302,-7.936C189.473,-7.936 189.628,-7.861 189.766,-7.712L192.246,-4.864L194.726,-7.712C194.865,-7.861 195.02,-7.936 195.19,-7.936C195.35,-7.936 195.489,-7.877 195.606,-7.76C195.724,-7.643 195.782,-7.504 195.782,-7.344C195.782,-7.163 195.718,-7.008 195.59,-6.88L193.046,-3.984L195.702,-0.992C195.83,-0.864 195.894,-0.709 195.894,-0.528Z" style="fill-rule:nonzero;"/><path d="M201.761,-0.432C201.761,-0.251 201.694,-0.115 201.561,-0.024C201.428,0.067 201.228,0.101 200.961,0.08L200.529,0.048C199.676,-0.016 199.046,-0.272 198.641,-0.72C198.236,-1.168 198.033,-1.845 198.033,-2.752L198.033,-6.768L196.961,-6.768C196.78,-6.768 196.638,-6.813 196.537,-6.904C196.436,-6.995 196.385,-7.115 196.385,-7.264C196.385,-7.424 196.436,-7.552 196.537,-7.648C196.638,-7.744 196.78,-7.792 196.961,-7.792L198.033,-7.792L198.033,-9.6C198.033,-9.803 198.092,-9.96 198.209,-10.072C198.326,-10.184 198.486,-10.24 198.689,-10.24C198.881,-10.24 199.036,-10.184 199.153,-10.072C199.27,-9.96 199.329,-9.803 199.329,-9.6L199.329,-7.792L201.105,-7.792C201.276,-7.792 201.412,-7.744 201.513,-7.648C201.614,-7.552 201.665,-7.424 201.665,-7.264C201.665,-7.115 201.614,-6.995 201.513,-6.904C201.412,-6.813 201.276,-6.768 201.105,-6.768L199.329,-6.768L199.329,-2.688C199.329,-2.101 199.449,-1.677 199.689,-1.416C199.929,-1.155 200.289,-1.008 200.769,-0.976L201.201,-0.944C201.574,-0.912 201.761,-0.741 201.761,-0.432Z" style="fill-rule:nonzero;"/><path d="M202.819,-3.872C202.718,-3.968 202.667,-4.096 202.667,-4.256C202.667,-4.416 202.718,-4.547 202.819,-4.648C202.921,-4.749 203.067,-4.8 203.259,-4.8L206.779,-4.8C206.982,-4.8 207.134,-4.749 207.235,-4.648C207.337,-4.547 207.387,-4.416 207.387,-4.256C207.387,-4.096 207.337,-3.968 207.235,-3.872C207.134,-3.776 206.982,-3.728 206.779,-3.728L203.259,-3.728C203.067,-3.728 202.921,-3.776 202.819,-3.872Z" style="fill-rule:nonzero;"/><path d="M216.678,-7.776C216.795,-7.659 216.854,-7.504 216.854,-7.312L216.854,-0.528C216.854,0.635 216.555,1.512 215.958,2.104C215.361,2.696 214.475,2.992 213.302,2.992C212.161,2.992 211.211,2.768 210.454,2.32C210.07,2.107 209.878,1.861 209.878,1.584C209.878,1.435 209.918,1.312 209.998,1.216C210.078,1.12 210.182,1.072 210.31,1.072C210.417,1.072 210.609,1.147 210.886,1.296C211.259,1.488 211.627,1.643 211.99,1.76C212.353,1.877 212.785,1.936 213.286,1.936C214.043,1.936 214.614,1.736 214.998,1.336C215.382,0.936 215.574,0.352 215.574,-0.416L215.574,-1.792C215.35,-1.291 215.006,-0.907 214.542,-0.64C214.078,-0.373 213.531,-0.24 212.902,-0.24C212.219,-0.24 211.614,-0.4 211.086,-0.72C210.558,-1.04 210.147,-1.493 209.854,-2.08C209.561,-2.667 209.414,-3.344 209.414,-4.112C209.414,-4.88 209.561,-5.557 209.854,-6.144C210.147,-6.731 210.558,-7.184 211.086,-7.504C211.614,-7.824 212.219,-7.984 212.902,-7.984C213.521,-7.984 214.059,-7.851 214.518,-7.584C214.977,-7.317 215.323,-6.939 215.558,-6.448L215.558,-7.312C215.558,-7.504 215.614,-7.659 215.726,-7.776C215.838,-7.893 215.995,-7.952 216.198,-7.952C216.401,-7.952 216.561,-7.893 216.678,-7.776ZM214.918,-2.056C215.345,-2.552 215.558,-3.237 215.558,-4.112C215.558,-4.976 215.347,-5.656 214.926,-6.152C214.505,-6.648 213.915,-6.896 213.158,-6.896C212.401,-6.896 211.806,-6.648 211.374,-6.152C210.942,-5.656 210.726,-4.976 210.726,-4.112C210.726,-3.237 210.942,-2.552 211.374,-2.056C211.806,-1.56 212.401,-1.312 213.158,-1.312C213.905,-1.312 214.491,-1.56 214.918,-2.056Z" style="fill-rule:nonzero;"/><path d="M225.6,-1.664C225.686,-1.568 225.728,-1.445 225.728,-1.296C225.728,-1.029 225.542,-0.784 225.168,-0.56C224.784,-0.336 224.379,-0.168 223.952,-0.056C223.526,0.056 223.11,0.112 222.704,0.112C221.499,0.112 220.547,-0.245 219.848,-0.96C219.15,-1.675 218.8,-2.661 218.8,-3.92C218.8,-4.72 218.955,-5.427 219.264,-6.04C219.574,-6.653 220.008,-7.131 220.568,-7.472C221.128,-7.813 221.766,-7.984 222.48,-7.984C223.494,-7.984 224.299,-7.653 224.896,-6.992C225.494,-6.331 225.792,-5.435 225.792,-4.304C225.792,-4.091 225.75,-3.936 225.664,-3.84C225.579,-3.744 225.44,-3.696 225.248,-3.696L220.096,-3.696C220.192,-1.861 221.062,-0.944 222.704,-0.944C223.12,-0.944 223.478,-1 223.776,-1.112C224.075,-1.224 224.395,-1.376 224.736,-1.568C225.014,-1.728 225.2,-1.808 225.296,-1.808C225.414,-1.808 225.515,-1.76 225.6,-1.664ZM220.856,-6.336C220.446,-5.909 220.203,-5.307 220.128,-4.528L224.656,-4.528C224.635,-5.317 224.438,-5.923 224.064,-6.344C223.691,-6.765 223.168,-6.976 222.496,-6.976C221.814,-6.976 221.267,-6.763 220.856,-6.336Z" style="fill-rule:nonzero;"/><path d="M234.427,-4.896L234.427,-0.56C234.427,-0.357 234.371,-0.2 234.259,-0.088C234.147,0.024 233.99,0.08 233.787,0.08C233.584,0.08 233.424,0.024 233.307,-0.088C233.19,-0.2 233.131,-0.357 233.131,-0.56L233.131,-4.816C233.131,-5.541 232.99,-6.069 232.707,-6.4C232.424,-6.731 231.974,-6.896 231.355,-6.896C230.64,-6.896 230.07,-6.677 229.643,-6.24C229.216,-5.803 229.003,-5.211 229.003,-4.464L229.003,-0.56C229.003,-0.357 228.947,-0.2 228.835,-0.088C228.723,0.024 228.566,0.08 228.363,0.08C228.16,0.08 228,0.024 227.883,-0.088C227.766,-0.2 227.707,-0.357 227.707,-0.56L227.707,-7.312C227.707,-7.504 227.766,-7.659 227.883,-7.776C228,-7.893 228.16,-7.952 228.363,-7.952C228.555,-7.952 228.707,-7.893 228.819,-7.776C228.931,-7.659 228.987,-7.509 228.987,-7.328L228.987,-6.512C229.243,-6.992 229.6,-7.357 230.059,-7.608C230.518,-7.859 231.04,-7.984 231.627,-7.984C233.494,-7.984 234.427,-6.955 234.427,-4.896Z" style="fill-rule:nonzero;"/><path d="M243.141,-1.664C243.227,-1.568 243.269,-1.445 243.269,-1.296C243.269,-1.029 243.083,-0.784 242.709,-0.56C242.325,-0.336 241.92,-0.168 241.493,-0.056C241.067,0.056 240.651,0.112 240.245,0.112C239.04,0.112 238.088,-0.245 237.389,-0.96C236.691,-1.675 236.341,-2.661 236.341,-3.92C236.341,-4.72 236.496,-5.427 236.805,-6.04C237.115,-6.653 237.549,-7.131 238.109,-7.472C238.669,-7.813 239.307,-7.984 240.021,-7.984C241.035,-7.984 241.84,-7.653 242.437,-6.992C243.035,-6.331 243.333,-5.435 243.333,-4.304C243.333,-4.091 243.291,-3.936 243.205,-3.84C243.12,-3.744 242.981,-3.696 242.789,-3.696L237.637,-3.696C237.733,-1.861 238.603,-0.944 240.245,-0.944C240.661,-0.944 241.019,-1 241.317,-1.112C241.616,-1.224 241.936,-1.376 242.277,-1.568C242.555,-1.728 242.741,-1.808 242.837,-1.808C242.955,-1.808 243.056,-1.76 243.141,-1.664ZM238.397,-6.336C237.987,-5.909 237.744,-5.307 237.669,-4.528L242.197,-4.528C242.176,-5.317 241.979,-5.923 241.605,-6.344C241.232,-6.765 240.709,-6.976 240.037,-6.976C239.355,-6.976 238.808,-6.763 238.397,-6.336Z" style="fill-rule:nonzero;"/><path d="M249.776,-7.408C249.776,-7.237 249.728,-7.101 249.632,-7C249.536,-6.899 249.371,-6.837 249.136,-6.816L248.656,-6.768C247.941,-6.704 247.411,-6.451 247.064,-6.008C246.717,-5.565 246.544,-5.045 246.544,-4.448L246.544,-0.56C246.544,-0.347 246.485,-0.187 246.368,-0.08C246.251,0.027 246.096,0.08 245.904,0.08C245.712,0.08 245.555,0.024 245.432,-0.088C245.309,-0.2 245.248,-0.357 245.248,-0.56L245.248,-7.312C245.248,-7.515 245.312,-7.672 245.44,-7.784C245.568,-7.896 245.723,-7.952 245.904,-7.952C246.075,-7.952 246.219,-7.896 246.336,-7.784C246.453,-7.672 246.512,-7.52 246.512,-7.328L246.512,-6.432C246.736,-6.901 247.053,-7.259 247.464,-7.504C247.875,-7.749 248.347,-7.893 248.88,-7.936L249.104,-7.952C249.552,-7.984 249.776,-7.803 249.776,-7.408Z" style="fill-rule:nonzero;"/><path d="M256.954,-4.912L256.954,-0.56C256.954,-0.368 256.898,-0.213 256.786,-0.096C256.674,0.021 256.522,0.08 256.33,0.08C256.138,0.08 255.984,0.021 255.866,-0.096C255.749,-0.213 255.69,-0.368 255.69,-0.56L255.69,-1.328C255.488,-0.869 255.178,-0.515 254.762,-0.264C254.346,-0.013 253.866,0.112 253.322,0.112C252.821,0.112 252.36,0.011 251.938,-0.192C251.517,-0.395 251.184,-0.677 250.938,-1.04C250.693,-1.403 250.57,-1.803 250.57,-2.24C250.57,-2.827 250.72,-3.283 251.018,-3.608C251.317,-3.933 251.808,-4.168 252.49,-4.312C253.173,-4.456 254.122,-4.528 255.338,-4.528L255.69,-4.528L255.69,-5.056C255.69,-5.696 255.56,-6.165 255.298,-6.464C255.037,-6.763 254.613,-6.912 254.026,-6.912C253.301,-6.912 252.565,-6.715 251.818,-6.32C251.53,-6.139 251.328,-6.048 251.21,-6.048C251.082,-6.048 250.976,-6.096 250.89,-6.192C250.805,-6.288 250.762,-6.411 250.762,-6.56C250.762,-6.709 250.808,-6.84 250.898,-6.952C250.989,-7.064 251.136,-7.179 251.338,-7.296C251.712,-7.509 252.136,-7.677 252.61,-7.8C253.085,-7.923 253.557,-7.984 254.026,-7.984C255.978,-7.984 256.954,-6.96 256.954,-4.912ZM255.074,-1.56C255.485,-1.992 255.69,-2.549 255.69,-3.232L255.69,-3.696L255.402,-3.696C254.464,-3.696 253.749,-3.656 253.258,-3.576C252.768,-3.496 252.418,-3.363 252.21,-3.176C252.002,-2.989 251.898,-2.715 251.898,-2.352C251.898,-1.936 252.05,-1.592 252.354,-1.32C252.658,-1.048 253.04,-0.912 253.498,-0.912C254.138,-0.912 254.664,-1.128 255.074,-1.56Z" style="fill-rule:nonzero;"/><path d="M263.493,-0.432C263.493,-0.251 263.426,-0.115 263.293,-0.024C263.16,0.067 262.96,0.101 262.693,0.08L262.261,0.048C261.408,-0.016 260.778,-0.272 260.373,-0.72C259.968,-1.168 259.765,-1.845 259.765,-2.752L259.765,-6.768L258.693,-6.768C258.512,-6.768 258.37,-6.813 258.269,-6.904C258.168,-6.995 258.117,-7.115 258.117,-7.264C258.117,-7.424 258.168,-7.552 258.269,-7.648C258.37,-7.744 258.512,-7.792 258.693,-7.792L259.765,-7.792L259.765,-9.6C259.765,-9.803 259.824,-9.96 259.941,-10.072C260.058,-10.184 260.218,-10.24 260.421,-10.24C260.613,-10.24 260.768,-10.184 260.885,-10.072C261.002,-9.96 261.061,-9.803 261.061,-9.6L261.061,-7.792L262.837,-7.792C263.008,-7.792 263.144,-7.744 263.245,-7.648C263.346,-7.552 263.397,-7.424 263.397,-7.264C263.397,-7.115 263.346,-6.995 263.245,-6.904C263.144,-6.813 263.008,-6.768 262.837,-6.768L261.061,-6.768L261.061,-2.688C261.061,-2.101 261.181,-1.677 261.421,-1.416C261.661,-1.155 262.021,-1.008 262.501,-0.976L262.933,-0.944C263.306,-0.912 263.493,-0.741 263.493,-0.432Z" style="fill-rule:nonzero;"/><path d="M264.967,-0.088C264.845,-0.2 264.783,-0.357 264.783,-0.56L264.783,-7.312C264.783,-7.515 264.845,-7.672 264.967,-7.784C265.09,-7.896 265.247,-7.952 265.439,-7.952C265.631,-7.952 265.786,-7.896 265.903,-7.784C266.021,-7.672 266.079,-7.515 266.079,-7.312L266.079,-0.56C266.079,-0.347 266.021,-0.187 265.903,-0.08C265.786,0.027 265.631,0.08 265.439,0.08C265.247,0.08 265.09,0.024 264.967,-0.088ZM264.815,-9.856C264.655,-10.005 264.575,-10.203 264.575,-10.448C264.575,-10.683 264.655,-10.875 264.815,-11.024C264.975,-11.173 265.183,-11.248 265.439,-11.248C265.695,-11.248 265.903,-11.173 266.063,-11.024C266.223,-10.875 266.303,-10.683 266.303,-10.448C266.303,-10.203 266.223,-10.005 266.063,-9.856C265.903,-9.707 265.695,-9.632 265.439,-9.632C265.183,-9.632 264.975,-9.707 264.815,-9.856Z" style="fill-rule:nonzero;"/><path d="M269.794,-0.384C269.234,-0.715 268.802,-1.187 268.498,-1.8C268.194,-2.413 268.042,-3.125 268.042,-3.936C268.042,-4.747 268.194,-5.459 268.498,-6.072C268.802,-6.685 269.234,-7.157 269.794,-7.488C270.354,-7.819 271.002,-7.984 271.738,-7.984C272.474,-7.984 273.125,-7.819 273.69,-7.488C274.255,-7.157 274.69,-6.685 274.994,-6.072C275.298,-5.459 275.45,-4.747 275.45,-3.936C275.45,-3.125 275.298,-2.413 274.994,-1.8C274.69,-1.187 274.255,-0.715 273.69,-0.384C273.125,-0.053 272.474,0.112 271.738,0.112C271.002,0.112 270.354,-0.053 269.794,-0.384ZM273.506,-1.72C273.917,-2.227 274.122,-2.965 274.122,-3.936C274.122,-4.885 273.914,-5.619 273.498,-6.136C273.082,-6.653 272.495,-6.912 271.738,-6.912C270.981,-6.912 270.394,-6.653 269.978,-6.136C269.562,-5.619 269.354,-4.885 269.354,-3.936C269.354,-2.976 269.559,-2.24 269.97,-1.728C270.381,-1.216 270.97,-0.96 271.738,-0.96C272.506,-0.96 273.095,-1.213 273.506,-1.72Z" style="fill-rule:nonzero;"/><path d="M284.116,-4.896L284.116,-0.56C284.116,-0.357 284.06,-0.2 283.948,-0.088C283.836,0.024 283.679,0.08 283.476,0.08C283.274,0.08 283.114,0.024 282.996,-0.088C282.879,-0.2 282.82,-0.357 282.82,-0.56L282.82,-4.816C282.82,-5.541 282.679,-6.069 282.396,-6.4C282.114,-6.731 281.663,-6.896 281.044,-6.896C280.33,-6.896 279.759,-6.677 279.332,-6.24C278.906,-5.803 278.692,-5.211 278.692,-4.464L278.692,-0.56C278.692,-0.357 278.636,-0.2 278.524,-0.088C278.412,0.024 278.255,0.08 278.052,0.08C277.85,0.08 277.69,0.024 277.572,-0.088C277.455,-0.2 277.396,-0.357 277.396,-0.56L277.396,-7.312C277.396,-7.504 277.455,-7.659 277.572,-7.776C277.69,-7.893 277.85,-7.952 278.052,-7.952C278.244,-7.952 278.396,-7.893 278.508,-7.776C278.62,-7.659 278.676,-7.509 278.676,-7.328L278.676,-6.512C278.932,-6.992 279.29,-7.357 279.748,-7.608C280.207,-7.859 280.73,-7.984 281.316,-7.984C283.183,-7.984 284.116,-6.955 284.116,-4.896Z" style="fill-rule:nonzero;"/><path d="M297.017,-7.648C297.113,-7.552 297.161,-7.424 297.161,-7.264L297.161,-0.56C297.161,-0.357 297.1,-0.2 296.977,-0.088C296.855,0.024 296.703,0.08 296.521,0.08C296.329,0.08 296.172,0.024 296.049,-0.088C295.927,-0.2 295.865,-0.357 295.865,-0.56L295.865,-6.768L292.361,-6.768L292.361,-0.56C292.361,-0.357 292.3,-0.2 292.177,-0.088C292.055,0.024 291.903,0.08 291.721,0.08C291.529,0.08 291.372,0.024 291.249,-0.088C291.127,-0.2 291.065,-0.357 291.065,-0.56L291.065,-6.768L289.993,-6.768C289.812,-6.768 289.671,-6.813 289.569,-6.904C289.468,-6.995 289.417,-7.115 289.417,-7.264C289.417,-7.424 289.468,-7.552 289.569,-7.648C289.671,-7.744 289.812,-7.792 289.993,-7.792L291.065,-7.792L291.065,-8.064C291.065,-9.024 291.305,-9.779 291.785,-10.328C292.265,-10.877 292.953,-11.189 293.849,-11.264L294.233,-11.296C294.745,-11.339 295.001,-11.179 295.001,-10.816C295.001,-10.507 294.82,-10.331 294.457,-10.288L294.073,-10.256C293.508,-10.213 293.081,-10.035 292.793,-9.72C292.505,-9.405 292.361,-8.933 292.361,-8.304L292.361,-7.792L296.601,-7.792C296.783,-7.792 296.921,-7.744 297.017,-7.648ZM297.137,-11.024C297.303,-10.875 297.385,-10.683 297.385,-10.448C297.385,-10.203 297.305,-10.005 297.145,-9.856C296.985,-9.707 296.777,-9.632 296.521,-9.632C296.265,-9.632 296.057,-9.707 295.897,-9.856C295.737,-10.005 295.657,-10.203 295.657,-10.448C295.657,-10.683 295.737,-10.875 295.897,-11.024C296.057,-11.173 296.265,-11.248 296.521,-11.248C296.767,-11.248 296.972,-11.173 297.137,-11.024Z" style="fill-rule:nonzero;"/><path d="M304.116,-7.408C304.116,-7.237 304.068,-7.101 303.972,-7C303.876,-6.899 303.711,-6.837 303.476,-6.816L302.996,-6.768C302.281,-6.704 301.751,-6.451 301.404,-6.008C301.057,-5.565 300.884,-5.045 300.884,-4.448L300.884,-0.56C300.884,-0.347 300.825,-0.187 300.708,-0.08C300.591,0.027 300.436,0.08 300.244,0.08C300.052,0.08 299.895,0.024 299.772,-0.088C299.649,-0.2 299.588,-0.357 299.588,-0.56L299.588,-7.312C299.588,-7.515 299.652,-7.672 299.78,-7.784C299.908,-7.896 300.063,-7.952 300.244,-7.952C300.415,-7.952 300.559,-7.896 300.676,-7.784C300.793,-7.672 300.852,-7.52 300.852,-7.328L300.852,-6.432C301.076,-6.901 301.393,-7.259 301.804,-7.504C302.215,-7.749 302.687,-7.893 303.22,-7.936L303.444,-7.952C303.892,-7.984 304.116,-7.803 304.116,-7.408Z" style="fill-rule:nonzero;"/><path d="M311.422,-1.664C311.508,-1.568 311.55,-1.445 311.55,-1.296C311.55,-1.029 311.364,-0.784 310.99,-0.56C310.606,-0.336 310.201,-0.168 309.774,-0.056C309.348,0.056 308.932,0.112 308.526,0.112C307.321,0.112 306.369,-0.245 305.67,-0.96C304.972,-1.675 304.622,-2.661 304.622,-3.92C304.622,-4.72 304.777,-5.427 305.086,-6.04C305.396,-6.653 305.83,-7.131 306.39,-7.472C306.95,-7.813 307.588,-7.984 308.302,-7.984C309.316,-7.984 310.121,-7.653 310.718,-6.992C311.316,-6.331 311.614,-5.435 311.614,-4.304C311.614,-4.091 311.572,-3.936 311.486,-3.84C311.401,-3.744 311.262,-3.696 311.07,-3.696L305.918,-3.696C306.014,-1.861 306.884,-0.944 308.526,-0.944C308.942,-0.944 309.3,-1 309.598,-1.112C309.897,-1.224 310.217,-1.376 310.558,-1.568C310.836,-1.728 311.022,-1.808 311.118,-1.808C311.236,-1.808 311.337,-1.76 311.422,-1.664ZM306.678,-6.336C306.268,-5.909 306.025,-5.307 305.95,-4.528L310.478,-4.528C310.457,-5.317 310.26,-5.923 309.886,-6.344C309.513,-6.765 308.99,-6.976 308.318,-6.976C307.636,-6.976 307.089,-6.763 306.678,-6.336Z" style="fill-rule:nonzero;"/><path d="M324.617,-7.92C324.777,-7.92 324.921,-7.867 325.049,-7.76C325.177,-7.653 325.241,-7.52 325.241,-7.36C325.241,-7.285 325.225,-7.205 325.193,-7.12L322.537,-0.4C322.473,-0.261 322.379,-0.152 322.257,-0.072C322.134,0.008 321.998,0.048 321.849,0.048C321.71,0.048 321.579,0.008 321.457,-0.072C321.334,-0.152 321.241,-0.261 321.177,-0.4L318.969,-6.016L316.777,-0.4C316.723,-0.261 316.633,-0.152 316.505,-0.072C316.377,0.008 316.238,0.048 316.089,0.048C315.95,0.048 315.817,0.008 315.689,-0.072C315.561,-0.152 315.465,-0.261 315.401,-0.4L312.745,-7.104C312.713,-7.189 312.697,-7.264 312.697,-7.328C312.697,-7.499 312.769,-7.643 312.913,-7.76C313.057,-7.877 313.214,-7.936 313.385,-7.936C313.641,-7.936 313.822,-7.808 313.929,-7.552L316.121,-1.648L318.377,-7.504C318.441,-7.643 318.529,-7.749 318.641,-7.824C318.753,-7.899 318.873,-7.936 319.001,-7.936C319.139,-7.936 319.265,-7.899 319.377,-7.824C319.489,-7.749 319.571,-7.643 319.625,-7.504L321.881,-1.664L324.089,-7.536C324.195,-7.792 324.371,-7.92 324.617,-7.92Z" style="fill-rule:nonzero;"/><path d="M332.883,-4.912L332.883,-0.56C332.883,-0.368 332.827,-0.213 332.715,-0.096C332.603,0.021 332.451,0.08 332.259,0.08C332.067,0.08 331.913,0.021 331.795,-0.096C331.678,-0.213 331.619,-0.368 331.619,-0.56L331.619,-1.328C331.417,-0.869 331.107,-0.515 330.691,-0.264C330.275,-0.013 329.795,0.112 329.251,0.112C328.75,0.112 328.289,0.011 327.867,-0.192C327.446,-0.395 327.113,-0.677 326.867,-1.04C326.622,-1.403 326.499,-1.803 326.499,-2.24C326.499,-2.827 326.649,-3.283 326.947,-3.608C327.246,-3.933 327.737,-4.168 328.419,-4.312C329.102,-4.456 330.051,-4.528 331.267,-4.528L331.619,-4.528L331.619,-5.056C331.619,-5.696 331.489,-6.165 331.227,-6.464C330.966,-6.763 330.542,-6.912 329.955,-6.912C329.23,-6.912 328.494,-6.715 327.747,-6.32C327.459,-6.139 327.257,-6.048 327.139,-6.048C327.011,-6.048 326.905,-6.096 326.819,-6.192C326.734,-6.288 326.691,-6.411 326.691,-6.56C326.691,-6.709 326.737,-6.84 326.827,-6.952C326.918,-7.064 327.065,-7.179 327.267,-7.296C327.641,-7.509 328.065,-7.677 328.539,-7.8C329.014,-7.923 329.486,-7.984 329.955,-7.984C331.907,-7.984 332.883,-6.96 332.883,-4.912ZM331.003,-1.56C331.414,-1.992 331.619,-2.549 331.619,-3.232L331.619,-3.696L331.331,-3.696C330.393,-3.696 329.678,-3.656 329.187,-3.576C328.697,-3.496 328.347,-3.363 328.139,-3.176C327.931,-2.989 327.827,-2.715 327.827,-2.352C327.827,-1.936 327.979,-1.592 328.283,-1.32C328.587,-1.048 328.969,-0.912 329.427,-0.912C330.067,-0.912 330.593,-1.128 331.003,-1.56Z" style="fill-rule:nonzero;"/><path d="M335.446,-0.088C335.323,-0.2 335.262,-0.357 335.262,-0.56L335.262,-10.72C335.262,-10.923 335.323,-11.08 335.446,-11.192C335.568,-11.304 335.726,-11.36 335.918,-11.36C336.099,-11.36 336.251,-11.304 336.374,-11.192C336.496,-11.08 336.558,-10.923 336.558,-10.72L336.558,-0.56C336.558,-0.357 336.496,-0.2 336.374,-0.088C336.251,0.024 336.099,0.08 335.918,0.08C335.726,0.08 335.568,0.024 335.446,-0.088Z" style="fill-rule:nonzero;"/><path d="M339.168,-0.088C339.046,-0.2 338.984,-0.357 338.984,-0.56L338.984,-10.72C338.984,-10.923 339.046,-11.08 339.168,-11.192C339.291,-11.304 339.448,-11.36 339.64,-11.36C339.822,-11.36 339.974,-11.304 340.096,-11.192C340.219,-11.08 340.28,-10.923 340.28,-10.72L340.28,-0.56C340.28,-0.357 340.219,-0.2 340.096,-0.088C339.974,0.024 339.822,0.08 339.64,0.08C339.448,0.08 339.291,0.024 339.168,-0.088Z" style="fill-rule:nonzero;"/><path d="M342.707,-0.168C342.536,-0.333 342.451,-0.549 342.451,-0.816C342.451,-1.083 342.536,-1.301 342.707,-1.472C342.877,-1.643 343.091,-1.728 343.347,-1.728C343.592,-1.728 343.797,-1.643 343.963,-1.472C344.128,-1.301 344.211,-1.083 344.211,-0.816C344.211,-0.549 344.128,-0.333 343.963,-0.168C343.797,-0.003 343.592,0.08 343.347,0.08C343.091,0.08 342.877,-0.003 342.707,-0.168Z" style="fill-rule:nonzero;"/></g></g></g></g></svg>