<?xml version="1.0" encoding="UTF-8" standalone="no"?><!DOCTYPE svg PUBLIC "-//W3C//DTD SVG 1.1//EN" "http://www.w3.org/Graphics/SVG/1.1/DTD/svg11.dtd"><svg width="100%" height="100%" viewBox="0 0 483 13" version="1.1" xmlns="http://www.w3.org/2000/svg" xmlns:xlink="http://www.w3.org/1999/xlink" xml:space="preserve" xmlns:serif="http://www.serif.com/" style="fill-rule:evenodd;clip-rule:evenodd;stroke-linejoin:round;stroke-miterlimit:1.41421;"><g transform="matrix(1,0,0,1,-961,-122)"><g transform="matrix(1,0,0,1,0,-4)"><g transform="matrix(1,0,0,1,960.3,138)"><g id="Download-and-install"><path d="M1.576,-0.176C1.453,-0.293 1.392,-0.448 1.392,-0.64L1.392,-10.64C1.392,-10.832 1.453,-10.987 1.576,-11.104C1.699,-11.221 1.861,-11.28 2.064,-11.28L5.184,-11.28C6.987,-11.28 8.381,-10.792 9.368,-9.816C10.355,-8.84 10.848,-7.451 10.848,-5.648C10.848,-3.845 10.352,-2.453 9.36,-1.472C8.368,-0.491 6.976,0 5.184,0L2.064,0C1.861,0 1.699,-0.059 1.576,-0.176ZM5.104,-1.12C8.027,-1.12 9.488,-2.629 9.488,-5.648C9.488,-8.656 8.027,-10.16 5.104,-10.16L2.704,-10.16L2.704,-1.12L5.104,-1.12Z" style="fill-rule:nonzero;"/><path d="M14.322,-0.384C13.762,-0.715 13.33,-1.187 13.026,-1.8C12.722,-2.413 12.57,-3.125 12.57,-3.936C12.57,-4.747 12.722,-5.459 13.026,-6.072C13.33,-6.685 13.762,-7.157 14.322,-7.488C14.882,-7.819 15.53,-7.984 16.266,-7.984C17.002,-7.984 17.653,-7.819 18.218,-7.488C18.784,-7.157 19.218,-6.685 19.522,-6.072C19.826,-5.459 19.978,-4.747 19.978,-3.936C19.978,-3.125 19.826,-2.413 19.522,-1.8C19.218,-1.187 18.784,-0.715 18.218,-0.384C17.653,-0.053 17.002,0.112 16.266,0.112C15.53,0.112 14.882,-0.053 14.322,-0.384ZM18.034,-1.72C18.445,-2.227 18.65,-2.965 18.65,-3.936C18.65,-4.885 18.442,-5.619 18.026,-6.136C17.61,-6.653 17.024,-6.912 16.266,-6.912C15.509,-6.912 14.922,-6.653 14.506,-6.136C14.09,-5.619 13.882,-4.885 13.882,-3.936C13.882,-2.976 14.088,-2.24 14.498,-1.728C14.909,-1.216 15.498,-0.96 16.266,-0.96C17.034,-0.96 17.624,-1.213 18.034,-1.72Z" style="fill-rule:nonzero;"/><path d="M33.013,-7.92C33.173,-7.92 33.317,-7.867 33.445,-7.76C33.573,-7.653 33.637,-7.52 33.637,-7.36C33.637,-7.285 33.621,-7.205 33.589,-7.12L30.933,-0.4C30.869,-0.261 30.776,-0.152 30.653,-0.072C30.53,0.008 30.394,0.048 30.245,0.048C30.106,0.048 29.976,0.008 29.853,-0.072C29.73,-0.152 29.637,-0.261 29.573,-0.4L27.365,-6.016L25.173,-0.4C25.12,-0.261 25.029,-0.152 24.901,-0.072C24.773,0.008 24.634,0.048 24.485,0.048C24.346,0.048 24.213,0.008 24.085,-0.072C23.957,-0.152 23.861,-0.261 23.797,-0.4L21.141,-7.104C21.109,-7.189 21.093,-7.264 21.093,-7.328C21.093,-7.499 21.165,-7.643 21.309,-7.76C21.453,-7.877 21.61,-7.936 21.781,-7.936C22.037,-7.936 22.218,-7.808 22.325,-7.552L24.517,-1.648L26.773,-7.504C26.837,-7.643 26.925,-7.749 27.037,-7.824C27.149,-7.899 27.269,-7.936 27.397,-7.936C27.536,-7.936 27.661,-7.899 27.773,-7.824C27.885,-7.749 27.968,-7.643 28.021,-7.504L30.277,-1.664L32.485,-7.536C32.592,-7.792 32.768,-7.92 33.013,-7.92Z" style="fill-rule:nonzero;"/><path d="M42.031,-4.896L42.031,-0.56C42.031,-0.357 41.975,-0.2 41.863,-0.088C41.751,0.024 41.594,0.08 41.391,0.08C41.189,0.08 41.029,0.024 40.911,-0.088C40.794,-0.2 40.735,-0.357 40.735,-0.56L40.735,-4.816C40.735,-5.541 40.594,-6.069 40.311,-6.4C40.029,-6.731 39.578,-6.896 38.959,-6.896C38.245,-6.896 37.674,-6.677 37.247,-6.24C36.821,-5.803 36.607,-5.211 36.607,-4.464L36.607,-0.56C36.607,-0.357 36.551,-0.2 36.439,-0.088C36.327,0.024 36.17,0.08 35.967,0.08C35.765,0.08 35.605,0.024 35.487,-0.088C35.37,-0.2 35.311,-0.357 35.311,-0.56L35.311,-7.312C35.311,-7.504 35.37,-7.659 35.487,-7.776C35.605,-7.893 35.765,-7.952 35.967,-7.952C36.159,-7.952 36.311,-7.893 36.423,-7.776C36.535,-7.659 36.591,-7.509 36.591,-7.328L36.591,-6.512C36.847,-6.992 37.205,-7.357 37.663,-7.608C38.122,-7.859 38.645,-7.984 39.231,-7.984C41.098,-7.984 42.031,-6.955 42.031,-4.896Z" style="fill-rule:nonzero;"/><path d="M44.594,-0.088C44.471,-0.2 44.41,-0.357 44.41,-0.56L44.41,-10.72C44.41,-10.923 44.471,-11.08 44.594,-11.192C44.717,-11.304 44.874,-11.36 45.066,-11.36C45.247,-11.36 45.399,-11.304 45.522,-11.192C45.645,-11.08 45.706,-10.923 45.706,-10.72L45.706,-0.56C45.706,-0.357 45.645,-0.2 45.522,-0.088C45.399,0.024 45.247,0.08 45.066,0.08C44.874,0.08 44.717,0.024 44.594,-0.088Z" style="fill-rule:nonzero;"/><path d="M49.42,-0.384C48.86,-0.715 48.428,-1.187 48.124,-1.8C47.82,-2.413 47.668,-3.125 47.668,-3.936C47.668,-4.747 47.82,-5.459 48.124,-6.072C48.428,-6.685 48.86,-7.157 49.42,-7.488C49.98,-7.819 50.628,-7.984 51.364,-7.984C52.1,-7.984 52.751,-7.819 53.316,-7.488C53.882,-7.157 54.316,-6.685 54.62,-6.072C54.924,-5.459 55.076,-4.747 55.076,-3.936C55.076,-3.125 54.924,-2.413 54.62,-1.8C54.316,-1.187 53.882,-0.715 53.316,-0.384C52.751,-0.053 52.1,0.112 51.364,0.112C50.628,0.112 49.98,-0.053 49.42,-0.384ZM53.132,-1.72C53.543,-2.227 53.748,-2.965 53.748,-3.936C53.748,-4.885 53.54,-5.619 53.124,-6.136C52.708,-6.653 52.122,-6.912 51.364,-6.912C50.607,-6.912 50.02,-6.653 49.604,-6.136C49.188,-5.619 48.98,-4.885 48.98,-3.936C48.98,-2.976 49.186,-2.24 49.596,-1.728C50.007,-1.216 50.596,-0.96 51.364,-0.96C52.132,-0.96 52.722,-1.213 53.132,-1.72Z" style="fill-rule:nonzero;"/><path d="M63.135,-4.912L63.135,-0.56C63.135,-0.368 63.079,-0.213 62.967,-0.096C62.855,0.021 62.703,0.08 62.511,0.08C62.319,0.08 62.164,0.021 62.047,-0.096C61.93,-0.213 61.871,-0.368 61.871,-0.56L61.871,-1.328C61.668,-0.869 61.359,-0.515 60.943,-0.264C60.527,-0.013 60.047,0.112 59.503,0.112C59.002,0.112 58.54,0.011 58.119,-0.192C57.698,-0.395 57.364,-0.677 57.119,-1.04C56.874,-1.403 56.751,-1.803 56.751,-2.24C56.751,-2.827 56.9,-3.283 57.199,-3.608C57.498,-3.933 57.988,-4.168 58.671,-4.312C59.354,-4.456 60.303,-4.528 61.519,-4.528L61.871,-4.528L61.871,-5.056C61.871,-5.696 61.74,-6.165 61.479,-6.464C61.218,-6.763 60.794,-6.912 60.207,-6.912C59.482,-6.912 58.746,-6.715 57.999,-6.32C57.711,-6.139 57.508,-6.048 57.391,-6.048C57.263,-6.048 57.156,-6.096 57.071,-6.192C56.986,-6.288 56.943,-6.411 56.943,-6.56C56.943,-6.709 56.988,-6.84 57.079,-6.952C57.17,-7.064 57.316,-7.179 57.519,-7.296C57.892,-7.509 58.316,-7.677 58.791,-7.8C59.266,-7.923 59.738,-7.984 60.207,-7.984C62.159,-7.984 63.135,-6.96 63.135,-4.912ZM61.255,-1.56C61.666,-1.992 61.871,-2.549 61.871,-3.232L61.871,-3.696L61.583,-3.696C60.644,-3.696 59.93,-3.656 59.439,-3.576C58.948,-3.496 58.599,-3.363 58.391,-3.176C58.183,-2.989 58.079,-2.715 58.079,-2.352C58.079,-1.936 58.231,-1.592 58.535,-1.32C58.839,-1.048 59.22,-0.912 59.679,-0.912C60.319,-0.912 60.844,-1.128 61.255,-1.56Z" style="fill-rule:nonzero;"/><path d="M72.249,-11.184C72.367,-11.067 72.425,-10.917 72.425,-10.736L72.425,-0.56C72.425,-0.368 72.367,-0.213 72.249,-0.096C72.132,0.021 71.972,0.08 71.769,0.08C71.567,0.08 71.409,0.021 71.297,-0.096C71.185,-0.213 71.129,-0.368 71.129,-0.56L71.129,-1.424C70.895,-0.933 70.551,-0.555 70.097,-0.288C69.644,-0.021 69.113,0.112 68.505,0.112C67.823,0.112 67.22,-0.059 66.697,-0.4C66.175,-0.741 65.769,-1.219 65.481,-1.832C65.193,-2.445 65.049,-3.157 65.049,-3.968C65.049,-4.768 65.193,-5.472 65.481,-6.08C65.769,-6.688 66.175,-7.157 66.697,-7.488C67.22,-7.819 67.823,-7.984 68.505,-7.984C69.113,-7.984 69.644,-7.851 70.097,-7.584C70.551,-7.317 70.895,-6.939 71.129,-6.448L71.129,-10.736C71.129,-10.928 71.185,-11.08 71.297,-11.192C71.409,-11.304 71.567,-11.36 71.769,-11.36C71.972,-11.36 72.132,-11.301 72.249,-11.184ZM70.513,-1.736C70.924,-2.253 71.129,-2.987 71.129,-3.936C71.129,-4.885 70.924,-5.616 70.513,-6.128C70.103,-6.64 69.519,-6.896 68.761,-6.896C68.004,-6.896 67.415,-6.64 66.993,-6.128C66.572,-5.616 66.361,-4.896 66.361,-3.968C66.361,-3.019 66.572,-2.28 66.993,-1.752C67.415,-1.224 68.004,-0.96 68.761,-0.96C69.519,-0.96 70.103,-1.219 70.513,-1.736Z" style="fill-rule:nonzero;"/><path d="M85.086,-4.912L85.086,-0.56C85.086,-0.368 85.03,-0.213 84.918,-0.096C84.806,0.021 84.654,0.08 84.462,0.08C84.27,0.08 84.116,0.021 83.998,-0.096C83.881,-0.213 83.822,-0.368 83.822,-0.56L83.822,-1.328C83.62,-0.869 83.31,-0.515 82.894,-0.264C82.478,-0.013 81.998,0.112 81.454,0.112C80.953,0.112 80.492,0.011 80.07,-0.192C79.649,-0.395 79.316,-0.677 79.07,-1.04C78.825,-1.403 78.702,-1.803 78.702,-2.24C78.702,-2.827 78.852,-3.283 79.15,-3.608C79.449,-3.933 79.94,-4.168 80.622,-4.312C81.305,-4.456 82.254,-4.528 83.47,-4.528L83.822,-4.528L83.822,-5.056C83.822,-5.696 83.692,-6.165 83.43,-6.464C83.169,-6.763 82.745,-6.912 82.158,-6.912C81.433,-6.912 80.697,-6.715 79.95,-6.32C79.662,-6.139 79.46,-6.048 79.342,-6.048C79.214,-6.048 79.108,-6.096 79.022,-6.192C78.937,-6.288 78.894,-6.411 78.894,-6.56C78.894,-6.709 78.94,-6.84 79.03,-6.952C79.121,-7.064 79.268,-7.179 79.47,-7.296C79.844,-7.509 80.268,-7.677 80.742,-7.8C81.217,-7.923 81.689,-7.984 82.158,-7.984C84.11,-7.984 85.086,-6.96 85.086,-4.912ZM83.206,-1.56C83.617,-1.992 83.822,-2.549 83.822,-3.232L83.822,-3.696L83.534,-3.696C82.596,-3.696 81.881,-3.656 81.39,-3.576C80.9,-3.496 80.55,-3.363 80.342,-3.176C80.134,-2.989 80.03,-2.715 80.03,-2.352C80.03,-1.936 80.182,-1.592 80.486,-1.32C80.79,-1.048 81.172,-0.912 81.63,-0.912C82.27,-0.912 82.796,-1.128 83.206,-1.56Z" style="fill-rule:nonzero;"/><path d="M94.185,-4.896L94.185,-0.56C94.185,-0.357 94.129,-0.2 94.017,-0.088C93.905,0.024 93.748,0.08 93.545,0.08C93.342,0.08 93.182,0.024 93.065,-0.088C92.948,-0.2 92.889,-0.357 92.889,-0.56L92.889,-4.816C92.889,-5.541 92.748,-6.069 92.465,-6.4C92.182,-6.731 91.732,-6.896 91.113,-6.896C90.398,-6.896 89.828,-6.677 89.401,-6.24C88.974,-5.803 88.761,-5.211 88.761,-4.464L88.761,-0.56C88.761,-0.357 88.705,-0.2 88.593,-0.088C88.481,0.024 88.324,0.08 88.121,0.08C87.918,0.08 87.758,0.024 87.641,-0.088C87.524,-0.2 87.465,-0.357 87.465,-0.56L87.465,-7.312C87.465,-7.504 87.524,-7.659 87.641,-7.776C87.758,-7.893 87.918,-7.952 88.121,-7.952C88.313,-7.952 88.465,-7.893 88.577,-7.776C88.689,-7.659 88.745,-7.509 88.745,-7.328L88.745,-6.512C89.001,-6.992 89.358,-7.357 89.817,-7.608C90.276,-7.859 90.798,-7.984 91.385,-7.984C93.252,-7.984 94.185,-6.955 94.185,-4.896Z" style="fill-rule:nonzero;"/><path d="M103.299,-11.184C103.417,-11.067 103.475,-10.917 103.475,-10.736L103.475,-0.56C103.475,-0.368 103.417,-0.213 103.299,-0.096C103.182,0.021 103.022,0.08 102.819,0.08C102.617,0.08 102.459,0.021 102.347,-0.096C102.235,-0.213 102.179,-0.368 102.179,-0.56L102.179,-1.424C101.945,-0.933 101.601,-0.555 101.147,-0.288C100.694,-0.021 100.163,0.112 99.555,0.112C98.873,0.112 98.27,-0.059 97.747,-0.4C97.225,-0.741 96.819,-1.219 96.531,-1.832C96.243,-2.445 96.099,-3.157 96.099,-3.968C96.099,-4.768 96.243,-5.472 96.531,-6.08C96.819,-6.688 97.225,-7.157 97.747,-7.488C98.27,-7.819 98.873,-7.984 99.555,-7.984C100.163,-7.984 100.694,-7.851 101.147,-7.584C101.601,-7.317 101.945,-6.939 102.179,-6.448L102.179,-10.736C102.179,-10.928 102.235,-11.08 102.347,-11.192C102.459,-11.304 102.617,-11.36 102.819,-11.36C103.022,-11.36 103.182,-11.301 103.299,-11.184ZM101.563,-1.736C101.974,-2.253 102.179,-2.987 102.179,-3.936C102.179,-4.885 101.974,-5.616 101.563,-6.128C101.153,-6.64 100.569,-6.896 99.811,-6.896C99.054,-6.896 98.465,-6.64 98.043,-6.128C97.622,-5.616 97.411,-4.896 97.411,-3.968C97.411,-3.019 97.622,-2.28 98.043,-1.752C98.465,-1.224 99.054,-0.96 99.811,-0.96C100.569,-0.96 101.153,-1.219 101.563,-1.736Z" style="fill-rule:nonzero;"/><path d="M110.208,-0.088C110.086,-0.2 110.024,-0.357 110.024,-0.56L110.024,-7.312C110.024,-7.515 110.086,-7.672 110.208,-7.784C110.331,-7.896 110.488,-7.952 110.68,-7.952C110.872,-7.952 111.027,-7.896 111.144,-7.784C111.262,-7.672 111.32,-7.515 111.32,-7.312L111.32,-0.56C111.32,-0.347 111.262,-0.187 111.144,-0.08C111.027,0.027 110.872,0.08 110.68,0.08C110.488,0.08 110.331,0.024 110.208,-0.088ZM110.056,-9.856C109.896,-10.005 109.816,-10.203 109.816,-10.448C109.816,-10.683 109.896,-10.875 110.056,-11.024C110.216,-11.173 110.424,-11.248 110.68,-11.248C110.936,-11.248 111.144,-11.173 111.304,-11.024C111.464,-10.875 111.544,-10.683 111.544,-10.448C111.544,-10.203 111.464,-10.005 111.304,-9.856C111.144,-9.707 110.936,-9.632 110.68,-9.632C110.424,-9.632 110.216,-9.707 110.056,-9.856Z" style="fill-rule:nonzero;"/><path d="M120.467,-4.896L120.467,-0.56C120.467,-0.357 120.411,-0.2 120.299,-0.088C120.187,0.024 120.03,0.08 119.827,0.08C119.624,0.08 119.464,0.024 119.347,-0.088C119.23,-0.2 119.171,-0.357 119.171,-0.56L119.171,-4.816C119.171,-5.541 119.03,-6.069 118.747,-6.4C118.464,-6.731 118.014,-6.896 117.395,-6.896C116.68,-6.896 116.11,-6.677 115.683,-6.24C115.256,-5.803 115.043,-5.211 115.043,-4.464L115.043,-0.56C115.043,-0.357 114.987,-0.2 114.875,-0.088C114.763,0.024 114.606,0.08 114.403,0.08C114.2,0.08 114.04,0.024 113.923,-0.088C113.806,-0.2 113.747,-0.357 113.747,-0.56L113.747,-7.312C113.747,-7.504 113.806,-7.659 113.923,-7.776C114.04,-7.893 114.2,-7.952 114.403,-7.952C114.595,-7.952 114.747,-7.893 114.859,-7.776C114.971,-7.659 115.027,-7.509 115.027,-7.328L115.027,-6.512C115.283,-6.992 115.64,-7.357 116.099,-7.608C116.558,-7.859 117.08,-7.984 117.667,-7.984C119.534,-7.984 120.467,-6.955 120.467,-4.896Z" style="fill-rule:nonzero;"/><path d="M124.069,-0.064C123.627,-0.181 123.235,-0.347 122.893,-0.56C122.701,-0.688 122.565,-0.808 122.485,-0.92C122.405,-1.032 122.365,-1.168 122.365,-1.328C122.365,-1.467 122.405,-1.581 122.485,-1.672C122.565,-1.763 122.669,-1.808 122.797,-1.808C122.925,-1.808 123.112,-1.728 123.357,-1.568C123.677,-1.376 123.995,-1.224 124.309,-1.112C124.624,-1 125.016,-0.944 125.485,-0.944C126.061,-0.944 126.509,-1.045 126.829,-1.248C127.149,-1.451 127.309,-1.744 127.309,-2.128C127.309,-2.363 127.251,-2.552 127.133,-2.696C127.016,-2.84 126.813,-2.968 126.525,-3.08C126.237,-3.192 125.816,-3.307 125.261,-3.424C124.323,-3.627 123.651,-3.899 123.245,-4.24C122.84,-4.581 122.637,-5.045 122.637,-5.632C122.637,-6.091 122.765,-6.496 123.021,-6.848C123.277,-7.2 123.632,-7.477 124.085,-7.68C124.539,-7.883 125.053,-7.984 125.629,-7.984C126.045,-7.984 126.448,-7.928 126.837,-7.816C127.227,-7.704 127.571,-7.547 127.869,-7.344C128.232,-7.088 128.413,-6.821 128.413,-6.544C128.413,-6.405 128.371,-6.288 128.285,-6.192C128.2,-6.096 128.099,-6.048 127.981,-6.048C127.853,-6.048 127.661,-6.139 127.405,-6.32C127.107,-6.512 126.824,-6.661 126.557,-6.768C126.291,-6.875 125.96,-6.928 125.565,-6.928C125.064,-6.928 124.661,-6.816 124.357,-6.592C124.053,-6.368 123.901,-6.069 123.901,-5.696C123.901,-5.461 123.957,-5.272 124.069,-5.128C124.181,-4.984 124.368,-4.856 124.629,-4.744C124.891,-4.632 125.267,-4.523 125.757,-4.416C126.483,-4.256 127.045,-4.08 127.445,-3.888C127.845,-3.696 128.131,-3.461 128.301,-3.184C128.472,-2.907 128.557,-2.555 128.557,-2.128C128.557,-1.456 128.275,-0.915 127.709,-0.504C127.144,-0.093 126.397,0.112 125.469,0.112C124.979,0.112 124.512,0.053 124.069,-0.064Z" style="fill-rule:nonzero;"/><path d="M134.616,-0.432C134.616,-0.251 134.549,-0.115 134.416,-0.024C134.283,0.067 134.083,0.101 133.816,0.08L133.384,0.048C132.531,-0.016 131.901,-0.272 131.496,-0.72C131.091,-1.168 130.888,-1.845 130.888,-2.752L130.888,-6.768L129.816,-6.768C129.635,-6.768 129.493,-6.813 129.392,-6.904C129.291,-6.995 129.24,-7.115 129.24,-7.264C129.24,-7.424 129.291,-7.552 129.392,-7.648C129.493,-7.744 129.635,-7.792 129.816,-7.792L130.888,-7.792L130.888,-9.6C130.888,-9.803 130.947,-9.96 131.064,-10.072C131.181,-10.184 131.341,-10.24 131.544,-10.24C131.736,-10.24 131.891,-10.184 132.008,-10.072C132.125,-9.96 132.184,-9.803 132.184,-9.6L132.184,-7.792L133.96,-7.792C134.131,-7.792 134.267,-7.744 134.368,-7.648C134.469,-7.552 134.52,-7.424 134.52,-7.264C134.52,-7.115 134.469,-6.995 134.368,-6.904C134.267,-6.813 134.131,-6.768 133.96,-6.768L132.184,-6.768L132.184,-2.688C132.184,-2.101 132.304,-1.677 132.544,-1.416C132.784,-1.155 133.144,-1.008 133.624,-0.976L134.056,-0.944C134.429,-0.912 134.616,-0.741 134.616,-0.432Z" style="fill-rule:nonzero;"/><path d="M142.018,-4.912L142.018,-0.56C142.018,-0.368 141.962,-0.213 141.85,-0.096C141.738,0.021 141.586,0.08 141.394,0.08C141.202,0.08 141.048,0.021 140.93,-0.096C140.813,-0.213 140.754,-0.368 140.754,-0.56L140.754,-1.328C140.552,-0.869 140.242,-0.515 139.826,-0.264C139.41,-0.013 138.93,0.112 138.386,0.112C137.885,0.112 137.424,0.011 137.002,-0.192C136.581,-0.395 136.248,-0.677 136.002,-1.04C135.757,-1.403 135.634,-1.803 135.634,-2.24C135.634,-2.827 135.784,-3.283 136.082,-3.608C136.381,-3.933 136.872,-4.168 137.554,-4.312C138.237,-4.456 139.186,-4.528 140.402,-4.528L140.754,-4.528L140.754,-5.056C140.754,-5.696 140.624,-6.165 140.362,-6.464C140.101,-6.763 139.677,-6.912 139.09,-6.912C138.365,-6.912 137.629,-6.715 136.882,-6.32C136.594,-6.139 136.392,-6.048 136.274,-6.048C136.146,-6.048 136.04,-6.096 135.954,-6.192C135.869,-6.288 135.826,-6.411 135.826,-6.56C135.826,-6.709 135.872,-6.84 135.962,-6.952C136.053,-7.064 136.2,-7.179 136.402,-7.296C136.776,-7.509 137.2,-7.677 137.674,-7.8C138.149,-7.923 138.621,-7.984 139.09,-7.984C141.042,-7.984 142.018,-6.96 142.018,-4.912ZM140.138,-1.56C140.549,-1.992 140.754,-2.549 140.754,-3.232L140.754,-3.696L140.466,-3.696C139.528,-3.696 138.813,-3.656 138.322,-3.576C137.832,-3.496 137.482,-3.363 137.274,-3.176C137.066,-2.989 136.962,-2.715 136.962,-2.352C136.962,-1.936 137.114,-1.592 137.418,-1.32C137.722,-1.048 138.104,-0.912 138.562,-0.912C139.202,-0.912 139.728,-1.128 140.138,-1.56Z" style="fill-rule:nonzero;"/><path d="M144.581,-0.088C144.458,-0.2 144.397,-0.357 144.397,-0.56L144.397,-10.72C144.397,-10.923 144.458,-11.08 144.581,-11.192C144.704,-11.304 144.861,-11.36 145.053,-11.36C145.234,-11.36 145.386,-11.304 145.509,-11.192C145.632,-11.08 145.693,-10.923 145.693,-10.72L145.693,-0.56C145.693,-0.357 145.632,-0.2 145.509,-0.088C145.386,0.024 145.234,0.08 145.053,0.08C144.861,0.08 144.704,0.024 144.581,-0.088Z" style="fill-rule:nonzero;"/><path d="M148.303,-0.088C148.181,-0.2 148.119,-0.357 148.119,-0.56L148.119,-10.72C148.119,-10.923 148.181,-11.08 148.303,-11.192C148.426,-11.304 148.583,-11.36 148.775,-11.36C148.957,-11.36 149.109,-11.304 149.231,-11.192C149.354,-11.08 149.415,-10.923 149.415,-10.72L149.415,-0.56C149.415,-0.357 149.354,-0.2 149.231,-0.088C149.109,0.024 148.957,0.08 148.775,0.08C148.583,0.08 148.426,0.024 148.303,-0.088Z" style="fill-rule:nonzero;"/><path d="M157.476,-0.232C156.746,-0.472 156.162,-0.795 155.724,-1.2C155.564,-1.349 155.484,-1.536 155.484,-1.76C155.484,-1.909 155.527,-2.04 155.612,-2.152C155.698,-2.264 155.799,-2.32 155.916,-2.32C156.055,-2.32 156.204,-2.261 156.364,-2.144C157.356,-1.376 158.487,-0.992 159.756,-0.992C160.674,-0.992 161.378,-1.168 161.868,-1.52C162.359,-1.872 162.604,-2.373 162.604,-3.024C162.604,-3.397 162.487,-3.699 162.252,-3.928C162.018,-4.157 161.708,-4.341 161.324,-4.48C160.94,-4.619 160.423,-4.763 159.772,-4.912C158.898,-5.115 158.18,-5.328 157.62,-5.552C157.06,-5.776 156.607,-6.096 156.26,-6.512C155.914,-6.928 155.74,-7.472 155.74,-8.144C155.74,-8.784 155.914,-9.352 156.26,-9.848C156.607,-10.344 157.092,-10.728 157.716,-11C158.34,-11.272 159.052,-11.408 159.852,-11.408C160.599,-11.408 161.295,-11.293 161.94,-11.064C162.586,-10.835 163.127,-10.507 163.564,-10.08C163.735,-9.909 163.82,-9.723 163.82,-9.52C163.82,-9.371 163.778,-9.24 163.692,-9.128C163.607,-9.016 163.506,-8.96 163.388,-8.96C163.271,-8.96 163.116,-9.019 162.924,-9.136C162.402,-9.563 161.916,-9.861 161.468,-10.032C161.02,-10.203 160.482,-10.288 159.852,-10.288C158.967,-10.288 158.279,-10.104 157.788,-9.736C157.298,-9.368 157.052,-8.853 157.052,-8.192C157.052,-7.627 157.268,-7.203 157.7,-6.92C158.132,-6.637 158.796,-6.389 159.692,-6.176C160.663,-5.941 161.426,-5.725 161.98,-5.528C162.535,-5.331 162.996,-5.035 163.364,-4.64C163.732,-4.245 163.916,-3.717 163.916,-3.056C163.916,-2.427 163.743,-1.872 163.396,-1.392C163.05,-0.912 162.562,-0.539 161.932,-0.272C161.303,-0.005 160.583,0.128 159.772,0.128C158.972,0.128 158.207,0.008 157.476,-0.232Z" style="fill-rule:nonzero;"/><path d="M167.151,-0.384C166.591,-0.715 166.159,-1.187 165.855,-1.8C165.551,-2.413 165.399,-3.125 165.399,-3.936C165.399,-4.747 165.551,-5.459 165.855,-6.072C166.159,-6.685 166.591,-7.157 167.151,-7.488C167.711,-7.819 168.359,-7.984 169.095,-7.984C169.831,-7.984 170.482,-7.819 171.047,-7.488C171.612,-7.157 172.047,-6.685 172.351,-6.072C172.655,-5.459 172.807,-4.747 172.807,-3.936C172.807,-3.125 172.655,-2.413 172.351,-1.8C172.047,-1.187 171.612,-0.715 171.047,-0.384C170.482,-0.053 169.831,0.112 169.095,0.112C168.359,0.112 167.711,-0.053 167.151,-0.384ZM170.863,-1.72C171.274,-2.227 171.479,-2.965 171.479,-3.936C171.479,-4.885 171.271,-5.619 170.855,-6.136C170.439,-6.653 169.852,-6.912 169.095,-6.912C168.338,-6.912 167.751,-6.653 167.335,-6.136C166.919,-5.619 166.711,-4.885 166.711,-3.936C166.711,-2.976 166.916,-2.24 167.327,-1.728C167.738,-1.216 168.327,-0.96 169.095,-0.96C169.863,-0.96 170.452,-1.213 170.863,-1.72Z" style="fill-rule:nonzero;"/><path d="M181.473,-4.896L181.473,-0.56C181.473,-0.357 181.417,-0.2 181.305,-0.088C181.193,0.024 181.036,0.08 180.833,0.08C180.631,0.08 180.471,0.024 180.353,-0.088C180.236,-0.2 180.177,-0.357 180.177,-0.56L180.177,-4.816C180.177,-5.541 180.036,-6.069 179.753,-6.4C179.471,-6.731 179.02,-6.896 178.401,-6.896C177.687,-6.896 177.116,-6.677 176.689,-6.24C176.263,-5.803 176.049,-5.211 176.049,-4.464L176.049,-0.56C176.049,-0.357 175.993,-0.2 175.881,-0.088C175.769,0.024 175.612,0.08 175.409,0.08C175.207,0.08 175.047,0.024 174.929,-0.088C174.812,-0.2 174.753,-0.357 174.753,-0.56L174.753,-7.312C174.753,-7.504 174.812,-7.659 174.929,-7.776C175.047,-7.893 175.207,-7.952 175.409,-7.952C175.601,-7.952 175.753,-7.893 175.865,-7.776C175.977,-7.659 176.033,-7.509 176.033,-7.328L176.033,-6.512C176.289,-6.992 176.647,-7.357 177.105,-7.608C177.564,-7.859 178.087,-7.984 178.673,-7.984C180.54,-7.984 181.473,-6.955 181.473,-4.896Z" style="fill-rule:nonzero;"/><path d="M184.036,-0.088C183.913,-0.2 183.852,-0.357 183.852,-0.56L183.852,-7.312C183.852,-7.515 183.913,-7.672 184.036,-7.784C184.159,-7.896 184.316,-7.952 184.508,-7.952C184.7,-7.952 184.855,-7.896 184.972,-7.784C185.089,-7.672 185.148,-7.515 185.148,-7.312L185.148,-0.56C185.148,-0.347 185.089,-0.187 184.972,-0.08C184.855,0.027 184.7,0.08 184.508,0.08C184.316,0.08 184.159,0.024 184.036,-0.088ZM183.884,-9.856C183.724,-10.005 183.644,-10.203 183.644,-10.448C183.644,-10.683 183.724,-10.875 183.884,-11.024C184.044,-11.173 184.252,-11.248 184.508,-11.248C184.764,-11.248 184.972,-11.173 185.132,-11.024C185.292,-10.875 185.372,-10.683 185.372,-10.448C185.372,-10.203 185.292,-10.005 185.132,-9.856C184.972,-9.707 184.764,-9.632 184.508,-9.632C184.252,-9.632 184.044,-9.707 183.884,-9.856Z" style="fill-rule:nonzero;"/><path d="M188.862,-0.384C188.302,-0.715 187.87,-1.184 187.566,-1.792C187.262,-2.4 187.11,-3.104 187.11,-3.904C187.11,-4.704 187.268,-5.413 187.582,-6.032C187.897,-6.651 188.337,-7.131 188.902,-7.472C189.468,-7.813 190.118,-7.984 190.854,-7.984C191.26,-7.984 191.662,-7.928 192.062,-7.816C192.462,-7.704 192.812,-7.541 193.11,-7.328C193.302,-7.2 193.438,-7.075 193.518,-6.952C193.598,-6.829 193.638,-6.693 193.638,-6.544C193.638,-6.395 193.598,-6.272 193.518,-6.176C193.438,-6.08 193.334,-6.032 193.206,-6.032C193.132,-6.032 193.052,-6.053 192.966,-6.096C192.881,-6.139 192.809,-6.181 192.75,-6.224C192.692,-6.267 192.652,-6.293 192.63,-6.304C192.353,-6.485 192.089,-6.629 191.838,-6.736C191.588,-6.843 191.281,-6.896 190.918,-6.896C190.14,-6.896 189.534,-6.632 189.102,-6.104C188.67,-5.576 188.454,-4.843 188.454,-3.904C188.454,-2.965 188.67,-2.24 189.102,-1.728C189.534,-1.216 190.14,-0.96 190.918,-0.96C191.281,-0.96 191.593,-1.013 191.854,-1.12C192.116,-1.227 192.38,-1.371 192.646,-1.552C192.764,-1.627 192.876,-1.691 192.982,-1.744C193.089,-1.797 193.18,-1.824 193.254,-1.824C193.372,-1.824 193.47,-1.776 193.55,-1.68C193.63,-1.584 193.67,-1.461 193.67,-1.312C193.67,-1.173 193.633,-1.048 193.558,-0.936C193.484,-0.824 193.345,-0.699 193.142,-0.56C192.844,-0.357 192.484,-0.195 192.062,-0.072C191.641,0.051 191.217,0.112 190.79,0.112C190.065,0.112 189.422,-0.053 188.862,-0.384Z" style="fill-rule:nonzero;"/><path d="M210.081,-11.272C210.188,-11.341 210.305,-11.376 210.433,-11.376C210.604,-11.376 210.75,-11.325 210.873,-11.224C210.996,-11.123 211.057,-10.987 211.057,-10.816C211.057,-10.741 211.041,-10.656 211.009,-10.56L207.393,-0.368C207.34,-0.219 207.249,-0.104 207.121,-0.024C206.993,0.056 206.849,0.096 206.689,0.096C206.54,0.096 206.401,0.056 206.273,-0.024C206.145,-0.104 206.054,-0.219 206.001,-0.368L202.865,-9.232L199.697,-0.368C199.644,-0.219 199.553,-0.104 199.425,-0.024C199.297,0.056 199.158,0.096 199.009,0.096C198.86,0.096 198.721,0.056 198.593,-0.024C198.465,-0.104 198.374,-0.219 198.321,-0.368L194.689,-10.56C194.657,-10.645 194.641,-10.725 194.641,-10.8C194.641,-10.971 194.708,-11.109 194.841,-11.216C194.974,-11.323 195.126,-11.376 195.297,-11.376C195.425,-11.376 195.545,-11.341 195.657,-11.272C195.769,-11.203 195.846,-11.099 195.889,-10.96L199.041,-1.872L202.241,-10.864C202.294,-11.024 202.38,-11.144 202.497,-11.224C202.614,-11.304 202.742,-11.344 202.881,-11.344C203.02,-11.344 203.148,-11.301 203.265,-11.216C203.382,-11.131 203.468,-11.008 203.521,-10.848L206.673,-1.84L209.857,-10.96C209.9,-11.099 209.974,-11.203 210.081,-11.272Z" style="fill-rule:nonzero;"/><path d="M218.091,-4.912L218.091,-0.56C218.091,-0.368 218.035,-0.213 217.923,-0.096C217.811,0.021 217.659,0.08 217.467,0.08C217.275,0.08 217.121,0.021 217.003,-0.096C216.886,-0.213 216.827,-0.368 216.827,-0.56L216.827,-1.328C216.625,-0.869 216.315,-0.515 215.899,-0.264C215.483,-0.013 215.003,0.112 214.459,0.112C213.958,0.112 213.497,0.011 213.075,-0.192C212.654,-0.395 212.321,-0.677 212.075,-1.04C211.83,-1.403 211.707,-1.803 211.707,-2.24C211.707,-2.827 211.857,-3.283 212.155,-3.608C212.454,-3.933 212.945,-4.168 213.627,-4.312C214.31,-4.456 215.259,-4.528 216.475,-4.528L216.827,-4.528L216.827,-5.056C216.827,-5.696 216.697,-6.165 216.435,-6.464C216.174,-6.763 215.75,-6.912 215.163,-6.912C214.438,-6.912 213.702,-6.715 212.955,-6.32C212.667,-6.139 212.465,-6.048 212.347,-6.048C212.219,-6.048 212.113,-6.096 212.027,-6.192C211.942,-6.288 211.899,-6.411 211.899,-6.56C211.899,-6.709 211.945,-6.84 212.035,-6.952C212.126,-7.064 212.273,-7.179 212.475,-7.296C212.849,-7.509 213.273,-7.677 213.747,-7.8C214.222,-7.923 214.694,-7.984 215.163,-7.984C217.115,-7.984 218.091,-6.96 218.091,-4.912ZM216.211,-1.56C216.622,-1.992 216.827,-2.549 216.827,-3.232L216.827,-3.696L216.539,-3.696C215.601,-3.696 214.886,-3.656 214.395,-3.576C213.905,-3.496 213.555,-3.363 213.347,-3.176C213.139,-2.989 213.035,-2.715 213.035,-2.352C213.035,-1.936 213.187,-1.592 213.491,-1.32C213.795,-1.048 214.177,-0.912 214.635,-0.912C215.275,-0.912 215.801,-1.128 216.211,-1.56Z" style="fill-rule:nonzero;"/><path d="M220.654,-0.088C220.531,-0.2 220.47,-0.357 220.47,-0.56L220.47,-10.72C220.47,-10.923 220.531,-11.08 220.654,-11.192C220.777,-11.304 220.934,-11.36 221.126,-11.36C221.307,-11.36 221.459,-11.304 221.582,-11.192C221.705,-11.08 221.766,-10.923 221.766,-10.72L221.766,-0.56C221.766,-0.357 221.705,-0.2 221.582,-0.088C221.459,0.024 221.307,0.08 221.126,0.08C220.934,0.08 220.777,0.024 220.654,-0.088Z" style="fill-rule:nonzero;"/><path d="M224.376,-0.088C224.254,-0.2 224.192,-0.357 224.192,-0.56L224.192,-10.72C224.192,-10.923 224.254,-11.08 224.376,-11.192C224.499,-11.304 224.656,-11.36 224.848,-11.36C225.03,-11.36 225.182,-11.304 225.304,-11.192C225.427,-11.08 225.488,-10.923 225.488,-10.72L225.488,-0.56C225.488,-0.357 225.427,-0.2 225.304,-0.088C225.182,0.024 225.03,0.08 224.848,0.08C224.656,0.08 224.499,0.024 224.376,-0.088Z" style="fill-rule:nonzero;"/><path d="M242.733,-11.176C242.845,-11.053 242.901,-10.891 242.901,-10.688L242.901,-0.56C242.901,-0.368 242.848,-0.213 242.741,-0.096C242.635,0.021 242.485,0.08 242.293,0.08C242.101,0.08 241.957,0.021 241.861,-0.096C241.765,-0.213 241.717,-0.368 241.717,-0.56L241.717,-8.736L238.245,-2.08C238.096,-1.771 237.877,-1.616 237.589,-1.616C237.312,-1.616 237.093,-1.771 236.933,-2.08L233.445,-8.656L233.445,-0.56C233.445,-0.368 233.395,-0.213 233.293,-0.096C233.192,0.021 233.045,0.08 232.853,0.08C232.661,0.08 232.512,0.021 232.405,-0.096C232.299,-0.213 232.245,-0.368 232.245,-0.56L232.245,-10.688C232.245,-10.891 232.304,-11.053 232.421,-11.176C232.539,-11.299 232.699,-11.36 232.901,-11.36C233.168,-11.36 233.381,-11.205 233.541,-10.896L237.605,-3.104L241.621,-10.896C241.707,-11.067 241.8,-11.187 241.901,-11.256C242.003,-11.325 242.123,-11.36 242.261,-11.36C242.464,-11.36 242.621,-11.299 242.733,-11.176Z" style="fill-rule:nonzero;"/><path d="M246.808,-0.384C246.248,-0.715 245.816,-1.187 245.512,-1.8C245.208,-2.413 245.056,-3.125 245.056,-3.936C245.056,-4.747 245.208,-5.459 245.512,-6.072C245.816,-6.685 246.248,-7.157 246.808,-7.488C247.368,-7.819 248.016,-7.984 248.752,-7.984C249.488,-7.984 250.139,-7.819 250.704,-7.488C251.269,-7.157 251.704,-6.685 252.008,-6.072C252.312,-5.459 252.464,-4.747 252.464,-3.936C252.464,-3.125 252.312,-2.413 252.008,-1.8C251.704,-1.187 251.269,-0.715 250.704,-0.384C250.139,-0.053 249.488,0.112 248.752,0.112C248.016,0.112 247.368,-0.053 246.808,-0.384ZM250.52,-1.72C250.931,-2.227 251.136,-2.965 251.136,-3.936C251.136,-4.885 250.928,-5.619 250.512,-6.136C250.096,-6.653 249.509,-6.912 248.752,-6.912C247.995,-6.912 247.408,-6.653 246.992,-6.136C246.576,-5.619 246.368,-4.885 246.368,-3.936C246.368,-2.976 246.573,-2.24 246.984,-1.728C247.395,-1.216 247.984,-0.96 248.752,-0.96C249.52,-0.96 250.109,-1.213 250.52,-1.72Z" style="fill-rule:nonzero;"/><path d="M260.138,-7.488C260.661,-7.157 261.066,-6.688 261.354,-6.08C261.642,-5.472 261.786,-4.768 261.786,-3.968C261.786,-3.157 261.642,-2.445 261.354,-1.832C261.066,-1.219 260.661,-0.741 260.138,-0.4C259.616,-0.059 259.013,0.112 258.33,0.112C257.722,0.112 257.192,-0.021 256.738,-0.288C256.285,-0.555 255.941,-0.933 255.706,-1.424L255.706,-0.56C255.706,-0.368 255.65,-0.213 255.538,-0.096C255.426,0.021 255.269,0.08 255.066,0.08C254.864,0.08 254.704,0.021 254.586,-0.096C254.469,-0.213 254.41,-0.368 254.41,-0.56L254.41,-10.736C254.41,-10.917 254.469,-11.067 254.586,-11.184C254.704,-11.301 254.864,-11.36 255.066,-11.36C255.269,-11.36 255.426,-11.304 255.538,-11.192C255.65,-11.08 255.706,-10.928 255.706,-10.736L255.706,-6.448C255.941,-6.939 256.285,-7.317 256.738,-7.584C257.192,-7.851 257.722,-7.984 258.33,-7.984C259.013,-7.984 259.616,-7.819 260.138,-7.488ZM259.834,-1.752C260.25,-2.28 260.458,-3.019 260.458,-3.968C260.458,-4.896 260.25,-5.616 259.834,-6.128C259.418,-6.64 258.832,-6.896 258.074,-6.896C257.317,-6.896 256.733,-6.64 256.322,-6.128C255.912,-5.616 255.706,-4.885 255.706,-3.936C255.706,-2.987 255.912,-2.253 256.322,-1.736C256.733,-1.219 257.317,-0.96 258.074,-0.96C258.832,-0.96 259.418,-1.224 259.834,-1.752Z" style="fill-rule:nonzero;"/><path d="M263.917,-0.088C263.794,-0.2 263.733,-0.357 263.733,-0.56L263.733,-7.312C263.733,-7.515 263.794,-7.672 263.917,-7.784C264.04,-7.896 264.197,-7.952 264.389,-7.952C264.581,-7.952 264.736,-7.896 264.853,-7.784C264.97,-7.672 265.029,-7.515 265.029,-7.312L265.029,-0.56C265.029,-0.347 264.97,-0.187 264.853,-0.08C264.736,0.027 264.581,0.08 264.389,0.08C264.197,0.08 264.04,0.024 263.917,-0.088ZM263.765,-9.856C263.605,-10.005 263.525,-10.203 263.525,-10.448C263.525,-10.683 263.605,-10.875 263.765,-11.024C263.925,-11.173 264.133,-11.248 264.389,-11.248C264.645,-11.248 264.853,-11.173 265.013,-11.024C265.173,-10.875 265.253,-10.683 265.253,-10.448C265.253,-10.203 265.173,-10.005 265.013,-9.856C264.853,-9.707 264.645,-9.632 264.389,-9.632C264.133,-9.632 263.925,-9.707 263.765,-9.856Z" style="fill-rule:nonzero;"/><path d="M267.639,-0.088C267.517,-0.2 267.455,-0.357 267.455,-0.56L267.455,-10.72C267.455,-10.923 267.517,-11.08 267.639,-11.192C267.762,-11.304 267.919,-11.36 268.111,-11.36C268.293,-11.36 268.445,-11.304 268.567,-11.192C268.69,-11.08 268.751,-10.923 268.751,-10.72L268.751,-0.56C268.751,-0.357 268.69,-0.2 268.567,-0.088C268.445,0.024 268.293,0.08 268.111,0.08C267.919,0.08 267.762,0.024 267.639,-0.088Z" style="fill-rule:nonzero;"/><path d="M277.514,-1.664C277.599,-1.568 277.642,-1.445 277.642,-1.296C277.642,-1.029 277.455,-0.784 277.082,-0.56C276.698,-0.336 276.293,-0.168 275.866,-0.056C275.439,0.056 275.023,0.112 274.618,0.112C273.413,0.112 272.461,-0.245 271.762,-0.96C271.063,-1.675 270.714,-2.661 270.714,-3.92C270.714,-4.72 270.869,-5.427 271.178,-6.04C271.487,-6.653 271.922,-7.131 272.482,-7.472C273.042,-7.813 273.679,-7.984 274.394,-7.984C275.407,-7.984 276.213,-7.653 276.81,-6.992C277.407,-6.331 277.706,-5.435 277.706,-4.304C277.706,-4.091 277.663,-3.936 277.578,-3.84C277.493,-3.744 277.354,-3.696 277.162,-3.696L272.01,-3.696C272.106,-1.861 272.975,-0.944 274.618,-0.944C275.034,-0.944 275.391,-1 275.69,-1.112C275.989,-1.224 276.309,-1.376 276.65,-1.568C276.927,-1.728 277.114,-1.808 277.21,-1.808C277.327,-1.808 277.429,-1.76 277.514,-1.664ZM272.77,-6.336C272.359,-5.909 272.117,-5.307 272.042,-4.528L276.57,-4.528C276.549,-5.317 276.351,-5.923 275.978,-6.344C275.605,-6.765 275.082,-6.976 274.41,-6.976C273.727,-6.976 273.181,-6.763 272.77,-6.336Z" style="fill-rule:nonzero;"/><path d="M285.967,-0.568C285.188,-1.032 284.588,-1.699 284.167,-2.568C283.746,-3.437 283.535,-4.464 283.535,-5.648C283.535,-6.821 283.746,-7.843 284.167,-8.712C284.588,-9.581 285.188,-10.248 285.967,-10.712C286.746,-11.176 287.668,-11.408 288.735,-11.408C289.45,-11.408 290.124,-11.293 290.759,-11.064C291.394,-10.835 291.946,-10.507 292.415,-10.08C292.586,-9.92 292.671,-9.733 292.671,-9.52C292.671,-9.371 292.628,-9.24 292.543,-9.128C292.458,-9.016 292.356,-8.96 292.239,-8.96C292.111,-8.96 291.956,-9.019 291.775,-9.136C291.231,-9.563 290.738,-9.861 290.295,-10.032C289.852,-10.203 289.343,-10.288 288.767,-10.288C287.53,-10.288 286.578,-9.885 285.911,-9.08C285.244,-8.275 284.911,-7.131 284.911,-5.648C284.911,-4.155 285.244,-3.005 285.911,-2.2C286.578,-1.395 287.53,-0.992 288.767,-0.992C289.332,-0.992 289.839,-1.077 290.287,-1.248C290.735,-1.419 291.231,-1.717 291.775,-2.144C291.956,-2.261 292.111,-2.32 292.239,-2.32C292.356,-2.32 292.458,-2.267 292.543,-2.16C292.628,-2.053 292.671,-1.92 292.671,-1.76C292.671,-1.547 292.586,-1.36 292.415,-1.2C291.946,-0.773 291.394,-0.445 290.759,-0.216C290.124,0.013 289.45,0.128 288.735,0.128C287.668,0.128 286.746,-0.104 285.967,-0.568Z" style="fill-rule:nonzero;"/><path d="M295.729,-0.384C295.169,-0.715 294.737,-1.187 294.433,-1.8C294.129,-2.413 293.977,-3.125 293.977,-3.936C293.977,-4.747 294.129,-5.459 294.433,-6.072C294.737,-6.685 295.169,-7.157 295.729,-7.488C296.289,-7.819 296.937,-7.984 297.673,-7.984C298.409,-7.984 299.06,-7.819 299.625,-7.488C300.191,-7.157 300.625,-6.685 300.929,-6.072C301.233,-5.459 301.385,-4.747 301.385,-3.936C301.385,-3.125 301.233,-2.413 300.929,-1.8C300.625,-1.187 300.191,-0.715 299.625,-0.384C299.06,-0.053 298.409,0.112 297.673,0.112C296.937,0.112 296.289,-0.053 295.729,-0.384ZM299.441,-1.72C299.852,-2.227 300.057,-2.965 300.057,-3.936C300.057,-4.885 299.849,-5.619 299.433,-6.136C299.017,-6.653 298.431,-6.912 297.673,-6.912C296.916,-6.912 296.329,-6.653 295.913,-6.136C295.497,-5.619 295.289,-4.885 295.289,-3.936C295.289,-2.976 295.495,-2.24 295.905,-1.728C296.316,-1.216 296.905,-0.96 297.673,-0.96C298.441,-0.96 299.031,-1.213 299.441,-1.72Z" style="fill-rule:nonzero;"/><path d="M310.052,-4.896L310.052,-0.56C310.052,-0.357 309.996,-0.2 309.884,-0.088C309.772,0.024 309.615,0.08 309.412,0.08C309.209,0.08 309.049,0.024 308.932,-0.088C308.815,-0.2 308.756,-0.357 308.756,-0.56L308.756,-4.816C308.756,-5.541 308.615,-6.069 308.332,-6.4C308.049,-6.731 307.599,-6.896 306.98,-6.896C306.265,-6.896 305.695,-6.677 305.268,-6.24C304.841,-5.803 304.628,-5.211 304.628,-4.464L304.628,-0.56C304.628,-0.357 304.572,-0.2 304.46,-0.088C304.348,0.024 304.191,0.08 303.988,0.08C303.785,0.08 303.625,0.024 303.508,-0.088C303.391,-0.2 303.332,-0.357 303.332,-0.56L303.332,-7.312C303.332,-7.504 303.391,-7.659 303.508,-7.776C303.625,-7.893 303.785,-7.952 303.988,-7.952C304.18,-7.952 304.332,-7.893 304.444,-7.776C304.556,-7.659 304.612,-7.509 304.612,-7.328L304.612,-6.512C304.868,-6.992 305.225,-7.357 305.684,-7.608C306.143,-7.859 306.665,-7.984 307.252,-7.984C309.119,-7.984 310.052,-6.955 310.052,-4.896Z" style="fill-rule:nonzero;"/><path d="M319.15,-4.896L319.15,-0.56C319.15,-0.357 319.094,-0.2 318.982,-0.088C318.87,0.024 318.713,0.08 318.51,0.08C318.308,0.08 318.148,0.024 318.03,-0.088C317.913,-0.2 317.854,-0.357 317.854,-0.56L317.854,-4.816C317.854,-5.541 317.713,-6.069 317.43,-6.4C317.148,-6.731 316.697,-6.896 316.078,-6.896C315.364,-6.896 314.793,-6.677 314.366,-6.24C313.94,-5.803 313.726,-5.211 313.726,-4.464L313.726,-0.56C313.726,-0.357 313.67,-0.2 313.558,-0.088C313.446,0.024 313.289,0.08 313.086,0.08C312.884,0.08 312.724,0.024 312.606,-0.088C312.489,-0.2 312.43,-0.357 312.43,-0.56L312.43,-7.312C312.43,-7.504 312.489,-7.659 312.606,-7.776C312.724,-7.893 312.884,-7.952 313.086,-7.952C313.278,-7.952 313.43,-7.893 313.542,-7.776C313.654,-7.659 313.71,-7.509 313.71,-7.328L313.71,-6.512C313.966,-6.992 314.324,-7.357 314.782,-7.608C315.241,-7.859 315.764,-7.984 316.35,-7.984C318.217,-7.984 319.15,-6.955 319.15,-4.896Z" style="fill-rule:nonzero;"/><path d="M327.865,-1.664C327.95,-1.568 327.993,-1.445 327.993,-1.296C327.993,-1.029 327.806,-0.784 327.433,-0.56C327.049,-0.336 326.643,-0.168 326.217,-0.056C325.79,0.056 325.374,0.112 324.969,0.112C323.763,0.112 322.811,-0.245 322.113,-0.96C321.414,-1.675 321.065,-2.661 321.065,-3.92C321.065,-4.72 321.219,-5.427 321.529,-6.04C321.838,-6.653 322.273,-7.131 322.833,-7.472C323.393,-7.813 324.03,-7.984 324.745,-7.984C325.758,-7.984 326.563,-7.653 327.161,-6.992C327.758,-6.331 328.057,-5.435 328.057,-4.304C328.057,-4.091 328.014,-3.936 327.929,-3.84C327.843,-3.744 327.705,-3.696 327.513,-3.696L322.361,-3.696C322.457,-1.861 323.326,-0.944 324.969,-0.944C325.385,-0.944 325.742,-1 326.041,-1.112C326.339,-1.224 326.659,-1.376 327.001,-1.568C327.278,-1.728 327.465,-1.808 327.561,-1.808C327.678,-1.808 327.779,-1.76 327.865,-1.664ZM323.121,-6.336C322.71,-5.909 322.467,-5.307 322.393,-4.528L326.921,-4.528C326.899,-5.317 326.702,-5.923 326.329,-6.344C325.955,-6.765 325.433,-6.976 324.761,-6.976C324.078,-6.976 323.531,-6.763 323.121,-6.336Z" style="fill-rule:nonzero;"/><path d="M331.259,-0.384C330.699,-0.715 330.267,-1.184 329.963,-1.792C329.659,-2.4 329.507,-3.104 329.507,-3.904C329.507,-4.704 329.665,-5.413 329.979,-6.032C330.294,-6.651 330.734,-7.131 331.299,-7.472C331.865,-7.813 332.515,-7.984 333.251,-7.984C333.657,-7.984 334.059,-7.928 334.459,-7.816C334.859,-7.704 335.209,-7.541 335.507,-7.328C335.699,-7.2 335.835,-7.075 335.915,-6.952C335.995,-6.829 336.035,-6.693 336.035,-6.544C336.035,-6.395 335.995,-6.272 335.915,-6.176C335.835,-6.08 335.731,-6.032 335.603,-6.032C335.529,-6.032 335.449,-6.053 335.363,-6.096C335.278,-6.139 335.206,-6.181 335.147,-6.224C335.089,-6.267 335.049,-6.293 335.027,-6.304C334.75,-6.485 334.486,-6.629 334.235,-6.736C333.985,-6.843 333.678,-6.896 333.315,-6.896C332.537,-6.896 331.931,-6.632 331.499,-6.104C331.067,-5.576 330.851,-4.843 330.851,-3.904C330.851,-2.965 331.067,-2.24 331.499,-1.728C331.931,-1.216 332.537,-0.96 333.315,-0.96C333.678,-0.96 333.99,-1.013 334.251,-1.12C334.513,-1.227 334.777,-1.371 335.043,-1.552C335.161,-1.627 335.273,-1.691 335.379,-1.744C335.486,-1.797 335.577,-1.824 335.651,-1.824C335.769,-1.824 335.867,-1.776 335.947,-1.68C336.027,-1.584 336.067,-1.461 336.067,-1.312C336.067,-1.173 336.03,-1.048 335.955,-0.936C335.881,-0.824 335.742,-0.699 335.539,-0.56C335.241,-0.357 334.881,-0.195 334.459,-0.072C334.038,0.051 333.614,0.112 333.187,0.112C332.462,0.112 331.819,-0.053 331.259,-0.384Z" style="fill-rule:nonzero;"/><path d="M341.822,-0.432C341.822,-0.251 341.755,-0.115 341.622,-0.024C341.488,0.067 341.288,0.101 341.022,0.08L340.59,0.048C339.736,-0.016 339.107,-0.272 338.702,-0.72C338.296,-1.168 338.094,-1.845 338.094,-2.752L338.094,-6.768L337.022,-6.768C336.84,-6.768 336.699,-6.813 336.598,-6.904C336.496,-6.995 336.446,-7.115 336.446,-7.264C336.446,-7.424 336.496,-7.552 336.598,-7.648C336.699,-7.744 336.84,-7.792 337.022,-7.792L338.094,-7.792L338.094,-9.6C338.094,-9.803 338.152,-9.96 338.27,-10.072C338.387,-10.184 338.547,-10.24 338.75,-10.24C338.942,-10.24 339.096,-10.184 339.214,-10.072C339.331,-9.96 339.39,-9.803 339.39,-9.6L339.39,-7.792L341.166,-7.792C341.336,-7.792 341.472,-7.744 341.574,-7.648C341.675,-7.552 341.726,-7.424 341.726,-7.264C341.726,-7.115 341.675,-6.995 341.574,-6.904C341.472,-6.813 341.336,-6.768 341.166,-6.768L339.39,-6.768L339.39,-2.688C339.39,-2.101 339.51,-1.677 339.75,-1.416C339.99,-1.155 340.35,-1.008 340.83,-0.976L341.262,-0.944C341.635,-0.912 341.822,-0.741 341.822,-0.432Z" style="fill-rule:nonzero;"/><path d="M348.539,-0.384C347.979,-0.715 347.547,-1.187 347.243,-1.8C346.939,-2.413 346.787,-3.125 346.787,-3.936C346.787,-4.747 346.939,-5.459 347.243,-6.072C347.547,-6.685 347.979,-7.157 348.539,-7.488C349.099,-7.819 349.747,-7.984 350.483,-7.984C351.219,-7.984 351.869,-7.819 352.435,-7.488C353,-7.157 353.435,-6.685 353.739,-6.072C354.043,-5.459 354.195,-4.747 354.195,-3.936C354.195,-3.125 354.043,-2.413 353.739,-1.8C353.435,-1.187 353,-0.715 352.435,-0.384C351.869,-0.053 351.219,0.112 350.483,0.112C349.747,0.112 349.099,-0.053 348.539,-0.384ZM352.251,-1.72C352.661,-2.227 352.867,-2.965 352.867,-3.936C352.867,-4.885 352.659,-5.619 352.243,-6.136C351.827,-6.653 351.24,-6.912 350.483,-6.912C349.725,-6.912 349.139,-6.653 348.723,-6.136C348.307,-5.619 348.099,-4.885 348.099,-3.936C348.099,-2.976 348.304,-2.24 348.715,-1.728C349.125,-1.216 349.715,-0.96 350.483,-0.96C351.251,-0.96 351.84,-1.213 352.251,-1.72Z" style="fill-rule:nonzero;"/><path d="M362.861,-4.896L362.861,-0.56C362.861,-0.357 362.805,-0.2 362.693,-0.088C362.581,0.024 362.424,0.08 362.221,0.08C362.019,0.08 361.859,0.024 361.741,-0.088C361.624,-0.2 361.565,-0.357 361.565,-0.56L361.565,-4.816C361.565,-5.541 361.424,-6.069 361.141,-6.4C360.859,-6.731 360.408,-6.896 359.789,-6.896C359.075,-6.896 358.504,-6.677 358.077,-6.24C357.651,-5.803 357.437,-5.211 357.437,-4.464L357.437,-0.56C357.437,-0.357 357.381,-0.2 357.269,-0.088C357.157,0.024 357,0.08 356.797,0.08C356.595,0.08 356.435,0.024 356.317,-0.088C356.2,-0.2 356.141,-0.357 356.141,-0.56L356.141,-7.312C356.141,-7.504 356.2,-7.659 356.317,-7.776C356.435,-7.893 356.595,-7.952 356.797,-7.952C356.989,-7.952 357.141,-7.893 357.253,-7.776C357.365,-7.659 357.421,-7.509 357.421,-7.328L357.421,-6.512C357.677,-6.992 358.035,-7.357 358.493,-7.608C358.952,-7.859 359.475,-7.984 360.061,-7.984C361.928,-7.984 362.861,-6.955 362.861,-4.896Z" style="fill-rule:nonzero;"/><path d="M369.4,-0.432C369.4,-0.251 369.333,-0.115 369.2,-0.024C369.066,0.067 368.866,0.101 368.6,0.08L368.168,0.048C367.314,-0.016 366.685,-0.272 366.28,-0.72C365.874,-1.168 365.672,-1.845 365.672,-2.752L365.672,-6.768L364.6,-6.768C364.418,-6.768 364.277,-6.813 364.176,-6.904C364.074,-6.995 364.024,-7.115 364.024,-7.264C364.024,-7.424 364.074,-7.552 364.176,-7.648C364.277,-7.744 364.418,-7.792 364.6,-7.792L365.672,-7.792L365.672,-9.6C365.672,-9.803 365.73,-9.96 365.848,-10.072C365.965,-10.184 366.125,-10.24 366.328,-10.24C366.52,-10.24 366.674,-10.184 366.792,-10.072C366.909,-9.96 366.968,-9.803 366.968,-9.6L366.968,-7.792L368.744,-7.792C368.914,-7.792 369.05,-7.744 369.152,-7.648C369.253,-7.552 369.304,-7.424 369.304,-7.264C369.304,-7.115 369.253,-6.995 369.152,-6.904C369.05,-6.813 368.914,-6.768 368.744,-6.768L366.968,-6.768L366.968,-2.688C366.968,-2.101 367.088,-1.677 367.328,-1.416C367.568,-1.155 367.928,-1.008 368.408,-0.976L368.84,-0.944C369.213,-0.912 369.4,-0.741 369.4,-0.432Z" style="fill-rule:nonzero;"/><path d="M371.978,-0.384C371.418,-0.715 370.986,-1.187 370.682,-1.8C370.378,-2.413 370.226,-3.125 370.226,-3.936C370.226,-4.747 370.378,-5.459 370.682,-6.072C370.986,-6.685 371.418,-7.157 371.978,-7.488C372.538,-7.819 373.186,-7.984 373.922,-7.984C374.658,-7.984 375.309,-7.819 375.874,-7.488C376.44,-7.157 376.874,-6.685 377.178,-6.072C377.482,-5.459 377.634,-4.747 377.634,-3.936C377.634,-3.125 377.482,-2.413 377.178,-1.8C376.874,-1.187 376.44,-0.715 375.874,-0.384C375.309,-0.053 374.658,0.112 373.922,0.112C373.186,0.112 372.538,-0.053 371.978,-0.384ZM375.69,-1.72C376.101,-2.227 376.306,-2.965 376.306,-3.936C376.306,-4.885 376.098,-5.619 375.682,-6.136C375.266,-6.653 374.68,-6.912 373.922,-6.912C373.165,-6.912 372.578,-6.653 372.162,-6.136C371.746,-5.619 371.538,-4.885 371.538,-3.936C371.538,-2.976 371.744,-2.24 372.154,-1.728C372.565,-1.216 373.154,-0.96 373.922,-0.96C374.69,-0.96 375.28,-1.213 375.69,-1.72Z" style="fill-rule:nonzero;"/><path d="M394.983,-4.896L394.983,-0.56C394.983,-0.357 394.925,-0.2 394.807,-0.088C394.69,0.024 394.535,0.08 394.343,0.08C394.151,0.08 393.994,0.024 393.871,-0.088C393.749,-0.2 393.687,-0.357 393.687,-0.56L393.687,-4.864C393.687,-5.579 393.559,-6.096 393.303,-6.416C393.047,-6.736 392.647,-6.896 392.103,-6.896C391.453,-6.896 390.941,-6.677 390.567,-6.24C390.194,-5.803 390.007,-5.211 390.007,-4.464L390.007,-0.56C390.007,-0.357 389.946,-0.2 389.823,-0.088C389.701,0.024 389.543,0.08 389.351,0.08C389.159,0.08 389.005,0.024 388.887,-0.088C388.77,-0.2 388.711,-0.357 388.711,-0.56L388.711,-4.864C388.711,-5.579 388.583,-6.096 388.327,-6.416C388.071,-6.736 387.666,-6.896 387.111,-6.896C386.471,-6.896 385.962,-6.677 385.583,-6.24C385.205,-5.803 385.015,-5.211 385.015,-4.464L385.015,-0.56C385.015,-0.357 384.957,-0.2 384.839,-0.088C384.722,0.024 384.567,0.08 384.375,0.08C384.183,0.08 384.026,0.024 383.903,-0.088C383.781,-0.2 383.719,-0.357 383.719,-0.56L383.719,-7.312C383.719,-7.504 383.781,-7.659 383.903,-7.776C384.026,-7.893 384.183,-7.952 384.375,-7.952C384.557,-7.952 384.706,-7.896 384.823,-7.784C384.941,-7.672 384.999,-7.52 384.999,-7.328L384.999,-6.56C385.234,-7.019 385.559,-7.371 385.975,-7.616C386.391,-7.861 386.871,-7.984 387.415,-7.984C388.631,-7.984 389.426,-7.472 389.799,-6.448C390.023,-6.917 390.365,-7.291 390.823,-7.568C391.282,-7.845 391.805,-7.984 392.391,-7.984C394.119,-7.984 394.983,-6.955 394.983,-4.896Z" style="fill-rule:nonzero;"/><path d="M398.65,-0.384C398.09,-0.715 397.658,-1.187 397.354,-1.8C397.05,-2.413 396.898,-3.125 396.898,-3.936C396.898,-4.747 397.05,-5.459 397.354,-6.072C397.658,-6.685 398.09,-7.157 398.65,-7.488C399.21,-7.819 399.858,-7.984 400.594,-7.984C401.33,-7.984 401.98,-7.819 402.546,-7.488C403.111,-7.157 403.546,-6.685 403.85,-6.072C404.154,-5.459 404.306,-4.747 404.306,-3.936C404.306,-3.125 404.154,-2.413 403.85,-1.8C403.546,-1.187 403.111,-0.715 402.546,-0.384C401.98,-0.053 401.33,0.112 400.594,0.112C399.858,0.112 399.21,-0.053 398.65,-0.384ZM402.362,-1.72C402.772,-2.227 402.978,-2.965 402.978,-3.936C402.978,-4.885 402.77,-5.619 402.354,-6.136C401.938,-6.653 401.351,-6.912 400.594,-6.912C399.836,-6.912 399.25,-6.653 398.834,-6.136C398.418,-5.619 398.21,-4.885 398.21,-3.936C398.21,-2.976 398.415,-2.24 398.826,-1.728C399.236,-1.216 399.826,-0.96 400.594,-0.96C401.362,-0.96 401.951,-1.213 402.362,-1.72Z" style="fill-rule:nonzero;"/><path d="M411.98,-7.488C412.503,-7.157 412.908,-6.688 413.196,-6.08C413.484,-5.472 413.628,-4.768 413.628,-3.968C413.628,-3.157 413.484,-2.445 413.196,-1.832C412.908,-1.219 412.503,-0.741 411.98,-0.4C411.458,-0.059 410.855,0.112 410.172,0.112C409.564,0.112 409.034,-0.021 408.58,-0.288C408.127,-0.555 407.783,-0.933 407.548,-1.424L407.548,-0.56C407.548,-0.368 407.492,-0.213 407.38,-0.096C407.268,0.021 407.111,0.08 406.908,0.08C406.706,0.08 406.546,0.021 406.428,-0.096C406.311,-0.213 406.252,-0.368 406.252,-0.56L406.252,-10.736C406.252,-10.917 406.311,-11.067 406.428,-11.184C406.546,-11.301 406.706,-11.36 406.908,-11.36C407.111,-11.36 407.268,-11.304 407.38,-11.192C407.492,-11.08 407.548,-10.928 407.548,-10.736L407.548,-6.448C407.783,-6.939 408.127,-7.317 408.58,-7.584C409.034,-7.851 409.564,-7.984 410.172,-7.984C410.855,-7.984 411.458,-7.819 411.98,-7.488ZM411.676,-1.752C412.092,-2.28 412.3,-3.019 412.3,-3.968C412.3,-4.896 412.092,-5.616 411.676,-6.128C411.26,-6.64 410.674,-6.896 409.916,-6.896C409.159,-6.896 408.575,-6.64 408.164,-6.128C407.754,-5.616 407.548,-4.885 407.548,-3.936C407.548,-2.987 407.754,-2.253 408.164,-1.736C408.575,-1.219 409.159,-0.96 409.916,-0.96C410.674,-0.96 411.26,-1.224 411.676,-1.752Z" style="fill-rule:nonzero;"/><path d="M415.759,-0.088C415.636,-0.2 415.575,-0.357 415.575,-0.56L415.575,-7.312C415.575,-7.515 415.636,-7.672 415.759,-7.784C415.881,-7.896 416.039,-7.952 416.231,-7.952C416.423,-7.952 416.577,-7.896 416.695,-7.784C416.812,-7.672 416.871,-7.515 416.871,-7.312L416.871,-0.56C416.871,-0.347 416.812,-0.187 416.695,-0.08C416.577,0.027 416.423,0.08 416.231,0.08C416.039,0.08 415.881,0.024 415.759,-0.088ZM415.607,-9.856C415.447,-10.005 415.367,-10.203 415.367,-10.448C415.367,-10.683 415.447,-10.875 415.607,-11.024C415.767,-11.173 415.975,-11.248 416.231,-11.248C416.487,-11.248 416.695,-11.173 416.855,-11.024C417.015,-10.875 417.095,-10.683 417.095,-10.448C417.095,-10.203 417.015,-10.005 416.855,-9.856C416.695,-9.707 416.487,-9.632 416.231,-9.632C415.975,-9.632 415.767,-9.707 415.607,-9.856Z" style="fill-rule:nonzero;"/><path d="M419.481,-0.088C419.359,-0.2 419.297,-0.357 419.297,-0.56L419.297,-10.72C419.297,-10.923 419.359,-11.08 419.481,-11.192C419.604,-11.304 419.761,-11.36 419.953,-11.36C420.135,-11.36 420.287,-11.304 420.409,-11.192C420.532,-11.08 420.593,-10.923 420.593,-10.72L420.593,-0.56C420.593,-0.357 420.532,-0.2 420.409,-0.088C420.287,0.024 420.135,0.08 419.953,0.08C419.761,0.08 419.604,0.024 419.481,-0.088Z" style="fill-rule:nonzero;"/><path d="M429.356,-1.664C429.441,-1.568 429.484,-1.445 429.484,-1.296C429.484,-1.029 429.297,-0.784 428.924,-0.56C428.54,-0.336 428.134,-0.168 427.708,-0.056C427.281,0.056 426.865,0.112 426.46,0.112C425.254,0.112 424.302,-0.245 423.604,-0.96C422.905,-1.675 422.556,-2.661 422.556,-3.92C422.556,-4.72 422.71,-5.427 423.02,-6.04C423.329,-6.653 423.764,-7.131 424.324,-7.472C424.884,-7.813 425.521,-7.984 426.236,-7.984C427.249,-7.984 428.054,-7.653 428.652,-6.992C429.249,-6.331 429.548,-5.435 429.548,-4.304C429.548,-4.091 429.505,-3.936 429.42,-3.84C429.334,-3.744 429.196,-3.696 429.004,-3.696L423.852,-3.696C423.948,-1.861 424.817,-0.944 426.46,-0.944C426.876,-0.944 427.233,-1 427.532,-1.112C427.83,-1.224 428.15,-1.376 428.492,-1.568C428.769,-1.728 428.956,-1.808 429.052,-1.808C429.169,-1.808 429.27,-1.76 429.356,-1.664ZM424.612,-6.336C424.201,-5.909 423.958,-5.307 423.884,-4.528L428.412,-4.528C428.39,-5.317 428.193,-5.923 427.82,-6.344C427.446,-6.765 426.924,-6.976 426.252,-6.976C425.569,-6.976 425.022,-6.763 424.612,-6.336Z" style="fill-rule:nonzero;"/><path d="M442.337,-11.184C442.454,-11.067 442.513,-10.917 442.513,-10.736L442.513,-0.56C442.513,-0.368 442.454,-0.213 442.337,-0.096C442.219,0.021 442.059,0.08 441.857,0.08C441.654,0.08 441.497,0.021 441.385,-0.096C441.273,-0.213 441.217,-0.368 441.217,-0.56L441.217,-1.424C440.982,-0.933 440.638,-0.555 440.185,-0.288C439.731,-0.021 439.201,0.112 438.593,0.112C437.91,0.112 437.307,-0.059 436.785,-0.4C436.262,-0.741 435.857,-1.219 435.569,-1.832C435.281,-2.445 435.137,-3.157 435.137,-3.968C435.137,-4.768 435.281,-5.472 435.569,-6.08C435.857,-6.688 436.262,-7.157 436.785,-7.488C437.307,-7.819 437.91,-7.984 438.593,-7.984C439.201,-7.984 439.731,-7.851 440.185,-7.584C440.638,-7.317 440.982,-6.939 441.217,-6.448L441.217,-10.736C441.217,-10.928 441.273,-11.08 441.385,-11.192C441.497,-11.304 441.654,-11.36 441.857,-11.36C442.059,-11.36 442.219,-11.301 442.337,-11.184ZM440.601,-1.736C441.011,-2.253 441.217,-2.987 441.217,-3.936C441.217,-4.885 441.011,-5.616 440.601,-6.128C440.19,-6.64 439.606,-6.896 438.849,-6.896C438.091,-6.896 437.502,-6.64 437.081,-6.128C436.659,-5.616 436.449,-4.896 436.449,-3.968C436.449,-3.019 436.659,-2.28 437.081,-1.752C437.502,-1.224 438.091,-0.96 438.849,-0.96C439.606,-0.96 440.19,-1.219 440.601,-1.736Z" style="fill-rule:nonzero;"/><path d="M451.259,-1.664C451.345,-1.568 451.387,-1.445 451.387,-1.296C451.387,-1.029 451.201,-0.784 450.827,-0.56C450.443,-0.336 450.038,-0.168 449.611,-0.056C449.185,0.056 448.769,0.112 448.363,0.112C447.158,0.112 446.206,-0.245 445.507,-0.96C444.809,-1.675 444.459,-2.661 444.459,-3.92C444.459,-4.72 444.614,-5.427 444.923,-6.04C445.233,-6.653 445.667,-7.131 446.227,-7.472C446.787,-7.813 447.425,-7.984 448.139,-7.984C449.153,-7.984 449.958,-7.653 450.555,-6.992C451.153,-6.331 451.451,-5.435 451.451,-4.304C451.451,-4.091 451.409,-3.936 451.323,-3.84C451.238,-3.744 451.099,-3.696 450.907,-3.696L445.755,-3.696C445.851,-1.861 446.721,-0.944 448.363,-0.944C448.779,-0.944 449.137,-1 449.435,-1.112C449.734,-1.224 450.054,-1.376 450.395,-1.568C450.673,-1.728 450.859,-1.808 450.955,-1.808C451.073,-1.808 451.174,-1.76 451.259,-1.664ZM446.515,-6.336C446.105,-5.909 445.862,-5.307 445.787,-4.528L450.315,-4.528C450.294,-5.317 450.097,-5.923 449.723,-6.344C449.35,-6.765 448.827,-6.976 448.155,-6.976C447.473,-6.976 446.926,-6.763 446.515,-6.336Z" style="fill-rule:nonzero;"/><path d="M459.446,-7.936C459.606,-7.936 459.75,-7.883 459.878,-7.776C460.006,-7.669 460.07,-7.536 460.07,-7.376C460.07,-7.28 460.048,-7.195 460.006,-7.12L456.886,-0.4C456.822,-0.261 456.726,-0.152 456.598,-0.072C456.47,0.008 456.331,0.048 456.182,0.048C456.043,0.048 455.91,0.008 455.782,-0.072C455.654,-0.152 455.552,-0.261 455.478,-0.4L452.374,-7.12C452.331,-7.195 452.31,-7.275 452.31,-7.36C452.31,-7.52 452.382,-7.659 452.526,-7.776C452.67,-7.893 452.827,-7.952 452.998,-7.952C453.104,-7.952 453.208,-7.92 453.31,-7.856C453.411,-7.792 453.488,-7.701 453.542,-7.584L456.214,-1.584L458.886,-7.552C459.003,-7.808 459.19,-7.936 459.446,-7.936Z" style="fill-rule:nonzero;"/><path d="M461.688,-0.088C461.566,-0.2 461.504,-0.357 461.504,-0.56L461.504,-7.312C461.504,-7.515 461.566,-7.672 461.688,-7.784C461.811,-7.896 461.968,-7.952 462.16,-7.952C462.352,-7.952 462.507,-7.896 462.624,-7.784C462.742,-7.672 462.8,-7.515 462.8,-7.312L462.8,-0.56C462.8,-0.347 462.742,-0.187 462.624,-0.08C462.507,0.027 462.352,0.08 462.16,0.08C461.968,0.08 461.811,0.024 461.688,-0.088ZM461.536,-9.856C461.376,-10.005 461.296,-10.203 461.296,-10.448C461.296,-10.683 461.376,-10.875 461.536,-11.024C461.696,-11.173 461.904,-11.248 462.16,-11.248C462.416,-11.248 462.624,-11.173 462.784,-11.024C462.944,-10.875 463.024,-10.683 463.024,-10.448C463.024,-10.203 462.944,-10.005 462.784,-9.856C462.624,-9.707 462.416,-9.632 462.16,-9.632C461.904,-9.632 461.696,-9.707 461.536,-9.856Z" style="fill-rule:nonzero;"/><path d="M466.515,-0.384C465.955,-0.715 465.523,-1.184 465.219,-1.792C464.915,-2.4 464.763,-3.104 464.763,-3.904C464.763,-4.704 464.92,-5.413 465.235,-6.032C465.549,-6.651 465.989,-7.131 466.555,-7.472C467.12,-7.813 467.771,-7.984 468.507,-7.984C468.912,-7.984 469.315,-7.928 469.715,-7.816C470.115,-7.704 470.464,-7.541 470.763,-7.328C470.955,-7.2 471.091,-7.075 471.171,-6.952C471.251,-6.829 471.291,-6.693 471.291,-6.544C471.291,-6.395 471.251,-6.272 471.171,-6.176C471.091,-6.08 470.987,-6.032 470.859,-6.032C470.784,-6.032 470.704,-6.053 470.619,-6.096C470.533,-6.139 470.461,-6.181 470.403,-6.224C470.344,-6.267 470.304,-6.293 470.283,-6.304C470.005,-6.485 469.741,-6.629 469.491,-6.736C469.24,-6.843 468.933,-6.896 468.571,-6.896C467.792,-6.896 467.187,-6.632 466.755,-6.104C466.323,-5.576 466.107,-4.843 466.107,-3.904C466.107,-2.965 466.323,-2.24 466.755,-1.728C467.187,-1.216 467.792,-0.96 468.571,-0.96C468.933,-0.96 469.245,-1.013 469.507,-1.12C469.768,-1.227 470.032,-1.371 470.299,-1.552C470.416,-1.627 470.528,-1.691 470.635,-1.744C470.741,-1.797 470.832,-1.824 470.907,-1.824C471.024,-1.824 471.123,-1.776 471.203,-1.68C471.283,-1.584 471.323,-1.461 471.323,-1.312C471.323,-1.173 471.285,-1.048 471.211,-0.936C471.136,-0.824 470.997,-0.699 470.795,-0.56C470.496,-0.357 470.136,-0.195 469.715,-0.072C469.293,0.051 468.869,0.112 468.443,0.112C467.717,0.112 467.075,-0.053 466.515,-0.384Z" style="fill-rule:nonzero;"/><path d="M479.237,-1.664C479.323,-1.568 479.365,-1.445 479.365,-1.296C479.365,-1.029 479.179,-0.784 478.805,-0.56C478.421,-0.336 478.016,-0.168 477.589,-0.056C477.163,0.056 476.747,0.112 476.341,0.112C475.136,0.112 474.184,-0.245 473.485,-0.96C472.787,-1.675 472.437,-2.661 472.437,-3.92C472.437,-4.72 472.592,-5.427 472.901,-6.04C473.211,-6.653 473.645,-7.131 474.205,-7.472C474.765,-7.813 475.403,-7.984 476.117,-7.984C477.131,-7.984 477.936,-7.653 478.533,-6.992C479.131,-6.331 479.429,-5.435 479.429,-4.304C479.429,-4.091 479.387,-3.936 479.301,-3.84C479.216,-3.744 479.077,-3.696 478.885,-3.696L473.733,-3.696C473.829,-1.861 474.699,-0.944 476.341,-0.944C476.757,-0.944 477.115,-1 477.413,-1.112C477.712,-1.224 478.032,-1.376 478.373,-1.568C478.651,-1.728 478.837,-1.808 478.933,-1.808C479.051,-1.808 479.152,-1.76 479.237,-1.664ZM474.493,-6.336C474.083,-5.909 473.84,-5.307 473.765,-4.528L478.293,-4.528C478.272,-5.317 478.075,-5.923 477.701,-6.344C477.328,-6.765 476.805,-6.976 476.133,-6.976C475.451,-6.976 474.904,-6.763 474.493,-6.336Z" style="fill-rule:nonzero;"/><path d="M481.344,-0.168C481.173,-0.333 481.088,-0.549 481.088,-0.816C481.088,-1.083 481.173,-1.301 481.344,-1.472C481.514,-1.643 481.728,-1.728 481.984,-1.728C482.229,-1.728 482.434,-1.643 482.6,-1.472C482.765,-1.301 482.848,-1.083 482.848,-0.816C482.848,-0.549 482.765,-0.333 482.6,-0.168C482.434,-0.003 482.229,0.08 481.984,0.08C481.728,0.08 481.514,-0.003 481.344,-0.168Z" style="fill-rule:nonzero;"/></g></g></g></g></svg>