<?xml version="1.0" encoding="UTF-8" standalone="no"?><!DOCTYPE svg PUBLIC "-//W3C//DTD SVG 1.1//EN" "http://www.w3.org/Graphics/SVG/1.1/DTD/svg11.dtd"><svg width="100%" height="100%" viewBox="0 0 221 38" version="1.1" xmlns="http://www.w3.org/2000/svg" xmlns:xlink="http://www.w3.org/1999/xlink" xml:space="preserve" xmlns:serif="http://www.serif.com/" style="fill-rule:evenodd;clip-rule:evenodd;stroke-linejoin:round;stroke-miterlimit:1.41421;"><g transform="matrix(1,0,0,1,-43,-648)"><g transform="matrix(1,0,0,1,0,-4)"><g id="Next-generation-fire"><g transform="matrix(1,0,0,1,56.3103,665)"><path d="M11.556,-12.573C11.676,-12.435 11.736,-12.252 11.736,-12.024L11.736,-0.666C11.736,-0.438 11.673,-0.255 11.547,-0.117C11.421,0.021 11.244,0.09 11.016,0.09C10.788,0.09 10.59,-0.012 10.422,-0.216L2.952,-10.206L2.952,-0.666C2.952,-0.438 2.889,-0.255 2.763,-0.117C2.637,0.021 2.466,0.09 2.25,0.09C2.034,0.09 1.866,0.021 1.746,-0.117C1.626,-0.255 1.566,-0.438 1.566,-0.666L1.566,-12.024C1.566,-12.252 1.629,-12.435 1.755,-12.573C1.881,-12.711 2.058,-12.78 2.286,-12.78C2.526,-12.78 2.73,-12.678 2.898,-12.474L10.35,-2.484L10.35,-12.024C10.35,-12.252 10.413,-12.435 10.539,-12.573C10.665,-12.711 10.836,-12.78 11.052,-12.78C11.268,-12.78 11.436,-12.711 11.556,-12.573Z" style="fill-rule:nonzero;"/><path d="M21.793,-1.872C21.889,-1.764 21.937,-1.626 21.937,-1.458C21.937,-1.158 21.727,-0.882 21.307,-0.63C20.875,-0.378 20.419,-0.189 19.939,-0.063C19.459,0.063 18.991,0.126 18.535,0.126C17.179,0.126 16.108,-0.276 15.322,-1.08C14.536,-1.884 14.143,-2.994 14.143,-4.41C14.143,-5.31 14.317,-6.105 14.665,-6.795C15.013,-7.485 15.502,-8.022 16.132,-8.406C16.762,-8.79 17.479,-8.982 18.283,-8.982C19.423,-8.982 20.329,-8.61 21.001,-7.866C21.673,-7.122 22.009,-6.114 22.009,-4.842C22.009,-4.602 21.961,-4.428 21.865,-4.32C21.769,-4.212 21.613,-4.158 21.397,-4.158L15.601,-4.158C15.709,-2.094 16.687,-1.062 18.535,-1.062C19.003,-1.062 19.405,-1.125 19.741,-1.251C20.077,-1.377 20.437,-1.548 20.821,-1.764C21.133,-1.944 21.343,-2.034 21.451,-2.034C21.583,-2.034 21.697,-1.98 21.793,-1.872ZM16.456,-7.128C15.994,-6.648 15.721,-5.97 15.637,-5.094L20.731,-5.094C20.707,-5.982 20.485,-6.663 20.065,-7.137C19.645,-7.611 19.057,-7.848 18.301,-7.848C17.533,-7.848 16.918,-7.608 16.456,-7.128Z" style="fill-rule:nonzero;"/><path d="M31.455,-0.594C31.455,-0.414 31.389,-0.258 31.257,-0.126C31.125,0.006 30.969,0.072 30.789,0.072C30.597,0.072 30.423,-0.012 30.267,-0.18L27.351,-3.51L24.453,-0.18C24.297,-0.012 24.123,0.072 23.931,0.072C23.751,0.072 23.592,0.006 23.454,-0.126C23.316,-0.258 23.247,-0.42 23.247,-0.612C23.247,-0.792 23.319,-0.96 23.463,-1.116L26.451,-4.482L23.589,-7.74C23.445,-7.908 23.373,-8.076 23.373,-8.244C23.373,-8.436 23.442,-8.598 23.58,-8.73C23.718,-8.862 23.871,-8.928 24.039,-8.928C24.231,-8.928 24.405,-8.844 24.561,-8.676L27.351,-5.472L30.141,-8.676C30.297,-8.844 30.471,-8.928 30.663,-8.928C30.843,-8.928 30.999,-8.862 31.131,-8.73C31.263,-8.598 31.329,-8.442 31.329,-8.262C31.329,-8.058 31.257,-7.884 31.113,-7.74L28.251,-4.482L31.239,-1.116C31.383,-0.972 31.455,-0.798 31.455,-0.594Z" style="fill-rule:nonzero;"/><path d="M38.056,-0.486C38.056,-0.282 37.981,-0.129 37.831,-0.027C37.681,0.075 37.456,0.114 37.156,0.09L36.67,0.054C35.71,-0.018 35.002,-0.306 34.546,-0.81C34.09,-1.314 33.862,-2.076 33.862,-3.096L33.862,-7.614L32.656,-7.614C32.452,-7.614 32.293,-7.665 32.179,-7.767C32.065,-7.869 32.008,-8.004 32.008,-8.172C32.008,-8.352 32.065,-8.496 32.179,-8.604C32.293,-8.712 32.452,-8.766 32.656,-8.766L33.862,-8.766L33.862,-10.8C33.862,-11.028 33.928,-11.205 34.06,-11.331C34.192,-11.457 34.372,-11.52 34.6,-11.52C34.816,-11.52 34.99,-11.457 35.122,-11.331C35.254,-11.205 35.32,-11.028 35.32,-10.8L35.32,-8.766L37.318,-8.766C37.51,-8.766 37.663,-8.712 37.777,-8.604C37.891,-8.496 37.948,-8.352 37.948,-8.172C37.948,-8.004 37.891,-7.869 37.777,-7.767C37.663,-7.665 37.51,-7.614 37.318,-7.614L35.32,-7.614L35.32,-3.024C35.32,-2.364 35.455,-1.887 35.725,-1.593C35.995,-1.299 36.4,-1.134 36.94,-1.098L37.426,-1.062C37.846,-1.026 38.056,-0.834 38.056,-0.486Z" style="fill-rule:nonzero;"/><path d="M39.248,-4.356C39.134,-4.464 39.077,-4.608 39.077,-4.788C39.077,-4.968 39.134,-5.115 39.248,-5.229C39.362,-5.343 39.527,-5.4 39.743,-5.4L43.703,-5.4C43.931,-5.4 44.102,-5.343 44.216,-5.229C44.33,-5.115 44.387,-4.968 44.387,-4.788C44.387,-4.608 44.33,-4.464 44.216,-4.356C44.102,-4.248 43.931,-4.194 43.703,-4.194L39.743,-4.194C39.527,-4.194 39.362,-4.248 39.248,-4.356Z" style="fill-rule:nonzero;"/><path d="M54.84,-8.748C54.972,-8.616 55.038,-8.442 55.038,-8.226L55.038,-0.594C55.038,0.714 54.702,1.701 54.03,2.367C53.358,3.033 52.362,3.366 51.042,3.366C49.758,3.366 48.69,3.114 47.838,2.61C47.406,2.37 47.19,2.094 47.19,1.782C47.19,1.614 47.235,1.476 47.325,1.368C47.415,1.26 47.532,1.206 47.676,1.206C47.796,1.206 48.012,1.29 48.324,1.458C48.744,1.674 49.158,1.848 49.566,1.98C49.974,2.112 50.46,2.178 51.024,2.178C51.876,2.178 52.518,1.953 52.95,1.503C53.382,1.053 53.598,0.396 53.598,-0.468L53.598,-2.016C53.346,-1.452 52.959,-1.02 52.437,-0.72C51.915,-0.42 51.3,-0.27 50.592,-0.27C49.824,-0.27 49.143,-0.45 48.549,-0.81C47.955,-1.17 47.493,-1.68 47.163,-2.34C46.833,-3 46.668,-3.762 46.668,-4.626C46.668,-5.49 46.833,-6.252 47.163,-6.912C47.493,-7.572 47.955,-8.082 48.549,-8.442C49.143,-8.802 49.824,-8.982 50.592,-8.982C51.288,-8.982 51.894,-8.832 52.41,-8.532C52.926,-8.232 53.316,-7.806 53.58,-7.254L53.58,-8.226C53.58,-8.442 53.643,-8.616 53.769,-8.748C53.895,-8.88 54.072,-8.946 54.3,-8.946C54.528,-8.946 54.708,-8.88 54.84,-8.748ZM52.86,-2.313C53.34,-2.871 53.58,-3.642 53.58,-4.626C53.58,-5.598 53.343,-6.363 52.869,-6.921C52.395,-7.479 51.732,-7.758 50.88,-7.758C50.028,-7.758 49.359,-7.479 48.873,-6.921C48.387,-6.363 48.144,-5.598 48.144,-4.626C48.144,-3.642 48.387,-2.871 48.873,-2.313C49.359,-1.755 50.028,-1.476 50.88,-1.476C51.72,-1.476 52.38,-1.755 52.86,-2.313Z" style="fill-rule:nonzero;"/><path d="M64.88,-1.872C64.976,-1.764 65.024,-1.626 65.024,-1.458C65.024,-1.158 64.814,-0.882 64.394,-0.63C63.962,-0.378 63.506,-0.189 63.026,-0.063C62.546,0.063 62.078,0.126 61.622,0.126C60.266,0.126 59.195,-0.276 58.409,-1.08C57.623,-1.884 57.23,-2.994 57.23,-4.41C57.23,-5.31 57.404,-6.105 57.752,-6.795C58.1,-7.485 58.589,-8.022 59.219,-8.406C59.849,-8.79 60.566,-8.982 61.37,-8.982C62.51,-8.982 63.416,-8.61 64.088,-7.866C64.76,-7.122 65.096,-6.114 65.096,-4.842C65.096,-4.602 65.048,-4.428 64.952,-4.32C64.856,-4.212 64.7,-4.158 64.484,-4.158L58.688,-4.158C58.796,-2.094 59.774,-1.062 61.622,-1.062C62.09,-1.062 62.492,-1.125 62.828,-1.251C63.164,-1.377 63.524,-1.548 63.908,-1.764C64.22,-1.944 64.43,-2.034 64.538,-2.034C64.67,-2.034 64.784,-1.98 64.88,-1.872ZM59.543,-7.128C59.081,-6.648 58.808,-5.97 58.724,-5.094L63.818,-5.094C63.794,-5.982 63.572,-6.663 63.152,-7.137C62.732,-7.611 62.144,-7.848 61.388,-7.848C60.62,-7.848 60.005,-7.608 59.543,-7.128Z" style="fill-rule:nonzero;"/><path d="M74.811,-5.508L74.811,-0.63C74.811,-0.402 74.748,-0.225 74.622,-0.099C74.496,0.027 74.319,0.09 74.091,0.09C73.863,0.09 73.683,0.027 73.551,-0.099C73.419,-0.225 73.353,-0.402 73.353,-0.63L73.353,-5.418C73.353,-6.234 73.194,-6.828 72.876,-7.2C72.558,-7.572 72.051,-7.758 71.355,-7.758C70.551,-7.758 69.909,-7.512 69.429,-7.02C68.949,-6.528 68.709,-5.862 68.709,-5.022L68.709,-0.63C68.709,-0.402 68.646,-0.225 68.52,-0.099C68.394,0.027 68.217,0.09 67.989,0.09C67.761,0.09 67.581,0.027 67.449,-0.099C67.317,-0.225 67.251,-0.402 67.251,-0.63L67.251,-8.226C67.251,-8.442 67.317,-8.616 67.449,-8.748C67.581,-8.88 67.761,-8.946 67.989,-8.946C68.205,-8.946 68.376,-8.88 68.502,-8.748C68.628,-8.616 68.691,-8.448 68.691,-8.244L68.691,-7.326C68.979,-7.866 69.381,-8.277 69.897,-8.559C70.413,-8.841 71.001,-8.982 71.661,-8.982C73.761,-8.982 74.811,-7.824 74.811,-5.508Z" style="fill-rule:nonzero;"/><path d="M84.616,-1.872C84.712,-1.764 84.76,-1.626 84.76,-1.458C84.76,-1.158 84.55,-0.882 84.13,-0.63C83.698,-0.378 83.242,-0.189 82.762,-0.063C82.282,0.063 81.814,0.126 81.358,0.126C80.002,0.126 78.931,-0.276 78.145,-1.08C77.359,-1.884 76.966,-2.994 76.966,-4.41C76.966,-5.31 77.14,-6.105 77.488,-6.795C77.836,-7.485 78.325,-8.022 78.955,-8.406C79.585,-8.79 80.302,-8.982 81.106,-8.982C82.246,-8.982 83.152,-8.61 83.824,-7.866C84.496,-7.122 84.832,-6.114 84.832,-4.842C84.832,-4.602 84.784,-4.428 84.688,-4.32C84.592,-4.212 84.436,-4.158 84.22,-4.158L78.424,-4.158C78.532,-2.094 79.51,-1.062 81.358,-1.062C81.826,-1.062 82.228,-1.125 82.564,-1.251C82.9,-1.377 83.26,-1.548 83.644,-1.764C83.956,-1.944 84.166,-2.034 84.274,-2.034C84.406,-2.034 84.52,-1.98 84.616,-1.872ZM79.279,-7.128C78.817,-6.648 78.544,-5.97 78.46,-5.094L83.554,-5.094C83.53,-5.982 83.308,-6.663 82.888,-7.137C82.468,-7.611 81.88,-7.848 81.124,-7.848C80.356,-7.848 79.741,-7.608 79.279,-7.128Z" style="fill-rule:nonzero;"/><path d="M92.082,-8.334C92.082,-8.142 92.028,-7.989 91.92,-7.875C91.812,-7.761 91.626,-7.692 91.362,-7.668L90.822,-7.614C90.018,-7.542 89.421,-7.257 89.031,-6.759C88.641,-6.261 88.446,-5.676 88.446,-5.004L88.446,-0.63C88.446,-0.39 88.38,-0.21 88.248,-0.09C88.116,0.03 87.942,0.09 87.726,0.09C87.51,0.09 87.333,0.027 87.195,-0.099C87.057,-0.225 86.988,-0.402 86.988,-0.63L86.988,-8.226C86.988,-8.454 87.06,-8.631 87.204,-8.757C87.348,-8.883 87.522,-8.946 87.726,-8.946C87.918,-8.946 88.08,-8.883 88.212,-8.757C88.344,-8.631 88.41,-8.46 88.41,-8.244L88.41,-7.236C88.662,-7.764 89.019,-8.166 89.481,-8.442C89.943,-8.718 90.474,-8.88 91.074,-8.928L91.326,-8.946C91.83,-8.982 92.082,-8.778 92.082,-8.334Z" style="fill-rule:nonzero;"/><path d="M100.159,-5.526L100.159,-0.63C100.159,-0.414 100.096,-0.24 99.97,-0.108C99.844,0.024 99.673,0.09 99.457,0.09C99.241,0.09 99.067,0.024 98.935,-0.108C98.803,-0.24 98.737,-0.414 98.737,-0.63L98.737,-1.494C98.509,-0.978 98.161,-0.579 97.693,-0.297C97.225,-0.015 96.685,0.126 96.073,0.126C95.509,0.126 94.99,0.012 94.516,-0.216C94.042,-0.444 93.667,-0.762 93.391,-1.17C93.115,-1.578 92.977,-2.028 92.977,-2.52C92.977,-3.18 93.145,-3.693 93.481,-4.059C93.817,-4.425 94.369,-4.689 95.137,-4.851C95.905,-5.013 96.973,-5.094 98.341,-5.094L98.737,-5.094L98.737,-5.688C98.737,-6.408 98.59,-6.936 98.296,-7.272C98.002,-7.608 97.525,-7.776 96.865,-7.776C96.049,-7.776 95.221,-7.554 94.381,-7.11C94.057,-6.906 93.829,-6.804 93.697,-6.804C93.553,-6.804 93.433,-6.858 93.337,-6.966C93.241,-7.074 93.193,-7.212 93.193,-7.38C93.193,-7.548 93.244,-7.695 93.346,-7.821C93.448,-7.947 93.613,-8.076 93.841,-8.208C94.261,-8.448 94.738,-8.637 95.272,-8.775C95.806,-8.913 96.337,-8.982 96.865,-8.982C99.061,-8.982 100.159,-7.83 100.159,-5.526ZM98.044,-1.755C98.506,-2.241 98.737,-2.868 98.737,-3.636L98.737,-4.158L98.413,-4.158C97.357,-4.158 96.553,-4.113 96.001,-4.023C95.449,-3.933 95.056,-3.783 94.822,-3.573C94.588,-3.363 94.471,-3.054 94.471,-2.646C94.471,-2.178 94.642,-1.791 94.984,-1.485C95.326,-1.179 95.755,-1.026 96.271,-1.026C96.991,-1.026 97.582,-1.269 98.044,-1.755Z" style="fill-rule:nonzero;"/><path d="M107.516,-0.486C107.516,-0.282 107.441,-0.129 107.291,-0.027C107.141,0.075 106.916,0.114 106.616,0.09L106.13,0.054C105.17,-0.018 104.462,-0.306 104.006,-0.81C103.55,-1.314 103.322,-2.076 103.322,-3.096L103.322,-7.614L102.116,-7.614C101.912,-7.614 101.753,-7.665 101.639,-7.767C101.525,-7.869 101.468,-8.004 101.468,-8.172C101.468,-8.352 101.525,-8.496 101.639,-8.604C101.753,-8.712 101.912,-8.766 102.116,-8.766L103.322,-8.766L103.322,-10.8C103.322,-11.028 103.388,-11.205 103.52,-11.331C103.652,-11.457 103.832,-11.52 104.06,-11.52C104.276,-11.52 104.45,-11.457 104.582,-11.331C104.714,-11.205 104.78,-11.028 104.78,-10.8L104.78,-8.766L106.778,-8.766C106.97,-8.766 107.123,-8.712 107.237,-8.604C107.351,-8.496 107.408,-8.352 107.408,-8.172C107.408,-8.004 107.351,-7.869 107.237,-7.767C107.123,-7.665 106.97,-7.614 106.778,-7.614L104.78,-7.614L104.78,-3.024C104.78,-2.364 104.915,-1.887 105.185,-1.593C105.455,-1.299 105.86,-1.134 106.4,-1.098L106.886,-1.062C107.306,-1.026 107.516,-0.834 107.516,-0.486Z" style="fill-rule:nonzero;"/><path d="M109.176,-0.099C109.038,-0.225 108.969,-0.402 108.969,-0.63L108.969,-8.226C108.969,-8.454 109.038,-8.631 109.176,-8.757C109.314,-8.883 109.491,-8.946 109.707,-8.946C109.923,-8.946 110.097,-8.883 110.229,-8.757C110.361,-8.631 110.427,-8.454 110.427,-8.226L110.427,-0.63C110.427,-0.39 110.361,-0.21 110.229,-0.09C110.097,0.03 109.923,0.09 109.707,0.09C109.491,0.09 109.314,0.027 109.176,-0.099ZM109.005,-11.088C108.825,-11.256 108.735,-11.478 108.735,-11.754C108.735,-12.018 108.825,-12.234 109.005,-12.402C109.185,-12.57 109.419,-12.654 109.707,-12.654C109.995,-12.654 110.229,-12.57 110.409,-12.402C110.589,-12.234 110.679,-12.018 110.679,-11.754C110.679,-11.478 110.589,-11.256 110.409,-11.088C110.229,-10.92 109.995,-10.836 109.707,-10.836C109.419,-10.836 109.185,-10.92 109.005,-11.088Z" style="fill-rule:nonzero;"/><path d="M114.608,-0.432C113.978,-0.804 113.492,-1.335 113.15,-2.025C112.808,-2.715 112.637,-3.516 112.637,-4.428C112.637,-5.34 112.808,-6.141 113.15,-6.831C113.492,-7.521 113.978,-8.052 114.608,-8.424C115.238,-8.796 115.967,-8.982 116.795,-8.982C117.623,-8.982 118.355,-8.796 118.991,-8.424C119.627,-8.052 120.116,-7.521 120.458,-6.831C120.8,-6.141 120.971,-5.34 120.971,-4.428C120.971,-3.516 120.8,-2.715 120.458,-2.025C120.116,-1.335 119.627,-0.804 118.991,-0.432C118.355,-0.06 117.623,0.126 116.795,0.126C115.967,0.126 115.238,-0.06 114.608,-0.432ZM118.784,-1.935C119.246,-2.505 119.477,-3.336 119.477,-4.428C119.477,-5.496 119.243,-6.321 118.775,-6.903C118.307,-7.485 117.647,-7.776 116.795,-7.776C115.943,-7.776 115.283,-7.485 114.815,-6.903C114.347,-6.321 114.113,-5.496 114.113,-4.428C114.113,-3.348 114.344,-2.52 114.806,-1.944C115.268,-1.368 115.931,-1.08 116.795,-1.08C117.659,-1.08 118.322,-1.365 118.784,-1.935Z" style="fill-rule:nonzero;"/><path d="M130.722,-5.508L130.722,-0.63C130.722,-0.402 130.659,-0.225 130.533,-0.099C130.407,0.027 130.23,0.09 130.002,0.09C129.774,0.09 129.594,0.027 129.462,-0.099C129.33,-0.225 129.264,-0.402 129.264,-0.63L129.264,-5.418C129.264,-6.234 129.105,-6.828 128.787,-7.2C128.469,-7.572 127.962,-7.758 127.266,-7.758C126.462,-7.758 125.82,-7.512 125.34,-7.02C124.86,-6.528 124.62,-5.862 124.62,-5.022L124.62,-0.63C124.62,-0.402 124.557,-0.225 124.431,-0.099C124.305,0.027 124.128,0.09 123.9,0.09C123.672,0.09 123.492,0.027 123.36,-0.099C123.228,-0.225 123.162,-0.402 123.162,-0.63L123.162,-8.226C123.162,-8.442 123.228,-8.616 123.36,-8.748C123.492,-8.88 123.672,-8.946 123.9,-8.946C124.116,-8.946 124.287,-8.88 124.413,-8.748C124.539,-8.616 124.602,-8.448 124.602,-8.244L124.602,-7.326C124.89,-7.866 125.292,-8.277 125.808,-8.559C126.324,-8.841 126.912,-8.982 127.572,-8.982C129.672,-8.982 130.722,-7.824 130.722,-5.508Z" style="fill-rule:nonzero;"/><path d="M145.239,-8.604C145.347,-8.496 145.401,-8.352 145.401,-8.172L145.401,-0.63C145.401,-0.402 145.332,-0.225 145.194,-0.099C145.056,0.027 144.885,0.09 144.681,0.09C144.465,0.09 144.288,0.027 144.15,-0.099C144.012,-0.225 143.943,-0.402 143.943,-0.63L143.943,-7.614L140.001,-7.614L140.001,-0.63C140.001,-0.402 139.932,-0.225 139.794,-0.099C139.656,0.027 139.485,0.09 139.281,0.09C139.065,0.09 138.888,0.027 138.75,-0.099C138.612,-0.225 138.543,-0.402 138.543,-0.63L138.543,-7.614L137.337,-7.614C137.133,-7.614 136.974,-7.665 136.86,-7.767C136.746,-7.869 136.689,-8.004 136.689,-8.172C136.689,-8.352 136.746,-8.496 136.86,-8.604C136.974,-8.712 137.133,-8.766 137.337,-8.766L138.543,-8.766L138.543,-9.072C138.543,-10.152 138.813,-11.001 139.353,-11.619C139.893,-12.237 140.667,-12.588 141.675,-12.672L142.107,-12.708C142.683,-12.756 142.971,-12.576 142.971,-12.168C142.971,-11.82 142.767,-11.622 142.359,-11.574L141.927,-11.538C141.291,-11.49 140.811,-11.289 140.487,-10.935C140.163,-10.581 140.001,-10.05 140.001,-9.342L140.001,-8.766L144.771,-8.766C144.975,-8.766 145.131,-8.712 145.239,-8.604ZM145.374,-12.402C145.56,-12.234 145.653,-12.018 145.653,-11.754C145.653,-11.478 145.563,-11.256 145.383,-11.088C145.203,-10.92 144.969,-10.836 144.681,-10.836C144.393,-10.836 144.159,-10.92 143.979,-11.088C143.799,-11.256 143.709,-11.478 143.709,-11.754C143.709,-12.018 143.799,-12.234 143.979,-12.402C144.159,-12.57 144.393,-12.654 144.681,-12.654C144.957,-12.654 145.188,-12.57 145.374,-12.402Z" style="fill-rule:nonzero;"/><path d="M153.226,-8.334C153.226,-8.142 153.172,-7.989 153.064,-7.875C152.956,-7.761 152.77,-7.692 152.506,-7.668L151.966,-7.614C151.162,-7.542 150.565,-7.257 150.175,-6.759C149.785,-6.261 149.59,-5.676 149.59,-5.004L149.59,-0.63C149.59,-0.39 149.524,-0.21 149.392,-0.09C149.26,0.03 149.086,0.09 148.87,0.09C148.654,0.09 148.477,0.027 148.339,-0.099C148.201,-0.225 148.132,-0.402 148.132,-0.63L148.132,-8.226C148.132,-8.454 148.204,-8.631 148.348,-8.757C148.492,-8.883 148.666,-8.946 148.87,-8.946C149.062,-8.946 149.224,-8.883 149.356,-8.757C149.488,-8.631 149.554,-8.46 149.554,-8.244L149.554,-7.236C149.806,-7.764 150.163,-8.166 150.625,-8.442C151.087,-8.718 151.618,-8.88 152.218,-8.928L152.47,-8.946C152.974,-8.982 153.226,-8.778 153.226,-8.334Z" style="fill-rule:nonzero;"/><path d="M161.447,-1.872C161.543,-1.764 161.591,-1.626 161.591,-1.458C161.591,-1.158 161.381,-0.882 160.961,-0.63C160.529,-0.378 160.073,-0.189 159.593,-0.063C159.113,0.063 158.645,0.126 158.189,0.126C156.833,0.126 155.762,-0.276 154.976,-1.08C154.19,-1.884 153.797,-2.994 153.797,-4.41C153.797,-5.31 153.971,-6.105 154.319,-6.795C154.667,-7.485 155.156,-8.022 155.786,-8.406C156.416,-8.79 157.133,-8.982 157.937,-8.982C159.077,-8.982 159.983,-8.61 160.655,-7.866C161.327,-7.122 161.663,-6.114 161.663,-4.842C161.663,-4.602 161.615,-4.428 161.519,-4.32C161.423,-4.212 161.267,-4.158 161.051,-4.158L155.255,-4.158C155.363,-2.094 156.341,-1.062 158.189,-1.062C158.657,-1.062 159.059,-1.125 159.395,-1.251C159.731,-1.377 160.091,-1.548 160.475,-1.764C160.787,-1.944 160.997,-2.034 161.105,-2.034C161.237,-2.034 161.351,-1.98 161.447,-1.872ZM156.11,-7.128C155.648,-6.648 155.375,-5.97 155.291,-5.094L160.385,-5.094C160.361,-5.982 160.139,-6.663 159.719,-7.137C159.299,-7.611 158.711,-7.848 157.955,-7.848C157.187,-7.848 156.572,-7.608 156.11,-7.128Z" style="fill-rule:nonzero;"/><path d="M176.292,-8.91C176.472,-8.91 176.634,-8.85 176.778,-8.73C176.922,-8.61 176.994,-8.46 176.994,-8.28C176.994,-8.196 176.976,-8.106 176.94,-8.01L173.952,-0.45C173.88,-0.294 173.775,-0.171 173.637,-0.081C173.499,0.009 173.346,0.054 173.178,0.054C173.022,0.054 172.875,0.009 172.737,-0.081C172.599,-0.171 172.494,-0.294 172.422,-0.45L169.938,-6.768L167.472,-0.45C167.412,-0.294 167.31,-0.171 167.166,-0.081C167.022,0.009 166.866,0.054 166.698,0.054C166.542,0.054 166.392,0.009 166.248,-0.081C166.104,-0.171 165.996,-0.294 165.924,-0.45L162.936,-7.992C162.9,-8.088 162.882,-8.172 162.882,-8.244C162.882,-8.436 162.963,-8.598 163.125,-8.73C163.287,-8.862 163.464,-8.928 163.656,-8.928C163.944,-8.928 164.148,-8.784 164.268,-8.496L166.734,-1.854L169.272,-8.442C169.344,-8.598 169.443,-8.718 169.569,-8.802C169.695,-8.886 169.83,-8.928 169.974,-8.928C170.13,-8.928 170.271,-8.886 170.397,-8.802C170.523,-8.718 170.616,-8.598 170.676,-8.442L173.214,-1.872L175.698,-8.478C175.818,-8.766 176.016,-8.91 176.292,-8.91Z" style="fill-rule:nonzero;"/><path d="M185.594,-5.526L185.594,-0.63C185.594,-0.414 185.531,-0.24 185.405,-0.108C185.279,0.024 185.108,0.09 184.892,0.09C184.676,0.09 184.502,0.024 184.37,-0.108C184.238,-0.24 184.172,-0.414 184.172,-0.63L184.172,-1.494C183.944,-0.978 183.596,-0.579 183.128,-0.297C182.66,-0.015 182.12,0.126 181.508,0.126C180.944,0.126 180.425,0.012 179.951,-0.216C179.477,-0.444 179.102,-0.762 178.826,-1.17C178.55,-1.578 178.412,-2.028 178.412,-2.52C178.412,-3.18 178.58,-3.693 178.916,-4.059C179.252,-4.425 179.804,-4.689 180.572,-4.851C181.34,-5.013 182.408,-5.094 183.776,-5.094L184.172,-5.094L184.172,-5.688C184.172,-6.408 184.025,-6.936 183.731,-7.272C183.437,-7.608 182.96,-7.776 182.3,-7.776C181.484,-7.776 180.656,-7.554 179.816,-7.11C179.492,-6.906 179.264,-6.804 179.132,-6.804C178.988,-6.804 178.868,-6.858 178.772,-6.966C178.676,-7.074 178.628,-7.212 178.628,-7.38C178.628,-7.548 178.679,-7.695 178.781,-7.821C178.883,-7.947 179.048,-8.076 179.276,-8.208C179.696,-8.448 180.173,-8.637 180.707,-8.775C181.241,-8.913 181.772,-8.982 182.3,-8.982C184.496,-8.982 185.594,-7.83 185.594,-5.526ZM183.479,-1.755C183.941,-2.241 184.172,-2.868 184.172,-3.636L184.172,-4.158L183.848,-4.158C182.792,-4.158 181.988,-4.113 181.436,-4.023C180.884,-3.933 180.491,-3.783 180.257,-3.573C180.023,-3.363 179.906,-3.054 179.906,-2.646C179.906,-2.178 180.077,-1.791 180.419,-1.485C180.761,-1.179 181.19,-1.026 181.706,-1.026C182.426,-1.026 183.017,-1.269 183.479,-1.755Z" style="fill-rule:nonzero;"/><path d="M188.478,-0.099C188.34,-0.225 188.271,-0.402 188.271,-0.63L188.271,-12.06C188.271,-12.288 188.34,-12.465 188.478,-12.591C188.616,-12.717 188.793,-12.78 189.009,-12.78C189.213,-12.78 189.384,-12.717 189.522,-12.591C189.66,-12.465 189.729,-12.288 189.729,-12.06L189.729,-0.63C189.729,-0.402 189.66,-0.225 189.522,-0.099C189.384,0.027 189.213,0.09 189.009,0.09C188.793,0.09 188.616,0.027 188.478,-0.099Z" style="fill-rule:nonzero;"/><path d="M192.667,-0.099C192.529,-0.225 192.46,-0.402 192.46,-0.63L192.46,-12.06C192.46,-12.288 192.529,-12.465 192.667,-12.591C192.805,-12.717 192.982,-12.78 193.198,-12.78C193.402,-12.78 193.573,-12.717 193.711,-12.591C193.849,-12.465 193.918,-12.288 193.918,-12.06L193.918,-0.63C193.918,-0.402 193.849,-0.225 193.711,-0.099C193.573,0.027 193.402,0.09 193.198,0.09C192.982,0.09 192.805,0.027 192.667,-0.099Z" style="fill-rule:nonzero;"/></g><g transform="matrix(1,0,0,1,43.1307,689)"><path d="M13.932,-8.91C14.112,-8.91 14.274,-8.85 14.418,-8.73C14.562,-8.61 14.634,-8.46 14.634,-8.28C14.634,-8.196 14.616,-8.106 14.58,-8.01L11.592,-0.45C11.52,-0.294 11.415,-0.171 11.277,-0.081C11.139,0.009 10.986,0.054 10.818,0.054C10.662,0.054 10.515,0.009 10.377,-0.081C10.239,-0.171 10.134,-0.294 10.062,-0.45L7.578,-6.768L5.112,-0.45C5.052,-0.294 4.95,-0.171 4.806,-0.081C4.662,0.009 4.506,0.054 4.338,0.054C4.182,0.054 4.032,0.009 3.888,-0.081C3.744,-0.171 3.636,-0.294 3.564,-0.45L0.576,-7.992C0.54,-8.088 0.522,-8.172 0.522,-8.244C0.522,-8.436 0.603,-8.598 0.765,-8.73C0.927,-8.862 1.104,-8.928 1.296,-8.928C1.584,-8.928 1.788,-8.784 1.908,-8.496L4.374,-1.854L6.912,-8.442C6.984,-8.598 7.083,-8.718 7.209,-8.802C7.335,-8.886 7.47,-8.928 7.614,-8.928C7.77,-8.928 7.911,-8.886 8.037,-8.802C8.163,-8.718 8.256,-8.598 8.316,-8.442L10.854,-1.872L13.338,-8.478C13.458,-8.766 13.656,-8.91 13.932,-8.91Z" style="fill-rule:nonzero;"/><path d="M16.726,-0.099C16.588,-0.225 16.519,-0.402 16.519,-0.63L16.519,-8.226C16.519,-8.454 16.588,-8.631 16.726,-8.757C16.864,-8.883 17.041,-8.946 17.257,-8.946C17.473,-8.946 17.647,-8.883 17.779,-8.757C17.911,-8.631 17.977,-8.454 17.977,-8.226L17.977,-0.63C17.977,-0.39 17.911,-0.21 17.779,-0.09C17.647,0.03 17.473,0.09 17.257,0.09C17.041,0.09 16.864,0.027 16.726,-0.099ZM16.555,-11.088C16.375,-11.256 16.285,-11.478 16.285,-11.754C16.285,-12.018 16.375,-12.234 16.555,-12.402C16.735,-12.57 16.969,-12.654 17.257,-12.654C17.545,-12.654 17.779,-12.57 17.959,-12.402C18.139,-12.234 18.229,-12.018 18.229,-11.754C18.229,-11.478 18.139,-11.256 17.959,-11.088C17.779,-10.92 17.545,-10.836 17.257,-10.836C16.969,-10.836 16.735,-10.92 16.555,-11.088Z" style="fill-rule:nonzero;"/><path d="M25.389,-0.486C25.389,-0.282 25.314,-0.129 25.164,-0.027C25.014,0.075 24.789,0.114 24.489,0.09L24.003,0.054C23.043,-0.018 22.335,-0.306 21.879,-0.81C21.423,-1.314 21.195,-2.076 21.195,-3.096L21.195,-7.614L19.989,-7.614C19.785,-7.614 19.626,-7.665 19.512,-7.767C19.398,-7.869 19.341,-8.004 19.341,-8.172C19.341,-8.352 19.398,-8.496 19.512,-8.604C19.626,-8.712 19.785,-8.766 19.989,-8.766L21.195,-8.766L21.195,-10.8C21.195,-11.028 21.261,-11.205 21.393,-11.331C21.525,-11.457 21.705,-11.52 21.933,-11.52C22.149,-11.52 22.323,-11.457 22.455,-11.331C22.587,-11.205 22.653,-11.028 22.653,-10.8L22.653,-8.766L24.651,-8.766C24.843,-8.766 24.996,-8.712 25.11,-8.604C25.224,-8.496 25.281,-8.352 25.281,-8.172C25.281,-8.004 25.224,-7.869 25.11,-7.767C24.996,-7.665 24.843,-7.614 24.651,-7.614L22.653,-7.614L22.653,-3.024C22.653,-2.364 22.788,-1.887 23.058,-1.593C23.328,-1.299 23.733,-1.134 24.273,-1.098L24.759,-1.062C25.179,-1.026 25.389,-0.834 25.389,-0.486Z" style="fill-rule:nonzero;"/><path d="M33.61,-8.109C34.138,-7.527 34.402,-6.66 34.402,-5.508L34.402,-0.63C34.402,-0.402 34.336,-0.225 34.204,-0.099C34.072,0.027 33.898,0.09 33.682,0.09C33.454,0.09 33.274,0.027 33.142,-0.099C33.01,-0.225 32.944,-0.402 32.944,-0.63L32.944,-5.472C32.944,-6.252 32.785,-6.828 32.467,-7.2C32.149,-7.572 31.642,-7.758 30.946,-7.758C30.142,-7.758 29.5,-7.512 29.02,-7.02C28.54,-6.528 28.3,-5.862 28.3,-5.022L28.3,-0.63C28.3,-0.402 28.237,-0.225 28.111,-0.099C27.985,0.027 27.808,0.09 27.58,0.09C27.352,0.09 27.172,0.027 27.04,-0.099C26.908,-0.225 26.842,-0.402 26.842,-0.63L26.842,-12.078C26.842,-12.282 26.911,-12.45 27.049,-12.582C27.187,-12.714 27.364,-12.78 27.58,-12.78C27.808,-12.78 27.985,-12.717 28.111,-12.591C28.237,-12.465 28.3,-12.294 28.3,-12.078L28.3,-7.362C28.588,-7.89 28.99,-8.292 29.506,-8.568C30.022,-8.844 30.61,-8.982 31.27,-8.982C32.302,-8.982 33.082,-8.691 33.61,-8.109Z" style="fill-rule:nonzero;"/><path d="M43.419,-0.261C42.597,-0.531 41.94,-0.894 41.448,-1.35C41.268,-1.518 41.178,-1.728 41.178,-1.98C41.178,-2.148 41.226,-2.295 41.322,-2.421C41.418,-2.547 41.532,-2.61 41.664,-2.61C41.82,-2.61 41.988,-2.544 42.168,-2.412C43.284,-1.548 44.556,-1.116 45.984,-1.116C47.016,-1.116 47.808,-1.314 48.36,-1.71C48.912,-2.106 49.188,-2.67 49.188,-3.402C49.188,-3.822 49.056,-4.161 48.792,-4.419C48.528,-4.677 48.18,-4.884 47.748,-5.04C47.316,-5.196 46.734,-5.358 46.002,-5.526C45.018,-5.754 44.211,-5.994 43.581,-6.246C42.951,-6.498 42.441,-6.858 42.051,-7.326C41.661,-7.794 41.466,-8.406 41.466,-9.162C41.466,-9.882 41.661,-10.521 42.051,-11.079C42.441,-11.637 42.987,-12.069 43.689,-12.375C44.391,-12.681 45.192,-12.834 46.092,-12.834C46.932,-12.834 47.715,-12.705 48.441,-12.447C49.167,-12.189 49.776,-11.82 50.268,-11.34C50.46,-11.148 50.556,-10.938 50.556,-10.71C50.556,-10.542 50.508,-10.395 50.412,-10.269C50.316,-10.143 50.202,-10.08 50.07,-10.08C49.938,-10.08 49.764,-10.146 49.548,-10.278C48.96,-10.758 48.414,-11.094 47.91,-11.286C47.406,-11.478 46.8,-11.574 46.092,-11.574C45.096,-11.574 44.322,-11.367 43.77,-10.953C43.218,-10.539 42.942,-9.96 42.942,-9.216C42.942,-8.58 43.185,-8.103 43.671,-7.785C44.157,-7.467 44.904,-7.188 45.912,-6.948C47.004,-6.684 47.862,-6.441 48.486,-6.219C49.11,-5.997 49.629,-5.664 50.043,-5.22C50.457,-4.776 50.664,-4.182 50.664,-3.438C50.664,-2.73 50.469,-2.106 50.079,-1.566C49.689,-1.026 49.14,-0.606 48.432,-0.306C47.724,-0.006 46.914,0.144 46.002,0.144C45.102,0.144 44.241,0.009 43.419,-0.261Z" style="fill-rule:nonzero;"/><path d="M54.539,-0.261C53.717,-0.531 53.06,-0.894 52.568,-1.35C52.388,-1.518 52.298,-1.728 52.298,-1.98C52.298,-2.148 52.346,-2.295 52.442,-2.421C52.538,-2.547 52.652,-2.61 52.784,-2.61C52.94,-2.61 53.108,-2.544 53.288,-2.412C54.404,-1.548 55.676,-1.116 57.104,-1.116C58.136,-1.116 58.928,-1.314 59.48,-1.71C60.032,-2.106 60.308,-2.67 60.308,-3.402C60.308,-3.822 60.176,-4.161 59.912,-4.419C59.648,-4.677 59.3,-4.884 58.868,-5.04C58.436,-5.196 57.854,-5.358 57.122,-5.526C56.138,-5.754 55.331,-5.994 54.701,-6.246C54.071,-6.498 53.561,-6.858 53.171,-7.326C52.781,-7.794 52.586,-8.406 52.586,-9.162C52.586,-9.882 52.781,-10.521 53.171,-11.079C53.561,-11.637 54.107,-12.069 54.809,-12.375C55.511,-12.681 56.312,-12.834 57.212,-12.834C58.052,-12.834 58.835,-12.705 59.561,-12.447C60.287,-12.189 60.896,-11.82 61.388,-11.34C61.58,-11.148 61.676,-10.938 61.676,-10.71C61.676,-10.542 61.628,-10.395 61.532,-10.269C61.436,-10.143 61.322,-10.08 61.19,-10.08C61.058,-10.08 60.884,-10.146 60.668,-10.278C60.08,-10.758 59.534,-11.094 59.03,-11.286C58.526,-11.478 57.92,-11.574 57.212,-11.574C56.216,-11.574 55.442,-11.367 54.89,-10.953C54.338,-10.539 54.062,-9.96 54.062,-9.216C54.062,-8.58 54.305,-8.103 54.791,-7.785C55.277,-7.467 56.024,-7.188 57.032,-6.948C58.124,-6.684 58.982,-6.441 59.606,-6.219C60.23,-5.997 60.749,-5.664 61.163,-5.22C61.577,-4.776 61.784,-4.182 61.784,-3.438C61.784,-2.73 61.589,-2.106 61.199,-1.566C60.809,-1.026 60.26,-0.606 59.552,-0.306C58.844,-0.006 58.034,0.144 57.122,0.144C56.222,0.144 55.361,0.009 54.539,-0.261Z" style="fill-rule:nonzero;"/><path d="M64.398,-0.189C64.26,-0.315 64.191,-0.48 64.191,-0.684L64.191,-12.024C64.191,-12.252 64.257,-12.435 64.389,-12.573C64.521,-12.711 64.701,-12.78 64.929,-12.78C65.157,-12.78 65.337,-12.711 65.469,-12.573C65.601,-12.435 65.667,-12.252 65.667,-12.024L65.667,-1.26L71.481,-1.26C71.697,-1.26 71.865,-1.206 71.985,-1.098C72.105,-0.99 72.165,-0.834 72.165,-0.63C72.165,-0.426 72.105,-0.27 71.985,-0.162C71.865,-0.054 71.697,0 71.481,0L64.911,0C64.707,0 64.536,-0.063 64.398,-0.189Z" style="fill-rule:nonzero;"/><path d="M88.149,-12.708C88.263,-12.78 88.386,-12.816 88.518,-12.816C88.71,-12.816 88.881,-12.753 89.031,-12.627C89.181,-12.501 89.256,-12.348 89.256,-12.168C89.256,-12.072 89.232,-11.976 89.184,-11.88L84.018,-0.396C83.946,-0.24 83.838,-0.12 83.694,-0.036C83.55,0.048 83.394,0.09 83.226,0.09C83.058,0.09 82.902,0.048 82.758,-0.036C82.614,-0.12 82.506,-0.24 82.434,-0.396L77.286,-11.88C77.25,-11.976 77.232,-12.066 77.232,-12.15C77.232,-12.342 77.31,-12.501 77.466,-12.627C77.622,-12.753 77.796,-12.816 77.988,-12.816C78.276,-12.816 78.486,-12.678 78.618,-12.402L83.262,-1.908L87.888,-12.402C87.948,-12.534 88.035,-12.636 88.149,-12.708Z" style="fill-rule:nonzero;"/><path d="M91.231,-0.117C91.099,-0.255 91.033,-0.438 91.033,-0.666L91.033,-11.97C91.033,-12.186 91.102,-12.36 91.24,-12.492C91.378,-12.624 91.561,-12.69 91.789,-12.69L96.055,-12.69C97.387,-12.69 98.422,-12.366 99.16,-11.718C99.898,-11.07 100.267,-10.152 100.267,-8.964C100.267,-7.776 99.895,-6.852 99.151,-6.192C98.407,-5.532 97.375,-5.202 96.055,-5.202L92.509,-5.202L92.509,-0.666C92.509,-0.438 92.443,-0.255 92.311,-0.117C92.179,0.021 91.999,0.09 91.771,0.09C91.543,0.09 91.363,0.021 91.231,-0.117ZM95.911,-6.426C97.843,-6.426 98.809,-7.272 98.809,-8.964C98.809,-10.632 97.843,-11.466 95.911,-11.466L92.509,-11.466L92.509,-6.426L95.911,-6.426Z" style="fill-rule:nonzero;"/><path d="M112.646,-12.573C112.766,-12.435 112.826,-12.252 112.826,-12.024L112.826,-0.666C112.826,-0.438 112.763,-0.255 112.637,-0.117C112.511,0.021 112.334,0.09 112.106,0.09C111.878,0.09 111.68,-0.012 111.512,-0.216L104.042,-10.206L104.042,-0.666C104.042,-0.438 103.979,-0.255 103.853,-0.117C103.727,0.021 103.556,0.09 103.34,0.09C103.124,0.09 102.956,0.021 102.836,-0.117C102.716,-0.255 102.656,-0.438 102.656,-0.666L102.656,-12.024C102.656,-12.252 102.719,-12.435 102.845,-12.573C102.971,-12.711 103.148,-12.78 103.376,-12.78C103.616,-12.78 103.82,-12.678 103.988,-12.474L111.44,-2.484L111.44,-12.024C111.44,-12.252 111.503,-12.435 111.629,-12.573C111.755,-12.711 111.926,-12.78 112.142,-12.78C112.358,-12.78 112.526,-12.711 112.646,-12.573Z" style="fill-rule:nonzero;"/><path d="M121.862,-0.432C121.232,-0.804 120.746,-1.332 120.404,-2.016C120.062,-2.7 119.891,-3.492 119.891,-4.392C119.891,-5.292 120.068,-6.09 120.422,-6.786C120.776,-7.482 121.271,-8.022 121.907,-8.406C122.543,-8.79 123.275,-8.982 124.103,-8.982C124.559,-8.982 125.012,-8.919 125.462,-8.793C125.912,-8.667 126.305,-8.484 126.641,-8.244C126.857,-8.1 127.01,-7.959 127.1,-7.821C127.19,-7.683 127.235,-7.53 127.235,-7.362C127.235,-7.194 127.19,-7.056 127.1,-6.948C127.01,-6.84 126.893,-6.786 126.749,-6.786C126.665,-6.786 126.575,-6.81 126.479,-6.858C126.383,-6.906 126.302,-6.954 126.236,-7.002C126.17,-7.05 126.125,-7.08 126.101,-7.092C125.789,-7.296 125.492,-7.458 125.21,-7.578C124.928,-7.698 124.583,-7.758 124.175,-7.758C123.299,-7.758 122.618,-7.461 122.132,-6.867C121.646,-6.273 121.403,-5.448 121.403,-4.392C121.403,-3.336 121.646,-2.52 122.132,-1.944C122.618,-1.368 123.299,-1.08 124.175,-1.08C124.583,-1.08 124.934,-1.14 125.228,-1.26C125.522,-1.38 125.819,-1.542 126.119,-1.746C126.251,-1.83 126.377,-1.902 126.497,-1.962C126.617,-2.022 126.719,-2.052 126.803,-2.052C126.935,-2.052 127.046,-1.998 127.136,-1.89C127.226,-1.782 127.271,-1.644 127.271,-1.476C127.271,-1.32 127.229,-1.179 127.145,-1.053C127.061,-0.927 126.905,-0.786 126.677,-0.63C126.341,-0.402 125.936,-0.219 125.462,-0.081C124.988,0.057 124.511,0.126 124.031,0.126C123.215,0.126 122.492,-0.06 121.862,-0.432Z" style="fill-rule:nonzero;"/><path d="M129.255,-0.099C129.117,-0.225 129.048,-0.402 129.048,-0.63L129.048,-12.06C129.048,-12.288 129.117,-12.465 129.255,-12.591C129.393,-12.717 129.57,-12.78 129.786,-12.78C129.99,-12.78 130.161,-12.717 130.299,-12.591C130.437,-12.465 130.506,-12.288 130.506,-12.06L130.506,-0.63C130.506,-0.402 130.437,-0.225 130.299,-0.099C130.161,0.027 129.99,0.09 129.786,0.09C129.57,0.09 129.393,0.027 129.255,-0.099Z" style="fill-rule:nonzero;"/><path d="M133.444,-0.099C133.306,-0.225 133.237,-0.402 133.237,-0.63L133.237,-8.226C133.237,-8.454 133.306,-8.631 133.444,-8.757C133.582,-8.883 133.759,-8.946 133.975,-8.946C134.191,-8.946 134.365,-8.883 134.497,-8.757C134.629,-8.631 134.695,-8.454 134.695,-8.226L134.695,-0.63C134.695,-0.39 134.629,-0.21 134.497,-0.09C134.365,0.03 134.191,0.09 133.975,0.09C133.759,0.09 133.582,0.027 133.444,-0.099ZM133.273,-11.088C133.093,-11.256 133.003,-11.478 133.003,-11.754C133.003,-12.018 133.093,-12.234 133.273,-12.402C133.453,-12.57 133.687,-12.654 133.975,-12.654C134.263,-12.654 134.497,-12.57 134.677,-12.402C134.857,-12.234 134.947,-12.018 134.947,-11.754C134.947,-11.478 134.857,-11.256 134.677,-11.088C134.497,-10.92 134.263,-10.836 133.975,-10.836C133.687,-10.836 133.453,-10.92 133.273,-11.088Z" style="fill-rule:nonzero;"/><path d="M144.555,-1.872C144.651,-1.764 144.699,-1.626 144.699,-1.458C144.699,-1.158 144.489,-0.882 144.069,-0.63C143.637,-0.378 143.181,-0.189 142.701,-0.063C142.221,0.063 141.753,0.126 141.297,0.126C139.941,0.126 138.87,-0.276 138.084,-1.08C137.298,-1.884 136.905,-2.994 136.905,-4.41C136.905,-5.31 137.079,-6.105 137.427,-6.795C137.775,-7.485 138.264,-8.022 138.894,-8.406C139.524,-8.79 140.241,-8.982 141.045,-8.982C142.185,-8.982 143.091,-8.61 143.763,-7.866C144.435,-7.122 144.771,-6.114 144.771,-4.842C144.771,-4.602 144.723,-4.428 144.627,-4.32C144.531,-4.212 144.375,-4.158 144.159,-4.158L138.363,-4.158C138.471,-2.094 139.449,-1.062 141.297,-1.062C141.765,-1.062 142.167,-1.125 142.503,-1.251C142.839,-1.377 143.199,-1.548 143.583,-1.764C143.895,-1.944 144.105,-2.034 144.213,-2.034C144.345,-2.034 144.459,-1.98 144.555,-1.872ZM139.218,-7.128C138.756,-6.648 138.483,-5.97 138.399,-5.094L143.493,-5.094C143.469,-5.982 143.247,-6.663 142.827,-7.137C142.407,-7.611 141.819,-7.848 141.063,-7.848C140.295,-7.848 139.68,-7.608 139.218,-7.128Z" style="fill-rule:nonzero;"/><path d="M154.486,-5.508L154.486,-0.63C154.486,-0.402 154.423,-0.225 154.297,-0.099C154.171,0.027 153.994,0.09 153.766,0.09C153.538,0.09 153.358,0.027 153.226,-0.099C153.094,-0.225 153.028,-0.402 153.028,-0.63L153.028,-5.418C153.028,-6.234 152.869,-6.828 152.551,-7.2C152.233,-7.572 151.726,-7.758 151.03,-7.758C150.226,-7.758 149.584,-7.512 149.104,-7.02C148.624,-6.528 148.384,-5.862 148.384,-5.022L148.384,-0.63C148.384,-0.402 148.321,-0.225 148.195,-0.099C148.069,0.027 147.892,0.09 147.664,0.09C147.436,0.09 147.256,0.027 147.124,-0.099C146.992,-0.225 146.926,-0.402 146.926,-0.63L146.926,-8.226C146.926,-8.442 146.992,-8.616 147.124,-8.748C147.256,-8.88 147.436,-8.946 147.664,-8.946C147.88,-8.946 148.051,-8.88 148.177,-8.748C148.303,-8.616 148.366,-8.448 148.366,-8.244L148.366,-7.326C148.654,-7.866 149.056,-8.277 149.572,-8.559C150.088,-8.841 150.676,-8.982 151.336,-8.982C153.436,-8.982 154.486,-7.824 154.486,-5.508Z" style="fill-rule:nonzero;"/><path d="M161.843,-0.486C161.843,-0.282 161.768,-0.129 161.618,-0.027C161.468,0.075 161.243,0.114 160.943,0.09L160.457,0.054C159.497,-0.018 158.789,-0.306 158.333,-0.81C157.877,-1.314 157.649,-2.076 157.649,-3.096L157.649,-7.614L156.443,-7.614C156.239,-7.614 156.08,-7.665 155.966,-7.767C155.852,-7.869 155.795,-8.004 155.795,-8.172C155.795,-8.352 155.852,-8.496 155.966,-8.604C156.08,-8.712 156.239,-8.766 156.443,-8.766L157.649,-8.766L157.649,-10.8C157.649,-11.028 157.715,-11.205 157.847,-11.331C157.979,-11.457 158.159,-11.52 158.387,-11.52C158.603,-11.52 158.777,-11.457 158.909,-11.331C159.041,-11.205 159.107,-11.028 159.107,-10.8L159.107,-8.766L161.105,-8.766C161.297,-8.766 161.45,-8.712 161.564,-8.604C161.678,-8.496 161.735,-8.352 161.735,-8.172C161.735,-8.004 161.678,-7.869 161.564,-7.767C161.45,-7.665 161.297,-7.614 161.105,-7.614L159.107,-7.614L159.107,-3.024C159.107,-2.364 159.242,-1.887 159.512,-1.593C159.782,-1.299 160.187,-1.134 160.727,-1.098L161.213,-1.062C161.633,-1.026 161.843,-0.834 161.843,-0.486Z" style="fill-rule:nonzero;"/><path d="M168.161,-0.099C168.023,-0.225 167.954,-0.402 167.954,-0.63L167.954,-12.06C167.954,-12.288 168.023,-12.465 168.161,-12.591C168.299,-12.717 168.476,-12.78 168.692,-12.78C168.896,-12.78 169.067,-12.717 169.205,-12.591C169.343,-12.465 169.412,-12.288 169.412,-12.06L169.412,-0.63C169.412,-0.402 169.343,-0.225 169.205,-0.099C169.067,0.027 168.896,0.09 168.692,0.09C168.476,0.09 168.299,0.027 168.161,-0.099Z" style="fill-rule:nonzero;"/><path d="M172.35,-0.099C172.212,-0.225 172.143,-0.402 172.143,-0.63L172.143,-8.226C172.143,-8.454 172.212,-8.631 172.35,-8.757C172.488,-8.883 172.665,-8.946 172.881,-8.946C173.097,-8.946 173.271,-8.883 173.403,-8.757C173.535,-8.631 173.601,-8.454 173.601,-8.226L173.601,-0.63C173.601,-0.39 173.535,-0.21 173.403,-0.09C173.271,0.03 173.097,0.09 172.881,0.09C172.665,0.09 172.488,0.027 172.35,-0.099ZM172.179,-11.088C171.999,-11.256 171.909,-11.478 171.909,-11.754C171.909,-12.018 171.999,-12.234 172.179,-12.402C172.359,-12.57 172.593,-12.654 172.881,-12.654C173.169,-12.654 173.403,-12.57 173.583,-12.402C173.763,-12.234 173.853,-12.018 173.853,-11.754C173.853,-11.478 173.763,-11.256 173.583,-11.088C173.403,-10.92 173.169,-10.836 172.881,-10.836C172.593,-10.836 172.359,-10.92 172.179,-11.088Z" style="fill-rule:nonzero;"/><path d="M177.781,-0.432C177.151,-0.804 176.665,-1.332 176.323,-2.016C175.981,-2.7 175.81,-3.492 175.81,-4.392C175.81,-5.292 175.987,-6.09 176.341,-6.786C176.695,-7.482 177.19,-8.022 177.826,-8.406C178.462,-8.79 179.194,-8.982 180.022,-8.982C180.478,-8.982 180.931,-8.919 181.381,-8.793C181.831,-8.667 182.224,-8.484 182.56,-8.244C182.776,-8.1 182.929,-7.959 183.019,-7.821C183.109,-7.683 183.154,-7.53 183.154,-7.362C183.154,-7.194 183.109,-7.056 183.019,-6.948C182.929,-6.84 182.812,-6.786 182.668,-6.786C182.584,-6.786 182.494,-6.81 182.398,-6.858C182.302,-6.906 182.221,-6.954 182.155,-7.002C182.089,-7.05 182.044,-7.08 182.02,-7.092C181.708,-7.296 181.411,-7.458 181.129,-7.578C180.847,-7.698 180.502,-7.758 180.094,-7.758C179.218,-7.758 178.537,-7.461 178.051,-6.867C177.565,-6.273 177.322,-5.448 177.322,-4.392C177.322,-3.336 177.565,-2.52 178.051,-1.944C178.537,-1.368 179.218,-1.08 180.094,-1.08C180.502,-1.08 180.853,-1.14 181.147,-1.26C181.441,-1.38 181.738,-1.542 182.038,-1.746C182.17,-1.83 182.296,-1.902 182.416,-1.962C182.536,-2.022 182.638,-2.052 182.722,-2.052C182.854,-2.052 182.965,-1.998 183.055,-1.89C183.145,-1.782 183.19,-1.644 183.19,-1.476C183.19,-1.32 183.148,-1.179 183.064,-1.053C182.98,-0.927 182.824,-0.786 182.596,-0.63C182.26,-0.402 181.855,-0.219 181.381,-0.081C180.907,0.057 180.43,0.126 179.95,0.126C179.134,0.126 178.411,-0.06 177.781,-0.432Z" style="fill-rule:nonzero;"/><path d="M192.096,-1.872C192.192,-1.764 192.24,-1.626 192.24,-1.458C192.24,-1.158 192.03,-0.882 191.61,-0.63C191.178,-0.378 190.722,-0.189 190.242,-0.063C189.762,0.063 189.294,0.126 188.838,0.126C187.482,0.126 186.411,-0.276 185.625,-1.08C184.839,-1.884 184.446,-2.994 184.446,-4.41C184.446,-5.31 184.62,-6.105 184.968,-6.795C185.316,-7.485 185.805,-8.022 186.435,-8.406C187.065,-8.79 187.782,-8.982 188.586,-8.982C189.726,-8.982 190.632,-8.61 191.304,-7.866C191.976,-7.122 192.312,-6.114 192.312,-4.842C192.312,-4.602 192.264,-4.428 192.168,-4.32C192.072,-4.212 191.916,-4.158 191.7,-4.158L185.904,-4.158C186.012,-2.094 186.99,-1.062 188.838,-1.062C189.306,-1.062 189.708,-1.125 190.044,-1.251C190.38,-1.377 190.74,-1.548 191.124,-1.764C191.436,-1.944 191.646,-2.034 191.754,-2.034C191.886,-2.034 192,-1.98 192.096,-1.872ZM186.759,-7.128C186.297,-6.648 186.024,-5.97 185.94,-5.094L191.034,-5.094C191.01,-5.982 190.788,-6.663 190.368,-7.137C189.948,-7.611 189.36,-7.848 188.604,-7.848C187.836,-7.848 187.221,-7.608 186.759,-7.128Z" style="fill-rule:nonzero;"/><path d="M202.027,-5.508L202.027,-0.63C202.027,-0.402 201.964,-0.225 201.838,-0.099C201.712,0.027 201.535,0.09 201.307,0.09C201.079,0.09 200.899,0.027 200.767,-0.099C200.635,-0.225 200.569,-0.402 200.569,-0.63L200.569,-5.418C200.569,-6.234 200.41,-6.828 200.092,-7.2C199.774,-7.572 199.267,-7.758 198.571,-7.758C197.767,-7.758 197.125,-7.512 196.645,-7.02C196.165,-6.528 195.925,-5.862 195.925,-5.022L195.925,-0.63C195.925,-0.402 195.862,-0.225 195.736,-0.099C195.61,0.027 195.433,0.09 195.205,0.09C194.977,0.09 194.797,0.027 194.665,-0.099C194.533,-0.225 194.467,-0.402 194.467,-0.63L194.467,-8.226C194.467,-8.442 194.533,-8.616 194.665,-8.748C194.797,-8.88 194.977,-8.946 195.205,-8.946C195.421,-8.946 195.592,-8.88 195.718,-8.748C195.844,-8.616 195.907,-8.448 195.907,-8.244L195.907,-7.326C196.195,-7.866 196.597,-8.277 197.113,-8.559C197.629,-8.841 198.217,-8.982 198.877,-8.982C200.977,-8.982 202.027,-7.824 202.027,-5.508Z" style="fill-rule:nonzero;"/><path d="M206.081,-0.072C205.583,-0.204 205.142,-0.39 204.758,-0.63C204.542,-0.774 204.389,-0.909 204.299,-1.035C204.209,-1.161 204.164,-1.314 204.164,-1.494C204.164,-1.65 204.209,-1.779 204.299,-1.881C204.389,-1.983 204.506,-2.034 204.65,-2.034C204.794,-2.034 205.004,-1.944 205.28,-1.764C205.64,-1.548 205.997,-1.377 206.351,-1.251C206.705,-1.125 207.146,-1.062 207.674,-1.062C208.322,-1.062 208.826,-1.176 209.186,-1.404C209.546,-1.632 209.726,-1.962 209.726,-2.394C209.726,-2.658 209.66,-2.871 209.528,-3.033C209.396,-3.195 209.168,-3.339 208.844,-3.465C208.52,-3.591 208.046,-3.72 207.422,-3.852C206.366,-4.08 205.61,-4.386 205.154,-4.77C204.698,-5.154 204.47,-5.676 204.47,-6.336C204.47,-6.852 204.614,-7.308 204.902,-7.704C205.19,-8.1 205.589,-8.412 206.099,-8.64C206.609,-8.868 207.188,-8.982 207.836,-8.982C208.304,-8.982 208.757,-8.919 209.195,-8.793C209.633,-8.667 210.02,-8.49 210.356,-8.262C210.764,-7.974 210.968,-7.674 210.968,-7.362C210.968,-7.206 210.92,-7.074 210.824,-6.966C210.728,-6.858 210.614,-6.804 210.482,-6.804C210.338,-6.804 210.122,-6.906 209.834,-7.11C209.498,-7.326 209.18,-7.494 208.88,-7.614C208.58,-7.734 208.208,-7.794 207.764,-7.794C207.2,-7.794 206.747,-7.668 206.405,-7.416C206.063,-7.164 205.892,-6.828 205.892,-6.408C205.892,-6.144 205.955,-5.931 206.081,-5.769C206.207,-5.607 206.417,-5.463 206.711,-5.337C207.005,-5.211 207.428,-5.088 207.98,-4.968C208.796,-4.788 209.429,-4.59 209.879,-4.374C210.329,-4.158 210.65,-3.894 210.842,-3.582C211.034,-3.27 211.13,-2.874 211.13,-2.394C211.13,-1.638 210.812,-1.029 210.176,-0.567C209.54,-0.105 208.7,0.126 207.656,0.126C207.104,0.126 206.579,0.06 206.081,-0.072Z" style="fill-rule:nonzero;"/><path d="M220.485,-1.872C220.581,-1.764 220.629,-1.626 220.629,-1.458C220.629,-1.158 220.419,-0.882 219.999,-0.63C219.567,-0.378 219.111,-0.189 218.631,-0.063C218.151,0.063 217.683,0.126 217.227,0.126C215.871,0.126 214.8,-0.276 214.014,-1.08C213.228,-1.884 212.835,-2.994 212.835,-4.41C212.835,-5.31 213.009,-6.105 213.357,-6.795C213.705,-7.485 214.194,-8.022 214.824,-8.406C215.454,-8.79 216.171,-8.982 216.975,-8.982C218.115,-8.982 219.021,-8.61 219.693,-7.866C220.365,-7.122 220.701,-6.114 220.701,-4.842C220.701,-4.602 220.653,-4.428 220.557,-4.32C220.461,-4.212 220.305,-4.158 220.089,-4.158L214.293,-4.158C214.401,-2.094 215.379,-1.062 217.227,-1.062C217.695,-1.062 218.097,-1.125 218.433,-1.251C218.769,-1.377 219.129,-1.548 219.513,-1.764C219.825,-1.944 220.035,-2.034 220.143,-2.034C220.275,-2.034 220.389,-1.98 220.485,-1.872ZM215.148,-7.128C214.686,-6.648 214.413,-5.97 214.329,-5.094L219.423,-5.094C219.399,-5.982 219.177,-6.663 218.757,-7.137C218.337,-7.611 217.749,-7.848 216.993,-7.848C216.225,-7.848 215.61,-7.608 215.148,-7.128Z" style="fill-rule:nonzero;"/></g></g></g></g></svg>