<?xml version="1.0" encoding="UTF-8" standalone="no"?><!DOCTYPE svg PUBLIC "-//W3C//DTD SVG 1.1//EN" "http://www.w3.org/Graphics/SVG/1.1/DTD/svg11.dtd"><svg width="100%" height="100%" viewBox="0 0 102 15" version="1.1" xmlns="http://www.w3.org/2000/svg" xmlns:xlink="http://www.w3.org/1999/xlink" xml:space="preserve" xmlns:serif="http://www.serif.com/" style="fill-rule:evenodd;clip-rule:evenodd;stroke-linejoin:round;stroke-miterlimit:1.41421;"><g transform="matrix(1,0,0,1,-333,-2)"><g transform="matrix(1,0,0,1,0,-4)"><g transform="matrix(1,0,0,1,333,19)"><g id="_4G---3G---WiFi" serif:id="4G-/-3G-/-WiFi"><path d="M8.976,-3.384C9.083,-3.283 9.136,-3.152 9.136,-2.992C9.136,-2.629 8.933,-2.448 8.528,-2.448L7.328,-2.448L7.328,-0.592C7.328,-0.379 7.267,-0.213 7.144,-0.096C7.021,0.021 6.864,0.08 6.672,0.08C6.48,0.08 6.325,0.021 6.208,-0.096C6.091,-0.213 6.032,-0.379 6.032,-0.592L6.032,-2.448L1.296,-2.448C1.104,-2.448 0.955,-2.501 0.848,-2.608C0.741,-2.715 0.688,-2.848 0.688,-3.008C0.688,-3.157 0.747,-3.323 0.864,-3.504L6.096,-11.072C6.245,-11.264 6.437,-11.36 6.672,-11.36C6.853,-11.36 7.008,-11.301 7.136,-11.184C7.264,-11.067 7.328,-10.901 7.328,-10.688L7.328,-3.536L8.528,-3.536C8.72,-3.536 8.869,-3.485 8.976,-3.384ZM2.176,-3.536L6.032,-3.536L6.032,-9.088L2.176,-3.536Z" style="fill-rule:nonzero;"/><path d="M19.778,-5.728C19.88,-5.632 19.93,-5.499 19.93,-5.328L19.93,-1.344C19.93,-1.088 19.89,-0.896 19.81,-0.768C19.73,-0.64 19.584,-0.539 19.37,-0.464C18.944,-0.283 18.426,-0.139 17.818,-0.032C17.21,0.075 16.602,0.128 15.994,0.128C14.874,0.128 13.909,-0.101 13.098,-0.56C12.288,-1.019 11.666,-1.68 11.234,-2.544C10.802,-3.408 10.586,-4.443 10.586,-5.648C10.586,-6.832 10.8,-7.856 11.226,-8.72C11.653,-9.584 12.266,-10.248 13.066,-10.712C13.866,-11.176 14.805,-11.408 15.882,-11.408C16.629,-11.408 17.322,-11.293 17.962,-11.064C18.602,-10.835 19.141,-10.507 19.578,-10.08C19.76,-9.899 19.85,-9.712 19.85,-9.52C19.85,-9.371 19.808,-9.24 19.722,-9.128C19.637,-9.016 19.53,-8.96 19.402,-8.96C19.274,-8.96 19.125,-9.024 18.954,-9.152C18.4,-9.579 17.898,-9.875 17.45,-10.04C17.002,-10.205 16.485,-10.288 15.898,-10.288C14.629,-10.288 13.656,-9.888 12.978,-9.088C12.301,-8.288 11.962,-7.141 11.962,-5.648C11.962,-4.123 12.306,-2.963 12.994,-2.168C13.682,-1.373 14.693,-0.976 16.026,-0.976C17.018,-0.976 17.92,-1.125 18.73,-1.424L18.73,-4.848L16.394,-4.848C16.213,-4.848 16.069,-4.896 15.962,-4.992C15.856,-5.088 15.802,-5.211 15.802,-5.36C15.802,-5.52 15.856,-5.645 15.962,-5.736C16.069,-5.827 16.213,-5.872 16.394,-5.872L19.386,-5.872C19.546,-5.872 19.677,-5.824 19.778,-5.728Z" style="fill-rule:nonzero;"/><path d="M26.031,0.896C25.935,0.971 25.829,1.008 25.711,1.008C25.562,1.008 25.429,0.955 25.311,0.848C25.194,0.741 25.135,0.608 25.135,0.448C25.135,0.384 25.151,0.309 25.183,0.224L28.959,-11.584C29.002,-11.723 29.071,-11.829 29.167,-11.904C29.263,-11.979 29.37,-12.016 29.487,-12.016C29.637,-12.016 29.77,-11.963 29.887,-11.856C30.005,-11.749 30.063,-11.611 30.063,-11.44C30.063,-11.408 30.053,-11.339 30.031,-11.232L26.239,0.576C26.197,0.715 26.127,0.821 26.031,0.896Z" style="fill-rule:nonzero;"/><path d="M41.884,-4.8C42.242,-4.331 42.42,-3.749 42.42,-3.056C42.42,-2.075 42.09,-1.301 41.428,-0.736C40.767,-0.171 39.866,0.112 38.724,0.112C38.031,0.112 37.367,-0.005 36.732,-0.24C36.098,-0.475 35.562,-0.795 35.124,-1.2C34.954,-1.36 34.868,-1.541 34.868,-1.744C34.868,-1.904 34.911,-2.037 34.996,-2.144C35.082,-2.251 35.183,-2.304 35.3,-2.304C35.45,-2.304 35.599,-2.245 35.748,-2.128C36.239,-1.733 36.719,-1.445 37.188,-1.264C37.658,-1.083 38.164,-0.992 38.708,-0.992C39.498,-0.992 40.098,-1.173 40.508,-1.536C40.919,-1.899 41.124,-2.421 41.124,-3.104C41.124,-4.48 40.26,-5.168 38.532,-5.168L37.684,-5.168C37.514,-5.168 37.378,-5.224 37.276,-5.336C37.175,-5.448 37.124,-5.579 37.124,-5.728C37.124,-5.877 37.175,-6.005 37.276,-6.112C37.378,-6.219 37.514,-6.272 37.684,-6.272L38.276,-6.272C39.108,-6.272 39.748,-6.456 40.196,-6.824C40.644,-7.192 40.868,-7.723 40.868,-8.416C40.868,-9.024 40.687,-9.491 40.324,-9.816C39.962,-10.141 39.45,-10.304 38.788,-10.304C38.287,-10.304 37.802,-10.211 37.332,-10.024C36.863,-9.837 36.394,-9.552 35.924,-9.168C35.775,-9.051 35.626,-8.992 35.476,-8.992C35.359,-8.992 35.258,-9.045 35.172,-9.152C35.087,-9.259 35.044,-9.392 35.044,-9.552C35.044,-9.755 35.13,-9.936 35.3,-10.096C35.738,-10.501 36.268,-10.821 36.892,-11.056C37.516,-11.291 38.159,-11.408 38.82,-11.408C39.844,-11.408 40.658,-11.149 41.26,-10.632C41.863,-10.115 42.164,-9.419 42.164,-8.544C42.164,-7.893 42.002,-7.325 41.676,-6.84C41.351,-6.355 40.9,-6.005 40.324,-5.792C41.007,-5.6 41.527,-5.269 41.884,-4.8Z" style="fill-rule:nonzero;"/><path d="M53.799,-5.728C53.9,-5.632 53.951,-5.499 53.951,-5.328L53.951,-1.344C53.951,-1.088 53.911,-0.896 53.831,-0.768C53.751,-0.64 53.604,-0.539 53.391,-0.464C52.964,-0.283 52.447,-0.139 51.839,-0.032C51.231,0.075 50.623,0.128 50.015,0.128C48.895,0.128 47.93,-0.101 47.119,-0.56C46.308,-1.019 45.687,-1.68 45.255,-2.544C44.823,-3.408 44.607,-4.443 44.607,-5.648C44.607,-6.832 44.82,-7.856 45.247,-8.72C45.674,-9.584 46.287,-10.248 47.087,-10.712C47.887,-11.176 48.826,-11.408 49.903,-11.408C50.65,-11.408 51.343,-11.293 51.983,-11.064C52.623,-10.835 53.162,-10.507 53.599,-10.08C53.78,-9.899 53.871,-9.712 53.871,-9.52C53.871,-9.371 53.828,-9.24 53.743,-9.128C53.658,-9.016 53.551,-8.96 53.423,-8.96C53.295,-8.96 53.146,-9.024 52.975,-9.152C52.42,-9.579 51.919,-9.875 51.471,-10.04C51.023,-10.205 50.506,-10.288 49.919,-10.288C48.65,-10.288 47.676,-9.888 46.999,-9.088C46.322,-8.288 45.983,-7.141 45.983,-5.648C45.983,-4.123 46.327,-2.963 47.015,-2.168C47.703,-1.373 48.714,-0.976 50.047,-0.976C51.039,-0.976 51.94,-1.125 52.751,-1.424L52.751,-4.848L50.415,-4.848C50.234,-4.848 50.09,-4.896 49.983,-4.992C49.876,-5.088 49.823,-5.211 49.823,-5.36C49.823,-5.52 49.876,-5.645 49.983,-5.736C50.09,-5.827 50.234,-5.872 50.415,-5.872L53.407,-5.872C53.567,-5.872 53.698,-5.824 53.799,-5.728Z" style="fill-rule:nonzero;"/><path d="M60.052,0.896C59.956,0.971 59.849,1.008 59.732,1.008C59.583,1.008 59.449,0.955 59.332,0.848C59.215,0.741 59.156,0.608 59.156,0.448C59.156,0.384 59.172,0.309 59.204,0.224L62.98,-11.584C63.023,-11.723 63.092,-11.829 63.188,-11.904C63.284,-11.979 63.391,-12.016 63.508,-12.016C63.657,-12.016 63.791,-11.963 63.908,-11.856C64.025,-11.749 64.084,-11.611 64.084,-11.44C64.084,-11.408 64.073,-11.339 64.052,-11.232L60.26,0.576C60.217,0.715 60.148,0.821 60.052,0.896Z" style="fill-rule:nonzero;"/><path d="M84.073,-11.272C84.18,-11.341 84.297,-11.376 84.425,-11.376C84.596,-11.376 84.742,-11.325 84.865,-11.224C84.988,-11.123 85.049,-10.987 85.049,-10.816C85.049,-10.741 85.033,-10.656 85.001,-10.56L81.385,-0.368C81.332,-0.219 81.241,-0.104 81.113,-0.024C80.985,0.056 80.841,0.096 80.681,0.096C80.532,0.096 80.393,0.056 80.265,-0.024C80.137,-0.104 80.046,-0.219 79.993,-0.368L76.857,-9.232L73.689,-0.368C73.636,-0.219 73.545,-0.104 73.417,-0.024C73.289,0.056 73.15,0.096 73.001,0.096C72.852,0.096 72.713,0.056 72.585,-0.024C72.457,-0.104 72.366,-0.219 72.313,-0.368L68.681,-10.56C68.649,-10.645 68.633,-10.725 68.633,-10.8C68.633,-10.971 68.7,-11.109 68.833,-11.216C68.966,-11.323 69.118,-11.376 69.289,-11.376C69.417,-11.376 69.537,-11.341 69.649,-11.272C69.761,-11.203 69.838,-11.099 69.881,-10.96L73.033,-1.872L76.233,-10.864C76.286,-11.024 76.372,-11.144 76.489,-11.224C76.606,-11.304 76.734,-11.344 76.873,-11.344C77.012,-11.344 77.14,-11.301 77.257,-11.216C77.374,-11.131 77.46,-11.008 77.513,-10.848L80.665,-1.84L83.849,-10.96C83.892,-11.099 83.966,-11.203 84.073,-11.272Z" style="fill-rule:nonzero;"/><path d="M87.051,-0.088C86.929,-0.2 86.867,-0.357 86.867,-0.56L86.867,-7.312C86.867,-7.515 86.929,-7.672 87.051,-7.784C87.174,-7.896 87.331,-7.952 87.523,-7.952C87.715,-7.952 87.87,-7.896 87.987,-7.784C88.105,-7.672 88.163,-7.515 88.163,-7.312L88.163,-0.56C88.163,-0.347 88.105,-0.187 87.987,-0.08C87.87,0.027 87.715,0.08 87.523,0.08C87.331,0.08 87.174,0.024 87.051,-0.088ZM86.899,-9.856C86.739,-10.005 86.659,-10.203 86.659,-10.448C86.659,-10.683 86.739,-10.875 86.899,-11.024C87.059,-11.173 87.267,-11.248 87.523,-11.248C87.779,-11.248 87.987,-11.173 88.147,-11.024C88.307,-10.875 88.387,-10.683 88.387,-10.448C88.387,-10.203 88.307,-10.005 88.147,-9.856C87.987,-9.707 87.779,-9.632 87.523,-9.632C87.267,-9.632 87.059,-9.707 86.899,-9.856Z" style="fill-rule:nonzero;"/><path d="M90.958,-0.104C90.841,-0.227 90.782,-0.389 90.782,-0.592L90.782,-10.64C90.782,-10.832 90.843,-10.987 90.966,-11.104C91.089,-11.221 91.251,-11.28 91.454,-11.28L97.278,-11.28C97.47,-11.28 97.619,-11.232 97.726,-11.136C97.833,-11.04 97.886,-10.901 97.886,-10.72C97.886,-10.549 97.833,-10.416 97.726,-10.32C97.619,-10.224 97.47,-10.176 97.278,-10.176L92.078,-10.176L92.078,-6.288L96.958,-6.288C97.15,-6.288 97.299,-6.24 97.406,-6.144C97.513,-6.048 97.566,-5.909 97.566,-5.728C97.566,-5.557 97.513,-5.424 97.406,-5.328C97.299,-5.232 97.15,-5.184 96.958,-5.184L92.078,-5.184L92.078,-0.592C92.078,-0.389 92.022,-0.227 91.91,-0.104C91.798,0.019 91.641,0.08 91.438,0.08C91.235,0.08 91.075,0.019 90.958,-0.104Z" style="fill-rule:nonzero;"/><path d="M99.696,-0.088C99.574,-0.2 99.512,-0.357 99.512,-0.56L99.512,-7.312C99.512,-7.515 99.574,-7.672 99.696,-7.784C99.819,-7.896 99.976,-7.952 100.168,-7.952C100.36,-7.952 100.515,-7.896 100.632,-7.784C100.75,-7.672 100.808,-7.515 100.808,-7.312L100.808,-0.56C100.808,-0.347 100.75,-0.187 100.632,-0.08C100.515,0.027 100.36,0.08 100.168,0.08C99.976,0.08 99.819,0.024 99.696,-0.088ZM99.544,-9.856C99.384,-10.005 99.304,-10.203 99.304,-10.448C99.304,-10.683 99.384,-10.875 99.544,-11.024C99.704,-11.173 99.912,-11.248 100.168,-11.248C100.424,-11.248 100.632,-11.173 100.792,-11.024C100.952,-10.875 101.032,-10.683 101.032,-10.448C101.032,-10.203 100.952,-10.005 100.792,-9.856C100.632,-9.707 100.424,-9.632 100.168,-9.632C99.912,-9.632 99.704,-9.707 99.544,-9.856Z" style="fill-rule:nonzero;"/></g></g></g></g></svg>