<?xml version="1.0" encoding="UTF-8" standalone="no"?>
<svg width="129px" height="118px" viewBox="0 0 129 118" version="1.1" xmlns="http://www.w3.org/2000/svg" xmlns:xlink="http://www.w3.org/1999/xlink">
    <!-- Generator: Sketch 50 (54983) - http://www.bohemiancoding.com/sketch -->
    <title>cases</title>
    <desc>Created with Sketch.</desc>
    <defs></defs>
    <g id="Page-1" stroke="none" stroke-width="1" fill="none" fill-rule="evenodd">
        <g id="cases" fill="#636569">
            <path d="M44.9107076,17.0981989 L12.6281355,17.0981989 C11.3797267,17.0981989 10.3660614,16.0889673 10.3660614,14.8341026 C10.3660614,13.5952575 11.3797267,12.5753462 12.6281355,12.5753462 L44.9107076,12.5753462 C46.1591164,12.5753462 47.1674466,13.5952575 47.1674466,14.8341026 C47.1674466,16.0889673 46.1591164,17.0981989 44.9107076,17.0981989 M44.9107076,30.5706399 L12.6281355,30.5706399 C11.3797267,30.5706399 10.3660614,29.5560684 10.3660614,28.3118834 C10.3660614,27.0570187 11.3797267,26.053127 12.6281355,26.053127 L44.9107076,26.053127 C46.1591164,26.053127 47.1674466,27.0570187 47.1674466,28.3118834 C47.1674466,29.5560684 46.1591164,30.5706399 44.9107076,30.5706399 M44.9107076,44.0430808 L12.6281355,44.0430808 C11.3797267,44.0430808 10.3660614,43.0285094 10.3660614,41.7789845 C10.3660614,40.5347995 11.3797267,39.5148882 12.6281355,39.5148882 L44.9107076,39.5148882 C46.1591164,39.5148882 47.1674466,40.5347995 47.1674466,41.7789845 C47.1674466,43.0285094 46.1591164,44.0430808 44.9107076,44.0430808 M44.9107076,57.5101819 L12.6281355,57.5101819 C11.3797267,57.5101819 10.3660614,56.5062902 10.3660614,55.2514255 C10.3660614,53.9965608 11.3797267,52.992669 12.6281355,52.992669 L44.9107076,52.992669 C46.1591164,52.992669 47.1674466,53.9965608 47.1674466,55.2514255 C47.1674466,56.5062902 46.1591164,57.5101819 44.9107076,57.5101819 M44.9107076,70.9826229 L12.6281355,70.9826229 C11.3797267,70.9826229 10.3660614,69.9680514 10.3660614,68.7185266 C10.3660614,67.4743416 11.3797267,66.4544303 12.6281355,66.4544303 L44.9107076,66.4544303 C46.1591164,66.4544303 47.1674466,67.4743416 47.1674466,68.7185266 C47.1674466,69.9680514 46.1591164,70.9826229 44.9107076,70.9826229 M44.9107076,84.449724 L12.6281355,84.449724 C11.3797267,84.449724 10.3660614,83.4458322 10.3660614,82.1909675 C10.3660614,80.9414427 11.3797267,79.9322111 12.6281355,79.9322111 L44.9107076,79.9322111 C46.1591164,79.9322111 47.1674466,80.9414427 47.1674466,82.1909675 C47.1674466,83.4458322 46.1591164,84.449724 44.9107076,84.449724 M15.3543617,109.637795 C13.0496069,109.637795 11.1823287,107.768848 11.1823287,105.472712 C11.1823287,103.160558 13.0496069,101.29695 15.3543617,101.29695 C17.6591164,101.29695 19.5210595,103.160558 19.5210595,105.472712 C19.5210595,107.768848 17.6591164,109.637795 15.3543617,109.637795 M51.0940659,0 L5.91126919,0 C2.65153501,0 0,2.64856548 0,5.90587383 L0,112.078107 C0,115.340755 2.65153501,118 5.91126919,118 L51.0940659,118 C54.348465,118 57,115.340755 57,112.078107 L57,5.90587383 C57,2.64856548 54.348465,0 51.0940659,0" id="case"></path>
            <path d="M116.910708,17.0981989 L84.6281355,17.0981989 C83.3797267,17.0981989 82.3660614,16.0889673 82.3660614,14.8341026 C82.3660614,13.5952575 83.3797267,12.5753462 84.6281355,12.5753462 L116.910708,12.5753462 C118.159116,12.5753462 119.167447,13.5952575 119.167447,14.8341026 C119.167447,16.0889673 118.159116,17.0981989 116.910708,17.0981989 M116.910708,30.5706399 L84.6281355,30.5706399 C83.3797267,30.5706399 82.3660614,29.5560684 82.3660614,28.3118834 C82.3660614,27.0570187 83.3797267,26.053127 84.6281355,26.053127 L116.910708,26.053127 C118.159116,26.053127 119.167447,27.0570187 119.167447,28.3118834 C119.167447,29.5560684 118.159116,30.5706399 116.910708,30.5706399 M116.910708,44.0430808 L84.6281355,44.0430808 C83.3797267,44.0430808 82.3660614,43.0285094 82.3660614,41.7789845 C82.3660614,40.5347995 83.3797267,39.5148882 84.6281355,39.5148882 L116.910708,39.5148882 C118.159116,39.5148882 119.167447,40.5347995 119.167447,41.7789845 C119.167447,43.0285094 118.159116,44.0430808 116.910708,44.0430808 M116.910708,57.5101819 L84.6281355,57.5101819 C83.3797267,57.5101819 82.3660614,56.5062902 82.3660614,55.2514255 C82.3660614,53.9965608 83.3797267,52.992669 84.6281355,52.992669 L116.910708,52.992669 C118.159116,52.992669 119.167447,53.9965608 119.167447,55.2514255 C119.167447,56.5062902 118.159116,57.5101819 116.910708,57.5101819 M116.910708,70.9826229 L84.6281355,70.9826229 C83.3797267,70.9826229 82.3660614,69.9680514 82.3660614,68.7185266 C82.3660614,67.4743416 83.3797267,66.4544303 84.6281355,66.4544303 L116.910708,66.4544303 C118.159116,66.4544303 119.167447,67.4743416 119.167447,68.7185266 C119.167447,69.9680514 118.159116,70.9826229 116.910708,70.9826229 M116.910708,84.449724 L84.6281355,84.449724 C83.3797267,84.449724 82.3660614,83.4458322 82.3660614,82.1909675 C82.3660614,80.9414427 83.3797267,79.9322111 84.6281355,79.9322111 L116.910708,79.9322111 C118.159116,79.9322111 119.167447,80.9414427 119.167447,82.1909675 C119.167447,83.4458322 118.159116,84.449724 116.910708,84.449724 M87.3543617,109.637795 C85.0496069,109.637795 83.1823287,107.768848 83.1823287,105.472712 C83.1823287,103.160558 85.0496069,101.29695 87.3543617,101.29695 C89.6591164,101.29695 91.5210595,103.160558 91.5210595,105.472712 C91.5210595,107.768848 89.6591164,109.637795 87.3543617,109.637795 M123.094066,0 L77.9112692,0 C74.651535,0 72,2.64856548 72,5.90587383 L72,112.078107 C72,115.340755 74.651535,118 77.9112692,118 L123.094066,118 C126.348465,118 129,115.340755 129,112.078107 L129,5.90587383 C129,2.64856548 126.348465,0 123.094066,0" id="case"></path>
        </g>
    </g>
</svg>