<?xml version="1.0" encoding="UTF-8" standalone="no"?>
<svg width="180px" height="102px" viewBox="0 0 180 102" version="1.1" xmlns="http://www.w3.org/2000/svg" xmlns:xlink="http://www.w3.org/1999/xlink">
    <!-- Generator: Sketch 50 (54983) - http://www.bohemiancoding.com/sketch -->
    <title>Secure_WPA2_Wireless</title>
    <desc>Created with Sketch.</desc>
    <defs></defs>
    <g id="Page-1" stroke="none" stroke-width="1" fill="none" fill-rule="evenodd">
        <g id="Secure_WPA2_Wireless">
            <path d="M30.7801812,62.3376623 C28.8439744,62.3376623 27.2727273,60.7664152 27.2727273,58.8321293 C27.2727273,56.8959225 28.8439744,55.3246753 30.7801812,55.3246753 C32.716388,55.3246753 34.2857143,56.8959225 34.2857143,58.8321293 C34.2857143,60.7664152 32.716388,62.3376623 30.7801812,62.3376623" id="Fill-4" fill="#636569"></path>
            <path d="M106.196947,22.0036915 L106.196947,20.1186089 C106.196947,13.859655 111.27963,8.78412506 117.551879,8.78412506 L162.967602,8.78412506 C169.237847,8.78412506 174.322534,13.859655 174.322534,20.1186089 L174.322534,48.4528196 C174.322534,54.7117736 169.237847,59.7873035 162.967602,59.7873035 L118.064553,59.7873035 C117.768163,60.1271381 117.485792,60.4729698 117.167373,60.7988112 C119.049849,61.9362577 121.216698,63.4895018 123.323469,65.4545455 L164.563701,65.4545455 C173.022825,65.4545455 180,58.4899349 180,50.1080141 L180,18.7612695 C180,10.1994363 173.022825,3.11688312 164.325387,3.11688312 L116.011853,3.11688312 C107.616814,3.11688312 100.519481,10.2614061 100.519481,18.6413279 L100.519481,21.1700972 C102.46604,21.2020817 104.364537,21.4979377 106.196947,22.0036915" id="Fill-6" fill="#636569"></path>
            <path d="M44.4597893,73.8030534 L17.0022711,73.8030534 C10.7431164,73.8030534 5.66742368,68.7203695 5.66742368,62.4481213 L5.66742368,17.0323982 C5.66742368,10.7621526 10.7431164,5.67746605 17.0022711,5.67746605 L45.3353913,5.67746605 C51.594546,5.67746605 56.6702387,10.7621526 56.6702387,17.0323982 L56.6702387,26.8713367 C58.3314835,25.1170297 60.2386165,23.6050414 62.3376623,22.3854376 L62.3376623,15.4362992 C62.3376623,6.97717521 55.3748275,0 46.9926379,0 L15.6448881,0 C7.08278029,0 0,6.97717521 0,15.67261 L0,63.9861439 C0,72.3831863 7.14475211,79.4805195 15.5229435,79.4805195 L41.6990443,79.4805195 C42.3427517,77.7001783 43.2383446,75.7816554 44.4597893,73.8030534" id="Fill-8" fill="#636569"></path>
            <path d="M56.8831169,61.5584416 L56.8831169,62.1498701 C57,62.0844156 57.1098701,62.0072727 57.2244156,61.9418182 C57.1051948,61.8179221 57.0023377,61.6823377 56.8831169,61.5584416" id="Fill-10" fill="#000000"></path>
            <path d="M106.680949,88.7746683 C106.680949,79.0620301 100.564873,70.5376723 94.1266867,66.0871319 C96.0473388,65.5821629 97.9980011,65.2855938 99.9106505,65.2855938 C111.120456,65.2855938 123.334603,74.0203554 123.376618,86.2878963 C120.989807,89.2074988 113.953418,90.9628673 106.000718,91.5640209 C106.38885,90.7344289 106.680949,89.826687 106.680949,88.7746683 Z M73.8417996,66.1873242 C74.1599076,66.2033549 74.4680122,66.2394241 74.7881209,66.2394241 C75.1142316,66.2394241 75.4323396,66.2033549 75.7544489,66.1873242 C88.6808377,66.6802701 100.348799,76.8497849 100.348799,88.700526 C98.6922368,91.9447515 87.4904336,94.9605387 74.7881209,94.9605387 C62.0858081,94.9605387 50.63392,91.8686054 49.2014336,88.700526 C49.2014336,78.2184113 59.6649862,66.6922932 73.8417996,66.1873242 Z M74.7881209,28.1944175 C83.5190852,28.1944175 90.5974885,35.286026 90.5974885,44.028803 C90.5974885,52.7695761 83.5190852,59.8611846 74.7881209,59.8611846 C66.0571565,59.8611846 58.9787532,52.7695761 58.9787532,44.028803 C58.9787532,35.2820183 66.0571565,28.1944175 74.7881209,28.1944175 Z M88.2106781,61.6906953 C88.1826686,61.7007146 88.1406543,61.7187492 88.1126448,61.7307723 C88.136653,61.7127376 88.1586604,61.6906953 88.18667,61.6726607 C88.1966734,61.6746646 88.2026754,61.68268 88.2106781,61.6906953 Z M99.826622,59.4884694 C97.1096995,59.4884694 94.6348593,58.6688967 92.4761263,57.3744126 C95.279078,53.6572796 96.9636499,49.0484354 96.9636499,44.0247953 C96.9636499,39.5301703 95.6231948,35.3541567 93.3284157,31.8594506 C95.2870807,30.8535202 97.4658204,30.2243128 99.826622,30.2243128 C107.885358,30.2243128 114.431581,36.7788907 114.431581,44.8583949 C114.431581,52.9318876 107.875355,59.4884694 99.826622,59.4884694 Z M120.385602,44.1550452 C120.385602,34.0476496 111.272508,24.2949346 99.8306233,24.2949346 C95.9753144,24.2949346 92.3900971,25.4210956 89.3190544,27.2786602 C85.4257326,23.8861502 80.3540106,21.8181818 74.7841195,21.8181818 C62.535961,21.8181818 52.6085904,31.763266 52.6085904,44.028803 C52.6085904,51.6474228 56.4458933,58.366316 62.279874,62.3639874 C59.7090012,63.4059869 57.1101188,64.8267132 54.6212738,66.7423893 C41.9669774,76.5532158 42.8712844,88.7746683 42.8712844,88.7746683 C42.8752857,93.6059392 48.7512808,96.471438 48.7512808,96.471438 C48.7512808,96.471438 57.1881453,101.298701 74.7781175,101.298701 C86.8742244,101.298701 94.5028144,99.0503869 98.086031,97.6456913 C113.403232,97.9162105 129.350646,94.0668237 129.350646,86.1175694 C129.358649,70.8081914 114.885735,62.8709602 111.422559,61.6906953 C114.885735,59.2880848 120.385602,54.2564293 120.385602,44.1550452 Z" id="Fill-12" fill="#015E85"></path>
        </g>
    </g>
</svg>