<?xml version="1.0" encoding="UTF-8" standalone="no"?>
<!DOCTYPE svg PUBLIC "-//W3C//DTD SVG 1.1//EN" "http://www.w3.org/Graphics/SVG/1.1/DTD/svg11.dtd">
<svg width="100%" height="100%" viewBox="0 0 81 22" version="1.1" xmlns="http://www.w3.org/2000/svg" xmlns:xlink="http://www.w3.org/1999/xlink" xml:space="preserve" xmlns:serif="http://www.serif.com/" style="fill-rule:evenodd;clip-rule:evenodd;stroke-linejoin:round;stroke-miterlimit:1.41421;">
    <g transform="matrix(1,0,0,1,-88,-190)">
        <g transform="matrix(1,0,0,1,0,74.5)">
            <g transform="matrix(1,0,0,1,-121.969,67.3738)">
                <path d="M223.558,48.784C223.638,48.732 223.726,48.706 223.822,48.706C223.95,48.706 224.06,48.744 224.152,48.82C224.244,48.896 224.29,48.998 224.29,49.126C224.29,49.182 224.278,49.246 224.254,49.318L221.542,56.962C221.502,57.074 221.434,57.16 221.338,57.22C221.242,57.28 221.134,57.31 221.014,57.31C220.902,57.31 220.798,57.28 220.702,57.22C220.606,57.16 220.538,57.074 220.498,56.962L218.146,50.314L215.77,56.962C215.73,57.074 215.662,57.16 215.566,57.22C215.47,57.28 215.366,57.31 215.254,57.31C215.142,57.31 215.038,57.28 214.942,57.22C214.846,57.16 214.778,57.074 214.738,56.962L212.014,49.318C211.99,49.254 211.978,49.194 211.978,49.138C211.978,49.01 212.028,48.906 212.128,48.826C212.228,48.746 212.342,48.706 212.47,48.706C212.566,48.706 212.656,48.732 212.74,48.784C212.824,48.836 212.882,48.914 212.914,49.018L215.278,55.834L217.678,49.09C217.718,48.97 217.782,48.88 217.87,48.82C217.958,48.76 218.054,48.73 218.158,48.73C218.262,48.73 218.358,48.762 218.446,48.826C218.534,48.89 218.598,48.982 218.638,49.102L221.002,55.858L223.39,49.018C223.422,48.914 223.478,48.836 223.558,48.784Z" style="fill-rule:nonzero;"/>
                <path d="M225.784,57.172C225.692,57.088 225.646,56.97 225.646,56.818L225.646,51.754C225.646,51.602 225.692,51.484 225.784,51.4C225.876,51.316 225.994,51.274 226.138,51.274C226.282,51.274 226.398,51.316 226.486,51.4C226.574,51.484 226.618,51.602 226.618,51.754L226.618,56.818C226.618,56.978 226.574,57.098 226.486,57.178C226.398,57.258 226.282,57.298 226.138,57.298C225.994,57.298 225.876,57.256 225.784,57.172ZM225.67,49.846C225.55,49.734 225.49,49.586 225.49,49.402C225.49,49.226 225.55,49.082 225.67,48.97C225.79,48.858 225.946,48.802 226.138,48.802C226.33,48.802 226.486,48.858 226.606,48.97C226.726,49.082 226.786,49.226 226.786,49.402C226.786,49.586 226.726,49.734 226.606,49.846C226.486,49.958 226.33,50.014 226.138,50.014C225.946,50.014 225.79,49.958 225.67,49.846Z" style="fill-rule:nonzero;"/>
                <path d="M231.826,51.682C231.826,51.81 231.79,51.912 231.718,51.988C231.646,52.064 231.522,52.11 231.346,52.126L230.986,52.162C230.45,52.21 230.052,52.4 229.792,52.732C229.532,53.064 229.402,53.454 229.402,53.902L229.402,56.818C229.402,56.978 229.358,57.098 229.27,57.178C229.182,57.258 229.066,57.298 228.922,57.298C228.778,57.298 228.66,57.256 228.568,57.172C228.476,57.088 228.43,56.97 228.43,56.818L228.43,51.754C228.43,51.602 228.478,51.484 228.574,51.4C228.67,51.316 228.786,51.274 228.922,51.274C229.05,51.274 229.158,51.316 229.246,51.4C229.334,51.484 229.378,51.598 229.378,51.742L229.378,52.414C229.546,52.062 229.784,51.794 230.092,51.61C230.4,51.426 230.754,51.318 231.154,51.286L231.322,51.274C231.658,51.25 231.826,51.386 231.826,51.682Z" style="fill-rule:nonzero;"/>
                <path d="M237.298,55.99C237.362,56.062 237.394,56.154 237.394,56.266C237.394,56.466 237.254,56.65 236.974,56.818C236.686,56.986 236.382,57.112 236.062,57.196C235.742,57.28 235.43,57.322 235.126,57.322C234.222,57.322 233.508,57.054 232.984,56.518C232.46,55.982 232.198,55.242 232.198,54.298C232.198,53.698 232.314,53.168 232.546,52.708C232.778,52.248 233.104,51.89 233.524,51.634C233.944,51.378 234.422,51.25 234.958,51.25C235.718,51.25 236.322,51.498 236.77,51.994C237.218,52.49 237.442,53.162 237.442,54.01C237.442,54.17 237.41,54.286 237.346,54.358C237.282,54.43 237.178,54.466 237.034,54.466L233.17,54.466C233.242,55.842 233.894,56.53 235.126,56.53C235.438,56.53 235.706,56.488 235.93,56.404C236.154,56.32 236.394,56.206 236.65,56.062C236.858,55.942 236.998,55.882 237.07,55.882C237.158,55.882 237.234,55.918 237.298,55.99ZM233.74,52.486C233.432,52.806 233.25,53.258 233.194,53.842L236.59,53.842C236.574,53.25 236.426,52.796 236.146,52.48C235.866,52.164 235.474,52.006 234.97,52.006C234.458,52.006 234.048,52.166 233.74,52.486Z" style="fill-rule:nonzero;"/>
                <path d="M239.008,57.172C238.916,57.088 238.87,56.97 238.87,56.818L238.87,49.198C238.87,49.046 238.916,48.928 239.008,48.844C239.1,48.76 239.218,48.718 239.362,48.718C239.498,48.718 239.612,48.76 239.704,48.844C239.796,48.928 239.842,49.046 239.842,49.198L239.842,56.818C239.842,56.97 239.796,57.088 239.704,57.172C239.612,57.256 239.498,57.298 239.362,57.298C239.218,57.298 239.1,57.256 239.008,57.172Z" style="fill-rule:nonzero;"/>
                <path d="M246.406,55.99C246.47,56.062 246.502,56.154 246.502,56.266C246.502,56.466 246.362,56.65 246.082,56.818C245.794,56.986 245.49,57.112 245.17,57.196C244.85,57.28 244.538,57.322 244.234,57.322C243.33,57.322 242.616,57.054 242.092,56.518C241.568,55.982 241.306,55.242 241.306,54.298C241.306,53.698 241.422,53.168 241.654,52.708C241.886,52.248 242.212,51.89 242.632,51.634C243.052,51.378 243.53,51.25 244.066,51.25C244.826,51.25 245.43,51.498 245.878,51.994C246.326,52.49 246.55,53.162 246.55,54.01C246.55,54.17 246.518,54.286 246.454,54.358C246.39,54.43 246.286,54.466 246.142,54.466L242.278,54.466C242.35,55.842 243.002,56.53 244.234,56.53C244.546,56.53 244.814,56.488 245.038,56.404C245.262,56.32 245.502,56.206 245.758,56.062C245.966,55.942 246.106,55.882 246.178,55.882C246.266,55.882 246.342,55.918 246.406,55.99ZM242.848,52.486C242.54,52.806 242.358,53.258 242.302,53.842L245.698,53.842C245.682,53.25 245.534,52.796 245.254,52.48C244.974,52.164 244.582,52.006 244.078,52.006C243.566,52.006 243.156,52.166 242.848,52.486Z" style="fill-rule:nonzero;"/>
                <path d="M248.896,57.19C248.564,57.102 248.27,56.978 248.014,56.818C247.87,56.722 247.768,56.632 247.708,56.548C247.648,56.464 247.618,56.362 247.618,56.242C247.618,56.138 247.648,56.052 247.708,55.984C247.768,55.916 247.846,55.882 247.942,55.882C248.038,55.882 248.178,55.942 248.362,56.062C248.602,56.206 248.84,56.32 249.076,56.404C249.312,56.488 249.606,56.53 249.958,56.53C250.39,56.53 250.726,56.454 250.966,56.302C251.206,56.15 251.326,55.93 251.326,55.642C251.326,55.466 251.282,55.324 251.194,55.216C251.106,55.108 250.954,55.012 250.738,54.928C250.522,54.844 250.206,54.758 249.79,54.67C249.086,54.518 248.582,54.314 248.278,54.058C247.974,53.802 247.822,53.454 247.822,53.014C247.822,52.67 247.918,52.366 248.11,52.102C248.302,51.838 248.568,51.63 248.908,51.478C249.248,51.326 249.634,51.25 250.066,51.25C250.378,51.25 250.68,51.292 250.972,51.376C251.264,51.46 251.522,51.578 251.746,51.73C252.018,51.922 252.154,52.122 252.154,52.33C252.154,52.434 252.122,52.522 252.058,52.594C251.994,52.666 251.918,52.702 251.83,52.702C251.734,52.702 251.59,52.634 251.398,52.498C251.174,52.354 250.962,52.242 250.762,52.162C250.562,52.082 250.314,52.042 250.018,52.042C249.642,52.042 249.34,52.126 249.112,52.294C248.884,52.462 248.77,52.686 248.77,52.966C248.77,53.142 248.812,53.284 248.896,53.392C248.98,53.5 249.12,53.596 249.316,53.68C249.512,53.764 249.794,53.846 250.162,53.926C250.706,54.046 251.128,54.178 251.428,54.322C251.728,54.466 251.942,54.642 252.07,54.85C252.198,55.058 252.262,55.322 252.262,55.642C252.262,56.146 252.05,56.552 251.626,56.86C251.202,57.168 250.642,57.322 249.946,57.322C249.578,57.322 249.228,57.278 248.896,57.19Z" style="fill-rule:nonzero;"/>
                <path d="M254.656,57.19C254.324,57.102 254.03,56.978 253.774,56.818C253.63,56.722 253.528,56.632 253.468,56.548C253.408,56.464 253.378,56.362 253.378,56.242C253.378,56.138 253.408,56.052 253.468,55.984C253.528,55.916 253.606,55.882 253.702,55.882C253.798,55.882 253.938,55.942 254.122,56.062C254.362,56.206 254.6,56.32 254.836,56.404C255.072,56.488 255.366,56.53 255.718,56.53C256.15,56.53 256.486,56.454 256.726,56.302C256.966,56.15 257.086,55.93 257.086,55.642C257.086,55.466 257.042,55.324 256.954,55.216C256.866,55.108 256.714,55.012 256.498,54.928C256.282,54.844 255.966,54.758 255.55,54.67C254.846,54.518 254.342,54.314 254.038,54.058C253.734,53.802 253.582,53.454 253.582,53.014C253.582,52.67 253.678,52.366 253.87,52.102C254.062,51.838 254.328,51.63 254.668,51.478C255.008,51.326 255.394,51.25 255.826,51.25C256.138,51.25 256.44,51.292 256.732,51.376C257.024,51.46 257.282,51.578 257.506,51.73C257.778,51.922 257.914,52.122 257.914,52.33C257.914,52.434 257.882,52.522 257.818,52.594C257.754,52.666 257.678,52.702 257.59,52.702C257.494,52.702 257.35,52.634 257.158,52.498C256.934,52.354 256.722,52.242 256.522,52.162C256.322,52.082 256.074,52.042 255.778,52.042C255.402,52.042 255.1,52.126 254.872,52.294C254.644,52.462 254.53,52.686 254.53,52.966C254.53,53.142 254.572,53.284 254.656,53.392C254.74,53.5 254.88,53.596 255.076,53.68C255.272,53.764 255.554,53.846 255.922,53.926C256.466,54.046 256.888,54.178 257.188,54.322C257.488,54.466 257.702,54.642 257.83,54.85C257.958,55.058 258.022,55.322 258.022,55.642C258.022,56.146 257.81,56.552 257.386,56.86C256.962,57.168 256.402,57.322 255.706,57.322C255.338,57.322 254.988,57.278 254.656,57.19Z" style="fill-rule:nonzero;"/>
                <path d="M266.89,51.634C267.282,51.89 267.586,52.248 267.802,52.708C268.018,53.168 268.126,53.702 268.126,54.31C268.126,54.918 268.018,55.448 267.802,55.9C267.586,56.352 267.284,56.702 266.896,56.95C266.508,57.198 266.054,57.322 265.534,57.322C265.078,57.322 264.68,57.222 264.34,57.022C264,56.822 263.742,56.538 263.566,56.17L263.566,58.99C263.566,59.134 263.524,59.248 263.44,59.332C263.356,59.416 263.238,59.458 263.086,59.458C262.934,59.458 262.814,59.414 262.726,59.326C262.638,59.238 262.594,59.126 262.594,58.99L262.594,51.754C262.594,51.61 262.638,51.494 262.726,51.406C262.814,51.318 262.934,51.274 263.086,51.274C263.238,51.274 263.356,51.318 263.44,51.406C263.524,51.494 263.566,51.61 263.566,51.754L263.566,52.402C263.742,52.034 264,51.75 264.34,51.55C264.68,51.35 265.078,51.25 265.534,51.25C266.046,51.25 266.498,51.378 266.89,51.634ZM266.662,55.942C266.974,55.558 267.13,55.014 267.13,54.31C267.13,53.606 266.974,53.056 266.662,52.66C266.35,52.264 265.91,52.066 265.342,52.066C264.774,52.066 264.336,52.258 264.028,52.642C263.72,53.026 263.566,53.574 263.566,54.286C263.566,54.998 263.72,55.548 264.028,55.936C264.336,56.324 264.774,56.518 265.342,56.518C265.91,56.518 266.35,56.326 266.662,55.942Z" style="fill-rule:nonzero;"/>
                <path d="M270.544,56.95C270.124,56.702 269.8,56.348 269.572,55.888C269.344,55.428 269.23,54.894 269.23,54.286C269.23,53.678 269.344,53.144 269.572,52.684C269.8,52.224 270.124,51.87 270.544,51.622C270.964,51.374 271.45,51.25 272.002,51.25C272.554,51.25 273.042,51.374 273.466,51.622C273.89,51.87 274.216,52.224 274.444,52.684C274.672,53.144 274.786,53.678 274.786,54.286C274.786,54.894 274.672,55.428 274.444,55.888C274.216,56.348 273.89,56.702 273.466,56.95C273.042,57.198 272.554,57.322 272.002,57.322C271.45,57.322 270.964,57.198 270.544,56.95ZM273.328,55.948C273.636,55.568 273.79,55.014 273.79,54.286C273.79,53.574 273.634,53.024 273.322,52.636C273.01,52.248 272.57,52.054 272.002,52.054C271.434,52.054 270.994,52.248 270.682,52.636C270.37,53.024 270.214,53.574 270.214,54.286C270.214,55.006 270.368,55.558 270.676,55.942C270.984,56.326 271.426,56.518 272.002,56.518C272.578,56.518 273.02,56.328 273.328,55.948Z" style="fill-rule:nonzero;"/>
                <path d="M276.376,57.172C276.284,57.088 276.238,56.97 276.238,56.818L276.238,51.754C276.238,51.602 276.284,51.484 276.376,51.4C276.468,51.316 276.586,51.274 276.73,51.274C276.874,51.274 276.99,51.316 277.078,51.4C277.166,51.484 277.21,51.602 277.21,51.754L277.21,56.818C277.21,56.978 277.166,57.098 277.078,57.178C276.99,57.258 276.874,57.298 276.73,57.298C276.586,57.298 276.468,57.256 276.376,57.172ZM276.262,49.846C276.142,49.734 276.082,49.586 276.082,49.402C276.082,49.226 276.142,49.082 276.262,48.97C276.382,48.858 276.538,48.802 276.73,48.802C276.922,48.802 277.078,48.858 277.198,48.97C277.318,49.082 277.378,49.226 277.378,49.402C277.378,49.586 277.318,49.734 277.198,49.846C277.078,49.958 276.922,50.014 276.73,50.014C276.538,50.014 276.382,49.958 276.262,49.846Z" style="fill-rule:nonzero;"/>
                <path d="M284.062,53.566L284.062,56.818C284.062,56.97 284.02,57.088 283.936,57.172C283.852,57.256 283.734,57.298 283.582,57.298C283.43,57.298 283.31,57.256 283.222,57.172C283.134,57.088 283.09,56.97 283.09,56.818L283.09,53.626C283.09,53.082 282.984,52.686 282.772,52.438C282.56,52.19 282.222,52.066 281.758,52.066C281.222,52.066 280.794,52.23 280.474,52.558C280.154,52.886 279.994,53.33 279.994,53.89L279.994,56.818C279.994,56.97 279.952,57.088 279.868,57.172C279.784,57.256 279.666,57.298 279.514,57.298C279.362,57.298 279.242,57.256 279.154,57.172C279.066,57.088 279.022,56.97 279.022,56.818L279.022,51.754C279.022,51.61 279.066,51.494 279.154,51.406C279.242,51.318 279.362,51.274 279.514,51.274C279.658,51.274 279.772,51.318 279.856,51.406C279.94,51.494 279.982,51.606 279.982,51.742L279.982,52.354C280.174,51.994 280.442,51.72 280.786,51.532C281.13,51.344 281.522,51.25 281.962,51.25C283.362,51.25 284.062,52.022 284.062,53.566Z" style="fill-rule:nonzero;"/>
                <path d="M288.958,56.914C288.958,57.05 288.908,57.152 288.808,57.22C288.708,57.288 288.558,57.314 288.358,57.298L288.034,57.274C287.394,57.226 286.922,57.034 286.618,56.698C286.314,56.362 286.162,55.854 286.162,55.174L286.162,52.162L285.358,52.162C285.222,52.162 285.116,52.128 285.04,52.06C284.964,51.992 284.926,51.902 284.926,51.79C284.926,51.67 284.964,51.574 285.04,51.502C285.116,51.43 285.222,51.394 285.358,51.394L286.162,51.394L286.162,50.038C286.162,49.886 286.206,49.768 286.294,49.684C286.382,49.6 286.502,49.558 286.654,49.558C286.798,49.558 286.914,49.6 287.002,49.684C287.09,49.768 287.134,49.886 287.134,50.038L287.134,51.394L288.466,51.394C288.594,51.394 288.696,51.43 288.772,51.502C288.848,51.574 288.886,51.67 288.886,51.79C288.886,51.902 288.848,51.992 288.772,52.06C288.696,52.128 288.594,52.162 288.466,52.162L287.134,52.162L287.134,55.222C287.134,55.662 287.224,55.98 287.404,56.176C287.584,56.372 287.854,56.482 288.214,56.506L288.538,56.53C288.818,56.554 288.958,56.682 288.958,56.914Z" style="fill-rule:nonzero;"/>
                <path d="M211.336,68.95C210.916,68.702 210.592,68.348 210.364,67.888C210.136,67.428 210.022,66.894 210.022,66.286C210.022,65.678 210.136,65.144 210.364,64.684C210.592,64.224 210.916,63.87 211.336,63.622C211.756,63.374 212.242,63.25 212.794,63.25C213.346,63.25 213.834,63.374 214.258,63.622C214.682,63.87 215.008,64.224 215.236,64.684C215.464,65.144 215.578,65.678 215.578,66.286C215.578,66.894 215.464,67.428 215.236,67.888C215.008,68.348 214.682,68.702 214.258,68.95C213.834,69.198 213.346,69.322 212.794,69.322C212.242,69.322 211.756,69.198 211.336,68.95ZM214.12,67.948C214.428,67.568 214.582,67.014 214.582,66.286C214.582,65.574 214.426,65.024 214.114,64.636C213.802,64.248 213.362,64.054 212.794,64.054C212.226,64.054 211.786,64.248 211.474,64.636C211.162,65.024 211.006,65.574 211.006,66.286C211.006,67.006 211.16,67.558 211.468,67.942C211.776,68.326 212.218,68.518 212.794,68.518C213.37,68.518 213.812,68.328 214.12,67.948Z" style="fill-rule:nonzero;"/>
                <path d="M218.638,61.948C218.422,62.184 218.314,62.538 218.314,63.01L218.314,63.394L219.646,63.394C219.782,63.394 219.886,63.43 219.958,63.502C220.03,63.574 220.066,63.67 220.066,63.79C220.066,63.91 220.03,64.002 219.958,64.066C219.886,64.13 219.782,64.162 219.646,64.162L218.314,64.162L218.314,68.818C218.314,68.97 218.268,69.088 218.176,69.172C218.084,69.256 217.97,69.298 217.834,69.298C217.69,69.298 217.572,69.256 217.48,69.172C217.388,69.088 217.342,68.97 217.342,68.818L217.342,64.162L216.538,64.162C216.402,64.162 216.296,64.128 216.22,64.06C216.144,63.992 216.106,63.902 216.106,63.79C216.106,63.67 216.144,63.574 216.22,63.502C216.296,63.43 216.402,63.394 216.538,63.394L217.342,63.394L217.342,63.178C217.342,62.458 217.522,61.892 217.882,61.48C218.242,61.068 218.758,60.838 219.43,60.79L219.742,60.766C219.95,60.75 220.1,60.77 220.192,60.826C220.284,60.882 220.33,60.982 220.33,61.126C220.33,61.358 220.19,61.49 219.91,61.522L219.598,61.546C219.174,61.578 218.854,61.712 218.638,61.948Z" style="fill-rule:nonzero;"/>
                <path d="M224.968,69.19C224.636,69.102 224.342,68.978 224.086,68.818C223.942,68.722 223.84,68.632 223.78,68.548C223.72,68.464 223.69,68.362 223.69,68.242C223.69,68.138 223.72,68.052 223.78,67.984C223.84,67.916 223.918,67.882 224.014,67.882C224.11,67.882 224.25,67.942 224.434,68.062C224.674,68.206 224.912,68.32 225.148,68.404C225.384,68.488 225.678,68.53 226.03,68.53C226.462,68.53 226.798,68.454 227.038,68.302C227.278,68.15 227.398,67.93 227.398,67.642C227.398,67.466 227.354,67.324 227.266,67.216C227.178,67.108 227.026,67.012 226.81,66.928C226.594,66.844 226.278,66.758 225.862,66.67C225.158,66.518 224.654,66.314 224.35,66.058C224.046,65.802 223.894,65.454 223.894,65.014C223.894,64.67 223.99,64.366 224.182,64.102C224.374,63.838 224.64,63.63 224.98,63.478C225.32,63.326 225.706,63.25 226.138,63.25C226.45,63.25 226.752,63.292 227.044,63.376C227.336,63.46 227.594,63.578 227.818,63.73C228.09,63.922 228.226,64.122 228.226,64.33C228.226,64.434 228.194,64.522 228.13,64.594C228.066,64.666 227.99,64.702 227.902,64.702C227.806,64.702 227.662,64.634 227.47,64.498C227.246,64.354 227.034,64.242 226.834,64.162C226.634,64.082 226.386,64.042 226.09,64.042C225.714,64.042 225.412,64.126 225.184,64.294C224.956,64.462 224.842,64.686 224.842,64.966C224.842,65.142 224.884,65.284 224.968,65.392C225.052,65.5 225.192,65.596 225.388,65.68C225.584,65.764 225.866,65.846 226.234,65.926C226.778,66.046 227.2,66.178 227.5,66.322C227.8,66.466 228.014,66.642 228.142,66.85C228.27,67.058 228.334,67.322 228.334,67.642C228.334,68.146 228.122,68.552 227.698,68.86C227.274,69.168 226.714,69.322 226.018,69.322C225.65,69.322 225.3,69.278 224.968,69.19Z" style="fill-rule:nonzero;"/>
                <path d="M234.394,65.554L234.394,68.818C234.394,68.962 234.352,69.078 234.268,69.166C234.184,69.254 234.07,69.298 233.926,69.298C233.782,69.298 233.666,69.254 233.578,69.166C233.49,69.078 233.446,68.962 233.446,68.818L233.446,68.242C233.294,68.586 233.062,68.852 232.75,69.04C232.438,69.228 232.078,69.322 231.67,69.322C231.294,69.322 230.948,69.246 230.632,69.094C230.316,68.942 230.066,68.73 229.882,68.458C229.698,68.186 229.606,67.886 229.606,67.558C229.606,67.118 229.718,66.776 229.942,66.532C230.166,66.288 230.534,66.112 231.046,66.004C231.558,65.896 232.27,65.842 233.182,65.842L233.446,65.842L233.446,65.446C233.446,64.966 233.348,64.614 233.152,64.39C232.956,64.166 232.638,64.054 232.198,64.054C231.654,64.054 231.102,64.202 230.542,64.498C230.326,64.634 230.174,64.702 230.086,64.702C229.99,64.702 229.91,64.666 229.846,64.594C229.782,64.522 229.75,64.43 229.75,64.318C229.75,64.206 229.784,64.108 229.852,64.024C229.92,63.94 230.03,63.854 230.182,63.766C230.462,63.606 230.78,63.48 231.136,63.388C231.492,63.296 231.846,63.25 232.198,63.25C233.662,63.25 234.394,64.018 234.394,65.554ZM232.984,68.068C233.292,67.744 233.446,67.326 233.446,66.814L233.446,66.466L233.23,66.466C232.526,66.466 231.99,66.496 231.622,66.556C231.254,66.616 230.992,66.716 230.836,66.856C230.68,66.996 230.602,67.202 230.602,67.474C230.602,67.786 230.716,68.044 230.944,68.248C231.172,68.452 231.458,68.554 231.802,68.554C232.282,68.554 232.676,68.392 232.984,68.068Z" style="fill-rule:nonzero;"/>
                <path d="M236.308,69.172C236.216,69.088 236.17,68.97 236.17,68.818L236.17,61.198C236.17,61.046 236.216,60.928 236.308,60.844C236.4,60.76 236.518,60.718 236.662,60.718C236.798,60.718 236.912,60.76 237.004,60.844C237.096,60.928 237.142,61.046 237.142,61.198L237.142,68.818C237.142,68.97 237.096,69.088 237.004,69.172C236.912,69.256 236.798,69.298 236.662,69.298C236.518,69.298 236.4,69.256 236.308,69.172Z" style="fill-rule:nonzero;"/>
                <path d="M243.706,67.99C243.77,68.062 243.802,68.154 243.802,68.266C243.802,68.466 243.662,68.65 243.382,68.818C243.094,68.986 242.79,69.112 242.47,69.196C242.15,69.28 241.838,69.322 241.534,69.322C240.63,69.322 239.916,69.054 239.392,68.518C238.868,67.982 238.606,67.242 238.606,66.298C238.606,65.698 238.722,65.168 238.954,64.708C239.186,64.248 239.512,63.89 239.932,63.634C240.352,63.378 240.83,63.25 241.366,63.25C242.126,63.25 242.73,63.498 243.178,63.994C243.626,64.49 243.85,65.162 243.85,66.01C243.85,66.17 243.818,66.286 243.754,66.358C243.69,66.43 243.586,66.466 243.442,66.466L239.578,66.466C239.65,67.842 240.302,68.53 241.534,68.53C241.846,68.53 242.114,68.488 242.338,68.404C242.562,68.32 242.802,68.206 243.058,68.062C243.266,67.942 243.406,67.882 243.478,67.882C243.566,67.882 243.642,67.918 243.706,67.99ZM240.148,64.486C239.84,64.806 239.658,65.258 239.602,65.842L242.998,65.842C242.982,65.25 242.834,64.796 242.554,64.48C242.274,64.164 241.882,64.006 241.378,64.006C240.866,64.006 240.456,64.166 240.148,64.486Z" style="fill-rule:nonzero;"/>
                <path d="M251.494,68.914C251.494,69.05 251.444,69.152 251.344,69.22C251.244,69.288 251.094,69.314 250.894,69.298L250.57,69.274C249.93,69.226 249.458,69.034 249.154,68.698C248.85,68.362 248.698,67.854 248.698,67.174L248.698,64.162L247.894,64.162C247.758,64.162 247.652,64.128 247.576,64.06C247.5,63.992 247.462,63.902 247.462,63.79C247.462,63.67 247.5,63.574 247.576,63.502C247.652,63.43 247.758,63.394 247.894,63.394L248.698,63.394L248.698,62.038C248.698,61.886 248.742,61.768 248.83,61.684C248.918,61.6 249.038,61.558 249.19,61.558C249.334,61.558 249.45,61.6 249.538,61.684C249.626,61.768 249.67,61.886 249.67,62.038L249.67,63.394L251.002,63.394C251.13,63.394 251.232,63.43 251.308,63.502C251.384,63.574 251.422,63.67 251.422,63.79C251.422,63.902 251.384,63.992 251.308,64.06C251.232,64.128 251.13,64.162 251.002,64.162L249.67,64.162L249.67,67.222C249.67,67.662 249.76,67.98 249.94,68.176C250.12,68.372 250.39,68.482 250.75,68.506L251.074,68.53C251.354,68.554 251.494,68.682 251.494,68.914Z" style="fill-rule:nonzero;"/>
                <path d="M257.206,67.99C257.27,68.062 257.302,68.154 257.302,68.266C257.302,68.466 257.162,68.65 256.882,68.818C256.594,68.986 256.29,69.112 255.97,69.196C255.65,69.28 255.338,69.322 255.034,69.322C254.13,69.322 253.416,69.054 252.892,68.518C252.368,67.982 252.106,67.242 252.106,66.298C252.106,65.698 252.222,65.168 252.454,64.708C252.686,64.248 253.012,63.89 253.432,63.634C253.852,63.378 254.33,63.25 254.866,63.25C255.626,63.25 256.23,63.498 256.678,63.994C257.126,64.49 257.35,65.162 257.35,66.01C257.35,66.17 257.318,66.286 257.254,66.358C257.19,66.43 257.086,66.466 256.942,66.466L253.078,66.466C253.15,67.842 253.802,68.53 255.034,68.53C255.346,68.53 255.614,68.488 255.838,68.404C256.062,68.32 256.302,68.206 256.558,68.062C256.766,67.942 256.906,67.882 256.978,67.882C257.066,67.882 257.142,67.918 257.206,67.99ZM253.648,64.486C253.34,64.806 253.158,65.258 253.102,65.842L256.498,65.842C256.482,65.25 256.334,64.796 256.054,64.48C255.774,64.164 255.382,64.006 254.878,64.006C254.366,64.006 253.956,64.166 253.648,64.486Z" style="fill-rule:nonzero;"/>
                <path d="M262.174,63.682C262.174,63.81 262.138,63.912 262.066,63.988C261.994,64.064 261.87,64.11 261.694,64.126L261.334,64.162C260.798,64.21 260.4,64.4 260.14,64.732C259.88,65.064 259.75,65.454 259.75,65.902L259.75,68.818C259.75,68.978 259.706,69.098 259.618,69.178C259.53,69.258 259.414,69.298 259.27,69.298C259.126,69.298 259.008,69.256 258.916,69.172C258.824,69.088 258.778,68.97 258.778,68.818L258.778,63.754C258.778,63.602 258.826,63.484 258.922,63.4C259.018,63.316 259.134,63.274 259.27,63.274C259.398,63.274 259.506,63.316 259.594,63.4C259.682,63.484 259.726,63.598 259.726,63.742L259.726,64.414C259.894,64.062 260.132,63.794 260.44,63.61C260.748,63.426 261.102,63.318 261.502,63.286L261.67,63.274C262.006,63.25 262.174,63.386 262.174,63.682Z" style="fill-rule:nonzero;"/>
                <path d="M271.462,65.566L271.462,68.818C271.462,68.97 271.418,69.088 271.33,69.172C271.242,69.256 271.126,69.298 270.982,69.298C270.838,69.298 270.72,69.256 270.628,69.172C270.536,69.088 270.49,68.97 270.49,68.818L270.49,65.59C270.49,65.054 270.394,64.666 270.202,64.426C270.01,64.186 269.71,64.066 269.302,64.066C268.814,64.066 268.43,64.23 268.15,64.558C267.87,64.886 267.73,65.33 267.73,65.89L267.73,68.818C267.73,68.97 267.684,69.088 267.592,69.172C267.5,69.256 267.382,69.298 267.238,69.298C267.094,69.298 266.978,69.256 266.89,69.172C266.802,69.088 266.758,68.97 266.758,68.818L266.758,65.59C266.758,65.054 266.662,64.666 266.47,64.426C266.278,64.186 265.974,64.066 265.558,64.066C265.078,64.066 264.696,64.23 264.412,64.558C264.128,64.886 263.986,65.33 263.986,65.89L263.986,68.818C263.986,68.97 263.942,69.088 263.854,69.172C263.766,69.256 263.65,69.298 263.506,69.298C263.362,69.298 263.244,69.256 263.152,69.172C263.06,69.088 263.014,68.97 263.014,68.818L263.014,63.754C263.014,63.61 263.06,63.494 263.152,63.406C263.244,63.318 263.362,63.274 263.506,63.274C263.642,63.274 263.754,63.316 263.842,63.4C263.93,63.484 263.974,63.598 263.974,63.742L263.974,64.318C264.15,63.974 264.394,63.71 264.706,63.526C265.018,63.342 265.378,63.25 265.786,63.25C266.698,63.25 267.294,63.634 267.574,64.402C267.742,64.05 267.998,63.77 268.342,63.562C268.686,63.354 269.078,63.25 269.518,63.25C270.814,63.25 271.462,64.022 271.462,65.566Z" style="fill-rule:nonzero;"/>
                <path d="M273.376,69.172C273.284,69.088 273.238,68.97 273.238,68.818L273.238,63.754C273.238,63.602 273.284,63.484 273.376,63.4C273.468,63.316 273.586,63.274 273.73,63.274C273.874,63.274 273.99,63.316 274.078,63.4C274.166,63.484 274.21,63.602 274.21,63.754L274.21,68.818C274.21,68.978 274.166,69.098 274.078,69.178C273.99,69.258 273.874,69.298 273.73,69.298C273.586,69.298 273.468,69.256 273.376,69.172ZM273.262,61.846C273.142,61.734 273.082,61.586 273.082,61.402C273.082,61.226 273.142,61.082 273.262,60.97C273.382,60.858 273.538,60.802 273.73,60.802C273.922,60.802 274.078,60.858 274.198,60.97C274.318,61.082 274.378,61.226 274.378,61.402C274.378,61.586 274.318,61.734 274.198,61.846C274.078,61.958 273.922,62.014 273.73,62.014C273.538,62.014 273.382,61.958 273.262,61.846Z" style="fill-rule:nonzero;"/>
                <path d="M281.062,65.566L281.062,68.818C281.062,68.97 281.02,69.088 280.936,69.172C280.852,69.256 280.734,69.298 280.582,69.298C280.43,69.298 280.31,69.256 280.222,69.172C280.134,69.088 280.09,68.97 280.09,68.818L280.09,65.626C280.09,65.082 279.984,64.686 279.772,64.438C279.56,64.19 279.222,64.066 278.758,64.066C278.222,64.066 277.794,64.23 277.474,64.558C277.154,64.886 276.994,65.33 276.994,65.89L276.994,68.818C276.994,68.97 276.952,69.088 276.868,69.172C276.784,69.256 276.666,69.298 276.514,69.298C276.362,69.298 276.242,69.256 276.154,69.172C276.066,69.088 276.022,68.97 276.022,68.818L276.022,63.754C276.022,63.61 276.066,63.494 276.154,63.406C276.242,63.318 276.362,63.274 276.514,63.274C276.658,63.274 276.772,63.318 276.856,63.406C276.94,63.494 276.982,63.606 276.982,63.742L276.982,64.354C277.174,63.994 277.442,63.72 277.786,63.532C278.13,63.344 278.522,63.25 278.962,63.25C280.362,63.25 281.062,64.022 281.062,65.566Z" style="fill-rule:nonzero;"/>
                <path d="M287.422,65.554L287.422,68.818C287.422,68.962 287.38,69.078 287.296,69.166C287.212,69.254 287.098,69.298 286.954,69.298C286.81,69.298 286.694,69.254 286.606,69.166C286.518,69.078 286.474,68.962 286.474,68.818L286.474,68.242C286.322,68.586 286.09,68.852 285.778,69.04C285.466,69.228 285.106,69.322 284.698,69.322C284.322,69.322 283.976,69.246 283.66,69.094C283.344,68.942 283.094,68.73 282.91,68.458C282.726,68.186 282.634,67.886 282.634,67.558C282.634,67.118 282.746,66.776 282.97,66.532C283.194,66.288 283.562,66.112 284.074,66.004C284.586,65.896 285.298,65.842 286.21,65.842L286.474,65.842L286.474,65.446C286.474,64.966 286.376,64.614 286.18,64.39C285.984,64.166 285.666,64.054 285.226,64.054C284.682,64.054 284.13,64.202 283.57,64.498C283.354,64.634 283.202,64.702 283.114,64.702C283.018,64.702 282.938,64.666 282.874,64.594C282.81,64.522 282.778,64.43 282.778,64.318C282.778,64.206 282.812,64.108 282.88,64.024C282.948,63.94 283.058,63.854 283.21,63.766C283.49,63.606 283.808,63.48 284.164,63.388C284.52,63.296 284.874,63.25 285.226,63.25C286.69,63.25 287.422,64.018 287.422,65.554ZM286.012,68.068C286.32,67.744 286.474,67.326 286.474,66.814L286.474,66.466L286.258,66.466C285.554,66.466 285.018,66.496 284.65,66.556C284.282,66.616 284.02,66.716 283.864,66.856C283.708,66.996 283.63,67.202 283.63,67.474C283.63,67.786 283.744,68.044 283.972,68.248C284.2,68.452 284.486,68.554 284.83,68.554C285.31,68.554 285.704,68.392 286.012,68.068Z" style="fill-rule:nonzero;"/>
                <path d="M289.336,69.172C289.244,69.088 289.198,68.97 289.198,68.818L289.198,61.198C289.198,61.046 289.244,60.928 289.336,60.844C289.428,60.76 289.546,60.718 289.69,60.718C289.826,60.718 289.94,60.76 290.032,60.844C290.124,60.928 290.17,61.046 290.17,61.198L290.17,68.818C290.17,68.97 290.124,69.088 290.032,69.172C289.94,69.256 289.826,69.298 289.69,69.298C289.546,69.298 289.428,69.256 289.336,69.172Z" style="fill-rule:nonzero;"/>
            </g>
        </g>
    </g>
</svg>
