<?xml version="1.0" encoding="UTF-8" standalone="no"?>
<!DOCTYPE svg PUBLIC "-//W3C//DTD SVG 1.1//EN" "http://www.w3.org/Graphics/SVG/1.1/DTD/svg11.dtd">
<svg width="100%" height="100%" viewBox="0 0 47 24" version="1.1" xmlns="http://www.w3.org/2000/svg" xmlns:xlink="http://www.w3.org/1999/xlink" xml:space="preserve" xmlns:serif="http://www.serif.com/" style="fill-rule:evenodd;clip-rule:evenodd;stroke-linejoin:round;stroke-miterlimit:1.41421;">
    <g transform="matrix(1,0,0,1,-762,-554)">
        <g transform="matrix(1,0,0,1,0,74.5)">
            <g transform="matrix(1,0,0,1,-36.9508,54.9751)">
                <path d="M810.532,425.593C810.612,425.541 810.7,425.515 810.796,425.515C810.924,425.515 811.034,425.553 811.126,425.629C811.218,425.705 811.264,425.807 811.264,425.935C811.264,425.991 811.252,426.055 811.228,426.127L808.516,433.771C808.476,433.883 808.408,433.969 808.312,434.029C808.216,434.089 808.108,434.119 807.988,434.119C807.876,434.119 807.772,434.089 807.676,434.029C807.58,433.969 807.512,433.883 807.472,433.771L805.12,427.123L802.744,433.771C802.704,433.883 802.636,433.969 802.54,434.029C802.444,434.089 802.34,434.119 802.228,434.119C802.116,434.119 802.012,434.089 801.916,434.029C801.82,433.969 801.752,433.883 801.712,433.771L798.988,426.127C798.964,426.063 798.952,426.003 798.952,425.947C798.952,425.819 799.002,425.715 799.102,425.635C799.202,425.555 799.316,425.515 799.444,425.515C799.54,425.515 799.63,425.541 799.714,425.593C799.798,425.645 799.856,425.723 799.888,425.827L802.252,432.643L804.652,425.899C804.692,425.779 804.756,425.689 804.844,425.629C804.932,425.569 805.028,425.539 805.132,425.539C805.236,425.539 805.332,425.571 805.42,425.635C805.508,425.699 805.572,425.791 805.612,425.911L807.976,432.667L810.364,425.827C810.396,425.723 810.452,425.645 810.532,425.593Z" style="fill-rule:nonzero;"/>
                <path d="M812.758,433.981C812.666,433.897 812.62,433.779 812.62,433.627L812.62,428.563C812.62,428.411 812.666,428.293 812.758,428.209C812.85,428.125 812.968,428.083 813.112,428.083C813.256,428.083 813.372,428.125 813.46,428.209C813.548,428.293 813.592,428.411 813.592,428.563L813.592,433.627C813.592,433.787 813.548,433.907 813.46,433.987C813.372,434.067 813.256,434.107 813.112,434.107C812.968,434.107 812.85,434.065 812.758,433.981ZM812.644,426.655C812.524,426.543 812.464,426.395 812.464,426.211C812.464,426.035 812.524,425.891 812.644,425.779C812.764,425.667 812.92,425.611 813.112,425.611C813.304,425.611 813.46,425.667 813.58,425.779C813.7,425.891 813.76,426.035 813.76,426.211C813.76,426.395 813.7,426.543 813.58,426.655C813.46,426.767 813.304,426.823 813.112,426.823C812.92,426.823 812.764,426.767 812.644,426.655Z" style="fill-rule:nonzero;"/>
                <path d="M818.8,428.491C818.8,428.619 818.764,428.721 818.692,428.797C818.62,428.873 818.496,428.919 818.32,428.935L817.96,428.971C817.424,429.019 817.026,429.209 816.766,429.541C816.506,429.873 816.376,430.263 816.376,430.711L816.376,433.627C816.376,433.787 816.332,433.907 816.244,433.987C816.156,434.067 816.04,434.107 815.896,434.107C815.752,434.107 815.634,434.065 815.542,433.981C815.45,433.897 815.404,433.779 815.404,433.627L815.404,428.563C815.404,428.411 815.452,428.293 815.548,428.209C815.644,428.125 815.76,428.083 815.896,428.083C816.024,428.083 816.132,428.125 816.22,428.209C816.308,428.293 816.352,428.407 816.352,428.551L816.352,429.223C816.52,428.871 816.758,428.603 817.066,428.419C817.374,428.235 817.728,428.127 818.128,428.095L818.296,428.083C818.632,428.059 818.8,428.195 818.8,428.491Z" style="fill-rule:nonzero;"/>
                <path d="M824.272,432.799C824.336,432.871 824.368,432.963 824.368,433.075C824.368,433.275 824.228,433.459 823.948,433.627C823.66,433.795 823.356,433.921 823.036,434.005C822.716,434.089 822.404,434.131 822.1,434.131C821.196,434.131 820.482,433.863 819.958,433.327C819.434,432.791 819.172,432.051 819.172,431.107C819.172,430.507 819.288,429.977 819.52,429.517C819.752,429.057 820.078,428.699 820.498,428.443C820.918,428.187 821.396,428.059 821.932,428.059C822.692,428.059 823.296,428.307 823.744,428.803C824.192,429.299 824.416,429.971 824.416,430.819C824.416,430.979 824.384,431.095 824.32,431.167C824.256,431.239 824.152,431.275 824.008,431.275L820.144,431.275C820.216,432.651 820.868,433.339 822.1,433.339C822.412,433.339 822.68,433.297 822.904,433.213C823.128,433.129 823.368,433.015 823.624,432.871C823.832,432.751 823.972,432.691 824.044,432.691C824.132,432.691 824.208,432.727 824.272,432.799ZM820.714,429.295C820.406,429.615 820.224,430.067 820.168,430.651L823.564,430.651C823.548,430.059 823.4,429.605 823.12,429.289C822.84,428.973 822.448,428.815 821.944,428.815C821.432,428.815 821.022,428.975 820.714,429.295Z" style="fill-rule:nonzero;"/>
                <path d="M825.982,433.981C825.89,433.897 825.844,433.779 825.844,433.627L825.844,426.007C825.844,425.855 825.89,425.737 825.982,425.653C826.074,425.569 826.192,425.527 826.336,425.527C826.472,425.527 826.586,425.569 826.678,425.653C826.77,425.737 826.816,425.855 826.816,426.007L826.816,433.627C826.816,433.779 826.77,433.897 826.678,433.981C826.586,434.065 826.472,434.107 826.336,434.107C826.192,434.107 826.074,434.065 825.982,433.981Z" style="fill-rule:nonzero;"/>
                <path d="M833.38,432.799C833.444,432.871 833.476,432.963 833.476,433.075C833.476,433.275 833.336,433.459 833.056,433.627C832.768,433.795 832.464,433.921 832.144,434.005C831.824,434.089 831.512,434.131 831.208,434.131C830.304,434.131 829.59,433.863 829.066,433.327C828.542,432.791 828.28,432.051 828.28,431.107C828.28,430.507 828.396,429.977 828.628,429.517C828.86,429.057 829.186,428.699 829.606,428.443C830.026,428.187 830.504,428.059 831.04,428.059C831.8,428.059 832.404,428.307 832.852,428.803C833.3,429.299 833.524,429.971 833.524,430.819C833.524,430.979 833.492,431.095 833.428,431.167C833.364,431.239 833.26,431.275 833.116,431.275L829.252,431.275C829.324,432.651 829.976,433.339 831.208,433.339C831.52,433.339 831.788,433.297 832.012,433.213C832.236,433.129 832.476,433.015 832.732,432.871C832.94,432.751 833.08,432.691 833.152,432.691C833.24,432.691 833.316,432.727 833.38,432.799ZM829.822,429.295C829.514,429.615 829.332,430.067 829.276,430.651L832.672,430.651C832.656,430.059 832.508,429.605 832.228,429.289C831.948,428.973 831.556,428.815 831.052,428.815C830.54,428.815 830.13,428.975 829.822,429.295Z" style="fill-rule:nonzero;"/>
                <path d="M835.87,433.999C835.538,433.911 835.244,433.787 834.988,433.627C834.844,433.531 834.742,433.441 834.682,433.357C834.622,433.273 834.592,433.171 834.592,433.051C834.592,432.947 834.622,432.861 834.682,432.793C834.742,432.725 834.82,432.691 834.916,432.691C835.012,432.691 835.152,432.751 835.336,432.871C835.576,433.015 835.814,433.129 836.05,433.213C836.286,433.297 836.58,433.339 836.932,433.339C837.364,433.339 837.7,433.263 837.94,433.111C838.18,432.959 838.3,432.739 838.3,432.451C838.3,432.275 838.256,432.133 838.168,432.025C838.08,431.917 837.928,431.821 837.712,431.737C837.496,431.653 837.18,431.567 836.764,431.479C836.06,431.327 835.556,431.123 835.252,430.867C834.948,430.611 834.796,430.263 834.796,429.823C834.796,429.479 834.892,429.175 835.084,428.911C835.276,428.647 835.542,428.439 835.882,428.287C836.222,428.135 836.608,428.059 837.04,428.059C837.352,428.059 837.654,428.101 837.946,428.185C838.238,428.269 838.496,428.387 838.72,428.539C838.992,428.731 839.128,428.931 839.128,429.139C839.128,429.243 839.096,429.331 839.032,429.403C838.968,429.475 838.892,429.511 838.804,429.511C838.708,429.511 838.564,429.443 838.372,429.307C838.148,429.163 837.936,429.051 837.736,428.971C837.536,428.891 837.288,428.851 836.992,428.851C836.616,428.851 836.314,428.935 836.086,429.103C835.858,429.271 835.744,429.495 835.744,429.775C835.744,429.951 835.786,430.093 835.87,430.201C835.954,430.309 836.094,430.405 836.29,430.489C836.486,430.573 836.768,430.655 837.136,430.735C837.68,430.855 838.102,430.987 838.402,431.131C838.702,431.275 838.916,431.451 839.044,431.659C839.172,431.867 839.236,432.131 839.236,432.451C839.236,432.955 839.024,433.361 838.6,433.669C838.176,433.977 837.616,434.131 836.92,434.131C836.552,434.131 836.202,434.087 835.87,433.999Z" style="fill-rule:nonzero;"/>
                <path d="M841.63,433.999C841.298,433.911 841.004,433.787 840.748,433.627C840.604,433.531 840.502,433.441 840.442,433.357C840.382,433.273 840.352,433.171 840.352,433.051C840.352,432.947 840.382,432.861 840.442,432.793C840.502,432.725 840.58,432.691 840.676,432.691C840.772,432.691 840.912,432.751 841.096,432.871C841.336,433.015 841.574,433.129 841.81,433.213C842.046,433.297 842.34,433.339 842.692,433.339C843.124,433.339 843.46,433.263 843.7,433.111C843.94,432.959 844.06,432.739 844.06,432.451C844.06,432.275 844.016,432.133 843.928,432.025C843.84,431.917 843.688,431.821 843.472,431.737C843.256,431.653 842.94,431.567 842.524,431.479C841.82,431.327 841.316,431.123 841.012,430.867C840.708,430.611 840.556,430.263 840.556,429.823C840.556,429.479 840.652,429.175 840.844,428.911C841.036,428.647 841.302,428.439 841.642,428.287C841.982,428.135 842.368,428.059 842.8,428.059C843.112,428.059 843.414,428.101 843.706,428.185C843.998,428.269 844.256,428.387 844.48,428.539C844.752,428.731 844.888,428.931 844.888,429.139C844.888,429.243 844.856,429.331 844.792,429.403C844.728,429.475 844.652,429.511 844.564,429.511C844.468,429.511 844.324,429.443 844.132,429.307C843.908,429.163 843.696,429.051 843.496,428.971C843.296,428.891 843.048,428.851 842.752,428.851C842.376,428.851 842.074,428.935 841.846,429.103C841.618,429.271 841.504,429.495 841.504,429.775C841.504,429.951 841.546,430.093 841.63,430.201C841.714,430.309 841.854,430.405 842.05,430.489C842.246,430.573 842.528,430.655 842.896,430.735C843.44,430.855 843.862,430.987 844.162,431.131C844.462,431.275 844.676,431.451 844.804,431.659C844.932,431.867 844.996,432.131 844.996,432.451C844.996,432.955 844.784,433.361 844.36,433.669C843.936,433.977 843.376,434.131 842.68,434.131C842.312,434.131 841.962,434.087 841.63,433.999Z" style="fill-rule:nonzero;"/>
                <path d="M803.278,445.981C803.186,445.897 803.14,445.779 803.14,445.627L803.14,438.007C803.14,437.855 803.186,437.737 803.278,437.653C803.37,437.569 803.488,437.527 803.632,437.527C803.768,437.527 803.882,437.569 803.974,437.653C804.066,437.737 804.112,437.855 804.112,438.007L804.112,445.627C804.112,445.779 804.066,445.897 803.974,445.981C803.882,446.065 803.768,446.107 803.632,446.107C803.488,446.107 803.37,446.065 803.278,445.981Z" style="fill-rule:nonzero;"/>
                <path d="M810.508,442.363L810.508,445.627C810.508,445.771 810.466,445.887 810.382,445.975C810.298,446.063 810.184,446.107 810.04,446.107C809.896,446.107 809.78,446.063 809.692,445.975C809.604,445.887 809.56,445.771 809.56,445.627L809.56,445.051C809.408,445.395 809.176,445.661 808.864,445.849C808.552,446.037 808.192,446.131 807.784,446.131C807.408,446.131 807.062,446.055 806.746,445.903C806.43,445.751 806.18,445.539 805.996,445.267C805.812,444.995 805.72,444.695 805.72,444.367C805.72,443.927 805.832,443.585 806.056,443.341C806.28,443.097 806.648,442.921 807.16,442.813C807.672,442.705 808.384,442.651 809.296,442.651L809.56,442.651L809.56,442.255C809.56,441.775 809.462,441.423 809.266,441.199C809.07,440.975 808.752,440.863 808.312,440.863C807.768,440.863 807.216,441.011 806.656,441.307C806.44,441.443 806.288,441.511 806.2,441.511C806.104,441.511 806.024,441.475 805.96,441.403C805.896,441.331 805.864,441.239 805.864,441.127C805.864,441.015 805.898,440.917 805.966,440.833C806.034,440.749 806.144,440.663 806.296,440.575C806.576,440.415 806.894,440.289 807.25,440.197C807.606,440.105 807.96,440.059 808.312,440.059C809.776,440.059 810.508,440.827 810.508,442.363ZM809.098,444.877C809.406,444.553 809.56,444.135 809.56,443.623L809.56,443.275L809.344,443.275C808.64,443.275 808.104,443.305 807.736,443.365C807.368,443.425 807.106,443.525 806.95,443.665C806.794,443.805 806.716,444.011 806.716,444.283C806.716,444.595 806.83,444.853 807.058,445.057C807.286,445.261 807.572,445.363 807.916,445.363C808.396,445.363 808.79,445.201 809.098,444.877Z" style="fill-rule:nonzero;"/>
                <path d="M816.58,440.443C816.972,440.699 817.276,441.057 817.492,441.517C817.708,441.977 817.816,442.511 817.816,443.119C817.816,443.727 817.708,444.257 817.492,444.709C817.276,445.161 816.974,445.511 816.586,445.759C816.198,446.007 815.744,446.131 815.224,446.131C814.768,446.131 814.37,446.031 814.03,445.831C813.69,445.631 813.432,445.347 813.256,444.979L813.256,447.799C813.256,447.943 813.214,448.057 813.13,448.141C813.046,448.225 812.928,448.267 812.776,448.267C812.624,448.267 812.504,448.223 812.416,448.135C812.328,448.047 812.284,447.935 812.284,447.799L812.284,440.563C812.284,440.419 812.328,440.303 812.416,440.215C812.504,440.127 812.624,440.083 812.776,440.083C812.928,440.083 813.046,440.127 813.13,440.215C813.214,440.303 813.256,440.419 813.256,440.563L813.256,441.211C813.432,440.843 813.69,440.559 814.03,440.359C814.37,440.159 814.768,440.059 815.224,440.059C815.736,440.059 816.188,440.187 816.58,440.443ZM816.352,444.751C816.664,444.367 816.82,443.823 816.82,443.119C816.82,442.415 816.664,441.865 816.352,441.469C816.04,441.073 815.6,440.875 815.032,440.875C814.464,440.875 814.026,441.067 813.718,441.451C813.41,441.835 813.256,442.383 813.256,443.095C813.256,443.807 813.41,444.357 813.718,444.745C814.026,445.133 814.464,445.327 815.032,445.327C815.6,445.327 816.04,445.135 816.352,444.751Z" style="fill-rule:nonzero;"/>
                <path d="M822.376,445.723C822.376,445.859 822.326,445.961 822.226,446.029C822.126,446.097 821.976,446.123 821.776,446.107L821.452,446.083C820.812,446.035 820.34,445.843 820.036,445.507C819.732,445.171 819.58,444.663 819.58,443.983L819.58,440.971L818.776,440.971C818.64,440.971 818.534,440.937 818.458,440.869C818.382,440.801 818.344,440.711 818.344,440.599C818.344,440.479 818.382,440.383 818.458,440.311C818.534,440.239 818.64,440.203 818.776,440.203L819.58,440.203L819.58,438.847C819.58,438.695 819.624,438.577 819.712,438.493C819.8,438.409 819.92,438.367 820.072,438.367C820.216,438.367 820.332,438.409 820.42,438.493C820.508,438.577 820.552,438.695 820.552,438.847L820.552,440.203L821.884,440.203C822.012,440.203 822.114,440.239 822.19,440.311C822.266,440.383 822.304,440.479 822.304,440.599C822.304,440.711 822.266,440.801 822.19,440.869C822.114,440.937 822.012,440.971 821.884,440.971L820.552,440.971L820.552,444.031C820.552,444.471 820.642,444.789 820.822,444.985C821.002,445.181 821.272,445.291 821.632,445.315L821.956,445.339C822.236,445.363 822.376,445.491 822.376,445.723Z" style="fill-rule:nonzero;"/>
                <path d="M824.302,445.759C823.882,445.511 823.558,445.157 823.33,444.697C823.102,444.237 822.988,443.703 822.988,443.095C822.988,442.487 823.102,441.953 823.33,441.493C823.558,441.033 823.882,440.679 824.302,440.431C824.722,440.183 825.208,440.059 825.76,440.059C826.312,440.059 826.8,440.183 827.224,440.431C827.648,440.679 827.974,441.033 828.202,441.493C828.43,441.953 828.544,442.487 828.544,443.095C828.544,443.703 828.43,444.237 828.202,444.697C827.974,445.157 827.648,445.511 827.224,445.759C826.8,446.007 826.312,446.131 825.76,446.131C825.208,446.131 824.722,446.007 824.302,445.759ZM827.086,444.757C827.394,444.377 827.548,443.823 827.548,443.095C827.548,442.383 827.392,441.833 827.08,441.445C826.768,441.057 826.328,440.863 825.76,440.863C825.192,440.863 824.752,441.057 824.44,441.445C824.128,441.833 823.972,442.383 823.972,443.095C823.972,443.815 824.126,444.367 824.434,444.751C824.742,445.135 825.184,445.327 825.76,445.327C826.336,445.327 826.778,445.137 827.086,444.757Z" style="fill-rule:nonzero;"/>
                <path d="M834.292,440.443C834.684,440.699 834.988,441.057 835.204,441.517C835.42,441.977 835.528,442.511 835.528,443.119C835.528,443.727 835.42,444.257 835.204,444.709C834.988,445.161 834.686,445.511 834.298,445.759C833.91,446.007 833.456,446.131 832.936,446.131C832.48,446.131 832.082,446.031 831.742,445.831C831.402,445.631 831.144,445.347 830.968,444.979L830.968,447.799C830.968,447.943 830.926,448.057 830.842,448.141C830.758,448.225 830.64,448.267 830.488,448.267C830.336,448.267 830.216,448.223 830.128,448.135C830.04,448.047 829.996,447.935 829.996,447.799L829.996,440.563C829.996,440.419 830.04,440.303 830.128,440.215C830.216,440.127 830.336,440.083 830.488,440.083C830.64,440.083 830.758,440.127 830.842,440.215C830.926,440.303 830.968,440.419 830.968,440.563L830.968,441.211C831.144,440.843 831.402,440.559 831.742,440.359C832.082,440.159 832.48,440.059 832.936,440.059C833.448,440.059 833.9,440.187 834.292,440.443ZM834.064,444.751C834.376,444.367 834.532,443.823 834.532,443.119C834.532,442.415 834.376,441.865 834.064,441.469C833.752,441.073 833.312,440.875 832.744,440.875C832.176,440.875 831.738,441.067 831.43,441.451C831.122,441.835 830.968,442.383 830.968,443.095C830.968,443.807 831.122,444.357 831.43,444.745C831.738,445.133 832.176,445.327 832.744,445.327C833.312,445.327 833.752,445.135 834.064,444.751Z" style="fill-rule:nonzero;"/>
                <path d="M837.898,445.999C837.566,445.911 837.272,445.787 837.016,445.627C836.872,445.531 836.77,445.441 836.71,445.357C836.65,445.273 836.62,445.171 836.62,445.051C836.62,444.947 836.65,444.861 836.71,444.793C836.77,444.725 836.848,444.691 836.944,444.691C837.04,444.691 837.18,444.751 837.364,444.871C837.604,445.015 837.842,445.129 838.078,445.213C838.314,445.297 838.608,445.339 838.96,445.339C839.392,445.339 839.728,445.263 839.968,445.111C840.208,444.959 840.328,444.739 840.328,444.451C840.328,444.275 840.284,444.133 840.196,444.025C840.108,443.917 839.956,443.821 839.74,443.737C839.524,443.653 839.208,443.567 838.792,443.479C838.088,443.327 837.584,443.123 837.28,442.867C836.976,442.611 836.824,442.263 836.824,441.823C836.824,441.479 836.92,441.175 837.112,440.911C837.304,440.647 837.57,440.439 837.91,440.287C838.25,440.135 838.636,440.059 839.068,440.059C839.38,440.059 839.682,440.101 839.974,440.185C840.266,440.269 840.524,440.387 840.748,440.539C841.02,440.731 841.156,440.931 841.156,441.139C841.156,441.243 841.124,441.331 841.06,441.403C840.996,441.475 840.92,441.511 840.832,441.511C840.736,441.511 840.592,441.443 840.4,441.307C840.176,441.163 839.964,441.051 839.764,440.971C839.564,440.891 839.316,440.851 839.02,440.851C838.644,440.851 838.342,440.935 838.114,441.103C837.886,441.271 837.772,441.495 837.772,441.775C837.772,441.951 837.814,442.093 837.898,442.201C837.982,442.309 838.122,442.405 838.318,442.489C838.514,442.573 838.796,442.655 839.164,442.735C839.708,442.855 840.13,442.987 840.43,443.131C840.73,443.275 840.944,443.451 841.072,443.659C841.2,443.867 841.264,444.131 841.264,444.451C841.264,444.955 841.052,445.361 840.628,445.669C840.204,445.977 839.644,446.131 838.948,446.131C838.58,446.131 838.23,446.087 837.898,445.999Z" style="fill-rule:nonzero;"/>
            </g>
        </g>
    </g>
</svg>
