<?xml version="1.0" encoding="UTF-8" standalone="no"?>
<svg width="72px" height="72px" viewBox="0 0 72 72" version="1.1" xmlns="http://www.w3.org/2000/svg" xmlns:xlink="http://www.w3.org/1999/xlink">
    <!-- Generator: Sketch 50 (54983) - http://www.bohemiancoding.com/sketch -->
    <title>SonicWave_432i</title>
    <desc>Created with Sketch.</desc>
    <defs></defs>
    <g id="Page-1" stroke="none" stroke-width="1" fill="none" fill-rule="evenodd">
        <g id="SonicWave_432i" fill="#636569">
            <path d="M35.9573236,5.65632 C19.2035782,5.65632 5.57070545,19.2891927 5.57070545,36.0455564 C5.57070545,52.8045382 19.2035782,66.4374109 35.9573236,66.4374109 C52.7163055,66.4374109 66.3491782,52.8045382 66.3491782,36.0455564 C66.3491782,19.2891927 52.7163055,5.65632 35.9573236,5.65632 M35.9573236,71.9617745 C16.1560145,71.9617745 0.0437236364,55.8494836 0.0437236364,36.0455564 C0.0437236364,16.2442473 16.1560145,0.131956364 35.9573236,0.131956364 C55.7612509,0.131956364 71.87616,16.2442473 71.87616,36.0455564 C71.87616,55.8494836 55.7612509,71.9617745 35.9573236,71.9617745" id="Fill-62"></path>
            <path d="M35.9573236,16.5702109 C25.22016,16.5702109 16.4832873,25.3070836 16.4832873,36.0468655 C16.4832873,46.7866473 25.22016,55.52352 35.9573236,55.52352 C46.6971055,55.52352 55.4339782,46.7866473 55.4339782,36.0468655 C55.4339782,25.3070836 46.6971055,16.5702109 35.9573236,16.5702109 M35.9573236,58.2857018 C23.6963782,58.2857018 13.7184873,48.3104291 13.7184873,36.0468655 C13.7184873,23.7833018 23.6963782,13.8080291 35.9573236,13.8080291 C48.2208873,13.8080291 58.19616,23.7833018 58.19616,36.0468655 C58.19616,48.3104291 48.2208873,58.2857018 35.9573236,58.2857018" id="Fill-65"></path>
            <path d="M26.4101236,58.2579491 C27.6799418,58.2579491 28.7115055,59.2868945 28.7115055,60.5593309 C28.7115055,61.8291491 27.6799418,62.8580945 26.4101236,62.8580945 C25.1429236,62.8580945 24.1087418,61.8291491 24.1087418,60.5593309 C24.1087418,59.2868945 25.1429236,58.2579491 26.4101236,58.2579491 Z M36.07488,59.9835927 C37.34208,59.9835927 38.3762618,61.0125382 38.3762618,62.2849745 C38.3762618,63.5547927 37.34208,64.5837382 36.07488,64.5837382 C34.8050618,64.5837382 33.7734982,63.5547927 33.7734982,62.2849745 C33.7734982,61.0125382 34.8050618,59.9835927 36.07488,59.9835927 Z M45.7396364,58.2579491 C47.0094545,58.2579491 48.0436364,59.2868945 48.0436364,60.5593309 C48.0436364,61.8291491 47.0094545,62.8580945 45.7396364,62.8580945 C44.4724364,62.8580945 43.4382545,61.8291491 43.4382545,60.5593309 C43.4382545,59.2868945 44.4724364,58.2579491 45.7396364,58.2579491 Z M53.9418764,53.0789236 C55.2090764,53.0789236 56.2432582,54.1078691 56.2432582,55.3803055 C56.2432582,56.6501236 55.2090764,57.6816873 53.9418764,57.6816873 C52.6720582,57.6816873 51.6404945,56.6501236 51.6404945,55.3803055 C51.6404945,54.1078691 52.6720582,53.0789236 53.9418764,53.0789236 Z M18.2105018,53.0789236 C19.48032,53.0789236 20.5118836,54.1078691 20.5118836,55.3803055 C20.5118836,56.6501236 19.48032,57.6816873 18.2105018,57.6816873 C16.9406836,57.6816873 15.90912,56.6501236 15.90912,55.3803055 C15.90912,54.1078691 16.9406836,53.0789236 18.2105018,53.0789236 Z" id="Combined-Shape"></path>
        </g>
    </g>
</svg>