<?xml version="1.0" encoding="UTF-8" standalone="no"?>
<svg width="99px" height="98px" viewBox="0 0 99 98" version="1.1" xmlns="http://www.w3.org/2000/svg" xmlns:xlink="http://www.w3.org/1999/xlink">
    <!-- Generator: Sketch 50 (54983) - http://www.bohemiancoding.com/sketch -->
    <title>User_Guest_Wireless</title>
    <desc>Created with Sketch.</desc>
    <defs></defs>
    <g id="Page-1" stroke="none" stroke-width="1" fill="none" fill-rule="evenodd">
        <g id="User_Guest_Wireless">
            <path d="M75.2694508,63.9618321 C75.2694508,63.9618321 75.1366889,68.8582931 70.7535332,68.8582931 L62.5263158,68.8582931 C63.7855427,70.7281066 64.8617191,72.7184236 65.7307063,74.8091603 L74.2898286,74.8091603 C76.8565595,74.8091603 79.2744361,72.3769969 79.2744361,69.7038264 C79.2744361,66.524541 75.2694508,63.9618321 75.2694508,63.9618321" id="Fill-18" fill="#646566"></path>
            <path d="M87.0338915,0 L33.1823972,0 C26.5764003,0 21.2142857,5.73590321 21.2142857,11.9686643 L21.2142857,18.3576951 C23.0891229,17.3980382 25.0921542,16.6587619 27.199343,16.187949 L27.199343,14.7755104 C27.199343,8.79117824 30.1898686,5.94025603 36.1729228,5.94025603 L84.0413629,5.94025603 C90.0244171,5.94025603 93.0169458,8.79117824 93.0169458,14.7755104 L93.0169458,44.8854962 C93.0169458,50.8698283 90.0244171,53.8629961 84.0413629,53.8629961 L54.5146797,53.8629961 C53.5852732,55.4256942 52.5076424,56.9042469 51.259754,58.244561 C52.1170513,58.7414189 52.9402972,59.2843563 53.7455157,59.8473282 L87.0338915,59.8473282 C93.6418915,59.8473282 99,54.4880753 99,47.878664 L99,11.9686643 C99,5.35925291 93.6418915,0 87.0338915,0" id="Fill-20" fill="#646566"></path>
            <path d="M58.1321061,86.5712879 C51.9213594,90.4643433 37.6046898,91.0834653 32.6261074,91.0133382 L32.5741847,91.0133382 L32.5242591,91.0133382 C27.5456767,91.0814616 13.2449832,90.384198 6.96034668,86.4590846 C7.85101967,73.3553369 18.8586195,63.4734281 32.5641996,63.4734281 C46.2817619,63.4734281 57.2893617,73.3633514 58.1700495,86.4771173 C58.1740436,86.5191935 58.1520763,86.5592661 58.1321061,86.5712879 M32.5641996,25.6849446 C41.029587,25.6849446 47.913331,32.5934648 47.913331,41.0848536 C47.913331,49.5762424 41.029587,56.4847626 32.5641996,56.4847626 C24.1008092,56.4847626 17.2170652,49.5762424 17.2170652,41.0848536 C17.2170652,32.5934648 24.1008092,25.6849446 32.5641996,25.6849446 M45.7645325,59.1155303 C51.2843086,55.0361373 54.8729619,48.4742453 54.8729619,41.0848536 C54.8729619,28.7424858 44.8658714,18.7022901 32.5641996,18.7022901 C20.2645248,18.7022901 10.2574344,28.7424858 10.2574344,41.0848536 C10.2574344,48.4742453 13.8460876,55.0381409 19.3678608,59.1155303 C8.52201995,63.663773 0.851448304,73.7199978 0.0166920044,85.9822204 C-0.163040213,88.6270135 1.11904961,91.1235379 3.36170828,92.5020361 C12.4421793,98.0781416 31.2022288,98.0180327 32.5542145,97.9959927 C32.676033,97.9979964 32.9356462,98 33.3150809,98 C37.1893087,98 53.5429434,97.6834263 61.8206106,92.4940216 C64.0273228,91.1095125 65.2894424,88.6250099 65.1157012,86.0102712 L65.1157012,86.0082676 C64.2909301,73.7320195 56.6163644,63.6657767 45.7645325,59.1155303" id="Fill-22" fill="#015E85"></path>
        </g>
    </g>
</svg>