<?xml version="1.0" encoding="UTF-8" standalone="no"?><!DOCTYPE svg PUBLIC "-//W3C//DTD SVG 1.1//EN" "http://www.w3.org/Graphics/SVG/1.1/DTD/svg11.dtd"><svg width="100%" height="100%" viewBox="0 0 237 27" version="1.1" xmlns="http://www.w3.org/2000/svg" xmlns:xlink="http://www.w3.org/1999/xlink" xml:space="preserve" xmlns:serif="http://www.serif.com/" style="fill-rule:evenodd;clip-rule:evenodd;stroke-linecap:round;stroke-miterlimit:10;"><path d="M-73.982,-201.776l382,0c6.627,0 12,5.373 12,12l0,222c0,6.627 -5.373,12 -12,12l-382,0c-6.627,0 -12,-5.373 -12,-12l0,-222c0,-6.627 5.373,-12 12,-12Z" style="fill:none;stroke:#532456;stroke-width:3px;stroke-dasharray:1,5.25;"/><g transform="matrix(1,0,0,1,-245.982,-673.776)"><path d="M276.436,679.741c0.084,-0.224 0.21,-0.392 0.378,-0.504c0.168,-0.112 0.357,-0.168 0.567,-0.168c0.266,0 0.5,0.088 0.703,0.263c0.203,0.174 0.305,0.402 0.305,0.682c0,0.154 -0.028,0.294 -0.084,0.42l-4.641,12.978c-0.098,0.238 -0.252,0.42 -0.462,0.546c-0.21,0.126 -0.441,0.189 -0.693,0.189c-0.238,0 -0.462,-0.063 -0.672,-0.189c-0.21,-0.126 -0.357,-0.308 -0.441,-0.546l-3.822,-10.836l-3.906,10.836c-0.084,0.238 -0.231,0.42 -0.441,0.546c-0.21,0.126 -0.434,0.189 -0.672,0.189c-0.252,0 -0.48,-0.063 -0.683,-0.189c-0.203,-0.126 -0.353,-0.308 -0.451,-0.546l-4.641,-12.978c-0.056,-0.126 -0.084,-0.266 -0.084,-0.42c0,-0.28 0.105,-0.508 0.315,-0.683c0.21,-0.174 0.462,-0.262 0.756,-0.262c0.21,0 0.402,0.056 0.577,0.168c0.175,0.112 0.305,0.28 0.389,0.504l3.885,11.172l3.948,-11.067c0.084,-0.238 0.22,-0.42 0.409,-0.546c0.189,-0.126 0.396,-0.189 0.62,-0.189c0.224,0 0.427,0.066 0.609,0.199c0.182,0.133 0.322,0.319 0.42,0.557l3.864,11.151l3.948,-11.277Z" style="fill:#532456;fill-rule:nonzero;"/><path d="M281.586,694.105c-0.308,0 -0.564,-0.084 -0.767,-0.252c-0.203,-0.168 -0.304,-0.42 -0.304,-0.756l0,-8.526c0,-0.336 0.101,-0.592 0.304,-0.767c0.203,-0.175 0.459,-0.262 0.767,-0.262c0.308,0 0.56,0.087 0.756,0.262c0.196,0.175 0.294,0.431 0.294,0.767l0,8.526c0,0.336 -0.098,0.588 -0.294,0.756c-0.196,0.168 -0.448,0.252 -0.756,0.252Zm0,-12.621c-0.406,0 -0.728,-0.112 -0.966,-0.336c-0.238,-0.224 -0.357,-0.518 -0.357,-0.882c0,-0.364 0.119,-0.655 0.357,-0.872c0.238,-0.217 0.56,-0.325 0.966,-0.325c0.392,0 0.71,0.108 0.955,0.325c0.245,0.217 0.368,0.508 0.368,0.872c0,0.364 -0.119,0.658 -0.357,0.882c-0.238,0.224 -0.56,0.336 -0.966,0.336Z" style="fill:#532456;fill-rule:nonzero;"/><path d="M290.973,683.542c0.672,-0.042 1.008,0.245 1.008,0.861c0,0.308 -0.077,0.539 -0.231,0.693c-0.154,0.154 -0.42,0.245 -0.798,0.273l-0.63,0.063c-0.882,0.084 -1.537,0.392 -1.964,0.924c-0.427,0.532 -0.64,1.176 -0.64,1.932l0,4.809c0,0.336 -0.098,0.588 -0.294,0.756c-0.196,0.168 -0.448,0.252 -0.756,0.252c-0.308,0 -0.564,-0.084 -0.767,-0.252c-0.203,-0.168 -0.304,-0.42 -0.304,-0.756l0,-8.547c0,-0.322 0.101,-0.57 0.304,-0.745c0.203,-0.175 0.459,-0.263 0.767,-0.263c0.28,0 0.514,0.088 0.703,0.263c0.189,0.175 0.284,0.416 0.284,0.724l0,1.008c0.28,-0.616 0.686,-1.085 1.218,-1.407c0.532,-0.322 1.134,-0.511 1.806,-0.567l0.294,-0.021Z" style="fill:#532456;fill-rule:nonzero;"/><path d="M300.995,691.417c0.196,0 0.357,0.077 0.483,0.231c0.126,0.154 0.189,0.35 0.189,0.588c0,0.406 -0.252,0.749 -0.756,1.029c-0.49,0.28 -1.026,0.497 -1.607,0.651c-0.581,0.154 -1.137,0.231 -1.669,0.231c-1.624,0 -2.905,-0.472 -3.843,-1.417c-0.938,-0.945 -1.407,-2.237 -1.407,-3.875c0,-1.05 0.206,-1.981 0.619,-2.793c0.413,-0.812 0.994,-1.442 1.743,-1.89c0.749,-0.448 1.6,-0.672 2.552,-0.672c1.372,0 2.457,0.441 3.255,1.323c0.798,0.882 1.197,2.072 1.197,3.57c0,0.56 -0.252,0.84 -0.756,0.84l-6.489,0c0.14,2.17 1.183,3.255 3.129,3.255c0.518,0 0.966,-0.07 1.344,-0.21c0.378,-0.14 0.777,-0.322 1.197,-0.546c0.042,-0.028 0.157,-0.087 0.346,-0.178c0.189,-0.091 0.347,-0.137 0.473,-0.137Zm-3.654,-6.363c-0.812,0 -1.463,0.259 -1.953,0.777c-0.49,0.518 -0.784,1.246 -0.882,2.184l5.418,0c-0.042,-0.952 -0.284,-1.683 -0.725,-2.194c-0.441,-0.511 -1.06,-0.767 -1.858,-0.767Z" style="fill:#532456;fill-rule:nonzero;"/><path d="M305.153,694.105c-0.308,0 -0.564,-0.084 -0.767,-0.252c-0.203,-0.168 -0.304,-0.42 -0.304,-0.756l0,-12.978c0,-0.336 0.101,-0.592 0.304,-0.767c0.203,-0.175 0.459,-0.262 0.767,-0.262c0.308,0 0.56,0.087 0.756,0.262c0.196,0.175 0.294,0.431 0.294,0.767l0,12.978c0,0.336 -0.098,0.588 -0.294,0.756c-0.196,0.168 -0.448,0.252 -0.756,0.252Z" style="fill:#532456;fill-rule:nonzero;"/><path d="M317.086,691.417c0.196,0 0.357,0.077 0.483,0.231c0.126,0.154 0.189,0.35 0.189,0.588c0,0.406 -0.252,0.749 -0.756,1.029c-0.49,0.28 -1.026,0.497 -1.607,0.651c-0.581,0.154 -1.137,0.231 -1.669,0.231c-1.624,0 -2.905,-0.472 -3.843,-1.417c-0.938,-0.945 -1.407,-2.237 -1.407,-3.875c0,-1.05 0.206,-1.981 0.619,-2.793c0.413,-0.812 0.994,-1.442 1.743,-1.89c0.749,-0.448 1.6,-0.672 2.552,-0.672c1.372,0 2.457,0.441 3.255,1.323c0.798,0.882 1.197,2.072 1.197,3.57c0,0.56 -0.252,0.84 -0.756,0.84l-6.489,0c0.14,2.17 1.183,3.255 3.129,3.255c0.518,0 0.966,-0.07 1.344,-0.21c0.378,-0.14 0.777,-0.322 1.197,-0.546c0.042,-0.028 0.157,-0.087 0.346,-0.178c0.189,-0.091 0.347,-0.137 0.473,-0.137Zm-3.654,-6.363c-0.812,0 -1.463,0.259 -1.953,0.777c-0.49,0.518 -0.784,1.246 -0.882,2.184l5.418,0c-0.042,-0.952 -0.284,-1.683 -0.725,-2.194c-0.441,-0.511 -1.06,-0.767 -1.858,-0.767Z" style="fill:#532456;fill-rule:nonzero;"/><path d="M323.743,694.147c-1.428,0 -2.597,-0.294 -3.507,-0.882c-0.252,-0.154 -0.431,-0.315 -0.536,-0.483c-0.105,-0.168 -0.157,-0.357 -0.157,-0.567c0,-0.224 0.063,-0.413 0.189,-0.567c0.126,-0.154 0.287,-0.231 0.483,-0.231c0.182,0 0.469,0.112 0.861,0.336c0.42,0.224 0.829,0.406 1.228,0.546c0.399,0.14 0.9,0.21 1.502,0.21c0.672,0 1.197,-0.119 1.575,-0.357c0.378,-0.238 0.567,-0.574 0.567,-1.008c0,-0.28 -0.074,-0.504 -0.221,-0.672c-0.147,-0.168 -0.402,-0.319 -0.766,-0.452c-0.364,-0.133 -0.903,-0.276 -1.617,-0.43c-1.232,-0.266 -2.118,-0.627 -2.657,-1.082c-0.539,-0.455 -0.808,-1.074 -0.808,-1.858c0,-0.602 0.175,-1.145 0.525,-1.628c0.35,-0.483 0.833,-0.857 1.449,-1.123c0.616,-0.266 1.316,-0.399 2.1,-0.399c0.56,0 1.106,0.073 1.638,0.22c0.532,0.147 1.001,0.361 1.407,0.641c0.462,0.308 0.693,0.665 0.693,1.071c0,0.224 -0.067,0.413 -0.2,0.567c-0.133,0.154 -0.29,0.231 -0.472,0.231c-0.126,0 -0.252,-0.028 -0.378,-0.084c-0.126,-0.056 -0.294,-0.147 -0.504,-0.273c-0.378,-0.224 -0.732,-0.399 -1.061,-0.525c-0.329,-0.126 -0.738,-0.189 -1.228,-0.189c-0.588,0 -1.061,0.126 -1.418,0.378c-0.357,0.252 -0.535,0.595 -0.535,1.029c0,0.392 0.164,0.696 0.493,0.913c0.329,0.217 0.949,0.424 1.859,0.62c0.938,0.196 1.673,0.42 2.205,0.672c0.532,0.252 0.913,0.563 1.144,0.934c0.231,0.371 0.347,0.844 0.347,1.418c0,0.91 -0.382,1.641 -1.145,2.194c-0.763,0.553 -1.781,0.83 -3.055,0.83Z" style="fill:#532456;fill-rule:nonzero;"/><path d="M333.765,694.147c-1.428,0 -2.597,-0.294 -3.507,-0.882c-0.252,-0.154 -0.431,-0.315 -0.536,-0.483c-0.105,-0.168 -0.157,-0.357 -0.157,-0.567c0,-0.224 0.063,-0.413 0.189,-0.567c0.126,-0.154 0.287,-0.231 0.483,-0.231c0.182,0 0.469,0.112 0.861,0.336c0.42,0.224 0.829,0.406 1.228,0.546c0.399,0.14 0.9,0.21 1.502,0.21c0.672,0 1.197,-0.119 1.575,-0.357c0.378,-0.238 0.567,-0.574 0.567,-1.008c0,-0.28 -0.074,-0.504 -0.221,-0.672c-0.147,-0.168 -0.402,-0.319 -0.766,-0.452c-0.364,-0.133 -0.903,-0.276 -1.617,-0.43c-1.232,-0.266 -2.118,-0.627 -2.657,-1.082c-0.539,-0.455 -0.808,-1.074 -0.808,-1.858c0,-0.602 0.175,-1.145 0.525,-1.628c0.35,-0.483 0.833,-0.857 1.449,-1.123c0.616,-0.266 1.316,-0.399 2.1,-0.399c0.56,0 1.106,0.073 1.638,0.22c0.532,0.147 1.001,0.361 1.407,0.641c0.462,0.308 0.693,0.665 0.693,1.071c0,0.224 -0.067,0.413 -0.2,0.567c-0.133,0.154 -0.29,0.231 -0.472,0.231c-0.126,0 -0.252,-0.028 -0.378,-0.084c-0.126,-0.056 -0.294,-0.147 -0.504,-0.273c-0.378,-0.224 -0.732,-0.399 -1.061,-0.525c-0.329,-0.126 -0.738,-0.189 -1.228,-0.189c-0.588,0 -1.061,0.126 -1.418,0.378c-0.357,0.252 -0.535,0.595 -0.535,1.029c0,0.392 0.164,0.696 0.493,0.913c0.329,0.217 0.949,0.424 1.859,0.62c0.938,0.196 1.673,0.42 2.205,0.672c0.532,0.252 0.913,0.563 1.144,0.934c0.231,0.371 0.347,0.844 0.347,1.418c0,0.91 -0.382,1.641 -1.145,2.194c-0.763,0.553 -1.781,0.83 -3.055,0.83Z" style="fill:#532456;fill-rule:nonzero;"/><path d="M354.245,683.542c0.322,0 0.577,0.094 0.766,0.284c0.189,0.188 0.284,0.437 0.284,0.745l0,8.61c0,1.568 -0.417,2.751 -1.25,3.549c-0.833,0.798 -2.061,1.197 -3.685,1.197c-1.512,0 -2.772,-0.287 -3.78,-0.861c-0.518,-0.294 -0.777,-0.644 -0.777,-1.05c0,-0.238 0.066,-0.434 0.199,-0.588c0.133,-0.154 0.298,-0.231 0.494,-0.231c0.182,0 0.469,0.105 0.861,0.315c0.504,0.238 0.973,0.423 1.407,0.556c0.434,0.133 0.952,0.2 1.554,0.2c1.932,0 2.898,-0.973 2.898,-2.919l0,-1.617c-0.294,0.616 -0.742,1.095 -1.344,1.438c-0.602,0.343 -1.302,0.515 -2.1,0.515c-0.896,0 -1.694,-0.21 -2.394,-0.63c-0.7,-0.42 -1.243,-1.015 -1.628,-1.785c-0.385,-0.77 -0.577,-1.659 -0.577,-2.667c0,-1.008 0.196,-1.897 0.588,-2.667c0.392,-0.77 0.934,-1.369 1.627,-1.796c0.693,-0.427 1.488,-0.64 2.384,-0.64c0.784,0 1.473,0.168 2.068,0.504c0.595,0.336 1.047,0.812 1.355,1.428l0,-0.882c0,-0.308 0.094,-0.553 0.283,-0.735c0.189,-0.182 0.445,-0.273 0.767,-0.273Zm-3.969,8.463c0.91,0 1.624,-0.301 2.142,-0.903c0.518,-0.602 0.777,-1.435 0.777,-2.499c0,-1.05 -0.256,-1.88 -0.767,-2.489c-0.511,-0.609 -1.228,-0.913 -2.152,-0.913c-0.924,0 -1.649,0.301 -2.174,0.903c-0.525,0.602 -0.787,1.435 -0.787,2.499c0,1.064 0.266,1.897 0.798,2.499c0.532,0.602 1.253,0.903 2.163,0.903Z" style="fill:#532456;fill-rule:nonzero;"/><path d="M366.194,683.542c0.322,0 0.577,0.091 0.766,0.273c0.189,0.182 0.284,0.434 0.284,0.756l0,8.547c0,0.294 -0.098,0.532 -0.294,0.714c-0.196,0.182 -0.455,0.273 -0.777,0.273c-0.294,0 -0.532,-0.088 -0.714,-0.263c-0.182,-0.175 -0.273,-0.409 -0.273,-0.703l0,-0.798c-0.322,0.588 -0.767,1.036 -1.334,1.344c-0.567,0.308 -1.2,0.462 -1.9,0.462c-2.492,0 -3.738,-1.372 -3.738,-4.116l0,-5.46c0,-0.322 0.094,-0.574 0.283,-0.756c0.189,-0.182 0.452,-0.273 0.788,-0.273c0.322,0 0.577,0.091 0.766,0.273c0.189,0.182 0.284,0.434 0.284,0.756l0,5.439c0,0.826 0.168,1.435 0.504,1.827c0.336,0.392 0.854,0.588 1.554,0.588c0.826,0 1.487,-0.266 1.984,-0.798c0.497,-0.532 0.746,-1.239 0.746,-2.121l0,-4.935c0,-0.308 0.098,-0.557 0.294,-0.746c0.196,-0.189 0.455,-0.283 0.777,-0.283Z" style="fill:#532456;fill-rule:nonzero;"/><path d="M378.127,691.417c0.196,0 0.357,0.077 0.483,0.231c0.126,0.154 0.189,0.35 0.189,0.588c0,0.406 -0.252,0.749 -0.756,1.029c-0.49,0.28 -1.026,0.497 -1.607,0.651c-0.581,0.154 -1.137,0.231 -1.669,0.231c-1.624,0 -2.905,-0.472 -3.843,-1.417c-0.938,-0.945 -1.407,-2.237 -1.407,-3.875c0,-1.05 0.206,-1.981 0.619,-2.793c0.413,-0.812 0.994,-1.442 1.743,-1.89c0.749,-0.448 1.6,-0.672 2.552,-0.672c1.372,0 2.457,0.441 3.255,1.323c0.798,0.882 1.197,2.072 1.197,3.57c0,0.56 -0.252,0.84 -0.756,0.84l-6.489,0c0.14,2.17 1.183,3.255 3.129,3.255c0.518,0 0.966,-0.07 1.344,-0.21c0.378,-0.14 0.777,-0.322 1.197,-0.546c0.042,-0.028 0.157,-0.087 0.346,-0.178c0.189,-0.091 0.347,-0.137 0.473,-0.137Zm-3.654,-6.363c-0.812,0 -1.463,0.259 -1.953,0.777c-0.49,0.518 -0.784,1.246 -0.882,2.184l5.418,0c-0.042,-0.952 -0.284,-1.683 -0.725,-2.194c-0.441,-0.511 -1.06,-0.767 -1.858,-0.767Z" style="fill:#532456;fill-rule:nonzero;"/><path d="M384.784,694.147c-1.428,0 -2.597,-0.294 -3.507,-0.882c-0.252,-0.154 -0.431,-0.315 -0.536,-0.483c-0.105,-0.168 -0.157,-0.357 -0.157,-0.567c0,-0.224 0.063,-0.413 0.189,-0.567c0.126,-0.154 0.287,-0.231 0.483,-0.231c0.182,0 0.469,0.112 0.861,0.336c0.42,0.224 0.829,0.406 1.228,0.546c0.399,0.14 0.9,0.21 1.502,0.21c0.672,0 1.197,-0.119 1.575,-0.357c0.378,-0.238 0.567,-0.574 0.567,-1.008c0,-0.28 -0.074,-0.504 -0.221,-0.672c-0.147,-0.168 -0.402,-0.319 -0.766,-0.452c-0.364,-0.133 -0.903,-0.276 -1.617,-0.43c-1.232,-0.266 -2.118,-0.627 -2.657,-1.082c-0.539,-0.455 -0.808,-1.074 -0.808,-1.858c0,-0.602 0.175,-1.145 0.525,-1.628c0.35,-0.483 0.833,-0.857 1.449,-1.123c0.616,-0.266 1.316,-0.399 2.1,-0.399c0.56,0 1.106,0.073 1.638,0.22c0.532,0.147 1.001,0.361 1.407,0.641c0.462,0.308 0.693,0.665 0.693,1.071c0,0.224 -0.067,0.413 -0.2,0.567c-0.133,0.154 -0.29,0.231 -0.472,0.231c-0.126,0 -0.252,-0.028 -0.378,-0.084c-0.126,-0.056 -0.294,-0.147 -0.504,-0.273c-0.378,-0.224 -0.732,-0.399 -1.061,-0.525c-0.329,-0.126 -0.738,-0.189 -1.228,-0.189c-0.588,0 -1.061,0.126 -1.418,0.378c-0.357,0.252 -0.535,0.595 -0.535,1.029c0,0.392 0.164,0.696 0.493,0.913c0.329,0.217 0.949,0.424 1.859,0.62c0.938,0.196 1.673,0.42 2.205,0.672c0.532,0.252 0.913,0.563 1.144,0.934c0.231,0.371 0.347,0.844 0.347,1.418c0,0.91 -0.382,1.641 -1.145,2.194c-0.763,0.553 -1.781,0.83 -3.055,0.83Z" style="fill:#532456;fill-rule:nonzero;"/><path d="M396.15,692.488c0.308,0.028 0.528,0.108 0.661,0.241c0.133,0.133 0.2,0.319 0.2,0.557c0,0.28 -0.109,0.493 -0.326,0.64c-0.217,0.147 -0.535,0.207 -0.955,0.179l-0.567,-0.042c-1.134,-0.084 -1.981,-0.43 -2.541,-1.039c-0.56,-0.61 -0.84,-1.509 -0.84,-2.699l0,-4.935l-1.26,0c-0.616,0 -0.924,-0.273 -0.924,-0.819c0,-0.252 0.08,-0.452 0.241,-0.599c0.161,-0.147 0.389,-0.22 0.683,-0.22l1.26,0l0,-2.163c0,-0.322 0.094,-0.574 0.283,-0.756c0.189,-0.182 0.445,-0.273 0.767,-0.273c0.322,0 0.581,0.091 0.777,0.273c0.196,0.182 0.294,0.434 0.294,0.756l0,2.163l2.079,0c0.294,0 0.521,0.073 0.682,0.22c0.161,0.147 0.242,0.347 0.242,0.599c0,0.266 -0.081,0.469 -0.242,0.609c-0.161,0.14 -0.388,0.21 -0.682,0.21l-2.079,0l0,5.082c0,0.658 0.136,1.141 0.409,1.449c0.273,0.308 0.69,0.483 1.25,0.525l0.588,0.042Z" style="fill:#532456;fill-rule:nonzero;"/><path d="M407.558,694.147c-1.428,0 -2.597,-0.294 -3.507,-0.882c-0.252,-0.154 -0.431,-0.315 -0.536,-0.483c-0.105,-0.168 -0.157,-0.357 -0.157,-0.567c0,-0.224 0.063,-0.413 0.189,-0.567c0.126,-0.154 0.287,-0.231 0.483,-0.231c0.182,0 0.469,0.112 0.861,0.336c0.42,0.224 0.829,0.406 1.228,0.546c0.399,0.14 0.9,0.21 1.502,0.21c0.672,0 1.197,-0.119 1.575,-0.357c0.378,-0.238 0.567,-0.574 0.567,-1.008c0,-0.28 -0.074,-0.504 -0.221,-0.672c-0.147,-0.168 -0.402,-0.319 -0.766,-0.452c-0.364,-0.133 -0.903,-0.276 -1.617,-0.43c-1.232,-0.266 -2.118,-0.627 -2.657,-1.082c-0.539,-0.455 -0.808,-1.074 -0.808,-1.858c0,-0.602 0.175,-1.145 0.525,-1.628c0.35,-0.483 0.833,-0.857 1.449,-1.123c0.616,-0.266 1.316,-0.399 2.1,-0.399c0.56,0 1.106,0.073 1.638,0.22c0.532,0.147 1.001,0.361 1.407,0.641c0.462,0.308 0.693,0.665 0.693,1.071c0,0.224 -0.067,0.413 -0.2,0.567c-0.133,0.154 -0.29,0.231 -0.472,0.231c-0.126,0 -0.252,-0.028 -0.378,-0.084c-0.126,-0.056 -0.294,-0.147 -0.504,-0.273c-0.378,-0.224 -0.732,-0.399 -1.061,-0.525c-0.329,-0.126 -0.738,-0.189 -1.228,-0.189c-0.588,0 -1.061,0.126 -1.418,0.378c-0.357,0.252 -0.535,0.595 -0.535,1.029c0,0.392 0.164,0.696 0.493,0.913c0.329,0.217 0.949,0.424 1.859,0.62c0.938,0.196 1.673,0.42 2.205,0.672c0.532,0.252 0.913,0.563 1.144,0.934c0.231,0.371 0.347,0.844 0.347,1.418c0,0.91 -0.382,1.641 -1.145,2.194c-0.763,0.553 -1.781,0.83 -3.055,0.83Z" style="fill:#532456;fill-rule:nonzero;"/><path d="M422.032,691.417c0.196,0 0.357,0.077 0.483,0.231c0.126,0.154 0.189,0.35 0.189,0.588c0,0.406 -0.252,0.749 -0.756,1.029c-0.49,0.28 -1.026,0.497 -1.607,0.651c-0.581,0.154 -1.137,0.231 -1.669,0.231c-1.624,0 -2.905,-0.472 -3.843,-1.417c-0.938,-0.945 -1.407,-2.237 -1.407,-3.875c0,-1.05 0.206,-1.981 0.619,-2.793c0.413,-0.812 0.994,-1.442 1.743,-1.89c0.749,-0.448 1.6,-0.672 2.552,-0.672c1.372,0 2.457,0.441 3.255,1.323c0.798,0.882 1.197,2.072 1.197,3.57c0,0.56 -0.252,0.84 -0.756,0.84l-6.489,0c0.14,2.17 1.183,3.255 3.129,3.255c0.518,0 0.966,-0.07 1.344,-0.21c0.378,-0.14 0.777,-0.322 1.197,-0.546c0.042,-0.028 0.157,-0.087 0.346,-0.178c0.189,-0.091 0.347,-0.137 0.473,-0.137Zm-3.654,-6.363c-0.812,0 -1.463,0.259 -1.953,0.777c-0.49,0.518 -0.784,1.246 -0.882,2.184l5.418,0c-0.042,-0.952 -0.284,-1.683 -0.725,-2.194c-0.441,-0.511 -1.06,-0.767 -1.858,-0.767Z" style="fill:#532456;fill-rule:nonzero;"/><path d="M430.545,683.542c0.672,-0.042 1.008,0.245 1.008,0.861c0,0.308 -0.077,0.539 -0.231,0.693c-0.154,0.154 -0.42,0.245 -0.798,0.273l-0.63,0.063c-0.882,0.084 -1.537,0.392 -1.964,0.924c-0.427,0.532 -0.64,1.176 -0.64,1.932l0,4.809c0,0.336 -0.098,0.588 -0.294,0.756c-0.196,0.168 -0.448,0.252 -0.756,0.252c-0.308,0 -0.564,-0.084 -0.767,-0.252c-0.203,-0.168 -0.304,-0.42 -0.304,-0.756l0,-8.547c0,-0.322 0.101,-0.57 0.304,-0.745c0.203,-0.175 0.459,-0.263 0.767,-0.263c0.28,0 0.514,0.088 0.703,0.263c0.189,0.175 0.284,0.416 0.284,0.724l0,1.008c0.28,-0.616 0.686,-1.085 1.218,-1.407c0.532,-0.322 1.134,-0.511 1.806,-0.567l0.294,-0.021Z" style="fill:#532456;fill-rule:nonzero;"/><path d="M440.672,684.172c0.084,-0.21 0.206,-0.364 0.367,-0.462c0.161,-0.098 0.333,-0.147 0.515,-0.147c0.266,0 0.5,0.091 0.703,0.273c0.203,0.182 0.305,0.399 0.305,0.651c0,0.14 -0.028,0.273 -0.084,0.399l-4.011,8.505c-0.098,0.224 -0.249,0.396 -0.452,0.514c-0.203,0.12 -0.416,0.179 -0.64,0.179c-0.224,0 -0.438,-0.059 -0.641,-0.178c-0.203,-0.119 -0.353,-0.291 -0.451,-0.515l-4.011,-8.505c-0.056,-0.112 -0.084,-0.245 -0.084,-0.399c0,-0.252 0.112,-0.469 0.336,-0.651c0.224,-0.182 0.476,-0.273 0.756,-0.273c0.406,0 0.707,0.196 0.903,0.588l3.255,7.224l3.234,-7.203Z" style="fill:#532456;fill-rule:nonzero;"/><path d="M445.276,694.105c-0.308,0 -0.564,-0.084 -0.767,-0.252c-0.203,-0.168 -0.304,-0.42 -0.304,-0.756l0,-8.526c0,-0.336 0.101,-0.592 0.304,-0.767c0.203,-0.175 0.459,-0.262 0.767,-0.262c0.308,0 0.56,0.087 0.756,0.262c0.196,0.175 0.294,0.431 0.294,0.767l0,8.526c0,0.336 -0.098,0.588 -0.294,0.756c-0.196,0.168 -0.448,0.252 -0.756,0.252Zm0,-12.621c-0.406,0 -0.728,-0.112 -0.966,-0.336c-0.238,-0.224 -0.357,-0.518 -0.357,-0.882c0,-0.364 0.119,-0.655 0.357,-0.872c0.238,-0.217 0.56,-0.325 0.966,-0.325c0.392,0 0.71,0.108 0.955,0.325c0.245,0.217 0.368,0.508 0.368,0.872c0,0.364 -0.119,0.658 -0.357,0.882c-0.238,0.224 -0.56,0.336 -0.966,0.336Z" style="fill:#532456;fill-rule:nonzero;"/><path d="M453.726,694.147c-0.994,0 -1.866,-0.217 -2.615,-0.651c-0.749,-0.434 -1.33,-1.05 -1.743,-1.848c-0.413,-0.798 -0.619,-1.722 -0.619,-2.772c0,-1.064 0.213,-2.002 0.64,-2.814c0.427,-0.812 1.026,-1.442 1.796,-1.89c0.77,-0.448 1.652,-0.672 2.646,-0.672c0.532,0 1.067,0.077 1.606,0.231c0.539,0.154 1.019,0.364 1.439,0.63c0.448,0.308 0.672,0.665 0.672,1.071c0,0.238 -0.063,0.437 -0.189,0.598c-0.126,0.161 -0.287,0.242 -0.483,0.242c-0.126,0 -0.252,-0.032 -0.378,-0.095c-0.126,-0.063 -0.287,-0.157 -0.483,-0.283c-0.35,-0.224 -0.676,-0.395 -0.977,-0.514c-0.301,-0.12 -0.661,-0.179 -1.081,-0.179c-0.952,0 -1.691,0.322 -2.216,0.966c-0.525,0.644 -0.787,1.54 -0.787,2.688c0,1.148 0.259,2.034 0.777,2.656c0.518,0.624 1.253,0.935 2.205,0.935c0.42,0 0.791,-0.063 1.113,-0.189c0.322,-0.126 0.651,-0.294 0.987,-0.504c0.154,-0.098 0.308,-0.182 0.462,-0.252c0.154,-0.07 0.294,-0.105 0.42,-0.105c0.196,0 0.357,0.081 0.483,0.242c0.126,0.161 0.189,0.36 0.189,0.598c0,0.196 -0.053,0.375 -0.158,0.536c-0.105,0.161 -0.283,0.325 -0.535,0.493c-0.42,0.28 -0.91,0.497 -1.47,0.651c-0.56,0.154 -1.127,0.231 -1.701,0.231Z" style="fill:#532456;fill-rule:nonzero;"/><path d="M467.402,691.417c0.196,0 0.357,0.077 0.483,0.231c0.126,0.154 0.189,0.35 0.189,0.588c0,0.406 -0.252,0.749 -0.756,1.029c-0.49,0.28 -1.026,0.497 -1.607,0.651c-0.581,0.154 -1.137,0.231 -1.669,0.231c-1.624,0 -2.905,-0.472 -3.843,-1.417c-0.938,-0.945 -1.407,-2.237 -1.407,-3.875c0,-1.05 0.206,-1.981 0.619,-2.793c0.413,-0.812 0.994,-1.442 1.743,-1.89c0.749,-0.448 1.6,-0.672 2.552,-0.672c1.372,0 2.457,0.441 3.255,1.323c0.798,0.882 1.197,2.072 1.197,3.57c0,0.56 -0.252,0.84 -0.756,0.84l-6.489,0c0.14,2.17 1.183,3.255 3.129,3.255c0.518,0 0.966,-0.07 1.344,-0.21c0.378,-0.14 0.777,-0.322 1.197,-0.546c0.042,-0.028 0.157,-0.087 0.346,-0.178c0.189,-0.091 0.347,-0.137 0.473,-0.137Zm-3.654,-6.363c-0.812,0 -1.463,0.259 -1.953,0.777c-0.49,0.518 -0.784,1.246 -0.882,2.184l5.418,0c-0.042,-0.952 -0.284,-1.683 -0.725,-2.194c-0.441,-0.511 -1.06,-0.767 -1.858,-0.767Z" style="fill:#532456;fill-rule:nonzero;"/><path d="M473.959,694.147c-1.428,0 -2.597,-0.294 -3.507,-0.882c-0.252,-0.154 -0.431,-0.315 -0.536,-0.483c-0.105,-0.168 -0.157,-0.357 -0.157,-0.567c0,-0.224 0.063,-0.413 0.189,-0.567c0.126,-0.154 0.287,-0.231 0.483,-0.231c0.182,0 0.469,0.112 0.861,0.336c0.42,0.224 0.829,0.406 1.228,0.546c0.399,0.14 0.9,0.21 1.502,0.21c0.672,0 1.197,-0.119 1.575,-0.357c0.378,-0.238 0.567,-0.574 0.567,-1.008c0,-0.28 -0.074,-0.504 -0.221,-0.672c-0.147,-0.168 -0.402,-0.319 -0.766,-0.452c-0.364,-0.133 -0.903,-0.276 -1.617,-0.43c-1.232,-0.266 -2.118,-0.627 -2.657,-1.082c-0.539,-0.455 -0.808,-1.074 -0.808,-1.858c0,-0.602 0.175,-1.145 0.525,-1.628c0.35,-0.483 0.833,-0.857 1.449,-1.123c0.616,-0.266 1.316,-0.399 2.1,-0.399c0.56,0 1.106,0.073 1.638,0.22c0.532,0.147 1.001,0.361 1.407,0.641c0.462,0.308 0.693,0.665 0.693,1.071c0,0.224 -0.067,0.413 -0.2,0.567c-0.133,0.154 -0.29,0.231 -0.472,0.231c-0.126,0 -0.252,-0.028 -0.378,-0.084c-0.126,-0.056 -0.294,-0.147 -0.504,-0.273c-0.378,-0.224 -0.732,-0.399 -1.061,-0.525c-0.329,-0.126 -0.738,-0.189 -1.228,-0.189c-0.588,0 -1.061,0.126 -1.418,0.378c-0.357,0.252 -0.535,0.595 -0.535,1.029c0,0.392 0.164,0.696 0.493,0.913c0.329,0.217 0.949,0.424 1.859,0.62c0.938,0.196 1.673,0.42 2.205,0.672c0.532,0.252 0.913,0.563 1.144,0.934c0.231,0.371 0.347,0.844 0.347,1.418c0,0.91 -0.382,1.641 -1.145,2.194c-0.763,0.553 -1.781,0.83 -3.055,0.83Z" style="fill:#532456;fill-rule:nonzero;"/></g><clipPath id="_clip1"><path d="M-118.982,-269.495c0,-61.062 0,-152.656 0,-274.781c0,-2.485 2.015,-4.5 4.5,-4.5l1095.75,0c2.485,0 4.5,2.015 4.5,4.5l0,637.5c0,2.485 -2.015,4.5 -4.5,4.5l-1095.75,0c-2.485,0 -4.5,-2.015 -4.5,-4.5c0,-147.125 0,-245.954 0,-296.488Z"/></clipPath><g clip-path="url(#_clip1)"><path d="M-118.982,-269.495c0,-61.062 0,-152.656 0,-274.781c0,-2.485 2.015,-4.5 4.5,-4.5l1095.75,0c2.485,0 4.5,2.015 4.5,4.5l0,637.5c0,2.485 -2.015,4.5 -4.5,4.5l-1095.75,0c-2.485,0 -4.5,-2.015 -4.5,-4.5c0,-147.125 0,-245.954 0,-296.488" style="fill:none;stroke:#afafaf;stroke-width:16px;stroke-linecap:butt;"/></g></svg>