<?xml version="1.0" encoding="UTF-8"?>
<svg width="36px" height="36px" viewBox="0 0 36 36" version="1.1" xmlns="http://www.w3.org/2000/svg" xmlns:xlink="http://www.w3.org/1999/xlink">
    <!-- Generator: Sketch 52.5 (67469) - http://www.bohemiancoding.com/sketch -->
    <title>Icon_0day_Threats</title>
    <desc>Created with Sketch.</desc>
    <g id="Page-1" stroke="none" stroke-width="1" fill="none" fill-rule="evenodd">
        <g id="Icons" transform="translate(-813.000000, -106.000000)" fill="#FDA348" fill-rule="nonzero">
            <g id="Icon_0day_Threats" transform="translate(813.000000, 106.000000)">
                <path d="M32,3.6 L30,3.6 L30,7.65 L24,7.65 L24,3.6 L12,3.6 L12,7.65 L6,7.65 L6,3.6 L4,3.6 C1.79803572,3.6 0,5.4225 0,7.65 L0,31.95 C0,34.1775 1.79803572,36 4,36 L32,36 C34.2,36 36,34.1775 36,31.95 L36,7.65 C36,5.4225 34.2,3.6 32,3.6 Z M31.5,32.4 L3.6,32.4 L3.6,13.5 L31.5,13.5 L31.5,32.4 Z M10.8,0 L7.2,0 L7.2,7.2 L10.8,7.2 L10.8,0 Z M28.8,0 L25.2,0 L25.2,7.2 L28.8,7.2 L28.8,0 Z" id="Calendar"></path>
                <path d="M15.1542751,26.4564315 C14.3847545,25.4273807 14,23.9391522 14,21.9917012 C14,20.0553153 14.3847545,18.5726193 15.1542751,17.5435685 C15.9237957,16.5145177 17.0390261,16 18.5,16 C19.9498214,16 21.0622638,16.5145177 21.8373606,17.5435685 C22.6124574,18.5726193 23,20.0553153 23,21.9917012 C23,23.9391522 22.6152455,25.4273807 21.8457249,26.4564315 C21.0762043,27.4854823 19.9609739,28 18.5,28 C17.0390261,28 15.9237957,27.4854823 15.1542751,26.4564315 Z M19.6542751,24.8298755 C19.888477,24.2544923 20.0055762,23.3084437 20.0055762,21.9917012 C20.0055762,20.6860239 19.888477,19.7455077 19.6542751,19.1701245 C19.4200731,18.5947413 19.0353187,18.3070539 18.5,18.3070539 C17.9646813,18.3070539 17.5799269,18.591975 17.3457249,19.1618257 C17.111523,19.7316765 16.9944238,20.6749588 16.9944238,21.9917012 C16.9944238,23.3084437 17.111523,24.2544923 17.3457249,24.8298755 C17.5799269,25.4052587 17.9646813,25.6929461 18.5,25.6929461 C19.0353187,25.6929461 19.4200731,25.4052587 19.6542751,24.8298755 Z" id="0"></path>
            </g>
        </g>
    </g>
</svg>