<?xml version="1.0" encoding="UTF-8"?>
<svg width="31px" height="31px" viewBox="0 0 31 31" version="1.1" xmlns="http://www.w3.org/2000/svg" xmlns:xlink="http://www.w3.org/1999/xlink">
    <!-- Generator: Sketch 52.5 (67469) - http://www.bohemiancoding.com/sketch -->
    <title>Icon_Intrusions_Off-Network</title>
    <desc>Created with Sketch.</desc>
    <g id="Page-1" stroke="none" stroke-width="1" fill="none" fill-rule="evenodd">
        <g id="Icons" transform="translate(-33.000000, -422.000000)" fill="#7DD7E0" fill-rule="nonzero">
            <g id="Icon_Intrusions_Off-Network" transform="translate(33.000000, 422.000000)">
                <path d="M19.7768035,9.8931682 C19.5389966,9.8931682 19.3216491,10.0839315 19.2173595,10.3831793 C19.1845449,10.476445 19.1470139,10.6077983 19.0996518,10.7672289 C18.7525069,11.9667429 18.030451,14.4625362 15.5000664,14.4625362 C12.9696819,14.4625362 12.2476259,11.9667429 11.9005475,10.7671475 C11.853119,10.6077983 11.815588,10.4763636 11.7827733,10.383098 C11.6783509,10.0838502 11.4805327,9.8956097 11.2414638,9.8956097 C11.0182043,9.80405306 10.6116078,8.78081609 10.54,8.18402957 C11.969631,7.74146514 13.6346775,7.51766002 15.5,7.51766002 C17.3653225,7.51766002 19.0315646,7.74227902 20.46,8.18484345 C20.3884586,8.7808975 19.9843199,9.80413446 19.7768035,9.8931682 Z M25.6110232,19.1581886 L16.683242,27.7937837 C15.2145064,27.4439157 14.1252174,26.1613462 14.1252174,24.6326861 C14.1252174,22.8347724 15.6320289,21.3772754 17.4907752,21.3772754 C17.7209489,21.3772754 17.9457258,21.3996254 18.162913,21.4422043 C18.4545929,19.4034575 20.2635001,17.8336251 22.4514671,17.8336251 C23.6977576,17.8336251 24.8210595,18.3429681 25.6110232,19.1581886 Z M27.885107,22.0472283 C29.3694848,22.2377987 30.5147826,23.4669453 30.5147826,24.9548361 C30.5147826,26.5748312 29.1570826,27.8880967 27.4822748,27.8880967 C27.4071978,27.8880967 27.332758,27.8854578 27.2590491,27.8802705 C27.2268809,27.8854209 27.1938864,27.8880967 27.1602669,27.8880967 L21.8466124,27.8880967 L27.885107,22.0472283 Z M30.8620677,17.8901825 L28.892,15.9845908 L26.4543883,18.342425 C25.4335007,17.2536593 23.9593034,16.569891 22.32,16.569891 C19.8864601,16.569891 17.8167696,18.0767313 17.0537653,20.1784324 C14.7997463,20.3304136 13.02,22.1472206 13.02,24.3661054 C13.02,25.8395055 13.8047475,27.1356164 14.9920116,27.8847171 L4.81728953,27.8847171 C3.59123608,27.8847171 2.52529176,26.9212428 2.28440312,25.5938695 L0.0580645879,17.6039546 C0.018986637,17.3897156 0,17.1726718 0,16.9556279 C0,15.1330608 1.34342539,13.650618 2.99581514,13.6505512 L5.93618931,13.6505512 C5.55880401,12.8303259 5.16664365,11.6208241 5.16664365,10.0888285 C5.16664365,8.29130489 5.90576661,7.47907004 7.87110615,5.28311158 C12.5977474,0.00183179705 15.2060868,0.00183179705 15.5,0.00183179705 C15.7939132,0.00183179705 18.2222253,-0.254063989 23.0506808,5.28317836 C24.9848777,7.50130331 25.8333564,8.29130489 25.8333564,10.0888953 C25.8333564,11.6208909 25.441196,12.8303259 25.0638107,13.650618 L28.0042539,13.650618 C29.6566436,13.650618 31,15.1330608 31,16.9556279 C31,17.1726718 30.9811514,17.3897156 30.9420045,17.6032867 L30.8620677,17.8901825 Z M30.3747942,19.639023 L29.8360033,21.5727609 C29.5477591,21.3692574 29.2326025,21.199285 28.896666,21.0687754 L30.3747942,19.639023 Z M28.892,17.2567652 L30.2072186,18.5289397 L17.314199,31 L15.9989804,29.7278255 L28.892,17.2567652 Z"></path>
            </g>
        </g>
    </g>
</svg>