<?xml version="1.0" encoding="UTF-8"?>
<svg width="567px" height="48px" viewBox="0 0 567 48" version="1.1" xmlns="http://www.w3.org/2000/svg" xmlns:xlink="http://www.w3.org/1999/xlink">
    <!-- Generator: Sketch 52.5 (67469) - http://www.bohemiancoding.com/sketch -->
    <title>RM Title</title>
    <desc>Created with Sketch.</desc>
    <g id="Page-1" stroke="none" stroke-width="1" fill="none" fill-rule="evenodd">
        <g id="RM-Composited" transform="translate(-1021.000000, -1946.000000)">
            <g id="RM-Title" transform="translate(1021.000000, 1946.000000)">
                <text id="Risk-Meters-Title" font-family="Nunito-Regular, Nunito" font-size="31" font-weight="normal" fill="#999999">
                    <tspan x="59" y="33">RISK METERS</tspan>
                </text>
                <g id="Tenant-Dropdown" transform="translate(268.000000, 1.000000)" fill="#888888" font-weight="normal">
                    <text id="4G-Global-Network" font-family="Nunito-Regular, Nunito" font-size="28">
                        <tspan x="15" y="31">4G Global Network      </tspan>
                    </text>
                    <text id="[" font-family="Nunito-Regular, Nunito" font-size="28">
                        <tspan x="0" y="28">[</tspan>
                    </text>
                    <text id="]" font-family="Nunito-Regular, Nunito" font-size="28">
                        <tspan x="293" y="28">]</tspan>
                    </text>
                    <text id="" transform="translate(276.000000, 22.000000) rotate(-90.000000) translate(-276.000000, -22.000000) " font-family="SonicWallIconFont" font-size="22">
                        <tspan x="265" y="32"></tspan>
                    </text>
                </g>
                <g id="Risk-Meters" fill="#888888">
                    <path d="M33.3190202,14.5721153 L26.6830931,28.1245711 C26.6227665,28.2494786 26.6227665,28.3119323 26.5624399,28.4368397 C26.3211334,29.3111917 26.8037463,30.12309 27.5879922,30.4353585 C28.4325648,30.6851734 29.2168107,30.1855437 29.5184437,29.3736454 L33.5,14.5721153 C33.5,14.5096616 33.3793468,14.4472079 33.3190202,14.5721153 Z M28.1912583,29.7483677 C27.7086454,29.8108214 27.2863592,29.4985528 27.2260326,29.0613768 C27.165706,28.5617471 27.467339,28.1245711 27.8896253,28.0621174 C28.3722382,27.9996637 28.7945244,28.3119323 28.854851,28.7491083 C28.9151776,29.248738 28.6135446,29.685914 28.1912583,29.7483677 Z" id="Shape" fill-rule="nonzero" transform="translate(30.000000, 22.500000) rotate(90.000000) translate(-30.000000, -22.500000) "></path>
                    <path d="M28.7516689,17.6893204 L27.7263017,14.4708738 C27.5981308,14.092233 27.7903872,13.776699 28.1108144,13.6504854 C29.9692924,13.0825243 32.0200267,12.7038835 34.070761,12.6407767 C34.3911883,12.6407767 34.7116155,12.8932039 34.7116155,13.2718447 L34.7116155,17.6262136 C34.7116155,18.0048544 34.3271028,18.3203883 33.9425901,18.2572816 C33.0453939,18.131068 32.1481976,18.0679612 31.1869159,18.0679612 C30.6101469,18.0679612 29.9692924,18.0679612 29.3925234,18.131068 C29.1361816,18.131068 28.8157543,17.9417476 28.7516689,17.6893204 Z M35.6728972,20.0873786 C35.4165554,20.0242718 35.2242991,19.7718447 35.2883845,19.4563107 L35.2883845,11.631068 C35.2883845,11.2524272 35.5447263,11 35.929239,11 C37.9799733,11.1262136 40.4793057,11.5048544 42.4018692,12.0728155 C42.7222964,12.1990291 42.9145527,12.5776699 42.7863818,12.8932039 L40.0947931,20.9708738 C39.9666222,21.3495146 39.518024,21.538835 39.1975968,21.3495146 C37.9158879,20.7184466 37.0186916,20.4029126 35.6728972,20.0873786 Z M54.2576769,23.7475728 C54.5140187,23.5582524 54.9626168,23.6213592 55.0907877,23.8737864 C56.0520694,25.4514563 56.8851802,27.2184466 57.5260347,29.0485437 C57.6542056,29.4271845 57.4619493,29.7427184 57.141522,29.868932 L50.8611482,31.8883495 C50.540721,32.0145631 50.2202937,31.8252427 50.0921228,31.5097087 C49.7076101,30.4368932 49.259012,29.4271845 48.682243,28.4174757 C48.5540721,28.1019417 48.6181575,27.7864078 48.8744993,27.5970874 L54.2576769,23.7475728 Z M23.1121495,19.8980583 C22.8558077,20.0242718 22.4712951,19.961165 22.3431242,19.7087379 L21.0614152,17.9417476 C20.8691589,17.6262136 20.9332443,17.2475728 21.1895861,17.0582524 C22.7917223,15.8592233 24.5861148,14.9126214 26.4445928,14.1553398 C26.76502,14.0291262 27.1495327,14.2184466 27.2777036,14.5339806 L28.2389853,17.5 C28.3671562,17.8786408 28.1108144,18.2572816 27.7263017,18.3203883 C26.1241656,18.6359223 24.5861148,19.2038835 23.1121495,19.8980583 Z M42.6582109,14.5970874 C42.7863818,14.2815534 43.1708945,14.092233 43.4913218,14.1553398 C45.3497997,14.9126214 47.1441923,15.8592233 48.7463284,17.0582524 C49.0026702,17.2475728 49.0667557,17.6893204 48.8744993,17.9417476 L45.2216288,22.9271845 C44.965287,23.1796117 44.5166889,23.2427184 44.2603471,22.9902913 C43.2990654,22.1067961 42.2096128,21.3495146 41.1201602,20.7184466 C40.8638184,20.592233 40.799733,20.276699 40.8638184,20.0242718 L42.6582109,14.5970874 Z M45.5420561,24.1893204 C45.2857143,24 45.2857143,23.6213592 45.4779706,23.4320388 L49.1949266,18.3203883 C49.4512684,18.0048544 49.8998665,17.9417476 50.1562083,18.1941748 C51.6301736,19.4563107 52.975968,20.907767 54.129506,22.4854369 C54.3217623,22.8009709 54.2576769,23.1796117 54.0013351,23.368932 L48.682243,27.1553398 C48.3618158,27.3446602 47.9773031,27.2815534 47.7850467,26.9660194 C47.1441923,25.9563107 46.3751669,25.0728155 45.5420561,24.1893204 Z M17.6648865,23.8737864 C17.4085447,24.1262136 17.0881175,24.1893204 16.7676903,23.9368932 L15.870494,23.3058252 C15.6141522,23.1165049 15.5500668,22.6747573 15.7423231,22.4223301 C16.8958611,20.8446602 18.2416555,19.3932039 19.7156208,18.131068 C20.0360481,17.8786408 20.4846462,17.9417476 20.6769025,18.2572816 L21.8304406,19.7718447 C22.0226969,20.0242718 21.9586115,20.4660194 21.6381842,20.6553398 C20.164219,21.538835 18.8184246,22.6116505 17.6648865,23.8737864 Z M12.7303071,29.868932 C12.4098798,29.8058252 12.2176235,29.4271845 12.2817089,29.1116505 C12.858478,27.2815534 13.6915888,25.5145631 14.7169559,23.9368932 C14.9092123,23.6213592 15.293725,23.5582524 15.6141522,23.7475728 L16.3831776,24.2524272 C16.7036048,24.4417476 16.7676903,24.8834951 16.5113485,25.1359223 C15.4218959,26.461165 14.5246996,27.9757282 13.8197597,29.6165049 C13.6915888,29.9320388 13.3711615,30.1213592 13.0507343,29.9951456 L12.7303071,29.868932 Z M50.6048064,33.0873786 C50.540721,32.7718447 50.6688919,32.4563107 51.0534045,32.3300971 L57.3337784,30.3106796 C57.7182911,30.184466 58.1028037,30.3737864 58.1668892,30.7524272 C58.6795728,32.5825243 58.9359146,34.4126214 59,36.368932 C59,36.684466 58.7436582,37 58.3591455,37 L51.8224299,37 C51.5020027,37 51.1815754,36.7475728 51.1815754,36.4320388 C51.0534045,35.2961165 50.8611482,34.1601942 50.6048064,33.0873786 Z M12.1535381,37 L11,37 C11,34.8543689 11.3204272,32.7718447 11.8331108,30.7524272 C11.9612817,30.3737864 12.3457944,30.184466 12.6662216,30.3106796 L12.858478,30.3737864 C13.1789052,30.5 13.3711615,30.8786408 13.2429907,31.1941748 C12.6021362,33.0242718 12.2176235,34.9805825 12.1535381,37 Z" id="Combined-Shape" transform="translate(35.000000, 24.000000) rotate(90.000000) translate(-35.000000, -24.000000) "></path>
                    <path d="M1.33226763e-15,15.4260317 C1.23666347e-15,14.6453645 0.454232804,13.9360501 1.16330219,13.6094589 L8.1631905,10.3853705 C8.69417425,10.140804 9.30558094,10.1408008 9.83656723,10.3853618 L16.8366789,13.6094648 C17.5457585,13.9360519 18,14.6453716 18,15.4260463 L18,24.7046123 C18,25.4616857 17.8432221,26.2120074 17.5290261,26.9558549 C17.2144853,27.6996561 16.8254713,28.3598929 16.3614423,28.9364267 C15.8973641,29.513053 15.3441347,30.0742798 14.7022961,30.6199683 C14.0599157,31.1658881 13.4670855,31.6188095 12.9231653,31.9799813 C12.3795899,32.3408294 11.8121752,32.6820235 11.2219063,33.0029623 C10.6312434,33.3240862 10.2113959,33.5423153 9.96310272,33.6565862 C9.71480953,33.7711808 9.51557408,33.8591384 9.36574113,33.9205515 C9.25304627,33.9734092 9.1314363,34 8.99987686,34 C8.86846519,34 8.74670746,33.9734092 8.6341111,33.9205515 C8.48417965,33.8591384 8.28494419,33.7711808 8.0365525,33.6565862 C7.78821006,33.5423153 7.3685596,33.3240399 6.77794591,33.0029623 C6.18733223,32.6820235 5.62011454,32.3408294 5.07644063,31.9799813 C4.53276672,31.6188558 3.93983806,31.1659343 3.29755614,30.6199683 C2.65537274,30.0742798 2.10234042,29.5130993 1.63821293,28.9364267 C1.17408544,28.3598929 0.784972924,27.6996561 0.471023158,26.9558549 C0.156925628,26.2120074 0,25.4616857 0,24.7046123 L0,15.4260317 Z M8.92628655,27 C8.92628655,27 4.26470572,24.0906967 6.6817311,22.2037389 C9.15502327,20.2723821 16,19.4276325 16,19.4276325 C16,19.4276325 13.1022606,19.0794509 10.7329396,19.0128523 C10.4271419,19.0046736 10.1225673,19 9.81921597,19 C5.76189149,19.0011684 2.1118896,19.8003505 3.19196723,22.6395502 C4.22800999,25.3630787 8.92628655,27 8.92628655,27 Z" id="Combined-Shape"></path>
                </g>
            </g>
        </g>
    </g>
</svg>