<?xml version="1.0" encoding="UTF-8"?>
<svg width="36px" height="37px" viewBox="0 0 36 37" version="1.1" xmlns="http://www.w3.org/2000/svg" xmlns:xlink="http://www.w3.org/1999/xlink">
    <!-- Generator: Sketch 52.5 (67469) - http://www.bohemiancoding.com/sketch -->
    <title></title>
    <desc>Created with Sketch.</desc>
    <g id="Page-1" stroke="none" stroke-width="1" fill="none" fill-rule="evenodd">
        <g id="Icons" transform="translate(-801.000000, -50.000000)" fill="#CE8ABE">
            <path d="M833.589844,59.6015625 C834.574224,59.8125011 835.388669,60.3515582 836.033203,61.21875 C836.677738,62.0859418 837,63.0937443 837,64.2421875 C837,65.4140684 836.677738,66.4335894 836.033203,67.3007812 C835.388669,68.1679731 834.574224,68.7070302 833.589844,68.9179688 L833.589844,74.0859375 L804.410156,74.0859375 L804.410156,68.9179688 C803.425776,68.7070302 802.611331,68.1679731 801.966797,67.3007812 C801.322262,66.4335894 801,65.4140684 801,64.2421875 C801,63.0937443 801.322262,62.0859418 801.966797,61.21875 C802.611331,60.3515582 803.425776,59.8125011 804.410156,59.6015625 L804.410156,52.8515625 C804.410156,52.0546835 804.609373,51.4218773 805.007812,50.953125 C805.406252,50.4843727 805.957028,50.25 806.660156,50.25 L831.339844,50.25 C832.042972,50.25 832.593748,50.4843727 832.992188,50.953125 C833.390627,51.4218773 833.589844,52.0546835 833.589844,52.8515625 L833.589844,59.6015625 Z M832.078125,52.8515625 C832.078125,52.5234359 832.025391,52.3007818 831.919922,52.1835938 C831.814453,52.0664057 831.621095,52.0078125 831.339844,52.0078125 L806.660156,52.0078125 C806.378905,52.0078125 806.185547,52.0664057 806.080078,52.1835938 C805.974609,52.3007818 805.921875,52.5234359 805.921875,52.8515625 L805.921875,59.4960938 L807.75,59.4960938 C807.984376,59.4960938 808.183593,59.5957021 808.347656,59.7949219 C808.51172,59.9941416 808.59375,60.222655 808.59375,60.4804688 C808.59375,60.7617202 808.51172,60.9960928 808.347656,61.1835938 C808.183593,61.3710947 807.984376,61.4648438 807.75,61.4648438 L805.921875,61.4648438 L805.921875,62.0273438 L809.648438,62.0273438 C809.882814,62.0273438 810.08203,62.1269521 810.246094,62.3261719 C810.410157,62.5253916 810.492188,62.753905 810.492188,63.0117188 C810.492188,63.2929702 810.410157,63.5273428 810.246094,63.7148438 C810.08203,63.9023447 809.882814,63.9960938 809.648438,63.9960938 L805.921875,63.9960938 L805.921875,64.5585938 L808.699219,64.5585938 C808.933595,64.5585938 809.132812,64.6523428 809.296875,64.8398438 C809.460938,65.0273447 809.542969,65.2499987 809.542969,65.5078125 C809.542969,65.7890639 809.460938,66.0234366 809.296875,66.2109375 C809.132812,66.3984384 808.933595,66.4921875 808.699219,66.4921875 L805.921875,66.4921875 L805.921875,67.0546875 L807.1875,67.0546875 C807.421876,67.0546875 807.621093,67.1484366 807.785156,67.3359375 C807.94922,67.5234384 808.03125,67.7578111 808.03125,68.0390625 C808.03125,68.2968763 807.94922,68.5253896 807.785156,68.7246094 C807.621093,68.9238291 807.421876,69.0234375 807.1875,69.0234375 L805.921875,69.0234375 L805.921875,72.328125 L808.910156,72.328125 C808.910156,70.6171789 809.402339,69.2988328 810.386719,68.3730469 C811.371099,67.447261 812.601555,66.984375 814.078125,66.984375 L814.324219,66.984375 L819.175781,73.6992188 L823.992188,66.984375 L824.203125,66.984375 C825.656257,66.984375 826.874995,67.447261 827.859375,68.3730469 C828.843755,69.2988328 829.347656,70.6171789 829.371094,72.328125 L832.078125,72.328125 L832.078125,69.0234375 L830.8125,69.0234375 C830.578124,69.0234375 830.378907,68.9238291 830.214844,68.7246094 C830.05078,68.5253896 829.96875,68.2968763 829.96875,68.0390625 C829.96875,67.7578111 830.05078,67.5234384 830.214844,67.3359375 C830.378907,67.1484366 830.578124,67.0546875 830.8125,67.0546875 L832.078125,67.0546875 L832.078125,66.4921875 L829.300781,66.4921875 C829.066405,66.4921875 828.867188,66.3984384 828.703125,66.2109375 C828.539062,66.0234366 828.457031,65.7890639 828.457031,65.5078125 C828.457031,65.2499987 828.539062,65.0273447 828.703125,64.8398438 C828.867188,64.6523428 829.066405,64.5585938 829.300781,64.5585938 L832.078125,64.5585938 L832.078125,63.9960938 L828.351562,63.9960938 C828.117186,63.9960938 827.91797,63.9023447 827.753906,63.7148438 C827.589843,63.5273428 827.507812,63.2929702 827.507812,63.0117188 C827.507812,62.753905 827.589843,62.5253916 827.753906,62.3261719 C827.91797,62.1269521 828.117186,62.0273438 828.351562,62.0273438 L832.078125,62.0273438 L832.078125,61.4648438 L830.25,61.4648438 C830.015624,61.4648438 829.816407,61.3710947 829.652344,61.1835938 C829.48828,60.9960928 829.40625,60.7617202 829.40625,60.4804688 C829.40625,60.222655 829.48828,60.0000009 829.652344,59.8125 C829.816407,59.6249991 830.015624,59.53125 830.25,59.53125 L832.078125,59.53125 L832.078125,52.8515625 Z M824.132812,63.7851562 C824.320313,63.9726572 824.425781,64.1894519 824.449219,64.4355469 C824.472656,64.6816419 824.425782,64.9101552 824.308594,65.1210938 L819.175781,72.2578125 L814.078125,65.2265625 C813.914062,65.0156239 813.84375,64.7695327 813.867188,64.4882812 C813.890625,64.2070298 813.996093,63.9726572 814.183594,63.7851562 C814.277344,63.6914058 814.376953,63.6269533 814.482422,63.5917969 C814.587891,63.5566404 814.699218,63.5507811 814.816406,63.5742188 L814.816406,58.6523438 C814.816406,57.292962 815.238277,56.126958 816.082031,55.1542969 C816.925785,54.1816358 817.945307,53.6953125 819.140625,53.6953125 C820.335943,53.6953125 821.355465,54.1816358 822.199219,55.1542969 C823.042973,56.126958 823.464844,57.292962 823.464844,58.6523438 C823.464844,58.6757814 823.458984,59.501945 823.447266,61.1308594 L823.429688,63.5742188 C823.570313,63.5507811 823.699218,63.5566404 823.816406,63.5917969 C823.933594,63.6269533 824.039062,63.6914058 824.132812,63.7851562 Z M816.152344,59.6015625 C816.152344,59.7890634 816.210937,59.9531243 816.328125,60.09375 C816.445313,60.2343757 816.585937,60.3046875 816.75,60.3046875 L818.121094,60.3046875 C818.285157,60.3046875 818.425781,60.2343757 818.542969,60.09375 C818.660157,59.9531243 818.71875,59.7890634 818.71875,59.6015625 C818.71875,59.4140616 818.660157,59.2500007 818.542969,59.109375 C818.425781,58.9687493 818.285157,58.8984375 818.121094,58.8984375 L816.75,58.8984375 C816.585937,58.8984375 816.445313,58.9687493 816.328125,59.109375 C816.210937,59.2500007 816.152344,59.4140616 816.152344,59.6015625 Z M819.140625,64.4882812 C819.445314,64.4882812 819.703124,64.3652356 819.914062,64.1191406 C820.125001,63.8730456 820.230469,63.5742205 820.230469,63.2226562 C820.230469,62.8945296 820.125001,62.6074231 819.914062,62.3613281 C819.703124,62.1152331 819.445314,61.9921875 819.140625,61.9921875 C818.835936,61.9921875 818.578126,62.1152331 818.367188,62.3613281 C818.156249,62.6074231 818.050781,62.8945296 818.050781,63.2226562 C818.050781,63.5742205 818.156249,63.8730456 818.367188,64.1191406 C818.578126,64.3652356 818.835936,64.4882812 819.140625,64.4882812 Z M821.496094,60.3046875 C821.660157,60.3046875 821.800781,60.2343757 821.917969,60.09375 C822.035157,59.9531243 822.09375,59.7890634 822.09375,59.6015625 C822.09375,59.4140616 822.035157,59.2500007 821.917969,59.109375 C821.800781,58.9687493 821.660157,58.8984375 821.496094,58.8984375 L820.125,58.8984375 C819.960937,58.8984375 819.820313,58.9687493 819.703125,59.109375 C819.585937,59.2500007 819.527344,59.4140616 819.527344,59.6015625 C819.527344,59.7890634 819.585937,59.9531243 819.703125,60.09375 C819.820313,60.2343757 819.960937,60.3046875 820.125,60.3046875 L821.496094,60.3046875 Z M804.375,79.9921875 L806.414062,79.9921875 L806.414062,82.3476562 L804.375,82.3476562 L804.375,79.9921875 Z M807.714844,79.9921875 L809.753906,79.9921875 L809.753906,82.3476562 L807.714844,82.3476562 L807.714844,79.9921875 Z M811.160156,79.9921875 L813.199219,79.9921875 L813.199219,82.3476562 L811.160156,82.3476562 L811.160156,79.9921875 Z M814.5,79.9921875 L816.539062,79.9921875 L816.539062,82.3476562 L814.5,82.3476562 L814.5,79.9921875 Z M817.945312,79.9921875 L819.984375,79.9921875 L819.984375,82.3476562 L817.945312,82.3476562 L817.945312,79.9921875 Z M821.285156,79.9921875 L823.324219,79.9921875 L823.324219,82.3476562 L821.285156,82.3476562 L821.285156,79.9921875 Z M824.730469,79.9921875 L826.769531,79.9921875 L826.769531,82.3476562 L824.730469,82.3476562 L824.730469,79.9921875 Z M828.070312,79.9921875 L830.109375,79.9921875 L830.109375,82.3476562 L828.070312,82.3476562 L828.070312,79.9921875 Z M804.375,83.8945312 L806.414062,83.8945312 L806.414062,86.25 L804.375,86.25 L804.375,83.8945312 Z M807.714844,83.8945312 L809.753906,83.8945312 L809.753906,86.25 L807.714844,86.25 L807.714844,83.8945312 Z M811.160156,83.8945312 L826.769531,83.8945312 L826.769531,86.25 L811.160156,86.25 L811.160156,83.8945312 Z M828.070312,83.8945312 L830.109375,83.8945312 L830.109375,86.25 L828.070312,86.25 L828.070312,83.8945312 Z M831.515625,79.9921875 L833.589844,79.9921875 L833.589844,82.3476562 L831.515625,82.3476562 L831.515625,79.9921875 Z M804.375,76.0898438 L806.414062,76.0898438 L806.414062,78.4453125 L804.375,78.4453125 L804.375,76.0898438 Z M807.714844,76.0898438 L809.753906,76.0898438 L809.753906,78.4453125 L807.714844,78.4453125 L807.714844,76.0898438 Z M811.160156,76.0898438 L813.199219,76.0898438 L813.199219,78.4453125 L811.160156,78.4453125 L811.160156,76.0898438 Z M814.5,76.0898438 L816.539062,76.0898438 L816.539062,78.4453125 L814.5,78.4453125 L814.5,76.0898438 Z M817.945312,76.0898438 L819.984375,76.0898438 L819.984375,78.4453125 L817.945312,78.4453125 L817.945312,76.0898438 Z M821.285156,76.0898438 L823.324219,76.0898438 L823.324219,78.4453125 L821.285156,78.4453125 L821.285156,76.0898438 Z M824.730469,76.0898438 L826.769531,76.0898438 L826.769531,78.4453125 L824.730469,78.4453125 L824.730469,76.0898438 Z M828.070312,76.0898438 L830.109375,76.0898438 L830.109375,78.4453125 L828.070312,78.4453125 L828.070312,76.0898438 Z M831.515625,76.0898438 L833.589844,76.0898438 L833.589844,78.4453125 L831.515625,78.4453125 L831.515625,76.0898438 Z M831.515625,83.8945312 L833.589844,83.8945312 L833.589844,86.25 L831.515625,86.25 L831.515625,83.8945312 Z" id=""></path>
        </g>
    </g>
</svg>