<?xml version="1.0" encoding="utf-8"?>
<!-- Generator: Adobe Illustrator 22.0.1, SVG Export Plug-In . SVG Version: 6.00 Build 0)  -->
<svg version="1.1" id="_x37_c84b398-bd8a-42f2-8527-01eb86eb64a3"
	 xmlns="http://www.w3.org/2000/svg" xmlns:xlink="http://www.w3.org/1999/xlink" x="0px" y="0px" viewBox="0 0 512 512"
	 style="enable-background:new 0 0 512 512;" xml:space="preserve">
<style type="text/css">
	.st0{fill:none;}
	.st1{fill:#65656B;}
	.st2{fill:#9D9D9F;}
	.st3{fill:#FF6C0C;}
</style>
<title>Logos_CCP_CCSC_WAF_0329</title>
<g id="CCSC_2_">
	<rect x="76" y="69" class="st0" width="360" height="360"/>
	<g>
		<g>
			<g>
				<path id="Shape_17_" class="st1" d="M260.1,178.5c0.5,0,0.8,0,0.8,0l-0.2,38c3,0,6.1,0.1,9.2,0.2c0.7,0,1.4,0.1,2,0.1
					c0.1,0,0.3,0,0.4,0c0.7,0,1.3,0.1,2,0.1c0.1,0,0.2,0,0.4,0c0.7,0,1.3,0.1,2,0.1h0.1c0.7,0,1.4,0.1,2.1,0.1c0.2,0,0.3,0,0.4,0
					c0.7,0,1.4,0.1,2,0.1c0.1,0,0.2,0,0.3,0c0.6,0,1.3,0.1,1.9,0.1c0.1,0,0.2,0,0.3,0c0.7,0.1,1.4,0.1,2,0.1c0.2,0,0.3,0,0.4,0
					c0.7,0.1,1.4,0.1,2,0.1c0.1,0,0.2,0,0.3,0c0.6,0.1,1.3,0.1,1.9,0.1c0.1,0,0.2,0,0.3,0c0.7,0.1,1.3,0.1,2,0.2c0.2,0,0.3,0,0.5,0
					c0.7,0.1,1.3,0.1,2,0.2c0.1,0,0.2,0,0.3,0c0.6,0.1,1.2,0.1,1.8,0.2c0.1,0,0.3,0,0.4,0c0.7,0.1,1.3,0.1,1.9,0.2
					c0.1,0,0.3,0,0.4,0c0.7,0.1,1.3,0.1,1.9,0.2c0.1,0,0.1,0,0.2,0c0.6,0.1,1.2,0.1,1.8,0.2c0.1,0,0.3,0,0.4,0
					c0.6,0.1,1.2,0.1,1.8,0.2c0.2,0,0.3,0,0.4,0.1c0.6,0.1,1.2,0.1,1.8,0.2h0.1c0.6,0.1,1.2,0.1,1.8,0.2c0.1,0,0.3,0,0.4,0
					c0.6,0.1,1.2,0.1,1.7,0.2c0.1,0,0.2,0,0.3,0c0.6,0.1,1.1,0.1,1.6,0.2c0.1,0,0.1,0,0.2,0c0.6,0.1,1.1,0.1,1.7,0.2
					c0.1,0,0.2,0,0.3,0c0.5,0.1,1.1,0.1,1.6,0.2c0.1,0,0.2,0,0.3,0c0.5,0.1,0.9,0.1,1.4,0.2c0.1,0,0.2,0,0.2,0
					c0.5,0.1,1,0.1,1.5,0.2c0.1,0,0.2,0,0.3,0c0.5,0.1,0.9,0.1,1.4,0.2c0.1,0,0.2,0,0.3,0c0.4,0.1,0.8,0.1,1.2,0.1
					c0.1,0,0.1,0,0.1,0c0.3-7-0.1-13.1-0.6-18.3c-0.4-4.1-1-7.7-1.5-10.4c-1.3-7.3-8.5-9.1-8.5-9.1c-5.1-1.3-10.9-2.2-16.7-2.8
					C280.9,178.2,263.9,178.4,260.1,178.5z"/>
				<path id="Shape_16_" class="st1" d="M323.8,234.4c-8.5,1.4-20.7,3.6-33.9,6.7c-10.8,2.5-20.7,5.2-29.4,8l-0.5,92.7l0.1,0.7
					c3.9-3.3,7.6-6.6,11.1-9.9C307.4,298.1,320.2,262.2,323.8,234.4z"/>
				<path id="Shape_15_" class="st2" d="M195.4,225c15.3-5.8,37.1-8.7,65.2-8.5l0.2-38c0,0-0.3,0-0.8,0c-3.8-0.1-20.8-0.3-37.5,1.6
					c-5.8,0.7-11.6,1.6-16.8,2.9c0,0-7.2,1.8-8.5,9.1c-0.5,2.8-1.1,6.3-1.5,10.5C195.2,208.7,194.9,216.3,195.4,225z"/>
				<path id="Shape_14_" class="st2" d="M260.5,249.1c-11.4,3.7-20.9,7.7-28.3,11.8c0,0-0.5,0.2-1.2,0.7c-3,1.8-5.7,3.6-7.9,5.3
					c-0.2,0.1-0.3,0.3-0.5,0.4c-3.4,2.6-12,11.3-5.3,25.6c0.1,0.4,0.3,0.7,0.4,1.1c0,0,2.6,4.7,7.7,11.7c2.8,3.9,6.4,8.6,10.9,13.6
					c2.8,3.3,6,6.7,9.5,10.1l0,0c1,1,2,2,3.1,3c3.5,3.3,7.2,6.6,11.1,9.9v-0.7L260.5,249.1z"/>
			</g>
			<path id="Shape_13_" class="st3" d="M225.4,305.8c-12.2-12.8-22-29.8-5.7-43c30.6-24.7,115.2-35.5,115.2-35.5s-35.8-4.5-65.1-5.3
				c-54.4-1.5-107.5,7.3-93.2,46.3c9.2,25.2,42.1,43.1,59.7,51C231.8,314.4,228.2,309.7,225.4,305.8z"/>
		</g>
		<g>
			<path class="st3" d="M129.7,238.7c5-62.3,54.9-111.8,117.4-116.2V104c-72.6,4.4-130.8,62.2-135.8,134.7H129.7z"/>
			<path class="st2" d="M265.1,122.4c62.4,4.4,112.3,54,117.4,116.2H401c-5.1-72.5-63.2-130.2-135.8-134.7L265.1,122.4L265.1,122.4z
				"/>
			<path class="st3" d="M382.6,256.7c-3.8,63.5-54.3,114.4-117.5,118.8V394c73.4-4.5,132.1-63.6,136-137.3H382.6z"/>
			<path class="st2" d="M247,375.5c-63.3-4.4-113.7-55.3-117.5-118.8H111c3.9,73.7,62.5,132.8,136,137.3V375.5z"/>
		</g>
	</g>
</g>
</svg>
