<?xml version="1.0" encoding="UTF-8" standalone="no"?>
<!DOCTYPE svg PUBLIC "-//W3C//DTD SVG 1.1//EN" "http://www.w3.org/Graphics/SVG/1.1/DTD/svg11.dtd">
<svg width="100%" height="100%" viewBox="0 0 94 13" version="1.1" xmlns="http://www.w3.org/2000/svg" xmlns:xlink="http://www.w3.org/1999/xlink" xml:space="preserve" xmlns:serif="http://www.serif.com/" style="fill-rule:evenodd;clip-rule:evenodd;stroke-linejoin:round;stroke-miterlimit:1.41421;">
    <g transform="matrix(1,0,0,1,-3,-5)">
        <g transform="matrix(1,0,0,1,3,15)">
            <g id="Approved-sites">
                <path d="M9.716,-0.658C9.753,-0.583 9.772,-0.504 9.772,-0.42C9.772,-0.28 9.718,-0.163 9.611,-0.07C9.504,0.023 9.375,0.07 9.226,0.07C8.993,0.07 8.829,-0.042 8.736,-0.266L7.742,-2.534L2.464,-2.534L1.456,-0.266C1.363,-0.042 1.199,0.07 0.966,0.07C0.817,0.07 0.686,0.021 0.574,-0.077C0.462,-0.175 0.406,-0.294 0.406,-0.434C0.406,-0.509 0.425,-0.583 0.462,-0.658L4.466,-9.562C4.522,-9.693 4.606,-9.791 4.718,-9.856C4.83,-9.921 4.951,-9.954 5.082,-9.954C5.222,-9.954 5.348,-9.919 5.46,-9.849C5.572,-9.779 5.656,-9.683 5.712,-9.562L9.716,-0.658ZM2.884,-3.486L7.322,-3.486L5.096,-8.512L2.884,-3.486Z" style="fill-rule:nonzero;"/>
                <path d="M14.653,-6.986C15.251,-6.986 15.778,-6.837 16.235,-6.538C16.693,-6.239 17.047,-5.822 17.299,-5.285C17.551,-4.748 17.677,-4.125 17.677,-3.416C17.677,-2.707 17.551,-2.088 17.299,-1.561C17.047,-1.034 16.695,-0.625 16.242,-0.336C15.79,-0.047 15.26,0.098 14.653,0.098C14.121,0.098 13.657,-0.019 13.26,-0.252C12.864,-0.485 12.563,-0.817 12.357,-1.246L12.357,2.044C12.357,2.212 12.308,2.345 12.21,2.443C12.112,2.541 11.975,2.59 11.797,2.59C11.62,2.59 11.48,2.539 11.377,2.436C11.275,2.333 11.223,2.203 11.223,2.044L11.223,-6.398C11.223,-6.566 11.275,-6.701 11.377,-6.804C11.48,-6.907 11.62,-6.958 11.797,-6.958C11.975,-6.958 12.112,-6.907 12.21,-6.804C12.308,-6.701 12.357,-6.566 12.357,-6.398L12.357,-5.642C12.563,-6.071 12.864,-6.403 13.26,-6.636C13.657,-6.869 14.121,-6.986 14.653,-6.986ZM14.429,-0.84C15.092,-0.84 15.605,-1.064 15.969,-1.512C16.333,-1.96 16.515,-2.595 16.515,-3.416C16.515,-4.237 16.333,-4.879 15.969,-5.341C15.605,-5.803 15.092,-6.034 14.429,-6.034C13.767,-6.034 13.256,-5.81 12.896,-5.362C12.537,-4.914 12.357,-4.275 12.357,-3.444C12.357,-2.613 12.537,-1.972 12.896,-1.519C13.256,-1.066 13.767,-0.84 14.429,-0.84Z" style="fill-rule:nonzero;"/>
                <path d="M22.796,-6.986C23.394,-6.986 23.921,-6.837 24.378,-6.538C24.836,-6.239 25.19,-5.822 25.442,-5.285C25.694,-4.748 25.82,-4.125 25.82,-3.416C25.82,-2.707 25.694,-2.088 25.442,-1.561C25.19,-1.034 24.838,-0.625 24.385,-0.336C23.933,-0.047 23.403,0.098 22.796,0.098C22.264,0.098 21.8,-0.019 21.403,-0.252C21.007,-0.485 20.706,-0.817 20.5,-1.246L20.5,2.044C20.5,2.212 20.451,2.345 20.353,2.443C20.255,2.541 20.118,2.59 19.94,2.59C19.763,2.59 19.623,2.539 19.52,2.436C19.418,2.333 19.366,2.203 19.366,2.044L19.366,-6.398C19.366,-6.566 19.418,-6.701 19.52,-6.804C19.623,-6.907 19.763,-6.958 19.94,-6.958C20.118,-6.958 20.255,-6.907 20.353,-6.804C20.451,-6.701 20.5,-6.566 20.5,-6.398L20.5,-5.642C20.706,-6.071 21.007,-6.403 21.403,-6.636C21.8,-6.869 22.264,-6.986 22.796,-6.986ZM22.572,-0.84C23.235,-0.84 23.748,-1.064 24.112,-1.512C24.476,-1.96 24.658,-2.595 24.658,-3.416C24.658,-4.237 24.476,-4.879 24.112,-5.341C23.748,-5.803 23.235,-6.034 22.572,-6.034C21.91,-6.034 21.399,-5.81 21.039,-5.362C20.68,-4.914 20.5,-4.275 20.5,-3.444C20.5,-2.613 20.68,-1.972 21.039,-1.519C21.399,-1.066 21.91,-0.84 22.572,-0.84Z" style="fill-rule:nonzero;"/>
                <path d="M30.884,-6.958C31.276,-6.986 31.472,-6.827 31.472,-6.482C31.472,-6.333 31.43,-6.214 31.346,-6.125C31.262,-6.036 31.117,-5.983 30.912,-5.964L30.492,-5.922C29.866,-5.866 29.402,-5.644 29.099,-5.257C28.795,-4.87 28.644,-4.415 28.644,-3.892L28.644,-0.49C28.644,-0.303 28.592,-0.163 28.49,-0.07C28.387,0.023 28.252,0.07 28.084,0.07C27.916,0.07 27.778,0.021 27.671,-0.077C27.563,-0.175 27.51,-0.313 27.51,-0.49L27.51,-6.398C27.51,-6.575 27.566,-6.713 27.678,-6.811C27.79,-6.909 27.925,-6.958 28.084,-6.958C28.233,-6.958 28.359,-6.909 28.462,-6.811C28.564,-6.713 28.616,-6.58 28.616,-6.412L28.616,-5.628C28.812,-6.039 29.089,-6.351 29.449,-6.566C29.808,-6.781 30.221,-6.907 30.688,-6.944L30.884,-6.958Z" style="fill-rule:nonzero;"/>
                <path d="M35.135,0.098C34.491,0.098 33.924,-0.047 33.434,-0.336C32.944,-0.625 32.566,-1.038 32.3,-1.575C32.034,-2.112 31.901,-2.735 31.901,-3.444C31.901,-4.153 32.034,-4.776 32.3,-5.313C32.566,-5.85 32.944,-6.263 33.434,-6.552C33.924,-6.841 34.491,-6.986 35.135,-6.986C35.779,-6.986 36.348,-6.841 36.843,-6.552C37.338,-6.263 37.718,-5.85 37.984,-5.313C38.25,-4.776 38.383,-4.153 38.383,-3.444C38.383,-2.735 38.25,-2.112 37.984,-1.575C37.718,-1.038 37.338,-0.625 36.843,-0.336C36.348,-0.047 35.779,0.098 35.135,0.098ZM35.135,-0.84C35.807,-0.84 36.323,-1.062 36.682,-1.505C37.041,-1.948 37.221,-2.595 37.221,-3.444C37.221,-4.275 37.039,-4.916 36.675,-5.369C36.311,-5.822 35.798,-6.048 35.135,-6.048C34.472,-6.048 33.959,-5.822 33.595,-5.369C33.231,-4.916 33.049,-4.275 33.049,-3.444C33.049,-2.604 33.229,-1.96 33.588,-1.512C33.947,-1.064 34.463,-0.84 35.135,-0.84Z" style="fill-rule:nonzero;"/>
                <path d="M44.902,-6.608C45.005,-6.832 45.168,-6.944 45.392,-6.944C45.532,-6.944 45.658,-6.897 45.77,-6.804C45.882,-6.711 45.938,-6.594 45.938,-6.454C45.938,-6.37 45.919,-6.295 45.882,-6.23L43.152,-0.35C43.096,-0.229 43.012,-0.133 42.9,-0.063C42.788,0.007 42.667,0.042 42.536,0.042C42.415,0.042 42.298,0.007 42.186,-0.063C42.074,-0.133 41.985,-0.229 41.92,-0.35L39.204,-6.23C39.167,-6.295 39.148,-6.365 39.148,-6.44C39.148,-6.58 39.211,-6.701 39.337,-6.804C39.463,-6.907 39.601,-6.958 39.75,-6.958C39.843,-6.958 39.934,-6.93 40.023,-6.874C40.112,-6.818 40.179,-6.739 40.226,-6.636L42.564,-1.386L44.902,-6.608Z" style="fill-rule:nonzero;"/>
                <path d="M52.373,-1.582C52.476,-1.582 52.565,-1.54 52.639,-1.456C52.714,-1.372 52.751,-1.265 52.751,-1.134C52.751,-0.901 52.588,-0.686 52.261,-0.49C51.925,-0.294 51.571,-0.147 51.197,-0.049C50.824,0.049 50.46,0.098 50.105,0.098C49.051,0.098 48.218,-0.215 47.606,-0.84C46.995,-1.465 46.689,-2.329 46.689,-3.43C46.689,-4.13 46.825,-4.748 47.095,-5.285C47.366,-5.822 47.746,-6.239 48.236,-6.538C48.726,-6.837 49.284,-6.986 49.909,-6.986C50.796,-6.986 51.501,-6.697 52.023,-6.118C52.546,-5.539 52.807,-4.755 52.807,-3.766C52.807,-3.579 52.77,-3.444 52.695,-3.36C52.621,-3.276 52.499,-3.234 52.331,-3.234L47.823,-3.234C47.907,-1.629 48.668,-0.826 50.105,-0.826C50.469,-0.826 50.782,-0.875 51.043,-0.973C51.305,-1.071 51.585,-1.204 51.883,-1.372C52.126,-1.512 52.289,-1.582 52.373,-1.582ZM49.923,-6.104C49.326,-6.104 48.848,-5.917 48.488,-5.544C48.129,-5.171 47.917,-4.643 47.851,-3.962L51.813,-3.962C51.795,-4.653 51.622,-5.182 51.295,-5.551C50.969,-5.92 50.511,-6.104 49.923,-6.104Z" style="fill-rule:nonzero;"/>
                <path d="M59.942,-9.94C60.12,-9.94 60.26,-9.889 60.362,-9.786C60.465,-9.683 60.516,-9.553 60.516,-9.394L60.516,-0.49C60.516,-0.322 60.465,-0.187 60.362,-0.084C60.26,0.019 60.12,0.07 59.942,0.07C59.765,0.07 59.627,0.019 59.529,-0.084C59.431,-0.187 59.382,-0.322 59.382,-0.49L59.382,-1.246C59.177,-0.817 58.876,-0.485 58.479,-0.252C58.083,-0.019 57.618,0.098 57.086,0.098C56.489,0.098 55.962,-0.051 55.504,-0.35C55.047,-0.649 54.692,-1.066 54.44,-1.603C54.188,-2.14 54.062,-2.763 54.062,-3.472C54.062,-4.172 54.188,-4.788 54.44,-5.32C54.692,-5.852 55.047,-6.263 55.504,-6.552C55.962,-6.841 56.489,-6.986 57.086,-6.986C57.618,-6.986 58.083,-6.869 58.479,-6.636C58.876,-6.403 59.177,-6.071 59.382,-5.642L59.382,-9.394C59.382,-9.562 59.431,-9.695 59.529,-9.793C59.627,-9.891 59.765,-9.94 59.942,-9.94ZM57.31,-0.84C57.973,-0.84 58.484,-1.066 58.843,-1.519C59.203,-1.972 59.382,-2.613 59.382,-3.444C59.382,-4.275 59.203,-4.914 58.843,-5.362C58.484,-5.81 57.973,-6.034 57.31,-6.034C56.648,-6.034 56.132,-5.81 55.763,-5.362C55.395,-4.914 55.21,-4.284 55.21,-3.472C55.21,-2.641 55.395,-1.995 55.763,-1.533C56.132,-1.071 56.648,-0.84 57.31,-0.84Z" style="fill-rule:nonzero;"/>
                <path d="M68.515,0.098C68.086,0.098 67.677,0.047 67.29,-0.056C66.903,-0.159 66.56,-0.303 66.261,-0.49C66.093,-0.602 65.974,-0.707 65.904,-0.805C65.834,-0.903 65.799,-1.022 65.799,-1.162C65.799,-1.283 65.834,-1.384 65.904,-1.463C65.974,-1.542 66.065,-1.582 66.177,-1.582C66.289,-1.582 66.452,-1.512 66.667,-1.372C66.947,-1.204 67.225,-1.071 67.5,-0.973C67.775,-0.875 68.118,-0.826 68.529,-0.826C69.033,-0.826 69.425,-0.915 69.705,-1.092C69.985,-1.269 70.125,-1.526 70.125,-1.862C70.125,-2.067 70.074,-2.233 69.971,-2.359C69.868,-2.485 69.691,-2.597 69.439,-2.695C69.187,-2.793 68.818,-2.893 68.333,-2.996C67.512,-3.173 66.924,-3.411 66.569,-3.71C66.214,-4.009 66.037,-4.415 66.037,-4.928C66.037,-5.329 66.149,-5.684 66.373,-5.992C66.597,-6.3 66.907,-6.543 67.304,-6.72C67.701,-6.897 68.151,-6.986 68.655,-6.986C69.019,-6.986 69.371,-6.937 69.712,-6.839C70.053,-6.741 70.354,-6.603 70.615,-6.426C70.932,-6.202 71.091,-5.969 71.091,-5.726C71.091,-5.605 71.054,-5.502 70.979,-5.418C70.904,-5.334 70.816,-5.292 70.713,-5.292C70.601,-5.292 70.433,-5.371 70.209,-5.53C69.948,-5.698 69.7,-5.829 69.467,-5.922C69.234,-6.015 68.944,-6.062 68.599,-6.062C68.16,-6.062 67.808,-5.964 67.542,-5.768C67.276,-5.572 67.143,-5.311 67.143,-4.984C67.143,-4.779 67.192,-4.613 67.29,-4.487C67.388,-4.361 67.551,-4.249 67.78,-4.151C68.009,-4.053 68.338,-3.957 68.767,-3.864C69.402,-3.724 69.894,-3.57 70.244,-3.402C70.594,-3.234 70.844,-3.029 70.993,-2.786C71.142,-2.543 71.217,-2.235 71.217,-1.862C71.217,-1.274 70.97,-0.8 70.475,-0.441C69.98,-0.082 69.327,0.098 68.515,0.098Z" style="fill-rule:nonzero;"/>
                <path d="M73.508,0.07C73.34,0.07 73.202,0.021 73.095,-0.077C72.988,-0.175 72.934,-0.313 72.934,-0.49L72.934,-6.398C72.934,-6.575 72.988,-6.713 73.095,-6.811C73.202,-6.909 73.34,-6.958 73.508,-6.958C73.676,-6.958 73.811,-6.909 73.914,-6.811C74.017,-6.713 74.068,-6.575 74.068,-6.398L74.068,-0.49C74.068,-0.303 74.017,-0.163 73.914,-0.07C73.811,0.023 73.676,0.07 73.508,0.07ZM73.508,-8.428C73.284,-8.428 73.102,-8.493 72.962,-8.624C72.822,-8.755 72.752,-8.927 72.752,-9.142C72.752,-9.347 72.822,-9.515 72.962,-9.646C73.102,-9.777 73.284,-9.842 73.508,-9.842C73.732,-9.842 73.914,-9.777 74.054,-9.646C74.194,-9.515 74.264,-9.347 74.264,-9.142C74.264,-8.927 74.194,-8.755 74.054,-8.624C73.914,-8.493 73.732,-8.428 73.508,-8.428Z" style="fill-rule:nonzero;"/>
                <path d="M79.327,-0.826C79.654,-0.798 79.817,-0.649 79.817,-0.378C79.817,-0.219 79.759,-0.1 79.642,-0.021C79.526,0.058 79.351,0.089 79.117,0.07L78.739,0.042C77.993,-0.014 77.442,-0.238 77.087,-0.63C76.733,-1.022 76.555,-1.615 76.555,-2.408L76.555,-5.922L75.617,-5.922C75.459,-5.922 75.335,-5.962 75.246,-6.041C75.158,-6.12 75.113,-6.225 75.113,-6.356C75.113,-6.496 75.158,-6.608 75.246,-6.692C75.335,-6.776 75.459,-6.818 75.617,-6.818L76.555,-6.818L76.555,-8.4C76.555,-8.577 76.607,-8.715 76.709,-8.813C76.812,-8.911 76.952,-8.96 77.129,-8.96C77.297,-8.96 77.433,-8.911 77.535,-8.813C77.638,-8.715 77.689,-8.577 77.689,-8.4L77.689,-6.818L79.243,-6.818C79.393,-6.818 79.512,-6.776 79.6,-6.692C79.689,-6.608 79.733,-6.496 79.733,-6.356C79.733,-6.225 79.689,-6.12 79.6,-6.041C79.512,-5.962 79.393,-5.922 79.243,-5.922L77.689,-5.922L77.689,-2.352C77.689,-1.839 77.794,-1.468 78.004,-1.239C78.214,-1.01 78.529,-0.882 78.949,-0.854L79.327,-0.826Z" style="fill-rule:nonzero;"/>
                <path d="M86.211,-1.582C86.313,-1.582 86.402,-1.54 86.477,-1.456C86.551,-1.372 86.589,-1.265 86.589,-1.134C86.589,-0.901 86.425,-0.686 86.099,-0.49C85.763,-0.294 85.408,-0.147 85.035,-0.049C84.661,0.049 84.297,0.098 83.943,0.098C82.888,0.098 82.055,-0.215 81.444,-0.84C80.832,-1.465 80.527,-2.329 80.527,-3.43C80.527,-4.13 80.662,-4.748 80.933,-5.285C81.203,-5.822 81.584,-6.239 82.074,-6.538C82.564,-6.837 83.121,-6.986 83.747,-6.986C84.633,-6.986 85.338,-6.697 85.861,-6.118C86.383,-5.539 86.645,-4.755 86.645,-3.766C86.645,-3.579 86.607,-3.444 86.533,-3.36C86.458,-3.276 86.337,-3.234 86.169,-3.234L81.661,-3.234C81.745,-1.629 82.505,-0.826 83.943,-0.826C84.307,-0.826 84.619,-0.875 84.881,-0.973C85.142,-1.071 85.422,-1.204 85.721,-1.372C85.963,-1.512 86.127,-1.582 86.211,-1.582ZM83.761,-6.104C83.163,-6.104 82.685,-5.917 82.326,-5.544C81.966,-5.171 81.754,-4.643 81.689,-3.962L85.651,-3.962C85.632,-4.653 85.459,-5.182 85.133,-5.551C84.806,-5.92 84.349,-6.104 83.761,-6.104Z" style="fill-rule:nonzero;"/>
                <path d="M90.602,0.098C90.172,0.098 89.764,0.047 89.377,-0.056C88.989,-0.159 88.646,-0.303 88.348,-0.49C88.18,-0.602 88.061,-0.707 87.991,-0.805C87.921,-0.903 87.886,-1.022 87.886,-1.162C87.886,-1.283 87.921,-1.384 87.991,-1.463C88.061,-1.542 88.152,-1.582 88.264,-1.582C88.376,-1.582 88.539,-1.512 88.754,-1.372C89.034,-1.204 89.311,-1.071 89.587,-0.973C89.862,-0.875 90.205,-0.826 90.616,-0.826C91.12,-0.826 91.512,-0.915 91.792,-1.092C92.072,-1.269 92.212,-1.526 92.212,-1.862C92.212,-2.067 92.16,-2.233 92.058,-2.359C91.955,-2.485 91.778,-2.597 91.526,-2.695C91.274,-2.793 90.905,-2.893 90.42,-2.996C89.598,-3.173 89.01,-3.411 88.656,-3.71C88.301,-4.009 88.124,-4.415 88.124,-4.928C88.124,-5.329 88.236,-5.684 88.46,-5.992C88.684,-6.3 88.994,-6.543 89.391,-6.72C89.787,-6.897 90.238,-6.986 90.742,-6.986C91.106,-6.986 91.458,-6.937 91.799,-6.839C92.139,-6.741 92.44,-6.603 92.702,-6.426C93.019,-6.202 93.178,-5.969 93.178,-5.726C93.178,-5.605 93.14,-5.502 93.066,-5.418C92.991,-5.334 92.902,-5.292 92.8,-5.292C92.688,-5.292 92.52,-5.371 92.296,-5.53C92.034,-5.698 91.787,-5.829 91.554,-5.922C91.32,-6.015 91.031,-6.062 90.686,-6.062C90.247,-6.062 89.895,-5.964 89.629,-5.768C89.363,-5.572 89.23,-5.311 89.23,-4.984C89.23,-4.779 89.279,-4.613 89.377,-4.487C89.475,-4.361 89.638,-4.249 89.867,-4.151C90.095,-4.053 90.424,-3.957 90.854,-3.864C91.488,-3.724 91.981,-3.57 92.331,-3.402C92.681,-3.234 92.93,-3.029 93.08,-2.786C93.229,-2.543 93.304,-2.235 93.304,-1.862C93.304,-1.274 93.056,-0.8 92.562,-0.441C92.067,-0.082 91.414,0.098 90.602,0.098Z" style="fill-rule:nonzero;"/>
            </g>
        </g>
    </g>
</svg>
