<?xml version="1.0" encoding="UTF-8" standalone="no"?>
<!DOCTYPE svg PUBLIC "-//W3C//DTD SVG 1.1//EN" "http://www.w3.org/Graphics/SVG/1.1/DTD/svg11.dtd">
<svg width="100%" height="100%" viewBox="0 0 1397 535" version="1.1" xmlns="http://www.w3.org/2000/svg" xmlns:xlink="http://www.w3.org/1999/xlink" xml:space="preserve" xmlns:serif="http://www.serif.com/" style="fill-rule:evenodd;clip-rule:evenodd;stroke-linecap:round;stroke-miterlimit:1.41421;">
    <g transform="matrix(1,0,0,1,1,-3)">
        <g transform="matrix(4.16667,0,0,4.16667,0,0)">
            <rect x="0.923" y="106.719" width="324.957" height="22.281" style="fill:rgb(152,152,152);fill-rule:nonzero;"/>
            <path d="M26.407,119.25L24.825,115.113C24.711,114.831 24.597,114.475 24.483,114.044C24.429,114.257 24.373,114.455 24.316,114.638C24.259,114.821 24.203,114.985 24.149,115.128L22.574,119.25L26.407,119.25ZM29.533,123.224L28.316,123.224C28.177,123.224 28.063,123.19 27.974,123.12C27.885,123.051 27.821,122.961 27.781,122.853L26.838,120.379L22.136,120.379L21.193,122.853C21.158,122.946 21.094,123.032 21,123.109C20.906,123.186 20.792,123.224 20.658,123.224L19.44,123.224L23.689,112.559L25.285,112.559L29.533,123.224Z" style="fill:white;fill-rule:nonzero;"/>
            <path d="M36.612,121.954C37.037,121.954 37.419,121.882 37.755,121.738C38.092,121.595 38.377,121.393 38.61,121.133C38.842,120.873 39.02,120.564 39.144,120.204C39.268,119.846 39.33,119.448 39.33,119.013L39.33,112.559L40.904,112.559L40.904,119.013C40.904,119.637 40.805,120.213 40.607,120.743C40.409,121.273 40.125,121.731 39.753,122.117C39.382,122.503 38.931,122.806 38.402,123.024C37.872,123.241 37.275,123.35 36.612,123.35C35.948,123.35 35.351,123.241 34.821,123.024C34.292,122.806 33.841,122.503 33.47,122.117C33.099,121.731 32.814,121.273 32.616,120.743C32.418,120.213 32.319,119.637 32.319,119.013L32.319,112.559L33.901,112.559L33.901,119.005C33.901,119.441 33.961,119.84 34.083,120.201C34.204,120.563 34.381,120.873 34.613,121.133C34.846,121.393 35.131,121.595 35.468,121.738C35.804,121.882 36.186,121.954 36.612,121.954Z" style="fill:white;fill-rule:nonzero;"/>
            <path d="M52.52,113.881L49.133,113.881L49.133,123.224L47.559,123.224L47.559,113.881L44.157,113.881L44.157,112.559L52.52,112.559L52.52,113.881Z" style="fill:white;fill-rule:nonzero;"/>
            <path d="M64.633,112.559L64.633,123.224L63.051,123.224L63.051,118.418L57.488,118.418L57.488,123.224L55.899,123.224L55.899,112.559L57.488,112.559L57.488,117.268L63.051,117.268L63.051,112.559L64.633,112.559Z" style="fill:white;fill-rule:nonzero;"/>
            <path d="M77.429,117.891C77.429,117.258 77.342,116.688 77.17,116.183C76.996,115.678 76.75,115.25 76.43,114.899C76.111,114.547 75.725,114.277 75.272,114.089C74.819,113.901 74.313,113.807 73.753,113.807C73.194,113.807 72.687,113.901 72.234,114.089C71.781,114.277 71.394,114.547 71.072,114.899C70.75,115.25 70.503,115.678 70.329,116.183C70.156,116.688 70.069,117.258 70.069,117.891C70.069,118.53 70.156,119.101 70.329,119.603C70.503,120.106 70.75,120.532 71.072,120.884C71.394,121.236 71.781,121.504 72.234,121.691C72.687,121.876 73.194,121.969 73.753,121.969C74.313,121.969 74.819,121.876 75.272,121.691C75.725,121.504 76.111,121.236 76.43,120.884C76.75,120.532 76.996,120.106 77.17,119.603C77.342,119.101 77.429,118.53 77.429,117.891ZM79.049,117.891C79.049,118.689 78.921,119.42 78.666,120.086C78.411,120.752 78.05,121.326 77.585,121.809C77.12,122.292 76.563,122.667 75.914,122.934C75.265,123.201 74.545,123.335 73.753,123.335C72.966,123.335 72.246,123.201 71.595,122.934C70.945,122.667 70.387,122.292 69.925,121.809C69.462,121.326 69.101,120.752 68.844,120.086C68.586,119.42 68.458,118.689 68.458,117.891C68.458,117.099 68.586,116.368 68.844,115.7C69.101,115.031 69.462,114.456 69.925,113.974C70.387,113.49 70.945,113.114 71.595,112.845C72.246,112.574 72.966,112.44 73.753,112.44C74.545,112.44 75.265,112.574 75.914,112.845C76.563,113.114 77.12,113.49 77.585,113.974C78.05,114.456 78.411,115.031 78.666,115.7C78.921,116.368 79.049,117.099 79.049,117.891Z" style="fill:white;fill-rule:nonzero;"/>
            <path d="M85.896,117.698C86.302,117.698 86.659,117.649 86.969,117.55C87.279,117.45 87.537,117.311 87.745,117.13C87.953,116.949 88.11,116.734 88.213,116.484C88.318,116.234 88.369,115.958 88.369,115.655C88.369,115.042 88.167,114.579 87.764,114.267C87.361,113.955 86.755,113.799 85.948,113.799L84.455,113.799L84.455,117.698L85.896,117.698ZM90.872,123.224L89.461,123.224C89.179,123.224 88.974,123.113 88.845,122.89L86.208,119.191C86.124,119.068 86.032,118.98 85.933,118.927C85.834,118.875 85.686,118.85 85.487,118.85L84.455,118.85L84.455,123.224L82.873,123.224L82.873,112.559L85.948,112.559C86.636,112.559 87.23,112.629 87.727,112.771C88.225,112.911 88.635,113.112 88.96,113.372C89.284,113.632 89.525,113.946 89.68,114.312C89.836,114.678 89.914,115.089 89.914,115.544C89.914,115.915 89.858,116.265 89.743,116.592C89.629,116.918 89.462,117.212 89.242,117.472C89.022,117.732 88.753,117.955 88.436,118.144C88.119,118.332 87.76,118.476 87.36,118.574C87.557,118.694 87.728,118.86 87.871,119.072L90.872,123.224Z" style="fill:white;fill-rule:nonzero;"/>
            <rect x="94.08" y="112.559" width="1.59" height="10.665" style="fill:white;fill-rule:nonzero;"/>
            <path d="M107.323,113.146C107.323,113.323 107.269,113.494 107.16,113.657L101.27,121.939L107.219,121.939L107.219,123.224L99.197,123.224L99.197,122.6C99.197,122.516 99.211,122.437 99.238,122.363C99.266,122.288 99.302,122.216 99.346,122.147L105.252,113.844L99.494,113.844L99.494,112.559L107.323,112.559L107.323,113.146Z" style="fill:white;fill-rule:nonzero;"/>
            <path d="M117.557,121.939L117.55,123.224L110.94,123.224L110.94,112.559L117.55,112.559L117.55,113.844L112.53,113.844L112.53,117.223L116.57,117.223L116.57,118.463L112.53,118.463L112.53,121.939L117.557,121.939Z" style="fill:white;fill-rule:nonzero;"/>
            <path d="M129.039,117.891C129.039,117.258 128.953,116.69 128.779,116.187C128.606,115.685 128.36,115.258 128.041,114.909C127.721,114.561 127.335,114.294 126.882,114.111C126.428,113.928 125.923,113.836 125.363,113.836L122.942,113.836L122.942,121.946L125.363,121.946C125.923,121.946 126.428,121.855 126.882,121.672C127.335,121.488 127.721,121.222 128.041,120.873C128.36,120.525 128.606,120.1 128.779,119.6C128.953,119.1 129.039,118.53 129.039,117.891ZM130.658,117.891C130.658,118.689 130.531,119.414 130.276,120.068C130.021,120.721 129.66,121.281 129.195,121.749C128.729,122.217 128.173,122.58 127.524,122.838C126.876,123.095 126.155,123.224 125.363,123.224L121.352,123.224L121.352,112.559L125.363,112.559C126.155,112.559 126.876,112.688 127.524,112.945C128.173,113.202 128.729,113.565 129.195,114.033C129.66,114.501 130.021,115.063 130.276,115.719C130.531,116.375 130.658,117.099 130.658,117.891Z" style="fill:white;fill-rule:nonzero;"/>
            <path d="M146.909,113.881L143.522,113.881L143.522,123.224L141.947,123.224L141.947,113.881L138.546,113.881L138.546,112.559L146.909,112.559L146.909,113.881Z" style="fill:white;fill-rule:nonzero;"/>
            <path d="M153.31,117.698C153.716,117.698 154.074,117.649 154.383,117.55C154.693,117.45 154.952,117.311 155.16,117.13C155.368,116.949 155.524,116.734 155.628,116.484C155.732,116.234 155.784,115.958 155.784,115.655C155.784,115.042 155.582,114.579 155.178,114.267C154.775,113.955 154.17,113.799 153.363,113.799L151.87,113.799L151.87,117.698L153.31,117.698ZM158.287,123.224L156.876,123.224C156.593,123.224 156.388,123.113 156.259,122.89L153.623,119.191C153.539,119.068 153.447,118.98 153.347,118.927C153.249,118.875 153.1,118.85 152.902,118.85L151.87,118.85L151.87,123.224L150.288,123.224L150.288,112.559L153.363,112.559C154.05,112.559 154.644,112.629 155.141,112.771C155.639,112.911 156.049,113.112 156.375,113.372C156.699,113.632 156.939,113.946 157.094,114.312C157.251,114.678 157.329,115.089 157.329,115.544C157.329,115.915 157.272,116.265 157.158,116.592C157.044,116.918 156.877,117.212 156.657,117.472C156.436,117.732 156.168,117.955 155.85,118.144C155.534,118.332 155.174,118.476 154.774,118.574C154.971,118.694 155.142,118.86 155.286,119.072L158.287,123.224Z" style="fill:white;fill-rule:nonzero;"/>
            <path d="M167.162,119.25L165.58,115.113C165.465,114.831 165.352,114.475 165.238,114.044C165.183,114.257 165.128,114.455 165.071,114.638C165.014,114.821 164.959,114.985 164.904,115.128L163.33,119.25L167.162,119.25ZM170.289,123.224L169.07,123.224C168.931,123.224 168.818,123.19 168.729,123.12C168.639,123.051 168.575,122.961 168.536,122.853L167.592,120.379L162.891,120.379L161.948,122.853C161.914,122.946 161.849,123.032 161.755,123.109C161.661,123.186 161.547,123.224 161.413,123.224L160.195,123.224L164.443,112.559L166.041,112.559L170.289,123.224Z" style="fill:white;fill-rule:nonzero;"/>
            <rect x="173.46" y="112.559" width="1.589" height="10.665" style="fill:white;fill-rule:nonzero;"/>
            <path d="M188.254,112.559L188.254,123.224L187.451,123.224C187.328,123.224 187.225,123.201 187.143,123.157C187.061,123.113 186.978,123.04 186.894,122.942L180.871,115.151C180.881,115.284 180.889,115.415 180.897,115.544C180.904,115.673 180.908,115.794 180.908,115.908L180.908,123.224L179.519,123.224L179.519,112.559L180.337,112.559C180.475,112.559 180.579,112.574 180.648,112.607C180.717,112.639 180.795,112.712 180.879,112.826L186.917,120.624C186.902,120.481 186.89,120.341 186.883,120.204C186.876,120.069 186.872,119.941 186.872,119.822L186.872,112.559L188.254,112.559Z" style="fill:white;fill-rule:nonzero;"/>
            <rect x="192.732" y="112.559" width="1.59" height="10.665" style="fill:white;fill-rule:nonzero;"/>
            <path d="M207.527,112.559L207.527,123.224L206.724,123.224C206.601,123.224 206.499,123.201 206.417,123.157C206.335,123.113 206.252,123.04 206.168,122.942L200.144,115.151C200.154,115.284 200.163,115.415 200.171,115.544C200.177,115.673 200.181,115.794 200.181,115.908L200.181,123.224L198.793,123.224L198.793,112.559L199.61,112.559C199.749,112.559 199.852,112.574 199.922,112.607C199.991,112.639 200.068,112.712 200.152,112.826L206.19,120.624C206.175,120.481 206.164,120.341 206.157,120.204C206.149,120.069 206.145,119.941 206.145,119.822L206.145,112.559L207.527,112.559Z" style="fill:white;fill-rule:nonzero;"/>
            <path d="M220.709,118.032L220.709,122.192C220.17,122.577 219.595,122.866 218.986,123.057C218.377,123.247 217.714,123.343 216.996,123.343C216.134,123.343 215.355,123.209 214.66,122.942C213.965,122.674 213.371,122.3 212.882,121.821C212.391,121.34 212.013,120.766 211.749,120.097C211.483,119.429 211.351,118.694 211.351,117.891C211.351,117.084 211.478,116.345 211.734,115.674C211.989,115.003 212.354,114.429 212.829,113.951C213.304,113.474 213.88,113.102 214.556,112.837C215.232,112.572 215.991,112.44 216.833,112.44C217.258,112.44 217.653,112.472 218.017,112.536C218.381,112.601 218.718,112.693 219.031,112.811C219.342,112.93 219.631,113.072 219.896,113.238C220.161,113.405 220.407,113.591 220.634,113.799L220.181,114.512C220.112,114.626 220.021,114.697 219.907,114.728C219.793,114.757 219.67,114.73 219.536,114.646C219.407,114.571 219.264,114.485 219.109,114.386C218.953,114.286 218.767,114.196 218.551,114.111C218.337,114.027 218.085,113.955 217.798,113.896C217.51,113.836 217.172,113.807 216.78,113.807C216.196,113.807 215.669,113.902 215.198,114.092C214.728,114.283 214.327,114.557 213.995,114.913C213.664,115.27 213.409,115.699 213.23,116.201C213.051,116.704 212.963,117.268 212.963,117.891C212.963,118.545 213.056,119.13 213.245,119.648C213.433,120.165 213.699,120.604 214.044,120.962C214.387,121.321 214.805,121.595 215.298,121.783C215.791,121.971 216.342,122.066 216.951,122.066C217.189,122.066 217.41,122.052 217.616,122.025C217.821,121.997 218.018,121.959 218.206,121.909C218.394,121.86 218.576,121.798 218.752,121.724C218.927,121.65 219.102,121.568 219.276,121.479L219.276,119.243L217.701,119.243C217.602,119.243 217.521,119.213 217.46,119.154C217.398,119.095 217.367,119.02 217.367,118.931L217.367,118.032L220.709,118.032Z" style="fill:white;fill-rule:nonzero;"/>
            <path d="M233.506,118.047C233.907,118.047 234.259,117.995 234.564,117.891C234.869,117.787 235.124,117.64 235.329,117.449C235.535,117.259 235.689,117.031 235.794,116.766C235.897,116.501 235.95,116.208 235.95,115.886C235.95,115.238 235.748,114.728 235.344,114.356C234.94,113.985 234.328,113.799 233.506,113.799L231.857,113.799L231.857,118.047L233.506,118.047ZM233.506,112.559C234.189,112.559 234.783,112.638 235.289,112.796C235.794,112.955 236.212,113.179 236.544,113.469C236.876,113.758 237.122,114.109 237.283,114.52C237.443,114.931 237.524,115.386 237.524,115.886C237.524,116.386 237.437,116.845 237.264,117.264C237.09,117.682 236.836,118.042 236.499,118.344C236.162,118.647 235.743,118.88 235.24,119.046C234.738,119.212 234.16,119.295 233.506,119.295L231.857,119.295L231.857,123.224L230.275,123.224L230.275,112.559L233.506,112.559Z" style="fill:white;fill-rule:nonzero;"/>
            <path d="M246.028,119.25L244.446,115.113C244.332,114.831 244.218,114.475 244.104,114.044C244.049,114.257 243.994,114.455 243.937,114.638C243.881,114.821 243.825,114.985 243.77,115.128L242.196,119.25L246.028,119.25ZM249.155,123.224L247.936,123.224C247.798,123.224 247.684,123.19 247.595,123.12C247.506,123.051 247.441,122.961 247.402,122.853L246.459,120.379L241.757,120.379L240.814,122.853C240.78,122.946 240.715,123.032 240.621,123.109C240.527,123.186 240.413,123.224 240.279,123.224L239.061,123.224L243.309,112.559L244.907,112.559L249.155,123.224Z" style="fill:white;fill-rule:nonzero;"/>
            <path d="M255.348,117.698C255.755,117.698 256.112,117.649 256.422,117.55C256.73,117.45 256.989,117.311 257.198,117.13C257.406,116.949 257.562,116.734 257.665,116.484C257.769,116.234 257.821,115.958 257.821,115.655C257.821,115.042 257.62,114.579 257.216,114.267C256.812,113.955 256.208,113.799 255.401,113.799L253.908,113.799L253.908,117.698L255.348,117.698ZM260.325,123.224L258.914,123.224C258.631,123.224 258.426,123.113 258.298,122.89L255.661,119.191C255.577,119.068 255.485,118.98 255.385,118.927C255.287,118.875 255.138,118.85 254.94,118.85L253.908,118.85L253.908,123.224L252.326,123.224L252.326,112.559L255.401,112.559C256.088,112.559 256.682,112.629 257.178,112.771C257.677,112.911 258.088,113.112 258.413,113.372C258.737,113.632 258.976,113.946 259.131,114.312C259.289,114.678 259.367,115.089 259.367,115.544C259.367,115.915 259.31,116.265 259.196,116.592C259.082,116.918 258.915,117.212 258.695,117.472C258.474,117.732 258.206,117.955 257.888,118.144C257.571,118.332 257.213,118.476 256.812,118.574C257.009,118.694 257.18,118.86 257.324,119.072L260.325,123.224Z" style="fill:white;fill-rule:nonzero;"/>
            <path d="M270.47,113.881L267.084,113.881L267.084,123.224L265.508,123.224L265.508,113.881L262.107,113.881L262.107,112.559L270.47,112.559L270.47,113.881Z" style="fill:white;fill-rule:nonzero;"/>
            <path d="M282.583,112.559L282.583,123.224L281.78,123.224C281.657,123.224 281.554,123.201 281.472,123.157C281.39,123.113 281.307,123.04 281.223,122.942L275.2,115.151C275.21,115.284 275.218,115.415 275.226,115.544C275.233,115.673 275.237,115.794 275.237,115.908L275.237,123.224L273.848,123.224L273.848,112.559L274.666,112.559C274.804,112.559 274.908,112.574 274.977,112.607C275.047,112.639 275.124,112.712 275.208,112.826L281.246,120.624C281.231,120.481 281.219,120.341 281.213,120.204C281.205,120.069 281.201,119.941 281.201,119.822L281.201,112.559L282.583,112.559Z" style="fill:white;fill-rule:nonzero;"/>
            <path d="M293.678,121.939L293.672,123.224L287.061,123.224L287.061,112.559L293.672,112.559L293.672,113.844L288.651,113.844L288.651,117.223L292.691,117.223L292.691,118.463L288.651,118.463L288.651,121.939L293.678,121.939Z" style="fill:white;fill-rule:nonzero;"/>
            <path d="M300.496,117.698C300.902,117.698 301.259,117.649 301.569,117.55C301.879,117.45 302.137,117.311 302.345,117.13C302.553,116.949 302.71,116.734 302.813,116.484C302.918,116.234 302.969,115.958 302.969,115.655C302.969,115.042 302.767,114.579 302.364,114.267C301.961,113.955 301.355,113.799 300.548,113.799L299.055,113.799L299.055,117.698L300.496,117.698ZM305.472,123.224L304.061,123.224C303.779,123.224 303.574,123.113 303.445,122.89L300.808,119.191C300.724,119.068 300.632,118.98 300.533,118.927C300.434,118.875 300.286,118.85 300.088,118.85L299.055,118.85L299.055,123.224L297.473,123.224L297.473,112.559L300.548,112.559C301.236,112.559 301.83,112.629 302.327,112.771C302.825,112.911 303.235,113.112 303.56,113.372C303.884,113.632 304.125,113.946 304.28,114.312C304.436,114.678 304.514,115.089 304.514,115.544C304.514,115.915 304.458,116.265 304.343,116.592C304.229,116.918 304.062,117.212 303.842,117.472C303.622,117.732 303.353,117.955 303.036,118.144C302.719,118.332 302.36,118.476 301.96,118.574C302.157,118.694 302.328,118.86 302.471,119.072L305.472,123.224Z" style="fill:white;fill-rule:nonzero;"/>
            <path d="M52.407,5.53C49.727,5.53 47.187,6.228 44.787,7.625C42.387,9.021 40.512,10.902 39.165,13.267C37.816,15.632 37.143,18.269 37.143,21.176C37.143,25.48 38.635,29.114 41.618,32.079C44.601,35.045 48.198,36.526 52.407,36.526C55.218,36.526 57.819,35.844 60.211,34.481C62.603,33.119 64.469,31.254 65.808,28.888C67.149,26.523 67.819,23.895 67.819,21.003C67.819,18.13 67.149,15.53 65.808,13.206C64.469,10.882 62.582,9.021 60.15,7.625C57.716,6.228 55.136,5.53 52.407,5.53ZM52.247,2.01C57.732,2.01 62.322,3.84 66.017,7.5C69.713,11.16 71.56,15.665 71.56,21.016C71.56,26.318 69.717,30.815 66.029,34.507C62.343,38.2 57.847,40.047 52.542,40.047C47.172,40.047 42.638,38.21 38.944,34.533C35.248,30.855 33.401,26.408 33.401,21.189C33.401,17.709 34.242,14.484 35.925,11.513C37.609,8.543 39.904,6.216 42.811,4.533C45.718,2.851 48.863,2.01 52.247,2.01Z" style="fill:white;fill-rule:nonzero;"/>
            <path d="M81.377,40.342L81.377,1.88L82.214,1.88L107.812,31.363L107.812,1.88L111.604,1.88L111.604,40.342L110.741,40.342L85.352,11.218L85.352,40.342L81.377,40.342Z" style="fill:white;fill-rule:nonzero;"/>
            <rect x="122.027" y="1.863" width="3.599" height="38.407" style="fill:white;fill-rule:nonzero;"/>
            <path d="M243.387,25.113L248.509,12.007L253.602,25.113L243.387,25.113ZM252.149,1.884L244.78,1.884L234.402,29.646L255.273,29.729L259.281,40.141L266.834,40.141L252.149,1.884Z" style="fill:white;fill-rule:nonzero;"/>
            <path d="M274.685,1.884L281.952,1.884L281.952,33.133L296.441,33.133L296.441,40.063L274.685,40.063L274.685,1.884Z" style="fill:white;fill-rule:nonzero;"/>
            <path d="M304.163,1.884L311.43,1.884L311.43,33.133L325.919,33.133L325.919,40.063L304.163,40.063L304.163,1.884Z" style="fill:white;fill-rule:nonzero;"/>
            <path d="M245.701,56.225C245.701,56.225 227.923,49.824 224.004,39.174C219.615,27.251 235.887,24.529 252.532,25.003C261.502,25.258 272.465,26.623 272.465,26.623C272.465,26.623 246.565,29.921 237.207,37.472C228.067,44.847 245.701,56.225 245.701,56.225Z" style="fill:rgb(243,109,36);fill-rule:nonzero;"/>
            <path d="M168.49,31.012C165.094,34.842 160.904,36.763 155.91,36.763C151.274,36.763 147.434,35.279 144.391,32.309C141.347,29.34 139.826,25.636 139.826,21.198C139.826,18.262 140.506,15.618 141.867,13.267C143.228,10.916 145.146,9.044 147.621,7.65C150.095,6.256 152.784,5.559 155.688,5.559C158.343,5.559 160.781,6.091 163,7.155C165.121,8.173 166.949,9.651 168.49,11.581L168.49,6.653C167.391,5.741 166.177,4.642 164.843,3.988C162.105,2.643 159.036,1.971 155.637,1.971C150.012,1.971 145.332,3.79 141.594,7.427C137.858,11.065 135.99,15.548 135.99,20.877C135.99,25.941 137.533,30.263 140.617,33.843C144.297,38.083 149.319,40.203 155.688,40.203C159.036,40.203 162.068,39.572 164.781,38.309C166.129,37.683 167.364,36.614 168.49,35.729L168.49,31.012Z" style="fill:white;fill-rule:nonzero;"/>
            <path d="M13.786,19.278C5.123,17.503 3.48,15.243 3.48,11.695L3.48,11.59C3.48,7.835 7.06,5.109 11.991,5.109C16.122,5.109 19.398,6.348 22.614,9.126L22.918,9.388L22.993,9.296L22.993,5.05C19.666,2.827 16.368,1.889 12.095,1.889C5.199,1.889 0,6.172 0,11.851L0,11.955C0,17.696 3.648,20.777 12.592,22.587C20.992,24.277 22.585,26.483 22.585,29.961L22.585,30.065C22.585,34.095 18.956,36.911 13.761,36.911C8.694,36.911 5.106,35.422 0.962,31.601L0.669,31.332L0.603,31.407L0.603,35.788C4.573,38.774 8.671,40.132 13.605,40.132C20.941,40.132 26.065,35.884 26.065,29.804L26.065,29.701C26.065,24.148 22.393,21.03 13.786,19.278Z" style="fill:white;fill-rule:nonzero;"/>
            <path d="M223.435,1.883L214.706,27.858L214.518,28.418L214.333,27.857L205.729,1.773L198.743,1.773L190.14,27.857L189.955,28.418L189.766,27.858L181.039,1.883L172.371,1.883L186.181,40.243L193.284,40.243L201.94,15.227L202.126,14.69L202.312,15.227L210.969,40.243L218.072,40.243L231.882,1.883L223.435,1.883Z" style="fill:white;fill-rule:nonzero;"/>
            <path d="M33.764,90.551C34.279,91.443 34.947,92.107 35.769,92.542C36.591,92.977 37.527,93.196 38.576,93.196C39.231,93.196 39.844,93.096 40.419,92.898C40.993,92.7 41.493,92.424 41.919,92.067C42.344,91.711 42.681,91.279 42.929,90.775C43.176,90.269 43.3,89.7 43.3,89.065C43.3,88.334 43.146,87.73 42.84,87.254C42.532,86.778 42.121,86.388 41.607,86.081C41.091,85.774 40.512,85.511 39.869,85.293C39.225,85.075 38.562,84.857 37.879,84.64C37.195,84.423 36.531,84.174 35.888,83.896C35.244,83.62 34.665,83.258 34.151,82.812C33.635,82.368 33.224,81.807 32.917,81.134C32.61,80.461 32.457,79.63 32.457,78.638C32.457,77.708 32.64,76.881 33.006,76.158C33.373,75.435 33.868,74.832 34.492,74.345C35.115,73.861 35.833,73.495 36.645,73.247C37.458,72.999 38.309,72.876 39.2,72.876C40.349,72.876 41.414,73.079 42.394,73.484C43.374,73.89 44.221,74.568 44.934,75.519L43.241,76.737C42.746,76.044 42.166,75.524 41.503,75.177C40.839,74.832 40.052,74.658 39.141,74.658C38.507,74.658 37.903,74.742 37.329,74.91C36.754,75.078 36.254,75.326 35.829,75.652C35.403,75.98 35.061,76.391 34.804,76.885C34.546,77.381 34.418,77.966 34.418,78.638C34.418,79.688 34.685,80.495 35.219,81.059C35.755,81.624 36.423,82.07 37.225,82.396C38.027,82.724 38.898,83.01 39.839,83.258C40.779,83.507 41.651,83.838 42.454,84.254C43.256,84.669 43.925,85.248 44.459,85.992C44.993,86.734 45.26,87.758 45.26,89.065C45.26,90.016 45.083,90.859 44.726,91.59C44.37,92.324 43.889,92.943 43.285,93.447C42.681,93.953 41.983,94.335 41.191,94.592C40.399,94.848 39.577,94.978 38.725,94.978C37.339,94.978 36.061,94.735 34.893,94.25C33.724,93.765 32.724,92.948 31.892,91.799L33.764,90.551Z" style="fill:white;fill-rule:nonzero;"/>
            <path d="M71.85,86.422C71.85,85.809 71.726,85.233 71.479,84.699C71.231,84.164 70.894,83.693 70.468,83.287C70.043,82.882 69.537,82.559 68.953,82.323C68.369,82.085 67.75,81.966 67.097,81.966C66.126,81.966 65.319,82.165 64.675,82.559C64.032,82.956 63.522,83.412 63.146,83.926C62.769,84.442 62.501,84.942 62.343,85.426C62.185,85.913 62.106,86.244 62.106,86.422L71.85,86.422ZM73.216,91.859C72.523,92.908 71.667,93.662 70.647,94.116C69.626,94.572 68.503,94.8 67.275,94.8C66.225,94.8 65.275,94.621 64.422,94.264C63.571,93.908 62.838,93.409 62.224,92.764C61.611,92.122 61.14,91.358 60.813,90.477C60.487,89.596 60.323,88.621 60.323,87.55C60.323,86.521 60.491,85.571 60.828,84.699C61.165,83.828 61.64,83.07 62.254,82.426C62.868,81.784 63.591,81.278 64.422,80.911C65.254,80.545 66.175,80.362 67.186,80.362C68.236,80.362 69.161,80.545 69.964,80.911C70.765,81.278 71.439,81.763 71.983,82.368C72.528,82.971 72.939,83.66 73.216,84.432C73.494,85.205 73.632,85.987 73.632,86.778L73.632,88.026L62.106,88.026C62.106,88.403 62.18,88.882 62.328,89.466C62.477,90.051 62.749,90.621 63.146,91.174C63.542,91.729 64.071,92.205 64.735,92.601C65.398,92.998 66.255,93.196 67.304,93.196C68.216,93.196 69.097,92.977 69.948,92.542C70.8,92.107 71.453,91.512 71.909,90.759L73.216,91.859Z" style="fill:white;fill-rule:nonzero;"/>
            <path d="M100.994,92.424C100.32,93.236 99.557,93.835 98.705,94.219C97.854,94.607 96.933,94.8 95.943,94.8C94.893,94.8 93.923,94.621 93.031,94.264C92.141,93.908 91.377,93.409 90.744,92.764C90.11,92.122 89.615,91.358 89.259,90.477C88.902,89.596 88.724,88.631 88.724,87.581C88.724,86.531 88.902,85.566 89.259,84.684C89.615,83.803 90.11,83.041 90.744,82.396C91.377,81.754 92.141,81.253 93.031,80.896C93.923,80.54 94.893,80.362 95.943,80.362C96.952,80.362 97.889,80.57 98.75,80.986C99.612,81.401 100.38,81.985 101.052,82.739L99.626,83.808C99.112,83.234 98.547,82.783 97.933,82.456C97.319,82.13 96.655,81.966 95.943,81.966C95.111,81.966 94.358,82.115 93.685,82.411C93.011,82.709 92.437,83.11 91.962,83.615C91.487,84.12 91.125,84.714 90.878,85.397C90.63,86.081 90.506,86.808 90.506,87.581C90.506,88.353 90.63,89.081 90.878,89.764C91.125,90.447 91.487,91.042 91.962,91.548C92.437,92.051 93.011,92.453 93.685,92.75C94.358,93.048 95.111,93.196 95.943,93.196C96.696,93.196 97.384,93.022 98.007,92.674C98.631,92.329 99.171,91.869 99.626,91.295L100.994,92.424Z" style="fill:white;fill-rule:nonzero;"/>
            <path d="M127.285,90.582C127.285,90.839 127.295,91.151 127.314,91.517C127.334,91.883 127.349,92.256 127.358,92.632C127.369,93.007 127.383,93.359 127.403,93.685C127.423,94.012 127.433,94.264 127.433,94.443L125.65,94.443C125.631,93.928 125.616,93.433 125.606,92.958C125.596,92.483 125.571,92.175 125.532,92.037L125.442,92.037C125.086,92.79 124.492,93.438 123.66,93.983C122.829,94.527 121.858,94.8 120.749,94.8C119.679,94.8 118.803,94.631 118.12,94.295C117.436,93.958 116.902,93.517 116.515,92.972C116.13,92.428 115.866,91.799 115.728,91.087C115.59,90.374 115.52,89.641 115.52,88.887L115.52,80.718L117.303,80.718L117.303,88.799C117.303,89.353 117.352,89.893 117.451,90.418C117.55,90.943 117.723,91.413 117.97,91.829C118.218,92.245 118.565,92.577 119.011,92.824C119.457,93.071 120.036,93.196 120.749,93.196C121.402,93.196 122.021,93.081 122.605,92.854C123.189,92.627 123.695,92.28 124.121,91.814C124.547,91.349 124.882,90.765 125.131,90.061C125.378,89.358 125.502,88.531 125.502,87.581L125.502,80.718L127.285,80.718L127.285,90.582Z" style="fill:white;fill-rule:nonzero;"/>
            <path d="M144.069,84.581C144.069,84.323 144.059,84.011 144.04,83.644C144.019,83.278 144.005,82.907 143.995,82.531C143.984,82.155 143.97,81.802 143.951,81.475C143.93,81.149 143.921,80.896 143.921,80.718L145.704,80.718C145.722,81.233 145.737,81.728 145.748,82.203C145.757,82.679 145.782,82.986 145.822,83.124C146.278,82.313 146.862,81.649 147.575,81.134C148.288,80.62 149.159,80.362 150.189,80.362C150.367,80.362 150.541,80.377 150.71,80.407C150.878,80.435 151.05,80.47 151.229,80.51L151.021,82.263C150.784,82.183 150.555,82.144 150.338,82.144C149.565,82.144 148.896,82.268 148.332,82.515C147.768,82.764 147.302,83.105 146.936,83.54C146.57,83.976 146.298,84.486 146.12,85.07C145.941,85.654 145.851,86.284 145.851,86.958L145.851,94.443L144.069,94.443L144.069,84.581Z" style="fill:white;fill-rule:nonzero;"/>
            <path d="M176.065,86.422C176.065,85.809 175.941,85.233 175.694,84.699C175.446,84.164 175.11,83.693 174.684,83.287C174.257,82.882 173.753,82.559 173.169,82.323C172.585,82.085 171.965,81.966 171.311,81.966C170.34,81.966 169.534,82.165 168.89,82.559C168.247,82.956 167.737,83.412 167.361,83.926C166.984,84.442 166.716,84.942 166.558,85.426C166.4,85.913 166.32,86.244 166.32,86.422L176.065,86.422ZM177.432,91.859C176.738,92.908 175.882,93.662 174.862,94.116C173.841,94.572 172.717,94.8 171.491,94.8C170.44,94.8 169.489,94.621 168.637,94.264C167.786,93.908 167.053,93.409 166.439,92.764C165.826,92.122 165.355,91.358 165.028,90.477C164.702,89.596 164.538,88.621 164.538,87.55C164.538,86.521 164.706,85.571 165.044,84.699C165.38,83.828 165.855,83.07 166.469,82.426C167.083,81.784 167.806,81.278 168.637,80.911C169.469,80.545 170.39,80.362 171.401,80.362C172.45,80.362 173.377,80.545 174.179,80.911C174.98,81.278 175.654,81.763 176.199,82.368C176.743,82.971 177.154,83.66 177.432,84.432C177.709,85.205 177.847,85.987 177.847,86.778L177.847,88.026L166.32,88.026C166.32,88.403 166.395,88.882 166.544,89.466C166.692,90.051 166.965,90.621 167.361,91.174C167.757,91.729 168.286,92.205 168.95,92.601C169.613,92.998 170.47,93.196 171.519,93.196C172.431,93.196 173.312,92.977 174.163,92.542C175.015,92.107 175.669,91.512 176.124,90.759L177.432,91.859Z" style="fill:white;fill-rule:nonzero;"/>
            <path d="M194.217,73.41L206.813,73.41L206.813,75.193L196.178,75.193L196.178,82.679L206.071,82.679L206.071,84.461L196.178,84.461L196.178,94.443L194.217,94.443L194.217,73.41Z" style="fill:white;fill-rule:nonzero;"/>
            <path d="M222.41,80.718L224.191,80.718L224.191,94.443L222.41,94.443L222.41,80.718ZM221.964,75.281C221.964,74.905 222.092,74.589 222.35,74.331C222.606,74.074 222.924,73.944 223.3,73.944C223.676,73.944 223.993,74.074 224.252,74.331C224.508,74.589 224.637,74.905 224.637,75.281C224.637,75.659 224.508,75.975 224.252,76.233C223.993,76.49 223.676,76.618 223.3,76.618C222.924,76.618 222.606,76.49 222.35,76.233C222.092,75.975 221.964,75.659 221.964,75.281Z" style="fill:white;fill-rule:nonzero;"/>
            <path d="M241.125,84.581C241.125,84.323 241.115,84.011 241.095,83.644C241.075,83.278 241.06,82.907 241.05,82.531C241.04,82.155 241.025,81.802 241.006,81.475C240.985,81.149 240.976,80.896 240.976,80.718L242.758,80.718C242.778,81.233 242.793,81.728 242.803,82.203C242.813,82.679 242.838,82.986 242.878,83.124C243.333,82.313 243.917,81.649 244.63,81.134C245.343,80.62 246.215,80.362 247.245,80.362C247.423,80.362 247.595,80.377 247.764,80.407C247.932,80.435 248.105,80.47 248.284,80.51L248.077,82.263C247.839,82.183 247.611,82.144 247.393,82.144C246.621,82.144 245.953,82.268 245.388,82.515C244.824,82.764 244.358,83.105 243.992,83.54C243.625,83.976 243.352,84.486 243.174,85.07C242.996,85.654 242.908,86.284 242.908,86.958L242.908,94.443L241.125,94.443L241.125,84.581Z" style="fill:white;fill-rule:nonzero;"/>
            <path d="M262.93,90.938C263.306,91.671 263.861,92.23 264.593,92.616C265.326,93.003 266.098,93.196 266.911,93.196C267.287,93.196 267.663,93.135 268.04,93.017C268.416,92.898 268.754,92.73 269.049,92.511C269.346,92.295 269.59,92.032 269.777,91.725C269.965,91.418 270.06,91.067 270.06,90.671C270.06,90.036 269.857,89.561 269.451,89.245C269.045,88.927 268.546,88.679 267.951,88.502C267.356,88.323 266.703,88.17 265.99,88.042C265.277,87.912 264.623,87.714 264.029,87.447C263.434,87.179 262.934,86.808 262.529,86.334C262.122,85.857 261.92,85.184 261.92,84.312C261.92,83.64 262.058,83.055 262.336,82.559C262.612,82.065 262.975,81.654 263.42,81.327C263.866,81.001 264.365,80.758 264.92,80.599C265.475,80.44 266.04,80.362 266.614,80.362C267.743,80.362 268.718,80.57 269.54,80.986C270.361,81.401 271.001,82.055 271.456,82.946L269.852,83.896C269.514,83.263 269.094,82.783 268.589,82.456C268.085,82.13 267.425,81.966 266.614,81.966C266.297,81.966 265.965,82.015 265.619,82.115C265.272,82.214 264.96,82.351 264.683,82.531C264.405,82.709 264.173,82.937 263.984,83.214C263.796,83.492 263.703,83.808 263.703,84.164C263.703,84.778 263.905,85.233 264.311,85.531C264.716,85.828 265.217,86.06 265.812,86.228C266.406,86.397 267.059,86.542 267.773,86.66C268.485,86.778 269.138,86.971 269.733,87.239C270.327,87.507 270.828,87.893 271.234,88.398C271.638,88.902 271.841,89.62 271.841,90.551C271.841,91.264 271.709,91.883 271.441,92.408C271.173,92.933 270.807,93.374 270.341,93.73C269.876,94.087 269.346,94.354 268.754,94.532C268.159,94.711 267.535,94.8 266.881,94.8C265.692,94.8 264.608,94.572 263.628,94.116C262.647,93.662 261.889,92.958 261.355,92.007L262.93,90.938Z" style="fill:white;fill-rule:nonzero;"/>
            <path d="M294.153,82.323L290.231,82.323L290.231,91.264C290.231,91.879 290.399,92.353 290.737,92.691C291.073,93.028 291.54,93.196 292.132,93.196C292.469,93.196 292.811,93.151 293.158,93.062C293.504,92.972 293.836,92.859 294.153,92.719L294.301,94.324C293.965,94.443 293.579,94.552 293.143,94.651C292.707,94.751 292.321,94.8 291.984,94.8C291.351,94.8 290.805,94.706 290.351,94.517C289.894,94.33 289.528,94.077 289.251,93.76C288.974,93.444 288.771,93.071 288.642,92.646C288.513,92.22 288.45,91.759 288.45,91.264L288.45,82.323L285.478,82.323L285.478,80.718L288.45,80.718L288.45,76.767L290.231,76.767L290.231,80.718L294.153,80.718L294.153,82.323Z" style="fill:white;fill-rule:nonzero;"/>
            <path d="M0.479,61.651L325.588,61.651" style="fill:white;stroke:white;stroke-width:0.62px;"/>
            <path d="M7.258,83.964C7.258,85.879 5.705,87.432 3.789,87.432C1.873,87.432 0.32,85.879 0.32,83.964C0.32,82.048 1.873,80.494 3.789,80.494C5.705,80.494 7.258,82.048 7.258,83.964Z" style="fill:rgb(243,109,36);fill-rule:nonzero;"/>
            <path d="M325.729,83.964C325.729,85.879 324.175,87.432 322.26,87.432C320.344,87.432 318.792,85.879 318.792,83.964C318.792,82.048 320.344,80.494 322.26,80.494C324.175,80.494 325.729,82.048 325.729,83.964Z" style="fill:rgb(243,109,36);fill-rule:nonzero;"/>
            <path d="M331.103,4.462C331.281,4.462 331.425,4.448 331.536,4.419C331.646,4.39 331.734,4.346 331.798,4.288C331.86,4.231 331.904,4.159 331.927,4.073C331.952,3.988 331.964,3.891 331.964,3.781C331.964,3.675 331.954,3.583 331.933,3.502C331.913,3.423 331.874,3.356 331.817,3.303C331.761,3.25 331.683,3.211 331.585,3.185C331.486,3.16 331.357,3.147 331.201,3.147L330.653,3.147L330.653,4.462L331.103,4.462ZM331.201,2.318C331.84,2.318 332.306,2.431 332.603,2.661C332.901,2.889 333.049,3.217 333.049,3.643C333.049,3.947 332.97,4.212 332.813,4.44C332.657,4.667 332.413,4.832 332.082,4.934C332.157,4.982 332.22,5.038 332.273,5.105C332.327,5.172 332.377,5.249 332.424,5.338L333.35,6.91L332.301,6.91C332.148,6.91 332.041,6.854 331.979,6.74L331.242,5.394C331.208,5.346 331.17,5.31 331.127,5.284C331.085,5.259 331.02,5.246 330.934,5.246L330.653,5.246L330.653,6.91L329.552,6.91L329.552,2.318L331.201,2.318ZM331.221,7.796C331.511,7.796 331.789,7.758 332.055,7.683C332.322,7.608 332.57,7.502 332.8,7.365C333.031,7.229 333.241,7.066 333.43,6.874C333.62,6.683 333.782,6.47 333.914,6.234C334.048,5.998 334.151,5.746 334.224,5.476C334.298,5.206 334.334,4.923 334.334,4.627C334.334,4.33 334.298,4.045 334.224,3.772C334.151,3.498 334.048,3.243 333.914,3.006C333.782,2.769 333.62,2.554 333.43,2.361C333.241,2.168 333.031,2.003 332.8,1.864C332.57,1.726 332.322,1.619 332.055,1.544C331.789,1.469 331.511,1.432 331.221,1.432C330.931,1.432 330.655,1.469 330.391,1.544C330.13,1.619 329.883,1.726 329.654,1.864C329.425,2.003 329.218,2.168 329.033,2.361C328.846,2.554 328.687,2.769 328.553,3.006C328.421,3.243 328.318,3.498 328.247,3.772C328.175,4.045 328.139,4.33 328.139,4.627C328.139,5.07 328.218,5.485 328.378,5.871C328.536,6.257 328.754,6.592 329.03,6.876C329.306,7.161 329.632,7.386 330.007,7.55C330.383,7.714 330.788,7.796 331.221,7.796ZM331.221,0.842C331.569,0.842 331.905,0.888 332.227,0.978C332.549,1.069 332.851,1.196 333.131,1.36C333.411,1.524 333.666,1.721 333.896,1.951C334.127,2.182 334.324,2.437 334.487,2.717C334.651,2.997 334.779,3.298 334.869,3.621C334.96,3.943 335.005,4.278 335.005,4.627C335.005,4.971 334.96,5.305 334.869,5.627C334.779,5.95 334.651,6.251 334.487,6.528C334.324,6.806 334.127,7.061 333.896,7.291C333.666,7.521 333.411,7.719 333.131,7.882C332.851,8.047 332.549,8.174 332.227,8.264C331.905,8.355 331.569,8.4 331.221,8.4C330.874,8.4 330.539,8.355 330.217,8.264C329.897,8.174 329.597,8.047 329.319,7.882C329.041,7.719 328.787,7.521 328.556,7.291C328.326,7.061 328.13,6.806 327.965,6.528C327.801,6.251 327.674,5.95 327.584,5.63C327.494,5.309 327.448,4.975 327.448,4.627C327.448,4.278 327.494,3.943 327.584,3.621C327.674,3.298 327.801,2.997 327.965,2.717C328.13,2.437 328.326,2.182 328.556,1.951C328.787,1.721 329.041,1.524 329.319,1.36C329.597,1.196 329.897,1.069 330.217,0.978C330.539,0.888 330.874,0.842 331.221,0.842Z" style="fill:white;fill-rule:nonzero;"/>
        </g>
    </g>
</svg>
