<?xml version="1.0" encoding="UTF-8" standalone="no"?>
<!DOCTYPE svg PUBLIC "-//W3C//DTD SVG 1.1//EN" "http://www.w3.org/Graphics/SVG/1.1/DTD/svg11.dtd">
<svg width="100%" height="100%" viewBox="0 0 2191 130" version="1.1" xmlns="http://www.w3.org/2000/svg" xmlns:xlink="http://www.w3.org/1999/xlink" xml:space="preserve" xmlns:serif="http://www.serif.com/" style="fill-rule:evenodd;clip-rule:evenodd;stroke-linejoin:round;stroke-miterlimit:1.41421;">
    <g transform="matrix(1,0,0,1,-986,-1251)">
        <g transform="matrix(1,0,0,1,1142,725)">
            <g id="bullet-2" serif:id="bullet 2" transform="matrix(1,0,0,1,-385.683,77.0484)">
                <path d="M256.728,539.328C252.12,539.328 247.8,538.2 243.768,535.944C239.736,533.688 236.544,530.616 234.192,526.728C231.84,522.84 230.664,518.544 230.664,513.84C230.664,509.424 231.792,505.248 234.048,501.312C236.304,497.376 239.424,494.208 243.408,491.808C247.392,489.408 251.832,488.208 256.728,488.208C261.336,488.208 265.632,489.336 269.616,491.592C273.6,493.848 276.792,496.92 279.192,500.808C281.592,504.696 282.792,509.04 282.792,513.84C282.792,518.448 281.616,522.696 279.264,526.584C276.912,530.472 273.744,533.568 269.76,535.872C265.776,538.176 261.432,539.328 256.728,539.328Z" style="fill:rgb(71,175,232);fill-rule:nonzero;"/>
                <path d="M410.286,499.872C416.142,501.408 420.678,504.288 423.894,508.512C427.11,512.736 428.718,518.016 428.718,524.352C428.718,533.28 425.79,540.12 419.934,544.872C414.078,549.624 405.774,552 395.022,552L358.734,552C356.91,552 355.446,551.472 354.342,550.416C353.238,549.36 352.686,547.968 352.686,546.24L352.686,456.24C352.686,454.512 353.238,453.12 354.342,452.064C355.446,451.008 356.91,450.48 358.734,450.48L393.438,450.48C403.902,450.48 412.014,452.784 417.774,457.392C423.534,462 426.414,468.528 426.414,476.976C426.414,482.448 424.998,487.152 422.166,491.088C419.334,495.024 415.374,497.952 410.286,499.872ZM364.35,495.552L391.71,495.552C399.294,495.552 405.03,494.016 408.918,490.944C412.806,487.872 414.75,483.408 414.75,477.552C414.75,466.032 407.07,460.272 391.71,460.272L364.35,460.272L364.35,495.552ZM393.87,542.208C401.838,542.208 407.718,540.744 411.51,537.816C415.302,534.888 417.198,530.304 417.198,524.064C417.198,511.584 409.422,505.344 393.87,505.344L364.35,505.344L364.35,542.208L393.87,542.208Z" style="fill:rgb(255,121,26);fill-rule:nonzero;"/>
                <path d="M453.918,552.72C452.19,552.72 450.774,552.216 449.67,551.208C448.566,550.2 448.014,548.784 448.014,546.96L448.014,455.52C448.014,453.696 448.566,452.28 449.67,451.272C450.774,450.264 452.19,449.76 453.918,449.76C455.55,449.76 456.918,450.264 458.022,451.272C459.126,452.28 459.678,453.696 459.678,455.52L459.678,546.96C459.678,548.784 459.126,550.2 458.022,551.208C456.918,552.216 455.55,552.72 453.918,552.72Z" style="fill:rgb(255,121,26);fill-rule:nonzero;"/>
                <path d="M510.51,553.008C503.886,553.008 498.054,551.52 493.014,548.544C487.974,545.568 484.086,541.32 481.35,535.8C478.614,530.28 477.246,523.872 477.246,516.576C477.246,509.28 478.614,502.872 481.35,497.352C484.086,491.832 487.974,487.584 493.014,484.608C498.054,481.632 503.886,480.144 510.51,480.144C517.134,480.144 522.99,481.632 528.078,484.608C533.166,487.584 537.078,491.832 539.814,497.352C542.55,502.872 543.918,509.28 543.918,516.576C543.918,523.872 542.55,530.28 539.814,535.8C537.078,541.32 533.166,545.568 528.078,548.544C522.99,551.52 517.134,553.008 510.51,553.008ZM510.51,543.36C517.422,543.36 522.726,541.08 526.422,536.52C530.118,531.96 531.966,525.312 531.966,516.576C531.966,508.032 530.094,501.432 526.35,496.776C522.606,492.12 517.326,489.792 510.51,489.792C503.694,489.792 498.414,492.12 494.67,496.776C490.926,501.432 489.054,508.032 489.054,516.576C489.054,525.216 490.902,531.84 494.598,536.448C498.294,541.056 503.598,543.36 510.51,543.36Z" style="fill:rgb(255,121,26);fill-rule:nonzero;"/>
                <path d="M590.286,553.008C583.758,553.008 577.974,551.52 572.934,548.544C567.894,545.568 564.006,541.344 561.27,535.872C558.534,530.4 557.166,524.064 557.166,516.864C557.166,509.664 558.582,503.28 561.414,497.712C564.246,492.144 568.206,487.824 573.294,484.752C578.382,481.68 584.238,480.144 590.862,480.144C594.51,480.144 598.134,480.648 601.734,481.656C605.334,482.664 608.478,484.128 611.166,486.048C612.894,487.2 614.118,488.328 614.838,489.432C615.558,490.536 615.918,491.76 615.918,493.104C615.918,494.448 615.558,495.552 614.838,496.416C614.118,497.28 613.182,497.712 612.03,497.712C611.358,497.712 610.638,497.52 609.87,497.136C609.102,496.752 608.454,496.368 607.926,495.984C607.398,495.6 607.038,495.36 606.846,495.264C604.35,493.632 601.974,492.336 599.718,491.376C597.462,490.416 594.702,489.936 591.438,489.936C584.43,489.936 578.982,492.312 575.094,497.064C571.206,501.816 569.262,508.416 569.262,516.864C569.262,525.312 571.206,531.84 575.094,536.448C578.982,541.056 584.43,543.36 591.438,543.36C594.702,543.36 597.51,542.88 599.862,541.92C602.214,540.96 604.59,539.664 606.99,538.032C608.046,537.36 609.054,536.784 610.014,536.304C610.974,535.824 611.79,535.584 612.462,535.584C613.518,535.584 614.406,536.016 615.126,536.88C615.846,537.744 616.206,538.848 616.206,540.192C616.206,541.44 615.87,542.568 615.198,543.576C614.526,544.584 613.278,545.712 611.454,546.96C608.766,548.784 605.526,550.248 601.734,551.352C597.942,552.456 594.126,553.008 590.286,553.008Z" style="fill:rgb(255,121,26);fill-rule:nonzero;"/>
                <path d="M686.334,542.784C687.87,544.224 688.638,545.76 688.638,547.392C688.638,548.832 688.134,550.08 687.126,551.136C686.118,552.192 684.894,552.72 683.454,552.72C682.206,552.72 680.91,552.144 679.566,550.992L641.982,518.592L641.982,546.96C641.982,548.784 641.43,550.2 640.326,551.208C639.222,552.216 637.854,552.72 636.222,552.72C634.494,552.72 633.078,552.216 631.974,551.208C630.87,550.2 630.318,548.784 630.318,546.96L630.318,455.52C630.318,453.696 630.87,452.28 631.974,451.272C633.078,450.264 634.494,449.76 636.222,449.76C637.854,449.76 639.222,450.264 640.326,451.272C641.43,452.28 641.982,453.696 641.982,455.52L641.982,513.984L676.398,482.448C677.55,481.296 678.846,480.72 680.286,480.72C681.726,480.72 682.974,481.248 684.03,482.304C685.086,483.36 685.614,484.608 685.614,486.048C685.614,487.68 684.942,489.12 683.598,490.368L655.23,515.712L686.334,542.784Z" style="fill:rgb(255,121,26);fill-rule:nonzero;"/>
                <path d="M755.31,535.728C756.366,535.728 757.278,536.16 758.046,537.024C758.814,537.888 759.198,538.992 759.198,540.336C759.198,542.736 757.518,544.944 754.158,546.96C750.702,548.976 747.054,550.488 743.214,551.496C739.374,552.504 735.63,553.008 731.982,553.008C721.134,553.008 712.566,549.792 706.278,543.36C699.99,536.928 696.846,528.048 696.846,516.72C696.846,509.52 698.238,503.16 701.022,497.64C703.806,492.12 707.718,487.824 712.758,484.752C717.798,481.68 723.534,480.144 729.966,480.144C739.086,480.144 746.334,483.12 751.71,489.072C757.086,495.024 759.774,503.088 759.774,513.264C759.774,515.184 759.39,516.576 758.622,517.44C757.854,518.304 756.606,518.736 754.878,518.736L708.51,518.736C709.374,535.248 717.198,543.504 731.982,543.504C735.726,543.504 738.942,543 741.63,541.992C744.318,540.984 747.198,539.616 750.27,537.888C752.766,536.448 754.446,535.728 755.31,535.728ZM730.11,489.216C723.966,489.216 719.046,491.136 715.35,494.976C711.654,498.816 709.47,504.24 708.798,511.248L749.55,511.248C749.358,504.144 747.582,498.696 744.222,494.904C740.862,491.112 736.158,489.216 730.11,489.216Z" style="fill:rgb(255,121,26);fill-rule:nonzero;"/>
                <path d="M833.214,449.76C835.038,449.76 836.478,450.288 837.534,451.344C838.59,452.4 839.118,453.744 839.118,455.376L839.118,546.96C839.118,548.688 838.59,550.08 837.534,551.136C836.478,552.192 835.038,552.72 833.214,552.72C831.39,552.72 829.974,552.192 828.966,551.136C827.958,550.08 827.454,548.688 827.454,546.96L827.454,539.184C825.342,543.6 822.246,547.008 818.166,549.408C814.086,551.808 809.31,553.008 803.838,553.008C797.694,553.008 792.27,551.472 787.566,548.4C782.862,545.328 779.214,541.032 776.622,535.512C774.03,529.992 772.734,523.584 772.734,516.288C772.734,509.088 774.03,502.752 776.622,497.28C779.214,491.808 782.862,487.584 787.566,484.608C792.27,481.632 797.694,480.144 803.838,480.144C809.31,480.144 814.086,481.344 818.166,483.744C822.246,486.144 825.342,489.552 827.454,493.968L827.454,455.376C827.454,453.648 827.958,452.28 828.966,451.272C829.974,450.264 831.39,449.76 833.214,449.76ZM806.142,543.36C812.958,543.36 818.214,541.032 821.91,536.376C825.606,531.72 827.454,525.12 827.454,516.576C827.454,508.032 825.606,501.456 821.91,496.848C818.214,492.24 812.958,489.936 806.142,489.936C799.326,489.936 794.022,492.24 790.23,496.848C786.438,501.456 784.542,507.936 784.542,516.288C784.542,524.832 786.438,531.48 790.23,536.232C794.022,540.984 799.326,543.36 806.142,543.36Z" style="fill:rgb(255,121,26);fill-rule:nonzero;"/>
                <path d="M957.918,542.064C959.646,542.064 960.99,542.496 961.95,543.36C962.91,544.224 963.39,545.424 963.39,546.96C963.39,548.592 962.934,549.84 962.022,550.704C961.11,551.568 959.742,552 957.918,552L910.254,552C908.43,552 907.062,551.568 906.15,550.704C905.238,549.84 904.782,548.592 904.782,546.96C904.782,545.424 905.262,544.224 906.222,543.36C907.182,542.496 908.526,542.064 910.254,542.064L928.11,542.064L928.11,464.88L912.414,475.104C911.646,475.584 910.878,475.824 910.11,475.824C908.766,475.824 907.59,475.2 906.582,473.952C905.574,472.704 905.07,471.36 905.07,469.92C905.07,467.904 905.838,466.464 907.374,465.6L929.262,451.344C930.894,450.288 932.574,449.76 934.302,449.76C935.934,449.76 937.278,450.288 938.334,451.344C939.39,452.4 939.918,453.888 939.918,455.808L939.918,542.064L957.918,542.064Z" style="fill:rgb(255,121,26);fill-rule:nonzero;"/>
                <path d="M1016.67,553.152C1005.05,553.152 996.222,548.736 990.174,539.904C984.126,531.072 981.102,518.208 981.102,501.312C981.102,484.32 984.126,471.408 990.174,462.576C996.222,453.744 1005.05,449.328 1016.67,449.328C1028.29,449.328 1037.12,453.72 1043.17,462.504C1049.21,471.288 1052.24,484.176 1052.24,501.168C1052.24,518.16 1049.21,531.072 1043.17,539.904C1037.12,548.736 1028.29,553.152 1016.67,553.152ZM1016.67,543.216C1024.73,543.216 1030.69,539.808 1034.53,532.992C1038.37,526.176 1040.29,515.568 1040.29,501.168C1040.29,486.672 1038.39,476.064 1034.6,469.344C1030.81,462.624 1024.83,459.264 1016.67,459.264C1008.61,459.264 1002.65,462.648 998.814,469.416C994.974,476.184 993.054,486.768 993.054,501.168C993.054,515.568 994.974,526.176 998.814,532.992C1002.65,539.808 1008.61,543.216 1016.67,543.216Z" style="fill:rgb(255,121,26);fill-rule:nonzero;"/>
                <path d="M1103.07,553.152C1091.45,553.152 1082.62,548.736 1076.57,539.904C1070.53,531.072 1067.5,518.208 1067.5,501.312C1067.5,484.32 1070.53,471.408 1076.57,462.576C1082.62,453.744 1091.45,449.328 1103.07,449.328C1114.69,449.328 1123.52,453.72 1129.57,462.504C1135.61,471.288 1138.64,484.176 1138.64,501.168C1138.64,518.16 1135.61,531.072 1129.57,539.904C1123.52,548.736 1114.69,553.152 1103.07,553.152ZM1103.07,543.216C1111.13,543.216 1117.09,539.808 1120.93,532.992C1124.77,526.176 1126.69,515.568 1126.69,501.168C1126.69,486.672 1124.79,476.064 1121,469.344C1117.21,462.624 1111.23,459.264 1103.07,459.264C1095.01,459.264 1089.05,462.648 1085.21,469.416C1081.37,476.184 1079.45,486.768 1079.45,501.168C1079.45,515.568 1081.37,526.176 1085.21,532.992C1089.05,539.808 1095.01,543.216 1103.07,543.216Z" style="fill:rgb(255,121,26);fill-rule:nonzero;"/>
                <path d="M1229.5,480.144C1235.65,480.144 1241.07,481.68 1245.77,484.752C1250.48,487.824 1254.13,492.12 1256.72,497.64C1259.31,503.16 1260.61,509.568 1260.61,516.864C1260.61,524.16 1259.31,530.52 1256.72,535.944C1254.13,541.368 1250.5,545.568 1245.85,548.544C1241.19,551.52 1235.74,553.008 1229.5,553.008C1224.03,553.008 1219.25,551.808 1215.17,549.408C1211.09,547.008 1208,543.6 1205.89,539.184L1205.89,573.024C1205.89,574.752 1205.38,576.12 1204.37,577.128C1203.37,578.136 1201.95,578.64 1200.13,578.64C1198.3,578.64 1196.86,578.112 1195.81,577.056C1194.75,576 1194.22,574.656 1194.22,573.024L1194.22,486.192C1194.22,484.464 1194.75,483.072 1195.81,482.016C1196.86,480.96 1198.3,480.432 1200.13,480.432C1201.95,480.432 1203.37,480.96 1204.37,482.016C1205.38,483.072 1205.89,484.464 1205.89,486.192L1205.89,493.968C1208,489.552 1211.09,486.144 1215.17,483.744C1219.25,481.344 1224.03,480.144 1229.5,480.144ZM1227.2,543.36C1234.01,543.36 1239.29,541.056 1243.04,536.448C1246.78,531.84 1248.65,525.312 1248.65,516.864C1248.65,508.416 1246.78,501.816 1243.04,497.064C1239.29,492.312 1234.01,489.936 1227.2,489.936C1220.38,489.936 1215.13,492.24 1211.43,496.848C1207.73,501.456 1205.89,508.032 1205.89,516.576C1205.89,525.12 1207.73,531.72 1211.43,536.376C1215.13,541.032 1220.38,543.36 1227.2,543.36Z" style="fill:rgb(255,121,26);fill-rule:nonzero;"/>
                <path d="M1332.32,535.728C1333.37,535.728 1334.29,536.16 1335.05,537.024C1335.82,537.888 1336.21,538.992 1336.21,540.336C1336.21,542.736 1334.53,544.944 1331.17,546.96C1327.71,548.976 1324.06,550.488 1320.22,551.496C1316.38,552.504 1312.64,553.008 1308.99,553.008C1298.14,553.008 1289.57,549.792 1283.29,543.36C1277,536.928 1273.85,528.048 1273.85,516.72C1273.85,509.52 1275.25,503.16 1278.03,497.64C1280.81,492.12 1284.73,487.824 1289.77,484.752C1294.81,481.68 1300.54,480.144 1306.97,480.144C1316.09,480.144 1323.34,483.12 1328.72,489.072C1334.09,495.024 1336.78,503.088 1336.78,513.264C1336.78,515.184 1336.4,516.576 1335.63,517.44C1334.86,518.304 1333.61,518.736 1331.89,518.736L1285.52,518.736C1286.38,535.248 1294.21,543.504 1308.99,543.504C1312.73,543.504 1315.95,543 1318.64,541.992C1321.33,540.984 1324.21,539.616 1327.28,537.888C1329.77,536.448 1331.45,535.728 1332.32,535.728ZM1307.12,489.216C1300.97,489.216 1296.05,491.136 1292.36,494.976C1288.66,498.816 1286.48,504.24 1285.81,511.248L1326.56,511.248C1326.37,504.144 1324.59,498.696 1321.23,494.904C1317.87,491.112 1313.17,489.216 1307.12,489.216Z" style="fill:rgb(255,121,26);fill-rule:nonzero;"/>
                <path d="M1388.62,480.432C1392.65,480.144 1394.67,481.776 1394.67,485.328C1394.67,486.864 1394.24,488.088 1393.37,489C1392.51,489.912 1391.02,490.464 1388.91,490.656L1384.59,491.088C1378.16,491.664 1373.38,493.944 1370.26,497.928C1367.14,501.912 1365.58,506.592 1365.58,511.968L1365.58,546.96C1365.58,548.88 1365.05,550.32 1364,551.28C1362.94,552.24 1361.55,552.72 1359.82,552.72C1358.09,552.72 1356.68,552.216 1355.57,551.208C1354.47,550.2 1353.92,548.784 1353.92,546.96L1353.92,486.192C1353.92,484.368 1354.49,482.952 1355.65,481.944C1356.8,480.936 1358.19,480.432 1359.82,480.432C1361.36,480.432 1362.65,480.936 1363.71,481.944C1364.77,482.952 1365.29,484.32 1365.29,486.048L1365.29,494.112C1367.31,489.888 1370.17,486.672 1373.86,484.464C1377.56,482.256 1381.81,480.96 1386.61,480.576L1388.62,480.432Z" style="fill:rgb(255,121,26);fill-rule:nonzero;"/>
                <path d="M1432.25,553.008C1425.73,553.008 1419.94,551.52 1414.9,548.544C1409.86,545.568 1405.97,541.344 1403.24,535.872C1400.5,530.4 1399.13,524.064 1399.13,516.864C1399.13,509.664 1400.55,503.28 1403.38,497.712C1406.21,492.144 1410.17,487.824 1415.26,484.752C1420.35,481.68 1426.21,480.144 1432.83,480.144C1436.48,480.144 1440.1,480.648 1443.7,481.656C1447.3,482.664 1450.45,484.128 1453.13,486.048C1454.86,487.2 1456.09,488.328 1456.81,489.432C1457.53,490.536 1457.89,491.76 1457.89,493.104C1457.89,494.448 1457.53,495.552 1456.81,496.416C1456.09,497.28 1455.15,497.712 1454,497.712C1453.33,497.712 1452.61,497.52 1451.84,497.136C1451.07,496.752 1450.42,496.368 1449.89,495.984C1449.37,495.6 1449.01,495.36 1448.81,495.264C1446.32,493.632 1443.94,492.336 1441.69,491.376C1439.43,490.416 1436.67,489.936 1433.41,489.936C1426.4,489.936 1420.95,492.312 1417.06,497.064C1413.17,501.816 1411.23,508.416 1411.23,516.864C1411.23,525.312 1413.17,531.84 1417.06,536.448C1420.95,541.056 1426.4,543.36 1433.41,543.36C1436.67,543.36 1439.48,542.88 1441.83,541.92C1444.18,540.96 1446.56,539.664 1448.96,538.032C1450.01,537.36 1451.02,536.784 1451.98,536.304C1452.94,535.824 1453.76,535.584 1454.43,535.584C1455.49,535.584 1456.37,536.016 1457.09,536.88C1457.81,537.744 1458.17,538.848 1458.17,540.192C1458.17,541.44 1457.84,542.568 1457.17,543.576C1456.49,544.584 1455.25,545.712 1453.42,546.96C1450.73,548.784 1447.49,550.248 1443.7,551.352C1439.91,552.456 1436.09,553.008 1432.25,553.008Z" style="fill:rgb(255,121,26);fill-rule:nonzero;"/>
                <path d="M1526.57,535.728C1527.63,535.728 1528.54,536.16 1529.31,537.024C1530.08,537.888 1530.46,538.992 1530.46,540.336C1530.46,542.736 1528.78,544.944 1525.42,546.96C1521.97,548.976 1518.32,550.488 1514.48,551.496C1510.64,552.504 1506.89,553.008 1503.25,553.008C1492.4,553.008 1483.83,549.792 1477.54,543.36C1471.25,536.928 1468.11,528.048 1468.11,516.72C1468.11,509.52 1469.5,503.16 1472.29,497.64C1475.07,492.12 1478.98,487.824 1484.02,484.752C1489.06,481.68 1494.8,480.144 1501.23,480.144C1510.35,480.144 1517.6,483.12 1522.97,489.072C1528.35,495.024 1531.04,503.088 1531.04,513.264C1531.04,515.184 1530.65,516.576 1529.89,517.44C1529.12,518.304 1527.87,518.736 1526.14,518.736L1479.77,518.736C1480.64,535.248 1488.46,543.504 1503.25,543.504C1506.99,543.504 1510.21,543 1512.89,541.992C1515.58,540.984 1518.46,539.616 1521.53,537.888C1524.03,536.448 1525.71,535.728 1526.57,535.728ZM1501.37,489.216C1495.23,489.216 1490.31,491.136 1486.61,494.976C1482.92,498.816 1480.73,504.24 1480.06,511.248L1520.81,511.248C1520.62,504.144 1518.85,498.696 1515.49,494.904C1512.13,491.112 1507.42,489.216 1501.37,489.216Z" style="fill:rgb(255,121,26);fill-rule:nonzero;"/>
                <path d="M1583.45,480.144C1600.25,480.144 1608.65,489.408 1608.65,507.936L1608.65,546.96C1608.65,548.784 1608.15,550.2 1607.14,551.208C1606.13,552.216 1604.72,552.72 1602.89,552.72C1601.07,552.72 1599.63,552.216 1598.57,551.208C1597.52,550.2 1596.99,548.784 1596.99,546.96L1596.99,508.656C1596.99,502.128 1595.72,497.376 1593.17,494.4C1590.63,491.424 1586.57,489.936 1581.01,489.936C1574.57,489.936 1569.44,491.904 1565.6,495.84C1561.76,499.776 1559.84,505.104 1559.84,511.824L1559.84,546.96C1559.84,548.784 1559.33,550.2 1558.33,551.208C1557.32,552.216 1555.9,552.72 1554.08,552.72C1552.25,552.72 1550.81,552.216 1549.76,551.208C1548.7,550.2 1548.17,548.784 1548.17,546.96L1548.17,486.192C1548.17,484.464 1548.7,483.072 1549.76,482.016C1550.81,480.96 1552.25,480.432 1554.08,480.432C1555.81,480.432 1557.17,480.96 1558.18,482.016C1559.19,483.072 1559.69,484.416 1559.69,486.048L1559.69,493.392C1562,489.072 1565.21,485.784 1569.34,483.528C1573.47,481.272 1578.17,480.144 1583.45,480.144Z" style="fill:rgb(255,121,26);fill-rule:nonzero;"/>
                <path d="M1662.37,543.504C1665.73,543.792 1667.41,545.328 1667.41,548.112C1667.41,549.744 1666.81,550.968 1665.61,551.784C1664.41,552.6 1662.61,552.912 1660.21,552.72L1656.32,552.432C1648.64,551.856 1642.97,549.552 1639.33,545.52C1635.68,541.488 1633.85,535.392 1633.85,527.232L1633.85,491.088L1624.21,491.088C1622.57,491.088 1621.3,490.68 1620.39,489.864C1619.48,489.048 1619.02,487.968 1619.02,486.624C1619.02,485.184 1619.48,484.032 1620.39,483.168C1621.3,482.304 1622.57,481.872 1624.21,481.872L1633.85,481.872L1633.85,465.6C1633.85,463.776 1634.38,462.36 1635.44,461.352C1636.49,460.344 1637.93,459.84 1639.76,459.84C1641.49,459.84 1642.88,460.344 1643.93,461.352C1644.99,462.36 1645.52,463.776 1645.52,465.6L1645.52,481.872L1661.5,481.872C1663.04,481.872 1664.26,482.304 1665.17,483.168C1666.09,484.032 1666.54,485.184 1666.54,486.624C1666.54,487.968 1666.09,489.048 1665.17,489.864C1664.26,490.68 1663.04,491.088 1661.5,491.088L1645.52,491.088L1645.52,527.808C1645.52,533.088 1646.6,536.904 1648.76,539.256C1650.92,541.608 1654.16,542.928 1658.48,543.216L1662.37,543.504Z" style="fill:rgb(255,121,26);fill-rule:nonzero;"/>
                <path d="M1745.17,553.008C1738.54,553.008 1732.71,551.52 1727.67,548.544C1722.63,545.568 1718.74,541.32 1716.01,535.8C1713.27,530.28 1711.9,523.872 1711.9,516.576C1711.9,509.28 1713.27,502.872 1716.01,497.352C1718.74,491.832 1722.63,487.584 1727.67,484.608C1732.71,481.632 1738.54,480.144 1745.17,480.144C1751.79,480.144 1757.65,481.632 1762.73,484.608C1767.82,487.584 1771.73,491.832 1774.47,497.352C1777.21,502.872 1778.57,509.28 1778.57,516.576C1778.57,523.872 1777.21,530.28 1774.47,535.8C1771.73,541.32 1767.82,545.568 1762.73,548.544C1757.65,551.52 1751.79,553.008 1745.17,553.008ZM1745.17,543.36C1752.08,543.36 1757.38,541.08 1761.08,536.52C1764.77,531.96 1766.62,525.312 1766.62,516.576C1766.62,508.032 1764.75,501.432 1761.01,496.776C1757.26,492.12 1751.98,489.792 1745.17,489.792C1738.35,489.792 1733.07,492.12 1729.33,496.776C1725.58,501.432 1723.71,508.032 1723.71,516.576C1723.71,525.216 1725.56,531.84 1729.25,536.448C1732.95,541.056 1738.25,543.36 1745.17,543.36Z" style="fill:rgb(255,121,26);fill-rule:nonzero;"/>
                <path d="M1826.81,459.696C1821.73,460.08 1817.89,461.688 1815.29,464.52C1812.7,467.352 1811.41,471.6 1811.41,477.264L1811.41,481.872L1827.39,481.872C1829.02,481.872 1830.27,482.304 1831.13,483.168C1832,484.032 1832.43,485.184 1832.43,486.624C1832.43,488.064 1832,489.168 1831.13,489.936C1830.27,490.704 1829.02,491.088 1827.39,491.088L1811.41,491.088L1811.41,546.96C1811.41,548.784 1810.85,550.2 1809.75,551.208C1808.65,552.216 1807.28,552.72 1805.65,552.72C1803.92,552.72 1802.5,552.216 1801.4,551.208C1800.29,550.2 1799.74,548.784 1799.74,546.96L1799.74,491.088L1790.09,491.088C1788.46,491.088 1787.19,490.68 1786.28,489.864C1785.37,489.048 1784.91,487.968 1784.91,486.624C1784.91,485.184 1785.37,484.032 1786.28,483.168C1787.19,482.304 1788.46,481.872 1790.09,481.872L1799.74,481.872L1799.74,479.28C1799.74,470.64 1801.9,463.848 1806.22,458.904C1810.54,453.96 1816.73,451.2 1824.8,450.624L1828.54,450.336C1831.04,450.144 1832.84,450.384 1833.94,451.056C1835.05,451.728 1835.6,452.928 1835.6,454.656C1835.6,457.44 1833.92,459.024 1830.56,459.408L1826.81,459.696Z" style="fill:rgb(255,121,26);fill-rule:nonzero;"/>
                <path d="M1934.53,535.728C1935.58,535.728 1936.49,536.16 1937.26,537.024C1938.03,537.888 1938.41,538.992 1938.41,540.336C1938.41,542.736 1936.73,544.944 1933.37,546.96C1929.92,548.976 1926.27,550.488 1922.43,551.496C1918.59,552.504 1914.85,553.008 1911.2,553.008C1900.35,553.008 1891.78,549.792 1885.49,543.36C1879.21,536.928 1876.06,528.048 1876.06,516.72C1876.06,509.52 1877.45,503.16 1880.24,497.64C1883.02,492.12 1886.93,487.824 1891.97,484.752C1897.01,481.68 1902.75,480.144 1909.18,480.144C1918.3,480.144 1925.55,483.12 1930.93,489.072C1936.3,495.024 1938.99,503.088 1938.99,513.264C1938.99,515.184 1938.61,516.576 1937.84,517.44C1937.07,518.304 1935.82,518.736 1934.09,518.736L1887.73,518.736C1888.59,535.248 1896.41,543.504 1911.2,543.504C1914.94,543.504 1918.16,543 1920.85,541.992C1923.53,540.984 1926.41,539.616 1929.49,537.888C1931.98,536.448 1933.66,535.728 1934.53,535.728ZM1909.33,489.216C1903.18,489.216 1898.26,491.136 1894.57,494.976C1890.87,498.816 1888.69,504.24 1888.01,511.248L1928.77,511.248C1928.57,504.144 1926.8,498.696 1923.44,494.904C1920.08,491.112 1915.37,489.216 1909.33,489.216Z" style="fill:rgb(255,121,26);fill-rule:nonzero;"/>
                <path d="M2005.81,484.032C2006.86,481.728 2008.54,480.576 2010.85,480.576C2012.29,480.576 2013.58,481.056 2014.73,482.016C2015.89,482.976 2016.46,484.176 2016.46,485.616C2016.46,486.48 2016.27,487.248 2015.89,487.92L1987.81,548.4C1987.23,549.648 1986.37,550.632 1985.21,551.352C1984.06,552.072 1982.81,552.432 1981.47,552.432C1980.22,552.432 1979.02,552.072 1977.87,551.352C1976.72,550.632 1975.81,549.648 1975.13,548.4L1947.2,487.92C1946.81,487.248 1946.62,486.528 1946.62,485.76C1946.62,484.32 1947.27,483.072 1948.57,482.016C1949.86,480.96 1951.28,480.432 1952.81,480.432C1953.77,480.432 1954.71,480.72 1955.62,481.296C1956.53,481.872 1957.23,482.688 1957.71,483.744L1981.76,537.744L2005.81,484.032Z" style="fill:rgb(255,121,26);fill-rule:nonzero;"/>
                <path d="M2056.64,480.144C2074.21,480.144 2082.99,489.36 2082.99,507.792L2082.99,546.96C2082.99,548.688 2082.49,550.08 2081.48,551.136C2080.47,552.192 2079.1,552.72 2077.37,552.72C2075.65,552.72 2074.25,552.192 2073.2,551.136C2072.14,550.08 2071.61,548.688 2071.61,546.96L2071.61,540.048C2069.79,544.176 2067.01,547.368 2063.26,549.624C2059.52,551.88 2055.2,553.008 2050.3,553.008C2045.79,553.008 2041.64,552.096 2037.85,550.272C2034.05,548.448 2031.05,545.904 2028.85,542.64C2026.64,539.376 2025.53,535.776 2025.53,531.84C2025.53,526.56 2026.88,522.456 2029.57,519.528C2032.25,516.6 2036.67,514.488 2042.81,513.192C2048.96,511.896 2057.5,511.248 2068.45,511.248L2071.61,511.248L2071.61,506.496C2071.61,500.736 2070.44,496.512 2068.09,493.824C2065.73,491.136 2061.92,489.792 2056.64,489.792C2050.11,489.792 2043.49,491.568 2036.77,495.12C2034.17,496.752 2032.35,497.568 2031.29,497.568C2030.14,497.568 2029.18,497.136 2028.41,496.272C2027.65,495.408 2027.26,494.304 2027.26,492.96C2027.26,491.616 2027.67,490.44 2028.49,489.432C2029.3,488.424 2030.62,487.392 2032.45,486.336C2035.81,484.416 2039.62,482.904 2043.89,481.8C2048.17,480.696 2052.41,480.144 2056.64,480.144ZM2051.89,543.792C2057.65,543.792 2062.37,541.848 2066.07,537.96C2069.77,534.072 2071.61,529.056 2071.61,522.912L2071.61,518.736L2069.02,518.736C2060.57,518.736 2054.14,519.096 2049.73,519.816C2045.31,520.536 2042.17,521.736 2040.29,523.416C2038.42,525.096 2037.49,527.568 2037.49,530.832C2037.49,534.576 2038.85,537.672 2041.59,540.12C2044.33,542.568 2047.76,543.792 2051.89,543.792Z" style="fill:rgb(255,121,26);fill-rule:nonzero;"/>
                <path d="M2127.92,553.008C2123.5,553.008 2119.3,552.48 2115.32,551.424C2111.33,550.368 2107.81,548.88 2104.73,546.96C2103.01,545.808 2101.78,544.728 2101.06,543.72C2100.34,542.712 2099.98,541.488 2099.98,540.048C2099.98,538.8 2100.34,537.768 2101.06,536.952C2101.78,536.136 2102.72,535.728 2103.87,535.728C2105.02,535.728 2106.7,536.448 2108.91,537.888C2111.79,539.616 2114.65,540.984 2117.48,541.992C2120.31,543 2123.84,543.504 2128.06,543.504C2133.25,543.504 2137.28,542.592 2140.16,540.768C2143.04,538.944 2144.48,536.304 2144.48,532.848C2144.48,530.736 2143.95,529.032 2142.89,527.736C2141.84,526.44 2140.01,525.288 2137.42,524.28C2134.83,523.272 2131.04,522.24 2126.05,521.184C2117.6,519.36 2111.55,516.912 2107.9,513.84C2104.25,510.768 2102.43,506.592 2102.43,501.312C2102.43,497.184 2103.58,493.536 2105.89,490.368C2108.19,487.2 2111.38,484.704 2115.46,482.88C2119.54,481.056 2124.17,480.144 2129.36,480.144C2133.1,480.144 2136.73,480.648 2140.23,481.656C2143.73,482.664 2146.83,484.08 2149.52,485.904C2152.78,488.208 2154.41,490.608 2154.41,493.104C2154.41,494.352 2154.03,495.408 2153.26,496.272C2152.49,497.136 2151.58,497.568 2150.53,497.568C2149.37,497.568 2147.65,496.752 2145.34,495.12C2142.65,493.392 2140.11,492.048 2137.71,491.088C2135.31,490.128 2132.33,489.648 2128.78,489.648C2124.27,489.648 2120.65,490.656 2117.91,492.672C2115.17,494.688 2113.81,497.376 2113.81,500.736C2113.81,502.848 2114.31,504.552 2115.32,505.848C2116.33,507.144 2118.01,508.296 2120.36,509.304C2122.71,510.312 2126.09,511.296 2130.51,512.256C2137.04,513.696 2142.1,515.28 2145.7,517.008C2149.3,518.736 2151.87,520.848 2153.41,523.344C2154.94,525.84 2155.71,529.008 2155.71,532.848C2155.71,538.896 2153.17,543.768 2148.08,547.464C2142.99,551.16 2136.27,553.008 2127.92,553.008Z" style="fill:rgb(255,121,26);fill-rule:nonzero;"/>
                <path d="M2179.33,552.72C2177.6,552.72 2176.18,552.216 2175.08,551.208C2173.97,550.2 2173.42,548.784 2173.42,546.96L2173.42,486.192C2173.42,484.368 2173.97,482.952 2175.08,481.944C2176.18,480.936 2177.6,480.432 2179.33,480.432C2181.05,480.432 2182.45,480.936 2183.5,481.944C2184.56,482.952 2185.09,484.368 2185.09,486.192L2185.09,546.96C2185.09,548.88 2184.56,550.32 2183.5,551.28C2182.45,552.24 2181.05,552.72 2179.33,552.72ZM2179.33,465.312C2177.02,465.312 2175.15,464.64 2173.71,463.296C2172.27,461.952 2171.55,460.176 2171.55,457.968C2171.55,455.856 2172.27,454.128 2173.71,452.784C2175.15,451.44 2177.02,450.768 2179.33,450.768C2181.63,450.768 2183.5,451.44 2184.94,452.784C2186.38,454.128 2187.1,455.856 2187.1,457.968C2187.1,460.176 2186.38,461.952 2184.94,463.296C2183.5,464.64 2181.63,465.312 2179.33,465.312Z" style="fill:rgb(255,121,26);fill-rule:nonzero;"/>
                <path d="M2235.92,553.008C2229.29,553.008 2223.46,551.52 2218.42,548.544C2213.38,545.568 2209.49,541.32 2206.76,535.8C2204.02,530.28 2202.65,523.872 2202.65,516.576C2202.65,509.28 2204.02,502.872 2206.76,497.352C2209.49,491.832 2213.38,487.584 2218.42,484.608C2223.46,481.632 2229.29,480.144 2235.92,480.144C2242.54,480.144 2248.4,481.632 2253.49,484.608C2258.57,487.584 2262.49,491.832 2265.22,497.352C2267.96,502.872 2269.33,509.28 2269.33,516.576C2269.33,523.872 2267.96,530.28 2265.22,535.8C2262.49,541.32 2258.57,545.568 2253.49,548.544C2248.4,551.52 2242.54,553.008 2235.92,553.008ZM2235.92,543.36C2242.83,543.36 2248.13,541.08 2251.83,536.52C2255.53,531.96 2257.37,525.312 2257.37,516.576C2257.37,508.032 2255.5,501.432 2251.76,496.776C2248.01,492.12 2242.73,489.792 2235.92,489.792C2229.1,489.792 2223.82,492.12 2220.08,496.776C2216.33,501.432 2214.46,508.032 2214.46,516.576C2214.46,525.216 2216.31,531.84 2220.01,536.448C2223.7,541.056 2229.01,543.36 2235.92,543.36Z" style="fill:rgb(255,121,26);fill-rule:nonzero;"/>
                <path d="M2322.03,480.144C2338.83,480.144 2347.23,489.408 2347.23,507.936L2347.23,546.96C2347.23,548.784 2346.73,550.2 2345.72,551.208C2344.71,552.216 2343.29,552.72 2341.47,552.72C2339.65,552.72 2338.21,552.216 2337.15,551.208C2336.09,550.2 2335.57,548.784 2335.57,546.96L2335.57,508.656C2335.57,502.128 2334.29,497.376 2331.75,494.4C2329.21,491.424 2325.15,489.936 2319.58,489.936C2313.15,489.936 2308.01,491.904 2304.17,495.84C2300.33,499.776 2298.41,505.104 2298.41,511.824L2298.41,546.96C2298.41,548.784 2297.91,550.2 2296.9,551.208C2295.89,552.216 2294.48,552.72 2292.65,552.72C2290.83,552.72 2289.39,552.216 2288.33,551.208C2287.28,550.2 2286.75,548.784 2286.75,546.96L2286.75,486.192C2286.75,484.464 2287.28,483.072 2288.33,482.016C2289.39,480.96 2290.83,480.432 2292.65,480.432C2294.38,480.432 2295.75,480.96 2296.76,482.016C2297.77,483.072 2298.27,484.416 2298.27,486.048L2298.27,493.392C2300.57,489.072 2303.79,485.784 2307.92,483.528C2312.05,481.272 2316.75,480.144 2322.03,480.144Z" style="fill:rgb(255,121,26);fill-rule:nonzero;"/>
                <path d="M2392.16,553.008C2387.74,553.008 2383.54,552.48 2379.56,551.424C2375.57,550.368 2372.05,548.88 2368.97,546.96C2367.25,545.808 2366.02,544.728 2365.3,543.72C2364.58,542.712 2364.22,541.488 2364.22,540.048C2364.22,538.8 2364.58,537.768 2365.3,536.952C2366.02,536.136 2366.96,535.728 2368.11,535.728C2369.26,535.728 2370.94,536.448 2373.15,537.888C2376.03,539.616 2378.89,540.984 2381.72,541.992C2384.55,543 2388.08,543.504 2392.3,543.504C2397.49,543.504 2401.52,542.592 2404.4,540.768C2407.28,538.944 2408.72,536.304 2408.72,532.848C2408.72,530.736 2408.19,529.032 2407.13,527.736C2406.08,526.44 2404.25,525.288 2401.66,524.28C2399.07,523.272 2395.28,522.24 2390.29,521.184C2381.84,519.36 2375.79,516.912 2372.14,513.84C2368.49,510.768 2366.67,506.592 2366.67,501.312C2366.67,497.184 2367.82,493.536 2370.13,490.368C2372.43,487.2 2375.62,484.704 2379.7,482.88C2383.78,481.056 2388.41,480.144 2393.6,480.144C2397.34,480.144 2400.97,480.648 2404.47,481.656C2407.97,482.664 2411.07,484.08 2413.76,485.904C2417.02,488.208 2418.65,490.608 2418.65,493.104C2418.65,494.352 2418.27,495.408 2417.5,496.272C2416.73,497.136 2415.82,497.568 2414.77,497.568C2413.61,497.568 2411.89,496.752 2409.58,495.12C2406.89,493.392 2404.35,492.048 2401.95,491.088C2399.55,490.128 2396.57,489.648 2393.02,489.648C2388.51,489.648 2384.89,490.656 2382.15,492.672C2379.41,494.688 2378.05,497.376 2378.05,500.736C2378.05,502.848 2378.55,504.552 2379.56,505.848C2380.57,507.144 2382.25,508.296 2384.6,509.304C2386.95,510.312 2390.33,511.296 2394.75,512.256C2401.28,513.696 2406.34,515.28 2409.94,517.008C2413.54,518.736 2416.11,520.848 2417.65,523.344C2419.18,525.84 2419.95,529.008 2419.95,532.848C2419.95,538.896 2417.41,543.768 2412.32,547.464C2407.23,551.16 2400.51,553.008 2392.16,553.008Z" style="fill:rgb(255,121,26);fill-rule:nonzero;"/>
            </g>
        </g>
    </g>
</svg>
