<?xml version="1.0" encoding="UTF-8" standalone="no"?>
<!DOCTYPE svg PUBLIC "-//W3C//DTD SVG 1.1//EN" "http://www.w3.org/Graphics/SVG/1.1/DTD/svg11.dtd">
<svg width="100%" height="100%" viewBox="0 0 48 48" version="1.1" xmlns="http://www.w3.org/2000/svg" xmlns:xlink="http://www.w3.org/1999/xlink" xml:space="preserve" xmlns:serif="http://www.serif.com/" style="fill-rule:evenodd;clip-rule:evenodd;stroke-linejoin:round;stroke-miterlimit:1.41421;">
    <g id="Icon_Service_CaptureClient_Color">
        <path id="Combined-Shape" d="M40.217,18.694C40.409,15.099 39.999,12.589 39.956,12.036C39.828,10.395 39.209,8.371 35.857,7.882C25.354,6.349 20.565,6.378 12.47,7.886C10.462,8.26 9.758,9.098 9.457,11.536C9.349,12.411 8.809,15.31 9.047,19.301C5.628,20.994 4,23.761 5.441,28.038C7.022,32.729 12.21,36.369 16.799,38.626C18.868,41.103 21.463,43.55 24.713,45.87C36.071,37.782 39.306,27.666 40.065,20.59C42.841,20.083 44.677,19.844 44.677,19.844C44.677,19.844 43.104,19.302 40.217,18.694ZM24,48C10.745,48 0,37.255 0,24C0,10.745 10.745,0 24,0C37.255,0 48,10.745 48,24C48,37.255 37.255,48 24,48Z" style="fill:rgb(210,210,213);"/>
        <path id="Combined-Shape1" serif:id="Combined-Shape" d="M37.453,18.097C35.192,17.695 32.394,17.313 29.131,17.085C27.491,16.971 25.857,16.895 24.256,16.866L24.256,9.55C23.749,9.55 24.515,9.545 24.413,9.545C25.18,9.53 28.625,9.484 31.969,9.883C33.142,10.016 34.306,10.2 35.343,10.461C35.343,10.461 36.806,10.834 37.065,12.312C37.172,12.874 37.284,13.59 37.365,14.429C37.466,15.467 37.526,16.707 37.453,18.097Z" style="fill:rgb(83,83,90);fill-rule:nonzero;"/>
        <path id="Combined-Shape2" serif:id="Combined-Shape" d="M24.563,24.412C28.074,23.116 31.923,22.113 35.274,21.376C36.064,21.233 36.78,21.111 37.398,21.01C36.663,26.614 34.069,33.861 26.746,40.823C26.036,41.495 25.276,42.167 24.48,42.829L24.469,42.696L24.563,24.412Z" style="fill:rgb(83,83,90);fill-rule:nonzero;"/>
        <path id="Combined-Shape3" serif:id="Combined-Shape" d="M11.172,18.263C11.118,16.815 11.177,15.532 11.277,14.458C11.358,13.605 11.47,12.886 11.576,12.315C11.841,10.83 13.299,10.455 13.299,10.455C14.34,10.193 15.508,10.003 16.687,9.869C20.045,9.484 23.479,9.53 24.247,9.546C24.348,9.551 24.404,9.551 24.404,9.551L24.365,16.908C19.379,16.802 14.699,17.157 11.172,18.263Z" style="fill:rgb(128,128,138);fill-rule:nonzero;"/>
        <path id="Combined-Shape4" serif:id="Combined-Shape" d="M24.566,24.404L24.48,42.696L24.48,42.828C23.676,42.161 22.918,41.494 22.206,40.822C21.99,40.618 21.778,40.414 21.572,40.211L21.567,40.211C20.85,39.513 20.195,38.825 19.613,38.163C18.71,37.15 17.973,36.208 17.39,35.413C17.368,35.382 17.345,35.352 17.323,35.321C15.065,30.688 16.379,28.418 18.869,26.982C20.539,26.019 22.494,25.162 24.566,24.404Z" style="fill:rgb(128,128,138);fill-rule:nonzero;"/>
        <path id="Shape" d="M17.402,35.233C14.907,32.648 12.912,29.198 16.24,26.537C22.484,21.547 39.758,19.366 39.758,19.366C39.758,19.366 32.443,18.464 26.461,18.296C15.36,17.985 4.506,19.779 7.433,27.659C9.321,32.745 16.039,36.364 19.619,37.98C18.719,36.971 17.983,36.028 17.402,35.233Z" style="fill:rgb(255,108,12);fill-rule:nonzero;"/>
    </g>
</svg>
