<?xml version="1.0" encoding="UTF-8" standalone="no"?>
<!DOCTYPE svg PUBLIC "-//W3C//DTD SVG 1.1//EN" "http://www.w3.org/Graphics/SVG/1.1/DTD/svg11.dtd">
<svg width="100%" height="100%" viewBox="0 0 512 382" version="1.1" xmlns="http://www.w3.org/2000/svg" xmlns:xlink="http://www.w3.org/1999/xlink" xml:space="preserve" xmlns:serif="http://www.serif.com/" style="fill-rule:evenodd;clip-rule:evenodd;stroke-linejoin:round;stroke-miterlimit:1.41421;">
    <g transform="matrix(1,0,0,1,0,-65)">
        <g id="CASB" transform="matrix(1,0,0,1,0,65)">
            <path id="Combined-Shape" d="M511.996,265.785C511.999,266.089 512,266.393 512,266.696C512,266.393 511.999,266.089 511.996,265.785L511.996,265.785ZM511.553,276.966C511.528,277.251 511.502,277.535 511.475,277.819C511.502,277.535 511.528,277.251 511.553,276.966L511.553,276.966ZM398.996,381.275C398.958,381.275 398.919,381.276 398.881,381.276C396.967,381.276 395.064,381.225 393.162,381.135L393.162,381.112C395.085,381.219 397.03,381.273 398.996,381.275L398.996,381.275ZM250.553,381.276L95.254,381.276L95.254,381.112C42.126,377.975 0,333.354 0,278.755C0,222.141 45.317,176.246 101.213,176.246C107.389,176.246 113.435,176.802 119.307,177.88C119.154,175.342 119.067,172.793 119.067,170.211C119.067,109.272 163.6,58.42 222.894,46.339C216.304,60.37 212.513,75.981 212.513,92.507L212.513,95.589C195.715,96.951 182.468,110.851 182.468,127.998L182.468,278.69C182.468,296.741 197.098,311.371 215.149,311.371L427.574,311.371C441.336,311.371 453.109,302.868 457.927,290.828C453.109,302.868 441.336,311.371 427.574,311.371L250.553,311.371L250.553,381.276Z" style="fill:rgb(128,128,138);"/>
            <path id="Fill-5" d="M298.085,52.228C282.693,60.54 272.104,76.608 272.039,95.324L355.821,95.324C341.257,76.14 321.332,61.02 298.085,52.228" style="fill:rgb(83,83,90);"/>
            <path id="Fill-7" d="M460.255,170.473L460.255,278.69C460.255,296.741 445.625,311.371 427.574,311.371L250.553,311.371L250.553,381.276L393.162,381.276L393.162,381.112C395.122,381.221 397.105,381.276 399.109,381.276C461.454,381.276 512,329.977 512,266.696C512,226.303 491.357,190.888 460.255,170.473" style="fill:rgb(83,83,90);"/>
            <path id="Fill-9" d="M385.415,114.383L385.415,91.506C385.415,56.124 356.732,27.452 321.361,27.452C285.989,27.452 257.306,56.124 257.306,91.506L257.306,114.383L385.415,114.383ZM229.854,114.383L229.854,91.506C229.854,40.971 270.814,0 321.361,0C371.907,0 412.878,40.971 412.878,91.506L412.878,114.383L413.956,114.383C425.994,114.383 435.744,124.144 435.744,136.17L435.744,266.458C435.744,278.484 425.994,288.245 413.956,288.245L228.765,288.245C216.738,288.245 206.978,278.484 206.978,266.458L206.978,136.17C206.978,124.144 216.738,114.383 228.765,114.383L229.854,114.383ZM307.635,201.314L307.635,228.766C307.635,236.348 313.779,242.492 321.361,242.492C328.943,242.492 335.087,236.348 335.087,228.766L335.087,201.314C340.653,197.142 344.237,190.497 344.237,183.013C344.237,170.376 333.997,160.136 321.361,160.136C308.724,160.136 298.495,170.376 298.495,183.013C298.495,190.497 302.079,197.142 307.635,201.314Z" style="fill:rgb(255,141,32);"/>
            <path id="Fill-11" d="M321.362,288.245L321.362,242.492C328.944,242.492 335.088,236.348 335.088,228.766L335.088,201.325C340.654,197.142 344.238,190.497 344.238,183.013C344.238,170.376 333.998,160.136 321.362,160.136L321.362,114.383L385.416,114.383L385.416,91.506C385.416,56.124 356.733,27.452 321.362,27.452L321.362,0C371.908,0 412.868,40.971 412.868,91.506L412.868,114.383L413.957,114.383C425.984,114.383 435.745,124.144 435.745,136.17L435.745,266.458C435.745,278.484 425.984,288.245 413.957,288.245L321.362,288.245Z" style="fill:rgb(255,108,11);"/>
        </g>
    </g>
</svg>
