<?xml version="1.0" encoding="UTF-8" standalone="no"?>
<!DOCTYPE svg PUBLIC "-//W3C//DTD SVG 1.1//EN" "http://www.w3.org/Graphics/SVG/1.1/DTD/svg11.dtd">
<svg width="100%" height="100%" viewBox="0 0 375 249" version="1.1" xmlns="http://www.w3.org/2000/svg" xmlns:xlink="http://www.w3.org/1999/xlink" xml:space="preserve" xmlns:serif="http://www.serif.com/" style="fill-rule:evenodd;clip-rule:evenodd;stroke-linecap:round;stroke-linejoin:round;stroke-miterlimit:1.5;">
    <g transform="matrix(1,0,0,1,-454,-43)">
        <path id="Cloud" d="M608.242,122.971C608.242,122.971 619.804,50.826 689.137,45.996C759.814,41.073 792.816,118.874 781.059,152.28C781.059,152.28 838.025,173.812 822.744,233.738C813.97,268.149 790.97,278.995 776.222,284.94C758.475,292.095 493.067,286.925 493.067,286.925C493.067,286.925 455.917,276.49 457.672,233.738C459.426,190.986 496.203,188.07 513.166,188.123C513.166,188.123 503.517,137.663 537.25,119.074C570.983,100.485 597.155,116.643 608.242,122.971Z" style="fill:none;"/>
        <g>
            <clipPath id="_clip1">
                <path d="M608.242,122.971C608.242,122.971 619.804,50.826 689.137,45.996C759.814,41.073 792.816,118.874 781.059,152.28C781.059,152.28 838.025,173.812 822.744,233.738C813.97,268.149 790.97,278.995 776.222,284.94C758.475,292.095 493.067,286.925 493.067,286.925C493.067,286.925 455.917,276.49 457.672,233.738C459.426,190.986 496.203,188.07 513.166,188.123C513.166,188.123 503.517,137.663 537.25,119.074C570.983,100.485 597.155,116.643 608.242,122.971Z"/>
            </clipPath>
            <g clip-path="url(#_clip1)">
                <g id="SonicWall_Registered-2C" transform="matrix(0.601738,0,0,0.596059,530.335,183.991)">
                    <path d="M67.203,6.994C63.766,6.994 60.509,7.889 57.432,9.68C54.354,11.47 51.95,13.882 50.222,16.915C48.493,19.948 47.629,23.329 47.629,27.057C47.629,32.576 49.542,37.236 53.367,41.038C57.193,44.841 61.805,46.741 67.203,46.741C70.807,46.741 74.143,45.867 77.21,44.119C80.277,42.371 82.67,39.979 84.387,36.947C86.106,33.914 86.965,30.544 86.965,26.835C86.965,23.15 86.106,19.817 84.387,16.836C82.67,13.856 80.25,11.47 77.132,9.68C74.011,7.889 70.702,6.994 67.203,6.994ZM66.997,2.48C74.031,2.48 79.917,4.827 84.655,9.52C89.394,14.213 91.763,19.99 91.763,26.851C91.763,33.65 89.4,39.417 84.671,44.152C79.944,48.888 74.178,51.255 67.376,51.255C60.489,51.255 54.676,48.898 49.938,44.184C45.199,39.469 42.83,33.766 42.83,27.073C42.83,22.611 43.909,18.475 46.068,14.666C48.227,10.857 51.17,7.873 54.898,5.715C58.625,3.559 62.658,2.48 66.997,2.48Z" style="fill:rgb(104,105,107);fill-rule:nonzero;"/>
                    <path d="M104.352,51.634L104.352,2.313L105.425,2.313L138.25,40.119L138.25,2.313L143.112,2.313L143.112,51.634L142.005,51.634L109.448,14.287L109.448,51.634L104.352,51.634Z" style="fill:rgb(104,105,107);fill-rule:nonzero;"/>
                    <rect x="156.478" y="2.292" width="4.614" height="49.25" style="fill:rgb(104,105,107);"/>
                    <path d="M312.1,32.106L318.668,15.298L325.198,32.106L312.1,32.106ZM323.336,2.318L313.885,2.318L300.577,37.918L327.342,38.024L332.481,51.376L342.166,51.376L323.336,2.318Z" style="fill:rgb(104,105,107);fill-rule:nonzero;"/>
                    <path d="M352.234,2.318L361.552,2.318L361.552,42.391L380.131,42.391L380.131,51.276L352.234,51.276L352.234,2.318Z" style="fill:rgb(104,105,107);fill-rule:nonzero;"/>
                    <path d="M390.033,2.318L399.352,2.318L399.352,42.391L417.932,42.391L417.932,51.276L390.033,51.276L390.033,2.318Z" style="fill:rgb(104,105,107);fill-rule:nonzero;"/>
                    <path d="M315.067,72C315.067,72 292.271,63.793 287.244,50.135C281.616,34.846 302.483,31.356 323.826,31.964C335.328,32.291 349.386,34.041 349.386,34.041C349.386,34.041 316.175,38.269 304.174,47.954C292.455,57.411 315.067,72 315.067,72Z" style="fill:rgb(243,109,36);fill-rule:nonzero;"/>
                    <path d="M216.058,39.671C211.704,44.582 206.33,47.045 199.926,47.045C193.982,47.045 189.058,45.141 185.155,41.333C181.252,37.525 179.301,32.776 179.301,27.085C179.301,23.32 180.173,19.93 181.919,16.915C183.664,13.9 186.123,11.5 189.296,9.712C192.469,7.925 195.917,7.03 199.641,7.03C203.047,7.03 206.172,7.712 209.018,9.078C211.737,10.382 214.081,12.278 216.058,14.752L216.058,8.433C214.649,7.265 213.092,5.855 211.382,5.016C207.87,3.291 203.935,2.43 199.577,2.43C192.364,2.43 186.361,4.762 181.569,9.426C176.778,14.091 174.382,19.84 174.382,26.673C174.382,33.167 176.36,38.71 180.316,43.3C185.033,48.737 191.475,51.455 199.641,51.455C203.935,51.455 207.822,50.646 211.302,49.027C213.029,48.225 214.614,46.852 216.058,45.719L216.058,39.671Z" style="fill:rgb(104,105,107);fill-rule:nonzero;"/>
                    <path d="M17.679,24.622C6.569,22.347 4.463,19.449 4.463,14.899L4.463,14.766C4.463,9.949 9.053,6.454 15.377,6.454C20.673,6.454 24.875,8.042 28.999,11.605L29.388,11.941L29.484,11.822L29.484,6.379C25.218,3.528 20.99,2.324 15.51,2.324C6.668,2.324 0,7.816 0,15.099L0,15.232C0,22.595 4.678,26.544 16.147,28.866C26.918,31.034 28.961,33.862 28.961,38.321L28.961,38.455C28.961,43.624 24.307,47.233 17.646,47.233C11.149,47.233 6.547,45.324 1.233,40.426L0.858,40.079L0.773,40.177L0.773,45.794C5.865,49.624 11.119,51.363 17.446,51.363C26.853,51.363 33.424,45.918 33.424,38.122L33.424,37.987C33.424,30.868 28.715,26.871 17.679,24.622Z" style="fill:rgb(104,105,107);fill-rule:nonzero;"/>
                    <path d="M286.515,2.317L275.321,35.625L275.08,36.343L274.843,35.623L263.811,2.175L254.852,2.175L243.819,35.623L243.582,36.343L243.341,35.625L232.149,2.317L221.034,2.317L238.743,51.507L247.851,51.507L258.95,19.429L259.19,18.74L259.428,19.429L270.529,51.507L279.637,51.507L297.345,2.317L286.515,2.317Z" style="fill:rgb(104,105,107);fill-rule:nonzero;"/>
                    <path d="M424.644,3.819L424.644,5.644L425.46,5.644C426.132,5.644 426.444,5.332 426.444,4.755C426.444,4.179 426.132,3.819 425.46,3.819L424.644,3.819ZM426.804,9.292L425.268,6.748L424.644,6.748L424.644,9.292L422.94,9.292L422.94,2.715L425.868,2.715C427.477,2.715 428.149,3.675 428.149,4.731C428.149,5.572 427.716,6.268 426.924,6.556L428.796,9.292L426.804,9.292ZM425.437,1.227C422.772,1.227 420.611,3.387 420.611,6.052C420.611,8.716 422.772,10.876 425.437,10.876C428.101,10.876 430.284,8.716 430.284,6.052C430.284,3.387 428.101,1.227 425.437,1.227ZM425.437,11.596C422.388,11.596 419.892,9.124 419.892,6.052C419.892,2.979 422.388,0.507 425.437,0.507C428.509,0.507 431.005,2.979 431.005,6.052C431.005,9.124 428.509,11.596 425.437,11.596Z" style="fill:rgb(104,105,107);fill-rule:nonzero;"/>
                </g>
                <g transform="matrix(1,0,0,1,137.775,-1.28062)">
                    <path d="M391.321,253.03C389.788,253.03 388.462,252.696 387.342,252.029C386.223,251.362 385.36,250.404 384.755,249.154C384.149,247.905 383.846,246.429 383.846,244.727C383.846,243.04 384.149,241.572 384.755,240.322C385.36,239.073 386.223,238.114 387.342,237.447C388.462,236.78 389.788,236.447 391.321,236.447C392.349,236.447 393.318,236.612 394.231,236.941C395.143,237.271 395.937,237.743 396.611,238.356C396.857,238.586 396.979,238.854 396.979,239.161C396.979,239.376 396.918,239.563 396.795,239.724C396.673,239.885 396.527,239.966 396.358,239.966C396.174,239.966 395.952,239.882 395.691,239.713C394.909,239.1 394.2,238.67 393.564,238.425C392.927,238.18 392.195,238.057 391.367,238.057C389.589,238.057 388.22,238.636 387.262,239.793C386.303,240.951 385.824,242.596 385.824,244.727C385.824,246.874 386.303,248.526 387.262,249.683C388.22,250.841 389.589,251.42 391.367,251.42C392.18,251.42 392.908,251.297 393.552,251.052C394.196,250.807 394.909,250.377 395.691,249.764C395.952,249.595 396.174,249.511 396.358,249.511C396.527,249.511 396.673,249.588 396.795,249.741C396.918,249.894 396.979,250.086 396.979,250.316C396.979,250.623 396.857,250.891 396.611,251.121C395.937,251.734 395.143,252.206 394.231,252.535C393.318,252.865 392.349,253.03 391.321,253.03Z" style="fill:rgb(104,105,107);fill-rule:nonzero;"/>
                    <path d="M400.682,252.961C400.406,252.961 400.18,252.88 400.004,252.719C399.827,252.558 399.739,252.332 399.739,252.041L399.739,237.436C399.739,237.145 399.827,236.918 400.004,236.757C400.18,236.596 400.406,236.516 400.682,236.516C400.943,236.516 401.161,236.596 401.338,236.757C401.514,236.918 401.602,237.145 401.602,237.436L401.602,252.041C401.602,252.332 401.514,252.558 401.338,252.719C401.161,252.88 400.943,252.961 400.682,252.961Z" style="fill:rgb(104,105,107);fill-rule:nonzero;"/>
                    <path d="M409.721,253.007C408.663,253.007 407.732,252.769 406.927,252.294C406.122,251.819 405.501,251.14 405.064,250.258C404.627,249.377 404.408,248.353 404.408,247.188C404.408,246.023 404.627,244.999 405.064,244.117C405.501,243.236 406.122,242.557 406.927,242.082C407.732,241.607 408.663,241.369 409.721,241.369C410.779,241.369 411.715,241.607 412.527,242.082C413.34,242.557 413.965,243.236 414.402,244.117C414.839,244.999 415.057,246.023 415.057,247.188C415.057,248.353 414.839,249.377 414.402,250.258C413.965,251.14 413.34,251.819 412.527,252.294C411.715,252.769 410.779,253.007 409.721,253.007ZM409.721,251.466C410.825,251.466 411.672,251.102 412.263,250.373C412.853,249.645 413.148,248.583 413.148,247.188C413.148,245.823 412.849,244.769 412.251,244.025C411.653,243.282 410.81,242.91 409.721,242.91C408.633,242.91 407.789,243.282 407.191,244.025C406.593,244.769 406.294,245.823 406.294,247.188C406.294,248.568 406.589,249.626 407.18,250.362C407.77,251.098 408.617,251.466 409.721,251.466Z" style="fill:rgb(104,105,107);fill-rule:nonzero;"/>
                    <path d="M426.35,241.415C426.642,241.415 426.868,241.499 427.029,241.668C427.19,241.837 427.27,242.059 427.27,242.335L427.27,252.064C427.27,252.325 427.19,252.539 427.029,252.708C426.868,252.877 426.642,252.961 426.35,252.961C426.074,252.961 425.856,252.88 425.695,252.719C425.534,252.558 425.453,252.348 425.453,252.087L425.453,250.937C425.101,251.612 424.606,252.125 423.97,252.478C423.333,252.831 422.617,253.007 421.819,253.007C420.485,253.007 419.481,252.635 418.806,251.891C418.132,251.148 417.794,250.048 417.794,248.591L417.794,242.335C417.794,242.059 417.879,241.837 418.047,241.668C418.216,241.499 418.446,241.415 418.737,241.415C419.029,241.415 419.255,241.499 419.416,241.668C419.577,241.837 419.657,242.059 419.657,242.335L419.657,248.545C419.657,249.542 419.857,250.274 420.255,250.741C420.654,251.209 421.283,251.443 422.141,251.443C423.123,251.443 423.912,251.125 424.51,250.488C425.108,249.852 425.407,249.013 425.407,247.97L425.407,242.335C425.407,242.059 425.492,241.837 425.66,241.668C425.829,241.499 426.059,241.415 426.35,241.415Z" style="fill:rgb(104,105,107);fill-rule:nonzero;"/>
                    <path d="M439.736,236.516C440.028,236.516 440.258,236.6 440.426,236.769C440.595,236.938 440.679,237.152 440.679,237.413L440.679,252.041C440.679,252.317 440.595,252.539 440.426,252.708C440.258,252.877 440.028,252.961 439.736,252.961C439.445,252.961 439.219,252.877 439.058,252.708C438.897,252.539 438.816,252.317 438.816,252.041L438.816,250.799C438.479,251.504 437.984,252.049 437.333,252.432C436.681,252.815 435.918,253.007 435.044,253.007C434.063,253.007 433.197,252.762 432.445,252.271C431.694,251.78 431.111,251.094 430.697,250.212C430.283,249.331 430.076,248.307 430.076,247.142C430.076,245.992 430.283,244.98 430.697,244.106C431.111,243.232 431.694,242.557 432.445,242.082C433.197,241.607 434.063,241.369 435.044,241.369C435.918,241.369 436.681,241.561 437.333,241.944C437.984,242.327 438.479,242.872 438.816,243.577L438.816,237.413C438.816,237.137 438.897,236.918 439.058,236.757C439.219,236.596 439.445,236.516 439.736,236.516ZM435.412,251.466C436.501,251.466 437.34,251.094 437.931,250.35C438.521,249.607 438.816,248.553 438.816,247.188C438.816,245.823 438.521,244.773 437.931,244.037C437.34,243.301 436.501,242.933 435.412,242.933C434.324,242.933 433.476,243.301 432.871,244.037C432.265,244.773 431.962,245.808 431.962,247.142C431.962,248.507 432.265,249.568 432.871,250.327C433.476,251.086 434.324,251.466 435.412,251.466Z" style="fill:rgb(104,105,107);fill-rule:nonzero;"/>
                    <path d="M444.75,247.487C444.474,247.487 444.263,247.418 444.118,247.28C443.972,247.142 443.899,246.958 443.899,246.728C443.899,246.498 443.972,246.31 444.118,246.164C444.263,246.019 444.474,245.946 444.75,245.946L449.81,245.946C450.102,245.946 450.32,246.019 450.466,246.164C450.611,246.31 450.684,246.498 450.684,246.728C450.684,246.958 450.611,247.142 450.466,247.28C450.32,247.418 450.102,247.487 449.81,247.487L444.75,247.487Z" style="fill:rgb(104,105,107);fill-rule:nonzero;"/>
                    <path d="M463.38,244.52C464.316,244.765 465.04,245.225 465.554,245.9C466.067,246.575 466.324,247.418 466.324,248.43C466.324,249.856 465.857,250.948 464.921,251.707C463.986,252.466 462.66,252.846 460.942,252.846L455.146,252.846C454.855,252.846 454.621,252.762 454.445,252.593C454.268,252.424 454.18,252.202 454.18,251.926L454.18,237.551C454.18,237.275 454.268,237.053 454.445,236.884C454.621,236.715 454.855,236.631 455.146,236.631L460.689,236.631C462.361,236.631 463.656,236.999 464.576,237.735C465.496,238.471 465.956,239.514 465.956,240.863C465.956,241.737 465.73,242.488 465.278,243.117C464.825,243.746 464.193,244.213 463.38,244.52ZM456.043,243.83L460.413,243.83C461.625,243.83 462.541,243.585 463.162,243.094C463.783,242.603 464.093,241.89 464.093,240.955C464.093,239.115 462.867,238.195 460.413,238.195L456.043,238.195L456.043,243.83ZM460.758,251.282C462.031,251.282 462.97,251.048 463.576,250.58C464.181,250.113 464.484,249.381 464.484,248.384C464.484,246.391 463.242,245.394 460.758,245.394L456.043,245.394L456.043,251.282L460.758,251.282Z" style="fill:rgb(104,105,107);fill-rule:nonzero;"/>
                    <path d="M473.983,241.369C476.789,241.369 478.192,242.841 478.192,245.785L478.192,252.041C478.192,252.317 478.112,252.539 477.951,252.708C477.79,252.877 477.571,252.961 477.295,252.961C477.019,252.961 476.797,252.877 476.628,252.708C476.46,252.539 476.375,252.317 476.375,252.041L476.375,250.937C476.084,251.596 475.639,252.106 475.041,252.466C474.443,252.827 473.753,253.007 472.971,253.007C472.251,253.007 471.587,252.861 470.982,252.57C470.376,252.279 469.897,251.872 469.544,251.351C469.192,250.83 469.015,250.255 469.015,249.626C469.015,248.783 469.23,248.127 469.659,247.659C470.089,247.192 470.794,246.854 471.775,246.647C472.757,246.44 474.121,246.337 475.869,246.337L476.375,246.337L476.375,245.578C476.375,244.658 476.187,243.983 475.812,243.554C475.436,243.125 474.827,242.91 473.983,242.91C472.941,242.91 471.883,243.194 470.809,243.761C470.395,244.022 470.104,244.152 469.935,244.152C469.751,244.152 469.598,244.083 469.475,243.945C469.353,243.807 469.291,243.631 469.291,243.416C469.291,243.201 469.356,243.013 469.487,242.852C469.617,242.691 469.828,242.527 470.119,242.358C470.656,242.051 471.265,241.81 471.948,241.633C472.63,241.457 473.309,241.369 473.983,241.369ZM473.224,251.535C474.144,251.535 474.899,251.224 475.49,250.603C476.08,249.982 476.375,249.181 476.375,248.2L476.375,247.533L475.961,247.533C474.612,247.533 473.585,247.59 472.879,247.705C472.174,247.82 471.672,248.012 471.373,248.28C471.074,248.549 470.924,248.944 470.924,249.465C470.924,250.063 471.143,250.557 471.58,250.948C472.017,251.339 472.565,251.535 473.224,251.535Z" style="fill:rgb(104,105,107);fill-rule:nonzero;"/>
                    <path d="M485.368,253.007C484.663,253.007 483.992,252.923 483.356,252.754C482.719,252.585 482.156,252.348 481.665,252.041C481.389,251.857 481.194,251.684 481.079,251.523C480.964,251.362 480.906,251.167 480.906,250.937C480.906,250.738 480.964,250.573 481.079,250.442C481.194,250.312 481.343,250.247 481.527,250.247C481.711,250.247 481.98,250.362 482.332,250.592C482.792,250.868 483.248,251.086 483.701,251.247C484.153,251.408 484.717,251.489 485.391,251.489C486.219,251.489 486.863,251.343 487.323,251.052C487.783,250.761 488.013,250.339 488.013,249.787C488.013,249.45 487.929,249.177 487.76,248.97C487.592,248.763 487.3,248.579 486.886,248.418C486.472,248.257 485.867,248.093 485.069,247.924C483.72,247.633 482.754,247.242 482.171,246.751C481.589,246.26 481.297,245.593 481.297,244.75C481.297,244.091 481.481,243.508 481.849,243.002C482.217,242.496 482.727,242.097 483.379,241.806C484.03,241.515 484.77,241.369 485.598,241.369C486.196,241.369 486.775,241.449 487.335,241.61C487.894,241.771 488.389,241.998 488.818,242.289C489.34,242.657 489.6,243.04 489.6,243.439C489.6,243.638 489.539,243.807 489.416,243.945C489.294,244.083 489.148,244.152 488.979,244.152C488.795,244.152 488.519,244.022 488.151,243.761C487.722,243.485 487.316,243.27 486.932,243.117C486.549,242.964 486.074,242.887 485.506,242.887C484.786,242.887 484.207,243.048 483.77,243.37C483.333,243.692 483.114,244.121 483.114,244.658C483.114,244.995 483.195,245.267 483.356,245.474C483.517,245.681 483.785,245.865 484.161,246.026C484.536,246.187 485.077,246.345 485.782,246.498C486.825,246.728 487.634,246.981 488.209,247.257C488.784,247.533 489.194,247.87 489.439,248.269C489.685,248.668 489.807,249.174 489.807,249.787C489.807,250.753 489.401,251.531 488.588,252.121C487.776,252.712 486.702,253.007 485.368,253.007Z" style="fill:rgb(104,105,107);fill-rule:nonzero;"/>
                    <path d="M501.307,250.247C501.476,250.247 501.622,250.316 501.744,250.454C501.867,250.592 501.928,250.768 501.928,250.983C501.928,251.366 501.66,251.719 501.123,252.041C500.571,252.363 499.989,252.604 499.375,252.765C498.762,252.926 498.164,253.007 497.581,253.007C495.849,253.007 494.48,252.493 493.476,251.466C492.471,250.439 491.969,249.02 491.969,247.211C491.969,246.061 492.192,245.045 492.636,244.163C493.081,243.282 493.706,242.596 494.511,242.105C495.316,241.614 496.232,241.369 497.259,241.369C498.716,241.369 499.874,241.844 500.732,242.795C501.591,243.746 502.02,245.034 502.02,246.659C502.02,246.966 501.959,247.188 501.836,247.326C501.714,247.464 501.514,247.533 501.238,247.533L493.832,247.533C493.97,250.17 495.22,251.489 497.581,251.489C498.179,251.489 498.693,251.408 499.122,251.247C499.552,251.086 500.012,250.868 500.502,250.592C500.901,250.362 501.169,250.247 501.307,250.247ZM497.282,242.818C496.301,242.818 495.515,243.125 494.925,243.738C494.334,244.351 493.986,245.218 493.878,246.337L500.387,246.337C500.357,245.202 500.073,244.332 499.536,243.726C499,243.121 498.248,242.818 497.282,242.818Z" style="fill:rgb(104,105,107);fill-rule:nonzero;"/>
                    <path d="M513.75,236.516C514.042,236.516 514.272,236.6 514.44,236.769C514.609,236.938 514.693,237.152 514.693,237.413L514.693,252.041C514.693,252.317 514.609,252.539 514.44,252.708C514.272,252.877 514.042,252.961 513.75,252.961C513.459,252.961 513.233,252.877 513.072,252.708C512.911,252.539 512.83,252.317 512.83,252.041L512.83,250.799C512.493,251.504 511.998,252.049 511.347,252.432C510.695,252.815 509.932,253.007 509.058,253.007C508.077,253.007 507.211,252.762 506.459,252.271C505.708,251.78 505.125,251.094 504.711,250.212C504.297,249.331 504.09,248.307 504.09,247.142C504.09,245.992 504.297,244.98 504.711,244.106C505.125,243.232 505.708,242.557 506.459,242.082C507.211,241.607 508.077,241.369 509.058,241.369C509.932,241.369 510.695,241.561 511.347,241.944C511.998,242.327 512.493,242.872 512.83,243.577L512.83,237.413C512.83,237.137 512.911,236.918 513.072,236.757C513.233,236.596 513.459,236.516 513.75,236.516ZM509.426,251.466C510.515,251.466 511.354,251.094 511.945,250.35C512.535,249.607 512.83,248.553 512.83,247.188C512.83,245.823 512.535,244.773 511.945,244.037C511.354,243.301 510.515,242.933 509.426,242.933C508.338,242.933 507.49,243.301 506.885,244.037C506.279,244.773 505.976,245.808 505.976,247.142C505.976,248.507 506.279,249.568 506.885,250.327C507.49,251.086 508.338,251.466 509.426,251.466Z" style="fill:rgb(104,105,107);fill-rule:nonzero;"/>
                    <path d="M538.751,236.516C539.043,236.516 539.269,236.604 539.43,236.78C539.591,236.957 539.671,237.191 539.671,237.482L539.671,252.041C539.671,252.317 539.595,252.539 539.441,252.708C539.288,252.877 539.073,252.961 538.797,252.961C538.521,252.961 538.314,252.877 538.176,252.708C538.038,252.539 537.969,252.317 537.969,252.041L537.969,240.288L532.978,249.856C532.764,250.301 532.449,250.523 532.035,250.523C531.637,250.523 531.322,250.301 531.092,249.856L526.078,240.403L526.078,252.041C526.078,252.317 526.005,252.539 525.86,252.708C525.714,252.877 525.503,252.961 525.227,252.961C524.951,252.961 524.737,252.877 524.583,252.708C524.43,252.539 524.353,252.317 524.353,252.041L524.353,237.482C524.353,237.191 524.438,236.957 524.606,236.78C524.775,236.604 525.005,236.516 525.296,236.516C525.68,236.516 525.986,236.738 526.216,237.183L532.058,248.384L537.831,237.183C537.954,236.938 538.088,236.765 538.234,236.665C538.379,236.566 538.552,236.516 538.751,236.516Z" style="fill:rgb(104,105,107);fill-rule:nonzero;"/>
                    <path d="M547.997,241.369C550.803,241.369 552.206,242.841 552.206,245.785L552.206,252.041C552.206,252.317 552.126,252.539 551.965,252.708C551.804,252.877 551.585,252.961 551.309,252.961C551.033,252.961 550.811,252.877 550.642,252.708C550.474,252.539 550.389,252.317 550.389,252.041L550.389,250.937C550.098,251.596 549.653,252.106 549.055,252.466C548.457,252.827 547.767,253.007 546.985,253.007C546.265,253.007 545.601,252.861 544.996,252.57C544.39,252.279 543.911,251.872 543.558,251.351C543.206,250.83 543.029,250.255 543.029,249.626C543.029,248.783 543.244,248.127 543.673,247.659C544.103,247.192 544.808,246.854 545.789,246.647C546.771,246.44 548.135,246.337 549.883,246.337L550.389,246.337L550.389,245.578C550.389,244.658 550.201,243.983 549.826,243.554C549.45,243.125 548.841,242.91 547.997,242.91C546.955,242.91 545.897,243.194 544.823,243.761C544.409,244.022 544.118,244.152 543.949,244.152C543.765,244.152 543.612,244.083 543.489,243.945C543.367,243.807 543.305,243.631 543.305,243.416C543.305,243.201 543.37,243.013 543.501,242.852C543.631,242.691 543.842,242.527 544.133,242.358C544.67,242.051 545.279,241.81 545.962,241.633C546.644,241.457 547.323,241.369 547.997,241.369ZM547.238,251.535C548.158,251.535 548.913,251.224 549.504,250.603C550.094,249.982 550.389,249.181 550.389,248.2L550.389,247.533L549.975,247.533C548.626,247.533 547.599,247.59 546.893,247.705C546.188,247.82 545.686,248.012 545.387,248.28C545.088,248.549 544.938,248.944 544.938,249.465C544.938,250.063 545.157,250.557 545.594,250.948C546.031,251.339 546.579,251.535 547.238,251.535Z" style="fill:rgb(104,105,107);fill-rule:nonzero;"/>
                    <path d="M561.245,241.369C563.929,241.369 565.27,242.849 565.27,245.808L565.27,252.041C565.27,252.332 565.19,252.558 565.029,252.719C564.868,252.88 564.642,252.961 564.35,252.961C564.059,252.961 563.829,252.88 563.66,252.719C563.492,252.558 563.407,252.332 563.407,252.041L563.407,245.923C563.407,244.88 563.204,244.121 562.798,243.646C562.391,243.171 561.744,242.933 560.854,242.933C559.827,242.933 559.007,243.247 558.393,243.876C557.78,244.505 557.473,245.356 557.473,246.429L557.473,252.041C557.473,252.332 557.393,252.558 557.232,252.719C557.071,252.88 556.845,252.961 556.553,252.961C556.262,252.961 556.032,252.88 555.863,252.719C555.695,252.558 555.61,252.332 555.61,252.041L555.61,242.335C555.61,242.059 555.695,241.837 555.863,241.668C556.032,241.499 556.262,241.415 556.553,241.415C556.829,241.415 557.048,241.499 557.209,241.668C557.37,241.837 557.45,242.051 557.45,242.312L557.45,243.485C557.818,242.795 558.332,242.27 558.991,241.909C559.651,241.549 560.402,241.369 561.245,241.369Z" style="fill:rgb(104,105,107);fill-rule:nonzero;"/>
                    <path d="M573.251,241.369C576.057,241.369 577.46,242.841 577.46,245.785L577.46,252.041C577.46,252.317 577.38,252.539 577.219,252.708C577.058,252.877 576.839,252.961 576.563,252.961C576.287,252.961 576.065,252.877 575.896,252.708C575.728,252.539 575.643,252.317 575.643,252.041L575.643,250.937C575.352,251.596 574.907,252.106 574.309,252.466C573.711,252.827 573.021,253.007 572.239,253.007C571.519,253.007 570.855,252.861 570.25,252.57C569.644,252.279 569.165,251.872 568.812,251.351C568.46,250.83 568.283,250.255 568.283,249.626C568.283,248.783 568.498,248.127 568.927,247.659C569.357,247.192 570.062,246.854 571.043,246.647C572.025,246.44 573.389,246.337 575.137,246.337L575.643,246.337L575.643,245.578C575.643,244.658 575.455,243.983 575.08,243.554C574.704,243.125 574.095,242.91 573.251,242.91C572.209,242.91 571.151,243.194 570.077,243.761C569.663,244.022 569.372,244.152 569.203,244.152C569.019,244.152 568.866,244.083 568.743,243.945C568.621,243.807 568.559,243.631 568.559,243.416C568.559,243.201 568.624,243.013 568.755,242.852C568.885,242.691 569.096,242.527 569.387,242.358C569.924,242.051 570.533,241.81 571.216,241.633C571.898,241.457 572.577,241.369 573.251,241.369ZM572.492,251.535C573.412,251.535 574.167,251.224 574.758,250.603C575.348,249.982 575.643,249.181 575.643,248.2L575.643,247.533L575.229,247.533C573.88,247.533 572.853,247.59 572.147,247.705C571.442,247.82 570.94,248.012 570.641,248.28C570.342,248.549 570.192,248.944 570.192,249.465C570.192,250.063 570.411,250.557 570.848,250.948C571.285,251.339 571.833,251.535 572.492,251.535Z" style="fill:rgb(104,105,107);fill-rule:nonzero;"/>
                    <path d="M589.949,241.415C590.241,241.415 590.471,241.499 590.639,241.668C590.808,241.837 590.892,242.059 590.892,242.335L590.892,252.087C590.892,253.758 590.463,255.019 589.604,255.87C588.746,256.721 587.473,257.147 585.786,257.147C584.146,257.147 582.781,256.825 581.692,256.181C581.14,255.874 580.864,255.522 580.864,255.123C580.864,254.908 580.922,254.732 581.037,254.594C581.152,254.456 581.301,254.387 581.485,254.387C581.639,254.387 581.915,254.494 582.313,254.709C582.85,254.985 583.379,255.207 583.9,255.376C584.422,255.545 585.043,255.629 585.763,255.629C586.852,255.629 587.672,255.341 588.224,254.766C588.776,254.191 589.052,253.352 589.052,252.248L589.052,250.27C588.73,250.991 588.236,251.543 587.569,251.926C586.902,252.309 586.116,252.501 585.211,252.501C584.23,252.501 583.36,252.271 582.601,251.811C581.842,251.351 581.251,250.699 580.83,249.856C580.408,249.013 580.197,248.039 580.197,246.935C580.197,245.831 580.408,244.857 580.83,244.014C581.251,243.171 581.842,242.519 582.601,242.059C583.36,241.599 584.23,241.369 585.211,241.369C586.101,241.369 586.875,241.561 587.534,241.944C588.194,242.327 588.692,242.872 589.029,243.577L589.029,242.335C589.029,242.059 589.11,241.837 589.271,241.668C589.432,241.499 589.658,241.415 589.949,241.415ZM585.579,250.96C586.653,250.96 587.496,250.603 588.109,249.89C588.723,249.177 589.029,248.192 589.029,246.935C589.029,245.693 588.726,244.715 588.121,244.002C587.515,243.289 586.668,242.933 585.579,242.933C584.491,242.933 583.636,243.289 583.015,244.002C582.394,244.715 582.083,245.693 582.083,246.935C582.083,248.192 582.394,249.177 583.015,249.89C583.636,250.603 584.491,250.96 585.579,250.96Z" style="fill:rgb(104,105,107);fill-rule:nonzero;"/>
                    <path d="M603.013,250.247C603.182,250.247 603.328,250.316 603.45,250.454C603.573,250.592 603.634,250.768 603.634,250.983C603.634,251.366 603.366,251.719 602.829,252.041C602.277,252.363 601.695,252.604 601.081,252.765C600.468,252.926 599.87,253.007 599.287,253.007C597.555,253.007 596.186,252.493 595.182,251.466C594.177,250.439 593.675,249.02 593.675,247.211C593.675,246.061 593.898,245.045 594.342,244.163C594.787,243.282 595.412,242.596 596.217,242.105C597.022,241.614 597.938,241.369 598.965,241.369C600.422,241.369 601.58,241.844 602.438,242.795C603.297,243.746 603.726,245.034 603.726,246.659C603.726,246.966 603.665,247.188 603.542,247.326C603.42,247.464 603.22,247.533 602.944,247.533L595.538,247.533C595.676,250.17 596.926,251.489 599.287,251.489C599.885,251.489 600.399,251.408 600.828,251.247C601.258,251.086 601.718,250.868 602.208,250.592C602.607,250.362 602.875,250.247 603.013,250.247ZM598.988,242.818C598.007,242.818 597.221,243.125 596.631,243.738C596.04,244.351 595.692,245.218 595.584,246.337L602.093,246.337C602.063,245.202 601.779,244.332 601.242,243.726C600.706,243.121 599.954,242.818 598.988,242.818Z" style="fill:rgb(104,105,107);fill-rule:nonzero;"/>
                    <path d="M618.929,241.369C621.413,241.369 622.655,242.849 622.655,245.808L622.655,252.041C622.655,252.332 622.571,252.558 622.402,252.719C622.234,252.88 622.011,252.961 621.735,252.961C621.459,252.961 621.233,252.88 621.057,252.719C620.88,252.558 620.792,252.332 620.792,252.041L620.792,245.854C620.792,244.827 620.608,244.083 620.24,243.623C619.872,243.163 619.297,242.933 618.515,242.933C617.58,242.933 616.844,243.247 616.307,243.876C615.771,244.505 615.502,245.356 615.502,246.429L615.502,252.041C615.502,252.332 615.414,252.558 615.238,252.719C615.061,252.88 614.835,252.961 614.559,252.961C614.283,252.961 614.061,252.88 613.892,252.719C613.724,252.558 613.639,252.332 613.639,252.041L613.639,245.854C613.639,244.827 613.455,244.083 613.087,243.623C612.719,243.163 612.137,242.933 611.339,242.933C610.419,242.933 609.687,243.247 609.143,243.876C608.598,244.505 608.326,245.356 608.326,246.429L608.326,252.041C608.326,252.332 608.242,252.558 608.073,252.719C607.905,252.88 607.682,252.961 607.406,252.961C607.13,252.961 606.904,252.88 606.728,252.719C606.551,252.558 606.463,252.332 606.463,252.041L606.463,242.335C606.463,242.059 606.551,241.837 606.728,241.668C606.904,241.499 607.13,241.415 607.406,241.415C607.667,241.415 607.882,241.495 608.05,241.656C608.219,241.817 608.303,242.036 608.303,242.312L608.303,243.416C608.641,242.757 609.108,242.251 609.706,241.898C610.304,241.545 610.994,241.369 611.776,241.369C613.524,241.369 614.667,242.105 615.203,243.577C615.525,242.902 616.016,242.366 616.675,241.967C617.335,241.568 618.086,241.369 618.929,241.369Z" style="fill:rgb(104,105,107);fill-rule:nonzero;"/>
                    <path d="M634.73,250.247C634.899,250.247 635.045,250.316 635.167,250.454C635.29,250.592 635.351,250.768 635.351,250.983C635.351,251.366 635.083,251.719 634.546,252.041C633.994,252.363 633.412,252.604 632.798,252.765C632.185,252.926 631.587,253.007 631.004,253.007C629.272,253.007 627.903,252.493 626.899,251.466C625.894,250.439 625.392,249.02 625.392,247.211C625.392,246.061 625.615,245.045 626.059,244.163C626.504,243.282 627.129,242.596 627.934,242.105C628.739,241.614 629.655,241.369 630.682,241.369C632.139,241.369 633.297,241.844 634.155,242.795C635.014,243.746 635.443,245.034 635.443,246.659C635.443,246.966 635.382,247.188 635.259,247.326C635.137,247.464 634.937,247.533 634.661,247.533L627.255,247.533C627.393,250.17 628.643,251.489 631.004,251.489C631.602,251.489 632.116,251.408 632.545,251.247C632.975,251.086 633.435,250.868 633.925,250.592C634.324,250.362 634.592,250.247 634.73,250.247ZM630.705,242.818C629.724,242.818 628.938,243.125 628.348,243.738C627.757,244.351 627.409,245.218 627.301,246.337L633.81,246.337C633.78,245.202 633.496,244.332 632.959,243.726C632.423,243.121 631.671,242.818 630.705,242.818Z" style="fill:rgb(104,105,107);fill-rule:nonzero;"/>
                    <path d="M643.815,241.369C646.499,241.369 647.84,242.849 647.84,245.808L647.84,252.041C647.84,252.332 647.76,252.558 647.599,252.719C647.438,252.88 647.212,252.961 646.92,252.961C646.629,252.961 646.399,252.88 646.23,252.719C646.062,252.558 645.977,252.332 645.977,252.041L645.977,245.923C645.977,244.88 645.774,244.121 645.368,243.646C644.961,243.171 644.314,242.933 643.424,242.933C642.397,242.933 641.577,243.247 640.963,243.876C640.35,244.505 640.043,245.356 640.043,246.429L640.043,252.041C640.043,252.332 639.963,252.558 639.802,252.719C639.641,252.88 639.415,252.961 639.123,252.961C638.832,252.961 638.602,252.88 638.433,252.719C638.265,252.558 638.18,252.332 638.18,252.041L638.18,242.335C638.18,242.059 638.265,241.837 638.433,241.668C638.602,241.499 638.832,241.415 639.123,241.415C639.399,241.415 639.618,241.499 639.779,241.668C639.94,241.837 640.02,242.051 640.02,242.312L640.02,243.485C640.388,242.795 640.902,242.27 641.561,241.909C642.221,241.549 642.972,241.369 643.815,241.369Z" style="fill:rgb(104,105,107);fill-rule:nonzero;"/>
                    <path d="M656.419,251.489C656.956,251.535 657.224,251.78 657.224,252.225C657.224,252.486 657.128,252.681 656.937,252.811C656.745,252.942 656.458,252.992 656.074,252.961L655.453,252.915C654.227,252.823 653.322,252.455 652.739,251.811C652.157,251.167 651.865,250.193 651.865,248.89L651.865,243.117L650.324,243.117C650.064,243.117 649.86,243.052 649.715,242.921C649.569,242.791 649.496,242.619 649.496,242.404C649.496,242.174 649.569,241.99 649.715,241.852C649.86,241.714 650.064,241.645 650.324,241.645L651.865,241.645L651.865,239.046C651.865,238.755 651.95,238.528 652.118,238.367C652.287,238.206 652.517,238.126 652.808,238.126C653.084,238.126 653.307,238.206 653.475,238.367C653.644,238.528 653.728,238.755 653.728,239.046L653.728,241.645L656.281,241.645C656.527,241.645 656.722,241.714 656.868,241.852C657.013,241.99 657.086,242.174 657.086,242.404C657.086,242.619 657.013,242.791 656.868,242.921C656.722,243.052 656.527,243.117 656.281,243.117L653.728,243.117L653.728,248.982C653.728,249.825 653.901,250.435 654.246,250.81C654.591,251.186 655.108,251.397 655.798,251.443L656.419,251.489Z" style="fill:rgb(104,105,107);fill-rule:nonzero;"/>
                </g>
            </g>
        </g>
        <path id="Cloud1" serif:id="Cloud" d="M608.242,122.971C608.242,122.971 619.804,50.826 689.137,45.996C759.814,41.073 792.816,118.874 781.059,152.28C781.059,152.28 838.025,173.812 822.744,233.738C813.97,268.149 790.97,278.995 776.222,284.94C758.475,292.095 493.067,286.925 493.067,286.925C493.067,286.925 455.917,276.49 457.672,233.738C459.426,190.986 496.203,188.07 513.166,188.123C513.166,188.123 503.517,137.663 537.25,119.074C570.983,100.485 597.155,116.643 608.242,122.971Z" style="fill:none;stroke:rgb(187,211,235);stroke-width:5.5px;"/>
    </g>
</svg>
