<?xml version="1.0" encoding="UTF-8" standalone="no"?>
<!DOCTYPE svg PUBLIC "-//W3C//DTD SVG 1.1//EN" "http://www.w3.org/Graphics/SVG/1.1/DTD/svg11.dtd">
<svg width="100%" height="100%" viewBox="0 0 106 13" version="1.1" xmlns="http://www.w3.org/2000/svg" xmlns:xlink="http://www.w3.org/1999/xlink" xml:space="preserve" xmlns:serif="http://www.serif.com/" style="fill-rule:evenodd;clip-rule:evenodd;stroke-linejoin:round;stroke-miterlimit:1.41421;">
    <g transform="matrix(1,0,0,1,-1,-12)">
        <g transform="matrix(1,0,0,1,1,4)">
            <g transform="matrix(1,0,0,1,0,18)">
                <path d="M5.446,0.112C4.503,0.112 3.682,-0.091 2.982,-0.497C2.282,-0.903 1.745,-1.486 1.372,-2.247C0.999,-3.008 0.812,-3.906 0.812,-4.942C0.812,-5.969 0.999,-6.862 1.372,-7.623C1.745,-8.384 2.282,-8.967 2.982,-9.373C3.682,-9.779 4.503,-9.982 5.446,-9.982C6.062,-9.982 6.645,-9.886 7.196,-9.695C7.747,-9.504 8.227,-9.226 8.638,-8.862C8.815,-8.722 8.904,-8.535 8.904,-8.302C8.904,-8.134 8.857,-7.992 8.764,-7.875C8.671,-7.758 8.559,-7.7 8.428,-7.7C8.269,-7.7 8.115,-7.761 7.966,-7.882C7.518,-8.218 7.11,-8.454 6.741,-8.589C6.372,-8.724 5.955,-8.792 5.488,-8.792C4.461,-8.792 3.673,-8.461 3.122,-7.798C2.571,-7.135 2.296,-6.183 2.296,-4.942C2.296,-3.691 2.571,-2.735 3.122,-2.072C3.673,-1.409 4.461,-1.078 5.488,-1.078C5.936,-1.078 6.344,-1.148 6.713,-1.288C7.082,-1.428 7.499,-1.661 7.966,-1.988C8.153,-2.109 8.307,-2.17 8.428,-2.17C8.559,-2.17 8.671,-2.112 8.764,-1.995C8.857,-1.878 8.904,-1.736 8.904,-1.568C8.904,-1.335 8.815,-1.148 8.638,-1.008C8.227,-0.644 7.747,-0.366 7.196,-0.175C6.645,0.016 6.062,0.112 5.446,0.112Z" style="fill-rule:nonzero;"/>
                <path d="M13.281,0.098C12.609,0.098 12.019,-0.047 11.51,-0.336C11.002,-0.625 10.61,-1.038 10.334,-1.575C10.059,-2.112 9.921,-2.735 9.921,-3.444C9.921,-4.163 10.059,-4.79 10.334,-5.327C10.61,-5.864 11.002,-6.277 11.51,-6.566C12.019,-6.855 12.609,-7 13.281,-7C13.953,-7 14.544,-6.855 15.052,-6.566C15.561,-6.277 15.953,-5.864 16.228,-5.327C16.504,-4.79 16.641,-4.163 16.641,-3.444C16.641,-2.735 16.504,-2.112 16.228,-1.575C15.953,-1.038 15.561,-0.625 15.052,-0.336C14.544,-0.047 13.953,0.098 13.281,0.098ZM13.281,-1.022C13.907,-1.022 14.385,-1.227 14.716,-1.638C15.048,-2.049 15.213,-2.651 15.213,-3.444C15.213,-4.228 15.045,-4.828 14.709,-5.243C14.373,-5.658 13.897,-5.866 13.281,-5.866C12.665,-5.866 12.189,-5.658 11.853,-5.243C11.517,-4.828 11.349,-4.228 11.349,-3.444C11.349,-2.651 11.515,-2.049 11.846,-1.638C12.178,-1.227 12.656,-1.022 13.281,-1.022Z" style="fill-rule:nonzero;"/>
                <path d="M21.886,-7C23.52,-7 24.336,-6.081 24.336,-4.242L24.336,-0.602C24.336,-0.387 24.273,-0.222 24.147,-0.105C24.021,0.012 23.846,0.07 23.622,0.07C23.408,0.07 23.237,0.009 23.111,-0.112C22.985,-0.233 22.922,-0.397 22.922,-0.602L22.922,-4.172C22.922,-4.751 22.808,-5.175 22.579,-5.446C22.351,-5.717 21.994,-5.852 21.508,-5.852C20.939,-5.852 20.482,-5.675 20.136,-5.32C19.791,-4.965 19.618,-4.489 19.618,-3.892L19.618,-0.602C19.618,-0.397 19.555,-0.233 19.429,-0.112C19.303,0.009 19.133,0.07 18.918,0.07C18.704,0.07 18.531,0.009 18.4,-0.112C18.27,-0.233 18.204,-0.397 18.204,-0.602L18.204,-6.3C18.204,-6.496 18.272,-6.657 18.407,-6.783C18.543,-6.909 18.713,-6.972 18.918,-6.972C19.124,-6.972 19.287,-6.911 19.408,-6.79C19.53,-6.669 19.59,-6.51 19.59,-6.314L19.59,-5.74C19.814,-6.151 20.127,-6.463 20.528,-6.678C20.93,-6.893 21.382,-7 21.886,-7Z" style="fill-rule:nonzero;"/>
                <path d="M29.61,-1.008C29.815,-0.989 29.962,-0.936 30.051,-0.847C30.139,-0.758 30.184,-0.635 30.184,-0.476C30.184,-0.289 30.111,-0.147 29.967,-0.049C29.822,0.049 29.61,0.089 29.33,0.07L28.952,0.042C28.196,-0.014 27.631,-0.245 27.258,-0.651C26.884,-1.057 26.698,-1.657 26.698,-2.45L26.698,-5.74L25.858,-5.74C25.447,-5.74 25.242,-5.922 25.242,-6.286C25.242,-6.454 25.295,-6.587 25.403,-6.685C25.51,-6.783 25.662,-6.832 25.858,-6.832L26.698,-6.832L26.698,-8.274C26.698,-8.489 26.761,-8.657 26.887,-8.778C27.013,-8.899 27.183,-8.96 27.398,-8.96C27.612,-8.96 27.785,-8.899 27.916,-8.778C28.046,-8.657 28.112,-8.489 28.112,-8.274L28.112,-6.832L29.498,-6.832C29.694,-6.832 29.845,-6.783 29.953,-6.685C30.06,-6.587 30.114,-6.454 30.114,-6.286C30.114,-6.109 30.06,-5.973 29.953,-5.88C29.845,-5.787 29.694,-5.74 29.498,-5.74L28.112,-5.74L28.112,-2.352C28.112,-1.913 28.203,-1.591 28.385,-1.386C28.567,-1.181 28.844,-1.064 29.218,-1.036L29.61,-1.008Z" style="fill-rule:nonzero;"/>
                <path d="M36.549,-1.722C36.68,-1.722 36.787,-1.671 36.871,-1.568C36.955,-1.465 36.997,-1.335 36.997,-1.176C36.997,-0.905 36.829,-0.677 36.493,-0.49C36.166,-0.303 35.809,-0.159 35.422,-0.056C35.035,0.047 34.664,0.098 34.309,0.098C33.226,0.098 32.372,-0.217 31.747,-0.847C31.122,-1.477 30.809,-2.338 30.809,-3.43C30.809,-4.13 30.947,-4.751 31.222,-5.292C31.497,-5.833 31.885,-6.253 32.384,-6.552C32.883,-6.851 33.45,-7 34.085,-7C35,-7 35.723,-6.706 36.255,-6.118C36.787,-5.53 37.053,-4.737 37.053,-3.738C37.053,-3.365 36.885,-3.178 36.549,-3.178L32.223,-3.178C32.316,-1.731 33.012,-1.008 34.309,-1.008C34.654,-1.008 34.953,-1.055 35.205,-1.148C35.457,-1.241 35.723,-1.363 36.003,-1.512C36.031,-1.531 36.108,-1.57 36.234,-1.631C36.36,-1.692 36.465,-1.722 36.549,-1.722ZM34.113,-5.964C33.572,-5.964 33.138,-5.791 32.811,-5.446C32.484,-5.101 32.288,-4.615 32.223,-3.99L35.835,-3.99C35.807,-4.625 35.646,-5.112 35.352,-5.453C35.058,-5.794 34.645,-5.964 34.113,-5.964Z" style="fill-rule:nonzero;"/>
                <path d="M42.284,-7C43.917,-7 44.734,-6.081 44.734,-4.242L44.734,-0.602C44.734,-0.387 44.671,-0.222 44.545,-0.105C44.419,0.012 44.244,0.07 44.02,0.07C43.805,0.07 43.635,0.009 43.509,-0.112C43.383,-0.233 43.32,-0.397 43.32,-0.602L43.32,-4.172C43.32,-4.751 43.206,-5.175 42.977,-5.446C42.748,-5.717 42.391,-5.852 41.906,-5.852C41.337,-5.852 40.879,-5.675 40.534,-5.32C40.189,-4.965 40.016,-4.489 40.016,-3.892L40.016,-0.602C40.016,-0.397 39.953,-0.233 39.827,-0.112C39.701,0.009 39.531,0.07 39.316,0.07C39.101,0.07 38.929,0.009 38.798,-0.112C38.667,-0.233 38.602,-0.397 38.602,-0.602L38.602,-6.3C38.602,-6.496 38.67,-6.657 38.805,-6.783C38.94,-6.909 39.111,-6.972 39.316,-6.972C39.521,-6.972 39.685,-6.911 39.806,-6.79C39.927,-6.669 39.988,-6.51 39.988,-6.314L39.988,-5.74C40.212,-6.151 40.525,-6.463 40.926,-6.678C41.327,-6.893 41.78,-7 42.284,-7Z" style="fill-rule:nonzero;"/>
                <path d="M50.007,-1.008C50.213,-0.989 50.36,-0.936 50.448,-0.847C50.537,-0.758 50.581,-0.635 50.581,-0.476C50.581,-0.289 50.509,-0.147 50.364,-0.049C50.22,0.049 50.007,0.089 49.727,0.07L49.349,0.042C48.593,-0.014 48.029,-0.245 47.655,-0.651C47.282,-1.057 47.095,-1.657 47.095,-2.45L47.095,-5.74L46.255,-5.74C45.845,-5.74 45.639,-5.922 45.639,-6.286C45.639,-6.454 45.693,-6.587 45.8,-6.685C45.908,-6.783 46.059,-6.832 46.255,-6.832L47.095,-6.832L47.095,-8.274C47.095,-8.489 47.158,-8.657 47.284,-8.778C47.41,-8.899 47.581,-8.96 47.795,-8.96C48.01,-8.96 48.183,-8.899 48.313,-8.778C48.444,-8.657 48.509,-8.489 48.509,-8.274L48.509,-6.832L49.895,-6.832C50.091,-6.832 50.243,-6.783 50.35,-6.685C50.458,-6.587 50.511,-6.454 50.511,-6.286C50.511,-6.109 50.458,-5.973 50.35,-5.88C50.243,-5.787 50.091,-5.74 49.895,-5.74L48.509,-5.74L48.509,-2.352C48.509,-1.913 48.6,-1.591 48.782,-1.386C48.964,-1.181 49.242,-1.064 49.615,-1.036L50.007,-1.008Z" style="fill-rule:nonzero;"/>
                <path d="M56.172,0.07C55.957,0.07 55.784,0.002 55.654,-0.133C55.523,-0.268 55.458,-0.443 55.458,-0.658L55.458,-9.17C55.458,-9.385 55.521,-9.555 55.647,-9.681C55.773,-9.807 55.948,-9.87 56.172,-9.87L61.184,-9.87C61.632,-9.87 61.856,-9.674 61.856,-9.282C61.856,-8.89 61.632,-8.694 61.184,-8.694L56.886,-8.694L56.886,-5.6L60.904,-5.6C61.352,-5.6 61.576,-5.404 61.576,-5.012C61.576,-4.62 61.352,-4.424 60.904,-4.424L56.886,-4.424L56.886,-0.658C56.886,-0.434 56.823,-0.257 56.697,-0.126C56.571,0.005 56.396,0.07 56.172,0.07Z" style="fill-rule:nonzero;"/>
                <path d="M63.853,0.07C63.648,0.07 63.477,0.014 63.342,-0.098C63.207,-0.21 63.139,-0.378 63.139,-0.602L63.139,-6.286C63.139,-6.51 63.207,-6.68 63.342,-6.797C63.477,-6.914 63.648,-6.972 63.853,-6.972C64.058,-6.972 64.226,-6.914 64.357,-6.797C64.488,-6.68 64.553,-6.51 64.553,-6.286L64.553,-0.602C64.553,-0.378 64.488,-0.21 64.357,-0.098C64.226,0.014 64.058,0.07 63.853,0.07ZM63.853,-8.344C63.582,-8.344 63.368,-8.419 63.209,-8.568C63.05,-8.717 62.971,-8.913 62.971,-9.156C62.971,-9.399 63.05,-9.592 63.209,-9.737C63.368,-9.882 63.582,-9.954 63.853,-9.954C64.114,-9.954 64.327,-9.882 64.49,-9.737C64.653,-9.592 64.735,-9.399 64.735,-9.156C64.735,-8.913 64.656,-8.717 64.497,-8.568C64.338,-8.419 64.124,-8.344 63.853,-8.344Z" style="fill-rule:nonzero;"/>
                <path d="M67.236,0.07C67.031,0.07 66.86,0.014 66.725,-0.098C66.59,-0.21 66.522,-0.378 66.522,-0.602L66.522,-9.254C66.522,-9.478 66.59,-9.648 66.725,-9.765C66.86,-9.882 67.031,-9.94 67.236,-9.94C67.441,-9.94 67.609,-9.882 67.74,-9.765C67.871,-9.648 67.936,-9.478 67.936,-9.254L67.936,-0.602C67.936,-0.378 67.871,-0.21 67.74,-0.098C67.609,0.014 67.441,0.07 67.236,0.07Z" style="fill-rule:nonzero;"/>
                <path d="M73.251,-1.008C73.457,-0.989 73.604,-0.936 73.692,-0.847C73.781,-0.758 73.825,-0.635 73.825,-0.476C73.825,-0.289 73.753,-0.147 73.608,-0.049C73.464,0.049 73.251,0.089 72.971,0.07L72.593,0.042C71.837,-0.014 71.273,-0.245 70.899,-0.651C70.526,-1.057 70.339,-1.657 70.339,-2.45L70.339,-5.74L69.499,-5.74C69.089,-5.74 68.883,-5.922 68.883,-6.286C68.883,-6.454 68.937,-6.587 69.044,-6.685C69.152,-6.783 69.303,-6.832 69.499,-6.832L70.339,-6.832L70.339,-8.274C70.339,-8.489 70.402,-8.657 70.528,-8.778C70.654,-8.899 70.825,-8.96 71.039,-8.96C71.254,-8.96 71.427,-8.899 71.557,-8.778C71.688,-8.657 71.753,-8.489 71.753,-8.274L71.753,-6.832L73.139,-6.832C73.335,-6.832 73.487,-6.783 73.594,-6.685C73.702,-6.587 73.755,-6.454 73.755,-6.286C73.755,-6.109 73.702,-5.973 73.594,-5.88C73.487,-5.787 73.335,-5.74 73.139,-5.74L71.753,-5.74L71.753,-2.352C71.753,-1.913 71.844,-1.591 72.026,-1.386C72.208,-1.181 72.486,-1.064 72.859,-1.036L73.251,-1.008Z" style="fill-rule:nonzero;"/>
                <path d="M80.191,-1.722C80.321,-1.722 80.429,-1.671 80.513,-1.568C80.597,-1.465 80.639,-1.335 80.639,-1.176C80.639,-0.905 80.471,-0.677 80.135,-0.49C79.808,-0.303 79.451,-0.159 79.064,-0.056C78.676,0.047 78.305,0.098 77.951,0.098C76.868,0.098 76.014,-0.217 75.389,-0.847C74.763,-1.477 74.451,-2.338 74.451,-3.43C74.451,-4.13 74.588,-4.751 74.864,-5.292C75.139,-5.833 75.526,-6.253 76.026,-6.552C76.525,-6.851 77.092,-7 77.727,-7C78.641,-7 79.365,-6.706 79.897,-6.118C80.429,-5.53 80.695,-4.737 80.695,-3.738C80.695,-3.365 80.527,-3.178 80.191,-3.178L75.865,-3.178C75.958,-1.731 76.653,-1.008 77.951,-1.008C78.296,-1.008 78.595,-1.055 78.847,-1.148C79.099,-1.241 79.365,-1.363 79.645,-1.512C79.673,-1.531 79.75,-1.57 79.876,-1.631C80.002,-1.692 80.107,-1.722 80.191,-1.722ZM77.755,-5.964C77.213,-5.964 76.779,-5.791 76.453,-5.446C76.126,-5.101 75.93,-4.615 75.865,-3.99L79.477,-3.99C79.449,-4.625 79.288,-5.112 78.994,-5.453C78.7,-5.794 78.287,-5.964 77.755,-5.964Z" style="fill-rule:nonzero;"/>
                <path d="M85.828,-6.972C86.276,-7 86.5,-6.809 86.5,-6.398C86.5,-6.193 86.448,-6.039 86.346,-5.936C86.243,-5.833 86.066,-5.773 85.814,-5.754L85.394,-5.712C84.806,-5.656 84.369,-5.451 84.085,-5.096C83.8,-4.741 83.658,-4.312 83.658,-3.808L83.658,-0.602C83.658,-0.378 83.592,-0.21 83.462,-0.098C83.331,0.014 83.163,0.07 82.958,0.07C82.752,0.07 82.582,0.014 82.447,-0.098C82.311,-0.21 82.244,-0.378 82.244,-0.602L82.244,-6.3C82.244,-6.515 82.311,-6.68 82.447,-6.797C82.582,-6.914 82.752,-6.972 82.958,-6.972C83.144,-6.972 83.301,-6.914 83.427,-6.797C83.553,-6.68 83.616,-6.519 83.616,-6.314L83.616,-5.642C83.802,-6.053 84.073,-6.365 84.428,-6.58C84.782,-6.795 85.184,-6.921 85.632,-6.958L85.828,-6.972Z" style="fill-rule:nonzero;"/>
                <path d="M88.077,0.07C87.872,0.07 87.701,0.014 87.566,-0.098C87.431,-0.21 87.363,-0.378 87.363,-0.602L87.363,-6.286C87.363,-6.51 87.431,-6.68 87.566,-6.797C87.701,-6.914 87.872,-6.972 88.077,-6.972C88.282,-6.972 88.45,-6.914 88.581,-6.797C88.712,-6.68 88.777,-6.51 88.777,-6.286L88.777,-0.602C88.777,-0.378 88.712,-0.21 88.581,-0.098C88.45,0.014 88.282,0.07 88.077,0.07ZM88.077,-8.344C87.806,-8.344 87.592,-8.419 87.433,-8.568C87.274,-8.717 87.195,-8.913 87.195,-9.156C87.195,-9.399 87.274,-9.592 87.433,-9.737C87.592,-9.882 87.806,-9.954 88.077,-9.954C88.338,-9.954 88.551,-9.882 88.714,-9.737C88.877,-9.592 88.959,-9.399 88.959,-9.156C88.959,-8.913 88.88,-8.717 88.721,-8.568C88.562,-8.419 88.348,-8.344 88.077,-8.344Z" style="fill-rule:nonzero;"/>
                <path d="M94.428,-7C96.061,-7 96.878,-6.081 96.878,-4.242L96.878,-0.602C96.878,-0.387 96.815,-0.222 96.689,-0.105C96.563,0.012 96.388,0.07 96.164,0.07C95.949,0.07 95.779,0.009 95.653,-0.112C95.527,-0.233 95.464,-0.397 95.464,-0.602L95.464,-4.172C95.464,-4.751 95.35,-5.175 95.121,-5.446C94.892,-5.717 94.535,-5.852 94.05,-5.852C93.481,-5.852 93.023,-5.675 92.678,-5.32C92.333,-4.965 92.16,-4.489 92.16,-3.892L92.16,-0.602C92.16,-0.397 92.097,-0.233 91.971,-0.112C91.845,0.009 91.675,0.07 91.46,0.07C91.245,0.07 91.073,0.009 90.942,-0.112C90.811,-0.233 90.746,-0.397 90.746,-0.602L90.746,-6.3C90.746,-6.496 90.814,-6.657 90.949,-6.783C91.084,-6.909 91.255,-6.972 91.46,-6.972C91.665,-6.972 91.829,-6.911 91.95,-6.79C92.071,-6.669 92.132,-6.51 92.132,-6.314L92.132,-5.74C92.356,-6.151 92.669,-6.463 93.07,-6.678C93.471,-6.893 93.924,-7 94.428,-7Z" style="fill-rule:nonzero;"/>
                <path d="M104.461,-6.972C104.676,-6.972 104.846,-6.909 104.972,-6.783C105.098,-6.657 105.161,-6.491 105.161,-6.286L105.161,-0.546C105.161,0.499 104.884,1.288 104.328,1.82C103.773,2.352 102.954,2.618 101.871,2.618C100.863,2.618 100.023,2.427 99.351,2.044C99.006,1.848 98.833,1.615 98.833,1.344C98.833,1.185 98.878,1.055 98.966,0.952C99.055,0.849 99.165,0.798 99.295,0.798C99.417,0.798 99.608,0.868 99.869,1.008C100.205,1.167 100.518,1.29 100.807,1.379C101.097,1.468 101.442,1.512 101.843,1.512C103.131,1.512 103.775,0.863 103.775,-0.434L103.775,-1.512C103.579,-1.101 103.281,-0.782 102.879,-0.553C102.478,-0.324 102.011,-0.21 101.479,-0.21C100.882,-0.21 100.35,-0.35 99.883,-0.63C99.417,-0.91 99.055,-1.307 98.798,-1.82C98.542,-2.333 98.413,-2.926 98.413,-3.598C98.413,-4.27 98.544,-4.863 98.805,-5.376C99.067,-5.889 99.428,-6.288 99.89,-6.573C100.352,-6.858 100.882,-7 101.479,-7C102.002,-7 102.462,-6.888 102.858,-6.664C103.255,-6.44 103.556,-6.123 103.761,-5.712L103.761,-6.3C103.761,-6.505 103.824,-6.669 103.95,-6.79C104.076,-6.911 104.247,-6.972 104.461,-6.972ZM101.815,-1.33C102.422,-1.33 102.898,-1.531 103.243,-1.932C103.589,-2.333 103.761,-2.889 103.761,-3.598C103.761,-4.298 103.591,-4.851 103.25,-5.257C102.91,-5.663 102.431,-5.866 101.815,-5.866C101.199,-5.866 100.716,-5.665 100.366,-5.264C100.016,-4.863 99.841,-4.307 99.841,-3.598C99.841,-2.889 100.019,-2.333 100.373,-1.932C100.728,-1.531 101.209,-1.33 101.815,-1.33Z" style="fill-rule:nonzero;"/>
            </g>
        </g>
    </g>
</svg>
