<?xml version="1.0" encoding="UTF-8" standalone="no"?>
<!DOCTYPE svg PUBLIC "-//W3C//DTD SVG 1.1//EN" "http://www.w3.org/Graphics/SVG/1.1/DTD/svg11.dtd">
<svg width="100%" height="100%" viewBox="0 0 512 512" version="1.1" xmlns="http://www.w3.org/2000/svg" xmlns:xlink="http://www.w3.org/1999/xlink" xml:space="preserve" xmlns:serif="http://www.serif.com/" style="fill-rule:evenodd;clip-rule:evenodd;stroke-linejoin:round;stroke-miterlimit:1.41421;">
    <g id="CCSC_x5F_Grey">
        <rect x="76.2" y="76.4" width="360" height="360" style="fill:none;"/>
        <g>
            <g>
                <g>
                    <path id="Shape_10_" d="M260.3,185.9C260.8,185.9 260.1,185.9 260.1,185.9L259.9,223.9C262.9,223.9 267,224 270.1,224.1C270.8,224.1 271.5,224.2 272.1,224.2C272.2,224.2 272.4,224.2 272.5,224.2C273.2,224.2 273.8,224.3 274.5,224.3C274.6,224.3 274.7,224.3 274.9,224.3C275.6,224.3 276.2,224.4 276.9,224.4L277,224.4C277.7,224.4 278.4,224.5 279.1,224.5C279.3,224.5 279.4,224.5 279.5,224.5C280.2,224.5 280.9,224.6 281.5,224.6C281.6,224.6 281.7,224.6 281.8,224.6C282.4,224.6 283.1,224.7 283.7,224.7C283.8,224.7 283.9,224.7 284,224.7C284.7,224.8 285.4,224.8 286,224.8C286.2,224.8 286.3,224.8 286.4,224.8C287.1,224.9 287.8,224.9 288.4,224.9C288.5,224.9 288.6,224.9 288.7,224.9C289.3,225 290,225 290.6,225C290.7,225 290.8,225 290.9,225C291.6,225.1 292.2,225.1 292.9,225.2C293.1,225.2 293.2,225.2 293.4,225.2C294.1,225.3 294.7,225.3 295.4,225.4C295.5,225.4 295.6,225.4 295.7,225.4C296.3,225.5 296.9,225.5 297.5,225.6C297.6,225.6 297.8,225.6 297.9,225.6C298.6,225.7 299.2,225.7 299.8,225.8C299.9,225.8 300.1,225.8 300.2,225.8C300.9,225.9 301.5,225.9 302.1,226C302.2,226 302.2,226 302.3,226C302.9,226.1 303.5,226.1 304.1,226.2C304.2,226.2 304.4,226.2 304.5,226.2C305.1,226.3 305.7,226.3 306.3,226.4C306.5,226.4 306.6,226.4 306.7,226.5C307.3,226.6 307.9,226.6 308.5,226.7L308.6,226.7C309.2,226.8 309.8,226.8 310.4,226.9C310.5,226.9 310.7,226.9 310.8,226.9C311.4,227 312,227 312.5,227.1C312.6,227.1 312.7,227.1 312.8,227.1C313.4,227.2 313.9,227.2 314.4,227.3C314.5,227.3 314.5,227.3 314.6,227.3C315.2,227.4 315.7,227.4 316.3,227.5C316.4,227.5 316.5,227.5 316.6,227.5C317.1,227.6 317.7,227.6 318.2,227.7C318.3,227.7 318.4,227.7 318.5,227.7C319,227.8 319.4,227.8 319.9,227.9C320,227.9 320.1,227.9 320.1,227.9C320.6,228 321.1,228 321.6,228.1C321.7,228.1 321.8,228.1 321.9,228.1C322.4,228.2 322.8,228.2 323.3,228.3C323.4,228.3 323.5,228.3 323.6,228.3C324,228.4 324.4,228.4 324.8,228.4L324.9,228.4C325.2,221.4 324.8,215.3 324.3,210.1C323.9,206 323.3,202.4 322.8,199.7C321.5,192.4 314.3,190.6 314.3,190.6C309.2,189.3 303.4,188.4 297.6,187.8C281.1,185.6 264.1,185.8 260.3,185.9Z" style="fill:rgb(101,101,107);fill-rule:nonzero;"/>
                    <path id="Shape_9_" d="M324,241.8C315.5,243.2 303.3,245.4 290.1,248.5C279.3,251 269.4,253.7 260.7,256.5L260.2,349.2L260.3,349.9C264.2,346.6 267.9,343.3 271.4,340C307.6,305.5 320.4,269.6 324,241.8Z" style="fill:rgb(101,101,107);fill-rule:nonzero;"/>
                    <path id="Shape_8_" d="M195.6,232.4C210.9,226.6 232.7,223.7 260.8,223.9L261,185.9C261,185.9 260.7,185.9 260.2,185.9C256.4,185.8 239.4,185.6 222.7,187.5C216.9,188.2 211.1,189.1 205.9,190.4C205.9,190.4 198.7,192.2 197.4,199.5C196.9,202.3 196.3,205.8 195.9,210C195.4,216.1 195.1,223.7 195.6,232.4Z" style="fill:rgb(157,157,159);fill-rule:nonzero;"/>
                    <path id="Shape_7_" d="M260.7,256.5C249.3,260.2 239.8,264.2 232.4,268.3C232.4,268.3 231.9,268.5 231.2,269C228.2,270.8 225.5,272.6 223.3,274.3C223.1,274.4 223,274.6 222.8,274.7C219.4,277.3 210.8,286 217.5,300.3C217.6,300.7 217.8,301 217.9,301.4C217.9,301.4 220.5,306.1 225.6,313.1C228.4,317 232,321.7 236.5,326.7C239.3,330 242.5,333.4 246,336.8C247,337.8 248,338.8 249.1,339.8C252.6,343.1 256.3,346.4 260.2,349.7L260.2,349L260.7,256.5Z" style="fill:rgb(157,157,159);fill-rule:nonzero;"/>
                </g>
                <path id="Shape_1_" d="M225.6,313.2C213.4,300.4 203.6,283.4 219.9,270.2C250.5,245.5 335.1,234.7 335.1,234.7C335.1,234.7 299.3,230.2 270,229.4C215.6,227.9 162.5,236.7 176.8,275.7C186,300.9 218.9,318.8 236.5,326.7C232,321.8 228.4,317.1 225.6,313.2Z" style="fill:rgb(255,121,26);fill-rule:nonzero;"/>
            </g>
            <g>
                <path d="M129.9,246.1C134.9,183.8 184.8,134.3 247.3,129.9L247.3,111.4C174.7,115.8 116.5,173.6 111.5,246.1L129.9,246.1Z" style="fill:rgb(255,121,26);fill-rule:nonzero;"/>
                <path d="M265.3,129.8C327.7,134.2 377.6,183.8 382.7,246L401.2,246C396.1,173.5 338,115.8 265.4,111.3L265.3,129.8Z" style="fill:rgb(157,157,159);fill-rule:nonzero;"/>
                <path d="M382.8,264.1C379,327.6 328.5,378.5 265.3,382.9L265.3,401.4C338.7,396.9 397.4,337.8 401.3,264.1L382.8,264.1Z" style="fill:rgb(255,121,26);fill-rule:nonzero;"/>
                <path d="M247.2,382.9C183.9,378.5 133.5,327.6 129.7,264.1L111.2,264.1C115.1,337.8 173.7,396.9 247.2,401.4L247.2,382.9Z" style="fill:rgb(157,157,159);fill-rule:nonzero;"/>
            </g>
        </g>
    </g>
</svg>
