<?xml version="1.0" encoding="UTF-8" standalone="no"?>
<!DOCTYPE svg PUBLIC "-//W3C//DTD SVG 1.1//EN" "http://www.w3.org/Graphics/SVG/1.1/DTD/svg11.dtd">
<svg width="100%" height="100%" viewBox="0 0 46 131" version="1.1" xmlns="http://www.w3.org/2000/svg" xmlns:xlink="http://www.w3.org/1999/xlink" xml:space="preserve" xmlns:serif="http://www.serif.com/" style="fill-rule:evenodd;clip-rule:evenodd;stroke-linejoin:round;stroke-miterlimit:1.41421;">
    <g transform="matrix(1,0,0,1,-1025,-442)">
        <g transform="matrix(0.0987849,0,0,0.0987849,715.792,376.909)">
            <g id="D">
                <g transform="matrix(4.16667,0,0,4.16667,447.51,-5.68434e-14)">
                    <path d="M680.909,420.656L680.909,468.604C680.909,472.776 684.292,476.159 688.464,476.159L711.663,476.159C715.835,476.159 719.218,472.776 719.218,468.604L719.218,420.656C719.218,416.483 715.835,413.101 711.663,413.101L688.464,413.101C684.292,413.101 680.909,416.483 680.909,420.656Z" style="fill:rgb(185,185,185);fill-rule:nonzero;"/>
                </g>
                <g transform="matrix(4.16667,0,0,4.16667,447.51,-5.68434e-14)">
                    <path d="M754.795,171.728C754.795,164.367 748.829,158.401 741.469,158.401L658.658,158.401C651.298,158.401 645.332,164.367 645.332,171.728L645.332,178.39L754.795,178.39L754.795,171.728Z" style="fill:white;fill-rule:nonzero;"/>
                    <path d="M741.641,158.402L741.813,158.405L741.984,158.411L742.155,158.418L742.325,158.428L742.494,158.44L742.663,158.454L742.832,158.47L742.999,158.488L743.166,158.508L743.333,158.53L743.498,158.555L743.664,158.581L743.828,158.609L743.992,158.639L744.155,158.672L744.317,158.706L744.479,158.742L744.639,158.78L744.799,158.821L744.959,158.863L745.117,158.907L745.275,158.952L745.432,159L745.588,159.05L745.743,159.101L745.897,159.154L746.051,159.21L746.204,159.267L746.355,159.325L746.506,159.386L746.656,159.448L746.805,159.512L746.953,159.578L747.1,159.646L747.246,159.715L747.392,159.786L747.536,159.859L747.679,159.933L747.821,160.009L747.962,160.087L748.102,160.167L748.241,160.248L748.379,160.33L748.516,160.415L748.652,160.5L748.786,160.588L748.92,160.677L749.052,160.767L749.183,160.86L749.313,160.953L749.442,161.048L749.57,161.145L749.696,161.243L749.822,161.343L749.946,161.444L750.068,161.547L750.19,161.651L750.31,161.756L750.429,161.863L750.547,161.971L750.663,162.081L750.778,162.192L750.892,162.304L751.004,162.418L751.115,162.533L751.225,162.649L751.333,162.767L751.44,162.886L751.545,163.006L751.649,163.128L751.752,163.251L751.853,163.375L751.953,163.5L752.051,163.626L752.148,163.754L752.243,163.883L752.336,164.013L752.429,164.144L752.519,164.276L752.608,164.41L752.696,164.545L752.782,164.68L752.866,164.817L752.948,164.955L753.029,165.094L753.109,165.234L753.187,165.375L753.263,165.517L753.337,165.661L753.41,165.805L753.481,165.95L753.55,166.096L753.618,166.243L753.684,166.391L753.748,166.54L753.81,166.69L753.871,166.841L753.929,166.993L753.986,167.145L754.042,167.299L754.095,167.453L754.146,167.609L754.196,167.765L754.244,167.922L754.289,168.079L754.333,168.238L754.375,168.397L754.416,168.557L754.454,168.718L754.49,168.88L754.524,169.042L754.557,169.205L754.587,169.369L754.615,169.533L754.641,169.698L754.666,169.864L754.688,170.031L754.708,170.198L754.726,170.365L754.742,170.534L754.756,170.703L754.768,170.872L754.778,171.042L754.785,171.213L754.791,171.384L754.794,171.556L754.795,171.728L754.795,178.39L645.332,178.39L645.332,171.728L645.333,171.556L645.336,171.384L645.342,171.213L645.349,171.042L645.359,170.872L645.371,170.703L645.385,170.534L645.401,170.365L645.419,170.198L645.439,170.031L645.461,169.864L645.486,169.698L645.512,169.533L645.54,169.369L645.57,169.205L645.603,169.042L645.637,168.88L645.673,168.718L645.711,168.557L645.751,168.397L645.794,168.238L645.837,168.079L645.883,167.922L645.931,167.765L645.981,167.609L646.032,167.453L646.085,167.299L646.141,167.145L646.198,166.993L646.256,166.841L646.317,166.69L646.379,166.54L646.443,166.391L646.509,166.243L646.577,166.096L646.646,165.95L646.717,165.805L646.79,165.661L646.864,165.517L646.94,165.375L647.018,165.234L647.097,165.094L647.179,164.955L647.261,164.817L647.345,164.68L647.431,164.545L647.519,164.41L647.608,164.276L647.698,164.144L647.79,164.013L647.884,163.883L647.979,163.754L648.076,163.626L648.174,163.5L648.274,163.375L648.375,163.251L648.477,163.128L648.581,163.006L648.687,162.886L648.794,162.767L648.902,162.649L649.012,162.533L649.123,162.418L649.235,162.304L649.349,162.192L649.464,162.081L649.58,161.971L649.698,161.863L649.817,161.756L649.937,161.651L650.059,161.547L650.181,161.444L650.305,161.343L650.431,161.243L650.557,161.145L650.685,161.048L650.814,160.953L650.944,160.86L651.075,160.767L651.207,160.677L651.341,160.588L651.475,160.5L651.611,160.415L651.748,160.33L651.886,160.248L652.025,160.167L652.165,160.087L652.306,160.009L652.448,159.933L652.591,159.859L652.735,159.786L652.881,159.715L653.027,159.646L653.174,159.578L653.322,159.512L653.471,159.448L653.621,159.386L653.772,159.325L653.923,159.267L654.076,159.21L654.229,159.154L654.384,159.101L654.539,159.05L654.695,159L654.852,158.952L655.01,158.907L655.168,158.863L655.328,158.821L655.488,158.78L655.648,158.742L655.81,158.706L655.972,158.672L656.135,158.639L656.299,158.609L656.463,158.581L656.629,158.555L656.794,158.53L656.961,158.508L657.128,158.488L657.295,158.47L657.464,158.454L657.633,158.44L657.802,158.428L657.972,158.418L658.143,158.411L658.314,158.405L658.486,158.402L658.658,158.401L741.469,158.401L741.641,158.402ZM658.674,163.26L658.547,163.261L658.436,163.263L658.328,163.266L658.218,163.271L658.11,163.277L658.001,163.285L657.894,163.294L657.786,163.304L657.679,163.316L657.574,163.328L657.468,163.342L657.362,163.358L657.257,163.375L657.153,163.393L657.049,163.412L656.947,163.432L656.843,163.454L656.741,163.477L656.64,163.501L656.539,163.526L656.437,163.553L656.337,163.581L656.238,163.61L656.138,163.64L656.039,163.672L655.941,163.704L655.845,163.737L655.747,163.772L655.65,163.808L655.554,163.846L655.458,163.884L655.363,163.924L655.269,163.964L655.176,164.006L655.083,164.048L654.99,164.093L654.897,164.138L654.806,164.184L654.715,164.231L654.625,164.279L654.536,164.329L654.447,164.379L654.359,164.43L654.27,164.483L654.184,164.536L654.099,164.59L654.012,164.647L653.926,164.704L653.843,164.761L653.761,164.819L653.678,164.879L653.594,164.94L653.514,165.001L653.433,165.064L653.353,165.128L653.274,165.192L653.196,165.257L653.119,165.323L653.041,165.391L652.965,165.459L652.892,165.527L652.817,165.598L652.743,165.669L652.671,165.74L652.599,165.813L652.528,165.886L652.46,165.959L652.391,166.034L652.321,166.112L652.253,166.189L652.189,166.264L652.124,166.342L652.058,166.423L651.994,166.503L651.933,166.582L651.87,166.664L651.81,166.746L651.751,166.828L651.692,166.912L651.634,166.996L651.578,167.081L651.522,167.167L651.467,167.254L651.414,167.34L651.362,167.427L651.31,167.516L651.259,167.606L651.21,167.696L651.162,167.784L651.115,167.875L651.068,167.968L651.023,168.06L650.98,168.151L650.937,168.244L650.895,168.339L650.855,168.433L650.815,168.527L650.776,168.624L650.739,168.72L650.704,168.815L650.669,168.913L650.635,169.012L650.602,169.109L650.571,169.207L650.541,169.307L650.512,169.407L650.484,169.507L650.458,169.607L650.432,169.707L650.408,169.811L650.385,169.915L650.363,170.016L650.343,170.119L650.323,170.224L650.306,170.327L650.289,170.433L650.273,170.538L650.26,170.641L650.247,170.748L650.235,170.857L650.225,170.963L650.216,171.07L650.208,171.18L650.202,171.288L650.197,171.397L650.194,171.508L650.192,171.619L650.191,171.745L650.191,173.531L749.936,173.531L749.936,171.742L749.935,171.616L749.933,171.508L749.93,171.397L749.925,171.288L749.918,171.18L749.911,171.07L749.902,170.963L749.892,170.857L749.88,170.748L749.867,170.641L749.854,170.538L749.838,170.433L749.821,170.327L749.804,170.224L749.784,170.119L749.764,170.016L749.742,169.915L749.719,169.811L749.694,169.707L749.669,169.607L749.643,169.507L749.615,169.407L749.586,169.307L749.556,169.207L749.525,169.109L749.492,169.012L749.458,168.913L749.423,168.815L749.388,168.72L749.35,168.624L749.311,168.527L749.272,168.433L749.232,168.339L749.19,168.244L749.147,168.151L749.104,168.06L749.059,167.968L749.012,167.875L748.965,167.784L748.917,167.696L748.868,167.606L748.817,167.516L748.765,167.427L748.713,167.34L748.66,167.254L748.605,167.167L748.549,167.081L748.492,166.996L748.435,166.912L748.376,166.828L748.317,166.746L748.257,166.664L748.194,166.582L748.133,166.503L748.069,166.423L748.003,166.342L747.938,166.264L747.874,166.189L747.805,166.11L747.736,166.034L747.669,165.96L747.599,165.886L747.528,165.813L747.456,165.74L747.384,165.669L747.31,165.598L747.235,165.527L747.162,165.459L747.086,165.391L747.008,165.323L746.931,165.257L746.853,165.192L746.774,165.128L746.694,165.064L746.612,165L746.533,164.94L746.45,164.879L746.366,164.819L746.284,164.761L746.201,164.704L746.115,164.647L746.028,164.59L745.943,164.536L745.857,164.483L745.768,164.43L745.68,164.379L745.591,164.329L745.502,164.279L745.412,164.231L745.321,164.184L745.23,164.138L745.137,164.093L745.044,164.048L744.951,164.006L744.858,163.964L744.763,163.923L744.668,163.884L744.574,163.846L744.477,163.809L744.38,163.772L744.282,163.737L744.186,163.704L744.088,163.672L743.989,163.64L743.889,163.61L743.789,163.581L743.69,163.553L743.588,163.526L743.487,163.501L743.386,163.477L743.284,163.454L743.18,163.432L743.078,163.412L742.974,163.393L742.87,163.375L742.765,163.358L742.659,163.342L742.553,163.328L742.448,163.316L742.341,163.304L742.234,163.294L742.126,163.285L742.017,163.277L741.909,163.271L741.799,163.266L741.691,163.263L741.58,163.261L741.453,163.26L658.674,163.26Z" style="fill:rgb(185,185,185);"/>
                </g>
                <g transform="matrix(4.16667,0,0,4.16667,447.51,-5.68434e-14)">
                    <rect x="645.332" y="182.479" width="109.463" height="15.23" style="fill:white;fill-rule:nonzero;"/>
                    <path d="M754.795,197.709L645.332,197.709L645.332,182.479L754.795,182.479L754.795,197.709ZM650.191,187.338L650.191,192.85L749.936,192.85L749.936,187.338L650.191,187.338Z" style="fill:rgb(185,185,185);"/>
                </g>
                <g transform="matrix(4.16667,0,0,4.16667,447.51,-5.68434e-14)">
                    <path d="M652.226,264.942C664.395,268.593 681.102,272.085 701.058,271.966C720.098,271.853 736.09,268.486 747.908,264.94C752.004,263.711 754.795,259.923 754.795,255.646L754.795,237.818L754.795,210.888L754.795,202.12L645.332,202.12L645.332,255.646C645.332,259.926 648.125,263.713 652.226,264.942Z" style="fill:white;fill-rule:nonzero;"/>
                    <path d="M754.795,255.646L754.793,255.846L754.787,256.045L754.777,256.244L754.763,256.442L754.745,256.638L754.723,256.834L754.697,257.029L754.667,257.223L754.634,257.416L754.596,257.607L754.555,257.797L754.51,257.987L754.462,258.174L754.41,258.361L754.354,258.546L754.295,258.73L754.232,258.912L754.166,259.093L754.096,259.272L754.023,259.449L753.946,259.625L753.866,259.799L753.783,259.972L753.696,260.142L753.606,260.311L753.513,260.478L753.416,260.643L753.317,260.805L753.214,260.966L753.108,261.125L752.999,261.282L752.888,261.436L752.773,261.588L752.655,261.738L752.534,261.886L752.41,262.031L752.284,262.174L752.154,262.314L752.022,262.452L751.887,262.587L751.749,262.72L751.609,262.85L751.466,262.977L751.32,263.101L751.172,263.223L751.021,263.342L750.868,263.458L750.712,263.571L750.554,263.681L750.393,263.788L750.23,263.892L750.065,263.992L749.897,264.09L749.727,264.184L749.554,264.275L749.38,264.363L749.203,264.448L749.024,264.529L748.843,264.606L748.66,264.68L748.475,264.751L748.288,264.817L748.099,264.881L747.908,264.94L747.351,265.106L746.788,265.272L746.219,265.437L745.644,265.602L745.062,265.766L744.475,265.93L743.882,266.093L743.283,266.255L742.678,266.417L742.067,266.577L741.45,266.737L740.828,266.895L740.199,267.053L739.565,267.209L738.925,267.364L738.279,267.518L737.628,267.67L736.971,267.821L736.308,267.97L735.64,268.118L734.966,268.264L734.287,268.408L733.602,268.551L732.911,268.692L732.215,268.83L731.514,268.967L730.807,269.101L730.094,269.234L729.377,269.364L728.654,269.492L727.925,269.617L727.191,269.74L726.452,269.861L725.708,269.979L724.958,270.094L724.204,270.207L723.444,270.316L722.678,270.423L721.908,270.527L721.133,270.628L720.352,270.726L719.567,270.821L718.776,270.912L717.981,271.001L717.18,271.085L716.375,271.167L715.564,271.245L714.749,271.319L713.929,271.39L713.104,271.457L712.274,271.52L711.439,271.58L710.6,271.635L709.755,271.686L708.907,271.734L708.053,271.777L707.195,271.816L706.332,271.851L705.464,271.881L704.592,271.907L703.715,271.929L702.834,271.946L701.948,271.958L701.058,271.966L700.125,271.969L699.197,271.967L698.273,271.959L697.355,271.947L696.441,271.929L695.532,271.907L694.628,271.88L693.729,271.848L692.835,271.812L691.946,271.77L691.063,271.725L690.184,271.675L689.31,271.62L688.442,271.562L687.578,271.499L686.72,271.432L685.867,271.361L685.02,271.286L684.177,271.208L683.34,271.125L682.509,271.039L681.682,270.949L680.862,270.855L680.046,270.759L679.236,270.658L678.432,270.555L677.633,270.448L676.839,270.338L676.052,270.225L675.269,270.109L674.493,269.99L673.722,269.868L672.957,269.743L672.197,269.616L671.444,269.486L670.696,269.354L669.954,269.219L669.217,269.082L668.487,268.942L667.763,268.8L667.044,268.656L666.332,268.511L665.625,268.363L664.925,268.213L664.23,268.061L663.542,267.908L662.86,267.753L662.183,267.597L661.514,267.438L660.85,267.279L660.192,267.118L659.541,266.956L658.896,266.793L658.258,266.629L657.625,266.463L657,266.297L656.38,266.13L655.767,265.962L655.161,265.793L654.561,265.624L653.967,265.454L653.38,265.284L652.8,265.113L652.226,264.942L652.035,264.883L651.845,264.819L651.658,264.753L651.473,264.682L651.289,264.608L651.108,264.531L650.929,264.45L650.752,264.365L650.578,264.278L650.405,264.186L650.235,264.092L650.067,263.995L649.901,263.894L649.738,263.79L649.577,263.683L649.419,263.573L649.263,263.46L649.109,263.344L648.958,263.225L648.81,263.103L648.664,262.979L648.521,262.852L648.38,262.722L648.242,262.589L648.107,262.454L647.975,262.316L647.846,262.176L647.719,262.033L647.595,261.888L647.474,261.74L647.356,261.59L647.241,261.438L647.129,261.284L647.02,261.127L646.914,260.968L646.811,260.808L646.712,260.645L646.615,260.48L646.522,260.313L646.432,260.144L646.345,259.974L646.262,259.801L646.182,259.627L646.105,259.451L646.032,259.274L645.962,259.094L645.895,258.914L645.832,258.731L645.773,258.548L645.717,258.362L645.665,258.176L645.617,257.988L645.572,257.799L645.531,257.608L645.494,257.417L645.46,257.224L645.43,257.03L645.404,256.835L645.382,256.639L645.364,256.442L645.35,256.244L645.34,256.046L645.334,255.846L645.332,255.646L645.332,202.12L754.795,202.12L754.795,255.646ZM650.191,206.979L650.191,255.621L650.192,255.746L650.195,255.848L650.2,255.947L650.208,256.048L650.217,256.147L650.228,256.244L650.241,256.342L650.255,256.439L650.272,256.536L650.291,256.63L650.311,256.725L650.334,256.822L650.358,256.915L650.384,257.008L650.412,257.1L650.442,257.193L650.473,257.283L650.506,257.373L650.541,257.464L650.578,257.553L650.616,257.64L650.656,257.726L650.698,257.814L650.742,257.9L650.786,257.983L650.833,258.066L650.882,258.151L650.932,258.232L650.982,258.31L651.035,258.39L651.091,258.47L651.147,258.547L651.204,258.623L651.263,258.697L651.323,258.771L651.385,258.843L651.448,258.915L651.513,258.985L651.579,259.053L651.647,259.122L651.715,259.187L651.785,259.252L651.856,259.315L651.929,259.377L652.002,259.437L652.076,259.496L652.153,259.554L652.229,259.609L652.308,259.663L652.388,259.716L652.468,259.768L652.551,259.818L652.633,259.866L652.717,259.912L652.803,259.958L652.889,260.001L652.976,260.043L653.065,260.083L653.155,260.121L653.244,260.157L653.338,260.193L653.432,260.226L653.525,260.258L653.641,260.294L654.179,260.454L654.743,260.62L655.312,260.785L655.889,260.95L656.471,261.114L657.06,261.278L657.655,261.441L658.256,261.603L658.864,261.765L659.478,261.925L660.098,262.085L660.724,262.243L661.356,262.401L661.995,262.557L662.639,262.711L663.29,262.865L663.946,263.017L664.608,263.167L665.276,263.316L665.951,263.463L666.631,263.609L667.317,263.752L668.009,263.894L668.706,264.034L669.409,264.171L670.118,264.307L670.833,264.44L671.554,264.571L672.28,264.699L673.011,264.826L673.749,264.949L674.492,265.07L675.24,265.188L675.994,265.304L676.753,265.417L677.518,265.526L678.288,265.633L679.064,265.737L679.845,265.837L680.631,265.935L681.423,266.029L682.22,266.12L683.022,266.207L683.829,266.291L684.642,266.371L685.46,266.447L686.283,266.52L687.111,266.589L687.944,266.654L688.782,266.715L689.625,266.772L690.473,266.824L691.326,266.873L692.184,266.917L693.047,266.957L693.915,266.993L694.787,267.024L695.665,267.05L696.547,267.072L697.434,267.088L698.326,267.101L699.222,267.108L700.123,267.11L701.029,267.107L701.893,267.1L702.753,267.088L703.609,267.071L704.46,267.05L705.306,267.025L706.149,266.995L706.986,266.962L707.819,266.924L708.648,266.882L709.472,266.836L710.292,266.786L711.107,266.732L711.917,266.674L712.722,266.613L713.523,266.548L714.32,266.479L715.111,266.407L715.898,266.331L716.68,266.252L717.457,266.17L718.229,266.084L718.997,265.995L719.759,265.903L720.517,265.808L721.27,265.71L722.017,265.609L722.76,265.506L723.498,265.399L724.231,265.29L724.958,265.178L725.681,265.063L726.398,264.946L727.111,264.827L727.818,264.705L728.52,264.581L729.217,264.455L729.909,264.326L730.595,264.196L731.276,264.063L731.952,263.928L732.622,263.792L733.287,263.653L733.947,263.513L734.601,263.371L735.25,263.228L735.893,263.083L736.531,262.937L737.164,262.789L737.79,262.64L738.412,262.489L739.028,262.337L739.638,262.184L740.242,262.03L740.841,261.876L741.434,261.72L742.021,261.563L742.603,261.405L743.179,261.247L743.749,261.088L744.313,260.929L744.872,260.769L745.424,260.608L745.971,260.447L746.492,260.292L746.607,260.256L746.701,260.224L746.794,260.191L746.885,260.157L746.976,260.12L747.066,260.081L747.155,260.041L747.242,260L747.328,259.956L747.411,259.912L747.496,259.865L747.579,259.817L747.661,259.767L747.742,259.715L747.82,259.663L747.898,259.609L747.977,259.552L748.051,259.496L748.126,259.437L748.201,259.375L748.273,259.314L748.343,259.251L748.413,259.187L748.482,259.121L748.549,259.053L748.614,258.985L748.678,258.916L748.743,258.843L748.805,258.77L748.864,258.697L748.923,258.622L748.981,258.546L749.037,258.468L749.091,258.391L749.144,258.311L749.196,258.23L749.246,258.148L749.295,258.065L749.34,257.984L749.385,257.899L749.43,257.812L749.471,257.726L749.511,257.639L749.549,257.552L749.586,257.464L749.621,257.373L749.655,257.281L749.686,257.191L749.715,257.1L749.743,257.008L749.769,256.913L749.793,256.82L749.815,256.727L749.836,256.629L749.855,256.533L749.871,256.44L749.886,256.343L749.899,256.243L749.91,256.146L749.919,256.047L749.927,255.947L749.932,255.847L749.935,255.748L749.936,255.623L749.936,206.979L650.191,206.979Z" style="fill:rgb(185,185,185);"/>
                </g>
                <g transform="matrix(4.16667,0,0,4.16667,447.51,-5.68434e-14)">
                    <path d="M711.663,410.856C712.286,410.856 712.888,410.94 713.468,411.083L713.468,274.321C709.492,274.644 705.357,274.842 701.058,274.867C696.046,274.897 691.24,274.699 686.659,274.328L686.659,411.083C687.239,410.94 687.84,410.856 688.464,410.856L711.663,410.856Z" style="fill:rgb(185,185,185);fill-rule:nonzero;"/>
                </g>
                <g transform="matrix(8.63593,0,0,8.63593,-3151.9,-3145.4)">
                    <path d="M749.27,486.221C748.886,486.221 748.586,486.113 748.37,485.897C748.154,485.681 748.046,485.389 748.046,485.021L748.046,470.501C748.046,470.133 748.154,469.841 748.37,469.625C748.586,469.409 748.886,469.301 749.27,469.301L753.974,469.301C756.71,469.301 758.83,470.037 760.334,471.509C761.838,472.981 762.59,475.061 762.59,477.749C762.59,480.437 761.838,482.521 760.334,484.001C758.83,485.481 756.71,486.221 753.974,486.221L749.27,486.221ZM753.83,484.157C757.99,484.157 760.07,482.021 760.07,477.749C760.07,473.493 757.99,471.365 753.83,471.365L750.518,471.365L750.518,484.157L753.83,484.157Z" style="fill:rgb(185,185,185);fill-rule:nonzero;"/>
                </g>
            </g>
        </g>
    </g>
</svg>
