<?xml version="1.0" encoding="UTF-8" standalone="no"?>
<!DOCTYPE svg PUBLIC "-//W3C//DTD SVG 1.1//EN" "http://www.w3.org/Graphics/SVG/1.1/DTD/svg11.dtd">
<svg width="100%" height="100%" viewBox="0 0 666 135" version="1.1" xmlns="http://www.w3.org/2000/svg" xmlns:xlink="http://www.w3.org/1999/xlink" xml:space="preserve" xmlns:serif="http://www.serif.com/" style="fill-rule:evenodd;clip-rule:evenodd;stroke-linejoin:round;stroke-miterlimit:1.41421;">
    <g transform="matrix(1,0,0,1,-8560,-561)">
        <g transform="matrix(1,0,0,1,1360,525)">
            <g transform="matrix(1,0,0,1,7188.33,140)">
                <g id="Forcepoint">
                    <path d="M12.305,-103.289L83.953,-103.289L83.953,-90.633L26.297,-90.633L26.297,-59.273L76.992,-59.273L76.992,-46.969L26.297,-46.969L26.297,0L12.305,0L12.305,-103.289Z" style="fill:rgb(163,163,163);fill-rule:nonzero;"/>
                    <path d="M127.125,-8.156C135.516,-8.156 141.27,-11.332 144.387,-17.684C147.504,-24.035 149.063,-31.102 149.063,-38.883C149.063,-45.914 147.938,-51.633 145.688,-56.039C142.125,-62.977 135.984,-66.445 127.266,-66.445C119.531,-66.445 113.906,-63.492 110.391,-57.586C106.875,-51.68 105.117,-44.555 105.117,-36.211C105.117,-28.195 106.875,-21.516 110.391,-16.172C113.906,-10.828 119.484,-8.156 127.125,-8.156ZM127.617,-77.484C137.32,-77.484 145.523,-74.25 152.227,-67.781C158.93,-61.313 162.281,-51.797 162.281,-39.234C162.281,-27.094 159.328,-17.063 153.422,-9.141C147.516,-1.219 138.352,2.742 125.93,2.742C115.57,2.742 107.344,-0.762 101.25,-7.77C95.156,-14.777 92.109,-24.188 92.109,-36C92.109,-48.656 95.32,-58.734 101.742,-66.234C108.164,-73.734 116.789,-77.484 127.617,-77.484Z" style="fill:rgb(163,163,163);fill-rule:nonzero;"/>
                    <path d="M177.68,-75.305L189.703,-75.305L189.703,-62.297C190.688,-64.828 193.102,-67.91 196.945,-71.543C200.789,-75.176 205.219,-76.992 210.234,-76.992C210.469,-76.992 210.867,-76.969 211.43,-76.922C211.992,-76.875 212.953,-76.781 214.313,-76.641L214.313,-63.281C213.563,-63.422 212.871,-63.516 212.238,-63.563C211.605,-63.609 210.914,-63.633 210.164,-63.633C203.789,-63.633 198.891,-61.582 195.469,-57.48C192.047,-53.379 190.336,-48.656 190.336,-43.313L190.336,0L177.68,0L177.68,-75.305Z" style="fill:rgb(163,163,163);fill-rule:nonzero;"/>
                    <path d="M254.32,-77.484C262.805,-77.484 269.707,-75.422 275.027,-71.297C280.348,-67.172 283.547,-60.07 284.625,-49.992L272.32,-49.992C271.57,-54.633 269.859,-58.488 267.188,-61.559C264.516,-64.629 260.227,-66.164 254.32,-66.164C246.258,-66.164 240.492,-62.227 237.023,-54.352C234.773,-49.242 233.648,-42.938 233.648,-35.438C233.648,-27.891 235.242,-21.539 238.43,-16.383C241.617,-11.227 246.633,-8.648 253.477,-8.648C258.727,-8.648 262.887,-10.254 265.957,-13.465C269.027,-16.676 271.148,-21.07 272.32,-26.648L284.625,-26.648C283.219,-16.664 279.703,-9.363 274.078,-4.746C268.453,-0.129 261.258,2.18 252.492,2.18C242.648,2.18 234.797,-1.418 228.938,-8.613C223.078,-15.809 220.148,-24.797 220.148,-35.578C220.148,-48.797 223.359,-59.086 229.781,-66.445C236.203,-73.805 244.383,-77.484 254.32,-77.484Z" style="fill:rgb(163,163,163);fill-rule:nonzero;"/>
                    <path d="M328.641,-76.992C333.984,-76.992 339.164,-75.738 344.18,-73.23C349.195,-70.723 353.016,-67.477 355.641,-63.492C358.172,-59.695 359.859,-55.266 360.703,-50.203C361.453,-46.734 361.828,-41.203 361.828,-33.609L306.633,-33.609C306.867,-25.969 308.672,-19.84 312.047,-15.223C315.422,-10.605 320.648,-8.297 327.727,-8.297C334.336,-8.297 339.609,-10.477 343.547,-14.836C345.797,-17.367 347.391,-20.297 348.328,-23.625L360.773,-23.625C360.445,-20.859 359.355,-17.777 357.504,-14.379C355.652,-10.98 353.578,-8.203 351.281,-6.047C347.438,-2.297 342.68,0.234 337.008,1.547C333.961,2.297 330.516,2.672 326.672,2.672C317.297,2.672 309.352,-0.738 302.836,-7.559C296.32,-14.379 293.063,-23.93 293.063,-36.211C293.063,-48.305 296.344,-58.125 302.906,-65.672C309.469,-73.219 318.047,-76.992 328.641,-76.992ZM348.82,-43.664C348.305,-49.148 347.109,-53.531 345.234,-56.813C341.766,-62.906 335.977,-65.953 327.867,-65.953C322.055,-65.953 317.18,-63.855 313.242,-59.66C309.305,-55.465 307.219,-50.133 306.984,-43.664L348.82,-43.664Z" style="fill:rgb(163,163,163);fill-rule:nonzero;"/>
                    <path d="M409.148,-8.508C415.055,-8.508 419.965,-10.98 423.879,-15.926C427.793,-20.871 429.75,-28.266 429.75,-38.109C429.75,-44.109 428.883,-49.266 427.148,-53.578C423.867,-61.875 417.867,-66.023 409.148,-66.023C400.383,-66.023 394.383,-61.641 391.148,-52.875C389.414,-48.188 388.547,-42.234 388.547,-35.016C388.547,-29.203 389.414,-24.258 391.148,-20.18C394.43,-12.398 400.43,-8.508 409.148,-8.508ZM376.383,-74.953L388.688,-74.953L388.688,-64.969C391.219,-68.391 393.984,-71.039 396.984,-72.914C401.25,-75.727 406.266,-77.133 412.031,-77.133C420.563,-77.133 427.805,-73.863 433.758,-67.324C439.711,-60.785 442.688,-51.445 442.688,-39.305C442.688,-22.898 438.398,-11.18 429.82,-4.148C424.383,0.305 418.055,2.531 410.836,2.531C405.164,2.531 400.406,1.289 396.563,-1.195C394.313,-2.602 391.805,-5.016 389.039,-8.438L389.039,30.023L376.383,30.023L376.383,-74.953Z" style="fill:rgb(163,163,163);fill-rule:nonzero;"/>
                    <path d="M487.336,-8.156C495.727,-8.156 501.48,-11.332 504.598,-17.684C507.715,-24.035 509.273,-31.102 509.273,-38.883C509.273,-45.914 508.148,-51.633 505.898,-56.039C502.336,-62.977 496.195,-66.445 487.477,-66.445C479.742,-66.445 474.117,-63.492 470.602,-57.586C467.086,-51.68 465.328,-44.555 465.328,-36.211C465.328,-28.195 467.086,-21.516 470.602,-16.172C474.117,-10.828 479.695,-8.156 487.336,-8.156ZM487.828,-77.484C497.531,-77.484 505.734,-74.25 512.438,-67.781C519.141,-61.313 522.492,-51.797 522.492,-39.234C522.492,-27.094 519.539,-17.063 513.633,-9.141C507.727,-1.219 498.563,2.742 486.141,2.742C475.781,2.742 467.555,-0.762 461.461,-7.77C455.367,-14.777 452.32,-24.188 452.32,-36C452.32,-48.656 455.531,-58.734 461.953,-66.234C468.375,-73.734 477,-77.484 487.828,-77.484Z" style="fill:rgb(163,163,163);fill-rule:nonzero;"/>
                    <path d="M537.539,-74.953L550.406,-74.953L550.406,0L537.539,0L537.539,-74.953ZM537.539,-103.289L550.406,-103.289L550.406,-88.945L537.539,-88.945L537.539,-103.289Z" style="fill:rgb(163,163,163);fill-rule:nonzero;"/>
                    <path d="M569.531,-75.305L581.555,-75.305L581.555,-64.617C585.117,-69.023 588.891,-72.188 592.875,-74.109C596.859,-76.031 601.289,-76.992 606.164,-76.992C616.852,-76.992 624.07,-73.266 627.82,-65.813C629.883,-61.734 630.914,-55.898 630.914,-48.305L630.914,0L618.047,0L618.047,-47.461C618.047,-52.055 617.367,-55.758 616.008,-58.57C613.758,-63.258 609.68,-65.602 603.773,-65.602C600.773,-65.602 598.313,-65.297 596.391,-64.688C592.922,-63.656 589.875,-61.594 587.25,-58.5C585.141,-56.016 583.77,-53.449 583.137,-50.801C582.504,-48.152 582.188,-44.367 582.188,-39.445L582.188,0L569.531,0L569.531,-75.305Z" style="fill:rgb(163,163,163);fill-rule:nonzero;"/>
                    <path d="M652.148,-96.328L664.945,-96.328L664.945,-75.305L676.969,-75.305L676.969,-64.969L664.945,-64.969L664.945,-15.82C664.945,-13.195 665.836,-11.438 667.617,-10.547C668.602,-10.031 670.242,-9.773 672.539,-9.773C673.148,-9.773 673.805,-9.785 674.508,-9.809C675.211,-9.832 676.031,-9.891 676.969,-9.984L676.969,0C675.516,0.422 674.004,0.727 672.434,0.914C670.863,1.102 669.164,1.195 667.336,1.195C661.43,1.195 657.422,-0.316 655.313,-3.34C653.203,-6.363 652.148,-10.289 652.148,-15.117L652.148,-64.969L641.953,-64.969L641.953,-75.305L652.148,-75.305L652.148,-96.328Z" style="fill:rgb(163,163,163);fill-rule:nonzero;"/>
                </g>
            </g>
        </g>
    </g>
</svg>
