<?xml version="1.0" encoding="UTF-8" standalone="no"?>
<!DOCTYPE svg PUBLIC "-//W3C//DTD SVG 1.1//EN" "http://www.w3.org/Graphics/SVG/1.1/DTD/svg11.dtd">
<svg width="100%" height="100%" viewBox="0 0 88 88" version="1.1" xmlns="http://www.w3.org/2000/svg" xmlns:xlink="http://www.w3.org/1999/xlink" xml:space="preserve" xmlns:serif="http://www.serif.com/" style="fill-rule:evenodd;clip-rule:evenodd;">
    <g id="Group-95">
        <circle id="Oval-11" cx="44.1" cy="44.1" r="42" style="fill:none;stroke:rgb(255,153,0);stroke-width:4.2px;"/>
        <g id="Group-100">
            <path id="Combined-Shape" d="M60.57,40.71C60.816,37.516 60.886,34.311 60.78,31.11C60.78,29.85 60.78,29.06 60.78,28.39C49.96,25.115 38.415,25.07 27.57,28.26C27.57,28.92 27.57,29.7 27.57,30.98C27.438,34.224 27.491,37.472 27.73,40.71C28.67,51.64 33.18,58.71 44.17,62.65C55.09,58.67 59.6,51.65 60.57,40.71ZM24.26,27.65C24.19,27.465 24.154,27.268 24.154,27.071C24.154,26.372 24.6,25.747 25.26,25.52C37.449,21.63 50.556,21.655 62.73,25.59L62.85,25.59C63.548,25.808 64.02,26.469 64,27.2C64,28.2 64,29.03 64,31.07C64.127,34.38 64.074,37.695 63.84,41C62.74,53.31 57.35,61.54 44.64,65.94C44.29,66.06 43.91,66.06 43.56,65.94C30.85,61.53 25.44,53.3 24.39,41C24.138,37.649 24.081,34.287 24.22,30.93C24.25,29.25 24.26,28.44 24.26,27.65Z" style="fill:rgb(255,153,0);fill-rule:nonzero;"/>
            <path id="Path-60" d="M53.41,34.89L55.78,37.26L41.74,51.3L33.67,43.23L36.05,40.85L41.74,46.55L53.41,34.89Z" style="fill:rgb(255,153,0);fill-rule:nonzero;"/>
        </g>
    </g>
</svg>
