<?xml version="1.0" encoding="UTF-8" standalone="no"?>
<!DOCTYPE svg PUBLIC "-//W3C//DTD SVG 1.1//EN" "http://www.w3.org/Graphics/SVG/1.1/DTD/svg11.dtd">
<svg width="100%" height="100%" viewBox="0 0 1902 740" version="1.1" xmlns="http://www.w3.org/2000/svg" xmlns:xlink="http://www.w3.org/1999/xlink" xml:space="preserve" xmlns:serif="http://www.serif.com/" style="fill-rule:evenodd;clip-rule:evenodd;">
    <g transform="matrix(1,0,0,1,-774,-5429)">
        <g id="Legend" transform="matrix(1,0,0,1,774,5429)">
            <rect id="Rectangle-3" x="0" y="0" width="1902" height="727" style="fill:rgb(53,53,53);"/>
            <g transform="matrix(1,0,0,1,91,177)">
                <g id="LEGEND">
                    <path d="M18.288,0C16.656,0 15.288,-0.504 14.184,-1.512C13.08,-2.52 12.528,-3.84 12.528,-5.472L12.528,-96.192C12.528,-98.016 13.056,-99.48 14.112,-100.584C15.168,-101.688 16.608,-102.24 18.432,-102.24C20.256,-102.24 21.696,-101.688 22.752,-100.584C23.808,-99.48 24.336,-98.016 24.336,-96.192L24.336,-10.08L70.848,-10.08C72.576,-10.08 73.92,-9.648 74.88,-8.784C75.84,-7.92 76.32,-6.672 76.32,-5.04C76.32,-3.408 75.84,-2.16 74.88,-1.296C73.92,-0.432 72.576,0 70.848,0L18.288,0Z" style="fill:rgb(163,163,163);fill-rule:nonzero;"/>
                    <path d="M96.336,0C94.512,0 93.048,-0.528 91.944,-1.584C90.84,-2.64 90.288,-4.032 90.288,-5.76L90.288,-95.76C90.288,-97.488 90.84,-98.88 91.944,-99.936C93.048,-100.992 94.512,-101.52 96.336,-101.52L150.192,-101.52C151.92,-101.52 153.264,-101.088 154.224,-100.224C155.184,-99.36 155.664,-98.16 155.664,-96.624C155.664,-95.088 155.184,-93.888 154.224,-93.024C153.264,-92.16 151.92,-91.728 150.192,-91.728L101.952,-91.728L101.952,-56.448L147.312,-56.448C149.04,-56.448 150.384,-56.016 151.344,-55.152C152.304,-54.288 152.784,-53.088 152.784,-51.552C152.784,-50.016 152.304,-48.816 151.344,-47.952C150.384,-47.088 149.04,-46.656 147.312,-46.656L101.952,-46.656L101.952,-9.792L150.192,-9.792C151.92,-9.792 153.264,-9.384 154.224,-8.568C155.184,-7.752 155.664,-6.528 155.664,-4.896C155.664,-3.36 155.184,-2.16 154.224,-1.296C153.264,-0.432 151.92,0 150.192,0L96.336,0Z" style="fill:rgb(163,163,163);fill-rule:nonzero;"/>
                    <path d="M248.976,-52.848C250.416,-52.848 251.592,-52.416 252.504,-51.552C253.416,-50.688 253.872,-49.488 253.872,-47.952L253.872,-12.096C253.872,-9.792 253.512,-8.064 252.792,-6.912C252.072,-5.76 250.752,-4.848 248.832,-4.176C244.992,-2.544 240.336,-1.248 234.864,-0.288C229.392,0.672 223.92,1.152 218.448,1.152C208.368,1.152 199.68,-0.912 192.384,-5.04C185.088,-9.168 179.496,-15.12 175.608,-22.896C171.72,-30.672 169.776,-39.984 169.776,-50.832C169.776,-61.488 171.696,-70.704 175.536,-78.48C179.376,-86.256 184.896,-92.232 192.096,-96.408C199.296,-100.584 207.744,-102.672 217.44,-102.672C224.16,-102.672 230.4,-101.64 236.16,-99.576C241.92,-97.512 246.768,-94.56 250.704,-90.72C252.336,-89.088 253.152,-87.408 253.152,-85.68C253.152,-84.336 252.768,-83.16 252,-82.152C251.232,-81.144 250.272,-80.64 249.12,-80.64C247.968,-80.64 246.624,-81.216 245.088,-82.368C240.096,-86.208 235.584,-88.872 231.552,-90.36C227.52,-91.848 222.864,-92.592 217.584,-92.592C206.16,-92.592 197.4,-88.992 191.304,-81.792C185.208,-74.592 182.16,-64.272 182.16,-50.832C182.16,-37.104 185.256,-26.664 191.448,-19.512C197.64,-12.36 206.736,-8.784 218.736,-8.784C227.664,-8.784 235.776,-10.128 243.072,-12.816L243.072,-43.632L222.048,-43.632C220.416,-43.632 219.12,-44.064 218.16,-44.928C217.2,-45.792 216.72,-46.896 216.72,-48.24C216.72,-49.68 217.2,-50.808 218.16,-51.624C219.12,-52.44 220.416,-52.848 222.048,-52.848L248.976,-52.848Z" style="fill:rgb(163,163,163);fill-rule:nonzero;"/>
                    <path d="M283.824,0C282,0 280.536,-0.528 279.432,-1.584C278.328,-2.64 277.776,-4.032 277.776,-5.76L277.776,-95.76C277.776,-97.488 278.328,-98.88 279.432,-99.936C280.536,-100.992 282,-101.52 283.824,-101.52L337.68,-101.52C339.408,-101.52 340.752,-101.088 341.712,-100.224C342.672,-99.36 343.152,-98.16 343.152,-96.624C343.152,-95.088 342.672,-93.888 341.712,-93.024C340.752,-92.16 339.408,-91.728 337.68,-91.728L289.44,-91.728L289.44,-56.448L334.8,-56.448C336.528,-56.448 337.872,-56.016 338.832,-55.152C339.792,-54.288 340.272,-53.088 340.272,-51.552C340.272,-50.016 339.792,-48.816 338.832,-47.952C337.872,-47.088 336.528,-46.656 334.8,-46.656L289.44,-46.656L289.44,-9.792L337.68,-9.792C339.408,-9.792 340.752,-9.384 341.712,-8.568C342.672,-7.752 343.152,-6.528 343.152,-4.896C343.152,-3.36 342.672,-2.16 341.712,-1.296C340.752,-0.432 339.408,0 337.68,0L283.824,0Z" style="fill:rgb(163,163,163);fill-rule:nonzero;"/>
                    <path d="M437.472,-102.24C439.2,-102.24 440.544,-101.688 441.504,-100.584C442.464,-99.48 442.944,-98.016 442.944,-96.192L442.944,-5.328C442.944,-3.504 442.44,-2.04 441.432,-0.936C440.424,0.168 439.008,0.72 437.184,0.72C435.36,0.72 433.776,-0.096 432.432,-1.728L372.672,-81.648L372.672,-5.328C372.672,-3.504 372.168,-2.04 371.16,-0.936C370.152,0.168 368.784,0.72 367.056,0.72C365.328,0.72 363.984,0.168 363.024,-0.936C362.064,-2.04 361.584,-3.504 361.584,-5.328L361.584,-96.192C361.584,-98.016 362.088,-99.48 363.096,-100.584C364.104,-101.688 365.52,-102.24 367.344,-102.24C369.264,-102.24 370.896,-101.424 372.24,-99.792L431.856,-19.872L431.856,-96.192C431.856,-98.016 432.36,-99.48 433.368,-100.584C434.376,-101.688 435.744,-102.24 437.472,-102.24Z" style="fill:rgb(163,163,163);fill-rule:nonzero;"/>
                    <path d="M474.048,0C472.224,0 470.76,-0.528 469.656,-1.584C468.552,-2.64 468,-4.032 468,-5.76L468,-95.76C468,-97.488 468.552,-98.88 469.656,-99.936C470.76,-100.992 472.224,-101.52 474.048,-101.52L502.128,-101.52C518.352,-101.52 530.904,-97.128 539.784,-88.344C548.664,-79.56 553.104,-67.056 553.104,-50.832C553.104,-34.608 548.64,-22.08 539.712,-13.248C530.784,-4.416 518.256,0 502.128,0L474.048,0ZM501.408,-10.08C527.712,-10.08 540.864,-23.664 540.864,-50.832C540.864,-77.904 527.712,-91.44 501.408,-91.44L479.808,-91.44L479.808,-10.08L501.408,-10.08Z" style="fill:rgb(163,163,163);fill-rule:nonzero;"/>
                </g>
            </g>
            <g transform="matrix(1,0,0,1,354,616)">
                <g id="Observed-evasions">
                    <path d="M55.008,1.152C45.6,1.152 37.416,-0.96 30.456,-5.184C23.496,-9.408 18.144,-15.408 14.4,-23.184C10.656,-30.96 8.784,-40.128 8.784,-50.688C8.784,-61.344 10.632,-70.584 14.328,-78.408C18.024,-86.232 23.352,-92.232 30.312,-96.408C37.272,-100.584 45.504,-102.672 55.008,-102.672C64.512,-102.672 72.744,-100.584 79.704,-96.408C86.664,-92.232 91.992,-86.232 95.688,-78.408C99.384,-70.584 101.232,-61.392 101.232,-50.832C101.232,-40.272 99.36,-31.08 95.616,-23.256C91.872,-15.432 86.52,-9.408 79.56,-5.184C72.6,-0.96 64.416,1.152 55.008,1.152ZM55.008,-8.928C65.76,-8.928 74.136,-12.552 80.136,-19.8C86.136,-27.048 89.136,-37.392 89.136,-50.832C89.136,-64.272 86.16,-74.592 80.208,-81.792C74.256,-88.992 65.856,-92.592 55.008,-92.592C44.256,-92.592 35.88,-88.968 29.88,-81.72C23.88,-74.472 20.88,-64.176 20.88,-50.832C20.88,-37.488 23.88,-27.168 29.88,-19.872C35.88,-12.576 44.256,-8.928 55.008,-8.928Z" style="fill:rgb(163,163,163);fill-rule:nonzero;"/>
                    <path d="M156.096,-71.856C162.24,-71.856 167.664,-70.368 172.368,-67.392C177.072,-64.416 180.72,-60.192 183.312,-54.72C185.904,-49.248 187.2,-42.912 187.2,-35.712C187.2,-28.416 185.904,-22.008 183.312,-16.488C180.72,-10.968 177.072,-6.672 172.368,-3.6C167.664,-0.528 162.24,1.008 156.096,1.008C150.624,1.008 145.848,-0.192 141.768,-2.592C137.688,-4.992 134.592,-8.4 132.48,-12.816L132.48,-5.04C132.48,-3.312 131.976,-1.92 130.968,-0.864C129.96,0.192 128.544,0.72 126.72,0.72C124.896,0.72 123.456,0.192 122.4,-0.864C121.344,-1.92 120.816,-3.312 120.816,-5.04L120.816,-96.624C120.816,-98.256 121.344,-99.6 122.4,-100.656C123.456,-101.712 124.896,-102.24 126.72,-102.24C128.544,-102.24 129.96,-101.736 130.968,-100.728C131.976,-99.72 132.48,-98.352 132.48,-96.624L132.48,-58.032C134.592,-62.448 137.688,-65.856 141.768,-68.256C145.848,-70.656 150.624,-71.856 156.096,-71.856ZM153.792,-8.64C160.608,-8.64 165.888,-11.016 169.632,-15.768C173.376,-20.52 175.248,-27.168 175.248,-35.712C175.248,-44.064 173.376,-50.544 169.632,-55.152C165.888,-59.76 160.608,-62.064 153.792,-62.064C146.976,-62.064 141.72,-59.76 138.024,-55.152C134.328,-50.544 132.48,-43.968 132.48,-35.424C132.48,-26.88 134.328,-20.28 138.024,-15.624C141.72,-10.968 146.976,-8.64 153.792,-8.64Z" style="fill:rgb(163,163,163);fill-rule:nonzero;"/>
                    <path d="M228.24,1.008C223.824,1.008 219.624,0.48 215.64,-0.576C211.656,-1.632 208.128,-3.12 205.056,-5.04C203.328,-6.192 202.104,-7.272 201.384,-8.28C200.664,-9.288 200.304,-10.512 200.304,-11.952C200.304,-13.2 200.664,-14.232 201.384,-15.048C202.104,-15.864 203.04,-16.272 204.192,-16.272C205.344,-16.272 207.024,-15.552 209.232,-14.112C212.112,-12.384 214.968,-11.016 217.8,-10.008C220.632,-9 224.16,-8.496 228.384,-8.496C233.568,-8.496 237.6,-9.408 240.48,-11.232C243.36,-13.056 244.8,-15.696 244.8,-19.152C244.8,-21.264 244.272,-22.968 243.216,-24.264C242.16,-25.56 240.336,-26.712 237.744,-27.72C235.152,-28.728 231.36,-29.76 226.368,-30.816C217.92,-32.64 211.872,-35.088 208.224,-38.16C204.576,-41.232 202.752,-45.408 202.752,-50.688C202.752,-54.816 203.904,-58.464 206.208,-61.632C208.512,-64.8 211.704,-67.296 215.784,-69.12C219.864,-70.944 224.496,-71.856 229.68,-71.856C233.424,-71.856 237.048,-71.352 240.552,-70.344C244.056,-69.336 247.152,-67.92 249.84,-66.096C253.104,-63.792 254.736,-61.392 254.736,-58.896C254.736,-57.648 254.352,-56.592 253.584,-55.728C252.816,-54.864 251.904,-54.432 250.848,-54.432C249.696,-54.432 247.968,-55.248 245.664,-56.88C242.976,-58.608 240.432,-59.952 238.032,-60.912C235.632,-61.872 232.656,-62.352 229.104,-62.352C224.592,-62.352 220.968,-61.344 218.232,-59.328C215.496,-57.312 214.128,-54.624 214.128,-51.264C214.128,-49.152 214.632,-47.448 215.64,-46.152C216.648,-44.856 218.328,-43.704 220.68,-42.696C223.032,-41.688 226.416,-40.704 230.832,-39.744C237.36,-38.304 242.424,-36.72 246.024,-34.992C249.624,-33.264 252.192,-31.152 253.728,-28.656C255.264,-26.16 256.032,-22.992 256.032,-19.152C256.032,-13.104 253.488,-8.232 248.4,-4.536C243.312,-0.84 236.592,1.008 228.24,1.008Z" style="fill:rgb(163,163,163);fill-rule:nonzero;"/>
                    <path d="M328.032,-16.272C329.088,-16.272 330,-15.84 330.768,-14.976C331.536,-14.112 331.92,-13.008 331.92,-11.664C331.92,-9.264 330.24,-7.056 326.88,-5.04C323.424,-3.024 319.776,-1.512 315.936,-0.504C312.096,0.504 308.352,1.008 304.704,1.008C293.856,1.008 285.288,-2.208 279,-8.64C272.712,-15.072 269.568,-23.952 269.568,-35.28C269.568,-42.48 270.96,-48.84 273.744,-54.36C276.528,-59.88 280.44,-64.176 285.48,-67.248C290.52,-70.32 296.256,-71.856 302.688,-71.856C311.808,-71.856 319.056,-68.88 324.432,-62.928C329.808,-56.976 332.496,-48.912 332.496,-38.736C332.496,-36.816 332.112,-35.424 331.344,-34.56C330.576,-33.696 329.328,-33.264 327.6,-33.264L281.232,-33.264C282.096,-16.752 289.92,-8.496 304.704,-8.496C308.448,-8.496 311.664,-9 314.352,-10.008C317.04,-11.016 319.92,-12.384 322.992,-14.112C325.488,-15.552 327.168,-16.272 328.032,-16.272ZM302.832,-62.784C296.688,-62.784 291.768,-60.864 288.072,-57.024C284.376,-53.184 282.192,-47.76 281.52,-40.752L322.272,-40.752C322.08,-47.856 320.304,-53.304 316.944,-57.096C313.584,-60.888 308.88,-62.784 302.832,-62.784Z" style="fill:rgb(163,163,163);fill-rule:nonzero;"/>
                    <path d="M384.336,-71.568C388.368,-71.856 390.384,-70.224 390.384,-66.672C390.384,-65.136 389.952,-63.912 389.088,-63C388.224,-62.088 386.736,-61.536 384.624,-61.344L380.304,-60.912C373.872,-60.336 369.096,-58.056 365.976,-54.072C362.856,-50.088 361.296,-45.408 361.296,-40.032L361.296,-5.04C361.296,-3.12 360.768,-1.68 359.712,-0.72C358.656,0.24 357.264,0.72 355.536,0.72C353.808,0.72 352.392,0.216 351.288,-0.792C350.184,-1.8 349.632,-3.216 349.632,-5.04L349.632,-65.808C349.632,-67.632 350.208,-69.048 351.36,-70.056C352.512,-71.064 353.904,-71.568 355.536,-71.568C357.072,-71.568 358.368,-71.064 359.424,-70.056C360.48,-69.048 361.008,-67.68 361.008,-65.952L361.008,-57.888C363.024,-62.112 365.88,-65.328 369.576,-67.536C373.272,-69.744 377.52,-71.04 382.32,-71.424L384.336,-71.568Z" style="fill:rgb(163,163,163);fill-rule:nonzero;"/>
                    <path d="M455.328,-67.968C456.384,-70.272 458.064,-71.424 460.368,-71.424C461.808,-71.424 463.104,-70.944 464.256,-69.984C465.408,-69.024 465.984,-67.824 465.984,-66.384C465.984,-65.52 465.792,-64.752 465.408,-64.08L437.328,-3.6C436.752,-2.352 435.888,-1.368 434.736,-0.648C433.584,0.072 432.336,0.432 430.992,0.432C429.744,0.432 428.544,0.072 427.392,-0.648C426.24,-1.368 425.328,-2.352 424.656,-3.6L396.72,-64.08C396.336,-64.752 396.144,-65.472 396.144,-66.24C396.144,-67.68 396.792,-68.928 398.088,-69.984C399.384,-71.04 400.8,-71.568 402.336,-71.568C403.296,-71.568 404.232,-71.28 405.144,-70.704C406.056,-70.128 406.752,-69.312 407.232,-68.256L431.28,-14.256L455.328,-67.968Z" style="fill:rgb(163,163,163);fill-rule:nonzero;"/>
                    <path d="M532.224,-16.272C533.28,-16.272 534.192,-15.84 534.96,-14.976C535.728,-14.112 536.112,-13.008 536.112,-11.664C536.112,-9.264 534.432,-7.056 531.072,-5.04C527.616,-3.024 523.968,-1.512 520.128,-0.504C516.288,0.504 512.544,1.008 508.896,1.008C498.048,1.008 489.48,-2.208 483.192,-8.64C476.904,-15.072 473.76,-23.952 473.76,-35.28C473.76,-42.48 475.152,-48.84 477.936,-54.36C480.72,-59.88 484.632,-64.176 489.672,-67.248C494.712,-70.32 500.448,-71.856 506.88,-71.856C516,-71.856 523.248,-68.88 528.624,-62.928C534,-56.976 536.688,-48.912 536.688,-38.736C536.688,-36.816 536.304,-35.424 535.536,-34.56C534.768,-33.696 533.52,-33.264 531.792,-33.264L485.424,-33.264C486.288,-16.752 494.112,-8.496 508.896,-8.496C512.64,-8.496 515.856,-9 518.544,-10.008C521.232,-11.016 524.112,-12.384 527.184,-14.112C529.68,-15.552 531.36,-16.272 532.224,-16.272ZM507.024,-62.784C500.88,-62.784 495.96,-60.864 492.264,-57.024C488.568,-53.184 486.384,-47.76 485.712,-40.752L526.464,-40.752C526.272,-47.856 524.496,-53.304 521.136,-57.096C517.776,-60.888 513.072,-62.784 507.024,-62.784Z" style="fill:rgb(163,163,163);fill-rule:nonzero;"/>
                    <path d="M610.128,-102.24C611.952,-102.24 613.392,-101.712 614.448,-100.656C615.504,-99.6 616.032,-98.256 616.032,-96.624L616.032,-5.04C616.032,-3.312 615.504,-1.92 614.448,-0.864C613.392,0.192 611.952,0.72 610.128,0.72C608.304,0.72 606.888,0.192 605.88,-0.864C604.872,-1.92 604.368,-3.312 604.368,-5.04L604.368,-12.816C602.256,-8.4 599.16,-4.992 595.08,-2.592C591,-0.192 586.224,1.008 580.752,1.008C574.608,1.008 569.184,-0.528 564.48,-3.6C559.776,-6.672 556.128,-10.968 553.536,-16.488C550.944,-22.008 549.648,-28.416 549.648,-35.712C549.648,-42.912 550.944,-49.248 553.536,-54.72C556.128,-60.192 559.776,-64.416 564.48,-67.392C569.184,-70.368 574.608,-71.856 580.752,-71.856C586.224,-71.856 591,-70.656 595.08,-68.256C599.16,-65.856 602.256,-62.448 604.368,-58.032L604.368,-96.624C604.368,-98.352 604.872,-99.72 605.88,-100.728C606.888,-101.736 608.304,-102.24 610.128,-102.24ZM583.056,-8.64C589.872,-8.64 595.128,-10.968 598.824,-15.624C602.52,-20.28 604.368,-26.88 604.368,-35.424C604.368,-43.968 602.52,-50.544 598.824,-55.152C595.128,-59.76 589.872,-62.064 583.056,-62.064C576.24,-62.064 570.936,-59.76 567.144,-55.152C563.352,-50.544 561.456,-44.064 561.456,-35.712C561.456,-27.168 563.352,-20.52 567.144,-15.768C570.936,-11.016 576.24,-8.64 583.056,-8.64Z" style="fill:rgb(163,163,163);fill-rule:nonzero;"/>
                    <path d="M729.072,-16.272C730.128,-16.272 731.04,-15.84 731.808,-14.976C732.576,-14.112 732.96,-13.008 732.96,-11.664C732.96,-9.264 731.28,-7.056 727.92,-5.04C724.464,-3.024 720.816,-1.512 716.976,-0.504C713.136,0.504 709.392,1.008 705.744,1.008C694.896,1.008 686.328,-2.208 680.04,-8.64C673.752,-15.072 670.608,-23.952 670.608,-35.28C670.608,-42.48 672,-48.84 674.784,-54.36C677.568,-59.88 681.48,-64.176 686.52,-67.248C691.56,-70.32 697.296,-71.856 703.728,-71.856C712.848,-71.856 720.096,-68.88 725.472,-62.928C730.848,-56.976 733.536,-48.912 733.536,-38.736C733.536,-36.816 733.152,-35.424 732.384,-34.56C731.616,-33.696 730.368,-33.264 728.64,-33.264L682.272,-33.264C683.136,-16.752 690.96,-8.496 705.744,-8.496C709.488,-8.496 712.704,-9 715.392,-10.008C718.08,-11.016 720.96,-12.384 724.032,-14.112C726.528,-15.552 728.208,-16.272 729.072,-16.272ZM703.872,-62.784C697.728,-62.784 692.808,-60.864 689.112,-57.024C685.416,-53.184 683.232,-47.76 682.56,-40.752L723.312,-40.752C723.12,-47.856 721.344,-53.304 717.984,-57.096C714.624,-60.888 709.92,-62.784 703.872,-62.784Z" style="fill:rgb(163,163,163);fill-rule:nonzero;"/>
                    <path d="M800.352,-67.968C801.408,-70.272 803.088,-71.424 805.392,-71.424C806.832,-71.424 808.128,-70.944 809.28,-69.984C810.432,-69.024 811.008,-67.824 811.008,-66.384C811.008,-65.52 810.816,-64.752 810.432,-64.08L782.352,-3.6C781.776,-2.352 780.912,-1.368 779.76,-0.648C778.608,0.072 777.36,0.432 776.016,0.432C774.768,0.432 773.568,0.072 772.416,-0.648C771.264,-1.368 770.352,-2.352 769.68,-3.6L741.744,-64.08C741.36,-64.752 741.168,-65.472 741.168,-66.24C741.168,-67.68 741.816,-68.928 743.112,-69.984C744.408,-71.04 745.824,-71.568 747.36,-71.568C748.32,-71.568 749.256,-71.28 750.168,-70.704C751.08,-70.128 751.776,-69.312 752.256,-68.256L776.304,-14.256L800.352,-67.968Z" style="fill:rgb(163,163,163);fill-rule:nonzero;"/>
                    <path d="M851.184,-71.856C868.752,-71.856 877.536,-62.64 877.536,-44.208L877.536,-5.04C877.536,-3.312 877.032,-1.92 876.024,-0.864C875.016,0.192 873.648,0.72 871.92,0.72C870.192,0.72 868.8,0.192 867.744,-0.864C866.688,-1.92 866.16,-3.312 866.16,-5.04L866.16,-11.952C864.336,-7.824 861.552,-4.632 857.808,-2.376C854.064,-0.12 849.744,1.008 844.848,1.008C840.336,1.008 836.184,0.096 832.392,-1.728C828.6,-3.552 825.6,-6.096 823.392,-9.36C821.184,-12.624 820.08,-16.224 820.08,-20.16C820.08,-25.44 821.424,-29.544 824.112,-32.472C826.8,-35.4 831.216,-37.512 837.36,-38.808C843.504,-40.104 852.048,-40.752 862.992,-40.752L866.16,-40.752L866.16,-45.504C866.16,-51.264 864.984,-55.488 862.632,-58.176C860.28,-60.864 856.464,-62.208 851.184,-62.208C844.656,-62.208 838.032,-60.432 831.312,-56.88C828.72,-55.248 826.896,-54.432 825.84,-54.432C824.688,-54.432 823.728,-54.864 822.96,-55.728C822.192,-56.592 821.808,-57.696 821.808,-59.04C821.808,-60.384 822.216,-61.56 823.032,-62.568C823.848,-63.576 825.168,-64.608 826.992,-65.664C830.352,-67.584 834.168,-69.096 838.44,-70.2C842.712,-71.304 846.96,-71.856 851.184,-71.856ZM846.432,-8.208C852.192,-8.208 856.92,-10.152 860.616,-14.04C864.312,-17.928 866.16,-22.944 866.16,-29.088L866.16,-33.264L863.568,-33.264C855.12,-33.264 848.688,-32.904 844.272,-32.184C839.856,-31.464 836.712,-30.264 834.84,-28.584C832.968,-26.904 832.032,-24.432 832.032,-21.168C832.032,-17.424 833.4,-14.328 836.136,-11.88C838.872,-9.432 842.304,-8.208 846.432,-8.208Z" style="fill:rgb(163,163,163);fill-rule:nonzero;"/>
                    <path d="M922.464,1.008C918.048,1.008 913.848,0.48 909.864,-0.576C905.88,-1.632 902.352,-3.12 899.28,-5.04C897.552,-6.192 896.328,-7.272 895.608,-8.28C894.888,-9.288 894.528,-10.512 894.528,-11.952C894.528,-13.2 894.888,-14.232 895.608,-15.048C896.328,-15.864 897.264,-16.272 898.416,-16.272C899.568,-16.272 901.248,-15.552 903.456,-14.112C906.336,-12.384 909.192,-11.016 912.024,-10.008C914.856,-9 918.384,-8.496 922.608,-8.496C927.792,-8.496 931.824,-9.408 934.704,-11.232C937.584,-13.056 939.024,-15.696 939.024,-19.152C939.024,-21.264 938.496,-22.968 937.44,-24.264C936.384,-25.56 934.56,-26.712 931.968,-27.72C929.376,-28.728 925.584,-29.76 920.592,-30.816C912.144,-32.64 906.096,-35.088 902.448,-38.16C898.8,-41.232 896.976,-45.408 896.976,-50.688C896.976,-54.816 898.128,-58.464 900.432,-61.632C902.736,-64.8 905.928,-67.296 910.008,-69.12C914.088,-70.944 918.72,-71.856 923.904,-71.856C927.648,-71.856 931.272,-71.352 934.776,-70.344C938.28,-69.336 941.376,-67.92 944.064,-66.096C947.328,-63.792 948.96,-61.392 948.96,-58.896C948.96,-57.648 948.576,-56.592 947.808,-55.728C947.04,-54.864 946.128,-54.432 945.072,-54.432C943.92,-54.432 942.192,-55.248 939.888,-56.88C937.2,-58.608 934.656,-59.952 932.256,-60.912C929.856,-61.872 926.88,-62.352 923.328,-62.352C918.816,-62.352 915.192,-61.344 912.456,-59.328C909.72,-57.312 908.352,-54.624 908.352,-51.264C908.352,-49.152 908.856,-47.448 909.864,-46.152C910.872,-44.856 912.552,-43.704 914.904,-42.696C917.256,-41.688 920.64,-40.704 925.056,-39.744C931.584,-38.304 936.648,-36.72 940.248,-34.992C943.848,-33.264 946.416,-31.152 947.952,-28.656C949.488,-26.16 950.256,-22.992 950.256,-19.152C950.256,-13.104 947.712,-8.232 942.624,-4.536C937.536,-0.84 930.816,1.008 922.464,1.008Z" style="fill:rgb(163,163,163);fill-rule:nonzero;"/>
                    <path d="M973.872,0.72C972.144,0.72 970.728,0.216 969.624,-0.792C968.52,-1.8 967.968,-3.216 967.968,-5.04L967.968,-65.808C967.968,-67.632 968.52,-69.048 969.624,-70.056C970.728,-71.064 972.144,-71.568 973.872,-71.568C975.6,-71.568 976.992,-71.064 978.048,-70.056C979.104,-69.048 979.632,-67.632 979.632,-65.808L979.632,-5.04C979.632,-3.12 979.104,-1.68 978.048,-0.72C976.992,0.24 975.6,0.72 973.872,0.72ZM973.872,-86.688C971.568,-86.688 969.696,-87.36 968.256,-88.704C966.816,-90.048 966.096,-91.824 966.096,-94.032C966.096,-96.144 966.816,-97.872 968.256,-99.216C969.696,-100.56 971.568,-101.232 973.872,-101.232C976.176,-101.232 978.048,-100.56 979.488,-99.216C980.928,-97.872 981.648,-96.144 981.648,-94.032C981.648,-91.824 980.928,-90.048 979.488,-88.704C978.048,-87.36 976.176,-86.688 973.872,-86.688Z" style="fill:rgb(163,163,163);fill-rule:nonzero;"/>
                    <path d="M1030.46,1.008C1023.84,1.008 1018.01,-0.48 1012.97,-3.456C1007.93,-6.432 1004.04,-10.68 1001.3,-16.2C998.568,-21.72 997.2,-28.128 997.2,-35.424C997.2,-42.72 998.568,-49.128 1001.3,-54.648C1004.04,-60.168 1007.93,-64.416 1012.97,-67.392C1018.01,-70.368 1023.84,-71.856 1030.46,-71.856C1037.09,-71.856 1042.94,-70.368 1048.03,-67.392C1053.12,-64.416 1057.03,-60.168 1059.77,-54.648C1062.5,-49.128 1063.87,-42.72 1063.87,-35.424C1063.87,-28.128 1062.5,-21.72 1059.77,-16.2C1057.03,-10.68 1053.12,-6.432 1048.03,-3.456C1042.94,-0.48 1037.09,1.008 1030.46,1.008ZM1030.46,-8.64C1037.38,-8.64 1042.68,-10.92 1046.38,-15.48C1050.07,-20.04 1051.92,-26.688 1051.92,-35.424C1051.92,-43.968 1050.05,-50.568 1046.3,-55.224C1042.56,-59.88 1037.28,-62.208 1030.46,-62.208C1023.65,-62.208 1018.37,-59.88 1014.62,-55.224C1010.88,-50.568 1009.01,-43.968 1009.01,-35.424C1009.01,-26.784 1010.86,-20.16 1014.55,-15.552C1018.25,-10.944 1023.55,-8.64 1030.46,-8.64Z" style="fill:rgb(163,163,163);fill-rule:nonzero;"/>
                    <path d="M1116.58,-71.856C1133.38,-71.856 1141.78,-62.592 1141.78,-44.064L1141.78,-5.04C1141.78,-3.216 1141.27,-1.8 1140.26,-0.792C1139.26,0.216 1137.84,0.72 1136.02,0.72C1134.19,0.72 1132.75,0.216 1131.7,-0.792C1130.64,-1.8 1130.11,-3.216 1130.11,-5.04L1130.11,-43.344C1130.11,-49.872 1128.84,-54.624 1126.3,-57.6C1123.75,-60.576 1119.7,-62.064 1114.13,-62.064C1107.7,-62.064 1102.56,-60.096 1098.72,-56.16C1094.88,-52.224 1092.96,-46.896 1092.96,-40.176L1092.96,-5.04C1092.96,-3.216 1092.46,-1.8 1091.45,-0.792C1090.44,0.216 1089.02,0.72 1087.2,0.72C1085.38,0.72 1083.94,0.216 1082.88,-0.792C1081.82,-1.8 1081.3,-3.216 1081.3,-5.04L1081.3,-65.808C1081.3,-67.536 1081.82,-68.928 1082.88,-69.984C1083.94,-71.04 1085.38,-71.568 1087.2,-71.568C1088.93,-71.568 1090.3,-71.04 1091.3,-69.984C1092.31,-68.928 1092.82,-67.584 1092.82,-65.952L1092.82,-58.608C1095.12,-62.928 1098.34,-66.216 1102.46,-68.472C1106.59,-70.728 1111.3,-71.856 1116.58,-71.856Z" style="fill:rgb(163,163,163);fill-rule:nonzero;"/>
                    <path d="M1186.7,1.008C1182.29,1.008 1178.09,0.48 1174.1,-0.576C1170.12,-1.632 1166.59,-3.12 1163.52,-5.04C1161.79,-6.192 1160.57,-7.272 1159.85,-8.28C1159.13,-9.288 1158.77,-10.512 1158.77,-11.952C1158.77,-13.2 1159.13,-14.232 1159.85,-15.048C1160.57,-15.864 1161.5,-16.272 1162.66,-16.272C1163.81,-16.272 1165.49,-15.552 1167.7,-14.112C1170.58,-12.384 1173.43,-11.016 1176.26,-10.008C1179.1,-9 1182.62,-8.496 1186.85,-8.496C1192.03,-8.496 1196.06,-9.408 1198.94,-11.232C1201.82,-13.056 1203.26,-15.696 1203.26,-19.152C1203.26,-21.264 1202.74,-22.968 1201.68,-24.264C1200.62,-25.56 1198.8,-26.712 1196.21,-27.72C1193.62,-28.728 1189.82,-29.76 1184.83,-30.816C1176.38,-32.64 1170.34,-35.088 1166.69,-38.16C1163.04,-41.232 1161.22,-45.408 1161.22,-50.688C1161.22,-54.816 1162.37,-58.464 1164.67,-61.632C1166.98,-64.8 1170.17,-67.296 1174.25,-69.12C1178.33,-70.944 1182.96,-71.856 1188.14,-71.856C1191.89,-71.856 1195.51,-71.352 1199.02,-70.344C1202.52,-69.336 1205.62,-67.92 1208.3,-66.096C1211.57,-63.792 1213.2,-61.392 1213.2,-58.896C1213.2,-57.648 1212.82,-56.592 1212.05,-55.728C1211.28,-54.864 1210.37,-54.432 1209.31,-54.432C1208.16,-54.432 1206.43,-55.248 1204.13,-56.88C1201.44,-58.608 1198.9,-59.952 1196.5,-60.912C1194.1,-61.872 1191.12,-62.352 1187.57,-62.352C1183.06,-62.352 1179.43,-61.344 1176.7,-59.328C1173.96,-57.312 1172.59,-54.624 1172.59,-51.264C1172.59,-49.152 1173.1,-47.448 1174.1,-46.152C1175.11,-44.856 1176.79,-43.704 1179.14,-42.696C1181.5,-41.688 1184.88,-40.704 1189.3,-39.744C1195.82,-38.304 1200.89,-36.72 1204.49,-34.992C1208.09,-33.264 1210.66,-31.152 1212.19,-28.656C1213.73,-26.16 1214.5,-22.992 1214.5,-19.152C1214.5,-13.104 1211.95,-8.232 1206.86,-4.536C1201.78,-0.84 1195.06,1.008 1186.7,1.008Z" style="fill:rgb(163,163,163);fill-rule:nonzero;"/>
                </g>
            </g>
            <circle id="Oval-Copy-9" cx="190.5" cy="577.5" r="79.5" style="fill:rgb(6,116,178);stroke:white;stroke-opacity:0.478431;stroke-width:40px;"/>
            <g transform="matrix(1,0,0,1,354,387)">
                <g id="No-observed-evasions">
                    <path d="M88.416,-102.24C90.144,-102.24 91.488,-101.688 92.448,-100.584C93.408,-99.48 93.888,-98.016 93.888,-96.192L93.888,-5.328C93.888,-3.504 93.384,-2.04 92.376,-0.936C91.368,0.168 89.952,0.72 88.128,0.72C86.304,0.72 84.72,-0.096 83.376,-1.728L23.616,-81.648L23.616,-5.328C23.616,-3.504 23.112,-2.04 22.104,-0.936C21.096,0.168 19.728,0.72 18,0.72C16.272,0.72 14.928,0.168 13.968,-0.936C13.008,-2.04 12.528,-3.504 12.528,-5.328L12.528,-96.192C12.528,-98.016 13.032,-99.48 14.04,-100.584C15.048,-101.688 16.464,-102.24 18.288,-102.24C20.208,-102.24 21.84,-101.424 23.184,-99.792L82.8,-19.872L82.8,-96.192C82.8,-98.016 83.304,-99.48 84.312,-100.584C85.32,-101.688 86.688,-102.24 88.416,-102.24Z" style="fill:rgb(163,163,163);fill-rule:nonzero;"/>
                    <path d="M146.304,1.008C139.68,1.008 133.848,-0.48 128.808,-3.456C123.768,-6.432 119.88,-10.68 117.144,-16.2C114.408,-21.72 113.04,-28.128 113.04,-35.424C113.04,-42.72 114.408,-49.128 117.144,-54.648C119.88,-60.168 123.768,-64.416 128.808,-67.392C133.848,-70.368 139.68,-71.856 146.304,-71.856C152.928,-71.856 158.784,-70.368 163.872,-67.392C168.96,-64.416 172.872,-60.168 175.608,-54.648C178.344,-49.128 179.712,-42.72 179.712,-35.424C179.712,-28.128 178.344,-21.72 175.608,-16.2C172.872,-10.68 168.96,-6.432 163.872,-3.456C158.784,-0.48 152.928,1.008 146.304,1.008ZM146.304,-8.64C153.216,-8.64 158.52,-10.92 162.216,-15.48C165.912,-20.04 167.76,-26.688 167.76,-35.424C167.76,-43.968 165.888,-50.568 162.144,-55.224C158.4,-59.88 153.12,-62.208 146.304,-62.208C139.488,-62.208 134.208,-59.88 130.464,-55.224C126.72,-50.568 124.848,-43.968 124.848,-35.424C124.848,-26.784 126.696,-20.16 130.392,-15.552C134.088,-10.944 139.392,-8.64 146.304,-8.64Z" style="fill:rgb(163,163,163);fill-rule:nonzero;"/>
                    <path d="M263.376,1.008C256.752,1.008 250.92,-0.48 245.88,-3.456C240.84,-6.432 236.952,-10.68 234.216,-16.2C231.48,-21.72 230.112,-28.128 230.112,-35.424C230.112,-42.72 231.48,-49.128 234.216,-54.648C236.952,-60.168 240.84,-64.416 245.88,-67.392C250.92,-70.368 256.752,-71.856 263.376,-71.856C270,-71.856 275.856,-70.368 280.944,-67.392C286.032,-64.416 289.944,-60.168 292.68,-54.648C295.416,-49.128 296.784,-42.72 296.784,-35.424C296.784,-28.128 295.416,-21.72 292.68,-16.2C289.944,-10.68 286.032,-6.432 280.944,-3.456C275.856,-0.48 270,1.008 263.376,1.008ZM263.376,-8.64C270.288,-8.64 275.592,-10.92 279.288,-15.48C282.984,-20.04 284.832,-26.688 284.832,-35.424C284.832,-43.968 282.96,-50.568 279.216,-55.224C275.472,-59.88 270.192,-62.208 263.376,-62.208C256.56,-62.208 251.28,-59.88 247.536,-55.224C243.792,-50.568 241.92,-43.968 241.92,-35.424C241.92,-26.784 243.768,-20.16 247.464,-15.552C251.16,-10.944 256.464,-8.64 263.376,-8.64Z" style="fill:rgb(163,163,163);fill-rule:nonzero;"/>
                    <path d="M349.488,-71.856C355.632,-71.856 361.056,-70.368 365.76,-67.392C370.464,-64.416 374.112,-60.192 376.704,-54.72C379.296,-49.248 380.592,-42.912 380.592,-35.712C380.592,-28.416 379.296,-22.008 376.704,-16.488C374.112,-10.968 370.464,-6.672 365.76,-3.6C361.056,-0.528 355.632,1.008 349.488,1.008C344.016,1.008 339.24,-0.192 335.16,-2.592C331.08,-4.992 327.984,-8.4 325.872,-12.816L325.872,-5.04C325.872,-3.312 325.368,-1.92 324.36,-0.864C323.352,0.192 321.936,0.72 320.112,0.72C318.288,0.72 316.848,0.192 315.792,-0.864C314.736,-1.92 314.208,-3.312 314.208,-5.04L314.208,-96.624C314.208,-98.256 314.736,-99.6 315.792,-100.656C316.848,-101.712 318.288,-102.24 320.112,-102.24C321.936,-102.24 323.352,-101.736 324.36,-100.728C325.368,-99.72 325.872,-98.352 325.872,-96.624L325.872,-58.032C327.984,-62.448 331.08,-65.856 335.16,-68.256C339.24,-70.656 344.016,-71.856 349.488,-71.856ZM347.184,-8.64C354,-8.64 359.28,-11.016 363.024,-15.768C366.768,-20.52 368.64,-27.168 368.64,-35.712C368.64,-44.064 366.768,-50.544 363.024,-55.152C359.28,-59.76 354,-62.064 347.184,-62.064C340.368,-62.064 335.112,-59.76 331.416,-55.152C327.72,-50.544 325.872,-43.968 325.872,-35.424C325.872,-26.88 327.72,-20.28 331.416,-15.624C335.112,-10.968 340.368,-8.64 347.184,-8.64Z" style="fill:rgb(163,163,163);fill-rule:nonzero;"/>
                    <path d="M421.632,1.008C417.216,1.008 413.016,0.48 409.032,-0.576C405.048,-1.632 401.52,-3.12 398.448,-5.04C396.72,-6.192 395.496,-7.272 394.776,-8.28C394.056,-9.288 393.696,-10.512 393.696,-11.952C393.696,-13.2 394.056,-14.232 394.776,-15.048C395.496,-15.864 396.432,-16.272 397.584,-16.272C398.736,-16.272 400.416,-15.552 402.624,-14.112C405.504,-12.384 408.36,-11.016 411.192,-10.008C414.024,-9 417.552,-8.496 421.776,-8.496C426.96,-8.496 430.992,-9.408 433.872,-11.232C436.752,-13.056 438.192,-15.696 438.192,-19.152C438.192,-21.264 437.664,-22.968 436.608,-24.264C435.552,-25.56 433.728,-26.712 431.136,-27.72C428.544,-28.728 424.752,-29.76 419.76,-30.816C411.312,-32.64 405.264,-35.088 401.616,-38.16C397.968,-41.232 396.144,-45.408 396.144,-50.688C396.144,-54.816 397.296,-58.464 399.6,-61.632C401.904,-64.8 405.096,-67.296 409.176,-69.12C413.256,-70.944 417.888,-71.856 423.072,-71.856C426.816,-71.856 430.44,-71.352 433.944,-70.344C437.448,-69.336 440.544,-67.92 443.232,-66.096C446.496,-63.792 448.128,-61.392 448.128,-58.896C448.128,-57.648 447.744,-56.592 446.976,-55.728C446.208,-54.864 445.296,-54.432 444.24,-54.432C443.088,-54.432 441.36,-55.248 439.056,-56.88C436.368,-58.608 433.824,-59.952 431.424,-60.912C429.024,-61.872 426.048,-62.352 422.496,-62.352C417.984,-62.352 414.36,-61.344 411.624,-59.328C408.888,-57.312 407.52,-54.624 407.52,-51.264C407.52,-49.152 408.024,-47.448 409.032,-46.152C410.04,-44.856 411.72,-43.704 414.072,-42.696C416.424,-41.688 419.808,-40.704 424.224,-39.744C430.752,-38.304 435.816,-36.72 439.416,-34.992C443.016,-33.264 445.584,-31.152 447.12,-28.656C448.656,-26.16 449.424,-22.992 449.424,-19.152C449.424,-13.104 446.88,-8.232 441.792,-4.536C436.704,-0.84 429.984,1.008 421.632,1.008Z" style="fill:rgb(163,163,163);fill-rule:nonzero;"/>
                    <path d="M521.424,-16.272C522.48,-16.272 523.392,-15.84 524.16,-14.976C524.928,-14.112 525.312,-13.008 525.312,-11.664C525.312,-9.264 523.632,-7.056 520.272,-5.04C516.816,-3.024 513.168,-1.512 509.328,-0.504C505.488,0.504 501.744,1.008 498.096,1.008C487.248,1.008 478.68,-2.208 472.392,-8.64C466.104,-15.072 462.96,-23.952 462.96,-35.28C462.96,-42.48 464.352,-48.84 467.136,-54.36C469.92,-59.88 473.832,-64.176 478.872,-67.248C483.912,-70.32 489.648,-71.856 496.08,-71.856C505.2,-71.856 512.448,-68.88 517.824,-62.928C523.2,-56.976 525.888,-48.912 525.888,-38.736C525.888,-36.816 525.504,-35.424 524.736,-34.56C523.968,-33.696 522.72,-33.264 520.992,-33.264L474.624,-33.264C475.488,-16.752 483.312,-8.496 498.096,-8.496C501.84,-8.496 505.056,-9 507.744,-10.008C510.432,-11.016 513.312,-12.384 516.384,-14.112C518.88,-15.552 520.56,-16.272 521.424,-16.272ZM496.224,-62.784C490.08,-62.784 485.16,-60.864 481.464,-57.024C477.768,-53.184 475.584,-47.76 474.912,-40.752L515.664,-40.752C515.472,-47.856 513.696,-53.304 510.336,-57.096C506.976,-60.888 502.272,-62.784 496.224,-62.784Z" style="fill:rgb(163,163,163);fill-rule:nonzero;"/>
                    <path d="M577.728,-71.568C581.76,-71.856 583.776,-70.224 583.776,-66.672C583.776,-65.136 583.344,-63.912 582.48,-63C581.616,-62.088 580.128,-61.536 578.016,-61.344L573.696,-60.912C567.264,-60.336 562.488,-58.056 559.368,-54.072C556.248,-50.088 554.688,-45.408 554.688,-40.032L554.688,-5.04C554.688,-3.12 554.16,-1.68 553.104,-0.72C552.048,0.24 550.656,0.72 548.928,0.72C547.2,0.72 545.784,0.216 544.68,-0.792C543.576,-1.8 543.024,-3.216 543.024,-5.04L543.024,-65.808C543.024,-67.632 543.6,-69.048 544.752,-70.056C545.904,-71.064 547.296,-71.568 548.928,-71.568C550.464,-71.568 551.76,-71.064 552.816,-70.056C553.872,-69.048 554.4,-67.68 554.4,-65.952L554.4,-57.888C556.416,-62.112 559.272,-65.328 562.968,-67.536C566.664,-69.744 570.912,-71.04 575.712,-71.424L577.728,-71.568Z" style="fill:rgb(163,163,163);fill-rule:nonzero;"/>
                    <path d="M648.72,-67.968C649.776,-70.272 651.456,-71.424 653.76,-71.424C655.2,-71.424 656.496,-70.944 657.648,-69.984C658.8,-69.024 659.376,-67.824 659.376,-66.384C659.376,-65.52 659.184,-64.752 658.8,-64.08L630.72,-3.6C630.144,-2.352 629.28,-1.368 628.128,-0.648C626.976,0.072 625.728,0.432 624.384,0.432C623.136,0.432 621.936,0.072 620.784,-0.648C619.632,-1.368 618.72,-2.352 618.048,-3.6L590.112,-64.08C589.728,-64.752 589.536,-65.472 589.536,-66.24C589.536,-67.68 590.184,-68.928 591.48,-69.984C592.776,-71.04 594.192,-71.568 595.728,-71.568C596.688,-71.568 597.624,-71.28 598.536,-70.704C599.448,-70.128 600.144,-69.312 600.624,-68.256L624.672,-14.256L648.72,-67.968Z" style="fill:rgb(163,163,163);fill-rule:nonzero;"/>
                    <path d="M725.616,-16.272C726.672,-16.272 727.584,-15.84 728.352,-14.976C729.12,-14.112 729.504,-13.008 729.504,-11.664C729.504,-9.264 727.824,-7.056 724.464,-5.04C721.008,-3.024 717.36,-1.512 713.52,-0.504C709.68,0.504 705.936,1.008 702.288,1.008C691.44,1.008 682.872,-2.208 676.584,-8.64C670.296,-15.072 667.152,-23.952 667.152,-35.28C667.152,-42.48 668.544,-48.84 671.328,-54.36C674.112,-59.88 678.024,-64.176 683.064,-67.248C688.104,-70.32 693.84,-71.856 700.272,-71.856C709.392,-71.856 716.64,-68.88 722.016,-62.928C727.392,-56.976 730.08,-48.912 730.08,-38.736C730.08,-36.816 729.696,-35.424 728.928,-34.56C728.16,-33.696 726.912,-33.264 725.184,-33.264L678.816,-33.264C679.68,-16.752 687.504,-8.496 702.288,-8.496C706.032,-8.496 709.248,-9 711.936,-10.008C714.624,-11.016 717.504,-12.384 720.576,-14.112C723.072,-15.552 724.752,-16.272 725.616,-16.272ZM700.416,-62.784C694.272,-62.784 689.352,-60.864 685.656,-57.024C681.96,-53.184 679.776,-47.76 679.104,-40.752L719.856,-40.752C719.664,-47.856 717.888,-53.304 714.528,-57.096C711.168,-60.888 706.464,-62.784 700.416,-62.784Z" style="fill:rgb(163,163,163);fill-rule:nonzero;"/>
                    <path d="M803.52,-102.24C805.344,-102.24 806.784,-101.712 807.84,-100.656C808.896,-99.6 809.424,-98.256 809.424,-96.624L809.424,-5.04C809.424,-3.312 808.896,-1.92 807.84,-0.864C806.784,0.192 805.344,0.72 803.52,0.72C801.696,0.72 800.28,0.192 799.272,-0.864C798.264,-1.92 797.76,-3.312 797.76,-5.04L797.76,-12.816C795.648,-8.4 792.552,-4.992 788.472,-2.592C784.392,-0.192 779.616,1.008 774.144,1.008C768,1.008 762.576,-0.528 757.872,-3.6C753.168,-6.672 749.52,-10.968 746.928,-16.488C744.336,-22.008 743.04,-28.416 743.04,-35.712C743.04,-42.912 744.336,-49.248 746.928,-54.72C749.52,-60.192 753.168,-64.416 757.872,-67.392C762.576,-70.368 768,-71.856 774.144,-71.856C779.616,-71.856 784.392,-70.656 788.472,-68.256C792.552,-65.856 795.648,-62.448 797.76,-58.032L797.76,-96.624C797.76,-98.352 798.264,-99.72 799.272,-100.728C800.28,-101.736 801.696,-102.24 803.52,-102.24ZM776.448,-8.64C783.264,-8.64 788.52,-10.968 792.216,-15.624C795.912,-20.28 797.76,-26.88 797.76,-35.424C797.76,-43.968 795.912,-50.544 792.216,-55.152C788.52,-59.76 783.264,-62.064 776.448,-62.064C769.632,-62.064 764.328,-59.76 760.536,-55.152C756.744,-50.544 754.848,-44.064 754.848,-35.712C754.848,-27.168 756.744,-20.52 760.536,-15.768C764.328,-11.016 769.632,-8.64 776.448,-8.64Z" style="fill:rgb(163,163,163);fill-rule:nonzero;"/>
                    <path d="M922.464,-16.272C923.52,-16.272 924.432,-15.84 925.2,-14.976C925.968,-14.112 926.352,-13.008 926.352,-11.664C926.352,-9.264 924.672,-7.056 921.312,-5.04C917.856,-3.024 914.208,-1.512 910.368,-0.504C906.528,0.504 902.784,1.008 899.136,1.008C888.288,1.008 879.72,-2.208 873.432,-8.64C867.144,-15.072 864,-23.952 864,-35.28C864,-42.48 865.392,-48.84 868.176,-54.36C870.96,-59.88 874.872,-64.176 879.912,-67.248C884.952,-70.32 890.688,-71.856 897.12,-71.856C906.24,-71.856 913.488,-68.88 918.864,-62.928C924.24,-56.976 926.928,-48.912 926.928,-38.736C926.928,-36.816 926.544,-35.424 925.776,-34.56C925.008,-33.696 923.76,-33.264 922.032,-33.264L875.664,-33.264C876.528,-16.752 884.352,-8.496 899.136,-8.496C902.88,-8.496 906.096,-9 908.784,-10.008C911.472,-11.016 914.352,-12.384 917.424,-14.112C919.92,-15.552 921.6,-16.272 922.464,-16.272ZM897.264,-62.784C891.12,-62.784 886.2,-60.864 882.504,-57.024C878.808,-53.184 876.624,-47.76 875.952,-40.752L916.704,-40.752C916.512,-47.856 914.736,-53.304 911.376,-57.096C908.016,-60.888 903.312,-62.784 897.264,-62.784Z" style="fill:rgb(163,163,163);fill-rule:nonzero;"/>
                    <path d="M993.744,-67.968C994.8,-70.272 996.48,-71.424 998.784,-71.424C1000.22,-71.424 1001.52,-70.944 1002.67,-69.984C1003.82,-69.024 1004.4,-67.824 1004.4,-66.384C1004.4,-65.52 1004.21,-64.752 1003.82,-64.08L975.744,-3.6C975.168,-2.352 974.304,-1.368 973.152,-0.648C972,0.072 970.752,0.432 969.408,0.432C968.16,0.432 966.96,0.072 965.808,-0.648C964.656,-1.368 963.744,-2.352 963.072,-3.6L935.136,-64.08C934.752,-64.752 934.56,-65.472 934.56,-66.24C934.56,-67.68 935.208,-68.928 936.504,-69.984C937.8,-71.04 939.216,-71.568 940.752,-71.568C941.712,-71.568 942.648,-71.28 943.56,-70.704C944.472,-70.128 945.168,-69.312 945.648,-68.256L969.696,-14.256L993.744,-67.968Z" style="fill:rgb(163,163,163);fill-rule:nonzero;"/>
                    <path d="M1044.58,-71.856C1062.14,-71.856 1070.93,-62.64 1070.93,-44.208L1070.93,-5.04C1070.93,-3.312 1070.42,-1.92 1069.42,-0.864C1068.41,0.192 1067.04,0.72 1065.31,0.72C1063.58,0.72 1062.19,0.192 1061.14,-0.864C1060.08,-1.92 1059.55,-3.312 1059.55,-5.04L1059.55,-11.952C1057.73,-7.824 1054.94,-4.632 1051.2,-2.376C1047.46,-0.12 1043.14,1.008 1038.24,1.008C1033.73,1.008 1029.58,0.096 1025.78,-1.728C1021.99,-3.552 1018.99,-6.096 1016.78,-9.36C1014.58,-12.624 1013.47,-16.224 1013.47,-20.16C1013.47,-25.44 1014.82,-29.544 1017.5,-32.472C1020.19,-35.4 1024.61,-37.512 1030.75,-38.808C1036.9,-40.104 1045.44,-40.752 1056.38,-40.752L1059.55,-40.752L1059.55,-45.504C1059.55,-51.264 1058.38,-55.488 1056.02,-58.176C1053.67,-60.864 1049.86,-62.208 1044.58,-62.208C1038.05,-62.208 1031.42,-60.432 1024.7,-56.88C1022.11,-55.248 1020.29,-54.432 1019.23,-54.432C1018.08,-54.432 1017.12,-54.864 1016.35,-55.728C1015.58,-56.592 1015.2,-57.696 1015.2,-59.04C1015.2,-60.384 1015.61,-61.56 1016.42,-62.568C1017.24,-63.576 1018.56,-64.608 1020.38,-65.664C1023.74,-67.584 1027.56,-69.096 1031.83,-70.2C1036.1,-71.304 1040.35,-71.856 1044.58,-71.856ZM1039.82,-8.208C1045.58,-8.208 1050.31,-10.152 1054.01,-14.04C1057.7,-17.928 1059.55,-22.944 1059.55,-29.088L1059.55,-33.264L1056.96,-33.264C1048.51,-33.264 1042.08,-32.904 1037.66,-32.184C1033.25,-31.464 1030.1,-30.264 1028.23,-28.584C1026.36,-26.904 1025.42,-24.432 1025.42,-21.168C1025.42,-17.424 1026.79,-14.328 1029.53,-11.88C1032.26,-9.432 1035.7,-8.208 1039.82,-8.208Z" style="fill:rgb(163,163,163);fill-rule:nonzero;"/>
                    <path d="M1115.86,1.008C1111.44,1.008 1107.24,0.48 1103.26,-0.576C1099.27,-1.632 1095.74,-3.12 1092.67,-5.04C1090.94,-6.192 1089.72,-7.272 1089,-8.28C1088.28,-9.288 1087.92,-10.512 1087.92,-11.952C1087.92,-13.2 1088.28,-14.232 1089,-15.048C1089.72,-15.864 1090.66,-16.272 1091.81,-16.272C1092.96,-16.272 1094.64,-15.552 1096.85,-14.112C1099.73,-12.384 1102.58,-11.016 1105.42,-10.008C1108.25,-9 1111.78,-8.496 1116,-8.496C1121.18,-8.496 1125.22,-9.408 1128.1,-11.232C1130.98,-13.056 1132.42,-15.696 1132.42,-19.152C1132.42,-21.264 1131.89,-22.968 1130.83,-24.264C1129.78,-25.56 1127.95,-26.712 1125.36,-27.72C1122.77,-28.728 1118.98,-29.76 1113.98,-30.816C1105.54,-32.64 1099.49,-35.088 1095.84,-38.16C1092.19,-41.232 1090.37,-45.408 1090.37,-50.688C1090.37,-54.816 1091.52,-58.464 1093.82,-61.632C1096.13,-64.8 1099.32,-67.296 1103.4,-69.12C1107.48,-70.944 1112.11,-71.856 1117.3,-71.856C1121.04,-71.856 1124.66,-71.352 1128.17,-70.344C1131.67,-69.336 1134.77,-67.92 1137.46,-66.096C1140.72,-63.792 1142.35,-61.392 1142.35,-58.896C1142.35,-57.648 1141.97,-56.592 1141.2,-55.728C1140.43,-54.864 1139.52,-54.432 1138.46,-54.432C1137.31,-54.432 1135.58,-55.248 1133.28,-56.88C1130.59,-58.608 1128.05,-59.952 1125.65,-60.912C1123.25,-61.872 1120.27,-62.352 1116.72,-62.352C1112.21,-62.352 1108.58,-61.344 1105.85,-59.328C1103.11,-57.312 1101.74,-54.624 1101.74,-51.264C1101.74,-49.152 1102.25,-47.448 1103.26,-46.152C1104.26,-44.856 1105.94,-43.704 1108.3,-42.696C1110.65,-41.688 1114.03,-40.704 1118.45,-39.744C1124.98,-38.304 1130.04,-36.72 1133.64,-34.992C1137.24,-33.264 1139.81,-31.152 1141.34,-28.656C1142.88,-26.16 1143.65,-22.992 1143.65,-19.152C1143.65,-13.104 1141.1,-8.232 1136.02,-4.536C1130.93,-0.84 1124.21,1.008 1115.86,1.008Z" style="fill:rgb(163,163,163);fill-rule:nonzero;"/>
                    <path d="M1167.26,0.72C1165.54,0.72 1164.12,0.216 1163.02,-0.792C1161.91,-1.8 1161.36,-3.216 1161.36,-5.04L1161.36,-65.808C1161.36,-67.632 1161.91,-69.048 1163.02,-70.056C1164.12,-71.064 1165.54,-71.568 1167.26,-71.568C1168.99,-71.568 1170.38,-71.064 1171.44,-70.056C1172.5,-69.048 1173.02,-67.632 1173.02,-65.808L1173.02,-5.04C1173.02,-3.12 1172.5,-1.68 1171.44,-0.72C1170.38,0.24 1168.99,0.72 1167.26,0.72ZM1167.26,-86.688C1164.96,-86.688 1163.09,-87.36 1161.65,-88.704C1160.21,-90.048 1159.49,-91.824 1159.49,-94.032C1159.49,-96.144 1160.21,-97.872 1161.65,-99.216C1163.09,-100.56 1164.96,-101.232 1167.26,-101.232C1169.57,-101.232 1171.44,-100.56 1172.88,-99.216C1174.32,-97.872 1175.04,-96.144 1175.04,-94.032C1175.04,-91.824 1174.32,-90.048 1172.88,-88.704C1171.44,-87.36 1169.57,-86.688 1167.26,-86.688Z" style="fill:rgb(163,163,163);fill-rule:nonzero;"/>
                    <path d="M1223.86,1.008C1217.23,1.008 1211.4,-0.48 1206.36,-3.456C1201.32,-6.432 1197.43,-10.68 1194.7,-16.2C1191.96,-21.72 1190.59,-28.128 1190.59,-35.424C1190.59,-42.72 1191.96,-49.128 1194.7,-54.648C1197.43,-60.168 1201.32,-64.416 1206.36,-67.392C1211.4,-70.368 1217.23,-71.856 1223.86,-71.856C1230.48,-71.856 1236.34,-70.368 1241.42,-67.392C1246.51,-64.416 1250.42,-60.168 1253.16,-54.648C1255.9,-49.128 1257.26,-42.72 1257.26,-35.424C1257.26,-28.128 1255.9,-21.72 1253.16,-16.2C1250.42,-10.68 1246.51,-6.432 1241.42,-3.456C1236.34,-0.48 1230.48,1.008 1223.86,1.008ZM1223.86,-8.64C1230.77,-8.64 1236.07,-10.92 1239.77,-15.48C1243.46,-20.04 1245.31,-26.688 1245.31,-35.424C1245.31,-43.968 1243.44,-50.568 1239.7,-55.224C1235.95,-59.88 1230.67,-62.208 1223.86,-62.208C1217.04,-62.208 1211.76,-59.88 1208.02,-55.224C1204.27,-50.568 1202.4,-43.968 1202.4,-35.424C1202.4,-26.784 1204.25,-20.16 1207.94,-15.552C1211.64,-10.944 1216.94,-8.64 1223.86,-8.64Z" style="fill:rgb(163,163,163);fill-rule:nonzero;"/>
                    <path d="M1309.97,-71.856C1326.77,-71.856 1335.17,-62.592 1335.17,-44.064L1335.17,-5.04C1335.17,-3.216 1334.66,-1.8 1333.66,-0.792C1332.65,0.216 1331.23,0.72 1329.41,0.72C1327.58,0.72 1326.14,0.216 1325.09,-0.792C1324.03,-1.8 1323.5,-3.216 1323.5,-5.04L1323.5,-43.344C1323.5,-49.872 1322.23,-54.624 1319.69,-57.6C1317.14,-60.576 1313.09,-62.064 1307.52,-62.064C1301.09,-62.064 1295.95,-60.096 1292.11,-56.16C1288.27,-52.224 1286.35,-46.896 1286.35,-40.176L1286.35,-5.04C1286.35,-3.216 1285.85,-1.8 1284.84,-0.792C1283.83,0.216 1282.42,0.72 1280.59,0.72C1278.77,0.72 1277.33,0.216 1276.27,-0.792C1275.22,-1.8 1274.69,-3.216 1274.69,-5.04L1274.69,-65.808C1274.69,-67.536 1275.22,-68.928 1276.27,-69.984C1277.33,-71.04 1278.77,-71.568 1280.59,-71.568C1282.32,-71.568 1283.69,-71.04 1284.7,-69.984C1285.7,-68.928 1286.21,-67.584 1286.21,-65.952L1286.21,-58.608C1288.51,-62.928 1291.73,-66.216 1295.86,-68.472C1299.98,-70.728 1304.69,-71.856 1309.97,-71.856Z" style="fill:rgb(163,163,163);fill-rule:nonzero;"/>
                    <path d="M1380.1,1.008C1375.68,1.008 1371.48,0.48 1367.5,-0.576C1363.51,-1.632 1359.98,-3.12 1356.91,-5.04C1355.18,-6.192 1353.96,-7.272 1353.24,-8.28C1352.52,-9.288 1352.16,-10.512 1352.16,-11.952C1352.16,-13.2 1352.52,-14.232 1353.24,-15.048C1353.96,-15.864 1354.9,-16.272 1356.05,-16.272C1357.2,-16.272 1358.88,-15.552 1361.09,-14.112C1363.97,-12.384 1366.82,-11.016 1369.66,-10.008C1372.49,-9 1376.02,-8.496 1380.24,-8.496C1385.42,-8.496 1389.46,-9.408 1392.34,-11.232C1395.22,-13.056 1396.66,-15.696 1396.66,-19.152C1396.66,-21.264 1396.13,-22.968 1395.07,-24.264C1394.02,-25.56 1392.19,-26.712 1389.6,-27.72C1387.01,-28.728 1383.22,-29.76 1378.22,-30.816C1369.78,-32.64 1363.73,-35.088 1360.08,-38.16C1356.43,-41.232 1354.61,-45.408 1354.61,-50.688C1354.61,-54.816 1355.76,-58.464 1358.06,-61.632C1360.37,-64.8 1363.56,-67.296 1367.64,-69.12C1371.72,-70.944 1376.35,-71.856 1381.54,-71.856C1385.28,-71.856 1388.9,-71.352 1392.41,-70.344C1395.91,-69.336 1399.01,-67.92 1401.7,-66.096C1404.96,-63.792 1406.59,-61.392 1406.59,-58.896C1406.59,-57.648 1406.21,-56.592 1405.44,-55.728C1404.67,-54.864 1403.76,-54.432 1402.7,-54.432C1401.55,-54.432 1399.82,-55.248 1397.52,-56.88C1394.83,-58.608 1392.29,-59.952 1389.89,-60.912C1387.49,-61.872 1384.51,-62.352 1380.96,-62.352C1376.45,-62.352 1372.82,-61.344 1370.09,-59.328C1367.35,-57.312 1365.98,-54.624 1365.98,-51.264C1365.98,-49.152 1366.49,-47.448 1367.5,-46.152C1368.5,-44.856 1370.18,-43.704 1372.54,-42.696C1374.89,-41.688 1378.27,-40.704 1382.69,-39.744C1389.22,-38.304 1394.28,-36.72 1397.88,-34.992C1401.48,-33.264 1404.05,-31.152 1405.58,-28.656C1407.12,-26.16 1407.89,-22.992 1407.89,-19.152C1407.89,-13.104 1405.34,-8.232 1400.26,-4.536C1395.17,-0.84 1388.45,1.008 1380.1,1.008Z" style="fill:rgb(163,163,163);fill-rule:nonzero;"/>
                </g>
            </g>
            <circle id="Oval-Copy-5" cx="190.5" cy="339.5" r="79.5" style="fill:rgb(92,177,70);stroke:white;stroke-opacity:0.478431;stroke-width:40px;"/>
        </g>
    </g>
</svg>
