<?xml version="1.0" encoding="UTF-8" standalone="no"?>
<!DOCTYPE svg PUBLIC "-//W3C//DTD SVG 1.1//EN" "http://www.w3.org/Graphics/SVG/1.1/DTD/svg11.dtd">
<svg width="100%" height="100%" viewBox="0 0 852 71" version="1.1" xmlns="http://www.w3.org/2000/svg" xmlns:xlink="http://www.w3.org/1999/xlink" xml:space="preserve" xmlns:serif="http://www.serif.com/" style="fill-rule:evenodd;clip-rule:evenodd;stroke-linejoin:round;stroke-miterlimit:1.41421;">
    <g transform="matrix(1,0,0,1,-213,-515)">
        <g id="light-orange" serif:id="light orange" transform="matrix(5.07997,0,0,1.01515,-5186.87,-8.23349)">
            <path d="M1230.68,521.513C1230.68,518.419 1230.18,515.907 1229.56,515.907L1064.15,515.907C1063.54,515.907 1063.03,518.419 1063.03,521.513L1063.03,579.065C1063.03,582.158 1063.54,584.67 1064.15,584.67L1229.56,584.67C1230.18,584.67 1230.68,582.158 1230.68,579.065L1230.68,521.513Z" style="fill:rgb(253,163,72);"/>
            <clipPath id="_clip1">
                <path d="M1230.68,521.513C1230.68,518.419 1230.18,515.907 1229.56,515.907L1064.15,515.907C1063.54,515.907 1063.03,518.419 1063.03,521.513L1063.03,579.065C1063.03,582.158 1063.54,584.67 1064.15,584.67L1229.56,584.67C1230.18,584.67 1230.68,582.158 1230.68,579.065L1230.68,521.513Z"/>
            </clipPath>
            <g clip-path="url(#_clip1)">
                <g transform="matrix(0.196852,0,0,0.985078,1072.34,9.15073)">
                    <text x="250.749px" y="557.851px" style="font-family:'Nunito-Regular', 'Nunito';font-size:23px;fill:white;">Ne<tspan x="279.706px 291.62px 299.118px " y="557.851px 557.851px 557.851px ">xt-</tspan>Generation Malw<tspan x="484.015px 496.205px 504.094px " y="557.851px 557.851px 557.851px ">are</tspan> P<tspan x="536.754px 544.643px 556.626px 568.31px " y="557.851px 557.851px 557.851px 557.851px ">reve</tspan>ntion T<tspan x="650.42px " y="557.851px ">e</tspan>chnology</text>
                </g>
                <g transform="matrix(0.0997664,0,0,0.507825,1092,549.513)">
                    <g transform="matrix(1,0,0,1,-250,-50)">
                        <g id="Group" transform="matrix(1,0,0,1,5,6.85714)">
                            <path id="icon" d="M28.261,68.469L28.261,0.143L39.708,0.143L39.708,68.469L28.261,68.469ZM42.424,84.925L42.424,13.789C46.617,14.616 50.485,16.372 53.81,18.839L53.81,77.894L42.424,84.925ZM14.141,77.895L14.141,18.84C17.466,16.372 21.334,14.616 25.527,13.789L25.527,84.925L14.141,77.895ZM56.565,3.502C56.565,3.502 67.951,17.364 67.951,27.329L67.951,61.837C67.951,66.682 65.517,71.13 61.878,73.339L56.565,76.625L56.565,3.502ZM0,61.837L0,27.329C0,17.364 11.386,3.502 11.386,3.502L11.386,76.626L6.073,73.339C2.433,71.131 0,66.682 0,61.837Z" style="fill:rgb(84,45,120);"/>
                            <path id="text" d="M110.743,26.514C108.321,26.514 106.35,27.126 104.83,28.35C103.31,29.574 102.55,31.35 102.55,33.68C102.55,36.01 103.452,37.787 105.257,39.01C107.062,40.234 109.247,41.128 111.812,41.693C114.377,42.258 116.941,42.905 119.506,43.635C122.071,44.364 124.256,45.717 126.061,47.694C127.865,49.671 128.768,52.471 128.768,56.095C128.768,59.719 127.224,62.967 124.137,65.838C121.05,68.709 116.918,70.145 111.741,70.145C106.563,70.145 102.36,68.944 99.13,66.544C95.901,64.144 94.286,60.826 94.286,56.59L102.978,56.59C103.167,58.755 103.975,60.472 105.4,61.743C106.825,63.014 108.915,63.649 111.669,63.649C114.424,63.649 116.597,62.943 118.188,61.531C119.779,60.119 120.575,58.449 120.575,56.519C120.575,54.589 120.088,53.083 119.114,52.001C118.141,50.918 116.882,50.106 115.338,49.565C113.795,49.024 112.097,48.541 110.244,48.118C108.392,47.694 106.528,47.2 104.652,46.635C102.776,46.07 101.066,45.341 99.522,44.447C97.979,43.552 96.72,42.246 95.746,40.528C94.773,38.81 94.286,36.704 94.286,34.21C94.286,29.927 95.841,26.479 98.952,23.867C102.063,21.255 106.1,19.949 111.064,19.949C116.027,19.949 119.993,21.078 122.961,23.338C125.93,25.597 127.58,28.868 127.913,33.151L118.936,33.151C118.746,31.268 117.939,29.691 116.514,28.421C115.089,27.15 113.165,26.514 110.743,26.514ZM151.227,70.286C145.527,70.286 140.896,68.45 137.334,64.779C133.772,61.108 131.991,56.237 131.991,50.165C131.991,44.094 133.795,39.234 137.405,35.586C141.015,31.939 145.681,30.115 151.405,30.115C157.128,30.115 161.771,31.868 165.333,35.375C168.895,38.881 170.676,43.458 170.676,49.106C170.676,50.471 170.581,51.742 170.391,52.918L140.326,52.918C140.516,56.166 141.62,58.743 143.639,60.649C145.658,62.555 148.187,63.508 151.227,63.508C155.644,63.508 158.755,61.696 160.56,58.072L169.323,58.072C168.135,61.649 165.974,64.579 162.839,66.862C159.705,69.144 155.834,70.286 151.227,70.286ZM162.198,47.412C162.151,44.211 161.082,41.658 158.992,39.752C156.902,37.846 154.361,36.893 151.369,36.893C148.377,36.893 145.871,37.846 143.853,39.752C141.834,41.658 140.682,44.211 140.397,47.412L162.198,47.412ZM183.089,30.75L183.089,36.893C185.702,32.374 189.881,30.115 195.628,30.115C200.046,30.115 203.691,31.574 206.564,34.492C209.438,37.41 210.875,41.481 210.875,46.706L210.875,69.65L202.824,69.65L202.824,47.906C202.824,44.423 201.945,41.752 200.188,39.893C198.431,38.034 196.032,37.104 192.992,37.104C189.953,37.104 187.542,38.034 185.761,39.893C183.98,41.752 183.089,44.423 183.089,47.906L183.089,69.65L174.968,69.65L174.968,30.75L183.089,30.75ZM232.349,37.316L222.802,37.316L222.802,58.849C222.802,60.308 223.146,61.355 223.835,61.99C224.524,62.626 225.699,62.943 227.361,62.943L232.349,62.943L232.349,69.65L225.937,69.65C218.385,69.65 214.609,66.05 214.609,58.849L214.609,37.316L214.609,30.75L214.609,24.49L222.802,21.078L222.802,30.75L232.349,30.75L232.349,37.316ZM238.237,69.65L238.237,30.75L246.358,30.75L246.358,69.65L238.237,69.65ZM261.479,30.75L261.479,36.893C264.091,32.374 268.271,30.115 274.018,30.115C278.435,30.115 282.08,31.574 284.954,34.492C287.827,37.41 289.264,41.481 289.264,46.706L289.264,69.65L281.214,69.65L281.214,47.906C281.214,44.423 280.335,41.752 278.578,39.893C276.82,38.034 274.422,37.104 271.382,37.104C268.342,37.104 265.932,38.034 264.151,39.893C262.37,41.752 261.479,44.423 261.479,47.906L261.479,69.65L253.357,69.65L253.357,30.75L261.479,30.75ZM312.435,70.286C306.736,70.286 302.105,68.45 298.543,64.779C294.981,61.108 293.199,56.237 293.199,50.165C293.199,44.094 295.004,39.234 298.614,35.586C302.224,31.939 306.89,30.115 312.613,30.115C318.337,30.115 322.979,31.868 326.542,35.375C330.104,38.881 331.885,43.458 331.885,49.106C331.885,50.471 331.79,51.742 331.6,52.918L301.535,52.918C301.725,56.166 302.829,58.743 304.848,60.649C306.866,62.555 309.396,63.508 312.435,63.508C316.853,63.508 319.963,61.696 321.768,58.072L330.531,58.072C329.344,61.649 327.183,64.579 324.048,66.862C320.913,69.144 317.042,70.286 312.435,70.286ZM323.407,47.412C323.359,44.211 322.291,41.658 320.201,39.752C318.111,37.846 315.57,36.893 312.578,36.893C309.586,36.893 307.08,37.846 305.062,39.752C303.043,41.658 301.891,44.211 301.606,47.412L323.407,47.412ZM336.176,69.65L336.176,16.554L344.298,13.143L344.298,69.65L336.176,69.65ZM375.295,19.966C379.896,19.966 384.035,21.027 387.712,23.15C391.388,25.273 394.258,28.248 396.322,32.073C398.385,35.899 399.417,40.238 399.417,45.091C399.417,49.943 398.385,54.282 396.322,58.108C394.258,61.934 391.388,64.92 387.712,67.066C384.035,69.213 379.896,70.286 375.295,70.286C370.693,70.286 366.554,69.213 362.878,67.066C359.201,64.92 356.32,61.934 354.232,58.108C352.145,54.282 351.101,49.943 351.101,45.091C351.101,40.238 352.145,35.899 354.232,32.073C356.32,28.248 359.201,25.273 362.878,23.15C366.554,21.027 370.693,19.966 375.295,19.966ZM375.295,22.835C371.357,22.835 367.811,23.745 364.657,25.565C361.502,27.384 359.012,29.974 357.185,33.333C355.359,36.693 354.446,40.612 354.446,45.091C354.446,49.57 355.359,53.489 357.185,56.848C359.012,60.208 361.502,62.797 364.657,64.617C367.811,66.437 371.357,67.346 375.295,67.346C379.185,67.346 382.719,66.437 385.897,64.617C389.075,62.797 391.578,60.208 393.404,56.848C395.231,53.489 396.144,49.57 396.144,45.091C396.144,40.612 395.231,36.693 393.404,33.333C391.578,29.974 389.075,27.384 385.897,25.565C382.719,23.745 379.185,22.835 375.295,22.835ZM423.485,30.101C428.039,30.101 431.739,31.5 434.585,34.3C437.432,37.099 438.855,41.229 438.855,46.687L438.855,68.873L435.653,68.873L435.653,46.827C435.653,42.255 434.49,38.767 432.166,36.365C429.841,33.962 426.663,32.76 422.631,32.76C418.456,32.76 415.1,34.102 412.562,36.784C410.024,39.467 408.755,43.421 408.755,48.647L408.755,68.873L405.553,68.873L405.553,30.871L408.755,30.871L408.755,40.879C409.704,37.333 411.519,34.65 414.199,32.83C416.879,31.011 419.974,30.101 423.485,30.101ZM463.065,66.703C466.955,66.703 470.228,65.735 472.885,63.799C475.541,61.863 477.154,59.215 477.723,55.856L481.068,55.856C480.356,59.915 478.423,63.181 475.268,65.654C472.114,68.126 468.093,69.363 463.207,69.363C459.554,69.363 456.317,68.581 453.494,67.018C450.672,65.455 448.454,63.204 446.841,60.265C445.228,57.325 444.422,53.849 444.422,49.837C444.422,45.871 445.228,42.418 446.841,39.479C448.454,36.539 450.672,34.288 453.494,32.725C456.317,31.162 459.554,30.381 463.207,30.381C466.955,30.381 470.192,31.162 472.92,32.725C475.648,34.288 477.711,36.341 479.111,38.884C480.51,41.427 481.21,44.145 481.21,47.037C481.21,48.204 481.091,49.44 480.854,50.747L447.624,50.747C447.671,54.293 448.418,57.267 449.865,59.67C451.312,62.073 453.186,63.846 455.487,64.989C457.787,66.132 460.313,66.703 463.065,66.703ZM463.207,32.97C460.408,32.97 457.847,33.553 455.522,34.72C453.198,35.886 451.312,37.659 449.865,40.039C448.418,42.418 447.671,45.358 447.624,48.857L478.079,48.857C478.269,45.358 477.676,42.407 476.3,40.004C474.924,37.601 473.074,35.828 470.75,34.685C468.425,33.542 465.911,32.97 463.207,32.97ZM494.286,30.351L494.286,36.55L493.103,36.55L493.103,32.288L491.295,36.55L490.434,36.55L488.643,32.218L488.643,36.55L487.494,36.55L487.494,30.351L488.98,30.351L490.89,35.018L492.833,30.351L494.286,30.351ZM482.489,31.32L482.489,30.351L486.392,30.351L486.392,31.32L485.04,31.32L485.057,36.55L483.824,36.55L483.824,31.32L482.489,31.32Z" style="fill:rgb(84,45,120);"/>
                        </g>
                    </g>
                </g>
            </g>
        </g>
    </g>
</svg>
