<?xml version="1.0" encoding="utf-8"?>
<!-- Generator: Adobe Illustrator 22.1.0, SVG Export Plug-In . SVG Version: 6.00 Build 0)  -->
<svg version="1.1" id="Layer_1" xmlns="http://www.w3.org/2000/svg" xmlns:xlink="http://www.w3.org/1999/xlink" x="0px" y="0px"
	 viewBox="0 0 512 512" style="enable-background:new 0 0 512 512;" xml:space="preserve">
<style type="text/css">
	.st0{fill:#FFA20D;}
	.st1{fill:#999999;}
	.st2{fill:#FF6C0C;}
	.st3{fill:#7C7C7C;}
	.st4{fill:#FFFFFF;}
</style>
<path class="st0" d="M314.7,364.3c6.4-21.3,19.2-40.5,36.3-55.5c32-26.7,52.3-67.2,52.3-112c0-83.2-69.3-151.5-154.7-147.2
	c-75.7,3.2-137.6,67.2-139.7,142.9c-1.1,46.9,19.2,88.5,52.3,116.3c18.1,14.9,30.9,34.1,37.3,55.5H314.7L314.7,364.3z"/>
<path class="st1" d="M256,484.8c14.9,0,27.7-9.6,33.1-22.4h-66.1C228.3,475.2,241.1,484.8,256,484.8z"/>
<path class="st1" d="M198.4,388.9v32.6c0,10.7,8.5,19.2,19.2,19.2h77.9c10.7,0,19.2-8.5,19.2-19.2v-32.6H198.4z"/>
<path class="st2" d="M256.5,49.4v314.9h58.1c6.4-21.3,19.2-40.5,36.3-55.5c32-26.7,52.3-67.2,52.3-112
	C403.2,116.2,338.2,49.7,256.5,49.4z"/>
<path class="st3" d="M256,388.9v51.8h39.5c10.7,0,19.2-8.5,19.2-19.2v-32.6H256z"/>
<path class="st3" d="M256,462.4v22.4c14.9,0,27.7-9.6,33.1-22.4H256z"/>
<g>
	<path class="st4" d="M291.4,250.9c-6.3,6.3-14.8,10.2-25.5,11.8v10.7c0,2.6-0.8,4.7-2.4,6.4c-1.6,1.6-3.7,2.5-6.3,2.5
		c-2.6,0-4.7-0.8-6.3-2.5c-1.6-1.6-2.4-3.8-2.4-6.4v-10.4c-6.5-0.6-12.8-1.9-18.9-4.1c-6.1-2.2-11.4-5-15.9-8.5
		c-1.5-1-2.5-2.2-3.1-3.4c-0.6-1.2-0.9-2.8-0.9-4.6c0-2.4,0.7-4.5,2.1-6.3c1.4-1.8,3-2.7,4.9-2.7c1.1,0,2.2,0.2,3.2,0.6
		c1,0.4,2.2,1.1,3.8,2c5.2,3.4,10.4,5.9,15.4,7.5c5.1,1.6,10.4,2.4,15.9,2.4c7.6,0,13.5-1.5,17.6-4.4c4.1-3,6.2-7.2,6.2-12.8
		c0-3.3-1.1-6-3.4-8c-2.3-2-5.1-3.7-8.5-4.9c-3.4-1.2-8.2-2.6-14.3-4.2c-8.5-2.2-15.5-4.3-20.8-6.6c-5.3-2.2-9.9-5.6-13.8-10.1
		c-3.9-4.5-5.8-10.7-5.8-18.4c0-9.2,3.3-17.1,9.9-23.5c6.6-6.5,15.2-10.5,25.9-12.1v-10.7c0-2.6,0.8-4.7,2.4-6.4
		c1.6-1.6,3.7-2.5,6.3-2.5c2.6,0,4.7,0.8,6.3,2.5c1.6,1.6,2.4,3.8,2.4,6.4v10.6c11.5,1.5,21.4,5.6,29.7,12.4c2.7,2,4.1,4.7,4.1,8
		c0,2.4-0.7,4.5-2.1,6.3c-1.4,1.8-3.1,2.7-5,2.7c-1,0-2-0.2-3-0.5c-1-0.3-2.2-1-3.8-2c-4.7-3.3-9.1-5.8-13.2-7.4
		c-4.2-1.6-9.1-2.5-14.7-2.5c-7,0-12.7,1.6-16.9,4.7c-4.2,3.1-6.3,7.4-6.3,12.9c0,3.8,1.2,6.8,3.6,9.1c2.4,2.3,5.4,4.1,9,5.4
		c3.6,1.3,8.6,2.7,14.8,4.3c8.3,2,15.1,4.2,20.3,6.3c5.2,2.2,9.7,5.4,13.4,9.8c3.7,4.4,5.5,10.3,5.5,17.8
		C300.9,237,297.7,244.7,291.4,250.9z"/>
</g>
</svg>
