<?xml version="1.0" encoding="UTF-8" standalone="no"?>
<!DOCTYPE svg PUBLIC "-//W3C//DTD SVG 1.1//EN" "http://www.w3.org/Graphics/SVG/1.1/DTD/svg11.dtd">
<svg width="100%" height="100%" viewBox="0 0 4405 2438" version="1.1" xmlns="http://www.w3.org/2000/svg" xmlns:xlink="http://www.w3.org/1999/xlink" xml:space="preserve" xmlns:serif="http://www.serif.com/" style="fill-rule:evenodd;clip-rule:evenodd;stroke-miterlimit:1.41421;">
    <g transform="matrix(4.16667,0,0,4.16667,-5482.5,108.333)">
        <g>
            <g transform="matrix(4.80078,0,0,4.80078,1317.22,-23.1784)">
                <path d="M151.569,2.769L151.569,54.514" style="fill:none;stroke:rgb(104,106,108);stroke-width:1.25px;"/>
            </g>
            <g transform="matrix(0.286059,0,0,0.286059,1317.22,-25.7908)">
                <path d="M3199.32,0.039C2928.71,0.039 2709.34,219.411 2709.34,490.019C2709.34,760.628 2928.71,980 3199.32,980C3469.93,980 3689.3,760.628 3689.3,490.019C3689.3,219.411 3469.93,0.039 3199.32,0.039Z" style="fill:white;fill-rule:nonzero;"/>
            </g>
            <g transform="matrix(0.286059,0,0,0.286059,1317.22,-25.7908)">
                <path d="M3243.52,809.258C3229.7,822.442 3215.07,835.579 3199.47,848.628L3199,845.985L3198.98,848.628C3183.38,835.569 3168.74,822.423 3154.9,809.228C3067.55,797.184 2991.36,750.153 2940.98,682.706C2900.41,649.182 2864.93,608.695 2847.7,561.886C2830.48,515.105 2833.89,474.49 2857.85,441.173C2865.41,430.65 2874.98,421.023 2886.51,412.287C2897.38,368.406 2917.23,328.078 2944.02,293.359C2945.64,276.822 2947.82,262.782 2949.91,251.699C2955.02,222.821 2983.76,215.524 2983.76,215.524C3004.25,210.446 3027.24,206.787 3050.42,204.158C3094.96,180.911 3145.6,167.75 3199.32,167.75C3253.06,167.75 3303.71,180.921 3348.26,204.183C3371.37,206.811 3394.28,210.463 3414.69,215.524C3414.69,215.524 3443.43,222.821 3448.54,251.699C3450.63,262.724 3452.8,276.67 3454.41,293.093C3472.55,316.547 3487.52,342.565 3498.69,370.518C3498.73,370.524 3498.79,370.53 3498.8,370.532L3498.8,370.793C3513.5,407.673 3521.59,447.9 3521.59,490.019C3521.59,653.005 3400.59,787.708 3243.52,809.258ZM3199.32,13.021C2935.88,13.021 2722.32,226.58 2722.32,490.019C2722.32,753.459 2935.88,967.019 3199.32,967.019C3462.76,967.019 3676.32,753.459 3676.32,490.019C3676.32,226.58 3462.76,13.021 3199.32,13.021Z" style="fill:rgb(228,228,228);fill-rule:nonzero;"/>
            </g>
            <g transform="matrix(0.286059,0,0,0.286059,1317.22,-25.7908)">
                <path d="M3199.23,197.865C3214.35,197.549 3282.09,196.658 3348.26,204.183C3303.71,180.921 3253.06,167.75 3199.32,167.75C3145.6,167.75 3094.96,180.911 3050.42,204.158C3116.53,196.661 3184.12,197.549 3199.23,197.865Z" style="fill:white;fill-rule:nonzero;"/>
            </g>
            <g transform="matrix(0.286059,0,0,0.286059,1317.22,-25.7908)">
                <path d="M3199.23,197.865C3201.26,197.908 3202.36,197.94 3202.36,197.94L3201.58,348.722C3213.53,348.803 3225.77,349.017 3238.3,349.373C3240.99,349.45 3243.69,349.536 3246.41,349.628C3246.92,349.646 3247.44,349.662 3247.96,349.68C3250.59,349.772 3253.22,349.869 3255.87,349.974C3256.35,349.992 3256.82,350.012 3257.3,350.031C3259.93,350.137 3262.57,350.248 3265.22,350.366C3265.36,350.372 3265.5,350.378 3265.64,350.384C3268.37,350.506 3271.1,350.636 3273.84,350.77C3274.41,350.798 3274.98,350.826 3275.55,350.854C3278.22,350.988 3280.9,351.126 3283.59,351.27C3284.03,351.294 3284.48,351.319 3284.93,351.343C3287.45,351.48 3289.98,351.621 3292.5,351.767C3292.87,351.788 3293.23,351.808 3293.59,351.829C3296.29,351.986 3298.98,352.148 3301.68,352.314C3302.26,352.35 3302.85,352.386 3303.43,352.422C3306.13,352.59 3308.83,352.762 3311.52,352.938C3311.89,352.962 3312.25,352.987 3312.62,353.011C3315.16,353.178 3317.69,353.349 3320.22,353.523C3320.64,353.552 3321.06,353.58 3321.48,353.609C3324.13,353.793 3326.78,353.98 3329.42,354.17C3330.02,354.214 3330.63,354.257 3331.23,354.301C3333.88,354.494 3336.52,354.688 3339.15,354.886C3339.47,354.91 3339.79,354.936 3340.12,354.96C3342.56,355.145 3345,355.332 3347.42,355.522C3347.94,355.562 3348.47,355.603 3348.99,355.643C3351.57,355.846 3354.14,356.051 3356.69,356.258C3357.23,356.302 3357.78,356.346 3358.32,356.39C3360.91,356.602 3363.5,356.814 3366.06,357.029C3366.28,357.047 3366.48,357.065 3366.7,357.082C3369.15,357.288 3371.58,357.495 3374,357.704C3374.5,357.747 3375.01,357.79 3375.51,357.834C3377.95,358.044 3380.37,358.256 3382.77,358.469C3383.34,358.52 3383.91,358.571 3384.49,358.622C3386.86,358.833 3389.21,359.044 3391.54,359.256C3391.66,359.267 3391.78,359.277 3391.89,359.288C3394.34,359.511 3396.76,359.734 3399.17,359.958C3399.65,360.003 3400.13,360.048 3400.62,360.093C3402.96,360.311 3405.28,360.53 3407.56,360.748C3407.99,360.788 3408.41,360.829 3408.83,360.869C3410.99,361.075 3413.12,361.28 3415.22,361.485C3415.47,361.508 3415.71,361.531 3415.95,361.555C3418.21,361.775 3420.42,361.993 3422.61,362.21C3423.05,362.253 3423.48,362.296 3423.91,362.339C3426.04,362.55 3428.14,362.76 3430.2,362.969C3430.61,363.01 3431,363.05 3431.41,363.091C3433.28,363.281 3435.13,363.469 3436.95,363.656C3437.25,363.687 3437.55,363.718 3437.85,363.749C3439.84,363.953 3441.78,364.155 3443.7,364.355C3444.15,364.401 3444.59,364.448 3445.03,364.495C3446.85,364.685 3448.65,364.874 3450.39,365.059C3450.78,365.101 3451.16,365.141 3451.54,365.181C3453.1,365.347 3454.62,365.51 3456.12,365.671C3456.29,365.69 3456.48,365.709 3456.65,365.728C3457.6,338.173 3456.44,313.677 3454.41,293.093C3452.8,276.67 3450.63,262.724 3448.54,251.699C3443.43,222.821 3414.69,215.524 3414.69,215.524C3394.28,210.463 3371.37,206.811 3348.26,204.183C3282.09,196.658 3214.35,197.549 3199.23,197.865Z" style="fill:rgb(101,102,108);fill-rule:nonzero;"/>
            </g>
            <g transform="matrix(0.286059,0,0,0.286059,1317.22,-25.7908)">
                <path d="M3452.17,419.945C3418.55,425.413 3370.02,434.137 3317.51,446.295C3274.49,456.258 3235.5,466.95 3200.9,478.218L3199,845.985L3199.47,848.628C3215.07,835.579 3229.7,822.442 3243.52,809.258C3386.99,672.429 3437.83,530.119 3452.17,419.945Z" style="fill:rgb(101,102,108);fill-rule:nonzero;"/>
            </g>
            <g transform="matrix(0.286059,0,0,0.286059,1317.22,-25.7908)">
                <path d="M2942.63,382.348C3003.38,359.241 3089.9,347.969 3201.58,348.722L3202.36,197.94C3202.36,197.94 3201.26,197.908 3199.23,197.865C3184.12,197.549 3116.53,196.661 3050.42,204.158C3027.24,206.787 3004.25,210.446 2983.76,215.524C2983.76,215.524 2955.02,222.821 2949.91,251.699C2947.82,262.782 2945.64,276.822 2944.02,293.359C2941.61,317.947 2940.44,348.086 2942.63,382.348Z" style="fill:rgb(157,157,160);fill-rule:nonzero;"/>
            </g>
            <g transform="matrix(0.286059,0,0,0.286059,1317.22,-25.7908)">
                <path d="M3200.9,478.218C3155.53,492.998 3117.76,508.769 3088.45,525.191L3088.44,525.177C3088.44,525.177 3086.66,526.1 3083.77,527.855C3071.76,534.828 3061.28,541.913 3052.39,549.086C3051.73,549.624 3051.1,550.168 3050.46,550.709C3037.16,561.198 3002.74,595.432 3029.52,652.254C3030.04,653.705 3030.51,655.14 3031.1,656.613C3031.1,656.613 3041.38,675.091 3061.58,703.006C3072.86,718.595 3087.22,737.112 3104.65,757.036C3115.99,769.997 3128.62,783.542 3142.52,797.243L3142.58,797.242C3146.61,801.242 3150.72,805.237 3154.9,809.228C3168.74,822.423 3183.38,835.569 3198.98,848.628L3199,845.985L3200.9,478.218Z" style="fill:rgb(157,157,160);fill-rule:nonzero;"/>
            </g>
            <g transform="matrix(0.286059,0,0,0.286059,1317.22,-25.7908)">
                <path d="M3498.8,370.532C3498.79,370.53 3498.73,370.524 3498.69,370.518C3487.52,342.565 3472.55,316.547 3454.41,293.093C3456.44,313.677 3457.6,338.173 3456.65,365.728C3456.48,365.709 3456.29,365.69 3456.12,365.671C3454.62,365.51 3453.1,365.347 3451.54,365.181C3451.16,365.141 3450.78,365.101 3450.39,365.059C3448.65,364.874 3446.85,364.685 3445.03,364.495C3444.59,364.448 3444.15,364.401 3443.7,364.355C3441.78,364.155 3439.84,363.953 3437.85,363.749C3437.55,363.718 3437.25,363.687 3436.95,363.656C3435.13,363.469 3433.28,363.281 3431.41,363.091C3431,363.05 3430.61,363.01 3430.2,362.969C3428.14,362.76 3426.04,362.55 3423.91,362.339C3423.48,362.296 3423.05,362.253 3422.61,362.21C3420.42,361.993 3418.21,361.775 3415.95,361.555C3415.71,361.531 3415.47,361.508 3415.22,361.485C3413.12,361.28 3410.99,361.075 3408.83,360.869C3408.41,360.829 3407.99,360.788 3407.56,360.748C3405.28,360.53 3402.96,360.311 3400.62,360.093C3400.13,360.048 3399.65,360.003 3399.17,359.958C3396.76,359.734 3394.34,359.511 3391.89,359.288C3391.78,359.277 3391.66,359.267 3391.54,359.256C3389.21,359.044 3386.86,358.833 3384.49,358.622C3383.91,358.571 3383.34,358.52 3382.77,358.469C3380.37,358.256 3377.95,358.044 3375.51,357.834C3375.01,357.79 3374.5,357.747 3374,357.704C3371.58,357.495 3369.15,357.288 3366.7,357.082C3366.48,357.065 3366.28,357.047 3366.06,357.029C3363.5,356.814 3360.91,356.602 3358.32,356.39C3357.78,356.346 3357.23,356.302 3356.69,356.258C3354.14,356.051 3351.57,355.846 3348.99,355.643C3348.47,355.603 3347.94,355.562 3347.42,355.522C3345,355.332 3342.56,355.145 3340.12,354.96C3339.79,354.936 3339.47,354.91 3339.15,354.886C3336.52,354.688 3333.88,354.494 3331.23,354.301C3330.63,354.257 3330.02,354.214 3329.42,354.17C3326.78,353.98 3324.13,353.793 3321.48,353.609C3321.06,353.58 3320.64,353.552 3320.22,353.523C3317.69,353.349 3315.16,353.178 3312.62,353.011C3312.25,352.987 3311.89,352.962 3311.52,352.938C3308.83,352.762 3306.13,352.59 3303.43,352.422C3302.85,352.386 3302.26,352.35 3301.68,352.314C3298.98,352.148 3296.29,351.986 3293.59,351.829C3293.23,351.808 3292.87,351.788 3292.5,351.767C3289.98,351.621 3287.45,351.48 3284.93,351.343C3284.48,351.319 3284.03,351.294 3283.59,351.27C3280.9,351.126 3278.22,350.988 3275.55,350.854C3274.98,350.826 3274.41,350.798 3273.84,350.77C3271.1,350.636 3268.37,350.506 3265.64,350.384C3265.5,350.378 3265.36,350.372 3265.22,350.366C3262.57,350.248 3259.93,350.137 3257.3,350.031C3256.82,350.012 3256.35,349.992 3255.87,349.974C3253.22,349.869 3250.59,349.772 3247.96,349.68C3247.44,349.662 3246.92,349.646 3246.41,349.628C3243.69,349.536 3240.99,349.45 3238.3,349.373C3225.77,349.017 3213.53,348.803 3201.58,348.722C3089.9,347.969 3003.38,359.241 2942.63,382.348C2940.44,348.086 2941.61,317.947 2944.02,293.359C2917.23,328.078 2897.38,368.406 2886.51,412.287C2874.98,421.023 2865.41,430.65 2857.85,441.173C2833.89,474.49 2830.48,515.105 2847.7,561.886C2864.93,608.695 2900.41,649.182 2940.98,682.706C2991.36,750.153 3067.55,797.184 3154.9,809.228C3150.72,805.237 3146.61,801.242 3142.58,797.242L3142.52,797.243C3128.62,783.542 3115.99,769.997 3104.65,757.036C3035.05,725.317 2904.5,654.303 2867.76,554.498C2810.86,399.891 3021.86,364.605 3237.69,370.75C3354,374.061 3496.16,391.752 3496.16,391.752C3496.16,391.752 3160.32,434.512 3038.96,532.445C2974.27,584.646 3013.04,652.312 3061.58,703.006C3041.38,675.091 3031.1,656.613 3031.1,656.613C3030.51,655.14 3030.04,653.705 3029.52,652.254C3002.74,595.432 3037.16,561.198 3050.46,550.709C3051.1,550.168 3051.73,549.624 3052.39,549.086C3061.28,541.913 3071.76,534.828 3083.77,527.855C3086.66,526.1 3088.44,525.177 3088.44,525.177L3088.45,525.191C3117.76,508.769 3155.53,492.998 3200.9,478.218C3235.5,466.95 3274.49,456.258 3317.51,446.295C3370.02,434.137 3418.55,425.413 3452.17,419.945C3437.83,530.119 3386.99,672.429 3243.52,809.258C3400.59,787.708 3521.59,653.005 3521.59,490.019C3521.59,447.9 3513.5,407.673 3498.8,370.793L3498.8,370.532Z" style="fill:white;fill-rule:nonzero;"/>
            </g>
            <g transform="matrix(0.286059,0,0,0.286059,1317.22,-25.7908)">
                <path d="M3061.58,703.006C3013.04,652.312 2974.27,584.646 3038.96,532.445C3160.32,434.512 3496.16,391.752 3496.16,391.752C3496.16,391.752 3354,374.061 3237.69,370.75C3021.86,364.605 2810.86,399.891 2867.76,554.498C2904.5,654.303 3035.05,725.317 3104.65,757.036C3087.22,737.112 3072.86,718.595 3061.58,703.006Z" style="fill:rgb(243,109,36);fill-rule:nonzero;"/>
            </g>
            <g transform="matrix(0.286059,0,0,0.286059,1317.22,-25.7908)">
                <path d="M2812.18,666.959C2808.99,666.905 2806,666.218 2803.22,664.893C2800.43,663.565 2797.91,661.635 2795.65,659.106C2793.39,656.577 2791.56,653.506 2790.14,649.893C2788.71,646.223 2787.97,642.708 2787.92,639.346C2787.87,635.98 2788.43,632.893 2789.6,630.082C2790.76,627.271 2792.51,624.776 2794.83,622.599C2797.15,620.425 2799.98,618.679 2803.33,617.37L2837.99,603.812L2843.21,617.17L2809.66,630.297C2808.14,630.89 2806.78,631.651 2805.57,632.576C2804.36,633.501 2803.38,634.582 2802.62,635.812C2801.87,637.045 2801.43,638.452 2801.33,640.033C2801.22,641.615 2801.54,643.348 2802.28,645.237C2803.01,647.123 2803.96,648.609 2805.11,649.7C2806.26,650.79 2807.54,651.544 2808.94,651.962C2810.34,652.378 2811.79,652.504 2813.3,652.34C2814.8,652.172 2816.32,651.794 2817.84,651.199L2851.39,638.072L2856.65,651.509L2821.99,665.067C2818.64,666.376 2815.37,667.007 2812.18,666.959Z" style="fill:rgb(101,102,108);fill-rule:nonzero;"/>
            </g>
            <g transform="matrix(0.286059,0,0,0.286059,1317.22,-25.7908)">
                <path d="M2865.97,773.7L2881.18,730.421L2881.02,730.224L2850.88,755.084L2842.06,744.201L2888.48,706.591L2898.84,719.373L2883.64,762.535L2883.8,762.731L2913.87,737.925L2922.69,748.809L2876.27,786.418L2865.97,773.7Z" style="fill:rgb(101,102,108);fill-rule:nonzero;"/>
            </g>
            <g transform="matrix(0.286059,0,0,0.286059,1317.22,-25.7908)">
                <path d="M2936.73,840.163L2971.82,791.812L2983.56,800.335L2948.48,848.688L2936.73,840.163Z" style="fill:rgb(101,102,108);fill-rule:nonzero;"/>
            </g>
            <g transform="matrix(0.286059,0,0,0.286059,1317.22,-25.7908)">
                <path d="M3045.7,899.935L3032.27,894.652L3033.1,830.782L3048.18,836.711L3045.55,881.195L3045.86,881.319L3074.16,846.938L3089.01,852.776L3045.7,899.935Z" style="fill:rgb(101,102,108);fill-rule:nonzero;"/>
            </g>
            <g transform="matrix(0.286059,0,0,0.286059,1317.22,-25.7908)">
                <path d="M3139.79,924.021L3145.2,864.528L3185.2,868.169L3184.1,880.27L3157.97,877.89L3156.94,889.15L3181.65,891.4L3180.6,902.911L3155.89,900.664L3154.77,913.014L3182.42,915.531L3181.3,927.799L3139.79,924.021Z" style="fill:rgb(101,102,108);fill-rule:nonzero;"/>
            </g>
            <g transform="matrix(0.286059,0,0,0.286059,1317.22,-25.7908)">
                <path d="M3282.86,877.477C3282.6,876.099 3282.1,875.034 3281.35,874.286C3280.6,873.541 3279.73,873.018 3278.73,872.72C3277.72,872.426 3276.63,872.302 3275.46,872.353C3274.29,872.4 3273.18,872.527 3272.12,872.727L3264.54,874.159L3267.13,887.838L3273.88,886.564C3275.04,886.342 3276.22,886.022 3277.41,885.594C3278.59,885.169 3279.64,884.615 3280.54,883.927C3281.45,883.242 3282.13,882.368 3282.59,881.309C3283.05,880.247 3283.15,878.97 3282.86,877.477ZM3291.14,918.076L3273.99,897.19L3269.16,898.103L3273.57,921.4L3259.72,924.021L3248.62,865.32L3271,861.086C3273.82,860.554 3276.62,860.325 3279.41,860.398C3282.21,860.471 3284.79,860.997 3287.18,861.977C3289.57,862.956 3291.62,864.458 3293.32,866.483C3295.02,868.508 3296.19,871.209 3296.82,874.578C3297.58,878.558 3297.13,882.108 3295.49,885.223C3293.84,888.339 3291.23,890.839 3287.63,892.719L3307.73,914.938L3291.14,918.076Z" style="fill:rgb(101,102,108);fill-rule:nonzero;"/>
            </g>
            <g transform="matrix(0.286059,0,0,0.286059,1317.22,-25.7908)">
                <path d="M3387.92,835.555C3386.11,834.708 3384.1,834.322 3381.9,834.395C3379.7,834.467 3377.77,834.921 3376.11,835.757C3375.26,836.192 3374.43,836.705 3373.63,837.298C3372.83,837.893 3372.18,838.581 3371.69,839.364C3371.21,840.147 3370.9,840.996 3370.76,841.915C3370.63,842.834 3370.83,843.82 3371.36,844.875C3371.82,845.779 3372.39,846.435 3373.07,846.847C3373.75,847.259 3374.57,847.509 3375.52,847.591C3376.48,847.677 3377.56,847.652 3378.75,847.522C3379.95,847.389 3381.27,847.208 3382.73,846.973C3384.84,846.663 3387.06,846.378 3389.39,846.115C3391.71,845.855 3393.98,845.918 3396.2,846.311C3398.41,846.704 3400.5,847.525 3402.46,848.773C3404.41,850.025 3406.06,851.981 3407.41,854.64C3408.95,857.701 3409.73,860.636 3409.73,863.441C3409.73,866.246 3409.14,868.86 3407.97,871.278C3406.8,873.7 3405.16,875.883 3403.05,877.829C3400.95,879.775 3398.59,881.407 3395.98,882.729C3392.16,884.656 3388.14,885.857 3383.9,886.329C3379.66,886.801 3375.74,886.402 3372.14,885.134L3376.24,872.286C3378.36,873.234 3380.75,873.706 3383.43,873.706C3386.11,873.709 3388.5,873.177 3390.61,872.109C3391.57,871.627 3392.45,871.057 3393.25,870.401C3394.05,869.745 3394.67,869.016 3395.12,868.223C3395.57,867.428 3395.81,866.553 3395.83,865.596C3395.85,864.639 3395.6,863.634 3395.06,862.582C3394.55,861.577 3393.87,860.852 3393.02,860.402C3392.15,859.951 3391.12,859.676 3389.9,859.565C3388.68,859.46 3387.26,859.514 3385.63,859.736C3384.01,859.958 3382.18,860.237 3380.15,860.57C3378.16,860.883 3376.16,861.073 3374.15,861.143C3372.14,861.216 3370.19,860.985 3368.32,860.452C3366.44,859.92 3364.69,859.01 3363.06,857.72C3361.43,856.434 3360.01,854.583 3358.79,852.174C3357.29,849.214 3356.61,846.371 3356.75,843.655C3356.89,840.939 3357.6,838.407 3358.87,836.062C3360.14,833.716 3361.85,831.609 3363.99,829.736C3366.14,827.866 3368.46,826.297 3370.97,825.026C3373.98,823.505 3377.34,822.503 3381.03,822.019C3384.73,821.54 3388.3,821.781 3391.76,822.748L3387.92,835.555Z" style="fill:rgb(101,102,108);fill-rule:nonzero;"/>
            </g>
            <g transform="matrix(0.286059,0,0,0.286059,1317.22,-25.7908)">
                <path d="M3479.01,826.649L3440.05,781.354L3451.05,771.89L3490.01,817.185L3479.01,826.649Z" style="fill:rgb(101,102,108);fill-rule:nonzero;"/>
            </g>
            <g transform="matrix(0.286059,0,0,0.286059,1317.22,-25.7908)">
                <path d="M3521.21,710.692L3559.79,738.261L3551.4,750L3512.82,722.431L3503.01,736.163L3492.98,729.001L3520.99,689.8L3531.02,696.963L3521.21,710.692Z" style="fill:rgb(101,102,108);fill-rule:nonzero;"/>
            </g>
            <g transform="matrix(0.286059,0,0,0.286059,1317.22,-25.7908)">
                <path d="M3589.97,622.333L3613.8,630.855L3608.95,644.442L3585.11,635.916L3545.14,645.459L3551.02,629.011L3576.12,624.46L3559.6,605.016L3565.28,589.129L3589.97,622.333Z" style="fill:rgb(101,102,108);fill-rule:nonzero;"/>
            </g>
            <g transform="matrix(0.286059,0,0,0.286059,1317.22,-25.7908)">
                <path d="M2811.34,320.794C2809.39,321.283 2807.55,322.275 2805.83,323.768C2804.12,325.261 2802.78,327.181 2801.84,329.531C2801.34,330.785 2801,332.119 2800.83,333.534C2800.66,334.951 2800.74,336.332 2801.08,337.679C2801.42,339.028 2802.02,340.253 2802.88,341.354C2803.74,342.457 2804.96,343.321 2806.52,343.948C2808.04,344.555 2809.42,344.763 2810.68,344.569C2811.94,344.378 2813.13,343.913 2814.24,343.177C2815.35,342.441 2816.43,341.481 2817.48,340.296C2818.53,339.112 2819.63,337.839 2820.78,336.481C2822.11,334.832 2823.53,333.189 2825.03,331.548C2826.54,329.91 2828.2,328.547 2830.03,327.46C2831.86,326.376 2833.88,325.698 2836.07,325.427C2838.27,325.158 2840.76,325.576 2843.52,326.684C2846.4,327.834 2848.67,329.37 2850.36,331.285C2852.05,333.204 2853.23,335.328 2853.9,337.657C2854.57,339.987 2854.78,342.451 2854.53,345.045C2854.28,347.64 2853.66,350.166 2852.68,352.619C2851.28,356.118 2849.24,359.229 2846.58,361.948C2843.91,364.667 2840.82,366.564 2837.3,367.638L2834.62,359.568C2837.08,359.037 2839.35,357.915 2841.43,356.202C2843.51,354.491 2845.06,352.355 2846.08,349.796C2846.6,348.491 2846.95,347.113 2847.1,345.66C2847.26,344.21 2847.16,342.79 2846.81,341.406C2846.45,340.023 2845.82,338.755 2844.92,337.605C2844.02,336.456 2842.73,335.547 2841.06,334.878C2839.39,334.207 2837.85,334.001 2836.45,334.257C2835.04,334.512 2833.71,335.084 2832.44,335.97C2831.18,336.859 2829.95,337.988 2828.77,339.361C2827.58,340.735 2826.34,342.194 2825.06,343.737C2823.83,345.305 2822.48,346.797 2821.04,348.217C2819.59,349.639 2818.01,350.791 2816.29,351.678C2814.57,352.565 2812.68,353.082 2810.62,353.226C2808.56,353.372 2806.26,352.933 2803.7,351.908C2800.93,350.799 2798.78,349.287 2797.24,347.368C2795.71,345.45 2794.65,343.33 2794.07,341.006C2793.48,338.681 2793.35,336.263 2793.65,333.751C2793.96,331.238 2794.58,328.834 2795.5,326.536C2796.8,323.299 2798.58,320.5 2800.86,318.139C2803.14,315.78 2805.59,314.125 2808.21,313.176L2811.34,320.794Z" style="fill:rgb(101,102,108);fill-rule:nonzero;"/>
            </g>
            <g transform="matrix(0.286059,0,0,0.286059,1317.22,-25.7908)">
                <path d="M2900.99,216.287C2898.46,214.219 2895.74,212.679 2892.83,211.668C2889.91,210.657 2886.98,210.216 2884.03,210.346C2881.09,210.48 2878.24,211.218 2875.5,212.568C2872.75,213.918 2870.28,215.943 2868.06,218.639C2865.89,221.291 2864.41,224.096 2863.62,227.052C2862.83,230.007 2862.67,232.931 2863.14,235.823C2863.6,238.714 2864.62,241.494 2866.18,244.156C2867.74,246.82 2869.78,249.187 2872.3,251.255C2874.87,253.361 2877.62,254.928 2880.56,255.955C2883.5,256.985 2886.43,257.426 2889.36,257.275C2892.28,257.128 2895.09,256.38 2897.8,255.033C2900.5,253.688 2902.94,251.688 2905.12,249.034C2907.3,246.383 2908.8,243.576 2909.62,240.616C2910.45,237.658 2910.65,234.729 2910.23,231.832C2909.8,228.937 2908.79,226.148 2907.21,223.467C2905.63,220.786 2903.55,218.393 2900.99,216.287ZM2906.71,209.307C2910.28,212.232 2913.04,215.538 2915.01,219.22C2916.97,222.903 2918.13,226.716 2918.5,230.655C2918.87,234.598 2918.42,238.558 2917.16,242.54C2915.89,246.522 2913.82,250.274 2910.93,253.797C2908.04,257.32 2904.77,260.08 2901.13,262.078C2897.49,264.078 2893.7,265.281 2889.77,265.688C2885.83,266.098 2881.87,265.69 2877.89,264.463C2873.92,263.238 2870.14,261.161 2866.58,258.236C2862.97,255.275 2860.17,251.964 2858.19,248.301C2856.21,244.641 2855.06,240.858 2854.73,236.952C2854.41,233.048 2854.88,229.124 2856.15,225.182C2857.42,221.239 2859.5,217.506 2862.39,213.983C2865.28,210.461 2868.54,207.679 2872.18,205.642C2875.81,203.604 2879.58,202.365 2883.47,201.919C2887.36,201.476 2891.31,201.856 2895.3,203.059C2899.3,204.263 2903.1,206.347 2906.71,209.307Z" style="fill:rgb(101,102,108);fill-rule:nonzero;"/>
            </g>
            <g transform="matrix(0.286059,0,0,0.286059,1317.22,-25.7908)">
                <path d="M3009.54,153.079L3009.69,152.989L2984.43,112.457L2991.52,108.04L3023.11,158.74L3014.16,164.319L2961.58,139.618L2961.44,139.708L2987.24,181.099L2980.15,185.517L2948.55,134.817L2957.79,129.06L3009.54,153.079Z" style="fill:rgb(101,102,108);fill-rule:nonzero;"/>
            </g>
            <g transform="matrix(0.286059,0,0,0.286059,1317.22,-25.7908)">
                <path d="M3095.87,130.178L3087.87,132.571L3070.74,75.34L3078.75,72.945L3095.87,130.178Z" style="fill:rgb(101,102,108);fill-rule:nonzero;"/>
            </g>
            <g transform="matrix(0.286059,0,0,0.286059,1317.22,-25.7908)">
                <path d="M3215.32,105.723C3213.06,109.003 3210.08,111.703 3206.38,113.82C3202.67,115.937 3198.18,117.081 3192.89,117.253C3188.34,117.398 3184.11,116.761 3180.21,115.34C3176.31,113.918 3172.92,111.86 3170.05,109.166C3167.18,106.474 3164.89,103.227 3163.19,99.427C3161.5,95.628 3160.57,91.422 3160.42,86.811C3160.27,82.144 3160.94,77.859 3162.42,73.956C3163.89,70.055 3166.01,66.694 3168.76,63.875C3171.51,61.056 3174.8,58.824 3178.63,57.181C3182.46,55.538 3186.65,54.644 3191.2,54.497C3193.23,54.432 3195.29,54.563 3197.38,54.888C3199.48,55.215 3201.49,55.741 3203.43,56.467C3205.36,57.192 3207.14,58.107 3208.75,59.206C3210.36,60.309 3211.75,61.601 3212.93,63.082L3206.51,68.354C3204.98,66.378 3202.86,64.772 3200.15,63.537C3197.44,62.303 3194.54,61.734 3191.45,61.834C3187.96,61.946 3184.84,62.68 3182.1,64.035C3179.36,65.39 3177.04,67.195 3175.14,69.451C3173.24,71.708 3171.81,74.302 3170.83,77.23C3169.86,80.162 3169.43,83.256 3169.53,86.516C3169.64,89.89 3170.26,93.022 3171.4,95.911C3172.53,98.802 3174.1,101.298 3176.11,103.4C3178.12,105.503 3180.54,107.127 3183.36,108.272C3186.18,109.421 3189.31,109.938 3192.74,109.829C3196.11,109.719 3199.15,108.946 3201.87,107.507C3204.58,106.068 3206.79,104.029 3208.51,101.384L3215.32,105.723Z" style="fill:rgb(101,102,108);fill-rule:nonzero;"/>
            </g>
            <g transform="matrix(0.286059,0,0,0.286059,1317.22,-25.7908)">
                <path d="M3297,115.562L3297.16,115.611L3324.73,74.373L3333.51,77.117L3332.6,126.692L3332.76,126.743L3359.52,85.251L3367.98,87.896L3333.4,139.675L3325.11,137.081L3325.58,86.926L3325.42,86.876L3297.24,128.367L3288.94,125.773L3290.02,63.518L3298.64,66.212L3297,115.562Z" style="fill:rgb(101,102,108);fill-rule:nonzero;"/>
            </g>
            <g transform="matrix(0.286059,0,0,0.286059,1317.22,-25.7908)">
                <path d="M3425.96,164.668L3443.93,177.982L3451.66,148.844L3425.96,164.668ZM3405.67,177.034L3398.21,171.509L3454.59,138.938L3460.69,143.459L3445.73,206.729L3438.13,201.102L3442,185.688L3419.22,168.807L3405.67,177.034Z" style="fill:rgb(101,102,108);fill-rule:nonzero;"/>
            </g>
            <g transform="matrix(0.286059,0,0,0.286059,1317.22,-25.7908)">
                <path d="M3499.83,254.543L3515.97,275.774L3510.05,280.267L3488.86,252.385L3536.43,216.241L3541.48,222.892L3499.83,254.543Z" style="fill:rgb(101,102,108);fill-rule:nonzero;"/>
            </g>
            <g transform="matrix(0.286059,0,0,0.286059,1317.22,-25.7908)">
                <path d="M3550.8,340.758L3560.85,365.456L3553.97,368.255L3540.78,335.819L3596.12,313.308L3599.26,321.046L3550.8,340.758Z" style="fill:rgb(101,102,108);fill-rule:nonzero;"/>
            </g>
            <g transform="matrix(0.286059,0,0,0.286059,1317.22,-25.7908)">
                <path d="M367.375,375.029C348.59,375.029 330.781,379.922 313.96,389.714C297.134,399.5 283.994,412.686 274.547,429.265C265.094,445.845 260.372,464.326 260.372,484.707C260.372,514.875 270.831,540.35 291.741,561.134C312.657,581.923 337.868,592.312 367.375,592.312C387.079,592.312 405.312,587.534 422.082,577.978C438.845,568.422 451.928,555.351 461.317,538.771C470.713,522.191 475.41,503.768 475.41,483.496C475.41,463.349 470.713,445.127 461.317,428.835C451.928,412.542 438.702,399.5 421.651,389.714C404.595,379.922 386.504,375.029 367.375,375.029ZM366.249,350.352C404.704,350.352 436.881,363.182 462.782,388.835C488.688,414.495 501.638,446.075 501.638,483.582C501.638,520.75 488.717,552.273 462.868,578.161C437.025,604.045 405.508,616.989 368.322,616.989C330.672,616.989 298.897,604.108 272.996,578.334C247.09,552.56 234.14,521.381 234.14,484.793C234.14,460.403 240.038,437.794 251.839,416.97C263.641,396.146 279.727,379.836 300.108,368.04C320.484,356.25 342.531,350.352 366.249,350.352Z" style="fill:rgb(104,106,108);fill-rule:nonzero;"/>
            </g>
            <g transform="matrix(0.286059,0,0,0.286059,1317.22,-25.7908)">
                <path d="M570.452,619.059L570.452,349.442L576.319,349.442L755.759,556.115L755.759,349.442L782.339,349.442L782.339,619.059L776.289,619.059L598.313,414.899L598.313,619.059L570.452,619.059Z" style="fill:rgb(104,106,108);fill-rule:nonzero;"/>
            </g>
            <g transform="matrix(0.286059,0,0,0.286059,1317.22,-25.7908)">
                <rect x="855.404" y="349.326" width="25.227" height="269.231" style="fill:rgb(104,106,108);"/>
            </g>
            <g transform="matrix(0.286059,0,0,0.286059,1317.22,-25.7908)">
                <path d="M1706.13,512.31L1742.04,420.427L1777.74,512.31L1706.13,512.31ZM1767.56,349.469L1715.89,349.469L1643.14,544.081L1789.46,544.663L1817.55,617.651L1870.49,617.651L1767.56,349.469Z" style="fill:rgb(104,106,108);fill-rule:nonzero;"/>
            </g>
            <g transform="matrix(0.286059,0,0,0.286059,1317.22,-25.7908)">
                <path d="M1925.53,349.469L1976.47,349.469L1976.47,568.53L2078.04,568.53L2078.04,617.105L1925.53,617.105L1925.53,349.469Z" style="fill:rgb(104,106,108);fill-rule:nonzero;"/>
            </g>
            <g transform="matrix(0.286059,0,0,0.286059,1317.22,-25.7908)">
                <path d="M2132.17,349.469L2183.11,349.469L2183.11,568.53L2284.68,568.53L2284.68,617.105L2132.17,617.105L2132.17,349.469Z" style="fill:rgb(104,106,108);fill-rule:nonzero;"/>
            </g>
            <g transform="matrix(0.286059,0,0,0.286059,1317.22,-25.7908)">
                <path d="M1722.35,730.397C1722.35,730.397 1597.74,685.529 1570.26,610.867C1539.49,527.286 1653.56,508.21 1770.24,511.532C1833.12,513.323 1909.97,522.886 1909.97,522.886C1909.97,522.886 1728.41,546.002 1662.81,598.945C1598.74,650.641 1722.35,730.397 1722.35,730.397Z" style="fill:rgb(243,109,36);fill-rule:nonzero;"/>
            </g>
            <g transform="matrix(0.286059,0,0,0.286059,1317.22,-25.7908)">
                <path d="M1181.11,553.66C1157.31,580.51 1127.93,593.971 1092.92,593.971C1060.42,593.971 1033.51,583.564 1012.17,562.749C990.839,541.934 980.172,515.971 980.172,484.863C980.172,464.279 984.94,445.744 994.481,429.264C1004.02,412.784 1017.47,399.663 1034.81,389.891C1052.16,380.118 1071.01,375.229 1091.36,375.229C1109.98,375.229 1127.07,378.958 1142.62,386.422C1157.49,393.552 1170.3,403.917 1181.11,417.443L1181.11,382.895C1173.4,376.509 1164.89,368.806 1155.55,364.215C1136.35,354.789 1114.83,350.079 1091.01,350.079C1051.58,350.079 1018.77,362.83 992.571,388.326C966.381,413.828 953.284,445.253 953.284,482.606C953.284,518.112 964.096,548.41 985.719,573.503C1011.51,603.224 1046.72,618.083 1091.36,618.083C1114.83,618.083 1136.09,613.661 1155.11,604.812C1164.55,600.422 1173.22,592.923 1181.11,586.722L1181.11,553.66Z" style="fill:rgb(104,106,108);fill-rule:nonzero;"/>
            </g>
            <g transform="matrix(0.286059,0,0,0.286059,1317.22,-25.7908)">
                <path d="M96.645,471.396C35.913,458.956 24.399,443.117 24.399,418.243L24.399,417.514C24.399,391.186 49.49,372.077 84.062,372.077C113.018,372.077 135.983,380.762 158.531,400.237L160.658,402.075L161.182,401.424L161.182,371.667C137.858,356.083 114.746,349.502 84.791,349.502C36.451,349.502 0,379.526 0,419.338L0,420.067C0,460.314 25.574,481.905 88.271,494.594C147.155,506.445 158.319,521.906 158.319,546.286L158.319,547.018C158.319,575.27 132.883,595.005 96.465,595.005C60.949,595.005 35.794,584.568 6.743,557.79L4.691,555.896L4.227,556.427L4.227,587.135C32.063,608.071 60.783,617.583 95.372,617.583C146.799,617.583 182.718,587.814 182.718,545.193L182.718,544.462C182.718,505.538 156.977,483.687 96.645,471.396Z" style="fill:rgb(104,106,108);fill-rule:nonzero;"/>
            </g>
            <g transform="matrix(0.286059,0,0,0.286059,1317.22,-25.7908)">
                <path d="M1566.27,349.464L1505.08,531.545L1503.76,535.47L1502.46,531.537L1442.15,348.689L1393.18,348.689L1332.87,531.537L1331.57,535.471L1330.26,531.545L1269.07,349.464L1208.31,349.464L1305.12,618.366L1354.91,618.366L1415.59,443.006L1416.89,439.241L1418.2,443.006L1478.89,618.366L1528.67,618.366L1625.48,349.464L1566.27,349.464Z" style="fill:rgb(104,106,108);fill-rule:nonzero;"/>
            </g>
            <g transform="matrix(0.286059,0,0,0.286059,1317.22,-25.7908)">
                <path d="M2321.37,357.675L2321.37,367.648L2325.83,367.648C2329.51,367.648 2331.21,365.942 2331.21,362.792C2331.21,359.643 2329.51,357.675 2325.83,357.675L2321.37,357.675ZM2333.18,387.592L2324.78,373.683L2321.37,373.683L2321.37,387.592L2312.05,387.592L2312.05,351.64L2328.06,351.64C2336.86,351.64 2340.53,356.888 2340.53,362.661C2340.53,367.255 2338.16,371.059 2333.84,372.634L2344.07,387.592L2333.18,387.592ZM2325.7,343.504C2311.14,343.504 2299.33,355.313 2299.33,369.879C2299.33,384.443 2311.14,396.251 2325.7,396.251C2340.27,396.251 2352.21,384.443 2352.21,369.879C2352.21,355.313 2340.27,343.504 2325.7,343.504ZM2325.7,400.189C2309.04,400.189 2295.39,386.674 2295.39,369.879C2295.39,353.084 2309.04,339.57 2325.7,339.57C2342.5,339.57 2356.14,353.084 2356.14,369.879C2356.14,386.674 2342.5,400.189 2325.7,400.189Z" style="fill:rgb(104,106,108);fill-rule:nonzero;"/>
            </g>
        </g>
        <g transform="matrix(1,0,0,1,0,-67.9033)">
            <g transform="matrix(4.80078,0,0,4.80078,1317.22,348.526)">
                <path d="M198.433,26.241C198.419,26.208 198.399,26.178 198.368,26.162C198.399,26.178 198.419,26.208 198.433,26.241Z" style="fill:rgb(157,157,160);fill-rule:nonzero;"/>
            </g>
            <g transform="matrix(4.80078,0,0,4.80078,1317.22,348.526)">
                <path d="M195.76,34.57C195.724,34.696 195.696,34.83 195.674,34.968C195.695,34.83 195.725,34.697 195.76,34.57C195.957,34.405 196.153,34.239 196.305,34.074C196.463,33.927 196.642,32.993 196.741,32.265C196.642,32.993 196.463,33.927 196.305,34.074C196.153,34.239 195.957,34.405 195.76,34.57Z" style="fill:rgb(157,157,160);fill-rule:nonzero;"/>
            </g>
            <g transform="matrix(4.80078,0,0,4.80078,1317.22,348.526)">
                <path d="M198.151,24.866C198.14,25.065 198.029,25.633 197.949,26.049C198.029,25.633 198.14,25.065 198.151,24.866L198.151,24.864C198.151,24.859 198.151,24.854 198.151,24.85L198.151,24.866Z" style="fill:rgb(157,157,160);fill-rule:nonzero;"/>
            </g>
            <g transform="matrix(4.80078,0,0,4.80078,1317.22,348.526)">
                <path d="M202.53,39.787C202.532,39.789 202.535,39.79 202.538,39.791C202.535,39.79 202.533,39.788 202.53,39.787C201.458,39.225 199.691,39.006 197.673,38.305C197.675,38.294 197.597,38.113 197.5,37.899C197.596,38.113 197.675,38.294 197.673,38.305C199.691,39.006 201.458,39.225 202.53,39.787Z" style="fill:rgb(157,157,160);fill-rule:nonzero;"/>
            </g>
            <g transform="matrix(4.80078,0,0,4.80078,1317.22,348.526)">
                <path d="M197.931,26.45C197.902,26.482 197.879,26.508 197.867,26.52C197.878,26.508 197.902,26.483 197.931,26.45Z" style="fill:rgb(157,157,160);fill-rule:nonzero;"/>
            </g>
            <g transform="matrix(4.80078,0,0,4.80078,1317.22,348.526)">
                <path d="M198.201,26.172C198.233,26.153 198.264,26.144 198.292,26.143C198.263,26.144 198.233,26.153 198.201,26.172C198.16,26.197 198.018,26.353 197.931,26.45C198.018,26.353 198.16,26.197 198.201,26.172Z" style="fill:rgb(157,157,160);fill-rule:nonzero;"/>
            </g>
            <g transform="matrix(4.80078,0,0,4.80078,1317.22,348.526)">
                <path d="M195.74,36.456C195.608,35.919 195.601,35.427 195.669,34.989C195.601,35.426 195.608,35.919 195.74,36.456Z" style="fill:rgb(157,157,160);fill-rule:nonzero;"/>
            </g>
            <g transform="matrix(4.80078,0,0,4.80078,1317.22,348.526)">
                <path d="M198.534,28.271C198.442,28.881 198.178,29.439 197.864,29.987C198.178,29.439 198.442,28.881 198.534,28.271Z" style="fill:rgb(157,157,160);fill-rule:nonzero;"/>
            </g>
            <g transform="matrix(4.80078,0,0,4.80078,1317.22,348.526)">
                <path d="M191.386,17.284C191.381,17.284 191.376,17.284 191.371,17.284C191.376,17.284 191.381,17.284 191.386,17.284Z" style="fill:rgb(157,157,160);fill-rule:nonzero;"/>
            </g>
            <g transform="matrix(4.80078,0,0,4.80078,1317.22,348.526)">
                <path d="M196.308,36.522C196.364,36.534 196.413,36.548 196.462,36.563C196.413,36.548 196.364,36.534 196.308,36.522Z" style="fill:rgb(157,157,160);fill-rule:nonzero;"/>
            </g>
            <g transform="matrix(4.80078,0,0,4.80078,1317.22,348.526)">
                <path d="M196.519,36.578C196.552,36.589 196.58,36.605 196.611,36.619C196.58,36.605 196.552,36.589 196.519,36.578Z" style="fill:rgb(157,157,160);fill-rule:nonzero;"/>
            </g>
            <g transform="matrix(4.80078,0,0,4.80078,1317.22,348.526)">
                <path d="M196.841,36.762C196.852,36.771 196.862,36.785 196.872,36.794C196.862,36.785 196.852,36.771 196.841,36.762Z" style="fill:rgb(157,157,160);fill-rule:nonzero;"/>
            </g>
            <g transform="matrix(4.80078,0,0,4.80078,1317.22,348.526)">
                <path d="M196.694,36.656C196.704,36.663 196.713,36.671 196.724,36.678C196.713,36.671 196.704,36.663 196.694,36.656Z" style="fill:rgb(157,157,160);fill-rule:nonzero;"/>
            </g>
            <g transform="matrix(4.80078,0,0,4.80078,1317.22,348.526)">
                <path d="M196.052,36.483C196.072,36.486 196.088,36.489 196.108,36.492C196.088,36.489 196.072,36.486 196.052,36.483Z" style="fill:rgb(157,157,160);fill-rule:nonzero;"/>
            </g>
            <g transform="matrix(4.80078,0,0,4.80078,1317.22,348.526)">
                <path d="M198.149,23.906C198.15,23.594 198.156,23.283 198.146,22.972C198.133,22.578 198.037,22.194 197.971,21.985C198.037,22.194 198.133,22.578 198.146,22.972C198.156,23.283 198.15,23.594 198.149,23.906Z" style="fill:rgb(157,157,160);fill-rule:nonzero;"/>
            </g>
            <g transform="matrix(4.80078,0,0,4.80078,1317.22,348.526)">
                <path d="M194.42,17.864C194.928,18.084 195.371,18.385 195.753,18.716C195.371,18.385 194.928,18.084 194.42,17.864C194.286,17.795 194.155,17.745 194.03,17.714C194.016,17.71 193.985,17.702 193.961,17.695C193.985,17.702 194.016,17.71 194.03,17.714C194.155,17.745 194.286,17.795 194.42,17.864Z" style="fill:rgb(157,157,160);fill-rule:nonzero;"/>
            </g>
            <g transform="matrix(4.80078,0,0,4.80078,1317.22,348.526)">
                <path d="M191.36,45.316L191.326,17.284C190.298,17.292 188.919,17.65 188.682,17.714C188.629,17.727 188.576,17.744 188.523,17.763C186.529,18.418 185.141,20.919 185.031,21.115C184.901,21.348 184.791,21.595 184.679,21.839C184.633,21.94 184.469,22.447 184.452,22.972C184.432,23.594 184.443,24.217 184.446,24.84C184.446,24.847 184.447,24.855 184.447,24.863L184.447,24.864C184.464,25.182 184.737,26.449 184.731,26.52C184.686,26.472 184.451,26.205 184.397,26.172C184.271,26.096 184.159,26.179 184.147,26.293C184.1,26.741 184.057,27.19 184.032,27.64C183.986,28.509 184.316,29.255 184.734,29.987C184.91,30.295 185.003,30.673 185.12,31.019C185.158,31.131 185.195,31.248 185.253,31.349C185.341,31.501 185.491,31.535 185.654,31.546C185.702,31.55 185.783,31.607 185.786,31.645C185.835,32.281 186.085,33.714 186.275,33.935C186.373,34.051 186.687,34.399 186.818,34.518C187.047,35.186 187.06,35.772 186.896,36.456C185.987,36.52 185.705,36.646 185.367,37.3C185.224,37.579 184.909,38.299 184.916,38.35C182.949,39.033 181.237,39.234 180.182,39.787C179.964,39.901 179.761,40.02 179.566,40.144C182.465,43.318 186.624,45.322 191.262,45.322C191.295,45.322 191.326,45.317 191.36,45.316Z" style="fill:rgb(157,157,160);fill-rule:nonzero;"/>
            </g>
            <g transform="matrix(4.80078,0,0,4.80078,1317.22,348.526)">
                <path d="M191.357,17.284C191.351,17.284 191.345,17.284 191.339,17.284C191.345,17.284 191.351,17.284 191.357,17.284Z" style="fill:rgb(157,157,160);fill-rule:nonzero;"/>
            </g>
            <g transform="matrix(4.80078,0,0,4.80078,1317.22,348.526)">
                <path d="M196.611,36.619C196.638,36.631 196.668,36.642 196.694,36.656C196.668,36.642 196.638,36.631 196.611,36.619Z" style="fill:rgb(101,102,108);fill-rule:nonzero;"/>
            </g>
            <g transform="matrix(4.80078,0,0,4.80078,1317.22,348.526)">
                <path d="M196.724,36.678C196.765,36.704 196.805,36.73 196.841,36.762C196.805,36.73 196.765,36.704 196.724,36.678Z" style="fill:rgb(101,102,108);fill-rule:nonzero;"/>
            </g>
            <g transform="matrix(4.80078,0,0,4.80078,1317.22,348.526)">
                <path d="M197.216,37.3C197.27,37.405 197.348,37.569 197.425,37.735C197.348,37.569 197.27,37.405 197.216,37.3Z" style="fill:rgb(101,102,108);fill-rule:nonzero;"/>
            </g>
            <g transform="matrix(4.80078,0,0,4.80078,1317.22,348.526)">
                <path d="M196.872,36.794C196.994,36.915 197.099,37.074 197.216,37.3C197.1,37.074 196.994,36.915 196.872,36.794Z" style="fill:rgb(101,102,108);fill-rule:nonzero;"/>
            </g>
            <g transform="matrix(4.80078,0,0,4.80078,1317.22,348.526)">
                <path d="M198.151,24.85C198.151,24.846 198.151,24.843 198.151,24.84C198.154,24.529 198.148,24.217 198.149,23.906C198.148,24.217 198.154,24.529 198.151,24.84C198.151,24.843 198.151,24.846 198.151,24.85Z" style="fill:rgb(101,102,108);fill-rule:nonzero;"/>
            </g>
            <g transform="matrix(4.80078,0,0,4.80078,1317.22,348.526)">
                <path d="M198.292,26.143C198.32,26.142 198.346,26.149 198.368,26.162C198.346,26.149 198.32,26.142 198.292,26.143Z" style="fill:rgb(101,102,108);fill-rule:nonzero;"/>
            </g>
            <g transform="matrix(4.80078,0,0,4.80078,1317.22,348.526)">
                <path d="M191.326,17.284L191.339,17.284L191.326,17.284Z" style="fill:rgb(101,102,108);fill-rule:nonzero;"/>
            </g>
            <g transform="matrix(4.80078,0,0,4.80078,1317.22,348.526)">
                <path d="M203.045,40.047C203.046,40.046 203.046,40.045 203.047,40.044C202.885,39.967 202.715,39.883 202.538,39.791C202.714,39.883 202.883,39.967 203.045,40.047Z" style="fill:rgb(101,102,108);fill-rule:nonzero;"/>
            </g>
            <g transform="matrix(4.80078,0,0,4.80078,1317.22,348.526)">
                <path d="M196.108,36.492C196.178,36.501 196.247,36.51 196.308,36.522C196.247,36.51 196.178,36.501 196.108,36.492Z" style="fill:rgb(101,102,108);fill-rule:nonzero;"/>
            </g>
            <g transform="matrix(4.80078,0,0,4.80078,1317.22,348.526)">
                <path d="M195.674,34.968C195.672,34.975 195.67,34.982 195.669,34.989C195.67,34.982 195.672,34.975 195.674,34.968Z" style="fill:rgb(101,102,108);fill-rule:nonzero;"/>
            </g>
            <g transform="matrix(4.80078,0,0,4.80078,1317.22,348.526)">
                <path d="M196.462,36.563C196.48,36.569 196.501,36.572 196.519,36.578C196.501,36.572 196.48,36.569 196.462,36.563Z" style="fill:rgb(101,102,108);fill-rule:nonzero;"/>
            </g>
            <g transform="matrix(4.80078,0,0,4.80078,1317.22,348.526)">
                <path d="M196.812,31.645C196.806,31.724 196.796,31.819 196.784,31.924C196.796,31.819 196.806,31.724 196.812,31.645C196.815,31.607 196.896,31.55 196.944,31.546C197.025,31.541 197.104,31.53 197.172,31.501C197.104,31.53 197.025,31.541 196.944,31.546C196.896,31.55 196.815,31.607 196.812,31.645Z" style="fill:rgb(101,102,108);fill-rule:nonzero;"/>
            </g>
            <g transform="matrix(4.80078,0,0,4.80078,1317.22,348.526)">
                <path d="M197.345,31.349C197.301,31.424 197.241,31.471 197.172,31.501C197.241,31.471 197.301,31.424 197.345,31.349C197.404,31.248 197.44,31.131 197.478,31.019C197.595,30.673 197.688,30.295 197.864,29.987C197.688,30.295 197.595,30.673 197.478,31.019C197.44,31.131 197.404,31.248 197.345,31.349Z" style="fill:rgb(101,102,108);fill-rule:nonzero;"/>
            </g>
            <g transform="matrix(4.80078,0,0,4.80078,1317.22,348.526)">
                <path d="M198.566,27.64C198.577,27.858 198.566,28.067 198.534,28.271C198.566,28.067 198.577,27.858 198.566,27.64C198.541,27.19 198.498,26.741 198.45,26.293C198.448,26.274 198.441,26.257 198.433,26.241C198.441,26.257 198.448,26.274 198.45,26.293C198.498,26.741 198.541,27.19 198.566,27.64Z" style="fill:rgb(101,102,108);fill-rule:nonzero;"/>
            </g>
            <g transform="matrix(4.80078,0,0,4.80078,1317.22,348.526)">
                <path d="M193.961,17.695C193.612,17.593 192.35,17.292 191.386,17.284C192.35,17.292 193.612,17.593 193.961,17.695Z" style="fill:rgb(101,102,108);fill-rule:nonzero;"/>
            </g>
            <g transform="matrix(4.80078,0,0,4.80078,1317.22,348.526)">
                <path d="M196.052,36.483C195.957,36.472 195.854,36.463 195.74,36.456C195.855,36.463 195.957,36.472 196.052,36.483Z" style="fill:rgb(101,102,108);fill-rule:nonzero;"/>
            </g>
            <g transform="matrix(4.80078,0,0,4.80078,1317.22,348.526)">
                <path d="M197.867,26.52C197.864,26.493 197.902,26.299 197.949,26.049C197.902,26.299 197.864,26.494 197.867,26.52Z" style="fill:rgb(101,102,108);fill-rule:nonzero;"/>
            </g>
            <g transform="matrix(4.80078,0,0,4.80078,1317.22,348.526)">
                <path d="M191.371,17.284L191.357,17.284L191.371,17.284Z" style="fill:rgb(101,102,108);fill-rule:nonzero;"/>
            </g>
            <g transform="matrix(4.80078,0,0,4.80078,1317.22,348.526)">
                <path d="M197.567,21.115C197.697,21.348 197.807,21.595 197.918,21.839C197.93,21.865 197.949,21.915 197.971,21.985C197.949,21.915 197.93,21.865 197.918,21.839C197.807,21.595 197.697,21.348 197.567,21.115C197.487,20.972 196.899,19.71 195.753,18.716C196.899,19.71 197.487,20.972 197.567,21.115Z" style="fill:rgb(101,102,108);fill-rule:nonzero;"/>
            </g>
            <g transform="matrix(4.80078,0,0,4.80078,1317.22,348.526)">
                <path d="M195.738,36.455C195.741,36.469 195.744,36.482 195.747,36.496L195.747,36.495C195.744,36.481 195.741,36.468 195.738,36.455Z" style="fill:rgb(101,102,108);fill-rule:nonzero;"/>
            </g>
            <g transform="matrix(4.80078,0,0,4.80078,1317.22,348.526)">
                <path d="M195.738,36.455C195.741,36.468 195.744,36.481 195.747,36.494C195.745,36.486 195.744,36.479 195.743,36.471C195.741,36.465 195.741,36.46 195.74,36.456L195.738,36.455Z" style="fill:rgb(101,102,108);fill-rule:nonzero;"/>
            </g>
            <g transform="matrix(4.80078,0,0,4.80078,1317.22,348.526)">
                <path d="M195.743,36.471C195.742,36.466 195.741,36.46 195.74,36.456C195.741,36.46 195.741,36.465 195.743,36.471Z" style="fill:rgb(101,102,108);fill-rule:nonzero;"/>
            </g>
            <g transform="matrix(4.80078,0,0,4.80078,1317.22,348.526)">
                <path d="M195.747,36.496C195.745,36.487 195.745,36.479 195.743,36.471C195.744,36.479 195.745,36.486 195.747,36.494C195.747,36.494 195.747,36.495 195.747,36.496Z" style="fill:rgb(101,102,108);fill-rule:nonzero;"/>
            </g>
            <g transform="matrix(4.80078,0,0,4.80078,1317.22,348.526)">
                <path d="M195.74,36.456L195.738,36.455L195.74,36.456Z" style="fill:rgb(101,102,108);fill-rule:nonzero;"/>
            </g>
            <g transform="matrix(4.80078,0,0,4.80078,1317.22,348.526)">
                <path d="M191.36,45.316C196.004,45.288 200.163,43.255 203.045,40.047C202.883,39.967 202.714,39.883 202.538,39.791C202.535,39.79 202.532,39.789 202.53,39.787C201.458,39.225 199.691,39.006 197.673,38.305C197.675,38.294 197.596,38.113 197.5,37.899C197.476,37.845 197.45,37.79 197.425,37.735C197.348,37.569 197.27,37.405 197.216,37.3C197.099,37.074 196.994,36.915 196.872,36.794C196.862,36.785 196.852,36.771 196.841,36.762C196.805,36.73 196.765,36.704 196.724,36.678C196.713,36.671 196.704,36.663 196.694,36.656C196.668,36.642 196.638,36.631 196.611,36.619C196.58,36.605 196.552,36.589 196.519,36.578C196.501,36.572 196.48,36.569 196.462,36.563C196.413,36.548 196.364,36.534 196.308,36.522C196.247,36.51 196.178,36.501 196.108,36.492C196.088,36.489 196.072,36.486 196.052,36.483C195.957,36.472 195.855,36.463 195.74,36.456C195.741,36.46 195.742,36.466 195.743,36.471C195.745,36.479 195.745,36.487 195.747,36.496L195.747,36.495L195.747,36.496C195.744,36.482 195.741,36.469 195.738,36.455L195.74,36.456C195.608,35.919 195.601,35.426 195.669,34.989C195.67,34.982 195.672,34.975 195.674,34.968C195.696,34.83 195.724,34.696 195.76,34.57C195.957,34.405 196.153,34.239 196.305,34.074C196.463,33.927 196.642,32.993 196.741,32.265C196.758,32.144 196.773,32.029 196.784,31.924C196.796,31.819 196.806,31.724 196.812,31.645C196.815,31.607 196.896,31.55 196.944,31.546C197.025,31.541 197.104,31.53 197.172,31.501C197.241,31.471 197.301,31.424 197.345,31.349C197.404,31.248 197.44,31.131 197.478,31.019C197.595,30.673 197.688,30.295 197.864,29.987C198.178,29.439 198.442,28.881 198.534,28.271C198.566,28.067 198.577,27.858 198.566,27.64C198.541,27.19 198.498,26.741 198.45,26.293C198.448,26.274 198.441,26.257 198.433,26.241C198.419,26.208 198.399,26.178 198.368,26.162C198.346,26.149 198.32,26.142 198.292,26.143C198.264,26.144 198.233,26.153 198.201,26.172C198.16,26.197 198.018,26.353 197.931,26.45C197.902,26.483 197.878,26.508 197.867,26.52C197.864,26.494 197.902,26.299 197.949,26.049C198.029,25.633 198.14,25.065 198.151,24.866L198.151,24.864L198.151,24.84C198.154,24.529 198.148,24.217 198.149,23.906C198.15,23.594 198.156,23.283 198.146,22.972C198.133,22.578 198.037,22.194 197.971,21.985C197.949,21.915 197.93,21.865 197.918,21.839C197.807,21.595 197.697,21.348 197.567,21.115C197.487,20.972 196.899,19.71 195.753,18.716C195.371,18.385 194.928,18.084 194.42,17.864C194.286,17.795 194.155,17.745 194.03,17.714C194.016,17.71 193.985,17.702 193.961,17.695C193.612,17.593 192.35,17.292 191.386,17.284C191.381,17.284 191.376,17.284 191.371,17.284L191.357,17.284C191.351,17.284 191.345,17.284 191.339,17.284L191.326,17.284L191.36,45.316Z" style="fill:rgb(101,102,108);fill-rule:nonzero;"/>
            </g>
            <g transform="matrix(4.80078,0,0,4.80078,1317.22,348.526)">
                <path d="M203.047,40.044C203.046,40.045 203.046,40.046 203.045,40.047" style="fill:rgb(101,102,108);fill-rule:nonzero;"/>
            </g>
            <g transform="matrix(4.80078,0,0,4.80078,1317.22,348.526)">
                <path d="M203.045,40.047C200.163,43.255 196.004,45.288 191.36,45.316C191.326,45.317 191.295,45.322 191.262,45.322C186.624,45.322 182.465,43.318 179.566,40.144C176.992,37.326 175.409,33.586 175.409,29.469C175.409,20.714 182.506,13.617 191.262,13.617C200.017,13.617 207.113,20.714 207.113,29.469C207.113,33.539 205.568,37.238 203.047,40.044M215.486,31.285L219.872,29.469L219.553,25.206L214.944,24.064L213.874,20.594L217.039,17.055L214.902,13.352L210.253,14.324L207.784,11.662L209.101,7.1L205.567,4.691L201.801,7.584L198.422,6.257L197.628,1.575L193.4,0.938L191.262,5.178L187.641,5.449L184.895,1.575L180.809,2.836L180.722,7.584L177.577,9.399L173.422,7.1L170.288,10.009L172.27,14.324L170.225,17.324L165.484,17.055L163.921,21.036L167.579,24.064L167.037,27.654L162.651,29.469L162.97,33.734L167.579,34.875L168.649,38.344L165.484,41.883L167.621,45.586L172.27,44.615L174.738,47.277L173.422,51.838L176.956,54.248L180.722,51.355L184.102,52.682L184.895,57.364L189.123,58L191.262,53.761L194.882,53.49L197.628,57.364L201.714,56.103L201.801,51.355L204.945,49.54L209.101,51.838L212.235,48.93L210.253,44.615L212.299,41.615L217.039,41.883L218.602,37.903L214.944,34.875L215.486,31.285Z" style="fill:rgb(243,109,36);fill-rule:nonzero;"/>
            </g>
            <g transform="matrix(4.80078,0,0,4.80078,1317.22,348.526)">
                <path d="M151.569,2.769L151.569,54.514" style="fill:none;stroke:rgb(104,106,108);stroke-width:1.25px;"/>
            </g>
            <g transform="matrix(4.80078,0,0,4.80078,1317.22,348.526)">
                <path d="M21.895,10.168C20.775,10.168 19.714,10.459 18.712,11.043C17.709,11.626 16.926,12.412 16.362,13.4C15.799,14.388 15.517,15.49 15.517,16.704C15.517,18.502 16.141,20.02 17.387,21.259C18.634,22.499 20.136,23.118 21.895,23.118C23.069,23.118 24.156,22.833 25.155,22.263C26.154,21.694 26.934,20.915 27.494,19.926C28.053,18.938 28.334,17.84 28.334,16.632C28.334,15.431 28.053,14.345 27.494,13.374C26.934,12.403 26.146,11.626 25.13,11.043C24.113,10.459 23.035,10.168 21.895,10.168ZM21.828,8.697C24.12,8.697 26.038,9.462 27.581,10.99C29.125,12.52 29.897,14.402 29.897,16.637C29.897,18.852 29.127,20.731 27.586,22.274C26.046,23.817 24.168,24.588 21.951,24.588C19.708,24.588 17.813,23.82 16.27,22.284C14.726,20.748 13.954,18.89 13.954,16.71C13.954,15.255 14.305,13.908 15.009,12.667C15.713,11.426 16.671,10.454 17.885,9.751C19.1,9.048 20.414,8.697 21.828,8.697Z" style="fill:rgb(104,106,108);fill-rule:nonzero;"/>
            </g>
            <g transform="matrix(4.80078,0,0,4.80078,1317.22,348.526)">
                <path d="M33.998,24.711L33.998,8.643L34.347,8.643L45.043,20.96L45.043,8.643L46.627,8.643L46.627,24.711L46.265,24.711L35.659,12.544L35.659,24.711L33.998,24.711Z" style="fill:rgb(104,106,108);fill-rule:nonzero;"/>
            </g>
            <g transform="matrix(4.80078,0,0,4.80078,1317.22,348.526)">
                <rect x="50.981" y="8.635" width="1.503" height="16.046" style="fill:rgb(104,106,108);"/>
            </g>
            <g transform="matrix(4.80078,0,0,4.80078,1317.22,348.526)">
                <path d="M114.76,8.644L117.796,8.644L117.796,21.7L123.85,21.7L123.85,24.595L114.76,24.595L114.76,8.644Z" style="fill:rgb(104,106,108);fill-rule:nonzero;"/>
            </g>
            <g transform="matrix(4.80078,0,0,4.80078,1317.22,348.526)">
                <path d="M127.075,8.644L130.112,8.644L130.112,21.7L136.165,21.7L136.165,24.595L127.075,24.595L127.075,8.644Z" style="fill:rgb(104,106,108);fill-rule:nonzero;"/>
            </g>
            <g transform="matrix(4.80078,0,0,4.80078,1317.22,348.526)">
                <path d="M103.824,12.873L105.94,18.318C106.995,18.357 108.096,18.427 109.132,18.51L105.345,8.644L102.266,8.644L98.498,18.722C99.483,18.539 100.556,18.415 101.685,18.348L103.824,12.873Z" style="fill:rgb(104,106,108);fill-rule:nonzero;"/>
            </g>
            <g transform="matrix(4.80078,0,0,4.80078,1317.22,348.526)">
                <path d="M106.685,20.367L108.324,24.627L111.48,24.627L109.59,19.704C108.684,19.888 107.695,20.108 106.685,20.367Z" style="fill:rgb(104,106,108);fill-rule:nonzero;"/>
            </g>
            <g transform="matrix(4.80078,0,0,4.80078,1317.22,348.526)">
                <path d="M101.685,18.348L101.685,18.349L105.952,18.349L105.94,18.318C105.795,18.313 105.649,18.307 105.505,18.303C104.208,18.266 102.916,18.276 101.685,18.348Z" style="fill:rgb(243,109,36);fill-rule:nonzero;"/>
            </g>
            <g transform="matrix(4.80078,0,0,4.80078,1317.22,348.526)">
                <path d="M109.132,18.51C108.096,18.427 106.995,18.357 105.94,18.318L105.952,18.349L101.685,18.349L101.685,18.348C100.556,18.415 99.483,18.539 98.498,18.722C94.8,19.415 92.408,21.023 93.586,24.223C95.223,28.672 102.651,31.347 102.651,31.347C102.651,31.347 95.284,26.593 99.101,23.512C100.806,22.137 103.823,21.1 106.685,20.367C107.695,20.108 108.684,19.888 109.59,19.704C112.009,19.212 113.832,18.979 113.832,18.979C113.832,18.979 111.687,18.712 109.132,18.51Z" style="fill:rgb(243,109,36);fill-rule:nonzero;"/>
            </g>
            <g transform="matrix(4.80078,0,0,4.80078,1317.22,348.526)">
                <path d="M70.392,20.814C68.974,22.414 67.223,23.216 65.137,23.216C63.2,23.216 61.595,22.596 60.324,21.355C59.052,20.115 58.417,18.567 58.417,16.713C58.417,15.487 58.701,14.382 59.27,13.4C59.839,12.418 60.639,11.635 61.674,11.053C62.708,10.471 63.831,10.179 65.044,10.179C66.154,10.179 67.172,10.401 68.099,10.846C68.985,11.272 69.749,11.889 70.392,12.695L70.392,10.636C69.933,10.255 69.426,9.796 68.869,9.523C67.725,8.961 66.443,8.68 65.023,8.68C62.673,8.68 60.718,9.441 59.156,10.96C57.595,12.48 56.814,14.353 56.814,16.579C56.814,18.695 57.459,20.501 58.748,21.997C60.285,23.768 62.384,24.653 65.044,24.653C66.443,24.653 67.71,24.389 68.843,23.862C69.406,23.6 69.923,23.154 70.392,22.784L70.392,20.814Z" style="fill:rgb(104,106,108);fill-rule:nonzero;"/>
            </g>
            <g transform="matrix(4.80078,0,0,4.80078,1317.22,348.526)">
                <path d="M5.759,15.911C2.14,15.169 1.454,14.225 1.454,12.743L1.454,12.699C1.454,11.13 2.949,9.991 5.009,9.991C6.735,9.991 8.104,10.509 9.448,11.67L9.575,11.779L9.606,11.74L9.606,9.967C8.216,9.038 6.839,8.646 5.053,8.646C2.172,8.646 0,10.436 0,12.808L0,12.852C0,15.251 1.524,16.537 5.26,17.294C8.77,18 9.435,18.921 9.435,20.375L9.435,20.418C9.435,22.101 7.92,23.278 5.749,23.278C3.633,23.278 2.133,22.656 0.401,21.06L0.279,20.947L0.252,20.979L0.252,22.809C1.911,24.056 3.622,24.624 5.683,24.624C8.749,24.624 10.889,22.849 10.889,20.309L10.889,20.265C10.889,17.946 9.355,16.643 5.759,15.911Z" style="fill:rgb(104,106,108);fill-rule:nonzero;"/>
            </g>
            <g transform="matrix(4.80078,0,0,4.80078,1317.22,348.526)">
                <path d="M93.348,8.644L89.701,19.496L89.623,19.73L89.546,19.495L85.951,8.598L83.032,8.598L79.438,19.495L79.36,19.73L79.282,19.496L75.635,8.644L72.014,8.644L77.784,24.67L80.751,24.67L84.368,14.218L84.445,13.995L84.523,14.218L88.14,24.67L91.107,24.67L96.877,8.644L93.348,8.644Z" style="fill:rgb(104,106,108);fill-rule:nonzero;"/>
            </g>
            <g transform="matrix(4.80078,0,0,4.80078,1317.22,348.526)">
                <path d="M14.106,45.688C14.321,46.061 14.6,46.338 14.944,46.52C15.287,46.702 15.677,46.794 16.117,46.794C16.389,46.794 16.646,46.752 16.886,46.669C17.126,46.586 17.335,46.47 17.513,46.322C17.691,46.172 17.832,45.992 17.935,45.782C18.038,45.571 18.09,45.333 18.09,45.067C18.09,44.762 18.026,44.509 17.898,44.31C17.769,44.112 17.597,43.949 17.383,43.821C17.168,43.692 16.926,43.583 16.656,43.491C16.387,43.4 16.11,43.309 15.825,43.218C15.54,43.127 15.262,43.024 14.993,42.908C14.724,42.793 14.482,42.641 14.267,42.455C14.051,42.269 13.881,42.036 13.753,41.753C13.624,41.472 13.56,41.126 13.56,40.711C13.56,40.322 13.636,39.977 13.79,39.674C13.942,39.373 14.149,39.121 14.41,38.918C14.671,38.715 14.97,38.562 15.309,38.459C15.649,38.355 16.005,38.303 16.377,38.303C16.857,38.303 17.301,38.388 17.712,38.557C18.121,38.727 18.474,39.01 18.773,39.408L18.065,39.917C17.858,39.627 17.616,39.41 17.34,39.265C17.061,39.121 16.733,39.048 16.352,39.048C16.088,39.048 15.836,39.084 15.595,39.154C15.355,39.224 15.146,39.328 14.968,39.463C14.791,39.6 14.647,39.772 14.541,39.979C14.432,40.186 14.379,40.43 14.379,40.711C14.379,41.15 14.491,41.487 14.714,41.722C14.937,41.959 15.217,42.145 15.551,42.281C15.887,42.419 16.251,42.538 16.644,42.641C17.037,42.745 17.401,42.883 17.736,43.057C18.071,43.231 18.35,43.472 18.574,43.783C18.798,44.093 18.909,44.521 18.909,45.067C18.909,45.464 18.835,45.817 18.686,46.123C18.537,46.429 18.336,46.688 18.084,46.898C17.832,47.109 17.54,47.269 17.209,47.377C16.878,47.484 16.535,47.538 16.178,47.538C15.599,47.538 15.065,47.436 14.578,47.234C14.09,47.031 13.672,46.69 13.324,46.21L14.106,45.688Z" style="fill:rgb(128,129,132);fill-rule:nonzero;"/>
            </g>
            <g transform="matrix(4.80078,0,0,4.80078,1317.22,348.526)">
                <path d="M30.017,43.962C30.017,43.707 29.966,43.466 29.863,43.244C29.76,43.019 29.619,42.823 29.441,42.654C29.262,42.484 29.051,42.349 28.807,42.251C28.563,42.151 28.304,42.101 28.032,42.101C27.627,42.101 27.289,42.184 27.02,42.349C26.752,42.515 26.539,42.706 26.382,42.92C26.224,43.135 26.112,43.344 26.047,43.547C25.98,43.751 25.947,43.888 25.947,43.962L30.017,43.962ZM30.589,46.235C30.299,46.673 29.941,46.988 29.515,47.177C29.089,47.368 28.619,47.463 28.106,47.463C27.668,47.463 27.27,47.388 26.915,47.24C26.559,47.09 26.253,46.882 25.997,46.613C25.74,46.344 25.544,46.026 25.407,45.658C25.27,45.29 25.202,44.881 25.202,44.435C25.202,44.004 25.272,43.607 25.413,43.244C25.553,42.879 25.753,42.562 26.009,42.294C26.265,42.025 26.567,41.814 26.915,41.661C27.262,41.507 27.647,41.431 28.069,41.431C28.508,41.431 28.894,41.507 29.229,41.661C29.565,41.814 29.846,42.016 30.074,42.269C30.301,42.522 30.472,42.809 30.589,43.131C30.705,43.455 30.762,43.781 30.762,44.112L30.762,44.633L25.947,44.633C25.947,44.791 25.977,44.991 26.04,45.235C26.102,45.479 26.216,45.717 26.382,45.949C26.547,46.18 26.768,46.379 27.045,46.544C27.322,46.71 27.68,46.794 28.119,46.794C28.5,46.794 28.868,46.702 29.223,46.52C29.579,46.338 29.852,46.089 30.043,45.775L30.589,46.235Z" style="fill:rgb(128,129,132);fill-rule:nonzero;"/>
            </g>
            <g transform="matrix(4.80078,0,0,4.80078,1317.22,348.526)">
                <path d="M42.193,46.47C41.912,46.81 41.593,47.06 41.238,47.221C40.882,47.382 40.497,47.463 40.084,47.463C39.645,47.463 39.24,47.388 38.867,47.24C38.495,47.09 38.176,46.882 37.912,46.613C37.646,46.344 37.44,46.026 37.291,45.658C37.142,45.29 37.067,44.885 37.067,44.447C37.067,44.008 37.142,43.605 37.291,43.237C37.44,42.869 37.646,42.55 37.912,42.281C38.176,42.012 38.495,41.803 38.867,41.655C39.24,41.505 39.645,41.431 40.084,41.431C40.506,41.431 40.896,41.518 41.257,41.692C41.616,41.866 41.937,42.11 42.218,42.424L41.623,42.871C41.407,42.631 41.172,42.443 40.915,42.306C40.659,42.169 40.382,42.101 40.084,42.101C39.736,42.101 39.422,42.164 39.14,42.288C38.859,42.412 38.619,42.58 38.421,42.791C38.221,43.002 38.071,43.25 37.968,43.535C37.864,43.821 37.812,44.125 37.812,44.447C37.812,44.77 37.864,45.074 37.968,45.359C38.071,45.645 38.221,45.893 38.421,46.104C38.619,46.315 38.859,46.483 39.14,46.607C39.422,46.731 39.736,46.794 40.084,46.794C40.398,46.794 40.685,46.72 40.946,46.576C41.207,46.431 41.432,46.239 41.623,45.999L42.193,46.47Z" style="fill:rgb(128,129,132);fill-rule:nonzero;"/>
            </g>
            <g transform="matrix(4.80078,0,0,4.80078,1317.22,348.526)">
                <path d="M53.177,45.701C53.177,45.808 53.181,45.939 53.19,46.091C53.198,46.245 53.205,46.4 53.209,46.557C53.213,46.714 53.218,46.861 53.227,46.998C53.235,47.134 53.239,47.24 53.239,47.314L52.495,47.314C52.486,47.099 52.48,46.892 52.476,46.694C52.472,46.495 52.462,46.367 52.445,46.309L52.408,46.309C52.259,46.624 52.01,46.894 51.663,47.122C51.316,47.349 50.91,47.463 50.447,47.463C50,47.463 49.635,47.392 49.348,47.252C49.063,47.111 48.84,46.927 48.678,46.7C48.517,46.472 48.407,46.21 48.349,45.912C48.292,45.614 48.262,45.308 48.262,44.993L48.262,41.581L49.008,41.581L49.008,44.956C49.008,45.188 49.028,45.414 49.069,45.632C49.111,45.852 49.182,46.048 49.286,46.222C49.39,46.396 49.535,46.535 49.721,46.637C49.907,46.741 50.149,46.794 50.447,46.794C50.719,46.794 50.978,46.745 51.222,46.65C51.467,46.555 51.677,46.411 51.855,46.215C52.034,46.021 52.175,45.778 52.278,45.484C52.381,45.19 52.432,44.844 52.432,44.447L52.432,41.581L53.177,41.581L53.177,45.701Z" style="fill:rgb(128,129,132);fill-rule:nonzero;"/>
            </g>
            <g transform="matrix(4.80078,0,0,4.80078,1317.22,348.526)">
                <path d="M60.19,43.194C60.19,43.086 60.185,42.956 60.177,42.802C60.17,42.649 60.163,42.495 60.159,42.337C60.155,42.18 60.148,42.033 60.14,41.896C60.133,41.76 60.128,41.655 60.128,41.581L60.873,41.581C60.881,41.795 60.886,42.002 60.891,42.201C60.895,42.399 60.906,42.528 60.923,42.585C61.113,42.247 61.356,41.969 61.654,41.753C61.953,41.539 62.316,41.431 62.747,41.431C62.821,41.431 62.893,41.437 62.964,41.45C63.034,41.462 63.107,41.477 63.181,41.494L63.094,42.225C62.995,42.192 62.9,42.175 62.808,42.175C62.486,42.175 62.207,42.228 61.97,42.331C61.735,42.435 61.541,42.577 61.387,42.759C61.234,42.941 61.121,43.155 61.047,43.398C60.972,43.642 60.934,43.906 60.934,44.187L60.934,47.314L60.19,47.314L60.19,43.194Z" style="fill:rgb(128,129,132);fill-rule:nonzero;"/>
            </g>
            <g transform="matrix(4.80078,0,0,4.80078,1317.22,348.526)">
                <path d="M73.557,43.962C73.557,43.707 73.506,43.466 73.402,43.244C73.299,43.019 73.158,42.823 72.98,42.654C72.802,42.484 72.592,42.349 72.347,42.251C72.103,42.151 71.844,42.101 71.572,42.101C71.166,42.101 70.829,42.184 70.56,42.349C70.291,42.515 70.078,42.706 69.921,42.92C69.763,43.135 69.652,43.344 69.586,43.547C69.519,43.751 69.486,43.888 69.486,43.962L73.557,43.962ZM74.129,46.235C73.839,46.673 73.481,46.988 73.054,47.177C72.629,47.368 72.159,47.463 71.646,47.463C71.208,47.463 70.81,47.388 70.455,47.24C70.098,47.09 69.793,46.882 69.536,46.613C69.279,46.344 69.083,46.026 68.946,45.658C68.81,45.29 68.742,44.881 68.742,44.435C68.742,44.004 68.812,43.607 68.953,43.244C69.093,42.879 69.292,42.562 69.549,42.294C69.804,42.025 70.107,41.814 70.455,41.661C70.801,41.507 71.186,41.431 71.609,41.431C72.048,41.431 72.434,41.507 72.769,41.661C73.104,41.814 73.385,42.016 73.613,42.269C73.841,42.522 74.012,42.809 74.129,43.131C74.244,43.455 74.302,43.781 74.302,44.112L74.302,44.633L69.486,44.633C69.486,44.791 69.517,44.991 69.58,45.235C69.641,45.479 69.756,45.717 69.921,45.949C70.087,46.18 70.307,46.379 70.585,46.544C70.862,46.71 71.22,46.794 71.658,46.794C72.039,46.794 72.407,46.702 72.762,46.52C73.119,46.338 73.391,46.089 73.582,45.775L74.129,46.235Z" style="fill:rgb(128,129,132);fill-rule:nonzero;"/>
            </g>
            <g transform="matrix(4.80078,0,0,4.80078,1317.22,348.526)">
                <path d="M81.141,38.527L86.404,38.527L86.404,39.272L81.961,39.272L81.961,42.399L86.093,42.399L86.093,43.144L81.961,43.144L81.961,47.314L81.141,47.314L81.141,38.527Z" style="fill:rgb(128,129,132);fill-rule:nonzero;"/>
            </g>
            <g transform="matrix(4.80078,0,0,4.80078,1317.22,348.526)">
                <path d="M92.92,41.581L93.664,41.581L93.664,47.314L92.92,47.314L92.92,41.581ZM92.733,39.308C92.733,39.152 92.787,39.019 92.895,38.912C93.002,38.804 93.135,38.75 93.292,38.75C93.449,38.75 93.581,38.804 93.689,38.912C93.797,39.019 93.85,39.152 93.85,39.308C93.85,39.466 93.797,39.598 93.689,39.706C93.581,39.814 93.449,39.867 93.292,39.867C93.135,39.867 93.002,39.814 92.895,39.706C92.787,39.598 92.733,39.466 92.733,39.308Z" style="fill:rgb(128,129,132);fill-rule:nonzero;"/>
            </g>
            <g transform="matrix(4.80078,0,0,4.80078,1317.22,348.526)">
                <path d="M100.738,43.194C100.738,43.086 100.735,42.956 100.727,42.802C100.718,42.649 100.712,42.495 100.708,42.337C100.703,42.18 100.697,42.033 100.69,41.896C100.681,41.76 100.677,41.655 100.677,41.581L101.422,41.581C101.43,41.795 101.436,42.002 101.441,42.201C101.445,42.399 101.454,42.528 101.471,42.585C101.661,42.247 101.905,41.969 102.203,41.753C102.501,41.539 102.865,41.431 103.296,41.431C103.37,41.431 103.443,41.437 103.513,41.45C103.583,41.462 103.655,41.477 103.731,41.494L103.644,42.225C103.544,42.192 103.449,42.175 103.358,42.175C103.035,42.175 102.756,42.228 102.52,42.331C102.284,42.435 102.09,42.577 101.937,42.759C101.783,42.941 101.67,43.155 101.596,43.398C101.521,43.642 101.484,43.906 101.484,44.187L101.484,47.314L100.738,47.314L100.738,43.194Z" style="fill:rgb(128,129,132);fill-rule:nonzero;"/>
            </g>
            <g transform="matrix(4.80078,0,0,4.80078,1317.22,348.526)">
                <path d="M109.849,45.85C110.006,46.156 110.238,46.389 110.544,46.55C110.85,46.712 111.173,46.794 111.512,46.794C111.669,46.794 111.826,46.768 111.984,46.718C112.141,46.669 112.281,46.598 112.405,46.507C112.529,46.417 112.631,46.307 112.709,46.178C112.788,46.05 112.827,45.904 112.827,45.738C112.827,45.473 112.743,45.275 112.573,45.142C112.404,45.01 112.196,44.907 111.946,44.833C111.698,44.757 111.425,44.693 111.127,44.639C110.829,44.585 110.556,44.502 110.308,44.391C110.06,44.28 109.851,44.125 109.682,43.926C109.512,43.727 109.427,43.446 109.427,43.082C109.427,42.801 109.485,42.556 109.601,42.349C109.716,42.143 109.867,41.971 110.054,41.835C110.24,41.698 110.448,41.597 110.681,41.53C110.912,41.464 111.148,41.431 111.388,41.431C111.86,41.431 112.267,41.518 112.611,41.692C112.953,41.866 113.221,42.139 113.411,42.511L112.741,42.908C112.6,42.643 112.424,42.443 112.213,42.306C112.002,42.169 111.728,42.101 111.388,42.101C111.256,42.101 111.116,42.122 110.972,42.164C110.827,42.205 110.697,42.262 110.581,42.337C110.465,42.412 110.368,42.507 110.289,42.623C110.211,42.739 110.172,42.871 110.172,43.019C110.172,43.276 110.256,43.466 110.426,43.59C110.596,43.715 110.805,43.812 111.053,43.882C111.301,43.953 111.574,44.013 111.872,44.062C112.17,44.112 112.443,44.193 112.692,44.304C112.94,44.416 113.149,44.578 113.319,44.789C113.487,45 113.572,45.299 113.572,45.688C113.572,45.986 113.517,46.245 113.405,46.463C113.293,46.683 113.14,46.868 112.946,47.016C112.751,47.166 112.529,47.277 112.281,47.351C112.033,47.426 111.773,47.463 111.499,47.463C111.003,47.463 110.55,47.368 110.141,47.177C109.731,46.988 109.414,46.694 109.192,46.296L109.849,45.85Z" style="fill:rgb(128,129,132);fill-rule:nonzero;"/>
            </g>
            <g transform="matrix(4.80078,0,0,4.80078,1317.22,348.526)">
                <path d="M122.894,42.251L121.255,42.251L121.255,45.986C121.255,46.243 121.325,46.441 121.466,46.582C121.607,46.723 121.802,46.794 122.05,46.794C122.19,46.794 122.333,46.774 122.478,46.737C122.622,46.7 122.761,46.652 122.894,46.594L122.955,47.264C122.815,47.314 122.654,47.36 122.472,47.401C122.289,47.443 122.128,47.463 121.987,47.463C121.723,47.463 121.495,47.424 121.305,47.345C121.114,47.267 120.961,47.162 120.846,47.029C120.73,46.897 120.645,46.741 120.591,46.563C120.537,46.385 120.511,46.193 120.511,45.986L120.511,42.251L119.27,42.251L119.27,41.581L120.511,41.581L120.511,39.929L121.255,39.929L121.255,41.581L122.894,41.581L122.894,42.251Z" style="fill:rgb(128,129,132);fill-rule:nonzero;"/>
            </g>
            <g transform="matrix(4.80078,0,0,4.80078,1317.22,348.526)">
                <path d="M0.2,33.614L136.027,33.614" style="fill:none;stroke:rgb(128,129,132);stroke-width:0.52px;stroke-linecap:round;"/>
            </g>
            <g transform="matrix(4.80078,0,0,4.80078,1317.22,348.526)">
                <path d="M3.032,42.936C3.032,43.736 2.383,44.385 1.583,44.385C0.782,44.385 0.133,43.736 0.133,42.936C0.133,42.135 0.782,41.487 1.583,41.487C2.383,41.487 3.032,42.135 3.032,42.936Z" style="fill:rgb(243,109,36);fill-rule:nonzero;"/>
            </g>
            <g transform="matrix(4.80078,0,0,4.80078,1317.22,348.526)">
                <path d="M136.086,42.936C136.086,43.736 135.437,44.385 134.637,44.385C133.836,44.385 133.188,43.736 133.188,42.936C133.188,42.135 133.836,41.487 134.637,41.487C135.437,41.487 136.086,42.135 136.086,42.936Z" style="fill:rgb(243,109,36);fill-rule:nonzero;"/>
            </g>
            <g transform="matrix(4.80078,0,0,4.80078,1317.22,348.526)">
                <path d="M138.331,9.721C138.405,9.721 138.465,9.715 138.512,9.703C138.558,9.691 138.595,9.673 138.621,9.649C138.648,9.625 138.665,9.594 138.675,9.559C138.686,9.523 138.691,9.483 138.691,9.437C138.691,9.393 138.686,9.354 138.678,9.32C138.669,9.287 138.654,9.259 138.629,9.237C138.606,9.215 138.573,9.198 138.532,9.188C138.49,9.177 138.438,9.171 138.372,9.171L138.143,9.171L138.143,9.721L138.331,9.721ZM138.372,8.825C138.639,8.825 138.834,8.873 138.958,8.969C139.082,9.064 139.144,9.201 139.144,9.379C139.144,9.506 139.112,9.617 139.045,9.712C138.98,9.807 138.878,9.876 138.739,9.919C138.771,9.938 138.798,9.962 138.82,9.99C138.842,10.018 138.863,10.05 138.883,10.087L139.27,10.744L138.831,10.744C138.768,10.744 138.723,10.72 138.696,10.673L138.389,10.11C138.374,10.091 138.359,10.075 138.341,10.065C138.323,10.054 138.296,10.048 138.26,10.048L138.143,10.048L138.143,10.744L137.683,10.744L137.683,8.825L138.372,8.825ZM138.38,11.114C138.501,11.114 138.617,11.098 138.729,11.067C138.84,11.036 138.944,10.991 139.04,10.934C139.136,10.877 139.224,10.809 139.304,10.729C139.382,10.649 139.45,10.56 139.505,10.462C139.561,10.363 139.605,10.257 139.635,10.145C139.665,10.032 139.681,9.914 139.681,9.79C139.681,9.666 139.665,9.547 139.635,9.433C139.605,9.318 139.561,9.212 139.505,9.113C139.45,9.014 139.382,8.924 139.304,8.843C139.224,8.763 139.136,8.693 139.04,8.636C138.944,8.578 138.84,8.533 138.729,8.502C138.617,8.471 138.501,8.455 138.38,8.455C138.259,8.455 138.144,8.471 138.033,8.502C137.924,8.533 137.821,8.578 137.726,8.636C137.63,8.693 137.543,8.763 137.466,8.843C137.388,8.924 137.321,9.014 137.266,9.113C137.21,9.212 137.167,9.318 137.138,9.433C137.108,9.547 137.093,9.666 137.093,9.79C137.093,9.975 137.126,10.149 137.193,10.31C137.258,10.471 137.349,10.611 137.465,10.73C137.58,10.849 137.717,10.943 137.873,11.011C138.03,11.08 138.199,11.114 138.38,11.114ZM138.38,8.209C138.526,8.209 138.666,8.228 138.801,8.266C138.936,8.304 139.061,8.357 139.178,8.425C139.295,8.494 139.402,8.576 139.498,8.672C139.594,8.769 139.677,8.875 139.745,8.992C139.814,9.109 139.866,9.235 139.904,9.37C139.943,9.504 139.961,9.644 139.961,9.79C139.961,9.934 139.943,10.073 139.904,10.208C139.866,10.343 139.814,10.468 139.745,10.585C139.677,10.701 139.594,10.807 139.498,10.903C139.402,10.999 139.295,11.082 139.178,11.15C139.061,11.219 138.936,11.272 138.801,11.31C138.666,11.347 138.526,11.366 138.38,11.366C138.235,11.366 138.095,11.347 137.961,11.31C137.827,11.272 137.702,11.219 137.586,11.15C137.469,11.082 137.363,10.999 137.267,10.903C137.171,10.807 137.088,10.701 137.02,10.585C136.951,10.468 136.899,10.343 136.861,10.209C136.822,10.075 136.804,9.936 136.804,9.79C136.804,9.644 136.822,9.504 136.861,9.37C136.899,9.235 136.951,9.109 137.02,8.992C137.088,8.875 137.171,8.769 137.267,8.672C137.363,8.576 137.469,8.494 137.586,8.425C137.702,8.357 137.827,8.304 137.961,8.266C138.095,8.228 138.235,8.209 138.38,8.209Z" style="fill:rgb(104,106,108);fill-rule:nonzero;"/>
            </g>
            <g transform="matrix(4.80078,0,0,4.80078,1317.22,348.526)">
                <path d="M174.151,19.627C174.258,19.448 174.292,19.294 174.254,19.164C174.216,19.034 174.12,18.922 173.967,18.831C173.899,18.79 173.83,18.763 173.763,18.75C173.695,18.737 173.628,18.739 173.564,18.756C173.499,18.774 173.437,18.808 173.377,18.858C173.318,18.908 173.262,18.976 173.209,19.063L172.994,19.422L173.936,19.986L174.151,19.627ZM172.695,18.754C172.82,18.545 172.951,18.38 173.091,18.26C173.231,18.14 173.373,18.057 173.519,18.012C173.663,17.967 173.809,17.957 173.954,17.982C174.101,18.006 174.242,18.06 174.379,18.142C174.528,18.231 174.649,18.335 174.744,18.458C174.839,18.579 174.902,18.715 174.931,18.866C174.961,19.016 174.955,19.182 174.915,19.362C174.874,19.542 174.793,19.734 174.67,19.939L174.455,20.297L175.447,20.892L175.034,21.581L172.067,19.801L172.695,18.754Z" style="fill:white;fill-rule:nonzero;"/>
            </g>
            <g transform="matrix(4.80078,0,0,4.80078,1317.22,348.526)">
                <path d="M179.026,14.694L178.169,14.177C178.112,14.147 178.047,14.109 177.974,14.064C177.901,14.019 177.822,13.969 177.741,13.914C177.785,14.003 177.823,14.087 177.857,14.169C177.889,14.249 177.915,14.319 177.936,14.38L178.302,15.306L179.026,14.694ZM180.854,14.88L180.378,15.283C180.325,15.328 180.272,15.351 180.218,15.354C180.165,15.357 180.113,15.346 180.064,15.322L179.518,14.993L178.513,15.842L178.747,16.435C178.762,16.48 178.764,16.531 178.753,16.587C178.741,16.643 178.71,16.693 178.659,16.736L178.181,17.141L176.969,13.633L177.597,13.103L180.854,14.88Z" style="fill:white;fill-rule:nonzero;"/>
            </g>
            <g transform="matrix(4.80078,0,0,4.80078,1317.22,348.526)">
                <path d="M184.164,11.174C184.267,11.136 184.349,11.091 184.411,11.038C184.473,10.985 184.519,10.927 184.547,10.864C184.576,10.801 184.59,10.734 184.587,10.665C184.585,10.596 184.57,10.525 184.544,10.455C184.491,10.312 184.404,10.218 184.28,10.172C184.158,10.127 183.999,10.141 183.805,10.213L183.502,10.326L183.862,11.287L184.164,11.174ZM186.403,12.296L185.722,12.55C185.596,12.597 185.487,12.584 185.398,12.509L184.507,11.769C184.467,11.738 184.428,11.719 184.39,11.712C184.352,11.706 184.304,11.713 184.246,11.734L184.055,11.806L184.502,13.005L183.75,13.286L182.54,10.044L183.595,9.65C183.829,9.563 184.038,9.512 184.222,9.499C184.405,9.485 184.566,9.502 184.702,9.549C184.838,9.596 184.952,9.669 185.044,9.769C185.135,9.868 185.206,9.987 185.258,10.125C185.297,10.23 185.32,10.335 185.326,10.439C185.333,10.543 185.324,10.645 185.299,10.745C185.274,10.844 185.233,10.94 185.175,11.033C185.117,11.126 185.043,11.211 184.952,11.291C185.011,11.297 185.069,11.312 185.126,11.334C185.183,11.356 185.238,11.386 185.292,11.425L186.403,12.296Z" style="fill:white;fill-rule:nonzero;"/>
            </g>
            <g transform="matrix(4.80078,0,0,4.80078,1317.22,348.526)">
                <path d="M192.095,8.861L191.121,8.886L191.193,11.709L190.391,11.73L190.319,8.906L189.346,8.931L189.329,8.295L192.078,8.225L192.095,8.861Z" style="fill:white;fill-rule:nonzero;"/>
            </g>
            <g transform="matrix(4.80078,0,0,4.80078,1317.22,348.526)">
                <path d="M199.548,9.837L198.453,13.121L198.057,12.988C197.998,12.968 197.952,12.943 197.919,12.911C197.885,12.878 197.857,12.833 197.833,12.773L196.938,10.299C196.924,10.36 196.909,10.418 196.894,10.474C196.877,10.529 196.862,10.581 196.845,10.629L196.259,12.389L195.587,12.165L196.682,8.882L197.082,9.016C197.115,9.027 197.143,9.038 197.164,9.048C197.186,9.059 197.204,9.071 197.22,9.086C197.235,9.1 197.248,9.117 197.26,9.138C197.272,9.158 197.283,9.185 197.296,9.217L198.2,11.709C198.214,11.644 198.229,11.581 198.245,11.52C198.263,11.46 198.279,11.403 198.297,11.351L198.876,9.614L199.548,9.837Z" style="fill:white;fill-rule:nonzero;"/>
            </g>
            <g transform="matrix(4.80078,0,0,4.80078,1317.22,348.526)">
                <path d="M204.084,13.225L203.586,13.86L204.441,14.532L204.074,14.999L203.219,14.327L202.709,14.975L203.826,15.852L203.445,16.337L201.694,14.961L203.831,12.24L205.583,13.617L205.201,14.102L204.084,13.225Z" style="fill:white;fill-rule:nonzero;"/>
            </g>
            <g transform="matrix(4.80078,0,0,4.80078,1317.22,348.526)">
                <path d="M208.003,18.904C208.063,18.995 208.125,19.065 208.19,19.115C208.255,19.164 208.321,19.196 208.39,19.21C208.457,19.224 208.525,19.222 208.592,19.206C208.659,19.188 208.725,19.159 208.788,19.117C208.916,19.034 208.988,18.927 209.006,18.798C209.024,18.669 208.976,18.517 208.862,18.343L208.686,18.073L207.826,18.632L208.003,18.904ZM207.399,21.334L207.001,20.724C206.928,20.612 206.917,20.503 206.97,20.399L207.498,19.369C207.519,19.323 207.529,19.281 207.528,19.242C207.526,19.203 207.508,19.158 207.475,19.106L207.362,18.935L206.29,19.634L205.852,18.961L208.751,17.072L209.365,18.015C209.502,18.224 209.597,18.418 209.651,18.593C209.703,18.769 209.723,18.929 209.706,19.073C209.691,19.216 209.644,19.343 209.567,19.455C209.489,19.565 209.39,19.661 209.266,19.741C209.172,19.802 209.075,19.848 208.975,19.877C208.875,19.907 208.774,19.919 208.67,19.917C208.568,19.914 208.465,19.895 208.362,19.859C208.259,19.823 208.159,19.769 208.062,19.699C208.068,19.757 208.067,19.816 208.058,19.877C208.049,19.937 208.031,19.998 208.005,20.059L207.399,21.334Z" style="fill:white;fill-rule:nonzero;"/>
            </g>
            <g transform="matrix(4.80078,0,0,4.80078,1317.22,348.526)">
                <path d="M177.064,43.262C177.204,43.417 177.342,43.495 177.478,43.496C177.613,43.497 177.747,43.437 177.88,43.316C177.939,43.263 177.984,43.206 178.016,43.144C178.048,43.084 178.065,43.019 178.067,42.952C178.069,42.885 178.055,42.816 178.024,42.744C177.993,42.672 177.944,42.599 177.875,42.524L177.594,42.215L176.782,42.953L177.064,43.262ZM178.32,42.12C178.484,42.3 178.604,42.475 178.679,42.643C178.753,42.811 178.791,42.971 178.792,43.124C178.794,43.276 178.762,43.418 178.695,43.55C178.63,43.683 178.538,43.802 178.42,43.911C178.292,44.026 178.156,44.113 178.012,44.169C177.868,44.224 177.72,44.245 177.568,44.229C177.414,44.214 177.258,44.162 177.097,44.071C176.937,43.98 176.777,43.846 176.615,43.669L176.334,43.36L175.479,44.138L174.939,43.544L177.499,41.216L178.32,42.12Z" style="fill:white;fill-rule:nonzero;"/>
            </g>
            <g transform="matrix(4.80078,0,0,4.80078,1317.22,348.526)">
                <path d="M183.314,47.874C183.392,47.721 183.443,47.574 183.466,47.432C183.489,47.291 183.486,47.158 183.455,47.036C183.425,46.913 183.368,46.801 183.284,46.701C183.2,46.601 183.091,46.516 182.954,46.445C182.817,46.375 182.682,46.334 182.551,46.323C182.42,46.312 182.296,46.331 182.179,46.377C182.062,46.422 181.951,46.497 181.849,46.598C181.747,46.7 181.656,46.826 181.578,46.978C181.499,47.131 181.447,47.279 181.424,47.421C181.401,47.563 181.404,47.696 181.435,47.818C181.465,47.941 181.523,48.051 181.608,48.152C181.693,48.252 181.804,48.336 181.942,48.408C182.078,48.478 182.211,48.519 182.341,48.53C182.471,48.541 182.594,48.523 182.712,48.477C182.829,48.43 182.939,48.357 183.041,48.255C183.144,48.154 183.234,48.027 183.314,47.874ZM184.043,48.25C183.929,48.472 183.783,48.66 183.609,48.811C183.433,48.963 183.238,49.074 183.027,49.143C182.815,49.212 182.589,49.237 182.352,49.215C182.114,49.195 181.875,49.123 181.637,48.999C181.398,48.876 181.199,48.723 181.044,48.542C180.889,48.359 180.778,48.162 180.71,47.948C180.644,47.734 180.62,47.512 180.643,47.281C180.665,47.05 180.734,46.824 180.848,46.601C180.963,46.378 181.108,46.192 181.283,46.04C181.458,45.888 181.653,45.778 181.865,45.71C182.078,45.641 182.303,45.618 182.542,45.639C182.78,45.661 183.019,45.733 183.258,45.856C183.497,45.98 183.695,46.132 183.849,46.315C184.003,46.497 184.113,46.695 184.181,46.907C184.247,47.12 184.27,47.341 184.247,47.572C184.226,47.803 184.157,48.029 184.043,48.25Z" style="fill:white;fill-rule:nonzero;"/>
            </g>
            <g transform="matrix(4.80078,0,0,4.80078,1317.22,348.526)">
                <path d="M188.961,49.318C189.07,49.331 189.164,49.328 189.243,49.309C189.322,49.29 189.39,49.259 189.444,49.215C189.498,49.172 189.54,49.12 189.57,49.057C189.599,48.994 189.618,48.925 189.627,48.849C189.644,48.699 189.609,48.575 189.52,48.479C189.431,48.382 189.283,48.323 189.077,48.299L188.757,48.262L188.641,49.282L188.961,49.318ZM190.447,51.334L189.726,51.252C189.592,51.236 189.501,51.174 189.454,51.067L188.997,50.003C188.976,49.959 188.949,49.923 188.919,49.9C188.888,49.877 188.842,49.862 188.78,49.855L188.577,49.832L188.432,51.103L187.635,51.012L188.028,47.574L189.146,47.702C189.395,47.73 189.604,47.78 189.774,47.851C189.943,47.922 190.077,48.01 190.178,48.114C190.279,48.218 190.347,48.335 190.383,48.465C190.419,48.595 190.429,48.733 190.412,48.879C190.4,48.991 190.372,49.095 190.331,49.191C190.29,49.286 190.236,49.373 190.168,49.451C190.1,49.528 190.02,49.594 189.926,49.651C189.833,49.708 189.728,49.751 189.612,49.78C189.66,49.813 189.705,49.851 189.746,49.897C189.787,49.942 189.822,49.995 189.853,50.053L190.447,51.334Z" style="fill:white;fill-rule:nonzero;"/>
            </g>
            <g transform="matrix(4.80078,0,0,4.80078,1317.22,348.526)">
                <path d="M196.49,47.756L195.539,47.963L196.14,50.723L195.356,50.893L194.755,48.134L193.803,48.341L193.668,47.719L196.355,47.134L196.49,47.756Z" style="fill:white;fill-rule:nonzero;"/>
            </g>
            <g transform="matrix(4.80078,0,0,4.80078,1317.22,348.526)">
                <path d="M201.762,46.937L200.999,46.29C200.948,46.25 200.89,46.202 200.825,46.146C200.76,46.089 200.692,46.028 200.619,45.96C200.649,46.055 200.673,46.145 200.693,46.23C200.712,46.314 200.727,46.388 200.737,46.452L200.949,47.424L201.762,46.937ZM203.536,47.417L203.002,47.736C202.943,47.772 202.886,47.787 202.832,47.781C202.779,47.775 202.73,47.756 202.685,47.724L202.199,47.312L201.07,47.988L201.206,48.611C201.214,48.658 201.207,48.708 201.187,48.761C201.167,48.815 201.128,48.859 201.07,48.893L200.533,49.216L199.904,45.559L200.608,45.136L203.536,47.417Z" style="fill:white;fill-rule:nonzero;"/>
            </g>
            <g transform="matrix(4.80078,0,0,4.80078,1317.22,348.526)">
                <path d="M207.562,42.537L208.051,42.951L206.704,44.543L204.063,42.308L204.581,41.695L206.734,43.515L207.562,42.537Z" style="fill:white;fill-rule:nonzero;"/>
            </g>
        </g>
    </g>
</svg>
