<?xml version="1.0" encoding="UTF-8" standalone="no"?>
<!DOCTYPE svg PUBLIC "-//W3C//DTD SVG 1.1//EN" "http://www.w3.org/Graphics/SVG/1.1/DTD/svg11.dtd">
<svg width="100%" height="100%" viewBox="0 0 834 558" version="1.1" xmlns="http://www.w3.org/2000/svg" xmlns:xlink="http://www.w3.org/1999/xlink" xml:space="preserve" xmlns:serif="http://www.serif.com/" style="fill-rule:evenodd;clip-rule:evenodd;stroke-miterlimit:1.41421;">
    <g transform="matrix(1,0,0,1,-32,-12)">
        <g transform="matrix(3.93305,0,0,3.93305,29.4591,288.651)">
            <g transform="matrix(0.555788,0,0,0.555788,-4.36357,1.89989)">
                <path d="M284.13,16.339L284.13,110.022" style="fill:white;stroke:white;stroke-width:2.05px;"/>
            </g>
            <path d="M169.688,48.036C170.084,48.036 170.369,47.941 170.543,47.752C170.717,47.563 170.804,47.299 170.804,46.96C170.804,46.811 170.781,46.674 170.736,46.551C170.692,46.428 170.623,46.322 170.531,46.233C170.44,46.145 170.324,46.077 170.185,46.028C170.046,45.98 169.88,45.957 169.688,45.957L168.896,45.957L168.896,48.036L169.688,48.036ZM169.688,44.818C170.15,44.818 170.547,44.873 170.878,44.982C171.209,45.092 171.483,45.243 171.697,45.435C171.911,45.627 172.069,45.853 172.172,46.114C172.274,46.375 172.325,46.657 172.325,46.96C172.325,47.287 172.273,47.587 172.167,47.86C172.063,48.133 171.902,48.367 171.686,48.562C171.47,48.757 171.196,48.909 170.864,49.019C170.533,49.129 170.141,49.184 169.688,49.184L168.896,49.184L168.896,51.375L167.375,51.375L167.375,44.818L169.688,44.818Z" style="fill:white;fill-rule:nonzero;"/>
            <path d="M176.779,48.868L176.172,47.073C176.127,46.959 176.079,46.824 176.027,46.67C175.977,46.516 175.926,46.349 175.875,46.168C175.83,46.352 175.781,46.52 175.731,46.677C175.68,46.833 175.632,46.968 175.587,47.082L174.984,48.868L176.779,48.868ZM179.195,51.375L178.017,51.375C177.885,51.375 177.778,51.344 177.697,51.282C177.616,51.221 177.555,51.143 177.513,51.046L177.126,49.903L174.633,49.903L174.246,51.046C174.213,51.13 174.153,51.206 174.068,51.273C173.983,51.341 173.877,51.375 173.751,51.375L172.563,51.375L175.101,44.818L176.657,44.818L179.195,51.375Z" style="fill:white;fill-rule:nonzero;"/>
            <path d="M182.522,47.9C182.729,47.9 182.904,47.875 183.05,47.822C183.195,47.769 183.315,47.697 183.408,47.603C183.501,47.511 183.568,47.402 183.61,47.277C183.652,47.153 183.674,47.019 183.674,46.875C183.674,46.587 183.58,46.361 183.393,46.2C183.205,46.038 182.914,45.957 182.522,45.957L181.909,45.957L181.909,47.9L182.522,47.9ZM185.752,51.375L184.375,51.375C184.12,51.375 183.938,51.278 183.826,51.087L182.737,49.184C182.687,49.102 182.63,49.043 182.567,49.006C182.503,48.968 182.413,48.949 182.297,48.949L181.909,48.949L181.909,51.375L180.389,51.375L180.389,44.818L182.522,44.818C182.995,44.818 183.4,44.867 183.735,44.965C184.068,45.062 184.342,45.198 184.553,45.372C184.765,45.546 184.918,45.751 185.015,45.988C185.11,46.226 185.158,46.483 185.158,46.763C185.158,46.976 185.13,47.176 185.073,47.365C185.016,47.555 184.932,47.729 184.821,47.89C184.71,48.05 184.572,48.193 184.409,48.319C184.246,48.445 184.058,48.549 183.845,48.63C183.943,48.681 184.036,48.744 184.123,48.821C184.21,48.897 184.288,48.988 184.358,49.093L185.752,51.375Z" style="fill:white;fill-rule:nonzero;"/>
            <path d="M191.562,46.024L189.717,46.024L189.717,51.375L188.196,51.375L188.196,46.024L186.351,46.024L186.351,44.818L191.562,44.818L191.562,46.024Z" style="fill:white;fill-rule:nonzero;"/>
            <path d="M198.731,44.818L198.731,51.375L197.939,51.375C197.821,51.375 197.724,51.356 197.644,51.318C197.565,51.281 197.485,51.216 197.407,51.123L194.317,47.212C194.328,47.329 194.336,47.442 194.341,47.552C194.346,47.661 194.348,47.765 194.348,47.86L194.348,51.375L193.007,51.375L193.007,44.818L193.808,44.818C193.873,44.818 193.929,44.821 193.974,44.827C194.02,44.833 194.06,44.845 194.096,44.861C194.132,44.878 194.166,44.9 194.199,44.931C194.233,44.961 194.27,45.001 194.312,45.053L197.43,48.99C197.415,48.863 197.404,48.741 197.399,48.623C197.393,48.505 197.39,48.393 197.39,48.288L197.39,44.818L198.731,44.818Z" style="fill:white;fill-rule:nonzero;"/>
            <path d="M202.204,45.988L202.204,47.519L204.266,47.519L204.266,48.644L202.204,48.644L202.204,50.205L204.896,50.205L204.896,51.375L200.675,51.375L200.675,44.818L204.896,44.818L204.896,45.988L202.204,45.988Z" style="fill:white;fill-rule:nonzero;"/>
            <path d="M208.64,47.9C208.847,47.9 209.023,47.875 209.168,47.822C209.314,47.769 209.433,47.697 209.527,47.603C209.619,47.511 209.687,47.402 209.729,47.277C209.771,47.153 209.792,47.019 209.792,46.875C209.792,46.587 209.698,46.361 209.511,46.2C209.323,46.038 209.032,45.957 208.64,45.957L208.027,45.957L208.027,47.9L208.64,47.9ZM211.87,51.375L210.493,51.375C210.238,51.375 210.056,51.278 209.944,51.087L208.856,49.184C208.805,49.102 208.748,49.043 208.685,49.006C208.621,48.968 208.531,48.949 208.415,48.949L208.027,48.949L208.027,51.375L206.507,51.375L206.507,44.818L208.64,44.818C209.113,44.818 209.518,44.867 209.853,44.965C210.187,45.062 210.46,45.198 210.671,45.372C210.883,45.546 211.036,45.751 211.133,45.988C211.229,46.226 211.277,46.483 211.277,46.763C211.277,46.976 211.248,47.176 211.192,47.365C211.134,47.555 211.05,47.729 210.94,47.89C210.828,48.05 210.691,48.193 210.527,48.319C210.364,48.445 210.176,48.549 209.963,48.63C210.062,48.681 210.154,48.744 210.241,48.821C210.328,48.897 210.406,48.988 210.476,49.093L211.87,51.375Z" style="fill:white;fill-rule:nonzero;"/>
            <path d="M168.751,55.988L168.751,57.519L170.813,57.519L170.813,58.644L168.751,58.644L168.751,60.205L171.443,60.205L171.443,61.375L167.222,61.375L167.222,54.818L171.443,54.818L171.443,55.988L168.751,55.988Z" style="fill:white;fill-rule:nonzero;"/>
            <path d="M178.777,54.818L178.777,61.375L177.985,61.375C177.868,61.375 177.771,61.356 177.691,61.318C177.611,61.281 177.532,61.216 177.454,61.123L174.363,57.212C174.375,57.329 174.383,57.442 174.388,57.552C174.393,57.661 174.395,57.765 174.395,57.86L174.395,61.375L173.054,61.375L173.054,54.818L173.855,54.818C173.92,54.818 173.976,54.821 174.021,54.827C174.067,54.833 174.107,54.845 174.143,54.861C174.179,54.878 174.213,54.9 174.246,54.931C174.279,54.961 174.317,55.001 174.359,55.053L177.477,58.99C177.462,58.863 177.451,58.741 177.445,58.623C177.44,58.505 177.437,58.393 177.437,58.288L177.437,54.818L178.777,54.818Z" style="fill:white;fill-rule:nonzero;"/>
            <path d="M184.187,58.868L183.579,57.073C183.534,56.959 183.486,56.824 183.435,56.67C183.384,56.516 183.333,56.349 183.282,56.168C183.237,56.352 183.189,56.52 183.138,56.677C183.087,56.833 183.039,56.968 182.994,57.082L182.391,58.868L184.187,58.868ZM186.603,61.375L185.424,61.375C185.292,61.375 185.186,61.344 185.105,61.282C185.024,61.221 184.962,61.143 184.92,61.046L184.533,59.903L182.04,59.903L181.653,61.046C181.62,61.13 181.561,61.206 181.476,61.273C181.39,61.341 181.284,61.375 181.158,61.375L179.97,61.375L182.508,54.818L184.065,54.818L186.603,61.375Z" style="fill:white;fill-rule:nonzero;"/>
            <path d="M190.388,60.227C190.589,60.227 190.753,60.202 190.881,60.15C191.008,60.1 191.108,60.034 191.18,59.953C191.252,59.872 191.301,59.78 191.328,59.679C191.356,59.576 191.368,59.473 191.368,59.368C191.368,59.248 191.353,59.14 191.321,59.044C191.29,58.948 191.236,58.867 191.159,58.801C191.083,58.734 190.982,58.684 190.856,58.647C190.73,58.611 190.57,58.594 190.379,58.594L189.317,58.594L189.317,60.227L190.388,60.227ZM189.317,55.957L189.317,57.577L190.109,57.577C190.277,57.577 190.428,57.564 190.564,57.541C190.698,57.517 190.813,57.475 190.907,57.415C191.002,57.354 191.074,57.272 191.123,57.167C191.173,57.062 191.197,56.931 191.197,56.771C191.197,56.615 191.178,56.485 191.139,56.382C191.101,56.278 191.04,56.195 190.959,56.132C190.878,56.069 190.776,56.024 190.652,55.997C190.527,55.971 190.379,55.957 190.208,55.957L189.317,55.957ZM190.208,54.818C190.66,54.818 191.046,54.86 191.364,54.944C191.682,55.028 191.942,55.146 192.143,55.3C192.344,55.453 192.49,55.639 192.581,55.857C192.673,56.077 192.719,56.321 192.719,56.591C192.719,56.738 192.697,56.88 192.655,57.017C192.613,57.153 192.548,57.28 192.458,57.399C192.367,57.518 192.252,57.626 192.111,57.726C191.97,57.824 191.801,57.91 191.603,57.981C192.034,58.087 192.355,58.256 192.562,58.49C192.769,58.725 192.872,59.027 192.872,59.399C192.872,59.679 192.818,59.937 192.71,60.178C192.602,60.418 192.443,60.627 192.235,60.806C192.027,60.984 191.77,61.123 191.463,61.224C191.157,61.324 190.808,61.375 190.415,61.375L187.796,61.375L187.796,54.818L190.208,54.818Z" style="fill:white;fill-rule:nonzero;"/>
            <path d="M198.447,60.16L198.447,61.375L194.496,61.375L194.496,54.818L196.017,54.818L196.017,60.16L198.447,60.16Z" style="fill:white;fill-rule:nonzero;"/>
            <path d="M201.425,55.988L201.425,57.519L203.486,57.519L203.486,58.644L201.425,58.644L201.425,60.205L204.116,60.205L204.116,61.375L199.896,61.375L199.896,54.818L204.116,54.818L204.116,55.988L201.425,55.988Z" style="fill:white;fill-rule:nonzero;"/>
            <path d="M210.119,58.095C210.119,57.77 210.077,57.477 209.993,57.217C209.909,56.956 209.788,56.734 209.631,56.553C209.474,56.371 209.28,56.232 209.053,56.135C208.825,56.037 208.566,55.988 208.275,55.988L207.257,55.988L207.257,60.205L208.275,60.205C208.566,60.205 208.825,60.156 209.053,60.059C209.28,59.961 209.474,59.821 209.631,59.64C209.788,59.459 209.909,59.237 209.993,58.977C210.077,58.715 210.119,58.421 210.119,58.095ZM211.677,58.095C211.677,58.568 211.595,59.006 211.431,59.406C211.268,59.807 211.037,60.153 210.74,60.445C210.443,60.738 210.086,60.966 209.667,61.13C209.248,61.293 208.784,61.375 208.275,61.375L205.728,61.375L205.728,54.818L208.275,54.818C208.784,54.818 209.248,54.9 209.667,55.065C210.086,55.23 210.443,55.459 210.74,55.75C211.037,56.041 211.268,56.387 211.431,56.787C211.595,57.187 211.677,57.623 211.677,58.095Z" style="fill:white;fill-rule:nonzero;"/>
            <path d="M170.626,66.15C170.581,66.223 170.534,66.276 170.485,66.312C170.435,66.349 170.371,66.366 170.293,66.366C170.224,66.366 170.15,66.345 170.07,66.301C169.991,66.258 169.901,66.209 169.801,66.154C169.7,66.101 169.585,66.052 169.456,66.009C169.327,65.965 169.18,65.943 169.016,65.943C168.731,65.943 168.518,66.004 168.378,66.126C168.239,66.247 168.169,66.411 168.169,66.618C168.169,66.75 168.211,66.859 168.295,66.946C168.379,67.034 168.489,67.108 168.626,67.172C168.763,67.234 168.918,67.293 169.094,67.345C169.27,67.397 169.448,67.456 169.632,67.52C169.815,67.585 169.994,67.661 170.169,67.748C170.345,67.835 170.501,67.945 170.638,68.081C170.774,68.216 170.884,68.38 170.968,68.573C171.052,68.767 171.094,69 171.094,69.273C171.094,69.576 171.042,69.859 170.937,70.124C170.832,70.388 170.68,70.618 170.48,70.814C170.28,71.011 170.034,71.165 169.742,71.278C169.449,71.391 169.117,71.446 168.745,71.446C168.541,71.446 168.333,71.426 168.122,71.384C167.91,71.342 167.706,71.282 167.508,71.206C167.31,71.13 167.124,71.039 166.949,70.934C166.776,70.829 166.624,70.712 166.495,70.583L166.945,69.872C166.982,69.82 167.028,69.778 167.087,69.743C167.146,69.709 167.209,69.691 167.278,69.691C167.368,69.691 167.459,69.721 167.551,69.777C167.642,69.834 167.745,69.897 167.861,69.966C167.977,70.035 168.11,70.099 168.259,70.155C168.409,70.212 168.586,70.241 168.79,70.241C169.067,70.241 169.28,70.18 169.434,70.059C169.587,69.936 169.663,69.744 169.663,69.48C169.663,69.327 169.621,69.203 169.537,69.106C169.453,69.011 169.343,68.932 169.206,68.868C169.07,68.806 168.915,68.75 168.74,68.702C168.567,68.653 168.388,68.601 168.205,68.542C168.023,68.483 167.844,68.411 167.67,68.326C167.496,68.24 167.341,68.128 167.204,67.988C167.068,67.849 166.957,67.675 166.873,67.467C166.789,67.258 166.747,67.001 166.747,66.694C166.747,66.449 166.797,66.209 166.896,65.975C166.995,65.741 167.14,65.532 167.332,65.35C167.525,65.166 167.76,65.02 168.039,64.91C168.318,64.801 168.637,64.746 168.997,64.746C169.198,64.746 169.394,64.762 169.584,64.794C169.775,64.825 169.956,64.871 170.127,64.933C170.298,64.994 170.457,65.068 170.606,65.153C170.754,65.239 170.887,65.336 171.004,65.443L170.626,66.15Z" style="fill:white;fill-rule:nonzero;"/>
            <path d="M174.194,65.988L174.194,67.519L176.256,67.519L176.256,68.644L174.194,68.644L174.194,70.205L176.886,70.205L176.886,71.375L172.665,71.375L172.665,64.818L176.886,64.818L176.886,65.988L174.194,65.988Z" style="fill:white;fill-rule:nonzero;"/>
            <path d="M180.63,67.9C180.837,67.9 181.013,67.875 181.158,67.822C181.304,67.769 181.423,67.697 181.517,67.603C181.61,67.511 181.677,67.402 181.719,67.277C181.761,67.153 181.782,67.019 181.782,66.875C181.782,66.587 181.689,66.361 181.501,66.2C181.314,66.038 181.023,65.957 180.63,65.957L180.018,65.957L180.018,67.9L180.63,67.9ZM183.86,71.375L182.484,71.375C182.229,71.375 182.046,71.278 181.935,71.087L180.846,69.184C180.795,69.102 180.738,69.043 180.675,69.006C180.611,68.968 180.522,68.949 180.405,68.949L180.018,68.949L180.018,71.375L178.497,71.375L178.497,64.818L180.63,64.818C181.104,64.818 181.508,64.867 181.843,64.965C182.177,65.062 182.45,65.198 182.661,65.372C182.873,65.546 183.027,65.751 183.123,65.988C183.219,66.226 183.267,66.483 183.267,66.763C183.267,66.976 183.238,67.176 183.182,67.365C183.124,67.555 183.04,67.729 182.93,67.89C182.818,68.05 182.681,68.193 182.518,68.319C182.355,68.445 182.166,68.549 181.953,68.63C182.052,68.681 182.145,68.744 182.232,68.821C182.318,68.897 182.397,68.988 182.466,69.093L183.86,71.375Z" style="fill:white;fill-rule:nonzero;"/>
            <path d="M190.736,64.818L188.109,71.375L186.732,71.375L184.104,64.818L185.328,64.818C185.46,64.818 185.567,64.849 185.648,64.91C185.729,64.972 185.79,65.051 185.832,65.146L187.101,68.657C187.161,68.81 187.219,68.977 187.277,69.158C187.333,69.34 187.387,69.529 187.439,69.727C187.481,69.529 187.527,69.34 187.58,69.158C187.633,68.977 187.689,68.81 187.749,68.657L189.009,65.146C189.042,65.062 189.101,64.987 189.187,64.92C189.272,64.852 189.378,64.818 189.504,64.818L190.736,64.818Z" style="fill:white;fill-rule:nonzero;"/>
            <rect x="191.93" y="64.818" width="1.529" height="6.557" style="fill:white;"/>
            <path d="M199.822,69.679C199.859,69.679 199.895,69.685 199.93,69.698C199.966,69.712 200.001,69.735 200.033,69.769L200.637,70.402C200.372,70.748 200.042,71.008 199.645,71.184C199.247,71.359 198.777,71.446 198.234,71.446C197.735,71.446 197.289,71.362 196.895,71.192C196.5,71.023 196.166,70.789 195.892,70.49C195.617,70.192 195.406,69.838 195.259,69.429C195.112,69.019 195.038,68.574 195.038,68.095C195.038,67.605 195.118,67.156 195.277,66.746C195.436,66.337 195.659,65.983 195.947,65.686C196.235,65.39 196.58,65.159 196.983,64.994C197.385,64.829 197.827,64.746 198.31,64.746C198.556,64.746 198.788,64.768 199.005,64.811C199.223,64.855 199.426,64.915 199.615,64.991C199.804,65.068 199.978,65.16 200.137,65.269C200.296,65.376 200.437,65.493 200.56,65.619L200.047,66.308C200.014,66.35 199.975,66.388 199.93,66.423C199.885,66.457 199.822,66.475 199.741,66.475C199.688,66.475 199.636,66.462 199.588,66.438C199.54,66.414 199.489,66.385 199.435,66.351C199.381,66.316 199.322,66.278 199.257,66.238C199.193,66.197 199.116,66.16 199.027,66.126C198.94,66.091 198.836,66.061 198.718,66.038C198.599,66.014 198.46,66.002 198.301,66.002C198.049,66.002 197.818,66.048 197.61,66.142C197.402,66.234 197.222,66.37 197.07,66.549C196.919,66.727 196.802,66.946 196.72,67.205C196.637,67.465 196.596,67.762 196.596,68.095C196.596,68.431 196.642,68.728 196.733,68.99C196.824,69.251 196.949,69.471 197.107,69.649C197.264,69.827 197.447,69.963 197.657,70.057C197.867,70.149 198.093,70.195 198.333,70.195C198.471,70.195 198.597,70.189 198.711,70.176C198.824,70.162 198.931,70.14 199.03,70.108C199.129,70.076 199.222,70.034 199.309,69.982C199.397,69.93 199.485,69.862 199.574,69.782C199.61,69.752 199.65,69.727 199.692,69.707C199.734,69.688 199.777,69.679 199.822,69.679Z" style="fill:white;fill-rule:nonzero;"/>
            <path d="M203.507,65.988L203.507,67.519L205.568,67.519L205.568,68.644L203.507,68.644L203.507,70.205L206.198,70.205L206.198,71.375L201.978,71.375L201.978,64.818L206.198,64.818L206.198,65.988L203.507,65.988Z" style="fill:white;fill-rule:nonzero;"/>
            <path d="M211.432,66.15C211.387,66.223 211.34,66.276 211.29,66.312C211.24,66.349 211.177,66.366 211.099,66.366C211.029,66.366 210.955,66.345 210.876,66.301C210.797,66.258 210.706,66.209 210.607,66.154C210.506,66.101 210.391,66.052 210.262,66.009C210.133,65.965 209.985,65.943 209.821,65.943C209.536,65.943 209.323,66.004 209.184,66.126C209.045,66.247 208.975,66.411 208.975,66.618C208.975,66.75 209.017,66.859 209.101,66.946C209.185,67.034 209.295,67.108 209.432,67.172C209.568,67.234 209.724,67.293 209.9,67.345C210.075,67.397 210.254,67.456 210.438,67.52C210.62,67.585 210.8,67.661 210.975,67.748C211.151,67.835 211.307,67.945 211.443,68.081C211.579,68.216 211.69,68.38 211.774,68.573C211.858,68.767 211.9,69 211.9,69.273C211.9,69.576 211.848,69.859 211.742,70.124C211.638,70.388 211.485,70.618 211.285,70.814C211.086,71.011 210.84,71.165 210.548,71.278C210.255,71.391 209.923,71.446 209.551,71.446C209.347,71.446 209.139,71.426 208.928,71.384C208.716,71.342 208.512,71.282 208.314,71.206C208.115,71.13 207.93,71.039 207.755,70.934C207.581,70.829 207.43,70.712 207.301,70.583L207.751,69.872C207.787,69.82 207.834,69.778 207.893,69.743C207.951,69.709 208.015,69.691 208.084,69.691C208.174,69.691 208.265,69.721 208.357,69.777C208.447,69.834 208.551,69.897 208.667,69.966C208.782,70.035 208.915,70.099 209.065,70.155C209.215,70.212 209.392,70.241 209.596,70.241C209.872,70.241 210.086,70.18 210.239,70.059C210.393,69.936 210.469,69.744 210.469,69.48C210.469,69.327 210.427,69.203 210.343,69.106C210.259,69.011 210.149,68.932 210.012,68.868C209.876,68.806 209.721,68.75 209.546,68.702C209.372,68.653 209.193,68.601 209.011,68.542C208.828,68.483 208.65,68.411 208.476,68.326C208.302,68.24 208.147,68.128 208.01,67.988C207.873,67.849 207.763,67.675 207.679,67.467C207.595,67.258 207.553,67.001 207.553,66.694C207.553,66.449 207.603,66.209 207.701,65.975C207.801,65.741 207.945,65.532 208.138,65.35C208.33,65.166 208.566,65.02 208.845,64.91C209.123,64.801 209.443,64.746 209.803,64.746C210.004,64.746 210.199,64.762 210.39,64.794C210.58,64.825 210.762,64.871 210.933,64.933C211.104,64.994 211.263,65.068 211.411,65.153C211.56,65.239 211.693,65.336 211.81,65.443L211.432,66.15Z" style="fill:white;fill-rule:nonzero;"/>
            <path d="M188.331,2.344L170.331,11.736L170.331,32.52L188.331,41.912L206.331,32.52L206.331,11.736L188.331,2.344Z" style="fill:rgb(189,190,192);fill-rule:nonzero;"/>
            <path d="M188.331,41.912L206.331,32.52L206.331,11.736L188.331,2.344L188.331,41.912Z" style="fill:rgb(162,162,163);fill-rule:nonzero;"/>
            <path d="M193.214,26.617C192.112,27.843 190.522,28.621 188.746,28.632C188.734,28.632 188.721,28.634 188.709,28.634C186.935,28.634 185.345,27.868 184.236,26.654C183.252,25.576 182.647,24.146 182.647,22.572C182.647,19.224 185.361,16.51 188.709,16.51C192.057,16.51 194.771,19.224 194.771,22.572C194.771,24.128 194.179,25.542 193.215,26.616M197.972,23.266L199.65,22.572L199.527,20.941L197.765,20.505L197.356,19.178L198.566,17.825L197.749,16.409L195.971,16.78L195.027,15.763L195.53,14.018L194.179,13.097L192.739,14.203L191.447,13.696L191.143,11.905L189.526,11.662L188.709,13.283L187.324,13.387L186.274,11.905L184.712,12.387L184.678,14.203L183.476,14.897L181.887,14.018L180.689,15.13L181.446,16.78L180.664,17.927L178.851,17.825L178.254,19.347L179.652,20.505L179.445,21.878L177.768,22.572L177.89,24.203L179.652,24.639L180.062,25.966L178.851,27.319L179.669,28.735L181.446,28.364L182.39,29.381L181.887,31.126L183.238,32.047L184.678,30.941L185.971,31.448L186.274,33.238L187.891,33.482L188.709,31.861L190.093,31.757L191.143,33.238L192.706,32.756L192.739,30.941L193.942,30.247L195.53,31.126L196.729,30.014L195.971,28.364L196.753,27.216L198.566,27.319L199.163,25.797L197.765,24.639L197.972,23.266Z" style="fill:white;fill-rule:nonzero;"/>
            <path d="M23.136,21.964C22.017,21.964 20.955,22.256 19.953,22.839C18.95,23.423 18.167,24.208 17.604,25.197C17.041,26.185 16.759,27.286 16.759,28.501C16.759,30.299 17.383,31.817 18.629,33.056C19.875,34.295 21.378,34.914 23.136,34.914C24.311,34.914 25.398,34.629 26.397,34.06C27.396,33.49 28.175,32.711 28.735,31.723C29.295,30.735 29.575,29.637 29.575,28.429C29.575,27.228 29.295,26.142 28.735,25.171C28.175,24.2 27.387,23.423 26.371,22.839C25.355,22.256 24.277,21.964 23.136,21.964ZM23.07,20.494C25.361,20.494 27.279,21.258 28.822,22.787C30.366,24.316 31.138,26.199 31.138,28.434C31.138,30.649 30.368,32.528 28.828,34.071C27.287,35.613 25.409,36.385 23.193,36.385C20.949,36.385 19.055,35.617 17.511,34.081C15.967,32.545 15.196,30.687 15.196,28.506C15.196,27.053 15.547,25.705 16.251,24.464C16.954,23.223 17.913,22.251 19.127,21.548C20.342,20.845 21.656,20.494 23.07,20.494Z" style="fill:white;fill-rule:nonzero;"/>
            <path d="M35.239,36.508L35.239,20.439L35.59,20.439L46.284,32.757L46.284,20.439L47.868,20.439L47.868,36.508L47.508,36.508L36.9,24.34L36.9,36.508L35.239,36.508Z" style="fill:white;fill-rule:nonzero;"/>
            <rect x="52.223" y="20.433" width="1.503" height="16.045" style="fill:white;"/>
            <path d="M102.926,30.146L105.066,24.67L107.194,30.146L102.926,30.146ZM106.587,20.441L103.507,20.441L99.171,32.04L107.892,32.074L109.566,36.424L112.722,36.424L106.587,20.441Z" style="fill:white;fill-rule:nonzero;"/>
            <path d="M116.002,20.441L119.038,20.441L119.038,33.497L125.091,33.497L125.091,36.392L116.002,36.392L116.002,20.441Z" style="fill:white;fill-rule:nonzero;"/>
            <path d="M128.317,20.441L131.353,20.441L131.353,33.497L137.406,33.497L137.406,36.392L128.317,36.392L128.317,20.441Z" style="fill:white;fill-rule:nonzero;"/>
            <path d="M103.893,43.144C103.893,43.144 96.465,40.47 94.827,36.02C92.994,31.039 99.792,29.902 106.747,30.1C110.494,30.206 115.074,30.776 115.074,30.776C115.074,30.776 104.254,32.154 100.343,35.31C96.525,38.391 103.893,43.144 103.893,43.144Z" style="fill:rgb(243,109,35);fill-rule:nonzero;"/>
            <path d="M71.634,32.61C70.216,34.211 68.465,35.013 66.379,35.013C64.442,35.013 62.838,34.393 61.566,33.152C60.295,31.912 59.659,30.364 59.659,28.51C59.659,27.284 59.943,26.179 60.511,25.197C61.08,24.214 61.882,23.433 62.915,22.85C63.949,22.268 65.072,21.976 66.286,21.976C67.395,21.976 68.413,22.198 69.341,22.643C70.227,23.068 70.99,23.686 71.634,24.492L71.634,22.433C71.175,22.052 70.668,21.593 70.111,21.32C68.966,20.758 67.684,20.477 66.265,20.477C63.915,20.477 61.959,21.237 60.398,22.757C58.837,24.277 58.056,26.149 58.056,28.376C58.056,30.492 58.7,32.298 59.989,33.793C61.527,35.564 63.625,36.45 66.286,36.45C67.684,36.45 68.951,36.186 70.085,35.659C70.648,35.397 71.164,34.951 71.634,34.581L71.634,32.61Z" style="fill:white;fill-rule:nonzero;"/>
            <path d="M7.001,27.707C3.381,26.966 2.695,26.022 2.695,24.54L2.695,24.496C2.695,22.927 4.191,21.789 6.251,21.789C7.977,21.789 9.345,22.306 10.69,23.467L10.816,23.576L10.847,23.538L10.847,21.764C9.457,20.835 8.08,20.443 6.295,20.443C3.414,20.443 1.241,22.232 1.241,24.605L1.241,24.648C1.241,27.047 2.765,28.334 6.502,29.09C10.011,29.796 10.677,30.718 10.677,32.171L10.677,32.215C10.677,33.898 9.161,35.075 6.99,35.075C4.874,35.075 3.374,34.453 1.643,32.856L1.521,32.744L1.493,32.775L1.493,34.605C3.152,35.853 4.864,36.42 6.925,36.42C9.99,36.42 12.131,34.646 12.131,32.106L12.131,32.062C12.131,29.743 10.597,28.44 7.001,27.707Z" style="fill:white;fill-rule:nonzero;"/>
            <path d="M94.59,20.44L90.943,31.292L90.864,31.526L90.787,31.292L87.193,20.394L84.274,20.394L80.679,31.292L80.602,31.526L80.524,31.292L76.877,20.44L73.256,20.44L79.026,36.467L81.993,36.467L85.61,26.016L85.687,25.791L85.765,26.016L89.382,36.467L92.349,36.467L98.118,20.44L94.59,20.44Z" style="fill:white;fill-rule:nonzero;"/>
            <path d="M15.347,57.485C15.563,57.858 15.842,58.135 16.185,58.317C16.529,58.498 16.92,58.59 17.358,58.59C17.632,58.59 17.887,58.549 18.128,58.466C18.368,58.383 18.576,58.267 18.755,58.118C18.932,57.969 19.073,57.789 19.176,57.579C19.28,57.367 19.332,57.129 19.332,56.864C19.332,56.559 19.267,56.306 19.139,56.107C19.011,55.909 18.839,55.746 18.624,55.617C18.409,55.489 18.167,55.379 17.898,55.288C17.629,55.197 17.352,55.106 17.067,55.016C16.781,54.924 16.504,54.821 16.235,54.705C15.966,54.589 15.724,54.438 15.509,54.252C15.294,54.066 15.122,53.832 14.994,53.551C14.865,53.269 14.801,52.922 14.801,52.508C14.801,52.119 14.878,51.773 15.031,51.472C15.184,51.169 15.391,50.917 15.652,50.714C15.912,50.512 16.212,50.359 16.551,50.255C16.891,50.152 17.246,50.101 17.619,50.101C18.098,50.101 18.544,50.186 18.953,50.354C19.362,50.524 19.716,50.808 20.014,51.205L19.307,51.713C19.1,51.424 18.858,51.207 18.581,51.062C18.303,50.917 17.974,50.845 17.594,50.845C17.329,50.845 17.077,50.88 16.837,50.951C16.597,51.02 16.388,51.124 16.21,51.261C16.032,51.397 15.889,51.569 15.782,51.776C15.675,51.983 15.621,52.227 15.621,52.508C15.621,52.947 15.732,53.284 15.956,53.519C16.179,53.755 16.458,53.942 16.794,54.078C17.129,54.215 17.492,54.334 17.885,54.438C18.279,54.541 18.643,54.68 18.978,54.854C19.313,55.027 19.592,55.269 19.816,55.58C20.039,55.89 20.151,56.318 20.151,56.864C20.151,57.262 20.076,57.614 19.927,57.919C19.779,58.226 19.578,58.484 19.325,58.695C19.073,58.906 18.781,59.066 18.45,59.173C18.119,59.28 17.776,59.334 17.42,59.334C16.841,59.334 16.307,59.233 15.819,59.03C15.331,58.828 14.913,58.486 14.566,58.006L15.347,57.485Z" style="fill:white;fill-rule:nonzero;"/>
            <path d="M31.259,55.76C31.259,55.504 31.208,55.263 31.104,55.04C31.001,54.816 30.86,54.62 30.682,54.45C30.504,54.281 30.293,54.146 30.049,54.047C29.805,53.948 29.547,53.898 29.274,53.898C28.868,53.898 28.53,53.981 28.262,54.146C27.993,54.312 27.78,54.502 27.623,54.717C27.466,54.933 27.354,55.142 27.288,55.344C27.221,55.547 27.188,55.686 27.188,55.76L31.259,55.76ZM31.83,58.031C31.541,58.47 31.183,58.785 30.757,58.974C30.33,59.165 29.861,59.26 29.348,59.26C28.909,59.26 28.512,59.185 28.156,59.037C27.8,58.888 27.494,58.679 27.238,58.41C26.982,58.141 26.785,57.822 26.648,57.454C26.512,57.086 26.444,56.679 26.444,56.231C26.444,55.801 26.514,55.404 26.654,55.04C26.795,54.676 26.994,54.359 27.25,54.091C27.507,53.822 27.809,53.611 28.156,53.457C28.504,53.304 28.889,53.228 29.311,53.228C29.749,53.228 30.136,53.304 30.471,53.457C30.806,53.611 31.088,53.813 31.315,54.066C31.543,54.318 31.715,54.606 31.83,54.929C31.946,55.251 32.004,55.578 32.004,55.909L32.004,56.43L27.188,56.43C27.188,56.587 27.219,56.788 27.281,57.032C27.343,57.276 27.457,57.514 27.623,57.746C27.788,57.977 28.009,58.176 28.287,58.341C28.564,58.507 28.922,58.59 29.361,58.59C29.741,58.59 30.109,58.498 30.465,58.317C30.821,58.135 31.093,57.887 31.284,57.572L31.83,58.031Z" style="fill:white;fill-rule:nonzero;"/>
            <path d="M43.435,58.267C43.154,58.606 42.835,58.856 42.479,59.018C42.123,59.179 41.738,59.26 41.325,59.26C40.886,59.26 40.481,59.185 40.109,59.037C39.737,58.888 39.418,58.679 39.153,58.41C38.888,58.141 38.681,57.822 38.532,57.454C38.383,57.086 38.309,56.683 38.309,56.244C38.309,55.805 38.383,55.402 38.532,55.034C38.681,54.666 38.888,54.347 39.153,54.078C39.418,53.81 39.737,53.6 40.109,53.451C40.481,53.302 40.886,53.228 41.325,53.228C41.747,53.228 42.138,53.315 42.498,53.489C42.858,53.663 43.178,53.906 43.46,54.221L42.864,54.668C42.649,54.428 42.413,54.24 42.156,54.103C41.9,53.966 41.623,53.898 41.325,53.898C40.978,53.898 40.663,53.96 40.382,54.084C40.1,54.208 39.861,54.376 39.662,54.587C39.463,54.798 39.312,55.046 39.209,55.331C39.106,55.617 39.054,55.921 39.054,56.244C39.054,56.567 39.106,56.871 39.209,57.156C39.312,57.441 39.463,57.69 39.662,57.901C39.861,58.112 40.1,58.279 40.382,58.404C40.663,58.528 40.978,58.59 41.325,58.59C41.639,58.59 41.927,58.517 42.188,58.373C42.448,58.228 42.674,58.036 42.864,57.795L43.435,58.267Z" style="fill:white;fill-rule:nonzero;"/>
            <path d="M54.419,57.498C54.419,57.605 54.423,57.735 54.431,57.889C54.44,58.041 54.446,58.197 54.45,58.354C54.454,58.511 54.46,58.658 54.468,58.794C54.477,58.931 54.481,59.037 54.481,59.111L53.737,59.111C53.728,58.896 53.722,58.689 53.718,58.491C53.714,58.292 53.703,58.164 53.687,58.105L53.65,58.105C53.501,58.42 53.252,58.691 52.905,58.919C52.557,59.146 52.152,59.26 51.689,59.26C51.242,59.26 50.876,59.189 50.59,59.049C50.305,58.908 50.081,58.724 49.92,58.497C49.758,58.269 49.649,58.006 49.591,57.709C49.533,57.411 49.504,57.104 49.504,56.79L49.504,53.377L50.249,53.377L50.249,56.753C50.249,56.984 50.269,57.21 50.311,57.43C50.352,57.648 50.425,57.845 50.528,58.019C50.632,58.192 50.776,58.331 50.963,58.435C51.149,58.538 51.391,58.59 51.689,58.59C51.962,58.59 52.22,58.542 52.464,58.447C52.708,58.352 52.919,58.207 53.097,58.013C53.275,57.818 53.416,57.574 53.519,57.28C53.622,56.986 53.674,56.641 53.674,56.244L53.674,53.377L54.419,53.377L54.419,57.498Z" style="fill:white;fill-rule:nonzero;"/>
            <path d="M61.431,54.991C61.431,54.883 61.427,54.753 61.419,54.599C61.411,54.446 61.404,54.291 61.401,54.134C61.396,53.977 61.39,53.83 61.382,53.693C61.374,53.557 61.369,53.451 61.369,53.377L62.114,53.377C62.122,53.592 62.129,53.799 62.133,53.997C62.137,54.196 62.147,54.325 62.164,54.382C62.354,54.043 62.598,53.766 62.896,53.551C63.194,53.336 63.558,53.228 63.988,53.228C64.063,53.228 64.135,53.234 64.206,53.247C64.276,53.259 64.348,53.273 64.423,53.29L64.336,54.022C64.237,53.989 64.141,53.973 64.05,53.973C63.728,53.973 63.448,54.024 63.213,54.127C62.977,54.231 62.782,54.374 62.629,54.556C62.476,54.738 62.362,54.951 62.288,55.195C62.214,55.439 62.176,55.702 62.176,55.983L62.176,59.111L61.431,59.111L61.431,54.991Z" style="fill:white;fill-rule:nonzero;"/>
            <path d="M74.799,55.76C74.799,55.504 74.747,55.263 74.644,55.04C74.54,54.816 74.4,54.62 74.222,54.45C74.044,54.281 73.833,54.146 73.589,54.047C73.345,53.948 73.086,53.898 72.813,53.898C72.407,53.898 72.07,53.981 71.801,54.146C71.532,54.312 71.32,54.502 71.162,54.717C71.005,54.933 70.893,55.142 70.827,55.344C70.761,55.547 70.728,55.686 70.728,55.76L74.799,55.76ZM75.37,58.031C75.08,58.47 74.723,58.785 74.297,58.974C73.87,59.165 73.401,59.26 72.888,59.26C72.449,59.26 72.052,59.185 71.696,59.037C71.34,58.888 71.034,58.679 70.778,58.41C70.521,58.141 70.324,57.822 70.188,57.454C70.051,57.086 69.983,56.679 69.983,56.231C69.983,55.801 70.053,55.404 70.194,55.04C70.335,54.676 70.533,54.359 70.79,54.091C71.046,53.822 71.348,53.611 71.696,53.457C72.044,53.304 72.428,53.228 72.85,53.228C73.289,53.228 73.675,53.304 74.011,53.457C74.346,53.611 74.627,53.813 74.855,54.066C75.082,54.318 75.254,54.606 75.37,54.929C75.486,55.251 75.544,55.578 75.544,55.909L75.544,56.43L70.728,56.43C70.728,56.587 70.759,56.788 70.821,57.032C70.883,57.276 70.997,57.514 71.162,57.746C71.328,57.977 71.549,58.176 71.826,58.341C72.104,58.507 72.462,58.59 72.9,58.59C73.281,58.59 73.649,58.498 74.005,58.317C74.361,58.135 74.633,57.887 74.823,57.572L75.37,58.031Z" style="fill:white;fill-rule:nonzero;"/>
            <path d="M82.383,50.324L87.645,50.324L87.645,51.069L83.202,51.069L83.202,54.196L87.335,54.196L87.335,54.941L83.202,54.941L83.202,59.111L82.383,59.111L82.383,50.324Z" style="fill:white;fill-rule:nonzero;"/>
            <path d="M94.161,53.377L94.905,53.377L94.905,59.111L94.161,59.111L94.161,53.377ZM93.975,51.105C93.975,50.948 94.029,50.816 94.136,50.708C94.243,50.601 94.376,50.547 94.533,50.547C94.691,50.547 94.823,50.601 94.931,50.708C95.038,50.816 95.092,50.948 95.092,51.105C95.092,51.263 95.038,51.395 94.931,51.503C94.823,51.61 94.691,51.664 94.533,51.664C94.376,51.664 94.243,51.61 94.136,51.503C94.029,51.395 93.975,51.263 93.975,51.105Z" style="fill:white;fill-rule:nonzero;"/>
            <path d="M101.981,54.991C101.981,54.883 101.977,54.753 101.968,54.599C101.96,54.446 101.954,54.291 101.95,54.134C101.945,53.977 101.939,53.83 101.931,53.693C101.923,53.557 101.919,53.451 101.919,53.377L102.663,53.377C102.672,53.592 102.677,53.799 102.682,53.997C102.686,54.196 102.696,54.325 102.713,54.382C102.903,54.043 103.147,53.766 103.445,53.551C103.743,53.336 104.107,53.228 104.537,53.228C104.611,53.228 104.684,53.234 104.755,53.247C104.825,53.259 104.897,53.273 104.972,53.29L104.885,54.022C104.785,53.989 104.691,53.973 104.6,53.973C104.277,53.973 103.998,54.024 103.762,54.127C103.526,54.231 103.332,54.374 103.178,54.556C103.025,54.738 102.911,54.951 102.837,55.195C102.762,55.439 102.725,55.702 102.725,55.983L102.725,59.111L101.981,59.111L101.981,54.991Z" style="fill:white;fill-rule:nonzero;"/>
            <path d="M111.091,57.646C111.248,57.953 111.48,58.186 111.786,58.348C112.091,58.509 112.414,58.59 112.754,58.59C112.911,58.59 113.068,58.565 113.226,58.515C113.382,58.466 113.524,58.395 113.647,58.304C113.772,58.213 113.873,58.103 113.951,57.976C114.03,57.847 114.069,57.701 114.069,57.535C114.069,57.27 113.985,57.071 113.815,56.939C113.645,56.807 113.437,56.703 113.188,56.629C112.94,56.554 112.667,56.49 112.369,56.436C112.071,56.382 111.798,56.3 111.55,56.188C111.301,56.077 111.092,55.921 110.923,55.723C110.754,55.524 110.669,55.243 110.669,54.878C110.669,54.598 110.727,54.353 110.842,54.146C110.958,53.94 111.11,53.768 111.295,53.631C111.482,53.495 111.69,53.394 111.922,53.327C112.154,53.261 112.39,53.228 112.63,53.228C113.101,53.228 113.509,53.315 113.852,53.489C114.195,53.663 114.463,53.936 114.652,54.308L113.983,54.705C113.841,54.44 113.666,54.24 113.455,54.103C113.244,53.966 112.969,53.898 112.63,53.898C112.497,53.898 112.359,53.919 112.214,53.96C112.069,54.002 111.939,54.06 111.823,54.134C111.707,54.208 111.61,54.304 111.531,54.419C111.452,54.536 111.413,54.668 111.413,54.816C111.413,55.073 111.498,55.263 111.668,55.388C111.837,55.512 112.046,55.609 112.295,55.679C112.543,55.749 112.816,55.81 113.114,55.859C113.411,55.909 113.685,55.99 113.933,56.101C114.181,56.213 114.39,56.374 114.56,56.585C114.729,56.796 114.814,57.096 114.814,57.485C114.814,57.783 114.758,58.041 114.647,58.261C114.534,58.48 114.381,58.664 114.187,58.813C113.993,58.962 113.772,59.074 113.524,59.148C113.275,59.223 113.014,59.26 112.741,59.26C112.245,59.26 111.792,59.165 111.382,58.974C110.972,58.785 110.656,58.491 110.433,58.094L111.091,57.646Z" style="fill:white;fill-rule:nonzero;"/>
            <path d="M124.135,54.047L122.497,54.047L122.497,57.783C122.497,58.04 122.567,58.238 122.708,58.379C122.848,58.52 123.043,58.59 123.291,58.59C123.432,58.59 123.574,58.571 123.719,58.534C123.864,58.497 124.003,58.449 124.135,58.391L124.197,59.061C124.056,59.111 123.895,59.157 123.714,59.198C123.531,59.239 123.37,59.26 123.229,59.26C122.965,59.26 122.736,59.221 122.547,59.142C122.356,59.064 122.203,58.958 122.087,58.826C121.972,58.693 121.887,58.538 121.833,58.36C121.779,58.183 121.753,57.99 121.753,57.783L121.753,54.047L120.511,54.047L120.511,53.377L121.753,53.377L121.753,51.726L122.497,51.726L122.497,53.377L124.135,53.377L124.135,54.047Z" style="fill:white;fill-rule:nonzero;"/>
            <path d="M4.274,54.732C4.274,55.533 3.625,56.182 2.824,56.182C2.024,56.182 1.375,55.533 1.375,54.732C1.375,53.932 2.024,53.283 2.824,53.283C3.625,53.283 4.274,53.932 4.274,54.732Z" style="fill:rgb(243,109,35);fill-rule:nonzero;"/>
            <path d="M137.327,54.732C137.327,55.533 136.678,56.182 135.878,56.182C135.078,56.182 134.429,55.533 134.429,54.732C134.429,53.932 135.078,53.283 135.878,53.283C136.678,53.283 137.327,53.932 137.327,54.732Z" style="fill:rgb(243,109,35);fill-rule:nonzero;"/>
            <path d="M139.572,21.518C139.647,21.518 139.707,21.512 139.753,21.5C139.799,21.488 139.836,21.47 139.862,21.445C139.889,21.421 139.907,21.392 139.917,21.355C139.927,21.32 139.932,21.279 139.932,21.234C139.932,21.189 139.928,21.151 139.92,21.117C139.911,21.083 139.895,21.056 139.871,21.034C139.848,21.012 139.815,20.995 139.774,20.984C139.733,20.974 139.679,20.968 139.613,20.968L139.384,20.968L139.384,21.518L139.572,21.518ZM139.613,20.622C139.88,20.622 140.075,20.67 140.199,20.766C140.323,20.861 140.385,20.998 140.385,21.176C140.385,21.303 140.353,21.414 140.287,21.509C140.221,21.603 140.12,21.672 139.981,21.715C140.013,21.735 140.04,21.759 140.061,21.787C140.084,21.814 140.105,21.847 140.125,21.884L140.511,22.54L140.073,22.54C140.009,22.54 139.964,22.517 139.939,22.47L139.631,21.907C139.616,21.888 139.6,21.872 139.582,21.861C139.565,21.851 139.538,21.845 139.502,21.845L139.384,21.845L139.384,22.54L138.925,22.54L138.925,20.622L139.613,20.622ZM139.622,22.911C139.743,22.911 139.859,22.895 139.97,22.864C140.082,22.832 140.185,22.788 140.282,22.731C140.378,22.674 140.465,22.606 140.545,22.526C140.624,22.446 140.692,22.357 140.747,22.258C140.802,22.16 140.846,22.054 140.877,21.942C140.907,21.829 140.923,21.71 140.923,21.587C140.923,21.463 140.907,21.344 140.877,21.229C140.846,21.115 140.802,21.009 140.747,20.91C140.692,20.811 140.624,20.721 140.545,20.64C140.465,20.56 140.378,20.49 140.282,20.433C140.185,20.375 140.082,20.33 139.97,20.299C139.859,20.268 139.743,20.252 139.622,20.252C139.501,20.252 139.385,20.268 139.276,20.299C139.166,20.33 139.063,20.375 138.967,20.433C138.872,20.49 138.785,20.56 138.708,20.64C138.63,20.721 138.563,20.811 138.507,20.91C138.452,21.009 138.409,21.115 138.379,21.229C138.349,21.344 138.334,21.463 138.334,21.587C138.334,21.772 138.367,21.945 138.434,22.106C138.5,22.268 138.591,22.408 138.706,22.527C138.822,22.646 138.958,22.74 139.115,22.808C139.272,22.876 139.441,22.911 139.622,22.911ZM139.622,20.006C139.767,20.006 139.907,20.025 140.042,20.062C140.177,20.101 140.303,20.153 140.42,20.222C140.537,20.29 140.643,20.373 140.739,20.469C140.836,20.565 140.918,20.672 140.986,20.789C141.055,20.906 141.108,21.032 141.146,21.166C141.184,21.301 141.203,21.441 141.203,21.587C141.203,21.731 141.184,21.87 141.146,22.005C141.108,22.14 141.055,22.265 140.986,22.381C140.918,22.498 140.836,22.603 140.739,22.7C140.643,22.796 140.537,22.879 140.42,22.947C140.303,23.016 140.177,23.069 140.042,23.106C139.907,23.144 139.767,23.163 139.622,23.163C139.477,23.163 139.337,23.144 139.203,23.106C139.068,23.069 138.943,23.016 138.827,22.947C138.711,22.879 138.605,22.796 138.509,22.7C138.412,22.603 138.33,22.498 138.261,22.381C138.193,22.265 138.14,22.14 138.102,22.006C138.065,21.872 138.046,21.732 138.046,21.587C138.046,21.441 138.065,21.301 138.102,21.166C138.14,21.032 138.193,20.906 138.261,20.789C138.33,20.672 138.412,20.565 138.509,20.469C138.605,20.373 138.711,20.29 138.827,20.222C138.943,20.153 139.068,20.101 139.203,20.062C139.337,20.025 139.477,20.006 139.622,20.006Z" style="fill:white;fill-rule:nonzero;"/>
            <g transform="matrix(0.555788,0,0,0.555788,-4.36357,5.36302)">
                <path d="M10.084,72.183L255.992,72.183" style="fill:white;stroke:white;stroke-width:0.89px;stroke-linecap:round;"/>
            </g>
        </g>
        <g transform="matrix(2.18595,0,0,2.18595,12.297,2.43565)">
            <path d="M375.831,64.415L320.344,64.415C318.245,64.415 316.365,63.331 315.316,61.513C314.266,59.696 314.266,57.525 315.315,55.707L343.059,7.654C344.108,5.836 345.988,4.751 348.087,4.751C350.185,4.75 352.066,5.835 353.116,7.654L380.859,55.707C381.908,57.524 381.908,59.695 380.859,61.512C379.81,63.331 377.93,64.415 375.831,64.415Z" style="fill:rgb(243,109,35);fill-rule:nonzero;"/>
            <path d="M347.774,4.751C349.874,4.75 351.754,5.835 352.803,7.654L380.547,55.707C381.595,57.524 381.595,59.695 380.547,61.512C379.498,63.331 377.618,64.415 375.518,64.415L347.074,64.415L347.774,4.751Z" style="fill:rgb(206,77,39);fill-rule:nonzero;"/>
            <path d="M347.794,44.602L346.95,44.602C345.595,44.602 344.498,43.124 344.498,41.3L343.503,25.154C343.503,23.331 344.98,21.852 346.804,21.852L347.94,21.852C349.763,21.852 351.242,23.331 351.242,25.154L350.247,41.3C350.247,43.124 349.149,44.602 347.794,44.602Z" style="fill:white;fill-rule:nonzero;"/>
            <path d="M350.785,50.672C350.785,52.557 349.257,54.084 347.372,54.084C345.487,54.084 343.96,52.557 343.96,50.672C343.96,48.788 345.487,47.259 347.372,47.259C349.257,47.259 350.785,48.788 350.785,50.672Z" style="fill:white;fill-rule:nonzero;"/>
            <path d="M333.491,69.401L333.491,90.745L329.126,90.745L329.126,78.469C329.126,78.187 329.134,77.879 329.147,77.546C329.162,77.214 329.188,76.878 329.228,76.536L323.558,87.507C323.384,87.849 323.146,88.109 322.847,88.284C322.551,88.458 322.212,88.547 321.83,88.547L321.156,88.547C320.776,88.547 320.436,88.458 320.139,88.284C319.841,88.109 319.603,87.849 319.428,87.507L313.759,76.507C313.789,76.857 313.813,77.202 313.833,77.54C313.852,77.875 313.861,78.187 313.861,78.469L313.861,90.745L309.496,90.745L309.496,69.401L313.276,69.401C313.49,69.401 313.678,69.407 313.84,69.417C314.001,69.426 314.144,69.457 314.271,69.503C314.398,69.553 314.513,69.629 314.616,69.732C314.719,69.834 314.819,69.978 314.917,70.164L320.41,80.989C320.604,81.36 320.794,81.746 320.973,82.147C321.154,82.546 321.327,82.957 321.494,83.375C321.66,82.946 321.833,82.527 322.013,82.117C322.194,81.707 322.387,81.316 322.592,80.945L328.07,70.164C328.168,69.978 328.268,69.834 328.371,69.732C328.473,69.629 328.589,69.553 328.716,69.503C328.842,69.457 328.986,69.426 329.147,69.417C329.308,69.407 329.496,69.401 329.712,69.401L333.491,69.401Z" style="fill:white;fill-rule:nonzero;"/>
            <path d="M350.146,73.738C350,73.971 349.845,74.149 349.684,74.265C349.524,74.381 349.315,74.44 349.062,74.44C348.838,74.44 348.595,74.37 348.338,74.228C348.078,74.086 347.786,73.927 347.459,73.752C347.13,73.578 346.757,73.418 346.338,73.277C345.917,73.135 345.438,73.065 344.902,73.065C343.974,73.065 343.283,73.261 342.828,73.657C342.376,74.053 342.147,74.586 342.147,75.26C342.147,75.692 342.284,76.047 342.557,76.331C342.832,76.613 343.19,76.857 343.635,77.062C344.078,77.267 344.588,77.457 345.159,77.626C345.729,77.797 346.313,77.989 346.909,78.199C347.505,78.408 348.088,78.655 348.659,78.938C349.23,79.221 349.738,79.583 350.183,80.022C350.627,80.462 350.986,80.996 351.26,81.625C351.532,82.256 351.67,83.015 351.67,83.905C351.67,84.891 351.499,85.814 351.157,86.673C350.814,87.533 350.319,88.282 349.671,88.92C349.02,89.56 348.219,90.064 347.267,90.43C346.315,90.796 345.233,90.98 344.023,90.98C343.358,90.98 342.683,90.911 341.994,90.775C341.306,90.637 340.639,90.444 339.994,90.195C339.35,89.946 338.744,89.651 338.178,89.309C337.611,88.968 337.118,88.586 336.698,88.167L338.164,85.853C338.281,85.687 338.434,85.547 338.626,85.435C338.815,85.323 339.023,85.266 339.248,85.266C339.54,85.266 339.835,85.36 340.134,85.545C340.43,85.731 340.768,85.936 341.145,86.161C341.52,86.385 341.953,86.59 342.441,86.776C342.929,86.961 343.506,87.053 344.17,87.053C345.068,87.053 345.766,86.855 346.263,86.461C346.762,86.065 347.012,85.437 347.012,84.578C347.012,84.08 346.874,83.674 346.601,83.362C346.327,83.048 345.969,82.79 345.524,82.585C345.081,82.38 344.575,82.2 344.008,82.044C343.442,81.887 342.86,81.713 342.264,81.523C341.669,81.333 341.089,81.098 340.521,80.821C339.955,80.541 339.45,80.175 339.006,79.721C338.562,79.267 338.203,78.701 337.929,78.022C337.655,77.343 337.519,76.507 337.519,75.51C337.519,74.708 337.679,73.927 338.002,73.167C338.325,72.405 338.799,71.726 339.423,71.13C340.047,70.535 340.814,70.059 341.723,69.702C342.632,69.346 343.672,69.167 344.844,69.167C345.498,69.167 346.135,69.219 346.755,69.322C347.376,69.424 347.963,69.575 348.519,69.776C349.076,69.976 349.596,70.214 350.081,70.494C350.563,70.772 350.995,71.086 351.377,71.438L350.146,73.738Z" style="fill:white;fill-rule:nonzero;"/>
            <path d="M367.11,73.738C366.964,73.971 366.809,74.149 366.649,74.265C366.488,74.381 366.279,74.44 366.026,74.44C365.802,74.44 365.559,74.37 365.302,74.228C365.042,74.086 364.75,73.927 364.423,73.752C364.095,73.578 363.721,73.418 363.302,73.277C362.882,73.135 362.402,73.065 361.866,73.065C360.938,73.065 360.247,73.261 359.793,73.657C359.34,74.053 359.112,74.586 359.112,75.26C359.112,75.692 359.248,76.047 359.522,76.331C359.796,76.613 360.155,76.857 360.598,77.062C361.043,77.267 361.552,77.457 362.123,77.626C362.694,77.797 363.277,77.989 363.873,78.199C364.469,78.408 365.053,78.655 365.624,78.938C366.194,79.221 366.702,79.583 367.147,80.022C367.592,80.462 367.95,80.996 368.224,81.625C368.497,82.256 368.635,83.015 368.635,83.905C368.635,84.891 368.463,85.814 368.122,86.673C367.778,87.533 367.284,88.282 366.635,88.92C365.984,89.56 365.183,90.064 364.232,90.43C363.279,90.796 362.197,90.98 360.988,90.98C360.323,90.98 359.647,90.911 358.958,90.775C358.27,90.637 357.603,90.444 356.959,90.195C356.315,89.946 355.709,89.651 355.142,89.309C354.575,88.968 354.082,88.586 353.663,88.167L355.129,85.853C355.245,85.687 355.399,85.547 355.59,85.435C355.779,85.323 355.988,85.266 356.212,85.266C356.504,85.266 356.8,85.36 357.098,85.545C357.395,85.731 357.732,85.936 358.109,86.161C358.484,86.385 358.917,86.59 359.405,86.776C359.893,86.961 360.47,87.053 361.135,87.053C362.033,87.053 362.731,86.855 363.227,86.461C363.726,86.065 363.975,85.437 363.975,84.578C363.975,84.08 363.838,83.674 363.565,83.362C363.292,83.048 362.932,82.79 362.489,82.585C362.045,82.38 361.539,82.2 360.971,82.044C360.406,81.887 359.824,81.713 359.228,81.523C358.633,81.333 358.053,81.098 357.485,80.821C356.92,80.541 356.414,80.175 355.97,79.721C355.526,79.267 355.168,78.701 354.893,78.022C354.619,77.343 354.483,76.507 354.483,75.51C354.483,74.708 354.644,73.927 354.966,73.167C355.289,72.405 355.763,71.726 356.387,71.13C357.012,70.535 357.779,70.059 358.687,69.702C359.596,69.346 360.636,69.167 361.808,69.167C362.462,69.167 363.098,69.219 363.72,69.322C364.34,69.424 364.927,69.575 365.484,69.776C366.041,69.976 366.56,70.214 367.045,70.494C367.527,70.772 367.959,71.086 368.341,71.438L367.11,73.738Z" style="fill:white;fill-rule:nonzero;"/>
            <path d="M379.81,79.875C381.098,79.875 382.027,79.568 382.593,78.953C383.159,78.336 383.443,77.478 383.443,76.374C383.443,75.886 383.369,75.443 383.222,75.041C383.077,74.642 382.854,74.297 382.555,74.008C382.259,73.72 381.883,73.498 381.428,73.342C380.975,73.187 380.434,73.107 379.81,73.107L377.232,73.107L377.232,79.875L379.81,79.875ZM379.81,69.401C381.313,69.401 382.605,69.58 383.683,69.937C384.764,70.292 385.651,70.784 386.35,71.408C387.049,72.034 387.564,72.771 387.895,73.62C388.227,74.47 388.393,75.388 388.393,76.374C388.393,77.439 388.222,78.416 387.881,79.304C387.54,80.193 387.016,80.956 386.314,81.59C385.611,82.225 384.72,82.72 383.641,83.077C382.561,83.432 381.285,83.611 379.81,83.611L377.232,83.611L377.232,90.745L372.28,90.745L372.28,69.401L379.81,69.401Z" style="fill:white;fill-rule:nonzero;"/>
            <path d="M49.362,29.734C47.334,29.734 45.413,30.262 43.598,31.319C41.783,32.374 40.365,33.797 39.345,35.586C38.326,37.375 37.816,39.37 37.816,41.569C37.816,44.824 38.945,47.573 41.201,49.815C43.457,52.058 46.178,53.179 49.362,53.179C51.488,53.179 53.455,52.664 55.265,51.633C57.074,50.602 58.485,49.191 59.498,47.402C60.512,45.614 61.019,43.625 61.019,41.438C61.019,39.264 60.512,37.298 59.498,35.54C58.485,33.782 57.058,32.374 55.218,31.319C53.377,30.262 51.426,29.734 49.362,29.734ZM49.241,27.072C53.389,27.072 56.862,28.456 59.657,31.224C62.451,33.993 63.849,37.4 63.849,41.448C63.849,45.457 62.454,48.859 59.665,51.653C56.877,54.446 53.476,55.842 49.464,55.842C45.402,55.842 41.973,54.453 39.178,51.671C36.382,48.89 34.986,45.526 34.986,41.578C34.986,38.947 35.621,36.506 36.895,34.26C38.168,32.013 39.905,30.253 42.104,28.98C44.302,27.707 46.681,27.072 49.241,27.072Z" style="fill:white;fill-rule:nonzero;"/>
            <path d="M71.274,56.066L71.274,26.973L71.907,26.973L91.269,49.274L91.269,26.973L94.137,26.973L94.137,56.066L93.484,56.066L74.281,34.037L74.281,56.066L71.274,56.066Z" style="fill:white;fill-rule:nonzero;"/>
            <rect x="102.021" y="26.96" width="2.722" height="29.051" style="fill:white;"/>
            <path d="M193.816,44.547L197.691,34.632L201.543,44.547L193.816,44.547ZM200.444,26.976L194.87,26.976L187.02,47.975L202.807,48.039L205.839,55.914L211.552,55.914L200.444,26.976Z" style="fill:white;fill-rule:nonzero;"/>
            <path d="M217.49,26.976L222.986,26.976L222.986,50.614L233.946,50.614L233.946,55.855L217.49,55.855L217.49,26.976Z" style="fill:white;fill-rule:nonzero;"/>
            <path d="M239.787,26.976L245.283,26.976L245.283,50.614L256.242,50.614L256.242,55.855L239.787,55.855L239.787,26.976Z" style="fill:white;fill-rule:nonzero;"/>
            <path d="M195.566,68.079C195.566,68.079 182.12,63.238 179.155,55.181C175.836,46.163 188.143,44.105 200.733,44.463C207.518,44.657 215.81,45.688 215.81,45.688C215.81,45.688 196.22,48.182 189.141,53.895C182.229,59.473 195.566,68.079 195.566,68.079Z" style="fill:rgb(243,109,35);fill-rule:nonzero;"/>
            <path d="M137.165,49.009C134.597,51.906 131.428,53.359 127.65,53.359C124.143,53.359 121.239,52.236 118.937,49.99C116.635,47.744 115.484,44.942 115.484,41.585C115.484,39.365 115.999,37.365 117.028,35.586C118.057,33.808 119.509,32.392 121.38,31.337C123.252,30.284 125.285,29.755 127.482,29.755C129.49,29.755 131.334,30.159 133.012,30.963C134.617,31.733 136,32.851 137.165,34.311L137.165,30.583C136.334,29.894 135.416,29.063 134.407,28.568C132.336,27.55 130.014,27.042 127.444,27.042C123.189,27.042 119.648,28.417 116.822,31.169C113.996,33.92 112.583,37.312 112.583,41.342C112.583,45.173 113.749,48.443 116.083,51.15C118.865,54.357 122.665,55.96 127.482,55.96C130.014,55.96 132.307,55.483 134.36,54.528C135.379,54.054 136.314,53.246 137.165,52.577L137.165,49.009Z" style="fill:white;fill-rule:nonzero;"/>
            <path d="M20.15,40.132C13.596,38.79 12.354,37.082 12.354,34.397L12.354,34.319C12.354,31.478 15.061,29.415 18.791,29.415C21.916,29.415 24.394,30.353 26.826,32.455L27.056,32.653L27.113,32.582L27.113,29.372C24.596,27.69 22.103,26.98 18.87,26.98C13.655,26.98 9.721,30.219 9.721,34.515L9.721,34.594C9.721,38.937 12.481,41.266 19.245,42.635C25.599,43.915 26.804,45.582 26.804,48.213L26.804,48.292C26.804,51.34 24.059,53.47 20.13,53.47C16.297,53.47 13.583,52.344 10.449,49.455L10.227,49.25L10.177,49.307L10.177,52.621C13.181,54.88 16.28,55.907 20.012,55.907C25.561,55.907 29.437,52.694 29.437,48.095L29.437,48.016C29.437,43.817 26.659,41.458 20.15,40.132Z" style="fill:white;fill-rule:nonzero;"/>
            <path d="M178.724,26.976L172.123,46.623L171.98,47.046L171.841,46.622L165.333,26.892L160.049,26.892L153.541,46.622L153.401,47.046L153.259,46.623L146.657,26.976L140.1,26.976L150.547,55.991L155.919,55.991L162.467,37.069L162.607,36.663L162.748,37.069L169.296,55.991L174.668,55.991L185.113,26.976L178.724,26.976Z" style="fill:white;fill-rule:nonzero;"/>
            <path d="M35.26,94.043C35.65,94.718 36.155,95.22 36.777,95.549C37.399,95.878 38.106,96.043 38.9,96.043C39.395,96.043 39.859,95.968 40.293,95.819C40.728,95.668 41.106,95.459 41.428,95.19C41.75,94.919 42.005,94.593 42.193,94.212C42.379,93.83 42.473,93.399 42.473,92.919C42.473,92.366 42.357,91.909 42.125,91.548C41.892,91.189 41.581,90.894 41.193,90.662C40.802,90.429 40.365,90.231 39.877,90.066C39.391,89.901 38.889,89.737 38.372,89.572C37.856,89.408 37.353,89.22 36.867,89.009C36.38,88.8 35.942,88.527 35.552,88.19C35.162,87.853 34.852,87.429 34.619,86.92C34.387,86.411 34.272,85.782 34.272,85.033C34.272,84.329 34.409,83.703 34.687,83.156C34.964,82.609 35.339,82.153 35.811,81.786C36.283,81.418 36.826,81.142 37.44,80.955C38.054,80.767 38.699,80.673 39.372,80.673C40.241,80.673 41.046,80.828 41.787,81.133C42.53,81.441 43.169,81.954 43.709,82.673L42.428,83.594C42.054,83.07 41.616,82.677 41.114,82.415C40.612,82.153 40.016,82.021 39.327,82.021C38.848,82.021 38.391,82.085 37.956,82.212C37.522,82.339 37.144,82.527 36.822,82.774C36.499,83.022 36.241,83.332 36.046,83.707C35.852,84.082 35.754,84.524 35.754,85.033C35.754,85.827 35.956,86.437 36.361,86.864C36.766,87.29 37.271,87.628 37.878,87.874C38.485,88.123 39.144,88.339 39.855,88.527C40.567,88.714 41.226,88.964 41.833,89.28C42.44,89.594 42.946,90.032 43.349,90.594C43.754,91.156 43.956,91.931 43.956,92.919C43.956,93.639 43.822,94.276 43.552,94.83C43.283,95.384 42.918,95.852 42.462,96.234C42.005,96.616 41.477,96.905 40.878,97.1C40.279,97.293 39.657,97.391 39.013,97.391C37.964,97.391 36.997,97.207 36.114,96.841C35.23,96.474 34.473,95.856 33.844,94.987L35.26,94.043Z" style="fill:white;fill-rule:nonzero;"/>
            <path d="M64.068,90.919C64.068,90.457 63.974,90.021 63.787,89.617C63.6,89.211 63.345,88.856 63.023,88.548C62.701,88.243 62.319,87.998 61.877,87.819C61.435,87.639 60.967,87.549 60.473,87.549C59.739,87.549 59.127,87.7 58.641,87.998C58.155,88.298 57.768,88.643 57.484,89.033C57.2,89.422 56.996,89.8 56.877,90.167C56.757,90.535 56.698,90.786 56.698,90.919L64.068,90.919ZM65.101,95.033C64.576,95.826 63.929,96.396 63.158,96.74C62.386,97.084 61.535,97.257 60.608,97.257C59.813,97.257 59.094,97.122 58.45,96.852C57.806,96.582 57.251,96.205 56.787,95.717C56.323,95.231 55.967,94.654 55.72,93.987C55.473,93.321 55.349,92.582 55.349,91.774C55.349,90.995 55.476,90.276 55.731,89.617C55.986,88.957 56.345,88.384 56.81,87.898C57.274,87.412 57.821,87.029 58.45,86.751C59.079,86.474 59.776,86.336 60.539,86.336C61.334,86.336 62.034,86.474 62.641,86.751C63.247,87.029 63.757,87.396 64.168,87.853C64.58,88.31 64.892,88.831 65.101,89.415C65.311,89.998 65.416,90.59 65.416,91.189L65.416,92.133L56.698,92.133C56.698,92.418 56.753,92.781 56.866,93.223C56.979,93.665 57.184,94.096 57.484,94.515C57.784,94.934 58.184,95.293 58.686,95.593C59.188,95.894 59.835,96.043 60.63,96.043C61.319,96.043 61.986,95.878 62.629,95.549C63.274,95.22 63.768,94.77 64.113,94.201L65.101,95.033Z" style="fill:white;fill-rule:nonzero;"/>
            <path d="M86.112,95.459C85.602,96.074 85.025,96.526 84.381,96.818C83.737,97.111 83.04,97.257 82.291,97.257C81.497,97.257 80.763,97.122 80.089,96.852C79.415,96.582 78.838,96.205 78.359,95.717C77.879,95.231 77.505,94.654 77.236,93.987C76.966,93.321 76.83,92.59 76.83,91.796C76.83,91.001 76.966,90.272 77.236,89.606C77.505,88.939 77.879,88.362 78.359,87.874C78.838,87.388 79.415,87.01 80.089,86.741C80.763,86.47 81.497,86.336 82.291,86.336C83.055,86.336 83.763,86.494 84.414,86.808C85.067,87.123 85.647,87.564 86.157,88.133L85.077,88.943C84.688,88.508 84.261,88.167 83.796,87.919C83.332,87.673 82.83,87.549 82.291,87.549C81.662,87.549 81.092,87.662 80.583,87.886C80.074,88.111 79.64,88.415 79.281,88.796C78.92,89.179 78.647,89.627 78.46,90.144C78.273,90.662 78.179,91.212 78.179,91.796C78.179,92.38 78.273,92.931 78.46,93.448C78.647,93.964 78.92,94.415 79.281,94.796C79.64,95.177 80.074,95.481 80.583,95.707C81.092,95.931 81.662,96.043 82.291,96.043C82.861,96.043 83.381,95.912 83.853,95.65C84.325,95.388 84.733,95.04 85.077,94.605L86.112,95.459Z" style="fill:white;fill-rule:nonzero;"/>
            <path d="M105.998,94.066C105.998,94.26 106.006,94.497 106.02,94.774C106.035,95.05 106.047,95.332 106.053,95.617C106.061,95.901 106.073,96.167 106.088,96.414C106.102,96.661 106.11,96.852 106.11,96.987L104.762,96.987C104.747,96.598 104.736,96.223 104.728,95.864C104.72,95.504 104.702,95.272 104.673,95.166L104.604,95.166C104.335,95.737 103.886,96.226 103.257,96.639C102.628,97.05 101.893,97.257 101.054,97.257C100.246,97.257 99.582,97.128 99.065,96.874C98.548,96.62 98.144,96.287 97.852,95.874C97.56,95.463 97.361,94.987 97.256,94.448C97.152,93.909 97.099,93.355 97.099,92.785L97.099,86.606L98.448,86.606L98.448,92.717C98.448,93.137 98.485,93.545 98.56,93.943C98.634,94.339 98.765,94.695 98.952,95.009C99.14,95.324 99.402,95.576 99.74,95.762C100.077,95.95 100.515,96.043 101.054,96.043C101.549,96.043 102.016,95.957 102.459,95.785C102.9,95.613 103.283,95.35 103.605,94.998C103.927,94.646 104.181,94.205 104.369,93.672C104.555,93.14 104.649,92.515 104.649,91.796L104.649,86.606L105.998,86.606L105.998,94.066Z" style="fill:white;fill-rule:nonzero;"/>
            <path d="M118.693,89.527C118.693,89.332 118.685,89.096 118.672,88.819C118.656,88.541 118.644,88.261 118.637,87.976C118.63,87.692 118.619,87.426 118.604,87.178C118.589,86.931 118.581,86.741 118.581,86.606L119.929,86.606C119.944,86.996 119.956,87.37 119.963,87.729C119.97,88.089 119.989,88.321 120.019,88.425C120.364,87.812 120.805,87.31 121.345,86.92C121.885,86.531 122.544,86.336 123.322,86.336C123.457,86.336 123.589,86.347 123.716,86.37C123.844,86.392 123.974,86.418 124.109,86.449L123.952,87.774C123.772,87.714 123.599,87.684 123.435,87.684C122.85,87.684 122.345,87.778 121.918,87.964C121.491,88.153 121.139,88.411 120.862,88.74C120.585,89.07 120.379,89.456 120.244,89.897C120.109,90.339 120.042,90.815 120.042,91.325L120.042,96.987L118.693,96.987L118.693,89.527Z" style="fill:white;fill-rule:nonzero;"/>
            <path d="M142.894,90.919C142.894,90.457 142.802,90.021 142.614,89.617C142.427,89.211 142.173,88.856 141.85,88.548C141.528,88.243 141.145,87.998 140.704,87.819C140.262,87.639 139.794,87.549 139.3,87.549C138.565,87.549 137.955,87.7 137.469,87.998C136.981,88.298 136.595,88.643 136.311,89.033C136.026,89.422 135.824,89.8 135.704,90.167C135.584,90.535 135.524,90.786 135.524,90.919L142.894,90.919ZM143.928,95.033C143.404,95.826 142.757,96.396 141.985,96.74C141.213,97.084 140.363,97.257 139.434,97.257C138.64,97.257 137.921,97.122 137.277,96.852C136.633,96.582 136.078,96.205 135.614,95.717C135.15,95.231 134.794,94.654 134.547,93.987C134.3,93.321 134.176,92.582 134.176,91.774C134.176,90.995 134.303,90.276 134.558,89.617C134.813,88.957 135.173,88.384 135.637,87.898C136.1,87.412 136.648,87.029 137.277,86.751C137.906,86.474 138.602,86.336 139.367,86.336C140.161,86.336 140.861,86.474 141.469,86.751C142.074,87.029 142.584,87.396 142.996,87.853C143.408,88.31 143.719,88.831 143.928,89.415C144.138,89.998 144.243,90.59 144.243,91.189L144.243,92.133L135.524,92.133C135.524,92.418 135.581,92.781 135.693,93.223C135.805,93.665 136.012,94.096 136.311,94.515C136.61,94.934 137.011,95.293 137.512,95.593C138.014,95.894 138.663,96.043 139.457,96.043C140.146,96.043 140.812,95.878 141.457,95.549C142.101,95.22 142.595,94.77 142.939,94.201L143.928,95.033Z" style="fill:white;fill-rule:nonzero;"/>
            <path d="M156.625,81.078L166.152,81.078L166.152,82.426L158.108,82.426L158.108,88.089L165.592,88.089L165.592,89.437L158.108,89.437L158.108,96.987L156.625,96.987L156.625,81.078Z" style="fill:white;fill-rule:nonzero;"/>
            <path d="M177.949,86.606L179.297,86.606L179.297,96.987L177.949,96.987L177.949,86.606ZM177.612,82.493C177.612,82.208 177.71,81.969 177.904,81.775C178.098,81.58 178.339,81.482 178.623,81.482C178.907,81.482 179.147,81.58 179.343,81.775C179.537,81.969 179.635,82.208 179.635,82.493C179.635,82.779 179.537,83.018 179.343,83.212C179.147,83.408 178.907,83.504 178.623,83.504C178.339,83.504 178.098,83.408 177.904,83.212C177.71,83.018 177.612,82.779 177.612,82.493Z" style="fill:white;fill-rule:nonzero;"/>
            <path d="M192.105,89.527C192.105,89.332 192.097,89.096 192.083,88.819C192.067,88.541 192.056,88.261 192.05,87.976C192.041,87.692 192.03,87.426 192.015,87.178C192,86.931 191.993,86.741 191.993,86.606L193.342,86.606C193.356,86.996 193.367,87.37 193.375,87.729C193.383,88.089 193.4,88.321 193.43,88.425C193.775,87.812 194.217,87.31 194.757,86.92C195.296,86.531 195.955,86.336 196.734,86.336C196.869,86.336 197,86.347 197.128,86.37C197.255,86.392 197.386,86.418 197.52,86.449L197.363,87.774C197.183,87.714 197.012,87.684 196.846,87.684C196.262,87.684 195.757,87.778 195.33,87.964C194.903,88.153 194.551,88.411 194.274,88.74C193.996,89.07 193.79,89.456 193.656,89.897C193.52,90.339 193.454,90.815 193.454,91.325L193.454,96.987L192.105,96.987L192.105,89.527Z" style="fill:white;fill-rule:nonzero;"/>
            <path d="M208.598,94.335C208.883,94.89 209.303,95.313 209.857,95.605C210.411,95.897 210.995,96.043 211.609,96.043C211.894,96.043 212.178,95.998 212.464,95.909C212.748,95.819 213.003,95.692 213.227,95.526C213.452,95.362 213.636,95.163 213.777,94.931C213.92,94.699 213.991,94.433 213.991,94.133C213.991,93.654 213.838,93.294 213.53,93.054C213.223,92.815 212.845,92.627 212.396,92.494C211.946,92.358 211.452,92.242 210.913,92.145C210.374,92.047 209.879,91.897 209.429,91.695C208.98,91.493 208.601,91.212 208.295,90.853C207.988,90.493 207.834,89.983 207.834,89.324C207.834,88.816 207.939,88.373 208.149,87.998C208.358,87.624 208.633,87.314 208.969,87.066C209.306,86.819 209.684,86.636 210.103,86.515C210.523,86.396 210.95,86.336 211.385,86.336C212.239,86.336 212.976,86.494 213.598,86.808C214.219,87.123 214.703,87.617 215.048,88.29L213.834,89.009C213.579,88.531 213.261,88.167 212.879,87.919C212.497,87.673 211.999,87.549 211.385,87.549C211.145,87.549 210.893,87.586 210.632,87.662C210.37,87.737 210.134,87.841 209.925,87.976C209.714,88.111 209.539,88.284 209.396,88.493C209.254,88.704 209.182,88.943 209.182,89.211C209.182,89.676 209.336,90.021 209.642,90.246C209.95,90.471 210.329,90.646 210.778,90.773C211.227,90.902 211.722,91.01 212.262,91.1C212.8,91.189 213.295,91.335 213.745,91.538C214.193,91.74 214.572,92.033 214.879,92.415C215.185,92.795 215.339,93.339 215.339,94.043C215.339,94.582 215.238,95.05 215.037,95.448C214.834,95.845 214.556,96.178 214.205,96.448C213.852,96.717 213.452,96.919 213.003,97.054C212.553,97.189 212.081,97.257 211.587,97.257C210.688,97.257 209.868,97.084 209.126,96.74C208.385,96.396 207.811,95.864 207.407,95.145L208.598,94.335Z" style="fill:white;fill-rule:nonzero;"/>
            <path d="M232.215,87.819L229.249,87.819L229.249,94.582C229.249,95.047 229.376,95.407 229.631,95.662C229.886,95.916 230.238,96.043 230.687,96.043C230.941,96.043 231.2,96.009 231.463,95.942C231.724,95.874 231.975,95.789 232.215,95.683L232.327,96.897C232.072,96.987 231.781,97.07 231.452,97.144C231.122,97.219 230.83,97.257 230.575,97.257C230.095,97.257 229.683,97.186 229.34,97.042C228.994,96.901 228.717,96.71 228.508,96.47C228.298,96.231 228.144,95.95 228.047,95.627C227.95,95.306 227.901,94.957 227.901,94.582L227.901,87.819L225.654,87.819L225.654,86.606L227.901,86.606L227.901,83.617L229.249,83.617L229.249,86.606L232.215,86.606L232.215,87.819Z" style="fill:white;fill-rule:nonzero;"/>
            <path d="M10.084,72.183L255.992,72.183" style="fill:white;stroke:white;stroke-width:0.89px;stroke-linecap:round;"/>
            <path d="M15.211,89.06C15.211,90.509 14.036,91.684 12.587,91.684C11.138,91.684 9.963,90.509 9.963,89.06C9.963,87.611 11.138,86.436 12.587,86.436C14.036,86.436 15.211,87.611 15.211,89.06Z" style="fill:rgb(243,109,35);fill-rule:nonzero;"/>
            <path d="M256.097,89.06C256.097,90.509 254.924,91.684 253.475,91.684C252.026,91.684 250.851,90.509 250.851,89.06C250.851,87.611 252.026,86.436 253.475,86.436C254.924,86.436 256.097,87.611 256.097,89.06Z" style="fill:rgb(243,109,35);fill-rule:nonzero;"/>
            <path d="M260.164,28.926C260.298,28.926 260.407,28.915 260.491,28.894C260.575,28.872 260.64,28.839 260.689,28.794C260.736,28.751 260.769,28.697 260.786,28.632C260.805,28.568 260.814,28.495 260.814,28.412C260.814,28.332 260.806,28.261 260.792,28.201C260.776,28.14 260.747,28.089 260.704,28.05C260.661,28.009 260.601,27.98 260.528,27.96C260.453,27.942 260.355,27.931 260.237,27.931L259.823,27.931L259.823,28.926L260.164,28.926ZM260.237,27.304C260.72,27.304 261.074,27.39 261.299,27.564C261.523,27.737 261.635,27.984 261.635,28.307C261.635,28.537 261.575,28.738 261.457,28.91C261.338,29.081 261.153,29.206 260.903,29.284C260.961,29.319 261.009,29.362 261.049,29.413C261.088,29.463 261.127,29.522 261.163,29.589L261.864,30.778L261.07,30.778C260.954,30.778 260.872,30.736 260.825,30.65L260.268,29.631C260.243,29.595 260.213,29.568 260.181,29.548C260.148,29.529 260.1,29.519 260.036,29.519L259.823,29.519L259.823,30.778L258.991,30.778L258.991,27.304L260.237,27.304ZM260.254,31.448C260.471,31.448 260.682,31.419 260.885,31.363C261.086,31.306 261.273,31.226 261.448,31.123C261.622,31.019 261.78,30.896 261.924,30.75C262.066,30.606 262.189,30.445 262.29,30.267C262.39,30.088 262.469,29.897 262.524,29.694C262.58,29.49 262.607,29.275 262.607,29.05C262.607,28.827 262.58,28.611 262.524,28.404C262.469,28.198 262.39,28.004 262.29,27.825C262.189,27.646 262.066,27.483 261.924,27.337C261.78,27.191 261.622,27.066 261.448,26.961C261.273,26.857 261.086,26.776 260.885,26.719C260.682,26.663 260.471,26.634 260.254,26.634C260.032,26.634 259.825,26.663 259.626,26.719C259.427,26.776 259.241,26.857 259.068,26.961C258.894,27.066 258.738,27.191 258.596,27.337C258.457,27.483 258.336,27.646 258.234,27.825C258.135,28.004 258.057,28.198 258.002,28.404C257.949,28.611 257.922,28.827 257.922,29.05C257.922,29.386 257.982,29.7 258.101,29.992C258.221,30.284 258.387,30.537 258.595,30.752C258.803,30.968 259.052,31.138 259.334,31.262C259.618,31.386 259.924,31.448 260.254,31.448ZM260.254,26.189C260.515,26.189 260.769,26.223 261.014,26.291C261.258,26.36 261.484,26.456 261.696,26.58C261.909,26.705 262.101,26.853 262.276,27.028C262.451,27.202 262.6,27.394 262.723,27.606C262.847,27.818 262.944,28.046 263.012,28.29C263.081,28.534 263.115,28.788 263.115,29.05C263.115,29.312 263.081,29.564 263.012,29.808C262.944,30.051 262.847,30.279 262.723,30.489C262.6,30.7 262.451,30.892 262.276,31.067C262.101,31.241 261.909,31.39 261.696,31.513C261.484,31.637 261.258,31.734 261.014,31.802C260.769,31.871 260.515,31.905 260.254,31.905C259.989,31.905 259.736,31.871 259.493,31.802C259.251,31.734 259.025,31.637 258.814,31.513C258.604,31.39 258.411,31.241 258.238,31.067C258.062,30.892 257.914,30.7 257.79,30.489C257.665,30.279 257.57,30.052 257.502,29.81C257.433,29.567 257.398,29.314 257.398,29.05C257.398,28.788 257.433,28.534 257.502,28.29C257.57,28.046 257.665,27.818 257.79,27.606C257.914,27.394 258.062,27.202 258.238,27.028C258.411,26.853 258.604,26.705 258.814,26.58C259.025,26.456 259.251,26.36 259.493,26.291C259.736,26.223 259.989,26.189 260.254,26.189Z" style="fill:white;fill-rule:nonzero;"/>
            <path d="M313.585,105.76C314.144,105.76 314.545,105.628 314.789,105.36C315.035,105.096 315.157,104.723 315.157,104.245C315.157,104.034 315.125,103.842 315.061,103.669C315,103.495 314.902,103.347 314.773,103.222C314.644,103.098 314.481,103 314.285,102.934C314.089,102.866 313.855,102.832 313.585,102.832L312.47,102.832L312.47,105.76L313.585,105.76ZM313.585,101.229C314.236,101.229 314.795,101.305 315.262,101.46C315.728,101.614 316.113,101.826 316.416,102.097C316.719,102.367 316.941,102.686 317.084,103.054C317.227,103.421 317.3,103.819 317.3,104.245C317.3,104.706 317.225,105.129 317.077,105.513C316.93,105.898 316.704,106.227 316.4,106.501C316.095,106.776 315.711,106.991 315.244,107.145C314.775,107.3 314.223,107.376 313.585,107.376L312.47,107.376L312.47,110.463L310.327,110.463L310.327,101.229L313.585,101.229Z" style="fill:white;fill-rule:nonzero;"/>
            <path d="M324.881,105.569C325.173,105.569 325.421,105.534 325.626,105.46C325.831,105.386 325.999,105.283 326.13,105.152C326.261,105.021 326.355,104.867 326.414,104.692C326.474,104.518 326.503,104.328 326.503,104.125C326.503,103.72 326.372,103.401 326.106,103.174C325.843,102.945 325.434,102.832 324.881,102.832L324.018,102.832L324.018,105.569L324.881,105.569ZM329.432,110.463L327.492,110.463C327.134,110.463 326.876,110.329 326.718,110.059L325.185,107.376C325.113,107.263 325.033,107.178 324.945,107.127C324.854,107.074 324.729,107.047 324.563,107.047L324.018,107.047L324.018,110.463L321.876,110.463L321.876,101.229L324.881,101.229C325.548,101.229 326.117,101.298 326.589,101.434C327.059,101.571 327.445,101.763 327.742,102.009C328.041,102.253 328.257,102.542 328.392,102.877C328.527,103.211 328.594,103.573 328.594,103.968C328.594,104.267 328.555,104.549 328.473,104.816C328.394,105.081 328.275,105.329 328.12,105.555C327.963,105.779 327.77,105.981 327.54,106.16C327.308,106.337 327.044,106.483 326.745,106.597C326.885,106.669 327.015,106.759 327.137,106.867C327.259,106.975 327.369,107.103 327.466,107.249L329.432,110.463Z" style="fill:white;fill-rule:nonzero;"/>
            <path d="M340.401,105.844C340.401,105.387 340.343,104.976 340.224,104.609C340.105,104.245 339.935,103.936 339.715,103.681C339.492,103.428 339.22,103.233 338.9,103.098C338.578,102.963 338.212,102.896 337.803,102.896C337.388,102.896 337.02,102.963 336.697,103.098C336.373,103.233 336.101,103.428 335.88,103.681C335.657,103.936 335.487,104.245 335.369,104.609C335.251,104.976 335.192,105.387 335.192,105.844C335.192,106.303 335.251,106.717 335.369,107.081C335.487,107.447 335.657,107.756 335.88,108.011C336.101,108.264 336.373,108.456 336.697,108.591C337.02,108.724 337.388,108.791 337.803,108.791C338.212,108.791 338.578,108.724 338.9,108.591C339.22,108.456 339.492,108.264 339.715,108.011C339.935,107.756 340.105,107.447 340.224,107.081C340.343,106.717 340.401,106.303 340.401,105.844ZM342.595,105.844C342.595,106.51 342.48,107.132 342.249,107.707C342.018,108.281 341.695,108.78 341.276,109.204C340.858,109.631 340.355,109.963 339.764,110.203C339.176,110.443 338.521,110.563 337.803,110.563C337.084,110.563 336.429,110.443 335.838,110.203C335.247,109.963 334.741,109.631 334.32,109.204C333.9,108.78 333.574,108.281 333.345,107.707C333.113,107.132 332.998,106.51 332.998,105.844C332.998,105.175 333.113,104.555 333.345,103.979C333.574,103.405 333.9,102.906 334.32,102.484C334.741,102.062 335.247,101.729 335.838,101.488C336.429,101.248 337.084,101.126 337.803,101.126C338.521,101.126 339.176,101.248 339.764,101.492C340.355,101.734 340.858,102.066 341.276,102.489C341.695,102.912 342.018,103.41 342.249,103.985C342.48,104.56 342.595,105.179 342.595,105.844Z" style="fill:white;fill-rule:nonzero;"/>
            <path d="M353.759,102.928L351.159,102.928L351.159,110.463L349.016,110.463L349.016,102.928L346.419,102.928L346.419,101.229L353.759,101.229L353.759,102.928Z" style="fill:white;fill-rule:nonzero;"/>
            <path d="M360.482,102.877L360.482,105.032L363.386,105.032L363.386,106.616L360.482,106.616L360.482,108.815L364.272,108.815L364.272,110.463L358.327,110.463L358.327,101.229L364.272,101.229L364.272,102.877L360.482,102.877Z" style="fill:white;fill-rule:nonzero;"/>
            <path d="M375.109,108.074C375.158,108.074 375.21,108.083 375.261,108.103C375.312,108.12 375.36,108.154 375.406,108.2L376.257,109.095C375.884,109.581 375.418,109.947 374.858,110.194C374.299,110.44 373.637,110.563 372.871,110.563C372.171,110.563 371.541,110.445 370.986,110.207C370.43,109.968 369.959,109.638 369.571,109.219C369.186,108.798 368.888,108.299 368.682,107.723C368.475,107.145 368.371,106.519 368.371,105.844C368.371,105.153 368.482,104.521 368.707,103.944C368.931,103.368 369.246,102.869 369.651,102.452C370.057,102.033 370.542,101.708 371.109,101.477C371.676,101.243 372.298,101.126 372.978,101.126C373.325,101.126 373.652,101.158 373.958,101.218C374.263,101.28 374.551,101.365 374.817,101.473C375.082,101.581 375.328,101.71 375.553,101.861C375.775,102.014 375.975,102.18 376.148,102.356L375.426,103.325C375.38,103.386 375.325,103.438 375.261,103.488C375.197,103.536 375.109,103.561 374.994,103.561C374.918,103.561 374.847,103.545 374.778,103.51C374.711,103.476 374.64,103.436 374.564,103.386C374.486,103.338 374.403,103.285 374.313,103.229C374.221,103.172 374.115,103.119 373.99,103.069C373.866,103.021 373.72,102.979 373.553,102.945C373.385,102.912 373.19,102.896 372.966,102.896C372.61,102.896 372.287,102.961 371.994,103.092C371.7,103.223 371.445,103.414 371.233,103.665C371.019,103.916 370.855,104.226 370.738,104.592C370.622,104.956 370.563,105.373 370.563,105.844C370.563,106.315 370.629,106.736 370.758,107.104C370.887,107.472 371.062,107.781 371.283,108.032C371.506,108.283 371.763,108.476 372.059,108.606C372.356,108.737 372.673,108.803 373.011,108.803C373.205,108.803 373.382,108.792 373.543,108.774C373.703,108.755 373.853,108.724 373.993,108.68C374.133,108.635 374.263,108.575 374.386,108.501C374.508,108.428 374.634,108.333 374.761,108.22C374.81,108.177 374.865,108.142 374.925,108.115C374.983,108.087 375.045,108.074 375.109,108.074Z" style="fill:white;fill-rule:nonzero;"/>
            <path d="M387.317,102.928L384.718,102.928L384.718,110.463L382.575,110.463L382.575,102.928L379.978,102.928L379.978,101.229L387.317,101.229L387.317,102.928Z" style="fill:white;fill-rule:nonzero;"/>
            <path d="M313.097,119.947C313.656,119.947 314.057,119.814 314.302,119.547C314.547,119.282 314.669,118.909 314.669,118.432C314.669,118.222 314.637,118.028 314.573,117.855C314.512,117.682 314.415,117.533 314.285,117.408C314.156,117.284 313.994,117.187 313.798,117.12C313.601,117.053 313.368,117.019 313.097,117.019L311.981,117.019L311.981,119.947L313.097,119.947ZM313.097,115.415C313.748,115.415 314.306,115.491 314.773,115.647C315.24,115.801 315.626,116.013 315.928,116.283C316.23,116.554 316.453,116.872 316.596,117.24C316.739,117.607 316.811,118.006 316.811,118.432C316.811,118.894 316.737,119.315 316.589,119.699C316.442,120.085 316.216,120.414 315.912,120.688C315.608,120.964 315.222,121.178 314.756,121.331C314.287,121.486 313.735,121.563 313.097,121.563L311.981,121.563L311.981,124.649L309.839,124.649L309.839,115.415L313.097,115.415Z" style="fill:white;fill-rule:nonzero;"/>
            <path d="M325.622,121.119L324.766,118.591C324.703,118.43 324.636,118.24 324.563,118.023C324.49,117.806 324.42,117.57 324.347,117.316C324.283,117.574 324.217,117.813 324.145,118.032C324.073,118.253 324.006,118.442 323.942,118.604L323.092,121.119L325.622,121.119ZM329.025,124.649L327.365,124.649C327.178,124.649 327.029,124.607 326.914,124.521C326.802,124.434 326.715,124.322 326.654,124.187L326.11,122.578L322.598,122.578L322.053,124.187C322.007,124.305 321.924,124.413 321.803,124.507C321.682,124.602 321.534,124.649 321.355,124.649L319.683,124.649L323.258,115.415L325.45,115.415L329.025,124.649Z" style="fill:white;fill-rule:nonzero;"/>
            <path d="M336.244,119.756C336.536,119.756 336.783,119.721 336.988,119.646C337.193,119.572 337.361,119.47 337.492,119.339C337.623,119.208 337.719,119.054 337.777,118.879C337.837,118.704 337.865,118.515 337.865,118.312C337.865,117.906 337.734,117.588 337.47,117.36C337.206,117.132 336.798,117.019 336.244,117.019L335.382,117.019L335.382,119.756L336.244,119.756ZM340.795,124.649L338.855,124.649C338.497,124.649 338.238,124.516 338.081,124.245L336.549,121.563C336.475,121.449 336.396,121.365 336.307,121.313C336.218,121.261 336.093,121.234 335.926,121.234L335.382,121.234L335.382,124.649L333.238,124.649L333.238,115.415L336.244,115.415C336.911,115.415 337.48,115.484 337.952,115.62C338.423,115.759 338.807,115.949 339.105,116.195C339.403,116.439 339.619,116.729 339.756,117.063C339.889,117.397 339.957,117.76 339.957,118.154C339.957,118.453 339.918,118.735 339.837,119.003C339.758,119.268 339.638,119.516 339.483,119.742C339.326,119.966 339.133,120.168 338.903,120.347C338.672,120.523 338.406,120.67 338.107,120.783C338.247,120.855 338.378,120.945 338.5,121.054C338.622,121.161 338.732,121.289 338.829,121.436L340.795,124.649Z" style="fill:white;fill-rule:nonzero;"/>
            <path d="M351.512,117.114L348.914,117.114L348.914,124.649L346.771,124.649L346.771,117.114L344.174,117.114L344.174,115.415L351.512,115.415L351.512,117.114Z" style="fill:white;fill-rule:nonzero;"/>
            <path d="M364.143,115.415L364.143,124.649L363.028,124.649C362.863,124.649 362.725,124.623 362.614,124.57C362.501,124.518 362.391,124.425 362.28,124.294L357.928,118.787C357.943,118.951 357.956,119.11 357.961,119.267C357.968,119.42 357.971,119.564 357.971,119.699L357.971,124.649L356.082,124.649L356.082,115.415L357.211,115.415C357.303,115.415 357.381,115.419 357.444,115.428C357.509,115.437 357.564,115.452 357.616,115.476C357.667,115.498 357.715,115.532 357.761,115.572C357.808,115.615 357.862,115.674 357.92,115.744L362.312,121.29C362.291,121.113 362.276,120.94 362.267,120.774C362.259,120.606 362.256,120.449 362.256,120.302L362.256,115.415L364.143,115.415Z" style="fill:white;fill-rule:nonzero;"/>
            <path d="M371.571,117.063L371.571,119.219L374.474,119.219L374.474,120.803L371.571,120.803L371.571,123.002L375.362,123.002L375.362,124.649L369.416,124.649L369.416,115.415L375.362,115.415L375.362,117.063L371.571,117.063Z" style="fill:white;fill-rule:nonzero;"/>
            <path d="M383.171,119.756C383.463,119.756 383.711,119.721 383.916,119.646C384.121,119.572 384.289,119.47 384.42,119.339C384.55,119.208 384.645,119.054 384.704,118.879C384.764,118.704 384.793,118.515 384.793,118.312C384.793,117.906 384.662,117.588 384.396,117.36C384.133,117.132 383.724,117.019 383.171,117.019L382.308,117.019L382.308,119.756L383.171,119.756ZM387.721,124.649L385.782,124.649C385.424,124.649 385.166,124.516 385.008,124.245L383.475,121.563C383.402,121.449 383.323,121.365 383.235,121.313C383.144,121.261 383.019,121.234 382.852,121.234L382.308,121.234L382.308,124.649L380.166,124.649L380.166,115.415L383.171,115.415C383.838,115.415 384.407,115.484 384.879,115.62C385.349,115.759 385.734,115.949 386.032,116.195C386.331,116.439 386.546,116.729 386.682,117.063C386.816,117.397 386.884,117.76 386.884,118.154C386.884,118.453 386.845,118.735 386.763,119.003C386.684,119.268 386.565,119.516 386.41,119.742C386.253,119.966 386.06,120.168 385.83,120.347C385.598,120.523 385.334,120.67 385.035,120.783C385.175,120.855 385.305,120.945 385.427,121.054C385.549,121.161 385.659,121.289 385.756,121.436L387.721,124.649Z" style="fill:white;fill-rule:nonzero;"/>
            <path d="M308.605,96.444L388.843,96.444" style="fill:none;stroke:rgb(243,109,35);stroke-width:1.89px;"/>
            <path d="M284.13,16.339L284.13,110.022" style="fill:white;stroke:white;stroke-width:2.05px;"/>
        </g>
    </g>
</svg>
