<?xml version="1.0" encoding="UTF-8" standalone="no"?>
<!DOCTYPE svg PUBLIC "-//W3C//DTD SVG 1.1//EN" "http://www.w3.org/Graphics/SVG/1.1/DTD/svg11.dtd">
<svg width="100%" height="100%" viewBox="0 0 879 287" version="1.1" xmlns="http://www.w3.org/2000/svg" xmlns:xlink="http://www.w3.org/1999/xlink" xml:space="preserve" xmlns:serif="http://www.serif.com/" style="fill-rule:evenodd;clip-rule:evenodd;stroke-linejoin:round;stroke-miterlimit:1.41421;">
    <g transform="matrix(1,0,0,1,-3,-11)">
        <g transform="matrix(4.16667,0,0,4.16667,0,0)">
            <rect x="152.734" y="11.204" width="0.592" height="51.746" style="fill:white;fill-rule:nonzero;"/>
            <path d="M169.254,48.036C169.651,48.036 169.936,47.941 170.11,47.752C170.283,47.563 170.37,47.299 170.37,46.96C170.37,46.81 170.348,46.674 170.303,46.551C170.258,46.428 170.19,46.322 170.098,46.233C170.006,46.145 169.891,46.077 169.751,46.028C169.612,45.98 169.446,45.957 169.254,45.957L168.462,45.957L168.462,48.036L169.254,48.036ZM169.254,44.818C169.716,44.818 170.113,44.873 170.444,44.982C170.776,45.092 171.049,45.243 171.264,45.435C171.478,45.627 171.636,45.853 171.738,46.114C171.84,46.375 171.892,46.657 171.892,46.96C171.892,47.287 171.839,47.587 171.734,47.86C171.629,48.133 171.468,48.367 171.252,48.562C171.036,48.757 170.763,48.909 170.431,49.019C170.1,49.129 169.707,49.184 169.254,49.184L168.462,49.184L168.462,51.375L166.942,51.375L166.942,44.818L169.254,44.818Z" style="fill:white;fill-rule:nonzero;"/>
            <path d="M176.346,48.868L175.738,47.073C175.693,46.959 175.646,46.824 175.594,46.67C175.543,46.516 175.492,46.349 175.442,46.168C175.397,46.352 175.348,46.52 175.297,46.677C175.246,46.833 175.198,46.968 175.153,47.082L174.55,48.868L176.346,48.868ZM178.762,51.375L177.583,51.375C177.451,51.375 177.345,51.344 177.264,51.282C177.183,51.221 177.121,51.143 177.079,51.046L176.693,49.903L174.199,49.903L173.813,51.046C173.779,51.13 173.72,51.206 173.635,51.273C173.549,51.341 173.443,51.375 173.318,51.375L172.129,51.375L174.667,44.818L176.224,44.818L178.762,51.375Z" style="fill:white;fill-rule:nonzero;"/>
            <path d="M182.088,47.9C182.295,47.9 182.471,47.875 182.616,47.822C182.762,47.769 182.881,47.697 182.975,47.603C183.068,47.511 183.135,47.402 183.177,47.277C183.219,47.153 183.24,47.019 183.24,46.875C183.24,46.587 183.147,46.361 182.959,46.2C182.772,46.038 182.481,45.957 182.088,45.957L181.476,45.957L181.476,47.9L182.088,47.9ZM185.318,51.375L183.942,51.375C183.687,51.375 183.504,51.278 183.393,51.087L182.304,49.184C182.253,49.102 182.196,49.043 182.133,49.006C182.069,48.968 181.98,48.949 181.863,48.949L181.476,48.949L181.476,51.375L179.955,51.375L179.955,44.818L182.088,44.818C182.562,44.818 182.966,44.867 183.301,44.965C183.635,45.062 183.908,45.198 184.119,45.372C184.331,45.546 184.485,45.751 184.581,45.988C184.677,46.226 184.725,46.483 184.725,46.763C184.725,46.976 184.696,47.176 184.64,47.365C184.582,47.555 184.498,47.729 184.388,47.89C184.277,48.05 184.139,48.193 183.976,48.319C183.813,48.445 183.624,48.549 183.411,48.63C183.51,48.681 183.603,48.744 183.69,48.821C183.777,48.897 183.855,48.988 183.924,49.093L185.318,51.375Z" style="fill:white;fill-rule:nonzero;"/>
            <path d="M191.128,46.024L189.283,46.024L189.283,51.375L187.763,51.375L187.763,46.024L185.917,46.024L185.917,44.818L191.128,44.818L191.128,46.024Z" style="fill:white;fill-rule:nonzero;"/>
            <path d="M198.297,44.818L198.297,51.375L197.505,51.375C197.388,51.375 197.29,51.356 197.21,51.318C197.131,51.281 197.052,51.216 196.974,51.123L193.883,47.212C193.895,47.329 193.902,47.442 193.907,47.552C193.912,47.661 193.914,47.765 193.914,47.86L193.914,51.375L192.573,51.375L192.573,44.818L193.374,44.818C193.44,44.818 193.495,44.821 193.54,44.827C193.586,44.833 193.626,44.845 193.662,44.861C193.698,44.878 193.733,44.9 193.766,44.931C193.799,44.961 193.836,45.001 193.878,45.053L196.996,48.99C196.982,48.863 196.971,48.741 196.965,48.623C196.959,48.505 196.956,48.393 196.956,48.288L196.956,44.818L198.297,44.818Z" style="fill:white;fill-rule:nonzero;"/>
            <path d="M201.771,45.988L201.771,47.519L203.832,47.519L203.832,48.644L201.771,48.644L201.771,50.205L204.462,50.205L204.462,51.375L200.241,51.375L200.241,44.818L204.462,44.818L204.462,45.988L201.771,45.988Z" style="fill:white;fill-rule:nonzero;"/>
            <path d="M208.206,47.9C208.413,47.9 208.589,47.875 208.735,47.822C208.88,47.769 208.999,47.697 209.093,47.603C209.186,47.511 209.253,47.402 209.295,47.277C209.337,47.153 209.359,47.019 209.359,46.875C209.359,46.587 209.265,46.361 209.077,46.2C208.89,46.038 208.599,45.957 208.206,45.957L207.594,45.957L207.594,47.9L208.206,47.9ZM211.437,51.375L210.06,51.375C209.805,51.375 209.622,51.278 209.511,51.087L208.422,49.184C208.371,49.102 208.315,49.043 208.251,49.006C208.188,48.968 208.098,48.949 207.982,48.949L207.594,48.949L207.594,51.375L206.073,51.375L206.073,44.818L208.206,44.818C208.68,44.818 209.084,44.867 209.419,44.965C209.753,45.062 210.027,45.198 210.237,45.372C210.449,45.546 210.603,45.751 210.699,45.988C210.795,46.226 210.843,46.483 210.843,46.763C210.843,46.976 210.815,47.176 210.758,47.365C210.7,47.555 210.616,47.729 210.506,47.89C210.395,48.05 210.257,48.193 210.094,48.319C209.931,48.445 209.742,48.549 209.529,48.63C209.628,48.681 209.721,48.744 209.808,48.821C209.895,48.897 209.973,48.988 210.042,49.093L211.437,51.375Z" style="fill:white;fill-rule:nonzero;"/>
            <path d="M168.318,55.988L168.318,57.519L170.379,57.519L170.379,58.644L168.318,58.644L168.318,60.205L171.009,60.205L171.009,61.375L166.788,61.375L166.788,54.818L171.009,54.818L171.009,55.988L168.318,55.988Z" style="fill:white;fill-rule:nonzero;"/>
            <path d="M178.344,54.818L178.344,61.375L177.552,61.375C177.435,61.375 177.337,61.356 177.257,61.318C177.178,61.281 177.099,61.216 177.021,61.123L173.93,57.212C173.942,57.329 173.949,57.442 173.954,57.552C173.959,57.661 173.961,57.765 173.961,57.86L173.961,61.375L172.62,61.375L172.62,54.818L173.421,54.818C173.486,54.818 173.542,54.821 173.587,54.827C173.633,54.833 173.673,54.845 173.709,54.861C173.745,54.878 173.779,54.9 173.813,54.931C173.846,54.961 173.883,55.001 173.925,55.053L177.043,58.99C177.028,58.863 177.018,58.741 177.012,58.623C177.006,58.505 177.003,58.393 177.003,58.288L177.003,54.818L178.344,54.818Z" style="fill:white;fill-rule:nonzero;"/>
            <path d="M183.753,58.868L183.146,57.073C183.101,56.959 183.053,56.824 183.001,56.67C182.95,56.516 182.9,56.349 182.849,56.168C182.804,56.352 182.755,56.52 182.704,56.677C182.653,56.833 182.606,56.968 182.561,57.082L181.957,58.868L183.753,58.868ZM186.169,61.375L184.99,61.375C184.859,61.375 184.752,61.344 184.671,61.282C184.59,61.221 184.528,61.143 184.486,61.046L184.1,59.903L181.607,59.903L181.22,61.046C181.187,61.13 181.127,61.206 181.042,61.273C180.956,61.341 180.851,61.375 180.725,61.375L179.536,61.375L182.074,54.818L183.631,54.818L186.169,61.375Z" style="fill:white;fill-rule:nonzero;"/>
            <path d="M189.954,60.227C190.155,60.227 190.319,60.202 190.447,60.15C190.574,60.1 190.674,60.034 190.746,59.953C190.818,59.872 190.867,59.78 190.895,59.679C190.922,59.576 190.935,59.473 190.935,59.368C190.935,59.248 190.919,59.14 190.888,59.044C190.857,58.948 190.803,58.867 190.726,58.801C190.65,58.734 190.548,58.684 190.422,58.647C190.296,58.611 190.137,58.594 189.945,58.594L188.883,58.594L188.883,60.227L189.954,60.227ZM188.883,55.957L188.883,57.577L189.675,57.577C189.843,57.577 189.994,57.564 190.13,57.541C190.265,57.517 190.379,57.475 190.474,57.415C190.568,57.354 190.641,57.272 190.69,57.167C190.739,57.062 190.764,56.931 190.764,56.771C190.764,56.615 190.744,56.485 190.705,56.382C190.667,56.278 190.607,56.195 190.526,56.132C190.444,56.069 190.342,56.024 190.218,55.997C190.093,55.971 189.945,55.957 189.775,55.957L188.883,55.957ZM189.775,54.818C190.227,54.818 190.612,54.86 190.931,54.944C191.248,55.028 191.508,55.146 191.709,55.3C191.91,55.453 192.057,55.639 192.148,55.857C192.239,56.077 192.285,56.321 192.285,56.591C192.285,56.738 192.264,56.88 192.222,57.017C192.18,57.153 192.114,57.28 192.025,57.399C191.934,57.518 191.818,57.626 191.678,57.726C191.536,57.824 191.367,57.91 191.169,57.981C191.601,58.087 191.921,58.256 192.128,58.49C192.335,58.725 192.439,59.027 192.439,59.399C192.439,59.679 192.384,59.937 192.277,60.178C192.168,60.418 192.01,60.627 191.802,60.806C191.593,60.984 191.336,61.123 191.029,61.224C190.724,61.324 190.374,61.375 189.982,61.375L187.362,61.375L187.362,54.818L189.775,54.818Z" style="fill:white;fill-rule:nonzero;"/>
            <path d="M198.014,60.16L198.014,61.375L194.063,61.375L194.063,54.818L195.583,54.818L195.583,60.16L198.014,60.16Z" style="fill:white;fill-rule:nonzero;"/>
            <path d="M200.991,55.988L200.991,57.519L203.053,57.519L203.053,58.644L200.991,58.644L200.991,60.205L203.683,60.205L203.683,61.375L199.462,61.375L199.462,54.818L203.683,54.818L203.683,55.988L200.991,55.988Z" style="fill:white;fill-rule:nonzero;"/>
            <path d="M209.686,58.095C209.686,57.77 209.644,57.477 209.56,57.217C209.476,56.956 209.355,56.734 209.197,56.553C209.04,56.371 208.847,56.232 208.619,56.135C208.392,56.037 208.132,55.988 207.841,55.988L206.823,55.988L206.823,60.205L207.841,60.205C208.132,60.205 208.392,60.156 208.619,60.059C208.847,59.961 209.04,59.821 209.197,59.64C209.355,59.459 209.476,59.237 209.56,58.977C209.644,58.715 209.686,58.421 209.686,58.095ZM211.243,58.095C211.243,58.568 211.161,59.006 210.997,59.406C210.834,59.807 210.604,60.153 210.307,60.445C210.01,60.738 209.652,60.966 209.234,61.13C208.815,61.293 208.351,61.375 207.841,61.375L205.294,61.375L205.294,54.818L207.841,54.818C208.351,54.818 208.815,54.9 209.234,55.065C209.652,55.23 210.01,55.459 210.307,55.75C210.604,56.041 210.834,56.387 210.997,56.787C211.161,57.187 211.243,57.623 211.243,58.095Z" style="fill:white;fill-rule:nonzero;"/>
            <path d="M170.193,66.15C170.148,66.223 170.101,66.276 170.051,66.312C170.001,66.349 169.938,66.366 169.86,66.366C169.79,66.366 169.716,66.345 169.637,66.301C169.558,66.258 169.467,66.209 169.367,66.154C169.267,66.101 169.152,66.052 169.023,66.009C168.894,65.965 168.746,65.943 168.582,65.943C168.297,65.943 168.084,66.004 167.944,66.126C167.806,66.247 167.735,66.411 167.735,66.618C167.735,66.75 167.777,66.859 167.861,66.946C167.945,67.034 168.056,67.108 168.193,67.172C168.329,67.234 168.485,67.293 168.66,67.345C168.836,67.397 169.015,67.456 169.198,67.52C169.381,67.585 169.561,67.661 169.735,67.748C169.911,67.835 170.068,67.945 170.204,68.081C170.34,68.216 170.45,68.38 170.534,68.573C170.618,68.767 170.66,69 170.66,69.273C170.66,69.576 170.609,69.859 170.503,70.124C170.399,70.388 170.246,70.618 170.046,70.814C169.847,71.011 169.601,71.165 169.309,71.278C169.016,71.391 168.684,71.446 168.312,71.446C168.108,71.446 167.9,71.426 167.689,71.384C167.477,71.342 167.273,71.282 167.074,71.206C166.876,71.13 166.691,71.039 166.516,70.934C166.342,70.829 166.191,70.712 166.062,70.583L166.512,69.872C166.548,69.82 166.595,69.778 166.653,69.743C166.712,69.709 166.776,69.691 166.845,69.691C166.935,69.691 167.026,69.721 167.117,69.777C167.208,69.834 167.312,69.897 167.428,69.966C167.543,70.035 167.676,70.099 167.825,70.155C167.976,70.212 168.152,70.241 168.357,70.241C168.633,70.241 168.847,70.18 169,70.059C169.153,69.936 169.23,69.744 169.23,69.48C169.23,69.327 169.188,69.203 169.104,69.106C169.02,69.011 168.909,68.932 168.773,68.868C168.637,68.806 168.482,68.75 168.307,68.702C168.133,68.653 167.954,68.601 167.772,68.542C167.589,68.483 167.41,68.411 167.236,68.326C167.063,68.24 166.907,68.128 166.771,67.988C166.634,67.849 166.524,67.675 166.44,67.467C166.356,67.258 166.314,67.001 166.314,66.694C166.314,66.449 166.363,66.209 166.462,65.975C166.562,65.741 166.706,65.532 166.899,65.35C167.091,65.166 167.326,65.02 167.606,64.91C167.884,64.801 168.203,64.746 168.564,64.746C168.765,64.746 168.96,64.762 169.151,64.794C169.341,64.825 169.523,64.871 169.693,64.933C169.864,64.994 170.024,65.068 170.172,65.153C170.32,65.239 170.453,65.336 170.57,65.443L170.193,66.15Z" style="fill:white;fill-rule:nonzero;"/>
            <path d="M173.761,65.988L173.761,67.519L175.822,67.519L175.822,68.644L173.761,68.644L173.761,70.205L176.452,70.205L176.452,71.375L172.232,71.375L172.232,64.818L176.452,64.818L176.452,65.988L173.761,65.988Z" style="fill:white;fill-rule:nonzero;"/>
            <path d="M180.196,67.9C180.403,67.9 180.579,67.875 180.725,67.822C180.87,67.769 180.989,67.697 181.083,67.603C181.176,67.511 181.243,67.402 181.285,67.277C181.327,67.153 181.349,67.019 181.349,66.875C181.349,66.587 181.255,66.361 181.068,66.2C180.88,66.038 180.589,65.957 180.196,65.957L179.584,65.957L179.584,67.9L180.196,67.9ZM183.427,71.375L182.05,71.375C181.795,71.375 181.612,71.278 181.501,71.087L180.412,69.184C180.361,69.102 180.305,69.043 180.241,69.006C180.178,68.968 180.088,68.949 179.972,68.949L179.584,68.949L179.584,71.375L178.064,71.375L178.064,64.818L180.196,64.818C180.67,64.818 181.074,64.867 181.409,64.965C181.743,65.062 182.017,65.198 182.228,65.372C182.44,65.546 182.593,65.751 182.69,65.988C182.785,66.226 182.833,66.483 182.833,66.763C182.833,66.976 182.805,67.176 182.748,67.365C182.691,67.555 182.607,67.729 182.496,67.89C182.385,68.05 182.247,68.193 182.084,68.319C181.921,68.445 181.733,68.549 181.52,68.63C181.618,68.681 181.711,68.744 181.798,68.821C181.885,68.897 181.963,68.988 182.032,69.093L183.427,71.375Z" style="fill:white;fill-rule:nonzero;"/>
            <path d="M190.303,64.818L187.675,71.375L186.298,71.375L183.67,64.818L184.895,64.818C185.027,64.818 185.133,64.849 185.214,64.91C185.295,64.972 185.357,65.051 185.399,65.146L186.667,68.657C186.728,68.81 186.785,68.977 186.843,69.158C186.9,69.34 186.953,69.529 187.005,69.727C187.047,69.529 187.094,69.34 187.147,69.158C187.199,68.977 187.255,68.81 187.316,68.657L188.575,65.146C188.609,65.062 188.667,64.987 188.753,64.92C188.838,64.852 188.944,64.818 189.07,64.818L190.303,64.818Z" style="fill:white;fill-rule:nonzero;"/>
            <rect x="191.496" y="64.818" width="1.53" height="6.557" style="fill:white;fill-rule:nonzero;"/>
            <path d="M199.389,69.679C199.425,69.679 199.461,69.685 199.496,69.698C199.532,69.712 199.568,69.735 199.6,69.769L200.203,70.402C199.939,70.748 199.609,71.008 199.211,71.184C198.814,71.359 198.343,71.446 197.8,71.446C197.302,71.446 196.856,71.362 196.461,71.192C196.067,71.023 195.733,70.789 195.458,70.49C195.184,70.192 194.973,69.838 194.825,69.429C194.679,69.019 194.605,68.574 194.605,68.095C194.605,67.605 194.685,67.156 194.844,66.746C195.002,66.337 195.226,65.983 195.514,65.686C195.802,65.39 196.147,65.159 196.549,64.994C196.951,64.829 197.394,64.746 197.876,64.746C198.122,64.746 198.355,64.768 198.571,64.811C198.789,64.855 198.992,64.915 199.182,64.991C199.37,65.068 199.544,65.16 199.703,65.269C199.862,65.376 200.003,65.493 200.126,65.619L199.613,66.308C199.58,66.35 199.541,66.388 199.496,66.423C199.451,66.457 199.389,66.475 199.308,66.475C199.254,66.475 199.202,66.462 199.154,66.438C199.107,66.414 199.056,66.385 199.001,66.351C198.947,66.316 198.889,66.278 198.823,66.238C198.759,66.197 198.683,66.16 198.594,66.126C198.506,66.091 198.402,66.061 198.284,66.038C198.165,66.014 198.027,66.002 197.867,66.002C197.615,66.002 197.385,66.048 197.177,66.142C196.968,66.234 196.788,66.37 196.637,66.549C196.485,66.727 196.368,66.946 196.286,67.205C196.203,67.465 196.162,67.762 196.162,68.095C196.162,68.431 196.208,68.728 196.299,68.99C196.391,69.251 196.516,69.471 196.673,69.649C196.83,69.827 197.014,69.963 197.224,70.057C197.434,70.149 197.659,70.195 197.9,70.195C198.037,70.195 198.163,70.189 198.277,70.176C198.391,70.162 198.497,70.14 198.597,70.108C198.695,70.076 198.788,70.034 198.875,69.982C198.963,69.93 199.051,69.862 199.141,69.782C199.177,69.752 199.216,69.727 199.258,69.707C199.3,69.688 199.344,69.679 199.389,69.679Z" style="fill:white;fill-rule:nonzero;"/>
            <path d="M203.073,65.988L203.073,67.519L205.135,67.519L205.135,68.644L203.073,68.644L203.073,70.205L205.765,70.205L205.765,71.375L201.544,71.375L201.544,64.818L205.765,64.818L205.765,65.988L203.073,65.988Z" style="fill:white;fill-rule:nonzero;"/>
            <path d="M210.998,66.15C210.953,66.223 210.906,66.276 210.857,66.312C210.807,66.349 210.743,66.366 210.665,66.366C210.596,66.366 210.522,66.345 210.443,66.301C210.363,66.258 210.273,66.209 210.173,66.154C210.072,66.101 209.957,66.052 209.828,66.009C209.699,65.965 209.552,65.943 209.388,65.943C209.103,65.943 208.89,66.004 208.75,66.126C208.611,66.247 208.541,66.411 208.541,66.618C208.541,66.75 208.583,66.859 208.667,66.946C208.751,67.034 208.861,67.108 208.998,67.172C209.135,67.234 209.29,67.293 209.466,67.345C209.642,67.397 209.82,67.456 210.004,67.52C210.187,67.585 210.366,67.661 210.541,67.748C210.717,67.835 210.873,67.945 211.01,68.081C211.146,68.216 211.256,68.38 211.34,68.573C211.424,68.767 211.466,69 211.466,69.273C211.466,69.576 211.414,69.859 211.309,70.124C211.204,70.388 211.052,70.618 210.852,70.814C210.652,71.011 210.406,71.165 210.114,71.278C209.821,71.391 209.489,71.446 209.117,71.446C208.913,71.446 208.705,71.426 208.494,71.384C208.282,71.342 208.078,71.282 207.88,71.206C207.682,71.13 207.496,71.039 207.321,70.934C207.148,70.829 206.996,70.712 206.867,70.583L207.318,69.872C207.354,69.82 207.401,69.778 207.459,69.743C207.518,69.709 207.581,69.691 207.651,69.691C207.74,69.691 207.831,69.721 207.923,69.777C208.014,69.834 208.117,69.897 208.234,69.966C208.349,70.035 208.482,70.099 208.631,70.155C208.781,70.212 208.958,70.241 209.162,70.241C209.439,70.241 209.652,70.18 209.806,70.059C209.959,69.936 210.035,69.744 210.035,69.48C210.035,69.327 209.993,69.203 209.909,69.106C209.825,69.011 209.715,68.932 209.578,68.868C209.443,68.806 209.287,68.75 209.112,68.702C208.939,68.653 208.76,68.601 208.577,68.542C208.395,68.483 208.216,68.411 208.042,68.326C207.868,68.24 207.713,68.128 207.576,67.988C207.44,67.849 207.329,67.675 207.245,67.467C207.161,67.258 207.119,67.001 207.119,66.694C207.119,66.449 207.169,66.209 207.268,65.975C207.367,65.741 207.512,65.532 207.704,65.35C207.897,65.166 208.132,65.02 208.411,64.91C208.69,64.801 209.009,64.746 209.369,64.746C209.57,64.746 209.766,64.762 209.956,64.794C210.147,64.825 210.328,64.871 210.499,64.933C210.67,64.994 210.829,65.068 210.978,65.153C211.126,65.239 211.259,65.336 211.376,65.443L210.998,66.15Z" style="fill:white;fill-rule:nonzero;"/>
            <path d="M22.751,19.371C21.632,19.371 20.571,19.663 19.568,20.246C18.565,20.829 17.782,21.615 17.219,22.603C16.655,23.591 16.374,24.693 16.374,25.908C16.374,27.706 16.997,29.224 18.244,30.462C19.49,31.702 20.993,32.321 22.751,32.321C23.925,32.321 25.012,32.036 26.012,31.466C27.011,30.897 27.791,30.118 28.35,29.13C28.91,28.142 29.19,27.043 29.19,25.835C29.19,24.635 28.91,23.549 28.35,22.578C27.791,21.606 27.003,20.829 25.986,20.246C24.969,19.663 23.891,19.371 22.751,19.371ZM22.684,17.9C24.976,17.9 26.894,18.665 28.438,20.194C29.982,21.723 30.754,23.605 30.754,25.84C30.754,28.056 29.983,29.935 28.443,31.477C26.903,33.02 25.024,33.791 22.808,33.791C20.564,33.791 18.67,33.024 17.127,31.488C15.583,29.952 14.811,28.093 14.811,25.913C14.811,24.459 15.162,23.112 15.865,21.871C16.569,20.629 17.528,19.657 18.742,18.955C19.957,18.251 21.271,17.9 22.684,17.9Z" style="fill:white;fill-rule:nonzero;"/>
            <path d="M34.855,33.915L34.855,17.846L35.204,17.846L45.899,30.164L45.899,17.846L47.483,17.846L47.483,33.915L47.122,33.915L36.515,21.747L36.515,33.915L34.855,33.915Z" style="fill:white;fill-rule:nonzero;"/>
            <rect x="51.838" y="17.839" width="1.503" height="16.046" style="fill:white;fill-rule:nonzero;"/>
            <path d="M102.541,27.553L104.681,22.077L106.809,27.553L102.541,27.553ZM106.202,17.848L103.123,17.848L98.786,29.446L107.507,29.481L109.181,33.831L112.337,33.831L106.202,17.848Z" style="fill:white;fill-rule:nonzero;"/>
            <path d="M115.617,17.848L118.653,17.848L118.653,30.903L124.706,30.903L124.706,33.798L115.617,33.798L115.617,17.848Z" style="fill:white;fill-rule:nonzero;"/>
            <path d="M127.932,17.848L130.968,17.848L130.968,30.903L137.022,30.903L137.022,33.798L127.932,33.798L127.932,17.848Z" style="fill:white;fill-rule:nonzero;"/>
            <path d="M103.507,40.55C103.507,40.55 96.08,37.876 94.442,33.427C92.609,28.445 99.407,27.309 106.361,27.506C110.109,27.613 114.689,28.183 114.689,28.183C114.689,28.183 103.869,29.561 99.958,32.716C96.14,35.797 103.507,40.55 103.507,40.55Z" style="fill:white;fill-rule:nonzero;"/>
            <path d="M71.249,30.017C69.831,31.617 68.08,32.419 65.993,32.419C64.057,32.419 62.452,31.799 61.181,30.559C59.909,29.318 59.274,27.771 59.274,25.917C59.274,24.69 59.558,23.585 60.127,22.603C60.695,21.621 61.496,20.839 62.53,20.257C63.564,19.674 64.687,19.383 65.901,19.383C67.01,19.383 68.029,19.605 68.956,20.05C69.841,20.475 70.605,21.093 71.249,21.899L71.249,19.84C70.79,19.459 70.283,19 69.726,18.727C68.582,18.165 67.3,17.884 65.88,17.884C63.529,17.884 61.574,18.644 60.012,20.164C58.452,21.683 57.671,23.556 57.671,25.782C57.671,27.898 58.316,29.704 59.604,31.2C61.141,32.971 63.24,33.856 65.901,33.856C67.3,33.856 68.566,33.593 69.7,33.066C70.262,32.804 70.779,32.357 71.249,31.988L71.249,30.017Z" style="fill:white;fill-rule:nonzero;"/>
            <path d="M6.616,25.114C2.996,24.373 2.31,23.429 2.31,21.946L2.31,21.903C2.31,20.334 3.806,19.195 5.866,19.195C7.592,19.195 8.961,19.712 10.304,20.873L10.431,20.983L10.463,20.944L10.463,19.17C9.072,18.242 7.695,17.85 5.91,17.85C3.028,17.85 0.856,19.639 0.856,22.012L0.856,22.055C0.856,24.454 2.38,25.741 6.117,26.497C9.627,27.203 10.292,28.124 10.292,29.578L10.292,29.621C10.292,31.305 8.776,32.481 6.605,32.481C4.488,32.481 2.989,31.859 1.258,30.263L1.135,30.15L1.108,30.182L1.108,32.012C2.767,33.26 4.479,33.827 6.54,33.827C9.605,33.827 11.746,32.053 11.746,29.513L11.746,29.469C11.746,27.149 10.212,25.847 6.616,25.114Z" style="fill:white;fill-rule:nonzero;"/>
            <path d="M94.205,17.847L90.558,28.699L90.479,28.933L90.402,28.699L86.807,17.801L83.889,17.801L80.294,28.699L80.217,28.933L80.138,28.699L76.492,17.847L72.871,17.847L78.64,33.873L81.608,33.873L85.224,23.422L85.302,23.198L85.38,23.422L88.997,33.873L91.964,33.873L97.733,17.847L94.205,17.847Z" style="fill:white;fill-rule:nonzero;"/>
            <path d="M14.963,54.892C15.177,55.264 15.457,55.541 15.8,55.724C16.144,55.905 16.534,55.997 16.973,55.997C17.246,55.997 17.503,55.955 17.743,55.873C17.983,55.79 18.192,55.674 18.369,55.525C18.547,55.376 18.688,55.196 18.791,54.985C18.895,54.774 18.946,54.536 18.946,54.271C18.946,53.965 18.883,53.713 18.754,53.514C18.626,53.315 18.454,53.152 18.239,53.024C18.024,52.895 17.782,52.786 17.513,52.695C17.244,52.604 16.967,52.513 16.681,52.422C16.396,52.331 16.118,52.227 15.85,52.111C15.581,51.996 15.339,51.845 15.124,51.658C14.908,51.473 14.737,51.239 14.609,50.957C14.48,50.676 14.416,50.329 14.416,49.915C14.416,49.526 14.493,49.18 14.646,48.878C14.799,48.576 15.006,48.324 15.267,48.121C15.527,47.918 15.827,47.766 16.166,47.662C16.506,47.559 16.862,47.507 17.234,47.507C17.714,47.507 18.158,47.592 18.568,47.761C18.978,47.931 19.331,48.214 19.629,48.612L18.922,49.12C18.715,48.831 18.473,48.614 18.196,48.469C17.918,48.324 17.59,48.251 17.209,48.251C16.944,48.251 16.692,48.287 16.452,48.357C16.212,48.427 16.003,48.531 15.825,48.667C15.647,48.804 15.504,48.976 15.397,49.182C15.289,49.389 15.236,49.634 15.236,49.915C15.236,50.353 15.347,50.69 15.571,50.926C15.794,51.162 16.073,51.348 16.408,51.485C16.743,51.622 17.108,51.741 17.501,51.845C17.893,51.948 18.258,52.087 18.593,52.26C18.928,52.434 19.207,52.676 19.43,52.987C19.654,53.297 19.766,53.725 19.766,54.271C19.766,54.668 19.692,55.02 19.542,55.326C19.393,55.632 19.193,55.891 18.941,56.102C18.688,56.313 18.396,56.472 18.066,56.58C17.735,56.687 17.391,56.741 17.035,56.741C16.456,56.741 15.922,56.64 15.434,56.437C14.946,56.234 14.528,55.893 14.18,55.413L14.963,54.892Z" style="fill:white;fill-rule:nonzero;"/>
            <path d="M30.874,53.166C30.874,52.91 30.822,52.67 30.719,52.447C30.616,52.223 30.475,52.026 30.297,51.857C30.119,51.687 29.908,51.553 29.664,51.454C29.42,51.354 29.161,51.305 28.888,51.305C28.483,51.305 28.146,51.388 27.877,51.553C27.608,51.719 27.395,51.909 27.238,52.124C27.08,52.339 26.968,52.548 26.903,52.751C26.836,52.954 26.803,53.092 26.803,53.166L30.874,53.166ZM31.445,55.438C31.155,55.876 30.798,56.191 30.372,56.381C29.946,56.571 29.476,56.667 28.963,56.667C28.525,56.667 28.127,56.592 27.771,56.443C27.416,56.294 27.109,56.085 26.853,55.816C26.596,55.548 26.4,55.229 26.263,54.861C26.127,54.493 26.059,54.085 26.059,53.638C26.059,53.208 26.129,52.811 26.27,52.447C26.41,52.082 26.609,51.766 26.865,51.498C27.122,51.228 27.424,51.018 27.771,50.864C28.119,50.711 28.504,50.635 28.925,50.635C29.364,50.635 29.751,50.711 30.086,50.864C30.421,51.018 30.702,51.22 30.93,51.473C31.157,51.725 31.329,52.012 31.445,52.335C31.561,52.658 31.619,52.985 31.619,53.315L31.619,53.836L26.803,53.836C26.803,53.994 26.834,54.195 26.896,54.438C26.959,54.683 27.072,54.921 27.238,55.152C27.403,55.384 27.624,55.582 27.902,55.748C28.179,55.914 28.537,55.997 28.975,55.997C29.356,55.997 29.724,55.905 30.08,55.724C30.436,55.541 30.709,55.293 30.899,54.978L31.445,55.438Z" style="fill:white;fill-rule:nonzero;"/>
            <path d="M43.05,55.674C42.769,56.013 42.45,56.263 42.094,56.424C41.738,56.586 41.354,56.667 40.94,56.667C40.501,56.667 40.096,56.592 39.724,56.443C39.351,56.294 39.033,56.085 38.768,55.816C38.503,55.548 38.297,55.229 38.148,54.861C37.998,54.493 37.924,54.089 37.924,53.651C37.924,53.212 37.998,52.809 38.148,52.441C38.297,52.073 38.503,51.754 38.768,51.485C39.033,51.216 39.351,51.007 39.724,50.858C40.096,50.709 40.501,50.635 40.94,50.635C41.362,50.635 41.753,50.722 42.113,50.895C42.473,51.069 42.794,51.313 43.075,51.627L42.479,52.075C42.264,51.834 42.028,51.646 41.772,51.509C41.515,51.373 41.238,51.305 40.94,51.305C40.592,51.305 40.278,51.367 39.997,51.491C39.716,51.615 39.475,51.783 39.277,51.994C39.078,52.205 38.927,52.453 38.824,52.738C38.72,53.024 38.669,53.328 38.669,53.651C38.669,53.974 38.72,54.277 38.824,54.563C38.927,54.848 39.078,55.097 39.277,55.308C39.475,55.519 39.716,55.686 39.997,55.81C40.278,55.935 40.592,55.997 40.94,55.997C41.255,55.997 41.542,55.924 41.802,55.779C42.063,55.634 42.289,55.442 42.479,55.202L43.05,55.674Z" style="fill:white;fill-rule:nonzero;"/>
            <path d="M54.034,54.904C54.034,55.012 54.038,55.142 54.047,55.295C54.054,55.448 54.061,55.603 54.065,55.761C54.069,55.918 54.075,56.065 54.084,56.201C54.091,56.337 54.096,56.443 54.096,56.518L53.351,56.518C53.343,56.303 53.337,56.096 53.333,55.897C53.329,55.699 53.318,55.57 53.302,55.512L53.264,55.512C53.115,55.827 52.867,56.098 52.52,56.325C52.173,56.553 51.767,56.667 51.303,56.667C50.857,56.667 50.49,56.596 50.205,56.456C49.92,56.315 49.696,56.131 49.535,55.903C49.374,55.676 49.264,55.413 49.206,55.115C49.148,54.817 49.119,54.511 49.119,54.197L49.119,50.784L49.864,50.784L49.864,54.159C49.864,54.391 49.884,54.617 49.926,54.836C49.967,55.055 50.039,55.251 50.143,55.425C50.246,55.599 50.391,55.738 50.577,55.841C50.763,55.945 51.006,55.997 51.303,55.997C51.576,55.997 51.835,55.949 52.079,55.853C52.323,55.759 52.534,55.614 52.712,55.419C52.89,55.225 53.03,54.981 53.134,54.687C53.237,54.393 53.289,54.048 53.289,53.651L53.289,50.784L54.034,50.784L54.034,54.904Z" style="fill:white;fill-rule:nonzero;"/>
            <path d="M61.047,52.397C61.047,52.29 61.042,52.159 61.034,52.006C61.026,51.853 61.019,51.698 61.015,51.54C61.011,51.384 61.005,51.237 60.997,51.1C60.988,50.963 60.985,50.858 60.985,50.784L61.729,50.784C61.737,50.999 61.743,51.206 61.748,51.404C61.752,51.603 61.762,51.731 61.779,51.789C61.969,51.45 62.213,51.172 62.511,50.957C62.809,50.742 63.173,50.635 63.603,50.635C63.678,50.635 63.75,50.641 63.82,50.653C63.891,50.665 63.963,50.68 64.038,50.697L63.951,51.429C63.852,51.396 63.756,51.379 63.665,51.379C63.342,51.379 63.063,51.431 62.827,51.534C62.592,51.638 62.397,51.781 62.244,51.962C62.091,52.144 61.978,52.358 61.903,52.602C61.828,52.846 61.791,53.109 61.791,53.39L61.791,56.518L61.047,56.518L61.047,52.397Z" style="fill:white;fill-rule:nonzero;"/>
            <path d="M74.414,53.166C74.414,52.91 74.362,52.67 74.259,52.447C74.155,52.223 74.015,52.026 73.837,51.857C73.659,51.687 73.448,51.553 73.204,51.454C72.96,51.354 72.701,51.305 72.428,51.305C72.023,51.305 71.685,51.388 71.417,51.553C71.148,51.719 70.934,51.909 70.778,52.124C70.62,52.339 70.508,52.548 70.442,52.751C70.376,52.954 70.343,53.092 70.343,53.166L74.414,53.166ZM74.985,55.438C74.695,55.876 74.338,56.191 73.911,56.381C73.485,56.571 73.015,56.667 72.503,56.667C72.064,56.667 71.667,56.592 71.311,56.443C70.955,56.294 70.649,56.085 70.393,55.816C70.136,55.548 69.94,55.229 69.803,54.861C69.667,54.493 69.598,54.085 69.598,53.638C69.598,53.208 69.668,52.811 69.809,52.447C69.95,52.082 70.148,51.766 70.405,51.498C70.661,51.228 70.964,51.018 71.311,50.864C71.658,50.711 72.043,50.635 72.466,50.635C72.904,50.635 73.291,50.711 73.626,50.864C73.961,51.018 74.242,51.22 74.47,51.473C74.697,51.725 74.869,52.012 74.985,52.335C75.101,52.658 75.159,52.985 75.159,53.315L75.159,53.836L70.343,53.836C70.343,53.994 70.374,54.195 70.436,54.438C70.498,54.683 70.612,54.921 70.778,55.152C70.943,55.384 71.164,55.582 71.441,55.748C71.718,55.914 72.076,55.997 72.515,55.997C72.896,55.997 73.264,55.905 73.619,55.724C73.975,55.541 74.248,55.293 74.439,54.978L74.985,55.438Z" style="fill:white;fill-rule:nonzero;"/>
            <path d="M81.998,47.73L87.26,47.73L87.26,48.475L82.817,48.475L82.817,51.603L86.95,51.603L86.95,52.347L82.817,52.347L82.817,56.518L81.998,56.518L81.998,47.73Z" style="fill:white;fill-rule:nonzero;"/>
            <path d="M93.776,50.784L94.521,50.784L94.521,56.518L93.776,56.518L93.776,50.784ZM93.59,48.512C93.59,48.355 93.644,48.223 93.752,48.115C93.859,48.007 93.991,47.954 94.148,47.954C94.305,47.954 94.438,48.007 94.546,48.115C94.653,48.223 94.707,48.355 94.707,48.512C94.707,48.669 94.653,48.802 94.546,48.91C94.438,49.017 94.305,49.071 94.148,49.071C93.991,49.071 93.859,49.017 93.752,48.91C93.644,48.802 93.59,48.669 93.59,48.512Z" style="fill:white;fill-rule:nonzero;"/>
            <path d="M101.595,52.397C101.595,52.29 101.591,52.159 101.583,52.006C101.575,51.853 101.569,51.698 101.565,51.54C101.56,51.384 101.554,51.237 101.546,51.1C101.537,50.963 101.533,50.858 101.533,50.784L102.278,50.784C102.286,50.999 102.293,51.206 102.297,51.404C102.301,51.603 102.311,51.731 102.328,51.789C102.518,51.45 102.762,51.172 103.06,50.957C103.358,50.742 103.722,50.635 104.152,50.635C104.227,50.635 104.299,50.641 104.37,50.653C104.44,50.665 104.512,50.68 104.587,50.697L104.5,51.429C104.401,51.396 104.305,51.379 104.215,51.379C103.892,51.379 103.612,51.431 103.377,51.534C103.141,51.638 102.946,51.781 102.794,51.962C102.64,52.144 102.526,52.358 102.452,52.602C102.377,52.846 102.34,53.109 102.34,53.39L102.34,56.518L101.595,56.518L101.595,52.397Z" style="fill:white;fill-rule:nonzero;"/>
            <path d="M110.706,55.053C110.863,55.359 111.094,55.593 111.401,55.754C111.707,55.916 112.029,55.997 112.369,55.997C112.526,55.997 112.683,55.971 112.84,55.922C112.998,55.873 113.138,55.802 113.262,55.711C113.386,55.62 113.488,55.51 113.566,55.382C113.645,55.254 113.684,55.107 113.684,54.941C113.684,54.676 113.6,54.478 113.43,54.346C113.26,54.213 113.051,54.11 112.803,54.036C112.555,53.961 112.282,53.896 111.984,53.843C111.686,53.789 111.413,53.706 111.165,53.595C110.916,53.483 110.707,53.328 110.538,53.129C110.368,52.931 110.283,52.649 110.283,52.285C110.283,52.004 110.341,51.76 110.457,51.553C110.573,51.346 110.724,51.175 110.91,51.038C111.097,50.901 111.305,50.8 111.537,50.734C111.769,50.667 112.005,50.635 112.244,50.635C112.716,50.635 113.124,50.722 113.467,50.895C113.81,51.069 114.077,51.342 114.268,51.714L113.597,52.111C113.457,51.847 113.281,51.646 113.07,51.509C112.859,51.373 112.584,51.305 112.244,51.305C112.112,51.305 111.973,51.326 111.829,51.367C111.684,51.408 111.554,51.466 111.438,51.54C111.322,51.615 111.225,51.71 111.146,51.826C111.068,51.942 111.028,52.075 111.028,52.223C111.028,52.479 111.113,52.67 111.282,52.794C111.452,52.918 111.661,53.016 111.91,53.085C112.158,53.156 112.431,53.216 112.729,53.266C113.027,53.315 113.299,53.396 113.548,53.508C113.796,53.62 114.005,53.781 114.175,53.992C114.344,54.203 114.429,54.503 114.429,54.892C114.429,55.189 114.373,55.448 114.261,55.667C114.15,55.887 113.996,56.071 113.802,56.22C113.608,56.369 113.386,56.48 113.138,56.555C112.89,56.629 112.63,56.667 112.356,56.667C111.86,56.667 111.407,56.571 110.997,56.381C110.588,56.191 110.271,55.897 110.048,55.5L110.706,55.053Z" style="fill:white;fill-rule:nonzero;"/>
            <path d="M123.75,51.454L122.112,51.454L122.112,55.189C122.112,55.446 122.182,55.644 122.323,55.786C122.464,55.926 122.658,55.997 122.906,55.997C123.047,55.997 123.19,55.978 123.335,55.94C123.479,55.903 123.618,55.856 123.75,55.798L123.812,56.468C123.672,56.518 123.51,56.563 123.328,56.604C123.146,56.646 122.985,56.667 122.844,56.667C122.579,56.667 122.352,56.627 122.162,56.549C121.971,56.47 121.818,56.365 121.702,56.232C121.587,56.1 121.502,55.945 121.448,55.767C121.394,55.589 121.367,55.396 121.367,55.189L121.367,51.454L120.126,51.454L120.126,50.784L121.367,50.784L121.367,49.133L122.112,49.133L122.112,50.784L123.75,50.784L123.75,51.454Z" style="fill:white;fill-rule:nonzero;"/>
            <path d="M136.883,42.947L1.056,42.947C0.985,42.947 0.927,42.889 0.927,42.817C0.927,42.746 0.985,42.688 1.056,42.688L136.883,42.688C136.954,42.688 137.012,42.746 137.012,42.817C137.012,42.889 136.954,42.947 136.883,42.947Z" style="fill:white;fill-rule:nonzero;"/>
            <path d="M3.888,52.139C3.888,52.939 3.24,53.588 2.439,53.588C1.639,53.588 0.99,52.939 0.99,52.139C0.99,51.339 1.639,50.69 2.439,50.69C3.24,50.69 3.888,51.339 3.888,52.139Z" style="fill:white;fill-rule:nonzero;"/>
            <path d="M136.942,52.139C136.942,52.939 136.294,53.588 135.493,53.588C134.693,53.588 134.044,52.939 134.044,52.139C134.044,51.339 134.693,50.69 135.493,50.69C136.294,50.69 136.942,51.339 136.942,52.139Z" style="fill:white;fill-rule:nonzero;"/>
            <path d="M139.188,18.925C139.262,18.925 139.322,18.919 139.368,18.907C139.415,18.894 139.451,18.876 139.478,18.852C139.504,18.828 139.522,18.798 139.532,18.762C139.542,18.727 139.547,18.686 139.547,18.64C139.547,18.596 139.543,18.558 139.534,18.524C139.526,18.49 139.509,18.462 139.486,18.44C139.463,18.418 139.43,18.402 139.389,18.391C139.347,18.38 139.294,18.375 139.228,18.375L139,18.375L139,18.925L139.188,18.925ZM139.228,18.029C139.495,18.029 139.69,18.076 139.814,18.172C139.939,18.268 140.001,18.404 140.001,18.582C140.001,18.709 139.968,18.82 139.902,18.915C139.837,19.01 139.735,19.079 139.596,19.122C139.628,19.142 139.654,19.165 139.676,19.193C139.699,19.221 139.719,19.253 139.739,19.29L140.127,19.947L139.688,19.947C139.624,19.947 139.579,19.924 139.553,19.876L139.245,19.314C139.231,19.294 139.215,19.279 139.197,19.268C139.18,19.258 139.153,19.252 139.117,19.252L139,19.252L139,19.947L138.54,19.947L138.54,18.029L139.228,18.029ZM139.237,20.317C139.358,20.317 139.474,20.302 139.586,20.27C139.696,20.239 139.8,20.195 139.897,20.138C139.993,20.081 140.081,20.012 140.16,19.932C140.239,19.852 140.306,19.764 140.362,19.665C140.418,19.566 140.461,19.461 140.491,19.349C140.522,19.236 140.537,19.117 140.537,18.993C140.537,18.87 140.522,18.75 140.491,18.636C140.461,18.522 140.418,18.415 140.362,18.316C140.306,18.217 140.239,18.127 140.16,18.047C140.081,17.966 139.993,17.897 139.897,17.839C139.8,17.781 139.696,17.737 139.586,17.706C139.474,17.674 139.358,17.659 139.237,17.659C139.115,17.659 139,17.674 138.89,17.706C138.78,17.737 138.678,17.781 138.582,17.839C138.487,17.897 138.4,17.966 138.322,18.047C138.245,18.127 138.178,18.217 138.122,18.316C138.067,18.415 138.024,18.522 137.994,18.636C137.964,18.75 137.949,18.87 137.949,18.993C137.949,19.179 137.983,19.352 138.049,19.513C138.115,19.674 138.206,19.814 138.321,19.933C138.437,20.052 138.573,20.146 138.73,20.215C138.887,20.283 139.056,20.317 139.237,20.317ZM139.237,17.413C139.382,17.413 139.523,17.432 139.657,17.469C139.792,17.507 139.918,17.56 140.035,17.628C140.152,17.697 140.258,17.779 140.355,17.876C140.451,17.972 140.533,18.079 140.601,18.195C140.67,18.312 140.723,18.438 140.761,18.573C140.799,18.708 140.818,18.848 140.818,18.993C140.818,19.138 140.799,19.277 140.761,19.412C140.723,19.546 140.67,19.672 140.601,19.788C140.533,19.904 140.451,20.01 140.355,20.107C140.258,20.203 140.152,20.285 140.035,20.353C139.918,20.422 139.792,20.476 139.657,20.513C139.523,20.551 139.382,20.57 139.237,20.57C139.091,20.57 138.951,20.551 138.818,20.513C138.683,20.476 138.559,20.422 138.442,20.353C138.326,20.285 138.22,20.203 138.124,20.107C138.027,20.01 137.945,19.904 137.877,19.788C137.808,19.672 137.755,19.546 137.717,19.413C137.679,19.278 137.66,19.139 137.66,18.993C137.66,18.848 137.679,18.708 137.717,18.573C137.755,18.438 137.808,18.312 137.877,18.195C137.945,18.079 138.027,17.972 138.124,17.876C138.22,17.779 138.326,17.697 138.442,17.628C138.559,17.56 138.683,17.507 138.818,17.469C138.951,17.432 139.091,17.413 139.237,17.413Z" style="fill:white;fill-rule:nonzero;"/>
            <path d="M193.24,26.209L193.241,26.208C194.201,25.132 194.787,23.715 194.782,22.159C194.771,19.037 192.401,16.476 189.366,16.154L189.366,28.202C190.902,28.038 192.265,27.302 193.24,26.209Z" style="fill:white;fill-rule:nonzero;"/>
            <path d="M189.366,2.658L189.366,12.917L189.419,12.917L190.356,11.362L191.95,11.727L192.118,13.535L193.368,14.138L194.887,13.143L196.166,14.163L195.532,15.865L196.398,16.951L198.197,16.714L198.906,18.187L197.598,19.446L197.906,20.8L199.631,21.367L199.63,23.002L197.904,23.568L197.595,24.922L198.902,26.182L198.193,27.655L196.393,27.416L195.527,28.501L196.158,30.204L194.879,31.223L193.36,30.227L192.11,30.828L191.94,32.636L190.345,32.999L189.41,31.443L189.366,31.443L189.366,41.598L206.764,32.52L206.764,11.736L189.366,2.658Z" style="fill:white;fill-rule:nonzero;"/>
            <path d="M182.658,22.201C182.664,23.775 183.274,25.203 184.262,26.277C185.242,27.343 186.595,28.059 188.116,28.21L188.116,16.149C185.043,16.454 182.648,19.05 182.658,22.201Z" style="fill:white;fill-rule:nonzero;"/>
            <path d="M188.022,31.442L187.085,32.998L185.49,32.633L185.322,30.825L184.072,30.222L182.553,31.217L181.275,30.196L181.908,28.495L181.043,27.409L179.242,27.645L178.533,26.172L179.842,24.914L179.534,23.56L177.809,22.992L177.81,21.357L179.535,20.791L179.845,19.437L178.537,18.178L179.248,16.705L181.048,16.943L181.914,15.858L181.282,14.156L182.561,13.137L184.079,14.133L185.33,13.531L185.5,11.724L187.094,11.36L188.03,12.916L188.116,12.916L188.116,2.683L170.764,11.736L170.764,32.52L188.116,41.573L188.116,31.442L188.022,31.442Z" style="fill:white;fill-rule:nonzero;"/>
        </g>
    </g>
</svg>
