<?xml version="1.0" encoding="UTF-8" standalone="no"?>
<!DOCTYPE svg PUBLIC "-//W3C//DTD SVG 1.1//EN" "http://www.w3.org/Graphics/SVG/1.1/DTD/svg11.dtd">
<svg width="100%" height="100%" viewBox="0 0 187 55" version="1.1" xmlns="http://www.w3.org/2000/svg" xmlns:xlink="http://www.w3.org/1999/xlink" xml:space="preserve" xmlns:serif="http://www.serif.com/" style="fill-rule:evenodd;clip-rule:evenodd;stroke-linejoin:round;stroke-miterlimit:1.41421;">
    <g transform="matrix(1,0,0,1,-822,-226)">
        <g transform="matrix(1,0,0,1,-0.684275,0)">
            <g id="Ransomware-WC" serif:id="Ransomware WC" transform="matrix(1,0,0,1,-1.41809,-62.9799)">
                <g transform="matrix(1.01778,0,0,1.03342,-10.6931,122.652)">
                    <path d="M1003.12,164.016C1003.12,162.554 1001.91,161.366 1000.42,161.366L822.946,161.366C821.461,161.366 820.256,162.554 820.256,164.016L820.256,210.889C820.256,212.352 821.461,213.539 822.946,213.539L1000.42,213.539C1001.91,213.539 1003.12,212.352 1003.12,210.889L1003.12,164.016Z" style="fill:rgb(185,185,185);"/>
                </g>
                <g transform="matrix(1,0,0,1,5.20913,7.65139)">
                    <path d="M850.026,302.988C850.119,303.135 850.166,303.288 850.166,303.448C850.166,303.648 850.089,303.811 849.936,303.938C849.783,304.065 849.606,304.128 849.406,304.128C849.099,304.128 848.859,303.995 848.686,303.728L846.006,299.488C845.659,298.941 845.299,298.565 844.926,298.358C844.553,298.151 844.046,298.048 843.406,298.048L840.886,298.048L840.886,303.268C840.886,303.521 840.813,303.725 840.666,303.878C840.519,304.031 840.326,304.108 840.086,304.108C839.833,304.108 839.633,304.031 839.486,303.878C839.339,303.725 839.266,303.521 839.266,303.268L839.266,290.708C839.266,290.468 839.343,290.275 839.496,290.128C839.649,289.981 839.853,289.908 840.106,289.908L845.066,289.908C846.599,289.908 847.769,290.248 848.576,290.928C849.383,291.608 849.786,292.608 849.786,293.928C849.786,295.048 849.463,295.948 848.816,296.628C848.169,297.308 847.246,297.721 846.046,297.868C846.379,297.975 846.679,298.148 846.946,298.388C847.213,298.628 847.479,298.961 847.746,299.388L850.026,302.988ZM844.926,296.688C846.019,296.688 846.836,296.461 847.376,296.008C847.916,295.555 848.186,294.868 848.186,293.948C848.186,293.041 847.919,292.368 847.386,291.928C846.853,291.488 846.033,291.268 844.926,291.268L840.886,291.268L840.886,296.688L844.926,296.688Z" style="fill:white;fill-rule:nonzero;"/>
                    <path d="M865.006,303.068C865.059,303.175 865.086,303.288 865.086,303.408C865.086,303.608 865.009,303.775 864.856,303.908C864.703,304.041 864.519,304.108 864.306,304.108C863.973,304.108 863.739,303.948 863.606,303.628L862.186,300.388L854.646,300.388L853.206,303.628C853.073,303.948 852.839,304.108 852.506,304.108C852.293,304.108 852.106,304.038 851.946,303.898C851.786,303.758 851.706,303.588 851.706,303.388C851.706,303.281 851.733,303.175 851.786,303.068L857.506,290.348C857.586,290.161 857.706,290.021 857.866,289.928C858.026,289.835 858.199,289.788 858.386,289.788C858.586,289.788 858.766,289.838 858.926,289.938C859.086,290.038 859.206,290.175 859.286,290.348L865.006,303.068ZM855.246,299.028L861.586,299.028L858.406,291.848L855.246,299.028Z" style="fill:white;fill-rule:nonzero;"/>
                    <path d="M877.946,289.808C878.186,289.808 878.373,289.885 878.506,290.038C878.639,290.191 878.706,290.395 878.706,290.648L878.706,303.268C878.706,303.521 878.636,303.725 878.496,303.878C878.356,304.031 878.159,304.108 877.906,304.108C877.653,304.108 877.433,303.995 877.246,303.768L868.946,292.668L868.946,303.268C868.946,303.521 868.876,303.725 868.736,303.878C868.596,304.031 868.406,304.108 868.166,304.108C867.926,304.108 867.739,304.031 867.606,303.878C867.473,303.725 867.406,303.521 867.406,303.268L867.406,290.648C867.406,290.395 867.476,290.191 867.616,290.038C867.756,289.885 867.953,289.808 868.206,289.808C868.473,289.808 868.699,289.921 868.886,290.148L877.166,301.248L877.166,290.648C877.166,290.395 877.236,290.191 877.376,290.038C877.516,289.885 877.706,289.808 877.946,289.808Z" style="fill:white;fill-rule:nonzero;"/>
                    <path d="M886.686,304.168C885.686,304.168 884.729,304.018 883.816,303.718C882.903,303.418 882.173,303.015 881.626,302.508C881.426,302.321 881.326,302.088 881.326,301.808C881.326,301.621 881.379,301.458 881.486,301.318C881.593,301.178 881.719,301.108 881.866,301.108C882.039,301.108 882.226,301.181 882.426,301.328C883.666,302.288 885.079,302.768 886.666,302.768C887.813,302.768 888.693,302.548 889.306,302.108C889.919,301.668 890.226,301.041 890.226,300.228C890.226,299.761 890.079,299.385 889.786,299.098C889.493,298.811 889.106,298.581 888.626,298.408C888.146,298.235 887.499,298.055 886.686,297.868C885.593,297.615 884.696,297.348 883.996,297.068C883.296,296.788 882.729,296.388 882.296,295.868C881.863,295.348 881.646,294.668 881.646,293.828C881.646,293.028 881.863,292.318 882.296,291.698C882.729,291.078 883.336,290.598 884.116,290.258C884.896,289.918 885.786,289.748 886.786,289.748C887.719,289.748 888.589,289.891 889.396,290.178C890.203,290.465 890.879,290.875 891.426,291.408C891.639,291.621 891.746,291.855 891.746,292.108C891.746,292.295 891.693,292.458 891.586,292.598C891.479,292.738 891.353,292.808 891.206,292.808C891.059,292.808 890.866,292.735 890.626,292.588C889.973,292.055 889.366,291.681 888.806,291.468C888.246,291.255 887.573,291.148 886.786,291.148C885.679,291.148 884.819,291.378 884.206,291.838C883.593,292.298 883.286,292.941 883.286,293.768C883.286,294.475 883.556,295.005 884.096,295.358C884.636,295.711 885.466,296.021 886.586,296.288C887.799,296.581 888.753,296.851 889.446,297.098C890.139,297.345 890.716,297.715 891.176,298.208C891.636,298.701 891.866,299.361 891.866,300.188C891.866,300.975 891.649,301.668 891.216,302.268C890.783,302.868 890.173,303.335 889.386,303.668C888.599,304.001 887.699,304.168 886.686,304.168Z" style="fill:white;fill-rule:nonzero;"/>
                    <path d="M900.426,304.168C899.119,304.168 897.983,303.875 897.016,303.288C896.049,302.701 895.306,301.868 894.786,300.788C894.266,299.708 894.006,298.435 894.006,296.968C894.006,295.488 894.263,294.205 894.776,293.118C895.289,292.031 896.029,291.198 896.996,290.618C897.963,290.038 899.106,289.748 900.426,289.748C901.746,289.748 902.889,290.038 903.856,290.618C904.823,291.198 905.563,292.031 906.076,293.118C906.589,294.205 906.846,295.481 906.846,296.948C906.846,298.415 906.586,299.691 906.066,300.778C905.546,301.865 904.803,302.701 903.836,303.288C902.869,303.875 901.733,304.168 900.426,304.168ZM900.426,302.768C901.919,302.768 903.083,302.265 903.916,301.258C904.749,300.251 905.166,298.815 905.166,296.948C905.166,295.081 904.753,293.648 903.926,292.648C903.099,291.648 901.933,291.148 900.426,291.148C898.933,291.148 897.769,291.651 896.936,292.658C896.103,293.665 895.686,295.095 895.686,296.948C895.686,298.801 896.103,300.235 896.936,301.248C897.769,302.261 898.933,302.768 900.426,302.768Z" style="fill:white;fill-rule:nonzero;"/>
                    <path d="M922.326,289.808C922.579,289.808 922.776,289.885 922.916,290.038C923.056,290.191 923.126,290.395 923.126,290.648L923.126,303.308C923.126,303.548 923.059,303.741 922.926,303.888C922.793,304.035 922.606,304.108 922.366,304.108C922.126,304.108 921.946,304.035 921.826,303.888C921.706,303.741 921.646,303.548 921.646,303.308L921.646,293.088L917.306,301.408C917.119,301.795 916.846,301.988 916.486,301.988C916.139,301.988 915.866,301.795 915.666,301.408L911.306,293.188L911.306,303.308C911.306,303.548 911.243,303.741 911.116,303.888C910.989,304.035 910.806,304.108 910.566,304.108C910.326,304.108 910.139,304.035 910.006,303.888C909.873,303.741 909.806,303.548 909.806,303.308L909.806,290.648C909.806,290.395 909.879,290.191 910.026,290.038C910.173,289.885 910.373,289.808 910.626,289.808C910.959,289.808 911.226,290.001 911.426,290.388L916.506,300.128L921.526,290.388C921.633,290.175 921.749,290.025 921.876,289.938C922.003,289.851 922.153,289.808 922.326,289.808Z" style="fill:white;fill-rule:nonzero;"/>
                    <path d="M944.646,290.308C944.699,290.135 944.793,290.005 944.926,289.918C945.059,289.831 945.206,289.788 945.366,289.788C945.579,289.788 945.763,289.851 945.916,289.978C946.069,290.105 946.146,290.275 946.146,290.488C946.146,290.581 946.126,290.688 946.086,290.808L941.566,303.548C941.499,303.735 941.386,303.878 941.226,303.978C941.066,304.078 940.886,304.128 940.686,304.128C940.499,304.128 940.326,304.078 940.166,303.978C940.006,303.878 939.893,303.735 939.826,303.548L935.906,292.468L931.946,303.548C931.879,303.735 931.766,303.878 931.606,303.978C931.446,304.078 931.273,304.128 931.086,304.128C930.899,304.128 930.726,304.078 930.566,303.978C930.406,303.878 930.293,303.735 930.226,303.548L925.686,290.808C925.646,290.701 925.626,290.601 925.626,290.508C925.626,290.295 925.709,290.121 925.876,289.988C926.043,289.855 926.233,289.788 926.446,289.788C926.606,289.788 926.756,289.831 926.896,289.918C927.036,290.005 927.133,290.135 927.186,290.308L931.126,301.668L935.126,290.428C935.193,290.228 935.299,290.078 935.446,289.978C935.593,289.878 935.753,289.828 935.926,289.828C936.099,289.828 936.259,289.881 936.406,289.988C936.553,290.095 936.659,290.248 936.726,290.448L940.666,301.708L944.646,290.308Z" style="fill:white;fill-rule:nonzero;"/>
                    <path d="M959.526,303.068C959.579,303.175 959.606,303.288 959.606,303.408C959.606,303.608 959.529,303.775 959.376,303.908C959.223,304.041 959.039,304.108 958.826,304.108C958.493,304.108 958.259,303.948 958.126,303.628L956.706,300.388L949.166,300.388L947.726,303.628C947.593,303.948 947.359,304.108 947.026,304.108C946.813,304.108 946.626,304.038 946.466,303.898C946.306,303.758 946.226,303.588 946.226,303.388C946.226,303.281 946.253,303.175 946.306,303.068L952.026,290.348C952.106,290.161 952.226,290.021 952.386,289.928C952.546,289.835 952.719,289.788 952.906,289.788C953.106,289.788 953.286,289.838 953.446,289.938C953.606,290.038 953.726,290.175 953.806,290.348L959.526,303.068ZM949.766,299.028L956.106,299.028L952.926,291.848L949.766,299.028Z" style="fill:white;fill-rule:nonzero;"/>
                    <path d="M972.686,302.988C972.779,303.135 972.826,303.288 972.826,303.448C972.826,303.648 972.749,303.811 972.596,303.938C972.443,304.065 972.266,304.128 972.066,304.128C971.759,304.128 971.519,303.995 971.346,303.728L968.666,299.488C968.319,298.941 967.959,298.565 967.586,298.358C967.213,298.151 966.706,298.048 966.066,298.048L963.546,298.048L963.546,303.268C963.546,303.521 963.473,303.725 963.326,303.878C963.179,304.031 962.986,304.108 962.746,304.108C962.493,304.108 962.293,304.031 962.146,303.878C961.999,303.725 961.926,303.521 961.926,303.268L961.926,290.708C961.926,290.468 962.003,290.275 962.156,290.128C962.309,289.981 962.513,289.908 962.766,289.908L967.726,289.908C969.259,289.908 970.429,290.248 971.236,290.928C972.043,291.608 972.446,292.608 972.446,293.928C972.446,295.048 972.123,295.948 971.476,296.628C970.829,297.308 969.906,297.721 968.706,297.868C969.039,297.975 969.339,298.148 969.606,298.388C969.873,298.628 970.139,298.961 970.406,299.388L972.686,302.988ZM967.586,296.688C968.679,296.688 969.496,296.461 970.036,296.008C970.576,295.555 970.846,294.868 970.846,293.948C970.846,293.041 970.579,292.368 970.046,291.928C969.513,291.488 968.693,291.268 967.586,291.268L963.546,291.268L963.546,296.688L967.586,296.688Z" style="fill:white;fill-rule:nonzero;"/>
                    <path d="M976.486,304.008C976.233,304.008 976.029,303.935 975.876,303.788C975.723,303.641 975.646,303.448 975.646,303.208L975.646,290.708C975.646,290.468 975.723,290.275 975.876,290.128C976.029,289.981 976.233,289.908 976.486,289.908L983.966,289.908C984.206,289.908 984.393,289.968 984.526,290.088C984.659,290.208 984.726,290.375 984.726,290.588C984.726,290.801 984.659,290.968 984.526,291.088C984.393,291.208 984.206,291.268 983.966,291.268L977.266,291.268L977.266,296.168L983.566,296.168C983.806,296.168 983.993,296.228 984.126,296.348C984.259,296.468 984.326,296.635 984.326,296.848C984.326,297.061 984.259,297.228 984.126,297.348C983.993,297.468 983.806,297.528 983.566,297.528L977.266,297.528L977.266,302.648L983.966,302.648C984.206,302.648 984.393,302.705 984.526,302.818C984.659,302.931 984.726,303.101 984.726,303.328C984.726,303.541 984.659,303.708 984.526,303.828C984.393,303.948 984.206,304.008 983.966,304.008L976.486,304.008Z" style="fill:white;fill-rule:nonzero;"/>
                    <path d="M883.146,310.308C883.199,310.135 883.293,310.005 883.426,309.918C883.559,309.831 883.706,309.788 883.866,309.788C884.079,309.788 884.263,309.851 884.416,309.978C884.569,310.105 884.646,310.275 884.646,310.488C884.646,310.581 884.626,310.688 884.586,310.808L880.066,323.548C879.999,323.735 879.886,323.878 879.726,323.978C879.566,324.078 879.386,324.128 879.186,324.128C878.999,324.128 878.826,324.078 878.666,323.978C878.506,323.878 878.393,323.735 878.326,323.548L874.406,312.468L870.446,323.548C870.379,323.735 870.266,323.878 870.106,323.978C869.946,324.078 869.773,324.128 869.586,324.128C869.399,324.128 869.226,324.078 869.066,323.978C868.906,323.878 868.793,323.735 868.726,323.548L864.186,310.808C864.146,310.701 864.126,310.601 864.126,310.508C864.126,310.295 864.209,310.121 864.376,309.988C864.543,309.855 864.733,309.788 864.946,309.788C865.106,309.788 865.256,309.831 865.396,309.918C865.536,310.005 865.633,310.135 865.686,310.308L869.626,321.668L873.626,310.428C873.693,310.228 873.799,310.078 873.946,309.978C874.093,309.878 874.253,309.828 874.426,309.828C874.599,309.828 874.759,309.881 874.906,309.988C875.053,310.095 875.159,310.248 875.226,310.448L879.166,321.708L883.146,310.308Z" style="fill:white;fill-rule:nonzero;"/>
                    <path d="M889.766,314.028C892.206,314.028 893.426,315.308 893.426,317.868L893.426,323.308C893.426,323.548 893.356,323.741 893.216,323.888C893.076,324.035 892.886,324.108 892.646,324.108C892.406,324.108 892.213,324.035 892.066,323.888C891.919,323.741 891.846,323.548 891.846,323.308L891.846,322.348C891.593,322.921 891.206,323.365 890.686,323.678C890.166,323.991 889.566,324.148 888.886,324.148C888.259,324.148 887.683,324.021 887.156,323.768C886.629,323.515 886.213,323.161 885.906,322.708C885.599,322.255 885.446,321.755 885.446,321.208C885.446,320.475 885.633,319.905 886.006,319.498C886.379,319.091 886.993,318.798 887.846,318.618C888.699,318.438 889.886,318.348 891.406,318.348L891.846,318.348L891.846,317.688C891.846,316.888 891.683,316.301 891.356,315.928C891.029,315.555 890.499,315.368 889.766,315.368C888.859,315.368 887.939,315.615 887.006,316.108C886.646,316.335 886.393,316.448 886.246,316.448C886.086,316.448 885.953,316.388 885.846,316.268C885.739,316.148 885.686,315.995 885.686,315.808C885.686,315.621 885.743,315.458 885.856,315.318C885.969,315.178 886.153,315.035 886.406,314.888C886.873,314.621 887.403,314.411 887.996,314.258C888.589,314.105 889.179,314.028 889.766,314.028ZM889.106,322.868C889.906,322.868 890.563,322.598 891.076,322.058C891.589,321.518 891.846,320.821 891.846,319.968L891.846,319.388L891.486,319.388C890.313,319.388 889.419,319.438 888.806,319.538C888.193,319.638 887.756,319.805 887.496,320.038C887.236,320.271 887.106,320.615 887.106,321.068C887.106,321.588 887.296,322.018 887.676,322.358C888.056,322.698 888.533,322.868 889.106,322.868Z" style="fill:white;fill-rule:nonzero;"/>
                    <path d="M901.286,314.028C903.619,314.028 904.786,315.315 904.786,317.888L904.786,323.308C904.786,323.561 904.716,323.758 904.576,323.898C904.436,324.038 904.239,324.108 903.986,324.108C903.733,324.108 903.533,324.038 903.386,323.898C903.239,323.758 903.166,323.561 903.166,323.308L903.166,317.988C903.166,317.081 902.989,316.421 902.636,316.008C902.283,315.595 901.719,315.388 900.946,315.388C900.053,315.388 899.339,315.661 898.806,316.208C898.273,316.755 898.006,317.495 898.006,318.428L898.006,323.308C898.006,323.561 897.936,323.758 897.796,323.898C897.656,324.038 897.459,324.108 897.206,324.108C896.953,324.108 896.753,324.038 896.606,323.898C896.459,323.758 896.386,323.561 896.386,323.308L896.386,314.868C896.386,314.628 896.459,314.435 896.606,314.288C896.753,314.141 896.953,314.068 897.206,314.068C897.446,314.068 897.636,314.141 897.776,314.288C897.916,314.435 897.986,314.621 897.986,314.848L897.986,315.868C898.306,315.268 898.753,314.811 899.326,314.498C899.899,314.185 900.553,314.028 901.286,314.028Z" style="fill:white;fill-rule:nonzero;"/>
                    <path d="M912.646,314.028C914.979,314.028 916.146,315.315 916.146,317.888L916.146,323.308C916.146,323.561 916.076,323.758 915.936,323.898C915.796,324.038 915.599,324.108 915.346,324.108C915.093,324.108 914.893,324.038 914.746,323.898C914.599,323.758 914.526,323.561 914.526,323.308L914.526,317.988C914.526,317.081 914.349,316.421 913.996,316.008C913.643,315.595 913.079,315.388 912.306,315.388C911.413,315.388 910.699,315.661 910.166,316.208C909.633,316.755 909.366,317.495 909.366,318.428L909.366,323.308C909.366,323.561 909.296,323.758 909.156,323.898C909.016,324.038 908.819,324.108 908.566,324.108C908.313,324.108 908.113,324.038 907.966,323.898C907.819,323.758 907.746,323.561 907.746,323.308L907.746,314.868C907.746,314.628 907.819,314.435 907.966,314.288C908.113,314.141 908.313,314.068 908.566,314.068C908.806,314.068 908.996,314.141 909.136,314.288C909.276,314.435 909.346,314.621 909.346,314.848L909.346,315.868C909.666,315.268 910.113,314.811 910.686,314.498C911.259,314.185 911.913,314.028 912.646,314.028Z" style="fill:white;fill-rule:nonzero;"/>
                    <path d="M923.086,314.028C925.526,314.028 926.746,315.308 926.746,317.868L926.746,323.308C926.746,323.548 926.676,323.741 926.536,323.888C926.396,324.035 926.206,324.108 925.966,324.108C925.726,324.108 925.533,324.035 925.386,323.888C925.239,323.741 925.166,323.548 925.166,323.308L925.166,322.348C924.913,322.921 924.526,323.365 924.006,323.678C923.486,323.991 922.886,324.148 922.206,324.148C921.579,324.148 921.003,324.021 920.476,323.768C919.949,323.515 919.533,323.161 919.226,322.708C918.919,322.255 918.766,321.755 918.766,321.208C918.766,320.475 918.953,319.905 919.326,319.498C919.699,319.091 920.313,318.798 921.166,318.618C922.019,318.438 923.206,318.348 924.726,318.348L925.166,318.348L925.166,317.688C925.166,316.888 925.003,316.301 924.676,315.928C924.349,315.555 923.819,315.368 923.086,315.368C922.179,315.368 921.259,315.615 920.326,316.108C919.966,316.335 919.713,316.448 919.566,316.448C919.406,316.448 919.273,316.388 919.166,316.268C919.059,316.148 919.006,315.995 919.006,315.808C919.006,315.621 919.063,315.458 919.176,315.318C919.289,315.178 919.473,315.035 919.726,314.888C920.193,314.621 920.723,314.411 921.316,314.258C921.909,314.105 922.499,314.028 923.086,314.028ZM922.426,322.868C923.226,322.868 923.883,322.598 924.396,322.058C924.909,321.518 925.166,320.821 925.166,319.968L925.166,319.388L924.806,319.388C923.633,319.388 922.739,319.438 922.126,319.538C921.513,319.638 921.076,319.805 920.816,320.038C920.556,320.271 920.426,320.615 920.426,321.068C920.426,321.588 920.616,322.018 920.996,322.358C921.376,322.698 921.853,322.868 922.426,322.868Z" style="fill:white;fill-rule:nonzero;"/>
                    <path d="M935.926,324.168C934.593,324.168 933.439,323.878 932.466,323.298C931.493,322.718 930.743,321.885 930.216,320.798C929.689,319.711 929.426,318.428 929.426,316.948C929.426,315.481 929.689,314.205 930.216,313.118C930.743,312.031 931.493,311.198 932.466,310.618C933.439,310.038 934.593,309.748 935.926,309.748C936.819,309.748 937.663,309.891 938.456,310.178C939.249,310.465 939.939,310.875 940.526,311.408C940.739,311.608 940.846,311.841 940.846,312.108C940.846,312.295 940.793,312.458 940.686,312.598C940.579,312.738 940.453,312.808 940.306,312.808C940.146,312.808 939.953,312.735 939.726,312.588C939.046,312.055 938.429,311.681 937.876,311.468C937.323,311.255 936.686,311.148 935.966,311.148C934.419,311.148 933.229,311.651 932.396,312.658C931.563,313.665 931.146,315.095 931.146,316.948C931.146,318.815 931.563,320.251 932.396,321.258C933.229,322.265 934.419,322.768 935.966,322.768C936.673,322.768 937.306,322.661 937.866,322.448C938.426,322.235 939.046,321.861 939.726,321.328C939.953,321.181 940.146,321.108 940.306,321.108C940.453,321.108 940.579,321.175 940.686,321.308C940.793,321.441 940.846,321.608 940.846,321.808C940.846,322.075 940.739,322.308 940.526,322.508C939.939,323.041 939.249,323.451 938.456,323.738C937.663,324.025 936.819,324.168 935.926,324.168Z" style="fill:white;fill-rule:nonzero;"/>
                    <path d="M948.066,314.068C948.626,314.028 948.906,314.255 948.906,314.748C948.906,314.961 948.846,315.131 948.726,315.258C948.606,315.385 948.399,315.461 948.106,315.488L947.506,315.548C946.613,315.628 945.949,315.945 945.516,316.498C945.083,317.051 944.866,317.701 944.866,318.448L944.866,323.308C944.866,323.575 944.793,323.775 944.646,323.908C944.499,324.041 944.306,324.108 944.066,324.108C943.826,324.108 943.629,324.038 943.476,323.898C943.323,323.758 943.246,323.561 943.246,323.308L943.246,314.868C943.246,314.615 943.326,314.418 943.486,314.278C943.646,314.138 943.839,314.068 944.066,314.068C944.279,314.068 944.459,314.138 944.606,314.278C944.753,314.418 944.826,314.608 944.826,314.848L944.826,315.968C945.106,315.381 945.503,314.935 946.016,314.628C946.529,314.321 947.119,314.141 947.786,314.088L948.066,314.068Z" style="fill:white;fill-rule:nonzero;"/>
                    <path d="M957.926,314.568C958.073,314.248 958.306,314.088 958.626,314.088C958.826,314.088 959.006,314.155 959.166,314.288C959.326,314.421 959.406,314.588 959.406,314.788C959.406,314.908 959.379,315.015 959.326,315.108L953.706,327.228C953.639,327.375 953.543,327.488 953.416,327.568C953.289,327.648 953.159,327.688 953.026,327.688C952.826,327.688 952.649,327.625 952.496,327.498C952.343,327.371 952.266,327.208 952.266,327.008C952.266,326.901 952.293,326.795 952.346,326.688L953.746,323.668L949.786,315.108C949.733,315.015 949.706,314.915 949.706,314.808C949.706,314.608 949.796,314.435 949.976,314.288C950.156,314.141 950.353,314.068 950.566,314.068C950.699,314.068 950.829,314.108 950.956,314.188C951.083,314.268 951.179,314.381 951.246,314.528L954.586,322.028L957.926,314.568Z" style="fill:white;fill-rule:nonzero;"/>
                </g>
            </g>
        </g>
    </g>
</svg>
