<?xml version="1.0" encoding="UTF-8" standalone="no"?>
<!DOCTYPE svg PUBLIC "-//W3C//DTD SVG 1.1//EN" "http://www.w3.org/Graphics/SVG/1.1/DTD/svg11.dtd">
<svg width="100%" height="100%" viewBox="0 0 54 14" version="1.1" xmlns="http://www.w3.org/2000/svg" xmlns:xlink="http://www.w3.org/1999/xlink" xml:space="preserve" xmlns:serif="http://www.serif.com/" style="fill-rule:evenodd;clip-rule:evenodd;stroke-linejoin:round;stroke-miterlimit:1.41421;">
    <g transform="matrix(1,0,0,1,-1136,-362)">
        <g transform="matrix(0.615852,0,0,0.631743,588.716,330.165)">
            <g id="_-RISK-MANAGEMENT-" serif:id="(RISK MANAGEMENT)" transform="matrix(0.944688,0,0,1,908.486,2.76565)">
                <path d="M0.443,67.659C0.522,67.818 0.562,67.987 0.562,68.166C0.562,68.464 0.448,68.712 0.219,68.91C-0.009,69.109 -0.282,69.208 -0.6,69.208C-1.096,69.208 -1.444,68.97 -1.642,68.493L-3.757,63.668L-14.987,63.668L-17.132,68.493C-17.331,68.97 -17.678,69.208 -18.175,69.208C-18.493,69.208 -18.771,69.104 -19.009,68.895C-19.247,68.687 -19.366,68.434 -19.366,68.136C-19.366,67.977 -19.327,67.818 -19.247,67.659L-10.728,48.714C-10.609,48.436 -10.43,48.227 -10.192,48.088C-9.953,47.949 -9.695,47.88 -9.417,47.88C-9.119,47.88 -8.851,47.954 -8.613,48.103C-8.374,48.252 -8.196,48.456 -8.077,48.714L0.443,67.659ZM-14.094,61.642L-4.651,61.642L-9.387,50.948L-14.094,61.642Z" style="fill:white;fill-rule:nonzero;"/>
                <path d="M12.06,69.298C9.32,69.298 7.244,68.583 5.834,67.153C4.424,65.723 3.719,63.618 3.719,60.838L3.719,49.161C3.719,48.784 3.829,48.481 4.047,48.252C4.266,48.024 4.563,47.91 4.941,47.91C5.298,47.91 5.586,48.024 5.805,48.252C6.023,48.481 6.132,48.784 6.132,49.161L6.132,61.046C6.132,63.092 6.634,64.631 7.637,65.663C8.64,66.696 10.114,67.212 12.06,67.212C14.006,67.212 15.476,66.696 16.469,65.663C17.462,64.631 17.958,63.092 17.958,61.046L17.958,49.161C17.958,48.784 18.072,48.481 18.301,48.252C18.529,48.024 18.822,47.91 19.18,47.91C19.557,47.91 19.855,48.024 20.073,48.252C20.292,48.481 20.401,48.784 20.401,49.161L20.401,60.838C20.401,63.598 19.691,65.698 18.271,67.138C16.851,68.578 14.781,69.298 12.06,69.298Z" style="fill:white;fill-rule:nonzero;"/>
                <path d="M26.686,69.059C26.309,69.059 26.006,68.95 25.778,68.732C25.549,68.513 25.435,68.225 25.435,67.868L25.435,49.25C25.435,48.893 25.549,48.605 25.778,48.386C26.006,48.168 26.309,48.059 26.686,48.059L32.495,48.059C35.851,48.059 38.448,48.967 40.284,50.784C42.121,52.601 43.04,55.188 43.04,58.544C43.04,61.9 42.116,64.492 40.27,66.319C38.423,68.146 35.831,69.059 32.495,69.059L26.686,69.059ZM32.346,66.974C37.787,66.974 40.508,64.164 40.508,58.544C40.508,52.944 37.787,50.144 32.346,50.144L27.878,50.144L27.878,66.974L32.346,66.974Z" style="fill:white;fill-rule:nonzero;"/>
                <path d="M48.67,69.208C48.293,69.208 47.995,69.094 47.776,68.866C47.558,68.637 47.449,68.334 47.449,67.957L47.449,49.161C47.449,48.784 47.558,48.481 47.776,48.252C47.995,48.024 48.293,47.91 48.67,47.91C49.047,47.91 49.345,48.024 49.563,48.252C49.782,48.481 49.891,48.784 49.891,49.161L49.891,67.957C49.891,68.334 49.782,68.637 49.563,68.866C49.345,69.094 49.047,69.208 48.67,69.208Z" style="fill:white;fill-rule:nonzero;"/>
                <path d="M61.389,69.208C61.012,69.208 60.709,69.094 60.481,68.866C60.252,68.637 60.138,68.334 60.138,67.957L60.138,50.144L53.734,50.144C53.376,50.144 53.098,50.054 52.9,49.876C52.701,49.697 52.602,49.439 52.602,49.101C52.602,48.764 52.701,48.506 52.9,48.327C53.098,48.148 53.376,48.059 53.734,48.059L69.015,48.059C69.373,48.059 69.651,48.148 69.849,48.327C70.048,48.506 70.147,48.764 70.147,49.101C70.147,49.439 70.048,49.697 69.849,49.876C69.651,50.054 69.373,50.144 69.015,50.144L62.611,50.144L62.611,67.957C62.611,68.334 62.501,68.637 62.283,68.866C62.065,69.094 61.767,69.208 61.389,69.208Z" style="fill:white;fill-rule:nonzero;"/>
            </g>
        </g>
    </g>
</svg>
