<?xml version="1.0" encoding="UTF-8" standalone="no"?>
<!DOCTYPE svg PUBLIC "-//W3C//DTD SVG 1.1//EN" "http://www.w3.org/Graphics/SVG/1.1/DTD/svg11.dtd">
<svg width="100%" height="100%" viewBox="0 0 287 23" version="1.1" xmlns="http://www.w3.org/2000/svg" xmlns:xlink="http://www.w3.org/1999/xlink" xml:space="preserve" xmlns:serif="http://www.serif.com/" style="fill-rule:evenodd;clip-rule:evenodd;stroke-linejoin:round;stroke-miterlimit:1.41421;">
    <g transform="matrix(1,0,0,1,-97,-65)">
        <g transform="matrix(0.794361,0,0,0.814858,-610.258,20.2128)">
            <g id="_-RISK-MANAGEMENT-" serif:id="(RISK MANAGEMENT)" transform="matrix(0.944688,0,0,1,908.486,7.67448)">
                <path d="M-10.936,69.298C-12.426,69.298 -13.851,69.074 -15.211,68.627C-16.571,68.181 -17.658,67.58 -18.473,66.825C-18.771,66.547 -18.919,66.2 -18.919,65.783C-18.919,65.505 -18.84,65.261 -18.681,65.053C-18.522,64.844 -18.334,64.74 -18.115,64.74C-17.857,64.74 -17.579,64.849 -17.281,65.068C-15.434,66.498 -13.329,67.212 -10.966,67.212C-9.258,67.212 -7.948,66.885 -7.034,66.229C-6.121,65.574 -5.664,64.641 -5.664,63.429C-5.664,62.734 -5.882,62.173 -6.319,61.746C-6.756,61.319 -7.332,60.977 -8.047,60.719C-8.762,60.46 -9.725,60.192 -10.936,59.914C-12.565,59.537 -13.9,59.14 -14.943,58.723C-15.985,58.306 -16.829,57.71 -17.475,56.936C-18.12,56.161 -18.443,55.148 -18.443,53.897C-18.443,52.706 -18.12,51.648 -17.475,50.725C-16.829,49.801 -15.926,49.086 -14.764,48.58C-13.602,48.074 -12.277,47.82 -10.787,47.82C-9.397,47.82 -8.101,48.034 -6.9,48.461C-5.699,48.888 -4.691,49.498 -3.876,50.293C-3.559,50.611 -3.4,50.958 -3.4,51.335C-3.4,51.613 -3.479,51.857 -3.638,52.065C-3.797,52.274 -3.986,52.378 -4.204,52.378C-4.423,52.378 -4.711,52.269 -5.068,52.05C-6.041,51.256 -6.945,50.7 -7.779,50.382C-8.613,50.064 -9.616,49.906 -10.787,49.906C-12.436,49.906 -13.716,50.248 -14.63,50.933C-15.544,51.618 -16,52.577 -16,53.808C-16,54.86 -15.598,55.65 -14.794,56.176C-13.99,56.702 -12.753,57.164 -11.085,57.561C-9.278,57.998 -7.858,58.4 -6.826,58.768C-5.793,59.135 -4.934,59.686 -4.249,60.421C-3.564,61.156 -3.221,62.139 -3.221,63.37C-3.221,64.541 -3.544,65.574 -4.189,66.468C-4.835,67.361 -5.743,68.056 -6.915,68.553C-8.087,69.049 -9.427,69.298 -10.936,69.298Z" style="fill:white;fill-rule:nonzero;"/>
                <path d="M6.609,69.208C6.232,69.208 5.929,69.094 5.7,68.866C5.472,68.637 5.358,68.334 5.358,67.957L5.358,50.144L-1.047,50.144C-1.404,50.144 -1.682,50.054 -1.881,49.876C-2.079,49.697 -2.179,49.439 -2.179,49.101C-2.179,48.764 -2.079,48.506 -1.881,48.327C-1.682,48.148 -1.404,48.059 -1.047,48.059L14.235,48.059C14.592,48.059 14.87,48.148 15.069,48.327C15.267,48.506 15.367,48.764 15.367,49.101C15.367,49.439 15.267,49.697 15.069,49.876C14.87,50.054 14.592,50.144 14.235,50.144L7.83,50.144L7.83,67.957C7.83,68.334 7.721,68.637 7.503,68.866C7.284,69.094 6.986,69.208 6.609,69.208Z" style="fill:white;fill-rule:nonzero;"/>
                <path d="M19.358,69.059C18.981,69.059 18.678,68.95 18.45,68.732C18.221,68.513 18.107,68.225 18.107,67.868L18.107,49.25C18.107,48.893 18.221,48.605 18.45,48.386C18.678,48.168 18.981,48.059 19.358,48.059L30.499,48.059C30.857,48.059 31.135,48.148 31.333,48.327C31.532,48.506 31.631,48.754 31.631,49.071C31.631,49.389 31.532,49.637 31.333,49.816C31.135,49.995 30.857,50.084 30.499,50.084L20.52,50.084L20.52,57.382L29.903,57.382C30.261,57.382 30.539,57.472 30.737,57.65C30.936,57.829 31.035,58.077 31.035,58.395C31.035,58.713 30.936,58.961 30.737,59.14C30.539,59.319 30.261,59.408 29.903,59.408L20.52,59.408L20.52,67.034L30.499,67.034C30.857,67.034 31.135,67.118 31.333,67.287C31.532,67.456 31.631,67.709 31.631,68.047C31.631,68.364 31.532,68.613 31.333,68.791C31.135,68.97 30.857,69.059 30.499,69.059L19.358,69.059Z" style="fill:white;fill-rule:nonzero;"/>
                <path d="M36.665,69.208C36.288,69.208 35.99,69.094 35.772,68.866C35.553,68.637 35.444,68.334 35.444,67.957L35.444,49.25C35.444,48.893 35.558,48.605 35.786,48.386C36.015,48.168 36.318,48.059 36.695,48.059L43.755,48.059C45.959,48.059 47.672,48.595 48.893,49.667C50.115,50.74 50.725,52.259 50.725,54.225C50.725,56.191 50.11,57.72 48.878,58.812C47.647,59.904 45.939,60.451 43.755,60.451L37.887,60.451L37.887,67.957C37.887,68.334 37.777,68.637 37.559,68.866C37.34,69.094 37.043,69.208 36.665,69.208ZM43.516,58.425C46.714,58.425 48.312,57.025 48.312,54.225C48.312,51.464 46.714,50.084 43.516,50.084L37.887,50.084L37.887,58.425L43.516,58.425Z" style="fill:white;fill-rule:nonzero;"/>
                <path d="M74.407,67.004C74.764,67.004 75.042,67.093 75.241,67.272C75.439,67.451 75.539,67.699 75.539,68.017C75.539,68.354 75.444,68.613 75.256,68.791C75.067,68.97 74.784,69.059 74.407,69.059L64.547,69.059C64.17,69.059 63.887,68.97 63.698,68.791C63.509,68.613 63.415,68.354 63.415,68.017C63.415,67.699 63.514,67.451 63.713,67.272C63.911,67.093 64.189,67.004 64.547,67.004L68.241,67.004L68.241,51.037L64.994,53.152C64.835,53.252 64.676,53.301 64.517,53.301C64.239,53.301 63.996,53.172 63.787,52.914C63.579,52.656 63.475,52.378 63.475,52.08C63.475,51.663 63.633,51.365 63.951,51.186L68.479,48.237C68.817,48.019 69.164,47.91 69.522,47.91C69.859,47.91 70.137,48.019 70.356,48.237C70.574,48.456 70.683,48.764 70.683,49.161L70.683,67.004L74.407,67.004Z" style="fill:white;fill-rule:nonzero;"/>
                <path d="M81.05,57.591C80.573,57.591 80.176,57.437 79.858,57.129C79.54,56.821 79.381,56.419 79.381,55.923C79.381,55.426 79.54,55.024 79.858,54.716C80.176,54.409 80.573,54.255 81.05,54.255C81.506,54.255 81.889,54.409 82.196,54.716C82.504,55.024 82.658,55.426 82.658,55.923C82.658,56.419 82.504,56.821 82.196,57.129C81.889,57.437 81.506,57.591 81.05,57.591ZM81.05,69.208C80.573,69.208 80.176,69.054 79.858,68.747C79.54,68.439 79.381,68.037 79.381,67.54C79.381,67.044 79.54,66.637 79.858,66.319C80.176,66.001 80.573,65.842 81.05,65.842C81.506,65.842 81.889,66.001 82.196,66.319C82.504,66.637 82.658,67.044 82.658,67.54C82.658,68.037 82.504,68.439 82.196,68.747C81.889,69.054 81.506,69.208 81.05,69.208Z" style="fill:white;fill-rule:nonzero;"/>
                <path d="M110.748,67.54C110.887,67.759 110.957,67.987 110.957,68.225C110.957,68.523 110.843,68.766 110.614,68.955C110.386,69.144 110.123,69.238 109.825,69.238C109.368,69.238 109.011,69.039 108.753,68.642L104.761,62.327C104.245,61.513 103.708,60.952 103.152,60.644C102.596,60.336 101.842,60.182 100.888,60.182L97.135,60.182L97.135,67.957C97.135,68.334 97.026,68.637 96.807,68.866C96.589,69.094 96.301,69.208 95.944,69.208C95.566,69.208 95.268,69.094 95.05,68.866C94.832,68.637 94.722,68.334 94.722,67.957L94.722,49.25C94.722,48.893 94.836,48.605 95.065,48.386C95.293,48.168 95.596,48.059 95.973,48.059L103.361,48.059C105.645,48.059 107.387,48.565 108.589,49.578C109.79,50.591 110.391,52.08 110.391,54.046C110.391,55.714 109.909,57.055 108.946,58.068C107.983,59.08 106.608,59.696 104.82,59.914C105.317,60.073 105.764,60.331 106.161,60.689C106.558,61.046 106.955,61.543 107.352,62.178L110.748,67.54ZM103.152,58.157C104.781,58.157 105.997,57.819 106.801,57.144C107.606,56.469 108.008,55.446 108.008,54.076C108.008,52.725 107.611,51.723 106.816,51.067C106.022,50.412 104.801,50.084 103.152,50.084L97.135,50.084L97.135,58.157L103.152,58.157Z" style="fill:white;fill-rule:nonzero;"/>
                <path d="M126.03,65.693C126.248,65.693 126.437,65.783 126.596,65.961C126.754,66.14 126.834,66.368 126.834,66.646C126.834,67.143 126.486,67.6 125.791,68.017C125.076,68.434 124.322,68.747 123.527,68.955C122.733,69.164 121.959,69.268 121.204,69.268C118.96,69.268 117.188,68.603 115.887,67.272C114.586,65.942 113.936,64.105 113.936,61.761C113.936,60.272 114.224,58.956 114.8,57.814C115.375,56.672 116.185,55.784 117.227,55.148C118.27,54.513 119.456,54.195 120.787,54.195C122.674,54.195 124.173,54.811 125.285,56.042C126.397,57.273 126.953,58.941 126.953,61.046C126.953,61.443 126.874,61.731 126.715,61.91C126.556,62.089 126.298,62.178 125.94,62.178L116.349,62.178C116.527,65.594 118.146,67.302 121.204,67.302C121.978,67.302 122.644,67.198 123.2,66.989C123.756,66.781 124.352,66.498 124.987,66.14C125.503,65.842 125.851,65.693 126.03,65.693ZM120.817,56.072C119.546,56.072 118.528,56.469 117.763,57.263C116.999,58.058 116.547,59.18 116.408,60.629L124.838,60.629C124.798,59.16 124.431,58.033 123.736,57.248C123.041,56.464 122.068,56.072 120.817,56.072Z" style="fill:white;fill-rule:nonzero;"/>
                <path d="M142.264,54.255C142.642,54.255 142.939,54.364 143.158,54.582C143.376,54.801 143.486,55.089 143.486,55.446L143.486,68.076C143.486,70.241 142.929,71.874 141.817,72.976C140.705,74.079 139.057,74.63 136.873,74.63C134.748,74.63 132.98,74.213 131.57,73.379C130.855,72.981 130.498,72.525 130.498,72.008C130.498,71.73 130.572,71.502 130.721,71.323C130.87,71.144 131.064,71.055 131.302,71.055C131.501,71.055 131.858,71.194 132.375,71.472C133.07,71.83 133.755,72.118 134.43,72.336C135.105,72.554 135.909,72.664 136.843,72.664C138.253,72.664 139.315,72.291 140.03,71.547C140.745,70.802 141.102,69.715 141.102,68.285L141.102,65.723C140.685,66.656 140.045,67.371 139.181,67.868C138.317,68.364 137.3,68.613 136.128,68.613C134.857,68.613 133.73,68.315 132.747,67.719C131.764,67.123 130.999,66.279 130.453,65.187C129.907,64.095 129.634,62.834 129.634,61.404C129.634,59.974 129.907,58.713 130.453,57.621C130.999,56.528 131.764,55.684 132.747,55.089C133.73,54.493 134.857,54.195 136.128,54.195C137.28,54.195 138.283,54.443 139.136,54.94C139.99,55.436 140.636,56.141 141.073,57.055L141.073,55.446C141.073,55.089 141.177,54.801 141.385,54.582C141.594,54.364 141.887,54.255 142.264,54.255ZM136.604,66.617C137.995,66.617 139.087,66.155 139.881,65.232C140.675,64.308 141.073,63.032 141.073,61.404C141.073,59.795 140.68,58.529 139.896,57.606C139.112,56.682 138.014,56.221 136.604,56.221C135.194,56.221 134.087,56.682 133.283,57.606C132.479,58.529 132.077,59.795 132.077,61.404C132.077,63.032 132.479,64.308 133.283,65.232C134.087,66.155 135.194,66.617 136.604,66.617Z" style="fill:white;fill-rule:nonzero;"/>
                <path d="M149.175,69.208C148.818,69.208 148.525,69.104 148.296,68.895C148.068,68.687 147.954,68.394 147.954,68.017L147.954,55.446C147.954,55.069 148.068,54.776 148.296,54.567C148.525,54.359 148.818,54.255 149.175,54.255C149.533,54.255 149.82,54.359 150.039,54.567C150.257,54.776 150.367,55.069 150.367,55.446L150.367,68.017C150.367,68.414 150.257,68.712 150.039,68.91C149.82,69.109 149.533,69.208 149.175,69.208ZM149.175,51.127C148.698,51.127 148.311,50.988 148.013,50.71C147.715,50.432 147.566,50.064 147.566,49.608C147.566,49.171 147.715,48.813 148.013,48.535C148.311,48.257 148.698,48.118 149.175,48.118C149.652,48.118 150.039,48.257 150.337,48.535C150.635,48.813 150.784,49.171 150.784,49.608C150.784,50.064 150.635,50.432 150.337,50.71C150.039,50.988 149.652,51.127 149.175,51.127Z" style="fill:white;fill-rule:nonzero;"/>
                <path d="M159.75,69.268C158.836,69.268 157.968,69.159 157.143,68.94C156.319,68.722 155.589,68.414 154.954,68.017C154.596,67.778 154.343,67.555 154.194,67.347C154.045,67.138 153.971,66.885 153.971,66.587C153.971,66.329 154.045,66.115 154.194,65.946C154.343,65.778 154.537,65.693 154.775,65.693C155.014,65.693 155.361,65.842 155.818,66.14C156.414,66.498 157.004,66.781 157.59,66.989C158.176,67.198 158.906,67.302 159.78,67.302C160.852,67.302 161.686,67.113 162.282,66.736C162.878,66.359 163.175,65.812 163.175,65.098C163.175,64.661 163.066,64.308 162.848,64.04C162.629,63.772 162.252,63.534 161.716,63.325C161.18,63.117 160.395,62.903 159.363,62.685C157.615,62.307 156.364,61.801 155.609,61.165C154.855,60.53 154.477,59.666 154.477,58.574C154.477,57.72 154.716,56.965 155.192,56.31C155.669,55.655 156.329,55.138 157.173,54.761C158.017,54.384 158.975,54.195 160.048,54.195C160.822,54.195 161.572,54.299 162.297,54.508C163.022,54.716 163.662,55.009 164.218,55.387C164.893,55.863 165.231,56.36 165.231,56.876C165.231,57.134 165.151,57.353 164.993,57.531C164.834,57.71 164.645,57.799 164.427,57.799C164.188,57.799 163.831,57.631 163.354,57.293C162.798,56.936 162.272,56.658 161.775,56.459C161.279,56.26 160.663,56.161 159.929,56.161C158.995,56.161 158.246,56.37 157.68,56.787C157.114,57.204 156.831,57.76 156.831,58.455C156.831,58.892 156.935,59.244 157.143,59.512C157.352,59.78 157.699,60.019 158.186,60.227C158.672,60.436 159.373,60.639 160.286,60.838C161.636,61.136 162.684,61.463 163.429,61.821C164.173,62.178 164.705,62.615 165.022,63.131C165.34,63.648 165.499,64.303 165.499,65.098C165.499,66.349 164.973,67.356 163.92,68.121C162.868,68.886 161.478,69.268 159.75,69.268Z" style="fill:white;fill-rule:nonzero;"/>
                <path d="M175.716,67.302C176.411,67.361 176.759,67.679 176.759,68.255C176.759,68.593 176.635,68.846 176.387,69.015C176.138,69.183 175.766,69.248 175.269,69.208L174.465,69.149C172.876,69.03 171.705,68.553 170.95,67.719C170.196,66.885 169.818,65.624 169.818,63.936L169.818,56.459L167.822,56.459C167.485,56.459 167.222,56.375 167.033,56.206C166.844,56.037 166.75,55.814 166.75,55.536C166.75,55.238 166.844,54.999 167.033,54.821C167.222,54.642 167.485,54.552 167.822,54.552L169.818,54.552L169.818,51.186C169.818,50.809 169.927,50.516 170.146,50.308C170.364,50.099 170.662,49.995 171.04,49.995C171.397,49.995 171.685,50.099 171.903,50.308C172.122,50.516 172.231,50.809 172.231,51.186L172.231,54.552L175.538,54.552C175.855,54.552 176.108,54.642 176.297,54.821C176.486,54.999 176.58,55.238 176.58,55.536C176.58,55.814 176.486,56.037 176.297,56.206C176.108,56.375 175.855,56.459 175.538,56.459L172.231,56.459L172.231,64.055C172.231,65.147 172.454,65.937 172.901,66.423C173.348,66.91 174.018,67.183 174.912,67.242L175.716,67.302Z" style="fill:white;fill-rule:nonzero;"/>
                <path d="M190.372,65.693C190.591,65.693 190.779,65.783 190.938,65.961C191.097,66.14 191.176,66.368 191.176,66.646C191.176,67.143 190.829,67.6 190.134,68.017C189.419,68.434 188.664,68.747 187.87,68.955C187.076,69.164 186.301,69.268 185.546,69.268C183.302,69.268 181.53,68.603 180.229,67.272C178.928,65.942 178.278,64.105 178.278,61.761C178.278,60.272 178.566,58.956 179.142,57.814C179.718,56.672 180.527,55.784 181.57,55.148C182.612,54.513 183.799,54.195 185.129,54.195C187.016,54.195 188.515,54.811 189.627,56.042C190.739,57.273 191.295,58.941 191.295,61.046C191.295,61.443 191.216,61.731 191.057,61.91C190.898,62.089 190.64,62.178 190.283,62.178L180.691,62.178C180.87,65.594 182.488,67.302 185.546,67.302C186.321,67.302 186.986,67.198 187.542,66.989C188.098,66.781 188.694,66.498 189.329,66.14C189.846,65.842 190.193,65.693 190.372,65.693ZM185.159,56.072C183.888,56.072 182.87,56.469 182.106,57.263C181.341,58.058 180.889,59.18 180.75,60.629L189.181,60.629C189.141,59.16 188.773,58.033 188.078,57.248C187.383,56.464 186.41,56.072 185.159,56.072Z" style="fill:white;fill-rule:nonzero;"/>
                <path d="M202.019,54.255C202.853,54.195 203.27,54.533 203.27,55.267C203.27,55.585 203.181,55.838 203.002,56.027C202.824,56.216 202.516,56.33 202.079,56.37L201.185,56.459C199.855,56.578 198.867,57.05 198.221,57.874C197.576,58.698 197.253,59.666 197.253,60.778L197.253,68.017C197.253,68.414 197.144,68.712 196.925,68.91C196.707,69.109 196.419,69.208 196.062,69.208C195.704,69.208 195.411,69.104 195.183,68.895C194.954,68.687 194.84,68.394 194.84,68.017L194.84,55.446C194.84,55.069 194.959,54.776 195.198,54.567C195.436,54.359 195.724,54.255 196.062,54.255C196.379,54.255 196.647,54.359 196.866,54.567C197.084,54.776 197.194,55.059 197.194,55.416L197.194,57.084C197.611,56.211 198.201,55.545 198.966,55.089C199.731,54.632 200.609,54.364 201.602,54.284L202.019,54.255Z" style="fill:white;fill-rule:nonzero;"/>
                <path d="M219.743,67.302C220.438,67.361 220.786,67.679 220.786,68.255C220.786,68.593 220.662,68.846 220.413,69.015C220.165,69.183 219.793,69.248 219.296,69.208L218.492,69.149C216.903,69.03 215.732,68.553 214.977,67.719C214.222,66.885 213.845,65.624 213.845,63.936L213.845,56.459L211.849,56.459C211.512,56.459 211.249,56.375 211.06,56.206C210.871,56.037 210.777,55.814 210.777,55.536C210.777,55.238 210.871,54.999 211.06,54.821C211.249,54.642 211.512,54.552 211.849,54.552L213.845,54.552L213.845,51.186C213.845,50.809 213.954,50.516 214.173,50.308C214.391,50.099 214.689,49.995 215.066,49.995C215.424,49.995 215.712,50.099 215.93,50.308C216.149,50.516 216.258,50.809 216.258,51.186L216.258,54.552L219.564,54.552C219.882,54.552 220.135,54.642 220.324,54.821C220.513,54.999 220.607,55.238 220.607,55.536C220.607,55.814 220.513,56.037 220.324,56.206C220.135,56.375 219.882,56.459 219.564,56.459L216.258,56.459L216.258,64.055C216.258,65.147 216.481,65.937 216.928,66.423C217.375,66.91 218.045,67.183 218.939,67.242L219.743,67.302Z" style="fill:white;fill-rule:nonzero;"/>
                <path d="M230.497,54.195C232.205,54.195 233.495,54.677 234.369,55.64C235.243,56.603 235.68,58.038 235.68,59.944L235.68,68.017C235.68,68.394 235.571,68.687 235.352,68.895C235.134,69.104 234.846,69.208 234.488,69.208C234.111,69.208 233.813,69.104 233.595,68.895C233.376,68.687 233.267,68.394 233.267,68.017L233.267,60.004C233.267,58.713 233.004,57.76 232.478,57.144C231.951,56.528 231.112,56.221 229.961,56.221C228.63,56.221 227.568,56.628 226.773,57.442C225.979,58.256 225.582,59.358 225.582,60.748L225.582,68.017C225.582,68.394 225.477,68.687 225.269,68.895C225.06,69.104 224.767,69.208 224.39,69.208C224.013,69.208 223.715,69.104 223.496,68.895C223.278,68.687 223.169,68.394 223.169,68.017L223.169,49.071C223.169,48.734 223.283,48.456 223.511,48.237C223.74,48.019 224.033,47.91 224.39,47.91C224.767,47.91 225.06,48.014 225.269,48.223C225.477,48.431 225.582,48.714 225.582,49.071L225.582,56.876C226.058,56.002 226.724,55.337 227.577,54.88C228.431,54.423 229.404,54.195 230.497,54.195Z" style="fill:white;fill-rule:nonzero;"/>
                <path d="M251.319,65.693C251.537,65.693 251.726,65.783 251.885,65.961C252.043,66.14 252.123,66.368 252.123,66.646C252.123,67.143 251.775,67.6 251.08,68.017C250.365,68.434 249.611,68.747 248.816,68.955C248.022,69.164 247.248,69.268 246.493,69.268C244.249,69.268 242.477,68.603 241.176,67.272C239.875,65.942 239.225,64.105 239.225,61.761C239.225,60.272 239.513,58.956 240.088,57.814C240.664,56.672 241.474,55.784 242.516,55.148C243.559,54.513 244.745,54.195 246.076,54.195C247.962,54.195 249.462,54.811 250.574,56.042C251.686,57.273 252.242,58.941 252.242,61.046C252.242,61.443 252.163,61.731 252.004,61.91C251.845,62.089 251.587,62.178 251.229,62.178L241.637,62.178C241.816,65.594 243.435,67.302 246.493,67.302C247.267,67.302 247.933,67.198 248.489,66.989C249.045,66.781 249.641,66.498 250.276,66.14C250.792,65.842 251.14,65.693 251.319,65.693ZM246.106,56.072C244.835,56.072 243.817,56.469 243.052,57.263C242.288,58.058 241.836,59.18 241.697,60.629L250.127,60.629C250.087,59.16 249.72,58.033 249.025,57.248C248.33,56.464 247.357,56.072 246.106,56.072Z" style="fill:white;fill-rule:nonzero;"/>
                <path d="M265.051,69.208C264.674,69.208 264.376,69.094 264.157,68.866C263.939,68.637 263.83,68.334 263.83,67.957L263.83,49.25C263.83,48.893 263.944,48.605 264.172,48.386C264.401,48.168 264.703,48.059 265.081,48.059L275.924,48.059C276.281,48.059 276.559,48.148 276.758,48.327C276.956,48.506 277.056,48.764 277.056,49.101C277.056,49.419 276.956,49.667 276.758,49.846C276.559,50.025 276.281,50.114 275.924,50.114L266.242,50.114L266.242,57.353L275.328,57.353C275.685,57.353 275.963,57.442 276.162,57.621C276.361,57.799 276.46,58.058 276.46,58.395C276.46,58.713 276.361,58.961 276.162,59.14C275.963,59.319 275.685,59.408 275.328,59.408L266.242,59.408L266.242,67.957C266.242,68.334 266.138,68.637 265.93,68.866C265.721,69.094 265.428,69.208 265.051,69.208Z" style="fill:white;fill-rule:nonzero;"/>
                <path d="M281.285,69.208C280.928,69.208 280.635,69.104 280.407,68.895C280.178,68.687 280.064,68.394 280.064,68.017L280.064,55.446C280.064,55.069 280.178,54.776 280.407,54.567C280.635,54.359 280.928,54.255 281.285,54.255C281.643,54.255 281.931,54.359 282.149,54.567C282.368,54.776 282.477,55.069 282.477,55.446L282.477,68.017C282.477,68.414 282.368,68.712 282.149,68.91C281.931,69.109 281.643,69.208 281.285,69.208ZM281.285,51.127C280.809,51.127 280.422,50.988 280.124,50.71C279.826,50.432 279.677,50.064 279.677,49.608C279.677,49.171 279.826,48.813 280.124,48.535C280.422,48.257 280.809,48.118 281.285,48.118C281.762,48.118 282.149,48.257 282.447,48.535C282.745,48.813 282.894,49.171 282.894,49.608C282.894,50.064 282.745,50.432 282.447,50.71C282.149,50.988 281.762,51.127 281.285,51.127Z" style="fill:white;fill-rule:nonzero;"/>
                <path d="M294.154,54.255C294.988,54.195 295.405,54.533 295.405,55.267C295.405,55.585 295.316,55.838 295.137,56.027C294.958,56.216 294.65,56.33 294.214,56.37L293.32,56.459C291.989,56.578 291.001,57.05 290.356,57.874C289.711,58.698 289.388,59.666 289.388,60.778L289.388,68.017C289.388,68.414 289.279,68.712 289.06,68.91C288.842,69.109 288.554,69.208 288.196,69.208C287.839,69.208 287.546,69.104 287.318,68.895C287.089,68.687 286.975,68.394 286.975,68.017L286.975,55.446C286.975,55.069 287.094,54.776 287.332,54.567C287.571,54.359 287.859,54.255 288.196,54.255C288.514,54.255 288.782,54.359 289.001,54.567C289.219,54.776 289.328,55.059 289.328,55.416L289.328,57.084C289.745,56.211 290.336,55.545 291.101,55.089C291.865,54.632 292.744,54.364 293.737,54.284L294.154,54.255Z" style="fill:white;fill-rule:nonzero;"/>
                <path d="M308.423,65.693C308.641,65.693 308.83,65.783 308.988,65.961C309.147,66.14 309.227,66.368 309.227,66.646C309.227,67.143 308.879,67.6 308.184,68.017C307.469,68.434 306.715,68.747 305.92,68.955C305.126,69.164 304.351,69.268 303.597,69.268C301.353,69.268 299.58,68.603 298.28,67.272C296.979,65.942 296.329,64.105 296.329,61.761C296.329,60.272 296.616,58.956 297.192,57.814C297.768,56.672 298.578,55.784 299.62,55.148C300.663,54.513 301.849,54.195 303.18,54.195C305.066,54.195 306.566,54.811 307.678,56.042C308.79,57.273 309.346,58.941 309.346,61.046C309.346,61.443 309.267,61.731 309.108,61.91C308.949,62.089 308.691,62.178 308.333,62.178L298.741,62.178C298.92,65.594 300.539,67.302 303.597,67.302C304.371,67.302 305.037,67.198 305.593,66.989C306.149,66.781 306.744,66.498 307.38,66.14C307.896,65.842 308.244,65.693 308.423,65.693ZM303.21,56.072C301.939,56.072 300.921,56.469 300.156,57.263C299.392,58.058 298.94,59.18 298.801,60.629L307.231,60.629C307.191,59.16 306.824,58.033 306.129,57.248C305.434,56.464 304.461,56.072 303.21,56.072Z" style="fill:white;fill-rule:nonzero;"/>
                <path d="M332.551,55.029C332.749,54.552 333.077,54.314 333.534,54.314C333.832,54.314 334.1,54.413 334.338,54.612C334.577,54.811 334.696,55.059 334.696,55.357C334.696,55.496 334.666,55.645 334.606,55.804L329.661,68.315C329.542,68.573 329.369,68.776 329.14,68.925C328.912,69.074 328.659,69.149 328.381,69.149C328.122,69.149 327.879,69.074 327.651,68.925C327.422,68.776 327.249,68.573 327.129,68.315L323.019,57.859L318.938,68.315C318.838,68.573 318.67,68.776 318.431,68.925C318.193,69.074 317.935,69.149 317.657,69.149C317.399,69.149 317.15,69.074 316.912,68.925C316.674,68.776 316.495,68.573 316.376,68.315L311.431,55.833C311.372,55.675 311.342,55.536 311.342,55.416C311.342,55.099 311.476,54.831 311.744,54.612C312.012,54.394 312.305,54.284 312.623,54.284C313.099,54.284 313.437,54.523 313.635,54.999L317.716,65.991L321.917,55.089C322.036,54.831 322.2,54.632 322.408,54.493C322.617,54.354 322.84,54.284 323.078,54.284C323.336,54.284 323.57,54.354 323.778,54.493C323.987,54.632 324.141,54.831 324.24,55.089L328.44,65.961L332.551,55.029Z" style="fill:white;fill-rule:nonzero;"/>
                <path d="M343.453,54.195C347.088,54.195 348.905,56.101 348.905,59.914L348.905,68.017C348.905,68.374 348.8,68.662 348.592,68.881C348.383,69.099 348.1,69.208 347.743,69.208C347.385,69.208 347.097,69.099 346.879,68.881C346.661,68.662 346.551,68.374 346.551,68.017L346.551,66.587C346.174,67.441 345.598,68.101 344.824,68.568C344.049,69.035 343.155,69.268 342.143,69.268C341.209,69.268 340.35,69.079 339.566,68.702C338.782,68.325 338.161,67.798 337.704,67.123C337.248,66.448 337.019,65.703 337.019,64.889C337.019,63.797 337.297,62.948 337.853,62.342C338.409,61.736 339.323,61.3 340.594,61.031C341.865,60.763 343.632,60.629 345.896,60.629L346.551,60.629L346.551,59.646C346.551,58.455 346.308,57.581 345.822,57.025C345.335,56.469 344.546,56.191 343.453,56.191C342.103,56.191 340.733,56.558 339.343,57.293C338.806,57.631 338.429,57.799 338.211,57.799C337.972,57.799 337.774,57.71 337.615,57.531C337.456,57.353 337.377,57.124 337.377,56.846C337.377,56.568 337.461,56.325 337.63,56.116C337.799,55.908 338.072,55.694 338.449,55.476C339.144,55.079 339.933,54.766 340.817,54.538C341.701,54.309 342.58,54.195 343.453,54.195ZM342.47,67.361C343.662,67.361 344.64,66.959 345.404,66.155C346.169,65.351 346.551,64.313 346.551,63.042L346.551,62.178L346.015,62.178C344.268,62.178 342.937,62.253 342.024,62.402C341.11,62.551 340.46,62.799 340.072,63.146C339.685,63.494 339.492,64.005 339.492,64.68C339.492,65.455 339.775,66.095 340.341,66.602C340.906,67.108 341.616,67.361 342.47,67.361Z" style="fill:white;fill-rule:nonzero;"/>
                <path d="M354.535,69.208C354.177,69.208 353.884,69.104 353.656,68.895C353.427,68.687 353.313,68.394 353.313,68.017L353.313,49.101C353.313,48.724 353.427,48.431 353.656,48.223C353.884,48.014 354.177,47.91 354.535,47.91C354.872,47.91 355.155,48.014 355.384,48.223C355.612,48.431 355.726,48.724 355.726,49.101L355.726,68.017C355.726,68.394 355.612,68.687 355.384,68.895C355.155,69.104 354.872,69.208 354.535,69.208Z" style="fill:white;fill-rule:nonzero;"/>
                <path d="M361.445,69.208C361.088,69.208 360.795,69.104 360.567,68.895C360.338,68.687 360.224,68.394 360.224,68.017L360.224,49.101C360.224,48.724 360.338,48.431 360.567,48.223C360.795,48.014 361.088,47.91 361.445,47.91C361.783,47.91 362.066,48.014 362.294,48.223C362.523,48.431 362.637,48.724 362.637,49.101L362.637,68.017C362.637,68.394 362.523,68.687 362.294,68.895C362.066,69.104 361.783,69.208 361.445,69.208Z" style="fill:white;fill-rule:nonzero;"/>
            </g>
        </g>
    </g>
</svg>
