<?xml version="1.0" encoding="UTF-8" standalone="no"?>
<!DOCTYPE svg PUBLIC "-//W3C//DTD SVG 1.1//EN" "http://www.w3.org/Graphics/SVG/1.1/DTD/svg11.dtd">
<svg width="100%" height="100%" viewBox="0 0 247 34" version="1.1" xmlns="http://www.w3.org/2000/svg" xmlns:xlink="http://www.w3.org/1999/xlink" xml:space="preserve" xmlns:serif="http://www.serif.com/" style="fill-rule:evenodd;clip-rule:evenodd;stroke-miterlimit:1.41421;">
    <g transform="matrix(1,0,0,1,-229,-138)">
        <g>
            <g transform="matrix(0.856911,0,0,0.856911,35.6649,24.1636)">
                <path d="M255.72,146.166L255.72,140.064C255.72,139.059 254.906,138.247 253.902,138.247L251.48,138.247C250.475,138.247 249.662,138.843 249.662,139.576C249.662,140.31 249.133,140.288 248.481,139.526L245.418,135.949C244.766,135.185 243.708,135.185 243.055,135.949L235.625,144.623L228.197,153.297C227.546,154.058 227.832,154.675 228.834,154.675L230.932,154.675C231.934,154.675 232.75,155.489 232.75,156.491L232.75,168.559C232.75,169.563 233.563,170.376 234.567,170.376L236.089,170.376C237.093,170.376 237.907,169.563 237.907,168.559L237.907,162.188C237.907,161.185 238.721,160.371 239.724,160.371L244.478,160.371C245.483,160.371 246.296,161.185 246.296,162.188L246.296,168.559C246.296,169.563 247.11,170.376 248.113,170.376L253.902,170.376C254.906,170.376 255.72,169.563 255.72,168.559L255.72,156.491C255.72,155.489 256.534,154.675 257.536,154.675L259.634,154.675C260.638,154.675 260.922,154.058 260.271,153.297L256.9,149.361C256.25,148.599 255.72,147.168 255.72,146.166Z" style="fill:none;stroke:rgb(88,153,183);stroke-width:2.33px;"/>
            </g>
            <g transform="matrix(1,0,0,1,-635.547,-218.527)">
                <g id="Random">
                    <path d="M910.86,377.751C910.96,377.751 911.04,377.78 911.101,377.837C911.163,377.895 911.193,377.969 911.193,378.061C911.193,378.161 911.165,378.238 911.107,378.291C911.05,378.345 910.967,378.372 910.86,378.372L907.099,378.372C907,378.372 906.921,378.345 906.864,378.291C906.806,378.238 906.777,378.161 906.777,378.061C906.777,377.969 906.806,377.895 906.864,377.837C906.921,377.78 907,377.751 907.099,377.751L908.629,377.751L908.629,371.184L907.306,372.047C907.268,372.077 907.218,372.093 907.157,372.093C907.073,372.093 906.998,372.054 906.933,371.978C906.867,371.901 906.835,371.813 906.835,371.713C906.835,371.606 906.885,371.518 906.984,371.449L908.709,370.299C908.809,370.237 908.905,370.207 908.997,370.207C909.097,370.207 909.179,370.239 909.244,370.305C909.309,370.37 909.342,370.46 909.342,370.575L909.342,377.751L910.86,377.751Z" style="fill:rgb(163,163,163);fill-rule:nonzero;"/>
                    <path d="M915.609,378.464C914.697,378.464 914.003,378.113 913.528,377.412C913.053,376.71 912.815,375.681 912.815,374.324C912.815,372.959 913.053,371.926 913.528,371.225C914.003,370.523 914.697,370.172 915.609,370.172C916.522,370.172 917.216,370.523 917.691,371.225C918.166,371.926 918.404,372.955 918.404,374.312C918.404,375.669 918.166,376.7 917.691,377.406C917.216,378.111 916.522,378.464 915.609,378.464ZM915.609,377.831C916.315,377.831 916.834,377.546 917.168,376.975C917.501,376.403 917.668,375.516 917.668,374.312C917.668,373.109 917.501,372.223 917.168,371.656C916.834,371.088 916.315,370.805 915.609,370.805C914.904,370.805 914.385,371.088 914.051,371.656C913.718,372.223 913.551,373.109 913.551,374.312C913.551,375.508 913.72,376.394 914.057,376.969C914.394,377.544 914.912,377.831 915.609,377.831Z" style="fill:rgb(163,163,163);fill-rule:nonzero;"/>
                    <path d="M923.51,374.209C924.008,374.339 924.386,374.573 924.643,374.91C924.899,375.248 925.028,375.673 925.028,376.187C925.028,376.884 924.798,377.436 924.338,377.843C923.878,378.249 923.253,378.452 922.463,378.452C921.965,378.452 921.486,378.364 921.026,378.188C920.566,378.011 920.186,377.774 919.887,377.475C919.788,377.383 919.738,377.272 919.738,377.141C919.738,377.057 919.761,376.984 919.807,376.923C919.853,376.861 919.907,376.831 919.968,376.831C920.06,376.831 920.148,376.869 920.232,376.946C920.593,377.26 920.951,377.486 921.308,377.624C921.664,377.762 922.049,377.831 922.463,377.831C923.054,377.831 923.51,377.689 923.832,377.406C924.154,377.122 924.315,376.716 924.315,376.187C924.315,375.106 923.648,374.565 922.314,374.565L921.727,374.565C921.628,374.565 921.547,374.535 921.486,374.473C921.425,374.412 921.394,374.339 921.394,374.255C921.394,374.17 921.423,374.098 921.48,374.036C921.538,373.975 921.62,373.944 921.727,373.944L922.141,373.944C922.778,373.944 923.27,373.797 923.619,373.502C923.968,373.206 924.142,372.787 924.142,372.242C924.142,371.782 924.002,371.426 923.723,371.173C923.443,370.92 923.05,370.793 922.544,370.793C922.153,370.793 921.783,370.864 921.434,371.006C921.085,371.148 920.727,371.372 920.359,371.679C920.275,371.755 920.186,371.794 920.094,371.794C920.033,371.794 919.979,371.763 919.933,371.702C919.887,371.64 919.864,371.568 919.864,371.483C919.864,371.353 919.914,371.242 920.014,371.15C920.313,370.851 920.689,370.613 921.141,370.437C921.593,370.26 922.061,370.172 922.544,370.172C923.249,370.172 923.811,370.354 924.229,370.719C924.646,371.083 924.855,371.579 924.855,372.208C924.855,372.683 924.737,373.099 924.499,373.456C924.261,373.812 923.932,374.063 923.51,374.209Z" style="fill:rgb(163,163,163);fill-rule:nonzero;"/>
                    <path d="M930.41,374.209C930.908,374.339 931.286,374.573 931.543,374.91C931.799,375.248 931.928,375.673 931.928,376.187C931.928,376.884 931.698,377.436 931.238,377.843C930.778,378.249 930.153,378.452 929.363,378.452C928.865,378.452 928.386,378.364 927.926,378.188C927.466,378.011 927.086,377.774 926.787,377.475C926.688,377.383 926.638,377.272 926.638,377.141C926.638,377.057 926.661,376.984 926.707,376.923C926.753,376.861 926.807,376.831 926.868,376.831C926.96,376.831 927.048,376.869 927.132,376.946C927.493,377.26 927.851,377.486 928.208,377.624C928.564,377.762 928.949,377.831 929.363,377.831C929.954,377.831 930.41,377.689 930.732,377.406C931.054,377.122 931.215,376.716 931.215,376.187C931.215,375.106 930.548,374.565 929.214,374.565L928.627,374.565C928.528,374.565 928.447,374.535 928.386,374.473C928.325,374.412 928.294,374.339 928.294,374.255C928.294,374.17 928.323,374.098 928.38,374.036C928.438,373.975 928.52,373.944 928.627,373.944L929.041,373.944C929.678,373.944 930.17,373.797 930.519,373.502C930.868,373.206 931.042,372.787 931.042,372.242C931.042,371.782 930.902,371.426 930.623,371.173C930.343,370.92 929.95,370.793 929.444,370.793C929.053,370.793 928.683,370.864 928.334,371.006C927.985,371.148 927.627,371.372 927.259,371.679C927.175,371.755 927.086,371.794 926.994,371.794C926.933,371.794 926.879,371.763 926.833,371.702C926.787,371.64 926.764,371.568 926.764,371.483C926.764,371.353 926.814,371.242 926.914,371.15C927.213,370.851 927.589,370.613 928.041,370.437C928.493,370.26 928.961,370.172 929.444,370.172C930.149,370.172 930.711,370.354 931.129,370.719C931.546,371.083 931.755,371.579 931.755,372.208C931.755,372.683 931.637,373.099 931.399,373.456C931.161,373.812 930.832,374.063 930.41,374.209Z" style="fill:rgb(163,163,163);fill-rule:nonzero;"/>
                    <path d="M944.003,370.207C944.118,370.207 944.208,370.241 944.273,370.31C944.338,370.379 944.371,370.467 944.371,370.575L944.371,378.061C944.371,378.169 944.34,378.257 944.279,378.326C944.218,378.395 944.133,378.429 944.026,378.429C943.919,378.429 943.838,378.397 943.784,378.332C943.731,378.266 943.704,378.176 943.704,378.061L943.704,371.679L940.978,376.946C940.886,377.122 940.76,377.21 940.599,377.21C940.438,377.21 940.311,377.122 940.219,376.946L937.471,371.725L937.471,378.061C937.471,378.176 937.444,378.266 937.39,378.332C937.337,378.397 937.256,378.429 937.149,378.429C937.034,378.429 936.948,378.397 936.89,378.332C936.833,378.266 936.804,378.176 936.804,378.061L936.804,370.575C936.804,370.467 936.836,370.379 936.902,370.31C936.967,370.241 937.057,370.207 937.172,370.207C937.31,370.207 937.425,370.295 937.517,370.471L940.61,376.405L943.658,370.471C943.75,370.295 943.865,370.207 944.003,370.207Z" style="fill:rgb(163,163,163);fill-rule:nonzero;"/>
                    <path d="M948.568,378.452C948.055,378.452 947.602,378.333 947.211,378.096C946.82,377.858 946.518,377.521 946.303,377.084C946.088,376.647 945.981,376.145 945.981,375.577C945.981,375.002 946.09,374.494 946.309,374.054C946.527,373.613 946.834,373.27 947.229,373.024C947.623,372.779 948.078,372.656 948.591,372.656C948.883,372.656 949.166,372.695 949.442,372.771C949.718,372.848 949.964,372.963 950.178,373.116C950.316,373.216 950.414,373.306 950.472,373.387C950.529,373.467 950.558,373.553 950.558,373.645C950.558,373.73 950.535,373.799 950.489,373.852C950.443,373.906 950.385,373.933 950.316,373.933C950.24,373.933 950.117,373.868 949.948,373.737C949.749,373.592 949.55,373.477 949.35,373.392C949.151,373.308 948.91,373.266 948.626,373.266C948.028,373.266 947.56,373.471 947.223,373.881C946.886,374.291 946.717,374.857 946.717,375.577C946.717,376.29 946.884,376.844 947.217,377.239C947.551,377.634 948.016,377.831 948.614,377.831C948.906,377.831 949.149,377.789 949.345,377.705C949.54,377.62 949.753,377.505 949.983,377.36C950.052,377.314 950.119,377.272 950.184,377.233C950.249,377.195 950.301,377.176 950.339,377.176C950.416,377.176 950.477,377.203 950.523,377.256C950.569,377.31 950.592,377.375 950.592,377.452C950.592,377.544 950.566,377.624 950.512,377.693C950.458,377.762 950.355,377.85 950.201,377.958C949.994,378.111 949.743,378.232 949.448,378.32C949.153,378.408 948.86,378.452 948.568,378.452Z" style="fill:rgb(163,163,163);fill-rule:nonzero;"/>
                    <path d="M955.296,378.464C954.545,378.464 953.891,378.297 953.335,377.964C952.779,377.63 952.354,377.151 952.059,376.526C951.763,375.901 951.616,375.163 951.616,374.312C951.616,373.461 951.763,372.725 952.059,372.104C952.354,371.483 952.779,371.006 953.335,370.673C953.891,370.339 954.545,370.172 955.296,370.172C955.81,370.172 956.298,370.259 956.762,370.431C957.226,370.604 957.619,370.851 957.941,371.173C958.048,371.272 958.102,371.384 958.102,371.506C958.102,371.591 958.077,371.663 958.027,371.725C957.977,371.786 957.922,371.817 957.86,371.817C957.784,371.817 957.696,371.778 957.596,371.702C957.182,371.364 956.806,371.131 956.469,371C956.132,370.87 955.737,370.805 955.284,370.805C954.357,370.805 953.638,371.111 953.128,371.725C952.618,372.338 952.363,373.201 952.363,374.312C952.363,375.432 952.618,376.298 953.128,376.911C953.638,377.525 954.357,377.831 955.284,377.831C955.737,377.831 956.132,377.766 956.469,377.636C956.806,377.505 957.182,377.272 957.596,376.934C957.711,376.858 957.799,376.819 957.86,376.819C957.922,376.819 957.977,376.85 958.027,376.911C958.077,376.973 958.102,377.045 958.102,377.13C958.102,377.252 958.048,377.364 957.941,377.463C957.619,377.785 957.226,378.033 956.762,378.205C956.298,378.378 955.81,378.464 955.296,378.464Z" style="fill:rgb(163,163,163);fill-rule:nonzero;"/>
                    <path d="M961.678,372.656C962.353,372.656 962.857,372.833 963.191,373.185C963.524,373.538 963.691,374.071 963.691,374.784L963.691,378.061C963.691,378.169 963.66,378.255 963.599,378.32C963.538,378.385 963.453,378.418 963.346,378.418C963.239,378.418 963.154,378.385 963.093,378.32C963.032,378.255 963.001,378.169 963.001,378.061L963.001,377.371C962.84,377.716 962.606,377.983 962.299,378.171C961.993,378.358 961.64,378.452 961.241,378.452C960.881,378.452 960.551,378.379 960.252,378.234C959.953,378.088 959.718,377.885 959.545,377.624C959.373,377.364 959.286,377.076 959.286,376.762C959.286,376.348 959.394,376.026 959.608,375.796C959.823,375.566 960.18,375.401 960.678,375.301C961.176,375.202 961.87,375.152 962.759,375.152L963.001,375.152L963.001,374.726C963.001,374.22 962.897,373.85 962.69,373.617C962.483,373.383 962.158,373.266 961.713,373.266C961.146,373.266 960.605,373.415 960.091,373.714C960.068,373.73 960.009,373.77 959.913,373.835C959.817,373.9 959.735,373.933 959.666,373.933C959.589,373.933 959.526,373.904 959.476,373.847C959.426,373.789 959.401,373.718 959.401,373.634C959.401,373.465 959.536,373.3 959.804,373.139C960.072,372.986 960.371,372.867 960.701,372.783C961.031,372.698 961.356,372.656 961.678,372.656ZM961.299,377.843C961.797,377.843 962.205,377.674 962.524,377.337C962.842,376.999 963.001,376.57 963.001,376.049L963.001,375.669L962.782,375.669C962.046,375.669 961.483,375.7 961.092,375.761C960.701,375.823 960.425,375.928 960.264,376.078C960.103,376.227 960.022,376.444 960.022,376.727C960.022,377.049 960.145,377.316 960.39,377.527C960.636,377.737 960.939,377.843 961.299,377.843Z" style="fill:rgb(163,163,163);fill-rule:nonzero;"/>
                    <path d="M968.118,372.679C968.264,372.672 968.368,372.691 968.429,372.737C968.49,372.783 968.521,372.859 968.521,372.967C968.521,373.158 968.406,373.266 968.176,373.289L967.831,373.323C967.287,373.377 966.882,373.572 966.618,373.91C966.353,374.247 966.221,374.642 966.221,375.094L966.221,378.073C966.221,378.188 966.19,378.276 966.129,378.337C966.068,378.399 965.983,378.429 965.876,378.429C965.769,378.429 965.682,378.399 965.617,378.337C965.552,378.276 965.519,378.188 965.519,378.073L965.519,373.036C965.519,372.921 965.552,372.833 965.617,372.771C965.682,372.71 965.769,372.679 965.876,372.679C965.976,372.679 966.056,372.71 966.117,372.771C966.179,372.833 966.209,372.917 966.209,373.024L966.209,373.772C966.524,373.112 967.106,372.752 967.957,372.691L968.118,372.679Z" style="fill:rgb(163,163,163);fill-rule:nonzero;"/>
                    <path d="M972.258,377.843C972.473,377.866 972.58,377.965 972.58,378.142C972.58,378.234 972.546,378.307 972.477,378.36C972.408,378.414 972.297,378.437 972.143,378.429L971.821,378.406C971.239,378.368 970.807,378.19 970.528,377.872C970.248,377.553 970.108,377.068 970.108,376.417L970.108,373.358L969.234,373.358C969.142,373.358 969.069,373.333 969.015,373.283C968.962,373.233 968.935,373.166 968.935,373.082C968.935,372.997 968.962,372.928 969.015,372.875C969.069,372.821 969.142,372.794 969.234,372.794L970.108,372.794L970.108,371.368C970.108,371.253 970.139,371.165 970.2,371.104C970.261,371.042 970.346,371.012 970.453,371.012C970.56,371.012 970.646,371.042 970.712,371.104C970.777,371.165 970.809,371.253 970.809,371.368L970.809,372.794L972.201,372.794C972.301,372.794 972.377,372.821 972.431,372.875C972.485,372.928 972.511,372.997 972.511,373.082C972.511,373.166 972.485,373.233 972.431,373.283C972.377,373.333 972.301,373.358 972.201,373.358L970.809,373.358L970.809,376.451C970.809,376.927 970.901,377.266 971.085,377.469C971.269,377.672 971.557,377.789 971.948,377.82L972.258,377.843Z" style="fill:rgb(163,163,163);fill-rule:nonzero;"/>
                    <path d="M976.203,372.656C977.545,372.656 978.215,373.377 978.215,374.818L978.215,378.073C978.215,378.18 978.185,378.266 978.123,378.332C978.062,378.397 977.978,378.429 977.87,378.429C977.763,378.429 977.677,378.397 977.612,378.332C977.546,378.266 977.514,378.18 977.514,378.073L977.514,374.864C977.514,374.312 977.403,373.91 977.18,373.657C976.958,373.404 976.605,373.277 976.122,373.277C975.57,373.277 975.128,373.446 974.794,373.783C974.461,374.121 974.294,374.573 974.294,375.14L974.294,378.073C974.294,378.18 974.263,378.266 974.202,378.332C974.141,378.397 974.056,378.429 973.949,378.429C973.842,378.429 973.755,378.397 973.69,378.332C973.625,378.266 973.592,378.18 973.592,378.073L973.592,370.563C973.592,370.456 973.625,370.37 973.69,370.305C973.755,370.239 973.842,370.207 973.949,370.207C974.056,370.207 974.141,370.239 974.202,370.305C974.263,370.37 974.294,370.456 974.294,370.563L974.294,373.726C974.47,373.381 974.725,373.116 975.059,372.932C975.392,372.748 975.774,372.656 976.203,372.656Z" style="fill:rgb(163,163,163);fill-rule:nonzero;"/>
                    <path d="M984.138,372.886C984.199,372.748 984.299,372.679 984.437,372.679C984.521,372.679 984.598,372.71 984.667,372.771C984.736,372.833 984.77,372.905 984.77,372.99C984.77,373.043 984.759,373.093 984.736,373.139L981.481,380.281C981.42,380.411 981.32,380.476 981.182,380.476C981.098,380.476 981.023,380.449 980.958,380.396C980.893,380.342 980.86,380.273 980.86,380.189C980.86,380.143 980.872,380.097 980.895,380.051L981.711,378.268L979.354,373.139C979.331,373.093 979.319,373.047 979.319,373.001C979.319,372.909 979.36,372.831 979.44,372.766C979.521,372.7 979.607,372.668 979.699,372.668C979.845,372.668 979.944,372.737 979.998,372.875L982.068,377.521L984.138,372.886Z" style="fill:rgb(163,163,163);fill-rule:nonzero;"/>
                    <path d="M993.361,374.22C993.829,374.335 994.191,374.563 994.448,374.905C994.704,375.246 994.833,375.669 994.833,376.175C994.833,376.888 994.601,377.433 994.137,377.808C993.673,378.184 993.016,378.372 992.165,378.372L989.301,378.372C989.194,378.372 989.104,378.337 989.031,378.268C988.958,378.199 988.922,378.115 988.922,378.015L988.922,370.621C988.922,370.521 988.958,370.437 989.031,370.368C989.104,370.299 989.194,370.264 989.301,370.264L992.05,370.264C992.878,370.264 993.518,370.448 993.97,370.816C994.423,371.184 994.649,371.709 994.649,372.392C994.649,372.829 994.536,373.204 994.31,373.519C994.083,373.833 993.767,374.067 993.361,374.22ZM989.623,373.944L991.946,373.944C992.598,373.944 993.093,373.81 993.43,373.542C993.767,373.273 993.936,372.886 993.936,372.38C993.936,371.376 993.273,370.874 991.946,370.874L989.623,370.874L989.623,373.944ZM992.119,377.762C992.801,377.762 993.305,377.634 993.631,377.377C993.957,377.12 994.12,376.727 994.12,376.198C994.12,375.11 993.453,374.565 992.119,374.565L989.623,374.565L989.623,377.762L992.119,377.762Z" style="fill:rgb(163,163,163);fill-rule:nonzero;"/>
                    <path d="M996.857,378.429C996.75,378.429 996.663,378.399 996.598,378.337C996.533,378.276 996.5,378.188 996.5,378.073L996.5,370.563C996.5,370.448 996.533,370.36 996.598,370.299C996.663,370.237 996.75,370.207 996.857,370.207C996.957,370.207 997.039,370.237 997.104,370.299C997.169,370.36 997.202,370.448 997.202,370.563L997.202,378.073C997.202,378.188 997.169,378.276 997.104,378.337C997.039,378.399 996.957,378.429 996.857,378.429Z" style="fill:rgb(163,163,163);fill-rule:nonzero;"/>
                    <path d="M1003.15,372.886C1003.21,372.748 1003.31,372.679 1003.45,372.679C1003.53,372.679 1003.61,372.71 1003.68,372.771C1003.75,372.833 1003.78,372.905 1003.78,372.99C1003.78,373.043 1003.77,373.093 1003.75,373.139L1001.47,378.142C1001.43,378.226 1001.37,378.291 1001.3,378.337C1001.23,378.383 1001.15,378.406 1001.07,378.406C1000.97,378.406 1000.89,378.383 1000.82,378.337C1000.75,378.291 1000.69,378.226 1000.65,378.142L998.363,373.139C998.34,373.093 998.329,373.047 998.329,373.001C998.329,372.909 998.369,372.831 998.45,372.766C998.53,372.7 998.616,372.668 998.708,372.668C998.854,372.668 998.954,372.737 999.007,372.875L1001.08,377.521L1003.15,372.886Z" style="fill:rgb(163,163,163);fill-rule:nonzero;"/>
                    <path d="M1009.24,370.207C1009.35,370.207 1009.44,370.239 1009.5,370.305C1009.57,370.37 1009.6,370.456 1009.6,370.563L1009.6,378.061C1009.6,378.169 1009.57,378.255 1009.5,378.32C1009.44,378.385 1009.35,378.418 1009.24,378.418C1009.13,378.418 1009.05,378.385 1008.99,378.32C1008.93,378.255 1008.9,378.169 1008.9,378.061L1008.9,377.302C1008.73,377.678 1008.48,377.964 1008.15,378.159C1007.82,378.355 1007.43,378.452 1006.98,378.452C1006.49,378.452 1006.05,378.332 1005.68,378.09C1005.3,377.849 1005.01,377.507 1004.8,377.067C1004.6,376.626 1004.49,376.114 1004.49,375.531C1004.49,374.956 1004.6,374.452 1004.8,374.019C1005.01,373.586 1005.3,373.25 1005.68,373.013C1006.05,372.775 1006.49,372.656 1006.98,372.656C1007.43,372.656 1007.82,372.754 1008.15,372.95C1008.48,373.145 1008.73,373.431 1008.9,373.806L1008.9,370.563C1008.9,370.456 1008.93,370.37 1008.99,370.305C1009.05,370.239 1009.13,370.207 1009.24,370.207ZM1007.07,377.831C1007.65,377.831 1008.1,377.634 1008.42,377.239C1008.74,376.844 1008.9,376.283 1008.9,375.554C1008.9,374.826 1008.74,374.262 1008.43,373.864C1008.11,373.465 1007.66,373.266 1007.08,373.266C1006.49,373.266 1006.03,373.463 1005.71,373.858C1005.39,374.253 1005.23,374.811 1005.23,375.531C1005.23,376.26 1005.39,376.825 1005.71,377.228C1006.03,377.63 1006.49,377.831 1007.07,377.831Z" style="fill:rgb(163,163,163);fill-rule:nonzero;"/>
                    <path d="M1021.66,370.207C1021.78,370.207 1021.87,370.241 1021.93,370.31C1022,370.379 1022.03,370.467 1022.03,370.575L1022.03,378.061C1022.03,378.169 1022,378.257 1021.94,378.326C1021.88,378.395 1021.79,378.429 1021.69,378.429C1021.58,378.429 1021.5,378.397 1021.44,378.332C1021.39,378.266 1021.36,378.176 1021.36,378.061L1021.36,371.679L1018.64,376.946C1018.55,377.122 1018.42,377.21 1018.26,377.21C1018.1,377.21 1017.97,377.122 1017.88,376.946L1015.13,371.725L1015.13,378.061C1015.13,378.176 1015.1,378.266 1015.05,378.332C1015,378.397 1014.92,378.429 1014.81,378.429C1014.69,378.429 1014.61,378.397 1014.55,378.332C1014.49,378.266 1014.46,378.176 1014.46,378.061L1014.46,370.575C1014.46,370.467 1014.5,370.379 1014.56,370.31C1014.63,370.241 1014.72,370.207 1014.83,370.207C1014.97,370.207 1015.08,370.295 1015.18,370.471L1018.27,376.405L1021.32,370.471C1021.41,370.295 1021.52,370.207 1021.66,370.207Z" style="fill:rgb(163,163,163);fill-rule:nonzero;"/>
                    <path d="M1024.35,378.429C1024.25,378.429 1024.16,378.399 1024.1,378.337C1024.03,378.276 1024,378.188 1024,378.073L1024,373.036C1024,372.921 1024.03,372.833 1024.1,372.771C1024.16,372.71 1024.25,372.679 1024.35,372.679C1024.46,372.679 1024.55,372.71 1024.61,372.771C1024.67,372.833 1024.7,372.921 1024.7,373.036L1024.7,378.073C1024.7,378.188 1024.67,378.276 1024.61,378.337C1024.55,378.399 1024.46,378.429 1024.35,378.429ZM1024.35,371.38C1024.2,371.38 1024.08,371.334 1023.98,371.242C1023.88,371.15 1023.84,371.031 1023.84,370.885C1023.84,370.732 1023.88,370.609 1023.98,370.517C1024.08,370.425 1024.2,370.379 1024.35,370.379C1024.51,370.379 1024.63,370.425 1024.73,370.517C1024.82,370.609 1024.87,370.732 1024.87,370.885C1024.87,371.031 1024.82,371.15 1024.73,371.242C1024.63,371.334 1024.51,371.38 1024.35,371.38Z" style="fill:rgb(163,163,163);fill-rule:nonzero;"/>
                    <path d="M1026.91,378.429C1026.8,378.429 1026.71,378.399 1026.65,378.337C1026.58,378.276 1026.55,378.188 1026.55,378.073L1026.55,370.563C1026.55,370.448 1026.58,370.36 1026.65,370.299C1026.71,370.237 1026.8,370.207 1026.91,370.207C1027.01,370.207 1027.09,370.237 1027.15,370.299C1027.22,370.36 1027.25,370.448 1027.25,370.563L1027.25,378.073C1027.25,378.188 1027.22,378.276 1027.15,378.337C1027.09,378.399 1027.01,378.429 1026.91,378.429Z" style="fill:rgb(163,163,163);fill-rule:nonzero;"/>
                    <path d="M1031.72,372.656C1032.22,372.656 1032.65,372.777 1033.02,373.019C1033.4,373.26 1033.69,373.601 1033.9,374.042C1034.11,374.483 1034.21,374.995 1034.21,375.577C1034.21,376.152 1034.11,376.656 1033.9,377.09C1033.69,377.523 1033.4,377.858 1033.02,378.096C1032.65,378.333 1032.22,378.452 1031.72,378.452C1031.27,378.452 1030.88,378.355 1030.55,378.159C1030.22,377.964 1029.97,377.678 1029.8,377.302L1029.8,380.143C1029.8,380.25 1029.77,380.336 1029.71,380.402C1029.65,380.467 1029.57,380.499 1029.46,380.499C1029.35,380.499 1029.27,380.467 1029.2,380.402C1029.13,380.336 1029.1,380.25 1029.1,380.143L1029.1,373.036C1029.1,372.928 1029.13,372.842 1029.2,372.777C1029.27,372.712 1029.35,372.679 1029.46,372.679C1029.57,372.679 1029.65,372.712 1029.71,372.777C1029.77,372.842 1029.8,372.928 1029.8,373.036L1029.8,373.806C1029.97,373.431 1030.22,373.145 1030.55,372.95C1030.88,372.754 1031.27,372.656 1031.72,372.656ZM1031.62,377.831C1032.21,377.831 1032.67,377.634 1033,377.239C1033.32,376.844 1033.48,376.29 1033.48,375.577C1033.48,374.849 1033.32,374.282 1033,373.875C1032.67,373.469 1032.22,373.266 1031.63,373.266C1031.05,373.266 1030.6,373.465 1030.28,373.864C1029.96,374.262 1029.8,374.826 1029.8,375.554C1029.8,376.283 1029.96,376.844 1030.28,377.239C1030.59,377.634 1031.04,377.831 1031.62,377.831Z" style="fill:rgb(163,163,163);fill-rule:nonzero;"/>
                    <path d="M1036.05,378.429C1035.94,378.429 1035.86,378.399 1035.79,378.337C1035.72,378.276 1035.69,378.188 1035.69,378.073L1035.69,373.036C1035.69,372.921 1035.72,372.833 1035.79,372.771C1035.86,372.71 1035.94,372.679 1036.05,372.679C1036.16,372.679 1036.24,372.71 1036.3,372.771C1036.36,372.833 1036.39,372.921 1036.39,373.036L1036.39,378.073C1036.39,378.188 1036.36,378.276 1036.3,378.337C1036.24,378.399 1036.16,378.429 1036.05,378.429ZM1036.05,371.38C1035.9,371.38 1035.77,371.334 1035.67,371.242C1035.58,371.15 1035.53,371.031 1035.53,370.885C1035.53,370.732 1035.58,370.609 1035.67,370.517C1035.77,370.425 1035.9,370.379 1036.05,370.379C1036.2,370.379 1036.33,370.425 1036.42,370.517C1036.52,370.609 1036.57,370.732 1036.57,370.885C1036.57,371.031 1036.52,371.15 1036.42,371.242C1036.33,371.334 1036.2,371.38 1036.05,371.38Z" style="fill:rgb(163,163,163);fill-rule:nonzero;"/>
                    <path d="M1040.67,377.843C1040.89,377.866 1040.99,377.965 1040.99,378.142C1040.99,378.234 1040.96,378.307 1040.89,378.36C1040.82,378.414 1040.71,378.437 1040.56,378.429L1040.24,378.406C1039.65,378.368 1039.22,378.19 1038.94,377.872C1038.66,377.553 1038.52,377.068 1038.52,376.417L1038.52,373.358L1037.65,373.358C1037.56,373.358 1037.48,373.333 1037.43,373.283C1037.38,373.233 1037.35,373.166 1037.35,373.082C1037.35,372.997 1037.38,372.928 1037.43,372.875C1037.48,372.821 1037.56,372.794 1037.65,372.794L1038.52,372.794L1038.52,371.368C1038.52,371.253 1038.55,371.165 1038.61,371.104C1038.67,371.042 1038.76,371.012 1038.87,371.012C1038.97,371.012 1039.06,371.042 1039.12,371.104C1039.19,371.165 1039.22,371.253 1039.22,371.368L1039.22,372.794L1040.61,372.794C1040.71,372.794 1040.79,372.821 1040.84,372.875C1040.9,372.928 1040.92,372.997 1040.92,373.082C1040.92,373.166 1040.9,373.233 1040.84,373.283C1040.79,373.333 1040.71,373.358 1040.61,373.358L1039.22,373.358L1039.22,376.451C1039.22,376.927 1039.32,377.266 1039.5,377.469C1039.68,377.672 1039.97,377.789 1040.36,377.82L1040.67,377.843Z" style="fill:rgb(163,163,163);fill-rule:nonzero;"/>
                    <path d="M1044.21,372.656C1044.89,372.656 1045.39,372.833 1045.73,373.185C1046.06,373.538 1046.23,374.071 1046.23,374.784L1046.23,378.061C1046.23,378.169 1046.2,378.255 1046.13,378.32C1046.07,378.385 1045.99,378.418 1045.88,378.418C1045.77,378.418 1045.69,378.385 1045.63,378.32C1045.57,378.255 1045.54,378.169 1045.54,378.061L1045.54,377.371C1045.38,377.716 1045.14,377.983 1044.84,378.171C1044.53,378.358 1044.18,378.452 1043.78,378.452C1043.42,378.452 1043.09,378.379 1042.79,378.234C1042.49,378.088 1042.25,377.885 1042.08,377.624C1041.91,377.364 1041.82,377.076 1041.82,376.762C1041.82,376.348 1041.93,376.026 1042.14,375.796C1042.36,375.566 1042.71,375.401 1043.21,375.301C1043.71,375.202 1044.41,375.152 1045.3,375.152L1045.54,375.152L1045.54,374.726C1045.54,374.22 1045.43,373.85 1045.23,373.617C1045.02,373.383 1044.69,373.266 1044.25,373.266C1043.68,373.266 1043.14,373.415 1042.63,373.714C1042.6,373.73 1042.54,373.77 1042.45,373.835C1042.35,373.9 1042.27,373.933 1042.2,373.933C1042.12,373.933 1042.06,373.904 1042.01,373.847C1041.96,373.789 1041.94,373.718 1041.94,373.634C1041.94,373.465 1042.07,373.3 1042.34,373.139C1042.61,372.986 1042.91,372.867 1043.24,372.783C1043.57,372.698 1043.89,372.656 1044.21,372.656ZM1043.83,377.843C1044.33,377.843 1044.74,377.674 1045.06,377.337C1045.38,376.999 1045.54,376.57 1045.54,376.049L1045.54,375.669L1045.32,375.669C1044.58,375.669 1044.02,375.7 1043.63,375.761C1043.24,375.823 1042.96,375.928 1042.8,376.078C1042.64,376.227 1042.56,376.444 1042.56,376.727C1042.56,377.049 1042.68,377.316 1042.93,377.527C1043.17,377.737 1043.47,377.843 1043.83,377.843Z" style="fill:rgb(163,163,163);fill-rule:nonzero;"/>
                    <path d="M1049.86,378.452C1049.54,378.452 1049.22,378.408 1048.91,378.32C1048.6,378.232 1048.33,378.111 1048.09,377.958C1047.94,377.858 1047.84,377.772 1047.79,377.699C1047.73,377.626 1047.7,377.544 1047.7,377.452C1047.7,377.375 1047.72,377.31 1047.77,377.256C1047.82,377.203 1047.88,377.176 1047.95,377.176C1048.02,377.176 1048.14,377.233 1048.31,377.348C1048.53,377.494 1048.76,377.613 1048.99,377.705C1049.23,377.797 1049.52,377.843 1049.87,377.843C1050.32,377.843 1050.68,377.76 1050.93,377.596C1051.18,377.431 1051.31,377.195 1051.31,376.888C1051.31,376.704 1051.26,376.553 1051.17,376.434C1051.08,376.315 1050.93,376.212 1050.71,376.124C1050.5,376.035 1050.19,375.949 1049.79,375.865C1049.11,375.711 1048.62,375.514 1048.34,375.273C1048.05,375.031 1047.9,374.707 1047.9,374.301C1047.9,373.81 1048.1,373.413 1048.48,373.111C1048.86,372.808 1049.36,372.656 1049.97,372.656C1050.27,372.656 1050.56,372.695 1050.83,372.771C1051.1,372.848 1051.34,372.959 1051.54,373.105C1051.81,373.289 1051.94,373.469 1051.94,373.645C1051.94,373.722 1051.92,373.789 1051.87,373.847C1051.82,373.904 1051.76,373.933 1051.69,373.933C1051.61,373.933 1051.49,373.871 1051.33,373.749C1051.12,373.603 1050.92,373.486 1050.72,373.398C1050.51,373.31 1050.26,373.266 1049.94,373.266C1049.54,373.266 1049.22,373.356 1048.99,373.536C1048.75,373.716 1048.63,373.96 1048.63,374.266C1048.63,374.443 1048.67,374.588 1048.75,374.703C1048.83,374.818 1048.97,374.92 1049.16,375.008C1049.36,375.096 1049.64,375.182 1050.01,375.267C1050.54,375.389 1050.94,375.52 1051.23,375.658C1051.51,375.796 1051.72,375.961 1051.84,376.152C1051.96,376.344 1052.02,376.589 1052.02,376.888C1052.02,377.356 1051.83,377.734 1051.43,378.021C1051.04,378.309 1050.51,378.452 1049.86,378.452Z" style="fill:rgb(163,163,163);fill-rule:nonzero;"/>
                    <path d="M1053.82,377.325C1053.99,377.325 1054.12,377.39 1054.22,377.521C1054.33,377.651 1054.38,377.847 1054.38,378.107C1054.38,378.652 1054.21,379.108 1053.86,379.476C1053.79,379.552 1053.72,379.591 1053.63,379.591C1053.56,379.591 1053.5,379.568 1053.45,379.522C1053.39,379.476 1053.37,379.418 1053.37,379.349C1053.37,379.296 1053.4,379.23 1053.46,379.154C1053.65,378.939 1053.76,378.694 1053.79,378.418C1053.65,378.402 1053.53,378.347 1053.44,378.251C1053.35,378.155 1053.31,378.031 1053.31,377.877C1053.31,377.716 1053.36,377.584 1053.45,377.481C1053.55,377.377 1053.67,377.325 1053.82,377.325Z" style="fill:rgb(163,163,163);fill-rule:nonzero;"/>
                    <path d="M1062.42,378.464C1061.67,378.464 1061.01,378.297 1060.46,377.964C1059.9,377.63 1059.48,377.151 1059.18,376.526C1058.89,375.901 1058.74,375.163 1058.74,374.312C1058.74,373.461 1058.89,372.725 1059.18,372.104C1059.48,371.483 1059.9,371.006 1060.46,370.673C1061.01,370.339 1061.67,370.172 1062.42,370.172C1062.93,370.172 1063.42,370.259 1063.88,370.431C1064.35,370.604 1064.74,370.851 1065.06,371.173C1065.17,371.272 1065.22,371.384 1065.22,371.506C1065.22,371.591 1065.2,371.663 1065.15,371.725C1065.1,371.786 1065.04,371.817 1064.98,371.817C1064.91,371.817 1064.82,371.778 1064.72,371.702C1064.3,371.364 1063.93,371.131 1063.59,371C1063.25,370.87 1062.86,370.805 1062.41,370.805C1061.48,370.805 1060.76,371.111 1060.25,371.725C1059.74,372.338 1059.49,373.201 1059.49,374.312C1059.49,375.432 1059.74,376.298 1060.25,376.911C1060.76,377.525 1061.48,377.831 1062.41,377.831C1062.86,377.831 1063.25,377.766 1063.59,377.636C1063.93,377.505 1064.3,377.272 1064.72,376.934C1064.83,376.858 1064.92,376.819 1064.98,376.819C1065.04,376.819 1065.1,376.85 1065.15,376.911C1065.2,376.973 1065.22,377.045 1065.22,377.13C1065.22,377.252 1065.17,377.364 1065.06,377.463C1064.74,377.785 1064.35,378.033 1063.88,378.205C1063.42,378.378 1062.93,378.464 1062.42,378.464Z" style="fill:rgb(163,163,163);fill-rule:nonzero;"/>
                    <path d="M1073.45,377.992C1073.47,378.038 1073.48,378.084 1073.48,378.13C1073.48,378.215 1073.45,378.286 1073.38,378.343C1073.31,378.401 1073.23,378.429 1073.14,378.429C1073.08,378.429 1073.02,378.41 1072.96,378.372C1072.9,378.333 1072.86,378.28 1072.83,378.211L1071.95,376.21L1067.49,376.21L1066.6,378.211C1066.54,378.356 1066.43,378.429 1066.28,378.429C1066.19,378.429 1066.11,378.401 1066.05,378.343C1065.98,378.286 1065.95,378.211 1065.95,378.119C1065.95,378.065 1065.96,378.023 1065.97,377.992L1069.33,370.448C1069.4,370.28 1069.53,370.195 1069.71,370.195C1069.79,370.195 1069.87,370.218 1069.94,370.264C1070.02,370.31 1070.07,370.372 1070.1,370.448L1073.45,377.992ZM1067.75,375.589L1071.68,375.589L1069.72,371.138L1067.75,375.589Z" style="fill:rgb(163,163,163);fill-rule:nonzero;"/>
                    <path d="M1079.96,370.172C1080.91,370.172 1081.65,370.512 1082.17,371.19C1082.7,371.869 1082.96,372.836 1082.96,374.094C1082.96,375.474 1082.69,376.547 1082.15,377.314C1081.62,378.08 1080.87,378.464 1079.91,378.464C1079.46,378.464 1079.03,378.376 1078.6,378.199C1078.17,378.023 1077.81,377.785 1077.51,377.486C1077.41,377.394 1077.36,377.283 1077.36,377.153C1077.36,377.068 1077.38,376.996 1077.43,376.934C1077.47,376.873 1077.53,376.842 1077.59,376.842C1077.66,376.842 1077.75,376.881 1077.85,376.957C1078.55,377.548 1079.24,377.843 1079.91,377.843C1080.64,377.843 1081.21,377.513 1081.62,376.854C1082.04,376.194 1082.24,375.274 1082.24,374.094L1082.24,373.783C1082.07,374.259 1081.77,374.632 1081.36,374.905C1080.94,375.177 1080.47,375.313 1079.93,375.313C1079.43,375.313 1078.99,375.205 1078.61,374.991C1078.22,374.776 1077.92,374.475 1077.7,374.088C1077.49,373.701 1077.38,373.254 1077.38,372.748C1077.38,372.258 1077.49,371.817 1077.71,371.426C1077.94,371.035 1078.24,370.728 1078.63,370.506C1079.02,370.283 1079.46,370.172 1079.96,370.172ZM1079.99,374.68C1080.57,374.68 1081.04,374.5 1081.4,374.14C1081.77,373.779 1081.96,373.316 1081.96,372.748C1081.96,372.166 1081.78,371.694 1081.41,371.334C1081.05,370.973 1080.57,370.793 1079.98,370.793C1079.41,370.793 1078.96,370.972 1078.62,371.328C1078.28,371.685 1078.1,372.158 1078.1,372.748C1078.1,373.331 1078.28,373.799 1078.62,374.151C1078.97,374.504 1079.42,374.68 1079.99,374.68Z" style="fill:rgb(163,163,163);fill-rule:nonzero;"/>
                    <path d="M1087.36,373.335C1087.88,373.335 1088.33,373.442 1088.71,373.657C1089.1,373.871 1089.4,374.17 1089.61,374.554C1089.82,374.937 1089.93,375.382 1089.93,375.888C1089.93,376.386 1089.82,376.829 1089.59,377.216C1089.37,377.603 1089.06,377.906 1088.66,378.125C1088.26,378.343 1087.8,378.452 1087.28,378.452C1086.8,378.452 1086.33,378.364 1085.88,378.188C1085.43,378.011 1085.05,377.774 1084.75,377.475C1084.65,377.383 1084.6,377.272 1084.6,377.141C1084.6,377.057 1084.62,376.984 1084.67,376.923C1084.72,376.861 1084.77,376.831 1084.83,376.831C1084.91,376.831 1085,376.869 1085.1,376.946C1085.46,377.252 1085.82,377.477 1086.17,377.619C1086.52,377.76 1086.89,377.831 1087.27,377.831C1087.87,377.831 1088.34,377.657 1088.68,377.308C1089.03,376.959 1089.2,376.486 1089.2,375.888C1089.2,375.313 1089.03,374.847 1088.69,374.491C1088.35,374.134 1087.89,373.956 1087.32,373.956C1086.55,373.956 1085.95,374.259 1085.51,374.864C1085.42,374.987 1085.3,375.048 1085.16,375.048C1085.08,375.048 1085.01,375.021 1084.95,374.968C1084.89,374.914 1084.86,374.837 1084.86,374.738L1084.86,370.598C1084.86,370.506 1084.89,370.427 1084.95,370.362C1085.01,370.297 1085.09,370.264 1085.2,370.264L1089.35,370.264C1089.45,370.264 1089.53,370.291 1089.59,370.345C1089.65,370.398 1089.68,370.475 1089.68,370.575C1089.68,370.659 1089.65,370.73 1089.59,370.788C1089.53,370.845 1089.45,370.874 1089.35,370.874L1085.56,370.874L1085.56,374.094C1085.77,373.848 1086.03,373.661 1086.34,373.53C1086.65,373.4 1086.99,373.335 1087.36,373.335Z" style="fill:rgb(163,163,163);fill-rule:nonzero;"/>
                    <path d="M1094,378.464C1093.09,378.464 1092.39,378.113 1091.92,377.412C1091.44,376.71 1091.2,375.681 1091.2,374.324C1091.2,372.959 1091.44,371.926 1091.92,371.225C1092.39,370.523 1093.09,370.172 1094,370.172C1094.91,370.172 1095.6,370.523 1096.08,371.225C1096.55,371.926 1096.79,372.955 1096.79,374.312C1096.79,375.669 1096.55,376.7 1096.08,377.406C1095.6,378.111 1094.91,378.464 1094,378.464ZM1094,377.831C1094.7,377.831 1095.22,377.546 1095.56,376.975C1095.89,376.403 1096.06,375.516 1096.06,374.312C1096.06,373.109 1095.89,372.223 1095.56,371.656C1095.22,371.088 1094.7,370.805 1094,370.805C1093.29,370.805 1092.77,371.088 1092.44,371.656C1092.11,372.223 1091.94,373.109 1091.94,374.312C1091.94,375.508 1092.11,376.394 1092.44,376.969C1092.78,377.544 1093.3,377.831 1094,377.831Z" style="fill:rgb(163,163,163);fill-rule:nonzero;"/>
                    <path d="M1101.9,374.209C1102.4,374.339 1102.77,374.573 1103.03,374.91C1103.29,375.248 1103.42,375.673 1103.42,376.187C1103.42,376.884 1103.19,377.436 1102.73,377.843C1102.27,378.249 1101.64,378.452 1100.85,378.452C1100.35,378.452 1099.87,378.364 1099.41,378.188C1098.95,378.011 1098.57,377.774 1098.28,377.475C1098.18,377.383 1098.13,377.272 1098.13,377.141C1098.13,377.057 1098.15,376.984 1098.19,376.923C1098.24,376.861 1098.3,376.831 1098.36,376.831C1098.45,376.831 1098.54,376.869 1098.62,376.946C1098.98,377.26 1099.34,377.486 1099.7,377.624C1100.05,377.762 1100.44,377.831 1100.85,377.831C1101.44,377.831 1101.9,377.689 1102.22,377.406C1102.54,377.122 1102.7,376.716 1102.7,376.187C1102.7,375.106 1102.04,374.565 1100.7,374.565L1100.12,374.565C1100.02,374.565 1099.93,374.535 1099.87,374.473C1099.81,374.412 1099.78,374.339 1099.78,374.255C1099.78,374.17 1099.81,374.098 1099.87,374.036C1099.93,373.975 1100.01,373.944 1100.12,373.944L1100.53,373.944C1101.17,373.944 1101.66,373.797 1102.01,373.502C1102.36,373.206 1102.53,372.787 1102.53,372.242C1102.53,371.782 1102.39,371.426 1102.11,371.173C1101.83,370.92 1101.44,370.793 1100.93,370.793C1100.54,370.793 1100.17,370.864 1099.82,371.006C1099.47,371.148 1099.12,371.372 1098.75,371.679C1098.66,371.755 1098.57,371.794 1098.48,371.794C1098.42,371.794 1098.37,371.763 1098.32,371.702C1098.28,371.64 1098.25,371.568 1098.25,371.483C1098.25,371.353 1098.3,371.242 1098.4,371.15C1098.7,370.851 1099.08,370.613 1099.53,370.437C1099.98,370.26 1100.45,370.172 1100.93,370.172C1101.64,370.172 1102.2,370.354 1102.62,370.719C1103.03,371.083 1103.24,371.579 1103.24,372.208C1103.24,372.683 1103.12,373.099 1102.89,373.456C1102.65,373.812 1102.32,374.063 1101.9,374.209Z" style="fill:rgb(163,163,163);fill-rule:nonzero;"/>
                    <path d="M1108.06,373.335C1108.58,373.335 1109.03,373.442 1109.41,373.657C1109.8,373.871 1110.1,374.17 1110.31,374.554C1110.52,374.937 1110.63,375.382 1110.63,375.888C1110.63,376.386 1110.52,376.829 1110.29,377.216C1110.07,377.603 1109.76,377.906 1109.36,378.125C1108.96,378.343 1108.5,378.452 1107.98,378.452C1107.5,378.452 1107.03,378.364 1106.58,378.188C1106.13,378.011 1105.75,377.774 1105.45,377.475C1105.35,377.383 1105.3,377.272 1105.3,377.141C1105.3,377.057 1105.33,376.984 1105.37,376.923C1105.42,376.861 1105.47,376.831 1105.53,376.831C1105.61,376.831 1105.7,376.869 1105.8,376.946C1106.16,377.252 1106.52,377.477 1106.87,377.619C1107.22,377.76 1107.59,377.831 1107.97,377.831C1108.57,377.831 1109.04,377.657 1109.38,377.308C1109.73,376.959 1109.9,376.486 1109.9,375.888C1109.9,375.313 1109.73,374.847 1109.39,374.491C1109.05,374.134 1108.59,373.956 1108.02,373.956C1107.25,373.956 1106.65,374.259 1106.21,374.864C1106.12,374.987 1106,375.048 1105.87,375.048C1105.78,375.048 1105.71,375.021 1105.65,374.968C1105.59,374.914 1105.56,374.837 1105.56,374.738L1105.56,370.598C1105.56,370.506 1105.59,370.427 1105.65,370.362C1105.71,370.297 1105.79,370.264 1105.9,370.264L1110.05,370.264C1110.15,370.264 1110.23,370.291 1110.29,370.345C1110.35,370.398 1110.38,370.475 1110.38,370.575C1110.38,370.659 1110.35,370.73 1110.29,370.788C1110.23,370.845 1110.15,370.874 1110.05,370.874L1106.26,370.874L1106.26,374.094C1106.47,373.848 1106.73,373.661 1107.04,373.53C1107.36,373.4 1107.69,373.335 1108.06,373.335Z" style="fill:rgb(163,163,163);fill-rule:nonzero;"/>
                </g>
            </g>
        </g>
    </g>
</svg>
