<?xml version="1.0" encoding="UTF-8" standalone="no"?>
<!DOCTYPE svg PUBLIC "-//W3C//DTD SVG 1.1//EN" "http://www.w3.org/Graphics/SVG/1.1/DTD/svg11.dtd">
<svg width="100%" height="100%" viewBox="0 0 257 271" version="1.1" xmlns="http://www.w3.org/2000/svg" xmlns:xlink="http://www.w3.org/1999/xlink" xml:space="preserve" xmlns:serif="http://www.serif.com/" style="fill-rule:evenodd;clip-rule:evenodd;stroke-linecap:round;stroke-linejoin:round;stroke-miterlimit:1.5;">
    <g transform="matrix(1,0,0,1,-760,-118)">
        <g transform="matrix(1,0,0,1,-0.684275,0)">
            <g>
                <g>
                    <path d="M762.801,193.383L762.801,386.629L829.686,386.629" style="fill:none;stroke:rgb(54,54,54);stroke-width:3px;"/>
                    <g transform="matrix(1,0,0,-1,368.16,609.083)">
                        <path d="M394.641,298.929L433.318,298.929" style="fill:none;stroke:rgb(54,54,54);stroke-width:3px;"/>
                    </g>
                    <g transform="matrix(1,0,0,-1,368.16,550.758)">
                        <path d="M394.641,298.929L433.318,298.929" style="fill:none;stroke:rgb(54,54,54);stroke-width:3px;"/>
                    </g>
                    <g transform="matrix(1,0,0,-1,368.16,492.312)">
                        <path d="M394.641,298.929L433.318,298.929" style="fill:none;stroke:rgb(54,54,54);stroke-width:3px;"/>
                    </g>
                </g>
                <g transform="matrix(1.0096,0,0,1.00787,-5.71752,1.2893)">
                    <path d="M1012.05,125.326C1012.05,121.012 1008.56,117.51 1004.25,117.51L821.402,117.51C817.095,117.51 813.599,121.012 813.599,125.326L813.599,336.811C813.599,341.125 817.095,344.627 821.402,344.627L1004.25,344.627C1008.56,344.627 1012.05,341.125 1012.05,336.811L1012.05,125.326Z" style="fill:none;stroke:rgb(243,110,35);stroke-width:1.98px;stroke-dasharray:5.95,3.97,0,0;"/>
                </g>
                <g transform="matrix(1,0,0,1,1.37261,5.24149)">
                    <path d="M838.035,141.606C836.701,141.606 835.548,141.316 834.575,140.736C833.601,140.156 832.851,139.323 832.325,138.236C831.798,137.15 831.535,135.866 831.535,134.386C831.535,132.92 831.798,131.643 832.325,130.556C832.851,129.47 833.601,128.636 834.575,128.056C835.548,127.476 836.701,127.186 838.035,127.186C838.928,127.186 839.771,127.33 840.565,127.616C841.358,127.903 842.048,128.313 842.635,128.846C842.848,129.046 842.955,129.28 842.955,129.546C842.955,129.733 842.901,129.896 842.795,130.036C842.688,130.176 842.561,130.246 842.415,130.246C842.255,130.246 842.061,130.173 841.835,130.026C841.155,129.493 840.538,129.12 839.985,128.906C839.431,128.693 838.795,128.586 838.075,128.586C836.528,128.586 835.338,129.09 834.505,130.096C833.671,131.103 833.255,132.533 833.255,134.386C833.255,136.253 833.671,137.69 834.505,138.696C835.338,139.703 836.528,140.206 838.075,140.206C838.781,140.206 839.415,140.1 839.975,139.886C840.535,139.673 841.155,139.3 841.835,138.766C842.061,138.62 842.255,138.546 842.415,138.546C842.561,138.546 842.688,138.613 842.795,138.746C842.901,138.88 842.955,139.046 842.955,139.246C842.955,139.513 842.848,139.746 842.635,139.946C842.048,140.48 841.358,140.89 840.565,141.176C839.771,141.463 838.928,141.606 838.035,141.606Z" style="fill:rgb(99,101,105);fill-rule:nonzero;"/>
                    <path d="M846.175,141.546C845.935,141.546 845.738,141.476 845.585,141.336C845.431,141.196 845.355,141 845.355,140.746L845.355,128.046C845.355,127.793 845.431,127.596 845.585,127.456C845.738,127.316 845.935,127.246 846.175,127.246C846.401,127.246 846.591,127.316 846.745,127.456C846.898,127.596 846.975,127.793 846.975,128.046L846.975,140.746C846.975,141 846.898,141.196 846.745,141.336C846.591,141.476 846.401,141.546 846.175,141.546Z" style="fill:rgb(99,101,105);fill-rule:nonzero;"/>
                    <path d="M853.975,131.466C856.415,131.466 857.635,132.746 857.635,135.306L857.635,140.746C857.635,140.986 857.565,141.18 857.425,141.326C857.285,141.473 857.095,141.546 856.855,141.546C856.615,141.546 856.421,141.473 856.275,141.326C856.128,141.18 856.055,140.986 856.055,140.746L856.055,139.786C855.801,140.36 855.415,140.803 854.895,141.116C854.375,141.43 853.775,141.586 853.095,141.586C852.468,141.586 851.891,141.46 851.365,141.206C850.838,140.953 850.421,140.6 850.115,140.146C849.808,139.693 849.655,139.193 849.655,138.646C849.655,137.913 849.841,137.343 850.215,136.936C850.588,136.53 851.201,136.236 852.055,136.056C852.908,135.876 854.095,135.786 855.615,135.786L856.055,135.786L856.055,135.126C856.055,134.326 855.891,133.74 855.565,133.366C855.238,132.993 854.708,132.806 853.975,132.806C853.068,132.806 852.148,133.053 851.215,133.546C850.855,133.773 850.601,133.886 850.455,133.886C850.295,133.886 850.161,133.826 850.055,133.706C849.948,133.586 849.895,133.433 849.895,133.246C849.895,133.06 849.951,132.896 850.065,132.756C850.178,132.616 850.361,132.473 850.615,132.326C851.081,132.06 851.611,131.85 852.205,131.696C852.798,131.543 853.388,131.466 853.975,131.466ZM853.315,140.306C854.115,140.306 854.771,140.036 855.285,139.496C855.798,138.956 856.055,138.26 856.055,137.406L856.055,136.826L855.695,136.826C854.521,136.826 853.628,136.876 853.015,136.976C852.401,137.076 851.965,137.243 851.705,137.476C851.445,137.71 851.315,138.053 851.315,138.506C851.315,139.026 851.505,139.456 851.885,139.796C852.265,140.136 852.741,140.306 853.315,140.306Z" style="fill:rgb(99,101,105);fill-rule:nonzero;"/>
                    <path d="M863.875,141.586C863.261,141.586 862.678,141.513 862.125,141.366C861.571,141.22 861.081,141.013 860.655,140.746C860.415,140.586 860.245,140.436 860.145,140.296C860.045,140.156 859.995,139.986 859.995,139.786C859.995,139.613 860.045,139.47 860.145,139.356C860.245,139.243 860.375,139.186 860.535,139.186C860.695,139.186 860.928,139.286 861.235,139.486C861.635,139.726 862.031,139.916 862.425,140.056C862.818,140.196 863.308,140.266 863.895,140.266C864.615,140.266 865.175,140.14 865.575,139.886C865.975,139.633 866.175,139.266 866.175,138.786C866.175,138.493 866.101,138.256 865.955,138.076C865.808,137.896 865.555,137.736 865.195,137.596C864.835,137.456 864.308,137.313 863.615,137.166C862.441,136.913 861.601,136.573 861.095,136.146C860.588,135.72 860.335,135.14 860.335,134.406C860.335,133.833 860.495,133.326 860.815,132.886C861.135,132.446 861.578,132.1 862.145,131.846C862.711,131.593 863.355,131.466 864.075,131.466C864.595,131.466 865.098,131.536 865.585,131.676C866.071,131.816 866.501,132.013 866.875,132.266C867.328,132.586 867.555,132.92 867.555,133.266C867.555,133.44 867.501,133.586 867.395,133.706C867.288,133.826 867.161,133.886 867.015,133.886C866.855,133.886 866.615,133.773 866.295,133.546C865.921,133.306 865.568,133.12 865.235,132.986C864.901,132.853 864.488,132.786 863.995,132.786C863.368,132.786 862.865,132.926 862.485,133.206C862.105,133.486 861.915,133.86 861.915,134.326C861.915,134.62 861.985,134.856 862.125,135.036C862.265,135.216 862.498,135.376 862.825,135.516C863.151,135.656 863.621,135.793 864.235,135.926C865.141,136.126 865.845,136.346 866.345,136.586C866.845,136.826 867.201,137.12 867.415,137.466C867.628,137.813 867.735,138.253 867.735,138.786C867.735,139.626 867.381,140.303 866.675,140.816C865.968,141.33 865.035,141.586 863.875,141.586Z" style="fill:rgb(99,101,105);fill-rule:nonzero;"/>
                    <path d="M873.475,141.586C872.861,141.586 872.278,141.513 871.725,141.366C871.171,141.22 870.681,141.013 870.255,140.746C870.015,140.586 869.845,140.436 869.745,140.296C869.645,140.156 869.595,139.986 869.595,139.786C869.595,139.613 869.645,139.47 869.745,139.356C869.845,139.243 869.975,139.186 870.135,139.186C870.295,139.186 870.528,139.286 870.835,139.486C871.235,139.726 871.631,139.916 872.025,140.056C872.418,140.196 872.908,140.266 873.495,140.266C874.215,140.266 874.775,140.14 875.175,139.886C875.575,139.633 875.775,139.266 875.775,138.786C875.775,138.493 875.701,138.256 875.555,138.076C875.408,137.896 875.155,137.736 874.795,137.596C874.435,137.456 873.908,137.313 873.215,137.166C872.041,136.913 871.201,136.573 870.695,136.146C870.188,135.72 869.935,135.14 869.935,134.406C869.935,133.833 870.095,133.326 870.415,132.886C870.735,132.446 871.178,132.1 871.745,131.846C872.311,131.593 872.955,131.466 873.675,131.466C874.195,131.466 874.698,131.536 875.185,131.676C875.671,131.816 876.101,132.013 876.475,132.266C876.928,132.586 877.155,132.92 877.155,133.266C877.155,133.44 877.101,133.586 876.995,133.706C876.888,133.826 876.761,133.886 876.615,133.886C876.455,133.886 876.215,133.773 875.895,133.546C875.521,133.306 875.168,133.12 874.835,132.986C874.501,132.853 874.088,132.786 873.595,132.786C872.968,132.786 872.465,132.926 872.085,133.206C871.705,133.486 871.515,133.86 871.515,134.326C871.515,134.62 871.585,134.856 871.725,135.036C871.865,135.216 872.098,135.376 872.425,135.516C872.751,135.656 873.221,135.793 873.835,135.926C874.741,136.126 875.445,136.346 875.945,136.586C876.445,136.826 876.801,137.12 877.015,137.466C877.228,137.813 877.335,138.253 877.335,138.786C877.335,139.626 876.981,140.303 876.275,140.816C875.568,141.33 874.635,141.586 873.475,141.586Z" style="fill:rgb(99,101,105);fill-rule:nonzero;"/>
                    <path d="M880.615,141.546C880.375,141.546 880.178,141.476 880.025,141.336C879.871,141.196 879.795,141 879.795,140.746L879.795,132.306C879.795,132.053 879.871,131.856 880.025,131.716C880.178,131.576 880.375,131.506 880.615,131.506C880.855,131.506 881.048,131.576 881.195,131.716C881.341,131.856 881.415,132.053 881.415,132.306L881.415,140.746C881.415,141.013 881.341,141.213 881.195,141.346C881.048,141.48 880.855,141.546 880.615,141.546ZM880.615,129.406C880.295,129.406 880.035,129.313 879.835,129.126C879.635,128.94 879.535,128.693 879.535,128.386C879.535,128.093 879.635,127.853 879.835,127.666C880.035,127.48 880.295,127.386 880.615,127.386C880.935,127.386 881.195,127.48 881.395,127.666C881.595,127.853 881.695,128.093 881.695,128.386C881.695,128.693 881.595,128.94 881.395,129.126C881.195,129.313 880.935,129.406 880.615,129.406Z" style="fill:rgb(99,101,105);fill-rule:nonzero;"/>
                    <path d="M891.895,131.706C892.121,131.706 892.295,131.766 892.415,131.886C892.535,132.006 892.595,132.166 892.595,132.366L892.595,140.746C892.595,141 892.518,141.196 892.365,141.336C892.211,141.476 892.021,141.546 891.795,141.546C891.555,141.546 891.358,141.476 891.205,141.336C891.051,141.196 890.975,141 890.975,140.746L890.975,132.986L886.595,132.986L886.595,140.746C886.595,141 886.518,141.196 886.365,141.336C886.211,141.476 886.021,141.546 885.795,141.546C885.555,141.546 885.358,141.476 885.205,141.336C885.051,141.196 884.975,141 884.975,140.746L884.975,132.986L883.635,132.986C883.408,132.986 883.231,132.93 883.105,132.816C882.978,132.703 882.915,132.553 882.915,132.366C882.915,132.166 882.978,132.006 883.105,131.886C883.231,131.766 883.408,131.706 883.635,131.706L884.975,131.706L884.975,131.366C884.975,130.166 885.275,129.223 885.875,128.536C886.475,127.85 887.335,127.46 888.455,127.366L888.935,127.326C889.575,127.273 889.895,127.473 889.895,127.926C889.895,128.313 889.668,128.533 889.215,128.586L888.735,128.626C888.028,128.68 887.495,128.903 887.135,129.296C886.775,129.69 886.595,130.28 886.595,131.066L886.595,131.706L891.895,131.706ZM891.795,127.386C892.101,127.386 892.358,127.48 892.565,127.666C892.771,127.853 892.875,128.093 892.875,128.386C892.875,128.693 892.775,128.94 892.575,129.126C892.375,129.313 892.115,129.406 891.795,129.406C891.475,129.406 891.215,129.313 891.015,129.126C890.815,128.94 890.715,128.693 890.715,128.386C890.715,128.093 890.815,127.853 891.015,127.666C891.215,127.48 891.475,127.386 891.795,127.386Z" style="fill:rgb(99,101,105);fill-rule:nonzero;"/>
                    <path d="M903.155,139.186C903.301,139.186 903.428,139.246 903.535,139.366C903.641,139.486 903.695,139.64 903.695,139.826C903.695,140.16 903.461,140.466 902.995,140.746C902.515,141.026 902.008,141.236 901.475,141.376C900.941,141.516 900.421,141.586 899.915,141.586C898.408,141.586 897.218,141.14 896.345,140.246C895.471,139.353 895.035,138.12 895.035,136.546C895.035,135.546 895.228,134.663 895.615,133.896C896.001,133.13 896.545,132.533 897.245,132.106C897.945,131.68 898.741,131.466 899.635,131.466C900.901,131.466 901.908,131.88 902.655,132.706C903.401,133.533 903.775,134.653 903.775,136.066C903.775,136.333 903.721,136.526 903.615,136.646C903.508,136.766 903.335,136.826 903.095,136.826L896.655,136.826C896.775,139.12 897.861,140.266 899.915,140.266C900.435,140.266 900.881,140.196 901.255,140.056C901.628,139.916 902.028,139.726 902.455,139.486C902.801,139.286 903.035,139.186 903.155,139.186ZM899.655,132.726C898.801,132.726 898.118,132.993 897.605,133.526C897.091,134.06 896.788,134.813 896.695,135.786L902.355,135.786C902.328,134.8 902.081,134.043 901.615,133.516C901.148,132.99 900.495,132.726 899.655,132.726Z" style="fill:rgb(99,101,105);fill-rule:nonzero;"/>
                    <path d="M913.975,127.246C914.228,127.246 914.428,127.32 914.575,127.466C914.721,127.613 914.795,127.8 914.795,128.026L914.795,140.746C914.795,140.986 914.721,141.18 914.575,141.326C914.428,141.473 914.228,141.546 913.975,141.546C913.721,141.546 913.525,141.473 913.385,141.326C913.245,141.18 913.175,140.986 913.175,140.746L913.175,139.666C912.881,140.28 912.451,140.753 911.885,141.086C911.318,141.42 910.655,141.586 909.895,141.586C909.041,141.586 908.288,141.373 907.635,140.946C906.981,140.52 906.475,139.923 906.115,139.156C905.755,138.39 905.575,137.5 905.575,136.486C905.575,135.486 905.755,134.606 906.115,133.846C906.475,133.086 906.981,132.5 907.635,132.086C908.288,131.673 909.041,131.466 909.895,131.466C910.655,131.466 911.318,131.633 911.885,131.966C912.451,132.3 912.881,132.773 913.175,133.386L913.175,128.026C913.175,127.786 913.245,127.596 913.385,127.456C913.525,127.316 913.721,127.246 913.975,127.246ZM910.215,140.246C911.161,140.246 911.891,139.923 912.405,139.276C912.918,138.63 913.175,137.713 913.175,136.526C913.175,135.34 912.918,134.426 912.405,133.786C911.891,133.146 911.161,132.826 910.215,132.826C909.268,132.826 908.531,133.146 908.005,133.786C907.478,134.426 907.215,135.326 907.215,136.486C907.215,137.673 907.478,138.596 908.005,139.256C908.531,139.916 909.268,140.246 910.215,140.246Z" style="fill:rgb(99,101,105);fill-rule:nonzero;"/>
                    <path d="M935.715,127.246C935.968,127.246 936.165,127.323 936.305,127.476C936.445,127.63 936.515,127.833 936.515,128.086L936.515,140.746C936.515,140.986 936.448,141.18 936.315,141.326C936.181,141.473 935.995,141.546 935.755,141.546C935.515,141.546 935.335,141.473 935.215,141.326C935.095,141.18 935.035,140.986 935.035,140.746L935.035,130.526L930.695,138.846C930.508,139.233 930.235,139.426 929.875,139.426C929.528,139.426 929.255,139.233 929.055,138.846L924.695,130.626L924.695,140.746C924.695,140.986 924.631,141.18 924.505,141.326C924.378,141.473 924.195,141.546 923.955,141.546C923.715,141.546 923.528,141.473 923.395,141.326C923.261,141.18 923.195,140.986 923.195,140.746L923.195,128.086C923.195,127.833 923.268,127.63 923.415,127.476C923.561,127.323 923.761,127.246 924.015,127.246C924.348,127.246 924.615,127.44 924.815,127.826L929.895,137.566L934.915,127.826C935.021,127.613 935.138,127.463 935.265,127.376C935.391,127.29 935.541,127.246 935.715,127.246Z" style="fill:rgb(99,101,105);fill-rule:nonzero;"/>
                    <path d="M943.755,131.466C946.195,131.466 947.415,132.746 947.415,135.306L947.415,140.746C947.415,140.986 947.345,141.18 947.205,141.326C947.065,141.473 946.875,141.546 946.635,141.546C946.395,141.546 946.201,141.473 946.055,141.326C945.908,141.18 945.835,140.986 945.835,140.746L945.835,139.786C945.581,140.36 945.195,140.803 944.675,141.116C944.155,141.43 943.555,141.586 942.875,141.586C942.248,141.586 941.671,141.46 941.145,141.206C940.618,140.953 940.201,140.6 939.895,140.146C939.588,139.693 939.435,139.193 939.435,138.646C939.435,137.913 939.621,137.343 939.995,136.936C940.368,136.53 940.981,136.236 941.835,136.056C942.688,135.876 943.875,135.786 945.395,135.786L945.835,135.786L945.835,135.126C945.835,134.326 945.671,133.74 945.345,133.366C945.018,132.993 944.488,132.806 943.755,132.806C942.848,132.806 941.928,133.053 940.995,133.546C940.635,133.773 940.381,133.886 940.235,133.886C940.075,133.886 939.941,133.826 939.835,133.706C939.728,133.586 939.675,133.433 939.675,133.246C939.675,133.06 939.731,132.896 939.845,132.756C939.958,132.616 940.141,132.473 940.395,132.326C940.861,132.06 941.391,131.85 941.985,131.696C942.578,131.543 943.168,131.466 943.755,131.466ZM943.095,140.306C943.895,140.306 944.551,140.036 945.065,139.496C945.578,138.956 945.835,138.26 945.835,137.406L945.835,136.826L945.475,136.826C944.301,136.826 943.408,136.876 942.795,136.976C942.181,137.076 941.745,137.243 941.485,137.476C941.225,137.71 941.095,138.053 941.095,138.506C941.095,139.026 941.285,139.456 941.665,139.796C942.045,140.136 942.521,140.306 943.095,140.306Z" style="fill:rgb(99,101,105);fill-rule:nonzero;"/>
                    <path d="M951.195,141.546C950.955,141.546 950.758,141.476 950.605,141.336C950.451,141.196 950.375,141 950.375,140.746L950.375,128.046C950.375,127.793 950.451,127.596 950.605,127.456C950.758,127.316 950.955,127.246 951.195,127.246C951.421,127.246 951.611,127.316 951.765,127.456C951.918,127.596 951.995,127.793 951.995,128.046L951.995,140.746C951.995,141 951.918,141.196 951.765,141.336C951.611,141.476 951.421,141.546 951.195,141.546Z" style="fill:rgb(99,101,105);fill-rule:nonzero;"/>
                    <path d="M968.335,132.026C968.468,131.706 968.688,131.546 968.995,131.546C969.195,131.546 969.375,131.613 969.535,131.746C969.695,131.88 969.775,132.046 969.775,132.246C969.775,132.34 969.755,132.44 969.715,132.546L966.395,140.946C966.315,141.12 966.198,141.256 966.045,141.356C965.891,141.456 965.721,141.506 965.535,141.506C965.361,141.506 965.198,141.456 965.045,141.356C964.891,141.256 964.775,141.12 964.695,140.946L961.935,133.926L959.195,140.946C959.128,141.12 959.015,141.256 958.855,141.356C958.695,141.456 958.521,141.506 958.335,141.506C958.161,141.506 957.995,141.456 957.835,141.356C957.675,141.256 957.555,141.12 957.475,140.946L954.155,132.566C954.115,132.46 954.095,132.366 954.095,132.286C954.095,132.073 954.185,131.893 954.365,131.746C954.545,131.6 954.741,131.526 954.955,131.526C955.275,131.526 955.501,131.686 955.635,132.006L958.375,139.386L961.195,132.066C961.275,131.893 961.385,131.76 961.525,131.666C961.665,131.573 961.815,131.526 961.975,131.526C962.148,131.526 962.305,131.573 962.445,131.666C962.585,131.76 962.688,131.893 962.755,132.066L965.575,139.366L968.335,132.026Z" style="fill:rgb(99,101,105);fill-rule:nonzero;"/>
                    <path d="M975.655,131.466C978.095,131.466 979.315,132.746 979.315,135.306L979.315,140.746C979.315,140.986 979.245,141.18 979.105,141.326C978.965,141.473 978.775,141.546 978.535,141.546C978.295,141.546 978.101,141.473 977.955,141.326C977.808,141.18 977.735,140.986 977.735,140.746L977.735,139.786C977.481,140.36 977.095,140.803 976.575,141.116C976.055,141.43 975.455,141.586 974.775,141.586C974.148,141.586 973.571,141.46 973.045,141.206C972.518,140.953 972.101,140.6 971.795,140.146C971.488,139.693 971.335,139.193 971.335,138.646C971.335,137.913 971.521,137.343 971.895,136.936C972.268,136.53 972.881,136.236 973.735,136.056C974.588,135.876 975.775,135.786 977.295,135.786L977.735,135.786L977.735,135.126C977.735,134.326 977.571,133.74 977.245,133.366C976.918,132.993 976.388,132.806 975.655,132.806C974.748,132.806 973.828,133.053 972.895,133.546C972.535,133.773 972.281,133.886 972.135,133.886C971.975,133.886 971.841,133.826 971.735,133.706C971.628,133.586 971.575,133.433 971.575,133.246C971.575,133.06 971.631,132.896 971.745,132.756C971.858,132.616 972.041,132.473 972.295,132.326C972.761,132.06 973.291,131.85 973.885,131.696C974.478,131.543 975.068,131.466 975.655,131.466ZM974.995,140.306C975.795,140.306 976.451,140.036 976.965,139.496C977.478,138.956 977.735,138.26 977.735,137.406L977.735,136.826L977.375,136.826C976.201,136.826 975.308,136.876 974.695,136.976C974.081,137.076 973.645,137.243 973.385,137.476C973.125,137.71 972.995,138.053 972.995,138.506C972.995,139.026 973.185,139.456 973.565,139.796C973.945,140.136 974.421,140.306 974.995,140.306Z" style="fill:rgb(99,101,105);fill-rule:nonzero;"/>
                    <path d="M987.095,131.506C987.655,131.466 987.935,131.693 987.935,132.186C987.935,132.4 987.875,132.57 987.755,132.696C987.635,132.823 987.428,132.9 987.135,132.926L986.535,132.986C985.641,133.066 984.978,133.383 984.545,133.936C984.111,134.49 983.895,135.14 983.895,135.886L983.895,140.746C983.895,141.013 983.821,141.213 983.675,141.346C983.528,141.48 983.335,141.546 983.095,141.546C982.855,141.546 982.658,141.476 982.505,141.336C982.351,141.196 982.275,141 982.275,140.746L982.275,132.306C982.275,132.053 982.355,131.856 982.515,131.716C982.675,131.576 982.868,131.506 983.095,131.506C983.308,131.506 983.488,131.576 983.635,131.716C983.781,131.856 983.855,132.046 983.855,132.286L983.855,133.406C984.135,132.82 984.531,132.373 985.045,132.066C985.558,131.76 986.148,131.58 986.815,131.526L987.095,131.506Z" style="fill:rgb(99,101,105);fill-rule:nonzero;"/>
                    <path d="M996.675,139.186C996.821,139.186 996.948,139.246 997.055,139.366C997.161,139.486 997.215,139.64 997.215,139.826C997.215,140.16 996.981,140.466 996.515,140.746C996.035,141.026 995.528,141.236 994.995,141.376C994.461,141.516 993.941,141.586 993.435,141.586C991.928,141.586 990.738,141.14 989.865,140.246C988.991,139.353 988.555,138.12 988.555,136.546C988.555,135.546 988.748,134.663 989.135,133.896C989.521,133.13 990.065,132.533 990.765,132.106C991.465,131.68 992.261,131.466 993.155,131.466C994.421,131.466 995.428,131.88 996.175,132.706C996.921,133.533 997.295,134.653 997.295,136.066C997.295,136.333 997.241,136.526 997.135,136.646C997.028,136.766 996.855,136.826 996.615,136.826L990.175,136.826C990.295,139.12 991.381,140.266 993.435,140.266C993.955,140.266 994.401,140.196 994.775,140.056C995.148,139.916 995.548,139.726 995.975,139.486C996.321,139.286 996.555,139.186 996.675,139.186ZM993.175,132.726C992.321,132.726 991.638,132.993 991.125,133.526C990.611,134.06 990.308,134.813 990.215,135.786L995.875,135.786C995.848,134.8 995.601,134.043 995.135,133.516C994.668,132.99 994.015,132.726 993.175,132.726Z" style="fill:rgb(99,101,105);fill-rule:nonzero;"/>
                </g>
            </g>
        </g>
    </g>
</svg>
