<?xml version="1.0" encoding="UTF-8" standalone="no"?>
<!DOCTYPE svg PUBLIC "-//W3C//DTD SVG 1.1//EN" "http://www.w3.org/Graphics/SVG/1.1/DTD/svg11.dtd">
<svg width="100%" height="100%" viewBox="0 0 160 18" version="1.1" xmlns="http://www.w3.org/2000/svg" xmlns:xlink="http://www.w3.org/1999/xlink" xml:space="preserve" xmlns:serif="http://www.serif.com/" style="fill-rule:evenodd;clip-rule:evenodd;stroke-linejoin:round;stroke-miterlimit:1.41421;">
    <g transform="matrix(1,0,0,1,-800,-347)">
        <g transform="matrix(1,0,0,1,-5.8215,-12.8269)">
            <path d="M814.923,375.243C815.199,375.243 815.414,375.312 815.567,375.45C815.72,375.588 815.797,375.779 815.797,376.025C815.797,376.285 815.724,376.485 815.579,376.623C815.433,376.761 815.214,376.83 814.923,376.83L807.31,376.83C807.019,376.83 806.8,376.761 806.655,376.623C806.509,376.485 806.436,376.285 806.436,376.025C806.436,375.779 806.513,375.588 806.666,375.45C806.819,375.312 807.034,375.243 807.31,375.243L810.162,375.243L810.162,362.915L807.655,364.548C807.532,364.624 807.41,364.663 807.287,364.663C807.072,364.663 806.885,364.563 806.724,364.364C806.563,364.164 806.482,363.95 806.482,363.72C806.482,363.398 806.605,363.168 806.85,363.03L810.346,360.753C810.607,360.584 810.875,360.5 811.151,360.5C811.412,360.5 811.626,360.584 811.795,360.753C811.964,360.921 812.048,361.159 812.048,361.466L812.048,375.243L814.923,375.243Z" style="fill:white;fill-rule:nonzero;"/>
            <path d="M829.091,375.243C829.367,375.243 829.582,375.312 829.735,375.45C829.888,375.588 829.965,375.779 829.965,376.025C829.965,376.561 829.674,376.83 829.091,376.83L820.075,376.83C819.814,376.83 819.6,376.749 819.431,376.588C819.262,376.427 819.178,376.232 819.178,376.002C819.178,375.71 819.285,375.457 819.5,375.243L825.043,369.148C825.81,368.289 826.366,367.519 826.711,366.836C827.056,366.154 827.228,365.468 827.228,364.778C827.228,363.888 826.971,363.206 826.458,362.731C825.944,362.255 825.219,362.018 824.284,362.018C823.548,362.018 822.843,362.152 822.168,362.42C821.493,362.689 820.819,363.099 820.144,363.651C819.914,363.835 819.699,363.927 819.5,363.927C819.331,363.927 819.186,363.846 819.063,363.685C818.94,363.524 818.879,363.329 818.879,363.099C818.879,362.777 819.002,362.516 819.247,362.317C819.876,361.734 820.642,361.274 821.547,360.937C822.452,360.599 823.379,360.431 824.33,360.431C825.787,360.431 826.948,360.814 827.815,361.581C828.681,362.347 829.114,363.382 829.114,364.686C829.114,365.621 828.903,366.518 828.482,367.377C828.06,368.235 827.366,369.194 826.4,370.252L821.8,375.243L829.091,375.243Z" style="fill:white;fill-rule:nonzero;"/>
            <path d="M848.066,375.404C848.25,375.588 848.342,375.81 848.342,376.071C848.342,376.301 848.258,376.5 848.089,376.669C847.92,376.837 847.721,376.922 847.491,376.922C847.246,376.922 847.023,376.814 846.824,376.6L843.098,372.345L839.395,376.6C839.196,376.814 838.973,376.922 838.728,376.922C838.498,376.922 838.295,376.837 838.119,376.669C837.942,376.5 837.854,376.293 837.854,376.048C837.854,375.818 837.946,375.603 838.13,375.404L841.948,371.103L838.291,366.94C838.107,366.725 838.015,366.51 838.015,366.296C838.015,366.05 838.103,365.843 838.28,365.675C838.456,365.506 838.651,365.422 838.866,365.422C839.111,365.422 839.334,365.529 839.533,365.744L843.098,369.838L846.663,365.744C846.862,365.529 847.085,365.422 847.33,365.422C847.56,365.422 847.759,365.506 847.928,365.675C848.097,365.843 848.181,366.043 848.181,366.273C848.181,366.533 848.089,366.756 847.905,366.94L844.248,371.103L848.066,375.404Z" style="fill:white;fill-rule:nonzero;"/>
            <path d="M866.305,375.243C866.581,375.243 866.796,375.312 866.949,375.45C867.102,375.588 867.179,375.779 867.179,376.025C867.179,376.285 867.106,376.485 866.961,376.623C866.815,376.761 866.596,376.83 866.305,376.83L858.692,376.83C858.401,376.83 858.182,376.761 858.037,376.623C857.891,376.485 857.818,376.285 857.818,376.025C857.818,375.779 857.895,375.588 858.048,375.45C858.201,375.312 858.416,375.243 858.692,375.243L861.544,375.243L861.544,362.915L859.037,364.548C858.914,364.624 858.792,364.663 858.669,364.663C858.454,364.663 858.267,364.563 858.106,364.364C857.945,364.164 857.864,363.95 857.864,363.72C857.864,363.398 857.987,363.168 858.232,363.03L861.728,360.753C861.989,360.584 862.257,360.5 862.533,360.5C862.794,360.5 863.008,360.584 863.177,360.753C863.346,360.921 863.43,361.159 863.43,361.466L863.43,375.243L866.305,375.243Z" style="fill:white;fill-rule:nonzero;"/>
            <path d="M888.776,368.389C889.006,368.389 889.194,368.458 889.34,368.596C889.485,368.734 889.558,368.925 889.558,369.171L889.558,374.898C889.558,375.266 889.501,375.542 889.386,375.726C889.271,375.91 889.06,376.055 888.753,376.163C888.14,376.423 887.396,376.63 886.522,376.784C885.648,376.937 884.774,377.014 883.9,377.014C882.29,377.014 880.902,376.684 879.737,376.025C878.572,375.365 877.679,374.415 877.058,373.173C876.437,371.931 876.126,370.443 876.126,368.711C876.126,367.009 876.433,365.537 877.046,364.295C877.659,363.053 878.541,362.098 879.691,361.431C880.841,360.764 882.19,360.431 883.739,360.431C884.812,360.431 885.809,360.596 886.729,360.925C887.649,361.255 888.423,361.726 889.052,362.34C889.313,362.6 889.443,362.869 889.443,363.145C889.443,363.359 889.382,363.547 889.259,363.708C889.136,363.869 888.983,363.95 888.799,363.95C888.615,363.95 888.4,363.858 888.155,363.674C887.358,363.06 886.637,362.635 885.993,362.397C885.349,362.16 884.605,362.041 883.762,362.041C881.937,362.041 880.538,362.616 879.565,363.766C878.591,364.916 878.104,366.564 878.104,368.711C878.104,370.903 878.599,372.571 879.588,373.713C880.577,374.856 882.029,375.427 883.946,375.427C885.372,375.427 886.668,375.212 887.833,374.783L887.833,369.861L884.475,369.861C884.214,369.861 884.007,369.792 883.854,369.654C883.701,369.516 883.624,369.339 883.624,369.125C883.624,368.895 883.701,368.715 883.854,368.584C884.007,368.454 884.214,368.389 884.475,368.389L888.776,368.389Z" style="fill:white;fill-rule:nonzero;"/>
            <path d="M898.735,365.353C899.716,365.353 900.583,365.59 901.334,366.066C902.085,366.541 902.668,367.216 903.082,368.09C903.496,368.964 903.703,369.976 903.703,371.126C903.703,372.291 903.496,373.315 903.082,374.196C902.668,375.078 902.085,375.764 901.334,376.255C900.583,376.745 899.716,376.991 898.735,376.991C897.861,376.991 897.098,376.799 896.447,376.416C895.795,376.032 895.3,375.488 894.963,374.783L894.963,376.025C894.963,376.301 894.883,376.523 894.722,376.692C894.561,376.86 894.334,376.945 894.043,376.945C893.752,376.945 893.522,376.86 893.353,376.692C893.184,376.523 893.1,376.301 893.1,376.025L893.1,361.397C893.1,361.136 893.184,360.921 893.353,360.753C893.522,360.584 893.752,360.5 894.043,360.5C894.334,360.5 894.561,360.58 894.722,360.741C894.883,360.902 894.963,361.121 894.963,361.397L894.963,367.561C895.3,366.855 895.795,366.311 896.447,365.928C897.098,365.544 897.861,365.353 898.735,365.353ZM898.367,375.45C899.456,375.45 900.299,375.07 900.897,374.311C901.495,373.552 901.794,372.49 901.794,371.126C901.794,369.792 901.495,368.757 900.897,368.021C900.299,367.285 899.456,366.917 898.367,366.917C897.278,366.917 896.439,367.285 895.849,368.021C895.258,368.757 894.963,369.807 894.963,371.172C894.963,372.536 895.258,373.591 895.849,374.334C896.439,375.078 897.278,375.45 898.367,375.45Z" style="fill:white;fill-rule:nonzero;"/>
            <path d="M907.728,376.83C907.437,376.83 907.203,376.745 907.027,376.577C906.85,376.408 906.762,376.186 906.762,375.91L906.762,361.535C906.762,361.259 906.85,361.036 907.027,360.868C907.203,360.699 907.437,360.615 907.728,360.615L916.33,360.615C916.606,360.615 916.821,360.684 916.974,360.822C917.127,360.96 917.204,361.151 917.204,361.397C917.204,361.642 917.127,361.834 916.974,361.972C916.821,362.11 916.606,362.179 916.33,362.179L908.625,362.179L908.625,367.814L915.87,367.814C916.146,367.814 916.361,367.883 916.514,368.021C916.667,368.159 916.744,368.35 916.744,368.596C916.744,368.841 916.667,369.033 916.514,369.171C916.361,369.309 916.146,369.378 915.87,369.378L908.625,369.378L908.625,375.266L916.33,375.266C916.606,375.266 916.821,375.331 916.974,375.461C917.127,375.592 917.204,375.787 917.204,376.048C917.204,376.293 917.127,376.485 916.974,376.623C916.821,376.761 916.606,376.83 916.33,376.83L907.728,376.83Z" style="fill:white;fill-rule:nonzero;"/>
            <path d="M931.257,377.014C930.107,377.014 929.007,376.841 927.957,376.496C926.906,376.151 926.067,375.687 925.438,375.105C925.208,374.89 925.093,374.622 925.093,374.3C925.093,374.085 925.154,373.897 925.277,373.736C925.4,373.575 925.545,373.495 925.714,373.495C925.913,373.495 926.128,373.579 926.358,373.748C927.784,374.852 929.409,375.404 931.234,375.404C932.553,375.404 933.565,375.151 934.27,374.645C934.975,374.139 935.328,373.418 935.328,372.483C935.328,371.946 935.159,371.513 934.822,371.183C934.485,370.854 934.04,370.589 933.488,370.39C932.936,370.19 932.192,369.983 931.257,369.769C930,369.477 928.969,369.171 928.164,368.849C927.359,368.527 926.707,368.067 926.209,367.469C925.71,366.871 925.461,366.089 925.461,365.123C925.461,364.203 925.71,363.386 926.209,362.673C926.707,361.96 927.405,361.408 928.302,361.017C929.199,360.626 930.222,360.431 931.372,360.431C932.445,360.431 933.446,360.596 934.374,360.925C935.301,361.255 936.079,361.726 936.708,362.34C936.953,362.585 937.076,362.853 937.076,363.145C937.076,363.359 937.015,363.547 936.892,363.708C936.769,363.869 936.624,363.95 936.455,363.95C936.286,363.95 936.064,363.865 935.788,363.697C935.037,363.083 934.339,362.654 933.695,362.409C933.051,362.163 932.277,362.041 931.372,362.041C930.099,362.041 929.11,362.305 928.405,362.834C927.7,363.363 927.347,364.103 927.347,365.054C927.347,365.866 927.658,366.476 928.279,366.882C928.9,367.289 929.854,367.645 931.142,367.952C932.537,368.289 933.634,368.6 934.431,368.883C935.228,369.167 935.892,369.592 936.421,370.16C936.95,370.727 937.214,371.486 937.214,372.437C937.214,373.341 936.965,374.139 936.467,374.829C935.968,375.519 935.267,376.055 934.362,376.439C933.457,376.822 932.422,377.014 931.257,377.014Z" style="fill:white;fill-rule:nonzero;"/>
            <path d="M941.216,376.945C940.925,376.945 940.695,376.857 940.526,376.68C940.357,376.504 940.273,376.27 940.273,375.979L940.273,361.535C940.273,361.259 940.361,361.036 940.538,360.868C940.714,360.699 940.948,360.615 941.239,360.615L949.611,360.615C949.887,360.615 950.102,360.684 950.255,360.822C950.408,360.96 950.485,361.159 950.485,361.42C950.485,361.665 950.408,361.857 950.255,361.995C950.102,362.133 949.887,362.202 949.611,362.202L942.136,362.202L942.136,367.791L949.151,367.791C949.427,367.791 949.642,367.86 949.795,367.998C949.948,368.136 950.025,368.335 950.025,368.596C950.025,368.841 949.948,369.033 949.795,369.171C949.642,369.309 949.427,369.378 949.151,369.378L942.136,369.378L942.136,375.979C942.136,376.27 942.056,376.504 941.895,376.68C941.734,376.857 941.507,376.945 941.216,376.945Z" style="fill:white;fill-rule:nonzero;"/>
            <path d="M954.027,376.945C953.736,376.945 953.506,376.857 953.337,376.68C953.168,376.504 953.084,376.27 953.084,375.979L953.084,361.535C953.084,361.259 953.172,361.036 953.349,360.868C953.525,360.699 953.759,360.615 954.05,360.615L959.501,360.615C961.203,360.615 962.526,361.029 963.469,361.857C964.412,362.685 964.883,363.858 964.883,365.376C964.883,366.894 964.408,368.074 963.457,368.918C962.506,369.761 961.188,370.183 959.501,370.183L954.97,370.183L954.97,375.979C954.97,376.27 954.886,376.504 954.717,376.68C954.548,376.857 954.318,376.945 954.027,376.945ZM959.317,368.619C961.786,368.619 963.02,367.538 963.02,365.376C963.02,363.244 961.786,362.179 959.317,362.179L954.97,362.179L954.97,368.619L959.317,368.619Z" style="fill:white;fill-rule:nonzero;"/>
        </g>
    </g>
</svg>
