<?xml version="1.0" encoding="UTF-8" standalone="no"?>
<!DOCTYPE svg PUBLIC "-//W3C//DTD SVG 1.1//EN" "http://www.w3.org/Graphics/SVG/1.1/DTD/svg11.dtd">
<svg width="100%" height="100%" viewBox="0 0 193 19" version="1.1" xmlns="http://www.w3.org/2000/svg" xmlns:xlink="http://www.w3.org/1999/xlink" xml:space="preserve" xmlns:serif="http://www.serif.com/" style="fill-rule:evenodd;clip-rule:evenodd;stroke-linejoin:round;stroke-miterlimit:1.41421;">
    <g transform="matrix(1,0,0,1,-598,-481)">
        <g transform="matrix(1,0,0,1,353.043,360.751)">
            <path d="M252.416,134.784C251.056,134.784 249.866,134.49 248.846,133.904C247.826,133.317 247.042,132.477 246.496,131.384C245.949,130.29 245.676,129.01 245.676,127.544C245.676,126.077 245.949,124.8 246.496,123.714C247.042,122.627 247.826,121.79 248.846,121.204C249.866,120.617 251.056,120.324 252.416,120.324C253.296,120.324 254.122,120.454 254.896,120.714C255.669,120.974 256.356,121.35 256.956,121.844C257.129,121.977 257.249,122.117 257.316,122.264C257.382,122.41 257.416,122.59 257.416,122.804C257.416,123.097 257.336,123.344 257.176,123.544C257.016,123.744 256.822,123.844 256.596,123.844C256.329,123.844 256.056,123.75 255.776,123.564C255.202,123.137 254.669,122.84 254.176,122.674C253.682,122.507 253.136,122.424 252.536,122.424C251.149,122.424 250.099,122.857 249.386,123.724C248.672,124.59 248.316,125.864 248.316,127.544C248.316,129.237 248.672,130.517 249.386,131.384C250.099,132.25 251.149,132.684 252.536,132.684C253.109,132.684 253.639,132.597 254.126,132.424C254.612,132.25 255.162,131.957 255.776,131.544C255.909,131.464 256.042,131.397 256.176,131.344C256.309,131.29 256.449,131.264 256.596,131.264C256.822,131.264 257.016,131.364 257.176,131.564C257.336,131.764 257.416,132.01 257.416,132.304C257.416,132.504 257.382,132.68 257.316,132.834C257.249,132.987 257.129,133.13 256.956,133.264C256.356,133.757 255.669,134.134 254.896,134.394C254.122,134.654 253.296,134.784 252.416,134.784Z" style="fill:rgb(99,101,106);fill-rule:nonzero;"/>
            <path d="M266.996,131.924C267.222,131.924 267.406,132.01 267.546,132.184C267.686,132.357 267.756,132.59 267.756,132.884C267.756,133.297 267.509,133.644 267.016,133.924C266.562,134.177 266.049,134.38 265.476,134.534C264.902,134.687 264.356,134.764 263.836,134.764C262.262,134.764 261.016,134.31 260.096,133.404C259.176,132.497 258.716,131.257 258.716,129.684C258.716,128.684 258.916,127.797 259.316,127.024C259.716,126.25 260.279,125.65 261.006,125.224C261.732,124.797 262.556,124.584 263.476,124.584C264.356,124.584 265.122,124.777 265.776,125.164C266.429,125.55 266.936,126.097 267.296,126.804C267.656,127.51 267.836,128.344 267.836,129.304C267.836,129.877 267.582,130.164 267.076,130.164L261.176,130.164C261.256,131.084 261.516,131.76 261.956,132.194C262.396,132.627 263.036,132.844 263.876,132.844C264.302,132.844 264.679,132.79 265.006,132.684C265.332,132.577 265.702,132.43 266.116,132.244C266.516,132.03 266.809,131.924 266.996,131.924ZM263.536,126.344C262.856,126.344 262.312,126.557 261.906,126.984C261.499,127.41 261.256,128.024 261.176,128.824L265.696,128.824C265.669,128.01 265.469,127.394 265.096,126.974C264.722,126.554 264.202,126.344 263.536,126.344Z" style="fill:rgb(99,101,106);fill-rule:nonzero;"/>
            <path d="M275.556,124.584C276.729,124.584 277.602,124.917 278.176,125.584C278.749,126.25 279.036,127.257 279.036,128.604L279.036,133.524C279.036,133.897 278.926,134.19 278.706,134.404C278.486,134.617 278.182,134.724 277.796,134.724C277.409,134.724 277.102,134.617 276.876,134.404C276.649,134.19 276.536,133.897 276.536,133.524L276.536,128.744C276.536,127.984 276.392,127.43 276.106,127.084C275.819,126.737 275.369,126.564 274.756,126.564C274.036,126.564 273.459,126.79 273.026,127.244C272.592,127.697 272.376,128.304 272.376,129.064L272.376,133.524C272.376,133.897 272.262,134.19 272.036,134.404C271.809,134.617 271.502,134.724 271.116,134.724C270.729,134.724 270.426,134.617 270.206,134.404C269.986,134.19 269.876,133.897 269.876,133.524L269.876,125.784C269.876,125.437 269.989,125.157 270.216,124.944C270.442,124.73 270.749,124.624 271.136,124.624C271.482,124.624 271.766,124.727 271.986,124.934C272.206,125.14 272.316,125.41 272.316,125.744L272.316,126.284C272.649,125.737 273.096,125.317 273.656,125.024C274.216,124.73 274.849,124.584 275.556,124.584Z" style="fill:rgb(99,101,106);fill-rule:nonzero;"/>
            <path d="M286.656,132.864C287.322,132.904 287.656,133.204 287.656,133.764C287.656,134.084 287.526,134.327 287.266,134.494C287.006,134.66 286.636,134.73 286.156,134.704L285.616,134.664C283.376,134.504 282.256,133.304 282.256,131.064L282.256,126.704L281.256,126.704C280.896,126.704 280.619,126.624 280.426,126.464C280.232,126.304 280.136,126.07 280.136,125.764C280.136,125.457 280.232,125.224 280.426,125.064C280.619,124.904 280.896,124.824 281.256,124.824L282.256,124.824L282.256,122.984C282.256,122.624 282.369,122.337 282.596,122.124C282.822,121.91 283.129,121.804 283.516,121.804C283.889,121.804 284.189,121.91 284.416,122.124C284.642,122.337 284.756,122.624 284.756,122.984L284.756,124.824L286.456,124.824C286.816,124.824 287.092,124.904 287.286,125.064C287.479,125.224 287.576,125.457 287.576,125.764C287.576,126.07 287.479,126.304 287.286,126.464C287.092,126.624 286.816,126.704 286.456,126.704L284.756,126.704L284.756,131.244C284.756,132.23 285.209,132.757 286.116,132.824L286.656,132.864Z" style="fill:rgb(99,101,106);fill-rule:nonzero;"/>
            <path d="M294.416,124.624C294.762,124.597 295.036,124.67 295.236,124.844C295.436,125.017 295.536,125.277 295.536,125.624C295.536,125.984 295.449,126.25 295.276,126.424C295.102,126.597 294.789,126.71 294.336,126.764L293.736,126.824C292.949,126.904 292.372,127.17 292.006,127.624C291.639,128.077 291.456,128.644 291.456,129.324L291.456,133.524C291.456,133.91 291.336,134.207 291.096,134.414C290.856,134.62 290.556,134.724 290.196,134.724C289.836,134.724 289.539,134.62 289.306,134.414C289.072,134.207 288.956,133.91 288.956,133.524L288.956,125.784C288.956,125.41 289.072,125.124 289.306,124.924C289.539,124.724 289.829,124.624 290.176,124.624C290.522,124.624 290.802,124.72 291.016,124.914C291.229,125.107 291.336,125.384 291.336,125.744L291.336,126.544C291.589,125.957 291.966,125.504 292.466,125.184C292.966,124.864 293.522,124.684 294.136,124.644L294.416,124.624Z" style="fill:rgb(99,101,106);fill-rule:nonzero;"/>
            <path d="M300.816,124.584C302.176,124.584 303.186,124.92 303.846,125.594C304.506,126.267 304.836,127.29 304.836,128.664L304.836,133.544C304.836,133.904 304.729,134.187 304.516,134.394C304.302,134.6 304.009,134.704 303.636,134.704C303.289,134.704 303.006,134.597 302.786,134.384C302.566,134.17 302.456,133.89 302.456,133.544L302.456,133.104C302.229,133.624 301.872,134.03 301.386,134.324C300.899,134.617 300.336,134.764 299.696,134.764C299.042,134.764 298.449,134.63 297.916,134.364C297.382,134.097 296.962,133.73 296.656,133.264C296.349,132.797 296.196,132.277 296.196,131.704C296.196,130.984 296.379,130.417 296.746,130.004C297.112,129.59 297.709,129.29 298.536,129.104C299.362,128.917 300.502,128.824 301.956,128.824L302.456,128.824L302.456,128.364C302.456,127.71 302.316,127.234 302.036,126.934C301.756,126.634 301.302,126.484 300.676,126.484C300.289,126.484 299.896,126.54 299.496,126.654C299.096,126.767 298.622,126.93 298.076,127.144C297.729,127.317 297.476,127.404 297.316,127.404C297.076,127.404 296.879,127.317 296.726,127.144C296.572,126.97 296.496,126.744 296.496,126.464C296.496,126.237 296.552,126.04 296.666,125.874C296.779,125.707 296.969,125.55 297.236,125.404C297.702,125.15 298.259,124.95 298.906,124.804C299.552,124.657 300.189,124.584 300.816,124.584ZM300.196,132.964C300.862,132.964 301.406,132.74 301.826,132.294C302.246,131.847 302.456,131.27 302.456,130.564L302.456,130.144L302.096,130.144C301.202,130.144 300.509,130.184 300.016,130.264C299.522,130.344 299.169,130.484 298.956,130.684C298.742,130.884 298.636,131.157 298.636,131.504C298.636,131.93 298.786,132.28 299.086,132.554C299.386,132.827 299.756,132.964 300.196,132.964Z" style="fill:rgb(99,101,106);fill-rule:nonzero;"/>
            <path d="M308.616,134.724C308.256,134.724 307.959,134.62 307.726,134.414C307.492,134.207 307.376,133.91 307.376,133.524L307.376,121.584C307.376,121.197 307.492,120.904 307.726,120.704C307.959,120.504 308.256,120.404 308.616,120.404C308.976,120.404 309.276,120.504 309.516,120.704C309.756,120.904 309.876,121.197 309.876,121.584L309.876,133.524C309.876,133.91 309.756,134.207 309.516,134.414C309.276,134.62 308.976,134.724 308.616,134.724Z" style="fill:rgb(99,101,106);fill-rule:nonzero;"/>
            <path d="M329.496,124.584C330.562,124.584 331.379,124.9 331.946,125.534C332.512,126.167 332.796,127.19 332.796,128.604L332.796,133.524C332.796,133.91 332.679,134.207 332.446,134.414C332.212,134.62 331.909,134.724 331.536,134.724C331.176,134.724 330.879,134.62 330.646,134.414C330.412,134.207 330.296,133.91 330.296,133.524L330.296,128.604C330.296,127.87 330.166,127.347 329.906,127.034C329.646,126.72 329.249,126.564 328.716,126.564C328.062,126.564 327.542,126.787 327.156,127.234C326.769,127.68 326.576,128.29 326.576,129.064L326.576,133.524C326.576,133.91 326.459,134.207 326.226,134.414C325.992,134.62 325.696,134.724 325.336,134.724C324.976,134.724 324.676,134.62 324.436,134.414C324.196,134.207 324.076,133.91 324.076,133.524L324.076,128.604C324.076,127.87 323.946,127.347 323.686,127.034C323.426,126.72 323.029,126.564 322.496,126.564C321.842,126.564 321.326,126.787 320.946,127.234C320.566,127.68 320.376,128.29 320.376,129.064L320.376,133.524C320.376,133.91 320.256,134.207 320.016,134.414C319.776,134.62 319.476,134.724 319.116,134.724C318.756,134.724 318.459,134.62 318.226,134.414C317.992,134.207 317.876,133.91 317.876,133.524L317.876,125.784C317.876,125.41 317.996,125.124 318.236,124.924C318.476,124.724 318.776,124.624 319.136,124.624C319.482,124.624 319.766,124.72 319.986,124.914C320.206,125.107 320.316,125.384 320.316,125.744L320.316,126.224C320.622,125.69 321.032,125.284 321.546,125.004C322.059,124.724 322.649,124.584 323.316,124.584C324.782,124.584 325.762,125.197 326.256,126.424C326.549,125.864 326.982,125.417 327.556,125.084C328.129,124.75 328.776,124.584 329.496,124.584Z" style="fill:rgb(99,101,106);fill-rule:nonzero;"/>
            <path d="M339.576,124.584C340.936,124.584 341.946,124.92 342.606,125.594C343.266,126.267 343.596,127.29 343.596,128.664L343.596,133.544C343.596,133.904 343.489,134.187 343.276,134.394C343.062,134.6 342.769,134.704 342.396,134.704C342.049,134.704 341.766,134.597 341.546,134.384C341.326,134.17 341.216,133.89 341.216,133.544L341.216,133.104C340.989,133.624 340.632,134.03 340.146,134.324C339.659,134.617 339.096,134.764 338.456,134.764C337.802,134.764 337.209,134.63 336.676,134.364C336.142,134.097 335.722,133.73 335.416,133.264C335.109,132.797 334.956,132.277 334.956,131.704C334.956,130.984 335.139,130.417 335.506,130.004C335.872,129.59 336.469,129.29 337.296,129.104C338.122,128.917 339.262,128.824 340.716,128.824L341.216,128.824L341.216,128.364C341.216,127.71 341.076,127.234 340.796,126.934C340.516,126.634 340.062,126.484 339.436,126.484C339.049,126.484 338.656,126.54 338.256,126.654C337.856,126.767 337.382,126.93 336.836,127.144C336.489,127.317 336.236,127.404 336.076,127.404C335.836,127.404 335.639,127.317 335.486,127.144C335.332,126.97 335.256,126.744 335.256,126.464C335.256,126.237 335.312,126.04 335.426,125.874C335.539,125.707 335.729,125.55 335.996,125.404C336.462,125.15 337.019,124.95 337.666,124.804C338.312,124.657 338.949,124.584 339.576,124.584ZM338.956,132.964C339.622,132.964 340.166,132.74 340.586,132.294C341.006,131.847 341.216,131.27 341.216,130.564L341.216,130.144L340.856,130.144C339.962,130.144 339.269,130.184 338.776,130.264C338.282,130.344 337.929,130.484 337.716,130.684C337.502,130.884 337.396,131.157 337.396,131.504C337.396,131.93 337.546,132.28 337.846,132.554C338.146,132.827 338.516,132.964 338.956,132.964Z" style="fill:rgb(99,101,106);fill-rule:nonzero;"/>
            <path d="M351.816,124.584C352.989,124.584 353.862,124.917 354.436,125.584C355.009,126.25 355.296,127.257 355.296,128.604L355.296,133.524C355.296,133.897 355.186,134.19 354.966,134.404C354.746,134.617 354.442,134.724 354.056,134.724C353.669,134.724 353.362,134.617 353.136,134.404C352.909,134.19 352.796,133.897 352.796,133.524L352.796,128.744C352.796,127.984 352.652,127.43 352.366,127.084C352.079,126.737 351.629,126.564 351.016,126.564C350.296,126.564 349.719,126.79 349.286,127.244C348.852,127.697 348.636,128.304 348.636,129.064L348.636,133.524C348.636,133.897 348.522,134.19 348.296,134.404C348.069,134.617 347.762,134.724 347.376,134.724C346.989,134.724 346.686,134.617 346.466,134.404C346.246,134.19 346.136,133.897 346.136,133.524L346.136,125.784C346.136,125.437 346.249,125.157 346.476,124.944C346.702,124.73 347.009,124.624 347.396,124.624C347.742,124.624 348.026,124.727 348.246,124.934C348.466,125.14 348.576,125.41 348.576,125.744L348.576,126.284C348.909,125.737 349.356,125.317 349.916,125.024C350.476,124.73 351.109,124.584 351.816,124.584Z" style="fill:rgb(99,101,106);fill-rule:nonzero;"/>
            <path d="M362.076,124.584C363.436,124.584 364.446,124.92 365.106,125.594C365.766,126.267 366.096,127.29 366.096,128.664L366.096,133.544C366.096,133.904 365.989,134.187 365.776,134.394C365.562,134.6 365.269,134.704 364.896,134.704C364.549,134.704 364.266,134.597 364.046,134.384C363.826,134.17 363.716,133.89 363.716,133.544L363.716,133.104C363.489,133.624 363.132,134.03 362.646,134.324C362.159,134.617 361.596,134.764 360.956,134.764C360.302,134.764 359.709,134.63 359.176,134.364C358.642,134.097 358.222,133.73 357.916,133.264C357.609,132.797 357.456,132.277 357.456,131.704C357.456,130.984 357.639,130.417 358.006,130.004C358.372,129.59 358.969,129.29 359.796,129.104C360.622,128.917 361.762,128.824 363.216,128.824L363.716,128.824L363.716,128.364C363.716,127.71 363.576,127.234 363.296,126.934C363.016,126.634 362.562,126.484 361.936,126.484C361.549,126.484 361.156,126.54 360.756,126.654C360.356,126.767 359.882,126.93 359.336,127.144C358.989,127.317 358.736,127.404 358.576,127.404C358.336,127.404 358.139,127.317 357.986,127.144C357.832,126.97 357.756,126.744 357.756,126.464C357.756,126.237 357.812,126.04 357.926,125.874C358.039,125.707 358.229,125.55 358.496,125.404C358.962,125.15 359.519,124.95 360.166,124.804C360.812,124.657 361.449,124.584 362.076,124.584ZM361.456,132.964C362.122,132.964 362.666,132.74 363.086,132.294C363.506,131.847 363.716,131.27 363.716,130.564L363.716,130.144L363.356,130.144C362.462,130.144 361.769,130.184 361.276,130.264C360.782,130.344 360.429,130.484 360.216,130.684C360.002,130.884 359.896,131.157 359.896,131.504C359.896,131.93 360.046,132.28 360.346,132.554C360.646,132.827 361.016,132.964 361.456,132.964Z" style="fill:rgb(99,101,106);fill-rule:nonzero;"/>
            <path d="M376.916,124.624C377.289,124.624 377.589,124.73 377.816,124.944C378.042,125.157 378.156,125.444 378.156,125.804L378.156,133.704C378.156,135.237 377.729,136.397 376.876,137.184C376.022,137.97 374.762,138.364 373.096,138.364C371.642,138.364 370.429,138.09 369.456,137.544C368.962,137.25 368.716,136.897 368.716,136.484C368.716,136.19 368.786,135.957 368.926,135.784C369.066,135.61 369.249,135.524 369.476,135.524C369.596,135.524 369.742,135.554 369.916,135.614C370.089,135.674 370.269,135.744 370.456,135.824C370.936,136.024 371.366,136.177 371.746,136.284C372.126,136.39 372.562,136.444 373.056,136.444C374.802,136.444 375.676,135.59 375.676,133.884L375.676,132.604C375.382,133.15 374.956,133.574 374.396,133.874C373.836,134.174 373.196,134.324 372.476,134.324C371.622,134.324 370.866,134.12 370.206,133.714C369.546,133.307 369.029,132.737 368.656,132.004C368.282,131.27 368.096,130.424 368.096,129.464C368.096,128.504 368.279,127.654 368.646,126.914C369.012,126.174 369.529,125.6 370.196,125.194C370.862,124.787 371.622,124.584 372.476,124.584C373.196,124.584 373.836,124.734 374.396,125.034C374.956,125.334 375.382,125.757 375.676,126.304L375.676,125.784C375.676,125.437 375.789,125.157 376.016,124.944C376.242,124.73 376.542,124.624 376.916,124.624ZM373.136,132.384C373.936,132.384 374.559,132.124 375.006,131.604C375.452,131.084 375.676,130.37 375.676,129.464C375.676,128.544 375.452,127.824 375.006,127.304C374.559,126.784 373.936,126.524 373.136,126.524C372.349,126.524 371.729,126.784 371.276,127.304C370.822,127.824 370.596,128.544 370.596,129.464C370.596,130.37 370.822,131.084 371.276,131.604C371.729,132.124 372.349,132.384 373.136,132.384Z" style="fill:rgb(99,101,106);fill-rule:nonzero;"/>
            <path d="M388.476,131.924C388.702,131.924 388.886,132.01 389.026,132.184C389.166,132.357 389.236,132.59 389.236,132.884C389.236,133.297 388.989,133.644 388.496,133.924C388.042,134.177 387.529,134.38 386.956,134.534C386.382,134.687 385.836,134.764 385.316,134.764C383.742,134.764 382.496,134.31 381.576,133.404C380.656,132.497 380.196,131.257 380.196,129.684C380.196,128.684 380.396,127.797 380.796,127.024C381.196,126.25 381.759,125.65 382.486,125.224C383.212,124.797 384.036,124.584 384.956,124.584C385.836,124.584 386.602,124.777 387.256,125.164C387.909,125.55 388.416,126.097 388.776,126.804C389.136,127.51 389.316,128.344 389.316,129.304C389.316,129.877 389.062,130.164 388.556,130.164L382.656,130.164C382.736,131.084 382.996,131.76 383.436,132.194C383.876,132.627 384.516,132.844 385.356,132.844C385.782,132.844 386.159,132.79 386.486,132.684C386.812,132.577 387.182,132.43 387.596,132.244C387.996,132.03 388.289,131.924 388.476,131.924ZM385.016,126.344C384.336,126.344 383.792,126.557 383.386,126.984C382.979,127.41 382.736,128.024 382.656,128.824L387.176,128.824C387.149,128.01 386.949,127.394 386.576,126.974C386.202,126.554 385.682,126.344 385.016,126.344Z" style="fill:rgb(99,101,106);fill-rule:nonzero;"/>
            <path d="M402.976,124.584C404.042,124.584 404.859,124.9 405.426,125.534C405.992,126.167 406.276,127.19 406.276,128.604L406.276,133.524C406.276,133.91 406.159,134.207 405.926,134.414C405.692,134.62 405.389,134.724 405.016,134.724C404.656,134.724 404.359,134.62 404.126,134.414C403.892,134.207 403.776,133.91 403.776,133.524L403.776,128.604C403.776,127.87 403.646,127.347 403.386,127.034C403.126,126.72 402.729,126.564 402.196,126.564C401.542,126.564 401.022,126.787 400.636,127.234C400.249,127.68 400.056,128.29 400.056,129.064L400.056,133.524C400.056,133.91 399.939,134.207 399.706,134.414C399.472,134.62 399.176,134.724 398.816,134.724C398.456,134.724 398.156,134.62 397.916,134.414C397.676,134.207 397.556,133.91 397.556,133.524L397.556,128.604C397.556,127.87 397.426,127.347 397.166,127.034C396.906,126.72 396.509,126.564 395.976,126.564C395.322,126.564 394.806,126.787 394.426,127.234C394.046,127.68 393.856,128.29 393.856,129.064L393.856,133.524C393.856,133.91 393.736,134.207 393.496,134.414C393.256,134.62 392.956,134.724 392.596,134.724C392.236,134.724 391.939,134.62 391.706,134.414C391.472,134.207 391.356,133.91 391.356,133.524L391.356,125.784C391.356,125.41 391.476,125.124 391.716,124.924C391.956,124.724 392.256,124.624 392.616,124.624C392.962,124.624 393.246,124.72 393.466,124.914C393.686,125.107 393.796,125.384 393.796,125.744L393.796,126.224C394.102,125.69 394.512,125.284 395.026,125.004C395.539,124.724 396.129,124.584 396.796,124.584C398.262,124.584 399.242,125.197 399.736,126.424C400.029,125.864 400.462,125.417 401.036,125.084C401.609,124.75 402.256,124.584 402.976,124.584Z" style="fill:rgb(99,101,106);fill-rule:nonzero;"/>
            <path d="M416.556,131.924C416.782,131.924 416.966,132.01 417.106,132.184C417.246,132.357 417.316,132.59 417.316,132.884C417.316,133.297 417.069,133.644 416.576,133.924C416.122,134.177 415.609,134.38 415.036,134.534C414.462,134.687 413.916,134.764 413.396,134.764C411.822,134.764 410.576,134.31 409.656,133.404C408.736,132.497 408.276,131.257 408.276,129.684C408.276,128.684 408.476,127.797 408.876,127.024C409.276,126.25 409.839,125.65 410.566,125.224C411.292,124.797 412.116,124.584 413.036,124.584C413.916,124.584 414.682,124.777 415.336,125.164C415.989,125.55 416.496,126.097 416.856,126.804C417.216,127.51 417.396,128.344 417.396,129.304C417.396,129.877 417.142,130.164 416.636,130.164L410.736,130.164C410.816,131.084 411.076,131.76 411.516,132.194C411.956,132.627 412.596,132.844 413.436,132.844C413.862,132.844 414.239,132.79 414.566,132.684C414.892,132.577 415.262,132.43 415.676,132.244C416.076,132.03 416.369,131.924 416.556,131.924ZM413.096,126.344C412.416,126.344 411.872,126.557 411.466,126.984C411.059,127.41 410.816,128.024 410.736,128.824L415.256,128.824C415.229,128.01 415.029,127.394 414.656,126.974C414.282,126.554 413.762,126.344 413.096,126.344Z" style="fill:rgb(99,101,106);fill-rule:nonzero;"/>
            <path d="M425.116,124.584C426.289,124.584 427.162,124.917 427.736,125.584C428.309,126.25 428.596,127.257 428.596,128.604L428.596,133.524C428.596,133.897 428.486,134.19 428.266,134.404C428.046,134.617 427.742,134.724 427.356,134.724C426.969,134.724 426.662,134.617 426.436,134.404C426.209,134.19 426.096,133.897 426.096,133.524L426.096,128.744C426.096,127.984 425.952,127.43 425.666,127.084C425.379,126.737 424.929,126.564 424.316,126.564C423.596,126.564 423.019,126.79 422.586,127.244C422.152,127.697 421.936,128.304 421.936,129.064L421.936,133.524C421.936,133.897 421.822,134.19 421.596,134.404C421.369,134.617 421.062,134.724 420.676,134.724C420.289,134.724 419.986,134.617 419.766,134.404C419.546,134.19 419.436,133.897 419.436,133.524L419.436,125.784C419.436,125.437 419.549,125.157 419.776,124.944C420.002,124.73 420.309,124.624 420.696,124.624C421.042,124.624 421.326,124.727 421.546,124.934C421.766,125.14 421.876,125.41 421.876,125.744L421.876,126.284C422.209,125.737 422.656,125.317 423.216,125.024C423.776,124.73 424.409,124.584 425.116,124.584Z" style="fill:rgb(99,101,106);fill-rule:nonzero;"/>
            <path d="M436.216,132.864C436.882,132.904 437.216,133.204 437.216,133.764C437.216,134.084 437.086,134.327 436.826,134.494C436.566,134.66 436.196,134.73 435.716,134.704L435.176,134.664C432.936,134.504 431.816,133.304 431.816,131.064L431.816,126.704L430.816,126.704C430.456,126.704 430.179,126.624 429.986,126.464C429.792,126.304 429.696,126.07 429.696,125.764C429.696,125.457 429.792,125.224 429.986,125.064C430.179,124.904 430.456,124.824 430.816,124.824L431.816,124.824L431.816,122.984C431.816,122.624 431.929,122.337 432.156,122.124C432.382,121.91 432.689,121.804 433.076,121.804C433.449,121.804 433.749,121.91 433.976,122.124C434.202,122.337 434.316,122.624 434.316,122.984L434.316,124.824L436.016,124.824C436.376,124.824 436.652,124.904 436.846,125.064C437.039,125.224 437.136,125.457 437.136,125.764C437.136,126.07 437.039,126.304 436.846,126.464C436.652,126.624 436.376,126.704 436.016,126.704L434.316,126.704L434.316,131.244C434.316,132.23 434.769,132.757 435.676,132.824L436.216,132.864Z" style="fill:rgb(99,101,106);fill-rule:nonzero;"/>
        </g>
    </g>
</svg>
