<?xml version="1.0" encoding="UTF-8" standalone="no"?>
<!DOCTYPE svg PUBLIC "-//W3C//DTD SVG 1.1//EN" "http://www.w3.org/Graphics/SVG/1.1/DTD/svg11.dtd">
<svg width="100%" height="100%" viewBox="0 0 141 285" version="1.1" xmlns="http://www.w3.org/2000/svg" xmlns:xlink="http://www.w3.org/1999/xlink" xml:space="preserve" xmlns:serif="http://www.serif.com/" style="fill-rule:evenodd;clip-rule:evenodd;stroke-linejoin:round;stroke-miterlimit:1.41421;">
    <g transform="matrix(1,0,0,1,-666,-380)">
        <g transform="matrix(2.49234,0,0,2.5693,-939.404,-464.9)">
            <g transform="matrix(0.88,-0.48,0.48,0.88,646.932,440.311)">
                <path d="M1.408,0.055C1.269,0.055 1.159,0.013 1.078,-0.072C0.997,-0.156 0.957,-0.268 0.957,-0.407L0.957,-7.315C0.957,-7.447 0.999,-7.553 1.084,-7.634C1.168,-7.715 1.28,-7.755 1.419,-7.755L5.423,-7.755C5.555,-7.755 5.658,-7.722 5.731,-7.656C5.804,-7.59 5.841,-7.495 5.841,-7.37C5.841,-7.253 5.804,-7.161 5.731,-7.095C5.658,-7.029 5.555,-6.996 5.423,-6.996L1.848,-6.996L1.848,-4.323L5.203,-4.323C5.335,-4.323 5.438,-4.29 5.511,-4.224C5.584,-4.158 5.621,-4.063 5.621,-3.938C5.621,-3.821 5.584,-3.729 5.511,-3.663C5.438,-3.597 5.335,-3.564 5.203,-3.564L1.848,-3.564L1.848,-0.407C1.848,-0.268 1.81,-0.156 1.733,-0.072C1.656,0.013 1.547,0.055 1.408,0.055Z" style="fill:white;fill-rule:nonzero;"/>
            </g>
            <g transform="matrix(0.870442,-0.492272,0.492272,0.870442,651.982,437.571)">
                <path d="M1.408,0.055C1.269,0.055 1.159,0.013 1.078,-0.072C0.997,-0.156 0.957,-0.268 0.957,-0.407L0.957,-7.348C0.957,-7.487 0.997,-7.599 1.078,-7.684C1.159,-7.768 1.269,-7.81 1.408,-7.81C1.547,-7.81 1.657,-7.768 1.738,-7.684C1.819,-7.599 1.859,-7.487 1.859,-7.348L1.859,-0.407C1.859,-0.268 1.819,-0.156 1.738,-0.072C1.657,0.013 1.547,0.055 1.408,0.055Z" style="fill:white;fill-rule:nonzero;"/>
            </g>
            <g transform="matrix(0.86003,-0.510243,0.510243,0.86003,654.122,436.391)">
                <path d="M6.875,-0.561C6.926,-0.48 6.952,-0.396 6.952,-0.308C6.952,-0.198 6.91,-0.108 6.826,-0.039C6.741,0.031 6.644,0.066 6.534,0.066C6.365,0.066 6.233,-0.007 6.138,-0.154L4.664,-2.486C4.473,-2.787 4.275,-2.994 4.07,-3.108C3.865,-3.221 3.586,-3.278 3.234,-3.278L1.848,-3.278L1.848,-0.407C1.848,-0.268 1.808,-0.156 1.727,-0.072C1.646,0.013 1.54,0.055 1.408,0.055C1.269,0.055 1.159,0.013 1.078,-0.072C0.997,-0.156 0.957,-0.268 0.957,-0.407L0.957,-7.315C0.957,-7.447 0.999,-7.553 1.084,-7.634C1.168,-7.715 1.28,-7.755 1.419,-7.755L4.147,-7.755C4.99,-7.755 5.634,-7.568 6.078,-7.194C6.521,-6.82 6.743,-6.27 6.743,-5.544C6.743,-4.928 6.565,-4.433 6.21,-4.059C5.854,-3.685 5.346,-3.458 4.686,-3.377C4.869,-3.318 5.034,-3.223 5.181,-3.091C5.328,-2.959 5.474,-2.776 5.621,-2.541L6.875,-0.561ZM4.07,-4.026C4.671,-4.026 5.121,-4.151 5.417,-4.4C5.714,-4.649 5.863,-5.027 5.863,-5.533C5.863,-6.032 5.716,-6.402 5.423,-6.644C5.13,-6.886 4.679,-7.007 4.07,-7.007L1.848,-7.007L1.848,-4.026L4.07,-4.026Z" style="fill:white;fill-rule:nonzero;"/>
            </g>
            <g transform="matrix(0.843954,-0.536416,0.536416,0.843954,660.262,432.751)">
                <path d="M1.419,0C1.28,0 1.168,-0.04 1.084,-0.121C0.999,-0.202 0.957,-0.308 0.957,-0.44L0.957,-7.315C0.957,-7.447 0.999,-7.553 1.084,-7.634C1.168,-7.715 1.28,-7.755 1.419,-7.755L5.533,-7.755C5.665,-7.755 5.768,-7.722 5.841,-7.656C5.914,-7.59 5.951,-7.498 5.951,-7.381C5.951,-7.264 5.914,-7.172 5.841,-7.106C5.768,-7.04 5.665,-7.007 5.533,-7.007L1.848,-7.007L1.848,-4.312L5.313,-4.312C5.445,-4.312 5.548,-4.279 5.621,-4.213C5.694,-4.147 5.731,-4.055 5.731,-3.938C5.731,-3.821 5.694,-3.729 5.621,-3.663C5.548,-3.597 5.445,-3.564 5.313,-3.564L1.848,-3.564L1.848,-0.748L5.533,-0.748C5.665,-0.748 5.768,-0.717 5.841,-0.655C5.914,-0.592 5.951,-0.499 5.951,-0.374C5.951,-0.257 5.914,-0.165 5.841,-0.099C5.768,-0.033 5.665,0 5.533,0L1.419,0Z" style="fill:white;fill-rule:nonzero;"/>
            </g>
            <g transform="matrix(0.814622,-0.579992,0.579992,0.814622,665.472,429.551)">
                <path d="M10.868,-7.535C10.897,-7.63 10.949,-7.702 11.022,-7.75C11.095,-7.797 11.176,-7.821 11.264,-7.821C11.381,-7.821 11.482,-7.786 11.567,-7.717C11.651,-7.647 11.693,-7.553 11.693,-7.436C11.693,-7.385 11.682,-7.326 11.66,-7.26L9.174,-0.253C9.137,-0.15 9.075,-0.072 8.987,-0.017C8.899,0.039 8.8,0.066 8.69,0.066C8.587,0.066 8.492,0.039 8.404,-0.017C8.316,-0.072 8.254,-0.15 8.217,-0.253L6.061,-6.347L3.883,-0.253C3.846,-0.15 3.784,-0.072 3.696,-0.017C3.608,0.039 3.513,0.066 3.41,0.066C3.307,0.066 3.212,0.039 3.124,-0.017C3.036,-0.072 2.974,-0.15 2.937,-0.253L0.44,-7.26C0.418,-7.319 0.407,-7.374 0.407,-7.425C0.407,-7.542 0.453,-7.638 0.545,-7.711C0.636,-7.784 0.741,-7.821 0.858,-7.821C0.946,-7.821 1.028,-7.797 1.106,-7.75C1.182,-7.702 1.236,-7.63 1.265,-7.535L3.432,-1.287L5.632,-7.469C5.669,-7.579 5.727,-7.662 5.808,-7.717C5.889,-7.772 5.977,-7.799 6.072,-7.799C6.167,-7.799 6.255,-7.77 6.336,-7.711C6.417,-7.652 6.475,-7.568 6.512,-7.458L8.679,-1.265L10.868,-7.535Z" style="fill:white;fill-rule:nonzero;"/>
            </g>
            <g transform="matrix(0.76,-0.65,0.65,0.76,674.782,422.891)">
                <path d="M7.634,-0.517C7.663,-0.458 7.678,-0.396 7.678,-0.33C7.678,-0.22 7.636,-0.128 7.552,-0.055C7.467,0.018 7.366,0.055 7.249,0.055C7.066,0.055 6.937,-0.033 6.864,-0.209L6.083,-1.991L1.936,-1.991L1.144,-0.209C1.071,-0.033 0.942,0.055 0.759,0.055C0.642,0.055 0.539,0.017 0.451,-0.061C0.363,-0.137 0.319,-0.231 0.319,-0.341C0.319,-0.4 0.334,-0.458 0.363,-0.517L3.509,-7.513C3.553,-7.616 3.619,-7.693 3.707,-7.744C3.795,-7.795 3.89,-7.821 3.993,-7.821C4.103,-7.821 4.202,-7.793 4.29,-7.739C4.378,-7.684 4.444,-7.608 4.488,-7.513L7.634,-0.517ZM2.266,-2.739L5.753,-2.739L4.004,-6.688L2.266,-2.739Z" style="fill:white;fill-rule:nonzero;"/>
            </g>
            <g transform="matrix(0.692647,-0.721277,0.721277,0.692647,680.972,417.631)">
                <path d="M1.397,0C1.272,0 1.168,-0.039 1.084,-0.116C0.999,-0.193 0.957,-0.293 0.957,-0.418L0.957,-7.348C0.957,-7.487 0.997,-7.599 1.078,-7.684C1.159,-7.768 1.269,-7.81 1.408,-7.81C1.547,-7.81 1.657,-7.768 1.738,-7.684C1.819,-7.599 1.859,-7.487 1.859,-7.348L1.859,-0.77L5.412,-0.77C5.544,-0.77 5.647,-0.737 5.72,-0.671C5.793,-0.605 5.83,-0.51 5.83,-0.385C5.83,-0.26 5.793,-0.165 5.72,-0.099C5.647,-0.033 5.544,0 5.412,0L1.397,0Z" style="fill:white;fill-rule:nonzero;"/>
            </g>
            <g transform="matrix(0.56,-0.83,0.83,0.56,685.402,413.031)">
                <path d="M1.397,0C1.272,0 1.168,-0.039 1.084,-0.116C0.999,-0.193 0.957,-0.293 0.957,-0.418L0.957,-7.348C0.957,-7.487 0.997,-7.599 1.078,-7.684C1.159,-7.768 1.269,-7.81 1.408,-7.81C1.547,-7.81 1.657,-7.768 1.738,-7.684C1.819,-7.599 1.859,-7.487 1.859,-7.348L1.859,-0.77L5.412,-0.77C5.544,-0.77 5.647,-0.737 5.72,-0.671C5.793,-0.605 5.83,-0.51 5.83,-0.385C5.83,-0.26 5.793,-0.165 5.72,-0.099C5.647,-0.033 5.544,0 5.412,0L1.397,0Z" style="fill:white;fill-rule:nonzero;"/>
            </g>
            <g transform="matrix(0.53,-0.84,0.84,0.53,689.892,406.251)">
                <path d="M1.419,0C1.28,0 1.168,-0.04 1.084,-0.121C0.999,-0.202 0.957,-0.308 0.957,-0.44L0.957,-7.315C0.957,-7.447 0.999,-7.553 1.084,-7.634C1.168,-7.715 1.28,-7.755 1.419,-7.755L5.533,-7.755C5.665,-7.755 5.768,-7.722 5.841,-7.656C5.914,-7.59 5.951,-7.498 5.951,-7.381C5.951,-7.264 5.914,-7.172 5.841,-7.106C5.768,-7.04 5.665,-7.007 5.533,-7.007L1.848,-7.007L1.848,-4.312L5.313,-4.312C5.445,-4.312 5.548,-4.279 5.621,-4.213C5.694,-4.147 5.731,-4.055 5.731,-3.938C5.731,-3.821 5.694,-3.729 5.621,-3.663C5.548,-3.597 5.445,-3.564 5.313,-3.564L1.848,-3.564L1.848,-0.748L5.533,-0.748C5.665,-0.748 5.768,-0.717 5.841,-0.655C5.914,-0.592 5.951,-0.499 5.951,-0.374C5.951,-0.257 5.914,-0.165 5.841,-0.099C5.768,-0.033 5.665,0 5.533,0L1.419,0Z" style="fill:white;fill-rule:nonzero;"/>
            </g>
            <g transform="matrix(0.465151,-0.885231,0.885231,0.465151,693.412,400.871)">
                <path d="M6.754,-7.81C6.886,-7.81 6.989,-7.768 7.062,-7.684C7.135,-7.599 7.172,-7.487 7.172,-7.348L7.172,-0.407C7.172,-0.268 7.134,-0.156 7.057,-0.072C6.98,0.013 6.871,0.055 6.732,0.055C6.593,0.055 6.472,-0.007 6.369,-0.132L1.804,-6.237L1.804,-0.407C1.804,-0.268 1.766,-0.156 1.688,-0.072C1.612,0.013 1.507,0.055 1.375,0.055C1.243,0.055 1.14,0.013 1.067,-0.072C0.994,-0.156 0.957,-0.268 0.957,-0.407L0.957,-7.348C0.957,-7.487 0.996,-7.599 1.073,-7.684C1.15,-7.768 1.258,-7.81 1.397,-7.81C1.544,-7.81 1.668,-7.748 1.771,-7.623L6.325,-1.518L6.325,-7.348C6.325,-7.487 6.364,-7.599 6.441,-7.684C6.517,-7.768 6.622,-7.81 6.754,-7.81Z" style="fill:white;fill-rule:nonzero;"/>
            </g>
            <g transform="matrix(0.296708,-0.954968,0.954968,0.296708,697.332,393.211)">
                <path d="M1.408,0.055C1.269,0.055 1.159,0.013 1.078,-0.072C0.997,-0.156 0.957,-0.268 0.957,-0.407L0.957,-7.315C0.957,-7.447 0.999,-7.553 1.084,-7.634C1.168,-7.715 1.28,-7.755 1.419,-7.755L5.423,-7.755C5.555,-7.755 5.658,-7.722 5.731,-7.656C5.804,-7.59 5.841,-7.495 5.841,-7.37C5.841,-7.253 5.804,-7.161 5.731,-7.095C5.658,-7.029 5.555,-6.996 5.423,-6.996L1.848,-6.996L1.848,-4.323L5.203,-4.323C5.335,-4.323 5.438,-4.29 5.511,-4.224C5.584,-4.158 5.621,-4.063 5.621,-3.938C5.621,-3.821 5.584,-3.729 5.511,-3.663C5.438,-3.597 5.335,-3.564 5.203,-3.564L1.848,-3.564L1.848,-0.407C1.848,-0.268 1.81,-0.156 1.733,-0.072C1.656,0.013 1.547,0.055 1.408,0.055Z" style="fill:white;fill-rule:nonzero;"/>
            </g>
            <g transform="matrix(0.124641,-0.992202,0.992202,0.124641,699.272,387.071)">
                <path d="M4.202,0.088C3.483,0.088 2.858,-0.073 2.326,-0.396C1.795,-0.719 1.386,-1.177 1.1,-1.771C0.814,-2.365 0.671,-3.065 0.671,-3.872C0.671,-4.686 0.812,-5.392 1.095,-5.989C1.377,-6.587 1.784,-7.045 2.316,-7.364C2.847,-7.684 3.476,-7.843 4.202,-7.843C4.928,-7.843 5.557,-7.684 6.089,-7.364C6.62,-7.045 7.027,-6.587 7.31,-5.989C7.592,-5.392 7.733,-4.69 7.733,-3.883C7.733,-3.076 7.59,-2.374 7.304,-1.777C7.018,-1.179 6.609,-0.719 6.078,-0.396C5.546,-0.073 4.921,0.088 4.202,0.088ZM4.202,-0.682C5.023,-0.682 5.663,-0.959 6.122,-1.513C6.58,-2.066 6.809,-2.856 6.809,-3.883C6.809,-4.91 6.582,-5.698 6.127,-6.248C5.672,-6.798 5.031,-7.073 4.202,-7.073C3.381,-7.073 2.741,-6.796 2.283,-6.243C1.824,-5.689 1.595,-4.902 1.595,-3.883C1.595,-2.864 1.824,-2.075 2.283,-1.518C2.741,-0.961 3.381,-0.682 4.202,-0.682Z" style="fill:white;fill-rule:nonzero;"/>
            </g>
            <g transform="matrix(0.0172779,-0.999851,0.999851,0.0172779,700.252,378.581)">
                <path d="M6.875,-0.561C6.926,-0.48 6.952,-0.396 6.952,-0.308C6.952,-0.198 6.91,-0.108 6.826,-0.039C6.741,0.031 6.644,0.066 6.534,0.066C6.365,0.066 6.233,-0.007 6.138,-0.154L4.664,-2.486C4.473,-2.787 4.275,-2.994 4.07,-3.108C3.865,-3.221 3.586,-3.278 3.234,-3.278L1.848,-3.278L1.848,-0.407C1.848,-0.268 1.808,-0.156 1.727,-0.072C1.646,0.013 1.54,0.055 1.408,0.055C1.269,0.055 1.159,0.013 1.078,-0.072C0.997,-0.156 0.957,-0.268 0.957,-0.407L0.957,-7.315C0.957,-7.447 0.999,-7.553 1.084,-7.634C1.168,-7.715 1.28,-7.755 1.419,-7.755L4.147,-7.755C4.99,-7.755 5.634,-7.568 6.078,-7.194C6.521,-6.82 6.743,-6.27 6.743,-5.544C6.743,-4.928 6.565,-4.433 6.21,-4.059C5.854,-3.685 5.346,-3.458 4.686,-3.377C4.869,-3.318 5.034,-3.223 5.181,-3.091C5.328,-2.959 5.474,-2.776 5.621,-2.541L6.875,-0.561ZM4.07,-4.026C4.671,-4.026 5.121,-4.151 5.417,-4.4C5.714,-4.649 5.863,-5.027 5.863,-5.533C5.863,-6.032 5.716,-6.402 5.423,-6.644C5.13,-6.886 4.679,-7.007 4.07,-7.007L1.848,-7.007L1.848,-4.026L4.07,-4.026Z" style="fill:white;fill-rule:nonzero;"/>
            </g>
            <g transform="matrix(-3.82857e-16,-1,1,-3.82857e-16,700.332,371.411)">
                <path d="M4.246,0.088C3.513,0.088 2.878,-0.072 2.343,-0.391C1.808,-0.71 1.395,-1.168 1.106,-1.766C0.816,-2.363 0.671,-3.069 0.671,-3.883C0.671,-4.69 0.816,-5.392 1.106,-5.989C1.395,-6.587 1.808,-7.045 2.343,-7.364C2.878,-7.684 3.513,-7.843 4.246,-7.843C4.737,-7.843 5.201,-7.764 5.637,-7.607C6.074,-7.449 6.453,-7.223 6.776,-6.93C6.893,-6.82 6.952,-6.692 6.952,-6.545C6.952,-6.442 6.923,-6.353 6.864,-6.276C6.805,-6.199 6.736,-6.16 6.655,-6.16C6.567,-6.16 6.461,-6.2 6.336,-6.281C5.962,-6.574 5.623,-6.78 5.319,-6.897C5.014,-7.014 4.664,-7.073 4.268,-7.073C3.417,-7.073 2.763,-6.796 2.305,-6.243C1.846,-5.689 1.617,-4.902 1.617,-3.883C1.617,-2.856 1.846,-2.066 2.305,-1.513C2.763,-0.959 3.417,-0.682 4.268,-0.682C4.657,-0.682 5.005,-0.741 5.313,-0.858C5.621,-0.975 5.962,-1.181 6.336,-1.474C6.461,-1.555 6.567,-1.595 6.655,-1.595C6.736,-1.595 6.805,-1.558 6.864,-1.485C6.923,-1.412 6.952,-1.32 6.952,-1.21C6.952,-1.063 6.893,-0.935 6.776,-0.825C6.453,-0.532 6.074,-0.306 5.637,-0.149C5.201,0.009 4.737,0.088 4.246,0.088Z" style="fill:white;fill-rule:nonzero;"/>
            </g>
            <g transform="matrix(-3.82857e-16,-1,1,-3.82857e-16,700.332,364.331)">
                <path d="M1.419,0C1.28,0 1.168,-0.04 1.084,-0.121C0.999,-0.202 0.957,-0.308 0.957,-0.44L0.957,-7.315C0.957,-7.447 0.999,-7.553 1.084,-7.634C1.168,-7.715 1.28,-7.755 1.419,-7.755L5.533,-7.755C5.665,-7.755 5.768,-7.722 5.841,-7.656C5.914,-7.59 5.951,-7.498 5.951,-7.381C5.951,-7.264 5.914,-7.172 5.841,-7.106C5.768,-7.04 5.665,-7.007 5.533,-7.007L1.848,-7.007L1.848,-4.312L5.313,-4.312C5.445,-4.312 5.548,-4.279 5.621,-4.213C5.694,-4.147 5.731,-4.055 5.731,-3.938C5.731,-3.821 5.694,-3.729 5.621,-3.663C5.548,-3.597 5.445,-3.564 5.313,-3.564L1.848,-3.564L1.848,-0.748L5.533,-0.748C5.665,-0.748 5.768,-0.717 5.841,-0.655C5.914,-0.592 5.951,-0.499 5.951,-0.374C5.951,-0.257 5.914,-0.165 5.841,-0.099C5.768,-0.033 5.665,0 5.533,0L1.419,0Z" style="fill:white;fill-rule:nonzero;"/>
            </g>
            <g transform="matrix(-3.82857e-16,-1,1,-3.82857e-16,700.332,358.271)">
                <path d="M7.843,-7.81C7.982,-7.81 8.091,-7.768 8.168,-7.684C8.244,-7.599 8.283,-7.487 8.283,-7.348L8.283,-0.385C8.283,-0.253 8.246,-0.147 8.173,-0.066C8.1,0.015 7.997,0.055 7.865,0.055C7.733,0.055 7.634,0.015 7.568,-0.066C7.502,-0.147 7.469,-0.253 7.469,-0.385L7.469,-6.006L5.082,-1.43C4.979,-1.217 4.829,-1.111 4.631,-1.111C4.44,-1.111 4.29,-1.217 4.18,-1.43L1.782,-5.951L1.782,-0.385C1.782,-0.253 1.747,-0.147 1.678,-0.066C1.608,0.015 1.507,0.055 1.375,0.055C1.243,0.055 1.14,0.015 1.067,-0.066C0.994,-0.147 0.957,-0.253 0.957,-0.385L0.957,-7.348C0.957,-7.487 0.997,-7.599 1.078,-7.684C1.159,-7.768 1.269,-7.81 1.408,-7.81C1.591,-7.81 1.738,-7.704 1.848,-7.491L4.642,-2.134L7.403,-7.491C7.462,-7.608 7.526,-7.691 7.596,-7.739C7.665,-7.786 7.748,-7.81 7.843,-7.81Z" style="fill:white;fill-rule:nonzero;"/>
            </g>
            <g transform="matrix(-3.82857e-16,-1,1,-3.82857e-16,700.332,349.361)">
                <path d="M1.419,0C1.28,0 1.168,-0.04 1.084,-0.121C0.999,-0.202 0.957,-0.308 0.957,-0.44L0.957,-7.315C0.957,-7.447 0.999,-7.553 1.084,-7.634C1.168,-7.715 1.28,-7.755 1.419,-7.755L5.533,-7.755C5.665,-7.755 5.768,-7.722 5.841,-7.656C5.914,-7.59 5.951,-7.498 5.951,-7.381C5.951,-7.264 5.914,-7.172 5.841,-7.106C5.768,-7.04 5.665,-7.007 5.533,-7.007L1.848,-7.007L1.848,-4.312L5.313,-4.312C5.445,-4.312 5.548,-4.279 5.621,-4.213C5.694,-4.147 5.731,-4.055 5.731,-3.938C5.731,-3.821 5.694,-3.729 5.621,-3.663C5.548,-3.597 5.445,-3.564 5.313,-3.564L1.848,-3.564L1.848,-0.748L5.533,-0.748C5.665,-0.748 5.768,-0.717 5.841,-0.655C5.914,-0.592 5.951,-0.499 5.951,-0.374C5.951,-0.257 5.914,-0.165 5.841,-0.099C5.768,-0.033 5.665,0 5.533,0L1.419,0Z" style="fill:white;fill-rule:nonzero;"/>
            </g>
            <g transform="matrix(-3.82857e-16,-1,1,-3.82857e-16,700.332,343.321)">
                <path d="M6.754,-7.81C6.886,-7.81 6.989,-7.768 7.062,-7.684C7.135,-7.599 7.172,-7.487 7.172,-7.348L7.172,-0.407C7.172,-0.268 7.134,-0.156 7.057,-0.072C6.98,0.013 6.871,0.055 6.732,0.055C6.593,0.055 6.472,-0.007 6.369,-0.132L1.804,-6.237L1.804,-0.407C1.804,-0.268 1.766,-0.156 1.688,-0.072C1.612,0.013 1.507,0.055 1.375,0.055C1.243,0.055 1.14,0.013 1.067,-0.072C0.994,-0.156 0.957,-0.268 0.957,-0.407L0.957,-7.348C0.957,-7.487 0.996,-7.599 1.073,-7.684C1.15,-7.768 1.258,-7.81 1.397,-7.81C1.544,-7.81 1.668,-7.748 1.771,-7.623L6.325,-1.518L6.325,-7.348C6.325,-7.487 6.364,-7.599 6.441,-7.684C6.517,-7.768 6.622,-7.81 6.754,-7.81Z" style="fill:white;fill-rule:nonzero;"/>
            </g>
            <g transform="matrix(-3.82857e-16,-1,1,-3.82857e-16,700.332,335.541)">
                <path d="M3.289,0.055C3.15,0.055 3.038,0.013 2.954,-0.072C2.869,-0.156 2.827,-0.268 2.827,-0.407L2.827,-6.985L0.462,-6.985C0.33,-6.985 0.227,-7.018 0.154,-7.084C0.081,-7.15 0.044,-7.245 0.044,-7.37C0.044,-7.495 0.081,-7.59 0.154,-7.656C0.227,-7.722 0.33,-7.755 0.462,-7.755L6.105,-7.755C6.237,-7.755 6.34,-7.722 6.413,-7.656C6.486,-7.59 6.523,-7.495 6.523,-7.37C6.523,-7.245 6.486,-7.15 6.413,-7.084C6.34,-7.018 6.237,-6.985 6.105,-6.985L3.74,-6.985L3.74,-0.407C3.74,-0.268 3.7,-0.156 3.619,-0.072C3.538,0.013 3.428,0.055 3.289,0.055Z" style="fill:white;fill-rule:nonzero;"/>
            </g>
        </g>
    </g>
</svg>
