<?xml version="1.0" encoding="UTF-8" standalone="no"?>
<!DOCTYPE svg PUBLIC "-//W3C//DTD SVG 1.1//EN" "http://www.w3.org/Graphics/SVG/1.1/DTD/svg11.dtd">
<svg width="100%" height="100%" viewBox="0 0 645 264" version="1.1" xmlns="http://www.w3.org/2000/svg" xmlns:xlink="http://www.w3.org/1999/xlink" xml:space="preserve" xmlns:serif="http://www.serif.com/" style="fill-rule:evenodd;clip-rule:evenodd;stroke-linejoin:round;stroke-miterlimit:1.41421;">
    <g transform="matrix(1,0,0,1,-248,-360)">
        <g>
            <g id="SonicWall-Web-Application-Firewallv" serif:id="SonicWall Web Application Firewallv" transform="matrix(2.9569,0,0,3.75577,-2504.18,222.261)">
                <path d="M1145.31,36.7C1147.16,36.701 1148.66,38.202 1148.66,40.05L1148.66,103.366C1148.66,105.215 1147.16,106.716 1145.31,106.716L934.116,106.716C932.267,106.716 930.766,105.215 930.766,103.366L930.766,40.05C930.766,38.202 932.267,36.701 934.116,36.7L1145.31,36.7Z" style="fill:rgb(214,222,225);"/>
            </g>
            <g transform="matrix(1.02897,0,0,1.02897,-234.069,-306.691)">
                <path d="M579.396,685.895C578.078,685.895 576.826,685.713 575.639,685.349C574.451,684.985 573.502,684.482 572.792,683.841C572.462,683.564 572.298,683.208 572.298,682.775C572.298,682.463 572.384,682.199 572.558,681.982C572.731,681.765 572.939,681.657 573.182,681.657C573.424,681.657 573.719,681.77 574.066,681.995C575.608,683.139 577.368,683.711 579.344,683.711C580.73,683.711 581.796,683.451 582.542,682.931C583.287,682.411 583.66,681.666 583.66,680.695C583.66,679.932 583.313,679.36 582.62,678.979C581.926,678.598 580.817,678.234 579.292,677.887C577.836,677.575 576.64,677.22 575.704,676.821C574.768,676.422 574.035,675.881 573.507,675.196C572.978,674.511 572.714,673.64 572.714,672.583C572.714,671.526 573.004,670.585 573.585,669.762C574.165,668.939 574.976,668.297 576.016,667.838C577.056,667.379 578.243,667.149 579.578,667.149C580.808,667.149 581.944,667.322 582.984,667.669C584.024,668.016 584.908,668.527 585.636,669.203C585.982,669.498 586.156,669.853 586.156,670.269C586.156,670.564 586.065,670.824 585.883,671.049C585.701,671.274 585.488,671.387 585.246,671.387C585.02,671.387 584.734,671.274 584.388,671.049C583.59,670.442 582.841,670.005 582.139,669.736C581.437,669.467 580.592,669.333 579.604,669.333C578.269,669.333 577.229,669.606 576.484,670.152C575.738,670.698 575.366,671.456 575.366,672.427C575.366,673.259 575.695,673.887 576.354,674.312C577.012,674.737 578.07,675.122 579.526,675.469C581.051,675.816 582.286,676.175 583.231,676.548C584.175,676.921 584.929,677.432 585.493,678.082C586.056,678.732 586.338,679.568 586.338,680.591C586.338,681.631 586.047,682.554 585.467,683.36C584.886,684.166 584.071,684.79 583.023,685.232C581.974,685.674 580.765,685.895 579.396,685.895Z" style="fill:rgb(103,103,108);fill-rule:nonzero;"/>
                <path d="M594.84,685.869C593.592,685.869 592.495,685.6 591.551,685.063C590.606,684.526 589.878,683.759 589.367,682.762C588.855,681.765 588.6,680.608 588.6,679.291C588.6,677.956 588.855,676.791 589.367,675.794C589.878,674.797 590.606,674.03 591.551,673.493C592.495,672.956 593.592,672.687 594.84,672.687C596.088,672.687 597.184,672.956 598.129,673.493C599.073,674.03 599.801,674.797 600.313,675.794C600.824,676.791 601.08,677.956 601.08,679.291C601.08,680.608 600.824,681.765 600.313,682.762C599.801,683.759 599.073,684.526 598.129,685.063C597.184,685.6 596.088,685.869 594.84,685.869ZM594.84,683.789C596.001,683.789 596.889,683.408 597.505,682.645C598.12,681.882 598.428,680.764 598.428,679.291C598.428,677.835 598.116,676.721 597.492,675.95C596.868,675.179 595.984,674.793 594.84,674.793C593.696,674.793 592.812,675.179 592.188,675.95C591.564,676.721 591.252,677.835 591.252,679.291C591.252,680.764 591.559,681.882 592.175,682.645C592.79,683.408 593.678,683.789 594.84,683.789Z" style="fill:rgb(103,103,108);fill-rule:nonzero;"/>
                <path d="M610.83,672.687C613.863,672.687 615.38,674.394 615.38,677.809L615.38,684.569C615.38,684.968 615.263,685.275 615.029,685.492C614.795,685.709 614.47,685.817 614.054,685.817C613.655,685.817 613.339,685.704 613.105,685.479C612.871,685.254 612.754,684.95 612.754,684.569L612.754,677.939C612.754,676.864 612.541,676.076 612.117,675.573C611.692,675.07 611.029,674.819 610.128,674.819C609.07,674.819 608.221,675.148 607.58,675.807C606.938,676.466 606.618,677.35 606.618,678.459L606.618,684.569C606.618,684.95 606.501,685.254 606.267,685.479C606.033,685.704 605.716,685.817 605.318,685.817C604.919,685.817 604.598,685.704 604.356,685.479C604.113,685.254 603.992,684.95 603.992,684.569L603.992,673.987C603.992,673.623 604.117,673.324 604.369,673.09C604.62,672.856 604.936,672.739 605.318,672.739C605.699,672.739 606.002,672.852 606.228,673.077C606.453,673.302 606.566,673.597 606.566,673.961L606.566,675.027C606.982,674.264 607.562,673.684 608.308,673.285C609.053,672.886 609.894,672.687 610.83,672.687Z" style="fill:rgb(103,103,108);fill-rule:nonzero;"/>
                <path d="M620.294,685.817C619.912,685.817 619.596,685.713 619.345,685.505C619.093,685.297 618.968,684.985 618.968,684.569L618.968,674.013C618.968,673.597 619.093,673.281 619.345,673.064C619.596,672.847 619.912,672.739 620.294,672.739C620.675,672.739 620.987,672.847 621.23,673.064C621.472,673.281 621.594,673.597 621.594,674.013L621.594,684.569C621.594,684.985 621.472,685.297 621.23,685.505C620.987,685.713 620.675,685.817 620.294,685.817ZM620.294,670.191C619.791,670.191 619.392,670.052 619.098,669.775C618.803,669.498 618.656,669.134 618.656,668.683C618.656,668.232 618.803,667.873 619.098,667.604C619.392,667.335 619.791,667.201 620.294,667.201C620.779,667.201 621.173,667.335 621.477,667.604C621.78,667.873 621.932,668.232 621.932,668.683C621.932,669.134 621.784,669.498 621.49,669.775C621.195,670.052 620.796,670.191 620.294,670.191Z" style="fill:rgb(103,103,108);fill-rule:nonzero;"/>
                <path d="M630.694,685.869C629.463,685.869 628.384,685.6 627.457,685.063C626.529,684.526 625.81,683.763 625.299,682.775C624.787,681.787 624.532,680.643 624.532,679.343C624.532,678.026 624.796,676.864 625.325,675.859C625.853,674.854 626.594,674.074 627.548,673.519C628.501,672.964 629.593,672.687 630.824,672.687C631.482,672.687 632.145,672.782 632.813,672.973C633.48,673.164 634.074,673.424 634.594,673.753C635.148,674.134 635.426,674.576 635.426,675.079C635.426,675.374 635.348,675.621 635.192,675.82C635.036,676.019 634.836,676.119 634.594,676.119C634.438,676.119 634.282,676.08 634.126,676.002C633.97,675.924 633.77,675.807 633.528,675.651C633.094,675.374 632.691,675.161 632.319,675.014C631.946,674.867 631.5,674.793 630.98,674.793C629.801,674.793 628.887,675.192 628.237,675.989C627.587,676.786 627.262,677.896 627.262,679.317C627.262,680.738 627.582,681.835 628.224,682.606C628.865,683.377 629.775,683.763 630.954,683.763C631.474,683.763 631.933,683.685 632.332,683.529C632.73,683.373 633.138,683.165 633.554,682.905C633.744,682.784 633.935,682.68 634.126,682.593C634.316,682.506 634.49,682.463 634.646,682.463C634.888,682.463 635.088,682.563 635.244,682.762C635.4,682.961 635.478,683.208 635.478,683.503C635.478,683.746 635.413,683.967 635.283,684.166C635.153,684.365 634.932,684.569 634.62,684.777C634.1,685.124 633.493,685.392 632.8,685.583C632.106,685.774 631.404,685.869 630.694,685.869Z" style="fill:rgb(103,103,108);fill-rule:nonzero;"/>
                <path d="M661.374,668.033C661.478,667.756 661.634,667.548 661.842,667.409C662.05,667.27 662.284,667.201 662.544,667.201C662.873,667.201 663.163,667.309 663.415,667.526C663.666,667.743 663.792,668.024 663.792,668.371C663.792,668.562 663.757,668.735 663.688,668.891L657.942,684.959C657.82,685.254 657.63,685.479 657.37,685.635C657.11,685.791 656.824,685.869 656.512,685.869C656.217,685.869 655.94,685.791 655.68,685.635C655.42,685.479 655.238,685.254 655.134,684.959L650.402,671.543L645.566,684.959C645.462,685.254 645.28,685.479 645.02,685.635C644.76,685.791 644.482,685.869 644.188,685.869C643.876,685.869 643.594,685.791 643.343,685.635C643.091,685.479 642.905,685.254 642.784,684.959L637.038,668.891C636.968,668.735 636.934,668.562 636.934,668.371C636.934,668.024 637.064,667.743 637.324,667.526C637.584,667.309 637.896,667.201 638.26,667.201C638.52,667.201 638.758,667.27 638.975,667.409C639.191,667.548 639.352,667.756 639.456,668.033L644.266,681.865L649.154,668.163C649.258,667.868 649.427,667.643 649.661,667.487C649.895,667.331 650.15,667.253 650.428,667.253C650.705,667.253 650.956,667.335 651.182,667.5C651.407,667.665 651.58,667.894 651.702,668.189L656.486,681.995L661.374,668.033Z" style="fill:rgb(103,103,108);fill-rule:nonzero;"/>
                <path d="M670.396,672.687C672.077,672.687 673.329,673.112 674.153,673.961C674.976,674.81 675.388,676.102 675.388,677.835L675.388,684.569C675.388,684.968 675.275,685.275 675.05,685.492C674.824,685.709 674.512,685.817 674.114,685.817C673.732,685.817 673.429,685.704 673.204,685.479C672.978,685.254 672.866,684.95 672.866,684.569L672.866,683.607C672.536,684.335 672.047,684.894 671.397,685.284C670.747,685.674 669.988,685.869 669.122,685.869C668.29,685.869 667.527,685.7 666.834,685.362C666.14,685.024 665.599,684.552 665.209,683.945C664.819,683.338 664.624,682.662 664.624,681.917C664.624,680.998 664.862,680.275 665.339,679.746C665.815,679.217 666.604,678.84 667.705,678.615C668.805,678.39 670.318,678.277 672.242,678.277L672.84,678.277L672.84,677.523C672.84,676.552 672.64,675.85 672.242,675.417C671.843,674.984 671.202,674.767 670.318,674.767C669.711,674.767 669.139,674.845 668.602,675.001C668.064,675.157 667.475,675.382 666.834,675.677C666.366,675.937 666.036,676.067 665.846,676.067C665.586,676.067 665.373,675.972 665.209,675.781C665.044,675.59 664.962,675.348 664.962,675.053C664.962,674.793 665.035,674.563 665.183,674.364C665.33,674.165 665.568,673.97 665.898,673.779C666.504,673.45 667.215,673.185 668.03,672.986C668.844,672.787 669.633,672.687 670.396,672.687ZM669.59,683.919C670.543,683.919 671.323,683.594 671.93,682.944C672.536,682.294 672.84,681.458 672.84,680.435L672.84,679.759L672.372,679.759C671.02,679.759 669.98,679.82 669.252,679.941C668.524,680.062 668.004,680.266 667.692,680.552C667.38,680.838 667.224,681.25 667.224,681.787C667.224,682.411 667.449,682.922 667.9,683.321C668.35,683.72 668.914,683.919 669.59,683.919Z" style="fill:rgb(103,103,108);fill-rule:nonzero;"/>
                <path d="M680.302,685.817C679.92,685.817 679.604,685.713 679.353,685.505C679.101,685.297 678.976,684.985 678.976,684.569L678.976,668.501C678.976,668.085 679.101,667.769 679.353,667.552C679.604,667.335 679.92,667.227 680.302,667.227C680.683,667.227 680.995,667.335 681.238,667.552C681.48,667.769 681.602,668.085 681.602,668.501L681.602,684.569C681.602,684.985 681.48,685.297 681.238,685.505C680.995,685.713 680.683,685.817 680.302,685.817Z" style="fill:rgb(103,103,108);fill-rule:nonzero;"/>
                <path d="M686.594,685.817C686.212,685.817 685.896,685.713 685.645,685.505C685.393,685.297 685.268,684.985 685.268,684.569L685.268,668.501C685.268,668.085 685.393,667.769 685.645,667.552C685.896,667.335 686.212,667.227 686.594,667.227C686.975,667.227 687.287,667.335 687.53,667.552C687.772,667.769 687.894,668.085 687.894,668.501L687.894,684.569C687.894,684.985 687.772,685.297 687.53,685.505C687.287,685.713 686.975,685.817 686.594,685.817Z" style="fill:rgb(103,103,108);fill-rule:nonzero;"/>
                <path d="M721.98,668.033C722.084,667.756 722.24,667.548 722.448,667.409C722.656,667.27 722.89,667.201 723.15,667.201C723.479,667.201 723.769,667.309 724.021,667.526C724.272,667.743 724.398,668.024 724.398,668.371C724.398,668.562 724.363,668.735 724.294,668.891L718.548,684.959C718.426,685.254 718.236,685.479 717.976,685.635C717.716,685.791 717.43,685.869 717.118,685.869C716.823,685.869 716.546,685.791 716.286,685.635C716.026,685.479 715.844,685.254 715.74,684.959L711.008,671.543L706.172,684.959C706.068,685.254 705.886,685.479 705.626,685.635C705.366,685.791 705.088,685.869 704.794,685.869C704.482,685.869 704.2,685.791 703.949,685.635C703.697,685.479 703.511,685.254 703.39,684.959L697.644,668.891C697.574,668.735 697.54,668.562 697.54,668.371C697.54,668.024 697.67,667.743 697.93,667.526C698.19,667.309 698.502,667.201 698.866,667.201C699.126,667.201 699.364,667.27 699.581,667.409C699.797,667.548 699.958,667.756 700.062,668.033L704.872,681.865L709.76,668.163C709.864,667.868 710.033,667.643 710.267,667.487C710.501,667.331 710.756,667.253 711.034,667.253C711.311,667.253 711.562,667.335 711.788,667.5C712.013,667.665 712.186,667.894 712.308,668.189L717.092,681.995L721.98,668.033Z" style="fill:rgb(103,103,108);fill-rule:nonzero;"/>
                <path d="M735.604,682.489C735.846,682.489 736.046,682.584 736.202,682.775C736.358,682.966 736.436,683.208 736.436,683.503C736.436,684.006 736.124,684.43 735.5,684.777C734.893,685.124 734.23,685.392 733.511,685.583C732.791,685.774 732.102,685.869 731.444,685.869C729.433,685.869 727.847,685.284 726.686,684.114C725.524,682.944 724.944,681.345 724.944,679.317C724.944,678.017 725.199,676.864 725.711,675.859C726.222,674.854 726.941,674.074 727.869,673.519C728.796,672.964 729.849,672.687 731.028,672.687C732.726,672.687 734.07,673.233 735.058,674.325C736.046,675.417 736.54,676.89 736.54,678.745C736.54,679.438 736.228,679.785 735.604,679.785L727.57,679.785C727.743,682.472 729.034,683.815 731.444,683.815C732.085,683.815 732.64,683.728 733.108,683.555C733.576,683.382 734.07,683.156 734.59,682.879C734.642,682.844 734.785,682.771 735.019,682.658C735.253,682.545 735.448,682.489 735.604,682.489ZM731.08,674.611C730.074,674.611 729.268,674.932 728.662,675.573C728.055,676.214 727.691,677.116 727.57,678.277L734.278,678.277C734.226,677.098 733.927,676.193 733.381,675.56C732.835,674.927 732.068,674.611 731.08,674.611Z" style="fill:rgb(103,103,108);fill-rule:nonzero;"/>
                <path d="M746.238,672.687C747.347,672.687 748.326,672.956 749.176,673.493C750.025,674.03 750.688,674.793 751.165,675.781C751.641,676.769 751.88,677.922 751.88,679.239C751.88,680.539 751.641,681.692 751.165,682.697C750.688,683.702 750.021,684.482 749.163,685.037C748.305,685.592 747.33,685.869 746.238,685.869C745.284,685.869 744.444,685.665 743.716,685.258C742.988,684.851 742.433,684.266 742.052,683.503L742.052,684.543C742.052,684.924 741.935,685.232 741.701,685.466C741.467,685.7 741.15,685.817 740.752,685.817C740.353,685.817 740.032,685.7 739.79,685.466C739.547,685.232 739.426,684.924 739.426,684.543L739.426,668.475C739.426,668.094 739.551,667.79 739.803,667.565C740.054,667.34 740.379,667.227 740.778,667.227C741.159,667.227 741.467,667.335 741.701,667.552C741.935,667.769 742.052,668.059 742.052,668.423L742.052,675.079C742.433,674.316 742.988,673.727 743.716,673.311C744.444,672.895 745.284,672.687 746.238,672.687ZM745.614,683.789C746.74,683.789 747.62,683.39 748.253,682.593C748.885,681.796 749.202,680.678 749.202,679.239C749.202,677.818 748.89,676.721 748.266,675.95C747.642,675.179 746.758,674.793 745.614,674.793C744.47,674.793 743.59,675.183 742.975,675.963C742.359,676.743 742.052,677.852 742.052,679.291C742.052,680.73 742.359,681.839 742.975,682.619C743.59,683.399 744.47,683.789 745.614,683.789Z" style="fill:rgb(103,103,108);fill-rule:nonzero;"/>
                <path d="M778.14,684.127C778.226,684.335 778.27,684.508 778.27,684.647C778.27,684.976 778.135,685.254 777.867,685.479C777.598,685.704 777.299,685.817 776.97,685.817C776.744,685.817 776.532,685.752 776.333,685.622C776.133,685.492 775.982,685.306 775.878,685.063L774.162,681.163L764.646,681.163L762.93,685.063C762.826,685.306 762.67,685.492 762.462,685.622C762.254,685.752 762.037,685.817 761.812,685.817C761.465,685.817 761.157,685.704 760.889,685.479C760.62,685.254 760.486,684.976 760.486,684.647C760.486,684.508 760.529,684.335 760.616,684.127L767.948,668.085C768.069,667.808 768.264,667.591 768.533,667.435C768.801,667.279 769.083,667.201 769.378,667.201C769.672,667.201 769.954,667.279 770.223,667.435C770.491,667.591 770.686,667.808 770.808,668.085L778.14,684.127ZM765.608,679.031L773.226,679.031L769.404,670.425L765.608,679.031Z" style="fill:rgb(103,103,108);fill-rule:nonzero;"/>
                <path d="M787.552,672.687C788.644,672.687 789.619,672.964 790.477,673.519C791.335,674.074 792.002,674.854 792.479,675.859C792.955,676.864 793.194,678.026 793.194,679.343C793.194,680.643 792.96,681.787 792.492,682.775C792.024,683.763 791.361,684.526 790.503,685.063C789.645,685.6 788.661,685.869 787.552,685.869C786.598,685.869 785.758,685.665 785.03,685.258C784.302,684.851 783.747,684.266 783.366,683.503L783.366,689.301C783.366,689.665 783.249,689.955 783.015,690.172C782.781,690.389 782.473,690.497 782.092,690.497C781.693,690.497 781.368,690.384 781.117,690.159C780.865,689.934 780.74,689.63 780.74,689.249L780.74,674.013C780.74,673.632 780.861,673.324 781.104,673.09C781.346,672.856 781.667,672.739 782.066,672.739C782.447,672.739 782.759,672.856 783.002,673.09C783.244,673.324 783.366,673.632 783.366,674.013L783.366,675.079C783.747,674.316 784.302,673.727 785.03,673.311C785.758,672.895 786.598,672.687 787.552,672.687ZM786.928,683.789C788.072,683.789 788.956,683.403 789.58,682.632C790.204,681.861 790.516,680.764 790.516,679.343C790.516,677.904 790.199,676.786 789.567,675.989C788.934,675.192 788.054,674.793 786.928,674.793C785.784,674.793 784.904,675.183 784.289,675.963C783.673,676.743 783.366,677.852 783.366,679.291C783.366,680.73 783.673,681.839 784.289,682.619C784.904,683.399 785.784,683.789 786.928,683.789Z" style="fill:rgb(103,103,108);fill-rule:nonzero;"/>
                <path d="M802.918,672.687C804.01,672.687 804.985,672.964 805.843,673.519C806.701,674.074 807.368,674.854 807.845,675.859C808.321,676.864 808.56,678.026 808.56,679.343C808.56,680.643 808.326,681.787 807.858,682.775C807.39,683.763 806.727,684.526 805.869,685.063C805.011,685.6 804.027,685.869 802.918,685.869C801.964,685.869 801.124,685.665 800.396,685.258C799.668,684.851 799.113,684.266 798.732,683.503L798.732,689.301C798.732,689.665 798.615,689.955 798.381,690.172C798.147,690.389 797.839,690.497 797.458,690.497C797.059,690.497 796.734,690.384 796.483,690.159C796.231,689.934 796.106,689.63 796.106,689.249L796.106,674.013C796.106,673.632 796.227,673.324 796.47,673.09C796.712,672.856 797.033,672.739 797.432,672.739C797.813,672.739 798.125,672.856 798.368,673.09C798.61,673.324 798.732,673.632 798.732,674.013L798.732,675.079C799.113,674.316 799.668,673.727 800.396,673.311C801.124,672.895 801.964,672.687 802.918,672.687ZM802.294,683.789C803.438,683.789 804.322,683.403 804.946,682.632C805.57,681.861 805.882,680.764 805.882,679.343C805.882,677.904 805.565,676.786 804.933,675.989C804.3,675.192 803.42,674.793 802.294,674.793C801.15,674.793 800.27,675.183 799.655,675.963C799.039,676.743 798.732,677.852 798.732,679.291C798.732,680.73 799.039,681.839 799.655,682.619C800.27,683.399 801.15,683.789 802.294,683.789Z" style="fill:rgb(103,103,108);fill-rule:nonzero;"/>
                <path d="M812.798,685.817C812.416,685.817 812.1,685.713 811.849,685.505C811.597,685.297 811.472,684.985 811.472,684.569L811.472,668.501C811.472,668.085 811.597,667.769 811.849,667.552C812.1,667.335 812.416,667.227 812.798,667.227C813.179,667.227 813.491,667.335 813.734,667.552C813.976,667.769 814.098,668.085 814.098,668.501L814.098,684.569C814.098,684.985 813.976,685.297 813.734,685.505C813.491,685.713 813.179,685.817 812.798,685.817Z" style="fill:rgb(103,103,108);fill-rule:nonzero;"/>
                <path d="M819.09,685.817C818.708,685.817 818.392,685.713 818.141,685.505C817.889,685.297 817.764,684.985 817.764,684.569L817.764,674.013C817.764,673.597 817.889,673.281 818.141,673.064C818.392,672.847 818.708,672.739 819.09,672.739C819.471,672.739 819.783,672.847 820.026,673.064C820.268,673.281 820.39,673.597 820.39,674.013L820.39,684.569C820.39,684.985 820.268,685.297 820.026,685.505C819.783,685.713 819.471,685.817 819.09,685.817ZM819.09,670.191C818.587,670.191 818.188,670.052 817.894,669.775C817.599,669.498 817.452,669.134 817.452,668.683C817.452,668.232 817.599,667.873 817.894,667.604C818.188,667.335 818.587,667.201 819.09,667.201C819.575,667.201 819.969,667.335 820.273,667.604C820.576,667.873 820.728,668.232 820.728,668.683C820.728,669.134 820.58,669.498 820.286,669.775C819.991,670.052 819.592,670.191 819.09,670.191Z" style="fill:rgb(103,103,108);fill-rule:nonzero;"/>
                <path d="M829.49,685.869C828.259,685.869 827.18,685.6 826.253,685.063C825.325,684.526 824.606,683.763 824.095,682.775C823.583,681.787 823.328,680.643 823.328,679.343C823.328,678.026 823.592,676.864 824.121,675.859C824.649,674.854 825.39,674.074 826.344,673.519C827.297,672.964 828.389,672.687 829.62,672.687C830.278,672.687 830.941,672.782 831.609,672.973C832.276,673.164 832.87,673.424 833.39,673.753C833.944,674.134 834.222,674.576 834.222,675.079C834.222,675.374 834.144,675.621 833.988,675.82C833.832,676.019 833.632,676.119 833.39,676.119C833.234,676.119 833.078,676.08 832.922,676.002C832.766,675.924 832.566,675.807 832.324,675.651C831.89,675.374 831.487,675.161 831.115,675.014C830.742,674.867 830.296,674.793 829.776,674.793C828.597,674.793 827.683,675.192 827.033,675.989C826.383,676.786 826.058,677.896 826.058,679.317C826.058,680.738 826.378,681.835 827.02,682.606C827.661,683.377 828.571,683.763 829.75,683.763C830.27,683.763 830.729,683.685 831.128,683.529C831.526,683.373 831.934,683.165 832.35,682.905C832.54,682.784 832.731,682.68 832.922,682.593C833.112,682.506 833.286,682.463 833.442,682.463C833.684,682.463 833.884,682.563 834.04,682.762C834.196,682.961 834.274,683.208 834.274,683.503C834.274,683.746 834.209,683.967 834.079,684.166C833.949,684.365 833.728,684.569 833.416,684.777C832.896,685.124 832.289,685.392 831.596,685.583C830.902,685.774 830.2,685.869 829.49,685.869Z" style="fill:rgb(103,103,108);fill-rule:nonzero;"/>
                <path d="M841.944,672.687C843.625,672.687 844.877,673.112 845.701,673.961C846.524,674.81 846.936,676.102 846.936,677.835L846.936,684.569C846.936,684.968 846.823,685.275 846.598,685.492C846.372,685.709 846.06,685.817 845.662,685.817C845.28,685.817 844.977,685.704 844.752,685.479C844.526,685.254 844.414,684.95 844.414,684.569L844.414,683.607C844.084,684.335 843.595,684.894 842.945,685.284C842.295,685.674 841.536,685.869 840.67,685.869C839.838,685.869 839.075,685.7 838.382,685.362C837.688,685.024 837.147,684.552 836.757,683.945C836.367,683.338 836.172,682.662 836.172,681.917C836.172,680.998 836.41,680.275 836.887,679.746C837.363,679.217 838.152,678.84 839.253,678.615C840.353,678.39 841.866,678.277 843.79,678.277L844.388,678.277L844.388,677.523C844.388,676.552 844.188,675.85 843.79,675.417C843.391,674.984 842.75,674.767 841.866,674.767C841.259,674.767 840.687,674.845 840.15,675.001C839.612,675.157 839.023,675.382 838.382,675.677C837.914,675.937 837.584,676.067 837.394,676.067C837.134,676.067 836.921,675.972 836.757,675.781C836.592,675.59 836.51,675.348 836.51,675.053C836.51,674.793 836.583,674.563 836.731,674.364C836.878,674.165 837.116,673.97 837.446,673.779C838.052,673.45 838.763,673.185 839.578,672.986C840.392,672.787 841.181,672.687 841.944,672.687ZM841.138,683.919C842.091,683.919 842.871,683.594 843.478,682.944C844.084,682.294 844.388,681.458 844.388,680.435L844.388,679.759L843.92,679.759C842.568,679.759 841.528,679.82 840.8,679.941C840.072,680.062 839.552,680.266 839.24,680.552C838.928,680.838 838.772,681.25 838.772,681.787C838.772,682.411 838.997,682.922 839.448,683.321C839.898,683.72 840.462,683.919 841.138,683.919Z" style="fill:rgb(103,103,108);fill-rule:nonzero;"/>
                <path d="M856.738,683.815C857.119,683.85 857.392,683.949 857.557,684.114C857.721,684.279 857.804,684.508 857.804,684.803C857.804,685.15 857.669,685.414 857.401,685.596C857.132,685.778 856.738,685.852 856.218,685.817L855.516,685.765C854.112,685.661 853.063,685.232 852.37,684.478C851.676,683.724 851.33,682.61 851.33,681.137L851.33,675.027L849.77,675.027C849.007,675.027 848.626,674.689 848.626,674.013C848.626,673.701 848.725,673.454 848.925,673.272C849.124,673.09 849.406,672.999 849.77,672.999L851.33,672.999L851.33,670.321C851.33,669.922 851.447,669.61 851.681,669.385C851.915,669.16 852.231,669.047 852.63,669.047C853.028,669.047 853.349,669.16 853.592,669.385C853.834,669.61 853.956,669.922 853.956,670.321L853.956,672.999L856.53,672.999C856.894,672.999 857.175,673.09 857.375,673.272C857.574,673.454 857.674,673.701 857.674,674.013C857.674,674.342 857.574,674.594 857.375,674.767C857.175,674.94 856.894,675.027 856.53,675.027L853.956,675.027L853.956,681.319C853.956,682.134 854.125,682.732 854.463,683.113C854.801,683.494 855.316,683.711 856.01,683.763L856.738,683.815Z" style="fill:rgb(103,103,108);fill-rule:nonzero;"/>
                <path d="M861.028,685.817C860.646,685.817 860.33,685.713 860.079,685.505C859.827,685.297 859.702,684.985 859.702,684.569L859.702,674.013C859.702,673.597 859.827,673.281 860.079,673.064C860.33,672.847 860.646,672.739 861.028,672.739C861.409,672.739 861.721,672.847 861.964,673.064C862.206,673.281 862.328,673.597 862.328,674.013L862.328,684.569C862.328,684.985 862.206,685.297 861.964,685.505C861.721,685.713 861.409,685.817 861.028,685.817ZM861.028,670.191C860.525,670.191 860.126,670.052 859.832,669.775C859.537,669.498 859.39,669.134 859.39,668.683C859.39,668.232 859.537,667.873 859.832,667.604C860.126,667.335 860.525,667.201 861.028,667.201C861.513,667.201 861.907,667.335 862.211,667.604C862.514,667.873 862.666,668.232 862.666,668.683C862.666,669.134 862.518,669.498 862.224,669.775C861.929,670.052 861.53,670.191 861.028,670.191Z" style="fill:rgb(103,103,108);fill-rule:nonzero;"/>
                <path d="M871.506,685.869C870.258,685.869 869.161,685.6 868.217,685.063C867.272,684.526 866.544,683.759 866.033,682.762C865.521,681.765 865.266,680.608 865.266,679.291C865.266,677.956 865.521,676.791 866.033,675.794C866.544,674.797 867.272,674.03 868.217,673.493C869.161,672.956 870.258,672.687 871.506,672.687C872.754,672.687 873.85,672.956 874.795,673.493C875.739,674.03 876.467,674.797 876.979,675.794C877.49,676.791 877.746,677.956 877.746,679.291C877.746,680.608 877.49,681.765 876.979,682.762C876.467,683.759 875.739,684.526 874.795,685.063C873.85,685.6 872.754,685.869 871.506,685.869ZM871.506,683.789C872.667,683.789 873.555,683.408 874.171,682.645C874.786,681.882 875.094,680.764 875.094,679.291C875.094,677.835 874.782,676.721 874.158,675.95C873.534,675.179 872.65,674.793 871.506,674.793C870.362,674.793 869.478,675.179 868.854,675.95C868.23,676.721 867.918,677.835 867.918,679.291C867.918,680.764 868.225,681.882 868.841,682.645C869.456,683.408 870.344,683.789 871.506,683.789Z" style="fill:rgb(103,103,108);fill-rule:nonzero;"/>
                <path d="M887.496,672.687C890.529,672.687 892.046,674.394 892.046,677.809L892.046,684.569C892.046,684.968 891.929,685.275 891.695,685.492C891.461,685.709 891.136,685.817 890.72,685.817C890.321,685.817 890.005,685.704 889.771,685.479C889.537,685.254 889.42,684.95 889.42,684.569L889.42,677.939C889.42,676.864 889.207,676.076 888.783,675.573C888.358,675.07 887.695,674.819 886.794,674.819C885.736,674.819 884.887,675.148 884.246,675.807C883.604,676.466 883.284,677.35 883.284,678.459L883.284,684.569C883.284,684.95 883.167,685.254 882.933,685.479C882.699,685.704 882.382,685.817 881.984,685.817C881.585,685.817 881.264,685.704 881.022,685.479C880.779,685.254 880.658,684.95 880.658,684.569L880.658,673.987C880.658,673.623 880.783,673.324 881.035,673.09C881.286,672.856 881.602,672.739 881.984,672.739C882.365,672.739 882.668,672.852 882.894,673.077C883.119,673.302 883.232,673.597 883.232,673.961L883.232,675.027C883.648,674.264 884.228,673.684 884.974,673.285C885.719,672.886 886.56,672.687 887.496,672.687Z" style="fill:rgb(103,103,108);fill-rule:nonzero;"/>
                <path d="M904.136,685.817C903.737,685.817 903.416,685.691 903.174,685.44C902.931,685.189 902.81,684.864 902.81,684.465L902.81,668.657C902.81,668.258 902.927,667.942 903.161,667.708C903.395,667.474 903.72,667.357 904.136,667.357L913.444,667.357C914.276,667.357 914.692,667.721 914.692,668.449C914.692,669.177 914.276,669.541 913.444,669.541L905.462,669.541L905.462,675.287L912.924,675.287C913.756,675.287 914.172,675.651 914.172,676.379C914.172,677.107 913.756,677.471 912.924,677.471L905.462,677.471L905.462,684.465C905.462,684.881 905.345,685.21 905.111,685.453C904.877,685.696 904.552,685.817 904.136,685.817Z" style="fill:rgb(103,103,108);fill-rule:nonzero;"/>
                <path d="M918.41,685.817C918.028,685.817 917.712,685.713 917.461,685.505C917.209,685.297 917.084,684.985 917.084,684.569L917.084,674.013C917.084,673.597 917.209,673.281 917.461,673.064C917.712,672.847 918.028,672.739 918.41,672.739C918.791,672.739 919.103,672.847 919.346,673.064C919.588,673.281 919.71,673.597 919.71,674.013L919.71,684.569C919.71,684.985 919.588,685.297 919.346,685.505C919.103,685.713 918.791,685.817 918.41,685.817ZM918.41,670.191C917.907,670.191 917.508,670.052 917.214,669.775C916.919,669.498 916.772,669.134 916.772,668.683C916.772,668.232 916.919,667.873 917.214,667.604C917.508,667.335 917.907,667.201 918.41,667.201C918.895,667.201 919.289,667.335 919.593,667.604C919.896,667.873 920.048,668.232 920.048,668.683C920.048,669.134 919.9,669.498 919.606,669.775C919.311,670.052 918.912,670.191 918.41,670.191Z" style="fill:rgb(103,103,108);fill-rule:nonzero;"/>
                <path d="M930.032,672.739C930.864,672.687 931.28,673.042 931.28,673.805C931.28,674.186 931.184,674.472 930.994,674.663C930.803,674.854 930.474,674.966 930.006,675.001L929.226,675.079C928.134,675.183 927.323,675.564 926.795,676.223C926.266,676.882 926.002,677.679 926.002,678.615L926.002,684.569C926.002,684.985 925.88,685.297 925.638,685.505C925.395,685.713 925.083,685.817 924.702,685.817C924.32,685.817 924.004,685.713 923.753,685.505C923.501,685.297 923.376,684.985 923.376,684.569L923.376,673.987C923.376,673.588 923.501,673.281 923.753,673.064C924.004,672.847 924.32,672.739 924.702,672.739C925.048,672.739 925.339,672.847 925.573,673.064C925.807,673.281 925.924,673.58 925.924,673.961L925.924,675.209C926.27,674.446 926.773,673.866 927.432,673.467C928.09,673.068 928.836,672.834 929.668,672.765L930.032,672.739Z" style="fill:rgb(103,103,108);fill-rule:nonzero;"/>
                <path d="M942.564,682.489C942.806,682.489 943.006,682.584 943.162,682.775C943.318,682.966 943.396,683.208 943.396,683.503C943.396,684.006 943.084,684.43 942.46,684.777C941.853,685.124 941.19,685.392 940.471,685.583C939.751,685.774 939.062,685.869 938.404,685.869C936.393,685.869 934.807,685.284 933.646,684.114C932.484,682.944 931.904,681.345 931.904,679.317C931.904,678.017 932.159,676.864 932.671,675.859C933.182,674.854 933.901,674.074 934.829,673.519C935.756,672.964 936.809,672.687 937.988,672.687C939.686,672.687 941.03,673.233 942.018,674.325C943.006,675.417 943.5,676.89 943.5,678.745C943.5,679.438 943.188,679.785 942.564,679.785L934.53,679.785C934.703,682.472 935.994,683.815 938.404,683.815C939.045,683.815 939.6,683.728 940.068,683.555C940.536,683.382 941.03,683.156 941.55,682.879C941.602,682.844 941.745,682.771 941.979,682.658C942.213,682.545 942.408,682.489 942.564,682.489ZM938.04,674.611C937.034,674.611 936.228,674.932 935.622,675.573C935.015,676.214 934.651,677.116 934.53,678.277L941.238,678.277C941.186,677.098 940.887,676.193 940.341,675.56C939.795,674.927 939.028,674.611 938.04,674.611Z" style="fill:rgb(103,103,108);fill-rule:nonzero;"/>
                <path d="M963.468,673.545C963.658,673.025 964.014,672.765 964.534,672.765C964.863,672.765 965.158,672.878 965.418,673.103C965.678,673.328 965.808,673.606 965.808,673.935C965.808,674.108 965.773,674.264 965.704,674.403L961.388,684.933C961.284,685.21 961.11,685.423 960.868,685.57C960.625,685.717 960.356,685.791 960.062,685.791C959.784,685.791 959.524,685.717 959.282,685.57C959.039,685.423 958.866,685.21 958.762,684.933L955.382,676.587L952.08,684.933C951.976,685.21 951.807,685.423 951.573,685.57C951.339,685.717 951.074,685.791 950.78,685.791C950.502,685.791 950.238,685.717 949.987,685.57C949.735,685.423 949.549,685.21 949.428,684.933L945.138,674.403C945.068,674.264 945.034,674.117 945.034,673.961C945.034,673.614 945.177,673.328 945.463,673.103C945.749,672.878 946.065,672.765 946.412,672.765C946.932,672.765 947.287,673.016 947.478,673.519L950.832,682.385L954.264,673.597C954.368,673.32 954.532,673.112 954.758,672.973C954.983,672.834 955.226,672.765 955.486,672.765C955.728,672.765 955.962,672.834 956.188,672.973C956.413,673.112 956.578,673.32 956.682,673.597L960.114,682.333L963.468,673.545Z" style="fill:rgb(103,103,108);fill-rule:nonzero;"/>
                <path d="M973.374,672.687C975.055,672.687 976.307,673.112 977.131,673.961C977.954,674.81 978.366,676.102 978.366,677.835L978.366,684.569C978.366,684.968 978.253,685.275 978.028,685.492C977.802,685.709 977.49,685.817 977.092,685.817C976.71,685.817 976.407,685.704 976.182,685.479C975.956,685.254 975.844,684.95 975.844,684.569L975.844,683.607C975.514,684.335 975.025,684.894 974.375,685.284C973.725,685.674 972.966,685.869 972.1,685.869C971.268,685.869 970.505,685.7 969.812,685.362C969.118,685.024 968.577,684.552 968.187,683.945C967.797,683.338 967.602,682.662 967.602,681.917C967.602,680.998 967.84,680.275 968.317,679.746C968.793,679.217 969.582,678.84 970.683,678.615C971.783,678.39 973.296,678.277 975.22,678.277L975.818,678.277L975.818,677.523C975.818,676.552 975.618,675.85 975.22,675.417C974.821,674.984 974.18,674.767 973.296,674.767C972.689,674.767 972.117,674.845 971.58,675.001C971.042,675.157 970.453,675.382 969.812,675.677C969.344,675.937 969.014,676.067 968.824,676.067C968.564,676.067 968.351,675.972 968.187,675.781C968.022,675.59 967.94,675.348 967.94,675.053C967.94,674.793 968.013,674.563 968.161,674.364C968.308,674.165 968.546,673.97 968.876,673.779C969.482,673.45 970.193,673.185 971.008,672.986C971.822,672.787 972.611,672.687 973.374,672.687ZM972.568,683.919C973.521,683.919 974.301,683.594 974.908,682.944C975.514,682.294 975.818,681.458 975.818,680.435L975.818,679.759L975.35,679.759C973.998,679.759 972.958,679.82 972.23,679.941C971.502,680.062 970.982,680.266 970.67,680.552C970.358,680.838 970.202,681.25 970.202,681.787C970.202,682.411 970.427,682.922 970.878,683.321C971.328,683.72 971.892,683.919 972.568,683.919Z" style="fill:rgb(103,103,108);fill-rule:nonzero;"/>
                <path d="M983.28,685.817C982.898,685.817 982.582,685.713 982.331,685.505C982.079,685.297 981.954,684.985 981.954,684.569L981.954,668.501C981.954,668.085 982.079,667.769 982.331,667.552C982.582,667.335 982.898,667.227 983.28,667.227C983.661,667.227 983.973,667.335 984.216,667.552C984.458,667.769 984.58,668.085 984.58,668.501L984.58,684.569C984.58,684.985 984.458,685.297 984.216,685.505C983.973,685.713 983.661,685.817 983.28,685.817Z" style="fill:rgb(103,103,108);fill-rule:nonzero;"/>
                <path d="M989.572,685.817C989.19,685.817 988.874,685.713 988.623,685.505C988.371,685.297 988.246,684.985 988.246,684.569L988.246,668.501C988.246,668.085 988.371,667.769 988.623,667.552C988.874,667.335 989.19,667.227 989.572,667.227C989.953,667.227 990.265,667.335 990.508,667.552C990.75,667.769 990.872,668.085 990.872,668.501L990.872,684.569C990.872,684.985 990.75,685.297 990.508,685.505C990.265,685.713 989.953,685.817 989.572,685.817Z" style="fill:rgb(103,103,108);fill-rule:nonzero;"/>
            </g>
            <g>
                <g id="HTTP-SSL-deep-packet-inspection" serif:id="HTTP/SSL deep packet inspection" transform="matrix(1.01774,0,0,1.01774,-8.74455,-10.0902)">
                    <circle cx="352.215" cy="512.327" r="91.202" style="fill:rgb(253,152,63);fill-opacity:0.800733;"/>
                </g>
                <g id="Application-delivery-controller" serif:id="Application delivery controller" transform="matrix(1.01774,0,0,1.01774,137.296,-10.0902)">
                    <circle cx="352.215" cy="512.327" r="91.202" style="fill:rgb(253,152,63);fill-opacity:0.800733;"/>
                </g>
                <g id="Signature-base-exploit-prevention" serif:id="Signature-base exploit prevention" transform="matrix(1.01774,0,0,1.01774,283.851,-10.0902)">
                    <circle cx="352.215" cy="512.327" r="91.202" style="fill:rgb(253,152,63);fill-opacity:0.800733;"/>
                </g>
                <g id="Web-application-profiling-engine" serif:id="Web application profiling engine" transform="matrix(1.01774,0,0,1.01774,432.131,-10.0902)">
                    <circle cx="352.215" cy="512.327" r="91.202" style="fill:rgb(253,152,63);fill-opacity:0.800733;"/>
                </g>
            </g>
        </g>
    </g>
</svg>
