<?xml version="1.0" encoding="UTF-8" standalone="no"?>
<!DOCTYPE svg PUBLIC "-//W3C//DTD SVG 1.1//EN" "http://www.w3.org/Graphics/SVG/1.1/DTD/svg11.dtd">
<svg width="100%" height="100%" viewBox="0 0 96 114" version="1.1" xmlns="http://www.w3.org/2000/svg" xmlns:xlink="http://www.w3.org/1999/xlink" xml:space="preserve" xmlns:serif="http://www.serif.com/" style="fill-rule:evenodd;clip-rule:evenodd;">
    <g transform="matrix(1,0,0,1,-1,0)">
        <g id="Group-2">
            <g id="Icon_Service_FWManagement_Color" transform="matrix(1,0,0,1,24,23)">
                <path id="Firewall" d="M30.222,38.768C30.418,37.237 30.475,35.678 30.378,34.1C30.292,32.705 30.084,31.354 29.783,30.032L47.292,30.032C48.065,30.032 48.696,30.809 48.696,31.757L48.696,37.044C48.696,37.992 48.065,38.768 47.292,38.768L30.222,38.768ZM48.493,41.264C49.3,41.264 49.956,42.04 49.956,42.988L49.956,48.275C49.956,49.223 49.299,50 48.493,50L38.812,50C38.006,50 37.348,49.223 37.348,48.275L37.348,42.988C37.348,42.04 38.006,41.264 38.812,41.264L48.493,41.264ZM33.415,41.264C34.19,41.264 34.826,42.04 34.826,42.988L34.826,48.275C34.826,49.223 34.191,50 33.415,50L26,50C28.032,47.573 29.548,44.566 30.386,41.264L33.415,41.264ZM48.537,19C49.344,19 50,19.776 50,20.724L50,26.011C50,26.959 49.343,27.736 48.537,27.736L38.856,27.736C38.05,27.736 37.391,26.959 37.391,26.011L37.391,20.724C37.391,19.776 38.05,19 38.856,19L48.537,19Z" style="fill:rgb(83,83,90);fill-rule:nonzero;"/>
                <rect id="Rectangle-path" x="0" y="0" width="50" height="50" style="fill:none;"/>
                <path id="Fill-1" d="M36.397,28C36.397,28 27.361,24.725 25.369,19.276C23.138,13.176 31.409,11.783 39.869,12.026C44.428,12.157 50,12.855 50,12.855C50,12.855 36.836,14.542 32.079,18.406C27.434,22.179 36.397,28 36.397,28" style="fill:rgb(255,108,11);fill-rule:nonzero;"/>
                <path id="Shape" d="M26.961,34.467C26.733,30.846 25.48,27.61 23.576,25.093C20.532,21.065 18.512,15.066 18.145,9.279C17.651,12.994 15.43,16.352 15.709,20.011C15.137,12.616 13.018,5.804 9.765,0C9.937,1.059 10.057,2.138 10.126,3.243C10.663,11.617 7.765,19.313 3.378,25.156C1.056,28.247 -0.244,32.398 0.038,36.832C0.412,42.71 3.471,47.581 7.691,49.952C7.212,48.821 6.936,47.55 6.977,46.189C7.045,43.984 7.883,42.02 9.174,40.641C11.583,38.079 13.353,34.524 13.521,30.42C13.521,30.361 13.511,30.309 13.511,30.253L13.534,30.253C13.534,30.309 13.524,30.361 13.521,30.42C13.663,34.527 15.403,38.097 17.799,40.686C19.083,42.078 19.904,44.043 19.953,46.258C19.989,47.605 19.701,48.872 19.216,50C24.146,47.288 27.394,41.216 26.961,34.467Z" style="fill:rgb(255,141,32);fill-rule:nonzero;"/>
                <path id="Combined-Shape" d="M13,30.269L13,29.998C13.003,29.969 13.006,29.941 13.006,29.911L13,29.911L13,8C14.087,11.617 14.809,15.469 15.104,19.491C14.835,15.768 16.978,12.352 17.455,8.573C17.809,14.46 19.759,20.563 22.696,24.661C24.533,27.222 25.742,30.513 25.963,34.198C26.381,41.064 23.246,47.241 18.488,50C18.956,48.852 19.234,47.563 19.2,46.193C19.153,43.939 18.36,41.94 17.121,40.524C14.844,37.93 13.18,34.368 13,30.269L13,30.269Z" style="fill:rgb(255,108,11);fill-rule:nonzero;"/>
            </g>
            <path id="Rectangle-2" d="M96.5,3.5C96.5,1.844 95.156,0.5 93.5,0.5L4.5,0.5C2.844,0.5 1.5,1.844 1.5,3.5L1.5,92.5C1.5,94.156 2.844,95.5 4.5,95.5L93.5,95.5C95.156,95.5 96.5,94.156 96.5,92.5L96.5,3.5Z" style="fill:none;stroke:rgb(255,121,26);stroke-width:1px;"/>
            <g transform="matrix(1,0,0,1,9.73545,109)">
                <g id="Management">
                    <path d="M9.269,-9.23C9.434,-9.23 9.562,-9.18 9.653,-9.081C9.743,-8.981 9.789,-8.849 9.789,-8.684L9.789,-0.455C9.789,-0.299 9.746,-0.173 9.659,-0.078C9.572,0.017 9.451,0.065 9.295,0.065C9.139,0.065 9.022,0.017 8.944,-0.078C8.866,-0.173 8.827,-0.299 8.827,-0.455L8.827,-7.098L6.006,-1.69C5.885,-1.439 5.707,-1.313 5.473,-1.313C5.248,-1.313 5.07,-1.439 4.94,-1.69L2.106,-7.033L2.106,-0.455C2.106,-0.299 2.065,-0.173 1.983,-0.078C1.9,0.017 1.781,0.065 1.625,0.065C1.469,0.065 1.348,0.017 1.261,-0.078C1.174,-0.173 1.131,-0.299 1.131,-0.455L1.131,-8.684C1.131,-8.849 1.179,-8.981 1.274,-9.081C1.369,-9.18 1.499,-9.23 1.664,-9.23C1.881,-9.23 2.054,-9.104 2.184,-8.853L5.486,-2.522L8.749,-8.853C8.818,-8.992 8.894,-9.089 8.977,-9.146C9.059,-9.202 9.156,-9.23 9.269,-9.23Z" style="fill:rgb(115,115,115);fill-rule:nonzero;"/>
                    <path d="M14.625,-6.487C16.211,-6.487 17.004,-5.655 17.004,-3.991L17.004,-0.455C17.004,-0.299 16.958,-0.173 16.867,-0.078C16.776,0.017 16.653,0.065 16.497,0.065C16.341,0.065 16.215,0.017 16.12,-0.078C16.024,-0.173 15.977,-0.299 15.977,-0.455L15.977,-1.079C15.812,-0.706 15.561,-0.418 15.223,-0.215C14.885,-0.011 14.495,0.091 14.053,0.091C13.645,0.091 13.27,0.009 12.928,-0.156C12.586,-0.321 12.315,-0.55 12.116,-0.845C11.916,-1.14 11.817,-1.465 11.817,-1.82C11.817,-2.297 11.938,-2.667 12.181,-2.932C12.423,-3.196 12.822,-3.387 13.377,-3.504C13.931,-3.621 14.703,-3.679 15.691,-3.679L15.977,-3.679L15.977,-4.108C15.977,-4.628 15.87,-5.009 15.658,-5.252C15.446,-5.495 15.101,-5.616 14.625,-5.616C14.035,-5.616 13.437,-5.456 12.831,-5.135C12.597,-4.988 12.432,-4.914 12.337,-4.914C12.233,-4.914 12.146,-4.953 12.077,-5.031C12.007,-5.109 11.973,-5.209 11.973,-5.33C11.973,-5.451 12.009,-5.558 12.083,-5.649C12.157,-5.739 12.276,-5.833 12.441,-5.928C12.744,-6.101 13.088,-6.238 13.474,-6.337C13.86,-6.437 14.243,-6.487 14.625,-6.487ZM14.196,-0.741C14.716,-0.741 15.142,-0.917 15.476,-1.268C15.81,-1.619 15.977,-2.071 15.977,-2.626L15.977,-3.003L15.743,-3.003C14.98,-3.003 14.399,-2.971 14.001,-2.906C13.602,-2.841 13.318,-2.732 13.149,-2.581C12.98,-2.429 12.896,-2.206 12.896,-1.911C12.896,-1.573 13.019,-1.293 13.266,-1.073C13.513,-0.852 13.823,-0.741 14.196,-0.741Z" style="fill:rgb(115,115,115);fill-rule:nonzero;"/>
                    <path d="M22.242,-6.487C23.759,-6.487 24.517,-5.651 24.517,-3.978L24.517,-0.455C24.517,-0.29 24.472,-0.162 24.381,-0.071C24.29,0.02 24.162,0.065 23.997,0.065C23.832,0.065 23.702,0.02 23.607,-0.071C23.512,-0.162 23.464,-0.29 23.464,-0.455L23.464,-3.913C23.464,-4.502 23.349,-4.931 23.12,-5.2C22.89,-5.469 22.524,-5.603 22.021,-5.603C21.44,-5.603 20.977,-5.425 20.63,-5.07C20.283,-4.715 20.11,-4.234 20.11,-3.627L20.11,-0.455C20.11,-0.29 20.065,-0.162 19.974,-0.071C19.883,0.02 19.755,0.065 19.59,0.065C19.425,0.065 19.295,0.02 19.2,-0.071C19.105,-0.162 19.057,-0.29 19.057,-0.455L19.057,-5.941C19.057,-6.097 19.105,-6.223 19.2,-6.318C19.295,-6.413 19.425,-6.461 19.59,-6.461C19.746,-6.461 19.87,-6.413 19.961,-6.318C20.052,-6.223 20.097,-6.101 20.097,-5.954L20.097,-5.291C20.305,-5.681 20.595,-5.978 20.968,-6.182C21.341,-6.385 21.765,-6.487 22.242,-6.487Z" style="fill:rgb(115,115,115);fill-rule:nonzero;"/>
                    <path d="M29.158,-6.487C30.744,-6.487 31.537,-5.655 31.537,-3.991L31.537,-0.455C31.537,-0.299 31.491,-0.173 31.4,-0.078C31.309,0.017 31.186,0.065 31.03,0.065C30.874,0.065 30.748,0.017 30.653,-0.078C30.557,-0.173 30.51,-0.299 30.51,-0.455L30.51,-1.079C30.345,-0.706 30.094,-0.418 29.756,-0.215C29.418,-0.011 29.028,0.091 28.586,0.091C28.178,0.091 27.804,0.009 27.461,-0.156C27.119,-0.321 26.848,-0.55 26.649,-0.845C26.449,-1.14 26.35,-1.465 26.35,-1.82C26.35,-2.297 26.471,-2.667 26.714,-2.932C26.956,-3.196 27.355,-3.387 27.91,-3.504C28.464,-3.621 29.236,-3.679 30.224,-3.679L30.51,-3.679L30.51,-4.108C30.51,-4.628 30.404,-5.009 30.191,-5.252C29.979,-5.495 29.634,-5.616 29.158,-5.616C28.568,-5.616 27.97,-5.456 27.364,-5.135C27.13,-4.988 26.965,-4.914 26.87,-4.914C26.766,-4.914 26.679,-4.953 26.61,-5.031C26.54,-5.109 26.506,-5.209 26.506,-5.33C26.506,-5.451 26.543,-5.558 26.616,-5.649C26.69,-5.739 26.809,-5.833 26.974,-5.928C27.277,-6.101 27.622,-6.238 28.007,-6.337C28.393,-6.437 28.776,-6.487 29.158,-6.487ZM28.729,-0.741C29.249,-0.741 29.676,-0.917 30.009,-1.268C30.343,-1.619 30.51,-2.071 30.51,-2.626L30.51,-3.003L30.276,-3.003C29.513,-3.003 28.932,-2.971 28.534,-2.906C28.135,-2.841 27.851,-2.732 27.682,-2.581C27.513,-2.429 27.429,-2.206 27.429,-1.911C27.429,-1.573 27.552,-1.293 27.799,-1.073C28.046,-0.852 28.356,-0.741 28.729,-0.741Z" style="fill:rgb(115,115,115);fill-rule:nonzero;"/>
                    <path d="M38.725,-6.461C38.89,-6.461 39.02,-6.413 39.115,-6.318C39.211,-6.223 39.258,-6.097 39.258,-5.941L39.258,-0.429C39.258,0.516 39.016,1.229 38.53,1.71C38.045,2.191 37.326,2.431 36.372,2.431C35.445,2.431 34.674,2.249 34.058,1.885C33.746,1.712 33.59,1.512 33.59,1.287C33.59,1.166 33.623,1.066 33.688,0.988C33.753,0.91 33.837,0.871 33.941,0.871C34.028,0.871 34.184,0.932 34.409,1.053C34.713,1.209 35.012,1.335 35.306,1.43C35.601,1.525 35.952,1.573 36.359,1.573C36.975,1.573 37.438,1.411 37.75,1.086C38.062,0.76 38.218,0.286 38.218,-0.338L38.218,-1.456C38.036,-1.049 37.757,-0.737 37.38,-0.52C37.003,-0.303 36.559,-0.195 36.047,-0.195C35.493,-0.195 35.001,-0.325 34.572,-0.585C34.143,-0.845 33.809,-1.213 33.571,-1.69C33.332,-2.167 33.213,-2.717 33.213,-3.341C33.213,-3.965 33.332,-4.515 33.571,-4.992C33.809,-5.469 34.143,-5.837 34.572,-6.097C35.001,-6.357 35.493,-6.487 36.047,-6.487C36.55,-6.487 36.988,-6.379 37.36,-6.162C37.733,-5.945 38.015,-5.638 38.205,-5.239L38.205,-5.941C38.205,-6.097 38.251,-6.223 38.342,-6.318C38.433,-6.413 38.561,-6.461 38.725,-6.461ZM36.255,-1.066C36.862,-1.066 37.339,-1.267 37.685,-1.671C38.032,-2.074 38.205,-2.63 38.205,-3.341C38.205,-4.043 38.034,-4.595 37.692,-4.999C37.349,-5.401 36.871,-5.603 36.255,-5.603C35.64,-5.603 35.157,-5.401 34.806,-4.999C34.455,-4.595 34.279,-4.043 34.279,-3.341C34.279,-2.63 34.455,-2.074 34.806,-1.671C35.157,-1.267 35.64,-1.066 36.255,-1.066Z" style="fill:rgb(115,115,115);fill-rule:nonzero;"/>
                    <path d="M46.239,-1.469C46.334,-1.469 46.417,-1.43 46.486,-1.352C46.555,-1.274 46.59,-1.174 46.59,-1.053C46.59,-0.836 46.438,-0.637 46.135,-0.455C45.823,-0.273 45.494,-0.137 45.147,-0.046C44.8,0.046 44.462,0.091 44.133,0.091C43.154,0.091 42.38,-0.199 41.812,-0.78C41.245,-1.361 40.961,-2.162 40.961,-3.185C40.961,-3.835 41.087,-4.409 41.338,-4.908C41.589,-5.406 41.942,-5.794 42.397,-6.071C42.852,-6.348 43.37,-6.487 43.951,-6.487C44.774,-6.487 45.429,-6.218 45.914,-5.681C46.399,-5.144 46.642,-4.416 46.642,-3.497C46.642,-3.324 46.607,-3.198 46.538,-3.12C46.469,-3.042 46.356,-3.003 46.2,-3.003L42.014,-3.003C42.092,-1.512 42.798,-0.767 44.133,-0.767C44.471,-0.767 44.761,-0.813 45.004,-0.904C45.247,-0.994 45.507,-1.118 45.784,-1.274C46.009,-1.404 46.161,-1.469 46.239,-1.469ZM43.964,-5.668C43.409,-5.668 42.965,-5.495 42.631,-5.148C42.298,-4.801 42.101,-4.312 42.04,-3.679L45.719,-3.679C45.702,-4.32 45.541,-4.812 45.238,-5.155C44.935,-5.497 44.51,-5.668 43.964,-5.668Z" style="fill:rgb(115,115,115);fill-rule:nonzero;"/>
                    <path d="M55.364,-6.487C56.768,-6.487 57.47,-5.651 57.47,-3.978L57.47,-0.455C57.47,-0.29 57.423,-0.162 57.327,-0.071C57.232,0.02 57.106,0.065 56.95,0.065C56.794,0.065 56.667,0.02 56.567,-0.071C56.467,-0.162 56.417,-0.29 56.417,-0.455L56.417,-3.952C56.417,-4.533 56.313,-4.953 56.105,-5.213C55.897,-5.473 55.572,-5.603 55.13,-5.603C54.602,-5.603 54.186,-5.425 53.882,-5.07C53.579,-4.715 53.427,-4.234 53.427,-3.627L53.427,-0.455C53.427,-0.29 53.378,-0.162 53.278,-0.071C53.178,0.02 53.05,0.065 52.894,0.065C52.738,0.065 52.613,0.02 52.517,-0.071C52.422,-0.162 52.374,-0.29 52.374,-0.455L52.374,-3.952C52.374,-4.533 52.27,-4.953 52.062,-5.213C51.854,-5.473 51.525,-5.603 51.074,-5.603C50.554,-5.603 50.141,-5.425 49.833,-5.07C49.525,-4.715 49.371,-4.234 49.371,-3.627L49.371,-0.455C49.371,-0.29 49.324,-0.162 49.228,-0.071C49.133,0.02 49.007,0.065 48.851,0.065C48.695,0.065 48.568,0.02 48.468,-0.071C48.368,-0.162 48.318,-0.29 48.318,-0.455L48.318,-5.941C48.318,-6.097 48.368,-6.223 48.468,-6.318C48.568,-6.413 48.695,-6.461 48.851,-6.461C48.999,-6.461 49.12,-6.416 49.215,-6.324C49.311,-6.234 49.358,-6.11 49.358,-5.954L49.358,-5.33C49.549,-5.703 49.813,-5.989 50.151,-6.188C50.489,-6.387 50.879,-6.487 51.321,-6.487C52.309,-6.487 52.955,-6.071 53.258,-5.239C53.44,-5.62 53.718,-5.924 54.09,-6.149C54.463,-6.374 54.888,-6.487 55.364,-6.487Z" style="fill:rgb(115,115,115);fill-rule:nonzero;"/>
                    <path d="M64.425,-1.469C64.52,-1.469 64.603,-1.43 64.672,-1.352C64.741,-1.274 64.776,-1.174 64.776,-1.053C64.776,-0.836 64.624,-0.637 64.321,-0.455C64.009,-0.273 63.68,-0.137 63.333,-0.046C62.986,0.046 62.648,0.091 62.319,0.091C61.34,0.091 60.566,-0.199 59.998,-0.78C59.431,-1.361 59.147,-2.162 59.147,-3.185C59.147,-3.835 59.273,-4.409 59.524,-4.908C59.775,-5.406 60.128,-5.794 60.583,-6.071C61.038,-6.348 61.556,-6.487 62.137,-6.487C62.96,-6.487 63.615,-6.218 64.1,-5.681C64.585,-5.144 64.828,-4.416 64.828,-3.497C64.828,-3.324 64.793,-3.198 64.724,-3.12C64.655,-3.042 64.542,-3.003 64.386,-3.003L60.2,-3.003C60.278,-1.512 60.984,-0.767 62.319,-0.767C62.657,-0.767 62.947,-0.813 63.19,-0.904C63.433,-0.994 63.693,-1.118 63.97,-1.274C64.195,-1.404 64.347,-1.469 64.425,-1.469ZM62.15,-5.668C61.595,-5.668 61.151,-5.495 60.817,-5.148C60.484,-4.801 60.287,-4.312 60.226,-3.679L63.905,-3.679C63.888,-4.32 63.727,-4.812 63.424,-5.155C63.121,-5.497 62.696,-5.668 62.15,-5.668Z" style="fill:rgb(115,115,115);fill-rule:nonzero;"/>
                    <path d="M69.69,-6.487C71.206,-6.487 71.965,-5.651 71.965,-3.978L71.965,-0.455C71.965,-0.29 71.919,-0.162 71.828,-0.071C71.737,0.02 71.609,0.065 71.445,0.065C71.28,0.065 71.15,0.02 71.055,-0.071C70.959,-0.162 70.912,-0.29 70.912,-0.455L70.912,-3.913C70.912,-4.502 70.797,-4.931 70.567,-5.2C70.337,-5.469 69.971,-5.603 69.469,-5.603C68.888,-5.603 68.424,-5.425 68.078,-5.07C67.731,-4.715 67.558,-4.234 67.558,-3.627L67.558,-0.455C67.558,-0.29 67.512,-0.162 67.421,-0.071C67.33,0.02 67.202,0.065 67.038,0.065C66.873,0.065 66.743,0.02 66.648,-0.071C66.552,-0.162 66.505,-0.29 66.505,-0.455L66.505,-5.941C66.505,-6.097 66.552,-6.223 66.648,-6.318C66.743,-6.413 66.873,-6.461 67.038,-6.461C67.194,-6.461 67.317,-6.413 67.408,-6.318C67.499,-6.223 67.545,-6.101 67.545,-5.954L67.545,-5.291C67.753,-5.681 68.043,-5.978 68.416,-6.182C68.788,-6.385 69.213,-6.487 69.69,-6.487Z" style="fill:rgb(115,115,115);fill-rule:nonzero;"/>
                    <path d="M76.943,-0.767C77.246,-0.741 77.398,-0.602 77.398,-0.351C77.398,-0.204 77.344,-0.093 77.236,-0.02C77.127,0.054 76.965,0.082 76.748,0.065L76.397,0.039C75.704,-0.013 75.192,-0.221 74.863,-0.585C74.534,-0.949 74.369,-1.499 74.369,-2.236L74.369,-5.499L73.498,-5.499C73.351,-5.499 73.236,-5.536 73.154,-5.61C73.071,-5.683 73.03,-5.781 73.03,-5.902C73.03,-6.032 73.071,-6.136 73.154,-6.214C73.236,-6.292 73.351,-6.331 73.498,-6.331L74.369,-6.331L74.369,-7.8C74.369,-7.965 74.417,-8.093 74.512,-8.184C74.607,-8.275 74.737,-8.32 74.902,-8.32C75.058,-8.32 75.184,-8.275 75.279,-8.184C75.374,-8.093 75.422,-7.965 75.422,-7.8L75.422,-6.331L76.865,-6.331C77.004,-6.331 77.114,-6.292 77.197,-6.214C77.279,-6.136 77.32,-6.032 77.32,-5.902C77.32,-5.781 77.279,-5.683 77.197,-5.61C77.114,-5.536 77.004,-5.499 76.865,-5.499L75.422,-5.499L75.422,-2.184C75.422,-1.707 75.52,-1.363 75.715,-1.15C75.91,-0.938 76.202,-0.819 76.592,-0.793L76.943,-0.767Z" style="fill:rgb(115,115,115);fill-rule:nonzero;"/>
                </g>
            </g>
        </g>
    </g>
</svg>
