<?xml version="1.0" encoding="UTF-8" standalone="no"?>
<!DOCTYPE svg PUBLIC "-//W3C//DTD SVG 1.1//EN" "http://www.w3.org/Graphics/SVG/1.1/DTD/svg11.dtd">
<svg width="100%" height="100%" viewBox="0 0 297 14" version="1.1" xmlns="http://www.w3.org/2000/svg" xmlns:xlink="http://www.w3.org/1999/xlink" xml:space="preserve" xmlns:serif="http://www.serif.com/" style="fill-rule:evenodd;clip-rule:evenodd;stroke-linejoin:round;stroke-miterlimit:1.41421;">
    <g transform="matrix(1,0,0,1,-405,-668)">
        <g transform="matrix(1,0,0,1,309.738,521.32)">
            <path d="M107.432,159.19C107.48,159.286 107.504,159.388 107.504,159.496C107.504,159.676 107.435,159.826 107.297,159.946C107.159,160.066 106.994,160.126 106.802,160.126C106.502,160.126 106.292,159.982 106.172,159.694L104.894,156.778L98.108,156.778L96.812,159.694C96.692,159.982 96.482,160.126 96.182,160.126C95.99,160.126 95.822,160.063 95.678,159.937C95.534,159.811 95.462,159.658 95.462,159.478C95.462,159.382 95.486,159.286 95.534,159.19L100.682,147.742C100.754,147.574 100.862,147.448 101.006,147.364C101.15,147.28 101.306,147.238 101.474,147.238C101.654,147.238 101.816,147.283 101.96,147.373C102.104,147.463 102.212,147.586 102.284,147.742L107.432,159.19ZM98.648,155.554L104.354,155.554L101.492,149.092L98.648,155.554Z" style="fill:rgb(99,101,106);fill-rule:nonzero;"/>
            <path d="M112.994,160.162C112.178,160.162 111.455,159.976 110.825,159.604C110.195,159.232 109.709,158.704 109.367,158.02C109.025,157.336 108.854,156.544 108.854,155.644C108.854,154.744 109.031,153.946 109.385,153.25C109.739,152.554 110.234,152.014 110.87,151.63C111.506,151.246 112.238,151.054 113.066,151.054C113.522,151.054 113.975,151.117 114.425,151.243C114.875,151.369 115.268,151.552 115.604,151.792C115.82,151.936 115.973,152.077 116.063,152.215C116.153,152.353 116.198,152.506 116.198,152.674C116.198,152.842 116.153,152.98 116.063,153.088C115.973,153.196 115.856,153.25 115.712,153.25C115.628,153.25 115.538,153.226 115.442,153.178C115.346,153.13 115.265,153.082 115.199,153.034C115.133,152.986 115.088,152.956 115.064,152.944C114.752,152.74 114.455,152.578 114.173,152.458C113.891,152.338 113.546,152.278 113.138,152.278C112.262,152.278 111.581,152.575 111.095,153.169C110.609,153.763 110.366,154.588 110.366,155.644C110.366,156.7 110.609,157.516 111.095,158.092C111.581,158.668 112.262,158.956 113.138,158.956C113.546,158.956 113.897,158.896 114.191,158.776C114.485,158.656 114.782,158.494 115.082,158.29C115.214,158.206 115.34,158.134 115.46,158.074C115.58,158.014 115.682,157.984 115.766,157.984C115.898,157.984 116.009,158.038 116.099,158.146C116.189,158.254 116.234,158.392 116.234,158.56C116.234,158.716 116.192,158.857 116.108,158.983C116.024,159.109 115.868,159.25 115.64,159.406C115.304,159.634 114.899,159.817 114.425,159.955C113.951,160.093 113.474,160.162 112.994,160.162Z" style="fill:rgb(99,101,106);fill-rule:nonzero;"/>
            <path d="M121.616,160.162C120.8,160.162 120.077,159.976 119.447,159.604C118.817,159.232 118.331,158.704 117.989,158.02C117.647,157.336 117.476,156.544 117.476,155.644C117.476,154.744 117.653,153.946 118.007,153.25C118.361,152.554 118.856,152.014 119.492,151.63C120.128,151.246 120.86,151.054 121.688,151.054C122.144,151.054 122.597,151.117 123.047,151.243C123.497,151.369 123.89,151.552 124.226,151.792C124.442,151.936 124.595,152.077 124.685,152.215C124.775,152.353 124.82,152.506 124.82,152.674C124.82,152.842 124.775,152.98 124.685,153.088C124.595,153.196 124.478,153.25 124.334,153.25C124.25,153.25 124.16,153.226 124.064,153.178C123.968,153.13 123.887,153.082 123.821,153.034C123.755,152.986 123.71,152.956 123.686,152.944C123.374,152.74 123.077,152.578 122.795,152.458C122.513,152.338 122.168,152.278 121.76,152.278C120.884,152.278 120.203,152.575 119.717,153.169C119.231,153.763 118.988,154.588 118.988,155.644C118.988,156.7 119.231,157.516 119.717,158.092C120.203,158.668 120.884,158.956 121.76,158.956C122.168,158.956 122.519,158.896 122.813,158.776C123.107,158.656 123.404,158.494 123.704,158.29C123.836,158.206 123.962,158.134 124.082,158.074C124.202,158.014 124.304,157.984 124.388,157.984C124.52,157.984 124.631,158.038 124.721,158.146C124.811,158.254 124.856,158.392 124.856,158.56C124.856,158.716 124.814,158.857 124.73,158.983C124.646,159.109 124.49,159.25 124.262,159.406C123.926,159.634 123.521,159.817 123.047,159.955C122.573,160.093 122.096,160.162 121.616,160.162Z" style="fill:rgb(99,101,106);fill-rule:nonzero;"/>
            <path d="M133.406,158.002C133.538,158.002 133.652,158.056 133.748,158.164C133.844,158.272 133.892,158.41 133.892,158.578C133.892,158.878 133.682,159.154 133.262,159.406C132.83,159.658 132.374,159.847 131.894,159.973C131.414,160.099 130.946,160.162 130.49,160.162C129.134,160.162 128.063,159.76 127.277,158.956C126.491,158.152 126.098,157.042 126.098,155.626C126.098,154.726 126.272,153.931 126.62,153.241C126.968,152.551 127.457,152.014 128.087,151.63C128.717,151.246 129.434,151.054 130.238,151.054C131.378,151.054 132.284,151.426 132.956,152.17C133.628,152.914 133.964,153.922 133.964,155.194C133.964,155.434 133.916,155.608 133.82,155.716C133.724,155.824 133.568,155.878 133.352,155.878L127.556,155.878C127.664,157.942 128.642,158.974 130.49,158.974C130.958,158.974 131.36,158.911 131.696,158.785C132.032,158.659 132.392,158.488 132.776,158.272C133.088,158.092 133.298,158.002 133.406,158.002ZM130.256,152.188C129.488,152.188 128.873,152.428 128.411,152.908C127.949,153.388 127.676,154.066 127.592,154.942L132.686,154.942C132.662,154.054 132.44,153.373 132.02,152.899C131.6,152.425 131.012,152.188 130.256,152.188Z" style="fill:rgb(99,101,106);fill-rule:nonzero;"/>
            <path d="M139.058,160.162C138.506,160.162 137.981,160.096 137.483,159.964C136.985,159.832 136.544,159.646 136.16,159.406C135.944,159.262 135.791,159.127 135.701,159.001C135.611,158.875 135.566,158.722 135.566,158.542C135.566,158.386 135.611,158.257 135.701,158.155C135.791,158.053 135.908,158.002 136.052,158.002C136.196,158.002 136.406,158.092 136.682,158.272C137.042,158.488 137.399,158.659 137.753,158.785C138.107,158.911 138.548,158.974 139.076,158.974C139.724,158.974 140.228,158.86 140.588,158.632C140.948,158.404 141.128,158.074 141.128,157.642C141.128,157.378 141.062,157.165 140.93,157.003C140.798,156.841 140.57,156.697 140.246,156.571C139.922,156.445 139.448,156.316 138.824,156.184C137.768,155.956 137.012,155.65 136.556,155.266C136.1,154.882 135.872,154.36 135.872,153.7C135.872,153.184 136.016,152.728 136.304,152.332C136.592,151.936 136.991,151.624 137.501,151.396C138.011,151.168 138.59,151.054 139.238,151.054C139.706,151.054 140.159,151.117 140.597,151.243C141.035,151.369 141.422,151.546 141.758,151.774C142.166,152.062 142.37,152.362 142.37,152.674C142.37,152.83 142.322,152.962 142.226,153.07C142.13,153.178 142.016,153.232 141.884,153.232C141.74,153.232 141.524,153.13 141.236,152.926C140.9,152.71 140.582,152.542 140.282,152.422C139.982,152.302 139.61,152.242 139.166,152.242C138.602,152.242 138.149,152.368 137.807,152.62C137.465,152.872 137.294,153.208 137.294,153.628C137.294,153.892 137.357,154.105 137.483,154.267C137.609,154.429 137.819,154.573 138.113,154.699C138.407,154.825 138.83,154.948 139.382,155.068C140.198,155.248 140.831,155.446 141.281,155.662C141.731,155.878 142.052,156.142 142.244,156.454C142.436,156.766 142.532,157.162 142.532,157.642C142.532,158.398 142.214,159.007 141.578,159.469C140.942,159.931 140.102,160.162 139.058,160.162Z" style="fill:rgb(99,101,106);fill-rule:nonzero;"/>
            <path d="M147.698,160.162C147.146,160.162 146.621,160.096 146.123,159.964C145.625,159.832 145.184,159.646 144.8,159.406C144.584,159.262 144.431,159.127 144.341,159.001C144.251,158.875 144.206,158.722 144.206,158.542C144.206,158.386 144.251,158.257 144.341,158.155C144.431,158.053 144.548,158.002 144.692,158.002C144.836,158.002 145.046,158.092 145.322,158.272C145.682,158.488 146.039,158.659 146.393,158.785C146.747,158.911 147.188,158.974 147.716,158.974C148.364,158.974 148.868,158.86 149.228,158.632C149.588,158.404 149.768,158.074 149.768,157.642C149.768,157.378 149.702,157.165 149.57,157.003C149.438,156.841 149.21,156.697 148.886,156.571C148.562,156.445 148.088,156.316 147.464,156.184C146.408,155.956 145.652,155.65 145.196,155.266C144.74,154.882 144.512,154.36 144.512,153.7C144.512,153.184 144.656,152.728 144.944,152.332C145.232,151.936 145.631,151.624 146.141,151.396C146.651,151.168 147.23,151.054 147.878,151.054C148.346,151.054 148.799,151.117 149.237,151.243C149.675,151.369 150.062,151.546 150.398,151.774C150.806,152.062 151.01,152.362 151.01,152.674C151.01,152.83 150.962,152.962 150.866,153.07C150.77,153.178 150.656,153.232 150.524,153.232C150.38,153.232 150.164,153.13 149.876,152.926C149.54,152.71 149.222,152.542 148.922,152.422C148.622,152.302 148.25,152.242 147.806,152.242C147.242,152.242 146.789,152.368 146.447,152.62C146.105,152.872 145.934,153.208 145.934,153.628C145.934,153.892 145.997,154.105 146.123,154.267C146.249,154.429 146.459,154.573 146.753,154.699C147.047,154.825 147.47,154.948 148.022,155.068C148.838,155.248 149.471,155.446 149.921,155.662C150.371,155.878 150.692,156.142 150.884,156.454C151.076,156.766 151.172,157.162 151.172,157.642C151.172,158.398 150.854,159.007 150.218,159.469C149.582,159.931 148.742,160.162 147.698,160.162Z" style="fill:rgb(99,101,106);fill-rule:nonzero;"/>
            <path d="M158.768,160.126C158.552,160.126 158.375,160.063 158.237,159.937C158.099,159.811 158.03,159.634 158.03,159.406L158.03,151.81C158.03,151.582 158.099,151.405 158.237,151.279C158.375,151.153 158.552,151.09 158.768,151.09C158.984,151.09 159.158,151.153 159.29,151.279C159.422,151.405 159.488,151.582 159.488,151.81L159.488,159.406C159.488,159.646 159.422,159.826 159.29,159.946C159.158,160.066 158.984,160.126 158.768,160.126ZM158.768,149.2C158.48,149.2 158.246,149.116 158.066,148.948C157.886,148.78 157.796,148.558 157.796,148.282C157.796,148.018 157.886,147.802 158.066,147.634C158.246,147.466 158.48,147.382 158.768,147.382C159.056,147.382 159.29,147.466 159.47,147.634C159.65,147.802 159.74,148.018 159.74,148.282C159.74,148.558 159.65,148.78 159.47,148.948C159.29,149.116 159.056,149.2 158.768,149.2Z" style="fill:rgb(99,101,106);fill-rule:nonzero;"/>
            <path d="M165.158,160.162C164.606,160.162 164.081,160.096 163.583,159.964C163.085,159.832 162.644,159.646 162.26,159.406C162.044,159.262 161.891,159.127 161.801,159.001C161.711,158.875 161.666,158.722 161.666,158.542C161.666,158.386 161.711,158.257 161.801,158.155C161.891,158.053 162.008,158.002 162.152,158.002C162.296,158.002 162.506,158.092 162.782,158.272C163.142,158.488 163.499,158.659 163.853,158.785C164.207,158.911 164.648,158.974 165.176,158.974C165.824,158.974 166.328,158.86 166.688,158.632C167.048,158.404 167.228,158.074 167.228,157.642C167.228,157.378 167.162,157.165 167.03,157.003C166.898,156.841 166.67,156.697 166.346,156.571C166.022,156.445 165.548,156.316 164.924,156.184C163.868,155.956 163.112,155.65 162.656,155.266C162.2,154.882 161.972,154.36 161.972,153.7C161.972,153.184 162.116,152.728 162.404,152.332C162.692,151.936 163.091,151.624 163.601,151.396C164.111,151.168 164.69,151.054 165.338,151.054C165.806,151.054 166.259,151.117 166.697,151.243C167.135,151.369 167.522,151.546 167.858,151.774C168.266,152.062 168.47,152.362 168.47,152.674C168.47,152.83 168.422,152.962 168.326,153.07C168.23,153.178 168.116,153.232 167.984,153.232C167.84,153.232 167.624,153.13 167.336,152.926C167,152.71 166.682,152.542 166.382,152.422C166.082,152.302 165.71,152.242 165.266,152.242C164.702,152.242 164.249,152.368 163.907,152.62C163.565,152.872 163.394,153.208 163.394,153.628C163.394,153.892 163.457,154.105 163.583,154.267C163.709,154.429 163.919,154.573 164.213,154.699C164.507,154.825 164.93,154.948 165.482,155.068C166.298,155.248 166.931,155.446 167.381,155.662C167.831,155.878 168.152,156.142 168.344,156.454C168.536,156.766 168.632,157.162 168.632,157.642C168.632,158.398 168.314,159.007 167.678,159.469C167.042,159.931 166.202,160.162 165.158,160.162Z" style="fill:rgb(99,101,106);fill-rule:nonzero;"/>
            <path d="M182.528,147.256C182.756,147.256 182.936,147.322 183.068,147.454C183.2,147.586 183.266,147.754 183.266,147.958L183.266,159.406C183.266,159.622 183.2,159.796 183.068,159.928C182.936,160.06 182.756,160.126 182.528,160.126C182.3,160.126 182.123,160.06 181.997,159.928C181.871,159.796 181.808,159.622 181.808,159.406L181.808,158.434C181.544,158.986 181.157,159.412 180.647,159.712C180.137,160.012 179.54,160.162 178.856,160.162C178.088,160.162 177.41,159.97 176.822,159.586C176.234,159.202 175.778,158.665 175.454,157.975C175.13,157.285 174.968,156.484 174.968,155.572C174.968,154.672 175.13,153.88 175.454,153.196C175.778,152.512 176.234,151.984 176.822,151.612C177.41,151.24 178.088,151.054 178.856,151.054C179.54,151.054 180.137,151.204 180.647,151.504C181.157,151.804 181.544,152.23 181.808,152.782L181.808,147.958C181.808,147.742 181.871,147.571 181.997,147.445C182.123,147.319 182.3,147.256 182.528,147.256ZM179.144,158.956C179.996,158.956 180.653,158.665 181.115,158.083C181.577,157.501 181.808,156.676 181.808,155.608C181.808,154.54 181.577,153.718 181.115,153.142C180.653,152.566 179.996,152.278 179.144,152.278C178.292,152.278 177.629,152.566 177.155,153.142C176.681,153.718 176.444,154.528 176.444,155.572C176.444,156.64 176.681,157.471 177.155,158.065C177.629,158.659 178.292,158.956 179.144,158.956Z" style="fill:rgb(99,101,106);fill-rule:nonzero;"/>
            <path d="M192.752,158.002C192.884,158.002 192.998,158.056 193.094,158.164C193.19,158.272 193.238,158.41 193.238,158.578C193.238,158.878 193.028,159.154 192.608,159.406C192.176,159.658 191.72,159.847 191.24,159.973C190.76,160.099 190.292,160.162 189.836,160.162C188.48,160.162 187.409,159.76 186.623,158.956C185.837,158.152 185.444,157.042 185.444,155.626C185.444,154.726 185.618,153.931 185.966,153.241C186.314,152.551 186.803,152.014 187.433,151.63C188.063,151.246 188.78,151.054 189.584,151.054C190.724,151.054 191.63,151.426 192.302,152.17C192.974,152.914 193.31,153.922 193.31,155.194C193.31,155.434 193.262,155.608 193.166,155.716C193.07,155.824 192.914,155.878 192.698,155.878L186.902,155.878C187.01,157.942 187.988,158.974 189.836,158.974C190.304,158.974 190.706,158.911 191.042,158.785C191.378,158.659 191.738,158.488 192.122,158.272C192.434,158.092 192.644,158.002 192.752,158.002ZM189.602,152.188C188.834,152.188 188.219,152.428 187.757,152.908C187.295,153.388 187.022,154.066 186.938,154.942L192.032,154.942C192.008,154.054 191.786,153.373 191.366,152.899C190.946,152.425 190.358,152.188 189.602,152.188Z" style="fill:rgb(99,101,106);fill-rule:nonzero;"/>
            <path d="M199.862,151.054C201.962,151.054 203.012,152.212 203.012,154.528L203.012,159.406C203.012,159.634 202.949,159.811 202.823,159.937C202.697,160.063 202.52,160.126 202.292,160.126C202.064,160.126 201.884,160.063 201.752,159.937C201.62,159.811 201.554,159.634 201.554,159.406L201.554,154.618C201.554,153.802 201.395,153.208 201.077,152.836C200.759,152.464 200.252,152.278 199.556,152.278C198.752,152.278 198.11,152.524 197.63,153.016C197.15,153.508 196.91,154.174 196.91,155.014L196.91,159.406C196.91,159.634 196.847,159.811 196.721,159.937C196.595,160.063 196.418,160.126 196.19,160.126C195.962,160.126 195.782,160.063 195.65,159.937C195.518,159.811 195.452,159.634 195.452,159.406L195.452,151.81C195.452,151.594 195.518,151.42 195.65,151.288C195.782,151.156 195.962,151.09 196.19,151.09C196.406,151.09 196.577,151.156 196.703,151.288C196.829,151.42 196.892,151.588 196.892,151.792L196.892,152.71C197.18,152.17 197.582,151.759 198.098,151.477C198.614,151.195 199.202,151.054 199.862,151.054Z" style="fill:rgb(99,101,106);fill-rule:nonzero;"/>
            <path d="M206.414,160.126C206.198,160.126 206.021,160.063 205.883,159.937C205.745,159.811 205.676,159.634 205.676,159.406L205.676,151.81C205.676,151.582 205.745,151.405 205.883,151.279C206.021,151.153 206.198,151.09 206.414,151.09C206.63,151.09 206.804,151.153 206.936,151.279C207.068,151.405 207.134,151.582 207.134,151.81L207.134,159.406C207.134,159.646 207.068,159.826 206.936,159.946C206.804,160.066 206.63,160.126 206.414,160.126ZM206.414,149.2C206.126,149.2 205.892,149.116 205.712,148.948C205.532,148.78 205.442,148.558 205.442,148.282C205.442,148.018 205.532,147.802 205.712,147.634C205.892,147.466 206.126,147.382 206.414,147.382C206.702,147.382 206.936,147.466 207.116,147.634C207.296,147.802 207.386,148.018 207.386,148.282C207.386,148.558 207.296,148.78 207.116,148.948C206.936,149.116 206.702,149.2 206.414,149.2Z" style="fill:rgb(99,101,106);fill-rule:nonzero;"/>
            <path d="M216.638,158.002C216.77,158.002 216.884,158.056 216.98,158.164C217.076,158.272 217.124,158.41 217.124,158.578C217.124,158.878 216.914,159.154 216.494,159.406C216.062,159.658 215.606,159.847 215.126,159.973C214.646,160.099 214.178,160.162 213.722,160.162C212.366,160.162 211.295,159.76 210.509,158.956C209.723,158.152 209.33,157.042 209.33,155.626C209.33,154.726 209.504,153.931 209.852,153.241C210.2,152.551 210.689,152.014 211.319,151.63C211.949,151.246 212.666,151.054 213.47,151.054C214.61,151.054 215.516,151.426 216.188,152.17C216.86,152.914 217.196,153.922 217.196,155.194C217.196,155.434 217.148,155.608 217.052,155.716C216.956,155.824 216.8,155.878 216.584,155.878L210.788,155.878C210.896,157.942 211.874,158.974 213.722,158.974C214.19,158.974 214.592,158.911 214.928,158.785C215.264,158.659 215.624,158.488 216.008,158.272C216.32,158.092 216.53,158.002 216.638,158.002ZM213.488,152.188C212.72,152.188 212.105,152.428 211.643,152.908C211.181,153.388 210.908,154.066 210.824,154.942L215.918,154.942C215.894,154.054 215.672,153.373 215.252,152.899C214.832,152.425 214.244,152.188 213.488,152.188Z" style="fill:rgb(99,101,106);fill-rule:nonzero;"/>
            <path d="M226.376,147.256C226.604,147.256 226.784,147.322 226.916,147.454C227.048,147.586 227.114,147.754 227.114,147.958L227.114,159.406C227.114,159.622 227.048,159.796 226.916,159.928C226.784,160.06 226.604,160.126 226.376,160.126C226.148,160.126 225.971,160.06 225.845,159.928C225.719,159.796 225.656,159.622 225.656,159.406L225.656,158.434C225.392,158.986 225.005,159.412 224.495,159.712C223.985,160.012 223.388,160.162 222.704,160.162C221.936,160.162 221.258,159.97 220.67,159.586C220.082,159.202 219.626,158.665 219.302,157.975C218.978,157.285 218.816,156.484 218.816,155.572C218.816,154.672 218.978,153.88 219.302,153.196C219.626,152.512 220.082,151.984 220.67,151.612C221.258,151.24 221.936,151.054 222.704,151.054C223.388,151.054 223.985,151.204 224.495,151.504C225.005,151.804 225.392,152.23 225.656,152.782L225.656,147.958C225.656,147.742 225.719,147.571 225.845,147.445C225.971,147.319 226.148,147.256 226.376,147.256ZM222.992,158.956C223.844,158.956 224.501,158.665 224.963,158.083C225.425,157.501 225.656,156.676 225.656,155.608C225.656,154.54 225.425,153.718 224.963,153.142C224.501,152.566 223.844,152.278 222.992,152.278C222.14,152.278 221.477,152.566 221.003,153.142C220.529,153.718 220.292,154.528 220.292,155.572C220.292,156.64 220.529,157.471 221.003,158.065C221.477,158.659 222.14,158.956 222.992,158.956Z" style="fill:rgb(99,101,106);fill-rule:nonzero;"/>
            <path d="M238.04,151.054C240.236,151.054 241.334,152.206 241.334,154.51L241.334,159.406C241.334,159.622 241.271,159.796 241.145,159.928C241.019,160.06 240.848,160.126 240.632,160.126C240.416,160.126 240.242,160.06 240.11,159.928C239.978,159.796 239.912,159.622 239.912,159.406L239.912,158.542C239.684,159.058 239.336,159.457 238.868,159.739C238.4,160.021 237.86,160.162 237.248,160.162C236.684,160.162 236.165,160.048 235.691,159.82C235.217,159.592 234.842,159.274 234.566,158.866C234.29,158.458 234.152,158.008 234.152,157.516C234.152,156.856 234.32,156.343 234.656,155.977C234.992,155.611 235.544,155.347 236.312,155.185C237.08,155.023 238.148,154.942 239.516,154.942L239.912,154.942L239.912,154.348C239.912,153.628 239.765,153.1 239.471,152.764C239.177,152.428 238.7,152.26 238.04,152.26C237.224,152.26 236.396,152.482 235.556,152.926C235.232,153.13 235.004,153.232 234.872,153.232C234.728,153.232 234.608,153.178 234.512,153.07C234.416,152.962 234.368,152.824 234.368,152.656C234.368,152.488 234.419,152.341 234.521,152.215C234.623,152.089 234.788,151.96 235.016,151.828C235.436,151.588 235.913,151.399 236.447,151.261C236.981,151.123 237.512,151.054 238.04,151.054ZM237.446,159.01C238.166,159.01 238.757,158.767 239.219,158.281C239.681,157.795 239.912,157.168 239.912,156.4L239.912,155.878L239.588,155.878C238.532,155.878 237.728,155.923 237.176,156.013C236.624,156.103 236.231,156.253 235.997,156.463C235.763,156.673 235.646,156.982 235.646,157.39C235.646,157.858 235.817,158.245 236.159,158.551C236.501,158.857 236.93,159.01 237.446,159.01Z" style="fill:rgb(99,101,106);fill-rule:nonzero;"/>
            <path d="M248.408,151.054C250.508,151.054 251.558,152.212 251.558,154.528L251.558,159.406C251.558,159.634 251.495,159.811 251.369,159.937C251.243,160.063 251.066,160.126 250.838,160.126C250.61,160.126 250.43,160.063 250.298,159.937C250.166,159.811 250.1,159.634 250.1,159.406L250.1,154.618C250.1,153.802 249.941,153.208 249.623,152.836C249.305,152.464 248.798,152.278 248.102,152.278C247.298,152.278 246.656,152.524 246.176,153.016C245.696,153.508 245.456,154.174 245.456,155.014L245.456,159.406C245.456,159.634 245.393,159.811 245.267,159.937C245.141,160.063 244.964,160.126 244.736,160.126C244.508,160.126 244.328,160.063 244.196,159.937C244.064,159.811 243.998,159.634 243.998,159.406L243.998,151.81C243.998,151.594 244.064,151.42 244.196,151.288C244.328,151.156 244.508,151.09 244.736,151.09C244.952,151.09 245.123,151.156 245.249,151.288C245.375,151.42 245.438,151.588 245.438,151.792L245.438,152.71C245.726,152.17 246.128,151.759 246.644,151.477C247.16,151.195 247.748,151.054 248.408,151.054Z" style="fill:rgb(99,101,106);fill-rule:nonzero;"/>
            <path d="M261.26,147.256C261.488,147.256 261.668,147.322 261.8,147.454C261.932,147.586 261.998,147.754 261.998,147.958L261.998,159.406C261.998,159.622 261.932,159.796 261.8,159.928C261.668,160.06 261.488,160.126 261.26,160.126C261.032,160.126 260.855,160.06 260.729,159.928C260.603,159.796 260.54,159.622 260.54,159.406L260.54,158.434C260.276,158.986 259.889,159.412 259.379,159.712C258.869,160.012 258.272,160.162 257.588,160.162C256.82,160.162 256.142,159.97 255.554,159.586C254.966,159.202 254.51,158.665 254.186,157.975C253.862,157.285 253.7,156.484 253.7,155.572C253.7,154.672 253.862,153.88 254.186,153.196C254.51,152.512 254.966,151.984 255.554,151.612C256.142,151.24 256.82,151.054 257.588,151.054C258.272,151.054 258.869,151.204 259.379,151.504C259.889,151.804 260.276,152.23 260.54,152.782L260.54,147.958C260.54,147.742 260.603,147.571 260.729,147.445C260.855,147.319 261.032,147.256 261.26,147.256ZM257.876,158.956C258.728,158.956 259.385,158.665 259.847,158.083C260.309,157.501 260.54,156.676 260.54,155.608C260.54,154.54 260.309,153.718 259.847,153.142C259.385,152.566 258.728,152.278 257.876,152.278C257.024,152.278 256.361,152.566 255.887,153.142C255.413,153.718 255.176,154.528 255.176,155.572C255.176,156.64 255.413,157.471 255.887,158.065C256.361,158.659 257.024,158.956 257.876,158.956Z" style="fill:rgb(99,101,106);fill-rule:nonzero;"/>
            <path d="M272.96,160.162C272.144,160.162 271.421,159.976 270.791,159.604C270.161,159.232 269.675,158.704 269.333,158.02C268.991,157.336 268.82,156.544 268.82,155.644C268.82,154.744 268.997,153.946 269.351,153.25C269.705,152.554 270.2,152.014 270.836,151.63C271.472,151.246 272.204,151.054 273.032,151.054C273.488,151.054 273.941,151.117 274.391,151.243C274.841,151.369 275.234,151.552 275.57,151.792C275.786,151.936 275.939,152.077 276.029,152.215C276.119,152.353 276.164,152.506 276.164,152.674C276.164,152.842 276.119,152.98 276.029,153.088C275.939,153.196 275.822,153.25 275.678,153.25C275.594,153.25 275.504,153.226 275.408,153.178C275.312,153.13 275.231,153.082 275.165,153.034C275.099,152.986 275.054,152.956 275.03,152.944C274.718,152.74 274.421,152.578 274.139,152.458C273.857,152.338 273.512,152.278 273.104,152.278C272.228,152.278 271.547,152.575 271.061,153.169C270.575,153.763 270.332,154.588 270.332,155.644C270.332,156.7 270.575,157.516 271.061,158.092C271.547,158.668 272.228,158.956 273.104,158.956C273.512,158.956 273.863,158.896 274.157,158.776C274.451,158.656 274.748,158.494 275.048,158.29C275.18,158.206 275.306,158.134 275.426,158.074C275.546,158.014 275.648,157.984 275.732,157.984C275.864,157.984 275.975,158.038 276.065,158.146C276.155,158.254 276.2,158.392 276.2,158.56C276.2,158.716 276.158,158.857 276.074,158.983C275.99,159.109 275.834,159.25 275.606,159.406C275.27,159.634 274.865,159.817 274.391,159.955C273.917,160.093 273.44,160.162 272.96,160.162Z" style="fill:rgb(99,101,106);fill-rule:nonzero;"/>
            <path d="M278.702,160.126C278.486,160.126 278.309,160.063 278.171,159.937C278.033,159.811 277.964,159.634 277.964,159.406L277.964,147.976C277.964,147.748 278.033,147.571 278.171,147.445C278.309,147.319 278.486,147.256 278.702,147.256C278.906,147.256 279.077,147.319 279.215,147.445C279.353,147.571 279.422,147.748 279.422,147.976L279.422,159.406C279.422,159.634 279.353,159.811 279.215,159.937C279.077,160.063 278.906,160.126 278.702,160.126Z" style="fill:rgb(99,101,106);fill-rule:nonzero;"/>
            <path d="M282.878,160.126C282.662,160.126 282.485,160.063 282.347,159.937C282.209,159.811 282.14,159.634 282.14,159.406L282.14,151.81C282.14,151.582 282.209,151.405 282.347,151.279C282.485,151.153 282.662,151.09 282.878,151.09C283.094,151.09 283.268,151.153 283.4,151.279C283.532,151.405 283.598,151.582 283.598,151.81L283.598,159.406C283.598,159.646 283.532,159.826 283.4,159.946C283.268,160.066 283.094,160.126 282.878,160.126ZM282.878,149.2C282.59,149.2 282.356,149.116 282.176,148.948C281.996,148.78 281.906,148.558 281.906,148.282C281.906,148.018 281.996,147.802 282.176,147.634C282.356,147.466 282.59,147.382 282.878,147.382C283.166,147.382 283.4,147.466 283.58,147.634C283.76,147.802 283.85,148.018 283.85,148.282C283.85,148.558 283.76,148.78 283.58,148.948C283.4,149.116 283.166,149.2 282.878,149.2Z" style="fill:rgb(99,101,106);fill-rule:nonzero;"/>
            <path d="M293.102,158.002C293.234,158.002 293.348,158.056 293.444,158.164C293.54,158.272 293.588,158.41 293.588,158.578C293.588,158.878 293.378,159.154 292.958,159.406C292.526,159.658 292.07,159.847 291.59,159.973C291.11,160.099 290.642,160.162 290.186,160.162C288.83,160.162 287.759,159.76 286.973,158.956C286.187,158.152 285.794,157.042 285.794,155.626C285.794,154.726 285.968,153.931 286.316,153.241C286.664,152.551 287.153,152.014 287.783,151.63C288.413,151.246 289.13,151.054 289.934,151.054C291.074,151.054 291.98,151.426 292.652,152.17C293.324,152.914 293.66,153.922 293.66,155.194C293.66,155.434 293.612,155.608 293.516,155.716C293.42,155.824 293.264,155.878 293.048,155.878L287.252,155.878C287.36,157.942 288.338,158.974 290.186,158.974C290.654,158.974 291.056,158.911 291.392,158.785C291.728,158.659 292.088,158.488 292.472,158.272C292.784,158.092 292.994,158.002 293.102,158.002ZM289.952,152.188C289.184,152.188 288.569,152.428 288.107,152.908C287.645,153.388 287.372,154.066 287.288,154.942L292.382,154.942C292.358,154.054 292.136,153.373 291.716,152.899C291.296,152.425 290.708,152.188 289.952,152.188Z" style="fill:rgb(99,101,106);fill-rule:nonzero;"/>
            <path d="M300.212,151.054C302.312,151.054 303.362,152.212 303.362,154.528L303.362,159.406C303.362,159.634 303.299,159.811 303.173,159.937C303.047,160.063 302.87,160.126 302.642,160.126C302.414,160.126 302.234,160.063 302.102,159.937C301.97,159.811 301.904,159.634 301.904,159.406L301.904,154.618C301.904,153.802 301.745,153.208 301.427,152.836C301.109,152.464 300.602,152.278 299.906,152.278C299.102,152.278 298.46,152.524 297.98,153.016C297.5,153.508 297.26,154.174 297.26,155.014L297.26,159.406C297.26,159.634 297.197,159.811 297.071,159.937C296.945,160.063 296.768,160.126 296.54,160.126C296.312,160.126 296.132,160.063 296,159.937C295.868,159.811 295.802,159.634 295.802,159.406L295.802,151.81C295.802,151.594 295.868,151.42 296,151.288C296.132,151.156 296.312,151.09 296.54,151.09C296.756,151.09 296.927,151.156 297.053,151.288C297.179,151.42 297.242,151.588 297.242,151.792L297.242,152.71C297.53,152.17 297.932,151.759 298.448,151.477C298.964,151.195 299.552,151.054 300.212,151.054Z" style="fill:rgb(99,101,106);fill-rule:nonzero;"/>
            <path d="M310.076,158.974C310.496,159.01 310.706,159.202 310.706,159.55C310.706,159.754 310.631,159.907 310.481,160.009C310.331,160.111 310.106,160.15 309.806,160.126L309.32,160.09C308.36,160.018 307.652,159.73 307.196,159.226C306.74,158.722 306.512,157.96 306.512,156.94L306.512,152.422L305.306,152.422C305.102,152.422 304.943,152.371 304.829,152.269C304.715,152.167 304.658,152.032 304.658,151.864C304.658,151.684 304.715,151.54 304.829,151.432C304.943,151.324 305.102,151.27 305.306,151.27L306.512,151.27L306.512,149.236C306.512,149.008 306.578,148.831 306.71,148.705C306.842,148.579 307.022,148.516 307.25,148.516C307.466,148.516 307.64,148.579 307.772,148.705C307.904,148.831 307.97,149.008 307.97,149.236L307.97,151.27L309.968,151.27C310.16,151.27 310.313,151.324 310.427,151.432C310.541,151.54 310.598,151.684 310.598,151.864C310.598,152.032 310.541,152.167 310.427,152.269C310.313,152.371 310.16,152.422 309.968,152.422L307.97,152.422L307.97,157.012C307.97,157.672 308.105,158.149 308.375,158.443C308.645,158.737 309.05,158.902 309.59,158.938L310.076,158.974Z" style="fill:rgb(99,101,106);fill-rule:nonzero;"/>
            <path d="M317.528,160.126C317.312,160.126 317.135,160.063 316.997,159.937C316.859,159.811 316.79,159.634 316.79,159.406L316.79,151.81C316.79,151.582 316.859,151.405 316.997,151.279C317.135,151.153 317.312,151.09 317.528,151.09C317.744,151.09 317.918,151.153 318.05,151.279C318.182,151.405 318.248,151.582 318.248,151.81L318.248,159.406C318.248,159.646 318.182,159.826 318.05,159.946C317.918,160.066 317.744,160.126 317.528,160.126ZM317.528,149.2C317.24,149.2 317.006,149.116 316.826,148.948C316.646,148.78 316.556,148.558 316.556,148.282C316.556,148.018 316.646,147.802 316.826,147.634C317.006,147.466 317.24,147.382 317.528,147.382C317.816,147.382 318.05,147.466 318.23,147.634C318.41,147.802 318.5,148.018 318.5,148.282C318.5,148.558 318.41,148.78 318.23,148.948C318.05,149.116 317.816,149.2 317.528,149.2Z" style="fill:rgb(99,101,106);fill-rule:nonzero;"/>
            <path d="M323.918,160.162C323.366,160.162 322.841,160.096 322.343,159.964C321.845,159.832 321.404,159.646 321.02,159.406C320.804,159.262 320.651,159.127 320.561,159.001C320.471,158.875 320.426,158.722 320.426,158.542C320.426,158.386 320.471,158.257 320.561,158.155C320.651,158.053 320.768,158.002 320.912,158.002C321.056,158.002 321.266,158.092 321.542,158.272C321.902,158.488 322.259,158.659 322.613,158.785C322.967,158.911 323.408,158.974 323.936,158.974C324.584,158.974 325.088,158.86 325.448,158.632C325.808,158.404 325.988,158.074 325.988,157.642C325.988,157.378 325.922,157.165 325.79,157.003C325.658,156.841 325.43,156.697 325.106,156.571C324.782,156.445 324.308,156.316 323.684,156.184C322.628,155.956 321.872,155.65 321.416,155.266C320.96,154.882 320.732,154.36 320.732,153.7C320.732,153.184 320.876,152.728 321.164,152.332C321.452,151.936 321.851,151.624 322.361,151.396C322.871,151.168 323.45,151.054 324.098,151.054C324.566,151.054 325.019,151.117 325.457,151.243C325.895,151.369 326.282,151.546 326.618,151.774C327.026,152.062 327.23,152.362 327.23,152.674C327.23,152.83 327.182,152.962 327.086,153.07C326.99,153.178 326.876,153.232 326.744,153.232C326.6,153.232 326.384,153.13 326.096,152.926C325.76,152.71 325.442,152.542 325.142,152.422C324.842,152.302 324.47,152.242 324.026,152.242C323.462,152.242 323.009,152.368 322.667,152.62C322.325,152.872 322.154,153.208 322.154,153.628C322.154,153.892 322.217,154.105 322.343,154.267C322.469,154.429 322.679,154.573 322.973,154.699C323.267,154.825 323.69,154.948 324.242,155.068C325.058,155.248 325.691,155.446 326.141,155.662C326.591,155.878 326.912,156.142 327.104,156.454C327.296,156.766 327.392,157.162 327.392,157.642C327.392,158.398 327.074,159.007 326.438,159.469C325.802,159.931 324.962,160.162 323.918,160.162Z" style="fill:rgb(99,101,106);fill-rule:nonzero;"/>
            <path d="M338.66,151.054C340.76,151.054 341.81,152.212 341.81,154.528L341.81,159.406C341.81,159.634 341.747,159.811 341.621,159.937C341.495,160.063 341.318,160.126 341.09,160.126C340.862,160.126 340.682,160.063 340.55,159.937C340.418,159.811 340.352,159.634 340.352,159.406L340.352,154.618C340.352,153.802 340.193,153.208 339.875,152.836C339.557,152.464 339.05,152.278 338.354,152.278C337.55,152.278 336.908,152.524 336.428,153.016C335.948,153.508 335.708,154.174 335.708,155.014L335.708,159.406C335.708,159.634 335.645,159.811 335.519,159.937C335.393,160.063 335.216,160.126 334.988,160.126C334.76,160.126 334.58,160.063 334.448,159.937C334.316,159.811 334.25,159.634 334.25,159.406L334.25,151.81C334.25,151.594 334.316,151.42 334.448,151.288C334.58,151.156 334.76,151.09 334.988,151.09C335.204,151.09 335.375,151.156 335.501,151.288C335.627,151.42 335.69,151.588 335.69,151.792L335.69,152.71C335.978,152.17 336.38,151.759 336.896,151.477C337.412,151.195 338,151.054 338.66,151.054Z" style="fill:rgb(99,101,106);fill-rule:nonzero;"/>
            <path d="M348.11,160.162C347.282,160.162 346.553,159.976 345.923,159.604C345.293,159.232 344.807,158.701 344.465,158.011C344.123,157.321 343.952,156.52 343.952,155.608C343.952,154.696 344.123,153.895 344.465,153.205C344.807,152.515 345.293,151.984 345.923,151.612C346.553,151.24 347.282,151.054 348.11,151.054C348.938,151.054 349.67,151.24 350.306,151.612C350.942,151.984 351.431,152.515 351.773,153.205C352.115,153.895 352.286,154.696 352.286,155.608C352.286,156.52 352.115,157.321 351.773,158.011C351.431,158.701 350.942,159.232 350.306,159.604C349.67,159.976 348.938,160.162 348.11,160.162ZM348.11,158.956C348.974,158.956 349.637,158.671 350.099,158.101C350.561,157.531 350.792,156.7 350.792,155.608C350.792,154.54 350.558,153.715 350.09,153.133C349.622,152.551 348.962,152.26 348.11,152.26C347.258,152.26 346.598,152.551 346.13,153.133C345.662,153.715 345.428,154.54 345.428,155.608C345.428,156.688 345.659,157.516 346.121,158.092C346.583,158.668 347.246,158.956 348.11,158.956Z" style="fill:rgb(99,101,106);fill-rule:nonzero;"/>
            <path d="M358.496,158.974C358.916,159.01 359.126,159.202 359.126,159.55C359.126,159.754 359.051,159.907 358.901,160.009C358.751,160.111 358.526,160.15 358.226,160.126L357.74,160.09C356.78,160.018 356.072,159.73 355.616,159.226C355.16,158.722 354.932,157.96 354.932,156.94L354.932,152.422L353.726,152.422C353.522,152.422 353.363,152.371 353.249,152.269C353.135,152.167 353.078,152.032 353.078,151.864C353.078,151.684 353.135,151.54 353.249,151.432C353.363,151.324 353.522,151.27 353.726,151.27L354.932,151.27L354.932,149.236C354.932,149.008 354.998,148.831 355.13,148.705C355.262,148.579 355.442,148.516 355.67,148.516C355.886,148.516 356.06,148.579 356.192,148.705C356.324,148.831 356.39,149.008 356.39,149.236L356.39,151.27L358.388,151.27C358.58,151.27 358.733,151.324 358.847,151.432C358.961,151.54 359.018,151.684 359.018,151.864C359.018,152.032 358.961,152.167 358.847,152.269C358.733,152.371 358.58,152.422 358.388,152.422L356.39,152.422L356.39,157.012C356.39,157.672 356.525,158.149 356.795,158.443C357.065,158.737 357.47,158.902 358.01,158.938L358.496,158.974Z" style="fill:rgb(99,101,106);fill-rule:nonzero;"/>
            <path d="M361.304,160.126C361.088,160.126 360.911,160.063 360.773,159.937C360.635,159.811 360.566,159.634 360.566,159.406L360.566,151.81C360.566,151.582 360.635,151.405 360.773,151.279C360.911,151.153 361.088,151.09 361.304,151.09C361.52,151.09 361.694,151.153 361.826,151.279C361.958,151.405 362.024,151.582 362.024,151.81L362.024,159.406C362.024,159.646 361.958,159.826 361.826,159.946C361.694,160.066 361.52,160.126 361.304,160.126ZM361.304,149.2C361.016,149.2 360.782,149.116 360.602,148.948C360.422,148.78 360.332,148.558 360.332,148.282C360.332,148.018 360.422,147.802 360.602,147.634C360.782,147.466 361.016,147.382 361.304,147.382C361.592,147.382 361.826,147.466 362.006,147.634C362.186,147.802 362.276,148.018 362.276,148.282C362.276,148.558 362.186,148.78 362.006,148.948C361.826,149.116 361.592,149.2 361.304,149.2Z" style="fill:rgb(99,101,106);fill-rule:nonzero;"/>
            <path d="M371.456,151.27C371.66,151.27 371.816,151.324 371.924,151.432C372.032,151.54 372.086,151.684 372.086,151.864L372.086,159.406C372.086,159.634 372.017,159.811 371.879,159.937C371.741,160.063 371.57,160.126 371.366,160.126C371.15,160.126 370.973,160.063 370.835,159.937C370.697,159.811 370.628,159.634 370.628,159.406L370.628,152.422L366.686,152.422L366.686,159.406C366.686,159.634 366.617,159.811 366.479,159.937C366.341,160.063 366.17,160.126 365.966,160.126C365.75,160.126 365.573,160.063 365.435,159.937C365.297,159.811 365.228,159.634 365.228,159.406L365.228,152.422L364.022,152.422C363.818,152.422 363.659,152.371 363.545,152.269C363.431,152.167 363.374,152.032 363.374,151.864C363.374,151.684 363.431,151.54 363.545,151.432C363.659,151.324 363.818,151.27 364.022,151.27L365.228,151.27L365.228,150.964C365.228,149.884 365.498,149.035 366.038,148.417C366.578,147.799 367.352,147.448 368.36,147.364L368.792,147.328C369.368,147.28 369.656,147.46 369.656,147.868C369.656,148.216 369.452,148.414 369.044,148.462L368.612,148.498C367.976,148.546 367.496,148.747 367.172,149.101C366.848,149.455 366.686,149.986 366.686,150.694L366.686,151.27L371.456,151.27ZM371.366,147.382C371.642,147.382 371.873,147.466 372.059,147.634C372.245,147.802 372.338,148.018 372.338,148.282C372.338,148.558 372.248,148.78 372.068,148.948C371.888,149.116 371.654,149.2 371.366,149.2C371.078,149.2 370.844,149.116 370.664,148.948C370.484,148.78 370.394,148.558 370.394,148.282C370.394,148.018 370.484,147.802 370.664,147.634C370.844,147.466 371.078,147.382 371.366,147.382Z" style="fill:rgb(99,101,106);fill-rule:nonzero;"/>
            <path d="M381.59,158.002C381.722,158.002 381.836,158.056 381.932,158.164C382.028,158.272 382.076,158.41 382.076,158.578C382.076,158.878 381.866,159.154 381.446,159.406C381.014,159.658 380.558,159.847 380.078,159.973C379.598,160.099 379.13,160.162 378.674,160.162C377.318,160.162 376.247,159.76 375.461,158.956C374.675,158.152 374.282,157.042 374.282,155.626C374.282,154.726 374.456,153.931 374.804,153.241C375.152,152.551 375.641,152.014 376.271,151.63C376.901,151.246 377.618,151.054 378.422,151.054C379.562,151.054 380.468,151.426 381.14,152.17C381.812,152.914 382.148,153.922 382.148,155.194C382.148,155.434 382.1,155.608 382.004,155.716C381.908,155.824 381.752,155.878 381.536,155.878L375.74,155.878C375.848,157.942 376.826,158.974 378.674,158.974C379.142,158.974 379.544,158.911 379.88,158.785C380.216,158.659 380.576,158.488 380.96,158.272C381.272,158.092 381.482,158.002 381.59,158.002ZM378.44,152.188C377.672,152.188 377.057,152.428 376.595,152.908C376.133,153.388 375.86,154.066 375.776,154.942L380.87,154.942C380.846,154.054 380.624,153.373 380.204,152.899C379.784,152.425 379.196,152.188 378.44,152.188Z" style="fill:rgb(99,101,106);fill-rule:nonzero;"/>
            <path d="M391.328,147.256C391.556,147.256 391.736,147.322 391.868,147.454C392,147.586 392.066,147.754 392.066,147.958L392.066,159.406C392.066,159.622 392,159.796 391.868,159.928C391.736,160.06 391.556,160.126 391.328,160.126C391.1,160.126 390.923,160.06 390.797,159.928C390.671,159.796 390.608,159.622 390.608,159.406L390.608,158.434C390.344,158.986 389.957,159.412 389.447,159.712C388.937,160.012 388.34,160.162 387.656,160.162C386.888,160.162 386.21,159.97 385.622,159.586C385.034,159.202 384.578,158.665 384.254,157.975C383.93,157.285 383.768,156.484 383.768,155.572C383.768,154.672 383.93,153.88 384.254,153.196C384.578,152.512 385.034,151.984 385.622,151.612C386.21,151.24 386.888,151.054 387.656,151.054C388.34,151.054 388.937,151.204 389.447,151.504C389.957,151.804 390.344,152.23 390.608,152.782L390.608,147.958C390.608,147.742 390.671,147.571 390.797,147.445C390.923,147.319 391.1,147.256 391.328,147.256ZM387.944,158.956C388.796,158.956 389.453,158.665 389.915,158.083C390.377,157.501 390.608,156.676 390.608,155.608C390.608,154.54 390.377,153.718 389.915,153.142C389.453,152.566 388.796,152.278 387.944,152.278C387.092,152.278 386.429,152.566 385.955,153.142C385.481,153.718 385.244,154.528 385.244,155.572C385.244,156.64 385.481,157.471 385.955,158.065C386.429,158.659 387.092,158.956 387.944,158.956Z" style="fill:rgb(99,101,106);fill-rule:nonzero;"/>
        </g>
    </g>
</svg>
