<?xml version="1.0" encoding="UTF-8" standalone="no"?>
<!DOCTYPE svg PUBLIC "-//W3C//DTD SVG 1.1//EN" "http://www.w3.org/Graphics/SVG/1.1/DTD/svg11.dtd">
<svg width="100%" height="100%" viewBox="0 0 186 231" version="1.1" xmlns="http://www.w3.org/2000/svg" xmlns:xlink="http://www.w3.org/1999/xlink" xml:space="preserve" xmlns:serif="http://www.serif.com/" style="fill-rule:evenodd;clip-rule:evenodd;stroke-linejoin:round;stroke-miterlimit:1.41421;">
    <g transform="matrix(1,0,0,1,-91,-133)">
        <g transform="matrix(1,0,0,1,-0.684275,0)">
            <g>
                <g transform="matrix(1,0,0,1,0,1)">
                    <g transform="matrix(1,0,0,1,2,-1)">
                        <path d="M94.64,139.227C94.64,138.696 94.85,138.187 95.226,137.812C95.601,137.437 96.109,137.227 96.64,137.227C111.032,137.227 198.53,137.227 208.822,137.227C209.428,137.227 209.982,137.569 210.253,138.11L222.31,162.2L266.669,162.2C269.239,162.2 271.326,164.287 271.326,166.857L271.326,354.562C271.326,357.132 269.239,359.218 266.669,359.218L99.297,359.218C96.726,359.218 94.64,357.132 94.64,354.562L94.64,139.227Z" style="fill:rgb(185,185,185);"/>
                        <path d="M209.02,133.229L209.217,133.24L209.412,133.257L209.606,133.281L209.799,133.312L209.99,133.349L210.179,133.393L210.366,133.443L210.551,133.499L210.733,133.562L210.912,133.63L211.089,133.705L211.263,133.786L211.434,133.872L211.601,133.964L211.766,134.062L211.927,134.165L212.084,134.274L212.238,134.388L212.387,134.507L212.533,134.632L212.675,134.762L212.813,134.897L212.946,135.037L213.074,135.181L213.198,135.331L213.317,135.485L213.43,135.643L213.539,135.806L213.642,135.974L213.739,136.145L213.814,136.289L224.781,158.2L266.682,158.2L266.78,158.201L266.89,158.203L267.001,158.206L267.111,158.211L267.221,158.217L267.343,158.226L267.549,158.244L267.767,158.269L267.983,158.299L268.197,158.335L268.41,158.376L268.621,158.422L268.83,158.473L269.037,158.529L269.242,158.59L269.445,158.656L269.646,158.727L269.844,158.802L270.04,158.882L270.234,158.967L270.424,159.056L270.613,159.15L270.798,159.248L270.981,159.35L271.161,159.456L271.338,159.567L271.512,159.681L271.683,159.8L271.85,159.922L272.015,160.049L272.177,160.179L272.335,160.313L272.49,160.45L272.641,160.591L272.79,160.736L272.934,160.884L273.076,161.036L273.213,161.191L273.347,161.349L273.477,161.51L273.603,161.675L273.726,161.843L273.844,162.014L273.959,162.188L274.069,162.365L274.176,162.545L274.278,162.728L274.376,162.913L274.469,163.101L274.559,163.292L274.643,163.486L274.723,163.682L274.799,163.88L274.87,164.08L274.936,164.283L274.997,164.489L275.053,164.696L275.104,164.905L275.15,165.116L275.191,165.329L275.226,165.543L275.256,165.759L275.281,165.976L275.3,166.182L275.308,166.304L275.314,166.414L275.319,166.525L275.323,166.635L275.325,166.746L275.326,166.845L275.326,354.574L275.325,354.672L275.323,354.783L275.319,354.893L275.314,355.004L275.308,355.114L275.3,355.236L275.281,355.442L275.256,355.659L275.226,355.875L275.191,356.089L275.15,356.302L275.104,356.513L275.053,356.723L274.997,356.93L274.936,357.135L274.87,357.338L274.799,357.538L274.723,357.737L274.643,357.933L274.559,358.126L274.469,358.317L274.376,358.505L274.278,358.691L274.176,358.874L274.069,359.053L273.959,359.23L273.844,359.404L273.726,359.575L273.603,359.743L273.477,359.908L273.347,360.069L273.213,360.228L273.075,360.383L272.934,360.534L272.79,360.682L272.642,360.827L272.49,360.968L272.335,361.106L272.177,361.239L272.015,361.37L271.85,361.496L271.682,361.619L271.511,361.737L271.338,361.852L271.16,361.962L270.981,362.069L270.798,362.171L270.612,362.269L270.424,362.362L270.233,362.452L270.04,362.536L269.844,362.616L269.645,362.692L269.445,362.763L269.242,362.828L269.037,362.889L268.83,362.946L268.62,362.997L268.409,363.043L268.197,363.083L267.982,363.119L267.766,363.149L267.549,363.174L267.343,363.193L267.221,363.201L267.111,363.207L267,363.212L266.89,363.216L266.78,363.218L266.682,363.218L99.284,363.218L99.185,363.218L99.075,363.216L98.965,363.212L98.854,363.207L98.745,363.201L98.623,363.193L98.416,363.174L98.199,363.149L97.983,363.119L97.768,363.083L97.556,363.043L97.345,362.997L97.136,362.946L96.928,362.889L96.723,362.828L96.521,362.762L96.32,362.692L96.121,362.616L95.926,362.536L95.732,362.451L95.541,362.362L95.353,362.269L95.167,362.171L94.985,362.068L94.805,361.962L94.628,361.852L94.454,361.737L94.283,361.619L94.115,361.496L93.95,361.37L93.788,361.239L93.631,361.106L93.476,360.968L93.324,360.827L93.176,360.682L93.031,360.534L92.89,360.383L92.752,360.228L92.619,360.069L92.489,359.908L92.362,359.743L92.24,359.575L92.121,359.404L92.007,359.23L91.896,359.053L91.79,358.874L91.687,358.691L91.59,358.505L91.496,358.317L91.407,358.126L91.322,357.933L91.242,357.737L91.167,357.538L91.096,357.338L91.03,357.135L90.969,356.93L90.913,356.722L90.862,356.513L90.815,356.302L90.775,356.09L90.739,355.875L90.709,355.659L90.684,355.442L90.666,355.236L90.657,355.114L90.651,355.004L90.646,354.894L90.643,354.783L90.64,354.673L90.64,354.575L90.64,139.202L90.641,139.078L90.647,138.929L90.656,138.781L90.669,138.633L90.685,138.487L90.705,138.341L90.729,138.195L90.756,138.051L90.786,137.907L90.821,137.764L90.858,137.622L90.899,137.482L90.943,137.342L90.991,137.203L91.042,137.066L91.096,136.93L91.154,136.796L91.215,136.663L91.279,136.531L91.346,136.401L91.417,136.273L91.491,136.146L91.567,136.021L91.647,135.898L91.731,135.776L91.817,135.657L91.906,135.539L91.998,135.424L92.094,135.31L92.192,135.199L92.293,135.09L92.397,134.984L92.503,134.88L92.612,134.779L92.724,134.68L92.837,134.585L92.952,134.493L93.07,134.404L93.19,134.317L93.311,134.234L93.434,134.154L93.559,134.077L93.686,134.004L93.814,133.933L93.945,133.866L94.076,133.802L94.209,133.741L94.344,133.683L94.479,133.629L94.617,133.578L94.755,133.53L94.894,133.486L95.035,133.445L95.177,133.407L95.32,133.373L95.464,133.343L95.608,133.316L95.754,133.292L95.9,133.272L96.047,133.256L96.194,133.243L96.343,133.234L96.491,133.228L96.615,133.227L208.858,133.227L209.02,133.229ZM96.59,137.227L96.541,137.229L96.491,137.232L96.442,137.236L96.393,137.242L96.344,137.248L96.296,137.256L96.248,137.265L96.2,137.276L96.152,137.287L96.105,137.299L96.058,137.313L96.012,137.328L95.965,137.344L95.92,137.361L95.874,137.379L95.83,137.398L95.785,137.418L95.741,137.44L95.698,137.462L95.655,137.486L95.613,137.51L95.571,137.536L95.53,137.563L95.49,137.59L95.45,137.619L95.411,137.649L95.372,137.679L95.334,137.711L95.297,137.744L95.261,137.778L95.226,137.812L95.191,137.848L95.157,137.884L95.124,137.921L95.093,137.959L95.062,137.998L95.032,138.037L95.003,138.076L94.976,138.117L94.949,138.158L94.923,138.2L94.899,138.242L94.875,138.285L94.853,138.328L94.832,138.372L94.811,138.416L94.792,138.461L94.774,138.506L94.757,138.552L94.741,138.598L94.726,138.645L94.713,138.692L94.7,138.739L94.689,138.787L94.679,138.835L94.67,138.883L94.662,138.931L94.655,138.98L94.65,139.029L94.645,139.078L94.642,139.127L94.64,139.177L94.64,139.227L94.64,354.562L94.64,354.622L94.641,354.682L94.643,354.741L94.646,354.801L94.649,354.86L94.653,354.92L94.664,355.037L94.677,355.154L94.693,355.27L94.713,355.385L94.734,355.5L94.759,355.613L94.786,355.725L94.817,355.836L94.849,355.946L94.885,356.054L94.923,356.162L94.963,356.268L95.006,356.373L95.051,356.477L95.099,356.58L95.15,356.681L95.202,356.781L95.257,356.879L95.314,356.976L95.374,357.071L95.436,357.164L95.499,357.257L95.565,357.347L95.634,357.436L95.704,357.523L95.776,357.608L95.85,357.692L95.926,357.774L96.004,357.854L96.084,357.932L96.166,358.008L96.25,358.082L96.335,358.154L96.422,358.225L96.511,358.293L96.602,358.359L96.694,358.423L96.787,358.484L96.883,358.544L96.979,358.601L97.078,358.656L97.177,358.709L97.278,358.759L97.381,358.807L97.485,358.852L97.59,358.895L97.696,358.936L97.804,358.974L97.912,359.009L98.022,359.042L98.133,359.072L98.245,359.099L98.359,359.124L98.473,359.146L98.588,359.165L98.704,359.181L98.821,359.194L98.939,359.205L98.998,359.209L99.057,359.212L99.117,359.215L99.177,359.217L99.237,359.218L99.297,359.218L266.669,359.218L266.729,359.218L266.789,359.217L266.849,359.215L266.908,359.212L266.968,359.209L267.027,359.205L267.145,359.194L267.261,359.181L267.378,359.165L267.493,359.146L267.607,359.124L267.72,359.099L267.832,359.072L267.943,359.042L268.053,359.009L268.162,358.974L268.269,358.936L268.376,358.895L268.481,358.852L268.584,358.807L268.687,358.759L268.788,358.709L268.888,358.656L268.986,358.601L269.083,358.544L269.178,358.484L269.272,358.423L269.364,358.359L269.454,358.293L269.543,358.225L269.63,358.154L269.716,358.082L269.799,358.008L269.881,357.932L269.961,357.854L270.039,357.774L270.115,357.692L270.189,357.608L270.262,357.523L270.332,357.436L270.4,357.347L270.466,357.257L270.53,357.164L270.592,357.071L270.651,356.976L270.708,356.879L270.763,356.781L270.816,356.681L270.866,356.58L270.914,356.477L270.959,356.373L271.002,356.268L271.043,356.162L271.081,356.054L271.116,355.946L271.149,355.836L271.179,355.725L271.206,355.613L271.231,355.5L271.253,355.385L271.272,355.27L271.288,355.154L271.302,355.037L271.312,354.92L271.316,354.86L271.32,354.801L271.322,354.741L271.324,354.682L271.325,354.622L271.326,354.562L271.326,166.857L271.325,166.797L271.324,166.737L271.322,166.677L271.32,166.617L271.316,166.558L271.312,166.499L271.302,166.381L271.288,166.264L271.272,166.148L271.253,166.033L271.231,165.919L271.206,165.806L271.179,165.694L271.149,165.583L271.116,165.473L271.081,165.364L271.043,165.256L271.002,165.15L270.959,165.045L270.914,164.941L270.866,164.839L270.816,164.738L270.763,164.638L270.708,164.54L270.651,164.443L270.592,164.348L270.53,164.254L270.466,164.162L270.4,164.071L270.332,163.982L270.262,163.895L270.189,163.81L270.115,163.726L270.039,163.645L269.961,163.565L269.881,163.487L269.799,163.41L269.716,163.336L269.63,163.264L269.543,163.194L269.454,163.126L269.364,163.06L269.272,162.996L269.178,162.934L269.083,162.875L268.986,162.817L268.888,162.762L268.788,162.71L268.687,162.659L268.585,162.612L268.481,162.566L268.376,162.523L268.269,162.483L268.162,162.445L268.053,162.409L267.943,162.377L267.832,162.347L267.72,162.319L267.607,162.295L267.493,162.273L267.378,162.254L267.262,162.237L267.145,162.224L267.027,162.214L266.968,162.209L266.908,162.206L266.849,162.203L266.789,162.201L266.729,162.2L266.669,162.2L222.31,162.2L210.253,138.11L210.227,138.06L210.199,138.011L210.17,137.963L210.139,137.917L210.106,137.872L210.072,137.828L210.037,137.785L210,137.744L209.962,137.704L209.923,137.665L209.883,137.628L209.841,137.593L209.798,137.559L209.754,137.526L209.709,137.495L209.663,137.465L209.616,137.437L209.568,137.411L209.519,137.386L209.47,137.363L209.419,137.342L209.368,137.322L209.316,137.305L209.263,137.288L209.21,137.274L209.156,137.262L209.102,137.251L209.047,137.242L208.991,137.235L208.935,137.231L208.879,137.228L208.822,137.227L96.64,137.227L96.59,137.227Z" style="fill:white;"/>
                    </g>
                    <g transform="matrix(0.905548,0,0,0.905548,19.283,22.445)">
                        <path d="M208.904,136.51L208.986,136.514L209.067,136.522L209.147,136.531L209.227,136.544L209.306,136.56L209.384,136.578L209.461,136.598L209.538,136.622L209.613,136.648L209.687,136.676L209.76,136.707L209.832,136.74L209.903,136.776L209.972,136.814L210.04,136.855L210.107,136.897L210.172,136.942L210.236,136.99L210.298,137.039L210.358,137.091L210.417,137.144L210.474,137.2L210.529,137.258L210.582,137.318L210.633,137.38L210.682,137.443L210.729,137.509L210.774,137.576L210.817,137.645L210.857,137.717L210.892,137.784L222.753,161.482L266.673,161.482L266.807,161.484L266.945,161.489L267.081,161.498L267.217,161.51L267.352,161.525L267.486,161.544L267.619,161.566L267.751,161.591L267.882,161.62L268.011,161.651L268.139,161.686L268.266,161.724L268.392,161.765L268.516,161.809L268.639,161.855L268.76,161.905L268.88,161.958L268.999,162.013L269.115,162.071L269.231,162.132L269.344,162.195L269.456,162.261L269.566,162.33L269.674,162.401L269.78,162.475L269.884,162.551L269.987,162.629L270.087,162.71L270.186,162.794L270.282,162.879L270.376,162.967L270.469,163.057L270.559,163.149L270.646,163.243L270.732,163.34L270.815,163.438L270.896,163.539L270.975,163.641L271.051,163.746L271.125,163.852L271.196,163.96L271.264,164.07L271.33,164.182L271.394,164.295L271.455,164.41L271.513,164.527L271.568,164.645L271.62,164.765L271.67,164.887L271.717,165.009L271.761,165.134L271.801,165.259L271.839,165.386L271.874,165.515L271.906,165.644L271.934,165.775L271.959,165.907L271.981,166.039L272,166.173L272.016,166.308L272.028,166.444L272.036,166.581L272.042,166.718L272.043,166.852L272.043,354.566L272.042,354.7L272.036,354.837L272.028,354.974L272.016,355.11L272,355.245L271.981,355.379L271.959,355.512L271.934,355.644L271.906,355.774L271.874,355.904L271.839,356.032L271.802,356.159L271.761,356.285L271.717,356.409L271.67,356.532L271.62,356.653L271.568,356.773L271.513,356.891L271.455,357.008L271.394,357.123L271.33,357.237L271.264,357.348L271.196,357.458L271.125,357.566L271.051,357.673L270.975,357.777L270.896,357.879L270.815,357.98L270.732,358.078L270.646,358.175L270.559,358.269L270.469,358.361L270.376,358.451L270.282,358.539L270.186,358.625L270.087,358.708L269.987,358.789L269.884,358.868L269.78,358.944L269.674,359.017L269.566,359.089L269.456,359.157L269.344,359.223L269.23,359.287L269.115,359.347L268.999,359.405L268.88,359.461L268.76,359.513L268.639,359.563L268.516,359.61L268.392,359.653L268.266,359.694L268.139,359.732L268.011,359.767L267.881,359.798L267.751,359.827L267.619,359.852L267.486,359.874L267.352,359.893L267.217,359.909L267.081,359.921L266.945,359.929L266.807,359.935L266.673,359.936L99.292,359.936L99.158,359.935L99.021,359.929L98.884,359.921L98.748,359.909L98.613,359.893L98.479,359.874L98.346,359.852L98.215,359.827L98.084,359.798L97.954,359.767L97.826,359.732L97.699,359.694L97.574,359.653L97.449,359.61L97.326,359.563L97.205,359.513L97.085,359.461L96.967,359.405L96.85,359.347L96.735,359.287L96.622,359.223L96.51,359.157L96.4,359.089L96.292,359.017L96.185,358.944L96.081,358.868L95.979,358.789L95.878,358.708L95.78,358.625L95.683,358.539L95.589,358.451L95.497,358.361L95.407,358.269L95.319,358.175L95.233,358.078L95.15,357.98L95.069,357.879L94.991,357.777L94.915,357.673L94.841,357.566L94.77,357.458L94.701,357.348L94.635,357.237L94.571,357.123L94.511,357.008L94.453,356.891L94.397,356.773L94.345,356.653L94.295,356.532L94.249,356.409L94.205,356.285L94.164,356.159L94.126,356.032L94.091,355.904L94.06,355.774L94.031,355.644L94.006,355.512L93.984,355.379L93.965,355.245L93.95,355.11L93.938,354.974L93.929,354.837L93.924,354.7L93.922,354.566L93.922,139.222L93.923,139.159L93.925,139.092L93.929,139.025L93.935,138.958L93.943,138.891L93.952,138.825L93.962,138.759L93.975,138.694L93.988,138.629L94.004,138.564L94.021,138.5L94.039,138.436L94.059,138.373L94.081,138.31L94.104,138.248L94.129,138.186L94.155,138.126L94.182,138.065L94.212,138.006L94.242,137.947L94.274,137.889L94.307,137.831L94.342,137.775L94.379,137.719L94.416,137.664L94.455,137.61L94.496,137.556L94.537,137.504L94.581,137.453L94.625,137.402L94.671,137.353L94.718,137.305L94.766,137.258L94.816,137.212L94.866,137.167L94.917,137.124L94.97,137.082L95.023,137.042L95.077,137.003L95.132,136.965L95.188,136.929L95.244,136.894L95.302,136.861L95.36,136.829L95.419,136.798L95.479,136.769L95.539,136.742L95.6,136.716L95.661,136.691L95.723,136.668L95.786,136.646L95.849,136.626L95.913,136.608L95.977,136.591L96.042,136.575L96.107,136.561L96.173,136.549L96.238,136.538L96.305,136.529L96.371,136.522L96.438,136.516L96.505,136.512L96.572,136.51L96.635,136.509L208.829,136.509L208.904,136.51ZM96.59,137.227L96.541,137.229L96.491,137.232L96.442,137.236L96.393,137.242L96.344,137.248L96.296,137.256L96.248,137.265L96.2,137.276L96.152,137.287L96.105,137.299L96.058,137.313L96.012,137.328L95.965,137.344L95.92,137.361L95.874,137.379L95.83,137.398L95.785,137.418L95.741,137.44L95.698,137.462L95.655,137.486L95.613,137.51L95.571,137.536L95.53,137.563L95.49,137.59L95.45,137.619L95.411,137.649L95.372,137.679L95.334,137.711L95.297,137.744L95.261,137.778L95.226,137.812L95.191,137.848L95.157,137.884L95.124,137.921L95.093,137.959L95.062,137.998L95.032,138.037L95.003,138.076L94.976,138.117L94.949,138.158L94.923,138.2L94.899,138.242L94.875,138.285L94.853,138.328L94.832,138.372L94.811,138.416L94.792,138.461L94.774,138.506L94.757,138.552L94.741,138.598L94.726,138.645L94.713,138.692L94.7,138.739L94.689,138.787L94.679,138.835L94.67,138.883L94.662,138.931L94.655,138.98L94.65,139.029L94.645,139.078L94.642,139.127L94.64,139.177L94.64,139.227L94.64,354.562L94.641,354.682L94.646,354.801L94.653,354.92L94.664,355.037L94.677,355.154L94.693,355.27L94.713,355.385L94.734,355.5L94.759,355.613L94.786,355.725L94.817,355.836L94.849,355.946L94.885,356.054L94.923,356.162L94.963,356.268L95.006,356.373L95.051,356.477L95.099,356.58L95.15,356.681L95.202,356.781L95.257,356.879L95.314,356.976L95.374,357.071L95.436,357.164L95.499,357.257L95.565,357.347L95.634,357.436L95.704,357.523L95.776,357.608L95.85,357.692L95.926,357.774L96.004,357.854L96.084,357.932L96.166,358.008L96.25,358.082L96.335,358.154L96.422,358.225L96.511,358.293L96.602,358.359L96.694,358.423L96.787,358.484L96.883,358.544L96.979,358.601L97.078,358.656L97.177,358.709L97.278,358.759L97.381,358.807L97.485,358.852L97.59,358.895L97.696,358.936L97.804,358.974L97.912,359.009L98.022,359.042L98.133,359.072L98.245,359.099L98.359,359.124L98.473,359.146L98.588,359.165L98.704,359.181L98.821,359.194L98.939,359.205L99.057,359.212L99.177,359.217L99.297,359.218L266.669,359.218L266.789,359.217L266.908,359.212L267.027,359.205L267.145,359.194L267.261,359.181L267.378,359.165L267.493,359.146L267.607,359.124L267.72,359.099L267.832,359.072L267.943,359.042L268.053,359.009L268.162,358.974L268.269,358.936L268.376,358.895L268.481,358.852L268.584,358.807L268.687,358.759L268.788,358.709L268.888,358.656L268.986,358.601L269.083,358.544L269.178,358.484L269.272,358.423L269.364,358.359L269.454,358.293L269.543,358.225L269.63,358.154L269.716,358.082L269.799,358.008L269.881,357.932L269.961,357.854L270.039,357.774L270.115,357.692L270.189,357.608L270.262,357.523L270.332,357.436L270.4,357.347L270.466,357.257L270.53,357.164L270.592,357.071L270.651,356.976L270.708,356.879L270.763,356.781L270.816,356.681L270.866,356.58L270.914,356.477L270.959,356.373L271.002,356.268L271.043,356.162L271.081,356.054L271.116,355.946L271.149,355.836L271.179,355.725L271.206,355.613L271.231,355.5L271.253,355.385L271.272,355.27L271.288,355.154L271.302,355.037L271.312,354.92L271.32,354.801L271.324,354.682L271.326,354.562L271.326,166.857L271.324,166.737L271.32,166.617L271.312,166.499L271.302,166.381L271.288,166.264L271.272,166.148L271.253,166.033L271.231,165.919L271.206,165.806L271.179,165.694L271.149,165.583L271.116,165.473L271.081,165.364L271.043,165.256L271.002,165.15L270.959,165.045L270.914,164.941L270.866,164.839L270.816,164.738L270.763,164.638L270.708,164.54L270.651,164.443L270.592,164.348L270.53,164.254L270.466,164.162L270.4,164.071L270.332,163.982L270.262,163.895L270.189,163.81L270.115,163.726L270.039,163.645L269.961,163.565L269.881,163.487L269.799,163.41L269.716,163.336L269.63,163.264L269.543,163.194L269.454,163.126L269.364,163.06L269.272,162.996L269.178,162.934L269.083,162.875L268.986,162.817L268.888,162.762L268.788,162.71L268.687,162.659L268.585,162.612L268.481,162.566L268.376,162.523L268.269,162.483L268.162,162.445L268.053,162.409L267.943,162.377L267.832,162.347L267.72,162.319L267.607,162.295L267.493,162.273L267.378,162.254L267.262,162.237L267.145,162.224L267.027,162.214L266.908,162.206L266.789,162.201L266.669,162.2L222.31,162.2L210.253,138.11L210.227,138.06L210.199,138.011L210.17,137.963L210.139,137.917L210.106,137.872L210.072,137.828L210.037,137.785L210,137.744L209.962,137.704L209.923,137.665L209.883,137.628L209.841,137.593L209.798,137.559L209.754,137.526L209.709,137.495L209.663,137.465L209.616,137.437L209.568,137.411L209.519,137.386L209.47,137.363L209.419,137.342L209.368,137.322L209.316,137.305L209.263,137.288L209.21,137.274L209.156,137.262L209.102,137.251L209.047,137.242L208.991,137.235L208.935,137.231L208.879,137.228L208.822,137.227L96.64,137.227L96.59,137.227Z" style="fill:rgb(243,110,35);"/>
                    </g>
                </g>
                <g transform="matrix(1,0,0,1,-5.66432,5.34353)">
                    <path d="M121.657,156.105C121.041,156.105 120.459,156.023 119.911,155.859C119.363,155.695 118.917,155.473 118.573,155.193C118.389,155.057 118.297,154.865 118.297,154.617C118.297,154.449 118.347,154.303 118.447,154.179C118.547,154.055 118.665,153.993 118.801,153.993C118.945,153.993 119.109,154.049 119.293,154.161C119.637,154.409 119.997,154.589 120.373,154.701C120.749,154.813 121.165,154.869 121.621,154.869C122.205,154.869 122.653,154.767 122.965,154.563C123.277,154.359 123.433,154.061 123.433,153.669C123.433,153.365 123.287,153.131 122.995,152.967C122.703,152.803 122.217,152.645 121.537,152.493C120.833,152.341 120.261,152.165 119.821,151.965C119.381,151.765 119.049,151.509 118.825,151.197C118.601,150.885 118.489,150.489 118.489,150.009C118.489,149.513 118.629,149.069 118.909,148.677C119.189,148.285 119.579,147.979 120.079,147.759C120.579,147.539 121.141,147.429 121.765,147.429C122.909,147.429 123.841,147.733 124.561,148.341C124.665,148.429 124.739,148.515 124.783,148.599C124.827,148.683 124.849,148.789 124.849,148.917C124.849,149.085 124.799,149.231 124.699,149.355C124.599,149.479 124.481,149.541 124.345,149.541C124.265,149.541 124.191,149.529 124.123,149.505C124.055,149.481 123.965,149.437 123.853,149.373C123.525,149.133 123.207,148.955 122.899,148.839C122.591,148.723 122.213,148.665 121.765,148.665C121.221,148.665 120.791,148.775 120.475,148.995C120.159,149.215 120.001,149.521 120.001,149.913C120.001,150.241 120.141,150.493 120.421,150.669C120.701,150.845 121.177,151.009 121.849,151.161C122.561,151.321 123.139,151.499 123.583,151.695C124.027,151.891 124.367,152.141 124.603,152.445C124.839,152.749 124.957,153.129 124.957,153.585C124.957,154.081 124.819,154.519 124.543,154.899C124.267,155.279 123.879,155.575 123.379,155.787C122.879,155.999 122.305,156.105 121.657,156.105Z" style="fill:white;fill-rule:nonzero;"/>
                    <path d="M129.217,154.953C129.617,154.977 129.817,155.157 129.817,155.493C129.817,155.685 129.739,155.831 129.583,155.931C129.427,156.031 129.205,156.073 128.917,156.057L128.593,156.033C127.249,155.937 126.577,155.217 126.577,153.873L126.577,151.257L125.977,151.257C125.761,151.257 125.595,151.209 125.479,151.113C125.363,151.017 125.305,150.877 125.305,150.693C125.305,150.509 125.363,150.369 125.479,150.273C125.595,150.177 125.761,150.129 125.977,150.129L126.577,150.129L126.577,149.025C126.577,148.809 126.645,148.637 126.781,148.509C126.917,148.381 127.101,148.317 127.333,148.317C127.557,148.317 127.737,148.381 127.873,148.509C128.009,148.637 128.077,148.809 128.077,149.025L128.077,150.129L129.097,150.129C129.313,150.129 129.479,150.177 129.595,150.273C129.711,150.369 129.769,150.509 129.769,150.693C129.769,150.877 129.711,151.017 129.595,151.113C129.479,151.209 129.313,151.257 129.097,151.257L128.077,151.257L128.077,153.981C128.077,154.573 128.349,154.889 128.893,154.929L129.217,154.953Z" style="fill:white;fill-rule:nonzero;"/>
                    <path d="M133.873,150.009C134.081,149.993 134.245,150.037 134.365,150.141C134.485,150.245 134.545,150.401 134.545,150.609C134.545,150.825 134.493,150.985 134.389,151.089C134.285,151.193 134.097,151.261 133.825,151.293L133.465,151.329C132.993,151.377 132.647,151.537 132.427,151.809C132.207,152.081 132.097,152.421 132.097,152.829L132.097,155.349C132.097,155.581 132.025,155.759 131.881,155.883C131.737,156.007 131.557,156.069 131.341,156.069C131.125,156.069 130.947,156.007 130.807,155.883C130.667,155.759 130.597,155.581 130.597,155.349L130.597,150.705C130.597,150.481 130.667,150.309 130.807,150.189C130.947,150.069 131.121,150.009 131.329,150.009C131.537,150.009 131.705,150.067 131.833,150.183C131.961,150.299 132.025,150.465 132.025,150.681L132.025,151.161C132.177,150.809 132.403,150.537 132.703,150.345C133.003,150.153 133.337,150.045 133.705,150.021L133.873,150.009Z" style="fill:white;fill-rule:nonzero;"/>
                    <path d="M139.717,154.389C139.853,154.389 139.963,154.441 140.047,154.545C140.131,154.649 140.173,154.789 140.173,154.965C140.173,155.213 140.025,155.421 139.729,155.589C139.457,155.741 139.149,155.863 138.805,155.955C138.461,156.047 138.133,156.093 137.821,156.093C136.877,156.093 136.129,155.821 135.577,155.277C135.025,154.733 134.749,153.989 134.749,153.045C134.749,152.445 134.869,151.913 135.109,151.449C135.349,150.985 135.687,150.625 136.123,150.369C136.559,150.113 137.053,149.985 137.605,149.985C138.133,149.985 138.593,150.101 138.985,150.333C139.377,150.565 139.681,150.893 139.897,151.317C140.113,151.741 140.221,152.241 140.221,152.817C140.221,153.161 140.069,153.333 139.765,153.333L136.225,153.333C136.273,153.885 136.429,154.291 136.693,154.551C136.957,154.811 137.341,154.941 137.845,154.941C138.101,154.941 138.327,154.909 138.523,154.845C138.719,154.781 138.941,154.693 139.189,154.581C139.429,154.453 139.605,154.389 139.717,154.389ZM137.641,151.041C137.233,151.041 136.907,151.169 136.663,151.425C136.419,151.681 136.273,152.049 136.225,152.529L138.937,152.529C138.921,152.041 138.801,151.671 138.577,151.419C138.353,151.167 138.041,151.041 137.641,151.041Z" style="fill:white;fill-rule:nonzero;"/>
                    <path d="M143.989,149.985C144.805,149.985 145.411,150.187 145.807,150.591C146.203,150.995 146.401,151.609 146.401,152.433L146.401,155.361C146.401,155.577 146.337,155.747 146.209,155.871C146.081,155.995 145.905,156.057 145.681,156.057C145.473,156.057 145.303,155.993 145.171,155.865C145.039,155.737 144.973,155.569 144.973,155.361L144.973,155.097C144.837,155.409 144.623,155.653 144.331,155.829C144.039,156.005 143.701,156.093 143.317,156.093C142.925,156.093 142.569,156.013 142.249,155.853C141.929,155.693 141.677,155.473 141.493,155.193C141.309,154.913 141.217,154.601 141.217,154.257C141.217,153.825 141.327,153.485 141.547,153.237C141.767,152.989 142.125,152.809 142.621,152.697C143.117,152.585 143.801,152.529 144.673,152.529L144.973,152.529L144.973,152.253C144.973,151.861 144.889,151.575 144.721,151.395C144.553,151.215 144.281,151.125 143.905,151.125C143.673,151.125 143.437,151.159 143.197,151.227C142.957,151.295 142.673,151.393 142.345,151.521C142.137,151.625 141.985,151.677 141.889,151.677C141.745,151.677 141.627,151.625 141.535,151.521C141.443,151.417 141.397,151.281 141.397,151.113C141.397,150.977 141.431,150.859 141.499,150.759C141.567,150.659 141.681,150.565 141.841,150.477C142.121,150.325 142.455,150.205 142.843,150.117C143.231,150.029 143.613,149.985 143.989,149.985ZM143.617,155.013C144.017,155.013 144.343,154.879 144.595,154.611C144.847,154.343 144.973,153.997 144.973,153.573L144.973,153.321L144.757,153.321C144.221,153.321 143.805,153.345 143.509,153.393C143.213,153.441 143.001,153.525 142.873,153.645C142.745,153.765 142.681,153.929 142.681,154.137C142.681,154.393 142.771,154.603 142.951,154.767C143.131,154.931 143.353,155.013 143.617,155.013Z" style="fill:white;fill-rule:nonzero;"/>
                    <path d="M154.897,149.985C155.537,149.985 156.027,150.175 156.367,150.555C156.707,150.935 156.877,151.549 156.877,152.397L156.877,155.349C156.877,155.581 156.807,155.759 156.667,155.883C156.527,156.007 156.345,156.069 156.121,156.069C155.905,156.069 155.727,156.007 155.587,155.883C155.447,155.759 155.377,155.581 155.377,155.349L155.377,152.397C155.377,151.957 155.299,151.643 155.143,151.455C154.987,151.267 154.749,151.173 154.429,151.173C154.037,151.173 153.725,151.307 153.493,151.575C153.261,151.843 153.145,152.209 153.145,152.673L153.145,155.349C153.145,155.581 153.075,155.759 152.935,155.883C152.795,156.007 152.617,156.069 152.401,156.069C152.185,156.069 152.005,156.007 151.861,155.883C151.717,155.759 151.645,155.581 151.645,155.349L151.645,152.397C151.645,151.957 151.567,151.643 151.411,151.455C151.255,151.267 151.017,151.173 150.697,151.173C150.305,151.173 149.995,151.307 149.767,151.575C149.539,151.843 149.425,152.209 149.425,152.673L149.425,155.349C149.425,155.581 149.353,155.759 149.209,155.883C149.065,156.007 148.885,156.069 148.669,156.069C148.453,156.069 148.275,156.007 148.135,155.883C147.995,155.759 147.925,155.581 147.925,155.349L147.925,150.705C147.925,150.481 147.997,150.309 148.141,150.189C148.285,150.069 148.465,150.009 148.681,150.009C148.889,150.009 149.059,150.067 149.191,150.183C149.323,150.299 149.389,150.465 149.389,150.681L149.389,150.969C149.573,150.649 149.819,150.405 150.127,150.237C150.435,150.069 150.789,149.985 151.189,149.985C152.069,149.985 152.657,150.353 152.953,151.089C153.129,150.753 153.389,150.485 153.733,150.285C154.077,150.085 154.465,149.985 154.897,149.985Z" style="fill:white;fill-rule:nonzero;"/>
                    <path d="M159.145,156.069C158.929,156.069 158.751,156.007 158.611,155.883C158.471,155.759 158.401,155.581 158.401,155.349L158.401,150.717C158.401,150.485 158.471,150.309 158.611,150.189C158.751,150.069 158.929,150.009 159.145,150.009C159.361,150.009 159.541,150.069 159.685,150.189C159.829,150.309 159.901,150.485 159.901,150.717L159.901,155.349C159.901,155.581 159.829,155.759 159.685,155.883C159.541,156.007 159.361,156.069 159.145,156.069ZM159.145,148.941C158.873,148.941 158.657,148.867 158.497,148.719C158.337,148.571 158.257,148.377 158.257,148.137C158.257,147.897 158.337,147.705 158.497,147.561C158.657,147.417 158.873,147.345 159.145,147.345C159.409,147.345 159.623,147.417 159.787,147.561C159.951,147.705 160.033,147.897 160.033,148.137C160.033,148.377 159.953,148.571 159.793,148.719C159.633,148.867 159.417,148.941 159.145,148.941Z" style="fill:white;fill-rule:nonzero;"/>
                    <path d="M164.857,149.985C165.561,149.985 166.085,150.185 166.429,150.585C166.773,150.985 166.945,151.589 166.945,152.397L166.945,155.349C166.945,155.573 166.879,155.749 166.747,155.877C166.615,156.005 166.433,156.069 166.201,156.069C165.969,156.069 165.785,156.005 165.649,155.877C165.513,155.749 165.445,155.573 165.445,155.349L165.445,152.481C165.445,152.025 165.359,151.693 165.187,151.485C165.015,151.277 164.745,151.173 164.377,151.173C163.945,151.173 163.599,151.309 163.339,151.581C163.079,151.853 162.949,152.217 162.949,152.673L162.949,155.349C162.949,155.573 162.881,155.749 162.745,155.877C162.609,156.005 162.425,156.069 162.193,156.069C161.961,156.069 161.779,156.005 161.647,155.877C161.515,155.749 161.449,155.573 161.449,155.349L161.449,150.705C161.449,150.497 161.517,150.329 161.653,150.201C161.789,150.073 161.973,150.009 162.205,150.009C162.413,150.009 162.583,150.071 162.715,150.195C162.847,150.319 162.913,150.481 162.913,150.681L162.913,151.005C163.113,150.677 163.381,150.425 163.717,150.249C164.053,150.073 164.433,149.985 164.857,149.985Z" style="fill:white;fill-rule:nonzero;"/>
                    <path d="M173.437,150.009C173.661,150.009 173.841,150.073 173.977,150.201C174.113,150.329 174.181,150.501 174.181,150.717L174.181,155.457C174.181,156.377 173.925,157.073 173.413,157.545C172.901,158.017 172.145,158.253 171.145,158.253C170.273,158.253 169.545,158.089 168.961,157.761C168.665,157.585 168.517,157.373 168.517,157.125C168.517,156.949 168.559,156.809 168.643,156.705C168.727,156.601 168.837,156.549 168.973,156.549C169.045,156.549 169.133,156.567 169.237,156.603C169.341,156.639 169.449,156.681 169.561,156.729C169.849,156.849 170.107,156.941 170.335,157.005C170.563,157.069 170.825,157.101 171.121,157.101C172.169,157.101 172.693,156.589 172.693,155.565L172.693,154.797C172.517,155.125 172.261,155.379 171.925,155.559C171.589,155.739 171.205,155.829 170.773,155.829C170.261,155.829 169.807,155.707 169.411,155.463C169.015,155.219 168.705,154.877 168.481,154.437C168.257,153.997 168.145,153.489 168.145,152.913C168.145,152.337 168.255,151.827 168.475,151.383C168.695,150.939 169.005,150.595 169.405,150.351C169.805,150.107 170.261,149.985 170.773,149.985C171.205,149.985 171.589,150.075 171.925,150.255C172.261,150.435 172.517,150.689 172.693,151.017L172.693,150.705C172.693,150.497 172.761,150.329 172.897,150.201C173.033,150.073 173.213,150.009 173.437,150.009ZM171.169,154.665C171.649,154.665 172.023,154.509 172.291,154.197C172.559,153.885 172.693,153.457 172.693,152.913C172.693,152.361 172.559,151.929 172.291,151.617C172.023,151.305 171.649,151.149 171.169,151.149C170.697,151.149 170.325,151.305 170.053,151.617C169.781,151.929 169.645,152.361 169.645,152.913C169.645,153.457 169.781,153.885 170.053,154.197C170.325,154.509 170.697,154.665 171.169,154.665Z" style="fill:white;fill-rule:nonzero;"/>
                    <path d="M179.857,155.997C179.625,155.997 179.443,155.933 179.311,155.805C179.179,155.677 179.113,155.497 179.113,155.265L179.113,148.269C179.113,148.037 179.179,147.857 179.311,147.729C179.443,147.601 179.625,147.537 179.857,147.537L182.233,147.537C183.617,147.537 184.691,147.907 185.455,148.647C186.219,149.387 186.601,150.425 186.601,151.761C186.601,153.105 186.219,154.147 185.455,154.887C184.691,155.627 183.617,155.997 182.233,155.997L179.857,155.997ZM182.137,154.737C184.081,154.737 185.053,153.745 185.053,151.761C185.053,149.785 184.081,148.797 182.137,148.797L180.661,148.797L180.661,154.737L182.137,154.737Z" style="fill:white;fill-rule:nonzero;"/>
                    <path d="M190.573,149.985C191.389,149.985 191.995,150.187 192.391,150.591C192.787,150.995 192.985,151.609 192.985,152.433L192.985,155.361C192.985,155.577 192.921,155.747 192.793,155.871C192.665,155.995 192.489,156.057 192.265,156.057C192.057,156.057 191.887,155.993 191.755,155.865C191.623,155.737 191.557,155.569 191.557,155.361L191.557,155.097C191.421,155.409 191.207,155.653 190.915,155.829C190.623,156.005 190.285,156.093 189.901,156.093C189.509,156.093 189.153,156.013 188.833,155.853C188.513,155.693 188.261,155.473 188.077,155.193C187.893,154.913 187.801,154.601 187.801,154.257C187.801,153.825 187.911,153.485 188.131,153.237C188.351,152.989 188.709,152.809 189.205,152.697C189.701,152.585 190.385,152.529 191.257,152.529L191.557,152.529L191.557,152.253C191.557,151.861 191.473,151.575 191.305,151.395C191.137,151.215 190.865,151.125 190.489,151.125C190.257,151.125 190.021,151.159 189.781,151.227C189.541,151.295 189.257,151.393 188.929,151.521C188.721,151.625 188.569,151.677 188.473,151.677C188.329,151.677 188.211,151.625 188.119,151.521C188.027,151.417 187.981,151.281 187.981,151.113C187.981,150.977 188.015,150.859 188.083,150.759C188.151,150.659 188.265,150.565 188.425,150.477C188.705,150.325 189.039,150.205 189.427,150.117C189.815,150.029 190.197,149.985 190.573,149.985ZM190.201,155.013C190.601,155.013 190.927,154.879 191.179,154.611C191.431,154.343 191.557,153.997 191.557,153.573L191.557,153.321L191.341,153.321C190.805,153.321 190.389,153.345 190.093,153.393C189.797,153.441 189.585,153.525 189.457,153.645C189.329,153.765 189.265,153.929 189.265,154.137C189.265,154.393 189.355,154.603 189.535,154.767C189.715,154.931 189.937,155.013 190.201,155.013Z" style="fill:white;fill-rule:nonzero;"/>
                    <path d="M197.557,154.953C197.957,154.977 198.157,155.157 198.157,155.493C198.157,155.685 198.079,155.831 197.923,155.931C197.767,156.031 197.545,156.073 197.257,156.057L196.933,156.033C195.589,155.937 194.917,155.217 194.917,153.873L194.917,151.257L194.317,151.257C194.101,151.257 193.935,151.209 193.819,151.113C193.703,151.017 193.645,150.877 193.645,150.693C193.645,150.509 193.703,150.369 193.819,150.273C193.935,150.177 194.101,150.129 194.317,150.129L194.917,150.129L194.917,149.025C194.917,148.809 194.985,148.637 195.121,148.509C195.257,148.381 195.441,148.317 195.673,148.317C195.897,148.317 196.077,148.381 196.213,148.509C196.349,148.637 196.417,148.809 196.417,149.025L196.417,150.129L197.437,150.129C197.653,150.129 197.819,150.177 197.935,150.273C198.051,150.369 198.109,150.509 198.109,150.693C198.109,150.877 198.051,151.017 197.935,151.113C197.819,151.209 197.653,151.257 197.437,151.257L196.417,151.257L196.417,153.981C196.417,154.573 196.689,154.889 197.233,154.929L197.557,154.953Z" style="fill:white;fill-rule:nonzero;"/>
                    <path d="M201.481,149.985C202.297,149.985 202.903,150.187 203.299,150.591C203.695,150.995 203.893,151.609 203.893,152.433L203.893,155.361C203.893,155.577 203.829,155.747 203.701,155.871C203.573,155.995 203.397,156.057 203.173,156.057C202.965,156.057 202.795,155.993 202.663,155.865C202.531,155.737 202.465,155.569 202.465,155.361L202.465,155.097C202.329,155.409 202.115,155.653 201.823,155.829C201.531,156.005 201.193,156.093 200.809,156.093C200.417,156.093 200.061,156.013 199.741,155.853C199.421,155.693 199.169,155.473 198.985,155.193C198.801,154.913 198.709,154.601 198.709,154.257C198.709,153.825 198.819,153.485 199.039,153.237C199.259,152.989 199.617,152.809 200.113,152.697C200.609,152.585 201.293,152.529 202.165,152.529L202.465,152.529L202.465,152.253C202.465,151.861 202.381,151.575 202.213,151.395C202.045,151.215 201.773,151.125 201.397,151.125C201.165,151.125 200.929,151.159 200.689,151.227C200.449,151.295 200.165,151.393 199.837,151.521C199.629,151.625 199.477,151.677 199.381,151.677C199.237,151.677 199.119,151.625 199.027,151.521C198.935,151.417 198.889,151.281 198.889,151.113C198.889,150.977 198.923,150.859 198.991,150.759C199.059,150.659 199.173,150.565 199.333,150.477C199.613,150.325 199.947,150.205 200.335,150.117C200.723,150.029 201.105,149.985 201.481,149.985ZM201.109,155.013C201.509,155.013 201.835,154.879 202.087,154.611C202.339,154.343 202.465,153.997 202.465,153.573L202.465,153.321L202.249,153.321C201.713,153.321 201.297,153.345 201.001,153.393C200.705,153.441 200.493,153.525 200.365,153.645C200.237,153.765 200.173,153.929 200.173,154.137C200.173,154.393 200.263,154.603 200.443,154.767C200.623,154.931 200.845,155.013 201.109,155.013Z" style="fill:white;fill-rule:nonzero;"/>
                </g>
            </g>
        </g>
    </g>
</svg>
