<?xml version="1.0" encoding="UTF-8" standalone="no"?>
<!DOCTYPE svg PUBLIC "-//W3C//DTD SVG 1.1//EN" "http://www.w3.org/Graphics/SVG/1.1/DTD/svg11.dtd">
<svg width="100%" height="100%" viewBox="0 0 96 114" version="1.1" xmlns="http://www.w3.org/2000/svg" xmlns:xlink="http://www.w3.org/1999/xlink" xml:space="preserve" xmlns:serif="http://www.serif.com/" style="fill-rule:evenodd;clip-rule:evenodd;">
    <g transform="matrix(1,0,0,1,-253,0)">
        <g id="Group-2">
            <path id="Rectangle-2-Copy-2" d="M348.5,3.5C348.5,1.844 347.156,0.5 345.5,0.5L256.5,0.5C254.844,0.5 253.5,1.844 253.5,3.5L253.5,92.5C253.5,94.156 254.844,95.5 256.5,95.5L345.5,95.5C347.156,95.5 348.5,94.156 348.5,92.5L348.5,3.5Z" style="fill:none;stroke:rgb(255,121,26);stroke-width:1px;"/>
            <g transform="matrix(1,0,0,1,273.871,109.013)">
                <g id="Analytics">
                    <path d="M9.022,-0.611C9.057,-0.542 9.074,-0.468 9.074,-0.39C9.074,-0.26 9.024,-0.152 8.925,-0.065C8.825,0.022 8.706,0.065 8.567,0.065C8.35,0.065 8.199,-0.039 8.112,-0.247L7.189,-2.353L2.288,-2.353L1.352,-0.247C1.265,-0.039 1.114,0.065 0.897,0.065C0.758,0.065 0.637,0.02 0.533,-0.071C0.429,-0.162 0.377,-0.273 0.377,-0.403C0.377,-0.472 0.394,-0.542 0.429,-0.611L4.147,-8.879C4.199,-9 4.277,-9.091 4.381,-9.152C4.485,-9.213 4.598,-9.243 4.719,-9.243C4.849,-9.243 4.966,-9.211 5.07,-9.146C5.174,-9.081 5.252,-8.992 5.304,-8.879L9.022,-0.611ZM2.678,-3.237L6.799,-3.237L4.732,-7.904L2.678,-3.237Z" style="fill:rgb(115,115,115);fill-rule:nonzero;"/>
                    <path d="M13.741,-6.487C15.257,-6.487 16.016,-5.651 16.016,-3.978L16.016,-0.455C16.016,-0.29 15.97,-0.162 15.879,-0.071C15.788,0.02 15.66,0.065 15.496,0.065C15.331,0.065 15.201,0.02 15.106,-0.071C15.01,-0.162 14.963,-0.29 14.963,-0.455L14.963,-3.913C14.963,-4.502 14.848,-4.931 14.618,-5.2C14.388,-5.469 14.022,-5.603 13.52,-5.603C12.939,-5.603 12.475,-5.425 12.129,-5.07C11.782,-4.715 11.609,-4.234 11.609,-3.627L11.609,-0.455C11.609,-0.29 11.563,-0.162 11.472,-0.071C11.381,0.02 11.253,0.065 11.089,0.065C10.924,0.065 10.794,0.02 10.699,-0.071C10.603,-0.162 10.556,-0.29 10.556,-0.455L10.556,-5.941C10.556,-6.097 10.603,-6.223 10.699,-6.318C10.794,-6.413 10.924,-6.461 11.089,-6.461C11.245,-6.461 11.368,-6.413 11.459,-6.318C11.55,-6.223 11.596,-6.101 11.596,-5.954L11.596,-5.291C11.804,-5.681 12.094,-5.978 12.467,-6.182C12.839,-6.385 13.264,-6.487 13.741,-6.487Z" style="fill:rgb(115,115,115);fill-rule:nonzero;"/>
                    <path d="M20.656,-6.487C22.242,-6.487 23.035,-5.655 23.035,-3.991L23.035,-0.455C23.035,-0.299 22.99,-0.173 22.899,-0.078C22.808,0.017 22.684,0.065 22.528,0.065C22.372,0.065 22.246,0.017 22.151,-0.078C22.056,-0.173 22.008,-0.299 22.008,-0.455L22.008,-1.079C21.843,-0.706 21.592,-0.418 21.254,-0.215C20.916,-0.011 20.526,0.091 20.084,0.091C19.677,0.091 19.302,0.009 18.96,-0.156C18.617,-0.321 18.346,-0.55 18.147,-0.845C17.948,-1.14 17.848,-1.465 17.848,-1.82C17.848,-2.297 17.969,-2.667 18.212,-2.932C18.455,-3.196 18.853,-3.387 19.408,-3.504C19.963,-3.621 20.734,-3.679 21.722,-3.679L22.008,-3.679L22.008,-4.108C22.008,-4.628 21.902,-5.009 21.69,-5.252C21.477,-5.495 21.133,-5.616 20.656,-5.616C20.067,-5.616 19.469,-5.456 18.862,-5.135C18.628,-4.988 18.463,-4.914 18.368,-4.914C18.264,-4.914 18.177,-4.953 18.108,-5.031C18.039,-5.109 18.004,-5.209 18.004,-5.33C18.004,-5.451 18.041,-5.558 18.115,-5.649C18.188,-5.739 18.307,-5.833 18.472,-5.928C18.775,-6.101 19.12,-6.238 19.506,-6.337C19.891,-6.437 20.275,-6.487 20.656,-6.487ZM20.227,-0.741C20.747,-0.741 21.174,-0.917 21.508,-1.268C21.841,-1.619 22.008,-2.071 22.008,-2.626L22.008,-3.003L21.774,-3.003C21.011,-3.003 20.431,-2.971 20.032,-2.906C19.633,-2.841 19.35,-2.732 19.181,-2.581C19.012,-2.429 18.927,-2.206 18.927,-1.911C18.927,-1.573 19.051,-1.293 19.298,-1.073C19.545,-0.852 19.854,-0.741 20.227,-0.741Z" style="fill:rgb(115,115,115);fill-rule:nonzero;"/>
                    <path d="M25.622,0.065C25.466,0.065 25.338,0.02 25.238,-0.071C25.139,-0.162 25.089,-0.29 25.089,-0.455L25.089,-8.71C25.089,-8.875 25.139,-9.003 25.238,-9.094C25.338,-9.185 25.466,-9.23 25.622,-9.23C25.769,-9.23 25.893,-9.185 25.992,-9.094C26.092,-9.003 26.142,-8.875 26.142,-8.71L26.142,-0.455C26.142,-0.29 26.092,-0.162 25.992,-0.071C25.893,0.02 25.769,0.065 25.622,0.065Z" style="fill:rgb(115,115,115);fill-rule:nonzero;"/>
                    <path d="M32.797,-6.136C32.893,-6.344 33.044,-6.448 33.252,-6.448C33.382,-6.448 33.499,-6.405 33.603,-6.318C33.707,-6.231 33.759,-6.123 33.759,-5.993C33.759,-5.915 33.742,-5.846 33.707,-5.785L30.054,2.093C30.011,2.188 29.948,2.262 29.866,2.314C29.783,2.366 29.699,2.392 29.612,2.392C29.482,2.392 29.367,2.351 29.268,2.269C29.168,2.186 29.118,2.08 29.118,1.95C29.118,1.881 29.136,1.811 29.17,1.742L30.08,-0.221L27.506,-5.785C27.472,-5.846 27.454,-5.911 27.454,-5.98C27.454,-6.11 27.513,-6.223 27.63,-6.318C27.747,-6.413 27.875,-6.461 28.013,-6.461C28.1,-6.461 28.184,-6.435 28.267,-6.383C28.349,-6.331 28.412,-6.257 28.455,-6.162L30.626,-1.287L32.797,-6.136Z" style="fill:rgb(115,115,115);fill-rule:nonzero;"/>
                    <path d="M38.114,-0.767C38.417,-0.741 38.569,-0.602 38.569,-0.351C38.569,-0.204 38.515,-0.093 38.406,-0.02C38.298,0.054 38.136,0.082 37.919,0.065L37.568,0.039C36.875,-0.013 36.363,-0.221 36.034,-0.585C35.705,-0.949 35.54,-1.499 35.54,-2.236L35.54,-5.499L34.669,-5.499C34.522,-5.499 34.407,-5.536 34.324,-5.61C34.242,-5.683 34.201,-5.781 34.201,-5.902C34.201,-6.032 34.242,-6.136 34.324,-6.214C34.407,-6.292 34.522,-6.331 34.669,-6.331L35.54,-6.331L35.54,-7.8C35.54,-7.965 35.588,-8.093 35.683,-8.184C35.778,-8.275 35.908,-8.32 36.073,-8.32C36.229,-8.32 36.355,-8.275 36.45,-8.184C36.545,-8.093 36.593,-7.965 36.593,-7.8L36.593,-6.331L38.036,-6.331C38.175,-6.331 38.285,-6.292 38.367,-6.214C38.45,-6.136 38.491,-6.032 38.491,-5.902C38.491,-5.781 38.45,-5.683 38.367,-5.61C38.285,-5.536 38.175,-5.499 38.036,-5.499L36.593,-5.499L36.593,-2.184C36.593,-1.707 36.69,-1.363 36.885,-1.15C37.08,-0.938 37.373,-0.819 37.763,-0.793L38.114,-0.767Z" style="fill:rgb(115,115,115);fill-rule:nonzero;"/>
                    <path d="M40.271,0.065C40.115,0.065 39.988,0.02 39.888,-0.071C39.788,-0.162 39.738,-0.29 39.738,-0.455L39.738,-5.941C39.738,-6.106 39.788,-6.234 39.888,-6.324C39.988,-6.416 40.115,-6.461 40.271,-6.461C40.427,-6.461 40.553,-6.416 40.648,-6.324C40.744,-6.234 40.791,-6.106 40.791,-5.941L40.791,-0.455C40.791,-0.282 40.744,-0.152 40.648,-0.065C40.553,0.022 40.427,0.065 40.271,0.065ZM40.271,-7.826C40.063,-7.826 39.894,-7.887 39.764,-8.008C39.634,-8.129 39.569,-8.29 39.569,-8.489C39.569,-8.68 39.634,-8.836 39.764,-8.957C39.894,-9.078 40.063,-9.139 40.271,-9.139C40.479,-9.139 40.648,-9.078 40.778,-8.957C40.908,-8.836 40.973,-8.68 40.973,-8.489C40.973,-8.29 40.908,-8.129 40.778,-8.008C40.648,-7.887 40.479,-7.826 40.271,-7.826Z" style="fill:rgb(115,115,115);fill-rule:nonzero;"/>
                    <path d="M45.497,0.091C44.908,0.091 44.385,-0.043 43.93,-0.312C43.475,-0.581 43.124,-0.962 42.877,-1.456C42.63,-1.95 42.507,-2.522 42.507,-3.172C42.507,-3.822 42.635,-4.398 42.89,-4.901C43.146,-5.404 43.504,-5.794 43.963,-6.071C44.422,-6.348 44.951,-6.487 45.549,-6.487C45.878,-6.487 46.205,-6.441 46.53,-6.351C46.855,-6.26 47.139,-6.127 47.382,-5.954C47.538,-5.85 47.648,-5.748 47.713,-5.649C47.778,-5.549 47.811,-5.438 47.811,-5.317C47.811,-5.196 47.778,-5.096 47.713,-5.018C47.648,-4.94 47.564,-4.901 47.46,-4.901C47.399,-4.901 47.334,-4.918 47.265,-4.953C47.196,-4.988 47.137,-5.022 47.089,-5.057C47.042,-5.092 47.009,-5.113 46.992,-5.122C46.767,-5.269 46.552,-5.386 46.348,-5.473C46.145,-5.56 45.896,-5.603 45.601,-5.603C44.968,-5.603 44.476,-5.389 44.125,-4.96C43.774,-4.531 43.599,-3.935 43.599,-3.172C43.599,-2.409 43.774,-1.82 44.125,-1.404C44.476,-0.988 44.968,-0.78 45.601,-0.78C45.896,-0.78 46.149,-0.823 46.361,-0.91C46.574,-0.997 46.788,-1.114 47.005,-1.261C47.1,-1.322 47.191,-1.374 47.278,-1.417C47.365,-1.46 47.438,-1.482 47.499,-1.482C47.594,-1.482 47.674,-1.443 47.739,-1.365C47.804,-1.287 47.837,-1.187 47.837,-1.066C47.837,-0.953 47.807,-0.852 47.746,-0.761C47.685,-0.67 47.573,-0.568 47.408,-0.455C47.165,-0.29 46.873,-0.158 46.53,-0.059C46.188,0.041 45.844,0.091 45.497,0.091Z" style="fill:rgb(115,115,115);fill-rule:nonzero;"/>
                    <path d="M51.373,0.091C50.974,0.091 50.595,0.043 50.235,-0.052C49.875,-0.147 49.557,-0.282 49.28,-0.455C49.124,-0.559 49.013,-0.657 48.948,-0.748C48.883,-0.839 48.851,-0.949 48.851,-1.079C48.851,-1.192 48.883,-1.285 48.948,-1.359C49.013,-1.432 49.098,-1.469 49.202,-1.469C49.306,-1.469 49.457,-1.404 49.657,-1.274C49.917,-1.118 50.174,-0.994 50.43,-0.904C50.686,-0.813 51.004,-0.767 51.386,-0.767C51.854,-0.767 52.218,-0.849 52.478,-1.014C52.738,-1.179 52.868,-1.417 52.868,-1.729C52.868,-1.92 52.82,-2.074 52.725,-2.191C52.629,-2.308 52.465,-2.412 52.231,-2.503C51.997,-2.594 51.654,-2.687 51.204,-2.782C50.441,-2.947 49.895,-3.168 49.566,-3.445C49.236,-3.722 49.072,-4.099 49.072,-4.576C49.072,-4.949 49.176,-5.278 49.384,-5.564C49.592,-5.85 49.88,-6.075 50.248,-6.24C50.616,-6.405 51.035,-6.487 51.503,-6.487C51.841,-6.487 52.168,-6.441 52.484,-6.351C52.8,-6.26 53.08,-6.132 53.323,-5.967C53.617,-5.759 53.765,-5.542 53.765,-5.317C53.765,-5.204 53.73,-5.109 53.661,-5.031C53.591,-4.953 53.509,-4.914 53.414,-4.914C53.31,-4.914 53.154,-4.988 52.946,-5.135C52.703,-5.291 52.473,-5.412 52.257,-5.499C52.04,-5.586 51.771,-5.629 51.451,-5.629C51.043,-5.629 50.716,-5.538 50.469,-5.356C50.222,-5.174 50.099,-4.931 50.099,-4.628C50.099,-4.437 50.144,-4.284 50.235,-4.167C50.326,-4.05 50.478,-3.946 50.69,-3.854C50.902,-3.764 51.208,-3.675 51.607,-3.588C52.196,-3.458 52.653,-3.315 52.978,-3.159C53.303,-3.003 53.535,-2.812 53.674,-2.587C53.812,-2.362 53.882,-2.076 53.882,-1.729C53.882,-1.183 53.652,-0.743 53.193,-0.409C52.733,-0.076 52.127,0.091 51.373,0.091Z" style="fill:rgb(115,115,115);fill-rule:nonzero;"/>
                </g>
            </g>
            <g id="Icon_Service_Analytics_Color" transform="matrix(1,0,0,1,276,23)">
                <g id="chart">
                    <path id="Combined-Shape" d="M16.018,16.118C13.422,18.997 11.839,22.819 11.839,27.015C11.839,28.364 12.003,29.674 12.311,30.927L8.88,30.927L8.88,4.099L16.018,4.099L16.018,16.118Z" style="fill:rgb(255,141,32);"/>
                    <rect id="Rectangle-4" x="0" y="12.669" width="7.139" height="18.258" style="fill:rgb(83,83,90);"/>
                    <path id="Combined-Shape1" d="M33.963,11.982C32.09,11.212 30.041,10.787 27.894,10.787C27.534,10.787 27.177,10.799 26.824,10.823L26.824,7.452L33.963,7.452L33.963,11.982Z" style="fill:rgb(83,83,90);"/>
                    <path id="Combined-Shape2" d="M24.898,11.068C22.226,11.576 19.787,12.75 17.759,14.412L17.759,0L24.898,0L24.898,11.068Z" style="fill:rgb(83,83,90);"/>
                </g>
                <g id="Shape" transform="matrix(1,0,0,1,38,37)">
                    <path d="M12.492,7.861L5.802,1.172C5.341,0.709 4.591,0.709 4.129,1.172L3.771,1.529L2.382,0.14C1.69,1.034 0.913,1.858 0.049,2.586L1.381,3.918L1.024,4.277C0.562,4.738 0.562,5.487 1.024,5.95L7.714,12.639C8.176,13.102 8.924,13.102 9.386,12.639L12.492,9.534C12.954,9.071 12.954,8.323 12.492,7.861" style="fill:rgb(83,83,90);"/>
                </g>
                <g id="Shape1" serif:id="Shape" transform="matrix(1,0,0,1,14,12)">
                    <path d="M21.86,21.749C25.989,17.62 25.989,10.926 21.86,6.797C17.731,2.669 11.038,2.669 6.909,6.797C2.78,10.926 2.78,17.62 6.909,21.749C11.038,25.878 17.731,25.878 21.86,21.749M24.585,24.698C18.963,30.321 9.848,30.321 4.226,24.698C-1.397,19.077 -1.397,9.961 4.226,4.339C9.848,-1.282 18.963,-1.282 24.585,4.339C30.207,9.961 30.207,19.077 24.585,24.698" style="fill:rgb(128,128,138);"/>
                </g>
                <g id="Shape2" serif:id="Shape" transform="matrix(1,0,0,1,21,23)">
                    <path d="M7.335,9.856C7.335,9.856 1.581,7.849 0.313,4.509C-1.108,0.77 4.159,-0.083 9.547,0.065C12.45,0.145 15.999,0.573 15.999,0.573C15.999,0.573 7.615,1.607 4.586,3.975C1.628,6.288 7.335,9.856 7.335,9.856" style="fill:rgb(255,108,12);"/>
                </g>
            </g>
        </g>
    </g>
</svg>
