<?xml version="1.0" encoding="UTF-8" standalone="no"?>
<!DOCTYPE svg PUBLIC "-//W3C//DTD SVG 1.1//EN" "http://www.w3.org/Graphics/SVG/1.1/DTD/svg11.dtd">
<svg width="100%" height="100%" viewBox="0 0 131 130" version="1.1" xmlns="http://www.w3.org/2000/svg" xmlns:xlink="http://www.w3.org/1999/xlink" xml:space="preserve" xmlns:serif="http://www.serif.com/" style="fill-rule:evenodd;clip-rule:evenodd;stroke-linejoin:round;stroke-miterlimit:1.41421;">
    <g transform="matrix(1,0,0,1,-1127,-456)">
        <g transform="matrix(0.115795,0,0,0.115795,673.863,355.253)">
            <g transform="matrix(0.528902,0,0,0.528902,1788,566.66)">
                <g transform="matrix(1,0,0,1,-47.7299,0)">
                    <g transform="matrix(4.16667,0,0,4.16667,3031.58,-235.715)">
                        <path d="M357.941,211.01C357.941,203.65 351.974,197.684 344.615,197.684L261.803,197.684C254.444,197.684 248.477,203.65 248.477,211.01L248.477,217.673L357.941,217.673L357.941,211.01Z" style="fill:rgb(185,185,185);fill-rule:nonzero;"/>
                    </g>
                    <g transform="matrix(4.16667,0,0,4.16667,3031.58,-235.715)">
                        <rect x="248.477" y="221.762" width="109.464" height="15.23" style="fill:rgb(185,185,185);fill-rule:nonzero;"/>
                    </g>
                    <g transform="matrix(4.16667,0,0,4.16667,3031.58,-235.715)">
                        <path d="M255.372,304.226C267.541,307.876 284.249,311.368 304.204,311.249C323.244,311.136 339.236,307.77 351.054,304.224C355.151,302.994 357.941,299.206 357.941,294.93L357.941,277.101L357.941,250.171L357.941,241.403L248.477,241.403L248.477,294.929C248.477,299.209 251.272,302.995 255.372,304.226Z" style="fill:rgb(185,185,185);fill-rule:nonzero;"/>
                    </g>
                    <g transform="matrix(8.63593,0,0,8.63593,-2225.43,-3228.32)">
                        <path d="M763.118,484.781C763.198,484.973 763.238,485.133 763.238,485.261C763.238,485.565 763.114,485.821 762.866,486.029C762.618,486.237 762.342,486.341 762.038,486.341C761.83,486.341 761.634,486.281 761.45,486.161C761.266,486.041 761.126,485.869 761.03,485.645L759.446,482.045L750.662,482.045L749.078,485.645C748.982,485.869 748.838,486.041 748.646,486.161C748.454,486.281 748.254,486.341 748.046,486.341C747.726,486.341 747.442,486.237 747.194,486.029C746.946,485.821 746.822,485.565 746.822,485.261C746.822,485.133 746.862,484.973 746.942,484.781L753.71,469.973C753.822,469.717 754.002,469.517 754.25,469.373C754.498,469.229 754.758,469.157 755.03,469.157C755.302,469.157 755.562,469.229 755.81,469.373C756.058,469.517 756.238,469.717 756.35,469.973L763.118,484.781ZM751.55,480.077L758.582,480.077L755.054,472.133L751.55,480.077Z" style="fill:white;fill-rule:nonzero;"/>
                    </g>
                </g>
                <g transform="matrix(1,0,0,1,-57.295,-36.7096)">
                    <g transform="matrix(4.16667,0,0,4.16667,2490.92,179.061)">
                        <path d="M489.994,249.931C489.994,242.57 484.027,236.604 476.667,236.604L393.856,236.604C386.497,236.604 380.53,242.57 380.53,249.931L380.53,256.594L489.994,256.594L489.994,249.931Z" style="fill:rgb(185,185,185);fill-rule:nonzero;"/>
                    </g>
                    <g transform="matrix(4.16667,0,0,4.16667,2490.92,179.061)">
                        <rect x="380.53" y="260.683" width="109.464" height="15.229" style="fill:rgb(185,185,185);fill-rule:nonzero;"/>
                    </g>
                    <g transform="matrix(4.16667,0,0,4.16667,2490.92,179.061)">
                        <path d="M387.424,343.146C399.593,346.797 416.3,350.289 436.256,350.17C455.296,350.056 471.289,346.69 483.107,343.144C487.203,341.914 489.994,338.127 489.994,333.85L489.994,316.021L489.994,289.091L489.994,280.323L380.53,280.323L380.53,333.849C380.53,338.13 383.325,341.916 387.424,343.146Z" style="fill:rgb(185,185,185);fill-rule:nonzero;"/>
                    </g>
                    <g transform="matrix(8.63593,0,0,8.63593,-2215.68,-2641.23)">
                        <path d="M758.822,477.509C759.798,477.781 760.554,478.269 761.09,478.973C761.626,479.677 761.894,480.557 761.894,481.613C761.894,483.069 761.394,484.201 760.394,485.009C759.394,485.817 757.998,486.221 756.206,486.221L750.086,486.221C749.702,486.221 749.402,486.113 749.186,485.897C748.97,485.681 748.862,485.389 748.862,485.021L748.862,470.501C748.862,470.133 748.97,469.841 749.186,469.625C749.402,469.409 749.702,469.301 750.086,469.301L755.942,469.301C757.686,469.301 759.05,469.689 760.034,470.465C761.018,471.241 761.51,472.325 761.51,473.717C761.51,474.613 761.274,475.389 760.802,476.045C760.33,476.701 759.67,477.189 758.822,477.509ZM751.286,476.621L755.558,476.621C757.926,476.621 759.11,475.725 759.11,473.933C759.11,473.037 758.818,472.373 758.234,471.941C757.65,471.509 756.758,471.293 755.558,471.293L751.286,471.293L751.286,476.621ZM755.942,484.229C757.174,484.229 758.078,484.005 758.654,483.557C759.23,483.109 759.518,482.413 759.518,481.469C759.518,480.509 759.226,479.793 758.642,479.321C758.058,478.849 757.158,478.613 755.942,478.613L751.286,478.613L751.286,484.229L755.942,484.229Z" style="fill:white;fill-rule:nonzero;"/>
                    </g>
                </g>
                <g transform="matrix(1,0,0,1,73.2991,-99.7922)">
                    <g transform="matrix(4.16667,0,0,4.16667,1807.61,944.391)">
                        <path d="M622.647,211.01C622.647,203.65 616.68,197.684 609.321,197.684L526.509,197.684C519.15,197.684 513.182,203.65 513.182,211.01L513.182,217.673L622.647,217.673L622.647,211.01Z" style="fill:rgb(185,185,185);fill-rule:nonzero;"/>
                    </g>
                    <g transform="matrix(4.16667,0,0,4.16667,1807.61,944.391)">
                        <rect x="513.182" y="221.762" width="109.465" height="15.23" style="fill:rgb(185,185,185);fill-rule:nonzero;"/>
                    </g>
                    <g transform="matrix(4.16667,0,0,4.16667,1807.61,944.391)">
                        <path d="M520.078,304.226C532.247,307.876 548.955,311.368 568.91,311.249C587.95,311.136 603.942,307.77 615.76,304.224C619.857,302.994 622.647,299.206 622.647,294.93L622.647,277.101L622.647,250.171L622.647,241.403L513.182,241.403L513.182,294.929C513.182,299.209 515.978,302.995 520.078,304.226Z" style="fill:rgb(185,185,185);fill-rule:nonzero;"/>
                    </g>
                    <g transform="matrix(8.63593,0,0,8.63593,-2346.59,-2035.34)">
                        <path d="M756.242,486.413C754.626,486.413 753.218,486.065 752.018,485.369C750.818,484.673 749.898,483.673 749.258,482.369C748.618,481.065 748.298,479.525 748.298,477.749C748.298,475.989 748.618,474.457 749.258,473.153C749.898,471.849 750.818,470.849 752.018,470.153C753.218,469.457 754.626,469.109 756.242,469.109C757.298,469.109 758.298,469.273 759.242,469.601C760.186,469.929 761.01,470.405 761.714,471.029C762.018,471.269 762.17,471.589 762.17,471.989C762.17,472.277 762.09,472.521 761.93,472.721C761.77,472.921 761.578,473.021 761.354,473.021C761.082,473.021 760.818,472.917 760.562,472.709C759.794,472.133 759.094,471.729 758.462,471.497C757.83,471.265 757.114,471.149 756.314,471.149C754.554,471.149 753.202,471.717 752.258,472.853C751.314,473.989 750.842,475.621 750.842,477.749C750.842,479.893 751.314,481.533 752.258,482.669C753.202,483.805 754.554,484.373 756.314,484.373C757.082,484.373 757.782,484.253 758.414,484.013C759.046,483.773 759.762,483.373 760.562,482.813C760.882,482.605 761.146,482.501 761.354,482.501C761.578,482.501 761.77,482.601 761.93,482.801C762.09,483.001 762.17,483.245 762.17,483.533C762.17,483.933 762.018,484.253 761.714,484.493C761.01,485.117 760.186,485.593 759.242,485.921C758.298,486.249 757.298,486.413 756.242,486.413Z" style="fill:white;fill-rule:nonzero;"/>
                    </g>
                </g>
                <g transform="matrix(1,0,0,1,73.2991,-85.4122)">
                    <g transform="matrix(4.16667,0,0,4.16667,1256.99,1633.24)">
                        <path d="M754.795,171.728C754.795,164.367 748.829,158.401 741.469,158.401L658.658,158.401C651.298,158.401 645.332,164.367 645.332,171.728L645.332,178.39L754.795,178.39L754.795,171.728Z" style="fill:white;fill-rule:nonzero;"/>
                        <path d="M741.813,158.405L742.155,158.418L742.494,158.44L742.832,158.47L743.166,158.508L743.498,158.555L743.828,158.609L744.155,158.672L744.479,158.742L744.799,158.821L745.117,158.907L745.432,159L745.743,159.101L746.051,159.21L746.355,159.325L746.656,159.448L746.953,159.578L747.246,159.715L747.536,159.859L747.821,160.009L748.102,160.167L748.379,160.33L748.652,160.5L748.92,160.677L749.183,160.86L749.442,161.048L749.696,161.243L749.946,161.444L750.19,161.651L750.429,161.863L750.663,162.081L750.892,162.304L751.115,162.533L751.333,162.767L751.545,163.006L751.752,163.251L751.953,163.5L752.148,163.754L752.336,164.013L752.519,164.276L752.696,164.545L752.866,164.817L753.029,165.094L753.187,165.375L753.337,165.661L753.481,165.95L753.618,166.243L753.748,166.54L753.871,166.841L753.986,167.145L754.095,167.453L754.196,167.765L754.289,168.079L754.375,168.397L754.454,168.718L754.524,169.042L754.587,169.369L754.641,169.698L754.688,170.031L754.726,170.365L754.756,170.703L754.778,171.042L754.791,171.384L754.795,171.728L754.795,178.39L645.332,178.39L645.332,171.728L645.336,171.384L645.349,171.042L645.371,170.703L645.401,170.365L645.439,170.031L645.486,169.698L645.54,169.369L645.603,169.042L645.673,168.718L645.751,168.397L645.837,168.079L645.931,167.765L646.032,167.453L646.141,167.145L646.256,166.841L646.379,166.54L646.509,166.243L646.646,165.95L646.79,165.661L646.94,165.375L647.097,165.094L647.261,164.817L647.431,164.545L647.608,164.276L647.79,164.013L647.979,163.754L648.174,163.5L648.375,163.251L648.581,163.006L648.794,162.767L649.012,162.533L649.235,162.304L649.464,162.081L649.698,161.863L649.937,161.651L650.181,161.444L650.431,161.243L650.685,161.048L650.944,160.86L651.207,160.677L651.475,160.5L651.748,160.33L652.025,160.167L652.306,160.009L652.591,159.859L652.881,159.715L653.174,159.578L653.471,159.448L653.772,159.325L654.076,159.21L654.384,159.101L654.695,159L655.01,158.907L655.328,158.821L655.648,158.742L655.972,158.672L656.299,158.609L656.629,158.555L656.961,158.508L657.295,158.47L657.633,158.44L657.972,158.418L658.314,158.405L658.658,158.401L741.469,158.401L741.813,158.405ZM658.709,166.238L658.514,166.241L658.367,166.246L658.227,166.255L658.088,166.268L657.948,166.284L657.812,166.303L657.676,166.325L657.543,166.351L657.411,166.379L657.281,166.411L657.152,166.446L657.024,166.484L656.897,166.526L656.771,166.57L656.645,166.618L656.523,166.668L656.403,166.72L656.283,166.776L656.164,166.835L656.047,166.897L655.932,166.961L655.819,167.028L655.705,167.099L655.595,167.171L655.486,167.247L655.378,167.326L655.273,167.407L655.171,167.489L655.07,167.574L654.969,167.664L654.872,167.754L654.778,167.845L654.685,167.942L654.594,168.039L654.505,168.14L654.42,168.24L654.338,168.341L654.257,168.447L654.178,168.556L654.103,168.664L654.029,168.776L653.96,168.887L653.892,169.001L653.827,169.118L653.767,169.232L653.708,169.35L653.651,169.472L653.599,169.592L653.548,169.717L653.5,169.843L653.457,169.964L653.416,170.092L653.377,170.22L653.343,170.349L653.31,170.481L653.295,170.553L746.832,170.553L746.816,170.481L746.784,170.349L746.75,170.22L746.711,170.092L746.67,169.964L746.626,169.839L746.58,169.717L746.53,169.596L746.476,169.472L746.419,169.35L746.36,169.232L746.298,169.115L746.235,169.001L746.167,168.887L746.096,168.773L746.024,168.664L745.949,168.556L745.872,168.45L745.791,168.343L745.707,168.24L745.62,168.137L745.531,168.037L745.443,167.942L745.351,167.848L745.255,167.754L745.156,167.662L745.059,167.576L744.956,167.489L744.852,167.405L744.749,167.326L744.643,167.248L744.532,167.171L744.42,167.098L744.31,167.029L744.196,166.962L744.08,166.897L743.961,166.834L743.844,166.776L743.725,166.721L743.602,166.667L743.48,166.617L743.356,166.57L743.231,166.526L743.105,166.485L742.976,166.446L742.846,166.411L742.716,166.379L742.584,166.351L742.45,166.325L742.314,166.303L742.179,166.284L742.04,166.268L741.899,166.255L741.759,166.246L741.614,166.241L741.418,166.238L658.709,166.238Z" style="fill:rgb(185,185,185);"/>
                    </g>
                    <g transform="matrix(4.16667,0,0,4.16667,1256.99,1633.24)">
                        <rect x="645.332" y="182.479" width="109.463" height="15.23" style="fill:white;fill-rule:nonzero;"/>
                        <path d="M754.795,197.709L645.332,197.709L645.332,182.479L754.795,182.479L754.795,197.709ZM651.21,188.357L651.21,191.831L748.917,191.831L748.917,188.357L651.21,188.357Z" style="fill:rgb(185,185,185);"/>
                    </g>
                    <g transform="matrix(4.16667,0,0,4.16667,1256.99,1633.24)">
                        <path d="M652.226,264.942C664.395,268.593 681.102,272.085 701.058,271.966C720.098,271.853 736.09,268.486 747.908,264.94C752.004,263.711 754.795,259.923 754.795,255.646L754.795,237.818L754.795,210.888L754.795,202.12L645.332,202.12L645.332,255.646C645.332,259.926 648.125,263.713 652.226,264.942Z" style="fill:white;fill-rule:nonzero;"/>
                        <path d="M754.795,255.646L754.793,255.846L754.787,256.045L754.777,256.244L754.763,256.442L754.745,256.638L754.723,256.834L754.697,257.029L754.667,257.223L754.634,257.416L754.596,257.607L754.555,257.797L754.51,257.987L754.462,258.174L754.41,258.361L754.354,258.546L754.295,258.73L754.232,258.912L754.166,259.093L754.096,259.272L754.023,259.449L753.946,259.625L753.866,259.799L753.783,259.972L753.696,260.142L753.606,260.311L753.513,260.478L753.416,260.643L753.317,260.805L753.214,260.966L753.108,261.125L752.999,261.282L752.888,261.436L752.773,261.588L752.655,261.738L752.534,261.886L752.41,262.031L752.284,262.174L752.154,262.314L752.022,262.452L751.887,262.587L751.749,262.72L751.609,262.85L751.466,262.977L751.32,263.101L751.172,263.223L751.021,263.342L750.868,263.458L750.712,263.571L750.554,263.681L750.393,263.788L750.23,263.892L750.065,263.992L749.897,264.09L749.727,264.184L749.554,264.275L749.38,264.363L749.203,264.448L749.024,264.529L748.843,264.606L748.66,264.68L748.475,264.751L748.288,264.817L748.099,264.881L747.908,264.94L746.788,265.272L745.644,265.602L744.475,265.93L743.283,266.255L742.067,266.577L740.828,266.895L739.565,267.209L738.279,267.518L736.971,267.821L735.64,268.118L734.287,268.408L733.602,268.551L732.911,268.692L732.215,268.83L731.514,268.967L730.807,269.101L730.094,269.234L729.377,269.364L728.654,269.492L727.925,269.617L727.191,269.74L726.452,269.861L725.708,269.979L724.958,270.094L724.204,270.207L723.444,270.316L722.678,270.423L721.908,270.527L721.133,270.628L720.352,270.726L719.567,270.821L718.776,270.912L717.981,271.001L717.18,271.085L716.375,271.167L715.564,271.245L714.749,271.319L713.929,271.39L713.104,271.457L712.274,271.52L711.439,271.58L710.6,271.635L709.755,271.686L708.907,271.734L708.053,271.777L707.195,271.816L706.332,271.851L705.464,271.881L704.592,271.907L703.715,271.929L702.834,271.946L701.948,271.958L701.058,271.966L700.125,271.969L699.197,271.967L698.273,271.959L697.355,271.947L696.441,271.929L695.532,271.907L694.628,271.88L693.729,271.848L692.835,271.812L691.946,271.77L691.063,271.725L690.184,271.675L689.31,271.62L688.442,271.562L687.578,271.499L686.72,271.432L685.867,271.361L685.02,271.286L684.177,271.208L683.34,271.125L682.509,271.039L681.682,270.949L680.862,270.855L680.046,270.759L679.236,270.658L678.432,270.555L677.633,270.448L676.839,270.338L676.052,270.225L675.269,270.109L674.493,269.99L673.722,269.868L672.957,269.743L672.197,269.616L671.444,269.486L670.696,269.354L669.954,269.219L669.217,269.082L668.487,268.942L667.763,268.8L667.044,268.656L666.332,268.511L665.625,268.363L664.925,268.213L664.23,268.061L663.542,267.908L662.183,267.597L660.85,267.279L659.541,266.956L658.258,266.629L657,266.297L655.767,265.962L654.561,265.624L653.38,265.284L652.226,264.942L652.035,264.883L651.845,264.819L651.658,264.753L651.473,264.682L651.289,264.608L651.108,264.531L650.929,264.45L650.752,264.365L650.578,264.278L650.405,264.186L650.235,264.092L650.067,263.995L649.901,263.894L649.738,263.79L649.577,263.683L649.419,263.573L649.263,263.46L649.109,263.344L648.958,263.225L648.81,263.103L648.664,262.979L648.521,262.852L648.38,262.722L648.242,262.589L648.107,262.454L647.975,262.316L647.846,262.176L647.719,262.033L647.595,261.888L647.474,261.74L647.356,261.59L647.241,261.438L647.129,261.284L647.02,261.127L646.914,260.968L646.811,260.808L646.712,260.645L646.615,260.48L646.522,260.313L646.432,260.144L646.345,259.974L646.262,259.801L646.182,259.627L646.105,259.451L646.032,259.274L645.962,259.094L645.895,258.914L645.832,258.731L645.773,258.548L645.717,258.362L645.665,258.176L645.617,257.988L645.572,257.799L645.531,257.608L645.494,257.417L645.46,257.224L645.43,257.03L645.404,256.835L645.382,256.639L645.364,256.442L645.35,256.244L645.34,256.046L645.334,255.846L645.332,255.646L645.332,202.12L754.795,202.12L754.795,255.646ZM653.17,209.957L653.17,255.606L653.17,255.692L653.172,255.729L653.173,255.765L653.176,255.805L653.18,255.845L653.184,255.882L653.189,255.917L653.195,255.957L653.202,255.997L653.209,256.034L653.217,256.069L653.225,256.104L653.235,256.143L653.245,256.181L653.254,256.21L653.265,256.244L653.279,256.283L653.293,256.321L653.307,256.358L653.318,256.385L653.333,256.42L653.351,256.458L653.367,256.492L653.382,256.522L653.4,256.555L653.42,256.591L653.436,256.618L653.457,256.651L653.476,256.682L653.498,256.715L653.519,256.745L653.54,256.773L653.563,256.804L653.586,256.834L653.61,256.863L653.63,256.887L653.657,256.916L653.683,256.945L653.707,256.97L653.732,256.995L653.757,257.019L653.787,257.047L653.81,257.067L653.836,257.089L653.87,257.117L653.896,257.138L653.922,257.157L653.954,257.18L653.985,257.202L654.012,257.22L654.039,257.237L654.071,257.257L654.108,257.278L654.134,257.293L654.165,257.309L654.197,257.325L654.231,257.341L654.266,257.357L654.3,257.371L654.332,257.385L654.364,257.397L654.403,257.41L654.44,257.423L654.503,257.442L655.578,257.761L656.703,258.085L657.852,258.407L659.026,258.726L660.225,259.042L661.449,259.354L662.696,259.662L663.967,259.965L665.27,260.263L665.917,260.408L666.58,260.552L667.247,260.695L667.92,260.836L668.599,260.975L669.285,261.112L669.975,261.247L670.67,261.38L671.372,261.511L672.08,261.639L672.792,261.766L673.51,261.889L674.235,262.011L674.964,262.129L675.698,262.245L676.438,262.359L677.184,262.469L677.934,262.577L678.69,262.682L679.451,262.784L680.218,262.882L680.99,262.978L681.768,263.07L682.55,263.16L683.336,263.245L684.129,263.327L684.927,263.406L685.729,263.481L686.537,263.552L687.35,263.62L688.168,263.684L688.99,263.744L689.817,263.799L690.65,263.851L691.487,263.899L692.33,263.942L693.176,263.982L694.028,264.016L694.885,264.047L695.746,264.073L696.612,264.094L697.482,264.11L698.358,264.122L699.238,264.129L700.122,264.132L701.012,264.129L701.86,264.121L702.703,264.11L703.544,264.093L704.379,264.073L705.21,264.048L706.036,264.019L706.859,263.986L707.677,263.949L708.49,263.907L709.299,263.862L710.103,263.813L710.903,263.76L711.698,263.704L712.488,263.644L713.275,263.58L714.057,263.512L714.833,263.442L715.605,263.367L716.373,263.29L717.136,263.209L717.894,263.125L718.647,263.038L719.396,262.947L720.14,262.854L720.878,262.758L721.612,262.659L722.341,262.557L723.065,262.452L723.784,262.345L724.499,262.235L725.208,262.123L725.913,262.008L726.612,261.891L727.306,261.771L727.995,261.649L728.679,261.525L729.359,261.399L730.032,261.271L730.7,261.141L731.364,261.009L732.022,260.874L732.667,260.74L733.964,260.462L735.233,260.179L736.48,259.89L737.705,259.596L738.908,259.297L740.089,258.994L741.248,258.687L742.385,258.377L743.498,258.064L744.588,257.749L745.632,257.44L745.692,257.421L745.729,257.409L745.765,257.396L745.796,257.385L745.831,257.37L745.864,257.356L745.899,257.34L745.932,257.324L745.959,257.311L745.995,257.292L746.027,257.274L746.054,257.258L746.086,257.239L746.114,257.221L746.146,257.2L746.173,257.181L746.203,257.159L746.234,257.136L746.26,257.116L746.288,257.093L746.315,257.07L746.339,257.047L746.369,257.02L746.394,256.996L746.419,256.971L746.446,256.943L746.469,256.918L746.495,256.888L746.52,256.859L746.543,256.832L746.562,256.808L746.587,256.774L746.611,256.741L746.627,256.718L746.649,256.685L746.668,256.654L746.689,256.621L746.711,256.584L746.729,256.551L746.743,256.525L746.76,256.49L746.778,256.453L746.792,256.424L746.807,256.39L746.821,256.355L746.835,256.319L746.849,256.28L746.86,256.248L746.871,256.215L746.882,256.178L746.893,256.14L746.903,256.102L746.911,256.068L746.918,256.032L746.926,255.995L746.932,255.956L746.938,255.923L746.942,255.887L746.947,255.844L746.951,255.805L746.954,255.764L746.956,255.722L746.957,255.685L746.958,255.606L746.958,209.957L653.17,209.957Z" style="fill:rgb(185,185,185);"/>
                    </g>
                    <g transform="matrix(8.63593,0,0,8.63593,-2342.42,-1512.16)">
                        <path d="M749.27,486.221C748.886,486.221 748.586,486.113 748.37,485.897C748.154,485.681 748.046,485.389 748.046,485.021L748.046,470.501C748.046,470.133 748.154,469.841 748.37,469.625C748.586,469.409 748.886,469.301 749.27,469.301L753.974,469.301C756.71,469.301 758.83,470.037 760.334,471.509C761.838,472.981 762.59,475.061 762.59,477.749C762.59,480.437 761.838,482.521 760.334,484.001C758.83,485.481 756.71,486.221 753.974,486.221L749.27,486.221ZM753.83,484.157C757.99,484.157 760.07,482.021 760.07,477.749C760.07,473.493 757.99,471.365 753.83,471.365L750.518,471.365L750.518,484.157L753.83,484.157Z" style="fill:rgb(185,185,185);fill-rule:nonzero;"/>
                    </g>
                </g>
                <g transform="matrix(14.7594,0,0,14.7594,-8211.01,-3565.78)">
                    <path d="M878.812,291.228C879.04,291.228 879.217,291.297 879.343,291.435C879.469,291.573 879.532,291.756 879.532,291.984L879.532,303.342C879.532,303.57 879.469,303.753 879.343,303.891C879.217,304.029 879.04,304.098 878.812,304.098C878.584,304.098 878.404,304.029 878.272,303.891C878.14,303.753 878.074,303.57 878.074,303.342L878.074,298.194L870.478,298.194L870.478,303.342C870.478,303.57 870.412,303.753 870.28,303.891C870.148,304.029 869.968,304.098 869.74,304.098C869.512,304.098 869.335,304.029 869.209,303.891C869.083,303.753 869.02,303.57 869.02,303.342L869.02,291.984C869.02,291.756 869.083,291.573 869.209,291.435C869.335,291.297 869.512,291.228 869.74,291.228C869.968,291.228 870.148,291.297 870.28,291.435C870.412,291.573 870.478,291.756 870.478,291.984L870.478,296.934L878.074,296.934L878.074,291.984C878.074,291.756 878.14,291.573 878.272,291.435C878.404,291.297 878.584,291.228 878.812,291.228Z" style="fill:rgb(185,185,185);fill-rule:nonzero;"/>
                    <path d="M888.766,295.512C888.898,295.224 889.108,295.08 889.396,295.08C889.576,295.08 889.738,295.14 889.882,295.26C890.026,295.38 890.098,295.53 890.098,295.71C890.098,295.818 890.074,295.914 890.026,295.998L884.968,306.906C884.908,307.038 884.821,307.14 884.707,307.212C884.593,307.284 884.476,307.32 884.356,307.32C884.176,307.32 884.017,307.263 883.879,307.149C883.741,307.035 883.672,306.888 883.672,306.708C883.672,306.612 883.696,306.516 883.744,306.42L885.004,303.702L881.44,295.998C881.392,295.914 881.368,295.824 881.368,295.728C881.368,295.548 881.449,295.392 881.611,295.26C881.773,295.128 881.95,295.062 882.142,295.062C882.262,295.062 882.379,295.098 882.493,295.17C882.607,295.242 882.694,295.344 882.754,295.476L885.76,302.226L888.766,295.512Z" style="fill:rgb(185,185,185);fill-rule:nonzero;"/>
                    <path d="M896.11,295.026C896.878,295.026 897.556,295.218 898.144,295.602C898.732,295.986 899.188,296.523 899.512,297.213C899.836,297.903 899.998,298.704 899.998,299.616C899.998,300.528 899.836,301.323 899.512,302.001C899.188,302.679 898.735,303.204 898.153,303.576C897.571,303.948 896.89,304.134 896.11,304.134C895.426,304.134 894.829,303.984 894.319,303.684C893.809,303.384 893.422,302.958 893.158,302.406L893.158,306.636C893.158,306.852 893.095,307.023 892.969,307.149C892.843,307.275 892.666,307.338 892.438,307.338C892.21,307.338 892.03,307.272 891.898,307.14C891.766,307.008 891.7,306.84 891.7,306.636L891.7,295.782C891.7,295.566 891.766,295.392 891.898,295.26C892.03,295.128 892.21,295.062 892.438,295.062C892.666,295.062 892.843,295.128 892.969,295.26C893.095,295.392 893.158,295.566 893.158,295.782L893.158,296.754C893.422,296.202 893.809,295.776 894.319,295.476C894.829,295.176 895.426,295.026 896.11,295.026ZM895.822,302.928C896.674,302.928 897.334,302.64 897.802,302.064C898.27,301.488 898.504,300.672 898.504,299.616C898.504,298.56 898.27,297.735 897.802,297.141C897.334,296.547 896.674,296.25 895.822,296.25C894.97,296.25 894.313,296.538 893.851,297.114C893.389,297.69 893.158,298.512 893.158,299.58C893.158,300.648 893.389,301.473 893.851,302.055C894.313,302.637 894.97,302.928 895.822,302.928Z" style="fill:rgb(185,185,185);fill-rule:nonzero;"/>
                    <path d="M908.962,301.974C909.094,301.974 909.208,302.028 909.304,302.136C909.4,302.244 909.448,302.382 909.448,302.55C909.448,302.85 909.238,303.126 908.818,303.378C908.386,303.63 907.93,303.819 907.45,303.945C906.97,304.071 906.502,304.134 906.046,304.134C904.69,304.134 903.619,303.732 902.833,302.928C902.047,302.124 901.654,301.014 901.654,299.598C901.654,298.698 901.828,297.903 902.176,297.213C902.524,296.523 903.013,295.986 903.643,295.602C904.273,295.218 904.99,295.026 905.794,295.026C906.934,295.026 907.84,295.398 908.512,296.142C909.184,296.886 909.52,297.894 909.52,299.166C909.52,299.406 909.472,299.58 909.376,299.688C909.28,299.796 909.124,299.85 908.908,299.85L903.112,299.85C903.22,301.914 904.198,302.946 906.046,302.946C906.514,302.946 906.916,302.883 907.252,302.757C907.588,302.631 907.948,302.46 908.332,302.244C908.644,302.064 908.854,301.974 908.962,301.974ZM905.812,296.16C905.044,296.16 904.429,296.4 903.967,296.88C903.505,297.36 903.232,298.038 903.148,298.914L908.242,298.914C908.218,298.026 907.996,297.345 907.576,296.871C907.156,296.397 906.568,296.16 905.812,296.16Z" style="fill:rgb(185,185,185);fill-rule:nonzero;"/>
                    <path d="M916,295.062C916.504,295.026 916.756,295.23 916.756,295.674C916.756,295.866 916.702,296.019 916.594,296.133C916.486,296.247 916.3,296.316 916.036,296.34L915.496,296.394C914.692,296.466 914.095,296.751 913.705,297.249C913.315,297.747 913.12,298.332 913.12,299.004L913.12,303.378C913.12,303.618 913.054,303.798 912.922,303.918C912.79,304.038 912.616,304.098 912.4,304.098C912.184,304.098 912.007,304.035 911.869,303.909C911.731,303.783 911.662,303.606 911.662,303.378L911.662,295.782C911.662,295.554 911.734,295.377 911.878,295.251C912.022,295.125 912.196,295.062 912.4,295.062C912.592,295.062 912.754,295.125 912.886,295.251C913.018,295.377 913.084,295.548 913.084,295.764L913.084,296.772C913.336,296.244 913.693,295.842 914.155,295.566C914.617,295.29 915.148,295.128 915.748,295.08L916,295.062Z" style="fill:rgb(185,185,185);fill-rule:nonzero;"/>
                    <path d="M924.874,295.512C925.006,295.224 925.216,295.08 925.504,295.08C925.684,295.08 925.846,295.14 925.99,295.26C926.134,295.38 926.206,295.53 926.206,295.71C926.206,295.818 926.182,295.914 926.134,295.998L922.624,303.558C922.552,303.714 922.444,303.837 922.3,303.927C922.156,304.017 922,304.062 921.832,304.062C921.676,304.062 921.526,304.017 921.382,303.927C921.238,303.837 921.124,303.714 921.04,303.558L917.548,295.998C917.5,295.914 917.476,295.824 917.476,295.728C917.476,295.548 917.557,295.392 917.719,295.26C917.881,295.128 918.058,295.062 918.25,295.062C918.37,295.062 918.487,295.098 918.601,295.17C918.715,295.242 918.802,295.344 918.862,295.476L921.868,302.226L924.874,295.512Z" style="fill:rgb(185,185,185);fill-rule:nonzero;"/>
                    <path d="M928.546,304.098C928.33,304.098 928.153,304.035 928.015,303.909C927.877,303.783 927.808,303.606 927.808,303.378L927.808,295.782C927.808,295.554 927.877,295.377 928.015,295.251C928.153,295.125 928.33,295.062 928.546,295.062C928.762,295.062 928.936,295.125 929.068,295.251C929.2,295.377 929.266,295.554 929.266,295.782L929.266,303.378C929.266,303.618 929.2,303.798 929.068,303.918C928.936,304.038 928.762,304.098 928.546,304.098ZM928.546,293.172C928.258,293.172 928.024,293.088 927.844,292.92C927.664,292.752 927.574,292.53 927.574,292.254C927.574,291.99 927.664,291.774 927.844,291.606C928.024,291.438 928.258,291.354 928.546,291.354C928.834,291.354 929.068,291.438 929.248,291.606C929.428,291.774 929.518,291.99 929.518,292.254C929.518,292.53 929.428,292.752 929.248,292.92C929.068,293.088 928.834,293.172 928.546,293.172Z" style="fill:rgb(185,185,185);fill-rule:nonzero;"/>
                    <path d="M934.936,304.134C934.384,304.134 933.859,304.068 933.361,303.936C932.863,303.804 932.422,303.618 932.038,303.378C931.822,303.234 931.669,303.099 931.579,302.973C931.489,302.847 931.444,302.694 931.444,302.514C931.444,302.358 931.489,302.229 931.579,302.127C931.669,302.025 931.786,301.974 931.93,301.974C932.074,301.974 932.284,302.064 932.56,302.244C932.92,302.46 933.277,302.631 933.631,302.757C933.985,302.883 934.426,302.946 934.954,302.946C935.602,302.946 936.106,302.832 936.466,302.604C936.826,302.376 937.006,302.046 937.006,301.614C937.006,301.35 936.94,301.137 936.808,300.975C936.676,300.813 936.448,300.669 936.124,300.543C935.8,300.417 935.326,300.288 934.702,300.156C933.646,299.928 932.89,299.622 932.434,299.238C931.978,298.854 931.75,298.332 931.75,297.672C931.75,297.156 931.894,296.7 932.182,296.304C932.47,295.908 932.869,295.596 933.379,295.368C933.889,295.14 934.468,295.026 935.116,295.026C935.584,295.026 936.037,295.089 936.475,295.215C936.913,295.341 937.3,295.518 937.636,295.746C938.044,296.034 938.248,296.334 938.248,296.646C938.248,296.802 938.2,296.934 938.104,297.042C938.008,297.15 937.894,297.204 937.762,297.204C937.618,297.204 937.402,297.102 937.114,296.898C936.778,296.682 936.46,296.514 936.16,296.394C935.86,296.274 935.488,296.214 935.044,296.214C934.48,296.214 934.027,296.34 933.685,296.592C933.343,296.844 933.172,297.18 933.172,297.6C933.172,297.864 933.235,298.077 933.361,298.239C933.487,298.401 933.697,298.545 933.991,298.671C934.285,298.797 934.708,298.92 935.26,299.04C936.076,299.22 936.709,299.418 937.159,299.634C937.609,299.85 937.93,300.114 938.122,300.426C938.314,300.738 938.41,301.134 938.41,301.614C938.41,302.37 938.092,302.979 937.456,303.441C936.82,303.903 935.98,304.134 934.936,304.134Z" style="fill:rgb(185,185,185);fill-rule:nonzero;"/>
                    <path d="M944.26,304.134C943.432,304.134 942.703,303.948 942.073,303.576C941.443,303.204 940.957,302.673 940.615,301.983C940.273,301.293 940.102,300.492 940.102,299.58C940.102,298.668 940.273,297.867 940.615,297.177C940.957,296.487 941.443,295.956 942.073,295.584C942.703,295.212 943.432,295.026 944.26,295.026C945.088,295.026 945.82,295.212 946.456,295.584C947.092,295.956 947.581,296.487 947.923,297.177C948.265,297.867 948.436,298.668 948.436,299.58C948.436,300.492 948.265,301.293 947.923,301.983C947.581,302.673 947.092,303.204 946.456,303.576C945.82,303.948 945.088,304.134 944.26,304.134ZM944.26,302.928C945.124,302.928 945.787,302.643 946.249,302.073C946.711,301.503 946.942,300.672 946.942,299.58C946.942,298.512 946.708,297.687 946.24,297.105C945.772,296.523 945.112,296.232 944.26,296.232C943.408,296.232 942.748,296.523 942.28,297.105C941.812,297.687 941.578,298.512 941.578,299.58C941.578,300.66 941.809,301.488 942.271,302.064C942.733,302.64 943.396,302.928 944.26,302.928Z" style="fill:rgb(185,185,185);fill-rule:nonzero;"/>
                    <path d="M954.952,295.062C955.456,295.026 955.708,295.23 955.708,295.674C955.708,295.866 955.654,296.019 955.546,296.133C955.438,296.247 955.252,296.316 954.988,296.34L954.448,296.394C953.644,296.466 953.047,296.751 952.657,297.249C952.267,297.747 952.072,298.332 952.072,299.004L952.072,303.378C952.072,303.618 952.006,303.798 951.874,303.918C951.742,304.038 951.568,304.098 951.352,304.098C951.136,304.098 950.959,304.035 950.821,303.909C950.683,303.783 950.614,303.606 950.614,303.378L950.614,295.782C950.614,295.554 950.686,295.377 950.83,295.251C950.974,295.125 951.148,295.062 951.352,295.062C951.544,295.062 951.706,295.125 951.838,295.251C951.97,295.377 952.036,295.548 952.036,295.764L952.036,296.772C952.288,296.244 952.645,295.842 953.107,295.566C953.569,295.29 954.1,295.128 954.7,295.08L954.952,295.062Z" style="fill:rgb(185,185,185);fill-rule:nonzero;"/>
                </g>
                <g transform="matrix(14.7594,0,0,14.7594,-8270.25,-3030.6)">
                    <path d="M873.79,304.008C873.562,304.008 873.379,303.942 873.241,303.81C873.103,303.678 873.034,303.504 873.034,303.288L873.034,292.038C873.034,291.822 873.103,291.648 873.241,291.516C873.379,291.384 873.562,291.318 873.79,291.318L880.522,291.318C880.738,291.318 880.906,291.372 881.026,291.48C881.146,291.588 881.206,291.738 881.206,291.93C881.206,292.122 881.146,292.272 881.026,292.38C880.906,292.488 880.738,292.542 880.522,292.542L874.492,292.542L874.492,296.952L880.162,296.952C880.378,296.952 880.546,297.006 880.666,297.114C880.786,297.222 880.846,297.372 880.846,297.564C880.846,297.756 880.786,297.906 880.666,298.014C880.546,298.122 880.378,298.176 880.162,298.176L874.492,298.176L874.492,302.784L880.522,302.784C880.738,302.784 880.906,302.835 881.026,302.937C881.146,303.039 881.206,303.192 881.206,303.396C881.206,303.588 881.146,303.738 881.026,303.846C880.906,303.954 880.738,304.008 880.522,304.008L873.79,304.008Z" style="fill:rgb(185,185,185);fill-rule:nonzero;"/>
                    <path d="M893.05,295.026C894.994,295.026 895.966,296.184 895.966,298.5L895.966,303.378C895.966,303.606 895.9,303.783 895.768,303.909C895.636,304.035 895.462,304.098 895.246,304.098C895.03,304.098 894.853,304.035 894.715,303.909C894.577,303.783 894.508,303.606 894.508,303.378L894.508,298.536C894.508,297.732 894.364,297.15 894.076,296.79C893.788,296.43 893.338,296.25 892.726,296.25C891.994,296.25 891.418,296.496 890.998,296.988C890.578,297.48 890.368,298.146 890.368,298.986L890.368,303.378C890.368,303.606 890.299,303.783 890.161,303.909C890.023,304.035 889.846,304.098 889.63,304.098C889.414,304.098 889.24,304.035 889.108,303.909C888.976,303.783 888.91,303.606 888.91,303.378L888.91,298.536C888.91,297.732 888.766,297.15 888.478,296.79C888.19,296.43 887.734,296.25 887.11,296.25C886.39,296.25 885.817,296.496 885.391,296.988C884.965,297.48 884.752,298.146 884.752,298.986L884.752,303.378C884.752,303.606 884.686,303.783 884.554,303.909C884.422,304.035 884.248,304.098 884.032,304.098C883.816,304.098 883.639,304.035 883.501,303.909C883.363,303.783 883.294,303.606 883.294,303.378L883.294,295.782C883.294,295.566 883.363,295.392 883.501,295.26C883.639,295.128 883.816,295.062 884.032,295.062C884.236,295.062 884.404,295.125 884.536,295.251C884.668,295.377 884.734,295.548 884.734,295.764L884.734,296.628C884.998,296.112 885.364,295.716 885.832,295.44C886.3,295.164 886.84,295.026 887.452,295.026C888.82,295.026 889.714,295.602 890.134,296.754C890.386,296.226 890.77,295.806 891.286,295.494C891.802,295.182 892.39,295.026 893.05,295.026Z" style="fill:rgb(185,185,185);fill-rule:nonzero;"/>
                    <path d="M905.29,295.062C905.518,295.062 905.695,295.128 905.821,295.26C905.947,295.392 906.01,295.566 906.01,295.782L906.01,303.396C906.01,303.6 905.947,303.768 905.821,303.9C905.695,304.032 905.518,304.098 905.29,304.098C905.074,304.098 904.903,304.035 904.777,303.909C904.651,303.783 904.588,303.618 904.588,303.414L904.588,302.514C904.312,303.042 903.925,303.444 903.427,303.72C902.929,303.996 902.368,304.134 901.744,304.134C900.7,304.134 899.914,303.843 899.386,303.261C898.858,302.679 898.594,301.818 898.594,300.678L898.594,295.782C898.594,295.566 898.66,295.392 898.792,295.26C898.924,295.128 899.104,295.062 899.332,295.062C899.56,295.062 899.737,295.128 899.863,295.26C899.989,295.392 900.052,295.566 900.052,295.782L900.052,300.642C900.052,301.422 900.208,301.995 900.52,302.361C900.832,302.727 901.324,302.91 901.996,302.91C902.764,302.91 903.382,302.661 903.85,302.163C904.318,301.665 904.552,301.008 904.552,300.192L904.552,295.782C904.552,295.566 904.618,295.392 904.75,295.26C904.882,295.128 905.062,295.062 905.29,295.062Z" style="fill:rgb(185,185,185);fill-rule:nonzero;"/>
                    <path d="M909.466,304.098C909.25,304.098 909.073,304.035 908.935,303.909C908.797,303.783 908.728,303.606 908.728,303.378L908.728,291.948C908.728,291.72 908.797,291.543 908.935,291.417C909.073,291.291 909.25,291.228 909.466,291.228C909.67,291.228 909.841,291.291 909.979,291.417C910.117,291.543 910.186,291.72 910.186,291.948L910.186,303.378C910.186,303.606 910.117,303.783 909.979,303.909C909.841,304.035 909.67,304.098 909.466,304.098Z" style="fill:rgb(185,185,185);fill-rule:nonzero;"/>
                    <path d="M916.486,295.026C918.682,295.026 919.78,296.178 919.78,298.482L919.78,303.378C919.78,303.594 919.717,303.768 919.591,303.9C919.465,304.032 919.294,304.098 919.078,304.098C918.862,304.098 918.688,304.032 918.556,303.9C918.424,303.768 918.358,303.594 918.358,303.378L918.358,302.514C918.13,303.03 917.782,303.429 917.314,303.711C916.846,303.993 916.306,304.134 915.694,304.134C915.13,304.134 914.611,304.02 914.137,303.792C913.663,303.564 913.288,303.246 913.012,302.838C912.736,302.43 912.598,301.98 912.598,301.488C912.598,300.828 912.766,300.315 913.102,299.949C913.438,299.583 913.99,299.319 914.758,299.157C915.526,298.995 916.594,298.914 917.962,298.914L918.358,298.914L918.358,298.32C918.358,297.6 918.211,297.072 917.917,296.736C917.623,296.4 917.146,296.232 916.486,296.232C915.67,296.232 914.842,296.454 914.002,296.898C913.678,297.102 913.45,297.204 913.318,297.204C913.174,297.204 913.054,297.15 912.958,297.042C912.862,296.934 912.814,296.796 912.814,296.628C912.814,296.46 912.865,296.313 912.967,296.187C913.069,296.061 913.234,295.932 913.462,295.8C913.882,295.56 914.359,295.371 914.893,295.233C915.427,295.095 915.958,295.026 916.486,295.026ZM915.892,302.982C916.612,302.982 917.203,302.739 917.665,302.253C918.127,301.767 918.358,301.14 918.358,300.372L918.358,299.85L918.034,299.85C916.978,299.85 916.174,299.895 915.622,299.985C915.07,300.075 914.677,300.225 914.443,300.435C914.209,300.645 914.092,300.954 914.092,301.362C914.092,301.83 914.263,302.217 914.605,302.523C914.947,302.829 915.376,302.982 915.892,302.982Z" style="fill:rgb(185,185,185);fill-rule:nonzero;"/>
                    <path d="M926.494,302.946C926.914,302.982 927.124,303.174 927.124,303.522C927.124,303.726 927.049,303.879 926.899,303.981C926.749,304.083 926.524,304.122 926.224,304.098L925.738,304.062C924.778,303.99 924.07,303.702 923.614,303.198C923.158,302.694 922.93,301.932 922.93,300.912L922.93,296.394L921.724,296.394C921.52,296.394 921.361,296.343 921.247,296.241C921.133,296.139 921.076,296.004 921.076,295.836C921.076,295.656 921.133,295.512 921.247,295.404C921.361,295.296 921.52,295.242 921.724,295.242L922.93,295.242L922.93,293.208C922.93,292.98 922.996,292.803 923.128,292.677C923.26,292.551 923.44,292.488 923.668,292.488C923.884,292.488 924.058,292.551 924.19,292.677C924.322,292.803 924.388,292.98 924.388,293.208L924.388,295.242L926.386,295.242C926.578,295.242 926.731,295.296 926.845,295.404C926.959,295.512 927.016,295.656 927.016,295.836C927.016,296.004 926.959,296.139 926.845,296.241C926.731,296.343 926.578,296.394 926.386,296.394L924.388,296.394L924.388,300.984C924.388,301.644 924.523,302.121 924.793,302.415C925.063,302.709 925.468,302.874 926.008,302.91L926.494,302.946Z" style="fill:rgb(185,185,185);fill-rule:nonzero;"/>
                    <path d="M929.302,304.098C929.086,304.098 928.909,304.035 928.771,303.909C928.633,303.783 928.564,303.606 928.564,303.378L928.564,295.782C928.564,295.554 928.633,295.377 928.771,295.251C928.909,295.125 929.086,295.062 929.302,295.062C929.518,295.062 929.692,295.125 929.824,295.251C929.956,295.377 930.022,295.554 930.022,295.782L930.022,303.378C930.022,303.618 929.956,303.798 929.824,303.918C929.692,304.038 929.518,304.098 929.302,304.098ZM929.302,293.172C929.014,293.172 928.78,293.088 928.6,292.92C928.42,292.752 928.33,292.53 928.33,292.254C928.33,291.99 928.42,291.774 928.6,291.606C928.78,291.438 929.014,291.354 929.302,291.354C929.59,291.354 929.824,291.438 930.004,291.606C930.184,291.774 930.274,291.99 930.274,292.254C930.274,292.53 930.184,292.752 930.004,292.92C929.824,293.088 929.59,293.172 929.302,293.172Z" style="fill:rgb(185,185,185);fill-rule:nonzero;"/>
                    <path d="M936.376,304.134C935.548,304.134 934.819,303.948 934.189,303.576C933.559,303.204 933.073,302.673 932.731,301.983C932.389,301.293 932.218,300.492 932.218,299.58C932.218,298.668 932.389,297.867 932.731,297.177C933.073,296.487 933.559,295.956 934.189,295.584C934.819,295.212 935.548,295.026 936.376,295.026C937.204,295.026 937.936,295.212 938.572,295.584C939.208,295.956 939.697,296.487 940.039,297.177C940.381,297.867 940.552,298.668 940.552,299.58C940.552,300.492 940.381,301.293 940.039,301.983C939.697,302.673 939.208,303.204 938.572,303.576C937.936,303.948 937.204,304.134 936.376,304.134ZM936.376,302.928C937.24,302.928 937.903,302.643 938.365,302.073C938.827,301.503 939.058,300.672 939.058,299.58C939.058,298.512 938.824,297.687 938.356,297.105C937.888,296.523 937.228,296.232 936.376,296.232C935.524,296.232 934.864,296.523 934.396,297.105C933.928,297.687 933.694,298.512 933.694,299.58C933.694,300.66 933.925,301.488 934.387,302.064C934.849,302.64 935.512,302.928 936.376,302.928Z" style="fill:rgb(185,185,185);fill-rule:nonzero;"/>
                    <path d="M947.14,295.026C949.24,295.026 950.29,296.184 950.29,298.5L950.29,303.378C950.29,303.606 950.227,303.783 950.101,303.909C949.975,304.035 949.798,304.098 949.57,304.098C949.342,304.098 949.162,304.035 949.03,303.909C948.898,303.783 948.832,303.606 948.832,303.378L948.832,298.59C948.832,297.774 948.673,297.18 948.355,296.808C948.037,296.436 947.53,296.25 946.834,296.25C946.03,296.25 945.388,296.496 944.908,296.988C944.428,297.48 944.188,298.146 944.188,298.986L944.188,303.378C944.188,303.606 944.125,303.783 943.999,303.909C943.873,304.035 943.696,304.098 943.468,304.098C943.24,304.098 943.06,304.035 942.928,303.909C942.796,303.783 942.73,303.606 942.73,303.378L942.73,295.782C942.73,295.566 942.796,295.392 942.928,295.26C943.06,295.128 943.24,295.062 943.468,295.062C943.684,295.062 943.855,295.128 943.981,295.26C944.107,295.392 944.17,295.56 944.17,295.764L944.17,296.682C944.458,296.142 944.86,295.731 945.376,295.449C945.892,295.167 946.48,295.026 947.14,295.026Z" style="fill:rgb(185,185,185);fill-rule:nonzero;"/>
                </g>
                <g transform="matrix(14.7594,0,0,14.7594,-8211.01,-2461.05)">
                    <path d="M878.326,291.606C878.386,291.474 878.473,291.372 878.587,291.3C878.701,291.228 878.824,291.192 878.956,291.192C879.148,291.192 879.319,291.255 879.469,291.381C879.619,291.507 879.694,291.66 879.694,291.84C879.694,291.936 879.67,292.032 879.622,292.128L874.456,303.612C874.384,303.768 874.276,303.888 874.132,303.972C873.988,304.056 873.832,304.098 873.664,304.098C873.496,304.098 873.34,304.056 873.196,303.972C873.052,303.888 872.944,303.768 872.872,303.612L867.724,292.128C867.688,292.032 867.67,291.942 867.67,291.858C867.67,291.666 867.748,291.507 867.904,291.381C868.06,291.255 868.234,291.192 868.426,291.192C868.714,291.192 868.924,291.33 869.056,291.606L873.7,302.1L878.326,291.606Z" style="fill:rgb(185,185,185);fill-rule:nonzero;"/>
                    <path d="M881.98,304.098C881.764,304.098 881.587,304.035 881.449,303.909C881.311,303.783 881.242,303.606 881.242,303.378L881.242,295.782C881.242,295.554 881.311,295.377 881.449,295.251C881.587,295.125 881.764,295.062 881.98,295.062C882.196,295.062 882.37,295.125 882.502,295.251C882.634,295.377 882.7,295.554 882.7,295.782L882.7,303.378C882.7,303.618 882.634,303.798 882.502,303.918C882.37,304.038 882.196,304.098 881.98,304.098ZM881.98,293.172C881.692,293.172 881.458,293.088 881.278,292.92C881.098,292.752 881.008,292.53 881.008,292.254C881.008,291.99 881.098,291.774 881.278,291.606C881.458,291.438 881.692,291.354 881.98,291.354C882.268,291.354 882.502,291.438 882.682,291.606C882.862,291.774 882.952,291.99 882.952,292.254C882.952,292.53 882.862,292.752 882.682,292.92C882.502,293.088 882.268,293.172 881.98,293.172Z" style="fill:rgb(185,185,185);fill-rule:nonzero;"/>
                    <path d="M889.756,295.062C890.26,295.026 890.512,295.23 890.512,295.674C890.512,295.866 890.458,296.019 890.35,296.133C890.242,296.247 890.056,296.316 889.792,296.34L889.252,296.394C888.448,296.466 887.851,296.751 887.461,297.249C887.071,297.747 886.876,298.332 886.876,299.004L886.876,303.378C886.876,303.618 886.81,303.798 886.678,303.918C886.546,304.038 886.372,304.098 886.156,304.098C885.94,304.098 885.763,304.035 885.625,303.909C885.487,303.783 885.418,303.606 885.418,303.378L885.418,295.782C885.418,295.554 885.49,295.377 885.634,295.251C885.778,295.125 885.952,295.062 886.156,295.062C886.348,295.062 886.51,295.125 886.642,295.251C886.774,295.377 886.84,295.548 886.84,295.764L886.84,296.772C887.092,296.244 887.449,295.842 887.911,295.566C888.373,295.29 888.904,295.128 889.504,295.08L889.756,295.062Z" style="fill:rgb(185,185,185);fill-rule:nonzero;"/>
                    <path d="M896.524,302.946C896.944,302.982 897.154,303.174 897.154,303.522C897.154,303.726 897.079,303.879 896.929,303.981C896.779,304.083 896.554,304.122 896.254,304.098L895.768,304.062C894.808,303.99 894.1,303.702 893.644,303.198C893.188,302.694 892.96,301.932 892.96,300.912L892.96,296.394L891.754,296.394C891.55,296.394 891.391,296.343 891.277,296.241C891.163,296.139 891.106,296.004 891.106,295.836C891.106,295.656 891.163,295.512 891.277,295.404C891.391,295.296 891.55,295.242 891.754,295.242L892.96,295.242L892.96,293.208C892.96,292.98 893.026,292.803 893.158,292.677C893.29,292.551 893.47,292.488 893.698,292.488C893.914,292.488 894.088,292.551 894.22,292.677C894.352,292.803 894.418,292.98 894.418,293.208L894.418,295.242L896.416,295.242C896.608,295.242 896.761,295.296 896.875,295.404C896.989,295.512 897.046,295.656 897.046,295.836C897.046,296.004 896.989,296.139 896.875,296.241C896.761,296.343 896.608,296.394 896.416,296.394L894.418,296.394L894.418,300.984C894.418,301.644 894.553,302.121 894.823,302.415C895.093,302.709 895.498,302.874 896.038,302.91L896.524,302.946Z" style="fill:rgb(185,185,185);fill-rule:nonzero;"/>
                    <path d="M905.254,295.062C905.482,295.062 905.659,295.128 905.785,295.26C905.911,295.392 905.974,295.566 905.974,295.782L905.974,303.396C905.974,303.6 905.911,303.768 905.785,303.9C905.659,304.032 905.482,304.098 905.254,304.098C905.038,304.098 904.867,304.035 904.741,303.909C904.615,303.783 904.552,303.618 904.552,303.414L904.552,302.514C904.276,303.042 903.889,303.444 903.391,303.72C902.893,303.996 902.332,304.134 901.708,304.134C900.664,304.134 899.878,303.843 899.35,303.261C898.822,302.679 898.558,301.818 898.558,300.678L898.558,295.782C898.558,295.566 898.624,295.392 898.756,295.26C898.888,295.128 899.068,295.062 899.296,295.062C899.524,295.062 899.701,295.128 899.827,295.26C899.953,295.392 900.016,295.566 900.016,295.782L900.016,300.642C900.016,301.422 900.172,301.995 900.484,302.361C900.796,302.727 901.288,302.91 901.96,302.91C902.728,302.91 903.346,302.661 903.814,302.163C904.282,301.665 904.516,301.008 904.516,300.192L904.516,295.782C904.516,295.566 904.582,295.392 904.714,295.26C904.846,295.128 905.026,295.062 905.254,295.062Z" style="fill:rgb(185,185,185);fill-rule:nonzero;"/>
                    <path d="M912.274,295.026C914.47,295.026 915.568,296.178 915.568,298.482L915.568,303.378C915.568,303.594 915.505,303.768 915.379,303.9C915.253,304.032 915.082,304.098 914.866,304.098C914.65,304.098 914.476,304.032 914.344,303.9C914.212,303.768 914.146,303.594 914.146,303.378L914.146,302.514C913.918,303.03 913.57,303.429 913.102,303.711C912.634,303.993 912.094,304.134 911.482,304.134C910.918,304.134 910.399,304.02 909.925,303.792C909.451,303.564 909.076,303.246 908.8,302.838C908.524,302.43 908.386,301.98 908.386,301.488C908.386,300.828 908.554,300.315 908.89,299.949C909.226,299.583 909.778,299.319 910.546,299.157C911.314,298.995 912.382,298.914 913.75,298.914L914.146,298.914L914.146,298.32C914.146,297.6 913.999,297.072 913.705,296.736C913.411,296.4 912.934,296.232 912.274,296.232C911.458,296.232 910.63,296.454 909.79,296.898C909.466,297.102 909.238,297.204 909.106,297.204C908.962,297.204 908.842,297.15 908.746,297.042C908.65,296.934 908.602,296.796 908.602,296.628C908.602,296.46 908.653,296.313 908.755,296.187C908.857,296.061 909.022,295.932 909.25,295.8C909.67,295.56 910.147,295.371 910.681,295.233C911.215,295.095 911.746,295.026 912.274,295.026ZM911.68,302.982C912.4,302.982 912.991,302.739 913.453,302.253C913.915,301.767 914.146,301.14 914.146,300.372L914.146,299.85L913.822,299.85C912.766,299.85 911.962,299.895 911.41,299.985C910.858,300.075 910.465,300.225 910.231,300.435C909.997,300.645 909.88,300.954 909.88,301.362C909.88,301.83 910.051,302.217 910.393,302.523C910.735,302.829 911.164,302.982 911.68,302.982Z" style="fill:rgb(185,185,185);fill-rule:nonzero;"/>
                    <path d="M918.97,304.098C918.754,304.098 918.577,304.035 918.439,303.909C918.301,303.783 918.232,303.606 918.232,303.378L918.232,291.948C918.232,291.72 918.301,291.543 918.439,291.417C918.577,291.291 918.754,291.228 918.97,291.228C919.174,291.228 919.345,291.291 919.483,291.417C919.621,291.543 919.69,291.72 919.69,291.948L919.69,303.378C919.69,303.606 919.621,303.783 919.483,303.909C919.345,304.035 919.174,304.098 918.97,304.098Z" style="fill:rgb(185,185,185);fill-rule:nonzero;"/>
                    <path d="M923.146,304.098C922.93,304.098 922.753,304.035 922.615,303.909C922.477,303.783 922.408,303.606 922.408,303.378L922.408,295.782C922.408,295.554 922.477,295.377 922.615,295.251C922.753,295.125 922.93,295.062 923.146,295.062C923.362,295.062 923.536,295.125 923.668,295.251C923.8,295.377 923.866,295.554 923.866,295.782L923.866,303.378C923.866,303.618 923.8,303.798 923.668,303.918C923.536,304.038 923.362,304.098 923.146,304.098ZM923.146,293.172C922.858,293.172 922.624,293.088 922.444,292.92C922.264,292.752 922.174,292.53 922.174,292.254C922.174,291.99 922.264,291.774 922.444,291.606C922.624,291.438 922.858,291.354 923.146,291.354C923.434,291.354 923.668,291.438 923.848,291.606C924.028,291.774 924.118,291.99 924.118,292.254C924.118,292.53 924.028,292.752 923.848,292.92C923.668,293.088 923.434,293.172 923.146,293.172Z" style="fill:rgb(185,185,185);fill-rule:nonzero;"/>
                    <path d="M933.028,302.856C933.232,302.856 933.388,302.907 933.496,303.009C933.604,303.111 933.658,303.252 933.658,303.432C933.658,303.612 933.604,303.753 933.496,303.855C933.388,303.957 933.232,304.008 933.028,304.008L926.728,304.008C926.524,304.008 926.356,303.945 926.224,303.819C926.092,303.693 926.026,303.54 926.026,303.36C926.026,303.168 926.098,302.982 926.242,302.802L931.57,296.394L926.638,296.394C926.434,296.394 926.275,296.343 926.161,296.241C926.047,296.139 925.99,296.004 925.99,295.836C925.99,295.656 926.047,295.512 926.161,295.404C926.275,295.296 926.434,295.242 926.638,295.242L932.74,295.242C932.956,295.242 933.13,295.305 933.262,295.431C933.394,295.557 933.46,295.71 933.46,295.89C933.46,296.082 933.388,296.268 933.244,296.448L927.898,302.856L933.028,302.856Z" style="fill:rgb(185,185,185);fill-rule:nonzero;"/>
                    <path d="M939.13,295.026C941.326,295.026 942.424,296.178 942.424,298.482L942.424,303.378C942.424,303.594 942.361,303.768 942.235,303.9C942.109,304.032 941.938,304.098 941.722,304.098C941.506,304.098 941.332,304.032 941.2,303.9C941.068,303.768 941.002,303.594 941.002,303.378L941.002,302.514C940.774,303.03 940.426,303.429 939.958,303.711C939.49,303.993 938.95,304.134 938.338,304.134C937.774,304.134 937.255,304.02 936.781,303.792C936.307,303.564 935.932,303.246 935.656,302.838C935.38,302.43 935.242,301.98 935.242,301.488C935.242,300.828 935.41,300.315 935.746,299.949C936.082,299.583 936.634,299.319 937.402,299.157C938.17,298.995 939.238,298.914 940.606,298.914L941.002,298.914L941.002,298.32C941.002,297.6 940.855,297.072 940.561,296.736C940.267,296.4 939.79,296.232 939.13,296.232C938.314,296.232 937.486,296.454 936.646,296.898C936.322,297.102 936.094,297.204 935.962,297.204C935.818,297.204 935.698,297.15 935.602,297.042C935.506,296.934 935.458,296.796 935.458,296.628C935.458,296.46 935.509,296.313 935.611,296.187C935.713,296.061 935.878,295.932 936.106,295.8C936.526,295.56 937.003,295.371 937.537,295.233C938.071,295.095 938.602,295.026 939.13,295.026ZM938.536,302.982C939.256,302.982 939.847,302.739 940.309,302.253C940.771,301.767 941.002,301.14 941.002,300.372L941.002,299.85L940.678,299.85C939.622,299.85 938.818,299.895 938.266,299.985C937.714,300.075 937.321,300.225 937.087,300.435C936.853,300.645 936.736,300.954 936.736,301.362C936.736,301.83 936.907,302.217 937.249,302.523C937.591,302.829 938.02,302.982 938.536,302.982Z" style="fill:rgb(185,185,185);fill-rule:nonzero;"/>
                    <path d="M949.138,302.946C949.558,302.982 949.768,303.174 949.768,303.522C949.768,303.726 949.693,303.879 949.543,303.981C949.393,304.083 949.168,304.122 948.868,304.098L948.382,304.062C947.422,303.99 946.714,303.702 946.258,303.198C945.802,302.694 945.574,301.932 945.574,300.912L945.574,296.394L944.368,296.394C944.164,296.394 944.005,296.343 943.891,296.241C943.777,296.139 943.72,296.004 943.72,295.836C943.72,295.656 943.777,295.512 943.891,295.404C944.005,295.296 944.164,295.242 944.368,295.242L945.574,295.242L945.574,293.208C945.574,292.98 945.64,292.803 945.772,292.677C945.904,292.551 946.084,292.488 946.312,292.488C946.528,292.488 946.702,292.551 946.834,292.677C946.966,292.803 947.032,292.98 947.032,293.208L947.032,295.242L949.03,295.242C949.222,295.242 949.375,295.296 949.489,295.404C949.603,295.512 949.66,295.656 949.66,295.836C949.66,296.004 949.603,296.139 949.489,296.241C949.375,296.343 949.222,296.394 949.03,296.394L947.032,296.394L947.032,300.984C947.032,301.644 947.167,302.121 947.437,302.415C947.707,302.709 948.112,302.874 948.652,302.91L949.138,302.946Z" style="fill:rgb(185,185,185);fill-rule:nonzero;"/>
                    <path d="M951.946,304.098C951.73,304.098 951.553,304.035 951.415,303.909C951.277,303.783 951.208,303.606 951.208,303.378L951.208,295.782C951.208,295.554 951.277,295.377 951.415,295.251C951.553,295.125 951.73,295.062 951.946,295.062C952.162,295.062 952.336,295.125 952.468,295.251C952.6,295.377 952.666,295.554 952.666,295.782L952.666,303.378C952.666,303.618 952.6,303.798 952.468,303.918C952.336,304.038 952.162,304.098 951.946,304.098ZM951.946,293.172C951.658,293.172 951.424,293.088 951.244,292.92C951.064,292.752 950.974,292.53 950.974,292.254C950.974,291.99 951.064,291.774 951.244,291.606C951.424,291.438 951.658,291.354 951.946,291.354C952.234,291.354 952.468,291.438 952.648,291.606C952.828,291.774 952.918,291.99 952.918,292.254C952.918,292.53 952.828,292.752 952.648,292.92C952.468,293.088 952.234,293.172 951.946,293.172Z" style="fill:rgb(185,185,185);fill-rule:nonzero;"/>
                    <path d="M959.02,304.134C958.192,304.134 957.463,303.948 956.833,303.576C956.203,303.204 955.717,302.673 955.375,301.983C955.033,301.293 954.862,300.492 954.862,299.58C954.862,298.668 955.033,297.867 955.375,297.177C955.717,296.487 956.203,295.956 956.833,295.584C957.463,295.212 958.192,295.026 959.02,295.026C959.848,295.026 960.58,295.212 961.216,295.584C961.852,295.956 962.341,296.487 962.683,297.177C963.025,297.867 963.196,298.668 963.196,299.58C963.196,300.492 963.025,301.293 962.683,301.983C962.341,302.673 961.852,303.204 961.216,303.576C960.58,303.948 959.848,304.134 959.02,304.134ZM959.02,302.928C959.884,302.928 960.547,302.643 961.009,302.073C961.471,301.503 961.702,300.672 961.702,299.58C961.702,298.512 961.468,297.687 961,297.105C960.532,296.523 959.872,296.232 959.02,296.232C958.168,296.232 957.508,296.523 957.04,297.105C956.572,297.687 956.338,298.512 956.338,299.58C956.338,300.66 956.569,301.488 957.031,302.064C957.493,302.64 958.156,302.928 959.02,302.928Z" style="fill:rgb(185,185,185);fill-rule:nonzero;"/>
                    <path d="M969.784,295.026C971.884,295.026 972.934,296.184 972.934,298.5L972.934,303.378C972.934,303.606 972.871,303.783 972.745,303.909C972.619,304.035 972.442,304.098 972.214,304.098C971.986,304.098 971.806,304.035 971.674,303.909C971.542,303.783 971.476,303.606 971.476,303.378L971.476,298.59C971.476,297.774 971.317,297.18 970.999,296.808C970.681,296.436 970.174,296.25 969.478,296.25C968.674,296.25 968.032,296.496 967.552,296.988C967.072,297.48 966.832,298.146 966.832,298.986L966.832,303.378C966.832,303.606 966.769,303.783 966.643,303.909C966.517,304.035 966.34,304.098 966.112,304.098C965.884,304.098 965.704,304.035 965.572,303.909C965.44,303.783 965.374,303.606 965.374,303.378L965.374,295.782C965.374,295.566 965.44,295.392 965.572,295.26C965.704,295.128 965.884,295.062 966.112,295.062C966.328,295.062 966.499,295.128 966.625,295.26C966.751,295.392 966.814,295.56 966.814,295.764L966.814,296.682C967.102,296.142 967.504,295.731 968.02,295.449C968.536,295.167 969.124,295.026 969.784,295.026Z" style="fill:rgb(185,185,185);fill-rule:nonzero;"/>
                </g>
                <g transform="matrix(14.7594,0,0,14.7594,-8211.01,-1924.2)">
                    <path d="M878.704,303.09C878.788,303.222 878.83,303.36 878.83,303.504C878.83,303.684 878.761,303.831 878.623,303.945C878.485,304.059 878.326,304.116 878.146,304.116C877.87,304.116 877.654,303.996 877.498,303.756L875.086,299.94C874.774,299.448 874.45,299.109 874.114,298.923C873.778,298.737 873.322,298.644 872.746,298.644L870.478,298.644L870.478,303.342C870.478,303.57 870.412,303.753 870.28,303.891C870.148,304.029 869.974,304.098 869.758,304.098C869.53,304.098 869.35,304.029 869.218,303.891C869.086,303.753 869.02,303.57 869.02,303.342L869.02,292.038C869.02,291.822 869.089,291.648 869.227,291.516C869.365,291.384 869.548,291.318 869.776,291.318L874.24,291.318C875.62,291.318 876.673,291.624 877.399,292.236C878.125,292.848 878.488,293.748 878.488,294.936C878.488,295.944 878.197,296.754 877.615,297.366C877.033,297.978 876.202,298.35 875.122,298.482C875.422,298.578 875.692,298.734 875.932,298.95C876.172,299.166 876.412,299.466 876.652,299.85L878.704,303.09ZM874.114,297.42C875.098,297.42 875.833,297.216 876.319,296.808C876.805,296.4 877.048,295.782 877.048,294.954C877.048,294.138 876.808,293.532 876.328,293.136C875.848,292.74 875.11,292.542 874.114,292.542L870.478,292.542L870.478,297.42L874.114,297.42Z" style="fill:rgb(185,185,185);fill-rule:nonzero;"/>
                    <path d="M884.824,304.098C884.596,304.098 884.413,304.029 884.275,303.891C884.137,303.753 884.068,303.57 884.068,303.342L884.068,292.578L880.198,292.578C879.982,292.578 879.814,292.524 879.694,292.416C879.574,292.308 879.514,292.152 879.514,291.948C879.514,291.744 879.574,291.588 879.694,291.48C879.814,291.372 879.982,291.318 880.198,291.318L889.432,291.318C889.648,291.318 889.816,291.372 889.936,291.48C890.056,291.588 890.116,291.744 890.116,291.948C890.116,292.152 890.056,292.308 889.936,292.416C889.816,292.524 889.648,292.578 889.432,292.578L885.562,292.578L885.562,303.342C885.562,303.57 885.496,303.753 885.364,303.891C885.232,304.029 885.052,304.098 884.824,304.098Z" style="fill:rgb(185,185,185);fill-rule:nonzero;"/>
                    <path d="M892.528,304.008C892.3,304.008 892.117,303.942 891.979,303.81C891.841,303.678 891.772,303.504 891.772,303.288L891.772,292.038C891.772,291.822 891.841,291.648 891.979,291.516C892.117,291.384 892.3,291.318 892.528,291.318L896.038,291.318C898.066,291.318 899.635,291.867 900.745,292.965C901.855,294.063 902.41,295.626 902.41,297.654C902.41,299.682 901.852,301.248 900.736,302.352C899.62,303.456 898.054,304.008 896.038,304.008L892.528,304.008ZM895.948,302.748C899.236,302.748 900.88,301.05 900.88,297.654C900.88,294.27 899.236,292.578 895.948,292.578L893.248,292.578L893.248,302.748L895.948,302.748Z" style="fill:rgb(185,185,185);fill-rule:nonzero;"/>
                    <path d="M916.342,291.228C916.57,291.228 916.747,291.297 916.873,291.435C916.999,291.573 917.062,291.756 917.062,291.984L917.062,303.378C917.062,303.594 917.002,303.768 916.882,303.9C916.762,304.032 916.594,304.098 916.378,304.098C916.162,304.098 916,304.032 915.892,303.9C915.784,303.768 915.73,303.594 915.73,303.378L915.73,294.18L911.824,301.668C911.656,302.016 911.41,302.19 911.086,302.19C910.774,302.19 910.528,302.016 910.348,301.668L906.424,294.27L906.424,303.378C906.424,303.594 906.367,303.768 906.253,303.9C906.139,304.032 905.974,304.098 905.758,304.098C905.542,304.098 905.374,304.032 905.254,303.9C905.134,303.768 905.074,303.594 905.074,303.378L905.074,291.984C905.074,291.756 905.14,291.573 905.272,291.435C905.404,291.297 905.584,291.228 905.812,291.228C906.112,291.228 906.352,291.402 906.532,291.75L911.104,300.516L915.622,291.75C915.718,291.558 915.823,291.423 915.937,291.345C916.051,291.267 916.186,291.228 916.342,291.228Z" style="fill:rgb(185,185,185);fill-rule:nonzero;"/>
                    <path d="M920.95,304.098C920.722,304.098 920.542,304.029 920.41,303.891C920.278,303.753 920.212,303.57 920.212,303.342L920.212,291.984C920.212,291.756 920.278,291.573 920.41,291.435C920.542,291.297 920.722,291.228 920.95,291.228C921.178,291.228 921.358,291.297 921.49,291.435C921.622,291.573 921.688,291.756 921.688,291.984L921.688,303.342C921.688,303.57 921.622,303.753 921.49,303.891C921.358,304.029 921.178,304.098 920.95,304.098Z" style="fill:rgb(185,185,185);fill-rule:nonzero;"/>
                </g>
            </g>
        </g>
    </g>
</svg>
