<?xml version="1.0" encoding="UTF-8" standalone="no"?>
<!DOCTYPE svg PUBLIC "-//W3C//DTD SVG 1.1//EN" "http://www.w3.org/Graphics/SVG/1.1/DTD/svg11.dtd">
<svg width="100%" height="100%" viewBox="0 0 191 191" version="1.1" xmlns="http://www.w3.org/2000/svg" xmlns:xlink="http://www.w3.org/1999/xlink" xml:space="preserve" xmlns:serif="http://www.serif.com/" style="fill-rule:evenodd;clip-rule:evenodd;stroke-linejoin:round;stroke-miterlimit:1.41421;">
    <g transform="matrix(1,0,0,1,-466,-341)">
        <g>
            <g transform="matrix(0.929296,0,0,0.929296,39.6904,30.8738)">
                <circle cx="561.36" cy="436.663" r="102.003" style="fill:white;"/>
            </g>
            <g>
                <g transform="matrix(1,0,0,1,45.46,19.8413)">
                    <path d="M462.324,447.783C462.367,447.868 462.388,447.959 462.388,448.055C462.388,448.215 462.327,448.348 462.204,448.455C462.082,448.561 461.935,448.615 461.764,448.615C461.498,448.615 461.311,448.487 461.204,448.231L460.068,445.639L454.036,445.639L452.884,448.231C452.778,448.487 452.591,448.615 452.324,448.615C452.154,448.615 452.004,448.559 451.876,448.447C451.748,448.335 451.684,448.199 451.684,448.039C451.684,447.953 451.706,447.868 451.748,447.783L456.324,437.607C456.388,437.457 456.484,437.345 456.612,437.271C456.74,437.196 456.879,437.159 457.028,437.159C457.188,437.159 457.332,437.199 457.46,437.279C457.588,437.359 457.684,437.468 457.748,437.607L462.324,447.783ZM454.516,444.551L459.588,444.551L457.044,438.807L454.516,444.551Z" style="fill:rgb(102,101,106);fill-rule:nonzero;"/>
                    <path d="M467.268,448.647C466.543,448.647 465.9,448.481 465.34,448.151C464.78,447.82 464.348,447.351 464.044,446.743C463.74,446.135 463.588,445.431 463.588,444.631C463.588,443.831 463.746,443.121 464.06,442.503C464.375,441.884 464.815,441.404 465.38,441.063C465.946,440.721 466.596,440.551 467.332,440.551C467.738,440.551 468.14,440.607 468.54,440.719C468.94,440.831 469.29,440.993 469.588,441.207C469.78,441.335 469.916,441.46 469.996,441.583C470.076,441.705 470.116,441.841 470.116,441.991C470.116,442.14 470.076,442.263 469.996,442.359C469.916,442.455 469.812,442.503 469.684,442.503C469.61,442.503 469.53,442.481 469.444,442.439C469.359,442.396 469.287,442.353 469.228,442.311C469.17,442.268 469.13,442.241 469.108,442.231C468.831,442.049 468.567,441.905 468.316,441.799C468.066,441.692 467.759,441.639 467.396,441.639C466.618,441.639 466.012,441.903 465.58,442.431C465.148,442.959 464.932,443.692 464.932,444.631C464.932,445.569 465.148,446.295 465.58,446.807C466.012,447.319 466.618,447.575 467.396,447.575C467.759,447.575 468.071,447.521 468.332,447.415C468.594,447.308 468.858,447.164 469.124,446.983C469.242,446.908 469.354,446.844 469.46,446.791C469.567,446.737 469.658,446.711 469.732,446.711C469.85,446.711 469.948,446.759 470.028,446.855C470.108,446.951 470.148,447.073 470.148,447.223C470.148,447.361 470.111,447.487 470.036,447.599C469.962,447.711 469.823,447.836 469.62,447.975C469.322,448.177 468.962,448.34 468.54,448.463C468.119,448.585 467.695,448.647 467.268,448.647Z" style="fill:rgb(102,101,106);fill-rule:nonzero;"/>
                    <path d="M475.332,447.591C475.706,447.623 475.892,447.793 475.892,448.103C475.892,448.284 475.826,448.42 475.692,448.511C475.559,448.601 475.359,448.636 475.092,448.615L474.66,448.583C473.807,448.519 473.178,448.263 472.772,447.815C472.367,447.367 472.164,446.689 472.164,445.783L472.164,441.767L471.092,441.767C470.911,441.767 470.77,441.721 470.668,441.631C470.567,441.54 470.516,441.42 470.516,441.271C470.516,441.111 470.567,440.983 470.668,440.887C470.77,440.791 470.911,440.743 471.092,440.743L472.164,440.743L472.164,438.935C472.164,438.732 472.223,438.575 472.34,438.463C472.458,438.351 472.618,438.295 472.82,438.295C473.012,438.295 473.167,438.351 473.284,438.463C473.402,438.575 473.46,438.732 473.46,438.935L473.46,440.743L475.236,440.743C475.407,440.743 475.543,440.791 475.644,440.887C475.746,440.983 475.796,441.111 475.796,441.271C475.796,441.42 475.746,441.54 475.644,441.631C475.543,441.721 475.407,441.767 475.236,441.767L473.46,441.767L473.46,445.847C473.46,446.433 473.58,446.857 473.82,447.119C474.06,447.38 474.42,447.527 474.9,447.559L475.332,447.591Z" style="fill:rgb(102,101,106);fill-rule:nonzero;"/>
                    <path d="M477.828,448.615C477.636,448.615 477.479,448.559 477.356,448.447C477.234,448.335 477.172,448.177 477.172,447.975L477.172,441.223C477.172,441.02 477.234,440.863 477.356,440.751C477.479,440.639 477.636,440.583 477.828,440.583C478.02,440.583 478.175,440.639 478.292,440.751C478.41,440.863 478.468,441.02 478.468,441.223L478.468,447.975C478.468,448.188 478.41,448.348 478.292,448.455C478.175,448.561 478.02,448.615 477.828,448.615ZM477.828,438.903C477.572,438.903 477.364,438.828 477.204,438.679C477.044,438.529 476.964,438.332 476.964,438.087C476.964,437.852 477.044,437.66 477.204,437.511C477.364,437.361 477.572,437.287 477.828,437.287C478.084,437.287 478.292,437.361 478.452,437.511C478.612,437.66 478.692,437.852 478.692,438.087C478.692,438.332 478.612,438.529 478.452,438.679C478.292,438.828 478.084,438.903 477.828,438.903Z" style="fill:rgb(102,101,106);fill-rule:nonzero;"/>
                    <path d="M484.116,448.647C483.38,448.647 482.732,448.481 482.172,448.151C481.612,447.82 481.18,447.348 480.876,446.735C480.572,446.121 480.42,445.409 480.42,444.599C480.42,443.788 480.572,443.076 480.876,442.463C481.18,441.849 481.612,441.377 482.172,441.047C482.732,440.716 483.38,440.551 484.116,440.551C484.852,440.551 485.503,440.716 486.068,441.047C486.634,441.377 487.068,441.849 487.372,442.463C487.676,443.076 487.828,443.788 487.828,444.599C487.828,445.409 487.676,446.121 487.372,446.735C487.068,447.348 486.634,447.82 486.068,448.151C485.503,448.481 484.852,448.647 484.116,448.647ZM484.116,447.575C484.884,447.575 485.474,447.321 485.884,446.815C486.295,446.308 486.5,445.569 486.5,444.599C486.5,443.649 486.292,442.916 485.876,442.399C485.46,441.881 484.874,441.623 484.116,441.623C483.359,441.623 482.772,441.881 482.356,442.399C481.94,442.916 481.732,443.649 481.732,444.599C481.732,445.559 481.938,446.295 482.348,446.807C482.759,447.319 483.348,447.575 484.116,447.575Z" style="fill:rgb(102,101,106);fill-rule:nonzero;"/>
                    <path d="M493.684,440.551C495.551,440.551 496.484,441.58 496.484,443.639L496.484,447.975C496.484,448.177 496.428,448.335 496.316,448.447C496.204,448.559 496.047,448.615 495.844,448.615C495.642,448.615 495.482,448.559 495.364,448.447C495.247,448.335 495.188,448.177 495.188,447.975L495.188,443.719C495.188,442.993 495.047,442.465 494.764,442.135C494.482,441.804 494.031,441.639 493.412,441.639C492.698,441.639 492.127,441.857 491.7,442.295C491.274,442.732 491.06,443.324 491.06,444.071L491.06,447.975C491.06,448.177 491.004,448.335 490.892,448.447C490.78,448.559 490.623,448.615 490.42,448.615C490.218,448.615 490.058,448.559 489.94,448.447C489.823,448.335 489.764,448.177 489.764,447.975L489.764,441.223C489.764,441.031 489.823,440.876 489.94,440.759C490.058,440.641 490.218,440.583 490.42,440.583C490.612,440.583 490.764,440.641 490.876,440.759C490.988,440.876 491.044,441.025 491.044,441.207L491.044,442.023C491.3,441.543 491.658,441.177 492.116,440.927C492.575,440.676 493.098,440.551 493.684,440.551Z" style="fill:rgb(102,101,106);fill-rule:nonzero;"/>
                    <path d="M502.036,440.551C503.988,440.551 504.964,441.575 504.964,443.623L504.964,447.975C504.964,448.167 504.908,448.321 504.796,448.439C504.684,448.556 504.532,448.615 504.34,448.615C504.148,448.615 503.994,448.556 503.876,448.439C503.759,448.321 503.7,448.167 503.7,447.975L503.7,447.207C503.498,447.665 503.188,448.02 502.772,448.271C502.356,448.521 501.876,448.647 501.332,448.647C500.831,448.647 500.37,448.545 499.948,448.343C499.527,448.14 499.194,447.857 498.948,447.495C498.703,447.132 498.58,446.732 498.58,446.295C498.58,445.708 498.73,445.252 499.028,444.927C499.327,444.601 499.818,444.367 500.5,444.223C501.183,444.079 502.132,444.007 503.348,444.007L503.7,444.007L503.7,443.479C503.7,442.839 503.57,442.369 503.308,442.071C503.047,441.772 502.623,441.623 502.036,441.623C501.311,441.623 500.575,441.82 499.828,442.215C499.54,442.396 499.338,442.487 499.22,442.487C499.092,442.487 498.986,442.439 498.9,442.343C498.815,442.247 498.772,442.124 498.772,441.975C498.772,441.825 498.818,441.695 498.908,441.583C498.999,441.471 499.146,441.356 499.348,441.239C499.722,441.025 500.146,440.857 500.62,440.735C501.095,440.612 501.567,440.551 502.036,440.551ZM501.508,447.623C502.148,447.623 502.674,447.407 503.084,446.975C503.495,446.543 503.7,445.985 503.7,445.303L503.7,444.839L503.412,444.839C502.474,444.839 501.759,444.879 501.268,444.959C500.778,445.039 500.428,445.172 500.22,445.359C500.012,445.545 499.908,445.82 499.908,446.183C499.908,446.599 500.06,446.943 500.364,447.215C500.668,447.487 501.05,447.623 501.508,447.623Z" style="fill:rgb(102,101,106);fill-rule:nonzero;"/>
                    <path d="M511.252,440.551C511.935,440.551 512.538,440.716 513.06,441.047C513.583,441.377 513.988,441.847 514.276,442.455C514.564,443.063 514.708,443.767 514.708,444.567C514.708,445.377 514.564,446.089 514.276,446.703C513.988,447.316 513.583,447.793 513.06,448.135C512.538,448.476 511.935,448.647 511.252,448.647C510.644,448.647 510.114,448.513 509.66,448.247C509.207,447.98 508.863,447.601 508.628,447.111L508.628,447.975C508.628,448.167 508.572,448.321 508.46,448.439C508.348,448.556 508.191,448.615 507.988,448.615C507.786,448.615 507.626,448.556 507.508,448.439C507.391,448.321 507.332,448.167 507.332,447.975L507.332,437.799C507.332,437.617 507.391,437.468 507.508,437.351C507.626,437.233 507.786,437.175 507.988,437.175C508.191,437.175 508.348,437.231 508.46,437.343C508.572,437.455 508.628,437.607 508.628,437.799L508.628,442.087C508.863,441.596 509.207,441.217 509.66,440.951C510.114,440.684 510.644,440.551 511.252,440.551ZM510.996,447.575C511.754,447.575 512.34,447.311 512.756,446.783C513.172,446.255 513.38,445.516 513.38,444.567C513.38,443.639 513.172,442.919 512.756,442.407C512.34,441.895 511.754,441.639 510.996,441.639C510.239,441.639 509.655,441.895 509.244,442.407C508.834,442.919 508.628,443.649 508.628,444.599C508.628,445.548 508.834,446.281 509.244,446.799C509.655,447.316 510.239,447.575 510.996,447.575Z" style="fill:rgb(102,101,106);fill-rule:nonzero;"/>
                    <path d="M517.3,448.615C517.108,448.615 516.951,448.559 516.828,448.447C516.706,448.335 516.644,448.177 516.644,447.975L516.644,437.815C516.644,437.612 516.706,437.455 516.828,437.343C516.951,437.231 517.108,437.175 517.3,437.175C517.482,437.175 517.634,437.231 517.756,437.343C517.879,437.455 517.94,437.612 517.94,437.815L517.94,447.975C517.94,448.177 517.879,448.335 517.756,448.447C517.634,448.559 517.482,448.615 517.3,448.615Z" style="fill:rgb(102,101,106);fill-rule:nonzero;"/>
                    <path d="M526.388,446.727C526.506,446.727 526.607,446.775 526.692,446.871C526.778,446.967 526.82,447.089 526.82,447.239C526.82,447.505 526.634,447.751 526.26,447.975C525.876,448.199 525.471,448.367 525.044,448.479C524.618,448.591 524.202,448.647 523.796,448.647C522.591,448.647 521.639,448.289 520.94,447.575C520.242,446.86 519.892,445.873 519.892,444.615C519.892,443.815 520.047,443.108 520.356,442.495C520.666,441.881 521.1,441.404 521.66,441.063C522.22,440.721 522.858,440.551 523.572,440.551C524.586,440.551 525.391,440.881 525.988,441.543C526.586,442.204 526.884,443.1 526.884,444.231C526.884,444.444 526.842,444.599 526.756,444.695C526.671,444.791 526.532,444.839 526.34,444.839L521.188,444.839C521.284,446.673 522.154,447.591 523.796,447.591C524.212,447.591 524.57,447.535 524.868,447.423C525.167,447.311 525.487,447.159 525.828,446.967C526.106,446.807 526.292,446.727 526.388,446.727ZM523.588,441.559C522.906,441.559 522.359,441.772 521.948,442.199C521.538,442.625 521.295,443.228 521.22,444.007L525.748,444.007C525.727,443.217 525.53,442.612 525.156,442.191C524.783,441.769 524.26,441.559 523.588,441.559Z" style="fill:rgb(102,101,106);fill-rule:nonzero;"/>
                    <path d="M533.764,448.615C533.562,448.615 533.402,448.553 533.284,448.431C533.167,448.308 533.108,448.145 533.108,447.943L533.108,437.847C533.108,437.644 533.167,437.481 533.284,437.359C533.402,437.236 533.562,437.175 533.764,437.175C533.967,437.175 534.127,437.236 534.244,437.359C534.362,437.481 534.42,437.644 534.42,437.847L534.42,447.943C534.42,448.145 534.362,448.308 534.244,448.431C534.127,448.553 533.967,448.615 533.764,448.615Z" style="fill:rgb(102,101,106);fill-rule:nonzero;"/>
                    <path d="M540.932,440.551C542.799,440.551 543.732,441.58 543.732,443.639L543.732,447.975C543.732,448.177 543.676,448.335 543.564,448.447C543.452,448.559 543.295,448.615 543.092,448.615C542.89,448.615 542.73,448.559 542.612,448.447C542.495,448.335 542.436,448.177 542.436,447.975L542.436,443.719C542.436,442.993 542.295,442.465 542.012,442.135C541.73,441.804 541.279,441.639 540.66,441.639C539.946,441.639 539.375,441.857 538.948,442.295C538.522,442.732 538.308,443.324 538.308,444.071L538.308,447.975C538.308,448.177 538.252,448.335 538.14,448.447C538.028,448.559 537.871,448.615 537.668,448.615C537.466,448.615 537.306,448.559 537.188,448.447C537.071,448.335 537.012,448.177 537.012,447.975L537.012,441.223C537.012,441.031 537.071,440.876 537.188,440.759C537.306,440.641 537.466,440.583 537.668,440.583C537.86,440.583 538.012,440.641 538.124,440.759C538.236,440.876 538.292,441.025 538.292,441.207L538.292,442.023C538.548,441.543 538.906,441.177 539.364,440.927C539.823,440.676 540.346,440.551 540.932,440.551Z" style="fill:rgb(102,101,106);fill-rule:nonzero;"/>
                    <path d="M548.724,448.647C548.234,448.647 547.767,448.588 547.324,448.471C546.882,448.353 546.49,448.188 546.148,447.975C545.956,447.847 545.82,447.727 545.74,447.615C545.66,447.503 545.62,447.367 545.62,447.207C545.62,447.068 545.66,446.953 545.74,446.863C545.82,446.772 545.924,446.727 546.052,446.727C546.18,446.727 546.367,446.807 546.612,446.967C546.932,447.159 547.25,447.311 547.564,447.423C547.879,447.535 548.271,447.591 548.74,447.591C549.316,447.591 549.764,447.489 550.084,447.287C550.404,447.084 550.564,446.791 550.564,446.407C550.564,446.172 550.506,445.983 550.388,445.839C550.271,445.695 550.068,445.567 549.78,445.455C549.492,445.343 549.071,445.228 548.516,445.111C547.578,444.908 546.906,444.636 546.5,444.295C546.095,443.953 545.892,443.489 545.892,442.903C545.892,442.444 546.02,442.039 546.276,441.687C546.532,441.335 546.887,441.057 547.34,440.855C547.794,440.652 548.308,440.551 548.884,440.551C549.3,440.551 549.703,440.607 550.092,440.719C550.482,440.831 550.826,440.988 551.124,441.191C551.487,441.447 551.668,441.713 551.668,441.991C551.668,442.129 551.626,442.247 551.54,442.343C551.455,442.439 551.354,442.487 551.236,442.487C551.108,442.487 550.916,442.396 550.66,442.215C550.362,442.023 550.079,441.873 549.812,441.767C549.546,441.66 549.215,441.607 548.82,441.607C548.319,441.607 547.916,441.719 547.612,441.943C547.308,442.167 547.156,442.465 547.156,442.839C547.156,443.073 547.212,443.263 547.324,443.407C547.436,443.551 547.623,443.679 547.884,443.791C548.146,443.903 548.522,444.012 549.012,444.119C549.738,444.279 550.3,444.455 550.7,444.647C551.1,444.839 551.386,445.073 551.556,445.351C551.727,445.628 551.812,445.98 551.812,446.407C551.812,447.079 551.53,447.62 550.964,448.031C550.399,448.441 549.652,448.647 548.724,448.647Z" style="fill:rgb(102,101,106);fill-rule:nonzero;"/>
                    <path d="M554.436,448.615C554.244,448.615 554.087,448.559 553.964,448.447C553.842,448.335 553.78,448.177 553.78,447.975L553.78,441.223C553.78,441.02 553.842,440.863 553.964,440.751C554.087,440.639 554.244,440.583 554.436,440.583C554.628,440.583 554.783,440.639 554.9,440.751C555.018,440.863 555.076,441.02 555.076,441.223L555.076,447.975C555.076,448.188 555.018,448.348 554.9,448.455C554.783,448.561 554.628,448.615 554.436,448.615ZM554.436,438.903C554.18,438.903 553.972,438.828 553.812,438.679C553.652,438.529 553.572,438.332 553.572,438.087C553.572,437.852 553.652,437.66 553.812,437.511C553.972,437.361 554.18,437.287 554.436,437.287C554.692,437.287 554.9,437.361 555.06,437.511C555.22,437.66 555.3,437.852 555.3,438.087C555.3,438.332 555.22,438.529 555.06,438.679C554.9,438.828 554.692,438.903 554.436,438.903Z" style="fill:rgb(102,101,106);fill-rule:nonzero;"/>
                    <path d="M563.812,440.583C564.015,440.583 564.175,440.641 564.292,440.759C564.41,440.876 564.468,441.031 564.468,441.223L564.468,448.007C564.468,449.169 564.17,450.047 563.572,450.639C562.975,451.231 562.09,451.527 560.916,451.527C559.775,451.527 558.826,451.303 558.068,450.855C557.684,450.641 557.492,450.396 557.492,450.119C557.492,449.969 557.532,449.847 557.612,449.751C557.692,449.655 557.796,449.607 557.924,449.607C558.031,449.607 558.223,449.681 558.5,449.831C558.874,450.023 559.242,450.177 559.604,450.295C559.967,450.412 560.399,450.471 560.9,450.471C561.658,450.471 562.228,450.271 562.612,449.871C562.996,449.471 563.188,448.887 563.188,448.119L563.188,446.743C562.964,447.244 562.62,447.628 562.156,447.895C561.692,448.161 561.146,448.295 560.516,448.295C559.834,448.295 559.228,448.135 558.7,447.815C558.172,447.495 557.762,447.041 557.468,446.455C557.175,445.868 557.028,445.191 557.028,444.423C557.028,443.655 557.175,442.977 557.468,442.391C557.762,441.804 558.172,441.351 558.7,441.031C559.228,440.711 559.834,440.551 560.516,440.551C561.135,440.551 561.674,440.684 562.132,440.951C562.591,441.217 562.938,441.596 563.172,442.087L563.172,441.223C563.172,441.031 563.228,440.876 563.34,440.759C563.452,440.641 563.61,440.583 563.812,440.583ZM560.772,447.223C561.519,447.223 562.106,446.975 562.532,446.479C562.959,445.983 563.172,445.297 563.172,444.423C563.172,443.559 562.962,442.879 562.54,442.383C562.119,441.887 561.53,441.639 560.772,441.639C560.015,441.639 559.42,441.887 558.988,442.383C558.556,442.879 558.34,443.559 558.34,444.423C558.34,445.297 558.556,445.983 558.988,446.479C559.42,446.975 560.015,447.223 560.772,447.223Z" style="fill:rgb(102,101,106);fill-rule:nonzero;"/>
                    <path d="M570.804,440.551C571.722,440.551 572.415,440.809 572.884,441.327C573.354,441.844 573.588,442.615 573.588,443.639L573.588,447.975C573.588,448.177 573.53,448.335 573.412,448.447C573.295,448.559 573.14,448.615 572.948,448.615C572.746,448.615 572.586,448.559 572.468,448.447C572.351,448.335 572.292,448.177 572.292,447.975L572.292,443.671C572.292,442.977 572.151,442.465 571.868,442.135C571.586,441.804 571.135,441.639 570.516,441.639C569.802,441.639 569.231,441.857 568.804,442.295C568.378,442.732 568.164,443.324 568.164,444.071L568.164,447.975C568.164,448.177 568.108,448.335 567.996,448.447C567.884,448.559 567.727,448.615 567.524,448.615C567.322,448.615 567.162,448.559 567.044,448.447C566.927,448.335 566.868,448.177 566.868,447.975L566.868,437.799C566.868,437.617 566.93,437.468 567.052,437.351C567.175,437.233 567.332,437.175 567.524,437.175C567.727,437.175 567.884,437.231 567.996,437.343C568.108,437.455 568.164,437.607 568.164,437.799L568.164,441.991C568.42,441.521 568.778,441.164 569.236,440.919C569.695,440.673 570.218,440.551 570.804,440.551Z" style="fill:rgb(102,101,106);fill-rule:nonzero;"/>
                    <path d="M579.556,447.591C579.93,447.623 580.116,447.793 580.116,448.103C580.116,448.284 580.05,448.42 579.916,448.511C579.783,448.601 579.583,448.636 579.316,448.615L578.884,448.583C578.031,448.519 577.402,448.263 576.996,447.815C576.591,447.367 576.388,446.689 576.388,445.783L576.388,441.767L575.316,441.767C575.135,441.767 574.994,441.721 574.892,441.631C574.791,441.54 574.74,441.42 574.74,441.271C574.74,441.111 574.791,440.983 574.892,440.887C574.994,440.791 575.135,440.743 575.316,440.743L576.388,440.743L576.388,438.935C576.388,438.732 576.447,438.575 576.564,438.463C576.682,438.351 576.842,438.295 577.044,438.295C577.236,438.295 577.391,438.351 577.508,438.463C577.626,438.575 577.684,438.732 577.684,438.935L577.684,440.743L579.46,440.743C579.631,440.743 579.767,440.791 579.868,440.887C579.97,440.983 580.02,441.111 580.02,441.271C580.02,441.42 579.97,441.54 579.868,441.631C579.767,441.721 579.631,441.767 579.46,441.767L577.684,441.767L577.684,445.847C577.684,446.433 577.804,446.857 578.044,447.119C578.284,447.38 578.644,447.527 579.124,447.559L579.556,447.591Z" style="fill:rgb(102,101,106);fill-rule:nonzero;"/>
                    <path d="M464.26,459.217C466.212,459.217 467.188,460.241 467.188,462.289L467.188,466.641C467.188,466.833 467.132,466.988 467.02,467.105C466.908,467.223 466.756,467.281 466.564,467.281C466.372,467.281 466.218,467.223 466.1,467.105C465.983,466.988 465.924,466.833 465.924,466.641L465.924,465.873C465.722,466.332 465.412,466.687 464.996,466.937C464.58,467.188 464.1,467.313 463.556,467.313C463.055,467.313 462.594,467.212 462.172,467.009C461.751,466.807 461.418,466.524 461.172,466.161C460.927,465.799 460.804,465.399 460.804,464.961C460.804,464.375 460.954,463.919 461.252,463.593C461.551,463.268 462.042,463.033 462.724,462.889C463.407,462.745 464.356,462.673 465.572,462.673L465.924,462.673L465.924,462.145C465.924,461.505 465.794,461.036 465.532,460.737C465.271,460.439 464.847,460.289 464.26,460.289C463.535,460.289 462.799,460.487 462.052,460.881C461.764,461.063 461.562,461.153 461.444,461.153C461.316,461.153 461.21,461.105 461.124,461.009C461.039,460.913 460.996,460.791 460.996,460.641C460.996,460.492 461.042,460.361 461.132,460.249C461.223,460.137 461.37,460.023 461.572,459.905C461.946,459.692 462.37,459.524 462.844,459.401C463.319,459.279 463.791,459.217 464.26,459.217ZM463.732,466.289C464.372,466.289 464.898,466.073 465.308,465.641C465.719,465.209 465.924,464.652 465.924,463.969L465.924,463.505L465.636,463.505C464.698,463.505 463.983,463.545 463.492,463.625C463.002,463.705 462.652,463.839 462.444,464.025C462.236,464.212 462.132,464.487 462.132,464.849C462.132,465.265 462.284,465.609 462.588,465.881C462.892,466.153 463.274,466.289 463.732,466.289Z" style="fill:rgb(102,101,106);fill-rule:nonzero;"/>
                    <path d="M473.476,459.217C475.343,459.217 476.276,460.247 476.276,462.305L476.276,466.641C476.276,466.844 476.22,467.001 476.108,467.113C475.996,467.225 475.839,467.281 475.636,467.281C475.434,467.281 475.274,467.225 475.156,467.113C475.039,467.001 474.98,466.844 474.98,466.641L474.98,462.385C474.98,461.66 474.839,461.132 474.556,460.801C474.274,460.471 473.823,460.305 473.204,460.305C472.49,460.305 471.919,460.524 471.492,460.961C471.066,461.399 470.852,461.991 470.852,462.737L470.852,466.641C470.852,466.844 470.796,467.001 470.684,467.113C470.572,467.225 470.415,467.281 470.212,467.281C470.01,467.281 469.85,467.225 469.732,467.113C469.615,467.001 469.556,466.844 469.556,466.641L469.556,459.889C469.556,459.697 469.615,459.543 469.732,459.425C469.85,459.308 470.01,459.249 470.212,459.249C470.404,459.249 470.556,459.308 470.668,459.425C470.78,459.543 470.836,459.692 470.836,459.873L470.836,460.689C471.092,460.209 471.45,459.844 471.908,459.593C472.367,459.343 472.89,459.217 473.476,459.217Z" style="fill:rgb(102,101,106);fill-rule:nonzero;"/>
                    <path d="M484.9,455.841C485.103,455.841 485.263,455.9 485.38,456.017C485.498,456.135 485.556,456.284 485.556,456.465L485.556,466.641C485.556,466.833 485.498,466.988 485.38,467.105C485.263,467.223 485.103,467.281 484.9,467.281C484.698,467.281 484.54,467.223 484.428,467.105C484.316,466.988 484.26,466.833 484.26,466.641L484.26,465.777C484.026,466.268 483.682,466.647 483.228,466.913C482.775,467.18 482.244,467.313 481.636,467.313C480.954,467.313 480.351,467.143 479.828,466.801C479.306,466.46 478.9,465.983 478.612,465.369C478.324,464.756 478.18,464.044 478.18,463.233C478.18,462.433 478.324,461.729 478.612,461.121C478.9,460.513 479.306,460.044 479.828,459.713C480.351,459.383 480.954,459.217 481.636,459.217C482.244,459.217 482.775,459.351 483.228,459.617C483.682,459.884 484.026,460.263 484.26,460.753L484.26,456.465C484.26,456.273 484.316,456.121 484.428,456.009C484.54,455.897 484.698,455.841 484.9,455.841ZM481.892,466.241C482.65,466.241 483.234,465.983 483.644,465.465C484.055,464.948 484.26,464.215 484.26,463.265C484.26,462.316 484.055,461.585 483.644,461.073C483.234,460.561 482.65,460.305 481.892,460.305C481.135,460.305 480.546,460.561 480.124,461.073C479.703,461.585 479.492,462.305 479.492,463.233C479.492,464.183 479.703,464.921 480.124,465.449C480.546,465.977 481.135,466.241 481.892,466.241Z" style="fill:rgb(102,101,106);fill-rule:nonzero;"/>
                    <path d="M500.388,466.209C500.538,466.348 500.612,466.503 500.612,466.673C500.612,466.823 500.551,466.959 500.428,467.081C500.306,467.204 500.164,467.265 500.004,467.265C499.866,467.265 499.722,467.201 499.572,467.073L493.588,461.841L493.588,466.609C493.588,466.812 493.53,466.975 493.412,467.097C493.295,467.22 493.135,467.281 492.932,467.281C492.73,467.281 492.57,467.22 492.452,467.097C492.335,466.975 492.276,466.812 492.276,466.609L492.276,456.513C492.276,456.311 492.335,456.148 492.452,456.025C492.57,455.903 492.73,455.841 492.932,455.841C493.135,455.841 493.295,455.903 493.412,456.025C493.53,456.148 493.588,456.311 493.588,456.513L493.588,461.105L499.3,456.033C499.418,455.916 499.556,455.857 499.716,455.857C499.876,455.857 500.015,455.919 500.132,456.041C500.25,456.164 500.308,456.3 500.308,456.449C500.308,456.609 500.239,456.759 500.1,456.897L494.932,461.441L500.388,466.209Z" style="fill:rgb(102,101,106);fill-rule:nonzero;"/>
                    <path d="M506.052,459.217C507.919,459.217 508.852,460.247 508.852,462.305L508.852,466.641C508.852,466.844 508.796,467.001 508.684,467.113C508.572,467.225 508.415,467.281 508.212,467.281C508.01,467.281 507.85,467.225 507.732,467.113C507.615,467.001 507.556,466.844 507.556,466.641L507.556,462.385C507.556,461.66 507.415,461.132 507.132,460.801C506.85,460.471 506.399,460.305 505.78,460.305C505.066,460.305 504.495,460.524 504.068,460.961C503.642,461.399 503.428,461.991 503.428,462.737L503.428,466.641C503.428,466.844 503.372,467.001 503.26,467.113C503.148,467.225 502.991,467.281 502.788,467.281C502.586,467.281 502.426,467.225 502.308,467.113C502.191,467.001 502.132,466.844 502.132,466.641L502.132,459.889C502.132,459.697 502.191,459.543 502.308,459.425C502.426,459.308 502.586,459.249 502.788,459.249C502.98,459.249 503.132,459.308 503.244,459.425C503.356,459.543 503.412,459.692 503.412,459.873L503.412,460.689C503.668,460.209 504.026,459.844 504.484,459.593C504.943,459.343 505.466,459.217 506.052,459.217Z" style="fill:rgb(102,101,106);fill-rule:nonzero;"/>
                    <path d="M514.452,467.313C513.716,467.313 513.068,467.148 512.508,466.817C511.948,466.487 511.516,466.015 511.212,465.401C510.908,464.788 510.756,464.076 510.756,463.265C510.756,462.455 510.908,461.743 511.212,461.129C511.516,460.516 511.948,460.044 512.508,459.713C513.068,459.383 513.716,459.217 514.452,459.217C515.188,459.217 515.839,459.383 516.404,459.713C516.97,460.044 517.404,460.516 517.708,461.129C518.012,461.743 518.164,462.455 518.164,463.265C518.164,464.076 518.012,464.788 517.708,465.401C517.404,466.015 516.97,466.487 516.404,466.817C515.839,467.148 515.188,467.313 514.452,467.313ZM514.452,466.241C515.22,466.241 515.81,465.988 516.22,465.481C516.631,464.975 516.836,464.236 516.836,463.265C516.836,462.316 516.628,461.583 516.212,461.065C515.796,460.548 515.21,460.289 514.452,460.289C513.695,460.289 513.108,460.548 512.692,461.065C512.276,461.583 512.068,462.316 512.068,463.265C512.068,464.225 512.274,464.961 512.684,465.473C513.095,465.985 513.684,466.241 514.452,466.241Z" style="fill:rgb(102,101,106);fill-rule:nonzero;"/>
                    <path d="M530.66,459.665C530.767,459.409 530.943,459.281 531.188,459.281C531.348,459.281 531.492,459.335 531.62,459.441C531.748,459.548 531.812,459.681 531.812,459.841C531.812,459.916 531.796,459.996 531.764,460.081L529.108,466.801C529.044,466.94 528.951,467.049 528.828,467.129C528.706,467.209 528.57,467.249 528.42,467.249C528.282,467.249 528.151,467.209 528.028,467.129C527.906,467.049 527.812,466.94 527.748,466.801L525.54,461.185L523.348,466.801C523.295,466.94 523.204,467.049 523.076,467.129C522.948,467.209 522.81,467.249 522.66,467.249C522.522,467.249 522.388,467.209 522.26,467.129C522.132,467.049 522.036,466.94 521.972,466.801L519.316,460.097C519.284,460.012 519.268,459.937 519.268,459.873C519.268,459.703 519.34,459.559 519.484,459.441C519.628,459.324 519.786,459.265 519.956,459.265C520.212,459.265 520.394,459.393 520.5,459.649L522.692,465.553L524.948,459.697C525.012,459.559 525.1,459.452 525.212,459.377C525.324,459.303 525.444,459.265 525.572,459.265C525.711,459.265 525.836,459.303 525.948,459.377C526.06,459.452 526.143,459.559 526.196,459.697L528.452,465.537L530.66,459.665Z" style="fill:rgb(102,101,106);fill-rule:nonzero;"/>
                    <path d="M534.132,467.281C533.94,467.281 533.783,467.225 533.66,467.113C533.538,467.001 533.476,466.844 533.476,466.641L533.476,456.481C533.476,456.279 533.538,456.121 533.66,456.009C533.783,455.897 533.94,455.841 534.132,455.841C534.314,455.841 534.466,455.897 534.588,456.009C534.711,456.121 534.772,456.279 534.772,456.481L534.772,466.641C534.772,466.844 534.711,467.001 534.588,467.113C534.466,467.225 534.314,467.281 534.132,467.281Z" style="fill:rgb(102,101,106);fill-rule:nonzero;"/>
                    <path d="M543.22,465.393C543.338,465.393 543.439,465.441 543.524,465.537C543.61,465.633 543.652,465.756 543.652,465.905C543.652,466.172 543.466,466.417 543.092,466.641C542.708,466.865 542.303,467.033 541.876,467.145C541.45,467.257 541.034,467.313 540.628,467.313C539.423,467.313 538.471,466.956 537.772,466.241C537.074,465.527 536.724,464.54 536.724,463.281C536.724,462.481 536.879,461.775 537.188,461.161C537.498,460.548 537.932,460.071 538.492,459.729C539.052,459.388 539.69,459.217 540.404,459.217C541.418,459.217 542.223,459.548 542.82,460.209C543.418,460.871 543.716,461.767 543.716,462.897C543.716,463.111 543.674,463.265 543.588,463.361C543.503,463.457 543.364,463.505 543.172,463.505L538.02,463.505C538.116,465.34 538.986,466.257 540.628,466.257C541.044,466.257 541.402,466.201 541.7,466.089C541.999,465.977 542.319,465.825 542.66,465.633C542.938,465.473 543.124,465.393 543.22,465.393ZM540.42,460.225C539.738,460.225 539.191,460.439 538.78,460.865C538.37,461.292 538.127,461.895 538.052,462.673L542.58,462.673C542.559,461.884 542.362,461.279 541.988,460.857C541.615,460.436 541.092,460.225 540.42,460.225Z" style="fill:rgb(102,101,106);fill-rule:nonzero;"/>
                    <path d="M551.876,455.841C552.079,455.841 552.239,455.9 552.356,456.017C552.474,456.135 552.532,456.284 552.532,456.465L552.532,466.641C552.532,466.833 552.474,466.988 552.356,467.105C552.239,467.223 552.079,467.281 551.876,467.281C551.674,467.281 551.516,467.223 551.404,467.105C551.292,466.988 551.236,466.833 551.236,466.641L551.236,465.777C551.002,466.268 550.658,466.647 550.204,466.913C549.751,467.18 549.22,467.313 548.612,467.313C547.93,467.313 547.327,467.143 546.804,466.801C546.282,466.46 545.876,465.983 545.588,465.369C545.3,464.756 545.156,464.044 545.156,463.233C545.156,462.433 545.3,461.729 545.588,461.121C545.876,460.513 546.282,460.044 546.804,459.713C547.327,459.383 547.93,459.217 548.612,459.217C549.22,459.217 549.751,459.351 550.204,459.617C550.658,459.884 551.002,460.263 551.236,460.753L551.236,456.465C551.236,456.273 551.292,456.121 551.404,456.009C551.516,455.897 551.674,455.841 551.876,455.841ZM548.868,466.241C549.626,466.241 550.21,465.983 550.62,465.465C551.031,464.948 551.236,464.215 551.236,463.265C551.236,462.316 551.031,461.585 550.62,461.073C550.21,460.561 549.626,460.305 548.868,460.305C548.111,460.305 547.522,460.561 547.1,461.073C546.679,461.585 546.468,462.305 546.468,463.233C546.468,464.183 546.679,464.921 547.1,465.449C547.522,465.977 548.111,466.241 548.868,466.241Z" style="fill:rgb(102,101,106);fill-rule:nonzero;"/>
                    <path d="M561.252,459.249C561.455,459.249 561.615,459.308 561.732,459.425C561.85,459.543 561.908,459.697 561.908,459.889L561.908,466.673C561.908,467.836 561.61,468.713 561.012,469.305C560.415,469.897 559.53,470.193 558.356,470.193C557.215,470.193 556.266,469.969 555.508,469.521C555.124,469.308 554.932,469.063 554.932,468.785C554.932,468.636 554.972,468.513 555.052,468.417C555.132,468.321 555.236,468.273 555.364,468.273C555.471,468.273 555.663,468.348 555.94,468.497C556.314,468.689 556.682,468.844 557.044,468.961C557.407,469.079 557.839,469.137 558.34,469.137C559.098,469.137 559.668,468.937 560.052,468.537C560.436,468.137 560.628,467.553 560.628,466.785L560.628,465.409C560.404,465.911 560.06,466.295 559.596,466.561C559.132,466.828 558.586,466.961 557.956,466.961C557.274,466.961 556.668,466.801 556.14,466.481C555.612,466.161 555.202,465.708 554.908,465.121C554.615,464.535 554.468,463.857 554.468,463.089C554.468,462.321 554.615,461.644 554.908,461.057C555.202,460.471 555.612,460.017 556.14,459.697C556.668,459.377 557.274,459.217 557.956,459.217C558.575,459.217 559.114,459.351 559.572,459.617C560.031,459.884 560.378,460.263 560.612,460.753L560.612,459.889C560.612,459.697 560.668,459.543 560.78,459.425C560.892,459.308 561.05,459.249 561.252,459.249ZM558.212,465.889C558.959,465.889 559.546,465.641 559.972,465.145C560.399,464.649 560.612,463.964 560.612,463.089C560.612,462.225 560.402,461.545 559.98,461.049C559.559,460.553 558.97,460.305 558.212,460.305C557.455,460.305 556.86,460.553 556.428,461.049C555.996,461.545 555.78,462.225 555.78,463.089C555.78,463.964 555.996,464.649 556.428,465.145C556.86,465.641 557.455,465.889 558.212,465.889Z" style="fill:rgb(102,101,106);fill-rule:nonzero;"/>
                    <path d="M570.34,465.393C570.458,465.393 570.559,465.441 570.644,465.537C570.73,465.633 570.772,465.756 570.772,465.905C570.772,466.172 570.586,466.417 570.212,466.641C569.828,466.865 569.423,467.033 568.996,467.145C568.57,467.257 568.154,467.313 567.748,467.313C566.543,467.313 565.591,466.956 564.892,466.241C564.194,465.527 563.844,464.54 563.844,463.281C563.844,462.481 563.999,461.775 564.308,461.161C564.618,460.548 565.052,460.071 565.612,459.729C566.172,459.388 566.81,459.217 567.524,459.217C568.538,459.217 569.343,459.548 569.94,460.209C570.538,460.871 570.836,461.767 570.836,462.897C570.836,463.111 570.794,463.265 570.708,463.361C570.623,463.457 570.484,463.505 570.292,463.505L565.14,463.505C565.236,465.34 566.106,466.257 567.748,466.257C568.164,466.257 568.522,466.201 568.82,466.089C569.119,465.977 569.439,465.825 569.78,465.633C570.058,465.473 570.244,465.393 570.34,465.393ZM567.54,460.225C566.858,460.225 566.311,460.439 565.9,460.865C565.49,461.292 565.247,461.895 565.172,462.673L569.7,462.673C569.679,461.884 569.482,461.279 569.108,460.857C568.735,460.436 568.212,460.225 567.54,460.225Z" style="fill:rgb(102,101,106);fill-rule:nonzero;"/>
                </g>
                <g id="Isolation-Mode" serif:id="Isolation Mode" transform="matrix(2.93794,0,0,2.93794,525.659,366.424)">
                    <g transform="matrix(1,0,0,1,11.2396,0.0003)">
                        <path d="M0,26.758C-0.13,26.758 -0.261,26.688 -0.312,26.567L-2.075,22.851L-6.494,22.851C-6.643,22.851 -6.771,22.756 -6.824,22.608L-8.804,16.321L-10.888,16.321C-11.009,16.321 -11.113,16.261 -11.183,16.165C-11.251,16.07 -11.251,15.948 -11.217,15.844L-9.237,11.026C-9.29,10.609 -9.308,10.218 -9.308,9.828C-9.308,4.41 -4.905,0 0.521,0C5.938,0 10.341,4.41 10.341,9.828C10.341,11.92 9.689,13.908 8.475,15.592C7.996,17.702 8.179,23.788 8.179,23.849C8.179,24.006 8.083,24.144 7.937,24.196L0.104,26.749C0.069,26.758 0.034,26.758 0,26.758" style="fill:rgb(101,101,106);fill-rule:nonzero;"/>
                    </g>
                    <g transform="matrix(1,0,0,1,5.0058,4.5233)">
                        <path d="M0,17.633L4.376,17.633C4.516,17.633 4.637,17.712 4.689,17.832L6.417,21.462L13.709,19.091C13.684,17.859 13.579,12.753 14.048,10.843C14.048,10.8 14.074,10.757 14.101,10.714C15.264,9.142 15.88,7.267 15.88,5.305C15.88,0.269 11.782,-3.829 6.755,-3.829C1.72,-3.829 -2.378,0.269 -2.378,5.305C-2.378,5.695 -2.361,6.086 -2.3,6.503C-2.292,6.564 -2.3,6.624 -2.326,6.677L-4.141,11.104L-2.317,11.104C-2.17,11.104 -2.031,11.199 -1.987,11.347L0,17.633Z" style="fill:rgb(101,101,106);fill-rule:nonzero;"/>
                    </g>
                    <g transform="matrix(1,0,0,1,6.9686,8.1175)">
                        <path d="M0,0.573C-0.165,0.634 -0.26,0.807 -0.226,0.972L-0.035,1.866C0,2.041 0.148,2.154 0.312,2.145L1.024,2.11C1.094,2.292 1.181,2.466 1.285,2.622L0.833,3.169C0.729,3.3 0.729,3.49 0.852,3.62L1.458,4.306C1.58,4.427 1.763,4.454 1.91,4.367L2.5,3.985C2.657,4.107 2.813,4.211 2.978,4.298L2.865,4.992C2.83,5.157 2.935,5.322 3.091,5.375L3.968,5.661C4.133,5.713 4.306,5.643 4.384,5.495L4.705,4.87C4.896,4.888 5.088,4.905 5.278,4.897L5.53,5.557C5.583,5.696 5.713,5.782 5.852,5.782C5.877,5.782 5.903,5.774 5.92,5.774L6.824,5.592C6.989,5.557 7.102,5.4 7.102,5.227L7.067,4.531C7.24,4.454 7.414,4.367 7.579,4.271L8.125,4.714C8.248,4.819 8.439,4.819 8.578,4.706L9.254,4.089C9.375,3.976 9.411,3.786 9.315,3.646L8.934,3.056C9.056,2.899 9.159,2.735 9.254,2.57L9.949,2.682C10.106,2.717 10.279,2.613 10.332,2.448L10.609,1.58C10.669,1.416 10.593,1.241 10.444,1.163L9.811,0.842C9.836,0.651 9.846,0.46 9.846,0.269L10.504,0.017C10.669,-0.034 10.766,-0.209 10.731,-0.373L10.54,-1.277C10.504,-1.441 10.349,-1.563 10.176,-1.554L9.481,-1.51C9.403,-1.693 9.315,-1.858 9.221,-2.023L9.663,-2.57C9.776,-2.7 9.776,-2.891 9.654,-3.022L9.045,-3.707C8.926,-3.829 8.734,-3.855 8.595,-3.768L8.004,-3.386C7.856,-3.499 7.692,-3.603 7.527,-3.698L7.64,-4.393C7.667,-4.558 7.57,-4.723 7.406,-4.775L6.537,-5.062C6.372,-5.114 6.199,-5.044 6.112,-4.897L5.8,-4.272C5.6,-4.288 5.417,-4.306 5.227,-4.297L4.975,-4.957C4.914,-5.114 4.74,-5.209 4.583,-5.175L3.681,-4.984C3.508,-4.949 3.395,-4.802 3.403,-4.627L3.438,-3.933C3.264,-3.855 3.091,-3.768 2.926,-3.672L2.388,-4.115C2.258,-4.228 2.066,-4.219 1.936,-4.106L1.25,-3.499C1.12,-3.377 1.094,-3.195 1.189,-3.048L1.562,-2.457C1.458,-2.309 1.354,-2.153 1.25,-1.98L0.564,-2.093C0.399,-2.118 0.226,-2.023 0.174,-1.858L-0.112,-0.981C-0.165,-0.816 -0.096,-0.642 0.061,-0.564L0.677,-0.243C0.66,-0.052 0.651,0.139 0.651,0.33L0,0.573Z" style="fill:white;fill-rule:nonzero;"/>
                    </g>
                    <g transform="matrix(1,0,0,1,8.1845,9.4551)">
                        <path d="M0,-2.084L-0.573,-2.388L-0.47,-2.692L0.173,-2.588C0.312,-2.562 0.469,-2.64 0.538,-2.771C0.686,-3.074 0.851,-3.326 1.042,-3.551C1.146,-3.664 1.154,-3.829 1.076,-3.959L0.711,-4.515L0.955,-4.724L1.458,-4.315C1.58,-4.211 1.745,-4.203 1.875,-4.29C2.126,-4.463 2.404,-4.602 2.708,-4.715C2.848,-4.767 2.934,-4.906 2.934,-5.054L2.899,-5.704L3.212,-5.773L3.446,-5.158C3.498,-5.019 3.646,-4.923 3.792,-4.932C4.098,-4.959 4.401,-4.94 4.723,-4.888C4.861,-4.862 5.018,-4.932 5.087,-5.07L5.382,-5.653L5.695,-5.549L5.582,-4.906C5.557,-4.758 5.635,-4.602 5.773,-4.533C6.06,-4.394 6.32,-4.229 6.546,-4.029C6.659,-3.933 6.823,-3.917 6.963,-4.003L7.5,-4.359L7.727,-4.116L7.31,-3.612C7.215,-3.491 7.205,-3.326 7.292,-3.195C7.466,-2.944 7.604,-2.666 7.701,-2.379C7.751,-2.232 7.899,-2.137 8.048,-2.145L8.699,-2.18L8.769,-1.858L8.152,-1.632C8.013,-1.581 7.917,-1.433 7.935,-1.286C7.952,-0.991 7.935,-0.678 7.883,-0.357C7.849,-0.2 7.927,-0.053 8.065,0.017L8.646,0.312L8.542,0.616L7.899,0.512C7.751,0.486 7.604,0.563 7.535,0.703C7.405,0.963 7.24,1.224 7.032,1.476C6.928,1.588 6.919,1.762 6.997,1.884L7.354,2.43L7.119,2.647L6.606,2.239C6.493,2.135 6.32,2.135 6.198,2.213C5.937,2.387 5.66,2.525 5.365,2.638C5.227,2.691 5.14,2.83 5.14,2.977L5.174,3.629L4.861,3.689L4.626,3.081C4.575,2.942 4.445,2.856 4.306,2.856L4.279,2.856C3.976,2.882 3.664,2.864 3.351,2.804C3.212,2.778 3.056,2.856 2.986,2.986L2.691,3.576L2.378,3.472L2.483,2.83C2.518,2.673 2.431,2.525 2.292,2.456C2.031,2.335 1.779,2.17 1.511,1.953C1.397,1.857 1.232,1.849 1.111,1.927L0.563,2.283L0.347,2.04L0.764,1.536C0.858,1.414 0.867,1.249 0.781,1.119C0.616,0.876 0.469,0.598 0.364,0.295C0.312,0.155 0.173,0.06 0.017,0.069L-0.634,0.104L-0.695,-0.217L-0.087,-0.443C0.052,-0.496 0.147,-0.634 0.139,-0.791C0.121,-1.104 0.139,-1.424 0.191,-1.72C0.208,-1.867 0.139,-2.015 0,-2.084" style="fill:rgb(101,101,106);fill-rule:nonzero;"/>
                    </g>
                    <g transform="matrix(1,0,0,1,12.2211,6.0159)">
                        <path d="M0,4.802C1.328,4.802 2.404,3.725 2.404,2.397C2.404,1.077 1.328,0 0,0C-1.327,0 -2.405,1.077 -2.405,2.397C-2.405,3.725 -1.327,4.802 0,4.802" style="fill:white;fill-rule:nonzero;"/>
                    </g>
                    <g transform="matrix(1,0,0,1,12.2211,10.1235)">
                        <ellipse cx="0" cy="-1.706" rx="1.71" ry="1.706" style="fill:rgb(101,101,106);"/>
                    </g>
                </g>
            </g>
        </g>
    </g>
</svg>
