<?xml version="1.0" encoding="UTF-8" standalone="no"?>
<!DOCTYPE svg PUBLIC "-//W3C//DTD SVG 1.1//EN" "http://www.w3.org/Graphics/SVG/1.1/DTD/svg11.dtd">
<svg width="100%" height="100%" viewBox="0 0 144 18" version="1.1" xmlns="http://www.w3.org/2000/svg" xmlns:xlink="http://www.w3.org/1999/xlink" xml:space="preserve" xmlns:serif="http://www.serif.com/" style="fill-rule:evenodd;clip-rule:evenodd;stroke-linejoin:round;stroke-miterlimit:1.41421;">
    <g transform="matrix(1,0,0,1,-966,-747)">
        <g transform="matrix(1,0,0,1,256.131,78.525)">
            <path d="M733.302,669.247C733.366,669.039 733.478,668.883 733.638,668.779C733.798,668.675 733.974,668.623 734.166,668.623C734.422,668.623 734.642,668.699 734.826,668.851C735.01,669.003 735.102,669.207 735.102,669.463C735.102,669.575 735.078,669.703 735.03,669.847L729.606,685.135C729.526,685.359 729.39,685.531 729.198,685.651C729.006,685.771 728.79,685.831 728.55,685.831C728.326,685.831 728.118,685.771 727.926,685.651C727.734,685.531 727.598,685.359 727.518,685.135L722.814,671.839L718.062,685.135C717.982,685.359 717.846,685.531 717.654,685.651C717.462,685.771 717.254,685.831 717.03,685.831C716.806,685.831 716.598,685.771 716.406,685.651C716.214,685.531 716.078,685.359 715.998,685.135L710.55,669.847C710.502,669.719 710.478,669.599 710.478,669.487C710.478,669.231 710.578,669.023 710.778,668.863C710.978,668.703 711.206,668.623 711.462,668.623C711.654,668.623 711.834,668.675 712.002,668.779C712.17,668.883 712.286,669.039 712.35,669.247L717.078,682.879L721.878,669.391C721.958,669.151 722.086,668.971 722.262,668.851C722.438,668.731 722.63,668.671 722.838,668.671C723.046,668.671 723.238,668.735 723.414,668.863C723.59,668.991 723.718,669.175 723.798,669.415L728.526,682.927L733.302,669.247Z" style="fill:rgb(104,104,109);fill-rule:nonzero;"/>
            <path d="M745.518,682.975C745.694,682.975 745.846,683.047 745.974,683.191C746.102,683.335 746.166,683.519 746.166,683.743C746.166,684.143 745.886,684.511 745.326,684.847C744.75,685.183 744.142,685.435 743.502,685.603C742.862,685.771 742.238,685.855 741.63,685.855C739.822,685.855 738.394,685.319 737.346,684.247C736.298,683.175 735.774,681.695 735.774,679.807C735.774,678.607 736.006,677.547 736.47,676.627C736.934,675.707 737.586,674.991 738.426,674.479C739.266,673.967 740.222,673.711 741.294,673.711C742.814,673.711 744.022,674.207 744.918,675.199C745.814,676.191 746.262,677.535 746.262,679.231C746.262,679.551 746.198,679.783 746.07,679.927C745.942,680.071 745.734,680.143 745.446,680.143L737.718,680.143C737.862,682.895 739.166,684.271 741.63,684.271C742.254,684.271 742.79,684.187 743.238,684.019C743.686,683.851 744.166,683.623 744.678,683.335C745.094,683.095 745.374,682.975 745.518,682.975ZM741.318,675.223C740.294,675.223 739.474,675.543 738.858,676.183C738.242,676.823 737.878,677.727 737.766,678.895L744.558,678.895C744.526,677.711 744.23,676.803 743.67,676.171C743.11,675.539 742.326,675.223 741.318,675.223Z" style="fill:rgb(104,104,109);fill-rule:nonzero;"/>
            <path d="M754.998,673.711C756.022,673.711 756.926,673.959 757.71,674.455C758.494,674.951 759.102,675.655 759.534,676.567C759.966,677.479 760.182,678.535 760.182,679.735C760.182,680.951 759.966,682.019 759.534,682.939C759.102,683.859 758.494,684.575 757.71,685.087C756.926,685.599 756.022,685.855 754.998,685.855C754.086,685.855 753.29,685.655 752.61,685.255C751.93,684.855 751.414,684.287 751.062,683.551L751.062,684.847C751.062,685.135 750.978,685.367 750.81,685.543C750.642,685.719 750.406,685.807 750.102,685.807C749.798,685.807 749.558,685.719 749.382,685.543C749.206,685.367 749.118,685.135 749.118,684.847L749.118,669.583C749.118,669.311 749.206,669.087 749.382,668.911C749.558,668.735 749.798,668.647 750.102,668.647C750.406,668.647 750.642,668.731 750.81,668.899C750.978,669.067 751.062,669.295 751.062,669.583L751.062,676.015C751.414,675.279 751.93,674.711 752.61,674.311C753.29,673.911 754.086,673.711 754.998,673.711ZM754.614,684.247C755.75,684.247 756.63,683.851 757.254,683.059C757.878,682.267 758.19,681.159 758.19,679.735C758.19,678.343 757.878,677.263 757.254,676.495C756.63,675.727 755.75,675.343 754.614,675.343C753.478,675.343 752.602,675.727 751.986,676.495C751.37,677.263 751.062,678.359 751.062,679.783C751.062,681.207 751.37,682.307 751.986,683.083C752.602,683.859 753.478,684.247 754.614,684.247Z" style="fill:rgb(104,104,109);fill-rule:nonzero;"/>
            <path d="M767.022,685.855C766.286,685.855 765.586,685.767 764.922,685.591C764.258,685.415 763.67,685.167 763.158,684.847C762.87,684.655 762.666,684.475 762.546,684.307C762.426,684.139 762.366,683.935 762.366,683.695C762.366,683.487 762.426,683.315 762.546,683.179C762.666,683.043 762.822,682.975 763.014,682.975C763.206,682.975 763.486,683.095 763.854,683.335C764.334,683.623 764.81,683.851 765.282,684.019C765.754,684.187 766.342,684.271 767.046,684.271C767.91,684.271 768.582,684.119 769.062,683.815C769.542,683.511 769.782,683.071 769.782,682.495C769.782,682.143 769.694,681.859 769.518,681.643C769.342,681.427 769.038,681.235 768.606,681.067C768.174,680.899 767.542,680.727 766.71,680.551C765.302,680.247 764.294,679.839 763.686,679.327C763.078,678.815 762.774,678.119 762.774,677.239C762.774,676.551 762.966,675.943 763.35,675.415C763.734,674.887 764.266,674.471 764.946,674.167C765.626,673.863 766.398,673.711 767.262,673.711C767.886,673.711 768.49,673.795 769.074,673.963C769.658,674.131 770.174,674.367 770.622,674.671C771.166,675.055 771.438,675.455 771.438,675.871C771.438,676.079 771.374,676.255 771.246,676.399C771.118,676.543 770.966,676.615 770.79,676.615C770.598,676.615 770.31,676.479 769.926,676.207C769.478,675.919 769.054,675.695 768.654,675.535C768.254,675.375 767.758,675.295 767.166,675.295C766.414,675.295 765.81,675.463 765.354,675.799C764.898,676.135 764.67,676.583 764.67,677.143C764.67,677.495 764.754,677.779 764.922,677.995C765.09,678.211 765.37,678.403 765.762,678.571C766.154,678.739 766.718,678.903 767.454,679.063C768.542,679.303 769.386,679.567 769.986,679.855C770.586,680.143 771.014,680.495 771.27,680.911C771.526,681.327 771.654,681.855 771.654,682.495C771.654,683.503 771.23,684.315 770.382,684.931C769.534,685.547 768.414,685.855 767.022,685.855Z" style="fill:rgb(104,104,109);fill-rule:nonzero;"/>
            <path d="M775.59,685.807C775.302,685.807 775.066,685.723 774.882,685.555C774.698,685.387 774.606,685.151 774.606,684.847L774.606,674.719C774.606,674.415 774.698,674.179 774.882,674.011C775.066,673.843 775.302,673.759 775.59,673.759C775.878,673.759 776.11,673.843 776.286,674.011C776.462,674.179 776.55,674.415 776.55,674.719L776.55,684.847C776.55,685.167 776.462,685.407 776.286,685.567C776.11,685.727 775.878,685.807 775.59,685.807ZM775.59,671.239C775.206,671.239 774.894,671.127 774.654,670.903C774.414,670.679 774.294,670.383 774.294,670.015C774.294,669.663 774.414,669.375 774.654,669.151C774.894,668.927 775.206,668.815 775.59,668.815C775.974,668.815 776.286,668.927 776.526,669.151C776.766,669.375 776.886,669.663 776.886,670.015C776.886,670.383 776.766,670.679 776.526,670.903C776.286,671.127 775.974,671.239 775.59,671.239Z" style="fill:rgb(104,104,109);fill-rule:nonzero;"/>
            <path d="M785.574,684.271C786.134,684.319 786.414,684.575 786.414,685.039C786.414,685.311 786.314,685.515 786.114,685.651C785.914,685.787 785.614,685.839 785.214,685.807L784.566,685.759C783.286,685.663 782.342,685.279 781.734,684.607C781.126,683.935 780.822,682.919 780.822,681.559L780.822,675.535L779.214,675.535C778.942,675.535 778.73,675.467 778.578,675.331C778.426,675.195 778.35,675.015 778.35,674.791C778.35,674.551 778.426,674.359 778.578,674.215C778.73,674.071 778.942,673.999 779.214,673.999L780.822,673.999L780.822,671.287C780.822,670.983 780.91,670.747 781.086,670.579C781.262,670.411 781.502,670.327 781.806,670.327C782.094,670.327 782.326,670.411 782.502,670.579C782.678,670.747 782.766,670.983 782.766,671.287L782.766,673.999L785.43,673.999C785.686,673.999 785.89,674.071 786.042,674.215C786.194,674.359 786.27,674.551 786.27,674.791C786.27,675.015 786.194,675.195 786.042,675.331C785.89,675.467 785.686,675.535 785.43,675.535L782.766,675.535L782.766,681.655C782.766,682.535 782.946,683.171 783.306,683.563C783.666,683.955 784.206,684.175 784.926,684.223L785.574,684.271Z" style="fill:rgb(104,104,109);fill-rule:nonzero;"/>
            <path d="M797.382,682.975C797.558,682.975 797.71,683.047 797.838,683.191C797.966,683.335 798.03,683.519 798.03,683.743C798.03,684.143 797.75,684.511 797.19,684.847C796.614,685.183 796.006,685.435 795.366,685.603C794.726,685.771 794.102,685.855 793.494,685.855C791.686,685.855 790.258,685.319 789.21,684.247C788.162,683.175 787.638,681.695 787.638,679.807C787.638,678.607 787.87,677.547 788.334,676.627C788.798,675.707 789.45,674.991 790.29,674.479C791.13,673.967 792.086,673.711 793.158,673.711C794.678,673.711 795.886,674.207 796.782,675.199C797.678,676.191 798.126,677.535 798.126,679.231C798.126,679.551 798.062,679.783 797.934,679.927C797.806,680.071 797.598,680.143 797.31,680.143L789.582,680.143C789.726,682.895 791.03,684.271 793.494,684.271C794.118,684.271 794.654,684.187 795.102,684.019C795.55,683.851 796.03,683.623 796.542,683.335C796.958,683.095 797.238,682.975 797.382,682.975ZM793.182,675.223C792.158,675.223 791.338,675.543 790.722,676.183C790.106,676.823 789.742,677.727 789.63,678.895L796.422,678.895C796.39,677.711 796.094,676.803 795.534,676.171C794.974,675.539 794.19,675.223 793.182,675.223Z" style="fill:rgb(104,104,109);fill-rule:nonzero;"/>
            <path d="M812.862,685.879C811.662,685.879 810.514,685.699 809.418,685.339C808.322,684.979 807.446,684.495 806.79,683.887C806.55,683.663 806.43,683.383 806.43,683.047C806.43,682.823 806.494,682.627 806.622,682.459C806.75,682.291 806.902,682.207 807.078,682.207C807.286,682.207 807.51,682.295 807.75,682.471C809.238,683.623 810.934,684.199 812.838,684.199C814.214,684.199 815.27,683.935 816.006,683.407C816.742,682.879 817.11,682.127 817.11,681.151C817.11,680.591 816.934,680.139 816.582,679.795C816.23,679.451 815.766,679.175 815.19,678.967C814.614,678.759 813.838,678.543 812.862,678.319C811.55,678.015 810.474,677.695 809.634,677.359C808.794,677.023 808.114,676.543 807.594,675.919C807.074,675.295 806.814,674.479 806.814,673.471C806.814,672.511 807.074,671.659 807.594,670.915C808.114,670.171 808.842,669.595 809.778,669.187C810.714,668.779 811.782,668.575 812.982,668.575C814.102,668.575 815.146,668.747 816.114,669.091C817.082,669.435 817.894,669.927 818.55,670.567C818.806,670.823 818.934,671.103 818.934,671.407C818.934,671.631 818.87,671.827 818.742,671.995C818.614,672.163 818.462,672.247 818.286,672.247C818.11,672.247 817.878,672.159 817.59,671.983C816.806,671.343 816.078,670.895 815.406,670.639C814.734,670.383 813.926,670.255 812.982,670.255C811.654,670.255 810.622,670.531 809.886,671.083C809.15,671.635 808.782,672.407 808.782,673.399C808.782,674.247 809.106,674.883 809.754,675.307C810.402,675.731 811.398,676.103 812.742,676.423C814.198,676.775 815.342,677.099 816.174,677.395C817.006,677.691 817.698,678.135 818.25,678.727C818.802,679.319 819.078,680.111 819.078,681.103C819.078,682.047 818.818,682.879 818.298,683.599C817.778,684.319 817.046,684.879 816.102,685.279C815.158,685.679 814.078,685.879 812.862,685.879Z" style="fill:rgb(104,104,109);fill-rule:nonzero;"/>
            <path d="M837.294,668.647C837.598,668.647 837.834,668.739 838.002,668.923C838.17,669.107 838.254,669.351 838.254,669.655L838.254,684.847C838.254,685.135 838.174,685.367 838.014,685.543C837.854,685.719 837.63,685.807 837.342,685.807C837.054,685.807 836.838,685.719 836.694,685.543C836.55,685.367 836.478,685.135 836.478,684.847L836.478,672.583L831.27,682.567C831.046,683.031 830.718,683.263 830.286,683.263C829.87,683.263 829.542,683.031 829.302,682.567L824.07,672.703L824.07,684.847C824.07,685.135 823.994,685.367 823.842,685.543C823.69,685.719 823.47,685.807 823.182,685.807C822.894,685.807 822.67,685.719 822.51,685.543C822.35,685.367 822.27,685.135 822.27,684.847L822.27,669.655C822.27,669.351 822.358,669.107 822.534,668.923C822.71,668.739 822.95,668.647 823.254,668.647C823.654,668.647 823.974,668.879 824.214,669.343L830.31,681.031L836.334,669.343C836.462,669.087 836.602,668.907 836.754,668.803C836.906,668.699 837.086,668.647 837.294,668.647Z" style="fill:rgb(104,104,109);fill-rule:nonzero;"/>
            <path d="M843.462,685.687C843.158,685.687 842.914,685.599 842.73,685.423C842.546,685.247 842.454,685.015 842.454,684.727L842.454,669.727C842.454,669.439 842.546,669.207 842.73,669.031C842.914,668.855 843.158,668.767 843.462,668.767L852.438,668.767C852.726,668.767 852.95,668.839 853.11,668.983C853.27,669.127 853.35,669.327 853.35,669.583C853.35,669.839 853.27,670.039 853.11,670.183C852.95,670.327 852.726,670.399 852.438,670.399L844.398,670.399L844.398,676.279L851.958,676.279C852.246,676.279 852.47,676.351 852.63,676.495C852.79,676.639 852.87,676.839 852.87,677.095C852.87,677.351 852.79,677.551 852.63,677.695C852.47,677.839 852.246,677.911 851.958,677.911L844.398,677.911L844.398,684.055L852.438,684.055C852.726,684.055 852.95,684.123 853.11,684.259C853.27,684.395 853.35,684.599 853.35,684.871C853.35,685.127 853.27,685.327 853.11,685.471C852.95,685.615 852.726,685.687 852.438,685.687L843.462,685.687Z" style="fill:rgb(104,104,109);fill-rule:nonzero;"/>
        </g>
    </g>
</svg>
