<?xml version="1.0" encoding="UTF-8" standalone="no"?>
<!DOCTYPE svg PUBLIC "-//W3C//DTD SVG 1.1//EN" "http://www.w3.org/Graphics/SVG/1.1/DTD/svg11.dtd">
<svg width="100%" height="100%" viewBox="0 0 206 140" version="1.1" xmlns="http://www.w3.org/2000/svg" xmlns:xlink="http://www.w3.org/1999/xlink" xml:space="preserve" xmlns:serif="http://www.serif.com/" style="fill-rule:evenodd;clip-rule:evenodd;stroke-linecap:round;stroke-linejoin:round;stroke-miterlimit:1.5;">
    <g transform="matrix(1,0,0,1,-106,-417)">
        <g>
            <g transform="matrix(0.941512,0,0,0.941512,133.863,-97.916)">
                <g transform="matrix(1.01387,0,0,1.01584,-2.5792,-9.96952)">
                    <path d="M185.95,561.805C185.95,558.626 183.365,556.046 180.18,556.046L83.747,556.046C80.563,556.046 77.977,558.626 77.977,561.805L77.977,623.437C77.977,626.615 80.563,629.196 83.747,629.196L180.18,629.196C183.365,629.196 185.95,626.615 185.95,623.437L185.95,561.805Z" style="fill:none;stroke:rgb(99,101,105);stroke-width:4.71px;"/>
                </g>
                <path d="M95.99,596.2L114.798,596.2L123.129,576.708L135.386,607.197L145.178,586.554L151.828,594.293L165.667,594.293" style="fill:none;stroke:rgb(99,101,105);stroke-width:4.78px;"/>
                <path d="M126.061,620.057L136.09,620.057" style="fill:none;stroke:rgb(99,101,105);stroke-width:4.78px;"/>
                <path d="M121.188,629.196L121.188,639.911L112.414,639.911L149.421,639.911L141.559,639.911L141.559,629.196" style="fill:none;stroke:rgb(99,101,105);stroke-width:4.78px;"/>
            </g>
            <g transform="matrix(0.97257,0,0,0.97257,98.5808,397.672)">
                <path d="M98.179,114.687C87.689,121.266 63.51,122.312 55.102,122.194L55.014,122.19L54.93,122.19C46.522,122.309 22.369,121.131 11.755,114.498C13.26,92.355 31.85,75.656 54.997,75.656C78.165,75.656 96.755,92.368 98.243,114.528C98.25,114.599 98.212,114.667 98.179,114.687ZM54.997,23.62C69.294,23.62 80.92,35.294 80.92,49.643C80.92,63.992 69.294,75.667 54.997,75.667C40.704,75.667 29.078,63.992 29.078,49.643C29.078,35.294 40.704,23.62 54.997,23.62Z" style="fill:none;stroke:rgb(99,101,105);stroke-width:6.57px;stroke-linecap:butt;stroke-miterlimit:1.41421;"/>
            </g>
            <g transform="matrix(1.42996,0,0,1.42996,-479.443,165.431)">
                <path d="M438.876,270.907C437.83,270.907 436.921,270.673 436.148,270.203C435.374,269.734 434.78,269.067 434.364,268.203C433.948,267.339 433.74,266.321 433.74,265.147C433.74,263.963 433.945,262.937 434.356,262.067C434.766,261.198 435.358,260.531 436.132,260.067C436.905,259.603 437.82,259.371 438.876,259.371C439.932,259.371 440.846,259.603 441.62,260.067C442.393,260.531 442.985,261.198 443.396,262.067C443.806,262.937 444.012,263.958 444.012,265.131C444.012,266.305 443.804,267.326 443.388,268.195C442.972,269.065 442.377,269.734 441.604,270.203C440.83,270.673 439.921,270.907 438.876,270.907ZM438.876,269.787C440.07,269.787 441.001,269.385 441.668,268.579C442.334,267.774 442.668,266.625 442.668,265.131C442.668,263.638 442.337,262.491 441.676,261.691C441.014,260.891 440.081,260.491 438.876,260.491C437.681,260.491 436.75,260.894 436.084,261.699C435.417,262.505 435.084,263.649 435.084,265.131C435.084,266.614 435.417,267.761 436.084,268.571C436.75,269.382 437.681,269.787 438.876,269.787Z" style="fill:rgb(106,109,114);fill-rule:nonzero;"/>
                <path d="M450.108,262.795C451.974,262.795 452.908,263.825 452.908,265.883L452.908,270.219C452.908,270.422 452.852,270.579 452.74,270.691C452.628,270.803 452.47,270.859 452.268,270.859C452.065,270.859 451.905,270.803 451.788,270.691C451.67,270.579 451.612,270.422 451.612,270.219L451.612,265.963C451.612,265.238 451.47,264.71 451.188,264.379C450.905,264.049 450.454,263.883 449.836,263.883C449.121,263.883 448.55,264.102 448.124,264.539C447.697,264.977 447.484,265.569 447.484,266.315L447.484,270.219C447.484,270.422 447.428,270.579 447.316,270.691C447.204,270.803 447.046,270.859 446.844,270.859C446.641,270.859 446.481,270.803 446.364,270.691C446.246,270.579 446.188,270.422 446.188,270.219L446.188,263.467C446.188,263.275 446.246,263.121 446.364,263.003C446.481,262.886 446.641,262.827 446.844,262.827C447.036,262.827 447.188,262.886 447.3,263.003C447.412,263.121 447.468,263.27 447.468,263.451L447.468,264.267C447.724,263.787 448.081,263.422 448.54,263.171C448.998,262.921 449.521,262.795 450.108,262.795Z" style="fill:rgb(106,109,114);fill-rule:nonzero;"/>
                <path d="M455.708,267.051C455.516,267.051 455.369,267.003 455.268,266.907C455.166,266.811 455.116,266.683 455.116,266.523C455.116,266.363 455.166,266.233 455.268,266.131C455.369,266.03 455.516,265.979 455.708,265.979L459.228,265.979C459.43,265.979 459.582,266.03 459.684,266.131C459.785,266.233 459.836,266.363 459.836,266.523C459.836,266.683 459.785,266.811 459.684,266.907C459.582,267.003 459.43,267.051 459.228,267.051L455.708,267.051Z" style="fill:rgb(106,109,114);fill-rule:nonzero;"/>
                <path d="M465.996,262.795C466.678,262.795 467.281,262.966 467.804,263.307C468.326,263.649 468.732,264.126 469.02,264.739C469.308,265.353 469.452,266.065 469.452,266.875C469.452,267.686 469.308,268.393 469.02,268.995C468.732,269.598 468.329,270.065 467.812,270.395C467.294,270.726 466.689,270.891 465.996,270.891C465.388,270.891 464.857,270.758 464.404,270.491C463.95,270.225 463.606,269.846 463.372,269.355L463.372,273.115C463.372,273.307 463.316,273.459 463.204,273.571C463.092,273.683 462.934,273.739 462.732,273.739C462.529,273.739 462.369,273.681 462.252,273.563C462.134,273.446 462.076,273.297 462.076,273.115L462.076,263.467C462.076,263.275 462.134,263.121 462.252,263.003C462.369,262.886 462.529,262.827 462.732,262.827C462.934,262.827 463.092,262.886 463.204,263.003C463.316,263.121 463.372,263.275 463.372,263.467L463.372,264.331C463.606,263.841 463.95,263.462 464.404,263.195C464.857,262.929 465.388,262.795 465.996,262.795ZM465.74,269.819C466.497,269.819 467.084,269.563 467.5,269.051C467.916,268.539 468.124,267.814 468.124,266.875C468.124,265.937 467.916,265.203 467.5,264.675C467.084,264.147 466.497,263.883 465.74,263.883C464.982,263.883 464.398,264.139 463.988,264.651C463.577,265.163 463.372,265.894 463.372,266.843C463.372,267.793 463.577,268.526 463.988,269.043C464.398,269.561 464.982,269.819 465.74,269.819Z" style="fill:rgb(106,109,114);fill-rule:nonzero;"/>
                <path d="M475.244,262.827C475.692,262.795 475.916,262.977 475.916,263.371C475.916,263.542 475.868,263.678 475.772,263.779C475.676,263.881 475.51,263.942 475.276,263.963L474.796,264.011C474.081,264.075 473.55,264.329 473.204,264.771C472.857,265.214 472.684,265.734 472.684,266.331L472.684,270.219C472.684,270.433 472.625,270.593 472.508,270.699C472.39,270.806 472.236,270.859 472.044,270.859C471.852,270.859 471.694,270.803 471.572,270.691C471.449,270.579 471.388,270.422 471.388,270.219L471.388,263.467C471.388,263.265 471.452,263.107 471.58,262.995C471.708,262.883 471.862,262.827 472.044,262.827C472.214,262.827 472.358,262.883 472.476,262.995C472.593,263.107 472.652,263.259 472.652,263.451L472.652,264.347C472.876,263.878 473.193,263.521 473.604,263.275C474.014,263.03 474.486,262.886 475.02,262.843L475.244,262.827Z" style="fill:rgb(106,109,114);fill-rule:nonzero;"/>
                <path d="M482.908,268.971C483.025,268.971 483.126,269.019 483.212,269.115C483.297,269.211 483.34,269.334 483.34,269.483C483.34,269.75 483.153,269.995 482.78,270.219C482.396,270.443 481.99,270.611 481.564,270.723C481.137,270.835 480.721,270.891 480.316,270.891C479.11,270.891 478.158,270.534 477.46,269.819C476.761,269.105 476.412,268.118 476.412,266.859C476.412,266.059 476.566,265.353 476.876,264.739C477.185,264.126 477.62,263.649 478.18,263.307C478.74,262.966 479.377,262.795 480.092,262.795C481.105,262.795 481.91,263.126 482.508,263.787C483.105,264.449 483.404,265.345 483.404,266.475C483.404,266.689 483.361,266.843 483.276,266.939C483.19,267.035 483.052,267.083 482.86,267.083L477.708,267.083C477.804,268.918 478.673,269.835 480.316,269.835C480.732,269.835 481.089,269.779 481.388,269.667C481.686,269.555 482.006,269.403 482.348,269.211C482.625,269.051 482.812,268.971 482.908,268.971ZM480.108,263.803C479.425,263.803 478.878,264.017 478.468,264.443C478.057,264.87 477.814,265.473 477.74,266.251L482.268,266.251C482.246,265.462 482.049,264.857 481.676,264.435C481.302,264.014 480.78,263.803 480.108,263.803Z" style="fill:rgb(106,109,114);fill-rule:nonzero;"/>
                <path d="M493.98,262.795C495.708,262.795 496.572,263.825 496.572,265.883L496.572,270.219C496.572,270.422 496.513,270.579 496.396,270.691C496.278,270.803 496.124,270.859 495.932,270.859C495.74,270.859 495.582,270.803 495.46,270.691C495.337,270.579 495.276,270.422 495.276,270.219L495.276,265.915C495.276,265.201 495.148,264.683 494.892,264.363C494.636,264.043 494.236,263.883 493.692,263.883C493.041,263.883 492.529,264.102 492.156,264.539C491.782,264.977 491.596,265.569 491.596,266.315L491.596,270.219C491.596,270.422 491.534,270.579 491.412,270.691C491.289,270.803 491.132,270.859 490.94,270.859C490.748,270.859 490.593,270.803 490.476,270.691C490.358,270.579 490.3,270.422 490.3,270.219L490.3,265.915C490.3,265.201 490.172,264.683 489.916,264.363C489.66,264.043 489.254,263.883 488.7,263.883C488.06,263.883 487.55,264.102 487.172,264.539C486.793,264.977 486.604,265.569 486.604,266.315L486.604,270.219C486.604,270.422 486.545,270.579 486.428,270.691C486.31,270.803 486.156,270.859 485.964,270.859C485.772,270.859 485.614,270.803 485.492,270.691C485.369,270.579 485.308,270.422 485.308,270.219L485.308,263.467C485.308,263.275 485.369,263.121 485.492,263.003C485.614,262.886 485.772,262.827 485.964,262.827C486.145,262.827 486.294,262.883 486.412,262.995C486.529,263.107 486.588,263.259 486.588,263.451L486.588,264.219C486.822,263.761 487.148,263.409 487.564,263.163C487.98,262.918 488.46,262.795 489.004,262.795C490.22,262.795 491.014,263.307 491.388,264.331C491.612,263.862 491.953,263.489 492.412,263.211C492.87,262.934 493.393,262.795 493.98,262.795Z" style="fill:rgb(106,109,114);fill-rule:nonzero;"/>
                <path d="M499.596,270.859C499.404,270.859 499.246,270.803 499.124,270.691C499.001,270.579 498.94,270.422 498.94,270.219L498.94,263.467C498.94,263.265 499.001,263.107 499.124,262.995C499.246,262.883 499.404,262.827 499.596,262.827C499.788,262.827 499.942,262.883 500.06,262.995C500.177,263.107 500.236,263.265 500.236,263.467L500.236,270.219C500.236,270.433 500.177,270.593 500.06,270.699C499.942,270.806 499.788,270.859 499.596,270.859ZM499.596,261.147C499.34,261.147 499.132,261.073 498.972,260.923C498.812,260.774 498.732,260.577 498.732,260.331C498.732,260.097 498.812,259.905 498.972,259.755C499.132,259.606 499.34,259.531 499.596,259.531C499.852,259.531 500.06,259.606 500.22,259.755C500.38,259.905 500.46,260.097 500.46,260.331C500.46,260.577 500.38,260.774 500.22,260.923C500.06,261.073 499.852,261.147 499.596,261.147Z" style="fill:rgb(106,109,114);fill-rule:nonzero;"/>
                <path d="M505.276,270.891C504.785,270.891 504.318,270.833 503.876,270.715C503.433,270.598 503.041,270.433 502.7,270.219C502.508,270.091 502.372,269.971 502.292,269.859C502.212,269.747 502.172,269.611 502.172,269.451C502.172,269.313 502.212,269.198 502.292,269.107C502.372,269.017 502.476,268.971 502.604,268.971C502.732,268.971 502.918,269.051 503.164,269.211C503.484,269.403 503.801,269.555 504.116,269.667C504.43,269.779 504.822,269.835 505.292,269.835C505.868,269.835 506.316,269.734 506.636,269.531C506.956,269.329 507.116,269.035 507.116,268.651C507.116,268.417 507.057,268.227 506.94,268.083C506.822,267.939 506.62,267.811 506.332,267.699C506.044,267.587 505.622,267.473 505.068,267.355C504.129,267.153 503.457,266.881 503.052,266.539C502.646,266.198 502.444,265.734 502.444,265.147C502.444,264.689 502.572,264.283 502.828,263.931C503.084,263.579 503.438,263.302 503.892,263.099C504.345,262.897 504.86,262.795 505.436,262.795C505.852,262.795 506.254,262.851 506.644,262.963C507.033,263.075 507.377,263.233 507.676,263.435C508.038,263.691 508.22,263.958 508.22,264.235C508.22,264.374 508.177,264.491 508.092,264.587C508.006,264.683 507.905,264.731 507.788,264.731C507.66,264.731 507.468,264.641 507.212,264.459C506.913,264.267 506.63,264.118 506.364,264.011C506.097,263.905 505.766,263.851 505.372,263.851C504.87,263.851 504.468,263.963 504.164,264.187C503.86,264.411 503.708,264.71 503.708,265.083C503.708,265.318 503.764,265.507 503.876,265.651C503.988,265.795 504.174,265.923 504.436,266.035C504.697,266.147 505.073,266.257 505.564,266.363C506.289,266.523 506.852,266.699 507.252,266.891C507.652,267.083 507.937,267.318 508.108,267.595C508.278,267.873 508.364,268.225 508.364,268.651C508.364,269.323 508.081,269.865 507.516,270.275C506.95,270.686 506.204,270.891 505.276,270.891Z" style="fill:rgb(106,109,114);fill-rule:nonzero;"/>
                <path d="M516.364,268.971C516.481,268.971 516.582,269.019 516.668,269.115C516.753,269.211 516.796,269.334 516.796,269.483C516.796,269.75 516.609,269.995 516.236,270.219C515.852,270.443 515.446,270.611 515.02,270.723C514.593,270.835 514.177,270.891 513.772,270.891C512.566,270.891 511.614,270.534 510.916,269.819C510.217,269.105 509.868,268.118 509.868,266.859C509.868,266.059 510.022,265.353 510.332,264.739C510.641,264.126 511.076,263.649 511.636,263.307C512.196,262.966 512.833,262.795 513.548,262.795C514.561,262.795 515.366,263.126 515.964,263.787C516.561,264.449 516.86,265.345 516.86,266.475C516.86,266.689 516.817,266.843 516.732,266.939C516.646,267.035 516.508,267.083 516.316,267.083L511.164,267.083C511.26,268.918 512.129,269.835 513.772,269.835C514.188,269.835 514.545,269.779 514.844,269.667C515.142,269.555 515.462,269.403 515.804,269.211C516.081,269.051 516.268,268.971 516.364,268.971ZM513.564,263.803C512.881,263.803 512.334,264.017 511.924,264.443C511.513,264.87 511.27,265.473 511.196,266.251L515.724,266.251C515.702,265.462 515.505,264.857 515.132,264.435C514.758,264.014 514.236,263.803 513.564,263.803Z" style="fill:rgb(106,109,114);fill-rule:nonzero;"/>
                <path d="M521.388,270.891C520.897,270.891 520.43,270.833 519.988,270.715C519.545,270.598 519.153,270.433 518.812,270.219C518.62,270.091 518.484,269.971 518.404,269.859C518.324,269.747 518.284,269.611 518.284,269.451C518.284,269.313 518.324,269.198 518.404,269.107C518.484,269.017 518.588,268.971 518.716,268.971C518.844,268.971 519.03,269.051 519.276,269.211C519.596,269.403 519.913,269.555 520.228,269.667C520.542,269.779 520.934,269.835 521.404,269.835C521.98,269.835 522.428,269.734 522.748,269.531C523.068,269.329 523.228,269.035 523.228,268.651C523.228,268.417 523.169,268.227 523.052,268.083C522.934,267.939 522.732,267.811 522.444,267.699C522.156,267.587 521.734,267.473 521.18,267.355C520.241,267.153 519.569,266.881 519.164,266.539C518.758,266.198 518.556,265.734 518.556,265.147C518.556,264.689 518.684,264.283 518.94,263.931C519.196,263.579 519.55,263.302 520.004,263.099C520.457,262.897 520.972,262.795 521.548,262.795C521.964,262.795 522.366,262.851 522.756,262.963C523.145,263.075 523.489,263.233 523.788,263.435C524.15,263.691 524.332,263.958 524.332,264.235C524.332,264.374 524.289,264.491 524.204,264.587C524.118,264.683 524.017,264.731 523.9,264.731C523.772,264.731 523.58,264.641 523.324,264.459C523.025,264.267 522.742,264.118 522.476,264.011C522.209,263.905 521.878,263.851 521.484,263.851C520.982,263.851 520.58,263.963 520.276,264.187C519.972,264.411 519.82,264.71 519.82,265.083C519.82,265.318 519.876,265.507 519.988,265.651C520.1,265.795 520.286,265.923 520.548,266.035C520.809,266.147 521.185,266.257 521.676,266.363C522.401,266.523 522.964,266.699 523.364,266.891C523.764,267.083 524.049,267.318 524.22,267.595C524.39,267.873 524.476,268.225 524.476,268.651C524.476,269.323 524.193,269.865 523.628,270.275C523.062,270.686 522.316,270.891 521.388,270.891Z" style="fill:rgb(106,109,114);fill-rule:nonzero;"/>
            </g>
        </g>
    </g>
</svg>
