<?xml version="1.0" encoding="UTF-8" standalone="no"?>
<!DOCTYPE svg PUBLIC "-//W3C//DTD SVG 1.1//EN" "http://www.w3.org/Graphics/SVG/1.1/DTD/svg11.dtd">
<svg width="100%" height="100%" viewBox="0 0 29 29" version="1.1" xmlns="http://www.w3.org/2000/svg" xmlns:xlink="http://www.w3.org/1999/xlink" xml:space="preserve" xmlns:serif="http://www.serif.com/" style="fill-rule:evenodd;clip-rule:evenodd;stroke-linejoin:round;stroke-miterlimit:1.41421;">
    <g transform="matrix(1,0,0,1,-365,-704)">
        <g transform="matrix(1,0,0,1,197.746,295.587)">
            <g transform="matrix(1,0,0,1,5.88868,75.7408)">
                <circle cx="175.839" cy="347.473" r="14.038" style="fill:rgb(255,121,26);"/>
            </g>
            <g transform="matrix(1,0,0,1,14.561,104.627)">
                <path d="M169.382,318.539C170.15,318.755 170.735,319.127 171.137,319.655C171.539,320.183 171.74,320.837 171.74,321.617C171.74,322.721 171.368,323.591 170.624,324.227C169.88,324.863 168.866,325.181 167.582,325.181C166.802,325.181 166.055,325.049 165.341,324.785C164.627,324.521 164.024,324.161 163.532,323.705C163.34,323.525 163.244,323.321 163.244,323.093C163.244,322.913 163.292,322.763 163.388,322.643C163.484,322.523 163.598,322.463 163.73,322.463C163.898,322.463 164.066,322.529 164.234,322.661C164.786,323.105 165.326,323.429 165.854,323.633C166.382,323.837 166.952,323.939 167.564,323.939C168.452,323.939 169.127,323.735 169.589,323.327C170.051,322.919 170.282,322.331 170.282,321.563C170.282,320.015 169.31,319.241 167.366,319.241L166.412,319.241C166.22,319.241 166.067,319.178 165.953,319.052C165.839,318.926 165.782,318.779 165.782,318.611C165.782,318.443 165.839,318.299 165.953,318.179C166.067,318.059 166.22,317.999 166.412,317.999L167.078,317.999C168.014,317.999 168.734,317.792 169.238,317.378C169.742,316.964 169.994,316.367 169.994,315.587C169.994,314.903 169.79,314.378 169.382,314.012C168.974,313.646 168.398,313.463 167.654,313.463C167.09,313.463 166.544,313.568 166.016,313.778C165.488,313.988 164.96,314.309 164.432,314.741C164.264,314.873 164.096,314.939 163.928,314.939C163.796,314.939 163.682,314.879 163.586,314.759C163.49,314.639 163.442,314.489 163.442,314.309C163.442,314.081 163.538,313.877 163.73,313.697C164.222,313.241 164.819,312.881 165.521,312.617C166.223,312.353 166.946,312.221 167.69,312.221C168.842,312.221 169.757,312.512 170.435,313.094C171.113,313.676 171.452,314.459 171.452,315.443C171.452,316.175 171.269,316.814 170.903,317.36C170.537,317.906 170.03,318.299 169.382,318.539Z" style="fill:white;fill-rule:nonzero;"/>
            </g>
        </g>
    </g>
</svg>
