<?xml version="1.0" encoding="UTF-8" standalone="no"?>
<!DOCTYPE svg PUBLIC "-//W3C//DTD SVG 1.1//EN" "http://www.w3.org/Graphics/SVG/1.1/DTD/svg11.dtd">
<svg width="100%" height="100%" viewBox="0 0 694 420" version="1.1" xmlns="http://www.w3.org/2000/svg" xmlns:xlink="http://www.w3.org/1999/xlink" xml:space="preserve" xmlns:serif="http://www.serif.com/" style="fill-rule:evenodd;clip-rule:evenodd;stroke-linejoin:round;stroke-miterlimit:1.41421;">
    <g transform="matrix(1,0,0,1,-293,-83)">
        <g>
            <g transform="matrix(2.06186,0,0,2.06186,308.047,-120.77)">
                <g transform="matrix(2.1098,0,0,2.1098,294.918,265.078)">
                    <path d="M0,0.534C-0.066,0.534 -0.132,0.508 -0.182,0.459C-0.229,0.41 -0.257,0.346 -0.257,0.277C-0.257,0.26 -0.255,0.244 -0.252,0.227C-0.248,0.21 -0.243,0.195 -0.236,0.18C-0.229,0.164 -0.223,0.149 -0.212,0.135C-0.204,0.121 -0.193,0.108 -0.182,0.096C-0.086,0.002 0.087,0 0.184,0.096C0.193,0.108 0.205,0.121 0.214,0.135C0.225,0.149 0.231,0.164 0.238,0.18C0.245,0.195 0.25,0.21 0.253,0.227C0.255,0.244 0.257,0.26 0.257,0.277C0.257,0.346 0.231,0.41 0.184,0.459C0.134,0.508 0.068,0.534 0,0.534" style="fill:rgb(101,101,106);fill-rule:nonzero;stroke:rgb(101,101,106);stroke-width:0.12px;"/>
                </g>
                <g transform="matrix(2.1098,0,0,2.1098,298.76,265.663)">
                    <path d="M0,0C0,-0.142 0.114,-0.257 0.257,-0.257C0.397,-0.257 0.514,-0.142 0.514,0C0.514,0.142 0.397,0.257 0.257,0.257C0.114,0.257 0,0.142 0,0" style="fill:rgb(101,101,106);fill-rule:nonzero;stroke:rgb(101,101,106);stroke-width:0.12px;"/>
                </g>
                <g transform="matrix(2.1098,0,0,2.1098,303.683,265.078)">
                    <path d="M0,0.534C-0.068,0.534 -0.134,0.508 -0.182,0.459C-0.229,0.41 -0.257,0.346 -0.257,0.277C-0.257,0.26 -0.255,0.244 -0.252,0.227C-0.248,0.21 -0.243,0.195 -0.238,0.18C-0.231,0.164 -0.223,0.149 -0.214,0.135C-0.204,0.121 -0.193,0.108 -0.182,0.096C-0.087,0.002 0.086,0 0.182,0.096C0.193,0.108 0.204,0.121 0.214,0.135C0.223,0.149 0.231,0.164 0.236,0.18C0.243,0.195 0.248,0.21 0.252,0.227C0.255,0.244 0.257,0.26 0.257,0.277C0.257,0.346 0.229,0.41 0.182,0.459C0.157,0.483 0.128,0.501 0.098,0.515C0.066,0.527 0.034,0.534 0,0.534" style="fill:rgb(101,101,106);fill-rule:nonzero;stroke:rgb(101,101,106);stroke-width:0.12px;"/>
                </g>
                <g transform="matrix(2.1098,0,0,2.1098,291.906,231.509)">
                    <path d="M0.528,17.163L17.093,17.163L17.093,15.224L0.528,15.224L0.528,17.163ZM17.35,17.677L0.271,17.677C0.129,17.677 0.014,17.561 0.014,17.42L0.014,14.967C0.014,14.824 0.129,14.71 0.271,14.71L17.35,14.71C17.492,14.71 17.607,14.824 17.607,14.967L17.607,17.42C17.607,17.561 17.492,17.677 17.35,17.677" style="fill:rgb(101,101,106);fill-rule:nonzero;stroke:rgb(101,101,106);stroke-width:0.12px;"/>
                </g>
                <g transform="matrix(2.1098,0,0,2.1098,302.562,273.268)">
                    <path d="M0,7.733L7.493,7.733L3.747,1.434L0,7.733ZM7.944,8.246L-0.451,8.246C-0.544,8.246 -0.629,8.197 -0.675,8.116C-0.72,8.036 -0.72,7.938 -0.672,7.858L3.526,0.801C3.572,0.723 3.656,0.675 3.747,0.675C3.837,0.675 3.921,0.723 3.968,0.801L8.165,7.858C8.213,7.938 8.214,8.036 8.168,8.116C8.122,8.197 8.037,8.246 7.944,8.246M-2.121,8.921L9.614,8.921L3.747,-0.943L-2.121,8.921ZM10.065,9.435L-2.572,9.435C-2.665,9.435 -2.75,9.385 -2.796,9.305C-2.841,9.225 -2.841,9.126 -2.793,9.047L3.526,-1.577C3.572,-1.655 3.656,-1.702 3.747,-1.702C3.837,-1.702 3.921,-1.655 3.968,-1.577L10.286,9.047C10.334,9.126 10.335,9.225 10.289,9.305C10.243,9.385 10.158,9.435 10.065,9.435" style="fill:rgb(255,66,41);fill-rule:nonzero;"/>
                </g>
                <g transform="matrix(2.1098,0,0,2.1098,292.991,268.744)">
                    <path d="M0,14.225L14.569,14.225L14.569,12.544C14.569,12.403 14.685,12.288 14.826,12.288L16.565,12.288L16.565,0.001L0,0.001L0,14.225ZM14.826,14.738L-0.257,14.738C-0.398,14.738 -0.514,14.623 -0.514,14.482L-0.514,-0.256C-0.514,-0.398 -0.398,-0.513 -0.257,-0.513L16.822,-0.513C16.964,-0.513 17.079,-0.398 17.079,-0.256L17.079,12.544C17.079,12.686 16.964,12.801 16.822,12.801L15.083,12.801L15.083,14.482C15.083,14.623 14.968,14.738 14.826,14.738" style="fill:rgb(101,101,106);fill-rule:nonzero;stroke:rgb(101,101,106);stroke-width:0.12px;"/>
                </g>
                <g transform="matrix(2.1098,0,0,2.1098,324.813,298.754)">
                    <path d="M0,-1.423L0,-0.35L1.106,-1.423L0,-1.423ZM-0.257,0.514C-0.291,0.514 -0.324,0.508 -0.356,0.494C-0.452,0.453 -0.514,0.361 -0.514,0.258L-0.514,-1.68C-0.514,-1.821 -0.398,-1.937 -0.257,-1.937L1.739,-1.937C1.844,-1.937 1.937,-1.873 1.978,-1.776C2.017,-1.679 1.993,-1.569 1.918,-1.496L-0.078,0.442C-0.127,0.489 -0.191,0.514 -0.257,0.514" style="fill:rgb(101,101,106);fill-rule:nonzero;stroke:rgb(101,101,106);stroke-width:0.12px;"/>
                </g>
                <g transform="matrix(2.1098,0,0,2.1098,310.601,279.823)">
                    <path d="M0,3.302C-0.143,3.302 -0.257,3.187 -0.257,3.045L-0.257,0.256C-0.257,0.114 -0.143,0 0,0C0.142,0 0.256,0.114 0.256,0.256L0.256,3.045C0.256,3.187 0.142,3.302 0,3.302" style="fill:rgb(255,66,41);fill-rule:nonzero;"/>
                </g>
                <g transform="matrix(2.1098,0,0,2.1098,310.059,287.905)">
                    <path d="M0,0C0,-0.142 0.115,-0.257 0.257,-0.257C0.397,-0.257 0.514,-0.142 0.514,0C0.514,0.14 0.397,0.257 0.257,0.257C0.115,0.257 0,0.14 0,0" style="fill:rgb(255,66,41);fill-rule:nonzero;"/>
                </g>
            </g>
            <g transform="matrix(0.740463,0,0,0.740463,86.2771,118.23)">
                <g transform="matrix(0.155841,0,0,0.155841,255.738,377.365)">
                    <path d="M748.501,652.14L803.954,701.841C819.179,715.462 840.75,691.717 825.208,678.03L765.28,624.174C762.403,621.617 758.568,620.179 754.573,620.179L729.804,620.179C732.344,591.865 732.137,591.931 731.241,572.236L760.007,572.236C764.642,572.236 769.116,570.159 772.152,566.483L820.414,508.633C826.167,501.921 825.208,491.854 818.496,486.101C811.625,480.507 801.557,481.466 795.964,488.178L752.496,540.275L729.323,540.275C723.891,484.502 707.75,431.926 682.181,387.34C675.469,375.833 664.602,367.683 652.456,364.646C666.784,318.331 662.496,262.255 620.42,231.706C599.325,216.389 537.442,207.709 511.985,204.839C546.409,138.794 604.186,81.942 678.984,106.398C687.294,109.115 687.294,109.274 678.984,106.398C616.819,85.463 557.69,120.461 511.985,204.839C503.995,204.679 496.165,204.679 488.175,204.839C442.47,120.461 383.341,85.463 321.176,106.398C301.565,113.057 301.636,113.035 321.176,106.398C409.067,78.133 461.783,158.012 488.175,204.839C462.807,207.699 400.909,216.111 379.964,231.487C337.204,262.878 332.604,321.623 348.821,368.482C340.831,372.637 333.96,379.189 329.166,387.819C305.515,432.246 290.492,484.662 285.379,540.275L285.219,540.275L247.504,540.275L204.036,488.178C198.443,481.466 188.375,480.507 181.504,486.101C174.792,491.854 173.833,501.921 179.586,508.633L227.848,566.483C230.884,570.159 235.358,572.236 239.993,572.236L283.621,572.236C282.705,592.38 282.748,592.23 284.898,620.179L245.427,620.179C241.432,620.179 237.597,621.617 234.72,624.174L174.792,678.03C159.25,691.717 180.821,715.462 196.046,701.841L251.499,652.14L287.775,652.14C287.936,652.14 288.255,651.981 288.415,651.981C290.812,667.322 293.848,682.344 297.524,696.727L250.7,696.727C246.705,696.727 243.029,698.006 240.152,700.562L181.184,752.18C174.632,758.092 173.992,768.16 179.746,774.713C185.478,781.306 195.703,781.849 202.278,776.311L256.613,728.688L305.515,728.688C306.153,728.688 306.792,728.368 307.432,728.209C320.108,764.279 337.986,799.809 363.025,828.975C378.181,846.629 393.032,860.687 412.721,873.255C428.615,883.401 445.511,890.803 463.818,895.122C479.364,898.789 495.358,899.917 511.274,898.816C605.621,892.292 674.113,811.867 705.672,728.688L743.387,728.688L797.722,776.311C804.297,781.849 814.522,781.306 820.254,774.713C826.008,768.16 825.368,758.092 818.816,752.18L759.848,700.562C756.971,698.006 753.295,696.727 749.3,696.727L716.22,696.727C720.374,682.344 723.57,667.322 725.968,652.14L748.501,652.14Z" style="fill:none;stroke:rgb(101,101,106);stroke-width:21.66px;"/>
                </g>
                <g transform="matrix(1.35051,0,0,1.35051,-116.518,-159.67)">
                    <path d="M316.348,440.133C327.674,437.843 339.617,437.881 352.078,440.133" style="fill:none;stroke:rgb(101,101,106);stroke-width:2.5px;stroke-linecap:round;stroke-miterlimit:1.5;"/>
                </g>
                <path d="M335.526,438.924L355.699,438.924C356.496,438.924 357.268,439.422 357.741,440.219C361.701,447.117 364.092,455.411 364.64,464.227C364.739,465.522 364.789,466.867 364.789,468.212C364.789,470.876 364.615,473.541 364.266,476.181C363.743,480.216 362.872,484.076 361.627,487.612C356.795,501.708 344.026,514.29 331.816,512.417C321.929,511.047 312.291,501.633 307.808,487.662C306.637,484.101 305.815,480.265 305.342,476.206C305.019,473.566 304.844,470.876 304.844,468.212C304.844,466.867 304.894,465.522 304.969,464.202C305.517,455.386 307.733,447.068 311.419,440.169C311.842,439.397 312.49,438.924 313.137,438.924L335.526,438.924" style="fill:none;"/>
                <g transform="matrix(0.0224826,0,0,0.0224826,278.61,410.782)">
                    <path d="M3325.06,3835.48L1674.94,3835.48C1598.16,3835.48 1535.35,3772.66 1535.35,3695.9L1535.35,2482.72C1544.12,2374.6 1616.95,2350.62 1789.65,2344.26L1789.65,2094.41C1789.65,1629 2034.58,1251.69 2500,1251.69C2965.42,1251.69 3210.35,1629 3210.35,2094.41L3210.35,2344.26C3379.84,2347.2 3460.63,2367.75 3464.65,2482.72L3464.65,3695.9C3464.65,3772.66 3401.83,3835.48 3325.06,3835.48ZM2603.8,3113.36L2603.8,3331.12C2603.8,3388.21 2557.09,3434.92 2500,3434.92C2442.91,3434.92 2396.2,3388.21 2396.2,3331.12L2396.2,3113.36C2336.51,3077.9 2296.5,3012.78 2296.5,2938.31C2296.5,2825.92 2387.61,2734.81 2500,2734.81C2612.39,2734.81 2703.5,2825.92 2703.5,2938.31C2703.5,3012.78 2663.49,3077.9 2603.8,3113.36ZM2949.44,2343.14L2949.44,2094.41C2949.44,1773.09 2821.32,1512.6 2500,1512.6C2178.68,1512.6 2050.56,1773.09 2050.56,2094.41L2050.56,2343.14L2949.44,2343.14Z" style="fill:rgb(6,8,8);fill-opacity:0;stroke:rgb(255,66,41);stroke-width:120.14px;"/>
                </g>
            </g>
            <g transform="matrix(-0.395022,0.395022,-0.395022,-0.395022,947.698,-61.1958)">
                <g transform="matrix(4.16667,0,0,4.16667,424.794,0)">
                    <path d="M54.397,41.226C52.534,43.09 48.523,43.892 46.12,43.385L41.609,38.875C41.102,36.472 41.906,32.46 43.769,30.597L56.989,17.378L67.617,28.006L54.397,41.226ZM62.85,15.316C64.863,15.427 66.817,16.154 67.829,17.165C69.828,19.165 70.659,24.624 68.027,27.567L57.43,16.971C59.195,15.388 61.558,15.244 62.85,15.316ZM68.253,16.742C67.126,15.614 65.069,14.838 62.883,14.717C60.387,14.579 58.22,15.298 56.776,16.742L43.344,30.173C41.265,32.252 40.463,36.542 41.043,39.091L41.062,39.176L45.819,43.933L45.904,43.952C46.443,44.075 47.06,44.136 47.718,44.136C50.168,44.136 53.182,43.29 54.823,41.65L68.253,28.218C71.42,25.051 70.519,19.008 68.253,16.742Z" style="fill:rgb(101,101,106);fill-rule:nonzero;stroke:rgb(101,101,106);stroke-width:0.43px;"/>
                </g>
                <g transform="matrix(4.16667,0,0,4.16667,424.794,0)">
                    <path d="M42.021,54.43L40.579,49.49L44.747,45.322L45.765,50.687L42.021,54.43ZM37.832,49.867L35.128,47.163L35.798,44.972L35.803,44.967L35.805,44.966L40.287,40.483L44.511,44.708L40.029,49.191L40.028,49.192L40.023,49.197L37.832,49.867ZM34.308,39.23L39.673,40.248L35.505,44.416L30.564,42.974L34.308,39.23ZM45.151,44.503L45.148,44.496L40.499,39.847L40.492,39.844L40.343,39.764L34.264,38.611C34.167,38.593 34.065,38.624 33.995,38.694L29.782,42.908C29.708,42.983 29.677,43.092 29.704,43.195C29.73,43.297 29.809,43.378 29.91,43.408L35.179,44.946L34.502,47.16C34.468,47.266 34.498,47.381 34.576,47.46L37.535,50.419L37.748,50.507L37.835,50.494L40.049,49.816L41.586,55.084C41.616,55.187 41.697,55.265 41.801,55.291L41.875,55.301L42.087,55.213L46.301,50.999C46.371,50.929 46.402,50.829 46.383,50.731L45.231,44.652L45.151,44.503Z" style="fill:rgb(255,66,41);fill-rule:nonzero;stroke:rgb(255,66,41);stroke-width:0.43px;"/>
                </g>
                <g transform="matrix(3.99328,1.36222e-15,-1.36222e-15,3.99328,432.346,6.28723)">
                    <path d="M51.257,24.769C49.931,26.029 48.64,27.324 47.33,28.6L45.409,30.559C45.088,30.893 44.771,31.196 44.447,31.555C44.123,31.919 43.871,32.332 43.675,32.762C42.905,34.475 42.617,36.382 42.919,38.197C42.88,37.282 42.976,36.373 43.184,35.493C43.377,34.612 43.664,33.749 44.085,32.969C44.294,32.579 44.547,32.218 44.831,31.902C45.126,31.587 45.475,31.264 45.794,30.944L47.753,29.024C49.03,27.714 50.325,26.423 51.585,25.096C52.843,23.769 54.095,22.435 55.3,21.054C53.918,22.258 52.585,23.511 51.257,24.769Z" style="fill:rgb(77,78,78);fill-rule:nonzero;"/>
                </g>
            </g>
        </g>
    </g>
</svg>
