<?xml version="1.0" encoding="UTF-8" standalone="no"?>
<!DOCTYPE svg PUBLIC "-//W3C//DTD SVG 1.1//EN" "http://www.w3.org/Graphics/SVG/1.1/DTD/svg11.dtd">
<svg width="100%" height="100%" viewBox="0 0 408 347" version="1.1" xmlns="http://www.w3.org/2000/svg" xmlns:xlink="http://www.w3.org/1999/xlink" xml:space="preserve" xmlns:serif="http://www.serif.com/" style="fill-rule:evenodd;clip-rule:evenodd;stroke-linejoin:round;stroke-miterlimit:1.41421;">
    <g transform="matrix(1,0,0,1,-357,-262)">
        <g>
            <g transform="matrix(1,0,0,1,-9.70468,0.78615)">
                <path d="M373.823,359.661C373.514,359.661 373.271,359.576 373.095,359.405C372.919,359.234 372.831,358.994 372.831,358.685L372.831,349.357C372.831,349.048 372.919,348.808 373.095,348.637C373.271,348.466 373.514,348.381 373.823,348.381L376.991,348.381C378.837,348.381 380.269,348.874 381.287,349.861C382.306,350.848 382.815,352.232 382.815,354.013C382.815,355.805 382.306,357.194 381.287,358.181C380.269,359.168 378.837,359.661 376.991,359.661L373.823,359.661ZM376.863,357.981C379.455,357.981 380.751,356.658 380.751,354.013C380.751,351.378 379.455,350.061 376.863,350.061L374.895,350.061L374.895,357.981L376.863,357.981Z" style="fill:white;fill-rule:nonzero;"/>
                <path d="M385.887,359.661C385.578,359.661 385.335,359.576 385.159,359.405C384.983,359.234 384.895,358.994 384.895,358.685L384.895,349.357C384.895,349.048 384.983,348.808 385.159,348.637C385.335,348.466 385.578,348.381 385.887,348.381L391.663,348.381C391.973,348.381 392.213,348.45 392.383,348.589C392.554,348.728 392.639,348.925 392.639,349.181C392.639,349.448 392.554,349.653 392.383,349.797C392.213,349.941 391.973,350.013 391.663,350.013L386.911,350.013L386.911,353.117L391.343,353.117C391.653,353.117 391.893,353.186 392.063,353.325C392.234,353.464 392.319,353.666 392.319,353.933C392.319,354.189 392.234,354.386 392.063,354.525C391.893,354.664 391.653,354.733 391.343,354.733L386.911,354.733L386.911,358.029L391.663,358.029C391.973,358.029 392.213,358.101 392.383,358.245C392.554,358.389 392.639,358.594 392.639,358.861C392.639,359.117 392.554,359.314 392.383,359.453C392.213,359.592 391.973,359.661 391.663,359.661L385.887,359.661Z" style="fill:white;fill-rule:nonzero;"/>
                <path d="M398.031,359.741C397.711,359.741 397.458,359.648 397.271,359.461C397.085,359.274 396.991,359.026 396.991,358.717L396.991,350.077L394.079,350.077C393.439,350.077 393.119,349.794 393.119,349.229C393.119,348.664 393.439,348.381 394.079,348.381L401.967,348.381C402.607,348.381 402.927,348.664 402.927,349.229C402.927,349.794 402.607,350.077 401.967,350.077L399.055,350.077L399.055,358.717C399.055,359.026 398.962,359.274 398.775,359.461C398.589,359.648 398.341,359.741 398.031,359.741Z" style="fill:white;fill-rule:nonzero;"/>
                <path d="M405.135,359.661C404.826,359.661 404.583,359.576 404.407,359.405C404.231,359.234 404.143,358.994 404.143,358.685L404.143,349.357C404.143,349.048 404.231,348.808 404.407,348.637C404.583,348.466 404.826,348.381 405.135,348.381L410.911,348.381C411.221,348.381 411.461,348.45 411.631,348.589C411.802,348.728 411.887,348.925 411.887,349.181C411.887,349.448 411.802,349.653 411.631,349.797C411.461,349.941 411.221,350.013 410.911,350.013L406.159,350.013L406.159,353.117L410.591,353.117C410.901,353.117 411.141,353.186 411.311,353.325C411.482,353.464 411.567,353.666 411.567,353.933C411.567,354.189 411.482,354.386 411.311,354.525C411.141,354.664 410.901,354.733 410.591,354.733L406.159,354.733L406.159,358.029L410.911,358.029C411.221,358.029 411.461,358.101 411.631,358.245C411.802,358.389 411.887,358.594 411.887,358.861C411.887,359.117 411.802,359.314 411.631,359.453C411.461,359.592 411.221,359.661 410.911,359.661L405.135,359.661Z" style="fill:white;fill-rule:nonzero;"/>
                <path d="M418.575,359.805C417.487,359.805 416.535,359.57 415.719,359.101C414.903,358.632 414.277,357.96 413.839,357.085C413.402,356.21 413.183,355.186 413.183,354.013C413.183,352.84 413.402,351.818 413.839,350.949C414.277,350.08 414.903,349.41 415.719,348.941C416.535,348.472 417.487,348.237 418.575,348.237C419.279,348.237 419.941,348.341 420.559,348.549C421.178,348.757 421.727,349.058 422.207,349.453C422.346,349.56 422.442,349.672 422.495,349.789C422.549,349.906 422.575,350.05 422.575,350.221C422.575,350.456 422.511,350.653 422.383,350.813C422.255,350.973 422.101,351.053 421.919,351.053C421.706,351.053 421.487,350.978 421.263,350.829C420.805,350.488 420.378,350.25 419.983,350.117C419.589,349.984 419.151,349.917 418.671,349.917C417.562,349.917 416.722,350.264 416.151,350.957C415.581,351.65 415.295,352.669 415.295,354.013C415.295,355.368 415.581,356.392 416.151,357.085C416.722,357.778 417.562,358.125 418.671,358.125C419.13,358.125 419.554,358.056 419.943,357.917C420.333,357.778 420.773,357.544 421.263,357.213C421.37,357.149 421.477,357.096 421.583,357.053C421.69,357.01 421.802,356.989 421.919,356.989C422.101,356.989 422.255,357.069 422.383,357.229C422.511,357.389 422.575,357.586 422.575,357.821C422.575,357.981 422.549,358.122 422.495,358.245C422.442,358.368 422.346,358.482 422.207,358.589C421.727,358.984 421.178,359.285 420.559,359.493C419.941,359.701 419.279,359.805 418.575,359.805Z" style="fill:white;fill-rule:nonzero;"/>
                <path d="M427.919,359.741C427.599,359.741 427.346,359.648 427.159,359.461C426.973,359.274 426.879,359.026 426.879,358.717L426.879,350.077L423.967,350.077C423.327,350.077 423.007,349.794 423.007,349.229C423.007,348.664 423.327,348.381 423.967,348.381L431.855,348.381C432.495,348.381 432.815,348.664 432.815,349.229C432.815,349.794 432.495,350.077 431.855,350.077L428.943,350.077L428.943,358.717C428.943,359.026 428.85,359.274 428.663,359.461C428.477,359.648 428.229,359.741 427.919,359.741Z" style="fill:white;fill-rule:nonzero;"/>
                <path d="M448.591,358.429C448.655,358.568 448.687,358.706 448.687,358.845C448.687,359.09 448.589,359.298 448.391,359.469C448.194,359.64 447.967,359.725 447.711,359.725C447.541,359.725 447.381,359.68 447.231,359.589C447.082,359.498 446.965,359.357 446.879,359.165L445.919,357.021L440.287,357.021L439.327,359.165C439.242,359.357 439.125,359.498 438.975,359.589C438.826,359.68 438.661,359.725 438.479,359.725C438.234,359.725 438.01,359.64 437.807,359.469C437.605,359.298 437.503,359.09 437.503,358.845C437.503,358.706 437.535,358.568 437.599,358.429L442.015,348.941C442.111,348.728 442.258,348.565 442.455,348.453C442.653,348.341 442.863,348.285 443.087,348.285C443.311,348.285 443.522,348.341 443.719,348.453C443.917,348.565 444.063,348.728 444.159,348.941L448.591,358.429ZM440.991,355.421L445.215,355.421L443.103,350.669L440.991,355.421Z" style="fill:white;fill-rule:nonzero;"/>
                <path d="M458.783,348.301C459.082,348.301 459.319,348.394 459.495,348.581C459.671,348.768 459.759,349.016 459.759,349.325L459.759,358.717C459.759,359.026 459.669,359.277 459.487,359.469C459.306,359.661 459.071,359.757 458.783,359.757C458.442,359.757 458.181,359.634 457.999,359.389L452.159,351.789L452.159,358.717C452.159,359.026 452.074,359.277 451.903,359.469C451.733,359.661 451.498,359.757 451.199,359.757C450.901,359.757 450.666,359.661 450.495,359.469C450.325,359.277 450.239,359.026 450.239,358.717L450.239,349.325C450.239,349.016 450.33,348.768 450.511,348.581C450.693,348.394 450.933,348.301 451.231,348.301C451.562,348.301 451.818,348.424 451.999,348.669L457.823,356.237L457.823,349.325C457.823,349.016 457.911,348.768 458.087,348.581C458.263,348.394 458.495,348.301 458.783,348.301Z" style="fill:white;fill-rule:nonzero;"/>
                <path d="M463.183,359.661C462.874,359.661 462.631,359.576 462.455,359.405C462.279,359.234 462.191,358.994 462.191,358.685L462.191,349.357C462.191,349.048 462.279,348.808 462.455,348.637C462.631,348.466 462.874,348.381 463.183,348.381L466.351,348.381C468.197,348.381 469.629,348.874 470.647,349.861C471.666,350.848 472.175,352.232 472.175,354.013C472.175,355.805 471.666,357.194 470.647,358.181C469.629,359.168 468.197,359.661 466.351,359.661L463.183,359.661ZM466.223,357.981C468.815,357.981 470.111,356.658 470.111,354.013C470.111,351.378 468.815,350.061 466.223,350.061L464.255,350.061L464.255,357.981L466.223,357.981Z" style="fill:white;fill-rule:nonzero;"/>
                <path d="M387.719,377.032C387.847,377.224 387.911,377.41 387.911,377.592C387.911,377.837 387.813,378.04 387.615,378.2C387.418,378.36 387.186,378.44 386.919,378.44C386.749,378.44 386.586,378.4 386.431,378.32C386.277,378.24 386.146,378.12 386.039,377.96L383.911,374.728C383.698,374.386 383.471,374.146 383.231,374.008C382.991,373.869 382.679,373.8 382.295,373.8L380.727,373.8L380.727,377.384C380.727,377.704 380.637,377.957 380.455,378.144C380.274,378.33 380.029,378.424 379.719,378.424C379.41,378.424 379.162,378.33 378.975,378.144C378.789,377.957 378.695,377.704 378.695,377.384L378.695,368.024C378.695,367.714 378.783,367.474 378.959,367.304C379.135,367.133 379.378,367.048 379.687,367.048L383.687,367.048C384.967,367.048 385.941,367.333 386.607,367.904C387.274,368.474 387.607,369.298 387.607,370.376C387.607,371.25 387.359,371.968 386.863,372.528C386.367,373.088 385.666,373.448 384.759,373.608C385.069,373.682 385.341,373.816 385.575,374.008C385.81,374.2 386.039,374.466 386.263,374.808L387.719,377.032ZM383.399,372.216C384.178,372.216 384.749,372.069 385.111,371.776C385.474,371.482 385.655,371.032 385.655,370.424C385.655,369.805 385.474,369.354 385.111,369.072C384.749,368.789 384.178,368.648 383.399,368.648L380.711,368.648L380.711,372.216L383.399,372.216Z" style="fill:white;fill-rule:nonzero;"/>
                <path d="M390.807,378.328C390.498,378.328 390.255,378.242 390.079,378.072C389.903,377.901 389.815,377.661 389.815,377.352L389.815,368.024C389.815,367.714 389.903,367.474 390.079,367.304C390.255,367.133 390.498,367.048 390.807,367.048L396.583,367.048C396.893,367.048 397.133,367.117 397.303,367.256C397.474,367.394 397.559,367.592 397.559,367.848C397.559,368.114 397.474,368.32 397.303,368.464C397.133,368.608 396.893,368.68 396.583,368.68L391.831,368.68L391.831,371.784L396.263,371.784C396.573,371.784 396.813,371.853 396.983,371.992C397.154,372.13 397.239,372.333 397.239,372.6C397.239,372.856 397.154,373.053 396.983,373.192C396.813,373.33 396.573,373.4 396.263,373.4L391.831,373.4L391.831,376.696L396.583,376.696C396.893,376.696 397.133,376.768 397.303,376.912C397.474,377.056 397.559,377.261 397.559,377.528C397.559,377.784 397.474,377.981 397.303,378.12C397.133,378.258 396.893,378.328 396.583,378.328L390.807,378.328Z" style="fill:white;fill-rule:nonzero;"/>
                <path d="M409.255,366.968C409.554,366.968 409.794,367.061 409.975,367.248C410.157,367.434 410.247,367.682 410.247,367.992L410.247,377.464C410.247,377.762 410.162,377.997 409.991,378.168C409.821,378.338 409.597,378.424 409.319,378.424C409.042,378.424 408.823,378.338 408.663,378.168C408.503,377.997 408.423,377.762 408.423,377.464L408.423,370.872L405.703,376.024C405.575,376.258 405.437,376.432 405.287,376.544C405.138,376.656 404.962,376.712 404.759,376.712C404.557,376.712 404.381,376.658 404.231,376.552C404.082,376.445 403.943,376.269 403.815,376.024L401.079,370.952L401.079,377.464C401.079,377.752 400.997,377.984 400.831,378.16C400.666,378.336 400.445,378.424 400.167,378.424C399.89,378.424 399.671,378.338 399.511,378.168C399.351,377.997 399.271,377.762 399.271,377.464L399.271,367.992C399.271,367.682 399.359,367.434 399.535,367.248C399.711,367.061 399.949,366.968 400.247,366.968C400.663,366.968 400.989,367.197 401.223,367.656L404.775,374.424L408.311,367.656C408.546,367.197 408.861,366.968 409.255,366.968Z" style="fill:white;fill-rule:nonzero;"/>
                <path d="M413.687,378.328C413.378,378.328 413.135,378.242 412.959,378.072C412.783,377.901 412.695,377.661 412.695,377.352L412.695,368.024C412.695,367.714 412.783,367.474 412.959,367.304C413.135,367.133 413.378,367.048 413.687,367.048L419.463,367.048C419.773,367.048 420.013,367.117 420.183,367.256C420.354,367.394 420.439,367.592 420.439,367.848C420.439,368.114 420.354,368.32 420.183,368.464C420.013,368.608 419.773,368.68 419.463,368.68L414.711,368.68L414.711,371.784L419.143,371.784C419.453,371.784 419.693,371.853 419.863,371.992C420.034,372.13 420.119,372.333 420.119,372.6C420.119,372.856 420.034,373.053 419.863,373.192C419.693,373.33 419.453,373.4 419.143,373.4L414.711,373.4L414.711,376.696L419.463,376.696C419.773,376.696 420.013,376.768 420.183,376.912C420.354,377.056 420.439,377.261 420.439,377.528C420.439,377.784 420.354,377.981 420.183,378.12C420.013,378.258 419.773,378.328 419.463,378.328L413.687,378.328Z" style="fill:white;fill-rule:nonzero;"/>
                <path d="M423.111,378.328C422.802,378.328 422.559,378.242 422.383,378.072C422.207,377.901 422.119,377.661 422.119,377.352L422.119,368.024C422.119,367.714 422.207,367.474 422.383,367.304C422.559,367.133 422.802,367.048 423.111,367.048L426.279,367.048C428.125,367.048 429.557,367.541 430.575,368.528C431.594,369.514 432.103,370.898 432.103,372.68C432.103,374.472 431.594,375.861 430.575,376.848C429.557,377.834 428.125,378.328 426.279,378.328L423.111,378.328ZM426.151,376.648C428.743,376.648 430.039,375.325 430.039,372.68C430.039,370.045 428.743,368.728 426.151,368.728L424.183,368.728L424.183,376.648L426.151,376.648Z" style="fill:white;fill-rule:nonzero;"/>
                <path d="M435.207,378.424C434.898,378.424 434.65,378.328 434.463,378.136C434.277,377.944 434.183,377.693 434.183,377.384L434.183,367.992C434.183,367.682 434.277,367.434 434.463,367.248C434.65,367.061 434.898,366.968 435.207,366.968C435.527,366.968 435.781,367.061 435.967,367.248C436.154,367.434 436.247,367.682 436.247,367.992L436.247,377.384C436.247,377.693 436.154,377.944 435.967,378.136C435.781,378.328 435.527,378.424 435.207,378.424Z" style="fill:white;fill-rule:nonzero;"/>
                <path d="M448.903,377.096C448.967,377.234 448.999,377.373 448.999,377.512C448.999,377.757 448.901,377.965 448.703,378.136C448.506,378.306 448.279,378.392 448.023,378.392C447.853,378.392 447.693,378.346 447.543,378.256C447.394,378.165 447.277,378.024 447.191,377.832L446.231,375.688L440.599,375.688L439.639,377.832C439.554,378.024 439.437,378.165 439.287,378.256C439.138,378.346 438.973,378.392 438.791,378.392C438.546,378.392 438.322,378.306 438.119,378.136C437.917,377.965 437.815,377.757 437.815,377.512C437.815,377.373 437.847,377.234 437.911,377.096L442.327,367.608C442.423,367.394 442.57,367.232 442.767,367.12C442.965,367.008 443.175,366.952 443.399,366.952C443.623,366.952 443.834,367.008 444.031,367.12C444.229,367.232 444.375,367.394 444.471,367.608L448.903,377.096ZM441.303,374.088L445.527,374.088L443.415,369.336L441.303,374.088Z" style="fill:white;fill-rule:nonzero;"/>
                <path d="M452.855,378.408C452.535,378.408 452.282,378.314 452.095,378.128C451.909,377.941 451.815,377.693 451.815,377.384L451.815,368.744L448.903,368.744C448.263,368.744 447.943,368.461 447.943,367.896C447.943,367.33 448.263,367.048 448.903,367.048L456.791,367.048C457.431,367.048 457.751,367.33 457.751,367.896C457.751,368.461 457.431,368.744 456.791,368.744L453.879,368.744L453.879,377.384C453.879,377.693 453.786,377.941 453.599,378.128C453.413,378.314 453.165,378.408 452.855,378.408Z" style="fill:white;fill-rule:nonzero;"/>
                <path d="M459.959,378.328C459.65,378.328 459.407,378.242 459.231,378.072C459.055,377.901 458.967,377.661 458.967,377.352L458.967,368.024C458.967,367.714 459.055,367.474 459.231,367.304C459.407,367.133 459.65,367.048 459.959,367.048L465.735,367.048C466.045,367.048 466.285,367.117 466.455,367.256C466.626,367.394 466.711,367.592 466.711,367.848C466.711,368.114 466.626,368.32 466.455,368.464C466.285,368.608 466.045,368.68 465.735,368.68L460.983,368.68L460.983,371.784L465.415,371.784C465.725,371.784 465.965,371.853 466.135,371.992C466.306,372.13 466.391,372.333 466.391,372.6C466.391,372.856 466.306,373.053 466.135,373.192C465.965,373.33 465.725,373.4 465.415,373.4L460.983,373.4L460.983,376.696L465.735,376.696C466.045,376.696 466.285,376.768 466.455,376.912C466.626,377.056 466.711,377.261 466.711,377.528C466.711,377.784 466.626,377.981 466.455,378.12C466.285,378.258 466.045,378.328 465.735,378.328L459.959,378.328Z" style="fill:white;fill-rule:nonzero;"/>
            </g>
            <g transform="matrix(1,0,0,1,138.928,-86.0809)">
                <path d="M385.303,358.429C385.367,358.568 385.399,358.706 385.399,358.845C385.399,359.09 385.301,359.298 385.103,359.469C384.906,359.64 384.679,359.725 384.423,359.725C384.253,359.725 384.093,359.68 383.943,359.589C383.794,359.498 383.677,359.357 383.591,359.165L382.631,357.021L376.999,357.021L376.039,359.165C375.954,359.357 375.837,359.498 375.687,359.589C375.538,359.68 375.373,359.725 375.191,359.725C374.946,359.725 374.722,359.64 374.519,359.469C374.317,359.298 374.215,359.09 374.215,358.845C374.215,358.706 374.247,358.568 374.311,358.429L378.727,348.941C378.823,348.728 378.97,348.565 379.167,348.453C379.365,348.341 379.575,348.285 379.799,348.285C380.023,348.285 380.234,348.341 380.431,348.453C380.629,348.565 380.775,348.728 380.871,348.941L385.303,358.429ZM377.703,355.421L381.927,355.421L379.815,350.669L377.703,355.421Z" style="fill:white;fill-rule:nonzero;"/>
                <path d="M395.191,353.565C395.437,353.565 395.634,353.637 395.783,353.781C395.933,353.925 396.007,354.114 396.007,354.349L396.007,357.789C396.007,358.28 395.943,358.626 395.815,358.829C395.687,359.032 395.426,359.197 395.031,359.325C394.605,359.474 394.109,359.592 393.543,359.677C392.978,359.762 392.434,359.805 391.911,359.805C390.749,359.805 389.741,359.576 388.887,359.117C388.034,358.658 387.381,357.994 386.927,357.125C386.474,356.256 386.247,355.218 386.247,354.013C386.247,352.829 386.474,351.802 386.927,350.933C387.381,350.064 388.023,349.397 388.855,348.933C389.687,348.469 390.669,348.237 391.799,348.237C393.303,348.237 394.535,348.642 395.495,349.453C395.623,349.57 395.717,349.688 395.775,349.805C395.834,349.922 395.863,350.061 395.863,350.221C395.863,350.456 395.799,350.653 395.671,350.813C395.543,350.973 395.389,351.053 395.207,351.053C395.09,351.053 394.983,351.034 394.887,350.997C394.791,350.96 394.679,350.898 394.551,350.813C394.082,350.482 393.645,350.25 393.239,350.117C392.834,349.984 392.375,349.917 391.863,349.917C390.701,349.917 389.823,350.261 389.231,350.949C388.639,351.637 388.343,352.658 388.343,354.013C388.343,356.786 389.559,358.173 391.991,358.173C392.717,358.173 393.442,358.072 394.167,357.869L394.167,355.037L392.359,355.037C392.103,355.037 391.903,354.973 391.759,354.845C391.615,354.717 391.543,354.536 391.543,354.301C391.543,354.066 391.615,353.885 391.759,353.757C391.903,353.629 392.103,353.565 392.359,353.565L395.191,353.565Z" style="fill:white;fill-rule:nonzero;"/>
                <path d="M406.919,353.565C407.165,353.565 407.362,353.637 407.511,353.781C407.661,353.925 407.735,354.114 407.735,354.349L407.735,357.789C407.735,358.28 407.671,358.626 407.543,358.829C407.415,359.032 407.154,359.197 406.759,359.325C406.333,359.474 405.837,359.592 405.271,359.677C404.706,359.762 404.162,359.805 403.639,359.805C402.477,359.805 401.469,359.576 400.615,359.117C399.762,358.658 399.109,357.994 398.655,357.125C398.202,356.256 397.975,355.218 397.975,354.013C397.975,352.829 398.202,351.802 398.655,350.933C399.109,350.064 399.751,349.397 400.583,348.933C401.415,348.469 402.397,348.237 403.527,348.237C405.031,348.237 406.263,348.642 407.223,349.453C407.351,349.57 407.445,349.688 407.503,349.805C407.562,349.922 407.591,350.061 407.591,350.221C407.591,350.456 407.527,350.653 407.399,350.813C407.271,350.973 407.117,351.053 406.935,351.053C406.818,351.053 406.711,351.034 406.615,350.997C406.519,350.96 406.407,350.898 406.279,350.813C405.81,350.482 405.373,350.25 404.967,350.117C404.562,349.984 404.103,349.917 403.591,349.917C402.429,349.917 401.551,350.261 400.959,350.949C400.367,351.637 400.071,352.658 400.071,354.013C400.071,356.786 401.287,358.173 403.719,358.173C404.445,358.173 405.17,358.072 405.895,357.869L405.895,355.037L404.087,355.037C403.831,355.037 403.631,354.973 403.487,354.845C403.343,354.717 403.271,354.536 403.271,354.301C403.271,354.066 403.343,353.885 403.487,353.757C403.631,353.629 403.831,353.565 404.087,353.565L406.919,353.565Z" style="fill:white;fill-rule:nonzero;"/>
                <path d="M419.079,358.365C419.207,358.557 419.271,358.744 419.271,358.925C419.271,359.17 419.173,359.373 418.975,359.533C418.778,359.693 418.546,359.773 418.279,359.773C418.109,359.773 417.946,359.733 417.791,359.653C417.637,359.573 417.506,359.453 417.399,359.293L415.271,356.061C415.058,355.72 414.831,355.48 414.591,355.341C414.351,355.202 414.039,355.133 413.655,355.133L412.087,355.133L412.087,358.717C412.087,359.037 411.997,359.29 411.815,359.477C411.634,359.664 411.389,359.757 411.079,359.757C410.77,359.757 410.522,359.664 410.335,359.477C410.149,359.29 410.055,359.037 410.055,358.717L410.055,349.357C410.055,349.048 410.143,348.808 410.319,348.637C410.495,348.466 410.738,348.381 411.047,348.381L415.047,348.381C416.327,348.381 417.301,348.666 417.967,349.237C418.634,349.808 418.967,350.632 418.967,351.709C418.967,352.584 418.719,353.301 418.223,353.861C417.727,354.421 417.026,354.781 416.119,354.941C416.429,355.016 416.701,355.149 416.935,355.341C417.17,355.533 417.399,355.8 417.623,356.141L419.079,358.365ZM414.759,353.549C415.538,353.549 416.109,353.402 416.471,353.109C416.834,352.816 417.015,352.365 417.015,351.757C417.015,351.138 416.834,350.688 416.471,350.405C416.109,350.122 415.538,349.981 414.759,349.981L412.071,349.981L412.071,353.549L414.759,353.549Z" style="fill:white;fill-rule:nonzero;"/>
                <path d="M422.167,359.661C421.858,359.661 421.615,359.576 421.439,359.405C421.263,359.234 421.175,358.994 421.175,358.685L421.175,349.357C421.175,349.048 421.263,348.808 421.439,348.637C421.615,348.466 421.858,348.381 422.167,348.381L427.943,348.381C428.253,348.381 428.493,348.45 428.663,348.589C428.834,348.728 428.919,348.925 428.919,349.181C428.919,349.448 428.834,349.653 428.663,349.797C428.493,349.941 428.253,350.013 427.943,350.013L423.191,350.013L423.191,353.117L427.623,353.117C427.933,353.117 428.173,353.186 428.343,353.325C428.514,353.464 428.599,353.666 428.599,353.933C428.599,354.189 428.514,354.386 428.343,354.525C428.173,354.664 427.933,354.733 427.623,354.733L423.191,354.733L423.191,358.029L427.943,358.029C428.253,358.029 428.493,358.101 428.663,358.245C428.834,358.389 428.919,358.594 428.919,358.861C428.919,359.117 428.834,359.314 428.663,359.453C428.493,359.592 428.253,359.661 427.943,359.661L422.167,359.661Z" style="fill:white;fill-rule:nonzero;"/>
                <path d="M439.159,353.565C439.405,353.565 439.602,353.637 439.751,353.781C439.901,353.925 439.975,354.114 439.975,354.349L439.975,357.789C439.975,358.28 439.911,358.626 439.783,358.829C439.655,359.032 439.394,359.197 438.999,359.325C438.573,359.474 438.077,359.592 437.511,359.677C436.946,359.762 436.402,359.805 435.879,359.805C434.717,359.805 433.709,359.576 432.855,359.117C432.002,358.658 431.349,357.994 430.895,357.125C430.442,356.256 430.215,355.218 430.215,354.013C430.215,352.829 430.442,351.802 430.895,350.933C431.349,350.064 431.991,349.397 432.823,348.933C433.655,348.469 434.637,348.237 435.767,348.237C437.271,348.237 438.503,348.642 439.463,349.453C439.591,349.57 439.685,349.688 439.743,349.805C439.802,349.922 439.831,350.061 439.831,350.221C439.831,350.456 439.767,350.653 439.639,350.813C439.511,350.973 439.357,351.053 439.175,351.053C439.058,351.053 438.951,351.034 438.855,350.997C438.759,350.96 438.647,350.898 438.519,350.813C438.05,350.482 437.613,350.25 437.207,350.117C436.802,349.984 436.343,349.917 435.831,349.917C434.669,349.917 433.791,350.261 433.199,350.949C432.607,351.637 432.311,352.658 432.311,354.013C432.311,356.786 433.527,358.173 435.959,358.173C436.685,358.173 437.41,358.072 438.135,357.869L438.135,355.037L436.327,355.037C436.071,355.037 435.871,354.973 435.727,354.845C435.583,354.717 435.511,354.536 435.511,354.301C435.511,354.066 435.583,353.885 435.727,353.757C435.871,353.629 436.071,353.565 436.327,353.565L439.159,353.565Z" style="fill:white;fill-rule:nonzero;"/>
                <path d="M452.519,358.429C452.583,358.568 452.615,358.706 452.615,358.845C452.615,359.09 452.517,359.298 452.319,359.469C452.122,359.64 451.895,359.725 451.639,359.725C451.469,359.725 451.309,359.68 451.159,359.589C451.01,359.498 450.893,359.357 450.807,359.165L449.847,357.021L444.215,357.021L443.255,359.165C443.17,359.357 443.053,359.498 442.903,359.589C442.754,359.68 442.589,359.725 442.407,359.725C442.162,359.725 441.938,359.64 441.735,359.469C441.533,359.298 441.431,359.09 441.431,358.845C441.431,358.706 441.463,358.568 441.527,358.429L445.943,348.941C446.039,348.728 446.186,348.565 446.383,348.453C446.581,348.341 446.791,348.285 447.015,348.285C447.239,348.285 447.45,348.341 447.647,348.453C447.845,348.565 447.991,348.728 448.087,348.941L452.519,358.429ZM444.919,355.421L449.143,355.421L447.031,350.669L444.919,355.421Z" style="fill:white;fill-rule:nonzero;"/>
                <path d="M456.471,359.741C456.151,359.741 455.898,359.648 455.711,359.461C455.525,359.274 455.431,359.026 455.431,358.717L455.431,350.077L452.519,350.077C451.879,350.077 451.559,349.794 451.559,349.229C451.559,348.664 451.879,348.381 452.519,348.381L460.407,348.381C461.047,348.381 461.367,348.664 461.367,349.229C461.367,349.794 461.047,350.077 460.407,350.077L457.495,350.077L457.495,358.717C457.495,359.026 457.402,359.274 457.215,359.461C457.029,359.648 456.781,359.741 456.471,359.741Z" style="fill:white;fill-rule:nonzero;"/>
                <path d="M463.575,359.661C463.266,359.661 463.023,359.576 462.847,359.405C462.671,359.234 462.583,358.994 462.583,358.685L462.583,349.357C462.583,349.048 462.671,348.808 462.847,348.637C463.023,348.466 463.266,348.381 463.575,348.381L469.351,348.381C469.661,348.381 469.901,348.45 470.071,348.589C470.242,348.728 470.327,348.925 470.327,349.181C470.327,349.448 470.242,349.653 470.071,349.797C469.901,349.941 469.661,350.013 469.351,350.013L464.599,350.013L464.599,353.117L469.031,353.117C469.341,353.117 469.581,353.186 469.751,353.325C469.922,353.464 470.007,353.666 470.007,353.933C470.007,354.189 469.922,354.386 469.751,354.525C469.581,354.664 469.341,354.733 469.031,354.733L464.599,354.733L464.599,358.029L469.351,358.029C469.661,358.029 469.901,358.101 470.071,358.245C470.242,358.389 470.327,358.594 470.327,358.861C470.327,359.117 470.242,359.314 470.071,359.453C469.901,359.592 469.661,359.661 469.351,359.661L463.575,359.661Z" style="fill:white;fill-rule:nonzero;"/>
                <path d="M403.263,378.328C402.954,378.328 402.711,378.242 402.535,378.072C402.359,377.901 402.271,377.661 402.271,377.352L402.271,368.024C402.271,367.714 402.359,367.474 402.535,367.304C402.711,367.133 402.954,367.048 403.263,367.048L406.431,367.048C408.277,367.048 409.709,367.541 410.727,368.528C411.746,369.514 412.255,370.898 412.255,372.68C412.255,374.472 411.746,375.861 410.727,376.848C409.709,377.834 408.277,378.328 406.431,378.328L403.263,378.328ZM406.303,376.648C408.895,376.648 410.191,375.325 410.191,372.68C410.191,370.045 408.895,368.728 406.303,368.728L404.335,368.728L404.335,376.648L406.303,376.648Z" style="fill:white;fill-rule:nonzero;"/>
                <path d="M424.271,377.096C424.335,377.234 424.367,377.373 424.367,377.512C424.367,377.757 424.269,377.965 424.071,378.136C423.874,378.306 423.647,378.392 423.391,378.392C423.221,378.392 423.061,378.346 422.911,378.256C422.762,378.165 422.645,378.024 422.559,377.832L421.599,375.688L415.967,375.688L415.007,377.832C414.922,378.024 414.805,378.165 414.655,378.256C414.506,378.346 414.341,378.392 414.159,378.392C413.914,378.392 413.69,378.306 413.487,378.136C413.285,377.965 413.183,377.757 413.183,377.512C413.183,377.373 413.215,377.234 413.279,377.096L417.695,367.608C417.791,367.394 417.938,367.232 418.135,367.12C418.333,367.008 418.543,366.952 418.767,366.952C418.991,366.952 419.202,367.008 419.399,367.12C419.597,367.232 419.743,367.394 419.839,367.608L424.271,377.096ZM416.671,374.088L420.895,374.088L418.783,369.336L416.671,374.088Z" style="fill:white;fill-rule:nonzero;"/>
                <path d="M428.223,378.408C427.903,378.408 427.65,378.314 427.463,378.128C427.277,377.941 427.183,377.693 427.183,377.384L427.183,368.744L424.271,368.744C423.631,368.744 423.311,368.461 423.311,367.896C423.311,367.33 423.631,367.048 424.271,367.048L432.159,367.048C432.799,367.048 433.119,367.33 433.119,367.896C433.119,368.461 432.799,368.744 432.159,368.744L429.247,368.744L429.247,377.384C429.247,377.693 429.154,377.941 428.967,378.128C428.781,378.314 428.533,378.408 428.223,378.408Z" style="fill:white;fill-rule:nonzero;"/>
                <path d="M443.167,377.096C443.231,377.234 443.263,377.373 443.263,377.512C443.263,377.757 443.165,377.965 442.967,378.136C442.77,378.306 442.543,378.392 442.287,378.392C442.117,378.392 441.957,378.346 441.807,378.256C441.658,378.165 441.541,378.024 441.455,377.832L440.495,375.688L434.863,375.688L433.903,377.832C433.818,378.024 433.701,378.165 433.551,378.256C433.402,378.346 433.237,378.392 433.055,378.392C432.81,378.392 432.586,378.306 432.383,378.136C432.181,377.965 432.079,377.757 432.079,377.512C432.079,377.373 432.111,377.234 432.175,377.096L436.591,367.608C436.687,367.394 436.834,367.232 437.031,367.12C437.229,367.008 437.439,366.952 437.663,366.952C437.887,366.952 438.098,367.008 438.295,367.12C438.493,367.232 438.639,367.394 438.735,367.608L443.167,377.096ZM435.567,374.088L439.791,374.088L437.679,369.336L435.567,374.088Z" style="fill:white;fill-rule:nonzero;"/>
            </g>
            <g transform="matrix(1,0,0,1,277.136,0.78615)">
                <path d="M363.303,359.805C362.215,359.805 361.263,359.57 360.447,359.101C359.631,358.632 359.005,357.96 358.567,357.085C358.13,356.21 357.911,355.186 357.911,354.013C357.911,352.84 358.13,351.818 358.567,350.949C359.005,350.08 359.631,349.41 360.447,348.941C361.263,348.472 362.215,348.237 363.303,348.237C364.007,348.237 364.669,348.341 365.287,348.549C365.906,348.757 366.455,349.058 366.935,349.453C367.074,349.56 367.17,349.672 367.223,349.789C367.277,349.906 367.303,350.05 367.303,350.221C367.303,350.456 367.239,350.653 367.111,350.813C366.983,350.973 366.829,351.053 366.647,351.053C366.434,351.053 366.215,350.978 365.991,350.829C365.533,350.488 365.106,350.25 364.711,350.117C364.317,349.984 363.879,349.917 363.399,349.917C362.29,349.917 361.45,350.264 360.879,350.957C360.309,351.65 360.023,352.669 360.023,354.013C360.023,355.368 360.309,356.392 360.879,357.085C361.45,357.778 362.29,358.125 363.399,358.125C363.858,358.125 364.282,358.056 364.671,357.917C365.061,357.778 365.501,357.544 365.991,357.213C366.098,357.149 366.205,357.096 366.311,357.053C366.418,357.01 366.53,356.989 366.647,356.989C366.829,356.989 366.983,357.069 367.111,357.229C367.239,357.389 367.303,357.586 367.303,357.821C367.303,357.981 367.277,358.122 367.223,358.245C367.17,358.368 367.074,358.482 366.935,358.589C366.455,358.984 365.906,359.285 365.287,359.493C364.669,359.701 364.007,359.805 363.303,359.805Z" style="fill:white;fill-rule:nonzero;"/>
                <path d="M373.927,359.805C372.829,359.805 371.877,359.57 371.071,359.101C370.266,358.632 369.645,357.96 369.207,357.085C368.77,356.21 368.551,355.186 368.551,354.013C368.551,352.84 368.767,351.818 369.199,350.949C369.631,350.08 370.253,349.41 371.063,348.941C371.874,348.472 372.829,348.237 373.927,348.237C375.026,348.237 375.978,348.472 376.783,348.941C377.589,349.41 378.207,350.08 378.639,350.949C379.071,351.818 379.287,352.84 379.287,354.013C379.287,355.186 379.069,356.21 378.631,357.085C378.194,357.96 377.573,358.632 376.767,359.101C375.962,359.57 375.015,359.805 373.927,359.805ZM373.927,358.157C374.962,358.157 375.77,357.8 376.351,357.085C376.933,356.37 377.223,355.346 377.223,354.013C377.223,352.68 376.933,351.658 376.351,350.949C375.77,350.24 374.962,349.885 373.927,349.885C372.882,349.885 372.069,350.24 371.487,350.949C370.906,351.658 370.615,352.68 370.615,354.013C370.615,355.346 370.906,356.37 371.487,357.085C372.069,357.8 372.882,358.157 373.927,358.157Z" style="fill:white;fill-rule:nonzero;"/>
                <path d="M389.911,348.301C390.21,348.301 390.447,348.394 390.623,348.581C390.799,348.768 390.887,349.016 390.887,349.325L390.887,358.717C390.887,359.026 390.797,359.277 390.615,359.469C390.434,359.661 390.199,359.757 389.911,359.757C389.57,359.757 389.309,359.634 389.127,359.389L383.287,351.789L383.287,358.717C383.287,359.026 383.202,359.277 383.031,359.469C382.861,359.661 382.626,359.757 382.327,359.757C382.029,359.757 381.794,359.661 381.623,359.469C381.453,359.277 381.367,359.026 381.367,358.717L381.367,349.325C381.367,349.016 381.458,348.768 381.639,348.581C381.821,348.394 382.061,348.301 382.359,348.301C382.69,348.301 382.946,348.424 383.127,348.669L388.951,356.237L388.951,349.325C388.951,349.016 389.039,348.768 389.215,348.581C389.391,348.394 389.623,348.301 389.911,348.301Z" style="fill:white;fill-rule:nonzero;"/>
                <path d="M397.015,359.741C396.695,359.741 396.442,359.648 396.255,359.461C396.069,359.274 395.975,359.026 395.975,358.717L395.975,350.077L393.063,350.077C392.423,350.077 392.103,349.794 392.103,349.229C392.103,348.664 392.423,348.381 393.063,348.381L400.951,348.381C401.591,348.381 401.911,348.664 401.911,349.229C401.911,349.794 401.591,350.077 400.951,350.077L398.039,350.077L398.039,358.717C398.039,359.026 397.946,359.274 397.759,359.461C397.573,359.648 397.325,359.741 397.015,359.741Z" style="fill:white;fill-rule:nonzero;"/>
                <path d="M404.119,359.661C403.81,359.661 403.567,359.576 403.391,359.405C403.215,359.234 403.127,358.994 403.127,358.685L403.127,349.357C403.127,349.048 403.215,348.808 403.391,348.637C403.567,348.466 403.81,348.381 404.119,348.381L409.895,348.381C410.205,348.381 410.445,348.45 410.615,348.589C410.786,348.728 410.871,348.925 410.871,349.181C410.871,349.448 410.786,349.653 410.615,349.797C410.445,349.941 410.205,350.013 409.895,350.013L405.143,350.013L405.143,353.117L409.575,353.117C409.885,353.117 410.125,353.186 410.295,353.325C410.466,353.464 410.551,353.666 410.551,353.933C410.551,354.189 410.466,354.386 410.295,354.525C410.125,354.664 409.885,354.733 409.575,354.733L405.143,354.733L405.143,358.029L409.895,358.029C410.205,358.029 410.445,358.101 410.615,358.245C410.786,358.389 410.871,358.594 410.871,358.861C410.871,359.117 410.786,359.314 410.615,359.453C410.445,359.592 410.205,359.661 409.895,359.661L404.119,359.661Z" style="fill:white;fill-rule:nonzero;"/>
                <path d="M421.207,358.189C421.378,358.392 421.463,358.594 421.463,358.797C421.463,359.053 421.365,359.277 421.167,359.469C420.97,359.661 420.743,359.757 420.487,359.757C420.221,359.757 419.986,359.64 419.783,359.405L416.535,355.373L413.271,359.405C413.079,359.629 412.85,359.741 412.583,359.741C412.327,359.741 412.101,359.648 411.903,359.461C411.706,359.274 411.607,359.053 411.607,358.797C411.607,358.584 411.687,358.381 411.847,358.189L415.335,353.933L411.991,349.853C411.831,349.682 411.751,349.48 411.751,349.245C411.751,348.989 411.847,348.768 412.039,348.581C412.231,348.394 412.455,348.301 412.711,348.301C412.978,348.301 413.213,348.418 413.415,348.653L416.535,352.509L419.655,348.653C419.847,348.418 420.077,348.301 420.343,348.301C420.599,348.301 420.826,348.394 421.023,348.581C421.221,348.768 421.319,348.989 421.319,349.245C421.319,349.48 421.239,349.682 421.079,349.853L417.735,353.933L421.207,358.189Z" style="fill:white;fill-rule:nonzero;"/>
                <path d="M426.759,359.741C426.439,359.741 426.186,359.648 425.999,359.461C425.813,359.274 425.719,359.026 425.719,358.717L425.719,350.077L422.807,350.077C422.167,350.077 421.847,349.794 421.847,349.229C421.847,348.664 422.167,348.381 422.807,348.381L430.695,348.381C431.335,348.381 431.655,348.664 431.655,349.229C431.655,349.794 431.335,350.077 430.695,350.077L427.783,350.077L427.783,358.717C427.783,359.026 427.69,359.274 427.503,359.461C427.317,359.648 427.069,359.741 426.759,359.741Z" style="fill:white;fill-rule:nonzero;"/>
                <path d="M437.527,359.805C435.981,359.805 434.807,359.405 434.007,358.605C433.207,357.805 432.807,356.637 432.807,355.101L432.807,349.325C432.807,349.016 432.898,348.768 433.079,348.581C433.261,348.394 433.506,348.301 433.815,348.301C434.125,348.301 434.37,348.394 434.551,348.581C434.733,348.768 434.823,349.016 434.823,349.325L434.823,355.213C434.823,356.184 435.053,356.917 435.511,357.413C435.97,357.909 436.642,358.157 437.527,358.157C438.402,358.157 439.069,357.906 439.527,357.405C439.986,356.904 440.215,356.173 440.215,355.213L440.215,349.325C440.215,349.016 440.306,348.768 440.487,348.581C440.669,348.394 440.914,348.301 441.223,348.301C441.533,348.301 441.778,348.394 441.959,348.581C442.141,348.768 442.231,349.016 442.231,349.325L442.231,355.101C442.231,356.626 441.831,357.792 441.031,358.597C440.231,359.402 439.063,359.805 437.527,359.805Z" style="fill:white;fill-rule:nonzero;"/>
                <path d="M454.743,358.429C454.807,358.568 454.839,358.706 454.839,358.845C454.839,359.09 454.741,359.298 454.543,359.469C454.346,359.64 454.119,359.725 453.863,359.725C453.693,359.725 453.533,359.68 453.383,359.589C453.234,359.498 453.117,359.357 453.031,359.165L452.071,357.021L446.439,357.021L445.479,359.165C445.394,359.357 445.277,359.498 445.127,359.589C444.978,359.68 444.813,359.725 444.631,359.725C444.386,359.725 444.162,359.64 443.959,359.469C443.757,359.298 443.655,359.09 443.655,358.845C443.655,358.706 443.687,358.568 443.751,358.429L448.167,348.941C448.263,348.728 448.41,348.565 448.607,348.453C448.805,348.341 449.015,348.285 449.239,348.285C449.463,348.285 449.674,348.341 449.871,348.453C450.069,348.565 450.215,348.728 450.311,348.941L454.743,358.429ZM447.143,355.421L451.367,355.421L449.255,350.669L447.143,355.421Z" style="fill:white;fill-rule:nonzero;"/>
                <path d="M457.367,359.661C457.058,359.661 456.818,359.576 456.647,359.405C456.477,359.234 456.391,359 456.391,358.701L456.391,349.325C456.391,349.016 456.485,348.768 456.671,348.581C456.858,348.394 457.106,348.301 457.415,348.301C457.735,348.301 457.989,348.394 458.175,348.581C458.362,348.768 458.455,349.016 458.455,349.325L458.455,357.965L462.951,357.965C463.591,357.965 463.911,358.248 463.911,358.813C463.911,359.378 463.591,359.661 462.951,359.661L457.367,359.661Z" style="fill:white;fill-rule:nonzero;"/>
                <path d="M466.295,359.757C465.986,359.757 465.738,359.661 465.551,359.469C465.365,359.277 465.271,359.026 465.271,358.717L465.271,349.325C465.271,349.016 465.365,348.768 465.551,348.581C465.738,348.394 465.986,348.301 466.295,348.301C466.615,348.301 466.869,348.394 467.055,348.581C467.242,348.768 467.335,349.016 467.335,349.325L467.335,358.717C467.335,359.026 467.242,359.277 467.055,359.469C466.869,359.661 466.615,359.757 466.295,359.757Z" style="fill:white;fill-rule:nonzero;"/>
                <path d="M476.855,358.013C477.495,358.013 477.815,358.285 477.815,358.829C477.815,359.384 477.495,359.661 476.855,359.661L470.039,359.661C469.762,359.661 469.541,359.578 469.375,359.413C469.21,359.248 469.127,359.037 469.127,358.781C469.127,358.525 469.213,358.28 469.383,358.045L475.111,350.029L470.103,350.029C469.463,350.029 469.143,349.757 469.143,349.213C469.143,348.658 469.463,348.381 470.103,348.381L476.711,348.381C476.989,348.381 477.21,348.464 477.375,348.629C477.541,348.794 477.623,349 477.623,349.245C477.623,349.49 477.533,349.736 477.351,349.981L471.623,358.013L476.855,358.013Z" style="fill:white;fill-rule:nonzero;"/>
                <path d="M480.391,359.661C480.082,359.661 479.839,359.576 479.663,359.405C479.487,359.234 479.399,358.994 479.399,358.685L479.399,349.357C479.399,349.048 479.487,348.808 479.663,348.637C479.839,348.466 480.082,348.381 480.391,348.381L486.167,348.381C486.477,348.381 486.717,348.45 486.887,348.589C487.058,348.728 487.143,348.925 487.143,349.181C487.143,349.448 487.058,349.653 486.887,349.797C486.717,349.941 486.477,350.013 486.167,350.013L481.415,350.013L481.415,353.117L485.847,353.117C486.157,353.117 486.397,353.186 486.567,353.325C486.738,353.464 486.823,353.666 486.823,353.933C486.823,354.189 486.738,354.386 486.567,354.525C486.397,354.664 486.157,354.733 485.847,354.733L481.415,354.733L481.415,358.029L486.167,358.029C486.477,358.029 486.717,358.101 486.887,358.245C487.058,358.389 487.143,358.594 487.143,358.861C487.143,359.117 487.058,359.314 486.887,359.453C486.717,359.592 486.477,359.661 486.167,359.661L480.391,359.661Z" style="fill:white;fill-rule:nonzero;"/>
                <path d="M403.263,378.328C402.954,378.328 402.711,378.242 402.535,378.072C402.359,377.901 402.271,377.661 402.271,377.352L402.271,368.024C402.271,367.714 402.359,367.474 402.535,367.304C402.711,367.133 402.954,367.048 403.263,367.048L406.431,367.048C408.277,367.048 409.709,367.541 410.727,368.528C411.746,369.514 412.255,370.898 412.255,372.68C412.255,374.472 411.746,375.861 410.727,376.848C409.709,377.834 408.277,378.328 406.431,378.328L403.263,378.328ZM406.303,376.648C408.895,376.648 410.191,375.325 410.191,372.68C410.191,370.045 408.895,368.728 406.303,368.728L404.335,368.728L404.335,376.648L406.303,376.648Z" style="fill:white;fill-rule:nonzero;"/>
                <path d="M424.271,377.096C424.335,377.234 424.367,377.373 424.367,377.512C424.367,377.757 424.269,377.965 424.071,378.136C423.874,378.306 423.647,378.392 423.391,378.392C423.221,378.392 423.061,378.346 422.911,378.256C422.762,378.165 422.645,378.024 422.559,377.832L421.599,375.688L415.967,375.688L415.007,377.832C414.922,378.024 414.805,378.165 414.655,378.256C414.506,378.346 414.341,378.392 414.159,378.392C413.914,378.392 413.69,378.306 413.487,378.136C413.285,377.965 413.183,377.757 413.183,377.512C413.183,377.373 413.215,377.234 413.279,377.096L417.695,367.608C417.791,367.394 417.938,367.232 418.135,367.12C418.333,367.008 418.543,366.952 418.767,366.952C418.991,366.952 419.202,367.008 419.399,367.12C419.597,367.232 419.743,367.394 419.839,367.608L424.271,377.096ZM416.671,374.088L420.895,374.088L418.783,369.336L416.671,374.088Z" style="fill:white;fill-rule:nonzero;"/>
                <path d="M428.223,378.408C427.903,378.408 427.65,378.314 427.463,378.128C427.277,377.941 427.183,377.693 427.183,377.384L427.183,368.744L424.271,368.744C423.631,368.744 423.311,368.461 423.311,367.896C423.311,367.33 423.631,367.048 424.271,367.048L432.159,367.048C432.799,367.048 433.119,367.33 433.119,367.896C433.119,368.461 432.799,368.744 432.159,368.744L429.247,368.744L429.247,377.384C429.247,377.693 429.154,377.941 428.967,378.128C428.781,378.314 428.533,378.408 428.223,378.408Z" style="fill:white;fill-rule:nonzero;"/>
                <path d="M443.167,377.096C443.231,377.234 443.263,377.373 443.263,377.512C443.263,377.757 443.165,377.965 442.967,378.136C442.77,378.306 442.543,378.392 442.287,378.392C442.117,378.392 441.957,378.346 441.807,378.256C441.658,378.165 441.541,378.024 441.455,377.832L440.495,375.688L434.863,375.688L433.903,377.832C433.818,378.024 433.701,378.165 433.551,378.256C433.402,378.346 433.237,378.392 433.055,378.392C432.81,378.392 432.586,378.306 432.383,378.136C432.181,377.965 432.079,377.757 432.079,377.512C432.079,377.373 432.111,377.234 432.175,377.096L436.591,367.608C436.687,367.394 436.834,367.232 437.031,367.12C437.229,367.008 437.439,366.952 437.663,366.952C437.887,366.952 438.098,367.008 438.295,367.12C438.493,367.232 438.639,367.394 438.735,367.608L443.167,377.096ZM435.567,374.088L439.791,374.088L437.679,369.336L435.567,374.088Z" style="fill:white;fill-rule:nonzero;"/>
            </g>
            <g transform="matrix(1,0,0,1,281.586,146.187)">
                <path d="M394.719,359.805C393.898,359.805 393.122,359.696 392.391,359.477C391.661,359.258 391.066,358.962 390.607,358.589C390.362,358.408 390.239,358.152 390.239,357.821C390.239,357.597 390.306,357.402 390.439,357.237C390.573,357.072 390.73,356.989 390.911,356.989C391.103,356.989 391.322,357.064 391.567,357.213C392.026,357.544 392.506,357.784 393.007,357.933C393.509,358.082 394.063,358.157 394.671,358.157C395.45,358.157 396.047,358.021 396.463,357.749C396.879,357.477 397.087,357.08 397.087,356.557C397.087,356.152 396.893,355.84 396.503,355.621C396.114,355.402 395.466,355.192 394.559,354.989C393.621,354.786 392.858,354.552 392.271,354.285C391.685,354.018 391.242,353.677 390.943,353.261C390.645,352.845 390.495,352.317 390.495,351.677C390.495,351.016 390.682,350.424 391.055,349.901C391.429,349.378 391.949,348.97 392.615,348.677C393.282,348.384 394.031,348.237 394.863,348.237C396.389,348.237 397.631,348.642 398.591,349.453C398.73,349.57 398.829,349.685 398.887,349.797C398.946,349.909 398.975,350.05 398.975,350.221C398.975,350.445 398.909,350.64 398.775,350.805C398.642,350.97 398.485,351.053 398.303,351.053C398.197,351.053 398.098,351.037 398.007,351.005C397.917,350.973 397.797,350.914 397.647,350.829C397.21,350.509 396.786,350.272 396.375,350.117C395.965,349.962 395.461,349.885 394.863,349.885C394.138,349.885 393.565,350.032 393.143,350.325C392.722,350.618 392.511,351.026 392.511,351.549C392.511,351.986 392.698,352.322 393.071,352.557C393.445,352.792 394.079,353.01 394.975,353.213C395.925,353.426 396.695,353.664 397.287,353.925C397.879,354.186 398.333,354.52 398.647,354.925C398.962,355.33 399.119,355.837 399.119,356.445C399.119,357.106 398.935,357.69 398.567,358.197C398.199,358.704 397.682,359.098 397.015,359.381C396.349,359.664 395.583,359.805 394.719,359.805Z" style="fill:white;fill-rule:nonzero;"/>
                <path d="M404.479,359.741C404.159,359.741 403.906,359.648 403.719,359.461C403.533,359.274 403.439,359.026 403.439,358.717L403.439,350.077L400.527,350.077C399.887,350.077 399.567,349.794 399.567,349.229C399.567,348.664 399.887,348.381 400.527,348.381L408.415,348.381C409.055,348.381 409.375,348.664 409.375,349.229C409.375,349.794 409.055,350.077 408.415,350.077L405.503,350.077L405.503,358.717C405.503,359.026 405.41,359.274 405.223,359.461C405.037,359.648 404.789,359.741 404.479,359.741Z" style="fill:white;fill-rule:nonzero;"/>
                <path d="M419.615,358.365C419.743,358.557 419.807,358.744 419.807,358.925C419.807,359.17 419.709,359.373 419.511,359.533C419.314,359.693 419.082,359.773 418.815,359.773C418.645,359.773 418.482,359.733 418.327,359.653C418.173,359.573 418.042,359.453 417.935,359.293L415.807,356.061C415.594,355.72 415.367,355.48 415.127,355.341C414.887,355.202 414.575,355.133 414.191,355.133L412.623,355.133L412.623,358.717C412.623,359.037 412.533,359.29 412.351,359.477C412.17,359.664 411.925,359.757 411.615,359.757C411.306,359.757 411.058,359.664 410.871,359.477C410.685,359.29 410.591,359.037 410.591,358.717L410.591,349.357C410.591,349.048 410.679,348.808 410.855,348.637C411.031,348.466 411.274,348.381 411.583,348.381L415.583,348.381C416.863,348.381 417.837,348.666 418.503,349.237C419.17,349.808 419.503,350.632 419.503,351.709C419.503,352.584 419.255,353.301 418.759,353.861C418.263,354.421 417.562,354.781 416.655,354.941C416.965,355.016 417.237,355.149 417.471,355.341C417.706,355.533 417.935,355.8 418.159,356.141L419.615,358.365ZM415.295,353.549C416.074,353.549 416.645,353.402 417.007,353.109C417.37,352.816 417.551,352.365 417.551,351.757C417.551,351.138 417.37,350.688 417.007,350.405C416.645,350.122 416.074,349.981 415.295,349.981L412.607,349.981L412.607,353.549L415.295,353.549Z" style="fill:white;fill-rule:nonzero;"/>
                <path d="M422.703,359.661C422.394,359.661 422.151,359.576 421.975,359.405C421.799,359.234 421.711,358.994 421.711,358.685L421.711,349.357C421.711,349.048 421.799,348.808 421.975,348.637C422.151,348.466 422.394,348.381 422.703,348.381L428.479,348.381C428.789,348.381 429.029,348.45 429.199,348.589C429.37,348.728 429.455,348.925 429.455,349.181C429.455,349.448 429.37,349.653 429.199,349.797C429.029,349.941 428.789,350.013 428.479,350.013L423.727,350.013L423.727,353.117L428.159,353.117C428.469,353.117 428.709,353.186 428.879,353.325C429.05,353.464 429.135,353.666 429.135,353.933C429.135,354.189 429.05,354.386 428.879,354.525C428.709,354.664 428.469,354.733 428.159,354.733L423.727,354.733L423.727,358.029L428.479,358.029C428.789,358.029 429.029,358.101 429.199,358.245C429.37,358.389 429.455,358.594 429.455,358.861C429.455,359.117 429.37,359.314 429.199,359.453C429.029,359.592 428.789,359.661 428.479,359.661L422.703,359.661Z" style="fill:white;fill-rule:nonzero;"/>
                <path d="M441.167,358.429C441.231,358.568 441.263,358.706 441.263,358.845C441.263,359.09 441.165,359.298 440.967,359.469C440.77,359.64 440.543,359.725 440.287,359.725C440.117,359.725 439.957,359.68 439.807,359.589C439.658,359.498 439.541,359.357 439.455,359.165L438.495,357.021L432.863,357.021L431.903,359.165C431.818,359.357 431.701,359.498 431.551,359.589C431.402,359.68 431.237,359.725 431.055,359.725C430.81,359.725 430.586,359.64 430.383,359.469C430.181,359.298 430.079,359.09 430.079,358.845C430.079,358.706 430.111,358.568 430.175,358.429L434.591,348.941C434.687,348.728 434.834,348.565 435.031,348.453C435.229,348.341 435.439,348.285 435.663,348.285C435.887,348.285 436.098,348.341 436.295,348.453C436.493,348.565 436.639,348.728 436.735,348.941L441.167,358.429ZM433.567,355.421L437.791,355.421L435.679,350.669L433.567,355.421Z" style="fill:white;fill-rule:nonzero;"/>
                <path d="M452.831,348.301C453.13,348.301 453.37,348.394 453.551,348.581C453.733,348.768 453.823,349.016 453.823,349.325L453.823,358.797C453.823,359.096 453.738,359.33 453.567,359.501C453.397,359.672 453.173,359.757 452.895,359.757C452.618,359.757 452.399,359.672 452.239,359.501C452.079,359.33 451.999,359.096 451.999,358.797L451.999,352.205L449.279,357.357C449.151,357.592 449.013,357.765 448.863,357.877C448.714,357.989 448.538,358.045 448.335,358.045C448.133,358.045 447.957,357.992 447.807,357.885C447.658,357.778 447.519,357.602 447.391,357.357L444.655,352.285L444.655,358.797C444.655,359.085 444.573,359.317 444.407,359.493C444.242,359.669 444.021,359.757 443.743,359.757C443.466,359.757 443.247,359.672 443.087,359.501C442.927,359.33 442.847,359.096 442.847,358.797L442.847,349.325C442.847,349.016 442.935,348.768 443.111,348.581C443.287,348.394 443.525,348.301 443.823,348.301C444.239,348.301 444.565,348.53 444.799,348.989L448.351,355.757L451.887,348.989C452.122,348.53 452.437,348.301 452.831,348.301Z" style="fill:white;fill-rule:nonzero;"/>
                <path d="M389.759,377.096C389.823,377.234 389.855,377.373 389.855,377.512C389.855,377.757 389.757,377.965 389.559,378.136C389.362,378.306 389.135,378.392 388.879,378.392C388.709,378.392 388.549,378.346 388.399,378.256C388.25,378.165 388.133,378.024 388.047,377.832L387.087,375.688L381.455,375.688L380.495,377.832C380.41,378.024 380.293,378.165 380.143,378.256C379.994,378.346 379.829,378.392 379.647,378.392C379.402,378.392 379.178,378.306 378.975,378.136C378.773,377.965 378.671,377.757 378.671,377.512C378.671,377.373 378.703,377.234 378.767,377.096L383.183,367.608C383.279,367.394 383.426,367.232 383.623,367.12C383.821,367.008 384.031,366.952 384.255,366.952C384.479,366.952 384.69,367.008 384.887,367.12C385.085,367.232 385.231,367.394 385.327,367.608L389.759,377.096ZM382.159,374.088L386.383,374.088L384.271,369.336L382.159,374.088Z" style="fill:white;fill-rule:nonzero;"/>
                <path d="M399.951,366.968C400.25,366.968 400.487,367.061 400.663,367.248C400.839,367.434 400.927,367.682 400.927,367.992L400.927,377.384C400.927,377.693 400.837,377.944 400.655,378.136C400.474,378.328 400.239,378.424 399.951,378.424C399.61,378.424 399.349,378.301 399.167,378.056L393.327,370.456L393.327,377.384C393.327,377.693 393.242,377.944 393.071,378.136C392.901,378.328 392.666,378.424 392.367,378.424C392.069,378.424 391.834,378.328 391.663,378.136C391.493,377.944 391.407,377.693 391.407,377.384L391.407,367.992C391.407,367.682 391.498,367.434 391.679,367.248C391.861,367.061 392.101,366.968 392.399,366.968C392.73,366.968 392.986,367.09 393.167,367.336L398.991,374.904L398.991,367.992C398.991,367.682 399.079,367.434 399.255,367.248C399.431,367.061 399.663,366.968 399.951,366.968Z" style="fill:white;fill-rule:nonzero;"/>
                <path d="M413.583,377.096C413.647,377.234 413.679,377.373 413.679,377.512C413.679,377.757 413.581,377.965 413.383,378.136C413.186,378.306 412.959,378.392 412.703,378.392C412.533,378.392 412.373,378.346 412.223,378.256C412.074,378.165 411.957,378.024 411.871,377.832L410.911,375.688L405.279,375.688L404.319,377.832C404.234,378.024 404.117,378.165 403.967,378.256C403.818,378.346 403.653,378.392 403.471,378.392C403.226,378.392 403.002,378.306 402.799,378.136C402.597,377.965 402.495,377.757 402.495,377.512C402.495,377.373 402.527,377.234 402.591,377.096L407.007,367.608C407.103,367.394 407.25,367.232 407.447,367.12C407.645,367.008 407.855,366.952 408.079,366.952C408.303,366.952 408.514,367.008 408.711,367.12C408.909,367.232 409.055,367.394 409.151,367.608L413.583,377.096ZM405.983,374.088L410.207,374.088L408.095,369.336L405.983,374.088Z" style="fill:white;fill-rule:nonzero;"/>
                <path d="M416.207,378.328C415.898,378.328 415.658,378.242 415.487,378.072C415.317,377.901 415.231,377.666 415.231,377.368L415.231,367.992C415.231,367.682 415.325,367.434 415.511,367.248C415.698,367.061 415.946,366.968 416.255,366.968C416.575,366.968 416.829,367.061 417.015,367.248C417.202,367.434 417.295,367.682 417.295,367.992L417.295,376.632L421.791,376.632C422.431,376.632 422.751,376.914 422.751,377.48C422.751,378.045 422.431,378.328 421.791,378.328L416.207,378.328Z" style="fill:white;fill-rule:nonzero;"/>
                <path d="M429.183,367.32C429.375,367.085 429.605,366.968 429.871,366.968C430.117,366.968 430.335,367.061 430.527,367.248C430.719,367.434 430.815,367.656 430.815,367.912C430.815,368.125 430.735,368.328 430.575,368.52L426.943,372.952L426.943,377.384C426.943,377.714 426.847,377.97 426.655,378.152C426.463,378.333 426.218,378.424 425.919,378.424C425.61,378.424 425.359,378.333 425.167,378.152C424.975,377.97 424.879,377.714 424.879,377.384L424.879,372.952L421.247,368.52C421.087,368.328 421.007,368.125 421.007,367.912C421.007,367.656 421.103,367.434 421.295,367.248C421.487,367.061 421.706,366.968 421.951,366.968C422.218,366.968 422.447,367.085 422.639,367.32L425.919,371.384L429.183,367.32Z" style="fill:white;fill-rule:nonzero;"/>
                <path d="M436.095,378.408C435.775,378.408 435.522,378.314 435.335,378.128C435.149,377.941 435.055,377.693 435.055,377.384L435.055,368.744L432.143,368.744C431.503,368.744 431.183,368.461 431.183,367.896C431.183,367.33 431.503,367.048 432.143,367.048L440.031,367.048C440.671,367.048 440.991,367.33 440.991,367.896C440.991,368.461 440.671,368.744 440.031,368.744L437.119,368.744L437.119,377.384C437.119,377.693 437.026,377.941 436.839,378.128C436.653,378.314 436.405,378.408 436.095,378.408Z" style="fill:white;fill-rule:nonzero;"/>
                <path d="M443.231,378.424C442.922,378.424 442.674,378.328 442.487,378.136C442.301,377.944 442.207,377.693 442.207,377.384L442.207,367.992C442.207,367.682 442.301,367.434 442.487,367.248C442.674,367.061 442.922,366.968 443.231,366.968C443.551,366.968 443.805,367.061 443.991,367.248C444.178,367.434 444.271,367.682 444.271,367.992L444.271,377.384C444.271,377.693 444.178,377.944 443.991,378.136C443.805,378.328 443.551,378.424 443.231,378.424Z" style="fill:white;fill-rule:nonzero;"/>
                <path d="M451.743,378.472C450.655,378.472 449.703,378.237 448.887,377.768C448.071,377.298 447.445,376.626 447.007,375.752C446.57,374.877 446.351,373.853 446.351,372.68C446.351,371.506 446.57,370.485 447.007,369.616C447.445,368.746 448.071,368.077 448.887,367.608C449.703,367.138 450.655,366.904 451.743,366.904C452.447,366.904 453.109,367.008 453.727,367.216C454.346,367.424 454.895,367.725 455.375,368.12C455.514,368.226 455.61,368.338 455.663,368.456C455.717,368.573 455.743,368.717 455.743,368.888C455.743,369.122 455.679,369.32 455.551,369.48C455.423,369.64 455.269,369.72 455.087,369.72C454.874,369.72 454.655,369.645 454.431,369.496C453.973,369.154 453.546,368.917 453.151,368.784C452.757,368.65 452.319,368.584 451.839,368.584C450.73,368.584 449.89,368.93 449.319,369.624C448.749,370.317 448.463,371.336 448.463,372.68C448.463,374.034 448.749,375.058 449.319,375.752C449.89,376.445 450.73,376.792 451.839,376.792C452.298,376.792 452.722,376.722 453.111,376.584C453.501,376.445 453.941,376.21 454.431,375.88C454.538,375.816 454.645,375.762 454.751,375.72C454.858,375.677 454.97,375.656 455.087,375.656C455.269,375.656 455.423,375.736 455.551,375.896C455.679,376.056 455.743,376.253 455.743,376.488C455.743,376.648 455.717,376.789 455.663,376.912C455.61,377.034 455.514,377.149 455.375,377.256C454.895,377.65 454.346,377.952 453.727,378.16C453.109,378.368 452.447,378.472 451.743,378.472Z" style="fill:white;fill-rule:nonzero;"/>
                <path d="M461.247,378.472C460.426,378.472 459.65,378.362 458.919,378.144C458.189,377.925 457.594,377.629 457.135,377.256C456.89,377.074 456.767,376.818 456.767,376.488C456.767,376.264 456.834,376.069 456.967,375.904C457.101,375.738 457.258,375.656 457.439,375.656C457.631,375.656 457.85,375.73 458.095,375.88C458.554,376.21 459.034,376.45 459.535,376.6C460.037,376.749 460.591,376.824 461.199,376.824C461.978,376.824 462.575,376.688 462.991,376.416C463.407,376.144 463.615,375.746 463.615,375.224C463.615,374.818 463.421,374.506 463.031,374.288C462.642,374.069 461.994,373.858 461.087,373.656C460.149,373.453 459.386,373.218 458.799,372.952C458.213,372.685 457.77,372.344 457.471,371.928C457.173,371.512 457.023,370.984 457.023,370.344C457.023,369.682 457.21,369.09 457.583,368.568C457.957,368.045 458.477,367.637 459.143,367.344C459.81,367.05 460.559,366.904 461.391,366.904C462.917,366.904 464.159,367.309 465.119,368.12C465.258,368.237 465.357,368.352 465.415,368.464C465.474,368.576 465.503,368.717 465.503,368.888C465.503,369.112 465.437,369.306 465.303,369.472C465.17,369.637 465.013,369.72 464.831,369.72C464.725,369.72 464.626,369.704 464.535,369.672C464.445,369.64 464.325,369.581 464.175,369.496C463.738,369.176 463.314,368.938 462.903,368.784C462.493,368.629 461.989,368.552 461.391,368.552C460.666,368.552 460.093,368.698 459.671,368.992C459.25,369.285 459.039,369.693 459.039,370.216C459.039,370.653 459.226,370.989 459.599,371.224C459.973,371.458 460.607,371.677 461.503,371.88C462.453,372.093 463.223,372.33 463.815,372.592C464.407,372.853 464.861,373.186 465.175,373.592C465.49,373.997 465.647,374.504 465.647,375.112C465.647,375.773 465.463,376.357 465.095,376.864C464.727,377.37 464.21,377.765 463.543,378.048C462.877,378.33 462.111,378.472 461.247,378.472Z" style="fill:white;fill-rule:nonzero;"/>
            </g>
            <g transform="matrix(1,0,0,1,139.201,230.355)">
                <path d="M406.959,359.805C405.413,359.805 404.239,359.405 403.439,358.605C402.639,357.805 402.239,356.637 402.239,355.101L402.239,349.325C402.239,349.016 402.33,348.768 402.511,348.581C402.693,348.394 402.938,348.301 403.247,348.301C403.557,348.301 403.802,348.394 403.983,348.581C404.165,348.768 404.255,349.016 404.255,349.325L404.255,355.213C404.255,356.184 404.485,356.917 404.943,357.413C405.402,357.909 406.074,358.157 406.959,358.157C407.834,358.157 408.501,357.906 408.959,357.405C409.418,356.904 409.647,356.173 409.647,355.213L409.647,349.325C409.647,349.016 409.738,348.768 409.919,348.581C410.101,348.394 410.346,348.301 410.655,348.301C410.965,348.301 411.21,348.394 411.391,348.581C411.573,348.768 411.663,349.016 411.663,349.325L411.663,355.101C411.663,356.626 411.263,357.792 410.463,358.597C409.663,359.402 408.495,359.805 406.959,359.805Z" style="fill:white;fill-rule:nonzero;"/>
                <path d="M417.935,359.805C417.114,359.805 416.338,359.696 415.607,359.477C414.877,359.258 414.282,358.962 413.823,358.589C413.578,358.408 413.455,358.152 413.455,357.821C413.455,357.597 413.522,357.402 413.655,357.237C413.789,357.072 413.946,356.989 414.127,356.989C414.319,356.989 414.538,357.064 414.783,357.213C415.242,357.544 415.722,357.784 416.223,357.933C416.725,358.082 417.279,358.157 417.887,358.157C418.666,358.157 419.263,358.021 419.679,357.749C420.095,357.477 420.303,357.08 420.303,356.557C420.303,356.152 420.109,355.84 419.719,355.621C419.33,355.402 418.682,355.192 417.775,354.989C416.837,354.786 416.074,354.552 415.487,354.285C414.901,354.018 414.458,353.677 414.159,353.261C413.861,352.845 413.711,352.317 413.711,351.677C413.711,351.016 413.898,350.424 414.271,349.901C414.645,349.378 415.165,348.97 415.831,348.677C416.498,348.384 417.247,348.237 418.079,348.237C419.605,348.237 420.847,348.642 421.807,349.453C421.946,349.57 422.045,349.685 422.103,349.797C422.162,349.909 422.191,350.05 422.191,350.221C422.191,350.445 422.125,350.64 421.991,350.805C421.858,350.97 421.701,351.053 421.519,351.053C421.413,351.053 421.314,351.037 421.223,351.005C421.133,350.973 421.013,350.914 420.863,350.829C420.426,350.509 420.002,350.272 419.591,350.117C419.181,349.962 418.677,349.885 418.079,349.885C417.354,349.885 416.781,350.032 416.359,350.325C415.938,350.618 415.727,351.026 415.727,351.549C415.727,351.986 415.914,352.322 416.287,352.557C416.661,352.792 417.295,353.01 418.191,353.213C419.141,353.426 419.911,353.664 420.503,353.925C421.095,354.186 421.549,354.52 421.863,354.925C422.178,355.33 422.335,355.837 422.335,356.445C422.335,357.106 422.151,357.69 421.783,358.197C421.415,358.704 420.898,359.098 420.231,359.381C419.565,359.664 418.799,359.805 417.935,359.805Z" style="fill:white;fill-rule:nonzero;"/>
                <path d="M425.231,359.661C424.922,359.661 424.679,359.576 424.503,359.405C424.327,359.234 424.239,358.994 424.239,358.685L424.239,349.357C424.239,349.048 424.327,348.808 424.503,348.637C424.679,348.466 424.922,348.381 425.231,348.381L431.007,348.381C431.317,348.381 431.557,348.45 431.727,348.589C431.898,348.728 431.983,348.925 431.983,349.181C431.983,349.448 431.898,349.653 431.727,349.797C431.557,349.941 431.317,350.013 431.007,350.013L426.255,350.013L426.255,353.117L430.687,353.117C430.997,353.117 431.237,353.186 431.407,353.325C431.578,353.464 431.663,353.666 431.663,353.933C431.663,354.189 431.578,354.386 431.407,354.525C431.237,354.664 430.997,354.733 430.687,354.733L426.255,354.733L426.255,358.029L431.007,358.029C431.317,358.029 431.557,358.101 431.727,358.245C431.898,358.389 431.983,358.594 431.983,358.861C431.983,359.117 431.898,359.314 431.727,359.453C431.557,359.592 431.317,359.661 431.007,359.661L425.231,359.661Z" style="fill:white;fill-rule:nonzero;"/>
                <path d="M442.687,358.365C442.815,358.557 442.879,358.744 442.879,358.925C442.879,359.17 442.781,359.373 442.583,359.533C442.386,359.693 442.154,359.773 441.887,359.773C441.717,359.773 441.554,359.733 441.399,359.653C441.245,359.573 441.114,359.453 441.007,359.293L438.879,356.061C438.666,355.72 438.439,355.48 438.199,355.341C437.959,355.202 437.647,355.133 437.263,355.133L435.695,355.133L435.695,358.717C435.695,359.037 435.605,359.29 435.423,359.477C435.242,359.664 434.997,359.757 434.687,359.757C434.378,359.757 434.13,359.664 433.943,359.477C433.757,359.29 433.663,359.037 433.663,358.717L433.663,349.357C433.663,349.048 433.751,348.808 433.927,348.637C434.103,348.466 434.346,348.381 434.655,348.381L438.655,348.381C439.935,348.381 440.909,348.666 441.575,349.237C442.242,349.808 442.575,350.632 442.575,351.709C442.575,352.584 442.327,353.301 441.831,353.861C441.335,354.421 440.634,354.781 439.727,354.941C440.037,355.016 440.309,355.149 440.543,355.341C440.778,355.533 441.007,355.8 441.231,356.141L442.687,358.365ZM438.367,353.549C439.146,353.549 439.717,353.402 440.079,353.109C440.442,352.816 440.623,352.365 440.623,351.757C440.623,351.138 440.442,350.688 440.079,350.405C439.717,350.122 439.146,349.981 438.367,349.981L435.679,349.981L435.679,353.549L438.367,353.549Z" style="fill:white;fill-rule:nonzero;"/>
                <path d="M389.759,377.096C389.823,377.234 389.855,377.373 389.855,377.512C389.855,377.757 389.757,377.965 389.559,378.136C389.362,378.306 389.135,378.392 388.879,378.392C388.709,378.392 388.549,378.346 388.399,378.256C388.25,378.165 388.133,378.024 388.047,377.832L387.087,375.688L381.455,375.688L380.495,377.832C380.41,378.024 380.293,378.165 380.143,378.256C379.994,378.346 379.829,378.392 379.647,378.392C379.402,378.392 379.178,378.306 378.975,378.136C378.773,377.965 378.671,377.757 378.671,377.512C378.671,377.373 378.703,377.234 378.767,377.096L383.183,367.608C383.279,367.394 383.426,367.232 383.623,367.12C383.821,367.008 384.031,366.952 384.255,366.952C384.479,366.952 384.69,367.008 384.887,367.12C385.085,367.232 385.231,367.394 385.327,367.608L389.759,377.096ZM382.159,374.088L386.383,374.088L384.271,369.336L382.159,374.088Z" style="fill:white;fill-rule:nonzero;"/>
                <path d="M399.951,366.968C400.25,366.968 400.487,367.061 400.663,367.248C400.839,367.434 400.927,367.682 400.927,367.992L400.927,377.384C400.927,377.693 400.837,377.944 400.655,378.136C400.474,378.328 400.239,378.424 399.951,378.424C399.61,378.424 399.349,378.301 399.167,378.056L393.327,370.456L393.327,377.384C393.327,377.693 393.242,377.944 393.071,378.136C392.901,378.328 392.666,378.424 392.367,378.424C392.069,378.424 391.834,378.328 391.663,378.136C391.493,377.944 391.407,377.693 391.407,377.384L391.407,367.992C391.407,367.682 391.498,367.434 391.679,367.248C391.861,367.061 392.101,366.968 392.399,366.968C392.73,366.968 392.986,367.09 393.167,367.336L398.991,374.904L398.991,367.992C398.991,367.682 399.079,367.434 399.255,367.248C399.431,367.061 399.663,366.968 399.951,366.968Z" style="fill:white;fill-rule:nonzero;"/>
                <path d="M413.583,377.096C413.647,377.234 413.679,377.373 413.679,377.512C413.679,377.757 413.581,377.965 413.383,378.136C413.186,378.306 412.959,378.392 412.703,378.392C412.533,378.392 412.373,378.346 412.223,378.256C412.074,378.165 411.957,378.024 411.871,377.832L410.911,375.688L405.279,375.688L404.319,377.832C404.234,378.024 404.117,378.165 403.967,378.256C403.818,378.346 403.653,378.392 403.471,378.392C403.226,378.392 403.002,378.306 402.799,378.136C402.597,377.965 402.495,377.757 402.495,377.512C402.495,377.373 402.527,377.234 402.591,377.096L407.007,367.608C407.103,367.394 407.25,367.232 407.447,367.12C407.645,367.008 407.855,366.952 408.079,366.952C408.303,366.952 408.514,367.008 408.711,367.12C408.909,367.232 409.055,367.394 409.151,367.608L413.583,377.096ZM405.983,374.088L410.207,374.088L408.095,369.336L405.983,374.088Z" style="fill:white;fill-rule:nonzero;"/>
                <path d="M416.207,378.328C415.898,378.328 415.658,378.242 415.487,378.072C415.317,377.901 415.231,377.666 415.231,377.368L415.231,367.992C415.231,367.682 415.325,367.434 415.511,367.248C415.698,367.061 415.946,366.968 416.255,366.968C416.575,366.968 416.829,367.061 417.015,367.248C417.202,367.434 417.295,367.682 417.295,367.992L417.295,376.632L421.791,376.632C422.431,376.632 422.751,376.914 422.751,377.48C422.751,378.045 422.431,378.328 421.791,378.328L416.207,378.328Z" style="fill:white;fill-rule:nonzero;"/>
                <path d="M429.183,367.32C429.375,367.085 429.605,366.968 429.871,366.968C430.117,366.968 430.335,367.061 430.527,367.248C430.719,367.434 430.815,367.656 430.815,367.912C430.815,368.125 430.735,368.328 430.575,368.52L426.943,372.952L426.943,377.384C426.943,377.714 426.847,377.97 426.655,378.152C426.463,378.333 426.218,378.424 425.919,378.424C425.61,378.424 425.359,378.333 425.167,378.152C424.975,377.97 424.879,377.714 424.879,377.384L424.879,372.952L421.247,368.52C421.087,368.328 421.007,368.125 421.007,367.912C421.007,367.656 421.103,367.434 421.295,367.248C421.487,367.061 421.706,366.968 421.951,366.968C422.218,366.968 422.447,367.085 422.639,367.32L425.919,371.384L429.183,367.32Z" style="fill:white;fill-rule:nonzero;"/>
                <path d="M436.095,378.408C435.775,378.408 435.522,378.314 435.335,378.128C435.149,377.941 435.055,377.693 435.055,377.384L435.055,368.744L432.143,368.744C431.503,368.744 431.183,368.461 431.183,367.896C431.183,367.33 431.503,367.048 432.143,367.048L440.031,367.048C440.671,367.048 440.991,367.33 440.991,367.896C440.991,368.461 440.671,368.744 440.031,368.744L437.119,368.744L437.119,377.384C437.119,377.693 437.026,377.941 436.839,378.128C436.653,378.314 436.405,378.408 436.095,378.408Z" style="fill:white;fill-rule:nonzero;"/>
                <path d="M443.231,378.424C442.922,378.424 442.674,378.328 442.487,378.136C442.301,377.944 442.207,377.693 442.207,377.384L442.207,367.992C442.207,367.682 442.301,367.434 442.487,367.248C442.674,367.061 442.922,366.968 443.231,366.968C443.551,366.968 443.805,367.061 443.991,367.248C444.178,367.434 444.271,367.682 444.271,367.992L444.271,377.384C444.271,377.693 444.178,377.944 443.991,378.136C443.805,378.328 443.551,378.424 443.231,378.424Z" style="fill:white;fill-rule:nonzero;"/>
                <path d="M451.743,378.472C450.655,378.472 449.703,378.237 448.887,377.768C448.071,377.298 447.445,376.626 447.007,375.752C446.57,374.877 446.351,373.853 446.351,372.68C446.351,371.506 446.57,370.485 447.007,369.616C447.445,368.746 448.071,368.077 448.887,367.608C449.703,367.138 450.655,366.904 451.743,366.904C452.447,366.904 453.109,367.008 453.727,367.216C454.346,367.424 454.895,367.725 455.375,368.12C455.514,368.226 455.61,368.338 455.663,368.456C455.717,368.573 455.743,368.717 455.743,368.888C455.743,369.122 455.679,369.32 455.551,369.48C455.423,369.64 455.269,369.72 455.087,369.72C454.874,369.72 454.655,369.645 454.431,369.496C453.973,369.154 453.546,368.917 453.151,368.784C452.757,368.65 452.319,368.584 451.839,368.584C450.73,368.584 449.89,368.93 449.319,369.624C448.749,370.317 448.463,371.336 448.463,372.68C448.463,374.034 448.749,375.058 449.319,375.752C449.89,376.445 450.73,376.792 451.839,376.792C452.298,376.792 452.722,376.722 453.111,376.584C453.501,376.445 453.941,376.21 454.431,375.88C454.538,375.816 454.645,375.762 454.751,375.72C454.858,375.677 454.97,375.656 455.087,375.656C455.269,375.656 455.423,375.736 455.551,375.896C455.679,376.056 455.743,376.253 455.743,376.488C455.743,376.648 455.717,376.789 455.663,376.912C455.61,377.034 455.514,377.149 455.375,377.256C454.895,377.65 454.346,377.952 453.727,378.16C453.109,378.368 452.447,378.472 451.743,378.472Z" style="fill:white;fill-rule:nonzero;"/>
                <path d="M461.247,378.472C460.426,378.472 459.65,378.362 458.919,378.144C458.189,377.925 457.594,377.629 457.135,377.256C456.89,377.074 456.767,376.818 456.767,376.488C456.767,376.264 456.834,376.069 456.967,375.904C457.101,375.738 457.258,375.656 457.439,375.656C457.631,375.656 457.85,375.73 458.095,375.88C458.554,376.21 459.034,376.45 459.535,376.6C460.037,376.749 460.591,376.824 461.199,376.824C461.978,376.824 462.575,376.688 462.991,376.416C463.407,376.144 463.615,375.746 463.615,375.224C463.615,374.818 463.421,374.506 463.031,374.288C462.642,374.069 461.994,373.858 461.087,373.656C460.149,373.453 459.386,373.218 458.799,372.952C458.213,372.685 457.77,372.344 457.471,371.928C457.173,371.512 457.023,370.984 457.023,370.344C457.023,369.682 457.21,369.09 457.583,368.568C457.957,368.045 458.477,367.637 459.143,367.344C459.81,367.05 460.559,366.904 461.391,366.904C462.917,366.904 464.159,367.309 465.119,368.12C465.258,368.237 465.357,368.352 465.415,368.464C465.474,368.576 465.503,368.717 465.503,368.888C465.503,369.112 465.437,369.306 465.303,369.472C465.17,369.637 465.013,369.72 464.831,369.72C464.725,369.72 464.626,369.704 464.535,369.672C464.445,369.64 464.325,369.581 464.175,369.496C463.738,369.176 463.314,368.938 462.903,368.784C462.493,368.629 461.989,368.552 461.391,368.552C460.666,368.552 460.093,368.698 459.671,368.992C459.25,369.285 459.039,369.693 459.039,370.216C459.039,370.653 459.226,370.989 459.599,371.224C459.973,371.458 460.607,371.677 461.503,371.88C462.453,372.093 463.223,372.33 463.815,372.592C464.407,372.853 464.861,373.186 465.175,373.592C465.49,373.997 465.647,374.504 465.647,375.112C465.647,375.773 465.463,376.357 465.095,376.864C464.727,377.37 464.21,377.765 463.543,378.048C462.877,378.33 462.111,378.472 461.247,378.472Z" style="fill:white;fill-rule:nonzero;"/>
            </g>
            <g transform="matrix(1,0,0,1,-10.0276,146.187)">
                <path d="M390.711,348.829C390.882,348.466 391.165,348.285 391.559,348.285C391.826,348.285 392.066,348.37 392.279,348.541C392.493,348.712 392.599,348.925 392.599,349.181C392.599,349.298 392.567,349.432 392.503,349.581L388.071,359.117C387.975,359.32 387.829,359.477 387.631,359.589C387.434,359.701 387.223,359.757 386.999,359.757C386.775,359.757 386.565,359.701 386.367,359.589C386.17,359.477 386.023,359.32 385.927,359.117L381.511,349.581C381.447,349.432 381.415,349.304 381.415,349.197C381.415,348.93 381.525,348.712 381.743,348.541C381.962,348.37 382.21,348.285 382.487,348.285C382.669,348.285 382.837,348.33 382.991,348.421C383.146,348.512 383.266,348.648 383.351,348.829L387.031,357.005L390.711,348.829Z" style="fill:white;fill-rule:nonzero;"/>
                <path d="M394.951,359.757C394.642,359.757 394.394,359.661 394.207,359.469C394.021,359.277 393.927,359.026 393.927,358.717L393.927,349.325C393.927,349.016 394.021,348.768 394.207,348.581C394.394,348.394 394.642,348.301 394.951,348.301C395.271,348.301 395.525,348.394 395.711,348.581C395.898,348.768 395.991,349.016 395.991,349.325L395.991,358.717C395.991,359.026 395.898,359.277 395.711,359.469C395.525,359.661 395.271,359.757 394.951,359.757Z" style="fill:white;fill-rule:nonzero;"/>
                <path d="M402.327,359.805C401.506,359.805 400.73,359.696 399.999,359.477C399.269,359.258 398.674,358.962 398.215,358.589C397.97,358.408 397.847,358.152 397.847,357.821C397.847,357.597 397.914,357.402 398.047,357.237C398.181,357.072 398.338,356.989 398.519,356.989C398.711,356.989 398.93,357.064 399.175,357.213C399.634,357.544 400.114,357.784 400.615,357.933C401.117,358.082 401.671,358.157 402.279,358.157C403.058,358.157 403.655,358.021 404.071,357.749C404.487,357.477 404.695,357.08 404.695,356.557C404.695,356.152 404.501,355.84 404.111,355.621C403.722,355.402 403.074,355.192 402.167,354.989C401.229,354.786 400.466,354.552 399.879,354.285C399.293,354.018 398.85,353.677 398.551,353.261C398.253,352.845 398.103,352.317 398.103,351.677C398.103,351.016 398.29,350.424 398.663,349.901C399.037,349.378 399.557,348.97 400.223,348.677C400.89,348.384 401.639,348.237 402.471,348.237C403.997,348.237 405.239,348.642 406.199,349.453C406.338,349.57 406.437,349.685 406.495,349.797C406.554,349.909 406.583,350.05 406.583,350.221C406.583,350.445 406.517,350.64 406.383,350.805C406.25,350.97 406.093,351.053 405.911,351.053C405.805,351.053 405.706,351.037 405.615,351.005C405.525,350.973 405.405,350.914 405.255,350.829C404.818,350.509 404.394,350.272 403.983,350.117C403.573,349.962 403.069,349.885 402.471,349.885C401.746,349.885 401.173,350.032 400.751,350.325C400.33,350.618 400.119,351.026 400.119,351.549C400.119,351.986 400.306,352.322 400.679,352.557C401.053,352.792 401.687,353.01 402.583,353.213C403.533,353.426 404.303,353.664 404.895,353.925C405.487,354.186 405.941,354.52 406.255,354.925C406.57,355.33 406.727,355.837 406.727,356.445C406.727,357.106 406.543,357.69 406.175,358.197C405.807,358.704 405.29,359.098 404.623,359.381C403.957,359.664 403.191,359.805 402.327,359.805Z" style="fill:white;fill-rule:nonzero;"/>
                <path d="M413.287,359.805C411.741,359.805 410.567,359.405 409.767,358.605C408.967,357.805 408.567,356.637 408.567,355.101L408.567,349.325C408.567,349.016 408.658,348.768 408.839,348.581C409.021,348.394 409.266,348.301 409.575,348.301C409.885,348.301 410.13,348.394 410.311,348.581C410.493,348.768 410.583,349.016 410.583,349.325L410.583,355.213C410.583,356.184 410.813,356.917 411.271,357.413C411.73,357.909 412.402,358.157 413.287,358.157C414.162,358.157 414.829,357.906 415.287,357.405C415.746,356.904 415.975,356.173 415.975,355.213L415.975,349.325C415.975,349.016 416.066,348.768 416.247,348.581C416.429,348.394 416.674,348.301 416.983,348.301C417.293,348.301 417.538,348.394 417.719,348.581C417.901,348.768 417.991,349.016 417.991,349.325L417.991,355.101C417.991,356.626 417.591,357.792 416.791,358.597C415.991,359.402 414.823,359.805 413.287,359.805Z" style="fill:white;fill-rule:nonzero;"/>
                <path d="M430.503,358.429C430.567,358.568 430.599,358.706 430.599,358.845C430.599,359.09 430.501,359.298 430.303,359.469C430.106,359.64 429.879,359.725 429.623,359.725C429.453,359.725 429.293,359.68 429.143,359.589C428.994,359.498 428.877,359.357 428.791,359.165L427.831,357.021L422.199,357.021L421.239,359.165C421.154,359.357 421.037,359.498 420.887,359.589C420.738,359.68 420.573,359.725 420.391,359.725C420.146,359.725 419.922,359.64 419.719,359.469C419.517,359.298 419.415,359.09 419.415,358.845C419.415,358.706 419.447,358.568 419.511,358.429L423.927,348.941C424.023,348.728 424.17,348.565 424.367,348.453C424.565,348.341 424.775,348.285 424.999,348.285C425.223,348.285 425.434,348.341 425.631,348.453C425.829,348.565 425.975,348.728 426.071,348.941L430.503,358.429ZM422.903,355.421L427.127,355.421L425.015,350.669L422.903,355.421Z" style="fill:white;fill-rule:nonzero;"/>
                <path d="M433.127,359.661C432.818,359.661 432.578,359.576 432.407,359.405C432.237,359.234 432.151,359 432.151,358.701L432.151,349.325C432.151,349.016 432.245,348.768 432.431,348.581C432.618,348.394 432.866,348.301 433.175,348.301C433.495,348.301 433.749,348.394 433.935,348.581C434.122,348.768 434.215,349.016 434.215,349.325L434.215,357.965L438.711,357.965C439.351,357.965 439.671,358.248 439.671,358.813C439.671,359.378 439.351,359.661 438.711,359.661L433.127,359.661Z" style="fill:white;fill-rule:nonzero;"/>
                <path d="M442.055,359.757C441.746,359.757 441.498,359.661 441.311,359.469C441.125,359.277 441.031,359.026 441.031,358.717L441.031,349.325C441.031,349.016 441.125,348.768 441.311,348.581C441.498,348.394 441.746,348.301 442.055,348.301C442.375,348.301 442.629,348.394 442.815,348.581C443.002,348.768 443.095,349.016 443.095,349.325L443.095,358.717C443.095,359.026 443.002,359.277 442.815,359.469C442.629,359.661 442.375,359.757 442.055,359.757Z" style="fill:white;fill-rule:nonzero;"/>
                <path d="M452.615,358.013C453.255,358.013 453.575,358.285 453.575,358.829C453.575,359.384 453.255,359.661 452.615,359.661L445.799,359.661C445.522,359.661 445.301,359.578 445.135,359.413C444.97,359.248 444.887,359.037 444.887,358.781C444.887,358.525 444.973,358.28 445.143,358.045L450.871,350.029L445.863,350.029C445.223,350.029 444.903,349.757 444.903,349.213C444.903,348.658 445.223,348.381 445.863,348.381L452.471,348.381C452.749,348.381 452.97,348.464 453.135,348.629C453.301,348.794 453.383,349 453.383,349.245C453.383,349.49 453.293,349.736 453.111,349.981L447.383,358.013L452.615,358.013Z" style="fill:white;fill-rule:nonzero;"/>
                <path d="M456.151,359.661C455.842,359.661 455.599,359.576 455.423,359.405C455.247,359.234 455.159,358.994 455.159,358.685L455.159,349.357C455.159,349.048 455.247,348.808 455.423,348.637C455.599,348.466 455.842,348.381 456.151,348.381L461.927,348.381C462.237,348.381 462.477,348.45 462.647,348.589C462.818,348.728 462.903,348.925 462.903,349.181C462.903,349.448 462.818,349.653 462.647,349.797C462.477,349.941 462.237,350.013 461.927,350.013L457.175,350.013L457.175,353.117L461.607,353.117C461.917,353.117 462.157,353.186 462.327,353.325C462.498,353.464 462.583,353.666 462.583,353.933C462.583,354.189 462.498,354.386 462.327,354.525C462.157,354.664 461.917,354.733 461.607,354.733L457.175,354.733L457.175,358.029L461.927,358.029C462.237,358.029 462.477,358.101 462.647,358.245C462.818,358.389 462.903,358.594 462.903,358.861C462.903,359.117 462.818,359.314 462.647,359.453C462.477,359.592 462.237,359.661 461.927,359.661L456.151,359.661Z" style="fill:white;fill-rule:nonzero;"/>
                <path d="M368.831,378.328C368.522,378.328 368.279,378.242 368.103,378.072C367.927,377.901 367.839,377.661 367.839,377.352L367.839,368.024C367.839,367.714 367.927,367.474 368.103,367.304C368.279,367.133 368.522,367.048 368.831,367.048L371.999,367.048C373.845,367.048 375.277,367.541 376.295,368.528C377.314,369.514 377.823,370.898 377.823,372.68C377.823,374.472 377.314,375.861 376.295,376.848C375.277,377.834 373.845,378.328 371.999,378.328L368.831,378.328ZM371.871,376.648C374.463,376.648 375.759,375.325 375.759,372.68C375.759,370.045 374.463,368.728 371.871,368.728L369.903,368.728L369.903,376.648L371.871,376.648Z" style="fill:white;fill-rule:nonzero;"/>
                <path d="M386.271,367.32C386.463,367.085 386.693,366.968 386.959,366.968C387.205,366.968 387.423,367.061 387.615,367.248C387.807,367.434 387.903,367.656 387.903,367.912C387.903,368.125 387.823,368.328 387.663,368.52L384.031,372.952L384.031,377.384C384.031,377.714 383.935,377.97 383.743,378.152C383.551,378.333 383.306,378.424 383.007,378.424C382.698,378.424 382.447,378.333 382.255,378.152C382.063,377.97 381.967,377.714 381.967,377.384L381.967,372.952L378.335,368.52C378.175,368.328 378.095,368.125 378.095,367.912C378.095,367.656 378.191,367.434 378.383,367.248C378.575,367.061 378.794,366.968 379.039,366.968C379.306,366.968 379.535,367.085 379.727,367.32L383.007,371.384L386.271,367.32Z" style="fill:white;fill-rule:nonzero;"/>
                <path d="M397.743,366.968C398.042,366.968 398.279,367.061 398.455,367.248C398.631,367.434 398.719,367.682 398.719,367.992L398.719,377.384C398.719,377.693 398.629,377.944 398.447,378.136C398.266,378.328 398.031,378.424 397.743,378.424C397.402,378.424 397.141,378.301 396.959,378.056L391.119,370.456L391.119,377.384C391.119,377.693 391.034,377.944 390.863,378.136C390.693,378.328 390.458,378.424 390.159,378.424C389.861,378.424 389.626,378.328 389.455,378.136C389.285,377.944 389.199,377.693 389.199,377.384L389.199,367.992C389.199,367.682 389.29,367.434 389.471,367.248C389.653,367.061 389.893,366.968 390.191,366.968C390.522,366.968 390.778,367.09 390.959,367.336L396.783,374.904L396.783,367.992C396.783,367.682 396.871,367.434 397.047,367.248C397.223,367.061 397.455,366.968 397.743,366.968Z" style="fill:white;fill-rule:nonzero;"/>
                <path d="M411.375,377.096C411.439,377.234 411.471,377.373 411.471,377.512C411.471,377.757 411.373,377.965 411.175,378.136C410.978,378.306 410.751,378.392 410.495,378.392C410.325,378.392 410.165,378.346 410.015,378.256C409.866,378.165 409.749,378.024 409.663,377.832L408.703,375.688L403.071,375.688L402.111,377.832C402.026,378.024 401.909,378.165 401.759,378.256C401.61,378.346 401.445,378.392 401.263,378.392C401.018,378.392 400.794,378.306 400.591,378.136C400.389,377.965 400.287,377.757 400.287,377.512C400.287,377.373 400.319,377.234 400.383,377.096L404.799,367.608C404.895,367.394 405.042,367.232 405.239,367.12C405.437,367.008 405.647,366.952 405.871,366.952C406.095,366.952 406.306,367.008 406.503,367.12C406.701,367.232 406.847,367.394 406.943,367.608L411.375,377.096ZM403.775,374.088L407.999,374.088L405.887,369.336L403.775,374.088Z" style="fill:white;fill-rule:nonzero;"/>
                <path d="M423.039,366.968C423.338,366.968 423.578,367.061 423.759,367.248C423.941,367.434 424.031,367.682 424.031,367.992L424.031,377.464C424.031,377.762 423.946,377.997 423.775,378.168C423.605,378.338 423.381,378.424 423.103,378.424C422.826,378.424 422.607,378.338 422.447,378.168C422.287,377.997 422.207,377.762 422.207,377.464L422.207,370.872L419.487,376.024C419.359,376.258 419.221,376.432 419.071,376.544C418.922,376.656 418.746,376.712 418.543,376.712C418.341,376.712 418.165,376.658 418.015,376.552C417.866,376.445 417.727,376.269 417.599,376.024L414.863,370.952L414.863,377.464C414.863,377.752 414.781,377.984 414.615,378.16C414.45,378.336 414.229,378.424 413.951,378.424C413.674,378.424 413.455,378.338 413.295,378.168C413.135,377.997 413.055,377.762 413.055,377.464L413.055,367.992C413.055,367.682 413.143,367.434 413.319,367.248C413.495,367.061 413.733,366.968 414.031,366.968C414.447,366.968 414.773,367.197 415.007,367.656L418.559,374.424L422.095,367.656C422.33,367.197 422.645,366.968 423.039,366.968Z" style="fill:white;fill-rule:nonzero;"/>
                <path d="M427.503,378.424C427.194,378.424 426.946,378.328 426.759,378.136C426.573,377.944 426.479,377.693 426.479,377.384L426.479,367.992C426.479,367.682 426.573,367.434 426.759,367.248C426.946,367.061 427.194,366.968 427.503,366.968C427.823,366.968 428.077,367.061 428.263,367.248C428.45,367.434 428.543,367.682 428.543,367.992L428.543,377.384C428.543,377.693 428.45,377.944 428.263,378.136C428.077,378.328 427.823,378.424 427.503,378.424Z" style="fill:white;fill-rule:nonzero;"/>
                <path d="M436.015,378.472C434.927,378.472 433.975,378.237 433.159,377.768C432.343,377.298 431.717,376.626 431.279,375.752C430.842,374.877 430.623,373.853 430.623,372.68C430.623,371.506 430.842,370.485 431.279,369.616C431.717,368.746 432.343,368.077 433.159,367.608C433.975,367.138 434.927,366.904 436.015,366.904C436.719,366.904 437.381,367.008 437.999,367.216C438.618,367.424 439.167,367.725 439.647,368.12C439.786,368.226 439.882,368.338 439.935,368.456C439.989,368.573 440.015,368.717 440.015,368.888C440.015,369.122 439.951,369.32 439.823,369.48C439.695,369.64 439.541,369.72 439.359,369.72C439.146,369.72 438.927,369.645 438.703,369.496C438.245,369.154 437.818,368.917 437.423,368.784C437.029,368.65 436.591,368.584 436.111,368.584C435.002,368.584 434.162,368.93 433.591,369.624C433.021,370.317 432.735,371.336 432.735,372.68C432.735,374.034 433.021,375.058 433.591,375.752C434.162,376.445 435.002,376.792 436.111,376.792C436.57,376.792 436.994,376.722 437.383,376.584C437.773,376.445 438.213,376.21 438.703,375.88C438.81,375.816 438.917,375.762 439.023,375.72C439.13,375.677 439.242,375.656 439.359,375.656C439.541,375.656 439.695,375.736 439.823,375.896C439.951,376.056 440.015,376.253 440.015,376.488C440.015,376.648 439.989,376.789 439.935,376.912C439.882,377.034 439.786,377.149 439.647,377.256C439.167,377.65 438.618,377.952 437.999,378.16C437.381,378.368 436.719,378.472 436.015,378.472Z" style="fill:white;fill-rule:nonzero;"/>
                <path d="M451.839,377.096C451.903,377.234 451.935,377.373 451.935,377.512C451.935,377.757 451.837,377.965 451.639,378.136C451.442,378.306 451.215,378.392 450.959,378.392C450.789,378.392 450.629,378.346 450.479,378.256C450.33,378.165 450.213,378.024 450.127,377.832L449.167,375.688L443.535,375.688L442.575,377.832C442.49,378.024 442.373,378.165 442.223,378.256C442.074,378.346 441.909,378.392 441.727,378.392C441.482,378.392 441.258,378.306 441.055,378.136C440.853,377.965 440.751,377.757 440.751,377.512C440.751,377.373 440.783,377.234 440.847,377.096L445.263,367.608C445.359,367.394 445.506,367.232 445.703,367.12C445.901,367.008 446.111,366.952 446.335,366.952C446.559,366.952 446.77,367.008 446.967,367.12C447.165,367.232 447.311,367.394 447.407,367.608L451.839,377.096ZM444.239,374.088L448.463,374.088L446.351,369.336L444.239,374.088Z" style="fill:white;fill-rule:nonzero;"/>
                <path d="M454.463,378.328C454.154,378.328 453.914,378.242 453.743,378.072C453.573,377.901 453.487,377.666 453.487,377.368L453.487,367.992C453.487,367.682 453.581,367.434 453.767,367.248C453.954,367.061 454.202,366.968 454.511,366.968C454.831,366.968 455.085,367.061 455.271,367.248C455.458,367.434 455.551,367.682 455.551,367.992L455.551,376.632L460.047,376.632C460.687,376.632 461.007,376.914 461.007,377.48C461.007,378.045 460.687,378.328 460.047,378.328L454.463,378.328Z" style="fill:white;fill-rule:nonzero;"/>
                <path d="M463.343,378.328C463.034,378.328 462.794,378.242 462.623,378.072C462.453,377.901 462.367,377.666 462.367,377.368L462.367,367.992C462.367,367.682 462.461,367.434 462.647,367.248C462.834,367.061 463.082,366.968 463.391,366.968C463.711,366.968 463.965,367.061 464.151,367.248C464.338,367.434 464.431,367.682 464.431,367.992L464.431,376.632L468.927,376.632C469.567,376.632 469.887,376.914 469.887,377.48C469.887,378.045 469.567,378.328 468.927,378.328L463.343,378.328Z" style="fill:white;fill-rule:nonzero;"/>
                <path d="M476.319,367.32C476.511,367.085 476.741,366.968 477.007,366.968C477.253,366.968 477.471,367.061 477.663,367.248C477.855,367.434 477.951,367.656 477.951,367.912C477.951,368.125 477.871,368.328 477.711,368.52L474.079,372.952L474.079,377.384C474.079,377.714 473.983,377.97 473.791,378.152C473.599,378.333 473.354,378.424 473.055,378.424C472.746,378.424 472.495,378.333 472.303,378.152C472.111,377.97 472.015,377.714 472.015,377.384L472.015,372.952L468.383,368.52C468.223,368.328 468.143,368.125 468.143,367.912C468.143,367.656 468.239,367.434 468.431,367.248C468.623,367.061 468.842,366.968 469.087,366.968C469.354,366.968 469.583,367.085 469.775,367.32L473.055,371.384L476.319,367.32Z" style="fill:white;fill-rule:nonzero;"/>
            </g>
        </g>
    </g>
</svg>
