<?xml version="1.0" encoding="UTF-8" standalone="no"?>
<!DOCTYPE svg PUBLIC "-//W3C//DTD SVG 1.1//EN" "http://www.w3.org/Graphics/SVG/1.1/DTD/svg11.dtd">
<svg width="100%" height="100%" viewBox="0 0 229 230" version="1.1" xmlns="http://www.w3.org/2000/svg" xmlns:xlink="http://www.w3.org/1999/xlink" xml:space="preserve" xmlns:serif="http://www.serif.com/" style="fill-rule:evenodd;clip-rule:evenodd;stroke-linejoin:round;stroke-miterlimit:1.41421;">
    <g transform="matrix(1,0,0,1,-395,-76)">
        <g>
            <g transform="matrix(1.42996,0,0,1.42996,-175.388,-108.66)">
                <path d="M425.156,270.907C424.356,270.907 423.59,270.787 422.86,270.547C422.129,270.307 421.545,269.985 421.108,269.579C420.948,269.43 420.868,269.243 420.868,269.019C420.868,268.87 420.91,268.739 420.996,268.627C421.081,268.515 421.182,268.459 421.3,268.459C421.438,268.459 421.588,268.518 421.748,268.635C422.74,269.403 423.87,269.787 425.14,269.787C426.057,269.787 426.761,269.611 427.252,269.259C427.742,268.907 427.988,268.406 427.988,267.755C427.988,267.382 427.87,267.081 427.636,266.851C427.401,266.622 427.092,266.438 426.708,266.299C426.324,266.161 425.806,266.017 425.156,265.867C424.281,265.665 423.564,265.451 423.004,265.227C422.444,265.003 421.99,264.683 421.644,264.267C421.297,263.851 421.124,263.307 421.124,262.635C421.124,261.995 421.297,261.427 421.644,260.931C421.99,260.435 422.476,260.051 423.1,259.779C423.724,259.507 424.436,259.371 425.236,259.371C425.982,259.371 426.678,259.486 427.324,259.715C427.969,259.945 428.51,260.273 428.948,260.699C429.118,260.87 429.204,261.057 429.204,261.259C429.204,261.409 429.161,261.539 429.076,261.651C428.99,261.763 428.889,261.819 428.772,261.819C428.654,261.819 428.5,261.761 428.308,261.643C427.785,261.217 427.3,260.918 426.852,260.747C426.404,260.577 425.865,260.491 425.236,260.491C424.35,260.491 423.662,260.675 423.172,261.043C422.681,261.411 422.436,261.926 422.436,262.587C422.436,263.153 422.652,263.577 423.084,263.859C423.516,264.142 424.18,264.39 425.076,264.603C426.046,264.838 426.809,265.054 427.364,265.251C427.918,265.449 428.38,265.745 428.748,266.139C429.116,266.534 429.3,267.062 429.3,267.723C429.3,268.353 429.126,268.907 428.78,269.387C428.433,269.867 427.945,270.241 427.316,270.507C426.686,270.774 425.966,270.907 425.156,270.907Z" style="fill:rgb(106,109,114);fill-rule:nonzero;"/>
                <path d="M434.468,270.891C433.732,270.891 433.084,270.726 432.524,270.395C431.964,270.065 431.532,269.593 431.228,268.979C430.924,268.366 430.772,267.654 430.772,266.843C430.772,266.033 430.924,265.321 431.228,264.707C431.532,264.094 431.964,263.622 432.524,263.291C433.084,262.961 433.732,262.795 434.468,262.795C435.204,262.795 435.854,262.961 436.42,263.291C436.985,263.622 437.42,264.094 437.724,264.707C438.028,265.321 438.18,266.033 438.18,266.843C438.18,267.654 438.028,268.366 437.724,268.979C437.42,269.593 436.985,270.065 436.42,270.395C435.854,270.726 435.204,270.891 434.468,270.891ZM434.468,269.819C435.236,269.819 435.825,269.566 436.236,269.059C436.646,268.553 436.852,267.814 436.852,266.843C436.852,265.894 436.644,265.161 436.228,264.643C435.812,264.126 435.225,263.867 434.468,263.867C433.71,263.867 433.124,264.126 432.708,264.643C432.292,265.161 432.084,265.894 432.084,266.843C432.084,267.803 432.289,268.539 432.7,269.051C433.11,269.563 433.7,269.819 434.468,269.819Z" style="fill:rgb(106,109,114);fill-rule:nonzero;"/>
                <path d="M444.036,262.795C445.902,262.795 446.836,263.825 446.836,265.883L446.836,270.219C446.836,270.422 446.78,270.579 446.668,270.691C446.556,270.803 446.398,270.859 446.196,270.859C445.993,270.859 445.833,270.803 445.716,270.691C445.598,270.579 445.54,270.422 445.54,270.219L445.54,265.963C445.54,265.238 445.398,264.71 445.116,264.379C444.833,264.049 444.382,263.883 443.764,263.883C443.049,263.883 442.478,264.102 442.052,264.539C441.625,264.977 441.412,265.569 441.412,266.315L441.412,270.219C441.412,270.422 441.356,270.579 441.244,270.691C441.132,270.803 440.974,270.859 440.772,270.859C440.569,270.859 440.409,270.803 440.292,270.691C440.174,270.579 440.116,270.422 440.116,270.219L440.116,263.467C440.116,263.275 440.174,263.121 440.292,263.003C440.409,262.886 440.569,262.827 440.772,262.827C440.964,262.827 441.116,262.886 441.228,263.003C441.34,263.121 441.396,263.27 441.396,263.451L441.396,264.267C441.652,263.787 442.009,263.422 442.468,263.171C442.926,262.921 443.449,262.795 444.036,262.795Z" style="fill:rgb(106,109,114);fill-rule:nonzero;"/>
                <path d="M449.86,270.859C449.668,270.859 449.51,270.803 449.388,270.691C449.265,270.579 449.204,270.422 449.204,270.219L449.204,263.467C449.204,263.265 449.265,263.107 449.388,262.995C449.51,262.883 449.668,262.827 449.86,262.827C450.052,262.827 450.206,262.883 450.324,262.995C450.441,263.107 450.5,263.265 450.5,263.467L450.5,270.219C450.5,270.433 450.441,270.593 450.324,270.699C450.206,270.806 450.052,270.859 449.86,270.859ZM449.86,261.147C449.604,261.147 449.396,261.073 449.236,260.923C449.076,260.774 448.996,260.577 448.996,260.331C448.996,260.097 449.076,259.905 449.236,259.755C449.396,259.606 449.604,259.531 449.86,259.531C450.116,259.531 450.324,259.606 450.484,259.755C450.644,259.905 450.724,260.097 450.724,260.331C450.724,260.577 450.644,260.774 450.484,260.923C450.324,261.073 450.116,261.147 449.86,261.147Z" style="fill:rgb(106,109,114);fill-rule:nonzero;"/>
                <path d="M456.132,270.891C455.406,270.891 454.764,270.726 454.204,270.395C453.644,270.065 453.212,269.595 452.908,268.987C452.604,268.379 452.452,267.675 452.452,266.875C452.452,266.075 452.609,265.366 452.924,264.747C453.238,264.129 453.678,263.649 454.244,263.307C454.809,262.966 455.46,262.795 456.196,262.795C456.601,262.795 457.004,262.851 457.404,262.963C457.804,263.075 458.153,263.238 458.452,263.451C458.644,263.579 458.78,263.705 458.86,263.827C458.94,263.95 458.98,264.086 458.98,264.235C458.98,264.385 458.94,264.507 458.86,264.603C458.78,264.699 458.676,264.747 458.548,264.747C458.473,264.747 458.393,264.726 458.308,264.683C458.222,264.641 458.15,264.598 458.092,264.555C458.033,264.513 457.993,264.486 457.972,264.475C457.694,264.294 457.43,264.15 457.18,264.043C456.929,263.937 456.622,263.883 456.26,263.883C455.481,263.883 454.876,264.147 454.444,264.675C454.012,265.203 453.796,265.937 453.796,266.875C453.796,267.814 454.012,268.539 454.444,269.051C454.876,269.563 455.481,269.819 456.26,269.819C456.622,269.819 456.934,269.766 457.196,269.659C457.457,269.553 457.721,269.409 457.988,269.227C458.105,269.153 458.217,269.089 458.324,269.035C458.43,268.982 458.521,268.955 458.596,268.955C458.713,268.955 458.812,269.003 458.892,269.099C458.972,269.195 459.012,269.318 459.012,269.467C459.012,269.606 458.974,269.731 458.9,269.843C458.825,269.955 458.686,270.081 458.484,270.219C458.185,270.422 457.825,270.585 457.404,270.707C456.982,270.83 456.558,270.891 456.132,270.891Z" style="fill:rgb(106,109,114);fill-rule:nonzero;"/>
                <path d="M475.188,259.819C475.23,259.681 475.305,259.577 475.412,259.507C475.518,259.438 475.636,259.403 475.764,259.403C475.934,259.403 476.081,259.454 476.204,259.555C476.326,259.657 476.388,259.793 476.388,259.963C476.388,260.038 476.372,260.123 476.34,260.219L472.724,270.411C472.67,270.561 472.58,270.675 472.452,270.755C472.324,270.835 472.18,270.875 472.02,270.875C471.87,270.875 471.732,270.835 471.604,270.755C471.476,270.675 471.385,270.561 471.332,270.411L468.196,261.547L465.028,270.411C464.974,270.561 464.884,270.675 464.756,270.755C464.628,270.835 464.489,270.875 464.34,270.875C464.19,270.875 464.052,270.835 463.924,270.755C463.796,270.675 463.705,270.561 463.652,270.411L460.02,260.219C459.988,260.134 459.972,260.054 459.972,259.979C459.972,259.809 460.038,259.67 460.172,259.563C460.305,259.457 460.457,259.403 460.628,259.403C460.756,259.403 460.876,259.438 460.988,259.507C461.1,259.577 461.177,259.681 461.22,259.819L464.372,268.907L467.572,259.915C467.625,259.755 467.71,259.635 467.828,259.555C467.945,259.475 468.073,259.435 468.212,259.435C468.35,259.435 468.478,259.478 468.596,259.563C468.713,259.649 468.798,259.771 468.852,259.931L472.004,268.939L475.188,259.819Z" style="fill:rgb(106,109,114);fill-rule:nonzero;"/>
                <path d="M480.484,262.795C482.436,262.795 483.412,263.819 483.412,265.867L483.412,270.219C483.412,270.411 483.356,270.566 483.244,270.683C483.132,270.801 482.98,270.859 482.788,270.859C482.596,270.859 482.441,270.801 482.324,270.683C482.206,270.566 482.148,270.411 482.148,270.219L482.148,269.451C481.945,269.91 481.636,270.265 481.22,270.515C480.804,270.766 480.324,270.891 479.78,270.891C479.278,270.891 478.817,270.79 478.396,270.587C477.974,270.385 477.641,270.102 477.396,269.739C477.15,269.377 477.028,268.977 477.028,268.539C477.028,267.953 477.177,267.497 477.476,267.171C477.774,266.846 478.265,266.611 478.948,266.467C479.63,266.323 480.58,266.251 481.796,266.251L482.148,266.251L482.148,265.723C482.148,265.083 482.017,264.614 481.756,264.315C481.494,264.017 481.07,263.867 480.484,263.867C479.758,263.867 479.022,264.065 478.276,264.459C477.988,264.641 477.785,264.731 477.668,264.731C477.54,264.731 477.433,264.683 477.348,264.587C477.262,264.491 477.22,264.369 477.22,264.219C477.22,264.07 477.265,263.939 477.356,263.827C477.446,263.715 477.593,263.601 477.796,263.483C478.169,263.27 478.593,263.102 479.068,262.979C479.542,262.857 480.014,262.795 480.484,262.795ZM479.956,269.867C480.596,269.867 481.121,269.651 481.532,269.219C481.942,268.787 482.148,268.23 482.148,267.547L482.148,267.083L481.86,267.083C480.921,267.083 480.206,267.123 479.716,267.203C479.225,267.283 478.876,267.417 478.668,267.603C478.46,267.79 478.356,268.065 478.356,268.427C478.356,268.843 478.508,269.187 478.812,269.459C479.116,269.731 479.497,269.867 479.956,269.867Z" style="fill:rgb(106,109,114);fill-rule:nonzero;"/>
                <path d="M486.436,270.859C486.244,270.859 486.086,270.803 485.964,270.691C485.841,270.579 485.78,270.422 485.78,270.219L485.78,260.059C485.78,259.857 485.841,259.699 485.964,259.587C486.086,259.475 486.244,259.419 486.436,259.419C486.617,259.419 486.769,259.475 486.892,259.587C487.014,259.699 487.076,259.857 487.076,260.059L487.076,270.219C487.076,270.422 487.014,270.579 486.892,270.691C486.769,270.803 486.617,270.859 486.436,270.859Z" style="fill:rgb(106,109,114);fill-rule:nonzero;"/>
                <path d="M490.148,270.859C489.956,270.859 489.798,270.803 489.676,270.691C489.553,270.579 489.492,270.422 489.492,270.219L489.492,260.059C489.492,259.857 489.553,259.699 489.676,259.587C489.798,259.475 489.956,259.419 490.148,259.419C490.329,259.419 490.481,259.475 490.604,259.587C490.726,259.699 490.788,259.857 490.788,260.059L490.788,270.219C490.788,270.422 490.726,270.579 490.604,270.691C490.481,270.803 490.329,270.859 490.148,270.859Z" style="fill:rgb(106,109,114);fill-rule:nonzero;"/>
                <path d="M502.308,270.907C501.241,270.907 500.318,270.675 499.54,270.211C498.761,269.747 498.161,269.081 497.74,268.211C497.318,267.342 497.108,266.315 497.108,265.131C497.108,263.958 497.318,262.937 497.74,262.067C498.161,261.198 498.761,260.531 499.54,260.067C500.318,259.603 501.241,259.371 502.308,259.371C503.022,259.371 503.697,259.486 504.332,259.715C504.966,259.945 505.518,260.273 505.988,260.699C506.158,260.859 506.244,261.046 506.244,261.259C506.244,261.409 506.201,261.539 506.116,261.651C506.03,261.763 505.929,261.819 505.812,261.819C505.684,261.819 505.529,261.761 505.348,261.643C504.804,261.217 504.31,260.918 503.868,260.747C503.425,260.577 502.916,260.491 502.34,260.491C501.102,260.491 500.15,260.894 499.484,261.699C498.817,262.505 498.484,263.649 498.484,265.131C498.484,266.625 498.817,267.774 499.484,268.579C500.15,269.385 501.102,269.787 502.34,269.787C502.905,269.787 503.412,269.702 503.86,269.531C504.308,269.361 504.804,269.062 505.348,268.635C505.529,268.518 505.684,268.459 505.812,268.459C505.929,268.459 506.03,268.513 506.116,268.619C506.201,268.726 506.244,268.859 506.244,269.019C506.244,269.233 506.158,269.419 505.988,269.579C505.518,270.006 504.966,270.334 504.332,270.563C503.697,270.793 503.022,270.907 502.308,270.907Z" style="fill:rgb(106,109,114);fill-rule:nonzero;"/>
                <path d="M508.82,270.859C508.628,270.859 508.47,270.803 508.348,270.691C508.225,270.579 508.164,270.422 508.164,270.219L508.164,260.059C508.164,259.857 508.225,259.699 508.348,259.587C508.47,259.475 508.628,259.419 508.82,259.419C509.001,259.419 509.153,259.475 509.276,259.587C509.398,259.699 509.46,259.857 509.46,260.059L509.46,270.219C509.46,270.422 509.398,270.579 509.276,270.691C509.153,270.803 509.001,270.859 508.82,270.859Z" style="fill:rgb(106,109,114);fill-rule:nonzero;"/>
                <path d="M515.108,270.891C514.372,270.891 513.724,270.726 513.164,270.395C512.604,270.065 512.172,269.593 511.868,268.979C511.564,268.366 511.412,267.654 511.412,266.843C511.412,266.033 511.564,265.321 511.868,264.707C512.172,264.094 512.604,263.622 513.164,263.291C513.724,262.961 514.372,262.795 515.108,262.795C515.844,262.795 516.494,262.961 517.06,263.291C517.625,263.622 518.06,264.094 518.364,264.707C518.668,265.321 518.82,266.033 518.82,266.843C518.82,267.654 518.668,268.366 518.364,268.979C518.06,269.593 517.625,270.065 517.06,270.395C516.494,270.726 515.844,270.891 515.108,270.891ZM515.108,269.819C515.876,269.819 516.465,269.566 516.876,269.059C517.286,268.553 517.492,267.814 517.492,266.843C517.492,265.894 517.284,265.161 516.868,264.643C516.452,264.126 515.865,263.867 515.108,263.867C514.35,263.867 513.764,264.126 513.348,264.643C512.932,265.161 512.724,265.894 512.724,266.843C512.724,267.803 512.929,268.539 513.34,269.051C513.75,269.563 514.34,269.819 515.108,269.819Z" style="fill:rgb(106,109,114);fill-rule:nonzero;"/>
                <path d="M526.676,262.827C526.878,262.827 527.036,262.886 527.148,263.003C527.26,263.121 527.316,263.275 527.316,263.467L527.316,270.235C527.316,270.417 527.26,270.566 527.148,270.683C527.036,270.801 526.878,270.859 526.676,270.859C526.484,270.859 526.332,270.803 526.22,270.691C526.108,270.579 526.052,270.433 526.052,270.251L526.052,269.451C525.806,269.921 525.462,270.278 525.02,270.523C524.577,270.769 524.078,270.891 523.524,270.891C522.596,270.891 521.897,270.633 521.428,270.115C520.958,269.598 520.724,268.833 520.724,267.819L520.724,263.467C520.724,263.275 520.782,263.121 520.9,263.003C521.017,262.886 521.177,262.827 521.38,262.827C521.582,262.827 521.74,262.886 521.852,263.003C521.964,263.121 522.02,263.275 522.02,263.467L522.02,267.787C522.02,268.481 522.158,268.99 522.436,269.315C522.713,269.641 523.15,269.803 523.748,269.803C524.43,269.803 524.98,269.582 525.396,269.139C525.812,268.697 526.02,268.113 526.02,267.387L526.02,263.467C526.02,263.275 526.078,263.121 526.196,263.003C526.313,262.886 526.473,262.827 526.676,262.827Z" style="fill:rgb(106,109,114);fill-rule:nonzero;"/>
                <path d="M535.988,259.419C536.19,259.419 536.35,259.478 536.468,259.595C536.585,259.713 536.644,259.862 536.644,260.043L536.644,270.219C536.644,270.411 536.585,270.566 536.468,270.683C536.35,270.801 536.19,270.859 535.988,270.859C535.785,270.859 535.628,270.801 535.516,270.683C535.404,270.566 535.348,270.411 535.348,270.219L535.348,269.355C535.113,269.846 534.769,270.225 534.316,270.491C533.862,270.758 533.332,270.891 532.724,270.891C532.041,270.891 531.438,270.721 530.916,270.379C530.393,270.038 529.988,269.561 529.7,268.947C529.412,268.334 529.268,267.622 529.268,266.811C529.268,266.011 529.412,265.307 529.7,264.699C529.988,264.091 530.393,263.622 530.916,263.291C531.438,262.961 532.041,262.795 532.724,262.795C533.332,262.795 533.862,262.929 534.316,263.195C534.769,263.462 535.113,263.841 535.348,264.331L535.348,260.043C535.348,259.851 535.404,259.699 535.516,259.587C535.628,259.475 535.785,259.419 535.988,259.419ZM532.98,269.819C533.737,269.819 534.321,269.561 534.732,269.043C535.142,268.526 535.348,267.793 535.348,266.843C535.348,265.894 535.142,265.163 534.732,264.651C534.321,264.139 533.737,263.883 532.98,263.883C532.222,263.883 531.633,264.139 531.212,264.651C530.79,265.163 530.58,265.883 530.58,266.811C530.58,267.761 530.79,268.499 531.212,269.027C531.633,269.555 532.222,269.819 532.98,269.819Z" style="fill:rgb(106,109,114);fill-rule:nonzero;"/>
                <path d="M443.884,286.027C443.926,286.113 443.948,286.203 443.948,286.299C443.948,286.459 443.886,286.593 443.764,286.699C443.641,286.806 443.494,286.859 443.324,286.859C443.057,286.859 442.87,286.731 442.764,286.475L441.628,283.883L435.596,283.883L434.444,286.475C434.337,286.731 434.15,286.859 433.884,286.859C433.713,286.859 433.564,286.803 433.436,286.691C433.308,286.579 433.244,286.443 433.244,286.283C433.244,286.198 433.265,286.113 433.308,286.027L437.884,275.851C437.948,275.702 438.044,275.59 438.172,275.515C438.3,275.441 438.438,275.403 438.588,275.403C438.748,275.403 438.892,275.443 439.02,275.523C439.148,275.603 439.244,275.713 439.308,275.851L443.884,286.027ZM436.076,282.795L441.148,282.795L438.604,277.051L436.076,282.795Z" style="fill:rgb(106,109,114);fill-rule:nonzero;"/>
                <path d="M449.532,278.795C450.214,278.795 450.817,278.966 451.34,279.307C451.862,279.649 452.268,280.126 452.556,280.739C452.844,281.353 452.988,282.065 452.988,282.875C452.988,283.686 452.844,284.393 452.556,284.995C452.268,285.598 451.865,286.065 451.348,286.395C450.83,286.726 450.225,286.891 449.532,286.891C448.924,286.891 448.393,286.758 447.94,286.491C447.486,286.225 447.142,285.846 446.908,285.355L446.908,289.115C446.908,289.307 446.852,289.459 446.74,289.571C446.628,289.683 446.47,289.739 446.268,289.739C446.065,289.739 445.905,289.681 445.788,289.563C445.67,289.446 445.612,289.297 445.612,289.115L445.612,279.467C445.612,279.275 445.67,279.121 445.788,279.003C445.905,278.886 446.065,278.827 446.268,278.827C446.47,278.827 446.628,278.886 446.74,279.003C446.852,279.121 446.908,279.275 446.908,279.467L446.908,280.331C447.142,279.841 447.486,279.462 447.94,279.195C448.393,278.929 448.924,278.795 449.532,278.795ZM449.276,285.819C450.033,285.819 450.62,285.563 451.036,285.051C451.452,284.539 451.66,283.814 451.66,282.875C451.66,281.937 451.452,281.203 451.036,280.675C450.62,280.147 450.033,279.883 449.276,279.883C448.518,279.883 447.934,280.139 447.524,280.651C447.113,281.163 446.908,281.894 446.908,282.843C446.908,283.793 447.113,284.526 447.524,285.043C447.934,285.561 448.518,285.819 449.276,285.819Z" style="fill:rgb(106,109,114);fill-rule:nonzero;"/>
                <path d="M458.844,278.795C459.526,278.795 460.129,278.966 460.652,279.307C461.174,279.649 461.58,280.126 461.868,280.739C462.156,281.353 462.3,282.065 462.3,282.875C462.3,283.686 462.156,284.393 461.868,284.995C461.58,285.598 461.177,286.065 460.66,286.395C460.142,286.726 459.537,286.891 458.844,286.891C458.236,286.891 457.705,286.758 457.252,286.491C456.798,286.225 456.454,285.846 456.22,285.355L456.22,289.115C456.22,289.307 456.164,289.459 456.052,289.571C455.94,289.683 455.782,289.739 455.58,289.739C455.377,289.739 455.217,289.681 455.1,289.563C454.982,289.446 454.924,289.297 454.924,289.115L454.924,279.467C454.924,279.275 454.982,279.121 455.1,279.003C455.217,278.886 455.377,278.827 455.58,278.827C455.782,278.827 455.94,278.886 456.052,279.003C456.164,279.121 456.22,279.275 456.22,279.467L456.22,280.331C456.454,279.841 456.798,279.462 457.252,279.195C457.705,278.929 458.236,278.795 458.844,278.795ZM458.588,285.819C459.345,285.819 459.932,285.563 460.348,285.051C460.764,284.539 460.972,283.814 460.972,282.875C460.972,281.937 460.764,281.203 460.348,280.675C459.932,280.147 459.345,279.883 458.588,279.883C457.83,279.883 457.246,280.139 456.836,280.651C456.425,281.163 456.22,281.894 456.22,282.843C456.22,283.793 456.425,284.526 456.836,285.043C457.246,285.561 457.83,285.819 458.588,285.819Z" style="fill:rgb(106,109,114);fill-rule:nonzero;"/>
                <path d="M472.156,286.907C471.356,286.907 470.59,286.787 469.86,286.547C469.129,286.307 468.545,285.985 468.108,285.579C467.948,285.43 467.868,285.243 467.868,285.019C467.868,284.87 467.91,284.739 467.996,284.627C468.081,284.515 468.182,284.459 468.3,284.459C468.438,284.459 468.588,284.518 468.748,284.635C469.74,285.403 470.87,285.787 472.14,285.787C473.057,285.787 473.761,285.611 474.252,285.259C474.742,284.907 474.988,284.406 474.988,283.755C474.988,283.382 474.87,283.081 474.636,282.851C474.401,282.622 474.092,282.438 473.708,282.299C473.324,282.161 472.806,282.017 472.156,281.867C471.281,281.665 470.564,281.451 470.004,281.227C469.444,281.003 468.99,280.683 468.644,280.267C468.297,279.851 468.124,279.307 468.124,278.635C468.124,277.995 468.297,277.427 468.644,276.931C468.99,276.435 469.476,276.051 470.1,275.779C470.724,275.507 471.436,275.371 472.236,275.371C472.982,275.371 473.678,275.486 474.324,275.715C474.969,275.945 475.51,276.273 475.948,276.699C476.118,276.87 476.204,277.057 476.204,277.259C476.204,277.409 476.161,277.539 476.076,277.651C475.99,277.763 475.889,277.819 475.772,277.819C475.654,277.819 475.5,277.761 475.308,277.643C474.785,277.217 474.3,276.918 473.852,276.747C473.404,276.577 472.865,276.491 472.236,276.491C471.35,276.491 470.662,276.675 470.172,277.043C469.681,277.411 469.436,277.926 469.436,278.587C469.436,279.153 469.652,279.577 470.084,279.859C470.516,280.142 471.18,280.39 472.076,280.603C473.046,280.838 473.809,281.054 474.364,281.251C474.918,281.449 475.38,281.745 475.748,282.139C476.116,282.534 476.3,283.062 476.3,283.723C476.3,284.353 476.126,284.907 475.78,285.387C475.433,285.867 474.945,286.241 474.316,286.507C473.686,286.774 472.966,286.907 472.156,286.907Z" style="fill:rgb(106,109,114);fill-rule:nonzero;"/>
                <path d="M484.268,284.971C484.385,284.971 484.486,285.019 484.572,285.115C484.657,285.211 484.7,285.334 484.7,285.483C484.7,285.75 484.513,285.995 484.14,286.219C483.756,286.443 483.35,286.611 482.924,286.723C482.497,286.835 482.081,286.891 481.676,286.891C480.47,286.891 479.518,286.534 478.82,285.819C478.121,285.105 477.772,284.118 477.772,282.859C477.772,282.059 477.926,281.353 478.236,280.739C478.545,280.126 478.98,279.649 479.54,279.307C480.1,278.966 480.737,278.795 481.452,278.795C482.465,278.795 483.27,279.126 483.868,279.787C484.465,280.449 484.764,281.345 484.764,282.475C484.764,282.689 484.721,282.843 484.636,282.939C484.55,283.035 484.412,283.083 484.22,283.083L479.068,283.083C479.164,284.918 480.033,285.835 481.676,285.835C482.092,285.835 482.449,285.779 482.748,285.667C483.046,285.555 483.366,285.403 483.708,285.211C483.985,285.051 484.172,284.971 484.268,284.971ZM481.468,279.803C480.785,279.803 480.238,280.017 479.828,280.443C479.417,280.87 479.174,281.473 479.1,282.251L483.628,282.251C483.606,281.462 483.409,280.857 483.036,280.435C482.662,280.014 482.14,279.803 481.468,279.803Z" style="fill:rgb(106,109,114);fill-rule:nonzero;"/>
                <path d="M489.884,286.891C489.158,286.891 488.516,286.726 487.956,286.395C487.396,286.065 486.964,285.595 486.66,284.987C486.356,284.379 486.204,283.675 486.204,282.875C486.204,282.075 486.361,281.366 486.676,280.747C486.99,280.129 487.43,279.649 487.996,279.307C488.561,278.966 489.212,278.795 489.948,278.795C490.353,278.795 490.756,278.851 491.156,278.963C491.556,279.075 491.905,279.238 492.204,279.451C492.396,279.579 492.532,279.705 492.612,279.827C492.692,279.95 492.732,280.086 492.732,280.235C492.732,280.385 492.692,280.507 492.612,280.603C492.532,280.699 492.428,280.747 492.3,280.747C492.225,280.747 492.145,280.726 492.06,280.683C491.974,280.641 491.902,280.598 491.844,280.555C491.785,280.513 491.745,280.486 491.724,280.475C491.446,280.294 491.182,280.15 490.932,280.043C490.681,279.937 490.374,279.883 490.012,279.883C489.233,279.883 488.628,280.147 488.196,280.675C487.764,281.203 487.548,281.937 487.548,282.875C487.548,283.814 487.764,284.539 488.196,285.051C488.628,285.563 489.233,285.819 490.012,285.819C490.374,285.819 490.686,285.766 490.948,285.659C491.209,285.553 491.473,285.409 491.74,285.227C491.857,285.153 491.969,285.089 492.076,285.035C492.182,284.982 492.273,284.955 492.348,284.955C492.465,284.955 492.564,285.003 492.644,285.099C492.724,285.195 492.764,285.318 492.764,285.467C492.764,285.606 492.726,285.731 492.652,285.843C492.577,285.955 492.438,286.081 492.236,286.219C491.937,286.422 491.577,286.585 491.156,286.707C490.734,286.83 490.31,286.891 489.884,286.891Z" style="fill:rgb(106,109,114);fill-rule:nonzero;"/>
                <path d="M500.252,278.827C500.454,278.827 500.612,278.886 500.724,279.003C500.836,279.121 500.892,279.275 500.892,279.467L500.892,286.235C500.892,286.417 500.836,286.566 500.724,286.683C500.612,286.801 500.454,286.859 500.252,286.859C500.06,286.859 499.908,286.803 499.796,286.691C499.684,286.579 499.628,286.433 499.628,286.251L499.628,285.451C499.382,285.921 499.038,286.278 498.596,286.523C498.153,286.769 497.654,286.891 497.1,286.891C496.172,286.891 495.473,286.633 495.004,286.115C494.534,285.598 494.3,284.833 494.3,283.819L494.3,279.467C494.3,279.275 494.358,279.121 494.476,279.003C494.593,278.886 494.753,278.827 494.956,278.827C495.158,278.827 495.316,278.886 495.428,279.003C495.54,279.121 495.596,279.275 495.596,279.467L495.596,283.787C495.596,284.481 495.734,284.99 496.012,285.315C496.289,285.641 496.726,285.803 497.324,285.803C498.006,285.803 498.556,285.582 498.972,285.139C499.388,284.697 499.596,284.113 499.596,283.387L499.596,279.467C499.596,279.275 499.654,279.121 499.772,279.003C499.889,278.886 500.049,278.827 500.252,278.827Z" style="fill:rgb(106,109,114);fill-rule:nonzero;"/>
                <path d="M507.164,278.827C507.612,278.795 507.836,278.977 507.836,279.371C507.836,279.542 507.788,279.678 507.692,279.779C507.596,279.881 507.43,279.942 507.196,279.963L506.716,280.011C506.001,280.075 505.47,280.329 505.124,280.771C504.777,281.214 504.604,281.734 504.604,282.331L504.604,286.219C504.604,286.433 504.545,286.593 504.428,286.699C504.31,286.806 504.156,286.859 503.964,286.859C503.772,286.859 503.614,286.803 503.492,286.691C503.369,286.579 503.308,286.422 503.308,286.219L503.308,279.467C503.308,279.265 503.372,279.107 503.5,278.995C503.628,278.883 503.782,278.827 503.964,278.827C504.134,278.827 504.278,278.883 504.396,278.995C504.513,279.107 504.572,279.259 504.572,279.451L504.572,280.347C504.796,279.878 505.113,279.521 505.524,279.275C505.934,279.03 506.406,278.886 506.94,278.843L507.164,278.827Z" style="fill:rgb(106,109,114);fill-rule:nonzero;"/>
                <path d="M509.612,286.859C509.42,286.859 509.262,286.803 509.14,286.691C509.017,286.579 508.956,286.422 508.956,286.219L508.956,279.467C508.956,279.265 509.017,279.107 509.14,278.995C509.262,278.883 509.42,278.827 509.612,278.827C509.804,278.827 509.958,278.883 510.076,278.995C510.193,279.107 510.252,279.265 510.252,279.467L510.252,286.219C510.252,286.433 510.193,286.593 510.076,286.699C509.958,286.806 509.804,286.859 509.612,286.859ZM509.612,277.147C509.356,277.147 509.148,277.073 508.988,276.923C508.828,276.774 508.748,276.577 508.748,276.331C508.748,276.097 508.828,275.905 508.988,275.755C509.148,275.606 509.356,275.531 509.612,275.531C509.868,275.531 510.076,275.606 510.236,275.755C510.396,275.905 510.476,276.097 510.476,276.331C510.476,276.577 510.396,276.774 510.236,276.923C510.076,277.073 509.868,277.147 509.612,277.147Z" style="fill:rgb(106,109,114);fill-rule:nonzero;"/>
                <path d="M516.268,285.835C516.641,285.867 516.828,286.038 516.828,286.347C516.828,286.529 516.761,286.665 516.628,286.755C516.494,286.846 516.294,286.881 516.028,286.859L515.596,286.827C514.742,286.763 514.113,286.507 513.708,286.059C513.302,285.611 513.1,284.934 513.1,284.027L513.1,280.011L512.028,280.011C511.846,280.011 511.705,279.966 511.604,279.875C511.502,279.785 511.452,279.665 511.452,279.515C511.452,279.355 511.502,279.227 511.604,279.131C511.705,279.035 511.846,278.987 512.028,278.987L513.1,278.987L513.1,277.179C513.1,276.977 513.158,276.819 513.276,276.707C513.393,276.595 513.553,276.539 513.756,276.539C513.948,276.539 514.102,276.595 514.22,276.707C514.337,276.819 514.396,276.977 514.396,277.179L514.396,278.987L516.172,278.987C516.342,278.987 516.478,279.035 516.58,279.131C516.681,279.227 516.732,279.355 516.732,279.515C516.732,279.665 516.681,279.785 516.58,279.875C516.478,279.966 516.342,280.011 516.172,280.011L514.396,280.011L514.396,284.091C514.396,284.678 514.516,285.102 514.756,285.363C514.996,285.625 515.356,285.771 515.836,285.803L516.268,285.835Z" style="fill:rgb(106,109,114);fill-rule:nonzero;"/>
                <path d="M523.82,279.227C523.937,278.971 524.124,278.843 524.38,278.843C524.54,278.843 524.684,278.897 524.812,279.003C524.94,279.11 525.004,279.243 525.004,279.403C525.004,279.499 524.982,279.585 524.94,279.659L520.444,289.355C520.39,289.473 520.313,289.563 520.212,289.627C520.11,289.691 520.006,289.723 519.9,289.723C519.74,289.723 519.598,289.673 519.476,289.571C519.353,289.47 519.292,289.339 519.292,289.179C519.292,289.094 519.313,289.009 519.356,288.923L520.476,286.507L517.308,279.659C517.265,279.585 517.244,279.505 517.244,279.419C517.244,279.259 517.316,279.121 517.46,279.003C517.604,278.886 517.761,278.827 517.932,278.827C518.038,278.827 518.142,278.859 518.244,278.923C518.345,278.987 518.422,279.078 518.476,279.195L521.148,285.195L523.82,279.227Z" style="fill:rgb(106,109,114);fill-rule:nonzero;"/>
            </g>
            <g>
                <g id="Combined-Shape" transform="matrix(0.786114,0,0,0.786114,372.331,33.6249)">
                    <path d="M319.996,204.264C319.999,204.51 320,204.756 320,205.003C320,204.756 319.999,204.51 319.996,204.264ZM319.781,210.412C319.757,210.706 319.731,210.999 319.704,211.291C319.731,210.998 319.757,210.706 319.781,210.412ZM255.473,270C254.464,269.996 253.461,269.968 252.457,269.92L252.457,269.908C253.452,269.963 254.458,269.994 255.473,270ZM171.404,270L83.138,270L83.138,269.907C52.942,268.128 29,242.816 29,211.843C29,179.727 54.757,153.693 86.525,153.693C90.036,153.693 93.472,154.008 96.809,154.619C96.723,153.18 96.673,151.734 96.673,150.269C96.673,115.7 121.984,86.853 155.684,80C151.938,87.959 149.784,96.815 149.784,106.189L149.784,107.938C140.236,108.711 132.707,116.596 132.707,126.323L132.707,211.806C132.707,222.046 141.023,230.345 151.282,230.345L272.016,230.345C281.221,230.345 288.861,223.664 290.334,214.894C288.862,223.664 281.221,230.346 272.016,230.346L171.404,230.346L171.404,270Z" style="fill:rgb(128,128,138);"/>
                </g>
                <g id="Fill-5" transform="matrix(0.786114,0,0,0.786114,372.331,33.6249)">
                    <path d="M198.922,84C190.104,88.629 184.037,97.577 184,108L232,108C223.656,97.316 212.241,88.896 198.922,84" style="fill:rgb(83,83,90);"/>
                </g>
                <g id="Fill-7" transform="matrix(0.786114,0,0,0.786114,372.331,33.6249)">
                    <path d="M290.51,150L290.51,211.603C290.51,221.878 282.173,230.207 271.885,230.207L171,230.207L171,270L252.273,270L252.273,269.907C253.391,269.969 254.521,270 255.663,270C291.193,270 320,240.798 320,204.775C320,181.781 308.235,161.621 290.51,150" style="fill:rgb(83,83,90);"/>
                </g>
                <g id="Fill-9" transform="matrix(0.786114,0,0,0.786114,372.331,33.6249)">
                    <path d="M248.4,118.683L175.6,118.683L175.6,105.746C175.6,85.738 191.9,69.524 212,69.524C232.1,69.524 248.4,85.738 248.4,105.746L248.4,118.683ZM214.385,200.224C214.385,200.224 183.047,188.928 176.137,170.131C168.4,149.09 197.085,144.287 226.428,145.124C242.241,145.575 261.565,147.982 261.565,147.982C261.565,147.982 215.909,153.802 199.41,167.13C183.301,180.145 214.385,200.224 214.385,200.224ZM160,118.683L160,105.746C160,77.169 183.276,54 212,54C240.724,54 264.006,77.169 264.006,105.746L264.006,118.683L264.619,118.683C271.46,118.683 277,124.202 277,131.003L277,204.68C277,211.48 271.46,217 264.619,217L159.381,217C152.547,217 147,211.48 147,204.68L147,131.003C147,124.202 152.547,118.683 159.381,118.683L160,118.683Z" style="fill:rgb(255,141,32);"/>
                </g>
                <g id="Combined-Shape1" serif:id="Combined-Shape" transform="matrix(0.786114,0,0,0.786114,372.331,33.6249)">
                    <path d="M212,145.203L212,118.681L248.209,118.681L248.209,105.745C248.209,85.879 232.035,69.755 212,69.525L212,54C240.716,54.23 263.919,77.31 263.919,105.745L263.919,118.681L264.536,118.681C271.423,118.681 277,124.201 277,131.002L277,204.679C277,211.48 271.423,217 264.536,217L212,217L212,199.463C213.247,199.966 213.967,200.224 213.967,200.224C213.967,200.224 213.213,199.74 212,198.874L212,159.929C232.262,151.679 261.462,147.982 261.462,147.982C261.462,147.982 242.008,145.575 226.091,145.123C221.326,144.988 216.579,145 212,145.203Z" style="fill:rgb(255,108,11);"/>
                </g>
            </g>
        </g>
    </g>
</svg>
