<?xml version="1.0" encoding="UTF-8" standalone="no"?>
<!DOCTYPE svg PUBLIC "-//W3C//DTD SVG 1.1//EN" "http://www.w3.org/Graphics/SVG/1.1/DTD/svg11.dtd">
<svg width="100%" height="100%" viewBox="0 0 206 40" version="1.1" xmlns="http://www.w3.org/2000/svg" xmlns:xlink="http://www.w3.org/1999/xlink" xml:space="preserve" xmlns:serif="http://www.serif.com/" style="fill-rule:evenodd;clip-rule:evenodd;stroke-linejoin:round;stroke-miterlimit:1.41421;">
    <g transform="matrix(1,0,0,1,-468,-275)">
        <g transform="matrix(1,0,0,1,-210.483,-395.696)">
            <path d="M685.842,685.847C684.508,685.847 683.355,685.557 682.382,684.977C681.408,684.397 680.658,683.564 680.132,682.477C679.605,681.39 679.342,680.107 679.342,678.627C679.342,677.16 679.605,675.884 680.132,674.797C680.658,673.71 681.408,672.877 682.382,672.297C683.355,671.717 684.508,671.427 685.842,671.427C686.735,671.427 687.578,671.57 688.372,671.857C689.165,672.144 689.855,672.554 690.442,673.087C690.655,673.287 690.762,673.52 690.762,673.787C690.762,673.974 690.708,674.137 690.602,674.277C690.495,674.417 690.368,674.487 690.222,674.487C690.062,674.487 689.868,674.414 689.642,674.267C688.962,673.734 688.345,673.36 687.792,673.147C687.238,672.934 686.602,672.827 685.882,672.827C684.335,672.827 683.145,673.33 682.312,674.337C681.478,675.344 681.062,676.774 681.062,678.627C681.062,680.494 681.478,681.93 682.312,682.937C683.145,683.944 684.335,684.447 685.882,684.447C686.588,684.447 687.222,684.34 687.782,684.127C688.342,683.914 688.962,683.54 689.642,683.007C689.868,682.86 690.062,682.787 690.222,682.787C690.368,682.787 690.495,682.854 690.602,682.987C690.708,683.12 690.762,683.287 690.762,683.487C690.762,683.754 690.655,683.987 690.442,684.187C689.855,684.72 689.165,685.13 688.372,685.417C687.578,685.704 686.735,685.847 685.842,685.847Z" style="fill:rgb(103,103,108);fill-rule:nonzero;"/>
            <path d="M697.002,685.827C696.082,685.827 695.272,685.62 694.572,685.207C693.872,684.794 693.332,684.204 692.952,683.437C692.572,682.67 692.382,681.78 692.382,680.767C692.382,679.754 692.572,678.864 692.952,678.097C693.332,677.33 693.872,676.74 694.572,676.327C695.272,675.914 696.082,675.707 697.002,675.707C697.922,675.707 698.735,675.914 699.442,676.327C700.148,676.74 700.692,677.33 701.072,678.097C701.452,678.864 701.642,679.754 701.642,680.767C701.642,681.78 701.452,682.67 701.072,683.437C700.692,684.204 700.148,684.794 699.442,685.207C698.735,685.62 697.922,685.827 697.002,685.827ZM697.002,684.487C697.962,684.487 698.698,684.17 699.212,683.537C699.725,682.904 699.982,681.98 699.982,680.767C699.982,679.58 699.722,678.664 699.202,678.017C698.682,677.37 697.948,677.047 697.002,677.047C696.055,677.047 695.322,677.37 694.802,678.017C694.282,678.664 694.022,679.58 694.022,680.767C694.022,681.967 694.278,682.887 694.792,683.527C695.305,684.167 696.042,684.487 697.002,684.487Z" style="fill:rgb(103,103,108);fill-rule:nonzero;"/>
            <path d="M708.962,675.707C711.295,675.707 712.462,676.994 712.462,679.567L712.462,684.987C712.462,685.24 712.392,685.437 712.252,685.577C712.112,685.717 711.915,685.787 711.662,685.787C711.408,685.787 711.208,685.717 711.062,685.577C710.915,685.437 710.842,685.24 710.842,684.987L710.842,679.667C710.842,678.76 710.665,678.1 710.312,677.687C709.958,677.274 709.395,677.067 708.622,677.067C707.728,677.067 707.015,677.34 706.482,677.887C705.948,678.434 705.682,679.174 705.682,680.107L705.682,684.987C705.682,685.24 705.612,685.437 705.472,685.577C705.332,685.717 705.135,685.787 704.882,685.787C704.628,685.787 704.428,685.717 704.282,685.577C704.135,685.437 704.062,685.24 704.062,684.987L704.062,676.547C704.062,676.307 704.135,676.114 704.282,675.967C704.428,675.82 704.628,675.747 704.882,675.747C705.122,675.747 705.312,675.82 705.452,675.967C705.592,676.114 705.662,676.3 705.662,676.527L705.662,677.547C705.982,676.947 706.428,676.49 707.002,676.177C707.575,675.864 708.228,675.707 708.962,675.707Z" style="fill:rgb(103,103,108);fill-rule:nonzero;"/>
            <path d="M719.922,684.507C720.388,684.547 720.622,684.76 720.622,685.147C720.622,685.374 720.538,685.544 720.372,685.657C720.205,685.77 719.955,685.814 719.622,685.787L719.082,685.747C718.015,685.667 717.228,685.347 716.722,684.787C716.215,684.227 715.962,683.38 715.962,682.247L715.962,677.227L714.622,677.227C714.395,677.227 714.218,677.17 714.092,677.057C713.965,676.944 713.902,676.794 713.902,676.607C713.902,676.407 713.965,676.247 714.092,676.127C714.218,676.007 714.395,675.947 714.622,675.947L715.962,675.947L715.962,673.687C715.962,673.434 716.035,673.237 716.182,673.097C716.328,672.957 716.528,672.887 716.782,672.887C717.022,672.887 717.215,672.957 717.362,673.097C717.508,673.237 717.582,673.434 717.582,673.687L717.582,675.947L719.802,675.947C720.015,675.947 720.185,676.007 720.312,676.127C720.438,676.247 720.502,676.407 720.502,676.607C720.502,676.794 720.438,676.944 720.312,677.057C720.185,677.17 720.015,677.227 719.802,677.227L717.582,677.227L717.582,682.327C717.582,683.06 717.732,683.59 718.032,683.917C718.332,684.244 718.782,684.427 719.382,684.467L719.922,684.507Z" style="fill:rgb(103,103,108);fill-rule:nonzero;"/>
            <path d="M729.762,683.427C729.908,683.427 730.035,683.487 730.142,683.607C730.248,683.727 730.302,683.88 730.302,684.067C730.302,684.4 730.068,684.707 729.602,684.987C729.122,685.267 728.615,685.477 728.082,685.617C727.548,685.757 727.028,685.827 726.522,685.827C725.015,685.827 723.825,685.38 722.952,684.487C722.078,683.594 721.642,682.36 721.642,680.787C721.642,679.787 721.835,678.904 722.222,678.137C722.608,677.37 723.152,676.774 723.852,676.347C724.552,675.92 725.348,675.707 726.242,675.707C727.508,675.707 728.515,676.12 729.262,676.947C730.008,677.774 730.382,678.894 730.382,680.307C730.382,680.574 730.328,680.767 730.222,680.887C730.115,681.007 729.942,681.067 729.702,681.067L723.262,681.067C723.382,683.36 724.468,684.507 726.522,684.507C727.042,684.507 727.488,684.437 727.862,684.297C728.235,684.157 728.635,683.967 729.062,683.727C729.408,683.527 729.642,683.427 729.762,683.427ZM726.262,676.967C725.408,676.967 724.725,677.234 724.212,677.767C723.698,678.3 723.395,679.054 723.302,680.027L728.962,680.027C728.935,679.04 728.688,678.284 728.222,677.757C727.755,677.23 727.102,676.967 726.262,676.967Z" style="fill:rgb(103,103,108);fill-rule:nonzero;"/>
            <path d="M737.662,675.707C739.995,675.707 741.162,676.994 741.162,679.567L741.162,684.987C741.162,685.24 741.092,685.437 740.952,685.577C740.812,685.717 740.615,685.787 740.362,685.787C740.108,685.787 739.908,685.717 739.762,685.577C739.615,685.437 739.542,685.24 739.542,684.987L739.542,679.667C739.542,678.76 739.365,678.1 739.012,677.687C738.658,677.274 738.095,677.067 737.322,677.067C736.428,677.067 735.715,677.34 735.182,677.887C734.648,678.434 734.382,679.174 734.382,680.107L734.382,684.987C734.382,685.24 734.312,685.437 734.172,685.577C734.032,685.717 733.835,685.787 733.582,685.787C733.328,685.787 733.128,685.717 732.982,685.577C732.835,685.437 732.762,685.24 732.762,684.987L732.762,676.547C732.762,676.307 732.835,676.114 732.982,675.967C733.128,675.82 733.328,675.747 733.582,675.747C733.822,675.747 734.012,675.82 734.152,675.967C734.292,676.114 734.362,676.3 734.362,676.527L734.362,677.547C734.682,676.947 735.128,676.49 735.702,676.177C736.275,675.864 736.928,675.707 737.662,675.707Z" style="fill:rgb(103,103,108);fill-rule:nonzero;"/>
            <path d="M748.622,684.507C749.088,684.547 749.322,684.76 749.322,685.147C749.322,685.374 749.238,685.544 749.072,685.657C748.905,685.77 748.655,685.814 748.322,685.787L747.782,685.747C746.715,685.667 745.928,685.347 745.422,684.787C744.915,684.227 744.662,683.38 744.662,682.247L744.662,677.227L743.322,677.227C743.095,677.227 742.918,677.17 742.792,677.057C742.665,676.944 742.602,676.794 742.602,676.607C742.602,676.407 742.665,676.247 742.792,676.127C742.918,676.007 743.095,675.947 743.322,675.947L744.662,675.947L744.662,673.687C744.662,673.434 744.735,673.237 744.882,673.097C745.028,672.957 745.228,672.887 745.482,672.887C745.722,672.887 745.915,672.957 746.062,673.097C746.208,673.237 746.282,673.434 746.282,673.687L746.282,675.947L748.502,675.947C748.715,675.947 748.885,676.007 749.012,676.127C749.138,676.247 749.202,676.407 749.202,676.607C749.202,676.794 749.138,676.944 749.012,677.057C748.885,677.17 748.715,677.227 748.502,677.227L746.282,677.227L746.282,682.327C746.282,683.06 746.432,683.59 746.732,683.917C747.032,684.244 747.482,684.427 748.082,684.467L748.622,684.507Z" style="fill:rgb(103,103,108);fill-rule:nonzero;"/>
            <path d="M763.482,675.747C763.735,675.747 763.932,675.82 764.072,675.967C764.212,676.114 764.282,676.307 764.282,676.547L764.282,685.007C764.282,685.234 764.212,685.42 764.072,685.567C763.932,685.714 763.735,685.787 763.482,685.787C763.242,685.787 763.052,685.717 762.912,685.577C762.772,685.437 762.702,685.254 762.702,685.027L762.702,684.027C762.395,684.614 761.965,685.06 761.412,685.367C760.858,685.674 760.235,685.827 759.542,685.827C758.382,685.827 757.508,685.504 756.922,684.857C756.335,684.21 756.042,683.254 756.042,681.987L756.042,676.547C756.042,676.307 756.115,676.114 756.262,675.967C756.408,675.82 756.608,675.747 756.862,675.747C757.115,675.747 757.312,675.82 757.452,675.967C757.592,676.114 757.662,676.307 757.662,676.547L757.662,681.947C757.662,682.814 757.835,683.45 758.182,683.857C758.528,684.264 759.075,684.467 759.822,684.467C760.675,684.467 761.362,684.19 761.882,683.637C762.402,683.084 762.662,682.354 762.662,681.447L762.662,676.547C762.662,676.307 762.735,676.114 762.882,675.967C763.028,675.82 763.228,675.747 763.482,675.747Z" style="fill:rgb(103,103,108);fill-rule:nonzero;"/>
            <path d="M772.202,675.707C773.055,675.707 773.808,675.92 774.462,676.347C775.115,676.774 775.622,677.37 775.982,678.137C776.342,678.904 776.522,679.794 776.522,680.807C776.522,681.82 776.342,682.704 775.982,683.457C775.622,684.21 775.118,684.794 774.472,685.207C773.825,685.62 773.068,685.827 772.202,685.827C771.442,685.827 770.778,685.66 770.212,685.327C769.645,684.994 769.215,684.52 768.922,683.907L768.922,688.607C768.922,688.847 768.852,689.037 768.712,689.177C768.572,689.317 768.375,689.387 768.122,689.387C767.868,689.387 767.668,689.314 767.522,689.167C767.375,689.02 767.302,688.834 767.302,688.607L767.302,676.547C767.302,676.307 767.375,676.114 767.522,675.967C767.668,675.82 767.868,675.747 768.122,675.747C768.375,675.747 768.572,675.82 768.712,675.967C768.852,676.114 768.922,676.307 768.922,676.547L768.922,677.627C769.215,677.014 769.645,676.54 770.212,676.207C770.778,675.874 771.442,675.707 772.202,675.707ZM771.882,684.487C772.828,684.487 773.562,684.167 774.082,683.527C774.602,682.887 774.862,681.98 774.862,680.807C774.862,679.634 774.602,678.717 774.082,678.057C773.562,677.397 772.828,677.067 771.882,677.067C770.935,677.067 770.205,677.387 769.692,678.027C769.178,678.667 768.922,679.58 768.922,680.767C768.922,681.954 769.178,682.87 769.692,683.517C770.205,684.164 770.935,684.487 771.882,684.487Z" style="fill:rgb(103,103,108);fill-rule:nonzero;"/>
            <path d="M786.762,671.487C787.015,671.487 787.215,671.56 787.362,671.707C787.508,671.854 787.582,672.04 787.582,672.267L787.582,684.987C787.582,685.227 787.508,685.42 787.362,685.567C787.215,685.714 787.015,685.787 786.762,685.787C786.508,685.787 786.312,685.714 786.172,685.567C786.032,685.42 785.962,685.227 785.962,684.987L785.962,683.907C785.668,684.52 785.238,684.994 784.672,685.327C784.105,685.66 783.442,685.827 782.682,685.827C781.828,685.827 781.075,685.614 780.422,685.187C779.768,684.76 779.262,684.164 778.902,683.397C778.542,682.63 778.362,681.74 778.362,680.727C778.362,679.727 778.542,678.847 778.902,678.087C779.262,677.327 779.768,676.74 780.422,676.327C781.075,675.914 781.828,675.707 782.682,675.707C783.442,675.707 784.105,675.874 784.672,676.207C785.238,676.54 785.668,677.014 785.962,677.627L785.962,672.267C785.962,672.027 786.032,671.837 786.172,671.697C786.312,671.557 786.508,671.487 786.762,671.487ZM783.002,684.487C783.948,684.487 784.678,684.164 785.192,683.517C785.705,682.87 785.962,681.954 785.962,680.767C785.962,679.58 785.705,678.667 785.192,678.027C784.678,677.387 783.948,677.067 783.002,677.067C782.055,677.067 781.318,677.387 780.792,678.027C780.265,678.667 780.002,679.567 780.002,680.727C780.002,681.914 780.265,682.837 780.792,683.497C781.318,684.157 782.055,684.487 783.002,684.487Z" style="fill:rgb(103,103,108);fill-rule:nonzero;"/>
            <path d="M794.562,675.707C797.002,675.707 798.222,676.987 798.222,679.547L798.222,684.987C798.222,685.227 798.152,685.42 798.012,685.567C797.872,685.714 797.682,685.787 797.442,685.787C797.202,685.787 797.008,685.714 796.862,685.567C796.715,685.42 796.642,685.227 796.642,684.987L796.642,684.027C796.388,684.6 796.002,685.044 795.482,685.357C794.962,685.67 794.362,685.827 793.682,685.827C793.055,685.827 792.478,685.7 791.952,685.447C791.425,685.194 791.008,684.84 790.702,684.387C790.395,683.934 790.242,683.434 790.242,682.887C790.242,682.154 790.428,681.584 790.802,681.177C791.175,680.77 791.788,680.477 792.642,680.297C793.495,680.117 794.682,680.027 796.202,680.027L796.642,680.027L796.642,679.367C796.642,678.567 796.478,677.98 796.152,677.607C795.825,677.234 795.295,677.047 794.562,677.047C793.655,677.047 792.735,677.294 791.802,677.787C791.442,678.014 791.188,678.127 791.042,678.127C790.882,678.127 790.748,678.067 790.642,677.947C790.535,677.827 790.482,677.674 790.482,677.487C790.482,677.3 790.538,677.137 790.652,676.997C790.765,676.857 790.948,676.714 791.202,676.567C791.668,676.3 792.198,676.09 792.792,675.937C793.385,675.784 793.975,675.707 794.562,675.707ZM793.902,684.547C794.702,684.547 795.358,684.277 795.872,683.737C796.385,683.197 796.642,682.5 796.642,681.647L796.642,681.067L796.282,681.067C795.108,681.067 794.215,681.117 793.602,681.217C792.988,681.317 792.552,681.484 792.292,681.717C792.032,681.95 791.902,682.294 791.902,682.747C791.902,683.267 792.092,683.697 792.472,684.037C792.852,684.377 793.328,684.547 793.902,684.547Z" style="fill:rgb(103,103,108);fill-rule:nonzero;"/>
            <path d="M805.682,684.507C806.148,684.547 806.382,684.76 806.382,685.147C806.382,685.374 806.298,685.544 806.132,685.657C805.965,685.77 805.715,685.814 805.382,685.787L804.842,685.747C803.775,685.667 802.988,685.347 802.482,684.787C801.975,684.227 801.722,683.38 801.722,682.247L801.722,677.227L800.382,677.227C800.155,677.227 799.978,677.17 799.852,677.057C799.725,676.944 799.662,676.794 799.662,676.607C799.662,676.407 799.725,676.247 799.852,676.127C799.978,676.007 800.155,675.947 800.382,675.947L801.722,675.947L801.722,673.687C801.722,673.434 801.795,673.237 801.942,673.097C802.088,672.957 802.288,672.887 802.542,672.887C802.782,672.887 802.975,672.957 803.122,673.097C803.268,673.237 803.342,673.434 803.342,673.687L803.342,675.947L805.562,675.947C805.775,675.947 805.945,676.007 806.072,676.127C806.198,676.247 806.262,676.407 806.262,676.607C806.262,676.794 806.198,676.944 806.072,677.057C805.945,677.17 805.775,677.227 805.562,677.227L803.342,677.227L803.342,682.327C803.342,683.06 803.492,683.59 803.792,683.917C804.092,684.244 804.542,684.427 805.142,684.467L805.682,684.507Z" style="fill:rgb(103,103,108);fill-rule:nonzero;"/>
            <path d="M815.522,683.427C815.668,683.427 815.795,683.487 815.902,683.607C816.008,683.727 816.062,683.88 816.062,684.067C816.062,684.4 815.828,684.707 815.362,684.987C814.882,685.267 814.375,685.477 813.842,685.617C813.308,685.757 812.788,685.827 812.282,685.827C810.775,685.827 809.585,685.38 808.712,684.487C807.838,683.594 807.402,682.36 807.402,680.787C807.402,679.787 807.595,678.904 807.982,678.137C808.368,677.37 808.912,676.774 809.612,676.347C810.312,675.92 811.108,675.707 812.002,675.707C813.268,675.707 814.275,676.12 815.022,676.947C815.768,677.774 816.142,678.894 816.142,680.307C816.142,680.574 816.088,680.767 815.982,680.887C815.875,681.007 815.702,681.067 815.462,681.067L809.022,681.067C809.142,683.36 810.228,684.507 812.282,684.507C812.802,684.507 813.248,684.437 813.622,684.297C813.995,684.157 814.395,683.967 814.822,683.727C815.168,683.527 815.402,683.427 815.522,683.427ZM812.022,676.967C811.168,676.967 810.485,677.234 809.972,677.767C809.458,678.3 809.155,679.054 809.062,680.027L814.722,680.027C814.695,679.04 814.448,678.284 813.982,677.757C813.515,677.23 812.862,676.967 812.022,676.967Z" style="fill:rgb(103,103,108);fill-rule:nonzero;"/>
            <path d="M821.802,685.827C821.188,685.827 820.605,685.754 820.052,685.607C819.498,685.46 819.008,685.254 818.582,684.987C818.342,684.827 818.172,684.677 818.072,684.537C817.972,684.397 817.922,684.227 817.922,684.027C817.922,683.854 817.972,683.71 818.072,683.597C818.172,683.484 818.302,683.427 818.462,683.427C818.622,683.427 818.855,683.527 819.162,683.727C819.562,683.967 819.958,684.157 820.352,684.297C820.745,684.437 821.235,684.507 821.822,684.507C822.542,684.507 823.102,684.38 823.502,684.127C823.902,683.874 824.102,683.507 824.102,683.027C824.102,682.734 824.028,682.497 823.882,682.317C823.735,682.137 823.482,681.977 823.122,681.837C822.762,681.697 822.235,681.554 821.542,681.407C820.368,681.154 819.528,680.814 819.022,680.387C818.515,679.96 818.262,679.38 818.262,678.647C818.262,678.074 818.422,677.567 818.742,677.127C819.062,676.687 819.505,676.34 820.072,676.087C820.638,675.834 821.282,675.707 822.002,675.707C822.522,675.707 823.025,675.777 823.512,675.917C823.998,676.057 824.428,676.254 824.802,676.507C825.255,676.827 825.482,677.16 825.482,677.507C825.482,677.68 825.428,677.827 825.322,677.947C825.215,678.067 825.088,678.127 824.942,678.127C824.782,678.127 824.542,678.014 824.222,677.787C823.848,677.547 823.495,677.36 823.162,677.227C822.828,677.094 822.415,677.027 821.922,677.027C821.295,677.027 820.792,677.167 820.412,677.447C820.032,677.727 819.842,678.1 819.842,678.567C819.842,678.86 819.912,679.097 820.052,679.277C820.192,679.457 820.425,679.617 820.752,679.757C821.078,679.897 821.548,680.034 822.162,680.167C823.068,680.367 823.772,680.587 824.272,680.827C824.772,681.067 825.128,681.36 825.342,681.707C825.555,682.054 825.662,682.494 825.662,683.027C825.662,683.867 825.308,684.544 824.602,685.057C823.895,685.57 822.962,685.827 821.802,685.827Z" style="fill:rgb(103,103,108);fill-rule:nonzero;"/>
            <path d="M838.182,675.707C839.035,675.707 839.788,675.914 840.442,676.327C841.095,676.74 841.602,677.327 841.962,678.087C842.322,678.847 842.502,679.727 842.502,680.727C842.502,681.74 842.322,682.63 841.962,683.397C841.602,684.164 841.095,684.76 840.442,685.187C839.788,685.614 839.035,685.827 838.182,685.827C837.422,685.827 836.758,685.66 836.192,685.327C835.625,684.994 835.195,684.52 834.902,683.907L834.902,684.987C834.902,685.227 834.832,685.42 834.692,685.567C834.552,685.714 834.355,685.787 834.102,685.787C833.848,685.787 833.648,685.714 833.502,685.567C833.355,685.42 833.282,685.227 833.282,684.987L833.282,672.267C833.282,672.04 833.355,671.854 833.502,671.707C833.648,671.56 833.848,671.487 834.102,671.487C834.355,671.487 834.552,671.557 834.692,671.697C834.832,671.837 834.902,672.027 834.902,672.267L834.902,677.627C835.195,677.014 835.625,676.54 836.192,676.207C836.758,675.874 837.422,675.707 838.182,675.707ZM837.862,684.487C838.808,684.487 839.542,684.157 840.062,683.497C840.582,682.837 840.842,681.914 840.842,680.727C840.842,679.567 840.582,678.667 840.062,678.027C839.542,677.387 838.808,677.067 837.862,677.067C836.915,677.067 836.185,677.387 835.672,678.027C835.158,678.667 834.902,679.58 834.902,680.767C834.902,681.954 835.158,682.87 835.672,683.517C836.185,684.164 836.915,684.487 837.862,684.487Z" style="fill:rgb(103,103,108);fill-rule:nonzero;"/>
            <path d="M848.902,675.707C851.342,675.707 852.562,676.987 852.562,679.547L852.562,684.987C852.562,685.227 852.492,685.42 852.352,685.567C852.212,685.714 852.022,685.787 851.782,685.787C851.542,685.787 851.348,685.714 851.202,685.567C851.055,685.42 850.982,685.227 850.982,684.987L850.982,684.027C850.728,684.6 850.342,685.044 849.822,685.357C849.302,685.67 848.702,685.827 848.022,685.827C847.395,685.827 846.818,685.7 846.292,685.447C845.765,685.194 845.348,684.84 845.042,684.387C844.735,683.934 844.582,683.434 844.582,682.887C844.582,682.154 844.768,681.584 845.142,681.177C845.515,680.77 846.128,680.477 846.982,680.297C847.835,680.117 849.022,680.027 850.542,680.027L850.982,680.027L850.982,679.367C850.982,678.567 850.818,677.98 850.492,677.607C850.165,677.234 849.635,677.047 848.902,677.047C847.995,677.047 847.075,677.294 846.142,677.787C845.782,678.014 845.528,678.127 845.382,678.127C845.222,678.127 845.088,678.067 844.982,677.947C844.875,677.827 844.822,677.674 844.822,677.487C844.822,677.3 844.878,677.137 844.992,676.997C845.105,676.857 845.288,676.714 845.542,676.567C846.008,676.3 846.538,676.09 847.132,675.937C847.725,675.784 848.315,675.707 848.902,675.707ZM848.242,684.547C849.042,684.547 849.698,684.277 850.212,683.737C850.725,683.197 850.982,682.5 850.982,681.647L850.982,681.067L850.622,681.067C849.448,681.067 848.555,681.117 847.942,681.217C847.328,681.317 846.892,681.484 846.632,681.717C846.372,681.95 846.242,682.294 846.242,682.747C846.242,683.267 846.432,683.697 846.812,684.037C847.192,684.377 847.668,684.547 848.242,684.547Z" style="fill:rgb(103,103,108);fill-rule:nonzero;"/>
            <path d="M858.802,685.827C858.188,685.827 857.605,685.754 857.052,685.607C856.498,685.46 856.008,685.254 855.582,684.987C855.342,684.827 855.172,684.677 855.072,684.537C854.972,684.397 854.922,684.227 854.922,684.027C854.922,683.854 854.972,683.71 855.072,683.597C855.172,683.484 855.302,683.427 855.462,683.427C855.622,683.427 855.855,683.527 856.162,683.727C856.562,683.967 856.958,684.157 857.352,684.297C857.745,684.437 858.235,684.507 858.822,684.507C859.542,684.507 860.102,684.38 860.502,684.127C860.902,683.874 861.102,683.507 861.102,683.027C861.102,682.734 861.028,682.497 860.882,682.317C860.735,682.137 860.482,681.977 860.122,681.837C859.762,681.697 859.235,681.554 858.542,681.407C857.368,681.154 856.528,680.814 856.022,680.387C855.515,679.96 855.262,679.38 855.262,678.647C855.262,678.074 855.422,677.567 855.742,677.127C856.062,676.687 856.505,676.34 857.072,676.087C857.638,675.834 858.282,675.707 859.002,675.707C859.522,675.707 860.025,675.777 860.512,675.917C860.998,676.057 861.428,676.254 861.802,676.507C862.255,676.827 862.482,677.16 862.482,677.507C862.482,677.68 862.428,677.827 862.322,677.947C862.215,678.067 862.088,678.127 861.942,678.127C861.782,678.127 861.542,678.014 861.222,677.787C860.848,677.547 860.495,677.36 860.162,677.227C859.828,677.094 859.415,677.027 858.922,677.027C858.295,677.027 857.792,677.167 857.412,677.447C857.032,677.727 856.842,678.1 856.842,678.567C856.842,678.86 856.912,679.097 857.052,679.277C857.192,679.457 857.425,679.617 857.752,679.757C858.078,679.897 858.548,680.034 859.162,680.167C860.068,680.367 860.772,680.587 861.272,680.827C861.772,681.067 862.128,681.36 862.342,681.707C862.555,682.054 862.662,682.494 862.662,683.027C862.662,683.867 862.308,684.544 861.602,685.057C860.895,685.57 859.962,685.827 858.802,685.827Z" style="fill:rgb(103,103,108);fill-rule:nonzero;"/>
            <path d="M872.662,683.427C872.808,683.427 872.935,683.487 873.042,683.607C873.148,683.727 873.202,683.88 873.202,684.067C873.202,684.4 872.968,684.707 872.502,684.987C872.022,685.267 871.515,685.477 870.982,685.617C870.448,685.757 869.928,685.827 869.422,685.827C867.915,685.827 866.725,685.38 865.852,684.487C864.978,683.594 864.542,682.36 864.542,680.787C864.542,679.787 864.735,678.904 865.122,678.137C865.508,677.37 866.052,676.774 866.752,676.347C867.452,675.92 868.248,675.707 869.142,675.707C870.408,675.707 871.415,676.12 872.162,676.947C872.908,677.774 873.282,678.894 873.282,680.307C873.282,680.574 873.228,680.767 873.122,680.887C873.015,681.007 872.842,681.067 872.602,681.067L866.162,681.067C866.282,683.36 867.368,684.507 869.422,684.507C869.942,684.507 870.388,684.437 870.762,684.297C871.135,684.157 871.535,683.967 871.962,683.727C872.308,683.527 872.542,683.427 872.662,683.427ZM869.162,676.967C868.308,676.967 867.625,677.234 867.112,677.767C866.598,678.3 866.295,679.054 866.202,680.027L871.862,680.027C871.835,679.04 871.588,678.284 871.122,677.757C870.655,677.23 870.002,676.967 869.162,676.967Z" style="fill:rgb(103,103,108);fill-rule:nonzero;"/>
            <path d="M883.482,671.487C883.735,671.487 883.935,671.56 884.082,671.707C884.228,671.854 884.302,672.04 884.302,672.267L884.302,684.987C884.302,685.227 884.228,685.42 884.082,685.567C883.935,685.714 883.735,685.787 883.482,685.787C883.228,685.787 883.032,685.714 882.892,685.567C882.752,685.42 882.682,685.227 882.682,684.987L882.682,683.907C882.388,684.52 881.958,684.994 881.392,685.327C880.825,685.66 880.162,685.827 879.402,685.827C878.548,685.827 877.795,685.614 877.142,685.187C876.488,684.76 875.982,684.164 875.622,683.397C875.262,682.63 875.082,681.74 875.082,680.727C875.082,679.727 875.262,678.847 875.622,678.087C875.982,677.327 876.488,676.74 877.142,676.327C877.795,675.914 878.548,675.707 879.402,675.707C880.162,675.707 880.825,675.874 881.392,676.207C881.958,676.54 882.388,677.014 882.682,677.627L882.682,672.267C882.682,672.027 882.752,671.837 882.892,671.697C883.032,671.557 883.228,671.487 883.482,671.487ZM879.722,684.487C880.668,684.487 881.398,684.164 881.912,683.517C882.425,682.87 882.682,681.954 882.682,680.767C882.682,679.58 882.425,678.667 881.912,678.027C881.398,677.387 880.668,677.067 879.722,677.067C878.775,677.067 878.038,677.387 877.512,678.027C876.985,678.667 876.722,679.567 876.722,680.727C876.722,681.914 876.985,682.837 877.512,683.497C878.038,684.157 878.775,684.487 879.722,684.487Z" style="fill:rgb(103,103,108);fill-rule:nonzero;"/>
            <path d="M706.662,709.827C705.742,709.827 704.932,709.62 704.232,709.207C703.532,708.794 702.992,708.204 702.612,707.437C702.232,706.67 702.042,705.78 702.042,704.767C702.042,703.754 702.232,702.864 702.612,702.097C702.992,701.33 703.532,700.74 704.232,700.327C704.932,699.914 705.742,699.707 706.662,699.707C707.582,699.707 708.395,699.914 709.102,700.327C709.808,700.74 710.352,701.33 710.732,702.097C711.112,702.864 711.302,703.754 711.302,704.767C711.302,705.78 711.112,706.67 710.732,707.437C710.352,708.204 709.808,708.794 709.102,709.207C708.395,709.62 707.582,709.827 706.662,709.827ZM706.662,708.487C707.622,708.487 708.358,708.17 708.872,707.537C709.385,706.904 709.642,705.98 709.642,704.767C709.642,703.58 709.382,702.664 708.862,702.017C708.342,701.37 707.608,701.047 706.662,701.047C705.715,701.047 704.982,701.37 704.462,702.017C703.942,702.664 703.682,703.58 703.682,704.767C703.682,705.967 703.938,706.887 704.452,707.527C704.965,708.167 705.702,708.487 706.662,708.487Z" style="fill:rgb(103,103,108);fill-rule:nonzero;"/>
            <path d="M718.622,699.707C720.955,699.707 722.122,700.994 722.122,703.567L722.122,708.987C722.122,709.24 722.052,709.437 721.912,709.577C721.772,709.717 721.575,709.787 721.322,709.787C721.068,709.787 720.868,709.717 720.722,709.577C720.575,709.437 720.502,709.24 720.502,708.987L720.502,703.667C720.502,702.76 720.325,702.1 719.972,701.687C719.618,701.274 719.055,701.067 718.282,701.067C717.388,701.067 716.675,701.34 716.142,701.887C715.608,702.434 715.342,703.174 715.342,704.107L715.342,708.987C715.342,709.24 715.272,709.437 715.132,709.577C714.992,709.717 714.795,709.787 714.542,709.787C714.288,709.787 714.088,709.717 713.942,709.577C713.795,709.437 713.722,709.24 713.722,708.987L713.722,700.547C713.722,700.307 713.795,700.114 713.942,699.967C714.088,699.82 714.288,699.747 714.542,699.747C714.782,699.747 714.972,699.82 715.112,699.967C715.252,700.114 715.322,700.3 715.322,700.527L715.322,701.547C715.642,700.947 716.088,700.49 716.662,700.177C717.235,699.864 717.888,699.707 718.622,699.707Z" style="fill:rgb(103,103,108);fill-rule:nonzero;"/>
            <path d="M734.742,708.507C735.208,708.547 735.442,708.76 735.442,709.147C735.442,709.374 735.358,709.544 735.192,709.657C735.025,709.77 734.775,709.814 734.442,709.787L733.902,709.747C732.835,709.667 732.048,709.347 731.542,708.787C731.035,708.227 730.782,707.38 730.782,706.247L730.782,701.227L729.442,701.227C729.215,701.227 729.038,701.17 728.912,701.057C728.785,700.944 728.722,700.794 728.722,700.607C728.722,700.407 728.785,700.247 728.912,700.127C729.038,700.007 729.215,699.947 729.442,699.947L730.782,699.947L730.782,697.687C730.782,697.434 730.855,697.237 731.002,697.097C731.148,696.957 731.348,696.887 731.602,696.887C731.842,696.887 732.035,696.957 732.182,697.097C732.328,697.237 732.402,697.434 732.402,697.687L732.402,699.947L734.622,699.947C734.835,699.947 735.005,700.007 735.132,700.127C735.258,700.247 735.322,700.407 735.322,700.607C735.322,700.794 735.258,700.944 735.132,701.057C735.005,701.17 734.835,701.227 734.622,701.227L732.402,701.227L732.402,706.327C732.402,707.06 732.552,707.59 732.852,707.917C733.152,708.244 733.602,708.427 734.202,708.467L734.742,708.507Z" style="fill:rgb(103,103,108);fill-rule:nonzero;"/>
            <path d="M741.962,699.707C743.108,699.707 743.975,700.03 744.562,700.677C745.148,701.324 745.442,702.287 745.442,703.567L745.442,708.987C745.442,709.24 745.368,709.437 745.222,709.577C745.075,709.717 744.882,709.787 744.642,709.787C744.388,709.787 744.188,709.717 744.042,709.577C743.895,709.437 743.822,709.24 743.822,708.987L743.822,703.607C743.822,702.74 743.645,702.1 743.292,701.687C742.938,701.274 742.375,701.067 741.602,701.067C740.708,701.067 739.995,701.34 739.462,701.887C738.928,702.434 738.662,703.174 738.662,704.107L738.662,708.987C738.662,709.24 738.592,709.437 738.452,709.577C738.312,709.717 738.115,709.787 737.862,709.787C737.608,709.787 737.408,709.717 737.262,709.577C737.115,709.437 737.042,709.24 737.042,708.987L737.042,696.267C737.042,696.04 737.118,695.854 737.272,695.707C737.425,695.56 737.622,695.487 737.862,695.487C738.115,695.487 738.312,695.557 738.452,695.697C738.592,695.837 738.662,696.027 738.662,696.267L738.662,701.507C738.982,700.92 739.428,700.474 740.002,700.167C740.575,699.86 741.228,699.707 741.962,699.707Z" style="fill:rgb(103,103,108);fill-rule:nonzero;"/>
            <path d="M753.222,699.747C753.782,699.707 754.062,699.934 754.062,700.427C754.062,700.64 754.002,700.81 753.882,700.937C753.762,701.064 753.555,701.14 753.262,701.167L752.662,701.227C751.768,701.307 751.105,701.624 750.672,702.177C750.238,702.73 750.022,703.38 750.022,704.127L750.022,708.987C750.022,709.254 749.948,709.454 749.802,709.587C749.655,709.72 749.462,709.787 749.222,709.787C748.982,709.787 748.785,709.717 748.632,709.577C748.478,709.437 748.402,709.24 748.402,708.987L748.402,700.547C748.402,700.294 748.482,700.097 748.642,699.957C748.802,699.817 748.995,699.747 749.222,699.747C749.435,699.747 749.615,699.817 749.762,699.957C749.908,700.097 749.982,700.287 749.982,700.527L749.982,701.647C750.262,701.06 750.658,700.614 751.172,700.307C751.685,700 752.275,699.82 752.942,699.767L753.222,699.747Z" style="fill:rgb(103,103,108);fill-rule:nonzero;"/>
            <path d="M762.802,707.427C762.948,707.427 763.075,707.487 763.182,707.607C763.288,707.727 763.342,707.88 763.342,708.067C763.342,708.4 763.108,708.707 762.642,708.987C762.162,709.267 761.655,709.477 761.122,709.617C760.588,709.757 760.068,709.827 759.562,709.827C758.055,709.827 756.865,709.38 755.992,708.487C755.118,707.594 754.682,706.36 754.682,704.787C754.682,703.787 754.875,702.904 755.262,702.137C755.648,701.37 756.192,700.774 756.892,700.347C757.592,699.92 758.388,699.707 759.282,699.707C760.548,699.707 761.555,700.12 762.302,700.947C763.048,701.774 763.422,702.894 763.422,704.307C763.422,704.574 763.368,704.767 763.262,704.887C763.155,705.007 762.982,705.067 762.742,705.067L756.302,705.067C756.422,707.36 757.508,708.507 759.562,708.507C760.082,708.507 760.528,708.437 760.902,708.297C761.275,708.157 761.675,707.967 762.102,707.727C762.448,707.527 762.682,707.427 762.802,707.427ZM759.302,700.967C758.448,700.967 757.765,701.234 757.252,701.767C756.738,702.3 756.435,703.054 756.342,704.027L762.002,704.027C761.975,703.04 761.728,702.284 761.262,701.757C760.795,701.23 760.142,700.967 759.302,700.967Z" style="fill:rgb(103,103,108);fill-rule:nonzero;"/>
            <path d="M769.782,699.707C772.222,699.707 773.442,700.987 773.442,703.547L773.442,708.987C773.442,709.227 773.372,709.42 773.232,709.567C773.092,709.714 772.902,709.787 772.662,709.787C772.422,709.787 772.228,709.714 772.082,709.567C771.935,709.42 771.862,709.227 771.862,708.987L771.862,708.027C771.608,708.6 771.222,709.044 770.702,709.357C770.182,709.67 769.582,709.827 768.902,709.827C768.275,709.827 767.698,709.7 767.172,709.447C766.645,709.194 766.228,708.84 765.922,708.387C765.615,707.934 765.462,707.434 765.462,706.887C765.462,706.154 765.648,705.584 766.022,705.177C766.395,704.77 767.008,704.477 767.862,704.297C768.715,704.117 769.902,704.027 771.422,704.027L771.862,704.027L771.862,703.367C771.862,702.567 771.698,701.98 771.372,701.607C771.045,701.234 770.515,701.047 769.782,701.047C768.875,701.047 767.955,701.294 767.022,701.787C766.662,702.014 766.408,702.127 766.262,702.127C766.102,702.127 765.968,702.067 765.862,701.947C765.755,701.827 765.702,701.674 765.702,701.487C765.702,701.3 765.758,701.137 765.872,700.997C765.985,700.857 766.168,700.714 766.422,700.567C766.888,700.3 767.418,700.09 768.012,699.937C768.605,699.784 769.195,699.707 769.782,699.707ZM769.122,708.547C769.922,708.547 770.578,708.277 771.092,707.737C771.605,707.197 771.862,706.5 771.862,705.647L771.862,705.067L771.502,705.067C770.328,705.067 769.435,705.117 768.822,705.217C768.208,705.317 767.772,705.484 767.512,705.717C767.252,705.95 767.122,706.294 767.122,706.747C767.122,707.267 767.312,707.697 767.692,708.037C768.072,708.377 768.548,708.547 769.122,708.547Z" style="fill:rgb(103,103,108);fill-rule:nonzero;"/>
            <path d="M780.902,708.507C781.368,708.547 781.602,708.76 781.602,709.147C781.602,709.374 781.518,709.544 781.352,709.657C781.185,709.77 780.935,709.814 780.602,709.787L780.062,709.747C778.995,709.667 778.208,709.347 777.702,708.787C777.195,708.227 776.942,707.38 776.942,706.247L776.942,701.227L775.602,701.227C775.375,701.227 775.198,701.17 775.072,701.057C774.945,700.944 774.882,700.794 774.882,700.607C774.882,700.407 774.945,700.247 775.072,700.127C775.198,700.007 775.375,699.947 775.602,699.947L776.942,699.947L776.942,697.687C776.942,697.434 777.015,697.237 777.162,697.097C777.308,696.957 777.508,696.887 777.762,696.887C778.002,696.887 778.195,696.957 778.342,697.097C778.488,697.237 778.562,697.434 778.562,697.687L778.562,699.947L780.782,699.947C780.995,699.947 781.165,700.007 781.292,700.127C781.418,700.247 781.482,700.407 781.482,700.607C781.482,700.794 781.418,700.944 781.292,701.057C781.165,701.17 780.995,701.227 780.782,701.227L778.562,701.227L778.562,706.327C778.562,707.06 778.712,707.59 779.012,707.917C779.312,708.244 779.762,708.427 780.362,708.467L780.902,708.507Z" style="fill:rgb(103,103,108);fill-rule:nonzero;"/>
            <path d="M793.182,699.747C793.742,699.707 794.022,699.934 794.022,700.427C794.022,700.64 793.962,700.81 793.842,700.937C793.722,701.064 793.515,701.14 793.222,701.167L792.622,701.227C791.728,701.307 791.065,701.624 790.632,702.177C790.198,702.73 789.982,703.38 789.982,704.127L789.982,708.987C789.982,709.254 789.908,709.454 789.762,709.587C789.615,709.72 789.422,709.787 789.182,709.787C788.942,709.787 788.745,709.717 788.592,709.577C788.438,709.437 788.362,709.24 788.362,708.987L788.362,700.547C788.362,700.294 788.442,700.097 788.602,699.957C788.762,699.817 788.955,699.747 789.182,699.747C789.395,699.747 789.575,699.817 789.722,699.957C789.868,700.097 789.942,700.287 789.942,700.527L789.942,701.647C790.222,701.06 790.618,700.614 791.132,700.307C791.645,700 792.235,699.82 792.902,699.767L793.182,699.747Z" style="fill:rgb(103,103,108);fill-rule:nonzero;"/>
            <path d="M802.762,707.427C802.908,707.427 803.035,707.487 803.142,707.607C803.248,707.727 803.302,707.88 803.302,708.067C803.302,708.4 803.068,708.707 802.602,708.987C802.122,709.267 801.615,709.477 801.082,709.617C800.548,709.757 800.028,709.827 799.522,709.827C798.015,709.827 796.825,709.38 795.952,708.487C795.078,707.594 794.642,706.36 794.642,704.787C794.642,703.787 794.835,702.904 795.222,702.137C795.608,701.37 796.152,700.774 796.852,700.347C797.552,699.92 798.348,699.707 799.242,699.707C800.508,699.707 801.515,700.12 802.262,700.947C803.008,701.774 803.382,702.894 803.382,704.307C803.382,704.574 803.328,704.767 803.222,704.887C803.115,705.007 802.942,705.067 802.702,705.067L796.262,705.067C796.382,707.36 797.468,708.507 799.522,708.507C800.042,708.507 800.488,708.437 800.862,708.297C801.235,708.157 801.635,707.967 802.062,707.727C802.408,707.527 802.642,707.427 802.762,707.427ZM799.262,700.967C798.408,700.967 797.725,701.234 797.212,701.767C796.698,702.3 796.395,703.054 796.302,704.027L801.962,704.027C801.935,703.04 801.688,702.284 801.222,701.757C800.755,701.23 800.102,700.967 799.262,700.967Z" style="fill:rgb(103,103,108);fill-rule:nonzero;"/>
            <path d="M809.042,709.827C808.428,709.827 807.845,709.754 807.292,709.607C806.738,709.46 806.248,709.254 805.822,708.987C805.582,708.827 805.412,708.677 805.312,708.537C805.212,708.397 805.162,708.227 805.162,708.027C805.162,707.854 805.212,707.71 805.312,707.597C805.412,707.484 805.542,707.427 805.702,707.427C805.862,707.427 806.095,707.527 806.402,707.727C806.802,707.967 807.198,708.157 807.592,708.297C807.985,708.437 808.475,708.507 809.062,708.507C809.782,708.507 810.342,708.38 810.742,708.127C811.142,707.874 811.342,707.507 811.342,707.027C811.342,706.734 811.268,706.497 811.122,706.317C810.975,706.137 810.722,705.977 810.362,705.837C810.002,705.697 809.475,705.554 808.782,705.407C807.608,705.154 806.768,704.814 806.262,704.387C805.755,703.96 805.502,703.38 805.502,702.647C805.502,702.074 805.662,701.567 805.982,701.127C806.302,700.687 806.745,700.34 807.312,700.087C807.878,699.834 808.522,699.707 809.242,699.707C809.762,699.707 810.265,699.777 810.752,699.917C811.238,700.057 811.668,700.254 812.042,700.507C812.495,700.827 812.722,701.16 812.722,701.507C812.722,701.68 812.668,701.827 812.562,701.947C812.455,702.067 812.328,702.127 812.182,702.127C812.022,702.127 811.782,702.014 811.462,701.787C811.088,701.547 810.735,701.36 810.402,701.227C810.068,701.094 809.655,701.027 809.162,701.027C808.535,701.027 808.032,701.167 807.652,701.447C807.272,701.727 807.082,702.1 807.082,702.567C807.082,702.86 807.152,703.097 807.292,703.277C807.432,703.457 807.665,703.617 807.992,703.757C808.318,703.897 808.788,704.034 809.402,704.167C810.308,704.367 811.012,704.587 811.512,704.827C812.012,705.067 812.368,705.36 812.582,705.707C812.795,706.054 812.902,706.494 812.902,707.027C812.902,707.867 812.548,708.544 811.842,709.057C811.135,709.57 810.202,709.827 809.042,709.827Z" style="fill:rgb(103,103,108);fill-rule:nonzero;"/>
            <path d="M822.902,707.427C823.048,707.427 823.175,707.487 823.282,707.607C823.388,707.727 823.442,707.88 823.442,708.067C823.442,708.4 823.208,708.707 822.742,708.987C822.262,709.267 821.755,709.477 821.222,709.617C820.688,709.757 820.168,709.827 819.662,709.827C818.155,709.827 816.965,709.38 816.092,708.487C815.218,707.594 814.782,706.36 814.782,704.787C814.782,703.787 814.975,702.904 815.362,702.137C815.748,701.37 816.292,700.774 816.992,700.347C817.692,699.92 818.488,699.707 819.382,699.707C820.648,699.707 821.655,700.12 822.402,700.947C823.148,701.774 823.522,702.894 823.522,704.307C823.522,704.574 823.468,704.767 823.362,704.887C823.255,705.007 823.082,705.067 822.842,705.067L816.402,705.067C816.522,707.36 817.608,708.507 819.662,708.507C820.182,708.507 820.628,708.437 821.002,708.297C821.375,708.157 821.775,707.967 822.202,707.727C822.548,707.527 822.782,707.427 822.902,707.427ZM819.402,700.967C818.548,700.967 817.865,701.234 817.352,701.767C816.838,702.3 816.535,703.054 816.442,704.027L822.102,704.027C822.075,703.04 821.828,702.284 821.362,701.757C820.895,701.23 820.242,700.967 819.402,700.967Z" style="fill:rgb(103,103,108);fill-rule:nonzero;"/>
            <path d="M829.882,699.707C832.322,699.707 833.542,700.987 833.542,703.547L833.542,708.987C833.542,709.227 833.472,709.42 833.332,709.567C833.192,709.714 833.002,709.787 832.762,709.787C832.522,709.787 832.328,709.714 832.182,709.567C832.035,709.42 831.962,709.227 831.962,708.987L831.962,708.027C831.708,708.6 831.322,709.044 830.802,709.357C830.282,709.67 829.682,709.827 829.002,709.827C828.375,709.827 827.798,709.7 827.272,709.447C826.745,709.194 826.328,708.84 826.022,708.387C825.715,707.934 825.562,707.434 825.562,706.887C825.562,706.154 825.748,705.584 826.122,705.177C826.495,704.77 827.108,704.477 827.962,704.297C828.815,704.117 830.002,704.027 831.522,704.027L831.962,704.027L831.962,703.367C831.962,702.567 831.798,701.98 831.472,701.607C831.145,701.234 830.615,701.047 829.882,701.047C828.975,701.047 828.055,701.294 827.122,701.787C826.762,702.014 826.508,702.127 826.362,702.127C826.202,702.127 826.068,702.067 825.962,701.947C825.855,701.827 825.802,701.674 825.802,701.487C825.802,701.3 825.858,701.137 825.972,700.997C826.085,700.857 826.268,700.714 826.522,700.567C826.988,700.3 827.518,700.09 828.112,699.937C828.705,699.784 829.295,699.707 829.882,699.707ZM829.222,708.547C830.022,708.547 830.678,708.277 831.192,707.737C831.705,707.197 831.962,706.5 831.962,705.647L831.962,705.067L831.602,705.067C830.428,705.067 829.535,705.117 828.922,705.217C828.308,705.317 827.872,705.484 827.612,705.717C827.352,705.95 827.222,706.294 827.222,706.747C827.222,707.267 827.412,707.697 827.792,708.037C828.172,708.377 828.648,708.547 829.222,708.547Z" style="fill:rgb(103,103,108);fill-rule:nonzero;"/>
            <path d="M841.322,699.747C841.882,699.707 842.162,699.934 842.162,700.427C842.162,700.64 842.102,700.81 841.982,700.937C841.862,701.064 841.655,701.14 841.362,701.167L840.762,701.227C839.868,701.307 839.205,701.624 838.772,702.177C838.338,702.73 838.122,703.38 838.122,704.127L838.122,708.987C838.122,709.254 838.048,709.454 837.902,709.587C837.755,709.72 837.562,709.787 837.322,709.787C837.082,709.787 836.885,709.717 836.732,709.577C836.578,709.437 836.502,709.24 836.502,708.987L836.502,700.547C836.502,700.294 836.582,700.097 836.742,699.957C836.902,699.817 837.095,699.747 837.322,699.747C837.535,699.747 837.715,699.817 837.862,699.957C838.008,700.097 838.082,700.287 838.082,700.527L838.082,701.647C838.362,701.06 838.758,700.614 839.272,700.307C839.785,700 840.375,699.82 841.042,699.767L841.322,699.747Z" style="fill:rgb(103,103,108);fill-rule:nonzero;"/>
            <path d="M847.382,709.827C846.475,709.827 845.672,709.62 844.972,709.207C844.272,708.794 843.732,708.207 843.352,707.447C842.972,706.687 842.782,705.807 842.782,704.807C842.782,703.807 842.978,702.92 843.372,702.147C843.765,701.374 844.315,700.774 845.022,700.347C845.728,699.92 846.542,699.707 847.462,699.707C847.968,699.707 848.472,699.777 848.972,699.917C849.472,700.057 849.908,700.26 850.282,700.527C850.522,700.687 850.692,700.844 850.792,700.997C850.892,701.15 850.942,701.32 850.942,701.507C850.942,701.694 850.892,701.847 850.792,701.967C850.692,702.087 850.562,702.147 850.402,702.147C850.308,702.147 850.208,702.12 850.102,702.067C849.995,702.014 849.905,701.96 849.832,701.907C849.758,701.854 849.708,701.82 849.682,701.807C849.335,701.58 849.005,701.4 848.692,701.267C848.378,701.134 847.995,701.067 847.542,701.067C846.568,701.067 845.812,701.397 845.272,702.057C844.732,702.717 844.462,703.634 844.462,704.807C844.462,705.98 844.732,706.887 845.272,707.527C845.812,708.167 846.568,708.487 847.542,708.487C847.995,708.487 848.385,708.42 848.712,708.287C849.038,708.154 849.368,707.974 849.702,707.747C849.848,707.654 849.988,707.574 850.122,707.507C850.255,707.44 850.368,707.407 850.462,707.407C850.608,707.407 850.732,707.467 850.832,707.587C850.932,707.707 850.982,707.86 850.982,708.047C850.982,708.22 850.935,708.377 850.842,708.517C850.748,708.657 850.575,708.814 850.322,708.987C849.948,709.24 849.498,709.444 848.972,709.597C848.445,709.75 847.915,709.827 847.382,709.827Z" style="fill:rgb(103,103,108);fill-rule:nonzero;"/>
            <path d="M857.862,699.707C859.008,699.707 859.875,700.03 860.462,700.677C861.048,701.324 861.342,702.287 861.342,703.567L861.342,708.987C861.342,709.24 861.268,709.437 861.122,709.577C860.975,709.717 860.782,709.787 860.542,709.787C860.288,709.787 860.088,709.717 859.942,709.577C859.795,709.437 859.722,709.24 859.722,708.987L859.722,703.607C859.722,702.74 859.545,702.1 859.192,701.687C858.838,701.274 858.275,701.067 857.502,701.067C856.608,701.067 855.895,701.34 855.362,701.887C854.828,702.434 854.562,703.174 854.562,704.107L854.562,708.987C854.562,709.24 854.492,709.437 854.352,709.577C854.212,709.717 854.015,709.787 853.762,709.787C853.508,709.787 853.308,709.717 853.162,709.577C853.015,709.437 852.942,709.24 852.942,708.987L852.942,696.267C852.942,696.04 853.018,695.854 853.172,695.707C853.325,695.56 853.522,695.487 853.762,695.487C854.015,695.487 854.212,695.557 854.352,695.697C854.492,695.837 854.562,696.027 854.562,696.267L854.562,701.507C854.882,700.92 855.328,700.474 855.902,700.167C856.475,699.86 857.128,699.707 857.862,699.707Z" style="fill:rgb(103,103,108);fill-rule:nonzero;"/>
        </g>
    </g>
</svg>
