<?xml version="1.0" encoding="UTF-8" standalone="no"?>
<!DOCTYPE svg PUBLIC "-//W3C//DTD SVG 1.1//EN" "http://www.w3.org/Graphics/SVG/1.1/DTD/svg11.dtd">
<svg width="100%" height="100%" viewBox="0 0 191 191" version="1.1" xmlns="http://www.w3.org/2000/svg" xmlns:xlink="http://www.w3.org/1999/xlink" xml:space="preserve" xmlns:serif="http://www.serif.com/" style="fill-rule:evenodd;clip-rule:evenodd;stroke-linejoin:round;stroke-miterlimit:1.41421;">
    <g transform="matrix(1,0,0,1,-466,-341)">
        <g>
            <g transform="matrix(0.929296,0,0,0.929296,39.6904,30.8738)">
                <circle cx="561.36" cy="436.663" r="102.003" style="fill:white;"/>
            </g>
            <g>
                <g transform="matrix(1,0,0,1,45.46,19.8413)">
                    <text x="451.22px" y="448.535px" style="font-family:'Nunito-Regular', 'Nunito';font-size:16px;fill:rgb(102,101,106);">Actionable Insight</text>
                    <text x="459.876px" y="467.201px" style="font-family:'Nunito-Regular', 'Nunito';font-size:16px;fill:rgb(102,101,106);">and Knowledge</text>
                </g>
                <g id="Isolation-Mode" serif:id="Isolation Mode" transform="matrix(2.93794,0,0,2.93794,525.659,366.424)">
                    <g transform="matrix(1,0,0,1,11.2396,0.0003)">
                        <path d="M0,26.758C-0.13,26.758 -0.261,26.688 -0.312,26.567L-2.075,22.851L-6.494,22.851C-6.643,22.851 -6.771,22.756 -6.824,22.608L-8.804,16.321L-10.888,16.321C-11.009,16.321 -11.113,16.261 -11.183,16.165C-11.251,16.07 -11.251,15.948 -11.217,15.844L-9.237,11.026C-9.29,10.609 -9.308,10.218 -9.308,9.828C-9.308,4.41 -4.905,0 0.521,0C5.938,0 10.341,4.41 10.341,9.828C10.341,11.92 9.689,13.908 8.475,15.592C7.996,17.702 8.179,23.788 8.179,23.849C8.179,24.006 8.083,24.144 7.937,24.196L0.104,26.749C0.069,26.758 0.034,26.758 0,26.758" style="fill:rgb(101,101,106);fill-rule:nonzero;"/>
                    </g>
                    <g transform="matrix(1,0,0,1,5.0058,4.5233)">
                        <path d="M0,17.633L4.376,17.633C4.516,17.633 4.637,17.712 4.689,17.832L6.417,21.462L13.709,19.091C13.684,17.859 13.579,12.753 14.048,10.843C14.048,10.8 14.074,10.757 14.101,10.714C15.264,9.142 15.88,7.267 15.88,5.305C15.88,0.269 11.782,-3.829 6.755,-3.829C1.72,-3.829 -2.378,0.269 -2.378,5.305C-2.378,5.695 -2.361,6.086 -2.3,6.503C-2.292,6.564 -2.3,6.624 -2.326,6.677L-4.141,11.104L-2.317,11.104C-2.17,11.104 -2.031,11.199 -1.987,11.347L0,17.633Z" style="fill:rgb(101,101,106);fill-rule:nonzero;"/>
                    </g>
                    <g transform="matrix(1,0,0,1,6.9686,8.1175)">
                        <path d="M0,0.573C-0.165,0.634 -0.26,0.807 -0.226,0.972L-0.035,1.866C0,2.041 0.148,2.154 0.312,2.145L1.024,2.11C1.094,2.292 1.181,2.466 1.285,2.622L0.833,3.169C0.729,3.3 0.729,3.49 0.852,3.62L1.458,4.306C1.58,4.427 1.763,4.454 1.91,4.367L2.5,3.985C2.657,4.107 2.813,4.211 2.978,4.298L2.865,4.992C2.83,5.157 2.935,5.322 3.091,5.375L3.968,5.661C4.133,5.713 4.306,5.643 4.384,5.495L4.705,4.87C4.896,4.888 5.088,4.905 5.278,4.897L5.53,5.557C5.583,5.696 5.713,5.782 5.852,5.782C5.877,5.782 5.903,5.774 5.92,5.774L6.824,5.592C6.989,5.557 7.102,5.4 7.102,5.227L7.067,4.531C7.24,4.454 7.414,4.367 7.579,4.271L8.125,4.714C8.248,4.819 8.439,4.819 8.578,4.706L9.254,4.089C9.375,3.976 9.411,3.786 9.315,3.646L8.934,3.056C9.056,2.899 9.159,2.735 9.254,2.57L9.949,2.682C10.106,2.717 10.279,2.613 10.332,2.448L10.609,1.58C10.669,1.416 10.593,1.241 10.444,1.163L9.811,0.842C9.836,0.651 9.846,0.46 9.846,0.269L10.504,0.017C10.669,-0.034 10.766,-0.209 10.731,-0.373L10.54,-1.277C10.504,-1.441 10.349,-1.563 10.176,-1.554L9.481,-1.51C9.403,-1.693 9.315,-1.858 9.221,-2.023L9.663,-2.57C9.776,-2.7 9.776,-2.891 9.654,-3.022L9.045,-3.707C8.926,-3.829 8.734,-3.855 8.595,-3.768L8.004,-3.386C7.856,-3.499 7.692,-3.603 7.527,-3.698L7.64,-4.393C7.667,-4.558 7.57,-4.723 7.406,-4.775L6.537,-5.062C6.372,-5.114 6.199,-5.044 6.112,-4.897L5.8,-4.272C5.6,-4.288 5.417,-4.306 5.227,-4.297L4.975,-4.957C4.914,-5.114 4.74,-5.209 4.583,-5.175L3.681,-4.984C3.508,-4.949 3.395,-4.802 3.403,-4.627L3.438,-3.933C3.264,-3.855 3.091,-3.768 2.926,-3.672L2.388,-4.115C2.258,-4.228 2.066,-4.219 1.936,-4.106L1.25,-3.499C1.12,-3.377 1.094,-3.195 1.189,-3.048L1.562,-2.457C1.458,-2.309 1.354,-2.153 1.25,-1.98L0.564,-2.093C0.399,-2.118 0.226,-2.023 0.174,-1.858L-0.112,-0.981C-0.165,-0.816 -0.096,-0.642 0.061,-0.564L0.677,-0.243C0.66,-0.052 0.651,0.139 0.651,0.33L0,0.573Z" style="fill:white;fill-rule:nonzero;"/>
                    </g>
                    <g transform="matrix(1,0,0,1,8.1845,9.4551)">
                        <path d="M0,-2.084L-0.573,-2.388L-0.47,-2.692L0.173,-2.588C0.312,-2.562 0.469,-2.64 0.538,-2.771C0.686,-3.074 0.851,-3.326 1.042,-3.551C1.146,-3.664 1.154,-3.829 1.076,-3.959L0.711,-4.515L0.955,-4.724L1.458,-4.315C1.58,-4.211 1.745,-4.203 1.875,-4.29C2.126,-4.463 2.404,-4.602 2.708,-4.715C2.848,-4.767 2.934,-4.906 2.934,-5.054L2.899,-5.704L3.212,-5.773L3.446,-5.158C3.498,-5.019 3.646,-4.923 3.792,-4.932C4.098,-4.959 4.401,-4.94 4.723,-4.888C4.861,-4.862 5.018,-4.932 5.087,-5.07L5.382,-5.653L5.695,-5.549L5.582,-4.906C5.557,-4.758 5.635,-4.602 5.773,-4.533C6.06,-4.394 6.32,-4.229 6.546,-4.029C6.659,-3.933 6.823,-3.917 6.963,-4.003L7.5,-4.359L7.727,-4.116L7.31,-3.612C7.215,-3.491 7.205,-3.326 7.292,-3.195C7.466,-2.944 7.604,-2.666 7.701,-2.379C7.751,-2.232 7.899,-2.137 8.048,-2.145L8.699,-2.18L8.769,-1.858L8.152,-1.632C8.013,-1.581 7.917,-1.433 7.935,-1.286C7.952,-0.991 7.935,-0.678 7.883,-0.357C7.849,-0.2 7.927,-0.053 8.065,0.017L8.646,0.312L8.542,0.616L7.899,0.512C7.751,0.486 7.604,0.563 7.535,0.703C7.405,0.963 7.24,1.224 7.032,1.476C6.928,1.588 6.919,1.762 6.997,1.884L7.354,2.43L7.119,2.647L6.606,2.239C6.493,2.135 6.32,2.135 6.198,2.213C5.937,2.387 5.66,2.525 5.365,2.638C5.227,2.691 5.14,2.83 5.14,2.977L5.174,3.629L4.861,3.689L4.626,3.081C4.575,2.942 4.445,2.856 4.306,2.856L4.279,2.856C3.976,2.882 3.664,2.864 3.351,2.804C3.212,2.778 3.056,2.856 2.986,2.986L2.691,3.576L2.378,3.472L2.483,2.83C2.518,2.673 2.431,2.525 2.292,2.456C2.031,2.335 1.779,2.17 1.511,1.953C1.397,1.857 1.232,1.849 1.111,1.927L0.563,2.283L0.347,2.04L0.764,1.536C0.858,1.414 0.867,1.249 0.781,1.119C0.616,0.876 0.469,0.598 0.364,0.295C0.312,0.155 0.173,0.06 0.017,0.069L-0.634,0.104L-0.695,-0.217L-0.087,-0.443C0.052,-0.496 0.147,-0.634 0.139,-0.791C0.121,-1.104 0.139,-1.424 0.191,-1.72C0.208,-1.867 0.139,-2.015 0,-2.084" style="fill:rgb(101,101,106);fill-rule:nonzero;"/>
                    </g>
                    <g transform="matrix(1,0,0,1,12.2211,6.0159)">
                        <path d="M0,4.802C1.328,4.802 2.404,3.725 2.404,2.397C2.404,1.077 1.328,0 0,0C-1.327,0 -2.405,1.077 -2.405,2.397C-2.405,3.725 -1.327,4.802 0,4.802" style="fill:white;fill-rule:nonzero;"/>
                    </g>
                    <g transform="matrix(1,0,0,1,12.2211,10.1235)">
                        <ellipse cx="0" cy="-1.706" rx="1.71" ry="1.706" style="fill:rgb(101,101,106);"/>
                    </g>
                </g>
            </g>
        </g>
    </g>
</svg>
