<?xml version="1.0" encoding="UTF-8" standalone="no"?>
<!DOCTYPE svg PUBLIC "-//W3C//DTD SVG 1.1//EN" "http://www.w3.org/Graphics/SVG/1.1/DTD/svg11.dtd">
<svg width="100%" height="100%" viewBox="0 0 125 17" version="1.1" xmlns="http://www.w3.org/2000/svg" xmlns:xlink="http://www.w3.org/1999/xlink" xml:space="preserve" xmlns:serif="http://www.serif.com/" style="fill-rule:evenodd;clip-rule:evenodd;stroke-linejoin:round;stroke-miterlimit:1.41421;">
    <g transform="matrix(1,0,0,1,-674,-485)">
        <g transform="matrix(1,0,0,1,673.256,501)">
            <path d="M9.878,-9.207C10.611,-8.789 11.18,-8.206 11.583,-7.458C11.986,-6.71 12.188,-5.852 12.188,-4.884C12.188,-3.916 11.968,-3.047 11.528,-2.277C11.088,-1.507 10.483,-0.906 9.713,-0.473C8.943,-0.04 8.067,0.176 7.084,0.176C5.163,0.176 3.685,-0.48 2.651,-1.793C1.617,-3.106 1.1,-4.979 1.1,-7.414C1.1,-9.13 1.342,-10.608 1.826,-11.847C2.31,-13.086 3.007,-14.036 3.916,-14.696C4.825,-15.356 5.903,-15.686 7.15,-15.686C7.986,-15.686 8.822,-15.532 9.658,-15.224C10.494,-14.916 11.205,-14.491 11.792,-13.948C12.085,-13.699 12.232,-13.405 12.232,-13.068C12.232,-12.804 12.159,-12.58 12.012,-12.397C11.865,-12.214 11.689,-12.122 11.484,-12.122C11.352,-12.122 11.231,-12.144 11.121,-12.188C11.011,-12.232 10.883,-12.305 10.736,-12.408C9.504,-13.361 8.331,-13.838 7.216,-13.838C5.999,-13.838 5.053,-13.277 4.378,-12.155C3.703,-11.033 3.366,-9.467 3.366,-7.458L3.366,-7.414C3.689,-8.162 4.213,-8.752 4.939,-9.185C5.665,-9.618 6.483,-9.834 7.392,-9.834C8.316,-9.834 9.145,-9.625 9.878,-9.207ZM9.163,-2.541C9.713,-3.12 9.988,-3.887 9.988,-4.84C9.988,-5.779 9.713,-6.538 9.163,-7.117C8.613,-7.696 7.883,-7.986 6.974,-7.986C6.05,-7.986 5.298,-7.696 4.719,-7.117C4.14,-6.538 3.85,-5.779 3.85,-4.84C3.85,-3.887 4.136,-3.12 4.708,-2.541C5.28,-1.962 6.035,-1.672 6.974,-1.672C7.883,-1.672 8.613,-1.962 9.163,-2.541Z" style="fill:rgb(15,141,209);fill-rule:nonzero;"/>
            <path d="M30.162,-6.666L30.162,-0.946C30.162,-0.623 30.059,-0.367 29.854,-0.176C29.649,0.015 29.377,0.11 29.04,0.11C28.703,0.11 28.435,0.015 28.237,-0.176C28.039,-0.367 27.94,-0.623 27.94,-0.946L27.94,-6.644C27.94,-7.524 27.76,-8.169 27.401,-8.58C27.042,-8.991 26.481,-9.196 25.718,-9.196C24.823,-9.196 24.105,-8.917 23.562,-8.36C23.019,-7.803 22.748,-7.055 22.748,-6.116L22.748,-0.946C22.748,-0.623 22.649,-0.367 22.451,-0.176C22.253,0.015 21.985,0.11 21.648,0.11C21.311,0.11 21.039,0.015 20.834,-0.176C20.629,-0.367 20.526,-0.623 20.526,-0.946L20.526,-14.564C20.526,-14.887 20.632,-15.143 20.845,-15.334C21.058,-15.525 21.333,-15.62 21.67,-15.62C21.993,-15.62 22.253,-15.528 22.451,-15.345C22.649,-15.162 22.748,-14.916 22.748,-14.608L22.748,-9.108C23.115,-9.724 23.606,-10.193 24.222,-10.516C24.838,-10.839 25.542,-11 26.334,-11C28.886,-11 30.162,-9.555 30.162,-6.666Z" style="fill:rgb(15,141,209);fill-rule:nonzero;"/>
            <path d="M35.079,-0.528C34.28,-0.983 33.664,-1.632 33.231,-2.475C32.798,-3.318 32.582,-4.297 32.582,-5.412C32.582,-6.541 32.798,-7.528 33.231,-8.371C33.664,-9.214 34.28,-9.863 35.079,-10.318C35.878,-10.773 36.806,-11 37.862,-11C38.918,-11 39.846,-10.773 40.645,-10.318C41.444,-9.863 42.06,-9.214 42.493,-8.371C42.926,-7.528 43.142,-6.541 43.142,-5.412C43.142,-4.297 42.926,-3.318 42.493,-2.475C42.06,-1.632 41.444,-0.983 40.645,-0.528C39.846,-0.073 38.918,0.154 37.862,0.154C36.806,0.154 35.878,-0.073 35.079,-0.528ZM40.117,-2.574C40.638,-3.219 40.898,-4.165 40.898,-5.412C40.898,-6.644 40.634,-7.586 40.106,-8.239C39.578,-8.892 38.83,-9.218 37.862,-9.218C36.894,-9.218 36.146,-8.892 35.618,-8.239C35.09,-7.586 34.826,-6.644 34.826,-5.412C34.826,-4.165 35.086,-3.219 35.607,-2.574C36.128,-1.929 36.879,-1.606 37.862,-1.606C38.845,-1.606 39.596,-1.929 40.117,-2.574Z" style="fill:rgb(15,141,209);fill-rule:nonzero;"/>
            <path d="M54.725,-10.67C54.923,-10.479 55.022,-10.215 55.022,-9.878L55.022,-0.924C55.022,-0.616 54.919,-0.367 54.714,-0.176C54.509,0.015 54.237,0.11 53.9,0.11C53.592,0.11 53.343,0.018 53.152,-0.165C52.961,-0.348 52.866,-0.594 52.866,-0.902L52.866,-1.738C52.529,-1.122 52.063,-0.653 51.469,-0.33C50.875,-0.007 50.211,0.154 49.478,0.154C46.867,0.154 45.562,-1.283 45.562,-4.158L45.562,-9.878C45.562,-10.215 45.661,-10.479 45.859,-10.67C46.057,-10.861 46.332,-10.956 46.684,-10.956C47.021,-10.956 47.289,-10.861 47.487,-10.67C47.685,-10.479 47.784,-10.215 47.784,-9.878L47.784,-4.18C47.784,-3.315 47.96,-2.677 48.312,-2.266C48.664,-1.855 49.207,-1.65 49.94,-1.65C50.805,-1.65 51.498,-1.929 52.019,-2.486C52.54,-3.043 52.8,-3.784 52.8,-4.708L52.8,-9.878C52.8,-10.201 52.903,-10.461 53.108,-10.659C53.313,-10.857 53.585,-10.956 53.922,-10.956C54.259,-10.956 54.527,-10.861 54.725,-10.67Z" style="fill:rgb(15,141,209);fill-rule:nonzero;"/>
            <path d="M64.812,-10.054C64.812,-9.731 64.731,-9.489 64.57,-9.328C64.409,-9.167 64.13,-9.071 63.734,-9.042L63.074,-8.976C62.15,-8.888 61.464,-8.565 61.017,-8.008C60.57,-7.451 60.346,-6.776 60.346,-5.984L60.346,-0.946C60.346,-0.594 60.243,-0.33 60.038,-0.154C59.833,0.022 59.569,0.11 59.246,0.11C58.923,0.11 58.656,0.022 58.443,-0.154C58.23,-0.33 58.124,-0.594 58.124,-0.946L58.124,-9.9C58.124,-10.237 58.23,-10.498 58.443,-10.681C58.656,-10.864 58.923,-10.956 59.246,-10.956C59.539,-10.956 59.785,-10.864 59.983,-10.681C60.181,-10.498 60.28,-10.245 60.28,-9.922L60.28,-8.866C60.573,-9.511 60.999,-10.003 61.556,-10.34C62.113,-10.677 62.744,-10.875 63.448,-10.934L63.756,-10.956C64.46,-11 64.812,-10.699 64.812,-10.054Z" style="fill:rgb(15,141,209);fill-rule:nonzero;"/>
            <path d="M66.132,-0.77C65.868,-0.931 65.681,-1.1 65.571,-1.276C65.461,-1.452 65.406,-1.65 65.406,-1.87C65.406,-2.105 65.472,-2.303 65.604,-2.464C65.736,-2.625 65.905,-2.706 66.11,-2.706C66.301,-2.706 66.601,-2.589 67.012,-2.354C67.452,-2.119 67.881,-1.929 68.299,-1.782C68.717,-1.635 69.241,-1.562 69.872,-1.562C70.576,-1.562 71.126,-1.687 71.522,-1.936C71.918,-2.185 72.116,-2.537 72.116,-2.992C72.116,-3.285 72.039,-3.52 71.885,-3.696C71.731,-3.872 71.463,-4.03 71.082,-4.169C70.701,-4.308 70.136,-4.459 69.388,-4.62C68.097,-4.899 67.17,-5.276 66.605,-5.753C66.04,-6.23 65.758,-6.879 65.758,-7.7C65.758,-8.331 65.941,-8.899 66.308,-9.405C66.675,-9.911 67.181,-10.303 67.826,-10.582C68.471,-10.861 69.205,-11 70.026,-11C70.613,-11 71.185,-10.923 71.742,-10.769C72.299,-10.615 72.791,-10.391 73.216,-10.098C73.7,-9.775 73.942,-9.401 73.942,-8.976C73.942,-8.741 73.872,-8.543 73.733,-8.382C73.594,-8.221 73.429,-8.14 73.238,-8.14C73.106,-8.14 72.974,-8.169 72.842,-8.228C72.71,-8.287 72.534,-8.382 72.314,-8.514C71.918,-8.749 71.548,-8.932 71.203,-9.064C70.858,-9.196 70.429,-9.262 69.916,-9.262C69.3,-9.262 68.805,-9.13 68.431,-8.866C68.057,-8.602 67.87,-8.243 67.87,-7.788C67.87,-7.377 68.042,-7.058 68.387,-6.831C68.732,-6.604 69.381,-6.387 70.334,-6.182C71.317,-5.977 72.087,-5.742 72.644,-5.478C73.201,-5.214 73.601,-4.888 73.843,-4.499C74.085,-4.11 74.206,-3.615 74.206,-3.014C74.206,-2.061 73.806,-1.294 73.007,-0.715C72.208,-0.136 71.141,0.154 69.806,0.154C68.31,0.154 67.085,-0.154 66.132,-0.77Z" style="fill:rgb(15,141,209);fill-rule:nonzero;"/>
            <path d="M82.797,-0.154C82.584,-0.33 82.478,-0.594 82.478,-0.946L82.478,-14.542C82.478,-14.894 82.584,-15.162 82.797,-15.345C83.01,-15.528 83.277,-15.62 83.6,-15.62C83.923,-15.62 84.187,-15.528 84.392,-15.345C84.597,-15.162 84.7,-14.894 84.7,-14.542L84.7,-0.946C84.7,-0.594 84.597,-0.33 84.392,-0.154C84.187,0.022 83.923,0.11 83.6,0.11C83.277,0.11 83.01,0.022 82.797,-0.154Z" style="fill:rgb(15,141,209);fill-rule:nonzero;"/>
            <path d="M95.491,-9.922C96.188,-9.203 96.536,-8.111 96.536,-6.644L96.536,-0.946C96.536,-0.609 96.441,-0.348 96.25,-0.165C96.059,0.018 95.795,0.11 95.458,0.11C95.135,0.11 94.879,0.015 94.688,-0.176C94.497,-0.367 94.402,-0.623 94.402,-0.946L94.402,-1.76C94.123,-1.144 93.709,-0.671 93.159,-0.341C92.609,-0.011 91.967,0.154 91.234,0.154C90.53,0.154 89.885,0.011 89.298,-0.275C88.711,-0.561 88.253,-0.961 87.923,-1.474C87.593,-1.987 87.428,-2.559 87.428,-3.19C87.428,-3.967 87.63,-4.58 88.033,-5.027C88.436,-5.474 89.104,-5.793 90.035,-5.984C90.966,-6.175 92.246,-6.27 93.874,-6.27L94.38,-6.27L94.38,-6.908C94.38,-7.729 94.211,-8.323 93.874,-8.69C93.537,-9.057 92.994,-9.24 92.246,-9.24C91.733,-9.24 91.249,-9.174 90.794,-9.042C90.339,-8.91 89.841,-8.719 89.298,-8.47C88.902,-8.25 88.623,-8.14 88.462,-8.14C88.242,-8.14 88.062,-8.221 87.923,-8.382C87.784,-8.543 87.714,-8.749 87.714,-8.998C87.714,-9.218 87.776,-9.412 87.901,-9.581C88.026,-9.75 88.227,-9.915 88.506,-10.076C89.019,-10.355 89.621,-10.578 90.31,-10.747C90.999,-10.916 91.667,-11 92.312,-11C93.735,-11 94.794,-10.641 95.491,-9.922ZM93.61,-2.321C94.123,-2.871 94.38,-3.579 94.38,-4.444L94.38,-5.016L93.984,-5.016C92.84,-5.016 91.96,-4.965 91.344,-4.862C90.728,-4.759 90.288,-4.587 90.024,-4.345C89.76,-4.103 89.628,-3.755 89.628,-3.3C89.628,-2.772 89.819,-2.339 90.2,-2.002C90.581,-1.665 91.058,-1.496 91.63,-1.496C92.437,-1.496 93.097,-1.771 93.61,-2.321Z" style="fill:rgb(15,141,209);fill-rule:nonzero;"/>
            <path d="M105.523,-1.331C105.662,-1.192 105.732,-0.997 105.732,-0.748C105.732,-0.455 105.618,-0.231 105.391,-0.077C105.164,0.077 104.83,0.139 104.39,0.11L103.796,0.066C102.608,-0.022 101.721,-0.385 101.134,-1.023C100.547,-1.661 100.254,-2.603 100.254,-3.85L100.254,-9.02L98.934,-9.02C98.289,-9.02 97.966,-9.306 97.966,-9.878C97.966,-10.142 98.05,-10.351 98.219,-10.505C98.388,-10.659 98.626,-10.736 98.934,-10.736L100.254,-10.736L100.254,-13.002C100.254,-13.339 100.353,-13.603 100.551,-13.794C100.749,-13.985 101.017,-14.08 101.354,-14.08C101.691,-14.08 101.963,-13.985 102.168,-13.794C102.373,-13.603 102.476,-13.339 102.476,-13.002L102.476,-10.736L104.654,-10.736C104.962,-10.736 105.2,-10.659 105.369,-10.505C105.538,-10.351 105.622,-10.142 105.622,-9.878C105.622,-9.599 105.538,-9.387 105.369,-9.24C105.2,-9.093 104.962,-9.02 104.654,-9.02L102.476,-9.02L102.476,-3.696C102.476,-3.007 102.619,-2.501 102.905,-2.178C103.191,-1.855 103.627,-1.672 104.214,-1.628L104.83,-1.584C105.153,-1.555 105.384,-1.47 105.523,-1.331Z" style="fill:rgb(15,141,209);fill-rule:nonzero;"/>
            <path d="M116.248,-2.464C116.38,-2.303 116.446,-2.097 116.446,-1.848C116.446,-1.423 116.182,-1.063 115.654,-0.77C115.141,-0.477 114.58,-0.249 113.971,-0.088C113.362,0.073 112.779,0.154 112.222,0.154C110.521,0.154 109.179,-0.341 108.196,-1.331C107.213,-2.321 106.722,-3.674 106.722,-5.39C106.722,-6.49 106.938,-7.465 107.371,-8.316C107.804,-9.167 108.412,-9.827 109.197,-10.296C109.982,-10.765 110.873,-11 111.87,-11C113.307,-11 114.444,-10.538 115.28,-9.614C116.116,-8.69 116.534,-7.443 116.534,-5.874C116.534,-5.287 116.27,-4.994 115.742,-4.994L108.944,-4.994C109.091,-2.721 110.183,-1.584 112.222,-1.584C112.765,-1.584 113.234,-1.657 113.63,-1.804C114.026,-1.951 114.444,-2.141 114.884,-2.376C114.928,-2.405 115.049,-2.468 115.247,-2.563C115.445,-2.658 115.61,-2.706 115.742,-2.706C115.947,-2.706 116.116,-2.625 116.248,-2.464ZM109.868,-8.558C109.355,-8.015 109.047,-7.253 108.944,-6.27L114.62,-6.27C114.576,-7.267 114.323,-8.034 113.861,-8.569C113.399,-9.104 112.75,-9.372 111.914,-9.372C111.063,-9.372 110.381,-9.101 109.868,-8.558Z" style="fill:rgb(15,141,209);fill-rule:nonzero;"/>
            <path d="M125.664,-10.054C125.664,-9.731 125.583,-9.489 125.422,-9.328C125.261,-9.167 124.982,-9.071 124.586,-9.042L123.926,-8.976C123.002,-8.888 122.316,-8.565 121.869,-8.008C121.422,-7.451 121.198,-6.776 121.198,-5.984L121.198,-0.946C121.198,-0.594 121.095,-0.33 120.89,-0.154C120.685,0.022 120.421,0.11 120.098,0.11C119.775,0.11 119.508,0.022 119.295,-0.154C119.082,-0.33 118.976,-0.594 118.976,-0.946L118.976,-9.9C118.976,-10.237 119.082,-10.498 119.295,-10.681C119.508,-10.864 119.775,-10.956 120.098,-10.956C120.391,-10.956 120.637,-10.864 120.835,-10.681C121.033,-10.498 121.132,-10.245 121.132,-9.922L121.132,-8.866C121.425,-9.511 121.851,-10.003 122.408,-10.34C122.965,-10.677 123.596,-10.875 124.3,-10.934L124.608,-10.956C125.312,-11 125.664,-10.699 125.664,-10.054Z" style="fill:rgb(15,141,209);fill-rule:nonzero;"/>
        </g>
    </g>
</svg>
