<?xml version="1.0" encoding="UTF-8" standalone="no"?>
<!DOCTYPE svg PUBLIC "-//W3C//DTD SVG 1.1//EN" "http://www.w3.org/Graphics/SVG/1.1/DTD/svg11.dtd">
<svg width="100%" height="100%" viewBox="0 0 193 84" version="1.1" xmlns="http://www.w3.org/2000/svg" xmlns:xlink="http://www.w3.org/1999/xlink" xml:space="preserve" xmlns:serif="http://www.serif.com/" style="fill-rule:evenodd;clip-rule:evenodd;stroke-linejoin:round;stroke-miterlimit:1.41421;">
    <g transform="matrix(1,0,0,1,-503,-271)">
        <g transform="matrix(0.171381,0,0,0.184329,503.151,271.138)">
            <g>
                <path d="M1120,387.63L995,320.34L995,368.15L217.2,368.15C219.826,283.905 253.771,203.592 312.36,143L323.59,154.22C326.443,151.26 329.347,148.357 332.3,145.51L321.07,134.28C382.9,74.508 465.204,40.431 551.19,39L551.19,54.89C553.19,54.89 555.29,54.81 557.35,54.81C559.41,54.81 561.46,54.81 563.51,54.89L563.51,39C649.496,40.441 731.797,74.53 793.62,134.31L782.39,145.54C785.35,148.387 788.257,151.29 791.11,154.25L802.33,143C857.812,200.391 891.287,275.568 896.82,355.2L935.82,355.2C924.3,170.9 781.16,22.32 599.27,2.31L598.37,2.21C595.8,1.93 593.21,1.69 590.62,1.47C579.66,0.51 568.56,0 557.35,0C541.236,-0.014 525.138,0.988 509.15,3L507.69,3.2C505.1,3.54 502.53,3.89 499.96,4.28L497.25,4.72C495.11,5.06 492.977,5.413 490.85,5.78L487.4,6.42C485.54,6.77 483.69,7.12 481.84,7.49L477.84,8.33C476.21,8.68 474.57,9.03 472.94,9.4C471.31,9.77 469.94,10.09 468.49,10.45C467.04,10.81 465.59,11.14 464.15,11.51C462.52,11.92 460.91,12.35 459.3,12.78L455.47,13.78C453.723,14.267 451.98,14.767 450.24,15.28C449.13,15.61 448.03,15.93 446.93,16.28C445.04,16.85 443.17,17.44 441.3,18.04L438.53,18.93C436.53,19.597 434.51,20.283 432.47,20.99L430.31,21.75C428.12,22.53 425.93,23.32 423.76,24.14L422.27,24.7C419.89,25.613 417.517,26.543 415.15,27.49L414.47,27.77C279.05,82.93 182.66,214 178.21,368.15L178,368.15L178,407.15L995,407.15L995,453.96L1120,387.63Z" style="fill:rgb(104,105,107);fill-rule:nonzero;"/>
                <rect x="76.01" y="368.15" width="7.07" height="38.95" style="fill:rgb(104,105,107);"/>
                <rect x="91.22" y="368.15" width="8.35" height="38.95" style="fill:rgb(104,105,107);"/>
                <rect x="106.42" y="368.15" width="9.63" height="38.95" style="fill:rgb(104,105,107);"/>
                <rect x="121.62" y="368.15" width="10.9" height="38.95" style="fill:rgb(104,105,107);"/>
                <rect x="0" y="368.15" width="0.68" height="38.95" style="fill:rgb(104,105,107);"/>
                <rect x="60.81" y="368.15" width="5.79" height="38.95" style="fill:rgb(104,105,107);"/>
                <rect x="30.4" y="368.15" width="3.24" height="38.95" style="fill:rgb(104,105,107);"/>
                <rect x="15.2" y="368.15" width="1.96" height="38.95" style="fill:rgb(104,105,107);"/>
                <rect x="45.61" y="368.15" width="4.51" height="38.95" style="fill:rgb(104,105,107);"/>
                <path d="M143.16,368.15L136.82,368.15L136.82,407.1L164.41,407.1L164.41,368.15L149,368.15L143.16,368.15Z" style="fill:rgb(104,105,107);fill-rule:nonzero;"/>
            </g>
        </g>
    </g>
</svg>
