<?xml version="1.0" encoding="UTF-8" standalone="no"?>
<!DOCTYPE svg PUBLIC "-//W3C//DTD SVG 1.1//EN" "http://www.w3.org/Graphics/SVG/1.1/DTD/svg11.dtd">
<svg width="100%" height="100%" viewBox="0 0 34 16" version="1.1" xmlns="http://www.w3.org/2000/svg" xmlns:xlink="http://www.w3.org/1999/xlink" xml:space="preserve" xmlns:serif="http://www.serif.com/" style="fill-rule:evenodd;clip-rule:evenodd;stroke-linejoin:round;stroke-miterlimit:1.41421;">
    <g transform="matrix(1,0,0,1,-818,-697)">
        <g transform="matrix(1,0,0,1,-0.684275,37)">
            <g transform="matrix(1,0,0,1,15.088,-18.4233)">
                <path d="M811.912,686.292C812.752,686.513 813.403,686.926 813.864,687.532C814.326,688.138 814.556,688.895 814.556,689.804C814.556,691.085 814.136,692.066 813.296,692.748C812.456,693.43 811.265,693.771 809.722,693.771L804.516,693.771C804.255,693.771 804.045,693.695 803.886,693.543C803.728,693.392 803.649,693.192 803.649,692.944L803.649,680.033C803.649,679.785 803.728,679.585 803.886,679.434C804.045,679.282 804.255,679.206 804.516,679.206L809.495,679.206C810.996,679.206 812.16,679.537 812.986,680.198C813.813,680.859 814.226,681.795 814.226,683.007C814.226,683.792 814.023,684.467 813.616,685.032C813.21,685.597 812.642,686.017 811.912,686.292ZM805.322,685.672L809.247,685.672C810.335,685.672 811.158,685.452 811.716,685.011C812.274,684.571 812.552,683.93 812.552,683.09C812.552,681.437 811.451,680.611 809.247,680.611L805.322,680.611L805.322,685.672ZM809.557,692.366C810.7,692.366 811.544,692.156 812.088,691.736C812.632,691.316 812.904,690.658 812.904,689.763C812.904,687.972 811.788,687.077 809.557,687.077L805.322,687.077L805.322,692.366L809.557,692.366Z" style="fill:rgb(184,36,60);fill-rule:nonzero;"/>
                <path d="M821.436,683.462C823.956,683.462 825.216,684.784 825.216,687.428L825.216,693.048C825.216,693.295 825.144,693.495 824.999,693.647C824.855,693.798 824.658,693.874 824.41,693.874C824.163,693.874 823.963,693.798 823.811,693.647C823.66,693.495 823.584,693.295 823.584,693.048L823.584,692.056C823.322,692.648 822.923,693.106 822.386,693.43C821.849,693.753 821.229,693.915 820.527,693.915C819.879,693.915 819.284,693.784 818.74,693.523C818.196,693.261 817.765,692.896 817.449,692.428C817.132,691.96 816.973,691.443 816.973,690.878C816.973,690.121 817.166,689.532 817.552,689.112C817.937,688.692 818.571,688.389 819.452,688.203C820.334,688.017 821.56,687.924 823.13,687.924L823.584,687.924L823.584,687.242C823.584,686.416 823.415,685.81 823.078,685.425C822.741,685.039 822.193,684.846 821.436,684.846C820.499,684.846 819.549,685.101 818.585,685.61C818.213,685.845 817.951,685.962 817.8,685.962C817.634,685.962 817.497,685.9 817.387,685.776C817.276,685.652 817.221,685.493 817.221,685.301C817.221,685.108 817.28,684.939 817.397,684.794C817.514,684.65 817.703,684.502 817.965,684.35C818.447,684.075 818.994,683.858 819.607,683.7C820.22,683.541 820.83,683.462 821.436,683.462ZM820.754,692.593C821.58,692.593 822.259,692.314 822.789,691.756C823.319,691.199 823.584,690.479 823.584,689.598L823.584,688.998L823.212,688.998C822,688.998 821.078,689.05 820.444,689.153C819.81,689.257 819.359,689.429 819.091,689.67C818.822,689.911 818.688,690.266 818.688,690.734C818.688,691.271 818.884,691.715 819.277,692.066C819.669,692.417 820.162,692.593 820.754,692.593Z" style="fill:rgb(184,36,60);fill-rule:nonzero;"/>
                <path d="M836.351,679.103C836.613,679.103 836.819,679.179 836.971,679.33C837.122,679.482 837.198,679.675 837.198,679.909L837.198,693.048C837.198,693.295 837.122,693.495 836.971,693.647C836.819,693.798 836.613,693.874 836.351,693.874C836.089,693.874 835.886,693.798 835.742,693.647C835.597,693.495 835.525,693.295 835.525,693.048L835.525,691.932C835.222,692.565 834.778,693.054 834.192,693.399C833.607,693.743 832.922,693.915 832.137,693.915C831.255,693.915 830.477,693.695 829.802,693.254C829.127,692.813 828.604,692.197 828.232,691.405C827.86,690.613 827.674,689.694 827.674,688.647C827.674,687.614 827.86,686.705 828.232,685.92C828.604,685.135 829.127,684.529 829.802,684.102C830.477,683.675 831.255,683.462 832.137,683.462C832.922,683.462 833.607,683.634 834.192,683.978C834.778,684.323 835.222,684.812 835.525,685.445L835.525,679.909C835.525,679.661 835.597,679.465 835.742,679.32C835.886,679.175 836.089,679.103 836.351,679.103ZM832.467,692.531C833.445,692.531 834.199,692.197 834.729,691.529C835.26,690.861 835.525,689.914 835.525,688.689C835.525,687.463 835.26,686.519 834.729,685.858C834.199,685.197 833.445,684.867 832.467,684.867C831.489,684.867 830.729,685.197 830.185,685.858C829.641,686.519 829.368,687.449 829.368,688.647C829.368,689.873 829.641,690.827 830.185,691.508C830.729,692.19 831.489,692.531 832.467,692.531Z" style="fill:rgb(184,36,60);fill-rule:nonzero;"/>
            </g>
        </g>
    </g>
</svg>
