<?xml version="1.0" encoding="UTF-8" standalone="no"?>
<!DOCTYPE svg PUBLIC "-//W3C//DTD SVG 1.1//EN" "http://www.w3.org/Graphics/SVG/1.1/DTD/svg11.dtd">
<svg width="100%" height="100%" viewBox="0 0 272 54" version="1.1" xmlns="http://www.w3.org/2000/svg" xmlns:xlink="http://www.w3.org/1999/xlink" xml:space="preserve" xmlns:serif="http://www.serif.com/" style="fill-rule:evenodd;clip-rule:evenodd;stroke-linejoin:round;stroke-miterlimit:1.41421;">
    <g transform="matrix(1,0,0,1,-504,-288)">
        <g transform="matrix(2.59149,0,0,2.59149,-1018.51,-467.253)">
            <g transform="matrix(0.911116,-0.412151,0.412151,0.911116,589.788,311.974)">
                <text x="0px" y="0px" style="font-family:'Nunito-Regular', 'Nunito';font-size:11px;fill:white;">N</text>
            </g>
            <g transform="matrix(0.931183,-0.364552,0.364552,0.931183,596.588,308.904)">
                <text x="0px" y="0px" style="font-family:'Nunito-Regular', 'Nunito';font-size:11px;fill:white;">E</text>
            </g>
            <g transform="matrix(0.946255,-0.323422,0.323422,0.946255,601.848,306.824)">
                <text x="0px" y="0px" style="font-family:'Nunito-Regular', 'Nunito';font-size:11px;fill:white;">X</text>
            </g>
            <g transform="matrix(0.960147,-0.279494,0.279494,0.960147,607.938,304.734)">
                <text x="0px" y="0px" style="font-family:'Nunito-Regular', 'Nunito';font-size:11px;fill:white;">T</text>
            </g>
            <g transform="matrix(0.97,-0.25,0.25,0.97,613.158,303.204)">
                <text x="0px" y="0px" style="font-family:'Nunito-Regular', 'Nunito';font-size:11px;fill:white;">-</text>
            </g>
            <g transform="matrix(0.980202,-0.198,0.198,0.980202,617.048,302.164)">
                <text x="0px" y="0px" style="font-family:'Nunito-Regular', 'Nunito';font-size:11px;fill:white;">G</text>
            </g>
            <g transform="matrix(0.990557,-0.137099,0.137099,0.990557,624.198,300.714)">
                <text x="0px" y="0px" style="font-family:'Nunito-Regular', 'Nunito';font-size:11px;fill:white;">E</text>
            </g>
            <g transform="matrix(0.997778,-0.0666222,0.0666222,0.997778,629.848,299.874)">
                <text x="0px" y="0px" style="font-family:'Nunito-Regular', 'Nunito';font-size:11px;fill:white;">N</text>
            </g>
            <g transform="matrix(1,0.03,-0.03,1,639.458,299.354)">
                <text x="0px" y="0px" style="font-family:'Nunito-Regular', 'Nunito';font-size:11px;fill:white;">A</text>
            </g>
            <g transform="matrix(0.994792,0.101924,-0.101924,0.994792,646.768,299.574)">
                <text x="0px" y="0px" style="font-family:'Nunito-Regular', 'Nunito';font-size:11px;fill:white;">N</text>
            </g>
            <g transform="matrix(0.99,0.17,-0.17,0.99,654.148,300.324)">
                <text x="0px" y="0px" style="font-family:'Nunito-Regular', 'Nunito';font-size:11px;fill:white;">T</text>
            </g>
            <g transform="matrix(0.977008,0.213201,-0.213201,0.977008,659.988,301.364)">
                <text x="0px" y="0px" style="font-family:'Nunito-Regular', 'Nunito';font-size:11px;fill:white;">I</text>
            </g>
            <g transform="matrix(0.964419,0.264378,-0.264378,0.964419,662.118,301.744)">
                <text x="0px" y="0px" style="font-family:'Nunito-Regular', 'Nunito';font-size:11px;fill:white;">V</text>
            </g>
            <g transform="matrix(0.94849,0.316808,-0.316808,0.94849,668.788,303.614)">
                <text x="0px" y="0px" style="font-family:'Nunito-Regular', 'Nunito';font-size:11px;fill:white;">I</text>
            </g>
            <g transform="matrix(0.92939,0.369098,-0.369098,0.92939,670.858,304.224)">
                <text x="0px" y="0px" style="font-family:'Nunito-Regular', 'Nunito';font-size:11px;fill:white;">R</text>
            </g>
            <g transform="matrix(0.895634,0.444792,-0.444792,0.895634,677.208,306.704)">
                <text x="0px" y="0px" style="font-family:'Nunito-Regular', 'Nunito';font-size:11px;fill:white;">U</text>
            </g>
            <g transform="matrix(0.870528,0.49212,-0.49212,0.870528,683.728,309.974)">
                <text x="0px" y="0px" style="font-family:'Nunito-Regular', 'Nunito';font-size:11px;fill:white;">S</text>
            </g>
        </g>
    </g>
</svg>
