<?xml version="1.0" encoding="UTF-8" standalone="no"?>
<!DOCTYPE svg PUBLIC "-//W3C//DTD SVG 1.1//EN" "http://www.w3.org/Graphics/SVG/1.1/DTD/svg11.dtd">
<svg width="100%" height="100%" viewBox="0 0 32 11" version="1.1" xmlns="http://www.w3.org/2000/svg" xmlns:xlink="http://www.w3.org/1999/xlink" xml:space="preserve" xmlns:serif="http://www.serif.com/" style="fill-rule:evenodd;clip-rule:evenodd;stroke-linejoin:round;stroke-miterlimit:1.41421;">
    <g transform="matrix(1,0,0,1,-701,-53)">
        <path d="M707.091,61.693C707.631,61.693 707.901,61.922 707.901,62.381C707.901,62.858 707.631,63.097 707.091,63.097L701.961,63.097C701.727,63.097 701.543,63.027 701.408,62.887C701.273,62.748 701.205,62.575 701.205,62.368C701.205,62.098 701.309,61.855 701.516,61.639L704.594,58.331C704.972,57.917 705.249,57.537 705.424,57.19C705.6,56.844 705.687,56.5 705.687,56.158C705.687,55.735 705.566,55.411 705.323,55.186C705.08,54.961 704.733,54.848 704.283,54.848C703.914,54.848 703.557,54.918 703.21,55.057C702.864,55.197 702.515,55.388 702.164,55.631C702.074,55.694 701.984,55.746 701.894,55.786C701.804,55.827 701.714,55.847 701.624,55.847C701.471,55.847 701.338,55.775 701.226,55.631C701.113,55.487 701.057,55.316 701.057,55.118C701.057,54.983 701.082,54.866 701.131,54.767C701.181,54.668 701.259,54.574 701.367,54.484C701.763,54.169 702.227,53.919 702.758,53.734C703.289,53.55 703.82,53.458 704.351,53.458C705.278,53.458 706.018,53.692 706.572,54.16C707.125,54.628 707.402,55.258 707.402,56.05C707.402,56.599 707.285,57.114 707.051,57.595C706.817,58.077 706.421,58.615 705.863,59.209L703.527,61.693L707.091,61.693Z" style="fill:rgb(168,181,43);fill-rule:nonzero;"/>
        <path d="M712.532,63.218C711.407,63.218 710.547,62.802 709.953,61.969C709.359,61.137 709.062,59.924 709.062,58.331C709.062,56.747 709.359,55.539 709.953,54.706C710.547,53.874 711.407,53.458 712.532,53.458C713.657,53.458 714.516,53.874 715.11,54.706C715.704,55.539 716.001,56.747 716.001,58.331C716.001,59.915 715.704,61.126 715.11,61.963C714.516,62.8 713.657,63.218 712.532,63.218ZM712.532,61.855C713.144,61.855 713.589,61.573 713.868,61.011C714.147,60.448 714.287,59.555 714.287,58.331C714.287,57.098 714.147,56.205 713.868,55.651C713.589,55.098 713.144,54.821 712.532,54.821C711.92,54.821 711.474,55.1 711.195,55.658C710.916,56.216 710.777,57.107 710.777,58.331C710.777,59.555 710.916,60.448 711.195,61.011C711.474,61.573 711.92,61.855 712.532,61.855Z" style="fill:rgb(168,181,43);fill-rule:nonzero;"/>
        <path d="M723.345,61.693C723.885,61.693 724.155,61.922 724.155,62.381C724.155,62.858 723.885,63.097 723.345,63.097L718.782,63.097C718.233,63.097 717.959,62.858 717.959,62.381C717.959,61.922 718.233,61.693 718.782,61.693L720.186,61.693L720.186,55.537L718.89,56.333C718.764,56.405 718.652,56.441 718.553,56.441C718.364,56.441 718.204,56.36 718.074,56.198C717.943,56.036 717.878,55.856 717.878,55.658C717.878,55.397 717.995,55.195 718.229,55.051L720.321,53.755C720.591,53.593 720.848,53.512 721.091,53.512C721.343,53.512 721.545,53.588 721.698,53.741C721.851,53.894 721.928,54.106 721.928,54.376L721.928,61.693L723.345,61.693Z" style="fill:rgb(168,181,43);fill-rule:nonzero;"/>
        <path d="M728.732,63.218C727.607,63.218 726.747,62.802 726.153,61.969C725.559,61.137 725.262,59.924 725.262,58.331C725.262,56.747 725.559,55.539 726.153,54.706C726.747,53.874 727.607,53.458 728.732,53.458C729.857,53.458 730.716,53.874 731.31,54.706C731.904,55.539 732.201,56.747 732.201,58.331C732.201,59.915 731.904,61.126 731.31,61.963C730.716,62.8 729.857,63.218 728.732,63.218ZM728.732,61.855C729.344,61.855 729.789,61.573 730.068,61.011C730.347,60.448 730.487,59.555 730.487,58.331C730.487,57.098 730.347,56.205 730.068,55.651C729.789,55.098 729.344,54.821 728.732,54.821C728.12,54.821 727.674,55.1 727.395,55.658C727.116,56.216 726.977,57.107 726.977,58.331C726.977,59.555 727.116,60.448 727.395,61.011C727.674,61.573 728.12,61.855 728.732,61.855Z" style="fill:rgb(168,181,43);fill-rule:nonzero;"/>
    </g>
</svg>
