<?xml version="1.0" encoding="UTF-8" standalone="no"?>
<!DOCTYPE svg PUBLIC "-//W3C//DTD SVG 1.1//EN" "http://www.w3.org/Graphics/SVG/1.1/DTD/svg11.dtd">
<svg width="100%" height="100%" viewBox="0 0 1218 46" version="1.1" xmlns="http://www.w3.org/2000/svg" xmlns:xlink="http://www.w3.org/1999/xlink" xml:space="preserve" xmlns:serif="http://www.serif.com/" style="fill-rule:evenodd;clip-rule:evenodd;stroke-linejoin:round;stroke-miterlimit:1.41421;">
    <g transform="matrix(1,0,0,1,-85,-51)">
        <g transform="matrix(0.794361,0,0,0.814858,-610.258,20.2128)">
            <g transform="matrix(4.02299,0,0,1.3125,724.617,-12.1015)">
                <path d="M418.267,41.53C418.267,40.786 418.168,40.073 417.992,39.546C417.816,39.02 417.577,38.725 417.328,38.725C397.166,38.725 58.764,38.725 38.601,38.725C38.352,38.725 38.113,39.02 37.937,39.546C37.761,40.073 37.662,40.786 37.662,41.53C37.662,50.934 37.662,80.756 37.662,80.756L418.267,80.756C418.267,80.756 418.267,50.934 418.267,41.53Z" style="fill:rgb(253,152,63);"/>
            </g>
        </g>
    </g>
</svg>
