<?xml version="1.0" encoding="UTF-8" standalone="no"?>
<!DOCTYPE svg PUBLIC "-//W3C//DTD SVG 1.1//EN" "http://www.w3.org/Graphics/SVG/1.1/DTD/svg11.dtd">
<svg width="100%" height="100%" viewBox="0 0 105 21" version="1.1" xmlns="http://www.w3.org/2000/svg" xmlns:xlink="http://www.w3.org/1999/xlink" xml:space="preserve" xmlns:serif="http://www.serif.com/" style="fill-rule:evenodd;clip-rule:evenodd;stroke-linejoin:round;stroke-miterlimit:1.41421;">
    <g transform="matrix(1,0,0,1,-403.667,-406.155)">
        <path d="M419.432,421.817C419.493,421.94 419.524,422.07 419.524,422.208C419.524,422.438 419.435,422.63 419.259,422.783C419.083,422.936 418.872,423.013 418.627,423.013C418.243,423.013 417.975,422.829 417.822,422.461L416.189,418.735L407.518,418.735L405.862,422.461C405.708,422.829 405.44,423.013 405.057,423.013C404.811,423.013 404.597,422.932 404.413,422.771C404.229,422.61 404.137,422.415 404.137,422.185C404.137,422.062 404.167,421.94 404.229,421.817L410.807,407.189C410.899,406.974 411.037,406.813 411.221,406.706C411.405,406.599 411.604,406.545 411.819,406.545C412.049,406.545 412.256,406.602 412.44,406.717C412.624,406.832 412.762,406.99 412.854,407.189L419.432,421.817ZM408.208,417.171L415.499,417.171L411.842,408.914L408.208,417.171Z" style="fill:rgb(104,105,107);fill-rule:nonzero;"/>
        <path d="M427.551,411.421C430.234,411.421 431.576,412.901 431.576,415.86L431.576,422.093C431.576,422.384 431.495,422.61 431.334,422.771C431.173,422.932 430.947,423.013 430.656,423.013C430.364,423.013 430.134,422.932 429.966,422.771C429.797,422.61 429.713,422.384 429.713,422.093L429.713,415.975C429.713,414.932 429.509,414.173 429.103,413.698C428.697,413.223 428.049,412.985 427.16,412.985C426.132,412.985 425.312,413.299 424.699,413.928C424.085,414.557 423.779,415.408 423.779,416.481L423.779,422.093C423.779,422.384 423.698,422.61 423.537,422.771C423.376,422.932 423.15,423.013 422.859,423.013C422.567,423.013 422.337,422.932 422.169,422.771C422,422.61 421.916,422.384 421.916,422.093L421.916,412.387C421.916,412.111 422,411.889 422.169,411.72C422.337,411.551 422.567,411.467 422.859,411.467C423.135,411.467 423.353,411.551 423.514,411.72C423.675,411.889 423.756,412.103 423.756,412.364L423.756,413.537C424.124,412.847 424.637,412.322 425.297,411.961C425.956,411.601 426.707,411.421 427.551,411.421Z" style="fill:rgb(104,105,107);fill-rule:nonzero;"/>
        <path d="M443.053,412.042C443.221,411.674 443.49,411.49 443.858,411.49C444.088,411.49 444.295,411.567 444.479,411.72C444.663,411.873 444.755,412.065 444.755,412.295C444.755,412.433 444.724,412.556 444.663,412.663L438.2,426.601C438.123,426.77 438.012,426.9 437.866,426.992C437.72,427.084 437.571,427.13 437.418,427.13C437.188,427.13 436.984,427.057 436.808,426.911C436.632,426.766 436.544,426.578 436.544,426.348C436.544,426.225 436.574,426.103 436.636,425.98L438.246,422.507L433.692,412.663C433.63,412.556 433.6,412.441 433.6,412.318C433.6,412.088 433.703,411.889 433.91,411.72C434.117,411.551 434.343,411.467 434.589,411.467C434.742,411.467 434.891,411.513 435.037,411.605C435.183,411.697 435.294,411.827 435.371,411.996L439.212,420.621L443.053,412.042Z" style="fill:rgb(104,105,107);fill-rule:nonzero;"/>
        <path d="M462.12,412.065C462.273,411.697 462.526,411.513 462.879,411.513C463.109,411.513 463.316,411.59 463.5,411.743C463.684,411.896 463.776,412.088 463.776,412.318C463.776,412.425 463.753,412.54 463.707,412.663L459.889,422.323C459.797,422.522 459.662,422.679 459.486,422.794C459.31,422.909 459.114,422.967 458.9,422.967C458.7,422.967 458.512,422.909 458.336,422.794C458.16,422.679 458.026,422.522 457.934,422.323L454.76,414.25L451.609,422.323C451.532,422.522 451.402,422.679 451.218,422.794C451.034,422.909 450.834,422.967 450.62,422.967C450.42,422.967 450.229,422.909 450.045,422.794C449.861,422.679 449.723,422.522 449.631,422.323L445.813,412.686C445.767,412.563 445.744,412.456 445.744,412.364C445.744,412.119 445.847,411.912 446.054,411.743C446.261,411.574 446.487,411.49 446.733,411.49C447.101,411.49 447.361,411.674 447.515,412.042L450.666,420.529L453.909,412.111C454.001,411.912 454.127,411.758 454.288,411.651C454.449,411.544 454.622,411.49 454.806,411.49C455.005,411.49 455.185,411.544 455.346,411.651C455.507,411.758 455.626,411.912 455.703,412.111L458.946,420.506L462.12,412.065Z" style="fill:rgb(104,105,107);fill-rule:nonzero;"/>
        <path d="M471.826,411.421C473.144,411.421 474.141,411.793 474.816,412.536C475.49,413.28 475.828,414.388 475.828,415.86L475.828,422.093C475.828,422.384 475.743,422.61 475.575,422.771C475.406,422.932 475.184,423.013 474.908,423.013C474.616,423.013 474.386,422.932 474.218,422.771C474.049,422.61 473.965,422.384 473.965,422.093L473.965,415.906C473.965,414.909 473.761,414.173 473.355,413.698C472.949,413.223 472.301,412.985 471.412,412.985C470.384,412.985 469.564,413.299 468.951,413.928C468.337,414.557 468.031,415.408 468.031,416.481L468.031,422.093C468.031,422.384 467.95,422.61 467.789,422.771C467.628,422.932 467.402,423.013 467.111,423.013C466.819,423.013 466.589,422.932 466.421,422.771C466.252,422.61 466.168,422.384 466.168,422.093L466.168,407.465C466.168,407.204 466.256,406.99 466.432,406.821C466.608,406.652 466.835,406.568 467.111,406.568C467.402,406.568 467.628,406.648 467.789,406.809C467.95,406.97 468.031,407.189 468.031,407.465L468.031,413.491C468.399,412.816 468.912,412.303 469.572,411.95C470.231,411.597 470.982,411.421 471.826,411.421Z" style="fill:rgb(104,105,107);fill-rule:nonzero;"/>
        <path d="M487.903,420.299C488.071,420.299 488.217,420.368 488.34,420.506C488.462,420.644 488.524,420.82 488.524,421.035C488.524,421.418 488.255,421.771 487.719,422.093C487.167,422.415 486.584,422.656 485.971,422.817C485.357,422.978 484.759,423.059 484.177,423.059C482.444,423.059 481.075,422.545 480.071,421.518C479.067,420.491 478.565,419.072 478.565,417.263C478.565,416.113 478.787,415.097 479.232,414.215C479.676,413.334 480.301,412.648 481.106,412.157C481.911,411.666 482.827,411.421 483.855,411.421C485.311,411.421 486.469,411.896 487.328,412.847C488.186,413.798 488.616,415.086 488.616,416.711C488.616,417.018 488.554,417.24 488.432,417.378C488.309,417.516 488.11,417.585 487.834,417.585L480.428,417.585C480.566,420.222 481.815,421.541 484.177,421.541C484.775,421.541 485.288,421.46 485.718,421.299C486.147,421.138 486.607,420.92 487.098,420.644C487.496,420.414 487.765,420.299 487.903,420.299ZM483.878,412.87C482.896,412.87 482.11,413.177 481.52,413.79C480.93,414.403 480.581,415.27 480.474,416.389L486.983,416.389C486.952,415.254 486.668,414.384 486.132,413.778C485.595,413.173 484.844,412.87 483.878,412.87Z" style="fill:rgb(104,105,107);fill-rule:nonzero;"/>
        <path d="M496.896,411.467C497.54,411.421 497.862,411.682 497.862,412.249C497.862,412.494 497.793,412.69 497.655,412.835C497.517,412.981 497.279,413.069 496.942,413.1L496.252,413.169C495.224,413.261 494.461,413.625 493.963,414.261C493.465,414.898 493.216,415.645 493.216,416.504L493.216,422.093C493.216,422.4 493.131,422.63 492.963,422.783C492.794,422.936 492.572,423.013 492.296,423.013C492.02,423.013 491.793,422.932 491.617,422.771C491.441,422.61 491.353,422.384 491.353,422.093L491.353,412.387C491.353,412.096 491.445,411.869 491.629,411.708C491.813,411.547 492.035,411.467 492.296,411.467C492.541,411.467 492.748,411.547 492.917,411.708C493.085,411.869 493.17,412.088 493.17,412.364L493.17,413.652C493.492,412.977 493.948,412.464 494.538,412.111C495.128,411.758 495.807,411.551 496.574,411.49L496.896,411.467Z" style="fill:rgb(104,105,107);fill-rule:nonzero;"/>
        <path d="M507.913,420.299C508.081,420.299 508.227,420.368 508.35,420.506C508.472,420.644 508.534,420.82 508.534,421.035C508.534,421.418 508.265,421.771 507.729,422.093C507.177,422.415 506.594,422.656 505.981,422.817C505.367,422.978 504.769,423.059 504.187,423.059C502.454,423.059 501.085,422.545 500.081,421.518C499.077,420.491 498.575,419.072 498.575,417.263C498.575,416.113 498.797,415.097 499.242,414.215C499.686,413.334 500.311,412.648 501.116,412.157C501.921,411.666 502.837,411.421 503.865,411.421C505.321,411.421 506.479,411.896 507.338,412.847C508.196,413.798 508.626,415.086 508.626,416.711C508.626,417.018 508.564,417.24 508.442,417.378C508.319,417.516 508.12,417.585 507.844,417.585L500.438,417.585C500.576,420.222 501.825,421.541 504.187,421.541C504.785,421.541 505.298,421.46 505.728,421.299C506.157,421.138 506.617,420.92 507.108,420.644C507.506,420.414 507.775,420.299 507.913,420.299ZM503.888,412.87C502.906,412.87 502.12,413.177 501.53,413.79C500.94,414.403 500.591,415.27 500.484,416.389L506.993,416.389C506.962,415.254 506.678,414.384 506.142,413.778C505.605,413.173 504.854,412.87 503.888,412.87Z" style="fill:rgb(104,105,107);fill-rule:nonzero;"/>
    </g>
</svg>
