<?xml version="1.0" encoding="UTF-8" standalone="no"?>
<!DOCTYPE svg PUBLIC "-//W3C//DTD SVG 1.1//EN" "http://www.w3.org/Graphics/SVG/1.1/DTD/svg11.dtd">
<svg width="100%" height="100%" viewBox="0 0 40 221" version="1.1" xmlns="http://www.w3.org/2000/svg" xmlns:xlink="http://www.w3.org/1999/xlink" xml:space="preserve" xmlns:serif="http://www.serif.com/" style="fill-rule:evenodd;clip-rule:evenodd;stroke-miterlimit:1.5;">
    <g transform="matrix(1,0,0,1,-851,-223)">
        <g>
            <g transform="matrix(0.0151695,0,0,0.0151695,849.937,218.279)">
                <g transform="matrix(4.16667,0,0,4.16667,0,0)">
                    <path d="M624.358,368.321L624.358,379.365L599.501,379.365L599.501,368.321L624.358,368.321ZM603.484,429.168C597.852,395.887 563.008,389.04 564.562,389.885C561.787,389.384 558.945,389.082 556.03,389.082C532.686,389.082 512.442,406.259 508.592,429.168L471.943,429.168C471.98,370.443 472.054,293.17 472.091,234.448L527.174,234.448L527.174,314.861C527.174,319.285 530.757,322.873 535.186,322.873L600.617,322.873L624.382,332.035L624.382,352.298L595.722,352.298C588.969,352.298 583.477,357.791 583.477,364.538L583.477,383.149C583.477,389.897 588.969,395.389 595.722,395.389L624.382,395.389L624.382,429.168L603.484,429.168ZM556.03,469.241C538.347,469.241 523.966,454.856 523.966,437.172C523.966,419.494 538.33,405.133 555.999,405.133C573.61,405.133 588.101,419.384 588.101,437.172C588.101,454.856 573.712,469.241 556.03,469.241ZM205.331,469.241C179.52,469.241 164.53,440.285 178.743,419.259C184.523,410.743 194.298,405.133 205.362,405.133C223.041,405.133 237.394,419.504 237.394,437.172C237.394,454.856 223.014,469.241 205.331,469.241ZM102.982,469.241C85.301,469.241 70.913,454.857 70.912,437.177C70.913,419.508 85.285,405.133 102.959,405.133C120.655,405.133 135.046,419.462 135.046,437.172C135.046,454.856 120.665,469.241 102.982,469.241ZM46.415,367.823L455.919,367.823L455.919,390.497L398.177,390.497C393.748,390.497 390.165,394.085 390.165,398.509C390.165,402.934 393.748,406.521 398.177,406.521L455.919,406.521L455.919,429.168L252.769,429.168C248.955,406.477 228.896,389.082 205.331,389.082C181.997,389.082 161.777,406.124 157.876,429.168L150.444,429.168C146.68,406.802 126.823,389.082 102.982,389.082C79.281,389.082 59.38,406.566 55.552,429.168L46.415,429.168L46.415,367.823ZM46.9,95.478C46.9,94.571 47.636,93.832 48.543,93.832L454.417,93.832C455.325,93.832 456.067,94.571 456.067,95.478L456.067,225.699C456.043,225.955 455.919,226.174 455.919,226.435L455.919,351.799L46.9,351.799L46.9,95.478ZM569.613,234.448C578.475,234.448 586.004,240.259 588.659,248.384C590.272,253.386 591.277,251.252 595.381,306.849L543.198,306.849L543.198,234.448L569.613,234.448ZM637.957,322.873L611.785,311.381C607.332,251.623 606.38,251.847 604.215,244.448C599.85,229.37 586.01,218.424 569.644,218.424L569.613,218.424C545.142,218.424 497.094,218.424 472.091,218.424L472.091,95.478C472.091,85.734 464.166,77.808 454.417,77.808L48.543,77.808C38.801,77.808 30.876,85.734 30.876,95.478C30.876,95.478 30.639,354.822 30.391,437.181C30.391,441.605 33.974,445.192 38.403,445.192L55.612,445.192C59.449,467.896 79.204,485.265 102.982,485.265C126.761,485.265 146.51,467.896 150.345,445.192L157.96,445.192C161.797,467.896 181.552,485.265 205.331,485.265C229.109,485.265 248.858,467.896 252.694,445.192C289.263,445.192 471.926,445.192 508.667,445.192C512.503,467.896 532.252,485.265 556.03,485.265C579.808,485.265 599.563,467.896 603.401,445.192L632.394,445.192C636.823,445.192 640.406,441.605 640.406,437.181L640.406,328.636C640.406,326.464 639.522,324.383 637.957,322.873Z" style="fill:rgb(3,4,5);fill-rule:nonzero;"/>
                </g>
                <g>
                    <g transform="matrix(4.16667,0,0,4.16667,-411.49,3.71331)">
                        <path d="M201.317,422.716C193.333,422.716 186.861,429.188 186.861,437.172C186.861,445.156 193.333,451.628 201.317,451.628C209.3,451.628 215.772,445.156 215.772,437.172C215.772,429.188 209.3,422.716 201.317,422.716Z" style="fill:rgb(3,4,5);fill-rule:nonzero;"/>
                    </g>
                    <g transform="matrix(4.16667,0,0,4.16667,-407.763,-4.54747e-13)">
                        <path d="M303.666,422.716C284.554,422.716 284.527,451.628 303.666,451.628C311.65,451.628 318.122,445.156 318.122,437.172C318.122,429.188 311.65,422.716 303.666,422.716Z" style="fill:rgb(3,4,5);fill-rule:nonzero;"/>
                    </g>
                    <g transform="matrix(4.16667,0,0,4.16667,-5.68434e-14,0)">
                        <path d="M556.033,422.716C548.05,422.716 541.578,429.188 541.578,437.172C541.578,445.156 548.05,451.628 556.033,451.628C564.017,451.628 570.489,445.156 570.489,437.172C570.489,429.188 564.017,422.716 556.033,422.716Z" style="fill:rgb(3,4,5);fill-rule:nonzero;"/>
                    </g>
                    <g transform="matrix(4.16667,0,0,4.16667,-5.68434e-14,0)">
                        <path d="M354.666,406.521L377.919,406.521C382.348,406.521 385.931,402.934 385.931,398.509C385.931,394.085 382.348,390.497 377.919,390.497L354.666,390.497C350.238,390.497 346.654,394.085 346.654,398.509C346.654,402.934 350.238,406.521 354.666,406.521Z" style="fill:rgb(3,4,5);fill-rule:nonzero;"/>
                    </g>
                    <g transform="matrix(4.16667,0,0,4.16667,-327.311,0)">
                        <path d="M174.67,155.412L245.667,155.412C250.095,155.412 253.679,151.824 253.679,147.4C253.679,142.975 250.095,139.388 245.667,139.388L174.67,139.388C170.241,139.388 166.658,142.975 166.658,147.4C166.658,151.824 170.241,155.412 174.67,155.412Z" style="fill:rgb(3,4,5);fill-rule:nonzero;"/>
                    </g>
                    <g transform="matrix(4.16667,0,0,4.16667,-327.311,0)">
                        <path d="M266.925,155.412L282.363,155.412C286.791,155.412 290.375,151.824 290.375,147.4C290.375,142.975 286.791,139.388 282.363,139.388L266.925,139.388C262.497,139.388 258.913,142.975 258.913,147.4C258.913,151.824 262.497,155.412 266.925,155.412Z" style="fill:rgb(3,4,5);fill-rule:nonzero;"/>
                    </g>
                    <g transform="matrix(4.16667,0,0,4.16667,-327.311,0)">
                        <path d="M245.667,290.253L174.67,290.253C170.241,290.253 166.658,293.841 166.658,298.266C166.658,302.69 170.241,306.277 174.67,306.277L245.667,306.277C250.095,306.277 253.679,302.69 253.679,298.266C253.679,293.841 250.095,290.253 245.667,290.253Z" style="fill:rgb(3,4,5);fill-rule:nonzero;"/>
                    </g>
                    <g transform="matrix(4.16667,0,0,4.16667,-327.311,0)">
                        <path d="M282.363,290.253L266.925,290.253C262.497,290.253 258.913,293.841 258.913,298.266C258.913,302.69 262.497,306.277 266.925,306.277L282.363,306.277C286.791,306.277 290.375,302.69 290.375,298.266C290.375,293.841 286.791,290.253 282.363,290.253Z" style="fill:rgb(3,4,5);fill-rule:nonzero;"/>
                    </g>
                </g>
                <g transform="matrix(1,0,0,1,35.4459,23.8212)">
                    <g transform="matrix(22.9156,5.81135e-32,5.81135e-32,-22.9156,-14467.8,11226.8)">
                        <path d="M648.314,450.813L684.083,450.813" style="fill:none;stroke:rgb(255,121,26);stroke-width:10.07px;stroke-dasharray:5.03,3.02,0,0;"/>
                    </g>
                    <g transform="matrix(44.0125,1.28126e-32,-1.28126e-32,44.0125,-21343.5,-15419.7)">
                        <g transform="matrix(1.79751,0,0,1.79751,-389.495,-288.618)">
                            <circle cx="504.776" cy="366.799" r="3.865" style="fill:rgb(255,121,26);"/>
                        </g>
                        <g transform="matrix(2.98931e-17,0.488191,-0.488191,2.98931e-17,779.446,119.57)">
                            <path d="M507.867,538.057L514.424,529.557L520.982,538.057" style="fill:rgb(255,121,26);stroke:white;stroke-width:4px;stroke-linecap:round;stroke-linejoin:round;"/>
                        </g>
                    </g>
                </g>
            </g>
            <g transform="matrix(0.0151695,0,0,0.0151695,849.937,266.857)">
                <g transform="matrix(4.16667,0,0,4.16667,0,0)">
                    <path d="M624.358,368.321L624.358,379.365L599.501,379.365L599.501,368.321L624.358,368.321ZM603.484,429.168C597.852,395.887 563.008,389.04 564.562,389.885C561.787,389.384 558.945,389.082 556.03,389.082C532.686,389.082 512.442,406.259 508.592,429.168L471.943,429.168C471.98,370.443 472.054,293.17 472.091,234.448L527.174,234.448L527.174,314.861C527.174,319.285 530.757,322.873 535.186,322.873L600.617,322.873L624.382,332.035L624.382,352.298L595.722,352.298C588.969,352.298 583.477,357.791 583.477,364.538L583.477,383.149C583.477,389.897 588.969,395.389 595.722,395.389L624.382,395.389L624.382,429.168L603.484,429.168ZM556.03,469.241C538.347,469.241 523.966,454.856 523.966,437.172C523.966,419.494 538.33,405.133 555.999,405.133C573.61,405.133 588.101,419.384 588.101,437.172C588.101,454.856 573.712,469.241 556.03,469.241ZM205.331,469.241C179.52,469.241 164.53,440.285 178.743,419.259C184.523,410.743 194.298,405.133 205.362,405.133C223.041,405.133 237.394,419.504 237.394,437.172C237.394,454.856 223.014,469.241 205.331,469.241ZM102.982,469.241C85.301,469.241 70.913,454.857 70.912,437.177C70.913,419.508 85.285,405.133 102.959,405.133C120.655,405.133 135.046,419.462 135.046,437.172C135.046,454.856 120.665,469.241 102.982,469.241ZM46.415,367.823L455.919,367.823L455.919,390.497L398.177,390.497C393.748,390.497 390.165,394.085 390.165,398.509C390.165,402.934 393.748,406.521 398.177,406.521L455.919,406.521L455.919,429.168L252.769,429.168C248.955,406.477 228.896,389.082 205.331,389.082C181.997,389.082 161.777,406.124 157.876,429.168L150.444,429.168C146.68,406.802 126.823,389.082 102.982,389.082C79.281,389.082 59.38,406.566 55.552,429.168L46.415,429.168L46.415,367.823ZM46.9,95.478C46.9,94.571 47.636,93.832 48.543,93.832L454.417,93.832C455.325,93.832 456.067,94.571 456.067,95.478L456.067,225.699C456.043,225.955 455.919,226.174 455.919,226.435L455.919,351.799L46.9,351.799L46.9,95.478ZM569.613,234.448C578.475,234.448 586.004,240.259 588.659,248.384C590.272,253.386 591.277,251.252 595.381,306.849L543.198,306.849L543.198,234.448L569.613,234.448ZM637.957,322.873L611.785,311.381C607.332,251.623 606.38,251.847 604.215,244.448C599.85,229.37 586.01,218.424 569.644,218.424L569.613,218.424C545.142,218.424 497.094,218.424 472.091,218.424L472.091,95.478C472.091,85.734 464.166,77.808 454.417,77.808L48.543,77.808C38.801,77.808 30.876,85.734 30.876,95.478C30.876,95.478 30.639,354.822 30.391,437.181C30.391,441.605 33.974,445.192 38.403,445.192L55.612,445.192C59.449,467.896 79.204,485.265 102.982,485.265C126.761,485.265 146.51,467.896 150.345,445.192L157.96,445.192C161.797,467.896 181.552,485.265 205.331,485.265C229.109,485.265 248.858,467.896 252.694,445.192C289.263,445.192 471.926,445.192 508.667,445.192C512.503,467.896 532.252,485.265 556.03,485.265C579.808,485.265 599.563,467.896 603.401,445.192L632.394,445.192C636.823,445.192 640.406,441.605 640.406,437.181L640.406,328.636C640.406,326.464 639.522,324.383 637.957,322.873Z" style="fill:rgb(3,4,5);fill-rule:nonzero;"/>
                </g>
                <g>
                    <g transform="matrix(4.16667,0,0,4.16667,-411.49,3.71331)">
                        <path d="M201.317,422.716C193.333,422.716 186.861,429.188 186.861,437.172C186.861,445.156 193.333,451.628 201.317,451.628C209.3,451.628 215.772,445.156 215.772,437.172C215.772,429.188 209.3,422.716 201.317,422.716Z" style="fill:rgb(3,4,5);fill-rule:nonzero;"/>
                    </g>
                    <g transform="matrix(4.16667,0,0,4.16667,-407.763,-4.54747e-13)">
                        <path d="M303.666,422.716C284.554,422.716 284.527,451.628 303.666,451.628C311.65,451.628 318.122,445.156 318.122,437.172C318.122,429.188 311.65,422.716 303.666,422.716Z" style="fill:rgb(3,4,5);fill-rule:nonzero;"/>
                    </g>
                    <g transform="matrix(4.16667,0,0,4.16667,-5.68434e-14,0)">
                        <path d="M556.033,422.716C548.05,422.716 541.578,429.188 541.578,437.172C541.578,445.156 548.05,451.628 556.033,451.628C564.017,451.628 570.489,445.156 570.489,437.172C570.489,429.188 564.017,422.716 556.033,422.716Z" style="fill:rgb(3,4,5);fill-rule:nonzero;"/>
                    </g>
                    <g transform="matrix(4.16667,0,0,4.16667,-5.68434e-14,0)">
                        <path d="M354.666,406.521L377.919,406.521C382.348,406.521 385.931,402.934 385.931,398.509C385.931,394.085 382.348,390.497 377.919,390.497L354.666,390.497C350.238,390.497 346.654,394.085 346.654,398.509C346.654,402.934 350.238,406.521 354.666,406.521Z" style="fill:rgb(3,4,5);fill-rule:nonzero;"/>
                    </g>
                    <g transform="matrix(4.16667,0,0,4.16667,-327.311,0)">
                        <path d="M174.67,155.412L245.667,155.412C250.095,155.412 253.679,151.824 253.679,147.4C253.679,142.975 250.095,139.388 245.667,139.388L174.67,139.388C170.241,139.388 166.658,142.975 166.658,147.4C166.658,151.824 170.241,155.412 174.67,155.412Z" style="fill:rgb(3,4,5);fill-rule:nonzero;"/>
                    </g>
                    <g transform="matrix(4.16667,0,0,4.16667,-327.311,0)">
                        <path d="M266.925,155.412L282.363,155.412C286.791,155.412 290.375,151.824 290.375,147.4C290.375,142.975 286.791,139.388 282.363,139.388L266.925,139.388C262.497,139.388 258.913,142.975 258.913,147.4C258.913,151.824 262.497,155.412 266.925,155.412Z" style="fill:rgb(3,4,5);fill-rule:nonzero;"/>
                    </g>
                    <g transform="matrix(4.16667,0,0,4.16667,-327.311,0)">
                        <path d="M245.667,290.253L174.67,290.253C170.241,290.253 166.658,293.841 166.658,298.266C166.658,302.69 170.241,306.277 174.67,306.277L245.667,306.277C250.095,306.277 253.679,302.69 253.679,298.266C253.679,293.841 250.095,290.253 245.667,290.253Z" style="fill:rgb(3,4,5);fill-rule:nonzero;"/>
                    </g>
                    <g transform="matrix(4.16667,0,0,4.16667,-327.311,0)">
                        <path d="M282.363,290.253L266.925,290.253C262.497,290.253 258.913,293.841 258.913,298.266C258.913,302.69 262.497,306.277 266.925,306.277L282.363,306.277C286.791,306.277 290.375,302.69 290.375,298.266C290.375,293.841 286.791,290.253 282.363,290.253Z" style="fill:rgb(3,4,5);fill-rule:nonzero;"/>
                    </g>
                </g>
                <g transform="matrix(1,0,0,1,35.4459,23.8212)">
                    <g transform="matrix(22.9156,5.81135e-32,5.81135e-32,-22.9156,-14467.8,11226.8)">
                        <path d="M648.314,450.813L684.083,450.813" style="fill:none;stroke:rgb(255,121,26);stroke-width:10.07px;stroke-dasharray:5.03,3.02,0,0;"/>
                    </g>
                    <g transform="matrix(44.0125,1.28126e-32,-1.28126e-32,44.0125,-21343.5,-15419.7)">
                        <g transform="matrix(1.79751,0,0,1.79751,-389.495,-288.618)">
                            <circle cx="504.776" cy="366.799" r="3.865" style="fill:rgb(255,121,26);"/>
                        </g>
                        <g transform="matrix(2.98931e-17,0.488191,-0.488191,2.98931e-17,779.446,119.57)">
                            <path d="M507.867,538.057L514.424,529.557L520.982,538.057" style="fill:rgb(255,121,26);stroke:white;stroke-width:4px;stroke-linecap:round;stroke-linejoin:round;"/>
                        </g>
                    </g>
                </g>
            </g>
            <g transform="matrix(0.0151695,0,0,0.0151695,849.937,315.434)">
                <g transform="matrix(4.16667,0,0,4.16667,0,0)">
                    <path d="M624.358,368.321L624.358,379.365L599.501,379.365L599.501,368.321L624.358,368.321ZM603.484,429.168C597.852,395.887 563.008,389.04 564.562,389.885C561.787,389.384 558.945,389.082 556.03,389.082C532.686,389.082 512.442,406.259 508.592,429.168L471.943,429.168C471.98,370.443 472.054,293.17 472.091,234.448L527.174,234.448L527.174,314.861C527.174,319.285 530.757,322.873 535.186,322.873L600.617,322.873L624.382,332.035L624.382,352.298L595.722,352.298C588.969,352.298 583.477,357.791 583.477,364.538L583.477,383.149C583.477,389.897 588.969,395.389 595.722,395.389L624.382,395.389L624.382,429.168L603.484,429.168ZM556.03,469.241C538.347,469.241 523.966,454.856 523.966,437.172C523.966,419.494 538.33,405.133 555.999,405.133C573.61,405.133 588.101,419.384 588.101,437.172C588.101,454.856 573.712,469.241 556.03,469.241ZM205.331,469.241C179.52,469.241 164.53,440.285 178.743,419.259C184.523,410.743 194.298,405.133 205.362,405.133C223.041,405.133 237.394,419.504 237.394,437.172C237.394,454.856 223.014,469.241 205.331,469.241ZM102.982,469.241C85.301,469.241 70.913,454.857 70.912,437.177C70.913,419.508 85.285,405.133 102.959,405.133C120.655,405.133 135.046,419.462 135.046,437.172C135.046,454.856 120.665,469.241 102.982,469.241ZM46.415,367.823L455.919,367.823L455.919,390.497L398.177,390.497C393.748,390.497 390.165,394.085 390.165,398.509C390.165,402.934 393.748,406.521 398.177,406.521L455.919,406.521L455.919,429.168L252.769,429.168C248.955,406.477 228.896,389.082 205.331,389.082C181.997,389.082 161.777,406.124 157.876,429.168L150.444,429.168C146.68,406.802 126.823,389.082 102.982,389.082C79.281,389.082 59.38,406.566 55.552,429.168L46.415,429.168L46.415,367.823ZM46.9,95.478C46.9,94.571 47.636,93.832 48.543,93.832L454.417,93.832C455.325,93.832 456.067,94.571 456.067,95.478L456.067,225.699C456.043,225.955 455.919,226.174 455.919,226.435L455.919,351.799L46.9,351.799L46.9,95.478ZM569.613,234.448C578.475,234.448 586.004,240.259 588.659,248.384C590.272,253.386 591.277,251.252 595.381,306.849L543.198,306.849L543.198,234.448L569.613,234.448ZM637.957,322.873L611.785,311.381C607.332,251.623 606.38,251.847 604.215,244.448C599.85,229.37 586.01,218.424 569.644,218.424L569.613,218.424C545.142,218.424 497.094,218.424 472.091,218.424L472.091,95.478C472.091,85.734 464.166,77.808 454.417,77.808L48.543,77.808C38.801,77.808 30.876,85.734 30.876,95.478C30.876,95.478 30.639,354.822 30.391,437.181C30.391,441.605 33.974,445.192 38.403,445.192L55.612,445.192C59.449,467.896 79.204,485.265 102.982,485.265C126.761,485.265 146.51,467.896 150.345,445.192L157.96,445.192C161.797,467.896 181.552,485.265 205.331,485.265C229.109,485.265 248.858,467.896 252.694,445.192C289.263,445.192 471.926,445.192 508.667,445.192C512.503,467.896 532.252,485.265 556.03,485.265C579.808,485.265 599.563,467.896 603.401,445.192L632.394,445.192C636.823,445.192 640.406,441.605 640.406,437.181L640.406,328.636C640.406,326.464 639.522,324.383 637.957,322.873Z" style="fill:rgb(3,4,5);fill-rule:nonzero;"/>
                </g>
                <g>
                    <g transform="matrix(4.16667,0,0,4.16667,-411.49,3.71331)">
                        <path d="M201.317,422.716C193.333,422.716 186.861,429.188 186.861,437.172C186.861,445.156 193.333,451.628 201.317,451.628C209.3,451.628 215.772,445.156 215.772,437.172C215.772,429.188 209.3,422.716 201.317,422.716Z" style="fill:rgb(3,4,5);fill-rule:nonzero;"/>
                    </g>
                    <g transform="matrix(4.16667,0,0,4.16667,-407.763,-4.54747e-13)">
                        <path d="M303.666,422.716C284.554,422.716 284.527,451.628 303.666,451.628C311.65,451.628 318.122,445.156 318.122,437.172C318.122,429.188 311.65,422.716 303.666,422.716Z" style="fill:rgb(3,4,5);fill-rule:nonzero;"/>
                    </g>
                    <g transform="matrix(4.16667,0,0,4.16667,-5.68434e-14,0)">
                        <path d="M556.033,422.716C548.05,422.716 541.578,429.188 541.578,437.172C541.578,445.156 548.05,451.628 556.033,451.628C564.017,451.628 570.489,445.156 570.489,437.172C570.489,429.188 564.017,422.716 556.033,422.716Z" style="fill:rgb(3,4,5);fill-rule:nonzero;"/>
                    </g>
                    <g transform="matrix(4.16667,0,0,4.16667,-5.68434e-14,0)">
                        <path d="M354.666,406.521L377.919,406.521C382.348,406.521 385.931,402.934 385.931,398.509C385.931,394.085 382.348,390.497 377.919,390.497L354.666,390.497C350.238,390.497 346.654,394.085 346.654,398.509C346.654,402.934 350.238,406.521 354.666,406.521Z" style="fill:rgb(3,4,5);fill-rule:nonzero;"/>
                    </g>
                    <g transform="matrix(4.16667,0,0,4.16667,-327.311,0)">
                        <path d="M174.67,155.412L245.667,155.412C250.095,155.412 253.679,151.824 253.679,147.4C253.679,142.975 250.095,139.388 245.667,139.388L174.67,139.388C170.241,139.388 166.658,142.975 166.658,147.4C166.658,151.824 170.241,155.412 174.67,155.412Z" style="fill:rgb(3,4,5);fill-rule:nonzero;"/>
                    </g>
                    <g transform="matrix(4.16667,0,0,4.16667,-327.311,0)">
                        <path d="M266.925,155.412L282.363,155.412C286.791,155.412 290.375,151.824 290.375,147.4C290.375,142.975 286.791,139.388 282.363,139.388L266.925,139.388C262.497,139.388 258.913,142.975 258.913,147.4C258.913,151.824 262.497,155.412 266.925,155.412Z" style="fill:rgb(3,4,5);fill-rule:nonzero;"/>
                    </g>
                    <g transform="matrix(4.16667,0,0,4.16667,-327.311,0)">
                        <path d="M245.667,290.253L174.67,290.253C170.241,290.253 166.658,293.841 166.658,298.266C166.658,302.69 170.241,306.277 174.67,306.277L245.667,306.277C250.095,306.277 253.679,302.69 253.679,298.266C253.679,293.841 250.095,290.253 245.667,290.253Z" style="fill:rgb(3,4,5);fill-rule:nonzero;"/>
                    </g>
                    <g transform="matrix(4.16667,0,0,4.16667,-327.311,0)">
                        <path d="M282.363,290.253L266.925,290.253C262.497,290.253 258.913,293.841 258.913,298.266C258.913,302.69 262.497,306.277 266.925,306.277L282.363,306.277C286.791,306.277 290.375,302.69 290.375,298.266C290.375,293.841 286.791,290.253 282.363,290.253Z" style="fill:rgb(3,4,5);fill-rule:nonzero;"/>
                    </g>
                </g>
                <g transform="matrix(1,0,0,1,35.4459,23.8212)">
                    <g transform="matrix(22.9156,5.81135e-32,5.81135e-32,-22.9156,-14467.8,11226.8)">
                        <path d="M648.314,450.813L684.083,450.813" style="fill:none;stroke:rgb(255,121,26);stroke-width:10.07px;stroke-dasharray:5.03,3.02,0,0;"/>
                    </g>
                    <g transform="matrix(44.0125,1.28126e-32,-1.28126e-32,44.0125,-21343.5,-15419.7)">
                        <g transform="matrix(1.79751,0,0,1.79751,-389.495,-288.618)">
                            <circle cx="504.776" cy="366.799" r="3.865" style="fill:rgb(255,121,26);"/>
                        </g>
                        <g transform="matrix(2.98931e-17,0.488191,-0.488191,2.98931e-17,779.446,119.57)">
                            <path d="M507.867,538.057L514.424,529.557L520.982,538.057" style="fill:rgb(255,121,26);stroke:white;stroke-width:4px;stroke-linecap:round;stroke-linejoin:round;"/>
                        </g>
                    </g>
                </g>
            </g>
            <g transform="matrix(0.0151695,0,0,0.0151695,849.937,364.011)">
                <g transform="matrix(4.16667,0,0,4.16667,0,0)">
                    <path d="M624.358,368.321L624.358,379.365L599.501,379.365L599.501,368.321L624.358,368.321ZM603.484,429.168C597.852,395.887 563.008,389.04 564.562,389.885C561.787,389.384 558.945,389.082 556.03,389.082C532.686,389.082 512.442,406.259 508.592,429.168L471.943,429.168C471.98,370.443 472.054,293.17 472.091,234.448L527.174,234.448L527.174,314.861C527.174,319.285 530.757,322.873 535.186,322.873L600.617,322.873L624.382,332.035L624.382,352.298L595.722,352.298C588.969,352.298 583.477,357.791 583.477,364.538L583.477,383.149C583.477,389.897 588.969,395.389 595.722,395.389L624.382,395.389L624.382,429.168L603.484,429.168ZM556.03,469.241C538.347,469.241 523.966,454.856 523.966,437.172C523.966,419.494 538.33,405.133 555.999,405.133C573.61,405.133 588.101,419.384 588.101,437.172C588.101,454.856 573.712,469.241 556.03,469.241ZM205.331,469.241C179.52,469.241 164.53,440.285 178.743,419.259C184.523,410.743 194.298,405.133 205.362,405.133C223.041,405.133 237.394,419.504 237.394,437.172C237.394,454.856 223.014,469.241 205.331,469.241ZM102.982,469.241C85.301,469.241 70.913,454.857 70.912,437.177C70.913,419.508 85.285,405.133 102.959,405.133C120.655,405.133 135.046,419.462 135.046,437.172C135.046,454.856 120.665,469.241 102.982,469.241ZM46.415,367.823L455.919,367.823L455.919,390.497L398.177,390.497C393.748,390.497 390.165,394.085 390.165,398.509C390.165,402.934 393.748,406.521 398.177,406.521L455.919,406.521L455.919,429.168L252.769,429.168C248.955,406.477 228.896,389.082 205.331,389.082C181.997,389.082 161.777,406.124 157.876,429.168L150.444,429.168C146.68,406.802 126.823,389.082 102.982,389.082C79.281,389.082 59.38,406.566 55.552,429.168L46.415,429.168L46.415,367.823ZM46.9,95.478C46.9,94.571 47.636,93.832 48.543,93.832L454.417,93.832C455.325,93.832 456.067,94.571 456.067,95.478L456.067,225.699C456.043,225.955 455.919,226.174 455.919,226.435L455.919,351.799L46.9,351.799L46.9,95.478ZM569.613,234.448C578.475,234.448 586.004,240.259 588.659,248.384C590.272,253.386 591.277,251.252 595.381,306.849L543.198,306.849L543.198,234.448L569.613,234.448ZM637.957,322.873L611.785,311.381C607.332,251.623 606.38,251.847 604.215,244.448C599.85,229.37 586.01,218.424 569.644,218.424L569.613,218.424C545.142,218.424 497.094,218.424 472.091,218.424L472.091,95.478C472.091,85.734 464.166,77.808 454.417,77.808L48.543,77.808C38.801,77.808 30.876,85.734 30.876,95.478C30.876,95.478 30.639,354.822 30.391,437.181C30.391,441.605 33.974,445.192 38.403,445.192L55.612,445.192C59.449,467.896 79.204,485.265 102.982,485.265C126.761,485.265 146.51,467.896 150.345,445.192L157.96,445.192C161.797,467.896 181.552,485.265 205.331,485.265C229.109,485.265 248.858,467.896 252.694,445.192C289.263,445.192 471.926,445.192 508.667,445.192C512.503,467.896 532.252,485.265 556.03,485.265C579.808,485.265 599.563,467.896 603.401,445.192L632.394,445.192C636.823,445.192 640.406,441.605 640.406,437.181L640.406,328.636C640.406,326.464 639.522,324.383 637.957,322.873Z" style="fill:rgb(3,4,5);fill-rule:nonzero;"/>
                </g>
                <g>
                    <g transform="matrix(4.16667,0,0,4.16667,-411.49,3.71331)">
                        <path d="M201.317,422.716C193.333,422.716 186.861,429.188 186.861,437.172C186.861,445.156 193.333,451.628 201.317,451.628C209.3,451.628 215.772,445.156 215.772,437.172C215.772,429.188 209.3,422.716 201.317,422.716Z" style="fill:rgb(3,4,5);fill-rule:nonzero;"/>
                    </g>
                    <g transform="matrix(4.16667,0,0,4.16667,-407.763,-4.54747e-13)">
                        <path d="M303.666,422.716C284.554,422.716 284.527,451.628 303.666,451.628C311.65,451.628 318.122,445.156 318.122,437.172C318.122,429.188 311.65,422.716 303.666,422.716Z" style="fill:rgb(3,4,5);fill-rule:nonzero;"/>
                    </g>
                    <g transform="matrix(4.16667,0,0,4.16667,-5.68434e-14,0)">
                        <path d="M556.033,422.716C548.05,422.716 541.578,429.188 541.578,437.172C541.578,445.156 548.05,451.628 556.033,451.628C564.017,451.628 570.489,445.156 570.489,437.172C570.489,429.188 564.017,422.716 556.033,422.716Z" style="fill:rgb(3,4,5);fill-rule:nonzero;"/>
                    </g>
                    <g transform="matrix(4.16667,0,0,4.16667,-5.68434e-14,0)">
                        <path d="M354.666,406.521L377.919,406.521C382.348,406.521 385.931,402.934 385.931,398.509C385.931,394.085 382.348,390.497 377.919,390.497L354.666,390.497C350.238,390.497 346.654,394.085 346.654,398.509C346.654,402.934 350.238,406.521 354.666,406.521Z" style="fill:rgb(3,4,5);fill-rule:nonzero;"/>
                    </g>
                    <g transform="matrix(4.16667,0,0,4.16667,-327.311,0)">
                        <path d="M174.67,155.412L245.667,155.412C250.095,155.412 253.679,151.824 253.679,147.4C253.679,142.975 250.095,139.388 245.667,139.388L174.67,139.388C170.241,139.388 166.658,142.975 166.658,147.4C166.658,151.824 170.241,155.412 174.67,155.412Z" style="fill:rgb(3,4,5);fill-rule:nonzero;"/>
                    </g>
                    <g transform="matrix(4.16667,0,0,4.16667,-327.311,0)">
                        <path d="M266.925,155.412L282.363,155.412C286.791,155.412 290.375,151.824 290.375,147.4C290.375,142.975 286.791,139.388 282.363,139.388L266.925,139.388C262.497,139.388 258.913,142.975 258.913,147.4C258.913,151.824 262.497,155.412 266.925,155.412Z" style="fill:rgb(3,4,5);fill-rule:nonzero;"/>
                    </g>
                    <g transform="matrix(4.16667,0,0,4.16667,-327.311,0)">
                        <path d="M245.667,290.253L174.67,290.253C170.241,290.253 166.658,293.841 166.658,298.266C166.658,302.69 170.241,306.277 174.67,306.277L245.667,306.277C250.095,306.277 253.679,302.69 253.679,298.266C253.679,293.841 250.095,290.253 245.667,290.253Z" style="fill:rgb(3,4,5);fill-rule:nonzero;"/>
                    </g>
                    <g transform="matrix(4.16667,0,0,4.16667,-327.311,0)">
                        <path d="M282.363,290.253L266.925,290.253C262.497,290.253 258.913,293.841 258.913,298.266C258.913,302.69 262.497,306.277 266.925,306.277L282.363,306.277C286.791,306.277 290.375,302.69 290.375,298.266C290.375,293.841 286.791,290.253 282.363,290.253Z" style="fill:rgb(3,4,5);fill-rule:nonzero;"/>
                    </g>
                </g>
                <g transform="matrix(1,0,0,1,35.4459,23.8212)">
                    <g transform="matrix(22.9156,5.81135e-32,5.81135e-32,-22.9156,-14467.8,11226.8)">
                        <path d="M648.314,450.813L684.083,450.813" style="fill:none;stroke:rgb(255,121,26);stroke-width:10.07px;stroke-dasharray:5.03,3.02,0,0;"/>
                    </g>
                    <g transform="matrix(44.0125,1.28126e-32,-1.28126e-32,44.0125,-21343.5,-15419.7)">
                        <g transform="matrix(1.79751,0,0,1.79751,-389.495,-288.618)">
                            <circle cx="504.776" cy="366.799" r="3.865" style="fill:rgb(255,121,26);"/>
                        </g>
                        <g transform="matrix(2.98931e-17,0.488191,-0.488191,2.98931e-17,779.446,119.57)">
                            <path d="M507.867,538.057L514.424,529.557L520.982,538.057" style="fill:rgb(255,121,26);stroke:white;stroke-width:4px;stroke-linecap:round;stroke-linejoin:round;"/>
                        </g>
                    </g>
                </g>
            </g>
            <g transform="matrix(0.0151695,0,0,0.0151695,849.937,412.589)">
                <g transform="matrix(4.16667,0,0,4.16667,0,0)">
                    <path d="M624.358,368.321L624.358,379.365L599.501,379.365L599.501,368.321L624.358,368.321ZM603.484,429.168C597.852,395.887 563.008,389.04 564.562,389.885C561.787,389.384 558.945,389.082 556.03,389.082C532.686,389.082 512.442,406.259 508.592,429.168L471.943,429.168C471.98,370.443 472.054,293.17 472.091,234.448L527.174,234.448L527.174,314.861C527.174,319.285 530.757,322.873 535.186,322.873L600.617,322.873L624.382,332.035L624.382,352.298L595.722,352.298C588.969,352.298 583.477,357.791 583.477,364.538L583.477,383.149C583.477,389.897 588.969,395.389 595.722,395.389L624.382,395.389L624.382,429.168L603.484,429.168ZM556.03,469.241C538.347,469.241 523.966,454.856 523.966,437.172C523.966,419.494 538.33,405.133 555.999,405.133C573.61,405.133 588.101,419.384 588.101,437.172C588.101,454.856 573.712,469.241 556.03,469.241ZM205.331,469.241C179.52,469.241 164.53,440.285 178.743,419.259C184.523,410.743 194.298,405.133 205.362,405.133C223.041,405.133 237.394,419.504 237.394,437.172C237.394,454.856 223.014,469.241 205.331,469.241ZM102.982,469.241C85.301,469.241 70.913,454.857 70.912,437.177C70.913,419.508 85.285,405.133 102.959,405.133C120.655,405.133 135.046,419.462 135.046,437.172C135.046,454.856 120.665,469.241 102.982,469.241ZM46.415,367.823L455.919,367.823L455.919,390.497L398.177,390.497C393.748,390.497 390.165,394.085 390.165,398.509C390.165,402.934 393.748,406.521 398.177,406.521L455.919,406.521L455.919,429.168L252.769,429.168C248.955,406.477 228.896,389.082 205.331,389.082C181.997,389.082 161.777,406.124 157.876,429.168L150.444,429.168C146.68,406.802 126.823,389.082 102.982,389.082C79.281,389.082 59.38,406.566 55.552,429.168L46.415,429.168L46.415,367.823ZM46.9,95.478C46.9,94.571 47.636,93.832 48.543,93.832L454.417,93.832C455.325,93.832 456.067,94.571 456.067,95.478L456.067,225.699C456.043,225.955 455.919,226.174 455.919,226.435L455.919,351.799L46.9,351.799L46.9,95.478ZM569.613,234.448C578.475,234.448 586.004,240.259 588.659,248.384C590.272,253.386 591.277,251.252 595.381,306.849L543.198,306.849L543.198,234.448L569.613,234.448ZM637.957,322.873L611.785,311.381C607.332,251.623 606.38,251.847 604.215,244.448C599.85,229.37 586.01,218.424 569.644,218.424L569.613,218.424C545.142,218.424 497.094,218.424 472.091,218.424L472.091,95.478C472.091,85.734 464.166,77.808 454.417,77.808L48.543,77.808C38.801,77.808 30.876,85.734 30.876,95.478C30.876,95.478 30.639,354.822 30.391,437.181C30.391,441.605 33.974,445.192 38.403,445.192L55.612,445.192C59.449,467.896 79.204,485.265 102.982,485.265C126.761,485.265 146.51,467.896 150.345,445.192L157.96,445.192C161.797,467.896 181.552,485.265 205.331,485.265C229.109,485.265 248.858,467.896 252.694,445.192C289.263,445.192 471.926,445.192 508.667,445.192C512.503,467.896 532.252,485.265 556.03,485.265C579.808,485.265 599.563,467.896 603.401,445.192L632.394,445.192C636.823,445.192 640.406,441.605 640.406,437.181L640.406,328.636C640.406,326.464 639.522,324.383 637.957,322.873Z" style="fill:rgb(3,4,5);fill-rule:nonzero;"/>
                </g>
                <g>
                    <g transform="matrix(4.16667,0,0,4.16667,-411.49,3.71331)">
                        <path d="M201.317,422.716C193.333,422.716 186.861,429.188 186.861,437.172C186.861,445.156 193.333,451.628 201.317,451.628C209.3,451.628 215.772,445.156 215.772,437.172C215.772,429.188 209.3,422.716 201.317,422.716Z" style="fill:rgb(3,4,5);fill-rule:nonzero;"/>
                    </g>
                    <g transform="matrix(4.16667,0,0,4.16667,-407.763,-4.54747e-13)">
                        <path d="M303.666,422.716C284.554,422.716 284.527,451.628 303.666,451.628C311.65,451.628 318.122,445.156 318.122,437.172C318.122,429.188 311.65,422.716 303.666,422.716Z" style="fill:rgb(3,4,5);fill-rule:nonzero;"/>
                    </g>
                    <g transform="matrix(4.16667,0,0,4.16667,-5.68434e-14,0)">
                        <path d="M556.033,422.716C548.05,422.716 541.578,429.188 541.578,437.172C541.578,445.156 548.05,451.628 556.033,451.628C564.017,451.628 570.489,445.156 570.489,437.172C570.489,429.188 564.017,422.716 556.033,422.716Z" style="fill:rgb(3,4,5);fill-rule:nonzero;"/>
                    </g>
                    <g transform="matrix(4.16667,0,0,4.16667,-5.68434e-14,0)">
                        <path d="M354.666,406.521L377.919,406.521C382.348,406.521 385.931,402.934 385.931,398.509C385.931,394.085 382.348,390.497 377.919,390.497L354.666,390.497C350.238,390.497 346.654,394.085 346.654,398.509C346.654,402.934 350.238,406.521 354.666,406.521Z" style="fill:rgb(3,4,5);fill-rule:nonzero;"/>
                    </g>
                    <g transform="matrix(4.16667,0,0,4.16667,-327.311,0)">
                        <path d="M174.67,155.412L245.667,155.412C250.095,155.412 253.679,151.824 253.679,147.4C253.679,142.975 250.095,139.388 245.667,139.388L174.67,139.388C170.241,139.388 166.658,142.975 166.658,147.4C166.658,151.824 170.241,155.412 174.67,155.412Z" style="fill:rgb(3,4,5);fill-rule:nonzero;"/>
                    </g>
                    <g transform="matrix(4.16667,0,0,4.16667,-327.311,0)">
                        <path d="M266.925,155.412L282.363,155.412C286.791,155.412 290.375,151.824 290.375,147.4C290.375,142.975 286.791,139.388 282.363,139.388L266.925,139.388C262.497,139.388 258.913,142.975 258.913,147.4C258.913,151.824 262.497,155.412 266.925,155.412Z" style="fill:rgb(3,4,5);fill-rule:nonzero;"/>
                    </g>
                    <g transform="matrix(4.16667,0,0,4.16667,-327.311,0)">
                        <path d="M245.667,290.253L174.67,290.253C170.241,290.253 166.658,293.841 166.658,298.266C166.658,302.69 170.241,306.277 174.67,306.277L245.667,306.277C250.095,306.277 253.679,302.69 253.679,298.266C253.679,293.841 250.095,290.253 245.667,290.253Z" style="fill:rgb(3,4,5);fill-rule:nonzero;"/>
                    </g>
                    <g transform="matrix(4.16667,0,0,4.16667,-327.311,0)">
                        <path d="M282.363,290.253L266.925,290.253C262.497,290.253 258.913,293.841 258.913,298.266C258.913,302.69 262.497,306.277 266.925,306.277L282.363,306.277C286.791,306.277 290.375,302.69 290.375,298.266C290.375,293.841 286.791,290.253 282.363,290.253Z" style="fill:rgb(3,4,5);fill-rule:nonzero;"/>
                    </g>
                </g>
                <g transform="matrix(1,0,0,1,35.4459,23.8212)">
                    <g transform="matrix(22.9156,5.81135e-32,5.81135e-32,-22.9156,-14467.8,11226.8)">
                        <path d="M648.314,450.813L684.083,450.813" style="fill:none;stroke:rgb(255,121,26);stroke-width:10.07px;stroke-dasharray:5.03,3.02,0,0;"/>
                    </g>
                    <g transform="matrix(44.0125,1.28126e-32,-1.28126e-32,44.0125,-21343.5,-15419.7)">
                        <g transform="matrix(1.79751,0,0,1.79751,-389.495,-288.618)">
                            <circle cx="504.776" cy="366.799" r="3.865" style="fill:rgb(255,121,26);"/>
                        </g>
                        <g transform="matrix(2.98931e-17,0.488191,-0.488191,2.98931e-17,779.446,119.57)">
                            <path d="M507.867,538.057L514.424,529.557L520.982,538.057" style="fill:rgb(255,121,26);stroke:white;stroke-width:4px;stroke-linecap:round;stroke-linejoin:round;"/>
                        </g>
                    </g>
                </g>
            </g>
        </g>
    </g>
</svg>
