<?xml version="1.0" encoding="UTF-8" standalone="no"?>
<!DOCTYPE svg PUBLIC "-//W3C//DTD SVG 1.1//EN" "http://www.w3.org/Graphics/SVG/1.1/DTD/svg11.dtd">
<svg width="100%" height="100%" viewBox="0 0 167 21" version="1.1" xmlns="http://www.w3.org/2000/svg" xmlns:xlink="http://www.w3.org/1999/xlink" xml:space="preserve" xmlns:serif="http://www.serif.com/" style="fill-rule:evenodd;clip-rule:evenodd;stroke-linejoin:round;stroke-miterlimit:1.41421;">
    <g transform="matrix(1,0,0,1,-468,-50)">
        <g transform="matrix(0.944688,0,0,1,417.61,1.67219)">
            <path d="M62.998,69.281C61.153,69.281 59.556,68.879 58.209,68.077C56.862,67.274 55.823,66.12 55.094,64.616C54.365,63.112 54.001,61.336 54.001,59.287C54.001,57.257 54.365,55.49 55.094,53.985C55.823,52.481 56.862,51.328 58.209,50.525C59.556,49.722 61.153,49.321 62.998,49.321C64.235,49.321 65.402,49.519 66.5,49.916C67.598,50.313 68.553,50.88 69.365,51.618C69.661,51.895 69.808,52.218 69.808,52.587C69.808,52.846 69.735,53.072 69.587,53.266C69.439,53.459 69.264,53.556 69.061,53.556C68.839,53.556 68.572,53.455 68.258,53.252C67.317,52.514 66.463,51.997 65.697,51.702C64.931,51.406 64.05,51.259 63.054,51.259C60.913,51.259 59.265,51.955 58.112,53.349C56.958,54.742 56.382,56.722 56.382,59.287C56.382,61.871 56.958,63.859 58.112,65.253C59.265,66.646 60.913,67.343 63.054,67.343C64.032,67.343 64.908,67.195 65.683,66.9C66.459,66.605 67.317,66.088 68.258,65.35C68.572,65.147 68.839,65.045 69.061,65.045C69.264,65.045 69.439,65.137 69.587,65.322C69.735,65.507 69.808,65.737 69.808,66.014C69.808,66.383 69.661,66.706 69.365,66.983C68.553,67.721 67.598,68.289 66.5,68.686C65.402,69.082 64.235,69.281 62.998,69.281Z" style="fill:white;fill-rule:nonzero;"/>
            <path d="M81.325,69.281C79.516,69.281 77.943,68.875 76.605,68.063C75.267,67.251 74.238,66.097 73.518,64.602C72.798,63.107 72.438,61.345 72.438,59.315C72.438,57.266 72.794,55.49 73.504,53.985C74.215,52.481 75.239,51.328 76.577,50.525C77.915,49.722 79.498,49.321 81.325,49.321C83.152,49.321 84.735,49.722 86.073,50.525C87.411,51.328 88.435,52.481 89.146,53.985C89.856,55.49 90.211,57.257 90.211,59.287C90.211,61.317 89.852,63.084 89.132,64.588C88.412,66.093 87.383,67.251 86.045,68.063C84.707,68.875 83.134,69.281 81.325,69.281ZM81.325,67.343C83.392,67.343 85.002,66.646 86.156,65.253C87.309,63.859 87.886,61.871 87.886,59.287C87.886,56.703 87.314,54.719 86.17,53.335C85.025,51.951 83.41,51.259 81.325,51.259C79.258,51.259 77.648,51.955 76.494,53.349C75.341,54.742 74.764,56.722 74.764,59.287C74.764,61.852 75.341,63.836 76.494,65.239C77.648,66.642 79.258,67.343 81.325,67.343Z" style="fill:white;fill-rule:nonzero;"/>
            <path d="M111.639,49.404C111.989,49.404 112.262,49.51 112.455,49.722C112.649,49.934 112.746,50.216 112.746,50.566L112.746,68.09C112.746,68.423 112.654,68.69 112.469,68.893C112.285,69.096 112.026,69.198 111.694,69.198C111.362,69.198 111.113,69.096 110.947,68.893C110.781,68.69 110.697,68.423 110.697,68.09L110.697,53.944L104.69,65.46C104.432,65.996 104.053,66.263 103.555,66.263C103.075,66.263 102.697,65.996 102.42,65.46L96.385,54.082L96.385,68.09C96.385,68.423 96.297,68.69 96.122,68.893C95.947,69.096 95.693,69.198 95.361,69.198C95.028,69.198 94.77,69.096 94.585,68.893C94.401,68.69 94.309,68.423 94.309,68.09L94.309,50.566C94.309,50.216 94.41,49.934 94.613,49.722C94.816,49.51 95.093,49.404 95.444,49.404C95.905,49.404 96.274,49.671 96.551,50.207L103.583,63.689L110.531,50.207C110.679,49.911 110.841,49.704 111.016,49.584C111.191,49.464 111.399,49.404 111.639,49.404Z" style="fill:white;fill-rule:nonzero;"/>
            <path d="M118.726,69.198C118.375,69.198 118.098,69.092 117.895,68.879C117.692,68.667 117.591,68.386 117.591,68.035L117.591,50.65C117.591,50.317 117.697,50.05 117.909,49.847C118.121,49.644 118.403,49.542 118.753,49.542L125.315,49.542C127.363,49.542 128.955,50.04 130.09,51.037C131.225,52.034 131.793,53.446 131.793,55.273C131.793,57.1 131.22,58.521 130.076,59.536C128.932,60.551 127.345,61.059 125.315,61.059L119.861,61.059L119.861,68.035C119.861,68.386 119.759,68.667 119.556,68.879C119.353,69.092 119.076,69.198 118.726,69.198ZM125.093,59.176C128.065,59.176 129.55,57.875 129.55,55.273C129.55,52.707 128.065,51.425 125.093,51.425L119.861,51.425L119.861,59.176L125.093,59.176Z" style="fill:white;fill-rule:nonzero;"/>
            <path d="M136.554,69.059C136.24,69.059 135.977,68.962 135.765,68.769C135.553,68.575 135.447,68.321 135.447,68.007L135.447,50.566C135.447,50.216 135.548,49.934 135.751,49.722C135.954,49.51 136.231,49.404 136.582,49.404C136.933,49.404 137.209,49.51 137.412,49.722C137.615,49.934 137.717,50.216 137.717,50.566L137.717,67.121L146.659,67.121C146.991,67.121 147.249,67.205 147.434,67.371C147.619,67.537 147.711,67.777 147.711,68.09C147.711,68.404 147.619,68.644 147.434,68.81C147.249,68.976 146.991,69.059 146.659,69.059L136.554,69.059Z" style="fill:white;fill-rule:nonzero;"/>
            <path d="M151.531,69.198C151.181,69.198 150.904,69.092 150.701,68.879C150.498,68.667 150.396,68.386 150.396,68.035L150.396,50.566C150.396,50.216 150.498,49.934 150.701,49.722C150.904,49.51 151.181,49.404 151.531,49.404C151.882,49.404 152.159,49.51 152.362,49.722C152.565,49.934 152.666,50.216 152.666,50.566L152.666,68.035C152.666,68.386 152.565,68.667 152.362,68.879C152.159,69.092 151.882,69.198 151.531,69.198Z" style="fill:white;fill-rule:nonzero;"/>
            <path d="M174.287,67.758C174.361,67.906 174.398,68.063 174.398,68.229C174.398,68.506 174.292,68.736 174.08,68.921C173.867,69.105 173.614,69.198 173.318,69.198C172.857,69.198 172.534,68.976 172.349,68.533L170.384,64.049L159.947,64.049L157.954,68.533C157.769,68.976 157.446,69.198 156.985,69.198C156.69,69.198 156.431,69.101 156.21,68.907C155.988,68.713 155.878,68.478 155.878,68.201C155.878,68.053 155.914,67.906 155.988,67.758L163.906,50.151C164.017,49.893 164.183,49.699 164.404,49.57C164.626,49.441 164.866,49.376 165.124,49.376C165.401,49.376 165.65,49.445 165.871,49.584C166.093,49.722 166.259,49.911 166.37,50.151L174.287,67.758ZM160.778,62.166L169.553,62.166L165.152,52.228L160.778,62.166Z" style="fill:white;fill-rule:nonzero;"/>
            <path d="M192.199,49.404C192.531,49.404 192.789,49.51 192.974,49.722C193.159,49.934 193.251,50.216 193.251,50.566L193.251,68.035C193.251,68.386 193.154,68.667 192.96,68.879C192.766,69.092 192.494,69.198 192.143,69.198C191.793,69.198 191.488,69.041 191.23,68.727L179.741,53.363L179.741,68.035C179.741,68.386 179.644,68.667 179.45,68.879C179.257,69.092 178.994,69.198 178.661,69.198C178.329,69.198 178.071,69.092 177.886,68.879C177.702,68.667 177.609,68.386 177.609,68.035L177.609,50.566C177.609,50.216 177.706,49.934 177.9,49.722C178.094,49.51 178.366,49.404 178.717,49.404C179.086,49.404 179.4,49.561 179.658,49.874L191.119,65.239L191.119,50.566C191.119,50.216 191.216,49.934 191.41,49.722C191.604,49.51 191.867,49.404 192.199,49.404Z" style="fill:white;fill-rule:nonzero;"/>
            <path d="M206.345,69.281C204.5,69.281 202.903,68.879 201.556,68.077C200.209,67.274 199.171,66.12 198.442,64.616C197.713,63.112 197.348,61.336 197.348,59.287C197.348,57.257 197.713,55.49 198.442,53.985C199.171,52.481 200.209,51.328 201.556,50.525C202.903,49.722 204.5,49.321 206.345,49.321C207.582,49.321 208.749,49.519 209.847,49.916C210.945,50.313 211.901,50.88 212.713,51.618C213.008,51.895 213.156,52.218 213.156,52.587C213.156,52.846 213.082,53.072 212.934,53.266C212.786,53.459 212.611,53.556 212.408,53.556C212.187,53.556 211.919,53.455 211.605,53.252C210.664,52.514 209.81,51.997 209.044,51.702C208.279,51.406 207.397,51.259 206.401,51.259C204.26,51.259 202.613,51.955 201.459,53.349C200.306,54.742 199.729,56.722 199.729,59.287C199.729,61.871 200.306,63.859 201.459,65.253C202.613,66.646 204.26,67.343 206.401,67.343C207.379,67.343 208.255,67.195 209.031,66.9C209.806,66.605 210.664,66.088 211.605,65.35C211.919,65.147 212.187,65.045 212.408,65.045C212.611,65.045 212.786,65.137 212.934,65.322C213.082,65.507 213.156,65.737 213.156,66.014C213.156,66.383 213.008,66.706 212.713,66.983C211.901,67.721 210.945,68.289 209.847,68.686C208.749,69.082 207.582,69.281 206.345,69.281Z" style="fill:white;fill-rule:nonzero;"/>
            <path d="M217.973,69.059C217.622,69.059 217.34,68.958 217.128,68.755C216.916,68.552 216.81,68.284 216.81,67.952L216.81,50.65C216.81,50.317 216.916,50.05 217.128,49.847C217.34,49.644 217.622,49.542 217.973,49.542L228.326,49.542C228.659,49.542 228.917,49.625 229.101,49.791C229.286,49.957 229.378,50.188 229.378,50.483C229.378,50.779 229.286,51.009 229.101,51.176C228.917,51.342 228.659,51.425 228.326,51.425L219.052,51.425L219.052,58.207L227.773,58.207C228.105,58.207 228.363,58.29 228.548,58.456C228.732,58.623 228.825,58.853 228.825,59.148C228.825,59.444 228.732,59.674 228.548,59.841C228.363,60.007 228.105,60.09 227.773,60.09L219.052,60.09L219.052,67.177L228.326,67.177C228.659,67.177 228.917,67.255 229.101,67.412C229.286,67.569 229.378,67.804 229.378,68.118C229.378,68.413 229.286,68.644 229.101,68.81C228.917,68.976 228.659,69.059 228.326,69.059L217.973,69.059Z" style="fill:white;fill-rule:nonzero;"/>
        </g>
    </g>
</svg>
