<?xml version="1.0" encoding="UTF-8" standalone="no"?>
<!DOCTYPE svg PUBLIC "-//W3C//DTD SVG 1.1//EN" "http://www.w3.org/Graphics/SVG/1.1/DTD/svg11.dtd">
<svg width="100%" height="100%" viewBox="0 0 20 4" version="1.1" xmlns="http://www.w3.org/2000/svg" xmlns:xlink="http://www.w3.org/1999/xlink" xml:space="preserve" xmlns:serif="http://www.serif.com/" style="fill-rule:evenodd;clip-rule:evenodd;stroke-linejoin:round;stroke-miterlimit:1.41421;">
    <g transform="matrix(0.243001,0,0,0.243001,-1.86129,2.71882)">
        <path d="M17.321,-0.592C17.355,-0.525 17.372,-0.454 17.372,-0.378C17.372,-0.252 17.323,-0.147 17.227,-0.063C17.13,0.021 17.015,0.063 16.88,0.063C16.67,0.063 16.523,-0.038 16.439,-0.239L15.545,-2.281L10.794,-2.281L9.887,-0.239C9.803,-0.038 9.656,0.063 9.446,0.063C9.312,0.063 9.194,0.019 9.093,-0.069C8.993,-0.157 8.942,-0.265 8.942,-0.391C8.942,-0.458 8.959,-0.525 8.993,-0.592L12.596,-8.606C12.647,-8.723 12.722,-8.812 12.823,-8.87C12.924,-8.929 13.033,-8.959 13.151,-8.959C13.277,-8.959 13.39,-8.927 13.491,-8.864C13.592,-8.801 13.667,-8.715 13.718,-8.606L17.321,-0.592ZM11.172,-3.137L15.167,-3.137L13.163,-7.661L11.172,-3.137Z" style="fill:rgb(104,105,107);fill-rule:nonzero;"/>
        <path d="M21.739,-6.287C23.209,-6.287 23.944,-5.477 23.944,-3.856L23.944,-0.441C23.944,-0.281 23.9,-0.157 23.811,-0.069C23.723,0.019 23.599,0.063 23.44,0.063C23.28,0.063 23.154,0.019 23.062,-0.069C22.969,-0.157 22.923,-0.281 22.923,-0.441L22.923,-3.793C22.923,-4.364 22.812,-4.78 22.589,-5.04C22.367,-5.3 22.012,-5.431 21.525,-5.431C20.962,-5.431 20.512,-5.258 20.176,-4.914C19.84,-4.57 19.672,-4.103 19.672,-3.515L19.672,-0.441C19.672,-0.281 19.628,-0.157 19.54,-0.069C19.452,0.019 19.328,0.063 19.168,0.063C19.009,0.063 18.883,0.019 18.79,-0.069C18.698,-0.157 18.652,-0.281 18.652,-0.441L18.652,-5.758C18.652,-5.909 18.698,-6.031 18.79,-6.124C18.883,-6.216 19.009,-6.262 19.168,-6.262C19.32,-6.262 19.439,-6.216 19.527,-6.124C19.616,-6.031 19.66,-5.914 19.66,-5.771L19.66,-5.128C19.861,-5.506 20.143,-5.794 20.504,-5.991C20.865,-6.189 21.277,-6.287 21.739,-6.287Z" style="fill:rgb(104,105,107);fill-rule:nonzero;"/>
        <path d="M28.613,-0.743C28.907,-0.718 29.054,-0.584 29.054,-0.34C29.054,-0.197 29.002,-0.09 28.897,-0.019C28.792,0.053 28.634,0.08 28.424,0.063L28.084,0.038C27.412,-0.013 26.917,-0.214 26.597,-0.567C26.278,-0.92 26.119,-1.453 26.119,-2.167L26.119,-5.33L25.274,-5.33C25.132,-5.33 25.02,-5.365 24.94,-5.437C24.861,-5.508 24.821,-5.603 24.821,-5.72C24.821,-5.846 24.861,-5.947 24.94,-6.023C25.02,-6.098 25.132,-6.136 25.274,-6.136L26.119,-6.136L26.119,-7.56C26.119,-7.72 26.165,-7.844 26.257,-7.932C26.35,-8.02 26.476,-8.064 26.635,-8.064C26.786,-8.064 26.908,-8.02 27.001,-7.932C27.093,-7.844 27.139,-7.72 27.139,-7.56L27.139,-6.136L28.538,-6.136C28.672,-6.136 28.779,-6.098 28.859,-6.023C28.939,-5.947 28.979,-5.846 28.979,-5.72C28.979,-5.603 28.939,-5.508 28.859,-5.437C28.779,-5.365 28.672,-5.33 28.538,-5.33L27.139,-5.33L27.139,-2.117C27.139,-1.655 27.234,-1.321 27.423,-1.115C27.612,-0.909 27.895,-0.794 28.273,-0.769L28.613,-0.743Z" style="fill:rgb(104,105,107);fill-rule:nonzero;"/>
        <path d="M30.549,0.063C30.398,0.063 30.274,0.019 30.177,-0.069C30.08,-0.157 30.032,-0.281 30.032,-0.441L30.032,-5.758C30.032,-5.918 30.08,-6.042 30.177,-6.13C30.274,-6.218 30.398,-6.262 30.549,-6.262C30.7,-6.262 30.822,-6.218 30.914,-6.13C31.007,-6.042 31.053,-5.918 31.053,-5.758L31.053,-0.441C31.053,-0.273 31.007,-0.147 30.914,-0.063C30.822,0.021 30.7,0.063 30.549,0.063ZM30.549,-7.585C30.347,-7.585 30.183,-7.644 30.057,-7.762C29.931,-7.879 29.868,-8.035 29.868,-8.228C29.868,-8.413 29.931,-8.564 30.057,-8.681C30.183,-8.799 30.347,-8.858 30.549,-8.858C30.75,-8.858 30.914,-8.799 31.04,-8.681C31.166,-8.564 31.229,-8.413 31.229,-8.228C31.229,-8.035 31.166,-7.879 31.04,-7.762C30.914,-7.644 30.75,-7.585 30.549,-7.585Z" style="fill:rgb(104,105,107);fill-rule:nonzero;"/>
        <path d="M33.265,-2.936C33.114,-2.936 32.999,-2.974 32.919,-3.049C32.839,-3.125 32.799,-3.226 32.799,-3.352C32.799,-3.478 32.839,-3.581 32.919,-3.66C32.999,-3.74 33.114,-3.78 33.265,-3.78L36.037,-3.78C36.197,-3.78 36.317,-3.74 36.396,-3.66C36.476,-3.581 36.516,-3.478 36.516,-3.352C36.516,-3.226 36.476,-3.125 36.396,-3.049C36.317,-2.974 36.197,-2.936 36.037,-2.936L33.265,-2.936Z" style="fill:rgb(104,105,107);fill-rule:nonzero;"/>
        <path d="M40.984,0.101C40.354,0.101 39.751,0.006 39.176,-0.183C38.601,-0.372 38.141,-0.626 37.796,-0.945C37.67,-1.063 37.607,-1.21 37.607,-1.386C37.607,-1.504 37.641,-1.607 37.708,-1.695C37.775,-1.783 37.855,-1.827 37.947,-1.827C38.057,-1.827 38.174,-1.781 38.3,-1.688C39.081,-1.084 39.972,-0.781 40.971,-0.781C41.694,-0.781 42.248,-0.92 42.635,-1.197C43.021,-1.474 43.214,-1.869 43.214,-2.381C43.214,-2.675 43.122,-2.913 42.937,-3.093C42.752,-3.274 42.509,-3.419 42.206,-3.528C41.904,-3.637 41.496,-3.751 40.984,-3.868C40.295,-4.028 39.73,-4.196 39.289,-4.372C38.848,-4.549 38.491,-4.801 38.218,-5.128C37.945,-5.456 37.809,-5.884 37.809,-6.413C37.809,-6.917 37.945,-7.365 38.218,-7.755C38.491,-8.146 38.874,-8.448 39.365,-8.663C39.856,-8.877 40.417,-8.984 41.047,-8.984C41.635,-8.984 42.183,-8.893 42.691,-8.713C43.2,-8.532 43.626,-8.274 43.97,-7.938C44.105,-7.804 44.172,-7.657 44.172,-7.497C44.172,-7.379 44.138,-7.276 44.071,-7.188C44.004,-7.1 43.924,-7.056 43.832,-7.056C43.739,-7.056 43.617,-7.102 43.466,-7.195C43.055,-7.531 42.672,-7.766 42.32,-7.9C41.967,-8.035 41.543,-8.102 41.047,-8.102C40.35,-8.102 39.808,-7.957 39.422,-7.667C39.035,-7.377 38.842,-6.972 38.842,-6.451C38.842,-6.006 39.012,-5.672 39.352,-5.449C39.693,-5.227 40.215,-5.032 40.921,-4.864C41.685,-4.679 42.286,-4.509 42.723,-4.353C43.16,-4.198 43.523,-3.965 43.813,-3.654C44.103,-3.343 44.247,-2.927 44.247,-2.407C44.247,-1.911 44.111,-1.474 43.838,-1.096C43.565,-0.718 43.181,-0.424 42.685,-0.214C42.189,-0.004 41.622,0.101 40.984,0.101Z" style="fill:rgb(104,105,107);fill-rule:nonzero;"/>
        <path d="M48.829,-6.287C49.366,-6.287 49.841,-6.153 50.253,-5.884C50.664,-5.615 50.983,-5.239 51.21,-4.757C51.437,-4.274 51.55,-3.713 51.55,-3.074C51.55,-2.436 51.437,-1.88 51.21,-1.405C50.983,-0.93 50.666,-0.563 50.259,-0.302C49.851,-0.042 49.375,0.088 48.829,0.088C48.35,0.088 47.932,-0.017 47.575,-0.227C47.218,-0.437 46.947,-0.735 46.762,-1.121L46.762,1.84C46.762,1.991 46.718,2.111 46.63,2.199C46.542,2.287 46.418,2.331 46.258,2.331C46.099,2.331 45.973,2.285 45.88,2.192C45.788,2.1 45.742,1.982 45.742,1.84L45.742,-5.758C45.742,-5.909 45.788,-6.031 45.88,-6.124C45.973,-6.216 46.099,-6.262 46.258,-6.262C46.418,-6.262 46.542,-6.216 46.63,-6.124C46.718,-6.031 46.762,-5.909 46.762,-5.758L46.762,-5.078C46.947,-5.464 47.218,-5.762 47.575,-5.972C47.932,-6.182 48.35,-6.287 48.829,-6.287ZM48.627,-0.756C49.224,-0.756 49.686,-0.958 50.013,-1.361C50.341,-1.764 50.505,-2.335 50.505,-3.074C50.505,-3.814 50.341,-4.391 50.013,-4.807C49.686,-5.223 49.224,-5.431 48.627,-5.431C48.031,-5.431 47.571,-5.229 47.247,-4.826C46.924,-4.423 46.762,-3.847 46.762,-3.1C46.762,-2.352 46.924,-1.775 47.247,-1.367C47.571,-0.96 48.031,-0.756 48.627,-0.756Z" style="fill:rgb(104,105,107);fill-rule:nonzero;"/>
        <path d="M55.59,0.088C55.01,0.088 54.5,-0.042 54.059,-0.302C53.618,-0.563 53.278,-0.935 53.038,-1.418C52.799,-1.901 52.679,-2.461 52.679,-3.1C52.679,-3.738 52.799,-4.299 53.038,-4.782C53.278,-5.265 53.618,-5.636 54.059,-5.897C54.5,-6.157 55.01,-6.287 55.59,-6.287C56.17,-6.287 56.682,-6.157 57.127,-5.897C57.572,-5.636 57.915,-5.265 58.154,-4.782C58.393,-4.299 58.513,-3.738 58.513,-3.1C58.513,-2.461 58.393,-1.901 58.154,-1.418C57.915,-0.935 57.572,-0.563 57.127,-0.302C56.682,-0.042 56.17,0.088 55.59,0.088ZM55.59,-0.756C56.195,-0.756 56.659,-0.955 56.982,-1.355C57.306,-1.753 57.467,-2.335 57.467,-3.1C57.467,-3.847 57.304,-4.425 56.976,-4.832C56.648,-5.239 56.186,-5.443 55.59,-5.443C54.994,-5.443 54.532,-5.239 54.204,-4.832C53.876,-4.425 53.713,-3.847 53.713,-3.1C53.713,-2.344 53.874,-1.764 54.198,-1.361C54.521,-0.958 54.985,-0.756 55.59,-0.756Z" style="fill:rgb(104,105,107);fill-rule:nonzero;"/>
        <path d="M62.553,0.088C61.973,0.088 61.463,-0.042 61.022,-0.302C60.581,-0.563 60.241,-0.935 60.001,-1.418C59.762,-1.901 59.642,-2.461 59.642,-3.1C59.642,-3.738 59.762,-4.299 60.001,-4.782C60.241,-5.265 60.581,-5.636 61.022,-5.897C61.463,-6.157 61.973,-6.287 62.553,-6.287C63.132,-6.287 63.645,-6.157 64.09,-5.897C64.535,-5.636 64.877,-5.265 65.117,-4.782C65.356,-4.299 65.476,-3.738 65.476,-3.1C65.476,-2.461 65.356,-1.901 65.117,-1.418C64.877,-0.935 64.535,-0.563 64.09,-0.302C63.645,-0.042 63.132,0.088 62.553,0.088ZM62.553,-0.756C63.158,-0.756 63.622,-0.955 63.945,-1.355C64.268,-1.753 64.43,-2.335 64.43,-3.1C64.43,-3.847 64.266,-4.425 63.939,-4.832C63.611,-5.239 63.149,-5.443 62.553,-5.443C61.956,-5.443 61.494,-5.239 61.167,-4.832C60.839,-4.425 60.675,-3.847 60.675,-3.1C60.675,-2.344 60.837,-1.764 61.16,-1.361C61.484,-0.958 61.948,-0.756 62.553,-0.756Z" style="fill:rgb(104,105,107);fill-rule:nonzero;"/>
        <path d="M71.657,-6.136C71.8,-6.136 71.909,-6.098 71.985,-6.023C72.061,-5.947 72.098,-5.846 72.098,-5.72L72.098,-0.441C72.098,-0.281 72.05,-0.157 71.954,-0.069C71.857,0.019 71.737,0.063 71.594,0.063C71.443,0.063 71.319,0.019 71.223,-0.069C71.126,-0.157 71.078,-0.281 71.078,-0.441L71.078,-5.33L68.318,-5.33L68.318,-0.441C68.318,-0.281 68.27,-0.157 68.174,-0.069C68.077,0.019 67.957,0.063 67.814,0.063C67.663,0.063 67.539,0.019 67.443,-0.069C67.346,-0.157 67.298,-0.281 67.298,-0.441L67.298,-5.33L66.454,-5.33C66.311,-5.33 66.2,-5.365 66.12,-5.437C66.04,-5.508 66,-5.603 66,-5.72C66,-5.846 66.04,-5.947 66.12,-6.023C66.2,-6.098 66.311,-6.136 66.454,-6.136L67.298,-6.136L67.298,-6.35C67.298,-7.106 67.487,-7.701 67.865,-8.133C68.243,-8.566 68.785,-8.812 69.49,-8.87L69.793,-8.896C70.196,-8.929 70.397,-8.803 70.397,-8.518C70.397,-8.274 70.255,-8.135 69.969,-8.102L69.667,-8.077C69.221,-8.043 68.885,-7.902 68.659,-7.655C68.432,-7.407 68.318,-7.035 68.318,-6.539L68.318,-6.136L71.657,-6.136ZM71.594,-8.858C71.788,-8.858 71.949,-8.799 72.08,-8.681C72.21,-8.564 72.275,-8.413 72.275,-8.228C72.275,-8.035 72.212,-7.879 72.086,-7.762C71.96,-7.644 71.796,-7.585 71.594,-7.585C71.393,-7.585 71.229,-7.644 71.103,-7.762C70.977,-7.879 70.914,-8.035 70.914,-8.228C70.914,-8.413 70.977,-8.564 71.103,-8.681C71.229,-8.799 71.393,-8.858 71.594,-8.858Z" style="fill:rgb(104,105,107);fill-rule:nonzero;"/>
        <path d="M77.058,-6.287C78.528,-6.287 79.263,-5.477 79.263,-3.856L79.263,-0.441C79.263,-0.281 79.219,-0.157 79.131,-0.069C79.042,0.019 78.918,0.063 78.759,0.063C78.599,0.063 78.473,0.019 78.381,-0.069C78.288,-0.157 78.242,-0.281 78.242,-0.441L78.242,-3.793C78.242,-4.364 78.131,-4.78 77.908,-5.04C77.686,-5.3 77.331,-5.431 76.844,-5.431C76.281,-5.431 75.831,-5.258 75.495,-4.914C75.159,-4.57 74.991,-4.103 74.991,-3.515L74.991,-0.441C74.991,-0.281 74.947,-0.157 74.859,-0.069C74.771,0.019 74.647,0.063 74.487,0.063C74.328,0.063 74.202,0.019 74.109,-0.069C74.017,-0.157 73.971,-0.281 73.971,-0.441L73.971,-5.758C73.971,-5.909 74.017,-6.031 74.109,-6.124C74.202,-6.216 74.328,-6.262 74.487,-6.262C74.639,-6.262 74.758,-6.216 74.847,-6.124C74.935,-6.031 74.979,-5.914 74.979,-5.771L74.979,-5.128C75.18,-5.506 75.462,-5.794 75.823,-5.991C76.184,-6.189 76.596,-6.287 77.058,-6.287Z" style="fill:rgb(104,105,107);fill-rule:nonzero;"/>
        <path d="M86.074,-6.262C86.234,-6.262 86.36,-6.216 86.452,-6.124C86.545,-6.031 86.591,-5.909 86.591,-5.758L86.591,-0.416C86.591,0.5 86.356,1.191 85.885,1.657C85.415,2.123 84.718,2.356 83.794,2.356C82.895,2.356 82.147,2.18 81.551,1.827C81.249,1.659 81.097,1.466 81.097,1.247C81.097,1.13 81.129,1.033 81.192,0.958C81.255,0.882 81.337,0.844 81.438,0.844C81.522,0.844 81.673,0.903 81.891,1.021C82.185,1.172 82.475,1.294 82.761,1.386C83.046,1.478 83.386,1.525 83.781,1.525C84.378,1.525 84.827,1.367 85.129,1.052C85.432,0.737 85.583,0.277 85.583,-0.328L85.583,-1.411C85.407,-1.016 85.136,-0.714 84.77,-0.504C84.405,-0.294 83.974,-0.189 83.479,-0.189C82.941,-0.189 82.464,-0.315 82.049,-0.567C81.633,-0.819 81.309,-1.176 81.078,-1.638C80.847,-2.1 80.732,-2.633 80.732,-3.238C80.732,-3.843 80.847,-4.376 81.078,-4.838C81.309,-5.3 81.633,-5.657 82.049,-5.909C82.464,-6.161 82.941,-6.287 83.479,-6.287C83.966,-6.287 84.39,-6.182 84.751,-5.972C85.113,-5.762 85.386,-5.464 85.57,-5.078L85.57,-5.758C85.57,-5.909 85.614,-6.031 85.703,-6.124C85.791,-6.216 85.915,-6.262 86.074,-6.262ZM83.68,-1.033C84.268,-1.033 84.73,-1.229 85.066,-1.619C85.402,-2.01 85.57,-2.549 85.57,-3.238C85.57,-3.919 85.404,-4.454 85.073,-4.845C84.741,-5.235 84.277,-5.431 83.68,-5.431C83.084,-5.431 82.616,-5.235 82.275,-4.845C81.935,-4.454 81.765,-3.919 81.765,-3.238C81.765,-2.549 81.935,-2.01 82.275,-1.619C82.616,-1.229 83.084,-1.033 83.68,-1.033Z" style="fill:rgb(104,105,107);fill-rule:nonzero;"/>
    </g>
</svg>
