<?xml version="1.0" encoding="UTF-8" standalone="no"?>
<!DOCTYPE svg PUBLIC "-//W3C//DTD SVG 1.1//EN" "http://www.w3.org/Graphics/SVG/1.1/DTD/svg11.dtd">
<svg width="100%" height="100%" viewBox="0 0 141 285" version="1.1" xmlns="http://www.w3.org/2000/svg" xmlns:xlink="http://www.w3.org/1999/xlink" xml:space="preserve" xmlns:serif="http://www.serif.com/" style="fill-rule:evenodd;clip-rule:evenodd;stroke-linejoin:round;stroke-miterlimit:1.41421;">
    <g transform="matrix(1,0,0,1,-666,-380)">
        <g transform="matrix(2.49234,0,0,2.5693,-939.404,-464.9)">
            <g transform="matrix(0.88,-0.48,0.48,0.88,646.932,440.311)">
                <text x="0px" y="0px" style="font-family:'Nunito-Regular', 'Nunito';font-size:11px;fill:white;">F</text>
            </g>
            <g transform="matrix(0.870442,-0.492272,0.492272,0.870442,651.982,437.571)">
                <text x="0px" y="0px" style="font-family:'Nunito-Regular', 'Nunito';font-size:11px;fill:white;">I</text>
            </g>
            <g transform="matrix(0.86003,-0.510243,0.510243,0.86003,654.122,436.391)">
                <text x="0px" y="0px" style="font-family:'Nunito-Regular', 'Nunito';font-size:11px;fill:white;">R</text>
            </g>
            <g transform="matrix(0.843954,-0.536416,0.536416,0.843954,660.262,432.751)">
                <text x="0px" y="0px" style="font-family:'Nunito-Regular', 'Nunito';font-size:11px;fill:white;">E</text>
            </g>
            <g transform="matrix(0.814622,-0.579992,0.579992,0.814622,665.472,429.551)">
                <text x="0px" y="0px" style="font-family:'Nunito-Regular', 'Nunito';font-size:11px;fill:white;">W</text>
            </g>
            <g transform="matrix(0.76,-0.65,0.65,0.76,674.782,422.891)">
                <text x="0px" y="0px" style="font-family:'Nunito-Regular', 'Nunito';font-size:11px;fill:white;">A</text>
            </g>
            <g transform="matrix(0.692647,-0.721277,0.721277,0.692647,680.972,417.631)">
                <text x="0px" y="0px" style="font-family:'Nunito-Regular', 'Nunito';font-size:11px;fill:white;">L</text>
            </g>
            <g transform="matrix(0.56,-0.83,0.83,0.56,685.402,413.031)">
                <text x="0px" y="0px" style="font-family:'Nunito-Regular', 'Nunito';font-size:11px;fill:white;">L</text>
            </g>
            <g transform="matrix(0.53,-0.84,0.84,0.53,689.892,406.251)">
                <text x="0px" y="0px" style="font-family:'Nunito-Regular', 'Nunito';font-size:11px;fill:white;">E</text>
            </g>
            <g transform="matrix(0.465151,-0.885231,0.885231,0.465151,693.412,400.871)">
                <text x="0px" y="0px" style="font-family:'Nunito-Regular', 'Nunito';font-size:11px;fill:white;">N</text>
            </g>
            <g transform="matrix(0.296708,-0.954968,0.954968,0.296708,697.332,393.211)">
                <text x="0px" y="0px" style="font-family:'Nunito-Regular', 'Nunito';font-size:11px;fill:white;">F</text>
            </g>
            <g transform="matrix(0.124641,-0.992202,0.992202,0.124641,699.272,387.071)">
                <text x="0px" y="0px" style="font-family:'Nunito-Regular', 'Nunito';font-size:11px;fill:white;">O</text>
            </g>
            <g transform="matrix(0.0172779,-0.999851,0.999851,0.0172779,700.252,378.581)">
                <text x="0px" y="0px" style="font-family:'Nunito-Regular', 'Nunito';font-size:11px;fill:white;">R</text>
            </g>
            <g transform="matrix(-3.82857e-16,-1,1,-3.82857e-16,700.332,371.411)">
                <text x="0px" y="0px" style="font-family:'Nunito-Regular', 'Nunito';font-size:11px;fill:white;">C</text>
            </g>
            <g transform="matrix(-3.82857e-16,-1,1,-3.82857e-16,700.332,364.331)">
                <text x="0px" y="0px" style="font-family:'Nunito-Regular', 'Nunito';font-size:11px;fill:white;">E</text>
            </g>
            <g transform="matrix(-3.82857e-16,-1,1,-3.82857e-16,700.332,358.271)">
                <text x="0px" y="0px" style="font-family:'Nunito-Regular', 'Nunito';font-size:11px;fill:white;">M</text>
            </g>
            <g transform="matrix(-3.82857e-16,-1,1,-3.82857e-16,700.332,349.361)">
                <text x="0px" y="0px" style="font-family:'Nunito-Regular', 'Nunito';font-size:11px;fill:white;">E</text>
            </g>
            <g transform="matrix(-3.82857e-16,-1,1,-3.82857e-16,700.332,343.321)">
                <text x="0px" y="0px" style="font-family:'Nunito-Regular', 'Nunito';font-size:11px;fill:white;">N</text>
            </g>
            <g transform="matrix(-3.82857e-16,-1,1,-3.82857e-16,700.332,335.541)">
                <text x="0px" y="0px" style="font-family:'Nunito-Regular', 'Nunito';font-size:11px;fill:white;">T</text>
            </g>
        </g>
    </g>
</svg>
