<?xml version="1.0" encoding="UTF-8" standalone="no"?>
<!DOCTYPE svg PUBLIC "-//W3C//DTD SVG 1.1//EN" "http://www.w3.org/Graphics/SVG/1.1/DTD/svg11.dtd">
<svg width="100%" height="100%" viewBox="0 0 144 279" version="1.1" xmlns="http://www.w3.org/2000/svg" xmlns:xlink="http://www.w3.org/1999/xlink" xml:space="preserve" xmlns:serif="http://www.serif.com/" style="fill-rule:evenodd;clip-rule:evenodd;stroke-linejoin:round;stroke-miterlimit:1.41421;">
    <g transform="matrix(1,0,0,1,-471,-385)">
        <g transform="matrix(2.60271,0,0,2.60271,-1084.87,-735.915)">
            <g transform="matrix(-3.82857e-16,1,-1,-3.82857e-16,598.561,429.791)">
                <text x="0px" y="0px" style="font-family:'Nunito-Regular', 'Nunito';font-size:11.5px;fill:white;">D</text>
            </g>
            <g transform="matrix(-3.82857e-16,1,-1,-3.82857e-16,598.561,438.011)">
                <text x="0px" y="0px" style="font-family:'Nunito-Regular', 'Nunito';font-size:11.5px;fill:white;">P</text>
            </g>
            <g transform="matrix(-3.82857e-16,1,-1,-3.82857e-16,598.561,445.121)">
                <text x="0px" y="0px" style="font-family:'Nunito-Regular', 'Nunito';font-size:11.5px;fill:white;">I</text>
            </g>
            <g transform="matrix(-3.82857e-16,1,-1,-3.82857e-16,598.561,447.791)">
                <text x="0px" y="0px" style="font-family:'Nunito-Regular', 'Nunito';font-size:11.5px;fill:white;">/</text>
            </g>
            <g transform="matrix(-3.82857e-16,1,-1,-3.82857e-16,598.561,450.761)">
                <text x="0px" y="0px" style="font-family:'Nunito-Regular', 'Nunito';font-size:11.5px;fill:white;">S</text>
            </g>
            <g transform="matrix(-3.82857e-16,1,-1,-3.82857e-16,598.561,457.571)">
                <text x="0px" y="0px" style="font-family:'Nunito-Regular', 'Nunito';font-size:11.5px;fill:white;">S</text>
            </g>
            <g transform="matrix(-3.82857e-16,1,-1,-3.82857e-16,598.561,464.371)">
                <text x="0px" y="0px" style="font-family:'Nunito-Regular', 'Nunito';font-size:11.5px;fill:white;">L</text>
            </g>
            <g transform="matrix(-3.82857e-16,1,-1,-3.82857e-16,598.561,473.001)">
                <text x="0px" y="0px" style="font-family:'Nunito-Regular', 'Nunito';font-size:11.5px;fill:white;">C</text>
            </g>
            <g transform="matrix(0.235312,0.97192,-0.97192,0.235312,598.821,481.691)">
                <text x="0px" y="0px" style="font-family:'Nunito-Regular', 'Nunito';font-size:11.5px;fill:white;">E</text>
            </g>
            <g transform="matrix(0.294207,0.955742,-0.955742,0.294207,600.361,488.211)">
                <text x="0px" y="0px" style="font-family:'Nunito-Regular', 'Nunito';font-size:11.5px;fill:white;">R</text>
            </g>
            <g transform="matrix(0.450878,0.892586,-0.892586,0.450878,602.721,496.151)">
                <text x="0px" y="0px" style="font-family:'Nunito-Regular', 'Nunito';font-size:11.5px;fill:white;">T</text>
            </g>
            <g transform="matrix(0.65,0.76,-0.76,0.65,608.231,505.041)">
                <text x="0px" y="0px" style="font-family:'Nunito-Regular', 'Nunito';font-size:11.5px;fill:white;">S</text>
            </g>
            <g transform="matrix(0.689493,0.724292,-0.724292,0.689493,612.831,510.431)">
                <text x="0px" y="0px" style="font-family:'Nunito-Regular', 'Nunito';font-size:11.5px;fill:white;">U</text>
            </g>
            <g transform="matrix(0.725014,0.688734,-0.688734,0.725014,618.561,516.441)">
                <text x="0px" y="0px" style="font-family:'Nunito-Regular', 'Nunito';font-size:11.5px;fill:white;">P</text>
            </g>
            <g transform="matrix(0.76,0.65,-0.65,0.76,623.901,521.511)">
                <text x="0px" y="0px" style="font-family:'Nunito-Regular', 'Nunito';font-size:11.5px;fill:white;">P</text>
            </g>
            <g transform="matrix(0.794521,0.607237,-0.607237,0.794521,629.451,526.331)">
                <text x="0px" y="0px" style="font-family:'Nunito-Regular', 'Nunito';font-size:11.5px;fill:white;">O</text>
            </g>
            <g transform="matrix(0.83552,0.54946,-0.54946,0.83552,636.491,531.701)">
                <text x="0px" y="0px" style="font-family:'Nunito-Regular', 'Nunito';font-size:11.5px;fill:white;">R</text>
            </g>
            <g transform="matrix(0.873262,0.48725,-0.48725,0.873262,642.981,535.961)">
                <text x="0px" y="0px" style="font-family:'Nunito-Regular', 'Nunito';font-size:11.5px;fill:white;">T</text>
            </g>
        </g>
    </g>
</svg>
