<?xml version="1.0" encoding="UTF-8" standalone="no"?>
<!DOCTYPE svg PUBLIC "-//W3C//DTD SVG 1.1//EN" "http://www.w3.org/Graphics/SVG/1.1/DTD/svg11.dtd">
<svg width="100%" height="100%" viewBox="0 0 420 17" version="1.1" xmlns="http://www.w3.org/2000/svg" xmlns:xlink="http://www.w3.org/1999/xlink" xml:space="preserve" xmlns:serif="http://www.serif.com/" style="fill-rule:evenodd;clip-rule:evenodd;stroke-linejoin:round;stroke-miterlimit:1.41421;">
    <g transform="matrix(1,0,0,1,-405,-625)">
        <g transform="matrix(1,0,0,1,369.804,477.746)">
            <path d="M44.882,147.256C45.098,147.256 45.266,147.325 45.386,147.463C45.506,147.601 45.566,147.784 45.566,148.012L45.566,159.37C45.566,159.598 45.503,159.781 45.377,159.919C45.251,160.057 45.074,160.126 44.846,160.126C44.618,160.126 44.42,160.024 44.252,159.82L36.782,149.83L36.782,159.37C36.782,159.598 36.719,159.781 36.593,159.919C36.467,160.057 36.296,160.126 36.08,160.126C35.864,160.126 35.696,160.057 35.576,159.919C35.456,159.781 35.396,159.598 35.396,159.37L35.396,148.012C35.396,147.784 35.459,147.601 35.585,147.463C35.711,147.325 35.888,147.256 36.116,147.256C36.356,147.256 36.56,147.358 36.728,147.562L44.18,157.552L44.18,148.012C44.18,147.784 44.243,147.601 44.369,147.463C44.495,147.325 44.666,147.256 44.882,147.256Z" style="fill:rgb(99,101,106);fill-rule:nonzero;"/>
            <path d="M52.118,160.162C51.29,160.162 50.561,159.976 49.931,159.604C49.301,159.232 48.815,158.701 48.473,158.011C48.131,157.321 47.96,156.52 47.96,155.608C47.96,154.696 48.131,153.895 48.473,153.205C48.815,152.515 49.301,151.984 49.931,151.612C50.561,151.24 51.29,151.054 52.118,151.054C52.946,151.054 53.678,151.24 54.314,151.612C54.95,151.984 55.439,152.515 55.781,153.205C56.123,153.895 56.294,154.696 56.294,155.608C56.294,156.52 56.123,157.321 55.781,158.011C55.439,158.701 54.95,159.232 54.314,159.604C53.678,159.976 52.946,160.162 52.118,160.162ZM52.118,158.956C52.982,158.956 53.645,158.671 54.107,158.101C54.569,157.531 54.8,156.7 54.8,155.608C54.8,154.54 54.566,153.715 54.098,153.133C53.63,152.551 52.97,152.26 52.118,152.26C51.266,152.26 50.606,152.551 50.138,153.133C49.67,153.715 49.436,154.54 49.436,155.608C49.436,156.688 49.667,157.516 50.129,158.092C50.591,158.668 51.254,158.956 52.118,158.956Z" style="fill:rgb(99,101,106);fill-rule:nonzero;"/>
            <path d="M62.882,151.054C64.982,151.054 66.032,152.212 66.032,154.528L66.032,159.406C66.032,159.634 65.969,159.811 65.843,159.937C65.717,160.063 65.54,160.126 65.312,160.126C65.084,160.126 64.904,160.063 64.772,159.937C64.64,159.811 64.574,159.634 64.574,159.406L64.574,154.618C64.574,153.802 64.415,153.208 64.097,152.836C63.779,152.464 63.272,152.278 62.576,152.278C61.772,152.278 61.13,152.524 60.65,153.016C60.17,153.508 59.93,154.174 59.93,155.014L59.93,159.406C59.93,159.634 59.867,159.811 59.741,159.937C59.615,160.063 59.438,160.126 59.21,160.126C58.982,160.126 58.802,160.063 58.67,159.937C58.538,159.811 58.472,159.634 58.472,159.406L58.472,151.81C58.472,151.594 58.538,151.42 58.67,151.288C58.802,151.156 58.982,151.09 59.21,151.09C59.426,151.09 59.597,151.156 59.723,151.288C59.849,151.42 59.912,151.588 59.912,151.792L59.912,152.71C60.2,152.17 60.602,151.759 61.118,151.477C61.634,151.195 62.222,151.054 62.882,151.054Z" style="fill:rgb(99,101,106);fill-rule:nonzero;"/>
            <path d="M69.182,155.842C68.966,155.842 68.801,155.788 68.687,155.68C68.573,155.572 68.516,155.428 68.516,155.248C68.516,155.068 68.573,154.921 68.687,154.807C68.801,154.693 68.966,154.636 69.182,154.636L73.142,154.636C73.37,154.636 73.541,154.693 73.655,154.807C73.769,154.921 73.826,155.068 73.826,155.248C73.826,155.428 73.769,155.572 73.655,155.68C73.541,155.788 73.37,155.842 73.142,155.842L69.182,155.842Z" style="fill:rgb(99,101,106);fill-rule:nonzero;"/>
            <path d="M80.234,160.162C79.418,160.162 78.695,159.976 78.065,159.604C77.435,159.232 76.949,158.704 76.607,158.02C76.265,157.336 76.094,156.544 76.094,155.644C76.094,154.744 76.271,153.946 76.625,153.25C76.979,152.554 77.474,152.014 78.11,151.63C78.746,151.246 79.478,151.054 80.306,151.054C80.762,151.054 81.215,151.117 81.665,151.243C82.115,151.369 82.508,151.552 82.844,151.792C83.06,151.936 83.213,152.077 83.303,152.215C83.393,152.353 83.438,152.506 83.438,152.674C83.438,152.842 83.393,152.98 83.303,153.088C83.213,153.196 83.096,153.25 82.952,153.25C82.868,153.25 82.778,153.226 82.682,153.178C82.586,153.13 82.505,153.082 82.439,153.034C82.373,152.986 82.328,152.956 82.304,152.944C81.992,152.74 81.695,152.578 81.413,152.458C81.131,152.338 80.786,152.278 80.378,152.278C79.502,152.278 78.821,152.575 78.335,153.169C77.849,153.763 77.606,154.588 77.606,155.644C77.606,156.7 77.849,157.516 78.335,158.092C78.821,158.668 79.502,158.956 80.378,158.956C80.786,158.956 81.137,158.896 81.431,158.776C81.725,158.656 82.022,158.494 82.322,158.29C82.454,158.206 82.58,158.134 82.7,158.074C82.82,158.014 82.922,157.984 83.006,157.984C83.138,157.984 83.249,158.038 83.339,158.146C83.429,158.254 83.474,158.392 83.474,158.56C83.474,158.716 83.432,158.857 83.348,158.983C83.264,159.109 83.108,159.25 82.88,159.406C82.544,159.634 82.139,159.817 81.665,159.955C81.191,160.093 80.714,160.162 80.234,160.162Z" style="fill:rgb(99,101,106);fill-rule:nonzero;"/>
            <path d="M88.874,160.162C88.046,160.162 87.317,159.976 86.687,159.604C86.057,159.232 85.571,158.701 85.229,158.011C84.887,157.321 84.716,156.52 84.716,155.608C84.716,154.696 84.887,153.895 85.229,153.205C85.571,152.515 86.057,151.984 86.687,151.612C87.317,151.24 88.046,151.054 88.874,151.054C89.702,151.054 90.434,151.24 91.07,151.612C91.706,151.984 92.195,152.515 92.537,153.205C92.879,153.895 93.05,154.696 93.05,155.608C93.05,156.52 92.879,157.321 92.537,158.011C92.195,158.701 91.706,159.232 91.07,159.604C90.434,159.976 89.702,160.162 88.874,160.162ZM88.874,158.956C89.738,158.956 90.401,158.671 90.863,158.101C91.325,157.531 91.556,156.7 91.556,155.608C91.556,154.54 91.322,153.715 90.854,153.133C90.386,152.551 89.726,152.26 88.874,152.26C88.022,152.26 87.362,152.551 86.894,153.133C86.426,153.715 86.192,154.54 86.192,155.608C86.192,156.688 86.423,157.516 86.885,158.092C87.347,158.668 88.01,158.956 88.874,158.956Z" style="fill:rgb(99,101,106);fill-rule:nonzero;"/>
            <path d="M104.984,151.054C106.928,151.054 107.9,152.212 107.9,154.528L107.9,159.406C107.9,159.634 107.834,159.811 107.702,159.937C107.57,160.063 107.396,160.126 107.18,160.126C106.964,160.126 106.787,160.063 106.649,159.937C106.511,159.811 106.442,159.634 106.442,159.406L106.442,154.564C106.442,153.76 106.298,153.178 106.01,152.818C105.722,152.458 105.272,152.278 104.66,152.278C103.928,152.278 103.352,152.524 102.932,153.016C102.512,153.508 102.302,154.174 102.302,155.014L102.302,159.406C102.302,159.634 102.233,159.811 102.095,159.937C101.957,160.063 101.78,160.126 101.564,160.126C101.348,160.126 101.174,160.063 101.042,159.937C100.91,159.811 100.844,159.634 100.844,159.406L100.844,154.564C100.844,153.76 100.7,153.178 100.412,152.818C100.124,152.458 99.668,152.278 99.044,152.278C98.324,152.278 97.751,152.524 97.325,153.016C96.899,153.508 96.686,154.174 96.686,155.014L96.686,159.406C96.686,159.634 96.62,159.811 96.488,159.937C96.356,160.063 96.182,160.126 95.966,160.126C95.75,160.126 95.573,160.063 95.435,159.937C95.297,159.811 95.228,159.634 95.228,159.406L95.228,151.81C95.228,151.594 95.297,151.42 95.435,151.288C95.573,151.156 95.75,151.09 95.966,151.09C96.17,151.09 96.338,151.153 96.47,151.279C96.602,151.405 96.668,151.576 96.668,151.792L96.668,152.656C96.932,152.14 97.298,151.744 97.766,151.468C98.234,151.192 98.774,151.054 99.386,151.054C100.754,151.054 101.648,151.63 102.068,152.782C102.32,152.254 102.704,151.834 103.22,151.522C103.736,151.21 104.324,151.054 104.984,151.054Z" style="fill:rgb(99,101,106);fill-rule:nonzero;"/>
            <path d="M114.974,151.054C115.742,151.054 116.42,151.246 117.008,151.63C117.596,152.014 118.052,152.551 118.376,153.241C118.7,153.931 118.862,154.732 118.862,155.644C118.862,156.556 118.7,157.351 118.376,158.029C118.052,158.707 117.599,159.232 117.017,159.604C116.435,159.976 115.754,160.162 114.974,160.162C114.29,160.162 113.693,160.012 113.183,159.712C112.673,159.412 112.286,158.986 112.022,158.434L112.022,162.664C112.022,162.88 111.959,163.051 111.833,163.177C111.707,163.303 111.53,163.366 111.302,163.366C111.074,163.366 110.894,163.3 110.762,163.168C110.63,163.036 110.564,162.868 110.564,162.664L110.564,151.81C110.564,151.594 110.63,151.42 110.762,151.288C110.894,151.156 111.074,151.09 111.302,151.09C111.53,151.09 111.707,151.156 111.833,151.288C111.959,151.42 112.022,151.594 112.022,151.81L112.022,152.782C112.286,152.23 112.673,151.804 113.183,151.504C113.693,151.204 114.29,151.054 114.974,151.054ZM114.686,158.956C115.538,158.956 116.198,158.668 116.666,158.092C117.134,157.516 117.368,156.7 117.368,155.644C117.368,154.588 117.134,153.763 116.666,153.169C116.198,152.575 115.538,152.278 114.686,152.278C113.834,152.278 113.177,152.566 112.715,153.142C112.253,153.718 112.022,154.54 112.022,155.608C112.022,156.676 112.253,157.501 112.715,158.083C113.177,158.665 113.834,158.956 114.686,158.956Z" style="fill:rgb(99,101,106);fill-rule:nonzero;"/>
            <path d="M121.778,160.126C121.562,160.126 121.385,160.063 121.247,159.937C121.109,159.811 121.04,159.634 121.04,159.406L121.04,147.976C121.04,147.748 121.109,147.571 121.247,147.445C121.385,147.319 121.562,147.256 121.778,147.256C121.982,147.256 122.153,147.319 122.291,147.445C122.429,147.571 122.498,147.748 122.498,147.976L122.498,159.406C122.498,159.634 122.429,159.811 122.291,159.937C122.153,160.063 121.982,160.126 121.778,160.126Z" style="fill:rgb(99,101,106);fill-rule:nonzero;"/>
            <path d="M125.954,160.126C125.738,160.126 125.561,160.063 125.423,159.937C125.285,159.811 125.216,159.634 125.216,159.406L125.216,151.81C125.216,151.582 125.285,151.405 125.423,151.279C125.561,151.153 125.738,151.09 125.954,151.09C126.17,151.09 126.344,151.153 126.476,151.279C126.608,151.405 126.674,151.582 126.674,151.81L126.674,159.406C126.674,159.646 126.608,159.826 126.476,159.946C126.344,160.066 126.17,160.126 125.954,160.126ZM125.954,149.2C125.666,149.2 125.432,149.116 125.252,148.948C125.072,148.78 124.982,148.558 124.982,148.282C124.982,148.018 125.072,147.802 125.252,147.634C125.432,147.466 125.666,147.382 125.954,147.382C126.242,147.382 126.476,147.466 126.656,147.634C126.836,147.802 126.926,148.018 126.926,148.282C126.926,148.558 126.836,148.78 126.656,148.948C126.476,149.116 126.242,149.2 125.954,149.2Z" style="fill:rgb(99,101,106);fill-rule:nonzero;"/>
            <path d="M132.974,151.054C135.17,151.054 136.268,152.206 136.268,154.51L136.268,159.406C136.268,159.622 136.205,159.796 136.079,159.928C135.953,160.06 135.782,160.126 135.566,160.126C135.35,160.126 135.176,160.06 135.044,159.928C134.912,159.796 134.846,159.622 134.846,159.406L134.846,158.542C134.618,159.058 134.27,159.457 133.802,159.739C133.334,160.021 132.794,160.162 132.182,160.162C131.618,160.162 131.099,160.048 130.625,159.82C130.151,159.592 129.776,159.274 129.5,158.866C129.224,158.458 129.086,158.008 129.086,157.516C129.086,156.856 129.254,156.343 129.59,155.977C129.926,155.611 130.478,155.347 131.246,155.185C132.014,155.023 133.082,154.942 134.45,154.942L134.846,154.942L134.846,154.348C134.846,153.628 134.699,153.1 134.405,152.764C134.111,152.428 133.634,152.26 132.974,152.26C132.158,152.26 131.33,152.482 130.49,152.926C130.166,153.13 129.938,153.232 129.806,153.232C129.662,153.232 129.542,153.178 129.446,153.07C129.35,152.962 129.302,152.824 129.302,152.656C129.302,152.488 129.353,152.341 129.455,152.215C129.557,152.089 129.722,151.96 129.95,151.828C130.37,151.588 130.847,151.399 131.381,151.261C131.915,151.123 132.446,151.054 132.974,151.054ZM132.38,159.01C133.1,159.01 133.691,158.767 134.153,158.281C134.615,157.795 134.846,157.168 134.846,156.4L134.846,155.878L134.522,155.878C133.466,155.878 132.662,155.923 132.11,156.013C131.558,156.103 131.165,156.253 130.931,156.463C130.697,156.673 130.58,156.982 130.58,157.39C130.58,157.858 130.751,158.245 131.093,158.551C131.435,158.857 131.864,159.01 132.38,159.01Z" style="fill:rgb(99,101,106);fill-rule:nonzero;"/>
            <path d="M143.342,151.054C145.442,151.054 146.492,152.212 146.492,154.528L146.492,159.406C146.492,159.634 146.429,159.811 146.303,159.937C146.177,160.063 146,160.126 145.772,160.126C145.544,160.126 145.364,160.063 145.232,159.937C145.1,159.811 145.034,159.634 145.034,159.406L145.034,154.618C145.034,153.802 144.875,153.208 144.557,152.836C144.239,152.464 143.732,152.278 143.036,152.278C142.232,152.278 141.59,152.524 141.11,153.016C140.63,153.508 140.39,154.174 140.39,155.014L140.39,159.406C140.39,159.634 140.327,159.811 140.201,159.937C140.075,160.063 139.898,160.126 139.67,160.126C139.442,160.126 139.262,160.063 139.13,159.937C138.998,159.811 138.932,159.634 138.932,159.406L138.932,151.81C138.932,151.594 138.998,151.42 139.13,151.288C139.262,151.156 139.442,151.09 139.67,151.09C139.886,151.09 140.057,151.156 140.183,151.288C140.309,151.42 140.372,151.588 140.372,151.792L140.372,152.71C140.66,152.17 141.062,151.759 141.578,151.477C142.094,151.195 142.682,151.054 143.342,151.054Z" style="fill:rgb(99,101,106);fill-rule:nonzero;"/>
            <path d="M153.206,158.974C153.626,159.01 153.836,159.202 153.836,159.55C153.836,159.754 153.761,159.907 153.611,160.009C153.461,160.111 153.236,160.15 152.936,160.126L152.45,160.09C151.49,160.018 150.782,159.73 150.326,159.226C149.87,158.722 149.642,157.96 149.642,156.94L149.642,152.422L148.436,152.422C148.232,152.422 148.073,152.371 147.959,152.269C147.845,152.167 147.788,152.032 147.788,151.864C147.788,151.684 147.845,151.54 147.959,151.432C148.073,151.324 148.232,151.27 148.436,151.27L149.642,151.27L149.642,149.236C149.642,149.008 149.708,148.831 149.84,148.705C149.972,148.579 150.152,148.516 150.38,148.516C150.596,148.516 150.77,148.579 150.902,148.705C151.034,148.831 151.1,149.008 151.1,149.236L151.1,151.27L153.098,151.27C153.29,151.27 153.443,151.324 153.557,151.432C153.671,151.54 153.728,151.684 153.728,151.864C153.728,152.032 153.671,152.167 153.557,152.269C153.443,152.371 153.29,152.422 153.098,152.422L151.1,152.422L151.1,157.012C151.1,157.672 151.235,158.149 151.505,158.443C151.775,158.737 152.18,158.902 152.72,158.938L153.206,158.974Z" style="fill:rgb(99,101,106);fill-rule:nonzero;"/>
            <path d="M163.538,160.162C162.722,160.162 161.999,159.976 161.369,159.604C160.739,159.232 160.253,158.704 159.911,158.02C159.569,157.336 159.398,156.544 159.398,155.644C159.398,154.744 159.575,153.946 159.929,153.25C160.283,152.554 160.778,152.014 161.414,151.63C162.05,151.246 162.782,151.054 163.61,151.054C164.066,151.054 164.519,151.117 164.969,151.243C165.419,151.369 165.812,151.552 166.148,151.792C166.364,151.936 166.517,152.077 166.607,152.215C166.697,152.353 166.742,152.506 166.742,152.674C166.742,152.842 166.697,152.98 166.607,153.088C166.517,153.196 166.4,153.25 166.256,153.25C166.172,153.25 166.082,153.226 165.986,153.178C165.89,153.13 165.809,153.082 165.743,153.034C165.677,152.986 165.632,152.956 165.608,152.944C165.296,152.74 164.999,152.578 164.717,152.458C164.435,152.338 164.09,152.278 163.682,152.278C162.806,152.278 162.125,152.575 161.639,153.169C161.153,153.763 160.91,154.588 160.91,155.644C160.91,156.7 161.153,157.516 161.639,158.092C162.125,158.668 162.806,158.956 163.682,158.956C164.09,158.956 164.441,158.896 164.735,158.776C165.029,158.656 165.326,158.494 165.626,158.29C165.758,158.206 165.884,158.134 166.004,158.074C166.124,158.014 166.226,157.984 166.31,157.984C166.442,157.984 166.553,158.038 166.643,158.146C166.733,158.254 166.778,158.392 166.778,158.56C166.778,158.716 166.736,158.857 166.652,158.983C166.568,159.109 166.412,159.25 166.184,159.406C165.848,159.634 165.443,159.817 164.969,159.955C164.495,160.093 164.018,160.162 163.538,160.162Z" style="fill:rgb(99,101,106);fill-rule:nonzero;"/>
            <path d="M169.28,160.126C169.064,160.126 168.887,160.063 168.749,159.937C168.611,159.811 168.542,159.634 168.542,159.406L168.542,147.976C168.542,147.748 168.611,147.571 168.749,147.445C168.887,147.319 169.064,147.256 169.28,147.256C169.484,147.256 169.655,147.319 169.793,147.445C169.931,147.571 170,147.748 170,147.976L170,159.406C170,159.634 169.931,159.811 169.793,159.937C169.655,160.063 169.484,160.126 169.28,160.126Z" style="fill:rgb(99,101,106);fill-rule:nonzero;"/>
            <path d="M173.456,160.126C173.24,160.126 173.063,160.063 172.925,159.937C172.787,159.811 172.718,159.634 172.718,159.406L172.718,151.81C172.718,151.582 172.787,151.405 172.925,151.279C173.063,151.153 173.24,151.09 173.456,151.09C173.672,151.09 173.846,151.153 173.978,151.279C174.11,151.405 174.176,151.582 174.176,151.81L174.176,159.406C174.176,159.646 174.11,159.826 173.978,159.946C173.846,160.066 173.672,160.126 173.456,160.126ZM173.456,149.2C173.168,149.2 172.934,149.116 172.754,148.948C172.574,148.78 172.484,148.558 172.484,148.282C172.484,148.018 172.574,147.802 172.754,147.634C172.934,147.466 173.168,147.382 173.456,147.382C173.744,147.382 173.978,147.466 174.158,147.634C174.338,147.802 174.428,148.018 174.428,148.282C174.428,148.558 174.338,148.78 174.158,148.948C173.978,149.116 173.744,149.2 173.456,149.2Z" style="fill:rgb(99,101,106);fill-rule:nonzero;"/>
            <path d="M183.68,158.002C183.812,158.002 183.926,158.056 184.022,158.164C184.118,158.272 184.166,158.41 184.166,158.578C184.166,158.878 183.956,159.154 183.536,159.406C183.104,159.658 182.648,159.847 182.168,159.973C181.688,160.099 181.22,160.162 180.764,160.162C179.408,160.162 178.337,159.76 177.551,158.956C176.765,158.152 176.372,157.042 176.372,155.626C176.372,154.726 176.546,153.931 176.894,153.241C177.242,152.551 177.731,152.014 178.361,151.63C178.991,151.246 179.708,151.054 180.512,151.054C181.652,151.054 182.558,151.426 183.23,152.17C183.902,152.914 184.238,153.922 184.238,155.194C184.238,155.434 184.19,155.608 184.094,155.716C183.998,155.824 183.842,155.878 183.626,155.878L177.83,155.878C177.938,157.942 178.916,158.974 180.764,158.974C181.232,158.974 181.634,158.911 181.97,158.785C182.306,158.659 182.666,158.488 183.05,158.272C183.362,158.092 183.572,158.002 183.68,158.002ZM180.53,152.188C179.762,152.188 179.147,152.428 178.685,152.908C178.223,153.388 177.95,154.066 177.866,154.942L182.96,154.942C182.936,154.054 182.714,153.373 182.294,152.899C181.874,152.425 181.286,152.188 180.53,152.188Z" style="fill:rgb(99,101,106);fill-rule:nonzero;"/>
            <path d="M190.79,151.054C192.89,151.054 193.94,152.212 193.94,154.528L193.94,159.406C193.94,159.634 193.877,159.811 193.751,159.937C193.625,160.063 193.448,160.126 193.22,160.126C192.992,160.126 192.812,160.063 192.68,159.937C192.548,159.811 192.482,159.634 192.482,159.406L192.482,154.618C192.482,153.802 192.323,153.208 192.005,152.836C191.687,152.464 191.18,152.278 190.484,152.278C189.68,152.278 189.038,152.524 188.558,153.016C188.078,153.508 187.838,154.174 187.838,155.014L187.838,159.406C187.838,159.634 187.775,159.811 187.649,159.937C187.523,160.063 187.346,160.126 187.118,160.126C186.89,160.126 186.71,160.063 186.578,159.937C186.446,159.811 186.38,159.634 186.38,159.406L186.38,151.81C186.38,151.594 186.446,151.42 186.578,151.288C186.71,151.156 186.89,151.09 187.118,151.09C187.334,151.09 187.505,151.156 187.631,151.288C187.757,151.42 187.82,151.588 187.82,151.792L187.82,152.71C188.108,152.17 188.51,151.759 189.026,151.477C189.542,151.195 190.13,151.054 190.79,151.054Z" style="fill:rgb(99,101,106);fill-rule:nonzero;"/>
            <path d="M200.654,158.974C201.074,159.01 201.284,159.202 201.284,159.55C201.284,159.754 201.209,159.907 201.059,160.009C200.909,160.111 200.684,160.15 200.384,160.126L199.898,160.09C198.938,160.018 198.23,159.73 197.774,159.226C197.318,158.722 197.09,157.96 197.09,156.94L197.09,152.422L195.884,152.422C195.68,152.422 195.521,152.371 195.407,152.269C195.293,152.167 195.236,152.032 195.236,151.864C195.236,151.684 195.293,151.54 195.407,151.432C195.521,151.324 195.68,151.27 195.884,151.27L197.09,151.27L197.09,149.236C197.09,149.008 197.156,148.831 197.288,148.705C197.42,148.579 197.6,148.516 197.828,148.516C198.044,148.516 198.218,148.579 198.35,148.705C198.482,148.831 198.548,149.008 198.548,149.236L198.548,151.27L200.546,151.27C200.738,151.27 200.891,151.324 201.005,151.432C201.119,151.54 201.176,151.684 201.176,151.864C201.176,152.032 201.119,152.167 201.005,152.269C200.891,152.371 200.738,152.422 200.546,152.422L198.548,152.422L198.548,157.012C198.548,157.672 198.683,158.149 198.953,158.443C199.223,158.737 199.628,158.902 200.168,158.938L200.654,158.974Z" style="fill:rgb(99,101,106);fill-rule:nonzero;"/>
            <path d="M210.95,151.054C213.146,151.054 214.244,152.206 214.244,154.51L214.244,159.406C214.244,159.622 214.181,159.796 214.055,159.928C213.929,160.06 213.758,160.126 213.542,160.126C213.326,160.126 213.152,160.06 213.02,159.928C212.888,159.796 212.822,159.622 212.822,159.406L212.822,158.542C212.594,159.058 212.246,159.457 211.778,159.739C211.31,160.021 210.77,160.162 210.158,160.162C209.594,160.162 209.075,160.048 208.601,159.82C208.127,159.592 207.752,159.274 207.476,158.866C207.2,158.458 207.062,158.008 207.062,157.516C207.062,156.856 207.23,156.343 207.566,155.977C207.902,155.611 208.454,155.347 209.222,155.185C209.99,155.023 211.058,154.942 212.426,154.942L212.822,154.942L212.822,154.348C212.822,153.628 212.675,153.1 212.381,152.764C212.087,152.428 211.61,152.26 210.95,152.26C210.134,152.26 209.306,152.482 208.466,152.926C208.142,153.13 207.914,153.232 207.782,153.232C207.638,153.232 207.518,153.178 207.422,153.07C207.326,152.962 207.278,152.824 207.278,152.656C207.278,152.488 207.329,152.341 207.431,152.215C207.533,152.089 207.698,151.96 207.926,151.828C208.346,151.588 208.823,151.399 209.357,151.261C209.891,151.123 210.422,151.054 210.95,151.054ZM210.356,159.01C211.076,159.01 211.667,158.767 212.129,158.281C212.591,157.795 212.822,157.168 212.822,156.4L212.822,155.878L212.498,155.878C211.442,155.878 210.638,155.923 210.086,156.013C209.534,156.103 209.141,156.253 208.907,156.463C208.673,156.673 208.556,156.982 208.556,157.39C208.556,157.858 208.727,158.245 209.069,158.551C209.411,158.857 209.84,159.01 210.356,159.01Z" style="fill:rgb(99,101,106);fill-rule:nonzero;"/>
            <path d="M220.958,158.974C221.378,159.01 221.588,159.202 221.588,159.55C221.588,159.754 221.513,159.907 221.363,160.009C221.213,160.111 220.988,160.15 220.688,160.126L220.202,160.09C219.242,160.018 218.534,159.73 218.078,159.226C217.622,158.722 217.394,157.96 217.394,156.94L217.394,152.422L216.188,152.422C215.984,152.422 215.825,152.371 215.711,152.269C215.597,152.167 215.54,152.032 215.54,151.864C215.54,151.684 215.597,151.54 215.711,151.432C215.825,151.324 215.984,151.27 216.188,151.27L217.394,151.27L217.394,149.236C217.394,149.008 217.46,148.831 217.592,148.705C217.724,148.579 217.904,148.516 218.132,148.516C218.348,148.516 218.522,148.579 218.654,148.705C218.786,148.831 218.852,149.008 218.852,149.236L218.852,151.27L220.85,151.27C221.042,151.27 221.195,151.324 221.309,151.432C221.423,151.54 221.48,151.684 221.48,151.864C221.48,152.032 221.423,152.167 221.309,152.269C221.195,152.371 221.042,152.422 220.85,152.422L218.852,152.422L218.852,157.012C218.852,157.672 218.987,158.149 219.257,158.443C219.527,158.737 219.932,158.902 220.472,158.938L220.958,158.974Z" style="fill:rgb(99,101,106);fill-rule:nonzero;"/>
            <path d="M227.132,158.974C227.552,159.01 227.762,159.202 227.762,159.55C227.762,159.754 227.687,159.907 227.537,160.009C227.387,160.111 227.162,160.15 226.862,160.126L226.376,160.09C225.416,160.018 224.708,159.73 224.252,159.226C223.796,158.722 223.568,157.96 223.568,156.94L223.568,152.422L222.362,152.422C222.158,152.422 221.999,152.371 221.885,152.269C221.771,152.167 221.714,152.032 221.714,151.864C221.714,151.684 221.771,151.54 221.885,151.432C221.999,151.324 222.158,151.27 222.362,151.27L223.568,151.27L223.568,149.236C223.568,149.008 223.634,148.831 223.766,148.705C223.898,148.579 224.078,148.516 224.306,148.516C224.522,148.516 224.696,148.579 224.828,148.705C224.96,148.831 225.026,149.008 225.026,149.236L225.026,151.27L227.024,151.27C227.216,151.27 227.369,151.324 227.483,151.432C227.597,151.54 227.654,151.684 227.654,151.864C227.654,152.032 227.597,152.167 227.483,152.269C227.369,152.371 227.216,152.422 227.024,152.422L225.026,152.422L225.026,157.012C225.026,157.672 225.161,158.149 225.431,158.443C225.701,158.737 226.106,158.902 226.646,158.938L227.132,158.974Z" style="fill:rgb(99,101,106);fill-rule:nonzero;"/>
            <path d="M235.988,158.002C236.12,158.002 236.234,158.056 236.33,158.164C236.426,158.272 236.474,158.41 236.474,158.578C236.474,158.878 236.264,159.154 235.844,159.406C235.412,159.658 234.956,159.847 234.476,159.973C233.996,160.099 233.528,160.162 233.072,160.162C231.716,160.162 230.645,159.76 229.859,158.956C229.073,158.152 228.68,157.042 228.68,155.626C228.68,154.726 228.854,153.931 229.202,153.241C229.55,152.551 230.039,152.014 230.669,151.63C231.299,151.246 232.016,151.054 232.82,151.054C233.96,151.054 234.866,151.426 235.538,152.17C236.21,152.914 236.546,153.922 236.546,155.194C236.546,155.434 236.498,155.608 236.402,155.716C236.306,155.824 236.15,155.878 235.934,155.878L230.138,155.878C230.246,157.942 231.224,158.974 233.072,158.974C233.54,158.974 233.942,158.911 234.278,158.785C234.614,158.659 234.974,158.488 235.358,158.272C235.67,158.092 235.88,158.002 235.988,158.002ZM232.838,152.188C232.07,152.188 231.455,152.428 230.993,152.908C230.531,153.388 230.258,154.066 230.174,154.942L235.268,154.942C235.244,154.054 235.022,153.373 234.602,152.899C234.182,152.425 233.594,152.188 232.838,152.188Z" style="fill:rgb(99,101,106);fill-rule:nonzero;"/>
            <path d="M248.444,151.054C250.388,151.054 251.36,152.212 251.36,154.528L251.36,159.406C251.36,159.634 251.294,159.811 251.162,159.937C251.03,160.063 250.856,160.126 250.64,160.126C250.424,160.126 250.247,160.063 250.109,159.937C249.971,159.811 249.902,159.634 249.902,159.406L249.902,154.564C249.902,153.76 249.758,153.178 249.47,152.818C249.182,152.458 248.732,152.278 248.12,152.278C247.388,152.278 246.812,152.524 246.392,153.016C245.972,153.508 245.762,154.174 245.762,155.014L245.762,159.406C245.762,159.634 245.693,159.811 245.555,159.937C245.417,160.063 245.24,160.126 245.024,160.126C244.808,160.126 244.634,160.063 244.502,159.937C244.37,159.811 244.304,159.634 244.304,159.406L244.304,154.564C244.304,153.76 244.16,153.178 243.872,152.818C243.584,152.458 243.128,152.278 242.504,152.278C241.784,152.278 241.211,152.524 240.785,153.016C240.359,153.508 240.146,154.174 240.146,155.014L240.146,159.406C240.146,159.634 240.08,159.811 239.948,159.937C239.816,160.063 239.642,160.126 239.426,160.126C239.21,160.126 239.033,160.063 238.895,159.937C238.757,159.811 238.688,159.634 238.688,159.406L238.688,151.81C238.688,151.594 238.757,151.42 238.895,151.288C239.033,151.156 239.21,151.09 239.426,151.09C239.63,151.09 239.798,151.153 239.93,151.279C240.062,151.405 240.128,151.576 240.128,151.792L240.128,152.656C240.392,152.14 240.758,151.744 241.226,151.468C241.694,151.192 242.234,151.054 242.846,151.054C244.214,151.054 245.108,151.63 245.528,152.782C245.78,152.254 246.164,151.834 246.68,151.522C247.196,151.21 247.784,151.054 248.444,151.054Z" style="fill:rgb(99,101,106);fill-rule:nonzero;"/>
            <path d="M258.434,151.054C259.202,151.054 259.88,151.246 260.468,151.63C261.056,152.014 261.512,152.551 261.836,153.241C262.16,153.931 262.322,154.732 262.322,155.644C262.322,156.556 262.16,157.351 261.836,158.029C261.512,158.707 261.059,159.232 260.477,159.604C259.895,159.976 259.214,160.162 258.434,160.162C257.75,160.162 257.153,160.012 256.643,159.712C256.133,159.412 255.746,158.986 255.482,158.434L255.482,162.664C255.482,162.88 255.419,163.051 255.293,163.177C255.167,163.303 254.99,163.366 254.762,163.366C254.534,163.366 254.354,163.3 254.222,163.168C254.09,163.036 254.024,162.868 254.024,162.664L254.024,151.81C254.024,151.594 254.09,151.42 254.222,151.288C254.354,151.156 254.534,151.09 254.762,151.09C254.99,151.09 255.167,151.156 255.293,151.288C255.419,151.42 255.482,151.594 255.482,151.81L255.482,152.782C255.746,152.23 256.133,151.804 256.643,151.504C257.153,151.204 257.75,151.054 258.434,151.054ZM258.146,158.956C258.998,158.956 259.658,158.668 260.126,158.092C260.594,157.516 260.828,156.7 260.828,155.644C260.828,154.588 260.594,153.763 260.126,153.169C259.658,152.575 258.998,152.278 258.146,152.278C257.294,152.278 256.637,152.566 256.175,153.142C255.713,153.718 255.482,154.54 255.482,155.608C255.482,156.676 255.713,157.501 256.175,158.083C256.637,158.665 257.294,158.956 258.146,158.956Z" style="fill:rgb(99,101,106);fill-rule:nonzero;"/>
            <path d="M268.532,158.974C268.952,159.01 269.162,159.202 269.162,159.55C269.162,159.754 269.087,159.907 268.937,160.009C268.787,160.111 268.562,160.15 268.262,160.126L267.776,160.09C266.816,160.018 266.108,159.73 265.652,159.226C265.196,158.722 264.968,157.96 264.968,156.94L264.968,152.422L263.762,152.422C263.558,152.422 263.399,152.371 263.285,152.269C263.171,152.167 263.114,152.032 263.114,151.864C263.114,151.684 263.171,151.54 263.285,151.432C263.399,151.324 263.558,151.27 263.762,151.27L264.968,151.27L264.968,149.236C264.968,149.008 265.034,148.831 265.166,148.705C265.298,148.579 265.478,148.516 265.706,148.516C265.922,148.516 266.096,148.579 266.228,148.705C266.36,148.831 266.426,149.008 266.426,149.236L266.426,151.27L268.424,151.27C268.616,151.27 268.769,151.324 268.883,151.432C268.997,151.54 269.054,151.684 269.054,151.864C269.054,152.032 268.997,152.167 268.883,152.269C268.769,152.371 268.616,152.422 268.424,152.422L266.426,152.422L266.426,157.012C266.426,157.672 266.561,158.149 266.831,158.443C267.101,158.737 267.506,158.902 268.046,158.938L268.532,158.974Z" style="fill:rgb(99,101,106);fill-rule:nonzero;"/>
            <path d="M273.554,160.162C273.002,160.162 272.477,160.096 271.979,159.964C271.481,159.832 271.04,159.646 270.656,159.406C270.44,159.262 270.287,159.127 270.197,159.001C270.107,158.875 270.062,158.722 270.062,158.542C270.062,158.386 270.107,158.257 270.197,158.155C270.287,158.053 270.404,158.002 270.548,158.002C270.692,158.002 270.902,158.092 271.178,158.272C271.538,158.488 271.895,158.659 272.249,158.785C272.603,158.911 273.044,158.974 273.572,158.974C274.22,158.974 274.724,158.86 275.084,158.632C275.444,158.404 275.624,158.074 275.624,157.642C275.624,157.378 275.558,157.165 275.426,157.003C275.294,156.841 275.066,156.697 274.742,156.571C274.418,156.445 273.944,156.316 273.32,156.184C272.264,155.956 271.508,155.65 271.052,155.266C270.596,154.882 270.368,154.36 270.368,153.7C270.368,153.184 270.512,152.728 270.8,152.332C271.088,151.936 271.487,151.624 271.997,151.396C272.507,151.168 273.086,151.054 273.734,151.054C274.202,151.054 274.655,151.117 275.093,151.243C275.531,151.369 275.918,151.546 276.254,151.774C276.662,152.062 276.866,152.362 276.866,152.674C276.866,152.83 276.818,152.962 276.722,153.07C276.626,153.178 276.512,153.232 276.38,153.232C276.236,153.232 276.02,153.13 275.732,152.926C275.396,152.71 275.078,152.542 274.778,152.422C274.478,152.302 274.106,152.242 273.662,152.242C273.098,152.242 272.645,152.368 272.303,152.62C271.961,152.872 271.79,153.208 271.79,153.628C271.79,153.892 271.853,154.105 271.979,154.267C272.105,154.429 272.315,154.573 272.609,154.699C272.903,154.825 273.326,154.948 273.878,155.068C274.694,155.248 275.327,155.446 275.777,155.662C276.227,155.878 276.548,156.142 276.74,156.454C276.932,156.766 277.028,157.162 277.028,157.642C277.028,158.398 276.71,159.007 276.074,159.469C275.438,159.931 274.598,160.162 273.554,160.162Z" style="fill:rgb(99,101,106);fill-rule:nonzero;"/>
            <path d="M287.936,158.974C288.356,159.01 288.566,159.202 288.566,159.55C288.566,159.754 288.491,159.907 288.341,160.009C288.191,160.111 287.966,160.15 287.666,160.126L287.18,160.09C286.22,160.018 285.512,159.73 285.056,159.226C284.6,158.722 284.372,157.96 284.372,156.94L284.372,152.422L283.166,152.422C282.962,152.422 282.803,152.371 282.689,152.269C282.575,152.167 282.518,152.032 282.518,151.864C282.518,151.684 282.575,151.54 282.689,151.432C282.803,151.324 282.962,151.27 283.166,151.27L284.372,151.27L284.372,149.236C284.372,149.008 284.438,148.831 284.57,148.705C284.702,148.579 284.882,148.516 285.11,148.516C285.326,148.516 285.5,148.579 285.632,148.705C285.764,148.831 285.83,149.008 285.83,149.236L285.83,151.27L287.828,151.27C288.02,151.27 288.173,151.324 288.287,151.432C288.401,151.54 288.458,151.684 288.458,151.864C288.458,152.032 288.401,152.167 288.287,152.269C288.173,152.371 288.02,152.422 287.828,152.422L285.83,152.422L285.83,157.012C285.83,157.672 285.965,158.149 286.235,158.443C286.505,158.737 286.91,158.902 287.45,158.938L287.936,158.974Z" style="fill:rgb(99,101,106);fill-rule:nonzero;"/>
            <path d="M293.642,160.162C292.814,160.162 292.085,159.976 291.455,159.604C290.825,159.232 290.339,158.701 289.997,158.011C289.655,157.321 289.484,156.52 289.484,155.608C289.484,154.696 289.655,153.895 289.997,153.205C290.339,152.515 290.825,151.984 291.455,151.612C292.085,151.24 292.814,151.054 293.642,151.054C294.47,151.054 295.202,151.24 295.838,151.612C296.474,151.984 296.963,152.515 297.305,153.205C297.647,153.895 297.818,154.696 297.818,155.608C297.818,156.52 297.647,157.321 297.305,158.011C296.963,158.701 296.474,159.232 295.838,159.604C295.202,159.976 294.47,160.162 293.642,160.162ZM293.642,158.956C294.506,158.956 295.169,158.671 295.631,158.101C296.093,157.531 296.324,156.7 296.324,155.608C296.324,154.54 296.09,153.715 295.622,153.133C295.154,152.551 294.494,152.26 293.642,152.26C292.79,152.26 292.13,152.551 291.662,153.133C291.194,153.715 290.96,154.54 290.96,155.608C290.96,156.688 291.191,157.516 291.653,158.092C292.115,158.668 292.778,158.956 293.642,158.956Z" style="fill:rgb(99,101,106);fill-rule:nonzero;"/>
            <path d="M308.222,151.054C310.418,151.054 311.516,152.206 311.516,154.51L311.516,159.406C311.516,159.622 311.453,159.796 311.327,159.928C311.201,160.06 311.03,160.126 310.814,160.126C310.598,160.126 310.424,160.06 310.292,159.928C310.16,159.796 310.094,159.622 310.094,159.406L310.094,158.542C309.866,159.058 309.518,159.457 309.05,159.739C308.582,160.021 308.042,160.162 307.43,160.162C306.866,160.162 306.347,160.048 305.873,159.82C305.399,159.592 305.024,159.274 304.748,158.866C304.472,158.458 304.334,158.008 304.334,157.516C304.334,156.856 304.502,156.343 304.838,155.977C305.174,155.611 305.726,155.347 306.494,155.185C307.262,155.023 308.33,154.942 309.698,154.942L310.094,154.942L310.094,154.348C310.094,153.628 309.947,153.1 309.653,152.764C309.359,152.428 308.882,152.26 308.222,152.26C307.406,152.26 306.578,152.482 305.738,152.926C305.414,153.13 305.186,153.232 305.054,153.232C304.91,153.232 304.79,153.178 304.694,153.07C304.598,152.962 304.55,152.824 304.55,152.656C304.55,152.488 304.601,152.341 304.703,152.215C304.805,152.089 304.97,151.96 305.198,151.828C305.618,151.588 306.095,151.399 306.629,151.261C307.163,151.123 307.694,151.054 308.222,151.054ZM307.628,159.01C308.348,159.01 308.939,158.767 309.401,158.281C309.863,157.795 310.094,157.168 310.094,156.4L310.094,155.878L309.77,155.878C308.714,155.878 307.91,155.923 307.358,156.013C306.806,156.103 306.413,156.253 306.179,156.463C305.945,156.673 305.828,156.982 305.828,157.39C305.828,157.858 305.999,158.245 306.341,158.551C306.683,158.857 307.112,159.01 307.628,159.01Z" style="fill:rgb(99,101,106);fill-rule:nonzero;"/>
            <path d="M317.798,160.162C316.982,160.162 316.259,159.976 315.629,159.604C314.999,159.232 314.513,158.704 314.171,158.02C313.829,157.336 313.658,156.544 313.658,155.644C313.658,154.744 313.835,153.946 314.189,153.25C314.543,152.554 315.038,152.014 315.674,151.63C316.31,151.246 317.042,151.054 317.87,151.054C318.326,151.054 318.779,151.117 319.229,151.243C319.679,151.369 320.072,151.552 320.408,151.792C320.624,151.936 320.777,152.077 320.867,152.215C320.957,152.353 321.002,152.506 321.002,152.674C321.002,152.842 320.957,152.98 320.867,153.088C320.777,153.196 320.66,153.25 320.516,153.25C320.432,153.25 320.342,153.226 320.246,153.178C320.15,153.13 320.069,153.082 320.003,153.034C319.937,152.986 319.892,152.956 319.868,152.944C319.556,152.74 319.259,152.578 318.977,152.458C318.695,152.338 318.35,152.278 317.942,152.278C317.066,152.278 316.385,152.575 315.899,153.169C315.413,153.763 315.17,154.588 315.17,155.644C315.17,156.7 315.413,157.516 315.899,158.092C316.385,158.668 317.066,158.956 317.942,158.956C318.35,158.956 318.701,158.896 318.995,158.776C319.289,158.656 319.586,158.494 319.886,158.29C320.018,158.206 320.144,158.134 320.264,158.074C320.384,158.014 320.486,157.984 320.57,157.984C320.702,157.984 320.813,158.038 320.903,158.146C320.993,158.254 321.038,158.392 321.038,158.56C321.038,158.716 320.996,158.857 320.912,158.983C320.828,159.109 320.672,159.25 320.444,159.406C320.108,159.634 319.703,159.817 319.229,159.955C318.755,160.093 318.278,160.162 317.798,160.162Z" style="fill:rgb(99,101,106);fill-rule:nonzero;"/>
            <path d="M326.42,160.162C325.604,160.162 324.881,159.976 324.251,159.604C323.621,159.232 323.135,158.704 322.793,158.02C322.451,157.336 322.28,156.544 322.28,155.644C322.28,154.744 322.457,153.946 322.811,153.25C323.165,152.554 323.66,152.014 324.296,151.63C324.932,151.246 325.664,151.054 326.492,151.054C326.948,151.054 327.401,151.117 327.851,151.243C328.301,151.369 328.694,151.552 329.03,151.792C329.246,151.936 329.399,152.077 329.489,152.215C329.579,152.353 329.624,152.506 329.624,152.674C329.624,152.842 329.579,152.98 329.489,153.088C329.399,153.196 329.282,153.25 329.138,153.25C329.054,153.25 328.964,153.226 328.868,153.178C328.772,153.13 328.691,153.082 328.625,153.034C328.559,152.986 328.514,152.956 328.49,152.944C328.178,152.74 327.881,152.578 327.599,152.458C327.317,152.338 326.972,152.278 326.564,152.278C325.688,152.278 325.007,152.575 324.521,153.169C324.035,153.763 323.792,154.588 323.792,155.644C323.792,156.7 324.035,157.516 324.521,158.092C325.007,158.668 325.688,158.956 326.564,158.956C326.972,158.956 327.323,158.896 327.617,158.776C327.911,158.656 328.208,158.494 328.508,158.29C328.64,158.206 328.766,158.134 328.886,158.074C329.006,158.014 329.108,157.984 329.192,157.984C329.324,157.984 329.435,158.038 329.525,158.146C329.615,158.254 329.66,158.392 329.66,158.56C329.66,158.716 329.618,158.857 329.534,158.983C329.45,159.109 329.294,159.25 329.066,159.406C328.73,159.634 328.325,159.817 327.851,159.955C327.377,160.093 326.9,160.162 326.42,160.162Z" style="fill:rgb(99,101,106);fill-rule:nonzero;"/>
            <path d="M338.21,158.002C338.342,158.002 338.456,158.056 338.552,158.164C338.648,158.272 338.696,158.41 338.696,158.578C338.696,158.878 338.486,159.154 338.066,159.406C337.634,159.658 337.178,159.847 336.698,159.973C336.218,160.099 335.75,160.162 335.294,160.162C333.938,160.162 332.867,159.76 332.081,158.956C331.295,158.152 330.902,157.042 330.902,155.626C330.902,154.726 331.076,153.931 331.424,153.241C331.772,152.551 332.261,152.014 332.891,151.63C333.521,151.246 334.238,151.054 335.042,151.054C336.182,151.054 337.088,151.426 337.76,152.17C338.432,152.914 338.768,153.922 338.768,155.194C338.768,155.434 338.72,155.608 338.624,155.716C338.528,155.824 338.372,155.878 338.156,155.878L332.36,155.878C332.468,157.942 333.446,158.974 335.294,158.974C335.762,158.974 336.164,158.911 336.5,158.785C336.836,158.659 337.196,158.488 337.58,158.272C337.892,158.092 338.102,158.002 338.21,158.002ZM335.06,152.188C334.292,152.188 333.677,152.428 333.215,152.908C332.753,153.388 332.48,154.066 332.396,154.942L337.49,154.942C337.466,154.054 337.244,153.373 336.824,152.899C336.404,152.425 335.816,152.188 335.06,152.188Z" style="fill:rgb(99,101,106);fill-rule:nonzero;"/>
            <path d="M343.862,160.162C343.31,160.162 342.785,160.096 342.287,159.964C341.789,159.832 341.348,159.646 340.964,159.406C340.748,159.262 340.595,159.127 340.505,159.001C340.415,158.875 340.37,158.722 340.37,158.542C340.37,158.386 340.415,158.257 340.505,158.155C340.595,158.053 340.712,158.002 340.856,158.002C341,158.002 341.21,158.092 341.486,158.272C341.846,158.488 342.203,158.659 342.557,158.785C342.911,158.911 343.352,158.974 343.88,158.974C344.528,158.974 345.032,158.86 345.392,158.632C345.752,158.404 345.932,158.074 345.932,157.642C345.932,157.378 345.866,157.165 345.734,157.003C345.602,156.841 345.374,156.697 345.05,156.571C344.726,156.445 344.252,156.316 343.628,156.184C342.572,155.956 341.816,155.65 341.36,155.266C340.904,154.882 340.676,154.36 340.676,153.7C340.676,153.184 340.82,152.728 341.108,152.332C341.396,151.936 341.795,151.624 342.305,151.396C342.815,151.168 343.394,151.054 344.042,151.054C344.51,151.054 344.963,151.117 345.401,151.243C345.839,151.369 346.226,151.546 346.562,151.774C346.97,152.062 347.174,152.362 347.174,152.674C347.174,152.83 347.126,152.962 347.03,153.07C346.934,153.178 346.82,153.232 346.688,153.232C346.544,153.232 346.328,153.13 346.04,152.926C345.704,152.71 345.386,152.542 345.086,152.422C344.786,152.302 344.414,152.242 343.97,152.242C343.406,152.242 342.953,152.368 342.611,152.62C342.269,152.872 342.098,153.208 342.098,153.628C342.098,153.892 342.161,154.105 342.287,154.267C342.413,154.429 342.623,154.573 342.917,154.699C343.211,154.825 343.634,154.948 344.186,155.068C345.002,155.248 345.635,155.446 346.085,155.662C346.535,155.878 346.856,156.142 347.048,156.454C347.24,156.766 347.336,157.162 347.336,157.642C347.336,158.398 347.018,159.007 346.382,159.469C345.746,159.931 344.906,160.162 343.862,160.162Z" style="fill:rgb(99,101,106);fill-rule:nonzero;"/>
            <path d="M352.502,160.162C351.95,160.162 351.425,160.096 350.927,159.964C350.429,159.832 349.988,159.646 349.604,159.406C349.388,159.262 349.235,159.127 349.145,159.001C349.055,158.875 349.01,158.722 349.01,158.542C349.01,158.386 349.055,158.257 349.145,158.155C349.235,158.053 349.352,158.002 349.496,158.002C349.64,158.002 349.85,158.092 350.126,158.272C350.486,158.488 350.843,158.659 351.197,158.785C351.551,158.911 351.992,158.974 352.52,158.974C353.168,158.974 353.672,158.86 354.032,158.632C354.392,158.404 354.572,158.074 354.572,157.642C354.572,157.378 354.506,157.165 354.374,157.003C354.242,156.841 354.014,156.697 353.69,156.571C353.366,156.445 352.892,156.316 352.268,156.184C351.212,155.956 350.456,155.65 350,155.266C349.544,154.882 349.316,154.36 349.316,153.7C349.316,153.184 349.46,152.728 349.748,152.332C350.036,151.936 350.435,151.624 350.945,151.396C351.455,151.168 352.034,151.054 352.682,151.054C353.15,151.054 353.603,151.117 354.041,151.243C354.479,151.369 354.866,151.546 355.202,151.774C355.61,152.062 355.814,152.362 355.814,152.674C355.814,152.83 355.766,152.962 355.67,153.07C355.574,153.178 355.46,153.232 355.328,153.232C355.184,153.232 354.968,153.13 354.68,152.926C354.344,152.71 354.026,152.542 353.726,152.422C353.426,152.302 353.054,152.242 352.61,152.242C352.046,152.242 351.593,152.368 351.251,152.62C350.909,152.872 350.738,153.208 350.738,153.628C350.738,153.892 350.801,154.105 350.927,154.267C351.053,154.429 351.263,154.573 351.557,154.699C351.851,154.825 352.274,154.948 352.826,155.068C353.642,155.248 354.275,155.446 354.725,155.662C355.175,155.878 355.496,156.142 355.688,156.454C355.88,156.766 355.976,157.162 355.976,157.642C355.976,158.398 355.658,159.007 355.022,159.469C354.386,159.931 353.546,160.162 352.502,160.162Z" style="fill:rgb(99,101,106);fill-rule:nonzero;"/>
            <path d="M366.884,158.974C367.304,159.01 367.514,159.202 367.514,159.55C367.514,159.754 367.439,159.907 367.289,160.009C367.139,160.111 366.914,160.15 366.614,160.126L366.128,160.09C365.168,160.018 364.46,159.73 364.004,159.226C363.548,158.722 363.32,157.96 363.32,156.94L363.32,152.422L362.114,152.422C361.91,152.422 361.751,152.371 361.637,152.269C361.523,152.167 361.466,152.032 361.466,151.864C361.466,151.684 361.523,151.54 361.637,151.432C361.751,151.324 361.91,151.27 362.114,151.27L363.32,151.27L363.32,149.236C363.32,149.008 363.386,148.831 363.518,148.705C363.65,148.579 363.83,148.516 364.058,148.516C364.274,148.516 364.448,148.579 364.58,148.705C364.712,148.831 364.778,149.008 364.778,149.236L364.778,151.27L366.776,151.27C366.968,151.27 367.121,151.324 367.235,151.432C367.349,151.54 367.406,151.684 367.406,151.864C367.406,152.032 367.349,152.167 367.235,152.269C367.121,152.371 366.968,152.422 366.776,152.422L364.778,152.422L364.778,157.012C364.778,157.672 364.913,158.149 365.183,158.443C365.453,158.737 365.858,158.902 366.398,158.938L366.884,158.974Z" style="fill:rgb(99,101,106);fill-rule:nonzero;"/>
            <path d="M373.382,151.054C374.414,151.054 375.194,151.345 375.722,151.927C376.25,152.509 376.514,153.376 376.514,154.528L376.514,159.406C376.514,159.634 376.448,159.811 376.316,159.937C376.184,160.063 376.01,160.126 375.794,160.126C375.566,160.126 375.386,160.063 375.254,159.937C375.122,159.811 375.056,159.634 375.056,159.406L375.056,154.564C375.056,153.784 374.897,153.208 374.579,152.836C374.261,152.464 373.754,152.278 373.058,152.278C372.254,152.278 371.612,152.524 371.132,153.016C370.652,153.508 370.412,154.174 370.412,155.014L370.412,159.406C370.412,159.634 370.349,159.811 370.223,159.937C370.097,160.063 369.92,160.126 369.692,160.126C369.464,160.126 369.284,160.063 369.152,159.937C369.02,159.811 368.954,159.634 368.954,159.406L368.954,147.958C368.954,147.754 369.023,147.586 369.161,147.454C369.299,147.322 369.476,147.256 369.692,147.256C369.92,147.256 370.097,147.319 370.223,147.445C370.349,147.571 370.412,147.742 370.412,147.958L370.412,152.674C370.7,152.146 371.102,151.744 371.618,151.468C372.134,151.192 372.722,151.054 373.382,151.054Z" style="fill:rgb(99,101,106);fill-rule:nonzero;"/>
            <path d="M385.964,158.002C386.096,158.002 386.21,158.056 386.306,158.164C386.402,158.272 386.45,158.41 386.45,158.578C386.45,158.878 386.24,159.154 385.82,159.406C385.388,159.658 384.932,159.847 384.452,159.973C383.972,160.099 383.504,160.162 383.048,160.162C381.692,160.162 380.621,159.76 379.835,158.956C379.049,158.152 378.656,157.042 378.656,155.626C378.656,154.726 378.83,153.931 379.178,153.241C379.526,152.551 380.015,152.014 380.645,151.63C381.275,151.246 381.992,151.054 382.796,151.054C383.936,151.054 384.842,151.426 385.514,152.17C386.186,152.914 386.522,153.922 386.522,155.194C386.522,155.434 386.474,155.608 386.378,155.716C386.282,155.824 386.126,155.878 385.91,155.878L380.114,155.878C380.222,157.942 381.2,158.974 383.048,158.974C383.516,158.974 383.918,158.911 384.254,158.785C384.59,158.659 384.95,158.488 385.334,158.272C385.646,158.092 385.856,158.002 385.964,158.002ZM382.814,152.188C382.046,152.188 381.431,152.428 380.969,152.908C380.507,153.388 380.234,154.066 380.15,154.942L385.244,154.942C385.22,154.054 384.998,153.373 384.578,152.899C384.158,152.425 383.57,152.188 382.814,152.188Z" style="fill:rgb(99,101,106);fill-rule:nonzero;"/>
            <path d="M394.262,160.126C394.034,160.126 393.854,160.057 393.722,159.919C393.59,159.781 393.524,159.598 393.524,159.37L393.524,148.012C393.524,147.784 393.59,147.601 393.722,147.463C393.854,147.325 394.034,147.256 394.262,147.256C394.49,147.256 394.67,147.325 394.802,147.463C394.934,147.601 395,147.784 395,148.012L395,159.37C395,159.598 394.934,159.781 394.802,159.919C394.67,160.057 394.49,160.126 394.262,160.126Z" style="fill:rgb(99,101,106);fill-rule:nonzero;"/>
            <path d="M402.326,151.054C404.426,151.054 405.476,152.212 405.476,154.528L405.476,159.406C405.476,159.634 405.413,159.811 405.287,159.937C405.161,160.063 404.984,160.126 404.756,160.126C404.528,160.126 404.348,160.063 404.216,159.937C404.084,159.811 404.018,159.634 404.018,159.406L404.018,154.618C404.018,153.802 403.859,153.208 403.541,152.836C403.223,152.464 402.716,152.278 402.02,152.278C401.216,152.278 400.574,152.524 400.094,153.016C399.614,153.508 399.374,154.174 399.374,155.014L399.374,159.406C399.374,159.634 399.311,159.811 399.185,159.937C399.059,160.063 398.882,160.126 398.654,160.126C398.426,160.126 398.246,160.063 398.114,159.937C397.982,159.811 397.916,159.634 397.916,159.406L397.916,151.81C397.916,151.594 397.982,151.42 398.114,151.288C398.246,151.156 398.426,151.09 398.654,151.09C398.87,151.09 399.041,151.156 399.167,151.288C399.293,151.42 399.356,151.588 399.356,151.792L399.356,152.71C399.644,152.17 400.046,151.759 400.562,151.477C401.078,151.195 401.666,151.054 402.326,151.054Z" style="fill:rgb(99,101,106);fill-rule:nonzero;"/>
            <path d="M412.19,158.974C412.61,159.01 412.82,159.202 412.82,159.55C412.82,159.754 412.745,159.907 412.595,160.009C412.445,160.111 412.22,160.15 411.92,160.126L411.434,160.09C410.474,160.018 409.766,159.73 409.31,159.226C408.854,158.722 408.626,157.96 408.626,156.94L408.626,152.422L407.42,152.422C407.216,152.422 407.057,152.371 406.943,152.269C406.829,152.167 406.772,152.032 406.772,151.864C406.772,151.684 406.829,151.54 406.943,151.432C407.057,151.324 407.216,151.27 407.42,151.27L408.626,151.27L408.626,149.236C408.626,149.008 408.692,148.831 408.824,148.705C408.956,148.579 409.136,148.516 409.364,148.516C409.58,148.516 409.754,148.579 409.886,148.705C410.018,148.831 410.084,149.008 410.084,149.236L410.084,151.27L412.082,151.27C412.274,151.27 412.427,151.324 412.541,151.432C412.655,151.54 412.712,151.684 412.712,151.864C412.712,152.032 412.655,152.167 412.541,152.269C412.427,152.371 412.274,152.422 412.082,152.422L410.084,152.422L410.084,157.012C410.084,157.672 410.219,158.149 410.489,158.443C410.759,158.737 411.164,158.902 411.704,158.938L412.19,158.974Z" style="fill:rgb(99,101,106);fill-rule:nonzero;"/>
            <path d="M421.046,158.002C421.178,158.002 421.292,158.056 421.388,158.164C421.484,158.272 421.532,158.41 421.532,158.578C421.532,158.878 421.322,159.154 420.902,159.406C420.47,159.658 420.014,159.847 419.534,159.973C419.054,160.099 418.586,160.162 418.13,160.162C416.774,160.162 415.703,159.76 414.917,158.956C414.131,158.152 413.738,157.042 413.738,155.626C413.738,154.726 413.912,153.931 414.26,153.241C414.608,152.551 415.097,152.014 415.727,151.63C416.357,151.246 417.074,151.054 417.878,151.054C419.018,151.054 419.924,151.426 420.596,152.17C421.268,152.914 421.604,153.922 421.604,155.194C421.604,155.434 421.556,155.608 421.46,155.716C421.364,155.824 421.208,155.878 420.992,155.878L415.196,155.878C415.304,157.942 416.282,158.974 418.13,158.974C418.598,158.974 419,158.911 419.336,158.785C419.672,158.659 420.032,158.488 420.416,158.272C420.728,158.092 420.938,158.002 421.046,158.002ZM417.896,152.188C417.128,152.188 416.513,152.428 416.051,152.908C415.589,153.388 415.316,154.066 415.232,154.942L420.326,154.942C420.302,154.054 420.08,153.373 419.66,152.899C419.24,152.425 418.652,152.188 417.896,152.188Z" style="fill:rgb(99,101,106);fill-rule:nonzero;"/>
            <path d="M428.084,151.09C428.588,151.054 428.84,151.258 428.84,151.702C428.84,151.894 428.786,152.047 428.678,152.161C428.57,152.275 428.384,152.344 428.12,152.368L427.58,152.422C426.776,152.494 426.179,152.779 425.789,153.277C425.399,153.775 425.204,154.36 425.204,155.032L425.204,159.406C425.204,159.646 425.138,159.826 425.006,159.946C424.874,160.066 424.7,160.126 424.484,160.126C424.268,160.126 424.091,160.063 423.953,159.937C423.815,159.811 423.746,159.634 423.746,159.406L423.746,151.81C423.746,151.582 423.818,151.405 423.962,151.279C424.106,151.153 424.28,151.09 424.484,151.09C424.676,151.09 424.838,151.153 424.97,151.279C425.102,151.405 425.168,151.576 425.168,151.792L425.168,152.8C425.42,152.272 425.777,151.87 426.239,151.594C426.701,151.318 427.232,151.156 427.832,151.108L428.084,151.09Z" style="fill:rgb(99,101,106);fill-rule:nonzero;"/>
            <path d="M434.51,151.054C436.61,151.054 437.66,152.212 437.66,154.528L437.66,159.406C437.66,159.634 437.597,159.811 437.471,159.937C437.345,160.063 437.168,160.126 436.94,160.126C436.712,160.126 436.532,160.063 436.4,159.937C436.268,159.811 436.202,159.634 436.202,159.406L436.202,154.618C436.202,153.802 436.043,153.208 435.725,152.836C435.407,152.464 434.9,152.278 434.204,152.278C433.4,152.278 432.758,152.524 432.278,153.016C431.798,153.508 431.558,154.174 431.558,155.014L431.558,159.406C431.558,159.634 431.495,159.811 431.369,159.937C431.243,160.063 431.066,160.126 430.838,160.126C430.61,160.126 430.43,160.063 430.298,159.937C430.166,159.811 430.1,159.634 430.1,159.406L430.1,151.81C430.1,151.594 430.166,151.42 430.298,151.288C430.43,151.156 430.61,151.09 430.838,151.09C431.054,151.09 431.225,151.156 431.351,151.288C431.477,151.42 431.54,151.588 431.54,151.792L431.54,152.71C431.828,152.17 432.23,151.759 432.746,151.477C433.262,151.195 433.85,151.054 434.51,151.054Z" style="fill:rgb(99,101,106);fill-rule:nonzero;"/>
            <path d="M447.11,158.002C447.242,158.002 447.356,158.056 447.452,158.164C447.548,158.272 447.596,158.41 447.596,158.578C447.596,158.878 447.386,159.154 446.966,159.406C446.534,159.658 446.078,159.847 445.598,159.973C445.118,160.099 444.65,160.162 444.194,160.162C442.838,160.162 441.767,159.76 440.981,158.956C440.195,158.152 439.802,157.042 439.802,155.626C439.802,154.726 439.976,153.931 440.324,153.241C440.672,152.551 441.161,152.014 441.791,151.63C442.421,151.246 443.138,151.054 443.942,151.054C445.082,151.054 445.988,151.426 446.66,152.17C447.332,152.914 447.668,153.922 447.668,155.194C447.668,155.434 447.62,155.608 447.524,155.716C447.428,155.824 447.272,155.878 447.056,155.878L441.26,155.878C441.368,157.942 442.346,158.974 444.194,158.974C444.662,158.974 445.064,158.911 445.4,158.785C445.736,158.659 446.096,158.488 446.48,158.272C446.792,158.092 447.002,158.002 447.11,158.002ZM443.96,152.188C443.192,152.188 442.577,152.428 442.115,152.908C441.653,153.388 441.38,154.066 441.296,154.942L446.39,154.942C446.366,154.054 446.144,153.373 445.724,152.899C445.304,152.425 444.716,152.188 443.96,152.188Z" style="fill:rgb(99,101,106);fill-rule:nonzero;"/>
            <path d="M453.806,158.974C454.226,159.01 454.436,159.202 454.436,159.55C454.436,159.754 454.361,159.907 454.211,160.009C454.061,160.111 453.836,160.15 453.536,160.126L453.05,160.09C452.09,160.018 451.382,159.73 450.926,159.226C450.47,158.722 450.242,157.96 450.242,156.94L450.242,152.422L449.036,152.422C448.832,152.422 448.673,152.371 448.559,152.269C448.445,152.167 448.388,152.032 448.388,151.864C448.388,151.684 448.445,151.54 448.559,151.432C448.673,151.324 448.832,151.27 449.036,151.27L450.242,151.27L450.242,149.236C450.242,149.008 450.308,148.831 450.44,148.705C450.572,148.579 450.752,148.516 450.98,148.516C451.196,148.516 451.37,148.579 451.502,148.705C451.634,148.831 451.7,149.008 451.7,149.236L451.7,151.27L453.698,151.27C453.89,151.27 454.043,151.324 454.157,151.432C454.271,151.54 454.328,151.684 454.328,151.864C454.328,152.032 454.271,152.167 454.157,152.269C454.043,152.371 453.89,152.422 453.698,152.422L451.7,152.422L451.7,157.012C451.7,157.672 451.835,158.149 452.105,158.443C452.375,158.737 452.78,158.902 453.32,158.938L453.806,158.974Z" style="fill:rgb(99,101,106);fill-rule:nonzero;"/>
        </g>
    </g>
</svg>
