<?xml version="1.0" encoding="UTF-8" standalone="no"?>
<!DOCTYPE svg PUBLIC "-//W3C//DTD SVG 1.1//EN" "http://www.w3.org/Graphics/SVG/1.1/DTD/svg11.dtd">
<svg width="100%" height="100%" viewBox="0 0 8 102" version="1.1" xmlns="http://www.w3.org/2000/svg" xmlns:xlink="http://www.w3.org/1999/xlink" xml:space="preserve" xmlns:serif="http://www.serif.com/" style="fill-rule:evenodd;clip-rule:evenodd;stroke-linejoin:round;stroke-miterlimit:1.41421;">
    <g transform="matrix(1,0,0,1,-65,-533)">
        <g transform="matrix(1,0,0,1,-811.329,307.747)">
            <g transform="matrix(1,0,0,1,365.963,-623.023)">
                <path d="M518.364,852.455C518.364,854.526 516.685,856.205 514.614,856.205C512.542,856.205 510.864,854.526 510.864,852.455C510.864,850.384 512.542,848.705 514.614,848.705C516.685,848.705 518.364,850.384 518.364,852.455Z" style="fill:rgb(13,182,163);fill-rule:nonzero;"/>
            </g>
            <g transform="matrix(1,0,0,1,365.963,-529.434)">
                <path d="M518.364,852.455C518.364,854.526 516.685,856.205 514.614,856.205C512.542,856.205 510.864,854.526 510.864,852.455C510.864,850.384 512.542,848.705 514.614,848.705C516.685,848.705 518.364,850.384 518.364,852.455Z" style="fill:rgb(13,182,163);fill-rule:nonzero;"/>
            </g>
        </g>
    </g>
</svg>
