<?xml version="1.0" encoding="UTF-8" standalone="no"?>
<!DOCTYPE svg PUBLIC "-//W3C//DTD SVG 1.1//EN" "http://www.w3.org/Graphics/SVG/1.1/DTD/svg11.dtd">
<svg width="100%" height="100%" viewBox="0 0 207 55" version="1.1" xmlns="http://www.w3.org/2000/svg" xmlns:xlink="http://www.w3.org/1999/xlink" xml:space="preserve" xmlns:serif="http://www.serif.com/" style="fill-rule:evenodd;clip-rule:evenodd;stroke-linejoin:round;stroke-miterlimit:1.41421;">
    <g transform="matrix(1,0,0,1,-904,-505)">
        <g transform="matrix(1,0,0,1,763.527,356.878)">
            <path d="M153.002,160.164C152.202,160.164 151.436,160.044 150.706,159.804C149.975,159.564 149.391,159.241 148.954,158.836C148.794,158.687 148.714,158.5 148.714,158.276C148.714,158.127 148.756,157.996 148.842,157.884C148.927,157.772 149.028,157.716 149.146,157.716C149.284,157.716 149.434,157.775 149.594,157.892C150.586,158.66 151.716,159.044 152.986,159.044C153.903,159.044 154.607,158.868 155.098,158.516C155.588,158.164 155.834,157.663 155.834,157.012C155.834,156.639 155.716,156.337 155.482,156.108C155.247,155.879 154.938,155.695 154.554,155.556C154.17,155.417 153.652,155.273 153.002,155.124C152.127,154.921 151.41,154.708 150.85,154.484C150.29,154.26 149.836,153.94 149.49,153.524C149.143,153.108 148.97,152.564 148.97,151.892C148.97,151.252 149.143,150.684 149.49,150.188C149.836,149.692 150.322,149.308 150.946,149.036C151.57,148.764 152.282,148.628 153.082,148.628C153.828,148.628 154.524,148.743 155.17,148.972C155.815,149.201 156.356,149.529 156.794,149.956C156.964,150.127 157.05,150.313 157.05,150.516C157.05,150.665 157.007,150.796 156.922,150.908C156.836,151.02 156.735,151.076 156.618,151.076C156.5,151.076 156.346,151.017 156.154,150.9C155.631,150.473 155.146,150.175 154.698,150.004C154.25,149.833 153.711,149.748 153.082,149.748C152.196,149.748 151.508,149.932 151.018,150.3C150.527,150.668 150.282,151.183 150.282,151.844C150.282,152.409 150.498,152.833 150.93,153.116C151.362,153.399 152.026,153.647 152.922,153.86C153.892,154.095 154.655,154.311 155.21,154.508C155.764,154.705 156.226,155.001 156.594,155.396C156.962,155.791 157.146,156.319 157.146,156.98C157.146,157.609 156.972,158.164 156.626,158.644C156.279,159.124 155.791,159.497 155.162,159.764C154.532,160.031 153.812,160.164 153.002,160.164Z" style="fill:rgb(99,101,106);fill-rule:nonzero;"/>
            <path d="M162.314,160.148C161.578,160.148 160.93,159.983 160.37,159.652C159.81,159.321 159.378,158.849 159.074,158.236C158.77,157.623 158.618,156.911 158.618,156.1C158.618,155.289 158.77,154.577 159.074,153.964C159.378,153.351 159.81,152.879 160.37,152.548C160.93,152.217 161.578,152.052 162.314,152.052C163.05,152.052 163.7,152.217 164.266,152.548C164.831,152.879 165.266,153.351 165.57,153.964C165.874,154.577 166.026,155.289 166.026,156.1C166.026,156.911 165.874,157.623 165.57,158.236C165.266,158.849 164.831,159.321 164.266,159.652C163.7,159.983 163.05,160.148 162.314,160.148ZM162.314,159.076C163.082,159.076 163.671,158.823 164.082,158.316C164.492,157.809 164.698,157.071 164.698,156.1C164.698,155.151 164.49,154.417 164.074,153.9C163.658,153.383 163.071,153.124 162.314,153.124C161.556,153.124 160.97,153.383 160.554,153.9C160.138,154.417 159.93,155.151 159.93,156.1C159.93,157.06 160.135,157.796 160.546,158.308C160.956,158.82 161.546,159.076 162.314,159.076Z" style="fill:rgb(99,101,106);fill-rule:nonzero;"/>
            <path d="M171.882,152.052C173.748,152.052 174.682,153.081 174.682,155.14L174.682,159.476C174.682,159.679 174.626,159.836 174.514,159.948C174.402,160.06 174.244,160.116 174.042,160.116C173.839,160.116 173.679,160.06 173.562,159.948C173.444,159.836 173.386,159.679 173.386,159.476L173.386,155.22C173.386,154.495 173.244,153.967 172.962,153.636C172.679,153.305 172.228,153.14 171.61,153.14C170.895,153.14 170.324,153.359 169.898,153.796C169.471,154.233 169.258,154.825 169.258,155.572L169.258,159.476C169.258,159.679 169.202,159.836 169.09,159.948C168.978,160.06 168.82,160.116 168.618,160.116C168.415,160.116 168.255,160.06 168.138,159.948C168.02,159.836 167.962,159.679 167.962,159.476L167.962,152.724C167.962,152.532 168.02,152.377 168.138,152.26C168.255,152.143 168.415,152.084 168.618,152.084C168.81,152.084 168.962,152.143 169.074,152.26C169.186,152.377 169.242,152.527 169.242,152.708L169.242,153.524C169.498,153.044 169.855,152.679 170.314,152.428C170.772,152.177 171.295,152.052 171.882,152.052Z" style="fill:rgb(99,101,106);fill-rule:nonzero;"/>
            <path d="M177.706,160.116C177.514,160.116 177.356,160.06 177.234,159.948C177.111,159.836 177.05,159.679 177.05,159.476L177.05,152.724C177.05,152.521 177.111,152.364 177.234,152.252C177.356,152.14 177.514,152.084 177.706,152.084C177.898,152.084 178.052,152.14 178.17,152.252C178.287,152.364 178.346,152.521 178.346,152.724L178.346,159.476C178.346,159.689 178.287,159.849 178.17,159.956C178.052,160.063 177.898,160.116 177.706,160.116ZM177.706,150.404C177.45,150.404 177.242,150.329 177.082,150.18C176.922,150.031 176.842,149.833 176.842,149.588C176.842,149.353 176.922,149.161 177.082,149.012C177.242,148.863 177.45,148.788 177.706,148.788C177.962,148.788 178.17,148.863 178.33,149.012C178.49,149.161 178.57,149.353 178.57,149.588C178.57,149.833 178.49,150.031 178.33,150.18C178.17,150.329 177.962,150.404 177.706,150.404Z" style="fill:rgb(99,101,106);fill-rule:nonzero;"/>
            <path d="M183.978,160.148C183.252,160.148 182.61,159.983 182.05,159.652C181.49,159.321 181.058,158.852 180.754,158.244C180.45,157.636 180.298,156.932 180.298,156.132C180.298,155.332 180.455,154.623 180.77,154.004C181.084,153.385 181.524,152.905 182.09,152.564C182.655,152.223 183.306,152.052 184.042,152.052C184.447,152.052 184.85,152.108 185.25,152.22C185.65,152.332 185.999,152.495 186.298,152.708C186.49,152.836 186.626,152.961 186.706,153.084C186.786,153.207 186.826,153.343 186.826,153.492C186.826,153.641 186.786,153.764 186.706,153.86C186.626,153.956 186.522,154.004 186.394,154.004C186.319,154.004 186.239,153.983 186.154,153.94C186.068,153.897 185.996,153.855 185.938,153.812C185.879,153.769 185.839,153.743 185.818,153.732C185.54,153.551 185.276,153.407 185.026,153.3C184.775,153.193 184.468,153.14 184.106,153.14C183.327,153.14 182.722,153.404 182.29,153.932C181.858,154.46 181.642,155.193 181.642,156.132C181.642,157.071 181.858,157.796 182.29,158.308C182.722,158.82 183.327,159.076 184.106,159.076C184.468,159.076 184.78,159.023 185.042,158.916C185.303,158.809 185.567,158.665 185.834,158.484C185.951,158.409 186.063,158.345 186.17,158.292C186.276,158.239 186.367,158.212 186.442,158.212C186.559,158.212 186.658,158.26 186.738,158.356C186.818,158.452 186.858,158.575 186.858,158.724C186.858,158.863 186.82,158.988 186.746,159.1C186.671,159.212 186.532,159.337 186.33,159.476C186.031,159.679 185.671,159.841 185.25,159.964C184.828,160.087 184.404,160.148 183.978,160.148Z" style="fill:rgb(99,101,106);fill-rule:nonzero;"/>
            <path d="M203.034,149.076C203.076,148.937 203.151,148.833 203.258,148.764C203.364,148.695 203.482,148.66 203.61,148.66C203.78,148.66 203.927,148.711 204.05,148.812C204.172,148.913 204.234,149.049 204.234,149.22C204.234,149.295 204.218,149.38 204.186,149.476L200.57,159.668C200.516,159.817 200.426,159.932 200.298,160.012C200.17,160.092 200.026,160.132 199.866,160.132C199.716,160.132 199.578,160.092 199.45,160.012C199.322,159.932 199.231,159.817 199.178,159.668L196.042,150.804L192.874,159.668C192.82,159.817 192.73,159.932 192.602,160.012C192.474,160.092 192.335,160.132 192.186,160.132C192.036,160.132 191.898,160.092 191.77,160.012C191.642,159.932 191.551,159.817 191.498,159.668L187.866,149.476C187.834,149.391 187.818,149.311 187.818,149.236C187.818,149.065 187.884,148.927 188.018,148.82C188.151,148.713 188.303,148.66 188.474,148.66C188.602,148.66 188.722,148.695 188.834,148.764C188.946,148.833 189.023,148.937 189.066,149.076L192.218,158.164L195.418,149.172C195.471,149.012 195.556,148.892 195.674,148.812C195.791,148.732 195.919,148.692 196.058,148.692C196.196,148.692 196.324,148.735 196.442,148.82C196.559,148.905 196.644,149.028 196.698,149.188L199.85,158.196L203.034,149.076Z" style="fill:rgb(99,101,106);fill-rule:nonzero;"/>
            <path d="M208.33,152.052C210.282,152.052 211.258,153.076 211.258,155.124L211.258,159.476C211.258,159.668 211.202,159.823 211.09,159.94C210.978,160.057 210.826,160.116 210.634,160.116C210.442,160.116 210.287,160.057 210.17,159.94C210.052,159.823 209.994,159.668 209.994,159.476L209.994,158.708C209.791,159.167 209.482,159.521 209.066,159.772C208.65,160.023 208.17,160.148 207.626,160.148C207.124,160.148 206.663,160.047 206.242,159.844C205.82,159.641 205.487,159.359 205.242,158.996C204.996,158.633 204.874,158.233 204.874,157.796C204.874,157.209 205.023,156.753 205.322,156.428C205.62,156.103 206.111,155.868 206.794,155.724C207.476,155.58 208.426,155.508 209.642,155.508L209.994,155.508L209.994,154.98C209.994,154.34 209.863,153.871 209.602,153.572C209.34,153.273 208.916,153.124 208.33,153.124C207.604,153.124 206.868,153.321 206.122,153.716C205.834,153.897 205.631,153.988 205.514,153.988C205.386,153.988 205.279,153.94 205.194,153.844C205.108,153.748 205.066,153.625 205.066,153.476C205.066,153.327 205.111,153.196 205.202,153.084C205.292,152.972 205.439,152.857 205.642,152.74C206.015,152.527 206.439,152.359 206.914,152.236C207.388,152.113 207.86,152.052 208.33,152.052ZM207.802,159.124C208.442,159.124 208.967,158.908 209.378,158.476C209.788,158.044 209.994,157.487 209.994,156.804L209.994,156.34L209.706,156.34C208.767,156.34 208.052,156.38 207.562,156.46C207.071,156.54 206.722,156.673 206.514,156.86C206.306,157.047 206.202,157.321 206.202,157.684C206.202,158.1 206.354,158.444 206.658,158.716C206.962,158.988 207.343,159.124 207.802,159.124Z" style="fill:rgb(99,101,106);fill-rule:nonzero;"/>
            <path d="M214.282,160.116C214.09,160.116 213.932,160.06 213.81,159.948C213.687,159.836 213.626,159.679 213.626,159.476L213.626,149.316C213.626,149.113 213.687,148.956 213.81,148.844C213.932,148.732 214.09,148.676 214.282,148.676C214.463,148.676 214.615,148.732 214.738,148.844C214.86,148.956 214.922,149.113 214.922,149.316L214.922,159.476C214.922,159.679 214.86,159.836 214.738,159.948C214.615,160.06 214.463,160.116 214.282,160.116Z" style="fill:rgb(99,101,106);fill-rule:nonzero;"/>
            <path d="M217.994,160.116C217.802,160.116 217.644,160.06 217.522,159.948C217.399,159.836 217.338,159.679 217.338,159.476L217.338,149.316C217.338,149.113 217.399,148.956 217.522,148.844C217.644,148.732 217.802,148.676 217.994,148.676C218.175,148.676 218.327,148.732 218.45,148.844C218.572,148.956 218.634,149.113 218.634,149.316L218.634,159.476C218.634,159.679 218.572,159.836 218.45,159.948C218.327,160.06 218.175,160.116 217.994,160.116Z" style="fill:rgb(99,101,106);fill-rule:nonzero;"/>
            <path d="M226.042,160.036C225.839,160.036 225.676,159.977 225.554,159.86C225.431,159.743 225.37,159.588 225.37,159.396L225.37,149.396C225.37,149.204 225.431,149.049 225.554,148.932C225.676,148.815 225.839,148.756 226.042,148.756L232.026,148.756C232.218,148.756 232.367,148.804 232.474,148.9C232.58,148.996 232.634,149.129 232.634,149.3C232.634,149.471 232.58,149.604 232.474,149.7C232.367,149.796 232.218,149.844 232.026,149.844L226.666,149.844L226.666,153.764L231.706,153.764C231.898,153.764 232.047,153.812 232.154,153.908C232.26,154.004 232.314,154.137 232.314,154.308C232.314,154.479 232.26,154.612 232.154,154.708C232.047,154.804 231.898,154.852 231.706,154.852L226.666,154.852L226.666,158.948L232.026,158.948C232.218,158.948 232.367,158.993 232.474,159.084C232.58,159.175 232.634,159.311 232.634,159.492C232.634,159.663 232.58,159.796 232.474,159.892C232.367,159.988 232.218,160.036 232.026,160.036L226.042,160.036Z" style="fill:rgb(99,101,106);fill-rule:nonzero;"/>
            <path d="M238.41,152.052C240.276,152.052 241.21,153.081 241.21,155.14L241.21,159.476C241.21,159.679 241.154,159.836 241.042,159.948C240.93,160.06 240.772,160.116 240.57,160.116C240.367,160.116 240.207,160.06 240.09,159.948C239.972,159.836 239.914,159.679 239.914,159.476L239.914,155.22C239.914,154.495 239.772,153.967 239.49,153.636C239.207,153.305 238.756,153.14 238.138,153.14C237.423,153.14 236.852,153.359 236.426,153.796C235.999,154.233 235.786,154.825 235.786,155.572L235.786,159.476C235.786,159.679 235.73,159.836 235.618,159.948C235.506,160.06 235.348,160.116 235.146,160.116C234.943,160.116 234.783,160.06 234.666,159.948C234.548,159.836 234.49,159.679 234.49,159.476L234.49,152.724C234.49,152.532 234.548,152.377 234.666,152.26C234.783,152.143 234.943,152.084 235.146,152.084C235.338,152.084 235.49,152.143 235.602,152.26C235.714,152.377 235.77,152.527 235.77,152.708L235.77,153.524C236.026,153.044 236.383,152.679 236.842,152.428C237.3,152.177 237.823,152.052 238.41,152.052Z" style="fill:rgb(99,101,106);fill-rule:nonzero;"/>
            <path d="M247.018,149.78C246.452,149.823 246.026,150.001 245.738,150.316C245.45,150.631 245.306,151.103 245.306,151.732L245.306,152.244L247.082,152.244C247.263,152.244 247.402,152.292 247.498,152.388C247.594,152.484 247.642,152.612 247.642,152.772C247.642,152.932 247.594,153.055 247.498,153.14C247.402,153.225 247.263,153.268 247.082,153.268L245.306,153.268L245.306,159.476C245.306,159.679 245.244,159.836 245.122,159.948C244.999,160.06 244.847,160.116 244.666,160.116C244.474,160.116 244.316,160.06 244.194,159.948C244.071,159.836 244.01,159.679 244.01,159.476L244.01,153.268L242.938,153.268C242.756,153.268 242.615,153.223 242.514,153.132C242.412,153.041 242.362,152.921 242.362,152.772C242.362,152.612 242.412,152.484 242.514,152.388C242.615,152.292 242.756,152.244 242.938,152.244L244.01,152.244L244.01,151.956C244.01,150.996 244.25,150.241 244.73,149.692C245.21,149.143 245.898,148.836 246.794,148.772L247.21,148.74C247.487,148.719 247.687,148.745 247.81,148.82C247.932,148.895 247.994,149.028 247.994,149.22C247.994,149.529 247.807,149.705 247.434,149.748L247.018,149.78Z" style="fill:rgb(99,101,106);fill-rule:nonzero;"/>
            <path d="M251.978,160.148C251.242,160.148 250.594,159.983 250.034,159.652C249.474,159.321 249.042,158.849 248.738,158.236C248.434,157.623 248.282,156.911 248.282,156.1C248.282,155.289 248.434,154.577 248.738,153.964C249.042,153.351 249.474,152.879 250.034,152.548C250.594,152.217 251.242,152.052 251.978,152.052C252.714,152.052 253.364,152.217 253.93,152.548C254.495,152.879 254.93,153.351 255.234,153.964C255.538,154.577 255.69,155.289 255.69,156.1C255.69,156.911 255.538,157.623 255.234,158.236C254.93,158.849 254.495,159.321 253.93,159.652C253.364,159.983 252.714,160.148 251.978,160.148ZM251.978,159.076C252.746,159.076 253.335,158.823 253.746,158.316C254.156,157.809 254.362,157.071 254.362,156.1C254.362,155.151 254.154,154.417 253.738,153.9C253.322,153.383 252.735,153.124 251.978,153.124C251.22,153.124 250.634,153.383 250.218,153.9C249.802,154.417 249.594,155.151 249.594,156.1C249.594,157.06 249.799,157.796 250.21,158.308C250.62,158.82 251.21,159.076 251.978,159.076Z" style="fill:rgb(99,101,106);fill-rule:nonzero;"/>
            <path d="M261.482,152.084C261.93,152.052 262.154,152.233 262.154,152.628C262.154,152.799 262.106,152.935 262.01,153.036C261.914,153.137 261.748,153.199 261.514,153.22L261.034,153.268C260.319,153.332 259.788,153.585 259.442,154.028C259.095,154.471 258.922,154.991 258.922,155.588L258.922,159.476C258.922,159.689 258.863,159.849 258.746,159.956C258.628,160.063 258.474,160.116 258.282,160.116C258.09,160.116 257.932,160.06 257.81,159.948C257.687,159.836 257.626,159.679 257.626,159.476L257.626,152.724C257.626,152.521 257.69,152.364 257.818,152.252C257.946,152.14 258.1,152.084 258.282,152.084C258.452,152.084 258.596,152.14 258.714,152.252C258.831,152.364 258.89,152.516 258.89,152.708L258.89,153.604C259.114,153.135 259.431,152.777 259.842,152.532C260.252,152.287 260.724,152.143 261.258,152.1L261.482,152.084Z" style="fill:rgb(99,101,106);fill-rule:nonzero;"/>
            <path d="M266.33,160.148C265.604,160.148 264.962,159.983 264.402,159.652C263.842,159.321 263.41,158.852 263.106,158.244C262.802,157.636 262.65,156.932 262.65,156.132C262.65,155.332 262.807,154.623 263.122,154.004C263.436,153.385 263.876,152.905 264.442,152.564C265.007,152.223 265.658,152.052 266.394,152.052C266.799,152.052 267.202,152.108 267.602,152.22C268.002,152.332 268.351,152.495 268.65,152.708C268.842,152.836 268.978,152.961 269.058,153.084C269.138,153.207 269.178,153.343 269.178,153.492C269.178,153.641 269.138,153.764 269.058,153.86C268.978,153.956 268.874,154.004 268.746,154.004C268.671,154.004 268.591,153.983 268.506,153.94C268.42,153.897 268.348,153.855 268.29,153.812C268.231,153.769 268.191,153.743 268.17,153.732C267.892,153.551 267.628,153.407 267.378,153.3C267.127,153.193 266.82,153.14 266.458,153.14C265.679,153.14 265.074,153.404 264.642,153.932C264.21,154.46 263.994,155.193 263.994,156.132C263.994,157.071 264.21,157.796 264.642,158.308C265.074,158.82 265.679,159.076 266.458,159.076C266.82,159.076 267.132,159.023 267.394,158.916C267.655,158.809 267.919,158.665 268.186,158.484C268.303,158.409 268.415,158.345 268.522,158.292C268.628,158.239 268.719,158.212 268.794,158.212C268.911,158.212 269.01,158.26 269.09,158.356C269.17,158.452 269.21,158.575 269.21,158.724C269.21,158.863 269.172,158.988 269.098,159.1C269.023,159.212 268.884,159.337 268.682,159.476C268.383,159.679 268.023,159.841 267.602,159.964C267.18,160.087 266.756,160.148 266.33,160.148Z" style="fill:rgb(99,101,106);fill-rule:nonzero;"/>
            <path d="M276.81,158.228C276.927,158.228 277.028,158.276 277.114,158.372C277.199,158.468 277.242,158.591 277.242,158.74C277.242,159.007 277.055,159.252 276.682,159.476C276.298,159.7 275.892,159.868 275.466,159.98C275.039,160.092 274.623,160.148 274.218,160.148C273.012,160.148 272.06,159.791 271.362,159.076C270.663,158.361 270.314,157.375 270.314,156.116C270.314,155.316 270.468,154.609 270.778,153.996C271.087,153.383 271.522,152.905 272.082,152.564C272.642,152.223 273.279,152.052 273.994,152.052C275.007,152.052 275.812,152.383 276.41,153.044C277.007,153.705 277.306,154.601 277.306,155.732C277.306,155.945 277.263,156.1 277.178,156.196C277.092,156.292 276.954,156.34 276.762,156.34L271.61,156.34C271.706,158.175 272.575,159.092 274.218,159.092C274.634,159.092 274.991,159.036 275.29,158.924C275.588,158.812 275.908,158.66 276.25,158.468C276.527,158.308 276.714,158.228 276.81,158.228ZM274.01,153.06C273.327,153.06 272.78,153.273 272.37,153.7C271.959,154.127 271.716,154.729 271.642,155.508L276.17,155.508C276.148,154.719 275.951,154.113 275.578,153.692C275.204,153.271 274.682,153.06 274.01,153.06Z" style="fill:rgb(99,101,106);fill-rule:nonzero;"/>
            <path d="M285.466,148.676C285.668,148.676 285.828,148.735 285.946,148.852C286.063,148.969 286.122,149.119 286.122,149.3L286.122,159.476C286.122,159.668 286.063,159.823 285.946,159.94C285.828,160.057 285.668,160.116 285.466,160.116C285.263,160.116 285.106,160.057 284.994,159.94C284.882,159.823 284.826,159.668 284.826,159.476L284.826,158.612C284.591,159.103 284.247,159.481 283.794,159.748C283.34,160.015 282.81,160.148 282.202,160.148C281.519,160.148 280.916,159.977 280.394,159.636C279.871,159.295 279.466,158.817 279.178,158.204C278.89,157.591 278.746,156.879 278.746,156.068C278.746,155.268 278.89,154.564 279.178,153.956C279.466,153.348 279.871,152.879 280.394,152.548C280.916,152.217 281.519,152.052 282.202,152.052C282.81,152.052 283.34,152.185 283.794,152.452C284.247,152.719 284.591,153.097 284.826,153.588L284.826,149.3C284.826,149.108 284.882,148.956 284.994,148.844C285.106,148.732 285.263,148.676 285.466,148.676ZM282.458,159.076C283.215,159.076 283.799,158.817 284.21,158.3C284.62,157.783 284.826,157.049 284.826,156.1C284.826,155.151 284.62,154.42 284.21,153.908C283.799,153.396 283.215,153.14 282.458,153.14C281.7,153.14 281.111,153.396 280.69,153.908C280.268,154.42 280.058,155.14 280.058,156.068C280.058,157.017 280.268,157.756 280.69,158.284C281.111,158.812 281.7,159.076 282.458,159.076Z" style="fill:rgb(99,101,106);fill-rule:nonzero;"/>
            <path d="M297.626,160.164C296.559,160.164 295.636,159.932 294.858,159.468C294.079,159.004 293.479,158.337 293.058,157.468C292.636,156.599 292.426,155.572 292.426,154.388C292.426,153.215 292.636,152.193 293.058,151.324C293.479,150.455 294.079,149.788 294.858,149.324C295.636,148.86 296.559,148.628 297.626,148.628C298.34,148.628 299.015,148.743 299.65,148.972C300.284,149.201 300.836,149.529 301.306,149.956C301.476,150.116 301.562,150.303 301.562,150.516C301.562,150.665 301.519,150.796 301.434,150.908C301.348,151.02 301.247,151.076 301.13,151.076C301.002,151.076 300.847,151.017 300.666,150.9C300.122,150.473 299.628,150.175 299.186,150.004C298.743,149.833 298.234,149.748 297.658,149.748C296.42,149.748 295.468,150.151 294.802,150.956C294.135,151.761 293.802,152.905 293.802,154.388C293.802,155.881 294.135,157.031 294.802,157.836C295.468,158.641 296.42,159.044 297.658,159.044C298.223,159.044 298.73,158.959 299.178,158.788C299.626,158.617 300.122,158.319 300.666,157.892C300.847,157.775 301.002,157.716 301.13,157.716C301.247,157.716 301.348,157.769 301.434,157.876C301.519,157.983 301.562,158.116 301.562,158.276C301.562,158.489 301.476,158.676 301.306,158.836C300.836,159.263 300.284,159.591 299.65,159.82C299.015,160.049 298.34,160.164 297.626,160.164Z" style="fill:rgb(99,101,106);fill-rule:nonzero;"/>
            <path d="M304.138,160.116C303.946,160.116 303.788,160.06 303.666,159.948C303.543,159.836 303.482,159.679 303.482,159.476L303.482,149.316C303.482,149.113 303.543,148.956 303.666,148.844C303.788,148.732 303.946,148.676 304.138,148.676C304.319,148.676 304.471,148.732 304.594,148.844C304.716,148.956 304.778,149.113 304.778,149.316L304.778,159.476C304.778,159.679 304.716,159.836 304.594,159.948C304.471,160.06 304.319,160.116 304.138,160.116Z" style="fill:rgb(99,101,106);fill-rule:nonzero;"/>
            <path d="M307.85,160.116C307.658,160.116 307.5,160.06 307.378,159.948C307.255,159.836 307.194,159.679 307.194,159.476L307.194,152.724C307.194,152.521 307.255,152.364 307.378,152.252C307.5,152.14 307.658,152.084 307.85,152.084C308.042,152.084 308.196,152.14 308.314,152.252C308.431,152.364 308.49,152.521 308.49,152.724L308.49,159.476C308.49,159.689 308.431,159.849 308.314,159.956C308.196,160.063 308.042,160.116 307.85,160.116ZM307.85,150.404C307.594,150.404 307.386,150.329 307.226,150.18C307.066,150.031 306.986,149.833 306.986,149.588C306.986,149.353 307.066,149.161 307.226,149.012C307.386,148.863 307.594,148.788 307.85,148.788C308.106,148.788 308.314,148.863 308.474,149.012C308.634,149.161 308.714,149.353 308.714,149.588C308.714,149.833 308.634,150.031 308.474,150.18C308.314,150.329 308.106,150.404 307.85,150.404Z" style="fill:rgb(99,101,106);fill-rule:nonzero;"/>
            <path d="M316.938,158.228C317.055,158.228 317.156,158.276 317.242,158.372C317.327,158.468 317.37,158.591 317.37,158.74C317.37,159.007 317.183,159.252 316.81,159.476C316.426,159.7 316.02,159.868 315.594,159.98C315.167,160.092 314.751,160.148 314.346,160.148C313.14,160.148 312.188,159.791 311.49,159.076C310.791,158.361 310.442,157.375 310.442,156.116C310.442,155.316 310.596,154.609 310.906,153.996C311.215,153.383 311.65,152.905 312.21,152.564C312.77,152.223 313.407,152.052 314.122,152.052C315.135,152.052 315.94,152.383 316.538,153.044C317.135,153.705 317.434,154.601 317.434,155.732C317.434,155.945 317.391,156.1 317.306,156.196C317.22,156.292 317.082,156.34 316.89,156.34L311.738,156.34C311.834,158.175 312.703,159.092 314.346,159.092C314.762,159.092 315.119,159.036 315.418,158.924C315.716,158.812 316.036,158.66 316.378,158.468C316.655,158.308 316.842,158.228 316.938,158.228ZM314.138,153.06C313.455,153.06 312.908,153.273 312.498,153.7C312.087,154.127 311.844,154.729 311.77,155.508L316.298,155.508C316.276,154.719 316.079,154.113 315.706,153.692C315.332,153.271 314.81,153.06 314.138,153.06Z" style="fill:rgb(99,101,106);fill-rule:nonzero;"/>
            <path d="M323.258,152.052C325.124,152.052 326.058,153.081 326.058,155.14L326.058,159.476C326.058,159.679 326.002,159.836 325.89,159.948C325.778,160.06 325.62,160.116 325.418,160.116C325.215,160.116 325.055,160.06 324.938,159.948C324.82,159.836 324.762,159.679 324.762,159.476L324.762,155.22C324.762,154.495 324.62,153.967 324.338,153.636C324.055,153.305 323.604,153.14 322.986,153.14C322.271,153.14 321.7,153.359 321.274,153.796C320.847,154.233 320.634,154.825 320.634,155.572L320.634,159.476C320.634,159.679 320.578,159.836 320.466,159.948C320.354,160.06 320.196,160.116 319.994,160.116C319.791,160.116 319.631,160.06 319.514,159.948C319.396,159.836 319.338,159.679 319.338,159.476L319.338,152.724C319.338,152.532 319.396,152.377 319.514,152.26C319.631,152.143 319.791,152.084 319.994,152.084C320.186,152.084 320.338,152.143 320.45,152.26C320.562,152.377 320.618,152.527 320.618,152.708L320.618,153.524C320.874,153.044 321.231,152.679 321.69,152.428C322.148,152.177 322.671,152.052 323.258,152.052Z" style="fill:rgb(99,101,106);fill-rule:nonzero;"/>
            <path d="M332.026,159.092C332.399,159.124 332.586,159.295 332.586,159.604C332.586,159.785 332.519,159.921 332.386,160.012C332.252,160.103 332.052,160.137 331.786,160.116L331.354,160.084C330.5,160.02 329.871,159.764 329.466,159.316C329.06,158.868 328.858,158.191 328.858,157.284L328.858,153.268L327.786,153.268C327.604,153.268 327.463,153.223 327.362,153.132C327.26,153.041 327.21,152.921 327.21,152.772C327.21,152.612 327.26,152.484 327.362,152.388C327.463,152.292 327.604,152.244 327.786,152.244L328.858,152.244L328.858,150.436C328.858,150.233 328.916,150.076 329.034,149.964C329.151,149.852 329.311,149.796 329.514,149.796C329.706,149.796 329.86,149.852 329.978,149.964C330.095,150.076 330.154,150.233 330.154,150.436L330.154,152.244L331.93,152.244C332.1,152.244 332.236,152.292 332.338,152.388C332.439,152.484 332.49,152.612 332.49,152.772C332.49,152.921 332.439,153.041 332.338,153.132C332.236,153.223 332.1,153.268 331.93,153.268L330.154,153.268L330.154,157.348C330.154,157.935 330.274,158.359 330.514,158.62C330.754,158.881 331.114,159.028 331.594,159.06L332.026,159.092Z" style="fill:rgb(99,101,106);fill-rule:nonzero;"/>
            <path d="M336.49,160.148C335.999,160.148 335.532,160.089 335.09,159.972C334.647,159.855 334.255,159.689 333.914,159.476C333.722,159.348 333.586,159.228 333.506,159.116C333.426,159.004 333.386,158.868 333.386,158.708C333.386,158.569 333.426,158.455 333.506,158.364C333.586,158.273 333.69,158.228 333.818,158.228C333.946,158.228 334.132,158.308 334.378,158.468C334.698,158.66 335.015,158.812 335.33,158.924C335.644,159.036 336.036,159.092 336.506,159.092C337.082,159.092 337.53,158.991 337.85,158.788C338.17,158.585 338.33,158.292 338.33,157.908C338.33,157.673 338.271,157.484 338.154,157.34C338.036,157.196 337.834,157.068 337.546,156.956C337.258,156.844 336.836,156.729 336.282,156.612C335.343,156.409 334.671,156.137 334.266,155.796C333.86,155.455 333.658,154.991 333.658,154.404C333.658,153.945 333.786,153.54 334.042,153.188C334.298,152.836 334.652,152.559 335.106,152.356C335.559,152.153 336.074,152.052 336.65,152.052C337.066,152.052 337.468,152.108 337.858,152.22C338.247,152.332 338.591,152.489 338.89,152.692C339.252,152.948 339.434,153.215 339.434,153.492C339.434,153.631 339.391,153.748 339.306,153.844C339.22,153.94 339.119,153.988 339.002,153.988C338.874,153.988 338.682,153.897 338.426,153.716C338.127,153.524 337.844,153.375 337.578,153.268C337.311,153.161 336.98,153.108 336.586,153.108C336.084,153.108 335.682,153.22 335.378,153.444C335.074,153.668 334.922,153.967 334.922,154.34C334.922,154.575 334.978,154.764 335.09,154.908C335.202,155.052 335.388,155.18 335.65,155.292C335.911,155.404 336.287,155.513 336.778,155.62C337.503,155.78 338.066,155.956 338.466,156.148C338.866,156.34 339.151,156.575 339.322,156.852C339.492,157.129 339.578,157.481 339.578,157.908C339.578,158.58 339.295,159.121 338.73,159.532C338.164,159.943 337.418,160.148 336.49,160.148Z" style="fill:rgb(99,101,106);fill-rule:nonzero;"/>
            <path d="M151.474,179.284C151.516,179.369 151.538,179.46 151.538,179.556C151.538,179.716 151.476,179.849 151.354,179.956C151.231,180.063 151.084,180.116 150.914,180.116C150.647,180.116 150.46,179.988 150.354,179.732L149.218,177.14L143.186,177.14L142.034,179.732C141.927,179.988 141.74,180.116 141.474,180.116C141.303,180.116 141.154,180.06 141.026,179.948C140.898,179.836 140.834,179.7 140.834,179.54C140.834,179.455 140.855,179.369 140.898,179.284L145.474,169.108C145.538,168.959 145.634,168.847 145.762,168.772C145.89,168.697 146.028,168.66 146.178,168.66C146.338,168.66 146.482,168.7 146.61,168.78C146.738,168.86 146.834,168.969 146.898,169.108L151.474,179.284ZM143.666,176.052L148.738,176.052L146.194,170.308L143.666,176.052Z" style="fill:rgb(99,101,106);fill-rule:nonzero;"/>
            <path d="M157.122,172.052C158.988,172.052 159.922,173.081 159.922,175.14L159.922,179.476C159.922,179.679 159.866,179.836 159.754,179.948C159.642,180.06 159.484,180.116 159.282,180.116C159.079,180.116 158.919,180.06 158.802,179.948C158.684,179.836 158.626,179.679 158.626,179.476L158.626,175.22C158.626,174.495 158.484,173.967 158.202,173.636C157.919,173.305 157.468,173.14 156.85,173.14C156.135,173.14 155.564,173.359 155.138,173.796C154.711,174.233 154.498,174.825 154.498,175.572L154.498,179.476C154.498,179.679 154.442,179.836 154.33,179.948C154.218,180.06 154.06,180.116 153.858,180.116C153.655,180.116 153.495,180.06 153.378,179.948C153.26,179.836 153.202,179.679 153.202,179.476L153.202,172.724C153.202,172.532 153.26,172.377 153.378,172.26C153.495,172.143 153.655,172.084 153.858,172.084C154.05,172.084 154.202,172.143 154.314,172.26C154.426,172.377 154.482,172.527 154.482,172.708L154.482,173.524C154.738,173.044 155.095,172.679 155.554,172.428C156.012,172.177 156.535,172.052 157.122,172.052Z" style="fill:rgb(99,101,106);fill-rule:nonzero;"/>
            <path d="M165.89,179.092C166.263,179.124 166.45,179.295 166.45,179.604C166.45,179.785 166.383,179.921 166.25,180.012C166.116,180.103 165.916,180.137 165.65,180.116L165.218,180.084C164.364,180.02 163.735,179.764 163.33,179.316C162.924,178.868 162.722,178.191 162.722,177.284L162.722,173.268L161.65,173.268C161.468,173.268 161.327,173.223 161.226,173.132C161.124,173.041 161.074,172.921 161.074,172.772C161.074,172.612 161.124,172.484 161.226,172.388C161.327,172.292 161.468,172.244 161.65,172.244L162.722,172.244L162.722,170.436C162.722,170.233 162.78,170.076 162.898,169.964C163.015,169.852 163.175,169.796 163.378,169.796C163.57,169.796 163.724,169.852 163.842,169.964C163.959,170.076 164.018,170.233 164.018,170.436L164.018,172.244L165.794,172.244C165.964,172.244 166.1,172.292 166.202,172.388C166.303,172.484 166.354,172.612 166.354,172.772C166.354,172.921 166.303,173.041 166.202,173.132C166.1,173.223 165.964,173.268 165.794,173.268L164.018,173.268L164.018,177.348C164.018,177.935 164.138,178.359 164.378,178.62C164.618,178.881 164.978,179.028 165.458,179.06L165.89,179.092Z" style="fill:rgb(99,101,106);fill-rule:nonzero;"/>
            <path d="M168.386,180.116C168.194,180.116 168.036,180.06 167.914,179.948C167.791,179.836 167.73,179.679 167.73,179.476L167.73,172.724C167.73,172.521 167.791,172.364 167.914,172.252C168.036,172.14 168.194,172.084 168.386,172.084C168.578,172.084 168.732,172.14 168.85,172.252C168.967,172.364 169.026,172.521 169.026,172.724L169.026,179.476C169.026,179.689 168.967,179.849 168.85,179.956C168.732,180.063 168.578,180.116 168.386,180.116ZM168.386,170.404C168.13,170.404 167.922,170.329 167.762,170.18C167.602,170.031 167.522,169.833 167.522,169.588C167.522,169.353 167.602,169.161 167.762,169.012C167.922,168.863 168.13,168.788 168.386,168.788C168.642,168.788 168.85,168.863 169.01,169.012C169.17,169.161 169.25,169.353 169.25,169.588C169.25,169.833 169.17,170.031 169.01,170.18C168.85,170.329 168.642,170.404 168.386,170.404Z" style="fill:rgb(99,101,106);fill-rule:nonzero;"/>
            <path d="M171.874,176.308C171.682,176.308 171.535,176.26 171.434,176.164C171.332,176.068 171.282,175.94 171.282,175.78C171.282,175.62 171.332,175.489 171.434,175.388C171.535,175.287 171.682,175.236 171.874,175.236L175.394,175.236C175.596,175.236 175.748,175.287 175.85,175.388C175.951,175.489 176.002,175.62 176.002,175.78C176.002,175.94 175.951,176.068 175.85,176.164C175.748,176.26 175.596,176.308 175.394,176.308L171.874,176.308Z" style="fill:rgb(99,101,106);fill-rule:nonzero;"/>
            <path d="M186.05,169.012C186.103,168.895 186.18,168.804 186.282,168.74C186.383,168.676 186.492,168.644 186.61,168.644C186.78,168.644 186.932,168.7 187.066,168.812C187.199,168.924 187.266,169.06 187.266,169.22C187.266,169.305 187.244,169.391 187.202,169.476L182.61,179.684C182.546,179.823 182.45,179.929 182.322,180.004C182.194,180.079 182.055,180.116 181.906,180.116C181.756,180.116 181.618,180.079 181.49,180.004C181.362,179.929 181.266,179.823 181.202,179.684L176.626,169.476C176.594,169.391 176.578,169.311 176.578,169.236C176.578,169.065 176.647,168.924 176.786,168.812C176.924,168.7 177.079,168.644 177.25,168.644C177.506,168.644 177.692,168.767 177.81,169.012L181.938,178.34L186.05,169.012Z" style="fill:rgb(99,101,106);fill-rule:nonzero;"/>
            <path d="M189.298,180.116C189.106,180.116 188.948,180.06 188.826,179.948C188.703,179.836 188.642,179.679 188.642,179.476L188.642,172.724C188.642,172.521 188.703,172.364 188.826,172.252C188.948,172.14 189.106,172.084 189.298,172.084C189.49,172.084 189.644,172.14 189.762,172.252C189.879,172.364 189.938,172.521 189.938,172.724L189.938,179.476C189.938,179.689 189.879,179.849 189.762,179.956C189.644,180.063 189.49,180.116 189.298,180.116ZM189.298,170.404C189.042,170.404 188.834,170.329 188.674,170.18C188.514,170.031 188.434,169.833 188.434,169.588C188.434,169.353 188.514,169.161 188.674,169.012C188.834,168.863 189.042,168.788 189.298,168.788C189.554,168.788 189.762,168.863 189.922,169.012C190.082,169.161 190.162,169.353 190.162,169.588C190.162,169.833 190.082,170.031 189.922,170.18C189.762,170.329 189.554,170.404 189.298,170.404Z" style="fill:rgb(99,101,106);fill-rule:nonzero;"/>
            <path d="M196.21,172.084C196.658,172.052 196.882,172.233 196.882,172.628C196.882,172.799 196.834,172.935 196.738,173.036C196.642,173.137 196.476,173.199 196.242,173.22L195.762,173.268C195.047,173.332 194.516,173.585 194.17,174.028C193.823,174.471 193.65,174.991 193.65,175.588L193.65,179.476C193.65,179.689 193.591,179.849 193.474,179.956C193.356,180.063 193.202,180.116 193.01,180.116C192.818,180.116 192.66,180.06 192.538,179.948C192.415,179.836 192.354,179.679 192.354,179.476L192.354,172.724C192.354,172.521 192.418,172.364 192.546,172.252C192.674,172.14 192.828,172.084 193.01,172.084C193.18,172.084 193.324,172.14 193.442,172.252C193.559,172.364 193.618,172.516 193.618,172.708L193.618,173.604C193.842,173.135 194.159,172.777 194.57,172.532C194.98,172.287 195.452,172.143 195.986,172.1L196.21,172.084Z" style="fill:rgb(99,101,106);fill-rule:nonzero;"/>
            <path d="M203.922,172.084C204.124,172.084 204.282,172.143 204.394,172.26C204.506,172.377 204.562,172.532 204.562,172.724L204.562,179.492C204.562,179.673 204.506,179.823 204.394,179.94C204.282,180.057 204.124,180.116 203.922,180.116C203.73,180.116 203.578,180.06 203.466,179.948C203.354,179.836 203.298,179.689 203.298,179.508L203.298,178.708C203.052,179.177 202.708,179.535 202.266,179.78C201.823,180.025 201.324,180.148 200.77,180.148C199.842,180.148 199.143,179.889 198.674,179.372C198.204,178.855 197.97,178.089 197.97,177.076L197.97,172.724C197.97,172.532 198.028,172.377 198.146,172.26C198.263,172.143 198.423,172.084 198.626,172.084C198.828,172.084 198.986,172.143 199.098,172.26C199.21,172.377 199.266,172.532 199.266,172.724L199.266,177.044C199.266,177.737 199.404,178.247 199.682,178.572C199.959,178.897 200.396,179.06 200.994,179.06C201.676,179.06 202.226,178.839 202.642,178.396C203.058,177.953 203.266,177.369 203.266,176.644L203.266,172.724C203.266,172.532 203.324,172.377 203.442,172.26C203.559,172.143 203.719,172.084 203.922,172.084Z" style="fill:rgb(99,101,106);fill-rule:nonzero;"/>
            <path d="M209.602,180.148C209.111,180.148 208.644,180.089 208.202,179.972C207.759,179.855 207.367,179.689 207.026,179.476C206.834,179.348 206.698,179.228 206.618,179.116C206.538,179.004 206.498,178.868 206.498,178.708C206.498,178.569 206.538,178.455 206.618,178.364C206.698,178.273 206.802,178.228 206.93,178.228C207.058,178.228 207.244,178.308 207.49,178.468C207.81,178.66 208.127,178.812 208.442,178.924C208.756,179.036 209.148,179.092 209.618,179.092C210.194,179.092 210.642,178.991 210.962,178.788C211.282,178.585 211.442,178.292 211.442,177.908C211.442,177.673 211.383,177.484 211.266,177.34C211.148,177.196 210.946,177.068 210.658,176.956C210.37,176.844 209.948,176.729 209.394,176.612C208.455,176.409 207.783,176.137 207.378,175.796C206.972,175.455 206.77,174.991 206.77,174.404C206.77,173.945 206.898,173.54 207.154,173.188C207.41,172.836 207.764,172.559 208.218,172.356C208.671,172.153 209.186,172.052 209.762,172.052C210.178,172.052 210.58,172.108 210.97,172.22C211.359,172.332 211.703,172.489 212.002,172.692C212.364,172.948 212.546,173.215 212.546,173.492C212.546,173.631 212.503,173.748 212.418,173.844C212.332,173.94 212.231,173.988 212.114,173.988C211.986,173.988 211.794,173.897 211.538,173.716C211.239,173.524 210.956,173.375 210.69,173.268C210.423,173.161 210.092,173.108 209.698,173.108C209.196,173.108 208.794,173.22 208.49,173.444C208.186,173.668 208.034,173.967 208.034,174.34C208.034,174.575 208.09,174.764 208.202,174.908C208.314,175.052 208.5,175.18 208.762,175.292C209.023,175.404 209.399,175.513 209.89,175.62C210.615,175.78 211.178,175.956 211.578,176.148C211.978,176.34 212.263,176.575 212.434,176.852C212.604,177.129 212.69,177.481 212.69,177.908C212.69,178.58 212.407,179.121 211.842,179.532C211.276,179.943 210.53,180.148 209.602,180.148Z" style="fill:rgb(99,101,106);fill-rule:nonzero;"/>
            <path d="M221.97,172.052C223.922,172.052 224.898,173.076 224.898,175.124L224.898,179.476C224.898,179.668 224.842,179.823 224.73,179.94C224.618,180.057 224.466,180.116 224.274,180.116C224.082,180.116 223.927,180.057 223.81,179.94C223.692,179.823 223.634,179.668 223.634,179.476L223.634,178.708C223.431,179.167 223.122,179.521 222.706,179.772C222.29,180.023 221.81,180.148 221.266,180.148C220.764,180.148 220.303,180.047 219.882,179.844C219.46,179.641 219.127,179.359 218.882,178.996C218.636,178.633 218.514,178.233 218.514,177.796C218.514,177.209 218.663,176.753 218.962,176.428C219.26,176.103 219.751,175.868 220.434,175.724C221.116,175.58 222.066,175.508 223.282,175.508L223.634,175.508L223.634,174.98C223.634,174.34 223.503,173.871 223.242,173.572C222.98,173.273 222.556,173.124 221.97,173.124C221.244,173.124 220.508,173.321 219.762,173.716C219.474,173.897 219.271,173.988 219.154,173.988C219.026,173.988 218.919,173.94 218.834,173.844C218.748,173.748 218.706,173.625 218.706,173.476C218.706,173.327 218.751,173.196 218.842,173.084C218.932,172.972 219.079,172.857 219.282,172.74C219.655,172.527 220.079,172.359 220.554,172.236C221.028,172.113 221.5,172.052 221.97,172.052ZM221.442,179.124C222.082,179.124 222.607,178.908 223.018,178.476C223.428,178.044 223.634,177.487 223.634,176.804L223.634,176.34L223.346,176.34C222.407,176.34 221.692,176.38 221.202,176.46C220.711,176.54 220.362,176.673 220.154,176.86C219.946,177.047 219.842,177.321 219.842,177.684C219.842,178.1 219.994,178.444 220.298,178.716C220.602,178.988 220.983,179.124 221.442,179.124Z" style="fill:rgb(99,101,106);fill-rule:nonzero;"/>
            <path d="M231.186,172.052C233.052,172.052 233.986,173.081 233.986,175.14L233.986,179.476C233.986,179.679 233.93,179.836 233.818,179.948C233.706,180.06 233.548,180.116 233.346,180.116C233.143,180.116 232.983,180.06 232.866,179.948C232.748,179.836 232.69,179.679 232.69,179.476L232.69,175.22C232.69,174.495 232.548,173.967 232.266,173.636C231.983,173.305 231.532,173.14 230.914,173.14C230.199,173.14 229.628,173.359 229.202,173.796C228.775,174.233 228.562,174.825 228.562,175.572L228.562,179.476C228.562,179.679 228.506,179.836 228.394,179.948C228.282,180.06 228.124,180.116 227.922,180.116C227.719,180.116 227.559,180.06 227.442,179.948C227.324,179.836 227.266,179.679 227.266,179.476L227.266,172.724C227.266,172.532 227.324,172.377 227.442,172.26C227.559,172.143 227.719,172.084 227.922,172.084C228.114,172.084 228.266,172.143 228.378,172.26C228.49,172.377 228.546,172.527 228.546,172.708L228.546,173.524C228.802,173.044 229.159,172.679 229.618,172.428C230.076,172.177 230.599,172.052 231.186,172.052Z" style="fill:rgb(99,101,106);fill-rule:nonzero;"/>
            <path d="M242.61,168.676C242.812,168.676 242.972,168.735 243.09,168.852C243.207,168.969 243.266,169.119 243.266,169.3L243.266,179.476C243.266,179.668 243.207,179.823 243.09,179.94C242.972,180.057 242.812,180.116 242.61,180.116C242.407,180.116 242.25,180.057 242.138,179.94C242.026,179.823 241.97,179.668 241.97,179.476L241.97,178.612C241.735,179.103 241.391,179.481 240.938,179.748C240.484,180.015 239.954,180.148 239.346,180.148C238.663,180.148 238.06,179.977 237.538,179.636C237.015,179.295 236.61,178.817 236.322,178.204C236.034,177.591 235.89,176.879 235.89,176.068C235.89,175.268 236.034,174.564 236.322,173.956C236.61,173.348 237.015,172.879 237.538,172.548C238.06,172.217 238.663,172.052 239.346,172.052C239.954,172.052 240.484,172.185 240.938,172.452C241.391,172.719 241.735,173.097 241.97,173.588L241.97,169.3C241.97,169.108 242.026,168.956 242.138,168.844C242.25,168.732 242.407,168.676 242.61,168.676ZM239.602,179.076C240.359,179.076 240.943,178.817 241.354,178.3C241.764,177.783 241.97,177.049 241.97,176.1C241.97,175.151 241.764,174.42 241.354,173.908C240.943,173.396 240.359,173.14 239.602,173.14C238.844,173.14 238.255,173.396 237.834,173.908C237.412,174.42 237.202,175.14 237.202,176.068C237.202,177.017 237.412,177.756 237.834,178.284C238.255,178.812 238.844,179.076 239.602,179.076Z" style="fill:rgb(99,101,106);fill-rule:nonzero;"/>
            <path d="M259.698,179.284C259.74,179.369 259.762,179.46 259.762,179.556C259.762,179.716 259.7,179.849 259.578,179.956C259.455,180.063 259.308,180.116 259.138,180.116C258.871,180.116 258.684,179.988 258.578,179.732L257.442,177.14L251.41,177.14L250.258,179.732C250.151,179.988 249.964,180.116 249.698,180.116C249.527,180.116 249.378,180.06 249.25,179.948C249.122,179.836 249.058,179.7 249.058,179.54C249.058,179.455 249.079,179.369 249.122,179.284L253.698,169.108C253.762,168.959 253.858,168.847 253.986,168.772C254.114,168.697 254.252,168.66 254.402,168.66C254.562,168.66 254.706,168.7 254.834,168.78C254.962,168.86 255.058,168.969 255.122,169.108L259.698,179.284ZM251.89,176.052L256.962,176.052L254.418,170.308L251.89,176.052Z" style="fill:rgb(99,101,106);fill-rule:nonzero;"/>
            <path d="M265.346,172.052C267.212,172.052 268.146,173.081 268.146,175.14L268.146,179.476C268.146,179.679 268.09,179.836 267.978,179.948C267.866,180.06 267.708,180.116 267.506,180.116C267.303,180.116 267.143,180.06 267.026,179.948C266.908,179.836 266.85,179.679 266.85,179.476L266.85,175.22C266.85,174.495 266.708,173.967 266.426,173.636C266.143,173.305 265.692,173.14 265.074,173.14C264.359,173.14 263.788,173.359 263.362,173.796C262.935,174.233 262.722,174.825 262.722,175.572L262.722,179.476C262.722,179.679 262.666,179.836 262.554,179.948C262.442,180.06 262.284,180.116 262.082,180.116C261.879,180.116 261.719,180.06 261.602,179.948C261.484,179.836 261.426,179.679 261.426,179.476L261.426,172.724C261.426,172.532 261.484,172.377 261.602,172.26C261.719,172.143 261.879,172.084 262.082,172.084C262.274,172.084 262.426,172.143 262.538,172.26C262.65,172.377 262.706,172.527 262.706,172.708L262.706,173.524C262.962,173.044 263.319,172.679 263.778,172.428C264.236,172.177 264.759,172.052 265.346,172.052Z" style="fill:rgb(99,101,106);fill-rule:nonzero;"/>
            <path d="M274.114,179.092C274.487,179.124 274.674,179.295 274.674,179.604C274.674,179.785 274.607,179.921 274.474,180.012C274.34,180.103 274.14,180.137 273.874,180.116L273.442,180.084C272.588,180.02 271.959,179.764 271.554,179.316C271.148,178.868 270.946,178.191 270.946,177.284L270.946,173.268L269.874,173.268C269.692,173.268 269.551,173.223 269.45,173.132C269.348,173.041 269.298,172.921 269.298,172.772C269.298,172.612 269.348,172.484 269.45,172.388C269.551,172.292 269.692,172.244 269.874,172.244L270.946,172.244L270.946,170.436C270.946,170.233 271.004,170.076 271.122,169.964C271.239,169.852 271.399,169.796 271.602,169.796C271.794,169.796 271.948,169.852 272.066,169.964C272.183,170.076 272.242,170.233 272.242,170.436L272.242,172.244L274.018,172.244C274.188,172.244 274.324,172.292 274.426,172.388C274.527,172.484 274.578,172.612 274.578,172.772C274.578,172.921 274.527,173.041 274.426,173.132C274.324,173.223 274.188,173.268 274.018,173.268L272.242,173.268L272.242,177.348C272.242,177.935 272.362,178.359 272.602,178.62C272.842,178.881 273.202,179.028 273.682,179.06L274.114,179.092Z" style="fill:rgb(99,101,106);fill-rule:nonzero;"/>
            <path d="M276.61,180.116C276.418,180.116 276.26,180.06 276.138,179.948C276.015,179.836 275.954,179.679 275.954,179.476L275.954,172.724C275.954,172.521 276.015,172.364 276.138,172.252C276.26,172.14 276.418,172.084 276.61,172.084C276.802,172.084 276.956,172.14 277.074,172.252C277.191,172.364 277.25,172.521 277.25,172.724L277.25,179.476C277.25,179.689 277.191,179.849 277.074,179.956C276.956,180.063 276.802,180.116 276.61,180.116ZM276.61,170.404C276.354,170.404 276.146,170.329 275.986,170.18C275.826,170.031 275.746,169.833 275.746,169.588C275.746,169.353 275.826,169.161 275.986,169.012C276.146,168.863 276.354,168.788 276.61,168.788C276.866,168.788 277.074,168.863 277.234,169.012C277.394,169.161 277.474,169.353 277.474,169.588C277.474,169.833 277.394,170.031 277.234,170.18C277.074,170.329 276.866,170.404 276.61,170.404Z" style="fill:rgb(99,101,106);fill-rule:nonzero;"/>
            <path d="M280.098,176.308C279.906,176.308 279.759,176.26 279.658,176.164C279.556,176.068 279.506,175.94 279.506,175.78C279.506,175.62 279.556,175.489 279.658,175.388C279.759,175.287 279.906,175.236 280.098,175.236L283.618,175.236C283.82,175.236 283.972,175.287 284.074,175.388C284.175,175.489 284.226,175.62 284.226,175.78C284.226,175.94 284.175,176.068 284.074,176.164C283.972,176.26 283.82,176.308 283.618,176.308L280.098,176.308Z" style="fill:rgb(99,101,106);fill-rule:nonzero;"/>
            <path d="M289.938,180.164C289.138,180.164 288.372,180.044 287.642,179.804C286.911,179.564 286.327,179.241 285.89,178.836C285.73,178.687 285.65,178.5 285.65,178.276C285.65,178.127 285.692,177.996 285.778,177.884C285.863,177.772 285.964,177.716 286.082,177.716C286.22,177.716 286.37,177.775 286.53,177.892C287.522,178.66 288.652,179.044 289.922,179.044C290.839,179.044 291.543,178.868 292.034,178.516C292.524,178.164 292.77,177.663 292.77,177.012C292.77,176.639 292.652,176.337 292.418,176.108C292.183,175.879 291.874,175.695 291.49,175.556C291.106,175.417 290.588,175.273 289.938,175.124C289.063,174.921 288.346,174.708 287.786,174.484C287.226,174.26 286.772,173.94 286.426,173.524C286.079,173.108 285.906,172.564 285.906,171.892C285.906,171.252 286.079,170.684 286.426,170.188C286.772,169.692 287.258,169.308 287.882,169.036C288.506,168.764 289.218,168.628 290.018,168.628C290.764,168.628 291.46,168.743 292.106,168.972C292.751,169.201 293.292,169.529 293.73,169.956C293.9,170.127 293.986,170.313 293.986,170.516C293.986,170.665 293.943,170.796 293.858,170.908C293.772,171.02 293.671,171.076 293.554,171.076C293.436,171.076 293.282,171.017 293.09,170.9C292.567,170.473 292.082,170.175 291.634,170.004C291.186,169.833 290.647,169.748 290.018,169.748C289.132,169.748 288.444,169.932 287.954,170.3C287.463,170.668 287.218,171.183 287.218,171.844C287.218,172.409 287.434,172.833 287.866,173.116C288.298,173.399 288.962,173.647 289.858,173.86C290.828,174.095 291.591,174.311 292.146,174.508C292.7,174.705 293.162,175.001 293.53,175.396C293.898,175.791 294.082,176.319 294.082,176.98C294.082,177.609 293.908,178.164 293.562,178.644C293.215,179.124 292.727,179.497 292.098,179.764C291.468,180.031 290.748,180.164 289.938,180.164Z" style="fill:rgb(99,101,106);fill-rule:nonzero;"/>
            <path d="M299.938,172.052C300.62,172.052 301.223,172.223 301.746,172.564C302.268,172.905 302.674,173.383 302.962,173.996C303.25,174.609 303.394,175.321 303.394,176.132C303.394,176.943 303.25,177.649 302.962,178.252C302.674,178.855 302.271,179.321 301.754,179.652C301.236,179.983 300.631,180.148 299.938,180.148C299.33,180.148 298.799,180.015 298.346,179.748C297.892,179.481 297.548,179.103 297.314,178.612L297.314,182.372C297.314,182.564 297.258,182.716 297.146,182.828C297.034,182.94 296.876,182.996 296.674,182.996C296.471,182.996 296.311,182.937 296.194,182.82C296.076,182.703 296.018,182.553 296.018,182.372L296.018,172.724C296.018,172.532 296.076,172.377 296.194,172.26C296.311,172.143 296.471,172.084 296.674,172.084C296.876,172.084 297.034,172.143 297.146,172.26C297.258,172.377 297.314,172.532 297.314,172.724L297.314,173.588C297.548,173.097 297.892,172.719 298.346,172.452C298.799,172.185 299.33,172.052 299.938,172.052ZM299.682,179.076C300.439,179.076 301.026,178.82 301.442,178.308C301.858,177.796 302.066,177.071 302.066,176.132C302.066,175.193 301.858,174.46 301.442,173.932C301.026,173.404 300.439,173.14 299.682,173.14C298.924,173.14 298.34,173.396 297.93,173.908C297.519,174.42 297.314,175.151 297.314,176.1C297.314,177.049 297.519,177.783 297.93,178.3C298.34,178.817 298.924,179.076 299.682,179.076Z" style="fill:rgb(99,101,106);fill-rule:nonzero;"/>
            <path d="M310.85,172.484C310.967,172.228 311.154,172.1 311.41,172.1C311.57,172.1 311.714,172.153 311.842,172.26C311.97,172.367 312.034,172.5 312.034,172.66C312.034,172.756 312.012,172.841 311.97,172.916L307.474,182.612C307.42,182.729 307.343,182.82 307.242,182.884C307.14,182.948 307.036,182.98 306.93,182.98C306.77,182.98 306.628,182.929 306.506,182.828C306.383,182.727 306.322,182.596 306.322,182.436C306.322,182.351 306.343,182.265 306.386,182.18L307.506,179.764L304.338,172.916C304.295,172.841 304.274,172.761 304.274,172.676C304.274,172.516 304.346,172.377 304.49,172.26C304.634,172.143 304.791,172.084 304.962,172.084C305.068,172.084 305.172,172.116 305.274,172.18C305.375,172.244 305.452,172.335 305.506,172.452L308.178,178.452L310.85,172.484Z" style="fill:rgb(99,101,106);fill-rule:nonzero;"/>
            <path d="M324.114,172.5C324.22,172.244 324.396,172.116 324.642,172.116C324.802,172.116 324.946,172.169 325.074,172.276C325.202,172.383 325.266,172.516 325.266,172.676C325.266,172.751 325.25,172.831 325.218,172.916L322.562,179.636C322.498,179.775 322.404,179.884 322.282,179.964C322.159,180.044 322.023,180.084 321.874,180.084C321.735,180.084 321.604,180.044 321.482,179.964C321.359,179.884 321.266,179.775 321.202,179.636L318.994,174.02L316.802,179.636C316.748,179.775 316.658,179.884 316.53,179.964C316.402,180.044 316.263,180.084 316.114,180.084C315.975,180.084 315.842,180.044 315.714,179.964C315.586,179.884 315.49,179.775 315.426,179.636L312.77,172.932C312.738,172.847 312.722,172.772 312.722,172.708C312.722,172.537 312.794,172.393 312.938,172.276C313.082,172.159 313.239,172.1 313.41,172.1C313.666,172.1 313.847,172.228 313.954,172.484L316.146,178.388L318.402,172.532C318.466,172.393 318.554,172.287 318.666,172.212C318.778,172.137 318.898,172.1 319.026,172.1C319.164,172.1 319.29,172.137 319.402,172.212C319.514,172.287 319.596,172.393 319.65,172.532L321.906,178.372L324.114,172.5Z" style="fill:rgb(99,101,106);fill-rule:nonzero;"/>
            <path d="M329.97,172.052C331.922,172.052 332.898,173.076 332.898,175.124L332.898,179.476C332.898,179.668 332.842,179.823 332.73,179.94C332.618,180.057 332.466,180.116 332.274,180.116C332.082,180.116 331.927,180.057 331.81,179.94C331.692,179.823 331.634,179.668 331.634,179.476L331.634,178.708C331.431,179.167 331.122,179.521 330.706,179.772C330.29,180.023 329.81,180.148 329.266,180.148C328.764,180.148 328.303,180.047 327.882,179.844C327.46,179.641 327.127,179.359 326.882,178.996C326.636,178.633 326.514,178.233 326.514,177.796C326.514,177.209 326.663,176.753 326.962,176.428C327.26,176.103 327.751,175.868 328.434,175.724C329.116,175.58 330.066,175.508 331.282,175.508L331.634,175.508L331.634,174.98C331.634,174.34 331.503,173.871 331.242,173.572C330.98,173.273 330.556,173.124 329.97,173.124C329.244,173.124 328.508,173.321 327.762,173.716C327.474,173.897 327.271,173.988 327.154,173.988C327.026,173.988 326.919,173.94 326.834,173.844C326.748,173.748 326.706,173.625 326.706,173.476C326.706,173.327 326.751,173.196 326.842,173.084C326.932,172.972 327.079,172.857 327.282,172.74C327.655,172.527 328.079,172.359 328.554,172.236C329.028,172.113 329.5,172.052 329.97,172.052ZM329.442,179.124C330.082,179.124 330.607,178.908 331.018,178.476C331.428,178.044 331.634,177.487 331.634,176.804L331.634,176.34L331.346,176.34C330.407,176.34 329.692,176.38 329.202,176.46C328.711,176.54 328.362,176.673 328.154,176.86C327.946,177.047 327.842,177.321 327.842,177.684C327.842,178.1 327.994,178.444 328.298,178.716C328.602,178.988 328.983,179.124 329.442,179.124Z" style="fill:rgb(99,101,106);fill-rule:nonzero;"/>
            <path d="M339.122,172.084C339.57,172.052 339.794,172.233 339.794,172.628C339.794,172.799 339.746,172.935 339.65,173.036C339.554,173.137 339.388,173.199 339.154,173.22L338.674,173.268C337.959,173.332 337.428,173.585 337.082,174.028C336.735,174.471 336.562,174.991 336.562,175.588L336.562,179.476C336.562,179.689 336.503,179.849 336.386,179.956C336.268,180.063 336.114,180.116 335.922,180.116C335.73,180.116 335.572,180.06 335.45,179.948C335.327,179.836 335.266,179.679 335.266,179.476L335.266,172.724C335.266,172.521 335.33,172.364 335.458,172.252C335.586,172.14 335.74,172.084 335.922,172.084C336.092,172.084 336.236,172.14 336.354,172.252C336.471,172.364 336.53,172.516 336.53,172.708L336.53,173.604C336.754,173.135 337.071,172.777 337.482,172.532C337.892,172.287 338.364,172.143 338.898,172.1L339.122,172.084Z" style="fill:rgb(99,101,106);fill-rule:nonzero;"/>
            <path d="M346.786,178.228C346.903,178.228 347.004,178.276 347.09,178.372C347.175,178.468 347.218,178.591 347.218,178.74C347.218,179.007 347.031,179.252 346.658,179.476C346.274,179.7 345.868,179.868 345.442,179.98C345.015,180.092 344.599,180.148 344.194,180.148C342.988,180.148 342.036,179.791 341.338,179.076C340.639,178.361 340.29,177.375 340.29,176.116C340.29,175.316 340.444,174.609 340.754,173.996C341.063,173.383 341.498,172.905 342.058,172.564C342.618,172.223 343.255,172.052 343.97,172.052C344.983,172.052 345.788,172.383 346.386,173.044C346.983,173.705 347.282,174.601 347.282,175.732C347.282,175.945 347.239,176.1 347.154,176.196C347.068,176.292 346.93,176.34 346.738,176.34L341.586,176.34C341.682,178.175 342.551,179.092 344.194,179.092C344.61,179.092 344.967,179.036 345.266,178.924C345.564,178.812 345.884,178.66 346.226,178.468C346.503,178.308 346.69,178.228 346.786,178.228ZM343.986,173.06C343.303,173.06 342.756,173.273 342.346,173.7C341.935,174.127 341.692,174.729 341.618,175.508L346.146,175.508C346.124,174.719 345.927,174.113 345.554,173.692C345.18,173.271 344.658,173.06 343.986,173.06Z" style="fill:rgb(99,101,106);fill-rule:nonzero;"/>
            <path d="M153.882,202.66C152.751,200.495 152.186,198.217 152.186,195.828C152.186,193.439 152.751,191.161 153.882,188.996C154.02,188.751 154.207,188.628 154.442,188.628C154.57,188.628 154.679,188.671 154.77,188.756C154.86,188.841 154.906,188.948 154.906,189.076C154.906,189.151 154.89,189.231 154.858,189.316C153.962,191.428 153.514,193.599 153.514,195.828C153.514,198.057 153.962,200.228 154.858,202.34C154.89,202.436 154.906,202.516 154.906,202.58C154.906,202.719 154.86,202.828 154.77,202.908C154.679,202.988 154.57,203.028 154.442,203.028C154.207,203.028 154.02,202.905 153.882,202.66Z" style="fill:rgb(99,101,106);fill-rule:nonzero;"/>
            <path d="M166.97,188.676C167.172,188.676 167.33,188.737 167.442,188.86C167.554,188.983 167.61,189.145 167.61,189.348L167.61,199.476C167.61,199.668 167.556,199.823 167.45,199.94C167.343,200.057 167.194,200.116 167.002,200.116C166.81,200.116 166.666,200.057 166.57,199.94C166.474,199.823 166.426,199.668 166.426,199.476L166.426,191.3L162.954,197.956C162.804,198.265 162.586,198.42 162.298,198.42C162.02,198.42 161.802,198.265 161.642,197.956L158.154,191.38L158.154,199.476C158.154,199.668 158.103,199.823 158.002,199.94C157.9,200.057 157.754,200.116 157.562,200.116C157.37,200.116 157.22,200.057 157.114,199.94C157.007,199.823 156.954,199.668 156.954,199.476L156.954,189.348C156.954,189.145 157.012,188.983 157.13,188.86C157.247,188.737 157.407,188.676 157.61,188.676C157.876,188.676 158.09,188.831 158.25,189.14L162.314,196.932L166.33,189.14C166.415,188.969 166.508,188.849 166.61,188.78C166.711,188.711 166.831,188.676 166.97,188.676Z" style="fill:rgb(99,101,106);fill-rule:nonzero;"/>
            <path d="M173.434,200.148C172.708,200.148 172.066,199.983 171.506,199.652C170.946,199.321 170.514,198.852 170.21,198.244C169.906,197.636 169.754,196.932 169.754,196.132C169.754,195.332 169.911,194.623 170.226,194.004C170.54,193.385 170.98,192.905 171.546,192.564C172.111,192.223 172.762,192.052 173.498,192.052C173.903,192.052 174.306,192.108 174.706,192.22C175.106,192.332 175.455,192.495 175.754,192.708C175.946,192.836 176.082,192.961 176.162,193.084C176.242,193.207 176.282,193.343 176.282,193.492C176.282,193.641 176.242,193.764 176.162,193.86C176.082,193.956 175.978,194.004 175.85,194.004C175.775,194.004 175.695,193.983 175.61,193.94C175.524,193.897 175.452,193.855 175.394,193.812C175.335,193.769 175.295,193.743 175.274,193.732C174.996,193.551 174.732,193.407 174.482,193.3C174.231,193.193 173.924,193.14 173.562,193.14C172.783,193.14 172.178,193.404 171.746,193.932C171.314,194.46 171.098,195.193 171.098,196.132C171.098,197.071 171.314,197.796 171.746,198.308C172.178,198.82 172.783,199.076 173.562,199.076C173.924,199.076 174.236,199.023 174.498,198.916C174.759,198.809 175.023,198.665 175.29,198.484C175.407,198.409 175.519,198.345 175.626,198.292C175.732,198.239 175.823,198.212 175.898,198.212C176.015,198.212 176.114,198.26 176.194,198.356C176.274,198.452 176.314,198.575 176.314,198.724C176.314,198.863 176.276,198.988 176.202,199.1C176.127,199.212 175.988,199.337 175.786,199.476C175.487,199.679 175.127,199.841 174.706,199.964C174.284,200.087 173.86,200.148 173.434,200.148Z" style="fill:rgb(99,101,106);fill-rule:nonzero;"/>
            <path d="M187.786,199.284C187.828,199.369 187.85,199.46 187.85,199.556C187.85,199.716 187.788,199.849 187.666,199.956C187.543,200.063 187.396,200.116 187.226,200.116C186.959,200.116 186.772,199.988 186.666,199.732L185.53,197.14L179.498,197.14L178.346,199.732C178.239,199.988 178.052,200.116 177.786,200.116C177.615,200.116 177.466,200.06 177.338,199.948C177.21,199.836 177.146,199.7 177.146,199.54C177.146,199.455 177.167,199.369 177.21,199.284L181.786,189.108C181.85,188.959 181.946,188.847 182.074,188.772C182.202,188.697 182.34,188.66 182.49,188.66C182.65,188.66 182.794,188.7 182.922,188.78C183.05,188.86 183.146,188.969 183.21,189.108L187.786,199.284ZM179.978,196.052L185.05,196.052L182.506,190.308L179.978,196.052Z" style="fill:rgb(99,101,106);fill-rule:nonzero;"/>
            <path d="M192.858,189.78C192.292,189.823 191.866,190.001 191.578,190.316C191.29,190.631 191.146,191.103 191.146,191.732L191.146,192.244L192.922,192.244C193.103,192.244 193.242,192.292 193.338,192.388C193.434,192.484 193.482,192.612 193.482,192.772C193.482,192.932 193.434,193.055 193.338,193.14C193.242,193.225 193.103,193.268 192.922,193.268L191.146,193.268L191.146,199.476C191.146,199.679 191.084,199.836 190.962,199.948C190.839,200.06 190.687,200.116 190.506,200.116C190.314,200.116 190.156,200.06 190.034,199.948C189.911,199.836 189.85,199.679 189.85,199.476L189.85,193.268L188.778,193.268C188.596,193.268 188.455,193.223 188.354,193.132C188.252,193.041 188.202,192.921 188.202,192.772C188.202,192.612 188.252,192.484 188.354,192.388C188.455,192.292 188.596,192.244 188.778,192.244L189.85,192.244L189.85,191.956C189.85,190.996 190.09,190.241 190.57,189.692C191.05,189.143 191.738,188.836 192.634,188.772L193.05,188.74C193.327,188.719 193.527,188.745 193.65,188.82C193.772,188.895 193.834,189.028 193.834,189.22C193.834,189.529 193.647,189.705 193.274,189.748L192.858,189.78Z" style="fill:rgb(99,101,106);fill-rule:nonzero;"/>
            <path d="M200.618,198.228C200.735,198.228 200.836,198.276 200.922,198.372C201.007,198.468 201.05,198.591 201.05,198.74C201.05,199.007 200.863,199.252 200.49,199.476C200.106,199.7 199.7,199.868 199.274,199.98C198.847,200.092 198.431,200.148 198.026,200.148C196.82,200.148 195.868,199.791 195.17,199.076C194.471,198.361 194.122,197.375 194.122,196.116C194.122,195.316 194.276,194.609 194.586,193.996C194.895,193.383 195.33,192.905 195.89,192.564C196.45,192.223 197.087,192.052 197.802,192.052C198.815,192.052 199.62,192.383 200.218,193.044C200.815,193.705 201.114,194.601 201.114,195.732C201.114,195.945 201.071,196.1 200.986,196.196C200.9,196.292 200.762,196.34 200.57,196.34L195.418,196.34C195.514,198.175 196.383,199.092 198.026,199.092C198.442,199.092 198.799,199.036 199.098,198.924C199.396,198.812 199.716,198.66 200.058,198.468C200.335,198.308 200.522,198.228 200.618,198.228ZM197.818,193.06C197.135,193.06 196.588,193.273 196.178,193.7C195.767,194.127 195.524,194.729 195.45,195.508L199.978,195.508C199.956,194.719 199.759,194.113 199.386,193.692C199.012,193.271 198.49,193.06 197.818,193.06Z" style="fill:rgb(99,101,106);fill-rule:nonzero;"/>
            <path d="M209.05,198.228C209.167,198.228 209.268,198.276 209.354,198.372C209.439,198.468 209.482,198.591 209.482,198.74C209.482,199.007 209.295,199.252 208.922,199.476C208.538,199.7 208.132,199.868 207.706,199.98C207.279,200.092 206.863,200.148 206.458,200.148C205.252,200.148 204.3,199.791 203.602,199.076C202.903,198.361 202.554,197.375 202.554,196.116C202.554,195.316 202.708,194.609 203.018,193.996C203.327,193.383 203.762,192.905 204.322,192.564C204.882,192.223 205.519,192.052 206.234,192.052C207.247,192.052 208.052,192.383 208.65,193.044C209.247,193.705 209.546,194.601 209.546,195.732C209.546,195.945 209.503,196.1 209.418,196.196C209.332,196.292 209.194,196.34 209.002,196.34L203.85,196.34C203.946,198.175 204.815,199.092 206.458,199.092C206.874,199.092 207.231,199.036 207.53,198.924C207.828,198.812 208.148,198.66 208.49,198.468C208.767,198.308 208.954,198.228 209.05,198.228ZM206.25,193.06C205.567,193.06 205.02,193.273 204.61,193.7C204.199,194.127 203.956,194.729 203.882,195.508L208.41,195.508C208.388,194.719 208.191,194.113 207.818,193.692C207.444,193.271 206.922,193.06 206.25,193.06Z" style="fill:rgb(99,101,106);fill-rule:nonzero;"/>
            <path d="M218.762,192.052C220.714,192.052 221.69,193.076 221.69,195.124L221.69,199.476C221.69,199.668 221.634,199.823 221.522,199.94C221.41,200.057 221.258,200.116 221.066,200.116C220.874,200.116 220.719,200.057 220.602,199.94C220.484,199.823 220.426,199.668 220.426,199.476L220.426,198.708C220.223,199.167 219.914,199.521 219.498,199.772C219.082,200.023 218.602,200.148 218.058,200.148C217.556,200.148 217.095,200.047 216.674,199.844C216.252,199.641 215.919,199.359 215.674,198.996C215.428,198.633 215.306,198.233 215.306,197.796C215.306,197.209 215.455,196.753 215.754,196.428C216.052,196.103 216.543,195.868 217.226,195.724C217.908,195.58 218.858,195.508 220.074,195.508L220.426,195.508L220.426,194.98C220.426,194.34 220.295,193.871 220.034,193.572C219.772,193.273 219.348,193.124 218.762,193.124C218.036,193.124 217.3,193.321 216.554,193.716C216.266,193.897 216.063,193.988 215.946,193.988C215.818,193.988 215.711,193.94 215.626,193.844C215.54,193.748 215.498,193.625 215.498,193.476C215.498,193.327 215.543,193.196 215.634,193.084C215.724,192.972 215.871,192.857 216.074,192.74C216.447,192.527 216.871,192.359 217.346,192.236C217.82,192.113 218.292,192.052 218.762,192.052ZM218.234,199.124C218.874,199.124 219.399,198.908 219.81,198.476C220.22,198.044 220.426,197.487 220.426,196.804L220.426,196.34L220.138,196.34C219.199,196.34 218.484,196.38 217.994,196.46C217.503,196.54 217.154,196.673 216.946,196.86C216.738,197.047 216.634,197.321 216.634,197.684C216.634,198.1 216.786,198.444 217.09,198.716C217.394,198.988 217.775,199.124 218.234,199.124Z" style="fill:rgb(99,101,106);fill-rule:nonzero;"/>
            <path d="M227.978,192.052C229.844,192.052 230.778,193.081 230.778,195.14L230.778,199.476C230.778,199.679 230.722,199.836 230.61,199.948C230.498,200.06 230.34,200.116 230.138,200.116C229.935,200.116 229.775,200.06 229.658,199.948C229.54,199.836 229.482,199.679 229.482,199.476L229.482,195.22C229.482,194.495 229.34,193.967 229.058,193.636C228.775,193.305 228.324,193.14 227.706,193.14C226.991,193.14 226.42,193.359 225.994,193.796C225.567,194.233 225.354,194.825 225.354,195.572L225.354,199.476C225.354,199.679 225.298,199.836 225.186,199.948C225.074,200.06 224.916,200.116 224.714,200.116C224.511,200.116 224.351,200.06 224.234,199.948C224.116,199.836 224.058,199.679 224.058,199.476L224.058,192.724C224.058,192.532 224.116,192.377 224.234,192.26C224.351,192.143 224.511,192.084 224.714,192.084C224.906,192.084 225.058,192.143 225.17,192.26C225.282,192.377 225.338,192.527 225.338,192.708L225.338,193.524C225.594,193.044 225.951,192.679 226.41,192.428C226.868,192.177 227.391,192.052 227.978,192.052Z" style="fill:rgb(99,101,106);fill-rule:nonzero;"/>
            <path d="M239.402,188.676C239.604,188.676 239.764,188.735 239.882,188.852C239.999,188.969 240.058,189.119 240.058,189.3L240.058,199.476C240.058,199.668 239.999,199.823 239.882,199.94C239.764,200.057 239.604,200.116 239.402,200.116C239.199,200.116 239.042,200.057 238.93,199.94C238.818,199.823 238.762,199.668 238.762,199.476L238.762,198.612C238.527,199.103 238.183,199.481 237.73,199.748C237.276,200.015 236.746,200.148 236.138,200.148C235.455,200.148 234.852,199.977 234.33,199.636C233.807,199.295 233.402,198.817 233.114,198.204C232.826,197.591 232.682,196.879 232.682,196.068C232.682,195.268 232.826,194.564 233.114,193.956C233.402,193.348 233.807,192.879 234.33,192.548C234.852,192.217 235.455,192.052 236.138,192.052C236.746,192.052 237.276,192.185 237.73,192.452C238.183,192.719 238.527,193.097 238.762,193.588L238.762,189.3C238.762,189.108 238.818,188.956 238.93,188.844C239.042,188.732 239.199,188.676 239.402,188.676ZM236.394,199.076C237.151,199.076 237.735,198.817 238.146,198.3C238.556,197.783 238.762,197.049 238.762,196.1C238.762,195.151 238.556,194.42 238.146,193.908C237.735,193.396 237.151,193.14 236.394,193.14C235.636,193.14 235.047,193.396 234.626,193.908C234.204,194.42 233.994,195.14 233.994,196.068C233.994,197.017 234.204,197.756 234.626,198.284C235.047,198.812 235.636,199.076 236.394,199.076Z" style="fill:rgb(99,101,106);fill-rule:nonzero;"/>
            <path d="M250.378,200.164C249.578,200.164 248.812,200.044 248.082,199.804C247.351,199.564 246.767,199.241 246.33,198.836C246.17,198.687 246.09,198.5 246.09,198.276C246.09,198.127 246.132,197.996 246.218,197.884C246.303,197.772 246.404,197.716 246.522,197.716C246.66,197.716 246.81,197.775 246.97,197.892C247.962,198.66 249.092,199.044 250.362,199.044C251.279,199.044 251.983,198.868 252.474,198.516C252.964,198.164 253.21,197.663 253.21,197.012C253.21,196.639 253.092,196.337 252.858,196.108C252.623,195.879 252.314,195.695 251.93,195.556C251.546,195.417 251.028,195.273 250.378,195.124C249.503,194.921 248.786,194.708 248.226,194.484C247.666,194.26 247.212,193.94 246.866,193.524C246.519,193.108 246.346,192.564 246.346,191.892C246.346,191.252 246.519,190.684 246.866,190.188C247.212,189.692 247.698,189.308 248.322,189.036C248.946,188.764 249.658,188.628 250.458,188.628C251.204,188.628 251.9,188.743 252.546,188.972C253.191,189.201 253.732,189.529 254.17,189.956C254.34,190.127 254.426,190.313 254.426,190.516C254.426,190.665 254.383,190.796 254.298,190.908C254.212,191.02 254.111,191.076 253.994,191.076C253.876,191.076 253.722,191.017 253.53,190.9C253.007,190.473 252.522,190.175 252.074,190.004C251.626,189.833 251.087,189.748 250.458,189.748C249.572,189.748 248.884,189.932 248.394,190.3C247.903,190.668 247.658,191.183 247.658,191.844C247.658,192.409 247.874,192.833 248.306,193.116C248.738,193.399 249.402,193.647 250.298,193.86C251.268,194.095 252.031,194.311 252.586,194.508C253.14,194.705 253.602,195.001 253.97,195.396C254.338,195.791 254.522,196.319 254.522,196.98C254.522,197.609 254.348,198.164 254.002,198.644C253.655,199.124 253.167,199.497 252.538,199.764C251.908,200.031 251.188,200.164 250.378,200.164Z" style="fill:rgb(99,101,106);fill-rule:nonzero;"/>
            <path d="M262.49,198.228C262.607,198.228 262.708,198.276 262.794,198.372C262.879,198.468 262.922,198.591 262.922,198.74C262.922,199.007 262.735,199.252 262.362,199.476C261.978,199.7 261.572,199.868 261.146,199.98C260.719,200.092 260.303,200.148 259.898,200.148C258.692,200.148 257.74,199.791 257.042,199.076C256.343,198.361 255.994,197.375 255.994,196.116C255.994,195.316 256.148,194.609 256.458,193.996C256.767,193.383 257.202,192.905 257.762,192.564C258.322,192.223 258.959,192.052 259.674,192.052C260.687,192.052 261.492,192.383 262.09,193.044C262.687,193.705 262.986,194.601 262.986,195.732C262.986,195.945 262.943,196.1 262.858,196.196C262.772,196.292 262.634,196.34 262.442,196.34L257.29,196.34C257.386,198.175 258.255,199.092 259.898,199.092C260.314,199.092 260.671,199.036 260.97,198.924C261.268,198.812 261.588,198.66 261.93,198.468C262.207,198.308 262.394,198.228 262.49,198.228ZM259.69,193.06C259.007,193.06 258.46,193.273 258.05,193.7C257.639,194.127 257.396,194.729 257.322,195.508L261.85,195.508C261.828,194.719 261.631,194.113 261.258,193.692C260.884,193.271 260.362,193.06 259.69,193.06Z" style="fill:rgb(99,101,106);fill-rule:nonzero;"/>
            <path d="M268.81,192.052C270.676,192.052 271.61,193.081 271.61,195.14L271.61,199.476C271.61,199.679 271.554,199.836 271.442,199.948C271.33,200.06 271.172,200.116 270.97,200.116C270.767,200.116 270.607,200.06 270.49,199.948C270.372,199.836 270.314,199.679 270.314,199.476L270.314,195.22C270.314,194.495 270.172,193.967 269.89,193.636C269.607,193.305 269.156,193.14 268.538,193.14C267.823,193.14 267.252,193.359 266.826,193.796C266.399,194.233 266.186,194.825 266.186,195.572L266.186,199.476C266.186,199.679 266.13,199.836 266.018,199.948C265.906,200.06 265.748,200.116 265.546,200.116C265.343,200.116 265.183,200.06 265.066,199.948C264.948,199.836 264.89,199.679 264.89,199.476L264.89,192.724C264.89,192.532 264.948,192.377 265.066,192.26C265.183,192.143 265.343,192.084 265.546,192.084C265.738,192.084 265.89,192.143 266.002,192.26C266.114,192.377 266.17,192.527 266.17,192.708L266.17,193.524C266.426,193.044 266.783,192.679 267.242,192.428C267.7,192.177 268.223,192.052 268.81,192.052Z" style="fill:rgb(99,101,106);fill-rule:nonzero;"/>
            <path d="M277.578,199.092C277.951,199.124 278.138,199.295 278.138,199.604C278.138,199.785 278.071,199.921 277.938,200.012C277.804,200.103 277.604,200.137 277.338,200.116L276.906,200.084C276.052,200.02 275.423,199.764 275.018,199.316C274.612,198.868 274.41,198.191 274.41,197.284L274.41,193.268L273.338,193.268C273.156,193.268 273.015,193.223 272.914,193.132C272.812,193.041 272.762,192.921 272.762,192.772C272.762,192.612 272.812,192.484 272.914,192.388C273.015,192.292 273.156,192.244 273.338,192.244L274.41,192.244L274.41,190.436C274.41,190.233 274.468,190.076 274.586,189.964C274.703,189.852 274.863,189.796 275.066,189.796C275.258,189.796 275.412,189.852 275.53,189.964C275.647,190.076 275.706,190.233 275.706,190.436L275.706,192.244L277.482,192.244C277.652,192.244 277.788,192.292 277.89,192.388C277.991,192.484 278.042,192.612 278.042,192.772C278.042,192.921 277.991,193.041 277.89,193.132C277.788,193.223 277.652,193.268 277.482,193.268L275.706,193.268L275.706,197.348C275.706,197.935 275.826,198.359 276.066,198.62C276.306,198.881 276.666,199.028 277.146,199.06L277.578,199.092Z" style="fill:rgb(99,101,106);fill-rule:nonzero;"/>
            <path d="M280.074,200.116C279.882,200.116 279.724,200.06 279.602,199.948C279.479,199.836 279.418,199.679 279.418,199.476L279.418,192.724C279.418,192.521 279.479,192.364 279.602,192.252C279.724,192.14 279.882,192.084 280.074,192.084C280.266,192.084 280.42,192.14 280.538,192.252C280.655,192.364 280.714,192.521 280.714,192.724L280.714,199.476C280.714,199.689 280.655,199.849 280.538,199.956C280.42,200.063 280.266,200.116 280.074,200.116ZM280.074,190.404C279.818,190.404 279.61,190.329 279.45,190.18C279.29,190.031 279.21,189.833 279.21,189.588C279.21,189.353 279.29,189.161 279.45,189.012C279.61,188.863 279.818,188.788 280.074,188.788C280.33,188.788 280.538,188.863 280.698,189.012C280.858,189.161 280.938,189.353 280.938,189.588C280.938,189.833 280.858,190.031 280.698,190.18C280.538,190.329 280.33,190.404 280.074,190.404Z" style="fill:rgb(99,101,106);fill-rule:nonzero;"/>
            <path d="M287.05,192.052C288.916,192.052 289.85,193.081 289.85,195.14L289.85,199.476C289.85,199.679 289.794,199.836 289.682,199.948C289.57,200.06 289.412,200.116 289.21,200.116C289.007,200.116 288.847,200.06 288.73,199.948C288.612,199.836 288.554,199.679 288.554,199.476L288.554,195.22C288.554,194.495 288.412,193.967 288.13,193.636C287.847,193.305 287.396,193.14 286.778,193.14C286.063,193.14 285.492,193.359 285.066,193.796C284.639,194.233 284.426,194.825 284.426,195.572L284.426,199.476C284.426,199.679 284.37,199.836 284.258,199.948C284.146,200.06 283.988,200.116 283.786,200.116C283.583,200.116 283.423,200.06 283.306,199.948C283.188,199.836 283.13,199.679 283.13,199.476L283.13,192.724C283.13,192.532 283.188,192.377 283.306,192.26C283.423,192.143 283.583,192.084 283.786,192.084C283.978,192.084 284.13,192.143 284.242,192.26C284.354,192.377 284.41,192.527 284.41,192.708L284.41,193.524C284.666,193.044 285.023,192.679 285.482,192.428C285.94,192.177 286.463,192.052 287.05,192.052Z" style="fill:rgb(99,101,106);fill-rule:nonzero;"/>
            <path d="M298.25,198.228C298.367,198.228 298.468,198.276 298.554,198.372C298.639,198.468 298.682,198.591 298.682,198.74C298.682,199.007 298.495,199.252 298.122,199.476C297.738,199.7 297.332,199.868 296.906,199.98C296.479,200.092 296.063,200.148 295.658,200.148C294.452,200.148 293.5,199.791 292.802,199.076C292.103,198.361 291.754,197.375 291.754,196.116C291.754,195.316 291.908,194.609 292.218,193.996C292.527,193.383 292.962,192.905 293.522,192.564C294.082,192.223 294.719,192.052 295.434,192.052C296.447,192.052 297.252,192.383 297.85,193.044C298.447,193.705 298.746,194.601 298.746,195.732C298.746,195.945 298.703,196.1 298.618,196.196C298.532,196.292 298.394,196.34 298.202,196.34L293.05,196.34C293.146,198.175 294.015,199.092 295.658,199.092C296.074,199.092 296.431,199.036 296.73,198.924C297.028,198.812 297.348,198.66 297.69,198.468C297.967,198.308 298.154,198.228 298.25,198.228ZM295.45,193.06C294.767,193.06 294.22,193.273 293.81,193.7C293.399,194.127 293.156,194.729 293.082,195.508L297.61,195.508C297.588,194.719 297.391,194.113 297.018,193.692C296.644,193.271 296.122,193.06 295.45,193.06Z" style="fill:rgb(99,101,106);fill-rule:nonzero;"/>
            <path d="M301.306,200.116C301.114,200.116 300.956,200.06 300.834,199.948C300.711,199.836 300.65,199.679 300.65,199.476L300.65,189.316C300.65,189.113 300.711,188.956 300.834,188.844C300.956,188.732 301.114,188.676 301.306,188.676C301.487,188.676 301.639,188.732 301.762,188.844C301.884,188.956 301.946,189.113 301.946,189.316L301.946,199.476C301.946,199.679 301.884,199.836 301.762,199.948C301.639,200.06 301.487,200.116 301.306,200.116Z" style="fill:rgb(99,101,106);fill-rule:nonzero;"/>
            <path d="M309.274,200.164C308.228,200.164 307.319,199.929 306.546,199.46C305.772,198.991 305.178,198.324 304.762,197.46C304.346,196.596 304.138,195.577 304.138,194.404C304.138,193.22 304.343,192.193 304.754,191.324C305.164,190.455 305.756,189.788 306.53,189.324C307.303,188.86 308.218,188.628 309.274,188.628C310.33,188.628 311.244,188.86 312.018,189.324C312.791,189.788 313.383,190.455 313.794,191.324C314.204,192.193 314.41,193.215 314.41,194.388C314.41,195.561 314.202,196.583 313.786,197.452C313.37,198.321 312.775,198.991 312.002,199.46C311.228,199.929 310.319,200.164 309.274,200.164ZM309.274,199.044C310.468,199.044 311.399,198.641 312.066,197.836C312.732,197.031 313.066,195.881 313.066,194.388C313.066,192.895 312.735,191.748 312.074,190.948C311.412,190.148 310.479,189.748 309.274,189.748C308.079,189.748 307.148,190.151 306.482,190.956C305.815,191.761 305.482,192.905 305.482,194.388C305.482,195.871 305.815,197.017 306.482,197.828C307.148,198.639 308.079,199.044 309.274,199.044Z" style="fill:rgb(99,101,106);fill-rule:nonzero;"/>
            <path d="M320.506,192.052C322.372,192.052 323.306,193.081 323.306,195.14L323.306,199.476C323.306,199.679 323.25,199.836 323.138,199.948C323.026,200.06 322.868,200.116 322.666,200.116C322.463,200.116 322.303,200.06 322.186,199.948C322.068,199.836 322.01,199.679 322.01,199.476L322.01,195.22C322.01,194.495 321.868,193.967 321.586,193.636C321.303,193.305 320.852,193.14 320.234,193.14C319.519,193.14 318.948,193.359 318.522,193.796C318.095,194.233 317.882,194.825 317.882,195.572L317.882,199.476C317.882,199.679 317.826,199.836 317.714,199.948C317.602,200.06 317.444,200.116 317.242,200.116C317.039,200.116 316.879,200.06 316.762,199.948C316.644,199.836 316.586,199.679 316.586,199.476L316.586,192.724C316.586,192.532 316.644,192.377 316.762,192.26C316.879,192.143 317.039,192.084 317.242,192.084C317.434,192.084 317.586,192.143 317.698,192.26C317.81,192.377 317.866,192.527 317.866,192.708L317.866,193.524C318.122,193.044 318.479,192.679 318.938,192.428C319.396,192.177 319.919,192.052 320.506,192.052Z" style="fill:rgb(99,101,106);fill-rule:nonzero;"/>
            <path d="M331.706,198.228C331.823,198.228 331.924,198.276 332.01,198.372C332.095,198.468 332.138,198.591 332.138,198.74C332.138,199.007 331.951,199.252 331.578,199.476C331.194,199.7 330.788,199.868 330.362,199.98C329.935,200.092 329.519,200.148 329.114,200.148C327.908,200.148 326.956,199.791 326.258,199.076C325.559,198.361 325.21,197.375 325.21,196.116C325.21,195.316 325.364,194.609 325.674,193.996C325.983,193.383 326.418,192.905 326.978,192.564C327.538,192.223 328.175,192.052 328.89,192.052C329.903,192.052 330.708,192.383 331.306,193.044C331.903,193.705 332.202,194.601 332.202,195.732C332.202,195.945 332.159,196.1 332.074,196.196C331.988,196.292 331.85,196.34 331.658,196.34L326.506,196.34C326.602,198.175 327.471,199.092 329.114,199.092C329.53,199.092 329.887,199.036 330.186,198.924C330.484,198.812 330.804,198.66 331.146,198.468C331.423,198.308 331.61,198.228 331.706,198.228ZM328.906,193.06C328.223,193.06 327.676,193.273 327.266,193.7C326.855,194.127 326.612,194.729 326.538,195.508L331.066,195.508C331.044,194.719 330.847,194.113 330.474,193.692C330.1,193.271 329.578,193.06 328.906,193.06Z" style="fill:rgb(99,101,106);fill-rule:nonzero;"/>
            <path d="M334.49,202.66C334.351,202.905 334.159,203.028 333.914,203.028C333.786,203.028 333.676,202.988 333.586,202.908C333.495,202.828 333.45,202.724 333.45,202.596C333.45,202.553 333.471,202.468 333.514,202.34C334.399,200.217 334.842,198.047 334.842,195.828C334.842,193.609 334.399,191.439 333.514,189.316C333.471,189.188 333.45,189.103 333.45,189.06C333.45,188.932 333.495,188.828 333.586,188.748C333.676,188.668 333.786,188.628 333.914,188.628C334.159,188.628 334.351,188.751 334.49,188.996C335.61,191.172 336.17,193.449 336.17,195.828C336.17,198.207 335.61,200.484 334.49,202.66Z" style="fill:rgb(99,101,106);fill-rule:nonzero;"/>
        </g>
    </g>
</svg>
