<?xml version="1.0" encoding="UTF-8" standalone="no"?>
<!DOCTYPE svg PUBLIC "-//W3C//DTD SVG 1.1//EN" "http://www.w3.org/Graphics/SVG/1.1/DTD/svg11.dtd">
<svg width="100%" height="100%" viewBox="0 0 202 26" version="1.1" xmlns="http://www.w3.org/2000/svg" xmlns:xlink="http://www.w3.org/1999/xlink" xml:space="preserve" xmlns:serif="http://www.serif.com/" style="fill-rule:evenodd;clip-rule:evenodd;stroke-linecap:round;stroke-linejoin:round;stroke-miterlimit:1.5;">
    <g transform="matrix(1,0,0,1,-307,-510)">
        <g transform="matrix(1,0,0,1,-0.684275,0)">
            <g>
                <g transform="matrix(1,0,0,1,0.684275,-6)">
                    <path d="M309.083,540.017L507.04,540.017" style="fill:none;stroke:rgb(54,54,54);stroke-width:3px;"/>
                </g>
                <g transform="matrix(1,0,0,1,-25.7644,240.35)">
                    <path d="M350.444,281.956C350.242,281.956 350.079,281.897 349.956,281.78C349.834,281.663 349.772,281.508 349.772,281.316L349.772,271.316C349.772,271.124 349.834,270.969 349.956,270.852C350.079,270.735 350.242,270.676 350.444,270.676L356.428,270.676C356.62,270.676 356.77,270.724 356.876,270.82C356.983,270.916 357.036,271.049 357.036,271.22C357.036,271.391 356.983,271.524 356.876,271.62C356.77,271.716 356.62,271.764 356.428,271.764L351.068,271.764L351.068,275.684L356.108,275.684C356.3,275.684 356.45,275.732 356.556,275.828C356.663,275.924 356.716,276.057 356.716,276.228C356.716,276.399 356.663,276.532 356.556,276.628C356.45,276.724 356.3,276.772 356.108,276.772L351.068,276.772L351.068,280.868L356.428,280.868C356.62,280.868 356.77,280.913 356.876,281.004C356.983,281.095 357.036,281.231 357.036,281.412C357.036,281.583 356.983,281.716 356.876,281.812C356.77,281.908 356.62,281.956 356.428,281.956L350.444,281.956Z" style="fill:rgb(99,101,105);fill-rule:nonzero;"/>
                    <path d="M362.812,273.972C364.679,273.972 365.612,275.001 365.612,277.06L365.612,281.396C365.612,281.599 365.556,281.756 365.444,281.868C365.332,281.98 365.175,282.036 364.972,282.036C364.77,282.036 364.61,281.98 364.492,281.868C364.375,281.756 364.316,281.599 364.316,281.396L364.316,277.14C364.316,276.415 364.175,275.887 363.892,275.556C363.61,275.225 363.159,275.06 362.54,275.06C361.826,275.06 361.255,275.279 360.828,275.716C360.402,276.153 360.188,276.745 360.188,277.492L360.188,281.396C360.188,281.599 360.132,281.756 360.02,281.868C359.908,281.98 359.751,282.036 359.548,282.036C359.346,282.036 359.186,281.98 359.068,281.868C358.951,281.756 358.892,281.599 358.892,281.396L358.892,274.644C358.892,274.452 358.951,274.297 359.068,274.18C359.186,274.063 359.346,274.004 359.548,274.004C359.74,274.004 359.892,274.063 360.004,274.18C360.116,274.297 360.172,274.447 360.172,274.628L360.172,275.444C360.428,274.964 360.786,274.599 361.244,274.348C361.703,274.097 362.226,273.972 362.812,273.972Z" style="fill:rgb(99,101,105);fill-rule:nonzero;"/>
                    <path d="M374.236,270.596C374.439,270.596 374.599,270.655 374.716,270.772C374.834,270.889 374.892,271.039 374.892,271.22L374.892,281.396C374.892,281.588 374.834,281.743 374.716,281.86C374.599,281.977 374.439,282.036 374.236,282.036C374.034,282.036 373.876,281.977 373.764,281.86C373.652,281.743 373.596,281.588 373.596,281.396L373.596,280.532C373.362,281.023 373.018,281.401 372.564,281.668C372.111,281.935 371.58,282.068 370.972,282.068C370.29,282.068 369.687,281.897 369.164,281.556C368.642,281.215 368.236,280.737 367.948,280.124C367.66,279.511 367.516,278.799 367.516,277.988C367.516,277.188 367.66,276.484 367.948,275.876C368.236,275.268 368.642,274.799 369.164,274.468C369.687,274.137 370.29,273.972 370.972,273.972C371.58,273.972 372.111,274.105 372.564,274.372C373.018,274.639 373.362,275.017 373.596,275.508L373.596,271.22C373.596,271.028 373.652,270.876 373.764,270.764C373.876,270.652 374.034,270.596 374.236,270.596ZM371.228,280.996C371.986,280.996 372.57,280.737 372.98,280.22C373.391,279.703 373.596,278.969 373.596,278.02C373.596,277.071 373.391,276.34 372.98,275.828C372.57,275.316 371.986,275.06 371.228,275.06C370.471,275.06 369.882,275.316 369.46,275.828C369.039,276.34 368.828,277.06 368.828,277.988C368.828,278.937 369.039,279.676 369.46,280.204C369.882,280.732 370.471,280.996 371.228,280.996Z" style="fill:rgb(99,101,105);fill-rule:nonzero;"/>
                    <path d="M381.212,273.972C381.895,273.972 382.498,274.143 383.02,274.484C383.543,274.825 383.948,275.303 384.236,275.916C384.524,276.529 384.668,277.241 384.668,278.052C384.668,278.863 384.524,279.569 384.236,280.172C383.948,280.775 383.546,281.241 383.028,281.572C382.511,281.903 381.906,282.068 381.212,282.068C380.604,282.068 380.074,281.935 379.62,281.668C379.167,281.401 378.823,281.023 378.588,280.532L378.588,284.292C378.588,284.484 378.532,284.636 378.42,284.748C378.308,284.86 378.151,284.916 377.948,284.916C377.746,284.916 377.586,284.857 377.468,284.74C377.351,284.623 377.292,284.473 377.292,284.292L377.292,274.644C377.292,274.452 377.351,274.297 377.468,274.18C377.586,274.063 377.746,274.004 377.948,274.004C378.151,274.004 378.308,274.063 378.42,274.18C378.532,274.297 378.588,274.452 378.588,274.644L378.588,275.508C378.823,275.017 379.167,274.639 379.62,274.372C380.074,274.105 380.604,273.972 381.212,273.972ZM380.956,280.996C381.714,280.996 382.3,280.74 382.716,280.228C383.132,279.716 383.34,278.991 383.34,278.052C383.34,277.113 383.132,276.38 382.716,275.852C382.3,275.324 381.714,275.06 380.956,275.06C380.199,275.06 379.615,275.316 379.204,275.828C378.794,276.34 378.588,277.071 378.588,278.02C378.588,278.969 378.794,279.703 379.204,280.22C379.615,280.737 380.199,280.996 380.956,280.996Z" style="fill:rgb(99,101,105);fill-rule:nonzero;"/>
                    <path d="M389.836,282.068C389.1,282.068 388.452,281.903 387.892,281.572C387.332,281.241 386.9,280.769 386.596,280.156C386.292,279.543 386.14,278.831 386.14,278.02C386.14,277.209 386.292,276.497 386.596,275.884C386.9,275.271 387.332,274.799 387.892,274.468C388.452,274.137 389.1,273.972 389.836,273.972C390.572,273.972 391.223,274.137 391.788,274.468C392.354,274.799 392.788,275.271 393.092,275.884C393.396,276.497 393.548,277.209 393.548,278.02C393.548,278.831 393.396,279.543 393.092,280.156C392.788,280.769 392.354,281.241 391.788,281.572C391.223,281.903 390.572,282.068 389.836,282.068ZM389.836,280.996C390.604,280.996 391.194,280.743 391.604,280.236C392.015,279.729 392.22,278.991 392.22,278.02C392.22,277.071 392.012,276.337 391.596,275.82C391.18,275.303 390.594,275.044 389.836,275.044C389.079,275.044 388.492,275.303 388.076,275.82C387.66,276.337 387.452,277.071 387.452,278.02C387.452,278.98 387.658,279.716 388.068,280.228C388.479,280.74 389.068,280.996 389.836,280.996Z" style="fill:rgb(99,101,105);fill-rule:nonzero;"/>
                    <path d="M396.14,282.036C395.948,282.036 395.791,281.98 395.668,281.868C395.546,281.756 395.484,281.599 395.484,281.396L395.484,274.644C395.484,274.441 395.546,274.284 395.668,274.172C395.791,274.06 395.948,274.004 396.14,274.004C396.332,274.004 396.487,274.06 396.604,274.172C396.722,274.284 396.78,274.441 396.78,274.644L396.78,281.396C396.78,281.609 396.722,281.769 396.604,281.876C396.487,281.983 396.332,282.036 396.14,282.036ZM396.14,272.324C395.884,272.324 395.676,272.249 395.516,272.1C395.356,271.951 395.276,271.753 395.276,271.508C395.276,271.273 395.356,271.081 395.516,270.932C395.676,270.783 395.884,270.708 396.14,270.708C396.396,270.708 396.604,270.783 396.764,270.932C396.924,271.081 397.004,271.273 397.004,271.508C397.004,271.753 396.924,271.951 396.764,272.1C396.604,272.249 396.396,272.324 396.14,272.324Z" style="fill:rgb(99,101,105);fill-rule:nonzero;"/>
                    <path d="M403.116,273.972C404.983,273.972 405.916,275.001 405.916,277.06L405.916,281.396C405.916,281.599 405.86,281.756 405.748,281.868C405.636,281.98 405.479,282.036 405.276,282.036C405.074,282.036 404.914,281.98 404.796,281.868C404.679,281.756 404.62,281.599 404.62,281.396L404.62,277.14C404.62,276.415 404.479,275.887 404.196,275.556C403.914,275.225 403.463,275.06 402.844,275.06C402.13,275.06 401.559,275.279 401.132,275.716C400.706,276.153 400.492,276.745 400.492,277.492L400.492,281.396C400.492,281.599 400.436,281.756 400.324,281.868C400.212,281.98 400.055,282.036 399.852,282.036C399.65,282.036 399.49,281.98 399.372,281.868C399.255,281.756 399.196,281.599 399.196,281.396L399.196,274.644C399.196,274.452 399.255,274.297 399.372,274.18C399.49,274.063 399.65,274.004 399.852,274.004C400.044,274.004 400.196,274.063 400.308,274.18C400.42,274.297 400.476,274.447 400.476,274.628L400.476,275.444C400.732,274.964 401.09,274.599 401.548,274.348C402.007,274.097 402.53,273.972 403.116,273.972Z" style="fill:rgb(99,101,105);fill-rule:nonzero;"/>
                    <path d="M411.884,281.012C412.258,281.044 412.444,281.215 412.444,281.524C412.444,281.705 412.378,281.841 412.244,281.932C412.111,282.023 411.911,282.057 411.644,282.036L411.212,282.004C410.359,281.94 409.73,281.684 409.324,281.236C408.919,280.788 408.716,280.111 408.716,279.204L408.716,275.188L407.644,275.188C407.463,275.188 407.322,275.143 407.22,275.052C407.119,274.961 407.068,274.841 407.068,274.692C407.068,274.532 407.119,274.404 407.22,274.308C407.322,274.212 407.463,274.164 407.644,274.164L408.716,274.164L408.716,272.356C408.716,272.153 408.775,271.996 408.892,271.884C409.01,271.772 409.17,271.716 409.372,271.716C409.564,271.716 409.719,271.772 409.836,271.884C409.954,271.996 410.012,272.153 410.012,272.356L410.012,274.164L411.788,274.164C411.959,274.164 412.095,274.212 412.196,274.308C412.298,274.404 412.348,274.532 412.348,274.692C412.348,274.841 412.298,274.961 412.196,275.052C412.095,275.143 411.959,275.188 411.788,275.188L410.012,275.188L410.012,279.268C410.012,279.855 410.132,280.279 410.372,280.54C410.612,280.801 410.972,280.948 411.452,280.98L411.884,281.012Z" style="fill:rgb(99,101,105);fill-rule:nonzero;"/>
                </g>
            </g>
        </g>
    </g>
</svg>
