<?xml version="1.0" encoding="UTF-8" standalone="no"?>
<!DOCTYPE svg PUBLIC "-//W3C//DTD SVG 1.1//EN" "http://www.w3.org/Graphics/SVG/1.1/DTD/svg11.dtd">
<svg width="100%" height="100%" viewBox="0 0 142 21" version="1.1" xmlns="http://www.w3.org/2000/svg" xmlns:xlink="http://www.w3.org/1999/xlink" xml:space="preserve" xmlns:serif="http://www.serif.com/" style="fill-rule:evenodd;clip-rule:evenodd;stroke-linejoin:round;stroke-miterlimit:1.41421;">
    <g transform="matrix(1,0,0,1,-554,-357)">
        <g transform="matrix(1.42996,0,0,1.42996,-59.8625,-13.4792)">
            <path d="M430.428,270.779C430.246,270.779 430.094,270.723 429.972,270.611C429.849,270.499 429.788,270.353 429.788,270.171L429.788,260.091C429.788,259.889 429.846,259.726 429.964,259.603C430.081,259.481 430.241,259.419 430.444,259.419C430.646,259.419 430.806,259.481 430.924,259.603C431.041,259.726 431.1,259.889 431.1,260.091L431.1,269.659L436.268,269.659C436.46,269.659 436.609,269.707 436.716,269.803C436.822,269.899 436.876,270.038 436.876,270.219C436.876,270.401 436.822,270.539 436.716,270.635C436.609,270.731 436.46,270.779 436.268,270.779L430.428,270.779Z" style="fill:rgb(106,109,114);fill-rule:nonzero;"/>
            <path d="M441.452,270.891C440.716,270.891 440.068,270.726 439.508,270.395C438.948,270.065 438.516,269.593 438.212,268.979C437.908,268.366 437.756,267.654 437.756,266.843C437.756,266.033 437.908,265.321 438.212,264.707C438.516,264.094 438.948,263.622 439.508,263.291C440.068,262.961 440.716,262.795 441.452,262.795C442.188,262.795 442.838,262.961 443.404,263.291C443.969,263.622 444.404,264.094 444.708,264.707C445.012,265.321 445.164,266.033 445.164,266.843C445.164,267.654 445.012,268.366 444.708,268.979C444.404,269.593 443.969,270.065 443.404,270.395C442.838,270.726 442.188,270.891 441.452,270.891ZM441.452,269.819C442.22,269.819 442.809,269.566 443.22,269.059C443.63,268.553 443.836,267.814 443.836,266.843C443.836,265.894 443.628,265.161 443.212,264.643C442.796,264.126 442.209,263.867 441.452,263.867C440.694,263.867 440.108,264.126 439.692,264.643C439.276,265.161 439.068,265.894 439.068,266.843C439.068,267.803 439.273,268.539 439.684,269.051C440.094,269.563 440.684,269.819 441.452,269.819Z" style="fill:rgb(106,109,114);fill-rule:nonzero;"/>
            <path d="M453.42,262.827C453.622,262.827 453.782,262.886 453.9,263.003C454.017,263.121 454.076,263.275 454.076,263.467L454.076,270.251C454.076,271.414 453.777,272.291 453.18,272.883C452.582,273.475 451.697,273.771 450.524,273.771C449.382,273.771 448.433,273.547 447.676,273.099C447.292,272.886 447.1,272.641 447.1,272.363C447.1,272.214 447.14,272.091 447.22,271.995C447.3,271.899 447.404,271.851 447.532,271.851C447.638,271.851 447.83,271.926 448.108,272.075C448.481,272.267 448.849,272.422 449.212,272.539C449.574,272.657 450.006,272.715 450.508,272.715C451.265,272.715 451.836,272.515 452.22,272.115C452.604,271.715 452.796,271.131 452.796,270.363L452.796,268.987C452.572,269.489 452.228,269.873 451.764,270.139C451.3,270.406 450.753,270.539 450.124,270.539C449.441,270.539 448.836,270.379 448.308,270.059C447.78,269.739 447.369,269.286 447.076,268.699C446.782,268.113 446.636,267.435 446.636,266.667C446.636,265.899 446.782,265.222 447.076,264.635C447.369,264.049 447.78,263.595 448.308,263.275C448.836,262.955 449.441,262.795 450.124,262.795C450.742,262.795 451.281,262.929 451.74,263.195C452.198,263.462 452.545,263.841 452.78,264.331L452.78,263.467C452.78,263.275 452.836,263.121 452.948,263.003C453.06,262.886 453.217,262.827 453.42,262.827ZM450.38,269.467C451.126,269.467 451.713,269.219 452.14,268.723C452.566,268.227 452.78,267.542 452.78,266.667C452.78,265.803 452.569,265.123 452.148,264.627C451.726,264.131 451.137,263.883 450.38,263.883C449.622,263.883 449.028,264.131 448.596,264.627C448.164,265.123 447.948,265.803 447.948,266.667C447.948,267.542 448.164,268.227 448.596,268.723C449.028,269.219 449.622,269.467 450.38,269.467Z" style="fill:rgb(106,109,114);fill-rule:nonzero;"/>
            <path d="M465.58,270.907C464.513,270.907 463.59,270.675 462.812,270.211C462.033,269.747 461.433,269.081 461.012,268.211C460.59,267.342 460.38,266.315 460.38,265.131C460.38,263.958 460.59,262.937 461.012,262.067C461.433,261.198 462.033,260.531 462.812,260.067C463.59,259.603 464.513,259.371 465.58,259.371C466.294,259.371 466.969,259.486 467.604,259.715C468.238,259.945 468.79,260.273 469.26,260.699C469.43,260.859 469.516,261.046 469.516,261.259C469.516,261.409 469.473,261.539 469.388,261.651C469.302,261.763 469.201,261.819 469.084,261.819C468.956,261.819 468.801,261.761 468.62,261.643C468.076,261.217 467.582,260.918 467.14,260.747C466.697,260.577 466.188,260.491 465.612,260.491C464.374,260.491 463.422,260.894 462.756,261.699C462.089,262.505 461.756,263.649 461.756,265.131C461.756,266.625 462.089,267.774 462.756,268.579C463.422,269.385 464.374,269.787 465.612,269.787C466.177,269.787 466.684,269.702 467.132,269.531C467.58,269.361 468.076,269.062 468.62,268.635C468.801,268.518 468.956,268.459 469.084,268.459C469.201,268.459 469.302,268.513 469.388,268.619C469.473,268.726 469.516,268.859 469.516,269.019C469.516,269.233 469.43,269.419 469.26,269.579C468.79,270.006 468.238,270.334 467.604,270.563C466.969,270.793 466.294,270.907 465.58,270.907Z" style="fill:rgb(106,109,114);fill-rule:nonzero;"/>
            <path d="M474.508,270.891C473.772,270.891 473.124,270.726 472.564,270.395C472.004,270.065 471.572,269.593 471.268,268.979C470.964,268.366 470.812,267.654 470.812,266.843C470.812,266.033 470.964,265.321 471.268,264.707C471.572,264.094 472.004,263.622 472.564,263.291C473.124,262.961 473.772,262.795 474.508,262.795C475.244,262.795 475.894,262.961 476.46,263.291C477.025,263.622 477.46,264.094 477.764,264.707C478.068,265.321 478.22,266.033 478.22,266.843C478.22,267.654 478.068,268.366 477.764,268.979C477.46,269.593 477.025,270.065 476.46,270.395C475.894,270.726 475.244,270.891 474.508,270.891ZM474.508,269.819C475.276,269.819 475.865,269.566 476.276,269.059C476.686,268.553 476.892,267.814 476.892,266.843C476.892,265.894 476.684,265.161 476.268,264.643C475.852,264.126 475.265,263.867 474.508,263.867C473.75,263.867 473.164,264.126 472.748,264.643C472.332,265.161 472.124,265.894 472.124,266.843C472.124,267.803 472.329,268.539 472.74,269.051C473.15,269.563 473.74,269.819 474.508,269.819Z" style="fill:rgb(106,109,114);fill-rule:nonzero;"/>
            <path d="M480.812,270.859C480.62,270.859 480.462,270.803 480.34,270.691C480.217,270.579 480.156,270.422 480.156,270.219L480.156,260.059C480.156,259.857 480.217,259.699 480.34,259.587C480.462,259.475 480.62,259.419 480.812,259.419C480.993,259.419 481.145,259.475 481.268,259.587C481.39,259.699 481.452,259.857 481.452,260.059L481.452,270.219C481.452,270.422 481.39,270.579 481.268,270.691C481.145,270.803 480.993,270.859 480.812,270.859Z" style="fill:rgb(106,109,114);fill-rule:nonzero;"/>
            <path d="M484.524,270.859C484.332,270.859 484.174,270.803 484.052,270.691C483.929,270.579 483.868,270.422 483.868,270.219L483.868,260.059C483.868,259.857 483.929,259.699 484.052,259.587C484.174,259.475 484.332,259.419 484.524,259.419C484.705,259.419 484.857,259.475 484.98,259.587C485.102,259.699 485.164,259.857 485.164,260.059L485.164,270.219C485.164,270.422 485.102,270.579 484.98,270.691C484.857,270.803 484.705,270.859 484.524,270.859Z" style="fill:rgb(106,109,114);fill-rule:nonzero;"/>
            <path d="M493.612,268.971C493.729,268.971 493.83,269.019 493.916,269.115C494.001,269.211 494.044,269.334 494.044,269.483C494.044,269.75 493.857,269.995 493.484,270.219C493.1,270.443 492.694,270.611 492.268,270.723C491.841,270.835 491.425,270.891 491.02,270.891C489.814,270.891 488.862,270.534 488.164,269.819C487.465,269.105 487.116,268.118 487.116,266.859C487.116,266.059 487.27,265.353 487.58,264.739C487.889,264.126 488.324,263.649 488.884,263.307C489.444,262.966 490.081,262.795 490.796,262.795C491.809,262.795 492.614,263.126 493.212,263.787C493.809,264.449 494.108,265.345 494.108,266.475C494.108,266.689 494.065,266.843 493.98,266.939C493.894,267.035 493.756,267.083 493.564,267.083L488.412,267.083C488.508,268.918 489.377,269.835 491.02,269.835C491.436,269.835 491.793,269.779 492.092,269.667C492.39,269.555 492.71,269.403 493.052,269.211C493.329,269.051 493.516,268.971 493.612,268.971ZM490.812,263.803C490.129,263.803 489.582,264.017 489.172,264.443C488.761,264.87 488.518,265.473 488.444,266.251L492.972,266.251C492.95,265.462 492.753,264.857 492.38,264.435C492.006,264.014 491.484,263.803 490.812,263.803Z" style="fill:rgb(106,109,114);fill-rule:nonzero;"/>
            <path d="M499.228,270.891C498.502,270.891 497.86,270.726 497.3,270.395C496.74,270.065 496.308,269.595 496.004,268.987C495.7,268.379 495.548,267.675 495.548,266.875C495.548,266.075 495.705,265.366 496.02,264.747C496.334,264.129 496.774,263.649 497.34,263.307C497.905,262.966 498.556,262.795 499.292,262.795C499.697,262.795 500.1,262.851 500.5,262.963C500.9,263.075 501.249,263.238 501.548,263.451C501.74,263.579 501.876,263.705 501.956,263.827C502.036,263.95 502.076,264.086 502.076,264.235C502.076,264.385 502.036,264.507 501.956,264.603C501.876,264.699 501.772,264.747 501.644,264.747C501.569,264.747 501.489,264.726 501.404,264.683C501.318,264.641 501.246,264.598 501.188,264.555C501.129,264.513 501.089,264.486 501.068,264.475C500.79,264.294 500.526,264.15 500.276,264.043C500.025,263.937 499.718,263.883 499.356,263.883C498.577,263.883 497.972,264.147 497.54,264.675C497.108,265.203 496.892,265.937 496.892,266.875C496.892,267.814 497.108,268.539 497.54,269.051C497.972,269.563 498.577,269.819 499.356,269.819C499.718,269.819 500.03,269.766 500.292,269.659C500.553,269.553 500.817,269.409 501.084,269.227C501.201,269.153 501.313,269.089 501.42,269.035C501.526,268.982 501.617,268.955 501.692,268.955C501.809,268.955 501.908,269.003 501.988,269.099C502.068,269.195 502.108,269.318 502.108,269.467C502.108,269.606 502.07,269.731 501.996,269.843C501.921,269.955 501.782,270.081 501.58,270.219C501.281,270.422 500.921,270.585 500.5,270.707C500.078,270.83 499.654,270.891 499.228,270.891Z" style="fill:rgb(106,109,114);fill-rule:nonzero;"/>
            <path d="M507.292,269.835C507.665,269.867 507.852,270.038 507.852,270.347C507.852,270.529 507.785,270.665 507.652,270.755C507.518,270.846 507.318,270.881 507.052,270.859L506.62,270.827C505.766,270.763 505.137,270.507 504.732,270.059C504.326,269.611 504.124,268.934 504.124,268.027L504.124,264.011L503.052,264.011C502.87,264.011 502.729,263.966 502.628,263.875C502.526,263.785 502.476,263.665 502.476,263.515C502.476,263.355 502.526,263.227 502.628,263.131C502.729,263.035 502.87,262.987 503.052,262.987L504.124,262.987L504.124,261.179C504.124,260.977 504.182,260.819 504.3,260.707C504.417,260.595 504.577,260.539 504.78,260.539C504.972,260.539 505.126,260.595 505.244,260.707C505.361,260.819 505.42,260.977 505.42,261.179L505.42,262.987L507.196,262.987C507.366,262.987 507.502,263.035 507.604,263.131C507.705,263.227 507.756,263.355 507.756,263.515C507.756,263.665 507.705,263.785 507.604,263.875C507.502,263.966 507.366,264.011 507.196,264.011L505.42,264.011L505.42,268.091C505.42,268.678 505.54,269.102 505.78,269.363C506.02,269.625 506.38,269.771 506.86,269.803L507.292,269.835Z" style="fill:rgb(106,109,114);fill-rule:nonzero;"/>
            <path d="M509.788,270.859C509.596,270.859 509.438,270.803 509.316,270.691C509.193,270.579 509.132,270.422 509.132,270.219L509.132,263.467C509.132,263.265 509.193,263.107 509.316,262.995C509.438,262.883 509.596,262.827 509.788,262.827C509.98,262.827 510.134,262.883 510.252,262.995C510.369,263.107 510.428,263.265 510.428,263.467L510.428,270.219C510.428,270.433 510.369,270.593 510.252,270.699C510.134,270.806 509.98,270.859 509.788,270.859ZM509.788,261.147C509.532,261.147 509.324,261.073 509.164,260.923C509.004,260.774 508.924,260.577 508.924,260.331C508.924,260.097 509.004,259.905 509.164,259.755C509.324,259.606 509.532,259.531 509.788,259.531C510.044,259.531 510.252,259.606 510.412,259.755C510.572,259.905 510.652,260.097 510.652,260.331C510.652,260.577 510.572,260.774 510.412,260.923C510.252,261.073 510.044,261.147 509.788,261.147Z" style="fill:rgb(106,109,114);fill-rule:nonzero;"/>
            <path d="M516.076,270.891C515.34,270.891 514.692,270.726 514.132,270.395C513.572,270.065 513.14,269.593 512.836,268.979C512.532,268.366 512.38,267.654 512.38,266.843C512.38,266.033 512.532,265.321 512.836,264.707C513.14,264.094 513.572,263.622 514.132,263.291C514.692,262.961 515.34,262.795 516.076,262.795C516.812,262.795 517.462,262.961 518.028,263.291C518.593,263.622 519.028,264.094 519.332,264.707C519.636,265.321 519.788,266.033 519.788,266.843C519.788,267.654 519.636,268.366 519.332,268.979C519.028,269.593 518.593,270.065 518.028,270.395C517.462,270.726 516.812,270.891 516.076,270.891ZM516.076,269.819C516.844,269.819 517.433,269.566 517.844,269.059C518.254,268.553 518.46,267.814 518.46,266.843C518.46,265.894 518.252,265.161 517.836,264.643C517.42,264.126 516.833,263.867 516.076,263.867C515.318,263.867 514.732,264.126 514.316,264.643C513.9,265.161 513.692,265.894 513.692,266.843C513.692,267.803 513.897,268.539 514.308,269.051C514.718,269.563 515.308,269.819 516.076,269.819Z" style="fill:rgb(106,109,114);fill-rule:nonzero;"/>
            <path d="M525.644,262.795C527.51,262.795 528.444,263.825 528.444,265.883L528.444,270.219C528.444,270.422 528.388,270.579 528.276,270.691C528.164,270.803 528.006,270.859 527.804,270.859C527.601,270.859 527.441,270.803 527.324,270.691C527.206,270.579 527.148,270.422 527.148,270.219L527.148,265.963C527.148,265.238 527.006,264.71 526.724,264.379C526.441,264.049 525.99,263.883 525.372,263.883C524.657,263.883 524.086,264.102 523.66,264.539C523.233,264.977 523.02,265.569 523.02,266.315L523.02,270.219C523.02,270.422 522.964,270.579 522.852,270.691C522.74,270.803 522.582,270.859 522.38,270.859C522.177,270.859 522.017,270.803 521.9,270.691C521.782,270.579 521.724,270.422 521.724,270.219L521.724,263.467C521.724,263.275 521.782,263.121 521.9,263.003C522.017,262.886 522.177,262.827 522.38,262.827C522.572,262.827 522.724,262.886 522.836,263.003C522.948,263.121 523.004,263.27 523.004,263.451L523.004,264.267C523.26,263.787 523.617,263.422 524.076,263.171C524.534,262.921 525.057,262.795 525.644,262.795Z" style="fill:rgb(106,109,114);fill-rule:nonzero;"/>
        </g>
    </g>
</svg>
