<?xml version="1.0" encoding="UTF-8" standalone="no"?>
<!DOCTYPE svg PUBLIC "-//W3C//DTD SVG 1.1//EN" "http://www.w3.org/Graphics/SVG/1.1/DTD/svg11.dtd">
<svg width="100%" height="100%" viewBox="0 0 18 6" version="1.1" xmlns="http://www.w3.org/2000/svg" xmlns:xlink="http://www.w3.org/1999/xlink" xml:space="preserve" xmlns:serif="http://www.serif.com/" style="fill-rule:evenodd;clip-rule:evenodd;stroke-linejoin:round;stroke-miterlimit:1.41421;">
    <g transform="matrix(1,0,0,1,-31,-8)">
        <g transform="matrix(0.243001,0,0,0.243001,0.829822,3.93928)">
            <g transform="matrix(1,0,0,1,112.224,25.7627)">
                <path d="M22.38,-0.592C22.414,-0.525 22.431,-0.454 22.431,-0.378C22.431,-0.252 22.382,-0.147 22.286,-0.063C22.189,0.021 22.074,0.063 21.939,0.063C21.729,0.063 21.582,-0.038 21.498,-0.239L20.604,-2.281L15.853,-2.281L14.946,-0.239C14.862,-0.038 14.715,0.063 14.505,0.063C14.371,0.063 14.253,0.019 14.152,-0.069C14.052,-0.157 14.001,-0.265 14.001,-0.391C14.001,-0.458 14.018,-0.525 14.052,-0.592L17.655,-8.606C17.706,-8.723 17.781,-8.812 17.882,-8.87C17.983,-8.929 18.092,-8.959 18.21,-8.959C18.336,-8.959 18.449,-8.927 18.55,-8.864C18.651,-8.801 18.726,-8.715 18.777,-8.606L22.38,-0.592ZM16.231,-3.137L20.226,-3.137L18.222,-7.661L16.231,-3.137Z" style="fill:white;fill-rule:nonzero;"/>
                <path d="M26.798,-6.287C28.268,-6.287 29.003,-5.477 29.003,-3.856L29.003,-0.441C29.003,-0.281 28.959,-0.157 28.87,-0.069C28.782,0.019 28.658,0.063 28.499,0.063C28.339,0.063 28.213,0.019 28.121,-0.069C28.028,-0.157 27.982,-0.281 27.982,-0.441L27.982,-3.793C27.982,-4.364 27.871,-4.78 27.648,-5.04C27.426,-5.3 27.071,-5.431 26.583,-5.431C26.021,-5.431 25.571,-5.258 25.235,-4.914C24.899,-4.57 24.731,-4.103 24.731,-3.515L24.731,-0.441C24.731,-0.281 24.687,-0.157 24.599,-0.069C24.511,0.019 24.387,0.063 24.227,0.063C24.068,0.063 23.942,0.019 23.849,-0.069C23.757,-0.157 23.711,-0.281 23.711,-0.441L23.711,-5.758C23.711,-5.909 23.757,-6.031 23.849,-6.124C23.942,-6.216 24.068,-6.262 24.227,-6.262C24.378,-6.262 24.498,-6.216 24.586,-6.124C24.675,-6.031 24.719,-5.914 24.719,-5.771L24.719,-5.128C24.92,-5.506 25.202,-5.794 25.563,-5.991C25.924,-6.189 26.336,-6.287 26.798,-6.287Z" style="fill:white;fill-rule:nonzero;"/>
                <path d="M33.672,-0.743C33.966,-0.718 34.113,-0.584 34.113,-0.34C34.113,-0.197 34.061,-0.09 33.956,-0.019C33.851,0.053 33.693,0.08 33.483,0.063L33.143,0.038C32.471,-0.013 31.975,-0.214 31.656,-0.567C31.337,-0.92 31.177,-1.453 31.177,-2.167L31.177,-5.33L30.333,-5.33C30.19,-5.33 30.079,-5.365 29.999,-5.437C29.92,-5.508 29.88,-5.603 29.88,-5.72C29.88,-5.846 29.92,-5.947 29.999,-6.023C30.079,-6.098 30.19,-6.136 30.333,-6.136L31.177,-6.136L31.177,-7.56C31.177,-7.72 31.224,-7.844 31.316,-7.932C31.408,-8.02 31.534,-8.064 31.694,-8.064C31.845,-8.064 31.967,-8.02 32.059,-7.932C32.152,-7.844 32.198,-7.72 32.198,-7.56L32.198,-6.136L33.597,-6.136C33.731,-6.136 33.838,-6.098 33.918,-6.023C33.998,-5.947 34.038,-5.846 34.038,-5.72C34.038,-5.603 33.998,-5.508 33.918,-5.437C33.838,-5.365 33.731,-5.33 33.597,-5.33L32.198,-5.33L32.198,-2.117C32.198,-1.655 32.293,-1.321 32.482,-1.115C32.671,-0.909 32.954,-0.794 33.332,-0.769L33.672,-0.743Z" style="fill:white;fill-rule:nonzero;"/>
                <path d="M35.608,0.063C35.456,0.063 35.333,0.019 35.236,-0.069C35.139,-0.157 35.091,-0.281 35.091,-0.441L35.091,-5.758C35.091,-5.918 35.139,-6.042 35.236,-6.13C35.333,-6.218 35.456,-6.262 35.608,-6.262C35.759,-6.262 35.881,-6.218 35.973,-6.13C36.065,-6.042 36.112,-5.918 36.112,-5.758L36.112,-0.441C36.112,-0.273 36.065,-0.147 35.973,-0.063C35.881,0.021 35.759,0.063 35.608,0.063ZM35.608,-7.585C35.406,-7.585 35.242,-7.644 35.116,-7.762C34.99,-7.879 34.927,-8.035 34.927,-8.228C34.927,-8.413 34.99,-8.564 35.116,-8.681C35.242,-8.799 35.406,-8.858 35.608,-8.858C35.809,-8.858 35.973,-8.799 36.099,-8.681C36.225,-8.564 36.288,-8.413 36.288,-8.228C36.288,-8.035 36.225,-7.879 36.099,-7.762C35.973,-7.644 35.809,-7.585 35.608,-7.585Z" style="fill:white;fill-rule:nonzero;"/>
                <path d="M38.324,-2.936C38.173,-2.936 38.057,-2.974 37.978,-3.049C37.898,-3.125 37.858,-3.226 37.858,-3.352C37.858,-3.478 37.898,-3.581 37.978,-3.66C38.057,-3.74 38.173,-3.78 38.324,-3.78L41.096,-3.78C41.256,-3.78 41.375,-3.74 41.455,-3.66C41.535,-3.581 41.575,-3.478 41.575,-3.352C41.575,-3.226 41.535,-3.125 41.455,-3.049C41.375,-2.974 41.256,-2.936 41.096,-2.936L38.324,-2.936Z" style="fill:white;fill-rule:nonzero;"/>
                <path d="M49.458,-8.681C49.5,-8.774 49.56,-8.845 49.64,-8.896C49.72,-8.946 49.806,-8.971 49.899,-8.971C50.033,-8.971 50.153,-8.927 50.258,-8.839C50.363,-8.751 50.415,-8.644 50.415,-8.518C50.415,-8.45 50.398,-8.383 50.365,-8.316L46.749,-0.277C46.698,-0.168 46.623,-0.084 46.522,-0.025C46.421,0.034 46.312,0.063 46.194,0.063C46.077,0.063 45.967,0.034 45.867,-0.025C45.766,-0.084 45.69,-0.168 45.64,-0.277L42.036,-8.316C42.011,-8.383 41.998,-8.446 41.998,-8.505C41.998,-8.639 42.053,-8.751 42.162,-8.839C42.271,-8.927 42.393,-8.971 42.528,-8.971C42.729,-8.971 42.876,-8.875 42.969,-8.681L46.219,-1.336L49.458,-8.681Z" style="fill:white;fill-rule:nonzero;"/>
                <path d="M51.985,0.063C51.834,0.063 51.71,0.019 51.613,-0.069C51.517,-0.157 51.468,-0.281 51.468,-0.441L51.468,-5.758C51.468,-5.918 51.517,-6.042 51.613,-6.13C51.71,-6.218 51.834,-6.262 51.985,-6.262C52.136,-6.262 52.258,-6.218 52.35,-6.13C52.443,-6.042 52.489,-5.918 52.489,-5.758L52.489,-0.441C52.489,-0.273 52.443,-0.147 52.35,-0.063C52.258,0.021 52.136,0.063 51.985,0.063ZM51.985,-7.585C51.783,-7.585 51.62,-7.644 51.494,-7.762C51.368,-7.879 51.305,-8.035 51.305,-8.228C51.305,-8.413 51.368,-8.564 51.494,-8.681C51.62,-8.799 51.783,-8.858 51.985,-8.858C52.187,-8.858 52.35,-8.799 52.476,-8.681C52.602,-8.564 52.665,-8.413 52.665,-8.228C52.665,-8.035 52.602,-7.879 52.476,-7.762C52.35,-7.644 52.187,-7.585 51.985,-7.585Z" style="fill:white;fill-rule:nonzero;"/>
                <path d="M57.398,-6.262C57.751,-6.287 57.927,-6.145 57.927,-5.834C57.927,-5.699 57.889,-5.592 57.814,-5.513C57.738,-5.433 57.608,-5.384 57.423,-5.368L57.045,-5.33C56.482,-5.279 56.065,-5.08 55.792,-4.731C55.519,-4.383 55.382,-3.973 55.382,-3.503L55.382,-0.441C55.382,-0.273 55.336,-0.147 55.243,-0.063C55.151,0.021 55.029,0.063 54.878,0.063C54.727,0.063 54.603,0.019 54.506,-0.069C54.41,-0.157 54.361,-0.281 54.361,-0.441L54.361,-5.758C54.361,-5.918 54.412,-6.042 54.513,-6.13C54.613,-6.218 54.735,-6.262 54.878,-6.262C55.012,-6.262 55.126,-6.218 55.218,-6.13C55.311,-6.042 55.357,-5.922 55.357,-5.771L55.357,-5.065C55.533,-5.435 55.783,-5.716 56.107,-5.909C56.43,-6.103 56.802,-6.216 57.222,-6.25L57.398,-6.262Z" style="fill:white;fill-rule:nonzero;"/>
                <path d="M63.441,-6.262C63.601,-6.262 63.725,-6.216 63.813,-6.124C63.901,-6.031 63.945,-5.909 63.945,-5.758L63.945,-0.428C63.945,-0.286 63.901,-0.168 63.813,-0.076C63.725,0.017 63.601,0.063 63.441,0.063C63.29,0.063 63.17,0.019 63.082,-0.069C62.994,-0.157 62.95,-0.273 62.95,-0.416L62.95,-1.046C62.756,-0.676 62.486,-0.395 62.137,-0.202C61.788,-0.008 61.396,0.088 60.959,0.088C60.228,0.088 59.678,-0.116 59.308,-0.523C58.939,-0.93 58.754,-1.533 58.754,-2.331L58.754,-5.758C58.754,-5.909 58.8,-6.031 58.892,-6.124C58.985,-6.216 59.111,-6.262 59.27,-6.262C59.43,-6.262 59.554,-6.216 59.642,-6.124C59.73,-6.031 59.774,-5.909 59.774,-5.758L59.774,-2.356C59.774,-1.81 59.884,-1.409 60.102,-1.153C60.32,-0.897 60.665,-0.769 61.135,-0.769C61.673,-0.769 62.105,-0.943 62.433,-1.292C62.761,-1.64 62.924,-2.1 62.924,-2.671L62.924,-5.758C62.924,-5.909 62.971,-6.031 63.063,-6.124C63.155,-6.216 63.281,-6.262 63.441,-6.262Z" style="fill:white;fill-rule:nonzero;"/>
                <path d="M67.884,0.088C67.497,0.088 67.13,0.042 66.781,-0.05C66.433,-0.143 66.124,-0.273 65.855,-0.441C65.704,-0.542 65.597,-0.636 65.534,-0.725C65.471,-0.813 65.439,-0.92 65.439,-1.046C65.439,-1.155 65.471,-1.245 65.534,-1.317C65.597,-1.388 65.679,-1.424 65.78,-1.424C65.88,-1.424 66.027,-1.361 66.221,-1.235C66.473,-1.084 66.722,-0.964 66.97,-0.876C67.218,-0.788 67.527,-0.743 67.896,-0.743C68.35,-0.743 68.703,-0.823 68.955,-0.983C69.207,-1.142 69.333,-1.373 69.333,-1.676C69.333,-1.861 69.287,-2.01 69.194,-2.123C69.102,-2.237 68.942,-2.337 68.715,-2.426C68.489,-2.514 68.157,-2.604 67.72,-2.696C66.981,-2.856 66.452,-3.07 66.132,-3.339C65.813,-3.608 65.654,-3.973 65.654,-4.435C65.654,-4.796 65.754,-5.116 65.956,-5.393C66.158,-5.67 66.437,-5.888 66.794,-6.048C67.151,-6.208 67.556,-6.287 68.01,-6.287C68.337,-6.287 68.654,-6.243 68.961,-6.155C69.268,-6.067 69.539,-5.943 69.774,-5.783C70.059,-5.582 70.202,-5.372 70.202,-5.153C70.202,-5.044 70.169,-4.952 70.101,-4.876C70.034,-4.801 69.954,-4.763 69.862,-4.763C69.761,-4.763 69.61,-4.834 69.408,-4.977C69.173,-5.128 68.951,-5.246 68.741,-5.33C68.531,-5.414 68.27,-5.456 67.959,-5.456C67.565,-5.456 67.247,-5.368 67.008,-5.191C66.769,-5.015 66.649,-4.78 66.649,-4.486C66.649,-4.301 66.693,-4.152 66.781,-4.038C66.869,-3.925 67.016,-3.824 67.222,-3.736C67.428,-3.648 67.724,-3.562 68.111,-3.478C68.682,-3.352 69.125,-3.213 69.44,-3.062C69.755,-2.911 69.98,-2.726 70.114,-2.507C70.248,-2.289 70.316,-2.012 70.316,-1.676C70.316,-1.147 70.093,-0.72 69.648,-0.397C69.203,-0.074 68.615,0.088 67.884,0.088Z" style="fill:white;fill-rule:nonzero;"/>
                <path d="M82.238,-0.63C82.322,-0.538 82.364,-0.437 82.364,-0.328C82.364,-0.218 82.32,-0.12 82.231,-0.032C82.143,0.057 82.04,0.101 81.923,0.101C81.805,0.101 81.7,0.055 81.608,-0.038L80.448,-1.247C80.07,-0.811 79.638,-0.479 79.151,-0.252C78.663,-0.025 78.151,0.088 77.613,0.088C77.059,0.088 76.568,-0.006 76.139,-0.195C75.711,-0.384 75.375,-0.655 75.131,-1.008C74.888,-1.361 74.766,-1.768 74.766,-2.23C74.766,-2.785 74.938,-3.278 75.282,-3.711C75.627,-4.143 76.152,-4.565 76.857,-4.977C76.488,-5.363 76.217,-5.712 76.045,-6.023C75.873,-6.334 75.786,-6.67 75.786,-7.031C75.786,-7.636 75.992,-8.11 76.404,-8.455C76.815,-8.799 77.336,-8.971 77.966,-8.971C78.571,-8.971 79.054,-8.812 79.415,-8.492C79.776,-8.173 79.957,-7.736 79.957,-7.182C79.957,-6.728 79.816,-6.325 79.535,-5.972C79.254,-5.62 78.81,-5.25 78.206,-4.864L80.335,-2.621C80.621,-3.234 80.789,-3.965 80.839,-4.813C80.847,-4.964 80.898,-5.08 80.99,-5.16C81.083,-5.239 81.188,-5.279 81.305,-5.279C81.431,-5.279 81.536,-5.235 81.62,-5.147C81.704,-5.059 81.742,-4.939 81.734,-4.788C81.658,-3.696 81.398,-2.755 80.952,-1.966L82.238,-0.63ZM77.979,-8.19C77.618,-8.19 77.324,-8.085 77.097,-7.875C76.87,-7.665 76.757,-7.384 76.757,-7.031C76.757,-6.77 76.826,-6.523 76.965,-6.287C77.103,-6.052 77.328,-5.775 77.639,-5.456C78.159,-5.792 78.527,-6.082 78.741,-6.325C78.955,-6.569 79.062,-6.838 79.062,-7.132C79.062,-7.451 78.964,-7.707 78.766,-7.9C78.569,-8.093 78.306,-8.19 77.979,-8.19ZM77.651,-0.743C78.071,-0.743 78.47,-0.836 78.848,-1.021C79.226,-1.205 79.562,-1.483 79.856,-1.852L77.412,-4.385C76.799,-4.015 76.372,-3.669 76.133,-3.345C75.894,-3.022 75.774,-2.659 75.774,-2.255C75.774,-1.785 75.944,-1.415 76.284,-1.147C76.624,-0.878 77.08,-0.743 77.651,-0.743Z" style="fill:white;fill-rule:nonzero;"/>
                <path d="M26.348,12.008C26.381,12.075 26.398,12.146 26.398,12.222C26.398,12.348 26.35,12.453 26.253,12.537C26.157,12.621 26.041,12.663 25.907,12.663C25.697,12.663 25.55,12.562 25.466,12.361L24.571,10.319L19.821,10.319L18.914,12.361C18.83,12.562 18.683,12.663 18.473,12.663C18.338,12.663 18.221,12.619 18.12,12.531C18.019,12.442 17.969,12.335 17.969,12.209C17.969,12.142 17.986,12.075 18.019,12.008L21.623,3.994C21.673,3.877 21.749,3.788 21.85,3.73C21.95,3.671 22.06,3.641 22.177,3.641C22.303,3.641 22.417,3.673 22.517,3.736C22.618,3.799 22.694,3.885 22.744,3.994L26.348,12.008ZM20.199,9.463L24.193,9.463L22.19,4.939L20.199,9.463Z" style="fill:white;fill-rule:nonzero;"/>
                <path d="M30.765,6.313C32.235,6.313 32.97,7.123 32.97,8.744L32.97,12.159C32.97,12.319 32.926,12.442 32.838,12.531C32.75,12.619 32.626,12.663 32.466,12.663C32.307,12.663 32.181,12.619 32.088,12.531C31.996,12.442 31.95,12.319 31.95,12.159L31.95,8.807C31.95,8.236 31.839,7.82 31.616,7.56C31.393,7.3 31.038,7.169 30.551,7.169C29.988,7.169 29.539,7.342 29.203,7.686C28.867,8.03 28.699,8.497 28.699,9.085L28.699,12.159C28.699,12.319 28.655,12.442 28.567,12.531C28.479,12.619 28.355,12.663 28.195,12.663C28.035,12.663 27.909,12.619 27.817,12.531C27.725,12.442 27.678,12.319 27.678,12.159L27.678,6.842C27.678,6.691 27.725,6.569 27.817,6.476C27.909,6.384 28.035,6.338 28.195,6.338C28.346,6.338 28.466,6.384 28.554,6.476C28.642,6.569 28.686,6.686 28.686,6.829L28.686,7.472C28.888,7.094 29.169,6.806 29.531,6.609C29.892,6.411 30.303,6.313 30.765,6.313Z" style="fill:white;fill-rule:nonzero;"/>
                <path d="M37.64,11.857C37.934,11.882 38.081,12.016 38.081,12.26C38.081,12.403 38.028,12.51 37.923,12.581C37.818,12.653 37.661,12.68 37.451,12.663L37.111,12.638C36.439,12.587 35.943,12.386 35.624,12.033C35.305,11.68 35.145,11.147 35.145,10.433L35.145,7.27L34.301,7.27C34.158,7.27 34.047,7.235 33.967,7.163C33.887,7.092 33.847,6.997 33.847,6.88C33.847,6.754 33.887,6.653 33.967,6.577C34.047,6.502 34.158,6.464 34.301,6.464L35.145,6.464L35.145,5.04C35.145,4.88 35.191,4.756 35.284,4.668C35.376,4.58 35.502,4.536 35.662,4.536C35.813,4.536 35.935,4.58 36.027,4.668C36.12,4.756 36.166,4.88 36.166,5.04L36.166,6.464L37.564,6.464C37.699,6.464 37.806,6.502 37.886,6.577C37.965,6.653 38.005,6.754 38.005,6.88C38.005,6.997 37.965,7.092 37.886,7.163C37.806,7.235 37.699,7.27 37.564,7.27L36.166,7.27L36.166,10.483C36.166,10.945 36.26,11.279 36.449,11.485C36.638,11.691 36.922,11.806 37.3,11.831L37.64,11.857Z" style="fill:white;fill-rule:nonzero;"/>
                <path d="M39.575,12.663C39.424,12.663 39.3,12.619 39.204,12.531C39.107,12.442 39.059,12.319 39.059,12.159L39.059,6.842C39.059,6.682 39.107,6.558 39.204,6.47C39.3,6.382 39.424,6.338 39.575,6.338C39.727,6.338 39.848,6.382 39.941,6.47C40.033,6.558 40.079,6.682 40.079,6.842L40.079,12.159C40.079,12.327 40.033,12.453 39.941,12.537C39.848,12.621 39.727,12.663 39.575,12.663ZM39.575,5.015C39.374,5.015 39.21,4.956 39.084,4.838C38.958,4.721 38.895,4.565 38.895,4.372C38.895,4.187 38.958,4.036 39.084,3.919C39.21,3.801 39.374,3.742 39.575,3.742C39.777,3.742 39.941,3.801 40.067,3.919C40.193,4.036 40.256,4.187 40.256,4.372C40.256,4.565 40.193,4.721 40.067,4.838C39.941,4.956 39.777,5.015 39.575,5.015Z" style="fill:white;fill-rule:nonzero;"/>
                <path d="M42.292,9.664C42.141,9.664 42.025,9.626 41.945,9.551C41.866,9.475 41.826,9.374 41.826,9.248C41.826,9.122 41.866,9.019 41.945,8.94C42.025,8.86 42.141,8.82 42.292,8.82L45.064,8.82C45.224,8.82 45.343,8.86 45.423,8.94C45.503,9.019 45.543,9.122 45.543,9.248C45.543,9.374 45.503,9.475 45.423,9.551C45.343,9.626 45.224,9.664 45.064,9.664L42.292,9.664Z" style="fill:white;fill-rule:nonzero;"/>
                <path d="M50.011,12.701C49.381,12.701 48.778,12.606 48.203,12.417C47.627,12.228 47.167,11.974 46.823,11.655C46.697,11.537 46.634,11.39 46.634,11.214C46.634,11.096 46.667,10.993 46.735,10.905C46.802,10.817 46.882,10.773 46.974,10.773C47.083,10.773 47.201,10.819 47.327,10.912C48.108,11.516 48.998,11.819 49.998,11.819C50.72,11.819 51.275,11.68 51.661,11.403C52.048,11.126 52.241,10.731 52.241,10.219C52.241,9.925 52.148,9.687 51.964,9.507C51.779,9.326 51.535,9.181 51.233,9.072C50.93,8.963 50.523,8.849 50.011,8.732C49.322,8.572 48.757,8.404 48.316,8.228C47.875,8.051 47.518,7.799 47.245,7.472C46.972,7.144 46.835,6.716 46.835,6.187C46.835,5.683 46.972,5.235 47.245,4.845C47.518,4.454 47.9,4.152 48.392,3.938C48.883,3.723 49.444,3.616 50.074,3.616C50.662,3.616 51.21,3.707 51.718,3.887C52.226,4.068 52.652,4.326 52.997,4.662C53.131,4.796 53.198,4.943 53.198,5.103C53.198,5.221 53.165,5.324 53.098,5.412C53.03,5.5 52.951,5.544 52.858,5.544C52.766,5.544 52.644,5.498 52.493,5.405C52.081,5.069 51.699,4.834 51.346,4.7C50.993,4.565 50.569,4.498 50.074,4.498C49.376,4.498 48.835,4.643 48.448,4.933C48.062,5.223 47.869,5.628 47.869,6.149C47.869,6.594 48.039,6.928 48.379,7.151C48.719,7.373 49.242,7.568 49.948,7.736C50.712,7.921 51.313,8.091 51.749,8.247C52.186,8.402 52.55,8.635 52.839,8.946C53.129,9.257 53.274,9.673 53.274,10.193C53.274,10.689 53.138,11.126 52.865,11.504C52.592,11.882 52.207,12.176 51.712,12.386C51.216,12.596 50.649,12.701 50.011,12.701Z" style="fill:white;fill-rule:nonzero;"/>
                <path d="M57.855,6.313C58.393,6.313 58.868,6.447 59.279,6.716C59.691,6.985 60.01,7.361 60.237,7.843C60.464,8.327 60.577,8.887 60.577,9.526C60.577,10.164 60.464,10.721 60.237,11.195C60.01,11.67 59.693,12.037 59.286,12.298C58.878,12.558 58.401,12.688 57.855,12.688C57.377,12.688 56.959,12.583 56.602,12.373C56.245,12.163 55.974,11.865 55.789,11.479L55.789,14.44C55.789,14.591 55.745,14.711 55.657,14.799C55.569,14.887 55.445,14.931 55.285,14.931C55.125,14.931 54.999,14.885 54.907,14.792C54.815,14.7 54.768,14.582 54.768,14.44L54.768,6.842C54.768,6.691 54.815,6.569 54.907,6.476C54.999,6.384 55.125,6.338 55.285,6.338C55.445,6.338 55.569,6.384 55.657,6.476C55.745,6.569 55.789,6.691 55.789,6.842L55.789,7.522C55.974,7.136 56.245,6.838 56.602,6.628C56.959,6.418 57.377,6.313 57.855,6.313ZM57.654,11.844C58.25,11.844 58.712,11.642 59.04,11.239C59.367,10.836 59.531,10.265 59.531,9.526C59.531,8.786 59.367,8.209 59.04,7.793C58.712,7.377 58.25,7.169 57.654,7.169C57.057,7.169 56.598,7.371 56.274,7.774C55.951,8.177 55.789,8.753 55.789,9.5C55.789,10.248 55.951,10.826 56.274,11.233C56.598,11.64 57.057,11.844 57.654,11.844Z" style="fill:white;fill-rule:nonzero;"/>
                <path d="M64.579,6.313C66.116,6.313 66.885,7.119 66.885,8.732L66.885,12.159C66.885,12.31 66.84,12.432 66.752,12.524C66.664,12.617 66.544,12.663 66.393,12.663C66.242,12.663 66.12,12.617 66.028,12.524C65.935,12.432 65.889,12.31 65.889,12.159L65.889,11.554C65.73,11.915 65.486,12.195 65.158,12.392C64.831,12.589 64.453,12.688 64.024,12.688C63.63,12.688 63.266,12.608 62.934,12.449C62.603,12.289 62.34,12.067 62.147,11.781C61.954,11.495 61.857,11.18 61.857,10.836C61.857,10.374 61.975,10.015 62.21,9.759C62.445,9.503 62.832,9.318 63.369,9.204C63.907,9.091 64.654,9.034 65.612,9.034L65.889,9.034L65.889,8.618C65.889,8.114 65.786,7.745 65.58,7.51C65.375,7.274 65.041,7.157 64.579,7.157C64.008,7.157 63.428,7.312 62.84,7.623C62.613,7.766 62.454,7.837 62.361,7.837C62.26,7.837 62.176,7.799 62.109,7.724C62.042,7.648 62.008,7.552 62.008,7.434C62.008,7.316 62.044,7.214 62.115,7.125C62.187,7.037 62.302,6.947 62.462,6.854C62.756,6.686 63.09,6.554 63.464,6.457C63.837,6.361 64.209,6.313 64.579,6.313ZM64.163,11.882C64.667,11.882 65.081,11.712 65.404,11.371C65.727,11.031 65.889,10.592 65.889,10.055L65.889,9.689L65.662,9.689C64.923,9.689 64.36,9.721 63.974,9.784C63.588,9.847 63.312,9.952 63.149,10.099C62.985,10.246 62.903,10.462 62.903,10.748C62.903,11.075 63.023,11.346 63.262,11.561C63.501,11.775 63.802,11.882 64.163,11.882Z" style="fill:white;fill-rule:nonzero;"/>
                <path d="M75.548,6.313C76.909,6.313 77.59,7.123 77.59,8.744L77.59,12.159C77.59,12.319 77.543,12.442 77.451,12.531C77.359,12.619 77.237,12.663 77.086,12.663C76.934,12.663 76.81,12.619 76.714,12.531C76.617,12.442 76.569,12.319 76.569,12.159L76.569,8.77C76.569,8.207 76.468,7.799 76.267,7.547C76.065,7.295 75.75,7.169 75.322,7.169C74.809,7.169 74.406,7.342 74.112,7.686C73.818,8.03 73.671,8.497 73.671,9.085L73.671,12.159C73.671,12.319 73.623,12.442 73.526,12.531C73.429,12.619 73.306,12.663 73.154,12.663C73.003,12.663 72.881,12.619 72.789,12.531C72.697,12.442 72.65,12.319 72.65,12.159L72.65,8.77C72.65,8.207 72.55,7.799 72.348,7.547C72.146,7.295 71.827,7.169 71.39,7.169C70.886,7.169 70.485,7.342 70.187,7.686C69.889,8.03 69.74,8.497 69.74,9.085L69.74,12.159C69.74,12.319 69.694,12.442 69.601,12.531C69.509,12.619 69.387,12.663 69.236,12.663C69.085,12.663 68.961,12.619 68.864,12.531C68.767,12.442 68.719,12.319 68.719,12.159L68.719,6.842C68.719,6.691 68.767,6.569 68.864,6.476C68.961,6.384 69.085,6.338 69.236,6.338C69.379,6.338 69.496,6.382 69.589,6.47C69.681,6.558 69.727,6.678 69.727,6.829L69.727,7.434C69.912,7.073 70.168,6.796 70.496,6.602C70.823,6.409 71.201,6.313 71.63,6.313C72.587,6.313 73.213,6.716 73.507,7.522C73.684,7.153 73.952,6.859 74.314,6.64C74.675,6.422 75.086,6.313 75.548,6.313Z" style="fill:white;fill-rule:nonzero;"/>
            </g>
        </g>
    </g>
</svg>
