<?xml version="1.0" encoding="UTF-8" standalone="no"?>
<!DOCTYPE svg PUBLIC "-//W3C//DTD SVG 1.1//EN" "http://www.w3.org/Graphics/SVG/1.1/DTD/svg11.dtd">
<svg width="100%" height="100%" viewBox="0 0 228 19" version="1.1" xmlns="http://www.w3.org/2000/svg" xmlns:xlink="http://www.w3.org/1999/xlink" xml:space="preserve" xmlns:serif="http://www.serif.com/" style="fill-rule:evenodd;clip-rule:evenodd;stroke-linejoin:round;stroke-miterlimit:1.41421;">
    <g transform="matrix(1,0,0,1,-145,-91)">
        <g transform="matrix(1,0,0,1,3.83152,-8.56282)">
            <path d="M146.797,114.669C145.77,114.669 144.8,114.532 143.887,114.259C142.973,113.986 142.23,113.616 141.657,113.149C141.35,112.922 141.197,112.602 141.197,112.189C141.197,111.909 141.28,111.666 141.447,111.459C141.613,111.252 141.81,111.149 142.037,111.149C142.277,111.149 142.55,111.242 142.857,111.429C143.43,111.842 144.03,112.142 144.657,112.329C145.283,112.516 145.977,112.609 146.737,112.609C147.71,112.609 148.457,112.439 148.977,112.099C149.497,111.759 149.757,111.262 149.757,110.609C149.757,110.102 149.513,109.712 149.027,109.439C148.54,109.166 147.73,108.902 146.597,108.649C145.423,108.396 144.47,108.102 143.737,107.769C143.003,107.436 142.45,107.009 142.077,106.489C141.703,105.969 141.517,105.309 141.517,104.509C141.517,103.682 141.75,102.942 142.217,102.289C142.683,101.636 143.333,101.126 144.167,100.759C145,100.392 145.937,100.209 146.977,100.209C148.883,100.209 150.437,100.716 151.637,101.729C151.81,101.876 151.933,102.019 152.007,102.159C152.08,102.299 152.117,102.476 152.117,102.689C152.117,102.969 152.033,103.212 151.867,103.419C151.7,103.626 151.503,103.729 151.277,103.729C151.143,103.729 151.02,103.709 150.907,103.669C150.793,103.629 150.643,103.556 150.457,103.449C149.91,103.049 149.38,102.752 148.867,102.559C148.353,102.366 147.723,102.269 146.977,102.269C146.07,102.269 145.353,102.452 144.827,102.819C144.3,103.186 144.037,103.696 144.037,104.349C144.037,104.896 144.27,105.316 144.737,105.609C145.203,105.902 145.997,106.176 147.117,106.429C148.303,106.696 149.267,106.992 150.007,107.319C150.747,107.646 151.313,108.062 151.707,108.569C152.1,109.076 152.297,109.709 152.297,110.469C152.297,111.296 152.067,112.026 151.607,112.659C151.147,113.292 150.5,113.786 149.667,114.139C148.833,114.492 147.877,114.669 146.797,114.669Z" style="fill-rule:nonzero;"/>
            <path d="M162.177,104.509C162.563,104.509 162.87,104.616 163.097,104.829C163.323,105.042 163.437,105.329 163.437,105.689L163.437,113.449C163.437,113.796 163.32,114.076 163.087,114.289C162.853,114.502 162.55,114.609 162.177,114.609C161.817,114.609 161.53,114.509 161.317,114.309C161.103,114.109 160.997,113.836 160.997,113.489L160.997,112.989C160.69,113.522 160.277,113.932 159.757,114.219C159.237,114.506 158.65,114.649 157.997,114.649C155.597,114.649 154.397,113.302 154.397,110.609L154.397,105.689C154.397,105.329 154.51,105.042 154.737,104.829C154.963,104.616 155.263,104.509 155.637,104.509C156.023,104.509 156.33,104.616 156.557,104.829C156.783,105.042 156.897,105.329 156.897,105.689L156.897,110.629C156.897,111.322 157.037,111.836 157.317,112.169C157.597,112.502 158.037,112.669 158.637,112.669C159.33,112.669 159.887,112.439 160.307,111.979C160.727,111.519 160.937,110.909 160.937,110.149L160.937,105.689C160.937,105.329 161.05,105.042 161.277,104.829C161.503,104.616 161.803,104.509 162.177,104.509Z" style="fill-rule:nonzero;"/>
            <path d="M171.657,104.469C172.497,104.469 173.247,104.682 173.907,105.109C174.567,105.536 175.08,106.139 175.447,106.919C175.813,107.699 175.997,108.596 175.997,109.609C175.997,110.622 175.813,111.509 175.447,112.269C175.08,113.029 174.57,113.616 173.917,114.029C173.263,114.442 172.51,114.649 171.657,114.649C170.963,114.649 170.343,114.502 169.797,114.209C169.25,113.916 168.83,113.509 168.537,112.989L168.537,117.069C168.537,117.416 168.423,117.689 168.197,117.889C167.97,118.089 167.67,118.189 167.297,118.189C166.923,118.189 166.62,118.082 166.387,117.869C166.153,117.656 166.037,117.376 166.037,117.029L166.037,105.689C166.037,105.329 166.147,105.042 166.367,104.829C166.587,104.616 166.883,104.509 167.257,104.509C167.63,104.509 167.93,104.616 168.157,104.829C168.383,105.042 168.497,105.329 168.497,105.689L168.497,106.189C168.79,105.642 169.213,105.219 169.767,104.919C170.32,104.619 170.95,104.469 171.657,104.469ZM170.997,112.709C171.783,112.709 172.397,112.439 172.837,111.899C173.277,111.359 173.497,110.596 173.497,109.609C173.497,108.596 173.277,107.809 172.837,107.249C172.397,106.689 171.783,106.409 170.997,106.409C170.197,106.409 169.58,106.682 169.147,107.229C168.713,107.776 168.497,108.556 168.497,109.569C168.497,110.569 168.713,111.342 169.147,111.889C169.58,112.436 170.197,112.709 170.997,112.709Z" style="fill-rule:nonzero;"/>
            <path d="M185.797,111.809C186.023,111.809 186.207,111.896 186.347,112.069C186.487,112.242 186.557,112.476 186.557,112.769C186.557,113.182 186.31,113.529 185.817,113.809C185.363,114.062 184.85,114.266 184.277,114.419C183.703,114.572 183.157,114.649 182.637,114.649C181.063,114.649 179.817,114.196 178.897,113.289C177.977,112.382 177.517,111.142 177.517,109.569C177.517,108.569 177.717,107.682 178.117,106.909C178.517,106.136 179.08,105.536 179.807,105.109C180.533,104.682 181.357,104.469 182.277,104.469C183.157,104.469 183.923,104.662 184.577,105.049C185.23,105.436 185.737,105.982 186.097,106.689C186.457,107.396 186.637,108.229 186.637,109.189C186.637,109.762 186.383,110.049 185.877,110.049L179.977,110.049C180.057,110.969 180.317,111.646 180.757,112.079C181.197,112.512 181.837,112.729 182.677,112.729C183.103,112.729 183.48,112.676 183.807,112.569C184.133,112.462 184.503,112.316 184.917,112.129C185.317,111.916 185.61,111.809 185.797,111.809ZM182.337,106.229C181.657,106.229 181.113,106.442 180.707,106.869C180.3,107.296 180.057,107.909 179.977,108.709L184.497,108.709C184.47,107.896 184.27,107.279 183.897,106.859C183.523,106.439 183.003,106.229 182.337,106.229Z" style="fill-rule:nonzero;"/>
            <path d="M194.137,104.509C194.483,104.482 194.757,104.556 194.957,104.729C195.157,104.902 195.257,105.162 195.257,105.509C195.257,105.869 195.17,106.136 194.997,106.309C194.823,106.482 194.51,106.596 194.057,106.649L193.457,106.709C192.67,106.789 192.093,107.056 191.727,107.509C191.36,107.962 191.177,108.529 191.177,109.209L191.177,113.409C191.177,113.796 191.057,114.092 190.817,114.299C190.577,114.506 190.277,114.609 189.917,114.609C189.557,114.609 189.26,114.506 189.027,114.299C188.793,114.092 188.677,113.796 188.677,113.409L188.677,105.669C188.677,105.296 188.793,105.009 189.027,104.809C189.26,104.609 189.55,104.509 189.897,104.509C190.243,104.509 190.523,104.606 190.737,104.799C190.95,104.992 191.057,105.269 191.057,105.629L191.057,106.429C191.31,105.842 191.687,105.389 192.187,105.069C192.687,104.749 193.243,104.569 193.857,104.529L194.137,104.509Z" style="fill-rule:nonzero;"/>
            <path d="M197.577,114.609C197.217,114.609 196.92,114.506 196.687,114.299C196.453,114.092 196.337,113.796 196.337,113.409L196.337,105.689C196.337,105.302 196.453,105.009 196.687,104.809C196.92,104.609 197.217,104.509 197.577,104.509C197.937,104.509 198.237,104.609 198.477,104.809C198.717,105.009 198.837,105.302 198.837,105.689L198.837,113.409C198.837,113.796 198.717,114.092 198.477,114.299C198.237,114.506 197.937,114.609 197.577,114.609ZM197.577,102.729C197.123,102.729 196.763,102.606 196.497,102.359C196.23,102.112 196.097,101.789 196.097,101.389C196.097,100.989 196.23,100.669 196.497,100.429C196.763,100.189 197.123,100.069 197.577,100.069C198.017,100.069 198.373,100.189 198.647,100.429C198.92,100.669 199.057,100.989 199.057,101.389C199.057,101.789 198.923,102.112 198.657,102.359C198.39,102.606 198.03,102.729 197.577,102.729Z" style="fill-rule:nonzero;"/>
            <path d="M205.877,114.649C204.877,114.649 204,114.442 203.247,114.029C202.493,113.616 201.91,113.022 201.497,112.249C201.083,111.476 200.877,110.576 200.877,109.549C200.877,108.522 201.083,107.626 201.497,106.859C201.91,106.092 202.493,105.502 203.247,105.089C204,104.676 204.877,104.469 205.877,104.469C206.877,104.469 207.753,104.676 208.507,105.089C209.26,105.502 209.84,106.092 210.247,106.859C210.653,107.626 210.857,108.522 210.857,109.549C210.857,110.576 210.653,111.476 210.247,112.249C209.84,113.022 209.26,113.616 208.507,114.029C207.753,114.442 206.877,114.649 205.877,114.649ZM205.857,112.709C206.67,112.709 207.29,112.442 207.717,111.909C208.143,111.376 208.357,110.589 208.357,109.549C208.357,108.522 208.143,107.739 207.717,107.199C207.29,106.659 206.677,106.389 205.877,106.389C205.077,106.389 204.46,106.659 204.027,107.199C203.593,107.739 203.377,108.522 203.377,109.549C203.377,110.589 203.59,111.376 204.017,111.909C204.443,112.442 205.057,112.709 205.857,112.709Z" style="fill-rule:nonzero;"/>
            <path d="M218.377,104.509C218.723,104.482 218.997,104.556 219.197,104.729C219.397,104.902 219.497,105.162 219.497,105.509C219.497,105.869 219.41,106.136 219.237,106.309C219.063,106.482 218.75,106.596 218.297,106.649L217.697,106.709C216.91,106.789 216.333,107.056 215.967,107.509C215.6,107.962 215.417,108.529 215.417,109.209L215.417,113.409C215.417,113.796 215.297,114.092 215.057,114.299C214.817,114.506 214.517,114.609 214.157,114.609C213.797,114.609 213.5,114.506 213.267,114.299C213.033,114.092 212.917,113.796 212.917,113.409L212.917,105.669C212.917,105.296 213.033,105.009 213.267,104.809C213.5,104.609 213.79,104.509 214.137,104.509C214.483,104.509 214.763,104.606 214.977,104.799C215.19,104.992 215.297,105.269 215.297,105.629L215.297,106.429C215.55,105.842 215.927,105.389 216.427,105.069C216.927,104.749 217.483,104.569 218.097,104.529L218.377,104.509Z" style="fill-rule:nonzero;"/>
            <path d="M233.717,104.509C234.103,104.509 234.41,104.616 234.637,104.829C234.863,105.042 234.977,105.329 234.977,105.689L234.977,113.449C234.977,113.796 234.86,114.076 234.627,114.289C234.393,114.502 234.09,114.609 233.717,114.609C233.357,114.609 233.07,114.509 232.857,114.309C232.643,114.109 232.537,113.836 232.537,113.489L232.537,112.989C232.23,113.522 231.817,113.932 231.297,114.219C230.777,114.506 230.19,114.649 229.537,114.649C227.137,114.649 225.937,113.302 225.937,110.609L225.937,105.689C225.937,105.329 226.05,105.042 226.277,104.829C226.503,104.616 226.803,104.509 227.177,104.509C227.563,104.509 227.87,104.616 228.097,104.829C228.323,105.042 228.437,105.329 228.437,105.689L228.437,110.629C228.437,111.322 228.577,111.836 228.857,112.169C229.137,112.502 229.577,112.669 230.177,112.669C230.87,112.669 231.427,112.439 231.847,111.979C232.267,111.519 232.477,110.909 232.477,110.149L232.477,105.689C232.477,105.329 232.59,105.042 232.817,104.829C233.043,104.616 233.343,104.509 233.717,104.509Z" style="fill-rule:nonzero;"/>
            <path d="M241.117,114.649C239.663,114.649 238.49,114.362 237.597,113.789C237.17,113.536 236.957,113.176 236.957,112.709C236.957,112.442 237.03,112.226 237.177,112.059C237.323,111.892 237.503,111.809 237.717,111.809C237.943,111.809 238.257,111.916 238.657,112.129C239.083,112.329 239.473,112.482 239.827,112.589C240.18,112.696 240.63,112.749 241.177,112.749C241.737,112.749 242.173,112.656 242.487,112.469C242.8,112.282 242.957,112.022 242.957,111.689C242.957,111.462 242.893,111.282 242.767,111.149C242.64,111.016 242.413,110.892 242.087,110.779C241.76,110.666 241.263,110.536 240.597,110.389C239.41,110.149 238.56,109.809 238.047,109.369C237.533,108.929 237.277,108.322 237.277,107.549C237.277,106.962 237.45,106.432 237.797,105.959C238.143,105.486 238.62,105.119 239.227,104.859C239.833,104.599 240.523,104.469 241.297,104.469C241.857,104.469 242.397,104.539 242.917,104.679C243.437,104.819 243.903,105.022 244.317,105.289C244.743,105.556 244.957,105.909 244.957,106.349C244.957,106.616 244.883,106.839 244.737,107.019C244.59,107.199 244.41,107.289 244.197,107.289C244.05,107.289 243.907,107.259 243.767,107.199C243.627,107.139 243.45,107.049 243.237,106.929C242.85,106.729 242.517,106.579 242.237,106.479C241.957,106.379 241.61,106.329 241.197,106.329C240.703,106.329 240.313,106.429 240.027,106.629C239.74,106.829 239.597,107.102 239.597,107.449C239.597,107.782 239.743,108.036 240.037,108.209C240.33,108.382 240.897,108.556 241.737,108.729C242.63,108.916 243.33,109.129 243.837,109.369C244.343,109.609 244.707,109.909 244.927,110.269C245.147,110.629 245.257,111.089 245.257,111.649C245.257,112.556 244.88,113.282 244.127,113.829C243.373,114.376 242.37,114.649 241.117,114.649Z" style="fill-rule:nonzero;"/>
            <path d="M255.017,111.809C255.243,111.809 255.427,111.896 255.567,112.069C255.707,112.242 255.777,112.476 255.777,112.769C255.777,113.182 255.53,113.529 255.037,113.809C254.583,114.062 254.07,114.266 253.497,114.419C252.923,114.572 252.377,114.649 251.857,114.649C250.283,114.649 249.037,114.196 248.117,113.289C247.197,112.382 246.737,111.142 246.737,109.569C246.737,108.569 246.937,107.682 247.337,106.909C247.737,106.136 248.3,105.536 249.027,105.109C249.753,104.682 250.577,104.469 251.497,104.469C252.377,104.469 253.143,104.662 253.797,105.049C254.45,105.436 254.957,105.982 255.317,106.689C255.677,107.396 255.857,108.229 255.857,109.189C255.857,109.762 255.603,110.049 255.097,110.049L249.197,110.049C249.277,110.969 249.537,111.646 249.977,112.079C250.417,112.512 251.057,112.729 251.897,112.729C252.323,112.729 252.7,112.676 253.027,112.569C253.353,112.462 253.723,112.316 254.137,112.129C254.537,111.916 254.83,111.809 255.017,111.809ZM251.557,106.229C250.877,106.229 250.333,106.442 249.927,106.869C249.52,107.296 249.277,107.909 249.197,108.709L253.717,108.709C253.69,107.896 253.49,107.279 253.117,106.859C252.743,106.439 252.223,106.229 251.557,106.229Z" style="fill-rule:nonzero;"/>
            <path d="M263.357,104.509C263.703,104.482 263.977,104.556 264.177,104.729C264.377,104.902 264.477,105.162 264.477,105.509C264.477,105.869 264.39,106.136 264.217,106.309C264.043,106.482 263.73,106.596 263.277,106.649L262.677,106.709C261.89,106.789 261.313,107.056 260.947,107.509C260.58,107.962 260.397,108.529 260.397,109.209L260.397,113.409C260.397,113.796 260.277,114.092 260.037,114.299C259.797,114.506 259.497,114.609 259.137,114.609C258.777,114.609 258.48,114.506 258.247,114.299C258.013,114.092 257.897,113.796 257.897,113.409L257.897,105.669C257.897,105.296 258.013,105.009 258.247,104.809C258.48,104.609 258.77,104.509 259.117,104.509C259.463,104.509 259.743,104.606 259.957,104.799C260.17,104.992 260.277,105.269 260.277,105.629L260.277,106.429C260.53,105.842 260.907,105.389 261.407,105.069C261.907,104.749 262.463,104.569 263.077,104.529L263.357,104.509Z" style="fill-rule:nonzero;"/>
            <path d="M278.717,111.809C278.943,111.809 279.127,111.896 279.267,112.069C279.407,112.242 279.477,112.476 279.477,112.769C279.477,113.182 279.23,113.529 278.737,113.809C278.283,114.062 277.77,114.266 277.197,114.419C276.623,114.572 276.077,114.649 275.557,114.649C273.983,114.649 272.737,114.196 271.817,113.289C270.897,112.382 270.437,111.142 270.437,109.569C270.437,108.569 270.637,107.682 271.037,106.909C271.437,106.136 272,105.536 272.727,105.109C273.453,104.682 274.277,104.469 275.197,104.469C276.077,104.469 276.843,104.662 277.497,105.049C278.15,105.436 278.657,105.982 279.017,106.689C279.377,107.396 279.557,108.229 279.557,109.189C279.557,109.762 279.303,110.049 278.797,110.049L272.897,110.049C272.977,110.969 273.237,111.646 273.677,112.079C274.117,112.512 274.757,112.729 275.597,112.729C276.023,112.729 276.4,112.676 276.727,112.569C277.053,112.462 277.423,112.316 277.837,112.129C278.237,111.916 278.53,111.809 278.717,111.809ZM275.257,106.229C274.577,106.229 274.033,106.442 273.627,106.869C273.22,107.296 272.977,107.909 272.897,108.709L277.417,108.709C277.39,107.896 277.19,107.279 276.817,106.859C276.443,106.439 275.923,106.229 275.257,106.229Z" style="fill-rule:nonzero;"/>
            <path d="M290.017,112.649C290.257,112.889 290.377,113.162 290.377,113.469C290.377,113.762 290.263,114.026 290.037,114.259C289.81,114.492 289.543,114.609 289.237,114.609C288.903,114.609 288.617,114.469 288.377,114.189L285.557,111.069L282.737,114.189C282.483,114.456 282.197,114.589 281.877,114.589C281.583,114.589 281.323,114.476 281.097,114.249C280.87,114.022 280.757,113.762 280.757,113.469C280.757,113.162 280.877,112.889 281.117,112.649L284.037,109.469L281.277,106.469C281.037,106.229 280.917,105.956 280.917,105.649C280.917,105.342 281.03,105.079 281.257,104.859C281.483,104.639 281.743,104.529 282.037,104.529C282.357,104.529 282.643,104.662 282.897,104.929L285.557,107.849L288.217,104.929C288.47,104.662 288.757,104.529 289.077,104.529C289.383,104.529 289.647,104.639 289.867,104.859C290.087,105.079 290.197,105.342 290.197,105.649C290.197,105.956 290.077,106.229 289.837,106.469L287.077,109.469L290.017,112.649Z" style="fill-rule:nonzero;"/>
            <path d="M297.797,104.469C298.637,104.469 299.387,104.682 300.047,105.109C300.707,105.536 301.22,106.139 301.587,106.919C301.953,107.699 302.137,108.596 302.137,109.609C302.137,110.622 301.953,111.509 301.587,112.269C301.22,113.029 300.71,113.616 300.057,114.029C299.403,114.442 298.65,114.649 297.797,114.649C297.103,114.649 296.483,114.502 295.937,114.209C295.39,113.916 294.97,113.509 294.677,112.989L294.677,117.069C294.677,117.416 294.563,117.689 294.337,117.889C294.11,118.089 293.81,118.189 293.437,118.189C293.063,118.189 292.76,118.082 292.527,117.869C292.293,117.656 292.177,117.376 292.177,117.029L292.177,105.689C292.177,105.329 292.287,105.042 292.507,104.829C292.727,104.616 293.023,104.509 293.397,104.509C293.77,104.509 294.07,104.616 294.297,104.829C294.523,105.042 294.637,105.329 294.637,105.689L294.637,106.189C294.93,105.642 295.353,105.219 295.907,104.919C296.46,104.619 297.09,104.469 297.797,104.469ZM297.137,112.709C297.923,112.709 298.537,112.439 298.977,111.899C299.417,111.359 299.637,110.596 299.637,109.609C299.637,108.596 299.417,107.809 298.977,107.249C298.537,106.689 297.923,106.409 297.137,106.409C296.337,106.409 295.72,106.682 295.287,107.229C294.853,107.776 294.637,108.556 294.637,109.569C294.637,110.569 294.853,111.342 295.287,111.889C295.72,112.436 296.337,112.709 297.137,112.709Z" style="fill-rule:nonzero;"/>
            <path d="M311.937,111.809C312.163,111.809 312.347,111.896 312.487,112.069C312.627,112.242 312.697,112.476 312.697,112.769C312.697,113.182 312.45,113.529 311.957,113.809C311.503,114.062 310.99,114.266 310.417,114.419C309.843,114.572 309.297,114.649 308.777,114.649C307.203,114.649 305.957,114.196 305.037,113.289C304.117,112.382 303.657,111.142 303.657,109.569C303.657,108.569 303.857,107.682 304.257,106.909C304.657,106.136 305.22,105.536 305.947,105.109C306.673,104.682 307.497,104.469 308.417,104.469C309.297,104.469 310.063,104.662 310.717,105.049C311.37,105.436 311.877,105.982 312.237,106.689C312.597,107.396 312.777,108.229 312.777,109.189C312.777,109.762 312.523,110.049 312.017,110.049L306.117,110.049C306.197,110.969 306.457,111.646 306.897,112.079C307.337,112.512 307.977,112.729 308.817,112.729C309.243,112.729 309.62,112.676 309.947,112.569C310.273,112.462 310.643,112.316 311.057,112.129C311.457,111.916 311.75,111.809 311.937,111.809ZM308.477,106.229C307.797,106.229 307.253,106.442 306.847,106.869C306.44,107.296 306.197,107.909 306.117,108.709L310.637,108.709C310.61,107.896 310.41,107.279 310.037,106.859C309.663,106.439 309.143,106.229 308.477,106.229Z" style="fill-rule:nonzero;"/>
            <path d="M320.277,104.509C320.623,104.482 320.897,104.556 321.097,104.729C321.297,104.902 321.397,105.162 321.397,105.509C321.397,105.869 321.31,106.136 321.137,106.309C320.963,106.482 320.65,106.596 320.197,106.649L319.597,106.709C318.81,106.789 318.233,107.056 317.867,107.509C317.5,107.962 317.317,108.529 317.317,109.209L317.317,113.409C317.317,113.796 317.197,114.092 316.957,114.299C316.717,114.506 316.417,114.609 316.057,114.609C315.697,114.609 315.4,114.506 315.167,114.299C314.933,114.092 314.817,113.796 314.817,113.409L314.817,105.669C314.817,105.296 314.933,105.009 315.167,104.809C315.4,104.609 315.69,104.509 316.037,104.509C316.383,104.509 316.663,104.606 316.877,104.799C317.09,104.992 317.197,105.269 317.197,105.629L317.197,106.429C317.45,105.842 317.827,105.389 318.327,105.069C318.827,104.749 319.383,104.569 319.997,104.529L320.277,104.509Z" style="fill-rule:nonzero;"/>
            <path d="M323.717,114.609C323.357,114.609 323.06,114.506 322.827,114.299C322.593,114.092 322.477,113.796 322.477,113.409L322.477,105.689C322.477,105.302 322.593,105.009 322.827,104.809C323.06,104.609 323.357,104.509 323.717,104.509C324.077,104.509 324.377,104.609 324.617,104.809C324.857,105.009 324.977,105.302 324.977,105.689L324.977,113.409C324.977,113.796 324.857,114.092 324.617,114.299C324.377,114.506 324.077,114.609 323.717,114.609ZM323.717,102.729C323.263,102.729 322.903,102.606 322.637,102.359C322.37,102.112 322.237,101.789 322.237,101.389C322.237,100.989 322.37,100.669 322.637,100.429C322.903,100.189 323.263,100.069 323.717,100.069C324.157,100.069 324.513,100.189 324.787,100.429C325.06,100.669 325.197,100.989 325.197,101.389C325.197,101.789 325.063,102.112 324.797,102.359C324.53,102.606 324.17,102.729 323.717,102.729Z" style="fill-rule:nonzero;"/>
            <path d="M335.297,111.809C335.523,111.809 335.707,111.896 335.847,112.069C335.987,112.242 336.057,112.476 336.057,112.769C336.057,113.182 335.81,113.529 335.317,113.809C334.863,114.062 334.35,114.266 333.777,114.419C333.203,114.572 332.657,114.649 332.137,114.649C330.563,114.649 329.317,114.196 328.397,113.289C327.477,112.382 327.017,111.142 327.017,109.569C327.017,108.569 327.217,107.682 327.617,106.909C328.017,106.136 328.58,105.536 329.307,105.109C330.033,104.682 330.857,104.469 331.777,104.469C332.657,104.469 333.423,104.662 334.077,105.049C334.73,105.436 335.237,105.982 335.597,106.689C335.957,107.396 336.137,108.229 336.137,109.189C336.137,109.762 335.883,110.049 335.377,110.049L329.477,110.049C329.557,110.969 329.817,111.646 330.257,112.079C330.697,112.512 331.337,112.729 332.177,112.729C332.603,112.729 332.98,112.676 333.307,112.569C333.633,112.462 334.003,112.316 334.417,112.129C334.817,111.916 335.11,111.809 335.297,111.809ZM331.837,106.229C331.157,106.229 330.613,106.442 330.207,106.869C329.8,107.296 329.557,107.909 329.477,108.709L333.997,108.709C333.97,107.896 333.77,107.279 333.397,106.859C333.023,106.439 332.503,106.229 331.837,106.229Z" style="fill-rule:nonzero;"/>
            <path d="M343.857,104.469C345.03,104.469 345.903,104.802 346.477,105.469C347.05,106.136 347.337,107.142 347.337,108.489L347.337,113.409C347.337,113.782 347.227,114.076 347.007,114.289C346.787,114.502 346.483,114.609 346.097,114.609C345.71,114.609 345.403,114.502 345.177,114.289C344.95,114.076 344.837,113.782 344.837,113.409L344.837,108.629C344.837,107.869 344.693,107.316 344.407,106.969C344.12,106.622 343.67,106.449 343.057,106.449C342.337,106.449 341.76,106.676 341.327,107.129C340.893,107.582 340.677,108.189 340.677,108.949L340.677,113.409C340.677,113.782 340.563,114.076 340.337,114.289C340.11,114.502 339.803,114.609 339.417,114.609C339.03,114.609 338.727,114.502 338.507,114.289C338.287,114.076 338.177,113.782 338.177,113.409L338.177,105.669C338.177,105.322 338.29,105.042 338.517,104.829C338.743,104.616 339.05,104.509 339.437,104.509C339.783,104.509 340.067,104.612 340.287,104.819C340.507,105.026 340.617,105.296 340.617,105.629L340.617,106.169C340.95,105.622 341.397,105.202 341.957,104.909C342.517,104.616 343.15,104.469 343.857,104.469Z" style="fill-rule:nonzero;"/>
            <path d="M354.217,114.649C353.243,114.649 352.387,114.442 351.647,114.029C350.907,113.616 350.337,113.029 349.937,112.269C349.537,111.509 349.337,110.622 349.337,109.609C349.337,108.596 349.547,107.699 349.967,106.919C350.387,106.139 350.977,105.536 351.737,105.109C352.497,104.682 353.37,104.469 354.357,104.469C354.877,104.469 355.4,104.542 355.927,104.689C356.453,104.836 356.917,105.036 357.317,105.289C357.743,105.569 357.957,105.922 357.957,106.349C357.957,106.642 357.887,106.879 357.747,107.059C357.607,107.239 357.423,107.329 357.197,107.329C357.05,107.329 356.897,107.296 356.737,107.229C356.577,107.162 356.417,107.082 356.257,106.989C355.963,106.816 355.683,106.679 355.417,106.579C355.15,106.479 354.843,106.429 354.497,106.429C353.67,106.429 353.033,106.699 352.587,107.239C352.14,107.779 351.917,108.556 351.917,109.569C351.917,110.569 352.14,111.339 352.587,111.879C353.033,112.419 353.67,112.689 354.497,112.689C354.83,112.689 355.127,112.639 355.387,112.539C355.647,112.439 355.937,112.302 356.257,112.129C356.457,112.009 356.63,111.919 356.777,111.859C356.923,111.799 357.07,111.769 357.217,111.769C357.43,111.769 357.61,111.862 357.757,112.049C357.903,112.236 357.977,112.469 357.977,112.749C357.977,112.976 357.927,113.172 357.827,113.339C357.727,113.506 357.563,113.656 357.337,113.789C356.923,114.056 356.443,114.266 355.897,114.419C355.35,114.572 354.79,114.649 354.217,114.649Z" style="fill-rule:nonzero;"/>
            <path d="M367.377,111.809C367.603,111.809 367.787,111.896 367.927,112.069C368.067,112.242 368.137,112.476 368.137,112.769C368.137,113.182 367.89,113.529 367.397,113.809C366.943,114.062 366.43,114.266 365.857,114.419C365.283,114.572 364.737,114.649 364.217,114.649C362.643,114.649 361.397,114.196 360.477,113.289C359.557,112.382 359.097,111.142 359.097,109.569C359.097,108.569 359.297,107.682 359.697,106.909C360.097,106.136 360.66,105.536 361.387,105.109C362.113,104.682 362.937,104.469 363.857,104.469C364.737,104.469 365.503,104.662 366.157,105.049C366.81,105.436 367.317,105.982 367.677,106.689C368.037,107.396 368.217,108.229 368.217,109.189C368.217,109.762 367.963,110.049 367.457,110.049L361.557,110.049C361.637,110.969 361.897,111.646 362.337,112.079C362.777,112.512 363.417,112.729 364.257,112.729C364.683,112.729 365.06,112.676 365.387,112.569C365.713,112.462 366.083,112.316 366.497,112.129C366.897,111.916 367.19,111.809 367.377,111.809ZM363.917,106.229C363.237,106.229 362.693,106.442 362.287,106.869C361.88,107.296 361.637,107.909 361.557,108.709L366.077,108.709C366.05,107.896 365.85,107.279 365.477,106.859C365.103,106.439 364.583,106.229 363.917,106.229Z" style="fill-rule:nonzero;"/>
        </g>
    </g>
</svg>
