<?xml version="1.0" encoding="UTF-8" standalone="no"?>
<!DOCTYPE svg PUBLIC "-//W3C//DTD SVG 1.1//EN" "http://www.w3.org/Graphics/SVG/1.1/DTD/svg11.dtd">
<svg width="100%" height="100%" viewBox="0 0 214 19" version="1.1" xmlns="http://www.w3.org/2000/svg" xmlns:xlink="http://www.w3.org/1999/xlink" xml:space="preserve" xmlns:serif="http://www.serif.com/" style="fill-rule:evenodd;clip-rule:evenodd;stroke-linejoin:round;stroke-miterlimit:1.41421;">
    <g transform="matrix(1,0,0,1,-464,-677)">
        <g transform="matrix(1,0,0,1,-215.111,5.69445)">
            <path d="M685.842,685.847C684.508,685.847 683.355,685.557 682.382,684.977C681.408,684.397 680.658,683.564 680.132,682.477C679.605,681.39 679.342,680.107 679.342,678.627C679.342,677.16 679.605,675.884 680.132,674.797C680.658,673.71 681.408,672.877 682.382,672.297C683.355,671.717 684.508,671.427 685.842,671.427C686.735,671.427 687.578,671.57 688.372,671.857C689.165,672.144 689.855,672.554 690.442,673.087C690.655,673.287 690.762,673.52 690.762,673.787C690.762,673.974 690.708,674.137 690.602,674.277C690.495,674.417 690.368,674.487 690.222,674.487C690.062,674.487 689.868,674.414 689.642,674.267C688.962,673.734 688.345,673.36 687.792,673.147C687.238,672.934 686.602,672.827 685.882,672.827C684.335,672.827 683.145,673.33 682.312,674.337C681.478,675.344 681.062,676.774 681.062,678.627C681.062,680.494 681.478,681.93 682.312,682.937C683.145,683.944 684.335,684.447 685.882,684.447C686.588,684.447 687.222,684.34 687.782,684.127C688.342,683.914 688.962,683.54 689.642,683.007C689.868,682.86 690.062,682.787 690.222,682.787C690.368,682.787 690.495,682.854 690.602,682.987C690.708,683.12 690.762,683.287 690.762,683.487C690.762,683.754 690.655,683.987 690.442,684.187C689.855,684.72 689.165,685.13 688.372,685.417C687.578,685.704 686.735,685.847 685.842,685.847Z" style="fill:rgb(103,103,108);fill-rule:nonzero;"/>
            <path d="M700.362,675.747C700.615,675.747 700.812,675.82 700.952,675.967C701.092,676.114 701.162,676.307 701.162,676.547L701.162,685.007C701.162,685.234 701.092,685.42 700.952,685.567C700.812,685.714 700.615,685.787 700.362,685.787C700.122,685.787 699.932,685.717 699.792,685.577C699.652,685.437 699.582,685.254 699.582,685.027L699.582,684.027C699.275,684.614 698.845,685.06 698.292,685.367C697.738,685.674 697.115,685.827 696.422,685.827C695.262,685.827 694.388,685.504 693.802,684.857C693.215,684.21 692.922,683.254 692.922,681.987L692.922,676.547C692.922,676.307 692.995,676.114 693.142,675.967C693.288,675.82 693.488,675.747 693.742,675.747C693.995,675.747 694.192,675.82 694.332,675.967C694.472,676.114 694.542,676.307 694.542,676.547L694.542,681.947C694.542,682.814 694.715,683.45 695.062,683.857C695.408,684.264 695.955,684.467 696.702,684.467C697.555,684.467 698.242,684.19 698.762,683.637C699.282,683.084 699.542,682.354 699.542,681.447L699.542,676.547C699.542,676.307 699.615,676.114 699.762,675.967C699.908,675.82 700.108,675.747 700.362,675.747Z" style="fill:rgb(103,103,108);fill-rule:nonzero;"/>
            <path d="M707.462,685.827C706.848,685.827 706.265,685.754 705.712,685.607C705.158,685.46 704.668,685.254 704.242,684.987C704.002,684.827 703.832,684.677 703.732,684.537C703.632,684.397 703.582,684.227 703.582,684.027C703.582,683.854 703.632,683.71 703.732,683.597C703.832,683.484 703.962,683.427 704.122,683.427C704.282,683.427 704.515,683.527 704.822,683.727C705.222,683.967 705.618,684.157 706.012,684.297C706.405,684.437 706.895,684.507 707.482,684.507C708.202,684.507 708.762,684.38 709.162,684.127C709.562,683.874 709.762,683.507 709.762,683.027C709.762,682.734 709.688,682.497 709.542,682.317C709.395,682.137 709.142,681.977 708.782,681.837C708.422,681.697 707.895,681.554 707.202,681.407C706.028,681.154 705.188,680.814 704.682,680.387C704.175,679.96 703.922,679.38 703.922,678.647C703.922,678.074 704.082,677.567 704.402,677.127C704.722,676.687 705.165,676.34 705.732,676.087C706.298,675.834 706.942,675.707 707.662,675.707C708.182,675.707 708.685,675.777 709.172,675.917C709.658,676.057 710.088,676.254 710.462,676.507C710.915,676.827 711.142,677.16 711.142,677.507C711.142,677.68 711.088,677.827 710.982,677.947C710.875,678.067 710.748,678.127 710.602,678.127C710.442,678.127 710.202,678.014 709.882,677.787C709.508,677.547 709.155,677.36 708.822,677.227C708.488,677.094 708.075,677.027 707.582,677.027C706.955,677.027 706.452,677.167 706.072,677.447C705.692,677.727 705.502,678.1 705.502,678.567C705.502,678.86 705.572,679.097 705.712,679.277C705.852,679.457 706.085,679.617 706.412,679.757C706.738,679.897 707.208,680.034 707.822,680.167C708.728,680.367 709.432,680.587 709.932,680.827C710.432,681.067 710.788,681.36 711.002,681.707C711.215,682.054 711.322,682.494 711.322,683.027C711.322,683.867 710.968,684.544 710.262,685.057C709.555,685.57 708.622,685.827 707.462,685.827Z" style="fill:rgb(103,103,108);fill-rule:nonzero;"/>
            <path d="M718.182,684.507C718.648,684.547 718.882,684.76 718.882,685.147C718.882,685.374 718.798,685.544 718.632,685.657C718.465,685.77 718.215,685.814 717.882,685.787L717.342,685.747C716.275,685.667 715.488,685.347 714.982,684.787C714.475,684.227 714.222,683.38 714.222,682.247L714.222,677.227L712.882,677.227C712.655,677.227 712.478,677.17 712.352,677.057C712.225,676.944 712.162,676.794 712.162,676.607C712.162,676.407 712.225,676.247 712.352,676.127C712.478,676.007 712.655,675.947 712.882,675.947L714.222,675.947L714.222,673.687C714.222,673.434 714.295,673.237 714.442,673.097C714.588,672.957 714.788,672.887 715.042,672.887C715.282,672.887 715.475,672.957 715.622,673.097C715.768,673.237 715.842,673.434 715.842,673.687L715.842,675.947L718.062,675.947C718.275,675.947 718.445,676.007 718.572,676.127C718.698,676.247 718.762,676.407 718.762,676.607C718.762,676.794 718.698,676.944 718.572,677.057C718.445,677.17 718.275,677.227 718.062,677.227L715.842,677.227L715.842,682.327C715.842,683.06 715.992,683.59 716.292,683.917C716.592,684.244 717.042,684.427 717.642,684.467L718.182,684.507Z" style="fill:rgb(103,103,108);fill-rule:nonzero;"/>
            <path d="M724.522,685.827C723.602,685.827 722.792,685.62 722.092,685.207C721.392,684.794 720.852,684.204 720.472,683.437C720.092,682.67 719.902,681.78 719.902,680.767C719.902,679.754 720.092,678.864 720.472,678.097C720.852,677.33 721.392,676.74 722.092,676.327C722.792,675.914 723.602,675.707 724.522,675.707C725.442,675.707 726.255,675.914 726.962,676.327C727.668,676.74 728.212,677.33 728.592,678.097C728.972,678.864 729.162,679.754 729.162,680.767C729.162,681.78 728.972,682.67 728.592,683.437C728.212,684.204 727.668,684.794 726.962,685.207C726.255,685.62 725.442,685.827 724.522,685.827ZM724.522,684.487C725.482,684.487 726.218,684.17 726.732,683.537C727.245,682.904 727.502,681.98 727.502,680.767C727.502,679.58 727.242,678.664 726.722,678.017C726.202,677.37 725.468,677.047 724.522,677.047C723.575,677.047 722.842,677.37 722.322,678.017C721.802,678.664 721.542,679.58 721.542,680.767C721.542,681.967 721.798,682.887 722.312,683.527C722.825,684.167 723.562,684.487 724.522,684.487Z" style="fill:rgb(103,103,108);fill-rule:nonzero;"/>
            <path d="M742.422,675.707C744.582,675.707 745.662,676.994 745.662,679.567L745.662,684.987C745.662,685.24 745.588,685.437 745.442,685.577C745.295,685.717 745.102,685.787 744.862,685.787C744.622,685.787 744.425,685.717 744.272,685.577C744.118,685.437 744.042,685.24 744.042,684.987L744.042,679.607C744.042,678.714 743.882,678.067 743.562,677.667C743.242,677.267 742.742,677.067 742.062,677.067C741.248,677.067 740.608,677.34 740.142,677.887C739.675,678.434 739.442,679.174 739.442,680.107L739.442,684.987C739.442,685.24 739.365,685.437 739.212,685.577C739.058,685.717 738.862,685.787 738.622,685.787C738.382,685.787 738.188,685.717 738.042,685.577C737.895,685.437 737.822,685.24 737.822,684.987L737.822,679.607C737.822,678.714 737.662,678.067 737.342,677.667C737.022,677.267 736.515,677.067 735.822,677.067C735.022,677.067 734.385,677.34 733.912,677.887C733.438,678.434 733.202,679.174 733.202,680.107L733.202,684.987C733.202,685.24 733.128,685.437 732.982,685.577C732.835,685.717 732.642,685.787 732.402,685.787C732.162,685.787 731.965,685.717 731.812,685.577C731.658,685.437 731.582,685.24 731.582,684.987L731.582,676.547C731.582,676.307 731.658,676.114 731.812,675.967C731.965,675.82 732.162,675.747 732.402,675.747C732.628,675.747 732.815,675.817 732.962,675.957C733.108,676.097 733.182,676.287 733.182,676.527L733.182,677.487C733.475,676.914 733.882,676.474 734.402,676.167C734.922,675.86 735.522,675.707 736.202,675.707C737.722,675.707 738.715,676.347 739.182,677.627C739.462,677.04 739.888,676.574 740.462,676.227C741.035,675.88 741.688,675.707 742.422,675.707Z" style="fill:rgb(103,103,108);fill-rule:nonzero;"/>
            <path d="M758.602,675.747C759.162,675.707 759.442,675.934 759.442,676.427C759.442,676.64 759.382,676.81 759.262,676.937C759.142,677.064 758.935,677.14 758.642,677.167L758.042,677.227C757.148,677.307 756.485,677.624 756.052,678.177C755.618,678.73 755.402,679.38 755.402,680.127L755.402,684.987C755.402,685.254 755.328,685.454 755.182,685.587C755.035,685.72 754.842,685.787 754.602,685.787C754.362,685.787 754.165,685.717 754.012,685.577C753.858,685.437 753.782,685.24 753.782,684.987L753.782,676.547C753.782,676.294 753.862,676.097 754.022,675.957C754.182,675.817 754.375,675.747 754.602,675.747C754.815,675.747 754.995,675.817 755.142,675.957C755.288,676.097 755.362,676.287 755.362,676.527L755.362,677.647C755.642,677.06 756.038,676.614 756.552,676.307C757.065,676 757.655,675.82 758.322,675.767L758.602,675.747Z" style="fill:rgb(103,103,108);fill-rule:nonzero;"/>
            <path d="M768.242,675.747C768.495,675.747 768.692,675.82 768.832,675.967C768.972,676.114 769.042,676.307 769.042,676.547L769.042,685.007C769.042,685.234 768.972,685.42 768.832,685.567C768.692,685.714 768.495,685.787 768.242,685.787C768.002,685.787 767.812,685.717 767.672,685.577C767.532,685.437 767.462,685.254 767.462,685.027L767.462,684.027C767.155,684.614 766.725,685.06 766.172,685.367C765.618,685.674 764.995,685.827 764.302,685.827C763.142,685.827 762.268,685.504 761.682,684.857C761.095,684.21 760.802,683.254 760.802,681.987L760.802,676.547C760.802,676.307 760.875,676.114 761.022,675.967C761.168,675.82 761.368,675.747 761.622,675.747C761.875,675.747 762.072,675.82 762.212,675.967C762.352,676.114 762.422,676.307 762.422,676.547L762.422,681.947C762.422,682.814 762.595,683.45 762.942,683.857C763.288,684.264 763.835,684.467 764.582,684.467C765.435,684.467 766.122,684.19 766.642,683.637C767.162,683.084 767.422,682.354 767.422,681.447L767.422,676.547C767.422,676.307 767.495,676.114 767.642,675.967C767.788,675.82 767.988,675.747 768.242,675.747Z" style="fill:rgb(103,103,108);fill-rule:nonzero;"/>
            <path d="M772.882,685.787C772.642,685.787 772.445,685.717 772.292,685.577C772.138,685.437 772.062,685.24 772.062,684.987L772.062,672.287C772.062,672.034 772.138,671.837 772.292,671.697C772.445,671.557 772.642,671.487 772.882,671.487C773.108,671.487 773.298,671.557 773.452,671.697C773.605,671.837 773.682,672.034 773.682,672.287L773.682,684.987C773.682,685.24 773.605,685.437 773.452,685.577C773.298,685.717 773.108,685.787 772.882,685.787Z" style="fill:rgb(103,103,108);fill-rule:nonzero;"/>
            <path d="M784.242,683.427C784.388,683.427 784.515,683.487 784.622,683.607C784.728,683.727 784.782,683.88 784.782,684.067C784.782,684.4 784.548,684.707 784.082,684.987C783.602,685.267 783.095,685.477 782.562,685.617C782.028,685.757 781.508,685.827 781.002,685.827C779.495,685.827 778.305,685.38 777.432,684.487C776.558,683.594 776.122,682.36 776.122,680.787C776.122,679.787 776.315,678.904 776.702,678.137C777.088,677.37 777.632,676.774 778.332,676.347C779.032,675.92 779.828,675.707 780.722,675.707C781.988,675.707 782.995,676.12 783.742,676.947C784.488,677.774 784.862,678.894 784.862,680.307C784.862,680.574 784.808,680.767 784.702,680.887C784.595,681.007 784.422,681.067 784.182,681.067L777.742,681.067C777.862,683.36 778.948,684.507 781.002,684.507C781.522,684.507 781.968,684.437 782.342,684.297C782.715,684.157 783.115,683.967 783.542,683.727C783.888,683.527 784.122,683.427 784.242,683.427ZM780.742,676.967C779.888,676.967 779.205,677.234 778.692,677.767C778.178,678.3 777.875,679.054 777.782,680.027L783.442,680.027C783.415,679.04 783.168,678.284 782.702,677.757C782.235,677.23 781.582,676.967 780.742,676.967Z" style="fill:rgb(103,103,108);fill-rule:nonzero;"/>
            <path d="M790.522,685.827C789.908,685.827 789.325,685.754 788.772,685.607C788.218,685.46 787.728,685.254 787.302,684.987C787.062,684.827 786.892,684.677 786.792,684.537C786.692,684.397 786.642,684.227 786.642,684.027C786.642,683.854 786.692,683.71 786.792,683.597C786.892,683.484 787.022,683.427 787.182,683.427C787.342,683.427 787.575,683.527 787.882,683.727C788.282,683.967 788.678,684.157 789.072,684.297C789.465,684.437 789.955,684.507 790.542,684.507C791.262,684.507 791.822,684.38 792.222,684.127C792.622,683.874 792.822,683.507 792.822,683.027C792.822,682.734 792.748,682.497 792.602,682.317C792.455,682.137 792.202,681.977 791.842,681.837C791.482,681.697 790.955,681.554 790.262,681.407C789.088,681.154 788.248,680.814 787.742,680.387C787.235,679.96 786.982,679.38 786.982,678.647C786.982,678.074 787.142,677.567 787.462,677.127C787.782,676.687 788.225,676.34 788.792,676.087C789.358,675.834 790.002,675.707 790.722,675.707C791.242,675.707 791.745,675.777 792.232,675.917C792.718,676.057 793.148,676.254 793.522,676.507C793.975,676.827 794.202,677.16 794.202,677.507C794.202,677.68 794.148,677.827 794.042,677.947C793.935,678.067 793.808,678.127 793.662,678.127C793.502,678.127 793.262,678.014 792.942,677.787C792.568,677.547 792.215,677.36 791.882,677.227C791.548,677.094 791.135,677.027 790.642,677.027C790.015,677.027 789.512,677.167 789.132,677.447C788.752,677.727 788.562,678.1 788.562,678.567C788.562,678.86 788.632,679.097 788.772,679.277C788.912,679.457 789.145,679.617 789.472,679.757C789.798,679.897 790.268,680.034 790.882,680.167C791.788,680.367 792.492,680.587 792.992,680.827C793.492,681.067 793.848,681.36 794.062,681.707C794.275,682.054 794.382,682.494 794.382,683.027C794.382,683.867 794.028,684.544 793.322,685.057C792.615,685.57 791.682,685.827 790.522,685.827Z" style="fill:rgb(103,103,108);fill-rule:nonzero;"/>
            <path d="M813.402,684.687C813.535,684.834 813.602,684.994 813.602,685.167C813.602,685.34 813.532,685.497 813.392,685.637C813.252,685.777 813.088,685.847 812.902,685.847C812.715,685.847 812.548,685.774 812.402,685.627L810.562,683.707C809.962,684.4 809.275,684.927 808.502,685.287C807.728,685.647 806.915,685.827 806.062,685.827C805.182,685.827 804.402,685.677 803.722,685.377C803.042,685.077 802.508,684.647 802.122,684.087C801.735,683.527 801.542,682.88 801.542,682.147C801.542,681.267 801.815,680.484 802.362,679.797C802.908,679.11 803.742,678.44 804.862,677.787C804.275,677.174 803.845,676.62 803.572,676.127C803.298,675.634 803.162,675.1 803.162,674.527C803.162,673.567 803.488,672.814 804.142,672.267C804.795,671.72 805.622,671.447 806.622,671.447C807.582,671.447 808.348,671.7 808.922,672.207C809.495,672.714 809.782,673.407 809.782,674.287C809.782,675.007 809.558,675.647 809.112,676.207C808.665,676.767 807.962,677.354 807.002,677.967L810.382,681.527C810.835,680.554 811.102,679.394 811.182,678.047C811.195,677.807 811.275,677.624 811.422,677.497C811.568,677.37 811.735,677.307 811.922,677.307C812.122,677.307 812.288,677.377 812.422,677.517C812.555,677.657 812.615,677.847 812.602,678.087C812.482,679.82 812.068,681.314 811.362,682.567L813.402,684.687ZM806.642,672.687C806.068,672.687 805.602,672.854 805.242,673.187C804.882,673.52 804.702,673.967 804.702,674.527C804.702,674.94 804.812,675.334 805.032,675.707C805.252,676.08 805.608,676.52 806.102,677.027C806.928,676.494 807.512,676.034 807.852,675.647C808.192,675.26 808.362,674.834 808.362,674.367C808.362,673.86 808.205,673.454 807.892,673.147C807.578,672.84 807.162,672.687 806.642,672.687ZM806.122,684.507C806.788,684.507 807.422,684.36 808.022,684.067C808.622,683.774 809.155,683.334 809.622,682.747L805.742,678.727C804.768,679.314 804.092,679.864 803.712,680.377C803.332,680.89 803.142,681.467 803.142,682.107C803.142,682.854 803.412,683.44 803.952,683.867C804.492,684.294 805.215,684.507 806.122,684.507Z" style="fill:rgb(103,103,108);fill-rule:nonzero;"/>
            <path d="M825.342,675.707C826.195,675.707 826.948,675.92 827.602,676.347C828.255,676.774 828.762,677.37 829.122,678.137C829.482,678.904 829.662,679.794 829.662,680.807C829.662,681.82 829.482,682.704 829.122,683.457C828.762,684.21 828.258,684.794 827.612,685.207C826.965,685.62 826.208,685.827 825.342,685.827C824.582,685.827 823.918,685.66 823.352,685.327C822.785,684.994 822.355,684.52 822.062,683.907L822.062,688.607C822.062,688.847 821.992,689.037 821.852,689.177C821.712,689.317 821.515,689.387 821.262,689.387C821.008,689.387 820.808,689.314 820.662,689.167C820.515,689.02 820.442,688.834 820.442,688.607L820.442,676.547C820.442,676.307 820.515,676.114 820.662,675.967C820.808,675.82 821.008,675.747 821.262,675.747C821.515,675.747 821.712,675.82 821.852,675.967C821.992,676.114 822.062,676.307 822.062,676.547L822.062,677.627C822.355,677.014 822.785,676.54 823.352,676.207C823.918,675.874 824.582,675.707 825.342,675.707ZM825.022,684.487C825.968,684.487 826.702,684.167 827.222,683.527C827.742,682.887 828.002,681.98 828.002,680.807C828.002,679.634 827.742,678.717 827.222,678.057C826.702,677.397 825.968,677.067 825.022,677.067C824.075,677.067 823.345,677.387 822.832,678.027C822.318,678.667 822.062,679.58 822.062,680.767C822.062,681.954 822.318,682.87 822.832,683.517C823.345,684.164 824.075,684.487 825.022,684.487Z" style="fill:rgb(103,103,108);fill-rule:nonzero;"/>
            <path d="M836.062,675.707C838.502,675.707 839.722,676.987 839.722,679.547L839.722,684.987C839.722,685.227 839.652,685.42 839.512,685.567C839.372,685.714 839.182,685.787 838.942,685.787C838.702,685.787 838.508,685.714 838.362,685.567C838.215,685.42 838.142,685.227 838.142,684.987L838.142,684.027C837.888,684.6 837.502,685.044 836.982,685.357C836.462,685.67 835.862,685.827 835.182,685.827C834.555,685.827 833.978,685.7 833.452,685.447C832.925,685.194 832.508,684.84 832.202,684.387C831.895,683.934 831.742,683.434 831.742,682.887C831.742,682.154 831.928,681.584 832.302,681.177C832.675,680.77 833.288,680.477 834.142,680.297C834.995,680.117 836.182,680.027 837.702,680.027L838.142,680.027L838.142,679.367C838.142,678.567 837.978,677.98 837.652,677.607C837.325,677.234 836.795,677.047 836.062,677.047C835.155,677.047 834.235,677.294 833.302,677.787C832.942,678.014 832.688,678.127 832.542,678.127C832.382,678.127 832.248,678.067 832.142,677.947C832.035,677.827 831.982,677.674 831.982,677.487C831.982,677.3 832.038,677.137 832.152,676.997C832.265,676.857 832.448,676.714 832.702,676.567C833.168,676.3 833.698,676.09 834.292,675.937C834.885,675.784 835.475,675.707 836.062,675.707ZM835.402,684.547C836.202,684.547 836.858,684.277 837.372,683.737C837.885,683.197 838.142,682.5 838.142,681.647L838.142,681.067L837.782,681.067C836.608,681.067 835.715,681.117 835.102,681.217C834.488,681.317 834.052,681.484 833.792,681.717C833.532,681.95 833.402,682.294 833.402,682.747C833.402,683.267 833.592,683.697 833.972,684.037C834.352,684.377 834.828,684.547 835.402,684.547Z" style="fill:rgb(103,103,108);fill-rule:nonzero;"/>
            <path d="M847.182,684.507C847.648,684.547 847.882,684.76 847.882,685.147C847.882,685.374 847.798,685.544 847.632,685.657C847.465,685.77 847.215,685.814 846.882,685.787L846.342,685.747C845.275,685.667 844.488,685.347 843.982,684.787C843.475,684.227 843.222,683.38 843.222,682.247L843.222,677.227L841.882,677.227C841.655,677.227 841.478,677.17 841.352,677.057C841.225,676.944 841.162,676.794 841.162,676.607C841.162,676.407 841.225,676.247 841.352,676.127C841.478,676.007 841.655,675.947 841.882,675.947L843.222,675.947L843.222,673.687C843.222,673.434 843.295,673.237 843.442,673.097C843.588,672.957 843.788,672.887 844.042,672.887C844.282,672.887 844.475,672.957 844.622,673.097C844.768,673.237 844.842,673.434 844.842,673.687L844.842,675.947L847.062,675.947C847.275,675.947 847.445,676.007 847.572,676.127C847.698,676.247 847.762,676.407 847.762,676.607C847.762,676.794 847.698,676.944 847.572,677.057C847.445,677.17 847.275,677.227 847.062,677.227L844.842,677.227L844.842,682.327C844.842,683.06 844.992,683.59 845.292,683.917C845.592,684.244 846.042,684.427 846.642,684.467L847.182,684.507Z" style="fill:rgb(103,103,108);fill-rule:nonzero;"/>
            <path d="M854.042,684.507C854.508,684.547 854.742,684.76 854.742,685.147C854.742,685.374 854.658,685.544 854.492,685.657C854.325,685.77 854.075,685.814 853.742,685.787L853.202,685.747C852.135,685.667 851.348,685.347 850.842,684.787C850.335,684.227 850.082,683.38 850.082,682.247L850.082,677.227L848.742,677.227C848.515,677.227 848.338,677.17 848.212,677.057C848.085,676.944 848.022,676.794 848.022,676.607C848.022,676.407 848.085,676.247 848.212,676.127C848.338,676.007 848.515,675.947 848.742,675.947L850.082,675.947L850.082,673.687C850.082,673.434 850.155,673.237 850.302,673.097C850.448,672.957 850.648,672.887 850.902,672.887C851.142,672.887 851.335,672.957 851.482,673.097C851.628,673.237 851.702,673.434 851.702,673.687L851.702,675.947L853.922,675.947C854.135,675.947 854.305,676.007 854.432,676.127C854.558,676.247 854.622,676.407 854.622,676.607C854.622,676.794 854.558,676.944 854.432,677.057C854.305,677.17 854.135,677.227 853.922,677.227L851.702,677.227L851.702,682.327C851.702,683.06 851.852,683.59 852.152,683.917C852.452,684.244 852.902,684.427 853.502,684.467L854.042,684.507Z" style="fill:rgb(103,103,108);fill-rule:nonzero;"/>
            <path d="M863.882,683.427C864.028,683.427 864.155,683.487 864.262,683.607C864.368,683.727 864.422,683.88 864.422,684.067C864.422,684.4 864.188,684.707 863.722,684.987C863.242,685.267 862.735,685.477 862.202,685.617C861.668,685.757 861.148,685.827 860.642,685.827C859.135,685.827 857.945,685.38 857.072,684.487C856.198,683.594 855.762,682.36 855.762,680.787C855.762,679.787 855.955,678.904 856.342,678.137C856.728,677.37 857.272,676.774 857.972,676.347C858.672,675.92 859.468,675.707 860.362,675.707C861.628,675.707 862.635,676.12 863.382,676.947C864.128,677.774 864.502,678.894 864.502,680.307C864.502,680.574 864.448,680.767 864.342,680.887C864.235,681.007 864.062,681.067 863.822,681.067L857.382,681.067C857.502,683.36 858.588,684.507 860.642,684.507C861.162,684.507 861.608,684.437 861.982,684.297C862.355,684.157 862.755,683.967 863.182,683.727C863.528,683.527 863.762,683.427 863.882,683.427ZM860.382,676.967C859.528,676.967 858.845,677.234 858.332,677.767C857.818,678.3 857.515,679.054 857.422,680.027L863.082,680.027C863.055,679.04 862.808,678.284 862.342,677.757C861.875,677.23 861.222,676.967 860.382,676.967Z" style="fill:rgb(103,103,108);fill-rule:nonzero;"/>
            <path d="M871.702,675.747C872.262,675.707 872.542,675.934 872.542,676.427C872.542,676.64 872.482,676.81 872.362,676.937C872.242,677.064 872.035,677.14 871.742,677.167L871.142,677.227C870.248,677.307 869.585,677.624 869.152,678.177C868.718,678.73 868.502,679.38 868.502,680.127L868.502,684.987C868.502,685.254 868.428,685.454 868.282,685.587C868.135,685.72 867.942,685.787 867.702,685.787C867.462,685.787 867.265,685.717 867.112,685.577C866.958,685.437 866.882,685.24 866.882,684.987L866.882,676.547C866.882,676.294 866.962,676.097 867.122,675.957C867.282,675.817 867.475,675.747 867.702,675.747C867.915,675.747 868.095,675.817 868.242,675.957C868.388,676.097 868.462,676.287 868.462,676.527L868.462,677.647C868.742,677.06 869.138,676.614 869.652,676.307C870.165,676 870.755,675.82 871.422,675.767L871.702,675.747Z" style="fill:rgb(103,103,108);fill-rule:nonzero;"/>
            <path d="M878.842,675.707C881.175,675.707 882.342,676.994 882.342,679.567L882.342,684.987C882.342,685.24 882.272,685.437 882.132,685.577C881.992,685.717 881.795,685.787 881.542,685.787C881.288,685.787 881.088,685.717 880.942,685.577C880.795,685.437 880.722,685.24 880.722,684.987L880.722,679.667C880.722,678.76 880.545,678.1 880.192,677.687C879.838,677.274 879.275,677.067 878.502,677.067C877.608,677.067 876.895,677.34 876.362,677.887C875.828,678.434 875.562,679.174 875.562,680.107L875.562,684.987C875.562,685.24 875.492,685.437 875.352,685.577C875.212,685.717 875.015,685.787 874.762,685.787C874.508,685.787 874.308,685.717 874.162,685.577C874.015,685.437 873.942,685.24 873.942,684.987L873.942,676.547C873.942,676.307 874.015,676.114 874.162,675.967C874.308,675.82 874.508,675.747 874.762,675.747C875.002,675.747 875.192,675.82 875.332,675.967C875.472,676.114 875.542,676.3 875.542,676.527L875.542,677.547C875.862,676.947 876.308,676.49 876.882,676.177C877.455,675.864 878.108,675.707 878.842,675.707Z" style="fill:rgb(103,103,108);fill-rule:nonzero;"/>
            <path d="M888.582,685.827C887.968,685.827 887.385,685.754 886.832,685.607C886.278,685.46 885.788,685.254 885.362,684.987C885.122,684.827 884.952,684.677 884.852,684.537C884.752,684.397 884.702,684.227 884.702,684.027C884.702,683.854 884.752,683.71 884.852,683.597C884.952,683.484 885.082,683.427 885.242,683.427C885.402,683.427 885.635,683.527 885.942,683.727C886.342,683.967 886.738,684.157 887.132,684.297C887.525,684.437 888.015,684.507 888.602,684.507C889.322,684.507 889.882,684.38 890.282,684.127C890.682,683.874 890.882,683.507 890.882,683.027C890.882,682.734 890.808,682.497 890.662,682.317C890.515,682.137 890.262,681.977 889.902,681.837C889.542,681.697 889.015,681.554 888.322,681.407C887.148,681.154 886.308,680.814 885.802,680.387C885.295,679.96 885.042,679.38 885.042,678.647C885.042,678.074 885.202,677.567 885.522,677.127C885.842,676.687 886.285,676.34 886.852,676.087C887.418,675.834 888.062,675.707 888.782,675.707C889.302,675.707 889.805,675.777 890.292,675.917C890.778,676.057 891.208,676.254 891.582,676.507C892.035,676.827 892.262,677.16 892.262,677.507C892.262,677.68 892.208,677.827 892.102,677.947C891.995,678.067 891.868,678.127 891.722,678.127C891.562,678.127 891.322,678.014 891.002,677.787C890.628,677.547 890.275,677.36 889.942,677.227C889.608,677.094 889.195,677.027 888.702,677.027C888.075,677.027 887.572,677.167 887.192,677.447C886.812,677.727 886.622,678.1 886.622,678.567C886.622,678.86 886.692,679.097 886.832,679.277C886.972,679.457 887.205,679.617 887.532,679.757C887.858,679.897 888.328,680.034 888.942,680.167C889.848,680.367 890.552,680.587 891.052,680.827C891.552,681.067 891.908,681.36 892.122,681.707C892.335,682.054 892.442,682.494 892.442,683.027C892.442,683.867 892.088,684.544 891.382,685.057C890.675,685.57 889.742,685.827 888.582,685.827Z" style="fill:rgb(103,103,108);fill-rule:nonzero;"/>
        </g>
    </g>
</svg>
