<?xml version="1.0" encoding="UTF-8" standalone="no"?>
<!DOCTYPE svg PUBLIC "-//W3C//DTD SVG 1.1//EN" "http://www.w3.org/Graphics/SVG/1.1/DTD/svg11.dtd">
<svg width="100%" height="100%" viewBox="0 0 175 74" version="1.1" xmlns="http://www.w3.org/2000/svg" xmlns:xlink="http://www.w3.org/1999/xlink" xml:space="preserve" xmlns:serif="http://www.serif.com/" style="fill-rule:evenodd;clip-rule:evenodd;stroke-linejoin:round;stroke-miterlimit:1.41421;">
    <g transform="matrix(1,0,0,1,-607,-502)">
        <g transform="matrix(1,0,0,1,450.095,353.438)">
            <path d="M174.082,148.676C174.284,148.676 174.442,148.737 174.554,148.86C174.666,148.983 174.722,149.145 174.722,149.348L174.722,159.476C174.722,159.668 174.668,159.823 174.562,159.94C174.455,160.057 174.306,160.116 174.114,160.116C173.922,160.116 173.778,160.057 173.682,159.94C173.586,159.823 173.538,159.668 173.538,159.476L173.538,151.3L170.066,157.956C169.916,158.265 169.698,158.42 169.41,158.42C169.132,158.42 168.914,158.265 168.754,157.956L165.266,151.38L165.266,159.476C165.266,159.668 165.215,159.823 165.114,159.94C165.012,160.057 164.866,160.116 164.674,160.116C164.482,160.116 164.332,160.057 164.226,159.94C164.119,159.823 164.066,159.668 164.066,159.476L164.066,149.348C164.066,149.145 164.124,148.983 164.242,148.86C164.359,148.737 164.519,148.676 164.722,148.676C164.988,148.676 165.202,148.831 165.362,149.14L169.426,156.932L173.442,149.14C173.527,148.969 173.62,148.849 173.722,148.78C173.823,148.711 173.943,148.676 174.082,148.676Z" style="fill:rgb(99,101,106);fill-rule:nonzero;"/>
            <path d="M180.562,160.148C179.826,160.148 179.178,159.983 178.618,159.652C178.058,159.321 177.626,158.849 177.322,158.236C177.018,157.623 176.866,156.911 176.866,156.1C176.866,155.289 177.018,154.577 177.322,153.964C177.626,153.351 178.058,152.879 178.618,152.548C179.178,152.217 179.826,152.052 180.562,152.052C181.298,152.052 181.948,152.217 182.514,152.548C183.079,152.879 183.514,153.351 183.818,153.964C184.122,154.577 184.274,155.289 184.274,156.1C184.274,156.911 184.122,157.623 183.818,158.236C183.514,158.849 183.079,159.321 182.514,159.652C181.948,159.983 181.298,160.148 180.562,160.148ZM180.562,159.076C181.33,159.076 181.919,158.823 182.33,158.316C182.74,157.809 182.946,157.071 182.946,156.1C182.946,155.151 182.738,154.417 182.322,153.9C181.906,153.383 181.319,153.124 180.562,153.124C179.804,153.124 179.218,153.383 178.802,153.9C178.386,154.417 178.178,155.151 178.178,156.1C178.178,157.06 178.383,157.796 178.794,158.308C179.204,158.82 179.794,159.076 180.562,159.076Z" style="fill:rgb(99,101,106);fill-rule:nonzero;"/>
            <path d="M190.13,152.052C191.996,152.052 192.93,153.081 192.93,155.14L192.93,159.476C192.93,159.679 192.874,159.836 192.762,159.948C192.65,160.06 192.492,160.116 192.29,160.116C192.087,160.116 191.927,160.06 191.81,159.948C191.692,159.836 191.634,159.679 191.634,159.476L191.634,155.22C191.634,154.495 191.492,153.967 191.21,153.636C190.927,153.305 190.476,153.14 189.858,153.14C189.143,153.14 188.572,153.359 188.146,153.796C187.719,154.233 187.506,154.825 187.506,155.572L187.506,159.476C187.506,159.679 187.45,159.836 187.338,159.948C187.226,160.06 187.068,160.116 186.866,160.116C186.663,160.116 186.503,160.06 186.386,159.948C186.268,159.836 186.21,159.679 186.21,159.476L186.21,152.724C186.21,152.532 186.268,152.377 186.386,152.26C186.503,152.143 186.663,152.084 186.866,152.084C187.058,152.084 187.21,152.143 187.322,152.26C187.434,152.377 187.49,152.527 187.49,152.708L187.49,153.524C187.746,153.044 188.103,152.679 188.562,152.428C189.02,152.177 189.543,152.052 190.13,152.052Z" style="fill:rgb(99,101,106);fill-rule:nonzero;"/>
            <path d="M195.954,160.116C195.762,160.116 195.604,160.06 195.482,159.948C195.359,159.836 195.298,159.679 195.298,159.476L195.298,152.724C195.298,152.521 195.359,152.364 195.482,152.252C195.604,152.14 195.762,152.084 195.954,152.084C196.146,152.084 196.3,152.14 196.418,152.252C196.535,152.364 196.594,152.521 196.594,152.724L196.594,159.476C196.594,159.689 196.535,159.849 196.418,159.956C196.3,160.063 196.146,160.116 195.954,160.116ZM195.954,150.404C195.698,150.404 195.49,150.329 195.33,150.18C195.17,150.031 195.09,149.833 195.09,149.588C195.09,149.353 195.17,149.161 195.33,149.012C195.49,148.863 195.698,148.788 195.954,148.788C196.21,148.788 196.418,148.863 196.578,149.012C196.738,149.161 196.818,149.353 196.818,149.588C196.818,149.833 196.738,150.031 196.578,150.18C196.418,150.329 196.21,150.404 195.954,150.404Z" style="fill:rgb(99,101,106);fill-rule:nonzero;"/>
            <path d="M202.61,159.092C202.983,159.124 203.17,159.295 203.17,159.604C203.17,159.785 203.103,159.921 202.97,160.012C202.836,160.103 202.636,160.137 202.37,160.116L201.938,160.084C201.084,160.02 200.455,159.764 200.05,159.316C199.644,158.868 199.442,158.191 199.442,157.284L199.442,153.268L198.37,153.268C198.188,153.268 198.047,153.223 197.946,153.132C197.844,153.041 197.794,152.921 197.794,152.772C197.794,152.612 197.844,152.484 197.946,152.388C198.047,152.292 198.188,152.244 198.37,152.244L199.442,152.244L199.442,150.436C199.442,150.233 199.5,150.076 199.618,149.964C199.735,149.852 199.895,149.796 200.098,149.796C200.29,149.796 200.444,149.852 200.562,149.964C200.679,150.076 200.738,150.233 200.738,150.436L200.738,152.244L202.514,152.244C202.684,152.244 202.82,152.292 202.922,152.388C203.023,152.484 203.074,152.612 203.074,152.772C203.074,152.921 203.023,153.041 202.922,153.132C202.82,153.223 202.684,153.268 202.514,153.268L200.738,153.268L200.738,157.348C200.738,157.935 200.858,158.359 201.098,158.62C201.338,158.881 201.698,159.028 202.178,159.06L202.61,159.092Z" style="fill:rgb(99,101,106);fill-rule:nonzero;"/>
            <path d="M207.682,160.148C206.946,160.148 206.298,159.983 205.738,159.652C205.178,159.321 204.746,158.849 204.442,158.236C204.138,157.623 203.986,156.911 203.986,156.1C203.986,155.289 204.138,154.577 204.442,153.964C204.746,153.351 205.178,152.879 205.738,152.548C206.298,152.217 206.946,152.052 207.682,152.052C208.418,152.052 209.068,152.217 209.634,152.548C210.199,152.879 210.634,153.351 210.938,153.964C211.242,154.577 211.394,155.289 211.394,156.1C211.394,156.911 211.242,157.623 210.938,158.236C210.634,158.849 210.199,159.321 209.634,159.652C209.068,159.983 208.418,160.148 207.682,160.148ZM207.682,159.076C208.45,159.076 209.039,158.823 209.45,158.316C209.86,157.809 210.066,157.071 210.066,156.1C210.066,155.151 209.858,154.417 209.442,153.9C209.026,153.383 208.439,153.124 207.682,153.124C206.924,153.124 206.338,153.383 205.922,153.9C205.506,154.417 205.298,155.151 205.298,156.1C205.298,157.06 205.503,157.796 205.914,158.308C206.324,158.82 206.914,159.076 207.682,159.076Z" style="fill:rgb(99,101,106);fill-rule:nonzero;"/>
            <path d="M217.186,152.084C217.634,152.052 217.858,152.233 217.858,152.628C217.858,152.799 217.81,152.935 217.714,153.036C217.618,153.137 217.452,153.199 217.218,153.22L216.738,153.268C216.023,153.332 215.492,153.585 215.146,154.028C214.799,154.471 214.626,154.991 214.626,155.588L214.626,159.476C214.626,159.689 214.567,159.849 214.45,159.956C214.332,160.063 214.178,160.116 213.986,160.116C213.794,160.116 213.636,160.06 213.514,159.948C213.391,159.836 213.33,159.679 213.33,159.476L213.33,152.724C213.33,152.521 213.394,152.364 213.522,152.252C213.65,152.14 213.804,152.084 213.986,152.084C214.156,152.084 214.3,152.14 214.418,152.252C214.535,152.364 214.594,152.516 214.594,152.708L214.594,153.604C214.818,153.135 215.135,152.777 215.546,152.532C215.956,152.287 216.428,152.143 216.962,152.1L217.186,152.084Z" style="fill:rgb(99,101,106);fill-rule:nonzero;"/>
            <path d="M221.522,160.148C221.031,160.148 220.564,160.089 220.122,159.972C219.679,159.855 219.287,159.689 218.946,159.476C218.754,159.348 218.618,159.228 218.538,159.116C218.458,159.004 218.418,158.868 218.418,158.708C218.418,158.569 218.458,158.455 218.538,158.364C218.618,158.273 218.722,158.228 218.85,158.228C218.978,158.228 219.164,158.308 219.41,158.468C219.73,158.66 220.047,158.812 220.362,158.924C220.676,159.036 221.068,159.092 221.538,159.092C222.114,159.092 222.562,158.991 222.882,158.788C223.202,158.585 223.362,158.292 223.362,157.908C223.362,157.673 223.303,157.484 223.186,157.34C223.068,157.196 222.866,157.068 222.578,156.956C222.29,156.844 221.868,156.729 221.314,156.612C220.375,156.409 219.703,156.137 219.298,155.796C218.892,155.455 218.69,154.991 218.69,154.404C218.69,153.945 218.818,153.54 219.074,153.188C219.33,152.836 219.684,152.559 220.138,152.356C220.591,152.153 221.106,152.052 221.682,152.052C222.098,152.052 222.5,152.108 222.89,152.22C223.279,152.332 223.623,152.489 223.922,152.692C224.284,152.948 224.466,153.215 224.466,153.492C224.466,153.631 224.423,153.748 224.338,153.844C224.252,153.94 224.151,153.988 224.034,153.988C223.906,153.988 223.714,153.897 223.458,153.716C223.159,153.524 222.876,153.375 222.61,153.268C222.343,153.161 222.012,153.108 221.618,153.108C221.116,153.108 220.714,153.22 220.41,153.444C220.106,153.668 219.954,153.967 219.954,154.34C219.954,154.575 220.01,154.764 220.122,154.908C220.234,155.052 220.42,155.18 220.682,155.292C220.943,155.404 221.319,155.513 221.81,155.62C222.535,155.78 223.098,155.956 223.498,156.148C223.898,156.34 224.183,156.575 224.354,156.852C224.524,157.129 224.61,157.481 224.61,157.908C224.61,158.58 224.327,159.121 223.762,159.532C223.196,159.943 222.45,160.148 221.522,160.148Z" style="fill:rgb(99,101,106);fill-rule:nonzero;"/>
            <path d="M233.89,152.052C235.842,152.052 236.818,153.076 236.818,155.124L236.818,159.476C236.818,159.668 236.762,159.823 236.65,159.94C236.538,160.057 236.386,160.116 236.194,160.116C236.002,160.116 235.847,160.057 235.73,159.94C235.612,159.823 235.554,159.668 235.554,159.476L235.554,158.708C235.351,159.167 235.042,159.521 234.626,159.772C234.21,160.023 233.73,160.148 233.186,160.148C232.684,160.148 232.223,160.047 231.802,159.844C231.38,159.641 231.047,159.359 230.802,158.996C230.556,158.633 230.434,158.233 230.434,157.796C230.434,157.209 230.583,156.753 230.882,156.428C231.18,156.103 231.671,155.868 232.354,155.724C233.036,155.58 233.986,155.508 235.202,155.508L235.554,155.508L235.554,154.98C235.554,154.34 235.423,153.871 235.162,153.572C234.9,153.273 234.476,153.124 233.89,153.124C233.164,153.124 232.428,153.321 231.682,153.716C231.394,153.897 231.191,153.988 231.074,153.988C230.946,153.988 230.839,153.94 230.754,153.844C230.668,153.748 230.626,153.625 230.626,153.476C230.626,153.327 230.671,153.196 230.762,153.084C230.852,152.972 230.999,152.857 231.202,152.74C231.575,152.527 231.999,152.359 232.474,152.236C232.948,152.113 233.42,152.052 233.89,152.052ZM233.362,159.124C234.002,159.124 234.527,158.908 234.938,158.476C235.348,158.044 235.554,157.487 235.554,156.804L235.554,156.34L235.266,156.34C234.327,156.34 233.612,156.38 233.122,156.46C232.631,156.54 232.282,156.673 232.074,156.86C231.866,157.047 231.762,157.321 231.762,157.684C231.762,158.1 231.914,158.444 232.218,158.716C232.522,158.988 232.903,159.124 233.362,159.124Z" style="fill:rgb(99,101,106);fill-rule:nonzero;"/>
            <path d="M243.106,152.052C244.972,152.052 245.906,153.081 245.906,155.14L245.906,159.476C245.906,159.679 245.85,159.836 245.738,159.948C245.626,160.06 245.468,160.116 245.266,160.116C245.063,160.116 244.903,160.06 244.786,159.948C244.668,159.836 244.61,159.679 244.61,159.476L244.61,155.22C244.61,154.495 244.468,153.967 244.186,153.636C243.903,153.305 243.452,153.14 242.834,153.14C242.119,153.14 241.548,153.359 241.122,153.796C240.695,154.233 240.482,154.825 240.482,155.572L240.482,159.476C240.482,159.679 240.426,159.836 240.314,159.948C240.202,160.06 240.044,160.116 239.842,160.116C239.639,160.116 239.479,160.06 239.362,159.948C239.244,159.836 239.186,159.679 239.186,159.476L239.186,152.724C239.186,152.532 239.244,152.377 239.362,152.26C239.479,152.143 239.639,152.084 239.842,152.084C240.034,152.084 240.186,152.143 240.298,152.26C240.41,152.377 240.466,152.527 240.466,152.708L240.466,153.524C240.722,153.044 241.079,152.679 241.538,152.428C241.996,152.177 242.519,152.052 243.106,152.052Z" style="fill:rgb(99,101,106);fill-rule:nonzero;"/>
            <path d="M254.53,148.676C254.732,148.676 254.892,148.735 255.01,148.852C255.127,148.969 255.186,149.119 255.186,149.3L255.186,159.476C255.186,159.668 255.127,159.823 255.01,159.94C254.892,160.057 254.732,160.116 254.53,160.116C254.327,160.116 254.17,160.057 254.058,159.94C253.946,159.823 253.89,159.668 253.89,159.476L253.89,158.612C253.655,159.103 253.311,159.481 252.858,159.748C252.404,160.015 251.874,160.148 251.266,160.148C250.583,160.148 249.98,159.977 249.458,159.636C248.935,159.295 248.53,158.817 248.242,158.204C247.954,157.591 247.81,156.879 247.81,156.068C247.81,155.268 247.954,154.564 248.242,153.956C248.53,153.348 248.935,152.879 249.458,152.548C249.98,152.217 250.583,152.052 251.266,152.052C251.874,152.052 252.404,152.185 252.858,152.452C253.311,152.719 253.655,153.097 253.89,153.588L253.89,149.3C253.89,149.108 253.946,148.956 254.058,148.844C254.17,148.732 254.327,148.676 254.53,148.676ZM251.522,159.076C252.279,159.076 252.863,158.817 253.274,158.3C253.684,157.783 253.89,157.049 253.89,156.1C253.89,155.151 253.684,154.42 253.274,153.908C252.863,153.396 252.279,153.14 251.522,153.14C250.764,153.14 250.175,153.396 249.754,153.908C249.332,154.42 249.122,155.14 249.122,156.068C249.122,157.017 249.332,157.756 249.754,158.284C250.175,158.812 250.764,159.076 251.522,159.076Z" style="fill:rgb(99,101,106);fill-rule:nonzero;"/>
            <path d="M270.386,152.052C272.114,152.052 272.978,153.081 272.978,155.14L272.978,159.476C272.978,159.679 272.919,159.836 272.802,159.948C272.684,160.06 272.53,160.116 272.338,160.116C272.146,160.116 271.988,160.06 271.866,159.948C271.743,159.836 271.682,159.679 271.682,159.476L271.682,155.172C271.682,154.457 271.554,153.94 271.298,153.62C271.042,153.3 270.642,153.14 270.098,153.14C269.447,153.14 268.935,153.359 268.562,153.796C268.188,154.233 268.002,154.825 268.002,155.572L268.002,159.476C268.002,159.679 267.94,159.836 267.818,159.948C267.695,160.06 267.538,160.116 267.346,160.116C267.154,160.116 266.999,160.06 266.882,159.948C266.764,159.836 266.706,159.679 266.706,159.476L266.706,155.172C266.706,154.457 266.578,153.94 266.322,153.62C266.066,153.3 265.66,153.14 265.106,153.14C264.466,153.14 263.956,153.359 263.578,153.796C263.199,154.233 263.01,154.825 263.01,155.572L263.01,159.476C263.01,159.679 262.951,159.836 262.834,159.948C262.716,160.06 262.562,160.116 262.37,160.116C262.178,160.116 262.02,160.06 261.898,159.948C261.775,159.836 261.714,159.679 261.714,159.476L261.714,152.724C261.714,152.532 261.775,152.377 261.898,152.26C262.02,152.143 262.178,152.084 262.37,152.084C262.551,152.084 262.7,152.14 262.818,152.252C262.935,152.364 262.994,152.516 262.994,152.708L262.994,153.476C263.228,153.017 263.554,152.665 263.97,152.42C264.386,152.175 264.866,152.052 265.41,152.052C266.626,152.052 267.42,152.564 267.794,153.588C268.018,153.119 268.359,152.745 268.818,152.468C269.276,152.191 269.799,152.052 270.386,152.052Z" style="fill:rgb(99,101,106);fill-rule:nonzero;"/>
            <path d="M278.53,152.052C280.482,152.052 281.458,153.076 281.458,155.124L281.458,159.476C281.458,159.668 281.402,159.823 281.29,159.94C281.178,160.057 281.026,160.116 280.834,160.116C280.642,160.116 280.487,160.057 280.37,159.94C280.252,159.823 280.194,159.668 280.194,159.476L280.194,158.708C279.991,159.167 279.682,159.521 279.266,159.772C278.85,160.023 278.37,160.148 277.826,160.148C277.324,160.148 276.863,160.047 276.442,159.844C276.02,159.641 275.687,159.359 275.442,158.996C275.196,158.633 275.074,158.233 275.074,157.796C275.074,157.209 275.223,156.753 275.522,156.428C275.82,156.103 276.311,155.868 276.994,155.724C277.676,155.58 278.626,155.508 279.842,155.508L280.194,155.508L280.194,154.98C280.194,154.34 280.063,153.871 279.802,153.572C279.54,153.273 279.116,153.124 278.53,153.124C277.804,153.124 277.068,153.321 276.322,153.716C276.034,153.897 275.831,153.988 275.714,153.988C275.586,153.988 275.479,153.94 275.394,153.844C275.308,153.748 275.266,153.625 275.266,153.476C275.266,153.327 275.311,153.196 275.402,153.084C275.492,152.972 275.639,152.857 275.842,152.74C276.215,152.527 276.639,152.359 277.114,152.236C277.588,152.113 278.06,152.052 278.53,152.052ZM278.002,159.124C278.642,159.124 279.167,158.908 279.578,158.476C279.988,158.044 280.194,157.487 280.194,156.804L280.194,156.34L279.906,156.34C278.967,156.34 278.252,156.38 277.762,156.46C277.271,156.54 276.922,156.673 276.714,156.86C276.506,157.047 276.402,157.321 276.402,157.684C276.402,158.1 276.554,158.444 276.858,158.716C277.162,158.988 277.543,159.124 278.002,159.124Z" style="fill:rgb(99,101,106);fill-rule:nonzero;"/>
            <path d="M287.746,152.052C289.612,152.052 290.546,153.081 290.546,155.14L290.546,159.476C290.546,159.679 290.49,159.836 290.378,159.948C290.266,160.06 290.108,160.116 289.906,160.116C289.703,160.116 289.543,160.06 289.426,159.948C289.308,159.836 289.25,159.679 289.25,159.476L289.25,155.22C289.25,154.495 289.108,153.967 288.826,153.636C288.543,153.305 288.092,153.14 287.474,153.14C286.759,153.14 286.188,153.359 285.762,153.796C285.335,154.233 285.122,154.825 285.122,155.572L285.122,159.476C285.122,159.679 285.066,159.836 284.954,159.948C284.842,160.06 284.684,160.116 284.482,160.116C284.279,160.116 284.119,160.06 284.002,159.948C283.884,159.836 283.826,159.679 283.826,159.476L283.826,152.724C283.826,152.532 283.884,152.377 284.002,152.26C284.119,152.143 284.279,152.084 284.482,152.084C284.674,152.084 284.826,152.143 284.938,152.26C285.05,152.377 285.106,152.527 285.106,152.708L285.106,153.524C285.362,153.044 285.719,152.679 286.178,152.428C286.636,152.177 287.159,152.052 287.746,152.052Z" style="fill:rgb(99,101,106);fill-rule:nonzero;"/>
            <path d="M296.098,152.052C298.05,152.052 299.026,153.076 299.026,155.124L299.026,159.476C299.026,159.668 298.97,159.823 298.858,159.94C298.746,160.057 298.594,160.116 298.402,160.116C298.21,160.116 298.055,160.057 297.938,159.94C297.82,159.823 297.762,159.668 297.762,159.476L297.762,158.708C297.559,159.167 297.25,159.521 296.834,159.772C296.418,160.023 295.938,160.148 295.394,160.148C294.892,160.148 294.431,160.047 294.01,159.844C293.588,159.641 293.255,159.359 293.01,158.996C292.764,158.633 292.642,158.233 292.642,157.796C292.642,157.209 292.791,156.753 293.09,156.428C293.388,156.103 293.879,155.868 294.562,155.724C295.244,155.58 296.194,155.508 297.41,155.508L297.762,155.508L297.762,154.98C297.762,154.34 297.631,153.871 297.37,153.572C297.108,153.273 296.684,153.124 296.098,153.124C295.372,153.124 294.636,153.321 293.89,153.716C293.602,153.897 293.399,153.988 293.282,153.988C293.154,153.988 293.047,153.94 292.962,153.844C292.876,153.748 292.834,153.625 292.834,153.476C292.834,153.327 292.879,153.196 292.97,153.084C293.06,152.972 293.207,152.857 293.41,152.74C293.783,152.527 294.207,152.359 294.682,152.236C295.156,152.113 295.628,152.052 296.098,152.052ZM295.57,159.124C296.21,159.124 296.735,158.908 297.146,158.476C297.556,158.044 297.762,157.487 297.762,156.804L297.762,156.34L297.474,156.34C296.535,156.34 295.82,156.38 295.33,156.46C294.839,156.54 294.49,156.673 294.282,156.86C294.074,157.047 293.97,157.321 293.97,157.684C293.97,158.1 294.122,158.444 294.426,158.716C294.73,158.988 295.111,159.124 295.57,159.124Z" style="fill:rgb(99,101,106);fill-rule:nonzero;"/>
            <path d="M307.714,152.084C307.916,152.084 308.076,152.143 308.194,152.26C308.311,152.377 308.37,152.532 308.37,152.724L308.37,159.508C308.37,160.671 308.071,161.548 307.474,162.14C306.876,162.732 305.991,163.028 304.818,163.028C303.676,163.028 302.727,162.804 301.97,162.356C301.586,162.143 301.394,161.897 301.394,161.62C301.394,161.471 301.434,161.348 301.514,161.252C301.594,161.156 301.698,161.108 301.826,161.108C301.932,161.108 302.124,161.183 302.402,161.332C302.775,161.524 303.143,161.679 303.506,161.796C303.868,161.913 304.3,161.972 304.802,161.972C305.559,161.972 306.13,161.772 306.514,161.372C306.898,160.972 307.09,160.388 307.09,159.62L307.09,158.244C306.866,158.745 306.522,159.129 306.058,159.396C305.594,159.663 305.047,159.796 304.418,159.796C303.735,159.796 303.13,159.636 302.602,159.316C302.074,158.996 301.663,158.543 301.37,157.956C301.076,157.369 300.93,156.692 300.93,155.924C300.93,155.156 301.076,154.479 301.37,153.892C301.663,153.305 302.074,152.852 302.602,152.532C303.13,152.212 303.735,152.052 304.418,152.052C305.036,152.052 305.575,152.185 306.034,152.452C306.492,152.719 306.839,153.097 307.074,153.588L307.074,152.724C307.074,152.532 307.13,152.377 307.242,152.26C307.354,152.143 307.511,152.084 307.714,152.084ZM304.674,158.724C305.42,158.724 306.007,158.476 306.434,157.98C306.86,157.484 307.074,156.799 307.074,155.924C307.074,155.06 306.863,154.38 306.442,153.884C306.02,153.388 305.431,153.14 304.674,153.14C303.916,153.14 303.322,153.388 302.89,153.884C302.458,154.38 302.242,155.06 302.242,155.924C302.242,156.799 302.458,157.484 302.89,157.98C303.322,158.476 303.916,158.724 304.674,158.724Z" style="fill:rgb(99,101,106);fill-rule:nonzero;"/>
            <path d="M316.802,158.228C316.919,158.228 317.02,158.276 317.106,158.372C317.191,158.468 317.234,158.591 317.234,158.74C317.234,159.007 317.047,159.252 316.674,159.476C316.29,159.7 315.884,159.868 315.458,159.98C315.031,160.092 314.615,160.148 314.21,160.148C313.004,160.148 312.052,159.791 311.354,159.076C310.655,158.361 310.306,157.375 310.306,156.116C310.306,155.316 310.46,154.609 310.77,153.996C311.079,153.383 311.514,152.905 312.074,152.564C312.634,152.223 313.271,152.052 313.986,152.052C314.999,152.052 315.804,152.383 316.402,153.044C316.999,153.705 317.298,154.601 317.298,155.732C317.298,155.945 317.255,156.1 317.17,156.196C317.084,156.292 316.946,156.34 316.754,156.34L311.602,156.34C311.698,158.175 312.567,159.092 314.21,159.092C314.626,159.092 314.983,159.036 315.282,158.924C315.58,158.812 315.9,158.66 316.242,158.468C316.519,158.308 316.706,158.228 316.802,158.228ZM314.002,153.06C313.319,153.06 312.772,153.273 312.362,153.7C311.951,154.127 311.708,154.729 311.634,155.508L316.162,155.508C316.14,154.719 315.943,154.113 315.57,153.692C315.196,153.271 314.674,153.06 314.002,153.06Z" style="fill:rgb(99,101,106);fill-rule:nonzero;"/>
            <path d="M321.826,160.148C321.335,160.148 320.868,160.089 320.426,159.972C319.983,159.855 319.591,159.689 319.25,159.476C319.058,159.348 318.922,159.228 318.842,159.116C318.762,159.004 318.722,158.868 318.722,158.708C318.722,158.569 318.762,158.455 318.842,158.364C318.922,158.273 319.026,158.228 319.154,158.228C319.282,158.228 319.468,158.308 319.714,158.468C320.034,158.66 320.351,158.812 320.666,158.924C320.98,159.036 321.372,159.092 321.842,159.092C322.418,159.092 322.866,158.991 323.186,158.788C323.506,158.585 323.666,158.292 323.666,157.908C323.666,157.673 323.607,157.484 323.49,157.34C323.372,157.196 323.17,157.068 322.882,156.956C322.594,156.844 322.172,156.729 321.618,156.612C320.679,156.409 320.007,156.137 319.602,155.796C319.196,155.455 318.994,154.991 318.994,154.404C318.994,153.945 319.122,153.54 319.378,153.188C319.634,152.836 319.988,152.559 320.442,152.356C320.895,152.153 321.41,152.052 321.986,152.052C322.402,152.052 322.804,152.108 323.194,152.22C323.583,152.332 323.927,152.489 324.226,152.692C324.588,152.948 324.77,153.215 324.77,153.492C324.77,153.631 324.727,153.748 324.642,153.844C324.556,153.94 324.455,153.988 324.338,153.988C324.21,153.988 324.018,153.897 323.762,153.716C323.463,153.524 323.18,153.375 322.914,153.268C322.647,153.161 322.316,153.108 321.922,153.108C321.42,153.108 321.018,153.22 320.714,153.444C320.41,153.668 320.258,153.967 320.258,154.34C320.258,154.575 320.314,154.764 320.426,154.908C320.538,155.052 320.724,155.18 320.986,155.292C321.247,155.404 321.623,155.513 322.114,155.62C322.839,155.78 323.402,155.956 323.802,156.148C324.202,156.34 324.487,156.575 324.658,156.852C324.828,157.129 324.914,157.481 324.914,157.908C324.914,158.58 324.631,159.121 324.066,159.532C323.5,159.943 322.754,160.148 321.826,160.148Z" style="fill:rgb(99,101,106);fill-rule:nonzero;"/>
            <path d="M161.602,172.052C163.468,172.052 164.402,173.081 164.402,175.14L164.402,179.476C164.402,179.679 164.346,179.836 164.234,179.948C164.122,180.06 163.964,180.116 163.762,180.116C163.559,180.116 163.399,180.06 163.282,179.948C163.164,179.836 163.106,179.679 163.106,179.476L163.106,175.22C163.106,174.495 162.964,173.967 162.682,173.636C162.399,173.305 161.948,173.14 161.33,173.14C160.615,173.14 160.044,173.359 159.618,173.796C159.191,174.233 158.978,174.825 158.978,175.572L158.978,179.476C158.978,179.679 158.922,179.836 158.81,179.948C158.698,180.06 158.54,180.116 158.338,180.116C158.135,180.116 157.975,180.06 157.858,179.948C157.74,179.836 157.682,179.679 157.682,179.476L157.682,172.724C157.682,172.532 157.74,172.377 157.858,172.26C157.975,172.143 158.135,172.084 158.338,172.084C158.53,172.084 158.682,172.143 158.794,172.26C158.906,172.377 158.962,172.527 158.962,172.708L158.962,173.524C159.218,173.044 159.575,172.679 160.034,172.428C160.492,172.177 161.015,172.052 161.602,172.052Z" style="fill:rgb(99,101,106);fill-rule:nonzero;"/>
            <path d="M172.802,178.228C172.919,178.228 173.02,178.276 173.106,178.372C173.191,178.468 173.234,178.591 173.234,178.74C173.234,179.007 173.047,179.252 172.674,179.476C172.29,179.7 171.884,179.868 171.458,179.98C171.031,180.092 170.615,180.148 170.21,180.148C169.004,180.148 168.052,179.791 167.354,179.076C166.655,178.361 166.306,177.375 166.306,176.116C166.306,175.316 166.46,174.609 166.77,173.996C167.079,173.383 167.514,172.905 168.074,172.564C168.634,172.223 169.271,172.052 169.986,172.052C170.999,172.052 171.804,172.383 172.402,173.044C172.999,173.705 173.298,174.601 173.298,175.732C173.298,175.945 173.255,176.1 173.17,176.196C173.084,176.292 172.946,176.34 172.754,176.34L167.602,176.34C167.698,178.175 168.567,179.092 170.21,179.092C170.626,179.092 170.983,179.036 171.282,178.924C171.58,178.812 171.9,178.66 172.242,178.468C172.519,178.308 172.706,178.228 172.802,178.228ZM170.002,173.06C169.319,173.06 168.772,173.273 168.362,173.7C167.951,174.127 167.708,174.729 167.634,175.508L172.162,175.508C172.14,174.719 171.943,174.113 171.57,173.692C171.196,173.271 170.674,173.06 170.002,173.06Z" style="fill:rgb(99,101,106);fill-rule:nonzero;"/>
            <path d="M178.754,179.092C179.127,179.124 179.314,179.295 179.314,179.604C179.314,179.785 179.247,179.921 179.114,180.012C178.98,180.103 178.78,180.137 178.514,180.116L178.082,180.084C177.228,180.02 176.599,179.764 176.194,179.316C175.788,178.868 175.586,178.191 175.586,177.284L175.586,173.268L174.514,173.268C174.332,173.268 174.191,173.223 174.09,173.132C173.988,173.041 173.938,172.921 173.938,172.772C173.938,172.612 173.988,172.484 174.09,172.388C174.191,172.292 174.332,172.244 174.514,172.244L175.586,172.244L175.586,170.436C175.586,170.233 175.644,170.076 175.762,169.964C175.879,169.852 176.039,169.796 176.242,169.796C176.434,169.796 176.588,169.852 176.706,169.964C176.823,170.076 176.882,170.233 176.882,170.436L176.882,172.244L178.658,172.244C178.828,172.244 178.964,172.292 179.066,172.388C179.167,172.484 179.218,172.612 179.218,172.772C179.218,172.921 179.167,173.041 179.066,173.132C178.964,173.223 178.828,173.268 178.658,173.268L176.882,173.268L176.882,177.348C176.882,177.935 177.002,178.359 177.242,178.62C177.482,178.881 177.842,179.028 178.322,179.06L178.754,179.092Z" style="fill:rgb(99,101,106);fill-rule:nonzero;"/>
            <path d="M191.346,172.5C191.452,172.244 191.628,172.116 191.874,172.116C192.034,172.116 192.178,172.169 192.306,172.276C192.434,172.383 192.498,172.516 192.498,172.676C192.498,172.751 192.482,172.831 192.45,172.916L189.794,179.636C189.73,179.775 189.636,179.884 189.514,179.964C189.391,180.044 189.255,180.084 189.106,180.084C188.967,180.084 188.836,180.044 188.714,179.964C188.591,179.884 188.498,179.775 188.434,179.636L186.226,174.02L184.034,179.636C183.98,179.775 183.89,179.884 183.762,179.964C183.634,180.044 183.495,180.084 183.346,180.084C183.207,180.084 183.074,180.044 182.946,179.964C182.818,179.884 182.722,179.775 182.658,179.636L180.002,172.932C179.97,172.847 179.954,172.772 179.954,172.708C179.954,172.537 180.026,172.393 180.17,172.276C180.314,172.159 180.471,172.1 180.642,172.1C180.898,172.1 181.079,172.228 181.186,172.484L183.378,178.388L185.634,172.532C185.698,172.393 185.786,172.287 185.898,172.212C186.01,172.137 186.13,172.1 186.258,172.1C186.396,172.1 186.522,172.137 186.634,172.212C186.746,172.287 186.828,172.393 186.882,172.532L189.138,178.372L191.346,172.5Z" style="fill:rgb(99,101,106);fill-rule:nonzero;"/>
            <path d="M197.298,180.148C196.562,180.148 195.914,179.983 195.354,179.652C194.794,179.321 194.362,178.849 194.058,178.236C193.754,177.623 193.602,176.911 193.602,176.1C193.602,175.289 193.754,174.577 194.058,173.964C194.362,173.351 194.794,172.879 195.354,172.548C195.914,172.217 196.562,172.052 197.298,172.052C198.034,172.052 198.684,172.217 199.25,172.548C199.815,172.879 200.25,173.351 200.554,173.964C200.858,174.577 201.01,175.289 201.01,176.1C201.01,176.911 200.858,177.623 200.554,178.236C200.25,178.849 199.815,179.321 199.25,179.652C198.684,179.983 198.034,180.148 197.298,180.148ZM197.298,179.076C198.066,179.076 198.655,178.823 199.066,178.316C199.476,177.809 199.682,177.071 199.682,176.1C199.682,175.151 199.474,174.417 199.058,173.9C198.642,173.383 198.055,173.124 197.298,173.124C196.54,173.124 195.954,173.383 195.538,173.9C195.122,174.417 194.914,175.151 194.914,176.1C194.914,177.06 195.119,177.796 195.53,178.308C195.94,178.82 196.53,179.076 197.298,179.076Z" style="fill:rgb(99,101,106);fill-rule:nonzero;"/>
            <path d="M206.802,172.084C207.25,172.052 207.474,172.233 207.474,172.628C207.474,172.799 207.426,172.935 207.33,173.036C207.234,173.137 207.068,173.199 206.834,173.22L206.354,173.268C205.639,173.332 205.108,173.585 204.762,174.028C204.415,174.471 204.242,174.991 204.242,175.588L204.242,179.476C204.242,179.689 204.183,179.849 204.066,179.956C203.948,180.063 203.794,180.116 203.602,180.116C203.41,180.116 203.252,180.06 203.13,179.948C203.007,179.836 202.946,179.679 202.946,179.476L202.946,172.724C202.946,172.521 203.01,172.364 203.138,172.252C203.266,172.14 203.42,172.084 203.602,172.084C203.772,172.084 203.916,172.14 204.034,172.252C204.151,172.364 204.21,172.516 204.21,172.708L204.21,173.604C204.434,173.135 204.751,172.777 205.162,172.532C205.572,172.287 206.044,172.143 206.578,172.1L206.802,172.084Z" style="fill:rgb(99,101,106);fill-rule:nonzero;"/>
            <path d="M214.818,179.012C214.988,179.172 215.074,179.343 215.074,179.524C215.074,179.684 215.018,179.823 214.906,179.94C214.794,180.057 214.658,180.116 214.498,180.116C214.359,180.116 214.215,180.052 214.066,179.924L209.89,176.324L209.89,179.476C209.89,179.679 209.828,179.836 209.706,179.948C209.583,180.06 209.431,180.116 209.25,180.116C209.058,180.116 208.9,180.06 208.778,179.948C208.655,179.836 208.594,179.679 208.594,179.476L208.594,169.316C208.594,169.113 208.655,168.956 208.778,168.844C208.9,168.732 209.058,168.676 209.25,168.676C209.431,168.676 209.583,168.732 209.706,168.844C209.828,168.956 209.89,169.113 209.89,169.316L209.89,175.812L213.714,172.308C213.842,172.18 213.986,172.116 214.146,172.116C214.306,172.116 214.444,172.175 214.562,172.292C214.679,172.409 214.738,172.548 214.738,172.708C214.738,172.889 214.663,173.049 214.514,173.188L211.362,176.004L214.818,179.012Z" style="fill:rgb(99,101,106);fill-rule:nonzero;"/>
            <path d="M216.706,176.308C216.514,176.308 216.367,176.26 216.266,176.164C216.164,176.068 216.114,175.94 216.114,175.78C216.114,175.62 216.164,175.489 216.266,175.388C216.367,175.287 216.514,175.236 216.706,175.236L220.226,175.236C220.428,175.236 220.58,175.287 220.682,175.388C220.783,175.489 220.834,175.62 220.834,175.78C220.834,175.94 220.783,176.068 220.682,176.164C220.58,176.26 220.428,176.308 220.226,176.308L216.706,176.308Z" style="fill:rgb(99,101,106);fill-rule:nonzero;"/>
            <path d="M233.49,172.5C233.596,172.244 233.772,172.116 234.018,172.116C234.178,172.116 234.322,172.169 234.45,172.276C234.578,172.383 234.642,172.516 234.642,172.676C234.642,172.751 234.626,172.831 234.594,172.916L231.938,179.636C231.874,179.775 231.78,179.884 231.658,179.964C231.535,180.044 231.399,180.084 231.25,180.084C231.111,180.084 230.98,180.044 230.858,179.964C230.735,179.884 230.642,179.775 230.578,179.636L228.37,174.02L226.178,179.636C226.124,179.775 226.034,179.884 225.906,179.964C225.778,180.044 225.639,180.084 225.49,180.084C225.351,180.084 225.218,180.044 225.09,179.964C224.962,179.884 224.866,179.775 224.802,179.636L222.146,172.932C222.114,172.847 222.098,172.772 222.098,172.708C222.098,172.537 222.17,172.393 222.314,172.276C222.458,172.159 222.615,172.1 222.786,172.1C223.042,172.1 223.223,172.228 223.33,172.484L225.522,178.388L227.778,172.532C227.842,172.393 227.93,172.287 228.042,172.212C228.154,172.137 228.274,172.1 228.402,172.1C228.54,172.1 228.666,172.137 228.778,172.212C228.89,172.287 228.972,172.393 229.026,172.532L231.282,178.372L233.49,172.5Z" style="fill:rgb(99,101,106);fill-rule:nonzero;"/>
            <path d="M236.962,180.116C236.77,180.116 236.612,180.06 236.49,179.948C236.367,179.836 236.306,179.679 236.306,179.476L236.306,172.724C236.306,172.521 236.367,172.364 236.49,172.252C236.612,172.14 236.77,172.084 236.962,172.084C237.154,172.084 237.308,172.14 237.426,172.252C237.543,172.364 237.602,172.521 237.602,172.724L237.602,179.476C237.602,179.689 237.543,179.849 237.426,179.956C237.308,180.063 237.154,180.116 236.962,180.116ZM236.962,170.404C236.706,170.404 236.498,170.329 236.338,170.18C236.178,170.031 236.098,169.833 236.098,169.588C236.098,169.353 236.178,169.161 236.338,169.012C236.498,168.863 236.706,168.788 236.962,168.788C237.218,168.788 237.426,168.863 237.586,169.012C237.746,169.161 237.826,169.353 237.826,169.588C237.826,169.833 237.746,170.031 237.586,170.18C237.426,170.329 237.218,170.404 236.962,170.404Z" style="fill:rgb(99,101,106);fill-rule:nonzero;"/>
            <path d="M246.274,168.676C246.476,168.676 246.636,168.735 246.754,168.852C246.871,168.969 246.93,169.119 246.93,169.3L246.93,179.476C246.93,179.668 246.871,179.823 246.754,179.94C246.636,180.057 246.476,180.116 246.274,180.116C246.071,180.116 245.914,180.057 245.802,179.94C245.69,179.823 245.634,179.668 245.634,179.476L245.634,178.612C245.399,179.103 245.055,179.481 244.602,179.748C244.148,180.015 243.618,180.148 243.01,180.148C242.327,180.148 241.724,179.977 241.202,179.636C240.679,179.295 240.274,178.817 239.986,178.204C239.698,177.591 239.554,176.879 239.554,176.068C239.554,175.268 239.698,174.564 239.986,173.956C240.274,173.348 240.679,172.879 241.202,172.548C241.724,172.217 242.327,172.052 243.01,172.052C243.618,172.052 244.148,172.185 244.602,172.452C245.055,172.719 245.399,173.097 245.634,173.588L245.634,169.3C245.634,169.108 245.69,168.956 245.802,168.844C245.914,168.732 246.071,168.676 246.274,168.676ZM243.266,179.076C244.023,179.076 244.607,178.817 245.018,178.3C245.428,177.783 245.634,177.049 245.634,176.1C245.634,175.151 245.428,174.42 245.018,173.908C244.607,173.396 244.023,173.14 243.266,173.14C242.508,173.14 241.919,173.396 241.498,173.908C241.076,174.42 240.866,175.14 240.866,176.068C240.866,177.017 241.076,177.756 241.498,178.284C241.919,178.812 242.508,179.076 243.266,179.076Z" style="fill:rgb(99,101,106);fill-rule:nonzero;"/>
            <path d="M255.362,178.228C255.479,178.228 255.58,178.276 255.666,178.372C255.751,178.468 255.794,178.591 255.794,178.74C255.794,179.007 255.607,179.252 255.234,179.476C254.85,179.7 254.444,179.868 254.018,179.98C253.591,180.092 253.175,180.148 252.77,180.148C251.564,180.148 250.612,179.791 249.914,179.076C249.215,178.361 248.866,177.375 248.866,176.116C248.866,175.316 249.02,174.609 249.33,173.996C249.639,173.383 250.074,172.905 250.634,172.564C251.194,172.223 251.831,172.052 252.546,172.052C253.559,172.052 254.364,172.383 254.962,173.044C255.559,173.705 255.858,174.601 255.858,175.732C255.858,175.945 255.815,176.1 255.73,176.196C255.644,176.292 255.506,176.34 255.314,176.34L250.162,176.34C250.258,178.175 251.127,179.092 252.77,179.092C253.186,179.092 253.543,179.036 253.842,178.924C254.14,178.812 254.46,178.66 254.802,178.468C255.079,178.308 255.266,178.228 255.362,178.228ZM252.562,173.06C251.879,173.06 251.332,173.273 250.922,173.7C250.511,174.127 250.268,174.729 250.194,175.508L254.722,175.508C254.7,174.719 254.503,174.113 254.13,173.692C253.756,173.271 253.234,173.06 252.562,173.06Z" style="fill:rgb(99,101,106);fill-rule:nonzero;"/>
            <path d="M258.37,178.308C258.636,178.308 258.852,178.412 259.018,178.62C259.183,178.828 259.266,179.14 259.266,179.556C259.266,180.399 258.994,181.108 258.45,181.684C258.343,181.801 258.22,181.86 258.082,181.86C257.975,181.86 257.879,181.82 257.794,181.74C257.708,181.66 257.666,181.567 257.666,181.46C257.666,181.343 257.708,181.241 257.794,181.156C258.071,180.868 258.247,180.511 258.322,180.084C258.087,180.063 257.892,179.975 257.738,179.82C257.583,179.665 257.506,179.465 257.506,179.22C257.506,178.953 257.588,178.735 257.754,178.564C257.919,178.393 258.124,178.308 258.37,178.308Z" style="fill:rgb(99,101,106);fill-rule:nonzero;"/>
            <path d="M268.738,172.052C270.69,172.052 271.666,173.076 271.666,175.124L271.666,179.476C271.666,179.668 271.61,179.823 271.498,179.94C271.386,180.057 271.234,180.116 271.042,180.116C270.85,180.116 270.695,180.057 270.578,179.94C270.46,179.823 270.402,179.668 270.402,179.476L270.402,178.708C270.199,179.167 269.89,179.521 269.474,179.772C269.058,180.023 268.578,180.148 268.034,180.148C267.532,180.148 267.071,180.047 266.65,179.844C266.228,179.641 265.895,179.359 265.65,178.996C265.404,178.633 265.282,178.233 265.282,177.796C265.282,177.209 265.431,176.753 265.73,176.428C266.028,176.103 266.519,175.868 267.202,175.724C267.884,175.58 268.834,175.508 270.05,175.508L270.402,175.508L270.402,174.98C270.402,174.34 270.271,173.871 270.01,173.572C269.748,173.273 269.324,173.124 268.738,173.124C268.012,173.124 267.276,173.321 266.53,173.716C266.242,173.897 266.039,173.988 265.922,173.988C265.794,173.988 265.687,173.94 265.602,173.844C265.516,173.748 265.474,173.625 265.474,173.476C265.474,173.327 265.519,173.196 265.61,173.084C265.7,172.972 265.847,172.857 266.05,172.74C266.423,172.527 266.847,172.359 267.322,172.236C267.796,172.113 268.268,172.052 268.738,172.052ZM268.21,179.124C268.85,179.124 269.375,178.908 269.786,178.476C270.196,178.044 270.402,177.487 270.402,176.804L270.402,176.34L270.114,176.34C269.175,176.34 268.46,176.38 267.97,176.46C267.479,176.54 267.13,176.673 266.922,176.86C266.714,177.047 266.61,177.321 266.61,177.684C266.61,178.1 266.762,178.444 267.066,178.716C267.37,178.988 267.751,179.124 268.21,179.124Z" style="fill:rgb(99,101,106);fill-rule:nonzero;"/>
            <path d="M277.954,172.052C279.82,172.052 280.754,173.081 280.754,175.14L280.754,179.476C280.754,179.679 280.698,179.836 280.586,179.948C280.474,180.06 280.316,180.116 280.114,180.116C279.911,180.116 279.751,180.06 279.634,179.948C279.516,179.836 279.458,179.679 279.458,179.476L279.458,175.22C279.458,174.495 279.316,173.967 279.034,173.636C278.751,173.305 278.3,173.14 277.682,173.14C276.967,173.14 276.396,173.359 275.97,173.796C275.543,174.233 275.33,174.825 275.33,175.572L275.33,179.476C275.33,179.679 275.274,179.836 275.162,179.948C275.05,180.06 274.892,180.116 274.69,180.116C274.487,180.116 274.327,180.06 274.21,179.948C274.092,179.836 274.034,179.679 274.034,179.476L274.034,172.724C274.034,172.532 274.092,172.377 274.21,172.26C274.327,172.143 274.487,172.084 274.69,172.084C274.882,172.084 275.034,172.143 275.146,172.26C275.258,172.377 275.314,172.527 275.314,172.708L275.314,173.524C275.57,173.044 275.927,172.679 276.386,172.428C276.844,172.177 277.367,172.052 277.954,172.052Z" style="fill:rgb(99,101,106);fill-rule:nonzero;"/>
            <path d="M286.722,179.092C287.095,179.124 287.282,179.295 287.282,179.604C287.282,179.785 287.215,179.921 287.082,180.012C286.948,180.103 286.748,180.137 286.482,180.116L286.05,180.084C285.196,180.02 284.567,179.764 284.162,179.316C283.756,178.868 283.554,178.191 283.554,177.284L283.554,173.268L282.482,173.268C282.3,173.268 282.159,173.223 282.058,173.132C281.956,173.041 281.906,172.921 281.906,172.772C281.906,172.612 281.956,172.484 282.058,172.388C282.159,172.292 282.3,172.244 282.482,172.244L283.554,172.244L283.554,170.436C283.554,170.233 283.612,170.076 283.73,169.964C283.847,169.852 284.007,169.796 284.21,169.796C284.402,169.796 284.556,169.852 284.674,169.964C284.791,170.076 284.85,170.233 284.85,170.436L284.85,172.244L286.626,172.244C286.796,172.244 286.932,172.292 287.034,172.388C287.135,172.484 287.186,172.612 287.186,172.772C287.186,172.921 287.135,173.041 287.034,173.132C286.932,173.223 286.796,173.268 286.626,173.268L284.85,173.268L284.85,177.348C284.85,177.935 284.97,178.359 285.21,178.62C285.45,178.881 285.81,179.028 286.29,179.06L286.722,179.092Z" style="fill:rgb(99,101,106);fill-rule:nonzero;"/>
            <path d="M289.218,180.116C289.026,180.116 288.868,180.06 288.746,179.948C288.623,179.836 288.562,179.679 288.562,179.476L288.562,172.724C288.562,172.521 288.623,172.364 288.746,172.252C288.868,172.14 289.026,172.084 289.218,172.084C289.41,172.084 289.564,172.14 289.682,172.252C289.799,172.364 289.858,172.521 289.858,172.724L289.858,179.476C289.858,179.689 289.799,179.849 289.682,179.956C289.564,180.063 289.41,180.116 289.218,180.116ZM289.218,170.404C288.962,170.404 288.754,170.329 288.594,170.18C288.434,170.031 288.354,169.833 288.354,169.588C288.354,169.353 288.434,169.161 288.594,169.012C288.754,168.863 288.962,168.788 289.218,168.788C289.474,168.788 289.682,168.863 289.842,169.012C290.002,169.161 290.082,169.353 290.082,169.588C290.082,169.833 290.002,170.031 289.842,170.18C289.682,170.329 289.474,170.404 289.218,170.404Z" style="fill:rgb(99,101,106);fill-rule:nonzero;"/>
            <path d="M292.706,176.308C292.514,176.308 292.367,176.26 292.266,176.164C292.164,176.068 292.114,175.94 292.114,175.78C292.114,175.62 292.164,175.489 292.266,175.388C292.367,175.287 292.514,175.236 292.706,175.236L296.226,175.236C296.428,175.236 296.58,175.287 296.682,175.388C296.783,175.489 296.834,175.62 296.834,175.78C296.834,175.94 296.783,176.068 296.682,176.164C296.58,176.26 296.428,176.308 296.226,176.308L292.706,176.308Z" style="fill:rgb(99,101,106);fill-rule:nonzero;"/>
            <path d="M304.45,172.484C304.567,172.228 304.754,172.1 305.01,172.1C305.17,172.1 305.314,172.153 305.442,172.26C305.57,172.367 305.634,172.5 305.634,172.66C305.634,172.756 305.612,172.841 305.57,172.916L302.45,179.636C302.386,179.775 302.29,179.884 302.162,179.964C302.034,180.044 301.895,180.084 301.746,180.084C301.607,180.084 301.474,180.044 301.346,179.964C301.218,179.884 301.116,179.775 301.042,179.636L297.938,172.916C297.895,172.841 297.874,172.761 297.874,172.676C297.874,172.516 297.946,172.377 298.09,172.26C298.234,172.143 298.391,172.084 298.562,172.084C298.668,172.084 298.772,172.116 298.874,172.18C298.975,172.244 299.052,172.335 299.106,172.452L301.778,178.452L304.45,172.484Z" style="fill:rgb(99,101,106);fill-rule:nonzero;"/>
            <path d="M307.714,180.116C307.522,180.116 307.364,180.06 307.242,179.948C307.119,179.836 307.058,179.679 307.058,179.476L307.058,172.724C307.058,172.521 307.119,172.364 307.242,172.252C307.364,172.14 307.522,172.084 307.714,172.084C307.906,172.084 308.06,172.14 308.178,172.252C308.295,172.364 308.354,172.521 308.354,172.724L308.354,179.476C308.354,179.689 308.295,179.849 308.178,179.956C308.06,180.063 307.906,180.116 307.714,180.116ZM307.714,170.404C307.458,170.404 307.25,170.329 307.09,170.18C306.93,170.031 306.85,169.833 306.85,169.588C306.85,169.353 306.93,169.161 307.09,169.012C307.25,168.863 307.458,168.788 307.714,168.788C307.97,168.788 308.178,168.863 308.338,169.012C308.498,169.161 308.578,169.353 308.578,169.588C308.578,169.833 308.498,170.031 308.338,170.18C308.178,170.329 307.97,170.404 307.714,170.404Z" style="fill:rgb(99,101,106);fill-rule:nonzero;"/>
            <path d="M314.626,172.084C315.074,172.052 315.298,172.233 315.298,172.628C315.298,172.799 315.25,172.935 315.154,173.036C315.058,173.137 314.892,173.199 314.658,173.22L314.178,173.268C313.463,173.332 312.932,173.585 312.586,174.028C312.239,174.471 312.066,174.991 312.066,175.588L312.066,179.476C312.066,179.689 312.007,179.849 311.89,179.956C311.772,180.063 311.618,180.116 311.426,180.116C311.234,180.116 311.076,180.06 310.954,179.948C310.831,179.836 310.77,179.679 310.77,179.476L310.77,172.724C310.77,172.521 310.834,172.364 310.962,172.252C311.09,172.14 311.244,172.084 311.426,172.084C311.596,172.084 311.74,172.14 311.858,172.252C311.975,172.364 312.034,172.516 312.034,172.708L312.034,173.604C312.258,173.135 312.575,172.777 312.986,172.532C313.396,172.287 313.868,172.143 314.402,172.1L314.626,172.084Z" style="fill:rgb(99,101,106);fill-rule:nonzero;"/>
            <path d="M322.338,172.084C322.54,172.084 322.698,172.143 322.81,172.26C322.922,172.377 322.978,172.532 322.978,172.724L322.978,179.492C322.978,179.673 322.922,179.823 322.81,179.94C322.698,180.057 322.54,180.116 322.338,180.116C322.146,180.116 321.994,180.06 321.882,179.948C321.77,179.836 321.714,179.689 321.714,179.508L321.714,178.708C321.468,179.177 321.124,179.535 320.682,179.78C320.239,180.025 319.74,180.148 319.186,180.148C318.258,180.148 317.559,179.889 317.09,179.372C316.62,178.855 316.386,178.089 316.386,177.076L316.386,172.724C316.386,172.532 316.444,172.377 316.562,172.26C316.679,172.143 316.839,172.084 317.042,172.084C317.244,172.084 317.402,172.143 317.514,172.26C317.626,172.377 317.682,172.532 317.682,172.724L317.682,177.044C317.682,177.737 317.82,178.247 318.098,178.572C318.375,178.897 318.812,179.06 319.41,179.06C320.092,179.06 320.642,178.839 321.058,178.396C321.474,177.953 321.682,177.369 321.682,176.644L321.682,172.724C321.682,172.532 321.74,172.377 321.858,172.26C321.975,172.143 322.135,172.084 322.338,172.084Z" style="fill:rgb(99,101,106);fill-rule:nonzero;"/>
            <path d="M328.018,180.148C327.527,180.148 327.06,180.089 326.618,179.972C326.175,179.855 325.783,179.689 325.442,179.476C325.25,179.348 325.114,179.228 325.034,179.116C324.954,179.004 324.914,178.868 324.914,178.708C324.914,178.569 324.954,178.455 325.034,178.364C325.114,178.273 325.218,178.228 325.346,178.228C325.474,178.228 325.66,178.308 325.906,178.468C326.226,178.66 326.543,178.812 326.858,178.924C327.172,179.036 327.564,179.092 328.034,179.092C328.61,179.092 329.058,178.991 329.378,178.788C329.698,178.585 329.858,178.292 329.858,177.908C329.858,177.673 329.799,177.484 329.682,177.34C329.564,177.196 329.362,177.068 329.074,176.956C328.786,176.844 328.364,176.729 327.81,176.612C326.871,176.409 326.199,176.137 325.794,175.796C325.388,175.455 325.186,174.991 325.186,174.404C325.186,173.945 325.314,173.54 325.57,173.188C325.826,172.836 326.18,172.559 326.634,172.356C327.087,172.153 327.602,172.052 328.178,172.052C328.594,172.052 328.996,172.108 329.386,172.22C329.775,172.332 330.119,172.489 330.418,172.692C330.78,172.948 330.962,173.215 330.962,173.492C330.962,173.631 330.919,173.748 330.834,173.844C330.748,173.94 330.647,173.988 330.53,173.988C330.402,173.988 330.21,173.897 329.954,173.716C329.655,173.524 329.372,173.375 329.106,173.268C328.839,173.161 328.508,173.108 328.114,173.108C327.612,173.108 327.21,173.22 326.906,173.444C326.602,173.668 326.45,173.967 326.45,174.34C326.45,174.575 326.506,174.764 326.618,174.908C326.73,175.052 326.916,175.18 327.178,175.292C327.439,175.404 327.815,175.513 328.306,175.62C329.031,175.78 329.594,175.956 329.994,176.148C330.394,176.34 330.679,176.575 330.85,176.852C331.02,177.129 331.106,177.481 331.106,177.908C331.106,178.58 330.823,179.121 330.258,179.532C329.692,179.943 328.946,180.148 328.018,180.148Z" style="fill:rgb(99,101,106);fill-rule:nonzero;"/>
            <path d="M177.466,192.052C178.148,192.052 178.751,192.223 179.274,192.564C179.796,192.905 180.202,193.383 180.49,193.996C180.778,194.609 180.922,195.321 180.922,196.132C180.922,196.943 180.778,197.649 180.49,198.252C180.202,198.855 179.799,199.321 179.282,199.652C178.764,199.983 178.159,200.148 177.466,200.148C176.858,200.148 176.327,200.015 175.874,199.748C175.42,199.481 175.076,199.103 174.842,198.612L174.842,202.372C174.842,202.564 174.786,202.716 174.674,202.828C174.562,202.94 174.404,202.996 174.202,202.996C173.999,202.996 173.839,202.937 173.722,202.82C173.604,202.703 173.546,202.553 173.546,202.372L173.546,192.724C173.546,192.532 173.604,192.377 173.722,192.26C173.839,192.143 173.999,192.084 174.202,192.084C174.404,192.084 174.562,192.143 174.674,192.26C174.786,192.377 174.842,192.532 174.842,192.724L174.842,193.588C175.076,193.097 175.42,192.719 175.874,192.452C176.327,192.185 176.858,192.052 177.466,192.052ZM177.21,199.076C177.967,199.076 178.554,198.82 178.97,198.308C179.386,197.796 179.594,197.071 179.594,196.132C179.594,195.193 179.386,194.46 178.97,193.932C178.554,193.404 177.967,193.14 177.21,193.14C176.452,193.14 175.868,193.396 175.458,193.908C175.047,194.42 174.842,195.151 174.842,196.1C174.842,197.049 175.047,197.783 175.458,198.3C175.868,198.817 176.452,199.076 177.21,199.076Z" style="fill:rgb(99,101,106);fill-rule:nonzero;"/>
            <path d="M186.09,200.148C185.354,200.148 184.706,199.983 184.146,199.652C183.586,199.321 183.154,198.849 182.85,198.236C182.546,197.623 182.394,196.911 182.394,196.1C182.394,195.289 182.546,194.577 182.85,193.964C183.154,193.351 183.586,192.879 184.146,192.548C184.706,192.217 185.354,192.052 186.09,192.052C186.826,192.052 187.476,192.217 188.042,192.548C188.607,192.879 189.042,193.351 189.346,193.964C189.65,194.577 189.802,195.289 189.802,196.1C189.802,196.911 189.65,197.623 189.346,198.236C189.042,198.849 188.607,199.321 188.042,199.652C187.476,199.983 186.826,200.148 186.09,200.148ZM186.09,199.076C186.858,199.076 187.447,198.823 187.858,198.316C188.268,197.809 188.474,197.071 188.474,196.1C188.474,195.151 188.266,194.417 187.85,193.9C187.434,193.383 186.847,193.124 186.09,193.124C185.332,193.124 184.746,193.383 184.33,193.9C183.914,194.417 183.706,195.151 183.706,196.1C183.706,197.06 183.911,197.796 184.322,198.308C184.732,198.82 185.322,199.076 186.09,199.076Z" style="fill:rgb(99,101,106);fill-rule:nonzero;"/>
            <path d="M192.394,200.116C192.202,200.116 192.044,200.06 191.922,199.948C191.799,199.836 191.738,199.679 191.738,199.476L191.738,189.316C191.738,189.113 191.799,188.956 191.922,188.844C192.044,188.732 192.202,188.676 192.394,188.676C192.575,188.676 192.727,188.732 192.85,188.844C192.972,188.956 193.034,189.113 193.034,189.316L193.034,199.476C193.034,199.679 192.972,199.836 192.85,199.948C192.727,200.06 192.575,200.116 192.394,200.116Z" style="fill:rgb(99,101,106);fill-rule:nonzero;"/>
            <path d="M196.106,200.116C195.914,200.116 195.756,200.06 195.634,199.948C195.511,199.836 195.45,199.679 195.45,199.476L195.45,192.724C195.45,192.521 195.511,192.364 195.634,192.252C195.756,192.14 195.914,192.084 196.106,192.084C196.298,192.084 196.452,192.14 196.57,192.252C196.687,192.364 196.746,192.521 196.746,192.724L196.746,199.476C196.746,199.689 196.687,199.849 196.57,199.956C196.452,200.063 196.298,200.116 196.106,200.116ZM196.106,190.404C195.85,190.404 195.642,190.329 195.482,190.18C195.322,190.031 195.242,189.833 195.242,189.588C195.242,189.353 195.322,189.161 195.482,189.012C195.642,188.863 195.85,188.788 196.106,188.788C196.362,188.788 196.57,188.863 196.73,189.012C196.89,189.161 196.97,189.353 196.97,189.588C196.97,189.833 196.89,190.031 196.73,190.18C196.57,190.329 196.362,190.404 196.106,190.404Z" style="fill:rgb(99,101,106);fill-rule:nonzero;"/>
            <path d="M202.378,200.148C201.652,200.148 201.01,199.983 200.45,199.652C199.89,199.321 199.458,198.852 199.154,198.244C198.85,197.636 198.698,196.932 198.698,196.132C198.698,195.332 198.855,194.623 199.17,194.004C199.484,193.385 199.924,192.905 200.49,192.564C201.055,192.223 201.706,192.052 202.442,192.052C202.847,192.052 203.25,192.108 203.65,192.22C204.05,192.332 204.399,192.495 204.698,192.708C204.89,192.836 205.026,192.961 205.106,193.084C205.186,193.207 205.226,193.343 205.226,193.492C205.226,193.641 205.186,193.764 205.106,193.86C205.026,193.956 204.922,194.004 204.794,194.004C204.719,194.004 204.639,193.983 204.554,193.94C204.468,193.897 204.396,193.855 204.338,193.812C204.279,193.769 204.239,193.743 204.218,193.732C203.94,193.551 203.676,193.407 203.426,193.3C203.175,193.193 202.868,193.14 202.506,193.14C201.727,193.14 201.122,193.404 200.69,193.932C200.258,194.46 200.042,195.193 200.042,196.132C200.042,197.071 200.258,197.796 200.69,198.308C201.122,198.82 201.727,199.076 202.506,199.076C202.868,199.076 203.18,199.023 203.442,198.916C203.703,198.809 203.967,198.665 204.234,198.484C204.351,198.409 204.463,198.345 204.57,198.292C204.676,198.239 204.767,198.212 204.842,198.212C204.959,198.212 205.058,198.26 205.138,198.356C205.218,198.452 205.258,198.575 205.258,198.724C205.258,198.863 205.22,198.988 205.146,199.1C205.071,199.212 204.932,199.337 204.73,199.476C204.431,199.679 204.071,199.841 203.65,199.964C203.228,200.087 202.804,200.148 202.378,200.148Z" style="fill:rgb(99,101,106);fill-rule:nonzero;"/>
            <path d="M207.482,200.116C207.29,200.116 207.132,200.06 207.01,199.948C206.887,199.836 206.826,199.679 206.826,199.476L206.826,192.724C206.826,192.521 206.887,192.364 207.01,192.252C207.132,192.14 207.29,192.084 207.482,192.084C207.674,192.084 207.828,192.14 207.946,192.252C208.063,192.364 208.122,192.521 208.122,192.724L208.122,199.476C208.122,199.689 208.063,199.849 207.946,199.956C207.828,200.063 207.674,200.116 207.482,200.116ZM207.482,190.404C207.226,190.404 207.018,190.329 206.858,190.18C206.698,190.031 206.618,189.833 206.618,189.588C206.618,189.353 206.698,189.161 206.858,189.012C207.018,188.863 207.226,188.788 207.482,188.788C207.738,188.788 207.946,188.863 208.106,189.012C208.266,189.161 208.346,189.353 208.346,189.588C208.346,189.833 208.266,190.031 208.106,190.18C207.946,190.329 207.738,190.404 207.482,190.404Z" style="fill:rgb(99,101,106);fill-rule:nonzero;"/>
            <path d="M216.57,198.228C216.687,198.228 216.788,198.276 216.874,198.372C216.959,198.468 217.002,198.591 217.002,198.74C217.002,199.007 216.815,199.252 216.442,199.476C216.058,199.7 215.652,199.868 215.226,199.98C214.799,200.092 214.383,200.148 213.978,200.148C212.772,200.148 211.82,199.791 211.122,199.076C210.423,198.361 210.074,197.375 210.074,196.116C210.074,195.316 210.228,194.609 210.538,193.996C210.847,193.383 211.282,192.905 211.842,192.564C212.402,192.223 213.039,192.052 213.754,192.052C214.767,192.052 215.572,192.383 216.17,193.044C216.767,193.705 217.066,194.601 217.066,195.732C217.066,195.945 217.023,196.1 216.938,196.196C216.852,196.292 216.714,196.34 216.522,196.34L211.37,196.34C211.466,198.175 212.335,199.092 213.978,199.092C214.394,199.092 214.751,199.036 215.05,198.924C215.348,198.812 215.668,198.66 216.01,198.468C216.287,198.308 216.474,198.228 216.57,198.228ZM213.77,193.06C213.087,193.06 212.54,193.273 212.13,193.7C211.719,194.127 211.476,194.729 211.402,195.508L215.93,195.508C215.908,194.719 215.711,194.113 215.338,193.692C214.964,193.271 214.442,193.06 213.77,193.06Z" style="fill:rgb(99,101,106);fill-rule:nonzero;"/>
            <path d="M221.594,200.148C221.103,200.148 220.636,200.089 220.194,199.972C219.751,199.855 219.359,199.689 219.018,199.476C218.826,199.348 218.69,199.228 218.61,199.116C218.53,199.004 218.49,198.868 218.49,198.708C218.49,198.569 218.53,198.455 218.61,198.364C218.69,198.273 218.794,198.228 218.922,198.228C219.05,198.228 219.236,198.308 219.482,198.468C219.802,198.66 220.119,198.812 220.434,198.924C220.748,199.036 221.14,199.092 221.61,199.092C222.186,199.092 222.634,198.991 222.954,198.788C223.274,198.585 223.434,198.292 223.434,197.908C223.434,197.673 223.375,197.484 223.258,197.34C223.14,197.196 222.938,197.068 222.65,196.956C222.362,196.844 221.94,196.729 221.386,196.612C220.447,196.409 219.775,196.137 219.37,195.796C218.964,195.455 218.762,194.991 218.762,194.404C218.762,193.945 218.89,193.54 219.146,193.188C219.402,192.836 219.756,192.559 220.21,192.356C220.663,192.153 221.178,192.052 221.754,192.052C222.17,192.052 222.572,192.108 222.962,192.22C223.351,192.332 223.695,192.489 223.994,192.692C224.356,192.948 224.538,193.215 224.538,193.492C224.538,193.631 224.495,193.748 224.41,193.844C224.324,193.94 224.223,193.988 224.106,193.988C223.978,193.988 223.786,193.897 223.53,193.716C223.231,193.524 222.948,193.375 222.682,193.268C222.415,193.161 222.084,193.108 221.69,193.108C221.188,193.108 220.786,193.22 220.482,193.444C220.178,193.668 220.026,193.967 220.026,194.34C220.026,194.575 220.082,194.764 220.194,194.908C220.306,195.052 220.492,195.18 220.754,195.292C221.015,195.404 221.391,195.513 221.882,195.62C222.607,195.78 223.17,195.956 223.57,196.148C223.97,196.34 224.255,196.575 224.426,196.852C224.596,197.129 224.682,197.481 224.682,197.908C224.682,198.58 224.399,199.121 223.834,199.532C223.268,199.943 222.522,200.148 221.594,200.148Z" style="fill:rgb(99,101,106);fill-rule:nonzero;"/>
            <path d="M227.178,198.308C227.444,198.308 227.66,198.412 227.826,198.62C227.991,198.828 228.074,199.14 228.074,199.556C228.074,200.399 227.802,201.108 227.258,201.684C227.151,201.801 227.028,201.86 226.89,201.86C226.783,201.86 226.687,201.82 226.602,201.74C226.516,201.66 226.474,201.567 226.474,201.46C226.474,201.343 226.516,201.241 226.602,201.156C226.879,200.868 227.055,200.511 227.13,200.084C226.895,200.063 226.7,199.975 226.546,199.82C226.391,199.665 226.314,199.465 226.314,199.22C226.314,198.953 226.396,198.735 226.562,198.564C226.727,198.393 226.932,198.308 227.178,198.308Z" style="fill:rgb(99,101,106);fill-rule:nonzero;"/>
            <path d="M238.218,192.084C238.666,192.052 238.89,192.233 238.89,192.628C238.89,192.799 238.842,192.935 238.746,193.036C238.65,193.137 238.484,193.199 238.25,193.22L237.77,193.268C237.055,193.332 236.524,193.585 236.178,194.028C235.831,194.471 235.658,194.991 235.658,195.588L235.658,199.476C235.658,199.689 235.599,199.849 235.482,199.956C235.364,200.063 235.21,200.116 235.018,200.116C234.826,200.116 234.668,200.06 234.546,199.948C234.423,199.836 234.362,199.679 234.362,199.476L234.362,192.724C234.362,192.521 234.426,192.364 234.554,192.252C234.682,192.14 234.836,192.084 235.018,192.084C235.188,192.084 235.332,192.14 235.45,192.252C235.567,192.364 235.626,192.516 235.626,192.708L235.626,193.604C235.85,193.135 236.167,192.777 236.578,192.532C236.988,192.287 237.46,192.143 237.994,192.1L238.218,192.084Z" style="fill:rgb(99,101,106);fill-rule:nonzero;"/>
            <path d="M245.882,198.228C245.999,198.228 246.1,198.276 246.186,198.372C246.271,198.468 246.314,198.591 246.314,198.74C246.314,199.007 246.127,199.252 245.754,199.476C245.37,199.7 244.964,199.868 244.538,199.98C244.111,200.092 243.695,200.148 243.29,200.148C242.084,200.148 241.132,199.791 240.434,199.076C239.735,198.361 239.386,197.375 239.386,196.116C239.386,195.316 239.54,194.609 239.85,193.996C240.159,193.383 240.594,192.905 241.154,192.564C241.714,192.223 242.351,192.052 243.066,192.052C244.079,192.052 244.884,192.383 245.482,193.044C246.079,193.705 246.378,194.601 246.378,195.732C246.378,195.945 246.335,196.1 246.25,196.196C246.164,196.292 246.026,196.34 245.834,196.34L240.682,196.34C240.778,198.175 241.647,199.092 243.29,199.092C243.706,199.092 244.063,199.036 244.362,198.924C244.66,198.812 244.98,198.66 245.322,198.468C245.599,198.308 245.786,198.228 245.882,198.228ZM243.082,193.06C242.399,193.06 241.852,193.273 241.442,193.7C241.031,194.127 240.788,194.729 240.714,195.508L245.242,195.508C245.22,194.719 245.023,194.113 244.65,193.692C244.276,193.271 243.754,193.06 243.082,193.06Z" style="fill:rgb(99,101,106);fill-rule:nonzero;"/>
            <path d="M252.202,192.052C252.884,192.052 253.487,192.223 254.01,192.564C254.532,192.905 254.938,193.383 255.226,193.996C255.514,194.609 255.658,195.321 255.658,196.132C255.658,196.943 255.514,197.649 255.226,198.252C254.938,198.855 254.535,199.321 254.018,199.652C253.5,199.983 252.895,200.148 252.202,200.148C251.594,200.148 251.063,200.015 250.61,199.748C250.156,199.481 249.812,199.103 249.578,198.612L249.578,202.372C249.578,202.564 249.522,202.716 249.41,202.828C249.298,202.94 249.14,202.996 248.938,202.996C248.735,202.996 248.575,202.937 248.458,202.82C248.34,202.703 248.282,202.553 248.282,202.372L248.282,192.724C248.282,192.532 248.34,192.377 248.458,192.26C248.575,192.143 248.735,192.084 248.938,192.084C249.14,192.084 249.298,192.143 249.41,192.26C249.522,192.377 249.578,192.532 249.578,192.724L249.578,193.588C249.812,193.097 250.156,192.719 250.61,192.452C251.063,192.185 251.594,192.052 252.202,192.052ZM251.946,199.076C252.703,199.076 253.29,198.82 253.706,198.308C254.122,197.796 254.33,197.071 254.33,196.132C254.33,195.193 254.122,194.46 253.706,193.932C253.29,193.404 252.703,193.14 251.946,193.14C251.188,193.14 250.604,193.396 250.194,193.908C249.783,194.42 249.578,195.151 249.578,196.1C249.578,197.049 249.783,197.783 250.194,198.3C250.604,198.817 251.188,199.076 251.946,199.076Z" style="fill:rgb(99,101,106);fill-rule:nonzero;"/>
            <path d="M260.826,200.148C260.09,200.148 259.442,199.983 258.882,199.652C258.322,199.321 257.89,198.849 257.586,198.236C257.282,197.623 257.13,196.911 257.13,196.1C257.13,195.289 257.282,194.577 257.586,193.964C257.89,193.351 258.322,192.879 258.882,192.548C259.442,192.217 260.09,192.052 260.826,192.052C261.562,192.052 262.212,192.217 262.778,192.548C263.343,192.879 263.778,193.351 264.082,193.964C264.386,194.577 264.538,195.289 264.538,196.1C264.538,196.911 264.386,197.623 264.082,198.236C263.778,198.849 263.343,199.321 262.778,199.652C262.212,199.983 261.562,200.148 260.826,200.148ZM260.826,199.076C261.594,199.076 262.183,198.823 262.594,198.316C263.004,197.809 263.21,197.071 263.21,196.1C263.21,195.151 263.002,194.417 262.586,193.9C262.17,193.383 261.583,193.124 260.826,193.124C260.068,193.124 259.482,193.383 259.066,193.9C258.65,194.417 258.442,195.151 258.442,196.1C258.442,197.06 258.647,197.796 259.058,198.308C259.468,198.82 260.058,199.076 260.826,199.076Z" style="fill:rgb(99,101,106);fill-rule:nonzero;"/>
            <path d="M270.33,192.084C270.778,192.052 271.002,192.233 271.002,192.628C271.002,192.799 270.954,192.935 270.858,193.036C270.762,193.137 270.596,193.199 270.362,193.22L269.882,193.268C269.167,193.332 268.636,193.585 268.29,194.028C267.943,194.471 267.77,194.991 267.77,195.588L267.77,199.476C267.77,199.689 267.711,199.849 267.594,199.956C267.476,200.063 267.322,200.116 267.13,200.116C266.938,200.116 266.78,200.06 266.658,199.948C266.535,199.836 266.474,199.679 266.474,199.476L266.474,192.724C266.474,192.521 266.538,192.364 266.666,192.252C266.794,192.14 266.948,192.084 267.13,192.084C267.3,192.084 267.444,192.14 267.562,192.252C267.679,192.364 267.738,192.516 267.738,192.708L267.738,193.604C267.962,193.135 268.279,192.777 268.69,192.532C269.1,192.287 269.572,192.143 270.106,192.1L270.33,192.084Z" style="fill:rgb(99,101,106);fill-rule:nonzero;"/>
            <path d="M276.346,199.092C276.719,199.124 276.906,199.295 276.906,199.604C276.906,199.785 276.839,199.921 276.706,200.012C276.572,200.103 276.372,200.137 276.106,200.116L275.674,200.084C274.82,200.02 274.191,199.764 273.786,199.316C273.38,198.868 273.178,198.191 273.178,197.284L273.178,193.268L272.106,193.268C271.924,193.268 271.783,193.223 271.682,193.132C271.58,193.041 271.53,192.921 271.53,192.772C271.53,192.612 271.58,192.484 271.682,192.388C271.783,192.292 271.924,192.244 272.106,192.244L273.178,192.244L273.178,190.436C273.178,190.233 273.236,190.076 273.354,189.964C273.471,189.852 273.631,189.796 273.834,189.796C274.026,189.796 274.18,189.852 274.298,189.964C274.415,190.076 274.474,190.233 274.474,190.436L274.474,192.244L276.25,192.244C276.42,192.244 276.556,192.292 276.658,192.388C276.759,192.484 276.81,192.612 276.81,192.772C276.81,192.921 276.759,193.041 276.658,193.132C276.556,193.223 276.42,193.268 276.25,193.268L274.474,193.268L274.474,197.348C274.474,197.935 274.594,198.359 274.834,198.62C275.074,198.881 275.434,199.028 275.914,199.06L276.346,199.092Z" style="fill:rgb(99,101,106);fill-rule:nonzero;"/>
            <path d="M280.81,200.148C280.319,200.148 279.852,200.089 279.41,199.972C278.967,199.855 278.575,199.689 278.234,199.476C278.042,199.348 277.906,199.228 277.826,199.116C277.746,199.004 277.706,198.868 277.706,198.708C277.706,198.569 277.746,198.455 277.826,198.364C277.906,198.273 278.01,198.228 278.138,198.228C278.266,198.228 278.452,198.308 278.698,198.468C279.018,198.66 279.335,198.812 279.65,198.924C279.964,199.036 280.356,199.092 280.826,199.092C281.402,199.092 281.85,198.991 282.17,198.788C282.49,198.585 282.65,198.292 282.65,197.908C282.65,197.673 282.591,197.484 282.474,197.34C282.356,197.196 282.154,197.068 281.866,196.956C281.578,196.844 281.156,196.729 280.602,196.612C279.663,196.409 278.991,196.137 278.586,195.796C278.18,195.455 277.978,194.991 277.978,194.404C277.978,193.945 278.106,193.54 278.362,193.188C278.618,192.836 278.972,192.559 279.426,192.356C279.879,192.153 280.394,192.052 280.97,192.052C281.386,192.052 281.788,192.108 282.178,192.22C282.567,192.332 282.911,192.489 283.21,192.692C283.572,192.948 283.754,193.215 283.754,193.492C283.754,193.631 283.711,193.748 283.626,193.844C283.54,193.94 283.439,193.988 283.322,193.988C283.194,193.988 283.002,193.897 282.746,193.716C282.447,193.524 282.164,193.375 281.898,193.268C281.631,193.161 281.3,193.108 280.906,193.108C280.404,193.108 280.002,193.22 279.698,193.444C279.394,193.668 279.242,193.967 279.242,194.34C279.242,194.575 279.298,194.764 279.41,194.908C279.522,195.052 279.708,195.18 279.97,195.292C280.231,195.404 280.607,195.513 281.098,195.62C281.823,195.78 282.386,195.956 282.786,196.148C283.186,196.34 283.471,196.575 283.642,196.852C283.812,197.129 283.898,197.481 283.898,197.908C283.898,198.58 283.615,199.121 283.05,199.532C282.484,199.943 281.738,200.148 280.81,200.148Z" style="fill:rgb(99,101,106);fill-rule:nonzero;"/>
            <path d="M286.394,198.308C286.66,198.308 286.876,198.412 287.042,198.62C287.207,198.828 287.29,199.14 287.29,199.556C287.29,200.399 287.018,201.108 286.474,201.684C286.367,201.801 286.244,201.86 286.106,201.86C285.999,201.86 285.903,201.82 285.818,201.74C285.732,201.66 285.69,201.567 285.69,201.46C285.69,201.343 285.732,201.241 285.818,201.156C286.095,200.868 286.271,200.511 286.346,200.084C286.111,200.063 285.916,199.975 285.762,199.82C285.607,199.665 285.53,199.465 285.53,199.22C285.53,198.953 285.612,198.735 285.778,198.564C285.943,198.393 286.148,198.308 286.394,198.308Z" style="fill:rgb(99,101,106);fill-rule:nonzero;"/>
            <path d="M297.178,199.092C297.551,199.124 297.738,199.295 297.738,199.604C297.738,199.785 297.671,199.921 297.538,200.012C297.404,200.103 297.204,200.137 296.938,200.116L296.506,200.084C295.652,200.02 295.023,199.764 294.618,199.316C294.212,198.868 294.01,198.191 294.01,197.284L294.01,193.268L292.938,193.268C292.756,193.268 292.615,193.223 292.514,193.132C292.412,193.041 292.362,192.921 292.362,192.772C292.362,192.612 292.412,192.484 292.514,192.388C292.615,192.292 292.756,192.244 292.938,192.244L294.01,192.244L294.01,190.436C294.01,190.233 294.068,190.076 294.186,189.964C294.303,189.852 294.463,189.796 294.666,189.796C294.858,189.796 295.012,189.852 295.13,189.964C295.247,190.076 295.306,190.233 295.306,190.436L295.306,192.244L297.082,192.244C297.252,192.244 297.388,192.292 297.49,192.388C297.591,192.484 297.642,192.612 297.642,192.772C297.642,192.921 297.591,193.041 297.49,193.132C297.388,193.223 297.252,193.268 297.082,193.268L295.306,193.268L295.306,197.348C295.306,197.935 295.426,198.359 295.666,198.62C295.906,198.881 296.266,199.028 296.746,199.06L297.178,199.092Z" style="fill:rgb(99,101,106);fill-rule:nonzero;"/>
            <path d="M302.25,200.148C301.514,200.148 300.866,199.983 300.306,199.652C299.746,199.321 299.314,198.849 299.01,198.236C298.706,197.623 298.554,196.911 298.554,196.1C298.554,195.289 298.706,194.577 299.01,193.964C299.314,193.351 299.746,192.879 300.306,192.548C300.866,192.217 301.514,192.052 302.25,192.052C302.986,192.052 303.636,192.217 304.202,192.548C304.767,192.879 305.202,193.351 305.506,193.964C305.81,194.577 305.962,195.289 305.962,196.1C305.962,196.911 305.81,197.623 305.506,198.236C305.202,198.849 304.767,199.321 304.202,199.652C303.636,199.983 302.986,200.148 302.25,200.148ZM302.25,199.076C303.018,199.076 303.607,198.823 304.018,198.316C304.428,197.809 304.634,197.071 304.634,196.1C304.634,195.151 304.426,194.417 304.01,193.9C303.594,193.383 303.007,193.124 302.25,193.124C301.492,193.124 300.906,193.383 300.49,193.9C300.074,194.417 299.866,195.151 299.866,196.1C299.866,197.06 300.071,197.796 300.482,198.308C300.892,198.82 301.482,199.076 302.25,199.076Z" style="fill:rgb(99,101,106);fill-rule:nonzero;"/>
            <path d="M311.818,192.052C312.5,192.052 313.103,192.223 313.626,192.564C314.148,192.905 314.554,193.383 314.842,193.996C315.13,194.609 315.274,195.321 315.274,196.132C315.274,196.943 315.13,197.649 314.842,198.252C314.554,198.855 314.151,199.321 313.634,199.652C313.116,199.983 312.511,200.148 311.818,200.148C311.21,200.148 310.679,200.015 310.226,199.748C309.772,199.481 309.428,199.103 309.194,198.612L309.194,202.372C309.194,202.564 309.138,202.716 309.026,202.828C308.914,202.94 308.756,202.996 308.554,202.996C308.351,202.996 308.191,202.937 308.074,202.82C307.956,202.703 307.898,202.553 307.898,202.372L307.898,192.724C307.898,192.532 307.956,192.377 308.074,192.26C308.191,192.143 308.351,192.084 308.554,192.084C308.756,192.084 308.914,192.143 309.026,192.26C309.138,192.377 309.194,192.532 309.194,192.724L309.194,193.588C309.428,193.097 309.772,192.719 310.226,192.452C310.679,192.185 311.21,192.052 311.818,192.052ZM311.562,199.076C312.319,199.076 312.906,198.82 313.322,198.308C313.738,197.796 313.946,197.071 313.946,196.132C313.946,195.193 313.738,194.46 313.322,193.932C312.906,193.404 312.319,193.14 311.562,193.14C310.804,193.14 310.22,193.396 309.81,193.908C309.399,194.42 309.194,195.151 309.194,196.1C309.194,197.049 309.399,197.783 309.81,198.3C310.22,198.817 310.804,199.076 311.562,199.076Z" style="fill:rgb(99,101,106);fill-rule:nonzero;"/>
            <path d="M206.506,212.052C208.458,212.052 209.434,213.076 209.434,215.124L209.434,219.476C209.434,219.668 209.378,219.823 209.266,219.94C209.154,220.057 209.002,220.116 208.81,220.116C208.618,220.116 208.463,220.057 208.346,219.94C208.228,219.823 208.17,219.668 208.17,219.476L208.17,218.708C207.967,219.167 207.658,219.521 207.242,219.772C206.826,220.023 206.346,220.148 205.802,220.148C205.3,220.148 204.839,220.047 204.418,219.844C203.996,219.641 203.663,219.359 203.418,218.996C203.172,218.633 203.05,218.233 203.05,217.796C203.05,217.209 203.199,216.753 203.498,216.428C203.796,216.103 204.287,215.868 204.97,215.724C205.652,215.58 206.602,215.508 207.818,215.508L208.17,215.508L208.17,214.98C208.17,214.34 208.039,213.871 207.778,213.572C207.516,213.273 207.092,213.124 206.506,213.124C205.78,213.124 205.044,213.321 204.298,213.716C204.01,213.897 203.807,213.988 203.69,213.988C203.562,213.988 203.455,213.94 203.37,213.844C203.284,213.748 203.242,213.625 203.242,213.476C203.242,213.327 203.287,213.196 203.378,213.084C203.468,212.972 203.615,212.857 203.818,212.74C204.191,212.527 204.615,212.359 205.09,212.236C205.564,212.113 206.036,212.052 206.506,212.052ZM205.978,219.124C206.618,219.124 207.143,218.908 207.554,218.476C207.964,218.044 208.17,217.487 208.17,216.804L208.17,216.34L207.882,216.34C206.943,216.34 206.228,216.38 205.738,216.46C205.247,216.54 204.898,216.673 204.69,216.86C204.482,217.047 204.378,217.321 204.378,217.684C204.378,218.1 204.53,218.444 204.834,218.716C205.138,218.988 205.519,219.124 205.978,219.124Z" style="fill:rgb(99,101,106);fill-rule:nonzero;"/>
            <path d="M215.402,219.092C215.775,219.124 215.962,219.295 215.962,219.604C215.962,219.785 215.895,219.921 215.762,220.012C215.628,220.103 215.428,220.137 215.162,220.116L214.73,220.084C213.876,220.02 213.247,219.764 212.842,219.316C212.436,218.868 212.234,218.191 212.234,217.284L212.234,213.268L211.162,213.268C210.98,213.268 210.839,213.223 210.738,213.132C210.636,213.041 210.586,212.921 210.586,212.772C210.586,212.612 210.636,212.484 210.738,212.388C210.839,212.292 210.98,212.244 211.162,212.244L212.234,212.244L212.234,210.436C212.234,210.233 212.292,210.076 212.41,209.964C212.527,209.852 212.687,209.796 212.89,209.796C213.082,209.796 213.236,209.852 213.354,209.964C213.471,210.076 213.53,210.233 213.53,210.436L213.53,212.244L215.306,212.244C215.476,212.244 215.612,212.292 215.714,212.388C215.815,212.484 215.866,212.612 215.866,212.772C215.866,212.921 215.815,213.041 215.714,213.132C215.612,213.223 215.476,213.268 215.306,213.268L213.53,213.268L213.53,217.348C213.53,217.935 213.65,218.359 213.89,218.62C214.13,218.881 214.49,219.028 214.97,219.06L215.402,219.092Z" style="fill:rgb(99,101,106);fill-rule:nonzero;"/>
            <path d="M220.89,219.092C221.263,219.124 221.45,219.295 221.45,219.604C221.45,219.785 221.383,219.921 221.25,220.012C221.116,220.103 220.916,220.137 220.65,220.116L220.218,220.084C219.364,220.02 218.735,219.764 218.33,219.316C217.924,218.868 217.722,218.191 217.722,217.284L217.722,213.268L216.65,213.268C216.468,213.268 216.327,213.223 216.226,213.132C216.124,213.041 216.074,212.921 216.074,212.772C216.074,212.612 216.124,212.484 216.226,212.388C216.327,212.292 216.468,212.244 216.65,212.244L217.722,212.244L217.722,210.436C217.722,210.233 217.78,210.076 217.898,209.964C218.015,209.852 218.175,209.796 218.378,209.796C218.57,209.796 218.724,209.852 218.842,209.964C218.959,210.076 219.018,210.233 219.018,210.436L219.018,212.244L220.794,212.244C220.964,212.244 221.1,212.292 221.202,212.388C221.303,212.484 221.354,212.612 221.354,212.772C221.354,212.921 221.303,213.041 221.202,213.132C221.1,213.223 220.964,213.268 220.794,213.268L219.018,213.268L219.018,217.348C219.018,217.935 219.138,218.359 219.378,218.62C219.618,218.881 219.978,219.028 220.458,219.06L220.89,219.092Z" style="fill:rgb(99,101,106);fill-rule:nonzero;"/>
            <path d="M225.914,212.052C227.866,212.052 228.842,213.076 228.842,215.124L228.842,219.476C228.842,219.668 228.786,219.823 228.674,219.94C228.562,220.057 228.41,220.116 228.218,220.116C228.026,220.116 227.871,220.057 227.754,219.94C227.636,219.823 227.578,219.668 227.578,219.476L227.578,218.708C227.375,219.167 227.066,219.521 226.65,219.772C226.234,220.023 225.754,220.148 225.21,220.148C224.708,220.148 224.247,220.047 223.826,219.844C223.404,219.641 223.071,219.359 222.826,218.996C222.58,218.633 222.458,218.233 222.458,217.796C222.458,217.209 222.607,216.753 222.906,216.428C223.204,216.103 223.695,215.868 224.378,215.724C225.06,215.58 226.01,215.508 227.226,215.508L227.578,215.508L227.578,214.98C227.578,214.34 227.447,213.871 227.186,213.572C226.924,213.273 226.5,213.124 225.914,213.124C225.188,213.124 224.452,213.321 223.706,213.716C223.418,213.897 223.215,213.988 223.098,213.988C222.97,213.988 222.863,213.94 222.778,213.844C222.692,213.748 222.65,213.625 222.65,213.476C222.65,213.327 222.695,213.196 222.786,213.084C222.876,212.972 223.023,212.857 223.226,212.74C223.599,212.527 224.023,212.359 224.498,212.236C224.972,212.113 225.444,212.052 225.914,212.052ZM225.386,219.124C226.026,219.124 226.551,218.908 226.962,218.476C227.372,218.044 227.578,217.487 227.578,216.804L227.578,216.34L227.29,216.34C226.351,216.34 225.636,216.38 225.146,216.46C224.655,216.54 224.306,216.673 224.098,216.86C223.89,217.047 223.786,217.321 223.786,217.684C223.786,218.1 223.938,218.444 224.242,218.716C224.546,218.988 224.927,219.124 225.386,219.124Z" style="fill:rgb(99,101,106);fill-rule:nonzero;"/>
            <path d="M234.426,220.148C233.7,220.148 233.058,219.983 232.498,219.652C231.938,219.321 231.506,218.852 231.202,218.244C230.898,217.636 230.746,216.932 230.746,216.132C230.746,215.332 230.903,214.623 231.218,214.004C231.532,213.385 231.972,212.905 232.538,212.564C233.103,212.223 233.754,212.052 234.49,212.052C234.895,212.052 235.298,212.108 235.698,212.22C236.098,212.332 236.447,212.495 236.746,212.708C236.938,212.836 237.074,212.961 237.154,213.084C237.234,213.207 237.274,213.343 237.274,213.492C237.274,213.641 237.234,213.764 237.154,213.86C237.074,213.956 236.97,214.004 236.842,214.004C236.767,214.004 236.687,213.983 236.602,213.94C236.516,213.897 236.444,213.855 236.386,213.812C236.327,213.769 236.287,213.743 236.266,213.732C235.988,213.551 235.724,213.407 235.474,213.3C235.223,213.193 234.916,213.14 234.554,213.14C233.775,213.14 233.17,213.404 232.738,213.932C232.306,214.46 232.09,215.193 232.09,216.132C232.09,217.071 232.306,217.796 232.738,218.308C233.17,218.82 233.775,219.076 234.554,219.076C234.916,219.076 235.228,219.023 235.49,218.916C235.751,218.809 236.015,218.665 236.282,218.484C236.399,218.409 236.511,218.345 236.618,218.292C236.724,218.239 236.815,218.212 236.89,218.212C237.007,218.212 237.106,218.26 237.186,218.356C237.266,218.452 237.306,218.575 237.306,218.724C237.306,218.863 237.268,218.988 237.194,219.1C237.119,219.212 236.98,219.337 236.778,219.476C236.479,219.679 236.119,219.841 235.698,219.964C235.276,220.087 234.852,220.148 234.426,220.148Z" style="fill:rgb(99,101,106);fill-rule:nonzero;"/>
            <path d="M245.098,219.012C245.268,219.172 245.354,219.343 245.354,219.524C245.354,219.684 245.298,219.823 245.186,219.94C245.074,220.057 244.938,220.116 244.778,220.116C244.639,220.116 244.495,220.052 244.346,219.924L240.17,216.324L240.17,219.476C240.17,219.679 240.108,219.836 239.986,219.948C239.863,220.06 239.711,220.116 239.53,220.116C239.338,220.116 239.18,220.06 239.058,219.948C238.935,219.836 238.874,219.679 238.874,219.476L238.874,209.316C238.874,209.113 238.935,208.956 239.058,208.844C239.18,208.732 239.338,208.676 239.53,208.676C239.711,208.676 239.863,208.732 239.986,208.844C240.108,208.956 240.17,209.113 240.17,209.316L240.17,215.812L243.994,212.308C244.122,212.18 244.266,212.116 244.426,212.116C244.586,212.116 244.724,212.175 244.842,212.292C244.959,212.409 245.018,212.548 245.018,212.708C245.018,212.889 244.943,213.049 244.794,213.188L241.642,216.004L245.098,219.012Z" style="fill:rgb(99,101,106);fill-rule:nonzero;"/>
            <path d="M249.354,220.148C248.863,220.148 248.396,220.089 247.954,219.972C247.511,219.855 247.119,219.689 246.778,219.476C246.586,219.348 246.45,219.228 246.37,219.116C246.29,219.004 246.25,218.868 246.25,218.708C246.25,218.569 246.29,218.455 246.37,218.364C246.45,218.273 246.554,218.228 246.682,218.228C246.81,218.228 246.996,218.308 247.242,218.468C247.562,218.66 247.879,218.812 248.194,218.924C248.508,219.036 248.9,219.092 249.37,219.092C249.946,219.092 250.394,218.991 250.714,218.788C251.034,218.585 251.194,218.292 251.194,217.908C251.194,217.673 251.135,217.484 251.018,217.34C250.9,217.196 250.698,217.068 250.41,216.956C250.122,216.844 249.7,216.729 249.146,216.612C248.207,216.409 247.535,216.137 247.13,215.796C246.724,215.455 246.522,214.991 246.522,214.404C246.522,213.945 246.65,213.54 246.906,213.188C247.162,212.836 247.516,212.559 247.97,212.356C248.423,212.153 248.938,212.052 249.514,212.052C249.93,212.052 250.332,212.108 250.722,212.22C251.111,212.332 251.455,212.489 251.754,212.692C252.116,212.948 252.298,213.215 252.298,213.492C252.298,213.631 252.255,213.748 252.17,213.844C252.084,213.94 251.983,213.988 251.866,213.988C251.738,213.988 251.546,213.897 251.29,213.716C250.991,213.524 250.708,213.375 250.442,213.268C250.175,213.161 249.844,213.108 249.45,213.108C248.948,213.108 248.546,213.22 248.242,213.444C247.938,213.668 247.786,213.967 247.786,214.34C247.786,214.575 247.842,214.764 247.954,214.908C248.066,215.052 248.252,215.18 248.514,215.292C248.775,215.404 249.151,215.513 249.642,215.62C250.367,215.78 250.93,215.956 251.33,216.148C251.73,216.34 252.015,216.575 252.186,216.852C252.356,217.129 252.442,217.481 252.442,217.908C252.442,218.58 252.159,219.121 251.594,219.532C251.028,219.943 250.282,220.148 249.354,220.148Z" style="fill:rgb(99,101,106);fill-rule:nonzero;"/>
            <path d="M254.938,218.308C255.204,218.308 255.42,218.412 255.586,218.62C255.751,218.828 255.834,219.14 255.834,219.556C255.834,220.399 255.562,221.108 255.018,221.684C254.911,221.801 254.788,221.86 254.65,221.86C254.543,221.86 254.447,221.82 254.362,221.74C254.276,221.66 254.234,221.567 254.234,221.46C254.234,221.343 254.276,221.241 254.362,221.156C254.639,220.868 254.815,220.511 254.89,220.084C254.655,220.063 254.46,219.975 254.306,219.82C254.151,219.665 254.074,219.465 254.074,219.22C254.074,218.953 254.156,218.735 254.322,218.564C254.487,218.393 254.692,218.308 254.938,218.308Z" style="fill:rgb(99,101,106);fill-rule:nonzero;"/>
            <path d="M268.154,218.228C268.271,218.228 268.372,218.276 268.458,218.372C268.543,218.468 268.586,218.591 268.586,218.74C268.586,219.007 268.399,219.252 268.026,219.476C267.642,219.7 267.236,219.868 266.81,219.98C266.383,220.092 265.967,220.148 265.562,220.148C264.356,220.148 263.404,219.791 262.706,219.076C262.007,218.361 261.658,217.375 261.658,216.116C261.658,215.316 261.812,214.609 262.122,213.996C262.431,213.383 262.866,212.905 263.426,212.564C263.986,212.223 264.623,212.052 265.338,212.052C266.351,212.052 267.156,212.383 267.754,213.044C268.351,213.705 268.65,214.601 268.65,215.732C268.65,215.945 268.607,216.1 268.522,216.196C268.436,216.292 268.298,216.34 268.106,216.34L262.954,216.34C263.05,218.175 263.919,219.092 265.562,219.092C265.978,219.092 266.335,219.036 266.634,218.924C266.932,218.812 267.252,218.66 267.594,218.468C267.871,218.308 268.058,218.228 268.154,218.228ZM265.354,213.06C264.671,213.06 264.124,213.273 263.714,213.7C263.303,214.127 263.06,214.729 262.986,215.508L267.514,215.508C267.492,214.719 267.295,214.113 266.922,213.692C266.548,213.271 266.026,213.06 265.354,213.06Z" style="fill:rgb(99,101,106);fill-rule:nonzero;"/>
            <path d="M274.106,219.092C274.479,219.124 274.666,219.295 274.666,219.604C274.666,219.785 274.599,219.921 274.466,220.012C274.332,220.103 274.132,220.137 273.866,220.116L273.434,220.084C272.58,220.02 271.951,219.764 271.546,219.316C271.14,218.868 270.938,218.191 270.938,217.284L270.938,213.268L269.866,213.268C269.684,213.268 269.543,213.223 269.442,213.132C269.34,213.041 269.29,212.921 269.29,212.772C269.29,212.612 269.34,212.484 269.442,212.388C269.543,212.292 269.684,212.244 269.866,212.244L270.938,212.244L270.938,210.436C270.938,210.233 270.996,210.076 271.114,209.964C271.231,209.852 271.391,209.796 271.594,209.796C271.786,209.796 271.94,209.852 272.058,209.964C272.175,210.076 272.234,210.233 272.234,210.436L272.234,212.244L274.01,212.244C274.18,212.244 274.316,212.292 274.418,212.388C274.519,212.484 274.57,212.612 274.57,212.772C274.57,212.921 274.519,213.041 274.418,213.132C274.316,213.223 274.18,213.268 274.01,213.268L272.234,213.268L272.234,217.348C272.234,217.935 272.354,218.359 272.594,218.62C272.834,218.881 273.194,219.028 273.674,219.06L274.106,219.092Z" style="fill:rgb(99,101,106);fill-rule:nonzero;"/>
            <path d="M279.162,220.148C278.436,220.148 277.794,219.983 277.234,219.652C276.674,219.321 276.242,218.852 275.938,218.244C275.634,217.636 275.482,216.932 275.482,216.132C275.482,215.332 275.639,214.623 275.954,214.004C276.268,213.385 276.708,212.905 277.274,212.564C277.839,212.223 278.49,212.052 279.226,212.052C279.631,212.052 280.034,212.108 280.434,212.22C280.834,212.332 281.183,212.495 281.482,212.708C281.674,212.836 281.81,212.961 281.89,213.084C281.97,213.207 282.01,213.343 282.01,213.492C282.01,213.641 281.97,213.764 281.89,213.86C281.81,213.956 281.706,214.004 281.578,214.004C281.503,214.004 281.423,213.983 281.338,213.94C281.252,213.897 281.18,213.855 281.122,213.812C281.063,213.769 281.023,213.743 281.002,213.732C280.724,213.551 280.46,213.407 280.21,213.3C279.959,213.193 279.652,213.14 279.29,213.14C278.511,213.14 277.906,213.404 277.474,213.932C277.042,214.46 276.826,215.193 276.826,216.132C276.826,217.071 277.042,217.796 277.474,218.308C277.906,218.82 278.511,219.076 279.29,219.076C279.652,219.076 279.964,219.023 280.226,218.916C280.487,218.809 280.751,218.665 281.018,218.484C281.135,218.409 281.247,218.345 281.354,218.292C281.46,218.239 281.551,218.212 281.626,218.212C281.743,218.212 281.842,218.26 281.922,218.356C282.002,218.452 282.042,218.575 282.042,218.724C282.042,218.863 282.004,218.988 281.93,219.1C281.855,219.212 281.716,219.337 281.514,219.476C281.215,219.679 280.855,219.841 280.434,219.964C280.012,220.087 279.588,220.148 279.162,220.148Z" style="fill:rgb(99,101,106);fill-rule:nonzero;"/>
            <path d="M284.41,220.116C284.154,220.116 283.94,220.033 283.77,219.868C283.599,219.703 283.514,219.487 283.514,219.22C283.514,218.953 283.599,218.735 283.77,218.564C283.94,218.393 284.154,218.308 284.41,218.308C284.655,218.308 284.86,218.393 285.026,218.564C285.191,218.735 285.274,218.953 285.274,219.22C285.274,219.487 285.191,219.703 285.026,219.868C284.86,220.033 284.655,220.116 284.41,220.116Z" style="fill:rgb(99,101,106);fill-rule:nonzero;"/>
        </g>
    </g>
</svg>
