<?xml version="1.0" encoding="UTF-8" standalone="no"?>
<svg width="155px" height="127px" viewBox="0 0 155 127" version="1.1" xmlns="http://www.w3.org/2000/svg" xmlns:xlink="http://www.w3.org/1999/xlink">
    <!-- Generator: Sketch 50.2 (55047) - http://www.bohemiancoding.com/sketch -->
    <title>SonicWall_Cloud-Based_Ratings_Database</title>
    <desc>Created with Sketch.</desc>
    <defs></defs>
    <g id="Page-1" stroke="none" stroke-width="1" fill="none" fill-rule="evenodd">
        <g id="SonicWall_Cloud-Based_Ratings_Database" transform="translate(5.000000, 4.679144)">
            <g id="Server_Network">
                <path d="M50.764262,116.964413 L4.01020692,116.964413 C1.80306509,116.964413 0,115.170563 0,112.978829 L0,3.98558396 C0,1.79384997 1.80306509,0 4.01020692,0 L50.764262,0 C52.9646126,0 54.7744689,1.79384997 54.7744689,3.98558396 L54.7744689,112.978829 C54.7744689,115.170563 52.9646126,116.964413 50.764262,116.964413 Z M10.9654202,16.1881472 L44.3645694,16.1881472 C46.0523751,16.1881472 47.4206119,14.8294619 47.4206119,13.1534386 C47.4206119,11.4774154 46.0523751,10.11873 44.3645694,10.11873 L10.9654202,10.11873 C9.27761447,10.11873 7.90937762,11.4774154 7.90937762,13.1534386 C7.90937762,14.8294619 9.27761447,16.1881472 10.9654202,16.1881472 Z M10.9654202,30.0183259 L44.3645694,30.0183259 C46.0523751,30.0183259 47.4206119,28.6596406 47.4206119,26.9836173 C47.4206119,25.307594 46.0523751,23.9489087 44.3645694,23.9489087 L10.9654202,23.9489087 C9.27761447,23.9489087 7.90937762,25.307594 7.90937762,26.9836173 C7.90937762,28.6596406 9.27761447,30.0183259 10.9654202,30.0183259 Z M18.0982234,106.187151 C18.0982234,103.820079 16.1661254,101.901469 13.7824122,101.901469 C11.3986991,101.901469 9.46999667,103.820079 9.46999667,106.187151 C9.46999667,108.554224 11.3986991,110.472834 13.7824122,110.472834 C16.1661254,110.472834 18.0982234,108.554224 18.0982234,106.187151 Z" id="Combined-Shape" fill="#636569"></path>
                <path d="M50.764262,116.964413 L4.01020692,116.964413 C1.80306509,116.964413 0,115.170563 0,112.978829 L0,3.98558396 C0,1.79384997 1.80306509,0 4.01020692,0 L50.764262,0 C52.9646126,0 54.7744689,1.79384997 54.7744689,3.98558396 L54.7744689,112.978829 C54.7744689,115.170563 52.9646126,116.964413 50.764262,116.964413 Z" id="Stroke-89" stroke="#636569" stroke-width="9.2775"></path>
            </g>
            <g id="Internet_Cloud_Headquarter" transform="translate(59.582915, 35.941107)">
                <g id="Storage" transform="translate(4.181257, 0.000000)">
                    <path d="M48.458229,8.09239107 L48.5025832,8.09239107 L48.5025832,61.6054127 L48.4817106,61.6054127 C47.9781604,66.9890427 36.0547174,69.8046942 24.2695551,69.8046942 C12.3226305,69.8046942 0.242643369,66.9134372 0.0391360273,61.3916317 L0,61.3916317 L0,60.2184436 L0,9.10393995 L0,8.09239107 L0.0469632327,8.09239107 C0.691403149,2.77915235 12.5417922,0 24.2539006,0 C35.9660091,0 47.8137891,2.77915235 48.458229,8.09239107 Z M42.3154381,25.5413486 C42.3154381,25.310943 42.2201017,25.4426351 41.855208,25.7127813 C41.1752232,26.2162028 40.1017881,26.7441613 38.710312,27.2205224 C35.2206266,28.4151893 30.2924156,29.1276544 24.2539006,29.1276544 C18.2153305,29.1276544 13.2865178,28.4151721 9.79608065,27.2204868 C8.40422875,26.7440923 7.33043308,26.21609 6.65018029,25.7126247 C6.28514238,25.4424546 6.18975408,25.3107386 6.18975408,25.5413486 C6.18975408,24.5515935 5.38678856,23.7492385 4.3962804,23.7492385 C3.40577224,23.7492385 2.60280672,24.5515935 2.60280672,25.5413486 C2.60280672,29.5889966 11.7267238,32.7118745 24.2539006,32.7118745 C36.7807113,32.7118745 45.9023855,29.5891396 45.9023855,25.5413486 C45.9023855,24.5515935 45.09942,23.7492385 44.1089118,23.7492385 C43.1184037,23.7492385 42.3154381,24.5515935 42.3154381,25.5413486 Z M42.3154381,44.8384685 C42.3154381,44.6071076 42.2201054,44.7387083 41.8553508,45.0086956 C41.1751656,45.5121612 40.1016014,46.0402284 38.7101602,46.5167167 C35.2199097,47.7119259 30.291824,48.4247743 24.2539006,48.4247743 C18.2159221,48.4247743 13.2872349,47.7119086 9.79623251,46.516681 C8.40441545,46.0401594 7.33049074,45.5120484 6.65003748,45.008539 C6.28513878,44.738528 6.18975408,44.6069032 6.18975408,44.8384685 C6.18975408,43.8487135 5.38678856,43.0463585 4.3962804,43.0463585 C3.40577224,43.0463585 2.60280672,43.8487135 2.60280672,44.8384685 C2.60280672,48.88437 11.7291619,52.0089944 24.2539006,52.0089944 C36.7782737,52.0089944 45.9023855,48.8845131 45.9023855,44.8384685 C45.9023855,43.8487135 45.09942,43.0463585 44.1089118,43.0463585 C43.1184037,43.0463585 42.3154381,43.8487135 42.3154381,44.8384685 Z M24.2531179,13.9291324 C37.8855008,13.9291324 45.3161278,10.3756759 45.3161278,8.55071657 C45.3161278,6.72575724 37.8855008,3.16969364 24.2531179,3.16969364 C10.6233442,3.16969364 3.18749897,6.72575724 3.18749897,8.55071657 C3.18749897,10.3756759 10.6233442,13.9291324 24.2531179,13.9291324 Z" id="Combined-Shape" fill="#636569"></path>
                    <g id="Group-138" transform="translate(0.000000, 22.852727)"></g>
                    <g id="Group-141" transform="translate(0.000000, 40.303901)"></g>
                </g>
                <path d="M38.667963,29.2930413 C49.2619255,29.2930413 58.0019445,36.404051 60.385586,46.148768 C61.9746804,45.0952851 64.0934729,44.5685436 65.9474163,44.5685436 C72.0389448,44.5685436 77.0710769,49.5725875 77.0710769,55.6301143 C77.0710769,56.6835972 76.8062279,57.7370801 76.5413788,58.790563 C76.8062279,58.790563 76.8062279,58.790563 77.0710769,58.790563 C83.9571525,58.790563 89.7838319,64.3213484 89.7838319,71.432358 C89.7838319,78.279997 84.2220016,84.0741531 77.0710769,84.0741531 L17.4800381,84.0741531 C7.68062279,84.0741531 0,76.1730312 0,66.6916849 C0,57.4737094 7.15092466,49.8359582 16.1557928,49.3092168 C17.7448871,37.9842754 27.2794533,29.2930413 38.667963,29.2930413" id="Shape" fill="#47AFE8" fill-rule="nonzero" transform="translate(44.891916, 56.683597) scale(-1, 1) translate(-44.891916, -56.683597) "></path>
            </g>
        </g>
    </g>
</svg>