<?xml version="1.0" encoding="UTF-8" standalone="no"?>
<!DOCTYPE svg PUBLIC "-//W3C//DTD SVG 1.1//EN" "http://www.w3.org/Graphics/SVG/1.1/DTD/svg11.dtd">
<svg width="100%" height="100%" viewBox="0 0 477 137" version="1.1" xmlns="http://www.w3.org/2000/svg" xmlns:xlink="http://www.w3.org/1999/xlink" xml:space="preserve" xmlns:serif="http://www.serif.com/" style="fill-rule:evenodd;clip-rule:evenodd;stroke-linejoin:round;stroke-miterlimit:1.41421;">
    <g transform="matrix(1,0,0,1,-5873,-4746)">
        <g transform="matrix(1,0,0,1,1360,525)">
            <g transform="matrix(1,0,0,1,4506.3,4327)">
                <g id="Sophos">
                    <path d="M20.109,-33.328C20.438,-27.469 21.82,-22.711 24.258,-19.055C28.898,-12.211 37.078,-8.789 48.797,-8.789C54.047,-8.789 58.828,-9.539 63.141,-11.039C71.484,-13.945 75.656,-19.148 75.656,-26.648C75.656,-32.273 73.898,-36.281 70.383,-38.672C66.82,-41.016 61.242,-43.055 53.648,-44.789L39.656,-47.953C30.516,-50.016 24.047,-52.289 20.25,-54.773C13.688,-59.086 10.406,-65.531 10.406,-74.109C10.406,-83.391 13.617,-91.008 20.039,-96.961C26.461,-102.914 35.555,-105.891 47.32,-105.891C58.148,-105.891 67.348,-103.277 74.918,-98.051C82.488,-92.824 86.273,-84.469 86.273,-72.984L73.125,-72.984C72.422,-78.516 70.922,-82.758 68.625,-85.711C64.359,-91.102 57.117,-93.797 46.898,-93.797C38.648,-93.797 32.719,-92.063 29.109,-88.594C25.5,-85.125 23.695,-81.094 23.695,-76.5C23.695,-71.438 25.805,-67.734 30.023,-65.391C32.789,-63.891 39.047,-62.016 48.797,-59.766L63.281,-56.461C70.266,-54.867 75.656,-52.688 79.453,-49.922C86.016,-45.094 89.297,-38.086 89.297,-28.898C89.297,-17.461 85.137,-9.281 76.816,-4.359C68.496,0.563 58.828,3.023 47.813,3.023C34.969,3.023 24.914,-0.258 17.648,-6.82C10.383,-13.336 6.82,-22.172 6.961,-33.328L20.109,-33.328Z" style="fill:rgb(163,163,163);fill-rule:nonzero;"/>
                    <path d="M135.211,-8.156C143.602,-8.156 149.355,-11.332 152.473,-17.684C155.59,-24.035 157.148,-31.102 157.148,-38.883C157.148,-45.914 156.023,-51.633 153.773,-56.039C150.211,-62.977 144.07,-66.445 135.352,-66.445C127.617,-66.445 121.992,-63.492 118.477,-57.586C114.961,-51.68 113.203,-44.555 113.203,-36.211C113.203,-28.195 114.961,-21.516 118.477,-16.172C121.992,-10.828 127.57,-8.156 135.211,-8.156ZM135.703,-77.484C145.406,-77.484 153.609,-74.25 160.313,-67.781C167.016,-61.313 170.367,-51.797 170.367,-39.234C170.367,-27.094 167.414,-17.063 161.508,-9.141C155.602,-1.219 146.438,2.742 134.016,2.742C123.656,2.742 115.43,-0.762 109.336,-7.77C103.242,-14.777 100.195,-24.188 100.195,-36C100.195,-48.656 103.406,-58.734 109.828,-66.234C116.25,-73.734 124.875,-77.484 135.703,-77.484Z" style="fill:rgb(163,163,163);fill-rule:nonzero;"/>
                    <path d="M217.195,-8.508C223.102,-8.508 228.012,-10.98 231.926,-15.926C235.84,-20.871 237.797,-28.266 237.797,-38.109C237.797,-44.109 236.93,-49.266 235.195,-53.578C231.914,-61.875 225.914,-66.023 217.195,-66.023C208.43,-66.023 202.43,-61.641 199.195,-52.875C197.461,-48.188 196.594,-42.234 196.594,-35.016C196.594,-29.203 197.461,-24.258 199.195,-20.18C202.477,-12.398 208.477,-8.508 217.195,-8.508ZM184.43,-74.953L196.734,-74.953L196.734,-64.969C199.266,-68.391 202.031,-71.039 205.031,-72.914C209.297,-75.727 214.313,-77.133 220.078,-77.133C228.609,-77.133 235.852,-73.863 241.805,-67.324C247.758,-60.785 250.734,-51.445 250.734,-39.305C250.734,-22.898 246.445,-11.18 237.867,-4.148C232.43,0.305 226.102,2.531 218.883,2.531C213.211,2.531 208.453,1.289 204.609,-1.195C202.359,-2.602 199.852,-5.016 197.086,-8.438L197.086,30.023L184.43,30.023L184.43,-74.953Z" style="fill:rgb(163,163,163);fill-rule:nonzero;"/>
                    <path d="M265.5,-103.641L278.156,-103.641L278.156,-65.109C281.156,-68.906 283.852,-71.578 286.242,-73.125C290.32,-75.797 295.406,-77.133 301.5,-77.133C312.422,-77.133 319.828,-73.313 323.719,-65.672C325.828,-61.5 326.883,-55.711 326.883,-48.305L326.883,0L313.875,0L313.875,-47.461C313.875,-52.992 313.172,-57.047 311.766,-59.625C309.469,-63.75 305.156,-65.813 298.828,-65.813C293.578,-65.813 288.82,-64.008 284.555,-60.398C280.289,-56.789 278.156,-49.969 278.156,-39.938L278.156,0L265.5,0L265.5,-103.641Z" style="fill:rgb(163,163,163);fill-rule:nonzero;"/>
                    <path d="M375.469,-8.156C383.859,-8.156 389.613,-11.332 392.73,-17.684C395.848,-24.035 397.406,-31.102 397.406,-38.883C397.406,-45.914 396.281,-51.633 394.031,-56.039C390.469,-62.977 384.328,-66.445 375.609,-66.445C367.875,-66.445 362.25,-63.492 358.734,-57.586C355.219,-51.68 353.461,-44.555 353.461,-36.211C353.461,-28.195 355.219,-21.516 358.734,-16.172C362.25,-10.828 367.828,-8.156 375.469,-8.156ZM375.961,-77.484C385.664,-77.484 393.867,-74.25 400.57,-67.781C407.273,-61.313 410.625,-51.797 410.625,-39.234C410.625,-27.094 407.672,-17.063 401.766,-9.141C395.859,-1.219 386.695,2.742 374.273,2.742C363.914,2.742 355.688,-0.762 349.594,-7.77C343.5,-14.777 340.453,-24.188 340.453,-36C340.453,-48.656 343.664,-58.734 350.086,-66.234C356.508,-73.734 365.133,-77.484 375.961,-77.484Z" style="fill:rgb(163,163,163);fill-rule:nonzero;"/>
                    <path d="M433.195,-23.625C433.57,-19.406 434.625,-16.172 436.359,-13.922C439.547,-9.844 445.078,-7.805 452.953,-7.805C457.641,-7.805 461.766,-8.824 465.328,-10.863C468.891,-12.902 470.672,-16.055 470.672,-20.32C470.672,-23.555 469.242,-26.016 466.383,-27.703C464.555,-28.734 460.945,-29.93 455.555,-31.289L445.5,-33.82C439.078,-35.414 434.344,-37.195 431.297,-39.164C425.859,-42.586 423.141,-47.32 423.141,-53.367C423.141,-60.492 425.707,-66.258 430.84,-70.664C435.973,-75.07 442.875,-77.273 451.547,-77.273C462.891,-77.273 471.07,-73.945 476.086,-67.289C479.227,-63.07 480.75,-58.523 480.656,-53.648L468.703,-53.648C468.469,-56.508 467.461,-59.109 465.68,-61.453C462.773,-64.781 457.734,-66.445 450.563,-66.445C445.781,-66.445 442.16,-65.531 439.699,-63.703C437.238,-61.875 436.008,-59.461 436.008,-56.461C436.008,-53.18 437.625,-50.555 440.859,-48.586C442.734,-47.414 445.5,-46.383 449.156,-45.492L457.523,-43.453C466.617,-41.25 472.711,-39.117 475.805,-37.055C480.727,-33.82 483.188,-28.734 483.188,-21.797C483.188,-15.094 480.645,-9.305 475.559,-4.43C470.473,0.445 462.727,2.883 452.32,2.883C441.117,2.883 433.184,0.34 428.52,-4.746C423.855,-9.832 421.359,-16.125 421.031,-23.625L433.195,-23.625Z" style="fill:rgb(163,163,163);fill-rule:nonzero;"/>
                </g>
            </g>
        </g>
    </g>
</svg>
