<?xml version="1.0" encoding="UTF-8" standalone="no"?>
<svg width="48px" height="27px" viewBox="0 0 48 27" version="1.1" xmlns="http://www.w3.org/2000/svg" xmlns:xlink="http://www.w3.org/1999/xlink">
    <!-- Generator: Sketch 50.2 (55047) - http://www.bohemiancoding.com/sketch -->
    <title>TLS</title>
    <desc>Created with Sketch.</desc>
    <defs>
        <path d="M-4470,-8253 L8353,-8253 L8353,5738 L-4470,5738 L-4470,-8253 Z" id="path-1"></path>
        <mask id="mask-2" maskContentUnits="userSpaceOnUse" maskUnits="objectBoundingBox" x="0" y="0" width="12823" height="13991" fill="white">
            <use xlink:href="#path-1"></use>
        </mask>
    </defs>
    <g id="Page-1" stroke="none" stroke-width="1" fill="none" fill-rule="evenodd">
        <use id="Rectangle-5" stroke="#979797" mask="url(#mask-2)" stroke-width="12" stroke-dasharray="15,15" xlink:href="#path-1"></use>
        <path d="M-337.905556,201.228758 C-337.966892,201.036709 -338,200.832049 -338,200.619655 L-338,199.619655 C-338,198.515086 -337.104569,197.619655 -336,197.619655 C-334.895431,197.619655 -334,198.515086 -334,199.619655 L-334,200.619655 C-334,200.832049 -334.033108,201.036709 -334.094444,201.228758 L-328.883721,201.228758 L-336,228.771242 L-343.116279,201.228758 L-337.905556,201.228758 Z M-127.352629,201.245098 C-127.05472,200.514738 -126.337472,200 -125.5,200 C-124.662528,200 -123.94528,200.514738 -123.647371,201.245098 L-118.383721,201.245098 L-125.5,230.754902 L-132.616279,201.245098 L-127.352629,201.245098 Z M73.5,230.754902 L66.3837209,201.245098 L80.6162791,201.245098 L73.5,230.754902 Z M-127.5,170 C-127.5,168.895431 -126.604569,168 -125.5,168 C-124.395431,168 -123.5,168.895431 -123.5,170 L-123.5,172 C-123.5,173.104569 -124.395431,174 -125.5,174 C-126.604569,174 -127.5,173.104569 -127.5,172 L-127.5,170 Z M-127.5,186 C-127.5,184.895431 -126.604569,184 -125.5,184 C-124.395431,184 -123.5,184.895431 -123.5,186 L-123.5,188 C-123.5,189.104569 -124.395431,190 -125.5,190 C-126.604569,190 -127.5,189.104569 -127.5,188 L-127.5,186 Z M-334,185.619655 C-334,186.724225 -334.895431,187.619655 -336,187.619655 C-337.104569,187.619655 -338,186.724225 -338,185.619655 L-338,184.619655 C-338,183.515086 -337.104569,182.619655 -336,182.619655 C-334.895431,182.619655 -334,183.515086 -334,184.619655 L-334,185.619655 Z M-334,170.619655 C-334,171.724225 -334.895431,172.619655 -336,172.619655 C-337.104569,172.619655 -338,171.724225 -338,170.619655 L-338,169.619655 C-338,168.515086 -337.104569,167.619655 -336,167.619655 C-334.895431,167.619655 -334,168.515086 -334,169.619655 L-334,170.619655 Z M-334,155.619655 C-334,156.724225 -334.895431,157.619655 -336,157.619655 C-337.104569,157.619655 -338,156.724225 -338,155.619655 L-338,154.619655 C-338,153.515086 -337.104569,152.619655 -336,152.619655 C-334.895431,152.619655 -334,153.515086 -334,154.619655 L-334,155.619655 Z M-334,140.619655 C-334,141.724225 -334.895431,142.619655 -336,142.619655 C-337.104569,142.619655 -338,141.724225 -338,140.619655 L-338,139.619655 C-338,138.515086 -337.104569,137.619655 -336,137.619655 C-334.895431,137.619655 -334,138.515086 -334,139.619655 L-334,140.619655 Z M-334,125.619655 C-334,126.724225 -334.895431,127.619655 -336,127.619655 C-337.104569,127.619655 -338,126.724225 -338,125.619655 L-338,124.619655 C-338,123.515086 -337.104569,122.619655 -336,122.619655 C-334.895431,122.619655 -334,123.515086 -334,124.619655 L-334,125.619655 Z M-334,110.619655 C-334,111.724225 -334.895431,112.619655 -336,112.619655 C-337.104569,112.619655 -338,111.724225 -338,110.619655 L-338,109.619655 C-338,108.515086 -337.104569,107.619655 -336,107.619655 C-334.895431,107.619655 -334,108.515086 -334,109.619655 L-334,110.619655 Z M-334,95.6196553 C-334,96.7242248 -334.895431,97.6196553 -336,97.6196553 C-337.104569,97.6196553 -338,96.7242248 -338,95.6196553 L-338,94.6196553 C-338,93.5150858 -337.104569,92.6196553 -336,92.6196553 C-334.895431,92.6196553 -334,93.5150858 -334,94.6196553 L-334,95.6196553 Z M-334,80.6196553 C-334,81.7242248 -334.895431,82.6196553 -336,82.6196553 C-337.104569,82.6196553 -338,81.7242248 -338,80.6196553 L-338,79.6196553 C-338,78.5150858 -337.104569,77.6196553 -336,77.6196553 C-334.895431,77.6196553 -334,78.5150858 -334,79.6196553 L-334,80.6196553 Z M-334,65.6196553 C-334,66.7242248 -334.895431,67.6196553 -336,67.6196553 C-337.104569,67.6196553 -338,66.7242248 -338,65.6196553 L-338,64.6196553 C-338,63.5150858 -337.104569,62.6196553 -336,62.6196553 C-334.895431,62.6196553 -334,63.5150858 -334,64.6196553 L-334,65.6196553 Z M-334,50.6196553 C-334,51.7242248 -334.895431,52.6196553 -336,52.6196553 C-337.104569,52.6196553 -338,51.7242248 -338,50.6196553 L-338,49.6196553 C-338,48.5150858 -337.104569,47.6196553 -336,47.6196553 C-334.895431,47.6196553 -334,48.5150858 -334,49.6196553 L-334,50.6196553 Z M-334,35.6196553 C-334,36.7242248 -334.895431,37.6196553 -336,37.6196553 C-337.104569,37.6196553 -338,36.7242248 -338,35.6196553 L-338,34.6196553 C-338,33.5150858 -337.104569,32.6196553 -336,32.6196553 C-334.895431,32.6196553 -334,33.5150858 -334,34.6196553 L-334,35.6196553 Z M-334,20.6196553 C-334,21.7242248 -334.895431,22.6196553 -336,22.6196553 C-337.104569,22.6196553 -338,21.7242248 -338,20.6196553 L-338,19.6196553 C-338,18.5150858 -337.104569,17.6196553 -336,17.6196553 C-334.895431,17.6196553 -334,18.5150858 -334,19.6196553 L-334,20.6196553 Z M-334,5.61965532 C-334,6.72422482 -334.895431,7.61965532 -336,7.61965532 C-337.104569,7.61965532 -338,6.72422482 -338,5.61965532 L-338,4.61965532 C-338,3.51508582 -337.104569,2.61965532 -336,2.61965532 C-334.895431,2.61965532 -334,3.51508582 -334,4.61965532 L-334,5.61965532 Z M-333.995058,-9.3180116 C-334.029423,-8.2139768 -334.952278,-7.34683797 -336.056313,-7.38120281 C-337.160348,-7.41556765 -338.027487,-8.3384229 -337.993122,-9.4424577 C-337.980993,-9.83212484 -337.952846,-10.2197309 -337.908865,-10.604567 C-337.783447,-11.7019931 -336.792135,-12.4899609 -335.694709,-12.3645425 C-334.597283,-12.239124 -333.809315,-11.2478127 -333.934734,-10.1503866 C-333.966202,-9.87503508 -333.986361,-9.59743404 -333.995058,-9.3180116 Z M-326.801124,-18.6029216 C-327.861671,-18.294194 -328.971688,-18.9036645 -329.280416,-19.964212 C-329.589143,-21.0247595 -328.979673,-22.1347763 -327.919126,-22.4435039 C-327.545812,-22.5521764 -327.167574,-22.6452985 -326.785212,-22.7225452 C-325.702516,-22.9412769 -324.647501,-22.2408955 -324.428769,-21.1581996 C-324.210037,-20.0755038 -324.910419,-19.0204884 -325.993115,-18.8017568 C-326.265648,-18.7466982 -326.535158,-18.6803448 -326.801124,-18.6029216 Z M-312.350638,-19 C-313.455207,-19 -314.350638,-19.8954305 -314.350638,-21 C-314.350638,-22.1045695 -313.455207,-23 -312.350638,-23 L-311.350638,-23 C-310.246068,-23 -309.350638,-22.1045695 -309.350638,-21 C-309.350638,-19.8954305 -310.246068,-19 -311.350638,-19 L-312.350638,-19 Z M-297.350638,-19 C-298.455207,-19 -299.350638,-19.8954305 -299.350638,-21 C-299.350638,-22.1045695 -298.455207,-23 -297.350638,-23 L-296.350638,-23 C-295.246068,-23 -294.350638,-22.1045695 -294.350638,-21 C-294.350638,-19.8954305 -295.246068,-19 -296.350638,-19 L-297.350638,-19 Z M-282.350638,-19 C-283.455207,-19 -284.350638,-19.8954305 -284.350638,-21 C-284.350638,-22.1045695 -283.455207,-23 -282.350638,-23 L-281.350638,-23 C-280.246068,-23 -279.350638,-22.1045695 -279.350638,-21 C-279.350638,-19.8954305 -280.246068,-19 -281.350638,-19 L-282.350638,-19 Z M-267.350638,-19 C-268.455207,-19 -269.350638,-19.8954305 -269.350638,-21 C-269.350638,-22.1045695 -268.455207,-23 -267.350638,-23 L-266.350638,-23 C-265.246068,-23 -264.350638,-22.1045695 -264.350638,-21 C-264.350638,-19.8954305 -265.246068,-19 -266.350638,-19 L-267.350638,-19 Z M-252.350638,-19 C-253.455207,-19 -254.350638,-19.8954305 -254.350638,-21 C-254.350638,-22.1045695 -253.455207,-23 -252.350638,-23 L-251.350638,-23 C-250.246068,-23 -249.350638,-22.1045695 -249.350638,-21 C-249.350638,-19.8954305 -250.246068,-19 -251.350638,-19 L-252.350638,-19 Z M-237.350638,-19 C-238.455207,-19 -239.350638,-19.8954305 -239.350638,-21 C-239.350638,-22.1045695 -238.455207,-23 -237.350638,-23 L-236.350638,-23 C-235.246068,-23 -234.350638,-22.1045695 -234.350638,-21 C-234.350638,-19.8954305 -235.246068,-19 -236.350638,-19 L-237.350638,-19 Z M71.5130672,192.666053 L71.5130672,191.666053 C71.5130672,190.561484 72.4084977,189.666053 73.5130672,189.666053 C74.6176367,189.666053 75.5130672,190.561484 75.5130672,191.666053 L75.5130672,192.666053 C75.5130672,193.770623 74.6176367,194.666053 73.5130672,194.666053 C72.4084977,194.666053 71.5130672,193.770623 71.5130672,192.666053 Z M71.5130672,177.666053 L71.5130672,176.666053 C71.5130672,175.561484 72.4084977,174.666053 73.5130672,174.666053 C74.6176367,174.666053 75.5130672,175.561484 75.5130672,176.666053 L75.5130672,177.666053 C75.5130672,178.770623 74.6176367,179.666053 73.5130672,179.666053 C72.4084977,179.666053 71.5130672,178.770623 71.5130672,177.666053 Z M71.5130672,162.666053 L71.5130672,161.666053 C71.5130672,160.561484 72.4084977,159.666053 73.5130672,159.666053 C74.6176367,159.666053 75.5130672,160.561484 75.5130672,161.666053 L75.5130672,162.666053 C75.5130672,163.770623 74.6176367,164.666053 73.5130672,164.666053 C72.4084977,164.666053 71.5130672,163.770623 71.5130672,162.666053 Z M71.5130672,147.666053 L71.5130672,146.666053 C71.5130672,145.561484 72.4084977,144.666053 73.5130672,144.666053 C74.6176367,144.666053 75.5130672,145.561484 75.5130672,146.666053 L75.5130672,147.666053 C75.5130672,148.770623 74.6176367,149.666053 73.5130672,149.666053 C72.4084977,149.666053 71.5130672,148.770623 71.5130672,147.666053 Z M71.5130672,132.666053 L71.5130672,131.666053 C71.5130672,130.561484 72.4084977,129.666053 73.5130672,129.666053 C74.6176367,129.666053 75.5130672,130.561484 75.5130672,131.666053 L75.5130672,132.666053 C75.5130672,133.770623 74.6176367,134.666053 73.5130672,134.666053 C72.4084977,134.666053 71.5130672,133.770623 71.5130672,132.666053 Z M71.5130672,117.666053 L71.5130672,116.666053 C71.5130672,115.561484 72.4084977,114.666053 73.5130672,114.666053 C74.6176367,114.666053 75.5130672,115.561484 75.5130672,116.666053 L75.5130672,117.666053 C75.5130672,118.770623 74.6176367,119.666053 73.5130672,119.666053 C72.4084977,119.666053 71.5130672,118.770623 71.5130672,117.666053 Z M71.5130672,102.666053 L71.5130672,101.666053 C71.5130672,100.561484 72.4084977,99.6660535 73.5130672,99.6660535 C74.6176367,99.6660535 75.5130672,100.561484 75.5130672,101.666053 L75.5130672,102.666053 C75.5130672,103.770623 74.6176367,104.666053 73.5130672,104.666053 C72.4084977,104.666053 71.5130672,103.770623 71.5130672,102.666053 Z M71.5130672,87.6660535 L71.5130672,86.6660535 C71.5130672,85.561484 72.4084977,84.6660535 73.5130672,84.6660535 C74.6176367,84.6660535 75.5130672,85.561484 75.5130672,86.6660535 L75.5130672,87.6660535 C75.5130672,88.770623 74.6176367,89.6660535 73.5130672,89.6660535 C72.4084977,89.6660535 71.5130672,88.770623 71.5130672,87.6660535 Z M71.5130672,72.6660535 L71.5130672,71.6660535 C71.5130672,70.561484 72.4084977,69.6660535 73.5130672,69.6660535 C74.6176367,69.6660535 75.5130672,70.561484 75.5130672,71.6660535 L75.5130672,72.6660535 C75.5130672,73.770623 74.6176367,74.6660535 73.5130672,74.6660535 C72.4084977,74.6660535 71.5130672,73.770623 71.5130672,72.6660535 Z M71.5130672,57.6660535 L71.5130672,56.6660535 C71.5130672,55.561484 72.4084977,54.6660535 73.5130672,54.6660535 C74.6176367,54.6660535 75.5130672,55.561484 75.5130672,56.6660535 L75.5130672,57.6660535 C75.5130672,58.770623 74.6176367,59.6660535 73.5130672,59.6660535 C72.4084977,59.6660535 71.5130672,58.770623 71.5130672,57.6660535 Z M71.5130672,42.6660535 L71.5130672,41.6660535 C71.5130672,40.561484 72.4084977,39.6660535 73.5130672,39.6660535 C74.6176367,39.6660535 75.5130672,40.561484 75.5130672,41.6660535 L75.5130672,42.6660535 C75.5130672,43.770623 74.6176367,44.6660535 73.5130672,44.6660535 C72.4084977,44.6660535 71.5130672,43.770623 71.5130672,42.6660535 Z M71.5130672,27.6660535 L71.5130672,26.6660535 C71.5130672,25.561484 72.4084977,24.6660535 73.5130672,24.6660535 C74.6176367,24.6660535 75.5130672,25.561484 75.5130672,26.6660535 L75.5130672,27.6660535 C75.5130672,28.770623 74.6176367,29.6660535 73.5130672,29.6660535 C72.4084977,29.6660535 71.5130672,28.770623 71.5130672,27.6660535 Z M71.5130672,12.6660535 L71.5130672,11.6660535 C71.5130672,10.561484 72.4084977,9.66605346 73.5130672,9.66605346 C74.6176367,9.66605346 75.5130672,10.561484 75.5130672,11.6660535 L75.5130672,12.6660535 C75.5130672,13.770623 74.6176367,14.6660535 73.5130672,14.6660535 C72.4084977,14.6660535 71.5130672,13.770623 71.5130672,12.6660535 Z M71.5130672,-2.33394654 L71.5130672,-3.33394654 C71.5130672,-4.43851604 72.4084977,-5.33394654 73.5130672,-5.33394654 C74.6176367,-5.33394654 75.5130672,-4.43851604 75.5130672,-3.33394654 L75.5130672,-2.33394654 C75.5130672,-1.22937704 74.6176367,-0.333946541 73.5130672,-0.333946541 C72.4084977,-0.333946541 71.5130672,-1.22937704 71.5130672,-2.33394654 Z M69.2872169,-15.4395767 C69.1088628,-15.650806 68.9212245,-15.8547942 68.7248527,-16.0509426 C67.9433596,-16.8315463 67.9426386,-18.0978761 68.7232424,-18.8793692 C69.5038462,-19.6608624 70.7701759,-19.6615833 71.5516691,-18.8809795 C71.8279276,-18.6050354 72.092117,-18.3178258 72.3434605,-18.0201531 C73.056067,-17.1761948 72.9495853,-15.9143496 72.1056269,-15.2017431 C71.2616685,-14.4891366 69.9998234,-14.5956183 69.2872169,-15.4395767 Z M57,-19 L56,-19 C54.8954305,-19 54,-19.8954305 54,-21 C54,-22.1045695 54.8954305,-23 56,-23 L57,-23 C58.1045695,-23 59,-22.1045695 59,-21 C59,-19.8954305 58.1045695,-19 57,-19 Z M42,-19 L41,-19 C39.8954305,-19 39,-19.8954305 39,-21 C39,-22.1045695 39.8954305,-23 41,-23 L42,-23 C43.1045695,-23 44,-22.1045695 44,-21 C44,-19.8954305 43.1045695,-19 42,-19 Z M27,-19 L26,-19 C24.8954305,-19 24,-19.8954305 24,-21 C24,-22.1045695 24.8954305,-23 26,-23 L27,-23 C28.1045695,-23 29,-22.1045695 29,-21 C29,-19.8954305 28.1045695,-19 27,-19 Z M12,-19 L11,-19 C9.8954305,-19 9,-19.8954305 9,-21 C9,-22.1045695 9.8954305,-23 11,-23 L12,-23 C13.1045695,-23 14,-22.1045695 14,-21 C14,-19.8954305 13.1045695,-19 12,-19 Z M-3,-19 L-4,-19 C-5.1045695,-19 -6,-19.8954305 -6,-21 C-6,-22.1045695 -5.1045695,-23 -4,-23 L-3,-23 C-1.8954305,-23 -1,-22.1045695 -1,-21 C-1,-19.8954305 -1.8954305,-19 -3,-19 Z M-18,-19 L-19,-19 C-20.1045695,-19 -21,-19.8954305 -21,-21 C-21,-22.1045695 -20.1045695,-23 -19,-23 L-18,-23 C-16.8954305,-23 -16,-22.1045695 -16,-21 C-16,-19.8954305 -16.8954305,-19 -18,-19 Z" id="line_dash2" fill="#9B9B9B"></path>
        <path d="M-127.5,178 C-127.5,176.895431 -126.604569,176 -125.5,176 C-124.395431,176 -123.5,176.895431 -123.5,178 L-123.5,180 C-123.5,181.104569 -124.395431,182 -125.5,182 C-126.604569,182 -127.5,181.104569 -127.5,180 L-127.5,178 Z M-127.5,194 C-127.5,192.895431 -126.604569,192 -125.5,192 C-124.395431,192 -123.5,192.895431 -123.5,194 L-123.5,196 C-123.5,197.104569 -124.395431,198 -125.5,198 C-126.604569,198 -127.5,197.104569 -127.5,196 L-127.5,194 Z M-127.5,210 C-127.5,208.895431 -126.604569,208 -125.5,208 C-124.395431,208 -123.5,208.895431 -123.5,210 L-123.5,210.770941 C-123.5,211.875511 -124.395431,212.770941 -125.5,212.770941 C-126.604569,212.770941 -127.5,211.875511 -127.5,210.770941 L-127.5,210 Z M-334,207.666053 C-334,208.770623 -334.895431,209.666053 -336,209.666053 C-337.104569,209.666053 -338,208.770623 -338,207.666053 L-338,206.666053 C-338,205.561484 -337.104569,204.666053 -336,204.666053 C-334.895431,204.666053 -334,205.561484 -334,206.666053 L-334,207.666053 Z M-334,192.666053 C-334,193.770623 -334.895431,194.666053 -336,194.666053 C-337.104569,194.666053 -338,193.770623 -338,192.666053 L-338,191.666053 C-338,190.561484 -337.104569,189.666053 -336,189.666053 C-334.895431,189.666053 -334,190.561484 -334,191.666053 L-334,192.666053 Z M-334,177.666053 C-334,178.770623 -334.895431,179.666053 -336,179.666053 C-337.104569,179.666053 -338,178.770623 -338,177.666053 L-338,176.666053 C-338,175.561484 -337.104569,174.666053 -336,174.666053 C-334.895431,174.666053 -334,175.561484 -334,176.666053 L-334,177.666053 Z M-334,162.666053 C-334,163.770623 -334.895431,164.666053 -336,164.666053 C-337.104569,164.666053 -338,163.770623 -338,162.666053 L-338,161.666053 C-338,160.561484 -337.104569,159.666053 -336,159.666053 C-334.895431,159.666053 -334,160.561484 -334,161.666053 L-334,162.666053 Z M-334,147.666053 C-334,148.770623 -334.895431,149.666053 -336,149.666053 C-337.104569,149.666053 -338,148.770623 -338,147.666053 L-338,146.666053 C-338,145.561484 -337.104569,144.666053 -336,144.666053 C-334.895431,144.666053 -334,145.561484 -334,146.666053 L-334,147.666053 Z M-334,132.666053 C-334,133.770623 -334.895431,134.666053 -336,134.666053 C-337.104569,134.666053 -338,133.770623 -338,132.666053 L-338,131.666053 C-338,130.561484 -337.104569,129.666053 -336,129.666053 C-334.895431,129.666053 -334,130.561484 -334,131.666053 L-334,132.666053 Z M-334,117.666053 C-334,118.770623 -334.895431,119.666053 -336,119.666053 C-337.104569,119.666053 -338,118.770623 -338,117.666053 L-338,116.666053 C-338,115.561484 -337.104569,114.666053 -336,114.666053 C-334.895431,114.666053 -334,115.561484 -334,116.666053 L-334,117.666053 Z M-334,102.666053 C-334,103.770623 -334.895431,104.666053 -336,104.666053 C-337.104569,104.666053 -338,103.770623 -338,102.666053 L-338,101.666053 C-338,100.561484 -337.104569,99.6660535 -336,99.6660535 C-334.895431,99.6660535 -334,100.561484 -334,101.666053 L-334,102.666053 Z M-334,87.6660535 C-334,88.770623 -334.895431,89.6660535 -336,89.6660535 C-337.104569,89.6660535 -338,88.770623 -338,87.6660535 L-338,86.6660535 C-338,85.561484 -337.104569,84.6660535 -336,84.6660535 C-334.895431,84.6660535 -334,85.561484 -334,86.6660535 L-334,87.6660535 Z M-334,72.6660535 C-334,73.770623 -334.895431,74.6660535 -336,74.6660535 C-337.104569,74.6660535 -338,73.770623 -338,72.6660535 L-338,71.6660535 C-338,70.561484 -337.104569,69.6660535 -336,69.6660535 C-334.895431,69.6660535 -334,70.561484 -334,71.6660535 L-334,72.6660535 Z M-334,57.6660535 C-334,58.770623 -334.895431,59.6660535 -336,59.6660535 C-337.104569,59.6660535 -338,58.770623 -338,57.6660535 L-338,56.6660535 C-338,55.561484 -337.104569,54.6660535 -336,54.6660535 C-334.895431,54.6660535 -334,55.561484 -334,56.6660535 L-334,57.6660535 Z M-334,42.6660535 C-334,43.770623 -334.895431,44.6660535 -336,44.6660535 C-337.104569,44.6660535 -338,43.770623 -338,42.6660535 L-338,41.6660535 C-338,40.561484 -337.104569,39.6660535 -336,39.6660535 C-334.895431,39.6660535 -334,40.561484 -334,41.6660535 L-334,42.6660535 Z M-334,27.6660535 C-334,28.770623 -334.895431,29.6660535 -336,29.6660535 C-337.104569,29.6660535 -338,28.770623 -338,27.6660535 L-338,26.6660535 C-338,25.561484 -337.104569,24.6660535 -336,24.6660535 C-334.895431,24.6660535 -334,25.561484 -334,26.6660535 L-334,27.6660535 Z M-334,12.6660535 C-334,13.770623 -334.895431,14.6660535 -336,14.6660535 C-337.104569,14.6660535 -338,13.770623 -338,12.6660535 L-338,11.6660535 C-338,10.561484 -337.104569,9.66605346 -336,9.66605346 C-334.895431,9.66605346 -334,10.561484 -334,11.6660535 L-334,12.6660535 Z M-334,-2.33394654 C-334,-1.22937704 -334.895431,-0.333946541 -336,-0.333946541 C-337.104569,-0.333946541 -338,-1.22937704 -338,-2.33394654 L-338,-3.33394654 C-338,-4.43851604 -337.104569,-5.33394654 -336,-5.33394654 C-334.895431,-5.33394654 -334,-4.43851604 -334,-3.33394654 L-334,-2.33394654 Z M-331.77415,-15.4395767 C-332.486756,-14.5956183 -333.748601,-14.4891366 -334.59256,-15.2017431 C-335.436518,-15.9143496 -335.543,-17.1761948 -334.830393,-18.0201531 C-334.57905,-18.3178258 -334.31486,-18.6050354 -334.038602,-18.8809795 C-333.257109,-19.6615833 -331.990779,-19.6608624 -331.210175,-18.8793692 C-330.429571,-18.0978761 -330.430292,-16.8315463 -331.211786,-16.0509426 C-331.408157,-15.8547942 -331.595796,-15.650806 -331.77415,-15.4395767 Z M-319.486933,-19 C-320.591502,-19 -321.486933,-19.8954305 -321.486933,-21 C-321.486933,-22.1045695 -320.591502,-23 -319.486933,-23 L-318.486933,-23 C-317.382363,-23 -316.486933,-22.1045695 -316.486933,-21 C-316.486933,-19.8954305 -317.382363,-19 -318.486933,-19 L-319.486933,-19 Z M-304.486933,-19 C-305.591502,-19 -306.486933,-19.8954305 -306.486933,-21 C-306.486933,-22.1045695 -305.591502,-23 -304.486933,-23 L-303.486933,-23 C-302.382363,-23 -301.486933,-22.1045695 -301.486933,-21 C-301.486933,-19.8954305 -302.382363,-19 -303.486933,-19 L-304.486933,-19 Z M-289.486933,-19 C-290.591502,-19 -291.486933,-19.8954305 -291.486933,-21 C-291.486933,-22.1045695 -290.591502,-23 -289.486933,-23 L-288.486933,-23 C-287.382363,-23 -286.486933,-22.1045695 -286.486933,-21 C-286.486933,-19.8954305 -287.382363,-19 -288.486933,-19 L-289.486933,-19 Z M-274.486933,-19 C-275.591502,-19 -276.486933,-19.8954305 -276.486933,-21 C-276.486933,-22.1045695 -275.591502,-23 -274.486933,-23 L-273.486933,-23 C-272.382363,-23 -271.486933,-22.1045695 -271.486933,-21 C-271.486933,-19.8954305 -272.382363,-19 -273.486933,-19 L-274.486933,-19 Z M-259.486933,-19 C-260.591502,-19 -261.486933,-19.8954305 -261.486933,-21 C-261.486933,-22.1045695 -260.591502,-23 -259.486933,-23 L-258.486933,-23 C-257.382363,-23 -256.486933,-22.1045695 -256.486933,-21 C-256.486933,-19.8954305 -257.382363,-19 -258.486933,-19 L-259.486933,-19 Z M-244.486933,-19 C-245.591502,-19 -246.486933,-19.8954305 -246.486933,-21 C-246.486933,-22.1045695 -245.591502,-23 -244.486933,-23 L-243.486933,-23 C-242.382363,-23 -241.486933,-22.1045695 -241.486933,-21 C-241.486933,-19.8954305 -242.382363,-19 -243.486933,-19 L-244.486933,-19 Z M71.6493622,215.619655 L71.6493622,214.619655 C71.6493622,213.515086 72.5447927,212.619655 73.6493622,212.619655 C74.7539317,212.619655 75.6493622,213.515086 75.6493622,214.619655 L75.6493622,215.619655 C75.6493622,216.724225 74.7539317,217.619655 73.6493622,217.619655 C72.5447927,217.619655 71.6493622,216.724225 71.6493622,215.619655 Z M71.6493622,200.619655 L71.6493622,199.619655 C71.6493622,198.515086 72.5447927,197.619655 73.6493622,197.619655 C74.7539317,197.619655 75.6493622,198.515086 75.6493622,199.619655 L75.6493622,200.619655 C75.6493622,201.724225 74.7539317,202.619655 73.6493622,202.619655 C72.5447927,202.619655 71.6493622,201.724225 71.6493622,200.619655 Z M71.6493622,185.619655 L71.6493622,184.619655 C71.6493622,183.515086 72.5447927,182.619655 73.6493622,182.619655 C74.7539317,182.619655 75.6493622,183.515086 75.6493622,184.619655 L75.6493622,185.619655 C75.6493622,186.724225 74.7539317,187.619655 73.6493622,187.619655 C72.5447927,187.619655 71.6493622,186.724225 71.6493622,185.619655 Z M71.6493622,170.619655 L71.6493622,169.619655 C71.6493622,168.515086 72.5447927,167.619655 73.6493622,167.619655 C74.7539317,167.619655 75.6493622,168.515086 75.6493622,169.619655 L75.6493622,170.619655 C75.6493622,171.724225 74.7539317,172.619655 73.6493622,172.619655 C72.5447927,172.619655 71.6493622,171.724225 71.6493622,170.619655 Z M71.6493622,155.619655 L71.6493622,154.619655 C71.6493622,153.515086 72.5447927,152.619655 73.6493622,152.619655 C74.7539317,152.619655 75.6493622,153.515086 75.6493622,154.619655 L75.6493622,155.619655 C75.6493622,156.724225 74.7539317,157.619655 73.6493622,157.619655 C72.5447927,157.619655 71.6493622,156.724225 71.6493622,155.619655 Z M71.6493622,140.619655 L71.6493622,139.619655 C71.6493622,138.515086 72.5447927,137.619655 73.6493622,137.619655 C74.7539317,137.619655 75.6493622,138.515086 75.6493622,139.619655 L75.6493622,140.619655 C75.6493622,141.724225 74.7539317,142.619655 73.6493622,142.619655 C72.5447927,142.619655 71.6493622,141.724225 71.6493622,140.619655 Z M71.6493622,125.619655 L71.6493622,124.619655 C71.6493622,123.515086 72.5447927,122.619655 73.6493622,122.619655 C74.7539317,122.619655 75.6493622,123.515086 75.6493622,124.619655 L75.6493622,125.619655 C75.6493622,126.724225 74.7539317,127.619655 73.6493622,127.619655 C72.5447927,127.619655 71.6493622,126.724225 71.6493622,125.619655 Z M71.6493622,110.619655 L71.6493622,109.619655 C71.6493622,108.515086 72.5447927,107.619655 73.6493622,107.619655 C74.7539317,107.619655 75.6493622,108.515086 75.6493622,109.619655 L75.6493622,110.619655 C75.6493622,111.724225 74.7539317,112.619655 73.6493622,112.619655 C72.5447927,112.619655 71.6493622,111.724225 71.6493622,110.619655 Z M71.6493622,95.6196553 L71.6493622,94.6196553 C71.6493622,93.5150858 72.5447927,92.6196553 73.6493622,92.6196553 C74.7539317,92.6196553 75.6493622,93.5150858 75.6493622,94.6196553 L75.6493622,95.6196553 C75.6493622,96.7242248 74.7539317,97.6196553 73.6493622,97.6196553 C72.5447927,97.6196553 71.6493622,96.7242248 71.6493622,95.6196553 Z M71.6493622,80.6196553 L71.6493622,79.6196553 C71.6493622,78.5150858 72.5447927,77.6196553 73.6493622,77.6196553 C74.7539317,77.6196553 75.6493622,78.5150858 75.6493622,79.6196553 L75.6493622,80.6196553 C75.6493622,81.7242248 74.7539317,82.6196553 73.6493622,82.6196553 C72.5447927,82.6196553 71.6493622,81.7242248 71.6493622,80.6196553 Z M71.6493622,65.6196553 L71.6493622,64.6196553 C71.6493622,63.5150858 72.5447927,62.6196553 73.6493622,62.6196553 C74.7539317,62.6196553 75.6493622,63.5150858 75.6493622,64.6196553 L75.6493622,65.6196553 C75.6493622,66.7242248 74.7539317,67.6196553 73.6493622,67.6196553 C72.5447927,67.6196553 71.6493622,66.7242248 71.6493622,65.6196553 Z M71.6493622,50.6196553 L71.6493622,49.6196553 C71.6493622,48.5150858 72.5447927,47.6196553 73.6493622,47.6196553 C74.7539317,47.6196553 75.6493622,48.5150858 75.6493622,49.6196553 L75.6493622,50.6196553 C75.6493622,51.7242248 74.7539317,52.6196553 73.6493622,52.6196553 C72.5447927,52.6196553 71.6493622,51.7242248 71.6493622,50.6196553 Z M71.6493622,35.6196553 L71.6493622,34.6196553 C71.6493622,33.5150858 72.5447927,32.6196553 73.6493622,32.6196553 C74.7539317,32.6196553 75.6493622,33.5150858 75.6493622,34.6196553 L75.6493622,35.6196553 C75.6493622,36.7242248 74.7539317,37.6196553 73.6493622,37.6196553 C72.5447927,37.6196553 71.6493622,36.7242248 71.6493622,35.6196553 Z M71.6493622,20.6196553 L71.6493622,19.6196553 C71.6493622,18.5150858 72.5447927,17.6196553 73.6493622,17.6196553 C74.7539317,17.6196553 75.6493622,18.5150858 75.6493622,19.6196553 L75.6493622,20.6196553 C75.6493622,21.7242248 74.7539317,22.6196553 73.6493622,22.6196553 C72.5447927,22.6196553 71.6493622,21.7242248 71.6493622,20.6196553 Z M71.6493622,5.61965532 L71.6493622,4.61965532 C71.6493622,3.51508582 72.5447927,2.61965532 73.6493622,2.61965532 C74.7539317,2.61965532 75.6493622,3.51508582 75.6493622,4.61965532 L75.6493622,5.61965532 C75.6493622,6.72422482 74.7539317,7.61965532 73.6493622,7.61965532 C72.5447927,7.61965532 71.6493622,6.72422482 71.6493622,5.61965532 Z M71.6444206,-9.3180116 C71.6357231,-9.59743404 71.6155641,-9.87503508 71.5840958,-10.1503866 C71.4586773,-11.2478127 72.2466452,-12.239124 73.3440713,-12.3645425 C74.4414973,-12.4899609 75.4328087,-11.7019931 75.5582272,-10.604567 C75.6022078,-10.2197309 75.6303552,-9.83212484 75.6424842,-9.4424577 C75.6768491,-8.3384229 74.8097102,-7.41556765 73.7056754,-7.38120281 C72.6016407,-7.34683797 71.6787854,-8.2139768 71.6444206,-9.3180116 Z M64.4504861,-18.6029216 C64.1845202,-18.6803448 63.9150103,-18.7466982 63.6424769,-18.8017568 C62.559781,-19.0204884 61.8593997,-20.0755038 62.0781313,-21.1581996 C62.2968629,-22.2408955 63.3518783,-22.9412769 64.4345741,-22.7225452 C64.8169364,-22.6452985 65.1951738,-22.5521764 65.5684877,-22.4435039 C66.6290352,-22.1347763 67.2385057,-21.0247595 66.9297781,-19.964212 C66.6210505,-18.9036645 65.5110336,-18.294194 64.4504861,-18.6029216 Z M50,-19 L49,-19 C47.8954305,-19 47,-19.8954305 47,-21 C47,-22.1045695 47.8954305,-23 49,-23 L50,-23 C51.1045695,-23 52,-22.1045695 52,-21 C52,-19.8954305 51.1045695,-19 50,-19 Z M35,-19 L34,-19 C32.8954305,-19 32,-19.8954305 32,-21 C32,-22.1045695 32.8954305,-23 34,-23 L35,-23 C36.1045695,-23 37,-22.1045695 37,-21 C37,-19.8954305 36.1045695,-19 35,-19 Z M20,-19 L19,-19 C17.8954305,-19 17,-19.8954305 17,-21 C17,-22.1045695 17.8954305,-23 19,-23 L20,-23 C21.1045695,-23 22,-22.1045695 22,-21 C22,-19.8954305 21.1045695,-19 20,-19 Z M5,-19 L4,-19 C2.8954305,-19 2,-19.8954305 2,-21 C2,-22.1045695 2.8954305,-23 4,-23 L5,-23 C6.1045695,-23 7,-22.1045695 7,-21 C7,-19.8954305 6.1045695,-19 5,-19 Z M-10,-19 L-11,-19 C-12.1045695,-19 -13,-19.8954305 -13,-21 C-13,-22.1045695 -12.1045695,-23 -11,-23 L-10,-23 C-8.8954305,-23 -8,-22.1045695 -8,-21 C-8,-19.8954305 -8.8954305,-19 -10,-19 Z M-25,-19 L-26,-19 C-27.1045695,-19 -28,-19.8954305 -28,-21 C-28,-22.1045695 -27.1045695,-23 -26,-23 L-25,-23 C-23.8954305,-23 -23,-22.1045695 -23,-21 C-23,-19.8954305 -23.8954305,-19 -25,-19 Z" id="line_dash1" fill="#9B9B9B" fill-rule="nonzero"></path>
        <text id="TLS" font-family="Nunito-SemiBold, Nunito" font-size="22" font-weight="500" fill="#4A4A4A">
            <tspan x="5" y="22">TLS</tspan>
        </text>
    </g>
</svg>