<?xml version="1.0" encoding="UTF-8" standalone="no"?>
<!DOCTYPE svg PUBLIC "-//W3C//DTD SVG 1.1//EN" "http://www.w3.org/Graphics/SVG/1.1/DTD/svg11.dtd">
<svg width="100%" height="100%" viewBox="0 0 187 46" version="1.1" xmlns="http://www.w3.org/2000/svg" xmlns:xlink="http://www.w3.org/1999/xlink" xml:space="preserve" xmlns:serif="http://www.serif.com/" style="fill-rule:evenodd;clip-rule:evenodd;stroke-linejoin:round;stroke-miterlimit:1.41421;">
    <g transform="matrix(1,0,0,1,-822,-363)">
        <g transform="matrix(1,0,0,1,-0.684275,0)">
            <g id="Uknown" transform="matrix(1,0,0,1,4,4)">
                <g transform="matrix(1,0,0,1.02346,0,-18.8001)">
                    <path d="M1004.93,372.803C1004.93,371.201 1003.6,369.899 1001.96,369.899L821.789,369.899C820.149,369.899 818.817,371.201 818.817,372.803L818.817,410.954C818.817,412.556 820.149,413.858 821.789,413.858L1001.96,413.858C1003.6,413.858 1004.93,412.556 1004.93,410.954L1004.93,372.803Z" style="fill:rgb(71,175,232);"/>
                </g>
                <g transform="matrix(1,0,0,1,8.3162,-7.07288)">
                    <path d="M856.581,396.555C854.741,396.555 853.348,396.075 852.401,395.115C851.454,394.155 850.981,392.742 850.981,390.875L850.981,383.035C850.981,382.782 851.054,382.578 851.201,382.425C851.348,382.272 851.548,382.195 851.801,382.195C852.041,382.195 852.234,382.272 852.381,382.425C852.528,382.578 852.601,382.782 852.601,383.035L852.601,391.015C852.601,392.388 852.938,393.422 853.611,394.115C854.284,394.808 855.274,395.155 856.581,395.155C857.888,395.155 858.874,394.808 859.541,394.115C860.208,393.422 860.541,392.388 860.541,391.015L860.541,383.035C860.541,382.782 860.618,382.578 860.771,382.425C860.924,382.272 861.121,382.195 861.361,382.195C861.614,382.195 861.814,382.272 861.961,382.425C862.108,382.578 862.181,382.782 862.181,383.035L862.181,390.875C862.181,392.728 861.704,394.138 860.751,395.105C859.798,396.072 858.408,396.555 856.581,396.555Z" style="fill:white;fill-rule:nonzero;"/>
                    <path d="M876.101,382.195C876.341,382.195 876.528,382.272 876.661,382.425C876.794,382.578 876.861,382.782 876.861,383.035L876.861,395.655C876.861,395.908 876.791,396.112 876.651,396.265C876.511,396.418 876.314,396.495 876.061,396.495C875.808,396.495 875.588,396.382 875.401,396.155L867.101,385.055L867.101,395.655C867.101,395.908 867.031,396.112 866.891,396.265C866.751,396.418 866.561,396.495 866.321,396.495C866.081,396.495 865.894,396.418 865.761,396.265C865.628,396.112 865.561,395.908 865.561,395.655L865.561,383.035C865.561,382.782 865.631,382.578 865.771,382.425C865.911,382.272 866.108,382.195 866.361,382.195C866.628,382.195 866.854,382.308 867.041,382.535L875.321,393.635L875.321,383.035C875.321,382.782 875.391,382.578 875.531,382.425C875.671,382.272 875.861,382.195 876.101,382.195Z" style="fill:white;fill-rule:nonzero;"/>
                    <path d="M890.481,395.155C890.668,395.328 890.761,395.522 890.761,395.735C890.761,395.922 890.684,396.092 890.531,396.245C890.378,396.398 890.201,396.475 890.001,396.475C889.828,396.475 889.648,396.395 889.461,396.235L881.981,389.695L881.981,395.655C881.981,395.908 881.908,396.112 881.761,396.265C881.614,396.418 881.414,396.495 881.161,396.495C880.908,396.495 880.708,396.418 880.561,396.265C880.414,396.112 880.341,395.908 880.341,395.655L880.341,383.035C880.341,382.782 880.414,382.578 880.561,382.425C880.708,382.272 880.908,382.195 881.161,382.195C881.414,382.195 881.614,382.272 881.761,382.425C881.908,382.578 881.981,382.782 881.981,383.035L881.981,388.775L889.121,382.435C889.268,382.288 889.441,382.215 889.641,382.215C889.841,382.215 890.014,382.292 890.161,382.445C890.308,382.598 890.381,382.768 890.381,382.955C890.381,383.155 890.294,383.342 890.121,383.515L883.661,389.195L890.481,395.155Z" style="fill:white;fill-rule:nonzero;"/>
                    <path d="M903.441,382.195C903.681,382.195 903.868,382.272 904.001,382.425C904.134,382.578 904.201,382.782 904.201,383.035L904.201,395.655C904.201,395.908 904.131,396.112 903.991,396.265C903.851,396.418 903.654,396.495 903.401,396.495C903.148,396.495 902.928,396.382 902.741,396.155L894.441,385.055L894.441,395.655C894.441,395.908 894.371,396.112 894.231,396.265C894.091,396.418 893.901,396.495 893.661,396.495C893.421,396.495 893.234,396.418 893.101,396.265C892.968,396.112 892.901,395.908 892.901,395.655L892.901,383.035C892.901,382.782 892.971,382.578 893.111,382.425C893.251,382.272 893.448,382.195 893.701,382.195C893.968,382.195 894.194,382.308 894.381,382.535L902.661,393.635L902.661,383.035C902.661,382.782 902.731,382.578 902.871,382.425C903.011,382.272 903.201,382.195 903.441,382.195Z" style="fill:white;fill-rule:nonzero;"/>
                    <path d="M913.581,396.555C912.274,396.555 911.138,396.262 910.171,395.675C909.204,395.088 908.461,394.255 907.941,393.175C907.421,392.095 907.161,390.822 907.161,389.355C907.161,387.875 907.418,386.592 907.931,385.505C908.444,384.418 909.184,383.585 910.151,383.005C911.118,382.425 912.261,382.135 913.581,382.135C914.901,382.135 916.044,382.425 917.011,383.005C917.978,383.585 918.718,384.418 919.231,385.505C919.744,386.592 920.001,387.868 920.001,389.335C920.001,390.802 919.741,392.078 919.221,393.165C918.701,394.252 917.958,395.088 916.991,395.675C916.024,396.262 914.888,396.555 913.581,396.555ZM913.581,395.155C915.074,395.155 916.238,394.652 917.071,393.645C917.904,392.638 918.321,391.202 918.321,389.335C918.321,387.468 917.908,386.035 917.081,385.035C916.254,384.035 915.088,383.535 913.581,383.535C912.088,383.535 910.924,384.038 910.091,385.045C909.258,386.052 908.841,387.482 908.841,389.335C908.841,391.188 909.258,392.622 910.091,393.635C910.924,394.648 912.088,395.155 913.581,395.155Z" style="fill:white;fill-rule:nonzero;"/>
                    <path d="M940.661,382.695C940.714,382.522 940.808,382.392 940.941,382.305C941.074,382.218 941.221,382.175 941.381,382.175C941.594,382.175 941.778,382.238 941.931,382.365C942.084,382.492 942.161,382.662 942.161,382.875C942.161,382.968 942.141,383.075 942.101,383.195L937.581,395.935C937.514,396.122 937.401,396.265 937.241,396.365C937.081,396.465 936.901,396.515 936.701,396.515C936.514,396.515 936.341,396.465 936.181,396.365C936.021,396.265 935.908,396.122 935.841,395.935L931.921,384.855L927.961,395.935C927.894,396.122 927.781,396.265 927.621,396.365C927.461,396.465 927.288,396.515 927.101,396.515C926.914,396.515 926.741,396.465 926.581,396.365C926.421,396.265 926.308,396.122 926.241,395.935L921.701,383.195C921.661,383.088 921.641,382.988 921.641,382.895C921.641,382.682 921.724,382.508 921.891,382.375C922.058,382.242 922.248,382.175 922.461,382.175C922.621,382.175 922.771,382.218 922.911,382.305C923.051,382.392 923.148,382.522 923.201,382.695L927.141,394.055L931.141,382.815C931.208,382.615 931.314,382.465 931.461,382.365C931.608,382.265 931.768,382.215 931.941,382.215C932.114,382.215 932.274,382.268 932.421,382.375C932.568,382.482 932.674,382.635 932.741,382.835L936.681,394.095L940.661,382.695Z" style="fill:white;fill-rule:nonzero;"/>
                    <path d="M955.201,382.195C955.441,382.195 955.628,382.272 955.761,382.425C955.894,382.578 955.961,382.782 955.961,383.035L955.961,395.655C955.961,395.908 955.891,396.112 955.751,396.265C955.611,396.418 955.414,396.495 955.161,396.495C954.908,396.495 954.688,396.382 954.501,396.155L946.201,385.055L946.201,395.655C946.201,395.908 946.131,396.112 945.991,396.265C945.851,396.418 945.661,396.495 945.421,396.495C945.181,396.495 944.994,396.418 944.861,396.265C944.728,396.112 944.661,395.908 944.661,395.655L944.661,383.035C944.661,382.782 944.731,382.578 944.871,382.425C945.011,382.272 945.208,382.195 945.461,382.195C945.728,382.195 945.954,382.308 946.141,382.535L954.421,393.635L954.421,383.035C954.421,382.782 954.491,382.578 954.631,382.425C954.771,382.272 954.961,382.195 955.201,382.195Z" style="fill:white;fill-rule:nonzero;"/>
                </g>
            </g>
        </g>
    </g>
</svg>
