<?xml version="1.0" encoding="UTF-8" standalone="no"?>
<!DOCTYPE svg PUBLIC "-//W3C//DTD SVG 1.1//EN" "http://www.w3.org/Graphics/SVG/1.1/DTD/svg11.dtd">
<svg width="100%" height="100%" viewBox="0 0 9292 429" version="1.1" xmlns="http://www.w3.org/2000/svg" xmlns:xlink="http://www.w3.org/1999/xlink" xml:space="preserve" xmlns:serif="http://www.serif.com/" style="fill-rule:evenodd;clip-rule:evenodd;stroke-linejoin:round;stroke-miterlimit:1.41421;">
    <g transform="matrix(1,0,0,1,-637,-6210)">
        <g id="X-Axis" transform="matrix(1,0,0,1,633,6182)">
            <g transform="matrix(1,0,0,1,6064.37,140)">
                <g id="_-20" serif:id="$20">
                    <path d="M42.961,-7.313C50.977,-7.688 56.508,-10.617 59.555,-16.102C61.148,-18.914 61.945,-22.172 61.945,-25.875C61.945,-31.734 59.789,-36.188 55.477,-39.234C52.992,-41.016 48.82,-42.703 42.961,-44.297L42.961,-7.313ZM19.125,-75.164C19.125,-70.523 20.66,-66.891 23.73,-64.266C26.801,-61.641 30.938,-59.813 36.141,-58.781L36.141,-91.828C30,-91.594 25.629,-89.719 23.027,-86.203C20.426,-82.688 19.125,-79.008 19.125,-75.164ZM6.469,-74.32C6.469,-81.445 9.082,-87.867 14.309,-93.586C19.535,-99.305 26.859,-102.211 36.281,-102.305L36.281,-111.656L42.961,-111.656L42.961,-102.445C52.289,-101.789 59.449,-99.035 64.441,-94.184C69.434,-89.332 72.047,-82.922 72.281,-74.953L59.977,-74.953C59.648,-78.516 58.688,-81.586 57.094,-84.164C54.141,-88.898 49.43,-91.383 42.961,-91.617L42.961,-57.445C53.836,-54.398 61.219,-51.539 65.109,-48.867C71.438,-44.461 74.602,-37.945 74.602,-29.32C74.602,-16.852 70.547,-7.992 62.438,-2.742C57.938,0.164 51.445,2.086 42.961,3.023L42.961,16.664L36.281,16.664L36.281,3.023C22.641,2.133 13.383,-2.695 8.508,-11.461C5.836,-16.195 4.5,-22.594 4.5,-30.656L16.945,-30.656C17.32,-24.234 18.328,-19.547 19.969,-16.594C22.875,-11.297 28.266,-8.32 36.141,-7.664L36.141,-45.984C26.016,-47.906 18.539,-51.117 13.711,-55.617C8.883,-60.117 6.469,-66.352 6.469,-74.32Z" style="fill:rgb(163,163,163);fill-rule:nonzero;"/>
                    <path d="M84.586,0C85.055,-8.672 86.848,-16.219 89.965,-22.641C93.082,-29.063 99.164,-34.898 108.211,-40.148L121.711,-47.953C127.758,-51.469 132,-54.469 134.438,-56.953C138.281,-60.844 140.203,-65.297 140.203,-70.313C140.203,-76.172 138.445,-80.824 134.93,-84.27C131.414,-87.715 126.727,-89.438 120.867,-89.438C112.195,-89.438 106.195,-86.156 102.867,-79.594C101.086,-76.078 100.102,-71.203 99.914,-64.969L87.047,-64.969C87.188,-73.734 88.805,-80.883 91.898,-86.414C97.383,-96.164 107.063,-101.039 120.938,-101.039C132.469,-101.039 140.895,-97.922 146.215,-91.688C151.535,-85.453 154.195,-78.516 154.195,-70.875C154.195,-62.813 151.359,-55.922 145.688,-50.203C142.406,-46.875 136.523,-42.844 128.039,-38.109L118.406,-32.766C113.813,-30.234 110.203,-27.82 107.578,-25.523C102.891,-21.445 99.938,-16.922 98.719,-11.953L153.703,-11.953L153.703,0L84.586,0Z" style="fill:rgb(163,163,163);fill-rule:nonzero;"/>
                    <path d="M199.125,-100.688C212.156,-100.688 221.578,-95.32 227.391,-84.586C231.891,-76.289 234.141,-64.922 234.141,-50.484C234.141,-36.797 232.102,-25.477 228.023,-16.523C222.117,-3.68 212.461,2.742 199.055,2.742C186.961,2.742 177.961,-2.508 172.055,-13.008C167.133,-21.773 164.672,-33.539 164.672,-48.305C164.672,-59.742 166.148,-69.563 169.102,-77.766C174.633,-93.047 184.641,-100.688 199.125,-100.688ZM198.984,-8.789C205.547,-8.789 210.773,-11.695 214.664,-17.508C218.555,-23.32 220.5,-34.148 220.5,-49.992C220.5,-61.43 219.094,-70.84 216.281,-78.223C213.469,-85.605 208.008,-89.297 199.898,-89.297C192.445,-89.297 186.996,-85.793 183.551,-78.785C180.105,-71.777 178.383,-61.453 178.383,-47.813C178.383,-37.547 179.484,-29.297 181.688,-23.063C185.063,-13.547 190.828,-8.789 198.984,-8.789Z" style="fill:rgb(163,163,163);fill-rule:nonzero;"/>
                </g>
            </g>
            <g transform="matrix(1,0,0,1,4549.37,140)">
                <g id="_-30" serif:id="$30">
                    <path d="M42.961,-7.313C50.977,-7.688 56.508,-10.617 59.555,-16.102C61.148,-18.914 61.945,-22.172 61.945,-25.875C61.945,-31.734 59.789,-36.188 55.477,-39.234C52.992,-41.016 48.82,-42.703 42.961,-44.297L42.961,-7.313ZM19.125,-75.164C19.125,-70.523 20.66,-66.891 23.73,-64.266C26.801,-61.641 30.938,-59.813 36.141,-58.781L36.141,-91.828C30,-91.594 25.629,-89.719 23.027,-86.203C20.426,-82.688 19.125,-79.008 19.125,-75.164ZM6.469,-74.32C6.469,-81.445 9.082,-87.867 14.309,-93.586C19.535,-99.305 26.859,-102.211 36.281,-102.305L36.281,-111.656L42.961,-111.656L42.961,-102.445C52.289,-101.789 59.449,-99.035 64.441,-94.184C69.434,-89.332 72.047,-82.922 72.281,-74.953L59.977,-74.953C59.648,-78.516 58.688,-81.586 57.094,-84.164C54.141,-88.898 49.43,-91.383 42.961,-91.617L42.961,-57.445C53.836,-54.398 61.219,-51.539 65.109,-48.867C71.438,-44.461 74.602,-37.945 74.602,-29.32C74.602,-16.852 70.547,-7.992 62.438,-2.742C57.938,0.164 51.445,2.086 42.961,3.023L42.961,16.664L36.281,16.664L36.281,3.023C22.641,2.133 13.383,-2.695 8.508,-11.461C5.836,-16.195 4.5,-22.594 4.5,-30.656L16.945,-30.656C17.32,-24.234 18.328,-19.547 19.969,-16.594C22.875,-11.297 28.266,-8.32 36.141,-7.664L36.141,-45.984C26.016,-47.906 18.539,-51.117 13.711,-55.617C8.883,-60.117 6.469,-66.352 6.469,-74.32Z" style="fill:rgb(163,163,163);fill-rule:nonzero;"/>
                    <path d="M117.492,2.742C105.586,2.742 96.949,-0.527 91.582,-7.066C86.215,-13.605 83.531,-21.563 83.531,-30.938L96.75,-30.938C97.313,-24.422 98.531,-19.688 100.406,-16.734C103.688,-11.438 109.617,-8.789 118.195,-8.789C124.852,-8.789 130.195,-10.57 134.227,-14.133C138.258,-17.695 140.273,-22.289 140.273,-27.914C140.273,-34.852 138.152,-39.703 133.91,-42.469C129.668,-45.234 123.773,-46.617 116.227,-46.617C115.383,-46.617 114.527,-46.605 113.66,-46.582C112.793,-46.559 111.914,-46.523 111.023,-46.477L111.023,-57.656C112.336,-57.516 113.438,-57.422 114.328,-57.375C115.219,-57.328 116.18,-57.305 117.211,-57.305C121.945,-57.305 125.836,-58.055 128.883,-59.555C134.227,-62.18 136.898,-66.867 136.898,-73.617C136.898,-78.633 135.117,-82.5 131.555,-85.219C127.992,-87.938 123.844,-89.297 119.109,-89.297C110.672,-89.297 104.836,-86.484 101.602,-80.859C99.82,-77.766 98.813,-73.359 98.578,-67.641L86.063,-67.641C86.063,-75.141 87.563,-81.516 90.563,-86.766C95.719,-96.141 104.789,-100.828 117.773,-100.828C128.039,-100.828 135.984,-98.543 141.609,-93.973C147.234,-89.402 150.047,-82.781 150.047,-74.109C150.047,-67.922 148.383,-62.906 145.055,-59.063C142.992,-56.672 140.32,-54.797 137.039,-53.438C142.336,-51.984 146.473,-49.184 149.449,-45.035C152.426,-40.887 153.914,-35.813 153.914,-29.813C153.914,-20.203 150.75,-12.375 144.422,-6.328C138.094,-0.281 129.117,2.742 117.492,2.742Z" style="fill:rgb(163,163,163);fill-rule:nonzero;"/>
                    <path d="M199.125,-100.688C212.156,-100.688 221.578,-95.32 227.391,-84.586C231.891,-76.289 234.141,-64.922 234.141,-50.484C234.141,-36.797 232.102,-25.477 228.023,-16.523C222.117,-3.68 212.461,2.742 199.055,2.742C186.961,2.742 177.961,-2.508 172.055,-13.008C167.133,-21.773 164.672,-33.539 164.672,-48.305C164.672,-59.742 166.148,-69.563 169.102,-77.766C174.633,-93.047 184.641,-100.688 199.125,-100.688ZM198.984,-8.789C205.547,-8.789 210.773,-11.695 214.664,-17.508C218.555,-23.32 220.5,-34.148 220.5,-49.992C220.5,-61.43 219.094,-70.84 216.281,-78.223C213.469,-85.605 208.008,-89.297 199.898,-89.297C192.445,-89.297 186.996,-85.793 183.551,-78.785C180.105,-71.777 178.383,-61.453 178.383,-47.813C178.383,-37.547 179.484,-29.297 181.688,-23.063C185.063,-13.547 190.828,-8.789 198.984,-8.789Z" style="fill:rgb(163,163,163);fill-rule:nonzero;"/>
                </g>
            </g>
            <g transform="matrix(1,0,0,1,3558.48,415)">
                <g id="TCO-per-Protected-Mb">
                    <path d="M119.629,-143.457L119.629,-126.367L71.289,-126.367L71.289,0L51.563,0L51.563,-126.367L3.223,-126.367L3.223,-143.457L119.629,-143.457Z" style="fill:rgb(163,163,163);fill-rule:nonzero;"/>
                    <path d="M197.852,-147.363C216.016,-147.363 230.111,-142.578 240.137,-133.008C250.163,-123.438 255.729,-112.565 256.836,-100.391L237.891,-100.391C235.742,-109.635 231.462,-116.96 225.049,-122.363C218.636,-127.767 209.635,-130.469 198.047,-130.469C183.919,-130.469 172.51,-125.505 163.818,-115.576C155.127,-105.648 150.781,-90.43 150.781,-69.922C150.781,-53.125 154.704,-39.502 162.549,-29.053C170.394,-18.604 182.096,-13.379 197.656,-13.379C211.979,-13.379 222.884,-18.88 230.371,-29.883C234.342,-35.677 237.305,-43.294 239.258,-52.734L258.203,-52.734C256.51,-37.63 250.911,-24.967 241.406,-14.746C230.013,-2.441 214.648,3.711 195.313,3.711C178.646,3.711 164.648,-1.335 153.32,-11.426C138.411,-24.772 130.957,-45.378 130.957,-73.242C130.957,-94.401 136.556,-111.751 147.754,-125.293C159.863,-140.007 176.563,-147.363 197.852,-147.363Z" style="fill:rgb(163,163,163);fill-rule:nonzero;"/>
                    <path d="M343.75,-147.363C369.076,-147.363 387.826,-139.225 400,-122.949C409.505,-110.254 414.258,-94.01 414.258,-74.219C414.258,-52.799 408.822,-34.993 397.949,-20.801C385.189,-4.134 366.992,4.199 343.359,4.199C321.289,4.199 303.939,-3.092 291.309,-17.676C280.046,-31.738 274.414,-49.512 274.414,-70.996C274.414,-90.397 279.232,-106.999 288.867,-120.801C301.237,-138.509 319.531,-147.363 343.75,-147.363ZM345.703,-13.184C362.826,-13.184 375.212,-19.32 382.861,-31.592C390.511,-43.864 394.336,-57.975 394.336,-73.926C394.336,-90.788 389.925,-104.362 381.104,-114.648C372.282,-124.935 360.221,-130.078 344.922,-130.078C330.078,-130.078 317.969,-124.984 308.594,-114.795C299.219,-104.606 294.531,-89.583 294.531,-69.727C294.531,-53.841 298.551,-40.446 306.592,-29.541C314.632,-18.636 327.669,-13.184 345.703,-13.184Z" style="fill:rgb(163,163,163);fill-rule:nonzero;"/>
                    <path d="M534.766,-11.816C542.969,-11.816 549.788,-15.251 555.225,-22.119C560.661,-28.988 563.379,-39.258 563.379,-52.93C563.379,-61.263 562.174,-68.424 559.766,-74.414C555.208,-85.938 546.875,-91.699 534.766,-91.699C522.591,-91.699 514.258,-85.612 509.766,-73.438C507.357,-66.927 506.152,-58.659 506.152,-48.633C506.152,-40.56 507.357,-33.691 509.766,-28.027C514.323,-17.22 522.656,-11.816 534.766,-11.816ZM489.258,-104.102L506.348,-104.102L506.348,-90.234C509.863,-94.987 513.704,-98.665 517.871,-101.27C523.796,-105.176 530.762,-107.129 538.77,-107.129C550.618,-107.129 560.677,-102.588 568.945,-93.506C577.214,-84.424 581.348,-71.452 581.348,-54.59C581.348,-31.803 575.391,-15.527 563.477,-5.762C555.924,0.423 547.135,3.516 537.109,3.516C529.232,3.516 522.624,1.79 517.285,-1.66C514.16,-3.613 510.677,-6.966 506.836,-11.719L506.836,41.699L489.258,41.699L489.258,-104.102Z" style="fill:rgb(163,163,163);fill-rule:nonzero;"/>
                    <path d="M645.41,-106.934C652.832,-106.934 660.026,-105.192 666.992,-101.709C673.958,-98.226 679.264,-93.717 682.91,-88.184C686.426,-82.91 688.77,-76.758 689.941,-69.727C690.983,-64.909 691.504,-57.227 691.504,-46.68L614.844,-46.68C615.169,-36.068 617.676,-27.555 622.363,-21.143C627.051,-14.73 634.31,-11.523 644.141,-11.523C653.32,-11.523 660.645,-14.551 666.113,-20.605C669.238,-24.121 671.452,-28.19 672.754,-32.813L690.039,-32.813C689.583,-28.971 688.07,-24.691 685.498,-19.971C682.926,-15.251 680.046,-11.393 676.855,-8.398C671.517,-3.19 664.909,0.326 657.031,2.148C652.799,3.19 648.014,3.711 642.676,3.711C629.655,3.711 618.62,-1.025 609.57,-10.498C600.521,-19.971 595.996,-33.236 595.996,-50.293C595.996,-67.09 600.553,-80.729 609.668,-91.211C618.783,-101.693 630.697,-106.934 645.41,-106.934ZM673.438,-60.645C672.721,-68.262 671.061,-74.349 668.457,-78.906C663.639,-87.37 655.599,-91.602 644.336,-91.602C636.263,-91.602 629.492,-88.688 624.023,-82.861C618.555,-77.035 615.658,-69.629 615.332,-60.645L673.438,-60.645Z" style="fill:rgb(163,163,163);fill-rule:nonzero;"/>
                    <path d="M713.574,-104.59L730.273,-104.59L730.273,-86.523C731.641,-90.039 734.993,-94.32 740.332,-99.365C745.671,-104.411 751.823,-106.934 758.789,-106.934C759.115,-106.934 759.668,-106.901 760.449,-106.836C761.23,-106.771 762.565,-106.641 764.453,-106.445L764.453,-87.891C763.411,-88.086 762.451,-88.216 761.572,-88.281C760.693,-88.346 759.733,-88.379 758.691,-88.379C749.837,-88.379 743.034,-85.531 738.281,-79.834C733.529,-74.137 731.152,-67.578 731.152,-60.156L731.152,0L713.574,0L713.574,-104.59Z" style="fill:rgb(163,163,163);fill-rule:nonzero;"/>
                    <path d="M839.453,-143.457L904.004,-143.457C916.764,-143.457 927.051,-139.86 934.863,-132.666C942.676,-125.472 946.582,-115.365 946.582,-102.344C946.582,-91.146 943.099,-81.396 936.133,-73.096C929.167,-64.795 918.457,-60.645 904.004,-60.645L858.887,-60.645L858.887,0L839.453,0L839.453,-143.457ZM926.953,-102.246C926.953,-112.793 923.047,-119.954 915.234,-123.73C910.938,-125.749 905.046,-126.758 897.559,-126.758L858.887,-126.758L858.887,-77.051L897.559,-77.051C906.283,-77.051 913.363,-78.906 918.799,-82.617C924.235,-86.328 926.953,-92.871 926.953,-102.246Z" style="fill:rgb(163,163,163);fill-rule:nonzero;"/>
                    <path d="M969.141,-104.59L985.84,-104.59L985.84,-86.523C987.207,-90.039 990.56,-94.32 995.898,-99.365C1001.24,-104.411 1007.39,-106.934 1014.36,-106.934C1014.68,-106.934 1015.23,-106.901 1016.02,-106.836C1016.8,-106.771 1018.13,-106.641 1020.02,-106.445L1020.02,-87.891C1018.98,-88.086 1018.02,-88.216 1017.14,-88.281C1016.26,-88.346 1015.3,-88.379 1014.26,-88.379C1005.4,-88.379 998.6,-85.531 993.848,-79.834C989.095,-74.137 986.719,-67.578 986.719,-60.156L986.719,0L969.141,0L969.141,-104.59Z" style="fill:rgb(163,163,163);fill-rule:nonzero;"/>
                    <path d="M1076.76,-11.328C1088.41,-11.328 1096.4,-15.739 1100.73,-24.561C1105.06,-33.382 1107.23,-43.197 1107.23,-54.004C1107.23,-63.77 1105.66,-71.712 1102.54,-77.832C1097.59,-87.467 1089.06,-92.285 1076.95,-92.285C1066.21,-92.285 1058.4,-88.184 1053.52,-79.98C1048.63,-71.777 1046.19,-61.882 1046.19,-50.293C1046.19,-39.16 1048.63,-29.883 1053.52,-22.461C1058.4,-15.039 1066.15,-11.328 1076.76,-11.328ZM1077.44,-107.617C1090.92,-107.617 1102.31,-103.125 1111.62,-94.141C1120.93,-85.156 1125.59,-71.94 1125.59,-54.492C1125.59,-37.63 1121.48,-23.698 1113.28,-12.695C1105.08,-1.693 1092.35,3.809 1075.1,3.809C1060.71,3.809 1049.28,-1.058 1040.82,-10.791C1032.36,-20.524 1028.12,-33.594 1028.12,-50C1028.12,-67.578 1032.59,-81.576 1041.5,-91.992C1050.42,-102.409 1062.4,-107.617 1077.44,-107.617Z" style="fill:rgb(163,163,163);fill-rule:nonzero;"/>
                    <path d="M1150,-133.789L1167.77,-133.789L1167.77,-104.59L1184.47,-104.59L1184.47,-90.234L1167.77,-90.234L1167.77,-21.973C1167.77,-18.327 1169.01,-15.885 1171.48,-14.648C1172.85,-13.932 1175.13,-13.574 1178.32,-13.574C1179.17,-13.574 1180.08,-13.59 1181.06,-13.623C1182.03,-13.656 1183.17,-13.737 1184.47,-13.867L1184.47,0C1182.45,0.586 1180.36,1.009 1178.17,1.27C1175.99,1.53 1173.63,1.66 1171.09,1.66C1162.89,1.66 1157.32,-0.439 1154.39,-4.639C1151.46,-8.838 1150,-14.29 1150,-20.996L1150,-90.234L1135.84,-90.234L1135.84,-104.59L1150,-104.59L1150,-133.789Z" style="fill:rgb(163,163,163);fill-rule:nonzero;"/>
                    <path d="M1245.61,-106.934C1253.03,-106.934 1260.22,-105.192 1267.19,-101.709C1274.15,-98.226 1279.46,-93.717 1283.11,-88.184C1286.62,-82.91 1288.96,-76.758 1290.14,-69.727C1291.18,-64.909 1291.7,-57.227 1291.7,-46.68L1215.04,-46.68C1215.37,-36.068 1217.87,-27.555 1222.56,-21.143C1227.25,-14.73 1234.51,-11.523 1244.34,-11.523C1253.52,-11.523 1260.84,-14.551 1266.31,-20.605C1269.43,-24.121 1271.65,-28.19 1272.95,-32.813L1290.23,-32.813C1289.78,-28.971 1288.27,-24.691 1285.69,-19.971C1283.12,-15.251 1280.24,-11.393 1277.05,-8.398C1271.71,-3.19 1265.1,0.326 1257.23,2.148C1253,3.19 1248.21,3.711 1242.87,3.711C1229.85,3.711 1218.82,-1.025 1209.77,-10.498C1200.72,-19.971 1196.19,-33.236 1196.19,-50.293C1196.19,-67.09 1200.75,-80.729 1209.86,-91.211C1218.98,-101.693 1230.89,-106.934 1245.61,-106.934ZM1273.63,-60.645C1272.92,-68.262 1271.26,-74.349 1268.65,-78.906C1263.84,-87.37 1255.79,-91.602 1244.53,-91.602C1236.46,-91.602 1229.69,-88.688 1224.22,-82.861C1218.75,-77.035 1215.85,-69.629 1215.53,-60.645L1273.63,-60.645Z" style="fill:rgb(163,163,163);fill-rule:nonzero;"/>
                    <path d="M1353.61,-107.617C1365.4,-107.617 1374.98,-104.753 1382.37,-99.023C1389.76,-93.294 1394.21,-83.431 1395.7,-69.434L1378.61,-69.434C1377.57,-75.879 1375.19,-81.234 1371.48,-85.498C1367.77,-89.762 1361.82,-91.895 1353.61,-91.895C1342.41,-91.895 1334.41,-86.426 1329.59,-75.488C1326.46,-68.392 1324.9,-59.635 1324.9,-49.219C1324.9,-38.737 1327.12,-29.915 1331.54,-22.754C1335.97,-15.592 1342.94,-12.012 1352.44,-12.012C1359.73,-12.012 1365.51,-14.242 1369.78,-18.701C1374.04,-23.161 1376.99,-29.264 1378.61,-37.012L1395.7,-37.012C1393.75,-23.145 1388.87,-13.005 1381.06,-6.592C1373.24,-0.179 1363.25,3.027 1351.07,3.027C1337.4,3.027 1326.5,-1.969 1318.36,-11.963C1310.22,-21.956 1306.15,-34.44 1306.15,-49.414C1306.15,-67.773 1310.61,-82.064 1319.53,-92.285C1328.45,-102.507 1339.81,-107.617 1353.61,-107.617Z" style="fill:rgb(163,163,163);fill-rule:nonzero;"/>
                    <path d="M1416.8,-133.789L1434.57,-133.789L1434.57,-104.59L1451.27,-104.59L1451.27,-90.234L1434.57,-90.234L1434.57,-21.973C1434.57,-18.327 1435.81,-15.885 1438.28,-14.648C1439.65,-13.932 1441.93,-13.574 1445.12,-13.574C1445.96,-13.574 1446.88,-13.59 1447.85,-13.623C1448.83,-13.656 1449.97,-13.737 1451.27,-13.867L1451.27,0C1449.25,0.586 1447.15,1.009 1444.97,1.27C1442.79,1.53 1440.43,1.66 1437.89,1.66C1429.69,1.66 1424.12,-0.439 1421.19,-4.639C1418.26,-8.838 1416.8,-14.29 1416.8,-20.996L1416.8,-90.234L1402.64,-90.234L1402.64,-104.59L1416.8,-104.59L1416.8,-133.789Z" style="fill:rgb(163,163,163);fill-rule:nonzero;"/>
                    <path d="M1512.4,-106.934C1519.82,-106.934 1527.02,-105.192 1533.98,-101.709C1540.95,-98.226 1546.26,-93.717 1549.9,-88.184C1553.42,-82.91 1555.76,-76.758 1556.93,-69.727C1557.98,-64.909 1558.5,-57.227 1558.5,-46.68L1481.84,-46.68C1482.16,-36.068 1484.67,-27.555 1489.36,-21.143C1494.04,-14.73 1501.3,-11.523 1511.13,-11.523C1520.31,-11.523 1527.64,-14.551 1533.11,-20.605C1536.23,-24.121 1538.44,-28.19 1539.75,-32.813L1557.03,-32.813C1556.58,-28.971 1555.06,-24.691 1552.49,-19.971C1549.92,-15.251 1547.04,-11.393 1543.85,-8.398C1538.51,-3.19 1531.9,0.326 1524.02,2.148C1519.79,3.19 1515.01,3.711 1509.67,3.711C1496.65,3.711 1485.61,-1.025 1476.56,-10.498C1467.51,-19.971 1462.99,-33.236 1462.99,-50.293C1462.99,-67.09 1467.55,-80.729 1476.66,-91.211C1485.78,-101.693 1497.69,-106.934 1512.4,-106.934ZM1540.43,-60.645C1539.71,-68.262 1538.05,-74.349 1535.45,-78.906C1530.63,-87.37 1522.59,-91.602 1511.33,-91.602C1503.26,-91.602 1496.48,-88.688 1491.02,-82.861C1485.55,-77.035 1482.65,-69.629 1482.32,-60.645L1540.43,-60.645Z" style="fill:rgb(163,163,163);fill-rule:nonzero;"/>
                    <path d="M1591.21,-51.074C1591.21,-39.876 1593.59,-30.501 1598.34,-22.949C1603.09,-15.397 1610.71,-11.621 1621.19,-11.621C1629.33,-11.621 1636.02,-15.12 1641.26,-22.119C1646.5,-29.118 1649.12,-39.16 1649.12,-52.246C1649.12,-65.462 1646.42,-75.244 1641.02,-81.592C1635.61,-87.939 1628.94,-91.113 1621,-91.113C1612.14,-91.113 1604.96,-87.728 1599.46,-80.957C1593.96,-74.186 1591.21,-64.225 1591.21,-51.074ZM1617.68,-106.445C1625.68,-106.445 1632.39,-104.753 1637.79,-101.367C1640.92,-99.414 1644.47,-95.996 1648.44,-91.113L1648.44,-143.945L1665.33,-143.945L1665.33,0L1649.51,0L1649.51,-14.551C1645.41,-8.105 1640.56,-3.451 1634.96,-0.586C1629.36,2.279 1622.95,3.711 1615.72,3.711C1604.07,3.711 1593.98,-1.188 1585.45,-10.986C1576.92,-20.785 1572.66,-33.822 1572.66,-50.098C1572.66,-65.332 1576.55,-78.532 1584.33,-89.697C1592.11,-100.863 1603.22,-106.445 1617.68,-106.445Z" style="fill:rgb(163,163,163);fill-rule:nonzero;"/>
                    <path d="M1748.73,-143.457L1776.56,-143.457L1817.77,-22.168L1858.69,-143.457L1886.23,-143.457L1886.23,0L1867.77,0L1867.77,-84.668C1867.77,-87.598 1867.84,-92.448 1867.97,-99.219C1868.1,-105.99 1868.16,-113.249 1868.16,-120.996L1827.25,0L1808.01,0L1766.8,-120.996L1766.8,-116.602C1766.8,-113.086 1766.88,-107.731 1767.04,-100.537C1767.2,-93.343 1767.29,-88.053 1767.29,-84.668L1767.29,0L1748.73,0L1748.73,-143.457Z" style="fill:rgb(163,163,163);fill-rule:nonzero;"/>
                    <path d="M1912.11,-143.945L1929.2,-143.945L1929.2,-91.895C1933.04,-96.908 1937.63,-100.732 1942.97,-103.369C1948.31,-106.006 1954.1,-107.324 1960.35,-107.324C1973.37,-107.324 1983.94,-102.848 1992.04,-93.896C2000.15,-84.945 2004.2,-71.745 2004.2,-54.297C2004.2,-37.76 2000.19,-24.023 1992.19,-13.086C1984.18,-2.148 1973.08,3.32 1958.89,3.32C1950.94,3.32 1944.24,1.4 1938.77,-2.441C1935.51,-4.72 1932.03,-8.366 1928.32,-13.379L1928.32,0L1912.11,0L1912.11,-143.945ZM1957.81,-12.207C1967.32,-12.207 1974.43,-15.983 1979.15,-23.535C1983.87,-31.087 1986.23,-41.048 1986.23,-53.418C1986.23,-64.421 1983.87,-73.535 1979.15,-80.762C1974.43,-87.988 1967.48,-91.602 1958.3,-91.602C1950.29,-91.602 1943.28,-88.639 1937.26,-82.715C1931.23,-76.79 1928.22,-67.025 1928.22,-53.418C1928.22,-43.587 1929.46,-35.612 1931.93,-29.492C1936.56,-17.969 1945.18,-12.207 1957.81,-12.207Z" style="fill:rgb(163,163,163);fill-rule:nonzero;"/>
                    <path d="M2068.85,-11.816C2077.05,-11.816 2083.87,-15.251 2089.31,-22.119C2094.74,-28.988 2097.46,-39.258 2097.46,-52.93C2097.46,-61.263 2096.26,-68.424 2093.85,-74.414C2089.29,-85.938 2080.96,-91.699 2068.85,-91.699C2056.67,-91.699 2048.34,-85.612 2043.85,-73.438C2041.44,-66.927 2040.23,-58.659 2040.23,-48.633C2040.23,-40.56 2041.44,-33.691 2043.85,-28.027C2048.41,-17.22 2056.74,-11.816 2068.85,-11.816ZM2023.34,-104.102L2040.43,-104.102L2040.43,-90.234C2043.94,-94.987 2047.79,-98.665 2051.95,-101.27C2057.88,-105.176 2064.84,-107.129 2072.85,-107.129C2084.7,-107.129 2094.76,-102.588 2103.03,-93.506C2111.3,-84.424 2115.43,-71.452 2115.43,-54.59C2115.43,-31.803 2109.47,-15.527 2097.56,-5.762C2090.01,0.423 2081.22,3.516 2071.19,3.516C2063.31,3.516 2056.71,1.79 2051.37,-1.66C2048.24,-3.613 2044.76,-6.966 2040.92,-11.719L2040.92,41.699L2023.34,41.699L2023.34,-104.102Z" style="fill:rgb(163,163,163);fill-rule:nonzero;"/>
                    <path d="M2146.39,-32.813C2146.91,-26.953 2148.37,-22.461 2150.78,-19.336C2155.21,-13.672 2162.89,-10.84 2173.83,-10.84C2180.34,-10.84 2186.07,-12.256 2191.02,-15.088C2195.96,-17.92 2198.44,-22.298 2198.44,-28.223C2198.44,-32.715 2196.45,-36.133 2192.48,-38.477C2189.94,-39.909 2184.93,-41.569 2177.44,-43.457L2163.48,-46.973C2154.56,-49.186 2147.98,-51.66 2143.75,-54.395C2136.2,-59.147 2132.42,-65.723 2132.42,-74.121C2132.42,-84.017 2135.99,-92.025 2143.12,-98.145C2150.24,-104.264 2159.83,-107.324 2171.88,-107.324C2187.63,-107.324 2198.99,-102.702 2205.96,-93.457C2210.32,-87.598 2212.43,-81.283 2212.3,-74.512L2195.7,-74.512C2195.38,-78.483 2193.98,-82.096 2191.5,-85.352C2187.47,-89.974 2180.47,-92.285 2170.51,-92.285C2163.87,-92.285 2158.84,-91.016 2155.42,-88.477C2152,-85.938 2150.29,-82.585 2150.29,-78.418C2150.29,-73.861 2152.54,-70.215 2157.03,-67.48C2159.64,-65.853 2163.48,-64.421 2168.55,-63.184L2180.18,-60.352C2192.81,-57.292 2201.27,-54.329 2205.57,-51.465C2212.4,-46.973 2215.82,-39.909 2215.82,-30.273C2215.82,-20.964 2212.29,-12.923 2205.22,-6.152C2198.16,0.618 2187.4,4.004 2172.95,4.004C2157.39,4.004 2146.37,0.472 2139.89,-6.592C2133.41,-13.656 2129.95,-22.396 2129.49,-32.813L2146.39,-32.813Z" style="fill:rgb(163,163,163);fill-rule:nonzero;"/>
                </g>
            </g>
            <g transform="matrix(1,0,0,1,3051.37,140)">
                <g id="_-40" serif:id="$40">
                    <path d="M42.961,-7.313C50.977,-7.688 56.508,-10.617 59.555,-16.102C61.148,-18.914 61.945,-22.172 61.945,-25.875C61.945,-31.734 59.789,-36.188 55.477,-39.234C52.992,-41.016 48.82,-42.703 42.961,-44.297L42.961,-7.313ZM19.125,-75.164C19.125,-70.523 20.66,-66.891 23.73,-64.266C26.801,-61.641 30.938,-59.813 36.141,-58.781L36.141,-91.828C30,-91.594 25.629,-89.719 23.027,-86.203C20.426,-82.688 19.125,-79.008 19.125,-75.164ZM6.469,-74.32C6.469,-81.445 9.082,-87.867 14.309,-93.586C19.535,-99.305 26.859,-102.211 36.281,-102.305L36.281,-111.656L42.961,-111.656L42.961,-102.445C52.289,-101.789 59.449,-99.035 64.441,-94.184C69.434,-89.332 72.047,-82.922 72.281,-74.953L59.977,-74.953C59.648,-78.516 58.688,-81.586 57.094,-84.164C54.141,-88.898 49.43,-91.383 42.961,-91.617L42.961,-57.445C53.836,-54.398 61.219,-51.539 65.109,-48.867C71.438,-44.461 74.602,-37.945 74.602,-29.32C74.602,-16.852 70.547,-7.992 62.438,-2.742C57.938,0.164 51.445,2.086 42.961,3.023L42.961,16.664L36.281,16.664L36.281,3.023C22.641,2.133 13.383,-2.695 8.508,-11.461C5.836,-16.195 4.5,-22.594 4.5,-30.656L16.945,-30.656C17.32,-24.234 18.328,-19.547 19.969,-16.594C22.875,-11.297 28.266,-8.32 36.141,-7.664L36.141,-45.984C26.016,-47.906 18.539,-51.117 13.711,-55.617C8.883,-60.117 6.469,-66.352 6.469,-74.32Z" style="fill:rgb(163,163,163);fill-rule:nonzero;"/>
                    <path d="M127.688,-35.648L127.688,-81.281L95.414,-35.648L127.688,-35.648ZM127.898,0L127.898,-24.609L83.742,-24.609L83.742,-36.984L129.867,-100.969L140.555,-100.969L140.555,-35.648L155.391,-35.648L155.391,-24.609L140.555,-24.609L140.555,0L127.898,0Z" style="fill:rgb(163,163,163);fill-rule:nonzero;"/>
                    <path d="M199.125,-100.688C212.156,-100.688 221.578,-95.32 227.391,-84.586C231.891,-76.289 234.141,-64.922 234.141,-50.484C234.141,-36.797 232.102,-25.477 228.023,-16.523C222.117,-3.68 212.461,2.742 199.055,2.742C186.961,2.742 177.961,-2.508 172.055,-13.008C167.133,-21.773 164.672,-33.539 164.672,-48.305C164.672,-59.742 166.148,-69.563 169.102,-77.766C174.633,-93.047 184.641,-100.688 199.125,-100.688ZM198.984,-8.789C205.547,-8.789 210.773,-11.695 214.664,-17.508C218.555,-23.32 220.5,-34.148 220.5,-49.992C220.5,-61.43 219.094,-70.84 216.281,-78.223C213.469,-85.605 208.008,-89.297 199.898,-89.297C192.445,-89.297 186.996,-85.793 183.551,-78.785C180.105,-71.777 178.383,-61.453 178.383,-47.813C178.383,-37.547 179.484,-29.297 181.688,-23.063C185.063,-13.547 190.828,-8.789 198.984,-8.789Z" style="fill:rgb(163,163,163);fill-rule:nonzero;"/>
                </g>
            </g>
            <g transform="matrix(1,0,0,1,1553.37,140)">
                <g id="_-50" serif:id="$50">
                    <path d="M42.961,-7.313C50.977,-7.688 56.508,-10.617 59.555,-16.102C61.148,-18.914 61.945,-22.172 61.945,-25.875C61.945,-31.734 59.789,-36.188 55.477,-39.234C52.992,-41.016 48.82,-42.703 42.961,-44.297L42.961,-7.313ZM19.125,-75.164C19.125,-70.523 20.66,-66.891 23.73,-64.266C26.801,-61.641 30.938,-59.813 36.141,-58.781L36.141,-91.828C30,-91.594 25.629,-89.719 23.027,-86.203C20.426,-82.688 19.125,-79.008 19.125,-75.164ZM6.469,-74.32C6.469,-81.445 9.082,-87.867 14.309,-93.586C19.535,-99.305 26.859,-102.211 36.281,-102.305L36.281,-111.656L42.961,-111.656L42.961,-102.445C52.289,-101.789 59.449,-99.035 64.441,-94.184C69.434,-89.332 72.047,-82.922 72.281,-74.953L59.977,-74.953C59.648,-78.516 58.688,-81.586 57.094,-84.164C54.141,-88.898 49.43,-91.383 42.961,-91.617L42.961,-57.445C53.836,-54.398 61.219,-51.539 65.109,-48.867C71.438,-44.461 74.602,-37.945 74.602,-29.32C74.602,-16.852 70.547,-7.992 62.438,-2.742C57.938,0.164 51.445,2.086 42.961,3.023L42.961,16.664L36.281,16.664L36.281,3.023C22.641,2.133 13.383,-2.695 8.508,-11.461C5.836,-16.195 4.5,-22.594 4.5,-30.656L16.945,-30.656C17.32,-24.234 18.328,-19.547 19.969,-16.594C22.875,-11.297 28.266,-8.32 36.141,-7.664L36.141,-45.984C26.016,-47.906 18.539,-51.117 13.711,-55.617C8.883,-60.117 6.469,-66.352 6.469,-74.32Z" style="fill:rgb(163,163,163);fill-rule:nonzero;"/>
                    <path d="M97.875,-25.664C98.719,-18.445 102.07,-13.453 107.93,-10.688C110.93,-9.281 114.398,-8.578 118.336,-8.578C125.836,-8.578 131.391,-10.969 135,-15.75C138.609,-20.531 140.414,-25.828 140.414,-31.641C140.414,-38.672 138.27,-44.109 133.98,-47.953C129.691,-51.797 124.547,-53.719 118.547,-53.719C114.188,-53.719 110.449,-52.875 107.332,-51.188C104.215,-49.5 101.555,-47.156 99.352,-44.156L88.383,-44.789L96.047,-99L148.359,-99L148.359,-86.766L105.539,-86.766L101.25,-58.781C103.594,-60.563 105.82,-61.898 107.93,-62.789C111.68,-64.336 116.016,-65.109 120.938,-65.109C130.172,-65.109 138,-62.133 144.422,-56.18C150.844,-50.227 154.055,-42.68 154.055,-33.539C154.055,-24.023 151.113,-15.633 145.23,-8.367C139.348,-1.102 129.961,2.531 117.07,2.531C108.867,2.531 101.613,0.223 95.309,-4.395C89.004,-9.012 85.477,-16.102 84.727,-25.664L97.875,-25.664Z" style="fill:rgb(163,163,163);fill-rule:nonzero;"/>
                    <path d="M199.125,-100.688C212.156,-100.688 221.578,-95.32 227.391,-84.586C231.891,-76.289 234.141,-64.922 234.141,-50.484C234.141,-36.797 232.102,-25.477 228.023,-16.523C222.117,-3.68 212.461,2.742 199.055,2.742C186.961,2.742 177.961,-2.508 172.055,-13.008C167.133,-21.773 164.672,-33.539 164.672,-48.305C164.672,-59.742 166.148,-69.563 169.102,-77.766C174.633,-93.047 184.641,-100.688 199.125,-100.688ZM198.984,-8.789C205.547,-8.789 210.773,-11.695 214.664,-17.508C218.555,-23.32 220.5,-34.148 220.5,-49.992C220.5,-61.43 219.094,-70.84 216.281,-78.223C213.469,-85.605 208.008,-89.297 199.898,-89.297C192.445,-89.297 186.996,-85.793 183.551,-78.785C180.105,-71.777 178.383,-61.453 178.383,-47.813C178.383,-37.547 179.484,-29.297 181.688,-23.063C185.063,-13.547 190.828,-8.789 198.984,-8.789Z" style="fill:rgb(163,163,163);fill-rule:nonzero;"/>
                </g>
            </g>
            <g transform="matrix(1,0,0,1,0.371094,140)">
                <g id="_-60" serif:id="$60">
                    <path d="M42.961,-7.313C50.977,-7.688 56.508,-10.617 59.555,-16.102C61.148,-18.914 61.945,-22.172 61.945,-25.875C61.945,-31.734 59.789,-36.188 55.477,-39.234C52.992,-41.016 48.82,-42.703 42.961,-44.297L42.961,-7.313ZM19.125,-75.164C19.125,-70.523 20.66,-66.891 23.73,-64.266C26.801,-61.641 30.938,-59.813 36.141,-58.781L36.141,-91.828C30,-91.594 25.629,-89.719 23.027,-86.203C20.426,-82.688 19.125,-79.008 19.125,-75.164ZM6.469,-74.32C6.469,-81.445 9.082,-87.867 14.309,-93.586C19.535,-99.305 26.859,-102.211 36.281,-102.305L36.281,-111.656L42.961,-111.656L42.961,-102.445C52.289,-101.789 59.449,-99.035 64.441,-94.184C69.434,-89.332 72.047,-82.922 72.281,-74.953L59.977,-74.953C59.648,-78.516 58.688,-81.586 57.094,-84.164C54.141,-88.898 49.43,-91.383 42.961,-91.617L42.961,-57.445C53.836,-54.398 61.219,-51.539 65.109,-48.867C71.438,-44.461 74.602,-37.945 74.602,-29.32C74.602,-16.852 70.547,-7.992 62.438,-2.742C57.938,0.164 51.445,2.086 42.961,3.023L42.961,16.664L36.281,16.664L36.281,3.023C22.641,2.133 13.383,-2.695 8.508,-11.461C5.836,-16.195 4.5,-22.594 4.5,-30.656L16.945,-30.656C17.32,-24.234 18.328,-19.547 19.969,-16.594C22.875,-11.297 28.266,-8.32 36.141,-7.664L36.141,-45.984C26.016,-47.906 18.539,-51.117 13.711,-55.617C8.883,-60.117 6.469,-66.352 6.469,-74.32Z" style="fill:rgb(163,163,163);fill-rule:nonzero;"/>
                    <path d="M122.203,-101.109C133.453,-101.109 141.293,-98.191 145.723,-92.355C150.152,-86.52 152.367,-80.508 152.367,-74.32L139.852,-74.32C139.102,-78.305 137.906,-81.422 136.266,-83.672C133.219,-87.891 128.602,-90 122.414,-90C115.336,-90 109.711,-86.73 105.539,-80.191C101.367,-73.652 99.047,-64.289 98.578,-52.102C101.484,-56.367 105.141,-59.555 109.547,-61.664C113.578,-63.539 118.078,-64.477 123.047,-64.477C131.484,-64.477 138.844,-61.781 145.125,-56.391C151.406,-51 154.547,-42.961 154.547,-32.273C154.547,-23.133 151.57,-15.035 145.617,-7.98C139.664,-0.926 131.18,2.602 120.164,2.602C110.742,2.602 102.609,-0.973 95.766,-8.121C88.922,-15.27 85.5,-27.305 85.5,-44.227C85.5,-56.742 87.023,-67.359 90.07,-76.078C95.93,-92.766 106.641,-101.109 122.203,-101.109ZM121.289,-8.648C127.945,-8.648 132.926,-10.887 136.23,-15.363C139.535,-19.84 141.188,-25.125 141.188,-31.219C141.188,-36.375 139.711,-41.285 136.758,-45.949C133.805,-50.613 128.438,-52.945 120.656,-52.945C115.219,-52.945 110.449,-51.141 106.348,-47.531C102.246,-43.922 100.195,-38.484 100.195,-31.219C100.195,-24.844 102.059,-19.488 105.785,-15.152C109.512,-10.816 114.68,-8.648 121.289,-8.648Z" style="fill:rgb(163,163,163);fill-rule:nonzero;"/>
                    <path d="M199.125,-100.688C212.156,-100.688 221.578,-95.32 227.391,-84.586C231.891,-76.289 234.141,-64.922 234.141,-50.484C234.141,-36.797 232.102,-25.477 228.023,-16.523C222.117,-3.68 212.461,2.742 199.055,2.742C186.961,2.742 177.961,-2.508 172.055,-13.008C167.133,-21.773 164.672,-33.539 164.672,-48.305C164.672,-59.742 166.148,-69.563 169.102,-77.766C174.633,-93.047 184.641,-100.688 199.125,-100.688ZM198.984,-8.789C205.547,-8.789 210.773,-11.695 214.664,-17.508C218.555,-23.32 220.5,-34.148 220.5,-49.992C220.5,-61.43 219.094,-70.84 216.281,-78.223C213.469,-85.605 208.008,-89.297 199.898,-89.297C192.445,-89.297 186.996,-85.793 183.551,-78.785C180.105,-71.777 178.383,-61.453 178.383,-47.813C178.383,-37.547 179.484,-29.297 181.688,-23.063C185.063,-13.547 190.828,-8.789 198.984,-8.789Z" style="fill:rgb(163,163,163);fill-rule:nonzero;"/>
                </g>
            </g>
            <g transform="matrix(1,0,0,1,7562.37,140)">
                <g id="_-10" serif:id="$10">
                    <path d="M42.961,-7.313C50.977,-7.688 56.508,-10.617 59.555,-16.102C61.148,-18.914 61.945,-22.172 61.945,-25.875C61.945,-31.734 59.789,-36.188 55.477,-39.234C52.992,-41.016 48.82,-42.703 42.961,-44.297L42.961,-7.313ZM19.125,-75.164C19.125,-70.523 20.66,-66.891 23.73,-64.266C26.801,-61.641 30.938,-59.813 36.141,-58.781L36.141,-91.828C30,-91.594 25.629,-89.719 23.027,-86.203C20.426,-82.688 19.125,-79.008 19.125,-75.164ZM6.469,-74.32C6.469,-81.445 9.082,-87.867 14.309,-93.586C19.535,-99.305 26.859,-102.211 36.281,-102.305L36.281,-111.656L42.961,-111.656L42.961,-102.445C52.289,-101.789 59.449,-99.035 64.441,-94.184C69.434,-89.332 72.047,-82.922 72.281,-74.953L59.977,-74.953C59.648,-78.516 58.688,-81.586 57.094,-84.164C54.141,-88.898 49.43,-91.383 42.961,-91.617L42.961,-57.445C53.836,-54.398 61.219,-51.539 65.109,-48.867C71.438,-44.461 74.602,-37.945 74.602,-29.32C74.602,-16.852 70.547,-7.992 62.438,-2.742C57.938,0.164 51.445,2.086 42.961,3.023L42.961,16.664L36.281,16.664L36.281,3.023C22.641,2.133 13.383,-2.695 8.508,-11.461C5.836,-16.195 4.5,-22.594 4.5,-30.656L16.945,-30.656C17.32,-24.234 18.328,-19.547 19.969,-16.594C22.875,-11.297 28.266,-8.32 36.141,-7.664L36.141,-45.984C26.016,-47.906 18.539,-51.117 13.711,-55.617C8.883,-60.117 6.469,-66.352 6.469,-74.32Z" style="fill:rgb(163,163,163);fill-rule:nonzero;"/>
                    <path d="M93.867,-71.297L93.867,-81C103.008,-81.891 109.383,-83.379 112.992,-85.465C116.602,-87.551 119.297,-92.484 121.078,-100.266L131.063,-100.266L131.063,0L117.563,0L117.563,-71.297L93.867,-71.297Z" style="fill:rgb(163,163,163);fill-rule:nonzero;"/>
                    <path d="M199.125,-100.688C212.156,-100.688 221.578,-95.32 227.391,-84.586C231.891,-76.289 234.141,-64.922 234.141,-50.484C234.141,-36.797 232.102,-25.477 228.023,-16.523C222.117,-3.68 212.461,2.742 199.055,2.742C186.961,2.742 177.961,-2.508 172.055,-13.008C167.133,-21.773 164.672,-33.539 164.672,-48.305C164.672,-59.742 166.148,-69.563 169.102,-77.766C174.633,-93.047 184.641,-100.688 199.125,-100.688ZM198.984,-8.789C205.547,-8.789 210.773,-11.695 214.664,-17.508C218.555,-23.32 220.5,-34.148 220.5,-49.992C220.5,-61.43 219.094,-70.84 216.281,-78.223C213.469,-85.605 208.008,-89.297 199.898,-89.297C192.445,-89.297 186.996,-85.793 183.551,-78.785C180.105,-71.777 178.383,-61.453 178.383,-47.813C178.383,-37.547 179.484,-29.297 181.688,-23.063C185.063,-13.547 190.828,-8.789 198.984,-8.789Z" style="fill:rgb(163,163,163);fill-rule:nonzero;"/>
                </g>
            </g>
            <g transform="matrix(1,0,0,1,9141,140)">
                <g id="_-0" serif:id="$0">
                    <path d="M42.961,-7.313C50.977,-7.688 56.508,-10.617 59.555,-16.102C61.148,-18.914 61.945,-22.172 61.945,-25.875C61.945,-31.734 59.789,-36.188 55.477,-39.234C52.992,-41.016 48.82,-42.703 42.961,-44.297L42.961,-7.313ZM19.125,-75.164C19.125,-70.523 20.66,-66.891 23.73,-64.266C26.801,-61.641 30.938,-59.813 36.141,-58.781L36.141,-91.828C30,-91.594 25.629,-89.719 23.027,-86.203C20.426,-82.688 19.125,-79.008 19.125,-75.164ZM6.469,-74.32C6.469,-81.445 9.082,-87.867 14.309,-93.586C19.535,-99.305 26.859,-102.211 36.281,-102.305L36.281,-111.656L42.961,-111.656L42.961,-102.445C52.289,-101.789 59.449,-99.035 64.441,-94.184C69.434,-89.332 72.047,-82.922 72.281,-74.953L59.977,-74.953C59.648,-78.516 58.688,-81.586 57.094,-84.164C54.141,-88.898 49.43,-91.383 42.961,-91.617L42.961,-57.445C53.836,-54.398 61.219,-51.539 65.109,-48.867C71.438,-44.461 74.602,-37.945 74.602,-29.32C74.602,-16.852 70.547,-7.992 62.438,-2.742C57.938,0.164 51.445,2.086 42.961,3.023L42.961,16.664L36.281,16.664L36.281,3.023C22.641,2.133 13.383,-2.695 8.508,-11.461C5.836,-16.195 4.5,-22.594 4.5,-30.656L16.945,-30.656C17.32,-24.234 18.328,-19.547 19.969,-16.594C22.875,-11.297 28.266,-8.32 36.141,-7.664L36.141,-45.984C26.016,-47.906 18.539,-51.117 13.711,-55.617C8.883,-60.117 6.469,-66.352 6.469,-74.32Z" style="fill:rgb(163,163,163);fill-rule:nonzero;"/>
                    <path d="M119.039,-100.688C132.07,-100.688 141.492,-95.32 147.305,-84.586C151.805,-76.289 154.055,-64.922 154.055,-50.484C154.055,-36.797 152.016,-25.477 147.938,-16.523C142.031,-3.68 132.375,2.742 118.969,2.742C106.875,2.742 97.875,-2.508 91.969,-13.008C87.047,-21.773 84.586,-33.539 84.586,-48.305C84.586,-59.742 86.063,-69.563 89.016,-77.766C94.547,-93.047 104.555,-100.688 119.039,-100.688ZM118.898,-8.789C125.461,-8.789 130.688,-11.695 134.578,-17.508C138.469,-23.32 140.414,-34.148 140.414,-49.992C140.414,-61.43 139.008,-70.84 136.195,-78.223C133.383,-85.605 127.922,-89.297 119.813,-89.297C112.359,-89.297 106.91,-85.793 103.465,-78.785C100.02,-71.777 98.297,-61.453 98.297,-47.813C98.297,-37.547 99.398,-29.297 101.602,-23.063C104.977,-13.547 110.742,-8.789 118.898,-8.789Z" style="fill:rgb(163,163,163);fill-rule:nonzero;"/>
                </g>
            </g>
        </g>
    </g>
</svg>
