<?xml version="1.0" encoding="UTF-8"?>
<svg width="128px" height="31px" viewBox="0 0 128 31" version="1.1" xmlns="http://www.w3.org/2000/svg" xmlns:xlink="http://www.w3.org/1999/xlink">
    <!-- Generator: Sketch 50 (54983) - http://www.bohemiancoding.com/sketch -->
    <title>Box_Secure_Mobile_Access</title>
    <desc>Created with Sketch.</desc>
    <defs></defs>
    <g id="Page-2" stroke="none" stroke-width="1" fill="none" fill-rule="evenodd">
        <g id="Box_Secure_Mobile_Access" fill="#636569" fill-rule="nonzero">
            <path d="M120.515298,0.116080716 L111.239936,0.116080716 L16.747182,0.116080716 L7.47181965,0.116080716 C3.41384863,0.116080716 0.128824477,3.40503432 0.128824477,7.46785937 L0.128824477,23.5256917 C0.128824477,27.5885167 3.41384863,30.8774704 7.47181965,30.8774704 L16.747182,30.8774704 L111.239936,30.8774704 L120.515298,30.8774704 C124.573269,30.8774704 127.858293,27.5885167 127.858293,23.5256917 L127.858293,7.46785937 C128.05153,3.40503432 124.573269,0.116080716 120.515298,0.116080716 Z M9.21095008,17.5281881 L3.80032206,17.5281881 L3.80032206,13.465363 L9.21095008,13.465363 L9.21095008,17.5281881 Z M7.47181965,27.0081132 C5.5394525,27.0081132 3.99355878,25.4603703 3.99355878,23.5256917 L3.99355878,21.5910131 L9.4041868,21.5910131 L9.4041868,23.5256917 C9.4041868,24.8799667 9.79066023,26.0407739 10.3703704,27.0081132 L7.47181965,27.0081132 Z M9.21095008,7.46785937 L9.21095008,9.40253797 L3.80032206,9.40253797 L3.80032206,7.46785937 C3.80032206,5.53318078 5.34621578,3.9854379 7.27858293,3.9854379 L9.98389694,3.9854379 C9.59742351,5.14624506 9.21095008,6.30705222 9.21095008,7.46785937 Z M114.718196,23.5256917 C114.718196,25.4603703 113.172303,27.0081132 111.239936,27.0081132 L16.747182,27.0081132 C14.8148148,27.0081132 13.2689211,25.4603703 13.2689211,23.5256917 L13.2689211,7.46785937 C13.2689211,5.53318078 14.8148148,3.9854379 16.747182,3.9854379 L111.239936,3.9854379 C113.172303,3.9854379 114.718196,5.53318078 114.718196,7.46785937 L114.718196,23.5256917 Z M120.515298,3.9854379 C122.447665,3.9854379 123.993559,5.53318078 123.993559,7.46785937 L123.993559,9.40253797 L118.582931,9.40253797 L118.582931,7.46785937 C118.582931,6.11358436 118.196457,4.9527772 117.616747,3.9854379 L120.515298,3.9854379 Z M118.582931,13.465363 L123.993559,13.465363 L123.993559,17.5281881 L118.582931,17.5281881 L118.582931,13.465363 Z M120.515298,27.0081132 L117.809984,27.0081132 C118.389694,26.0407739 118.776167,24.6864989 118.776167,23.5256917 L118.776167,21.5910131 L124.186795,21.5910131 L124.186795,23.5256917 C123.993559,25.4603703 122.447665,27.0081132 120.515298,27.0081132 Z" id="Shape"></path>
            <path d="M49.2109501,23.138756 L42.4476651,23.138756 C41.0950081,23.138756 40.1288245,22.1714167 40.1288245,20.8171417 L40.1288245,17.9151238 C40.1288245,16.5608488 41.0950081,15.5935095 42.4476651,15.5935095 L49.2109501,15.5935095 C50.5636071,15.5935095 51.5297907,16.5608488 51.5297907,17.9151238 L51.5297907,20.8171417 C51.7230274,22.1714167 50.5636071,23.138756 49.2109501,23.138756 Z M64.863124,23.138756 L58.099839,23.138756 C56.747182,23.138756 55.7809984,22.1714167 55.7809984,20.8171417 L55.7809984,17.9151238 C55.7809984,16.5608488 56.747182,15.5935095 58.099839,15.5935095 L64.863124,15.5935095 C66.215781,15.5935095 67.1819646,16.5608488 67.1819646,17.9151238 L67.1819646,20.8171417 C67.1819646,22.1714167 66.215781,23.138756 64.863124,23.138756 Z M82.4476651,16.3673809 L90.7568438,16.3673809 L90.7568438,23.138756 L82.4476651,23.138756 L82.4476651,16.3673809 Z M92.689211,16.3673809 L100.99839,16.3673809 L100.99839,23.138756 L92.689211,23.138756 L92.689211,16.3673809 Z M82.4476651,7.66132723 L90.7568438,7.66132723 L90.7568438,14.4327023 L82.4476651,14.4327023 L82.4476651,7.66132723 Z M102.930757,14.4327023 L103.123994,14.4327023 L103.123994,7.66132723 L108.148148,7.66132723 C109.500805,7.66132723 110.466989,8.62866653 110.466989,9.98294154 L110.466989,14.4327023 L102.930757,14.4327023 Z M80.5152979,16.3673809 L80.5152979,23.138756 L75.1046699,23.138756 C73.7520129,23.138756 72.7858293,22.1714167 72.7858293,20.8171417 L72.7858293,16.3673809 L80.5152979,16.3673809 Z M102.930757,16.3673809 L110.273752,16.3673809 L110.273752,20.8171417 C110.273752,22.1714167 109.307568,23.138756 107.954911,23.138756 L102.930757,23.138756 L102.930757,16.3673809 Z M80.5152979,14.4327023 L72.7858293,14.4327023 L72.7858293,9.98294154 C72.7858293,8.62866653 73.7520129,7.66132723 75.1046699,7.66132723 L80.5152979,7.66132723 L80.5152979,14.4327023 Z M92.689211,7.66132723 L100.99839,7.66132723 L100.99839,14.4327023 L92.689211,14.4327023 L92.689211,7.66132723 Z" id="Combined-Shape"></path>
        </g>
    </g>
</svg>