<?xml version="1.0" encoding="UTF-8" standalone="no"?>
<svg width="871px" height="388px" viewBox="0 0 871 388" version="1.1" xmlns="http://www.w3.org/2000/svg" xmlns:xlink="http://www.w3.org/1999/xlink">
    <!-- Generator: Sketch 50.2 (55047) - http://www.bohemiancoding.com/sketch -->
    <title>Combined Shape1</title>
    <desc>Created with Sketch.</desc>
    <defs></defs>
    <g id="Page-1" stroke="none" stroke-width="1" fill="none" fill-rule="evenodd">
        <path d="M6.63450874,3.5 C5.80608162,3.5 5.13450874,2.82842712 5.13450874,2 C5.13450874,1.17157288 5.80608162,0.5 6.63450874,0.5 L7.63450874,0.5 C8.46293587,0.5 9.13450874,1.17157288 9.13450874,2 C9.13450874,2.82842712 8.46293587,3.5 7.63450874,3.5 L6.63450874,3.5 Z M21.6345087,3.5 C20.8060816,3.5 20.1345087,2.82842712 20.1345087,2 C20.1345087,1.17157288 20.8060816,0.5 21.6345087,0.5 L22.6345087,0.5 C23.4629359,0.5 24.1345087,1.17157288 24.1345087,2 C24.1345087,2.82842712 23.4629359,3.5 22.6345087,3.5 L21.6345087,3.5 Z M36.6345087,3.5 C35.8060816,3.5 35.1345087,2.82842712 35.1345087,2 C35.1345087,1.17157288 35.8060816,0.5 36.6345087,0.5 L37.6345087,0.5 C38.4629359,0.5 39.1345087,1.17157288 39.1345087,2 C39.1345087,2.82842712 38.4629359,3.5 37.6345087,3.5 L36.6345087,3.5 Z M51.6345087,3.5 C50.8060816,3.5 50.1345087,2.82842712 50.1345087,2 C50.1345087,1.17157288 50.8060816,0.5 51.6345087,0.5 L52.6345087,0.5 C53.4629359,0.5 54.1345087,1.17157288 54.1345087,2 C54.1345087,2.82842712 53.4629359,3.5 52.6345087,3.5 L51.6345087,3.5 Z M66.6345087,3.5 C65.8060816,3.5 65.1345087,2.82842712 65.1345087,2 C65.1345087,1.17157288 65.8060816,0.5 66.6345087,0.5 L67.6345087,0.5 C68.4629359,0.5 69.1345087,1.17157288 69.1345087,2 C69.1345087,2.82842712 68.4629359,3.5 67.6345087,3.5 L66.6345087,3.5 Z M81.6345087,3.5 C80.8060816,3.5 80.1345087,2.82842712 80.1345087,2 C80.1345087,1.17157288 80.8060816,0.5 81.6345087,0.5 L82.6345087,0.5 C83.4629359,0.5 84.1345087,1.17157288 84.1345087,2 C84.1345087,2.82842712 83.4629359,3.5 82.6345087,3.5 L81.6345087,3.5 Z M96.6345087,3.5 C95.8060816,3.5 95.1345087,2.82842712 95.1345087,2 C95.1345087,1.17157288 95.8060816,0.5 96.6345087,0.5 L97.6345087,0.5 C98.4629359,0.5 99.1345087,1.17157288 99.1345087,2 C99.1345087,2.82842712 98.4629359,3.5 97.6345087,3.5 L96.6345087,3.5 Z M111.634509,3.5 C110.806082,3.5 110.134509,2.82842712 110.134509,2 C110.134509,1.17157288 110.806082,0.5 111.634509,0.5 L112.634509,0.5 C113.462936,0.5 114.134509,1.17157288 114.134509,2 C114.134509,2.82842712 113.462936,3.5 112.634509,3.5 L111.634509,3.5 Z M126.634509,3.5 C125.806082,3.5 125.134509,2.82842712 125.134509,2 C125.134509,1.17157288 125.806082,0.5 126.634509,0.5 L127.634509,0.5 C128.462936,0.5 129.134509,1.17157288 129.134509,2 C129.134509,2.82842712 128.462936,3.5 127.634509,3.5 L126.634509,3.5 Z M141.634509,3.5 C140.806082,3.5 140.134509,2.82842712 140.134509,2 C140.134509,1.17157288 140.806082,0.5 141.634509,0.5 L142.634509,0.5 C143.462936,0.5 144.134509,1.17157288 144.134509,2 C144.134509,2.82842712 143.462936,3.5 142.634509,3.5 L141.634509,3.5 Z M156.634509,3.5 C155.806082,3.5 155.134509,2.82842712 155.134509,2 C155.134509,1.17157288 155.806082,0.5 156.634509,0.5 L157.634509,0.5 C158.462936,0.5 159.134509,1.17157288 159.134509,2 C159.134509,2.82842712 158.462936,3.5 157.634509,3.5 L156.634509,3.5 Z M171.634509,3.5 C170.806082,3.5 170.134509,2.82842712 170.134509,2 C170.134509,1.17157288 170.806082,0.5 171.634509,0.5 L172.634509,0.5 C173.462936,0.5 174.134509,1.17157288 174.134509,2 C174.134509,2.82842712 173.462936,3.5 172.634509,3.5 L171.634509,3.5 Z M186.634509,3.5 C185.806082,3.5 185.134509,2.82842712 185.134509,2 C185.134509,1.17157288 185.806082,0.5 186.634509,0.5 L187.634509,0.5 C188.462936,0.5 189.134509,1.17157288 189.134509,2 C189.134509,2.82842712 188.462936,3.5 187.634509,3.5 L186.634509,3.5 Z M201.634509,3.5 C200.806082,3.5 200.134509,2.82842712 200.134509,2 C200.134509,1.17157288 200.806082,0.5 201.634509,0.5 L202.634509,0.5 C203.462936,0.5 204.134509,1.17157288 204.134509,2 C204.134509,2.82842712 203.462936,3.5 202.634509,3.5 L201.634509,3.5 Z M216.634509,3.5 C215.806082,3.5 215.134509,2.82842712 215.134509,2 C215.134509,1.17157288 215.806082,0.5 216.634509,0.5 L217.634509,0.5 C218.462936,0.5 219.134509,1.17157288 219.134509,2 C219.134509,2.82842712 218.462936,3.5 217.634509,3.5 L216.634509,3.5 Z M231.634509,3.5 C230.806082,3.5 230.134509,2.82842712 230.134509,2 C230.134509,1.17157288 230.806082,0.5 231.634509,0.5 L232.634509,0.5 C233.462936,0.5 234.134509,1.17157288 234.134509,2 C234.134509,2.82842712 233.462936,3.5 232.634509,3.5 L231.634509,3.5 Z M246.634509,3.5 C245.806082,3.5 245.134509,2.82842712 245.134509,2 C245.134509,1.17157288 245.806082,0.5 246.634509,0.5 L247.634509,0.5 C248.462936,0.5 249.134509,1.17157288 249.134509,2 C249.134509,2.82842712 248.462936,3.5 247.634509,3.5 L246.634509,3.5 Z M261.634509,3.5 C260.806082,3.5 260.134509,2.82842712 260.134509,2 C260.134509,1.17157288 260.806082,0.5 261.634509,0.5 L262.634509,0.5 C263.462936,0.5 264.134509,1.17157288 264.134509,2 C264.134509,2.82842712 263.462936,3.5 262.634509,3.5 L261.634509,3.5 Z M276.634509,3.5 C275.806082,3.5 275.134509,2.82842712 275.134509,2 C275.134509,1.17157288 275.806082,0.5 276.634509,0.5 L277.634509,0.5 C278.462936,0.5 279.134509,1.17157288 279.134509,2 C279.134509,2.82842712 278.462936,3.5 277.634509,3.5 L276.634509,3.5 Z M291.634509,3.5 C290.806082,3.5 290.134509,2.82842712 290.134509,2 C290.134509,1.17157288 290.806082,0.5 291.634509,0.5 L292.634509,0.5 C293.462936,0.5 294.134509,1.17157288 294.134509,2 C294.134509,2.82842712 293.462936,3.5 292.634509,3.5 L291.634509,3.5 Z M306.634509,3.5 C305.806082,3.5 305.134509,2.82842712 305.134509,2 C305.134509,1.17157288 305.806082,0.5 306.634509,0.5 L307.634509,0.5 C308.462936,0.5 309.134509,1.17157288 309.134509,2 C309.134509,2.82842712 308.462936,3.5 307.634509,3.5 L306.634509,3.5 Z M321.634509,3.5 C320.806082,3.5 320.134509,2.82842712 320.134509,2 C320.134509,1.17157288 320.806082,0.5 321.634509,0.5 L322.634509,0.5 C323.462936,0.5 324.134509,1.17157288 324.134509,2 C324.134509,2.82842712 323.462936,3.5 322.634509,3.5 L321.634509,3.5 Z M336.634509,3.5 C335.806082,3.5 335.134509,2.82842712 335.134509,2 C335.134509,1.17157288 335.806082,0.5 336.634509,0.5 L337.634509,0.5 C338.462936,0.5 339.134509,1.17157288 339.134509,2 C339.134509,2.82842712 338.462936,3.5 337.634509,3.5 L336.634509,3.5 Z M351.634509,3.5 C350.806082,3.5 350.134509,2.82842712 350.134509,2 C350.134509,1.17157288 350.806082,0.5 351.634509,0.5 L352.634509,0.5 C353.462936,0.5 354.134509,1.17157288 354.134509,2 C354.134509,2.82842712 353.462936,3.5 352.634509,3.5 L351.634509,3.5 Z M366.634509,3.5 C365.806082,3.5 365.134509,2.82842712 365.134509,2 C365.134509,1.17157288 365.806082,0.5 366.634509,0.5 L367.634509,0.5 C368.462936,0.5 369.134509,1.17157288 369.134509,2 C369.134509,2.82842712 368.462936,3.5 367.634509,3.5 L366.634509,3.5 Z M381.634509,3.5 C380.806082,3.5 380.134509,2.82842712 380.134509,2 C380.134509,1.17157288 380.806082,0.5 381.634509,0.5 L382.634509,0.5 C383.462936,0.5 384.134509,1.17157288 384.134509,2 C384.134509,2.82842712 383.462936,3.5 382.634509,3.5 L381.634509,3.5 Z M396.634509,3.5 C395.806082,3.5 395.134509,2.82842712 395.134509,2 C395.134509,1.17157288 395.806082,0.5 396.634509,0.5 L397.634509,0.5 C398.462936,0.5 399.134509,1.17157288 399.134509,2 C399.134509,2.82842712 398.462936,3.5 397.634509,3.5 L396.634509,3.5 Z M411.634509,3.5 C410.806082,3.5 410.134509,2.82842712 410.134509,2 C410.134509,1.17157288 410.806082,0.5 411.634509,0.5 L412.634509,0.5 C413.462936,0.5 414.134509,1.17157288 414.134509,2 C414.134509,2.82842712 413.462936,3.5 412.634509,3.5 L411.634509,3.5 Z M426.634509,3.5 C425.806082,3.5 425.134509,2.82842712 425.134509,2 C425.134509,1.17157288 425.806082,0.5 426.634509,0.5 L427.634509,0.5 C428.462936,0.5 429.134509,1.17157288 429.134509,2 C429.134509,2.82842712 428.462936,3.5 427.634509,3.5 L426.634509,3.5 Z M441.634509,3.5 C440.806082,3.5 440.134509,2.82842712 440.134509,2 C440.134509,1.17157288 440.806082,0.5 441.634509,0.5 L442.634509,0.5 C443.462936,0.5 444.134509,1.17157288 444.134509,2 C444.134509,2.82842712 443.462936,3.5 442.634509,3.5 L441.634509,3.5 Z M456.634509,3.5 C455.806082,3.5 455.134509,2.82842712 455.134509,2 C455.134509,1.17157288 455.806082,0.5 456.634509,0.5 L457.634509,0.5 C458.462936,0.5 459.134509,1.17157288 459.134509,2 C459.134509,2.82842712 458.462936,3.5 457.634509,3.5 L456.634509,3.5 Z M471.634509,3.5 C470.806082,3.5 470.134509,2.82842712 470.134509,2 C470.134509,1.17157288 470.806082,0.5 471.634509,0.5 L472.634509,0.5 C473.462936,0.5 474.134509,1.17157288 474.134509,2 C474.134509,2.82842712 473.462936,3.5 472.634509,3.5 L471.634509,3.5 Z M486.634509,3.5 C485.806082,3.5 485.134509,2.82842712 485.134509,2 C485.134509,1.17157288 485.806082,0.5 486.634509,0.5 L487.634509,0.5 C488.462936,0.5 489.134509,1.17157288 489.134509,2 C489.134509,2.82842712 488.462936,3.5 487.634509,3.5 L486.634509,3.5 Z M501.634509,3.5 C500.806082,3.5 500.134509,2.82842712 500.134509,2 C500.134509,1.17157288 500.806082,0.5 501.634509,0.5 L502.634509,0.5 C503.462936,0.5 504.134509,1.17157288 504.134509,2 C504.134509,2.82842712 503.462936,3.5 502.634509,3.5 L501.634509,3.5 Z M516.634509,3.5 C515.806082,3.5 515.134509,2.82842712 515.134509,2 C515.134509,1.17157288 515.806082,0.5 516.634509,0.5 L517.634509,0.5 C518.462936,0.5 519.134509,1.17157288 519.134509,2 C519.134509,2.82842712 518.462936,3.5 517.634509,3.5 L516.634509,3.5 Z M531.634509,3.5 C530.806082,3.5 530.134509,2.82842712 530.134509,2 C530.134509,1.17157288 530.806082,0.5 531.634509,0.5 L532.634509,0.5 C533.462936,0.5 534.134509,1.17157288 534.134509,2 C534.134509,2.82842712 533.462936,3.5 532.634509,3.5 L531.634509,3.5 Z M546.634509,3.5 C545.806082,3.5 545.134509,2.82842712 545.134509,2 C545.134509,1.17157288 545.806082,0.5 546.634509,0.5 L547.634509,0.5 C548.462936,0.5 549.134509,1.17157288 549.134509,2 C549.134509,2.82842712 548.462936,3.5 547.634509,3.5 L546.634509,3.5 Z M561.634509,3.5 C560.806082,3.5 560.134509,2.82842712 560.134509,2 C560.134509,1.17157288 560.806082,0.5 561.634509,0.5 L562.634509,0.5 C563.462936,0.5 564.134509,1.17157288 564.134509,2 C564.134509,2.82842712 563.462936,3.5 562.634509,3.5 L561.634509,3.5 Z M576.634509,3.5 C575.806082,3.5 575.134509,2.82842712 575.134509,2 C575.134509,1.17157288 575.806082,0.5 576.634509,0.5 L577.634509,0.5 C578.462936,0.5 579.134509,1.17157288 579.134509,2 C579.134509,2.82842712 578.462936,3.5 577.634509,3.5 L576.634509,3.5 Z M591.634509,3.5 C590.806082,3.5 590.134509,2.82842712 590.134509,2 C590.134509,1.17157288 590.806082,0.5 591.634509,0.5 L592.634509,0.5 C593.462936,0.5 594.134509,1.17157288 594.134509,2 C594.134509,2.82842712 593.462936,3.5 592.634509,3.5 L591.634509,3.5 Z M606.634509,3.5 C605.806082,3.5 605.134509,2.82842712 605.134509,2 C605.134509,1.17157288 605.806082,0.5 606.634509,0.5 L607.634509,0.5 C608.462936,0.5 609.134509,1.17157288 609.134509,2 C609.134509,2.82842712 608.462936,3.5 607.634509,3.5 L606.634509,3.5 Z M621.634509,3.5 C620.806082,3.5 620.134509,2.82842712 620.134509,2 C620.134509,1.17157288 620.806082,0.5 621.634509,0.5 L622.634509,0.5 C623.462936,0.5 624.134509,1.17157288 624.134509,2 C624.134509,2.82842712 623.462936,3.5 622.634509,3.5 L621.634509,3.5 Z M636.634509,3.5 C635.806082,3.5 635.134509,2.82842712 635.134509,2 C635.134509,1.17157288 635.806082,0.5 636.634509,0.5 L637.634509,0.5 C638.462936,0.5 639.134509,1.17157288 639.134509,2 C639.134509,2.82842712 638.462936,3.5 637.634509,3.5 L636.634509,3.5 Z M651.634509,3.5 C650.806082,3.5 650.134509,2.82842712 650.134509,2 C650.134509,1.17157288 650.806082,0.5 651.634509,0.5 L652.634509,0.5 C653.462936,0.5 654.134509,1.17157288 654.134509,2 C654.134509,2.82842712 653.462936,3.5 652.634509,3.5 L651.634509,3.5 Z M666.634509,3.5 C665.806082,3.5 665.134509,2.82842712 665.134509,2 C665.134509,1.17157288 665.806082,0.5 666.634509,0.5 L667.634509,0.5 C668.462936,0.5 669.134509,1.17157288 669.134509,2 C669.134509,2.82842712 668.462936,3.5 667.634509,3.5 L666.634509,3.5 Z M681.634509,3.5 C680.806082,3.5 680.134509,2.82842712 680.134509,2 C680.134509,1.17157288 680.806082,0.5 681.634509,0.5 L682.634509,0.5 C683.462936,0.5 684.134509,1.17157288 684.134509,2 C684.134509,2.82842712 683.462936,3.5 682.634509,3.5 L681.634509,3.5 Z M696.634509,3.5 C695.806082,3.5 695.134509,2.82842712 695.134509,2 C695.134509,1.17157288 695.806082,0.5 696.634509,0.5 L697.634509,0.5 C698.462936,0.5 699.134509,1.17157288 699.134509,2 C699.134509,2.82842712 698.462936,3.5 697.634509,3.5 L696.634509,3.5 Z M711.634509,3.5 C710.806082,3.5 710.134509,2.82842712 710.134509,2 C710.134509,1.17157288 710.806082,0.5 711.634509,0.5 L712.634509,0.5 C713.462936,0.5 714.134509,1.17157288 714.134509,2 C714.134509,2.82842712 713.462936,3.5 712.634509,3.5 L711.634509,3.5 Z M726.634509,3.5 C725.806082,3.5 725.134509,2.82842712 725.134509,2 C725.134509,1.17157288 725.806082,0.5 726.634509,0.5 L727.634509,0.5 C728.462936,0.5 729.134509,1.17157288 729.134509,2 C729.134509,2.82842712 728.462936,3.5 727.634509,3.5 L726.634509,3.5 Z M741.634509,3.5 C740.806082,3.5 740.134509,2.82842712 740.134509,2 C740.134509,1.17157288 740.806082,0.5 741.634509,0.5 L742.634509,0.5 C743.462936,0.5 744.134509,1.17157288 744.134509,2 C744.134509,2.82842712 743.462936,3.5 742.634509,3.5 L741.634509,3.5 Z M756.634509,3.5 C755.806082,3.5 755.134509,2.82842712 755.134509,2 C755.134509,1.17157288 755.806082,0.5 756.634509,0.5 L757.634509,0.5 C758.462936,0.5 759.134509,1.17157288 759.134509,2 C759.134509,2.82842712 758.462936,3.5 757.634509,3.5 L756.634509,3.5 Z M771.634509,3.5 C770.806082,3.5 770.134509,2.82842712 770.134509,2 C770.134509,1.17157288 770.806082,0.5 771.634509,0.5 L772.634509,0.5 C773.462936,0.5 774.134509,1.17157288 774.134509,2 C774.134509,2.82842712 773.462936,3.5 772.634509,3.5 L771.634509,3.5 Z M786.634509,3.5 C785.806082,3.5 785.134509,2.82842712 785.134509,2 C785.134509,1.17157288 785.806082,0.5 786.634509,0.5 L787.634509,0.5 C788.462936,0.5 789.134509,1.17157288 789.134509,2 C789.134509,2.82842712 788.462936,3.5 787.634509,3.5 L786.634509,3.5 Z M801.634509,3.5 C800.806082,3.5 800.134509,2.82842712 800.134509,2 C800.134509,1.17157288 800.806082,0.5 801.634509,0.5 L802.634509,0.5 C803.462936,0.5 804.134509,1.17157288 804.134509,2 C804.134509,2.82842712 803.462936,3.5 802.634509,3.5 L801.634509,3.5 Z M816.634509,3.5 C815.806082,3.5 815.134509,2.82842712 815.134509,2 C815.134509,1.17157288 815.806082,0.5 816.634509,0.5 L817.634509,0.5 C818.462936,0.5 819.134509,1.17157288 819.134509,2 C819.134509,2.82842712 818.462936,3.5 817.634509,3.5 L816.634509,3.5 Z M831.634509,3.5 C830.806082,3.5 830.134509,2.82842712 830.134509,2 C830.134509,1.17157288 830.806082,0.5 831.634509,0.5 L832.634509,0.5 C833.462936,0.5 834.134509,1.17157288 834.134509,2 C834.134509,2.82842712 833.462936,3.5 832.634509,3.5 L831.634509,3.5 Z M846.634509,3.5 C845.806082,3.5 845.134509,2.82842712 845.134509,2 C845.134509,1.17157288 845.806082,0.5 846.634509,0.5 L847.634509,0.5 C848.462936,0.5 849.134509,1.17157288 849.134509,2 C849.134509,2.82842712 848.462936,3.5 847.634509,3.5 L846.634509,3.5 Z M861.634509,3.5 C860.806082,3.5 860.134509,2.82842712 860.134509,2 C860.134509,1.17157288 860.806082,0.5 861.634509,0.5 L862.634509,0.5 C863.462936,0.5 864.134509,1.17157288 864.134509,2 C864.134509,2.82842712 863.462936,3.5 862.634509,3.5 L861.634509,3.5 Z M867.5,12.2690175 C867.5,11.4405904 868.171573,10.7690175 869,10.7690175 C869.828427,10.7690175 870.5,11.4405904 870.5,12.2690175 L870.5,13.2690175 C870.5,14.0974446 869.828427,14.7690175 869,14.7690175 C868.171573,14.7690175 867.5,14.0974446 867.5,13.2690175 L867.5,12.2690175 Z M867.5,27.2690175 C867.5,26.4405904 868.171573,25.7690175 869,25.7690175 C869.828427,25.7690175 870.5,26.4405904 870.5,27.2690175 L870.5,28.2690175 C870.5,29.0974446 869.828427,29.7690175 869,29.7690175 C868.171573,29.7690175 867.5,29.0974446 867.5,28.2690175 L867.5,27.2690175 Z M867.5,42.2690175 C867.5,41.4405904 868.171573,40.7690175 869,40.7690175 C869.828427,40.7690175 870.5,41.4405904 870.5,42.2690175 L870.5,43.2690175 C870.5,44.0974446 869.828427,44.7690175 869,44.7690175 C868.171573,44.7690175 867.5,44.0974446 867.5,43.2690175 L867.5,42.2690175 Z M867.5,57.2690175 C867.5,56.4405904 868.171573,55.7690175 869,55.7690175 C869.828427,55.7690175 870.5,56.4405904 870.5,57.2690175 L870.5,58.2690175 C870.5,59.0974446 869.828427,59.7690175 869,59.7690175 C868.171573,59.7690175 867.5,59.0974446 867.5,58.2690175 L867.5,57.2690175 Z M867.5,72.2690175 C867.5,71.4405904 868.171573,70.7690175 869,70.7690175 C869.828427,70.7690175 870.5,71.4405904 870.5,72.2690175 L870.5,73.2690175 C870.5,74.0974446 869.828427,74.7690175 869,74.7690175 C868.171573,74.7690175 867.5,74.0974446 867.5,73.2690175 L867.5,72.2690175 Z M867.5,87.2690175 C867.5,86.4405904 868.171573,85.7690175 869,85.7690175 C869.828427,85.7690175 870.5,86.4405904 870.5,87.2690175 L870.5,88.2690175 C870.5,89.0974446 869.828427,89.7690175 869,89.7690175 C868.171573,89.7690175 867.5,89.0974446 867.5,88.2690175 L867.5,87.2690175 Z M867.5,102.269017 C867.5,101.44059 868.171573,100.769017 869,100.769017 C869.828427,100.769017 870.5,101.44059 870.5,102.269017 L870.5,103.269017 C870.5,104.097445 869.828427,104.769017 869,104.769017 C868.171573,104.769017 867.5,104.097445 867.5,103.269017 L867.5,102.269017 Z M867.5,117.269017 C867.5,116.44059 868.171573,115.769017 869,115.769017 C869.828427,115.769017 870.5,116.44059 870.5,117.269017 L870.5,118.269017 C870.5,119.097445 869.828427,119.769017 869,119.769017 C868.171573,119.769017 867.5,119.097445 867.5,118.269017 L867.5,117.269017 Z M867.5,132.269017 C867.5,131.44059 868.171573,130.769017 869,130.769017 C869.828427,130.769017 870.5,131.44059 870.5,132.269017 L870.5,133.269017 C870.5,134.097445 869.828427,134.769017 869,134.769017 C868.171573,134.769017 867.5,134.097445 867.5,133.269017 L867.5,132.269017 Z M867.5,147.269017 C867.5,146.44059 868.171573,145.769017 869,145.769017 C869.828427,145.769017 870.5,146.44059 870.5,147.269017 L870.5,148.269017 C870.5,149.097445 869.828427,149.769017 869,149.769017 C868.171573,149.769017 867.5,149.097445 867.5,148.269017 L867.5,147.269017 Z M867.5,162.269017 C867.5,161.44059 868.171573,160.769017 869,160.769017 C869.828427,160.769017 870.5,161.44059 870.5,162.269017 L870.5,163.269017 C870.5,164.097445 869.828427,164.769017 869,164.769017 C868.171573,164.769017 867.5,164.097445 867.5,163.269017 L867.5,162.269017 Z M867.5,177.269017 C867.5,176.44059 868.171573,175.769017 869,175.769017 C869.828427,175.769017 870.5,176.44059 870.5,177.269017 L870.5,178.269017 C870.5,179.097445 869.828427,179.769017 869,179.769017 C868.171573,179.769017 867.5,179.097445 867.5,178.269017 L867.5,177.269017 Z M867.5,192.269017 C867.5,191.44059 868.171573,190.769017 869,190.769017 C869.828427,190.769017 870.5,191.44059 870.5,192.269017 L870.5,193.269017 C870.5,194.097445 869.828427,194.769017 869,194.769017 C868.171573,194.769017 867.5,194.097445 867.5,193.269017 L867.5,192.269017 Z M867.5,207.269017 C867.5,206.44059 868.171573,205.769017 869,205.769017 C869.828427,205.769017 870.5,206.44059 870.5,207.269017 L870.5,208.269017 C870.5,209.097445 869.828427,209.769017 869,209.769017 C868.171573,209.769017 867.5,209.097445 867.5,208.269017 L867.5,207.269017 Z M867.5,222.269017 C867.5,221.44059 868.171573,220.769017 869,220.769017 C869.828427,220.769017 870.5,221.44059 870.5,222.269017 L870.5,223.269017 C870.5,224.097445 869.828427,224.769017 869,224.769017 C868.171573,224.769017 867.5,224.097445 867.5,223.269017 L867.5,222.269017 Z M867.5,237.269017 C867.5,236.44059 868.171573,235.769017 869,235.769017 C869.828427,235.769017 870.5,236.44059 870.5,237.269017 L870.5,238.269017 C870.5,239.097445 869.828427,239.769017 869,239.769017 C868.171573,239.769017 867.5,239.097445 867.5,238.269017 L867.5,237.269017 Z M867.5,252.269017 C867.5,251.44059 868.171573,250.769017 869,250.769017 C869.828427,250.769017 870.5,251.44059 870.5,252.269017 L870.5,253.269017 C870.5,254.097445 869.828427,254.769017 869,254.769017 C868.171573,254.769017 867.5,254.097445 867.5,253.269017 L867.5,252.269017 Z M867.5,267.269017 C867.5,266.44059 868.171573,265.769017 869,265.769017 C869.828427,265.769017 870.5,266.44059 870.5,267.269017 L870.5,268.269017 C870.5,269.097445 869.828427,269.769017 869,269.769017 C868.171573,269.769017 867.5,269.097445 867.5,268.269017 L867.5,267.269017 Z M867.5,282.269017 C867.5,281.44059 868.171573,280.769017 869,280.769017 C869.828427,280.769017 870.5,281.44059 870.5,282.269017 L870.5,283.269017 C870.5,284.097445 869.828427,284.769017 869,284.769017 C868.171573,284.769017 867.5,284.097445 867.5,283.269017 L867.5,282.269017 Z M867.5,297.269017 C867.5,296.44059 868.171573,295.769017 869,295.769017 C869.828427,295.769017 870.5,296.44059 870.5,297.269017 L870.5,298.269017 C870.5,299.097445 869.828427,299.769017 869,299.769017 C868.171573,299.769017 867.5,299.097445 867.5,298.269017 L867.5,297.269017 Z M867.5,312.269017 C867.5,311.44059 868.171573,310.769017 869,310.769017 C869.828427,310.769017 870.5,311.44059 870.5,312.269017 L870.5,313.269017 C870.5,314.097445 869.828427,314.769017 869,314.769017 C868.171573,314.769017 867.5,314.097445 867.5,313.269017 L867.5,312.269017 Z M867.5,327.269017 C867.5,326.44059 868.171573,325.769017 869,325.769017 C869.828427,325.769017 870.5,326.44059 870.5,327.269017 L870.5,328.269017 C870.5,329.097445 869.828427,329.769017 869,329.769017 C868.171573,329.769017 867.5,329.097445 867.5,328.269017 L867.5,327.269017 Z M867.5,342.269017 C867.5,341.44059 868.171573,340.769017 869,340.769017 C869.828427,340.769017 870.5,341.44059 870.5,342.269017 L870.5,343.269017 C870.5,344.097445 869.828427,344.769017 869,344.769017 C868.171573,344.769017 867.5,344.097445 867.5,343.269017 L867.5,342.269017 Z M867.5,357.269017 C867.5,356.44059 868.171573,355.769017 869,355.769017 C869.828427,355.769017 870.5,356.44059 870.5,357.269017 L870.5,358.269017 C870.5,359.097445 869.828427,359.769017 869,359.769017 C868.171573,359.769017 867.5,359.097445 867.5,358.269017 L867.5,357.269017 Z M867.5,372.269017 C867.5,371.44059 868.171573,370.769017 869,370.769017 C869.828427,370.769017 870.5,371.44059 870.5,372.269017 L870.5,373.269017 C870.5,374.097445 869.828427,374.769017 869,374.769017 C868.171573,374.769017 867.5,374.097445 867.5,373.269017 L867.5,372.269017 Z M864.501426,384.243871 C865.282415,383.96756 866.139526,384.376682 866.415837,385.157671 C866.692148,385.93866 866.283026,386.795771 865.502037,387.072082 C865.109066,387.211113 864.704239,387.317255 864.291058,387.389046 C863.47486,387.530863 862.698236,386.984168 862.556419,386.16797 C862.414603,385.351772 862.961297,384.575147 863.777496,384.433331 C864.02467,384.390384 864.266593,384.326954 864.501426,384.243871 Z M850.096474,384.5 C850.924901,384.5 851.596474,385.171573 851.596474,386 C851.596474,386.828427 850.924901,387.5 850.096474,387.5 L849.096474,387.5 C848.268047,387.5 847.596474,386.828427 847.596474,386 C847.596474,385.171573 848.268047,384.5 849.096474,384.5 L850.096474,384.5 Z M835.096474,384.5 C835.924901,384.5 836.596474,385.171573 836.596474,386 C836.596474,386.828427 835.924901,387.5 835.096474,387.5 L834.096474,387.5 C833.268047,387.5 832.596474,386.828427 832.596474,386 C832.596474,385.171573 833.268047,384.5 834.096474,384.5 L835.096474,384.5 Z M820.096474,384.5 C820.924901,384.5 821.596474,385.171573 821.596474,386 C821.596474,386.828427 820.924901,387.5 820.096474,387.5 L819.096474,387.5 C818.268047,387.5 817.596474,386.828427 817.596474,386 C817.596474,385.171573 818.268047,384.5 819.096474,384.5 L820.096474,384.5 Z M805.096474,384.5 C805.924901,384.5 806.596474,385.171573 806.596474,386 C806.596474,386.828427 805.924901,387.5 805.096474,387.5 L804.096474,387.5 C803.268047,387.5 802.596474,386.828427 802.596474,386 C802.596474,385.171573 803.268047,384.5 804.096474,384.5 L805.096474,384.5 Z M790.096474,384.5 C790.924901,384.5 791.596474,385.171573 791.596474,386 C791.596474,386.828427 790.924901,387.5 790.096474,387.5 L789.096474,387.5 C788.268047,387.5 787.596474,386.828427 787.596474,386 C787.596474,385.171573 788.268047,384.5 789.096474,384.5 L790.096474,384.5 Z M775.096474,384.5 C775.924901,384.5 776.596474,385.171573 776.596474,386 C776.596474,386.828427 775.924901,387.5 775.096474,387.5 L774.096474,387.5 C773.268047,387.5 772.596474,386.828427 772.596474,386 C772.596474,385.171573 773.268047,384.5 774.096474,384.5 L775.096474,384.5 Z M760.096474,384.5 C760.924901,384.5 761.596474,385.171573 761.596474,386 C761.596474,386.828427 760.924901,387.5 760.096474,387.5 L759.096474,387.5 C758.268047,387.5 757.596474,386.828427 757.596474,386 C757.596474,385.171573 758.268047,384.5 759.096474,384.5 L760.096474,384.5 Z M745.096474,384.5 C745.924901,384.5 746.596474,385.171573 746.596474,386 C746.596474,386.828427 745.924901,387.5 745.096474,387.5 L744.096474,387.5 C743.268047,387.5 742.596474,386.828427 742.596474,386 C742.596474,385.171573 743.268047,384.5 744.096474,384.5 L745.096474,384.5 Z M730.096474,384.5 C730.924901,384.5 731.596474,385.171573 731.596474,386 C731.596474,386.828427 730.924901,387.5 730.096474,387.5 L729.096474,387.5 C728.268047,387.5 727.596474,386.828427 727.596474,386 C727.596474,385.171573 728.268047,384.5 729.096474,384.5 L730.096474,384.5 Z M715.096474,384.5 C715.924901,384.5 716.596474,385.171573 716.596474,386 C716.596474,386.828427 715.924901,387.5 715.096474,387.5 L714.096474,387.5 C713.268047,387.5 712.596474,386.828427 712.596474,386 C712.596474,385.171573 713.268047,384.5 714.096474,384.5 L715.096474,384.5 Z M700.096474,384.5 C700.924901,384.5 701.596474,385.171573 701.596474,386 C701.596474,386.828427 700.924901,387.5 700.096474,387.5 L699.096474,387.5 C698.268047,387.5 697.596474,386.828427 697.596474,386 C697.596474,385.171573 698.268047,384.5 699.096474,384.5 L700.096474,384.5 Z M685.096474,384.5 C685.924901,384.5 686.596474,385.171573 686.596474,386 C686.596474,386.828427 685.924901,387.5 685.096474,387.5 L684.096474,387.5 C683.268047,387.5 682.596474,386.828427 682.596474,386 C682.596474,385.171573 683.268047,384.5 684.096474,384.5 L685.096474,384.5 Z M670.096474,384.5 C670.924901,384.5 671.596474,385.171573 671.596474,386 C671.596474,386.828427 670.924901,387.5 670.096474,387.5 L669.096474,387.5 C668.268047,387.5 667.596474,386.828427 667.596474,386 C667.596474,385.171573 668.268047,384.5 669.096474,384.5 L670.096474,384.5 Z M655.096474,384.5 C655.924901,384.5 656.596474,385.171573 656.596474,386 C656.596474,386.828427 655.924901,387.5 655.096474,387.5 L654.096474,387.5 C653.268047,387.5 652.596474,386.828427 652.596474,386 C652.596474,385.171573 653.268047,384.5 654.096474,384.5 L655.096474,384.5 Z M640.096474,384.5 C640.924901,384.5 641.596474,385.171573 641.596474,386 C641.596474,386.828427 640.924901,387.5 640.096474,387.5 L639.096474,387.5 C638.268047,387.5 637.596474,386.828427 637.596474,386 C637.596474,385.171573 638.268047,384.5 639.096474,384.5 L640.096474,384.5 Z M625.096474,384.5 C625.924901,384.5 626.596474,385.171573 626.596474,386 C626.596474,386.828427 625.924901,387.5 625.096474,387.5 L624.096474,387.5 C623.268047,387.5 622.596474,386.828427 622.596474,386 C622.596474,385.171573 623.268047,384.5 624.096474,384.5 L625.096474,384.5 Z M610.096474,384.5 C610.924901,384.5 611.596474,385.171573 611.596474,386 C611.596474,386.828427 610.924901,387.5 610.096474,387.5 L609.096474,387.5 C608.268047,387.5 607.596474,386.828427 607.596474,386 C607.596474,385.171573 608.268047,384.5 609.096474,384.5 L610.096474,384.5 Z M595.096474,384.5 C595.924901,384.5 596.596474,385.171573 596.596474,386 C596.596474,386.828427 595.924901,387.5 595.096474,387.5 L594.096474,387.5 C593.268047,387.5 592.596474,386.828427 592.596474,386 C592.596474,385.171573 593.268047,384.5 594.096474,384.5 L595.096474,384.5 Z M580.096474,384.5 C580.924901,384.5 581.596474,385.171573 581.596474,386 C581.596474,386.828427 580.924901,387.5 580.096474,387.5 L579.096474,387.5 C578.268047,387.5 577.596474,386.828427 577.596474,386 C577.596474,385.171573 578.268047,384.5 579.096474,384.5 L580.096474,384.5 Z M565.096474,384.5 C565.924901,384.5 566.596474,385.171573 566.596474,386 C566.596474,386.828427 565.924901,387.5 565.096474,387.5 L564.096474,387.5 C563.268047,387.5 562.596474,386.828427 562.596474,386 C562.596474,385.171573 563.268047,384.5 564.096474,384.5 L565.096474,384.5 Z M550.096474,384.5 C550.924901,384.5 551.596474,385.171573 551.596474,386 C551.596474,386.828427 550.924901,387.5 550.096474,387.5 L549.096474,387.5 C548.268047,387.5 547.596474,386.828427 547.596474,386 C547.596474,385.171573 548.268047,384.5 549.096474,384.5 L550.096474,384.5 Z M535.096474,384.5 C535.924901,384.5 536.596474,385.171573 536.596474,386 C536.596474,386.828427 535.924901,387.5 535.096474,387.5 L534.096474,387.5 C533.268047,387.5 532.596474,386.828427 532.596474,386 C532.596474,385.171573 533.268047,384.5 534.096474,384.5 L535.096474,384.5 Z M520.096474,384.5 C520.924901,384.5 521.596474,385.171573 521.596474,386 C521.596474,386.828427 520.924901,387.5 520.096474,387.5 L519.096474,387.5 C518.268047,387.5 517.596474,386.828427 517.596474,386 C517.596474,385.171573 518.268047,384.5 519.096474,384.5 L520.096474,384.5 Z M505.096474,384.5 C505.924901,384.5 506.596474,385.171573 506.596474,386 C506.596474,386.828427 505.924901,387.5 505.096474,387.5 L504.096474,387.5 C503.268047,387.5 502.596474,386.828427 502.596474,386 C502.596474,385.171573 503.268047,384.5 504.096474,384.5 L505.096474,384.5 Z M490.096474,384.5 C490.924901,384.5 491.596474,385.171573 491.596474,386 C491.596474,386.828427 490.924901,387.5 490.096474,387.5 L489.096474,387.5 C488.268047,387.5 487.596474,386.828427 487.596474,386 C487.596474,385.171573 488.268047,384.5 489.096474,384.5 L490.096474,384.5 Z M475.096474,384.5 C475.924901,384.5 476.596474,385.171573 476.596474,386 C476.596474,386.828427 475.924901,387.5 475.096474,387.5 L474.096474,387.5 C473.268047,387.5 472.596474,386.828427 472.596474,386 C472.596474,385.171573 473.268047,384.5 474.096474,384.5 L475.096474,384.5 Z M460.096474,384.5 C460.924901,384.5 461.596474,385.171573 461.596474,386 C461.596474,386.828427 460.924901,387.5 460.096474,387.5 L459.096474,387.5 C458.268047,387.5 457.596474,386.828427 457.596474,386 C457.596474,385.171573 458.268047,384.5 459.096474,384.5 L460.096474,384.5 Z M445.096474,384.5 C445.924901,384.5 446.596474,385.171573 446.596474,386 C446.596474,386.828427 445.924901,387.5 445.096474,387.5 L444.096474,387.5 C443.268047,387.5 442.596474,386.828427 442.596474,386 C442.596474,385.171573 443.268047,384.5 444.096474,384.5 L445.096474,384.5 Z M430.096474,384.5 C430.924901,384.5 431.596474,385.171573 431.596474,386 C431.596474,386.828427 430.924901,387.5 430.096474,387.5 L429.096474,387.5 C428.268047,387.5 427.596474,386.828427 427.596474,386 C427.596474,385.171573 428.268047,384.5 429.096474,384.5 L430.096474,384.5 Z M415.096474,384.5 C415.924901,384.5 416.596474,385.171573 416.596474,386 C416.596474,386.828427 415.924901,387.5 415.096474,387.5 L414.096474,387.5 C413.268047,387.5 412.596474,386.828427 412.596474,386 C412.596474,385.171573 413.268047,384.5 414.096474,384.5 L415.096474,384.5 Z M400.096474,384.5 C400.924901,384.5 401.596474,385.171573 401.596474,386 C401.596474,386.828427 400.924901,387.5 400.096474,387.5 L399.096474,387.5 C398.268047,387.5 397.596474,386.828427 397.596474,386 C397.596474,385.171573 398.268047,384.5 399.096474,384.5 L400.096474,384.5 Z M385.096474,384.5 C385.924901,384.5 386.596474,385.171573 386.596474,386 C386.596474,386.828427 385.924901,387.5 385.096474,387.5 L384.096474,387.5 C383.268047,387.5 382.596474,386.828427 382.596474,386 C382.596474,385.171573 383.268047,384.5 384.096474,384.5 L385.096474,384.5 Z M370.096474,384.5 C370.924901,384.5 371.596474,385.171573 371.596474,386 C371.596474,386.828427 370.924901,387.5 370.096474,387.5 L369.096474,387.5 C368.268047,387.5 367.596474,386.828427 367.596474,386 C367.596474,385.171573 368.268047,384.5 369.096474,384.5 L370.096474,384.5 Z M355.096474,384.5 C355.924901,384.5 356.596474,385.171573 356.596474,386 C356.596474,386.828427 355.924901,387.5 355.096474,387.5 L354.096474,387.5 C353.268047,387.5 352.596474,386.828427 352.596474,386 C352.596474,385.171573 353.268047,384.5 354.096474,384.5 L355.096474,384.5 Z M340.096474,384.5 C340.924901,384.5 341.596474,385.171573 341.596474,386 C341.596474,386.828427 340.924901,387.5 340.096474,387.5 L339.096474,387.5 C338.268047,387.5 337.596474,386.828427 337.596474,386 C337.596474,385.171573 338.268047,384.5 339.096474,384.5 L340.096474,384.5 Z M325.096474,384.5 C325.924901,384.5 326.596474,385.171573 326.596474,386 C326.596474,386.828427 325.924901,387.5 325.096474,387.5 L324.096474,387.5 C323.268047,387.5 322.596474,386.828427 322.596474,386 C322.596474,385.171573 323.268047,384.5 324.096474,384.5 L325.096474,384.5 Z M310.096474,384.5 C310.924901,384.5 311.596474,385.171573 311.596474,386 C311.596474,386.828427 310.924901,387.5 310.096474,387.5 L309.096474,387.5 C308.268047,387.5 307.596474,386.828427 307.596474,386 C307.596474,385.171573 308.268047,384.5 309.096474,384.5 L310.096474,384.5 Z M295.096474,384.5 C295.924901,384.5 296.596474,385.171573 296.596474,386 C296.596474,386.828427 295.924901,387.5 295.096474,387.5 L294.096474,387.5 C293.268047,387.5 292.596474,386.828427 292.596474,386 C292.596474,385.171573 293.268047,384.5 294.096474,384.5 L295.096474,384.5 Z M280.096474,384.5 C280.924901,384.5 281.596474,385.171573 281.596474,386 C281.596474,386.828427 280.924901,387.5 280.096474,387.5 L279.096474,387.5 C278.268047,387.5 277.596474,386.828427 277.596474,386 C277.596474,385.171573 278.268047,384.5 279.096474,384.5 L280.096474,384.5 Z M265.096474,384.5 C265.924901,384.5 266.596474,385.171573 266.596474,386 C266.596474,386.828427 265.924901,387.5 265.096474,387.5 L264.096474,387.5 C263.268047,387.5 262.596474,386.828427 262.596474,386 C262.596474,385.171573 263.268047,384.5 264.096474,384.5 L265.096474,384.5 Z M250.096474,384.5 C250.924901,384.5 251.596474,385.171573 251.596474,386 C251.596474,386.828427 250.924901,387.5 250.096474,387.5 L249.096474,387.5 C248.268047,387.5 247.596474,386.828427 247.596474,386 C247.596474,385.171573 248.268047,384.5 249.096474,384.5 L250.096474,384.5 Z M235.096474,384.5 C235.924901,384.5 236.596474,385.171573 236.596474,386 C236.596474,386.828427 235.924901,387.5 235.096474,387.5 L234.096474,387.5 C233.268047,387.5 232.596474,386.828427 232.596474,386 C232.596474,385.171573 233.268047,384.5 234.096474,384.5 L235.096474,384.5 Z M220.096474,384.5 C220.924901,384.5 221.596474,385.171573 221.596474,386 C221.596474,386.828427 220.924901,387.5 220.096474,387.5 L219.096474,387.5 C218.268047,387.5 217.596474,386.828427 217.596474,386 C217.596474,385.171573 218.268047,384.5 219.096474,384.5 L220.096474,384.5 Z M205.096474,384.5 C205.924901,384.5 206.596474,385.171573 206.596474,386 C206.596474,386.828427 205.924901,387.5 205.096474,387.5 L204.096474,387.5 C203.268047,387.5 202.596474,386.828427 202.596474,386 C202.596474,385.171573 203.268047,384.5 204.096474,384.5 L205.096474,384.5 Z M190.096474,384.5 C190.924901,384.5 191.596474,385.171573 191.596474,386 C191.596474,386.828427 190.924901,387.5 190.096474,387.5 L189.096474,387.5 C188.268047,387.5 187.596474,386.828427 187.596474,386 C187.596474,385.171573 188.268047,384.5 189.096474,384.5 L190.096474,384.5 Z M175.096474,384.5 C175.924901,384.5 176.596474,385.171573 176.596474,386 C176.596474,386.828427 175.924901,387.5 175.096474,387.5 L174.096474,387.5 C173.268047,387.5 172.596474,386.828427 172.596474,386 C172.596474,385.171573 173.268047,384.5 174.096474,384.5 L175.096474,384.5 Z M160.096474,384.5 C160.924901,384.5 161.596474,385.171573 161.596474,386 C161.596474,386.828427 160.924901,387.5 160.096474,387.5 L159.096474,387.5 C158.268047,387.5 157.596474,386.828427 157.596474,386 C157.596474,385.171573 158.268047,384.5 159.096474,384.5 L160.096474,384.5 Z M145.096474,384.5 C145.924901,384.5 146.596474,385.171573 146.596474,386 C146.596474,386.828427 145.924901,387.5 145.096474,387.5 L144.096474,387.5 C143.268047,387.5 142.596474,386.828427 142.596474,386 C142.596474,385.171573 143.268047,384.5 144.096474,384.5 L145.096474,384.5 Z M130.096474,384.5 C130.924901,384.5 131.596474,385.171573 131.596474,386 C131.596474,386.828427 130.924901,387.5 130.096474,387.5 L129.096474,387.5 C128.268047,387.5 127.596474,386.828427 127.596474,386 C127.596474,385.171573 128.268047,384.5 129.096474,384.5 L130.096474,384.5 Z M115.096474,384.5 C115.924901,384.5 116.596474,385.171573 116.596474,386 C116.596474,386.828427 115.924901,387.5 115.096474,387.5 L114.096474,387.5 C113.268047,387.5 112.596474,386.828427 112.596474,386 C112.596474,385.171573 113.268047,384.5 114.096474,384.5 L115.096474,384.5 Z M100.096474,384.5 C100.924901,384.5 101.596474,385.171573 101.596474,386 C101.596474,386.828427 100.924901,387.5 100.096474,387.5 L99.0964738,387.5 C98.2680466,387.5 97.5964738,386.828427 97.5964738,386 C97.5964738,385.171573 98.2680466,384.5 99.0964738,384.5 L100.096474,384.5 Z M85.0964738,384.5 C85.9249009,384.5 86.5964738,385.171573 86.5964738,386 C86.5964738,386.828427 85.9249009,387.5 85.0964738,387.5 L84.0964738,387.5 C83.2680466,387.5 82.5964738,386.828427 82.5964738,386 C82.5964738,385.171573 83.2680466,384.5 84.0964738,384.5 L85.0964738,384.5 Z M70.0964738,384.5 C70.9249009,384.5 71.5964738,385.171573 71.5964738,386 C71.5964738,386.828427 70.9249009,387.5 70.0964738,387.5 L69.0964738,387.5 C68.2680466,387.5 67.5964738,386.828427 67.5964738,386 C67.5964738,385.171573 68.2680466,384.5 69.0964738,384.5 L70.0964738,384.5 Z M55.0964738,384.5 C55.9249009,384.5 56.5964738,385.171573 56.5964738,386 C56.5964738,386.828427 55.9249009,387.5 55.0964738,387.5 L54.0964738,387.5 C53.2680466,387.5 52.5964738,386.828427 52.5964738,386 C52.5964738,385.171573 53.2680466,384.5 54.0964738,384.5 L55.0964738,384.5 Z M40.0964738,384.5 C40.9249009,384.5 41.5964738,385.171573 41.5964738,386 C41.5964738,386.828427 40.9249009,387.5 40.0964738,387.5 L39.0964738,387.5 C38.2680466,387.5 37.5964738,386.828427 37.5964738,386 C37.5964738,385.171573 38.2680466,384.5 39.0964738,384.5 L40.0964738,384.5 Z M25.0964738,384.5 C25.9249009,384.5 26.5964738,385.171573 26.5964738,386 C26.5964738,386.828427 25.9249009,387.5 25.0964738,387.5 L24.0964738,387.5 C23.2680466,387.5 22.5964738,386.828427 22.5964738,386 C22.5964738,385.171573 23.2680466,384.5 24.0964738,384.5 L25.0964738,384.5 Z M10.0964738,384.5 C10.9249009,384.5 11.5964738,385.171573 11.5964738,386 C11.5964738,386.828427 10.9249009,387.5 10.0964738,387.5 L9.09647377,387.5 C8.26804664,387.5 7.59647377,386.828427 7.59647377,386 C7.59647377,385.171573 8.26804664,384.5 9.09647377,384.5 L10.0964738,384.5 Z M0,14.5 C0,13.6715729 0.671572875,13 1.5,13 C2.32842712,13 3,13.6715729 3,14.5 L3,15.5 C3,16.3284271 2.32842712,17 1.5,17 C0.671572875,17 0,16.3284271 0,15.5 L0,14.5 Z M0,29.5 C0,28.6715729 0.671572875,28 1.5,28 C2.32842712,28 3,28.6715729 3,29.5 L3,30.5 C3,31.3284271 2.32842712,32 1.5,32 C0.671572875,32 0,31.3284271 0,30.5 L0,29.5 Z M0,44.5 C0,43.6715729 0.671572875,43 1.5,43 C2.32842712,43 3,43.6715729 3,44.5 L3,45.5 C3,46.3284271 2.32842712,47 1.5,47 C0.671572875,47 0,46.3284271 0,45.5 L0,44.5 Z M0,59.5 C0,58.6715729 0.671572875,58 1.5,58 C2.32842712,58 3,58.6715729 3,59.5 L3,60.5 C3,61.3284271 2.32842712,62 1.5,62 C0.671572875,62 0,61.3284271 0,60.5 L0,59.5 Z M0,74.5 C0,73.6715729 0.671572875,73 1.5,73 C2.32842712,73 3,73.6715729 3,74.5 L3,75.5 C3,76.3284271 2.32842712,77 1.5,77 C0.671572875,77 0,76.3284271 0,75.5 L0,74.5 Z M0,89.5 C0,88.6715729 0.671572875,88 1.5,88 C2.32842712,88 3,88.6715729 3,89.5 L3,90.5 C3,91.3284271 2.32842712,92 1.5,92 C0.671572875,92 0,91.3284271 0,90.5 L0,89.5 Z M0,104.5 C0,103.671573 0.671572875,103 1.5,103 C2.32842712,103 3,103.671573 3,104.5 L3,105.5 C3,106.328427 2.32842712,107 1.5,107 C0.671572875,107 0,106.328427 0,105.5 L0,104.5 Z M0,119.5 C0,118.671573 0.671572875,118 1.5,118 C2.32842712,118 3,118.671573 3,119.5 L3,120.5 C3,121.328427 2.32842712,122 1.5,122 C0.671572875,122 0,121.328427 0,120.5 L0,119.5 Z M0,134.5 C0,133.671573 0.671572875,133 1.5,133 C2.32842712,133 3,133.671573 3,134.5 L3,135.5 C3,136.328427 2.32842712,137 1.5,137 C0.671572875,137 0,136.328427 0,135.5 L0,134.5 Z M0,149.5 C0,148.671573 0.671572875,148 1.5,148 C2.32842712,148 3,148.671573 3,149.5 L3,150.5 C3,151.328427 2.32842712,152 1.5,152 C0.671572875,152 0,151.328427 0,150.5 L0,149.5 Z M0,164.5 C0,163.671573 0.671572875,163 1.5,163 C2.32842712,163 3,163.671573 3,164.5 L3,165.5 C3,166.328427 2.32842712,167 1.5,167 C0.671572875,167 0,166.328427 0,165.5 L0,164.5 Z M0,179.5 C0,178.671573 0.671572875,178 1.5,178 C2.32842712,178 3,178.671573 3,179.5 L3,180.5 C3,181.328427 2.32842712,182 1.5,182 C0.671572875,182 0,181.328427 0,180.5 L0,179.5 Z M0,194.5 C0,193.671573 0.671572875,193 1.5,193 C2.32842712,193 3,193.671573 3,194.5 L3,195.5 C3,196.328427 2.32842712,197 1.5,197 C0.671572875,197 0,196.328427 0,195.5 L0,194.5 Z M0,209.5 C0,208.671573 0.671572875,208 1.5,208 C2.32842712,208 3,208.671573 3,209.5 L3,210.5 C3,211.328427 2.32842712,212 1.5,212 C0.671572875,212 0,211.328427 0,210.5 L0,209.5 Z M0,224.5 C0,223.671573 0.671572875,223 1.5,223 C2.32842712,223 3,223.671573 3,224.5 L3,225.5 C3,226.328427 2.32842712,227 1.5,227 C0.671572875,227 0,226.328427 0,225.5 L0,224.5 Z M0,239.5 C0,238.671573 0.671572875,238 1.5,238 C2.32842712,238 3,238.671573 3,239.5 L3,240.5 C3,241.328427 2.32842712,242 1.5,242 C0.671572875,242 0,241.328427 0,240.5 L0,239.5 Z M0,254.5 C0,253.671573 0.671572875,253 1.5,253 C2.32842712,253 3,253.671573 3,254.5 L3,255.5 C3,256.328427 2.32842712,257 1.5,257 C0.671572875,257 0,256.328427 0,255.5 L0,254.5 Z M0,269.5 C0,268.671573 0.671572875,268 1.5,268 C2.32842712,268 3,268.671573 3,269.5 L3,270.5 C3,271.328427 2.32842712,272 1.5,272 C0.671572875,272 0,271.328427 0,270.5 L0,269.5 Z M0,284.5 C0,283.671573 0.671572875,283 1.5,283 C2.32842712,283 3,283.671573 3,284.5 L3,285.5 C3,286.328427 2.32842712,287 1.5,287 C0.671572875,287 0,286.328427 0,285.5 L0,284.5 Z M0,299.5 C0,298.671573 0.671572875,298 1.5,298 C2.32842712,298 3,298.671573 3,299.5 L3,300.5 C3,301.328427 2.32842712,302 1.5,302 C0.671572875,302 0,301.328427 0,300.5 L0,299.5 Z M0,314.5 C0,313.671573 0.671572875,313 1.5,313 C2.32842712,313 3,313.671573 3,314.5 L3,315.5 C3,316.328427 2.32842712,317 1.5,317 C0.671572875,317 0,316.328427 0,315.5 L0,314.5 Z M0,329.5 C0,328.671573 0.671572875,328 1.5,328 C2.32842712,328 3,328.671573 3,329.5 L3,330.5 C3,331.328427 2.32842712,332 1.5,332 C0.671572875,332 0,331.328427 0,330.5 L0,329.5 Z M0,344.5 C0,343.671573 0.671572875,343 1.5,343 C2.32842712,343 3,343.671573 3,344.5 L3,345.5 C3,346.328427 2.32842712,347 1.5,347 C0.671572875,347 0,346.328427 0,345.5 L0,344.5 Z M0,359.5 C0,358.671573 0.671572875,358 1.5,358 C2.32842712,358 3,358.671573 3,359.5 L3,360.5 C3,361.328427 2.32842712,362 1.5,362 C0.671572875,362 0,361.328427 0,360.5 L0,359.5 Z M0,374.5 C0,373.671573 0.671572875,373 1.5,373 C2.32842712,373 3,373.671573 3,374.5 L3,375.5 C3,376.328427 2.32842712,377 1.5,377 C0.671572875,377 0,376.328427 0,375.5 L0,374.5 Z" id="Combined-Shape1" fill="#FE791A" fill-rule="nonzero"></path>
    </g>
</svg>