<?xml version="1.0" encoding="UTF-8" standalone="no"?><!DOCTYPE svg PUBLIC "-//W3C//DTD SVG 1.1//EN" "http://www.w3.org/Graphics/SVG/1.1/DTD/svg11.dtd"><svg width="100%" height="100%" viewBox="0 0 209 14" version="1.1" xmlns="http://www.w3.org/2000/svg" xmlns:xlink="http://www.w3.org/1999/xlink" xml:space="preserve" xmlns:serif="http://www.serif.com/" style="fill-rule:evenodd;clip-rule:evenodd;stroke-linejoin:round;stroke-miterlimit:1.41421;"><g transform="matrix(1,0,0,1,-20,-788)"><g transform="matrix(1,0,0,1,0,-4)"><g transform="matrix(1,0,0,1,19.5987,805)"><g id="CORPORATE-NETWORK"><path d="M3.825,-0.63C2.907,-1.158 2.202,-1.914 1.71,-2.898C1.218,-3.882 0.972,-5.034 0.972,-6.354C0.972,-7.674 1.218,-8.823 1.71,-9.801C2.202,-10.779 2.907,-11.532 3.825,-12.06C4.743,-12.588 5.814,-12.852 7.038,-12.852C7.83,-12.852 8.574,-12.735 9.27,-12.501C9.966,-12.267 10.584,-11.928 11.124,-11.484C11.28,-11.364 11.388,-11.238 11.448,-11.106C11.508,-10.974 11.538,-10.812 11.538,-10.62C11.538,-10.356 11.466,-10.134 11.322,-9.954C11.178,-9.774 11.004,-9.684 10.8,-9.684C10.56,-9.684 10.314,-9.768 10.062,-9.936C9.546,-10.32 9.066,-10.587 8.622,-10.737C8.178,-10.887 7.686,-10.962 7.146,-10.962C5.898,-10.962 4.953,-10.572 4.311,-9.792C3.669,-9.012 3.348,-7.866 3.348,-6.354C3.348,-4.83 3.669,-3.678 4.311,-2.898C4.953,-2.118 5.898,-1.728 7.146,-1.728C7.662,-1.728 8.139,-1.806 8.577,-1.962C9.015,-2.118 9.51,-2.382 10.062,-2.754C10.182,-2.826 10.302,-2.886 10.422,-2.934C10.542,-2.982 10.668,-3.006 10.8,-3.006C11.004,-3.006 11.178,-2.916 11.322,-2.736C11.466,-2.556 11.538,-2.334 11.538,-2.07C11.538,-1.89 11.508,-1.731 11.448,-1.593C11.388,-1.455 11.28,-1.326 11.124,-1.206C10.584,-0.762 9.966,-0.423 9.27,-0.189C8.574,0.045 7.83,0.162 7.038,0.162C5.814,0.162 4.743,-0.102 3.825,-0.63Z" style="fill:rgb(74,74,74);fill-rule:nonzero;"/><path d="M15.79,-0.63C14.884,-1.158 14.185,-1.914 13.693,-2.898C13.201,-3.882 12.955,-5.034 12.955,-6.354C12.955,-7.674 13.198,-8.823 13.684,-9.801C14.17,-10.779 14.869,-11.532 15.781,-12.06C16.693,-12.588 17.767,-12.852 19.003,-12.852C20.239,-12.852 21.31,-12.588 22.216,-12.06C23.122,-11.532 23.818,-10.779 24.304,-9.801C24.79,-8.823 25.033,-7.674 25.033,-6.354C25.033,-5.034 24.787,-3.882 24.295,-2.898C23.803,-1.914 23.104,-1.158 22.198,-0.63C21.292,-0.102 20.227,0.162 19.003,0.162C17.767,0.162 16.696,-0.102 15.79,-0.63ZM21.73,-2.898C22.384,-3.702 22.711,-4.854 22.711,-6.354C22.711,-7.854 22.384,-9.003 21.73,-9.801C21.076,-10.599 20.167,-10.998 19.003,-10.998C17.827,-10.998 16.912,-10.599 16.258,-9.801C15.604,-9.003 15.277,-7.854 15.277,-6.354C15.277,-4.854 15.604,-3.702 16.258,-2.898C16.912,-2.094 17.827,-1.692 19.003,-1.692C20.167,-1.692 21.076,-2.094 21.73,-2.898Z" style="fill:rgb(74,74,74);fill-rule:nonzero;"/><path d="M37.755,-0.828C37.755,-0.552 37.644,-0.324 37.422,-0.144C37.2,0.036 36.939,0.126 36.639,0.126C36.447,0.126 36.264,0.081 36.09,-0.009C35.916,-0.099 35.769,-0.234 35.649,-0.414L33.255,-4.05C33.015,-4.434 32.76,-4.704 32.49,-4.86C32.22,-5.016 31.869,-5.094 31.437,-5.094L29.673,-5.094L29.673,-1.062C29.673,-0.702 29.571,-0.417 29.367,-0.207C29.163,0.003 28.887,0.108 28.539,0.108C28.191,0.108 27.912,0.003 27.702,-0.207C27.492,-0.417 27.387,-0.702 27.387,-1.062L27.387,-11.592C27.387,-11.94 27.486,-12.21 27.684,-12.402C27.882,-12.594 28.155,-12.69 28.503,-12.69L33.003,-12.69C34.443,-12.69 35.538,-12.369 36.288,-11.727C37.038,-11.085 37.413,-10.158 37.413,-8.946C37.413,-7.962 37.134,-7.155 36.576,-6.525C36.018,-5.895 35.229,-5.49 34.209,-5.31C34.557,-5.226 34.863,-5.076 35.127,-4.86C35.391,-4.644 35.649,-4.344 35.901,-3.96L37.539,-1.458C37.683,-1.242 37.755,-1.032 37.755,-0.828ZM34.605,-7.371C35.013,-7.701 35.217,-8.208 35.217,-8.892C35.217,-9.588 35.013,-10.095 34.605,-10.413C34.197,-10.731 33.555,-10.89 32.679,-10.89L29.655,-10.89L29.655,-6.876L32.679,-6.876C33.555,-6.876 34.197,-7.041 34.605,-7.371Z" style="fill:rgb(74,74,74);fill-rule:nonzero;"/><path d="M40.225,-0.207C40.015,-0.417 39.91,-0.702 39.91,-1.062L39.91,-11.592C39.91,-11.94 40.009,-12.21 40.207,-12.402C40.405,-12.594 40.678,-12.69 41.026,-12.69L45.454,-12.69C46.81,-12.69 47.866,-12.351 48.622,-11.673C49.378,-10.995 49.756,-10.044 49.756,-8.82C49.756,-7.596 49.378,-6.642 48.622,-5.958C47.866,-5.274 46.81,-4.932 45.454,-4.932L42.232,-4.932L42.232,-1.062C42.232,-0.702 42.127,-0.417 41.917,-0.207C41.707,0.003 41.422,0.108 41.062,0.108C40.714,0.108 40.435,0.003 40.225,-0.207ZM45.166,-6.714C46.762,-6.714 47.56,-7.41 47.56,-8.802C47.56,-10.194 46.762,-10.89 45.166,-10.89L42.232,-10.89L42.232,-6.714L45.166,-6.714Z" style="fill:rgb(74,74,74);fill-rule:nonzero;"/><path d="M54.188,-0.63C53.282,-1.158 52.583,-1.914 52.091,-2.898C51.599,-3.882 51.353,-5.034 51.353,-6.354C51.353,-7.674 51.596,-8.823 52.082,-9.801C52.568,-10.779 53.267,-11.532 54.179,-12.06C55.091,-12.588 56.165,-12.852 57.401,-12.852C58.637,-12.852 59.708,-12.588 60.614,-12.06C61.52,-11.532 62.216,-10.779 62.702,-9.801C63.188,-8.823 63.431,-7.674 63.431,-6.354C63.431,-5.034 63.185,-3.882 62.693,-2.898C62.201,-1.914 61.502,-1.158 60.596,-0.63C59.69,-0.102 58.625,0.162 57.401,0.162C56.165,0.162 55.094,-0.102 54.188,-0.63ZM60.128,-2.898C60.782,-3.702 61.109,-4.854 61.109,-6.354C61.109,-7.854 60.782,-9.003 60.128,-9.801C59.474,-10.599 58.565,-10.998 57.401,-10.998C56.225,-10.998 55.31,-10.599 54.656,-9.801C54.002,-9.003 53.675,-7.854 53.675,-6.354C53.675,-4.854 54.002,-3.702 54.656,-2.898C55.31,-2.094 56.225,-1.692 57.401,-1.692C58.565,-1.692 59.474,-2.094 60.128,-2.898Z" style="fill:rgb(74,74,74);fill-rule:nonzero;"/><path d="M76.152,-0.828C76.152,-0.552 76.041,-0.324 75.819,-0.144C75.597,0.036 75.336,0.126 75.036,0.126C74.844,0.126 74.661,0.081 74.487,-0.009C74.313,-0.099 74.166,-0.234 74.046,-0.414L71.652,-4.05C71.412,-4.434 71.157,-4.704 70.887,-4.86C70.617,-5.016 70.266,-5.094 69.834,-5.094L68.07,-5.094L68.07,-1.062C68.07,-0.702 67.968,-0.417 67.764,-0.207C67.56,0.003 67.284,0.108 66.936,0.108C66.588,0.108 66.309,0.003 66.099,-0.207C65.889,-0.417 65.784,-0.702 65.784,-1.062L65.784,-11.592C65.784,-11.94 65.883,-12.21 66.081,-12.402C66.279,-12.594 66.552,-12.69 66.9,-12.69L71.4,-12.69C72.84,-12.69 73.935,-12.369 74.685,-11.727C75.435,-11.085 75.81,-10.158 75.81,-8.946C75.81,-7.962 75.531,-7.155 74.973,-6.525C74.415,-5.895 73.626,-5.49 72.606,-5.31C72.954,-5.226 73.26,-5.076 73.524,-4.86C73.788,-4.644 74.046,-4.344 74.298,-3.96L75.936,-1.458C76.08,-1.242 76.152,-1.032 76.152,-0.828ZM73.002,-7.371C73.41,-7.701 73.614,-8.208 73.614,-8.892C73.614,-9.588 73.41,-10.095 73.002,-10.413C72.594,-10.731 71.952,-10.89 71.076,-10.89L68.052,-10.89L68.052,-6.876L71.076,-6.876C71.952,-6.876 72.594,-7.041 73.002,-7.371Z" style="fill:rgb(74,74,74);fill-rule:nonzero;"/><path d="M89.774,-0.918C89.774,-0.642 89.663,-0.408 89.441,-0.216C89.219,-0.024 88.964,0.072 88.676,0.072C88.484,0.072 88.304,0.021 88.136,-0.081C87.968,-0.183 87.836,-0.342 87.74,-0.558L86.66,-2.97L80.324,-2.97L79.244,-0.558C79.148,-0.342 79.016,-0.183 78.848,-0.081C78.68,0.021 78.494,0.072 78.29,0.072C78.014,0.072 77.762,-0.024 77.534,-0.216C77.306,-0.408 77.192,-0.642 77.192,-0.918C77.192,-1.074 77.228,-1.23 77.3,-1.386L82.268,-12.06C82.376,-12.3 82.541,-12.483 82.763,-12.609C82.985,-12.735 83.222,-12.798 83.474,-12.798C83.726,-12.798 83.963,-12.735 84.185,-12.609C84.407,-12.483 84.572,-12.3 84.68,-12.06L89.666,-1.386C89.738,-1.23 89.774,-1.074 89.774,-0.918ZM81.116,-4.77L85.868,-4.77L83.492,-10.116L81.116,-4.77Z" style="fill:rgb(74,74,74);fill-rule:nonzero;"/><path d="M93.27,-0.225C93.06,-0.435 92.955,-0.714 92.955,-1.062L92.955,-10.782L89.679,-10.782C88.959,-10.782 88.599,-11.1 88.599,-11.736C88.599,-12.372 88.959,-12.69 89.679,-12.69L98.553,-12.69C99.273,-12.69 99.633,-12.372 99.633,-11.736C99.633,-11.1 99.273,-10.782 98.553,-10.782L95.277,-10.782L95.277,-1.062C95.277,-0.714 95.172,-0.435 94.962,-0.225C94.752,-0.015 94.473,0.09 94.125,0.09C93.765,0.09 93.48,-0.015 93.27,-0.225Z" style="fill:rgb(74,74,74);fill-rule:nonzero;"/><path d="M101.311,-0.288C101.113,-0.48 101.014,-0.75 101.014,-1.098L101.014,-11.592C101.014,-11.94 101.113,-12.21 101.311,-12.402C101.509,-12.594 101.782,-12.69 102.13,-12.69L108.628,-12.69C108.976,-12.69 109.246,-12.612 109.438,-12.456C109.63,-12.3 109.726,-12.078 109.726,-11.79C109.726,-11.49 109.63,-11.259 109.438,-11.097C109.246,-10.935 108.976,-10.854 108.628,-10.854L103.282,-10.854L103.282,-7.362L108.268,-7.362C108.616,-7.362 108.886,-7.284 109.078,-7.128C109.27,-6.972 109.366,-6.744 109.366,-6.444C109.366,-6.156 109.27,-5.934 109.078,-5.778C108.886,-5.622 108.616,-5.544 108.268,-5.544L103.282,-5.544L103.282,-1.836L108.628,-1.836C108.976,-1.836 109.246,-1.755 109.438,-1.593C109.63,-1.431 109.726,-1.2 109.726,-0.9C109.726,-0.612 109.63,-0.39 109.438,-0.234C109.246,-0.078 108.976,0 108.628,0L102.13,0C101.782,0 101.509,-0.096 101.311,-0.288Z" style="fill:rgb(74,74,74);fill-rule:nonzero;"/><path d="M126.934,-12.465C127.132,-12.255 127.231,-11.976 127.231,-11.628L127.231,-1.062C127.231,-0.714 127.129,-0.432 126.925,-0.216C126.721,0 126.457,0.108 126.133,0.108C125.749,0.108 125.455,-0.03 125.251,-0.306L118.681,-8.856L118.681,-1.062C118.681,-0.714 118.585,-0.432 118.393,-0.216C118.201,0 117.937,0.108 117.601,0.108C117.265,0.108 117.001,0 116.809,-0.216C116.617,-0.432 116.521,-0.714 116.521,-1.062L116.521,-11.628C116.521,-11.976 116.623,-12.255 116.827,-12.465C117.031,-12.675 117.301,-12.78 117.637,-12.78C118.009,-12.78 118.297,-12.642 118.501,-12.366L125.053,-3.852L125.053,-11.628C125.053,-11.976 125.152,-12.255 125.35,-12.465C125.548,-12.675 125.809,-12.78 126.133,-12.78C126.469,-12.78 126.736,-12.675 126.934,-12.465Z" style="fill:rgb(74,74,74);fill-rule:nonzero;"/><path d="M130.277,-0.288C130.079,-0.48 129.98,-0.75 129.98,-1.098L129.98,-11.592C129.98,-11.94 130.079,-12.21 130.277,-12.402C130.475,-12.594 130.748,-12.69 131.096,-12.69L137.594,-12.69C137.942,-12.69 138.212,-12.612 138.404,-12.456C138.596,-12.3 138.692,-12.078 138.692,-11.79C138.692,-11.49 138.596,-11.259 138.404,-11.097C138.212,-10.935 137.942,-10.854 137.594,-10.854L132.248,-10.854L132.248,-7.362L137.234,-7.362C137.582,-7.362 137.852,-7.284 138.044,-7.128C138.236,-6.972 138.332,-6.744 138.332,-6.444C138.332,-6.156 138.236,-5.934 138.044,-5.778C137.852,-5.622 137.582,-5.544 137.234,-5.544L132.248,-5.544L132.248,-1.836L137.594,-1.836C137.942,-1.836 138.212,-1.755 138.404,-1.593C138.596,-1.431 138.692,-1.2 138.692,-0.9C138.692,-0.612 138.596,-0.39 138.404,-0.234C138.212,-0.078 137.942,0 137.594,0L131.096,0C130.748,0 130.475,-0.096 130.277,-0.288Z" style="fill:rgb(74,74,74);fill-rule:nonzero;"/><path d="M143.916,-0.225C143.706,-0.435 143.601,-0.714 143.601,-1.062L143.601,-10.782L140.325,-10.782C139.605,-10.782 139.245,-11.1 139.245,-11.736C139.245,-12.372 139.605,-12.69 140.325,-12.69L149.199,-12.69C149.919,-12.69 150.279,-12.372 150.279,-11.736C150.279,-11.1 149.919,-10.782 149.199,-10.782L145.923,-10.782L145.923,-1.062C145.923,-0.714 145.818,-0.435 145.608,-0.225C145.398,-0.015 145.119,0.09 144.771,0.09C144.411,0.09 144.126,-0.015 143.916,-0.225Z" style="fill:rgb(74,74,74);fill-rule:nonzero;"/><path d="M168.338,-12.618C168.524,-12.738 168.731,-12.798 168.959,-12.798C169.247,-12.798 169.496,-12.708 169.706,-12.528C169.916,-12.348 170.021,-12.108 170.021,-11.808C170.021,-11.7 169.991,-11.544 169.931,-11.34L166.061,-0.63C165.965,-0.39 165.806,-0.204 165.584,-0.072C165.362,0.06 165.119,0.126 164.855,0.126C164.591,0.126 164.345,0.06 164.117,-0.072C163.889,-0.204 163.733,-0.39 163.649,-0.63L160.661,-9.108L157.619,-0.63C157.523,-0.39 157.364,-0.204 157.142,-0.072C156.92,0.06 156.677,0.126 156.413,0.126C156.149,0.126 155.906,0.06 155.684,-0.072C155.462,-0.204 155.309,-0.39 155.225,-0.63L151.355,-11.34C151.295,-11.52 151.265,-11.676 151.265,-11.808C151.265,-12.108 151.376,-12.348 151.598,-12.528C151.82,-12.708 152.081,-12.798 152.381,-12.798C152.621,-12.798 152.837,-12.738 153.029,-12.618C153.221,-12.498 153.359,-12.318 153.443,-12.078L156.503,-3.276L159.653,-12.024C159.737,-12.264 159.875,-12.453 160.067,-12.591C160.259,-12.729 160.469,-12.798 160.697,-12.798C160.925,-12.798 161.138,-12.729 161.336,-12.591C161.534,-12.453 161.675,-12.258 161.759,-12.006L164.819,-3.168L167.933,-12.078C168.017,-12.318 168.152,-12.498 168.338,-12.618Z" style="fill:rgb(74,74,74);fill-rule:nonzero;"/><path d="M174.129,-0.63C173.223,-1.158 172.524,-1.914 172.032,-2.898C171.54,-3.882 171.294,-5.034 171.294,-6.354C171.294,-7.674 171.537,-8.823 172.023,-9.801C172.509,-10.779 173.208,-11.532 174.12,-12.06C175.032,-12.588 176.106,-12.852 177.342,-12.852C178.578,-12.852 179.649,-12.588 180.555,-12.06C181.461,-11.532 182.157,-10.779 182.643,-9.801C183.129,-8.823 183.372,-7.674 183.372,-6.354C183.372,-5.034 183.126,-3.882 182.634,-2.898C182.142,-1.914 181.443,-1.158 180.537,-0.63C179.631,-0.102 178.566,0.162 177.342,0.162C176.106,0.162 175.035,-0.102 174.129,-0.63ZM180.069,-2.898C180.723,-3.702 181.05,-4.854 181.05,-6.354C181.05,-7.854 180.723,-9.003 180.069,-9.801C179.415,-10.599 178.506,-10.998 177.342,-10.998C176.166,-10.998 175.251,-10.599 174.597,-9.801C173.943,-9.003 173.616,-7.854 173.616,-6.354C173.616,-4.854 173.943,-3.702 174.597,-2.898C175.251,-2.094 176.166,-1.692 177.342,-1.692C178.506,-1.692 179.415,-2.094 180.069,-2.898Z" style="fill:rgb(74,74,74);fill-rule:nonzero;"/><path d="M196.093,-0.828C196.093,-0.552 195.982,-0.324 195.76,-0.144C195.538,0.036 195.277,0.126 194.977,0.126C194.785,0.126 194.602,0.081 194.428,-0.009C194.254,-0.099 194.107,-0.234 193.987,-0.414L191.593,-4.05C191.353,-4.434 191.098,-4.704 190.828,-4.86C190.558,-5.016 190.207,-5.094 189.775,-5.094L188.011,-5.094L188.011,-1.062C188.011,-0.702 187.909,-0.417 187.705,-0.207C187.501,0.003 187.225,0.108 186.877,0.108C186.529,0.108 186.25,0.003 186.04,-0.207C185.83,-0.417 185.725,-0.702 185.725,-1.062L185.725,-11.592C185.725,-11.94 185.824,-12.21 186.022,-12.402C186.22,-12.594 186.493,-12.69 186.841,-12.69L191.341,-12.69C192.781,-12.69 193.876,-12.369 194.626,-11.727C195.376,-11.085 195.751,-10.158 195.751,-8.946C195.751,-7.962 195.472,-7.155 194.914,-6.525C194.356,-5.895 193.567,-5.49 192.547,-5.31C192.895,-5.226 193.201,-5.076 193.465,-4.86C193.729,-4.644 193.987,-4.344 194.239,-3.96L195.877,-1.458C196.021,-1.242 196.093,-1.032 196.093,-0.828ZM192.943,-7.371C193.351,-7.701 193.555,-8.208 193.555,-8.892C193.555,-9.588 193.351,-10.095 192.943,-10.413C192.535,-10.731 191.893,-10.89 191.017,-10.89L187.993,-10.89L187.993,-6.876L191.017,-6.876C191.893,-6.876 192.535,-7.041 192.943,-7.371Z" style="fill:rgb(74,74,74);fill-rule:nonzero;"/><path d="M208.455,-0.972C208.455,-0.696 208.35,-0.453 208.14,-0.243C207.93,-0.033 207.681,0.072 207.393,0.072C207.093,0.072 206.817,-0.054 206.565,-0.306L200.571,-5.922L200.571,-1.062C200.571,-0.714 200.466,-0.432 200.256,-0.216C200.046,0 199.761,0.108 199.401,0.108C199.053,0.108 198.774,0 198.564,-0.216C198.354,-0.432 198.249,-0.714 198.249,-1.062L198.249,-11.628C198.249,-11.976 198.354,-12.255 198.564,-12.465C198.774,-12.675 199.053,-12.78 199.401,-12.78C199.761,-12.78 200.046,-12.675 200.256,-12.465C200.466,-12.255 200.571,-11.976 200.571,-11.628L200.571,-7.002L206.367,-12.438C206.583,-12.654 206.829,-12.762 207.105,-12.762C207.381,-12.762 207.624,-12.657 207.834,-12.447C208.044,-12.237 208.149,-11.994 208.149,-11.718C208.149,-11.442 208.029,-11.19 207.789,-10.962L202.947,-6.534L208.095,-1.746C208.335,-1.518 208.455,-1.26 208.455,-0.972Z" style="fill:rgb(74,74,74);fill-rule:nonzero;"/></g></g></g></g></svg>