<?xml version="1.0" encoding="UTF-8" standalone="no"?><!DOCTYPE svg PUBLIC "-//W3C//DTD SVG 1.1//EN" "http://www.w3.org/Graphics/SVG/1.1/DTD/svg11.dtd"><svg width="100%" height="100%" viewBox="0 0 211 66" version="1.1" xmlns="http://www.w3.org/2000/svg" xmlns:xlink="http://www.w3.org/1999/xlink" xml:space="preserve" xmlns:serif="http://www.serif.com/" style="fill-rule:evenodd;clip-rule:evenodd;stroke-linejoin:round;stroke-miterlimit:1.41421;"><g transform="matrix(1,0,0,1,-624,-710)"><g transform="matrix(1,0,0,1,0,-4)"><g id="Secure-Mobile-Access-Copy-4"><g transform="matrix(1,0,0,1,623.246,727)"><path d="M3.033,-0.261C2.211,-0.531 1.554,-0.894 1.062,-1.35C0.882,-1.518 0.792,-1.728 0.792,-1.98C0.792,-2.148 0.84,-2.295 0.936,-2.421C1.032,-2.547 1.146,-2.61 1.278,-2.61C1.434,-2.61 1.602,-2.544 1.782,-2.412C2.898,-1.548 4.17,-1.116 5.598,-1.116C6.63,-1.116 7.422,-1.314 7.974,-1.71C8.526,-2.106 8.802,-2.67 8.802,-3.402C8.802,-3.822 8.67,-4.161 8.406,-4.419C8.142,-4.677 7.794,-4.884 7.362,-5.04C6.93,-5.196 6.348,-5.358 5.616,-5.526C4.632,-5.754 3.825,-5.994 3.195,-6.246C2.565,-6.498 2.055,-6.858 1.665,-7.326C1.275,-7.794 1.08,-8.406 1.08,-9.162C1.08,-9.882 1.275,-10.521 1.665,-11.079C2.055,-11.637 2.601,-12.069 3.303,-12.375C4.005,-12.681 4.806,-12.834 5.706,-12.834C6.546,-12.834 7.329,-12.705 8.055,-12.447C8.781,-12.189 9.39,-11.82 9.882,-11.34C10.074,-11.148 10.17,-10.938 10.17,-10.71C10.17,-10.542 10.122,-10.395 10.026,-10.269C9.93,-10.143 9.816,-10.08 9.684,-10.08C9.552,-10.08 9.378,-10.146 9.162,-10.278C8.574,-10.758 8.028,-11.094 7.524,-11.286C7.02,-11.478 6.414,-11.574 5.706,-11.574C4.71,-11.574 3.936,-11.367 3.384,-10.953C2.832,-10.539 2.556,-9.96 2.556,-9.216C2.556,-8.58 2.799,-8.103 3.285,-7.785C3.771,-7.467 4.518,-7.188 5.526,-6.948C6.618,-6.684 7.476,-6.441 8.1,-6.219C8.724,-5.997 9.243,-5.664 9.657,-5.22C10.071,-4.776 10.278,-4.182 10.278,-3.438C10.278,-2.73 10.083,-2.106 9.693,-1.566C9.303,-1.026 8.754,-0.606 8.046,-0.306C7.338,-0.006 6.528,0.144 5.616,0.144C4.716,0.144 3.855,0.009 3.033,-0.261Z" style="fill-rule:nonzero;"/><path d="M19.597,-1.872C19.693,-1.764 19.741,-1.626 19.741,-1.458C19.741,-1.158 19.531,-0.882 19.111,-0.63C18.679,-0.378 18.223,-0.189 17.743,-0.063C17.263,0.063 16.795,0.126 16.339,0.126C14.983,0.126 13.912,-0.276 13.126,-1.08C12.34,-1.884 11.947,-2.994 11.947,-4.41C11.947,-5.31 12.121,-6.105 12.469,-6.795C12.817,-7.485 13.306,-8.022 13.936,-8.406C14.566,-8.79 15.283,-8.982 16.087,-8.982C17.227,-8.982 18.133,-8.61 18.805,-7.866C19.477,-7.122 19.813,-6.114 19.813,-4.842C19.813,-4.602 19.765,-4.428 19.669,-4.32C19.573,-4.212 19.417,-4.158 19.201,-4.158L13.405,-4.158C13.513,-2.094 14.491,-1.062 16.339,-1.062C16.807,-1.062 17.209,-1.125 17.545,-1.251C17.881,-1.377 18.241,-1.548 18.625,-1.764C18.937,-1.944 19.147,-2.034 19.255,-2.034C19.387,-2.034 19.501,-1.98 19.597,-1.872ZM14.26,-7.128C13.798,-6.648 13.525,-5.97 13.441,-5.094L18.535,-5.094C18.511,-5.982 18.289,-6.663 17.869,-7.137C17.449,-7.611 16.861,-7.848 16.105,-7.848C15.337,-7.848 14.722,-7.608 14.26,-7.128Z" style="fill-rule:nonzero;"/><path d="M23.418,-0.432C22.788,-0.804 22.302,-1.332 21.96,-2.016C21.618,-2.7 21.447,-3.492 21.447,-4.392C21.447,-5.292 21.624,-6.09 21.978,-6.786C22.332,-7.482 22.827,-8.022 23.463,-8.406C24.099,-8.79 24.831,-8.982 25.659,-8.982C26.115,-8.982 26.568,-8.919 27.018,-8.793C27.468,-8.667 27.861,-8.484 28.197,-8.244C28.413,-8.1 28.566,-7.959 28.656,-7.821C28.746,-7.683 28.791,-7.53 28.791,-7.362C28.791,-7.194 28.746,-7.056 28.656,-6.948C28.566,-6.84 28.449,-6.786 28.305,-6.786C28.221,-6.786 28.131,-6.81 28.035,-6.858C27.939,-6.906 27.858,-6.954 27.792,-7.002C27.726,-7.05 27.681,-7.08 27.657,-7.092C27.345,-7.296 27.048,-7.458 26.766,-7.578C26.484,-7.698 26.139,-7.758 25.731,-7.758C24.855,-7.758 24.174,-7.461 23.688,-6.867C23.202,-6.273 22.959,-5.448 22.959,-4.392C22.959,-3.336 23.202,-2.52 23.688,-1.944C24.174,-1.368 24.855,-1.08 25.731,-1.08C26.139,-1.08 26.49,-1.14 26.784,-1.26C27.078,-1.38 27.375,-1.542 27.675,-1.746C27.807,-1.83 27.933,-1.902 28.053,-1.962C28.173,-2.022 28.275,-2.052 28.359,-2.052C28.491,-2.052 28.602,-1.998 28.692,-1.89C28.782,-1.782 28.827,-1.644 28.827,-1.476C28.827,-1.32 28.785,-1.179 28.701,-1.053C28.617,-0.927 28.461,-0.786 28.233,-0.63C27.897,-0.402 27.492,-0.219 27.018,-0.081C26.544,0.057 26.067,0.126 25.587,0.126C24.771,0.126 24.048,-0.06 23.418,-0.432Z" style="fill-rule:nonzero;"/><path d="M37.795,-8.748C37.921,-8.616 37.984,-8.442 37.984,-8.226L37.984,-0.612C37.984,-0.408 37.921,-0.24 37.795,-0.108C37.669,0.024 37.492,0.09 37.264,0.09C37.048,0.09 36.877,0.027 36.751,-0.099C36.625,-0.225 36.562,-0.39 36.562,-0.594L36.562,-1.494C36.286,-0.966 35.899,-0.564 35.401,-0.288C34.903,-0.012 34.342,0.126 33.718,0.126C32.674,0.126 31.888,-0.165 31.36,-0.747C30.832,-1.329 30.568,-2.19 30.568,-3.33L30.568,-8.226C30.568,-8.442 30.634,-8.616 30.766,-8.748C30.898,-8.88 31.078,-8.946 31.306,-8.946C31.534,-8.946 31.711,-8.88 31.837,-8.748C31.963,-8.616 32.026,-8.442 32.026,-8.226L32.026,-3.366C32.026,-2.586 32.182,-2.013 32.494,-1.647C32.806,-1.281 33.298,-1.098 33.97,-1.098C34.738,-1.098 35.356,-1.347 35.824,-1.845C36.292,-2.343 36.526,-3 36.526,-3.816L36.526,-8.226C36.526,-8.442 36.592,-8.616 36.724,-8.748C36.856,-8.88 37.036,-8.946 37.264,-8.946C37.492,-8.946 37.669,-8.88 37.795,-8.748Z" style="fill-rule:nonzero;"/><path d="M45.809,-8.334C45.809,-8.142 45.755,-7.989 45.647,-7.875C45.539,-7.761 45.353,-7.692 45.089,-7.668L44.549,-7.614C43.745,-7.542 43.148,-7.257 42.758,-6.759C42.368,-6.261 42.173,-5.676 42.173,-5.004L42.173,-0.63C42.173,-0.39 42.107,-0.21 41.975,-0.09C41.843,0.03 41.669,0.09 41.453,0.09C41.237,0.09 41.06,0.027 40.922,-0.099C40.784,-0.225 40.715,-0.402 40.715,-0.63L40.715,-8.226C40.715,-8.454 40.787,-8.631 40.931,-8.757C41.075,-8.883 41.249,-8.946 41.453,-8.946C41.645,-8.946 41.807,-8.883 41.939,-8.757C42.071,-8.631 42.137,-8.46 42.137,-8.244L42.137,-7.236C42.389,-7.764 42.746,-8.166 43.208,-8.442C43.67,-8.718 44.201,-8.88 44.801,-8.928L45.053,-8.946C45.557,-8.982 45.809,-8.778 45.809,-8.334Z" style="fill-rule:nonzero;"/><path d="M54.03,-1.872C54.126,-1.764 54.174,-1.626 54.174,-1.458C54.174,-1.158 53.964,-0.882 53.544,-0.63C53.112,-0.378 52.656,-0.189 52.176,-0.063C51.696,0.063 51.228,0.126 50.772,0.126C49.416,0.126 48.345,-0.276 47.559,-1.08C46.773,-1.884 46.38,-2.994 46.38,-4.41C46.38,-5.31 46.554,-6.105 46.902,-6.795C47.25,-7.485 47.739,-8.022 48.369,-8.406C48.999,-8.79 49.716,-8.982 50.52,-8.982C51.66,-8.982 52.566,-8.61 53.238,-7.866C53.91,-7.122 54.246,-6.114 54.246,-4.842C54.246,-4.602 54.198,-4.428 54.102,-4.32C54.006,-4.212 53.85,-4.158 53.634,-4.158L47.838,-4.158C47.946,-2.094 48.924,-1.062 50.772,-1.062C51.24,-1.062 51.642,-1.125 51.978,-1.251C52.314,-1.377 52.674,-1.548 53.058,-1.764C53.37,-1.944 53.58,-2.034 53.688,-2.034C53.82,-2.034 53.934,-1.98 54.03,-1.872ZM48.693,-7.128C48.231,-6.648 47.958,-5.97 47.874,-5.094L52.968,-5.094C52.944,-5.982 52.722,-6.663 52.302,-7.137C51.882,-7.611 51.294,-7.848 50.538,-7.848C49.77,-7.848 49.155,-7.608 48.693,-7.128Z" style="fill-rule:nonzero;"/><path d="M73.074,-12.573C73.2,-12.435 73.263,-12.252 73.263,-12.024L73.263,-0.63C73.263,-0.414 73.203,-0.24 73.083,-0.108C72.963,0.024 72.795,0.09 72.579,0.09C72.363,0.09 72.201,0.024 72.093,-0.108C71.985,-0.24 71.931,-0.414 71.931,-0.63L71.931,-9.828L68.025,-2.34C67.857,-1.992 67.611,-1.818 67.287,-1.818C66.975,-1.818 66.729,-1.992 66.549,-2.34L62.625,-9.738L62.625,-0.63C62.625,-0.414 62.568,-0.24 62.454,-0.108C62.34,0.024 62.175,0.09 61.959,0.09C61.743,0.09 61.575,0.024 61.455,-0.108C61.335,-0.24 61.275,-0.414 61.275,-0.63L61.275,-12.024C61.275,-12.252 61.341,-12.435 61.473,-12.573C61.605,-12.711 61.785,-12.78 62.013,-12.78C62.313,-12.78 62.553,-12.606 62.733,-12.258L67.305,-3.492L71.823,-12.258C71.919,-12.45 72.024,-12.585 72.138,-12.663C72.252,-12.741 72.387,-12.78 72.543,-12.78C72.771,-12.78 72.948,-12.711 73.074,-12.573Z" style="fill-rule:nonzero;"/><path d="M77.659,-0.432C77.029,-0.804 76.543,-1.335 76.201,-2.025C75.859,-2.715 75.688,-3.516 75.688,-4.428C75.688,-5.34 75.859,-6.141 76.201,-6.831C76.543,-7.521 77.029,-8.052 77.659,-8.424C78.289,-8.796 79.018,-8.982 79.846,-8.982C80.674,-8.982 81.406,-8.796 82.042,-8.424C82.678,-8.052 83.167,-7.521 83.509,-6.831C83.851,-6.141 84.022,-5.34 84.022,-4.428C84.022,-3.516 83.851,-2.715 83.509,-2.025C83.167,-1.335 82.678,-0.804 82.042,-0.432C81.406,-0.06 80.674,0.126 79.846,0.126C79.018,0.126 78.289,-0.06 77.659,-0.432ZM81.835,-1.935C82.297,-2.505 82.528,-3.336 82.528,-4.428C82.528,-5.496 82.294,-6.321 81.826,-6.903C81.358,-7.485 80.698,-7.776 79.846,-7.776C78.994,-7.776 78.334,-7.485 77.866,-6.903C77.398,-6.321 77.164,-5.496 77.164,-4.428C77.164,-3.348 77.395,-2.52 77.857,-1.944C78.319,-1.368 78.982,-1.08 79.846,-1.08C80.71,-1.08 81.373,-1.365 81.835,-1.935Z" style="fill-rule:nonzero;"/><path d="M92.658,-8.424C93.246,-8.052 93.702,-7.524 94.026,-6.84C94.35,-6.156 94.512,-5.364 94.512,-4.464C94.512,-3.552 94.35,-2.751 94.026,-2.061C93.702,-1.371 93.246,-0.834 92.658,-0.45C92.07,-0.066 91.392,0.126 90.624,0.126C89.94,0.126 89.343,-0.024 88.833,-0.324C88.323,-0.624 87.936,-1.05 87.672,-1.602L87.672,-0.63C87.672,-0.414 87.609,-0.24 87.483,-0.108C87.357,0.024 87.18,0.09 86.952,0.09C86.724,0.09 86.544,0.024 86.412,-0.108C86.28,-0.24 86.214,-0.414 86.214,-0.63L86.214,-12.078C86.214,-12.282 86.28,-12.45 86.412,-12.582C86.544,-12.714 86.724,-12.78 86.952,-12.78C87.18,-12.78 87.357,-12.717 87.483,-12.591C87.609,-12.465 87.672,-12.294 87.672,-12.078L87.672,-7.254C87.936,-7.806 88.323,-8.232 88.833,-8.532C89.343,-8.832 89.94,-8.982 90.624,-8.982C91.392,-8.982 92.07,-8.796 92.658,-8.424ZM92.316,-1.971C92.784,-2.565 93.018,-3.396 93.018,-4.464C93.018,-5.508 92.784,-6.318 92.316,-6.894C91.848,-7.47 91.188,-7.758 90.336,-7.758C89.484,-7.758 88.827,-7.47 88.365,-6.894C87.903,-6.318 87.672,-5.496 87.672,-4.428C87.672,-3.36 87.903,-2.535 88.365,-1.953C88.827,-1.371 89.484,-1.08 90.336,-1.08C91.188,-1.08 91.848,-1.377 92.316,-1.971Z" style="fill-rule:nonzero;"/><path d="M96.91,-0.099C96.772,-0.225 96.703,-0.402 96.703,-0.63L96.703,-8.226C96.703,-8.454 96.772,-8.631 96.91,-8.757C97.048,-8.883 97.225,-8.946 97.441,-8.946C97.657,-8.946 97.831,-8.883 97.963,-8.757C98.095,-8.631 98.161,-8.454 98.161,-8.226L98.161,-0.63C98.161,-0.39 98.095,-0.21 97.963,-0.09C97.831,0.03 97.657,0.09 97.441,0.09C97.225,0.09 97.048,0.027 96.91,-0.099ZM96.739,-11.088C96.559,-11.256 96.469,-11.478 96.469,-11.754C96.469,-12.018 96.559,-12.234 96.739,-12.402C96.919,-12.57 97.153,-12.654 97.441,-12.654C97.729,-12.654 97.963,-12.57 98.143,-12.402C98.323,-12.234 98.413,-12.018 98.413,-11.754C98.413,-11.478 98.323,-11.256 98.143,-11.088C97.963,-10.92 97.729,-10.836 97.441,-10.836C97.153,-10.836 96.919,-10.92 96.739,-11.088Z" style="fill-rule:nonzero;"/><path d="M101.099,-0.099C100.961,-0.225 100.892,-0.402 100.892,-0.63L100.892,-12.06C100.892,-12.288 100.961,-12.465 101.099,-12.591C101.237,-12.717 101.414,-12.78 101.63,-12.78C101.834,-12.78 102.005,-12.717 102.143,-12.591C102.281,-12.465 102.35,-12.288 102.35,-12.06L102.35,-0.63C102.35,-0.402 102.281,-0.225 102.143,-0.099C102.005,0.027 101.834,0.09 101.63,0.09C101.414,0.09 101.237,0.027 101.099,-0.099Z" style="fill-rule:nonzero;"/><path d="M112.209,-1.872C112.305,-1.764 112.353,-1.626 112.353,-1.458C112.353,-1.158 112.143,-0.882 111.723,-0.63C111.291,-0.378 110.835,-0.189 110.355,-0.063C109.875,0.063 109.407,0.126 108.951,0.126C107.595,0.126 106.524,-0.276 105.738,-1.08C104.952,-1.884 104.559,-2.994 104.559,-4.41C104.559,-5.31 104.733,-6.105 105.081,-6.795C105.429,-7.485 105.918,-8.022 106.548,-8.406C107.178,-8.79 107.895,-8.982 108.699,-8.982C109.839,-8.982 110.745,-8.61 111.417,-7.866C112.089,-7.122 112.425,-6.114 112.425,-4.842C112.425,-4.602 112.377,-4.428 112.281,-4.32C112.185,-4.212 112.029,-4.158 111.813,-4.158L106.017,-4.158C106.125,-2.094 107.103,-1.062 108.951,-1.062C109.419,-1.062 109.821,-1.125 110.157,-1.251C110.493,-1.377 110.853,-1.548 111.237,-1.764C111.549,-1.944 111.759,-2.034 111.867,-2.034C111.999,-2.034 112.113,-1.98 112.209,-1.872ZM106.872,-7.128C106.41,-6.648 106.137,-5.97 106.053,-5.094L111.147,-5.094C111.123,-5.982 110.901,-6.663 110.481,-7.137C110.061,-7.611 109.473,-7.848 108.717,-7.848C107.949,-7.848 107.334,-7.608 106.872,-7.128Z" style="fill-rule:nonzero;"/><path d="M130.452,-0.54C130.452,-0.36 130.383,-0.21 130.245,-0.09C130.107,0.03 129.942,0.09 129.75,0.09C129.45,0.09 129.24,-0.054 129.12,-0.342L127.842,-3.258L121.056,-3.258L119.76,-0.342C119.64,-0.054 119.43,0.09 119.13,0.09C118.938,0.09 118.77,0.027 118.626,-0.099C118.482,-0.225 118.41,-0.378 118.41,-0.558C118.41,-0.654 118.434,-0.75 118.482,-0.846L123.63,-12.294C123.702,-12.462 123.81,-12.588 123.954,-12.672C124.098,-12.756 124.254,-12.798 124.422,-12.798C124.602,-12.798 124.764,-12.753 124.908,-12.663C125.052,-12.573 125.16,-12.45 125.232,-12.294L130.38,-0.846C130.428,-0.75 130.452,-0.648 130.452,-0.54ZM121.596,-4.482L127.302,-4.482L124.44,-10.944L121.596,-4.482Z" style="fill-rule:nonzero;"/><path d="M133.786,-0.432C133.156,-0.804 132.67,-1.332 132.328,-2.016C131.986,-2.7 131.815,-3.492 131.815,-4.392C131.815,-5.292 131.992,-6.09 132.346,-6.786C132.7,-7.482 133.195,-8.022 133.831,-8.406C134.467,-8.79 135.199,-8.982 136.027,-8.982C136.483,-8.982 136.936,-8.919 137.386,-8.793C137.836,-8.667 138.229,-8.484 138.565,-8.244C138.781,-8.1 138.934,-7.959 139.024,-7.821C139.114,-7.683 139.159,-7.53 139.159,-7.362C139.159,-7.194 139.114,-7.056 139.024,-6.948C138.934,-6.84 138.817,-6.786 138.673,-6.786C138.589,-6.786 138.499,-6.81 138.403,-6.858C138.307,-6.906 138.226,-6.954 138.16,-7.002C138.094,-7.05 138.049,-7.08 138.025,-7.092C137.713,-7.296 137.416,-7.458 137.134,-7.578C136.852,-7.698 136.507,-7.758 136.099,-7.758C135.223,-7.758 134.542,-7.461 134.056,-6.867C133.57,-6.273 133.327,-5.448 133.327,-4.392C133.327,-3.336 133.57,-2.52 134.056,-1.944C134.542,-1.368 135.223,-1.08 136.099,-1.08C136.507,-1.08 136.858,-1.14 137.152,-1.26C137.446,-1.38 137.743,-1.542 138.043,-1.746C138.175,-1.83 138.301,-1.902 138.421,-1.962C138.541,-2.022 138.643,-2.052 138.727,-2.052C138.859,-2.052 138.97,-1.998 139.06,-1.89C139.15,-1.782 139.195,-1.644 139.195,-1.476C139.195,-1.32 139.153,-1.179 139.069,-1.053C138.985,-0.927 138.829,-0.786 138.601,-0.63C138.265,-0.402 137.86,-0.219 137.386,-0.081C136.912,0.057 136.435,0.126 135.955,0.126C135.139,0.126 134.416,-0.06 133.786,-0.432Z" style="fill-rule:nonzero;"/><path d="M142.422,-0.432C141.792,-0.804 141.306,-1.332 140.964,-2.016C140.622,-2.7 140.451,-3.492 140.451,-4.392C140.451,-5.292 140.628,-6.09 140.982,-6.786C141.336,-7.482 141.831,-8.022 142.467,-8.406C143.103,-8.79 143.835,-8.982 144.663,-8.982C145.119,-8.982 145.572,-8.919 146.022,-8.793C146.472,-8.667 146.865,-8.484 147.201,-8.244C147.417,-8.1 147.57,-7.959 147.66,-7.821C147.75,-7.683 147.795,-7.53 147.795,-7.362C147.795,-7.194 147.75,-7.056 147.66,-6.948C147.57,-6.84 147.453,-6.786 147.309,-6.786C147.225,-6.786 147.135,-6.81 147.039,-6.858C146.943,-6.906 146.862,-6.954 146.796,-7.002C146.73,-7.05 146.685,-7.08 146.661,-7.092C146.349,-7.296 146.052,-7.458 145.77,-7.578C145.488,-7.698 145.143,-7.758 144.735,-7.758C143.859,-7.758 143.178,-7.461 142.692,-6.867C142.206,-6.273 141.963,-5.448 141.963,-4.392C141.963,-3.336 142.206,-2.52 142.692,-1.944C143.178,-1.368 143.859,-1.08 144.735,-1.08C145.143,-1.08 145.494,-1.14 145.788,-1.26C146.082,-1.38 146.379,-1.542 146.679,-1.746C146.811,-1.83 146.937,-1.902 147.057,-1.962C147.177,-2.022 147.279,-2.052 147.363,-2.052C147.495,-2.052 147.606,-1.998 147.696,-1.89C147.786,-1.782 147.831,-1.644 147.831,-1.476C147.831,-1.32 147.789,-1.179 147.705,-1.053C147.621,-0.927 147.465,-0.786 147.237,-0.63C146.901,-0.402 146.496,-0.219 146.022,-0.081C145.548,0.057 145.071,0.126 144.591,0.126C143.775,0.126 143.052,-0.06 142.422,-0.432Z" style="fill-rule:nonzero;"/><path d="M156.736,-1.872C156.832,-1.764 156.88,-1.626 156.88,-1.458C156.88,-1.158 156.67,-0.882 156.25,-0.63C155.818,-0.378 155.362,-0.189 154.882,-0.063C154.402,0.063 153.934,0.126 153.478,0.126C152.122,0.126 151.051,-0.276 150.265,-1.08C149.479,-1.884 149.086,-2.994 149.086,-4.41C149.086,-5.31 149.26,-6.105 149.608,-6.795C149.956,-7.485 150.445,-8.022 151.075,-8.406C151.705,-8.79 152.422,-8.982 153.226,-8.982C154.366,-8.982 155.272,-8.61 155.944,-7.866C156.616,-7.122 156.952,-6.114 156.952,-4.842C156.952,-4.602 156.904,-4.428 156.808,-4.32C156.712,-4.212 156.556,-4.158 156.34,-4.158L150.544,-4.158C150.652,-2.094 151.63,-1.062 153.478,-1.062C153.946,-1.062 154.348,-1.125 154.684,-1.251C155.02,-1.377 155.38,-1.548 155.764,-1.764C156.076,-1.944 156.286,-2.034 156.394,-2.034C156.526,-2.034 156.64,-1.98 156.736,-1.872ZM151.399,-7.128C150.937,-6.648 150.664,-5.97 150.58,-5.094L155.674,-5.094C155.65,-5.982 155.428,-6.663 155.008,-7.137C154.588,-7.611 154,-7.848 153.244,-7.848C152.476,-7.848 151.861,-7.608 151.399,-7.128Z" style="fill-rule:nonzero;"/><path d="M160.484,-0.072C159.986,-0.204 159.545,-0.39 159.161,-0.63C158.945,-0.774 158.792,-0.909 158.702,-1.035C158.612,-1.161 158.567,-1.314 158.567,-1.494C158.567,-1.65 158.612,-1.779 158.702,-1.881C158.792,-1.983 158.909,-2.034 159.053,-2.034C159.197,-2.034 159.407,-1.944 159.683,-1.764C160.043,-1.548 160.4,-1.377 160.754,-1.251C161.108,-1.125 161.549,-1.062 162.077,-1.062C162.725,-1.062 163.229,-1.176 163.589,-1.404C163.949,-1.632 164.129,-1.962 164.129,-2.394C164.129,-2.658 164.063,-2.871 163.931,-3.033C163.799,-3.195 163.571,-3.339 163.247,-3.465C162.923,-3.591 162.449,-3.72 161.825,-3.852C160.769,-4.08 160.013,-4.386 159.557,-4.77C159.101,-5.154 158.873,-5.676 158.873,-6.336C158.873,-6.852 159.017,-7.308 159.305,-7.704C159.593,-8.1 159.992,-8.412 160.502,-8.64C161.012,-8.868 161.591,-8.982 162.239,-8.982C162.707,-8.982 163.16,-8.919 163.598,-8.793C164.036,-8.667 164.423,-8.49 164.759,-8.262C165.167,-7.974 165.371,-7.674 165.371,-7.362C165.371,-7.206 165.323,-7.074 165.227,-6.966C165.131,-6.858 165.017,-6.804 164.885,-6.804C164.741,-6.804 164.525,-6.906 164.237,-7.11C163.901,-7.326 163.583,-7.494 163.283,-7.614C162.983,-7.734 162.611,-7.794 162.167,-7.794C161.603,-7.794 161.15,-7.668 160.808,-7.416C160.466,-7.164 160.295,-6.828 160.295,-6.408C160.295,-6.144 160.358,-5.931 160.484,-5.769C160.61,-5.607 160.82,-5.463 161.114,-5.337C161.408,-5.211 161.831,-5.088 162.383,-4.968C163.199,-4.788 163.832,-4.59 164.282,-4.374C164.732,-4.158 165.053,-3.894 165.245,-3.582C165.437,-3.27 165.533,-2.874 165.533,-2.394C165.533,-1.638 165.215,-1.029 164.579,-0.567C163.943,-0.105 163.103,0.126 162.059,0.126C161.507,0.126 160.982,0.06 160.484,-0.072Z" style="fill-rule:nonzero;"/><path d="M169.137,-0.072C168.639,-0.204 168.198,-0.39 167.814,-0.63C167.598,-0.774 167.445,-0.909 167.355,-1.035C167.265,-1.161 167.22,-1.314 167.22,-1.494C167.22,-1.65 167.265,-1.779 167.355,-1.881C167.445,-1.983 167.562,-2.034 167.706,-2.034C167.85,-2.034 168.06,-1.944 168.336,-1.764C168.696,-1.548 169.053,-1.377 169.407,-1.251C169.761,-1.125 170.202,-1.062 170.73,-1.062C171.378,-1.062 171.882,-1.176 172.242,-1.404C172.602,-1.632 172.782,-1.962 172.782,-2.394C172.782,-2.658 172.716,-2.871 172.584,-3.033C172.452,-3.195 172.224,-3.339 171.9,-3.465C171.576,-3.591 171.102,-3.72 170.478,-3.852C169.422,-4.08 168.666,-4.386 168.21,-4.77C167.754,-5.154 167.526,-5.676 167.526,-6.336C167.526,-6.852 167.67,-7.308 167.958,-7.704C168.246,-8.1 168.645,-8.412 169.155,-8.64C169.665,-8.868 170.244,-8.982 170.892,-8.982C171.36,-8.982 171.813,-8.919 172.251,-8.793C172.689,-8.667 173.076,-8.49 173.412,-8.262C173.82,-7.974 174.024,-7.674 174.024,-7.362C174.024,-7.206 173.976,-7.074 173.88,-6.966C173.784,-6.858 173.67,-6.804 173.538,-6.804C173.394,-6.804 173.178,-6.906 172.89,-7.11C172.554,-7.326 172.236,-7.494 171.936,-7.614C171.636,-7.734 171.264,-7.794 170.82,-7.794C170.256,-7.794 169.803,-7.668 169.461,-7.416C169.119,-7.164 168.948,-6.828 168.948,-6.408C168.948,-6.144 169.011,-5.931 169.137,-5.769C169.263,-5.607 169.473,-5.463 169.767,-5.337C170.061,-5.211 170.484,-5.088 171.036,-4.968C171.852,-4.788 172.485,-4.59 172.935,-4.374C173.385,-4.158 173.706,-3.894 173.898,-3.582C174.09,-3.27 174.186,-2.874 174.186,-2.394C174.186,-1.638 173.868,-1.029 173.232,-0.567C172.596,-0.105 171.756,0.126 170.712,0.126C170.16,0.126 169.635,0.06 169.137,-0.072Z" style="fill-rule:nonzero;"/><path d="M189.081,-1.08C189.201,-0.972 189.261,-0.822 189.261,-0.63C189.261,-0.426 189.204,-0.27 189.09,-0.162C188.976,-0.054 188.805,0 188.577,0L182.619,0C182.391,0 182.22,-0.054 182.106,-0.162C181.992,-0.27 181.935,-0.426 181.935,-0.63C181.935,-0.822 181.995,-0.972 182.115,-1.08C182.235,-1.188 182.403,-1.242 182.619,-1.242L184.851,-1.242L184.851,-10.89L182.889,-9.612C182.793,-9.552 182.697,-9.522 182.601,-9.522C182.433,-9.522 182.286,-9.6 182.16,-9.756C182.034,-9.912 181.971,-10.08 181.971,-10.26C181.971,-10.512 182.067,-10.692 182.259,-10.8L184.995,-12.582C185.199,-12.714 185.409,-12.78 185.625,-12.78C185.829,-12.78 185.997,-12.714 186.129,-12.582C186.261,-12.45 186.327,-12.264 186.327,-12.024L186.327,-1.242L188.577,-1.242C188.793,-1.242 188.961,-1.188 189.081,-1.08Z" style="fill-rule:nonzero;"/><path d="M192.622,-1.512C191.866,-2.616 191.488,-4.224 191.488,-6.336C191.488,-8.46 191.866,-10.074 192.622,-11.178C193.378,-12.282 194.482,-12.834 195.934,-12.834C197.386,-12.834 198.49,-12.285 199.246,-11.187C200.002,-10.089 200.38,-8.478 200.38,-6.354C200.38,-4.23 200.002,-2.616 199.246,-1.512C198.49,-0.408 197.386,0.144 195.934,0.144C194.482,0.144 193.378,-0.408 192.622,-1.512ZM198.166,-2.376C198.646,-3.228 198.886,-4.554 198.886,-6.354C198.886,-8.166 198.649,-9.492 198.175,-10.332C197.701,-11.172 196.954,-11.592 195.934,-11.592C194.926,-11.592 194.182,-11.169 193.702,-10.323C193.222,-9.477 192.982,-8.154 192.982,-6.354C192.982,-4.554 193.222,-3.228 193.702,-2.376C194.182,-1.524 194.926,-1.098 195.934,-1.098C196.942,-1.098 197.686,-1.524 198.166,-2.376Z" style="fill-rule:nonzero;"/><path d="M203.436,-1.512C202.68,-2.616 202.302,-4.224 202.302,-6.336C202.302,-8.46 202.68,-10.074 203.436,-11.178C204.192,-12.282 205.296,-12.834 206.748,-12.834C208.2,-12.834 209.304,-12.285 210.06,-11.187C210.816,-10.089 211.194,-8.478 211.194,-6.354C211.194,-4.23 210.816,-2.616 210.06,-1.512C209.304,-0.408 208.2,0.144 206.748,0.144C205.296,0.144 204.192,-0.408 203.436,-1.512ZM208.98,-2.376C209.46,-3.228 209.7,-4.554 209.7,-6.354C209.7,-8.166 209.463,-9.492 208.989,-10.332C208.515,-11.172 207.768,-11.592 206.748,-11.592C205.74,-11.592 204.996,-11.169 204.516,-10.323C204.036,-9.477 203.796,-8.154 203.796,-6.354C203.796,-4.554 204.036,-3.228 204.516,-2.376C204.996,-1.524 205.74,-1.098 206.748,-1.098C207.756,-1.098 208.5,-1.524 208.98,-2.376Z" style="fill-rule:nonzero;"/></g><g transform="matrix(1,0,0,1,641.248,751)"><path d="M3.033,-0.261C2.211,-0.531 1.554,-0.894 1.062,-1.35C0.882,-1.518 0.792,-1.728 0.792,-1.98C0.792,-2.148 0.84,-2.295 0.936,-2.421C1.032,-2.547 1.146,-2.61 1.278,-2.61C1.434,-2.61 1.602,-2.544 1.782,-2.412C2.898,-1.548 4.17,-1.116 5.598,-1.116C6.63,-1.116 7.422,-1.314 7.974,-1.71C8.526,-2.106 8.802,-2.67 8.802,-3.402C8.802,-3.822 8.67,-4.161 8.406,-4.419C8.142,-4.677 7.794,-4.884 7.362,-5.04C6.93,-5.196 6.348,-5.358 5.616,-5.526C4.632,-5.754 3.825,-5.994 3.195,-6.246C2.565,-6.498 2.055,-6.858 1.665,-7.326C1.275,-7.794 1.08,-8.406 1.08,-9.162C1.08,-9.882 1.275,-10.521 1.665,-11.079C2.055,-11.637 2.601,-12.069 3.303,-12.375C4.005,-12.681 4.806,-12.834 5.706,-12.834C6.546,-12.834 7.329,-12.705 8.055,-12.447C8.781,-12.189 9.39,-11.82 9.882,-11.34C10.074,-11.148 10.17,-10.938 10.17,-10.71C10.17,-10.542 10.122,-10.395 10.026,-10.269C9.93,-10.143 9.816,-10.08 9.684,-10.08C9.552,-10.08 9.378,-10.146 9.162,-10.278C8.574,-10.758 8.028,-11.094 7.524,-11.286C7.02,-11.478 6.414,-11.574 5.706,-11.574C4.71,-11.574 3.936,-11.367 3.384,-10.953C2.832,-10.539 2.556,-9.96 2.556,-9.216C2.556,-8.58 2.799,-8.103 3.285,-7.785C3.771,-7.467 4.518,-7.188 5.526,-6.948C6.618,-6.684 7.476,-6.441 8.1,-6.219C8.724,-5.997 9.243,-5.664 9.657,-5.22C10.071,-4.776 10.278,-4.182 10.278,-3.438C10.278,-2.73 10.083,-2.106 9.693,-1.566C9.303,-1.026 8.754,-0.606 8.046,-0.306C7.338,-0.006 6.528,0.144 5.616,0.144C4.716,0.144 3.855,0.009 3.033,-0.261Z" style="fill-rule:nonzero;"/><path d="M19.597,-1.872C19.693,-1.764 19.741,-1.626 19.741,-1.458C19.741,-1.158 19.531,-0.882 19.111,-0.63C18.679,-0.378 18.223,-0.189 17.743,-0.063C17.263,0.063 16.795,0.126 16.339,0.126C14.983,0.126 13.912,-0.276 13.126,-1.08C12.34,-1.884 11.947,-2.994 11.947,-4.41C11.947,-5.31 12.121,-6.105 12.469,-6.795C12.817,-7.485 13.306,-8.022 13.936,-8.406C14.566,-8.79 15.283,-8.982 16.087,-8.982C17.227,-8.982 18.133,-8.61 18.805,-7.866C19.477,-7.122 19.813,-6.114 19.813,-4.842C19.813,-4.602 19.765,-4.428 19.669,-4.32C19.573,-4.212 19.417,-4.158 19.201,-4.158L13.405,-4.158C13.513,-2.094 14.491,-1.062 16.339,-1.062C16.807,-1.062 17.209,-1.125 17.545,-1.251C17.881,-1.377 18.241,-1.548 18.625,-1.764C18.937,-1.944 19.147,-2.034 19.255,-2.034C19.387,-2.034 19.501,-1.98 19.597,-1.872ZM14.26,-7.128C13.798,-6.648 13.525,-5.97 13.441,-5.094L18.535,-5.094C18.511,-5.982 18.289,-6.663 17.869,-7.137C17.449,-7.611 16.861,-7.848 16.105,-7.848C15.337,-7.848 14.722,-7.608 14.26,-7.128Z" style="fill-rule:nonzero;"/><path d="M27.063,-8.334C27.063,-8.142 27.009,-7.989 26.901,-7.875C26.793,-7.761 26.607,-7.692 26.343,-7.668L25.803,-7.614C24.999,-7.542 24.402,-7.257 24.012,-6.759C23.622,-6.261 23.427,-5.676 23.427,-5.004L23.427,-0.63C23.427,-0.39 23.361,-0.21 23.229,-0.09C23.097,0.03 22.923,0.09 22.707,0.09C22.491,0.09 22.314,0.027 22.176,-0.099C22.038,-0.225 21.969,-0.402 21.969,-0.63L21.969,-8.226C21.969,-8.454 22.041,-8.631 22.185,-8.757C22.329,-8.883 22.503,-8.946 22.707,-8.946C22.899,-8.946 23.061,-8.883 23.193,-8.757C23.325,-8.631 23.391,-8.46 23.391,-8.244L23.391,-7.236C23.643,-7.764 24,-8.166 24.462,-8.442C24.924,-8.718 25.455,-8.88 26.055,-8.928L26.307,-8.946C26.811,-8.982 27.063,-8.778 27.063,-8.334Z" style="fill-rule:nonzero;"/><path d="M28.543,-0.099C28.405,-0.225 28.336,-0.402 28.336,-0.63L28.336,-8.226C28.336,-8.454 28.405,-8.631 28.543,-8.757C28.681,-8.883 28.858,-8.946 29.074,-8.946C29.29,-8.946 29.464,-8.883 29.596,-8.757C29.728,-8.631 29.794,-8.454 29.794,-8.226L29.794,-0.63C29.794,-0.39 29.728,-0.21 29.596,-0.09C29.464,0.03 29.29,0.09 29.074,0.09C28.858,0.09 28.681,0.027 28.543,-0.099ZM28.372,-11.088C28.192,-11.256 28.102,-11.478 28.102,-11.754C28.102,-12.018 28.192,-12.234 28.372,-12.402C28.552,-12.57 28.786,-12.654 29.074,-12.654C29.362,-12.654 29.596,-12.57 29.776,-12.402C29.956,-12.234 30.046,-12.018 30.046,-11.754C30.046,-11.478 29.956,-11.256 29.776,-11.088C29.596,-10.92 29.362,-10.836 29.074,-10.836C28.786,-10.836 28.552,-10.92 28.372,-11.088Z" style="fill-rule:nonzero;"/><path d="M39.653,-1.872C39.749,-1.764 39.797,-1.626 39.797,-1.458C39.797,-1.158 39.587,-0.882 39.167,-0.63C38.735,-0.378 38.279,-0.189 37.799,-0.063C37.319,0.063 36.851,0.126 36.395,0.126C35.039,0.126 33.968,-0.276 33.182,-1.08C32.396,-1.884 32.003,-2.994 32.003,-4.41C32.003,-5.31 32.177,-6.105 32.525,-6.795C32.873,-7.485 33.362,-8.022 33.992,-8.406C34.622,-8.79 35.339,-8.982 36.143,-8.982C37.283,-8.982 38.189,-8.61 38.861,-7.866C39.533,-7.122 39.869,-6.114 39.869,-4.842C39.869,-4.602 39.821,-4.428 39.725,-4.32C39.629,-4.212 39.473,-4.158 39.257,-4.158L33.461,-4.158C33.569,-2.094 34.547,-1.062 36.395,-1.062C36.863,-1.062 37.265,-1.125 37.601,-1.251C37.937,-1.377 38.297,-1.548 38.681,-1.764C38.993,-1.944 39.203,-2.034 39.311,-2.034C39.443,-2.034 39.557,-1.98 39.653,-1.872ZM34.316,-7.128C33.854,-6.648 33.581,-5.97 33.497,-5.094L38.591,-5.094C38.567,-5.982 38.345,-6.663 37.925,-7.137C37.505,-7.611 36.917,-7.848 36.161,-7.848C35.393,-7.848 34.778,-7.608 34.316,-7.128Z" style="fill-rule:nonzero;"/><path d="M43.401,-0.072C42.903,-0.204 42.462,-0.39 42.078,-0.63C41.862,-0.774 41.709,-0.909 41.619,-1.035C41.529,-1.161 41.484,-1.314 41.484,-1.494C41.484,-1.65 41.529,-1.779 41.619,-1.881C41.709,-1.983 41.826,-2.034 41.97,-2.034C42.114,-2.034 42.324,-1.944 42.6,-1.764C42.96,-1.548 43.317,-1.377 43.671,-1.251C44.025,-1.125 44.466,-1.062 44.994,-1.062C45.642,-1.062 46.146,-1.176 46.506,-1.404C46.866,-1.632 47.046,-1.962 47.046,-2.394C47.046,-2.658 46.98,-2.871 46.848,-3.033C46.716,-3.195 46.488,-3.339 46.164,-3.465C45.84,-3.591 45.366,-3.72 44.742,-3.852C43.686,-4.08 42.93,-4.386 42.474,-4.77C42.018,-5.154 41.79,-5.676 41.79,-6.336C41.79,-6.852 41.934,-7.308 42.222,-7.704C42.51,-8.1 42.909,-8.412 43.419,-8.64C43.929,-8.868 44.508,-8.982 45.156,-8.982C45.624,-8.982 46.077,-8.919 46.515,-8.793C46.953,-8.667 47.34,-8.49 47.676,-8.262C48.084,-7.974 48.288,-7.674 48.288,-7.362C48.288,-7.206 48.24,-7.074 48.144,-6.966C48.048,-6.858 47.934,-6.804 47.802,-6.804C47.658,-6.804 47.442,-6.906 47.154,-7.11C46.818,-7.326 46.5,-7.494 46.2,-7.614C45.9,-7.734 45.528,-7.794 45.084,-7.794C44.52,-7.794 44.067,-7.668 43.725,-7.416C43.383,-7.164 43.212,-6.828 43.212,-6.408C43.212,-6.144 43.275,-5.931 43.401,-5.769C43.527,-5.607 43.737,-5.463 44.031,-5.337C44.325,-5.211 44.748,-5.088 45.3,-4.968C46.116,-4.788 46.749,-4.59 47.199,-4.374C47.649,-4.158 47.97,-3.894 48.162,-3.582C48.354,-3.27 48.45,-2.874 48.45,-2.394C48.45,-1.638 48.132,-1.029 47.496,-0.567C46.86,-0.105 46.02,0.126 44.976,0.126C44.424,0.126 43.899,0.06 43.401,-0.072Z" style="fill-rule:nonzero;"/><path d="M62.283,-8.928C62.463,-8.928 62.625,-8.868 62.769,-8.748C62.913,-8.628 62.985,-8.478 62.985,-8.298C62.985,-8.19 62.961,-8.094 62.913,-8.01L59.403,-0.45C59.331,-0.294 59.223,-0.171 59.079,-0.081C58.935,0.009 58.779,0.054 58.611,0.054C58.455,0.054 58.305,0.009 58.161,-0.081C58.017,-0.171 57.903,-0.294 57.819,-0.45L54.327,-8.01C54.279,-8.094 54.255,-8.184 54.255,-8.28C54.255,-8.46 54.336,-8.616 54.498,-8.748C54.66,-8.88 54.837,-8.946 55.029,-8.946C55.149,-8.946 55.266,-8.91 55.38,-8.838C55.494,-8.766 55.581,-8.664 55.641,-8.532L58.647,-1.782L61.653,-8.496C61.785,-8.784 61.995,-8.928 62.283,-8.928Z" style="fill-rule:nonzero;"/><path d="M64.807,-0.099C64.669,-0.225 64.6,-0.402 64.6,-0.63L64.6,-8.226C64.6,-8.454 64.669,-8.631 64.807,-8.757C64.945,-8.883 65.122,-8.946 65.338,-8.946C65.554,-8.946 65.728,-8.883 65.86,-8.757C65.992,-8.631 66.058,-8.454 66.058,-8.226L66.058,-0.63C66.058,-0.39 65.992,-0.21 65.86,-0.09C65.728,0.03 65.554,0.09 65.338,0.09C65.122,0.09 64.945,0.027 64.807,-0.099ZM64.636,-11.088C64.456,-11.256 64.366,-11.478 64.366,-11.754C64.366,-12.018 64.456,-12.234 64.636,-12.402C64.816,-12.57 65.05,-12.654 65.338,-12.654C65.626,-12.654 65.86,-12.57 66.04,-12.402C66.22,-12.234 66.31,-12.018 66.31,-11.754C66.31,-11.478 66.22,-11.256 66.04,-11.088C65.86,-10.92 65.626,-10.836 65.338,-10.836C65.05,-10.836 64.816,-10.92 64.636,-11.088Z" style="fill-rule:nonzero;"/><path d="M75.666,-5.526L75.666,-0.63C75.666,-0.414 75.603,-0.24 75.477,-0.108C75.351,0.024 75.18,0.09 74.964,0.09C74.748,0.09 74.574,0.024 74.442,-0.108C74.31,-0.24 74.244,-0.414 74.244,-0.63L74.244,-1.494C74.016,-0.978 73.668,-0.579 73.2,-0.297C72.732,-0.015 72.192,0.126 71.58,0.126C71.016,0.126 70.497,0.012 70.023,-0.216C69.549,-0.444 69.174,-0.762 68.898,-1.17C68.622,-1.578 68.484,-2.028 68.484,-2.52C68.484,-3.18 68.652,-3.693 68.988,-4.059C69.324,-4.425 69.876,-4.689 70.644,-4.851C71.412,-5.013 72.48,-5.094 73.848,-5.094L74.244,-5.094L74.244,-5.688C74.244,-6.408 74.097,-6.936 73.803,-7.272C73.509,-7.608 73.032,-7.776 72.372,-7.776C71.556,-7.776 70.728,-7.554 69.888,-7.11C69.564,-6.906 69.336,-6.804 69.204,-6.804C69.06,-6.804 68.94,-6.858 68.844,-6.966C68.748,-7.074 68.7,-7.212 68.7,-7.38C68.7,-7.548 68.751,-7.695 68.853,-7.821C68.955,-7.947 69.12,-8.076 69.348,-8.208C69.768,-8.448 70.245,-8.637 70.779,-8.775C71.313,-8.913 71.844,-8.982 72.372,-8.982C74.568,-8.982 75.666,-7.83 75.666,-5.526ZM73.551,-1.755C74.013,-2.241 74.244,-2.868 74.244,-3.636L74.244,-4.158L73.92,-4.158C72.864,-4.158 72.06,-4.113 71.508,-4.023C70.956,-3.933 70.563,-3.783 70.329,-3.573C70.095,-3.363 69.978,-3.054 69.978,-2.646C69.978,-2.178 70.149,-1.791 70.491,-1.485C70.833,-1.179 71.262,-1.026 71.778,-1.026C72.498,-1.026 73.089,-1.269 73.551,-1.755Z" style="fill-rule:nonzero;"/><path d="M89.876,-5.526L89.876,-0.63C89.876,-0.414 89.813,-0.24 89.687,-0.108C89.561,0.024 89.39,0.09 89.174,0.09C88.958,0.09 88.784,0.024 88.652,-0.108C88.52,-0.24 88.454,-0.414 88.454,-0.63L88.454,-1.494C88.226,-0.978 87.878,-0.579 87.41,-0.297C86.942,-0.015 86.402,0.126 85.79,0.126C85.226,0.126 84.707,0.012 84.233,-0.216C83.759,-0.444 83.384,-0.762 83.108,-1.17C82.832,-1.578 82.694,-2.028 82.694,-2.52C82.694,-3.18 82.862,-3.693 83.198,-4.059C83.534,-4.425 84.086,-4.689 84.854,-4.851C85.622,-5.013 86.69,-5.094 88.058,-5.094L88.454,-5.094L88.454,-5.688C88.454,-6.408 88.307,-6.936 88.013,-7.272C87.719,-7.608 87.242,-7.776 86.582,-7.776C85.766,-7.776 84.938,-7.554 84.098,-7.11C83.774,-6.906 83.546,-6.804 83.414,-6.804C83.27,-6.804 83.15,-6.858 83.054,-6.966C82.958,-7.074 82.91,-7.212 82.91,-7.38C82.91,-7.548 82.961,-7.695 83.063,-7.821C83.165,-7.947 83.33,-8.076 83.558,-8.208C83.978,-8.448 84.455,-8.637 84.989,-8.775C85.523,-8.913 86.054,-8.982 86.582,-8.982C88.778,-8.982 89.876,-7.83 89.876,-5.526ZM87.761,-1.755C88.223,-2.241 88.454,-2.868 88.454,-3.636L88.454,-4.158L88.13,-4.158C87.074,-4.158 86.27,-4.113 85.718,-4.023C85.166,-3.933 84.773,-3.783 84.539,-3.573C84.305,-3.363 84.188,-3.054 84.188,-2.646C84.188,-2.178 84.359,-1.791 84.701,-1.485C85.043,-1.179 85.472,-1.026 85.988,-1.026C86.708,-1.026 87.299,-1.269 87.761,-1.755Z" style="fill-rule:nonzero;"/><path d="M98.894,-0.261C98.072,-0.531 97.415,-0.894 96.923,-1.35C96.743,-1.518 96.653,-1.728 96.653,-1.98C96.653,-2.148 96.701,-2.295 96.797,-2.421C96.893,-2.547 97.007,-2.61 97.139,-2.61C97.295,-2.61 97.463,-2.544 97.643,-2.412C98.759,-1.548 100.031,-1.116 101.459,-1.116C102.491,-1.116 103.283,-1.314 103.835,-1.71C104.387,-2.106 104.663,-2.67 104.663,-3.402C104.663,-3.822 104.531,-4.161 104.267,-4.419C104.003,-4.677 103.655,-4.884 103.223,-5.04C102.791,-5.196 102.209,-5.358 101.477,-5.526C100.493,-5.754 99.686,-5.994 99.056,-6.246C98.426,-6.498 97.916,-6.858 97.526,-7.326C97.136,-7.794 96.941,-8.406 96.941,-9.162C96.941,-9.882 97.136,-10.521 97.526,-11.079C97.916,-11.637 98.462,-12.069 99.164,-12.375C99.866,-12.681 100.667,-12.834 101.567,-12.834C102.407,-12.834 103.19,-12.705 103.916,-12.447C104.642,-12.189 105.251,-11.82 105.743,-11.34C105.935,-11.148 106.031,-10.938 106.031,-10.71C106.031,-10.542 105.983,-10.395 105.887,-10.269C105.791,-10.143 105.677,-10.08 105.545,-10.08C105.413,-10.08 105.239,-10.146 105.023,-10.278C104.435,-10.758 103.889,-11.094 103.385,-11.286C102.881,-11.478 102.275,-11.574 101.567,-11.574C100.571,-11.574 99.797,-11.367 99.245,-10.953C98.693,-10.539 98.417,-9.96 98.417,-9.216C98.417,-8.58 98.66,-8.103 99.146,-7.785C99.632,-7.467 100.379,-7.188 101.387,-6.948C102.479,-6.684 103.337,-6.441 103.961,-6.219C104.585,-5.997 105.104,-5.664 105.518,-5.22C105.932,-4.776 106.139,-4.182 106.139,-3.438C106.139,-2.73 105.944,-2.106 105.554,-1.566C105.164,-1.026 104.615,-0.606 103.907,-0.306C103.199,-0.006 102.389,0.144 101.477,0.144C100.577,0.144 99.716,0.009 98.894,-0.261Z" style="fill-rule:nonzero;"/><path d="M109.779,-0.432C109.149,-0.804 108.663,-1.335 108.321,-2.025C107.979,-2.715 107.808,-3.516 107.808,-4.428C107.808,-5.34 107.979,-6.141 108.321,-6.831C108.663,-7.521 109.149,-8.052 109.779,-8.424C110.409,-8.796 111.138,-8.982 111.966,-8.982C112.794,-8.982 113.526,-8.796 114.162,-8.424C114.798,-8.052 115.287,-7.521 115.629,-6.831C115.971,-6.141 116.142,-5.34 116.142,-4.428C116.142,-3.516 115.971,-2.715 115.629,-2.025C115.287,-1.335 114.798,-0.804 114.162,-0.432C113.526,-0.06 112.794,0.126 111.966,0.126C111.138,0.126 110.409,-0.06 109.779,-0.432ZM113.955,-1.935C114.417,-2.505 114.648,-3.336 114.648,-4.428C114.648,-5.496 114.414,-6.321 113.946,-6.903C113.478,-7.485 112.818,-7.776 111.966,-7.776C111.114,-7.776 110.454,-7.485 109.986,-6.903C109.518,-6.321 109.284,-5.496 109.284,-4.428C109.284,-3.348 109.515,-2.52 109.977,-1.944C110.439,-1.368 111.102,-1.08 111.966,-1.08C112.83,-1.08 113.493,-1.365 113.955,-1.935Z" style="fill-rule:nonzero;"/><path d="M125.893,-5.508L125.893,-0.63C125.893,-0.402 125.83,-0.225 125.704,-0.099C125.578,0.027 125.401,0.09 125.173,0.09C124.945,0.09 124.765,0.027 124.633,-0.099C124.501,-0.225 124.435,-0.402 124.435,-0.63L124.435,-5.418C124.435,-6.234 124.276,-6.828 123.958,-7.2C123.64,-7.572 123.133,-7.758 122.437,-7.758C121.633,-7.758 120.991,-7.512 120.511,-7.02C120.031,-6.528 119.791,-5.862 119.791,-5.022L119.791,-0.63C119.791,-0.402 119.728,-0.225 119.602,-0.099C119.476,0.027 119.299,0.09 119.071,0.09C118.843,0.09 118.663,0.027 118.531,-0.099C118.399,-0.225 118.333,-0.402 118.333,-0.63L118.333,-8.226C118.333,-8.442 118.399,-8.616 118.531,-8.748C118.663,-8.88 118.843,-8.946 119.071,-8.946C119.287,-8.946 119.458,-8.88 119.584,-8.748C119.71,-8.616 119.773,-8.448 119.773,-8.244L119.773,-7.326C120.061,-7.866 120.463,-8.277 120.979,-8.559C121.495,-8.841 122.083,-8.982 122.743,-8.982C124.843,-8.982 125.893,-7.824 125.893,-5.508Z" style="fill-rule:nonzero;"/><path d="M128.778,-0.099C128.64,-0.225 128.571,-0.402 128.571,-0.63L128.571,-8.226C128.571,-8.454 128.64,-8.631 128.778,-8.757C128.916,-8.883 129.093,-8.946 129.309,-8.946C129.525,-8.946 129.699,-8.883 129.831,-8.757C129.963,-8.631 130.029,-8.454 130.029,-8.226L130.029,-0.63C130.029,-0.39 129.963,-0.21 129.831,-0.09C129.699,0.03 129.525,0.09 129.309,0.09C129.093,0.09 128.916,0.027 128.778,-0.099ZM128.607,-11.088C128.427,-11.256 128.337,-11.478 128.337,-11.754C128.337,-12.018 128.427,-12.234 128.607,-12.402C128.787,-12.57 129.021,-12.654 129.309,-12.654C129.597,-12.654 129.831,-12.57 130.011,-12.402C130.191,-12.234 130.281,-12.018 130.281,-11.754C130.281,-11.478 130.191,-11.256 130.011,-11.088C129.831,-10.92 129.597,-10.836 129.309,-10.836C129.021,-10.836 128.787,-10.92 128.607,-11.088Z" style="fill-rule:nonzero;"/><path d="M134.209,-0.432C133.579,-0.804 133.093,-1.332 132.751,-2.016C132.409,-2.7 132.238,-3.492 132.238,-4.392C132.238,-5.292 132.415,-6.09 132.769,-6.786C133.123,-7.482 133.618,-8.022 134.254,-8.406C134.89,-8.79 135.622,-8.982 136.45,-8.982C136.906,-8.982 137.359,-8.919 137.809,-8.793C138.259,-8.667 138.652,-8.484 138.988,-8.244C139.204,-8.1 139.357,-7.959 139.447,-7.821C139.537,-7.683 139.582,-7.53 139.582,-7.362C139.582,-7.194 139.537,-7.056 139.447,-6.948C139.357,-6.84 139.24,-6.786 139.096,-6.786C139.012,-6.786 138.922,-6.81 138.826,-6.858C138.73,-6.906 138.649,-6.954 138.583,-7.002C138.517,-7.05 138.472,-7.08 138.448,-7.092C138.136,-7.296 137.839,-7.458 137.557,-7.578C137.275,-7.698 136.93,-7.758 136.522,-7.758C135.646,-7.758 134.965,-7.461 134.479,-6.867C133.993,-6.273 133.75,-5.448 133.75,-4.392C133.75,-3.336 133.993,-2.52 134.479,-1.944C134.965,-1.368 135.646,-1.08 136.522,-1.08C136.93,-1.08 137.281,-1.14 137.575,-1.26C137.869,-1.38 138.166,-1.542 138.466,-1.746C138.598,-1.83 138.724,-1.902 138.844,-1.962C138.964,-2.022 139.066,-2.052 139.15,-2.052C139.282,-2.052 139.393,-1.998 139.483,-1.89C139.573,-1.782 139.618,-1.644 139.618,-1.476C139.618,-1.32 139.576,-1.179 139.492,-1.053C139.408,-0.927 139.252,-0.786 139.024,-0.63C138.688,-0.402 138.283,-0.219 137.809,-0.081C137.335,0.057 136.858,0.126 136.378,0.126C135.562,0.126 134.839,-0.06 134.209,-0.432Z" style="fill-rule:nonzero;"/><path d="M158.081,-12.681C158.201,-12.759 158.333,-12.798 158.477,-12.798C158.669,-12.798 158.834,-12.741 158.972,-12.627C159.11,-12.513 159.179,-12.36 159.179,-12.168C159.179,-12.084 159.161,-11.988 159.125,-11.88L155.057,-0.414C154.997,-0.246 154.895,-0.117 154.751,-0.027C154.607,0.063 154.445,0.108 154.265,0.108C154.097,0.108 153.941,0.063 153.797,-0.027C153.653,-0.117 153.551,-0.246 153.491,-0.414L149.963,-10.386L146.399,-0.414C146.339,-0.246 146.237,-0.117 146.093,-0.027C145.949,0.063 145.793,0.108 145.625,0.108C145.457,0.108 145.301,0.063 145.157,-0.027C145.013,-0.117 144.911,-0.246 144.851,-0.414L140.765,-11.88C140.729,-11.976 140.711,-12.066 140.711,-12.15C140.711,-12.342 140.786,-12.498 140.936,-12.618C141.086,-12.738 141.257,-12.798 141.449,-12.798C141.593,-12.798 141.728,-12.759 141.854,-12.681C141.98,-12.603 142.067,-12.486 142.115,-12.33L145.661,-2.106L149.261,-12.222C149.321,-12.402 149.417,-12.537 149.549,-12.627C149.681,-12.717 149.825,-12.762 149.981,-12.762C150.137,-12.762 150.281,-12.714 150.413,-12.618C150.545,-12.522 150.641,-12.384 150.701,-12.204L154.247,-2.07L157.829,-12.33C157.877,-12.486 157.961,-12.603 158.081,-12.681Z" style="fill-rule:nonzero;"/><path d="M167.094,-5.526L167.094,-0.63C167.094,-0.414 167.031,-0.24 166.905,-0.108C166.779,0.024 166.608,0.09 166.392,0.09C166.176,0.09 166.002,0.024 165.87,-0.108C165.738,-0.24 165.672,-0.414 165.672,-0.63L165.672,-1.494C165.444,-0.978 165.096,-0.579 164.628,-0.297C164.16,-0.015 163.62,0.126 163.008,0.126C162.444,0.126 161.925,0.012 161.451,-0.216C160.977,-0.444 160.602,-0.762 160.326,-1.17C160.05,-1.578 159.912,-2.028 159.912,-2.52C159.912,-3.18 160.08,-3.693 160.416,-4.059C160.752,-4.425 161.304,-4.689 162.072,-4.851C162.84,-5.013 163.908,-5.094 165.276,-5.094L165.672,-5.094L165.672,-5.688C165.672,-6.408 165.525,-6.936 165.231,-7.272C164.937,-7.608 164.46,-7.776 163.8,-7.776C162.984,-7.776 162.156,-7.554 161.316,-7.11C160.992,-6.906 160.764,-6.804 160.632,-6.804C160.488,-6.804 160.368,-6.858 160.272,-6.966C160.176,-7.074 160.128,-7.212 160.128,-7.38C160.128,-7.548 160.179,-7.695 160.281,-7.821C160.383,-7.947 160.548,-8.076 160.776,-8.208C161.196,-8.448 161.673,-8.637 162.207,-8.775C162.741,-8.913 163.272,-8.982 163.8,-8.982C165.996,-8.982 167.094,-7.83 167.094,-5.526ZM164.979,-1.755C165.441,-2.241 165.672,-2.868 165.672,-3.636L165.672,-4.158L165.348,-4.158C164.292,-4.158 163.488,-4.113 162.936,-4.023C162.384,-3.933 161.991,-3.783 161.757,-3.573C161.523,-3.363 161.406,-3.054 161.406,-2.646C161.406,-2.178 161.577,-1.791 161.919,-1.485C162.261,-1.179 162.69,-1.026 163.206,-1.026C163.926,-1.026 164.517,-1.269 164.979,-1.755Z" style="fill-rule:nonzero;"/><path d="M169.979,-0.099C169.841,-0.225 169.772,-0.402 169.772,-0.63L169.772,-12.06C169.772,-12.288 169.841,-12.465 169.979,-12.591C170.117,-12.717 170.294,-12.78 170.51,-12.78C170.714,-12.78 170.885,-12.717 171.023,-12.591C171.161,-12.465 171.23,-12.288 171.23,-12.06L171.23,-0.63C171.23,-0.402 171.161,-0.225 171.023,-0.099C170.885,0.027 170.714,0.09 170.51,0.09C170.294,0.09 170.117,0.027 169.979,-0.099Z" style="fill-rule:nonzero;"/></g><g transform="matrix(1,0,0,1,812.646,751)"><rect x="1.476" y="-13.104" width="1.08" height="13.104" style="fill-rule:nonzero;"/></g><g transform="matrix(1,0,0,1,633.876,776)"><path d="M8.91,-5.508L8.91,-0.63C8.91,-0.402 8.847,-0.225 8.721,-0.099C8.595,0.027 8.418,0.09 8.19,0.09C7.962,0.09 7.782,0.027 7.65,-0.099C7.518,-0.225 7.452,-0.402 7.452,-0.63L7.452,-5.418C7.452,-6.234 7.293,-6.828 6.975,-7.2C6.657,-7.572 6.15,-7.758 5.454,-7.758C4.65,-7.758 4.008,-7.512 3.528,-7.02C3.048,-6.528 2.808,-5.862 2.808,-5.022L2.808,-0.63C2.808,-0.402 2.745,-0.225 2.619,-0.099C2.493,0.027 2.316,0.09 2.088,0.09C1.86,0.09 1.68,0.027 1.548,-0.099C1.416,-0.225 1.35,-0.402 1.35,-0.63L1.35,-8.226C1.35,-8.442 1.416,-8.616 1.548,-8.748C1.68,-8.88 1.86,-8.946 2.088,-8.946C2.304,-8.946 2.475,-8.88 2.601,-8.748C2.727,-8.616 2.79,-8.448 2.79,-8.244L2.79,-7.326C3.078,-7.866 3.48,-8.277 3.996,-8.559C4.512,-8.841 5.1,-8.982 5.76,-8.982C7.86,-8.982 8.91,-7.824 8.91,-5.508Z" style="fill-rule:nonzero;"/><path d="M18.715,-1.872C18.811,-1.764 18.859,-1.626 18.859,-1.458C18.859,-1.158 18.649,-0.882 18.229,-0.63C17.797,-0.378 17.341,-0.189 16.861,-0.063C16.381,0.063 15.913,0.126 15.457,0.126C14.101,0.126 13.03,-0.276 12.244,-1.08C11.458,-1.884 11.065,-2.994 11.065,-4.41C11.065,-5.31 11.239,-6.105 11.587,-6.795C11.935,-7.485 12.424,-8.022 13.054,-8.406C13.684,-8.79 14.401,-8.982 15.205,-8.982C16.345,-8.982 17.251,-8.61 17.923,-7.866C18.595,-7.122 18.931,-6.114 18.931,-4.842C18.931,-4.602 18.883,-4.428 18.787,-4.32C18.691,-4.212 18.535,-4.158 18.319,-4.158L12.523,-4.158C12.631,-2.094 13.609,-1.062 15.457,-1.062C15.925,-1.062 16.327,-1.125 16.663,-1.251C16.999,-1.377 17.359,-1.548 17.743,-1.764C18.055,-1.944 18.265,-2.034 18.373,-2.034C18.505,-2.034 18.619,-1.98 18.715,-1.872ZM13.378,-7.128C12.916,-6.648 12.643,-5.97 12.559,-5.094L17.653,-5.094C17.629,-5.982 17.407,-6.663 16.987,-7.137C16.567,-7.611 15.979,-7.848 15.223,-7.848C14.455,-7.848 13.84,-7.608 13.378,-7.128Z" style="fill-rule:nonzero;"/><path d="M28.377,-0.594C28.377,-0.414 28.311,-0.258 28.179,-0.126C28.047,0.006 27.891,0.072 27.711,0.072C27.519,0.072 27.345,-0.012 27.189,-0.18L24.273,-3.51L21.375,-0.18C21.219,-0.012 21.045,0.072 20.853,0.072C20.673,0.072 20.514,0.006 20.376,-0.126C20.238,-0.258 20.169,-0.42 20.169,-0.612C20.169,-0.792 20.241,-0.96 20.385,-1.116L23.373,-4.482L20.511,-7.74C20.367,-7.908 20.295,-8.076 20.295,-8.244C20.295,-8.436 20.364,-8.598 20.502,-8.73C20.64,-8.862 20.793,-8.928 20.961,-8.928C21.153,-8.928 21.327,-8.844 21.483,-8.676L24.273,-5.472L27.063,-8.676C27.219,-8.844 27.393,-8.928 27.585,-8.928C27.765,-8.928 27.921,-8.862 28.053,-8.73C28.185,-8.598 28.251,-8.442 28.251,-8.262C28.251,-8.058 28.179,-7.884 28.035,-7.74L25.173,-4.482L28.161,-1.116C28.305,-0.972 28.377,-0.798 28.377,-0.594Z" style="fill-rule:nonzero;"/><path d="M34.978,-0.486C34.978,-0.282 34.903,-0.129 34.753,-0.027C34.603,0.075 34.378,0.114 34.078,0.09L33.592,0.054C32.632,-0.018 31.924,-0.306 31.468,-0.81C31.012,-1.314 30.784,-2.076 30.784,-3.096L30.784,-7.614L29.578,-7.614C29.374,-7.614 29.215,-7.665 29.101,-7.767C28.987,-7.869 28.93,-8.004 28.93,-8.172C28.93,-8.352 28.987,-8.496 29.101,-8.604C29.215,-8.712 29.374,-8.766 29.578,-8.766L30.784,-8.766L30.784,-10.8C30.784,-11.028 30.85,-11.205 30.982,-11.331C31.114,-11.457 31.294,-11.52 31.522,-11.52C31.738,-11.52 31.912,-11.457 32.044,-11.331C32.176,-11.205 32.242,-11.028 32.242,-10.8L32.242,-8.766L34.24,-8.766C34.432,-8.766 34.585,-8.712 34.699,-8.604C34.813,-8.496 34.87,-8.352 34.87,-8.172C34.87,-8.004 34.813,-7.869 34.699,-7.767C34.585,-7.665 34.432,-7.614 34.24,-7.614L32.242,-7.614L32.242,-3.024C32.242,-2.364 32.377,-1.887 32.647,-1.593C32.917,-1.299 33.322,-1.134 33.862,-1.098L34.348,-1.062C34.768,-1.026 34.978,-0.834 34.978,-0.486Z" style="fill-rule:nonzero;"/><path d="M36.17,-4.356C36.056,-4.464 35.999,-4.608 35.999,-4.788C35.999,-4.968 36.056,-5.115 36.17,-5.229C36.284,-5.343 36.449,-5.4 36.665,-5.4L40.625,-5.4C40.853,-5.4 41.024,-5.343 41.138,-5.229C41.252,-5.115 41.309,-4.968 41.309,-4.788C41.309,-4.608 41.252,-4.464 41.138,-4.356C41.024,-4.248 40.853,-4.194 40.625,-4.194L36.665,-4.194C36.449,-4.194 36.284,-4.248 36.17,-4.356Z" style="fill-rule:nonzero;"/><path d="M51.762,-8.748C51.894,-8.616 51.96,-8.442 51.96,-8.226L51.96,-0.594C51.96,0.714 51.624,1.701 50.952,2.367C50.28,3.033 49.284,3.366 47.964,3.366C46.68,3.366 45.612,3.114 44.76,2.61C44.328,2.37 44.112,2.094 44.112,1.782C44.112,1.614 44.157,1.476 44.247,1.368C44.337,1.26 44.454,1.206 44.598,1.206C44.718,1.206 44.934,1.29 45.246,1.458C45.666,1.674 46.08,1.848 46.488,1.98C46.896,2.112 47.382,2.178 47.946,2.178C48.798,2.178 49.44,1.953 49.872,1.503C50.304,1.053 50.52,0.396 50.52,-0.468L50.52,-2.016C50.268,-1.452 49.881,-1.02 49.359,-0.72C48.837,-0.42 48.222,-0.27 47.514,-0.27C46.746,-0.27 46.065,-0.45 45.471,-0.81C44.877,-1.17 44.415,-1.68 44.085,-2.34C43.755,-3 43.59,-3.762 43.59,-4.626C43.59,-5.49 43.755,-6.252 44.085,-6.912C44.415,-7.572 44.877,-8.082 45.471,-8.442C46.065,-8.802 46.746,-8.982 47.514,-8.982C48.21,-8.982 48.816,-8.832 49.332,-8.532C49.848,-8.232 50.238,-7.806 50.502,-7.254L50.502,-8.226C50.502,-8.442 50.565,-8.616 50.691,-8.748C50.817,-8.88 50.994,-8.946 51.222,-8.946C51.45,-8.946 51.63,-8.88 51.762,-8.748ZM49.782,-2.313C50.262,-2.871 50.502,-3.642 50.502,-4.626C50.502,-5.598 50.265,-6.363 49.791,-6.921C49.317,-7.479 48.654,-7.758 47.802,-7.758C46.95,-7.758 46.281,-7.479 45.795,-6.921C45.309,-6.363 45.066,-5.598 45.066,-4.626C45.066,-3.642 45.309,-2.871 45.795,-2.313C46.281,-1.755 46.95,-1.476 47.802,-1.476C48.642,-1.476 49.302,-1.755 49.782,-2.313Z" style="fill-rule:nonzero;"/><path d="M61.802,-1.872C61.898,-1.764 61.946,-1.626 61.946,-1.458C61.946,-1.158 61.736,-0.882 61.316,-0.63C60.884,-0.378 60.428,-0.189 59.948,-0.063C59.468,0.063 59,0.126 58.544,0.126C57.188,0.126 56.117,-0.276 55.331,-1.08C54.545,-1.884 54.152,-2.994 54.152,-4.41C54.152,-5.31 54.326,-6.105 54.674,-6.795C55.022,-7.485 55.511,-8.022 56.141,-8.406C56.771,-8.79 57.488,-8.982 58.292,-8.982C59.432,-8.982 60.338,-8.61 61.01,-7.866C61.682,-7.122 62.018,-6.114 62.018,-4.842C62.018,-4.602 61.97,-4.428 61.874,-4.32C61.778,-4.212 61.622,-4.158 61.406,-4.158L55.61,-4.158C55.718,-2.094 56.696,-1.062 58.544,-1.062C59.012,-1.062 59.414,-1.125 59.75,-1.251C60.086,-1.377 60.446,-1.548 60.83,-1.764C61.142,-1.944 61.352,-2.034 61.46,-2.034C61.592,-2.034 61.706,-1.98 61.802,-1.872ZM56.465,-7.128C56.003,-6.648 55.73,-5.97 55.646,-5.094L60.74,-5.094C60.716,-5.982 60.494,-6.663 60.074,-7.137C59.654,-7.611 59.066,-7.848 58.31,-7.848C57.542,-7.848 56.927,-7.608 56.465,-7.128Z" style="fill-rule:nonzero;"/><path d="M71.733,-5.508L71.733,-0.63C71.733,-0.402 71.67,-0.225 71.544,-0.099C71.418,0.027 71.241,0.09 71.013,0.09C70.785,0.09 70.605,0.027 70.473,-0.099C70.341,-0.225 70.275,-0.402 70.275,-0.63L70.275,-5.418C70.275,-6.234 70.116,-6.828 69.798,-7.2C69.48,-7.572 68.973,-7.758 68.277,-7.758C67.473,-7.758 66.831,-7.512 66.351,-7.02C65.871,-6.528 65.631,-5.862 65.631,-5.022L65.631,-0.63C65.631,-0.402 65.568,-0.225 65.442,-0.099C65.316,0.027 65.139,0.09 64.911,0.09C64.683,0.09 64.503,0.027 64.371,-0.099C64.239,-0.225 64.173,-0.402 64.173,-0.63L64.173,-8.226C64.173,-8.442 64.239,-8.616 64.371,-8.748C64.503,-8.88 64.683,-8.946 64.911,-8.946C65.127,-8.946 65.298,-8.88 65.424,-8.748C65.55,-8.616 65.613,-8.448 65.613,-8.244L65.613,-7.326C65.901,-7.866 66.303,-8.277 66.819,-8.559C67.335,-8.841 67.923,-8.982 68.583,-8.982C70.683,-8.982 71.733,-7.824 71.733,-5.508Z" style="fill-rule:nonzero;"/><path d="M81.538,-1.872C81.634,-1.764 81.682,-1.626 81.682,-1.458C81.682,-1.158 81.472,-0.882 81.052,-0.63C80.62,-0.378 80.164,-0.189 79.684,-0.063C79.204,0.063 78.736,0.126 78.28,0.126C76.924,0.126 75.853,-0.276 75.067,-1.08C74.281,-1.884 73.888,-2.994 73.888,-4.41C73.888,-5.31 74.062,-6.105 74.41,-6.795C74.758,-7.485 75.247,-8.022 75.877,-8.406C76.507,-8.79 77.224,-8.982 78.028,-8.982C79.168,-8.982 80.074,-8.61 80.746,-7.866C81.418,-7.122 81.754,-6.114 81.754,-4.842C81.754,-4.602 81.706,-4.428 81.61,-4.32C81.514,-4.212 81.358,-4.158 81.142,-4.158L75.346,-4.158C75.454,-2.094 76.432,-1.062 78.28,-1.062C78.748,-1.062 79.15,-1.125 79.486,-1.251C79.822,-1.377 80.182,-1.548 80.566,-1.764C80.878,-1.944 81.088,-2.034 81.196,-2.034C81.328,-2.034 81.442,-1.98 81.538,-1.872ZM76.201,-7.128C75.739,-6.648 75.466,-5.97 75.382,-5.094L80.476,-5.094C80.452,-5.982 80.23,-6.663 79.81,-7.137C79.39,-7.611 78.802,-7.848 78.046,-7.848C77.278,-7.848 76.663,-7.608 76.201,-7.128Z" style="fill-rule:nonzero;"/><path d="M89.004,-8.334C89.004,-8.142 88.95,-7.989 88.842,-7.875C88.734,-7.761 88.548,-7.692 88.284,-7.668L87.744,-7.614C86.94,-7.542 86.343,-7.257 85.953,-6.759C85.563,-6.261 85.368,-5.676 85.368,-5.004L85.368,-0.63C85.368,-0.39 85.302,-0.21 85.17,-0.09C85.038,0.03 84.864,0.09 84.648,0.09C84.432,0.09 84.255,0.027 84.117,-0.099C83.979,-0.225 83.91,-0.402 83.91,-0.63L83.91,-8.226C83.91,-8.454 83.982,-8.631 84.126,-8.757C84.27,-8.883 84.444,-8.946 84.648,-8.946C84.84,-8.946 85.002,-8.883 85.134,-8.757C85.266,-8.631 85.332,-8.46 85.332,-8.244L85.332,-7.236C85.584,-7.764 85.941,-8.166 86.403,-8.442C86.865,-8.718 87.396,-8.88 87.996,-8.928L88.248,-8.946C88.752,-8.982 89.004,-8.778 89.004,-8.334Z" style="fill-rule:nonzero;"/><path d="M97.081,-5.526L97.081,-0.63C97.081,-0.414 97.018,-0.24 96.892,-0.108C96.766,0.024 96.595,0.09 96.379,0.09C96.163,0.09 95.989,0.024 95.857,-0.108C95.725,-0.24 95.659,-0.414 95.659,-0.63L95.659,-1.494C95.431,-0.978 95.083,-0.579 94.615,-0.297C94.147,-0.015 93.607,0.126 92.995,0.126C92.431,0.126 91.912,0.012 91.438,-0.216C90.964,-0.444 90.589,-0.762 90.313,-1.17C90.037,-1.578 89.899,-2.028 89.899,-2.52C89.899,-3.18 90.067,-3.693 90.403,-4.059C90.739,-4.425 91.291,-4.689 92.059,-4.851C92.827,-5.013 93.895,-5.094 95.263,-5.094L95.659,-5.094L95.659,-5.688C95.659,-6.408 95.512,-6.936 95.218,-7.272C94.924,-7.608 94.447,-7.776 93.787,-7.776C92.971,-7.776 92.143,-7.554 91.303,-7.11C90.979,-6.906 90.751,-6.804 90.619,-6.804C90.475,-6.804 90.355,-6.858 90.259,-6.966C90.163,-7.074 90.115,-7.212 90.115,-7.38C90.115,-7.548 90.166,-7.695 90.268,-7.821C90.37,-7.947 90.535,-8.076 90.763,-8.208C91.183,-8.448 91.66,-8.637 92.194,-8.775C92.728,-8.913 93.259,-8.982 93.787,-8.982C95.983,-8.982 97.081,-7.83 97.081,-5.526ZM94.966,-1.755C95.428,-2.241 95.659,-2.868 95.659,-3.636L95.659,-4.158L95.335,-4.158C94.279,-4.158 93.475,-4.113 92.923,-4.023C92.371,-3.933 91.978,-3.783 91.744,-3.573C91.51,-3.363 91.393,-3.054 91.393,-2.646C91.393,-2.178 91.564,-1.791 91.906,-1.485C92.248,-1.179 92.677,-1.026 93.193,-1.026C93.913,-1.026 94.504,-1.269 94.966,-1.755Z" style="fill-rule:nonzero;"/><path d="M104.438,-0.486C104.438,-0.282 104.363,-0.129 104.213,-0.027C104.063,0.075 103.838,0.114 103.538,0.09L103.052,0.054C102.092,-0.018 101.384,-0.306 100.928,-0.81C100.472,-1.314 100.244,-2.076 100.244,-3.096L100.244,-7.614L99.038,-7.614C98.834,-7.614 98.675,-7.665 98.561,-7.767C98.447,-7.869 98.39,-8.004 98.39,-8.172C98.39,-8.352 98.447,-8.496 98.561,-8.604C98.675,-8.712 98.834,-8.766 99.038,-8.766L100.244,-8.766L100.244,-10.8C100.244,-11.028 100.31,-11.205 100.442,-11.331C100.574,-11.457 100.754,-11.52 100.982,-11.52C101.198,-11.52 101.372,-11.457 101.504,-11.331C101.636,-11.205 101.702,-11.028 101.702,-10.8L101.702,-8.766L103.7,-8.766C103.892,-8.766 104.045,-8.712 104.159,-8.604C104.273,-8.496 104.33,-8.352 104.33,-8.172C104.33,-8.004 104.273,-7.869 104.159,-7.767C104.045,-7.665 103.892,-7.614 103.7,-7.614L101.702,-7.614L101.702,-3.024C101.702,-2.364 101.837,-1.887 102.107,-1.593C102.377,-1.299 102.782,-1.134 103.322,-1.098L103.808,-1.062C104.228,-1.026 104.438,-0.834 104.438,-0.486Z" style="fill-rule:nonzero;"/><path d="M106.098,-0.099C105.96,-0.225 105.891,-0.402 105.891,-0.63L105.891,-8.226C105.891,-8.454 105.96,-8.631 106.098,-8.757C106.236,-8.883 106.413,-8.946 106.629,-8.946C106.845,-8.946 107.019,-8.883 107.151,-8.757C107.283,-8.631 107.349,-8.454 107.349,-8.226L107.349,-0.63C107.349,-0.39 107.283,-0.21 107.151,-0.09C107.019,0.03 106.845,0.09 106.629,0.09C106.413,0.09 106.236,0.027 106.098,-0.099ZM105.927,-11.088C105.747,-11.256 105.657,-11.478 105.657,-11.754C105.657,-12.018 105.747,-12.234 105.927,-12.402C106.107,-12.57 106.341,-12.654 106.629,-12.654C106.917,-12.654 107.151,-12.57 107.331,-12.402C107.511,-12.234 107.601,-12.018 107.601,-11.754C107.601,-11.478 107.511,-11.256 107.331,-11.088C107.151,-10.92 106.917,-10.836 106.629,-10.836C106.341,-10.836 106.107,-10.92 105.927,-11.088Z" style="fill-rule:nonzero;"/><path d="M111.53,-0.432C110.9,-0.804 110.414,-1.335 110.072,-2.025C109.73,-2.715 109.559,-3.516 109.559,-4.428C109.559,-5.34 109.73,-6.141 110.072,-6.831C110.414,-7.521 110.9,-8.052 111.53,-8.424C112.16,-8.796 112.889,-8.982 113.717,-8.982C114.545,-8.982 115.277,-8.796 115.913,-8.424C116.549,-8.052 117.038,-7.521 117.38,-6.831C117.722,-6.141 117.893,-5.34 117.893,-4.428C117.893,-3.516 117.722,-2.715 117.38,-2.025C117.038,-1.335 116.549,-0.804 115.913,-0.432C115.277,-0.06 114.545,0.126 113.717,0.126C112.889,0.126 112.16,-0.06 111.53,-0.432ZM115.706,-1.935C116.168,-2.505 116.399,-3.336 116.399,-4.428C116.399,-5.496 116.165,-6.321 115.697,-6.903C115.229,-7.485 114.569,-7.776 113.717,-7.776C112.865,-7.776 112.205,-7.485 111.737,-6.903C111.269,-6.321 111.035,-5.496 111.035,-4.428C111.035,-3.348 111.266,-2.52 111.728,-1.944C112.19,-1.368 112.853,-1.08 113.717,-1.08C114.581,-1.08 115.244,-1.365 115.706,-1.935Z" style="fill-rule:nonzero;"/><path d="M127.644,-5.508L127.644,-0.63C127.644,-0.402 127.581,-0.225 127.455,-0.099C127.329,0.027 127.152,0.09 126.924,0.09C126.696,0.09 126.516,0.027 126.384,-0.099C126.252,-0.225 126.186,-0.402 126.186,-0.63L126.186,-5.418C126.186,-6.234 126.027,-6.828 125.709,-7.2C125.391,-7.572 124.884,-7.758 124.188,-7.758C123.384,-7.758 122.742,-7.512 122.262,-7.02C121.782,-6.528 121.542,-5.862 121.542,-5.022L121.542,-0.63C121.542,-0.402 121.479,-0.225 121.353,-0.099C121.227,0.027 121.05,0.09 120.822,0.09C120.594,0.09 120.414,0.027 120.282,-0.099C120.15,-0.225 120.084,-0.402 120.084,-0.63L120.084,-8.226C120.084,-8.442 120.15,-8.616 120.282,-8.748C120.414,-8.88 120.594,-8.946 120.822,-8.946C121.038,-8.946 121.209,-8.88 121.335,-8.748C121.461,-8.616 121.524,-8.448 121.524,-8.244L121.524,-7.326C121.812,-7.866 122.214,-8.277 122.73,-8.559C123.246,-8.841 123.834,-8.982 124.494,-8.982C126.594,-8.982 127.644,-7.824 127.644,-5.508Z" style="fill-rule:nonzero;"/><path d="M142.161,-8.604C142.269,-8.496 142.323,-8.352 142.323,-8.172L142.323,-0.63C142.323,-0.402 142.254,-0.225 142.116,-0.099C141.978,0.027 141.807,0.09 141.603,0.09C141.387,0.09 141.21,0.027 141.072,-0.099C140.934,-0.225 140.865,-0.402 140.865,-0.63L140.865,-7.614L136.923,-7.614L136.923,-0.63C136.923,-0.402 136.854,-0.225 136.716,-0.099C136.578,0.027 136.407,0.09 136.203,0.09C135.987,0.09 135.81,0.027 135.672,-0.099C135.534,-0.225 135.465,-0.402 135.465,-0.63L135.465,-7.614L134.259,-7.614C134.055,-7.614 133.896,-7.665 133.782,-7.767C133.668,-7.869 133.611,-8.004 133.611,-8.172C133.611,-8.352 133.668,-8.496 133.782,-8.604C133.896,-8.712 134.055,-8.766 134.259,-8.766L135.465,-8.766L135.465,-9.072C135.465,-10.152 135.735,-11.001 136.275,-11.619C136.815,-12.237 137.589,-12.588 138.597,-12.672L139.029,-12.708C139.605,-12.756 139.893,-12.576 139.893,-12.168C139.893,-11.82 139.689,-11.622 139.281,-11.574L138.849,-11.538C138.213,-11.49 137.733,-11.289 137.409,-10.935C137.085,-10.581 136.923,-10.05 136.923,-9.342L136.923,-8.766L141.693,-8.766C141.897,-8.766 142.053,-8.712 142.161,-8.604ZM142.296,-12.402C142.482,-12.234 142.575,-12.018 142.575,-11.754C142.575,-11.478 142.485,-11.256 142.305,-11.088C142.125,-10.92 141.891,-10.836 141.603,-10.836C141.315,-10.836 141.081,-10.92 140.901,-11.088C140.721,-11.256 140.631,-11.478 140.631,-11.754C140.631,-12.018 140.721,-12.234 140.901,-12.402C141.081,-12.57 141.315,-12.654 141.603,-12.654C141.879,-12.654 142.11,-12.57 142.296,-12.402Z" style="fill-rule:nonzero;"/><path d="M150.148,-8.334C150.148,-8.142 150.094,-7.989 149.986,-7.875C149.878,-7.761 149.692,-7.692 149.428,-7.668L148.888,-7.614C148.084,-7.542 147.487,-7.257 147.097,-6.759C146.707,-6.261 146.512,-5.676 146.512,-5.004L146.512,-0.63C146.512,-0.39 146.446,-0.21 146.314,-0.09C146.182,0.03 146.008,0.09 145.792,0.09C145.576,0.09 145.399,0.027 145.261,-0.099C145.123,-0.225 145.054,-0.402 145.054,-0.63L145.054,-8.226C145.054,-8.454 145.126,-8.631 145.27,-8.757C145.414,-8.883 145.588,-8.946 145.792,-8.946C145.984,-8.946 146.146,-8.883 146.278,-8.757C146.41,-8.631 146.476,-8.46 146.476,-8.244L146.476,-7.236C146.728,-7.764 147.085,-8.166 147.547,-8.442C148.009,-8.718 148.54,-8.88 149.14,-8.928L149.392,-8.946C149.896,-8.982 150.148,-8.778 150.148,-8.334Z" style="fill-rule:nonzero;"/><path d="M158.369,-1.872C158.465,-1.764 158.513,-1.626 158.513,-1.458C158.513,-1.158 158.303,-0.882 157.883,-0.63C157.451,-0.378 156.995,-0.189 156.515,-0.063C156.035,0.063 155.567,0.126 155.111,0.126C153.755,0.126 152.684,-0.276 151.898,-1.08C151.112,-1.884 150.719,-2.994 150.719,-4.41C150.719,-5.31 150.893,-6.105 151.241,-6.795C151.589,-7.485 152.078,-8.022 152.708,-8.406C153.338,-8.79 154.055,-8.982 154.859,-8.982C155.999,-8.982 156.905,-8.61 157.577,-7.866C158.249,-7.122 158.585,-6.114 158.585,-4.842C158.585,-4.602 158.537,-4.428 158.441,-4.32C158.345,-4.212 158.189,-4.158 157.973,-4.158L152.177,-4.158C152.285,-2.094 153.263,-1.062 155.111,-1.062C155.579,-1.062 155.981,-1.125 156.317,-1.251C156.653,-1.377 157.013,-1.548 157.397,-1.764C157.709,-1.944 157.919,-2.034 158.027,-2.034C158.159,-2.034 158.273,-1.98 158.369,-1.872ZM153.032,-7.128C152.57,-6.648 152.297,-5.97 152.213,-5.094L157.307,-5.094C157.283,-5.982 157.061,-6.663 156.641,-7.137C156.221,-7.611 155.633,-7.848 154.877,-7.848C154.109,-7.848 153.494,-7.608 153.032,-7.128Z" style="fill-rule:nonzero;"/><path d="M173.214,-8.91C173.394,-8.91 173.556,-8.85 173.7,-8.73C173.844,-8.61 173.916,-8.46 173.916,-8.28C173.916,-8.196 173.898,-8.106 173.862,-8.01L170.874,-0.45C170.802,-0.294 170.697,-0.171 170.559,-0.081C170.421,0.009 170.268,0.054 170.1,0.054C169.944,0.054 169.797,0.009 169.659,-0.081C169.521,-0.171 169.416,-0.294 169.344,-0.45L166.86,-6.768L164.394,-0.45C164.334,-0.294 164.232,-0.171 164.088,-0.081C163.944,0.009 163.788,0.054 163.62,0.054C163.464,0.054 163.314,0.009 163.17,-0.081C163.026,-0.171 162.918,-0.294 162.846,-0.45L159.858,-7.992C159.822,-8.088 159.804,-8.172 159.804,-8.244C159.804,-8.436 159.885,-8.598 160.047,-8.73C160.209,-8.862 160.386,-8.928 160.578,-8.928C160.866,-8.928 161.07,-8.784 161.19,-8.496L163.656,-1.854L166.194,-8.442C166.266,-8.598 166.365,-8.718 166.491,-8.802C166.617,-8.886 166.752,-8.928 166.896,-8.928C167.052,-8.928 167.193,-8.886 167.319,-8.802C167.445,-8.718 167.538,-8.598 167.598,-8.442L170.136,-1.872L172.62,-8.478C172.74,-8.766 172.938,-8.91 173.214,-8.91Z" style="fill-rule:nonzero;"/><path d="M182.516,-5.526L182.516,-0.63C182.516,-0.414 182.453,-0.24 182.327,-0.108C182.201,0.024 182.03,0.09 181.814,0.09C181.598,0.09 181.424,0.024 181.292,-0.108C181.16,-0.24 181.094,-0.414 181.094,-0.63L181.094,-1.494C180.866,-0.978 180.518,-0.579 180.05,-0.297C179.582,-0.015 179.042,0.126 178.43,0.126C177.866,0.126 177.347,0.012 176.873,-0.216C176.399,-0.444 176.024,-0.762 175.748,-1.17C175.472,-1.578 175.334,-2.028 175.334,-2.52C175.334,-3.18 175.502,-3.693 175.838,-4.059C176.174,-4.425 176.726,-4.689 177.494,-4.851C178.262,-5.013 179.33,-5.094 180.698,-5.094L181.094,-5.094L181.094,-5.688C181.094,-6.408 180.947,-6.936 180.653,-7.272C180.359,-7.608 179.882,-7.776 179.222,-7.776C178.406,-7.776 177.578,-7.554 176.738,-7.11C176.414,-6.906 176.186,-6.804 176.054,-6.804C175.91,-6.804 175.79,-6.858 175.694,-6.966C175.598,-7.074 175.55,-7.212 175.55,-7.38C175.55,-7.548 175.601,-7.695 175.703,-7.821C175.805,-7.947 175.97,-8.076 176.198,-8.208C176.618,-8.448 177.095,-8.637 177.629,-8.775C178.163,-8.913 178.694,-8.982 179.222,-8.982C181.418,-8.982 182.516,-7.83 182.516,-5.526ZM180.401,-1.755C180.863,-2.241 181.094,-2.868 181.094,-3.636L181.094,-4.158L180.77,-4.158C179.714,-4.158 178.91,-4.113 178.358,-4.023C177.806,-3.933 177.413,-3.783 177.179,-3.573C176.945,-3.363 176.828,-3.054 176.828,-2.646C176.828,-2.178 176.999,-1.791 177.341,-1.485C177.683,-1.179 178.112,-1.026 178.628,-1.026C179.348,-1.026 179.939,-1.269 180.401,-1.755Z" style="fill-rule:nonzero;"/><path d="M185.4,-0.099C185.262,-0.225 185.193,-0.402 185.193,-0.63L185.193,-12.06C185.193,-12.288 185.262,-12.465 185.4,-12.591C185.538,-12.717 185.715,-12.78 185.931,-12.78C186.135,-12.78 186.306,-12.717 186.444,-12.591C186.582,-12.465 186.651,-12.288 186.651,-12.06L186.651,-0.63C186.651,-0.402 186.582,-0.225 186.444,-0.099C186.306,0.027 186.135,0.09 185.931,0.09C185.715,0.09 185.538,0.027 185.4,-0.099Z" style="fill-rule:nonzero;"/><path d="M189.589,-0.099C189.451,-0.225 189.382,-0.402 189.382,-0.63L189.382,-12.06C189.382,-12.288 189.451,-12.465 189.589,-12.591C189.727,-12.717 189.904,-12.78 190.12,-12.78C190.324,-12.78 190.495,-12.717 190.633,-12.591C190.771,-12.465 190.84,-12.288 190.84,-12.06L190.84,-0.63C190.84,-0.402 190.771,-0.225 190.633,-0.099C190.495,0.027 190.324,0.09 190.12,0.09C189.904,0.09 189.727,0.027 189.589,-0.099Z" style="fill-rule:nonzero;"/></g></g></g></g></svg>