<?xml version="1.0" encoding="UTF-8"?>
<svg width="533px" height="244px" viewBox="0 0 533 244" version="1.1" xmlns="http://www.w3.org/2000/svg" xmlns:xlink="http://www.w3.org/1999/xlink">
    <!-- Generator: Sketch 52.4 (67378) - http://www.bohemiancoding.com/sketch -->
    <title>13</title>
    <desc>Created with Sketch.</desc>
    <g id="Page-1" stroke="none" stroke-width="1" fill="none" fill-rule="evenodd">
        <g id="Artboard-Copy-35" transform="translate(-83.000000, -752.000000)" fill="#80808A" fill-rule="nonzero">
            <g id="13" transform="translate(83.000000, 752.000000)">
                <path d="M19,6 C17.3431458,6 16,4.65685425 16,3 C16,1.34314575 17.3431458,0 19,0 L21,0 C22.6568542,0 24,1.34314575 24,3 C24,4.65685425 22.6568542,6 21,6 L19,6 Z M51,6 C49.3431458,6 48,4.65685425 48,3 C48,1.34314575 49.3431458,0 51,0 L53,0 C54.6568542,0 56,1.34314575 56,3 C56,4.65685425 54.6568542,6 53,6 L51,6 Z M83,6 C81.3431458,6 80,4.65685425 80,3 C80,1.34314575 81.3431458,0 83,0 L85,0 C86.6568542,0 88,1.34314575 88,3 C88,4.65685425 86.6568542,6 85,6 L83,6 Z M115,6 C113.343146,6 112,4.65685425 112,3 C112,1.34314575 113.343146,0 115,0 L117,0 C118.656854,0 120,1.34314575 120,3 C120,4.65685425 118.656854,6 117,6 L115,6 Z M147,6 C145.343146,6 144,4.65685425 144,3 C144,1.34314575 145.343146,0 147,0 L149,0 C150.656854,0 152,1.34314575 152,3 C152,4.65685425 150.656854,6 149,6 L147,6 Z M179,6 C177.343146,6 176,4.65685425 176,3 C176,1.34314575 177.343146,0 179,0 L181,0 C182.656854,0 184,1.34314575 184,3 C184,4.65685425 182.656854,6 181,6 L179,6 Z M211,6 C209.343146,6 208,4.65685425 208,3 C208,1.34314575 209.343146,0 211,0 L213,0 C214.656854,0 216,1.34314575 216,3 C216,4.65685425 214.656854,6 213,6 L211,6 Z M243,6 C241.343146,6 240,4.65685425 240,3 C240,1.34314575 241.343146,0 243,0 L245,0 C246.656854,0 248,1.34314575 248,3 C248,4.65685425 246.656854,6 245,6 L243,6 Z M275,6 C273.343146,6 272,4.65685425 272,3 C272,1.34314575 273.343146,0 275,0 L277,0 C278.656854,0 280,1.34314575 280,3 C280,4.65685425 278.656854,6 277,6 L275,6 Z M323,6 C321.343146,6 320,4.65685425 320,3 C320,1.34314575 321.343146,0 323,0 L325,0 C326.656854,0 328,1.34314575 328,3 C328,4.65685425 326.656854,6 325,6 L323,6 Z M355,6 C353.343146,6 352,4.65685425 352,3 C352,1.34314575 353.343146,0 355,0 L357,0 C358.656854,0 360,1.34314575 360,3 C360,4.65685425 358.656854,6 357,6 L355,6 Z M387,6 C385.343146,6 384,4.65685425 384,3 C384,1.34314575 385.343146,0 387,0 L389,0 C390.656854,0 392,1.34314575 392,3 C392,4.65685425 390.656854,6 389,6 L387,6 Z M419,6 C417.343146,6 416,4.65685425 416,3 C416,1.34314575 417.343146,0 419,0 L421,0 C422.656854,0 424,1.34314575 424,3 C424,4.65685425 422.656854,6 421,6 L419,6 Z M451,6 C449.343146,6 448,4.65685425 448,3 C448,1.34314575 449.343146,0 451,0 L453,0 C454.656854,0 456,1.34314575 456,3 C456,4.65685425 454.656854,6 453,6 L451,6 Z M483,6 C481.343146,6 480,4.65685425 480,3 C480,1.34314575 481.343146,0 483,0 L485,0 C486.656854,0 488,1.34314575 488,3 C488,4.65685425 486.656854,6 485,6 L483,6 Z M515,6 C513.343146,6 512,4.65685425 512,3 C512,1.34314575 513.343146,0 515,0 L517,0 C518.656854,0 520,1.34314575 520,3 C520,4.65685425 518.656854,6 517,6 L515,6 Z M527,20 C527,18.3431458 528.343146,17 530,17 C531.656854,17 533,18.3431458 533,20 L533,22 C533,23.6568542 531.656854,25 530,25 C528.343146,25 527,23.6568542 527,22 L527,20 Z M527,52 C527,50.3431458 528.343146,49 530,49 C531.656854,49 533,50.3431458 533,52 L533,54 C533,55.6568542 531.656854,57 530,57 C528.343146,57 527,55.6568542 527,54 L527,52 Z M527,84 C527,82.3431458 528.343146,81 530,81 C531.656854,81 533,82.3431458 533,84 L533,86 C533,87.6568542 531.656854,89 530,89 C528.343146,89 527,87.6568542 527,86 L527,84 Z M527,116 C527,114.343146 528.343146,113 530,113 C531.656854,113 533,114.343146 533,116 L533,118 C533,119.656854 531.656854,121 530,121 C528.343146,121 527,119.656854 527,118 L527,116 Z M527,148 C527,146.343146 528.343146,145 530,145 C531.656854,145 533,146.343146 533,148 L533,150 C533,151.656854 531.656854,153 530,153 C528.343146,153 527,151.656854 527,150 L527,148 Z M527,180 C527,178.343146 528.343146,177 530,177 C531.656854,177 533,178.343146 533,180 L533,182 C533,183.656854 531.656854,185 530,185 C528.343146,185 527,183.656854 527,182 L527,180 Z M527,212 C527,210.343146 528.343146,209 530,209 C531.656854,209 533,210.343146 533,212 L533,214 C533,215.656854 531.656854,217 530,217 C528.343146,217 527,215.656854 527,214 L527,212 Z M527,238 C528.656854,238 530,239.343146 530,241 C530,242.656854 528.656854,244 527,244 L525,244 C523.343146,244 522,242.656854 522,241 C522,239.343146 523.343146,238 525,238 L527,238 Z M495,238 C496.656854,238 498,239.343146 498,241 C498,242.656854 496.656854,244 495,244 L493,244 C491.343146,244 490,242.656854 490,241 C490,239.343146 491.343146,238 493,238 L495,238 Z M463,238 C464.656854,238 466,239.343146 466,241 C466,242.656854 464.656854,244 463,244 L461,244 C459.343146,244 458,242.656854 458,241 C458,239.343146 459.343146,238 461,238 L463,238 Z M431,238 C432.656854,238 434,239.343146 434,241 C434,242.656854 432.656854,244 431,244 L429,244 C427.343146,244 426,242.656854 426,241 C426,239.343146 427.343146,238 429,238 L431,238 Z M399,238 C400.656854,238 402,239.343146 402,241 C402,242.656854 400.656854,244 399,244 L397,244 C395.343146,244 394,242.656854 394,241 C394,239.343146 395.343146,238 397,238 L399,238 Z M367,238 C368.656854,238 370,239.343146 370,241 C370,242.656854 368.656854,244 367,244 L365,244 C363.343146,244 362,242.656854 362,241 C362,239.343146 363.343146,238 365,238 L367,238 Z M335,238 C336.656854,238 338,239.343146 338,241 C338,242.656854 336.656854,244 335,244 L333,244 C331.343146,244 330,242.656854 330,241 C330,239.343146 331.343146,238 333,238 L335,238 Z M303,238 C304.656854,238 306,239.343146 306,241 C306,242.656854 304.656854,244 303,244 L301,244 C299.343146,244 298,242.656854 298,241 C298,239.343146 299.343146,238 301,238 L303,238 Z M271,238 C272.656854,238 274,239.343146 274,241 C274,242.656854 272.656854,244 271,244 L269,244 C267.343146,244 266,242.656854 266,241 C266,239.343146 267.343146,238 269,238 L271,238 Z M239,238 C240.656854,238 242,239.343146 242,241 C242,242.656854 240.656854,244 239,244 L237,244 C235.343146,244 234,242.656854 234,241 C234,239.343146 235.343146,238 237,238 L239,238 Z M207,238 C208.656854,238 210,239.343146 210,241 C210,242.656854 208.656854,244 207,244 L205,244 C203.343146,244 202,242.656854 202,241 C202,239.343146 203.343146,238 205,238 L207,238 Z M175,238 C176.656854,238 178,239.343146 178,241 C178,242.656854 176.656854,244 175,244 L173,244 C171.343146,244 170,242.656854 170,241 C170,239.343146 171.343146,238 173,238 L175,238 Z M143,238 C144.656854,238 146,239.343146 146,241 C146,242.656854 144.656854,244 143,244 L141,244 C139.343146,244 138,242.656854 138,241 C138,239.343146 139.343146,238 141,238 L143,238 Z M111,238 C112.656854,238 114,239.343146 114,241 C114,242.656854 112.656854,244 111,244 L109,244 C107.343146,244 106,242.656854 106,241 C106,239.343146 107.343146,238 109,238 L111,238 Z M79,238 C80.6568542,238 82,239.343146 82,241 C82,242.656854 80.6568542,244 79,244 L77,244 C75.3431458,244 74,242.656854 74,241 C74,239.343146 75.3431458,238 77,238 L79,238 Z M47,238 C48.6568542,238 50,239.343146 50,241 C50,242.656854 48.6568542,244 47,244 L45,244 C43.3431458,244 42,242.656854 42,241 C42,239.343146 43.3431458,238 45,238 L47,238 Z M15,238 C16.6568542,238 18,239.343146 18,241 C18,242.656854 16.6568542,244 15,244 L13,244 C11.3431458,244 10,242.656854 10,241 C10,239.343146 11.3431458,238 13,238 L15,238 Z M6,221 C6,222.656854 4.65685425,224 3,224 C1.34314575,224 0,222.656854 0,221 L0,219 C0,217.343146 1.34314575,216 3,216 C4.65685425,216 6,217.343146 6,219 L6,221 Z M6,189 C6,190.656854 4.65685425,192 3,192 C1.34314575,192 0,190.656854 0,189 L0,187 C0,185.343146 1.34314575,184 3,184 C4.65685425,184 6,185.343146 6,187 L6,189 Z M6,157 C6,158.656854 4.65685425,160 3,160 C1.34314575,160 0,158.656854 0,157 L0,155 C0,153.343146 1.34314575,152 3,152 C4.65685425,152 6,153.343146 6,155 L6,157 Z M6,125 C6,126.656854 4.65685425,128 3,128 C1.34314575,128 0,126.656854 0,125 L0,123 C0,121.343146 1.34314575,120 3,120 C4.65685425,120 6,121.343146 6,123 L6,125 Z M6,93 C6,94.6568542 4.65685425,96 3,96 C1.34314575,96 0,94.6568542 0,93 L0,91 C0,89.3431458 1.34314575,88 3,88 C4.65685425,88 6,89.3431458 6,91 L6,93 Z M6,61 C6,62.6568542 4.65685425,64 3,64 C1.34314575,64 0,62.6568542 0,61 L0,59 C0,57.3431458 1.34314575,56 3,56 C4.65685425,56 6,57.3431458 6,59 L6,61 Z M6,29 C6,30.6568542 4.65685425,32 3,32 C1.34314575,32 0,30.6568542 0,29 L0,27 C0,25.3431458 1.34314575,24 3,24 C4.65685425,24 6,25.3431458 6,27 L6,29 Z" id="Rectangle"></path>
            </g>
        </g>
    </g>
</svg>