<?xml version="1.0" encoding="UTF-8"?>
<svg width="533px" height="244px" viewBox="0 0 533 244" version="1.1" xmlns="http://www.w3.org/2000/svg" xmlns:xlink="http://www.w3.org/1999/xlink">
    <!-- Generator: Sketch 52.4 (67378) - http://www.bohemiancoding.com/sketch -->
    <title>14</title>
    <desc>Created with Sketch.</desc>
    <g id="Page-1" stroke="none" stroke-width="1" fill="none" fill-rule="evenodd">
        <g id="Artboard-Copy-35" transform="translate(-83.000000, -752.000000)" fill="#FF8D20" fill-rule="nonzero">
            <g id="14" transform="translate(83.000000, 752.000000)">
                <path d="M3,6 C1.34314575,6 0,4.65685425 0,3 C0,1.34314575 1.34314575,0 3,0 L5,0 C6.65685425,0 8,1.34314575 8,3 C8,4.65685425 6.65685425,6 5,6 L3,6 Z M35,6 C33.3431458,6 32,4.65685425 32,3 C32,1.34314575 33.3431458,0 35,0 L37,0 C38.6568542,0 40,1.34314575 40,3 C40,4.65685425 38.6568542,6 37,6 L35,6 Z M67,6 C65.3431458,6 64,4.65685425 64,3 C64,1.34314575 65.3431458,0 67,0 L69,0 C70.6568542,0 72,1.34314575 72,3 C72,4.65685425 70.6568542,6 69,6 L67,6 Z M99,6 C97.3431458,6 96,4.65685425 96,3 C96,1.34314575 97.3431458,0 99,0 L101,0 C102.656854,0 104,1.34314575 104,3 C104,4.65685425 102.656854,6 101,6 L99,6 Z M131,6 C129.343146,6 128,4.65685425 128,3 C128,1.34314575 129.343146,0 131,0 L133,0 C134.656854,0 136,1.34314575 136,3 C136,4.65685425 134.656854,6 133,6 L131,6 Z M163,6 C161.343146,6 160,4.65685425 160,3 C160,1.34314575 161.343146,0 163,0 L165,0 C166.656854,0 168,1.34314575 168,3 C168,4.65685425 166.656854,6 165,6 L163,6 Z M195,6 C193.343146,6 192,4.65685425 192,3 C192,1.34314575 193.343146,0 195,0 L197,0 C198.656854,0 200,1.34314575 200,3 C200,4.65685425 198.656854,6 197,6 L195,6 Z M227,6 C225.343146,6 224,4.65685425 224,3 C224,1.34314575 225.343146,0 227,0 L229,0 C230.656854,0 232,1.34314575 232,3 C232,4.65685425 230.656854,6 229,6 L227,6 Z M259,6 C257.343146,6 256,4.65685425 256,3 C256,1.34314575 257.343146,0 259,0 L261,0 C262.656854,0 264,1.34314575 264,3 C264,4.65685425 262.656854,6 261,6 L259,6 Z M291,6 C289.343146,6 288,4.65685425 288,3 C288,1.34314575 289.343146,0 291,0 L293,0 C294.656854,0 296,1.34314575 296,3 C296,4.65685425 294.656854,6 293,6 L291,6 Z M307,6 C305.343146,6 304,4.65685425 304,3 C304,1.34314575 305.343146,0 307,0 L309,0 C310.656854,0 312,1.34314575 312,3 C312,4.65685425 310.656854,6 309,6 L307,6 Z M339,6 C337.343146,6 336,4.65685425 336,3 C336,1.34314575 337.343146,0 339,0 L341,0 C342.656854,0 344,1.34314575 344,3 C344,4.65685425 342.656854,6 341,6 L339,6 Z M371,6 C369.343146,6 368,4.65685425 368,3 C368,1.34314575 369.343146,0 371,0 L373,0 C374.656854,0 376,1.34314575 376,3 C376,4.65685425 374.656854,6 373,6 L371,6 Z M403,6 C401.343146,6 400,4.65685425 400,3 C400,1.34314575 401.343146,0 403,0 L405,0 C406.656854,0 408,1.34314575 408,3 C408,4.65685425 406.656854,6 405,6 L403,6 Z M435,6 C433.343146,6 432,4.65685425 432,3 C432,1.34314575 433.343146,0 435,0 L437,0 C438.656854,0 440,1.34314575 440,3 C440,4.65685425 438.656854,6 437,6 L435,6 Z M467,6 C465.343146,6 464,4.65685425 464,3 C464,1.34314575 465.343146,0 467,0 L469,0 C470.656854,0 472,1.34314575 472,3 C472,4.65685425 470.656854,6 469,6 L467,6 Z M499,6 C497.343146,6 496,4.65685425 496,3 C496,1.34314575 497.343146,0 499,0 L501,0 C502.656854,0 504,1.34314575 504,3 C504,4.65685425 502.656854,6 501,6 L499,6 Z M527,4 C527,2.34314575 528.343146,1 530,1 C531.656854,1 533,2.34314575 533,4 L533,6 C533,7.65685425 531.656854,9 530,9 C528.343146,9 527,7.65685425 527,6 L527,4 Z M527,36 C527,34.3431458 528.343146,33 530,33 C531.656854,33 533,34.3431458 533,36 L533,38 C533,39.6568542 531.656854,41 530,41 C528.343146,41 527,39.6568542 527,38 L527,36 Z M527,68 C527,66.3431458 528.343146,65 530,65 C531.656854,65 533,66.3431458 533,68 L533,70 C533,71.6568542 531.656854,73 530,73 C528.343146,73 527,71.6568542 527,70 L527,68 Z M527,100 C527,98.3431458 528.343146,97 530,97 C531.656854,97 533,98.3431458 533,100 L533,102 C533,103.656854 531.656854,105 530,105 C528.343146,105 527,103.656854 527,102 L527,100 Z M527,132 C527,130.343146 528.343146,129 530,129 C531.656854,129 533,130.343146 533,132 L533,134 C533,135.656854 531.656854,137 530,137 C528.343146,137 527,135.656854 527,134 L527,132 Z M527,164 C527,162.343146 528.343146,161 530,161 C531.656854,161 533,162.343146 533,164 L533,166 C533,167.656854 531.656854,169 530,169 C528.343146,169 527,167.656854 527,166 L527,164 Z M527,196 C527,194.343146 528.343146,193 530,193 C531.656854,193 533,194.343146 533,196 L533,198 C533,199.656854 531.656854,201 530,201 C528.343146,201 527,199.656854 527,198 L527,196 Z M527,228 C527,226.343146 528.343146,225 530,225 C531.656854,225 533,226.343146 533,228 L533,230 C533,231.656854 531.656854,233 530,233 C528.343146,233 527,231.656854 527,230 L527,228 Z M511,238 C512.656854,238 514,239.343146 514,241 C514,242.656854 512.656854,244 511,244 L509,244 C507.343146,244 506,242.656854 506,241 C506,239.343146 507.343146,238 509,238 L511,238 Z M479,238 C480.656854,238 482,239.343146 482,241 C482,242.656854 480.656854,244 479,244 L477,244 C475.343146,244 474,242.656854 474,241 C474,239.343146 475.343146,238 477,238 L479,238 Z M447,238 C448.656854,238 450,239.343146 450,241 C450,242.656854 448.656854,244 447,244 L445,244 C443.343146,244 442,242.656854 442,241 C442,239.343146 443.343146,238 445,238 L447,238 Z M415,238 C416.656854,238 418,239.343146 418,241 C418,242.656854 416.656854,244 415,244 L413,244 C411.343146,244 410,242.656854 410,241 C410,239.343146 411.343146,238 413,238 L415,238 Z M383,238 C384.656854,238 386,239.343146 386,241 C386,242.656854 384.656854,244 383,244 L381,244 C379.343146,244 378,242.656854 378,241 C378,239.343146 379.343146,238 381,238 L383,238 Z M351,238 C352.656854,238 354,239.343146 354,241 C354,242.656854 352.656854,244 351,244 L349,244 C347.343146,244 346,242.656854 346,241 C346,239.343146 347.343146,238 349,238 L351,238 Z M319,238 C320.656854,238 322,239.343146 322,241 C322,242.656854 320.656854,244 319,244 L317,244 C315.343146,244 314,242.656854 314,241 C314,239.343146 315.343146,238 317,238 L319,238 Z M287,238 C288.656854,238 290,239.343146 290,241 C290,242.656854 288.656854,244 287,244 L285,244 C283.343146,244 282,242.656854 282,241 C282,239.343146 283.343146,238 285,238 L287,238 Z M255,238 C256.656854,238 258,239.343146 258,241 C258,242.656854 256.656854,244 255,244 L253,244 C251.343146,244 250,242.656854 250,241 C250,239.343146 251.343146,238 253,238 L255,238 Z M223,238 C224.656854,238 226,239.343146 226,241 C226,242.656854 224.656854,244 223,244 L221,244 C219.343146,244 218,242.656854 218,241 C218,239.343146 219.343146,238 221,238 L223,238 Z M191,238 C192.656854,238 194,239.343146 194,241 C194,242.656854 192.656854,244 191,244 L189,244 C187.343146,244 186,242.656854 186,241 C186,239.343146 187.343146,238 189,238 L191,238 Z M159,238 C160.656854,238 162,239.343146 162,241 C162,242.656854 160.656854,244 159,244 L157,244 C155.343146,244 154,242.656854 154,241 C154,239.343146 155.343146,238 157,238 L159,238 Z M127,238 C128.656854,238 130,239.343146 130,241 C130,242.656854 128.656854,244 127,244 L125,244 C123.343146,244 122,242.656854 122,241 C122,239.343146 123.343146,238 125,238 L127,238 Z M95,238 C96.6568542,238 98,239.343146 98,241 C98,242.656854 96.6568542,244 95,244 L93,244 C91.3431458,244 90,242.656854 90,241 C90,239.343146 91.3431458,238 93,238 L95,238 Z M63,238 C64.6568542,238 66,239.343146 66,241 C66,242.656854 64.6568542,244 63,244 L61,244 C59.3431458,244 58,242.656854 58,241 C58,239.343146 59.3431458,238 61,238 L63,238 Z M31,238 C32.6568542,238 34,239.343146 34,241 C34,242.656854 32.6568542,244 31,244 L29,244 C27.3431458,244 26,242.656854 26,241 C26,239.343146 27.3431458,238 29,238 L31,238 Z M6,237 C6,238.656854 4.65685425,240 3,240 C1.34314575,240 0,238.656854 0,237 L0,235 C0,233.343146 1.34314575,232 3,232 C4.65685425,232 6,233.343146 6,235 L6,237 Z M6,205 C6,206.656854 4.65685425,208 3,208 C1.34314575,208 0,206.656854 0,205 L0,203 C0,201.343146 1.34314575,200 3,200 C4.65685425,200 6,201.343146 6,203 L6,205 Z M6,173 C6,174.656854 4.65685425,176 3,176 C1.34314575,176 0,174.656854 0,173 L0,171 C0,169.343146 1.34314575,168 3,168 C4.65685425,168 6,169.343146 6,171 L6,173 Z M6,141 C6,142.656854 4.65685425,144 3,144 C1.34314575,144 0,142.656854 0,141 L0,139 C0,137.343146 1.34314575,136 3,136 C4.65685425,136 6,137.343146 6,139 L6,141 Z M6,109 C6,110.656854 4.65685425,112 3,112 C1.34314575,112 0,110.656854 0,109 L0,107 C0,105.343146 1.34314575,104 3,104 C4.65685425,104 6,105.343146 6,107 L6,109 Z M6,77 C6,78.6568542 4.65685425,80 3,80 C1.34314575,80 0,78.6568542 0,77 L0,75 C0,73.3431458 1.34314575,72 3,72 C4.65685425,72 6,73.3431458 6,75 L6,77 Z M6,45 C6,46.6568542 4.65685425,48 3,48 C1.34314575,48 0,46.6568542 0,45 L0,43 C0,41.3431458 1.34314575,40 3,40 C4.65685425,40 6,41.3431458 6,43 L6,45 Z" id="Combined-Shape"></path>
            </g>
        </g>
    </g>
</svg>