<?xml version="1.0" encoding="UTF-8"?>
<svg width="20px" height="26px" viewBox="0 0 20 26" version="1.1" xmlns="http://www.w3.org/2000/svg" xmlns:xlink="http://www.w3.org/1999/xlink">
    <!-- Generator: Sketch 52.4 (67378) - http://www.bohemiancoding.com/sketch -->
    <title>6</title>
    <desc>Created with Sketch.</desc>
    <g id="Page-1" stroke="none" stroke-width="1" fill="none" fill-rule="evenodd">
        <g id="Artboard-Copy" transform="translate(-550.000000, -534.000000)" fill="#333333">
            <g id="6" transform="translate(550.000000, 534.000000)">
                <path d="M16.432,20.744 C17.5120054,20.744 18.3039975,20.9599978 18.808,21.392 C19.3120025,21.8240022 19.564,22.4719957 19.564,23.336 C19.564,25.1120089 18.5200104,26 16.432,26 L3.94,26 C1.85198956,26 0.808,25.1120089 0.808,23.336 C0.808,22.4719957 1.05999748,21.8240022 1.564,21.392 C2.06800252,20.9599978 2.8599946,20.744 3.94,20.744 L6.856,20.744 L6.856,7.748 L3.976,9.44 C3.56799796,9.6800012 3.14800216,9.8 2.716,9.8 C2.04399664,9.8 1.4680024,9.50600294 0.988,8.918 C0.5079976,8.32999706 0.268,7.6760036 0.268,6.956 C0.268,5.97199508 0.6879958,5.22800252 1.528,4.724 L7.288,1.376 C8.34400528,0.775997 9.33999532,0.476 10.276,0.476 C11.2360048,0.476 12.0099971,0.76399712 12.598,1.34 C13.1860029,1.91600288 13.48,2.69599508 13.48,3.68 L13.48,20.744 L16.432,20.744 Z" id="1"></path>
            </g>
        </g>
    </g>
</svg>