<?xml version="1.0" encoding="UTF-8"?>
<svg width="20px" height="27px" viewBox="0 0 20 27" version="1.1" xmlns="http://www.w3.org/2000/svg" xmlns:xlink="http://www.w3.org/1999/xlink">
    <!-- Generator: Sketch 52.4 (67378) - http://www.bohemiancoding.com/sketch -->
    <title>8</title>
    <desc>Created with Sketch.</desc>
    <g id="Page-1" stroke="none" stroke-width="1" fill="none" fill-rule="evenodd">
        <g id="Artboard-Copy" transform="translate(-1098.000000, -534.000000)" fill="#333333">
            <g id="8" transform="translate(1098.000000, 534.000000)">
                <path d="M15.372,12.932 C16.7880071,13.340002 17.897996,14.0839946 18.702,15.164 C19.506004,16.2440054 19.908,17.5519923 19.908,19.088 C19.908,20.5520073 19.512004,21.8239946 18.72,22.904 C17.927996,23.9840054 16.8060073,24.8179971 15.354,25.406 C13.9019927,25.9940029 12.2040097,26.288 10.26,26.288 C8.6999922,26.288 7.2000072,26.0780021 5.76,25.658 C4.3199928,25.2379979 3.07200528,24.632004 2.016,23.84 C1.60799796,23.5279984 1.32000084,23.1980017 1.152,22.85 C0.98399916,22.5019983 0.9,22.0880024 0.9,21.608 C0.9,20.8639963 1.10399796,20.2340026 1.512,19.718 C1.92000204,19.2019974 2.423997,18.944 3.024,18.944 C3.36000168,18.944 3.65999868,18.9979995 3.924,19.106 C4.18800132,19.2140005 4.54799772,19.3879988 5.004,19.628 C5.10000048,19.6760002 5.21399934,19.7299997 5.346,19.79 C5.47800066,19.8500003 5.62799916,19.9159996 5.796,19.988 C6.56400384,20.3720019 7.25399694,20.665999 7.866,20.87 C8.47800306,21.074001 9.16799616,21.176 9.936,21.176 C11.2800067,21.176 12.2459971,20.9600022 12.834,20.528 C13.4220029,20.0959978 13.716,19.376005 13.716,18.368 C13.716,17.4319953 13.416003,16.760002 12.816,16.352 C12.215997,15.943998 11.2320068,15.74 9.864,15.74 L7.632,15.74 C6.9119964,15.74 6.34800204,15.4880025 5.94,14.984 C5.53199796,14.4799975 5.328,13.8800035 5.328,13.184 C5.328,12.4879965 5.53199796,11.8880025 5.94,11.384 C6.34800204,10.8799975 6.9119964,10.628 7.632,10.628 L9.216,10.628 C10.5360066,10.628 11.495997,10.4360019 12.096,10.052 C12.696003,9.66799808 12.996,9.0560042 12.996,8.216 C12.996,7.32799556 12.7320026,6.63800246 12.204,6.146 C11.6759974,5.65399754 10.9440047,5.408 10.008,5.408 C9.33599664,5.408 8.70600294,5.51599892 8.118,5.732 C7.52999706,5.94800108 6.8760036,6.2359982 6.156,6.596 L5.4,6.956 C4.94399772,7.1960012 4.58400132,7.36999946 4.32,7.478 C4.05599868,7.58600054 3.75600168,7.64 3.42,7.64 C2.819997,7.64 2.31600204,7.38200258 1.908,6.866 C1.49999796,6.34999742 1.296,5.72000372 1.296,4.976 C1.296,4.47199748 1.37999916,4.05200168 1.548,3.716 C1.71600084,3.37999832 2.00399796,3.05600156 2.412,2.744 C3.44400516,1.97599616 4.66199298,1.37600216 6.066,0.944 C7.47000702,0.51199784 8.8919928,0.296 10.332,0.296 C12.1080089,0.296 13.6739932,0.58399712 15.03,1.16 C16.3860068,1.73600288 17.4299963,2.55199472 18.162,3.608 C18.8940037,4.66400528 19.26,5.88799304 19.26,7.28 C19.26,8.6000066 18.9180034,9.75799502 18.234,10.754 C17.5499966,11.750005 16.5960061,12.4759977 15.372,12.932 Z" id="3"></path>
            </g>
        </g>
    </g>
</svg>