<?xml version="1.0" encoding="UTF-8" standalone="no"?>
<!DOCTYPE svg PUBLIC "-//W3C//DTD SVG 1.1//EN" "http://www.w3.org/Graphics/SVG/1.1/DTD/svg11.dtd">
<svg width="100%" height="100%" viewBox="0 0 359 101" version="1.1" xmlns="http://www.w3.org/2000/svg" xmlns:xlink="http://www.w3.org/1999/xlink" xml:space="preserve" xmlns:serif="http://www.serif.com/" style="fill-rule:evenodd;clip-rule:evenodd;stroke-linejoin:round;stroke-miterlimit:1.41421;">
    <g transform="matrix(1,0,0,1,-166,-555)">
        <g id="Group-74">
            <g id="Account-Takeover-Pro" transform="matrix(1,0,0,1,0,168.108)">
                <g transform="matrix(1,0,0,1,177.4,427.505)">
                    <path d="M20.426,-10.521L9.167,-10.521L14.807,-25.122L20.426,-10.521ZM23.953,-1.354C24.445,-0.424 25.149,0.075 26.065,0.144C26.462,0.144 26.834,0.062 27.183,-0.103C27.532,-0.267 27.819,-0.502 28.044,-0.81C28.27,-1.118 28.383,-1.463 28.383,-1.846C28.383,-2.105 28.328,-2.372 28.219,-2.646L18.601,-26.619C18.122,-27.822 17.585,-28.622 16.991,-29.019C16.396,-29.415 15.668,-29.613 14.807,-29.613C13.932,-29.613 13.197,-29.415 12.602,-29.019C12.007,-28.622 11.471,-27.822 10.992,-26.619L1.374,-2.646C1.265,-2.386 1.21,-2.126 1.21,-1.866C1.21,-1.128 1.572,-0.561 2.297,-0.164C2.693,0.041 3.104,0.144 3.527,0.144C3.992,0.144 4.413,0.021 4.789,-0.226C5.165,-0.472 5.448,-0.848 5.64,-1.354L7.896,-7.198L21.697,-7.198L23.953,-1.354Z" style="fill:rgb(51,51,51);fill-rule:nonzero;"/>
                    <path d="M40.713,0.328C43.434,0.328 45.519,-0.273 46.968,-1.477C47.214,-1.682 47.395,-1.9 47.512,-2.133C47.628,-2.365 47.686,-2.591 47.686,-2.81C47.686,-2.974 47.655,-3.134 47.594,-3.292C47.532,-3.449 47.443,-3.582 47.327,-3.691C47.211,-3.801 47.077,-3.886 46.927,-3.948C46.777,-4.009 46.613,-4.04 46.435,-4.04C46.285,-4.04 46.131,-4.016 45.973,-3.968C45.816,-3.92 45.662,-3.842 45.512,-3.732C44.323,-2.898 42.826,-2.481 41.021,-2.481C39.722,-2.481 38.604,-2.837 37.668,-3.548C36.731,-4.259 36.044,-5.188 35.607,-6.337C35.169,-7.485 34.951,-8.777 34.951,-10.213C34.951,-12.564 35.521,-14.448 36.663,-15.863C37.805,-17.278 39.326,-17.985 41.226,-17.985C42.675,-17.985 43.994,-17.623 45.184,-16.898C45.471,-16.734 45.765,-16.652 46.066,-16.652C46.312,-16.652 46.534,-16.704 46.732,-16.806C46.931,-16.909 47.088,-17.052 47.204,-17.237C47.32,-17.421 47.378,-17.623 47.378,-17.842C47.378,-18.32 47.119,-18.751 46.599,-19.134C45.997,-19.585 45.208,-19.971 44.23,-20.292C43.253,-20.614 42.162,-20.774 40.959,-20.774C38.95,-20.774 37.169,-20.299 35.617,-19.349C34.065,-18.399 32.879,-17.127 32.059,-15.535C31.239,-13.942 30.828,-12.175 30.828,-10.233C30.828,-8.278 31.218,-6.504 31.997,-4.912C32.777,-3.319 33.925,-2.047 35.443,-1.097C36.96,-0.147 38.717,0.328 40.713,0.328Z" style="fill:rgb(51,51,51);fill-rule:nonzero;"/>
                    <path d="M60.016,0.328C62.737,0.328 64.822,-0.273 66.271,-1.477C66.517,-1.682 66.698,-1.9 66.815,-2.133C66.931,-2.365 66.989,-2.591 66.989,-2.81C66.989,-2.974 66.958,-3.134 66.897,-3.292C66.835,-3.449 66.746,-3.582 66.63,-3.691C66.514,-3.801 66.381,-3.886 66.23,-3.948C66.08,-4.009 65.916,-4.04 65.738,-4.04C65.588,-4.04 65.434,-4.016 65.277,-3.968C65.119,-3.92 64.966,-3.842 64.815,-3.732C63.626,-2.898 62.129,-2.481 60.324,-2.481C59.025,-2.481 57.907,-2.837 56.971,-3.548C56.034,-4.259 55.347,-5.188 54.91,-6.337C54.472,-7.485 54.254,-8.777 54.254,-10.213C54.254,-12.564 54.824,-14.448 55.966,-15.863C57.108,-17.278 58.629,-17.985 60.529,-17.985C61.978,-17.985 63.298,-17.623 64.487,-16.898C64.774,-16.734 65.068,-16.652 65.369,-16.652C65.615,-16.652 65.837,-16.704 66.035,-16.806C66.234,-16.909 66.391,-17.052 66.507,-17.237C66.623,-17.421 66.681,-17.623 66.681,-17.842C66.681,-18.32 66.422,-18.751 65.902,-19.134C65.3,-19.585 64.511,-19.971 63.533,-20.292C62.556,-20.614 61.466,-20.774 60.262,-20.774C58.253,-20.774 56.472,-20.299 54.92,-19.349C53.368,-18.399 52.182,-17.127 51.362,-15.535C50.542,-13.942 50.132,-12.175 50.132,-10.233C50.132,-8.278 50.521,-6.504 51.3,-4.912C52.08,-3.319 53.228,-2.047 54.746,-1.097C56.263,-0.147 58.02,0.328 60.016,0.328Z" style="fill:rgb(51,51,51);fill-rule:nonzero;"/>
                    <path d="M79.832,-2.481C77.863,-2.481 76.318,-3.172 75.197,-4.553C74.076,-5.934 73.516,-7.82 73.516,-10.213C73.516,-12.619 74.073,-14.513 75.187,-15.894C76.301,-17.274 77.85,-17.965 79.832,-17.965C81.801,-17.965 83.346,-17.271 84.467,-15.883C85.588,-14.496 86.148,-12.605 86.148,-10.213C86.148,-7.807 85.595,-5.92 84.487,-4.553C83.38,-3.186 81.828,-2.495 79.832,-2.481ZM79.832,0.328C81.486,0.328 82.983,0.044 84.323,-0.523C85.663,-1.09 86.757,-1.859 87.605,-2.83C88.452,-3.801 89.102,-4.918 89.553,-6.183C90.004,-7.448 90.23,-8.791 90.23,-10.213C90.23,-12.182 89.836,-13.956 89.05,-15.535C88.264,-17.114 87.075,-18.382 85.482,-19.339C83.889,-20.296 82.006,-20.774 79.832,-20.774C78.178,-20.774 76.684,-20.494 75.351,-19.934C74.018,-19.373 72.924,-18.607 72.07,-17.637C71.215,-16.666 70.563,-15.548 70.111,-14.284C69.66,-13.019 69.435,-11.662 69.435,-10.213C69.435,-8.777 69.66,-7.431 70.111,-6.173C70.563,-4.915 71.212,-3.801 72.06,-2.83C72.907,-1.859 74.001,-1.09 75.341,-0.523C76.681,0.044 78.178,0.328 79.832,0.328Z" style="fill:rgb(51,51,51);fill-rule:nonzero;"/>
                    <path d="M101.555,0.328C103.114,0.328 104.481,0.01 105.657,-0.625C106.832,-1.261 107.694,-2.167 108.241,-3.343L108.241,-1.866C108.241,-1.278 108.442,-0.82 108.846,-0.492C109.249,-0.164 109.731,0 110.291,0C110.866,0 111.358,-0.171 111.768,-0.513C112.178,-0.854 112.383,-1.333 112.383,-1.948L112.383,-18.457C112.383,-19.086 112.182,-19.575 111.778,-19.923C111.375,-20.272 110.893,-20.446 110.332,-20.446C109.758,-20.446 109.266,-20.272 108.856,-19.923C108.446,-19.575 108.241,-19.086 108.241,-18.457L108.241,-8.736C108.186,-6.836 107.622,-5.318 106.549,-4.184C105.476,-3.049 104.173,-2.481 102.642,-2.481C101.288,-2.481 100.222,-2.912 99.443,-3.773C98.663,-4.635 98.274,-5.893 98.274,-7.547L98.274,-18.457C98.274,-19.086 98.072,-19.575 97.669,-19.923C97.266,-20.272 96.784,-20.446 96.223,-20.446C95.663,-20.446 95.177,-20.272 94.767,-19.923C94.357,-19.575 94.152,-19.086 94.152,-18.457L94.152,-7.588C94.152,-4.949 94.839,-2.97 96.213,-1.651C97.587,-0.332 99.368,0.328 101.555,0.328Z" style="fill:rgb(51,51,51);fill-rule:nonzero;"/>
                    <path d="M119.976,0C120.537,0 121.022,-0.174 121.432,-0.523C121.843,-0.872 122.048,-1.354 122.048,-1.969L122.048,-11.71C122.102,-13.624 122.663,-15.145 123.729,-16.273C124.796,-17.401 126.088,-17.965 127.605,-17.965C128.959,-17.965 130.032,-17.534 130.825,-16.673C131.618,-15.812 132.014,-14.561 132.014,-12.92L132.014,-1.969C132.014,-1.354 132.216,-0.872 132.619,-0.523C133.023,-0.174 133.505,0 134.065,0C134.626,0 135.115,-0.174 135.532,-0.523C135.949,-0.872 136.157,-1.354 136.157,-1.969L136.157,-12.879C136.157,-14.219 135.966,-15.405 135.583,-16.437C135.2,-17.469 134.663,-18.296 133.973,-18.918C133.282,-19.541 132.496,-20.005 131.615,-20.313C130.733,-20.621 129.765,-20.774 128.713,-20.774C127.154,-20.774 125.79,-20.46 124.621,-19.831C123.452,-19.202 122.595,-18.293 122.048,-17.104L122.048,-18.56C122.048,-19.147 121.846,-19.605 121.443,-19.934C121.039,-20.262 120.557,-20.426 119.997,-20.426C119.436,-20.426 118.951,-20.258 118.541,-19.923C118.131,-19.588 117.926,-19.113 117.926,-18.498L117.926,-1.969C117.926,-1.354 118.127,-0.872 118.531,-0.523C118.934,-0.174 119.416,0 119.976,0Z" style="fill:rgb(51,51,51);fill-rule:nonzero;"/>
                    <path d="M148.426,0.246L149.41,0.246C149.711,0.246 149.971,0.243 150.19,0.236C150.408,0.229 150.651,0.212 150.918,0.185C151.184,0.157 151.406,0.12 151.584,0.072C151.762,0.024 151.943,-0.041 152.128,-0.123C152.312,-0.205 152.459,-0.304 152.568,-0.42C152.678,-0.537 152.767,-0.684 152.835,-0.861C152.903,-1.039 152.938,-1.237 152.938,-1.456C152.938,-1.88 152.791,-2.252 152.497,-2.574C152.203,-2.895 151.803,-3.056 151.297,-3.056C151.256,-3.056 151.215,-3.056 151.174,-3.056L149.718,-2.974C149.65,-2.974 149.581,-2.974 149.513,-2.974C148.679,-2.974 148.077,-3.288 147.708,-3.917C147.339,-4.546 147.154,-5.517 147.154,-6.829L147.154,-17.555L150.825,-17.555C151.318,-17.555 151.687,-17.674 151.933,-17.914C152.179,-18.153 152.302,-18.471 152.302,-18.867C152.302,-19.264 152.179,-19.592 151.933,-19.852C151.687,-20.111 151.318,-20.241 150.825,-20.241L147.154,-20.241L147.154,-26.106C147.154,-26.64 147.007,-27.043 146.714,-27.316C146.42,-27.59 146.047,-27.727 145.596,-27.727C145.063,-27.727 144.608,-27.556 144.232,-27.214C143.856,-26.872 143.634,-26.441 143.566,-25.922L143.012,-20.241L140.612,-20.241C140.12,-20.241 139.748,-20.118 139.495,-19.872C139.242,-19.626 139.115,-19.305 139.115,-18.908C139.115,-18.512 139.245,-18.187 139.505,-17.934C139.765,-17.681 140.141,-17.555 140.633,-17.555L143.012,-17.555L143.012,-5.968C143.012,-3.931 143.497,-2.386 144.468,-1.333C145.439,-0.28 146.758,0.246 148.426,0.246Z" style="fill:rgb(51,51,51);fill-rule:nonzero;"/>
                    <path d="M177.106,0.021C177.735,0.021 178.282,-0.181 178.747,-0.584C179.212,-0.988 179.444,-1.545 179.444,-2.256L179.444,-25.676L186.806,-25.676C187.381,-25.676 187.832,-25.86 188.16,-26.229C188.488,-26.599 188.652,-27.036 188.652,-27.542C188.652,-28.034 188.488,-28.465 188.16,-28.834C187.832,-29.203 187.381,-29.388 186.806,-29.388L167.345,-29.388C166.77,-29.388 166.319,-29.203 165.991,-28.834C165.663,-28.465 165.499,-28.027 165.499,-27.521C165.499,-27.029 165.663,-26.599 165.991,-26.229C166.319,-25.86 166.77,-25.676 167.345,-25.676L174.768,-25.676L174.768,-2.256C174.768,-1.545 175.001,-0.988 175.466,-0.584C175.931,-0.181 176.477,0.021 177.106,0.021Z" style="fill:rgb(51,51,51);fill-rule:nonzero;"/>
                    <path d="M197.394,0.328C200.265,0.328 202.309,-0.923 203.526,-3.425L203.526,-1.907C203.526,-1.497 203.625,-1.145 203.823,-0.851C204.021,-0.557 204.267,-0.338 204.561,-0.195C204.855,-0.051 205.18,0.021 205.535,0.021C206.082,0.021 206.561,-0.154 206.971,-0.502C207.381,-0.851 207.586,-1.333 207.586,-1.948L207.586,-13.515C207.586,-16.003 206.862,-17.835 205.412,-19.011C203.963,-20.187 201.981,-20.774 199.465,-20.774C196.553,-20.774 194.037,-20.2 191.918,-19.052C191.686,-18.929 191.515,-18.775 191.405,-18.59C191.296,-18.406 191.241,-18.197 191.241,-17.965C191.241,-17.842 191.258,-17.719 191.293,-17.596C191.327,-17.473 191.375,-17.353 191.436,-17.237C191.498,-17.121 191.573,-17.011 191.662,-16.909C191.751,-16.806 191.85,-16.717 191.959,-16.642C192.069,-16.567 192.185,-16.509 192.308,-16.468C192.431,-16.427 192.561,-16.406 192.697,-16.406C192.875,-16.406 193.046,-16.44 193.21,-16.509C193.921,-16.81 194.492,-17.042 194.923,-17.206C195.353,-17.37 195.992,-17.544 196.84,-17.729C197.688,-17.914 198.515,-18.006 199.321,-18.006C202.083,-18.006 203.464,-16.625 203.464,-13.863L203.464,-11.854C201.987,-11.854 200.74,-11.836 199.721,-11.802C198.703,-11.768 197.691,-11.7 196.686,-11.597C195.681,-11.495 194.861,-11.348 194.225,-11.156C193.59,-10.965 192.991,-10.715 192.431,-10.408C191.87,-10.1 191.44,-9.724 191.139,-9.28C190.838,-8.835 190.602,-8.309 190.431,-7.701C190.26,-7.092 190.175,-6.385 190.175,-5.578C190.175,-3.691 190.845,-2.235 192.185,-1.21C193.525,-0.185 195.261,0.328 197.394,0.328ZM197.804,-2.379C196.669,-2.379 195.767,-2.652 195.097,-3.199C194.427,-3.746 194.092,-4.594 194.092,-5.742C194.092,-6.289 194.147,-6.757 194.256,-7.147C194.365,-7.537 194.574,-7.875 194.882,-8.162C195.189,-8.449 195.555,-8.675 195.979,-8.839C196.403,-9.003 196.987,-9.136 197.732,-9.239C198.477,-9.341 199.287,-9.41 200.162,-9.444C201.037,-9.478 202.131,-9.495 203.444,-9.495L203.444,-8.921C203.444,-7.021 202.876,-5.455 201.741,-4.225C200.607,-2.994 199.294,-2.379 197.804,-2.379Z" style="fill:rgb(51,51,51);fill-rule:nonzero;"/>
                    <path d="M215.036,0C215.596,0 216.085,-0.185 216.502,-0.554C216.919,-0.923 217.127,-1.429 217.127,-2.071L217.127,-10.623L226.643,-0.574C226.78,-0.424 226.923,-0.301 227.074,-0.205C227.224,-0.109 227.378,-0.041 227.535,0C227.692,0.041 227.846,0.062 227.997,0.062C228.325,0.062 228.639,-0.024 228.94,-0.195C229.241,-0.366 229.48,-0.595 229.658,-0.882C229.835,-1.169 229.924,-1.47 229.924,-1.784C229.924,-2.222 229.753,-2.618 229.412,-2.974L221.578,-11.218L228.632,-17.719C228.974,-18.033 229.145,-18.409 229.145,-18.847C229.145,-19.325 228.96,-19.756 228.591,-20.139C228.222,-20.521 227.798,-20.713 227.32,-20.713C227.128,-20.713 226.937,-20.675 226.746,-20.6C226.554,-20.525 226.377,-20.412 226.212,-20.262L217.127,-11.71L217.127,-27.316C217.127,-27.945 216.926,-28.444 216.523,-28.813C216.119,-29.183 215.644,-29.367 215.097,-29.367C214.523,-29.367 214.031,-29.183 213.621,-28.813C213.21,-28.444 213.005,-27.945 213.005,-27.316L213.005,-2.071C213.005,-1.415 213.204,-0.906 213.6,-0.543C213.997,-0.181 214.475,0 215.036,0Z" style="fill:rgb(51,51,51);fill-rule:nonzero;"/>
                    <path d="M242.419,0.328C245.413,0.328 247.97,-0.608 250.089,-2.481C250.308,-2.659 250.468,-2.857 250.571,-3.076C250.673,-3.295 250.725,-3.521 250.725,-3.753C250.725,-3.999 250.666,-4.231 250.55,-4.45C250.434,-4.669 250.277,-4.843 250.079,-4.973C249.88,-5.103 249.665,-5.168 249.433,-5.168C249.296,-5.168 249.162,-5.144 249.033,-5.096C248.903,-5.048 248.769,-4.977 248.633,-4.881C247.662,-4.17 246.712,-3.606 245.782,-3.189C244.852,-2.772 243.827,-2.563 242.706,-2.563C240.819,-2.591 239.295,-3.158 238.133,-4.266C236.971,-5.373 236.362,-7.062 236.308,-9.331L250.048,-9.331C250.485,-9.331 250.813,-9.475 251.032,-9.762C251.251,-10.049 251.36,-10.418 251.36,-10.869C251.333,-12.236 251.131,-13.498 250.755,-14.653C250.379,-15.808 249.832,-16.851 249.115,-17.78C248.397,-18.71 247.433,-19.441 246.223,-19.975C245.013,-20.508 243.622,-20.774 242.05,-20.774C240.505,-20.774 239.1,-20.491 237.835,-19.923C236.571,-19.356 235.528,-18.59 234.708,-17.626C233.888,-16.663 233.255,-15.559 232.811,-14.314C232.367,-13.07 232.144,-11.751 232.144,-10.356C232.144,-7.075 233.098,-4.481 235.005,-2.574C236.912,-0.667 239.384,0.301 242.419,0.328ZM236.349,-11.833C236.417,-12.612 236.584,-13.357 236.851,-14.068C237.118,-14.779 237.487,-15.432 237.958,-16.027C238.43,-16.622 239.035,-17.093 239.773,-17.442C240.512,-17.791 241.332,-17.965 242.234,-17.965C243.984,-17.965 245.317,-17.387 246.233,-16.232C247.149,-15.077 247.669,-13.61 247.792,-11.833L236.349,-11.833Z" style="fill:rgb(51,51,51);fill-rule:nonzero;"/>
                    <path d="M264.737,-2.481C262.768,-2.481 261.223,-3.172 260.102,-4.553C258.981,-5.934 258.42,-7.82 258.42,-10.213C258.42,-12.619 258.977,-14.513 260.092,-15.894C261.206,-17.274 262.754,-17.965 264.737,-17.965C266.705,-17.965 268.25,-17.271 269.371,-15.883C270.492,-14.496 271.053,-12.605 271.053,-10.213C271.053,-7.807 270.499,-5.92 269.392,-4.553C268.284,-3.186 266.733,-2.495 264.737,-2.481ZM264.737,0.328C266.391,0.328 267.888,0.044 269.228,-0.523C270.568,-1.09 271.661,-1.859 272.509,-2.83C273.357,-3.801 274.006,-4.918 274.457,-6.183C274.908,-7.448 275.134,-8.791 275.134,-10.213C275.134,-12.182 274.741,-13.956 273.955,-15.535C273.169,-17.114 271.979,-18.382 270.386,-19.339C268.794,-20.296 266.91,-20.774 264.737,-20.774C263.082,-20.774 261.589,-20.494 260.256,-19.934C258.923,-19.373 257.829,-18.607 256.974,-17.637C256.12,-16.666 255.467,-15.548 255.016,-14.284C254.565,-13.019 254.339,-11.662 254.339,-10.213C254.339,-8.777 254.565,-7.431 255.016,-6.173C255.467,-4.915 256.116,-3.801 256.964,-2.83C257.812,-1.859 258.906,-1.09 260.245,-0.523C261.585,0.044 263.082,0.328 264.737,0.328Z" style="fill:rgb(51,51,51);fill-rule:nonzero;"/>
                    <path d="M287.116,0.041C287.991,0.041 288.681,-0.191 289.187,-0.656C289.693,-1.121 290.171,-1.907 290.623,-3.015L296.754,-17.883C296.782,-17.938 296.802,-17.992 296.816,-18.047C296.83,-18.102 296.843,-18.16 296.857,-18.221C296.871,-18.283 296.881,-18.341 296.888,-18.396C296.895,-18.45 296.898,-18.505 296.898,-18.56C296.898,-18.806 296.837,-19.048 296.713,-19.288C296.59,-19.527 296.433,-19.732 296.242,-19.903C296.05,-20.074 295.832,-20.207 295.586,-20.303C295.339,-20.398 295.093,-20.446 294.847,-20.446C294.041,-20.446 293.466,-20.016 293.125,-19.154L287.116,-4.143L281.107,-19.154C281.039,-19.332 280.957,-19.493 280.861,-19.636C280.765,-19.78 280.663,-19.903 280.553,-20.005C280.444,-20.108 280.324,-20.193 280.194,-20.262C280.065,-20.33 279.935,-20.378 279.805,-20.405C279.675,-20.433 279.542,-20.446 279.405,-20.446C278.885,-20.446 278.414,-20.258 277.99,-19.882C277.566,-19.506 277.354,-19.065 277.354,-18.56C277.354,-18.327 277.402,-18.102 277.498,-17.883L283.609,-3.015C284.06,-1.907 284.539,-1.121 285.045,-0.656C285.55,-0.191 286.241,0.041 287.116,0.041Z" style="fill:rgb(51,51,51);fill-rule:nonzero;"/>
                    <path d="M309.434,0.328C312.428,0.328 314.984,-0.608 317.103,-2.481C317.322,-2.659 317.483,-2.857 317.585,-3.076C317.688,-3.295 317.739,-3.521 317.739,-3.753C317.739,-3.999 317.681,-4.231 317.565,-4.45C317.449,-4.669 317.291,-4.843 317.093,-4.973C316.895,-5.103 316.68,-5.168 316.447,-5.168C316.311,-5.168 316.177,-5.144 316.047,-5.096C315.917,-5.048 315.784,-4.977 315.647,-4.881C314.677,-4.17 313.727,-3.606 312.797,-3.189C311.867,-2.772 310.842,-2.563 309.721,-2.563C307.834,-2.591 306.31,-3.158 305.147,-4.266C303.985,-5.373 303.377,-7.062 303.322,-9.331L317.062,-9.331C317.5,-9.331 317.828,-9.475 318.047,-9.762C318.266,-10.049 318.375,-10.418 318.375,-10.869C318.348,-12.236 318.146,-13.498 317.77,-14.653C317.394,-15.808 316.847,-16.851 316.129,-17.78C315.412,-18.71 314.448,-19.441 313.238,-19.975C312.028,-20.508 310.637,-20.774 309.064,-20.774C307.519,-20.774 306.115,-20.491 304.85,-19.923C303.585,-19.356 302.543,-18.59 301.723,-17.626C300.902,-16.663 300.27,-15.559 299.826,-14.314C299.381,-13.07 299.159,-11.751 299.159,-10.356C299.159,-7.075 300.113,-4.481 302.02,-2.574C303.927,-0.667 306.398,0.301 309.434,0.328ZM303.363,-11.833C303.432,-12.612 303.599,-13.357 303.866,-14.068C304.132,-14.779 304.501,-15.432 304.973,-16.027C305.445,-16.622 306.05,-17.093 306.788,-17.442C307.526,-17.791 308.347,-17.965 309.249,-17.965C310.999,-17.965 312.332,-17.387 313.248,-16.232C314.164,-15.077 314.684,-13.61 314.807,-11.833L303.363,-11.833Z" style="fill:rgb(51,51,51);fill-rule:nonzero;"/>
                    <path d="M324.717,0C325.278,0 325.77,-0.171 326.194,-0.513C326.617,-0.854 326.829,-1.333 326.829,-1.948L326.829,-11.977C326.829,-13.713 327.346,-15.005 328.378,-15.853C329.41,-16.7 330.835,-17.124 332.654,-17.124C333.105,-17.124 333.453,-17.288 333.7,-17.616C333.946,-17.944 334.069,-18.334 334.069,-18.785C334.069,-19.277 333.932,-19.701 333.659,-20.057C333.385,-20.412 333.002,-20.59 332.51,-20.59C331.129,-20.59 329.916,-20.159 328.87,-19.298C327.824,-18.437 327.13,-17.37 326.788,-16.099L326.829,-18.621C326.829,-18.854 326.792,-19.069 326.717,-19.267C326.641,-19.465 326.539,-19.633 326.409,-19.77C326.279,-19.906 326.129,-20.026 325.958,-20.128C325.787,-20.231 325.602,-20.306 325.404,-20.354C325.206,-20.402 324.997,-20.426 324.779,-20.426C324.218,-20.426 323.729,-20.258 323.312,-19.923C322.895,-19.588 322.687,-19.12 322.687,-18.519L322.687,-1.948C322.687,-1.319 322.885,-0.837 323.282,-0.502C323.678,-0.167 324.157,0 324.717,0Z" style="fill:rgb(51,51,51);fill-rule:nonzero;"/>
                </g>
                <g transform="matrix(1,0,0,1,175.411,475.505)">
                    <path d="M5.927,0.021C6.556,0.021 7.099,-0.178 7.557,-0.574C8.015,-0.971 8.244,-1.524 8.244,-2.235L8.244,-12.346L14.355,-12.346C16.037,-12.346 17.521,-12.493 18.806,-12.787C20.091,-13.081 21.226,-13.552 22.21,-14.202C23.194,-14.851 23.943,-15.736 24.456,-16.857C24.968,-17.979 25.225,-19.318 25.225,-20.877C25.225,-23.885 24.329,-26.055 22.538,-27.388C20.747,-28.721 18.156,-29.388 14.766,-29.388L5.947,-29.388C5.291,-29.388 4.734,-29.162 4.276,-28.711C3.818,-28.26 3.589,-27.713 3.589,-27.07L3.589,-2.235C3.589,-1.524 3.821,-0.971 4.286,-0.574C4.751,-0.178 5.298,0.021 5.927,0.021ZM8.244,-15.894L8.244,-25.696L14.438,-25.696C16.598,-25.696 18.17,-25.348 19.154,-24.65C20.139,-23.953 20.631,-22.695 20.631,-20.877C20.631,-19.018 20.118,-17.722 19.093,-16.991C18.067,-16.259 16.454,-15.894 14.253,-15.894L8.244,-15.894Z" style="fill:rgb(51,51,51);fill-rule:nonzero;"/>
                    <path d="M30.48,0C31.04,0 31.533,-0.171 31.956,-0.513C32.38,-0.854 32.592,-1.333 32.592,-1.948L32.592,-11.977C32.592,-13.713 33.108,-15.005 34.14,-15.853C35.173,-16.7 36.598,-17.124 38.416,-17.124C38.868,-17.124 39.216,-17.288 39.462,-17.616C39.708,-17.944 39.831,-18.334 39.831,-18.785C39.831,-19.277 39.695,-19.701 39.421,-20.057C39.148,-20.412 38.765,-20.59 38.273,-20.59C36.892,-20.59 35.679,-20.159 34.633,-19.298C33.587,-18.437 32.893,-17.37 32.551,-16.099L32.592,-18.621C32.592,-18.854 32.555,-19.069 32.479,-19.267C32.404,-19.465 32.302,-19.633 32.172,-19.77C32.042,-19.906 31.891,-20.026 31.721,-20.128C31.55,-20.231 31.365,-20.306 31.167,-20.354C30.969,-20.402 30.76,-20.426 30.541,-20.426C29.981,-20.426 29.492,-20.258 29.075,-19.923C28.658,-19.588 28.45,-19.12 28.45,-18.519L28.45,-1.948C28.45,-1.319 28.648,-0.837 29.044,-0.502C29.441,-0.167 29.919,0 30.48,0Z" style="fill:rgb(51,51,51);fill-rule:nonzero;"/>
                    <path d="M52.305,-2.481C50.337,-2.481 48.792,-3.172 47.671,-4.553C46.55,-5.934 45.989,-7.82 45.989,-10.213C45.989,-12.619 46.546,-14.513 47.66,-15.894C48.775,-17.274 50.323,-17.965 52.305,-17.965C54.274,-17.965 55.819,-17.271 56.94,-15.883C58.061,-14.496 58.622,-12.605 58.622,-10.213C58.622,-7.807 58.068,-5.92 56.961,-4.553C55.853,-3.186 54.301,-2.495 52.305,-2.481ZM52.305,0.328C53.96,0.328 55.457,0.044 56.797,-0.523C58.136,-1.09 59.23,-1.859 60.078,-2.83C60.925,-3.801 61.575,-4.918 62.026,-6.183C62.477,-7.448 62.703,-8.791 62.703,-10.213C62.703,-12.182 62.31,-13.956 61.524,-15.535C60.738,-17.114 59.548,-18.382 57.955,-19.339C56.363,-20.296 54.479,-20.774 52.305,-20.774C50.651,-20.774 49.157,-20.494 47.824,-19.934C46.491,-19.373 45.398,-18.607 44.543,-17.637C43.689,-16.666 43.036,-15.548 42.585,-14.284C42.134,-13.019 41.908,-11.662 41.908,-10.213C41.908,-8.777 42.134,-7.431 42.585,-6.173C43.036,-4.915 43.685,-3.801 44.533,-2.83C45.381,-1.859 46.474,-1.09 47.814,-0.523C49.154,0.044 50.651,0.328 52.305,0.328Z" style="fill:rgb(51,51,51);fill-rule:nonzero;"/>
                    <path d="M73.762,0.246L74.746,0.246C75.047,0.246 75.307,0.243 75.525,0.236C75.744,0.229 75.987,0.212 76.253,0.185C76.52,0.157 76.742,0.12 76.92,0.072C77.098,0.024 77.279,-0.041 77.463,-0.123C77.648,-0.205 77.795,-0.304 77.904,-0.42C78.014,-0.537 78.103,-0.684 78.171,-0.861C78.239,-1.039 78.273,-1.237 78.273,-1.456C78.273,-1.88 78.127,-2.252 77.833,-2.574C77.539,-2.895 77.139,-3.056 76.633,-3.056C76.592,-3.056 76.551,-3.056 76.51,-3.056L75.054,-2.974C74.985,-2.974 74.917,-2.974 74.849,-2.974C74.015,-2.974 73.413,-3.288 73.044,-3.917C72.675,-4.546 72.49,-5.517 72.49,-6.829L72.49,-17.555L76.161,-17.555C76.653,-17.555 77.023,-17.674 77.269,-17.914C77.515,-18.153 77.638,-18.471 77.638,-18.867C77.638,-19.264 77.515,-19.592 77.269,-19.852C77.023,-20.111 76.653,-20.241 76.161,-20.241L72.49,-20.241L72.49,-26.106C72.49,-26.64 72.343,-27.043 72.049,-27.316C71.755,-27.59 71.383,-27.727 70.932,-27.727C70.398,-27.727 69.944,-27.556 69.568,-27.214C69.192,-26.872 68.97,-26.441 68.901,-25.922L68.348,-20.241L65.948,-20.241C65.456,-20.241 65.084,-20.118 64.831,-19.872C64.578,-19.626 64.451,-19.305 64.451,-18.908C64.451,-18.512 64.581,-18.187 64.841,-17.934C65.101,-17.681 65.477,-17.555 65.969,-17.555L68.348,-17.555L68.348,-5.968C68.348,-3.931 68.833,-2.386 69.804,-1.333C70.774,-0.28 72.094,0.246 73.762,0.246Z" style="fill:rgb(51,51,51);fill-rule:nonzero;"/>
                    <path d="M90.912,0.328C93.906,0.328 96.462,-0.608 98.581,-2.481C98.8,-2.659 98.961,-2.857 99.063,-3.076C99.166,-3.295 99.217,-3.521 99.217,-3.753C99.217,-3.999 99.159,-4.231 99.043,-4.45C98.927,-4.669 98.769,-4.843 98.571,-4.973C98.373,-5.103 98.158,-5.168 97.925,-5.168C97.788,-5.168 97.655,-5.144 97.525,-5.096C97.395,-5.048 97.262,-4.977 97.125,-4.881C96.155,-4.17 95.205,-3.606 94.275,-3.189C93.345,-2.772 92.32,-2.563 91.199,-2.563C89.312,-2.591 87.788,-3.158 86.625,-4.266C85.463,-5.373 84.855,-7.062 84.8,-9.331L98.54,-9.331C98.978,-9.331 99.306,-9.475 99.525,-9.762C99.744,-10.049 99.853,-10.418 99.853,-10.869C99.826,-12.236 99.624,-13.498 99.248,-14.653C98.872,-15.808 98.325,-16.851 97.607,-17.78C96.89,-18.71 95.926,-19.441 94.716,-19.975C93.506,-20.508 92.115,-20.774 90.542,-20.774C88.997,-20.774 87.593,-20.491 86.328,-19.923C85.063,-19.356 84.021,-18.59 83.201,-17.626C82.38,-16.663 81.748,-15.559 81.304,-14.314C80.859,-13.07 80.637,-11.751 80.637,-10.356C80.637,-7.075 81.591,-4.481 83.498,-2.574C85.405,-0.667 87.876,0.301 90.912,0.328ZM84.841,-11.833C84.91,-12.612 85.077,-13.357 85.344,-14.068C85.61,-14.779 85.979,-15.432 86.451,-16.027C86.923,-16.622 87.528,-17.093 88.266,-17.442C89.004,-17.791 89.825,-17.965 90.727,-17.965C92.477,-17.965 93.81,-17.387 94.726,-16.232C95.642,-15.077 96.162,-13.61 96.285,-11.833L84.841,-11.833Z" style="fill:rgb(51,51,51);fill-rule:nonzero;"/>
                    <path d="M112.717,0.328C115.437,0.328 117.522,-0.273 118.971,-1.477C119.218,-1.682 119.399,-1.9 119.515,-2.133C119.631,-2.365 119.689,-2.591 119.689,-2.81C119.689,-2.974 119.658,-3.134 119.597,-3.292C119.535,-3.449 119.447,-3.582 119.33,-3.691C119.214,-3.801 119.081,-3.886 118.93,-3.948C118.78,-4.009 118.616,-4.04 118.438,-4.04C118.288,-4.04 118.134,-4.016 117.977,-3.968C117.82,-3.92 117.666,-3.842 117.515,-3.732C116.326,-2.898 114.829,-2.481 113.024,-2.481C111.725,-2.481 110.608,-2.837 109.671,-3.548C108.735,-4.259 108.048,-5.188 107.61,-6.337C107.173,-7.485 106.954,-8.777 106.954,-10.213C106.954,-12.564 107.525,-14.448 108.666,-15.863C109.808,-17.278 111.329,-17.985 113.229,-17.985C114.678,-17.985 115.998,-17.623 117.187,-16.898C117.474,-16.734 117.768,-16.652 118.069,-16.652C118.315,-16.652 118.537,-16.704 118.736,-16.806C118.934,-16.909 119.091,-17.052 119.207,-17.237C119.324,-17.421 119.382,-17.623 119.382,-17.842C119.382,-18.32 119.122,-18.751 118.602,-19.134C118.001,-19.585 117.211,-19.971 116.234,-20.292C115.256,-20.614 114.166,-20.774 112.963,-20.774C110.953,-20.774 109.172,-20.299 107.62,-19.349C106.069,-18.399 104.883,-17.127 104.062,-15.535C103.242,-13.942 102.832,-12.175 102.832,-10.233C102.832,-8.278 103.221,-6.504 104.001,-4.912C104.78,-3.319 105.928,-2.047 107.446,-1.097C108.964,-0.147 110.72,0.328 112.717,0.328Z" style="fill:rgb(51,51,51);fill-rule:nonzero;"/>
                    <path d="M130.359,0.246L131.343,0.246C131.644,0.246 131.903,0.243 132.122,0.236C132.341,0.229 132.584,0.212 132.85,0.185C133.117,0.157 133.339,0.12 133.517,0.072C133.694,0.024 133.876,-0.041 134.06,-0.123C134.245,-0.205 134.392,-0.304 134.501,-0.42C134.61,-0.537 134.699,-0.684 134.768,-0.861C134.836,-1.039 134.87,-1.237 134.87,-1.456C134.87,-1.88 134.723,-2.252 134.429,-2.574C134.135,-2.895 133.735,-3.056 133.23,-3.056C133.189,-3.056 133.148,-3.056 133.107,-3.056L131.651,-2.974C131.582,-2.974 131.514,-2.974 131.445,-2.974C130.611,-2.974 130.01,-3.288 129.641,-3.917C129.272,-4.546 129.087,-5.517 129.087,-6.829L129.087,-17.555L132.758,-17.555C133.25,-17.555 133.619,-17.674 133.865,-17.914C134.111,-18.153 134.234,-18.471 134.234,-18.867C134.234,-19.264 134.111,-19.592 133.865,-19.852C133.619,-20.111 133.25,-20.241 132.758,-20.241L129.087,-20.241L129.087,-26.106C129.087,-26.64 128.94,-27.043 128.646,-27.316C128.352,-27.59 127.98,-27.727 127.528,-27.727C126.995,-27.727 126.541,-27.556 126.165,-27.214C125.789,-26.872 125.567,-26.441 125.498,-25.922L124.944,-20.241L122.545,-20.241C122.053,-20.241 121.68,-20.118 121.427,-19.872C121.174,-19.626 121.048,-19.305 121.048,-18.908C121.048,-18.512 121.178,-18.187 121.438,-17.934C121.697,-17.681 122.073,-17.555 122.566,-17.555L124.944,-17.555L124.944,-5.968C124.944,-3.931 125.43,-2.386 126.401,-1.333C127.371,-0.28 128.691,0.246 130.359,0.246Z" style="fill:rgb(51,51,51);fill-rule:nonzero;"/>
                    <path d="M140.659,0C141.219,0 141.708,-0.185 142.125,-0.554C142.542,-0.923 142.75,-1.429 142.75,-2.071L142.75,-18.375C142.75,-19.018 142.545,-19.523 142.135,-19.893C141.725,-20.262 141.247,-20.446 140.7,-20.446C140.139,-20.446 139.65,-20.262 139.233,-19.893C138.816,-19.523 138.608,-19.018 138.608,-18.375L138.608,-2.071C138.608,-1.401 138.806,-0.889 139.203,-0.533C139.599,-0.178 140.084,0 140.659,0ZM140.679,-24.938C141.445,-24.938 142.063,-25.16 142.535,-25.604C143.007,-26.048 143.243,-26.633 143.243,-27.357C143.243,-28.082 143.01,-28.67 142.545,-29.121C142.081,-29.572 141.465,-29.798 140.7,-29.798C139.92,-29.798 139.291,-29.572 138.813,-29.121C138.334,-28.67 138.095,-28.082 138.095,-27.357C138.095,-26.633 138.334,-26.048 138.813,-25.604C139.291,-25.16 139.914,-24.938 140.679,-24.938Z" style="fill:rgb(51,51,51);fill-rule:nonzero;"/>
                    <path d="M157.255,-2.481C155.286,-2.481 153.741,-3.172 152.62,-4.553C151.499,-5.934 150.938,-7.82 150.938,-10.213C150.938,-12.619 151.495,-14.513 152.61,-15.894C153.724,-17.274 155.272,-17.965 157.255,-17.965C159.223,-17.965 160.768,-17.271 161.889,-15.883C163.011,-14.496 163.571,-12.605 163.571,-10.213C163.571,-7.807 163.017,-5.92 161.91,-4.553C160.803,-3.186 159.251,-2.495 157.255,-2.481ZM157.255,0.328C158.909,0.328 160.406,0.044 161.746,-0.523C163.086,-1.09 164.18,-1.859 165.027,-2.83C165.875,-3.801 166.524,-4.918 166.975,-6.183C167.427,-7.448 167.652,-8.791 167.652,-10.213C167.652,-12.182 167.259,-13.956 166.473,-15.535C165.687,-17.114 164.497,-18.382 162.905,-19.339C161.312,-20.296 159.429,-20.774 157.255,-20.774C155.6,-20.774 154.107,-20.494 152.774,-19.934C151.441,-19.373 150.347,-18.607 149.493,-17.637C148.638,-16.666 147.985,-15.548 147.534,-14.284C147.083,-13.019 146.857,-11.662 146.857,-10.213C146.857,-8.777 147.083,-7.431 147.534,-6.173C147.985,-4.915 148.635,-3.801 149.482,-2.83C150.33,-1.859 151.424,-1.09 152.764,-0.523C154.103,0.044 155.6,0.328 157.255,0.328Z" style="fill:rgb(51,51,51);fill-rule:nonzero;"/>
                    <path d="M173.83,0C174.391,0 174.876,-0.174 175.286,-0.523C175.696,-0.872 175.902,-1.354 175.902,-1.969L175.902,-11.71C175.956,-13.624 176.517,-15.145 177.583,-16.273C178.65,-17.401 179.942,-17.965 181.459,-17.965C182.813,-17.965 183.886,-17.534 184.679,-16.673C185.472,-15.812 185.868,-14.561 185.868,-12.92L185.868,-1.969C185.868,-1.354 186.07,-0.872 186.473,-0.523C186.877,-0.174 187.359,0 187.919,0C188.48,0 188.968,-0.174 189.385,-0.523C189.802,-0.872 190.011,-1.354 190.011,-1.969L190.011,-12.879C190.011,-14.219 189.82,-15.405 189.437,-16.437C189.054,-17.469 188.517,-18.296 187.827,-18.918C187.136,-19.541 186.35,-20.005 185.468,-20.313C184.587,-20.621 183.619,-20.774 182.567,-20.774C181.008,-20.774 179.644,-20.46 178.475,-19.831C177.306,-19.202 176.448,-18.293 175.902,-17.104L175.902,-18.56C175.902,-19.147 175.7,-19.605 175.297,-19.934C174.893,-20.262 174.411,-20.426 173.851,-20.426C173.29,-20.426 172.805,-20.258 172.395,-19.923C171.985,-19.588 171.779,-19.113 171.779,-18.498L171.779,-1.969C171.779,-1.354 171.981,-0.872 172.384,-0.523C172.788,-0.174 173.27,0 173.83,0Z" style="fill:rgb(51,51,51);fill-rule:nonzero;"/>
                </g>
            </g>
        </g>
    </g>
</svg>
