<?xml version="1.0" encoding="UTF-8" standalone="no"?>
<!DOCTYPE svg PUBLIC "-//W3C//DTD SVG 1.1//EN" "http://www.w3.org/Graphics/SVG/1.1/DTD/svg11.dtd">
<svg width="100%" height="100%" viewBox="0 0 350 90" version="1.1" xmlns="http://www.w3.org/2000/svg" xmlns:xlink="http://www.w3.org/1999/xlink" xml:space="preserve" xmlns:serif="http://www.serif.com/" style="fill-rule:evenodd;clip-rule:evenodd;stroke-linejoin:round;stroke-miterlimit:1.41421;">
    <g transform="matrix(1,0,0,1,-1163,115)">
        <g id="Group-74">
            <g id="Account-Takeover-Pro" transform="matrix(1,0,0,1,991.39,-505.892)">
                <g transform="matrix(1,0,0,1,177.4,427.505)">
                    <text x="0px" y="0px" style="font-family:'Nunito-Medium', 'Nunito';font-weight:500;font-size:42px;fill:rgb(51,51,51);">A<tspan x="29.126px 48.429px 67.732px 91.363px 114.931px 138.5px 153.538px 164.966px 188.76px 209.991px 230.381px 252.637px 276.267px 297.395px 319.652px " y="0px 0px 0px 0px 0px 0px 0px 0px 0px 0px 0px 0px 0px 0px 0px ">ccount Takeover</tspan></text>
                </g>
                <g transform="matrix(1,0,0,1,246.682,475.505)">
                    <text x="0px" y="0px" style="font-family:'Nunito-Medium', 'Nunito';font-weight:500;font-size:42px;fill:rgb(51,51,51);">P<tspan x="25.414px 40.206px 63.836px 78.873px 101.13px 120.433px 135.47px 145.155px 168.785px " y="0px 0px 0px 0px 0px 0px 0px 0px 0px ">rotection</tspan></text>
                </g>
            </g>
        </g>
    </g>
</svg>
