<?xml version="1.0" encoding="UTF-8"?>
<svg width="500px" height="500px" viewBox="0 0 500 500" version="1.1" xmlns="http://www.w3.org/2000/svg" xmlns:xlink="http://www.w3.org/1999/xlink">
    <!-- Generator: Sketch 52.2 (67145) - http://www.bohemiancoding.com/sketch -->
    <title>Artboard Copy 26</title>
    <desc>Created with Sketch.</desc>
    <g id="Artboard-Copy-26" stroke="none" stroke-width="1" fill="none" fill-rule="evenodd">
        <g id="microsoft-teams" transform="translate(107.000000, 108.000000)">
            <path d="M242.92101,108.843491 C245.271158,111.203865 248.043129,113.080059 251.104348,114.387343 C257.491932,117.074538 264.687002,117.074538 271.086638,114.387343 C277.257285,111.748567 282.174519,106.822043 284.789812,100.624549 C287.465366,94.2091739 287.465366,86.9827989 284.789812,80.5553196 C282.162467,74.3578254 277.257285,69.4191973 271.086638,66.792525 C264.699054,64.1053302 257.503984,64.1053302 251.104348,66.792525 C244.933701,69.4313018 240.016467,74.3578254 237.401173,80.5553196 C234.725619,86.9706944 234.725619,94.1970694 237.401173,100.624549 C238.702794,103.686982 240.582913,106.483117 242.92101,108.843491 Z M235.400534,132.786154 L235.400534,210.509025 L248.296222,210.509025 C252.731374,210.484816 257.142422,210.073264 261.49321,209.250159 C265.868103,208.475472 270.086318,206.998726 273.991181,204.868337 C277.679106,202.858993 280.860846,200.026545 283.307411,196.613081 C285.874496,192.824379 287.164065,188.309408 286.983285,183.721809 L286.983285,132.786154 L235.400534,132.786154 Z M193.604043,100.200892 C197.026824,100.225101 200.425501,99.5351455 203.583136,98.1794436 C209.753783,95.5406668 214.658965,90.6141431 217.274259,84.416649 C219.949813,78.0012742 219.949813,70.7748991 217.262207,64.3474198 C214.634861,58.1499257 209.729679,53.2112975 203.559032,50.5846252 C200.401397,49.2289233 197.00272,48.5389679 193.567887,48.5631769 C190.157159,48.5389679 186.782586,49.2289233 183.649055,50.5846252 C181.310958,51.5892971 180.575783,52.896581 177.357887,54.4701635 L177.357887,94.2939053 C180.587835,95.8795923 181.310958,97.1747717 183.649055,98.1794436 C186.794638,99.5472499 190.181263,100.225101 193.604043,100.200892 Z M177.357887,231.062434 C180.587835,231.764494 181.744832,232.309195 184.03472,232.623912 C186.541545,232.987046 189.072475,233.168613 191.603404,233.180718 C195.508267,233.156509 199.413129,232.744956 203.233627,231.921852 C207.126437,231.135061 210.862571,229.670418 214.261248,227.600552 C217.599664,225.54279 220.407791,222.734551 222.480742,219.405819 C224.770631,215.52028 225.891471,211.041622 225.722742,206.526651 L225.722742,116.590359 L177.357887,116.590359 L177.357887,231.062434 Z M0,255.85241 L167.680096,285 L167.680096,0 L0,29.1475897 L0,255.85241 Z" id="Shape" fill="#5558AF" fill-rule="nonzero"></path>
            <polygon id="Path" fill="#FFFFFF" points="122 87 44 91.7890339 44 109.928571 73.2515185 108.740499 73.2515185 192.848672 92.7484815 194 92.7484815 107.968864 122 106.65831"></polygon>
        </g>
    </g>
</svg>