<?xml version="1.0" encoding="UTF-8"?>
<svg width="500px" height="500px" viewBox="0 0 500 500" version="1.1" xmlns="http://www.w3.org/2000/svg" xmlns:xlink="http://www.w3.org/1999/xlink">
    <!-- Generator: Sketch 52.2 (67145) - http://www.bohemiancoding.com/sketch -->
    <title>Artboard Copy 16</title>
    <desc>Created with Sketch.</desc>
    <g id="Artboard-Copy-16" stroke="none" stroke-width="1" fill="none" fill-rule="evenodd">
        <path d="M329.67522,218.919568 C329.67522,218.354613 329.727419,217.968893 329.667276,217.601979 C327.751011,205.800483 322.699729,195.31005 316.016254,185.668586 C310.585955,177.835592 302.993144,172.348006 294.694121,167.953484 C281.91915,161.189376 268.398627,158.254834 254.089055,161.055046 C235.857306,164.62286 221.904811,174.73448 211.817754,190.466482 C209.650324,193.847385 209.626872,193.846617 205.793208,192.400839 C199.270873,189.941826 192.654728,187.71271 185.620985,187.76222 C162.6016,187.924184 144.932702,202.165887 137.809689,225.342093 C136.055698,231.04883 135.749308,237.05378 136.245963,243.02035 C136.39651,244.829588 135.777299,245.346568 134.220003,245.600644 C132.546203,245.873526 130.887155,246.306454 129.261016,246.802709 C114.255445,251.38107 104.01141,260.513999 101.181648,276.857396 C100.027199,283.524402 99.3837784,290.157251 100.848779,296.849205 C102.884952,306.149086 108.506651,312.947353 115.658411,318.667139 C122.824545,324.397671 130.713912,328.157769 140.086058,328.02459 C148.086633,327.911369 156.088721,327.924418 164.090431,327.864162 C164.738012,327.859556 165.384837,327.722923 165.789197,327.676099 C164.429352,324.490167 162.916691,321.53797 161.89085,318.420355 C159.659495,311.640511 158.603771,304.612347 158.725949,297.467124 C158.941936,284.847748 163.579781,274.214158 173.044222,265.886828 C179.080872,260.575407 186.099106,257.002603 193.528509,254.194332 C195.824925,253.326558 198.766652,253.154615 200.2952,251.560306 C201.820723,249.969834 201.914531,246.985782 202.688451,244.630779 C207.788151,229.108716 216.586476,216.487037 230.626728,207.973948 C239.579005,202.54585 249.427002,200.405008 259.689949,199.99319 C276.568285,199.315014 291.383591,204.341655 303.376321,216.788705 C305.305068,218.790994 307.047334,220.97866 308.919342,223.1314 C315.40196,219.828025 322.343408,218.901145 329.67522,218.919568 M289.195735,340.98056 C316.740622,340.98056 344.285887,341.047341 371.830017,340.933353 C378.591791,340.905335 385.025235,338.726881 389.725871,333.830732 C398.657344,324.528164 401.802197,312.971149 399.017069,300.3748 C396.095012,287.159381 387.357964,278.954484 374.779688,274.843592 C371.795973,273.868354 371.782734,273.89829 371.797108,270.63483 C371.861412,256.375089 365.876962,244.911721 354.752338,236.797017 C340.494966,226.396778 324.807771,225.247294 308.656073,232.293113 C306.88279,233.066472 306.015819,232.869198 304.804631,231.327853 C294.627548,218.376873 282.012958,209.710263 265.162236,208.974133 C250.496342,208.333569 237.20618,212.32318 226.453008,222.696169 C216.682176,232.122321 211.452733,244.156785 209.233104,257.566791 C209.033004,258.778067 208.958487,259.68921 207.305491,259.722217 C200.365557,259.861921 193.898069,261.937516 187.805436,265.186392 C178.517643,270.139343 171.716908,277.17595 169.582009,288.049032 C167.326445,299.53466 168.637872,310.580452 173.582486,321.135747 C174.597735,323.303071 175.880415,325.489585 177.52698,327.177926 C185.811628,335.673744 195.621421,340.962138 207.695477,340.973268 C234.862482,340.998215 262.029109,340.980944 289.195735,340.98056" id="Fill-1" fill="#2C77DC"></path>
    </g>
</svg>