<?xml version="1.0" encoding="UTF-8"?>
<svg width="111px" height="27px" viewBox="0 0 111 27" version="1.1" xmlns="http://www.w3.org/2000/svg" xmlns:xlink="http://www.w3.org/1999/xlink">
    <!-- Generator: Sketch 52.4 (67378) - http://www.bohemiancoding.com/sketch -->
    <title>AUDIT 2</title>
    <desc>Created with Sketch.</desc>
    <g id="Page-1" stroke="none" stroke-width="1" fill="none" fill-rule="evenodd">
        <g id="Artboard-Copy" transform="translate(-1578.000000, -661.000000)" fill="#FF6C0C">
            <g id="AUDIT-2" transform="translate(1578.000000, 661.000000)">
                <path d="M25.344,23.84 C25.4640006,24.1280014 25.524,24.367999 25.524,24.56 C25.524,25.0160023 25.3380019,25.3999984 24.966,25.712 C24.5939981,26.0240016 24.1800023,26.18 23.724,26.18 C23.4119984,26.18 23.1180014,26.0900009 22.842,25.91 C22.5659986,25.7299991 22.3560007,25.4720017 22.212,25.136 L19.836,19.736 L6.66,19.736 L4.284,25.136 C4.13999928,25.4720017 3.92400144,25.7299991 3.636,25.91 C3.34799856,26.0900009 3.04800156,26.18 2.736,26.18 C2.2559976,26.18 1.83000186,26.0240016 1.458,25.712 C1.08599814,25.3999984 0.9,25.0160023 0.9,24.56 C0.9,24.367999 0.9599994,24.1280014 1.08,23.84 L11.232,1.628 C11.4000008,1.24399808 11.6699981,0.94400108 12.042,0.728 C12.4140019,0.51199892 12.803998,0.404 13.212,0.404 C13.620002,0.404 14.0099981,0.51199892 14.382,0.728 C14.7540019,0.94400108 15.0239992,1.24399808 15.192,1.628 L25.344,23.84 Z M7.992,16.784 L18.54,16.784 L13.248,4.868 L7.992,16.784 Z M39.528,26.288 C36.1439831,26.288 33.5760088,25.4120088 31.824,23.66 C30.0719912,21.9079912 29.196,19.328017 29.196,15.92 L29.196,2.312 C29.196,1.73599712 29.3639983,1.28000168 29.7,0.944 C30.0360017,0.60799832 30.4799972,0.44 31.032,0.44 C31.5840028,0.44 32.0279983,0.60799832 32.364,0.944 C32.7000017,1.28000168 32.868,1.73599712 32.868,2.312 L32.868,16.172 C32.868,18.5000116 33.4259944,20.263994 34.542,21.464 C35.6580056,22.664006 37.319989,23.264 39.528,23.264 C41.7120109,23.264 43.3679944,22.664006 44.496,21.464 C45.6240056,20.263994 46.188,18.5000116 46.188,16.172 L46.188,2.312 C46.188,1.75999724 46.3559983,1.31000174 46.692,0.962 C47.0280017,0.61399826 47.4719972,0.44 48.024,0.44 C48.5760028,0.44 49.0199983,0.60799832 49.356,0.944 C49.6920017,1.28000168 49.86,1.73599712 49.86,2.312 L49.86,15.92 C49.86,19.3040169 48.9780088,21.8779912 47.214,23.642 C45.4499912,25.4060088 42.8880168,26.288 39.528,26.288 Z M57.42,26 C56.8439971,26 56.3940016,25.8380016 56.07,25.514 C55.7459984,25.1899984 55.584,24.7520028 55.584,24.2 L55.584,2.42 C55.584,1.86799724 55.7459984,1.43000162 56.07,1.106 C56.3940016,0.78199838 56.8439971,0.62 57.42,0.62 L64.476,0.62 C68.5800205,0.62 71.7599887,1.72398896 74.016,3.932 C76.2720113,6.14001104 77.4,9.25997984 77.4,13.292 C77.4,17.3240202 76.2720113,20.4499889 74.016,22.67 C71.7599887,24.8900111 68.5800205,26 64.476,26 L57.42,26 Z M64.26,22.904 C70.5000312,22.904 73.62,19.700032 73.62,13.292 C73.62,6.90796808 70.5000312,3.716 64.26,3.716 L59.292,3.716 L59.292,22.904 L64.26,22.904 Z M84.276,26.18 C83.7239972,26.18 83.2800017,26.0120017 82.944,25.676 C82.6079983,25.3399983 82.44,24.8840029 82.44,24.308 L82.44,2.312 C82.44,1.75999724 82.6079983,1.31000174 82.944,0.962 C83.2800017,0.61399826 83.7239972,0.44 84.276,0.44 C84.8520029,0.44 85.3079983,0.60799832 85.644,0.944 C85.9800017,1.28000168 86.148,1.73599712 86.148,2.312 L86.148,24.308 C86.148,24.8840029 85.9860016,25.3399983 85.662,25.676 C85.3379984,26.0120017 84.876003,26.18 84.276,26.18 Z M99.972,26.18 C99.4199972,26.18 98.9700017,26.0060017 98.622,25.658 C98.2739983,25.3099983 98.1,24.8600028 98.1,24.308 L98.1,3.716 L90.9,3.716 C89.7479942,3.716 89.172,3.20000516 89.172,2.168 C89.172,1.66399748 89.3219985,1.28000132 89.622,1.016 C89.9220015,0.75199868 90.3479972,0.62 90.9,0.62 L109.044,0.62 C109.596003,0.62 110.021998,0.75199868 110.322,1.016 C110.622001,1.28000132 110.772,1.66399748 110.772,2.168 C110.772,3.20000516 110.196006,3.716 109.044,3.716 L101.844,3.716 L101.844,24.308 C101.844,24.8600028 101.676002,25.3099983 101.34,25.658 C101.003998,26.0060017 100.548003,26.18 99.972,26.18 Z" id="AUDIT"></path>
            </g>
        </g>
    </g>
</svg>