<?xml version="1.0" encoding="UTF-8"?>
<svg width="599px" height="145px" viewBox="0 0 599 145" version="1.1" xmlns="http://www.w3.org/2000/svg" xmlns:xlink="http://www.w3.org/1999/xlink">
    <!-- Generator: Sketch 52.4 (67378) - http://www.bohemiancoding.com/sketch -->
    <title>Box_Secure_Mobile_Access</title>
    <desc>Created with Sketch.</desc>
    <g id="Page-1" stroke="none" stroke-width="1" fill="none" fill-rule="evenodd">
        <g id="Artboard-Copy-33" transform="translate(-659.000000, -1114.000000)" fill="#636569" fill-rule="nonzero">
            <g id="Box_Secure_Mobile_Access" transform="translate(659.000000, 1114.000000)">
                <path d="M564.311594,2.84217094e-14 L520.833333,2.84217094e-14 L77.8985507,2.84217094e-14 L34.4202899,2.84217094e-14 C15.3985507,2.84217094e-14 0,15.4899105 0,34.6245059 L0,110.251716 C0,129.386312 15.3985507,144.876222 34.4202899,144.876222 L77.8985507,144.876222 L520.833333,144.876222 L564.311594,144.876222 C583.333333,144.876222 598.731884,129.386312 598.731884,110.251716 L598.731884,34.6245059 C599.637681,15.4899105 583.333333,2.84217094e-14 564.311594,2.84217094e-14 Z M42.5724638,82.0054088 L17.2101449,82.0054088 L17.2101449,62.8708134 L42.5724638,62.8708134 L42.5724638,82.0054088 Z M34.4202899,126.652798 C25.3623188,126.652798 18.115942,119.363428 18.115942,110.251716 L18.115942,101.140004 L43.4782609,101.140004 L43.4782609,110.251716 C43.4782609,116.629915 45.2898551,122.096942 48.0072464,126.652798 L34.4202899,126.652798 Z M42.5724638,34.6245059 L42.5724638,43.736218 L17.2101449,43.736218 L17.2101449,34.6245059 C17.2101449,25.5127938 24.4565217,18.2234242 33.5144928,18.2234242 L46.1956522,18.2234242 C44.384058,23.6904514 42.5724638,29.1574787 42.5724638,34.6245059 Z M537.137681,110.251716 C537.137681,119.363428 529.891304,126.652798 520.833333,126.652798 L77.8985507,126.652798 C68.8405797,126.652798 61.5942029,119.363428 61.5942029,110.251716 L61.5942029,34.6245059 C61.5942029,25.5127938 68.8405797,18.2234242 77.8985507,18.2234242 L520.833333,18.2234242 C529.891304,18.2234242 537.137681,25.5127938 537.137681,34.6245059 L537.137681,110.251716 Z M564.311594,18.2234242 C573.369565,18.2234242 580.615942,25.5127938 580.615942,34.6245059 L580.615942,43.736218 L555.253623,43.736218 L555.253623,34.6245059 C555.253623,28.2463075 553.442029,22.7792802 550.724638,18.2234242 L564.311594,18.2234242 Z M555.253623,62.8708134 L580.615942,62.8708134 L580.615942,82.0054088 L555.253623,82.0054088 L555.253623,62.8708134 Z M564.311594,126.652798 L551.630435,126.652798 C554.347826,122.096942 556.15942,115.718743 556.15942,110.251716 L556.15942,101.140004 L581.521739,101.140004 L581.521739,110.251716 C580.615942,119.363428 573.369565,126.652798 564.311594,126.652798 Z" id="Shape"></path>
                <path d="M230.217251,107.655601 L198.514353,107.655601 C192.173773,107.655601 187.644788,103.099745 187.644788,96.721547 L187.644788,83.0539788 C187.644788,76.6757804 192.173773,72.1199243 198.514353,72.1199243 L230.217251,72.1199243 C236.557831,72.1199243 241.086817,76.6757804 241.086817,83.0539788 L241.086817,96.721547 C241.992614,103.099745 236.557831,107.655601 230.217251,107.655601 Z M303.586817,107.655601 L271.883918,107.655601 C265.543338,107.655601 261.014353,103.099745 261.014353,96.721547 L261.014353,83.0539788 C261.014353,76.6757804 265.543338,72.1199243 271.883918,72.1199243 L303.586817,72.1199243 C309.927396,72.1199243 314.456382,76.6757804 314.456382,83.0539788 L314.456382,96.721547 C314.456382,103.099745 309.927396,107.655601 303.586817,107.655601 Z M386.014353,75.7646092 L424.963628,75.7646092 L424.963628,107.655601 L386.014353,107.655601 L386.014353,75.7646092 Z M434.021599,75.7646092 L472.970875,75.7646092 L472.970875,107.655601 L434.021599,107.655601 L434.021599,75.7646092 Z M386.014353,34.7619048 L424.963628,34.7619048 L424.963628,66.6528971 L386.014353,66.6528971 L386.014353,34.7619048 Z M482.028846,66.6528971 L482.934643,66.6528971 L482.934643,34.7619048 L506.485367,34.7619048 C512.825947,34.7619048 517.354933,39.3177608 517.354933,45.6959593 L517.354933,66.6528971 L482.028846,66.6528971 Z M376.956382,75.7646092 L376.956382,107.655601 L351.594063,107.655601 C345.253483,107.655601 340.724498,103.099745 340.724498,96.721547 L340.724498,75.7646092 L376.956382,75.7646092 Z M482.028846,75.7646092 L516.449135,75.7646092 L516.449135,96.721547 C516.449135,103.099745 511.92015,107.655601 505.57957,107.655601 L482.028846,107.655601 L482.028846,75.7646092 Z M376.956382,66.6528971 L340.724498,66.6528971 L340.724498,45.6959593 C340.724498,39.3177608 345.253483,34.7619048 351.594063,34.7619048 L376.956382,34.7619048 L376.956382,66.6528971 Z M434.021599,34.7619048 L472.970875,34.7619048 L472.970875,66.6528971 L434.021599,66.6528971 L434.021599,34.7619048 Z" id="Combined-Shape"></path>
            </g>
        </g>
    </g>
</svg>