<?xml version="1.0" encoding="UTF-8" standalone="no"?>
<!DOCTYPE svg PUBLIC "-//W3C//DTD SVG 1.1//EN" "http://www.w3.org/Graphics/SVG/1.1/DTD/svg11.dtd">
<svg width="100%" height="100%" viewBox="0 0 199 133" version="1.1" xmlns="http://www.w3.org/2000/svg" xmlns:xlink="http://www.w3.org/1999/xlink" xml:space="preserve" xmlns:serif="http://www.serif.com/" style="fill-rule:evenodd;clip-rule:evenodd;stroke-linejoin:round;stroke-miterlimit:1.41421;">
    <g transform="matrix(1,0,0,1,-510,-367)">
        <g transform="matrix(1,0,0,1,27,27)">
            <path id="CloudLight-orange" d="M682,428.259C682,441.347 676.426,452.65 666.86,460.875C658.391,468.157 647.348,472.4 637.499,472.4L523.177,472.4C500.421,472.4 483.181,454.58 483.181,430.234C483.181,406.969 505.327,389.367 527.979,391.864C527.918,380.201 532.307,367.63 540.248,358C549.667,346.577 563.255,340 579.894,340C604.527,340 624.317,357.156 632.326,379.793C661.719,381.969 682,401.134 682,428.259ZM523.177,470.4L637.499,470.4C646.861,470.4 657.443,466.334 665.556,459.359C674.695,451.501 680,440.743 680,428.259C680,402.047 660.285,383.613 631.533,381.743L630.868,381.7L630.652,381.069C623.045,358.868 603.809,342 579.894,342C563.859,342 550.835,348.305 541.791,359.272C533.895,368.848 529.643,381.465 530,392.969L530.036,394.156L528.861,393.99C506.966,390.911 485.181,407.841 485.181,430.234C485.181,453.49 501.541,470.4 523.177,470.4Z" style="fill:rgb(255,141,32);fill-rule:nonzero;"/>
        </g>
    </g>
</svg>
