<?xml version="1.0" encoding="UTF-8" standalone="no"?>
<!DOCTYPE svg PUBLIC "-//W3C//DTD SVG 1.1//EN" "http://www.w3.org/Graphics/SVG/1.1/DTD/svg11.dtd">
<svg width="100%" height="100%" viewBox="0 0 450 283" version="1.1" xmlns="http://www.w3.org/2000/svg" xmlns:xlink="http://www.w3.org/1999/xlink" xml:space="preserve" xmlns:serif="http://www.serif.com/" style="fill-rule:evenodd;clip-rule:evenodd;stroke-linejoin:round;stroke-miterlimit:1.41421;">
    <g transform="matrix(1,0,0,1,-402,-27)">
        <g transform="matrix(1,0,0,1,27,27)">
            <g id="cloud-center-big" transform="matrix(1,0,0,1,375,0)">
                <g id="cloud-CenterBig" transform="matrix(-1,0,0,1,450,0)">
                    <path d="M303.932,94.364L296.774,99.176L294.751,90.792C283.597,44.548 242.807,12 194.637,12C142.539,12 98.165,52.309 90.758,105.842L90.083,110.717L85.169,111.009C44.351,113.43 12,148.648 12,191.01C12,235.077 47.252,271 91.274,271L381.982,271C413.08,271 438,245.506 438,214.462C438,183.052 412.719,157.923 381.982,157.923L371.729,157.923L373.575,150.479C375.394,143.14 375.982,139.977 375.982,136.288C375.982,109.625 354.109,87.567 327.717,87.567C319.334,87.567 310.306,90.079 303.932,94.364ZM327.717,75.567C360.759,75.567 387.982,103.02 387.982,136.288C387.982,139.546 387.683,142.289 386.906,146.101C421.988,148.64 450,178.095 450,214.462C450,252.073 419.769,283 381.982,283L91.274,283C40.574,283 0,241.655 0,191.01C0,144.036 34.714,104.63 79.62,99.452C89.739,42.459 137.999,0 194.637,0C245.747,0 289.479,32.897 304.35,80.499C311.541,77.298 319.817,75.567 327.717,75.567Z" style="fill:rgb(135,206,245);fill-rule:nonzero;"/>
                </g>
                <path id="cloud-white-inside" d="M152.829,99C120.278,71 58.649,97.626 77.975,157.207C29.693,155.205 10.443,188.426 11.344,215.833C11.344,236.986 30,271.626 68.865,271.626C107.73,271.626 326.896,271.626 361.274,271.626C395.652,271.626 438.672,240.999 438.672,189.432C437.293,135.679 390.397,109.57 360.141,110.774C356.024,60.835 312.156,11.676 259.195,11.676C194.244,11.676 163.103,54.187 152.829,99Z" style="fill:white;fill-rule:nonzero;"/>
            </g>
        </g>
    </g>
</svg>
