<?xml version="1.0" encoding="UTF-8" standalone="no"?>
<!DOCTYPE svg PUBLIC "-//W3C//DTD SVG 1.1//EN" "http://www.w3.org/Graphics/SVG/1.1/DTD/svg11.dtd">
<svg width="100%" height="100%" viewBox="0 0 338 214" version="1.1" xmlns="http://www.w3.org/2000/svg" xmlns:xlink="http://www.w3.org/1999/xlink" xml:space="preserve" xmlns:serif="http://www.serif.com/" style="fill-rule:evenodd;clip-rule:evenodd;stroke-linejoin:round;stroke-miterlimit:1.41421;">
    <g transform="matrix(1,0,0,1,-786,-83)">
        <g transform="matrix(1,0,0,1,27,27)">
            <path id="cloud-rightSmaller" d="M987.608,129.131L980.445,133.953L978.423,125.559C970.285,91.772 940.538,68 905.401,68C867.407,68 835.015,97.468 829.604,136.629L828.931,141.505L824.017,141.797C794.457,143.553 771,169.126 771,199.904C771,231.916 796.56,258 828.469,258L1044.84,258C1067.13,258 1085,239.691 1085,217.385C1085,194.816 1066.87,176.769 1044.84,176.769L1035.25,176.769L1037.1,169.314L1037.09,169.327C1038.42,163.977 1038.84,161.699 1038.84,159.115C1038.84,140.079 1023.24,124.327 1004.45,124.327C998.506,124.327 992.087,126.115 987.608,129.131ZM1004.45,112.327C1029.9,112.327 1050.84,133.478 1050.84,159.115C1050.84,161.157 1050.69,162.925 1050.33,165.058C1076.43,167.819 1097,190.064 1097,217.385C1097,246.254 1073.82,270 1044.84,270L828.469,270C789.877,270 759,238.489 759,199.904C759,164.515 784.836,134.753 818.488,130.281C826.571,87.645 862.853,56 905.401,56C943.547,56 976.273,80.227 988.007,115.474C993.175,113.423 998.929,112.327 1004.45,112.327Z" style="fill:rgb(135,206,245);fill-rule:nonzero;"/>
        </g>
    </g>
</svg>
