<?xml version="1.0" encoding="UTF-8" standalone="no"?>
<!DOCTYPE svg PUBLIC "-//W3C//DTD SVG 1.1//EN" "http://www.w3.org/Graphics/SVG/1.1/DTD/svg11.dtd">
<svg width="100%" height="100%" viewBox="0 0 329 207" version="1.1" xmlns="http://www.w3.org/2000/svg" xmlns:xlink="http://www.w3.org/1999/xlink" xml:space="preserve" xmlns:serif="http://www.serif.com/" style="fill-rule:evenodd;clip-rule:evenodd;stroke-linejoin:round;stroke-miterlimit:1.41421;">
    <g transform="matrix(1,0,0,1,-157,-92)">
        <g transform="matrix(1,0,0,1,27,27)">
            <g id="cloud-leftSmaller" transform="matrix(-1,0,0,1,589,0)">
                <path d="M352.538,135.988L345.398,140.761L343.373,132.415C335.482,99.893 306.626,77 272.525,77C235.654,77 204.231,105.379 198.984,143.077L198.306,147.95L193.395,148.24C164.731,149.93 142,174.532 142,204.125C142,234.904 166.771,260 197.717,260L408.115,260C429.706,260 447,242.41 447,221C447,199.339 429.455,182 408.115,182L398.565,182L400.423,174.548C401.706,169.404 402.115,167.216 402.115,164.75C402.115,146.498 387.031,131.375 368.841,131.375C363.084,131.375 356.868,133.094 352.538,135.988ZM368.841,119.375C393.665,119.375 414.115,139.877 414.115,164.75C414.115,166.664 413.98,168.33 413.65,170.299C439.019,173.06 459,194.574 459,221C459,248.992 436.379,272 408.115,272L197.717,272C160.108,272 130,241.497 130,204.125C130,169.89 155.135,141.104 187.878,136.723C195.811,95.54 231.129,65 272.525,65C309.615,65 341.456,88.354 352.945,122.366C357.949,120.416 363.506,119.375 368.841,119.375Z" style="fill:rgb(135,206,245);fill-rule:nonzero;"/>
            </g>
        </g>
    </g>
</svg>
