<?xml version="1.0" encoding="UTF-8"?>
<svg width="777px" height="475px" viewBox="0 0 777 475" version="1.1" xmlns="http://www.w3.org/2000/svg" xmlns:xlink="http://www.w3.org/1999/xlink">
    <!-- Generator: Sketch 52.2 (67145) - http://www.bohemiancoding.com/sketch -->
    <title>Combined Shape</title>
    <desc>Created with Sketch.</desc>
    <g id="Page-1" stroke="none" stroke-width="1" fill="none" fill-rule="evenodd">
        <path d="M147.228831,467.996301 C137.013584,469.877558 126.51203,470.1796 115.982285,468.595412 C49.8683508,458.648647 5.98765432,414.12799 5.98765432,351.347747 C5.98765432,292.019284 54.1901296,243.306436 115.682159,238.129134 C114.584831,232.293603 114.012346,226.287072 114.012346,220.154462 C114.012346,163.674746 162.570105,117.888889 222.469136,117.888889 C231.019381,117.888889 239.338538,118.821819 247.318359,120.585611 C281.280472,52.6061531 354.707327,5.54320988 439.814815,5.54320988 C534.293289,5.54320988 614.377265,63.5407119 642.057271,143.76664 C716.593859,161.857052 771.666667,225.632296 771.666667,301.530864 C771.666667,391.498732 694.283784,464.432099 598.82716,464.432099 L147.228831,467.996301 Z" id="Combined-Shape" stroke="#46AFE8" stroke-width="10.3703704" fill-rule="nonzero"></path>
    </g>
</svg>