<?xml version="1.0" encoding="UTF-8"?>
<svg width="210px" height="67px" viewBox="0 0 210 67" version="1.1" xmlns="http://www.w3.org/2000/svg" xmlns:xlink="http://www.w3.org/1999/xlink">
    <!-- Generator: Sketch 52.4 (67378) - http://www.bohemiancoding.com/sketch -->
    <title>CONFIGURE &amp; COMPARE 2</title>
    <desc>Created with Sketch.</desc>
    <g id="Page-1" stroke="none" stroke-width="1" fill="none" fill-rule="evenodd">
        <g id="Artboard-Copy" transform="translate(-467.000000, -657.000000)" fill="#FF6C0C">
            <g id="CONFIGURE-&amp;-COMPARE-2" transform="translate(467.000000, 657.000000)">
                <path d="M13.004,26.288 C10.5799879,26.288 8.468009,25.7660052 6.668,24.722 C4.867991,23.6779948 3.4880048,22.1780098 2.528,20.222 C1.5679952,18.2659902 1.088,15.9560133 1.088,13.292 C1.088,10.6519868 1.5679952,8.35400978 2.528,6.398 C3.4880048,4.44199022 4.867991,2.94200522 6.668,1.898 C8.468009,0.85399478 10.5799879,0.332 13.004,0.332 C14.5880079,0.332 16.0879929,0.57799754 17.504,1.07 C18.9200071,1.56200246 20.1559947,2.27599532 21.212,3.212 C21.6680023,3.5720018 21.896,4.051997 21.896,4.652 C21.896,5.08400216 21.7760012,5.4499985 21.536,5.75 C21.2959988,6.0500015 21.0080017,6.2 20.672,6.2 C20.263998,6.2 19.8680019,6.04400156 19.484,5.732 C18.3319942,4.86799568 17.2820047,4.26200174 16.334,3.914 C15.3859953,3.56599826 14.312006,3.392 13.112,3.392 C10.4719868,3.392 8.44400708,4.24399148 7.028,5.948 C5.61199292,7.65200852 4.904,10.099984 4.904,13.292 C4.904,16.5080161 5.61199292,18.9679915 7.028,20.672 C8.44400708,22.3760085 10.4719868,23.228 13.112,23.228 C14.2640058,23.228 15.3139953,23.0480018 16.262,22.688 C17.2100047,22.3279982 18.283994,21.7280042 19.484,20.888 C19.9640024,20.5759984 20.3599984,20.42 20.672,20.42 C21.0080017,20.42 21.2959988,20.5699985 21.536,20.87 C21.7760012,21.1700015 21.896,21.5359978 21.896,21.968 C21.896,22.568003 21.6680023,23.0479982 21.212,23.408 C20.1559947,24.3440047 18.9200071,25.0579975 17.504,25.55 C16.0879929,26.0420025 14.5880079,26.288 13.004,26.288 Z M37.232,26.288 C34.831988,26.288 32.7500088,25.7600053 30.986,24.704 C29.2219912,23.6479947 27.8600048,22.1480097 26.9,20.204 C25.9399952,18.2599903 25.46,15.9680132 25.46,13.328 C25.46,10.6639867 25.9339953,8.35400978 26.882,6.398 C27.8300047,4.44199022 29.1919911,2.94200522 30.968,1.898 C32.7440089,0.85399478 34.831988,0.332 37.232,0.332 C39.6560121,0.332 41.7559911,0.85399478 43.532,1.898 C45.3080089,2.94200522 46.6699953,4.44199022 47.618,6.398 C48.5660047,8.35400978 49.04,10.6519868 49.04,13.292 C49.04,15.9320132 48.5660047,18.2299902 47.618,20.186 C46.6699953,22.1420098 45.3080089,23.6479947 43.532,24.704 C41.7559911,25.7600053 39.6560121,26.288 37.232,26.288 Z M37.232,23.264 C39.7760127,23.264 41.7559929,22.4000086 43.172,20.672 C44.5880071,18.9439914 45.296,16.484016 45.296,13.292 C45.296,10.099984 44.594007,7.64600858 43.19,5.93 C41.785993,4.21399142 39.8000128,3.356 37.232,3.356 C34.7119874,3.356 32.750007,4.21399142 31.346,5.93 C29.941993,7.64600858 29.24,10.099984 29.24,13.292 C29.24,16.484016 29.941993,18.9439914 31.346,20.672 C32.750007,22.4000086 34.7119874,23.264 37.232,23.264 Z M73.16,0.44 C73.6880026,0.44 74.1139984,0.61399826 74.438,0.962 C74.7620016,1.31000174 74.924,1.75999724 74.924,2.312 L74.924,24.308 C74.924,24.8600028 74.7560017,25.3099983 74.42,25.658 C74.0839983,26.0060017 73.6520026,26.18 73.124,26.18 C72.4999969,26.18 72.0200017,25.9400024 71.684,25.46 L57.572,6.848 L57.572,24.308 C57.572,24.8600028 57.4100016,25.3099983 57.086,25.658 C56.7619984,26.0060017 56.3360026,26.18 55.808,26.18 C55.2799974,26.18 54.8600016,26.0120017 54.548,25.676 C54.2359984,25.3399983 54.08,24.8840029 54.08,24.308 L54.08,2.312 C54.08,1.75999724 54.2479983,1.31000174 54.584,0.962 C54.9200017,0.61399826 55.3519974,0.44 55.88,0.44 C56.5040031,0.44 56.9839983,0.6799976 57.32,1.16 L71.432,19.808 L71.432,2.312 C71.432,1.75999724 71.5879984,1.31000174 71.9,0.962 C72.2120016,0.61399826 72.6319974,0.44 73.16,0.44 Z M82.664,26.18 C82.1119972,26.18 81.6680017,26.0060017 81.332,25.658 C80.9959983,25.3099983 80.828,24.8600028 80.828,24.308 L80.828,2.42 C80.828,1.86799724 80.9899984,1.43000162 81.314,1.106 C81.6380016,0.78199838 82.0879971,0.62 82.664,0.62 L95.552,0.62 C96.7040058,0.62 97.28,1.12399496 97.28,2.132 C97.28,3.14000504 96.7040058,3.644 95.552,3.644 L84.5,3.644 L84.5,11.6 L94.832,11.6 C95.9840058,11.6 96.56,12.103995 96.56,13.112 C96.56,14.120005 95.9840058,14.624 94.832,14.624 L84.5,14.624 L84.5,24.308 C84.5,24.8840029 84.3380016,25.3399983 84.014,25.676 C83.6899984,26.0120017 83.2400029,26.18 82.664,26.18 Z M102.86,26.18 C102.307997,26.18 101.864002,26.0120017 101.528,25.676 C101.191998,25.3399983 101.024,24.8840029 101.024,24.308 L101.024,2.312 C101.024,1.75999724 101.191998,1.31000174 101.528,0.962 C101.864002,0.61399826 102.307997,0.44 102.86,0.44 C103.436003,0.44 103.891998,0.60799832 104.228,0.944 C104.564002,1.28000168 104.732,1.73599712 104.732,2.312 L104.732,24.308 C104.732,24.8840029 104.570002,25.3399983 104.246,25.676 C103.921998,26.0120017 103.460003,26.18 102.86,26.18 Z M129.716,12.536 C130.172002,12.536 130.537999,12.6679987 130.814,12.932 C131.090001,13.1960013 131.228,13.5559977 131.228,14.012 L131.228,22.436 C131.228,23.2520041 131.114001,23.8399982 130.886,24.2 C130.657999,24.5600018 130.208003,24.8479989 129.536,25.064 C128.575995,25.4480019 127.436007,25.7479989 126.116,25.964 C124.795993,26.1800011 123.488006,26.288 122.192,26.288 C119.623987,26.288 117.404009,25.7720052 115.532,24.74 C113.659991,23.7079948 112.232005,22.2200097 111.248,20.276 C110.263995,18.3319903 109.772,16.0040136 109.772,13.292 C109.772,10.6279867 110.263995,8.32400972 111.248,6.38 C112.232005,4.43599028 113.641991,2.94200522 115.478,1.898 C117.314009,0.85399478 119.467988,0.332 121.94,0.332 C123.620008,0.332 125.173993,0.57799754 126.602,1.07 C128.030007,1.56200246 129.247995,2.27599532 130.256,3.212 C130.736002,3.59600192 130.976,4.07599712 130.976,4.652 C130.976,5.08400216 130.856001,5.4499985 130.616,5.75 C130.375999,6.0500015 130.088002,6.2 129.752,6.2 C129.535999,6.2 129.344001,6.16400036 129.176,6.092 C129.007999,6.01999964 128.792001,5.90000084 128.528,5.732 C127.351994,4.86799568 126.284005,4.26200174 125.324,3.914 C124.363995,3.56599826 123.260006,3.392 122.012,3.392 C119.275986,3.392 117.188007,4.23799154 115.748,5.93 C114.307993,7.62200846 113.588,10.0759839 113.588,13.292 C113.588,16.5800164 114.325993,19.0699915 115.802,20.762 C117.278007,22.4540085 119.443986,23.3 122.3,23.3 C124.22001,23.3 126.067991,23.0120029 127.844,22.436 L127.844,15.344 L123.128,15.344 C122.647998,15.344 122.270001,15.2180013 121.994,14.966 C121.717999,14.7139987 121.58,14.3720022 121.58,13.94 C121.58,13.5079978 121.717999,13.1660013 121.994,12.914 C122.270001,12.6619987 122.647998,12.536 123.128,12.536 L129.716,12.536 Z M146.996,26.288 C143.611983,26.288 141.044009,25.4120088 139.292,23.66 C137.539991,21.9079912 136.664,19.328017 136.664,15.92 L136.664,2.312 C136.664,1.73599712 136.831998,1.28000168 137.168,0.944 C137.504002,0.60799832 137.947997,0.44 138.5,0.44 C139.052003,0.44 139.495998,0.60799832 139.832,0.944 C140.168002,1.28000168 140.336,1.73599712 140.336,2.312 L140.336,16.172 C140.336,18.5000116 140.893994,20.263994 142.01,21.464 C143.126006,22.664006 144.787989,23.264 146.996,23.264 C149.180011,23.264 150.835994,22.664006 151.964,21.464 C153.092006,20.263994 153.656,18.5000116 153.656,16.172 L153.656,2.312 C153.656,1.75999724 153.823998,1.31000174 154.16,0.962 C154.496002,0.61399826 154.939997,0.44 155.492,0.44 C156.044003,0.44 156.487998,0.60799832 156.824,0.944 C157.160002,1.28000168 157.328,1.73599712 157.328,2.312 L157.328,15.92 C157.328,19.3040169 156.446009,21.8779912 154.682,23.642 C152.917991,25.4060088 150.356017,26.288 146.996,26.288 Z M182.852,23.696 C183.068001,24.0080016 183.176,24.3439982 183.176,24.704 C183.176,25.1360022 183.002002,25.5019985 182.654,25.802 C182.305998,26.1020015 181.904002,26.252 181.448,26.252 C180.775997,26.252 180.236002,25.952003 179.828,25.352 L175.004,17.864 C174.451997,16.9999957 173.864003,16.3940017 173.24,16.046 C172.615997,15.6979983 171.800005,15.524 170.792,15.524 L166.724,15.524 L166.724,24.308 C166.724,24.8840029 166.562002,25.3399983 166.238,25.676 C165.913998,26.0120017 165.464003,26.18 164.888,26.18 C164.335997,26.18 163.892002,26.0120017 163.556,25.676 C163.219998,25.3399983 163.052,24.8840029 163.052,24.308 L163.052,2.42 C163.052,1.86799724 163.213998,1.43000162 163.538,1.106 C163.862002,0.78199838 164.311997,0.62 164.888,0.62 L173.852,0.62 C176.660014,0.62 178.801993,1.24399376 180.278,2.492 C181.754007,3.74000624 182.492,5.563988 182.492,7.964 C182.492,9.95600996 181.928006,11.5699938 180.8,12.806 C179.671994,14.0420062 178.06401,14.8279983 175.976,15.164 C176.600003,15.3320008 177.163997,15.6319978 177.668,16.064 C178.172003,16.4960022 178.663998,17.0959962 179.144,17.864 L182.852,23.696 Z M173.42,12.536 C175.292009,12.536 176.677995,12.1700037 177.578,11.438 C178.478004,10.7059963 178.928,9.57200768 178.928,8.036 C178.928,6.49999232 178.484004,5.37800354 177.596,4.67 C176.707996,3.96199646 175.316009,3.608 173.42,3.608 L166.688,3.608 L166.688,12.536 L173.42,12.536 Z M189.728,26 C189.151997,26 188.702002,25.8380016 188.378,25.514 C188.053998,25.1899984 187.892,24.7520028 187.892,24.2 L187.892,2.42 C187.892,1.86799724 188.053998,1.43000162 188.378,1.106 C188.702002,0.78199838 189.151997,0.62 189.728,0.62 L202.976,0.62 C203.528003,0.62 203.953998,0.75199868 204.254,1.016 C204.554001,1.28000132 204.704,1.6519976 204.704,2.132 C204.704,2.6120024 204.554001,2.97799874 204.254,3.23 C203.953998,3.48200126 203.528003,3.608 202.976,3.608 L191.528,3.608 L191.528,11.6 L202.256,11.6 C202.808003,11.6 203.233998,11.7319987 203.534,11.996 C203.834001,12.2600013 203.984,12.6319976 203.984,13.112 C203.984,13.5920024 203.834001,13.9639987 203.534,14.228 C203.233998,14.4920013 202.808003,14.624 202.256,14.624 L191.528,14.624 L191.528,23.012 L202.976,23.012 C204.128006,23.012 204.704,23.5039951 204.704,24.488 C204.704,24.9680024 204.554001,25.3399987 204.254,25.604 C203.953998,25.8680013 203.528003,26 202.976,26 L189.728,26 Z M22.472,63.732 C22.7840016,64.0440016 22.94,64.3919981 22.94,64.776 C22.94,65.184002 22.7840016,65.5379985 22.472,65.838 C22.1599984,66.1380015 21.800002,66.288 21.392,66.288 C20.983998,66.288 20.6240016,66.1320016 20.312,65.82 L17.144,62.616 C16.0399945,63.7920059 14.792007,64.6919969 13.4,65.316 C12.007993,65.9400031 10.5440077,66.252 9.008,66.252 C7.39999196,66.252 5.96000636,65.9760028 4.688,65.424 C3.41599364,64.8719972 2.42600354,64.0860051 1.718,63.066 C1.00999646,62.0459949 0.656,60.8640067 0.656,59.52 C0.656,57.9599922 1.12399532,56.5680061 2.06,55.344 C2.99600468,54.1199939 4.43599028,52.9560055 6.38,51.852 C5.39599508,50.7959947 4.6640024,49.8180045 4.184,48.918 C3.7039976,48.0179955 3.464,47.0760049 3.464,46.092 C3.464,44.3399912 4.07599388,42.9480052 5.3,41.916 C6.52400612,40.8839948 8.0959904,40.368 10.016,40.368 C11.8400091,40.368 13.2919946,40.8419953 14.372,41.79 C15.4520054,42.7380047 15.992,44.0279918 15.992,45.66 C15.992,46.9800066 15.6020039,48.1499949 14.822,49.17 C14.0419961,50.1900051 12.8000085,51.2159948 11.096,52.248 L16.748,57.972 C17.5160038,56.3879921 17.9839992,54.4800112 18.152,52.248 C18.1760001,51.7439975 18.3499984,51.3540014 18.674,51.078 C18.9980016,50.8019986 19.363998,50.664 19.772,50.664 C20.2040022,50.664 20.5699985,50.8139985 20.87,51.114 C21.1700015,51.4140015 21.2960002,51.8279974 21.248,52.356 C21.0319989,55.3320149 20.2640066,57.9359888 18.944,60.168 L22.472,63.732 Z M10.052,42.996 C9.0919952,42.996 8.31800294,43.2779972 7.73,43.842 C7.14199706,44.4060028 6.848,45.1559953 6.848,46.092 C6.848,46.7640034 7.0279982,47.4059969 7.388,48.018 C7.7480018,48.6300031 8.33599592,49.3799956 9.152,50.268 C10.544007,49.4039957 11.5219972,48.6420033 12.086,47.982 C12.6500028,47.3219967 12.932,46.596004 12.932,45.804 C12.932,44.9639958 12.6680026,44.2860026 12.14,43.77 C11.6119974,43.2539974 10.9160043,42.996 10.052,42.996 Z M9.188,63.408 C10.2920055,63.408 11.3539949,63.1680024 12.374,62.688 C13.3940051,62.2079976 14.299996,61.5000047 15.092,60.564 L8.36,53.832 C6.87199256,54.7200044 5.81000318,55.5899957 5.174,56.442 C4.53799682,57.2940043 4.22,58.2599946 4.22,59.34 C4.22,60.6120064 4.6699955,61.6079964 5.57,62.328 C6.4700045,63.0480036 7.67599244,63.408 9.188,63.408 Z M46.664,66.288 C44.2399879,66.288 42.128009,65.7660052 40.328,64.722 C38.527991,63.6779948 37.1480048,62.1780098 36.188,60.222 C35.2279952,58.2659902 34.748,55.9560133 34.748,53.292 C34.748,50.6519868 35.2279952,48.3540098 36.188,46.398 C37.1480048,44.4419902 38.527991,42.9420052 40.328,41.898 C42.128009,40.8539948 44.2399879,40.332 46.664,40.332 C48.2480079,40.332 49.7479929,40.5779975 51.164,41.07 C52.5800071,41.5620025 53.8159947,42.2759953 54.872,43.212 C55.3280023,43.5720018 55.556,44.051997 55.556,44.652 C55.556,45.0840022 55.4360012,45.4499985 55.196,45.75 C54.9559988,46.0500015 54.6680017,46.2 54.332,46.2 C53.923998,46.2 53.5280019,46.0440016 53.144,45.732 C51.9919942,44.8679957 50.9420047,44.2620017 49.994,43.914 C49.0459953,43.5659983 47.972006,43.392 46.772,43.392 C44.1319868,43.392 42.1040071,44.2439915 40.688,45.948 C39.2719929,47.6520085 38.564,50.099984 38.564,53.292 C38.564,56.5080161 39.2719929,58.9679915 40.688,60.672 C42.1040071,62.3760085 44.1319868,63.228 46.772,63.228 C47.9240058,63.228 48.9739953,63.0480018 49.922,62.688 C50.8700047,62.3279982 51.943994,61.7280042 53.144,60.888 C53.6240024,60.5759984 54.0199984,60.42 54.332,60.42 C54.6680017,60.42 54.9559988,60.5699985 55.196,60.87 C55.4360012,61.1700015 55.556,61.5359978 55.556,61.968 C55.556,62.568003 55.3280023,63.0479982 54.872,63.408 C53.8159947,64.3440047 52.5800071,65.0579975 51.164,65.55 C49.7479929,66.0420025 48.2480079,66.288 46.664,66.288 Z M70.892,66.288 C68.491988,66.288 66.4100088,65.7600053 64.646,64.704 C62.8819912,63.6479947 61.5200048,62.1480097 60.56,60.204 C59.5999952,58.2599903 59.12,55.9680132 59.12,53.328 C59.12,50.6639867 59.5939953,48.3540098 60.542,46.398 C61.4900047,44.4419902 62.8519911,42.9420052 64.628,41.898 C66.4040089,40.8539948 68.491988,40.332 70.892,40.332 C73.3160121,40.332 75.4159911,40.8539948 77.192,41.898 C78.9680089,42.9420052 80.3299953,44.4419902 81.278,46.398 C82.2260047,48.3540098 82.7,50.6519868 82.7,53.292 C82.7,55.9320132 82.2260047,58.2299902 81.278,60.186 C80.3299953,62.1420098 78.9680089,63.6479947 77.192,64.704 C75.4159911,65.7600053 73.3160121,66.288 70.892,66.288 Z M70.892,63.264 C73.4360127,63.264 75.4159929,62.4000086 76.832,60.672 C78.2480071,58.9439914 78.956,56.484016 78.956,53.292 C78.956,50.099984 78.254007,47.6460086 76.85,45.93 C75.445993,44.2139914 73.4600128,43.356 70.892,43.356 C68.3719874,43.356 66.410007,44.2139914 65.006,45.93 C63.601993,47.6460086 62.9,50.099984 62.9,53.292 C62.9,56.484016 63.601993,58.9439914 65.006,60.672 C66.410007,62.4000086 68.3719874,63.264 70.892,63.264 Z M110.276,40.44 C110.804003,40.44 111.235998,40.6139983 111.572,40.962 C111.908002,41.3100017 112.076,41.7599972 112.076,42.312 L112.076,64.416 C112.076,64.9680028 111.926001,65.3999984 111.626,65.712 C111.325998,66.0240016 110.912003,66.18 110.384,66.18 C109.879997,66.18 109.484001,66.0240016 109.196,65.712 C108.907999,65.3999984 108.764,64.9680028 108.764,64.416 L108.764,47.676 L101.708,61.104 C101.251998,61.9440042 100.664004,62.364 99.944,62.364 C99.2239964,62.364 98.6360023,61.9440042 98.18,61.104 L91.088,47.82 L91.088,64.416 C91.088,64.9680028 90.9440014,65.3999984 90.656,65.712 C90.3679986,66.0240016 89.9600026,66.18 89.432,66.18 C88.9279975,66.18 88.5260015,66.0180016 88.226,65.694 C87.9259985,65.3699984 87.776,64.9440026 87.776,64.416 L87.776,42.312 C87.776,41.7599972 87.9439983,41.3100017 88.28,40.962 C88.6160017,40.6139983 89.0479974,40.44 89.576,40.44 C90.3200037,40.44 90.9199977,40.8719957 91.376,41.736 L99.98,58.188 L108.512,41.736 C108.968002,40.8719957 109.555996,40.44 110.276,40.44 Z M119.852,66.18 C119.299997,66.18 118.856002,66.0120017 118.52,65.676 C118.183998,65.3399983 118.016,64.8840029 118.016,64.308 L118.016,42.42 C118.016,41.8679972 118.177998,41.4300016 118.502,41.106 C118.826002,40.7819984 119.275997,40.62 119.852,40.62 L128.528,40.62 C131.216013,40.62 133.303993,41.2799934 134.792,42.6 C136.280007,43.9200066 137.024,45.7919879 137.024,48.216 C137.024,50.616012 136.280007,52.4879933 134.792,53.832 C133.303993,55.1760067 131.216013,55.848 128.528,55.848 L121.724,55.848 L121.724,64.308 C121.724,64.8840029 121.562002,65.3399983 121.238,65.676 C120.913998,66.0120017 120.452003,66.18 119.852,66.18 Z M128.132,52.86 C131.684018,52.86 133.46,51.3120155 133.46,48.216 C133.46,45.1439846 131.684018,43.608 128.132,43.608 L121.724,43.608 L121.724,52.86 L128.132,52.86 Z M163.88,63.84 C164.000001,64.1280014 164.06,64.367999 164.06,64.56 C164.06,65.0160023 163.874002,65.3999984 163.502,65.712 C163.129998,66.0240016 162.716002,66.18 162.26,66.18 C161.947998,66.18 161.654001,66.0900009 161.378,65.91 C161.101999,65.7299991 160.892001,65.4720017 160.748,65.136 L158.372,59.736 L145.196,59.736 L142.82,65.136 C142.675999,65.4720017 142.460001,65.7299991 142.172,65.91 C141.883999,66.0900009 141.584002,66.18 141.272,66.18 C140.791998,66.18 140.366002,66.0240016 139.994,65.712 C139.621998,65.3999984 139.436,65.0160023 139.436,64.56 C139.436,64.367999 139.495999,64.1280014 139.616,63.84 L149.768,41.628 C149.936001,41.2439981 150.205998,40.9440011 150.578,40.728 C150.950002,40.5119989 151.339998,40.404 151.748,40.404 C152.156002,40.404 152.545998,40.5119989 152.918,40.728 C153.290002,40.9440011 153.559999,41.2439981 153.728,41.628 L163.88,63.84 Z M146.528,56.784 L157.076,56.784 L151.784,44.868 L146.528,56.784 Z M187.712,63.696 C187.928001,64.0080016 188.036,64.3439982 188.036,64.704 C188.036,65.1360022 187.862002,65.5019985 187.514,65.802 C187.165998,66.1020015 186.764002,66.252 186.308,66.252 C185.635997,66.252 185.096002,65.952003 184.688,65.352 L179.864,57.864 C179.311997,56.9999957 178.724003,56.3940017 178.1,56.046 C177.475997,55.6979983 176.660005,55.524 175.652,55.524 L171.584,55.524 L171.584,64.308 C171.584,64.8840029 171.422002,65.3399983 171.098,65.676 C170.773998,66.0120017 170.324003,66.18 169.748,66.18 C169.195997,66.18 168.752002,66.0120017 168.416,65.676 C168.079998,65.3399983 167.912,64.8840029 167.912,64.308 L167.912,42.42 C167.912,41.8679972 168.073998,41.4300016 168.398,41.106 C168.722002,40.7819984 169.171997,40.62 169.748,40.62 L178.712,40.62 C181.520014,40.62 183.661993,41.2439938 185.138,42.492 C186.614007,43.7400062 187.352,45.563988 187.352,47.964 C187.352,49.95601 186.788006,51.5699938 185.66,52.806 C184.531994,54.0420062 182.92401,54.8279983 180.836,55.164 C181.460003,55.3320008 182.023997,55.6319978 182.528,56.064 C183.032003,56.4960022 183.523998,57.0959962 184.004,57.864 L187.712,63.696 Z M178.28,52.536 C180.152009,52.536 181.537996,52.1700037 182.438,51.438 C183.338004,50.7059963 183.788,49.5720077 183.788,48.036 C183.788,46.4999923 183.344004,45.3780035 182.456,44.67 C181.567996,43.9619965 180.176009,43.608 178.28,43.608 L171.548,43.608 L171.548,52.536 L178.28,52.536 Z M194.588,66 C194.011997,66 193.562002,65.8380016 193.238,65.514 C192.913998,65.1899984 192.752,64.7520028 192.752,64.2 L192.752,42.42 C192.752,41.8679972 192.913998,41.4300016 193.238,41.106 C193.562002,40.7819984 194.011997,40.62 194.588,40.62 L207.836,40.62 C208.388003,40.62 208.813998,40.7519987 209.114,41.016 C209.414002,41.2800013 209.564,41.6519976 209.564,42.132 C209.564,42.6120024 209.414002,42.9779987 209.114,43.23 C208.813998,43.4820013 208.388003,43.608 207.836,43.608 L196.388,43.608 L196.388,51.6 L207.116,51.6 C207.668003,51.6 208.093998,51.7319987 208.394,51.996 C208.694001,52.2600013 208.844,52.6319976 208.844,53.112 C208.844,53.5920024 208.694001,53.9639987 208.394,54.228 C208.093998,54.4920013 207.668003,54.624 207.116,54.624 L196.388,54.624 L196.388,63.012 L207.836,63.012 C208.988006,63.012 209.564,63.5039951 209.564,64.488 C209.564,64.9680024 209.414002,65.3399987 209.114,65.604 C208.813998,65.8680013 208.388003,66 207.836,66 L194.588,66 Z" id="CONFIGURE-&amp;-COMPARE"></path>
            </g>
        </g>
    </g>
</svg>