<?xml version="1.0" encoding="UTF-8"?>
<svg width="223px" height="119px" viewBox="0 0 223 119" version="1.1" xmlns="http://www.w3.org/2000/svg" xmlns:xlink="http://www.w3.org/1999/xlink">
    <!-- Generator: Sketch 52.4 (67378) - http://www.bohemiancoding.com/sketch -->
    <title>Configures policy ch 2</title>
    <desc>Created with Sketch.</desc>
    <g id="Page-1" stroke="none" stroke-width="1" fill="none" fill-rule="evenodd">
        <g id="Artboard-Copy" transform="translate(-466.000000, -744.000000)" fill="#333333">
            <g id="Configures-policy-ch-2" transform="translate(465.000000, 744.000000)">
                <path d="M10.264,18.192 C8.663992,18.192 7.28000584,17.8440035 6.112,17.148 C4.94399416,16.4519965 4.04400316,15.4520065 3.412,14.148 C2.77999684,12.8439935 2.464,11.3040089 2.464,9.528 C2.464,7.7679912 2.77999684,6.23600652 3.412,4.932 C4.04400316,3.62799348 4.94399416,2.62800348 6.112,1.932 C7.28000584,1.23599652 8.663992,0.888 10.264,0.888 C11.3360054,0.888 12.3479952,1.05999828 13.3,1.404 C14.2520048,1.74800172 15.0799965,2.2399968 15.784,2.88 C16.0400013,3.1200012 16.168,3.3999984 16.168,3.72 C16.168,3.94400112 16.1040006,4.13999916 15.976,4.308 C15.8479994,4.47600084 15.6960009,4.56 15.52,4.56 C15.327999,4.56 15.0960014,4.47200088 14.824,4.296 C14.0079959,3.6559968 13.2680033,3.20800128 12.604,2.952 C11.9399967,2.69599872 11.1760043,2.568 10.312,2.568 C8.45599072,2.568 7.028005,3.17199396 6.028,4.38 C5.027995,5.58800604 4.528,7.30398888 4.528,9.528 C4.528,11.7680112 5.027995,13.491994 6.028,14.7 C7.028005,15.908006 8.45599072,16.512 10.312,16.512 C11.1600042,16.512 11.9199966,16.3840013 12.592,16.128 C13.2640034,15.8719987 14.0079959,15.4240032 14.824,14.784 C15.0960014,14.6079991 15.327999,14.52 15.52,14.52 C15.6960009,14.52 15.8479994,14.5999992 15.976,14.76 C16.1040006,14.9200008 16.168,15.1199988 16.168,15.36 C16.168,15.6800016 16.0400013,15.9599988 15.784,16.2 C15.0799965,16.8400032 14.2520048,17.3319983 13.3,17.676 C12.3479952,18.0200017 11.3360054,18.192 10.264,18.192 Z M22.656,18.168 C21.5519945,18.168 20.5800042,17.9200025 19.74,17.424 C18.8999958,16.9279975 18.2520023,16.2200046 17.796,15.3 C17.3399977,14.3799954 17.112,13.3120061 17.112,12.096 C17.112,10.8799939 17.3399977,9.8120046 17.796,8.892 C18.2520023,7.9719954 18.8999958,7.26400248 19.74,6.768 C20.5800042,6.27199752 21.5519945,6.024 22.656,6.024 C23.7600055,6.024 24.7359958,6.27199752 25.584,6.768 C26.4320042,7.26400248 27.0839977,7.9719954 27.54,8.892 C27.9960023,9.8120046 28.224,10.8799939 28.224,12.096 C28.224,13.3120061 27.9960023,14.3799954 27.54,15.3 C27.0839977,16.2200046 26.4320042,16.9279975 25.584,17.424 C24.7359958,17.9200025 23.7600055,18.168 22.656,18.168 Z M22.656,16.56 C23.8080058,16.56 24.6919969,16.1800038 25.308,15.42 C25.9240031,14.6599962 26.232,13.5520073 26.232,12.096 C26.232,10.6719929 25.9200031,9.57200388 25.296,8.796 C24.6719969,8.01999612 23.7920057,7.632 22.656,7.632 C21.5199943,7.632 20.6400031,8.01999612 20.016,8.796 C19.3919969,9.57200388 19.08,10.6719929 19.08,12.096 C19.08,13.5360072 19.3879969,14.6399962 20.004,15.408 C20.6200031,16.1760038 21.5039942,16.56 22.656,16.56 Z M36.008,6.024 C38.808014,6.024 40.208,7.56798456 40.208,10.656 L40.208,17.16 C40.208,17.4640015 40.1240008,17.6999992 39.956,17.868 C39.7879992,18.0360008 39.5520015,18.12 39.248,18.12 C38.9439985,18.12 38.7040009,18.0360008 38.528,17.868 C38.3519991,17.6999992 38.264,17.4640015 38.264,17.16 L38.264,10.776 C38.264,9.68799456 38.0520021,8.89600248 37.628,8.4 C37.2039979,7.90399752 36.5280046,7.656 35.6,7.656 C34.5279946,7.656 33.6720032,7.98399672 33.032,8.64 C32.3919968,9.29600328 32.072,10.1839944 32.072,11.304 L32.072,17.16 C32.072,17.4640015 31.9880008,17.6999992 31.82,17.868 C31.6519992,18.0360008 31.4160015,18.12 31.112,18.12 C30.8079985,18.12 30.5680009,18.0360008 30.392,17.868 C30.2159991,17.6999992 30.128,17.4640015 30.128,17.16 L30.128,7.032 C30.128,6.74399856 30.2159991,6.51200088 30.392,6.336 C30.5680009,6.15999912 30.8079985,6.072 31.112,6.072 C31.4000014,6.072 31.6279992,6.15999912 31.796,6.336 C31.9640008,6.51200088 32.048,6.73599864 32.048,7.008 L32.048,8.232 C32.4320019,7.5119964 32.9679966,6.96400188 33.656,6.588 C34.3440034,6.21199812 35.1279956,6.024 36.008,6.024 Z M51.712,6.312 C51.9840014,6.312 52.1919993,6.38399928 52.336,6.528 C52.4800007,6.67200072 52.552,6.8639988 52.552,7.104 L52.552,17.16 C52.552,17.4640015 52.4600009,17.6999992 52.276,17.868 C52.0919991,18.0360008 51.8640014,18.12 51.592,18.12 C51.3039986,18.12 51.0680009,18.0360008 50.884,17.868 C50.6999991,17.6999992 50.608,17.4640015 50.608,17.16 L50.608,7.848 L45.352,7.848 L45.352,17.16 C45.352,17.4640015 45.2600009,17.6999992 45.076,17.868 C44.8919991,18.0360008 44.6640014,18.12 44.392,18.12 C44.1039986,18.12 43.8680009,18.0360008 43.684,17.868 C43.4999991,17.6999992 43.408,17.4640015 43.408,17.16 L43.408,7.848 L41.8,7.848 C41.5279986,7.848 41.3160008,7.78000068 41.164,7.644 C41.0119992,7.50799932 40.936,7.32800112 40.936,7.104 C40.936,6.8639988 41.0119992,6.67200072 41.164,6.528 C41.3160008,6.38399928 41.5279986,6.312 41.8,6.312 L43.408,6.312 L43.408,5.904 C43.408,4.4639928 43.7679964,3.33200412 44.488,2.508 C45.2080036,1.68399588 46.2399933,1.21600056 47.584,1.104 L48.16,1.056 C48.9280038,0.99199968 49.312,1.23199728 49.312,1.776 C49.312,2.24000232 49.0400027,2.50399968 48.496,2.568 L47.92,2.616 C47.0719958,2.68000032 46.4320022,2.94799764 46,3.42 C45.5679978,3.89200236 45.352,4.59999528 45.352,5.544 L45.352,6.312 L51.712,6.312 Z M51.592,1.128 C51.9600018,1.128 52.2679988,1.23999888 52.516,1.464 C52.7640012,1.68800112 52.888,1.97599824 52.888,2.328 C52.888,2.69600184 52.7680012,2.99199888 52.528,3.216 C52.2879988,3.44000112 51.9760019,3.552 51.592,3.552 C51.2079981,3.552 50.8960012,3.44000112 50.656,3.216 C50.4159988,2.99199888 50.296,2.69600184 50.296,2.328 C50.296,1.97599824 50.4159988,1.68800112 50.656,1.464 C50.8960012,1.23999888 51.2079981,1.128 51.592,1.128 Z M64.656,6.072 C64.9600015,6.072 65.1999991,6.15999912 65.376,6.336 C65.5520009,6.51200088 65.64,6.74399856 65.64,7.032 L65.64,17.208 C65.64,18.9520087 65.1920045,20.2679956 64.296,21.156 C63.3999955,22.0440044 62.0720088,22.488 60.312,22.488 C58.5999914,22.488 57.1760057,22.1520034 56.04,21.48 C55.4639971,21.1599984 55.176,20.7920021 55.176,20.376 C55.176,20.1519989 55.2359994,19.9680007 55.356,19.824 C55.4760006,19.6799993 55.631999,19.608 55.824,19.608 C55.9840008,19.608 56.2719979,19.7199989 56.688,19.944 C57.2480028,20.2320014 57.7999973,20.4639991 58.344,20.64 C58.8880027,20.8160009 59.5359962,20.904 60.288,20.904 C61.4240057,20.904 62.2799971,20.604003 62.856,20.004 C63.4320029,19.403997 63.72,18.5280058 63.72,17.376 L63.72,15.312 C63.3839983,16.0640038 62.8680035,16.639998 62.172,17.04 C61.4759965,17.440002 60.6560047,17.64 59.712,17.64 C58.6879949,17.64 57.780004,17.4000024 56.988,16.92 C56.195996,16.4399976 55.5800022,15.7600044 55.14,14.88 C54.6999978,13.9999956 54.48,12.9840058 54.48,11.832 C54.48,10.6799942 54.6999978,9.6640044 55.14,8.784 C55.5800022,7.9039956 56.195996,7.2240024 56.988,6.744 C57.780004,6.2639976 58.6879949,6.024 59.712,6.024 C60.6400046,6.024 61.4479966,6.223998 62.136,6.624 C62.8240034,7.024002 63.3439982,7.59199632 63.696,8.328 L63.696,7.032 C63.696,6.74399856 63.7799992,6.51200088 63.948,6.336 C64.1160008,6.15999912 64.3519985,6.072 64.656,6.072 Z M60.096,16.032 C61.2160056,16.032 62.0959968,15.6600037 62.736,14.916 C63.3760032,14.1719963 63.696,13.1440066 63.696,11.832 C63.696,10.5359935 63.3800032,9.51600372 62.748,8.772 C62.1159968,8.02799628 61.2320057,7.656 60.096,7.656 C58.9599943,7.656 58.0680032,8.02799628 57.42,8.772 C56.7719968,9.51600372 56.448,10.5359935 56.448,11.832 C56.448,13.1440066 56.7719968,14.1719963 57.42,14.916 C58.0680032,15.6600037 58.9599943,16.032 60.096,16.032 Z M77.12,6.072 C77.4240015,6.072 77.6599992,6.15999912 77.828,6.336 C77.9960008,6.51200088 78.08,6.74399856 78.08,7.032 L78.08,17.184 C78.08,17.4560014 77.9960008,17.6799991 77.828,17.856 C77.6599992,18.0320009 77.4240015,18.12 77.12,18.12 C76.8319986,18.12 76.6040008,18.0360008 76.436,17.868 C76.2679992,17.6999992 76.184,17.4800014 76.184,17.208 L76.184,16.008 C75.8159982,16.7120035 75.3000033,17.2479982 74.636,17.616 C73.9719967,17.9840018 73.2240042,18.168 72.392,18.168 C70.999993,18.168 69.9520035,17.7800039 69.248,17.004 C68.5439965,16.2279961 68.192,15.0800076 68.192,13.56 L68.192,7.032 C68.192,6.74399856 68.2799991,6.51200088 68.456,6.336 C68.6320009,6.15999912 68.8719985,6.072 69.176,6.072 C69.4800015,6.072 69.7159992,6.15999912 69.884,6.336 C70.0520008,6.51200088 70.136,6.74399856 70.136,7.032 L70.136,13.512 C70.136,14.5520052 70.3439979,15.3159976 70.76,15.804 C71.1760021,16.2920024 71.8319955,16.536 72.728,16.536 C73.7520051,16.536 74.5759969,16.2040033 75.2,15.54 C75.8240031,14.8759967 76.136,14.0000054 76.136,12.912 L76.136,7.032 C76.136,6.74399856 76.2239991,6.51200088 76.4,6.336 C76.5760009,6.15999912 76.8159985,6.072 77.12,6.072 Z M86.488,6.072 C87.1600034,6.02399976 87.496,6.29599704 87.496,6.888 C87.496,7.14400128 87.4240007,7.34799924 87.28,7.5 C87.1359993,7.65200076 86.8880018,7.74399984 86.536,7.776 L85.816,7.848 C84.7439946,7.94400048 83.9480026,8.32399668 83.428,8.988 C82.9079974,9.65200332 82.648,10.4319955 82.648,11.328 L82.648,17.16 C82.648,17.4800016 82.5600009,17.7199992 82.384,17.88 C82.2079991,18.0400008 81.9760014,18.12 81.688,18.12 C81.3999986,18.12 81.1640009,18.0360008 80.98,17.868 C80.7959991,17.6999992 80.704,17.4640015 80.704,17.16 L80.704,7.032 C80.704,6.72799848 80.799999,6.49200084 80.992,6.324 C81.184001,6.15599916 81.4159986,6.072 81.688,6.072 C81.9440013,6.072 82.1599991,6.15599916 82.336,6.324 C82.5120009,6.49200084 82.6,6.71999856 82.6,7.008 L82.6,8.352 C82.9360017,7.64799648 83.4119969,7.11200184 84.028,6.744 C84.6440031,6.37599816 85.351996,6.16000032 86.152,6.096 L86.488,6.072 Z M96.984,15.288 C97.1600009,15.288 97.3119994,15.3599993 97.44,15.504 C97.5680006,15.6480007 97.632,15.8319989 97.632,16.056 C97.632,16.456002 97.3520028,16.8239983 96.792,17.16 C96.2159971,17.4960017 95.6080032,17.7479992 94.968,17.916 C94.3279968,18.0840008 93.704003,18.168 93.096,18.168 C91.287991,18.168 89.8600052,17.6320054 88.812,16.56 C87.7639948,15.4879946 87.24,14.0080094 87.24,12.12 C87.24,10.919994 87.4719977,9.8600046 87.936,8.94 C88.4000023,8.0199954 89.0519958,7.30400256 89.892,6.792 C90.7320042,6.27999744 91.6879946,6.024 92.76,6.024 C94.2800076,6.024 95.4879955,6.51999504 96.384,7.512 C97.2800045,8.50400496 97.728,9.84799152 97.728,11.544 C97.728,11.8640016 97.6640006,12.0959993 97.536,12.24 C97.4079994,12.3840007 97.2000014,12.456 96.912,12.456 L89.184,12.456 C89.3280007,15.2080138 90.6319877,16.584 93.096,16.584 C93.7200031,16.584 94.2559978,16.5000008 94.704,16.332 C95.1520022,16.1639992 95.6319974,15.9360014 96.144,15.648 C96.5600021,15.4079988 96.8399993,15.288 96.984,15.288 Z M92.784,7.536 C91.7599949,7.536 90.9400031,7.8559968 90.324,8.496 C89.7079969,9.1360032 89.3440006,10.0399942 89.232,11.208 L96.024,11.208 C95.9919998,10.0239941 95.6960028,9.11600316 95.136,8.484 C94.5759972,7.85199684 93.792005,7.536 92.784,7.536 Z M103.52,18.168 C102.783996,18.168 102.084003,18.0800009 101.42,17.904 C100.755997,17.7279991 100.168003,17.4800016 99.656,17.16 C99.3679986,16.967999 99.1640006,16.7880008 99.044,16.62 C98.9239994,16.4519992 98.864,16.2480012 98.864,16.008 C98.864,15.799999 98.9239994,15.6280007 99.044,15.492 C99.1640006,15.3559993 99.319999,15.288 99.512,15.288 C99.704001,15.288 99.9839982,15.4079988 100.352,15.648 C100.832002,15.9360014 101.307998,16.1639992 101.78,16.332 C102.252002,16.5000008 102.839996,16.584 103.544,16.584 C104.408004,16.584 105.079998,16.4320015 105.56,16.128 C106.040002,15.8239985 106.28,15.3840029 106.28,14.808 C106.28,14.4559982 106.192001,14.1720011 106.016,13.956 C105.839999,13.7399989 105.536002,13.5480008 105.104,13.38 C104.671998,13.2119992 104.040004,13.0400009 103.208,12.864 C101.799993,12.5599985 100.792003,12.1520026 100.184,11.64 C99.575997,11.1279974 99.272,10.4320044 99.272,9.552 C99.272,8.86399656 99.4639981,8.25600264 99.848,7.728 C100.232002,7.19999736 100.763997,6.78400152 101.444,6.48 C102.124003,6.17599848 102.895996,6.024 103.76,6.024 C104.384003,6.024 104.987997,6.10799916 105.572,6.276 C106.156003,6.44400084 106.671998,6.67999848 107.12,6.984 C107.664003,7.36800192 107.936,7.76799792 107.936,8.184 C107.936,8.39200104 107.872001,8.56799928 107.744,8.712 C107.615999,8.85600072 107.464001,8.928 107.288,8.928 C107.095999,8.928 106.808002,8.79200136 106.424,8.52 C105.975998,8.23199856 105.552002,8.0080008 105.152,7.848 C104.751998,7.6879992 104.256003,7.608 103.664,7.608 C102.911996,7.608 102.308002,7.77599832 101.852,8.112 C101.395998,8.44800168 101.168,8.8959972 101.168,9.456 C101.168,9.80800176 101.251999,10.0919989 101.42,10.308 C101.588001,10.5240011 101.867998,10.7159992 102.26,10.884 C102.652002,11.0520008 103.215996,11.2159992 103.952,11.376 C105.040005,11.6160012 105.883997,11.8799986 106.484,12.168 C107.084003,12.4560014 107.511999,12.8079979 107.768,13.224 C108.024001,13.6400021 108.152,14.1679968 108.152,14.808 C108.152,15.816005 107.728004,16.6279969 106.88,17.244 C106.031996,17.8600031 104.912007,18.168 103.52,18.168 Z M121.176,6.024 C122.200005,6.024 123.103996,6.27999744 123.888,6.792 C124.672004,7.30400256 125.279998,8.0199954 125.712,8.94 C126.144002,9.8600046 126.36,10.9279939 126.36,12.144 C126.36,13.3600061 126.144002,14.4199955 125.712,15.324 C125.279998,16.2280045 124.676004,16.9279975 123.9,17.424 C123.123996,17.9200025 122.216005,18.168 121.176,18.168 C120.263995,18.168 119.468003,17.968002 118.788,17.568 C118.107997,17.167998 117.592002,16.6000037 117.24,15.864 L117.24,21.504 C117.24,21.7920014 117.156001,22.0199992 116.988,22.188 C116.819999,22.3560008 116.584002,22.44 116.28,22.44 C115.975998,22.44 115.736001,22.3520009 115.56,22.176 C115.383999,21.9999991 115.296,21.7760014 115.296,21.504 L115.296,7.032 C115.296,6.74399856 115.383999,6.51200088 115.56,6.336 C115.736001,6.15999912 115.975998,6.072 116.28,6.072 C116.584002,6.072 116.819999,6.15999912 116.988,6.336 C117.156001,6.51200088 117.24,6.74399856 117.24,7.032 L117.24,8.328 C117.592002,7.59199632 118.107997,7.024002 118.788,6.624 C119.468003,6.223998 120.263995,6.024 121.176,6.024 Z M120.792,16.56 C121.928006,16.56 122.807997,16.1760038 123.432,15.408 C124.056003,14.6399962 124.368,13.552007 124.368,12.144 C124.368,10.735993 124.056003,9.63600396 123.432,8.844 C122.807997,8.05199604 121.928006,7.656 120.792,7.656 C119.655994,7.656 118.780003,8.03999616 118.164,8.808 C117.547997,9.57600384 117.24,10.6719929 117.24,12.096 C117.24,13.5200071 117.547997,14.6199961 118.164,15.396 C118.780003,16.1720039 119.655994,16.56 120.792,16.56 Z M133.112,18.168 C132.007994,18.168 131.036004,17.9200025 130.196,17.424 C129.355996,16.9279975 128.708002,16.2200046 128.252,15.3 C127.795998,14.3799954 127.568,13.3120061 127.568,12.096 C127.568,10.8799939 127.795998,9.8120046 128.252,8.892 C128.708002,7.9719954 129.355996,7.26400248 130.196,6.768 C131.036004,6.27199752 132.007994,6.024 133.112,6.024 C134.216006,6.024 135.191996,6.27199752 136.04,6.768 C136.888004,7.26400248 137.539998,7.9719954 137.996,8.892 C138.452002,9.8120046 138.68,10.8799939 138.68,12.096 C138.68,13.3120061 138.452002,14.3799954 137.996,15.3 C137.539998,16.2200046 136.888004,16.9279975 136.04,17.424 C135.191996,17.9200025 134.216006,18.168 133.112,18.168 Z M133.112,16.56 C134.264006,16.56 135.147997,16.1800038 135.764,15.42 C136.380003,14.6599962 136.688,13.5520073 136.688,12.096 C136.688,10.6719929 136.376003,9.57200388 135.752,8.796 C135.127997,8.01999612 134.248006,7.632 133.112,7.632 C131.975994,7.632 131.096003,8.01999612 130.472,8.796 C129.847997,9.57200388 129.536,10.6719929 129.536,12.096 C129.536,13.5360072 129.843997,14.6399962 130.46,15.408 C131.076003,16.1760038 131.959994,16.56 133.112,16.56 Z M141.568,18.12 C141.279999,18.12 141.044001,18.0360008 140.86,17.868 C140.675999,17.6999992 140.584,17.4640015 140.584,17.16 L140.584,1.92 C140.584,1.61599848 140.675999,1.38000084 140.86,1.212 C141.044001,1.04399916 141.279999,0.96 141.568,0.96 C141.840001,0.96 142.067999,1.04399916 142.252,1.212 C142.436001,1.38000084 142.528,1.61599848 142.528,1.92 L142.528,17.16 C142.528,17.4640015 142.436001,17.6999992 142.252,17.868 C142.067999,18.0360008 141.840001,18.12 141.568,18.12 Z M146.136,18.12 C145.847999,18.12 145.612001,18.0360008 145.428,17.868 C145.243999,17.6999992 145.152,17.4640015 145.152,17.16 L145.152,7.032 C145.152,6.72799848 145.243999,6.49200084 145.428,6.324 C145.612001,6.15599916 145.847999,6.072 146.136,6.072 C146.424001,6.072 146.655999,6.15599916 146.832,6.324 C147.008001,6.49200084 147.096,6.72799848 147.096,7.032 L147.096,17.16 C147.096,17.4800016 147.008001,17.7199992 146.832,17.88 C146.655999,18.0400008 146.424001,18.12 146.136,18.12 Z M146.136,3.552 C145.751998,3.552 145.440001,3.44000112 145.2,3.216 C144.959999,2.99199888 144.84,2.69600184 144.84,2.328 C144.84,1.97599824 144.959999,1.68800112 145.2,1.464 C145.440001,1.23999888 145.751998,1.128 146.136,1.128 C146.520002,1.128 146.831999,1.23999888 147.072,1.464 C147.312001,1.68800112 147.432,1.97599824 147.432,2.328 C147.432,2.69600184 147.312001,2.99199888 147.072,3.216 C146.831999,3.44000112 146.520002,3.552 146.136,3.552 Z M154.544,18.168 C153.455995,18.168 152.492004,17.9200025 151.652,17.424 C150.811996,16.9279975 150.164002,16.2240046 149.708,15.312 C149.251998,14.3999954 149.024,13.344006 149.024,12.144 C149.024,10.943994 149.259998,9.88000464 149.732,8.952 C150.204002,8.02399536 150.863996,7.30400256 151.712,6.792 C152.560004,6.27999744 153.535994,6.024 154.64,6.024 C155.248003,6.024 155.851997,6.10799916 156.452,6.276 C157.052003,6.44400084 157.575998,6.6879984 158.024,7.008 C158.312001,7.20000096 158.515999,7.38799908 158.636,7.572 C158.756001,7.75600092 158.816,7.95999888 158.816,8.184 C158.816,8.40800112 158.756001,8.59199928 158.636,8.736 C158.515999,8.88000072 158.360001,8.952 158.168,8.952 C158.055999,8.952 157.936001,8.92000032 157.808,8.856 C157.679999,8.79199968 157.572,8.72800032 157.484,8.664 C157.396,8.59999968 157.336,8.56000008 157.304,8.544 C156.887998,8.27199864 156.492002,8.0560008 156.116,7.896 C155.739998,7.7359992 155.280003,7.656 154.736,7.656 C153.567994,7.656 152.660003,8.05199604 152.012,8.844 C151.363997,9.63600396 151.04,10.735993 151.04,12.144 C151.04,13.552007 151.363997,14.6399962 152.012,15.408 C152.660003,16.1760038 153.567994,16.56 154.736,16.56 C155.280003,16.56 155.747998,16.4800008 156.14,16.32 C156.532002,16.1599992 156.927998,15.9440014 157.328,15.672 C157.504001,15.5599994 157.671999,15.4640004 157.832,15.384 C157.992001,15.3039996 158.127999,15.264 158.24,15.264 C158.416001,15.264 158.563999,15.3359993 158.684,15.48 C158.804001,15.6240007 158.864,15.8079989 158.864,16.032 C158.864,16.240001 158.808001,16.4279992 158.696,16.596 C158.583999,16.7640008 158.376002,16.951999 158.072,17.16 C157.623998,17.4640015 157.084003,17.7079991 156.452,17.892 C155.819997,18.0760009 155.184003,18.168 154.544,18.168 Z M168.64,6.672 C168.816001,6.28799808 169.095998,6.096 169.48,6.096 C169.720001,6.096 169.935999,6.1759992 170.128,6.336 C170.320001,6.4960008 170.416,6.6959988 170.416,6.936 C170.416,7.08000072 170.384,7.20799944 170.32,7.32 L163.576,21.864 C163.496,22.0400009 163.380001,22.1759995 163.228,22.272 C163.075999,22.3680005 162.920001,22.416 162.76,22.416 C162.519999,22.416 162.308001,22.3400008 162.124,22.188 C161.939999,22.0359992 161.848,21.8400012 161.848,21.6 C161.848,21.4719994 161.88,21.3440006 161.944,21.216 L163.624,17.592 L158.872,7.32 C158.808,7.20799944 158.776,7.08800064 158.776,6.96 C158.776,6.7199988 158.883999,6.51200088 159.1,6.336 C159.316001,6.15999912 159.551999,6.072 159.808,6.072 C159.968001,6.072 160.123999,6.11999952 160.276,6.216 C160.428001,6.31200048 160.544,6.44799912 160.624,6.624 L164.632,15.624 L168.64,6.672 Z M7.624,50.168 C6.53599456,50.168 5.5720042,49.9200025 4.732,49.424 C3.8919958,48.9279975 3.24400228,48.2240046 2.788,47.312 C2.33199772,46.3999954 2.104,45.344006 2.104,44.144 C2.104,42.943994 2.33999764,41.8800046 2.812,40.952 C3.28400236,40.0239954 3.94399576,39.3040026 4.792,38.792 C5.64000424,38.2799974 6.61599448,38.024 7.72,38.024 C8.32800304,38.024 8.931997,38.1079992 9.532,38.276 C10.132003,38.4440008 10.6559978,38.6879984 11.104,39.008 C11.3920014,39.200001 11.5959994,39.3879991 11.716,39.572 C11.8360006,39.7560009 11.896,39.9599989 11.896,40.184 C11.896,40.4080011 11.8360006,40.5919993 11.716,40.736 C11.5959994,40.8800007 11.440001,40.952 11.248,40.952 C11.1359994,40.952 11.0160006,40.9200003 10.888,40.856 C10.7599994,40.7919997 10.6520004,40.7280003 10.564,40.664 C10.4759996,40.5999997 10.4160002,40.5600001 10.384,40.544 C9.96799792,40.2719986 9.57200188,40.0560008 9.196,39.896 C8.81999812,39.7359992 8.36000272,39.656 7.816,39.656 C6.64799416,39.656 5.74000324,40.051996 5.092,40.844 C4.44399676,41.636004 4.12,42.735993 4.12,44.144 C4.12,45.552007 4.44399676,46.6399962 5.092,47.408 C5.74000324,48.1760038 6.64799416,48.56 7.816,48.56 C8.36000272,48.56 8.82799804,48.4800008 9.22,48.32 C9.61200196,48.1599992 10.007998,47.9440014 10.408,47.672 C10.5840009,47.5599994 10.7519992,47.4640004 10.912,47.384 C11.0720008,47.3039996 11.2079994,47.264 11.32,47.264 C11.4960009,47.264 11.6439994,47.3359993 11.764,47.48 C11.8840006,47.6240007 11.944,47.8079989 11.944,48.032 C11.944,48.240001 11.8880006,48.4279992 11.776,48.596 C11.6639994,48.7640008 11.4560015,48.951999 11.152,49.16 C10.7039978,49.4640015 10.1640032,49.7079991 9.532,49.892 C8.89999684,50.0760009 8.2640032,50.168 7.624,50.168 Z M19.2,38.024 C20.5760069,38.024 21.6159965,38.4119961 22.32,39.188 C23.0240035,39.9640039 23.376,41.1199923 23.376,42.656 L23.376,49.16 C23.376,49.4640015 23.2880009,49.6999992 23.112,49.868 C22.9359991,50.0360008 22.7040014,50.12 22.416,50.12 C22.1119985,50.12 21.8720009,50.0360008 21.696,49.868 C21.5199991,49.6999992 21.432,49.4640015 21.432,49.16 L21.432,42.704 C21.432,41.6639948 21.2200021,40.8960025 20.796,40.4 C20.3719979,39.9039975 19.6960046,39.656 18.768,39.656 C17.6959946,39.656 16.8400032,39.9839967 16.2,40.64 C15.5599968,41.2960033 15.24,42.1839944 15.24,43.304 L15.24,49.16 C15.24,49.4640015 15.1560008,49.6999992 14.988,49.868 C14.8199992,50.0360008 14.5840015,50.12 14.28,50.12 C13.9759985,50.12 13.7360009,50.0360008 13.56,49.868 C13.3839991,49.6999992 13.296,49.4640015 13.296,49.16 L13.296,33.896 C13.296,33.6239986 13.3879991,33.4000009 13.572,33.224 C13.7560009,33.0479991 13.9919986,32.96 14.28,32.96 C14.5840015,32.96 14.8199992,33.0439992 14.988,33.212 C15.1560008,33.3800008 15.24,33.6079986 15.24,33.896 L15.24,40.184 C15.6240019,39.4799965 16.1599966,38.9440018 16.848,38.576 C17.5360034,38.2079982 18.3199956,38.024 19.2,38.024 Z M30.704,38.024 C33.6320146,38.024 35.096,39.5599846 35.096,42.632 L35.096,49.16 C35.096,49.4480014 35.0120008,49.6799991 34.844,49.856 C34.6759992,50.0320009 34.4480014,50.12 34.16,50.12 C33.8719986,50.12 33.6400009,50.0320009 33.464,49.856 C33.2879991,49.6799991 33.2,49.4480014 33.2,49.16 L33.2,48.008 C32.8959985,48.6960034 32.4320031,49.2279981 31.808,49.604 C31.1839969,49.9800019 30.4640041,50.168 29.648,50.168 C28.8959962,50.168 28.2040032,50.0160015 27.572,49.712 C26.9399968,49.4079985 26.4400018,48.9840027 26.072,48.44 C25.7039982,47.8959973 25.52,47.2960033 25.52,46.64 C25.52,45.7599956 25.7439978,45.0760024 26.192,44.588 C26.6400022,44.0999976 27.3759949,43.7480011 28.4,43.532 C29.4240051,43.3159989 30.8479909,43.208 32.672,43.208 L33.2,43.208 L33.2,42.416 C33.2,41.4559952 33.004002,40.7520022 32.612,40.304 C32.219998,39.8559978 31.5840044,39.632 30.704,39.632 C29.6159946,39.632 28.5120056,39.927997 27.392,40.52 C26.9599978,40.7920014 26.6560009,40.928 26.48,40.928 C26.287999,40.928 26.1280006,40.8560007 26,40.712 C25.8719994,40.5679993 25.808,40.3840011 25.808,40.16 C25.808,39.9359989 25.8759993,39.7400008 26.012,39.572 C26.1480007,39.4039992 26.3679985,39.2320009 26.672,39.056 C27.2320028,38.7359984 27.8679964,38.4840009 28.58,38.3 C29.2920036,38.1159991 29.9999965,38.024 30.704,38.024 Z M29.912,48.632 C30.8720048,48.632 31.6599969,48.3080032 32.276,47.66 C32.8920031,47.0119968 33.2,46.1760051 33.2,45.152 L33.2,44.456 L32.768,44.456 C31.359993,44.456 30.2880037,44.5159994 29.552,44.636 C28.8159963,44.7560006 28.2920016,44.9559986 27.98,45.236 C27.6679984,45.5160014 27.512,45.9279973 27.512,46.472 C27.512,47.0960031 27.7399977,47.611998 28.196,48.02 C28.6520023,48.428002 29.2239966,48.632 29.912,48.632 Z M43.528,38.024 C46.328014,38.024 47.728,39.5679846 47.728,42.656 L47.728,49.16 C47.728,49.4640015 47.6440008,49.6999992 47.476,49.868 C47.3079992,50.0360008 47.0720015,50.12 46.768,50.12 C46.4639985,50.12 46.2240009,50.0360008 46.048,49.868 C45.8719991,49.6999992 45.784,49.4640015 45.784,49.16 L45.784,42.776 C45.784,41.6879946 45.5720021,40.8960025 45.148,40.4 C44.7239979,39.9039975 44.0480046,39.656 43.12,39.656 C42.0479946,39.656 41.1920032,39.9839967 40.552,40.64 C39.9119968,41.2960033 39.592,42.1839944 39.592,43.304 L39.592,49.16 C39.592,49.4640015 39.5080008,49.6999992 39.34,49.868 C39.1719992,50.0360008 38.9360015,50.12 38.632,50.12 C38.3279985,50.12 38.0880009,50.0360008 37.912,49.868 C37.7359991,49.6999992 37.648,49.4640015 37.648,49.16 L37.648,39.032 C37.648,38.7439986 37.7359991,38.5120009 37.912,38.336 C38.0880009,38.1599991 38.3279985,38.072 38.632,38.072 C38.9200014,38.072 39.1479992,38.1599991 39.316,38.336 C39.4840008,38.5120009 39.568,38.7359986 39.568,39.008 L39.568,40.232 C39.9520019,39.5119964 40.4879966,38.9640019 41.176,38.588 C41.8640034,38.2119981 42.6479956,38.024 43.528,38.024 Z M59.76,38.072 C60.0640015,38.072 60.3039991,38.1599991 60.48,38.336 C60.6560009,38.5120009 60.744,38.7439986 60.744,39.032 L60.744,49.208 C60.744,50.9520087 60.2960045,52.2679956 59.4,53.156 C58.5039955,54.0440044 57.1760088,54.488 55.416,54.488 C53.7039914,54.488 52.2800057,54.1520034 51.144,53.48 C50.5679971,53.1599984 50.28,52.7920021 50.28,52.376 C50.28,52.1519989 50.3399994,51.9680007 50.46,51.824 C50.5800006,51.6799993 50.735999,51.608 50.928,51.608 C51.0880008,51.608 51.3759979,51.7199989 51.792,51.944 C52.3520028,52.2320014 52.9039973,52.4639991 53.448,52.64 C53.9920027,52.8160009 54.6399962,52.904 55.392,52.904 C56.5280057,52.904 57.3839971,52.604003 57.96,52.004 C58.5360029,51.403997 58.824,50.5280058 58.824,49.376 L58.824,47.312 C58.4879983,48.0640038 57.9720035,48.639998 57.276,49.04 C56.5799965,49.440002 55.7600047,49.64 54.816,49.64 C53.7919949,49.64 52.884004,49.4000024 52.092,48.92 C51.299996,48.4399976 50.6840022,47.7600044 50.244,46.88 C49.8039978,45.9999956 49.584,44.9840058 49.584,43.832 C49.584,42.6799942 49.8039978,41.6640044 50.244,40.784 C50.6840022,39.9039956 51.299996,39.2240024 52.092,38.744 C52.884004,38.2639976 53.7919949,38.024 54.816,38.024 C55.7440046,38.024 56.5519966,38.223998 57.24,38.624 C57.9280034,39.024002 58.4479982,39.5919963 58.8,40.328 L58.8,39.032 C58.8,38.7439986 58.8839992,38.5120009 59.052,38.336 C59.2200008,38.1599991 59.4559985,38.072 59.76,38.072 Z M55.2,48.032 C56.3200056,48.032 57.1999968,47.6600037 57.84,46.916 C58.4800032,46.1719963 58.8,45.1440066 58.8,43.832 C58.8,42.5359935 58.4840032,41.5160037 57.852,40.772 C57.2199968,40.0279963 56.3360057,39.656 55.2,39.656 C54.0639943,39.656 53.1720032,40.0279963 52.524,40.772 C51.8759968,41.5160037 51.552,42.5359935 51.552,43.832 C51.552,45.1440066 51.8759968,46.1719963 52.524,46.916 C53.1720032,47.6600037 54.0639943,48.032 55.2,48.032 Z M72.392,47.288 C72.5680009,47.288 72.7199994,47.3599993 72.848,47.504 C72.9760006,47.6480007 73.04,47.8319989 73.04,48.056 C73.04,48.456002 72.7600028,48.8239983 72.2,49.16 C71.6239971,49.4960017 71.0160032,49.7479992 70.376,49.916 C69.7359968,50.0840008 69.112003,50.168 68.504,50.168 C66.695991,50.168 65.2680052,49.6320054 64.22,48.56 C63.1719948,47.4879946 62.648,46.0080094 62.648,44.12 C62.648,42.919994 62.8799977,41.8600046 63.344,40.94 C63.8080023,40.0199954 64.4599958,39.3040026 65.3,38.792 C66.1400042,38.2799974 67.0959946,38.024 68.168,38.024 C69.6880076,38.024 70.8959955,38.519995 71.792,39.512 C72.6880045,40.504005 73.136,41.8479915 73.136,43.544 C73.136,43.8640016 73.0720006,44.0959993 72.944,44.24 C72.8159994,44.3840007 72.6080014,44.456 72.32,44.456 L64.592,44.456 C64.7360007,47.2080138 66.0399877,48.584 68.504,48.584 C69.1280031,48.584 69.6639978,48.5000008 70.112,48.332 C70.5600022,48.1639992 71.0399974,47.9360014 71.552,47.648 C71.9680021,47.4079988 72.2479993,47.288 72.392,47.288 Z M68.192,39.536 C67.1679949,39.536 66.3480031,39.8559968 65.732,40.496 C65.1159969,41.1360032 64.7520006,42.0399942 64.64,43.208 L71.432,43.208 C71.3999998,42.0239941 71.1040028,41.1160032 70.544,40.484 C69.9839972,39.8519968 69.200005,39.536 68.192,39.536 Z M85.032,50.168 C83.9279945,50.168 82.9560042,49.9200025 82.116,49.424 C81.2759958,48.9279975 80.6280023,48.2200046 80.172,47.3 C79.7159977,46.3799954 79.488,45.3120061 79.488,44.096 C79.488,42.8799939 79.7159977,41.8120046 80.172,40.892 C80.6280023,39.9719954 81.2759958,39.2640025 82.116,38.768 C82.9560042,38.2719975 83.9279945,38.024 85.032,38.024 C86.1360055,38.024 87.1119958,38.2719975 87.96,38.768 C88.8080042,39.2640025 89.4599977,39.9719954 89.916,40.892 C90.3720023,41.8120046 90.6,42.8799939 90.6,44.096 C90.6,45.3120061 90.3720023,46.3799954 89.916,47.3 C89.4599977,48.2200046 88.8080042,48.9279975 87.96,49.424 C87.1119958,49.9200025 86.1360055,50.168 85.032,50.168 Z M85.032,48.56 C86.1840058,48.56 87.0679969,48.1800038 87.684,47.42 C88.3000031,46.6599962 88.608,45.5520073 88.608,44.096 C88.608,42.6719929 88.2960031,41.5720039 87.672,40.796 C87.0479969,40.0199961 86.1680057,39.632 85.032,39.632 C83.8959943,39.632 83.0160031,40.0199961 82.392,40.796 C81.7679969,41.5720039 81.456,42.6719929 81.456,44.096 C81.456,45.5360072 81.7639969,46.6399962 82.38,47.408 C82.9960031,48.1760038 83.8799942,48.56 85.032,48.56 Z M98.288,38.072 C98.9600034,38.0239998 99.296,38.295997 99.296,38.888 C99.296,39.1440013 99.2240007,39.3479992 99.08,39.5 C98.9359993,39.6520008 98.6880018,39.7439998 98.336,39.776 L97.616,39.848 C96.5439946,39.9440005 95.7480026,40.3239967 95.228,40.988 C94.7079974,41.6520033 94.448,42.4319955 94.448,43.328 L94.448,49.16 C94.448,49.4800016 94.3600009,49.7199992 94.184,49.88 C94.0079991,50.0400008 93.7760014,50.12 93.488,50.12 C93.1999986,50.12 92.9640009,50.0360008 92.78,49.868 C92.5959991,49.6999992 92.504,49.4640015 92.504,49.16 L92.504,39.032 C92.504,38.7279985 92.599999,38.4920008 92.792,38.324 C92.984001,38.1559992 93.2159986,38.072 93.488,38.072 C93.7440013,38.072 93.9599991,38.1559992 94.136,38.324 C94.3120009,38.4920008 94.4,38.7199986 94.4,39.008 L94.4,40.352 C94.7360017,39.6479965 95.2119969,39.1120018 95.828,38.744 C96.4440031,38.3759982 97.151996,38.1600003 97.952,38.096 L98.288,38.072 Z M109.12,32.96 C109.424002,32.96 109.663999,33.0479991 109.84,33.224 C110.016001,33.4000009 110.104,33.6239986 110.104,33.896 L110.104,49.16 C110.104,49.4480014 110.016001,49.6799991 109.84,49.856 C109.663999,50.0320009 109.424002,50.12 109.12,50.12 C108.815998,50.12 108.580001,50.0320009 108.412,49.856 C108.243999,49.6799991 108.16,49.4480014 108.16,49.16 L108.16,47.864 C107.807998,48.6000037 107.292003,49.167998 106.612,49.568 C105.931997,49.968002 105.136005,50.168 104.224,50.168 C103.199995,50.168 102.296004,49.9120026 101.512,49.4 C100.727996,48.8879974 100.120002,48.1720046 99.688,47.252 C99.2559978,46.3319954 99.04,45.2640061 99.04,44.048 C99.04,42.847994 99.2559978,41.7920046 99.688,40.88 C100.120002,39.9679954 100.727996,39.2640025 101.512,38.768 C102.296004,38.2719975 103.199995,38.024 104.224,38.024 C105.136005,38.024 105.931997,38.223998 106.612,38.624 C107.292003,39.024002 107.807998,39.5919963 108.16,40.328 L108.16,33.896 C108.16,33.6079986 108.243999,33.3800008 108.412,33.212 C108.580001,33.0439992 108.815998,32.96 109.12,32.96 Z M104.608,48.56 C105.744006,48.56 106.619997,48.1720039 107.236,47.396 C107.852003,46.6199961 108.16,45.5200071 108.16,44.096 C108.16,42.6719929 107.852003,41.5760038 107.236,40.808 C106.619997,40.0399962 105.744006,39.656 104.608,39.656 C103.471994,39.656 102.588003,40.0399962 101.956,40.808 C101.323997,41.5760038 101.008,42.655993 101.008,44.048 C101.008,45.4720071 101.323997,46.579996 101.956,47.372 C102.588003,48.164004 103.471994,48.56 104.608,48.56 Z M121.752,47.288 C121.928001,47.288 122.079999,47.3599993 122.208,47.504 C122.336001,47.6480007 122.4,47.8319989 122.4,48.056 C122.4,48.456002 122.120003,48.8239983 121.56,49.16 C120.983997,49.4960017 120.376003,49.7479992 119.736,49.916 C119.095997,50.0840008 118.472003,50.168 117.864,50.168 C116.055991,50.168 114.628005,49.6320054 113.58,48.56 C112.531995,47.4879946 112.008,46.0080094 112.008,44.12 C112.008,42.919994 112.239998,41.8600046 112.704,40.94 C113.168002,40.0199954 113.819996,39.3040026 114.66,38.792 C115.500004,38.2799974 116.455995,38.024 117.528,38.024 C119.048008,38.024 120.255996,38.519995 121.152,39.512 C122.048004,40.504005 122.496,41.8479915 122.496,43.544 C122.496,43.8640016 122.432001,44.0959993 122.304,44.24 C122.175999,44.3840007 121.968001,44.456 121.68,44.456 L113.952,44.456 C114.096001,47.2080138 115.399988,48.584 117.864,48.584 C118.488003,48.584 119.023998,48.5000008 119.472,48.332 C119.920002,48.1639992 120.399997,47.9360014 120.912,47.648 C121.328002,47.4079988 121.607999,47.288 121.752,47.288 Z M117.552,39.536 C116.527995,39.536 115.708003,39.8559968 115.092,40.496 C114.475997,41.1360032 114.112001,42.0399942 114,43.208 L120.792,43.208 C120.76,42.0239941 120.464003,41.1160032 119.904,40.484 C119.343997,39.8519968 118.560005,39.536 117.552,39.536 Z M130.136,38.072 C130.808003,38.0239998 131.144,38.295997 131.144,38.888 C131.144,39.1440013 131.072001,39.3479992 130.928,39.5 C130.783999,39.6520008 130.536002,39.7439998 130.184,39.776 L129.464,39.848 C128.391995,39.9440005 127.596003,40.3239967 127.076,40.988 C126.555997,41.6520033 126.296,42.4319955 126.296,43.328 L126.296,49.16 C126.296,49.4800016 126.208001,49.7199992 126.032,49.88 C125.855999,50.0400008 125.624001,50.12 125.336,50.12 C125.047999,50.12 124.812001,50.0360008 124.628,49.868 C124.443999,49.6999992 124.352,49.4640015 124.352,49.16 L124.352,39.032 C124.352,38.7279985 124.447999,38.4920008 124.64,38.324 C124.832001,38.1559992 125.063999,38.072 125.336,38.072 C125.592001,38.072 125.807999,38.1559992 125.984,38.324 C126.160001,38.4920008 126.248,38.7199986 126.248,39.008 L126.248,40.352 C126.584002,39.6479965 127.059997,39.1120018 127.676,38.744 C128.292003,38.3759982 128.999996,38.1600003 129.8,38.096 L130.136,38.072 Z M135.64,50.168 C134.903996,50.168 134.204003,50.0800009 133.54,49.904 C132.875997,49.7279991 132.288003,49.4800016 131.776,49.16 C131.487999,48.967999 131.284001,48.7880008 131.164,48.62 C131.043999,48.4519992 130.984,48.2480012 130.984,48.008 C130.984,47.799999 131.043999,47.6280007 131.164,47.492 C131.284001,47.3559993 131.439999,47.288 131.632,47.288 C131.824001,47.288 132.103998,47.4079988 132.472,47.648 C132.952002,47.9360014 133.427998,48.1639992 133.9,48.332 C134.372002,48.5000008 134.959996,48.584 135.664,48.584 C136.528004,48.584 137.199998,48.4320015 137.68,48.128 C138.160002,47.8239985 138.4,47.3840029 138.4,46.808 C138.4,46.4559982 138.312001,46.1720011 138.136,45.956 C137.959999,45.7399989 137.656002,45.5480008 137.224,45.38 C136.791998,45.2119992 136.160004,45.0400009 135.328,44.864 C133.919993,44.5599985 132.912003,44.1520026 132.304,43.64 C131.695997,43.1279974 131.392,42.4320044 131.392,41.552 C131.392,40.8639966 131.583998,40.2560026 131.968,39.728 C132.352002,39.1999974 132.883997,38.7840015 133.564,38.48 C134.244003,38.1759985 135.015996,38.024 135.88,38.024 C136.504003,38.024 137.107997,38.1079992 137.692,38.276 C138.276003,38.4440008 138.791998,38.6799985 139.24,38.984 C139.784003,39.3680019 140.056,39.7679979 140.056,40.184 C140.056,40.392001 139.992001,40.5679993 139.864,40.712 C139.735999,40.8560007 139.584001,40.928 139.408,40.928 C139.215999,40.928 138.928002,40.7920014 138.544,40.52 C138.095998,40.2319986 137.672002,40.0080008 137.272,39.848 C136.871998,39.6879992 136.376003,39.608 135.784,39.608 C135.031996,39.608 134.428002,39.7759983 133.972,40.112 C133.515998,40.4480017 133.288,40.8959972 133.288,41.456 C133.288,41.8080018 133.371999,42.0919989 133.54,42.308 C133.708001,42.5240011 133.987998,42.7159992 134.38,42.884 C134.772002,43.0520008 135.335996,43.2159992 136.072,43.376 C137.160005,43.6160012 138.003997,43.8799986 138.604,44.168 C139.204003,44.4560014 139.631999,44.8079979 139.888,45.224 C140.144001,45.6400021 140.272,46.1679968 140.272,46.808 C140.272,47.816005 139.848004,48.6279969 139,49.244 C138.151996,49.8600031 137.032007,50.168 135.64,50.168 Z M152.192,38.024 C155.120015,38.024 156.584,39.5599846 156.584,42.632 L156.584,49.16 C156.584,49.4480014 156.500001,49.6799991 156.332,49.856 C156.163999,50.0320009 155.936001,50.12 155.648,50.12 C155.359999,50.12 155.128001,50.0320009 154.952,49.856 C154.775999,49.6799991 154.688,49.4480014 154.688,49.16 L154.688,48.008 C154.383998,48.6960034 153.920003,49.2279981 153.296,49.604 C152.671997,49.9800019 151.952004,50.168 151.136,50.168 C150.383996,50.168 149.692003,50.0160015 149.06,49.712 C148.427997,49.4079985 147.928002,48.9840027 147.56,48.44 C147.191998,47.8959973 147.008,47.2960033 147.008,46.64 C147.008,45.7599956 147.231998,45.0760024 147.68,44.588 C148.128002,44.0999976 148.863995,43.7480011 149.888,43.532 C150.912005,43.3159989 152.335991,43.208 154.16,43.208 L154.688,43.208 L154.688,42.416 C154.688,41.4559952 154.492002,40.7520022 154.1,40.304 C153.707998,39.8559978 153.072004,39.632 152.192,39.632 C151.103995,39.632 150.000006,39.927997 148.88,40.52 C148.447998,40.7920014 148.144001,40.928 147.968,40.928 C147.775999,40.928 147.616001,40.8560007 147.488,40.712 C147.359999,40.5679993 147.296,40.3840011 147.296,40.16 C147.296,39.9359989 147.363999,39.7400008 147.5,39.572 C147.636001,39.4039992 147.855998,39.2320009 148.16,39.056 C148.720003,38.7359984 149.355996,38.4840009 150.068,38.3 C150.780004,38.1159991 151.487996,38.024 152.192,38.024 Z M151.4,48.632 C152.360005,48.632 153.147997,48.3080032 153.764,47.66 C154.380003,47.0119968 154.688,46.1760051 154.688,45.152 L154.688,44.456 L154.256,44.456 C152.847993,44.456 151.776004,44.5159994 151.04,44.636 C150.303996,44.7560006 149.780002,44.9559986 149.468,45.236 C149.155998,45.5160014 149,45.9279973 149,46.472 C149,47.0960031 149.227998,47.611998 149.684,48.02 C150.140002,48.428002 150.711997,48.632 151.4,48.632 Z M165.016,38.024 C167.816014,38.024 169.216,39.5679846 169.216,42.656 L169.216,49.16 C169.216,49.4640015 169.132001,49.6999992 168.964,49.868 C168.795999,50.0360008 168.560002,50.12 168.256,50.12 C167.951998,50.12 167.712001,50.0360008 167.536,49.868 C167.359999,49.6999992 167.272,49.4640015 167.272,49.16 L167.272,42.776 C167.272,41.6879946 167.060002,40.8960025 166.636,40.4 C166.211998,39.9039975 165.536005,39.656 164.608,39.656 C163.535995,39.656 162.680003,39.9839967 162.04,40.64 C161.399997,41.2960033 161.08,42.1839944 161.08,43.304 L161.08,49.16 C161.08,49.4640015 160.996001,49.6999992 160.828,49.868 C160.659999,50.0360008 160.424002,50.12 160.12,50.12 C159.815998,50.12 159.576001,50.0360008 159.4,49.868 C159.223999,49.6999992 159.136,49.4640015 159.136,49.16 L159.136,39.032 C159.136,38.7439986 159.223999,38.5120009 159.4,38.336 C159.576001,38.1599991 159.815998,38.072 160.12,38.072 C160.408001,38.072 160.635999,38.1599991 160.804,38.336 C160.972001,38.5120009 161.056,38.7359986 161.056,39.008 L161.056,40.232 C161.440002,39.5119964 161.975997,38.9640019 162.664,38.588 C163.352003,38.2119981 164.135996,38.024 165.016,38.024 Z M181.152,32.96 C181.456002,32.96 181.695999,33.0479991 181.872,33.224 C182.048001,33.4000009 182.136,33.6239986 182.136,33.896 L182.136,49.16 C182.136,49.4480014 182.048001,49.6799991 181.872,49.856 C181.695999,50.0320009 181.456002,50.12 181.152,50.12 C180.847998,50.12 180.612001,50.0320009 180.444,49.856 C180.275999,49.6799991 180.192,49.4480014 180.192,49.16 L180.192,47.864 C179.839998,48.6000037 179.324003,49.167998 178.644,49.568 C177.963997,49.968002 177.168005,50.168 176.256,50.168 C175.231995,50.168 174.328004,49.9120026 173.544,49.4 C172.759996,48.8879974 172.152002,48.1720046 171.72,47.252 C171.287998,46.3319954 171.072,45.2640061 171.072,44.048 C171.072,42.847994 171.287998,41.7920046 171.72,40.88 C172.152002,39.9679954 172.759996,39.2640025 173.544,38.768 C174.328004,38.2719975 175.231995,38.024 176.256,38.024 C177.168005,38.024 177.963997,38.223998 178.644,38.624 C179.324003,39.024002 179.839998,39.5919963 180.192,40.328 L180.192,33.896 C180.192,33.6079986 180.275999,33.3800008 180.444,33.212 C180.612001,33.0439992 180.847998,32.96 181.152,32.96 Z M176.64,48.56 C177.776006,48.56 178.651997,48.1720039 179.268,47.396 C179.884003,46.6199961 180.192,45.5200071 180.192,44.096 C180.192,42.6719929 179.884003,41.5760038 179.268,40.808 C178.651997,40.0399962 177.776006,39.656 176.64,39.656 C175.503994,39.656 174.620003,40.0399962 173.988,40.808 C173.355997,41.5760038 173.04,42.655993 173.04,44.048 C173.04,45.4720071 173.355997,46.579996 173.988,47.372 C174.620003,48.164004 175.503994,48.56 176.64,48.56 Z M7.624,82.168 C6.53599456,82.168 5.5720042,81.9200025 4.732,81.424 C3.8919958,80.9279975 3.24400228,80.2240046 2.788,79.312 C2.33199772,78.3999954 2.104,77.344006 2.104,76.144 C2.104,74.943994 2.33999764,73.8800046 2.812,72.952 C3.28400236,72.0239954 3.94399576,71.3040026 4.792,70.792 C5.64000424,70.2799974 6.61599448,70.024 7.72,70.024 C8.32800304,70.024 8.931997,70.1079992 9.532,70.276 C10.132003,70.4440008 10.6559978,70.6879984 11.104,71.008 C11.3920014,71.200001 11.5959994,71.3879991 11.716,71.572 C11.8360006,71.7560009 11.896,71.9599989 11.896,72.184 C11.896,72.4080011 11.8360006,72.5919993 11.716,72.736 C11.5959994,72.8800007 11.440001,72.952 11.248,72.952 C11.1359994,72.952 11.0160006,72.9200003 10.888,72.856 C10.7599994,72.7919997 10.6520004,72.7280003 10.564,72.664 C10.4759996,72.5999997 10.4160002,72.5600001 10.384,72.544 C9.96799792,72.2719986 9.57200188,72.0560008 9.196,71.896 C8.81999812,71.7359992 8.36000272,71.656 7.816,71.656 C6.64799416,71.656 5.74000324,72.051996 5.092,72.844 C4.44399676,73.636004 4.12,74.735993 4.12,76.144 C4.12,77.552007 4.44399676,78.6399962 5.092,79.408 C5.74000324,80.1760038 6.64799416,80.56 7.816,80.56 C8.36000272,80.56 8.82799804,80.4800008 9.22,80.32 C9.61200196,80.1599992 10.007998,79.9440014 10.408,79.672 C10.5840009,79.5599994 10.7519992,79.4640004 10.912,79.384 C11.0720008,79.3039996 11.2079994,79.264 11.32,79.264 C11.4960009,79.264 11.6439994,79.3359993 11.764,79.48 C11.8840006,79.6240007 11.944,79.8079989 11.944,80.032 C11.944,80.240001 11.8880006,80.4279992 11.776,80.596 C11.6639994,80.7640008 11.4560015,80.951999 11.152,81.16 C10.7039978,81.4640015 10.1640032,81.7079991 9.532,81.892 C8.89999684,82.0760009 8.2640032,82.168 7.624,82.168 Z M18.144,82.168 C17.0399945,82.168 16.0680042,81.9200025 15.228,81.424 C14.3879958,80.9279975 13.7400023,80.2200046 13.284,79.3 C12.8279977,78.3799954 12.6,77.3120061 12.6,76.096 C12.6,74.8799939 12.8279977,73.8120046 13.284,72.892 C13.7400023,71.9719954 14.3879958,71.2640025 15.228,70.768 C16.0680042,70.2719975 17.0399945,70.024 18.144,70.024 C19.2480055,70.024 20.2239958,70.2719975 21.072,70.768 C21.9200042,71.2640025 22.5719977,71.9719954 23.028,72.892 C23.4840023,73.8120046 23.712,74.8799939 23.712,76.096 C23.712,77.3120061 23.4840023,78.3799954 23.028,79.3 C22.5719977,80.2200046 21.9200042,80.9279975 21.072,81.424 C20.2239958,81.9200025 19.2480055,82.168 18.144,82.168 Z M18.144,80.56 C19.2960058,80.56 20.1799969,80.1800038 20.796,79.42 C21.4120031,78.6599962 21.72,77.5520073 21.72,76.096 C21.72,74.6719929 21.4080031,73.5720039 20.784,72.796 C20.1599969,72.0199961 19.2800057,71.632 18.144,71.632 C17.0079943,71.632 16.1280031,72.0199961 15.504,72.796 C14.8799969,73.5720039 14.568,74.6719929 14.568,76.096 C14.568,77.5360072 14.8759969,78.6399962 15.492,79.408 C16.1080031,80.1760038 16.9919942,80.56 18.144,80.56 Z M26.6,82.12 C26.3119986,82.12 26.0760009,82.0360008 25.892,81.868 C25.7079991,81.6999992 25.616,81.4640015 25.616,81.16 L25.616,65.92 C25.616,65.6159985 25.7079991,65.3800008 25.892,65.212 C26.0760009,65.0439992 26.3119986,64.96 26.6,64.96 C26.8720014,64.96 27.0999991,65.0439992 27.284,65.212 C27.4680009,65.3800008 27.56,65.6159985 27.56,65.92 L27.56,81.16 C27.56,81.4640015 27.4680009,81.6999992 27.284,81.868 C27.0999991,82.0360008 26.8720014,82.12 26.6,82.12 Z M35.032,82.168 C33.9279945,82.168 32.9560042,81.9200025 32.116,81.424 C31.2759958,80.9279975 30.6280023,80.2200046 30.172,79.3 C29.7159977,78.3799954 29.488,77.3120061 29.488,76.096 C29.488,74.8799939 29.7159977,73.8120046 30.172,72.892 C30.6280023,71.9719954 31.2759958,71.2640025 32.116,70.768 C32.9560042,70.2719975 33.9279945,70.024 35.032,70.024 C36.1360055,70.024 37.1119958,70.2719975 37.96,70.768 C38.8080042,71.2640025 39.4599977,71.9719954 39.916,72.892 C40.3720023,73.8120046 40.6,74.8799939 40.6,76.096 C40.6,77.3120061 40.3720023,78.3799954 39.916,79.3 C39.4599977,80.2200046 38.8080042,80.9279975 37.96,81.424 C37.1119958,81.9200025 36.1360055,82.168 35.032,82.168 Z M35.032,80.56 C36.1840058,80.56 37.0679969,80.1800038 37.684,79.42 C38.3000031,78.6599962 38.608,77.5520073 38.608,76.096 C38.608,74.6719929 38.2960031,73.5720039 37.672,72.796 C37.0479969,72.0199961 36.1680057,71.632 35.032,71.632 C33.8959943,71.632 33.0160031,72.0199961 32.392,72.796 C31.7679969,73.5720039 31.456,74.6719929 31.456,76.096 C31.456,77.5360072 31.7639969,78.6399962 32.38,79.408 C32.9960031,80.1760038 33.8799942,80.56 35.032,80.56 Z M48.288,70.072 C48.9600034,70.0239998 49.296,70.295997 49.296,70.888 C49.296,71.1440013 49.2240007,71.3479992 49.08,71.5 C48.9359993,71.6520008 48.6880018,71.7439998 48.336,71.776 L47.616,71.848 C46.5439946,71.9440005 45.7480026,72.3239967 45.228,72.988 C44.7079974,73.6520033 44.448,74.4319955 44.448,75.328 L44.448,81.16 C44.448,81.4800016 44.3600009,81.7199992 44.184,81.88 C44.0079991,82.0400008 43.7760014,82.12 43.488,82.12 C43.1999986,82.12 42.9640009,82.0360008 42.78,81.868 C42.5959991,81.6999992 42.504,81.4640015 42.504,81.16 L42.504,71.032 C42.504,70.7279985 42.599999,70.4920008 42.792,70.324 C42.984001,70.1559992 43.2159986,70.072 43.488,70.072 C43.7440013,70.072 43.9599991,70.1559992 44.136,70.324 C44.3120009,70.4920008 44.4,70.7199986 44.4,71.008 L44.4,72.352 C44.7360017,71.6479965 45.2119969,71.1120018 45.828,70.744 C46.4440031,70.3759982 47.151996,70.1600003 47.952,70.096 L48.288,70.072 Z M59.992,82.168 C58.9039946,82.168 57.9400042,81.9200025 57.1,81.424 C56.2599958,80.9279975 55.6120023,80.2240046 55.156,79.312 C54.6999977,78.3999954 54.472,77.344006 54.472,76.144 C54.472,74.943994 54.7079976,73.8800046 55.18,72.952 C55.6520024,72.0239954 56.3119958,71.3040026 57.16,70.792 C58.0080042,70.2799974 58.9839945,70.024 60.088,70.024 C60.696003,70.024 61.299997,70.1079992 61.9,70.276 C62.500003,70.4440008 63.0239978,70.6879984 63.472,71.008 C63.7600014,71.200001 63.9639994,71.3879991 64.084,71.572 C64.2040006,71.7560009 64.264,71.9599989 64.264,72.184 C64.264,72.4080011 64.2040006,72.5919993 64.084,72.736 C63.9639994,72.8800007 63.808001,72.952 63.616,72.952 C63.5039994,72.952 63.3840006,72.9200003 63.256,72.856 C63.1279994,72.7919997 63.0200004,72.7280003 62.932,72.664 C62.8439996,72.5999997 62.7840002,72.5600001 62.752,72.544 C62.3359979,72.2719986 61.9400019,72.0560008 61.564,71.896 C61.1879981,71.7359992 60.7280027,71.656 60.184,71.656 C59.0159942,71.656 58.1080032,72.051996 57.46,72.844 C56.8119968,73.636004 56.488,74.735993 56.488,76.144 C56.488,77.552007 56.8119968,78.6399962 57.46,79.408 C58.1080032,80.1760038 59.0159942,80.56 60.184,80.56 C60.7280027,80.56 61.195998,80.4800008 61.588,80.32 C61.980002,80.1599992 62.375998,79.9440014 62.776,79.672 C62.9520009,79.5599994 63.1199992,79.4640004 63.28,79.384 C63.4400008,79.3039996 63.5759994,79.264 63.688,79.264 C63.8640009,79.264 64.0119994,79.3359993 64.132,79.48 C64.2520006,79.6240007 64.312,79.8079989 64.312,80.032 C64.312,80.240001 64.2560006,80.4279992 64.144,80.596 C64.0319994,80.7640008 63.8240015,80.951999 63.52,81.16 C63.0719978,81.4640015 62.5320032,81.7079991 61.9,81.892 C61.2679968,82.0760009 60.6320032,82.168 59.992,82.168 Z M70.512,82.168 C69.4079945,82.168 68.4360042,81.9200025 67.596,81.424 C66.7559958,80.9279975 66.1080023,80.2200046 65.652,79.3 C65.1959977,78.3799954 64.968,77.3120061 64.968,76.096 C64.968,74.8799939 65.1959977,73.8120046 65.652,72.892 C66.1080023,71.9719954 66.7559958,71.2640025 67.596,70.768 C68.4360042,70.2719975 69.4079945,70.024 70.512,70.024 C71.6160055,70.024 72.5919958,70.2719975 73.44,70.768 C74.2880042,71.2640025 74.9399977,71.9719954 75.396,72.892 C75.8520023,73.8120046 76.08,74.8799939 76.08,76.096 C76.08,77.3120061 75.8520023,78.3799954 75.396,79.3 C74.9399977,80.2200046 74.2880042,80.9279975 73.44,81.424 C72.5919958,81.9200025 71.6160055,82.168 70.512,82.168 Z M70.512,80.56 C71.6640058,80.56 72.5479969,80.1800038 73.164,79.42 C73.7800031,78.6599962 74.088,77.5520073 74.088,76.096 C74.088,74.6719929 73.7760031,73.5720039 73.152,72.796 C72.5279969,72.0199961 71.6480057,71.632 70.512,71.632 C69.3759943,71.632 68.4960031,72.0199961 67.872,72.796 C67.2479969,73.5720039 66.936,74.6719929 66.936,76.096 C66.936,77.5360072 67.2439969,78.6399962 67.86,79.408 C68.4760031,80.1760038 69.3599942,80.56 70.512,80.56 Z M87.368,64.96 C87.6720015,64.96 87.9119991,65.0479991 88.088,65.224 C88.2640009,65.4000009 88.352,65.6239986 88.352,65.896 L88.352,81.16 C88.352,81.4480014 88.2640009,81.6799991 88.088,81.856 C87.9119991,82.0320009 87.6720015,82.12 87.368,82.12 C87.0639985,82.12 86.8280008,82.0320009 86.66,81.856 C86.4919992,81.6799991 86.408,81.4480014 86.408,81.16 L86.408,79.864 C86.0559982,80.6000037 85.5400034,81.167998 84.86,81.568 C84.1799966,81.968002 83.3840046,82.168 82.472,82.168 C81.4479949,82.168 80.5440039,81.9120026 79.76,81.4 C78.9759961,80.8879974 78.3680022,80.1720046 77.936,79.252 C77.5039978,78.3319954 77.288,77.2640061 77.288,76.048 C77.288,74.847994 77.5039978,73.7920046 77.936,72.88 C78.3680022,71.9679954 78.9759961,71.2640025 79.76,70.768 C80.5440039,70.2719975 81.4479949,70.024 82.472,70.024 C83.3840046,70.024 84.1799966,70.223998 84.86,70.624 C85.5400034,71.024002 86.0559982,71.5919963 86.408,72.328 L86.408,65.896 C86.408,65.6079986 86.4919992,65.3800008 86.66,65.212 C86.8280008,65.0439992 87.0639985,64.96 87.368,64.96 Z M82.856,80.56 C83.9920057,80.56 84.8679969,80.1720039 85.484,79.396 C86.1000031,78.6199961 86.408,77.5200071 86.408,76.096 C86.408,74.6719929 86.1000031,73.5760038 85.484,72.808 C84.8679969,72.0399962 83.9920057,71.656 82.856,71.656 C81.7199943,71.656 80.8360032,72.0399962 80.204,72.808 C79.5719968,73.5760038 79.256,74.655993 79.256,76.048 C79.256,77.4720071 79.5719968,78.579996 80.204,79.372 C80.8360032,80.164004 81.7199943,80.56 82.856,80.56 Z M100,79.288 C100.176001,79.288 100.327999,79.3599993 100.456,79.504 C100.584001,79.6480007 100.648,79.8319989 100.648,80.056 C100.648,80.456002 100.368003,80.8239983 99.808,81.16 C99.2319971,81.4960017 98.6240032,81.7479992 97.984,81.916 C97.3439968,82.0840008 96.720003,82.168 96.112,82.168 C94.303991,82.168 92.8760052,81.6320054 91.828,80.56 C90.7799948,79.4879946 90.256,78.0080094 90.256,76.12 C90.256,74.919994 90.4879977,73.8600046 90.952,72.94 C91.4160023,72.0199954 92.0679958,71.3040026 92.908,70.792 C93.7480042,70.2799974 94.7039946,70.024 95.776,70.024 C97.2960076,70.024 98.5039955,70.519995 99.4,71.512 C100.296004,72.504005 100.744,73.8479915 100.744,75.544 C100.744,75.8640016 100.680001,76.0959993 100.552,76.24 C100.423999,76.3840007 100.216001,76.456 99.928,76.456 L92.2,76.456 C92.3440007,79.2080138 93.6479877,80.584 96.112,80.584 C96.7360031,80.584 97.2719978,80.5000008 97.72,80.332 C98.1680022,80.1639992 98.6479974,79.9360014 99.16,79.648 C99.5760021,79.4079988 99.8559993,79.288 100,79.288 Z M95.8,71.536 C94.7759949,71.536 93.9560031,71.8559968 93.34,72.496 C92.7239969,73.1360032 92.3600006,74.0399942 92.248,75.208 L99.04,75.208 C99.0079998,74.0239941 98.7120028,73.1160032 98.152,72.484 C97.5919972,71.8519968 96.808005,71.536 95.8,71.536 Z M106.536,82.168 C105.799996,82.168 105.100003,82.0800009 104.436,81.904 C103.771997,81.7279991 103.184003,81.4800016 102.672,81.16 C102.383999,80.967999 102.180001,80.7880008 102.06,80.62 C101.939999,80.4519992 101.88,80.2480012 101.88,80.008 C101.88,79.799999 101.939999,79.6280007 102.06,79.492 C102.180001,79.3559993 102.335999,79.288 102.528,79.288 C102.720001,79.288 102.999998,79.4079988 103.368,79.648 C103.848002,79.9360014 104.323998,80.1639992 104.796,80.332 C105.268002,80.5000008 105.855996,80.584 106.56,80.584 C107.424004,80.584 108.095998,80.4320015 108.576,80.128 C109.056002,79.8239985 109.296,79.3840029 109.296,78.808 C109.296,78.4559982 109.208001,78.1720011 109.032,77.956 C108.855999,77.7399989 108.552002,77.5480008 108.12,77.38 C107.687998,77.2119992 107.056004,77.0400009 106.224,76.864 C104.815993,76.5599985 103.808003,76.1520026 103.2,75.64 C102.591997,75.1279974 102.288,74.4320044 102.288,73.552 C102.288,72.8639966 102.479998,72.2560026 102.864,71.728 C103.248002,71.1999974 103.779997,70.7840015 104.46,70.48 C105.140003,70.1759985 105.911996,70.024 106.776,70.024 C107.400003,70.024 108.003997,70.1079992 108.588,70.276 C109.172003,70.4440008 109.687998,70.6799985 110.136,70.984 C110.680003,71.3680019 110.952,71.7679979 110.952,72.184 C110.952,72.392001 110.888001,72.5679993 110.76,72.712 C110.631999,72.8560007 110.480001,72.928 110.304,72.928 C110.111999,72.928 109.824002,72.7920014 109.44,72.52 C108.991998,72.2319986 108.568002,72.0080008 108.168,71.848 C107.767998,71.6879992 107.272003,71.608 106.68,71.608 C105.927996,71.608 105.324002,71.7759983 104.868,72.112 C104.411998,72.4480017 104.184,72.8959972 104.184,73.456 C104.184,73.8080018 104.267999,74.0919989 104.436,74.308 C104.604001,74.5240011 104.883998,74.7159992 105.276,74.884 C105.668002,75.0520008 106.231996,75.2159992 106.968,75.376 C108.056005,75.6160012 108.899997,75.8799986 109.5,76.168 C110.100003,76.4560014 110.527999,76.8079979 110.784,77.224 C111.040001,77.6400021 111.168,78.1679968 111.168,78.808 C111.168,79.816005 110.744004,80.6279969 109.896,81.244 C109.047996,81.8600031 107.928007,82.168 106.536,82.168 Z M127.696,64.96 C128.000002,64.96 128.239999,65.0479991 128.416,65.224 C128.592001,65.4000009 128.68,65.6239986 128.68,65.896 L128.68,81.16 C128.68,81.4480014 128.592001,81.6799991 128.416,81.856 C128.239999,82.0320009 128.000002,82.12 127.696,82.12 C127.391998,82.12 127.156001,82.0320009 126.988,81.856 C126.819999,81.6799991 126.736,81.4480014 126.736,81.16 L126.736,79.864 C126.383998,80.6000037 125.868003,81.167998 125.188,81.568 C124.507997,81.968002 123.712005,82.168 122.8,82.168 C121.775995,82.168 120.872004,81.9120026 120.088,81.4 C119.303996,80.8879974 118.696002,80.1720046 118.264,79.252 C117.831998,78.3319954 117.616,77.2640061 117.616,76.048 C117.616,74.847994 117.831998,73.7920046 118.264,72.88 C118.696002,71.9679954 119.303996,71.2640025 120.088,70.768 C120.872004,70.2719975 121.775995,70.024 122.8,70.024 C123.712005,70.024 124.507997,70.223998 125.188,70.624 C125.868003,71.024002 126.383998,71.5919963 126.736,72.328 L126.736,65.896 C126.736,65.6079986 126.819999,65.3800008 126.988,65.212 C127.156001,65.0439992 127.391998,64.96 127.696,64.96 Z M123.184,80.56 C124.320006,80.56 125.195997,80.1720039 125.812,79.396 C126.428003,78.6199961 126.736,77.5200071 126.736,76.096 C126.736,74.6719929 126.428003,73.5760038 125.812,72.808 C125.195997,72.0399962 124.320006,71.656 123.184,71.656 C122.047994,71.656 121.164003,72.0399962 120.532,72.808 C119.899997,73.5760038 119.584,74.655993 119.584,76.048 C119.584,77.4720071 119.899997,78.579996 120.532,79.372 C121.164003,80.164004 122.047994,80.56 123.184,80.56 Z M132.264,82.12 C131.975999,82.12 131.740001,82.0360008 131.556,81.868 C131.371999,81.6999992 131.28,81.4640015 131.28,81.16 L131.28,71.032 C131.28,70.7279985 131.371999,70.4920008 131.556,70.324 C131.740001,70.1559992 131.975999,70.072 132.264,70.072 C132.552001,70.072 132.783999,70.1559992 132.96,70.324 C133.136001,70.4920008 133.224,70.7279985 133.224,71.032 L133.224,81.16 C133.224,81.4800016 133.136001,81.7199992 132.96,81.88 C132.783999,82.0400008 132.552001,82.12 132.264,82.12 Z M132.264,67.552 C131.879998,67.552 131.568001,67.4400011 131.328,67.216 C131.087999,66.9919989 130.968,66.6960018 130.968,66.328 C130.968,65.9759982 131.087999,65.6880011 131.328,65.464 C131.568001,65.2399989 131.879998,65.128 132.264,65.128 C132.648002,65.128 132.959999,65.2399989 133.2,65.464 C133.440001,65.6880011 133.56,65.9759982 133.56,66.328 C133.56,66.6960018 133.440001,66.9919989 133.2,67.216 C132.959999,67.4400011 132.648002,67.552 132.264,67.552 Z M141.008,66.616 C140.159996,66.6800003 139.520002,66.9479976 139.088,67.42 C138.655998,67.8920024 138.44,68.5999953 138.44,69.544 L138.44,70.312 L141.104,70.312 C141.376001,70.312 141.583999,70.3839993 141.728,70.528 C141.872001,70.6720007 141.944,70.8639988 141.944,71.104 C141.944,71.3440012 141.872001,71.5279994 141.728,71.656 C141.583999,71.7840006 141.376001,71.848 141.104,71.848 L138.44,71.848 L138.44,81.16 C138.44,81.4640015 138.348001,81.6999992 138.164,81.868 C137.979999,82.0360008 137.752001,82.12 137.48,82.12 C137.191999,82.12 136.956001,82.0360008 136.772,81.868 C136.587999,81.6999992 136.496,81.4640015 136.496,81.16 L136.496,71.848 L134.888,71.848 C134.615999,71.848 134.404001,71.7800007 134.252,71.644 C134.099999,71.5079993 134.024,71.3280011 134.024,71.104 C134.024,70.8639988 134.099999,70.6720007 134.252,70.528 C134.404001,70.3839993 134.615999,70.312 134.888,70.312 L136.496,70.312 L136.496,69.88 C136.496,68.4399928 136.855996,67.3080041 137.576,66.484 C138.296004,65.6599959 139.327993,65.2000005 140.672,65.104 L141.296,65.056 C141.712002,65.0239998 142.011999,65.0639994 142.196,65.176 C142.380001,65.2880006 142.472,65.4879986 142.472,65.776 C142.472,66.2400023 142.192003,66.5039997 141.632,66.568 L141.008,66.616 Z M147.88,66.616 C147.031996,66.6800003 146.392002,66.9479976 145.96,67.42 C145.527998,67.8920024 145.312,68.5999953 145.312,69.544 L145.312,70.312 L147.976,70.312 C148.248001,70.312 148.455999,70.3839993 148.6,70.528 C148.744001,70.6720007 148.816,70.8639988 148.816,71.104 C148.816,71.3440012 148.744001,71.5279994 148.6,71.656 C148.455999,71.7840006 148.248001,71.848 147.976,71.848 L145.312,71.848 L145.312,81.16 C145.312,81.4640015 145.220001,81.6999992 145.036,81.868 C144.851999,82.0360008 144.624001,82.12 144.352,82.12 C144.063999,82.12 143.828001,82.0360008 143.644,81.868 C143.459999,81.6999992 143.368,81.4640015 143.368,81.16 L143.368,71.848 L141.76,71.848 C141.487999,71.848 141.276001,71.7800007 141.124,71.644 C140.971999,71.5079993 140.896,71.3280011 140.896,71.104 C140.896,70.8639988 140.971999,70.6720007 141.124,70.528 C141.276001,70.3839993 141.487999,70.312 141.76,70.312 L143.368,70.312 L143.368,69.88 C143.368,68.4399928 143.727996,67.3080041 144.448,66.484 C145.168004,65.6599959 146.199993,65.2000005 147.544,65.104 L148.168,65.056 C148.584002,65.0239998 148.883999,65.0639994 149.068,65.176 C149.252001,65.2880006 149.344,65.4879986 149.344,65.776 C149.344,66.2400023 149.064003,66.5039997 148.504,66.568 L147.88,66.616 Z M158.52,79.288 C158.696001,79.288 158.847999,79.3599993 158.976,79.504 C159.104001,79.6480007 159.168,79.8319989 159.168,80.056 C159.168,80.456002 158.888003,80.8239983 158.328,81.16 C157.751997,81.4960017 157.144003,81.7479992 156.504,81.916 C155.863997,82.0840008 155.240003,82.168 154.632,82.168 C152.823991,82.168 151.396005,81.6320054 150.348,80.56 C149.299995,79.4879946 148.776,78.0080094 148.776,76.12 C148.776,74.919994 149.007998,73.8600046 149.472,72.94 C149.936002,72.0199954 150.587996,71.3040026 151.428,70.792 C152.268004,70.2799974 153.223995,70.024 154.296,70.024 C155.816008,70.024 157.023996,70.519995 157.92,71.512 C158.816004,72.504005 159.264,73.8479915 159.264,75.544 C159.264,75.8640016 159.200001,76.0959993 159.072,76.24 C158.943999,76.3840007 158.736001,76.456 158.448,76.456 L150.72,76.456 C150.864001,79.2080138 152.167988,80.584 154.632,80.584 C155.256003,80.584 155.791998,80.5000008 156.24,80.332 C156.688002,80.1639992 157.167997,79.9360014 157.68,79.648 C158.096002,79.4079988 158.375999,79.288 158.52,79.288 Z M154.32,71.536 C153.295995,71.536 152.476003,71.8559968 151.86,72.496 C151.243997,73.1360032 150.880001,74.0399942 150.768,75.208 L157.56,75.208 C157.528,74.0239941 157.232003,73.1160032 156.672,72.484 C156.111997,71.8519968 155.328005,71.536 154.32,71.536 Z M166.904,70.072 C167.576003,70.0239998 167.912,70.295997 167.912,70.888 C167.912,71.1440013 167.840001,71.3479992 167.696,71.5 C167.551999,71.6520008 167.304002,71.7439998 166.952,71.776 L166.232,71.848 C165.159995,71.9440005 164.364003,72.3239967 163.844,72.988 C163.323997,73.6520033 163.064,74.4319955 163.064,75.328 L163.064,81.16 C163.064,81.4800016 162.976001,81.7199992 162.8,81.88 C162.623999,82.0400008 162.392001,82.12 162.104,82.12 C161.815999,82.12 161.580001,82.0360008 161.396,81.868 C161.211999,81.6999992 161.12,81.4640015 161.12,81.16 L161.12,71.032 C161.12,70.7279985 161.215999,70.4920008 161.408,70.324 C161.600001,70.1559992 161.831999,70.072 162.104,70.072 C162.360001,70.072 162.575999,70.1559992 162.752,70.324 C162.928001,70.4920008 163.016,70.7199986 163.016,71.008 L163.016,72.352 C163.352002,71.6479965 163.827997,71.1120018 164.444,70.744 C165.060003,70.3759982 165.767996,70.1600003 166.568,70.096 L166.904,70.072 Z M177.4,79.288 C177.576001,79.288 177.727999,79.3599993 177.856,79.504 C177.984001,79.6480007 178.048,79.8319989 178.048,80.056 C178.048,80.456002 177.768003,80.8239983 177.208,81.16 C176.631997,81.4960017 176.024003,81.7479992 175.384,81.916 C174.743997,82.0840008 174.120003,82.168 173.512,82.168 C171.703991,82.168 170.276005,81.6320054 169.228,80.56 C168.179995,79.4879946 167.656,78.0080094 167.656,76.12 C167.656,74.919994 167.887998,73.8600046 168.352,72.94 C168.816002,72.0199954 169.467996,71.3040026 170.308,70.792 C171.148004,70.2799974 172.103995,70.024 173.176,70.024 C174.696008,70.024 175.903996,70.519995 176.8,71.512 C177.696004,72.504005 178.144,73.8479915 178.144,75.544 C178.144,75.8640016 178.080001,76.0959993 177.952,76.24 C177.823999,76.3840007 177.616001,76.456 177.328,76.456 L169.6,76.456 C169.744001,79.2080138 171.047988,80.584 173.512,80.584 C174.136003,80.584 174.671998,80.5000008 175.12,80.332 C175.568002,80.1639992 176.047997,79.9360014 176.56,79.648 C176.976002,79.4079988 177.255999,79.288 177.4,79.288 Z M173.2,71.536 C172.175995,71.536 171.356003,71.8559968 170.74,72.496 C170.123997,73.1360032 169.760001,74.0399942 169.648,75.208 L176.44,75.208 C176.408,74.0239941 176.112003,73.1160032 175.552,72.484 C174.991997,71.8519968 174.208005,71.536 173.2,71.536 Z M185.88,70.024 C188.680014,70.024 190.08,71.5679846 190.08,74.656 L190.08,81.16 C190.08,81.4640015 189.996001,81.6999992 189.828,81.868 C189.659999,82.0360008 189.424002,82.12 189.12,82.12 C188.815998,82.12 188.576001,82.0360008 188.4,81.868 C188.223999,81.6999992 188.136,81.4640015 188.136,81.16 L188.136,74.776 C188.136,73.6879946 187.924002,72.8960025 187.5,72.4 C187.075998,71.9039975 186.400005,71.656 185.472,71.656 C184.399995,71.656 183.544003,71.9839967 182.904,72.64 C182.263997,73.2960033 181.944,74.1839944 181.944,75.304 L181.944,81.16 C181.944,81.4640015 181.860001,81.6999992 181.692,81.868 C181.523999,82.0360008 181.288002,82.12 180.984,82.12 C180.679998,82.12 180.440001,82.0360008 180.264,81.868 C180.087999,81.6999992 180,81.4640015 180,81.16 L180,71.032 C180,70.7439986 180.087999,70.5120009 180.264,70.336 C180.440001,70.1599991 180.679998,70.072 180.984,70.072 C181.272001,70.072 181.499999,70.1599991 181.668,70.336 C181.836001,70.5120009 181.92,70.7359986 181.92,71.008 L181.92,72.232 C182.304002,71.5119964 182.839997,70.9640019 183.528,70.588 C184.216003,70.2119981 184.999996,70.024 185.88,70.024 Z M197.456,82.168 C196.367995,82.168 195.404004,81.9200025 194.564,81.424 C193.723996,80.9279975 193.076002,80.2240046 192.62,79.312 C192.163998,78.3999954 191.936,77.344006 191.936,76.144 C191.936,74.943994 192.171998,73.8800046 192.644,72.952 C193.116002,72.0239954 193.775996,71.3040026 194.624,70.792 C195.472004,70.2799974 196.447994,70.024 197.552,70.024 C198.160003,70.024 198.763997,70.1079992 199.364,70.276 C199.964003,70.4440008 200.487998,70.6879984 200.936,71.008 C201.224001,71.200001 201.427999,71.3879991 201.548,71.572 C201.668001,71.7560009 201.728,71.9599989 201.728,72.184 C201.728,72.4080011 201.668001,72.5919993 201.548,72.736 C201.427999,72.8800007 201.272001,72.952 201.08,72.952 C200.967999,72.952 200.848001,72.9200003 200.72,72.856 C200.591999,72.7919997 200.484,72.7280003 200.396,72.664 C200.308,72.5999997 200.248,72.5600001 200.216,72.544 C199.799998,72.2719986 199.404002,72.0560008 199.028,71.896 C198.651998,71.7359992 198.192003,71.656 197.648,71.656 C196.479994,71.656 195.572003,72.051996 194.924,72.844 C194.275997,73.636004 193.952,74.735993 193.952,76.144 C193.952,77.552007 194.275997,78.6399962 194.924,79.408 C195.572003,80.1760038 196.479994,80.56 197.648,80.56 C198.192003,80.56 198.659998,80.4800008 199.052,80.32 C199.444002,80.1599992 199.839998,79.9440014 200.24,79.672 C200.416001,79.5599994 200.583999,79.4640004 200.744,79.384 C200.904001,79.3039996 201.039999,79.264 201.152,79.264 C201.328001,79.264 201.475999,79.3359993 201.596,79.48 C201.716001,79.6240007 201.776,79.8079989 201.776,80.032 C201.776,80.240001 201.720001,80.4279992 201.608,80.596 C201.495999,80.7640008 201.288002,80.951999 200.984,81.16 C200.535998,81.4640015 199.996003,81.7079991 199.364,81.892 C198.731997,82.0760009 198.096003,82.168 197.456,82.168 Z M212.176,79.288 C212.352001,79.288 212.503999,79.3599993 212.632,79.504 C212.760001,79.6480007 212.824,79.8319989 212.824,80.056 C212.824,80.456002 212.544003,80.8239983 211.984,81.16 C211.407997,81.4960017 210.800003,81.7479992 210.16,81.916 C209.519997,82.0840008 208.896003,82.168 208.288,82.168 C206.479991,82.168 205.052005,81.6320054 204.004,80.56 C202.955995,79.4879946 202.432,78.0080094 202.432,76.12 C202.432,74.919994 202.663998,73.8600046 203.128,72.94 C203.592002,72.0199954 204.243996,71.3040026 205.084,70.792 C205.924004,70.2799974 206.879995,70.024 207.952,70.024 C209.472008,70.024 210.679996,70.519995 211.576,71.512 C212.472004,72.504005 212.92,73.8479915 212.92,75.544 C212.92,75.8640016 212.856001,76.0959993 212.728,76.24 C212.599999,76.3840007 212.392001,76.456 212.104,76.456 L204.376,76.456 C204.520001,79.2080138 205.823988,80.584 208.288,80.584 C208.912003,80.584 209.447998,80.5000008 209.896,80.332 C210.344002,80.1639992 210.823997,79.9360014 211.336,79.648 C211.752002,79.4079988 212.031999,79.288 212.176,79.288 Z M207.976,71.536 C206.951995,71.536 206.132003,71.8559968 205.516,72.496 C204.899997,73.1360032 204.536001,74.0399942 204.424,75.208 L211.216,75.208 C211.184,74.0239941 210.888003,73.1160032 210.328,72.484 C209.767997,71.8519968 208.984005,71.536 207.976,71.536 Z M218.712,82.168 C217.975996,82.168 217.276003,82.0800009 216.612,81.904 C215.947997,81.7279991 215.360003,81.4800016 214.848,81.16 C214.559999,80.967999 214.356001,80.7880008 214.236,80.62 C214.115999,80.4519992 214.056,80.2480012 214.056,80.008 C214.056,79.799999 214.115999,79.6280007 214.236,79.492 C214.356001,79.3559993 214.511999,79.288 214.704,79.288 C214.896001,79.288 215.175998,79.4079988 215.544,79.648 C216.024002,79.9360014 216.499998,80.1639992 216.972,80.332 C217.444002,80.5000008 218.031996,80.584 218.736,80.584 C219.600004,80.584 220.271998,80.4320015 220.752,80.128 C221.232002,79.8239985 221.472,79.3840029 221.472,78.808 C221.472,78.4559982 221.384001,78.1720011 221.208,77.956 C221.031999,77.7399989 220.728002,77.5480008 220.296,77.38 C219.863998,77.2119992 219.232004,77.0400009 218.4,76.864 C216.991993,76.5599985 215.984003,76.1520026 215.376,75.64 C214.767997,75.1279974 214.464,74.4320044 214.464,73.552 C214.464,72.8639966 214.655998,72.2560026 215.04,71.728 C215.424002,71.1999974 215.955997,70.7840015 216.636,70.48 C217.316003,70.1759985 218.087996,70.024 218.952,70.024 C219.576003,70.024 220.179997,70.1079992 220.764,70.276 C221.348003,70.4440008 221.863998,70.6799985 222.312,70.984 C222.856003,71.3680019 223.128,71.7679979 223.128,72.184 C223.128,72.392001 223.064001,72.5679993 222.936,72.712 C222.807999,72.8560007 222.656001,72.928 222.48,72.928 C222.287999,72.928 222.000002,72.7920014 221.616,72.52 C221.167998,72.2319986 220.744002,72.0080008 220.344,71.848 C219.943998,71.6879992 219.448003,71.608 218.856,71.608 C218.103996,71.608 217.500002,71.7759983 217.044,72.112 C216.587998,72.4480017 216.36,72.8959972 216.36,73.456 C216.36,73.8080018 216.443999,74.0919989 216.612,74.308 C216.780001,74.5240011 217.059998,74.7159992 217.452,74.884 C217.844002,75.0520008 218.407996,75.2159992 219.144,75.376 C220.232005,75.6160012 221.075997,75.8799986 221.676,76.168 C222.276003,76.4560014 222.703999,76.8079979 222.96,77.224 C223.216001,77.6400021 223.344,78.1679968 223.344,78.808 C223.344,79.816005 222.920004,80.6279969 222.072,81.244 C221.223996,81.8600031 220.104007,82.168 218.712,82.168 Z M7.96,98.616 C7.11199576,98.6800003 6.47200216,98.9479976 6.04,99.42 C5.60799784,99.8920024 5.392,100.599995 5.392,101.544 L5.392,102.312 L8.056,102.312 C8.32800136,102.312 8.53599928,102.383999 8.68,102.528 C8.82400072,102.672001 8.896,102.863999 8.896,103.104 C8.896,103.344001 8.82400072,103.527999 8.68,103.656 C8.53599928,103.784001 8.32800136,103.848 8.056,103.848 L5.392,103.848 L5.392,113.16 C5.392,113.464002 5.30000092,113.699999 5.116,113.868 C4.93199908,114.036001 4.70400136,114.12 4.432,114.12 C4.14399856,114.12 3.90800092,114.036001 3.724,113.868 C3.53999908,113.699999 3.448,113.464002 3.448,113.16 L3.448,103.848 L1.84,103.848 C1.56799864,103.848 1.35600076,103.780001 1.204,103.644 C1.05199924,103.507999 0.976,103.328001 0.976,103.104 C0.976,102.863999 1.05199924,102.672001 1.204,102.528 C1.35600076,102.383999 1.56799864,102.312 1.84,102.312 L3.448,102.312 L3.448,101.88 C3.448,100.439993 3.8079964,99.3080041 4.528,98.484 C5.2480036,97.6599959 6.27999328,97.2000005 7.624,97.104 L8.248,97.056 C8.66400208,97.0239998 8.96399908,97.0639994 9.148,97.176 C9.33200092,97.2880006 9.424,97.4879986 9.424,97.776 C9.424,98.2400023 9.1440028,98.5039997 8.584,98.568 L7.96,98.616 Z M14.4,114.168 C13.2959945,114.168 12.3240042,113.920002 11.484,113.424 C10.6439958,112.927998 9.99600228,112.220005 9.54,111.3 C9.08399772,110.379995 8.856,109.312006 8.856,108.096 C8.856,106.879994 9.08399772,105.812005 9.54,104.892 C9.99600228,103.971995 10.6439958,103.264002 11.484,102.768 C12.3240042,102.271998 13.2959945,102.024 14.4,102.024 C15.5040055,102.024 16.4799958,102.271998 17.328,102.768 C18.1760042,103.264002 18.8279977,103.971995 19.284,104.892 C19.7400023,105.812005 19.968,106.879994 19.968,108.096 C19.968,109.312006 19.7400023,110.379995 19.284,111.3 C18.8279977,112.220005 18.1760042,112.927998 17.328,113.424 C16.4799958,113.920002 15.5040055,114.168 14.4,114.168 Z M14.4,112.56 C15.5520058,112.56 16.4359969,112.180004 17.052,111.42 C17.6680031,110.659996 17.976,109.552007 17.976,108.096 C17.976,106.671993 17.6640031,105.572004 17.04,104.796 C16.4159969,104.019996 15.5360057,103.632 14.4,103.632 C13.2639943,103.632 12.3840031,104.019996 11.76,104.796 C11.1359969,105.572004 10.824,106.671993 10.824,108.096 C10.824,109.536007 11.1319969,110.639996 11.748,111.408 C12.3640031,112.176004 13.2479942,112.56 14.4,112.56 Z M27.656,102.072 C28.3280034,102.024 28.664,102.295997 28.664,102.888 C28.664,103.144001 28.5920007,103.347999 28.448,103.5 C28.3039993,103.652001 28.0560018,103.744 27.704,103.776 L26.984,103.848 C25.9119946,103.944 25.1160026,104.323997 24.596,104.988 C24.0759974,105.652003 23.816,106.431996 23.816,107.328 L23.816,113.16 C23.816,113.480002 23.7280009,113.719999 23.552,113.88 C23.3759991,114.040001 23.1440014,114.12 22.856,114.12 C22.5679986,114.12 22.3320009,114.036001 22.148,113.868 C21.9639991,113.699999 21.872,113.464002 21.872,113.16 L21.872,103.032 C21.872,102.727998 21.967999,102.492001 22.16,102.324 C22.352001,102.155999 22.5839986,102.072 22.856,102.072 C23.1120013,102.072 23.3279991,102.155999 23.504,102.324 C23.6800009,102.492001 23.768,102.719999 23.768,103.008 L23.768,104.352 C24.1040017,103.647996 24.5799969,103.112002 25.196,102.744 C25.8120031,102.375998 26.519996,102.16 27.32,102.096 L27.656,102.072 Z M39.36,114.168 C38.2719946,114.168 37.3080042,113.920002 36.468,113.424 C35.6279958,112.927998 34.9800023,112.224005 34.524,111.312 C34.0679977,110.399995 33.84,109.344006 33.84,108.144 C33.84,106.943994 34.0759976,105.880005 34.548,104.952 C35.0200024,104.023995 35.6799958,103.304003 36.528,102.792 C37.3760042,102.279997 38.3519945,102.024 39.456,102.024 C40.064003,102.024 40.667997,102.107999 41.268,102.276 C41.868003,102.444001 42.3919978,102.687998 42.84,103.008 C43.1280014,103.200001 43.3319994,103.387999 43.452,103.572 C43.5720006,103.756001 43.632,103.959999 43.632,104.184 C43.632,104.408001 43.5720006,104.591999 43.452,104.736 C43.3319994,104.880001 43.176001,104.952 42.984,104.952 C42.8719994,104.952 42.7520006,104.92 42.624,104.856 C42.4959994,104.792 42.3880004,104.728 42.3,104.664 C42.2119996,104.6 42.1520002,104.56 42.12,104.544 C41.7039979,104.271999 41.3080019,104.056001 40.932,103.896 C40.5559981,103.735999 40.0960027,103.656 39.552,103.656 C38.3839942,103.656 37.4760032,104.051996 36.828,104.844 C36.1799968,105.636004 35.856,106.735993 35.856,108.144 C35.856,109.552007 36.1799968,110.639996 36.828,111.408 C37.4760032,112.176004 38.3839942,112.56 39.552,112.56 C40.0960027,112.56 40.563998,112.480001 40.956,112.32 C41.348002,112.159999 41.743998,111.944001 42.144,111.672 C42.3200009,111.559999 42.4879992,111.464 42.648,111.384 C42.8080008,111.304 42.9439994,111.264 43.056,111.264 C43.2320009,111.264 43.3799994,111.335999 43.5,111.48 C43.6200006,111.624001 43.68,111.807999 43.68,112.032 C43.68,112.240001 43.6240006,112.427999 43.512,112.596 C43.3999994,112.764001 43.1920015,112.951999 42.888,113.16 C42.4399978,113.464002 41.9000032,113.707999 41.268,113.892 C40.6359968,114.076001 40.0000032,114.168 39.36,114.168 Z M46.016,114.12 C45.7279986,114.12 45.4920009,114.036001 45.308,113.868 C45.1239991,113.699999 45.032,113.464002 45.032,113.16 L45.032,97.92 C45.032,97.6159985 45.1239991,97.3800008 45.308,97.212 C45.4920009,97.0439992 45.7279986,96.96 46.016,96.96 C46.2880014,96.96 46.5159991,97.0439992 46.7,97.212 C46.8840009,97.3800008 46.976,97.6159985 46.976,97.92 L46.976,113.16 C46.976,113.464002 46.8840009,113.699999 46.7,113.868 C46.5159991,114.036001 46.2880014,114.12 46.016,114.12 Z M58.648,111.288 C58.8240009,111.288 58.9759994,111.359999 59.104,111.504 C59.2320006,111.648001 59.296,111.831999 59.296,112.056 C59.296,112.456002 59.0160028,112.823998 58.456,113.16 C57.8799971,113.496002 57.2720032,113.747999 56.632,113.916 C55.9919968,114.084001 55.368003,114.168 54.76,114.168 C52.951991,114.168 51.5240052,113.632005 50.476,112.56 C49.4279948,111.487995 48.904,110.008009 48.904,108.12 C48.904,106.919994 49.1359977,105.860005 49.6,104.94 C50.0640023,104.019995 50.7159958,103.304003 51.556,102.792 C52.3960042,102.279997 53.3519946,102.024 54.424,102.024 C55.9440076,102.024 57.1519955,102.519995 58.048,103.512 C58.9440045,104.504005 59.392,105.847992 59.392,107.544 C59.392,107.864002 59.3280006,108.095999 59.2,108.24 C59.0719994,108.384001 58.8640014,108.456 58.576,108.456 L50.848,108.456 C50.9920007,111.208014 52.2959877,112.584 54.76,112.584 C55.3840031,112.584 55.9199978,112.500001 56.368,112.332 C56.8160022,112.163999 57.2959974,111.936001 57.808,111.648 C58.2240021,111.407999 58.5039993,111.288 58.648,111.288 Z M54.448,103.536 C53.4239949,103.536 52.6040031,103.855997 51.988,104.496 C51.3719969,105.136003 51.0080006,106.039994 50.896,107.208 L57.688,107.208 C57.6559998,106.023994 57.3600028,105.116003 56.8,104.484 C56.2399972,103.851997 55.456005,103.536 54.448,103.536 Z M66.024,102.024 C68.9520146,102.024 70.416,103.559985 70.416,106.632 L70.416,113.16 C70.416,113.448001 70.3320008,113.679999 70.164,113.856 C69.9959992,114.032001 69.7680014,114.12 69.48,114.12 C69.1919986,114.12 68.9600009,114.032001 68.784,113.856 C68.6079991,113.679999 68.52,113.448001 68.52,113.16 L68.52,112.008 C68.2159985,112.696003 67.7520031,113.227998 67.128,113.604 C66.5039969,113.980002 65.7840041,114.168 64.968,114.168 C64.2159962,114.168 63.5240032,114.016002 62.892,113.712 C62.2599968,113.407998 61.7600018,112.984003 61.392,112.44 C61.0239982,111.895997 60.84,111.296003 60.84,110.64 C60.84,109.759996 61.0639978,109.076002 61.512,108.588 C61.9600022,108.099998 62.6959949,107.748001 63.72,107.532 C64.7440051,107.315999 66.1679909,107.208 67.992,107.208 L68.52,107.208 L68.52,106.416 C68.52,105.455995 68.324002,104.752002 67.932,104.304 C67.539998,103.855998 66.9040044,103.632 66.024,103.632 C64.9359946,103.632 63.8320056,103.927997 62.712,104.52 C62.2799978,104.792001 61.9760009,104.928 61.8,104.928 C61.607999,104.928 61.4480006,104.856001 61.32,104.712 C61.1919994,104.567999 61.128,104.384001 61.128,104.16 C61.128,103.935999 61.1959993,103.740001 61.332,103.572 C61.4680007,103.403999 61.6879985,103.232001 61.992,103.056 C62.5520028,102.735998 63.1879964,102.484001 63.9,102.3 C64.6120036,102.115999 65.3199965,102.024 66.024,102.024 Z M65.232,112.632 C66.1920048,112.632 66.9799969,112.308003 67.596,111.66 C68.2120031,111.011997 68.52,110.176005 68.52,109.152 L68.52,108.456 L68.088,108.456 C66.679993,108.456 65.6080037,108.515999 64.872,108.636 C64.1359963,108.756001 63.6120016,108.955999 63.3,109.236 C62.9879984,109.516001 62.832,109.927997 62.832,110.472 C62.832,111.096003 63.0599977,111.611998 63.516,112.02 C63.9720023,112.428002 64.5439966,112.632 65.232,112.632 Z M78.752,102.072 C79.4240034,102.024 79.76,102.295997 79.76,102.888 C79.76,103.144001 79.6880007,103.347999 79.544,103.5 C79.3999993,103.652001 79.1520018,103.744 78.8,103.776 L78.08,103.848 C77.0079946,103.944 76.2120026,104.323997 75.692,104.988 C75.1719974,105.652003 74.912,106.431996 74.912,107.328 L74.912,113.16 C74.912,113.480002 74.8240009,113.719999 74.648,113.88 C74.4719991,114.040001 74.2400014,114.12 73.952,114.12 C73.6639986,114.12 73.4280009,114.036001 73.244,113.868 C73.0599991,113.699999 72.968,113.464002 72.968,113.16 L72.968,103.032 C72.968,102.727998 73.063999,102.492001 73.256,102.324 C73.448001,102.155999 73.6799986,102.072 73.952,102.072 C74.2080013,102.072 74.4239991,102.155999 74.6,102.324 C74.7760009,102.492001 74.864,102.719999 74.864,103.008 L74.864,104.352 C75.2000017,103.647996 75.6759969,103.112002 76.292,102.744 C76.9080031,102.375998 77.615996,102.16 78.416,102.096 L78.752,102.072 Z M90.456,114.168 C89.3679946,114.168 88.4040042,113.920002 87.564,113.424 C86.7239958,112.927998 86.0760023,112.224005 85.62,111.312 C85.1639977,110.399995 84.936,109.344006 84.936,108.144 C84.936,106.943994 85.1719976,105.880005 85.644,104.952 C86.1160024,104.023995 86.7759958,103.304003 87.624,102.792 C88.4720042,102.279997 89.4479945,102.024 90.552,102.024 C91.160003,102.024 91.763997,102.107999 92.364,102.276 C92.964003,102.444001 93.4879978,102.687998 93.936,103.008 C94.2240014,103.200001 94.4279994,103.387999 94.548,103.572 C94.6680006,103.756001 94.728,103.959999 94.728,104.184 C94.728,104.408001 94.6680006,104.591999 94.548,104.736 C94.4279994,104.880001 94.272001,104.952 94.08,104.952 C93.9679994,104.952 93.8480006,104.92 93.72,104.856 C93.5919994,104.792 93.4840004,104.728 93.396,104.664 C93.3079996,104.6 93.2480002,104.56 93.216,104.544 C92.7999979,104.271999 92.4040019,104.056001 92.028,103.896 C91.6519981,103.735999 91.1920027,103.656 90.648,103.656 C89.4799942,103.656 88.5720032,104.051996 87.924,104.844 C87.2759968,105.636004 86.952,106.735993 86.952,108.144 C86.952,109.552007 87.2759968,110.639996 87.924,111.408 C88.5720032,112.176004 89.4799942,112.56 90.648,112.56 C91.1920027,112.56 91.659998,112.480001 92.052,112.32 C92.444002,112.159999 92.839998,111.944001 93.24,111.672 C93.4160009,111.559999 93.5839992,111.464 93.744,111.384 C93.9040008,111.304 94.0399994,111.264 94.152,111.264 C94.3280009,111.264 94.4759994,111.335999 94.596,111.48 C94.7160006,111.624001 94.776,111.807999 94.776,112.032 C94.776,112.240001 94.7200006,112.427999 94.608,112.596 C94.4959994,112.764001 94.2880015,112.951999 93.984,113.16 C93.5359978,113.464002 92.9960032,113.707999 92.364,113.892 C91.7319968,114.076001 91.0960032,114.168 90.456,114.168 Z M100.976,114.168 C99.8719945,114.168 98.9000042,113.920002 98.06,113.424 C97.2199958,112.927998 96.5720023,112.220005 96.116,111.3 C95.6599977,110.379995 95.432,109.312006 95.432,108.096 C95.432,106.879994 95.6599977,105.812005 96.116,104.892 C96.5720023,103.971995 97.2199958,103.264002 98.06,102.768 C98.9000042,102.271998 99.8719945,102.024 100.976,102.024 C102.080006,102.024 103.055996,102.271998 103.904,102.768 C104.752004,103.264002 105.403998,103.971995 105.86,104.892 C106.316002,105.812005 106.544,106.879994 106.544,108.096 C106.544,109.312006 106.316002,110.379995 105.86,111.3 C105.403998,112.220005 104.752004,112.927998 103.904,113.424 C103.055996,113.920002 102.080006,114.168 100.976,114.168 Z M100.976,112.56 C102.128006,112.56 103.011997,112.180004 103.628,111.42 C104.244003,110.659996 104.552,109.552007 104.552,108.096 C104.552,106.671993 104.240003,105.572004 103.616,104.796 C102.991997,104.019996 102.112006,103.632 100.976,103.632 C99.8399943,103.632 98.9600031,104.019996 98.336,104.796 C97.7119969,105.572004 97.4,106.671993 97.4,108.096 C97.4,109.536007 97.7079969,110.639996 98.324,111.408 C98.9400031,112.176004 99.8239942,112.56 100.976,112.56 Z M121.456,102.024 C124.048013,102.024 125.344,103.567985 125.344,106.656 L125.344,113.16 C125.344,113.464002 125.256001,113.699999 125.08,113.868 C124.903999,114.036001 124.672001,114.12 124.384,114.12 C124.095999,114.12 123.860001,114.036001 123.676,113.868 C123.491999,113.699999 123.4,113.464002 123.4,113.16 L123.4,106.704 C123.4,105.631995 123.208002,104.856002 122.824,104.376 C122.439998,103.895998 121.840004,103.656 121.024,103.656 C120.047995,103.656 119.280003,103.983997 118.72,104.64 C118.159997,105.296003 117.88,106.183994 117.88,107.304 L117.88,113.16 C117.88,113.464002 117.788001,113.699999 117.604,113.868 C117.419999,114.036001 117.184001,114.12 116.896,114.12 C116.607999,114.12 116.376001,114.036001 116.2,113.868 C116.023999,113.699999 115.936,113.464002 115.936,113.16 L115.936,106.704 C115.936,105.631995 115.744002,104.856002 115.36,104.376 C114.975998,103.895998 114.368004,103.656 113.536,103.656 C112.575995,103.656 111.812003,103.983997 111.244,104.64 C110.675997,105.296003 110.392,106.183994 110.392,107.304 L110.392,113.16 C110.392,113.464002 110.304001,113.699999 110.128,113.868 C109.951999,114.036001 109.720001,114.12 109.432,114.12 C109.143999,114.12 108.908001,114.036001 108.724,113.868 C108.539999,113.699999 108.448,113.464002 108.448,113.16 L108.448,103.032 C108.448,102.743999 108.539999,102.512001 108.724,102.336 C108.908001,102.159999 109.143999,102.072 109.432,102.072 C109.704001,102.072 109.927999,102.155999 110.104,102.324 C110.280001,102.492001 110.368,102.719999 110.368,103.008 L110.368,104.16 C110.720002,103.471997 111.207997,102.944002 111.832,102.576 C112.456003,102.207998 113.175996,102.024 113.992,102.024 C115.816009,102.024 117.007997,102.791992 117.568,104.328 C117.904002,103.623996 118.415997,103.064002 119.104,102.648 C119.792003,102.231998 120.575996,102.024 121.456,102.024 Z M133.776,102.024 C134.800005,102.024 135.703996,102.279997 136.488,102.792 C137.272004,103.304003 137.879998,104.019995 138.312,104.94 C138.744002,105.860005 138.96,106.927994 138.96,108.144 C138.96,109.360006 138.744002,110.419995 138.312,111.324 C137.879998,112.228005 137.276004,112.927998 136.5,113.424 C135.723996,113.920002 134.816005,114.168 133.776,114.168 C132.863995,114.168 132.068003,113.968002 131.388,113.568 C130.707997,113.167998 130.192002,112.600004 129.84,111.864 L129.84,117.504 C129.84,117.792001 129.756001,118.019999 129.588,118.188 C129.419999,118.356001 129.184002,118.44 128.88,118.44 C128.575998,118.44 128.336001,118.352001 128.16,118.176 C127.983999,117.999999 127.896,117.776001 127.896,117.504 L127.896,103.032 C127.896,102.743999 127.983999,102.512001 128.16,102.336 C128.336001,102.159999 128.575998,102.072 128.88,102.072 C129.184002,102.072 129.419999,102.159999 129.588,102.336 C129.756001,102.512001 129.84,102.743999 129.84,103.032 L129.84,104.328 C130.192002,103.591996 130.707997,103.024002 131.388,102.624 C132.068003,102.223998 132.863995,102.024 133.776,102.024 Z M133.392,112.56 C134.528006,112.56 135.407997,112.176004 136.032,111.408 C136.656003,110.639996 136.968,109.552007 136.968,108.144 C136.968,106.735993 136.656003,105.636004 136.032,104.844 C135.407997,104.051996 134.528006,103.656 133.392,103.656 C132.255994,103.656 131.380003,104.039996 130.764,104.808 C130.147997,105.576004 129.84,106.671993 129.84,108.096 C129.84,109.520007 130.147997,110.619996 130.764,111.396 C131.380003,112.172004 132.255994,112.56 133.392,112.56 Z M145.64,102.024 C148.568015,102.024 150.032,103.559985 150.032,106.632 L150.032,113.16 C150.032,113.448001 149.948001,113.679999 149.78,113.856 C149.611999,114.032001 149.384001,114.12 149.096,114.12 C148.807999,114.12 148.576001,114.032001 148.4,113.856 C148.223999,113.679999 148.136,113.448001 148.136,113.16 L148.136,112.008 C147.831998,112.696003 147.368003,113.227998 146.744,113.604 C146.119997,113.980002 145.400004,114.168 144.584,114.168 C143.831996,114.168 143.140003,114.016002 142.508,113.712 C141.875997,113.407998 141.376002,112.984003 141.008,112.44 C140.639998,111.895997 140.456,111.296003 140.456,110.64 C140.456,109.759996 140.679998,109.076002 141.128,108.588 C141.576002,108.099998 142.311995,107.748001 143.336,107.532 C144.360005,107.315999 145.783991,107.208 147.608,107.208 L148.136,107.208 L148.136,106.416 C148.136,105.455995 147.940002,104.752002 147.548,104.304 C147.155998,103.855998 146.520004,103.632 145.64,103.632 C144.551995,103.632 143.448006,103.927997 142.328,104.52 C141.895998,104.792001 141.592001,104.928 141.416,104.928 C141.223999,104.928 141.064001,104.856001 140.936,104.712 C140.807999,104.567999 140.744,104.384001 140.744,104.16 C140.744,103.935999 140.811999,103.740001 140.948,103.572 C141.084001,103.403999 141.303998,103.232001 141.608,103.056 C142.168003,102.735998 142.803996,102.484001 143.516,102.3 C144.228004,102.115999 144.935996,102.024 145.64,102.024 Z M144.848,112.632 C145.808005,112.632 146.595997,112.308003 147.212,111.66 C147.828003,111.011997 148.136,110.176005 148.136,109.152 L148.136,108.456 L147.704,108.456 C146.295993,108.456 145.224004,108.515999 144.488,108.636 C143.751996,108.756001 143.228002,108.955999 142.916,109.236 C142.603998,109.516001 142.448,109.927997 142.448,110.472 C142.448,111.096003 142.675998,111.611998 143.132,112.02 C143.588002,112.428002 144.159997,112.632 144.848,112.632 Z M158.368,102.072 C159.040003,102.024 159.376,102.295997 159.376,102.888 C159.376,103.144001 159.304001,103.347999 159.16,103.5 C159.015999,103.652001 158.768002,103.744 158.416,103.776 L157.696,103.848 C156.623995,103.944 155.828003,104.323997 155.308,104.988 C154.787997,105.652003 154.528,106.431996 154.528,107.328 L154.528,113.16 C154.528,113.480002 154.440001,113.719999 154.264,113.88 C154.087999,114.040001 153.856001,114.12 153.568,114.12 C153.279999,114.12 153.044001,114.036001 152.86,113.868 C152.675999,113.699999 152.584,113.464002 152.584,113.16 L152.584,103.032 C152.584,102.727998 152.679999,102.492001 152.872,102.324 C153.064001,102.155999 153.295999,102.072 153.568,102.072 C153.824001,102.072 154.039999,102.155999 154.216,102.324 C154.392001,102.492001 154.48,102.719999 154.48,103.008 L154.48,104.352 C154.816002,103.647996 155.291997,103.112002 155.908,102.744 C156.524003,102.375998 157.231996,102.16 158.032,102.096 L158.368,102.072 Z M161.04,114.12 C160.751999,114.12 160.516001,114.036001 160.332,113.868 C160.147999,113.699999 160.056,113.464002 160.056,113.16 L160.056,103.032 C160.056,102.727998 160.147999,102.492001 160.332,102.324 C160.516001,102.155999 160.751999,102.072 161.04,102.072 C161.328001,102.072 161.559999,102.155999 161.736,102.324 C161.912001,102.492001 162,102.727998 162,103.032 L162,113.16 C162,113.480002 161.912001,113.719999 161.736,113.88 C161.559999,114.040001 161.328001,114.12 161.04,114.12 Z M161.04,99.552 C160.655998,99.552 160.344001,99.4400011 160.104,99.216 C159.863999,98.9919989 159.744,98.6960018 159.744,98.328 C159.744,97.9759982 159.863999,97.6880011 160.104,97.464 C160.344001,97.2399989 160.655998,97.128 161.04,97.128 C161.424002,97.128 161.735999,97.2399989 161.976,97.464 C162.216001,97.6880011 162.336,97.9759982 162.336,98.328 C162.336,98.6960018 162.216001,98.9919989 161.976,99.216 C161.735999,99.4400011 161.424002,99.552 161.04,99.552 Z M168.56,114.168 C167.823996,114.168 167.124003,114.080001 166.46,113.904 C165.795997,113.727999 165.208003,113.480002 164.696,113.16 C164.407999,112.967999 164.204001,112.788001 164.084,112.62 C163.963999,112.451999 163.904,112.248001 163.904,112.008 C163.904,111.799999 163.963999,111.628001 164.084,111.492 C164.204001,111.355999 164.359999,111.288 164.552,111.288 C164.744001,111.288 165.023998,111.407999 165.392,111.648 C165.872002,111.936001 166.347998,112.163999 166.82,112.332 C167.292002,112.500001 167.879996,112.584 168.584,112.584 C169.448004,112.584 170.119998,112.432002 170.6,112.128 C171.080002,111.823998 171.32,111.384003 171.32,110.808 C171.32,110.455998 171.232001,110.172001 171.056,109.956 C170.879999,109.739999 170.576002,109.548001 170.144,109.38 C169.711998,109.211999 169.080004,109.040001 168.248,108.864 C166.839993,108.559998 165.832003,108.152003 165.224,107.64 C164.615997,107.127997 164.312,106.432004 164.312,105.552 C164.312,104.863997 164.503998,104.256003 164.888,103.728 C165.272002,103.199997 165.803997,102.784002 166.484,102.48 C167.164003,102.175998 167.935996,102.024 168.8,102.024 C169.424003,102.024 170.027997,102.107999 170.612,102.276 C171.196003,102.444001 171.711998,102.679998 172.16,102.984 C172.704003,103.368002 172.976,103.767998 172.976,104.184 C172.976,104.392001 172.912001,104.567999 172.784,104.712 C172.655999,104.856001 172.504001,104.928 172.328,104.928 C172.135999,104.928 171.848002,104.792001 171.464,104.52 C171.015998,104.231999 170.592002,104.008001 170.192,103.848 C169.791998,103.687999 169.296003,103.608 168.704,103.608 C167.951996,103.608 167.348002,103.775998 166.892,104.112 C166.435998,104.448002 166.208,104.895997 166.208,105.456 C166.208,105.808002 166.291999,106.091999 166.46,106.308 C166.628001,106.524001 166.907998,106.715999 167.3,106.884 C167.692002,107.052001 168.255996,107.215999 168.992,107.376 C170.080005,107.616001 170.923997,107.879999 171.524,108.168 C172.124003,108.456001 172.551999,108.807998 172.808,109.224 C173.064001,109.640002 173.192,110.167997 173.192,110.808 C173.192,111.816005 172.768004,112.627997 171.92,113.244 C171.071996,113.860003 169.952007,114.168 168.56,114.168 Z M179.992,114.168 C178.887994,114.168 177.916004,113.920002 177.076,113.424 C176.235996,112.927998 175.588002,112.220005 175.132,111.3 C174.675998,110.379995 174.448,109.312006 174.448,108.096 C174.448,106.879994 174.675998,105.812005 175.132,104.892 C175.588002,103.971995 176.235996,103.264002 177.076,102.768 C177.916004,102.271998 178.887994,102.024 179.992,102.024 C181.096006,102.024 182.071996,102.271998 182.92,102.768 C183.768004,103.264002 184.419998,103.971995 184.876,104.892 C185.332002,105.812005 185.56,106.879994 185.56,108.096 C185.56,109.312006 185.332002,110.379995 184.876,111.3 C184.419998,112.220005 183.768004,112.927998 182.92,113.424 C182.071996,113.920002 181.096006,114.168 179.992,114.168 Z M179.992,112.56 C181.144006,112.56 182.027997,112.180004 182.644,111.42 C183.260003,110.659996 183.568,109.552007 183.568,108.096 C183.568,106.671993 183.256003,105.572004 182.632,104.796 C182.007997,104.019996 181.128006,103.632 179.992,103.632 C178.855994,103.632 177.976003,104.019996 177.352,104.796 C176.727997,105.572004 176.416,106.671993 176.416,108.096 C176.416,109.536007 176.723997,110.639996 177.34,111.408 C177.956003,112.176004 178.839994,112.56 179.992,112.56 Z M193.344,102.024 C196.144014,102.024 197.544,103.567985 197.544,106.656 L197.544,113.16 C197.544,113.464002 197.460001,113.699999 197.292,113.868 C197.123999,114.036001 196.888002,114.12 196.584,114.12 C196.279998,114.12 196.040001,114.036001 195.864,113.868 C195.687999,113.699999 195.6,113.464002 195.6,113.16 L195.6,106.776 C195.6,105.687995 195.388002,104.896002 194.964,104.4 C194.539998,103.903998 193.864005,103.656 192.936,103.656 C191.863995,103.656 191.008003,103.983997 190.368,104.64 C189.727997,105.296003 189.408,106.183994 189.408,107.304 L189.408,113.16 C189.408,113.464002 189.324001,113.699999 189.156,113.868 C188.987999,114.036001 188.752002,114.12 188.448,114.12 C188.143998,114.12 187.904001,114.036001 187.728,113.868 C187.551999,113.699999 187.464,113.464002 187.464,113.16 L187.464,103.032 C187.464,102.743999 187.551999,102.512001 187.728,102.336 C187.904001,102.159999 188.143998,102.072 188.448,102.072 C188.736001,102.072 188.963999,102.159999 189.132,102.336 C189.300001,102.512001 189.384,102.735999 189.384,103.008 L189.384,104.232 C189.768002,103.511996 190.303997,102.964002 190.992,102.588 C191.680003,102.211998 192.463996,102.024 193.344,102.024 Z M204.032,114.168 C203.295996,114.168 202.596003,114.080001 201.932,113.904 C201.267997,113.727999 200.680003,113.480002 200.168,113.16 C199.879999,112.967999 199.676001,112.788001 199.556,112.62 C199.435999,112.451999 199.376,112.248001 199.376,112.008 C199.376,111.799999 199.435999,111.628001 199.556,111.492 C199.676001,111.355999 199.831999,111.288 200.024,111.288 C200.216001,111.288 200.495998,111.407999 200.864,111.648 C201.344002,111.936001 201.819998,112.163999 202.292,112.332 C202.764002,112.500001 203.351996,112.584 204.056,112.584 C204.920004,112.584 205.591998,112.432002 206.072,112.128 C206.552002,111.823998 206.792,111.384003 206.792,110.808 C206.792,110.455998 206.704001,110.172001 206.528,109.956 C206.351999,109.739999 206.048002,109.548001 205.616,109.38 C205.183998,109.211999 204.552004,109.040001 203.72,108.864 C202.311993,108.559998 201.304003,108.152003 200.696,107.64 C200.087997,107.127997 199.784,106.432004 199.784,105.552 C199.784,104.863997 199.975998,104.256003 200.36,103.728 C200.744002,103.199997 201.275997,102.784002 201.956,102.48 C202.636003,102.175998 203.407996,102.024 204.272,102.024 C204.896003,102.024 205.499997,102.107999 206.084,102.276 C206.668003,102.444001 207.183998,102.679998 207.632,102.984 C208.176003,103.368002 208.448,103.767998 208.448,104.184 C208.448,104.392001 208.384001,104.567999 208.256,104.712 C208.127999,104.856001 207.976001,104.928 207.8,104.928 C207.607999,104.928 207.320002,104.792001 206.936,104.52 C206.487998,104.231999 206.064002,104.008001 205.664,103.848 C205.263998,103.687999 204.768003,103.608 204.176,103.608 C203.423996,103.608 202.820002,103.775998 202.364,104.112 C201.907998,104.448002 201.68,104.895997 201.68,105.456 C201.68,105.808002 201.763999,106.091999 201.932,106.308 C202.100001,106.524001 202.379998,106.715999 202.772,106.884 C203.164002,107.052001 203.727996,107.215999 204.464,107.376 C205.552005,107.616001 206.395997,107.879999 206.996,108.168 C207.596003,108.456001 208.023999,108.807998 208.28,109.224 C208.536001,109.640002 208.664,110.167997 208.664,110.808 C208.664,111.816005 208.240004,112.627997 207.392,113.244 C206.543996,113.860003 205.424007,114.168 204.032,114.168 Z" id="Configures-policy-ch"></path>
            </g>
        </g>
    </g>
</svg>