<?xml version="1.0" encoding="UTF-8" standalone="no"?><!DOCTYPE svg PUBLIC "-//W3C//DTD SVG 1.1//EN" "http://www.w3.org/Graphics/SVG/1.1/DTD/svg11.dtd"><svg width="100%" height="100%" viewBox="0 0 150 30" version="1.1" xmlns="http://www.w3.org/2000/svg" xmlns:xlink="http://www.w3.org/1999/xlink" xml:space="preserve" xmlns:serif="http://www.serif.com/" style="fill-rule:evenodd;clip-rule:evenodd;"><g id="Page-1"><rect id="Rectangle" x="-763" y="-1448" width="4368" height="4802" style="fill:none;stroke:#9b9b9b;stroke-width:20px;stroke-dasharray:30,10;"/><g id="Group-69"><g id="Group-54"><g id="Data-Scanning"><text x="5.975px" y="23.012px" style="font-family:'Nunito-Medium', 'Nunito';font-weight:500;font-size:20.741px;fill:#636569;">Data Scanning</text></g></g><path id="Combined-Shape" d="M105.229,507.996c-10.215,1.882 -20.717,2.184 -31.247,0.599c-66.114,-9.946 -109.994,-54.467 -109.994,-117.247c0,-59.329 48.202,-108.042 109.694,-113.219c-1.097,-5.835 -1.67,-11.842 -1.67,-17.975c0,-56.479 48.558,-102.265 108.457,-102.265c8.55,0 16.87,0.933 24.849,2.697c33.962,-67.98 107.389,-115.043 192.497,-115.043c94.478,0 174.562,57.998 202.242,138.224c74.537,18.09 129.61,81.865 129.61,157.764c0,89.968 -77.383,162.901 -172.84,162.901l-451.598,3.564Z" style="fill:none;stroke:#46afe8;stroke-width:10.37px;"/></g></g></svg>