<?xml version="1.0" encoding="UTF-8"?>
<svg width="199px" height="178px" viewBox="0 0 199 178" version="1.1" xmlns="http://www.w3.org/2000/svg" xmlns:xlink="http://www.w3.org/1999/xlink">
    <!-- Generator: Sketch 52.2 (67145) - http://www.bohemiancoding.com/sketch -->
    <title>Group 62</title>
    <desc>Created with Sketch.</desc>
    <defs>
        <rect id="path-1" x="-1303" y="-1302" width="4368" height="4802"></rect>
        <mask id="mask-2" maskContentUnits="userSpaceOnUse" maskUnits="objectBoundingBox" x="0" y="0" width="4368" height="4802" fill="white">
            <use xlink:href="#path-1"></use>
        </mask>
    </defs>
    <g id="Page-1" stroke="none" stroke-width="1" fill="none" fill-rule="evenodd">
        <use id="Rectangle" stroke="#9B9B9B" mask="url(#mask-2)" stroke-width="20" stroke-dasharray="30,10" fill-rule="nonzero" xlink:href="#path-1"></use>
        <g id="Group-62" transform="translate(5.592593, 5.740741)" fill-rule="nonzero">
            <path d="M108.888889,79.2546624 C105.338996,80.7890101 102.049749,82.8366358 99.1336742,85.315242 L99.1336742,43.8558856 L99.1336742,42.5467547 L108.888889,42.5467547 L108.888889,79.2546624 Z M48.3969974,132.222222 L18.8600817,132.222222 C8.4545194,132.222222 0,123.712871 0,113.239824 L0,18.9823982 C0,8.50935094 8.4545194,1.56319402e-13 18.8600817,1.56319402e-13 L66.6162919,1.56319402e-13 L66.6162919,0.654565457 L66.6162919,9.81848185 L20.160777,9.81848185 C13.6573006,9.81848185 9.10486705,14.40044 9.10486705,20.2915292 L9.10486705,112.585259 C9.10486705,119.130913 13.6573006,123.712871 19.5104294,123.712871 L53.9218471,123.712871 C51.5558421,126.136901 49.6575391,129.013732 48.3969974,132.222222 Z M71.7283951,0.864197531 L108.024691,38.0246914 L80.6432749,38.0246914 C74.9122807,38.0246914 71.7283951,35.4169374 71.7283951,28.8975525 L71.7283951,0.864197531 Z" id="Combined-Shape" fill="#646566"></path>
            <path d="M110.662061,85.994459 C124.990725,85.994459 136.811872,95.6401283 140.035822,108.858268 C142.185121,107.42928 145.050854,106.714786 147.55837,106.714786 C155.797352,106.714786 162.603467,113.502479 162.603467,121.71916 C162.603467,123.148148 162.24525,124.577136 161.887034,126.006124 C162.24525,126.006124 162.24525,126.006124 162.603467,126.006124 C171.917098,126.006124 179.797863,133.508311 179.797863,143.153981 C179.797863,152.442403 172.275315,160.301837 162.603467,160.301837 L82.0047336,160.301837 C68.7507196,160.301837 58.3624384,149.584427 58.3624384,136.723535 C58.3624384,124.219889 68.0342864,113.859726 80.2136506,113.145232 C82.3629502,97.7836104 95.2587475,85.994459 110.662061,85.994459 M110.662061,77.7777778 C93.109448,77.7777778 78.0643511,89.5669291 73.4075353,105.643045 C59.7953048,109.572762 50.1234568,122.076407 50.1234568,136.366288 C50.1234568,154.228638 64.4521205,168.518519 82.3629502,168.518519 L162.961684,168.518519 C176.932131,168.518519 188.395062,157.086614 188.395062,143.153981 C188.395062,131.722076 180.872513,122.433654 170.842449,118.861184 C169.409582,107.42928 159.379518,98.4981044 147.55837,98.4981044 C146.841937,98.4981044 145.767287,98.4981044 145.050854,98.4981044 C138.602955,85.994459 125.348941,77.7777778 110.662061,77.7777778" id="Cloud-Copy" fill="#636569" transform="translate(119.259259, 123.148148) scale(-1, 1) translate(-119.259259, -123.148148) "></path>
            <path d="M25.9259259,32.4074074 L55.3802853,32.4074074" id="Path-2" stroke="#636569" stroke-width="5.18518519" stroke-linecap="round"></path>
            <path d="M25.9259259,46.2345679 L55.3802853,46.2345679" id="Path-2-Copy" stroke="#636569" stroke-width="5.18518519" stroke-linecap="round"></path>
            <path d="M25.9259259,60.9259259 L55.3802853,60.9259259" id="Path-2-Copy-2" stroke="#636569" stroke-width="5.18518519" stroke-linecap="round"></path>
            <path d="M25.9259259,75.617284 L84.691358,75.617284" id="Path-2-Copy-3" stroke="#636569" stroke-width="5.18518519" stroke-linecap="round"></path>
            <path d="M25.9259259,90.308642 L76.0493827,90.308642" id="Path-2-Copy-4" stroke="#636569" stroke-width="5.18518519" stroke-linecap="round"></path>
        </g>
    </g>
</svg>