<?xml version="1.0" encoding="UTF-8"?>
<svg width="139px" height="27px" viewBox="0 0 139 27" version="1.1" xmlns="http://www.w3.org/2000/svg" xmlns:xlink="http://www.w3.org/1999/xlink">
    <!-- Generator: Sketch 52.4 (67378) - http://www.bohemiancoding.com/sketch -->
    <title>DEPLOY 2</title>
    <desc>Created with Sketch.</desc>
    <g id="Page-1" stroke="none" stroke-width="1" fill="none" fill-rule="evenodd">
        <g id="Artboard-Copy" transform="translate(-1313.000000, -661.000000)" fill="#FF6C0C">
            <g id="DEPLOY-2" transform="translate(1313.000000, 661.000000)">
                <path d="M2.788,26 C2.21199712,26 1.76200162,25.8380016 1.438,25.514 C1.11399838,25.1899984 0.952,24.7520028 0.952,24.2 L0.952,2.42 C0.952,1.86799724 1.11399838,1.43000162 1.438,1.106 C1.76200162,0.78199838 2.21199712,0.62 2.788,0.62 L9.844,0.62 C13.9480205,0.62 17.1279887,1.72398896 19.384,3.932 C21.6400113,6.14001104 22.768,9.25997984 22.768,13.292 C22.768,17.3240202 21.6400113,20.4499889 19.384,22.67 C17.1279887,24.8900111 13.9480205,26 9.844,26 L2.788,26 Z M9.628,22.904 C15.8680312,22.904 18.988,19.700032 18.988,13.292 C18.988,6.90796808 15.8680312,3.716 9.628,3.716 L4.66,3.716 L4.66,22.904 L9.628,22.904 Z M29.644,26 C29.0679971,26 28.6180016,25.8380016 28.294,25.514 C27.9699984,25.1899984 27.808,24.7520028 27.808,24.2 L27.808,2.42 C27.808,1.86799724 27.9699984,1.43000162 28.294,1.106 C28.6180016,0.78199838 29.0679971,0.62 29.644,0.62 L42.892,0.62 C43.4440028,0.62 43.8699985,0.75199868 44.17,1.016 C44.4700015,1.28000132 44.62,1.6519976 44.62,2.132 C44.62,2.6120024 44.4700015,2.97799874 44.17,3.23 C43.8699985,3.48200126 43.4440028,3.608 42.892,3.608 L31.444,3.608 L31.444,11.6 L42.172,11.6 C42.7240028,11.6 43.1499985,11.7319987 43.45,11.996 C43.7500015,12.2600013 43.9,12.6319976 43.9,13.112 C43.9,13.5920024 43.7500015,13.9639987 43.45,14.228 C43.1499985,14.4920013 42.7240028,14.624 42.172,14.624 L31.444,14.624 L31.444,23.012 L42.892,23.012 C44.0440058,23.012 44.62,23.5039951 44.62,24.488 C44.62,24.9680024 44.4700015,25.3399987 44.17,25.604 C43.8699985,25.8680013 43.4440028,26 42.892,26 L29.644,26 Z M50.704,26.18 C50.1519972,26.18 49.7080017,26.0120017 49.372,25.676 C49.0359983,25.3399983 48.868,24.8840029 48.868,24.308 L48.868,2.42 C48.868,1.86799724 49.0299984,1.43000162 49.354,1.106 C49.6780016,0.78199838 50.1279971,0.62 50.704,0.62 L59.38,0.62 C62.0680134,0.62 64.1559926,1.2799934 65.644,2.6 C67.1320074,3.9200066 67.876,5.79198788 67.876,8.216 C67.876,10.616012 67.1320074,12.4879933 65.644,13.832 C64.1559926,15.1760067 62.0680134,15.848 59.38,15.848 L52.576,15.848 L52.576,24.308 C52.576,24.8840029 52.4140016,25.3399983 52.09,25.676 C51.7659984,26.0120017 51.304003,26.18 50.704,26.18 Z M58.984,12.86 C62.5360178,12.86 64.312,11.3120155 64.312,8.216 C64.312,5.14398464 62.5360178,3.608 58.984,3.608 L52.576,3.608 L52.576,12.86 L58.984,12.86 Z M74.14,26 C73.5879972,26 73.1500016,25.8440016 72.826,25.532 C72.5019984,25.2199984 72.34,24.8000026 72.34,24.272 L72.34,2.312 C72.34,1.75999724 72.5079983,1.31000174 72.844,0.962 C73.1800017,0.61399826 73.6239972,0.44 74.176,0.44 C74.7520029,0.44 75.2079983,0.60799832 75.544,0.944 C75.8800017,1.28000168 76.048,1.73599712 76.048,2.312 L76.048,22.904 L86.992,22.904 C87.5440028,22.904 87.9699985,23.0359987 88.27,23.3 C88.5700015,23.5640013 88.72,23.9479975 88.72,24.452 C88.72,24.9560025 88.5700015,25.3399987 88.27,25.604 C87.9699985,25.8680013 87.5440028,26 86.992,26 L74.14,26 Z M102.94,26.288 C100.539988,26.288 98.4580088,25.7600053 96.694,24.704 C94.9299912,23.6479947 93.5680048,22.1480097 92.608,20.204 C91.6479952,18.2599903 91.168,15.9680132 91.168,13.328 C91.168,10.6639867 91.6419953,8.35400978 92.59,6.398 C93.5380047,4.44199022 94.8999911,2.94200522 96.676,1.898 C98.4520089,0.85399478 100.539988,0.332 102.94,0.332 C105.364012,0.332 107.463991,0.85399478 109.24,1.898 C111.016009,2.94200522 112.377995,4.44199022 113.326,6.398 C114.274005,8.35400978 114.748,10.6519868 114.748,13.292 C114.748,15.9320132 114.274005,18.2299902 113.326,20.186 C112.377995,22.1420098 111.016009,23.6479947 109.24,24.704 C107.463991,25.7600053 105.364012,26.288 102.94,26.288 Z M102.94,23.264 C105.484013,23.264 107.463993,22.4000086 108.88,20.672 C110.296007,18.9439914 111.004,16.484016 111.004,13.292 C111.004,10.099984 110.302007,7.64600858 108.898,5.93 C107.493993,4.21399142 105.508013,3.356 102.94,3.356 C100.419987,3.356 98.458007,4.21399142 97.054,5.93 C95.649993,7.64600858 94.948,10.099984 94.948,13.292 C94.948,16.484016 95.649993,18.9439914 97.054,20.672 C98.458007,22.4000086 100.419987,23.264 102.94,23.264 Z M135.664,1.088 C136.000002,0.65599784 136.419997,0.44 136.924,0.44 C137.356002,0.44 137.745998,0.61399826 138.094,0.962 C138.442002,1.31000174 138.616,1.71199772 138.616,2.168 C138.616,2.60000216 138.472001,2.97199844 138.184,3.284 L129.688,13.868 L129.688,24.308 C129.688,24.908003 129.514002,25.3699984 129.166,25.694 C128.817998,26.0180016 128.368003,26.18 127.816,26.18 C127.263997,26.18 126.820002,26.0180016 126.484,25.694 C126.147998,25.3699984 125.98,24.908003 125.98,24.308 L125.98,13.868 L117.484,3.284 C117.195999,2.97199844 117.052,2.58800228 117.052,2.132 C117.052,1.67599772 117.219998,1.28000168 117.556,0.944 C117.892002,0.60799832 118.287998,0.44 118.744,0.44 C119.224002,0.44 119.643998,0.65599784 120.004,1.088 L127.852,10.952 L135.664,1.088 Z" id="DEPLOY"></path>
            </g>
        </g>
    </g>
</svg>