<?xml version="1.0" encoding="UTF-8"?>
<svg width="310px" height="65px" viewBox="0 0 310 65" version="1.1" xmlns="http://www.w3.org/2000/svg" xmlns:xlink="http://www.w3.org/1999/xlink">
    <!-- Generator: Sketch 52.2 (67145) - http://www.bohemiancoding.com/sketch -->
    <title>Group 4</title>
    <desc>Created with Sketch.</desc>
    <g id="Page-1" stroke="none" stroke-width="1" fill="none" fill-rule="evenodd">
        <g id="Group-4" transform="translate(0.914163, 0.720430)">
            <path d="M35.7591218,11.9772129 L53.6422891,23.9569547 L35.7591218,35.9341675 L53.6422891,47.9139093 L71.5206479,35.9341675 L53.6422891,23.9569547 L71.5206479,11.9772129 L53.6422891,0 L35.7591218,11.9772129 Z M0,11.9772129 L17.8783587,23.9569547 L0,35.9341675 L17.8783587,47.9139093 L35.7591218,35.9341675 L17.8783587,23.9569547 L35.7591218,11.9772129 L17.8783587,0 L0,11.9772129 Z M17.8254642,51.8894538 L35.7038229,63.8666667 L35.7110358,63.8666667 L53.5869903,51.8894538 L35.7062272,39.909712 L17.8254642,51.8894538 Z" id="Fill-1" fill="#0061FF"></path>
            <path d="M288.281911,34.9117136 L277.516737,19.3572493 L286.736118,19.3572493 L292.972262,29.0383357 L299.261376,19.3572493 L308.425378,19.3572493 L297.501291,34.858618 L309.012876,51.6443932 L299.954816,51.6443932 L292.863912,40.9570198 L285.989707,51.6443932 L276.609005,51.6443932 L288.281911,34.9117136 Z M269.737208,36.0874005 L269.737208,35.3036092 C269.737208,29.2608313 266.859914,25.7337706 262.328477,25.7337706 C257.85001,25.7337706 254.866774,29.0383357 254.866774,35.3036092 L254.866774,36.0874005 C254.866774,41.9102112 257.691097,45.1540957 262.275506,45.1540957 C266.912885,45.1540957 269.737208,41.9633067 269.737208,36.0874005 Z M246.76701,36.2011766 L246.76701,35.3036092 C246.76701,24.4468358 253.320981,18.6290819 262.275506,18.6290819 C271.441915,18.6290819 277.836972,24.5580836 277.836972,35.3036092 L277.836972,36.2011766 C277.836972,46.8329261 271.547857,52.4838083 262.275506,52.4838083 C252.362685,52.4838083 246.76701,46.8329261 246.76701,36.2011766 Z M235.149484,35.6980332 L235.149484,34.9117136 C235.149484,28.9801835 232.05549,25.7337706 227.793723,25.7337706 C223.370636,25.7337706 220.332021,29.4858552 220.332021,35.0254897 L220.332021,35.6980332 C220.332021,41.7408111 223.264694,45.2097196 227.687781,45.2097196 C232.325161,45.2097196 235.149484,42.0745545 235.149484,35.6980332 Z M220.226078,45.7684869 L219.588017,51.6443932 L212.658434,51.6443932 L212.658434,8.55357143 L220.493342,8.55357143 L220.493342,25.1193793 C222.200456,20.9223035 225.609869,18.6290819 230.456725,18.6290819 C237.761922,18.6847058 243.196276,24.0018447 243.196276,34.7448419 L243.196276,35.6980332 C243.196276,46.4410304 238.079749,52.4838083 230.244841,52.4838083 C225.183692,52.4838083 221.880222,49.9124673 220.226078,45.7684869 Z M200.347467,36.1430244 L200.347467,35.414857 C200.347467,28.9801835 197.205317,25.7919228 192.994114,25.7919228 C188.515648,25.7919228 185.532412,29.3746075 185.532412,35.3617615 L185.532412,35.9761527 C185.532412,41.6851872 188.409706,45.2653435 192.832793,45.2653435 C197.417202,45.2653435 200.347467,42.0745545 200.347467,36.1430244 Z M177.858825,19.3572493 L184.574116,19.3572493 L185.373498,25.511275 C187.025234,21.3723513 190.434647,18.6290819 195.498203,18.6290819 C203.333111,18.6290819 208.449638,24.5580836 208.449638,35.414857 L208.449638,36.3124244 C208.449638,46.9441739 202.748021,52.4838083 195.498203,52.4838083 C190.595968,52.4838083 187.345468,50.1905868 185.693733,46.4410304 L185.693733,62.7261905 L177.858825,62.7261905 L177.858825,19.3572493 Z M165.547858,36.0874005 L165.547858,35.3036092 C165.547858,29.2608313 162.670564,25.7337706 158.139127,25.7337706 C153.663068,25.7337706 150.679832,29.0383357 150.679832,35.3036092 L150.679832,36.0874005 C150.679832,41.9102112 153.501747,45.1540957 158.086155,45.1540957 C162.670564,45.1540957 165.547858,41.9633067 165.547858,36.0874005 Z M142.57766,36.2011766 L142.57766,35.3036092 C142.57766,24.4468358 149.184602,18.6290819 158.139127,18.6290819 C167.307943,18.6290819 173.650029,24.5580836 173.650029,35.3036092 L173.650029,36.2011766 C173.650029,46.8329261 167.413886,52.4838083 158.139127,52.4838083 C148.228714,52.4838083 142.57766,46.8329261 142.57766,36.2011766 Z M121.367548,19.3572493 L127.815576,19.3572493 L128.826843,26.8538336 C130.054809,21.7060947 133.199367,19.0740731 138.900984,19.0740731 L140.872954,19.0740731 L140.872954,27.6376248 L137.569483,27.6376248 C130.960134,27.6376248 129.361369,30.0446226 129.361369,36.8711918 L129.361369,51.6443932 L121.367548,51.6443932 L121.367548,19.3572493 Z M93.8153493,18.9628253 L93.8153493,44.3146805 L100.051493,44.3146805 C105.273963,44.3146805 108.844697,40.676372 108.844697,32.6741159 L108.844697,30.6033899 C108.844697,22.6011338 105.165613,18.9628253 99.7842298,18.9628253 L93.8153493,18.9628253 Z M85.7155856,11.7443604 L100.210406,11.7443604 C109.482758,11.7443604 117.05281,17.3952427 117.05281,30.2140226 L117.05281,32.9547637 C117.05281,45.8241108 109.911342,51.6443932 100.424699,51.6443932 L85.7155856,51.6443932 L85.7155856,11.7443604 Z" id="Fill-2" fill="#000000"></path>
        </g>
    </g>
</svg>