<?xml version="1.0" encoding="UTF-8"?>
<svg width="132px" height="132px" viewBox="0 0 132 132" version="1.1" xmlns="http://www.w3.org/2000/svg" xmlns:xlink="http://www.w3.org/1999/xlink">
    <!-- Generator: Sketch 52.3 (67297) - http://www.bohemiancoding.com/sketch -->
    <title>Engineering Copy</title>
    <desc>Created with Sketch.</desc>
    <g id="Page-1" stroke="none" stroke-width="1" fill="none" fill-rule="evenodd">
        <g id="Artboard-Copy-28" transform="translate(-1513.000000, -1270.000000)" fill="#636569">
            <g id="Engineering-Copy" transform="translate(1513.000000, 1270.000000)">
                <path d="M66.0164872,43 C64.100764,43 62.1809735,43.2399859 60.318126,43.7199576 C54.3594542,45.2330887 49.3525429,48.9793085 46.2206813,54.2671324 C43.092887,59.5468211 42.2062041,65.733575 43.7233267,71.6925458 C46.3264325,81.8817756 55.4820435,89 65.9920831,89 C67.9078062,89 69.8275967,88.7559466 71.6945116,88.2800424 C77.6450487,86.7547086 82.65196,83.0125564 85.7797542,77.7288001 C88.9116158,72.4531789 89.7942314,66.2623574 88.2730415,60.3155894 C85.6577336,50.1182244 76.5061899,43 66.0164872,43 M66.0164872,47.3563533 C74.3301562,47.3522858 81.891365,52.9614466 84.0551967,61.3934919 C86.6135615,71.3671412 80.5938795,81.5075604 70.6207305,84.0579185 C69.0710691,84.456539 67.5214077,84.6477142 65.9920831,84.6477142 C57.6743467,84.6477142 50.0968685,79.0426209 47.9452389,70.6146432 C45.3950087,60.6328588 51.4024887,50.480237 61.3878397,47.938014 C62.9375011,47.5393934 64.4871625,47.3563533 66.0164872,47.3563533" id="Fill-132"></path>
                <path d="M66.0326084,24 C62.5948659,24 59.1006347,24.4236108 55.6144733,25.3152106 C33.1117856,31.0440421 19.5746658,53.9069209 25.3203763,76.3946016 C30.166302,95.3763988 47.246072,108 65.9841895,108 C69.4259669,108 72.9201981,107.576389 76.4063595,106.684789 C98.872733,100.943855 112.434062,78.0930791 106.676247,55.6336391 C101.802077,36.6276356 84.766691,24 66.0326084,24 M66.0326084,28.3208299 C83.213251,28.3208299 98.206973,39.9923155 102.492046,56.702752 C104.989655,66.4457999 103.541123,76.5721147 98.4127534,85.2258777 C93.284384,93.8756064 85.0854488,100.011911 75.3371086,102.505163 C72.2665428,103.2838 69.1233487,103.683204 65.9841895,103.683204 C48.7672327,103.683204 33.761406,92.0238221 29.5005421,75.3254887 C27.0069683,65.5622689 28.4595355,55.4238509 33.5879049,46.7741223 C38.7162743,38.1203593 46.9192443,31.9840546 56.6796893,29.4988713 C59.7542899,28.7162 62.8974841,28.3208299 66.0326084,28.3208299" id="Fill-133"></path>
                <path d="M92.7408905,104.546216 C92.6842329,104.58669 92.6356693,104.63526 92.5790118,104.679781 C88.1556765,107.719409 83.129343,110.050734 77.6254675,111.459243 C75.7962382,111.924699 73.962962,112.264684 72.1377797,112.50753 C71.7492709,112.560147 71.360762,112.600621 70.9722531,112.637048 C70.5028049,112.693712 70.0293097,112.738234 69.5598615,112.774661 C69.1713527,112.802993 68.7868908,112.831325 68.3983819,112.851562 C67.8318065,112.883942 67.2652311,112.896084 66.6986556,112.904179 C63.6917589,112.948701 60.6889091,112.713949 57.6577306,112.167545 C50.9599996,110.949266 44.6386366,108.298193 39.1266671,104.449077 C38.021845,103.671969 36.9493987,102.858434 35.921469,102.000376 C35.921469,101.996329 35.913375,101.992281 35.9093281,101.988234 C34.8530696,101.101845 33.8332338,100.174981 32.8538677,99.199548 C32.8376799,99.1752634 32.813398,99.1509787 32.7931632,99.1307415 C31.825938,98.1634034 30.9072764,97.1555909 30.0250375,96.1032566 C30.0128966,96.0870668 30.0007557,96.0749245 29.9926618,96.0587347 C29.1104229,95.0023529 28.2686537,93.9054968 27.4754481,92.7681662 C24.3714242,88.2957452 21.9837134,83.204066 20.5591809,77.6145516 C20.1868599,76.1534259 19.8914313,74.6923001 19.6648011,73.2311744 C19.6364724,73.0571344 19.6081436,72.887142 19.5798148,72.7090546 C19.4988755,72.1343182 19.4260301,71.5595817 19.3653256,70.9807978 C19.3450907,70.7946156 19.3208089,70.6124808 19.3005741,70.4222511 C19.2358226,69.7179966 19.183212,69.0177895 19.1467893,68.3175825 C19.1427424,68.2771081 19.1427424,68.2406811 19.1386954,68.1961593 C19.1022727,67.4352406 19.0820378,66.666227 19.0860848,65.9053083 C19.0860848,65.7798377 19.0941788,65.6543671 19.0941788,65.5288964 C19.0982257,64.9501126 19.1144136,64.3753761 19.1386954,63.8087345 C19.1629772,63.2906622 19.2034469,62.7685425 19.2439165,62.2423753 C19.2560574,62.0845252 19.2681983,61.9226276 19.2843862,61.7566826 C19.3410438,61.1212345 19.4138892,60.4857865 19.4988755,59.8422436 C19.5029225,59.8017692 19.5069694,59.7572473 19.5150634,59.7127255 C19.6040966,59.0489454 19.7093178,58.3892127 19.8266798,57.7335274 C21.0245822,51.0350146 23.6632049,44.7210085 27.495683,39.2083955 C30.7008811,34.6105039 34.6547682,30.6561553 39.2561701,27.4546304 C39.3128276,27.414156 39.3573442,27.3655867 39.4099548,27.3251123 C43.845431,24.2814376 48.8798584,21.9501123 54.3999219,20.5416033 C56.2777147,20.0640054 58.1595545,19.7159255 60.0333004,19.4690317 C60.2599306,19.4406996 60.4825138,19.4204624 60.709144,19.3961778 C61.3647527,19.3192764 62.0203614,19.2545174 62.6719231,19.2099956 C62.9430699,19.1897584 63.2101698,19.1735686 63.4772696,19.1573789 C64.2583343,19.112857 65.0313051,19.0845249 65.8042758,19.0845249 C68.6412,19.0683352 71.4740771,19.3192764 74.331236,19.8292539 C81.0815776,21.0515807 87.4515042,23.7390807 92.9918025,27.6408126 C93.9266519,28.3005453 94.8291256,28.996705 95.7113645,29.7171492 C95.9663235,29.9276161 96.2172354,30.1421304 96.4721944,30.3566447 C97.3139636,31.077089 98.131451,31.8177705 98.9165627,32.5948789 C99.1350989,32.8134407 99.3455412,33.0320024 99.5600305,33.2505642 C100.296579,34.0074354 101.004798,34.7804964 101.688735,35.5818895 C101.903225,35.8328308 102.113667,36.0878195 102.324109,36.3428082 C102.971624,37.1401538 103.594857,37.9577366 104.193808,38.7955567 C107.455664,43.3853534 109.952643,48.6308354 111.43788,54.4146268 C112.619594,59.0448979 113.068807,63.6913588 112.858365,68.2285388 C112.83813,68.7223264 112.797661,69.2161141 112.761238,69.7179966 C112.74505,69.8920365 112.732909,70.0701239 112.720768,70.2401164 C112.656017,70.8958016 112.587218,71.5555343 112.498185,72.2071721 C112.494138,72.2274093 112.494138,72.2476465 112.490091,72.2638362 C112.397011,72.9438061 112.29179,73.6197286 112.170381,74.295651 C110.964384,80.9982113 108.317668,87.3162648 104.477096,92.8329252 C101.275945,97.4105796 97.3301515,101.356833 92.7408905,104.546216 M129.406415,76.0643822 L121.207259,72.4783506 C121.571486,69.3092052 121.676707,66.1076803 121.4865,62.8980606 C121.470312,62.6390244 121.441983,62.3799883 121.425795,62.129047 C121.377231,61.4207451 121.316527,60.7164905 121.239635,60.0081886 C121.2194,59.8503384 121.211306,59.6924883 121.195118,59.5305907 L129.365945,55.9526539 C131.26802,55.1229288 132.30809,53.054687 131.850783,51.0309671 L131.753656,50.5817013 C131.656528,50.1567202 131.563448,49.731739 131.45418,49.3027104 C129.701843,42.4665846 126.913483,35.9785386 123.165991,30.0166598 C122.061169,28.2560235 119.855572,27.5315318 117.925168,28.288403 L109.600556,31.5425446 C109.260611,31.1054211 108.892337,30.6925822 108.532157,30.2716485 C108.386466,30.0935611 108.240775,29.9154738 108.095085,29.7454813 C107.698482,29.2840732 107.301879,28.8348074 106.893135,28.3936364 C106.682693,28.1629324 106.468204,27.9403232 106.253714,27.717714 C105.630481,27.0620288 104.991061,26.4225333 104.339499,25.7951801 C104.015742,25.4835272 103.691984,25.1759218 103.360133,24.8723638 C103.016141,24.560711 102.664054,24.2531055 102.311968,23.9495476 C101.907272,23.6014677 101.494481,23.2533879 101.077643,22.9174504 C100.867201,22.7434105 100.6689,22.5612757 100.45441,22.3953307 L103.704125,14.069747 C104.464955,12.1350708 103.740548,9.93731103 101.984164,8.82831253 C95.5009222,4.74849323 88.4389642,1.81005194 80.9925443,0.110127236 C78.9609667,-0.355328339 76.8970133,0.688911125 76.0633381,2.59525526 L72.473678,10.7953683 C71.4578892,10.6779925 70.4340065,10.5889488 69.4060768,10.5241898 L69.0944603,10.508 C68.0786715,10.4513359 67.0669297,10.4149089 66.0389999,10.4149089 L66.0389999,10.4189564 L66.0389999,10.4149089 L66.034953,10.4149089 C65.8568864,10.4149089 65.6747729,10.4310987 65.4967063,10.4310987 C64.5578099,10.4391936 63.6189135,10.4634782 62.6800171,10.5201424 C62.2793673,10.5403796 61.8868115,10.5929963 61.4861617,10.6253758 C60.8386469,10.6779925 60.1870852,10.7225143 59.5274295,10.7994157 L55.9458634,2.60739758 C55.1121881,0.705100884 53.0401408,-0.33913858 51.0126102,0.122269555 L50.5229271,0.22750299 C50.1101365,0.320594105 49.6973458,0.40963778 49.2926491,0.514871214 C42.4492273,2.25931776 35.9659856,5.03586145 30.0048027,8.77974325 C28.2443719,9.88874175 27.5159178,12.090549 28.2767477,14.0252252 L31.5386033,22.3750935 C28.1553386,25.0423563 25.0877374,28.1143631 22.3924571,31.5425446 L14.0516574,28.2803081 C12.117207,27.5193894 9.91160985,28.2479286 8.80678776,30.0085649 C4.73149165,36.488516 1.80553426,43.5553459 0.109854939,51.0066825 C-0.355546306,53.0344498 0.692618236,55.1026916 2.59469289,55.9364642 L10.7978957,59.5265432 C10.4255747,62.7240207 10.3244005,65.9538776 10.5186549,69.1918294 C10.5227019,69.252541 10.5267489,69.3173001 10.5348428,69.3780117 C10.5915004,70.300828 10.6724397,71.2236442 10.7776609,72.1424131 C10.7898018,72.2557414 10.7938487,72.3609748 10.8059896,72.4702557 L2.62302166,76.0522399 C0.71690004,76.8860125 -0.323170567,78.9542542 0.134136743,80.9820215 L0.243404861,81.4596194 C0.33648511,81.888648 0.433612326,82.3136292 0.538833477,82.7305155 C2.27902944,89.5585464 5.059296,96.042545 8.80678776,101.996329 C9.91160985,103.752918 12.1091131,104.477409 14.0516574,103.720538 L22.3884102,100.462349 C25.0836904,103.874341 28.1593856,106.938253 31.5426503,109.617658 L28.2888886,117.939194 C27.5321057,119.869823 28.2605598,122.075678 30.0169436,123.180629 C36.4961383,127.260448 43.5621433,130.186747 51.0085632,131.886672 C51.3282737,131.96762 51.652031,132 51.9717415,132 C53.6633738,132 55.2376441,131.00433 55.9377695,129.409639 L59.5274295,121.205478 C60.5634531,121.326901 61.6075707,121.415945 62.6597822,121.480704 C62.7245337,121.484751 62.7933321,121.492846 62.8621306,121.492846 C63.8981542,121.54951 64.9382248,121.589985 65.9863894,121.589985 C66.7634071,121.589985 67.5444718,121.54951 68.3255365,121.517131 C68.637153,121.500941 68.9447225,121.500941 69.256339,121.492846 C69.996934,121.44023 70.7334821,121.363328 71.4700301,121.290474 C71.8059284,121.254047 72.1337328,121.237858 72.4696311,121.197383 L76.0592911,129.405591 C76.8889194,131.30384 78.9569197,132.352127 80.9804034,131.886672 L81.4619925,131.781438 C81.8869241,131.688347 82.3159026,131.599303 82.7448811,131.485975 C89.5640211,129.749623 96.0432158,126.960937 101.996305,123.217056 C103.752689,122.112105 104.481143,119.910297 103.72436,117.975621 L100.458457,109.6298 C103.841722,106.95849 106.909323,103.886483 109.604603,100.462349 L117.945403,103.720538 C119.8839,104.477409 122.085451,103.752918 123.190273,101.996329 C127.269616,95.5123304 130.195573,88.4414531 131.891253,80.9982113 C132.352607,78.970444 131.312536,76.8981548 129.406415,76.0643822" id="Fill-134"></path>
            </g>
        </g>
    </g>
</svg>