<?xml version="1.0" encoding="UTF-8" standalone="no"?><!DOCTYPE svg PUBLIC "-//W3C//DTD SVG 1.1//EN" "http://www.w3.org/Graphics/SVG/1.1/DTD/svg11.dtd"><svg width="100%" height="100%" viewBox="0 0 190 27" version="1.1" xmlns="http://www.w3.org/2000/svg" xmlns:xlink="http://www.w3.org/1999/xlink" xml:space="preserve" xmlns:serif="http://www.serif.com/" style="fill-rule:evenodd;clip-rule:evenodd;stroke-linejoin:round;stroke-miterlimit:1.41421;"><g id="Exchange-Server"><path d="M10.363,20l8.86,0c0.328,0 0.582,-0.105 0.761,-0.316c0.18,-0.211 0.27,-0.454 0.27,-0.727c0,-0.281 -0.09,-0.529 -0.27,-0.744c-0.179,-0.215 -0.433,-0.322 -0.761,-0.322l-7.512,0l0,-5.473l6.809,0c0.328,0 0.584,-0.104 0.767,-0.311c0.184,-0.207 0.276,-0.447 0.276,-0.72c0,-0.282 -0.09,-0.524 -0.27,-0.727c-0.18,-0.203 -0.438,-0.305 -0.773,-0.305l-6.809,0l0,-5.027l7.23,0c0.321,0 0.571,-0.107 0.75,-0.322c0.18,-0.215 0.27,-0.463 0.27,-0.744c0,-0.282 -0.09,-0.528 -0.27,-0.739c-0.179,-0.211 -0.429,-0.316 -0.75,-0.316l-8.625,0c-0.351,0 -0.65,0.129 -0.896,0.387c-0.246,0.258 -0.369,0.558 -0.369,0.902l0,14.215c0,0.336 0.135,0.635 0.404,0.896c0.27,0.262 0.572,0.393 0.908,0.393Z" style="fill:#636569;fill-rule:nonzero;"/><path d="M31.785,20c0.313,0 0.588,-0.109 0.826,-0.328c0.239,-0.219 0.358,-0.473 0.358,-0.762c0,-0.219 -0.078,-0.426 -0.235,-0.621l-3.539,-4.336l3.293,-4.055c0.149,-0.195 0.223,-0.39 0.223,-0.586c0,-0.265 -0.106,-0.498 -0.316,-0.697c-0.211,-0.199 -0.454,-0.299 -0.727,-0.299c-0.305,0 -0.578,0.149 -0.82,0.446l-2.93,3.621l-2.918,-3.574c-0.258,-0.329 -0.562,-0.493 -0.914,-0.493c-0.313,0 -0.586,0.112 -0.82,0.334c-0.235,0.223 -0.352,0.483 -0.352,0.78c0,0.234 0.074,0.445 0.223,0.632l3.234,3.961l-3.586,4.395c-0.14,0.164 -0.211,0.348 -0.211,0.551c0,0.265 0.112,0.504 0.334,0.715c0.223,0.211 0.479,0.316 0.768,0.316c0.297,0 0.562,-0.145 0.797,-0.434l3.187,-3.984l3.211,3.938c0.242,0.32 0.547,0.48 0.914,0.48Z" style="fill:#636569;fill-rule:nonzero;"/><path d="M40.551,20.188c1.554,0 2.746,-0.344 3.574,-1.032c0.141,-0.117 0.244,-0.242 0.311,-0.375c0.066,-0.133 0.099,-0.261 0.099,-0.386c0,-0.094 -0.017,-0.186 -0.053,-0.276c-0.035,-0.09 -0.086,-0.166 -0.152,-0.228c-0.066,-0.063 -0.142,-0.112 -0.228,-0.147c-0.086,-0.035 -0.18,-0.053 -0.282,-0.053c-0.086,0 -0.174,0.014 -0.263,0.041c-0.09,0.028 -0.178,0.073 -0.264,0.135c-0.68,0.477 -1.535,0.715 -2.566,0.715c-0.743,0 -1.381,-0.203 -1.916,-0.609c-0.536,-0.407 -0.928,-0.938 -1.178,-1.594c-0.25,-0.656 -0.375,-1.395 -0.375,-2.215c0,-1.344 0.326,-2.42 0.978,-3.228c0.653,-0.809 1.522,-1.213 2.608,-1.213c0.828,0 1.582,0.207 2.261,0.621c0.165,0.094 0.333,0.14 0.504,0.14c0.141,0 0.268,-0.029 0.381,-0.088c0.114,-0.058 0.203,-0.14 0.27,-0.246c0.066,-0.105 0.099,-0.22 0.099,-0.345c0,-0.274 -0.148,-0.52 -0.445,-0.739c-0.344,-0.257 -0.795,-0.478 -1.353,-0.662c-0.559,-0.183 -1.182,-0.275 -1.87,-0.275c-1.148,0 -2.166,0.271 -3.052,0.814c-0.887,0.543 -1.565,1.27 -2.034,2.18c-0.468,0.91 -0.703,1.92 -0.703,3.029c0,1.118 0.223,2.131 0.668,3.041c0.446,0.911 1.102,1.637 1.969,2.18c0.867,0.543 1.871,0.815 3.012,0.815Z" style="fill:#636569;fill-rule:nonzero;"/><path d="M48.086,20c0.328,0 0.609,-0.1 0.844,-0.299c0.234,-0.199 0.351,-0.478 0.351,-0.838l0,-5.508c0,-1.101 0.317,-1.968 0.949,-2.601c0.633,-0.633 1.403,-0.949 2.309,-0.949c0.742,0 1.332,0.226 1.77,0.679c0.437,0.453 0.656,1.133 0.656,2.039l0,6.34c0,0.36 0.115,0.639 0.346,0.838c0.23,0.199 0.505,0.299 0.826,0.299c0.328,0 0.609,-0.1 0.843,-0.299c0.235,-0.199 0.352,-0.478 0.352,-0.838l0,-6.269c0,-0.766 -0.115,-1.442 -0.346,-2.028c-0.23,-0.586 -0.543,-1.052 -0.937,-1.4c-0.395,-0.348 -0.838,-0.607 -1.33,-0.779c-0.492,-0.172 -1.024,-0.258 -1.594,-0.258c-0.867,0 -1.641,0.17 -2.32,0.51c-0.68,0.34 -1.188,0.806 -1.524,1.4l0,-5.719c0,-0.343 -0.117,-0.613 -0.351,-0.808c-0.235,-0.196 -0.512,-0.293 -0.832,-0.293c-0.321,0 -0.598,0.097 -0.832,0.293c-0.235,0.195 -0.352,0.465 -0.352,0.808l0,14.543c0,0.36 0.115,0.639 0.346,0.838c0.23,0.199 0.506,0.299 0.826,0.299Z" style="fill:#636569;fill-rule:nonzero;"/><path d="M63.836,20.188c1.641,0 2.809,-0.715 3.504,-2.145l0,0.867c0,0.235 0.056,0.436 0.17,0.604c0.113,0.168 0.254,0.293 0.422,0.375c0.168,0.082 0.353,0.123 0.556,0.123c0.313,0 0.586,-0.1 0.821,-0.299c0.234,-0.199 0.351,-0.475 0.351,-0.826l0,-6.61c0,-1.422 -0.414,-2.468 -1.242,-3.14c-0.828,-0.672 -1.961,-1.008 -3.398,-1.008c-1.665,0 -3.102,0.328 -4.313,0.984c-0.133,0.071 -0.23,0.158 -0.293,0.264c-0.062,0.105 -0.094,0.225 -0.094,0.357c0,0.071 0.01,0.141 0.03,0.211c0.019,0.071 0.046,0.139 0.082,0.205c0.035,0.067 0.078,0.129 0.129,0.188c0.05,0.058 0.107,0.109 0.169,0.152c0.063,0.043 0.129,0.076 0.2,0.1c0.07,0.023 0.144,0.035 0.222,0.035c0.102,0 0.2,-0.02 0.293,-0.059c0.407,-0.171 0.733,-0.304 0.979,-0.398c0.246,-0.094 0.611,-0.193 1.096,-0.299c0.484,-0.105 0.957,-0.158 1.418,-0.158c1.578,0 2.367,0.789 2.367,2.367l0,1.149c-0.844,0 -1.557,0.009 -2.139,0.029c-0.582,0.019 -1.16,0.058 -1.734,0.117c-0.575,0.059 -1.043,0.143 -1.407,0.252c-0.363,0.109 -0.705,0.252 -1.025,0.428c-0.32,0.176 -0.566,0.39 -0.738,0.644c-0.172,0.254 -0.307,0.555 -0.405,0.903c-0.097,0.347 -0.146,0.752 -0.146,1.212c0,1.079 0.383,1.911 1.148,2.497c0.766,0.586 1.758,0.878 2.977,0.878Zm0.234,-1.546c-0.648,0 -1.164,-0.157 -1.547,-0.469c-0.382,-0.313 -0.574,-0.797 -0.574,-1.453c0,-0.313 0.031,-0.58 0.094,-0.803c0.062,-0.223 0.182,-0.416 0.357,-0.58c0.176,-0.164 0.385,-0.293 0.627,-0.387c0.243,-0.094 0.577,-0.17 1.002,-0.228c0.426,-0.059 0.889,-0.098 1.389,-0.117c0.5,-0.02 1.125,-0.03 1.875,-0.03l0,0.328c0,1.086 -0.324,1.981 -0.973,2.684c-0.648,0.703 -1.398,1.055 -2.25,1.055Z" style="fill:#636569;fill-rule:nonzero;"/><path d="M74.16,20c0.32,0 0.598,-0.1 0.832,-0.299c0.235,-0.199 0.352,-0.474 0.352,-0.826l0,-5.566c0.031,-1.094 0.351,-1.963 0.961,-2.608c0.609,-0.644 1.347,-0.967 2.215,-0.967c0.773,0 1.386,0.246 1.839,0.739c0.454,0.492 0.68,1.207 0.68,2.144l0,6.258c0,0.352 0.115,0.627 0.346,0.826c0.23,0.199 0.506,0.299 0.826,0.299c0.32,0 0.6,-0.1 0.838,-0.299c0.238,-0.199 0.357,-0.474 0.357,-0.826l0,-6.234c0,-0.766 -0.109,-1.444 -0.328,-2.034c-0.219,-0.589 -0.525,-1.062 -0.92,-1.418c-0.394,-0.355 -0.844,-0.621 -1.347,-0.796c-0.504,-0.176 -1.057,-0.264 -1.659,-0.264c-0.89,0 -1.67,0.18 -2.338,0.539c-0.668,0.359 -1.158,0.879 -1.47,1.559l0,-0.832c0,-0.336 -0.115,-0.598 -0.346,-0.786c-0.23,-0.187 -0.506,-0.281 -0.826,-0.281c-0.32,0 -0.598,0.096 -0.832,0.287c-0.235,0.192 -0.352,0.463 -0.352,0.815l0,9.445c0,0.352 0.116,0.627 0.346,0.826c0.23,0.199 0.506,0.299 0.826,0.299Z" style="fill:#636569;fill-rule:nonzero;"/><path d="M91.621,25.039c1.758,0 3.149,-0.43 4.172,-1.289c1.023,-0.859 1.535,-2.152 1.535,-3.879l0,-10.441c0,-0.352 -0.109,-0.625 -0.328,-0.821c-0.219,-0.195 -0.48,-0.293 -0.785,-0.293c-0.274,0 -0.516,0.082 -0.727,0.247c-0.211,0.164 -0.332,0.394 -0.363,0.691l0,0.961c-0.391,-0.672 -0.881,-1.188 -1.471,-1.547c-0.59,-0.359 -1.369,-0.539 -2.338,-0.539c-1.656,0 -2.962,0.572 -3.92,1.717c-0.957,1.144 -1.435,2.603 -1.435,4.377c0,1.711 0.486,3.101 1.459,4.172c0.973,1.07 2.295,1.605 3.967,1.605c0.851,0 1.592,-0.186 2.22,-0.557c0.629,-0.371 1.112,-0.892 1.448,-1.564l0,2.121c0,1.094 -0.311,1.939 -0.932,2.537c-0.621,0.598 -1.51,0.897 -2.666,0.897c-0.352,0 -0.707,-0.032 -1.066,-0.094c-0.36,-0.063 -0.625,-0.117 -0.797,-0.164c-0.172,-0.047 -0.446,-0.139 -0.821,-0.276c-0.375,-0.136 -0.578,-0.212 -0.609,-0.228c-0.101,-0.039 -0.203,-0.059 -0.305,-0.059c-0.109,0 -0.211,0.022 -0.304,0.065c-0.094,0.043 -0.174,0.101 -0.241,0.176c-0.066,0.074 -0.119,0.16 -0.158,0.257c-0.039,0.098 -0.058,0.198 -0.058,0.299c0,0.313 0.148,0.555 0.445,0.727c0.43,0.25 1.004,0.463 1.723,0.638c0.718,0.176 1.504,0.264 2.355,0.264Zm0.141,-6.598c-0.469,0 -0.907,-0.086 -1.313,-0.257c-0.406,-0.172 -0.769,-0.428 -1.09,-0.768c-0.32,-0.34 -0.574,-0.789 -0.761,-1.348c-0.188,-0.558 -0.282,-1.197 -0.282,-1.916c0,-0.484 0.041,-0.941 0.123,-1.371c0.082,-0.429 0.213,-0.832 0.393,-1.207c0.18,-0.375 0.402,-0.697 0.668,-0.967c0.266,-0.269 0.592,-0.482 0.979,-0.638c0.386,-0.156 0.814,-0.235 1.283,-0.235c0.484,0 0.916,0.079 1.295,0.235c0.379,0.156 0.691,0.367 0.937,0.633c0.246,0.265 0.449,0.587 0.61,0.966c0.16,0.379 0.273,0.78 0.339,1.202c0.067,0.421 0.1,0.878 0.1,1.371c0,1.398 -0.305,2.464 -0.914,3.199c-0.609,0.734 -1.399,1.101 -2.367,1.101Z" style="fill:#636569;fill-rule:nonzero;"/><path d="M105.801,20.188c1.711,0 3.172,-0.536 4.383,-1.606c0.125,-0.102 0.216,-0.215 0.275,-0.34c0.059,-0.125 0.088,-0.254 0.088,-0.387c0,-0.14 -0.033,-0.273 -0.1,-0.398c-0.066,-0.125 -0.156,-0.225 -0.269,-0.299c-0.114,-0.074 -0.237,-0.111 -0.369,-0.111c-0.079,0 -0.155,0.014 -0.229,0.041c-0.074,0.027 -0.15,0.068 -0.228,0.123c-0.555,0.406 -1.098,0.728 -1.629,0.967c-0.532,0.238 -1.118,0.357 -1.758,0.357c-1.078,-0.015 -1.949,-0.34 -2.613,-0.972c-0.665,-0.633 -1.012,-1.598 -1.043,-2.895l7.851,0c0.25,0 0.438,-0.082 0.563,-0.246c0.125,-0.164 0.187,-0.375 0.187,-0.633c-0.015,-0.781 -0.131,-1.502 -0.346,-2.162c-0.214,-0.66 -0.527,-1.256 -0.937,-1.787c-0.41,-0.531 -0.961,-0.949 -1.652,-1.254c-0.692,-0.305 -1.487,-0.457 -2.385,-0.457c-0.883,0 -1.686,0.162 -2.408,0.486c-0.723,0.324 -1.319,0.762 -1.787,1.313c-0.469,0.551 -0.831,1.181 -1.084,1.892c-0.254,0.711 -0.381,1.465 -0.381,2.262c0,1.875 0.545,3.357 1.634,4.447c1.09,1.09 2.502,1.643 4.237,1.659Zm-3.469,-6.95c0.039,-0.445 0.135,-0.871 0.287,-1.277c0.152,-0.406 0.363,-0.779 0.633,-1.119c0.269,-0.34 0.615,-0.61 1.037,-0.809c0.422,-0.199 0.891,-0.299 1.406,-0.299c1,0 1.762,0.33 2.285,0.991c0.524,0.66 0.821,1.498 0.891,2.513l-6.539,0Z" style="fill:#636569;fill-rule:nonzero;"/><path d="M126.191,20.258c1.297,0 2.428,-0.19 3.393,-0.569c0.965,-0.378 1.713,-0.939 2.244,-1.681c0.531,-0.742 0.797,-1.625 0.797,-2.649c0,-0.648 -0.096,-1.22 -0.287,-1.716c-0.192,-0.497 -0.484,-0.924 -0.879,-1.284c-0.395,-0.359 -0.836,-0.664 -1.324,-0.914c-0.489,-0.25 -1.088,-0.492 -1.799,-0.726l-3.551,-1.149c-0.687,-0.218 -1.191,-0.5 -1.512,-0.843c-0.32,-0.344 -0.48,-0.801 -0.48,-1.372c0,-0.796 0.342,-1.39 1.025,-1.781c0.684,-0.39 1.592,-0.586 2.725,-0.586c1.414,0 2.785,0.399 4.113,1.196c0.18,0.109 0.36,0.164 0.539,0.164c0.282,0 0.52,-0.112 0.715,-0.334c0.195,-0.223 0.293,-0.471 0.293,-0.744c0,-0.266 -0.098,-0.481 -0.293,-0.645c-0.547,-0.477 -1.332,-0.889 -2.355,-1.236c-1.024,-0.348 -2.094,-0.522 -3.211,-0.522c-1.156,0 -2.194,0.178 -3.112,0.533c-0.918,0.356 -1.648,0.885 -2.191,1.588c-0.543,0.703 -0.814,1.524 -0.814,2.461c0,1.133 0.3,2.03 0.902,2.69c0.601,0.66 1.535,1.201 2.801,1.623l3.562,1.183c0.914,0.305 1.565,0.645 1.951,1.02c0.387,0.375 0.58,0.926 0.58,1.652c0,0.821 -0.349,1.446 -1.048,1.875c-0.7,0.43 -1.604,0.645 -2.713,0.645c-1.711,0 -3.27,-0.508 -4.676,-1.524c-0.047,-0.031 -0.094,-0.054 -0.141,-0.07c-0.047,-0.016 -0.097,-0.023 -0.152,-0.023c-0.266,0 -0.527,0.156 -0.785,0.468c-0.258,0.313 -0.387,0.614 -0.387,0.903c0,0.078 0.012,0.15 0.035,0.216c0.024,0.067 0.063,0.123 0.117,0.17c1.485,1.321 3.457,1.981 5.918,1.981Z" style="fill:#636569;fill-rule:nonzero;"/><path d="M140.746,20.188c1.711,0 3.172,-0.536 4.383,-1.606c0.125,-0.102 0.217,-0.215 0.275,-0.34c0.059,-0.125 0.088,-0.254 0.088,-0.387c0,-0.14 -0.033,-0.273 -0.099,-0.398c-0.067,-0.125 -0.157,-0.225 -0.27,-0.299c-0.113,-0.074 -0.236,-0.111 -0.369,-0.111c-0.078,0 -0.154,0.014 -0.229,0.041c-0.074,0.027 -0.15,0.068 -0.228,0.123c-0.555,0.406 -1.098,0.728 -1.629,0.967c-0.531,0.238 -1.117,0.357 -1.758,0.357c-1.078,-0.015 -1.949,-0.34 -2.613,-0.972c-0.664,-0.633 -1.012,-1.598 -1.043,-2.895l7.851,0c0.25,0 0.438,-0.082 0.563,-0.246c0.125,-0.164 0.187,-0.375 0.187,-0.633c-0.015,-0.781 -0.13,-1.502 -0.345,-2.162c-0.215,-0.66 -0.528,-1.256 -0.938,-1.787c-0.41,-0.531 -0.961,-0.949 -1.652,-1.254c-0.691,-0.305 -1.486,-0.457 -2.385,-0.457c-0.883,0 -1.685,0.162 -2.408,0.486c-0.723,0.324 -1.318,0.762 -1.787,1.313c-0.469,0.551 -0.83,1.181 -1.084,1.892c-0.254,0.711 -0.381,1.465 -0.381,2.262c0,1.875 0.545,3.357 1.635,4.447c1.09,1.09 2.502,1.643 4.236,1.659Zm-3.469,-6.95c0.039,-0.445 0.135,-0.871 0.287,-1.277c0.153,-0.406 0.364,-0.779 0.633,-1.119c0.27,-0.34 0.615,-0.61 1.037,-0.809c0.422,-0.199 0.891,-0.299 1.407,-0.299c1,0 1.761,0.33 2.285,0.991c0.523,0.66 0.82,1.498 0.89,2.513l-6.539,0Z" style="fill:#636569;fill-rule:nonzero;"/><path d="M149.723,20c0.32,0 0.601,-0.098 0.843,-0.293c0.243,-0.195 0.364,-0.469 0.364,-0.82l0,-5.731c0,-0.992 0.295,-1.73 0.884,-2.215c0.59,-0.484 1.405,-0.726 2.444,-0.726c0.258,0 0.457,-0.094 0.597,-0.281c0.141,-0.188 0.211,-0.411 0.211,-0.668c0,-0.282 -0.078,-0.524 -0.234,-0.727c-0.156,-0.203 -0.375,-0.305 -0.656,-0.305c-0.789,0 -1.483,0.246 -2.08,0.739c-0.598,0.492 -0.994,1.101 -1.19,1.828l0.024,-1.442c0,-0.132 -0.022,-0.255 -0.065,-0.369c-0.043,-0.113 -0.101,-0.209 -0.176,-0.287c-0.074,-0.078 -0.16,-0.146 -0.257,-0.205c-0.098,-0.059 -0.203,-0.102 -0.317,-0.129c-0.113,-0.027 -0.232,-0.041 -0.357,-0.041c-0.32,0 -0.6,0.096 -0.838,0.287c-0.238,0.192 -0.357,0.459 -0.357,0.803l0,9.469c0,0.359 0.113,0.634 0.339,0.826c0.227,0.191 0.5,0.287 0.821,0.287Z" style="fill:#636569;fill-rule:nonzero;"/><path d="M161.723,20.023c0.5,0 0.894,-0.132 1.183,-0.398c0.289,-0.266 0.563,-0.715 0.821,-1.348l3.503,-8.496c0.016,-0.031 0.028,-0.062 0.036,-0.094c0.007,-0.031 0.015,-0.064 0.023,-0.099c0.008,-0.035 0.014,-0.068 0.018,-0.1c0.004,-0.031 0.005,-0.062 0.005,-0.093c0,-0.141 -0.035,-0.28 -0.105,-0.416c-0.07,-0.137 -0.16,-0.254 -0.27,-0.352c-0.109,-0.098 -0.234,-0.174 -0.375,-0.229c-0.14,-0.054 -0.281,-0.082 -0.421,-0.082c-0.461,0 -0.789,0.246 -0.985,0.739l-3.433,8.578l-3.434,-8.578c-0.039,-0.102 -0.086,-0.194 -0.141,-0.276c-0.054,-0.082 -0.113,-0.152 -0.175,-0.211c-0.063,-0.058 -0.131,-0.107 -0.205,-0.146c-0.075,-0.039 -0.149,-0.067 -0.223,-0.082c-0.074,-0.016 -0.15,-0.024 -0.229,-0.024c-0.296,0 -0.566,0.108 -0.808,0.323c-0.242,0.215 -0.363,0.466 -0.363,0.756c0,0.132 0.027,0.261 0.082,0.386l3.492,8.496c0.258,0.633 0.531,1.082 0.82,1.348c0.289,0.266 0.684,0.398 1.184,0.398Z" style="fill:#636569;fill-rule:nonzero;"/><path d="M174.719,20.188c1.711,0 3.172,-0.536 4.383,-1.606c0.125,-0.102 0.216,-0.215 0.275,-0.34c0.059,-0.125 0.088,-0.254 0.088,-0.387c0,-0.14 -0.033,-0.273 -0.1,-0.398c-0.066,-0.125 -0.156,-0.225 -0.269,-0.299c-0.114,-0.074 -0.237,-0.111 -0.369,-0.111c-0.079,0 -0.155,0.014 -0.229,0.041c-0.074,0.027 -0.15,0.068 -0.228,0.123c-0.555,0.406 -1.098,0.728 -1.629,0.967c-0.532,0.238 -1.118,0.357 -1.758,0.357c-1.078,-0.015 -1.949,-0.34 -2.613,-0.972c-0.665,-0.633 -1.012,-1.598 -1.043,-2.895l7.851,0c0.25,0 0.438,-0.082 0.563,-0.246c0.125,-0.164 0.187,-0.375 0.187,-0.633c-0.015,-0.781 -0.131,-1.502 -0.346,-2.162c-0.214,-0.66 -0.527,-1.256 -0.937,-1.787c-0.41,-0.531 -0.961,-0.949 -1.652,-1.254c-0.692,-0.305 -1.487,-0.457 -2.385,-0.457c-0.883,0 -1.686,0.162 -2.408,0.486c-0.723,0.324 -1.319,0.762 -1.787,1.313c-0.469,0.551 -0.831,1.181 -1.084,1.892c-0.254,0.711 -0.381,1.465 -0.381,2.262c0,1.875 0.545,3.357 1.634,4.447c1.09,1.09 2.502,1.643 4.237,1.659Zm-3.469,-6.95c0.039,-0.445 0.135,-0.871 0.287,-1.277c0.152,-0.406 0.363,-0.779 0.633,-1.119c0.269,-0.34 0.615,-0.61 1.037,-0.809c0.422,-0.199 0.891,-0.299 1.406,-0.299c1,0 1.762,0.33 2.285,0.991c0.524,0.66 0.821,1.498 0.891,2.513l-6.539,0Z" style="fill:#636569;fill-rule:nonzero;"/><path d="M183.695,20c0.321,0 0.602,-0.098 0.844,-0.293c0.242,-0.195 0.363,-0.469 0.363,-0.82l0,-5.731c0,-0.992 0.295,-1.73 0.885,-2.215c0.59,-0.484 1.404,-0.726 2.443,-0.726c0.258,0 0.458,-0.094 0.598,-0.281c0.141,-0.188 0.211,-0.411 0.211,-0.668c0,-0.282 -0.078,-0.524 -0.234,-0.727c-0.157,-0.203 -0.375,-0.305 -0.657,-0.305c-0.789,0 -1.482,0.246 -2.08,0.739c-0.597,0.492 -0.994,1.101 -1.189,1.828l0.023,-1.442c0,-0.132 -0.021,-0.255 -0.064,-0.369c-0.043,-0.113 -0.102,-0.209 -0.176,-0.287c-0.074,-0.078 -0.16,-0.146 -0.258,-0.205c-0.097,-0.059 -0.203,-0.102 -0.316,-0.129c-0.113,-0.027 -0.233,-0.041 -0.358,-0.041c-0.32,0 -0.599,0.096 -0.837,0.287c-0.239,0.192 -0.358,0.459 -0.358,0.803l0,9.469c0,0.359 0.113,0.634 0.34,0.826c0.227,0.191 0.5,0.287 0.82,0.287Z" style="fill:#636569;fill-rule:nonzero;"/></g></svg>