<?xml version="1.0" encoding="UTF-8"?>
<svg width="134px" height="157px" viewBox="0 0 134 157" version="1.1" xmlns="http://www.w3.org/2000/svg" xmlns:xlink="http://www.w3.org/1999/xlink">
    <!-- Generator: Sketch 52.2 (67145) - http://www.bohemiancoding.com/sketch -->
    <title>Combined Shape</title>
    <desc>Created with Sketch.</desc>
    <defs>
        <rect id="path-1" x="-801" y="-2051" width="4368" height="4802"></rect>
        <mask id="mask-2" maskContentUnits="userSpaceOnUse" maskUnits="objectBoundingBox" x="0" y="0" width="4368" height="4802" fill="white">
            <use xlink:href="#path-1"></use>
        </mask>
    </defs>
    <g id="Page-1" stroke="none" stroke-width="1" fill="none" fill-rule="evenodd">
        <use id="Rectangle" stroke="#9B9B9B" mask="url(#mask-2)" stroke-width="20" stroke-dasharray="30,10" fill-rule="nonzero" xlink:href="#path-1"></use>
        <g id="Group-68" transform="translate(-44.629630, -0.864198)" fill="#646566" fill-rule="nonzero">
            <path d="M149.506173,124.140066 C149.506173,121.60269 149.543463,119.067701 149.594497,116.536992 L153.845844,116.536993 C159.65363,116.536993 163.138303,112.44303 163.138303,107.179364 L163.138303,45.1850715 L163.138303,44.0153679 L171.849983,44.0153679 L171.849983,107.179364 C171.849983,116.536993 164.29986,124.140066 155.007401,124.140066 L149.506173,124.140066 Z M73.4567901,31.7269241 L73.4567901,22.9607026 C73.4567901,13.6030736 81.0069129,6 90.2993718,6 L134.099369,6 L134.099369,6.58485181 L134.099369,14.7727772 L91.4609292,14.7727772 C85.6531424,14.7727772 81.5876916,18.8667399 81.5876916,24.1304062 L81.5876916,31.5450179 C79.9895466,31.6190883 78.3691339,31.6646569 76.724046,31.6646569 C75.610076,31.6646569 74.5209907,31.6854126 73.4567901,31.7269241 Z M138.271605,6.86419753 L171.37599,40.2007509 L146.402506,40.2007509 C141.175498,40.2007509 138.271605,37.8613436 138.271605,32.0128255 L138.271605,6.86419753 Z M114.074074,34.5185185 L147.178459,67.8550719 L122.204976,67.8550719 C116.977967,67.8550719 114.074074,65.5156646 114.074074,59.6671465 L114.074074,34.5185185 Z M138.940772,72.8393925 L138.940772,71.6696889 L147.652452,71.6696889 L147.652452,134.833685 C147.652452,144.191314 140.102329,151.794387 130.80987,151.794387 L66.1018409,151.794387 C56.8093821,151.794387 49.2592593,144.191314 49.2592593,134.833685 L49.2592593,50.6150236 C49.2592593,41.2573946 56.8093821,33.654321 66.1018409,33.654321 L109.901838,33.654321 L109.901838,34.2391728 L109.901838,42.4270982 L67.2633983,42.4270982 C61.4556115,42.4270982 57.3901608,46.5210609 57.3901608,51.7847272 L57.3901608,134.248833 C57.3901608,140.097351 61.4556115,144.191314 66.6826196,144.191314 L129.648313,144.191314 C135.4561,144.191314 138.940772,140.097351 138.940772,134.833685 L138.940772,72.8393925 Z M82.1920988,97.7397531 C82.510125,97.7397531 82.765925,97.8330855 82.9595062,98.0197531 C83.1530874,98.2064207 83.2498765,98.4518503 83.2498765,98.7560494 L83.2498765,103.215309 C83.2498765,103.851361 83.1669144,104.300739 83.0009877,104.563457 C82.8350609,104.826174 82.4962989,105.040493 81.9846914,105.20642 C81.4316022,105.400001 80.7886456,105.552098 80.0558025,105.662716 C79.3229593,105.773334 78.6177812,105.828642 77.9402469,105.828642 C76.4330789,105.828642 75.1264253,105.531361 74.0202469,104.93679 C72.9140685,104.342219 72.0671634,103.481487 71.4795062,102.354568 C70.8918489,101.227649 70.5980247,99.8829708 70.5980247,98.3204938 C70.5980247,96.7856713 70.8918489,95.4548204 71.4795062,94.3279012 C72.0671634,93.200982 72.9002415,92.3367931 73.9787654,91.7353086 C75.0572893,91.1338242 76.3293754,90.8330864 77.7950617,90.8330864 C79.7447011,90.8330864 81.3417222,91.3585133 82.5861728,92.4093827 C82.7520996,92.5614822 82.873086,92.7135795 82.9491358,92.865679 C83.0251856,93.0177785 83.0632099,93.1975298 83.0632099,93.4049383 C83.0632099,93.7091373 82.9802477,93.9649372 82.814321,94.1723457 C82.6483942,94.3797541 82.4479024,94.4834568 82.2128395,94.4834568 C82.06074,94.4834568 81.9224698,94.4592595 81.7980247,94.4108642 C81.6735796,94.3624689 81.5283959,94.2829635 81.3624691,94.1723457 C80.754071,93.7437016 80.1871631,93.4429638 79.6617284,93.2701235 C79.1362937,93.0972831 78.5417317,93.0108642 77.8780247,93.0108642 C76.3708567,93.0108642 75.2335841,93.4567857 74.4661728,94.348642 C73.6987616,95.2404983 73.3150617,96.5644357 73.3150617,98.3204938 C73.3150617,101.915574 74.8913423,103.713086 78.0439506,103.713086 C78.9842022,103.713086 79.9244397,103.58173 80.8646914,103.319012 L80.8646914,99.6479012 L78.5209877,99.6479012 C78.1891341,99.6479012 77.9298775,99.5649391 77.7432099,99.3990123 C77.5565423,99.2330856 77.4632099,98.9980262 77.4632099,98.6938272 C77.4632099,98.3896281 77.5565423,98.1545687 77.7432099,97.988642 C77.9298775,97.8227152 78.1891341,97.7397531 78.5209877,97.7397531 L82.1920988,97.7397531 Z M87.5432099,105.641975 C87.1422202,105.641975 86.8276555,105.531359 86.5995062,105.310123 C86.3713569,105.088888 86.257284,104.77778 86.257284,104.37679 L86.257284,92.2849383 C86.257284,91.8839486 86.3713569,91.5728406 86.5995062,91.3516049 C86.8276555,91.1303693 87.1422202,91.0197531 87.5432099,91.0197531 L91.6498765,91.0197531 C94.0419873,91.0197531 95.898265,91.6592529 97.2187654,92.9382716 C98.5392659,94.2172903 99.1995062,96.0113465 99.1995062,98.3204938 C99.1995062,100.643468 98.5392659,102.444438 97.2187654,103.723457 C95.898265,105.002476 94.0419873,105.641975 91.6498765,105.641975 L87.5432099,105.641975 Z M91.4839506,103.464198 C94.8439674,103.464198 96.5239506,101.749647 96.5239506,98.3204938 C96.5239506,94.9051681 94.8439674,93.1975309 91.4839506,93.1975309 L88.9328395,93.1975309 L88.9328395,103.464198 L91.4839506,103.464198 Z M103.22321,105.76642 C102.82222,105.76642 102.500742,105.645433 102.258765,105.403457 C102.016789,105.16148 101.895802,104.833088 101.895802,104.418272 L101.895802,92.2849383 C101.895802,91.8839486 102.009875,91.5728406 102.238025,91.3516049 C102.466174,91.1303693 102.780739,91.0197531 103.181728,91.0197531 L108.283951,91.0197531 C109.846428,91.0197531 111.063206,91.4103665 111.934321,92.1916049 C112.805436,92.9728434 113.240988,94.0686349 113.240988,95.4790123 C113.240988,96.8893898 112.805436,97.988638 111.934321,98.7767901 C111.063206,99.5649422 109.846428,99.9590123 108.283951,99.9590123 L104.571358,99.9590123 L104.571358,104.418272 C104.571358,104.833088 104.450372,105.16148 104.208395,105.403457 C103.966419,105.645433 103.638027,105.76642 103.22321,105.76642 Z M107.952099,97.905679 C109.79112,97.905679 110.710617,97.1037117 110.710617,95.4997531 C110.710617,93.8957944 109.79112,93.0938272 107.952099,93.0938272 L104.571358,93.0938272 L104.571358,97.905679 L107.952099,97.905679 Z M127.282469,103.961975 C127.448396,104.210865 127.531358,104.452838 127.531358,104.687901 C127.531358,105.005928 127.403458,105.268641 127.147654,105.476049 C126.891851,105.683458 126.591113,105.78716 126.245432,105.78716 C126.024196,105.78716 125.813334,105.735309 125.61284,105.631605 C125.412345,105.527901 125.242964,105.372347 125.104691,105.164938 L122.346173,100.975309 C122.069628,100.532837 121.775804,100.221729 121.464691,100.041975 C121.153579,99.8622213 120.749138,99.7723457 120.251358,99.7723457 L118.218765,99.7723457 L118.218765,104.418272 C118.218765,104.833088 118.101236,105.16148 117.866173,105.403457 C117.63111,105.645433 117.313088,105.76642 116.912099,105.76642 C116.511109,105.76642 116.189631,105.645433 115.947654,105.403457 C115.705678,105.16148 115.584691,104.833088 115.584691,104.418272 L115.584691,92.2849383 C115.584691,91.8839486 115.698764,91.5728406 115.926914,91.3516049 C116.155063,91.1303693 116.469628,91.0197531 116.870617,91.0197531 L122.055802,91.0197531 C123.71507,91.0197531 124.976786,91.3896259 125.840988,92.1293827 C126.70519,92.8691395 127.137284,93.937277 127.137284,95.3338272 C127.137284,96.46766 126.815806,97.3975272 126.17284,98.1234568 C125.529873,98.8493863 124.620747,99.3160483 123.445432,99.5234568 C123.846422,99.6202474 124.199011,99.7930852 124.50321,100.041975 C124.807409,100.290865 125.10469,100.636541 125.395062,101.079012 L127.282469,103.961975 Z M121.682469,97.7190123 C122.691857,97.7190123 123.431603,97.5288908 123.901728,97.148642 C124.371854,96.7683932 124.606914,96.1842015 124.606914,95.3960494 C124.606914,94.5940701 124.371854,94.0098784 123.901728,93.6434568 C123.431603,93.2770352 122.691857,93.0938272 121.682469,93.0938272 L118.198025,93.0938272 L118.198025,97.7190123 L121.682469,97.7190123 Z" id="Combined-Shape"></path>
        </g>
    </g>
</svg>