<?xml version="1.0" encoding="UTF-8"?>
<svg width="105px" height="104px" viewBox="0 0 105 104" version="1.1" xmlns="http://www.w3.org/2000/svg" xmlns:xlink="http://www.w3.org/1999/xlink">
    <!-- Generator: Sketch 52.4 (67378) - http://www.bohemiancoding.com/sketch -->
    <title>Group 9</title>
    <desc>Created with Sketch.</desc>
    <g id="Page-1" stroke="none" stroke-width="1" fill="none" fill-rule="evenodd">
        <g id="Artboard-Copy" transform="translate(-474.000000, -439.000000)" fill="#666666" fill-rule="nonzero">
            <g id="Group-9" transform="translate(474.000000, 439.000000)">
                <path d="M103.000357,46.2227391 C103.903753,46.4113936 104.542834,47.2159019 104.526778,48.1357575 L104.325657,59.6579575 C104.309132,60.6046983 103.603721,61.3991851 102.664102,61.5249344 L96.3426102,62.384673 C92.7746176,62.8698647 89.7502777,65.1145329 88.2523816,68.3905031 C86.754452,71.6683937 87.0346532,75.4249034 89.0028222,78.442496 L92.344171,83.5682902 C92.8474421,84.3396927 92.7316707,85.3596183 92.0693031,85.9992592 L83.7809153,94.0032623 C83.1009627,94.6598849 82.0413323,94.7278318 81.2849274,94.1517898 L77.7132479,91.4366115 C75.919844,90.072167 73.8120275,89.3323066 71.6112873,89.2938925 C67.1387534,89.2158242 62.0907167,92.1743399 61.0941929,97.9812712 L60.3350647,102.403498 C60.1746794,103.338123 59.3579785,104.01541 58.4093174,103.998851 L46.8871174,103.79773 C45.9672618,103.781674 45.1855807,103.112986 45.0285022,102.207396 L43.9773259,96.17839 C43.1182835,91.2476798 38.8520239,87.6060045 33.8341058,87.5184164 C31.6314452,87.4799688 29.4952178,88.1476701 27.6591958,89.4449209 L22.4486999,93.1267206 C21.6726522,93.6760135 20.617959,93.5711609 19.959416,92.8911748 L11.955413,84.602787 C11.315772,83.9404194 11.2356995,82.9151545 11.7655521,82.1637062 L15.2837531,77.1576458 C17.3560356,74.2105796 17.7671664,70.4661371 16.384546,67.1379664 C15.0038125,63.8117495 12.0577324,61.4628672 8.50884618,60.8534499 L2.22121008,59.7736181 C1.28658515,59.6132328 0.609331607,58.7946116 0.625857028,57.8478708 L0.826977777,46.3256708 C0.843033917,45.4058152 1.50980239,44.6241006 2.41535802,44.4689424 L8.44244406,43.4177326 C11.9916256,42.7996669 14.9295728,40.4420754 16.3054369,37.1140304 C17.6794142,33.7840315 17.2587581,30.0404377 15.1797539,27.0996695 L11.4979542,21.8891737 C10.952502,21.1131931 11.051627,20.0564789 11.7335335,19.3979694 L20.0238416,11.3939999 C20.6862092,10.7543589 21.7095203,10.6761733 22.4629225,11.2041391 L28.9282473,15.7505484 C30.6512918,16.9639305 32.6567827,17.6232458 34.7211769,17.65928 C39.7352543,17.746801 44.1260076,14.2562345 45.156606,9.35850808 L46.7841857,1.62435152 C46.9728067,0.722875634 47.7773485,0.0818744121 48.6972041,0.0979305519 L60.2194041,0.299051301 C61.1680653,0.315610243 61.962552,1.02102069 62.0864145,1.95868623 L62.9461531,8.28017766 C63.6495647,13.4329227 67.9379733,17.2363445 73.1479281,17.3272846 C75.2123223,17.3633187 77.2357941,16.7724083 79.0039762,15.6199657 L84.1297704,12.2786169 C84.9011728,11.7753458 85.9210984,11.8911172 86.5607394,12.5534848 L94.5647424,20.8418726 C95.2232518,21.5237791 95.2873245,22.5852629 94.7132699,23.3378605 L90.8518694,28.4166893 C88.6695464,31.2849967 88.118497,35.0116293 89.3773759,38.385664 C90.6323471,41.7634723 93.4881797,44.2202736 97.0136289,44.9618275 L103.000357,46.2227391 Z M79.1563868,53.3669875 C79.4038157,39.1917939 68.0732062,27.4586042 53.8980125,27.2111753 C39.7228188,26.9637463 27.9896292,38.2943559 27.7422003,52.4695496 C27.4947713,66.6447432 38.8253809,78.3779329 53.0005745,78.6253618 C67.1757682,78.8727907 78.9089579,67.5421812 79.1563868,53.3669875 Z" id="Shape"></path>
            </g>
        </g>
    </g>
</svg>