<?xml version="1.0" encoding="UTF-8"?>
<svg width="188px" height="62px" viewBox="0 0 188 62" version="1.1" xmlns="http://www.w3.org/2000/svg" xmlns:xlink="http://www.w3.org/1999/xlink">
    <!-- Generator: Sketch 52.4 (67378) - http://www.bohemiancoding.com/sketch -->
    <title>Group 15</title>
    <desc>Created with Sketch.</desc>
    <g id="Page-1" stroke="none" stroke-width="1" fill="none" fill-rule="evenodd">
        <g id="Artboard-Copy" transform="translate(-241.000000, -659.000000)" fill-rule="nonzero">
            <g id="Group-15" transform="translate(241.000000, 659.000000)">
                <path d="M175.956225,61.4045929 L11.6717543,61.4045929 C5.22770369,61.4045929 0,56.1819707 0,49.7441839 L0,11.660409 C0,5.22262222 5.22770369,0 11.6717543,0 L175.95299,0 C182.400275,0 187.627979,5.22262222 187.627979,11.660409 L187.627979,49.7409521 C187.627979,56.1819707 182.400275,61.4045929 175.956225,61.4045929 Z" id="Shape" fill="#6E6E6E"></path>
                <ellipse id="Oval" fill="#4A90E2" cx="30.732169" cy="30.7022965" rx="11.322378" ry="11.3113724"></ellipse>
                <ellipse id="Oval" fill="#8697CB" cx="158.513293" cy="25.8545654" rx="3.23496516" ry="3.23182068"></ellipse>
                <ellipse id="Oval" fill="#8697CB" cx="145.573432" cy="25.8545654" rx="3.23496516" ry="3.23182068"></ellipse>
                <ellipse id="Oval" fill="#8697CB" cx="164.983223" cy="35.5500275" rx="3.23496516" ry="3.23182068"></ellipse>
                <ellipse id="Oval" fill="#8697CB" cx="152.043362" cy="35.5500275" rx="3.23496516" ry="3.23182068"></ellipse>
                <ellipse id="Oval" fill="#8697CB" cx="132.633571" cy="25.8545654" rx="3.23496516" ry="3.23182068"></ellipse>
                <ellipse id="Oval" fill="#8697CB" cx="139.103502" cy="35.5500275" rx="3.23496516" ry="3.23182068"></ellipse>
                <ellipse id="Oval" fill="#8697CB" cx="119.693711" cy="25.8545654" rx="3.23496516" ry="3.23182068"></ellipse>
                <ellipse id="Oval" fill="#8697CB" cx="126.163641" cy="35.5500275" rx="3.23496516" ry="3.23182068"></ellipse>
                <ellipse id="Oval" fill="#8697CB" cx="106.75385" cy="25.8545654" rx="3.23496516" ry="3.23182068"></ellipse>
                <ellipse id="Oval" fill="#8697CB" cx="113.22378" cy="35.5500275" rx="3.23496516" ry="3.23182068"></ellipse>
            </g>
        </g>
    </g>
</svg>