<?xml version="1.0" encoding="UTF-8"?>
<svg width="132px" height="161px" viewBox="0 0 132 161" version="1.1" xmlns="http://www.w3.org/2000/svg" xmlns:xlink="http://www.w3.org/1999/xlink">
    <!-- Generator: Sketch 52.3 (67297) - http://www.bohemiancoding.com/sketch -->
    <title>Group 12</title>
    <desc>Created with Sketch.</desc>
    <g id="Page-1" stroke="none" stroke-width="1" fill="none" fill-rule="evenodd">
        <g id="Artboard-Copy-28" transform="translate(-156.000000, -1267.000000)" fill-rule="nonzero">
            <g id="Group-12" transform="translate(156.000000, 1267.000000)">
                <g id="Doc" fill="#646566">
                    <path d="M87,1 L87,35.7017544 C87,43.7719298 90.8596491,47 97.8070175,47 L131,47 L87,1 Z" id="Shape"></path>
                    <path d="M120.174291,53.4009901 L120.174291,137.886139 C120.174291,145.059406 115.444007,150.638614 107.560201,150.638614 L23.6514185,150.638614 C16.5559929,150.638614 11.0373286,145.059406 11.0373286,137.089109 L11.0373286,24.7079208 C11.0373286,17.5346535 16.5559929,11.9554455 24.4397991,11.9554455 L80.7552599,11.9554455 L80.7552599,0.797029703 L80.7552599,0 L22.8630379,0 C10.248948,0 0,10.3613861 0,23.1138614 L0,137.886139 C0,150.638614 10.248948,161 22.8630379,161 L109.136962,161 C121.751052,161 132,150.638614 132,137.886139 L132,51.8069307 L120.174291,51.8069307 L120.174291,53.4009901 Z" id="Shape"></path>
                </g>
                <path d="M52,56.352857 C67.7868217,45.3373278 83.2241829,52.5441748 78.9809049,66.8781397 C75.3613935,79.1049957 63.9120039,79.1049957 63.9120039,90.8421439 C63.9120039,98.6669094 63.9120039,101.625683 63.9120039,99.7184646" id="Path-2" stroke="#646566" stroke-width="12"></path>
                <circle id="Oval" fill="#646566" cx="63" cy="113" r="7"></circle>
            </g>
        </g>
    </g>
</svg>