<?xml version="1.0" encoding="UTF-8"?>
<svg width="63px" height="57px" viewBox="0 0 63 57" version="1.1" xmlns="http://www.w3.org/2000/svg" xmlns:xlink="http://www.w3.org/1999/xlink">
    <!-- Generator: Sketch 52.4 (67378) - http://www.bohemiancoding.com/sketch -->
    <title>Group 7</title>
    <desc>Created with Sketch.</desc>
    <g id="Page-1" stroke="none" stroke-width="1" fill="none" fill-rule="evenodd">
        <g id="Artboard-Copy" transform="translate(-1044.000000, -387.000000)">
            <g id="Group-7" transform="translate(1043.000000, 387.000000)">
                <g id="Group-3" fill="#CD121A">
                    <path d="M31.9617554,24.4134284 L23.3821047,16.1281561 L19.2141545,20.4441949 L27.7184684,28.6567154 L19.1838513,37.1913324 L23.426492,41.4339731 L32.0351646,32.8253005 L40.7943485,41.283946 L44.9622987,36.9679072 L36.2784516,28.5820135 L44.6396954,20.2207697 L40.3970548,15.978129 L31.9617554,24.4134284 Z M49.9321247,3.91494765 L62.5138688,25.7071678 C63.5856656,27.5635742 63.5856656,29.8507613 62.5138688,31.7071678 L49.9321247,53.4993879 C48.8603279,55.3557944 46.8795658,56.4993879 44.7359723,56.4993879 L19.5724839,56.4993879 C17.4288904,56.4993879 15.4481283,55.3557944 14.3763315,53.4993879 L1.79458736,31.7071678 C0.722790592,29.8507613 0.722790592,27.5635742 1.79458736,25.7071678 L14.3763315,3.91494765 C15.4481283,2.05854119 17.4288904,0.914947651 19.5724839,0.914947651 L44.7359723,0.914947651 C46.8795658,0.914947651 48.8603279,2.05854119 49.9321247,3.91494765 Z" id="Combined-Shape"></path>
                </g>
                <g id="Group-6" transform="translate(32.000000, 28.827576) rotate(45.000000) translate(-32.000000, -28.827576) translate(16.000000, 12.827576)"></g>
            </g>
        </g>
    </g>
</svg>