<?xml version="1.0" encoding="UTF-8"?>
<svg width="278px" height="110px" viewBox="0 0 278 110" version="1.1" xmlns="http://www.w3.org/2000/svg" xmlns:xlink="http://www.w3.org/1999/xlink">
    <!-- Generator: Sketch 52.3 (67297) - http://www.bohemiancoding.com/sketch -->
    <title>Group 2</title>
    <desc>Created with Sketch.</desc>
    <g id="Page-1" stroke="none" stroke-width="1" fill="none" fill-rule="evenodd">
        <g id="Artboard-Copy-28" transform="translate(-487.000000, -729.000000)" fill="#333333">
            <g id="Group-2" transform="translate(426.000000, 696.000000)">
                <path d="M72.0759064,142.193359 C71.2555898,142.193359 70.5759091,141.982424 70.0368439,141.560547 C69.4977787,141.13867 69.0524707,140.417974 68.7009064,139.398438 L61.4411408,119.060547 C61.370828,118.849608 61.3356721,118.644532 61.3356721,118.445312 C61.3356721,117.941404 61.5407481,117.525392 61.9509064,117.197266 C62.3610647,116.869139 62.8298101,116.705078 63.3571564,116.705078 C63.7555959,116.705078 64.1188736,116.813475 64.4470002,117.030273 C64.7751268,117.247071 65.0094995,117.566404 65.1501252,117.988281 L72.0759064,137.921875 L79.0016877,117.988281 C79.1423134,117.566404 79.3766861,117.247071 79.7048127,117.030273 C80.0329393,116.813475 80.396217,116.705078 80.7946564,116.705078 C81.3337216,116.705078 81.8083263,116.869139 82.2184846,117.197266 C82.6286429,117.525392 82.8337189,117.941404 82.8337189,118.445312 C82.8337189,118.644532 82.798563,118.849608 82.7282502,119.060547 L75.4684846,139.398438 C75.1052015,140.417974 74.6511045,141.13867 74.1061799,141.560547 C73.5612553,141.982424 72.8845042,142.193359 72.0759064,142.193359 Z M88.6519689,142 C88.1480601,142 87.6939631,141.803713 87.2896642,141.411133 C86.8853653,141.018553 86.6832189,140.570315 86.6832189,140.066406 L86.6832189,118.744141 C86.6832189,118.228513 86.8677874,117.777346 87.2369299,117.390625 C87.6060723,117.003904 88.05431,116.810547 88.5816564,116.810547 L101.519156,116.810547 C101.999628,116.810547 102.374624,116.968748 102.644156,117.285156 C102.913689,117.601564 103.048453,117.970701 103.048453,118.392578 C103.048453,118.814455 102.913689,119.186522 102.644156,119.508789 C102.374624,119.831056 101.999628,119.992188 101.519156,119.992188 L90.6734533,119.992188 L90.6734533,127.533203 L100.886344,127.533203 C101.390253,127.533203 101.776968,127.685545 102.0465,127.990234 C102.316033,128.294923 102.450797,128.658201 102.450797,129.080078 C102.450797,129.490236 102.313103,129.850584 102.037711,130.161133 C101.762319,130.471681 101.378534,130.626953 100.886344,130.626953 L90.6734533,130.626953 L90.6734533,138.835938 L101.941031,138.835938 C102.433221,138.835938 102.814077,138.997069 103.08361,139.319336 C103.353142,139.641603 103.487906,140.01367 103.487906,140.435547 C103.487906,140.845705 103.353142,141.208983 103.08361,141.525391 C102.814077,141.841798 102.433221,142 101.941031,142 L88.6519689,142 Z M110.501469,141.982422 C109.962404,141.982422 109.496588,141.815431 109.104008,141.481445 C108.711428,141.147459 108.515141,140.681644 108.515141,140.083984 L108.515141,118.761719 C108.515141,118.222654 108.711428,117.762697 109.104008,117.381836 C109.496588,117.000975 109.968263,116.810547 110.519047,116.810547 L118.253422,116.810547 C124.265171,116.810547 127.271,118.937479 127.271,123.191406 C127.271,124.656257 126.813973,125.901362 125.899906,126.926758 C124.985839,127.952154 123.620619,128.623045 121.804203,128.939453 L121.804203,129.009766 C124.675311,129.619144 126.292483,131.53514 126.655766,134.757812 L127.253422,139.978516 C127.265141,140.060547 127.271,140.136718 127.271,140.207031 C127.271,140.734378 127.083502,141.162108 126.7085,141.490234 C126.333498,141.818361 125.89405,141.982422 125.390141,141.982422 C124.862794,141.982422 124.38819,141.83008 123.966313,141.525391 C123.544436,141.220702 123.304204,140.787112 123.24561,140.224609 L122.718266,135.425781 C122.612796,134.45312 122.480962,133.688479 122.322758,133.131836 C122.164554,132.575193 121.912603,132.100588 121.566899,131.708008 C121.221194,131.315428 120.775886,131.048829 120.230961,130.908203 C119.686036,130.767577 118.96827,130.697266 118.077641,130.697266 L112.505375,130.697266 L112.505375,140.083984 C112.505375,140.681644 112.306158,141.147459 111.907719,141.481445 C111.509279,141.815431 111.040534,141.982422 110.501469,141.982422 Z M112.505375,127.621094 L117.110844,127.621094 C117.813972,127.621094 118.420412,127.600586 118.93018,127.55957 C119.439948,127.518554 119.987794,127.418946 120.573735,127.260742 C121.159675,127.102538 121.63428,126.882814 121.997563,126.601562 C122.360846,126.320311 122.66553,125.930667 122.911625,125.432617 C123.15772,124.934568 123.280766,124.333988 123.280766,123.630859 C123.280766,123.126951 123.216313,122.681643 123.087406,122.294922 C122.958499,121.908201 122.803228,121.585939 122.621586,121.328125 C122.439945,121.070311 122.187994,120.853517 121.865727,120.677734 C121.543459,120.501952 121.247564,120.370118 120.978031,120.282227 C120.708499,120.194335 120.35401,120.124024 119.914555,120.071289 C119.4751,120.018554 119.120611,119.989258 118.851078,119.983398 C118.581546,119.977539 118.218268,119.974609 117.761235,119.974609 L112.505375,119.974609 L112.505375,127.621094 Z M134.724016,141.964844 C134.173232,141.964844 133.701557,141.777346 133.308977,141.402344 C132.916397,141.027342 132.720109,140.570315 132.720109,140.03125 L132.720109,118.744141 C132.720109,118.205075 132.916397,117.745119 133.308977,117.364258 C133.701557,116.983397 134.173232,116.792969 134.724016,116.792969 L140.753313,116.792969 C145.194741,116.792969 148.563848,117.876942 150.860734,120.044922 C153.157621,122.212901 154.306047,125.353495 154.306047,129.466797 C154.306047,133.509786 153.145902,136.603505 150.825578,138.748047 C148.505254,140.892589 145.224037,141.964844 140.981828,141.964844 L134.724016,141.964844 Z M136.710344,138.800781 L141.210344,138.800781 C142.886133,138.800781 144.301158,138.607424 145.455461,138.220703 C146.609764,137.833982 147.532606,137.236332 148.224016,136.427734 C148.915425,135.619137 149.413467,134.64649 149.718156,133.509766 C150.022845,132.373041 150.175188,131.001961 150.175188,129.396484 C150.175188,125.99803 149.410547,123.575203 147.881242,122.12793 C146.351938,120.680657 143.940829,119.957031 140.647844,119.957031 L136.710344,119.957031 L136.710344,138.800781 Z M161.671172,141.982422 C161.132107,141.982422 160.669221,141.812502 160.2825,141.472656 C159.895779,141.132811 159.702422,140.664065 159.702422,140.066406 L159.702422,118.726562 C159.702422,118.117184 159.898709,117.64258 160.291289,117.302734 C160.683869,116.962889 161.155544,116.792969 161.706328,116.792969 C162.245393,116.792969 162.711209,116.962889 163.103789,117.302734 C163.496369,117.64258 163.692656,118.117184 163.692656,118.726562 L163.692656,140.066406 C163.692656,140.675784 163.49344,141.147459 163.095,141.481445 C162.696561,141.815431 162.221956,141.982422 161.671172,141.982422 Z M180.813641,142.386719 C178.45816,142.386719 176.383962,141.824224 174.590984,140.699219 C172.798007,139.574213 171.432786,138.033213 170.495281,136.076172 C169.557777,134.119131 169.089031,131.904309 169.089031,129.431641 C169.089031,126.900378 169.581214,124.644541 170.565594,122.664062 C171.549974,120.683584 172.964999,119.127935 174.810711,117.99707 C176.656423,116.866205 178.780426,116.300781 181.182781,116.300781 C183.432793,116.300781 185.559724,116.839838 187.563641,117.917969 C187.880049,118.082032 188.114421,118.284178 188.266766,118.524414 C188.41911,118.76465 188.495281,119.01953 188.495281,119.289062 C188.495281,119.558595 188.424969,119.819335 188.284344,120.071289 C188.143718,120.323243 187.95329,120.52539 187.713055,120.677734 C187.472819,120.830079 187.217939,120.90625 186.948406,120.90625 C186.854656,120.90625 186.757977,120.897461 186.658367,120.879883 C186.558757,120.862305 186.462079,120.830078 186.368328,120.783203 L185.823406,120.510742 C185.506998,120.352538 185.23747,120.232422 185.014813,120.150391 C184.792155,120.068359 184.487471,119.965821 184.10075,119.842773 C183.714029,119.719726 183.286299,119.628907 182.817547,119.570312 C182.348795,119.511718 181.850753,119.482422 181.323406,119.482422 C179.987462,119.482422 178.80388,119.731443 177.772625,120.229492 C176.74137,120.727542 175.903488,121.421871 175.258953,122.3125 C174.614419,123.203129 174.128095,124.243158 173.799969,125.432617 C173.471842,126.622076 173.307781,127.937493 173.307781,129.378906 C173.307781,130.82032 173.471842,132.132807 173.799969,133.316406 C174.128095,134.500006 174.620278,135.534175 175.276531,136.418945 C175.932785,137.303715 176.788245,137.989255 177.842938,138.475586 C178.89763,138.961916 180.110509,139.205078 181.481609,139.205078 C182.184738,139.205078 182.873208,139.120118 183.547039,138.950195 C184.220871,138.780273 184.759928,138.601563 185.164227,138.414062 C185.568526,138.226562 186.075356,137.968752 186.684734,137.640625 C186.919111,137.511718 187.153483,137.447266 187.387859,137.447266 C187.786299,137.447266 188.126139,137.602538 188.407391,137.913086 C188.688642,138.223634 188.829266,138.583982 188.829266,138.994141 C188.829266,139.5918 188.530441,140.083982 187.932781,140.470703 C185.917146,141.748053 183.544123,142.386719 180.813641,142.386719 Z M201.133844,142.017578 C200.594779,142.017578 200.126033,141.844728 199.727594,141.499023 C199.329154,141.153319 199.129938,140.675784 199.129938,140.066406 L199.129938,119.992188 L192.766656,119.992188 C192.274466,119.992188 191.887751,119.833986 191.6065,119.517578 C191.325249,119.20117 191.184625,118.832033 191.184625,118.410156 C191.184625,117.97656 191.325249,117.601564 191.6065,117.285156 C191.887751,116.968748 192.274466,116.810547 192.766656,116.810547 L209.448297,116.810547 C209.940487,116.810547 210.327202,116.968748 210.608453,117.285156 C210.889705,117.601564 211.030328,117.970701 211.030328,118.392578 C211.030328,118.826174 210.889705,119.20117 210.608453,119.517578 C210.327202,119.833986 209.940487,119.992188 209.448297,119.992188 L203.13775,119.992188 L203.13775,140.066406 C203.13775,140.675784 202.938533,141.153319 202.540094,141.499023 C202.141654,141.844728 201.672909,142.017578 201.133844,142.017578 Z M235.270344,142.386719 C232.914863,142.386719 230.840665,141.824224 229.047687,140.699219 C227.25471,139.574213 225.889489,138.033213 224.951984,136.076172 C224.01448,134.119131 223.545734,131.904309 223.545734,129.431641 C223.545734,126.900378 224.037917,124.644541 225.022297,122.664062 C226.006677,120.683584 227.421702,119.127935 229.267414,117.99707 C231.113126,116.866205 233.237129,116.300781 235.639484,116.300781 C237.889496,116.300781 240.016427,116.839838 242.020344,117.917969 C242.336752,118.082032 242.571124,118.284178 242.723469,118.524414 C242.875813,118.76465 242.951984,119.01953 242.951984,119.289062 C242.951984,119.558595 242.881673,119.819335 242.741047,120.071289 C242.600421,120.323243 242.409993,120.52539 242.169758,120.677734 C241.929522,120.830079 241.674642,120.90625 241.405109,120.90625 C241.311359,120.90625 241.21468,120.897461 241.11507,120.879883 C241.01546,120.862305 240.918782,120.830078 240.825031,120.783203 L240.280109,120.510742 C239.963701,120.352538 239.694173,120.232422 239.471516,120.150391 C239.248858,120.068359 238.944174,119.965821 238.557453,119.842773 C238.170732,119.719726 237.743002,119.628907 237.27425,119.570312 C236.805498,119.511718 236.307456,119.482422 235.780109,119.482422 C234.444165,119.482422 233.260583,119.731443 232.229328,120.229492 C231.198073,120.727542 230.360191,121.421871 229.715656,122.3125 C229.071122,123.203129 228.584798,124.243158 228.256672,125.432617 C227.928545,126.622076 227.764484,127.937493 227.764484,129.378906 C227.764484,130.82032 227.928545,132.132807 228.256672,133.316406 C228.584798,134.500006 229.076981,135.534175 229.733234,136.418945 C230.389488,137.303715 231.244948,137.989255 232.299641,138.475586 C233.354333,138.961916 234.567212,139.205078 235.938312,139.205078 C236.641441,139.205078 237.329911,139.120118 238.003742,138.950195 C238.677574,138.780273 239.216631,138.601563 239.62093,138.414062 C240.025229,138.226562 240.532059,137.968752 241.141437,137.640625 C241.375814,137.511718 241.610186,137.447266 241.844562,137.447266 C242.243002,137.447266 242.582842,137.602538 242.864094,137.913086 C243.145345,138.223634 243.285969,138.583982 243.285969,138.994141 C243.285969,139.5918 242.987144,140.083982 242.389484,140.470703 C240.373849,141.748053 238.000826,142.386719 235.270344,142.386719 Z M250.246797,141.982422 C249.707732,141.982422 249.241916,141.812502 248.849336,141.472656 C248.456756,141.132811 248.260469,140.664065 248.260469,140.066406 L248.260469,118.761719 C248.260469,118.16406 248.456756,117.692385 248.849336,117.34668 C249.241916,117.000975 249.713591,116.828125 250.264375,116.828125 C250.80344,116.828125 251.269256,116.998045 251.661836,117.337891 C252.054416,117.677736 252.250703,118.152341 252.250703,118.761719 L252.250703,127.357422 L264.432344,127.357422 L264.432344,118.761719 C264.432344,118.16406 264.628631,117.692385 265.021211,117.34668 C265.413791,117.000975 265.885466,116.828125 266.43625,116.828125 C266.987034,116.828125 267.455779,116.998045 267.8425,117.337891 C268.229221,117.677736 268.422578,118.152341 268.422578,118.761719 L268.422578,140.066406 C268.422578,140.675784 268.226291,141.147459 267.833711,141.481445 C267.441131,141.815431 266.969456,141.982422 266.418672,141.982422 C265.879607,141.982422 265.413791,141.812502 265.021211,141.472656 C264.628631,141.132811 264.432344,140.664065 264.432344,140.066406 L264.432344,130.539062 L252.250703,130.539062 L252.250703,140.066406 C252.250703,140.675784 252.054416,141.147459 251.661836,141.481445 C251.269256,141.815431 250.797581,141.982422 250.246797,141.982422 Z M276.47325,142 C275.969341,142 275.515244,141.803713 275.110945,141.411133 C274.706646,141.018553 274.5045,140.570315 274.5045,140.066406 L274.5045,118.744141 C274.5045,118.228513 274.689068,117.777346 275.058211,117.390625 C275.427353,117.003904 275.875591,116.810547 276.402937,116.810547 L289.340437,116.810547 C289.820909,116.810547 290.195905,116.968748 290.465437,117.285156 C290.73497,117.601564 290.869734,117.970701 290.869734,118.392578 C290.869734,118.814455 290.73497,119.186522 290.465437,119.508789 C290.195905,119.831056 289.820909,119.992188 289.340437,119.992188 L278.494734,119.992188 L278.494734,127.533203 L288.707625,127.533203 C289.211534,127.533203 289.598249,127.685545 289.867781,127.990234 C290.137314,128.294923 290.272078,128.658201 290.272078,129.080078 C290.272078,129.490236 290.134384,129.850584 289.858992,130.161133 C289.5836,130.471681 289.199815,130.626953 288.707625,130.626953 L278.494734,130.626953 L278.494734,138.835938 L289.762312,138.835938 C290.254502,138.835938 290.635358,138.997069 290.904891,139.319336 C291.174423,139.641603 291.309187,140.01367 291.309187,140.435547 C291.309187,140.845705 291.174423,141.208983 290.904891,141.525391 C290.635358,141.841798 290.254502,142 289.762312,142 L276.47325,142 Z M307.059078,142.386719 C304.703597,142.386719 302.629399,141.824224 300.836422,140.699219 C299.043444,139.574213 297.678223,138.033213 296.740719,136.076172 C295.803214,134.119131 295.334469,131.904309 295.334469,129.431641 C295.334469,126.900378 295.826651,124.644541 296.811031,122.664062 C297.795411,120.683584 299.210436,119.127935 301.056148,117.99707 C302.901861,116.866205 305.025863,116.300781 307.428219,116.300781 C309.67823,116.300781 311.805162,116.839838 313.809078,117.917969 C314.125486,118.082032 314.359858,118.284178 314.512203,118.524414 C314.664548,118.76465 314.740719,119.01953 314.740719,119.289062 C314.740719,119.558595 314.670407,119.819335 314.529781,120.071289 C314.389155,120.323243 314.198728,120.52539 313.958492,120.677734 C313.718256,120.830079 313.463376,120.90625 313.193844,120.90625 C313.100093,120.90625 313.003414,120.897461 312.903805,120.879883 C312.804195,120.862305 312.707516,120.830078 312.613765,120.783203 L312.068844,120.510742 C311.752436,120.352538 311.482907,120.232422 311.26025,120.150391 C311.037593,120.068359 310.732908,119.965821 310.346187,119.842773 C309.959467,119.719726 309.531737,119.628907 309.062984,119.570312 C308.594232,119.511718 308.09619,119.482422 307.568844,119.482422 C306.232899,119.482422 305.049318,119.731443 304.018062,120.229492 C302.986807,120.727542 302.148925,121.421871 301.50439,122.3125 C300.859856,123.203129 300.373533,124.243158 300.045406,125.432617 C299.717279,126.622076 299.553219,127.937493 299.553219,129.378906 C299.553219,130.82032 299.717279,132.132807 300.045406,133.316406 C300.373533,134.500006 300.865715,135.534175 301.521969,136.418945 C302.178222,137.303715 303.033682,137.989255 304.088375,138.475586 C305.143068,138.961916 306.355946,139.205078 307.727047,139.205078 C308.430175,139.205078 309.118645,139.120118 309.792476,138.950195 C310.466308,138.780273 311.005365,138.601563 311.409664,138.414062 C311.813963,138.226562 312.320794,137.968752 312.930172,137.640625 C313.164548,137.511718 313.398921,137.447266 313.633297,137.447266 C314.031736,137.447266 314.371577,137.602538 314.652828,137.913086 C314.934079,138.223634 315.074703,138.583982 315.074703,138.994141 C315.074703,139.5918 314.775878,140.083982 314.178219,140.470703 C312.162584,141.748053 309.78956,142.386719 307.059078,142.386719 Z M322.035531,142 C321.496466,142 321.03358,141.835939 320.646859,141.507812 C320.260139,141.179686 320.066781,140.710941 320.066781,140.101562 L320.066781,118.708984 C320.066781,118.111325 320.265998,117.645509 320.664437,117.311523 C321.062877,116.977537 321.531622,116.810547 322.070687,116.810547 C322.598034,116.810547 323.05799,116.980467 323.45057,117.320312 C323.84315,117.660158 324.039437,118.123044 324.039437,118.708984 L324.039437,128.412109 L333.971078,117.619141 C334.463268,117.091794 334.96131,116.828125 335.465219,116.828125 C335.94569,116.828125 336.37049,116.989256 336.739633,117.311523 C337.108775,117.633791 337.293344,118.029295 337.293344,118.498047 C337.293344,118.931643 337.164439,119.283202 336.906625,119.552734 L328.13514,128.746094 L337.820687,139.029297 C338.101939,139.322267 338.242562,139.703123 338.242562,140.171875 C338.242562,140.675784 338.043346,141.103514 337.644906,141.455078 C337.246467,141.806642 336.783581,141.982422 336.256234,141.982422 C335.728888,141.982422 335.207409,141.701175 334.691781,141.138672 L324.039437,129.519531 L324.039437,140.101562 C324.039437,140.699222 323.840221,141.165037 323.441781,141.499023 C323.043342,141.833009 322.574596,142 322.035531,142 Z" id="VERDICT-CHECK"></path>
                <path d="M202.296972,78 C201.338634,78 200.520934,77.7083363 199.843847,77.125 C199.166761,76.5416637 198.828222,75.7187553 198.828222,74.65625 L198.796972,40.46875 L192.265722,44.65625 C191.869887,44.9270847 191.432391,45.0625 190.953222,45.0625 C190.265719,45.0625 189.671975,44.8020859 189.171972,44.28125 C188.67197,43.7604141 188.421972,43.16667 188.421972,42.5 C188.421972,41.6666625 188.828218,40.9895859 189.640722,40.46875 L200.546972,33.75 C201.026141,33.4583319 201.661552,33.2916669 202.453222,33.25 C203.369893,33.25 204.156344,33.5520803 204.812597,34.15625 C205.468851,34.7604197 205.796972,35.6041613 205.796972,36.6875 L205.796972,74.65625 C205.796972,75.7187553 205.448017,76.5416637 204.750097,77.125 C204.052177,77.7083363 203.234477,78 202.296972,78 Z" id="1"></path>
            </g>
        </g>
    </g>
</svg>