<?xml version="1.0" encoding="UTF-8"?>
<svg width="112px" height="133px" viewBox="0 0 112 133" version="1.1" xmlns="http://www.w3.org/2000/svg" xmlns:xlink="http://www.w3.org/1999/xlink">
    <!-- Generator: Sketch 52.4 (67378) - http://www.bohemiancoding.com/sketch -->
    <title>Group 3</title>
    <desc>Created with Sketch.</desc>
    <g id="Page-1" stroke="none" stroke-width="1" fill="none" fill-rule="evenodd">
        <g id="Artboard-Copy-31" transform="translate(-370.000000, -450.000000)" fill="#DC3E15">
            <g id="Group-3" transform="translate(370.000000, 450.000000)">
                <path d="M71.9095271,116.536325 C72.1158328,115.256401 72.1686086,22.8678288 71.9766964,20.8524255 C56.2063057,24.591906 40.4551062,28.3266108 24.6415353,32.075643 L24.6415353,97.2037357 C16.4996573,100.370116 8.39136395,103.522168 0.283070596,106.678997 C0.230294722,106.650342 0.187114462,106.631238 0.143934202,106.602583 C0.105551748,106.573928 0.0623714873,106.535722 0.0575736806,106.497515 C0.033584647,106.258723 0,106.015155 0,105.766812 L0,26.8843079 C0.359835504,26.4353792 0.830020562,26.3780692 1.23783413,26.2300182 C24.4160384,17.5905286 47.5990404,8.96059069 70.7772447,0.32110109 C71.5784784,0.0249991803 72.307745,-0.127827612 73.2001371,0.134843437 C85.9143249,3.80746229 98.6429061,7.44187444 111.371487,11.0858383 C111.558602,11.1431483 111.740918,11.2052342 112,11.2911993 L112,122.21002 C108.348869,123.217721 104.726525,124.230199 101.104181,125.228349 C91.8732008,127.764318 82.6374229,130.276409 73.4160384,132.826706 C72.5140507,133.079825 71.7224126,133.060722 70.8348184,132.735965 C48.0356408,124.349595 25.2316655,115.987104 2.43248801,107.624613 C1.98149417,107.457458 1.54009596,107.275976 1.16106923,106.874806 C24.747087,110.09372 48.3331049,113.312635 71.9095271,116.536325" id="Fill-1"></path>
            </g>
        </g>
    </g>
</svg>