<?xml version="1.0" encoding="UTF-8"?>
<svg width="352px" height="111px" viewBox="0 0 352 111" version="1.1" xmlns="http://www.w3.org/2000/svg" xmlns:xlink="http://www.w3.org/1999/xlink">
    <!-- Generator: Sketch 52.3 (67297) - http://www.bohemiancoding.com/sketch -->
    <title>Group 3</title>
    <desc>Created with Sketch.</desc>
    <g id="Page-1" stroke="none" stroke-width="1" fill="none" fill-rule="evenodd">
        <g id="Artboard-Copy-28" transform="translate(-939.000000, -728.000000)" fill="#333333">
            <g id="Group-3" transform="translate(915.000000, 696.000000)">
                <path d="M36.6209377,142.386719 C34.2654572,142.386719 32.1912592,141.824224 30.3982815,140.699219 C28.6053038,139.574213 27.240083,138.033213 26.3025783,136.076172 C25.3650737,134.119131 24.8963283,131.904309 24.8963283,129.431641 C24.8963283,126.900378 25.3885109,124.644541 26.3728908,122.664062 C27.3572708,120.683584 28.7722957,119.127935 30.618008,117.99707 C32.4637204,116.866205 34.5877226,116.300781 36.9900783,116.300781 C39.2400896,116.300781 41.3670215,116.839838 43.3709377,117.917969 C43.6873456,118.082032 43.9217182,118.284178 44.0740627,118.524414 C44.2264072,118.76465 44.3025783,119.01953 44.3025783,119.289062 C44.3025783,119.558595 44.2322666,119.819335 44.0916408,120.071289 C43.9510151,120.323243 43.7605874,120.52539 43.5203518,120.677734 C43.2801162,120.830079 43.0252359,120.90625 42.7557033,120.90625 C42.6619529,120.90625 42.5652742,120.897461 42.4656643,120.879883 C42.3660544,120.862305 42.2693757,120.830078 42.1756252,120.783203 L41.6307033,120.510742 C41.3142955,120.352538 41.044767,120.232422 40.8221096,120.150391 C40.5994522,120.068359 40.2947678,119.965821 39.9080471,119.842773 C39.5213264,119.719726 39.0935963,119.628907 38.624844,119.570312 C38.1560916,119.511718 37.6580497,119.482422 37.1307033,119.482422 C35.7947592,119.482422 34.6111773,119.731443 33.5799221,120.229492 C32.5486669,120.727542 31.7107847,121.421871 31.0662502,122.3125 C30.4217158,123.203129 29.9353925,124.243158 29.6072658,125.432617 C29.2791392,126.622076 29.1150783,127.937493 29.1150783,129.378906 C29.1150783,130.82032 29.2791392,132.132807 29.6072658,133.316406 C29.9353925,134.500006 30.4275751,135.534175 31.0838283,136.418945 C31.7400816,137.303715 32.5955418,137.989255 33.6502346,138.475586 C34.7049274,138.961916 35.9178059,139.205078 37.2889065,139.205078 C37.992035,139.205078 38.6805047,139.120118 39.3543362,138.950195 C40.0281677,138.780273 40.5672248,138.601563 40.9715237,138.414062 C41.3758226,138.226562 41.8826534,137.968752 42.4920315,137.640625 C42.7264076,137.511718 42.9607803,137.447266 43.1951565,137.447266 C43.593596,137.447266 43.9334363,137.602538 44.2146877,137.913086 C44.4959391,138.223634 44.6365627,138.583982 44.6365627,138.994141 C44.6365627,139.5918 44.3377376,140.083982 43.7400783,140.470703 C41.7244433,141.748053 39.3514201,142.386719 36.6209377,142.386719 Z M60.6149689,139.205078 C63.122794,139.205078 65.0505091,138.323251 66.3981721,136.55957 C67.7458351,134.79589 68.4196564,132.39064 68.4196564,129.34375 C68.4196564,126.308579 67.7458351,123.906259 66.3981721,122.136719 C65.0505091,120.367179 63.122794,119.482422 60.6149689,119.482422 C58.0954251,119.482422 56.1618507,120.367179 54.8141877,122.136719 C53.4665247,123.906259 52.7927033,126.308579 52.7927033,129.34375 C52.7927033,132.39064 53.4694544,134.79589 54.8229768,136.55957 C56.1764992,138.323251 58.1071439,139.205078 60.6149689,139.205078 Z M60.6149689,142.386719 C58.1188627,142.386719 55.9597046,141.847662 54.1374299,140.769531 C52.3151551,139.691401 50.9294268,138.173838 49.9802033,136.216797 C49.0309798,134.259756 48.5563752,131.968763 48.5563752,129.34375 C48.5563752,126.718737 49.0309798,124.427744 49.9802033,122.470703 C50.9294268,120.513662 52.3151551,118.996099 54.1374299,117.917969 C55.9597046,116.839838 58.1188627,116.300781 60.6149689,116.300781 C64.3767065,116.300781 67.321013,117.478504 69.4479768,119.833984 C71.5749405,122.189465 72.6384064,125.359355 72.6384064,129.34375 C72.6384064,133.328145 71.5749405,136.498035 69.4479768,138.853516 C67.321013,141.208996 64.3767065,142.386719 60.6149689,142.386719 Z M91.3238439,141.279297 C90.8550916,141.279297 90.4068539,141.126955 89.9791174,140.822266 C89.5513808,140.517577 89.2203295,140.083987 88.9859533,139.521484 L81.3746252,121.960938 L81.3746252,140.3125 C81.3746252,140.746096 81.1929864,141.083007 80.8297033,141.323242 C80.4664202,141.563478 80.0357605,141.683594 79.5377111,141.683594 C79.0396617,141.683594 78.609002,141.563478 78.2457189,141.323242 C77.8824358,141.083007 77.700797,140.746096 77.700797,140.3125 L77.700797,120.044922 C77.700797,119.294918 77.9996222,118.673831 78.5972814,118.181641 C79.1949407,117.689451 79.8980586,117.443359 80.7066564,117.443359 C81.3746285,117.443359 82.0015754,117.633787 82.5875158,118.014648 C83.1734562,118.39551 83.6304829,118.966793 83.9586095,119.728516 L91.3238439,136.480469 L98.6890783,119.728516 C99.0172049,118.966793 99.4742316,118.39551 100.060172,118.014648 C100.646112,117.633787 101.273059,117.443359 101.941031,117.443359 C102.749629,117.443359 103.452747,117.689451 104.050406,118.181641 C104.648066,118.673831 104.946891,119.294918 104.946891,120.044922 L104.946891,140.3125 C104.946891,140.746096 104.765252,141.083007 104.401969,141.323242 C104.038686,141.563478 103.608026,141.683594 103.109977,141.683594 C102.611927,141.683594 102.181268,141.563478 101.817985,141.323242 C101.454701,141.083007 101.273063,140.746096 101.273063,140.3125 L101.273063,121.960938 L93.6441564,139.521484 C93.4097802,140.083987 93.0816585,140.517577 92.6597814,140.822266 C92.2379043,141.126955 91.7925963,141.279297 91.3238439,141.279297 Z M124.862797,141.279297 C124.394045,141.279297 123.945807,141.126955 123.51807,140.822266 C123.090334,140.517577 122.759283,140.083987 122.524906,139.521484 L114.913578,121.960938 L114.913578,140.3125 C114.913578,140.746096 114.731939,141.083007 114.368656,141.323242 C114.005373,141.563478 113.574714,141.683594 113.076664,141.683594 C112.578615,141.683594 112.147955,141.563478 111.784672,141.323242 C111.421389,141.083007 111.23975,140.746096 111.23975,140.3125 L111.23975,120.044922 C111.23975,119.294918 111.538575,118.673831 112.136235,118.181641 C112.733894,117.689451 113.437012,117.443359 114.24561,117.443359 C114.913582,117.443359 115.540528,117.633787 116.126469,118.014648 C116.712409,118.39551 117.169436,118.966793 117.497563,119.728516 L124.862797,136.480469 L132.228031,119.728516 C132.556158,118.966793 133.013185,118.39551 133.599125,118.014648 C134.185066,117.633787 134.812012,117.443359 135.479985,117.443359 C136.288582,117.443359 136.9917,117.689451 137.58936,118.181641 C138.187019,118.673831 138.485844,119.294918 138.485844,120.044922 L138.485844,140.3125 C138.485844,140.746096 138.304205,141.083007 137.940922,141.323242 C137.577639,141.563478 137.146979,141.683594 136.64893,141.683594 C136.15088,141.683594 135.720221,141.563478 135.356938,141.323242 C134.993655,141.083007 134.812016,140.746096 134.812016,140.3125 L134.812016,121.960938 L127.18311,139.521484 C126.948733,140.083987 126.620612,140.517577 126.198735,140.822266 C125.776857,141.126955 125.331549,141.279297 124.862797,141.279297 Z M154.868547,142.386719 C153.778698,142.386719 152.738669,142.269532 151.74843,142.035156 C150.75819,141.80078 149.838278,141.437502 148.988664,140.945312 C148.139051,140.453123 147.403706,139.849613 146.782609,139.134766 C146.161513,138.419918 145.67226,137.561528 145.314836,136.55957 C144.957412,135.557612 144.778703,134.453131 144.778703,133.246094 L144.778703,118.65625 C144.778703,118.058591 144.97499,117.589845 145.36757,117.25 C145.760151,116.910155 146.231825,116.740234 146.782609,116.740234 C147.321675,116.740234 147.79042,116.907225 148.188859,117.241211 C148.587299,117.575197 148.786516,118.046872 148.786516,118.65625 L148.786516,133.140625 C148.786516,134.160161 148.959366,135.068355 149.30507,135.865234 C149.650775,136.662113 150.113661,137.297849 150.693742,137.772461 C151.273823,138.247073 151.918348,138.604491 152.627336,138.844727 C153.336324,139.084962 154.083387,139.205078 154.868547,139.205078 C155.489644,139.205078 156.093153,139.131837 156.679094,138.985352 C157.265034,138.838866 157.81874,138.604494 158.340227,138.282227 C158.861714,137.959959 159.31874,137.567385 159.71132,137.104492 C160.103901,136.641599 160.414444,136.070316 160.642961,135.390625 C160.871478,134.710934 160.985734,133.960942 160.985734,133.140625 L160.985734,118.65625 C160.985734,118.058591 161.184951,117.589845 161.583391,117.25 C161.98183,116.910155 162.456435,116.740234 163.007219,116.740234 C163.546284,116.740234 164.0121,116.907225 164.40468,117.241211 C164.79726,117.575197 164.993547,118.046872 164.993547,118.65625 L164.993547,133.246094 C164.993547,134.746101 164.721089,136.087885 164.176164,137.271484 C163.63124,138.455084 162.890036,139.413082 161.952531,140.145508 C161.015027,140.877933 159.945701,141.434568 158.744524,141.81543 C157.543346,142.196291 156.251366,142.386719 154.868547,142.386719 Z M172.850859,142 C172.358669,142 171.930939,141.850587 171.567656,141.551758 C171.204373,141.252928 171.022734,140.828128 171.022734,140.277344 L171.022734,119.306641 C171.022734,118.544918 171.23367,117.941408 171.655547,117.496094 C172.077424,117.050779 172.604763,116.828125 173.237578,116.828125 C173.682893,116.828125 174.13992,116.945311 174.608672,117.179688 C175.077424,117.414064 175.469998,117.753904 175.786406,118.199219 L188.231719,136.146484 L188.231719,118.550781 C188.231719,118.011716 188.413358,117.586916 188.776641,117.276367 C189.139924,116.965819 189.567654,116.810547 190.059844,116.810547 C190.552034,116.810547 190.979764,116.962889 191.343047,117.267578 C191.70633,117.572267 191.887969,117.999997 191.887969,118.550781 L191.887969,139.521484 C191.887969,140.283207 191.662385,140.886717 191.211211,141.332031 C190.760037,141.777346 190.212191,142 189.567656,142 C189.157498,142 188.718049,141.882814 188.249297,141.648438 C187.780545,141.414061 187.399689,141.091799 187.106719,140.681641 L174.696563,122.857422 L174.696563,140.277344 C174.696563,140.816409 174.511994,141.23828 174.142852,141.542969 C173.773709,141.847658 173.343049,142 172.850859,142 Z M200.237469,141.982422 C199.698404,141.982422 199.235518,141.812502 198.848797,141.472656 C198.462076,141.132811 198.268719,140.664065 198.268719,140.066406 L198.268719,118.726562 C198.268719,118.117184 198.465006,117.64258 198.857586,117.302734 C199.250166,116.962889 199.721841,116.792969 200.272625,116.792969 C200.81169,116.792969 201.277506,116.962889 201.670086,117.302734 C202.062666,117.64258 202.258953,118.117184 202.258953,118.726562 L202.258953,140.066406 C202.258953,140.675784 202.059736,141.147459 201.661297,141.481445 C201.262857,141.815431 200.788253,141.982422 200.237469,141.982422 Z M215.987359,142.017578 C215.448294,142.017578 214.979549,141.844728 214.581109,141.499023 C214.18267,141.153319 213.983453,140.675784 213.983453,140.066406 L213.983453,119.992188 L207.620172,119.992188 C207.127982,119.992188 206.741267,119.833986 206.460016,119.517578 C206.178764,119.20117 206.038141,118.832033 206.038141,118.410156 C206.038141,117.97656 206.178764,117.601564 206.460016,117.285156 C206.741267,116.968748 207.127982,116.810547 207.620172,116.810547 L224.301813,116.810547 C224.794002,116.810547 225.180717,116.968748 225.461969,117.285156 C225.74322,117.601564 225.883844,117.970701 225.883844,118.392578 C225.883844,118.826174 225.74322,119.20117 225.461969,119.517578 C225.180717,119.833986 224.794002,119.992188 224.301813,119.992188 L217.991266,119.992188 L217.991266,140.066406 C217.991266,140.675784 217.792049,141.153319 217.393609,141.499023 C216.99517,141.844728 216.526425,142.017578 215.987359,142.017578 Z M235.586859,140.066406 L235.586859,131.611328 L227.79975,119.517578 C227.752875,119.447265 227.71186,119.374024 227.676703,119.297852 C227.641547,119.221679 227.61225,119.148438 227.588812,119.078125 C227.565375,119.007812 227.547797,118.9375 227.536078,118.867188 C227.524359,118.796875 227.5185,118.726563 227.5185,118.65625 C227.5185,118.515624 227.539008,118.37793 227.580023,118.243164 C227.621039,118.108398 227.676703,117.982422 227.747016,117.865234 C227.817328,117.748046 227.899359,117.636719 227.993109,117.53125 C228.08686,117.425781 228.195257,117.332032 228.318305,117.25 C228.441352,117.167968 228.567327,117.097657 228.696234,117.039062 C228.825141,116.980468 228.962835,116.936524 229.10932,116.907227 C229.255805,116.87793 229.399359,116.863281 229.539984,116.863281 C230.243113,116.863281 230.799748,117.191403 231.209906,117.847656 L237.801703,128.5 L244.498969,117.689453 C244.862252,117.091794 245.372012,116.792969 246.028266,116.792969 C246.239204,116.792969 246.44721,116.831054 246.652289,116.907227 C246.857368,116.983399 247.039007,117.088867 247.197211,117.223633 C247.355415,117.358399 247.48139,117.51953 247.575141,117.707031 C247.668891,117.894532 247.715766,118.093749 247.715766,118.304688 C247.715766,118.609377 247.616157,118.91992 247.416937,119.236328 L239.577094,131.470703 L239.577094,140.066406 C239.577094,140.476565 239.477485,140.831053 239.278266,141.129883 C239.079046,141.428712 238.832955,141.645507 238.539984,141.780273 C238.247014,141.91504 237.924752,141.982422 237.573187,141.982422 C237.034122,141.982422 236.568307,141.815431 236.175727,141.481445 C235.783146,141.147459 235.586859,140.675784 235.586859,140.066406 Z M272.729219,142.386719 C270.373738,142.386719 268.29954,141.824224 266.506562,140.699219 C264.713585,139.574213 263.348364,138.033213 262.410859,136.076172 C261.473355,134.119131 261.004609,131.904309 261.004609,129.431641 C261.004609,126.900378 261.496792,124.644541 262.481172,122.664062 C263.465552,120.683584 264.880577,119.127935 266.726289,117.99707 C268.572001,116.866205 270.696004,116.300781 273.098359,116.300781 C275.348371,116.300781 277.475302,116.839838 279.479219,117.917969 C279.795627,118.082032 280.029999,118.284178 280.182344,118.524414 C280.334688,118.76465 280.410859,119.01953 280.410859,119.289062 C280.410859,119.558595 280.340548,119.819335 280.199922,120.071289 C280.059296,120.323243 279.868868,120.52539 279.628633,120.677734 C279.388397,120.830079 279.133517,120.90625 278.863984,120.90625 C278.770234,120.90625 278.673555,120.897461 278.573945,120.879883 C278.474335,120.862305 278.377657,120.830078 278.283906,120.783203 L277.738984,120.510742 C277.422576,120.352538 277.153048,120.232422 276.930391,120.150391 C276.707733,120.068359 276.403049,119.965821 276.016328,119.842773 C275.629607,119.719726 275.201877,119.628907 274.733125,119.570312 C274.264373,119.511718 273.766331,119.482422 273.238984,119.482422 C271.90304,119.482422 270.719458,119.731443 269.688203,120.229492 C268.656948,120.727542 267.819066,121.421871 267.174531,122.3125 C266.529997,123.203129 266.043673,124.243158 265.715547,125.432617 C265.38742,126.622076 265.223359,127.937493 265.223359,129.378906 C265.223359,130.82032 265.38742,132.132807 265.715547,133.316406 C266.043673,134.500006 266.535856,135.534175 267.192109,136.418945 C267.848363,137.303715 268.703823,137.989255 269.758516,138.475586 C270.813208,138.961916 272.026087,139.205078 273.397187,139.205078 C274.100316,139.205078 274.788786,139.120118 275.462617,138.950195 C276.136449,138.780273 276.675506,138.601563 277.079805,138.414062 C277.484104,138.226562 277.990934,137.968752 278.600312,137.640625 C278.834689,137.511718 279.069061,137.447266 279.303437,137.447266 C279.701877,137.447266 280.041717,137.602538 280.322969,137.913086 C280.60422,138.223634 280.744844,138.583982 280.744844,138.994141 C280.744844,139.5918 280.446019,140.083982 279.848359,140.470703 C277.832724,141.748053 275.459701,142.386719 272.729219,142.386719 Z M287.705672,141.982422 C287.166607,141.982422 286.700791,141.812502 286.308211,141.472656 C285.915631,141.132811 285.719344,140.664065 285.719344,140.066406 L285.719344,118.761719 C285.719344,118.16406 285.915631,117.692385 286.308211,117.34668 C286.700791,117.000975 287.172466,116.828125 287.72325,116.828125 C288.262315,116.828125 288.728131,116.998045 289.120711,117.337891 C289.513291,117.677736 289.709578,118.152341 289.709578,118.761719 L289.709578,127.357422 L301.891219,127.357422 L301.891219,118.761719 C301.891219,118.16406 302.087506,117.692385 302.480086,117.34668 C302.872666,117.000975 303.344341,116.828125 303.895125,116.828125 C304.445909,116.828125 304.914654,116.998045 305.301375,117.337891 C305.688096,117.677736 305.881453,118.152341 305.881453,118.761719 L305.881453,140.066406 C305.881453,140.675784 305.685166,141.147459 305.292586,141.481445 C304.900006,141.815431 304.428331,141.982422 303.877547,141.982422 C303.338482,141.982422 302.872666,141.812502 302.480086,141.472656 C302.087506,141.132811 301.891219,140.664065 301.891219,140.066406 L301.891219,130.539062 L289.709578,130.539062 L289.709578,140.066406 C289.709578,140.675784 289.513291,141.147459 289.120711,141.481445 C288.728131,141.815431 288.256456,141.982422 287.705672,141.982422 Z M313.932125,142 C313.428216,142 312.974119,141.803713 312.56982,141.411133 C312.165521,141.018553 311.963375,140.570315 311.963375,140.066406 L311.963375,118.744141 C311.963375,118.228513 312.147943,117.777346 312.517086,117.390625 C312.886228,117.003904 313.334466,116.810547 313.861812,116.810547 L326.799312,116.810547 C327.279784,116.810547 327.65478,116.968748 327.924312,117.285156 C328.193845,117.601564 328.328609,117.970701 328.328609,118.392578 C328.328609,118.814455 328.193845,119.186522 327.924312,119.508789 C327.65478,119.831056 327.279784,119.992188 326.799312,119.992188 L315.953609,119.992188 L315.953609,127.533203 L326.1665,127.533203 C326.670409,127.533203 327.057124,127.685545 327.326656,127.990234 C327.596189,128.294923 327.730953,128.658201 327.730953,129.080078 C327.730953,129.490236 327.593259,129.850584 327.317867,130.161133 C327.042475,130.471681 326.65869,130.626953 326.1665,130.626953 L315.953609,130.626953 L315.953609,138.835938 L327.221187,138.835938 C327.713377,138.835938 328.094233,138.997069 328.363765,139.319336 C328.633298,139.641603 328.768062,140.01367 328.768062,140.435547 C328.768062,140.845705 328.633298,141.208983 328.363765,141.525391 C328.094233,141.841798 327.713377,142 327.221187,142 L313.932125,142 Z M344.517953,142.386719 C342.162472,142.386719 340.088274,141.824224 338.295297,140.699219 C336.502319,139.574213 335.137098,138.033213 334.199594,136.076172 C333.262089,134.119131 332.793344,131.904309 332.793344,129.431641 C332.793344,126.900378 333.285526,124.644541 334.269906,122.664062 C335.254286,120.683584 336.669311,119.127935 338.515023,117.99707 C340.360736,116.866205 342.484738,116.300781 344.887094,116.300781 C347.137105,116.300781 349.264037,116.839838 351.267953,117.917969 C351.584361,118.082032 351.818733,118.284178 351.971078,118.524414 C352.123422,118.76465 352.199594,119.01953 352.199594,119.289062 C352.199594,119.558595 352.129282,119.819335 351.988656,120.071289 C351.84803,120.323243 351.657603,120.52539 351.417367,120.677734 C351.177131,120.830079 350.922251,120.90625 350.652719,120.90625 C350.558968,120.90625 350.462289,120.897461 350.36268,120.879883 C350.26307,120.862305 350.166391,120.830078 350.07264,120.783203 L349.527719,120.510742 C349.211311,120.352538 348.941782,120.232422 348.719125,120.150391 C348.496467,120.068359 348.191783,119.965821 347.805062,119.842773 C347.418342,119.719726 346.990612,119.628907 346.521859,119.570312 C346.053107,119.511718 345.555065,119.482422 345.027719,119.482422 C343.691774,119.482422 342.508192,119.731443 341.476937,120.229492 C340.445682,120.727542 339.6078,121.421871 338.963265,122.3125 C338.318731,123.203129 337.832408,124.243158 337.504281,125.432617 C337.176154,126.622076 337.012094,127.937493 337.012094,129.378906 C337.012094,130.82032 337.176154,132.132807 337.504281,133.316406 C337.832408,134.500006 338.32459,135.534175 338.980844,136.418945 C339.637097,137.303715 340.492557,137.989255 341.54725,138.475586 C342.601943,138.961916 343.814821,139.205078 345.185922,139.205078 C345.88905,139.205078 346.57752,139.120118 347.251351,138.950195 C347.925183,138.780273 348.46424,138.601563 348.868539,138.414062 C349.272838,138.226562 349.779669,137.968752 350.389047,137.640625 C350.623423,137.511718 350.857796,137.447266 351.092172,137.447266 C351.490611,137.447266 351.830452,137.602538 352.111703,137.913086 C352.392954,138.223634 352.533578,138.583982 352.533578,138.994141 C352.533578,139.5918 352.234753,140.083982 351.637094,140.470703 C349.621459,141.748053 347.248435,142.386719 344.517953,142.386719 Z M359.494406,142 C358.955341,142 358.492455,141.835939 358.105734,141.507812 C357.719013,141.179686 357.525656,140.710941 357.525656,140.101562 L357.525656,118.708984 C357.525656,118.111325 357.724873,117.645509 358.123312,117.311523 C358.521752,116.977537 358.990497,116.810547 359.529562,116.810547 C360.056909,116.810547 360.516865,116.980467 360.909445,117.320312 C361.302025,117.660158 361.498312,118.123044 361.498312,118.708984 L361.498312,128.412109 L371.429953,117.619141 C371.922143,117.091794 372.420185,116.828125 372.924094,116.828125 C373.404565,116.828125 373.829365,116.989256 374.198508,117.311523 C374.56765,117.633791 374.752219,118.029295 374.752219,118.498047 C374.752219,118.931643 374.623314,119.283202 374.3655,119.552734 L365.594015,128.746094 L375.279562,139.029297 C375.560814,139.322267 375.701437,139.703123 375.701437,140.171875 C375.701437,140.675784 375.502221,141.103514 375.103781,141.455078 C374.705342,141.806642 374.242456,141.982422 373.715109,141.982422 C373.187763,141.982422 372.666284,141.701175 372.150656,141.138672 L361.498312,129.519531 L361.498312,140.101562 C361.498312,140.699222 361.299096,141.165037 360.900656,141.499023 C360.502217,141.833009 360.033471,142 359.494406,142 Z" id="COMMUNITY-CHECK"></path>
                <path d="M214.312597,45.625 C214.312597,48.0208453 213.72927,50.3176973 212.562597,52.515625 C211.395925,54.7135527 209.510527,56.9999881 206.906347,59.375 L192.937597,72.71875 L211.281347,72.71875 C212.073018,72.71875 212.698012,72.9739558 213.156347,73.484375 C213.614683,73.9947942 213.843847,74.6145797 213.843847,75.34375 C213.843847,76.0520869 213.619891,76.6718723 213.171972,77.203125 C212.724053,77.7343777 212.093851,78 211.281347,78 L189.562597,78 C188.291758,78 187.270934,77.6614617 186.500097,76.984375 C185.72926,76.3072883 185.343847,75.468755 185.343847,74.46875 C185.343847,74.1979153 185.375097,73.9218764 185.437597,73.640625 C185.500098,73.3593736 185.593847,73.0781264 185.718847,72.796875 C185.843848,72.5156236 186.005305,72.2343764 186.203222,71.953125 C186.40114,71.6718736 186.635513,71.3958347 186.906347,71.125 L203.125097,54.78125 C206.208446,51.6770678 207.750097,48.79168 207.750097,46.125 C207.750097,43.8333219 206.98448,41.9687572 205.453222,40.53125 C203.921965,39.0937428 202.052192,38.375 199.843847,38.375 C198.781342,38.375 197.812602,38.4374994 196.937597,38.5625 C196.062593,38.6875006 195.265726,38.8854153 194.546972,39.15625 C193.828219,39.4270847 193.255308,39.6666656 192.828222,39.875 C192.401137,40.0833344 191.859476,40.390623 191.203222,40.796875 C190.546969,41.203127 190.073015,41.4791659 189.781347,41.625 C189.489679,41.7708341 189.177182,41.84375 188.843847,41.84375 C188.13551,41.84375 187.494892,41.5416697 186.921972,40.9375 C186.349053,40.3333303 186.062597,39.6562538 186.062597,38.90625 C186.062597,38.0104122 186.510509,37.3020859 187.406347,36.78125 C189.468858,35.5312438 191.484462,34.5781283 193.453222,33.921875 C195.421982,33.2656217 197.7605,32.9375 200.468847,32.9375 C202.448024,32.9375 204.302172,33.2760383 206.031347,33.953125 C207.760523,34.6302117 209.229258,35.5416609 210.437597,36.6875 C211.645937,37.8333391 212.593844,39.1822839 213.281347,40.734375 C213.968851,42.2864661 214.312597,43.9166581 214.312597,45.625 Z" id="2"></path>
            </g>
        </g>
    </g>
</svg>