<?xml version="1.0" encoding="UTF-8"?>
<svg width="321px" height="239px" viewBox="0 0 321 239" version="1.1" xmlns="http://www.w3.org/2000/svg" xmlns:xlink="http://www.w3.org/1999/xlink">
    <!-- Generator: Sketch 52.2 (67145) - http://www.bohemiancoding.com/sketch -->
    <title>Icon_Service_CAS_Color Copy 2</title>
    <desc>Created with Sketch.</desc>
    <g id="Page-1" stroke="none" stroke-width="1" fill="none" fill-rule="evenodd">
        <g id="Icon_Service_CAS_Color-Copy-2" transform="translate(0.000000, 0.720430)">
            <path d="M320.453316,165.127683 C320.456301,165.399126 320.457797,165.670939 320.457797,165.943112 C320.457774,165.670944 320.456252,165.399138 320.453239,165.127699 Z M320.216567,171.91414 C320.190254,172.238414 320.161817,172.562077 320.131271,172.885114 C320.161761,172.56206 320.190228,172.238405 320.216567,171.91414 Z M249.398568,237.687288 C248.288115,237.68312 247.182697,237.652272 246.077497,237.599565 L246.077497,237.586138 C247.173642,237.647061 248.280666,237.680778 249.398568,237.687288 Z M156.819773,237.687774 L59.6187867,237.687774 L59.6187867,237.585456 C26.3661766,235.620951 0,207.681331 0,173.493494 C0,138.043736 28.3639241,109.306035 63.34837,109.306035 C67.2143183,109.306035 70.9984476,109.653916 74.6734849,110.329215 C74.5780294,108.739876 74.5234834,107.143716 74.5234834,105.527092 C74.5234834,67.3693194 102.396493,35.5279744 139.508234,27.9632675 C135.383192,36.7489685 133.01044,46.5237431 133.01044,56.8714981 L133.01044,58.8018967 C122.496697,59.6545462 114.205704,68.3583929 114.205704,79.0949562 L114.205704,173.452567 C114.205704,184.755289 123.362615,193.916156 134.660457,193.916156 L267.616352,193.916156 C277.856356,193.916156 286.337579,186.390474 287.83603,176.565356 C286.337953,186.390824 277.856582,193.916838 267.616352,193.916838 L156.819773,193.916838 L156.819773,237.687774 Z" id="Combined-Shape" fill="#80808A"></path>
            <path d="M186.737146,32.2653087 C177.08875,37.4511931 170.451638,47.4763301 170.410668,59.1530659 L222.927163,59.1530659 C213.797719,47.1840718 201.308749,37.750248 186.737146,32.2653087" id="Fill-5" fill="#53535A"></path>
            <path d="M288.003407,105.400008 L288.003407,173.311055 C288.003407,184.638678 278.827355,193.819726 267.505897,193.819726 L156.47772,193.819726 L156.47772,237.687774 L245.92202,237.687774 L245.92202,237.58523 C247.15187,237.653593 248.395386,237.687774 249.652566,237.687774 C288.754982,237.687774 320.457797,205.495996 320.457797,165.784373 C320.457797,140.435655 307.510203,118.211092 288.003407,105.400008" id="Fill-7" fill="#53535A"></path>
            <path d="M241.704489,71.7006859 L161.279228,71.7006859 L161.279228,57.3605487 C161.279228,35.1811366 179.286007,17.2081646 201.491859,17.2081646 C223.697711,17.2081646 241.704489,35.1811366 241.704489,57.3605487 L241.704489,71.7006859 Z M204.127059,162.089498 C204.127059,162.089498 169.50573,149.567759 161.872513,128.731756 C153.325012,105.407576 185.015162,100.083396 217.431272,101.010932 C234.899886,101.511314 256.248895,104.179506 256.248895,104.179506 C256.248895,104.179506 205.809829,110.631069 187.583361,125.404525 C169.786698,139.83168 204.127059,162.089498 204.127059,162.089498 Z M144.045244,71.7006859 L144.045244,57.3605487 C144.045244,25.6825028 169.759443,0 201.491859,0 C233.224275,0 258.945313,25.6825028 258.945313,57.3605487 L258.945313,71.7006859 L259.622362,71.7006859 C267.179328,71.7006859 273.300128,77.8191444 273.300128,85.3579594 L273.300128,167.028455 C273.300128,174.56727 267.179328,180.685728 259.622362,180.685728 L143.361356,180.685728 C135.811229,180.685728 129.68359,174.56727 129.68359,167.028455 L129.68359,85.3579594 C129.68359,77.8191444 135.811229,71.7006859 143.361356,71.7006859 L144.045244,71.7006859 Z" id="Fill-9" fill="#FF8D20"></path>
            <path d="M201.491859,101.098494 L201.491859,71.6995221 L241.493547,71.6995221 L241.493547,57.3592318 C241.493547,35.3383572 223.625147,17.4639585 201.491859,17.209177 L201.491859,3.55271368e-15 C233.215377,0.255428396 258.849476,25.8394737 258.849476,57.3592318 L258.849476,71.6995221 L259.531045,71.6995221 C267.138463,71.6995221 273.300128,77.818046 273.300128,85.3569415 L273.300128,167.028309 C273.300128,174.567205 267.138463,180.685728 259.531045,180.685728 L201.491859,180.685728 L201.491859,161.246079 C202.86945,161.803387 203.665237,162.0893 203.665237,162.0893 C203.665237,162.0893 202.832236,161.552962 201.491859,160.592833 L201.491859,117.422494 C223.875887,108.277575 256.135056,104.178689 256.135056,104.178689 C256.135056,104.178689 234.643514,101.510468 217.058273,101.010081 C211.79482,100.860473 206.55038,100.873511 201.491859,101.098494 Z" id="Combined-Shape" fill="#FF6C0B"></path>
        </g>
    </g>
</svg>