<?xml version="1.0" encoding="UTF-8"?>
<svg width="90px" height="86px" viewBox="0 0 90 86" version="1.1" xmlns="http://www.w3.org/2000/svg" xmlns:xlink="http://www.w3.org/1999/xlink">
    <!-- Generator: Sketch 52.4 (67378) - http://www.bohemiancoding.com/sketch -->
    <title>Group 15</title>
    <desc>Created with Sketch.</desc>
    <g id="Page-1" stroke="none" stroke-width="1" fill="none" fill-rule="evenodd">
        <g id="Group-15">
            <path d="M45.9881119,0.822058824 C47.6716783,0.556470588 49.3426573,0.186544118 51.041958,0.0158088235 C51.0608392,5.21058824 51.0482517,10.4085294 51.0513986,15.6033088 C62.9937063,15.6159559 74.9391608,15.6001471 86.8814685,15.6127941 C88.4800699,15.5305882 89.8332168,17.0640441 89.6853147,18.6417647 C89.6884615,34.7730882 89.6758741,50.90125 89.6916084,67.0325735 C89.6695804,68.1297059 89.8458042,69.3501471 89.1503497,70.2923529 C88.6090909,71.1713235 87.5076923,71.4242647 86.5479021,71.3958088 C74.7157343,71.3831618 62.8835664,71.3926471 51.0513986,71.3894853 C51.0513986,76.2522794 51.0513986,81.1150735 51.0513986,85.9778676 C44.0874126,84.9471324 37.1737762,83.5907353 30.2286713,82.4398529 C20.3727273,80.7135294 10.5104895,79.0346324 0.657692308,77.2830147 C0.135314685,77.23875 0.273776224,76.5684559 0.239160839,76.2143382 C0.261188811,53.9523529 0.236013986,31.6840441 0.251748252,9.42205882 C0.122727273,8.95727941 0.506643357,8.65058824 0.918881119,8.66007353 C15.9388112,6.03580882 30.965035,3.44 45.9881119,0.822058824 Z" id="Path" fill="#2876BB"></path>
            <path d="M51.0545455,18.6196324 C62.9307692,18.6133088 74.8101399,18.6133088 86.6863636,18.6196324 C86.6895105,35.20625 86.6895105,51.7928676 86.6863636,68.3794853 C74.806993,68.3826471 62.9307692,68.3826471 51.0513986,68.3794853 C51.0513986,67.1052941 51.0513986,65.8311029 51.0545455,64.5569118 C52.4863636,64.4557353 54.2108392,64.9584559 55.3877622,63.8834559 C56.8384615,62.5808088 57.965035,60.9683088 59.186014,59.4569853 C61.993007,55.7577206 64.7590909,51.9604412 66.6660839,47.7015441 C66.3891608,47.4296324 66.1027972,47.1735294 65.806993,46.9269118 C65.2877622,46.8067647 64.9793706,47.2620588 64.6552448,47.56875 C61.284965,51.0340441 57.9146853,54.5025 54.5003497,57.9266912 C53.6601399,58.9605882 52.2031469,58.5052941 51.0545455,58.5969853 C51.0545455,53.7405147 51.0482517,48.8840441 51.0576923,44.0275735 C53.2604895,45.5104412 55.5293706,46.9111029 57.9493007,48.0145588 C58.241958,47.6256618 59.1167832,47.0438971 58.5944056,46.5316912 C56.1083916,44.0244118 53.5814685,41.5582353 51.0576923,39.0888971 C51.0451049,35.5097794 51.0576923,31.9306618 51.0513986,28.3515441 C52.3825175,28.38 53.7356643,28.21875 55.051049,28.4843382 C56.1020979,29.0661029 56.8416084,30.0747059 57.7132867,30.8872794 C57.8737762,30.8746324 58.1916084,30.8493382 58.348951,30.8366912 C58.9814685,29.7205882 60.2087413,28.81 60.2590909,27.4599265 C58.95,25.9043382 57.3073427,24.6649265 55.884965,23.2168382 C54.6513986,21.8636029 52.6531469,22.5307353 51.0545455,22.3821324 C51.0513986,21.1269118 51.0513986,19.8716912 51.0545455,18.6196324 Z" id="Path" fill="#FEFEFF"></path>
            <path d="M67.241958,24.8799265 C68.1923077,23.8049265 69.1772727,22.3758088 70.7695804,22.3947794 C74.2562937,22.3663235 77.7461538,22.3758088 81.2328671,22.3884559 C82.029021,22.3631618 83.058042,22.7046324 83.0958042,23.65 C83.1933566,27.57375 83.1083916,31.5069853 83.1367133,35.4338971 C83.2562937,36.4804412 82.3594406,37.1507353 81.7458042,37.8494853 C80.5216783,39.0952206 79.4265734,40.4769118 78.1017483,41.6183088 C76.7076923,41.4444118 75.7447552,40.1891912 74.5646853,39.5157353 C75.1688811,38.2573529 76.4716783,37.5491176 77.1262238,36.3413235 C77.3716783,33.7170588 77.208042,31.0548529 77.1986014,28.4147794 C75.1751748,28.3199265 73.1423077,28.2946324 71.1188811,28.3989706 C70.3384615,28.3547059 69.8758741,29.0534559 69.3534965,29.5119118 C66.0587413,32.8570588 62.763986,36.2022059 59.4881119,39.5663235 C59.1671329,40.0247794 58.6447552,40.0563971 58.1381119,40.0247794 C57.9241259,39.4904412 57.6660839,38.8960294 58.0594406,38.3711765 C60.5202797,33.4925735 63.8276224,29.1135294 67.241958,24.8799265 Z" id="Path" fill="#2876BB"></path>
            <path d="M17.8269231,28.3104412 C22.0437063,28.00375 26.2541958,27.6717647 30.4678322,27.3334559 C30.4772727,29.2684559 30.4835664,31.2034559 30.4615385,33.1352941 C27.9062937,33.1605882 25.3447552,33.1352941 22.7926573,33.3028676 C22.7958042,35.5192647 22.7895105,37.7388235 22.7958042,39.9552206 C25.3541958,39.9141176 27.9094406,40.0247794 30.4646853,40.0058088 C30.4804196,41.9186765 30.4678322,43.8347059 30.4772727,45.7507353 C27.9188811,45.6622059 25.3541958,45.6685294 22.7958042,45.5705147 C22.7926573,47.8058824 22.7895105,50.0380882 22.798951,52.2702941 C25.6814685,52.4505147 28.5576923,52.6813235 31.4465035,52.7761765 C31.5125874,54.7333088 31.477972,56.6904412 31.4811189,58.6475735 C26.9307692,58.2144118 22.3772727,57.8413235 17.8269231,57.4144853 C17.8300699,47.7141912 17.8269231,38.0138971 17.8269231,28.3104412 Z" id="Path" fill="#FEFEFF"></path>
            <path d="M65.441958,40.1480882 C65.7503497,39.7528676 66.0587413,39.3576471 66.3451049,38.9466176 C70.8482517,41.0238971 74.8699301,43.9833088 78.7657343,47.0217647 C80.0748252,48.1220588 81.5129371,49.1022059 82.6111888,50.4333088 C83.2531469,51.1731618 83.1304196,52.2102206 83.1461538,53.1208088 C83.0958042,56.5133824 83.1996503,59.9122794 83.1020979,63.3048529 C83.0769231,64.2786765 82.0164336,64.6359559 81.1982517,64.5632353 C77.5164336,64.55375 73.8314685,64.5727206 70.1527972,64.5569118 C68.9475524,64.6233088 68.248951,63.4977206 67.4370629,62.8084559 C66.341958,61.6733824 64.9951049,60.7627941 64.0667832,59.4791176 C64.158042,58.1290441 65.3884615,57.2121324 66.0178322,56.0833824 C66.1562937,56.0833824 66.4300699,56.0833824 66.5653846,56.0833824 C67.7297203,56.9560294 68.5321678,58.6855147 70.177972,58.5969853 C72.5223776,58.5938235 74.8667832,58.6286029 77.208042,58.5558824 C77.2395105,56.5291912 77.2804196,54.4993382 77.2111888,52.4758088 C77.2332168,51.6853676 76.5157343,51.2111029 76.0657343,50.6672794 C72.5223776,47.1640441 68.9506993,43.6892647 65.441958,40.1480882 Z" id="Path" fill="#2876BB"></path>
        </g>
    </g>
</svg>