<?xml version="1.0" encoding="UTF-8"?>
<svg width="440px" height="290px" viewBox="0 0 440 290" version="1.1" xmlns="http://www.w3.org/2000/svg" xmlns:xlink="http://www.w3.org/1999/xlink">
    <!-- Generator: Sketch 52.4 (67378) - http://www.bohemiancoding.com/sketch -->
    <title>Internet_Cloud_Headquarter</title>
    <desc>Created with Sketch.</desc>
    <g id="Page-1" stroke="none" stroke-width="1" fill="none" fill-rule="evenodd">
        <g id="Artboard-Copy-33" transform="translate(-1834.000000, -564.000000)" fill="#47AFE8" fill-rule="nonzero">
            <g id="Internet_Cloud_Headquarter" transform="translate(1834.000000, 564.000000)">
                <path d="M192.462988,26.2309265 C238.016358,26.2309265 275.597888,57.0237533 285.847396,99.2213308 C292.680402,94.6594305 301.791076,92.3784804 309.762915,92.3784804 C335.956103,92.3784804 357.593954,114.047507 357.593954,140.278433 C357.593954,144.840333 356.45512,149.402234 355.316285,153.964134 C356.45512,153.964134 356.45512,153.964134 357.593954,153.964134 C387.203644,153.964134 412.257998,177.91411 412.257998,208.706937 C412.257998,238.359289 388.342479,263.44974 357.593954,263.44974 L101.356248,263.44974 C59.2193809,263.44974 26.1931877,229.235488 26.1931877,188.178386 C26.1931877,148.261759 56.9417124,115.187982 95.6620768,112.907032 C102.495082,63.8666037 143.493115,26.2309265 192.462988,26.2309265 M192.462988,2.84217094e-14 C136.66011,2.84217094e-14 88.8290713,37.6356772 74.0242261,88.9570552 C30.7485247,101.502281 0,141.418908 0,187.037911 C0,244.061664 45.5533699,289.680667 102.495082,289.680667 L358.732788,289.680667 C403.147324,289.680667 439.59002,253.185465 439.59002,208.706937 C439.59002,172.211735 415.6745,142.559383 383.787142,131.154633 C379.231805,94.6594305 347.344446,66.1475539 309.762915,66.1475539 C307.485247,66.1475539 304.068744,66.1475539 301.791076,66.1475539 C281.292059,26.2309265 239.155192,2.84217094e-14 192.462988,2.84217094e-14" id="Shape"></path>
            </g>
        </g>
    </g>
</svg>