<?xml version="1.0" encoding="UTF-8"?>
<svg width="361px" height="38px" viewBox="0 0 361 38" version="1.1" xmlns="http://www.w3.org/2000/svg" xmlns:xlink="http://www.w3.org/1999/xlink">
    <!-- Generator: Sketch 52.4 (67378) - http://www.bohemiancoding.com/sketch -->
    <title>Intrusion prevention 2</title>
    <desc>Created with Sketch.</desc>
    <g id="Page-1" stroke="none" stroke-width="1" fill="none" fill-rule="evenodd">
        <g id="Artboard-Copy-33" transform="translate(-832.000000, -993.000000)" fill="#666666">
            <g id="Intrusion-prevention-2" transform="translate(832.000000, 993.000000)">
                <path d="M2.31349325,29.9794922 C1.68458386,29.9794922 1.1445502,29.781252 0.693376064,29.3847656 C0.242201933,28.9882793 0.0166182518,28.4414097 0.0166182518,27.7441406 L0.0166182518,2.84765625 C0.0166182518,2.1367152 0.245619868,1.58300979 0.703629971,1.18652344 C1.16164007,0.79003708 1.71192754,0.591796875 2.35450888,0.591796875 C2.98341827,0.591796875 3.52686987,0.79003708 3.98487997,1.18652344 C4.44289007,1.58300979 4.67189169,2.1367152 4.67189169,2.84765625 L4.67189169,27.7441406 C4.67189169,28.4550817 4.43947214,29.0053691 3.97462606,29.3950195 C3.50977999,29.7846699 2.95607459,29.9794922 2.31349325,29.9794922 Z M12.6823881,30 C12.1218384,30 11.6399096,29.8256853 11.2365873,29.4770508 C10.833265,29.1284162 10.6316068,28.6464875 10.6316068,28.03125 L10.6316068,11.5019531 C10.6316068,10.8867157 10.8366829,10.4116228 11.2468412,10.0766602 C11.6569995,9.74169754 12.1423462,9.57421875 12.7028959,9.57421875 C13.2634456,9.57421875 13.7453743,9.73827961 14.1486967,10.0664062 C14.552019,10.3945329 14.7536771,10.8525361 14.7536771,11.4404297 L14.7536771,12.8964844 C15.3005549,11.7070253 16.1584564,10.7978547 17.3274076,10.1689453 C18.4963588,9.54003592 19.8601146,9.22558594 21.4187162,9.22558594 C22.4714558,9.22558594 23.4387313,9.37939299 24.3205717,9.68701172 C25.202412,9.99463044 25.988537,10.4594695 26.6789701,11.081543 C27.3694032,11.7036164 27.906019,12.5307566 28.2888334,13.5629883 C28.6716478,14.59522 28.8630521,15.7812433 28.8630521,17.1210938 L28.8630521,28.03125 C28.8630521,28.6464875 28.6545581,29.1284162 28.2375638,29.4770508 C27.8205696,29.8256853 27.3318049,30 26.7712553,30 C26.2107056,30 25.7287768,29.8256853 25.3254545,29.4770508 C24.9221321,29.1284162 24.720474,28.6464875 24.720474,28.03125 L24.720474,17.0800781 C24.720474,15.4394449 24.3239936,14.1884809 23.5310209,13.3271484 C22.7380482,12.465816 21.6648167,12.0351562 20.3112943,12.0351562 C18.7937086,12.0351562 17.5017293,12.5991155 16.4353178,13.7270508 C15.3689062,14.8549861 14.8083649,16.375967 14.7536771,18.2900391 L14.7536771,28.03125 C14.7536771,28.6464875 14.5486011,29.1284162 14.1384428,29.4770508 C13.7282845,29.8256853 13.2429377,30 12.6823881,30 Z M40.5444469,30.2460938 C38.8764699,30.2460938 37.5571471,29.7197318 36.5864391,28.6669922 C35.6157312,27.6142525 35.1303844,26.0693461 35.1303844,24.0322266 L35.1303844,12.4453125 L32.7514782,12.4453125 C32.2592882,12.4453125 31.8833154,12.3188489 31.6235485,12.065918 C31.3637816,11.812987 31.2339001,11.4882832 31.2339001,11.0917969 C31.2339001,10.6953105 31.3603636,10.3740247 31.6132946,10.1279297 C31.8662256,9.88183471 32.2387804,9.75878906 32.7309704,9.75878906 L35.1303844,9.75878906 L35.6840954,4.078125 C35.7524551,3.55859115 35.9746208,3.1279314 36.3505993,2.78613281 C36.7265777,2.44433423 37.181163,2.2734375 37.7143688,2.2734375 C38.165543,2.2734375 38.5380978,2.41015488 38.8320446,2.68359375 C39.1259914,2.95703262 39.2729626,3.3603489 39.2729626,3.89355469 L39.2729626,9.75878906 L42.943861,9.75878906 C43.436051,9.75878906 43.8051879,9.88867058 44.0512829,10.1484375 C44.2973779,10.4082044 44.4204235,10.7363261 44.4204235,11.1328125 C44.4204235,11.5292989 44.2973779,11.8471668 44.0512829,12.0864258 C43.8051879,12.3256848 43.436051,12.4453125 42.943861,12.4453125 L39.2729626,12.4453125 L39.2729626,23.1708984 C39.2729626,24.483405 39.457531,25.4540984 39.8266735,26.0830078 C40.195816,26.7119172 40.7973725,27.0263672 41.631361,27.0263672 L41.8364391,27.0263672 L43.2924938,26.9443359 L43.4155407,26.9443359 C43.9214026,26.9443359 44.3213009,27.1049789 44.6152477,27.4262695 C44.9091945,27.7475602 45.0561657,28.1201151 45.0561657,28.5439453 C45.0561657,28.7626964 45.0219863,28.9609366 44.9536266,29.1386719 C44.8852669,29.3164071 44.7964006,29.4633783 44.6870251,29.5795898 C44.5776495,29.6958014 44.4306783,29.7949215 44.2461071,29.8769531 C44.0615359,29.9589848 43.8803853,30.0239255 43.7026501,30.0717773 C43.5249148,30.1196291 43.3027491,30.1572264 43.0361462,30.1845703 C42.7695433,30.2119142 42.5268699,30.2290039 42.3081188,30.2358398 C42.0893677,30.2426758 41.8296047,30.2460938 41.5288219,30.2460938 L40.5444469,30.2460938 Z M50.1340449,30 C49.5734952,30 49.0949844,29.8325212 48.698498,29.4975586 C48.3020117,29.162596 48.1037714,28.6806672 48.1037714,28.0517578 L48.1037714,11.4814453 C48.1037714,10.8798798 48.3122655,10.4116228 48.7292597,10.0766602 C49.146254,9.74169754 49.6350186,9.57421875 50.1955683,9.57421875 C50.4143194,9.57421875 50.6228134,9.59814429 50.8210566,9.64599609 C51.0192998,9.6938479 51.2038682,9.76904246 51.3747675,9.87158203 C51.5456668,9.97412161 51.696056,10.0937493 51.8259394,10.2304688 C51.9558229,10.3671882 52.0583609,10.534667 52.1335566,10.7329102 C52.2087523,10.9311533 52.2463496,11.1464832 52.2463496,11.3789062 L52.2053339,13.9013672 C52.5471325,12.6298765 53.2409732,11.5634809 54.2868769,10.7021484 C55.3327806,9.84081601 56.5461474,9.41015625 57.9270136,9.41015625 C58.4192036,9.41015625 58.8020123,9.58788885 59.0754511,9.94335938 C59.34889,10.2988299 59.4856074,10.7226538 59.4856074,11.2148438 C59.4856074,11.6660179 59.3625617,12.0556624 59.1164668,12.3837891 C58.8703718,12.7119157 58.5217425,12.8759766 58.0705683,12.8759766 C56.2521999,12.8759766 54.8269211,13.2998004 53.7946894,14.1474609 C52.7624577,14.9951214 52.2463496,16.2871007 52.2463496,18.0234375 L52.2463496,28.0517578 C52.2463496,28.6669953 52.0344376,29.1455061 51.6106074,29.4873047 C51.1867771,29.8291033 50.6945946,30 50.1340449,30 Z M69.4648538,30.328125 C67.2773428,30.328125 65.4965989,29.6684636 64.1225686,28.3491211 C62.7485383,27.0297786 62.0615335,25.0507944 62.0615335,22.4121094 L62.0615335,11.5429688 C62.0615335,10.9140594 62.2666095,10.4252947 62.6767678,10.0766602 C63.0869261,9.7280256 63.5722728,9.55371094 64.1328225,9.55371094 C64.6933722,9.55371094 65.175301,9.7280256 65.5786233,10.0766602 C65.9819456,10.4252947 66.1836038,10.9140594 66.1836038,11.5429688 L66.1836038,22.453125 C66.1836038,24.1074301 66.5732483,25.3652301 67.3525491,26.2265625 C68.1318498,27.0878949 69.1982454,27.5185547 70.5517678,27.5185547 C72.0830255,27.5185547 73.3852586,26.9511775 74.4585061,25.8164062 C75.5317537,24.681635 76.0957129,23.164072 76.1504006,21.2636719 L76.1504006,11.5429688 C76.1504006,10.9140594 76.3554767,10.4252947 76.765635,10.0766602 C77.1757933,9.7280256 77.6679759,9.55371094 78.2421975,9.55371094 C78.8027472,9.55371094 79.284676,9.7280256 79.6879983,10.0766602 C80.0913206,10.4252947 80.2929788,10.9140594 80.2929788,11.5429688 L80.2929788,28.0517578 C80.2929788,28.6669953 80.0879027,29.1455061 79.6777444,29.4873047 C79.2675861,29.8291033 78.7754035,30 78.2011819,30 C77.6406322,30 77.1587034,29.8359391 76.7553811,29.5078125 C76.3520588,29.1796859 76.1504006,28.7216826 76.1504006,28.1337891 L76.1504006,26.6572266 C75.6035229,27.8330137 74.7422034,28.7387664 73.5664163,29.3745117 C72.3906291,30.0102571 71.0234553,30.328125 69.4648538,30.328125 Z M85.145272,28.0927734 C84.7214418,27.7919907 84.5095298,27.4023461 84.5095298,26.9238281 C84.5095298,26.5683576 84.6394113,26.2539076 84.8991783,25.9804688 C85.1589452,25.7070299 85.4870669,25.5703125 85.8835533,25.5703125 C86.198008,25.5703125 86.5192938,25.6660147 86.8474205,25.8574219 C88.7478206,27.0195371 90.7028792,27.6005859 92.7126548,27.6005859 C94.120865,27.6005859 95.2727089,27.3271512 96.1682212,26.7802734 C97.0637335,26.2333957 97.511483,25.4130914 97.511483,24.3193359 C97.511483,23.5673791 97.2585558,22.9589867 96.7526939,22.4941406 C96.246832,22.0292946 95.4333636,21.6533217 94.3122642,21.3662109 L90.8259361,20.484375 C90.1833547,20.3203117 89.646739,20.1733405 89.2160728,20.043457 C88.7854066,19.9135736 88.3239854,19.7563486 87.8317955,19.5717773 C87.3396055,19.3872061 86.9397071,19.1992197 86.6320884,19.0078125 C86.3244697,18.8164053 86.0202735,18.5839857 85.7194908,18.3105469 C85.418708,18.037108 85.1862885,17.7363298 85.0222251,17.4082031 C84.8581618,17.0800765 84.7248624,16.6972678 84.6223228,16.2597656 C84.5197832,15.8222634 84.4685142,15.3369167 84.4685142,14.8037109 C84.4685142,13.3544849 84.9538609,12.1582078 85.9245689,11.2148438 C87.346451,9.84764941 89.5476009,9.1640625 92.5280845,9.1640625 C93.867935,9.1640625 95.118899,9.31786956 96.2810142,9.62548828 C97.4431294,9.93310701 98.4206587,10.2919901 99.2136314,10.7021484 C99.801525,10.9892592 100.095467,11.4267549 100.095467,12.0146484 C100.095467,12.1787118 100.068124,12.3393547 100.013436,12.496582 C99.9587483,12.6538094 99.8767179,12.7905268 99.7673423,12.9067383 C99.6579668,13.0229498 99.5212494,13.115234 99.3571861,13.1835938 C99.1931228,13.2519535 99.0153902,13.2861328 98.823983,13.2861328 C98.6189038,13.2861328 98.3933201,13.2451176 98.1472251,13.1630859 C98.0788654,13.1357421 97.945566,13.084473 97.7473228,13.0092773 C97.5490796,12.9340817 97.3816008,12.8691409 97.2448814,12.8144531 C97.108162,12.7597654 96.9201756,12.6948246 96.6809165,12.6196289 C96.4416575,12.5444332 96.2229097,12.4760745 96.0246665,12.4145508 C95.8264234,12.353027 95.5905859,12.2915042 95.317147,12.2299805 C95.0437081,12.1684567 94.7839451,12.1171877 94.5378501,12.0761719 C94.2917552,12.035156 94.0183204,12.0009767 93.7175376,11.9736328 C93.4167549,11.9462889 93.1228125,11.9326172 92.8357017,11.9326172 C91.9743693,11.9326172 91.2121699,12.0180656 90.5490806,12.1889648 C89.8859914,12.3598641 89.3459577,12.6538065 88.9289634,13.0708008 C88.5119692,13.4877951 88.3034751,14.0039032 88.3034751,14.6191406 C88.3034751,15.3984414 88.518805,15.9521468 88.9494712,16.2802734 C89.3801375,16.6084001 90.2858901,16.9433577 91.6667564,17.2851562 L95.1120689,18.1259766 C97.2038762,18.6591824 98.7146033,19.3974562 99.6442955,20.3408203 C100.573988,21.2841844 101.038827,22.507805 101.038827,24.0117188 C101.038827,25.0644584 100.833751,26.0009725 100.423592,26.8212891 C100.013434,27.6416057 99.439221,28.3081029 98.7009361,28.8208008 C97.9626511,29.3334987 97.1047496,29.7197253 96.1272056,29.9794922 C95.1496617,30.2392591 94.0730123,30.3691406 92.8972251,30.3691406 C92.1315963,30.3691406 91.3523072,30.3076178 90.5593345,30.1845703 C88.4128394,29.8290998 86.60817,29.1318411 85.145272,28.0927734 Z M107.01905,30 C106.444828,30 105.959481,29.8222674 105.562995,29.4667969 C105.166509,29.1113263 104.968268,28.5986362 104.968268,27.9287109 L104.968268,11.625 C104.968268,10.9824187 105.176762,10.4765643 105.593757,10.1074219 C106.010751,9.7382794 106.499516,9.55371094 107.060065,9.55371094 C107.606943,9.55371094 108.085454,9.7382794 108.495612,10.1074219 C108.90577,10.4765643 109.110847,10.9824187 109.110847,11.625 L109.110847,27.9287109 C109.110847,28.5712923 108.902353,29.0771466 108.485358,29.4462891 C108.068364,29.8154315 107.579599,30 107.01905,30 Z M107.039557,5.0625 C106.273929,5.0625 105.651865,4.84033425 105.173347,4.39599609 C104.694829,3.95165793 104.455573,3.36719112 104.455573,2.64257812 C104.455573,1.91796513 104.694829,1.33008038 105.173347,0.87890625 C105.651865,0.427732119 106.280764,0.202148438 107.060065,0.202148438 C107.825694,0.202148438 108.440922,0.427732119 108.905768,0.87890625 C109.370614,1.33008038 109.603034,1.91796513 109.603034,2.64257812 C109.603034,3.36719112 109.367197,3.95165793 108.895514,4.39599609 C108.423832,4.84033425 107.805186,5.0625 107.039557,5.0625 Z M123.027593,27.5185547 C125.023697,27.5048827 126.575439,26.81446 127.682866,25.4472656 C128.790294,24.0800713 129.343999,22.1933714 129.343999,19.7871094 C129.343999,17.3945193 128.783458,15.5044015 127.662359,14.1166992 C126.541259,12.728997 124.996353,12.0351562 123.027593,12.0351562 C121.045161,12.0351562 119.496837,12.725579 118.382573,14.1064453 C117.26831,15.4873116 116.711187,17.3808473 116.711187,19.7871094 C116.711187,22.1796995 117.271728,24.0663993 118.392827,25.4472656 C119.513927,26.8281319 121.058833,27.5185547 123.027593,27.5185547 Z M123.027593,30.328125 C121.373288,30.328125 119.876232,30.0444364 118.536382,29.4770508 C117.196532,28.9096651 116.102792,28.1406299 115.255132,27.1699219 C114.407471,26.1992139 113.758064,25.0849672 113.30689,23.8271484 C112.855716,22.5693296 112.630132,21.2226634 112.630132,19.7871094 C112.630132,18.3378834 112.855716,16.9809634 113.30689,15.7163086 C113.758064,14.4516538 114.410889,13.3339892 115.265386,12.3632812 C116.119882,11.3925733 117.213621,10.6269559 118.546636,10.0664062 C119.87965,9.50585657 121.373288,9.22558594 123.027593,9.22558594 C125.201432,9.22558594 127.084714,9.70409678 128.677495,10.6611328 C130.270277,11.6181688 131.459718,12.8862226 132.245855,14.465332 C133.031991,16.0444415 133.425054,17.8183495 133.425054,19.7871094 C133.425054,21.2089915 133.19947,22.5522398 132.748296,23.8168945 C132.297122,25.0815493 131.647714,26.1992139 130.800054,27.1699219 C129.952393,28.1406299 128.858654,28.9096651 127.518804,29.4770508 C126.178953,30.0444364 124.681898,30.328125 123.027593,30.328125 Z M139.015628,30 C138.455079,30 137.97315,29.8256853 137.569828,29.4770508 C137.166505,29.1284162 136.964847,28.6464875 136.964847,28.03125 L136.964847,11.5019531 C136.964847,10.8867157 137.169923,10.4116228 137.580081,10.0766602 C137.99024,9.74169754 138.475586,9.57421875 139.036136,9.57421875 C139.596686,9.57421875 140.078615,9.73827961 140.481937,10.0664062 C140.885259,10.3945329 141.086917,10.8525361 141.086917,11.4404297 L141.086917,12.8964844 C141.633795,11.7070253 142.491697,10.7978547 143.660648,10.1689453 C144.829599,9.54003592 146.193355,9.22558594 147.751956,9.22558594 C148.804696,9.22558594 149.771972,9.37939299 150.653812,9.68701172 C151.535652,9.99463044 152.321777,10.4594695 153.01221,11.081543 C153.702644,11.7036164 154.239259,12.5307566 154.622074,13.5629883 C155.004888,14.59522 155.196292,15.7812433 155.196292,17.1210938 L155.196292,28.03125 C155.196292,28.6464875 154.987798,29.1284162 154.570804,29.4770508 C154.15381,29.8256853 153.665045,30 153.104496,30 C152.543946,30 152.062017,29.8256853 151.658695,29.4770508 C151.255372,29.1284162 151.053714,28.6464875 151.053714,28.03125 L151.053714,17.0800781 C151.053714,15.4394449 150.657234,14.1884809 149.864261,13.3271484 C149.071288,12.465816 147.998057,12.0351562 146.644535,12.0351562 C145.126949,12.0351562 143.83497,12.5991155 142.768558,13.7270508 C141.702146,14.8549861 141.141605,16.375967 141.086917,18.2900391 L141.086917,28.03125 C141.086917,28.6464875 140.881841,29.1284162 140.471683,29.4770508 C140.061525,29.8256853 139.576178,30 139.015628,30 Z M172.837402,37.8134766 C172.290525,37.8134766 171.812014,37.6425798 171.401855,37.3007812 C170.991697,36.9589827 170.786621,36.4873077 170.786621,35.8857422 L170.786621,11.5429688 C170.786621,10.9277313 170.991697,10.4458025 171.401855,10.097168 C171.812014,9.74853341 172.29736,9.57421875 172.85791,9.57421875 C173.514163,9.57421875 174.020018,9.74169754 174.375488,10.0766602 C174.730959,10.4116228 174.908691,10.8935515 174.908691,11.5224609 L174.908691,12.9785156 C176.262214,10.47655 178.572738,9.22558594 181.840332,9.22558594 C183.262214,9.22558594 184.540522,9.51611038 185.675293,10.097168 C186.810064,10.6782256 187.736325,11.4643505 188.454102,12.4555664 C189.171879,13.4467823 189.722166,14.5747007 190.10498,15.8393555 C190.487795,17.1040102 190.679199,18.4540944 190.679199,19.8896484 C190.679199,22.9521637 189.858895,25.4575098 188.218262,27.4057617 C186.577629,29.3540136 184.349135,30.328125 181.532715,30.328125 C178.442856,30.328125 176.23487,29.125012 174.908691,26.71875 L174.908691,35.8857422 C174.908691,36.4873077 174.703615,36.9589827 174.293457,37.3007812 C173.883299,37.6425798 173.397952,37.8134766 172.837402,37.8134766 Z M180.855957,27.5185547 C181.689946,27.5185547 182.438473,27.3647476 183.101562,27.0571289 C183.764652,26.7495102 184.308103,26.3461939 184.731934,25.847168 C185.155764,25.348142 185.507811,24.7602573 185.788086,24.0834961 C186.068361,23.4067349 186.266601,22.71973 186.382812,22.0224609 C186.499024,21.3251918 186.557129,20.6005897 186.557129,19.8486328 C186.557129,18.9326126 186.464845,18.0473676 186.280273,17.1928711 C186.095702,16.3383746 185.805178,15.5112345 185.408691,14.7114258 C185.012205,13.9116171 184.434574,13.2656275 183.675781,12.7734375 C182.916988,12.2812475 182.024907,12.0351562 180.999512,12.0351562 C179.86474,12.0351562 178.897465,12.2231427 178.097656,12.5991211 C177.297848,12.9750995 176.672366,13.5185511 176.221191,14.2294922 C175.770017,14.9404332 175.441896,15.7539017 175.236816,16.6699219 C175.031737,17.5859421 174.929199,18.6455018 174.929199,19.8486328 C174.929199,20.6416055 174.99414,21.400387 175.124023,22.125 C175.253907,22.849613 175.472655,23.5434537 175.780273,24.206543 C176.087892,24.8696322 176.463865,25.4438452 176.908203,25.9291992 C177.352541,26.4145532 177.913083,26.8007798 178.589844,27.0878906 C179.266605,27.3750014 180.021968,27.5185547 180.855957,27.5185547 Z M196.433836,30 C195.873287,30 195.394776,29.8325212 194.998289,29.4975586 C194.601803,29.162596 194.403563,28.6806672 194.403563,28.0517578 L194.403563,11.4814453 C194.403563,10.8798798 194.612057,10.4116228 195.029051,10.0766602 C195.446045,9.74169754 195.93481,9.57421875 196.49536,9.57421875 C196.714111,9.57421875 196.922605,9.59814429 197.120848,9.64599609 C197.319091,9.6938479 197.50366,9.76904246 197.674559,9.87158203 C197.845458,9.97412161 197.995847,10.0937493 198.125731,10.2304688 C198.255614,10.3671882 198.358152,10.534667 198.433348,10.7329102 C198.508544,10.9311533 198.546141,11.1464832 198.546141,11.3789062 L198.505125,13.9013672 C198.846924,12.6298765 199.540765,11.5634809 200.586668,10.7021484 C201.632572,9.84081601 202.845939,9.41015625 204.226805,9.41015625 C204.718995,9.41015625 205.101804,9.58788885 205.375242,9.94335938 C205.648681,10.2988299 205.785399,10.7226538 205.785399,11.2148438 C205.785399,11.6660179 205.662353,12.0556624 205.416258,12.3837891 C205.170163,12.7119157 204.821534,12.8759766 204.37036,12.8759766 C202.551991,12.8759766 201.126712,13.2998004 200.094481,14.1474609 C199.062249,14.9951214 198.546141,16.2871007 198.546141,18.0234375 L198.546141,28.0517578 C198.546141,28.6669953 198.334229,29.1455061 197.910399,29.4873047 C197.486568,29.8291033 196.994386,30 196.433836,30 Z M217.610348,30.328125 C214.575177,30.3007811 212.10401,29.3335056 210.196774,27.4262695 C208.289538,25.5190334 207.335934,22.9248211 207.335934,19.6435547 C207.335934,18.2490165 207.5581,16.9296937 208.002438,15.6855469 C208.446776,14.4414 209.079094,13.3374072 209.899411,12.3735352 C210.719727,11.4096631 211.762197,10.6440458 213.026852,10.0766602 C214.291507,9.50927451 215.696278,9.22558594 217.241208,9.22558594 C218.813481,9.22558594 220.20458,9.49218483 221.414547,10.0253906 C222.624514,10.5585964 223.588372,11.2900344 224.306149,12.2197266 C225.023926,13.1494187 225.570796,14.1918888 225.946774,15.347168 C226.322752,16.5024472 226.524411,17.763665 226.551754,19.1308594 C226.551754,19.5820335 226.442381,19.9511704 226.223629,20.2382812 C226.004878,20.5253921 225.676757,20.6689453 225.239254,20.6689453 L211.49902,20.6689453 C211.553708,22.9384879 212.1621,24.6269476 213.324215,25.734375 C214.486331,26.8418024 216.010729,27.4091796 217.897458,27.4365234 C219.018557,27.4365234 220.043937,27.2280294 220.973629,26.8110352 C221.903322,26.3940409 222.853507,25.8300817 223.824215,25.1191406 C223.960935,25.023437 224.094234,24.9516604 224.224118,24.9038086 C224.354001,24.8559568 224.487301,24.8320312 224.62402,24.8320312 C224.856443,24.8320312 225.071773,24.896972 225.270016,25.0268555 C225.468259,25.1567389 225.625484,25.3310536 225.741696,25.5498047 C225.857907,25.7685558 225.916012,26.0009753 225.916012,26.2470703 C225.916012,26.4794933 225.864743,26.705077 225.762204,26.9238281 C225.659664,27.1425792 225.499021,27.3408194 225.28027,27.5185547 C223.161119,29.3916109 220.604504,30.328125 217.610348,30.328125 Z M211.540036,18.1669922 L222.983395,18.1669922 C222.860348,16.3896396 222.340822,14.9233456 221.424801,13.7680664 C220.508781,12.6127872 219.175787,12.0351562 217.425778,12.0351562 C216.52343,12.0351562 215.703125,12.2094709 214.96484,12.5581055 C214.226555,12.90674 213.621581,13.378415 213.149899,13.9731445 C212.678217,14.5678741 212.30908,15.2206996 212.042477,15.9316406 C211.775874,16.6425817 211.608395,17.3876914 211.540036,18.1669922 Z M238.089595,30.0410156 C237.21459,30.0410156 236.524167,29.8085961 236.018306,29.34375 C235.512444,28.8789039 235.033933,28.092779 234.582759,26.9853516 L228.471431,12.1171875 C228.375727,11.8984364 228.327876,11.6728527 228.327876,11.4404297 C228.327876,10.9345678 228.539788,10.4936542 228.963618,10.1176758 C229.387448,9.74169734 229.859123,9.55371094 230.378657,9.55371094 C230.515377,9.55371094 230.648676,9.56738268 230.778559,9.59472656 C230.908443,9.62207045 231.038324,9.66992153 231.168208,9.73828125 C231.298091,9.80664097 231.417719,9.89208933 231.527095,9.99462891 C231.63647,10.0971685 231.739008,10.2202141 231.834712,10.3637695 C231.930415,10.5073249 232.012446,10.6679679 232.080806,10.8457031 L238.089595,25.8574219 L244.098384,10.8457031 C244.440182,9.98437069 245.014395,9.55371094 245.82104,9.55371094 C246.067135,9.55371094 246.313226,9.60156202 246.559321,9.69726562 C246.805416,9.79296923 247.024164,9.92626868 247.215571,10.097168 C247.406978,10.2680673 247.564203,10.4731433 247.687251,10.7124023 C247.810298,10.9516614 247.871821,11.1943347 247.871821,11.4404297 C247.871821,11.4951175 247.868403,11.5498044 247.861567,11.6044922 C247.854731,11.65918 247.844477,11.7172848 247.830806,11.7788086 C247.817134,11.8403323 247.803462,11.8984372 247.78979,11.953125 C247.776118,12.0078128 247.75561,12.0624997 247.728266,12.1171875 L241.596431,26.9853516 C241.145256,28.092779 240.666746,28.8789039 240.160884,29.34375 C239.655022,29.8085961 238.964599,30.0410156 238.089595,30.0410156 Z M259.819818,30.328125 C256.784646,30.3007811 254.313479,29.3335056 252.406243,27.4262695 C250.499007,25.5190334 249.545403,22.9248211 249.545403,19.6435547 C249.545403,18.2490165 249.767569,16.9296937 250.211907,15.6855469 C250.656246,14.4414 251.288563,13.3374072 252.10888,12.3735352 C252.929197,11.4096631 253.971667,10.6440458 255.236321,10.0766602 C256.500976,9.50927451 257.905747,9.22558594 259.450677,9.22558594 C261.02295,9.22558594 262.41405,9.49218483 263.624017,10.0253906 C264.833984,10.5585964 265.797841,11.2900344 266.515618,12.2197266 C267.233395,13.1494187 267.780265,14.1918888 268.156243,15.347168 C268.532222,16.5024472 268.73388,17.763665 268.761224,19.1308594 C268.761224,19.5820335 268.65185,19.9511704 268.433099,20.2382812 C268.214348,20.5253921 267.886226,20.6689453 267.448724,20.6689453 L253.708489,20.6689453 C253.763177,22.9384879 254.37157,24.6269476 255.533685,25.734375 C256.6958,26.8418024 258.220199,27.4091796 260.106927,27.4365234 C261.228026,27.4365234 262.253407,27.2280294 263.183099,26.8110352 C264.112791,26.3940409 265.062977,25.8300817 266.033685,25.1191406 C266.170404,25.023437 266.303704,24.9516604 266.433587,24.9038086 C266.563471,24.8559568 266.69677,24.8320312 266.833489,24.8320312 C267.065912,24.8320312 267.281242,24.896972 267.479486,25.0268555 C267.677729,25.1567389 267.834954,25.3310536 267.951165,25.5498047 C268.067377,25.7685558 268.125482,26.0009753 268.125482,26.2470703 C268.125482,26.4794933 268.074213,26.705077 267.971673,26.9238281 C267.869133,27.1425792 267.708491,27.3408194 267.489739,27.5185547 C265.370588,29.3916109 262.813973,30.328125 259.819818,30.328125 Z M253.749505,18.1669922 L265.192864,18.1669922 C265.069817,16.3896396 264.550291,14.9233456 263.634271,13.7680664 C262.71825,12.6127872 261.385256,12.0351562 259.635247,12.0351562 C258.732899,12.0351562 257.912595,12.2094709 257.17431,12.5581055 C256.436025,12.90674 255.83105,13.378415 255.359368,13.9731445 C254.887686,14.5678741 254.518549,15.2206996 254.251946,15.9316406 C253.985344,16.6425817 253.817865,17.3876914 253.749505,18.1669922 Z M274.495353,30 C273.934803,30 273.452875,29.8256853 273.049552,29.4770508 C272.64623,29.1284162 272.444572,28.6464875 272.444572,28.03125 L272.444572,11.5019531 C272.444572,10.8867157 272.649648,10.4116228 273.059806,10.0766602 C273.469964,9.74169754 273.955311,9.57421875 274.515861,9.57421875 C275.07641,9.57421875 275.558339,9.73827961 275.961662,10.0664062 C276.364984,10.3945329 276.566642,10.8525361 276.566642,11.4404297 L276.566642,12.8964844 C277.11352,11.7070253 277.971421,10.7978547 279.140373,10.1689453 C280.309324,9.54003592 281.67308,9.22558594 283.231681,9.22558594 C284.284421,9.22558594 285.251696,9.37939299 286.133537,9.68701172 C287.015377,9.99463044 287.801502,10.4594695 288.491935,11.081543 C289.182368,11.7036164 289.718984,12.5307566 290.101798,13.5629883 C290.484613,14.59522 290.676017,15.7812433 290.676017,17.1210938 L290.676017,28.03125 C290.676017,28.6464875 290.467523,29.1284162 290.050529,29.4770508 C289.633534,29.8256853 289.14477,30 288.58422,30 C288.02367,30 287.541742,29.8256853 287.138419,29.4770508 C286.735097,29.1284162 286.533439,28.6464875 286.533439,28.03125 L286.533439,17.0800781 C286.533439,15.4394449 286.136959,14.1884809 285.343986,13.3271484 C284.551013,12.465816 283.477782,12.0351562 282.124259,12.0351562 C280.606674,12.0351562 279.314694,12.5991155 278.248283,13.7270508 C277.181871,14.8549861 276.62133,16.375967 276.566642,18.2900391 L276.566642,28.03125 C276.566642,28.6464875 276.361566,29.1284162 275.951408,29.4770508 C275.541249,29.8256853 275.055903,30 274.495353,30 Z M302.357412,30.2460938 C300.689435,30.2460938 299.370112,29.7197318 298.399404,28.6669922 C297.428696,27.6142525 296.943349,26.0693461 296.943349,24.0322266 L296.943349,12.4453125 L294.564443,12.4453125 C294.072253,12.4453125 293.69628,12.3188489 293.436513,12.065918 C293.176747,11.812987 293.046865,11.4882832 293.046865,11.0917969 C293.046865,10.6953105 293.173329,10.3740247 293.42626,10.1279297 C293.67919,9.88183471 294.051745,9.75878906 294.543935,9.75878906 L296.943349,9.75878906 L297.49706,4.078125 C297.56542,3.55859115 297.787586,3.1279314 298.163564,2.78613281 C298.539543,2.44433423 298.994128,2.2734375 299.527334,2.2734375 C299.978508,2.2734375 300.351063,2.41015488 300.64501,2.68359375 C300.938956,2.95703262 301.085927,3.3603489 301.085927,3.89355469 L301.085927,9.75878906 L304.756826,9.75878906 C305.249016,9.75878906 305.618153,9.88867058 305.864248,10.1484375 C306.110343,10.4082044 306.233388,10.7363261 306.233388,11.1328125 C306.233388,11.5292989 306.110343,11.8471668 305.864248,12.0864258 C305.618153,12.3256848 305.249016,12.4453125 304.756826,12.4453125 L301.085927,12.4453125 L301.085927,23.1708984 C301.085927,24.483405 301.270496,25.4540984 301.639638,26.0830078 C302.008781,26.7119172 302.610337,27.0263672 303.444326,27.0263672 L303.649404,27.0263672 L305.105459,26.9443359 L305.228506,26.9443359 C305.734368,26.9443359 306.134266,27.1049789 306.428213,27.4262695 C306.722159,27.7475602 306.869131,28.1201151 306.869131,28.5439453 C306.869131,28.7626964 306.834951,28.9609366 306.766592,29.1386719 C306.698232,29.3164071 306.609366,29.4633783 306.49999,29.5795898 C306.390614,29.6958014 306.243643,29.7949215 306.059072,29.8769531 C305.874501,29.9589848 305.69335,30.0239255 305.515615,30.0717773 C305.33788,30.1196291 305.115714,30.1572264 304.849111,30.1845703 C304.582508,30.2119142 304.339835,30.2290039 304.121084,30.2358398 C303.902333,30.2426758 303.64257,30.2460938 303.341787,30.2460938 L302.357412,30.2460938 Z M312.070057,30 C311.495835,30 311.010488,29.8222674 310.614002,29.4667969 C310.217516,29.1113263 310.019275,28.5986362 310.019275,27.9287109 L310.019275,11.625 C310.019275,10.9824187 310.227769,10.4765643 310.644764,10.1074219 C311.061758,9.7382794 311.550523,9.55371094 312.111072,9.55371094 C312.65795,9.55371094 313.136461,9.7382794 313.546619,10.1074219 C313.956777,10.4765643 314.161854,10.9824187 314.161854,11.625 L314.161854,27.9287109 C314.161854,28.5712923 313.95336,29.0771466 313.536365,29.4462891 C313.119371,29.8154315 312.630606,30 312.070057,30 Z M312.090564,5.0625 C311.324936,5.0625 310.702872,4.84033425 310.224354,4.39599609 C309.745836,3.95165793 309.50658,3.36719112 309.50658,2.64257812 C309.50658,1.91796513 309.745836,1.33008038 310.224354,0.87890625 C310.702872,0.427732119 311.331772,0.202148438 312.111072,0.202148438 C312.876701,0.202148438 313.491929,0.427732119 313.956775,0.87890625 C314.421622,1.33008038 314.654041,1.91796513 314.654041,2.64257812 C314.654041,3.36719112 314.418204,3.95165793 313.946522,4.39599609 C313.474839,4.84033425 312.856193,5.0625 312.090564,5.0625 Z M328.0786,27.5185547 C330.074704,27.5048827 331.626446,26.81446 332.733873,25.4472656 C333.841301,24.0800713 334.395006,22.1933714 334.395006,19.7871094 C334.395006,17.3945193 333.834465,15.5044015 332.713366,14.1166992 C331.592266,12.728997 330.04736,12.0351562 328.0786,12.0351562 C326.096168,12.0351562 324.547844,12.725579 323.43358,14.1064453 C322.319317,15.4873116 321.762194,17.3808473 321.762194,19.7871094 C321.762194,22.1796995 322.322735,24.0663993 323.443834,25.4472656 C324.564934,26.8281319 326.10984,27.5185547 328.0786,27.5185547 Z M328.0786,30.328125 C326.424295,30.328125 324.927239,30.0444364 323.587389,29.4770508 C322.247539,28.9096651 321.153799,28.1406299 320.306139,27.1699219 C319.458479,26.1992139 318.809071,25.0849672 318.357897,23.8271484 C317.906723,22.5693296 317.681139,21.2226634 317.681139,19.7871094 C317.681139,18.3378834 317.906723,16.9809634 318.357897,15.7163086 C318.809071,14.4516538 319.461896,13.3339892 320.316393,12.3632812 C321.170889,11.3925733 322.264628,10.6269559 323.597643,10.0664062 C324.930657,9.50585657 326.424295,9.22558594 328.0786,9.22558594 C330.252439,9.22558594 332.135721,9.70409678 333.728502,10.6611328 C335.321284,11.6181688 336.510725,12.8862226 337.296862,14.465332 C338.082998,16.0444415 338.476061,17.8183495 338.476061,19.7871094 C338.476061,21.2089915 338.250477,22.5522398 337.799303,23.8168945 C337.348129,25.0815493 336.698721,26.1992139 335.851061,27.1699219 C335.0034,28.1406299 333.909661,28.9096651 332.569811,29.4770508 C331.22996,30.0444364 329.732905,30.328125 328.0786,30.328125 Z M344.066635,30 C343.506086,30 343.024157,29.8256853 342.620835,29.4770508 C342.217512,29.1284162 342.015854,28.6464875 342.015854,28.03125 L342.015854,11.5019531 C342.015854,10.8867157 342.22093,10.4116228 342.631088,10.0766602 C343.041247,9.74169754 343.526594,9.57421875 344.087143,9.57421875 C344.647693,9.57421875 345.129622,9.73827961 345.532944,10.0664062 C345.936266,10.3945329 346.137924,10.8525361 346.137924,11.4404297 L346.137924,12.8964844 C346.684802,11.7070253 347.542704,10.7978547 348.711655,10.1689453 C349.880606,9.54003592 351.244362,9.22558594 352.802963,9.22558594 C353.855703,9.22558594 354.822979,9.37939299 355.704819,9.68701172 C356.586659,9.99463044 357.372784,10.4594695 358.063217,11.081543 C358.753651,11.7036164 359.290266,12.5307566 359.673081,13.5629883 C360.055895,14.59522 360.247299,15.7812433 360.247299,17.1210938 L360.247299,28.03125 C360.247299,28.6464875 360.038805,29.1284162 359.621811,29.4770508 C359.204817,29.8256853 358.716052,30 358.155503,30 C357.594953,30 357.113024,29.8256853 356.709702,29.4770508 C356.306379,29.1284162 356.104721,28.6464875 356.104721,28.03125 L356.104721,17.0800781 C356.104721,15.4394449 355.708241,14.1884809 354.915268,13.3271484 C354.122295,12.465816 353.049064,12.0351562 351.695542,12.0351562 C350.177956,12.0351562 348.885977,12.5991155 347.819565,13.7270508 C346.753153,14.8549861 346.192612,16.375967 346.137924,18.2900391 L346.137924,28.03125 C346.137924,28.6464875 345.932848,29.1284162 345.52269,29.4770508 C345.112532,29.8256853 344.627185,30 344.066635,30 Z" id="Intrusion-prevention"></path>
            </g>
        </g>
    </g>
</svg>