<?xml version="1.0" encoding="UTF-8"?>
<svg width="205px" height="38px" viewBox="0 0 205 38" version="1.1" xmlns="http://www.w3.org/2000/svg" xmlns:xlink="http://www.w3.org/1999/xlink">
    <!-- Generator: Sketch 52.4 (67378) - http://www.bohemiancoding.com/sketch -->
    <title>Judgement 2</title>
    <desc>Created with Sketch.</desc>
    <g id="Page-1" stroke="none" stroke-width="1" fill="none" fill-rule="evenodd">
        <g id="Artboard-Copy-33" transform="translate(-1553.000000, -740.000000)" fill="#333333">
            <g id="Judgement-2" transform="translate(1553.000000, 740.000000)">
                <path d="M4.03223505,30.252 C1.87622427,30.3360004 0.798235049,29.5940078 0.798235049,28.026 C0.798235049,27.3539966 0.973233299,26.8430018 1.32323505,26.493 C1.6732368,26.1429983 2.22623127,25.9400003 2.98223505,25.884 L4.32623505,25.8 C5.47424079,25.7439997 6.34223211,25.3800034 6.93023505,24.708 C7.51823799,24.0359966 7.81223505,23.0140069 7.81223505,21.642 L7.81223505,2.868 C7.81223505,2.05599594 8.0572326,1.40500245 8.54723505,0.915 C9.0372375,0.42499755 9.68823099,0.18 10.500235,0.18 C11.3402392,0.18 12.0052326,0.42499755 12.495235,0.915 C12.9852375,1.40500245 13.230235,2.05599594 13.230235,2.868 L13.230235,21.642 C13.230235,26.9340265 10.6122612,29.775998 5.37623505,30.168 L4.03223505,30.252 Z M34.3512939,9.042 C35.163298,9.042 35.8072915,9.26599776 36.2832939,9.714 C36.7592963,10.1620022 36.9972939,10.7639962 36.9972939,11.52 L36.9972939,27.816 C36.9972939,28.5440036 36.7522964,29.1319978 36.2622939,29.58 C35.7722915,30.0280022 35.1352978,30.252 34.3512939,30.252 C33.5952901,30.252 32.9932962,30.0420021 32.5452939,29.622 C32.0972917,29.2019979 31.8732939,28.6280036 31.8732939,27.9 L31.8732939,26.85 C31.2292907,27.9700056 30.3612994,28.830997 29.2692939,29.433 C28.1772885,30.035003 26.9453008,30.336 25.5732939,30.336 C20.5332687,30.336 18.0132939,27.5080283 18.0132939,21.852 L18.0132939,11.52 C18.0132939,10.7639962 18.2512915,10.1620022 18.7272939,9.714 C19.2032963,9.26599776 19.83329,9.042 20.6172939,9.042 C21.429298,9.042 22.0732915,9.26599776 22.5492939,9.714 C23.0252963,10.1620022 23.2632939,10.7639962 23.2632939,11.52 L23.2632939,21.894 C23.2632939,23.3500073 23.557291,24.4279965 24.1452939,25.128 C24.7332969,25.8280035 25.6572876,26.178 26.9172939,26.178 C28.3733012,26.178 29.5422895,25.6950048 30.4242939,24.729 C31.3062983,23.7629952 31.7472939,22.482008 31.7472939,20.886 L31.7472939,11.52 C31.7472939,10.7639962 31.9852915,10.1620022 32.4612939,9.714 C32.9372963,9.26599776 33.56729,9.042 34.3512939,9.042 Z M58.5803528,0.18 C59.3643567,0.18 60.0083503,0.40399776 60.5123528,0.852 C61.0163553,1.30000224 61.2683528,1.88799636 61.2683528,2.616 L61.2683528,27.732 C61.2683528,28.4880038 61.0303552,29.0899978 60.5543528,29.538 C60.0783504,29.9860022 59.4483567,30.21 58.6643528,30.21 C57.8803489,30.21 57.2503552,29.9860022 56.7743528,29.538 C56.2983504,29.0899978 56.0603528,28.4880038 56.0603528,27.732 L56.0603528,26.682 C55.4443497,27.8300057 54.5553586,28.7259968 53.3933528,29.37 C52.231347,30.0140032 50.9083602,30.336 49.4243528,30.336 C47.660344,30.336 46.0853597,29.8880045 44.6993528,28.992 C43.3133459,28.0959955 42.2353567,26.8290082 41.4653528,25.191 C40.695349,23.5529918 40.3103528,21.6700106 40.3103528,19.542 C40.3103528,17.4139894 40.695349,15.552008 41.4653528,13.956 C42.2353567,12.359992 43.3063459,11.1280043 44.6783528,10.26 C46.0503597,9.39199566 47.6323438,8.958 49.4243528,8.958 C50.9083602,8.958 52.2243471,9.26599692 53.3723528,9.882 C54.5203585,10.4980031 55.4023497,11.3659944 56.0183528,12.486 L56.0183528,2.532 C56.0183528,1.8319965 56.2493505,1.26500217 56.7113528,0.831 C57.1733551,0.39699783 57.7963489,0.18 58.5803528,0.18 Z M50.8103528,26.262 C52.4903612,26.262 53.7853483,25.6880057 54.6953528,24.54 C55.6053574,23.3919943 56.0603528,21.7540106 56.0603528,19.626 C56.0603528,17.4979894 55.6053574,15.8670057 54.6953528,14.733 C53.7853483,13.5989943 52.5043611,13.032 50.8523528,13.032 C49.1723444,13.032 47.8703574,13.5919944 46.9463528,14.712 C46.0223482,15.8320056 45.5603528,17.4419895 45.5603528,19.542 C45.5603528,21.6700106 46.0223482,23.3219941 46.9463528,24.498 C47.8703574,25.6740059 49.1583445,26.262 50.8103528,26.262 Z M83.0614117,9.042 C83.8454156,9.042 84.4754093,9.26599776 84.9514117,9.714 C85.4274141,10.1620022 85.6654117,10.7639962 85.6654117,11.52 L85.6654117,28.11 C85.6654117,31.3300161 84.7694206,33.7659917 82.9774117,35.418 C81.1854027,37.0700083 78.5394292,37.896 75.0394117,37.896 C71.9873964,37.896 69.4394219,37.3220057 67.3954117,36.174 C66.3594065,35.5579969 65.8414117,34.8160043 65.8414117,33.948 C65.8414117,33.3319969 65.9884102,32.8420018 66.2824117,32.478 C66.5764132,32.1139982 66.9614093,31.932 67.4374117,31.932 C67.6894129,31.932 67.9974099,31.9949994 68.3614117,32.121 C68.7254135,32.2470006 69.1034097,32.3939992 69.4954117,32.562 C70.5034167,32.9820021 71.4064077,33.3039989 72.2044117,33.528 C73.0024157,33.7520011 73.9194065,33.864 74.9554117,33.864 C78.62343,33.864 80.4574117,32.0720179 80.4574117,28.488 L80.4574117,25.8 C79.8414086,26.9480057 78.9454176,27.8369969 77.7694117,28.467 C76.5934058,29.0970032 75.2494192,29.412 73.7374117,29.412 C71.9454027,29.412 70.3564186,28.9850043 68.9704117,28.131 C67.5844048,27.2769957 66.4994156,26.0800077 65.7154117,24.54 C64.9314078,22.9999923 64.5394117,21.2220101 64.5394117,19.206 C64.5394117,17.1899899 64.9244078,15.4050078 65.6944117,13.851 C66.4644155,12.2969922 67.5494047,11.0930043 68.9494117,10.239 C70.3494187,9.38499573 71.9454027,8.958 73.7374117,8.958 C75.2494192,8.958 76.5934058,9.27299685 77.7694117,9.903 C78.9454176,10.5330032 79.8414086,11.4219943 80.4574117,12.57 L80.4574117,11.478 C80.4574117,10.7499964 80.6954093,10.1620022 81.1714117,9.714 C81.6474141,9.26599776 82.2774078,9.042 83.0614117,9.042 Z M75.1234117,25.338 C76.8034201,25.338 78.112407,24.7920055 79.0504117,23.7 C79.9884164,22.6079945 80.4574117,21.1100095 80.4574117,19.206 C80.4574117,17.2739903 79.9884164,15.7620055 79.0504117,14.67 C78.112407,13.5779945 76.8034201,13.032 75.1234117,13.032 C73.4714034,13.032 72.1694164,13.5779945 71.2174117,14.67 C70.2654069,15.7620055 69.7894117,17.2739903 69.7894117,19.206 C69.7894117,21.1100095 70.2654069,22.6079945 71.2174117,23.7 C72.1694164,24.7920055 73.4714034,25.338 75.1234117,25.338 Z M106.324471,24.372 C106.800473,24.372 107.185469,24.5539982 107.479471,24.918 C107.773472,25.2820018 107.920471,25.7719969 107.920471,26.388 C107.920471,27.2560043 107.402476,27.9839971 106.366471,28.572 C105.414466,29.1040027 104.336477,29.5309984 103.132471,29.853 C101.928465,30.1750016 100.780476,30.336 99.6884706,30.336 C96.384454,30.336 93.7664802,29.3840095 91.8344706,27.48 C89.9024609,25.5759905 88.9364706,22.9720165 88.9364706,19.668 C88.9364706,17.5679895 89.3564664,15.7060081 90.1964706,14.082 C91.0364748,12.4579919 92.2194629,11.1980045 93.7454706,10.302 C95.2714782,9.40599552 97.0004609,8.958 98.9324706,8.958 C100.78048,8.958 102.390464,9.36399594 103.762471,10.176 C105.134477,10.9880041 106.198467,12.1359926 106.954471,13.62 C107.710474,15.1040074 108.088471,16.8539899 108.088471,18.87 C108.088471,20.074006 107.556476,20.676 106.492471,20.676 L94.1024706,20.676 C94.2704714,22.6080097 94.8164659,24.0289955 95.7404706,24.939 C96.6644752,25.8490046 98.0084617,26.304 99.7724706,26.304 C100.668475,26.304 101.459467,26.1920011 102.145471,25.968 C102.831474,25.7439989 103.608466,25.436002 104.476471,25.044 C105.316475,24.5959978 105.932469,24.372 106.324471,24.372 Z M99.0584706,12.654 C97.6304634,12.654 96.4894748,13.1019955 95.6354706,13.998 C94.7814663,14.8940045 94.2704714,16.1819916 94.1024706,17.862 L103.594471,17.862 C103.53847,16.1539915 103.118474,14.8590044 102.334471,13.977 C101.550467,13.0949956 100.458478,12.654 99.0584706,12.654 Z M135.761529,8.958 C138.001541,8.958 139.716523,9.62299335 140.906529,10.953 C142.096535,12.2830067 142.691529,14.4319852 142.691529,17.4 L142.691529,27.732 C142.691529,28.5440041 142.446532,29.1669978 141.956529,29.601 C141.466527,30.0350022 140.829533,30.252 140.045529,30.252 C139.289526,30.252 138.666532,30.0350022 138.176529,29.601 C137.686527,29.1669978 137.441529,28.5440041 137.441529,27.732 L137.441529,17.4 C137.441529,15.8599923 137.168532,14.7610033 136.622529,14.103 C136.076527,13.4449967 135.243535,13.116 134.123529,13.116 C132.751523,13.116 131.659533,13.5849953 130.847529,14.523 C130.035525,15.4610047 129.629529,16.7419919 129.629529,18.366 L129.629529,27.732 C129.629529,28.5440041 129.384532,29.1669978 128.894529,29.601 C128.404527,30.0350022 127.781533,30.252 127.025529,30.252 C126.269526,30.252 125.639532,30.0350022 125.135529,29.601 C124.631527,29.1669978 124.379529,28.5440041 124.379529,27.732 L124.379529,17.4 C124.379529,15.8599923 124.106532,14.7610033 123.560529,14.103 C123.014527,13.4449967 122.181535,13.116 121.061529,13.116 C119.689523,13.116 118.604533,13.5849953 117.806529,14.523 C117.008525,15.4610047 116.609529,16.7419919 116.609529,18.366 L116.609529,27.732 C116.609529,28.5440041 116.357532,29.1669978 115.853529,29.601 C115.349527,30.0350022 114.719533,30.252 113.963529,30.252 C113.207526,30.252 112.584532,30.0350022 112.094529,29.601 C111.604527,29.1669978 111.359529,28.5440041 111.359529,27.732 L111.359529,11.478 C111.359529,10.6939961 111.611527,10.0920021 112.115529,9.672 C112.619532,9.2519979 113.249526,9.042 114.005529,9.042 C114.733533,9.042 115.328527,9.24499797 115.790529,9.651 C116.252532,10.057002 116.483529,10.6379962 116.483529,11.394 L116.483529,12.402 C117.127533,11.2819944 117.988524,10.4280029 119.066529,9.84 C120.144535,9.25199706 121.383522,8.958 122.783529,8.958 C125.863545,8.958 127.921524,10.2459871 128.957529,12.822 C129.573533,11.6459941 130.483523,10.7080035 131.687529,10.008 C132.891535,9.3079965 134.249522,8.958 135.761529,8.958 Z M163.266588,24.372 C163.742591,24.372 164.127587,24.5539982 164.421588,24.918 C164.71559,25.2820018 164.862588,25.7719969 164.862588,26.388 C164.862588,27.2560043 164.344593,27.9839971 163.308588,28.572 C162.356584,29.1040027 161.278594,29.5309984 160.074588,29.853 C158.870582,30.1750016 157.722594,30.336 156.630588,30.336 C153.326572,30.336 150.708598,29.3840095 148.776588,27.48 C146.844579,25.5759905 145.878588,22.9720165 145.878588,19.668 C145.878588,17.5679895 146.298584,15.7060081 147.138588,14.082 C147.978593,12.4579919 149.161581,11.1980045 150.687588,10.302 C152.213596,9.40599552 153.942579,8.958 155.874588,8.958 C157.722598,8.958 159.332581,9.36399594 160.704588,10.176 C162.076595,10.9880041 163.140585,12.1359926 163.896588,13.62 C164.652592,15.1040074 165.030588,16.8539899 165.030588,18.87 C165.030588,20.074006 164.498594,20.676 163.434588,20.676 L151.044588,20.676 C151.212589,22.6080097 151.758584,24.0289955 152.682588,24.939 C153.606593,25.8490046 154.950579,26.304 156.714588,26.304 C157.610593,26.304 158.401585,26.1920011 159.087588,25.968 C159.773592,25.7439989 160.550584,25.436002 161.418588,25.044 C162.258593,24.5959978 162.874586,24.372 163.266588,24.372 Z M156.000588,12.654 C154.572581,12.654 153.431593,13.1019955 152.577588,13.998 C151.723584,14.8940045 151.212589,16.1819916 151.044588,17.862 L160.536588,17.862 C160.480588,16.1539915 160.060592,14.8590044 159.276588,13.977 C158.492584,13.0949956 157.400595,12.654 156.000588,12.654 Z M180.229647,8.958 C182.69366,8.958 184.527641,9.657993 185.731647,11.058 C186.935653,12.458007 187.537647,14.5719859 187.537647,17.4 L187.537647,27.732 C187.537647,28.5160039 187.30665,29.1319978 186.844647,29.58 C186.382645,30.0280022 185.745651,30.252 184.933647,30.252 C184.121643,30.252 183.47765,30.0280022 183.001647,29.58 C182.525645,29.1319978 182.287647,28.5160039 182.287647,27.732 L182.287647,17.694 C182.287647,16.097992 181.98665,14.9360036 181.384647,14.208 C180.782644,13.4799964 179.837654,13.116 178.549647,13.116 C177.03764,13.116 175.826652,13.5919952 174.916647,14.544 C174.006643,15.4960048 173.551647,16.769992 173.551647,18.366 L173.551647,27.732 C173.551647,28.5160039 173.31365,29.1319978 172.837647,29.58 C172.361645,30.0280022 171.717651,30.252 170.905647,30.252 C170.093643,30.252 169.45665,30.0280022 168.994647,29.58 C168.532645,29.1319978 168.301647,28.5160039 168.301647,27.732 L168.301647,11.478 C168.301647,10.7499964 168.539645,10.1620022 169.015647,9.714 C169.49165,9.26599776 170.135643,9.042 170.947647,9.042 C171.675651,9.042 172.270645,9.25899783 172.732647,9.693 C173.19465,10.1270022 173.425647,10.6939965 173.425647,11.394 L173.425647,12.528 C174.125651,11.3799943 175.063641,10.4980031 176.239647,9.882 C177.415653,9.26599692 178.74564,8.958 180.229647,8.958 Z M202.526706,26.346 C203.926713,26.4300004 204.626706,27.0599941 204.626706,28.236 C204.626706,28.9080034 204.353709,29.4189983 203.807706,29.769 C203.261703,30.1190018 202.484711,30.2660003 201.476706,30.21 L200.342706,30.126 C195.638683,29.7899983 193.286706,27.2700235 193.286706,22.566 L193.286706,13.41 L191.186706,13.41 C190.430702,13.41 189.849708,13.2420017 189.443706,12.906 C189.037704,12.5699983 188.834706,12.0800032 188.834706,11.436 C188.834706,10.7919968 189.037704,10.3020017 189.443706,9.966 C189.849708,9.62999832 190.430702,9.462 191.186706,9.462 L193.286706,9.462 L193.286706,5.598 C193.286706,4.84199622 193.524704,4.24000224 194.000706,3.792 C194.476708,3.34399776 195.120702,3.12 195.932706,3.12 C196.71671,3.12 197.346704,3.34399776 197.822706,3.792 C198.298708,4.24000224 198.536706,4.84199622 198.536706,5.598 L198.536706,9.462 L202.106706,9.462 C202.86271,9.462 203.443704,9.62999832 203.849706,9.966 C204.255708,10.3020017 204.458706,10.7919968 204.458706,11.436 C204.458706,12.0800032 204.255708,12.5699983 203.849706,12.906 C203.443704,13.2420017 202.86271,13.41 202.106706,13.41 L198.536706,13.41 L198.536706,22.944 C198.536706,25.0160104 199.488697,26.1219993 201.392706,26.262 L202.526706,26.346 Z" id="Judgement"></path>
            </g>
        </g>
    </g>
</svg>