<?xml version="1.0" encoding="UTF-8"?>
<svg width="119px" height="44px" viewBox="0 0 119 44" version="1.1" xmlns="http://www.w3.org/2000/svg" xmlns:xlink="http://www.w3.org/1999/xlink">
    <!-- Generator: Sketch 52.3 (67297) - http://www.bohemiancoding.com/sketch -->
    <title>Line Copy 21</title>
    <desc>Created with Sketch.</desc>
    <g id="Page-1" stroke="none" stroke-width="1" fill="none" fill-rule="evenodd">
        <g id="Artboard-Copy-28" transform="translate(-1835.000000, -1319.000000)" fill="#47AFE8" fill-rule="nonzero">
            <g id="Line-Copy-21" transform="translate(1839.000000, 1340.000000)">
                <path id="Line-Copy-14" d="M70.1771922,5 L0.604991923,5 C-1.60414708,5 -3.39500808,3.209139 -3.39500808,1 C-3.39500808,-1.209139 -1.60414708,-3 0.604991923,-3 L70.1771922,-3 L70.1771922,-18.3753517 C70.1771922,-19.8249049 71.3522873,-21 72.8018405,-21 C73.2093042,-21 73.6111722,-20.9051318 73.9756189,-20.7229085 L112.725747,-1.34784425 C114.022267,-0.699584343 114.547786,0.876971108 113.899526,2.17349091 C113.645555,2.68143227 113.233689,3.09329862 112.725747,3.3472693 L73.9756189,22.7223336 C72.6790991,23.3705935 71.1025436,22.845075 70.4542837,21.5485552 C70.2720604,21.1841085 70.1771922,20.7822406 70.1771922,20.3747768 L70.1771922,5 Z"></path>
            </g>
        </g>
    </g>
</svg>