<?xml version="1.0" encoding="UTF-8"?>
<svg width="144px" height="44px" viewBox="0 0 144 44" version="1.1" xmlns="http://www.w3.org/2000/svg" xmlns:xlink="http://www.w3.org/1999/xlink">
    <!-- Generator: Sketch 52.3 (67297) - http://www.bohemiancoding.com/sketch -->
    <title>Line Copy 9</title>
    <desc>Created with Sketch.</desc>
    <g id="Page-1" stroke="none" stroke-width="1" fill="none" fill-rule="evenodd">
        <g id="Artboard-Copy-28" transform="translate(-353.000000, -1329.000000)" fill="#47AFE8" fill-rule="nonzero">
            <g id="Line-Copy-9" transform="translate(357.000000, 1350.000000)">
                <path id="Line-Copy-8" d="M95.1771922,5 L0.918722661,5 C-1.29041634,5 -3.08127734,3.209139 -3.08127734,1 C-3.08127734,-1.209139 -1.29041634,-3 0.918722661,-3 L95.1771922,-3 L95.1771922,-18.3753517 C95.1771922,-19.8249049 96.3522873,-21 97.8018405,-21 C98.2093042,-21 98.6111722,-20.9051318 98.9756189,-20.7229085 L137.725747,-1.34784425 C139.022267,-0.699584343 139.547786,0.876971108 138.899526,2.17349091 C138.645555,2.68143227 138.233689,3.09329862 137.725747,3.3472693 L98.9756189,22.7223336 C97.6790991,23.3705935 96.1025436,22.845075 95.4542837,21.5485552 C95.2720604,21.1841085 95.1771922,20.7822406 95.1771922,20.3747768 L95.1771922,5 Z"></path>
            </g>
        </g>
    </g>
</svg>