<?xml version="1.0" encoding="UTF-8"?>
<svg width="44px" height="120px" viewBox="0 0 44 120" version="1.1" xmlns="http://www.w3.org/2000/svg" xmlns:xlink="http://www.w3.org/1999/xlink">
    <!-- Generator: Sketch 52.3 (67297) - http://www.bohemiancoding.com/sketch -->
    <title>Line Copy 20</title>
    <desc>Created with Sketch.</desc>
    <g id="Page-1" stroke="none" stroke-width="1" fill="none" fill-rule="evenodd">
        <g id="Artboard-Copy-28" transform="translate(-196.000000, -1114.000000)" fill="#47AFE8" fill-rule="nonzero">
            <g id="Line-Copy-20" transform="translate(217.000000, 1118.000000)">
                <path id="Line-Copy-12" d="M15.6771922,60.5 L-55.5,60.5 C-57.709139,60.5 -59.5,58.709139 -59.5,56.5 C-59.5,54.290861 -57.709139,52.5 -55.5,52.5 L15.6771922,52.5 L15.6771922,37.1246483 C15.6771922,35.6750951 16.8522873,34.5 18.3018405,34.5 C18.7093042,34.5 19.1111722,34.5948682 19.4756189,34.7770915 L58.2257474,54.1521558 C59.5222672,54.8004157 60.0477857,56.3769711 59.3995258,57.6734909 C59.1455551,58.1814323 58.7336888,58.5932986 58.2257474,58.8472693 L19.4756189,78.2223336 C18.1790991,78.8705935 16.6025436,78.345075 15.9542837,77.0485552 C15.7720604,76.6841085 15.6771922,76.2822406 15.6771922,75.8747768 L15.6771922,60.5 Z"></path>
            </g>
        </g>
    </g>
</svg>