<?xml version="1.0" encoding="UTF-8"?>
<svg width="191px" height="45px" viewBox="0 0 191 45" version="1.1" xmlns="http://www.w3.org/2000/svg" xmlns:xlink="http://www.w3.org/1999/xlink">
    <!-- Generator: Sketch 52.3 (67297) - http://www.bohemiancoding.com/sketch -->
    <title>Line Copy 30</title>
    <desc>Created with Sketch.</desc>
    <g id="Page-1" stroke="none" stroke-width="1" fill="none" fill-rule="evenodd">
        <g id="Artboard-Copy-31" transform="translate(-1541.000000, -484.000000)" fill="#47AFE8" fill-rule="nonzero">
            <g id="Line-Copy-30" transform="translate(1545.000000, 506.000000)">
                <path id="Line-Copy-12" d="M142.444424,4.50025727 L-2.04006326e-05,4.49953079 C-2.2091594,4.49951952 -4.00001127,2.70864938 -4,0.499510385 C-3.99998873,-1.70962861 -2.2091186,-3.50048048 2.04006326e-05,-3.50046921 L142.444465,-3.49974273 L142.444543,-18.8750945 C142.444551,-20.3246477 143.619652,-21.4997367 145.069205,-21.4997293 C145.476669,-21.4997273 145.878536,-21.4048571 146.242982,-21.2226319 L184.993012,-1.84736997 C186.289528,-1.19910345 186.815039,0.37745468 186.166772,1.67397118 C185.912799,2.18191124 185.50093,2.59377549 184.992988,2.84774358 L146.24276,22.2226102 C144.946237,22.8708635 143.369684,22.345337 142.721431,21.0488139 C142.53921,20.6843663 142.444344,20.2824978 142.444346,19.8750341 L142.444424,4.50025727 Z"></path>
            </g>
        </g>
    </g>
</svg>