<?xml version="1.0" encoding="UTF-8"?>
<svg width="192px" height="45px" viewBox="0 0 192 45" version="1.1" xmlns="http://www.w3.org/2000/svg" xmlns:xlink="http://www.w3.org/1999/xlink">
    <!-- Generator: Sketch 52.3 (67297) - http://www.bohemiancoding.com/sketch -->
    <title>Line Copy 29</title>
    <desc>Created with Sketch.</desc>
    <g id="Page-1" stroke="none" stroke-width="1" fill="none" fill-rule="evenodd">
        <g id="Artboard-Copy-31" transform="translate(-751.000000, -484.000000)" fill="#47AFE8" fill-rule="nonzero">
            <g id="Line-Copy-29" transform="translate(754.000000, 506.000000)">
                <path id="Line-Copy-12" d="M41.5555353,-3.49974158 L184.99998,-3.50046921 C187.209119,-3.50048042 188.999989,-1.7096285 189,0.499510495 C189.000011,2.70864949 187.209159,4.49951958 185.00002,4.49953079 L41.5555758,4.50025842 L41.5556538,19.8756102 C41.5556612,21.3251634 40.3805721,22.5002644 38.9310189,22.5002717 C38.5235551,22.5002738 38.1216867,22.4054077 37.7572391,22.2231862 L-0.992987712,2.8483185 C-2.28951081,2.20006517 -2.81503729,0.623512386 -2.16678396,-0.673010707 C-1.91281586,-1.18095336 -1.5009516,-1.59282179 -0.993011529,-1.84679505 L37.7570187,-21.2220559 C39.0535352,-21.8703224 40.6300934,-21.3448119 41.2783598,-20.0482954 C41.460585,-19.6838496 41.5554552,-19.2819821 41.5554573,-18.8745184 L41.5555353,-3.49974158 Z"></path>
            </g>
        </g>
    </g>
</svg>