<?xml version="1.0" encoding="UTF-8"?>
<svg width="166px" height="121px" viewBox="0 0 166 121" version="1.1" xmlns="http://www.w3.org/2000/svg" xmlns:xlink="http://www.w3.org/1999/xlink">
    <!-- Generator: Sketch 52.2 (67145) - http://www.bohemiancoding.com/sketch -->
    <title>Group 24</title>
    <desc>Created with Sketch.</desc>
    <defs>
        <polygon id="path-1" points="0.00043488726 0.303307345 164.768346 0.303307345 164.768346 120.522581 0.00043488726 120.522581"></polygon>
    </defs>
    <g id="Page-1" stroke="none" stroke-width="1" fill="none" fill-rule="evenodd">
        <g id="Group-24" transform="translate(0.283262, 0.354839)">
            <g id="Group-3">
                <mask id="mask-2" fill="white">
                    <use xlink:href="#path-1"></use>
                </mask>
                <g id="Clip-2"></g>
                <path d="M68.5669348,13.4158046 C73.8790827,7.64267918 81.2808638,4.06365876 89.4610932,4.06365876 C100.337624,4.06365876 109.829038,10.3853104 114.880254,19.7714558 C119.272615,17.7246822 124.134654,16.5868303 129.246754,16.5868303 C148.866693,16.5868303 164.768346,33.3100809 164.768346,53.9410143 C164.768346,74.5696811 148.866693,91.2929317 129.246754,91.2929317 C126.8527,91.2929317 124.513006,91.0413349 122.249418,90.5676077 C117.802696,98.8408341 109.318046,104.430362 99.5874431,104.430362 C95.5125494,104.430362 91.6572739,103.451175 88.2260134,101.703597 C83.7162325,112.767054 73.2050074,120.523487 60.9564077,120.523487 C48.19899,120.523487 37.324634,112.109729 33.1540652,100.309615 C31.3297131,100.71081 29.440128,100.921607 27.5005308,100.921607 C12.3120932,100.921607 0.00043488726,87.9541748 0.00043488726,71.9562482 C0.00043488726,61.2350534 5.53220084,51.873841 13.7515701,46.866839 C12.0598586,42.8050248 11.1183277,38.3261494 11.1183277,33.6183435 C11.1183277,15.2177813 25.4478629,0.303307345 43.1216812,0.303307345 C53.4980912,0.303307345 62.7198756,5.44404092 68.5669348,13.4158046" id="Fill-1" fill="#009CDB" mask="url(#mask-2)"></path>
            </g>
            <path d="M23.9026389,62.976374 C23.8000548,63.2611088 23.9389708,63.318515 23.9710283,63.3713287 C24.2745063,63.6078422 24.5843958,63.7800608 24.8964224,63.9729457 C26.5463167,64.9121111 28.108587,65.1853646 29.7371096,65.1853646 C33.0604071,65.1853646 35.1227749,63.2886637 35.1227749,60.2323576 L35.1227749,60.1726551 C35.1227749,57.3482701 32.793261,56.3218472 30.6112117,55.5778628 L30.3269682,55.4791241 C28.6792111,54.9050621 27.2579939,54.4090726 27.2579939,53.2448748 L27.2579939,53.1828761 C27.2579939,52.1863044 28.0893525,51.4515051 29.3780653,51.4515051 C30.805694,51.4515051 32.502606,51.9635684 33.5968364,52.6111103 C33.5968364,52.6111103 33.9195489,52.8361426 34.0370932,52.5008904 C34.0990711,52.3194868 34.6525978,50.7212982 34.7124385,50.5490796 C34.7744164,50.3607873 34.6632836,50.2184199 34.5500137,50.1472362 C33.29977,49.3297719 31.5772119,48.7717836 29.7905389,48.7717836 L29.4592777,48.7740799 C26.4202237,48.7740799 24.295878,50.7488532 24.295878,53.5755345 L24.295878,53.6375332 C24.295878,56.6157669 26.6360778,57.5847836 28.8330873,58.2575843 L29.1835829,58.3746929 C30.7821852,58.90283 32.160659,59.3574871 32.160659,60.5653136 L32.160659,60.6273123 C32.160659,61.7318076 31.2651853,62.5515681 29.8225964,62.5515681 C29.260521,62.5515681 27.4738479,62.5446794 25.5418474,61.2289292 C25.3067588,61.0842656 25.1742543,60.9786382 24.9947322,60.8592333 C24.8985596,60.7995309 24.6591967,60.6870147 24.5587497,61.0199707 L23.9026389,62.976374 Z" id="Fill-4" fill="#FFFFFF"></path>
            <path d="M73.4347122,62.976374 C73.3321473,63.2611088 73.4710373,63.318515 73.5052257,63.3713287 C73.808647,63.6078422 74.116342,63.7800608 74.4283104,63.9729457 C76.0800339,64.9121111 77.6398763,65.1853646 79.2680953,65.1853646 C82.5907732,65.1853646 84.6548934,63.2886637 84.6548934,60.2323576 L84.6548934,60.1726551 C84.6548934,57.3482701 82.3258137,56.3218472 80.1441712,55.5778628 L79.8578439,55.4791241 C78.210394,54.9050621 76.7894417,54.4090726 76.7894417,53.2448748 L76.7894417,53.1828761 C76.7894417,52.1863044 77.6206454,51.4515051 78.9091179,51.4515051 C80.3386173,51.4515051 82.0330762,51.9635684 83.1271026,52.6111103 C83.1271026,52.6111103 83.4497549,52.8361426 83.5672773,52.5008904 C83.6292436,52.3194868 84.1826672,50.7212982 84.2446335,50.5490796 C84.3065998,50.3607873 84.1954878,50.2184199 84.0801022,50.1472362 C82.8322283,49.3297719 81.1078546,48.7717836 79.3236514,48.7717836 L78.9924519,48.7740799 C75.9518277,48.7740799 73.8300147,50.7488532 73.8300147,53.5755345 L73.8300147,53.6375332 C73.8300147,56.6157669 76.1697783,57.5847836 78.3642415,58.2575843 L78.7168086,58.3746929 C80.3151128,58.90283 81.6933297,59.3574871 81.6933297,60.5653136 L81.6933297,60.6273123 C81.6933297,61.7318076 80.7958861,62.5515681 79.3535661,62.5515681 C78.7937323,62.5515681 77.0052555,62.5446794 75.0757519,61.2289292 C74.8407071,61.0842656 74.7039538,60.9832307 74.5287387,60.8592333 C74.4667723,60.8201971 74.1868554,60.7030884 74.0907007,61.0199707 L73.4347122,62.976374 Z" id="Fill-6" fill="#FFFFFF"></path>
            <path d="M107.042107,56.7586854 C107.042107,58.4467546 106.733765,59.7801497 106.125892,60.7184647 C105.524627,61.6500455 104.612818,62.1034896 103.342011,62.1034896 C102.071204,62.1034896 101.168205,61.6500455 100.573546,60.7207095 C99.9744832,59.7801497 99.6683444,58.4467546 99.6683444,56.7586854 C99.6683444,55.072861 99.9744832,53.7439555 100.571344,52.8146195 C101.168205,51.8920179 102.071204,51.4453081 103.342011,51.4453081 C104.612818,51.4453081 105.524627,51.8920179 106.125892,52.8146195 C106.733765,53.7439555 107.042107,55.072861 107.042107,56.7586854 M109.903073,53.6294721 C109.621161,52.661975 109.182876,51.8089613 108.601433,51.0996131 C108.017787,50.3857753 107.27997,49.8133582 106.405602,49.40032 C105.531234,48.9827923 104.502696,48.7717836 103.342011,48.7717836 C102.183528,48.7717836 101.152788,48.9827923 100.27842,49.40032 C99.4040518,49.8133582 98.6662351,50.3857753 98.0847915,51.0996131 C97.5033479,51.811206 97.0650627,52.6642197 96.7831507,53.6294721 C96.5056435,54.5902348 96.362485,55.6430333 96.362485,56.7586854 C96.362485,57.8743375 96.5056435,58.9293808 96.7831507,59.8878988 C97.0650627,60.8531511 97.5011455,61.7061648 98.0847915,62.4177578 C98.6662351,63.1338403 99.4084567,63.7017678 100.280622,64.1035822 C101.152788,64.5098861 102.185731,64.7164052 103.342011,64.7164052 C104.502696,64.7164052 105.529032,64.5098861 106.405602,64.1035822 C107.275565,63.7017678 108.015584,63.1338403 108.601433,62.4177578 C109.182876,61.7084096 109.621161,60.8553959 109.903073,59.8878988 C110.180581,58.927136 110.321537,57.8743375 110.321537,56.7586854 C110.321537,55.6452781 110.180581,54.5902348 109.903073,53.6294721" id="Fill-8" fill="#FFFFFF"></path>
            <path d="M133.012472,61.6621293 C132.920138,61.3771234 132.649731,61.4848422 132.649731,61.4848422 C132.234228,61.6464203 131.792345,61.7967778 131.321881,61.8730786 C130.849219,61.9471352 130.321597,61.9875298 129.760998,61.9875298 C128.380385,61.9875298 127.28337,61.5656313 126.496333,60.7397874 C125.711494,59.9094552 125.267412,58.5697031 125.271809,56.7564372 C125.276206,55.1092377 125.667526,53.8682277 126.368824,52.9234444 C127.061329,51.9853935 128.120971,51.5029032 129.530163,51.5029032 C130.70852,51.5029032 131.605478,51.6397958 132.546405,51.9427548 C132.546405,51.9427548 132.770645,52.041497 132.876169,51.7407821 C133.128988,51.0338777 133.313656,50.528946 133.579666,49.7502291 C133.654413,49.5303033 133.469745,49.4360493 133.401593,49.4091196 C133.032258,49.2632505 132.157284,49.0208833 131.499954,48.9176528 C130.882196,48.8211547 130.161111,48.7717836 129.358685,48.7717836 C128.160542,48.7717836 127.094305,48.9827329 126.179759,49.3956548 C125.26961,49.8108209 124.495764,50.3830768 123.882403,51.0944695 C123.269041,51.8058622 122.802975,52.6586358 122.495195,53.6236164 C122.185217,54.5863529 122.029128,55.638855 122.029128,56.7586813 C122.029128,59.1756211 122.668871,61.1257796 123.926371,62.5530533 C125.188269,63.9893035 127.085511,64.7164052 129.558742,64.7164052 C131.020697,64.7164052 132.517826,64.4179344 133.599452,63.9825711 C133.599452,63.9825711 133.803906,63.8793406 133.71377,63.6369734 L133.012472,61.6621293 Z" id="Fill-10" fill="#FFFFFF"></path>
            <path d="M137.934594,55.1392782 C138.067861,54.2010996 138.315051,53.4200322 138.697657,52.8140317 C139.275865,51.8915642 140.157148,51.3843193 141.397394,51.3843193 C142.637639,51.3843193 143.452289,51.8915642 144.043394,52.8140317 C144.430299,53.4222766 144.602257,54.2347663 144.668891,55.1392782 L137.934594,55.1392782 Z M147.323489,53.0788763 C147.087047,52.1451866 146.500241,51.2025191 146.117635,50.7715854 C145.507185,50.0870292 144.91393,49.6089621 144.324975,49.3441175 C143.553315,49.0007171 142.631191,48.7717836 141.620939,48.7717836 C140.440879,48.7717836 139.370442,48.9805171 138.504204,49.4047175 C137.633668,49.8311623 136.902848,50.4147184 136.328938,51.1374302 C135.755029,51.8601419 135.325135,52.7197649 135.050003,53.6960991 C134.77487,54.6657 134.637304,55.7250787 134.637304,56.842813 C134.637304,57.9785029 134.781319,59.0356372 135.065049,59.9895269 C135.350929,60.95015 135.813065,61.7940619 136.432113,62.4943292 C137.053311,63.1990854 137.852914,63.7512192 138.80728,64.137264 C139.757347,64.5210643 140.911613,64.72082 142.233539,64.7163312 C144.961219,64.7073534 146.397066,64.0699306 146.988171,63.7287747 C147.093495,63.6681747 147.192371,63.5626857 147.067702,63.257441 L146.450803,61.452906 C146.356226,61.1835724 146.09614,61.2800836 146.09614,61.2800836 C145.416907,61.5449283 144.460392,62.0140176 142.218492,62.0117732 C140.754702,62.0095287 139.671368,61.5561506 138.989985,60.8513944 C138.293556,60.1309271 137.949641,59.0693039 137.891605,57.5722581 L147.329937,57.5812359 C147.329937,57.5812359 147.579276,57.576747 147.60507,57.325369 C147.615817,57.21988 147.92964,55.2986339 147.323489,53.0788763 Z" id="Fill-12" fill="#FFFFFF"></path>
            <path d="M61.385165,55.1392782 C61.5184407,54.2010996 61.7656456,53.4200322 62.1461263,52.8140317 C62.7265204,51.8915642 63.6057101,51.3843193 64.846034,51.3843193 C66.0885075,51.3843193 66.9032089,51.8915642 67.4943512,52.8140317 C67.8812806,53.4222766 68.0532492,54.2347663 68.1177375,55.1392782 L61.385165,55.1392782 Z M70.7746531,53.0788763 C70.5381962,52.1451866 69.9513532,51.2025191 69.5687229,50.7715854 C68.9582342,50.0870292 68.3649424,49.6089621 67.7738002,49.3441175 C67.0042405,49.0007171 66.0820586,48.7717836 65.0717429,48.7717836 C63.891608,48.7717836 62.8211032,48.9805171 61.9526615,49.4047175 C61.0820703,49.8311623 60.3533531,50.4147184 59.7794078,51.1374302 C59.2054624,51.8601419 58.7755408,52.7197649 58.500391,53.6960991 C58.2252411,54.6657 58.0876662,55.7250787 58.0876662,56.842813 C58.0876662,57.9785029 58.2295404,59.0356372 58.5154382,59.9895269 C58.8013361,60.95015 59.2635018,61.7940619 59.882589,62.4943292 C60.5038257,63.1990854 61.3013303,63.7512192 62.2557563,64.137264 C63.2080327,64.5210643 64.3602226,64.72082 65.6843812,64.7163312 C68.4122338,64.7073534 69.848172,64.0699306 70.4393142,63.7287747 C70.544645,63.6681747 70.643527,63.5626857 70.5188497,63.257441 L69.9019122,61.452906 C69.8073294,61.1835724 69.5450773,61.2800836 69.5450773,61.2800836 C68.8679507,61.5449283 67.9113751,62.0140176 65.6693339,62.0117732 C64.2054508,62.0095287 63.1220483,61.5561506 62.438473,60.8513944 C61.7419999,60.1309271 61.4002123,59.0693039 61.3400232,57.5722581 L70.7811019,57.5812359 C70.7811019,57.5812359 71.0304564,57.576747 71.0562517,57.325369 C71.0669998,57.21988 71.3786929,55.2986339 70.7746531,53.0788763 Z" id="Fill-14" fill="#FFFFFF"></path>
            <path d="M40.7973928,61.597439 C40.427168,61.2880088 40.3758074,61.2140147 40.2538258,61.0122124 C40.0676434,60.709509 39.9713422,60.2812397 39.9713422,59.7318891 C39.9713422,58.8663816 40.2452657,58.2452791 40.812373,57.8259788 C40.8059529,57.8259788 41.6213034,57.0882794 43.5366281,57.1151863 C44.8827055,57.1331243 46.089681,57.3438956 46.089681,57.3438956 L46.089681,61.8194215 L46.0918211,61.8194215 C46.0918211,61.8194215 44.8955456,62.0884912 43.5516083,62.1736966 C41.6405637,62.2947779 40.7909727,61.5951967 40.7973928,61.597439 M44.536021,54.6756211 C44.1550961,54.6464719 43.6607497,54.6330184 43.0701021,54.6330184 C42.2654517,54.6330184 41.4843417,54.7361618 40.7524522,54.9424486 C40.0205628,55.1509776 39.3592943,55.4738612 38.792187,55.897646 C38.2207996,56.3259152 37.7628337,56.8730236 37.4289894,57.5232754 C37.0951451,58.1712849 36.9239429,58.9358913 36.9239429,59.7901875 C36.9239429,60.664664 37.0716048,61.4203014 37.3562284,62.0391617 C37.6429921,62.6625065 38.0560175,63.1804657 38.5824642,63.581828 C39.104631,63.9787058 39.7487793,64.2701979 40.4956489,64.4495777 C41.2339584,64.6267153 42.0728492,64.7164052 42.984501,64.7164052 C43.9517935,64.7164052 44.9105258,64.6311998 45.8392978,64.4652735 C46.7637897,64.3015894 47.8937243,64.0616689 48.2083083,63.9831903 C48.5207524,63.9091961 48.8674368,63.808295 48.8674368,63.808295 C49.1006998,63.7477543 49.0814396,63.4876536 49.0814396,63.4876536 L49.0750195,54.4805456 C49.0750195,52.5051256 48.5742531,51.0431803 47.5834203,50.1350701 C46.5968676,49.2292021 45.1437888,48.7717836 43.2648446,48.7717836 C42.5586355,48.7717836 41.4265609,48.8726847 40.7481722,49.0161886 C40.7481722,49.0161886 38.6958857,49.4310044 37.8484348,50.1261011 C37.8484348,50.1261011 37.6622524,50.2471824 37.7649737,50.5184944 L38.4305223,52.390771 C38.5139834,52.6329337 38.7386863,52.5499705 38.7386863,52.5499705 C38.7386863,52.5499705 38.8093072,52.5208213 38.8927683,52.4692496 C40.7010916,51.4400581 42.9887811,51.4692073 42.9887811,51.4692073 C44.0031541,51.4692073 44.7864042,51.684463 45.310711,52.1082478 C45.8264576,52.5185791 46.085401,53.1419239 46.085401,54.4513964 L46.085401,54.8684544 C45.2786106,54.747373 44.536021,54.6756211 44.536021,54.6756211" id="Fill-16" fill="#FFFFFF"></path>
            <path d="M122.009941,49.8926797 C122.083075,49.6702227 121.927942,49.5623647 121.865889,49.5376473 C121.697458,49.4724831 120.868603,49.297214 120.232556,49.2567672 C119.009219,49.1803679 118.331065,49.3870956 117.721612,49.6657286 C117.118809,49.9421146 116.449519,50.3892756 116.077199,50.8971067 L116.077199,49.6926931 C116.077199,49.5286591 115.961957,49.3938367 115.795743,49.3938367 L113.300312,49.3938367 C113.140747,49.3938367 113.023289,49.5286591 113.023289,49.6926931 L113.023289,64.4153018 C113.023289,64.5793357 113.15626,64.7164052 113.318042,64.7164052 L115.875526,64.7164052 C116.039524,64.7164052 116.170279,64.5793357 116.170279,64.4153018 L116.170279,57.0607385 C116.170279,56.0742878 116.278872,55.0900841 116.493843,54.469901 C116.702165,53.858706 116.99027,53.3710982 117.347076,53.0205599 C117.701667,52.6677746 118.105013,52.4228472 118.548251,52.2857777 C119.000354,52.1464612 119.501213,52.0992733 119.853588,52.0992733 C120.363311,52.0992733 120.924008,52.2318487 120.924008,52.2318487 C121.110168,52.2543191 121.216545,52.137473 121.278598,51.966698 C121.444812,51.5150428 121.919077,50.1623245 122.009941,49.8926797" id="Fill-18" fill="#FFFFFF"></path>
            <path d="M97.9716039,42.5468092 C97.665211,42.4485562 97.3892401,42.3845776 97.0263492,42.311459 C96.6591123,42.2429105 96.2245124,42.2063512 95.7312416,42.2063512 C94.0058801,42.2063512 92.6455825,42.7181807 91.6872898,43.7327 C90.7398621,44.7380794 90.0944813,46.2689981 89.7728774,48.2843269 L89.6533625,48.965243 L87.4890551,48.965243 C87.4890551,48.965243 87.2239492,48.9538182 87.1674512,49.2554321 L86.8110794,51.3438793 C86.7871764,51.5426703 86.8697503,51.6660578 87.1239913,51.6637728 L89.2318006,51.6637728 L87.0913963,64.224161 C86.9240753,65.2363953 86.7328514,66.0681182 86.5198974,66.6987653 C86.3112895,67.3225576 86.1070276,67.7886881 85.8549597,68.1245762 C85.6115837,68.4536095 85.3790728,68.6935296 84.9792409,68.8351967 C84.651118,68.9517293 84.2730161,69.0042832 83.8579733,69.0042832 C83.6254623,69.0042832 83.3212424,68.965439 83.0930775,68.917455 C82.8670856,68.8717559 82.7475706,68.816917 82.5780767,68.7415136 C82.5780767,68.7415136 82.3303547,68.6432606 82.2325698,68.9014603 C82.1543418,69.1162459 81.591535,70.7431326 81.526345,70.9419236 C81.456809,71.1429995 81.552421,71.2983763 81.671936,71.3440754 C81.9522529,71.4468983 82.1630338,71.5154469 82.5433087,71.6114149 C83.0756935,71.7416572 83.5233314,71.750797 83.9427202,71.750797 C84.820612,71.750797 85.6202757,71.6205547 86.2852135,71.3669249 C86.9544973,71.11558 87.5325151,70.674584 88.049689,70.0759263 C88.6038038,69.4292845 88.9558297,68.7529383 89.2882986,67.8298172 C89.6185945,66.9158359 89.9010844,65.7802141 90.1270763,64.4595111 L92.2783457,51.6637728 L95.4205027,51.6637728 C95.4205027,51.6637728 95.6856086,51.6751976 95.7421066,51.3735837 L96.0963055,49.2851364 C96.1202085,49.0863455 96.0398075,48.962958 95.7855666,48.965243 L92.7346755,48.965243 C92.7498865,48.8898395 92.8867855,47.7610726 93.2366384,46.6985693 C93.3887483,46.2461486 93.6690652,45.8805561 93.9080952,45.6292112 C94.1406061,45.3824363 94.410058,45.2064948 94.7055859,45.1059569 C95.0098058,45.003134 95.3531397,44.952865 95.7312416,44.952865 C96.0180775,44.952865 96.2983944,44.9871393 96.5135213,45.0351234 C96.8112223,45.099102 96.9263912,45.1356613 97.0024462,45.1607958 C97.3131851,45.2590488 97.3566451,45.1630807 97.4174891,45.003134 L98.1454438,42.8964071 C98.2214988,42.6724817 98.0389669,42.5765136 97.9716039,42.5468092" id="Fill-20" fill="#FFFFFF"></path>
            <path d="M55.3859143,64.4100248 C55.3859143,64.5769335 55.2701613,64.7164052 55.1076618,64.7164052 L52.5143489,64.7164052 C52.3518494,64.7164052 52.2338704,64.5769335 52.2338704,64.4100248 L52.2338704,42.9771182 C52.2338704,42.8102095 52.3518494,42.6753107 52.5143489,42.6753107 L55.1076618,42.6753107 C55.2701613,42.6753107 55.3859143,42.8102095 55.3859143,42.9771182 L55.3859143,64.4100248 Z" id="Fill-22" fill="#FFFFFF"></path>
        </g>
    </g>
</svg>