<?xml version="1.0" encoding="UTF-8"?>
<svg width="84px" height="68px" viewBox="0 0 84 68" version="1.1" xmlns="http://www.w3.org/2000/svg" xmlns:xlink="http://www.w3.org/1999/xlink">
    <!-- Generator: Sketch 52.2 (67145) - http://www.bohemiancoding.com/sketch -->
    <title>Group 71 Copy 2</title>
    <desc>Created with Sketch.</desc>
    <g id="Page-1" stroke="none" stroke-width="1" fill="none" fill-rule="evenodd">
        <g id="Group-71-Copy-2" transform="translate(2.000000, 2.000000)">
            <g id="Group-69" transform="translate(0.000000, 14.515464)">
                <path d="M-8.70724615,12.7097477 L32.7722868,12.7097477 C34.9828074,12.7097477 36.7747884,14.5017287 36.7747884,16.7122493 L36.7747884,32.7722868 C36.7747884,34.9828074 34.9828074,36.7747884 32.7722868,36.7747884 L-8.70724615,36.7747884 C-10.9177667,36.7747884 -12.7097477,34.9828074 -12.7097477,32.7722868 L-12.7097477,16.7122493 C-12.7097477,14.5017287 -10.9177667,12.7097477 -8.70724615,12.7097477 Z" id="Rectangle" stroke="#636569" stroke-width="3.90243902" transform="translate(12.032520, 24.742268) rotate(-270.000000) translate(-12.032520, -24.742268) "></path>
                <ellipse id="Oval" fill="#636569" fill-rule="nonzero" cx="12.3577236" cy="42.2268041" rx="1.95121951" ry="1.97938144"></ellipse>
            </g>
            <g id="Group-70" transform="translate(33.170732, 0.000000)">
                <path d="M-4.25296738,8.91056911 L51.0822357,8.91056911 C53.2927563,8.91056911 55.0847372,10.7025501 55.0847372,12.9130707 L55.0847372,51.0869293 C55.0847372,53.2974499 53.2927563,55.0894309 51.0822357,55.0894309 L-4.25296738,55.0894309 C-6.46348796,55.0894309 -8.25546895,53.2974499 -8.25546895,51.0869293 L-8.25546895,12.9130707 C-8.25546895,10.7025501 -6.46348796,8.91056911 -4.25296738,8.91056911 Z" id="Rectangle" stroke="#636569" stroke-width="3.90243902" transform="translate(23.414634, 32.000000) rotate(-270.000000) translate(-23.414634, -32.000000) "></path>
                <ellipse id="Oval" fill="#636569" fill-rule="nonzero" cx="23.0894309" cy="55.7525773" rx="2.27642276" ry="2.30927835"></ellipse>
            </g>
        </g>
    </g>
</svg>