<?xml version="1.0" encoding="UTF-8" standalone="no"?>
<!DOCTYPE svg PUBLIC "-//W3C//DTD SVG 1.1//EN" "http://www.w3.org/Graphics/SVG/1.1/DTD/svg11.dtd">
<svg width="100%" height="100%" viewBox="0 0 242 61" version="1.1" xmlns="http://www.w3.org/2000/svg" xmlns:xlink="http://www.w3.org/1999/xlink" xml:space="preserve" xmlns:serif="http://www.serif.com/" style="fill-rule:evenodd;clip-rule:evenodd;stroke-linejoin:round;stroke-miterlimit:1.41421;">
    <g transform="matrix(1,0,0,1,-130,-584)">
        <g transform="matrix(1,0,0,1,27,27)">
            <g id="NGFW">
                <path id="Shape" d="M331.074,557L313.502,557L134.484,557L116.911,557C109.224,557 103,563.522 103,571.579L103,603.421C103,611.478 109.224,618 116.911,618L331.074,618C338.762,618 344.985,611.478 344.985,603.421L344.985,571.579C345.352,563.522 338.762,557 331.074,557ZM120.206,591.528L109.956,591.528L109.956,583.472L120.206,583.472L120.206,591.528ZM116.911,610.327C113.251,610.327 110.322,607.258 110.322,603.421L110.322,599.585L120.572,599.585L120.572,603.421C120.572,606.107 121.304,608.409 122.403,610.327L116.911,610.327ZM120.206,571.579L120.206,575.415L109.956,575.415L109.956,571.579C109.956,567.742 112.884,564.673 116.545,564.673L121.671,564.673C120.938,566.975 120.206,569.277 120.206,571.579ZM320.091,603.421C320.091,607.258 317.163,610.327 313.502,610.327L134.484,610.327C130.823,610.327 127.894,607.258 127.894,603.421L127.894,571.579C127.894,567.742 130.823,564.673 134.484,564.673L313.502,564.673C317.163,564.673 320.091,567.742 320.091,571.579L320.091,603.421ZM331.074,564.673C334.735,564.673 337.664,567.742 337.664,571.579L337.664,575.415L327.413,575.415L327.413,571.579C327.413,568.893 326.681,566.591 325.583,564.673L331.074,564.673ZM327.413,583.472L337.664,583.472L337.664,591.528L327.413,591.528L327.413,583.472ZM331.074,610.327L325.949,610.327C327.047,608.409 327.779,605.723 327.779,603.421L327.779,599.585L338.03,599.585L338.03,603.421C337.664,607.258 334.735,610.327 331.074,610.327Z" style="fill:rgb(99,101,105);fill-rule:nonzero;"/>
                <path id="Combined-Shape" d="M196.173,602L183.385,602C180.827,602 179,600.063 179,597.35L179,591.538C179,588.825 180.827,586.888 183.385,586.888L196.173,586.888C198.731,586.888 200.558,588.825 200.558,591.538L200.558,597.35C200.923,600.063 198.731,602 196.173,602ZM225.769,602L212.981,602C210.423,602 208.596,600.063 208.596,597.35L208.596,591.538C208.596,588.825 210.423,586.888 212.981,586.888L225.769,586.888C228.327,586.888 230.154,588.825 230.154,591.538L230.154,597.35C230.154,600.063 228.327,602 225.769,602ZM259.019,588.438L274.731,588.438L274.731,602L259.019,602L259.019,588.438ZM278.385,588.438L294.096,588.438L294.096,602L278.385,602L278.385,588.438ZM259.019,571L274.731,571L274.731,584.563L259.019,584.563L259.019,571ZM297.75,584.563L298.115,584.563L298.115,571L307.615,571C310.173,571 312,572.938 312,575.65L312,584.563L297.75,584.563ZM255.365,588.438L255.365,602L245.135,602C242.577,602 240.75,600.063 240.75,597.35L240.75,588.438L255.365,588.438ZM297.75,588.438L311.635,588.438L311.635,597.35C311.635,600.063 309.808,602 307.25,602L297.75,602L297.75,588.438ZM255.365,584.563L240.75,584.563L240.75,575.65C240.75,572.938 242.577,571 245.135,571L255.365,571L255.365,584.563ZM278.385,571L294.096,571L294.096,584.563L278.385,584.563L278.385,571Z" style="fill:rgb(99,101,105);fill-rule:nonzero;"/>
            </g>
        </g>
    </g>
</svg>
