<?xml version="1.0" encoding="UTF-8"?>
<svg width="533px" height="244px" viewBox="0 0 533 244" version="1.1" xmlns="http://www.w3.org/2000/svg" xmlns:xlink="http://www.w3.org/1999/xlink">
    <!-- Generator: Sketch 52.4 (67378) - http://www.bohemiancoding.com/sketch -->
    <title>Orange Dot Rectangle 2</title>
    <desc>Created with Sketch.</desc>
    <g id="Page-1" stroke="none" stroke-width="1" fill="none" fill-rule="evenodd">
        <g id="Artboard-Copy-35" transform="translate(-73.000000, -757.000000)" fill="#FF8D20" fill-rule="nonzero">
            <g id="Orange-Dot-Rectangle-2" transform="translate(73.000000, 757.000000)">
                <path d="M19,6 C17.3431458,6 16,4.65685425 16,3 C16,1.34314575 17.3431458,0 19,0 L21,0 C22.6568542,0 24,1.34314575 24,3 C24,4.65685425 22.6568542,6 21,6 L19,6 Z M51,6 C49.3431458,6 48,4.65685425 48,3 C48,1.34314575 49.3431458,0 51,0 L53,0 C54.6568542,0 56,1.34314575 56,3 C56,4.65685425 54.6568542,6 53,6 L51,6 Z M83,6 C81.3431458,6 80,4.65685425 80,3 C80,1.34314575 81.3431458,0 83,0 L85,0 C86.6568542,0 88,1.34314575 88,3 C88,4.65685425 86.6568542,6 85,6 L83,6 Z M115,6 C113.343146,6 112,4.65685425 112,3 C112,1.34314575 113.343146,0 115,0 L117,0 C118.656854,0 120,1.34314575 120,3 C120,4.65685425 118.656854,6 117,6 L115,6 Z M147,6 C145.343146,6 144,4.65685425 144,3 C144,1.34314575 145.343146,0 147,0 L149,0 C150.656854,0 152,1.34314575 152,3 C152,4.65685425 150.656854,6 149,6 L147,6 Z M179,6 C177.343146,6 176,4.65685425 176,3 C176,1.34314575 177.343146,0 179,0 L181,0 C182.656854,0 184,1.34314575 184,3 C184,4.65685425 182.656854,6 181,6 L179,6 Z M211,6 C209.343146,6 208,4.65685425 208,3 C208,1.34314575 209.343146,0 211,0 L213,0 C214.656854,0 216,1.34314575 216,3 C216,4.65685425 214.656854,6 213,6 L211,6 Z M243,6 C241.343146,6 240,4.65685425 240,3 C240,1.34314575 241.343146,0 243,0 L245,0 C246.656854,0 248,1.34314575 248,3 C248,4.65685425 246.656854,6 245,6 L243,6 Z M275,6 C273.343146,6 272,4.65685425 272,3 C272,1.34314575 273.343146,0 275,0 L277,0 C278.656854,0 280,1.34314575 280,3 C280,4.65685425 278.656854,6 277,6 L275,6 Z M307,6 C305.343146,6 304,4.65685425 304,3 C304,1.34314575 305.343146,0 307,0 L309,0 C310.656854,0 312,1.34314575 312,3 C312,4.65685425 310.656854,6 309,6 L307,6 Z M339,6 C337.343146,6 336,4.65685425 336,3 C336,1.34314575 337.343146,0 339,0 L341,0 C342.656854,0 344,1.34314575 344,3 C344,4.65685425 342.656854,6 341,6 L339,6 Z M371,6 C369.343146,6 368,4.65685425 368,3 C368,1.34314575 369.343146,0 371,0 L373,0 C374.656854,0 376,1.34314575 376,3 C376,4.65685425 374.656854,6 373,6 L371,6 Z M403,6 C401.343146,6 400,4.65685425 400,3 C400,1.34314575 401.343146,0 403,0 L405,0 C406.656854,0 408,1.34314575 408,3 C408,4.65685425 406.656854,6 405,6 L403,6 Z M435,6 C433.343146,6 432,4.65685425 432,3 C432,1.34314575 433.343146,0 435,0 L437,0 C438.656854,0 440,1.34314575 440,3 C440,4.65685425 438.656854,6 437,6 L435,6 Z M467,6 C465.343146,6 464,4.65685425 464,3 C464,1.34314575 465.343146,0 467,0 L469,0 C470.656854,0 472,1.34314575 472,3 C472,4.65685425 470.656854,6 469,6 L467,6 Z M499,6 C497.343146,6 496,4.65685425 496,3 C496,1.34314575 497.343146,0 499,0 L501,0 C502.656854,0 504,1.34314575 504,3 C504,4.65685425 502.656854,6 501,6 L499,6 Z M527,4 C527,2.34314575 528.343146,1 530,1 C531.656854,1 533,2.34314575 533,4 L533,6 C533,7.65685425 531.656854,9 530,9 C528.343146,9 527,7.65685425 527,6 L527,4 Z M527,36 C527,34.3431458 528.343146,33 530,33 C531.656854,33 533,34.3431458 533,36 L533,38 C533,39.6568542 531.656854,41 530,41 C528.343146,41 527,39.6568542 527,38 L527,36 Z M527,68 C527,66.3431458 528.343146,65 530,65 C531.656854,65 533,66.3431458 533,68 L533,70 C533,71.6568542 531.656854,73 530,73 C528.343146,73 527,71.6568542 527,70 L527,68 Z M527,100 C527,98.3431458 528.343146,97 530,97 C531.656854,97 533,98.3431458 533,100 L533,102 C533,103.656854 531.656854,105 530,105 C528.343146,105 527,103.656854 527,102 L527,100 Z M527,132 C527,130.343146 528.343146,129 530,129 C531.656854,129 533,130.343146 533,132 L533,134 C533,135.656854 531.656854,137 530,137 C528.343146,137 527,135.656854 527,134 L527,132 Z M527,164 C527,162.343146 528.343146,161 530,161 C531.656854,161 533,162.343146 533,164 L533,166 C533,167.656854 531.656854,169 530,169 C528.343146,169 527,167.656854 527,166 L527,164 Z M527,196 C527,194.343146 528.343146,193 530,193 C531.656854,193 533,194.343146 533,196 L533,198 C533,199.656854 531.656854,201 530,201 C528.343146,201 527,199.656854 527,198 L527,196 Z M527,228 C527,226.343146 528.343146,225 530,225 C531.656854,225 533,226.343146 533,228 L533,230 C533,231.656854 531.656854,233 530,233 C528.343146,233 527,231.656854 527,230 L527,228 Z M511,238 C512.656854,238 514,239.343146 514,241 C514,242.656854 512.656854,244 511,244 L509,244 C507.343146,244 506,242.656854 506,241 C506,239.343146 507.343146,238 509,238 L511,238 Z M479,238 C480.656854,238 482,239.343146 482,241 C482,242.656854 480.656854,244 479,244 L477,244 C475.343146,244 474,242.656854 474,241 C474,239.343146 475.343146,238 477,238 L479,238 Z M447,238 C448.656854,238 450,239.343146 450,241 C450,242.656854 448.656854,244 447,244 L445,244 C443.343146,244 442,242.656854 442,241 C442,239.343146 443.343146,238 445,238 L447,238 Z M415,238 C416.656854,238 418,239.343146 418,241 C418,242.656854 416.656854,244 415,244 L413,244 C411.343146,244 410,242.656854 410,241 C410,239.343146 411.343146,238 413,238 L415,238 Z M383,238 C384.656854,238 386,239.343146 386,241 C386,242.656854 384.656854,244 383,244 L381,244 C379.343146,244 378,242.656854 378,241 C378,239.343146 379.343146,238 381,238 L383,238 Z M351,238 C352.656854,238 354,239.343146 354,241 C354,242.656854 352.656854,244 351,244 L349,244 C347.343146,244 346,242.656854 346,241 C346,239.343146 347.343146,238 349,238 L351,238 Z M319,238 C320.656854,238 322,239.343146 322,241 C322,242.656854 320.656854,244 319,244 L317,244 C315.343146,244 314,242.656854 314,241 C314,239.343146 315.343146,238 317,238 L319,238 Z M287,238 C288.656854,238 290,239.343146 290,241 C290,242.656854 288.656854,244 287,244 L285,244 C283.343146,244 282,242.656854 282,241 C282,239.343146 283.343146,238 285,238 L287,238 Z M255,238 C256.656854,238 258,239.343146 258,241 C258,242.656854 256.656854,244 255,244 L253,244 C251.343146,244 250,242.656854 250,241 C250,239.343146 251.343146,238 253,238 L255,238 Z M223,238 C224.656854,238 226,239.343146 226,241 C226,242.656854 224.656854,244 223,244 L221,244 C219.343146,244 218,242.656854 218,241 C218,239.343146 219.343146,238 221,238 L223,238 Z M191,238 C192.656854,238 194,239.343146 194,241 C194,242.656854 192.656854,244 191,244 L189,244 C187.343146,244 186,242.656854 186,241 C186,239.343146 187.343146,238 189,238 L191,238 Z M159,238 C160.656854,238 162,239.343146 162,241 C162,242.656854 160.656854,244 159,244 L157,244 C155.343146,244 154,242.656854 154,241 C154,239.343146 155.343146,238 157,238 L159,238 Z M127,238 C128.656854,238 130,239.343146 130,241 C130,242.656854 128.656854,244 127,244 L125,244 C123.343146,244 122,242.656854 122,241 C122,239.343146 123.343146,238 125,238 L127,238 Z M95,238 C96.6568542,238 98,239.343146 98,241 C98,242.656854 96.6568542,244 95,244 L93,244 C91.3431458,244 90,242.656854 90,241 C90,239.343146 91.3431458,238 93,238 L95,238 Z M63,238 C64.6568542,238 66,239.343146 66,241 C66,242.656854 64.6568542,244 63,244 L61,244 C59.3431458,244 58,242.656854 58,241 C58,239.343146 59.3431458,238 61,238 L63,238 Z M31,238 C32.6568542,238 34,239.343146 34,241 C34,242.656854 32.6568542,244 31,244 L29,244 C27.3431458,244 26,242.656854 26,241 C26,239.343146 27.3431458,238 29,238 L31,238 Z M6,236 C6,237.656854 4.65685425,239 3,239 C1.34314575,239 0,237.656854 0,236 L0,234 C0,232.343146 1.34314575,231 3,231 C4.65685425,231 6,232.343146 6,234 L6,236 Z M6,206 C6,207.656854 4.65685425,209 3,209 C1.34314575,209 0,207.656854 0,206 L0,204 C0,202.343146 1.34314575,201 3,201 C4.65685425,201 6,202.343146 6,204 L6,206 Z M6,176 C6,177.656854 4.65685425,179 3,179 C1.34314575,179 0,177.656854 0,176 L0,174 C0,172.343146 1.34314575,171 3,171 C4.65685425,171 6,172.343146 6,174 L6,176 Z M6,144 C6,145.656854 4.65685425,147 3,147 C1.34314575,147 0,145.656854 0,144 L0,142 C0,140.343146 1.34314575,139 3,139 C4.65685425,139 6,140.343146 6,142 L6,144 Z M6,112 C6,113.656854 4.65685425,115 3,115 C1.34314575,115 0,113.656854 0,112 L0,110 C0,108.343146 1.34314575,107 3,107 C4.65685425,107 6,108.343146 6,110 L6,112 Z M6,82 C6,83.6568542 4.65685425,85 3,85 C1.34314575,85 0,83.6568542 0,82 L0,80 C0,78.3431458 1.34314575,77 3,77 C4.65685425,77 6,78.3431458 6,80 L6,82 Z M6,50 C6,51.6568542 4.65685425,53 3,53 C1.34314575,53 0,51.6568542 0,50 L0,48 C0,46.3431458 1.34314575,45 3,45 C4.65685425,45 6,46.3431458 6,48 L6,50 Z M6,20 C6,21.6568542 4.65685425,23 3,23 C1.34314575,23 0,21.6568542 0,20 L0,18 C0,16.3431458 1.34314575,15 3,15 C4.65685425,15 6,16.3431458 6,18 L6,20 Z" id="Orange-Dot-Rectangle"></path>
            </g>
        </g>
    </g>
</svg>