<?xml version="1.0" encoding="UTF-8"?>
<svg width="40px" height="52px" viewBox="0 0 40 52" version="1.1" xmlns="http://www.w3.org/2000/svg" xmlns:xlink="http://www.w3.org/1999/xlink">
    <!-- Generator: Sketch 52.4 (67378) - http://www.bohemiancoding.com/sketch -->
    <title>Path 9</title>
    <desc>Created with Sketch.</desc>
    <g id="Page-1" stroke="none" stroke-width="1" fill="none" fill-rule="evenodd">
        <g id="Artboard-Copy" transform="translate(-1300.000000, -305.000000)" fill="#FFFFFF" fill-rule="nonzero">
            <g id="Combined-Shape-2" transform="translate(1300.000000, 305.000000)">
                <g id="Path-9">
                    <path d="M28.1163654,12.5800962 C27.6157614,11.0878848 26.9983063,9.97460019 26.264,9.24024242 C24.5333333,7.50981818 22.4460606,6.6449697 20.0001212,6.6449697 C17.5544242,6.6449697 15.4666667,7.50993939 13.7361212,9.24024242 C12.0058182,10.970303 11.1404848,13.0584242 11.1404848,15.5038788 L11.1404848,25.1488485 L36.6100606,25.1488485 C37.5333333,25.1488485 38.3174545,25.4716364 38.9636364,26.117697 C39.6099394,26.7637576 39.9339394,27.5482424 39.9334545,28.4709091 L39.9334545,48.4048485 C39.9334545,49.3273939 39.6099394,50.1122424 38.9644848,50.7584242 C38.3181818,51.4042424 37.5341818,51.7270303 36.6109091,51.7270303 L3.38860606,51.7270303 C2.46606061,51.7270303 1.68145455,51.4038788 1.03539394,50.7584242 C0.389454545,50.1122424 0.0664242424,49.3273939 0.0664242424,48.4048485 L0.0664242424,28.4712727 C0.0664242424,27.5478788 0.389333333,26.7632727 1.03539394,26.117697 C1.68145455,25.4716364 2.46606061,25.1488485 3.38860606,25.1488485 L4.49587879,25.1488485 L4.49587879,15.5038788 C4.49587879,11.2586667 6.01818182,7.61381818 9.06375758,4.56824242 C12.1088485,1.52278788 15.7541818,1.33919359e-12 19.9997576,1.33919359e-12 C24.2454545,1.33919359e-12 28.0727416,1.26869267 30.9353939,4.56836364 C32.9078475,6.84193617 34.2444306,9.28642748 34.9451433,11.9018376 L34.9451908,11.9018249 C35.3541759,13.4283616 34.4482212,14.997412 32.9216845,15.4063971 C32.6801594,15.4711058 32.4311947,15.5038788 32.1811515,15.5038788 L32.1811515,15.5038788 C30.3387553,15.5038788 28.7023495,14.3268206 28.1163624,12.5800972 Z" id="Path"></path>
                </g>
            </g>
        </g>
    </g>
</svg>