<?xml version="1.0" encoding="UTF-8"?>
<svg width="100px" height="100px" viewBox="0 0 100 100" version="1.1" xmlns="http://www.w3.org/2000/svg" xmlns:xlink="http://www.w3.org/1999/xlink">
    <!-- Generator: Sketch 52.4 (67378) - http://www.bohemiancoding.com/sketch -->
    <title>review</title>
    <desc>Created with Sketch.</desc>
    <g id="Page-1" stroke="none" stroke-width="1" fill="none" fill-rule="evenodd">
        <g id="Artboard-Copy" transform="translate(-1084.000000, -389.000000)" fill-rule="nonzero">
            <g id="review" transform="translate(1084.000000, 389.000000)">
                <polygon id="Shape" fill="#334A5E" points="75.1543825 68.5065737 68.4936255 75.1671315 61.6249004 68.2984064 68.2854582 61.6376494"></polygon>
                <path d="M97.009761,97.0227092 C93.0549801,100.97749 86.6023904,100.97749 82.6476096,97.0227092 L63.0818725,77.4569721 L77.4440239,63.0948207 L97.009761,82.6605578 C100.964542,86.6153386 100.964542,93.0679283 97.009761,97.0227092 Z" id="Shape" fill="#666666"></path>
                <path d="M63.7091774,15.0099137 C50.1786619,1.6874474 28.5755397,1.63952576 15.205033,15.0098596 C1.70623938,28.5084786 1.5948485,49.903687 15.0208369,63.330012 C28.2377874,76.72786 50.0488212,76.7842248 63.5252775,63.4900736 C76.9152496,50.2812366 76.9795559,28.4880576 63.7091774,15.0099137 Z" id="Shape" stroke="#666666" stroke-width="10"></path>
                <path d="M61.0003984,61.0131474 C48.9278884,72.87749 29.3621514,72.87749 17.4976096,60.8049801 C5.4250996,48.9406375 5.63326693,29.3747012 17.7057769,17.5103586 C29.7782869,5.64601594 49.3440239,5.64601594 61.2085657,17.7185259 C73.0729084,29.5830677 73.0729084,49.1488048 61.0003984,61.0131474 Z" id="Shape" fill="#F2F2F2" opacity="0.199999988"></path>
            </g>
        </g>
    </g>
</svg>