<?xml version="1.0" encoding="UTF-8"?>
<svg width="175px" height="67px" viewBox="0 0 175 67" version="1.1" xmlns="http://www.w3.org/2000/svg" xmlns:xlink="http://www.w3.org/1999/xlink">
    <!-- Generator: Sketch 52.4 (67378) - http://www.bohemiancoding.com/sketch -->
    <title>REVIEW &amp; APPROVE 2</title>
    <desc>Created with Sketch.</desc>
    <g id="Page-1" stroke="none" stroke-width="1" fill="none" fill-rule="evenodd">
        <g id="Artboard-Copy" transform="translate(-1031.000000, -657.000000)" fill="#FF6C0C">
            <g id="REVIEW-&amp;-APPROVE-2" transform="translate(1031.000000, 657.000000)">
                <path d="M22.752,23.696 C22.9680011,24.0080016 23.076,24.3439982 23.076,24.704 C23.076,25.1360022 22.9020017,25.5019985 22.554,25.802 C22.2059983,26.1020015 21.8040023,26.252 21.348,26.252 C20.6759966,26.252 20.136002,25.952003 19.728,25.352 L14.904,17.864 C14.3519972,16.9999957 13.7640031,16.3940017 13.14,16.046 C12.5159969,15.6979983 11.700005,15.524 10.692,15.524 L6.624,15.524 L6.624,24.308 C6.624,24.8840029 6.46200162,25.3399983 6.138,25.676 C5.81399838,26.0120017 5.36400288,26.18 4.788,26.18 C4.23599724,26.18 3.79200168,26.0120017 3.456,25.676 C3.11999832,25.3399983 2.952,24.8840029 2.952,24.308 L2.952,2.42 C2.952,1.86799724 3.11399838,1.43000162 3.438,1.106 C3.76200162,0.78199838 4.21199712,0.62 4.788,0.62 L13.752,0.62 C16.560014,0.62 18.7019926,1.24399376 20.178,2.492 C21.6540074,3.74000624 22.392,5.563988 22.392,7.964 C22.392,9.95600996 21.8280056,11.5699938 20.7,12.806 C19.5719944,14.0420062 17.9640104,14.8279983 15.876,15.164 C16.5000031,15.3320008 17.0639975,15.6319978 17.568,16.064 C18.0720025,16.4960022 18.5639976,17.0959962 19.044,17.864 L22.752,23.696 Z M13.32,12.536 C15.1920094,12.536 16.5779955,12.1700037 17.478,11.438 C18.3780045,10.7059963 18.828,9.57200768 18.828,8.036 C18.828,6.49999232 18.3840044,5.37800354 17.496,4.67 C16.6079956,3.96199646 15.2160095,3.608 13.32,3.608 L6.588,3.608 L6.588,12.536 L13.32,12.536 Z M29.628,26 C29.0519971,26 28.6020016,25.8380016 28.278,25.514 C27.9539984,25.1899984 27.792,24.7520028 27.792,24.2 L27.792,2.42 C27.792,1.86799724 27.9539984,1.43000162 28.278,1.106 C28.6020016,0.78199838 29.0519971,0.62 29.628,0.62 L42.876,0.62 C43.4280028,0.62 43.8539985,0.75199868 44.154,1.016 C44.4540015,1.28000132 44.604,1.6519976 44.604,2.132 C44.604,2.6120024 44.4540015,2.97799874 44.154,3.23 C43.8539985,3.48200126 43.4280028,3.608 42.876,3.608 L31.428,3.608 L31.428,11.6 L42.156,11.6 C42.7080028,11.6 43.1339985,11.7319987 43.434,11.996 C43.7340015,12.2600013 43.884,12.6319976 43.884,13.112 C43.884,13.5920024 43.7340015,13.9639987 43.434,14.228 C43.1339985,14.4920013 42.7080028,14.624 42.156,14.624 L31.428,14.624 L31.428,23.012 L42.876,23.012 C44.0280058,23.012 44.604,23.5039951 44.604,24.488 C44.604,24.9680024 44.4540015,25.3399987 44.154,25.604 C43.8539985,25.8680013 43.4280028,26 42.876,26 L29.628,26 Z M67.392,1.412 C67.7040016,0.73999664 68.2199964,0.404 68.94,0.404 C69.4200024,0.404 69.8519981,0.56599838 70.236,0.89 C70.6200019,1.21400162 70.812,1.60399772 70.812,2.06 C70.812,2.22800084 70.7520006,2.45599856 70.632,2.744 L60.48,24.992 C60.3119992,25.3760019 60.0480018,25.6759989 59.688,25.892 C59.3279982,26.1080011 58.944002,26.216 58.536,26.216 C58.127998,26.216 57.7380019,26.1080011 57.366,25.892 C56.9939981,25.6759989 56.7240008,25.3760019 56.556,24.992 L46.44,2.744 C46.3199994,2.45599856 46.26,2.22800084 46.26,2.06 C46.26,1.5799976 46.457998,1.18400156 46.854,0.872 C47.250002,0.55999844 47.6879976,0.404 48.168,0.404 C48.9120037,0.404 49.4399984,0.73999664 49.752,1.412 L58.572,21.176 L67.392,1.412 Z M75.924,26.18 C75.3719972,26.18 74.9280017,26.0120017 74.592,25.676 C74.2559983,25.3399983 74.088,24.8840029 74.088,24.308 L74.088,2.312 C74.088,1.75999724 74.2559983,1.31000174 74.592,0.962 C74.9280017,0.61399826 75.3719972,0.44 75.924,0.44 C76.5000029,0.44 76.9559983,0.60799832 77.292,0.944 C77.6280017,1.28000168 77.796,1.73599712 77.796,2.312 L77.796,24.308 C77.796,24.8840029 77.6340016,25.3399983 77.31,25.676 C76.9859984,26.0120017 76.524003,26.18 75.924,26.18 Z M85.536,26 C84.9599971,26 84.5100016,25.8380016 84.186,25.514 C83.8619984,25.1899984 83.7,24.7520028 83.7,24.2 L83.7,2.42 C83.7,1.86799724 83.8619984,1.43000162 84.186,1.106 C84.5100016,0.78199838 84.9599971,0.62 85.536,0.62 L98.784,0.62 C99.3360028,0.62 99.7619985,0.75199868 100.062,1.016 C100.362002,1.28000132 100.512,1.6519976 100.512,2.132 C100.512,2.6120024 100.362002,2.97799874 100.062,3.23 C99.7619985,3.48200126 99.3360028,3.608 98.784,3.608 L87.336,3.608 L87.336,11.6 L98.064,11.6 C98.6160028,11.6 99.0419985,11.7319987 99.342,11.996 C99.6420015,12.2600013 99.792,12.6319976 99.792,13.112 C99.792,13.5920024 99.6420015,13.9639987 99.342,14.228 C99.0419985,14.4920013 98.6160028,14.624 98.064,14.624 L87.336,14.624 L87.336,23.012 L98.784,23.012 C99.9360058,23.012 100.512,23.5039951 100.512,24.488 C100.512,24.9680024 100.362002,25.3399987 100.062,25.604 C99.7619985,25.8680013 99.3360028,26 98.784,26 L85.536,26 Z M136.944,1.556 C137.088001,1.17199808 137.303999,0.88400096 137.592,0.692 C137.880001,0.49999904 138.203998,0.404 138.564,0.404 C139.020002,0.404 139.421998,0.5539985 139.77,0.854 C140.118002,1.1540015 140.292,1.5439976 140.292,2.024 C140.292,2.28800132 140.244,2.52799892 140.148,2.744 L132.192,24.992 C132.023999,25.400002 131.760002,25.7119989 131.4,25.928 C131.039998,26.1440011 130.644002,26.252 130.212,26.252 C129.803998,26.252 129.420002,26.1440011 129.06,25.928 C128.699998,25.7119989 128.448001,25.400002 128.304,24.992 L121.752,6.416 L115.056,24.992 C114.911999,25.400002 114.660002,25.7119989 114.3,25.928 C113.939998,26.1440011 113.556002,26.252 113.148,26.252 C112.715998,26.252 112.326002,26.1440011 111.978,25.928 C111.629998,25.7119989 111.372001,25.400002 111.204,24.992 L103.248,2.744 C103.152,2.52799892 103.104,2.28800132 103.104,2.024 C103.104,1.5439976 103.283998,1.1540015 103.644,0.854 C104.004002,0.5539985 104.435997,0.404 104.94,0.404 C105.300002,0.404 105.629998,0.49999904 105.93,0.692 C106.230001,0.88400096 106.451999,1.17199808 106.596,1.556 L113.256,20.708 L120.024,1.736 C120.168001,1.32799796 120.401998,1.01600108 120.726,0.8 C121.050002,0.58399892 121.403998,0.476 121.788,0.476 C122.172002,0.476 122.519998,0.58999886 122.832,0.818 C123.144002,1.04600114 123.383999,1.36399796 123.552,1.772 L130.176,20.888 L136.944,1.556 Z M174.564,23.732 C174.876002,24.0440016 175.032,24.3919981 175.032,24.776 C175.032,25.184002 174.876002,25.5379985 174.564,25.838 C174.251998,26.1380015 173.892002,26.288 173.484,26.288 C173.075998,26.288 172.716002,26.1320016 172.404,25.82 L169.236,22.616 C168.131994,23.7920059 166.884007,24.6919969 165.492,25.316 C164.099993,25.9400031 162.636008,26.252 161.1,26.252 C159.491992,26.252 158.052006,25.9760028 156.78,25.424 C155.507994,24.8719972 154.518004,24.0860051 153.81,23.066 C153.101996,22.0459949 152.748,20.8640067 152.748,19.52 C152.748,17.9599922 153.215995,16.5680061 154.152,15.344 C155.088005,14.1199939 156.52799,12.9560055 158.472,11.852 C157.487995,10.7959947 156.756002,9.8180045 156.276,8.918 C155.795998,8.0179955 155.556,7.07600492 155.556,6.092 C155.556,4.33999124 156.167994,2.94800516 157.392,1.916 C158.616006,0.88399484 160.18799,0.368 162.108,0.368 C163.932009,0.368 165.383995,0.84199526 166.464,1.79 C167.544005,2.73800474 168.084,4.02799184 168.084,5.66 C168.084,6.9800066 167.694004,8.1499949 166.914,9.17 C166.133996,10.1900051 164.892009,11.2159948 163.188,12.248 L168.84,17.972 C169.608004,16.3879921 170.075999,14.4800112 170.244,12.248 C170.268,11.7439975 170.441998,11.3540014 170.766,11.078 C171.090002,10.8019986 171.455998,10.664 171.864,10.664 C172.296002,10.664 172.661998,10.8139985 172.962,11.114 C173.262001,11.4140015 173.388,11.8279974 173.34,12.356 C173.123999,15.3320149 172.356007,17.9359888 171.036,20.168 L174.564,23.732 Z M162.144,2.996 C161.183995,2.996 160.410003,3.27799718 159.822,3.842 C159.233997,4.40600282 158.94,5.15599532 158.94,6.092 C158.94,6.76400336 159.119998,7.40599694 159.48,8.018 C159.840002,8.63000306 160.427996,9.37999556 161.244,10.268 C162.636007,9.40399568 163.613997,8.6420033 164.178,7.982 C164.742003,7.3219967 165.024,6.59600396 165.024,5.804 C165.024,4.9639958 164.760003,4.28600258 164.232,3.77 C163.703997,3.25399742 163.008004,2.996 162.144,2.996 Z M161.28,23.408 C162.384006,23.408 163.445995,23.1680024 164.466,22.688 C165.486005,22.2079976 166.391996,21.5000047 167.184,20.564 L160.452,13.832 C158.963993,14.7200044 157.902003,15.5899957 157.266,16.442 C156.629997,17.2940043 156.312,18.2599946 156.312,19.34 C156.312,20.6120064 156.761995,21.6079964 157.662,22.328 C158.562004,23.0480036 159.767992,23.408 161.28,23.408 Z M25.344,63.84 C25.4640006,64.1280014 25.524,64.367999 25.524,64.56 C25.524,65.0160023 25.3380019,65.3999984 24.966,65.712 C24.5939981,66.0240016 24.1800023,66.18 23.724,66.18 C23.4119984,66.18 23.1180014,66.0900009 22.842,65.91 C22.5659986,65.7299991 22.3560007,65.4720017 22.212,65.136 L19.836,59.736 L6.66,59.736 L4.284,65.136 C4.13999928,65.4720017 3.92400144,65.7299991 3.636,65.91 C3.34799856,66.0900009 3.04800156,66.18 2.736,66.18 C2.2559976,66.18 1.83000186,66.0240016 1.458,65.712 C1.08599814,65.3999984 0.9,65.0160023 0.9,64.56 C0.9,64.367999 0.9599994,64.1280014 1.08,63.84 L11.232,41.628 C11.4000008,41.2439981 11.6699981,40.9440011 12.042,40.728 C12.4140019,40.5119989 12.803998,40.404 13.212,40.404 C13.620002,40.404 14.0099981,40.5119989 14.382,40.728 C14.7540019,40.9440011 15.0239992,41.2439981 15.192,41.628 L25.344,63.84 Z M7.992,56.784 L18.54,56.784 L13.248,44.868 L7.992,56.784 Z M31.212,66.18 C30.6599972,66.18 30.2160017,66.0120017 29.88,65.676 C29.5439983,65.3399983 29.376,64.8840029 29.376,64.308 L29.376,42.42 C29.376,41.8679972 29.5379984,41.4300016 29.862,41.106 C30.1860016,40.7819984 30.6359971,40.62 31.212,40.62 L39.888,40.62 C42.5760134,40.62 44.6639926,41.2799934 46.152,42.6 C47.6400074,43.9200066 48.384,45.7919879 48.384,48.216 C48.384,50.616012 47.6400074,52.4879933 46.152,53.832 C44.6639926,55.1760067 42.5760134,55.848 39.888,55.848 L33.084,55.848 L33.084,64.308 C33.084,64.8840029 32.9220016,65.3399983 32.598,65.676 C32.2739984,66.0120017 31.812003,66.18 31.212,66.18 Z M39.492,52.86 C43.0440178,52.86 44.82,51.3120155 44.82,48.216 C44.82,45.1439846 43.0440178,43.608 39.492,43.608 L33.084,43.608 L33.084,52.86 L39.492,52.86 Z M54.684,66.18 C54.1319972,66.18 53.6880017,66.0120017 53.352,65.676 C53.0159983,65.3399983 52.848,64.8840029 52.848,64.308 L52.848,42.42 C52.848,41.8679972 53.0099984,41.4300016 53.334,41.106 C53.6580016,40.7819984 54.1079971,40.62 54.684,40.62 L63.36,40.62 C66.0480134,40.62 68.1359926,41.2799934 69.624,42.6 C71.1120074,43.9200066 71.856,45.7919879 71.856,48.216 C71.856,50.616012 71.1120074,52.4879933 69.624,53.832 C68.1359926,55.1760067 66.0480134,55.848 63.36,55.848 L56.556,55.848 L56.556,64.308 C56.556,64.8840029 56.3940016,65.3399983 56.07,65.676 C55.7459984,66.0120017 55.284003,66.18 54.684,66.18 Z M62.964,52.86 C66.5160178,52.86 68.292,51.3120155 68.292,48.216 C68.292,45.1439846 66.5160178,43.608 62.964,43.608 L56.556,43.608 L56.556,52.86 L62.964,52.86 Z M96.12,63.696 C96.3360011,64.0080016 96.444,64.3439982 96.444,64.704 C96.444,65.1360022 96.2700017,65.5019985 95.922,65.802 C95.5739983,66.1020015 95.1720023,66.252 94.716,66.252 C94.0439966,66.252 93.504002,65.952003 93.096,65.352 L88.272,57.864 C87.7199972,56.9999957 87.1320031,56.3940017 86.508,56.046 C85.8839969,55.6979983 85.068005,55.524 84.06,55.524 L79.992,55.524 L79.992,64.308 C79.992,64.8840029 79.8300016,65.3399983 79.506,65.676 C79.1819984,66.0120017 78.7320029,66.18 78.156,66.18 C77.6039972,66.18 77.1600017,66.0120017 76.824,65.676 C76.4879983,65.3399983 76.32,64.8840029 76.32,64.308 L76.32,42.42 C76.32,41.8679972 76.4819984,41.4300016 76.806,41.106 C77.1300016,40.7819984 77.5799971,40.62 78.156,40.62 L87.12,40.62 C89.928014,40.62 92.0699926,41.2439938 93.546,42.492 C95.0220074,43.7400062 95.76,45.563988 95.76,47.964 C95.76,49.95601 95.1960056,51.5699938 94.068,52.806 C92.9399944,54.0420062 91.3320104,54.8279983 89.244,55.164 C89.8680031,55.3320008 90.4319975,55.6319978 90.936,56.064 C91.4400025,56.4960022 91.9319976,57.0959962 92.412,57.864 L96.12,63.696 Z M86.688,52.536 C88.5600094,52.536 89.9459955,52.1700037 90.846,51.438 C91.7460045,50.7059963 92.196,49.5720077 92.196,48.036 C92.196,46.4999923 91.7520044,45.3780035 90.864,44.67 C89.9759956,43.9619965 88.5840095,43.608 86.688,43.608 L79.956,43.608 L79.956,52.536 L86.688,52.536 Z M112.068,66.288 C109.667988,66.288 107.586009,65.7600053 105.822,64.704 C104.057991,63.6479947 102.696005,62.1480097 101.736,60.204 C100.775995,58.2599903 100.296,55.9680132 100.296,53.328 C100.296,50.6639867 100.769995,48.3540098 101.718,46.398 C102.666005,44.4419902 104.027991,42.9420052 105.804,41.898 C107.580009,40.8539948 109.667988,40.332 112.068,40.332 C114.492012,40.332 116.591991,40.8539948 118.368,41.898 C120.144009,42.9420052 121.505995,44.4419902 122.454,46.398 C123.402005,48.3540098 123.876,50.6519868 123.876,53.292 C123.876,55.9320132 123.402005,58.2299902 122.454,60.186 C121.505995,62.1420098 120.144009,63.6479947 118.368,64.704 C116.591991,65.7600053 114.492012,66.288 112.068,66.288 Z M112.068,63.264 C114.612013,63.264 116.591993,62.4000086 118.008,60.672 C119.424007,58.9439914 120.132,56.484016 120.132,53.292 C120.132,50.099984 119.430007,47.6460086 118.026,45.93 C116.621993,44.2139914 114.636013,43.356 112.068,43.356 C109.547987,43.356 107.586007,44.2139914 106.182,45.93 C104.777993,47.6460086 104.076,50.099984 104.076,53.292 C104.076,56.484016 104.777993,58.9439914 106.182,60.672 C107.586007,62.4000086 109.547987,63.264 112.068,63.264 Z M147.456,41.412 C147.768002,40.7399966 148.283996,40.404 149.004,40.404 C149.484002,40.404 149.915998,40.5659984 150.3,40.89 C150.684002,41.2140016 150.876,41.6039977 150.876,42.06 C150.876,42.2280008 150.816001,42.4559986 150.696,42.744 L140.544,64.992 C140.375999,65.3760019 140.112002,65.6759989 139.752,65.892 C139.391998,66.1080011 139.008002,66.216 138.6,66.216 C138.191998,66.216 137.802002,66.1080011 137.43,65.892 C137.057998,65.6759989 136.788001,65.3760019 136.62,64.992 L126.504,42.744 C126.383999,42.4559986 126.324,42.2280008 126.324,42.06 C126.324,41.5799976 126.521998,41.1840016 126.918,40.872 C127.314002,40.5599984 127.751998,40.404 128.232,40.404 C128.976004,40.404 129.503998,40.7399966 129.816,41.412 L138.636,61.176 L147.456,41.412 Z M155.988,66 C155.411997,66 154.962002,65.8380016 154.638,65.514 C154.313998,65.1899984 154.152,64.7520028 154.152,64.2 L154.152,42.42 C154.152,41.8679972 154.313998,41.4300016 154.638,41.106 C154.962002,40.7819984 155.411997,40.62 155.988,40.62 L169.236,40.62 C169.788003,40.62 170.213998,40.7519987 170.514,41.016 C170.814001,41.2800013 170.964,41.6519976 170.964,42.132 C170.964,42.6120024 170.814001,42.9779987 170.514,43.23 C170.213998,43.4820013 169.788003,43.608 169.236,43.608 L157.788,43.608 L157.788,51.6 L168.516,51.6 C169.068003,51.6 169.493998,51.7319987 169.794,51.996 C170.094001,52.2600013 170.244,52.6319976 170.244,53.112 C170.244,53.5920024 170.094001,53.9639987 169.794,54.228 C169.493998,54.4920013 169.068003,54.624 168.516,54.624 L157.788,54.624 L157.788,63.012 L169.236,63.012 C170.388006,63.012 170.964,63.5039951 170.964,64.488 C170.964,64.9680024 170.814001,65.3399987 170.514,65.604 C170.213998,65.8680013 169.788003,66 169.236,66 L155.988,66 Z" id="REVIEW-&amp;-APPROVE"></path>
            </g>
        </g>
    </g>
</svg>