<?xml version="1.0" encoding="UTF-8"?>
<svg width="100px" height="100px" viewBox="0 0 100 100" version="1.1" xmlns="http://www.w3.org/2000/svg" xmlns:xlink="http://www.w3.org/1999/xlink">
    <!-- Generator: Sketch 52.4 (67378) - http://www.bohemiancoding.com/sketch -->
    <title>review</title>
    <desc>Created with Sketch.</desc>
    <g id="Page-1" stroke="none" stroke-width="1" fill="none" fill-rule="evenodd">
        <g id="Artboard-Copy" transform="translate(-1009.000000, -294.000000)" fill-rule="nonzero">
            <g id="review" transform="translate(1009.000000, 294.000000)">
                <polygon id="Shape" fill="#334A5E" points="75.1543825 68.5065737 68.4936255 75.1671315 61.6249004 68.2984064 68.2854582 61.6376494"></polygon>
                <path d="M97.009761,97.0227092 C93.0549801,100.97749 86.6023904,100.97749 82.6476096,97.0227092 L63.0818725,77.4569721 L77.4440239,63.0948207 L97.009761,82.6605578 C100.964542,86.6153386 100.964542,93.0679283 97.009761,97.0227092 Z" id="Shape" fill="#666666"></path>
                <path d="M63.7091774,15.0099137 C50.1786619,1.6874474 28.5755397,1.63952576 15.205033,15.0098596 C1.70623938,28.5084786 1.5948485,49.903687 15.0208369,63.330012 C28.2377874,76.72786 50.0488212,76.7842248 63.5252775,63.4900736 C76.9152496,50.2812366 76.9795559,28.4880576 63.7091774,15.0099137 Z" id="Shape" stroke="#666666" stroke-width="10"></path>
                <path d="M59.4409857,59.5980458 C48.0618818,70.833292 29.6199376,70.833292 18.4368568,59.4009163 C7.05775292,48.1656701 7.25396379,29.6372005 18.6330677,18.4019542 C30.0121716,7.16670798 48.4541158,7.16670798 59.6371966,18.5990837 C70.8200896,29.8345186 70.8200896,48.3627995 59.4409857,59.5980458 Z" id="Shape" fill-opacity="0.457993659" fill="#FFFFFF"></path>
            </g>
        </g>
    </g>
</svg>