<?xml version="1.0" encoding="UTF-8" standalone="no"?><!DOCTYPE svg PUBLIC "-//W3C//DTD SVG 1.1//EN" "http://www.w3.org/Graphics/SVG/1.1/DTD/svg11.dtd"><svg width="100%" height="100%" viewBox="0 0 130 25" version="1.1" xmlns="http://www.w3.org/2000/svg" xmlns:xlink="http://www.w3.org/1999/xlink" xml:space="preserve" xmlns:serif="http://www.serif.com/" style="fill-rule:evenodd;clip-rule:evenodd;stroke-linejoin:round;stroke-miterlimit:1.41421;"><g id="SharePoint"><path d="M14.535,20.258c1.297,0 2.428,-0.19 3.393,-0.569c0.965,-0.378 1.713,-0.939 2.244,-1.681c0.531,-0.742 0.797,-1.625 0.797,-2.649c0,-0.648 -0.096,-1.22 -0.287,-1.716c-0.192,-0.497 -0.485,-0.924 -0.879,-1.284c-0.395,-0.359 -0.836,-0.664 -1.324,-0.914c-0.489,-0.25 -1.088,-0.492 -1.799,-0.726l-3.551,-1.149c-0.688,-0.218 -1.191,-0.5 -1.512,-0.843c-0.32,-0.344 -0.48,-0.801 -0.48,-1.372c0,-0.796 0.342,-1.39 1.025,-1.781c0.684,-0.39 1.592,-0.586 2.725,-0.586c1.414,0 2.785,0.399 4.113,1.196c0.18,0.109 0.359,0.164 0.539,0.164c0.281,0 0.52,-0.112 0.715,-0.334c0.195,-0.223 0.293,-0.471 0.293,-0.744c0,-0.266 -0.098,-0.481 -0.293,-0.645c-0.547,-0.477 -1.332,-0.889 -2.356,-1.236c-1.023,-0.348 -2.093,-0.522 -3.211,-0.522c-1.156,0 -2.193,0.178 -3.111,0.533c-0.918,0.356 -1.648,0.885 -2.191,1.588c-0.543,0.703 -0.815,1.524 -0.815,2.461c0,1.133 0.301,2.03 0.903,2.69c0.601,0.66 1.535,1.201 2.8,1.623l3.563,1.183c0.914,0.305 1.564,0.645 1.951,1.02c0.387,0.375 0.58,0.926 0.58,1.652c0,0.821 -0.349,1.446 -1.049,1.875c-0.699,0.43 -1.603,0.645 -2.713,0.645c-1.71,0 -3.269,-0.508 -4.675,-1.524c-0.047,-0.031 -0.094,-0.054 -0.141,-0.07c-0.047,-0.016 -0.098,-0.023 -0.152,-0.023c-0.266,0 -0.528,0.156 -0.785,0.468c-0.258,0.313 -0.387,0.614 -0.387,0.903c0,0.078 0.012,0.15 0.035,0.216c0.023,0.067 0.063,0.123 0.117,0.17c1.485,1.321 3.457,1.981 5.918,1.981Z" style="fill:#636569;fill-rule:nonzero;"/><path d="M25.094,20c0.328,0 0.609,-0.1 0.843,-0.299c0.235,-0.199 0.352,-0.478 0.352,-0.838l0,-5.508c0,-1.101 0.316,-1.968 0.949,-2.601c0.633,-0.633 1.403,-0.949 2.309,-0.949c0.742,0 1.332,0.226 1.769,0.679c0.438,0.453 0.657,1.133 0.657,2.039l0,6.34c0,0.36 0.115,0.639 0.345,0.838c0.231,0.199 0.506,0.299 0.827,0.299c0.328,0 0.609,-0.1 0.843,-0.299c0.235,-0.199 0.352,-0.478 0.352,-0.838l0,-6.269c0,-0.766 -0.115,-1.442 -0.346,-2.028c-0.23,-0.586 -0.543,-1.052 -0.937,-1.4c-0.395,-0.348 -0.838,-0.607 -1.33,-0.779c-0.493,-0.172 -1.024,-0.258 -1.594,-0.258c-0.867,0 -1.641,0.17 -2.321,0.51c-0.679,0.34 -1.187,0.806 -1.523,1.4l0,-5.719c0,-0.343 -0.117,-0.613 -0.352,-0.808c-0.234,-0.196 -0.511,-0.293 -0.832,-0.293c-0.32,0 -0.597,0.097 -0.832,0.293c-0.234,0.195 -0.351,0.465 -0.351,0.808l0,14.543c0,0.36 0.115,0.639 0.346,0.838c0.23,0.199 0.505,0.299 0.826,0.299Z" style="fill:#636569;fill-rule:nonzero;"/><path d="M40.844,20.188c1.64,0 2.808,-0.715 3.504,-2.145l0,0.867c0,0.235 0.056,0.436 0.17,0.604c0.113,0.168 0.253,0.293 0.421,0.375c0.168,0.082 0.354,0.123 0.557,0.123c0.313,0 0.586,-0.1 0.82,-0.299c0.235,-0.199 0.352,-0.475 0.352,-0.826l0,-6.61c0,-1.422 -0.414,-2.468 -1.242,-3.14c-0.828,-0.672 -1.961,-1.008 -3.399,-1.008c-1.664,0 -3.101,0.328 -4.312,0.984c-0.133,0.071 -0.231,0.158 -0.293,0.264c-0.063,0.105 -0.094,0.225 -0.094,0.357c0,0.071 0.01,0.141 0.029,0.211c0.02,0.071 0.047,0.139 0.082,0.205c0.036,0.067 0.079,0.129 0.129,0.188c0.051,0.058 0.108,0.109 0.17,0.152c0.063,0.043 0.129,0.076 0.199,0.1c0.071,0.023 0.145,0.035 0.223,0.035c0.102,0 0.199,-0.02 0.293,-0.059c0.406,-0.171 0.733,-0.304 0.979,-0.398c0.246,-0.094 0.611,-0.193 1.095,-0.299c0.485,-0.105 0.957,-0.158 1.418,-0.158c1.578,0 2.367,0.789 2.367,2.367l0.001,1.149c-0.844,0 -1.557,0.009 -2.139,0.029c-0.582,0.019 -1.16,0.058 -1.735,0.117c-0.574,0.059 -1.043,0.143 -1.406,0.252c-0.363,0.109 -0.705,0.252 -1.025,0.428c-0.32,0.176 -0.567,0.39 -0.738,0.644c-0.172,0.254 -0.307,0.555 -0.405,0.903c-0.097,0.347 -0.146,0.752 -0.146,1.212c0,1.079 0.383,1.911 1.148,2.497c0.766,0.586 1.758,0.878 2.977,0.878Zm0.234,-1.546c-0.648,0 -1.164,-0.157 -1.547,-0.469c-0.383,-0.313 -0.574,-0.797 -0.574,-1.453c0,-0.313 0.031,-0.58 0.094,-0.803c0.062,-0.223 0.181,-0.416 0.357,-0.58c0.176,-0.164 0.385,-0.293 0.627,-0.387c0.242,-0.094 0.576,-0.17 1.002,-0.228c0.426,-0.059 0.889,-0.098 1.389,-0.117c0.5,-0.02 1.125,-0.03 1.875,-0.03l0,0.328c0,1.086 -0.324,1.981 -0.973,2.684c-0.648,0.703 -1.398,1.055 -2.25,1.055Z" style="fill:#636569;fill-rule:nonzero;"/><path d="M51.18,20c0.32,0 0.601,-0.098 0.843,-0.293c0.243,-0.195 0.364,-0.469 0.364,-0.82l0,-5.731c0,-0.992 0.295,-1.73 0.884,-2.215c0.59,-0.484 1.405,-0.726 2.444,-0.726c0.258,0 0.457,-0.094 0.598,-0.281c0.14,-0.188 0.21,-0.411 0.21,-0.668c0,-0.282 -0.078,-0.524 -0.234,-0.727c-0.156,-0.203 -0.375,-0.305 -0.656,-0.305c-0.789,0 -1.483,0.246 -2.08,0.739c-0.598,0.492 -0.994,1.101 -1.19,1.828l0.024,-1.442c0,-0.132 -0.022,-0.255 -0.065,-0.369c-0.043,-0.113 -0.101,-0.209 -0.176,-0.287c-0.074,-0.078 -0.16,-0.146 -0.257,-0.205c-0.098,-0.059 -0.203,-0.102 -0.317,-0.129c-0.113,-0.027 -0.232,-0.041 -0.357,-0.041c-0.32,0 -0.6,0.096 -0.838,0.287c-0.238,0.192 -0.357,0.459 -0.357,0.803l0,9.469c0,0.359 0.113,0.634 0.339,0.826c0.227,0.191 0.5,0.287 0.821,0.287Z" style="fill:#636569;fill-rule:nonzero;"/><path d="M63.859,20.188c1.711,0 3.172,-0.536 4.383,-1.606c0.125,-0.102 0.217,-0.215 0.276,-0.34c0.058,-0.125 0.087,-0.254 0.087,-0.387c0,-0.14 -0.033,-0.273 -0.099,-0.398c-0.067,-0.125 -0.156,-0.225 -0.27,-0.299c-0.113,-0.074 -0.236,-0.111 -0.369,-0.111c-0.078,0 -0.154,0.014 -0.228,0.041c-0.075,0.027 -0.151,0.068 -0.229,0.123c-0.555,0.406 -1.098,0.728 -1.629,0.967c-0.531,0.238 -1.117,0.357 -1.758,0.357c-1.078,-0.015 -1.949,-0.34 -2.613,-0.972c-0.664,-0.633 -1.012,-1.598 -1.043,-2.895l7.852,0c0.25,0 0.437,-0.082 0.562,-0.246c0.125,-0.164 0.188,-0.375 0.188,-0.633c-0.016,-0.781 -0.131,-1.502 -0.346,-2.162c-0.215,-0.66 -0.527,-1.256 -0.937,-1.787c-0.411,-0.531 -0.961,-0.949 -1.653,-1.254c-0.691,-0.305 -1.486,-0.457 -2.385,-0.457c-0.882,0 -1.685,0.162 -2.408,0.486c-0.722,0.324 -1.318,0.762 -1.787,1.313c-0.469,0.551 -0.83,1.181 -1.084,1.892c-0.254,0.711 -0.381,1.465 -0.381,2.262c0,1.875 0.545,3.357 1.635,4.447c1.09,1.09 2.502,1.643 4.236,1.659Zm-3.468,-6.95c0.039,-0.445 0.134,-0.871 0.287,-1.277c0.152,-0.406 0.363,-0.779 0.633,-1.119c0.269,-0.34 0.615,-0.61 1.037,-0.809c0.422,-0.199 0.89,-0.299 1.406,-0.299c1,0 1.762,0.33 2.285,0.991c0.524,0.66 0.82,1.498 0.891,2.513l-6.539,0Z" style="fill:#636569;fill-rule:nonzero;"/><path d="M73.328,20.012c0.359,0 0.67,-0.114 0.932,-0.34c0.261,-0.227 0.392,-0.543 0.392,-0.949l0,-5.778l3.493,0c0.96,0 1.808,-0.084 2.543,-0.252c0.734,-0.168 1.382,-0.437 1.945,-0.808c0.562,-0.371 0.99,-0.877 1.283,-1.518c0.293,-0.64 0.439,-1.406 0.439,-2.297c0,-1.718 -0.511,-2.959 -1.535,-3.72c-1.023,-0.762 -2.504,-1.143 -4.441,-1.143l-5.039,0c-0.375,0 -0.694,0.129 -0.955,0.387c-0.262,0.258 -0.393,0.57 -0.393,0.937l0,14.192c0,0.406 0.133,0.722 0.399,0.949c0.265,0.226 0.578,0.34 0.937,0.34Zm1.324,-9.094l0,-5.602l3.539,0c1.235,0 2.133,0.2 2.696,0.598c0.562,0.399 0.843,1.117 0.843,2.156c0,1.063 -0.292,1.803 -0.878,2.221c-0.586,0.418 -1.508,0.627 -2.766,0.627l-3.434,0Z" style="fill:#636569;fill-rule:nonzero;"/><path d="M91.621,18.582c-1.125,0 -2.008,-0.395 -2.648,-1.184c-0.641,-0.789 -0.961,-1.867 -0.961,-3.234c0,-1.375 0.318,-2.457 0.955,-3.246c0.637,-0.789 1.521,-1.184 2.654,-1.184c1.125,0 2.008,0.397 2.649,1.19c0.64,0.793 0.96,1.873 0.96,3.24c0,1.375 -0.316,2.453 -0.949,3.234c-0.633,0.782 -1.519,1.176 -2.66,1.184Zm0,1.605c0.945,0 1.801,-0.162 2.567,-0.486c0.765,-0.324 1.39,-0.764 1.875,-1.318c0.484,-0.555 0.855,-1.194 1.113,-1.916c0.258,-0.723 0.387,-1.49 0.387,-2.303c0,-1.125 -0.225,-2.139 -0.674,-3.041c-0.45,-0.902 -1.129,-1.627 -2.039,-2.174c-0.911,-0.547 -1.987,-0.82 -3.229,-0.82c-0.945,0 -1.799,0.16 -2.56,0.48c-0.762,0.321 -1.387,0.758 -1.875,1.313c-0.489,0.555 -0.862,1.193 -1.12,1.916c-0.257,0.723 -0.386,1.498 -0.386,2.326c0,0.82 0.129,1.59 0.386,2.309c0.258,0.718 0.629,1.355 1.114,1.91c0.484,0.555 1.109,0.994 1.875,1.318c0.765,0.324 1.621,0.486 2.566,0.486Z" style="fill:#636569;fill-rule:nonzero;"/><path d="M101.418,20c0.32,0 0.6,-0.105 0.838,-0.316c0.238,-0.211 0.357,-0.5 0.357,-0.868l0,-9.316c0,-0.367 -0.117,-0.656 -0.351,-0.867c-0.235,-0.211 -0.508,-0.317 -0.821,-0.317c-0.32,0 -0.599,0.106 -0.837,0.317c-0.239,0.211 -0.358,0.5 -0.358,0.867l0,9.316c0,0.383 0.113,0.676 0.34,0.879c0.227,0.203 0.504,0.305 0.832,0.305Zm0.012,-14.25c0.437,0 0.791,-0.127 1.06,-0.381c0.27,-0.254 0.405,-0.588 0.405,-1.002c0,-0.414 -0.133,-0.75 -0.399,-1.008c-0.266,-0.257 -0.617,-0.386 -1.055,-0.386c-0.445,0 -0.804,0.129 -1.078,0.386c-0.273,0.258 -0.41,0.594 -0.41,1.008c0,0.414 0.137,0.748 0.41,1.002c0.274,0.254 0.629,0.381 1.067,0.381Z" style="fill:#636569;fill-rule:nonzero;"/><path d="M107.113,20c0.321,0 0.598,-0.1 0.832,-0.299c0.235,-0.199 0.352,-0.474 0.352,-0.826l0,-5.566c0.031,-1.094 0.351,-1.963 0.961,-2.608c0.609,-0.644 1.347,-0.967 2.215,-0.967c0.773,0 1.386,0.246 1.84,0.739c0.453,0.492 0.679,1.207 0.679,2.144l0,6.258c0,0.352 0.115,0.627 0.346,0.826c0.23,0.199 0.506,0.299 0.826,0.299c0.32,0 0.6,-0.1 0.838,-0.299c0.238,-0.199 0.357,-0.474 0.357,-0.826l0,-6.234c0,-0.766 -0.109,-1.444 -0.328,-2.034c-0.218,-0.589 -0.525,-1.062 -0.92,-1.418c-0.394,-0.355 -0.843,-0.621 -1.347,-0.796c-0.504,-0.176 -1.057,-0.264 -1.659,-0.264c-0.89,0 -1.669,0.18 -2.337,0.539c-0.668,0.359 -1.159,0.879 -1.471,1.559l0,-0.832c0,-0.336 -0.115,-0.598 -0.346,-0.786c-0.23,-0.187 -0.506,-0.281 -0.826,-0.281c-0.32,0 -0.598,0.096 -0.832,0.287c-0.234,0.192 -0.352,0.463 -0.352,0.815l0,9.445c0,0.352 0.116,0.627 0.346,0.826c0.231,0.199 0.506,0.299 0.826,0.299Z" style="fill:#636569;fill-rule:nonzero;"/><path d="M123.613,20.141l0.563,0c0.172,0 0.32,-0.002 0.445,-0.006c0.125,-0.004 0.264,-0.014 0.416,-0.03c0.152,-0.015 0.279,-0.037 0.381,-0.064c0.102,-0.027 0.205,-0.064 0.311,-0.111c0.105,-0.047 0.189,-0.104 0.251,-0.17c0.063,-0.067 0.114,-0.151 0.153,-0.252c0.039,-0.102 0.058,-0.215 0.058,-0.34c0,-0.242 -0.084,-0.455 -0.252,-0.639c-0.168,-0.183 -0.396,-0.275 -0.685,-0.275c-0.024,0 -0.047,0 -0.07,0l-0.832,0.047c-0.04,0 -0.079,0 -0.118,0c-0.476,0 -0.82,-0.18 -1.031,-0.539c-0.211,-0.36 -0.316,-0.914 -0.316,-1.664l0,-6.129l2.097,0c0.282,0 0.493,-0.069 0.633,-0.205c0.141,-0.137 0.211,-0.319 0.211,-0.545c0,-0.227 -0.07,-0.414 -0.211,-0.563c-0.14,-0.148 -0.351,-0.222 -0.633,-0.222l-2.097,0l0,-3.352c0,-0.305 -0.084,-0.535 -0.252,-0.691c-0.168,-0.157 -0.381,-0.235 -0.639,-0.235c-0.305,0 -0.564,0.098 -0.779,0.293c-0.215,0.196 -0.342,0.442 -0.381,0.739l-0.316,3.246l-1.372,0c-0.281,0 -0.494,0.07 -0.638,0.211c-0.145,0.14 -0.217,0.324 -0.217,0.55c0,0.227 0.074,0.412 0.223,0.557c0.148,0.144 0.363,0.217 0.644,0.217l1.36,0l0,6.621c0,1.164 0.277,2.047 0.832,2.648c0.554,0.602 1.308,0.903 2.261,0.903Z" style="fill:#636569;fill-rule:nonzero;"/></g></svg>