<?xml version="1.0" encoding="UTF-8"?>
<svg width="209px" height="60px" viewBox="0 0 209 60" version="1.1" xmlns="http://www.w3.org/2000/svg" xmlns:xlink="http://www.w3.org/1999/xlink">
    <!-- Generator: Sketch 52.2 (67145) - http://www.bohemiancoding.com/sketch -->
    <title>Group 28 Copy</title>
    <desc>Created with Sketch.</desc>
    <defs>
        <rect id="path-1" x="-3122" y="-1841" width="4368" height="4802"></rect>
        <mask id="mask-2" maskContentUnits="userSpaceOnUse" maskUnits="objectBoundingBox" x="0" y="0" width="4368" height="4802" fill="white">
            <use xlink:href="#path-1"></use>
        </mask>
        <polygon id="path-3" points="1.30398529 0.314224 30.5579399 0.314224 30.5579399 47.0450155 1.30398529 47.0450155"></polygon>
    </defs>
    <g id="Page-1" stroke="none" stroke-width="1" fill="none" fill-rule="evenodd">
        <use id="Rectangle" stroke="#9B9B9B" mask="url(#mask-2)" stroke-width="20" stroke-dasharray="30,10" fill-rule="nonzero" xlink:href="#path-1"></use>
        <path d="M-123.528402,92.3764095 C-134.050544,94.3143073 -144.867596,94.6254431 -155.713686,92.993559 C-223.813875,82.7473208 -269.012876,36.8862574 -269.012876,-27.7841432 C-269.012876,-88.8988401 -219.362257,-139.078311 -156.022828,-144.411489 C-157.153123,-150.422713 -157.742807,-156.610086 -157.742807,-162.927334 C-157.742807,-221.107515 -107.726231,-268.27187 -46.0276586,-268.27187 C-37.2205387,-268.27187 -28.6514505,-267.310853 -20.431892,-265.493956 C14.5505417,-335.520108 90.1833543,-384 177.847719,-384 C275.164602,-384 357.654535,-324.256337 386.166128,-241.615004 C462.942013,-222.979935 519.669369,-157.284576 519.669369,-79.1008894 C519.669369,13.5756881 439.961679,88.7048984 341.63726,88.7048984 L-123.528402,92.3764095 Z" id="Combined-Shape" stroke="#46AFE8" stroke-width="10.6819266" fill-rule="nonzero"></path>
        <g id="Group-28-Copy" transform="translate(3.000000, -1.963441)">
            <path d="M36.8598406,7.74311226 C35.9744942,5.06318452 33.1296137,3.60455226 30.471122,4.45253677 C27.8126303,5.34502194 26.3681177,8.21284129 27.2044145,10.892769 L40.3104844,51.5144413 C41.1982833,54.0064774 43.9033722,55.4181368 46.4686695,54.6640981 C49.1737584,53.8655587 50.8071122,50.9977394 49.9193133,48.3647845 C49.9193133,48.273311 36.8598406,7.74311226 36.8598406,7.74311226" id="Fill-1" fill="#ECB32D"></path>
            <path d="M16.5716738,14.3727195 C15.6863274,11.6927917 12.841447,10.2341595 10.1829552,11.0796717 C7.52446352,11.9721569 6.07749847,14.8399763 6.9162477,17.519904 L20.0223176,58.1440485 C20.9101165,60.6360846 23.6152054,62.0452717 26.1805028,61.2937053 C28.8855917,60.4951659 30.5189454,57.6273466 29.6311465,54.9943917 C29.6311465,54.9004459 16.5716738,14.3727195 16.5716738,14.3727195" id="Fill-3" fill="#63C1A0"></path>
            <path d="M53.3709381,41.3598885 C56.0294298,40.4674034 57.4763948,37.599584 56.6351931,34.9196563 C55.7498467,32.2397285 52.9049663,30.7810963 50.2464746,31.6266085 L9.90067443,44.8853285 C7.43102391,45.7778137 6.03065604,48.5071866 6.77621091,51.0931685 C7.56836297,53.8175969 10.4132434,55.4641208 13.0275904,54.5716356 C13.1207848,54.5716356 53.3709381,41.3598885 53.3709381,41.3598885" id="Fill-5" fill="#E01A59"></path>
            <path d="M18.2984672,52.8786333 C20.9079093,52.0306488 24.3144083,50.9032991 27.9538933,49.7289765 C27.1126916,47.0960217 25.9943593,43.6620552 24.8269773,39.9956965 L15.1740037,43.1453533 L18.2984672,52.8786333 Z" id="Fill-7" fill="#331433"></path>
            <path d="M38.6320049,46.2030421 C42.2690374,45.0262472 45.6755365,43.8964253 48.287431,43.0533853 C47.4486818,40.4179582 46.327897,36.986464 45.1629675,33.3201053 L35.5075414,36.4697621 L38.6320049,46.2030421 Z" id="Fill-9" fill="#D62027"></path>
            <path d="M46.7487431,20.9083809 C49.4072348,20.0158957 50.8517474,17.1480764 50.0129982,14.4681486 C49.1276517,11.7882209 46.2827713,10.3295886 43.6242796,11.1726286 L3.32507664,24.386848 C0.852973636,25.2818054 -0.544941754,28.0062338 0.203065604,30.5922157 C0.995217658,33.3215886 3.8400981,34.9656403 6.44954016,34.0706828 C6.54273452,34.0706828 46.7487431,20.9083809 46.7487431,20.9083809" id="Fill-11" fill="#89D3DF"></path>
            <path d="M11.7218884,32.3786694 C14.3313305,31.5331572 17.7378296,30.4033352 21.3773145,29.2290126 C20.2099326,25.5626539 19.0916002,22.1286875 18.2503985,19.4957326 L8.59742489,22.6453894 L11.7218884,32.3786694 Z" id="Fill-13" fill="#258B74"></path>
            <path d="M32.0098099,25.7490622 C35.6468424,24.5747396 39.050889,23.4449177 41.6652361,22.6018777 C40.4978541,18.9330467 39.3795218,15.4990803 38.53832,12.8661254 L28.8853464,16.0157822 L32.0098099,25.7490622 Z" id="Fill-15" fill="#819C3C"></path>
            <path d="M94.2273452,18.414367 C96.0004905,19.2129063 96.140282,19.7790534 94.7423666,22.4589812 C93.2954016,25.1858818 92.9692213,25.3737734 91.1985285,24.6667076 C89.0035561,23.7272495 86.1586757,23.022656 84.3413857,23.022656 C81.3567137,23.022656 79.3971796,24.105505 79.3971796,25.7495566 C79.3971796,31.156385 96.4664623,28.244065 96.4664623,39.7128702 C96.4664623,45.4979541 91.5222563,49.3522044 84.1549969,49.3522044 C80.2825261,49.3522044 75.4781116,48.0344908 72.1672594,46.3434663 C70.5363581,45.4979541 70.394114,45.028225 71.8410791,42.2543515 C73.0526058,39.8562612 73.4719804,39.5744237 75.2451257,40.3235179 C78.043409,41.5472857 81.6338443,42.5361889 84.0152054,42.5361889 C86.7178418,42.5361889 88.5400368,41.406367 88.5400368,39.806816 C88.5400368,34.5903515 71.1421214,37.0823876 71.1421214,25.9374483 C71.1421214,20.0139179 76.0372777,16.0657218 83.3603924,16.0657218 C86.906683,16.0162766 91.2426732,17.0521528 94.2273452,18.414367" id="Fill-17" fill="#2D333A"></path>
            <path d="M108.034335,4.78060542 L108.034335,47.6594493 C108.034335,48.3170699 107.335377,48.9771628 106.400981,48.9771628 L101.925199,48.9771628 C100.944206,48.9771628 100.291845,48.2725693 100.291845,47.6594493 L100.291845,4.78060542 C100.291845,2.66682477 100.897609,2.4764609 104.161864,2.4764609 C107.892091,2.429488 108.034335,2.71132542 108.034335,4.78060542" id="Fill-19" fill="#2D333A"></path>
            <path d="M119.228694,39.5734348 C119.228694,41.7836335 121.092581,43.2397935 123.844267,43.2397935 C127.204169,43.2397935 130.282036,41.5932697 132.052728,38.8193961 L132.052728,35.9515768 C130.282036,35.2469832 128.089516,34.8712 126.176579,34.8712 C121.98038,34.8712 119.228694,36.8440619 119.228694,39.5734348 M139.841815,28.8537239 L139.841815,47.3313806 C139.841815,48.3178116 139.142857,48.9779045 138.210914,48.9779045 L133.779277,48.9779045 C132.754139,48.9779045 132.052728,48.2238658 132.148375,47.1904619 L132.19252,45.2151277 C129.813611,47.8950555 126.362968,49.3067148 122.912324,49.3067148 C116.24157,49.3067148 111.765788,45.4030194 111.765788,39.6204077 C111.765788,33.4595406 116.803188,29.27648 124.403433,29.27648 C127.297364,29.27648 129.906806,29.7931819 132.052728,30.6856671 L132.052728,28.5718865 C132.052728,25.1873652 129.396689,23.1625858 124.871858,23.1625858 C122.772532,23.1625858 120.160638,24.0105703 118.107909,25.2318658 C116.521153,26.1268232 116.148375,26.0798503 114.42428,23.4938684 C112.744329,20.9078865 112.790926,20.4381574 114.42428,19.3553084 C117.546291,17.3354735 121.744942,16.01776 125.61496,16.01776 C134.338443,16.01776 139.841815,20.7669677 139.841815,28.8537239" id="Fill-21" fill="#2D333A"></path>
            <path d="M170.15843,18.462576 C171.791784,19.4020341 171.838381,19.9212083 170.065236,22.6950818 C168.385285,25.3255644 168.105702,25.4689554 166.288412,24.5764702 C164.934641,23.8694044 162.744574,23.2562844 160.971429,23.2562844 C155.374862,23.2562844 151.642183,26.9720883 151.642183,32.6162534 C151.642183,38.4433657 155.374862,42.3940341 160.971429,42.3940341 C162.930963,42.3940341 165.354016,41.6424676 166.940773,40.7499825 C168.574126,39.8080521 168.897854,39.855025 170.624402,42.3940341 C172.164562,44.7451515 172.164562,45.3088263 170.764194,46.2977295 C168.247946,48.035727 164.328878,49.3509683 160.829185,49.3509683 C150.477253,49.3509683 143.529368,42.6758715 143.529368,32.6162534 C143.529368,22.6456366 150.477253,16.0175128 160.922379,16.0175128 C164.095892,16.0175128 167.828571,17.0978895 170.15843,18.462576" id="Fill-23" fill="#2D333A"></path>
            <g id="Group-27" transform="translate(174.126303, 2.162731)">
                <mask id="mask-4" fill="white">
                    <use xlink:href="#path-3"></use>
                </mask>
                <g id="Clip-26"></g>
                <path d="M29.8950337,42.7703117 C31.1997548,44.4143634 30.6871858,45.0274834 27.4204782,46.2018059 C24.1120785,47.4255737 23.6436542,47.3316279 22.4787247,45.8260227 L13.196076,33.3658421 L9.04647456,37.4104563 L9.04647456,45.4972124 C9.04647456,46.154833 8.34506438,46.8149259 7.41312078,46.8149259 L2.93488657,46.8149259 C1.9563458,46.8149259 1.30398529,46.1103324 1.30398529,45.4972124 L1.30398529,2.61836852 C1.30398529,0.502115613 1.90974862,0.314224 5.17400368,0.314224 C8.9532802,0.314224 9.04647456,0.596061419 9.04647456,2.61836852 L9.04647456,26.9725827 L21.7331698,14.7002937 C23.1310852,13.3850524 23.9232373,13.4765259 26.3953403,15.1230498 C29.1470264,16.9104924 29.3334151,17.4271943 28.0286941,18.697935 L18.6062538,28.0059866 L29.8950337,42.7703117 Z" id="Fill-25" fill="#2D333A" mask="url(#mask-4)"></path>
            </g>
        </g>
    </g>
</svg>