<?xml version="1.0" encoding="UTF-8"?>
<svg width="350px" height="117px" viewBox="0 0 350 117" version="1.1" xmlns="http://www.w3.org/2000/svg" xmlns:xlink="http://www.w3.org/1999/xlink">
    <!-- Generator: Sketch 52.3 (67297) - http://www.bohemiancoding.com/sketch -->
    <title>SonicWall Cloud App 2</title>
    <desc>Created with Sketch.</desc>
    <g id="Page-1" stroke="none" stroke-width="1" fill="none" fill-rule="evenodd">
        <g id="Artboard-Copy-31" transform="translate(-269.000000, -724.000000)" fill="#333333">
            <g id="SonicWall-Cloud-App-2" transform="translate(269.000000, 724.000000)">
                <path d="M12.9737505,35.515625 C8.05185089,35.515625 4.10657784,34.1953257 1.137813,31.5546875 C1.02843745,31.460937 0.950313234,31.3476569 0.903438,31.2148438 C0.856562766,31.0820306 0.8331255,30.9375008 0.8331255,30.78125 C0.8331255,30.2031221 1.09093542,29.6015656 1.606563,28.9765625 C2.12219058,28.3515594 2.64562284,28.0390625 3.1768755,28.0390625 C3.28625105,28.0390625 3.38781253,28.0546873 3.481563,28.0859375 C3.57531347,28.1171877 3.66906253,28.1640622 3.762813,28.2265625 C6.57532706,30.2578227 9.69248339,31.2734375 13.1143755,31.2734375 C15.3331366,31.2734375 17.1417123,30.8437543 18.5401568,29.984375 C19.9386012,29.1249957 20.637813,27.8750082 20.637813,26.234375 C20.637813,24.7812427 20.2510981,23.6796913 19.4776568,22.9296875 C18.7042154,22.1796837 17.4034471,21.500003 15.575313,20.890625 L8.450313,18.5234375 C5.91905034,17.6796833 4.05188152,16.5976629 2.8487505,15.2773438 C1.64561948,13.9570246 1.044063,12.1640738 1.044063,9.8984375 C1.044063,8.02342813 1.58702632,6.38281953 2.67296925,4.9765625 C3.75891218,3.57030547 5.21983507,2.5117223 7.05578175,1.80078125 C8.89172843,1.0898402 10.9659264,0.734375 13.278438,0.734375 C15.5128242,0.734375 17.6534278,1.08202777 19.700313,1.77734375 C21.7471982,2.47265973 23.317495,3.29687023 24.4112505,4.25 C24.8018775,4.57812664 24.997188,5.00780984 24.997188,5.5390625 C24.997188,6.08594023 24.8018775,6.58202902 24.4112505,7.02734375 C24.0206235,7.47265848 23.5440658,7.6953125 22.981563,7.6953125 C22.6221862,7.6953125 22.2628148,7.58593859 21.903438,7.3671875 C19.2471747,5.77342953 16.5050146,4.9765625 13.6768755,4.9765625 C11.4112392,4.9765625 9.59485109,5.36718359 8.22765675,6.1484375 C6.86046241,6.92969141 6.1768755,8.11717953 6.1768755,9.7109375 C6.1768755,10.8515682 6.4971848,11.7656216 7.137813,12.453125 C7.7784412,13.1406284 8.78624363,13.7031228 10.1612505,14.140625 L17.262813,16.4375 C18.6846951,16.9062523 19.8839019,17.3906225 20.8604693,17.890625 C21.8370366,18.3906275 22.7198403,18.9999964 23.5089068,19.71875 C24.2979732,20.4375036 24.8839048,21.2929638 25.2667193,22.2851562 C25.6495337,23.2773487 25.840938,24.4218685 25.840938,25.71875 C25.840938,27.7656352 25.3096933,29.5312426 24.247188,31.015625 C23.1846827,32.5000074 21.6886039,33.62109 19.7589068,34.3789062 C17.8292096,35.1367225 15.5675135,35.515625 12.9737505,35.515625 Z M42.0361046,32.1640625 C44.317366,32.1484374 46.0907858,31.3593828 47.3564171,29.796875 C48.6220484,28.2343672 49.2548546,26.0781387 49.2548546,23.328125 C49.2548546,20.5937363 48.614236,18.4336017 47.3329796,16.8476562 C46.0517232,15.2617108 44.2861159,14.46875 42.0361046,14.46875 C39.7704683,14.46875 38.0009547,15.2578046 36.7275109,16.8359375 C35.454067,18.4140704 34.8173546,20.5781113 34.8173546,23.328125 C34.8173546,26.0625137 35.4579732,28.2187421 36.7392296,29.796875 C38.020486,31.3750079 39.7860934,32.1640625 42.0361046,32.1640625 Z M42.0361046,35.375 C40.1454701,35.375 38.4345498,35.0507845 36.9032921,34.4023438 C35.3720344,33.753903 34.1220469,32.8750055 33.1532921,31.765625 C32.1845373,30.6562445 31.4423572,29.3828197 30.9267296,27.9453125 C30.411102,26.5078053 30.1532921,24.9687582 30.1532921,23.328125 C30.1532921,21.6718667 30.411102,20.121101 30.9267296,18.6757812 C31.4423572,17.2304615 32.1884435,15.9531305 33.1650109,14.84375 C34.1415782,13.7343695 35.3915657,12.8593782 36.9150109,12.21875 C38.438456,11.5781218 40.1454701,11.2578125 42.0361046,11.2578125 C44.520492,11.2578125 46.6728142,11.804682 48.4931359,12.8984375 C50.3134575,13.992193 51.6728189,15.4413972 52.5712609,17.2460938 C53.4697028,19.0507903 53.9189171,21.0781138 53.9189171,23.328125 C53.9189171,24.9531331 53.6611072,26.488274 53.1454796,27.9335938 C52.629852,29.3789135 51.8876719,30.6562445 50.9189171,31.765625 C49.9501623,32.8750055 48.7001748,33.753903 47.1689171,34.4023438 C45.6376594,35.0507845 43.9267391,35.375 42.0361046,35.375 Z M61.3484587,35 C60.7078305,35 60.1570548,34.8007832 59.696115,34.4023438 C59.2351751,34.0039043 59.0047087,33.4531285 59.0047087,32.75 L59.0047087,13.859375 C59.0047087,13.1562465 59.2390814,12.6132832 59.7078337,12.2304688 C60.176586,11.8476543 60.731268,11.65625 61.3718962,11.65625 C62.0125244,11.65625 62.5633001,11.8437481 63.02424,12.21875 C63.4851798,12.5937519 63.7156462,13.1171841 63.7156462,13.7890625 L63.7156462,15.453125 C64.3406493,14.0937432 65.3211083,13.0546911 66.6570525,12.3359375 C67.9929966,11.6171839 69.5515748,11.2578125 71.3328337,11.2578125 C72.5359647,11.2578125 73.6414224,11.433592 74.64924,11.7851562 C75.6570575,12.1367205 76.555486,12.6679652 77.3445525,13.3789062 C78.1336189,14.0898473 78.746894,15.0351504 79.1843962,16.2148438 C79.6218984,17.3945371 79.8406462,18.7499923 79.8406462,20.28125 L79.8406462,32.75 C79.8406462,33.4531285 79.6023673,34.0039043 79.1258025,34.4023438 C78.6492376,34.8007832 78.0906494,35 77.4500212,35 C76.809393,35 76.2586173,34.8007832 75.7976775,34.4023438 C75.3367376,34.0039043 75.1062712,33.4531285 75.1062712,32.75 L75.1062712,20.234375 C75.1062712,18.3593656 74.6531507,16.9296924 73.7468962,15.9453125 C72.8406417,14.9609326 71.6140914,14.46875 70.0672087,14.46875 C68.332825,14.46875 66.8562773,15.1132748 65.6375212,16.4023438 C64.4187651,17.6914127 63.7781465,19.4296766 63.7156462,21.6171875 L63.7156462,32.75 C63.7156462,33.4531285 63.4812735,34.0039043 63.0125212,34.4023438 C62.5437689,34.8007832 61.9890869,35 61.3484587,35 Z M88.8170628,35 C88.1608095,35 87.6061276,34.796877 87.1530003,34.390625 C86.699873,33.984373 86.4733128,33.3984413 86.4733128,32.6328125 L86.4733128,14 C86.4733128,13.2656213 86.7115917,12.6875021 87.1881566,12.265625 C87.6647214,11.8437479 88.2233096,11.6328125 88.8639378,11.6328125 C89.4889409,11.6328125 90.0358105,11.8437479 90.5045628,12.265625 C90.9733151,12.6875021 91.2076878,13.2656213 91.2076878,14 L91.2076878,32.6328125 C91.2076878,33.3671912 90.9694089,33.9453104 90.4928441,34.3671875 C90.0162792,34.7890646 89.457691,35 88.8170628,35 Z M88.8405003,6.5 C87.9654959,6.5 87.2545655,6.24609629 86.7076878,5.73828125 C86.1608101,5.23046621 85.8873753,4.56250414 85.8873753,3.734375 C85.8873753,2.90624586 86.1608101,2.23437758 86.7076878,1.71875 C87.2545655,1.20312242 87.9733083,0.9453125 88.8639378,0.9453125 C89.7389422,0.9453125 90.4420601,1.20312242 90.9733128,1.71875 C91.5045655,2.23437758 91.7701878,2.90624586 91.7701878,3.734375 C91.7701878,4.56250414 91.5006592,5.23046621 90.9615941,5.73828125 C90.4225289,6.24609629 89.7155047,6.5 88.8405003,6.5 Z M107.566917,35.375 C105.285655,35.375 103.277863,34.8320367 101.543479,33.7460938 C99.8090957,32.6601508 98.4966089,31.2070404 97.6059794,29.3867188 C96.7153499,27.5663971 96.2700419,25.5390737 96.2700419,23.3046875 C96.2700419,21.0859264 96.7387872,19.0664154 97.6762919,17.2460938 C98.6137966,15.4257721 99.9692518,13.9726617 101.742698,12.8867188 C103.516145,11.8007758 105.55128,11.2578125 107.848167,11.2578125 C109.223174,11.2578125 110.469255,11.4414044 111.586448,11.8085938 C112.703641,12.1757831 113.605976,12.6171849 114.293479,13.1328125 C114.887232,13.5703147 115.184104,14.0624973 115.184104,14.609375 C115.184104,14.8593762 115.117699,15.0898427 114.984886,15.3007812 C114.852072,15.5117198 114.672387,15.6757807 114.445823,15.7929688 C114.21926,15.9101568 113.965356,15.96875 113.684104,15.96875 C113.340353,15.96875 113.004419,15.8750009 112.676292,15.6875 C111.31691,14.8593709 109.809113,14.4453125 108.152854,14.4453125 C105.980969,14.4453125 104.242705,15.2538982 102.938011,16.8710938 C101.633317,18.4882893 100.980979,20.6406116 100.980979,23.328125 C100.980979,24.9687582 101.230977,26.4453059 101.730979,27.7578125 C102.230982,29.0703191 103.01613,30.1328084 104.086448,30.9453125 C105.156766,31.7578166 106.434097,32.1640625 107.918479,32.1640625 C109.98099,32.1640625 111.69191,31.6875048 113.051292,30.734375 C113.223168,30.6093744 113.398947,30.5195315 113.578636,30.4648438 C113.758324,30.410156 113.934104,30.3828125 114.105979,30.3828125 C114.309105,30.3828125 114.496604,30.4179684 114.668479,30.4882812 C114.840355,30.5585941 114.992697,30.6562494 115.125511,30.78125 C115.258324,30.9062506 115.359885,31.0585929 115.430198,31.2382812 C115.500511,31.4179696 115.535667,31.6015616 115.535667,31.7890625 C115.535667,32.0390637 115.469261,32.2968737 115.336448,32.5625 C115.203635,32.8281263 114.996606,33.0781238 114.715354,33.3125 C113.059096,34.6875069 110.676307,35.375 107.566917,35.375 Z M156.926146,32.1171875 C156.676145,33.0546922 156.187868,33.7773412 155.461302,34.2851562 C154.734736,34.7929713 153.92615,35.046875 153.035521,35.046875 C152.144892,35.046875 151.336306,34.7968775 150.60974,34.296875 C149.883174,33.7968725 149.37146,33.0859421 149.074584,32.1640625 L141.223021,7.4609375 L133.371459,32.1640625 C133.090207,33.0859421 132.574587,33.7968725 131.824584,34.296875 C131.07458,34.7968775 130.258182,35.046875 129.375365,35.046875 C128.492548,35.046875 127.691775,34.7929713 126.973021,34.2851562 C126.254267,33.7773412 125.769897,33.0546922 125.519896,32.1171875 L118.043334,4.484375 C117.980833,4.21874867 117.949584,3.96875117 117.949584,3.734375 C117.949584,3.26562266 118.078488,2.84765809 118.336302,2.48046875 C118.594116,2.11327941 118.918332,1.84375086 119.308959,1.671875 C119.699585,1.49999914 120.113644,1.4140625 120.551146,1.4140625 C120.769897,1.4140625 120.980832,1.43749977 121.183959,1.484375 C121.387085,1.53125023 121.582395,1.60156203 121.769896,1.6953125 C121.957397,1.78906297 122.12927,1.90234309 122.285521,2.03515625 C122.441772,2.16796941 122.578489,2.33593648 122.695677,2.5390625 C122.812865,2.74218852 122.902708,2.96093633 122.965209,3.1953125 L129.715209,29.796875 L137.707396,4.25 C138.051148,3.17186961 138.508174,2.42968953 139.07849,2.0234375 C139.648805,1.61718547 140.363642,1.4140625 141.223021,1.4140625 C142.098025,1.4140625 142.816768,1.60937305 143.379271,2 C143.941774,2.39062695 144.394894,3.14061945 144.738646,4.25 L152.730834,29.796875 L159.480834,3.1953125 C159.621459,2.61718461 159.918331,2.17578277 160.371459,1.87109375 C160.824586,1.56640473 161.332393,1.4140625 161.894896,1.4140625 C162.582399,1.4140625 163.187862,1.62499789 163.711302,2.046875 C164.234742,2.46875211 164.496459,3.03124648 164.496459,3.734375 L164.496459,3.96875 C164.496459,4.04687539 164.488646,4.12890582 164.473021,4.21484375 C164.457396,4.30078168 164.433959,4.39062453 164.402709,4.484375 L156.926146,32.1171875 Z M175.605688,35.375 C173.168175,35.375 171.18382,34.7890684 169.652563,33.6171875 C168.121305,32.4453066 167.355688,30.7812608 167.355688,28.625 C167.355688,27.7031204 167.453343,26.8945347 167.648656,26.1992188 C167.84397,25.5039028 168.113498,24.9023463 168.45725,24.3945312 C168.801002,23.8867162 169.293184,23.457033 169.933813,23.1054688 C170.574441,22.7539045 171.258028,22.4687511 171.984594,22.25 C172.71116,22.0312489 173.648651,21.8632818 174.797094,21.7460938 C175.945537,21.6289057 177.101776,21.5507814 178.265844,21.5117188 C179.429912,21.4726561 180.855679,21.453125 182.543188,21.453125 L182.543188,19.15625 C182.543188,15.9999842 180.965078,14.421875 177.808813,14.421875 C176.886933,14.421875 175.94163,14.5273427 174.972875,14.7382812 C174.00412,14.9492198 173.273659,15.1484366 172.781469,15.3359375 C172.289279,15.5234384 171.636942,15.7890608 170.824438,16.1328125 C170.636937,16.2109379 170.441626,16.25 170.2385,16.25 C170.082249,16.25 169.933813,16.2265627 169.793188,16.1796875 C169.652562,16.1328123 169.519751,16.0664067 169.39475,15.9804688 C169.269749,15.8945308 169.156469,15.7929693 169.054906,15.6757812 C168.953343,15.5585932 168.867407,15.4335944 168.797094,15.3007812 C168.726781,15.1679681 168.672094,15.0312507 168.633031,14.890625 C168.593969,14.7499993 168.574438,14.6093757 168.574438,14.46875 C168.574438,14.2031237 168.636937,13.9648448 168.761938,13.7539062 C168.886938,13.5429677 169.082249,13.3671882 169.347875,13.2265625 C171.769762,11.9140559 174.644733,11.2578125 177.972875,11.2578125 C180.847889,11.2578125 183.113492,11.9296808 184.76975,13.2734375 C186.426008,14.6171942 187.254125,16.7109233 187.254125,19.5546875 L187.254125,32.7734375 C187.254125,33.476566 187.019752,34.0273418 186.551,34.4257812 C186.082248,34.8242207 185.535378,35.0234375 184.910375,35.0234375 C184.504123,35.0234375 184.133033,34.9414071 183.797094,34.7773438 C183.461155,34.6132804 183.179907,34.3632829 182.953344,34.0273438 C182.72678,33.6914046 182.6135,33.2890648 182.6135,32.8203125 L182.6135,31.0859375 C181.222868,33.9453268 178.886954,35.375 175.605688,35.375 Z M176.074438,32.28125 C177.777571,32.28125 179.277556,31.578132 180.574438,30.171875 C181.871319,28.765618 182.51975,26.9765734 182.51975,24.8046875 L182.51975,24.1484375 C181.019743,24.1484375 179.769755,24.1679686 178.76975,24.2070312 C177.769745,24.2460939 176.843973,24.3242182 175.992406,24.4414062 C175.14084,24.5585943 174.472878,24.7109366 173.9885,24.8984375 C173.504123,25.0859384 173.086158,25.3437484 172.734594,25.671875 C172.38303,26.0000016 172.144751,26.3867165 172.01975,26.8320312 C171.894749,27.277346 171.83225,27.8124969 171.83225,28.4375 C171.83225,29.7500066 172.215059,30.7187469 172.980688,31.34375 C173.746316,31.9687531 174.777556,32.28125 176.074438,32.28125 Z M196.324292,35 C195.683663,35 195.136794,34.796877 194.683667,34.390625 C194.230539,33.984373 194.003979,33.3984413 194.003979,32.6328125 L194.003979,3.78125 C194.003979,3.06249641 194.238352,2.49218961 194.707104,2.0703125 C195.175857,1.64843539 195.730538,1.4375 196.371167,1.4375 C197.011795,1.4375 197.566477,1.64843539 198.035229,2.0703125 C198.503982,2.49218961 198.738354,3.06249641 198.738354,3.78125 L198.738354,32.6328125 C198.738354,33.3671912 198.496169,33.9453104 198.011792,34.3671875 C197.527414,34.7890646 196.96492,35 196.324292,35 Z M207.996021,35 C207.355393,35 206.808523,34.796877 206.355396,34.390625 C205.902269,33.984373 205.675708,33.3984413 205.675708,32.6328125 L205.675708,3.78125 C205.675708,3.06249641 205.910081,2.49218961 206.378833,2.0703125 C206.847586,1.64843539 207.402268,1.4375 208.042896,1.4375 C208.683524,1.4375 209.238206,1.64843539 209.706958,2.0703125 C210.175711,2.49218961 210.410083,3.06249641 210.410083,3.78125 L210.410083,32.6328125 C210.410083,33.3671912 210.167898,33.9453104 209.683521,34.3671875 C209.199143,34.7890646 208.636649,35 207.996021,35 Z M245.542604,35.515625 C242.401963,35.515625 239.636366,34.7656325 237.245729,33.265625 C234.855092,31.7656175 233.034798,29.7109505 231.784792,27.1015625 C230.534785,24.4921745 229.909792,21.539079 229.909792,18.2421875 C229.909792,14.8671706 230.566035,11.8593882 231.878542,9.21875 C233.191048,6.5781118 235.077748,4.50391379 237.538698,2.99609375 C239.999648,1.48827371 242.83165,0.734375 246.034792,0.734375 C249.034807,0.734375 251.870716,1.45311781 254.542604,2.890625 C254.964481,3.10937609 255.276978,3.37890465 255.480104,3.69921875 C255.68323,4.01953285 255.784792,4.3593732 255.784792,4.71875 C255.784792,5.0781268 255.691042,5.42577957 255.503542,5.76171875 C255.316041,6.09765793 255.062137,6.36718648 254.741823,6.5703125 C254.421509,6.77343852 254.081668,6.875 253.722292,6.875 C253.597291,6.875 253.468386,6.86328137 253.335573,6.83984375 C253.20276,6.81640613 253.073855,6.77343781 252.948854,6.7109375 L252.222292,6.34765625 C251.800414,6.1367177 251.441043,5.97656305 251.144167,5.8671875 C250.84729,5.75781195 250.441044,5.62109457 249.925417,5.45703125 C249.409789,5.29296793 248.839482,5.17187539 248.214479,5.09375 C247.589476,5.01562461 246.92542,4.9765625 246.222292,4.9765625 C244.441033,4.9765625 242.862923,5.30859043 241.487917,5.97265625 C240.11291,6.63672207 238.995733,7.56249406 238.136354,8.75 C237.276975,9.93750594 236.628544,11.3242108 236.191042,12.9101562 C235.753539,14.4961017 235.534792,16.2499904 235.534792,18.171875 C235.534792,20.0937596 235.753539,21.8437421 236.191042,23.421875 C236.628544,25.0000079 237.284787,26.3789004 238.159792,27.5585938 C239.034796,28.7382871 240.175409,29.6523405 241.581667,30.3007812 C242.987924,30.949222 244.605095,31.2734375 246.433229,31.2734375 C247.370734,31.2734375 248.288693,31.1601574 249.187135,30.9335938 C250.085577,30.7070301 250.80432,30.4687512 251.343385,30.21875 C251.88245,29.9687488 252.558225,29.6250022 253.370729,29.1875 C253.683231,29.0156241 253.995727,28.9296875 254.308229,28.9296875 C254.839482,28.9296875 255.292602,29.1367167 255.667604,29.5507812 C256.042606,29.9648458 256.230104,30.4453098 256.230104,30.9921875 C256.230104,31.7890665 255.83167,32.4453099 255.034792,32.9609375 C252.347278,34.664071 249.183247,35.515625 245.542604,35.515625 Z M264.714333,35 C264.073705,35 263.526835,34.796877 263.073708,34.390625 C262.620581,33.984373 262.394021,33.3984413 262.394021,32.6328125 L262.394021,3.78125 C262.394021,3.06249641 262.628393,2.49218961 263.097146,2.0703125 C263.565898,1.64843539 264.12058,1.4375 264.761208,1.4375 C265.401836,1.4375 265.956518,1.64843539 266.425271,2.0703125 C266.894023,2.49218961 267.128396,3.06249641 267.128396,3.78125 L267.128396,32.6328125 C267.128396,33.3671912 266.886211,33.9453104 266.401833,34.3671875 C265.917456,34.7890646 265.354961,35 264.714333,35 Z M284.261062,32.1640625 C286.542324,32.1484374 288.315743,31.3593828 289.581375,29.796875 C290.847006,28.2343672 291.479812,26.0781387 291.479812,23.328125 C291.479812,20.5937363 290.839194,18.4336017 289.557937,16.8476562 C288.276681,15.2617108 286.511073,14.46875 284.261062,14.46875 C281.995426,14.46875 280.225912,15.2578046 278.952468,16.8359375 C277.679025,18.4140704 277.042312,20.5781113 277.042312,23.328125 C277.042312,26.0625137 277.682931,28.2187421 278.964187,29.796875 C280.245444,31.3750079 282.011051,32.1640625 284.261062,32.1640625 Z M284.261062,35.375 C282.370428,35.375 280.659507,35.0507845 279.12825,34.4023438 C277.596992,33.753903 276.347005,32.8750055 275.37825,31.765625 C274.409495,30.6562445 273.667315,29.3828197 273.151687,27.9453125 C272.63606,26.5078053 272.37825,24.9687582 272.37825,23.328125 C272.37825,21.6718667 272.63606,20.121101 273.151687,18.6757812 C273.667315,17.2304615 274.413401,15.9531305 275.389968,14.84375 C276.366536,13.7343695 277.616523,12.8593782 279.139968,12.21875 C280.663414,11.5781218 282.370428,11.2578125 284.261062,11.2578125 C286.74545,11.2578125 288.897772,11.804682 290.718093,12.8984375 C292.538415,13.992193 293.897776,15.4413972 294.796218,17.2460938 C295.69466,19.0507903 296.143875,21.0781138 296.143875,23.328125 C296.143875,24.9531331 295.886065,26.488274 295.370437,27.9335938 C294.85481,29.3789135 294.11263,30.6562445 293.143875,31.765625 C292.17512,32.8750055 290.925132,33.753903 289.393875,34.4023438 C287.862617,35.0507845 286.151697,35.375 284.261062,35.375 Z M309.456229,35.375 C306.956216,35.375 304.92108,34.6211013 303.35076,33.1132812 C301.78044,31.6054612 300.995291,29.3437651 300.995291,26.328125 L300.995291,13.90625 C300.995291,13.1874964 301.229664,12.6289082 301.698416,12.2304688 C302.167169,11.8320293 302.721851,11.6328125 303.362479,11.6328125 C304.003107,11.6328125 304.553883,11.8320293 305.014823,12.2304688 C305.475762,12.6289082 305.706229,13.1874964 305.706229,13.90625 L305.706229,26.375 C305.706229,28.2656345 306.151537,29.7031201 307.042166,30.6875 C307.932796,31.6718799 309.151534,32.1640625 310.698416,32.1640625 C312.448425,32.1640625 313.936691,31.5156315 315.16326,30.21875 C316.389829,28.9218685 317.034353,27.1875109 317.096854,25.015625 L317.096854,13.90625 C317.096854,13.1874964 317.331226,12.6289082 317.799979,12.2304688 C318.268731,11.8320293 318.831226,11.6328125 319.487479,11.6328125 C320.128107,11.6328125 320.678883,11.8320293 321.139823,12.2304688 C321.600762,12.6289082 321.831229,13.1874964 321.831229,13.90625 L321.831229,32.7734375 C321.831229,33.476566 321.596856,34.0234355 321.128104,34.4140625 C320.659351,34.8046895 320.096857,35 319.440604,35 C318.799976,35 318.2492,34.8125019 317.78826,34.4375 C317.32732,34.0624981 317.096854,33.5390659 317.096854,32.8671875 L317.096854,31.1796875 C316.471851,32.5234442 315.487486,33.5585901 314.143729,34.2851562 C312.799972,35.0117224 311.237488,35.375 309.456229,35.375 Z M337.159208,35.375 C335.5342,35.375 334.073277,35.0429721 332.776395,34.3789062 C331.479514,33.7148404 330.420931,32.8164119 329.600614,31.6835938 C328.780298,30.5507756 328.151398,29.2578198 327.713895,27.8046875 C327.276393,26.3515552 327.057645,24.8046957 327.057645,23.1640625 C327.057645,19.664045 327.995136,16.8046986 329.870145,14.5859375 C331.745155,12.3671764 334.292004,11.2578125 337.51077,11.2578125 C341.042038,11.2578125 343.56545,12.6249863 345.081083,15.359375 L345.081083,3.640625 C345.081083,2.93749648 345.315456,2.39453316 345.784208,2.01171875 C346.25296,1.62890434 346.807642,1.4375 347.44827,1.4375 C348.088899,1.4375 348.639674,1.62890434 349.100614,2.01171875 C349.561554,2.39453316 349.79202,2.93749648 349.79202,3.640625 L349.79202,32.7265625 C349.79202,33.429691 349.557648,33.9804668 349.088895,34.3789062 C348.620143,34.7773457 348.065461,34.9765625 347.424833,34.9765625 C346.674829,34.9765625 346.09671,34.7851582 345.690458,34.4023438 C345.284206,34.0195293 345.081083,33.4609412 345.081083,32.7265625 L345.081083,31.0625 C343.5342,33.9375144 340.893602,35.375 337.159208,35.375 Z M338.120145,32.1640625 C339.417027,32.1640625 340.522485,31.9492209 341.436552,31.5195312 C342.350619,31.0898416 343.065455,30.4687541 343.581083,29.65625 C344.09671,28.8437459 344.471707,27.9140677 344.706083,26.8671875 C344.940459,25.8203073 345.057645,24.6093819 345.057645,23.234375 C345.057645,22.3281205 344.983427,21.4609416 344.834989,20.6328125 C344.686551,19.8046834 344.436553,19.0117225 344.084989,18.2539062 C343.733425,17.49609 343.303742,16.8398465 342.795927,16.2851562 C342.288112,15.730466 341.647493,15.2890641 340.874052,14.9609375 C340.10061,14.6328109 339.237338,14.46875 338.284208,14.46875 C337.096702,14.46875 336.065462,14.7304661 335.190458,15.2539062 C334.315454,15.7773464 333.639679,16.4765581 333.163114,17.3515625 C332.686549,18.2265669 332.33499,19.1562451 332.108427,20.140625 C331.881863,21.1250049 331.768583,22.1562446 331.768583,23.234375 C331.768583,24.2812552 331.874051,25.2929639 332.084989,26.2695312 C332.295928,27.2460986 332.627956,28.1914017 333.081083,29.1054688 C333.53421,30.0195358 334.19436,30.7539035 335.061552,31.3085938 C335.928743,31.863284 336.948265,32.1484374 338.120145,32.1640625 Z M58.9579067,94.9765625 L52.5360317,78.2890625 L46.0907192,94.9765625 L58.9579067,94.9765625 Z M62.9891567,105.453125 L60.4110317,98.7734375 L44.6375942,98.7734375 L42.0594692,105.453125 C41.8407181,106.031253 41.5165025,106.460936 41.0868129,106.742188 C40.6571233,107.023439 40.1766593,107.164062 39.6454067,107.164062 C39.1610292,107.164062 38.6922839,107.046876 38.2391567,106.8125 C37.4110275,106.359373 36.9969692,105.710942 36.9969692,104.867188 C36.9969692,104.570311 37.0594685,104.273439 37.1844692,103.976562 L48.1766567,76.578125 C48.7235344,75.2031181 49.3368095,74.2890648 50.0165004,73.8359375 C50.6961913,73.3828102 51.5360267,73.15625 52.5360317,73.15625 C53.5204116,73.15625 54.3524345,73.3828102 55.0321254,73.8359375 C55.7118163,74.2890648 56.3250914,75.2031181 56.8719692,76.578125 L67.8641567,103.976562 C67.9891573,104.289064 68.0516567,104.593749 68.0516567,104.890625 C68.0516567,105.328127 67.9227517,105.722654 67.6649379,106.074219 C67.4071241,106.425783 67.0790024,106.695312 66.6805629,106.882812 C66.2821234,107.070313 65.8563464,107.164062 65.4032192,107.164062 C64.3563389,107.085937 63.5516595,106.51563 62.9891567,105.453125 Z M75.0358858,115.929688 C74.4108826,115.929688 73.8640131,115.734377 73.3952608,115.34375 C72.9265084,114.953123 72.6921358,114.414066 72.6921358,113.726562 L72.6921358,85.90625 C72.6921358,85.2031215 72.9265084,84.6523457 73.3952608,84.2539062 C73.8640131,83.8554668 74.418695,83.65625 75.0593233,83.65625 C75.809327,83.65625 76.3874462,83.8476543 76.7936983,84.2304688 C77.1999503,84.6132832 77.4030733,85.1640589 77.4030733,85.8828125 L77.4030733,87.546875 C78.949956,84.6874857 81.5905546,83.2578125 85.3249483,83.2578125 C86.9499564,83.2578125 88.4108793,83.5898404 89.7077608,84.2539062 C91.0046422,84.9179721 92.0632254,85.8164006 92.883542,86.9492188 C93.7038586,88.0820369 94.3327586,89.3710865 94.7702608,90.8164062 C95.2077629,92.261726 95.4265108,93.8046793 95.4265108,95.4453125 C95.4265108,98.94533 94.4890201,101.808583 92.6140108,104.035156 C90.7390014,106.26173 88.1921518,107.375 84.9733858,107.375 C81.4421181,107.375 78.9187058,106.000014 77.4030733,103.25 L77.4030733,113.726562 C77.4030733,114.414066 77.1687006,114.953123 76.6999483,115.34375 C76.2311959,115.734377 75.676514,115.929688 75.0358858,115.929688 Z M84.1999483,104.164062 C85.153078,104.164062 86.0085382,103.988283 86.7663545,103.636719 C87.5241708,103.285154 88.1452583,102.824222 88.6296358,102.253906 C89.1140132,101.683591 89.5163529,101.011723 89.836667,100.238281 C90.1569811,99.4648399 90.3835413,98.6796915 90.5163545,97.8828125 C90.6491677,97.0859335 90.7155733,96.2578168 90.7155733,95.3984375 C90.7155733,94.3515573 90.6101056,93.3398486 90.399167,92.3632812 C90.1882284,91.3867139 89.8562005,90.4414108 89.4030733,89.5273438 C88.949946,88.6132767 88.2897963,87.8750028 87.4226045,87.3125 C86.5554127,86.7499972 85.5358916,86.46875 84.3640108,86.46875 C83.0671293,86.46875 81.9616716,86.6835916 81.0476045,87.1132812 C80.1335374,87.5429709 79.4187008,88.1640584 78.9030733,88.9765625 C78.3874457,89.7890666 78.0124494,90.7187448 77.7780733,91.765625 C77.5436971,92.8125052 77.4265108,94.0234306 77.4265108,95.3984375 C77.4265108,96.304692 77.5007288,97.1718709 77.649167,98 C77.7976052,98.8281291 78.0476027,99.62109 78.399167,100.378906 C78.7507313,101.136723 79.1804145,101.792966 79.6882295,102.347656 C80.1960445,102.902347 80.8366631,103.343748 81.6101045,103.671875 C82.3835459,104.000002 83.2468185,104.164062 84.1999483,104.164062 Z M103.020115,115.929688 C102.395112,115.929688 101.848242,115.734377 101.37949,115.34375 C100.910738,114.953123 100.676365,114.414066 100.676365,113.726562 L100.676365,85.90625 C100.676365,85.2031215 100.910738,84.6523457 101.37949,84.2539062 C101.848242,83.8554668 102.402924,83.65625 103.043552,83.65625 C103.793556,83.65625 104.371675,83.8476543 104.777927,84.2304688 C105.184179,84.6132832 105.387302,85.1640589 105.387302,85.8828125 L105.387302,87.546875 C106.934185,84.6874857 109.574784,83.2578125 113.309177,83.2578125 C114.934185,83.2578125 116.395108,83.5898404 117.69199,84.2539062 C118.988871,84.9179721 120.047454,85.8164006 120.867771,86.9492188 C121.688088,88.0820369 122.316988,89.3710865 122.75449,90.8164062 C123.191992,92.261726 123.41074,93.8046793 123.41074,95.4453125 C123.41074,98.94533 122.473249,101.808583 120.59824,104.035156 C118.72323,106.26173 116.176381,107.375 112.957615,107.375 C109.426347,107.375 106.902935,106.000014 105.387302,103.25 L105.387302,113.726562 C105.387302,114.414066 105.15293,114.953123 104.684177,115.34375 C104.215425,115.734377 103.660743,115.929688 103.020115,115.929688 Z M112.184177,104.164062 C113.137307,104.164062 113.992767,103.988283 114.750584,103.636719 C115.5084,103.285154 116.129487,102.824222 116.613865,102.253906 C117.098242,101.683591 117.500582,101.011723 117.820896,100.238281 C118.14121,99.4648399 118.36777,98.6796915 118.500584,97.8828125 C118.633397,97.0859335 118.699802,96.2578168 118.699802,95.3984375 C118.699802,94.3515573 118.594335,93.3398486 118.383396,92.3632812 C118.172458,91.3867139 117.84043,90.4414108 117.387302,89.5273438 C116.934175,88.6132767 116.274025,87.8750028 115.406834,87.3125 C114.539642,86.7499972 113.520121,86.46875 112.34824,86.46875 C111.051358,86.46875 109.945901,86.6835916 109.031834,87.1132812 C108.117767,87.5429709 107.40293,88.1640584 106.887302,88.9765625 C106.371675,89.7890666 105.996679,90.7187448 105.762302,91.765625 C105.527926,92.8125052 105.41074,94.0234306 105.41074,95.3984375 C105.41074,96.304692 105.484958,97.1718709 105.633396,98 C105.781834,98.8281291 106.031832,99.62109 106.383396,100.378906 C106.73496,101.136723 107.164644,101.792966 107.672459,102.347656 C108.180274,102.902347 108.820892,103.343748 109.594334,103.671875 C110.367775,104.000002 111.231048,104.164062 112.184177,104.164062 Z M153.738573,107.515625 C148.816673,107.515625 144.8714,106.195326 141.902636,103.554688 C141.79326,103.460937 141.715136,103.347657 141.668261,103.214844 C141.621385,103.082031 141.597948,102.937501 141.597948,102.78125 C141.597948,102.203122 141.855758,101.601566 142.371386,100.976562 C142.887013,100.351559 143.410445,100.039062 143.941698,100.039062 C144.051074,100.039062 144.152635,100.054687 144.246386,100.085938 C144.340136,100.117188 144.433885,100.164062 144.527636,100.226562 C147.34015,102.257823 150.457306,103.273438 153.879198,103.273438 C156.097959,103.273438 157.906535,102.843754 159.304979,101.984375 C160.703424,101.124996 161.402636,99.8750082 161.402636,98.234375 C161.402636,96.7812427 161.015921,95.6796913 160.242479,94.9296875 C159.469038,94.1796837 158.16827,93.500003 156.340136,92.890625 L149.215136,90.5234375 C146.683873,89.6796833 144.816704,88.5976629 143.613573,87.2773438 C142.410442,85.9570246 141.808886,84.1640738 141.808886,81.8984375 C141.808886,80.0234281 142.351849,78.3828195 143.437792,76.9765625 C144.523735,75.5703055 145.984658,74.5117223 147.820604,73.8007812 C149.656551,73.0898402 151.730749,72.734375 154.043261,72.734375 C156.277647,72.734375 158.41825,73.0820278 160.465136,73.7773438 C162.512021,74.4726597 164.082318,75.2968702 165.176073,76.25 C165.5667,76.5781266 165.762011,77.0078098 165.762011,77.5390625 C165.762011,78.0859402 165.5667,78.582029 165.176073,79.0273438 C164.785446,79.4726585 164.308888,79.6953125 163.746386,79.6953125 C163.387009,79.6953125 163.027637,79.5859386 162.668261,79.3671875 C160.011997,77.7734295 157.269837,76.9765625 154.441698,76.9765625 C152.176062,76.9765625 150.359674,77.3671836 148.992479,78.1484375 C147.625285,78.9296914 146.941698,80.1171795 146.941698,81.7109375 C146.941698,82.8515682 147.262007,83.7656216 147.902636,84.453125 C148.543264,85.1406284 149.551066,85.7031228 150.926073,86.140625 L158.027636,88.4375 C159.449518,88.9062523 160.648724,89.3906225 161.625292,89.890625 C162.601859,90.3906275 163.484663,90.9999964 164.273729,91.71875 C165.062796,92.4375036 165.648727,93.2929638 166.031542,94.2851562 C166.414356,95.2773487 166.605761,96.4218685 166.605761,97.71875 C166.605761,99.7656352 166.074516,101.531243 165.012011,103.015625 C163.949505,104.500007 162.453426,105.62109 160.523729,106.378906 C158.594032,107.136723 156.332336,107.515625 153.738573,107.515625 Z M182.730615,107.375 C179.261847,107.34375 176.437657,106.238292 174.257958,104.058594 C172.07826,101.878895 170.988427,98.9140812 170.988427,95.1640625 C170.988427,93.5703045 171.242331,92.0625071 171.750146,90.640625 C172.257961,89.2187429 172.98061,87.9570368 173.918115,86.8554688 C174.855619,85.7539007 176.047014,84.8789095 177.492333,84.2304688 C178.937653,83.582028 180.543106,83.2578125 182.30874,83.2578125 C184.105624,83.2578125 185.695451,83.562497 187.078271,84.171875 C188.46109,84.781253 189.562642,85.6171822 190.382958,86.6796875 C191.203275,87.7421928 191.828269,88.9335871 192.257958,90.2539062 C192.687648,91.5742254 192.918114,93.0156172 192.949365,94.578125 C192.949365,95.0937526 192.824366,95.5156234 192.574365,95.84375 C192.324363,96.1718766 191.949367,96.3359375 191.449365,96.3359375 L175.74624,96.3359375 C175.80874,98.9297005 176.504046,100.859369 177.832177,102.125 C179.160309,103.390631 180.902479,104.039062 183.05874,104.070312 C184.339996,104.070312 185.511859,103.832034 186.574365,103.355469 C187.63687,102.878904 188.722797,102.234379 189.832177,101.421875 C189.988428,101.312499 190.14077,101.230469 190.289208,101.175781 C190.437647,101.121093 190.589989,101.09375 190.74624,101.09375 C191.011866,101.09375 191.257957,101.167968 191.484521,101.316406 C191.711085,101.464844 191.89077,101.664061 192.023583,101.914062 C192.156397,102.164064 192.222802,102.429686 192.222802,102.710938 C192.222802,102.976564 192.164209,103.234374 192.047021,103.484375 C191.929833,103.734376 191.746241,103.960936 191.49624,104.164062 C189.074353,106.304698 186.152507,107.375 182.730615,107.375 Z M175.793115,93.4765625 L188.87124,93.4765625 C188.730614,91.4453023 188.13687,89.7695379 187.08999,88.4492188 C186.043109,87.1288996 184.519687,86.46875 182.519677,86.46875 C181.488422,86.46875 180.550931,86.6679668 179.707177,87.0664062 C178.863423,87.4648457 178.172024,88.0039029 177.632958,88.6835938 C177.093893,89.3632846 176.672022,90.1093709 176.367333,90.921875 C176.062644,91.7343791 175.87124,92.585933 175.793115,93.4765625 Z M208.019531,107.375 C205.73827,107.375 203.730477,106.832037 201.996094,105.746094 C200.26171,104.660151 198.949223,103.20704 198.058594,101.386719 C197.167964,99.5663971 196.722656,97.5390737 196.722656,95.3046875 C196.722656,93.0859264 197.191402,91.0664154 198.128906,89.2460938 C199.066411,87.4257721 200.421866,85.9726617 202.195313,84.8867188 C203.968759,83.8007758 206.003895,83.2578125 208.300781,83.2578125 C209.675788,83.2578125 210.921869,83.4414044 212.039063,83.8085938 C213.156256,84.1757831 214.05859,84.6171849 214.746094,85.1328125 C215.339847,85.5703147 215.636719,86.0624973 215.636719,86.609375 C215.636719,86.8593762 215.570313,87.0898427 215.4375,87.3007812 C215.304687,87.5117198 215.125001,87.6757807 214.898438,87.7929688 C214.671874,87.9101568 214.41797,87.96875 214.136719,87.96875 C213.792967,87.96875 213.457033,87.8750009 213.128906,87.6875 C211.769524,86.8593709 210.261727,86.4453125 208.605469,86.4453125 C206.433583,86.4453125 204.695319,87.2538982 203.390625,88.8710938 C202.085931,90.4882893 201.433594,92.6406116 201.433594,95.328125 C201.433594,96.9687582 201.683591,98.4453059 202.183594,99.7578125 C202.683596,101.070319 203.468745,102.132808 204.539063,102.945312 C205.60938,103.757817 206.886711,104.164062 208.371094,104.164062 C210.433604,104.164062 212.144524,103.687505 213.503906,102.734375 C213.675782,102.609374 213.851562,102.519532 214.03125,102.464844 C214.210938,102.410156 214.386718,102.382812 214.558594,102.382812 C214.76172,102.382812 214.949218,102.417968 215.121094,102.488281 C215.29297,102.558594 215.445312,102.656249 215.578125,102.78125 C215.710938,102.906251 215.8125,103.058593 215.882813,103.238281 C215.953125,103.41797 215.988281,103.601562 215.988281,103.789062 C215.988281,104.039064 215.921876,104.296874 215.789063,104.5625 C215.656249,104.828126 215.44922,105.078124 215.167969,105.3125 C213.51171,106.687507 211.128922,107.375 208.019531,107.375 Z M228.855323,107.375 C226.35531,107.375 224.320174,106.621101 222.749854,105.113281 C221.179534,103.605461 220.394385,101.343765 220.394385,98.328125 L220.394385,85.90625 C220.394385,85.1874964 220.628758,84.6289082 221.09751,84.2304688 C221.566263,83.8320293 222.120945,83.6328125 222.761573,83.6328125 C223.402201,83.6328125 223.952977,83.8320293 224.413917,84.2304688 C224.874856,84.6289082 225.105323,85.1874964 225.105323,85.90625 L225.105323,98.375 C225.105323,100.265634 225.550631,101.70312 226.44126,102.6875 C227.33189,103.67188 228.550628,104.164062 230.09751,104.164062 C231.847519,104.164062 233.335785,103.515631 234.562354,102.21875 C235.788923,100.921869 236.433448,99.1875109 236.495948,97.015625 L236.495948,85.90625 C236.495948,85.1874964 236.730321,84.6289082 237.199073,84.2304688 C237.667825,83.8320293 238.23032,83.6328125 238.886573,83.6328125 C239.527201,83.6328125 240.077977,83.8320293 240.538917,84.2304688 C240.999856,84.6289082 241.230323,85.1874964 241.230323,85.90625 L241.230323,104.773438 C241.230323,105.476566 240.99595,106.023436 240.527198,106.414062 C240.058446,106.804689 239.495951,107 238.839698,107 C238.19907,107 237.648294,106.812502 237.187354,106.4375 C236.726414,106.062498 236.495948,105.539066 236.495948,104.867188 L236.495948,103.179688 C235.870945,104.523444 234.88658,105.55859 233.542823,106.285156 C232.199066,107.011722 230.636582,107.375 228.855323,107.375 Z M250.300489,107 C249.659861,107 249.112992,106.808596 248.659864,106.425781 C248.206737,106.042967 247.980177,105.492191 247.980177,104.773438 L247.980177,85.8359375 C247.980177,85.1484341 248.218456,84.6132832 248.695021,84.2304688 C249.171586,83.8476543 249.730174,83.65625 250.370802,83.65625 C250.620803,83.65625 250.859082,83.6835935 251.085646,83.7382812 C251.312209,83.792969 251.523145,83.8789057 251.718458,83.9960938 C251.913772,84.1132818 252.085645,84.2499992 252.234083,84.40625 C252.382521,84.5625008 252.499708,84.7539051 252.585646,84.9804688 C252.671584,85.2070324 252.714552,85.4531237 252.714552,85.71875 L252.667677,88.6015625 C253.058304,87.1484302 253.851265,85.9296924 255.046583,84.9453125 C256.241902,83.9609326 257.628607,83.46875 259.206739,83.46875 C259.769242,83.46875 260.206738,83.671873 260.519239,84.078125 C260.831741,84.484377 260.987989,84.9687472 260.987989,85.53125 C260.987989,86.0468776 260.847366,86.4921856 260.566114,86.8671875 C260.284863,87.2421894 259.88643,87.4296875 259.370802,87.4296875 C257.292667,87.4296875 255.663777,87.9140577 254.484083,88.8828125 C253.30439,89.8515673 252.714552,91.3281151 252.714552,93.3125 L252.714552,104.773438 C252.714552,105.476566 252.472367,106.023436 251.987989,106.414062 C251.503612,106.804689 250.941118,107 250.300489,107 Z M267.714406,107 C267.058153,107 266.503471,106.796877 266.050344,106.390625 C265.597216,105.984373 265.370656,105.398441 265.370656,104.632812 L265.370656,86 C265.370656,85.2656213 265.608935,84.6875021 266.0855,84.265625 C266.562065,83.8437479 267.120653,83.6328125 267.761281,83.6328125 C268.386284,83.6328125 268.933154,83.8437479 269.401906,84.265625 C269.870658,84.6875021 270.105031,85.2656213 270.105031,86 L270.105031,104.632812 C270.105031,105.367191 269.866752,105.94531 269.390187,106.367188 C268.913622,106.789065 268.355034,107 267.714406,107 Z M267.737844,78.5 C266.862839,78.5 266.151909,78.2460963 265.605031,77.7382812 C265.058153,77.2304662 264.784719,76.5625041 264.784719,75.734375 C264.784719,74.9062459 265.058153,74.2343776 265.605031,73.71875 C266.151909,73.2031224 266.870652,72.9453125 267.761281,72.9453125 C268.636285,72.9453125 269.339403,73.2031224 269.870656,73.71875 C270.401909,74.2343776 270.667531,74.9062459 270.667531,75.734375 C270.667531,76.5625041 270.398002,77.2304662 269.858937,77.7382812 C269.319872,78.2460963 268.612848,78.5 267.737844,78.5 Z M284.565823,107.28125 C282.659563,107.28125 281.151766,106.679694 280.042385,105.476562 C278.933005,104.273431 278.378323,102.507824 278.378323,100.179688 L278.378323,86.9375 L275.659573,86.9375 C275.09707,86.9375 274.667387,86.7929702 274.37051,86.5039062 C274.073634,86.2148423 273.925198,85.8437523 273.925198,85.390625 C273.925198,84.9374977 274.069727,84.5703139 274.358791,84.2890625 C274.647855,84.0078111 275.073632,83.8671875 275.636135,83.8671875 L278.378323,83.8671875 L279.011135,77.375 C279.089261,76.781247 279.343164,76.2890645 279.772854,75.8984375 C280.202544,75.5078105 280.72207,75.3125 281.331448,75.3125 C281.847075,75.3125 282.272852,75.4687484 282.608791,75.78125 C282.944731,76.0937516 283.112698,76.5546845 283.112698,77.1640625 L283.112698,83.8671875 L287.30801,83.8671875 C287.870513,83.8671875 288.292384,84.0156235 288.573635,84.3125 C288.854887,84.6093765 288.99551,84.9843727 288.99551,85.4375 C288.99551,85.8906273 288.854887,86.2539049 288.573635,86.5273438 C288.292384,86.8007826 287.870513,86.9375 287.30801,86.9375 L283.112698,86.9375 L283.112698,99.1953125 C283.112698,100.69532 283.323633,101.804684 283.74551,102.523438 C284.167387,103.242191 284.85488,103.601562 285.80801,103.601562 L286.042385,103.601562 L287.706448,103.507812 L287.847073,103.507812 C288.425201,103.507812 288.882227,103.691404 289.218166,104.058594 C289.554106,104.425783 289.722073,104.85156 289.722073,105.335938 C289.722073,105.585939 289.683011,105.812499 289.604885,106.015625 C289.52676,106.218751 289.425198,106.386718 289.300198,106.519531 C289.175197,106.652344 289.00723,106.765625 288.796291,106.859375 C288.585353,106.953125 288.378324,107.027343 288.175198,107.082031 C287.972072,107.136719 287.718168,107.179687 287.413479,107.210938 C287.10879,107.242188 286.831449,107.261719 286.581448,107.269531 C286.331446,107.277344 286.034574,107.28125 285.690823,107.28125 L284.565823,107.28125 Z M300.948489,115.179688 C300.510987,116.070317 299.846931,116.515625 298.956302,116.515625 C298.362549,116.515625 297.831304,116.308596 297.362552,115.894531 C296.893799,115.480467 296.659427,114.984378 296.659427,114.40625 C296.659427,114.078123 296.737551,113.750002 296.893802,113.421875 L301.323489,104.234375 L292.745364,86.984375 C292.573488,86.6406233 292.487552,86.2968767 292.487552,85.953125 C292.487552,85.359372 292.725831,84.8515646 293.202396,84.4296875 C293.67896,84.0078104 294.221924,83.796875 294.831302,83.796875 C295.096928,83.796875 295.350832,83.8437495 295.593021,83.9375 C295.835209,84.0312505 296.069582,84.1874989 296.296146,84.40625 C296.522709,84.6250011 296.714113,84.8906234 296.870364,85.203125 L303.690677,99.3359375 L310.604739,85.015625 C310.839115,84.5312476 311.139894,84.1718762 311.507083,83.9375 C311.874272,83.7031238 312.260987,83.5859375 312.667239,83.5859375 C313.276617,83.5859375 313.811768,83.7929667 314.272708,84.2070312 C314.733648,84.6210958 314.964114,85.124997 314.964114,85.71875 C314.964114,86.0468766 314.88599,86.3671859 314.729739,86.6796875 L300.948489,115.179688 Z" id="SonicWall-Cloud-App"></path>
            </g>
        </g>
    </g>
</svg>