<?xml version="1.0" encoding="UTF-8" standalone="no"?>
<!DOCTYPE svg PUBLIC "-//W3C//DTD SVG 1.1//EN" "http://www.w3.org/Graphics/SVG/1.1/DTD/svg11.dtd">
<svg width="100%" height="100%" viewBox="0 0 450 390" version="1.1" xmlns="http://www.w3.org/2000/svg" xmlns:xlink="http://www.w3.org/1999/xlink" xml:space="preserve" xmlns:serif="http://www.serif.com/" style="fill-rule:evenodd;clip-rule:evenodd;stroke-miterlimit:10;">
    <g id="g16" transform="matrix(0.133333,0,0,-0.133333,0,390.12)">
        <clipPath id="_clip1">
            <rect x="0" y="-19018.5" width="25339.2" height="21944.4"/>
        </clipPath>
        <g clip-path="url(#_clip1)">
            <path id="path22" d="M3309.28,2885.92L1689.28,80L69.281,2885.92L3309.28,2885.92" style="fill:white;fill-rule:nonzero;"/>
            <path id="path24" d="M3309.28,2885.92L1689.28,80L69.281,2885.92L3309.28,2885.92Z" style="fill:none;stroke:rgb(37,36,39);stroke-width:80px;"/>
            <path id="path26" d="M3108.21,2768.51L1689.28,310.871L270.359,2768.51L3108.21,2768.51" style="fill:rgb(37,36,39);fill-rule:nonzero;"/>
            <rect id="path28" x="700.945" y="1047.44" width="1976.68" height="425.301" style="fill:white;fill-rule:nonzero;"/>
            <path id="path30" d="M3192.37,2814.57L196.191,2814.57L652.512,2026.16L2736.05,2026.16L3192.37,2814.57" style="fill:white;fill-rule:nonzero;"/>
            <g id="g32" transform="matrix(6.727,0,0,10,223.347,0)">
                <g id="text36" transform="matrix(0.94,0,0,-1,78.4546,113.285)">
                    <path d="M3.252,0L3.252,-26.016L12.99,-26.016C18.275,-26.016 20.918,-23.865 20.918,-19.564C20.918,-17.959 20.47,-16.497 19.573,-15.179C18.677,-13.86 17.443,-12.85 15.873,-12.146L24.381,0L17.789,0L11.338,-10.635L8.35,-10.635L8.35,0L3.252,0ZM8.35,-14.203L9.598,-14.203C13.523,-14.203 15.486,-15.791 15.486,-18.967C15.486,-21.287 13.734,-22.447 10.23,-22.447L8.35,-22.447L8.35,-14.203Z" style="fill:rgb(48,113,187);fill-rule:nonzero;"/>
                    <path d="M28.09,0L28.09,-26.016L44.35,-26.016L44.35,-22.447L33.504,-22.447L33.504,-15.188L42.398,-15.188L42.398,-11.707L33.504,-11.707L33.504,-3.691L45.176,-3.691L45.176,0L28.09,0Z" style="fill:rgb(48,113,187);fill-rule:nonzero;"/>
                    <path d="M70.646,-1.037C68.127,0.088 65.121,0.65 61.629,0.65C57.363,0.65 54.041,-0.551 51.662,-2.953C49.283,-5.355 48.094,-8.707 48.094,-13.008C48.094,-17.391 49.292,-20.763 51.688,-23.124C54.085,-25.485 57.504,-26.666 61.945,-26.666C64.781,-26.666 67.6,-26.332 70.4,-25.664L70.4,-21.428C67.225,-22.541 64.564,-23.098 62.42,-23.098C59.678,-23.098 57.563,-22.228 56.074,-20.487C54.586,-18.747 53.842,-16.277 53.842,-13.078C53.842,-9.938 54.642,-7.488 56.241,-5.73C57.841,-3.973 60.064,-3.094 62.912,-3.094C65.467,-3.094 68.045,-3.738 70.646,-5.027L70.646,-1.037Z" style="fill:rgb(48,113,187);fill-rule:nonzero;"/>
                    <path d="M86.766,0.65C82.816,0.65 79.658,-0.592 77.291,-3.076C74.924,-5.561 73.74,-8.871 73.74,-13.008C73.74,-17.191 74.93,-20.514 77.309,-22.975C79.688,-25.436 82.898,-26.666 86.941,-26.666C90.961,-26.666 94.163,-25.436 96.548,-22.975C98.933,-20.514 100.125,-17.209 100.125,-13.061C100.125,-8.818 98.933,-5.473 96.548,-3.023C94.163,-0.574 90.902,0.65 86.766,0.65ZM86.836,-2.936C89.156,-2.936 90.993,-3.847 92.347,-5.669C93.7,-7.491 94.377,-9.961 94.377,-13.078C94.377,-16.102 93.697,-18.527 92.338,-20.355C90.979,-22.184 89.18,-23.098 86.941,-23.098C84.68,-23.098 82.872,-22.184 81.519,-20.355C80.165,-18.527 79.488,-16.084 79.488,-13.025C79.488,-9.99 80.162,-7.55 81.51,-5.704C82.857,-3.858 84.633,-2.936 86.836,-2.936Z" style="fill:rgb(48,113,187);fill-rule:nonzero;"/>
                    <path d="M104.994,0L104.994,-26.016L112.166,-26.016L118.424,-7.717L124.875,-26.016L131.168,-26.016L131.168,0L126.176,0L126.176,-19.635L119.83,-1.74L115.471,-1.74L109.248,-19.898L109.248,0L104.994,0Z" style="fill:rgb(48,113,187);fill-rule:nonzero;"/>
                    <path d="M137.672,0L137.672,-26.016L144.844,-26.016L151.102,-7.717L157.553,-26.016L163.846,-26.016L163.846,0L158.854,0L158.854,-19.635L152.508,-1.74L148.148,-1.74L141.926,-19.898L141.926,0L137.672,0Z" style="fill:rgb(48,113,187);fill-rule:nonzero;"/>
                    <path d="M170.35,0L170.35,-26.016L186.609,-26.016L186.609,-22.447L175.764,-22.447L175.764,-15.188L184.658,-15.188L184.658,-11.707L175.764,-11.707L175.764,-3.691L187.436,-3.691L187.436,0L170.35,0Z" style="fill:rgb(48,113,187);fill-rule:nonzero;"/>
                    <path d="M191.971,0L191.971,-26.016L196.734,-26.016L208.793,-8.244L208.793,-26.016L213.135,-26.016L213.135,0L208.283,0L196.313,-17.771L196.313,0L191.971,0Z" style="fill:rgb(48,113,187);fill-rule:nonzero;"/>
                    <path d="M219.639,0L219.639,-26.016L230.836,-26.016C234.867,-26.016 237.955,-24.946 240.1,-22.808C242.244,-20.669 243.316,-17.584 243.316,-13.553C243.316,-9.264 242.18,-5.933 239.906,-3.56C237.633,-1.187 234.451,0 230.361,0L219.639,0ZM225.053,-3.691L229.096,-3.691C231.943,-3.691 234.067,-4.479 235.468,-6.056C236.868,-7.632 237.568,-10.025 237.568,-13.236C237.568,-15.721 237.006,-17.789 235.881,-19.441C235.107,-20.578 234.176,-21.363 233.086,-21.797C231.996,-22.23 230.408,-22.447 228.322,-22.447L225.053,-22.447L225.053,-3.691Z" style="fill:rgb(48,113,187);fill-rule:nonzero;"/>
                    <path d="M248.186,0L248.186,-26.016L264.445,-26.016L264.445,-22.447L253.6,-22.447L253.6,-15.188L262.494,-15.188L262.494,-11.707L253.6,-11.707L253.6,-3.691L265.271,-3.691L265.271,0L248.186,0Z" style="fill:rgb(48,113,187);fill-rule:nonzero;"/>
                    <path d="M269.807,0L269.807,-26.016L281.004,-26.016C285.035,-26.016 288.123,-24.946 290.268,-22.808C292.412,-20.669 293.484,-17.584 293.484,-13.553C293.484,-9.264 292.348,-5.933 290.074,-3.56C287.801,-1.187 284.619,0 280.529,0L269.807,0ZM275.221,-3.691L279.264,-3.691C282.111,-3.691 284.235,-4.479 285.636,-6.056C287.036,-7.632 287.736,-10.025 287.736,-13.236C287.736,-15.721 287.174,-17.789 286.049,-19.441C285.275,-20.578 284.344,-21.363 283.254,-21.797C282.164,-22.23 280.576,-22.447 278.49,-22.447L275.221,-22.447L275.221,-3.691Z" style="fill:rgb(48,113,187);fill-rule:nonzero;"/>
                </g>
                <g id="text40" transform="matrix(1,0,0,-1,90.4177,213.054)">
                    <path d="M1.679,0L1.679,-13.008L3.489,-13.008L10.037,-2.962L10.037,-13.008L11.619,-13.008L11.619,0L9.817,0L3.261,-10.046L3.261,0L1.679,0Z" style="fill:rgb(48,113,187);fill-rule:nonzero;"/>
                    <path d="M14.977,0L14.977,-13.008L22.245,-13.008L22.245,-11.628L16.822,-11.628L16.822,-7.453L21.366,-7.453L21.366,-6.091L16.822,-6.091L16.822,-1.38L22.623,-1.38L22.623,0L14.977,0Z" style="fill:rgb(48,113,187);fill-rule:nonzero;"/>
                    <path d="M23.194,0L27.51,-6.53L23.405,-13.008L25.585,-13.008L28.714,-8.104L32.001,-13.008L33.741,-13.008L29.584,-6.724L33.847,0L31.667,0L28.362,-5.159L24.943,0L23.194,0Z" style="fill:rgb(48,113,187);fill-rule:nonzero;"/>
                    <path d="M39.094,0L39.094,-11.628L34.479,-11.628L34.479,-13.008L45.554,-13.008L45.554,-11.628L40.939,-11.628L40.939,0L39.094,0Z" style="fill:rgb(48,113,187);fill-rule:nonzero;"/>
                    <path d="M62.851,-0.352C61.274,0.1 59.9,0.325 58.729,0.325C56.66,0.325 55.074,-0.264 53.969,-1.441C52.865,-2.619 52.313,-4.307 52.313,-6.504C52.313,-8.66 52.872,-10.337 53.991,-11.536C55.11,-12.734 56.681,-13.333 58.702,-13.333C60.026,-13.333 61.403,-13.137 62.833,-12.744L62.833,-11.039C61.04,-11.648 59.666,-11.953 58.711,-11.953C57.305,-11.953 56.213,-11.476 55.437,-10.521C54.661,-9.565 54.272,-8.221 54.272,-6.486C54.272,-4.77 54.688,-3.435 55.521,-2.483C56.353,-1.531 57.519,-1.055 59.019,-1.055C59.634,-1.055 60.299,-1.163 61.014,-1.38L61.014,-5.616L62.851,-5.616L62.851,-0.352Z" style="fill:rgb(48,113,187);fill-rule:nonzero;"/>
                    <path d="M66.085,0L66.085,-13.008L73.354,-13.008L73.354,-11.628L67.931,-11.628L67.931,-7.453L72.475,-7.453L72.475,-6.091L67.931,-6.091L67.931,-1.38L73.731,-1.38L73.731,0L66.085,0Z" style="fill:rgb(48,113,187);fill-rule:nonzero;"/>
                    <path d="M75.841,0L75.841,-13.008L77.651,-13.008L84.199,-2.962L84.199,-13.008L85.781,-13.008L85.781,0L83.979,0L77.423,-10.046L77.423,0L75.841,0Z" style="fill:rgb(48,113,187);fill-rule:nonzero;"/>
                    <path d="M89.139,0L89.139,-13.008L96.407,-13.008L96.407,-11.628L90.984,-11.628L90.984,-7.453L95.528,-7.453L95.528,-6.091L90.984,-6.091L90.984,-1.38L96.785,-1.38L96.785,0L89.139,0Z" style="fill:rgb(48,113,187);fill-rule:nonzero;"/>
                    <path d="M98.895,0L98.895,-13.008L102.832,-13.008C104.08,-13.008 105.037,-12.732 105.702,-12.182C106.367,-11.631 106.699,-10.831 106.699,-9.782C106.699,-8.048 105.823,-6.817 104.071,-6.091L108.413,0L106.146,0L102.445,-5.502L100.723,-5.502L100.723,0L98.895,0ZM100.723,-6.882L101.32,-6.882C103.641,-6.882 104.801,-7.793 104.801,-9.615C104.801,-10.957 103.828,-11.628 101.883,-11.628L100.723,-11.628L100.723,-6.882Z" style="fill:rgb(48,113,187);fill-rule:nonzero;"/>
                    <path d="M116.868,-4.975L114.653,-10.582L112.43,-4.975L116.868,-4.975ZM118.819,0L117.404,-3.604L111.894,-3.604L110.461,0L108.747,0L113.906,-13.008L115.734,-13.008L120.814,0L118.819,0Z" style="fill:rgb(48,113,187);fill-rule:nonzero;"/>
                    <path d="M125.789,0L125.789,-11.628L121.175,-11.628L121.175,-13.008L132.249,-13.008L132.249,-11.628L127.635,-11.628L127.635,0L125.789,0Z" style="fill:rgb(48,113,187);fill-rule:nonzero;"/>
                    <rect x="134.068" y="-13.008" width="1.846" height="13.008" style="fill:rgb(48,113,187);fill-rule:nonzero;"/>
                    <path d="M144.501,0.325C142.696,0.325 141.245,-0.3 140.146,-1.551C139.047,-2.802 138.498,-4.456 138.498,-6.513C138.498,-8.581 139.05,-10.235 140.155,-11.474C141.259,-12.713 142.734,-13.333 144.58,-13.333C146.42,-13.333 147.894,-12.715 149.001,-11.479C150.108,-10.242 150.662,-8.593 150.662,-6.53C150.662,-4.427 150.108,-2.758 149.001,-1.525C147.894,-0.292 146.394,0.325 144.501,0.325ZM144.527,-1.055C145.857,-1.055 146.886,-1.534 147.612,-2.492C148.339,-3.45 148.702,-4.802 148.702,-6.548C148.702,-8.241 148.337,-9.565 147.608,-10.521C146.878,-11.476 145.869,-11.953 144.58,-11.953C143.285,-11.953 142.274,-11.474 141.548,-10.516C140.821,-9.558 140.458,-8.227 140.458,-6.521C140.458,-4.822 140.818,-3.486 141.539,-2.514C142.26,-1.541 143.256,-1.055 144.527,-1.055Z" style="fill:rgb(48,113,187);fill-rule:nonzero;"/>
                    <path d="M153.246,0L153.246,-13.008L155.057,-13.008L161.604,-2.962L161.604,-13.008L163.187,-13.008L163.187,0L161.385,0L154.828,-10.046L154.828,0L153.246,0Z" style="fill:rgb(48,113,187);fill-rule:nonzero;"/>
                    <path d="M172.239,0L172.239,-13.008L179.508,-13.008L179.508,-11.628L174.085,-11.628L174.085,-7.269L178.638,-7.269L178.638,-5.906L174.085,-5.906L174.085,0L172.239,0Z" style="fill:rgb(48,113,187);fill-rule:nonzero;"/>
                    <rect x="181.881" y="-13.008" width="1.846" height="13.008" style="fill:rgb(48,113,187);fill-rule:nonzero;"/>
                    <path d="M187.075,0L187.075,-13.008L191.013,-13.008C192.261,-13.008 193.217,-12.732 193.882,-12.182C194.547,-11.631 194.88,-10.831 194.88,-9.782C194.88,-8.048 194.004,-6.817 192.252,-6.091L196.594,0L194.326,0L190.626,-5.502L188.903,-5.502L188.903,0L187.075,0ZM188.903,-6.882L189.501,-6.882C191.821,-6.882 192.981,-7.793 192.981,-9.615C192.981,-10.957 192.009,-11.628 190.063,-11.628L188.903,-11.628L188.903,-6.882Z" style="fill:rgb(48,113,187);fill-rule:nonzero;"/>
                    <path d="M198.457,0L198.457,-13.008L205.726,-13.008L205.726,-11.628L200.303,-11.628L200.303,-7.453L204.847,-7.453L204.847,-6.091L200.303,-6.091L200.303,-1.38L206.104,-1.38L206.104,0L198.457,0Z" style="fill:rgb(48,113,187);fill-rule:nonzero;"/>
                    <path d="M209.9,0L206.552,-13.008L208.327,-13.008L210.99,-2.733L213.442,-13.008L215.218,-13.008L217.538,-2.874L220.403,-13.008L221.906,-13.008L218.259,0L216.422,0L214.128,-10.028L211.729,0L209.9,0Z" style="fill:rgb(48,113,187);fill-rule:nonzero;"/>
                    <path d="M230.203,-4.975L227.988,-10.582L225.765,-4.975L230.203,-4.975ZM232.154,0L230.739,-3.604L225.229,-3.604L223.796,0L222.082,0L227.241,-13.008L229.069,-13.008L234.149,0L232.154,0Z" style="fill:rgb(48,113,187);fill-rule:nonzero;"/>
                    <path d="M236.03,0L236.03,-13.008L237.876,-13.008L237.876,-1.38L243.729,-1.38L243.729,0L236.03,0Z" style="fill:rgb(48,113,187);fill-rule:nonzero;"/>
                    <path d="M245.628,0L245.628,-13.008L247.474,-13.008L247.474,-1.38L253.327,-1.38L253.327,0L245.628,0Z" style="fill:rgb(48,113,187);fill-rule:nonzero;"/>
                </g>
                <g id="text44" transform="matrix(1,0,0,-1,66.6995,237.16)">
                    <path d="M1.265,0L1.265,-10.117L3.117,-10.117L7.807,-3.206L7.807,-10.117L9.495,-10.117L9.495,0L7.608,0L2.953,-6.911L2.953,0L1.265,0Z" style="fill:rgb(48,113,187);fill-rule:nonzero;"/>
                    <path d="M11.457,-0.089L11.457,-1.825C12.546,-1.369 13.478,-1.142 14.253,-1.142C14.795,-1.142 15.222,-1.262 15.535,-1.504C15.847,-1.745 16.003,-2.074 16.003,-2.488C16.003,-2.816 15.905,-3.093 15.709,-3.319C15.513,-3.544 15.142,-3.812 14.595,-4.122L13.918,-4.498C13.011,-5.008 12.371,-5.497 11.997,-5.964C11.623,-6.431 11.437,-6.977 11.437,-7.602C11.437,-8.436 11.743,-9.105 12.356,-9.611C12.969,-10.117 13.779,-10.37 14.786,-10.37C15.593,-10.37 16.502,-10.254 17.514,-10.021L17.514,-8.401C16.479,-8.789 15.661,-8.982 15.06,-8.982C14.595,-8.982 14.222,-8.879 13.942,-8.671C13.662,-8.464 13.521,-8.192 13.521,-7.854C13.521,-7.576 13.619,-7.333 13.815,-7.123C14.011,-6.913 14.381,-6.656 14.923,-6.351L15.647,-5.947C16.623,-5.4 17.295,-4.897 17.664,-4.437C18.033,-3.976 18.218,-3.416 18.218,-2.755C18.218,-1.816 17.869,-1.08 17.172,-0.547C16.475,-0.014 15.513,0.253 14.287,0.253C13.476,0.253 12.533,0.139 11.457,-0.089Z" style="fill:rgb(48,113,187);fill-rule:nonzero;"/>
                    <path d="M23.7,-0.807C23.026,-0.155 22.303,0.171 21.533,0.171C20.877,0.171 20.344,-0.03 19.934,-0.431C19.523,-0.832 19.318,-1.351 19.318,-1.989C19.318,-2.819 19.65,-3.458 20.313,-3.907C20.976,-4.356 21.925,-4.58 23.16,-4.58L23.7,-4.58L23.7,-5.264C23.7,-6.043 23.256,-6.433 22.367,-6.433C21.579,-6.433 20.781,-6.209 19.975,-5.763L19.975,-7.157C20.891,-7.504 21.798,-7.677 22.695,-7.677C24.66,-7.677 25.642,-6.895 25.642,-5.332L25.642,-2.01C25.642,-1.422 25.831,-1.128 26.209,-1.128C26.277,-1.128 26.366,-1.137 26.476,-1.155L26.523,-0.021C26.095,0.107 25.717,0.171 25.389,0.171C24.559,0.171 24.026,-0.155 23.789,-0.807L23.7,-0.807ZM23.7,-1.894L23.7,-3.418L23.222,-3.418C21.914,-3.418 21.26,-3.008 21.26,-2.188C21.26,-1.91 21.354,-1.676 21.543,-1.487C21.733,-1.298 21.966,-1.203 22.244,-1.203C22.718,-1.203 23.203,-1.433 23.7,-1.894Z" style="fill:rgb(48,113,187);fill-rule:nonzero;"/>
                    <path d="M32.607,0L32.607,-1.6L32.717,-1.75C33.259,-2.475 33.815,-3.085 34.385,-3.582L35.212,-4.313C36.575,-5.517 37.256,-6.572 37.256,-7.479C37.256,-8.536 36.654,-9.064 35.451,-9.064C34.708,-9.064 33.847,-8.814 32.867,-8.313L32.867,-9.796C33.897,-10.179 34.893,-10.37 35.854,-10.37C36.93,-10.37 37.791,-10.116 38.438,-9.608C39.086,-9.1 39.409,-8.42 39.409,-7.567C39.409,-6.979 39.252,-6.444 38.938,-5.961C38.623,-5.478 38.069,-4.917 37.276,-4.279L36.593,-3.732C35.64,-2.967 35.075,-2.256 34.897,-1.6L39.368,-1.6L39.368,0L32.607,0Z" style="fill:rgb(48,113,187);fill-rule:nonzero;"/>
                    <path d="M43.647,-5.366C44.281,-6.132 45.092,-6.515 46.081,-6.515C46.983,-6.515 47.731,-6.217 48.323,-5.623C48.916,-5.028 49.212,-4.277 49.212,-3.37C49.212,-2.308 48.87,-1.439 48.187,-0.762C47.503,-0.085 46.623,0.253 45.548,0.253C44.29,0.253 43.308,-0.195 42.602,-1.09C41.895,-1.986 41.542,-3.231 41.542,-4.826C41.542,-6.581 41.944,-7.944 42.749,-8.917C43.553,-9.89 44.682,-10.377 46.136,-10.377C46.819,-10.377 47.667,-10.254 48.679,-10.008L48.679,-8.531C47.758,-8.919 46.933,-9.112 46.204,-9.112C45.393,-9.112 44.764,-8.784 44.317,-8.128C43.871,-7.472 43.647,-6.551 43.647,-5.366ZM47.188,-3.035C47.188,-3.723 47.037,-4.268 46.734,-4.669C46.431,-5.07 46.02,-5.271 45.5,-5.271C45.003,-5.271 44.585,-5.088 44.246,-4.724C43.906,-4.359 43.736,-3.908 43.736,-3.37C43.736,-2.664 43.903,-2.094 44.235,-1.661C44.568,-1.228 45.003,-1.012 45.541,-1.012C46.042,-1.012 46.442,-1.195 46.741,-1.562C47.039,-1.929 47.188,-2.42 47.188,-3.035Z" style="fill:rgb(48,113,187);fill-rule:nonzero;"/>
                    <path d="M51.81,-0.041L51.81,-1.511C52.671,-1.178 53.389,-1.012 53.963,-1.012C54.542,-1.012 55.001,-1.184 55.34,-1.528C55.68,-1.872 55.85,-2.338 55.85,-2.926C55.85,-4.375 54.808,-5.1 52.726,-5.1C52.479,-5.1 52.233,-5.079 51.987,-5.038L51.987,-10.117L57.798,-10.117L57.798,-8.518L53.464,-8.518L53.361,-6.337C54.82,-6.337 55.958,-6.038 56.776,-5.441C57.594,-4.844 58.003,-4.01 58.003,-2.939C58.003,-1.951 57.645,-1.171 56.93,-0.602C56.214,-0.032 55.234,0.253 53.99,0.253C53.462,0.253 52.735,0.155 51.81,-0.041Z" style="fill:rgb(48,113,187);fill-rule:nonzero;"/>
                    <path d="M63.882,0.253C62.733,0.253 61.8,-0.239 61.083,-1.224C60.365,-2.208 60.006,-3.486 60.006,-5.059C60.006,-6.649 60.366,-7.932 61.086,-8.907C61.806,-9.882 62.754,-10.37 63.93,-10.37C65.096,-10.37 66.041,-9.884 66.763,-8.911C67.486,-7.938 67.847,-6.663 67.847,-5.086C67.847,-3.468 67.486,-2.174 66.763,-1.203C66.041,-0.232 65.08,0.253 63.882,0.253ZM63.902,-1.012C65.101,-1.012 65.7,-2.361 65.7,-5.059C65.7,-7.757 65.11,-9.105 63.93,-9.105C62.749,-9.105 62.159,-7.759 62.159,-5.065C62.159,-2.363 62.74,-1.012 63.902,-1.012Z" style="fill:rgb(48,113,187);fill-rule:nonzero;"/>
                    <path d="M73.855,-0.089L73.855,-1.825C74.945,-1.369 75.877,-1.142 76.651,-1.142C77.194,-1.142 77.621,-1.262 77.933,-1.504C78.245,-1.745 78.401,-2.074 78.401,-2.488C78.401,-2.816 78.303,-3.093 78.107,-3.319C77.911,-3.544 77.54,-3.812 76.993,-4.122L76.316,-4.498C75.41,-5.008 74.769,-5.497 74.396,-5.964C74.022,-6.431 73.835,-6.977 73.835,-7.602C73.835,-8.436 74.141,-9.105 74.754,-9.611C75.367,-10.117 76.177,-10.37 77.185,-10.37C77.991,-10.37 78.9,-10.254 79.912,-10.021L79.912,-8.401C78.878,-8.789 78.06,-8.982 77.458,-8.982C76.993,-8.982 76.621,-8.879 76.34,-8.671C76.06,-8.464 75.92,-8.192 75.92,-7.854C75.92,-7.576 76.018,-7.333 76.214,-7.123C76.41,-6.913 76.779,-6.656 77.321,-6.351L78.046,-5.947C79.021,-5.4 79.693,-4.897 80.063,-4.437C80.432,-3.976 80.616,-3.416 80.616,-2.755C80.616,-1.816 80.268,-1.08 79.57,-0.547C78.873,-0.014 77.911,0.253 76.686,0.253C75.874,0.253 74.931,0.139 73.855,-0.089Z" style="fill:rgb(48,113,187);fill-rule:nonzero;"/>
                    <path d="M85.572,0.171C84.401,0.171 83.47,-0.183 82.78,-0.892C82.089,-1.601 81.744,-2.554 81.744,-3.753C81.744,-4.965 82.092,-5.922 82.787,-6.624C83.482,-7.326 84.426,-7.677 85.62,-7.677C86.819,-7.677 87.765,-7.326 88.46,-6.624C89.155,-5.922 89.503,-4.97 89.503,-3.767C89.503,-2.536 89.154,-1.572 88.457,-0.875C87.76,-0.178 86.798,0.171 85.572,0.171ZM85.606,-1.094C86.769,-1.094 87.35,-1.985 87.35,-3.767C87.35,-4.582 87.196,-5.227 86.888,-5.701C86.581,-6.175 86.158,-6.412 85.62,-6.412C85.087,-6.412 84.667,-6.175 84.359,-5.701C84.051,-5.227 83.897,-4.578 83.897,-3.753C83.897,-2.937 84.05,-2.29 84.355,-1.812C84.661,-1.333 85.078,-1.094 85.606,-1.094Z" style="fill:rgb(48,113,187);fill-rule:nonzero;"/>
                    <path d="M91.362,0L91.362,-7.506L93.386,-7.506L93.386,-6.091C94.047,-7.148 94.899,-7.677 95.942,-7.677C96.612,-7.677 97.141,-7.465 97.528,-7.041C97.916,-6.617 98.109,-6.038 98.109,-5.305L98.109,0L96.086,0L96.086,-4.806C96.086,-5.658 95.803,-6.084 95.238,-6.084C94.596,-6.084 93.978,-5.631 93.386,-4.724L93.386,0L91.362,0Z" style="fill:rgb(48,113,187);fill-rule:nonzero;"/>
                    <path d="M100.557,0L100.557,-7.506L102.58,-7.506L102.58,0L100.557,0ZM100.557,-8.771L100.557,-10.459L102.58,-10.459L102.58,-8.771L100.557,-8.771Z" style="fill:rgb(48,113,187);fill-rule:nonzero;"/>
                    <path d="M110.646,-0.164C109.808,0.059 109.031,0.171 108.315,0.171C107.117,0.171 106.17,-0.181 105.475,-0.885C104.78,-1.589 104.433,-2.548 104.433,-3.76C104.433,-4.986 104.79,-5.945 105.506,-6.638C106.221,-7.33 107.21,-7.677 108.473,-7.677C109.083,-7.677 109.787,-7.579 110.585,-7.383L110.585,-5.92C109.756,-6.189 109.092,-6.323 108.596,-6.323C107.99,-6.323 107.502,-6.091 107.133,-5.626C106.764,-5.161 106.579,-4.544 106.579,-3.773C106.579,-2.985 106.778,-2.354 107.177,-1.88C107.576,-1.406 108.108,-1.169 108.773,-1.169C109.38,-1.169 110.004,-1.301 110.646,-1.565L110.646,-0.164Z" style="fill:rgb(48,113,187);fill-rule:nonzero;"/>
                    <path d="M116.997,0.253C115.461,0.253 114.233,-0.23 113.313,-1.196C112.392,-2.162 111.932,-3.45 111.932,-5.059C111.932,-6.686 112.394,-7.978 113.319,-8.935C114.244,-9.892 115.493,-10.37 117.065,-10.37C118.629,-10.37 119.874,-9.892 120.801,-8.935C121.729,-7.978 122.192,-6.692 122.192,-5.079C122.192,-3.429 121.729,-2.128 120.801,-1.176C119.874,-0.223 118.606,0.253 116.997,0.253ZM117.024,-1.142C117.927,-1.142 118.641,-1.496 119.167,-2.205C119.694,-2.913 119.957,-3.874 119.957,-5.086C119.957,-6.262 119.693,-7.205 119.164,-7.916C118.635,-8.627 117.936,-8.982 117.065,-8.982C116.186,-8.982 115.483,-8.627 114.957,-7.916C114.43,-7.205 114.167,-6.255 114.167,-5.065C114.167,-3.885 114.429,-2.936 114.953,-2.218C115.477,-1.5 116.168,-1.142 117.024,-1.142Z" style="fill:rgb(48,113,187);fill-rule:nonzero;"/>
                    <path d="M123.519,-0.089L123.519,-1.825C124.608,-1.369 125.54,-1.142 126.314,-1.142C126.857,-1.142 127.284,-1.262 127.596,-1.504C127.908,-1.745 128.064,-2.074 128.064,-2.488C128.064,-2.816 127.966,-3.093 127.771,-3.319C127.575,-3.544 127.203,-3.812 126.656,-4.122L125.979,-4.498C125.073,-5.008 124.432,-5.497 124.059,-5.964C123.685,-6.431 123.498,-6.977 123.498,-7.602C123.498,-8.436 123.805,-9.105 124.417,-9.611C125.03,-10.117 125.84,-10.37 126.848,-10.37C127.654,-10.37 128.563,-10.254 129.575,-10.021L129.575,-8.401C128.541,-8.789 127.723,-8.982 127.121,-8.982C126.656,-8.982 126.284,-8.879 126.003,-8.671C125.723,-8.464 125.583,-8.192 125.583,-7.854C125.583,-7.576 125.681,-7.333 125.877,-7.123C126.073,-6.913 126.442,-6.656 126.984,-6.351L127.709,-5.947C128.684,-5.4 129.356,-4.897 129.726,-4.437C130.095,-3.976 130.279,-3.416 130.279,-2.755C130.279,-1.816 129.931,-1.08 129.233,-0.547C128.536,-0.014 127.575,0.253 126.349,0.253C125.537,0.253 124.594,0.139 123.519,-0.089Z" style="fill:rgb(48,113,187);fill-rule:nonzero;"/>
                    <path d="M136.698,0L136.698,-10.117L143.021,-10.117L143.021,-8.729L138.804,-8.729L138.804,-5.906L142.263,-5.906L142.263,-4.553L138.804,-4.553L138.804,-1.436L143.343,-1.436L143.343,0L136.698,0Z" style="fill:rgb(48,113,187);fill-rule:nonzero;"/>
                    <path d="M145.106,0L145.106,-7.506L147.13,-7.506L147.13,-6.091C147.791,-7.148 148.643,-7.677 149.687,-7.677C150.356,-7.677 150.885,-7.465 151.272,-7.041C151.66,-6.617 151.854,-6.038 151.854,-5.305L151.854,0L149.83,0L149.83,-4.806C149.83,-5.658 149.548,-6.084 148.982,-6.084C148.34,-6.084 147.722,-5.631 147.13,-4.724L147.13,0L145.106,0Z" style="fill:rgb(48,113,187);fill-rule:nonzero;"/>
                    <path d="M154.301,0L154.301,-10.794L156.324,-10.794L156.324,-6.091C156.985,-7.148 157.837,-7.677 158.881,-7.677C159.551,-7.677 160.079,-7.465 160.467,-7.041C160.854,-6.617 161.048,-6.038 161.048,-5.305L161.048,0L159.024,0L159.024,-4.806C159.024,-5.658 158.742,-6.084 158.177,-6.084C157.534,-6.084 156.917,-5.631 156.324,-4.724L156.324,0L154.301,0Z" style="fill:rgb(48,113,187);fill-rule:nonzero;"/>
                    <path d="M167.173,-0.807C166.498,-0.155 165.776,0.171 165.006,0.171C164.35,0.171 163.816,-0.03 163.406,-0.431C162.996,-0.832 162.791,-1.351 162.791,-1.989C162.791,-2.819 163.123,-3.458 163.786,-3.907C164.449,-4.356 165.398,-4.58 166.633,-4.58L167.173,-4.58L167.173,-5.264C167.173,-6.043 166.729,-6.433 165.84,-6.433C165.051,-6.433 164.254,-6.209 163.447,-5.763L163.447,-7.157C164.363,-7.504 165.27,-7.677 166.168,-7.677C168.132,-7.677 169.114,-6.895 169.114,-5.332L169.114,-2.01C169.114,-1.422 169.303,-1.128 169.682,-1.128C169.75,-1.128 169.839,-1.137 169.948,-1.155L169.996,-0.021C169.568,0.107 169.189,0.171 168.861,0.171C168.032,0.171 167.499,-0.155 167.262,-0.807L167.173,-0.807ZM167.173,-1.894L167.173,-3.418L166.694,-3.418C165.386,-3.418 164.732,-3.008 164.732,-2.188C164.732,-1.91 164.827,-1.676 165.016,-1.487C165.205,-1.298 165.439,-1.203 165.717,-1.203C166.191,-1.203 166.676,-1.433 167.173,-1.894Z" style="fill:rgb(48,113,187);fill-rule:nonzero;"/>
                    <path d="M171.726,0L171.726,-7.506L173.749,-7.506L173.749,-6.091C174.41,-7.148 175.262,-7.677 176.306,-7.677C176.976,-7.677 177.504,-7.465 177.892,-7.041C178.279,-6.617 178.473,-6.038 178.473,-5.305L178.473,0L176.449,0L176.449,-4.806C176.449,-5.658 176.167,-6.084 175.602,-6.084C174.959,-6.084 174.341,-5.631 173.749,-4.724L173.749,0L171.726,0Z" style="fill:rgb(48,113,187);fill-rule:nonzero;"/>
                    <path d="M186.457,-0.164C185.618,0.059 184.841,0.171 184.126,0.171C182.927,0.171 181.981,-0.181 181.286,-0.885C180.591,-1.589 180.243,-2.548 180.243,-3.76C180.243,-4.986 180.601,-5.945 181.316,-6.638C182.032,-7.33 183.021,-7.677 184.283,-7.677C184.894,-7.677 185.598,-7.579 186.396,-7.383L186.396,-5.92C185.566,-6.189 184.903,-6.323 184.406,-6.323C183.8,-6.323 183.313,-6.091 182.943,-5.626C182.574,-5.161 182.39,-4.544 182.39,-3.773C182.39,-2.985 182.589,-2.354 182.988,-1.88C183.387,-1.406 183.919,-1.169 184.584,-1.169C185.19,-1.169 185.814,-1.301 186.457,-1.565L186.457,-0.164Z" style="fill:rgb(48,113,187);fill-rule:nonzero;"/>
                    <path d="M194.482,-0.253C193.521,0.03 192.609,0.171 191.748,0.171C190.495,0.171 189.506,-0.185 188.781,-0.896C188.057,-1.606 187.694,-2.577 187.694,-3.808C187.694,-4.97 188.026,-5.905 188.689,-6.614C189.352,-7.322 190.228,-7.677 191.317,-7.677C192.416,-7.677 193.218,-7.33 193.724,-6.638C194.229,-5.945 194.482,-4.849 194.482,-3.35L189.827,-3.35C189.964,-1.919 190.75,-1.203 192.186,-1.203C192.865,-1.203 193.63,-1.36 194.482,-1.675L194.482,-0.253ZM189.8,-4.491L192.493,-4.491C192.493,-5.772 192.081,-6.412 191.256,-6.412C190.417,-6.412 189.932,-5.772 189.8,-4.491Z" style="fill:rgb(48,113,187);fill-rule:nonzero;"/>
                    <path d="M201.298,0L201.298,-1.415C200.778,-0.358 199.96,0.171 198.844,0.171C197.941,0.171 197.233,-0.16 196.718,-0.82C196.203,-1.481 195.945,-2.39 195.945,-3.548C195.945,-4.806 196.236,-5.808 196.817,-6.556C197.398,-7.303 198.178,-7.677 199.158,-7.677C199.942,-7.677 200.655,-7.367 201.298,-6.747L201.298,-10.794L203.328,-10.794L203.328,0L201.298,0ZM201.298,-5.544C200.81,-6.091 200.288,-6.364 199.732,-6.364C199.236,-6.364 198.839,-6.125 198.543,-5.646C198.247,-5.168 198.099,-4.525 198.099,-3.719C198.099,-2.183 198.591,-1.415 199.575,-1.415C200.177,-1.415 200.751,-1.8 201.298,-2.57L201.298,-5.544Z" style="fill:rgb(48,113,187);fill-rule:nonzero;"/>
                    <path d="M212.01,-5.366C212.643,-6.132 213.454,-6.515 214.443,-6.515C215.346,-6.515 216.093,-6.217 216.686,-5.623C217.278,-5.028 217.574,-4.277 217.574,-3.37C217.574,-2.308 217.232,-1.439 216.549,-0.762C215.865,-0.085 214.986,0.253 213.91,0.253C212.652,0.253 211.67,-0.195 210.964,-1.09C210.257,-1.986 209.904,-3.231 209.904,-4.826C209.904,-6.581 210.306,-7.944 211.111,-8.917C211.915,-9.89 213.044,-10.377 214.498,-10.377C215.182,-10.377 216.029,-10.254 217.041,-10.008L217.041,-8.531C216.12,-8.919 215.296,-9.112 214.566,-9.112C213.755,-9.112 213.126,-8.784 212.68,-8.128C212.233,-7.472 212.01,-6.551 212.01,-5.366ZM215.551,-3.035C215.551,-3.723 215.399,-4.268 215.096,-4.669C214.793,-5.07 214.382,-5.271 213.862,-5.271C213.366,-5.271 212.947,-5.088 212.608,-4.724C212.268,-4.359 212.099,-3.908 212.099,-3.37C212.099,-2.664 212.265,-2.094 212.598,-1.661C212.93,-1.228 213.366,-1.012 213.903,-1.012C214.405,-1.012 214.805,-1.195 215.103,-1.562C215.402,-1.929 215.551,-2.42 215.551,-3.035Z" style="fill:rgb(48,113,187);fill-rule:nonzero;"/>
                    <rect x="219.071" y="-2.194" width="2.194" height="2.194" style="fill:rgb(48,113,187);fill-rule:nonzero;"/>
                    <path d="M223.631,-0.041L223.631,-1.511C224.492,-1.178 225.21,-1.012 225.784,-1.012C226.363,-1.012 226.822,-1.184 227.162,-1.528C227.501,-1.872 227.671,-2.338 227.671,-2.926C227.671,-4.375 226.63,-5.1 224.547,-5.1C224.301,-5.1 224.055,-5.079 223.809,-5.038L223.809,-10.117L229.619,-10.117L229.619,-8.518L225.285,-8.518L225.183,-6.337C226.641,-6.337 227.779,-6.038 228.597,-5.441C229.415,-4.844 229.824,-4.01 229.824,-2.939C229.824,-1.951 229.466,-1.171 228.751,-0.602C228.035,-0.032 227.056,0.253 225.812,0.253C225.283,0.253 224.556,0.155 223.631,-0.041Z" style="fill:rgb(48,113,187);fill-rule:nonzero;"/>
                    <rect x="231.766" y="-2.194" width="2.194" height="2.194" style="fill:rgb(48,113,187);fill-rule:nonzero;"/>
                    <path d="M239.162,0.253C238.014,0.253 237.081,-0.239 236.363,-1.224C235.645,-2.208 235.286,-3.486 235.286,-5.059C235.286,-6.649 235.646,-7.932 236.366,-8.907C237.086,-9.882 238.034,-10.37 239.21,-10.37C240.377,-10.37 241.321,-9.884 242.043,-8.911C242.766,-7.938 243.127,-6.663 243.127,-5.086C243.127,-3.468 242.766,-2.174 242.043,-1.203C241.321,-0.232 240.361,0.253 239.162,0.253ZM239.183,-1.012C240.381,-1.012 240.98,-2.361 240.98,-5.059C240.98,-7.757 240.39,-9.105 239.21,-9.105C238.03,-9.105 237.439,-7.759 237.439,-5.065C237.439,-2.363 238.021,-1.012 239.183,-1.012Z" style="fill:rgb(48,113,187);fill-rule:nonzero;"/>
                    <rect x="244.46" y="-2.194" width="2.194" height="2.194" style="fill:rgb(48,113,187);fill-rule:nonzero;"/>
                    <path d="M249.252,0L249.252,-1.183L251.275,-1.183L251.275,-8.647L249.252,-8.142L249.252,-9.358L253.306,-10.37L253.306,-1.183L255.329,-1.183L255.329,0L249.252,0Z" style="fill:rgb(48,113,187);fill-rule:nonzero;"/>
                    <path d="M261.092,0.253C259.943,0.253 259.01,-0.239 258.292,-1.224C257.575,-2.208 257.216,-3.486 257.216,-5.059C257.216,-6.649 257.576,-7.932 258.296,-8.907C259.016,-9.882 259.964,-10.37 261.14,-10.37C262.306,-10.37 263.251,-9.884 263.973,-8.911C264.695,-7.938 265.057,-6.663 265.057,-5.086C265.057,-3.468 264.695,-2.174 263.973,-1.203C263.251,-0.232 262.29,0.253 261.092,0.253ZM261.112,-1.012C262.311,-1.012 262.91,-2.361 262.91,-5.059C262.91,-7.757 262.32,-9.105 261.14,-9.105C259.959,-9.105 259.369,-7.759 259.369,-5.065C259.369,-2.363 259.95,-1.012 261.112,-1.012Z" style="fill:rgb(48,113,187);fill-rule:nonzero;"/>
                    <rect x="267.101" y="-4.977" width="6.241" height="1.265" style="fill:rgb(48,113,187);fill-rule:nonzero;"/>
                    <path d="M276.794,0C276.89,-0.761 277.078,-1.429 277.358,-2.003C277.638,-2.577 278.268,-3.58 279.248,-5.011L281.627,-8.477L276.363,-8.477L276.363,-10.117L283.281,-10.117L283.281,-8.477C281.955,-6.804 280.916,-5.217 280.164,-3.715C279.412,-2.214 279.036,-0.975 279.036,0L276.794,0Z" style="fill:rgb(48,113,187);fill-rule:nonzero;"/>
                    <path d="M285.312,-0.075L285.312,-1.593C286.314,-1.205 287.141,-1.012 287.793,-1.012C288.399,-1.012 288.886,-1.167 289.252,-1.477C289.619,-1.786 289.803,-2.199 289.803,-2.714C289.803,-4.049 288.825,-4.717 286.87,-4.717L286.248,-4.717L286.248,-5.927L286.774,-5.934C288.606,-5.934 289.522,-6.533 289.522,-7.731C289.522,-8.647 288.957,-9.105 287.827,-9.105C287.084,-9.105 286.291,-8.916 285.448,-8.538L285.448,-9.919C286.337,-10.224 287.273,-10.377 288.258,-10.377C289.301,-10.377 290.118,-10.163 290.708,-9.734C291.299,-9.306 291.594,-8.714 291.594,-7.957C291.594,-6.763 290.849,-5.92 289.358,-5.428C291.063,-5.036 291.915,-4.124 291.915,-2.693C291.915,-1.786 291.573,-1.069 290.89,-0.54C290.206,-0.011 289.276,0.253 288.101,0.253C287.103,0.253 286.173,0.144 285.312,-0.075Z" style="fill:rgb(48,113,187);fill-rule:nonzero;"/>
                    <path d="M294.431,0L294.431,-7.506L296.454,-7.506L296.454,-6.091C297.115,-7.148 297.967,-7.677 299.011,-7.677C299.681,-7.677 300.209,-7.465 300.597,-7.041C300.984,-6.617 301.178,-6.038 301.178,-5.305L301.178,0L299.154,0L299.154,-4.806C299.154,-5.658 298.872,-6.084 298.307,-6.084C297.664,-6.084 297.047,-5.631 296.454,-4.724L296.454,0L294.431,0Z" style="fill:rgb(48,113,187);fill-rule:nonzero;"/>
                </g>
                <g id="text50" transform="matrix(1,0,0,-1,201.892,80.8872)">
                    <g transform="matrix(1,0,0,1,4.93411,0)">
                        <path d="M-0.465,1.777L-0.479,0.273C0.068,0.488 0.631,0.595 1.21,0.595C1.693,0.595 2.026,0.46 2.208,0.191C2.39,-0.077 2.481,-0.561 2.481,-1.258L2.481,-10.117L4.594,-10.117L4.594,-1.483C4.594,-0.239 4.341,0.656 3.835,1.203C3.329,1.75 2.502,2.023 1.354,2.023C0.779,2.023 0.173,1.941 -0.465,1.777Z" style="fill:rgb(48,113,187);fill-rule:nonzero;"/>
                        <path d="M7.041,-10.117L9.146,-10.117L9.146,-3.917C9.146,-2.937 9.308,-2.23 9.632,-1.794C9.955,-1.359 10.477,-1.142 11.197,-1.142C11.885,-1.142 12.383,-1.349 12.691,-1.764C12.999,-2.178 13.152,-2.846 13.152,-3.767L13.152,-10.117L14.984,-10.117L14.984,-3.903C14.984,-2.969 14.896,-2.257 14.718,-1.767C14.54,-1.277 14.216,-0.852 13.747,-0.492C13.104,0.005 12.241,0.253 11.156,0.253C9.994,0.253 9.06,-0.011 8.354,-0.54C7.866,-0.905 7.525,-1.336 7.332,-1.835C7.138,-2.334 7.041,-3.031 7.041,-3.924L7.041,-10.117Z" style="fill:rgb(48,113,187);fill-rule:nonzero;"/>
                        <path d="M17.432,0L17.432,-10.117L19.537,-10.117L19.537,-1.436L24.097,-1.436L24.097,0L17.432,0Z" style="fill:rgb(48,113,187);fill-rule:nonzero;"/>
                    </g>
                    <g transform="matrix(1,0,0,1,-2.38711,15)">
                        <path d="M1.005,0L1.005,-1.6L1.114,-1.75C1.657,-2.475 2.213,-3.085 2.782,-3.582L3.609,-4.313C4.972,-5.517 5.653,-6.572 5.653,-7.479C5.653,-8.536 5.052,-9.064 3.849,-9.064C3.106,-9.064 2.244,-8.814 1.265,-8.313L1.265,-9.796C2.295,-10.179 3.29,-10.37 4.252,-10.37C5.327,-10.37 6.189,-10.116 6.836,-9.608C7.483,-9.1 7.807,-8.42 7.807,-7.567C7.807,-6.979 7.649,-6.444 7.335,-5.961C7.021,-5.478 6.467,-4.917 5.674,-4.279L4.99,-3.732C4.038,-2.967 3.473,-2.256 3.295,-1.6L7.766,-1.6L7.766,0L1.005,0Z" style="fill:rgb(48,113,187);fill-rule:nonzero;"/>
                        <path d="M13.809,0.253C12.66,0.253 11.727,-0.239 11.009,-1.224C10.292,-2.208 9.933,-3.486 9.933,-5.059C9.933,-6.649 10.293,-7.932 11.013,-8.907C11.733,-9.882 12.681,-10.37 13.856,-10.37C15.023,-10.37 15.968,-9.884 16.69,-8.911C17.412,-7.938 17.773,-6.663 17.773,-5.086C17.773,-3.468 17.412,-2.174 16.69,-1.203C15.968,-0.232 15.007,0.253 13.809,0.253ZM13.829,-1.012C15.028,-1.012 15.627,-2.361 15.627,-5.059C15.627,-7.757 15.037,-9.105 13.856,-9.105C12.676,-9.105 12.086,-7.759 12.086,-5.065C12.086,-2.363 12.667,-1.012 13.829,-1.012Z" style="fill:rgb(48,113,187);fill-rule:nonzero;"/>
                        <path d="M20.439,0L20.439,-1.183L22.463,-1.183L22.463,-8.647L20.439,-8.142L20.439,-9.358L24.493,-10.37L24.493,-1.183L26.517,-1.183L26.517,0L20.439,0Z" style="fill:rgb(48,113,187);fill-rule:nonzero;"/>
                        <path d="M30.7,-5.421C29.725,-6.063 29.237,-6.838 29.237,-7.745C29.237,-8.529 29.545,-9.164 30.16,-9.649C30.775,-10.134 31.582,-10.377 32.58,-10.377C33.519,-10.377 34.27,-10.17 34.833,-9.755C35.395,-9.34 35.677,-8.786 35.677,-8.094C35.677,-7.201 35.107,-6.355 33.968,-5.558C35.408,-4.806 36.128,-3.86 36.128,-2.721C36.128,-1.832 35.777,-1.114 35.075,-0.567C34.373,-0.021 33.453,0.253 32.313,0.253C31.224,0.253 30.346,0.002 29.678,-0.499C29.011,-1 28.677,-1.661 28.677,-2.481C28.677,-3.671 29.351,-4.651 30.7,-5.421ZM32.915,-6.132C33.59,-6.656 33.927,-7.216 33.927,-7.813C33.927,-8.205 33.788,-8.519 33.51,-8.753C33.232,-8.988 32.865,-9.105 32.409,-9.105C31.985,-9.105 31.642,-9.003 31.38,-8.798C31.118,-8.593 30.987,-8.324 30.987,-7.991C30.987,-7.663 31.117,-7.375 31.377,-7.126C31.637,-6.878 32.149,-6.547 32.915,-6.132ZM31.698,-4.744C30.965,-4.133 30.598,-3.489 30.598,-2.81C30.598,-2.281 30.781,-1.846 31.148,-1.504C31.515,-1.162 31.981,-0.991 32.546,-0.991C33.043,-0.991 33.458,-1.126 33.793,-1.395C34.128,-1.663 34.296,-1.998 34.296,-2.399C34.296,-2.746 34.183,-3.042 33.958,-3.288C33.732,-3.534 33.293,-3.842 32.642,-4.211L31.698,-4.744Z" style="fill:rgb(48,113,187);fill-rule:nonzero;"/>
                    </g>
                </g>
                <g id="text54" transform="matrix(1,0,0,-1,126.999,252.221)">
                    <path d="M7.516,0.578C5.964,0.578 3.979,0.24 1.563,-0.438L1.563,-3.688C4.167,-2.479 6.307,-1.875 7.984,-1.875C9.276,-1.875 10.315,-2.214 11.102,-2.891C11.888,-3.568 12.281,-4.458 12.281,-5.563C12.281,-6.469 12.023,-7.24 11.508,-7.875C10.992,-8.51 10.042,-9.219 8.656,-10L7.063,-10.922C5.094,-12.047 3.706,-13.107 2.898,-14.102C2.091,-15.096 1.688,-16.255 1.688,-17.578C1.688,-19.359 2.333,-20.826 3.625,-21.977C4.917,-23.128 6.563,-23.703 8.563,-23.703C10.344,-23.703 12.224,-23.406 14.203,-22.813L14.203,-19.813C11.766,-20.771 9.948,-21.25 8.75,-21.25C7.615,-21.25 6.677,-20.948 5.938,-20.344C5.198,-19.74 4.828,-18.979 4.828,-18.063C4.828,-17.292 5.099,-16.609 5.641,-16.016C6.182,-15.422 7.172,-14.714 8.609,-13.891L10.266,-12.953C12.266,-11.818 13.661,-10.745 14.453,-9.734C15.245,-8.724 15.641,-7.51 15.641,-6.094C15.641,-4.083 14.898,-2.469 13.414,-1.25C11.93,-0.031 9.964,0.578 7.516,0.578Z" style="fill:rgb(48,113,187);fill-rule:nonzero;"/>
                    <path d="M29.531,0.578C26.323,0.578 23.742,-0.534 21.789,-2.758C19.836,-4.982 18.859,-7.922 18.859,-11.578C18.859,-15.255 19.841,-18.195 21.805,-20.398C23.768,-22.602 26.391,-23.703 29.672,-23.703C32.943,-23.703 35.563,-22.604 37.531,-20.406C39.5,-18.208 40.484,-15.276 40.484,-11.609C40.484,-7.87 39.5,-4.904 37.531,-2.711C35.563,-0.518 32.896,0.578 29.531,0.578ZM29.578,-1.875C31.943,-1.875 33.771,-2.727 35.063,-4.43C36.354,-6.133 37,-8.536 37,-11.641C37,-14.651 36.352,-17.005 35.055,-18.703C33.758,-20.401 31.964,-21.25 29.672,-21.25C27.37,-21.25 25.573,-20.398 24.281,-18.695C22.99,-16.992 22.344,-14.625 22.344,-11.594C22.344,-8.573 22.984,-6.198 24.266,-4.469C25.547,-2.74 27.318,-1.875 29.578,-1.875Z" style="fill:rgb(48,113,187);fill-rule:nonzero;"/>
                    <path d="M45.078,0L45.078,-23.125L48.297,-23.125L59.938,-5.266L59.938,-23.125L62.75,-23.125L62.75,0L59.547,0L47.891,-17.859L47.891,0L45.078,0Z" style="fill:rgb(48,113,187);fill-rule:nonzero;"/>
                    <rect x="68.703" y="-23.125" width="3.281" height="23.125" style="fill:rgb(48,113,187);fill-rule:nonzero;"/>
                    <path d="M87.844,0.578C84.25,0.578 81.474,-0.477 79.516,-2.586C77.557,-4.695 76.578,-7.682 76.578,-11.547C76.578,-15.401 77.576,-18.391 79.57,-20.516C81.565,-22.641 84.375,-23.703 88,-23.703C90.073,-23.703 92.5,-23.365 95.281,-22.688L95.281,-19.609C92.115,-20.703 89.672,-21.25 87.953,-21.25C85.443,-21.25 83.5,-20.401 82.125,-18.703C80.75,-17.005 80.063,-14.609 80.063,-11.516C80.063,-8.568 80.797,-6.242 82.266,-4.539C83.734,-2.836 85.74,-1.984 88.281,-1.984C90.469,-1.984 92.813,-2.656 95.313,-4L95.313,-1.188C93.031,-0.01 90.542,0.578 87.844,0.578Z" style="fill:rgb(48,113,187);fill-rule:nonzero;"/>
                    <path d="M103.078,0L97.125,-23.125L100.281,-23.125L105.016,-4.859L109.375,-23.125L112.531,-23.125L116.656,-5.109L121.75,-23.125L124.422,-23.125L117.938,0L114.672,0L110.594,-17.828L106.328,0L103.078,0Z" style="fill:rgb(48,113,187);fill-rule:nonzero;"/>
                    <path d="M139.172,-8.844L135.234,-18.813L131.281,-8.844L139.172,-8.844ZM142.641,0L140.125,-6.406L130.328,-6.406L127.781,0L124.734,0L133.906,-23.125L137.156,-23.125L146.188,0L142.641,0Z" style="fill:rgb(48,113,187);fill-rule:nonzero;"/>
                    <path d="M149.531,0L149.531,-23.125L152.813,-23.125L152.813,-2.453L163.219,-2.453L163.219,0L149.531,0Z" style="fill:rgb(48,113,187);fill-rule:nonzero;"/>
                    <path d="M166.594,0L166.594,-23.125L169.875,-23.125L169.875,-2.453L180.281,-2.453L180.281,0L166.594,0Z" style="fill:rgb(48,113,187);fill-rule:nonzero;"/>
                </g>
            </g>
            <path id="path56" d="M2049.44,1809.71C2047.46,1811.33 2045.66,1813.13 2044.03,1815.11C1999.36,1859.01 1940.26,1893.78 1870.65,1914.07C1846.95,1920.97 1821.22,1926.96 1792.49,1926.96C1756.52,1926.96 1724.61,1922.24 1695.58,1914.34C1709.22,1909.45 1722.49,1903.94 1735.39,1897.88C1737.77,1897.94 1742.37,1898.02 1743.97,1898.06C1746.2,1898.1 1755.07,1897.86 1755.07,1897.86C1852.24,1894.41 1921.73,1863.27 1972.52,1813.44C1976.3,1810.03 1979.9,1806.42 1983.33,1802.64C2018.88,1764.47 2048.17,1719.68 2069.37,1667.15L2134.67,1667.11C2117.49,1725.88 2086.37,1770.7 2049.44,1809.71" style="fill:rgb(48,113,187);fill-rule:nonzero;"/>
            <path id="path58" d="M1529.72,1826.34C1558.07,1847.94 1589.8,1866.14 1627.06,1878.84C1622.66,1879.86 1618.2,1880.8 1613.68,1881.65C1582.88,1865.88 1554.7,1847.66 1529.72,1826.34" style="fill:rgb(48,113,187);fill-rule:nonzero;"/>
            <path id="path60" d="M1529.37,1897.85C1440.97,1894.37 1377.38,1866.09 1325.23,1826.34C1357.78,1854.13 1395.78,1876.68 1437.91,1895.35C1480.4,1914.19 1528.69,1926.95 1588,1926.95C1616.72,1926.95 1642.45,1920.98 1666.17,1914.07C1735.76,1893.8 1794.87,1858.99 1839.55,1815.11C1841.16,1813.13 1842.97,1811.33 1844.94,1809.71C1881.88,1770.7 1913,1725.89 1930.17,1667.09L1864.87,1667.15C1843.7,1719.68 1814.39,1764.46 1778.83,1802.63C1775.41,1806.41 1771.8,1810.02 1768.03,1813.46C1717.23,1863.26 1647.73,1894.41 1550.58,1897.85C1550.58,1897.85 1541.69,1898.1 1539.49,1898.06C1537.28,1898.02 1529.37,1897.85 1529.37,1897.85" style="fill:rgb(48,113,187);"/>
            <path id="path62" d="M1832.74,1652.57L1857.18,1652.57L1857.18,1600.54L1900.95,1600.54L1900.95,1585.53L1832.74,1585.53L1832.74,1652.57" style="fill:rgb(48,113,187);fill-rule:nonzero;"/>
            <path id="path64" d="M1936.83,1610.5L1958.12,1610.5L1947.73,1633.97L1947.48,1633.97L1936.83,1610.5ZM1935.25,1652.57L1960.09,1652.57L1995.18,1585.53L1969.68,1585.53L1963.9,1597.55L1931.19,1597.55L1925.26,1585.53L1900.16,1585.53L1935.25,1652.57" style="fill:rgb(48,113,187);fill-rule:nonzero;"/>
            <path id="path66" d="M2023.43,1599.53L2043.01,1599.53C2050.77,1599.53 2056.17,1601.49 2056.17,1607.03C2056.17,1612.94 2050.38,1614.9 2043.01,1614.9L2023.43,1614.9L2023.43,1599.53ZM2023.43,1626.18L2042.37,1626.18C2046.57,1626.18 2052.36,1627.78 2052.36,1632.56C2052.36,1637.44 2047.49,1639.03 2042.37,1639.03L2023.43,1639.03L2023.43,1626.18ZM1999,1652.57L2042.9,1652.57C2059.06,1652.74 2076.79,1649.73 2076.79,1635.75C2076.79,1629.73 2071.81,1624.86 2064.44,1622.23C2074.44,1620.16 2080.62,1613.97 2080.62,1606.36C2080.62,1590.4 2064.18,1585.53 2044.08,1585.53L1999,1585.53L1999,1652.57" style="fill:rgb(48,113,187);fill-rule:nonzero;"/>
            <path id="path68" d="M2109.66,1608.06C2110.18,1600.18 2117.02,1597.64 2127.4,1597.64C2134.76,1597.64 2142.37,1599.51 2142.37,1604.48C2142.37,1610.41 2128.97,1611.53 2115.42,1614.26C2102.03,1616.98 2087.96,1621.3 2087.96,1633.58C2087.96,1648.23 2108.6,1653.97 2126.22,1653.97C2144.88,1653.97 2163.67,1647.47 2163.8,1632.37L2139.35,1632.37C2139.74,1638.46 2131.73,1640.44 2124.25,1640.44C2118.98,1640.44 2112.41,1639.14 2112.41,1634.71C2112.41,1629.56 2125.94,1628.62 2139.61,1625.9C2153.16,1623.18 2166.83,1618.67 2166.83,1606.54C2166.83,1589.55 2146.59,1584.12 2125.94,1584.12C2104.4,1584.12 2085.34,1590.89 2085.21,1608.06L2109.66,1608.06" style="fill:rgb(48,113,187);fill-rule:nonzero;"/>
            <path id="path70" d="M1226.2,1798.73L1283.23,1798.73L1357.29,1667.33L1357.9,1667.33L1357.9,1798.73L1410.16,1798.73L1410.16,1585.49L1353.13,1585.49L1279.06,1718.39L1278.46,1718.39L1278.46,1585.49L1226.2,1585.49L1226.2,1798.73" style="fill:rgb(48,113,187);fill-rule:nonzero;"/>
            <path id="path72" d="M1476.47,1657.17C1477.67,1632.09 1493.19,1624.03 1516.78,1624.03C1533.5,1624.03 1550.83,1630.01 1550.83,1645.83C1550.83,1664.64 1520.37,1668.23 1489.61,1676.89C1459.15,1685.54 1427.19,1699.28 1427.19,1738.41C1427.19,1785 1474.08,1803.22 1514.11,1803.22C1556.5,1803.22 1599.21,1782.61 1599.51,1734.51L1543.97,1734.51C1544.86,1753.94 1526.64,1760.22 1509.63,1760.22C1497.67,1760.22 1482.75,1756.03 1482.75,1741.99C1482.75,1725.57 1513.5,1722.58 1544.57,1713.92C1575.33,1705.25 1606.39,1690.9 1606.39,1652.39C1606.39,1598.34 1560.39,1581.02 1513.5,1581.02C1464.54,1581.02 1421.23,1602.53 1420.92,1657.17L1476.47,1657.17" style="fill:rgb(48,113,187);fill-rule:nonzero;"/>
            <path id="path74" d="M1660.74,1657.17C1661.94,1632.09 1677.47,1624.03 1701.05,1624.03C1717.79,1624.03 1735.1,1630.01 1735.1,1645.83C1735.1,1664.64 1704.62,1668.23 1673.88,1676.89C1643.41,1685.54 1611.46,1699.28 1611.46,1738.41C1611.46,1785 1658.35,1803.22 1698.37,1803.22C1740.77,1803.22 1783.48,1782.61 1783.77,1734.51L1728.24,1734.51C1729.13,1753.94 1710.91,1760.22 1693.9,1760.22C1681.94,1760.22 1667.02,1756.03 1667.02,1741.99C1667.02,1725.57 1697.78,1722.58 1728.83,1713.92C1759.58,1705.25 1790.66,1690.9 1790.66,1652.39C1790.66,1598.34 1744.65,1581.02 1697.78,1581.02C1648.8,1581.02 1605.49,1602.53 1605.19,1657.17L1660.74,1657.17" style="fill:rgb(48,113,187);fill-rule:nonzero;"/>
        </g>
    </g>
</svg>
