<?xml version="1.0" encoding="UTF-8" standalone="no"?>
<!DOCTYPE svg PUBLIC "-//W3C//DTD SVG 1.1//EN" "http://www.w3.org/Graphics/SVG/1.1/DTD/svg11.dtd">
<svg width="100%" height="100%" viewBox="0 0 37 24" version="1.1" xmlns="http://www.w3.org/2000/svg" xmlns:xlink="http://www.w3.org/1999/xlink" xml:space="preserve" xmlns:serif="http://www.serif.com/" style="fill-rule:evenodd;clip-rule:evenodd;stroke-linejoin:round;stroke-miterlimit:1.41421;">
    <g transform="matrix(1,0,0,1,-103,-884)">
        <g transform="matrix(1,0,0,1,27,27)">
            <path id="txt_HQ" d="M90.945,857.54C91.344,857.54 91.664,857.666 91.907,857.917C92.15,858.168 92.271,858.493 92.271,858.892L92.271,874.778C92.271,875.177 92.15,875.502 91.907,875.753C91.664,876.004 91.344,876.13 90.945,876.13C90.546,876.13 90.226,876.009 89.983,875.766C89.74,875.523 89.619,875.194 89.619,874.778L89.619,867.784L79.375,867.784L79.375,874.778C79.375,875.177 79.254,875.502 79.011,875.753C78.768,876.004 78.448,876.13 78.049,876.13C77.65,876.13 77.33,876.009 77.087,875.766C76.844,875.523 76.723,875.194 76.723,874.778L76.723,858.892C76.723,858.493 76.844,858.168 77.087,857.917C77.33,857.666 77.65,857.54 78.049,857.54C78.448,857.54 78.768,857.666 79.011,857.917C79.254,858.168 79.375,858.493 79.375,858.892L79.375,865.6L89.619,865.6L89.619,858.892C89.619,858.493 89.74,858.168 89.983,857.917C90.226,857.666 90.546,857.54 90.945,857.54ZM110.445,878.99C110.601,879.25 110.679,879.501 110.679,879.744C110.679,880.056 110.558,880.312 110.315,880.511C110.072,880.71 109.786,880.81 109.457,880.81C108.902,880.81 108.46,880.55 108.131,880.03L106.623,877.534C106.068,876.65 105.158,876.208 103.893,876.208C102.16,876.208 100.656,875.827 99.382,875.064C98.108,874.301 97.124,873.218 96.431,871.814C95.738,870.41 95.391,868.755 95.391,866.848C95.391,864.924 95.733,863.256 96.418,861.843C97.103,860.43 98.086,859.347 99.369,858.593C100.652,857.839 102.16,857.462 103.893,857.462C105.644,857.462 107.16,857.839 108.443,858.593C109.726,859.347 110.709,860.43 111.394,861.843C112.079,863.256 112.421,864.915 112.421,866.822C112.421,868.954 111.988,870.778 111.121,872.295C110.254,873.812 109.032,874.891 107.455,875.532C108.2,875.775 108.85,876.355 109.405,877.274L110.445,878.99ZM98.121,866.822C98.121,869.127 98.628,870.904 99.642,872.152C100.656,873.4 102.073,874.024 103.893,874.024C105.73,874.024 107.16,873.4 108.183,872.152C109.206,870.904 109.717,869.127 109.717,866.822C109.717,864.517 109.21,862.744 108.196,861.505C107.182,860.266 105.748,859.646 103.893,859.646C102.073,859.646 100.656,860.266 99.642,861.505C98.628,862.744 98.121,864.517 98.121,866.822Z" style="fill:rgb(102,102,102);"/>
        </g>
    </g>
</svg>
