<?xml version="1.0" encoding="UTF-8" standalone="no"?>
<!DOCTYPE svg PUBLIC "-//W3C//DTD SVG 1.1//EN" "http://www.w3.org/Graphics/SVG/1.1/DTD/svg11.dtd">
<svg width="100%" height="100%" viewBox="0 0 78 20" version="1.1" xmlns="http://www.w3.org/2000/svg" xmlns:xlink="http://www.w3.org/1999/xlink" xml:space="preserve" xmlns:serif="http://www.serif.com/" style="fill-rule:evenodd;clip-rule:evenodd;stroke-linejoin:round;stroke-miterlimit:1.41421;">
    <g transform="matrix(1,0,0,1,-435,-890)">
        <g transform="matrix(1,0,0,1,27,27)">
            <path id="txt_Branch" d="M419.739,872.562C420.796,872.857 421.615,873.385 422.196,874.148C422.777,874.911 423.067,875.864 423.067,877.008C423.067,878.585 422.525,879.812 421.442,880.687C420.359,881.562 418.846,882 416.905,882L410.275,882C409.859,882 409.534,881.883 409.3,881.649C409.066,881.415 408.949,881.099 408.949,880.7L408.949,864.97C408.949,864.571 409.066,864.255 409.3,864.021C409.534,863.787 409.859,863.67 410.275,863.67L416.619,863.67C418.508,863.67 419.986,864.09 421.052,864.931C422.118,865.772 422.651,866.946 422.651,868.454C422.651,869.425 422.395,870.265 421.884,870.976C421.373,871.687 420.658,872.215 419.739,872.562ZM411.575,871.6L416.203,871.6C418.768,871.6 420.051,870.629 420.051,868.688C420.051,867.717 419.735,866.998 419.102,866.53C418.469,866.062 417.503,865.828 416.203,865.828L411.575,865.828L411.575,871.6ZM416.619,879.842C417.954,879.842 418.933,879.599 419.557,879.114C420.181,878.629 420.493,877.875 420.493,876.852C420.493,875.812 420.177,875.036 419.544,874.525C418.911,874.014 417.936,873.758 416.619,873.758L411.575,873.758L411.575,879.842L416.619,879.842ZM432.401,869.052C433.233,869 433.649,869.355 433.649,870.118C433.649,870.499 433.554,870.785 433.363,870.976C433.172,871.167 432.843,871.279 432.375,871.314L431.595,871.392C430.503,871.496 429.693,871.877 429.164,872.536C428.635,873.195 428.371,873.992 428.371,874.928L428.371,880.882C428.371,881.298 428.25,881.61 428.007,881.818C427.764,882.026 427.452,882.13 427.071,882.13C426.69,882.13 426.373,882.026 426.122,881.818C425.871,881.61 425.745,881.298 425.745,880.882L425.745,870.3C425.745,869.901 425.871,869.594 426.122,869.377C426.373,869.16 426.69,869.052 427.071,869.052C427.418,869.052 427.708,869.16 427.942,869.377C428.176,869.594 428.293,869.893 428.293,870.274L428.293,871.522C428.64,870.759 429.142,870.179 429.801,869.78C430.46,869.381 431.205,869.147 432.037,869.078L432.401,869.052ZM439.993,869C441.674,869 442.927,869.425 443.75,870.274C444.573,871.123 444.985,872.415 444.985,874.148L444.985,880.882C444.985,881.281 444.872,881.588 444.647,881.805C444.422,882.022 444.11,882.13 443.711,882.13C443.33,882.13 443.026,882.017 442.801,881.792C442.576,881.567 442.463,881.263 442.463,880.882L442.463,879.92C442.134,880.648 441.644,881.207 440.994,881.597C440.344,881.987 439.586,882.182 438.719,882.182C437.887,882.182 437.124,882.013 436.431,881.675C435.738,881.337 435.196,880.865 434.806,880.258C434.416,879.651 434.221,878.975 434.221,878.23C434.221,877.311 434.459,876.588 434.936,876.059C435.413,875.53 436.201,875.153 437.302,874.928C438.403,874.703 439.915,874.59 441.839,874.59L442.437,874.59L442.437,873.836C442.437,872.865 442.238,872.163 441.839,871.73C441.44,871.297 440.799,871.08 439.915,871.08C439.308,871.08 438.736,871.158 438.199,871.314C437.662,871.47 437.072,871.695 436.431,871.99C435.963,872.25 435.634,872.38 435.443,872.38C435.183,872.38 434.971,872.285 434.806,872.094C434.641,871.903 434.559,871.661 434.559,871.366C434.559,871.106 434.633,870.876 434.78,870.677C434.927,870.478 435.166,870.283 435.495,870.092C436.102,869.763 436.812,869.498 437.627,869.299C438.442,869.1 439.23,869 439.993,869ZM439.187,880.232C440.14,880.232 440.92,879.907 441.527,879.257C442.134,878.607 442.437,877.771 442.437,876.748L442.437,876.072L441.969,876.072C440.617,876.072 439.577,876.133 438.849,876.254C438.121,876.375 437.601,876.579 437.289,876.865C436.977,877.151 436.821,877.563 436.821,878.1C436.821,878.724 437.046,879.235 437.497,879.634C437.948,880.033 438.511,880.232 439.187,880.232ZM454.891,869C457.924,869 459.441,870.707 459.441,874.122L459.441,880.882C459.441,881.281 459.324,881.588 459.09,881.805C458.856,882.022 458.531,882.13 458.115,882.13C457.716,882.13 457.4,882.017 457.166,881.792C456.932,881.567 456.815,881.263 456.815,880.882L456.815,874.252C456.815,873.177 456.603,872.389 456.178,871.886C455.753,871.383 455.09,871.132 454.189,871.132C453.132,871.132 452.282,871.461 451.641,872.12C451,872.779 450.679,873.663 450.679,874.772L450.679,880.882C450.679,881.263 450.562,881.567 450.328,881.792C450.094,882.017 449.778,882.13 449.379,882.13C448.98,882.13 448.66,882.017 448.417,881.792C448.174,881.567 448.053,881.263 448.053,880.882L448.053,870.3C448.053,869.936 448.179,869.637 448.43,869.403C448.681,869.169 448.998,869.052 449.379,869.052C449.76,869.052 450.064,869.165 450.289,869.39C450.514,869.615 450.627,869.91 450.627,870.274L450.627,871.34C451.043,870.577 451.624,869.997 452.369,869.598C453.114,869.199 453.955,869 454.891,869ZM467.943,882.182C466.712,882.182 465.633,881.913 464.706,881.376C463.779,880.839 463.059,880.076 462.548,879.088C462.037,878.1 461.781,876.956 461.781,875.656C461.781,874.339 462.045,873.177 462.574,872.172C463.103,871.167 463.844,870.387 464.797,869.832C465.75,869.277 466.842,869 468.073,869C468.732,869 469.395,869.095 470.062,869.286C470.729,869.477 471.323,869.737 471.843,870.066C472.398,870.447 472.675,870.889 472.675,871.392C472.675,871.687 472.597,871.934 472.441,872.133C472.285,872.332 472.086,872.432 471.843,872.432C471.687,872.432 471.531,872.393 471.375,872.315C471.219,872.237 471.02,872.12 470.777,871.964C470.344,871.687 469.941,871.474 469.568,871.327C469.195,871.18 468.749,871.106 468.229,871.106C467.05,871.106 466.136,871.505 465.486,872.302C464.836,873.099 464.511,874.209 464.511,875.63C464.511,877.051 464.832,878.148 465.473,878.919C466.114,879.69 467.024,880.076 468.203,880.076C468.723,880.076 469.182,879.998 469.581,879.842C469.98,879.686 470.387,879.478 470.803,879.218C470.994,879.097 471.184,878.993 471.375,878.906C471.566,878.819 471.739,878.776 471.895,878.776C472.138,878.776 472.337,878.876 472.493,879.075C472.649,879.274 472.727,879.521 472.727,879.816C472.727,880.059 472.662,880.28 472.532,880.479C472.402,880.678 472.181,880.882 471.869,881.09C471.349,881.437 470.742,881.705 470.049,881.896C469.356,882.087 468.654,882.182 467.943,882.182ZM481.411,869C484.427,869 485.935,870.707 485.935,874.122L485.935,880.882C485.935,881.263 485.814,881.567 485.571,881.792C485.328,882.017 485.008,882.13 484.609,882.13C484.21,882.13 483.894,882.017 483.66,881.792C483.426,881.567 483.309,881.263 483.309,880.882L483.309,874.148C483.309,873.108 483.097,872.345 482.672,871.86C482.247,871.375 481.584,871.132 480.683,871.132C479.626,871.132 478.776,871.461 478.135,872.12C477.494,872.779 477.173,873.663 477.173,874.772L477.173,880.882C477.173,881.263 477.056,881.567 476.822,881.792C476.588,882.017 476.272,882.13 475.873,882.13C475.474,882.13 475.154,882.017 474.911,881.792C474.668,881.567 474.547,881.263 474.547,880.882L474.547,864.788C474.547,864.407 474.673,864.103 474.924,863.878C475.175,863.653 475.5,863.54 475.899,863.54C476.28,863.54 476.588,863.648 476.822,863.865C477.056,864.082 477.173,864.372 477.173,864.736L477.173,871.236C477.606,870.508 478.187,869.953 478.915,869.572C479.643,869.191 480.475,869 481.411,869Z" style="fill:rgb(102,102,102);"/>
        </g>
    </g>
</svg>
