<?xml version="1.0" encoding="UTF-8" standalone="no"?>
<!DOCTYPE svg PUBLIC "-//W3C//DTD SVG 1.1//EN" "http://www.w3.org/Graphics/SVG/1.1/DTD/svg11.dtd">
<svg width="100%" height="100%" viewBox="0 0 144 20" version="1.1" xmlns="http://www.w3.org/2000/svg" xmlns:xlink="http://www.w3.org/1999/xlink" xml:space="preserve" xmlns:serif="http://www.serif.com/" style="fill-rule:evenodd;clip-rule:evenodd;stroke-linejoin:round;stroke-miterlimit:1.41421;">
    <g transform="matrix(1,0,0,1,-847,-743)">
        <g transform="matrix(1,0,0,1,27,27)">
            <path id="txt_Mobile-Users" d="M836.913,716.54C837.294,716.54 837.606,716.666 837.849,716.917C838.092,717.168 838.213,717.493 838.213,717.892L838.213,733.856C838.213,734.255 838.105,734.567 837.888,734.792C837.671,735.017 837.372,735.13 836.991,735.13C836.627,735.13 836.341,735.017 836.133,734.792C835.925,734.567 835.821,734.255 835.821,733.856L835.821,721.766L830.725,731.464C830.396,732.071 829.971,732.374 829.451,732.374C828.931,732.374 828.506,732.071 828.177,731.464L823.055,721.87L823.055,733.856C823.055,734.255 822.951,734.567 822.743,734.792C822.535,735.017 822.24,735.13 821.859,735.13C821.495,735.13 821.205,735.013 820.988,734.779C820.771,734.545 820.663,734.237 820.663,733.856L820.663,717.892C820.663,717.493 820.784,717.168 821.027,716.917C821.27,716.666 821.582,716.54 821.963,716.54C822.5,716.54 822.934,716.852 823.263,717.476L829.477,729.358L835.639,717.476C835.968,716.852 836.393,716.54 836.913,716.54ZM847.183,735.182C845.935,735.182 844.839,734.913 843.894,734.376C842.949,733.839 842.221,733.072 841.71,732.075C841.199,731.078 840.943,729.921 840.943,728.604C840.943,727.269 841.199,726.104 841.71,725.107C842.221,724.11 842.949,723.343 843.894,722.806C844.839,722.269 845.935,722 847.183,722C848.431,722 849.527,722.269 850.472,722.806C851.417,723.343 852.145,724.11 852.656,725.107C853.167,726.104 853.423,727.269 853.423,728.604C853.423,729.921 853.167,731.078 852.656,732.075C852.145,733.072 851.417,733.839 850.472,734.376C849.527,734.913 848.431,735.182 847.183,735.182ZM847.183,733.102C848.344,733.102 849.233,732.721 849.848,731.958C850.463,731.195 850.771,730.077 850.771,728.604C850.771,727.148 850.459,726.034 849.835,725.263C849.211,724.492 848.327,724.106 847.183,724.106C846.039,724.106 845.155,724.492 844.531,725.263C843.907,726.034 843.595,727.148 843.595,728.604C843.595,730.077 843.903,731.195 844.518,731.958C845.133,732.721 846.022,733.102 847.183,733.102ZM862.627,722C863.736,722 864.716,722.269 865.565,722.806C866.414,723.343 867.077,724.106 867.554,725.094C868.031,726.082 868.269,727.235 868.269,728.552C868.269,729.852 868.031,731.005 867.554,732.01C867.077,733.015 866.41,733.795 865.552,734.35C864.694,734.905 863.719,735.182 862.627,735.182C861.674,735.182 860.833,734.978 860.105,734.571C859.377,734.164 858.822,733.579 858.441,732.816L858.441,733.856C858.441,734.237 858.324,734.545 858.09,734.779C857.856,735.013 857.54,735.13 857.141,735.13C856.742,735.13 856.422,735.013 856.179,734.779C855.936,734.545 855.815,734.237 855.815,733.856L855.815,717.788C855.815,717.407 855.941,717.103 856.192,716.878C856.443,716.653 856.768,716.54 857.167,716.54C857.548,716.54 857.856,716.648 858.09,716.865C858.324,717.082 858.441,717.372 858.441,717.736L858.441,724.392C858.822,723.629 859.377,723.04 860.105,722.624C860.833,722.208 861.674,722 862.627,722ZM862.003,733.102C863.13,733.102 864.009,732.703 864.642,731.906C865.275,731.109 865.591,729.991 865.591,728.552C865.591,727.131 865.279,726.034 864.655,725.263C864.031,724.492 863.147,724.106 862.003,724.106C860.859,724.106 859.979,724.496 859.364,725.276C858.749,726.056 858.441,727.165 858.441,728.604C858.441,730.043 858.749,731.152 859.364,731.932C859.979,732.712 860.859,733.102 862.003,733.102ZM871.987,735.13C871.606,735.13 871.289,735.026 871.038,734.818C870.787,734.61 870.661,734.298 870.661,733.882L870.661,723.326C870.661,722.91 870.787,722.594 871.038,722.377C871.289,722.16 871.606,722.052 871.987,722.052C872.368,722.052 872.68,722.16 872.923,722.377C873.166,722.594 873.287,722.91 873.287,723.326L873.287,733.882C873.287,734.298 873.166,734.61 872.923,734.818C872.68,735.026 872.368,735.13 871.987,735.13ZM871.987,719.504C871.484,719.504 871.086,719.365 870.791,719.088C870.496,718.811 870.349,718.447 870.349,717.996C870.349,717.545 870.496,717.186 870.791,716.917C871.086,716.648 871.484,716.514 871.987,716.514C872.472,716.514 872.867,716.648 873.17,716.917C873.473,717.186 873.625,717.545 873.625,717.996C873.625,718.447 873.478,718.811 873.183,719.088C872.888,719.365 872.49,719.504 871.987,719.504ZM877.759,735.13C877.378,735.13 877.061,735.026 876.81,734.818C876.559,734.61 876.433,734.298 876.433,733.882L876.433,717.814C876.433,717.398 876.559,717.082 876.81,716.865C877.061,716.648 877.378,716.54 877.759,716.54C878.14,716.54 878.452,716.648 878.695,716.865C878.938,717.082 879.059,717.398 879.059,717.814L879.059,733.882C879.059,734.298 878.938,734.61 878.695,734.818C878.452,735.026 878.14,735.13 877.759,735.13ZM892.137,731.802C892.38,731.802 892.579,731.897 892.735,732.088C892.891,732.279 892.969,732.521 892.969,732.816C892.969,733.319 892.657,733.743 892.033,734.09C891.426,734.437 890.763,734.705 890.044,734.896C889.325,735.087 888.636,735.182 887.977,735.182C885.966,735.182 884.38,734.597 883.219,733.427C882.058,732.257 881.477,730.658 881.477,728.63C881.477,727.33 881.733,726.177 882.244,725.172C882.755,724.167 883.475,723.387 884.402,722.832C885.329,722.277 886.382,722 887.561,722C889.26,722 890.603,722.546 891.591,723.638C892.579,724.73 893.073,726.203 893.073,728.058C893.073,728.751 892.761,729.098 892.137,729.098L884.103,729.098C884.276,731.785 885.568,733.128 887.977,733.128C888.618,733.128 889.173,733.041 889.641,732.868C890.109,732.695 890.603,732.469 891.123,732.192C891.175,732.157 891.318,732.084 891.552,731.971C891.786,731.858 891.981,731.802 892.137,731.802ZM887.613,723.924C886.608,723.924 885.802,724.245 885.195,724.886C884.588,725.527 884.224,726.429 884.103,727.59L890.811,727.59C890.759,726.411 890.46,725.506 889.914,724.873C889.368,724.24 888.601,723.924 887.613,723.924ZM909.427,735.208C906.983,735.208 905.128,734.575 903.863,733.31C902.598,732.045 901.965,730.181 901.965,727.72L901.965,717.892C901.965,717.476 902.086,717.147 902.329,716.904C902.572,716.661 902.892,716.54 903.291,716.54C903.69,716.54 904.01,716.661 904.253,716.904C904.496,717.147 904.617,717.476 904.617,717.892L904.617,727.902C904.617,729.583 905.02,730.857 905.826,731.724C906.632,732.591 907.832,733.024 909.427,733.024C911.004,733.024 912.2,732.591 913.015,731.724C913.83,730.857 914.237,729.583 914.237,727.902L914.237,717.892C914.237,717.493 914.358,717.168 914.601,716.917C914.844,716.666 915.164,716.54 915.563,716.54C915.962,716.54 916.282,716.661 916.525,716.904C916.768,717.147 916.889,717.476 916.889,717.892L916.889,727.72C916.889,730.164 916.252,732.023 914.978,733.297C913.704,734.571 911.854,735.208 909.427,735.208ZM924.611,735.182C922.843,735.182 921.396,734.818 920.269,734.09C919.957,733.899 919.736,733.7 919.606,733.492C919.476,733.284 919.411,733.05 919.411,732.79C919.411,732.513 919.489,732.279 919.645,732.088C919.801,731.897 920,731.802 920.243,731.802C920.468,731.802 920.824,731.941 921.309,732.218C921.829,732.495 922.336,732.721 922.83,732.894C923.324,733.067 923.944,733.154 924.689,733.154C925.521,733.154 926.171,733.007 926.639,732.712C927.107,732.417 927.341,732.001 927.341,731.464C927.341,731.117 927.25,730.84 927.068,730.632C926.886,730.424 926.57,730.238 926.119,730.073C925.668,729.908 925.001,729.731 924.117,729.54C922.592,729.211 921.495,728.764 920.828,728.201C920.161,727.638 919.827,726.871 919.827,725.9C919.827,725.155 920.044,724.483 920.477,723.885C920.91,723.287 921.508,722.823 922.271,722.494C923.034,722.165 923.9,722 924.871,722C925.564,722 926.24,722.091 926.899,722.273C927.558,722.455 928.138,722.719 928.641,723.066C929.213,723.447 929.499,723.889 929.499,724.392C929.499,724.669 929.417,724.903 929.252,725.094C929.087,725.285 928.892,725.38 928.667,725.38C928.511,725.38 928.355,725.345 928.199,725.276C928.043,725.207 927.835,725.094 927.575,724.938C927.107,724.661 926.669,724.444 926.262,724.288C925.855,724.132 925.348,724.054 924.741,724.054C924.013,724.054 923.428,724.21 922.986,724.522C922.544,724.834 922.323,725.259 922.323,725.796C922.323,726.281 922.527,726.658 922.934,726.927C923.341,727.196 924.108,727.451 925.235,727.694C926.396,727.937 927.306,728.214 927.965,728.526C928.624,728.838 929.096,729.224 929.382,729.683C929.668,730.142 929.811,730.727 929.811,731.438C929.811,732.565 929.339,733.47 928.394,734.155C927.449,734.84 926.188,735.182 924.611,735.182ZM942.135,731.802C942.378,731.802 942.577,731.897 942.733,732.088C942.889,732.279 942.967,732.521 942.967,732.816C942.967,733.319 942.655,733.743 942.031,734.09C941.424,734.437 940.761,734.705 940.042,734.896C939.323,735.087 938.634,735.182 937.975,735.182C935.964,735.182 934.378,734.597 933.217,733.427C932.056,732.257 931.475,730.658 931.475,728.63C931.475,727.33 931.731,726.177 932.242,725.172C932.753,724.167 933.473,723.387 934.4,722.832C935.327,722.277 936.38,722 937.559,722C939.258,722 940.601,722.546 941.589,723.638C942.577,724.73 943.071,726.203 943.071,728.058C943.071,728.751 942.759,729.098 942.135,729.098L934.101,729.098C934.274,731.785 935.566,733.128 937.975,733.128C938.616,733.128 939.171,733.041 939.639,732.868C940.107,732.695 940.601,732.469 941.121,732.192C941.173,732.157 941.316,732.084 941.55,731.971C941.784,731.858 941.979,731.802 942.135,731.802ZM937.611,723.924C936.606,723.924 935.8,724.245 935.193,724.886C934.586,725.527 934.222,726.429 934.101,727.59L940.809,727.59C940.757,726.411 940.458,725.506 939.912,724.873C939.366,724.24 938.599,723.924 937.611,723.924ZM952.093,722.052C952.925,722 953.341,722.355 953.341,723.118C953.341,723.499 953.246,723.785 953.055,723.976C952.864,724.167 952.535,724.279 952.067,724.314L951.287,724.392C950.195,724.496 949.385,724.877 948.856,725.536C948.327,726.195 948.063,726.992 948.063,727.928L948.063,733.882C948.063,734.298 947.942,734.61 947.699,734.818C947.456,735.026 947.144,735.13 946.763,735.13C946.382,735.13 946.065,735.026 945.814,734.818C945.563,734.61 945.437,734.298 945.437,733.882L945.437,723.3C945.437,722.901 945.563,722.594 945.814,722.377C946.065,722.16 946.382,722.052 946.763,722.052C947.11,722.052 947.4,722.16 947.634,722.377C947.868,722.594 947.985,722.893 947.985,723.274L947.985,724.522C948.332,723.759 948.834,723.179 949.493,722.78C950.152,722.381 950.897,722.147 951.729,722.078L952.093,722.052ZM958.723,735.182C956.955,735.182 955.508,734.818 954.381,734.09C954.069,733.899 953.848,733.7 953.718,733.492C953.588,733.284 953.523,733.05 953.523,732.79C953.523,732.513 953.601,732.279 953.757,732.088C953.913,731.897 954.112,731.802 954.355,731.802C954.58,731.802 954.936,731.941 955.421,732.218C955.941,732.495 956.448,732.721 956.942,732.894C957.436,733.067 958.056,733.154 958.801,733.154C959.633,733.154 960.283,733.007 960.751,732.712C961.219,732.417 961.453,732.001 961.453,731.464C961.453,731.117 961.362,730.84 961.18,730.632C960.998,730.424 960.682,730.238 960.231,730.073C959.78,729.908 959.113,729.731 958.229,729.54C956.704,729.211 955.607,728.764 954.94,728.201C954.273,727.638 953.939,726.871 953.939,725.9C953.939,725.155 954.156,724.483 954.589,723.885C955.022,723.287 955.62,722.823 956.383,722.494C957.146,722.165 958.012,722 958.983,722C959.676,722 960.352,722.091 961.011,722.273C961.67,722.455 962.25,722.719 962.753,723.066C963.325,723.447 963.611,723.889 963.611,724.392C963.611,724.669 963.529,724.903 963.364,725.094C963.199,725.285 963.004,725.38 962.779,725.38C962.623,725.38 962.467,725.345 962.311,725.276C962.155,725.207 961.947,725.094 961.687,724.938C961.219,724.661 960.781,724.444 960.374,724.288C959.967,724.132 959.46,724.054 958.853,724.054C958.125,724.054 957.54,724.21 957.098,724.522C956.656,724.834 956.435,725.259 956.435,725.796C956.435,726.281 956.639,726.658 957.046,726.927C957.453,727.196 958.22,727.451 959.347,727.694C960.508,727.937 961.418,728.214 962.077,728.526C962.736,728.838 963.208,729.224 963.494,729.683C963.78,730.142 963.923,730.727 963.923,731.438C963.923,732.565 963.451,733.47 962.506,734.155C961.561,734.84 960.3,735.182 958.723,735.182Z" style="fill:rgb(102,102,102);"/>
        </g>
    </g>
</svg>
