<?xml version="1.0" encoding="UTF-8" standalone="no"?>
<!DOCTYPE svg PUBLIC "-//W3C//DTD SVG 1.1//EN" "http://www.w3.org/Graphics/SVG/1.1/DTD/svg11.dtd">
<svg width="100%" height="100%" viewBox="0 0 111 24" version="1.1" xmlns="http://www.w3.org/2000/svg" xmlns:xlink="http://www.w3.org/1999/xlink" xml:space="preserve" xmlns:serif="http://www.serif.com/" style="fill-rule:evenodd;clip-rule:evenodd;stroke-linejoin:round;stroke-miterlimit:1.41421;">
    <g transform="matrix(1,0,0,1,-1111,-794)">
        <g transform="matrix(1,0,0,1,27,27)">
            <path id="txt_3rd-Party" d="M1093.56,776.588C1094.67,776.9 1095.51,777.433 1096.08,778.187C1096.65,778.941 1096.94,779.89 1096.94,781.034C1096.94,782.629 1096.38,783.885 1095.26,784.804C1094.14,785.723 1092.63,786.182 1090.72,786.182C1089.6,786.182 1088.52,786 1087.49,785.636C1086.46,785.272 1085.59,784.769 1084.88,784.128C1084.53,783.851 1084.36,783.504 1084.36,783.088C1084.36,782.776 1084.44,782.512 1084.62,782.295C1084.79,782.078 1085,781.97 1085.24,781.97C1085.5,781.97 1085.79,782.083 1086.12,782.308C1086.87,782.863 1087.6,783.283 1088.32,783.569C1089.04,783.855 1089.82,783.998 1090.65,783.998C1093.11,783.998 1094.34,782.949 1094.34,780.852C1094.34,779.829 1094.01,779.062 1093.36,778.551C1092.71,778.04 1091.73,777.784 1090.41,777.784L1088.98,777.784C1088.65,777.784 1088.39,777.676 1088.2,777.459C1088.01,777.242 1087.92,776.987 1087.92,776.692C1087.92,776.415 1088.01,776.168 1088.2,775.951C1088.39,775.734 1088.65,775.626 1088.98,775.626L1090,775.626C1091.26,775.626 1092.23,775.362 1092.9,774.833C1093.56,774.304 1093.9,773.529 1093.9,772.506C1093.9,771.605 1093.62,770.903 1093.08,770.4C1092.53,769.897 1091.77,769.646 1090.78,769.646C1089.32,769.646 1087.87,770.209 1086.41,771.336C1086.08,771.561 1085.79,771.674 1085.53,771.674C1085.28,771.674 1085.07,771.566 1084.9,771.349C1084.73,771.132 1084.64,770.868 1084.64,770.556C1084.64,770.14 1084.81,769.793 1085.16,769.516C1085.87,768.875 1086.73,768.372 1087.75,768.008C1088.76,767.644 1089.81,767.462 1090.88,767.462C1092.6,767.462 1093.96,767.887 1094.98,768.736C1095.99,769.585 1096.5,770.738 1096.5,772.194C1096.5,773.234 1096.24,774.14 1095.73,774.911C1095.22,775.682 1094.5,776.241 1093.56,776.588ZM1106.69,773.052C1107.52,773 1107.94,773.355 1107.94,774.118C1107.94,774.499 1107.84,774.785 1107.65,774.976C1107.46,775.167 1107.13,775.279 1106.66,775.314L1105.88,775.392C1104.79,775.496 1103.98,775.877 1103.45,776.536C1102.92,777.195 1102.66,777.992 1102.66,778.928L1102.66,784.882C1102.66,785.298 1102.54,785.61 1102.3,785.818C1102.05,786.026 1101.74,786.13 1101.36,786.13C1100.98,786.13 1100.66,786.026 1100.41,785.818C1100.16,785.61 1100.03,785.298 1100.03,784.882L1100.03,774.3C1100.03,773.901 1100.16,773.594 1100.41,773.377C1100.66,773.16 1100.98,773.052 1101.36,773.052C1101.71,773.052 1102,773.16 1102.23,773.377C1102.46,773.594 1102.58,773.893 1102.58,774.274L1102.58,775.522C1102.93,774.759 1103.43,774.179 1104.09,773.78C1104.75,773.381 1105.49,773.147 1106.33,773.078L1106.69,773.052ZM1119.14,767.54C1119.54,767.54 1119.86,767.653 1120.11,767.878C1120.35,768.103 1120.47,768.407 1120.47,768.788L1120.47,784.856C1120.47,785.255 1120.35,785.567 1120.12,785.792C1119.88,786.017 1119.57,786.13 1119.17,786.13C1118.77,786.13 1118.45,786.017 1118.22,785.792C1117.99,785.567 1117.87,785.255 1117.87,784.856L1117.87,783.816C1117.49,784.579 1116.93,785.164 1116.2,785.571C1115.48,785.978 1114.64,786.182 1113.68,786.182C1112.59,786.182 1111.62,785.905 1110.76,785.35C1109.9,784.795 1109.23,784.015 1108.76,783.01C1108.28,782.005 1108.04,780.852 1108.04,779.552C1108.04,778.235 1108.28,777.082 1108.76,776.094C1109.23,775.106 1109.9,774.343 1110.75,773.806C1111.59,773.269 1112.57,773 1113.68,773C1114.64,773 1115.47,773.204 1116.19,773.611C1116.91,774.018 1117.46,774.595 1117.84,775.34L1117.84,768.736C1117.84,768.372 1117.96,768.082 1118.19,767.865C1118.43,767.648 1118.74,767.54 1119.14,767.54ZM1114.31,784.102C1115.43,784.102 1116.31,783.712 1116.93,782.932C1117.56,782.152 1117.87,781.043 1117.87,779.604C1117.87,778.165 1117.56,777.056 1116.95,776.276C1116.33,775.496 1115.45,775.106 1114.31,775.106C1113.16,775.106 1112.28,775.492 1111.64,776.263C1111.01,777.034 1110.69,778.131 1110.69,779.552C1110.69,780.973 1111.01,782.087 1111.65,782.893C1112.3,783.699 1113.18,784.102 1114.31,784.102ZM1124.6,780.124C1124.2,780.124 1123.9,780.033 1123.69,779.851C1123.49,779.669 1123.38,779.413 1123.38,779.084C1123.38,778.755 1123.49,778.495 1123.69,778.304C1123.9,778.113 1124.2,778.018 1124.6,778.018L1130.14,778.018C1130.54,778.018 1130.84,778.113 1131.05,778.304C1131.26,778.495 1131.36,778.755 1131.36,779.084C1131.36,779.413 1131.26,779.669 1131.05,779.851C1130.84,780.033 1130.54,780.124 1130.14,780.124L1124.6,780.124ZM1135.89,786.13C1135.49,786.13 1135.17,786.009 1134.92,785.766C1134.68,785.523 1134.56,785.194 1134.56,784.778L1134.56,768.97C1134.56,768.571 1134.68,768.255 1134.91,768.021C1135.15,767.787 1135.47,767.67 1135.89,767.67L1142.15,767.67C1144.09,767.67 1145.6,768.147 1146.68,769.1C1147.75,770.053 1148.29,771.405 1148.29,773.156C1148.29,774.889 1147.75,776.241 1146.68,777.212C1145.6,778.183 1144.09,778.668 1142.15,778.668L1137.24,778.668L1137.24,784.778C1137.24,785.194 1137.12,785.523 1136.89,785.766C1136.65,786.009 1136.32,786.13 1135.89,786.13ZM1141.87,776.51C1144.43,776.51 1145.71,775.392 1145.71,773.156C1145.71,770.937 1144.43,769.828 1141.87,769.828L1137.24,769.828L1137.24,776.51L1141.87,776.51ZM1155.7,773C1157.38,773 1158.63,773.425 1159.46,774.274C1160.28,775.123 1160.69,776.415 1160.69,778.148L1160.69,784.882C1160.69,785.281 1160.58,785.588 1160.35,785.805C1160.13,786.022 1159.82,786.13 1159.42,786.13C1159.04,786.13 1158.73,786.017 1158.51,785.792C1158.28,785.567 1158.17,785.263 1158.17,784.882L1158.17,783.92C1157.84,784.648 1157.35,785.207 1156.7,785.597C1156.05,785.987 1155.29,786.182 1154.42,786.182C1153.59,786.182 1152.83,786.013 1152.14,785.675C1151.44,785.337 1150.9,784.865 1150.51,784.258C1150.12,783.651 1149.93,782.975 1149.93,782.23C1149.93,781.311 1150.16,780.588 1150.64,780.059C1151.12,779.53 1151.91,779.153 1153.01,778.928C1154.11,778.703 1155.62,778.59 1157.55,778.59L1158.14,778.59L1158.14,777.836C1158.14,776.865 1157.94,776.163 1157.55,775.73C1157.15,775.297 1156.51,775.08 1155.62,775.08C1155.01,775.08 1154.44,775.158 1153.9,775.314C1153.37,775.47 1152.78,775.695 1152.14,775.99C1151.67,776.25 1151.34,776.38 1151.15,776.38C1150.89,776.38 1150.68,776.285 1150.51,776.094C1150.35,775.903 1150.27,775.661 1150.27,775.366C1150.27,775.106 1150.34,774.876 1150.49,774.677C1150.63,774.478 1150.87,774.283 1151.2,774.092C1151.81,773.763 1152.52,773.498 1153.33,773.299C1154.15,773.1 1154.94,773 1155.7,773ZM1154.89,784.232C1155.85,784.232 1156.63,783.907 1157.23,783.257C1157.84,782.607 1158.14,781.771 1158.14,780.748L1158.14,780.072L1157.67,780.072C1156.32,780.072 1155.28,780.133 1154.56,780.254C1153.83,780.375 1153.31,780.579 1153,780.865C1152.68,781.151 1152.53,781.563 1152.53,782.1C1152.53,782.724 1152.75,783.235 1153.2,783.634C1153.65,784.033 1154.22,784.232 1154.89,784.232ZM1170.41,773.052C1171.25,773 1171.66,773.355 1171.66,774.118C1171.66,774.499 1171.57,774.785 1171.38,774.976C1171.19,775.167 1170.86,775.279 1170.39,775.314L1169.61,775.392C1168.52,775.496 1167.71,775.877 1167.18,776.536C1166.65,777.195 1166.38,777.992 1166.38,778.928L1166.38,784.882C1166.38,785.298 1166.26,785.61 1166.02,785.818C1165.78,786.026 1165.47,786.13 1165.09,786.13C1164.7,786.13 1164.39,786.026 1164.14,785.818C1163.88,785.61 1163.76,785.298 1163.76,784.882L1163.76,774.3C1163.76,773.901 1163.88,773.594 1164.14,773.377C1164.39,773.16 1164.7,773.052 1165.09,773.052C1165.43,773.052 1165.72,773.16 1165.96,773.377C1166.19,773.594 1166.31,773.893 1166.31,774.274L1166.31,775.522C1166.65,774.759 1167.16,774.179 1167.82,773.78C1168.47,773.381 1169.22,773.147 1170.05,773.078L1170.41,773.052ZM1180.06,784.128C1180.44,784.163 1180.71,784.262 1180.88,784.427C1181.05,784.592 1181.13,784.821 1181.13,785.116C1181.13,785.463 1180.99,785.727 1180.72,785.909C1180.45,786.091 1180.06,786.165 1179.54,786.13L1178.84,786.078C1177.43,785.974 1176.39,785.545 1175.69,784.791C1175,784.037 1174.65,782.923 1174.65,781.45L1174.65,775.34L1173.09,775.34C1172.33,775.34 1171.95,775.002 1171.95,774.326C1171.95,774.014 1172.05,773.767 1172.25,773.585C1172.45,773.403 1172.73,773.312 1173.09,773.312L1174.65,773.312L1174.65,770.634C1174.65,770.235 1174.77,769.923 1175,769.698C1175.24,769.473 1175.55,769.36 1175.95,769.36C1176.35,769.36 1176.67,769.473 1176.91,769.698C1177.16,769.923 1177.28,770.235 1177.28,770.634L1177.28,773.312L1179.85,773.312C1180.22,773.312 1180.5,773.403 1180.7,773.585C1180.9,773.767 1181,774.014 1181,774.326C1181,774.655 1180.9,774.907 1180.7,775.08C1180.5,775.253 1180.22,775.34 1179.85,775.34L1177.28,775.34L1177.28,781.632C1177.28,782.447 1177.45,783.045 1177.79,783.426C1178.12,783.807 1178.64,784.024 1179.33,784.076L1180.06,784.128ZM1191.71,773.832C1191.81,773.572 1191.96,773.381 1192.16,773.26C1192.36,773.139 1192.58,773.078 1192.8,773.078C1193.13,773.078 1193.42,773.191 1193.67,773.416C1193.92,773.641 1194.05,773.91 1194.05,774.222C1194.05,774.395 1194.01,774.56 1193.94,774.716L1186.72,790.056C1186.61,790.299 1186.46,790.485 1186.26,790.615C1186.06,790.745 1185.85,790.81 1185.62,790.81C1185.31,790.81 1185.03,790.706 1184.78,790.498C1184.53,790.29 1184.4,790.03 1184.4,789.718C1184.4,789.579 1184.45,789.406 1184.53,789.198L1186.33,785.376L1181.31,774.716C1181.24,774.577 1181.2,774.421 1181.2,774.248C1181.2,773.919 1181.34,773.641 1181.62,773.416C1181.9,773.191 1182.21,773.078 1182.56,773.078C1183.08,773.078 1183.45,773.321 1183.67,773.806L1187.7,782.75L1191.71,773.832Z" style="fill:rgb(102,102,102);"/>
        </g>
    </g>
</svg>
