<?xml version="1.0" encoding="UTF-8" standalone="no"?>
<!DOCTYPE svg PUBLIC "-//W3C//DTD SVG 1.1//EN" "http://www.w3.org/Graphics/SVG/1.1/DTD/svg11.dtd">
<svg width="100%" height="100%" viewBox="0 0 136 24" version="1.1" xmlns="http://www.w3.org/2000/svg" xmlns:xlink="http://www.w3.org/1999/xlink" xml:space="preserve" xmlns:serif="http://www.serif.com/" style="fill-rule:evenodd;clip-rule:evenodd;stroke-linejoin:round;stroke-miterlimit:1.41421;">
    <g transform="matrix(1,0,0,1,-304,-474)">
        <g transform="matrix(1,0,0,1,27,27)">
            <path id="txt_App-Control" d="M295.148,464.44C295.235,464.648 295.278,464.821 295.278,464.96C295.278,465.289 295.144,465.567 294.875,465.792C294.607,466.017 294.308,466.13 293.978,466.13C293.753,466.13 293.541,466.065 293.341,465.935C293.142,465.805 292.99,465.619 292.886,465.376L291.17,461.476L281.654,461.476L279.938,465.376C279.834,465.619 279.678,465.805 279.47,465.935C279.262,466.065 279.046,466.13 278.82,466.13C278.474,466.13 278.166,466.017 277.897,465.792C277.629,465.567 277.494,465.289 277.494,464.96C277.494,464.821 277.538,464.648 277.624,464.44L284.956,448.398C285.078,448.121 285.273,447.904 285.541,447.748C285.81,447.592 286.092,447.514 286.386,447.514C286.681,447.514 286.963,447.592 287.231,447.748C287.5,447.904 287.695,448.121 287.816,448.398L295.148,464.44ZM282.616,459.344L290.234,459.344L286.412,450.738L282.616,459.344ZM304.04,453C305.132,453 306.107,453.277 306.965,453.832C307.823,454.387 308.491,455.167 308.967,456.172C309.444,457.177 309.682,458.339 309.682,459.656C309.682,460.956 309.448,462.1 308.98,463.088C308.512,464.076 307.849,464.839 306.991,465.376C306.133,465.913 305.15,466.182 304.04,466.182C303.087,466.182 302.246,465.978 301.518,465.571C300.79,465.164 300.236,464.579 299.854,463.816L299.854,469.614C299.854,469.978 299.737,470.268 299.503,470.485C299.269,470.702 298.962,470.81 298.58,470.81C298.182,470.81 297.857,470.697 297.605,470.472C297.354,470.247 297.228,469.943 297.228,469.562L297.228,454.326C297.228,453.945 297.35,453.637 297.592,453.403C297.835,453.169 298.156,453.052 298.554,453.052C298.936,453.052 299.248,453.169 299.49,453.403C299.733,453.637 299.854,453.945 299.854,454.326L299.854,455.392C300.236,454.629 300.79,454.04 301.518,453.624C302.246,453.208 303.087,453 304.04,453ZM303.416,464.102C304.56,464.102 305.444,463.716 306.068,462.945C306.692,462.174 307.004,461.077 307.004,459.656C307.004,458.217 306.688,457.099 306.055,456.302C305.423,455.505 304.543,455.106 303.416,455.106C302.272,455.106 301.393,455.496 300.777,456.276C300.162,457.056 299.854,458.165 299.854,459.604C299.854,461.043 300.162,462.152 300.777,462.932C301.393,463.712 302.272,464.102 303.416,464.102ZM318.886,453C319.978,453 320.953,453.277 321.811,453.832C322.669,454.387 323.337,455.167 323.813,456.172C324.29,457.177 324.528,458.339 324.528,459.656C324.528,460.956 324.294,462.1 323.826,463.088C323.358,464.076 322.695,464.839 321.837,465.376C320.979,465.913 319.996,466.182 318.886,466.182C317.933,466.182 317.092,465.978 316.364,465.571C315.636,465.164 315.082,464.579 314.7,463.816L314.7,469.614C314.7,469.978 314.583,470.268 314.349,470.485C314.115,470.702 313.808,470.81 313.426,470.81C313.028,470.81 312.703,470.697 312.451,470.472C312.2,470.247 312.074,469.943 312.074,469.562L312.074,454.326C312.074,453.945 312.196,453.637 312.438,453.403C312.681,453.169 313.002,453.052 313.4,453.052C313.782,453.052 314.094,453.169 314.336,453.403C314.579,453.637 314.7,453.945 314.7,454.326L314.7,455.392C315.082,454.629 315.636,454.04 316.364,453.624C317.092,453.208 317.933,453 318.886,453ZM318.262,464.102C319.406,464.102 320.29,463.716 320.914,462.945C321.538,462.174 321.85,461.077 321.85,459.656C321.85,458.217 321.534,457.099 320.901,456.302C320.269,455.505 319.389,455.106 318.262,455.106C317.118,455.106 316.239,455.496 315.623,456.276C315.008,457.056 314.7,458.165 314.7,459.604C314.7,461.043 315.008,462.152 315.623,462.932C316.239,463.712 317.118,464.102 318.262,464.102ZM341.558,466.208C339.808,466.208 338.282,465.831 336.982,465.077C335.682,464.323 334.686,463.24 333.992,461.827C333.299,460.414 332.952,458.746 332.952,456.822C332.952,454.915 333.299,453.256 333.992,451.843C334.686,450.43 335.682,449.347 336.982,448.593C338.282,447.839 339.808,447.462 341.558,447.462C342.702,447.462 343.786,447.64 344.808,447.995C345.831,448.35 346.724,448.866 347.486,449.542C347.816,449.802 347.98,450.149 347.98,450.582C347.98,450.894 347.894,451.158 347.72,451.375C347.547,451.592 347.339,451.7 347.096,451.7C346.802,451.7 346.516,451.587 346.238,451.362C345.406,450.738 344.648,450.3 343.963,450.049C343.279,449.798 342.503,449.672 341.636,449.672C339.73,449.672 338.265,450.287 337.242,451.518C336.22,452.749 335.708,454.517 335.708,456.822C335.708,459.145 336.22,460.921 337.242,462.152C338.265,463.383 339.73,463.998 341.636,463.998C342.468,463.998 343.227,463.868 343.911,463.608C344.596,463.348 345.372,462.915 346.238,462.308C346.585,462.083 346.871,461.97 347.096,461.97C347.339,461.97 347.547,462.078 347.72,462.295C347.894,462.512 347.98,462.776 347.98,463.088C347.98,463.521 347.816,463.868 347.486,464.128C346.724,464.804 345.831,465.32 344.808,465.675C343.786,466.03 342.702,466.208 341.558,466.208ZM355.598,466.182C354.35,466.182 353.254,465.913 352.309,465.376C351.365,464.839 350.637,464.072 350.125,463.075C349.614,462.078 349.358,460.921 349.358,459.604C349.358,458.269 349.614,457.104 350.125,456.107C350.637,455.11 351.365,454.343 352.309,453.806C353.254,453.269 354.35,453 355.598,453C356.846,453 357.943,453.269 358.887,453.806C359.832,454.343 360.56,455.11 361.071,456.107C361.583,457.104 361.838,458.269 361.838,459.604C361.838,460.921 361.583,462.078 361.071,463.075C360.56,464.072 359.832,464.839 358.887,465.376C357.943,465.913 356.846,466.182 355.598,466.182ZM355.598,464.102C356.76,464.102 357.648,463.721 358.263,462.958C358.879,462.195 359.186,461.077 359.186,459.604C359.186,458.148 358.874,457.034 358.25,456.263C357.626,455.492 356.742,455.106 355.598,455.106C354.454,455.106 353.57,455.492 352.946,456.263C352.322,457.034 352.01,458.148 352.01,459.604C352.01,461.077 352.318,462.195 352.933,462.958C353.549,463.721 354.437,464.102 355.598,464.102ZM371.068,453C374.102,453 375.618,454.707 375.618,458.122L375.618,464.882C375.618,465.281 375.501,465.588 375.267,465.805C375.033,466.022 374.708,466.13 374.292,466.13C373.894,466.13 373.577,466.017 373.343,465.792C373.109,465.567 372.992,465.263 372.992,464.882L372.992,458.252C372.992,457.177 372.78,456.389 372.355,455.886C371.931,455.383 371.268,455.132 370.366,455.132C369.309,455.132 368.46,455.461 367.818,456.12C367.177,456.779 366.856,457.663 366.856,458.772L366.856,464.882C366.856,465.263 366.739,465.567 366.505,465.792C366.271,466.017 365.955,466.13 365.556,466.13C365.158,466.13 364.837,466.017 364.594,465.792C364.352,465.567 364.23,465.263 364.23,464.882L364.23,454.3C364.23,453.936 364.356,453.637 364.607,453.403C364.859,453.169 365.175,453.052 365.556,453.052C365.938,453.052 366.241,453.165 366.466,453.39C366.692,453.615 366.804,453.91 366.804,454.274L366.804,455.34C367.22,454.577 367.801,453.997 368.546,453.598C369.292,453.199 370.132,453 371.068,453ZM384.9,464.128C385.282,464.163 385.555,464.262 385.719,464.427C385.884,464.592 385.966,464.821 385.966,465.116C385.966,465.463 385.832,465.727 385.563,465.909C385.295,466.091 384.9,466.165 384.38,466.13L383.678,466.078C382.274,465.974 381.226,465.545 380.532,464.791C379.839,464.037 379.492,462.923 379.492,461.45L379.492,455.34L377.932,455.34C377.17,455.34 376.788,455.002 376.788,454.326C376.788,454.014 376.888,453.767 377.087,453.585C377.287,453.403 377.568,453.312 377.932,453.312L379.492,453.312L379.492,450.634C379.492,450.235 379.609,449.923 379.843,449.698C380.077,449.473 380.394,449.36 380.792,449.36C381.191,449.36 381.512,449.473 381.754,449.698C381.997,449.923 382.118,450.235 382.118,450.634L382.118,453.312L384.692,453.312C385.056,453.312 385.338,453.403 385.537,453.585C385.737,453.767 385.836,454.014 385.836,454.326C385.836,454.655 385.737,454.907 385.537,455.08C385.338,455.253 385.056,455.34 384.692,455.34L382.118,455.34L382.118,461.632C382.118,462.447 382.287,463.045 382.625,463.426C382.963,463.807 383.479,464.024 384.172,464.076L384.9,464.128ZM394,453.052C394.832,453 395.248,453.355 395.248,454.118C395.248,454.499 395.153,454.785 394.962,454.976C394.772,455.167 394.442,455.279 393.974,455.314L393.194,455.392C392.102,455.496 391.292,455.877 390.763,456.536C390.235,457.195 389.97,457.992 389.97,458.928L389.97,464.882C389.97,465.298 389.849,465.61 389.606,465.818C389.364,466.026 389.052,466.13 388.67,466.13C388.289,466.13 387.973,466.026 387.721,465.818C387.47,465.61 387.344,465.298 387.344,464.882L387.344,454.3C387.344,453.901 387.47,453.594 387.721,453.377C387.973,453.16 388.289,453.052 388.67,453.052C389.017,453.052 389.307,453.16 389.541,453.377C389.775,453.594 389.892,453.893 389.892,454.274L389.892,455.522C390.239,454.759 390.742,454.179 391.4,453.78C392.059,453.381 392.804,453.147 393.636,453.078L394,453.052ZM401.592,466.182C400.344,466.182 399.248,465.913 398.303,465.376C397.359,464.839 396.631,464.072 396.119,463.075C395.608,462.078 395.352,460.921 395.352,459.604C395.352,458.269 395.608,457.104 396.119,456.107C396.631,455.11 397.359,454.343 398.303,453.806C399.248,453.269 400.344,453 401.592,453C402.84,453 403.937,453.269 404.881,453.806C405.826,454.343 406.554,455.11 407.065,456.107C407.577,457.104 407.832,458.269 407.832,459.604C407.832,460.921 407.577,462.078 407.065,463.075C406.554,464.072 405.826,464.839 404.881,465.376C403.937,465.913 402.84,466.182 401.592,466.182ZM401.592,464.102C402.754,464.102 403.642,463.721 404.257,462.958C404.873,462.195 405.18,461.077 405.18,459.604C405.18,458.148 404.868,457.034 404.244,456.263C403.62,455.492 402.736,455.106 401.592,455.106C400.448,455.106 399.564,455.492 398.94,456.263C398.316,457.034 398.004,458.148 398.004,459.604C398.004,461.077 398.312,462.195 398.927,462.958C399.543,463.721 400.431,464.102 401.592,464.102ZM411.55,466.13C411.169,466.13 410.853,466.026 410.601,465.818C410.35,465.61 410.224,465.298 410.224,464.882L410.224,448.814C410.224,448.398 410.35,448.082 410.601,447.865C410.853,447.648 411.169,447.54 411.55,447.54C411.932,447.54 412.244,447.648 412.486,447.865C412.729,448.082 412.85,448.398 412.85,448.814L412.85,464.882C412.85,465.298 412.729,465.61 412.486,465.818C412.244,466.026 411.932,466.13 411.55,466.13Z" style="fill:rgb(102,102,102);"/>
        </g>
    </g>
</svg>
