<?xml version="1.0" encoding="UTF-8" standalone="no"?>
<svg width="350px" height="350px" viewBox="0 0 350 350" version="1.1" xmlns="http://www.w3.org/2000/svg" xmlns:xlink="http://www.w3.org/1999/xlink">
    <!-- Generator: Sketch 49.3 (51167) - http://www.bohemiancoding.com/sketch -->
    <title>Logo_CSC_Color</title>
    <desc>Created with Sketch.</desc>
    <defs>
        <rect id="path-1" x="0" y="0" width="350" height="350"></rect>
    </defs>
    <g id="Page-1" stroke="none" stroke-width="1" fill="none" fill-rule="evenodd">
        <g id="Logo_CSC_Color">
            <g id="Rectangle" opacity="0">
                <use fill="#D8D8D8" fill-rule="evenodd" xlink:href="#path-1"></use>
                <rect stroke="#979797" stroke-width="1" x="0.5" y="0.5" width="349" height="349"></rect>
            </g>
            <path d="M179.1,104.5 C182.9,104.4 199.9,104.2 216.4,106.4 C222.2,107 228,107.9 233.1,109.2 C233.1,109.2 240.3,111 241.6,118.3 C242.1,121 242.7,124.6 243.1,128.7 C243.6,133.9 244,140 243.7,147 C243.7,147 243.7,147 243.6,147 C243.2,147 242.8,147 242.4,146.9 C242.3,146.9 242.2,146.9 242.1,146.9 C241.6,146.8 241.2,146.8 240.7,146.7 C240.6,146.7 240.5,146.7 240.4,146.7 C239.9,146.6 239.4,146.6 238.9,146.5 C238.9,146.5 238.8,146.5 238.7,146.5 C238.2,146.4 237.8,146.4 237.3,146.3 C237.2,146.3 237.1,146.3 237,146.3 C236.5,146.2 235.9,146.2 235.4,146.1 C235.3,146.1 235.2,146.1 235.1,146.1 C234.5,146 234,146 233.4,145.9 C233.3,145.9 233.3,145.9 233.2,145.9 C232.7,145.8 232.2,145.8 231.6,145.7 C231.5,145.7 231.4,145.7 231.3,145.7 C230.8,145.6 230.2,145.6 229.6,145.5 C229.5,145.5 229.3,145.5 229.2,145.5 C228.6,145.4 228,145.4 227.4,145.3 L227.3,145.3 C226.7,145.2 226.1,145.2 225.5,145.1 C225.4,145 225.3,145 225.1,145 C224.5,144.9 223.9,144.9 223.3,144.8 C223.2,144.8 223,144.8 222.9,144.8 C222.3,144.7 221.7,144.7 221.1,144.6 C221,144.6 221,144.6 220.9,144.6 C220.3,144.5 219.7,144.5 219,144.4 C218.9,144.4 218.7,144.4 218.6,144.4 C218,144.3 217.4,144.3 216.7,144.2 C216.6,144.2 216.4,144.2 216.3,144.2 C215.7,144.1 215.1,144.1 214.5,144 C214.4,144 214.3,144 214.2,144 C213.5,143.9 212.9,143.9 212.2,143.8 C212,143.8 211.9,143.8 211.7,143.8 C211,143.7 210.4,143.7 209.7,143.6 C209.6,143.6 209.5,143.6 209.4,143.6 C208.8,143.6 208.1,143.6 207.5,143.5 C207.4,143.5 207.3,143.5 207.2,143.5 C206.6,143.5 205.9,143.5 205.2,143.4 C205.1,143.4 205,143.4 204.8,143.4 C204.2,143.4 203.5,143.4 202.8,143.3 C202.7,143.3 202.6,143.3 202.5,143.3 C201.9,143.3 201.2,143.2 200.6,143.2 C200.5,143.2 200.4,143.2 200.3,143.2 C199.7,143.2 199,143.1 198.3,143.1 C198.2,143.1 198.1,143.1 197.9,143.1 C197.2,143.1 196.5,143 195.8,143 L195.7,143 C195,143 194.4,142.9 193.7,142.9 C193.5,142.9 193.4,142.9 193.3,142.9 C192.6,142.9 192,142.8 191.3,142.8 C191.2,142.8 191,142.8 190.9,142.8 C190.3,142.8 189.6,142.7 188.9,142.7 C185.8,142.6 182.7,142.5 179.7,142.5 L179.9,104.5 C179.9,104.5 179.6,104.5 179.1,104.5 Z M242.8,160.4 C239.2,188.2 226.4,224.1 190.2,258.6 C186.7,261.9 183,265.2 179.1,268.5 L179,267.8 L179.5,175.1 C188.2,172.3 198.1,169.6 208.9,167.1 C222.1,164 234.3,161.8 242.8,160.4 Z" id="shield_r_gray" fill="#65656B" fill-rule="nonzero"></path>
            <path d="M114.4,151 C113.9,142.3 114.2,134.7 114.7,128.6 C115.1,124.4 115.7,120.9 116.2,118.1 C117.5,110.8 124.7,109 124.7,109 C129.9,107.7 135.7,106.8 141.5,106.1 C158.2,104.2 175.2,104.4 179,104.5 C179.5,104.5 179.8,104.5 179.8,104.5 L179.6,142.5 C151.5,142.3 129.7,145.2 114.4,151 Z M179.5,175.1 L179,267.6 L179,268.3 C175.1,265 171.4,261.7 167.9,258.4 C166.8,257.4 165.8,256.4 164.8,255.4 C161.3,252 158.1,248.6 155.3,245.3 C150.8,240.3 147.2,235.6 144.4,231.7 C139.3,224.7 136.7,220 136.7,220 C136.6,219.6 136.4,219.3 136.3,218.9 C129.6,204.6 138.2,195.9 141.6,193.3 C141.8,193.2 141.9,193 142.1,192.9 C144.3,191.2 147,189.4 150,187.6 C150.7,187.1 151.2,186.9 151.2,186.9 C158.6,182.8 168.1,178.8 179.5,175.1 Z M184.1,48.4 L184.2,29.9 C256.8,34.4 314.9,92.1 320,164.6 L301.5,164.6 C296.4,102.4 246.5,52.8 184.1,48.4 Z M166,301.5 L166,320 C92.5,315.5 33.9,256.4 30,182.7 L48.5,182.7 C52.3,246.2 102.7,297.1 166,301.5 Z" id="ring_shield_orange" fill="#9D9D9F" fill-rule="nonzero"></path>
            <path d="M144.4,231.8 C147.2,235.7 150.8,240.4 155.3,245.3 C137.7,237.4 104.8,219.5 95.6,194.3 C81.3,155.3 134.4,146.5 188.8,148 C218.1,148.8 253.9,153.3 253.9,153.3 C253.9,153.3 169.3,164.1 138.7,188.8 C122.4,202 132.2,219 144.4,231.8 Z M48.7,164.7 L30.3,164.7 C35.3,92.2 93.5,34.4 166.1,30 L166.1,48.5 C103.6,52.9 53.7,102.4 48.7,164.7 Z M301.6,182.7 L320.1,182.7 C316.2,256.4 257.5,315.5 184.1,320 L184.1,301.5 C247.3,297.1 297.8,246.2 301.6,182.7 Z" id="ring_orange" fill="#FF6C0C" fill-rule="nonzero"></path>
        </g>
    </g>
</svg>