<?xml version="1.0" encoding="UTF-8" standalone="no"?>
<!DOCTYPE svg PUBLIC "-//W3C//DTD SVG 1.1//EN" "http://www.w3.org/Graphics/SVG/1.1/DTD/svg11.dtd">
<svg width="100%" height="100%" viewBox="0 0 148 119" version="1.1" xmlns="http://www.w3.org/2000/svg" xmlns:xlink="http://www.w3.org/1999/xlink" xml:space="preserve" xmlns:serif="http://www.serif.com/" style="fill-rule:evenodd;clip-rule:evenodd;stroke-linejoin:round;stroke-miterlimit:1.41421;">
    <g transform="matrix(1,0,0,1,-1091,-658)">
        <g transform="matrix(1,0,0,1,27,27)">
            <g id="Users-Cloud">
                <path id="Combined-Shape" d="M1175.94,720.353L1184.88,720.353C1195.3,720.353 1203.41,711.918 1203.41,701.95C1203.41,691.599 1194.92,683.548 1184.88,683.548C1184.5,683.548 1184.5,683.548 1184.11,683.548C1184.5,682.014 1184.88,680.48 1184.88,678.947C1184.88,670.129 1177.55,662.844 1168.68,662.844C1165.98,662.844 1162.89,663.611 1160.57,665.145C1157.1,650.959 1144.37,640.608 1128.93,640.608C1112.34,640.608 1098.45,653.26 1096.13,669.745C1083.01,670.512 1072.59,681.631 1072.59,695.049C1072.59,708.091 1082.59,719.079 1095.73,720.25L1091.08,728.206C1075.52,724.821 1064,710.998 1064,694.276C1064,678.843 1074.35,665.339 1088.92,661.094C1093.91,643.732 1110.01,631 1128.8,631C1144.52,631 1158.7,639.874 1165.61,653.378C1166.37,653.378 1167.52,653.378 1168.29,653.378C1180.94,653.378 1191.68,663.024 1193.21,675.37C1203.95,679.228 1212,689.26 1212,701.606C1212,716.654 1199.73,729 1184.78,729L1179.93,729L1175.94,720.353Z" style="fill:rgb(100,101,105);fill-rule:nonzero;"/>
                <path id="Users" d="M1154.26,740.37C1154.64,739.55 1154.93,738.651 1154.93,737.611C1154.93,728.001 1148.94,719.567 1142.64,715.163C1144.52,714.664 1146.43,714.37 1148.3,714.37C1159.27,714.37 1171.23,723.013 1171.27,735.15C1168.94,738.039 1162.05,739.776 1154.26,740.37M1099.68,737.184C1099.68,727.01 1109.84,715.823 1123.59,715.333C1123.9,715.349 1124.2,715.384 1124.51,715.384C1124.83,715.384 1125.14,715.349 1125.45,715.333C1138,715.812 1149.32,725.682 1149.32,737.184C1147.71,740.332 1136.84,743.259 1124.51,743.259C1112.19,743.259 1101.07,740.258 1099.68,737.184M1109.23,694.149C1109.23,685.638 1116.07,678.741 1124.5,678.741C1132.93,678.741 1139.77,685.642 1139.77,694.149C1139.77,702.655 1132.93,709.556 1124.5,709.556C1116.07,709.556 1109.23,702.655 1109.23,694.149M1137.93,710.519C1137.94,710.52 1137.95,710.528 1137.96,710.536C1137.93,710.545 1137.89,710.563 1137.86,710.574C1137.89,710.557 1137.91,710.536 1137.93,710.519M1161.73,694.15C1161.73,702.12 1155.46,708.593 1147.76,708.593C1145.16,708.593 1142.79,707.784 1140.73,706.506C1143.41,702.836 1145.02,698.286 1145.02,693.327C1145.02,688.89 1143.74,684.768 1141.54,681.318C1143.42,680.325 1145.5,679.704 1147.76,679.704C1155.47,679.704 1161.73,686.174 1161.73,694.15M1159.59,711.13C1162.95,708.772 1168.29,703.834 1168.29,693.921C1168.29,684.002 1159.44,674.431 1148.33,674.431C1144.59,674.431 1141.11,675.536 1138.12,677.359C1134.34,674.029 1129.42,672 1124.01,672C1112.11,672 1102.47,681.76 1102.47,693.797C1102.47,701.274 1106.2,707.867 1111.86,711.791C1109.37,712.813 1106.84,714.207 1104.42,716.087C1092.14,725.715 1093.01,737.709 1093.01,737.709C1093.02,742.451 1098.72,745.263 1098.72,745.263C1098.72,745.263 1106.92,750 1124,750C1135.75,750 1143.16,747.794 1146.64,746.415C1161.51,746.681 1177,742.903 1177,735.102C1177.01,720.077 1162.95,712.288 1159.59,711.13" style="fill:rgb(100,101,105);"/>
            </g>
        </g>
    </g>
</svg>
