<?xml version="1.0" encoding="UTF-8"?>
<svg width="674px" height="47px" viewBox="0 0 674 47" version="1.1" xmlns="http://www.w3.org/2000/svg" xmlns:xlink="http://www.w3.org/1999/xlink">
    <!-- Generator: Sketch 52.3 (67297) - http://www.bohemiancoding.com/sketch -->
    <title>Virtual Inline Prote 2</title>
    <desc>Created with Sketch.</desc>
    <g id="Page-1" stroke="none" stroke-width="1" fill="none" fill-rule="evenodd">
        <g id="Artboard-Copy-31" transform="translate(-941.000000, -169.000000)" fill="#FF791A">
            <g id="Virtual-Inline-Prote-2" transform="translate(941.000000, 169.000000)">
                <path d="M19.9868063,46.34375 C18.5284656,46.34375 17.3201444,45.9687538 16.3618063,45.21875 C15.4034681,44.4687462 14.6118094,43.1875091 13.9868063,41.375 L1.08055625,5.21875 C0.955555625,4.84374812 0.89305625,4.47916844 0.89305625,4.125 C0.89305625,3.22916219 1.25763594,2.48958625 1.98680625,1.90625 C2.71597656,1.32291375 3.54930156,1.03125 4.48680625,1.03125 C5.19514313,1.03125 5.84097,1.22395641 6.42430625,1.609375 C7.0076425,1.99479359 7.424305,2.56249625 7.67430625,3.3125 L19.9868063,38.75 L32.2993063,3.3125 C32.5493075,2.56249625 32.96597,1.99479359 33.5493063,1.609375 C34.1326425,1.22395641 34.7784694,1.03125 35.4868063,1.03125 C36.4451444,1.03125 37.2888859,1.32291375 38.0180563,1.90625 C38.7472266,2.48958625 39.1118063,3.22916219 39.1118063,4.125 C39.1118063,4.47916844 39.0493069,4.84374812 38.9243063,5.21875 L26.0180563,41.375 C25.3722197,43.1875091 24.5649361,44.4687462 23.5961813,45.21875 C22.6274264,45.9687538 21.4243134,46.34375 19.9868063,46.34375 Z M48.3928618,46 C47.5178574,46 46.7782814,45.7291694 46.1741118,45.1875 C45.5699421,44.6458306 45.2678618,43.8645884 45.2678618,42.84375 L45.2678618,18 C45.2678618,17.0208284 45.5855669,16.2500028 46.2209868,15.6875 C46.8564066,15.1249972 47.6011908,14.84375 48.4553618,14.84375 C49.2886993,14.84375 50.0178586,15.1249972 50.6428618,15.6875 C51.2678649,16.2500028 51.5803618,17.0208284 51.5803618,18 L51.5803618,42.84375 C51.5803618,43.8229216 51.2626566,44.5937472 50.6272368,45.15625 C49.9918169,45.7187528 49.2470327,46 48.3928618,46 Z M48.4241118,8 C47.2574393,8 46.3095321,7.66146172 45.5803618,6.984375 C44.8511914,6.30728828 44.4866118,5.41667219 44.4866118,4.3125 C44.4866118,3.20832781 44.8511914,2.31250344 45.5803618,1.625 C46.3095321,0.937496563 47.2678558,0.59375 48.4553618,0.59375 C49.6220343,0.59375 50.5595249,0.937496563 51.2678618,1.625 C51.9761986,2.31250344 52.3303618,3.20832781 52.3303618,4.3125 C52.3303618,5.41667219 51.9709903,6.30728828 51.2522368,6.984375 C50.5334832,7.66146172 49.5907843,8 48.4241118,8 Z M63.4551673,46 C62.6009963,46 61.8718369,45.7447942 61.2676673,45.234375 C60.6634976,44.7239558 60.3614173,43.9895881 60.3614173,43.03125 L60.3614173,17.78125 C60.3614173,16.8645787 60.6791224,16.1510442 61.3145423,15.640625 C61.9499621,15.1302058 62.6947463,14.875 63.5489173,14.875 C63.8822523,14.875 64.1999574,14.911458 64.5020423,14.984375 C64.8041271,15.057292 65.0853743,15.1718742 65.3457923,15.328125 C65.6062102,15.4843758 65.8353746,15.6666656 66.0332923,15.875 C66.2312099,16.0833344 66.3874583,16.3385402 66.5020423,16.640625 C66.6166262,16.9427098 66.6739173,17.2708316 66.6739173,17.625 L66.6114173,21.46875 C67.1322532,19.5312403 68.1895343,17.9062566 69.7832923,16.59375 C71.3770502,15.2812434 73.2259901,14.625 75.3301673,14.625 C76.080171,14.625 76.6634985,14.8958306 77.0801673,15.4375 C77.496836,15.9791694 77.7051673,16.6249963 77.7051673,17.375 C77.7051673,18.0625034 77.5176691,18.6562475 77.1426673,19.15625 C76.7676654,19.6562525 76.2364207,19.90625 75.5489173,19.90625 C72.7780701,19.90625 70.6062168,20.5520769 69.0332923,21.84375 C67.4603677,23.1354231 66.6739173,25.1041534 66.6739173,27.75 L66.6739173,43.03125 C66.6739173,43.9687547 66.3510038,44.6979141 65.7051673,45.21875 C65.0593307,45.7395859 64.3093382,46 63.4551673,46 Z M93.8924728,46.375 C91.3507934,46.375 89.3403968,45.5729247 87.8612228,43.96875 C86.3820487,42.3645753 85.6424728,40.0104322 85.6424728,36.90625 L85.6424728,19.25 L82.0174728,19.25 C81.267469,19.25 80.6945581,19.0572936 80.2987228,18.671875 C79.9028874,18.2864564 79.7049728,17.7916697 79.7049728,17.1875 C79.7049728,16.5833303 79.8976792,16.0937519 80.2830978,15.71875 C80.6685163,15.3437481 81.236219,15.15625 81.9862228,15.15625 L85.6424728,15.15625 L86.4862228,6.5 C86.5903899,5.70832938 86.9289282,5.05208594 87.5018478,4.53125 C88.0747673,4.01041406 88.7674687,3.75 89.5799728,3.75 C90.2674762,3.75 90.8351788,3.95833125 91.2830978,4.375 C91.7310167,4.79166875 91.9549728,5.40624594 91.9549728,6.21875 L91.9549728,15.15625 L97.5487228,15.15625 C98.2987265,15.15625 98.8612209,15.3541647 99.2362228,15.75 C99.6112246,16.1458353 99.7987228,16.6458303 99.7987228,17.25 C99.7987228,17.8541697 99.6112246,18.3385398 99.2362228,18.703125 C98.8612209,19.0677102 98.2987265,19.25 97.5487228,19.25 L91.9549728,19.25 L91.9549728,35.59375 C91.9549728,37.59376 92.2362199,39.0729119 92.7987228,40.03125 C93.3612256,40.9895881 94.2778831,41.46875 95.5487228,41.46875 L95.8612228,41.46875 L98.0799728,41.34375 L98.2674728,41.34375 C99.0383099,41.34375 99.6476788,41.5885392 100.095598,42.078125 C100.543517,42.5677108 100.767473,43.1354134 100.767473,43.78125 C100.767473,44.114585 100.71539,44.4166653 100.611223,44.6875 C100.507056,44.9583347 100.37164,45.1822908 100.204973,45.359375 C100.038305,45.5364592 99.8143492,45.6874994 99.5330978,45.8125 C99.2518463,45.9375006 98.9758074,46.036458 98.7049728,46.109375 C98.4341381,46.182292 98.0955998,46.2395831 97.6893478,46.28125 C97.2830957,46.3229169 96.9133078,46.3489583 96.5799728,46.359375 C96.2466378,46.3697917 95.8508084,46.375 95.3924728,46.375 L93.8924728,46.375 Z M117.704778,46.5 C114.371428,46.5 111.657914,45.4948017 109.564153,43.484375 C107.470393,41.4739483 106.423528,38.4583534 106.423528,34.4375 L106.423528,17.875 C106.423528,16.9166619 106.736025,16.1718777 107.361028,15.640625 C107.986031,15.1093723 108.725607,14.84375 109.579778,14.84375 C110.433949,14.84375 111.168317,15.1093723 111.782903,15.640625 C112.39749,16.1718777 112.704778,16.9166619 112.704778,17.875 L112.704778,34.5 C112.704778,37.0208459 113.298522,38.9374934 114.486028,40.25 C115.673534,41.5625066 117.298518,42.21875 119.361028,42.21875 C121.694373,42.21875 123.678728,41.3541753 125.314153,39.625 C126.949578,37.8958247 127.808945,35.5833478 127.892278,32.6875 L127.892278,17.875 C127.892278,16.9166619 128.204775,16.1718777 128.829778,15.640625 C129.454781,15.1093723 130.204774,14.84375 131.079778,14.84375 C131.933949,14.84375 132.668317,15.1093723 133.282903,15.640625 C133.89749,16.1718777 134.204778,16.9166619 134.204778,17.875 L134.204778,43.03125 C134.204778,43.9687547 133.892281,44.6979141 133.267278,45.21875 C132.642275,45.7395859 131.892283,46 131.017278,46 C130.163107,46 129.42874,45.7500025 128.814153,45.25 C128.199567,44.7499975 127.892278,44.0520878 127.892278,43.15625 L127.892278,40.90625 C127.058941,42.6979256 125.746454,44.0781202 123.954778,45.046875 C122.163103,46.0156298 120.07979,46.5 117.704778,46.5 Z M151.735834,46.5 C148.485818,46.5 145.840011,45.7187578 143.798334,44.15625 C141.756657,42.5937422 140.735834,40.3750144 140.735834,37.5 C140.735834,36.2708272 140.866041,35.192713 141.126459,34.265625 C141.386877,33.338537 141.746248,32.5364617 142.204584,31.859375 C142.662919,31.1822883 143.319163,30.6093773 144.173334,30.140625 C145.027505,29.6718727 145.938954,29.2916681 146.907709,29 C147.876464,28.7083319 149.126451,28.4843758 150.657709,28.328125 C152.188966,28.1718742 153.730618,28.0677086 155.282709,28.015625 C156.8348,27.9635414 158.735823,27.9375 160.985834,27.9375 L160.985834,24.875 C160.985834,20.6666456 158.881688,18.5625 154.673334,18.5625 C153.444161,18.5625 152.183757,18.7031236 150.892084,18.984375 C149.600411,19.2656264 148.626462,19.5312488 147.970209,19.78125 C147.313955,20.0312512 146.444173,20.3854144 145.360834,20.84375 C145.110833,20.9479172 144.850418,21 144.579584,21 C144.371249,21 144.173335,20.9687503 143.985834,20.90625 C143.798333,20.8437497 143.621251,20.7552089 143.454584,20.640625 C143.287916,20.5260411 143.136876,20.3906258 143.001459,20.234375 C142.866041,20.0781242 142.751459,19.9114592 142.657709,19.734375 C142.563958,19.5572908 142.491042,19.3750009 142.438959,19.1875 C142.386875,18.9999991 142.360834,18.8125009 142.360834,18.625 C142.360834,18.2708316 142.444166,17.9531264 142.610834,17.671875 C142.777501,17.3906236 143.037915,17.1562509 143.392084,16.96875 C146.621267,15.2187412 150.454562,14.34375 154.892084,14.34375 C158.725436,14.34375 161.746239,15.2395744 163.954584,17.03125 C166.162928,18.8229256 167.267084,21.6145644 167.267084,25.40625 L167.267084,43.03125 C167.267084,43.9687547 166.954587,44.7031223 166.329584,45.234375 C165.704581,45.7656277 164.975421,46.03125 164.142084,46.03125 C163.600414,46.03125 163.105628,45.9218761 162.657709,45.703125 C162.20979,45.4843739 161.834794,45.1510439 161.532709,44.703125 C161.230624,44.2552061 161.079584,43.7187531 161.079584,43.09375 L161.079584,40.78125 C159.225408,44.5937691 156.110856,46.5 151.735834,46.5 Z M152.360834,42.375 C154.631678,42.375 156.631658,41.4375094 158.360834,39.5625 C160.090009,37.6874906 160.954584,35.3020978 160.954584,32.40625 L160.954584,31.53125 C158.954574,31.53125 157.287924,31.5572914 155.954584,31.609375 C154.621244,31.6614586 153.386881,31.7656242 152.251459,31.921875 C151.116036,32.0781258 150.22542,32.2812488 149.579584,32.53125 C148.933747,32.7812512 148.376461,33.1249978 147.907709,33.5625 C147.438956,34.0000022 147.121251,34.515622 146.954584,35.109375 C146.787916,35.703128 146.704584,36.4166625 146.704584,37.25 C146.704584,39.0000088 147.214995,40.2916625 148.235834,41.125 C149.256672,41.9583375 150.631658,42.375 152.360834,42.375 Z M179.360639,46 C178.506468,46 177.777309,45.7291694 177.173139,45.1875 C176.56897,44.6458306 176.266889,43.8645884 176.266889,42.84375 L176.266889,4.375 C176.266889,3.41666187 176.579386,2.65625281 177.204389,2.09375 C177.829392,1.53124719 178.568968,1.25 179.423139,1.25 C180.27731,1.25 181.016886,1.53124719 181.641889,2.09375 C182.266892,2.65625281 182.579389,3.41666187 182.579389,4.375 L182.579389,42.84375 C182.579389,43.8229216 182.256476,44.5937472 181.610639,45.15625 C180.964803,45.7187528 180.21481,46 179.360639,46 Z M214.5165,45.96875 C213.558162,45.96875 212.735254,45.6666697 212.04775,45.0625 C211.360247,44.4583303 211.0165,43.6250053 211.0165,42.5625 L211.0165,4.625 C211.0165,3.54166125 211.365455,2.69791969 212.063375,2.09375 C212.761295,1.48958031 213.599829,1.1875 214.579,1.1875 C215.537338,1.1875 216.365455,1.48958031 217.063375,2.09375 C217.761295,2.69791969 218.11025,3.54166125 218.11025,4.625 L218.11025,42.5625 C218.11025,43.6458387 217.756087,44.484372 217.04775,45.078125 C216.339413,45.671878 215.495672,45.96875 214.5165,45.96875 Z M231.703806,46 C230.849635,46 230.115267,45.7343777 229.500681,45.203125 C228.886094,44.6718723 228.578806,43.9375047 228.578806,43 L228.578806,17.8125 C228.578806,16.8749953 228.891303,16.1510442 229.516306,15.640625 C230.141309,15.1302058 230.880885,14.875 231.735056,14.875 C232.589227,14.875 233.323594,15.1249975 233.938181,15.625 C234.552767,16.1250025 234.860056,16.8229122 234.860056,17.71875 L234.860056,19.9375 C235.693393,18.1249909 237.000672,16.7395881 238.781931,15.78125 C240.56319,14.8229119 242.641294,14.34375 245.016306,14.34375 C246.62048,14.34375 248.094424,14.5781227 249.438181,15.046875 C250.781937,15.5156273 251.979842,16.2239536 253.031931,17.171875 C254.084019,18.1197964 254.90172,19.3802005 255.485056,20.953125 C256.068392,22.5260495 256.360056,24.3333231 256.360056,26.375 L256.360056,43 C256.360056,43.9375047 256.042351,44.6718723 255.406931,45.203125 C254.771511,45.7343777 254.026727,46 253.172556,46 C252.318385,46 251.584017,45.7343777 250.969431,45.203125 C250.354844,44.6718723 250.047556,43.9375047 250.047556,43 L250.047556,26.3125 C250.047556,23.8124875 249.443395,21.9062566 248.235056,20.59375 C247.026716,19.2812434 245.391316,18.625 243.328806,18.625 C241.016294,18.625 239.047564,19.4843664 237.422556,21.203125 C235.797548,22.9218836 234.94339,25.2395687 234.860056,28.15625 L234.860056,43 C234.860056,43.9375047 234.547559,44.6718723 233.922556,45.203125 C233.297553,45.7343777 232.557977,46 231.703806,46 Z M268.359861,46 C267.50569,46 266.776531,45.7291694 266.172361,45.1875 C265.568192,44.6458306 265.266111,43.8645884 265.266111,42.84375 L265.266111,4.375 C265.266111,3.41666187 265.578608,2.65625281 266.203611,2.09375 C266.828614,1.53124719 267.56819,1.25 268.422361,1.25 C269.276532,1.25 270.016108,1.53124719 270.641111,2.09375 C271.266114,2.65625281 271.578611,3.41666187 271.578611,4.375 L271.578611,42.84375 C271.578611,43.8229216 271.255698,44.5937472 270.609861,45.15625 C269.964025,45.7187528 269.214032,46 268.359861,46 Z M283.890917,46 C283.015912,46 282.276336,45.7291694 281.672167,45.1875 C281.067997,44.6458306 280.765917,43.8645884 280.765917,42.84375 L280.765917,18 C280.765917,17.0208284 281.083622,16.2500028 281.719042,15.6875 C282.354462,15.1249972 283.099246,14.84375 283.953417,14.84375 C284.786754,14.84375 285.515914,15.1249972 286.140917,15.6875 C286.76592,16.2500028 287.078417,17.0208284 287.078417,18 L287.078417,42.84375 C287.078417,43.8229216 286.760712,44.5937472 286.125292,45.15625 C285.489872,45.7187528 284.745088,46 283.890917,46 Z M283.922167,8 C282.755494,8 281.807587,7.66146172 281.078417,6.984375 C280.349246,6.30728828 279.984667,5.41667219 279.984667,4.3125 C279.984667,3.20832781 280.349246,2.31250344 281.078417,1.625 C281.807587,0.937496563 282.765911,0.59375 283.953417,0.59375 C285.120089,0.59375 286.05758,0.937496563 286.765917,1.625 C287.474254,2.31250344 287.828417,3.20832781 287.828417,4.3125 C287.828417,5.41667219 287.469045,6.30728828 286.750292,6.984375 C286.031538,7.66146172 285.088839,8 283.922167,8 Z M298.921972,46 C298.067801,46 297.333434,45.7343777 296.718847,45.203125 C296.104261,44.6718723 295.796972,43.9375047 295.796972,43 L295.796972,17.8125 C295.796972,16.8749953 296.109469,16.1510442 296.734472,15.640625 C297.359475,15.1302058 298.099051,14.875 298.953222,14.875 C299.807393,14.875 300.541761,15.1249975 301.156347,15.625 C301.770934,16.1250025 302.078222,16.8229122 302.078222,17.71875 L302.078222,19.9375 C302.91156,18.1249909 304.218838,16.7395881 306.000097,15.78125 C307.781356,14.8229119 309.85946,14.34375 312.234472,14.34375 C313.838647,14.34375 315.312591,14.5781227 316.656347,15.046875 C318.000104,15.5156273 319.198009,16.2239536 320.250097,17.171875 C321.302186,18.1197964 322.119886,19.3802005 322.703222,20.953125 C323.286559,22.5260495 323.578222,24.3333231 323.578222,26.375 L323.578222,43 C323.578222,43.9375047 323.260517,44.6718723 322.625097,45.203125 C321.989677,45.7343777 321.244893,46 320.390722,46 C319.536551,46 318.802184,45.7343777 318.187597,45.203125 C317.573011,44.6718723 317.265722,43.9375047 317.265722,43 L317.265722,26.3125 C317.265722,23.8124875 316.661562,21.9062566 315.453222,20.59375 C314.244883,19.2812434 312.609483,18.625 310.546972,18.625 C308.234461,18.625 306.26573,19.4843664 304.640722,21.203125 C303.015714,22.9218836 302.161556,25.2395687 302.078222,28.15625 L302.078222,43 C302.078222,43.9375047 301.765725,44.6718723 301.140722,45.203125 C300.515719,45.7343777 299.776143,46 298.921972,46 Z M345.984278,46.5 C341.359255,46.4583331 337.593667,44.9843895 334.687403,42.078125 C331.781138,39.1718605 330.328028,35.218775 330.328028,30.21875 C330.328028,28.0937394 330.666566,26.0833428 331.343653,24.1875 C332.020739,22.2916572 332.984272,20.6093823 334.234278,19.140625 C335.484284,17.6718677 337.07281,16.5052127 338.999903,15.640625 C340.926996,14.7760373 343.067599,14.34375 345.421778,14.34375 C347.817623,14.34375 349.937394,14.7499959 351.781153,15.5625 C353.624912,16.3750041 355.093647,17.4895762 356.187403,18.90625 C357.281158,20.3229238 358.114483,21.9114495 358.687403,23.671875 C359.260322,25.4323005 359.567611,27.3541563 359.609278,29.4375 C359.609278,30.1250034 359.442613,30.6874978 359.109278,31.125 C358.775943,31.5625022 358.275948,31.78125 357.609278,31.78125 L336.671778,31.78125 C336.755112,35.2396006 337.682186,37.8124916 339.453028,39.5 C341.22387,41.1875084 343.546763,42.0520831 346.421778,42.09375 C348.13012,42.09375 349.692604,41.7760448 351.109278,41.140625 C352.525952,40.5052052 353.973854,39.6458387 355.453028,38.5625 C355.661362,38.4166659 355.864485,38.307292 356.062403,38.234375 C356.26032,38.161458 356.463443,38.125 356.671778,38.125 C357.025946,38.125 357.354068,38.2239573 357.656153,38.421875 C357.958238,38.6197927 358.197819,38.885415 358.374903,39.21875 C358.551987,39.552085 358.640528,39.9062481 358.640528,40.28125 C358.640528,40.6354184 358.562404,40.979165 358.406153,41.3125 C358.249902,41.645835 358.005113,41.9479153 357.671778,42.21875 C354.442595,45.0729309 350.546801,46.5 345.984278,46.5 Z M336.734278,27.96875 L354.171778,27.96875 C353.984277,25.2604031 353.192618,23.0260505 351.796778,21.265625 C350.400937,19.5051995 348.369708,18.625 345.703028,18.625 C344.328021,18.625 343.078033,18.8906223 341.953028,19.421875 C340.828022,19.9531277 339.906156,20.6718705 339.187403,21.578125 C338.468649,22.4843795 337.906155,23.4791613 337.499903,24.5625 C337.093651,25.6458387 336.838445,26.7812441 336.734278,27.96875 Z M388.983889,46.03125 C388.025551,46.03125 387.192226,45.7291697 386.483889,45.125 C385.775552,44.5208303 385.421389,43.6770887 385.421389,42.59375 L385.421389,4.75 C385.421389,3.77082844 385.770344,2.93750344 386.468264,2.25 C387.166184,1.56249656 388.015134,1.21875 389.015139,1.21875 L402.452639,1.21875 C407.619331,1.21875 411.567208,2.23436484 414.296389,4.265625 C417.025569,6.29688516 418.390139,9.60414375 418.390139,14.1875 C418.390139,16.5625119 417.999518,18.6041581 417.218264,20.3125 C416.43701,22.0208419 415.296396,23.3697867 413.796389,24.359375 C412.296381,25.3489633 410.567232,26.0677061 408.608889,26.515625 C406.650546,26.9635439 404.390152,27.1875 401.827639,27.1875 L392.515139,27.1875 L392.515139,42.59375 C392.515139,43.6770887 392.166184,44.5208303 391.468264,45.125 C390.770344,45.7291697 389.942227,46.03125 388.983889,46.03125 Z M392.515139,21.78125 L401.671389,21.78125 C405.025572,21.78125 407.483881,21.2239639 409.046389,20.109375 C410.608897,18.9947861 411.390139,17.0208475 411.390139,14.1875 C411.390139,11.4166528 410.640146,9.50000531 409.140139,8.4375 C407.640131,7.37499469 405.244322,6.84375 401.952639,6.84375 L392.515139,6.84375 L392.515139,21.78125 Z M426.889944,46 C426.035773,46 425.306614,45.7447942 424.702444,45.234375 C424.098275,44.7239558 423.796194,43.9895881 423.796194,43.03125 L423.796194,17.78125 C423.796194,16.8645787 424.113899,16.1510442 424.749319,15.640625 C425.384739,15.1302058 426.129523,14.875 426.983694,14.875 C427.317029,14.875 427.634734,14.911458 427.936819,14.984375 C428.238904,15.057292 428.520151,15.1718742 428.780569,15.328125 C429.040987,15.4843758 429.270152,15.6666656 429.468069,15.875 C429.665987,16.0833344 429.822235,16.3385402 429.936819,16.640625 C430.051403,16.9427098 430.108694,17.2708316 430.108694,17.625 L430.046194,21.46875 C430.56703,19.5312403 431.624311,17.9062566 433.218069,16.59375 C434.811827,15.2812434 436.660767,14.625 438.764944,14.625 C439.514948,14.625 440.098276,14.8958306 440.514944,15.4375 C440.931613,15.9791694 441.139944,16.6249963 441.139944,17.375 C441.139944,18.0625034 440.952446,18.6562475 440.577444,19.15625 C440.202442,19.6562525 439.671198,19.90625 438.983694,19.90625 C436.212847,19.90625 434.040994,20.5520769 432.468069,21.84375 C430.895145,23.1354231 430.108694,25.1041534 430.108694,27.75 L430.108694,43.03125 C430.108694,43.9687547 429.785781,44.6979141 429.139944,45.21875 C428.494108,45.7395859 427.744115,46 426.889944,46 Z M460.63975,42.21875 C463.681432,42.1979166 466.045991,41.1458437 467.7335,39.0625 C469.421008,36.9791563 470.26475,34.104185 470.26475,30.4375 C470.26475,26.7916484 469.410592,23.9114689 467.70225,21.796875 C465.993908,19.6822811 463.639765,18.625 460.63975,18.625 C457.618901,18.625 455.25955,19.6770728 453.561625,21.78125 C451.8637,23.8854272 451.01475,26.770815 451.01475,30.4375 C451.01475,34.0833516 451.868908,36.9583228 453.57725,39.0625 C455.285592,41.1666772 457.639735,42.21875 460.63975,42.21875 Z M460.63975,46.5 C458.118904,46.5 455.837677,46.0677127 453.796,45.203125 C451.754323,44.3385373 450.087673,43.1666741 448.796,41.6875 C447.504327,40.2083259 446.514753,38.5104262 445.82725,36.59375 C445.139746,34.6770738 444.796,32.6250109 444.796,30.4375 C444.796,28.2291556 445.139746,26.161468 445.82725,24.234375 C446.514753,22.307282 447.509535,20.6041741 448.811625,19.125 C450.113715,17.6458259 451.780365,16.4791709 453.811625,15.625 C455.842885,14.7708291 458.118904,14.34375 460.63975,14.34375 C463.952266,14.34375 466.822029,15.0729094 469.249125,16.53125 C471.67622,17.9895906 473.488702,19.921863 474.686625,22.328125 C475.884547,24.734387 476.4835,27.437485 476.4835,30.4375 C476.4835,32.6041775 476.139753,34.651032 475.45225,36.578125 C474.764746,38.505218 473.775173,40.2083259 472.4835,41.6875 C471.191827,43.1666741 469.525177,44.3385373 467.4835,45.203125 C465.441823,46.0677127 463.160596,46.5 460.63975,46.5 Z M493.827055,46.375 C491.285376,46.375 489.274979,45.5729247 487.795805,43.96875 C486.316631,42.3645753 485.577055,40.0104322 485.577055,36.90625 L485.577055,19.25 L481.952055,19.25 C481.202052,19.25 480.629141,19.0572936 480.233305,18.671875 C479.83747,18.2864564 479.639555,17.7916697 479.639555,17.1875 C479.639555,16.5833303 479.832262,16.0937519 480.21768,15.71875 C480.603099,15.3437481 481.170802,15.15625 481.920805,15.15625 L485.577055,15.15625 L486.420805,6.5 C486.524972,5.70832938 486.863511,5.05208594 487.43643,4.53125 C488.00935,4.01041406 488.702051,3.75 489.514555,3.75 C490.202059,3.75 490.769761,3.95833125 491.21768,4.375 C491.665599,4.79166875 491.889555,5.40624594 491.889555,6.21875 L491.889555,15.15625 L497.483305,15.15625 C498.233309,15.15625 498.795803,15.3541647 499.170805,15.75 C499.545807,16.1458353 499.733305,16.6458303 499.733305,17.25 C499.733305,17.8541697 499.545807,18.3385398 499.170805,18.703125 C498.795803,19.0677102 498.233309,19.25 497.483305,19.25 L491.889555,19.25 L491.889555,35.59375 C491.889555,37.59376 492.170802,39.0729119 492.733305,40.03125 C493.295808,40.9895881 494.212466,41.46875 495.483305,41.46875 L495.795805,41.46875 L498.014555,41.34375 L498.202055,41.34375 C498.972892,41.34375 499.582261,41.5885392 500.03018,42.078125 C500.478099,42.5677108 500.702055,43.1354134 500.702055,43.78125 C500.702055,44.114585 500.649972,44.4166653 500.545805,44.6875 C500.441638,44.9583347 500.306223,45.1822908 500.139555,45.359375 C499.972888,45.5364592 499.748932,45.6874994 499.46768,45.8125 C499.186429,45.9375006 498.91039,46.036458 498.639555,46.109375 C498.368721,46.182292 498.030182,46.2395831 497.62393,46.28125 C497.217678,46.3229169 496.84789,46.3489583 496.514555,46.359375 C496.18122,46.3697917 495.785391,46.375 495.327055,46.375 L493.827055,46.375 Z M520.451861,46.5 C515.826838,46.4583331 512.06125,44.9843895 509.154986,42.078125 C506.248721,39.1718605 504.795611,35.218775 504.795611,30.21875 C504.795611,28.0937394 505.134149,26.0833428 505.811236,24.1875 C506.488322,22.2916572 507.451855,20.6093823 508.701861,19.140625 C509.951867,17.6718677 511.540393,16.5052127 513.467486,15.640625 C515.394579,14.7760373 517.535182,14.34375 519.889361,14.34375 C522.285206,14.34375 524.404977,14.7499959 526.248736,15.5625 C528.092495,16.3750041 529.56123,17.4895762 530.654986,18.90625 C531.748741,20.3229238 532.582066,21.9114495 533.154986,23.671875 C533.727905,25.4323005 534.035194,27.3541563 534.076861,29.4375 C534.076861,30.1250034 533.910196,30.6874978 533.576861,31.125 C533.243526,31.5625022 532.743531,31.78125 532.076861,31.78125 L511.139361,31.78125 C511.222695,35.2396006 512.149769,37.8124916 513.920611,39.5 C515.691453,41.1875084 518.014346,42.0520831 520.889361,42.09375 C522.597703,42.09375 524.160187,41.7760448 525.576861,41.140625 C526.993535,40.5052052 528.441437,39.6458387 529.920611,38.5625 C530.128945,38.4166659 530.332068,38.307292 530.529986,38.234375 C530.727903,38.161458 530.931026,38.125 531.139361,38.125 C531.493529,38.125 531.821651,38.2239573 532.123736,38.421875 C532.425821,38.6197927 532.665402,38.885415 532.842486,39.21875 C533.01957,39.552085 533.108111,39.9062481 533.108111,40.28125 C533.108111,40.6354184 533.029987,40.979165 532.873736,41.3125 C532.717485,41.645835 532.472696,41.9479153 532.139361,42.21875 C528.910178,45.0729309 525.014384,46.5 520.451861,46.5 Z M511.201861,27.96875 L528.639361,27.96875 C528.45186,25.2604031 527.660201,23.0260505 526.264361,21.265625 C524.86852,19.5051995 522.837291,18.625 520.170611,18.625 C518.795604,18.625 517.545616,18.8906223 516.420611,19.421875 C515.295605,19.9531277 514.373739,20.6718705 513.654986,21.578125 C512.936232,22.4843795 512.373738,23.4791613 511.967486,24.5625 C511.561234,25.6458387 511.306028,26.7812441 511.201861,27.96875 Z M554.170416,46.5 C551.128734,46.5 548.451678,45.7760489 546.139166,44.328125 C543.826655,42.8802011 542.076672,40.9427205 540.889166,38.515625 C539.70166,36.0885295 539.107916,33.3854316 539.107916,30.40625 C539.107916,27.4479019 539.73291,24.7552205 540.982916,22.328125 C542.232923,19.9010295 544.040196,17.9635489 546.404791,16.515625 C548.769386,15.0677011 551.482901,14.34375 554.545416,14.34375 C556.378759,14.34375 558.0402,14.5885392 559.529791,15.078125 C561.019382,15.5677108 562.222495,16.1562466 563.139166,16.84375 C563.930837,17.4270863 564.326666,18.0833297 564.326666,18.8125 C564.326666,19.145835 564.238125,19.4531236 564.061041,19.734375 C563.883957,20.0156264 563.644376,20.2343742 563.342291,20.390625 C563.040206,20.5468758 562.701668,20.625 562.326666,20.625 C561.868331,20.625 561.420418,20.5000012 560.982916,20.25 C559.170407,19.1458278 557.160011,18.59375 554.951666,18.59375 C552.055818,18.59375 549.738133,19.6718642 547.998541,21.828125 C546.258949,23.9843858 545.389166,26.8541488 545.389166,30.4375 C545.389166,32.6250109 545.722496,34.5937412 546.389166,36.34375 C547.055836,38.0937588 548.102701,39.5104113 549.529791,40.59375 C550.956882,41.6770887 552.65999,42.21875 554.639166,42.21875 C557.38918,42.21875 559.670407,41.5833397 561.482916,40.3125 C561.712084,40.1458325 561.946457,40.026042 562.186041,39.953125 C562.425626,39.880208 562.659998,39.84375 562.889166,39.84375 C563.160001,39.84375 563.409998,39.8906245 563.639166,39.984375 C563.868334,40.0781255 564.071457,40.2083325 564.248541,40.375 C564.425625,40.5416675 564.561041,40.7447905 564.654791,40.984375 C564.748542,41.2239595 564.795416,41.4687488 564.795416,41.71875 C564.795416,42.052085 564.706875,42.3958316 564.529791,42.75 C564.352707,43.1041684 564.076668,43.4374984 563.701666,43.75 C561.493322,45.5833425 558.31627,46.5 554.170416,46.5 Z M581.545222,46.375 C579.003542,46.375 576.993146,45.5729247 575.513972,43.96875 C574.034798,42.3645753 573.295222,40.0104322 573.295222,36.90625 L573.295222,19.25 L569.670222,19.25 C568.920218,19.25 568.347307,19.0572936 567.951472,18.671875 C567.555636,18.2864564 567.357722,17.7916697 567.357722,17.1875 C567.357722,16.5833303 567.550428,16.0937519 567.935847,15.71875 C568.321265,15.3437481 568.888968,15.15625 569.638972,15.15625 L573.295222,15.15625 L574.138972,6.5 C574.243139,5.70832938 574.581677,5.05208594 575.154597,4.53125 C575.727516,4.01041406 576.420218,3.75 577.232722,3.75 C577.920225,3.75 578.487928,3.95833125 578.935847,4.375 C579.383766,4.79166875 579.607722,5.40624594 579.607722,6.21875 L579.607722,15.15625 L585.201472,15.15625 C585.951476,15.15625 586.51397,15.3541647 586.888972,15.75 C587.263974,16.1458353 587.451472,16.6458303 587.451472,17.25 C587.451472,17.8541697 587.263974,18.3385398 586.888972,18.703125 C586.51397,19.0677102 585.951476,19.25 585.201472,19.25 L579.607722,19.25 L579.607722,35.59375 C579.607722,37.59376 579.888969,39.0729119 580.451472,40.03125 C581.013975,40.9895881 581.930632,41.46875 583.201472,41.46875 L583.513972,41.46875 L585.732722,41.34375 L585.920222,41.34375 C586.691059,41.34375 587.300428,41.5885392 587.748347,42.078125 C588.196266,42.5677108 588.420222,43.1354134 588.420222,43.78125 C588.420222,44.114585 588.368139,44.4166653 588.263972,44.6875 C588.159805,44.9583347 588.024389,45.1822908 587.857722,45.359375 C587.691054,45.5364592 587.467098,45.6874994 587.185847,45.8125 C586.904595,45.9375006 586.628556,46.036458 586.357722,46.109375 C586.086887,46.182292 585.748349,46.2395831 585.342097,46.28125 C584.935845,46.3229169 584.566057,46.3489583 584.232722,46.359375 C583.899387,46.3697917 583.503557,46.375 583.045222,46.375 L581.545222,46.375 Z M597.732527,46 C596.857523,46 596.117947,45.7291694 595.513777,45.1875 C594.909608,44.6458306 594.607527,43.8645884 594.607527,42.84375 L594.607527,18 C594.607527,17.0208284 594.925232,16.2500028 595.560652,15.6875 C596.196072,15.1249972 596.940856,14.84375 597.795027,14.84375 C598.628365,14.84375 599.357524,15.1249972 599.982527,15.6875 C600.60753,16.2500028 600.920027,17.0208284 600.920027,18 L600.920027,42.84375 C600.920027,43.8229216 600.602322,44.5937472 599.966902,45.15625 C599.331482,45.7187528 598.586698,46 597.732527,46 Z M597.763777,8 C596.597105,8 595.649198,7.66146172 594.920027,6.984375 C594.190857,6.30728828 593.826277,5.41667219 593.826277,4.3125 C593.826277,3.20832781 594.190857,2.31250344 594.920027,1.625 C595.649198,0.937496563 596.607521,0.59375 597.795027,0.59375 C598.9617,0.59375 599.89919,0.937496563 600.607527,1.625 C601.315864,2.31250344 601.670027,3.20832781 601.670027,4.3125 C601.670027,5.41667219 601.310656,6.30728828 600.591902,6.984375 C599.873149,7.66146172 598.93045,8 597.763777,8 Z M623.513583,42.21875 C626.555265,42.1979166 628.919824,41.1458437 630.607333,39.0625 C632.294841,36.9791563 633.138583,34.104185 633.138583,30.4375 C633.138583,26.7916484 632.284425,23.9114689 630.576083,21.796875 C628.867741,19.6822811 626.513598,18.625 623.513583,18.625 C620.492734,18.625 618.133383,19.6770728 616.435458,21.78125 C614.737533,23.8854272 613.888583,26.770815 613.888583,30.4375 C613.888583,34.0833516 614.742741,36.9583228 616.451083,39.0625 C618.159425,41.1666772 620.513568,42.21875 623.513583,42.21875 Z M623.513583,46.5 C620.992737,46.5 618.71151,46.0677127 616.669833,45.203125 C614.628156,44.3385373 612.961506,43.1666741 611.669833,41.6875 C610.37816,40.2083259 609.388586,38.5104262 608.701083,36.59375 C608.013579,34.6770738 607.669833,32.6250109 607.669833,30.4375 C607.669833,28.2291556 608.013579,26.161468 608.701083,24.234375 C609.388586,22.307282 610.383368,20.6041741 611.685458,19.125 C612.987548,17.6458259 614.654198,16.4791709 616.685458,15.625 C618.716718,14.7708291 620.992737,14.34375 623.513583,14.34375 C626.826099,14.34375 629.695862,15.0729094 632.122958,16.53125 C634.550053,17.9895906 636.362535,19.921863 637.560458,22.328125 C638.75838,24.734387 639.357333,27.437485 639.357333,30.4375 C639.357333,32.6041775 639.013586,34.651032 638.326083,36.578125 C637.638579,38.505218 636.649006,40.2083259 635.357333,41.6875 C634.06566,43.1666741 632.39901,44.3385373 630.357333,45.203125 C628.315656,46.0677127 626.034429,46.5 623.513583,46.5 Z M649.263388,46 C648.409217,46 647.67485,45.7343777 647.060263,45.203125 C646.445677,44.6718723 646.138388,43.9375047 646.138388,43 L646.138388,17.8125 C646.138388,16.8749953 646.450885,16.1510442 647.075888,15.640625 C647.700891,15.1302058 648.440467,14.875 649.294638,14.875 C650.148809,14.875 650.883177,15.1249975 651.497763,15.625 C652.11235,16.1250025 652.419638,16.8229122 652.419638,17.71875 L652.419638,19.9375 C653.252976,18.1249909 654.560254,16.7395881 656.341513,15.78125 C658.122772,14.8229119 660.200876,14.34375 662.575888,14.34375 C664.180063,14.34375 665.654007,14.5781227 666.997763,15.046875 C668.34152,15.5156273 669.539425,16.2239536 670.591513,17.171875 C671.643602,18.1197964 672.461302,19.3802005 673.044638,20.953125 C673.627975,22.5260495 673.919638,24.3333231 673.919638,26.375 L673.919638,43 C673.919638,43.9375047 673.601933,44.6718723 672.966513,45.203125 C672.331093,45.7343777 671.586309,46 670.732138,46 C669.877967,46 669.1436,45.7343777 668.529013,45.203125 C667.914427,44.6718723 667.607138,43.9375047 667.607138,43 L667.607138,26.3125 C667.607138,23.8124875 667.002978,21.9062566 665.794638,20.59375 C664.586299,19.2812434 662.950899,18.625 660.888388,18.625 C658.575877,18.625 656.607146,19.4843664 654.982138,21.203125 C653.35713,22.9218836 652.502972,25.2395687 652.419638,28.15625 L652.419638,43 C652.419638,43.9375047 652.107141,44.6718723 651.482138,45.203125 C650.857135,45.7343777 650.117559,46 649.263388,46 Z" id="Virtual-Inline-Prote"></path>
            </g>
        </g>
    </g>
</svg>