<?xml version="1.0" encoding="UTF-8" standalone="no"?>
<svg width="161px" height="141px" viewBox="0 0 161 141" version="1.1" xmlns="http://www.w3.org/2000/svg" xmlns:xlink="http://www.w3.org/1999/xlink">
    <!-- Generator: Sketch 50.2 (55047) - http://www.bohemiancoding.com/sketch -->
    <title>Group 18</title>
    <desc>Created with Sketch.</desc>
    <defs></defs>
    <g id="Page-1" stroke="none" stroke-width="1" fill="none" fill-rule="evenodd">
        <g id="Group-70" transform="translate(-898.000000, -256.000000)">
            <g id="Group-18" transform="translate(904.320000, 262.080000)">
                <g id="Group-16">
                    <g id="Host_Home_Small_Office_LAN-Copy-6">
                        <path d="M54.8392988,128.641684 L4.33151465,128.641684 C1.9483518,128.641684 0,126.66857 0,124.259223 L0,4.38581703 C0,1.97311432 1.9483518,0 4.33151465,0 L54.8392988,0 C57.2257808,0 59.1741326,1.97311432 59.1741326,4.38581703 L59.1741326,124.259223 C59.1741326,126.66857 57.2257808,128.641684 54.8392988,128.641684 Z M34.5223377,117.632512 C34.5223377,114.877534 32.3150908,112.64268 29.5867344,112.64268 C26.8616972,112.64268 24.647812,114.877534 24.647812,117.632512 C24.647812,120.38749 26.8616972,122.622344 29.5867344,122.622344 C32.3150908,122.622344 34.5223377,120.38749 34.5223377,117.632512 Z M23.7967772,104.548885 L35.3773554,104.548885 C36.4772311,104.548885 37.3688564,103.647463 37.3688564,102.535503 C37.3688564,101.423543 36.4772311,100.522121 35.3773554,100.522121 L23.7967772,100.522121 C22.6969016,100.522121 21.8052762,101.423543 21.8052762,102.535503 C21.8052762,103.647463 22.6969016,104.548885 23.7967772,104.548885 Z M23.7967772,96.2809318 L35.3773554,96.2809318 C36.4772311,96.2809318 37.3688564,95.37951 37.3688564,94.2675499 C37.3688564,93.1555897 36.4772311,92.2541679 35.3773554,92.2541679 L23.7967772,92.2541679 C22.6969016,92.2541679 21.8052762,93.1555897 21.8052762,94.2675499 C21.8052762,95.37951 22.6969016,96.2809318 23.7967772,96.2809318 Z M23.7967772,88.0116366 L35.3773554,88.0116366 C36.4772311,88.0116366 37.3688564,87.1102148 37.3688564,85.9982546 C37.3688564,84.8862945 36.4772311,83.9848726 35.3773554,83.9848726 L23.7967772,83.9848726 C22.6969016,83.9848726 21.8052762,84.8862945 21.8052762,85.9982546 C21.8052762,87.1102148 22.6969016,88.0116366 23.7967772,88.0116366 Z" id="Combined-Shape" fill="#636569"></path>
                        <path d="M54.8392988,128.641684 L4.33151465,128.641684 C1.9483518,128.641684 0,126.66857 0,124.259223 L0,4.38581703 C0,1.97311432 1.9483518,0 4.33151465,0 L54.8392988,0 C57.2257808,0 59.1741326,1.97311432 59.1741326,4.38581703 L59.1741326,124.259223 C59.1741326,126.66857 57.2257808,128.641684 54.8392988,128.641684 Z" id="Stroke-20" stroke="#636569" stroke-width="10.8554985"></path>
                        <g id="Group-4" transform="translate(70.690909, 50.027322)" fill="#636569">
                            <path d="M70.8349418,0 C77.9473309,0 83.7157091,5.83175636 83.7157091,13.0222905 L83.7157091,52.0811219 C83.7157091,59.2743361 77.9473309,65.1034125 70.8349418,65.1034125 L12.8781164,65.1034125 C5.76572727,65.1034125 0,59.2743361 0,52.0811219 L0,13.0222905 C0,6.23912169 5.76837818,0 12.8781164,0 L70.8349418,0 Z M77.2758556,48.8280954 L77.2758556,16.0727065 C77.2758556,9.56290122 74.0550011,6.46210061 67.613292,6.46210061 L16.1008265,6.46210061 C9.65646655,6.46210061 6.43826291,9.56290122 6.43826291,16.0727065 L6.43826291,48.8280954 C6.43826291,55.3379006 9.65646655,58.5941432 16.1008265,58.5941432 L67.613292,58.5941432 C74.0550011,58.5941432 77.2758556,55.3379006 77.2758556,48.8280954 Z" id="Combined-Shape"></path>
                            <path d="M25.9020327,69.6809124 C25.9020327,69.6809124 21.2072727,72.3287871 21.2072727,75.7806723 C21.2072727,78.7689114 23.8687855,81.4516265 26.8218982,81.4516265 L57.2569855,81.4516265 C60.0059782,81.4516265 62.6012182,78.811792 62.6012182,75.911994 C62.6012182,72.4601088 58.3093964,69.6809124 58.3093964,69.6809124 C58.3093964,69.6809124 58.1662473,74.9927419 53.4688364,74.9927419 L30.4642473,74.9927419 C25.6342909,74.9927419 25.9020327,69.6809124 25.9020327,69.6809124" id="Fill-32"></path>
                        </g>
                    </g>
                </g>
                <rect id="Rectangle-7-Copy" fill="#FFCC00" x="80.64" y="59.04" width="63.36" height="46.08" rx="5.76"></rect>
            </g>
        </g>
    </g>
</svg>