<?xml version="1.0" encoding="UTF-8"?>
<svg width="139px" height="92px" viewBox="0 0 139 92" version="1.1" xmlns="http://www.w3.org/2000/svg" xmlns:xlink="http://www.w3.org/1999/xlink">
    <!-- Generator: Sketch 50 (54983) - http://www.bohemiancoding.com/sketch -->
    <title>Internet_Cloud_Headquarter Copy 6</title>
    <desc>Created with Sketch.</desc>
    <defs></defs>
    <g id="Page-2" stroke="none" stroke-width="1" fill="none" fill-rule="evenodd">
        <g id="Internet_Cloud_Headquarter-Copy-6" fill="#46AFE8">
            <path d="M60.857513,8.31757299 C75.261658,8.31757299 87.1450777,18.0816804 90.3860104,31.4621239 C92.5466321,30.0155895 95.4274611,29.2923223 97.9481865,29.2923223 C106.23057,29.2923223 113.072539,36.1633608 113.072539,44.4809338 C113.072539,45.9274683 112.712435,47.3740027 112.352332,48.8205371 C112.712435,48.8205371 112.712435,48.8205371 113.072539,48.8205371 C122.435233,48.8205371 130.357513,56.4148429 130.357513,66.1789503 C130.357513,75.5814241 122.795337,83.5373635 113.072539,83.5373635 L32.0492228,83.5373635 C18.7253886,83.5373635 8.28238342,72.6883553 8.28238342,59.6695454 C8.28238342,47.0123691 18.0051813,36.5249944 30.2487047,35.8017272 C32.4093264,20.2514821 45.373057,8.31757299 60.857513,8.31757299 M60.857513,0 C43.2124352,0 28.0880829,11.9339091 23.4067358,28.2074215 C9.72279793,32.1853911 0,44.8425674 0,59.3079118 C0,77.3895922 14.4041451,91.8549365 32.4093264,91.8549365 L113.432642,91.8549365 C127.476684,91.8549365 139,80.2826611 139,66.1789503 C139,54.6066749 131.437824,45.204201 121.354922,41.587865 C119.914508,30.0155895 109.831606,20.9747493 97.9481865,20.9747493 C97.2279793,20.9747493 96.1476684,20.9747493 95.4274611,20.9747493 C88.9455959,8.31757299 75.6217617,0 60.857513,0" id="Shape" fill-rule="nonzero"></path>
            <path d="M28.8371484,65.5498599 C28.5923012,65.2986473 28.4698795,64.9706803 28.4698795,64.5659491 L28.4698795,52.277531 C28.4698795,51.8727997 28.5923012,51.5483217 28.8371484,51.3040873 C29.0819955,51.0598529 29.4072875,50.9377375 29.8130342,50.9377375 C30.2327721,50.9377375 30.5650596,51.0598529 30.8099068,51.3040873 C31.0547539,51.5483217 31.1771756,51.8727997 31.1771756,52.277531 L31.1771756,64.5659491 C31.1771756,64.9706803 31.0547539,65.2986473 30.8099068,65.5498599 C30.5650596,65.8010724 30.2327721,65.9266768 29.8130342,65.9266768 C29.4072875,65.9266768 29.0819955,65.8010724 28.8371484,65.5498599 Z M42.8458317,56.3597142 C43.447456,57.0575267 43.7482637,58.1112079 43.7482637,59.5207893 L43.7482637,64.6706204 C43.7482637,65.0613955 43.6328375,65.3684284 43.4019816,65.5917284 C43.1711258,65.8150284 42.8528293,65.9266768 42.4470826,65.9266768 C42.041336,65.9266768 41.7195417,65.8150284 41.4816902,65.5917284 C41.2438387,65.3684284 41.1249148,65.0613955 41.1249148,64.6706204 L41.1249148,59.6673292 C41.1249148,58.8718229 40.9745109,58.2926471 40.6736987,57.9297846 C40.3728866,57.5669221 39.9006885,57.3854935 39.2570903,57.3854935 C38.501562,57.3854935 37.8964489,57.6227462 37.4417329,58.0972588 C36.9870168,58.5717713 36.7596621,59.2067713 36.7596621,60.0022776 L36.7596621,64.6706204 C36.7596621,65.0613955 36.6407382,65.3684284 36.4028867,65.5917284 C36.1650352,65.8150284 35.8432409,65.9266768 35.4374943,65.9266768 C35.0317476,65.9266768 34.7134511,65.8150284 34.4825953,65.5917284 C34.2517394,65.3684284 34.1363132,65.0613955 34.1363132,64.6706204 L34.1363132,56.5690569 C34.1363132,56.2061943 34.2552372,55.9131175 34.4930887,55.6898174 C34.7309402,55.4665174 35.0527344,55.3548691 35.4584811,55.3548691 C35.8222539,55.3548691 36.1195638,55.4630284 36.3504197,55.6793503 C36.5812756,55.8956722 36.6967018,56.178282 36.6967018,56.5271883 L36.6967018,57.0924137 C37.0464834,56.5202074 37.5151837,56.0805921 38.1028168,55.7735545 C38.6904499,55.466517 39.355025,55.3130005 40.096562,55.3130005 C41.3277932,55.3130005 42.2442073,55.6619016 42.8458317,56.3597142 Z M52.7935708,64.9218317 C52.7935708,65.2567817 52.657158,65.5114795 52.3843284,65.6859326 C52.1114987,65.8603858 51.7232469,65.933655 51.2195614,65.9057425 L50.6529181,65.863874 C48.3023857,65.6963989 47.1271371,64.4403551 47.1271371,62.0957049 L47.1271371,57.5320334 L46.0777975,57.5320334 C45.7000334,57.5320334 45.409719,57.4482972 45.2068457,57.2808222 C45.0039724,57.1133471 44.9025372,56.8691164 44.9025372,56.5481226 C44.9025372,56.2271288 45.0039724,55.9828981 45.2068457,55.8154231 C45.409719,55.647948 45.7000334,55.5642118 46.0777975,55.5642118 L47.1271371,55.5642118 L47.1271371,53.6382587 C47.1271371,53.2614399 47.2460611,52.961385 47.4839126,52.738085 C47.7217641,52.514785 48.0435583,52.4031366 48.449305,52.4031366 C48.8410604,52.4031366 49.1558591,52.514785 49.3937106,52.738085 C49.6315621,52.961385 49.750486,53.2614399 49.750486,53.6382587 L49.750486,55.5642118 L51.5343633,55.5642118 C51.9121274,55.5642118 52.2024418,55.647948 52.4053151,55.8154231 C52.6081885,55.9828981 52.7096236,56.2271288 52.7096236,56.5481226 C52.7096236,56.8691164 52.6081885,57.1133471 52.4053151,57.2808222 C52.2024418,57.4482972 51.9121274,57.5320334 51.5343633,57.5320334 L49.750486,57.5320334 L49.750486,62.2841133 C49.750486,63.3168759 50.2261819,63.8681396 51.1775879,63.9379209 L51.7442312,63.9797894 C52.4437944,64.0216582 52.7935708,64.3356691 52.7935708,64.9218317 Z M62.8567373,63.2680241 C63.0036456,63.4494554 63.0770986,63.6936862 63.0770986,64.0007237 C63.0770986,64.4333675 62.8182641,64.7962246 62.3005873,65.0893059 C61.8248843,65.3544746 61.2862287,65.5673043 60.6846044,65.7278012 C60.08298,65.8882981 59.5093468,65.9685453 58.9636875,65.9685453 C57.3127183,65.9685453 56.0045547,65.4940399 55.0391575,64.5450148 C54.0737602,63.5959897 53.5910689,62.2980777 53.5910689,60.6512401 C53.5910689,59.6045212 53.8009347,58.6764444 54.2206726,57.8669818 C54.6404105,57.0575192 55.2315326,56.4294973 55.9940565,55.9828972 C56.7565804,55.5362972 57.620528,55.3130005 58.5859252,55.3130005 C59.5093487,55.3130005 60.3138343,55.5153631 60.9994062,55.9200944 C61.6849782,56.3248257 62.2166383,56.8970235 62.5944024,57.6367048 C62.9721665,58.3763861 63.1610458,59.2486388 63.1610458,60.2534889 C63.1610458,60.8536077 62.8952157,61.1536626 62.3635477,61.1536626 L56.1724442,61.1536626 C56.2563918,62.116644 56.5292174,62.8249131 56.9909291,63.2784913 C57.4526408,63.7320695 58.1242114,63.9588551 59.0056611,63.9588551 C59.4533815,63.9588551 59.8486288,63.903031 60.1914148,63.791381 C60.5342007,63.6797309 60.9224525,63.5262145 61.3561817,63.330827 C61.7759196,63.1075269 62.0837228,62.9958786 62.2796005,62.9958786 C62.517452,62.9958786 62.709829,63.0865929 62.8567373,63.2680241 Z M56.9384621,57.8251132 C56.5117285,58.2717133 56.2563918,58.9136912 56.1724442,59.7510663 L60.9154591,59.7510663 C60.8874765,58.899735 60.6776107,58.254268 60.2858553,57.8146461 C59.8940999,57.3750242 59.3484488,57.1552165 58.6488856,57.1552165 C57.9353311,57.1552165 57.3651957,57.3785132 56.9384621,57.8251132 Z M71.891551,55.5851461 C72.10142,55.7665773 72.2063529,56.0387202 72.2063529,56.4015827 C72.2063529,56.7784015 72.115411,57.0575223 71.9335246,57.2389536 C71.7516381,57.4203849 71.4228484,57.5390112 70.9471454,57.5948362 L70.3175416,57.6576391 C69.492057,57.7413766 68.8869439,58.0204974 68.5021842,58.49501 C68.1174244,58.9695225 67.9250474,59.5626543 67.9250474,60.2744231 L67.9250474,64.6706204 C67.9250474,65.0753517 67.7991279,65.3858737 67.5472852,65.6021956 C67.2954424,65.8185174 66.9806437,65.9266768 66.6028796,65.9266768 C66.2251154,65.9266768 65.9138145,65.8185174 65.6689673,65.6021956 C65.4241202,65.3858737 65.3016985,65.0753517 65.3016985,64.6706204 L65.3016985,56.5690569 C65.3016985,56.1782818 65.4241202,55.8782269 65.6689673,55.6688832 C65.9138145,55.4595394 66.2181199,55.3548691 66.5818928,55.3548691 C66.9456656,55.3548691 67.2394778,55.4560504 67.463338,55.658416 C67.6871982,55.8607817 67.7991267,56.1503695 67.7991267,56.5271883 L67.7991267,57.3645592 C68.0649607,56.7504842 68.460208,56.2759787 68.9848804,55.9410287 C69.5095528,55.6060787 70.0936793,55.4176721 70.7372775,55.3758033 L71.0310925,55.3548691 C71.3948654,55.3269566 71.681682,55.4037148 71.891551,55.5851461 Z M82.0491581,56.3597142 C82.6507824,57.0575267 82.9515901,58.1112079 82.9515901,59.5207893 L82.9515901,64.6706204 C82.9515901,65.0613955 82.8361639,65.3684284 82.605308,65.5917284 C82.3744522,65.8150284 82.0561557,65.9266768 81.650409,65.9266768 C81.2446624,65.9266768 80.9228681,65.8150284 80.6850166,65.5917284 C80.4471651,65.3684284 80.3282412,65.0613955 80.3282412,64.6706204 L80.3282412,59.6673292 C80.3282412,58.8718229 80.1778373,58.2926471 79.8770251,57.9297846 C79.576213,57.5669221 79.1040149,57.3854935 78.4604167,57.3854935 C77.7048884,57.3854935 77.0997753,57.6227462 76.6450593,58.0972588 C76.1903432,58.5717713 75.9629885,59.2067713 75.9629885,60.0022776 L75.9629885,64.6706204 C75.9629885,65.0613955 75.8440646,65.3684284 75.6062131,65.5917284 C75.3683616,65.8150284 75.0465673,65.9266768 74.6408207,65.9266768 C74.235074,65.9266768 73.9167775,65.8150284 73.6859217,65.5917284 C73.4550658,65.3684284 73.3396396,65.0613955 73.3396396,64.6706204 L73.3396396,56.5690569 C73.3396396,56.2061943 73.4585636,55.9131175 73.6964151,55.6898174 C73.9342666,55.4665174 74.2560608,55.3548691 74.6618075,55.3548691 C75.0255803,55.3548691 75.3228902,55.4630284 75.5537461,55.6793503 C75.784602,55.8956722 75.9000282,56.178282 75.9000282,56.5271883 L75.9000282,57.0924137 C76.2498098,56.5202074 76.7185101,56.0805921 77.3061432,55.7735545 C77.8937763,55.466517 78.5583514,55.3130005 79.2998884,55.3130005 C80.5311196,55.3130005 81.4475337,55.6619016 82.0491581,56.3597142 Z M94.3159376,63.2680241 C94.4628459,63.4494554 94.536299,63.6936862 94.536299,64.0007237 C94.536299,64.4333675 94.2774644,64.7962246 93.7597877,65.0893059 C93.2840847,65.3544746 92.7454291,65.5673043 92.1438047,65.7278012 C91.5421804,65.8882981 90.9685471,65.9685453 90.4228878,65.9685453 C88.7719187,65.9685453 87.4637551,65.4940399 86.4983578,64.5450148 C85.5329606,63.5959897 85.0502692,62.2980777 85.0502692,60.6512401 C85.0502692,59.6045212 85.260135,58.6764444 85.679873,57.8669818 C86.0996109,57.0575192 86.6907329,56.4294973 87.4532568,55.9828972 C88.2157807,55.5362972 89.0797284,55.3130005 90.0451256,55.3130005 C90.968549,55.3130005 91.7730347,55.5153631 92.4586066,55.9200944 C93.1441786,56.3248257 93.6758386,56.8970235 94.0536028,57.6367048 C94.4313669,58.3763861 94.6202461,59.2486388 94.6202461,60.2534889 C94.6202461,60.8536077 94.3544161,61.1536626 93.822748,61.1536626 L87.6316446,61.1536626 C87.7155922,62.116644 87.9884177,62.8249131 88.4501294,63.2784913 C88.9118412,63.7320695 89.5834118,63.9588551 90.4648614,63.9588551 C90.9125819,63.9588551 91.3078292,63.903031 91.6506151,63.791381 C91.9934011,63.6797309 92.3816529,63.5262145 92.8153821,63.330827 C93.23512,63.1075269 93.5429232,62.9958786 93.7388009,62.9958786 C93.9766524,62.9958786 94.1690294,63.0865929 94.3159376,63.2680241 Z M88.3976625,57.8251132 C87.9709289,58.2717133 87.7155922,58.9136912 87.6316446,59.7510663 L92.3746594,59.7510663 C92.3466769,58.899735 92.1368111,58.254268 91.7450557,57.8146461 C91.3533003,57.3750242 90.8076492,57.1552165 90.108086,57.1552165 C89.3945315,57.1552165 88.824396,57.3785132 88.3976625,57.8251132 Z M102.993976,64.9218317 C102.993976,65.2567817 102.857563,65.5114795 102.584733,65.6859326 C102.311904,65.8603858 101.923652,65.933655 101.419967,65.9057425 L100.853323,65.863874 C98.5027908,65.6963989 97.3275422,64.4403551 97.3275422,62.0957049 L97.3275422,57.5320334 L96.2782026,57.5320334 C95.9004385,57.5320334 95.6101241,57.4482972 95.4072508,57.2808222 C95.2043775,57.1133471 95.1029423,56.8691164 95.1029423,56.5481226 C95.1029423,56.2271288 95.2043775,55.9828981 95.4072508,55.8154231 C95.6101241,55.647948 95.9004385,55.5642118 96.2782026,55.5642118 L97.3275422,55.5642118 L97.3275422,53.6382587 C97.3275422,53.2614399 97.4464662,52.961385 97.6843177,52.738085 C97.9221692,52.514785 98.2439634,52.4031366 98.6497101,52.4031366 C99.0414655,52.4031366 99.3562642,52.514785 99.5941157,52.738085 C99.8319672,52.961385 99.9508911,53.2614399 99.9508911,53.6382587 L99.9508911,55.5642118 L101.734768,55.5642118 C102.112533,55.5642118 102.402847,55.647948 102.60572,55.8154231 C102.808594,55.9828981 102.910029,56.2271288 102.910029,56.5481226 C102.910029,56.8691164 102.808594,57.1133471 102.60572,57.2808222 C102.402847,57.4482972 102.112533,57.5320334 101.734768,57.5320334 L99.9508911,57.5320334 L99.9508911,62.2841133 C99.9508911,63.3168759 100.426587,63.8681396 101.377993,63.9379209 L101.944636,63.9797894 C102.6442,64.0216582 102.993976,64.3356691 102.993976,64.9218317 Z" id="Internet"></path>
        </g>
    </g>
</svg>