<?xml version="1.0" encoding="UTF-8" standalone="no"?>
<!DOCTYPE svg PUBLIC "-//W3C//DTD SVG 1.1//EN" "http://www.w3.org/Graphics/SVG/1.1/DTD/svg11.dtd">
<svg width="100%" height="100%" viewBox="0 0 649 13" version="1.1" xmlns="http://www.w3.org/2000/svg" xmlns:xlink="http://www.w3.org/1999/xlink" xml:space="preserve" xmlns:serif="http://www.serif.com/" style="fill-rule:evenodd;clip-rule:evenodd;stroke-linejoin:round;stroke-miterlimit:1.41421;">
    <g transform="matrix(1,0,0,1,-41,-729)">
        <g transform="matrix(1,0,0,1,41,739)">
            <g id="SonicWall-NGFW-appli">
                <path d="M2.359,-0.203C1.72,-0.413 1.209,-0.695 0.826,-1.05C0.686,-1.181 0.616,-1.344 0.616,-1.54C0.616,-1.671 0.653,-1.785 0.728,-1.883C0.803,-1.981 0.891,-2.03 0.994,-2.03C1.115,-2.03 1.246,-1.979 1.386,-1.876C2.254,-1.204 3.243,-0.868 4.354,-0.868C5.157,-0.868 5.773,-1.022 6.202,-1.33C6.631,-1.638 6.846,-2.077 6.846,-2.646C6.846,-2.973 6.743,-3.236 6.538,-3.437C6.333,-3.638 6.062,-3.799 5.726,-3.92C5.39,-4.041 4.937,-4.167 4.368,-4.298C3.603,-4.475 2.975,-4.662 2.485,-4.858C1.995,-5.054 1.598,-5.334 1.295,-5.698C0.992,-6.062 0.84,-6.538 0.84,-7.126C0.84,-7.686 0.992,-8.183 1.295,-8.617C1.598,-9.051 2.023,-9.387 2.569,-9.625C3.115,-9.863 3.738,-9.982 4.438,-9.982C5.091,-9.982 5.7,-9.882 6.265,-9.681C6.83,-9.48 7.303,-9.193 7.686,-8.82C7.835,-8.671 7.91,-8.507 7.91,-8.33C7.91,-8.199 7.873,-8.085 7.798,-7.987C7.723,-7.889 7.635,-7.84 7.532,-7.84C7.429,-7.84 7.294,-7.891 7.126,-7.994C6.669,-8.367 6.244,-8.629 5.852,-8.778C5.46,-8.927 4.989,-9.002 4.438,-9.002C3.663,-9.002 3.061,-8.841 2.632,-8.519C2.203,-8.197 1.988,-7.747 1.988,-7.168C1.988,-6.673 2.177,-6.302 2.555,-6.055C2.933,-5.808 3.514,-5.591 4.298,-5.404C5.147,-5.199 5.815,-5.01 6.3,-4.837C6.785,-4.664 7.189,-4.405 7.511,-4.06C7.833,-3.715 7.994,-3.253 7.994,-2.674C7.994,-2.123 7.842,-1.638 7.539,-1.218C7.236,-0.798 6.809,-0.471 6.258,-0.238C5.707,-0.005 5.077,0.112 4.368,0.112C3.668,0.112 2.998,0.007 2.359,-0.203Z" style="fill-rule:nonzero;"/>
                <path d="M10.777,-0.336C10.287,-0.625 9.909,-1.038 9.643,-1.575C9.377,-2.112 9.244,-2.735 9.244,-3.444C9.244,-4.153 9.377,-4.776 9.643,-5.313C9.909,-5.85 10.287,-6.263 10.777,-6.552C11.267,-6.841 11.834,-6.986 12.478,-6.986C13.122,-6.986 13.692,-6.841 14.186,-6.552C14.681,-6.263 15.061,-5.85 15.327,-5.313C15.593,-4.776 15.726,-4.153 15.726,-3.444C15.726,-2.735 15.593,-2.112 15.327,-1.575C15.061,-1.038 14.681,-0.625 14.186,-0.336C13.692,-0.047 13.122,0.098 12.478,0.098C11.834,0.098 11.267,-0.047 10.777,-0.336ZM14.025,-1.505C14.385,-1.948 14.564,-2.595 14.564,-3.444C14.564,-4.275 14.382,-4.916 14.018,-5.369C13.654,-5.822 13.141,-6.048 12.478,-6.048C11.816,-6.048 11.302,-5.822 10.938,-5.369C10.574,-4.916 10.392,-4.275 10.392,-3.444C10.392,-2.604 10.572,-1.96 10.931,-1.512C11.291,-1.064 11.806,-0.84 12.478,-0.84C13.15,-0.84 13.666,-1.062 14.025,-1.505Z" style="fill-rule:nonzero;"/>
                <path d="M23.263,-4.284L23.263,-0.49C23.263,-0.313 23.214,-0.175 23.116,-0.077C23.018,0.021 22.88,0.07 22.703,0.07C22.525,0.07 22.385,0.021 22.283,-0.077C22.18,-0.175 22.129,-0.313 22.129,-0.49L22.129,-4.214C22.129,-4.849 22.005,-5.311 21.758,-5.6C21.51,-5.889 21.116,-6.034 20.575,-6.034C19.949,-6.034 19.45,-5.843 19.077,-5.46C18.703,-5.077 18.517,-4.559 18.517,-3.906L18.517,-0.49C18.517,-0.313 18.468,-0.175 18.37,-0.077C18.272,0.021 18.134,0.07 17.957,0.07C17.779,0.07 17.639,0.021 17.537,-0.077C17.434,-0.175 17.383,-0.313 17.383,-0.49L17.383,-6.398C17.383,-6.566 17.434,-6.701 17.537,-6.804C17.639,-6.907 17.779,-6.958 17.957,-6.958C18.125,-6.958 18.258,-6.907 18.356,-6.804C18.454,-6.701 18.503,-6.571 18.503,-6.412L18.503,-5.698C18.727,-6.118 19.039,-6.438 19.441,-6.657C19.842,-6.876 20.299,-6.986 20.813,-6.986C22.446,-6.986 23.263,-6.085 23.263,-4.284Z" style="fill-rule:nonzero;"/>
                <path d="M25.458,-0.077C25.35,-0.175 25.297,-0.313 25.297,-0.49L25.297,-6.398C25.297,-6.575 25.35,-6.713 25.458,-6.811C25.565,-6.909 25.703,-6.958 25.871,-6.958C26.039,-6.958 26.174,-6.909 26.277,-6.811C26.379,-6.713 26.431,-6.575 26.431,-6.398L26.431,-0.49C26.431,-0.303 26.379,-0.163 26.277,-0.07C26.174,0.023 26.039,0.07 25.871,0.07C25.703,0.07 25.565,0.021 25.458,-0.077ZM25.325,-8.624C25.185,-8.755 25.115,-8.927 25.115,-9.142C25.115,-9.347 25.185,-9.515 25.325,-9.646C25.465,-9.777 25.647,-9.842 25.871,-9.842C26.095,-9.842 26.277,-9.777 26.417,-9.646C26.557,-9.515 26.627,-9.347 26.627,-9.142C26.627,-8.927 26.557,-8.755 26.417,-8.624C26.277,-8.493 26.095,-8.428 25.871,-8.428C25.647,-8.428 25.465,-8.493 25.325,-8.624Z" style="fill-rule:nonzero;"/>
                <path d="M29.634,-0.336C29.144,-0.625 28.766,-1.036 28.5,-1.568C28.234,-2.1 28.101,-2.716 28.101,-3.416C28.101,-4.116 28.239,-4.737 28.514,-5.278C28.789,-5.819 29.174,-6.239 29.669,-6.538C30.164,-6.837 30.733,-6.986 31.377,-6.986C31.732,-6.986 32.084,-6.937 32.434,-6.839C32.784,-6.741 33.09,-6.599 33.351,-6.412C33.519,-6.3 33.638,-6.19 33.708,-6.083C33.778,-5.976 33.813,-5.857 33.813,-5.726C33.813,-5.595 33.778,-5.488 33.708,-5.404C33.638,-5.32 33.547,-5.278 33.435,-5.278C33.37,-5.278 33.3,-5.297 33.225,-5.334C33.15,-5.371 33.087,-5.409 33.036,-5.446C32.985,-5.483 32.95,-5.507 32.931,-5.516C32.688,-5.675 32.457,-5.801 32.238,-5.894C32.019,-5.987 31.75,-6.034 31.433,-6.034C30.752,-6.034 30.222,-5.803 29.844,-5.341C29.466,-4.879 29.277,-4.237 29.277,-3.416C29.277,-2.595 29.466,-1.96 29.844,-1.512C30.222,-1.064 30.752,-0.84 31.433,-0.84C31.75,-0.84 32.023,-0.887 32.252,-0.98C32.481,-1.073 32.712,-1.199 32.945,-1.358C33.048,-1.423 33.146,-1.479 33.239,-1.526C33.332,-1.573 33.412,-1.596 33.477,-1.596C33.58,-1.596 33.666,-1.554 33.736,-1.47C33.806,-1.386 33.841,-1.279 33.841,-1.148C33.841,-1.027 33.808,-0.917 33.743,-0.819C33.678,-0.721 33.556,-0.611 33.379,-0.49C33.118,-0.313 32.803,-0.17 32.434,-0.063C32.065,0.044 31.694,0.098 31.321,0.098C30.686,0.098 30.124,-0.047 29.634,-0.336Z" style="fill-rule:nonzero;"/>
                <path d="M48.153,-9.863C48.247,-9.924 48.349,-9.954 48.461,-9.954C48.611,-9.954 48.739,-9.91 48.846,-9.821C48.954,-9.732 49.007,-9.613 49.007,-9.464C49.007,-9.399 48.993,-9.324 48.965,-9.24L45.801,-0.322C45.755,-0.191 45.675,-0.091 45.563,-0.021C45.451,0.049 45.325,0.084 45.185,0.084C45.055,0.084 44.933,0.049 44.821,-0.021C44.709,-0.091 44.63,-0.191 44.583,-0.322L41.839,-8.078L39.067,-0.322C39.021,-0.191 38.941,-0.091 38.829,-0.021C38.717,0.049 38.596,0.084 38.465,0.084C38.335,0.084 38.213,0.049 38.101,-0.021C37.989,-0.091 37.91,-0.191 37.863,-0.322L34.685,-9.24C34.657,-9.315 34.643,-9.385 34.643,-9.45C34.643,-9.599 34.702,-9.721 34.818,-9.814C34.935,-9.907 35.068,-9.954 35.217,-9.954C35.329,-9.954 35.434,-9.924 35.532,-9.863C35.63,-9.802 35.698,-9.711 35.735,-9.59L38.493,-1.638L41.293,-9.506C41.34,-9.646 41.415,-9.751 41.517,-9.821C41.62,-9.891 41.732,-9.926 41.853,-9.926C41.975,-9.926 42.087,-9.889 42.189,-9.814C42.292,-9.739 42.367,-9.632 42.413,-9.492L45.171,-1.61L47.957,-9.59C47.995,-9.711 48.06,-9.802 48.153,-9.863Z" style="fill-rule:nonzero;"/>
                <path d="M55.116,-4.298L55.116,-0.49C55.116,-0.322 55.067,-0.187 54.969,-0.084C54.871,0.019 54.738,0.07 54.57,0.07C54.402,0.07 54.266,0.019 54.164,-0.084C54.061,-0.187 54.01,-0.322 54.01,-0.49L54.01,-1.162C53.832,-0.761 53.562,-0.45 53.198,-0.231C52.834,-0.012 52.414,0.098 51.938,0.098C51.499,0.098 51.095,0.009 50.727,-0.168C50.358,-0.345 50.066,-0.593 49.852,-0.91C49.637,-1.227 49.53,-1.577 49.53,-1.96C49.53,-2.473 49.66,-2.872 49.922,-3.157C50.183,-3.442 50.612,-3.647 51.21,-3.773C51.807,-3.899 52.638,-3.962 53.702,-3.962L54.01,-3.962L54.01,-4.424C54.01,-4.984 53.895,-5.395 53.667,-5.656C53.438,-5.917 53.067,-6.048 52.554,-6.048C51.919,-6.048 51.275,-5.875 50.622,-5.53C50.37,-5.371 50.192,-5.292 50.09,-5.292C49.978,-5.292 49.884,-5.334 49.81,-5.418C49.735,-5.502 49.698,-5.609 49.698,-5.74C49.698,-5.871 49.737,-5.985 49.817,-6.083C49.896,-6.181 50.024,-6.281 50.202,-6.384C50.528,-6.571 50.899,-6.718 51.315,-6.825C51.73,-6.932 52.143,-6.986 52.554,-6.986C54.262,-6.986 55.116,-6.09 55.116,-4.298ZM53.471,-1.365C53.83,-1.743 54.01,-2.231 54.01,-2.828L54.01,-3.234L53.758,-3.234C52.936,-3.234 52.311,-3.199 51.882,-3.129C51.452,-3.059 51.147,-2.942 50.965,-2.779C50.783,-2.616 50.692,-2.375 50.692,-2.058C50.692,-1.694 50.825,-1.393 51.091,-1.155C51.357,-0.917 51.69,-0.798 52.092,-0.798C52.652,-0.798 53.111,-0.987 53.471,-1.365Z" style="fill-rule:nonzero;"/>
                <path d="M57.311,-0.077C57.204,-0.175 57.15,-0.313 57.15,-0.49L57.15,-9.38C57.15,-9.557 57.204,-9.695 57.311,-9.793C57.418,-9.891 57.556,-9.94 57.724,-9.94C57.883,-9.94 58.016,-9.891 58.123,-9.793C58.23,-9.695 58.284,-9.557 58.284,-9.38L58.284,-0.49C58.284,-0.313 58.23,-0.175 58.123,-0.077C58.016,0.021 57.883,0.07 57.724,0.07C57.556,0.07 57.418,0.021 57.311,-0.077Z" style="fill-rule:nonzero;"/>
                <path d="M60.521,-0.077C60.414,-0.175 60.36,-0.313 60.36,-0.49L60.36,-9.38C60.36,-9.557 60.414,-9.695 60.521,-9.793C60.628,-9.891 60.766,-9.94 60.934,-9.94C61.093,-9.94 61.226,-9.891 61.333,-9.793C61.44,-9.695 61.494,-9.557 61.494,-9.38L61.494,-0.49C61.494,-0.313 61.44,-0.175 61.333,-0.077C61.226,0.021 61.093,0.07 60.934,0.07C60.766,0.07 60.628,0.021 60.521,-0.077Z" style="fill-rule:nonzero;"/>
                <path d="M75.083,-9.779C75.176,-9.672 75.223,-9.529 75.223,-9.352L75.223,-0.518C75.223,-0.341 75.174,-0.198 75.076,-0.091C74.978,0.016 74.84,0.07 74.663,0.07C74.485,0.07 74.331,-0.009 74.201,-0.168L68.391,-7.938L68.391,-0.518C68.391,-0.341 68.342,-0.198 68.244,-0.091C68.146,0.016 68.013,0.07 67.845,0.07C67.677,0.07 67.546,0.016 67.453,-0.091C67.359,-0.198 67.313,-0.341 67.313,-0.518L67.313,-9.352C67.313,-9.529 67.362,-9.672 67.46,-9.779C67.558,-9.886 67.695,-9.94 67.873,-9.94C68.059,-9.94 68.218,-9.861 68.349,-9.702L74.145,-1.932L74.145,-9.352C74.145,-9.529 74.194,-9.672 74.292,-9.779C74.39,-9.886 74.523,-9.94 74.691,-9.94C74.859,-9.94 74.989,-9.886 75.083,-9.779Z" style="fill-rule:nonzero;"/>
                <path d="M85.3,-5.012C85.389,-4.928 85.433,-4.811 85.433,-4.662L85.433,-1.176C85.433,-0.952 85.398,-0.784 85.328,-0.672C85.258,-0.56 85.13,-0.471 84.943,-0.406C84.57,-0.247 84.117,-0.121 83.585,-0.028C83.053,0.065 82.521,0.112 81.989,0.112C81.009,0.112 80.164,-0.089 79.455,-0.49C78.746,-0.891 78.202,-1.47 77.824,-2.226C77.446,-2.982 77.257,-3.887 77.257,-4.942C77.257,-5.978 77.444,-6.874 77.817,-7.63C78.19,-8.386 78.727,-8.967 79.427,-9.373C80.127,-9.779 80.948,-9.982 81.891,-9.982C82.544,-9.982 83.151,-9.882 83.711,-9.681C84.271,-9.48 84.742,-9.193 85.125,-8.82C85.284,-8.661 85.363,-8.498 85.363,-8.33C85.363,-8.199 85.326,-8.085 85.251,-7.987C85.176,-7.889 85.083,-7.84 84.971,-7.84C84.859,-7.84 84.728,-7.896 84.579,-8.008C84.094,-8.381 83.655,-8.64 83.263,-8.785C82.871,-8.93 82.418,-9.002 81.905,-9.002C80.794,-9.002 79.943,-8.652 79.35,-7.952C78.757,-7.252 78.461,-6.249 78.461,-4.942C78.461,-3.607 78.762,-2.592 79.364,-1.897C79.966,-1.202 80.85,-0.854 82.017,-0.854C82.885,-0.854 83.674,-0.985 84.383,-1.246L84.383,-4.242L82.339,-4.242C82.18,-4.242 82.054,-4.284 81.961,-4.368C81.868,-4.452 81.821,-4.559 81.821,-4.69C81.821,-4.83 81.868,-4.94 81.961,-5.019C82.054,-5.098 82.18,-5.138 82.339,-5.138L84.957,-5.138C85.097,-5.138 85.211,-5.096 85.3,-5.012Z" style="fill-rule:nonzero;"/>
                <path d="M87.873,-0.091C87.771,-0.198 87.719,-0.341 87.719,-0.518L87.719,-9.31C87.719,-9.478 87.773,-9.613 87.88,-9.716C87.988,-9.819 88.13,-9.87 88.307,-9.87L93.403,-9.87C93.571,-9.87 93.702,-9.828 93.795,-9.744C93.889,-9.66 93.935,-9.539 93.935,-9.38C93.935,-9.231 93.889,-9.114 93.795,-9.03C93.702,-8.946 93.571,-8.904 93.403,-8.904L88.853,-8.904L88.853,-5.502L93.123,-5.502C93.291,-5.502 93.422,-5.46 93.515,-5.376C93.609,-5.292 93.655,-5.171 93.655,-5.012C93.655,-4.863 93.609,-4.746 93.515,-4.662C93.422,-4.578 93.291,-4.536 93.123,-4.536L88.853,-4.536L88.853,-0.518C88.853,-0.341 88.804,-0.198 88.706,-0.091C88.608,0.016 88.471,0.07 88.293,0.07C88.116,0.07 87.976,0.016 87.873,-0.091Z" style="fill-rule:nonzero;"/>
                <path d="M108.346,-9.863C108.439,-9.924 108.542,-9.954 108.654,-9.954C108.803,-9.954 108.931,-9.91 109.039,-9.821C109.146,-9.732 109.2,-9.613 109.2,-9.464C109.2,-9.399 109.186,-9.324 109.158,-9.24L105.994,-0.322C105.947,-0.191 105.868,-0.091 105.756,-0.021C105.644,0.049 105.518,0.084 105.378,0.084C105.247,0.084 105.126,0.049 105.014,-0.021C104.902,-0.091 104.822,-0.191 104.776,-0.322L102.032,-8.078L99.26,-0.322C99.213,-0.191 99.134,-0.091 99.022,-0.021C98.91,0.049 98.788,0.084 98.658,0.084C98.527,0.084 98.406,0.049 98.294,-0.021C98.182,-0.091 98.102,-0.191 98.056,-0.322L94.878,-9.24C94.85,-9.315 94.836,-9.385 94.836,-9.45C94.836,-9.599 94.894,-9.721 95.011,-9.814C95.127,-9.907 95.26,-9.954 95.41,-9.954C95.522,-9.954 95.627,-9.924 95.725,-9.863C95.823,-9.802 95.89,-9.711 95.928,-9.59L98.686,-1.638L101.486,-9.506C101.532,-9.646 101.607,-9.751 101.71,-9.821C101.812,-9.891 101.924,-9.926 102.046,-9.926C102.167,-9.926 102.279,-9.889 102.382,-9.814C102.484,-9.739 102.559,-9.632 102.606,-9.492L105.364,-1.61L108.15,-9.59C108.187,-9.711 108.252,-9.802 108.346,-9.863Z" style="fill-rule:nonzero;"/>
                <path d="M119.666,-4.298L119.666,-0.49C119.666,-0.322 119.617,-0.187 119.519,-0.084C119.421,0.019 119.288,0.07 119.12,0.07C118.952,0.07 118.817,0.019 118.714,-0.084C118.611,-0.187 118.56,-0.322 118.56,-0.49L118.56,-1.162C118.383,-0.761 118.112,-0.45 117.748,-0.231C117.384,-0.012 116.964,0.098 116.488,0.098C116.049,0.098 115.646,0.009 115.277,-0.168C114.908,-0.345 114.617,-0.593 114.402,-0.91C114.187,-1.227 114.08,-1.577 114.08,-1.96C114.08,-2.473 114.211,-2.872 114.472,-3.157C114.733,-3.442 115.163,-3.647 115.76,-3.773C116.357,-3.899 117.188,-3.962 118.252,-3.962L118.56,-3.962L118.56,-4.424C118.56,-4.984 118.446,-5.395 118.217,-5.656C117.988,-5.917 117.617,-6.048 117.104,-6.048C116.469,-6.048 115.825,-5.875 115.172,-5.53C114.92,-5.371 114.743,-5.292 114.64,-5.292C114.528,-5.292 114.435,-5.334 114.36,-5.418C114.285,-5.502 114.248,-5.609 114.248,-5.74C114.248,-5.871 114.288,-5.985 114.367,-6.083C114.446,-6.181 114.575,-6.281 114.752,-6.384C115.079,-6.571 115.45,-6.718 115.865,-6.825C116.28,-6.932 116.693,-6.986 117.104,-6.986C118.812,-6.986 119.666,-6.09 119.666,-4.298ZM118.021,-1.365C118.38,-1.743 118.56,-2.231 118.56,-2.828L118.56,-3.234L118.308,-3.234C117.487,-3.234 116.861,-3.199 116.432,-3.129C116.003,-3.059 115.697,-2.942 115.515,-2.779C115.333,-2.616 115.242,-2.375 115.242,-2.058C115.242,-1.694 115.375,-1.393 115.641,-1.155C115.907,-0.917 116.241,-0.798 116.642,-0.798C117.202,-0.798 117.662,-0.987 118.021,-1.365Z" style="fill-rule:nonzero;"/>
                <path d="M126.712,-6.538C127.17,-6.239 127.524,-5.822 127.776,-5.285C128.028,-4.748 128.154,-4.125 128.154,-3.416C128.154,-2.707 128.028,-2.088 127.776,-1.561C127.524,-1.034 127.172,-0.625 126.719,-0.336C126.267,-0.047 125.737,0.098 125.13,0.098C124.598,0.098 124.134,-0.019 123.737,-0.252C123.341,-0.485 123.04,-0.817 122.834,-1.246L122.834,2.044C122.834,2.212 122.785,2.345 122.687,2.443C122.589,2.541 122.452,2.59 122.274,2.59C122.097,2.59 121.957,2.539 121.854,2.436C121.752,2.333 121.7,2.203 121.7,2.044L121.7,-6.398C121.7,-6.566 121.752,-6.701 121.854,-6.804C121.957,-6.907 122.097,-6.958 122.274,-6.958C122.452,-6.958 122.589,-6.907 122.687,-6.804C122.785,-6.701 122.834,-6.566 122.834,-6.398L122.834,-5.642C123.04,-6.071 123.341,-6.403 123.737,-6.636C124.134,-6.869 124.598,-6.986 125.13,-6.986C125.728,-6.986 126.255,-6.837 126.712,-6.538ZM126.446,-1.512C126.81,-1.96 126.992,-2.595 126.992,-3.416C126.992,-4.237 126.81,-4.879 126.446,-5.341C126.082,-5.803 125.569,-6.034 124.906,-6.034C124.244,-6.034 123.733,-5.81 123.373,-5.362C123.014,-4.914 122.834,-4.275 122.834,-3.444C122.834,-2.613 123.014,-1.972 123.373,-1.519C123.733,-1.066 124.244,-0.84 124.906,-0.84C125.569,-0.84 126.082,-1.064 126.446,-1.512Z" style="fill-rule:nonzero;"/>
                <path d="M134.823,-6.538C135.28,-6.239 135.635,-5.822 135.887,-5.285C136.139,-4.748 136.265,-4.125 136.265,-3.416C136.265,-2.707 136.139,-2.088 135.887,-1.561C135.635,-1.034 135.282,-0.625 134.83,-0.336C134.377,-0.047 133.847,0.098 133.241,0.098C132.709,0.098 132.244,-0.019 131.848,-0.252C131.451,-0.485 131.15,-0.817 130.945,-1.246L130.945,2.044C130.945,2.212 130.896,2.345 130.798,2.443C130.7,2.541 130.562,2.59 130.385,2.59C130.207,2.59 130.067,2.539 129.965,2.436C129.862,2.333 129.811,2.203 129.811,2.044L129.811,-6.398C129.811,-6.566 129.862,-6.701 129.965,-6.804C130.067,-6.907 130.207,-6.958 130.385,-6.958C130.562,-6.958 130.7,-6.907 130.798,-6.804C130.896,-6.701 130.945,-6.566 130.945,-6.398L130.945,-5.642C131.15,-6.071 131.451,-6.403 131.848,-6.636C132.244,-6.869 132.709,-6.986 133.241,-6.986C133.838,-6.986 134.365,-6.837 134.823,-6.538ZM134.557,-1.512C134.921,-1.96 135.103,-2.595 135.103,-3.416C135.103,-4.237 134.921,-4.879 134.557,-5.341C134.193,-5.803 133.679,-6.034 133.017,-6.034C132.354,-6.034 131.843,-5.81 131.484,-5.362C131.124,-4.914 130.945,-4.275 130.945,-3.444C130.945,-2.613 131.124,-1.972 131.484,-1.519C131.843,-1.066 132.354,-0.84 133.017,-0.84C133.679,-0.84 134.193,-1.064 134.557,-1.512Z" style="fill-rule:nonzero;"/>
                <path d="M138.082,-0.077C137.975,-0.175 137.921,-0.313 137.921,-0.49L137.921,-9.38C137.921,-9.557 137.975,-9.695 138.082,-9.793C138.189,-9.891 138.327,-9.94 138.495,-9.94C138.654,-9.94 138.787,-9.891 138.894,-9.793C139.001,-9.695 139.055,-9.557 139.055,-9.38L139.055,-0.49C139.055,-0.313 139.001,-0.175 138.894,-0.077C138.787,0.021 138.654,0.07 138.495,0.07C138.327,0.07 138.189,0.021 138.082,-0.077Z" style="fill-rule:nonzero;"/>
                <path d="M141.292,-0.077C141.185,-0.175 141.131,-0.313 141.131,-0.49L141.131,-6.398C141.131,-6.575 141.185,-6.713 141.292,-6.811C141.399,-6.909 141.537,-6.958 141.705,-6.958C141.873,-6.958 142.008,-6.909 142.111,-6.811C142.214,-6.713 142.265,-6.575 142.265,-6.398L142.265,-0.49C142.265,-0.303 142.214,-0.163 142.111,-0.07C142.008,0.023 141.873,0.07 141.705,0.07C141.537,0.07 141.399,0.021 141.292,-0.077ZM141.159,-8.624C141.019,-8.755 140.949,-8.927 140.949,-9.142C140.949,-9.347 141.019,-9.515 141.159,-9.646C141.299,-9.777 141.481,-9.842 141.705,-9.842C141.929,-9.842 142.111,-9.777 142.251,-9.646C142.391,-9.515 142.461,-9.347 142.461,-9.142C142.461,-8.927 142.391,-8.755 142.251,-8.624C142.111,-8.493 141.929,-8.428 141.705,-8.428C141.481,-8.428 141.299,-8.493 141.159,-8.624Z" style="fill-rule:nonzero;"/>
                <path d="M149.689,-4.298L149.689,-0.49C149.689,-0.322 149.64,-0.187 149.542,-0.084C149.444,0.019 149.311,0.07 149.143,0.07C148.975,0.07 148.84,0.019 148.737,-0.084C148.635,-0.187 148.583,-0.322 148.583,-0.49L148.583,-1.162C148.406,-0.761 148.135,-0.45 147.771,-0.231C147.407,-0.012 146.987,0.098 146.511,0.098C146.073,0.098 145.669,0.009 145.3,-0.168C144.932,-0.345 144.64,-0.593 144.425,-0.91C144.211,-1.227 144.103,-1.577 144.103,-1.96C144.103,-2.473 144.234,-2.872 144.495,-3.157C144.757,-3.442 145.186,-3.647 145.783,-3.773C146.381,-3.899 147.211,-3.962 148.275,-3.962L148.583,-3.962L148.583,-4.424C148.583,-4.984 148.469,-5.395 148.24,-5.656C148.012,-5.917 147.641,-6.048 147.127,-6.048C146.493,-6.048 145.849,-5.875 145.195,-5.53C144.943,-5.371 144.766,-5.292 144.663,-5.292C144.551,-5.292 144.458,-5.334 144.383,-5.418C144.309,-5.502 144.271,-5.609 144.271,-5.74C144.271,-5.871 144.311,-5.985 144.39,-6.083C144.47,-6.181 144.598,-6.281 144.775,-6.384C145.102,-6.571 145.473,-6.718 145.888,-6.825C146.304,-6.932 146.717,-6.986 147.127,-6.986C148.835,-6.986 149.689,-6.09 149.689,-4.298ZM148.044,-1.365C148.404,-1.743 148.583,-2.231 148.583,-2.828L148.583,-3.234L148.331,-3.234C147.51,-3.234 146.885,-3.199 146.455,-3.129C146.026,-3.059 145.72,-2.942 145.538,-2.779C145.356,-2.616 145.265,-2.375 145.265,-2.058C145.265,-1.694 145.398,-1.393 145.664,-1.155C145.93,-0.917 146.264,-0.798 146.665,-0.798C147.225,-0.798 147.685,-0.987 148.044,-1.365Z" style="fill-rule:nonzero;"/>
                <path d="M157.604,-4.284L157.604,-0.49C157.604,-0.313 157.555,-0.175 157.457,-0.077C157.359,0.021 157.221,0.07 157.044,0.07C156.866,0.07 156.726,0.021 156.624,-0.077C156.521,-0.175 156.47,-0.313 156.47,-0.49L156.47,-4.214C156.47,-4.849 156.346,-5.311 156.099,-5.6C155.851,-5.889 155.457,-6.034 154.916,-6.034C154.29,-6.034 153.791,-5.843 153.418,-5.46C153.044,-5.077 152.858,-4.559 152.858,-3.906L152.858,-0.49C152.858,-0.313 152.809,-0.175 152.711,-0.077C152.613,0.021 152.475,0.07 152.298,0.07C152.12,0.07 151.98,0.021 151.878,-0.077C151.775,-0.175 151.724,-0.313 151.724,-0.49L151.724,-6.398C151.724,-6.566 151.775,-6.701 151.878,-6.804C151.98,-6.907 152.12,-6.958 152.298,-6.958C152.466,-6.958 152.599,-6.907 152.697,-6.804C152.795,-6.701 152.844,-6.571 152.844,-6.412L152.844,-5.698C153.068,-6.118 153.38,-6.438 153.782,-6.657C154.183,-6.876 154.64,-6.986 155.154,-6.986C156.787,-6.986 157.604,-6.085 157.604,-4.284Z" style="fill-rule:nonzero;"/>
                <path d="M160.765,-0.336C160.275,-0.625 159.897,-1.036 159.631,-1.568C159.365,-2.1 159.232,-2.716 159.232,-3.416C159.232,-4.116 159.37,-4.737 159.645,-5.278C159.92,-5.819 160.305,-6.239 160.8,-6.538C161.295,-6.837 161.864,-6.986 162.508,-6.986C162.863,-6.986 163.215,-6.937 163.565,-6.839C163.915,-6.741 164.221,-6.599 164.482,-6.412C164.65,-6.3 164.769,-6.19 164.839,-6.083C164.909,-5.976 164.944,-5.857 164.944,-5.726C164.944,-5.595 164.909,-5.488 164.839,-5.404C164.769,-5.32 164.678,-5.278 164.566,-5.278C164.501,-5.278 164.431,-5.297 164.356,-5.334C164.281,-5.371 164.218,-5.409 164.167,-5.446C164.116,-5.483 164.081,-5.507 164.062,-5.516C163.819,-5.675 163.588,-5.801 163.369,-5.894C163.15,-5.987 162.881,-6.034 162.564,-6.034C161.883,-6.034 161.353,-5.803 160.975,-5.341C160.597,-4.879 160.408,-4.237 160.408,-3.416C160.408,-2.595 160.597,-1.96 160.975,-1.512C161.353,-1.064 161.883,-0.84 162.564,-0.84C162.881,-0.84 163.154,-0.887 163.383,-0.98C163.612,-1.073 163.843,-1.199 164.076,-1.358C164.179,-1.423 164.277,-1.479 164.37,-1.526C164.463,-1.573 164.543,-1.596 164.608,-1.596C164.711,-1.596 164.797,-1.554 164.867,-1.47C164.937,-1.386 164.972,-1.279 164.972,-1.148C164.972,-1.027 164.939,-0.917 164.874,-0.819C164.809,-0.721 164.687,-0.611 164.51,-0.49C164.249,-0.313 163.934,-0.17 163.565,-0.063C163.196,0.044 162.825,0.098 162.452,0.098C161.817,0.098 161.255,-0.047 160.765,-0.336Z" style="fill-rule:nonzero;"/>
                <path d="M171.85,-1.456C171.925,-1.372 171.962,-1.265 171.962,-1.134C171.962,-0.901 171.799,-0.686 171.472,-0.49C171.136,-0.294 170.782,-0.147 170.408,-0.049C170.035,0.049 169.671,0.098 169.316,0.098C168.262,0.098 167.429,-0.215 166.817,-0.84C166.206,-1.465 165.9,-2.329 165.9,-3.43C165.9,-4.13 166.036,-4.748 166.306,-5.285C166.577,-5.822 166.957,-6.239 167.447,-6.538C167.937,-6.837 168.495,-6.986 169.12,-6.986C170.007,-6.986 170.712,-6.697 171.234,-6.118C171.757,-5.539 172.018,-4.755 172.018,-3.766C172.018,-3.579 171.981,-3.444 171.906,-3.36C171.832,-3.276 171.71,-3.234 171.542,-3.234L167.034,-3.234C167.118,-1.629 167.879,-0.826 169.316,-0.826C169.68,-0.826 169.993,-0.875 170.254,-0.973C170.516,-1.071 170.796,-1.204 171.094,-1.372C171.337,-1.512 171.5,-1.582 171.584,-1.582C171.687,-1.582 171.776,-1.54 171.85,-1.456ZM167.699,-5.544C167.34,-5.171 167.128,-4.643 167.062,-3.962L171.024,-3.962C171.006,-4.653 170.833,-5.182 170.506,-5.551C170.18,-5.92 169.722,-6.104 169.134,-6.104C168.537,-6.104 168.059,-5.917 167.699,-5.544Z" style="fill-rule:nonzero;"/>
                <path d="M174.717,-0.056C174.33,-0.159 173.987,-0.303 173.688,-0.49C173.52,-0.602 173.401,-0.707 173.331,-0.805C173.261,-0.903 173.226,-1.022 173.226,-1.162C173.226,-1.283 173.261,-1.384 173.331,-1.463C173.401,-1.542 173.492,-1.582 173.604,-1.582C173.716,-1.582 173.88,-1.512 174.094,-1.372C174.374,-1.204 174.652,-1.071 174.927,-0.973C175.203,-0.875 175.546,-0.826 175.956,-0.826C176.46,-0.826 176.852,-0.915 177.132,-1.092C177.412,-1.269 177.552,-1.526 177.552,-1.862C177.552,-2.067 177.501,-2.233 177.398,-2.359C177.296,-2.485 177.118,-2.597 176.866,-2.695C176.614,-2.793 176.246,-2.893 175.76,-2.996C174.939,-3.173 174.351,-3.411 173.996,-3.71C173.642,-4.009 173.464,-4.415 173.464,-4.928C173.464,-5.329 173.576,-5.684 173.8,-5.992C174.024,-6.3 174.335,-6.543 174.731,-6.72C175.128,-6.897 175.578,-6.986 176.082,-6.986C176.446,-6.986 176.799,-6.937 177.139,-6.839C177.48,-6.741 177.781,-6.603 178.042,-6.426C178.36,-6.202 178.518,-5.969 178.518,-5.726C178.518,-5.605 178.481,-5.502 178.406,-5.418C178.332,-5.334 178.243,-5.292 178.14,-5.292C178.028,-5.292 177.86,-5.371 177.636,-5.53C177.375,-5.698 177.128,-5.829 176.894,-5.922C176.661,-6.015 176.372,-6.062 176.026,-6.062C175.588,-6.062 175.235,-5.964 174.969,-5.768C174.703,-5.572 174.57,-5.311 174.57,-4.984C174.57,-4.779 174.619,-4.613 174.717,-4.487C174.815,-4.361 174.979,-4.249 175.207,-4.151C175.436,-4.053 175.765,-3.957 176.194,-3.864C176.829,-3.724 177.321,-3.57 177.671,-3.402C178.021,-3.234 178.271,-3.029 178.42,-2.786C178.57,-2.543 178.644,-2.235 178.644,-1.862C178.644,-1.274 178.397,-0.8 177.902,-0.441C177.408,-0.082 176.754,0.098 175.942,0.098C175.513,0.098 175.105,0.047 174.717,-0.056Z" style="fill-rule:nonzero;"/>
                <path d="M188.915,-6.538C189.372,-6.239 189.727,-5.822 189.979,-5.285C190.231,-4.748 190.357,-4.125 190.357,-3.416C190.357,-2.707 190.231,-2.088 189.979,-1.561C189.727,-1.034 189.375,-0.625 188.922,-0.336C188.469,-0.047 187.94,0.098 187.333,0.098C186.801,0.098 186.337,-0.019 185.94,-0.252C185.543,-0.485 185.242,-0.817 185.037,-1.246L185.037,2.044C185.037,2.212 184.988,2.345 184.89,2.443C184.792,2.541 184.654,2.59 184.477,2.59C184.3,2.59 184.16,2.539 184.057,2.436C183.954,2.333 183.903,2.203 183.903,2.044L183.903,-6.398C183.903,-6.566 183.954,-6.701 184.057,-6.804C184.16,-6.907 184.3,-6.958 184.477,-6.958C184.654,-6.958 184.792,-6.907 184.89,-6.804C184.988,-6.701 185.037,-6.566 185.037,-6.398L185.037,-5.642C185.242,-6.071 185.543,-6.403 185.94,-6.636C186.337,-6.869 186.801,-6.986 187.333,-6.986C187.93,-6.986 188.458,-6.837 188.915,-6.538ZM188.649,-1.512C189.013,-1.96 189.195,-2.595 189.195,-3.416C189.195,-4.237 189.013,-4.879 188.649,-5.341C188.285,-5.803 187.772,-6.034 187.109,-6.034C186.446,-6.034 185.935,-5.81 185.576,-5.362C185.217,-4.914 185.037,-4.275 185.037,-3.444C185.037,-2.613 185.217,-1.972 185.576,-1.519C185.935,-1.066 186.446,-0.84 187.109,-0.84C187.772,-0.84 188.285,-1.064 188.649,-1.512Z" style="fill-rule:nonzero;"/>
                <path d="M195.975,-6.482C195.975,-6.333 195.933,-6.214 195.849,-6.125C195.765,-6.036 195.621,-5.983 195.415,-5.964L194.995,-5.922C194.37,-5.866 193.906,-5.644 193.602,-5.257C193.299,-4.87 193.147,-4.415 193.147,-3.892L193.147,-0.49C193.147,-0.303 193.096,-0.163 192.993,-0.07C192.891,0.023 192.755,0.07 192.587,0.07C192.419,0.07 192.282,0.021 192.174,-0.077C192.067,-0.175 192.013,-0.313 192.013,-0.49L192.013,-6.398C192.013,-6.575 192.069,-6.713 192.181,-6.811C192.293,-6.909 192.429,-6.958 192.587,-6.958C192.737,-6.958 192.863,-6.909 192.965,-6.811C193.068,-6.713 193.119,-6.58 193.119,-6.412L193.119,-5.628C193.315,-6.039 193.593,-6.351 193.952,-6.566C194.312,-6.781 194.725,-6.907 195.191,-6.944L195.387,-6.958C195.779,-6.986 195.975,-6.827 195.975,-6.482Z" style="fill-rule:nonzero;"/>
                <path d="M197.905,-0.336C197.415,-0.625 197.037,-1.038 196.771,-1.575C196.505,-2.112 196.372,-2.735 196.372,-3.444C196.372,-4.153 196.505,-4.776 196.771,-5.313C197.037,-5.85 197.415,-6.263 197.905,-6.552C198.395,-6.841 198.962,-6.986 199.606,-6.986C200.25,-6.986 200.819,-6.841 201.314,-6.552C201.808,-6.263 202.189,-5.85 202.455,-5.313C202.721,-4.776 202.854,-4.153 202.854,-3.444C202.854,-2.735 202.721,-2.112 202.455,-1.575C202.189,-1.038 201.808,-0.625 201.314,-0.336C200.819,-0.047 200.25,0.098 199.606,0.098C198.962,0.098 198.395,-0.047 197.905,-0.336ZM201.153,-1.505C201.512,-1.948 201.692,-2.595 201.692,-3.444C201.692,-4.275 201.51,-4.916 201.146,-5.369C200.782,-5.822 200.268,-6.048 199.606,-6.048C198.943,-6.048 198.43,-5.822 198.066,-5.369C197.702,-4.916 197.52,-4.275 197.52,-3.444C197.52,-2.604 197.699,-1.96 198.059,-1.512C198.418,-1.064 198.934,-0.84 199.606,-0.84C200.278,-0.84 200.793,-1.062 201.153,-1.505Z" style="fill-rule:nonzero;"/>
                <path d="M209.83,-6.944C209.97,-6.944 210.096,-6.897 210.208,-6.804C210.32,-6.711 210.376,-6.594 210.376,-6.454C210.376,-6.37 210.357,-6.295 210.32,-6.23L207.59,-0.35C207.534,-0.229 207.45,-0.133 207.338,-0.063C207.226,0.007 207.104,0.042 206.974,0.042C206.852,0.042 206.736,0.007 206.624,-0.063C206.512,-0.133 206.423,-0.229 206.358,-0.35L203.642,-6.23C203.604,-6.295 203.586,-6.365 203.586,-6.44C203.586,-6.58 203.649,-6.701 203.775,-6.804C203.901,-6.907 204.038,-6.958 204.188,-6.958C204.281,-6.958 204.372,-6.93 204.461,-6.874C204.549,-6.818 204.617,-6.739 204.664,-6.636L207.002,-1.386L209.34,-6.608C209.442,-6.832 209.606,-6.944 209.83,-6.944Z" style="fill-rule:nonzero;"/>
                <path d="M211.745,-0.077C211.638,-0.175 211.584,-0.313 211.584,-0.49L211.584,-6.398C211.584,-6.575 211.638,-6.713 211.745,-6.811C211.852,-6.909 211.99,-6.958 212.158,-6.958C212.326,-6.958 212.461,-6.909 212.564,-6.811C212.667,-6.713 212.718,-6.575 212.718,-6.398L212.718,-0.49C212.718,-0.303 212.667,-0.163 212.564,-0.07C212.461,0.023 212.326,0.07 212.158,0.07C211.99,0.07 211.852,0.021 211.745,-0.077ZM211.612,-8.624C211.472,-8.755 211.402,-8.927 211.402,-9.142C211.402,-9.347 211.472,-9.515 211.612,-9.646C211.752,-9.777 211.934,-9.842 212.158,-9.842C212.382,-9.842 212.564,-9.777 212.704,-9.646C212.844,-9.515 212.914,-9.347 212.914,-9.142C212.914,-8.927 212.844,-8.755 212.704,-8.624C212.564,-8.493 212.382,-8.428 212.158,-8.428C211.934,-8.428 211.752,-8.493 211.612,-8.624Z" style="fill-rule:nonzero;"/>
                <path d="M220.688,-9.786C220.791,-9.683 220.842,-9.553 220.842,-9.394L220.842,-0.49C220.842,-0.322 220.791,-0.187 220.688,-0.084C220.586,0.019 220.446,0.07 220.268,0.07C220.091,0.07 219.953,0.019 219.855,-0.084C219.757,-0.187 219.708,-0.322 219.708,-0.49L219.708,-1.246C219.503,-0.817 219.202,-0.485 218.805,-0.252C218.409,-0.019 217.944,0.098 217.412,0.098C216.815,0.098 216.288,-0.051 215.83,-0.35C215.373,-0.649 215.018,-1.066 214.766,-1.603C214.514,-2.14 214.388,-2.763 214.388,-3.472C214.388,-4.172 214.514,-4.788 214.766,-5.32C215.018,-5.852 215.373,-6.263 215.83,-6.552C216.288,-6.841 216.815,-6.986 217.412,-6.986C217.944,-6.986 218.409,-6.869 218.805,-6.636C219.202,-6.403 219.503,-6.071 219.708,-5.642L219.708,-9.394C219.708,-9.562 219.757,-9.695 219.855,-9.793C219.953,-9.891 220.091,-9.94 220.268,-9.94C220.446,-9.94 220.586,-9.889 220.688,-9.786ZM219.169,-1.519C219.529,-1.972 219.708,-2.613 219.708,-3.444C219.708,-4.275 219.529,-4.914 219.169,-5.362C218.81,-5.81 218.299,-6.034 217.636,-6.034C216.974,-6.034 216.458,-5.81 216.089,-5.362C215.721,-4.914 215.536,-4.284 215.536,-3.472C215.536,-2.641 215.721,-1.995 216.089,-1.533C216.458,-1.071 216.974,-0.84 217.636,-0.84C218.299,-0.84 218.81,-1.066 219.169,-1.519Z" style="fill-rule:nonzero;"/>
                <path d="M228.449,-1.456C228.523,-1.372 228.561,-1.265 228.561,-1.134C228.561,-0.901 228.397,-0.686 228.071,-0.49C227.735,-0.294 227.38,-0.147 227.007,-0.049C226.633,0.049 226.269,0.098 225.915,0.098C224.86,0.098 224.027,-0.215 223.416,-0.84C222.804,-1.465 222.499,-2.329 222.499,-3.43C222.499,-4.13 222.634,-4.748 222.905,-5.285C223.175,-5.822 223.556,-6.239 224.046,-6.538C224.536,-6.837 225.093,-6.986 225.719,-6.986C226.605,-6.986 227.31,-6.697 227.833,-6.118C228.355,-5.539 228.617,-4.755 228.617,-3.766C228.617,-3.579 228.579,-3.444 228.505,-3.36C228.43,-3.276 228.309,-3.234 228.141,-3.234L223.633,-3.234C223.717,-1.629 224.477,-0.826 225.915,-0.826C226.279,-0.826 226.591,-0.875 226.853,-0.973C227.114,-1.071 227.394,-1.204 227.693,-1.372C227.935,-1.512 228.099,-1.582 228.183,-1.582C228.285,-1.582 228.374,-1.54 228.449,-1.456ZM224.298,-5.544C223.938,-5.171 223.726,-4.643 223.661,-3.962L227.623,-3.962C227.604,-4.653 227.431,-5.182 227.105,-5.551C226.778,-5.92 226.321,-6.104 225.733,-6.104C225.135,-6.104 224.657,-5.917 224.298,-5.544Z" style="fill-rule:nonzero;"/>
                <path d="M231.316,-0.056C230.929,-0.159 230.586,-0.303 230.287,-0.49C230.119,-0.602 230,-0.707 229.93,-0.805C229.86,-0.903 229.825,-1.022 229.825,-1.162C229.825,-1.283 229.86,-1.384 229.93,-1.463C230,-1.542 230.091,-1.582 230.203,-1.582C230.315,-1.582 230.478,-1.512 230.693,-1.372C230.973,-1.204 231.251,-1.071 231.526,-0.973C231.801,-0.875 232.144,-0.826 232.555,-0.826C233.059,-0.826 233.451,-0.915 233.731,-1.092C234.011,-1.269 234.151,-1.526 234.151,-1.862C234.151,-2.067 234.1,-2.233 233.997,-2.359C233.894,-2.485 233.717,-2.597 233.465,-2.695C233.213,-2.793 232.844,-2.893 232.359,-2.996C231.538,-3.173 230.95,-3.411 230.595,-3.71C230.24,-4.009 230.063,-4.415 230.063,-4.928C230.063,-5.329 230.175,-5.684 230.399,-5.992C230.623,-6.3 230.933,-6.543 231.33,-6.72C231.727,-6.897 232.177,-6.986 232.681,-6.986C233.045,-6.986 233.397,-6.937 233.738,-6.839C234.079,-6.741 234.38,-6.603 234.641,-6.426C234.958,-6.202 235.117,-5.969 235.117,-5.726C235.117,-5.605 235.08,-5.502 235.005,-5.418C234.93,-5.334 234.842,-5.292 234.739,-5.292C234.627,-5.292 234.459,-5.371 234.235,-5.53C233.974,-5.698 233.726,-5.829 233.493,-5.922C233.26,-6.015 232.97,-6.062 232.625,-6.062C232.186,-6.062 231.834,-5.964 231.568,-5.768C231.302,-5.572 231.169,-5.311 231.169,-4.984C231.169,-4.779 231.218,-4.613 231.316,-4.487C231.414,-4.361 231.577,-4.249 231.806,-4.151C232.035,-4.053 232.364,-3.957 232.793,-3.864C233.428,-3.724 233.92,-3.57 234.27,-3.402C234.62,-3.234 234.87,-3.029 235.019,-2.786C235.168,-2.543 235.243,-2.235 235.243,-1.862C235.243,-1.274 234.996,-0.8 234.501,-0.441C234.006,-0.082 233.353,0.098 232.541,0.098C232.112,0.098 231.703,0.047 231.316,-0.056Z" style="fill-rule:nonzero;"/>
                <path d="M240.83,-0.154C240.723,-0.257 240.669,-0.392 240.669,-0.56L240.669,-9.31C240.669,-9.478 240.723,-9.613 240.83,-9.716C240.938,-9.819 241.08,-9.87 241.257,-9.87L243.987,-9.87C245.565,-9.87 246.785,-9.443 247.648,-8.589C248.512,-7.735 248.943,-6.519 248.943,-4.942C248.943,-3.365 248.509,-2.147 247.641,-1.288C246.773,-0.429 245.555,0 243.987,0L241.257,0C241.08,0 240.938,-0.051 240.83,-0.154ZM243.917,-0.98C246.475,-0.98 247.753,-2.301 247.753,-4.942C247.753,-7.574 246.475,-8.89 243.917,-8.89L241.817,-8.89L241.817,-0.98L243.917,-0.98Z" style="fill-rule:nonzero;"/>
                <path d="M256.354,-1.456C256.428,-1.372 256.466,-1.265 256.466,-1.134C256.466,-0.901 256.302,-0.686 255.976,-0.49C255.64,-0.294 255.285,-0.147 254.912,-0.049C254.538,0.049 254.174,0.098 253.82,0.098C252.765,0.098 251.932,-0.215 251.321,-0.84C250.709,-1.465 250.404,-2.329 250.404,-3.43C250.404,-4.13 250.539,-4.748 250.81,-5.285C251.08,-5.822 251.461,-6.239 251.951,-6.538C252.441,-6.837 252.998,-6.986 253.624,-6.986C254.51,-6.986 255.215,-6.697 255.738,-6.118C256.26,-5.539 256.522,-4.755 256.522,-3.766C256.522,-3.579 256.484,-3.444 256.41,-3.36C256.335,-3.276 256.214,-3.234 256.046,-3.234L251.538,-3.234C251.622,-1.629 252.382,-0.826 253.82,-0.826C254.184,-0.826 254.496,-0.875 254.758,-0.973C255.019,-1.071 255.299,-1.204 255.598,-1.372C255.84,-1.512 256.004,-1.582 256.088,-1.582C256.19,-1.582 256.279,-1.54 256.354,-1.456ZM252.203,-5.544C251.843,-5.171 251.631,-4.643 251.566,-3.962L255.528,-3.962C255.509,-4.653 255.336,-5.182 255.01,-5.551C254.683,-5.92 254.226,-6.104 253.638,-6.104C253.04,-6.104 252.562,-5.917 252.203,-5.544Z" style="fill-rule:nonzero;"/>
                <path d="M263.694,-1.456C263.769,-1.372 263.806,-1.265 263.806,-1.134C263.806,-0.901 263.643,-0.686 263.316,-0.49C262.98,-0.294 262.625,-0.147 262.252,-0.049C261.879,0.049 261.515,0.098 261.16,0.098C260.105,0.098 259.272,-0.215 258.661,-0.84C258.05,-1.465 257.744,-2.329 257.744,-3.43C257.744,-4.13 257.879,-4.748 258.15,-5.285C258.421,-5.822 258.801,-6.239 259.291,-6.538C259.781,-6.837 260.339,-6.986 260.964,-6.986C261.851,-6.986 262.555,-6.697 263.078,-6.118C263.601,-5.539 263.862,-4.755 263.862,-3.766C263.862,-3.579 263.825,-3.444 263.75,-3.36C263.675,-3.276 263.554,-3.234 263.386,-3.234L258.878,-3.234C258.962,-1.629 259.723,-0.826 261.16,-0.826C261.524,-0.826 261.837,-0.875 262.098,-0.973C262.359,-1.071 262.639,-1.204 262.938,-1.372C263.181,-1.512 263.344,-1.582 263.428,-1.582C263.531,-1.582 263.619,-1.54 263.694,-1.456ZM259.543,-5.544C259.184,-5.171 258.971,-4.643 258.906,-3.962L262.868,-3.962C262.849,-4.653 262.677,-5.182 262.35,-5.551C262.023,-5.92 261.566,-6.104 260.978,-6.104C260.381,-6.104 259.902,-5.917 259.543,-5.544Z" style="fill-rule:nonzero;"/>
                <path d="M270.502,-6.538C270.96,-6.239 271.314,-5.822 271.566,-5.285C271.818,-4.748 271.944,-4.125 271.944,-3.416C271.944,-2.707 271.818,-2.088 271.566,-1.561C271.314,-1.034 270.962,-0.625 270.509,-0.336C270.057,-0.047 269.527,0.098 268.92,0.098C268.388,0.098 267.924,-0.019 267.527,-0.252C267.131,-0.485 266.83,-0.817 266.624,-1.246L266.624,2.044C266.624,2.212 266.575,2.345 266.477,2.443C266.379,2.541 266.242,2.59 266.064,2.59C265.887,2.59 265.747,2.539 265.644,2.436C265.542,2.333 265.49,2.203 265.49,2.044L265.49,-6.398C265.49,-6.566 265.542,-6.701 265.644,-6.804C265.747,-6.907 265.887,-6.958 266.064,-6.958C266.242,-6.958 266.379,-6.907 266.477,-6.804C266.575,-6.701 266.624,-6.566 266.624,-6.398L266.624,-5.642C266.83,-6.071 267.131,-6.403 267.527,-6.636C267.924,-6.869 268.388,-6.986 268.92,-6.986C269.518,-6.986 270.045,-6.837 270.502,-6.538ZM270.236,-1.512C270.6,-1.96 270.782,-2.595 270.782,-3.416C270.782,-4.237 270.6,-4.879 270.236,-5.341C269.872,-5.803 269.359,-6.034 268.696,-6.034C268.034,-6.034 267.523,-5.81 267.163,-5.362C266.804,-4.914 266.624,-4.275 266.624,-3.444C266.624,-2.613 266.804,-1.972 267.163,-1.519C267.523,-1.066 268.034,-0.84 268.696,-0.84C269.359,-0.84 269.872,-1.064 270.236,-1.512Z" style="fill-rule:nonzero;"/>
                <path d="M277.497,-0.091C277.394,-0.198 277.343,-0.341 277.343,-0.518L277.343,-9.31C277.343,-9.478 277.396,-9.613 277.504,-9.716C277.611,-9.819 277.753,-9.87 277.931,-9.87L281.249,-9.87C282.285,-9.87 283.09,-9.618 283.664,-9.114C284.238,-8.61 284.525,-7.896 284.525,-6.972C284.525,-6.048 284.235,-5.329 283.657,-4.816C283.078,-4.303 282.275,-4.046 281.249,-4.046L278.491,-4.046L278.491,-0.518C278.491,-0.341 278.439,-0.198 278.337,-0.091C278.234,0.016 278.094,0.07 277.917,0.07C277.739,0.07 277.599,0.016 277.497,-0.091ZM281.137,-4.998C282.639,-4.998 283.391,-5.656 283.391,-6.972C283.391,-8.269 282.639,-8.918 281.137,-8.918L278.491,-8.918L278.491,-4.998L281.137,-4.998Z" style="fill-rule:nonzero;"/>
                <path d="M291.361,-4.298L291.361,-0.49C291.361,-0.322 291.312,-0.187 291.214,-0.084C291.116,0.019 290.983,0.07 290.815,0.07C290.647,0.07 290.512,0.019 290.409,-0.084C290.306,-0.187 290.255,-0.322 290.255,-0.49L290.255,-1.162C290.078,-0.761 289.807,-0.45 289.443,-0.231C289.079,-0.012 288.659,0.098 288.183,0.098C287.744,0.098 287.341,0.009 286.972,-0.168C286.603,-0.345 286.312,-0.593 286.097,-0.91C285.882,-1.227 285.775,-1.577 285.775,-1.96C285.775,-2.473 285.906,-2.872 286.167,-3.157C286.428,-3.442 286.858,-3.647 287.455,-3.773C288.052,-3.899 288.883,-3.962 289.947,-3.962L290.255,-3.962L290.255,-4.424C290.255,-4.984 290.141,-5.395 289.912,-5.656C289.683,-5.917 289.312,-6.048 288.799,-6.048C288.164,-6.048 287.52,-5.875 286.867,-5.53C286.615,-5.371 286.438,-5.292 286.335,-5.292C286.223,-5.292 286.13,-5.334 286.055,-5.418C285.98,-5.502 285.943,-5.609 285.943,-5.74C285.943,-5.871 285.983,-5.985 286.062,-6.083C286.141,-6.181 286.27,-6.281 286.447,-6.384C286.774,-6.571 287.145,-6.718 287.56,-6.825C287.975,-6.932 288.388,-6.986 288.799,-6.986C290.507,-6.986 291.361,-6.09 291.361,-4.298ZM289.716,-1.365C290.075,-1.743 290.255,-2.231 290.255,-2.828L290.255,-3.234L290.003,-3.234C289.182,-3.234 288.556,-3.199 288.127,-3.129C287.698,-3.059 287.392,-2.942 287.21,-2.779C287.028,-2.616 286.937,-2.375 286.937,-2.058C286.937,-1.694 287.07,-1.393 287.336,-1.155C287.602,-0.917 287.936,-0.798 288.337,-0.798C288.897,-0.798 289.357,-0.987 289.716,-1.365Z" style="fill-rule:nonzero;"/>
                <path d="M294.522,-0.336C294.032,-0.625 293.654,-1.036 293.388,-1.568C293.122,-2.1 292.989,-2.716 292.989,-3.416C292.989,-4.116 293.127,-4.737 293.402,-5.278C293.678,-5.819 294.063,-6.239 294.557,-6.538C295.052,-6.837 295.621,-6.986 296.265,-6.986C296.62,-6.986 296.972,-6.937 297.322,-6.839C297.672,-6.741 297.978,-6.599 298.239,-6.412C298.407,-6.3 298.526,-6.19 298.596,-6.083C298.666,-5.976 298.701,-5.857 298.701,-5.726C298.701,-5.595 298.666,-5.488 298.596,-5.404C298.526,-5.32 298.435,-5.278 298.323,-5.278C298.258,-5.278 298.188,-5.297 298.113,-5.334C298.039,-5.371 297.976,-5.409 297.924,-5.446C297.873,-5.483 297.838,-5.507 297.819,-5.516C297.577,-5.675 297.346,-5.801 297.126,-5.894C296.907,-5.987 296.639,-6.034 296.321,-6.034C295.64,-6.034 295.11,-5.803 294.732,-5.341C294.354,-4.879 294.165,-4.237 294.165,-3.416C294.165,-2.595 294.354,-1.96 294.732,-1.512C295.11,-1.064 295.64,-0.84 296.321,-0.84C296.639,-0.84 296.912,-0.887 297.14,-0.98C297.369,-1.073 297.6,-1.199 297.833,-1.358C297.936,-1.423 298.034,-1.479 298.127,-1.526C298.221,-1.573 298.3,-1.596 298.365,-1.596C298.468,-1.596 298.554,-1.554 298.624,-1.47C298.694,-1.386 298.729,-1.279 298.729,-1.148C298.729,-1.027 298.697,-0.917 298.631,-0.819C298.566,-0.721 298.445,-0.611 298.267,-0.49C298.006,-0.313 297.691,-0.17 297.322,-0.063C296.954,0.044 296.583,0.098 296.209,0.098C295.575,0.098 295.012,-0.047 294.522,-0.336Z" style="fill-rule:nonzero;"/>
                <path d="M305.734,-0.448C305.734,-0.308 305.685,-0.187 305.587,-0.084C305.489,0.019 305.37,0.07 305.23,0.07C305.108,0.07 304.982,0.014 304.852,-0.098L301.198,-3.248L301.198,-0.49C301.198,-0.313 301.144,-0.175 301.037,-0.077C300.929,0.021 300.796,0.07 300.638,0.07C300.47,0.07 300.332,0.021 300.225,-0.077C300.117,-0.175 300.064,-0.313 300.064,-0.49L300.064,-9.38C300.064,-9.557 300.117,-9.695 300.225,-9.793C300.332,-9.891 300.47,-9.94 300.638,-9.94C300.796,-9.94 300.929,-9.891 301.037,-9.793C301.144,-9.695 301.198,-9.557 301.198,-9.38L301.198,-3.696L304.544,-6.762C304.656,-6.874 304.782,-6.93 304.922,-6.93C305.062,-6.93 305.183,-6.879 305.286,-6.776C305.388,-6.673 305.44,-6.552 305.44,-6.412C305.44,-6.253 305.374,-6.113 305.244,-5.992L302.486,-3.528L305.51,-0.896C305.659,-0.756 305.734,-0.607 305.734,-0.448Z" style="fill-rule:nonzero;"/>
                <path d="M312.444,-1.456C312.519,-1.372 312.556,-1.265 312.556,-1.134C312.556,-0.901 312.393,-0.686 312.066,-0.49C311.73,-0.294 311.375,-0.147 311.002,-0.049C310.629,0.049 310.265,0.098 309.91,0.098C308.855,0.098 308.022,-0.215 307.411,-0.84C306.8,-1.465 306.494,-2.329 306.494,-3.43C306.494,-4.13 306.629,-4.748 306.9,-5.285C307.171,-5.822 307.551,-6.239 308.041,-6.538C308.531,-6.837 309.089,-6.986 309.714,-6.986C310.601,-6.986 311.305,-6.697 311.828,-6.118C312.351,-5.539 312.612,-4.755 312.612,-3.766C312.612,-3.579 312.575,-3.444 312.5,-3.36C312.425,-3.276 312.304,-3.234 312.136,-3.234L307.628,-3.234C307.712,-1.629 308.473,-0.826 309.91,-0.826C310.274,-0.826 310.587,-0.875 310.848,-0.973C311.109,-1.071 311.389,-1.204 311.688,-1.372C311.931,-1.512 312.094,-1.582 312.178,-1.582C312.281,-1.582 312.369,-1.54 312.444,-1.456ZM308.293,-5.544C307.934,-5.171 307.721,-4.643 307.656,-3.962L311.618,-3.962C311.599,-4.653 311.427,-5.182 311.1,-5.551C310.773,-5.92 310.316,-6.104 309.728,-6.104C309.131,-6.104 308.652,-5.917 308.293,-5.544Z" style="fill-rule:nonzero;"/>
                <path d="M317.838,-0.378C317.838,-0.219 317.78,-0.1 317.663,-0.021C317.546,0.058 317.371,0.089 317.138,0.07L316.76,0.042C316.013,-0.014 315.463,-0.238 315.108,-0.63C314.753,-1.022 314.576,-1.615 314.576,-2.408L314.576,-5.922L313.638,-5.922C313.479,-5.922 313.356,-5.962 313.267,-6.041C313.178,-6.12 313.134,-6.225 313.134,-6.356C313.134,-6.496 313.178,-6.608 313.267,-6.692C313.356,-6.776 313.479,-6.818 313.638,-6.818L314.576,-6.818L314.576,-8.4C314.576,-8.577 314.627,-8.715 314.73,-8.813C314.833,-8.911 314.973,-8.96 315.15,-8.96C315.318,-8.96 315.453,-8.911 315.556,-8.813C315.659,-8.715 315.71,-8.577 315.71,-8.4L315.71,-6.818L317.264,-6.818C317.413,-6.818 317.532,-6.776 317.621,-6.692C317.71,-6.608 317.754,-6.496 317.754,-6.356C317.754,-6.225 317.71,-6.12 317.621,-6.041C317.532,-5.962 317.413,-5.922 317.264,-5.922L315.71,-5.922L315.71,-2.352C315.71,-1.839 315.815,-1.468 316.025,-1.239C316.235,-1.01 316.55,-0.882 316.97,-0.854L317.348,-0.826C317.675,-0.798 317.838,-0.649 317.838,-0.378Z" style="fill-rule:nonzero;"/>
                <path d="M322.817,-0.091C322.714,-0.198 322.663,-0.341 322.663,-0.518L322.663,-9.352C322.663,-9.529 322.714,-9.672 322.817,-9.779C322.919,-9.886 323.059,-9.94 323.237,-9.94C323.414,-9.94 323.554,-9.886 323.657,-9.779C323.759,-9.672 323.811,-9.529 323.811,-9.352L323.811,-0.518C323.811,-0.341 323.759,-0.198 323.657,-0.091C323.554,0.016 323.414,0.07 323.237,0.07C323.059,0.07 322.919,0.016 322.817,-0.091Z" style="fill-rule:nonzero;"/>
                <path d="M331.921,-4.284L331.921,-0.49C331.921,-0.313 331.872,-0.175 331.774,-0.077C331.676,0.021 331.538,0.07 331.361,0.07C331.184,0.07 331.044,0.021 330.941,-0.077C330.838,-0.175 330.787,-0.313 330.787,-0.49L330.787,-4.214C330.787,-4.849 330.663,-5.311 330.416,-5.6C330.169,-5.889 329.774,-6.034 329.233,-6.034C328.608,-6.034 328.108,-5.843 327.735,-5.46C327.362,-5.077 327.175,-4.559 327.175,-3.906L327.175,-0.49C327.175,-0.313 327.126,-0.175 327.028,-0.077C326.93,0.021 326.792,0.07 326.615,0.07C326.438,0.07 326.298,0.021 326.195,-0.077C326.092,-0.175 326.041,-0.313 326.041,-0.49L326.041,-6.398C326.041,-6.566 326.092,-6.701 326.195,-6.804C326.298,-6.907 326.438,-6.958 326.615,-6.958C326.783,-6.958 326.916,-6.907 327.014,-6.804C327.112,-6.701 327.161,-6.571 327.161,-6.412L327.161,-5.698C327.385,-6.118 327.698,-6.438 328.099,-6.657C328.5,-6.876 328.958,-6.986 329.471,-6.986C331.104,-6.986 331.921,-6.085 331.921,-4.284Z" style="fill-rule:nonzero;"/>
                <path d="M335.026,-0.056C334.639,-0.159 334.296,-0.303 333.997,-0.49C333.829,-0.602 333.71,-0.707 333.64,-0.805C333.57,-0.903 333.535,-1.022 333.535,-1.162C333.535,-1.283 333.57,-1.384 333.64,-1.463C333.71,-1.542 333.801,-1.582 333.913,-1.582C334.025,-1.582 334.189,-1.512 334.403,-1.372C334.683,-1.204 334.961,-1.071 335.236,-0.973C335.512,-0.875 335.855,-0.826 336.265,-0.826C336.769,-0.826 337.161,-0.915 337.441,-1.092C337.721,-1.269 337.861,-1.526 337.861,-1.862C337.861,-2.067 337.81,-2.233 337.707,-2.359C337.605,-2.485 337.427,-2.597 337.175,-2.695C336.923,-2.793 336.555,-2.893 336.069,-2.996C335.248,-3.173 334.66,-3.411 334.305,-3.71C333.951,-4.009 333.773,-4.415 333.773,-4.928C333.773,-5.329 333.885,-5.684 334.109,-5.992C334.333,-6.3 334.644,-6.543 335.04,-6.72C335.437,-6.897 335.887,-6.986 336.391,-6.986C336.755,-6.986 337.108,-6.937 337.448,-6.839C337.789,-6.741 338.09,-6.603 338.351,-6.426C338.669,-6.202 338.827,-5.969 338.827,-5.726C338.827,-5.605 338.79,-5.502 338.715,-5.418C338.641,-5.334 338.552,-5.292 338.449,-5.292C338.337,-5.292 338.169,-5.371 337.945,-5.53C337.684,-5.698 337.437,-5.829 337.203,-5.922C336.97,-6.015 336.681,-6.062 336.335,-6.062C335.897,-6.062 335.544,-5.964 335.278,-5.768C335.012,-5.572 334.879,-5.311 334.879,-4.984C334.879,-4.779 334.928,-4.613 335.026,-4.487C335.124,-4.361 335.288,-4.249 335.516,-4.151C335.745,-4.053 336.074,-3.957 336.503,-3.864C337.138,-3.724 337.63,-3.57 337.98,-3.402C338.33,-3.234 338.58,-3.029 338.729,-2.786C338.879,-2.543 338.953,-2.235 338.953,-1.862C338.953,-1.274 338.706,-0.8 338.211,-0.441C337.717,-0.082 337.063,0.098 336.251,0.098C335.822,0.098 335.414,0.047 335.026,-0.056Z" style="fill-rule:nonzero;"/>
                <path d="M345.65,-6.538C346.107,-6.239 346.462,-5.822 346.714,-5.285C346.966,-4.748 347.092,-4.125 347.092,-3.416C347.092,-2.707 346.966,-2.088 346.714,-1.561C346.462,-1.034 346.109,-0.625 345.657,-0.336C345.204,-0.047 344.674,0.098 344.068,0.098C343.536,0.098 343.071,-0.019 342.675,-0.252C342.278,-0.485 341.977,-0.817 341.772,-1.246L341.772,2.044C341.772,2.212 341.723,2.345 341.625,2.443C341.527,2.541 341.389,2.59 341.212,2.59C341.034,2.59 340.894,2.539 340.792,2.436C340.689,2.333 340.638,2.203 340.638,2.044L340.638,-6.398C340.638,-6.566 340.689,-6.701 340.792,-6.804C340.894,-6.907 341.034,-6.958 341.212,-6.958C341.389,-6.958 341.527,-6.907 341.625,-6.804C341.723,-6.701 341.772,-6.566 341.772,-6.398L341.772,-5.642C341.977,-6.071 342.278,-6.403 342.675,-6.636C343.071,-6.869 343.536,-6.986 344.068,-6.986C344.665,-6.986 345.192,-6.837 345.65,-6.538ZM345.384,-1.512C345.748,-1.96 345.93,-2.595 345.93,-3.416C345.93,-4.237 345.748,-4.879 345.384,-5.341C345.02,-5.803 344.506,-6.034 343.844,-6.034C343.181,-6.034 342.67,-5.81 342.311,-5.362C341.951,-4.914 341.772,-4.275 341.772,-3.444C341.772,-2.613 341.951,-1.972 342.311,-1.519C342.67,-1.066 343.181,-0.84 343.844,-0.84C344.506,-0.84 345.02,-1.064 345.384,-1.512Z" style="fill-rule:nonzero;"/>
                <path d="M354.292,-1.456C354.366,-1.372 354.404,-1.265 354.404,-1.134C354.404,-0.901 354.24,-0.686 353.914,-0.49C353.578,-0.294 353.223,-0.147 352.85,-0.049C352.476,0.049 352.112,0.098 351.758,0.098C350.703,0.098 349.87,-0.215 349.259,-0.84C348.647,-1.465 348.342,-2.329 348.342,-3.43C348.342,-4.13 348.477,-4.748 348.748,-5.285C349.018,-5.822 349.399,-6.239 349.889,-6.538C350.379,-6.837 350.936,-6.986 351.562,-6.986C352.448,-6.986 353.153,-6.697 353.676,-6.118C354.198,-5.539 354.46,-4.755 354.46,-3.766C354.46,-3.579 354.422,-3.444 354.348,-3.36C354.273,-3.276 354.152,-3.234 353.984,-3.234L349.476,-3.234C349.56,-1.629 350.32,-0.826 351.758,-0.826C352.122,-0.826 352.434,-0.875 352.696,-0.973C352.957,-1.071 353.237,-1.204 353.536,-1.372C353.778,-1.512 353.942,-1.582 354.026,-1.582C354.128,-1.582 354.217,-1.54 354.292,-1.456ZM350.141,-5.544C349.781,-5.171 349.569,-4.643 349.504,-3.962L353.466,-3.962C353.447,-4.653 353.274,-5.182 352.948,-5.551C352.621,-5.92 352.164,-6.104 351.576,-6.104C350.978,-6.104 350.5,-5.917 350.141,-5.544Z" style="fill-rule:nonzero;"/>
                <path d="M357.215,-0.336C356.725,-0.625 356.347,-1.036 356.081,-1.568C355.815,-2.1 355.682,-2.716 355.682,-3.416C355.682,-4.116 355.82,-4.737 356.095,-5.278C356.37,-5.819 356.755,-6.239 357.25,-6.538C357.745,-6.837 358.314,-6.986 358.958,-6.986C359.313,-6.986 359.665,-6.937 360.015,-6.839C360.365,-6.741 360.671,-6.599 360.932,-6.412C361.1,-6.3 361.219,-6.19 361.289,-6.083C361.359,-5.976 361.394,-5.857 361.394,-5.726C361.394,-5.595 361.359,-5.488 361.289,-5.404C361.219,-5.32 361.128,-5.278 361.016,-5.278C360.951,-5.278 360.881,-5.297 360.806,-5.334C360.731,-5.371 360.668,-5.409 360.617,-5.446C360.566,-5.483 360.531,-5.507 360.512,-5.516C360.269,-5.675 360.038,-5.801 359.819,-5.894C359.6,-5.987 359.331,-6.034 359.014,-6.034C358.333,-6.034 357.803,-5.803 357.425,-5.341C357.047,-4.879 356.858,-4.237 356.858,-3.416C356.858,-2.595 357.047,-1.96 357.425,-1.512C357.803,-1.064 358.333,-0.84 359.014,-0.84C359.331,-0.84 359.604,-0.887 359.833,-0.98C360.062,-1.073 360.293,-1.199 360.526,-1.358C360.629,-1.423 360.727,-1.479 360.82,-1.526C360.913,-1.573 360.993,-1.596 361.058,-1.596C361.161,-1.596 361.247,-1.554 361.317,-1.47C361.387,-1.386 361.422,-1.279 361.422,-1.148C361.422,-1.027 361.389,-0.917 361.324,-0.819C361.259,-0.721 361.137,-0.611 360.96,-0.49C360.699,-0.313 360.384,-0.17 360.015,-0.063C359.646,0.044 359.275,0.098 358.902,0.098C358.267,0.098 357.705,-0.047 357.215,-0.336Z" style="fill-rule:nonzero;"/>
                <path d="M366.41,-0.378C366.41,-0.219 366.352,-0.1 366.235,-0.021C366.119,0.058 365.944,0.089 365.71,0.07L365.332,0.042C364.586,-0.014 364.035,-0.238 363.68,-0.63C363.326,-1.022 363.148,-1.615 363.148,-2.408L363.148,-5.922L362.21,-5.922C362.052,-5.922 361.928,-5.962 361.839,-6.041C361.751,-6.12 361.706,-6.225 361.706,-6.356C361.706,-6.496 361.751,-6.608 361.839,-6.692C361.928,-6.776 362.052,-6.818 362.21,-6.818L363.148,-6.818L363.148,-8.4C363.148,-8.577 363.2,-8.715 363.302,-8.813C363.405,-8.911 363.545,-8.96 363.722,-8.96C363.89,-8.96 364.026,-8.911 364.128,-8.813C364.231,-8.715 364.282,-8.577 364.282,-8.4L364.282,-6.818L365.836,-6.818C365.986,-6.818 366.105,-6.776 366.193,-6.692C366.282,-6.608 366.326,-6.496 366.326,-6.356C366.326,-6.225 366.282,-6.12 366.193,-6.041C366.105,-5.962 365.986,-5.922 365.836,-5.922L364.282,-5.922L364.282,-2.352C364.282,-1.839 364.387,-1.468 364.597,-1.239C364.807,-1.01 365.122,-0.882 365.542,-0.854L365.92,-0.826C366.247,-0.798 366.41,-0.649 366.41,-0.378Z" style="fill-rule:nonzero;"/>
                <path d="M367.654,-0.077C367.546,-0.175 367.493,-0.313 367.493,-0.49L367.493,-6.398C367.493,-6.575 367.546,-6.713 367.654,-6.811C367.761,-6.909 367.899,-6.958 368.067,-6.958C368.235,-6.958 368.37,-6.909 368.473,-6.811C368.575,-6.713 368.627,-6.575 368.627,-6.398L368.627,-0.49C368.627,-0.303 368.575,-0.163 368.473,-0.07C368.37,0.023 368.235,0.07 368.067,0.07C367.899,0.07 367.761,0.021 367.654,-0.077ZM367.521,-8.624C367.381,-8.755 367.311,-8.927 367.311,-9.142C367.311,-9.347 367.381,-9.515 367.521,-9.646C367.661,-9.777 367.843,-9.842 368.067,-9.842C368.291,-9.842 368.473,-9.777 368.613,-9.646C368.753,-9.515 368.823,-9.347 368.823,-9.142C368.823,-8.927 368.753,-8.755 368.613,-8.624C368.473,-8.493 368.291,-8.428 368.067,-8.428C367.843,-8.428 367.661,-8.493 367.521,-8.624Z" style="fill-rule:nonzero;"/>
                <path d="M371.83,-0.336C371.34,-0.625 370.962,-1.038 370.696,-1.575C370.43,-2.112 370.297,-2.735 370.297,-3.444C370.297,-4.153 370.43,-4.776 370.696,-5.313C370.962,-5.85 371.34,-6.263 371.83,-6.552C372.32,-6.841 372.887,-6.986 373.531,-6.986C374.175,-6.986 374.744,-6.841 375.239,-6.552C375.734,-6.263 376.114,-5.85 376.38,-5.313C376.646,-4.776 376.779,-4.153 376.779,-3.444C376.779,-2.735 376.646,-2.112 376.38,-1.575C376.114,-1.038 375.734,-0.625 375.239,-0.336C374.744,-0.047 374.175,0.098 373.531,0.098C372.887,0.098 372.32,-0.047 371.83,-0.336ZM375.078,-1.505C375.437,-1.948 375.617,-2.595 375.617,-3.444C375.617,-4.275 375.435,-4.916 375.071,-5.369C374.707,-5.822 374.194,-6.048 373.531,-6.048C372.868,-6.048 372.355,-5.822 371.991,-5.369C371.627,-4.916 371.445,-4.275 371.445,-3.444C371.445,-2.604 371.625,-1.96 371.984,-1.512C372.343,-1.064 372.859,-0.84 373.531,-0.84C374.203,-0.84 374.719,-1.062 375.078,-1.505Z" style="fill-rule:nonzero;"/>
                <path d="M384.315,-4.284L384.315,-0.49C384.315,-0.313 384.266,-0.175 384.168,-0.077C384.07,0.021 383.932,0.07 383.755,0.07C383.578,0.07 383.438,0.021 383.335,-0.077C383.232,-0.175 383.181,-0.313 383.181,-0.49L383.181,-4.214C383.181,-4.849 383.057,-5.311 382.81,-5.6C382.563,-5.889 382.168,-6.034 381.627,-6.034C381.002,-6.034 380.502,-5.843 380.129,-5.46C379.756,-5.077 379.569,-4.559 379.569,-3.906L379.569,-0.49C379.569,-0.313 379.52,-0.175 379.422,-0.077C379.324,0.021 379.186,0.07 379.009,0.07C378.832,0.07 378.692,0.021 378.589,-0.077C378.486,-0.175 378.435,-0.313 378.435,-0.49L378.435,-6.398C378.435,-6.566 378.486,-6.701 378.589,-6.804C378.692,-6.907 378.832,-6.958 379.009,-6.958C379.177,-6.958 379.31,-6.907 379.408,-6.804C379.506,-6.701 379.555,-6.571 379.555,-6.412L379.555,-5.698C379.779,-6.118 380.092,-6.438 380.493,-6.657C380.894,-6.876 381.352,-6.986 381.865,-6.986C383.498,-6.986 384.315,-6.085 384.315,-4.284Z" style="fill-rule:nonzero;"/>
                <path d="M390.316,-3.682C390.316,-5.773 390.81,-7.765 391.8,-9.66C391.921,-9.875 392.084,-9.982 392.29,-9.982C392.402,-9.982 392.497,-9.945 392.577,-9.87C392.656,-9.795 392.696,-9.702 392.696,-9.59C392.696,-9.525 392.682,-9.455 392.654,-9.38C391.87,-7.532 391.478,-5.633 391.478,-3.682C391.478,-1.731 391.87,0.168 392.654,2.016C392.682,2.1 392.696,2.17 392.696,2.226C392.696,2.347 392.656,2.443 392.577,2.513C392.497,2.583 392.402,2.618 392.29,2.618C392.084,2.618 391.921,2.511 391.8,2.296C390.81,0.401 390.316,-1.591 390.316,-3.682Z" style="fill-rule:nonzero;"/>
                <path d="M394.611,-0.154C394.504,-0.257 394.45,-0.392 394.45,-0.56L394.45,-9.31C394.45,-9.478 394.504,-9.613 394.611,-9.716C394.718,-9.819 394.861,-9.87 395.038,-9.87L397.768,-9.87C399.345,-9.87 400.566,-9.443 401.429,-8.589C402.292,-7.735 402.724,-6.519 402.724,-4.942C402.724,-3.365 402.29,-2.147 401.422,-1.288C400.554,-0.429 399.336,0 397.768,0L395.038,0C394.861,0 394.718,-0.051 394.611,-0.154ZM397.698,-0.98C400.255,-0.98 401.534,-2.301 401.534,-4.942C401.534,-7.574 400.255,-8.89 397.698,-8.89L395.598,-8.89L395.598,-0.98L397.698,-0.98Z" style="fill-rule:nonzero;"/>
                <path d="M404.912,-0.091C404.81,-0.198 404.758,-0.341 404.758,-0.518L404.758,-9.31C404.758,-9.478 404.812,-9.613 404.919,-9.716C405.027,-9.819 405.169,-9.87 405.346,-9.87L408.664,-9.87C409.7,-9.87 410.505,-9.618 411.079,-9.114C411.653,-8.61 411.94,-7.896 411.94,-6.972C411.94,-6.048 411.651,-5.329 411.072,-4.816C410.494,-4.303 409.691,-4.046 408.664,-4.046L405.906,-4.046L405.906,-0.518C405.906,-0.341 405.855,-0.198 405.752,-0.091C405.65,0.016 405.51,0.07 405.332,0.07C405.155,0.07 405.015,0.016 404.912,-0.091ZM408.552,-4.998C410.055,-4.998 410.806,-5.656 410.806,-6.972C410.806,-8.269 410.055,-8.918 408.552,-8.918L405.906,-8.918L405.906,-4.998L408.552,-4.998Z" style="fill-rule:nonzero;"/>
                <path d="M413.904,-0.091C413.802,-0.198 413.75,-0.341 413.75,-0.518L413.75,-9.352C413.75,-9.529 413.802,-9.672 413.904,-9.779C414.007,-9.886 414.147,-9.94 414.324,-9.94C414.502,-9.94 414.642,-9.886 414.744,-9.779C414.847,-9.672 414.898,-9.529 414.898,-9.352L414.898,-0.518C414.898,-0.341 414.847,-0.198 414.744,-0.091C414.642,0.016 414.502,0.07 414.324,0.07C414.147,0.07 414.007,0.016 413.904,-0.091Z" style="fill-rule:nonzero;"/>
                <path d="M417.059,2.618C416.947,2.618 416.851,2.583 416.772,2.513C416.692,2.443 416.653,2.352 416.653,2.24C416.653,2.203 416.671,2.128 416.709,2.016C417.483,0.159 417.871,-1.741 417.871,-3.682C417.871,-5.623 417.483,-7.523 416.709,-9.38C416.671,-9.492 416.653,-9.567 416.653,-9.604C416.653,-9.716 416.692,-9.807 416.772,-9.877C416.851,-9.947 416.947,-9.982 417.059,-9.982C417.273,-9.982 417.441,-9.875 417.563,-9.66C418.543,-7.756 419.033,-5.763 419.033,-3.682C419.033,-1.601 418.543,0.392 417.563,2.296C417.441,2.511 417.273,2.618 417.059,2.618Z" style="fill-rule:nonzero;"/>
                <path d="M426.132,-0.056C425.745,-0.159 425.402,-0.303 425.103,-0.49C424.935,-0.602 424.816,-0.707 424.746,-0.805C424.676,-0.903 424.641,-1.022 424.641,-1.162C424.641,-1.283 424.676,-1.384 424.746,-1.463C424.816,-1.542 424.907,-1.582 425.019,-1.582C425.131,-1.582 425.295,-1.512 425.509,-1.372C425.789,-1.204 426.067,-1.071 426.342,-0.973C426.618,-0.875 426.961,-0.826 427.371,-0.826C427.875,-0.826 428.267,-0.915 428.547,-1.092C428.827,-1.269 428.967,-1.526 428.967,-1.862C428.967,-2.067 428.916,-2.233 428.813,-2.359C428.711,-2.485 428.533,-2.597 428.281,-2.695C428.029,-2.793 427.661,-2.893 427.175,-2.996C426.354,-3.173 425.766,-3.411 425.411,-3.71C425.057,-4.009 424.879,-4.415 424.879,-4.928C424.879,-5.329 424.991,-5.684 425.215,-5.992C425.439,-6.3 425.75,-6.543 426.146,-6.72C426.543,-6.897 426.993,-6.986 427.497,-6.986C427.861,-6.986 428.214,-6.937 428.554,-6.839C428.895,-6.741 429.196,-6.603 429.457,-6.426C429.775,-6.202 429.933,-5.969 429.933,-5.726C429.933,-5.605 429.896,-5.502 429.821,-5.418C429.747,-5.334 429.658,-5.292 429.555,-5.292C429.443,-5.292 429.275,-5.371 429.051,-5.53C428.79,-5.698 428.543,-5.829 428.309,-5.922C428.076,-6.015 427.787,-6.062 427.441,-6.062C427.003,-6.062 426.65,-5.964 426.384,-5.768C426.118,-5.572 425.985,-5.311 425.985,-4.984C425.985,-4.779 426.034,-4.613 426.132,-4.487C426.23,-4.361 426.394,-4.249 426.622,-4.151C426.851,-4.053 427.18,-3.957 427.609,-3.864C428.244,-3.724 428.736,-3.57 429.086,-3.402C429.436,-3.234 429.686,-3.029 429.835,-2.786C429.985,-2.543 430.059,-2.235 430.059,-1.862C430.059,-1.274 429.812,-0.8 429.317,-0.441C428.823,-0.082 428.169,0.098 427.357,0.098C426.928,0.098 426.52,0.047 426.132,-0.056Z" style="fill-rule:nonzero;"/>
                <path d="M432.871,-0.336C432.381,-0.625 432.003,-1.036 431.737,-1.568C431.471,-2.1 431.338,-2.716 431.338,-3.416C431.338,-4.116 431.475,-4.737 431.751,-5.278C432.026,-5.819 432.411,-6.239 432.906,-6.538C433.4,-6.837 433.97,-6.986 434.614,-6.986C434.968,-6.986 435.321,-6.937 435.671,-6.839C436.021,-6.741 436.326,-6.599 436.588,-6.412C436.756,-6.3 436.875,-6.19 436.945,-6.083C437.015,-5.976 437.05,-5.857 437.05,-5.726C437.05,-5.595 437.015,-5.488 436.945,-5.404C436.875,-5.32 436.784,-5.278 436.672,-5.278C436.606,-5.278 436.536,-5.297 436.462,-5.334C436.387,-5.371 436.324,-5.409 436.273,-5.446C436.221,-5.483 436.186,-5.507 436.168,-5.516C435.925,-5.675 435.694,-5.801 435.475,-5.894C435.255,-5.987 434.987,-6.034 434.67,-6.034C433.988,-6.034 433.459,-5.803 433.081,-5.341C432.703,-4.879 432.514,-4.237 432.514,-3.416C432.514,-2.595 432.703,-1.96 433.081,-1.512C433.459,-1.064 433.988,-0.84 434.67,-0.84C434.987,-0.84 435.26,-0.887 435.489,-0.98C435.717,-1.073 435.948,-1.199 436.182,-1.358C436.284,-1.423 436.382,-1.479 436.476,-1.526C436.569,-1.573 436.648,-1.596 436.714,-1.596C436.816,-1.596 436.903,-1.554 436.973,-1.47C437.043,-1.386 437.078,-1.279 437.078,-1.148C437.078,-1.027 437.045,-0.917 436.98,-0.819C436.914,-0.721 436.793,-0.611 436.616,-0.49C436.354,-0.313 436.039,-0.17 435.671,-0.063C435.302,0.044 434.931,0.098 434.558,0.098C433.923,0.098 433.361,-0.047 432.871,-0.336Z" style="fill-rule:nonzero;"/>
                <path d="M443.76,-4.298L443.76,-0.49C443.76,-0.322 443.711,-0.187 443.613,-0.084C443.515,0.019 443.382,0.07 443.214,0.07C443.046,0.07 442.91,0.019 442.808,-0.084C442.705,-0.187 442.654,-0.322 442.654,-0.49L442.654,-1.162C442.476,-0.761 442.206,-0.45 441.842,-0.231C441.478,-0.012 441.058,0.098 440.582,0.098C440.143,0.098 439.739,0.009 439.371,-0.168C439.002,-0.345 438.71,-0.593 438.496,-0.91C438.281,-1.227 438.174,-1.577 438.174,-1.96C438.174,-2.473 438.304,-2.872 438.566,-3.157C438.827,-3.442 439.256,-3.647 439.854,-3.773C440.451,-3.899 441.282,-3.962 442.346,-3.962L442.654,-3.962L442.654,-4.424C442.654,-4.984 442.539,-5.395 442.311,-5.656C442.082,-5.917 441.711,-6.048 441.198,-6.048C440.563,-6.048 439.919,-5.875 439.266,-5.53C439.014,-5.371 438.836,-5.292 438.734,-5.292C438.622,-5.292 438.528,-5.334 438.454,-5.418C438.379,-5.502 438.342,-5.609 438.342,-5.74C438.342,-5.871 438.381,-5.985 438.461,-6.083C438.54,-6.181 438.668,-6.281 438.846,-6.384C439.172,-6.571 439.543,-6.718 439.959,-6.825C440.374,-6.932 440.787,-6.986 441.198,-6.986C442.906,-6.986 443.76,-6.09 443.76,-4.298ZM442.115,-1.365C442.474,-1.743 442.654,-2.231 442.654,-2.828L442.654,-3.234L442.402,-3.234C441.58,-3.234 440.955,-3.199 440.526,-3.129C440.096,-3.059 439.791,-2.942 439.609,-2.779C439.427,-2.616 439.336,-2.375 439.336,-2.058C439.336,-1.694 439.469,-1.393 439.735,-1.155C440.001,-0.917 440.334,-0.798 440.736,-0.798C441.296,-0.798 441.755,-0.987 442.115,-1.365Z" style="fill-rule:nonzero;"/>
                <path d="M451.674,-4.284L451.674,-0.49C451.674,-0.313 451.625,-0.175 451.527,-0.077C451.429,0.021 451.291,0.07 451.114,0.07C450.937,0.07 450.797,0.021 450.694,-0.077C450.591,-0.175 450.54,-0.313 450.54,-0.49L450.54,-4.214C450.54,-4.849 450.416,-5.311 450.169,-5.6C449.922,-5.889 449.527,-6.034 448.986,-6.034C448.361,-6.034 447.861,-5.843 447.488,-5.46C447.115,-5.077 446.928,-4.559 446.928,-3.906L446.928,-0.49C446.928,-0.313 446.879,-0.175 446.781,-0.077C446.683,0.021 446.545,0.07 446.368,0.07C446.191,0.07 446.051,0.021 445.948,-0.077C445.845,-0.175 445.794,-0.313 445.794,-0.49L445.794,-6.398C445.794,-6.566 445.845,-6.701 445.948,-6.804C446.051,-6.907 446.191,-6.958 446.368,-6.958C446.536,-6.958 446.669,-6.907 446.767,-6.804C446.865,-6.701 446.914,-6.571 446.914,-6.412L446.914,-5.698C447.138,-6.118 447.451,-6.438 447.852,-6.657C448.253,-6.876 448.711,-6.986 449.224,-6.986C450.857,-6.986 451.674,-6.085 451.674,-4.284Z" style="fill-rule:nonzero;"/>
                <path d="M459.588,-4.284L459.588,-0.49C459.588,-0.313 459.539,-0.175 459.441,-0.077C459.343,0.021 459.206,0.07 459.028,0.07C458.851,0.07 458.711,0.021 458.608,-0.077C458.506,-0.175 458.454,-0.313 458.454,-0.49L458.454,-4.214C458.454,-4.849 458.331,-5.311 458.083,-5.6C457.836,-5.889 457.442,-6.034 456.9,-6.034C456.275,-6.034 455.776,-5.843 455.402,-5.46C455.029,-5.077 454.842,-4.559 454.842,-3.906L454.842,-0.49C454.842,-0.313 454.793,-0.175 454.695,-0.077C454.597,0.021 454.46,0.07 454.282,0.07C454.105,0.07 453.965,0.021 453.862,-0.077C453.76,-0.175 453.708,-0.313 453.708,-0.49L453.708,-6.398C453.708,-6.566 453.76,-6.701 453.862,-6.804C453.965,-6.907 454.105,-6.958 454.282,-6.958C454.45,-6.958 454.583,-6.907 454.681,-6.804C454.779,-6.701 454.828,-6.571 454.828,-6.412L454.828,-5.698C455.052,-6.118 455.365,-6.438 455.766,-6.657C456.168,-6.876 456.625,-6.986 457.138,-6.986C458.772,-6.986 459.588,-6.085 459.588,-4.284Z" style="fill-rule:nonzero;"/>
                <path d="M461.784,-0.077C461.676,-0.175 461.623,-0.313 461.623,-0.49L461.623,-6.398C461.623,-6.575 461.676,-6.713 461.784,-6.811C461.891,-6.909 462.029,-6.958 462.197,-6.958C462.365,-6.958 462.5,-6.909 462.603,-6.811C462.705,-6.713 462.757,-6.575 462.757,-6.398L462.757,-0.49C462.757,-0.303 462.705,-0.163 462.603,-0.07C462.5,0.023 462.365,0.07 462.197,0.07C462.029,0.07 461.891,0.021 461.784,-0.077ZM461.651,-8.624C461.511,-8.755 461.441,-8.927 461.441,-9.142C461.441,-9.347 461.511,-9.515 461.651,-9.646C461.791,-9.777 461.973,-9.842 462.197,-9.842C462.421,-9.842 462.603,-9.777 462.743,-9.646C462.883,-9.515 462.953,-9.347 462.953,-9.142C462.953,-8.927 462.883,-8.755 462.743,-8.624C462.603,-8.493 462.421,-8.428 462.197,-8.428C461.973,-8.428 461.791,-8.493 461.651,-8.624Z" style="fill-rule:nonzero;"/>
                <path d="M470.713,-4.284L470.713,-0.49C470.713,-0.313 470.664,-0.175 470.566,-0.077C470.468,0.021 470.33,0.07 470.153,0.07C469.976,0.07 469.836,0.021 469.733,-0.077C469.63,-0.175 469.579,-0.313 469.579,-0.49L469.579,-4.214C469.579,-4.849 469.455,-5.311 469.208,-5.6C468.961,-5.889 468.566,-6.034 468.025,-6.034C467.4,-6.034 466.9,-5.843 466.527,-5.46C466.154,-5.077 465.967,-4.559 465.967,-3.906L465.967,-0.49C465.967,-0.313 465.918,-0.175 465.82,-0.077C465.722,0.021 465.584,0.07 465.407,0.07C465.23,0.07 465.09,0.021 464.987,-0.077C464.884,-0.175 464.833,-0.313 464.833,-0.49L464.833,-6.398C464.833,-6.566 464.884,-6.701 464.987,-6.804C465.09,-6.907 465.23,-6.958 465.407,-6.958C465.575,-6.958 465.708,-6.907 465.806,-6.804C465.904,-6.701 465.953,-6.571 465.953,-6.412L465.953,-5.698C466.177,-6.118 466.49,-6.438 466.891,-6.657C467.292,-6.876 467.75,-6.986 468.263,-6.986C469.896,-6.986 470.713,-6.085 470.713,-4.284Z" style="fill-rule:nonzero;"/>
                <path d="M478.697,-6.804C478.8,-6.701 478.851,-6.566 478.851,-6.398L478.851,-0.462C478.851,0.555 478.59,1.323 478.067,1.841C477.545,2.359 476.77,2.618 475.743,2.618C474.745,2.618 473.914,2.422 473.251,2.03C472.915,1.843 472.747,1.629 472.747,1.386C472.747,1.255 472.782,1.148 472.852,1.064C472.922,0.98 473.013,0.938 473.125,0.938C473.219,0.938 473.387,1.003 473.629,1.134C473.956,1.302 474.278,1.437 474.595,1.54C474.913,1.643 475.291,1.694 475.729,1.694C476.392,1.694 476.891,1.519 477.227,1.169C477.563,0.819 477.731,0.308 477.731,-0.364L477.731,-1.568C477.535,-1.129 477.234,-0.793 476.828,-0.56C476.422,-0.327 475.944,-0.21 475.393,-0.21C474.796,-0.21 474.266,-0.35 473.804,-0.63C473.342,-0.91 472.983,-1.307 472.726,-1.82C472.47,-2.333 472.341,-2.926 472.341,-3.598C472.341,-4.27 472.47,-4.863 472.726,-5.376C472.983,-5.889 473.342,-6.286 473.804,-6.566C474.266,-6.846 474.796,-6.986 475.393,-6.986C475.935,-6.986 476.406,-6.869 476.807,-6.636C477.209,-6.403 477.512,-6.071 477.717,-5.642L477.717,-6.398C477.717,-6.566 477.766,-6.701 477.864,-6.804C477.962,-6.907 478.1,-6.958 478.277,-6.958C478.455,-6.958 478.595,-6.907 478.697,-6.804ZM477.157,-1.799C477.531,-2.233 477.717,-2.833 477.717,-3.598C477.717,-4.354 477.533,-4.949 477.164,-5.383C476.796,-5.817 476.28,-6.034 475.617,-6.034C474.955,-6.034 474.434,-5.817 474.056,-5.383C473.678,-4.949 473.489,-4.354 473.489,-3.598C473.489,-2.833 473.678,-2.233 474.056,-1.799C474.434,-1.365 474.955,-1.148 475.617,-1.148C476.271,-1.148 476.784,-1.365 477.157,-1.799Z" style="fill-rule:nonzero;"/>
                <path d="M486.378,-8.505C486.126,-8.23 486,-7.817 486,-7.266L486,-6.818L487.554,-6.818C487.712,-6.818 487.834,-6.776 487.918,-6.692C488.002,-6.608 488.044,-6.496 488.044,-6.356C488.044,-6.216 488.002,-6.109 487.918,-6.034C487.834,-5.959 487.712,-5.922 487.554,-5.922L486,-5.922L486,-0.49C486,-0.313 485.946,-0.175 485.839,-0.077C485.731,0.021 485.598,0.07 485.44,0.07C485.272,0.07 485.134,0.021 485.027,-0.077C484.919,-0.175 484.866,-0.313 484.866,-0.49L484.866,-5.922L483.928,-5.922C483.769,-5.922 483.645,-5.962 483.557,-6.041C483.468,-6.12 483.424,-6.225 483.424,-6.356C483.424,-6.496 483.468,-6.608 483.557,-6.692C483.645,-6.776 483.769,-6.818 483.928,-6.818L484.866,-6.818L484.866,-7.07C484.866,-7.91 485.076,-8.57 485.496,-9.051C485.916,-9.532 486.518,-9.8 487.302,-9.856L487.666,-9.884C487.908,-9.903 488.083,-9.879 488.191,-9.814C488.298,-9.749 488.352,-9.632 488.352,-9.464C488.352,-9.193 488.188,-9.039 487.862,-9.002L487.498,-8.974C487.003,-8.937 486.63,-8.78 486.378,-8.505Z" style="fill-rule:nonzero;"/>
                <path d="M490.099,-0.336C489.609,-0.625 489.231,-1.038 488.965,-1.575C488.699,-2.112 488.566,-2.735 488.566,-3.444C488.566,-4.153 488.699,-4.776 488.965,-5.313C489.231,-5.85 489.609,-6.263 490.099,-6.552C490.589,-6.841 491.156,-6.986 491.8,-6.986C492.444,-6.986 493.013,-6.841 493.508,-6.552C494.003,-6.263 494.383,-5.85 494.649,-5.313C494.915,-4.776 495.048,-4.153 495.048,-3.444C495.048,-2.735 494.915,-2.112 494.649,-1.575C494.383,-1.038 494.003,-0.625 493.508,-0.336C493.013,-0.047 492.444,0.098 491.8,0.098C491.156,0.098 490.589,-0.047 490.099,-0.336ZM493.347,-1.505C493.706,-1.948 493.886,-2.595 493.886,-3.444C493.886,-4.275 493.704,-4.916 493.34,-5.369C492.976,-5.822 492.463,-6.048 491.8,-6.048C491.137,-6.048 490.624,-5.822 490.26,-5.369C489.896,-4.916 489.714,-4.275 489.714,-3.444C489.714,-2.604 489.894,-1.96 490.253,-1.512C490.612,-1.064 491.128,-0.84 491.8,-0.84C492.472,-0.84 492.988,-1.062 493.347,-1.505Z" style="fill-rule:nonzero;"/>
                <path d="M500.666,-6.482C500.666,-6.333 500.624,-6.214 500.54,-6.125C500.456,-6.036 500.312,-5.983 500.106,-5.964L499.686,-5.922C499.061,-5.866 498.597,-5.644 498.293,-5.257C497.99,-4.87 497.838,-4.415 497.838,-3.892L497.838,-0.49C497.838,-0.303 497.787,-0.163 497.684,-0.07C497.582,0.023 497.446,0.07 497.278,0.07C497.11,0.07 496.973,0.021 496.865,-0.077C496.758,-0.175 496.704,-0.313 496.704,-0.49L496.704,-6.398C496.704,-6.575 496.76,-6.713 496.872,-6.811C496.984,-6.909 497.12,-6.958 497.278,-6.958C497.428,-6.958 497.554,-6.909 497.656,-6.811C497.759,-6.713 497.81,-6.58 497.81,-6.412L497.81,-5.628C498.006,-6.039 498.284,-6.351 498.643,-6.566C499.003,-6.781 499.416,-6.907 499.882,-6.944L500.078,-6.958C500.47,-6.986 500.666,-6.827 500.666,-6.482Z" style="fill-rule:nonzero;"/>
                <path d="M515.039,-4.284L515.039,-0.49C515.039,-0.313 514.987,-0.175 514.885,-0.077C514.782,0.021 514.647,0.07 514.479,0.07C514.311,0.07 514.173,0.021 514.066,-0.077C513.958,-0.175 513.905,-0.313 513.905,-0.49L513.905,-4.256C513.905,-4.881 513.793,-5.334 513.569,-5.614C513.345,-5.894 512.995,-6.034 512.519,-6.034C511.949,-6.034 511.501,-5.843 511.175,-5.46C510.848,-5.077 510.685,-4.559 510.685,-3.906L510.685,-0.49C510.685,-0.313 510.631,-0.175 510.524,-0.077C510.416,0.021 510.279,0.07 510.111,0.07C509.943,0.07 509.807,0.021 509.705,-0.077C509.602,-0.175 509.551,-0.313 509.551,-0.49L509.551,-4.256C509.551,-4.881 509.439,-5.334 509.215,-5.614C508.991,-5.894 508.636,-6.034 508.151,-6.034C507.591,-6.034 507.145,-5.843 506.814,-5.46C506.482,-5.077 506.317,-4.559 506.317,-3.906L506.317,-0.49C506.317,-0.313 506.265,-0.175 506.163,-0.077C506.06,0.021 505.925,0.07 505.757,0.07C505.589,0.07 505.451,0.021 505.344,-0.077C505.236,-0.175 505.183,-0.313 505.183,-0.49L505.183,-6.398C505.183,-6.566 505.236,-6.701 505.344,-6.804C505.451,-6.907 505.589,-6.958 505.757,-6.958C505.915,-6.958 506.046,-6.909 506.149,-6.811C506.251,-6.713 506.303,-6.58 506.303,-6.412L506.303,-5.74C506.508,-6.141 506.793,-6.449 507.157,-6.664C507.521,-6.879 507.941,-6.986 508.417,-6.986C509.481,-6.986 510.176,-6.538 510.503,-5.642C510.699,-6.053 510.997,-6.379 511.399,-6.622C511.8,-6.865 512.257,-6.986 512.771,-6.986C514.283,-6.986 515.039,-6.085 515.039,-4.284Z" style="fill-rule:nonzero;"/>
                <path d="M522.421,-4.298L522.421,-0.49C522.421,-0.322 522.372,-0.187 522.274,-0.084C522.176,0.019 522.043,0.07 521.875,0.07C521.707,0.07 521.572,0.019 521.469,-0.084C521.366,-0.187 521.315,-0.322 521.315,-0.49L521.315,-1.162C521.138,-0.761 520.867,-0.45 520.503,-0.231C520.139,-0.012 519.719,0.098 519.243,0.098C518.804,0.098 518.401,0.009 518.032,-0.168C517.663,-0.345 517.372,-0.593 517.157,-0.91C516.942,-1.227 516.835,-1.577 516.835,-1.96C516.835,-2.473 516.966,-2.872 517.227,-3.157C517.488,-3.442 517.918,-3.647 518.515,-3.773C519.112,-3.899 519.943,-3.962 521.007,-3.962L521.315,-3.962L521.315,-4.424C521.315,-4.984 521.201,-5.395 520.972,-5.656C520.743,-5.917 520.372,-6.048 519.859,-6.048C519.224,-6.048 518.58,-5.875 517.927,-5.53C517.675,-5.371 517.498,-5.292 517.395,-5.292C517.283,-5.292 517.19,-5.334 517.115,-5.418C517.04,-5.502 517.003,-5.609 517.003,-5.74C517.003,-5.871 517.043,-5.985 517.122,-6.083C517.201,-6.181 517.33,-6.281 517.507,-6.384C517.834,-6.571 518.205,-6.718 518.62,-6.825C519.035,-6.932 519.448,-6.986 519.859,-6.986C521.567,-6.986 522.421,-6.09 522.421,-4.298ZM520.776,-1.365C521.135,-1.743 521.315,-2.231 521.315,-2.828L521.315,-3.234L521.063,-3.234C520.242,-3.234 519.616,-3.199 519.187,-3.129C518.758,-3.059 518.452,-2.942 518.27,-2.779C518.088,-2.616 517.997,-2.375 517.997,-2.058C517.997,-1.694 518.13,-1.393 518.396,-1.155C518.662,-0.917 518.996,-0.798 519.397,-0.798C519.957,-0.798 520.417,-0.987 520.776,-1.365Z" style="fill-rule:nonzero;"/>
                <path d="M524.616,-0.077C524.509,-0.175 524.455,-0.313 524.455,-0.49L524.455,-9.38C524.455,-9.557 524.509,-9.695 524.616,-9.793C524.724,-9.891 524.861,-9.94 525.029,-9.94C525.188,-9.94 525.321,-9.891 525.428,-9.793C525.536,-9.695 525.589,-9.557 525.589,-9.38L525.589,-0.49C525.589,-0.313 525.536,-0.175 525.428,-0.077C525.321,0.021 525.188,0.07 525.029,0.07C524.861,0.07 524.724,0.021 524.616,-0.077Z" style="fill-rule:nonzero;"/>
                <path d="M537.452,-6.93C537.592,-6.93 537.718,-6.883 537.83,-6.79C537.942,-6.697 537.998,-6.58 537.998,-6.44C537.998,-6.375 537.984,-6.305 537.956,-6.23L535.632,-0.35C535.576,-0.229 535.494,-0.133 535.387,-0.063C535.279,0.007 535.16,0.042 535.03,0.042C534.908,0.042 534.794,0.007 534.687,-0.063C534.579,-0.133 534.498,-0.229 534.442,-0.35L532.51,-5.264L530.592,-0.35C530.545,-0.229 530.466,-0.133 530.354,-0.063C530.242,0.007 530.12,0.042 529.99,0.042C529.868,0.042 529.752,0.007 529.64,-0.063C529.528,-0.133 529.444,-0.229 529.388,-0.35L527.064,-6.216C527.036,-6.291 527.022,-6.356 527.022,-6.412C527.022,-6.561 527.085,-6.687 527.211,-6.79C527.337,-6.893 527.474,-6.944 527.624,-6.944C527.848,-6.944 528.006,-6.832 528.1,-6.608L530.018,-1.442L531.992,-6.566C532.048,-6.687 532.125,-6.781 532.223,-6.846C532.321,-6.911 532.426,-6.944 532.538,-6.944C532.659,-6.944 532.769,-6.911 532.867,-6.846C532.965,-6.781 533.037,-6.687 533.084,-6.566L535.058,-1.456L536.99,-6.594C537.083,-6.818 537.237,-6.93 537.452,-6.93Z" style="fill-rule:nonzero;"/>
                <path d="M544.638,-4.298L544.638,-0.49C544.638,-0.322 544.589,-0.187 544.491,-0.084C544.393,0.019 544.26,0.07 544.092,0.07C543.924,0.07 543.789,0.019 543.686,-0.084C543.583,-0.187 543.532,-0.322 543.532,-0.49L543.532,-1.162C543.355,-0.761 543.084,-0.45 542.72,-0.231C542.356,-0.012 541.936,0.098 541.46,0.098C541.021,0.098 540.618,0.009 540.249,-0.168C539.88,-0.345 539.589,-0.593 539.374,-0.91C539.159,-1.227 539.052,-1.577 539.052,-1.96C539.052,-2.473 539.183,-2.872 539.444,-3.157C539.705,-3.442 540.135,-3.647 540.732,-3.773C541.329,-3.899 542.16,-3.962 543.224,-3.962L543.532,-3.962L543.532,-4.424C543.532,-4.984 543.418,-5.395 543.189,-5.656C542.96,-5.917 542.589,-6.048 542.076,-6.048C541.441,-6.048 540.797,-5.875 540.144,-5.53C539.892,-5.371 539.715,-5.292 539.612,-5.292C539.5,-5.292 539.407,-5.334 539.332,-5.418C539.257,-5.502 539.22,-5.609 539.22,-5.74C539.22,-5.871 539.26,-5.985 539.339,-6.083C539.418,-6.181 539.547,-6.281 539.724,-6.384C540.051,-6.571 540.422,-6.718 540.837,-6.825C541.252,-6.932 541.665,-6.986 542.076,-6.986C543.784,-6.986 544.638,-6.09 544.638,-4.298ZM542.993,-1.365C543.352,-1.743 543.532,-2.231 543.532,-2.828L543.532,-3.234L543.28,-3.234C542.459,-3.234 541.833,-3.199 541.404,-3.129C540.975,-3.059 540.669,-2.942 540.487,-2.779C540.305,-2.616 540.214,-2.375 540.214,-2.058C540.214,-1.694 540.347,-1.393 540.613,-1.155C540.879,-0.917 541.213,-0.798 541.614,-0.798C542.174,-0.798 542.634,-0.987 542.993,-1.365Z" style="fill-rule:nonzero;"/>
                <path d="M550.634,-6.482C550.634,-6.333 550.592,-6.214 550.508,-6.125C550.424,-6.036 550.279,-5.983 550.074,-5.964L549.654,-5.922C549.029,-5.866 548.564,-5.644 548.261,-5.257C547.958,-4.87 547.806,-4.415 547.806,-3.892L547.806,-0.49C547.806,-0.303 547.755,-0.163 547.652,-0.07C547.549,0.023 547.414,0.07 547.246,0.07C547.078,0.07 546.94,0.021 546.833,-0.077C546.726,-0.175 546.672,-0.313 546.672,-0.49L546.672,-6.398C546.672,-6.575 546.728,-6.713 546.84,-6.811C546.952,-6.909 547.087,-6.958 547.246,-6.958C547.395,-6.958 547.521,-6.909 547.624,-6.811C547.727,-6.713 547.778,-6.58 547.778,-6.412L547.778,-5.628C547.974,-6.039 548.252,-6.351 548.611,-6.566C548.97,-6.781 549.383,-6.907 549.85,-6.944L550.046,-6.958C550.438,-6.986 550.634,-6.827 550.634,-6.482Z" style="fill-rule:nonzero;"/>
                <path d="M556.98,-1.456C557.055,-1.372 557.092,-1.265 557.092,-1.134C557.092,-0.901 556.929,-0.686 556.602,-0.49C556.266,-0.294 555.912,-0.147 555.538,-0.049C555.165,0.049 554.801,0.098 554.446,0.098C553.392,0.098 552.559,-0.215 551.947,-0.84C551.336,-1.465 551.03,-2.329 551.03,-3.43C551.03,-4.13 551.166,-4.748 551.436,-5.285C551.707,-5.822 552.087,-6.239 552.577,-6.538C553.067,-6.837 553.625,-6.986 554.25,-6.986C555.137,-6.986 555.842,-6.697 556.364,-6.118C556.887,-5.539 557.148,-4.755 557.148,-3.766C557.148,-3.579 557.111,-3.444 557.036,-3.36C556.962,-3.276 556.84,-3.234 556.672,-3.234L552.164,-3.234C552.248,-1.629 553.009,-0.826 554.446,-0.826C554.81,-0.826 555.123,-0.875 555.384,-0.973C555.646,-1.071 555.926,-1.204 556.224,-1.372C556.467,-1.512 556.63,-1.582 556.714,-1.582C556.817,-1.582 556.906,-1.54 556.98,-1.456ZM552.829,-5.544C552.47,-5.171 552.258,-4.643 552.192,-3.962L556.154,-3.962C556.136,-4.653 555.963,-5.182 555.636,-5.551C555.31,-5.92 554.852,-6.104 554.264,-6.104C553.667,-6.104 553.189,-5.917 552.829,-5.544Z" style="fill-rule:nonzero;"/>
                <path d="M567.699,-4.298L567.699,-0.49C567.699,-0.322 567.65,-0.187 567.552,-0.084C567.454,0.019 567.321,0.07 567.153,0.07C566.985,0.07 566.85,0.019 566.747,-0.084C566.644,-0.187 566.593,-0.322 566.593,-0.49L566.593,-1.162C566.416,-0.761 566.145,-0.45 565.781,-0.231C565.417,-0.012 564.997,0.098 564.521,0.098C564.082,0.098 563.679,0.009 563.31,-0.168C562.941,-0.345 562.65,-0.593 562.435,-0.91C562.22,-1.227 562.113,-1.577 562.113,-1.96C562.113,-2.473 562.244,-2.872 562.505,-3.157C562.766,-3.442 563.196,-3.647 563.793,-3.773C564.39,-3.899 565.221,-3.962 566.285,-3.962L566.593,-3.962L566.593,-4.424C566.593,-4.984 566.479,-5.395 566.25,-5.656C566.021,-5.917 565.65,-6.048 565.137,-6.048C564.502,-6.048 563.858,-5.875 563.205,-5.53C562.953,-5.371 562.776,-5.292 562.673,-5.292C562.561,-5.292 562.468,-5.334 562.393,-5.418C562.318,-5.502 562.281,-5.609 562.281,-5.74C562.281,-5.871 562.321,-5.985 562.4,-6.083C562.479,-6.181 562.608,-6.281 562.785,-6.384C563.112,-6.571 563.483,-6.718 563.898,-6.825C564.313,-6.932 564.726,-6.986 565.137,-6.986C566.845,-6.986 567.699,-6.09 567.699,-4.298ZM566.054,-1.365C566.413,-1.743 566.593,-2.231 566.593,-2.828L566.593,-3.234L566.341,-3.234C565.52,-3.234 564.894,-3.199 564.465,-3.129C564.036,-3.059 563.73,-2.942 563.548,-2.779C563.366,-2.616 563.275,-2.375 563.275,-2.058C563.275,-1.694 563.408,-1.393 563.674,-1.155C563.94,-0.917 564.274,-0.798 564.675,-0.798C565.235,-0.798 565.695,-0.987 566.054,-1.365Z" style="fill-rule:nonzero;"/>
                <path d="M575.613,-4.284L575.613,-0.49C575.613,-0.313 575.564,-0.175 575.466,-0.077C575.368,0.021 575.231,0.07 575.053,0.07C574.876,0.07 574.736,0.021 574.633,-0.077C574.531,-0.175 574.479,-0.313 574.479,-0.49L574.479,-4.214C574.479,-4.849 574.356,-5.311 574.108,-5.6C573.861,-5.889 573.467,-6.034 572.925,-6.034C572.3,-6.034 571.801,-5.843 571.427,-5.46C571.054,-5.077 570.867,-4.559 570.867,-3.906L570.867,-0.49C570.867,-0.313 570.818,-0.175 570.72,-0.077C570.622,0.021 570.485,0.07 570.307,0.07C570.13,0.07 569.99,0.021 569.887,-0.077C569.785,-0.175 569.733,-0.313 569.733,-0.49L569.733,-6.398C569.733,-6.566 569.785,-6.701 569.887,-6.804C569.99,-6.907 570.13,-6.958 570.307,-6.958C570.475,-6.958 570.608,-6.907 570.706,-6.804C570.804,-6.701 570.853,-6.571 570.853,-6.412L570.853,-5.698C571.077,-6.118 571.39,-6.438 571.791,-6.657C572.193,-6.876 572.65,-6.986 573.163,-6.986C574.797,-6.986 575.613,-6.085 575.613,-4.284Z" style="fill-rule:nonzero;"/>
                <path d="M583.541,-9.786C583.644,-9.683 583.695,-9.553 583.695,-9.394L583.695,-0.49C583.695,-0.322 583.644,-0.187 583.541,-0.084C583.439,0.019 583.299,0.07 583.121,0.07C582.944,0.07 582.806,0.019 582.708,-0.084C582.61,-0.187 582.561,-0.322 582.561,-0.49L582.561,-1.246C582.356,-0.817 582.055,-0.485 581.658,-0.252C581.262,-0.019 580.797,0.098 580.265,0.098C579.668,0.098 579.141,-0.051 578.683,-0.35C578.226,-0.649 577.871,-1.066 577.619,-1.603C577.367,-2.14 577.241,-2.763 577.241,-3.472C577.241,-4.172 577.367,-4.788 577.619,-5.32C577.871,-5.852 578.226,-6.263 578.683,-6.552C579.141,-6.841 579.668,-6.986 580.265,-6.986C580.797,-6.986 581.262,-6.869 581.658,-6.636C582.055,-6.403 582.356,-6.071 582.561,-5.642L582.561,-9.394C582.561,-9.562 582.61,-9.695 582.708,-9.793C582.806,-9.891 582.944,-9.94 583.121,-9.94C583.299,-9.94 583.439,-9.889 583.541,-9.786ZM582.022,-1.519C582.382,-1.972 582.561,-2.613 582.561,-3.444C582.561,-4.275 582.382,-4.914 582.022,-5.362C581.663,-5.81 581.152,-6.034 580.489,-6.034C579.827,-6.034 579.311,-5.81 578.942,-5.362C578.574,-4.914 578.389,-4.284 578.389,-3.472C578.389,-2.641 578.574,-1.995 578.942,-1.533C579.311,-1.071 579.827,-0.84 580.489,-0.84C581.152,-0.84 581.663,-1.066 582.022,-1.519Z" style="fill-rule:nonzero;"/>
                <path d="M589.493,-0.077C589.386,-0.175 589.332,-0.313 589.332,-0.49L589.332,-6.398C589.332,-6.575 589.386,-6.713 589.493,-6.811C589.6,-6.909 589.738,-6.958 589.906,-6.958C590.074,-6.958 590.209,-6.909 590.312,-6.811C590.415,-6.713 590.466,-6.575 590.466,-6.398L590.466,-0.49C590.466,-0.303 590.415,-0.163 590.312,-0.07C590.209,0.023 590.074,0.07 589.906,0.07C589.738,0.07 589.6,0.021 589.493,-0.077ZM589.36,-8.624C589.22,-8.755 589.15,-8.927 589.15,-9.142C589.15,-9.347 589.22,-9.515 589.36,-9.646C589.5,-9.777 589.682,-9.842 589.906,-9.842C590.13,-9.842 590.312,-9.777 590.452,-9.646C590.592,-9.515 590.662,-9.347 590.662,-9.142C590.662,-8.927 590.592,-8.755 590.452,-8.624C590.312,-8.493 590.13,-8.428 589.906,-8.428C589.682,-8.428 589.5,-8.493 589.36,-8.624Z" style="fill-rule:nonzero;"/>
                <path d="M598.422,-4.284L598.422,-0.49C598.422,-0.313 598.373,-0.175 598.275,-0.077C598.177,0.021 598.04,0.07 597.862,0.07C597.685,0.07 597.545,0.021 597.442,-0.077C597.34,-0.175 597.288,-0.313 597.288,-0.49L597.288,-4.214C597.288,-4.849 597.165,-5.311 596.917,-5.6C596.67,-5.889 596.276,-6.034 595.734,-6.034C595.109,-6.034 594.61,-5.843 594.236,-5.46C593.863,-5.077 593.676,-4.559 593.676,-3.906L593.676,-0.49C593.676,-0.313 593.627,-0.175 593.529,-0.077C593.431,0.021 593.294,0.07 593.116,0.07C592.939,0.07 592.799,0.021 592.696,-0.077C592.594,-0.175 592.542,-0.313 592.542,-0.49L592.542,-6.398C592.542,-6.566 592.594,-6.701 592.696,-6.804C592.799,-6.907 592.939,-6.958 593.116,-6.958C593.284,-6.958 593.417,-6.907 593.515,-6.804C593.613,-6.701 593.662,-6.571 593.662,-6.412L593.662,-5.698C593.886,-6.118 594.199,-6.438 594.6,-6.657C595.002,-6.876 595.459,-6.986 595.972,-6.986C597.606,-6.986 598.422,-6.085 598.422,-4.284Z" style="fill-rule:nonzero;"/>
                <path d="M604.097,-0.378C604.097,-0.219 604.038,-0.1 603.922,-0.021C603.805,0.058 603.63,0.089 603.397,0.07L603.019,0.042C602.272,-0.014 601.721,-0.238 601.367,-0.63C601.012,-1.022 600.835,-1.615 600.835,-2.408L600.835,-5.922L599.897,-5.922C599.738,-5.922 599.614,-5.962 599.526,-6.041C599.437,-6.12 599.393,-6.225 599.393,-6.356C599.393,-6.496 599.437,-6.608 599.526,-6.692C599.614,-6.776 599.738,-6.818 599.897,-6.818L600.835,-6.818L600.835,-8.4C600.835,-8.577 600.886,-8.715 600.989,-8.813C601.091,-8.911 601.231,-8.96 601.409,-8.96C601.577,-8.96 601.712,-8.911 601.815,-8.813C601.917,-8.715 601.969,-8.577 601.969,-8.4L601.969,-6.818L603.523,-6.818C603.672,-6.818 603.791,-6.776 603.88,-6.692C603.968,-6.608 604.013,-6.496 604.013,-6.356C604.013,-6.225 603.968,-6.12 603.88,-6.041C603.791,-5.962 603.672,-5.922 603.523,-5.922L601.969,-5.922L601.969,-2.352C601.969,-1.839 602.074,-1.468 602.284,-1.239C602.494,-1.01 602.809,-0.882 603.229,-0.854L603.607,-0.826C603.933,-0.798 604.097,-0.649 604.097,-0.378Z" style="fill-rule:nonzero;"/>
                <path d="M609.141,-6.482C609.141,-6.333 609.099,-6.214 609.015,-6.125C608.931,-6.036 608.786,-5.983 608.581,-5.964L608.161,-5.922C607.536,-5.866 607.071,-5.644 606.768,-5.257C606.465,-4.87 606.313,-4.415 606.313,-3.892L606.313,-0.49C606.313,-0.303 606.262,-0.163 606.159,-0.07C606.056,0.023 605.921,0.07 605.753,0.07C605.585,0.07 605.447,0.021 605.34,-0.077C605.233,-0.175 605.179,-0.313 605.179,-0.49L605.179,-6.398C605.179,-6.575 605.235,-6.713 605.347,-6.811C605.459,-6.909 605.594,-6.958 605.753,-6.958C605.902,-6.958 606.028,-6.909 606.131,-6.811C606.234,-6.713 606.285,-6.58 606.285,-6.412L606.285,-5.628C606.481,-6.039 606.759,-6.351 607.118,-6.566C607.477,-6.781 607.89,-6.907 608.357,-6.944L608.553,-6.958C608.945,-6.986 609.141,-6.827 609.141,-6.482Z" style="fill-rule:nonzero;"/>
                <path d="M615.676,-6.804C615.774,-6.701 615.823,-6.566 615.823,-6.398L615.823,-0.476C615.823,-0.317 615.774,-0.187 615.676,-0.084C615.578,0.019 615.44,0.07 615.263,0.07C615.095,0.07 614.962,0.021 614.864,-0.077C614.766,-0.175 614.717,-0.303 614.717,-0.462L614.717,-1.162C614.502,-0.751 614.201,-0.439 613.814,-0.224C613.427,-0.009 612.99,0.098 612.505,0.098C611.693,0.098 611.082,-0.128 610.671,-0.581C610.26,-1.034 610.055,-1.703 610.055,-2.59L610.055,-6.398C610.055,-6.566 610.106,-6.701 610.209,-6.804C610.312,-6.907 610.452,-6.958 610.629,-6.958C610.806,-6.958 610.944,-6.907 611.042,-6.804C611.14,-6.701 611.189,-6.566 611.189,-6.398L611.189,-2.618C611.189,-2.011 611.31,-1.566 611.553,-1.281C611.796,-0.996 612.178,-0.854 612.701,-0.854C613.298,-0.854 613.779,-1.048 614.143,-1.435C614.507,-1.822 614.689,-2.333 614.689,-2.968L614.689,-6.398C614.689,-6.566 614.74,-6.701 614.843,-6.804C614.946,-6.907 615.086,-6.958 615.263,-6.958C615.44,-6.958 615.578,-6.907 615.676,-6.804Z" style="fill-rule:nonzero;"/>
                <path d="M618.97,-0.056C618.583,-0.159 618.24,-0.303 617.941,-0.49C617.773,-0.602 617.654,-0.707 617.584,-0.805C617.514,-0.903 617.479,-1.022 617.479,-1.162C617.479,-1.283 617.514,-1.384 617.584,-1.463C617.654,-1.542 617.745,-1.582 617.857,-1.582C617.969,-1.582 618.133,-1.512 618.347,-1.372C618.627,-1.204 618.905,-1.071 619.18,-0.973C619.456,-0.875 619.799,-0.826 620.209,-0.826C620.713,-0.826 621.105,-0.915 621.385,-1.092C621.665,-1.269 621.805,-1.526 621.805,-1.862C621.805,-2.067 621.754,-2.233 621.651,-2.359C621.549,-2.485 621.371,-2.597 621.119,-2.695C620.867,-2.793 620.499,-2.893 620.013,-2.996C619.192,-3.173 618.604,-3.411 618.249,-3.71C617.895,-4.009 617.717,-4.415 617.717,-4.928C617.717,-5.329 617.829,-5.684 618.053,-5.992C618.277,-6.3 618.588,-6.543 618.984,-6.72C619.381,-6.897 619.831,-6.986 620.335,-6.986C620.699,-6.986 621.052,-6.937 621.392,-6.839C621.733,-6.741 622.034,-6.603 622.295,-6.426C622.613,-6.202 622.771,-5.969 622.771,-5.726C622.771,-5.605 622.734,-5.502 622.659,-5.418C622.585,-5.334 622.496,-5.292 622.393,-5.292C622.281,-5.292 622.113,-5.371 621.889,-5.53C621.628,-5.698 621.381,-5.829 621.147,-5.922C620.914,-6.015 620.625,-6.062 620.279,-6.062C619.841,-6.062 619.488,-5.964 619.222,-5.768C618.956,-5.572 618.823,-5.311 618.823,-4.984C618.823,-4.779 618.872,-4.613 618.97,-4.487C619.068,-4.361 619.232,-4.249 619.46,-4.151C619.689,-4.053 620.018,-3.957 620.447,-3.864C621.082,-3.724 621.574,-3.57 621.924,-3.402C622.274,-3.234 622.524,-3.029 622.673,-2.786C622.823,-2.543 622.897,-2.235 622.897,-1.862C622.897,-1.274 622.65,-0.8 622.155,-0.441C621.661,-0.082 621.007,0.098 620.195,0.098C619.766,0.098 619.358,0.047 618.97,-0.056Z" style="fill-rule:nonzero;"/>
                <path d="M624.743,-0.077C624.635,-0.175 624.582,-0.313 624.582,-0.49L624.582,-6.398C624.582,-6.575 624.635,-6.713 624.743,-6.811C624.85,-6.909 624.988,-6.958 625.156,-6.958C625.324,-6.958 625.459,-6.909 625.562,-6.811C625.664,-6.713 625.716,-6.575 625.716,-6.398L625.716,-0.49C625.716,-0.303 625.664,-0.163 625.562,-0.07C625.459,0.023 625.324,0.07 625.156,0.07C624.988,0.07 624.85,0.021 624.743,-0.077ZM624.61,-8.624C624.47,-8.755 624.4,-8.927 624.4,-9.142C624.4,-9.347 624.47,-9.515 624.61,-9.646C624.75,-9.777 624.932,-9.842 625.156,-9.842C625.38,-9.842 625.562,-9.777 625.702,-9.646C625.842,-9.515 625.912,-9.347 625.912,-9.142C625.912,-8.927 625.842,-8.755 625.702,-8.624C625.562,-8.493 625.38,-8.428 625.156,-8.428C624.932,-8.428 624.75,-8.493 624.61,-8.624Z" style="fill-rule:nonzero;"/>
                <path d="M628.919,-0.336C628.429,-0.625 628.051,-1.038 627.785,-1.575C627.519,-2.112 627.386,-2.735 627.386,-3.444C627.386,-4.153 627.519,-4.776 627.785,-5.313C628.051,-5.85 628.429,-6.263 628.919,-6.552C629.409,-6.841 629.976,-6.986 630.62,-6.986C631.264,-6.986 631.833,-6.841 632.328,-6.552C632.823,-6.263 633.203,-5.85 633.469,-5.313C633.735,-4.776 633.868,-4.153 633.868,-3.444C633.868,-2.735 633.735,-2.112 633.469,-1.575C633.203,-1.038 632.823,-0.625 632.328,-0.336C631.833,-0.047 631.264,0.098 630.62,0.098C629.976,0.098 629.409,-0.047 628.919,-0.336ZM632.167,-1.505C632.526,-1.948 632.706,-2.595 632.706,-3.444C632.706,-4.275 632.524,-4.916 632.16,-5.369C631.796,-5.822 631.283,-6.048 630.62,-6.048C629.957,-6.048 629.444,-5.822 629.08,-5.369C628.716,-4.916 628.534,-4.275 628.534,-3.444C628.534,-2.604 628.714,-1.96 629.073,-1.512C629.432,-1.064 629.948,-0.84 630.62,-0.84C631.292,-0.84 631.808,-1.062 632.167,-1.505Z" style="fill-rule:nonzero;"/>
                <path d="M641.404,-4.284L641.404,-0.49C641.404,-0.313 641.355,-0.175 641.257,-0.077C641.159,0.021 641.022,0.07 640.844,0.07C640.667,0.07 640.527,0.021 640.424,-0.077C640.322,-0.175 640.27,-0.313 640.27,-0.49L640.27,-4.214C640.27,-4.849 640.147,-5.311 639.899,-5.6C639.652,-5.889 639.258,-6.034 638.716,-6.034C638.091,-6.034 637.592,-5.843 637.218,-5.46C636.845,-5.077 636.658,-4.559 636.658,-3.906L636.658,-0.49C636.658,-0.313 636.609,-0.175 636.511,-0.077C636.413,0.021 636.276,0.07 636.098,0.07C635.921,0.07 635.781,0.021 635.678,-0.077C635.576,-0.175 635.524,-0.313 635.524,-0.49L635.524,-6.398C635.524,-6.566 635.576,-6.701 635.678,-6.804C635.781,-6.907 635.921,-6.958 636.098,-6.958C636.266,-6.958 636.399,-6.907 636.497,-6.804C636.595,-6.701 636.644,-6.571 636.644,-6.412L636.644,-5.698C636.868,-6.118 637.181,-6.438 637.582,-6.657C637.984,-6.876 638.441,-6.986 638.954,-6.986C640.588,-6.986 641.404,-6.085 641.404,-4.284Z" style="fill-rule:nonzero;"/>
                <path d="M644.509,-0.056C644.122,-0.159 643.779,-0.303 643.48,-0.49C643.312,-0.602 643.193,-0.707 643.123,-0.805C643.053,-0.903 643.018,-1.022 643.018,-1.162C643.018,-1.283 643.053,-1.384 643.123,-1.463C643.193,-1.542 643.284,-1.582 643.396,-1.582C643.508,-1.582 643.672,-1.512 643.886,-1.372C644.166,-1.204 644.444,-1.071 644.719,-0.973C644.995,-0.875 645.338,-0.826 645.748,-0.826C646.252,-0.826 646.644,-0.915 646.924,-1.092C647.204,-1.269 647.344,-1.526 647.344,-1.862C647.344,-2.067 647.293,-2.233 647.19,-2.359C647.088,-2.485 646.91,-2.597 646.658,-2.695C646.406,-2.793 646.038,-2.893 645.552,-2.996C644.731,-3.173 644.143,-3.411 643.788,-3.71C643.434,-4.009 643.256,-4.415 643.256,-4.928C643.256,-5.329 643.368,-5.684 643.592,-5.992C643.816,-6.3 644.127,-6.543 644.523,-6.72C644.92,-6.897 645.37,-6.986 645.874,-6.986C646.238,-6.986 646.591,-6.937 646.931,-6.839C647.272,-6.741 647.573,-6.603 647.834,-6.426C648.152,-6.202 648.31,-5.969 648.31,-5.726C648.31,-5.605 648.273,-5.502 648.198,-5.418C648.124,-5.334 648.035,-5.292 647.932,-5.292C647.82,-5.292 647.652,-5.371 647.428,-5.53C647.167,-5.698 646.92,-5.829 646.686,-5.922C646.453,-6.015 646.164,-6.062 645.818,-6.062C645.38,-6.062 645.027,-5.964 644.761,-5.768C644.495,-5.572 644.362,-5.311 644.362,-4.984C644.362,-4.779 644.411,-4.613 644.509,-4.487C644.607,-4.361 644.771,-4.249 644.999,-4.151C645.228,-4.053 645.557,-3.957 645.986,-3.864C646.621,-3.724 647.113,-3.57 647.463,-3.402C647.813,-3.234 648.063,-3.029 648.212,-2.786C648.362,-2.543 648.436,-2.235 648.436,-1.862C648.436,-1.274 648.189,-0.8 647.694,-0.441C647.2,-0.082 646.546,0.098 645.734,0.098C645.305,0.098 644.897,0.047 644.509,-0.056Z" style="fill-rule:nonzero;"/>
            </g>
        </g>
    </g>
</svg>
