<?xml version="1.0" encoding="UTF-8" standalone="no"?>
<!DOCTYPE svg PUBLIC "-//W3C//DTD SVG 1.1//EN" "http://www.w3.org/Graphics/SVG/1.1/DTD/svg11.dtd">
<svg width="100%" height="100%" viewBox="0 0 659 13" version="1.1" xmlns="http://www.w3.org/2000/svg" xmlns:xlink="http://www.w3.org/1999/xlink" xml:space="preserve" xmlns:serif="http://www.serif.com/" style="fill-rule:evenodd;clip-rule:evenodd;stroke-linejoin:round;stroke-miterlimit:1.41421;">
    <g transform="matrix(1,0,0,1,-41,-797)">
        <g transform="matrix(1,0,0,1,41,807)">
            <g id="Visualization-shows">
                <path d="M8.659,-9.884C8.748,-9.94 8.843,-9.968 8.946,-9.968C9.095,-9.968 9.228,-9.919 9.345,-9.821C9.462,-9.723 9.52,-9.604 9.52,-9.464C9.52,-9.389 9.501,-9.315 9.464,-9.24L5.446,-0.308C5.39,-0.187 5.306,-0.093 5.194,-0.028C5.082,0.037 4.961,0.07 4.83,0.07C4.699,0.07 4.578,0.037 4.466,-0.028C4.354,-0.093 4.27,-0.187 4.214,-0.308L0.21,-9.24C0.182,-9.315 0.168,-9.385 0.168,-9.45C0.168,-9.599 0.229,-9.723 0.35,-9.821C0.471,-9.919 0.607,-9.968 0.756,-9.968C0.98,-9.968 1.143,-9.861 1.246,-9.646L4.858,-1.484L8.456,-9.646C8.503,-9.749 8.57,-9.828 8.659,-9.884Z" style="fill-rule:nonzero;"/>
                <path d="M10.847,-0.077C10.74,-0.175 10.686,-0.313 10.686,-0.49L10.686,-6.398C10.686,-6.575 10.74,-6.713 10.847,-6.811C10.955,-6.909 11.092,-6.958 11.26,-6.958C11.428,-6.958 11.564,-6.909 11.666,-6.811C11.769,-6.713 11.82,-6.575 11.82,-6.398L11.82,-0.49C11.82,-0.303 11.769,-0.163 11.666,-0.07C11.564,0.023 11.428,0.07 11.26,0.07C11.092,0.07 10.955,0.021 10.847,-0.077ZM10.714,-8.624C10.574,-8.755 10.504,-8.927 10.504,-9.142C10.504,-9.347 10.574,-9.515 10.714,-9.646C10.854,-9.777 11.036,-9.842 11.26,-9.842C11.484,-9.842 11.666,-9.777 11.806,-9.646C11.946,-9.515 12.016,-9.347 12.016,-9.142C12.016,-8.927 11.946,-8.755 11.806,-8.624C11.666,-8.493 11.484,-8.428 11.26,-8.428C11.036,-8.428 10.854,-8.493 10.714,-8.624Z" style="fill-rule:nonzero;"/>
                <path d="M14.968,-0.056C14.58,-0.159 14.237,-0.303 13.939,-0.49C13.771,-0.602 13.652,-0.707 13.582,-0.805C13.512,-0.903 13.477,-1.022 13.477,-1.162C13.477,-1.283 13.512,-1.384 13.582,-1.463C13.652,-1.542 13.743,-1.582 13.855,-1.582C13.967,-1.582 14.13,-1.512 14.345,-1.372C14.625,-1.204 14.902,-1.071 15.178,-0.973C15.453,-0.875 15.796,-0.826 16.207,-0.826C16.711,-0.826 17.103,-0.915 17.383,-1.092C17.663,-1.269 17.803,-1.526 17.803,-1.862C17.803,-2.067 17.751,-2.233 17.649,-2.359C17.546,-2.485 17.369,-2.597 17.117,-2.695C16.865,-2.793 16.496,-2.893 16.011,-2.996C15.189,-3.173 14.601,-3.411 14.247,-3.71C13.892,-4.009 13.715,-4.415 13.715,-4.928C13.715,-5.329 13.827,-5.684 14.051,-5.992C14.275,-6.3 14.585,-6.543 14.982,-6.72C15.378,-6.897 15.829,-6.986 16.333,-6.986C16.697,-6.986 17.049,-6.937 17.39,-6.839C17.73,-6.741 18.031,-6.603 18.293,-6.426C18.61,-6.202 18.769,-5.969 18.769,-5.726C18.769,-5.605 18.731,-5.502 18.657,-5.418C18.582,-5.334 18.493,-5.292 18.391,-5.292C18.279,-5.292 18.111,-5.371 17.887,-5.53C17.625,-5.698 17.378,-5.829 17.145,-5.922C16.911,-6.015 16.622,-6.062 16.277,-6.062C15.838,-6.062 15.486,-5.964 15.22,-5.768C14.954,-5.572 14.821,-5.311 14.821,-4.984C14.821,-4.779 14.87,-4.613 14.968,-4.487C15.066,-4.361 15.229,-4.249 15.458,-4.151C15.686,-4.053 16.015,-3.957 16.445,-3.864C17.079,-3.724 17.572,-3.57 17.922,-3.402C18.272,-3.234 18.521,-3.029 18.671,-2.786C18.82,-2.543 18.895,-2.235 18.895,-1.862C18.895,-1.274 18.647,-0.8 18.153,-0.441C17.658,-0.082 17.005,0.098 16.193,0.098C15.763,0.098 15.355,0.047 14.968,-0.056Z" style="fill-rule:nonzero;"/>
                <path d="M26.172,-6.804C26.27,-6.701 26.319,-6.566 26.319,-6.398L26.319,-0.476C26.319,-0.317 26.27,-0.187 26.172,-0.084C26.074,0.019 25.936,0.07 25.759,0.07C25.591,0.07 25.458,0.021 25.36,-0.077C25.262,-0.175 25.213,-0.303 25.213,-0.462L25.213,-1.162C24.998,-0.751 24.697,-0.439 24.31,-0.224C23.922,-0.009 23.486,0.098 23.001,0.098C22.189,0.098 21.577,-0.128 21.167,-0.581C20.756,-1.034 20.551,-1.703 20.551,-2.59L20.551,-6.398C20.551,-6.566 20.602,-6.701 20.705,-6.804C20.807,-6.907 20.947,-6.958 21.125,-6.958C21.302,-6.958 21.44,-6.907 21.538,-6.804C21.636,-6.701 21.685,-6.566 21.685,-6.398L21.685,-2.618C21.685,-2.011 21.806,-1.566 22.049,-1.281C22.291,-0.996 22.674,-0.854 23.197,-0.854C23.794,-0.854 24.275,-1.048 24.639,-1.435C25.003,-1.822 25.185,-2.333 25.185,-2.968L25.185,-6.398C25.185,-6.566 25.236,-6.701 25.339,-6.804C25.441,-6.907 25.581,-6.958 25.759,-6.958C25.936,-6.958 26.074,-6.907 26.172,-6.804Z" style="fill-rule:nonzero;"/>
                <path d="M33.743,-4.298L33.743,-0.49C33.743,-0.322 33.694,-0.187 33.596,-0.084C33.498,0.019 33.365,0.07 33.197,0.07C33.029,0.07 32.894,0.019 32.791,-0.084C32.688,-0.187 32.637,-0.322 32.637,-0.49L32.637,-1.162C32.46,-0.761 32.189,-0.45 31.825,-0.231C31.461,-0.012 31.041,0.098 30.565,0.098C30.126,0.098 29.723,0.009 29.354,-0.168C28.985,-0.345 28.694,-0.593 28.479,-0.91C28.264,-1.227 28.157,-1.577 28.157,-1.96C28.157,-2.473 28.288,-2.872 28.549,-3.157C28.81,-3.442 29.24,-3.647 29.837,-3.773C30.434,-3.899 31.265,-3.962 32.329,-3.962L32.637,-3.962L32.637,-4.424C32.637,-4.984 32.523,-5.395 32.294,-5.656C32.065,-5.917 31.694,-6.048 31.181,-6.048C30.546,-6.048 29.902,-5.875 29.249,-5.53C28.997,-5.371 28.82,-5.292 28.717,-5.292C28.605,-5.292 28.512,-5.334 28.437,-5.418C28.362,-5.502 28.325,-5.609 28.325,-5.74C28.325,-5.871 28.365,-5.985 28.444,-6.083C28.523,-6.181 28.652,-6.281 28.829,-6.384C29.156,-6.571 29.527,-6.718 29.942,-6.825C30.357,-6.932 30.77,-6.986 31.181,-6.986C32.889,-6.986 33.743,-6.09 33.743,-4.298ZM32.098,-1.365C32.457,-1.743 32.637,-2.231 32.637,-2.828L32.637,-3.234L32.385,-3.234C31.564,-3.234 30.938,-3.199 30.509,-3.129C30.08,-3.059 29.774,-2.942 29.592,-2.779C29.41,-2.616 29.319,-2.375 29.319,-2.058C29.319,-1.694 29.452,-1.393 29.718,-1.155C29.984,-0.917 30.318,-0.798 30.719,-0.798C31.279,-0.798 31.739,-0.987 32.098,-1.365Z" style="fill-rule:nonzero;"/>
                <path d="M35.938,-0.077C35.831,-0.175 35.777,-0.313 35.777,-0.49L35.777,-9.38C35.777,-9.557 35.831,-9.695 35.938,-9.793C36.046,-9.891 36.183,-9.94 36.351,-9.94C36.51,-9.94 36.643,-9.891 36.75,-9.793C36.858,-9.695 36.911,-9.557 36.911,-9.38L36.911,-0.49C36.911,-0.313 36.858,-0.175 36.75,-0.077C36.643,0.021 36.51,0.07 36.351,0.07C36.183,0.07 36.046,0.021 35.938,-0.077Z" style="fill-rule:nonzero;"/>
                <path d="M39.149,-0.077C39.041,-0.175 38.988,-0.313 38.988,-0.49L38.988,-6.398C38.988,-6.575 39.041,-6.713 39.149,-6.811C39.256,-6.909 39.394,-6.958 39.562,-6.958C39.73,-6.958 39.865,-6.909 39.968,-6.811C40.07,-6.713 40.122,-6.575 40.122,-6.398L40.122,-0.49C40.122,-0.303 40.07,-0.163 39.968,-0.07C39.865,0.023 39.73,0.07 39.562,0.07C39.394,0.07 39.256,0.021 39.149,-0.077ZM39.016,-8.624C38.876,-8.755 38.806,-8.927 38.806,-9.142C38.806,-9.347 38.876,-9.515 39.016,-9.646C39.156,-9.777 39.338,-9.842 39.562,-9.842C39.786,-9.842 39.968,-9.777 40.108,-9.646C40.248,-9.515 40.318,-9.347 40.318,-9.142C40.318,-8.927 40.248,-8.755 40.108,-8.624C39.968,-8.493 39.786,-8.428 39.562,-8.428C39.338,-8.428 39.156,-8.493 39.016,-8.624Z" style="fill-rule:nonzero;"/>
                <path d="M47.574,-0.777C47.658,-0.698 47.7,-0.588 47.7,-0.448C47.7,-0.308 47.658,-0.198 47.574,-0.119C47.49,-0.04 47.369,0 47.21,0L42.31,0C42.151,0 42.021,-0.049 41.918,-0.147C41.815,-0.245 41.764,-0.364 41.764,-0.504C41.764,-0.653 41.82,-0.798 41.932,-0.938L46.076,-5.922L42.24,-5.922C42.081,-5.922 41.958,-5.962 41.869,-6.041C41.78,-6.12 41.736,-6.225 41.736,-6.356C41.736,-6.496 41.78,-6.608 41.869,-6.692C41.958,-6.776 42.081,-6.818 42.24,-6.818L46.986,-6.818C47.154,-6.818 47.289,-6.769 47.392,-6.671C47.495,-6.573 47.546,-6.454 47.546,-6.314C47.546,-6.165 47.49,-6.02 47.378,-5.88L43.22,-0.896L47.21,-0.896C47.369,-0.896 47.49,-0.856 47.574,-0.777Z" style="fill-rule:nonzero;"/>
                <path d="M54.48,-4.298L54.48,-0.49C54.48,-0.322 54.431,-0.187 54.333,-0.084C54.235,0.019 54.102,0.07 53.934,0.07C53.766,0.07 53.631,0.019 53.528,-0.084C53.425,-0.187 53.374,-0.322 53.374,-0.49L53.374,-1.162C53.197,-0.761 52.926,-0.45 52.562,-0.231C52.198,-0.012 51.778,0.098 51.302,0.098C50.863,0.098 50.46,0.009 50.091,-0.168C49.722,-0.345 49.431,-0.593 49.216,-0.91C49.001,-1.227 48.894,-1.577 48.894,-1.96C48.894,-2.473 49.025,-2.872 49.286,-3.157C49.547,-3.442 49.977,-3.647 50.574,-3.773C51.171,-3.899 52.002,-3.962 53.066,-3.962L53.374,-3.962L53.374,-4.424C53.374,-4.984 53.26,-5.395 53.031,-5.656C52.802,-5.917 52.431,-6.048 51.918,-6.048C51.283,-6.048 50.639,-5.875 49.986,-5.53C49.734,-5.371 49.557,-5.292 49.454,-5.292C49.342,-5.292 49.249,-5.334 49.174,-5.418C49.099,-5.502 49.062,-5.609 49.062,-5.74C49.062,-5.871 49.102,-5.985 49.181,-6.083C49.26,-6.181 49.389,-6.281 49.566,-6.384C49.893,-6.571 50.264,-6.718 50.679,-6.825C51.094,-6.932 51.507,-6.986 51.918,-6.986C53.626,-6.986 54.48,-6.09 54.48,-4.298ZM52.835,-1.365C53.194,-1.743 53.374,-2.231 53.374,-2.828L53.374,-3.234L53.122,-3.234C52.301,-3.234 51.675,-3.199 51.246,-3.129C50.817,-3.059 50.511,-2.942 50.329,-2.779C50.147,-2.616 50.056,-2.375 50.056,-2.058C50.056,-1.694 50.189,-1.393 50.455,-1.155C50.721,-0.917 51.055,-0.798 51.456,-0.798C52.016,-0.798 52.476,-0.987 52.835,-1.365Z" style="fill-rule:nonzero;"/>
                <path d="M60.154,-0.378C60.154,-0.219 60.096,-0.1 59.979,-0.021C59.863,0.058 59.688,0.089 59.454,0.07L59.076,0.042C58.33,-0.014 57.779,-0.238 57.424,-0.63C57.07,-1.022 56.892,-1.615 56.892,-2.408L56.892,-5.922L55.954,-5.922C55.796,-5.922 55.672,-5.962 55.583,-6.041C55.495,-6.12 55.45,-6.225 55.45,-6.356C55.45,-6.496 55.495,-6.608 55.583,-6.692C55.672,-6.776 55.796,-6.818 55.954,-6.818L56.892,-6.818L56.892,-8.4C56.892,-8.577 56.944,-8.715 57.046,-8.813C57.149,-8.911 57.289,-8.96 57.466,-8.96C57.634,-8.96 57.77,-8.911 57.872,-8.813C57.975,-8.715 58.026,-8.577 58.026,-8.4L58.026,-6.818L59.58,-6.818C59.73,-6.818 59.849,-6.776 59.937,-6.692C60.026,-6.608 60.07,-6.496 60.07,-6.356C60.07,-6.225 60.026,-6.12 59.937,-6.041C59.849,-5.962 59.73,-5.922 59.58,-5.922L58.026,-5.922L58.026,-2.352C58.026,-1.839 58.131,-1.468 58.341,-1.239C58.551,-1.01 58.866,-0.882 59.286,-0.854L59.664,-0.826C59.991,-0.798 60.154,-0.649 60.154,-0.378Z" style="fill-rule:nonzero;"/>
                <path d="M61.398,-0.077C61.29,-0.175 61.237,-0.313 61.237,-0.49L61.237,-6.398C61.237,-6.575 61.29,-6.713 61.398,-6.811C61.505,-6.909 61.643,-6.958 61.811,-6.958C61.979,-6.958 62.114,-6.909 62.217,-6.811C62.319,-6.713 62.371,-6.575 62.371,-6.398L62.371,-0.49C62.371,-0.303 62.319,-0.163 62.217,-0.07C62.114,0.023 61.979,0.07 61.811,0.07C61.643,0.07 61.505,0.021 61.398,-0.077ZM61.265,-8.624C61.125,-8.755 61.055,-8.927 61.055,-9.142C61.055,-9.347 61.125,-9.515 61.265,-9.646C61.405,-9.777 61.587,-9.842 61.811,-9.842C62.035,-9.842 62.217,-9.777 62.357,-9.646C62.497,-9.515 62.567,-9.347 62.567,-9.142C62.567,-8.927 62.497,-8.755 62.357,-8.624C62.217,-8.493 62.035,-8.428 61.811,-8.428C61.587,-8.428 61.405,-8.493 61.265,-8.624Z" style="fill-rule:nonzero;"/>
                <path d="M65.574,-0.336C65.084,-0.625 64.706,-1.038 64.44,-1.575C64.174,-2.112 64.041,-2.735 64.041,-3.444C64.041,-4.153 64.174,-4.776 64.44,-5.313C64.706,-5.85 65.084,-6.263 65.574,-6.552C66.064,-6.841 66.631,-6.986 67.275,-6.986C67.919,-6.986 68.488,-6.841 68.983,-6.552C69.478,-6.263 69.858,-5.85 70.124,-5.313C70.39,-4.776 70.523,-4.153 70.523,-3.444C70.523,-2.735 70.39,-2.112 70.124,-1.575C69.858,-1.038 69.478,-0.625 68.983,-0.336C68.488,-0.047 67.919,0.098 67.275,0.098C66.631,0.098 66.064,-0.047 65.574,-0.336ZM68.822,-1.505C69.181,-1.948 69.361,-2.595 69.361,-3.444C69.361,-4.275 69.179,-4.916 68.815,-5.369C68.451,-5.822 67.938,-6.048 67.275,-6.048C66.612,-6.048 66.099,-5.822 65.735,-5.369C65.371,-4.916 65.189,-4.275 65.189,-3.444C65.189,-2.604 65.369,-1.96 65.728,-1.512C66.087,-1.064 66.603,-0.84 67.275,-0.84C67.947,-0.84 68.463,-1.062 68.822,-1.505Z" style="fill-rule:nonzero;"/>
                <path d="M78.059,-4.284L78.059,-0.49C78.059,-0.313 78.01,-0.175 77.912,-0.077C77.814,0.021 77.677,0.07 77.499,0.07C77.322,0.07 77.182,0.021 77.079,-0.077C76.977,-0.175 76.925,-0.313 76.925,-0.49L76.925,-4.214C76.925,-4.849 76.802,-5.311 76.554,-5.6C76.307,-5.889 75.913,-6.034 75.371,-6.034C74.746,-6.034 74.247,-5.843 73.873,-5.46C73.5,-5.077 73.313,-4.559 73.313,-3.906L73.313,-0.49C73.313,-0.313 73.264,-0.175 73.166,-0.077C73.068,0.021 72.931,0.07 72.753,0.07C72.576,0.07 72.436,0.021 72.333,-0.077C72.231,-0.175 72.179,-0.313 72.179,-0.49L72.179,-6.398C72.179,-6.566 72.231,-6.701 72.333,-6.804C72.436,-6.907 72.576,-6.958 72.753,-6.958C72.921,-6.958 73.054,-6.907 73.152,-6.804C73.25,-6.701 73.299,-6.571 73.299,-6.412L73.299,-5.698C73.523,-6.118 73.836,-6.438 74.237,-6.657C74.639,-6.876 75.096,-6.986 75.609,-6.986C77.243,-6.986 78.059,-6.085 78.059,-4.284Z" style="fill-rule:nonzero;"/>
                <path d="M84.739,-0.056C84.351,-0.159 84.008,-0.303 83.71,-0.49C83.542,-0.602 83.423,-0.707 83.353,-0.805C83.283,-0.903 83.248,-1.022 83.248,-1.162C83.248,-1.283 83.283,-1.384 83.353,-1.463C83.423,-1.542 83.514,-1.582 83.626,-1.582C83.738,-1.582 83.901,-1.512 84.116,-1.372C84.396,-1.204 84.673,-1.071 84.949,-0.973C85.224,-0.875 85.567,-0.826 85.978,-0.826C86.482,-0.826 86.874,-0.915 87.154,-1.092C87.434,-1.269 87.574,-1.526 87.574,-1.862C87.574,-2.067 87.522,-2.233 87.42,-2.359C87.317,-2.485 87.14,-2.597 86.888,-2.695C86.636,-2.793 86.267,-2.893 85.782,-2.996C84.96,-3.173 84.372,-3.411 84.018,-3.71C83.663,-4.009 83.486,-4.415 83.486,-4.928C83.486,-5.329 83.598,-5.684 83.822,-5.992C84.046,-6.3 84.356,-6.543 84.753,-6.72C85.149,-6.897 85.6,-6.986 86.104,-6.986C86.468,-6.986 86.82,-6.937 87.161,-6.839C87.501,-6.741 87.802,-6.603 88.064,-6.426C88.381,-6.202 88.54,-5.969 88.54,-5.726C88.54,-5.605 88.502,-5.502 88.428,-5.418C88.353,-5.334 88.264,-5.292 88.162,-5.292C88.05,-5.292 87.882,-5.371 87.658,-5.53C87.396,-5.698 87.149,-5.829 86.916,-5.922C86.682,-6.015 86.393,-6.062 86.048,-6.062C85.609,-6.062 85.257,-5.964 84.991,-5.768C84.725,-5.572 84.592,-5.311 84.592,-4.984C84.592,-4.779 84.641,-4.613 84.739,-4.487C84.837,-4.361 85,-4.249 85.229,-4.151C85.457,-4.053 85.786,-3.957 86.216,-3.864C86.85,-3.724 87.343,-3.57 87.693,-3.402C88.043,-3.234 88.292,-3.029 88.442,-2.786C88.591,-2.543 88.666,-2.235 88.666,-1.862C88.666,-1.274 88.418,-0.8 87.924,-0.441C87.429,-0.082 86.776,0.098 85.964,0.098C85.534,0.098 85.126,0.047 84.739,-0.056Z" style="fill-rule:nonzero;"/>
                <path d="M95.614,-6.307C96.025,-5.854 96.23,-5.18 96.23,-4.284L96.23,-0.49C96.23,-0.313 96.179,-0.175 96.076,-0.077C95.973,0.021 95.838,0.07 95.67,0.07C95.493,0.07 95.353,0.021 95.25,-0.077C95.147,-0.175 95.096,-0.313 95.096,-0.49L95.096,-4.256C95.096,-4.863 94.972,-5.311 94.725,-5.6C94.478,-5.889 94.083,-6.034 93.542,-6.034C92.917,-6.034 92.417,-5.843 92.044,-5.46C91.671,-5.077 91.484,-4.559 91.484,-3.906L91.484,-0.49C91.484,-0.313 91.435,-0.175 91.337,-0.077C91.239,0.021 91.101,0.07 90.924,0.07C90.747,0.07 90.607,0.021 90.504,-0.077C90.401,-0.175 90.35,-0.313 90.35,-0.49L90.35,-9.394C90.35,-9.553 90.404,-9.683 90.511,-9.786C90.618,-9.889 90.756,-9.94 90.924,-9.94C91.101,-9.94 91.239,-9.891 91.337,-9.793C91.435,-9.695 91.484,-9.562 91.484,-9.394L91.484,-5.726C91.708,-6.137 92.021,-6.449 92.422,-6.664C92.823,-6.879 93.281,-6.986 93.794,-6.986C94.597,-6.986 95.203,-6.76 95.614,-6.307Z" style="fill-rule:nonzero;"/>
                <path d="M99.391,-0.336C98.901,-0.625 98.523,-1.038 98.257,-1.575C97.991,-2.112 97.858,-2.735 97.858,-3.444C97.858,-4.153 97.991,-4.776 98.257,-5.313C98.523,-5.85 98.901,-6.263 99.391,-6.552C99.881,-6.841 100.448,-6.986 101.092,-6.986C101.736,-6.986 102.306,-6.841 102.8,-6.552C103.295,-6.263 103.675,-5.85 103.941,-5.313C104.207,-4.776 104.34,-4.153 104.34,-3.444C104.34,-2.735 104.207,-2.112 103.941,-1.575C103.675,-1.038 103.295,-0.625 102.8,-0.336C102.306,-0.047 101.736,0.098 101.092,0.098C100.448,0.098 99.881,-0.047 99.391,-0.336ZM102.639,-1.505C102.999,-1.948 103.178,-2.595 103.178,-3.444C103.178,-4.275 102.996,-4.916 102.632,-5.369C102.268,-5.822 101.755,-6.048 101.092,-6.048C100.43,-6.048 99.916,-5.822 99.552,-5.369C99.188,-4.916 99.006,-4.275 99.006,-3.444C99.006,-2.604 99.186,-1.96 99.545,-1.512C99.905,-1.064 100.42,-0.84 101.092,-0.84C101.764,-0.84 102.28,-1.062 102.639,-1.505Z" style="fill-rule:nonzero;"/>
                <path d="M115.699,-6.93C115.839,-6.93 115.965,-6.883 116.077,-6.79C116.189,-6.697 116.245,-6.58 116.245,-6.44C116.245,-6.375 116.231,-6.305 116.203,-6.23L113.879,-0.35C113.823,-0.229 113.741,-0.133 113.634,-0.063C113.526,0.007 113.407,0.042 113.277,0.042C113.155,0.042 113.041,0.007 112.934,-0.063C112.826,-0.133 112.745,-0.229 112.689,-0.35L110.757,-5.264L108.839,-0.35C108.792,-0.229 108.713,-0.133 108.601,-0.063C108.489,0.007 108.367,0.042 108.237,0.042C108.115,0.042 107.999,0.007 107.887,-0.063C107.775,-0.133 107.691,-0.229 107.635,-0.35L105.311,-6.216C105.283,-6.291 105.269,-6.356 105.269,-6.412C105.269,-6.561 105.332,-6.687 105.458,-6.79C105.584,-6.893 105.721,-6.944 105.871,-6.944C106.095,-6.944 106.253,-6.832 106.347,-6.608L108.265,-1.442L110.239,-6.566C110.295,-6.687 110.372,-6.781 110.47,-6.846C110.568,-6.911 110.673,-6.944 110.785,-6.944C110.906,-6.944 111.016,-6.911 111.114,-6.846C111.212,-6.781 111.284,-6.687 111.331,-6.566L113.305,-1.456L115.237,-6.594C115.33,-6.818 115.484,-6.93 115.699,-6.93Z" style="fill-rule:nonzero;"/>
                <path d="M118.608,-0.056C118.221,-0.159 117.878,-0.303 117.579,-0.49C117.411,-0.602 117.292,-0.707 117.222,-0.805C117.152,-0.903 117.117,-1.022 117.117,-1.162C117.117,-1.283 117.152,-1.384 117.222,-1.463C117.292,-1.542 117.383,-1.582 117.495,-1.582C117.607,-1.582 117.77,-1.512 117.985,-1.372C118.265,-1.204 118.543,-1.071 118.818,-0.973C119.093,-0.875 119.436,-0.826 119.847,-0.826C120.351,-0.826 120.743,-0.915 121.023,-1.092C121.303,-1.269 121.443,-1.526 121.443,-1.862C121.443,-2.067 121.392,-2.233 121.289,-2.359C121.186,-2.485 121.009,-2.597 120.757,-2.695C120.505,-2.793 120.136,-2.893 119.651,-2.996C118.83,-3.173 118.242,-3.411 117.887,-3.71C117.532,-4.009 117.355,-4.415 117.355,-4.928C117.355,-5.329 117.467,-5.684 117.691,-5.992C117.915,-6.3 118.225,-6.543 118.622,-6.72C119.019,-6.897 119.469,-6.986 119.973,-6.986C120.337,-6.986 120.689,-6.937 121.03,-6.839C121.371,-6.741 121.672,-6.603 121.933,-6.426C122.25,-6.202 122.409,-5.969 122.409,-5.726C122.409,-5.605 122.372,-5.502 122.297,-5.418C122.222,-5.334 122.134,-5.292 122.031,-5.292C121.919,-5.292 121.751,-5.371 121.527,-5.53C121.266,-5.698 121.018,-5.829 120.785,-5.922C120.552,-6.015 120.262,-6.062 119.917,-6.062C119.478,-6.062 119.126,-5.964 118.86,-5.768C118.594,-5.572 118.461,-5.311 118.461,-4.984C118.461,-4.779 118.51,-4.613 118.608,-4.487C118.706,-4.361 118.869,-4.249 119.098,-4.151C119.327,-4.053 119.656,-3.957 120.085,-3.864C120.72,-3.724 121.212,-3.57 121.562,-3.402C121.912,-3.234 122.162,-3.029 122.311,-2.786C122.46,-2.543 122.535,-2.235 122.535,-1.862C122.535,-1.274 122.288,-0.8 121.793,-0.441C121.298,-0.082 120.645,0.098 119.833,0.098C119.404,0.098 118.995,0.047 118.608,-0.056Z" style="fill-rule:nonzero;"/>
                <path d="M131.433,-0.378C131.433,-0.219 131.375,-0.1 131.258,-0.021C131.142,0.058 130.967,0.089 130.733,0.07L130.355,0.042C129.609,-0.014 129.058,-0.238 128.703,-0.63C128.349,-1.022 128.171,-1.615 128.171,-2.408L128.171,-5.922L127.233,-5.922C127.075,-5.922 126.951,-5.962 126.862,-6.041C126.774,-6.12 126.729,-6.225 126.729,-6.356C126.729,-6.496 126.774,-6.608 126.862,-6.692C126.951,-6.776 127.075,-6.818 127.233,-6.818L128.171,-6.818L128.171,-8.4C128.171,-8.577 128.223,-8.715 128.325,-8.813C128.428,-8.911 128.568,-8.96 128.745,-8.96C128.913,-8.96 129.049,-8.911 129.151,-8.813C129.254,-8.715 129.305,-8.577 129.305,-8.4L129.305,-6.818L130.859,-6.818C131.009,-6.818 131.128,-6.776 131.216,-6.692C131.305,-6.608 131.349,-6.496 131.349,-6.356C131.349,-6.225 131.305,-6.12 131.216,-6.041C131.128,-5.962 131.009,-5.922 130.859,-5.922L129.305,-5.922L129.305,-2.352C129.305,-1.839 129.41,-1.468 129.62,-1.239C129.83,-1.01 130.145,-0.882 130.565,-0.854L130.943,-0.826C131.27,-0.798 131.433,-0.649 131.433,-0.378Z" style="fill-rule:nonzero;"/>
                <path d="M137.78,-6.307C138.19,-5.854 138.396,-5.18 138.396,-4.284L138.396,-0.49C138.396,-0.313 138.344,-0.175 138.242,-0.077C138.139,0.021 138.004,0.07 137.836,0.07C137.658,0.07 137.518,0.021 137.416,-0.077C137.313,-0.175 137.262,-0.313 137.262,-0.49L137.262,-4.256C137.262,-4.863 137.138,-5.311 136.891,-5.6C136.643,-5.889 136.249,-6.034 135.708,-6.034C135.082,-6.034 134.583,-5.843 134.21,-5.46C133.836,-5.077 133.65,-4.559 133.65,-3.906L133.65,-0.49C133.65,-0.313 133.601,-0.175 133.503,-0.077C133.405,0.021 133.267,0.07 133.09,0.07C132.912,0.07 132.772,0.021 132.67,-0.077C132.567,-0.175 132.516,-0.313 132.516,-0.49L132.516,-9.394C132.516,-9.553 132.569,-9.683 132.677,-9.786C132.784,-9.889 132.922,-9.94 133.09,-9.94C133.267,-9.94 133.405,-9.891 133.503,-9.793C133.601,-9.695 133.65,-9.562 133.65,-9.394L133.65,-5.726C133.874,-6.137 134.186,-6.449 134.588,-6.664C134.989,-6.879 135.446,-6.986 135.96,-6.986C136.762,-6.986 137.369,-6.76 137.78,-6.307Z" style="fill-rule:nonzero;"/>
                <path d="M145.974,-1.456C146.049,-1.372 146.086,-1.265 146.086,-1.134C146.086,-0.901 145.923,-0.686 145.596,-0.49C145.26,-0.294 144.905,-0.147 144.532,-0.049C144.159,0.049 143.795,0.098 143.44,0.098C142.385,0.098 141.552,-0.215 140.941,-0.84C140.33,-1.465 140.024,-2.329 140.024,-3.43C140.024,-4.13 140.159,-4.748 140.43,-5.285C140.701,-5.822 141.081,-6.239 141.571,-6.538C142.061,-6.837 142.619,-6.986 143.244,-6.986C144.131,-6.986 144.835,-6.697 145.358,-6.118C145.881,-5.539 146.142,-4.755 146.142,-3.766C146.142,-3.579 146.105,-3.444 146.03,-3.36C145.955,-3.276 145.834,-3.234 145.666,-3.234L141.158,-3.234C141.242,-1.629 142.003,-0.826 143.44,-0.826C143.804,-0.826 144.117,-0.875 144.378,-0.973C144.639,-1.071 144.919,-1.204 145.218,-1.372C145.461,-1.512 145.624,-1.582 145.708,-1.582C145.811,-1.582 145.899,-1.54 145.974,-1.456ZM141.823,-5.544C141.464,-5.171 141.251,-4.643 141.186,-3.962L145.148,-3.962C145.129,-4.653 144.957,-5.182 144.63,-5.551C144.303,-5.92 143.846,-6.104 143.258,-6.104C142.661,-6.104 142.182,-5.917 141.823,-5.544Z" style="fill-rule:nonzero;"/>
                <path d="M156.356,-6.538C156.814,-6.239 157.168,-5.822 157.42,-5.285C157.672,-4.748 157.798,-4.125 157.798,-3.416C157.798,-2.707 157.672,-2.088 157.42,-1.561C157.168,-1.034 156.816,-0.625 156.363,-0.336C155.911,-0.047 155.381,0.098 154.774,0.098C154.242,0.098 153.778,-0.019 153.381,-0.252C152.985,-0.485 152.684,-0.817 152.478,-1.246L152.478,2.044C152.478,2.212 152.429,2.345 152.331,2.443C152.233,2.541 152.096,2.59 151.918,2.59C151.741,2.59 151.601,2.539 151.498,2.436C151.396,2.333 151.344,2.203 151.344,2.044L151.344,-6.398C151.344,-6.566 151.396,-6.701 151.498,-6.804C151.601,-6.907 151.741,-6.958 151.918,-6.958C152.096,-6.958 152.233,-6.907 152.331,-6.804C152.429,-6.701 152.478,-6.566 152.478,-6.398L152.478,-5.642C152.684,-6.071 152.985,-6.403 153.381,-6.636C153.778,-6.869 154.242,-6.986 154.774,-6.986C155.372,-6.986 155.899,-6.837 156.356,-6.538ZM156.09,-1.512C156.454,-1.96 156.636,-2.595 156.636,-3.416C156.636,-4.237 156.454,-4.879 156.09,-5.341C155.726,-5.803 155.213,-6.034 154.55,-6.034C153.888,-6.034 153.377,-5.81 153.017,-5.362C152.658,-4.914 152.478,-4.275 152.478,-3.444C152.478,-2.613 152.658,-1.972 153.017,-1.519C153.377,-1.066 153.888,-0.84 154.55,-0.84C155.213,-0.84 155.726,-1.064 156.09,-1.512Z" style="fill-rule:nonzero;"/>
                <path d="M164.999,-1.456C165.073,-1.372 165.111,-1.265 165.111,-1.134C165.111,-0.901 164.947,-0.686 164.621,-0.49C164.285,-0.294 163.93,-0.147 163.557,-0.049C163.183,0.049 162.819,0.098 162.465,0.098C161.41,0.098 160.577,-0.215 159.966,-0.84C159.354,-1.465 159.049,-2.329 159.049,-3.43C159.049,-4.13 159.184,-4.748 159.455,-5.285C159.725,-5.822 160.106,-6.239 160.596,-6.538C161.086,-6.837 161.643,-6.986 162.269,-6.986C163.155,-6.986 163.86,-6.697 164.383,-6.118C164.905,-5.539 165.167,-4.755 165.167,-3.766C165.167,-3.579 165.129,-3.444 165.055,-3.36C164.98,-3.276 164.859,-3.234 164.691,-3.234L160.183,-3.234C160.267,-1.629 161.027,-0.826 162.465,-0.826C162.829,-0.826 163.141,-0.875 163.403,-0.973C163.664,-1.071 163.944,-1.204 164.243,-1.372C164.485,-1.512 164.649,-1.582 164.733,-1.582C164.835,-1.582 164.924,-1.54 164.999,-1.456ZM160.848,-5.544C160.488,-5.171 160.276,-4.643 160.211,-3.962L164.173,-3.962C164.154,-4.653 163.981,-5.182 163.655,-5.551C163.328,-5.92 162.871,-6.104 162.283,-6.104C161.685,-6.104 161.207,-5.917 160.848,-5.544Z" style="fill-rule:nonzero;"/>
                <path d="M170.757,-6.482C170.757,-6.333 170.715,-6.214 170.631,-6.125C170.547,-6.036 170.402,-5.983 170.197,-5.964L169.777,-5.922C169.152,-5.866 168.687,-5.644 168.384,-5.257C168.081,-4.87 167.929,-4.415 167.929,-3.892L167.929,-0.49C167.929,-0.303 167.878,-0.163 167.775,-0.07C167.672,0.023 167.537,0.07 167.369,0.07C167.201,0.07 167.063,0.021 166.956,-0.077C166.849,-0.175 166.795,-0.313 166.795,-0.49L166.795,-6.398C166.795,-6.575 166.851,-6.713 166.963,-6.811C167.075,-6.909 167.21,-6.958 167.369,-6.958C167.518,-6.958 167.644,-6.909 167.747,-6.811C167.85,-6.713 167.901,-6.58 167.901,-6.412L167.901,-5.628C168.097,-6.039 168.375,-6.351 168.734,-6.566C169.093,-6.781 169.506,-6.907 169.973,-6.944L170.169,-6.958C170.561,-6.986 170.757,-6.827 170.757,-6.482Z" style="fill-rule:nonzero;"/>
                <path d="M174.135,-8.505C173.883,-8.23 173.757,-7.817 173.757,-7.266L173.757,-6.818L175.311,-6.818C175.47,-6.818 175.591,-6.776 175.675,-6.692C175.759,-6.608 175.801,-6.496 175.801,-6.356C175.801,-6.216 175.759,-6.109 175.675,-6.034C175.591,-5.959 175.47,-5.922 175.311,-5.922L173.757,-5.922L173.757,-0.49C173.757,-0.313 173.704,-0.175 173.596,-0.077C173.489,0.021 173.356,0.07 173.197,0.07C173.029,0.07 172.892,0.021 172.784,-0.077C172.677,-0.175 172.623,-0.313 172.623,-0.49L172.623,-5.922L171.685,-5.922C171.527,-5.922 171.403,-5.962 171.314,-6.041C171.226,-6.12 171.181,-6.225 171.181,-6.356C171.181,-6.496 171.226,-6.608 171.314,-6.692C171.403,-6.776 171.527,-6.818 171.685,-6.818L172.623,-6.818L172.623,-7.07C172.623,-7.91 172.833,-8.57 173.253,-9.051C173.673,-9.532 174.275,-9.8 175.059,-9.856L175.423,-9.884C175.666,-9.903 175.841,-9.879 175.948,-9.814C176.056,-9.749 176.109,-9.632 176.109,-9.464C176.109,-9.193 175.946,-9.039 175.619,-9.002L175.255,-8.974C174.761,-8.937 174.387,-8.78 174.135,-8.505Z" style="fill-rule:nonzero;"/>
                <path d="M177.857,-0.336C177.367,-0.625 176.989,-1.038 176.723,-1.575C176.457,-2.112 176.324,-2.735 176.324,-3.444C176.324,-4.153 176.457,-4.776 176.723,-5.313C176.989,-5.85 177.367,-6.263 177.857,-6.552C178.347,-6.841 178.914,-6.986 179.558,-6.986C180.202,-6.986 180.771,-6.841 181.266,-6.552C181.76,-6.263 182.141,-5.85 182.407,-5.313C182.673,-4.776 182.806,-4.153 182.806,-3.444C182.806,-2.735 182.673,-2.112 182.407,-1.575C182.141,-1.038 181.76,-0.625 181.266,-0.336C180.771,-0.047 180.202,0.098 179.558,0.098C178.914,0.098 178.347,-0.047 177.857,-0.336ZM181.105,-1.505C181.464,-1.948 181.644,-2.595 181.644,-3.444C181.644,-4.275 181.462,-4.916 181.098,-5.369C180.734,-5.822 180.22,-6.048 179.558,-6.048C178.895,-6.048 178.382,-5.822 178.018,-5.369C177.654,-4.916 177.472,-4.275 177.472,-3.444C177.472,-2.604 177.651,-1.96 178.011,-1.512C178.37,-1.064 178.886,-0.84 179.558,-0.84C180.23,-0.84 180.745,-1.062 181.105,-1.505Z" style="fill-rule:nonzero;"/>
                <path d="M188.424,-6.482C188.424,-6.333 188.382,-6.214 188.298,-6.125C188.214,-6.036 188.069,-5.983 187.864,-5.964L187.444,-5.922C186.818,-5.866 186.354,-5.644 186.051,-5.257C185.747,-4.87 185.596,-4.415 185.596,-3.892L185.596,-0.49C185.596,-0.303 185.544,-0.163 185.442,-0.07C185.339,0.023 185.204,0.07 185.036,0.07C184.868,0.07 184.73,0.021 184.623,-0.077C184.515,-0.175 184.462,-0.313 184.462,-0.49L184.462,-6.398C184.462,-6.575 184.518,-6.713 184.63,-6.811C184.742,-6.909 184.877,-6.958 185.036,-6.958C185.185,-6.958 185.311,-6.909 185.414,-6.811C185.516,-6.713 185.568,-6.58 185.568,-6.412L185.568,-5.628C185.764,-6.039 186.041,-6.351 186.401,-6.566C186.76,-6.781 187.173,-6.907 187.64,-6.944L187.836,-6.958C188.228,-6.986 188.424,-6.827 188.424,-6.482Z" style="fill-rule:nonzero;"/>
                <path d="M199.222,-4.284L199.222,-0.49C199.222,-0.313 199.171,-0.175 199.068,-0.077C198.965,0.021 198.83,0.07 198.662,0.07C198.494,0.07 198.356,0.021 198.249,-0.077C198.142,-0.175 198.088,-0.313 198.088,-0.49L198.088,-4.256C198.088,-4.881 197.976,-5.334 197.752,-5.614C197.528,-5.894 197.178,-6.034 196.702,-6.034C196.133,-6.034 195.685,-5.843 195.358,-5.46C195.031,-5.077 194.868,-4.559 194.868,-3.906L194.868,-0.49C194.868,-0.313 194.814,-0.175 194.707,-0.077C194.6,0.021 194.462,0.07 194.294,0.07C194.126,0.07 193.991,0.021 193.888,-0.077C193.785,-0.175 193.734,-0.313 193.734,-0.49L193.734,-4.256C193.734,-4.881 193.622,-5.334 193.398,-5.614C193.174,-5.894 192.819,-6.034 192.334,-6.034C191.774,-6.034 191.328,-5.843 190.997,-5.46C190.666,-5.077 190.5,-4.559 190.5,-3.906L190.5,-0.49C190.5,-0.313 190.449,-0.175 190.346,-0.077C190.243,0.021 190.108,0.07 189.94,0.07C189.772,0.07 189.634,0.021 189.527,-0.077C189.42,-0.175 189.366,-0.313 189.366,-0.49L189.366,-6.398C189.366,-6.566 189.42,-6.701 189.527,-6.804C189.634,-6.907 189.772,-6.958 189.94,-6.958C190.099,-6.958 190.229,-6.909 190.332,-6.811C190.435,-6.713 190.486,-6.58 190.486,-6.412L190.486,-5.74C190.691,-6.141 190.976,-6.449 191.34,-6.664C191.704,-6.879 192.124,-6.986 192.6,-6.986C193.664,-6.986 194.359,-6.538 194.686,-5.642C194.882,-6.053 195.181,-6.379 195.582,-6.622C195.983,-6.865 196.441,-6.986 196.954,-6.986C198.466,-6.986 199.222,-6.085 199.222,-4.284Z" style="fill-rule:nonzero;"/>
                <path d="M206.604,-4.298L206.604,-0.49C206.604,-0.322 206.555,-0.187 206.457,-0.084C206.359,0.019 206.226,0.07 206.058,0.07C205.89,0.07 205.755,0.019 205.652,-0.084C205.55,-0.187 205.498,-0.322 205.498,-0.49L205.498,-1.162C205.321,-0.761 205.05,-0.45 204.686,-0.231C204.322,-0.012 203.902,0.098 203.426,0.098C202.988,0.098 202.584,0.009 202.215,-0.168C201.847,-0.345 201.555,-0.593 201.34,-0.91C201.126,-1.227 201.018,-1.577 201.018,-1.96C201.018,-2.473 201.149,-2.872 201.41,-3.157C201.672,-3.442 202.101,-3.647 202.698,-3.773C203.296,-3.899 204.126,-3.962 205.19,-3.962L205.498,-3.962L205.498,-4.424C205.498,-4.984 205.384,-5.395 205.155,-5.656C204.927,-5.917 204.556,-6.048 204.042,-6.048C203.408,-6.048 202.764,-5.875 202.11,-5.53C201.858,-5.371 201.681,-5.292 201.578,-5.292C201.466,-5.292 201.373,-5.334 201.298,-5.418C201.224,-5.502 201.186,-5.609 201.186,-5.74C201.186,-5.871 201.226,-5.985 201.305,-6.083C201.385,-6.181 201.513,-6.281 201.69,-6.384C202.017,-6.571 202.388,-6.718 202.803,-6.825C203.219,-6.932 203.632,-6.986 204.042,-6.986C205.75,-6.986 206.604,-6.09 206.604,-4.298ZM204.959,-1.365C205.319,-1.743 205.498,-2.231 205.498,-2.828L205.498,-3.234L205.246,-3.234C204.425,-3.234 203.8,-3.199 203.37,-3.129C202.941,-3.059 202.635,-2.942 202.453,-2.779C202.271,-2.616 202.18,-2.375 202.18,-2.058C202.18,-1.694 202.313,-1.393 202.579,-1.155C202.845,-0.917 203.179,-0.798 203.58,-0.798C204.14,-0.798 204.6,-0.987 204.959,-1.365Z" style="fill-rule:nonzero;"/>
                <path d="M214.519,-4.284L214.519,-0.49C214.519,-0.313 214.47,-0.175 214.372,-0.077C214.274,0.021 214.136,0.07 213.959,0.07C213.781,0.07 213.641,0.021 213.539,-0.077C213.436,-0.175 213.385,-0.313 213.385,-0.49L213.385,-4.214C213.385,-4.849 213.261,-5.311 213.014,-5.6C212.766,-5.889 212.372,-6.034 211.831,-6.034C211.205,-6.034 210.706,-5.843 210.333,-5.46C209.959,-5.077 209.773,-4.559 209.773,-3.906L209.773,-0.49C209.773,-0.313 209.724,-0.175 209.626,-0.077C209.528,0.021 209.39,0.07 209.213,0.07C209.035,0.07 208.895,0.021 208.793,-0.077C208.69,-0.175 208.639,-0.313 208.639,-0.49L208.639,-6.398C208.639,-6.566 208.69,-6.701 208.793,-6.804C208.895,-6.907 209.035,-6.958 209.213,-6.958C209.381,-6.958 209.514,-6.907 209.612,-6.804C209.71,-6.701 209.759,-6.571 209.759,-6.412L209.759,-5.698C209.983,-6.118 210.295,-6.438 210.697,-6.657C211.098,-6.876 211.555,-6.986 212.069,-6.986C213.702,-6.986 214.519,-6.085 214.519,-4.284Z" style="fill-rule:nonzero;"/>
                <path d="M217.68,-0.336C217.19,-0.625 216.812,-1.036 216.546,-1.568C216.28,-2.1 216.147,-2.716 216.147,-3.416C216.147,-4.116 216.285,-4.737 216.56,-5.278C216.835,-5.819 217.22,-6.239 217.715,-6.538C218.21,-6.837 218.779,-6.986 219.423,-6.986C219.778,-6.986 220.13,-6.937 220.48,-6.839C220.83,-6.741 221.136,-6.599 221.397,-6.412C221.565,-6.3 221.684,-6.19 221.754,-6.083C221.824,-5.976 221.859,-5.857 221.859,-5.726C221.859,-5.595 221.824,-5.488 221.754,-5.404C221.684,-5.32 221.593,-5.278 221.481,-5.278C221.416,-5.278 221.346,-5.297 221.271,-5.334C221.196,-5.371 221.133,-5.409 221.082,-5.446C221.031,-5.483 220.996,-5.507 220.977,-5.516C220.734,-5.675 220.503,-5.801 220.284,-5.894C220.065,-5.987 219.796,-6.034 219.479,-6.034C218.798,-6.034 218.268,-5.803 217.89,-5.341C217.512,-4.879 217.323,-4.237 217.323,-3.416C217.323,-2.595 217.512,-1.96 217.89,-1.512C218.268,-1.064 218.798,-0.84 219.479,-0.84C219.796,-0.84 220.069,-0.887 220.298,-0.98C220.527,-1.073 220.758,-1.199 220.991,-1.358C221.094,-1.423 221.192,-1.479 221.285,-1.526C221.378,-1.573 221.458,-1.596 221.523,-1.596C221.626,-1.596 221.712,-1.554 221.782,-1.47C221.852,-1.386 221.887,-1.279 221.887,-1.148C221.887,-1.027 221.854,-0.917 221.789,-0.819C221.724,-0.721 221.602,-0.611 221.425,-0.49C221.164,-0.313 220.849,-0.17 220.48,-0.063C220.111,0.044 219.74,0.098 219.367,0.098C218.732,0.098 218.17,-0.047 217.68,-0.336Z" style="fill-rule:nonzero;"/>
                <path d="M228.765,-1.456C228.84,-1.372 228.877,-1.265 228.877,-1.134C228.877,-0.901 228.714,-0.686 228.387,-0.49C228.051,-0.294 227.697,-0.147 227.323,-0.049C226.95,0.049 226.586,0.098 226.231,0.098C225.177,0.098 224.344,-0.215 223.732,-0.84C223.121,-1.465 222.815,-2.329 222.815,-3.43C222.815,-4.13 222.951,-4.748 223.221,-5.285C223.492,-5.822 223.872,-6.239 224.362,-6.538C224.852,-6.837 225.41,-6.986 226.035,-6.986C226.922,-6.986 227.627,-6.697 228.149,-6.118C228.672,-5.539 228.933,-4.755 228.933,-3.766C228.933,-3.579 228.896,-3.444 228.821,-3.36C228.747,-3.276 228.625,-3.234 228.457,-3.234L223.949,-3.234C224.033,-1.629 224.794,-0.826 226.231,-0.826C226.595,-0.826 226.908,-0.875 227.169,-0.973C227.431,-1.071 227.711,-1.204 228.009,-1.372C228.252,-1.512 228.415,-1.582 228.499,-1.582C228.602,-1.582 228.691,-1.54 228.765,-1.456ZM224.614,-5.544C224.255,-5.171 224.043,-4.643 223.977,-3.962L227.939,-3.962C227.921,-4.653 227.748,-5.182 227.421,-5.551C227.095,-5.92 226.637,-6.104 226.049,-6.104C225.452,-6.104 224.974,-5.917 224.614,-5.544Z" style="fill-rule:nonzero;"/>
                <path d="M240.086,-6.804C240.188,-6.701 240.24,-6.566 240.24,-6.398L240.24,-0.462C240.24,0.555 239.978,1.323 239.456,1.841C238.933,2.359 238.158,2.618 237.132,2.618C236.133,2.618 235.302,2.422 234.64,2.03C234.304,1.843 234.136,1.629 234.136,1.386C234.136,1.255 234.171,1.148 234.241,1.064C234.311,0.98 234.402,0.938 234.514,0.938C234.607,0.938 234.775,1.003 235.018,1.134C235.344,1.302 235.666,1.437 235.984,1.54C236.301,1.643 236.679,1.694 237.118,1.694C237.78,1.694 238.28,1.519 238.616,1.169C238.952,0.819 239.12,0.308 239.12,-0.364L239.12,-1.568C238.924,-1.129 238.623,-0.793 238.217,-0.56C237.811,-0.327 237.332,-0.21 236.782,-0.21C236.184,-0.21 235.655,-0.35 235.193,-0.63C234.731,-0.91 234.371,-1.307 234.115,-1.82C233.858,-2.333 233.73,-2.926 233.73,-3.598C233.73,-4.27 233.858,-4.863 234.115,-5.376C234.371,-5.889 234.731,-6.286 235.193,-6.566C235.655,-6.846 236.184,-6.986 236.782,-6.986C237.323,-6.986 237.794,-6.869 238.196,-6.636C238.597,-6.403 238.9,-6.071 239.106,-5.642L239.106,-6.398C239.106,-6.566 239.155,-6.701 239.253,-6.804C239.351,-6.907 239.488,-6.958 239.666,-6.958C239.843,-6.958 239.983,-6.907 240.086,-6.804ZM238.546,-1.799C238.919,-2.233 239.106,-2.833 239.106,-3.598C239.106,-4.354 238.921,-4.949 238.553,-5.383C238.184,-5.817 237.668,-6.034 237.006,-6.034C236.343,-6.034 235.823,-5.817 235.445,-5.383C235.067,-4.949 234.878,-4.354 234.878,-3.598C234.878,-2.833 235.067,-2.233 235.445,-1.799C235.823,-1.365 236.343,-1.148 237.006,-1.148C237.659,-1.148 238.172,-1.365 238.546,-1.799Z" style="fill-rule:nonzero;"/>
                <path d="M247.65,-4.298L247.65,-0.49C247.65,-0.322 247.601,-0.187 247.503,-0.084C247.405,0.019 247.272,0.07 247.104,0.07C246.936,0.07 246.801,0.019 246.698,-0.084C246.595,-0.187 246.544,-0.322 246.544,-0.49L246.544,-1.162C246.367,-0.761 246.096,-0.45 245.732,-0.231C245.368,-0.012 244.948,0.098 244.472,0.098C244.033,0.098 243.63,0.009 243.261,-0.168C242.892,-0.345 242.601,-0.593 242.386,-0.91C242.171,-1.227 242.064,-1.577 242.064,-1.96C242.064,-2.473 242.195,-2.872 242.456,-3.157C242.717,-3.442 243.147,-3.647 243.744,-3.773C244.341,-3.899 245.172,-3.962 246.236,-3.962L246.544,-3.962L246.544,-4.424C246.544,-4.984 246.43,-5.395 246.201,-5.656C245.972,-5.917 245.601,-6.048 245.088,-6.048C244.453,-6.048 243.809,-5.875 243.156,-5.53C242.904,-5.371 242.727,-5.292 242.624,-5.292C242.512,-5.292 242.419,-5.334 242.344,-5.418C242.269,-5.502 242.232,-5.609 242.232,-5.74C242.232,-5.871 242.272,-5.985 242.351,-6.083C242.43,-6.181 242.559,-6.281 242.736,-6.384C243.063,-6.571 243.434,-6.718 243.849,-6.825C244.264,-6.932 244.677,-6.986 245.088,-6.986C246.796,-6.986 247.65,-6.09 247.65,-4.298ZM246.005,-1.365C246.364,-1.743 246.544,-2.231 246.544,-2.828L246.544,-3.234L246.292,-3.234C245.471,-3.234 244.845,-3.199 244.416,-3.129C243.987,-3.059 243.681,-2.942 243.499,-2.779C243.317,-2.616 243.226,-2.375 243.226,-2.058C243.226,-1.694 243.359,-1.393 243.625,-1.155C243.891,-0.917 244.225,-0.798 244.626,-0.798C245.186,-0.798 245.646,-0.987 246.005,-1.365Z" style="fill-rule:nonzero;"/>
                <path d="M249.845,-0.077C249.738,-0.175 249.684,-0.313 249.684,-0.49L249.684,-6.398C249.684,-6.575 249.738,-6.713 249.845,-6.811C249.953,-6.909 250.09,-6.958 250.258,-6.958C250.426,-6.958 250.562,-6.909 250.664,-6.811C250.767,-6.713 250.818,-6.575 250.818,-6.398L250.818,-0.49C250.818,-0.303 250.767,-0.163 250.664,-0.07C250.562,0.023 250.426,0.07 250.258,0.07C250.09,0.07 249.953,0.021 249.845,-0.077ZM249.712,-8.624C249.572,-8.755 249.502,-8.927 249.502,-9.142C249.502,-9.347 249.572,-9.515 249.712,-9.646C249.852,-9.777 250.034,-9.842 250.258,-9.842C250.482,-9.842 250.664,-9.777 250.804,-9.646C250.944,-9.515 251.014,-9.347 251.014,-9.142C251.014,-8.927 250.944,-8.755 250.804,-8.624C250.664,-8.493 250.482,-8.428 250.258,-8.428C250.034,-8.428 249.852,-8.493 249.712,-8.624Z" style="fill-rule:nonzero;"/>
                <path d="M258.775,-4.284L258.775,-0.49C258.775,-0.313 258.726,-0.175 258.628,-0.077C258.53,0.021 258.392,0.07 258.215,0.07C258.037,0.07 257.897,0.021 257.795,-0.077C257.692,-0.175 257.641,-0.313 257.641,-0.49L257.641,-4.214C257.641,-4.849 257.517,-5.311 257.27,-5.6C257.022,-5.889 256.628,-6.034 256.087,-6.034C255.461,-6.034 254.962,-5.843 254.589,-5.46C254.215,-5.077 254.029,-4.559 254.029,-3.906L254.029,-0.49C254.029,-0.313 253.98,-0.175 253.882,-0.077C253.784,0.021 253.646,0.07 253.469,0.07C253.291,0.07 253.151,0.021 253.049,-0.077C252.946,-0.175 252.895,-0.313 252.895,-0.49L252.895,-6.398C252.895,-6.566 252.946,-6.701 253.049,-6.804C253.151,-6.907 253.291,-6.958 253.469,-6.958C253.637,-6.958 253.77,-6.907 253.868,-6.804C253.966,-6.701 254.015,-6.571 254.015,-6.412L254.015,-5.698C254.239,-6.118 254.551,-6.438 254.953,-6.657C255.354,-6.876 255.811,-6.986 256.325,-6.986C257.958,-6.986 258.775,-6.085 258.775,-4.284Z" style="fill-rule:nonzero;"/>
                <path d="M261.88,-0.056C261.492,-0.159 261.149,-0.303 260.851,-0.49C260.683,-0.602 260.564,-0.707 260.494,-0.805C260.424,-0.903 260.389,-1.022 260.389,-1.162C260.389,-1.283 260.424,-1.384 260.494,-1.463C260.564,-1.542 260.655,-1.582 260.767,-1.582C260.879,-1.582 261.042,-1.512 261.257,-1.372C261.537,-1.204 261.814,-1.071 262.09,-0.973C262.365,-0.875 262.708,-0.826 263.119,-0.826C263.623,-0.826 264.015,-0.915 264.295,-1.092C264.575,-1.269 264.715,-1.526 264.715,-1.862C264.715,-2.067 264.663,-2.233 264.561,-2.359C264.458,-2.485 264.281,-2.597 264.029,-2.695C263.777,-2.793 263.408,-2.893 262.923,-2.996C262.101,-3.173 261.513,-3.411 261.159,-3.71C260.804,-4.009 260.627,-4.415 260.627,-4.928C260.627,-5.329 260.739,-5.684 260.963,-5.992C261.187,-6.3 261.497,-6.543 261.894,-6.72C262.29,-6.897 262.741,-6.986 263.245,-6.986C263.609,-6.986 263.961,-6.937 264.302,-6.839C264.642,-6.741 264.943,-6.603 265.205,-6.426C265.522,-6.202 265.681,-5.969 265.681,-5.726C265.681,-5.605 265.643,-5.502 265.569,-5.418C265.494,-5.334 265.405,-5.292 265.303,-5.292C265.191,-5.292 265.023,-5.371 264.799,-5.53C264.537,-5.698 264.29,-5.829 264.057,-5.922C263.823,-6.015 263.534,-6.062 263.189,-6.062C262.75,-6.062 262.398,-5.964 262.132,-5.768C261.866,-5.572 261.733,-5.311 261.733,-4.984C261.733,-4.779 261.782,-4.613 261.88,-4.487C261.978,-4.361 262.141,-4.249 262.37,-4.151C262.598,-4.053 262.927,-3.957 263.357,-3.864C263.991,-3.724 264.484,-3.57 264.834,-3.402C265.184,-3.234 265.433,-3.029 265.583,-2.786C265.732,-2.543 265.807,-2.235 265.807,-1.862C265.807,-1.274 265.559,-0.8 265.065,-0.441C264.57,-0.082 263.917,0.098 263.105,0.098C262.675,0.098 262.267,0.047 261.88,-0.056Z" style="fill-rule:nonzero;"/>
                <path d="M276.413,-4.298L276.413,-0.49C276.413,-0.322 276.364,-0.187 276.266,-0.084C276.168,0.019 276.035,0.07 275.867,0.07C275.699,0.07 275.564,0.019 275.461,-0.084C275.359,-0.187 275.307,-0.322 275.307,-0.49L275.307,-1.162C275.13,-0.761 274.859,-0.45 274.495,-0.231C274.131,-0.012 273.711,0.098 273.235,0.098C272.797,0.098 272.393,0.009 272.024,-0.168C271.656,-0.345 271.364,-0.593 271.149,-0.91C270.935,-1.227 270.827,-1.577 270.827,-1.96C270.827,-2.473 270.958,-2.872 271.219,-3.157C271.481,-3.442 271.91,-3.647 272.507,-3.773C273.105,-3.899 273.935,-3.962 274.999,-3.962L275.307,-3.962L275.307,-4.424C275.307,-4.984 275.193,-5.395 274.964,-5.656C274.736,-5.917 274.365,-6.048 273.851,-6.048C273.217,-6.048 272.573,-5.875 271.919,-5.53C271.667,-5.371 271.49,-5.292 271.387,-5.292C271.275,-5.292 271.182,-5.334 271.107,-5.418C271.033,-5.502 270.995,-5.609 270.995,-5.74C270.995,-5.871 271.035,-5.985 271.114,-6.083C271.194,-6.181 271.322,-6.281 271.499,-6.384C271.826,-6.571 272.197,-6.718 272.612,-6.825C273.028,-6.932 273.441,-6.986 273.851,-6.986C275.559,-6.986 276.413,-6.09 276.413,-4.298ZM274.768,-1.365C275.128,-1.743 275.307,-2.231 275.307,-2.828L275.307,-3.234L275.055,-3.234C274.234,-3.234 273.609,-3.199 273.179,-3.129C272.75,-3.059 272.444,-2.942 272.262,-2.779C272.08,-2.616 271.989,-2.375 271.989,-2.058C271.989,-1.694 272.122,-1.393 272.388,-1.155C272.654,-0.917 272.988,-0.798 273.389,-0.798C273.949,-0.798 274.409,-0.987 274.768,-1.365Z" style="fill-rule:nonzero;"/>
                <path d="M284.328,-4.284L284.328,-0.49C284.328,-0.313 284.279,-0.175 284.181,-0.077C284.083,0.021 283.945,0.07 283.768,0.07C283.59,0.07 283.45,0.021 283.348,-0.077C283.245,-0.175 283.194,-0.313 283.194,-0.49L283.194,-4.214C283.194,-4.849 283.07,-5.311 282.823,-5.6C282.575,-5.889 282.181,-6.034 281.64,-6.034C281.014,-6.034 280.515,-5.843 280.142,-5.46C279.768,-5.077 279.582,-4.559 279.582,-3.906L279.582,-0.49C279.582,-0.313 279.533,-0.175 279.435,-0.077C279.337,0.021 279.199,0.07 279.022,0.07C278.844,0.07 278.704,0.021 278.602,-0.077C278.499,-0.175 278.448,-0.313 278.448,-0.49L278.448,-6.398C278.448,-6.566 278.499,-6.701 278.602,-6.804C278.704,-6.907 278.844,-6.958 279.022,-6.958C279.19,-6.958 279.323,-6.907 279.421,-6.804C279.519,-6.701 279.568,-6.571 279.568,-6.412L279.568,-5.698C279.792,-6.118 280.104,-6.438 280.506,-6.657C280.907,-6.876 281.364,-6.986 281.878,-6.986C283.511,-6.986 284.328,-6.085 284.328,-4.284Z" style="fill-rule:nonzero;"/>
                <path d="M292.256,-9.786C292.359,-9.683 292.41,-9.553 292.41,-9.394L292.41,-0.49C292.41,-0.322 292.359,-0.187 292.256,-0.084C292.153,0.019 292.013,0.07 291.836,0.07C291.659,0.07 291.521,0.019 291.423,-0.084C291.325,-0.187 291.276,-0.322 291.276,-0.49L291.276,-1.246C291.071,-0.817 290.77,-0.485 290.373,-0.252C289.976,-0.019 289.512,0.098 288.98,0.098C288.383,0.098 287.855,-0.051 287.398,-0.35C286.941,-0.649 286.586,-1.066 286.334,-1.603C286.082,-2.14 285.956,-2.763 285.956,-3.472C285.956,-4.172 286.082,-4.788 286.334,-5.32C286.586,-5.852 286.941,-6.263 287.398,-6.552C287.855,-6.841 288.383,-6.986 288.98,-6.986C289.512,-6.986 289.976,-6.869 290.373,-6.636C290.77,-6.403 291.071,-6.071 291.276,-5.642L291.276,-9.394C291.276,-9.562 291.325,-9.695 291.423,-9.793C291.521,-9.891 291.659,-9.94 291.836,-9.94C292.013,-9.94 292.153,-9.889 292.256,-9.786ZM290.737,-1.519C291.096,-1.972 291.276,-2.613 291.276,-3.444C291.276,-4.275 291.096,-4.914 290.737,-5.362C290.378,-5.81 289.867,-6.034 289.204,-6.034C288.541,-6.034 288.026,-5.81 287.657,-5.362C287.288,-4.914 287.104,-4.284 287.104,-3.472C287.104,-2.641 287.288,-1.995 287.657,-1.533C288.026,-1.071 288.541,-0.84 289.204,-0.84C289.867,-0.84 290.378,-1.066 290.737,-1.519Z" style="fill-rule:nonzero;"/>
                <path d="M303.058,-6.552C303.516,-6.263 303.87,-5.852 304.122,-5.32C304.374,-4.788 304.5,-4.172 304.5,-3.472C304.5,-2.763 304.374,-2.14 304.122,-1.603C303.87,-1.066 303.516,-0.649 303.058,-0.35C302.601,-0.051 302.074,0.098 301.476,0.098C300.944,0.098 300.48,-0.019 300.083,-0.252C299.687,-0.485 299.386,-0.817 299.18,-1.246L299.18,-0.49C299.18,-0.322 299.131,-0.187 299.033,-0.084C298.935,0.019 298.798,0.07 298.62,0.07C298.443,0.07 298.303,0.019 298.2,-0.084C298.098,-0.187 298.046,-0.322 298.046,-0.49L298.046,-9.394C298.046,-9.553 298.098,-9.683 298.2,-9.786C298.303,-9.889 298.443,-9.94 298.62,-9.94C298.798,-9.94 298.935,-9.891 299.033,-9.793C299.131,-9.695 299.18,-9.562 299.18,-9.394L299.18,-5.642C299.386,-6.071 299.687,-6.403 300.083,-6.636C300.48,-6.869 300.944,-6.986 301.476,-6.986C302.074,-6.986 302.601,-6.841 303.058,-6.552ZM302.792,-1.533C303.156,-1.995 303.338,-2.641 303.338,-3.472C303.338,-4.284 303.156,-4.914 302.792,-5.362C302.428,-5.81 301.915,-6.034 301.252,-6.034C300.59,-6.034 300.079,-5.81 299.719,-5.362C299.36,-4.914 299.18,-4.275 299.18,-3.444C299.18,-2.613 299.36,-1.972 299.719,-1.519C300.079,-1.066 300.59,-0.84 301.252,-0.84C301.915,-0.84 302.428,-1.071 302.792,-1.533Z" style="fill-rule:nonzero;"/>
                <path d="M311.701,-1.456C311.775,-1.372 311.813,-1.265 311.813,-1.134C311.813,-0.901 311.649,-0.686 311.323,-0.49C310.987,-0.294 310.632,-0.147 310.259,-0.049C309.885,0.049 309.521,0.098 309.167,0.098C308.112,0.098 307.279,-0.215 306.668,-0.84C306.056,-1.465 305.751,-2.329 305.751,-3.43C305.751,-4.13 305.886,-4.748 306.157,-5.285C306.427,-5.822 306.808,-6.239 307.298,-6.538C307.788,-6.837 308.345,-6.986 308.971,-6.986C309.857,-6.986 310.562,-6.697 311.085,-6.118C311.607,-5.539 311.869,-4.755 311.869,-3.766C311.869,-3.579 311.831,-3.444 311.757,-3.36C311.682,-3.276 311.561,-3.234 311.393,-3.234L306.885,-3.234C306.969,-1.629 307.729,-0.826 309.167,-0.826C309.531,-0.826 309.843,-0.875 310.105,-0.973C310.366,-1.071 310.646,-1.204 310.945,-1.372C311.187,-1.512 311.351,-1.582 311.435,-1.582C311.537,-1.582 311.626,-1.54 311.701,-1.456ZM307.55,-5.544C307.19,-5.171 306.978,-4.643 306.913,-3.962L310.875,-3.962C310.856,-4.653 310.683,-5.182 310.357,-5.551C310.03,-5.92 309.573,-6.104 308.985,-6.104C308.387,-6.104 307.909,-5.917 307.55,-5.544Z" style="fill-rule:nonzero;"/>
                <path d="M319.377,-4.284L319.377,-0.49C319.377,-0.313 319.328,-0.175 319.23,-0.077C319.132,0.021 318.994,0.07 318.817,0.07C318.64,0.07 318.5,0.021 318.397,-0.077C318.294,-0.175 318.243,-0.313 318.243,-0.49L318.243,-4.214C318.243,-4.849 318.119,-5.311 317.872,-5.6C317.625,-5.889 317.23,-6.034 316.689,-6.034C316.064,-6.034 315.564,-5.843 315.191,-5.46C314.818,-5.077 314.631,-4.559 314.631,-3.906L314.631,-0.49C314.631,-0.313 314.582,-0.175 314.484,-0.077C314.386,0.021 314.248,0.07 314.071,0.07C313.894,0.07 313.754,0.021 313.651,-0.077C313.548,-0.175 313.497,-0.313 313.497,-0.49L313.497,-6.398C313.497,-6.566 313.548,-6.701 313.651,-6.804C313.754,-6.907 313.894,-6.958 314.071,-6.958C314.239,-6.958 314.372,-6.907 314.47,-6.804C314.568,-6.701 314.617,-6.571 314.617,-6.412L314.617,-5.698C314.841,-6.118 315.154,-6.438 315.555,-6.657C315.956,-6.876 316.414,-6.986 316.927,-6.986C318.56,-6.986 319.377,-6.085 319.377,-4.284Z" style="fill-rule:nonzero;"/>
                <path d="M326.955,-1.456C327.03,-1.372 327.067,-1.265 327.067,-1.134C327.067,-0.901 326.904,-0.686 326.577,-0.49C326.241,-0.294 325.887,-0.147 325.513,-0.049C325.14,0.049 324.776,0.098 324.421,0.098C323.367,0.098 322.534,-0.215 321.922,-0.84C321.311,-1.465 321.005,-2.329 321.005,-3.43C321.005,-4.13 321.141,-4.748 321.411,-5.285C321.682,-5.822 322.062,-6.239 322.552,-6.538C323.042,-6.837 323.6,-6.986 324.225,-6.986C325.112,-6.986 325.817,-6.697 326.339,-6.118C326.862,-5.539 327.123,-4.755 327.123,-3.766C327.123,-3.579 327.086,-3.444 327.011,-3.36C326.937,-3.276 326.815,-3.234 326.647,-3.234L322.139,-3.234C322.223,-1.629 322.984,-0.826 324.421,-0.826C324.785,-0.826 325.098,-0.875 325.359,-0.973C325.621,-1.071 325.901,-1.204 326.199,-1.372C326.442,-1.512 326.605,-1.582 326.689,-1.582C326.792,-1.582 326.881,-1.54 326.955,-1.456ZM322.804,-5.544C322.445,-5.171 322.233,-4.643 322.167,-3.962L326.129,-3.962C326.111,-4.653 325.938,-5.182 325.611,-5.551C325.285,-5.92 324.827,-6.104 324.239,-6.104C323.642,-6.104 323.164,-5.917 322.804,-5.544Z" style="fill-rule:nonzero;"/>
                <path d="M334.324,-6.692C334.408,-6.608 334.45,-6.496 334.45,-6.356L334.45,-0.49C334.45,-0.313 334.396,-0.175 334.289,-0.077C334.181,0.021 334.048,0.07 333.89,0.07C333.722,0.07 333.584,0.021 333.477,-0.077C333.369,-0.175 333.316,-0.313 333.316,-0.49L333.316,-5.922L330.25,-5.922L330.25,-0.49C330.25,-0.313 330.196,-0.175 330.089,-0.077C329.981,0.021 329.848,0.07 329.69,0.07C329.522,0.07 329.384,0.021 329.277,-0.077C329.169,-0.175 329.116,-0.313 329.116,-0.49L329.116,-5.922L328.178,-5.922C328.019,-5.922 327.895,-5.962 327.807,-6.041C327.718,-6.12 327.674,-6.225 327.674,-6.356C327.674,-6.496 327.718,-6.608 327.807,-6.692C327.895,-6.776 328.019,-6.818 328.178,-6.818L329.116,-6.818L329.116,-7.056C329.116,-7.896 329.326,-8.556 329.746,-9.037C330.166,-9.518 330.768,-9.791 331.552,-9.856L331.888,-9.884C332.336,-9.921 332.56,-9.781 332.56,-9.464C332.56,-9.193 332.401,-9.039 332.084,-9.002L331.748,-8.974C331.253,-8.937 330.88,-8.78 330.628,-8.505C330.376,-8.23 330.25,-7.817 330.25,-7.266L330.25,-6.818L333.96,-6.818C334.118,-6.818 334.24,-6.776 334.324,-6.692ZM334.429,-9.646C334.573,-9.515 334.646,-9.347 334.646,-9.142C334.646,-8.927 334.576,-8.755 334.436,-8.624C334.296,-8.493 334.114,-8.428 333.89,-8.428C333.666,-8.428 333.484,-8.493 333.344,-8.624C333.204,-8.755 333.134,-8.927 333.134,-9.142C333.134,-9.347 333.204,-9.515 333.344,-9.646C333.484,-9.777 333.666,-9.842 333.89,-9.842C334.104,-9.842 334.284,-9.777 334.429,-9.646Z" style="fill-rule:nonzero;"/>
                <path d="M340.166,-0.378C340.166,-0.219 340.107,-0.1 339.991,-0.021C339.874,0.058 339.699,0.089 339.466,0.07L339.088,0.042C338.341,-0.014 337.79,-0.238 337.436,-0.63C337.081,-1.022 336.904,-1.615 336.904,-2.408L336.904,-5.922L335.966,-5.922C335.807,-5.922 335.683,-5.962 335.595,-6.041C335.506,-6.12 335.462,-6.225 335.462,-6.356C335.462,-6.496 335.506,-6.608 335.595,-6.692C335.683,-6.776 335.807,-6.818 335.966,-6.818L336.904,-6.818L336.904,-8.4C336.904,-8.577 336.955,-8.715 337.058,-8.813C337.16,-8.911 337.3,-8.96 337.478,-8.96C337.646,-8.96 337.781,-8.911 337.884,-8.813C337.986,-8.715 338.038,-8.577 338.038,-8.4L338.038,-6.818L339.592,-6.818C339.741,-6.818 339.86,-6.776 339.949,-6.692C340.037,-6.608 340.082,-6.496 340.082,-6.356C340.082,-6.225 340.037,-6.12 339.949,-6.041C339.86,-5.962 339.741,-5.922 339.592,-5.922L338.038,-5.922L338.038,-2.352C338.038,-1.839 338.143,-1.468 338.353,-1.239C338.563,-1.01 338.878,-0.882 339.298,-0.854L339.676,-0.826C340.002,-0.798 340.166,-0.649 340.166,-0.378Z" style="fill-rule:nonzero;"/>
                <path d="M342.319,-0.056C341.932,-0.159 341.589,-0.303 341.29,-0.49C341.122,-0.602 341.003,-0.707 340.933,-0.805C340.863,-0.903 340.828,-1.022 340.828,-1.162C340.828,-1.283 340.863,-1.384 340.933,-1.463C341.003,-1.542 341.094,-1.582 341.206,-1.582C341.318,-1.582 341.481,-1.512 341.696,-1.372C341.976,-1.204 342.254,-1.071 342.529,-0.973C342.804,-0.875 343.147,-0.826 343.558,-0.826C344.062,-0.826 344.454,-0.915 344.734,-1.092C345.014,-1.269 345.154,-1.526 345.154,-1.862C345.154,-2.067 345.103,-2.233 345,-2.359C344.897,-2.485 344.72,-2.597 344.468,-2.695C344.216,-2.793 343.847,-2.893 343.362,-2.996C342.541,-3.173 341.953,-3.411 341.598,-3.71C341.243,-4.009 341.066,-4.415 341.066,-4.928C341.066,-5.329 341.178,-5.684 341.402,-5.992C341.626,-6.3 341.936,-6.543 342.333,-6.72C342.73,-6.897 343.18,-6.986 343.684,-6.986C344.048,-6.986 344.4,-6.937 344.741,-6.839C345.082,-6.741 345.383,-6.603 345.644,-6.426C345.961,-6.202 346.12,-5.969 346.12,-5.726C346.12,-5.605 346.083,-5.502 346.008,-5.418C345.933,-5.334 345.845,-5.292 345.742,-5.292C345.63,-5.292 345.462,-5.371 345.238,-5.53C344.977,-5.698 344.729,-5.829 344.496,-5.922C344.263,-6.015 343.973,-6.062 343.628,-6.062C343.189,-6.062 342.837,-5.964 342.571,-5.768C342.305,-5.572 342.172,-5.311 342.172,-4.984C342.172,-4.779 342.221,-4.613 342.319,-4.487C342.417,-4.361 342.58,-4.249 342.809,-4.151C343.038,-4.053 343.367,-3.957 343.796,-3.864C344.431,-3.724 344.923,-3.57 345.273,-3.402C345.623,-3.234 345.873,-3.029 346.022,-2.786C346.171,-2.543 346.246,-2.235 346.246,-1.862C346.246,-1.274 345.999,-0.8 345.504,-0.441C345.009,-0.082 344.356,0.098 343.544,0.098C343.115,0.098 342.706,0.047 342.319,-0.056Z" style="fill-rule:nonzero;"/>
                <path d="M352.632,-0.336C352.142,-0.625 351.764,-1.038 351.498,-1.575C351.232,-2.112 351.099,-2.735 351.099,-3.444C351.099,-4.153 351.232,-4.776 351.498,-5.313C351.764,-5.85 352.142,-6.263 352.632,-6.552C353.122,-6.841 353.689,-6.986 354.333,-6.986C354.977,-6.986 355.546,-6.841 356.041,-6.552C356.535,-6.263 356.916,-5.85 357.182,-5.313C357.448,-4.776 357.581,-4.153 357.581,-3.444C357.581,-2.735 357.448,-2.112 357.182,-1.575C356.916,-1.038 356.535,-0.625 356.041,-0.336C355.546,-0.047 354.977,0.098 354.333,0.098C353.689,0.098 353.122,-0.047 352.632,-0.336ZM355.88,-1.505C356.239,-1.948 356.419,-2.595 356.419,-3.444C356.419,-4.275 356.237,-4.916 355.873,-5.369C355.509,-5.822 354.995,-6.048 354.333,-6.048C353.67,-6.048 353.157,-5.822 352.793,-5.369C352.429,-4.916 352.247,-4.275 352.247,-3.444C352.247,-2.604 352.426,-1.96 352.786,-1.512C353.145,-1.064 353.661,-0.84 354.333,-0.84C355.005,-0.84 355.52,-1.062 355.88,-1.505Z" style="fill-rule:nonzero;"/>
                <path d="M361.113,-8.505C360.861,-8.23 360.735,-7.817 360.735,-7.266L360.735,-6.818L362.289,-6.818C362.448,-6.818 362.569,-6.776 362.653,-6.692C362.737,-6.608 362.779,-6.496 362.779,-6.356C362.779,-6.216 362.737,-6.109 362.653,-6.034C362.569,-5.959 362.448,-5.922 362.289,-5.922L360.735,-5.922L360.735,-0.49C360.735,-0.313 360.681,-0.175 360.574,-0.077C360.467,0.021 360.334,0.07 360.175,0.07C360.007,0.07 359.869,0.021 359.762,-0.077C359.655,-0.175 359.601,-0.313 359.601,-0.49L359.601,-5.922L358.663,-5.922C358.504,-5.922 358.381,-5.962 358.292,-6.041C358.203,-6.12 358.159,-6.225 358.159,-6.356C358.159,-6.496 358.203,-6.608 358.292,-6.692C358.381,-6.776 358.504,-6.818 358.663,-6.818L359.601,-6.818L359.601,-7.07C359.601,-7.91 359.811,-8.57 360.231,-9.051C360.651,-9.532 361.253,-9.8 362.037,-9.856L362.401,-9.884C362.644,-9.903 362.819,-9.879 362.926,-9.814C363.033,-9.749 363.087,-9.632 363.087,-9.464C363.087,-9.193 362.924,-9.039 362.597,-9.002L362.233,-8.974C361.738,-8.937 361.365,-8.78 361.113,-8.505Z" style="fill-rule:nonzero;"/>
                <path d="M367.512,-0.077C367.405,-0.175 367.351,-0.313 367.351,-0.49L367.351,-6.398C367.351,-6.575 367.405,-6.713 367.512,-6.811C367.62,-6.909 367.757,-6.958 367.925,-6.958C368.093,-6.958 368.229,-6.909 368.331,-6.811C368.434,-6.713 368.485,-6.575 368.485,-6.398L368.485,-0.49C368.485,-0.303 368.434,-0.163 368.331,-0.07C368.229,0.023 368.093,0.07 367.925,0.07C367.757,0.07 367.62,0.021 367.512,-0.077ZM367.379,-8.624C367.239,-8.755 367.169,-8.927 367.169,-9.142C367.169,-9.347 367.239,-9.515 367.379,-9.646C367.519,-9.777 367.701,-9.842 367.925,-9.842C368.149,-9.842 368.331,-9.777 368.471,-9.646C368.611,-9.515 368.681,-9.347 368.681,-9.142C368.681,-8.927 368.611,-8.755 368.471,-8.624C368.331,-8.493 368.149,-8.428 367.925,-8.428C367.701,-8.428 367.519,-8.493 367.379,-8.624Z" style="fill-rule:nonzero;"/>
                <path d="M376.442,-4.284L376.442,-0.49C376.442,-0.313 376.393,-0.175 376.295,-0.077C376.197,0.021 376.059,0.07 375.882,0.07C375.704,0.07 375.564,0.021 375.462,-0.077C375.359,-0.175 375.308,-0.313 375.308,-0.49L375.308,-4.214C375.308,-4.849 375.184,-5.311 374.937,-5.6C374.689,-5.889 374.295,-6.034 373.754,-6.034C373.128,-6.034 372.629,-5.843 372.256,-5.46C371.882,-5.077 371.696,-4.559 371.696,-3.906L371.696,-0.49C371.696,-0.313 371.647,-0.175 371.549,-0.077C371.451,0.021 371.313,0.07 371.136,0.07C370.958,0.07 370.818,0.021 370.716,-0.077C370.613,-0.175 370.562,-0.313 370.562,-0.49L370.562,-6.398C370.562,-6.566 370.613,-6.701 370.716,-6.804C370.818,-6.907 370.958,-6.958 371.136,-6.958C371.304,-6.958 371.437,-6.907 371.535,-6.804C371.633,-6.701 371.682,-6.571 371.682,-6.412L371.682,-5.698C371.906,-6.118 372.218,-6.438 372.62,-6.657C373.021,-6.876 373.478,-6.986 373.992,-6.986C375.625,-6.986 376.442,-6.085 376.442,-4.284Z" style="fill-rule:nonzero;"/>
                <path d="M382.116,-0.378C382.116,-0.219 382.058,-0.1 381.941,-0.021C381.824,0.058 381.649,0.089 381.416,0.07L381.038,0.042C380.291,-0.014 379.741,-0.238 379.386,-0.63C379.031,-1.022 378.854,-1.615 378.854,-2.408L378.854,-5.922L377.916,-5.922C377.757,-5.922 377.634,-5.962 377.545,-6.041C377.456,-6.12 377.412,-6.225 377.412,-6.356C377.412,-6.496 377.456,-6.608 377.545,-6.692C377.634,-6.776 377.757,-6.818 377.916,-6.818L378.854,-6.818L378.854,-8.4C378.854,-8.577 378.905,-8.715 379.008,-8.813C379.111,-8.911 379.251,-8.96 379.428,-8.96C379.596,-8.96 379.731,-8.911 379.834,-8.813C379.937,-8.715 379.988,-8.577 379.988,-8.4L379.988,-6.818L381.542,-6.818C381.691,-6.818 381.81,-6.776 381.899,-6.692C381.988,-6.608 382.032,-6.496 382.032,-6.356C382.032,-6.225 381.988,-6.12 381.899,-6.041C381.81,-5.962 381.691,-5.922 381.542,-5.922L379.988,-5.922L379.988,-2.352C379.988,-1.839 380.093,-1.468 380.303,-1.239C380.513,-1.01 380.828,-0.882 381.248,-0.854L381.626,-0.826C381.953,-0.798 382.116,-0.649 382.116,-0.378Z" style="fill-rule:nonzero;"/>
                <path d="M387.16,-6.482C387.16,-6.333 387.118,-6.214 387.034,-6.125C386.95,-6.036 386.806,-5.983 386.6,-5.964L386.18,-5.922C385.555,-5.866 385.091,-5.644 384.787,-5.257C384.484,-4.87 384.332,-4.415 384.332,-3.892L384.332,-0.49C384.332,-0.303 384.281,-0.163 384.178,-0.07C384.076,0.023 383.94,0.07 383.772,0.07C383.604,0.07 383.467,0.021 383.359,-0.077C383.252,-0.175 383.198,-0.313 383.198,-0.49L383.198,-6.398C383.198,-6.575 383.254,-6.713 383.366,-6.811C383.478,-6.909 383.614,-6.958 383.772,-6.958C383.922,-6.958 384.048,-6.909 384.15,-6.811C384.253,-6.713 384.304,-6.58 384.304,-6.412L384.304,-5.628C384.5,-6.039 384.778,-6.351 385.137,-6.566C385.497,-6.781 385.91,-6.907 386.376,-6.944L386.572,-6.958C386.964,-6.986 387.16,-6.827 387.16,-6.482Z" style="fill-rule:nonzero;"/>
                <path d="M389.089,-0.336C388.599,-0.625 388.221,-1.038 387.955,-1.575C387.689,-2.112 387.556,-2.735 387.556,-3.444C387.556,-4.153 387.689,-4.776 387.955,-5.313C388.221,-5.85 388.599,-6.263 389.089,-6.552C389.579,-6.841 390.146,-6.986 390.79,-6.986C391.434,-6.986 392.004,-6.841 392.498,-6.552C392.993,-6.263 393.373,-5.85 393.639,-5.313C393.905,-4.776 394.038,-4.153 394.038,-3.444C394.038,-2.735 393.905,-2.112 393.639,-1.575C393.373,-1.038 392.993,-0.625 392.498,-0.336C392.004,-0.047 391.434,0.098 390.79,0.098C390.146,0.098 389.579,-0.047 389.089,-0.336ZM392.337,-1.505C392.697,-1.948 392.876,-2.595 392.876,-3.444C392.876,-4.275 392.694,-4.916 392.33,-5.369C391.966,-5.822 391.453,-6.048 390.79,-6.048C390.128,-6.048 389.614,-5.822 389.25,-5.369C388.886,-4.916 388.704,-4.275 388.704,-3.444C388.704,-2.604 388.884,-1.96 389.243,-1.512C389.603,-1.064 390.118,-0.84 390.79,-0.84C391.462,-0.84 391.978,-1.062 392.337,-1.505Z" style="fill-rule:nonzero;"/>
                <path d="M401.589,-9.786C401.691,-9.683 401.743,-9.553 401.743,-9.394L401.743,-0.49C401.743,-0.322 401.691,-0.187 401.589,-0.084C401.486,0.019 401.346,0.07 401.169,0.07C400.991,0.07 400.854,0.019 400.756,-0.084C400.658,-0.187 400.609,-0.322 400.609,-0.49L400.609,-1.246C400.403,-0.817 400.102,-0.485 399.706,-0.252C399.309,-0.019 398.845,0.098 398.313,0.098C397.715,0.098 397.188,-0.051 396.731,-0.35C396.273,-0.649 395.919,-1.066 395.667,-1.603C395.415,-2.14 395.289,-2.763 395.289,-3.472C395.289,-4.172 395.415,-4.788 395.667,-5.32C395.919,-5.852 396.273,-6.263 396.731,-6.552C397.188,-6.841 397.715,-6.986 398.313,-6.986C398.845,-6.986 399.309,-6.869 399.706,-6.636C400.102,-6.403 400.403,-6.071 400.609,-5.642L400.609,-9.394C400.609,-9.562 400.658,-9.695 400.756,-9.793C400.854,-9.891 400.991,-9.94 401.169,-9.94C401.346,-9.94 401.486,-9.889 401.589,-9.786ZM400.07,-1.519C400.429,-1.972 400.609,-2.613 400.609,-3.444C400.609,-4.275 400.429,-4.914 400.07,-5.362C399.71,-5.81 399.199,-6.034 398.537,-6.034C397.874,-6.034 397.358,-5.81 396.99,-5.362C396.621,-4.914 396.437,-4.284 396.437,-3.472C396.437,-2.641 396.621,-1.995 396.99,-1.533C397.358,-1.071 397.874,-0.84 398.537,-0.84C399.199,-0.84 399.71,-1.066 400.07,-1.519Z" style="fill-rule:nonzero;"/>
                <path d="M409.398,-6.804C409.496,-6.701 409.545,-6.566 409.545,-6.398L409.545,-0.476C409.545,-0.317 409.496,-0.187 409.398,-0.084C409.3,0.019 409.162,0.07 408.985,0.07C408.817,0.07 408.684,0.021 408.586,-0.077C408.488,-0.175 408.439,-0.303 408.439,-0.462L408.439,-1.162C408.224,-0.751 407.923,-0.439 407.536,-0.224C407.149,-0.009 406.712,0.098 406.227,0.098C405.415,0.098 404.804,-0.128 404.393,-0.581C403.982,-1.034 403.777,-1.703 403.777,-2.59L403.777,-6.398C403.777,-6.566 403.828,-6.701 403.931,-6.804C404.034,-6.907 404.174,-6.958 404.351,-6.958C404.528,-6.958 404.666,-6.907 404.764,-6.804C404.862,-6.701 404.911,-6.566 404.911,-6.398L404.911,-2.618C404.911,-2.011 405.032,-1.566 405.275,-1.281C405.518,-0.996 405.9,-0.854 406.423,-0.854C407.02,-0.854 407.501,-1.048 407.865,-1.435C408.229,-1.822 408.411,-2.333 408.411,-2.968L408.411,-6.398C408.411,-6.566 408.462,-6.701 408.565,-6.804C408.668,-6.907 408.808,-6.958 408.985,-6.958C409.162,-6.958 409.3,-6.907 409.398,-6.804Z" style="fill-rule:nonzero;"/>
                <path d="M412.748,-0.336C412.258,-0.625 411.88,-1.036 411.614,-1.568C411.348,-2.1 411.215,-2.716 411.215,-3.416C411.215,-4.116 411.353,-4.737 411.628,-5.278C411.904,-5.819 412.289,-6.239 412.783,-6.538C413.278,-6.837 413.847,-6.986 414.491,-6.986C414.846,-6.986 415.198,-6.937 415.548,-6.839C415.898,-6.741 416.204,-6.599 416.465,-6.412C416.633,-6.3 416.752,-6.19 416.822,-6.083C416.892,-5.976 416.927,-5.857 416.927,-5.726C416.927,-5.595 416.892,-5.488 416.822,-5.404C416.752,-5.32 416.661,-5.278 416.549,-5.278C416.484,-5.278 416.414,-5.297 416.339,-5.334C416.265,-5.371 416.202,-5.409 416.15,-5.446C416.099,-5.483 416.064,-5.507 416.045,-5.516C415.803,-5.675 415.572,-5.801 415.352,-5.894C415.133,-5.987 414.865,-6.034 414.547,-6.034C413.866,-6.034 413.336,-5.803 412.958,-5.341C412.58,-4.879 412.391,-4.237 412.391,-3.416C412.391,-2.595 412.58,-1.96 412.958,-1.512C413.336,-1.064 413.866,-0.84 414.547,-0.84C414.865,-0.84 415.138,-0.887 415.366,-0.98C415.595,-1.073 415.826,-1.199 416.059,-1.358C416.162,-1.423 416.26,-1.479 416.353,-1.526C416.447,-1.573 416.526,-1.596 416.591,-1.596C416.694,-1.596 416.78,-1.554 416.85,-1.47C416.92,-1.386 416.955,-1.279 416.955,-1.148C416.955,-1.027 416.923,-0.917 416.857,-0.819C416.792,-0.721 416.671,-0.611 416.493,-0.49C416.232,-0.313 415.917,-0.17 415.548,-0.063C415.18,0.044 414.809,0.098 414.435,0.098C413.801,0.098 413.238,-0.047 412.748,-0.336Z" style="fill-rule:nonzero;"/>
                <path d="M418.451,-0.077C418.343,-0.175 418.29,-0.313 418.29,-0.49L418.29,-6.398C418.29,-6.575 418.343,-6.713 418.451,-6.811C418.558,-6.909 418.696,-6.958 418.864,-6.958C419.032,-6.958 419.167,-6.909 419.27,-6.811C419.372,-6.713 419.424,-6.575 419.424,-6.398L419.424,-0.49C419.424,-0.303 419.372,-0.163 419.27,-0.07C419.167,0.023 419.032,0.07 418.864,0.07C418.696,0.07 418.558,0.021 418.451,-0.077ZM418.318,-8.624C418.178,-8.755 418.108,-8.927 418.108,-9.142C418.108,-9.347 418.178,-9.515 418.318,-9.646C418.458,-9.777 418.64,-9.842 418.864,-9.842C419.088,-9.842 419.27,-9.777 419.41,-9.646C419.55,-9.515 419.62,-9.347 419.62,-9.142C419.62,-8.927 419.55,-8.755 419.41,-8.624C419.27,-8.493 419.088,-8.428 418.864,-8.428C418.64,-8.428 418.458,-8.493 418.318,-8.624Z" style="fill-rule:nonzero;"/>
                <path d="M427.38,-4.284L427.38,-0.49C427.38,-0.313 427.331,-0.175 427.233,-0.077C427.135,0.021 426.997,0.07 426.82,0.07C426.642,0.07 426.502,0.021 426.4,-0.077C426.297,-0.175 426.246,-0.313 426.246,-0.49L426.246,-4.214C426.246,-4.849 426.122,-5.311 425.875,-5.6C425.627,-5.889 425.233,-6.034 424.692,-6.034C424.066,-6.034 423.567,-5.843 423.194,-5.46C422.82,-5.077 422.634,-4.559 422.634,-3.906L422.634,-0.49C422.634,-0.313 422.585,-0.175 422.487,-0.077C422.389,0.021 422.251,0.07 422.074,0.07C421.896,0.07 421.756,0.021 421.654,-0.077C421.551,-0.175 421.5,-0.313 421.5,-0.49L421.5,-6.398C421.5,-6.566 421.551,-6.701 421.654,-6.804C421.756,-6.907 421.896,-6.958 422.074,-6.958C422.242,-6.958 422.375,-6.907 422.473,-6.804C422.571,-6.701 422.62,-6.571 422.62,-6.412L422.62,-5.698C422.844,-6.118 423.156,-6.438 423.558,-6.657C423.959,-6.876 424.416,-6.986 424.93,-6.986C426.563,-6.986 427.38,-6.085 427.38,-4.284Z" style="fill-rule:nonzero;"/>
                <path d="M435.364,-6.804C435.467,-6.701 435.518,-6.566 435.518,-6.398L435.518,-0.462C435.518,0.555 435.257,1.323 434.734,1.841C434.211,2.359 433.437,2.618 432.41,2.618C431.411,2.618 430.581,2.422 429.918,2.03C429.582,1.843 429.414,1.629 429.414,1.386C429.414,1.255 429.449,1.148 429.519,1.064C429.589,0.98 429.68,0.938 429.792,0.938C429.885,0.938 430.053,1.003 430.296,1.134C430.623,1.302 430.945,1.437 431.262,1.54C431.579,1.643 431.957,1.694 432.396,1.694C433.059,1.694 433.558,1.519 433.894,1.169C434.23,0.819 434.398,0.308 434.398,-0.364L434.398,-1.568C434.202,-1.129 433.901,-0.793 433.495,-0.56C433.089,-0.327 432.611,-0.21 432.06,-0.21C431.463,-0.21 430.933,-0.35 430.471,-0.63C430.009,-0.91 429.65,-1.307 429.393,-1.82C429.136,-2.333 429.008,-2.926 429.008,-3.598C429.008,-4.27 429.136,-4.863 429.393,-5.376C429.65,-5.889 430.009,-6.286 430.471,-6.566C430.933,-6.846 431.463,-6.986 432.06,-6.986C432.601,-6.986 433.073,-6.869 433.474,-6.636C433.875,-6.403 434.179,-6.071 434.384,-5.642L434.384,-6.398C434.384,-6.566 434.433,-6.701 434.531,-6.804C434.629,-6.907 434.767,-6.958 434.944,-6.958C435.121,-6.958 435.261,-6.907 435.364,-6.804ZM433.824,-1.799C434.197,-2.233 434.384,-2.833 434.384,-3.598C434.384,-4.354 434.2,-4.949 433.831,-5.383C433.462,-5.817 432.947,-6.034 432.284,-6.034C431.621,-6.034 431.101,-5.817 430.723,-5.383C430.345,-4.949 430.156,-4.354 430.156,-3.598C430.156,-2.833 430.345,-2.233 430.723,-1.799C431.101,-1.365 431.621,-1.148 432.284,-1.148C432.937,-1.148 433.451,-1.365 433.824,-1.799Z" style="fill-rule:nonzero;"/>
                <path d="M454.133,-9.863C454.226,-9.924 454.329,-9.954 454.441,-9.954C454.59,-9.954 454.718,-9.91 454.826,-9.821C454.933,-9.732 454.987,-9.613 454.987,-9.464C454.987,-9.399 454.973,-9.324 454.945,-9.24L451.781,-0.322C451.734,-0.191 451.655,-0.091 451.543,-0.021C451.431,0.049 451.305,0.084 451.165,0.084C451.034,0.084 450.913,0.049 450.801,-0.021C450.689,-0.091 450.609,-0.191 450.563,-0.322L447.819,-8.078L445.047,-0.322C445,-0.191 444.921,-0.091 444.809,-0.021C444.697,0.049 444.575,0.084 444.445,0.084C444.314,0.084 444.193,0.049 444.081,-0.021C443.969,-0.091 443.889,-0.191 443.843,-0.322L440.665,-9.24C440.637,-9.315 440.623,-9.385 440.623,-9.45C440.623,-9.599 440.681,-9.721 440.798,-9.814C440.914,-9.907 441.047,-9.954 441.197,-9.954C441.309,-9.954 441.414,-9.924 441.512,-9.863C441.61,-9.802 441.677,-9.711 441.715,-9.59L444.473,-1.638L447.273,-9.506C447.319,-9.646 447.394,-9.751 447.497,-9.821C447.599,-9.891 447.711,-9.926 447.833,-9.926C447.954,-9.926 448.066,-9.889 448.169,-9.814C448.271,-9.739 448.346,-9.632 448.393,-9.492L451.151,-1.61L453.937,-9.59C453.974,-9.711 454.039,-9.802 454.133,-9.863Z" style="fill-rule:nonzero;"/>
                <path d="M464.371,-0.42C464.371,-0.28 464.317,-0.163 464.21,-0.07C464.103,0.023 463.974,0.07 463.825,0.07C463.592,0.07 463.428,-0.042 463.335,-0.266L462.341,-2.534L457.063,-2.534L456.055,-0.266C455.962,-0.042 455.798,0.07 455.565,0.07C455.416,0.07 455.285,0.021 455.173,-0.077C455.061,-0.175 455.005,-0.294 455.005,-0.434C455.005,-0.509 455.024,-0.583 455.061,-0.658L459.065,-9.562C459.121,-9.693 459.205,-9.791 459.317,-9.856C459.429,-9.921 459.55,-9.954 459.681,-9.954C459.821,-9.954 459.947,-9.919 460.059,-9.849C460.171,-9.779 460.255,-9.683 460.311,-9.562L464.315,-0.658C464.352,-0.583 464.371,-0.504 464.371,-0.42ZM457.483,-3.486L461.921,-3.486L459.695,-8.512L457.483,-3.486Z" style="fill-rule:nonzero;"/>
                <path d="M473.727,-9.779C473.821,-9.672 473.867,-9.529 473.867,-9.352L473.867,-0.518C473.867,-0.341 473.818,-0.198 473.72,-0.091C473.622,0.016 473.485,0.07 473.307,0.07C473.13,0.07 472.976,-0.009 472.845,-0.168L467.035,-7.938L467.035,-0.518C467.035,-0.341 466.986,-0.198 466.888,-0.091C466.79,0.016 466.657,0.07 466.489,0.07C466.321,0.07 466.191,0.016 466.097,-0.091C466.004,-0.198 465.957,-0.341 465.957,-0.518L465.957,-9.352C465.957,-9.529 466.006,-9.672 466.104,-9.779C466.202,-9.886 466.34,-9.94 466.517,-9.94C466.704,-9.94 466.863,-9.861 466.993,-9.702L472.789,-1.932L472.789,-9.352C472.789,-9.529 472.838,-9.672 472.936,-9.779C473.034,-9.886 473.167,-9.94 473.335,-9.94C473.503,-9.94 473.634,-9.886 473.727,-9.779Z" style="fill-rule:nonzero;"/>
                <path d="M485.02,-4.298L485.02,-0.49C485.02,-0.322 484.971,-0.187 484.873,-0.084C484.775,0.019 484.642,0.07 484.474,0.07C484.306,0.07 484.17,0.019 484.068,-0.084C483.965,-0.187 483.914,-0.322 483.914,-0.49L483.914,-1.162C483.736,-0.761 483.466,-0.45 483.102,-0.231C482.738,-0.012 482.318,0.098 481.842,0.098C481.403,0.098 480.999,0.009 480.631,-0.168C480.262,-0.345 479.97,-0.593 479.756,-0.91C479.541,-1.227 479.434,-1.577 479.434,-1.96C479.434,-2.473 479.564,-2.872 479.826,-3.157C480.087,-3.442 480.516,-3.647 481.114,-3.773C481.711,-3.899 482.542,-3.962 483.606,-3.962L483.914,-3.962L483.914,-4.424C483.914,-4.984 483.799,-5.395 483.571,-5.656C483.342,-5.917 482.971,-6.048 482.458,-6.048C481.823,-6.048 481.179,-5.875 480.526,-5.53C480.274,-5.371 480.096,-5.292 479.994,-5.292C479.882,-5.292 479.788,-5.334 479.714,-5.418C479.639,-5.502 479.602,-5.609 479.602,-5.74C479.602,-5.871 479.641,-5.985 479.721,-6.083C479.8,-6.181 479.928,-6.281 480.106,-6.384C480.432,-6.571 480.803,-6.718 481.219,-6.825C481.634,-6.932 482.047,-6.986 482.458,-6.986C484.166,-6.986 485.02,-6.09 485.02,-4.298ZM483.375,-1.365C483.734,-1.743 483.914,-2.231 483.914,-2.828L483.914,-3.234L483.662,-3.234C482.84,-3.234 482.215,-3.199 481.786,-3.129C481.356,-3.059 481.051,-2.942 480.869,-2.779C480.687,-2.616 480.596,-2.375 480.596,-2.058C480.596,-1.694 480.729,-1.393 480.995,-1.155C481.261,-0.917 481.594,-0.798 481.996,-0.798C482.556,-0.798 483.015,-0.987 483.375,-1.365Z" style="fill-rule:nonzero;"/>
                <path d="M488.181,-0.336C487.691,-0.625 487.313,-1.036 487.047,-1.568C486.781,-2.1 486.648,-2.716 486.648,-3.416C486.648,-4.116 486.786,-4.737 487.061,-5.278C487.336,-5.819 487.721,-6.239 488.216,-6.538C488.711,-6.837 489.28,-6.986 489.924,-6.986C490.279,-6.986 490.631,-6.937 490.981,-6.839C491.331,-6.741 491.637,-6.599 491.898,-6.412C492.066,-6.3 492.185,-6.19 492.255,-6.083C492.325,-5.976 492.36,-5.857 492.36,-5.726C492.36,-5.595 492.325,-5.488 492.255,-5.404C492.185,-5.32 492.094,-5.278 491.982,-5.278C491.917,-5.278 491.847,-5.297 491.772,-5.334C491.697,-5.371 491.634,-5.409 491.583,-5.446C491.532,-5.483 491.497,-5.507 491.478,-5.516C491.235,-5.675 491.004,-5.801 490.785,-5.894C490.566,-5.987 490.297,-6.034 489.98,-6.034C489.299,-6.034 488.769,-5.803 488.391,-5.341C488.013,-4.879 487.824,-4.237 487.824,-3.416C487.824,-2.595 488.013,-1.96 488.391,-1.512C488.769,-1.064 489.299,-0.84 489.98,-0.84C490.297,-0.84 490.57,-0.887 490.799,-0.98C491.028,-1.073 491.259,-1.199 491.492,-1.358C491.595,-1.423 491.693,-1.479 491.786,-1.526C491.879,-1.573 491.959,-1.596 492.024,-1.596C492.127,-1.596 492.213,-1.554 492.283,-1.47C492.353,-1.386 492.388,-1.279 492.388,-1.148C492.388,-1.027 492.355,-0.917 492.29,-0.819C492.225,-0.721 492.103,-0.611 491.926,-0.49C491.665,-0.313 491.35,-0.17 490.981,-0.063C490.612,0.044 490.241,0.098 489.868,0.098C489.233,0.098 488.671,-0.047 488.181,-0.336Z" style="fill-rule:nonzero;"/>
                <path d="M494.849,-0.336C494.359,-0.625 493.981,-1.036 493.715,-1.568C493.449,-2.1 493.316,-2.716 493.316,-3.416C493.316,-4.116 493.454,-4.737 493.729,-5.278C494.005,-5.819 494.39,-6.239 494.884,-6.538C495.379,-6.837 495.948,-6.986 496.592,-6.986C496.947,-6.986 497.299,-6.937 497.649,-6.839C497.999,-6.741 498.305,-6.599 498.566,-6.412C498.734,-6.3 498.853,-6.19 498.923,-6.083C498.993,-5.976 499.028,-5.857 499.028,-5.726C499.028,-5.595 498.993,-5.488 498.923,-5.404C498.853,-5.32 498.762,-5.278 498.65,-5.278C498.585,-5.278 498.515,-5.297 498.44,-5.334C498.366,-5.371 498.303,-5.409 498.251,-5.446C498.2,-5.483 498.165,-5.507 498.146,-5.516C497.904,-5.675 497.673,-5.801 497.453,-5.894C497.234,-5.987 496.966,-6.034 496.648,-6.034C495.967,-6.034 495.437,-5.803 495.059,-5.341C494.681,-4.879 494.492,-4.237 494.492,-3.416C494.492,-2.595 494.681,-1.96 495.059,-1.512C495.437,-1.064 495.967,-0.84 496.648,-0.84C496.966,-0.84 497.239,-0.887 497.467,-0.98C497.696,-1.073 497.927,-1.199 498.16,-1.358C498.263,-1.423 498.361,-1.479 498.454,-1.526C498.548,-1.573 498.627,-1.596 498.692,-1.596C498.795,-1.596 498.881,-1.554 498.951,-1.47C499.021,-1.386 499.056,-1.279 499.056,-1.148C499.056,-1.027 499.024,-0.917 498.958,-0.819C498.893,-0.721 498.772,-0.611 498.594,-0.49C498.333,-0.313 498.018,-0.17 497.649,-0.063C497.281,0.044 496.91,0.098 496.536,0.098C495.902,0.098 495.339,-0.047 494.849,-0.336Z" style="fill-rule:nonzero;"/>
                <path d="M505.935,-1.456C506.009,-1.372 506.047,-1.265 506.047,-1.134C506.047,-0.901 505.883,-0.686 505.557,-0.49C505.221,-0.294 504.866,-0.147 504.493,-0.049C504.119,0.049 503.755,0.098 503.401,0.098C502.346,0.098 501.513,-0.215 500.902,-0.84C500.29,-1.465 499.985,-2.329 499.985,-3.43C499.985,-4.13 500.12,-4.748 500.391,-5.285C500.661,-5.822 501.042,-6.239 501.532,-6.538C502.022,-6.837 502.579,-6.986 503.205,-6.986C504.091,-6.986 504.796,-6.697 505.319,-6.118C505.841,-5.539 506.103,-4.755 506.103,-3.766C506.103,-3.579 506.065,-3.444 505.991,-3.36C505.916,-3.276 505.795,-3.234 505.627,-3.234L501.119,-3.234C501.203,-1.629 501.963,-0.826 503.401,-0.826C503.765,-0.826 504.077,-0.875 504.339,-0.973C504.6,-1.071 504.88,-1.204 505.179,-1.372C505.421,-1.512 505.585,-1.582 505.669,-1.582C505.771,-1.582 505.86,-1.54 505.935,-1.456ZM501.784,-5.544C501.424,-5.171 501.212,-4.643 501.147,-3.962L505.109,-3.962C505.09,-4.653 504.917,-5.182 504.591,-5.551C504.264,-5.92 503.807,-6.104 503.219,-6.104C502.621,-6.104 502.143,-5.917 501.784,-5.544Z" style="fill-rule:nonzero;"/>
                <path d="M507.892,-0.077C507.784,-0.175 507.731,-0.313 507.731,-0.49L507.731,-9.38C507.731,-9.557 507.784,-9.695 507.892,-9.793C507.999,-9.891 508.137,-9.94 508.305,-9.94C508.463,-9.94 508.596,-9.891 508.704,-9.793C508.811,-9.695 508.865,-9.557 508.865,-9.38L508.865,-0.49C508.865,-0.313 508.811,-0.175 508.704,-0.077C508.596,0.021 508.463,0.07 508.305,0.07C508.137,0.07 507.999,0.021 507.892,-0.077Z" style="fill-rule:nonzero;"/>
                <path d="M516.485,-1.456C516.56,-1.372 516.597,-1.265 516.597,-1.134C516.597,-0.901 516.434,-0.686 516.107,-0.49C515.771,-0.294 515.416,-0.147 515.043,-0.049C514.67,0.049 514.306,0.098 513.951,0.098C512.896,0.098 512.063,-0.215 511.452,-0.84C510.841,-1.465 510.535,-2.329 510.535,-3.43C510.535,-4.13 510.67,-4.748 510.941,-5.285C511.212,-5.822 511.592,-6.239 512.082,-6.538C512.572,-6.837 513.13,-6.986 513.755,-6.986C514.642,-6.986 515.346,-6.697 515.869,-6.118C516.392,-5.539 516.653,-4.755 516.653,-3.766C516.653,-3.579 516.616,-3.444 516.541,-3.36C516.466,-3.276 516.345,-3.234 516.177,-3.234L511.669,-3.234C511.753,-1.629 512.514,-0.826 513.951,-0.826C514.315,-0.826 514.628,-0.875 514.889,-0.973C515.15,-1.071 515.43,-1.204 515.729,-1.372C515.972,-1.512 516.135,-1.582 516.219,-1.582C516.322,-1.582 516.41,-1.54 516.485,-1.456ZM512.334,-5.544C511.975,-5.171 511.762,-4.643 511.697,-3.962L515.659,-3.962C515.64,-4.653 515.468,-5.182 515.141,-5.551C514.814,-5.92 514.357,-6.104 513.769,-6.104C513.172,-6.104 512.693,-5.917 512.334,-5.544Z" style="fill-rule:nonzero;"/>
                <path d="M522.243,-6.482C522.243,-6.333 522.201,-6.214 522.117,-6.125C522.033,-6.036 521.889,-5.983 521.683,-5.964L521.263,-5.922C520.638,-5.866 520.174,-5.644 519.87,-5.257C519.567,-4.87 519.415,-4.415 519.415,-3.892L519.415,-0.49C519.415,-0.303 519.364,-0.163 519.261,-0.07C519.159,0.023 519.023,0.07 518.855,0.07C518.687,0.07 518.55,0.021 518.442,-0.077C518.335,-0.175 518.281,-0.313 518.281,-0.49L518.281,-6.398C518.281,-6.575 518.337,-6.713 518.449,-6.811C518.561,-6.909 518.697,-6.958 518.855,-6.958C519.005,-6.958 519.131,-6.909 519.233,-6.811C519.336,-6.713 519.387,-6.58 519.387,-6.412L519.387,-5.628C519.583,-6.039 519.861,-6.351 520.22,-6.566C520.58,-6.781 520.993,-6.907 521.459,-6.944L521.655,-6.958C522.047,-6.986 522.243,-6.827 522.243,-6.482Z" style="fill-rule:nonzero;"/>
                <path d="M528.478,-4.298L528.478,-0.49C528.478,-0.322 528.429,-0.187 528.331,-0.084C528.233,0.019 528.1,0.07 527.932,0.07C527.764,0.07 527.628,0.019 527.526,-0.084C527.423,-0.187 527.372,-0.322 527.372,-0.49L527.372,-1.162C527.194,-0.761 526.924,-0.45 526.56,-0.231C526.196,-0.012 525.776,0.098 525.3,0.098C524.861,0.098 524.457,0.009 524.089,-0.168C523.72,-0.345 523.428,-0.593 523.214,-0.91C522.999,-1.227 522.892,-1.577 522.892,-1.96C522.892,-2.473 523.022,-2.872 523.284,-3.157C523.545,-3.442 523.974,-3.647 524.572,-3.773C525.169,-3.899 526,-3.962 527.064,-3.962L527.372,-3.962L527.372,-4.424C527.372,-4.984 527.257,-5.395 527.029,-5.656C526.8,-5.917 526.429,-6.048 525.916,-6.048C525.281,-6.048 524.637,-5.875 523.984,-5.53C523.732,-5.371 523.554,-5.292 523.452,-5.292C523.34,-5.292 523.246,-5.334 523.172,-5.418C523.097,-5.502 523.06,-5.609 523.06,-5.74C523.06,-5.871 523.099,-5.985 523.179,-6.083C523.258,-6.181 523.386,-6.281 523.564,-6.384C523.89,-6.571 524.261,-6.718 524.677,-6.825C525.092,-6.932 525.505,-6.986 525.916,-6.986C527.624,-6.986 528.478,-6.09 528.478,-4.298ZM526.833,-1.365C527.192,-1.743 527.372,-2.231 527.372,-2.828L527.372,-3.234L527.12,-3.234C526.298,-3.234 525.673,-3.199 525.244,-3.129C524.814,-3.059 524.509,-2.942 524.327,-2.779C524.145,-2.616 524.054,-2.375 524.054,-2.058C524.054,-1.694 524.187,-1.393 524.453,-1.155C524.719,-0.917 525.052,-0.798 525.454,-0.798C526.014,-0.798 526.473,-0.987 526.833,-1.365Z" style="fill-rule:nonzero;"/>
                <path d="M534.152,-0.378C534.152,-0.219 534.094,-0.1 533.977,-0.021C533.86,0.058 533.685,0.089 533.452,0.07L533.074,0.042C532.327,-0.014 531.777,-0.238 531.422,-0.63C531.067,-1.022 530.89,-1.615 530.89,-2.408L530.89,-5.922L529.952,-5.922C529.793,-5.922 529.67,-5.962 529.581,-6.041C529.492,-6.12 529.448,-6.225 529.448,-6.356C529.448,-6.496 529.492,-6.608 529.581,-6.692C529.67,-6.776 529.793,-6.818 529.952,-6.818L530.89,-6.818L530.89,-8.4C530.89,-8.577 530.941,-8.715 531.044,-8.813C531.147,-8.911 531.287,-8.96 531.464,-8.96C531.632,-8.96 531.767,-8.911 531.87,-8.813C531.973,-8.715 532.024,-8.577 532.024,-8.4L532.024,-6.818L533.578,-6.818C533.727,-6.818 533.846,-6.776 533.935,-6.692C534.024,-6.608 534.068,-6.496 534.068,-6.356C534.068,-6.225 534.024,-6.12 533.935,-6.041C533.846,-5.962 533.727,-5.922 533.578,-5.922L532.024,-5.922L532.024,-2.352C532.024,-1.839 532.129,-1.468 532.339,-1.239C532.549,-1.01 532.864,-0.882 533.284,-0.854L533.662,-0.826C533.989,-0.798 534.152,-0.649 534.152,-0.378Z" style="fill-rule:nonzero;"/>
                <path d="M535.395,-0.077C535.288,-0.175 535.234,-0.313 535.234,-0.49L535.234,-6.398C535.234,-6.575 535.288,-6.713 535.395,-6.811C535.502,-6.909 535.64,-6.958 535.808,-6.958C535.976,-6.958 536.111,-6.909 536.214,-6.811C536.317,-6.713 536.368,-6.575 536.368,-6.398L536.368,-0.49C536.368,-0.303 536.317,-0.163 536.214,-0.07C536.111,0.023 535.976,0.07 535.808,0.07C535.64,0.07 535.502,0.021 535.395,-0.077ZM535.262,-8.624C535.122,-8.755 535.052,-8.927 535.052,-9.142C535.052,-9.347 535.122,-9.515 535.262,-9.646C535.402,-9.777 535.584,-9.842 535.808,-9.842C536.032,-9.842 536.214,-9.777 536.354,-9.646C536.494,-9.515 536.564,-9.347 536.564,-9.142C536.564,-8.927 536.494,-8.755 536.354,-8.624C536.214,-8.493 536.032,-8.428 535.808,-8.428C535.584,-8.428 535.402,-8.493 535.262,-8.624Z" style="fill-rule:nonzero;"/>
                <path d="M539.571,-0.336C539.081,-0.625 538.703,-1.038 538.437,-1.575C538.171,-2.112 538.038,-2.735 538.038,-3.444C538.038,-4.153 538.171,-4.776 538.437,-5.313C538.703,-5.85 539.081,-6.263 539.571,-6.552C540.061,-6.841 540.628,-6.986 541.272,-6.986C541.916,-6.986 542.486,-6.841 542.98,-6.552C543.475,-6.263 543.855,-5.85 544.121,-5.313C544.387,-4.776 544.52,-4.153 544.52,-3.444C544.52,-2.735 544.387,-2.112 544.121,-1.575C543.855,-1.038 543.475,-0.625 542.98,-0.336C542.486,-0.047 541.916,0.098 541.272,0.098C540.628,0.098 540.061,-0.047 539.571,-0.336ZM542.819,-1.505C543.179,-1.948 543.358,-2.595 543.358,-3.444C543.358,-4.275 543.176,-4.916 542.812,-5.369C542.448,-5.822 541.935,-6.048 541.272,-6.048C540.61,-6.048 540.096,-5.822 539.732,-5.369C539.368,-4.916 539.186,-4.275 539.186,-3.444C539.186,-2.604 539.366,-1.96 539.725,-1.512C540.085,-1.064 540.6,-0.84 541.272,-0.84C541.944,-0.84 542.46,-1.062 542.819,-1.505Z" style="fill-rule:nonzero;"/>
                <path d="M552.057,-4.284L552.057,-0.49C552.057,-0.313 552.008,-0.175 551.91,-0.077C551.812,0.021 551.674,0.07 551.497,0.07C551.319,0.07 551.179,0.021 551.077,-0.077C550.974,-0.175 550.923,-0.313 550.923,-0.49L550.923,-4.214C550.923,-4.849 550.799,-5.311 550.552,-5.6C550.304,-5.889 549.91,-6.034 549.369,-6.034C548.743,-6.034 548.244,-5.843 547.871,-5.46C547.497,-5.077 547.311,-4.559 547.311,-3.906L547.311,-0.49C547.311,-0.313 547.262,-0.175 547.164,-0.077C547.066,0.021 546.928,0.07 546.751,0.07C546.573,0.07 546.433,0.021 546.331,-0.077C546.228,-0.175 546.177,-0.313 546.177,-0.49L546.177,-6.398C546.177,-6.566 546.228,-6.701 546.331,-6.804C546.433,-6.907 546.573,-6.958 546.751,-6.958C546.919,-6.958 547.052,-6.907 547.15,-6.804C547.248,-6.701 547.297,-6.571 547.297,-6.412L547.297,-5.698C547.521,-6.118 547.833,-6.438 548.235,-6.657C548.636,-6.876 549.093,-6.986 549.607,-6.986C551.24,-6.986 552.057,-6.085 552.057,-4.284Z" style="fill-rule:nonzero;"/>
                <path d="M557.826,-0.077C557.719,-0.175 557.665,-0.313 557.665,-0.49L557.665,-6.398C557.665,-6.575 557.719,-6.713 557.826,-6.811C557.934,-6.909 558.071,-6.958 558.239,-6.958C558.407,-6.958 558.543,-6.909 558.645,-6.811C558.748,-6.713 558.799,-6.575 558.799,-6.398L558.799,-0.49C558.799,-0.303 558.748,-0.163 558.645,-0.07C558.543,0.023 558.407,0.07 558.239,0.07C558.071,0.07 557.934,0.021 557.826,-0.077ZM557.693,-8.624C557.553,-8.755 557.483,-8.927 557.483,-9.142C557.483,-9.347 557.553,-9.515 557.693,-9.646C557.833,-9.777 558.015,-9.842 558.239,-9.842C558.463,-9.842 558.645,-9.777 558.785,-9.646C558.925,-9.515 558.995,-9.347 558.995,-9.142C558.995,-8.927 558.925,-8.755 558.785,-8.624C558.645,-8.493 558.463,-8.428 558.239,-8.428C558.015,-8.428 557.833,-8.493 557.693,-8.624Z" style="fill-rule:nonzero;"/>
                <path d="M566.755,-4.284L566.755,-0.49C566.755,-0.313 566.706,-0.175 566.608,-0.077C566.51,0.021 566.373,0.07 566.195,0.07C566.018,0.07 565.878,0.021 565.775,-0.077C565.673,-0.175 565.621,-0.313 565.621,-0.49L565.621,-4.214C565.621,-4.849 565.498,-5.311 565.25,-5.6C565.003,-5.889 564.609,-6.034 564.067,-6.034C563.442,-6.034 562.943,-5.843 562.569,-5.46C562.196,-5.077 562.009,-4.559 562.009,-3.906L562.009,-0.49C562.009,-0.313 561.96,-0.175 561.862,-0.077C561.764,0.021 561.627,0.07 561.449,0.07C561.272,0.07 561.132,0.021 561.029,-0.077C560.927,-0.175 560.875,-0.313 560.875,-0.49L560.875,-6.398C560.875,-6.566 560.927,-6.701 561.029,-6.804C561.132,-6.907 561.272,-6.958 561.449,-6.958C561.617,-6.958 561.75,-6.907 561.848,-6.804C561.946,-6.701 561.995,-6.571 561.995,-6.412L561.995,-5.698C562.219,-6.118 562.532,-6.438 562.933,-6.657C563.335,-6.876 563.792,-6.986 564.305,-6.986C565.939,-6.986 566.755,-6.085 566.755,-4.284Z" style="fill-rule:nonzero;"/>
                <path d="M572.43,-0.378C572.43,-0.219 572.371,-0.1 572.255,-0.021C572.138,0.058 571.963,0.089 571.73,0.07L571.352,0.042C570.605,-0.014 570.054,-0.238 569.7,-0.63C569.345,-1.022 569.168,-1.615 569.168,-2.408L569.168,-5.922L568.23,-5.922C568.071,-5.922 567.947,-5.962 567.859,-6.041C567.77,-6.12 567.726,-6.225 567.726,-6.356C567.726,-6.496 567.77,-6.608 567.859,-6.692C567.947,-6.776 568.071,-6.818 568.23,-6.818L569.168,-6.818L569.168,-8.4C569.168,-8.577 569.219,-8.715 569.322,-8.813C569.424,-8.911 569.564,-8.96 569.742,-8.96C569.91,-8.96 570.045,-8.911 570.148,-8.813C570.25,-8.715 570.302,-8.577 570.302,-8.4L570.302,-6.818L571.856,-6.818C572.005,-6.818 572.124,-6.776 572.213,-6.692C572.301,-6.608 572.346,-6.496 572.346,-6.356C572.346,-6.225 572.301,-6.12 572.213,-6.041C572.124,-5.962 572.005,-5.922 571.856,-5.922L570.302,-5.922L570.302,-2.352C570.302,-1.839 570.407,-1.468 570.617,-1.239C570.827,-1.01 571.142,-0.882 571.562,-0.854L571.94,-0.826C572.266,-0.798 572.43,-0.649 572.43,-0.378Z" style="fill-rule:nonzero;"/>
                <path d="M574.639,-0.336C574.149,-0.625 573.771,-1.038 573.505,-1.575C573.239,-2.112 573.106,-2.735 573.106,-3.444C573.106,-4.153 573.239,-4.776 573.505,-5.313C573.771,-5.85 574.149,-6.263 574.639,-6.552C575.129,-6.841 575.696,-6.986 576.34,-6.986C576.984,-6.986 577.553,-6.841 578.048,-6.552C578.543,-6.263 578.923,-5.85 579.189,-5.313C579.455,-4.776 579.588,-4.153 579.588,-3.444C579.588,-2.735 579.455,-2.112 579.189,-1.575C578.923,-1.038 578.543,-0.625 578.048,-0.336C577.553,-0.047 576.984,0.098 576.34,0.098C575.696,0.098 575.129,-0.047 574.639,-0.336ZM577.887,-1.505C578.246,-1.948 578.426,-2.595 578.426,-3.444C578.426,-4.275 578.244,-4.916 577.88,-5.369C577.516,-5.822 577.003,-6.048 576.34,-6.048C575.677,-6.048 575.164,-5.822 574.8,-5.369C574.436,-4.916 574.254,-4.275 574.254,-3.444C574.254,-2.604 574.434,-1.96 574.793,-1.512C575.152,-1.064 575.668,-0.84 576.34,-0.84C577.012,-0.84 577.528,-1.062 577.887,-1.505Z" style="fill-rule:nonzero;"/>
                <path d="M588.459,-0.378C588.459,-0.219 588.4,-0.1 588.284,-0.021C588.167,0.058 587.992,0.089 587.759,0.07L587.381,0.042C586.634,-0.014 586.083,-0.238 585.729,-0.63C585.374,-1.022 585.197,-1.615 585.197,-2.408L585.197,-5.922L584.259,-5.922C584.1,-5.922 583.976,-5.962 583.888,-6.041C583.799,-6.12 583.755,-6.225 583.755,-6.356C583.755,-6.496 583.799,-6.608 583.888,-6.692C583.976,-6.776 584.1,-6.818 584.259,-6.818L585.197,-6.818L585.197,-8.4C585.197,-8.577 585.248,-8.715 585.351,-8.813C585.453,-8.911 585.593,-8.96 585.771,-8.96C585.939,-8.96 586.074,-8.911 586.177,-8.813C586.279,-8.715 586.331,-8.577 586.331,-8.4L586.331,-6.818L587.885,-6.818C588.034,-6.818 588.153,-6.776 588.242,-6.692C588.33,-6.608 588.375,-6.496 588.375,-6.356C588.375,-6.225 588.33,-6.12 588.242,-6.041C588.153,-5.962 588.034,-5.922 587.885,-5.922L586.331,-5.922L586.331,-2.352C586.331,-1.839 586.436,-1.468 586.646,-1.239C586.856,-1.01 587.171,-0.882 587.591,-0.854L587.969,-0.826C588.295,-0.798 588.459,-0.649 588.459,-0.378Z" style="fill-rule:nonzero;"/>
                <path d="M594.805,-6.307C595.216,-5.854 595.421,-5.18 595.421,-4.284L595.421,-0.49C595.421,-0.313 595.37,-0.175 595.267,-0.077C595.164,0.021 595.029,0.07 594.861,0.07C594.684,0.07 594.544,0.021 594.441,-0.077C594.338,-0.175 594.287,-0.313 594.287,-0.49L594.287,-4.256C594.287,-4.863 594.163,-5.311 593.916,-5.6C593.669,-5.889 593.274,-6.034 592.733,-6.034C592.108,-6.034 591.608,-5.843 591.235,-5.46C590.862,-5.077 590.675,-4.559 590.675,-3.906L590.675,-0.49C590.675,-0.313 590.626,-0.175 590.528,-0.077C590.43,0.021 590.292,0.07 590.115,0.07C589.938,0.07 589.798,0.021 589.695,-0.077C589.592,-0.175 589.541,-0.313 589.541,-0.49L589.541,-9.394C589.541,-9.553 589.595,-9.683 589.702,-9.786C589.809,-9.889 589.947,-9.94 590.115,-9.94C590.292,-9.94 590.43,-9.891 590.528,-9.793C590.626,-9.695 590.675,-9.562 590.675,-9.394L590.675,-5.726C590.899,-6.137 591.212,-6.449 591.613,-6.664C592.014,-6.879 592.472,-6.986 592.985,-6.986C593.788,-6.986 594.394,-6.76 594.805,-6.307Z" style="fill-rule:nonzero;"/>
                <path d="M602.999,-1.456C603.074,-1.372 603.111,-1.265 603.111,-1.134C603.111,-0.901 602.948,-0.686 602.621,-0.49C602.285,-0.294 601.93,-0.147 601.557,-0.049C601.184,0.049 600.82,0.098 600.465,0.098C599.41,0.098 598.577,-0.215 597.966,-0.84C597.355,-1.465 597.049,-2.329 597.049,-3.43C597.049,-4.13 597.184,-4.748 597.455,-5.285C597.726,-5.822 598.106,-6.239 598.596,-6.538C599.086,-6.837 599.644,-6.986 600.269,-6.986C601.156,-6.986 601.86,-6.697 602.383,-6.118C602.906,-5.539 603.167,-4.755 603.167,-3.766C603.167,-3.579 603.13,-3.444 603.055,-3.36C602.98,-3.276 602.859,-3.234 602.691,-3.234L598.183,-3.234C598.267,-1.629 599.028,-0.826 600.465,-0.826C600.829,-0.826 601.142,-0.875 601.403,-0.973C601.664,-1.071 601.944,-1.204 602.243,-1.372C602.486,-1.512 602.649,-1.582 602.733,-1.582C602.836,-1.582 602.924,-1.54 602.999,-1.456ZM598.848,-5.544C598.489,-5.171 598.276,-4.643 598.211,-3.962L602.173,-3.962C602.154,-4.653 601.982,-5.182 601.655,-5.551C601.328,-5.92 600.871,-6.104 600.283,-6.104C599.686,-6.104 599.207,-5.917 598.848,-5.544Z" style="fill-rule:nonzero;"/>
                <path d="M614.25,-4.284L614.25,-0.49C614.25,-0.313 614.201,-0.175 614.103,-0.077C614.005,0.021 613.867,0.07 613.69,0.07C613.512,0.07 613.372,0.021 613.27,-0.077C613.167,-0.175 613.116,-0.313 613.116,-0.49L613.116,-4.214C613.116,-4.849 612.992,-5.311 612.745,-5.6C612.497,-5.889 612.103,-6.034 611.562,-6.034C610.936,-6.034 610.437,-5.843 610.064,-5.46C609.69,-5.077 609.504,-4.559 609.504,-3.906L609.504,-0.49C609.504,-0.313 609.455,-0.175 609.357,-0.077C609.259,0.021 609.121,0.07 608.944,0.07C608.766,0.07 608.626,0.021 608.524,-0.077C608.421,-0.175 608.37,-0.313 608.37,-0.49L608.37,-6.398C608.37,-6.566 608.421,-6.701 608.524,-6.804C608.626,-6.907 608.766,-6.958 608.944,-6.958C609.112,-6.958 609.245,-6.907 609.343,-6.804C609.441,-6.701 609.49,-6.571 609.49,-6.412L609.49,-5.698C609.714,-6.118 610.026,-6.438 610.428,-6.657C610.829,-6.876 611.286,-6.986 611.8,-6.986C613.433,-6.986 614.25,-6.085 614.25,-4.284Z" style="fill-rule:nonzero;"/>
                <path d="M621.828,-1.456C621.903,-1.372 621.94,-1.265 621.94,-1.134C621.94,-0.901 621.777,-0.686 621.45,-0.49C621.114,-0.294 620.759,-0.147 620.386,-0.049C620.013,0.049 619.649,0.098 619.294,0.098C618.239,0.098 617.406,-0.215 616.795,-0.84C616.184,-1.465 615.878,-2.329 615.878,-3.43C615.878,-4.13 616.013,-4.748 616.284,-5.285C616.555,-5.822 616.935,-6.239 617.425,-6.538C617.915,-6.837 618.473,-6.986 619.098,-6.986C619.985,-6.986 620.689,-6.697 621.212,-6.118C621.735,-5.539 621.996,-4.755 621.996,-3.766C621.996,-3.579 621.959,-3.444 621.884,-3.36C621.809,-3.276 621.688,-3.234 621.52,-3.234L617.012,-3.234C617.096,-1.629 617.857,-0.826 619.294,-0.826C619.658,-0.826 619.971,-0.875 620.232,-0.973C620.493,-1.071 620.773,-1.204 621.072,-1.372C621.315,-1.512 621.478,-1.582 621.562,-1.582C621.665,-1.582 621.753,-1.54 621.828,-1.456ZM617.677,-5.544C617.318,-5.171 617.105,-4.643 617.04,-3.962L621.002,-3.962C620.983,-4.653 620.811,-5.182 620.484,-5.551C620.157,-5.92 619.7,-6.104 619.112,-6.104C618.515,-6.104 618.036,-5.917 617.677,-5.544Z" style="fill-rule:nonzero;"/>
                <path d="M627.222,-0.378C627.222,-0.219 627.164,-0.1 627.047,-0.021C626.931,0.058 626.756,0.089 626.522,0.07L626.144,0.042C625.398,-0.014 624.847,-0.238 624.492,-0.63C624.138,-1.022 623.96,-1.615 623.96,-2.408L623.96,-5.922L623.022,-5.922C622.864,-5.922 622.74,-5.962 622.651,-6.041C622.563,-6.12 622.518,-6.225 622.518,-6.356C622.518,-6.496 622.563,-6.608 622.651,-6.692C622.74,-6.776 622.864,-6.818 623.022,-6.818L623.96,-6.818L623.96,-8.4C623.96,-8.577 624.012,-8.715 624.114,-8.813C624.217,-8.911 624.357,-8.96 624.534,-8.96C624.702,-8.96 624.838,-8.911 624.94,-8.813C625.043,-8.715 625.094,-8.577 625.094,-8.4L625.094,-6.818L626.648,-6.818C626.798,-6.818 626.917,-6.776 627.005,-6.692C627.094,-6.608 627.138,-6.496 627.138,-6.356C627.138,-6.225 627.094,-6.12 627.005,-6.041C626.917,-5.962 626.798,-5.922 626.648,-5.922L625.094,-5.922L625.094,-2.352C625.094,-1.839 625.199,-1.468 625.409,-1.239C625.619,-1.01 625.934,-0.882 626.354,-0.854L626.732,-0.826C627.059,-0.798 627.222,-0.649 627.222,-0.378Z" style="fill-rule:nonzero;"/>
                <path d="M638.174,-6.93C638.314,-6.93 638.44,-6.883 638.552,-6.79C638.664,-6.697 638.72,-6.58 638.72,-6.44C638.72,-6.375 638.706,-6.305 638.678,-6.23L636.354,-0.35C636.298,-0.229 636.217,-0.133 636.109,-0.063C636.002,0.007 635.883,0.042 635.752,0.042C635.631,0.042 635.517,0.007 635.409,-0.063C635.302,-0.133 635.22,-0.229 635.164,-0.35L633.232,-5.264L631.314,-0.35C631.268,-0.229 631.188,-0.133 631.076,-0.063C630.964,0.007 630.843,0.042 630.712,0.042C630.591,0.042 630.474,0.007 630.362,-0.063C630.25,-0.133 630.166,-0.229 630.11,-0.35L627.786,-6.216C627.758,-6.291 627.744,-6.356 627.744,-6.412C627.744,-6.561 627.807,-6.687 627.933,-6.79C628.059,-6.893 628.197,-6.944 628.346,-6.944C628.57,-6.944 628.729,-6.832 628.822,-6.608L630.74,-1.442L632.714,-6.566C632.77,-6.687 632.847,-6.781 632.945,-6.846C633.043,-6.911 633.148,-6.944 633.26,-6.944C633.382,-6.944 633.491,-6.911 633.589,-6.846C633.687,-6.781 633.76,-6.687 633.806,-6.566L635.78,-1.456L637.712,-6.594C637.806,-6.818 637.96,-6.93 638.174,-6.93Z" style="fill-rule:nonzero;"/>
                <path d="M641.182,-0.336C640.692,-0.625 640.314,-1.038 640.048,-1.575C639.782,-2.112 639.649,-2.735 639.649,-3.444C639.649,-4.153 639.782,-4.776 640.048,-5.313C640.314,-5.85 640.692,-6.263 641.182,-6.552C641.672,-6.841 642.239,-6.986 642.883,-6.986C643.527,-6.986 644.096,-6.841 644.591,-6.552C645.085,-6.263 645.466,-5.85 645.732,-5.313C645.998,-4.776 646.131,-4.153 646.131,-3.444C646.131,-2.735 645.998,-2.112 645.732,-1.575C645.466,-1.038 645.085,-0.625 644.591,-0.336C644.096,-0.047 643.527,0.098 642.883,0.098C642.239,0.098 641.672,-0.047 641.182,-0.336ZM644.43,-1.505C644.789,-1.948 644.969,-2.595 644.969,-3.444C644.969,-4.275 644.787,-4.916 644.423,-5.369C644.059,-5.822 643.545,-6.048 642.883,-6.048C642.22,-6.048 641.707,-5.822 641.343,-5.369C640.979,-4.916 640.797,-4.275 640.797,-3.444C640.797,-2.604 640.976,-1.96 641.336,-1.512C641.695,-1.064 642.211,-0.84 642.883,-0.84C643.555,-0.84 644.07,-1.062 644.43,-1.505Z" style="fill-rule:nonzero;"/>
                <path d="M651.749,-6.482C651.749,-6.333 651.707,-6.214 651.623,-6.125C651.539,-6.036 651.394,-5.983 651.189,-5.964L650.769,-5.922C650.144,-5.866 649.679,-5.644 649.376,-5.257C649.073,-4.87 648.921,-4.415 648.921,-3.892L648.921,-0.49C648.921,-0.303 648.87,-0.163 648.767,-0.07C648.664,0.023 648.529,0.07 648.361,0.07C648.193,0.07 648.055,0.021 647.948,-0.077C647.841,-0.175 647.787,-0.313 647.787,-0.49L647.787,-6.398C647.787,-6.575 647.843,-6.713 647.955,-6.811C648.067,-6.909 648.202,-6.958 648.361,-6.958C648.51,-6.958 648.636,-6.909 648.739,-6.811C648.842,-6.713 648.893,-6.58 648.893,-6.412L648.893,-5.628C649.089,-6.039 649.367,-6.351 649.726,-6.566C650.085,-6.781 650.498,-6.907 650.965,-6.944L651.161,-6.958C651.553,-6.986 651.749,-6.827 651.749,-6.482Z" style="fill-rule:nonzero;"/>
                <path d="M658.361,-0.448C658.361,-0.308 658.312,-0.187 658.214,-0.084C658.116,0.019 657.997,0.07 657.857,0.07C657.736,0.07 657.61,0.014 657.479,-0.098L653.825,-3.248L653.825,-0.49C653.825,-0.313 653.772,-0.175 653.664,-0.077C653.557,0.021 653.424,0.07 653.265,0.07C653.097,0.07 652.96,0.021 652.852,-0.077C652.745,-0.175 652.691,-0.313 652.691,-0.49L652.691,-9.38C652.691,-9.557 652.745,-9.695 652.852,-9.793C652.96,-9.891 653.097,-9.94 653.265,-9.94C653.424,-9.94 653.557,-9.891 653.664,-9.793C653.772,-9.695 653.825,-9.557 653.825,-9.38L653.825,-3.696L657.171,-6.762C657.283,-6.874 657.409,-6.93 657.549,-6.93C657.689,-6.93 657.811,-6.879 657.913,-6.776C658.016,-6.673 658.067,-6.552 658.067,-6.412C658.067,-6.253 658.002,-6.113 657.871,-5.992L655.113,-3.528L658.137,-0.896C658.287,-0.756 658.361,-0.607 658.361,-0.448Z" style="fill-rule:nonzero;"/>
            </g>
        </g>
    </g>
</svg>
