<?xml version="1.0" encoding="UTF-8" standalone="no"?><!DOCTYPE svg PUBLIC "-//W3C//DTD SVG 1.1//EN" "http://www.w3.org/Graphics/SVG/1.1/DTD/svg11.dtd"><svg width="69px" height="16px" version="1.1" xmlns="http://www.w3.org/2000/svg" xmlns:xlink="http://www.w3.org/1999/xlink" xml:space="preserve" xmlns:serif="http://www.serif.com/" style="fill-rule:evenodd;clip-rule:evenodd;stroke-linejoin:round;stroke-miterlimit:1.41421;"><g transform="matrix(1,0,0,1,-152,-504)"><g transform="matrix(1,0,0,1,151.966,519.8)"><g id="Access"><path d="M15.314,-0.864C15.314,-0.59 15.203,-0.36 14.98,-0.173C14.756,0.014 14.508,0.108 14.234,0.108C14.047,0.108 13.871,0.054 13.705,-0.054C13.54,-0.162 13.414,-0.317 13.327,-0.518L11.902,-3.758L3.996,-3.758L2.57,-0.518C2.484,-0.317 2.354,-0.162 2.182,-0.054C2.009,0.054 1.829,0.108 1.642,0.108C1.354,0.108 1.098,0.014 0.875,-0.173C0.652,-0.36 0.54,-0.59 0.54,-0.864C0.54,-0.979 0.576,-1.123 0.648,-1.296L6.739,-14.623C6.84,-14.854 7.002,-15.034 7.225,-15.163C7.448,-15.293 7.682,-15.358 7.927,-15.358C8.172,-15.358 8.406,-15.293 8.629,-15.163C8.852,-15.034 9.014,-14.854 9.115,-14.623L15.206,-1.296C15.278,-1.123 15.314,-0.979 15.314,-0.864ZM4.795,-5.53L11.124,-5.53L7.949,-12.679L4.795,-5.53Z" style="fill:rgb(2,162,137);fill-rule:nonzero;"/><path d="M19.192,-0.518C18.421,-0.965 17.824,-1.598 17.399,-2.419C16.974,-3.24 16.762,-4.19 16.762,-5.27C16.762,-6.365 16.981,-7.33 17.42,-8.165C17.86,-9 18.475,-9.648 19.267,-10.109C20.059,-10.57 20.966,-10.8 21.989,-10.8C22.536,-10.8 23.087,-10.721 23.641,-10.562C24.196,-10.404 24.689,-10.188 25.121,-9.914C25.582,-9.598 25.812,-9.23 25.812,-8.813C25.812,-8.568 25.747,-8.363 25.618,-8.197C25.488,-8.032 25.322,-7.949 25.121,-7.949C24.991,-7.949 24.862,-7.981 24.732,-8.046C24.602,-8.111 24.437,-8.208 24.235,-8.338C23.875,-8.568 23.54,-8.744 23.231,-8.867C22.921,-8.989 22.55,-9.05 22.118,-9.05C21.139,-9.05 20.38,-8.719 19.84,-8.057C19.3,-7.394 19.03,-6.473 19.03,-5.292C19.03,-4.111 19.296,-3.2 19.829,-2.56C20.362,-1.919 21.118,-1.598 22.097,-1.598C22.529,-1.598 22.91,-1.663 23.242,-1.793C23.573,-1.922 23.911,-2.095 24.257,-2.311C24.415,-2.412 24.574,-2.498 24.732,-2.57C24.89,-2.642 25.034,-2.678 25.164,-2.678C25.366,-2.678 25.531,-2.596 25.661,-2.43C25.79,-2.264 25.855,-2.059 25.855,-1.814C25.855,-1.613 25.801,-1.429 25.693,-1.264C25.585,-1.098 25.402,-0.929 25.142,-0.756C24.71,-0.468 24.206,-0.245 23.63,-0.086C23.054,0.072 22.471,0.151 21.881,0.151C20.858,0.151 19.962,-0.072 19.192,-0.518Z" style="fill:rgb(2,162,137);fill-rule:nonzero;"/><path d="M29.624,-0.518C28.854,-0.965 28.256,-1.598 27.832,-2.419C27.407,-3.24 27.194,-4.19 27.194,-5.27C27.194,-6.365 27.414,-7.33 27.853,-8.165C28.292,-9 28.908,-9.648 29.7,-10.109C30.492,-10.57 31.399,-10.8 32.422,-10.8C32.969,-10.8 33.52,-10.721 34.074,-10.562C34.628,-10.404 35.122,-10.188 35.554,-9.914C36.014,-9.598 36.245,-9.23 36.245,-8.813C36.245,-8.568 36.18,-8.363 36.05,-8.197C35.921,-8.032 35.755,-7.949 35.554,-7.949C35.424,-7.949 35.294,-7.981 35.165,-8.046C35.035,-8.111 34.87,-8.208 34.668,-8.338C34.308,-8.568 33.973,-8.744 33.664,-8.867C33.354,-8.989 32.983,-9.05 32.551,-9.05C31.572,-9.05 30.812,-8.719 30.272,-8.057C29.732,-7.394 29.462,-6.473 29.462,-5.292C29.462,-4.111 29.729,-3.2 30.262,-2.56C30.794,-1.919 31.55,-1.598 32.53,-1.598C32.962,-1.598 33.343,-1.663 33.674,-1.793C34.006,-1.922 34.344,-2.095 34.69,-2.311C34.848,-2.412 35.006,-2.498 35.165,-2.57C35.323,-2.642 35.467,-2.678 35.597,-2.678C35.798,-2.678 35.964,-2.596 36.094,-2.43C36.223,-2.264 36.288,-2.059 36.288,-1.814C36.288,-1.613 36.234,-1.429 36.126,-1.264C36.018,-1.098 35.834,-0.929 35.575,-0.756C35.143,-0.468 34.639,-0.245 34.063,-0.086C33.487,0.072 32.904,0.151 32.314,0.151C31.291,0.151 30.395,-0.072 29.624,-0.518Z" style="fill:rgb(2,162,137);fill-rule:nonzero;"/><path d="M46.98,-2.419C47.11,-2.261 47.174,-2.059 47.174,-1.814C47.174,-1.397 46.915,-1.044 46.397,-0.756C45.893,-0.468 45.342,-0.245 44.744,-0.086C44.147,0.072 43.574,0.151 43.027,0.151C41.357,0.151 40.039,-0.335 39.074,-1.307C38.11,-2.279 37.627,-3.607 37.627,-5.292C37.627,-6.372 37.84,-7.33 38.264,-8.165C38.689,-9 39.287,-9.648 40.057,-10.109C40.828,-10.57 41.702,-10.8 42.682,-10.8C44.093,-10.8 45.209,-10.346 46.03,-9.439C46.85,-8.532 47.261,-7.308 47.261,-5.767C47.261,-5.191 47.002,-4.903 46.483,-4.903L39.809,-4.903C39.953,-2.671 41.026,-1.555 43.027,-1.555C43.56,-1.555 44.021,-1.627 44.41,-1.771C44.798,-1.915 45.209,-2.102 45.641,-2.333C45.684,-2.362 45.803,-2.423 45.997,-2.516C46.192,-2.61 46.354,-2.657 46.483,-2.657C46.685,-2.657 46.85,-2.578 46.98,-2.419ZM40.716,-8.402C40.212,-7.87 39.91,-7.121 39.809,-6.156L45.382,-6.156C45.338,-7.135 45.09,-7.888 44.636,-8.413C44.183,-8.939 43.546,-9.202 42.725,-9.202C41.89,-9.202 41.22,-8.935 40.716,-8.402Z" style="fill:rgb(2,162,137);fill-rule:nonzero;"/><path d="M49.723,-0.756C49.464,-0.914 49.28,-1.08 49.172,-1.253C49.064,-1.426 49.01,-1.62 49.01,-1.836C49.01,-2.066 49.075,-2.261 49.205,-2.419C49.334,-2.578 49.5,-2.657 49.702,-2.657C49.889,-2.657 50.184,-2.542 50.587,-2.311C51.019,-2.081 51.44,-1.894 51.851,-1.75C52.261,-1.606 52.776,-1.534 53.395,-1.534C54.086,-1.534 54.626,-1.656 55.015,-1.901C55.404,-2.146 55.598,-2.491 55.598,-2.938C55.598,-3.226 55.523,-3.456 55.372,-3.629C55.22,-3.802 54.958,-3.956 54.583,-4.093C54.209,-4.23 53.654,-4.378 52.92,-4.536C51.653,-4.81 50.742,-5.18 50.188,-5.648C49.633,-6.116 49.356,-6.754 49.356,-7.56C49.356,-8.179 49.536,-8.737 49.896,-9.234C50.256,-9.731 50.753,-10.116 51.386,-10.39C52.02,-10.663 52.74,-10.8 53.546,-10.8C54.122,-10.8 54.684,-10.724 55.231,-10.573C55.778,-10.422 56.261,-10.202 56.678,-9.914C57.154,-9.598 57.391,-9.23 57.391,-8.813C57.391,-8.582 57.323,-8.388 57.186,-8.23C57.049,-8.071 56.887,-7.992 56.7,-7.992C56.57,-7.992 56.441,-8.021 56.311,-8.078C56.182,-8.136 56.009,-8.23 55.793,-8.359C55.404,-8.59 55.04,-8.77 54.702,-8.899C54.364,-9.029 53.942,-9.094 53.438,-9.094C52.834,-9.094 52.348,-8.964 51.98,-8.705C51.613,-8.446 51.43,-8.093 51.43,-7.646C51.43,-7.243 51.599,-6.93 51.937,-6.707C52.276,-6.484 52.913,-6.271 53.849,-6.07C54.814,-5.868 55.57,-5.638 56.117,-5.378C56.664,-5.119 57.056,-4.799 57.294,-4.417C57.532,-4.036 57.65,-3.55 57.65,-2.959C57.65,-2.023 57.258,-1.271 56.473,-0.702C55.688,-0.133 54.641,0.151 53.33,0.151C51.862,0.151 50.659,-0.151 49.723,-0.756Z" style="fill:rgb(2,162,137);fill-rule:nonzero;"/><path d="M60.134,-0.756C59.875,-0.914 59.692,-1.08 59.584,-1.253C59.476,-1.426 59.422,-1.62 59.422,-1.836C59.422,-2.066 59.486,-2.261 59.616,-2.419C59.746,-2.578 59.911,-2.657 60.113,-2.657C60.3,-2.657 60.595,-2.542 60.998,-2.311C61.43,-2.081 61.852,-1.894 62.262,-1.75C62.672,-1.606 63.187,-1.534 63.806,-1.534C64.498,-1.534 65.038,-1.656 65.426,-1.901C65.815,-2.146 66.01,-2.491 66.01,-2.938C66.01,-3.226 65.934,-3.456 65.783,-3.629C65.632,-3.802 65.369,-3.956 64.994,-4.093C64.62,-4.23 64.066,-4.378 63.331,-4.536C62.064,-4.81 61.153,-5.18 60.599,-5.648C60.044,-6.116 59.767,-6.754 59.767,-7.56C59.767,-8.179 59.947,-8.737 60.307,-9.234C60.667,-9.731 61.164,-10.116 61.798,-10.39C62.431,-10.663 63.151,-10.8 63.958,-10.8C64.534,-10.8 65.095,-10.724 65.642,-10.573C66.19,-10.422 66.672,-10.202 67.09,-9.914C67.565,-9.598 67.802,-9.23 67.802,-8.813C67.802,-8.582 67.734,-8.388 67.597,-8.23C67.46,-8.071 67.298,-7.992 67.111,-7.992C66.982,-7.992 66.852,-8.021 66.722,-8.078C66.593,-8.136 66.42,-8.23 66.204,-8.359C65.815,-8.59 65.452,-8.77 65.113,-8.899C64.775,-9.029 64.354,-9.094 63.85,-9.094C63.245,-9.094 62.759,-8.964 62.392,-8.705C62.024,-8.446 61.841,-8.093 61.841,-7.646C61.841,-7.243 62.01,-6.93 62.348,-6.707C62.687,-6.484 63.324,-6.271 64.26,-6.07C65.225,-5.868 65.981,-5.638 66.528,-5.378C67.075,-5.119 67.468,-4.799 67.705,-4.417C67.943,-4.036 68.062,-3.55 68.062,-2.959C68.062,-2.023 67.669,-1.271 66.884,-0.702C66.1,-0.133 65.052,0.151 63.742,0.151C62.273,0.151 61.07,-0.151 60.134,-0.756Z" style="fill:rgb(2,162,137);fill-rule:nonzero;"/></g></g></g></svg>