<?xml version="1.0" encoding="UTF-8" standalone="no"?><!DOCTYPE svg PUBLIC "-//W3C//DTD SVG 1.1//EN" "http://www.w3.org/Graphics/SVG/1.1/DTD/svg11.dtd"><svg width="222px" height="20px" version="1.1" xmlns="http://www.w3.org/2000/svg" xmlns:xlink="http://www.w3.org/1999/xlink" xml:space="preserve" xmlns:serif="http://www.serif.com/" style="fill-rule:evenodd;clip-rule:evenodd;stroke-linejoin:round;stroke-miterlimit:1.41421;"><g transform="matrix(1,0,0,1,-864,-504)"><g transform="matrix(1,0,0,1,863.711,519.8)"><g id="Corporate-Data-Cente"><path d="M4.601,-0.767C3.521,-1.393 2.693,-2.293 2.117,-3.467C1.541,-4.64 1.253,-6.026 1.253,-7.625C1.253,-9.209 1.541,-10.588 2.117,-11.761C2.693,-12.935 3.521,-13.835 4.601,-14.461C5.681,-15.088 6.948,-15.401 8.402,-15.401C9.353,-15.401 10.253,-15.253 11.102,-14.958C11.952,-14.663 12.694,-14.234 13.327,-13.673C13.601,-13.457 13.738,-13.169 13.738,-12.809C13.738,-12.55 13.666,-12.33 13.522,-12.15C13.378,-11.97 13.205,-11.88 13.003,-11.88C12.758,-11.88 12.521,-11.974 12.29,-12.161C11.599,-12.679 10.969,-13.043 10.4,-13.252C9.832,-13.46 9.187,-13.565 8.467,-13.565C6.883,-13.565 5.666,-13.054 4.817,-12.031C3.967,-11.009 3.542,-9.54 3.542,-7.625C3.542,-5.695 3.967,-4.219 4.817,-3.197C5.666,-2.174 6.883,-1.663 8.467,-1.663C9.158,-1.663 9.788,-1.771 10.357,-1.987C10.926,-2.203 11.57,-2.563 12.29,-3.067C12.578,-3.254 12.816,-3.348 13.003,-3.348C13.205,-3.348 13.378,-3.258 13.522,-3.078C13.666,-2.898 13.738,-2.678 13.738,-2.419C13.738,-2.059 13.601,-1.771 13.327,-1.555C12.694,-0.994 11.952,-0.565 11.102,-0.27C10.253,0.025 9.353,0.173 8.402,0.173C6.948,0.173 5.681,-0.14 4.601,-0.767Z" style="fill:rgb(2,137,180);fill-rule:nonzero;"/><path d="M17.766,-0.518C16.981,-0.965 16.376,-1.602 15.952,-2.43C15.527,-3.258 15.314,-4.219 15.314,-5.314C15.314,-6.422 15.527,-7.391 15.952,-8.219C16.376,-9.047 16.981,-9.684 17.766,-10.13C18.551,-10.577 19.462,-10.8 20.498,-10.8C21.535,-10.8 22.446,-10.577 23.231,-10.13C24.016,-9.684 24.62,-9.047 25.045,-8.219C25.47,-7.391 25.682,-6.422 25.682,-5.314C25.682,-4.219 25.47,-3.258 25.045,-2.43C24.62,-1.602 24.016,-0.965 23.231,-0.518C22.446,-0.072 21.535,0.151 20.498,0.151C19.462,0.151 18.551,-0.072 17.766,-0.518ZM22.712,-2.527C23.224,-3.161 23.479,-4.09 23.479,-5.314C23.479,-6.523 23.22,-7.448 22.702,-8.089C22.183,-8.73 21.449,-9.05 20.498,-9.05C19.548,-9.05 18.814,-8.73 18.295,-8.089C17.777,-7.448 17.518,-6.523 17.518,-5.314C17.518,-4.09 17.773,-3.161 18.284,-2.527C18.796,-1.894 19.534,-1.577 20.498,-1.577C21.463,-1.577 22.201,-1.894 22.712,-2.527Z" style="fill:rgb(2,137,180);fill-rule:nonzero;"/><path d="M34.668,-9.871C34.668,-9.554 34.589,-9.317 34.43,-9.158C34.272,-9 33.998,-8.906 33.61,-8.878L32.962,-8.813C32.054,-8.726 31.381,-8.41 30.942,-7.862C30.503,-7.315 30.283,-6.653 30.283,-5.875L30.283,-0.929C30.283,-0.583 30.182,-0.324 29.981,-0.151C29.779,0.022 29.52,0.108 29.203,0.108C28.886,0.108 28.624,0.022 28.415,-0.151C28.206,-0.324 28.102,-0.583 28.102,-0.929L28.102,-9.72C28.102,-10.051 28.206,-10.307 28.415,-10.487C28.624,-10.667 28.886,-10.757 29.203,-10.757C29.491,-10.757 29.732,-10.667 29.927,-10.487C30.121,-10.307 30.218,-10.058 30.218,-9.742L30.218,-8.705C30.506,-9.338 30.924,-9.821 31.471,-10.152C32.018,-10.483 32.638,-10.678 33.329,-10.735L33.631,-10.757C34.322,-10.8 34.668,-10.505 34.668,-9.871Z" style="fill:rgb(2,137,180);fill-rule:nonzero;"/><path d="M44.096,-10.109C44.809,-9.648 45.364,-9 45.76,-8.165C46.156,-7.33 46.354,-6.365 46.354,-5.27C46.354,-4.19 46.159,-3.24 45.77,-2.419C45.382,-1.598 44.831,-0.965 44.118,-0.518C43.405,-0.072 42.588,0.151 41.666,0.151C40.874,0.151 40.176,-0.018 39.571,-0.356C38.966,-0.695 38.506,-1.181 38.189,-1.814L38.189,3.002C38.189,3.305 38.092,3.546 37.897,3.726C37.703,3.906 37.447,3.996 37.13,3.996C36.799,3.996 36.529,3.902 36.32,3.715C36.112,3.528 36.007,3.276 36.007,2.959L36.007,-9.698C36.007,-10.015 36.108,-10.271 36.31,-10.465C36.511,-10.66 36.778,-10.757 37.109,-10.757C37.426,-10.757 37.685,-10.66 37.886,-10.465C38.088,-10.271 38.189,-10.015 38.189,-9.698L38.189,-8.813C38.506,-9.446 38.966,-9.936 39.571,-10.282C40.176,-10.627 40.874,-10.8 41.666,-10.8C42.574,-10.8 43.384,-10.57 44.096,-10.109ZM43.351,-2.538C43.87,-3.179 44.129,-4.09 44.129,-5.27C44.129,-6.466 43.866,-7.394 43.34,-8.057C42.815,-8.719 42.084,-9.05 41.148,-9.05C40.198,-9.05 39.467,-8.726 38.956,-8.078C38.444,-7.43 38.189,-6.509 38.189,-5.314C38.189,-4.118 38.444,-3.197 38.956,-2.549C39.467,-1.901 40.198,-1.577 41.148,-1.577C42.098,-1.577 42.833,-1.897 43.351,-2.538Z" style="fill:rgb(2,137,180);fill-rule:nonzero;"/><path d="M50.62,-0.518C49.835,-0.965 49.23,-1.602 48.805,-2.43C48.38,-3.258 48.168,-4.219 48.168,-5.314C48.168,-6.422 48.38,-7.391 48.805,-8.219C49.23,-9.047 49.835,-9.684 50.62,-10.13C51.404,-10.577 52.315,-10.8 53.352,-10.8C54.389,-10.8 55.3,-10.577 56.084,-10.13C56.869,-9.684 57.474,-9.047 57.899,-8.219C58.324,-7.391 58.536,-6.422 58.536,-5.314C58.536,-4.219 58.324,-3.258 57.899,-2.43C57.474,-1.602 56.869,-0.965 56.084,-0.518C55.3,-0.072 54.389,0.151 53.352,0.151C52.315,0.151 51.404,-0.072 50.62,-0.518ZM55.566,-2.527C56.077,-3.161 56.333,-4.09 56.333,-5.314C56.333,-6.523 56.074,-7.448 55.555,-8.089C55.037,-8.73 54.302,-9.05 53.352,-9.05C52.402,-9.05 51.667,-8.73 51.149,-8.089C50.63,-7.448 50.371,-6.523 50.371,-5.314C50.371,-4.09 50.627,-3.161 51.138,-2.527C51.649,-1.894 52.387,-1.577 53.352,-1.577C54.317,-1.577 55.055,-1.894 55.566,-2.527Z" style="fill:rgb(2,137,180);fill-rule:nonzero;"/><path d="M67.522,-9.871C67.522,-9.554 67.442,-9.317 67.284,-9.158C67.126,-9 66.852,-8.906 66.463,-8.878L65.815,-8.813C64.908,-8.726 64.235,-8.41 63.796,-7.862C63.356,-7.315 63.137,-6.653 63.137,-5.875L63.137,-0.929C63.137,-0.583 63.036,-0.324 62.834,-0.151C62.633,0.022 62.374,0.108 62.057,0.108C61.74,0.108 61.477,0.022 61.268,-0.151C61.06,-0.324 60.955,-0.583 60.955,-0.929L60.955,-9.72C60.955,-10.051 61.06,-10.307 61.268,-10.487C61.477,-10.667 61.74,-10.757 62.057,-10.757C62.345,-10.757 62.586,-10.667 62.78,-10.487C62.975,-10.307 63.072,-10.058 63.072,-9.742L63.072,-8.705C63.36,-9.338 63.778,-9.821 64.325,-10.152C64.872,-10.483 65.491,-10.678 66.182,-10.735L66.485,-10.757C67.176,-10.8 67.522,-10.505 67.522,-9.871Z" style="fill:rgb(2,137,180);fill-rule:nonzero;"/><path d="M76.345,-9.742C77.029,-9.036 77.371,-7.963 77.371,-6.523L77.371,-0.929C77.371,-0.598 77.278,-0.342 77.09,-0.162C76.903,0.018 76.644,0.108 76.313,0.108C75.996,0.108 75.744,0.014 75.557,-0.173C75.37,-0.36 75.276,-0.612 75.276,-0.929L75.276,-1.728C75.002,-1.123 74.596,-0.659 74.056,-0.335C73.516,-0.011 72.886,0.151 72.166,0.151C71.474,0.151 70.841,0.011 70.265,-0.27C69.689,-0.551 69.239,-0.943 68.915,-1.447C68.591,-1.951 68.429,-2.513 68.429,-3.132C68.429,-3.895 68.627,-4.496 69.023,-4.936C69.419,-5.375 70.074,-5.688 70.988,-5.875C71.903,-6.062 73.159,-6.156 74.758,-6.156L75.254,-6.156L75.254,-6.782C75.254,-7.589 75.089,-8.172 74.758,-8.532C74.426,-8.892 73.894,-9.072 73.159,-9.072C72.655,-9.072 72.18,-9.007 71.734,-8.878C71.287,-8.748 70.798,-8.561 70.265,-8.316C69.876,-8.1 69.602,-7.992 69.444,-7.992C69.228,-7.992 69.052,-8.071 68.915,-8.23C68.778,-8.388 68.71,-8.59 68.71,-8.834C68.71,-9.05 68.771,-9.241 68.893,-9.407C69.016,-9.572 69.214,-9.734 69.487,-9.893C69.991,-10.166 70.582,-10.386 71.258,-10.552C71.935,-10.717 72.59,-10.8 73.224,-10.8C74.621,-10.8 75.661,-10.447 76.345,-9.742ZM74.498,-2.279C75.002,-2.819 75.254,-3.514 75.254,-4.363L75.254,-4.925L74.866,-4.925C73.742,-4.925 72.878,-4.874 72.274,-4.774C71.669,-4.673 71.237,-4.504 70.978,-4.266C70.718,-4.028 70.589,-3.686 70.589,-3.24C70.589,-2.722 70.776,-2.297 71.15,-1.966C71.525,-1.634 71.993,-1.469 72.554,-1.469C73.346,-1.469 73.994,-1.739 74.498,-2.279Z" style="fill:rgb(2,137,180);fill-rule:nonzero;"/><path d="M86.195,-1.307C86.332,-1.17 86.4,-0.979 86.4,-0.734C86.4,-0.446 86.288,-0.227 86.065,-0.076C85.842,0.076 85.514,0.137 85.082,0.108L84.499,0.065C83.333,-0.022 82.462,-0.378 81.886,-1.004C81.31,-1.631 81.022,-2.556 81.022,-3.78L81.022,-8.856L79.726,-8.856C79.092,-8.856 78.775,-9.137 78.775,-9.698C78.775,-9.958 78.858,-10.163 79.024,-10.314C79.189,-10.465 79.423,-10.541 79.726,-10.541L81.022,-10.541L81.022,-12.766C81.022,-13.097 81.119,-13.356 81.313,-13.543C81.508,-13.73 81.77,-13.824 82.102,-13.824C82.433,-13.824 82.699,-13.73 82.901,-13.543C83.102,-13.356 83.203,-13.097 83.203,-12.766L83.203,-10.541L85.342,-10.541C85.644,-10.541 85.878,-10.465 86.044,-10.314C86.209,-10.163 86.292,-9.958 86.292,-9.698C86.292,-9.425 86.209,-9.216 86.044,-9.072C85.878,-8.928 85.644,-8.856 85.342,-8.856L83.203,-8.856L83.203,-3.629C83.203,-2.952 83.344,-2.455 83.624,-2.138C83.905,-1.822 84.334,-1.642 84.91,-1.598L85.514,-1.555C85.831,-1.526 86.058,-1.444 86.195,-1.307Z" style="fill:rgb(2,137,180);fill-rule:nonzero;"/><path d="M96.725,-2.419C96.854,-2.261 96.919,-2.059 96.919,-1.814C96.919,-1.397 96.66,-1.044 96.142,-0.756C95.638,-0.468 95.087,-0.245 94.489,-0.086C93.892,0.072 93.319,0.151 92.772,0.151C91.102,0.151 89.784,-0.335 88.819,-1.307C87.854,-2.279 87.372,-3.607 87.372,-5.292C87.372,-6.372 87.584,-7.33 88.009,-8.165C88.434,-9 89.032,-9.648 89.802,-10.109C90.572,-10.57 91.447,-10.8 92.426,-10.8C93.838,-10.8 94.954,-10.346 95.774,-9.439C96.595,-8.532 97.006,-7.308 97.006,-5.767C97.006,-5.191 96.746,-4.903 96.228,-4.903L89.554,-4.903C89.698,-2.671 90.77,-1.555 92.772,-1.555C93.305,-1.555 93.766,-1.627 94.154,-1.771C94.543,-1.915 94.954,-2.102 95.386,-2.333C95.429,-2.362 95.548,-2.423 95.742,-2.516C95.936,-2.61 96.098,-2.657 96.228,-2.657C96.43,-2.657 96.595,-2.578 96.725,-2.419ZM90.461,-8.402C89.957,-7.87 89.654,-7.121 89.554,-6.156L95.126,-6.156C95.083,-7.135 94.835,-7.888 94.381,-8.413C93.928,-8.939 93.29,-9.202 92.47,-9.202C91.634,-9.202 90.965,-8.935 90.461,-8.402Z" style="fill:rgb(2,137,180);fill-rule:nonzero;"/><path d="M105.656,-0.292C105.462,-0.486 105.365,-0.749 105.365,-1.08L105.365,-14.148C105.365,-14.479 105.462,-14.742 105.656,-14.936C105.851,-15.131 106.121,-15.228 106.466,-15.228L110.7,-15.228C113.162,-15.228 115.07,-14.566 116.424,-13.241C117.778,-11.916 118.454,-10.044 118.454,-7.625C118.454,-5.206 117.778,-3.33 116.424,-1.998C115.07,-0.666 113.162,0 110.7,0L106.466,0C106.121,0 105.851,-0.097 105.656,-0.292ZM110.57,-1.858C114.314,-1.858 116.186,-3.78 116.186,-7.625C116.186,-11.455 114.314,-13.37 110.57,-13.37L107.59,-13.37L107.59,-1.858L110.57,-1.858Z" style="fill:rgb(2,137,180);fill-rule:nonzero;"/><path d="M128.768,-9.742C129.452,-9.036 129.794,-7.963 129.794,-6.523L129.794,-0.929C129.794,-0.598 129.701,-0.342 129.514,-0.162C129.326,0.018 129.067,0.108 128.736,0.108C128.419,0.108 128.167,0.014 127.98,-0.173C127.793,-0.36 127.699,-0.612 127.699,-0.929L127.699,-1.728C127.426,-1.123 127.019,-0.659 126.479,-0.335C125.939,-0.011 125.309,0.151 124.589,0.151C123.898,0.151 123.264,0.011 122.688,-0.27C122.112,-0.551 121.662,-0.943 121.338,-1.447C121.014,-1.951 120.852,-2.513 120.852,-3.132C120.852,-3.895 121.05,-4.496 121.446,-4.936C121.842,-5.375 122.497,-5.688 123.412,-5.875C124.326,-6.062 125.582,-6.156 127.181,-6.156L127.678,-6.156L127.678,-6.782C127.678,-7.589 127.512,-8.172 127.181,-8.532C126.85,-8.892 126.317,-9.072 125.582,-9.072C125.078,-9.072 124.603,-9.007 124.157,-8.878C123.71,-8.748 123.221,-8.561 122.688,-8.316C122.299,-8.1 122.026,-7.992 121.867,-7.992C121.651,-7.992 121.475,-8.071 121.338,-8.23C121.201,-8.388 121.133,-8.59 121.133,-8.834C121.133,-9.05 121.194,-9.241 121.316,-9.407C121.439,-9.572 121.637,-9.734 121.91,-9.893C122.414,-10.166 123.005,-10.386 123.682,-10.552C124.358,-10.717 125.014,-10.8 125.647,-10.8C127.044,-10.8 128.084,-10.447 128.768,-9.742ZM126.922,-2.279C127.426,-2.819 127.678,-3.514 127.678,-4.363L127.678,-4.925L127.289,-4.925C126.166,-4.925 125.302,-4.874 124.697,-4.774C124.092,-4.673 123.66,-4.504 123.401,-4.266C123.142,-4.028 123.012,-3.686 123.012,-3.24C123.012,-2.722 123.199,-2.297 123.574,-1.966C123.948,-1.634 124.416,-1.469 124.978,-1.469C125.77,-1.469 126.418,-1.739 126.922,-2.279Z" style="fill:rgb(2,137,180);fill-rule:nonzero;"/><path d="M138.618,-1.307C138.755,-1.17 138.823,-0.979 138.823,-0.734C138.823,-0.446 138.712,-0.227 138.488,-0.076C138.265,0.076 137.938,0.137 137.506,0.108L136.922,0.065C135.756,-0.022 134.885,-0.378 134.309,-1.004C133.733,-1.631 133.445,-2.556 133.445,-3.78L133.445,-8.856L132.149,-8.856C131.515,-8.856 131.198,-9.137 131.198,-9.698C131.198,-9.958 131.281,-10.163 131.447,-10.314C131.612,-10.465 131.846,-10.541 132.149,-10.541L133.445,-10.541L133.445,-12.766C133.445,-13.097 133.542,-13.356 133.736,-13.543C133.931,-13.73 134.194,-13.824 134.525,-13.824C134.856,-13.824 135.122,-13.73 135.324,-13.543C135.526,-13.356 135.626,-13.097 135.626,-12.766L135.626,-10.541L137.765,-10.541C138.067,-10.541 138.301,-10.465 138.467,-10.314C138.632,-10.163 138.715,-9.958 138.715,-9.698C138.715,-9.425 138.632,-9.216 138.467,-9.072C138.301,-8.928 138.067,-8.856 137.765,-8.856L135.626,-8.856L135.626,-3.629C135.626,-2.952 135.767,-2.455 136.048,-2.138C136.328,-1.822 136.757,-1.642 137.333,-1.598L137.938,-1.555C138.254,-1.526 138.481,-1.444 138.618,-1.307Z" style="fill:rgb(2,137,180);fill-rule:nonzero;"/><path d="M147.949,-9.742C148.633,-9.036 148.975,-7.963 148.975,-6.523L148.975,-0.929C148.975,-0.598 148.882,-0.342 148.694,-0.162C148.507,0.018 148.248,0.108 147.917,0.108C147.6,0.108 147.348,0.014 147.161,-0.173C146.974,-0.36 146.88,-0.612 146.88,-0.929L146.88,-1.728C146.606,-1.123 146.2,-0.659 145.66,-0.335C145.12,-0.011 144.49,0.151 143.77,0.151C143.078,0.151 142.445,0.011 141.869,-0.27C141.293,-0.551 140.843,-0.943 140.519,-1.447C140.195,-1.951 140.033,-2.513 140.033,-3.132C140.033,-3.895 140.231,-4.496 140.627,-4.936C141.023,-5.375 141.678,-5.688 142.592,-5.875C143.507,-6.062 144.763,-6.156 146.362,-6.156L146.858,-6.156L146.858,-6.782C146.858,-7.589 146.693,-8.172 146.362,-8.532C146.03,-8.892 145.498,-9.072 144.763,-9.072C144.259,-9.072 143.784,-9.007 143.338,-8.878C142.891,-8.748 142.402,-8.561 141.869,-8.316C141.48,-8.1 141.206,-7.992 141.048,-7.992C140.832,-7.992 140.656,-8.071 140.519,-8.23C140.382,-8.388 140.314,-8.59 140.314,-8.834C140.314,-9.05 140.375,-9.241 140.497,-9.407C140.62,-9.572 140.818,-9.734 141.091,-9.893C141.595,-10.166 142.186,-10.386 142.862,-10.552C143.539,-10.717 144.194,-10.8 144.828,-10.8C146.225,-10.8 147.265,-10.447 147.949,-9.742ZM146.102,-2.279C146.606,-2.819 146.858,-3.514 146.858,-4.363L146.858,-4.925L146.47,-4.925C145.346,-4.925 144.482,-4.874 143.878,-4.774C143.273,-4.673 142.841,-4.504 142.582,-4.266C142.322,-4.028 142.193,-3.686 142.193,-3.24C142.193,-2.722 142.38,-2.297 142.754,-1.966C143.129,-1.634 143.597,-1.469 144.158,-1.469C144.95,-1.469 145.598,-1.739 146.102,-2.279Z" style="fill:rgb(2,137,180);fill-rule:nonzero;"/><path d="M160.747,-0.767C159.667,-1.393 158.839,-2.293 158.263,-3.467C157.687,-4.64 157.399,-6.026 157.399,-7.625C157.399,-9.209 157.687,-10.588 158.263,-11.761C158.839,-12.935 159.667,-13.835 160.747,-14.461C161.827,-15.088 163.094,-15.401 164.549,-15.401C165.499,-15.401 166.399,-15.253 167.249,-14.958C168.098,-14.663 168.84,-14.234 169.474,-13.673C169.747,-13.457 169.884,-13.169 169.884,-12.809C169.884,-12.55 169.812,-12.33 169.668,-12.15C169.524,-11.97 169.351,-11.88 169.15,-11.88C168.905,-11.88 168.667,-11.974 168.437,-12.161C167.746,-12.679 167.116,-13.043 166.547,-13.252C165.978,-13.46 165.334,-13.565 164.614,-13.565C163.03,-13.565 161.813,-13.054 160.963,-12.031C160.114,-11.009 159.689,-9.54 159.689,-7.625C159.689,-5.695 160.114,-4.219 160.963,-3.197C161.813,-2.174 163.03,-1.663 164.614,-1.663C165.305,-1.663 165.935,-1.771 166.504,-1.987C167.072,-2.203 167.717,-2.563 168.437,-3.067C168.725,-3.254 168.962,-3.348 169.15,-3.348C169.351,-3.348 169.524,-3.258 169.668,-3.078C169.812,-2.898 169.884,-2.678 169.884,-2.419C169.884,-2.059 169.747,-1.771 169.474,-1.555C168.84,-0.994 168.098,-0.565 167.249,-0.27C166.399,0.025 165.499,0.173 164.549,0.173C163.094,0.173 161.827,-0.14 160.747,-0.767Z" style="fill:rgb(2,137,180);fill-rule:nonzero;"/><path d="M180.814,-2.419C180.943,-2.261 181.008,-2.059 181.008,-1.814C181.008,-1.397 180.749,-1.044 180.23,-0.756C179.726,-0.468 179.176,-0.245 178.578,-0.086C177.98,0.072 177.408,0.151 176.861,0.151C175.19,0.151 173.873,-0.335 172.908,-1.307C171.943,-2.279 171.461,-3.607 171.461,-5.292C171.461,-6.372 171.673,-7.33 172.098,-8.165C172.523,-9 173.12,-9.648 173.891,-10.109C174.661,-10.57 175.536,-10.8 176.515,-10.8C177.926,-10.8 179.042,-10.346 179.863,-9.439C180.684,-8.532 181.094,-7.308 181.094,-5.767C181.094,-5.191 180.835,-4.903 180.317,-4.903L173.642,-4.903C173.786,-2.671 174.859,-1.555 176.861,-1.555C177.394,-1.555 177.854,-1.627 178.243,-1.771C178.632,-1.915 179.042,-2.102 179.474,-2.333C179.518,-2.362 179.636,-2.423 179.831,-2.516C180.025,-2.61 180.187,-2.657 180.317,-2.657C180.518,-2.657 180.684,-2.578 180.814,-2.419ZM174.55,-8.402C174.046,-7.87 173.743,-7.121 173.642,-6.156L179.215,-6.156C179.172,-7.135 178.924,-7.888 178.47,-8.413C178.016,-8.939 177.379,-9.202 176.558,-9.202C175.723,-9.202 175.054,-8.935 174.55,-8.402Z" style="fill:rgb(2,137,180);fill-rule:nonzero;"/><path d="M192.953,-6.545L192.953,-0.929C192.953,-0.598 192.856,-0.342 192.661,-0.162C192.467,0.018 192.197,0.108 191.851,0.108C191.52,0.108 191.257,0.014 191.063,-0.173C190.868,-0.36 190.771,-0.612 190.771,-0.929L190.771,-6.437C190.771,-7.33 190.595,-7.985 190.242,-8.402C189.889,-8.82 189.338,-9.029 188.59,-9.029C187.711,-9.029 187.006,-8.755 186.473,-8.208C185.94,-7.661 185.674,-6.926 185.674,-6.005L185.674,-0.929C185.674,-0.612 185.576,-0.36 185.382,-0.173C185.188,0.014 184.925,0.108 184.594,0.108C184.262,0.108 183.996,0.014 183.794,-0.173C183.593,-0.36 183.492,-0.612 183.492,-0.929L183.492,-9.72C183.492,-10.022 183.596,-10.271 183.805,-10.465C184.014,-10.66 184.277,-10.757 184.594,-10.757C184.91,-10.757 185.162,-10.663 185.35,-10.476C185.537,-10.289 185.63,-10.044 185.63,-9.742L185.63,-8.856C185.976,-9.49 186.458,-9.972 187.078,-10.303C187.697,-10.634 188.395,-10.8 189.173,-10.8C191.693,-10.8 192.953,-9.382 192.953,-6.545Z" style="fill:rgb(2,137,180);fill-rule:nonzero;"/><path d="M201.776,-1.307C201.913,-1.17 201.982,-0.979 201.982,-0.734C201.982,-0.446 201.87,-0.227 201.647,-0.076C201.424,0.076 201.096,0.137 200.664,0.108L200.081,0.065C198.914,-0.022 198.043,-0.378 197.467,-1.004C196.891,-1.631 196.603,-2.556 196.603,-3.78L196.603,-8.856L195.307,-8.856C194.674,-8.856 194.357,-9.137 194.357,-9.698C194.357,-9.958 194.44,-10.163 194.605,-10.314C194.771,-10.465 195.005,-10.541 195.307,-10.541L196.603,-10.541L196.603,-12.766C196.603,-13.097 196.7,-13.356 196.895,-13.543C197.089,-13.73 197.352,-13.824 197.683,-13.824C198.014,-13.824 198.281,-13.73 198.482,-13.543C198.684,-13.356 198.785,-13.097 198.785,-12.766L198.785,-10.541L200.923,-10.541C201.226,-10.541 201.46,-10.465 201.625,-10.314C201.791,-10.163 201.874,-9.958 201.874,-9.698C201.874,-9.425 201.791,-9.216 201.625,-9.072C201.46,-8.928 201.226,-8.856 200.923,-8.856L198.785,-8.856L198.785,-3.629C198.785,-2.952 198.925,-2.455 199.206,-2.138C199.487,-1.822 199.915,-1.642 200.491,-1.598L201.096,-1.555C201.413,-1.526 201.64,-1.444 201.776,-1.307Z" style="fill:rgb(2,137,180);fill-rule:nonzero;"/><path d="M212.306,-2.419C212.436,-2.261 212.501,-2.059 212.501,-1.814C212.501,-1.397 212.242,-1.044 211.723,-0.756C211.219,-0.468 210.668,-0.245 210.071,-0.086C209.473,0.072 208.901,0.151 208.354,0.151C206.683,0.151 205.366,-0.335 204.401,-1.307C203.436,-2.279 202.954,-3.607 202.954,-5.292C202.954,-6.372 203.166,-7.33 203.591,-8.165C204.016,-9 204.613,-9.648 205.384,-10.109C206.154,-10.57 207.029,-10.8 208.008,-10.8C209.419,-10.8 210.535,-10.346 211.356,-9.439C212.177,-8.532 212.587,-7.308 212.587,-5.767C212.587,-5.191 212.328,-4.903 211.81,-4.903L205.135,-4.903C205.279,-2.671 206.352,-1.555 208.354,-1.555C208.886,-1.555 209.347,-1.627 209.736,-1.771C210.125,-1.915 210.535,-2.102 210.967,-2.333C211.01,-2.362 211.129,-2.423 211.324,-2.516C211.518,-2.61 211.68,-2.657 211.81,-2.657C212.011,-2.657 212.177,-2.578 212.306,-2.419ZM206.042,-8.402C205.538,-7.87 205.236,-7.121 205.135,-6.156L210.708,-6.156C210.665,-7.135 210.416,-7.888 209.963,-8.413C209.509,-8.939 208.872,-9.202 208.051,-9.202C207.216,-9.202 206.546,-8.935 206.042,-8.402Z" style="fill:rgb(2,137,180);fill-rule:nonzero;"/><path d="M221.551,-9.871C221.551,-9.554 221.472,-9.317 221.314,-9.158C221.155,-9 220.882,-8.906 220.493,-8.878L219.845,-8.813C218.938,-8.726 218.264,-8.41 217.825,-7.862C217.386,-7.315 217.166,-6.653 217.166,-5.875L217.166,-0.929C217.166,-0.583 217.066,-0.324 216.864,-0.151C216.662,0.022 216.403,0.108 216.086,0.108C215.77,0.108 215.507,0.022 215.298,-0.151C215.089,-0.324 214.985,-0.583 214.985,-0.929L214.985,-9.72C214.985,-10.051 215.089,-10.307 215.298,-10.487C215.507,-10.667 215.77,-10.757 216.086,-10.757C216.374,-10.757 216.616,-10.667 216.81,-10.487C217.004,-10.307 217.102,-10.058 217.102,-9.742L217.102,-8.705C217.39,-9.338 217.807,-9.821 218.354,-10.152C218.902,-10.483 219.521,-10.678 220.212,-10.735L220.514,-10.757C221.206,-10.8 221.551,-10.505 221.551,-9.871Z" style="fill:rgb(2,137,180);fill-rule:nonzero;"/></g></g></g></svg>