<?xml version="1.0" encoding="UTF-8" standalone="no"?><!DOCTYPE svg PUBLIC "-//W3C//DTD SVG 1.1//EN" "http://www.w3.org/Graphics/SVG/1.1/DTD/svg11.dtd"><svg width="55px" height="11px" version="1.1" xmlns="http://www.w3.org/2000/svg" xmlns:xlink="http://www.w3.org/1999/xlink" xml:space="preserve" xmlns:serif="http://www.serif.com/" style="fill-rule:evenodd;clip-rule:evenodd;stroke-linejoin:round;stroke-miterlimit:1.41421;"><g transform="matrix(1,0,0,1,-151,-194)"><g transform="matrix(1,0,0,1,150.285,204)"><g id="IT-Admin"><path d="M1.372,-0.091C1.269,-0.198 1.218,-0.341 1.218,-0.518L1.218,-9.352C1.218,-9.529 1.269,-9.672 1.372,-9.779C1.475,-9.886 1.615,-9.94 1.792,-9.94C1.969,-9.94 2.109,-9.886 2.212,-9.779C2.315,-9.672 2.366,-9.529 2.366,-9.352L2.366,-0.518C2.366,-0.341 2.315,-0.198 2.212,-0.091C2.109,0.016 1.969,0.07 1.792,0.07C1.615,0.07 1.475,0.016 1.372,-0.091Z" style="fill-rule:nonzero;"/><path d="M7.297,-0.091C7.189,-0.198 7.136,-0.341 7.136,-0.518L7.136,-8.89L4.126,-8.89C3.958,-8.89 3.827,-8.932 3.734,-9.016C3.64,-9.1 3.594,-9.221 3.594,-9.38C3.594,-9.539 3.64,-9.66 3.734,-9.744C3.827,-9.828 3.958,-9.87 4.126,-9.87L11.308,-9.87C11.476,-9.87 11.606,-9.828 11.7,-9.744C11.793,-9.66 11.84,-9.539 11.84,-9.38C11.84,-9.221 11.793,-9.1 11.7,-9.016C11.606,-8.932 11.476,-8.89 11.308,-8.89L8.298,-8.89L8.298,-0.518C8.298,-0.341 8.246,-0.198 8.144,-0.091C8.041,0.016 7.901,0.07 7.724,0.07C7.546,0.07 7.404,0.016 7.297,-0.091Z" style="fill-rule:nonzero;"/><path d="M25.201,-0.42C25.201,-0.28 25.148,-0.163 25.04,-0.07C24.933,0.023 24.805,0.07 24.655,0.07C24.422,0.07 24.259,-0.042 24.165,-0.266L23.171,-2.534L17.893,-2.534L16.885,-0.266C16.792,-0.042 16.629,0.07 16.395,0.07C16.246,0.07 16.115,0.021 16.003,-0.077C15.891,-0.175 15.835,-0.294 15.835,-0.434C15.835,-0.509 15.854,-0.583 15.891,-0.658L19.895,-9.562C19.951,-9.693 20.035,-9.791 20.147,-9.856C20.259,-9.921 20.381,-9.954 20.511,-9.954C20.651,-9.954 20.777,-9.919 20.889,-9.849C21.001,-9.779 21.085,-9.683 21.141,-9.562L25.145,-0.658C25.183,-0.583 25.201,-0.504 25.201,-0.42ZM18.313,-3.486L22.751,-3.486L20.525,-8.512L18.313,-3.486Z" style="fill-rule:nonzero;"/><path d="M32.505,-9.786C32.608,-9.683 32.659,-9.553 32.659,-9.394L32.659,-0.49C32.659,-0.322 32.608,-0.187 32.505,-0.084C32.403,0.019 32.263,0.07 32.085,0.07C31.908,0.07 31.77,0.019 31.672,-0.084C31.574,-0.187 31.525,-0.322 31.525,-0.49L31.525,-1.246C31.32,-0.817 31.019,-0.485 30.622,-0.252C30.226,-0.019 29.761,0.098 29.229,0.098C28.632,0.098 28.105,-0.051 27.647,-0.35C27.19,-0.649 26.835,-1.066 26.583,-1.603C26.331,-2.14 26.205,-2.763 26.205,-3.472C26.205,-4.172 26.331,-4.788 26.583,-5.32C26.835,-5.852 27.19,-6.263 27.647,-6.552C28.105,-6.841 28.632,-6.986 29.229,-6.986C29.761,-6.986 30.226,-6.869 30.622,-6.636C31.019,-6.403 31.32,-6.071 31.525,-5.642L31.525,-9.394C31.525,-9.562 31.574,-9.695 31.672,-9.793C31.77,-9.891 31.908,-9.94 32.085,-9.94C32.263,-9.94 32.403,-9.889 32.505,-9.786ZM30.986,-1.519C31.346,-1.972 31.525,-2.613 31.525,-3.444C31.525,-4.275 31.346,-4.914 30.986,-5.362C30.627,-5.81 30.116,-6.034 29.453,-6.034C28.791,-6.034 28.275,-5.81 27.906,-5.362C27.538,-4.914 27.353,-4.284 27.353,-3.472C27.353,-2.641 27.538,-1.995 27.906,-1.533C28.275,-1.071 28.791,-0.84 29.453,-0.84C30.116,-0.84 30.627,-1.066 30.986,-1.519Z" style="fill-rule:nonzero;"/><path d="M44.569,-4.284L44.569,-0.49C44.569,-0.313 44.518,-0.175 44.415,-0.077C44.312,0.021 44.177,0.07 44.009,0.07C43.841,0.07 43.703,0.021 43.596,-0.077C43.489,-0.175 43.435,-0.313 43.435,-0.49L43.435,-4.256C43.435,-4.881 43.323,-5.334 43.099,-5.614C42.875,-5.894 42.525,-6.034 42.049,-6.034C41.48,-6.034 41.032,-5.843 40.705,-5.46C40.378,-5.077 40.215,-4.559 40.215,-3.906L40.215,-0.49C40.215,-0.313 40.161,-0.175 40.054,-0.077C39.947,0.021 39.809,0.07 39.641,0.07C39.473,0.07 39.338,0.021 39.235,-0.077C39.132,-0.175 39.081,-0.313 39.081,-0.49L39.081,-4.256C39.081,-4.881 38.969,-5.334 38.745,-5.614C38.521,-5.894 38.166,-6.034 37.681,-6.034C37.121,-6.034 36.675,-5.843 36.344,-5.46C36.013,-5.077 35.847,-4.559 35.847,-3.906L35.847,-0.49C35.847,-0.313 35.796,-0.175 35.693,-0.077C35.59,0.021 35.455,0.07 35.287,0.07C35.119,0.07 34.981,0.021 34.874,-0.077C34.767,-0.175 34.713,-0.313 34.713,-0.49L34.713,-6.398C34.713,-6.566 34.767,-6.701 34.874,-6.804C34.981,-6.907 35.119,-6.958 35.287,-6.958C35.446,-6.958 35.576,-6.909 35.679,-6.811C35.782,-6.713 35.833,-6.58 35.833,-6.412L35.833,-5.74C36.038,-6.141 36.323,-6.449 36.687,-6.664C37.051,-6.879 37.471,-6.986 37.947,-6.986C39.011,-6.986 39.706,-6.538 40.033,-5.642C40.229,-6.053 40.528,-6.379 40.929,-6.622C41.33,-6.865 41.788,-6.986 42.301,-6.986C43.813,-6.986 44.569,-6.085 44.569,-4.284Z" style="fill-rule:nonzero;"/><path d="M46.756,-0.077C46.648,-0.175 46.595,-0.313 46.595,-0.49L46.595,-6.398C46.595,-6.575 46.648,-6.713 46.756,-6.811C46.863,-6.909 47.001,-6.958 47.169,-6.958C47.337,-6.958 47.472,-6.909 47.575,-6.811C47.677,-6.713 47.729,-6.575 47.729,-6.398L47.729,-0.49C47.729,-0.303 47.677,-0.163 47.575,-0.07C47.472,0.023 47.337,0.07 47.169,0.07C47.001,0.07 46.863,0.021 46.756,-0.077ZM46.623,-8.624C46.483,-8.755 46.413,-8.927 46.413,-9.142C46.413,-9.347 46.483,-9.515 46.623,-9.646C46.763,-9.777 46.945,-9.842 47.169,-9.842C47.393,-9.842 47.575,-9.777 47.715,-9.646C47.855,-9.515 47.925,-9.347 47.925,-9.142C47.925,-8.927 47.855,-8.755 47.715,-8.624C47.575,-8.493 47.393,-8.428 47.169,-8.428C46.945,-8.428 46.763,-8.493 46.623,-8.624Z" style="fill-rule:nonzero;"/><path d="M55.677,-4.284L55.677,-0.49C55.677,-0.313 55.628,-0.175 55.53,-0.077C55.432,0.021 55.294,0.07 55.117,0.07C54.939,0.07 54.799,0.021 54.697,-0.077C54.594,-0.175 54.543,-0.313 54.543,-0.49L54.543,-4.214C54.543,-4.849 54.419,-5.311 54.172,-5.6C53.924,-5.889 53.53,-6.034 52.989,-6.034C52.363,-6.034 51.864,-5.843 51.491,-5.46C51.117,-5.077 50.931,-4.559 50.931,-3.906L50.931,-0.49C50.931,-0.313 50.882,-0.175 50.784,-0.077C50.686,0.021 50.548,0.07 50.371,0.07C50.193,0.07 50.053,0.021 49.951,-0.077C49.848,-0.175 49.797,-0.313 49.797,-0.49L49.797,-6.398C49.797,-6.566 49.848,-6.701 49.951,-6.804C50.053,-6.907 50.193,-6.958 50.371,-6.958C50.539,-6.958 50.672,-6.907 50.77,-6.804C50.868,-6.701 50.917,-6.571 50.917,-6.412L50.917,-5.698C51.141,-6.118 51.453,-6.438 51.855,-6.657C52.256,-6.876 52.713,-6.986 53.227,-6.986C54.86,-6.986 55.677,-6.085 55.677,-4.284Z" style="fill-rule:nonzero;"/></g></g></g></svg>