<?xml version="1.0" encoding="UTF-8"?>
<svg width="180px" height="147px" viewBox="0 0 180 147" version="1.1" xmlns="http://www.w3.org/2000/svg" xmlns:xlink="http://www.w3.org/1999/xlink">
    <!-- Generator: Sketch 50.2 (55047) - http://www.bohemiancoding.com/sketch -->
    <title>Laptop</title>
    <desc>Created with Sketch.</desc>
    <defs></defs>
    <g id="Page-2" stroke="none" stroke-width="1" fill="none" fill-rule="evenodd">
        <g id="Laptop" fill="#FFFFFF">
            <path d="M158.572623,91.7660563 C158.572623,104.420282 148.333279,114.683662 135.708689,114.683662 L44.2431148,114.683662 C31.6136066,114.683662 21.3742623,104.420282 21.3742623,91.7660563 L21.3742623,34.4646479 C21.3742623,21.805493 31.6136066,11.5470423 44.2431148,11.5470423 L135.708689,11.5470423 C148.333279,11.5470423 158.572623,21.805493 158.572623,34.4646479 L158.572623,91.7660563 Z M138.443115,0.0857746479 L41.1447541,0.0857746479 C24.2316393,0.0857746479 9.93983607,14.5294366 9.93983607,31.4822535 L9.93983607,95.1083099 C9.93983607,111.701268 24.2316393,126.14493 41.2578689,126.14493 L138.920164,126.14493 C155.951311,126.14493 170.007049,112.061127 170.007049,95.1132394 L170.007049,31.7238028 C170.007049,14.4160563 155.951311,0.0857746479 138.443115,0.0857746479 Z" id="Fill-38"></path>
            <path d="M158.323279,146.822042 L21.6216393,146.822042 C17.6872131,146.822042 2.41672131,144.16993 0.267540984,137.894577 C-1.00622951,134.167817 3.45934426,132.545986 7.39377049,132.545986 L172.560984,132.545986 C176.490492,132.545986 181.064262,134.207254 179.687213,137.894577 C177.533115,143.617817 162.262623,146.822042 158.323279,146.822042" id="Fill-40"></path>
        </g>
    </g>
</svg>