<?xml version="1.0" encoding="UTF-8" standalone="no"?><!DOCTYPE svg PUBLIC "-//W3C//DTD SVG 1.1//EN" "http://www.w3.org/Graphics/SVG/1.1/DTD/svg11.dtd"><svg width="82px" height="13px" version="1.1" xmlns="http://www.w3.org/2000/svg" xmlns:xlink="http://www.w3.org/1999/xlink" xml:space="preserve" xmlns:serif="http://www.serif.com/" style="fill-rule:evenodd;clip-rule:evenodd;stroke-linejoin:round;stroke-miterlimit:1.41421;"><g transform="matrix(1,0,0,1,-46,-111)"><g transform="matrix(1,0,0,1,45.459,121)"><g id="Management"><path d="M10.395,-9.779C10.493,-9.672 10.542,-9.529 10.542,-9.352L10.542,-0.49C10.542,-0.322 10.495,-0.187 10.402,-0.084C10.309,0.019 10.178,0.07 10.01,0.07C9.842,0.07 9.716,0.019 9.632,-0.084C9.548,-0.187 9.506,-0.322 9.506,-0.49L9.506,-7.644L6.468,-1.82C6.337,-1.549 6.146,-1.414 5.894,-1.414C5.651,-1.414 5.46,-1.549 5.32,-1.82L2.268,-7.574L2.268,-0.49C2.268,-0.322 2.224,-0.187 2.135,-0.084C2.046,0.019 1.918,0.07 1.75,0.07C1.582,0.07 1.451,0.019 1.358,-0.084C1.265,-0.187 1.218,-0.322 1.218,-0.49L1.218,-9.352C1.218,-9.529 1.269,-9.672 1.372,-9.779C1.475,-9.886 1.615,-9.94 1.792,-9.94C2.025,-9.94 2.212,-9.805 2.352,-9.534L5.908,-2.716L9.422,-9.534C9.497,-9.683 9.578,-9.788 9.667,-9.849C9.756,-9.91 9.861,-9.94 9.982,-9.94C10.159,-9.94 10.297,-9.886 10.395,-9.779Z" style="fill-rule:nonzero;"/><path d="M18.126,-4.298L18.126,-0.49C18.126,-0.322 18.077,-0.187 17.979,-0.084C17.881,0.019 17.748,0.07 17.58,0.07C17.412,0.07 17.276,0.019 17.174,-0.084C17.071,-0.187 17.02,-0.322 17.02,-0.49L17.02,-1.162C16.842,-0.761 16.572,-0.45 16.208,-0.231C15.844,-0.012 15.424,0.098 14.948,0.098C14.509,0.098 14.105,0.009 13.737,-0.168C13.368,-0.345 13.076,-0.593 12.862,-0.91C12.647,-1.227 12.54,-1.577 12.54,-1.96C12.54,-2.473 12.67,-2.872 12.932,-3.157C13.193,-3.442 13.622,-3.647 14.22,-3.773C14.817,-3.899 15.648,-3.962 16.712,-3.962L17.02,-3.962L17.02,-4.424C17.02,-4.984 16.905,-5.395 16.677,-5.656C16.448,-5.917 16.077,-6.048 15.564,-6.048C14.929,-6.048 14.285,-5.875 13.632,-5.53C13.38,-5.371 13.202,-5.292 13.1,-5.292C12.988,-5.292 12.894,-5.334 12.82,-5.418C12.745,-5.502 12.708,-5.609 12.708,-5.74C12.708,-5.871 12.747,-5.985 12.827,-6.083C12.906,-6.181 13.034,-6.281 13.212,-6.384C13.538,-6.571 13.909,-6.718 14.325,-6.825C14.74,-6.932 15.153,-6.986 15.564,-6.986C17.272,-6.986 18.126,-6.09 18.126,-4.298ZM16.481,-1.365C16.84,-1.743 17.02,-2.231 17.02,-2.828L17.02,-3.234L16.768,-3.234C15.946,-3.234 15.321,-3.199 14.892,-3.129C14.462,-3.059 14.157,-2.942 13.975,-2.779C13.793,-2.616 13.702,-2.375 13.702,-2.058C13.702,-1.694 13.835,-1.393 14.101,-1.155C14.367,-0.917 14.7,-0.798 15.102,-0.798C15.662,-0.798 16.121,-0.987 16.481,-1.365Z" style="fill-rule:nonzero;"/><path d="M26.032,-4.284L26.032,-0.49C26.032,-0.313 25.983,-0.175 25.885,-0.077C25.787,0.021 25.649,0.07 25.472,0.07C25.294,0.07 25.154,0.021 25.052,-0.077C24.949,-0.175 24.898,-0.313 24.898,-0.49L24.898,-4.214C24.898,-4.849 24.774,-5.311 24.527,-5.6C24.279,-5.889 23.885,-6.034 23.344,-6.034C22.718,-6.034 22.219,-5.843 21.846,-5.46C21.472,-5.077 21.286,-4.559 21.286,-3.906L21.286,-0.49C21.286,-0.313 21.237,-0.175 21.139,-0.077C21.041,0.021 20.903,0.07 20.726,0.07C20.548,0.07 20.408,0.021 20.306,-0.077C20.203,-0.175 20.152,-0.313 20.152,-0.49L20.152,-6.398C20.152,-6.566 20.203,-6.701 20.306,-6.804C20.408,-6.907 20.548,-6.958 20.726,-6.958C20.894,-6.958 21.027,-6.907 21.125,-6.804C21.223,-6.701 21.272,-6.571 21.272,-6.412L21.272,-5.698C21.496,-6.118 21.808,-6.438 22.21,-6.657C22.611,-6.876 23.068,-6.986 23.582,-6.986C25.215,-6.986 26.032,-6.085 26.032,-4.284Z" style="fill-rule:nonzero;"/><path d="M33.405,-4.298L33.405,-0.49C33.405,-0.322 33.356,-0.187 33.258,-0.084C33.16,0.019 33.027,0.07 32.859,0.07C32.691,0.07 32.556,0.019 32.453,-0.084C32.351,-0.187 32.299,-0.322 32.299,-0.49L32.299,-1.162C32.122,-0.761 31.851,-0.45 31.487,-0.231C31.123,-0.012 30.703,0.098 30.227,0.098C29.789,0.098 29.385,0.009 29.016,-0.168C28.648,-0.345 28.356,-0.593 28.141,-0.91C27.927,-1.227 27.819,-1.577 27.819,-1.96C27.819,-2.473 27.95,-2.872 28.211,-3.157C28.473,-3.442 28.902,-3.647 29.499,-3.773C30.097,-3.899 30.927,-3.962 31.991,-3.962L32.299,-3.962L32.299,-4.424C32.299,-4.984 32.185,-5.395 31.956,-5.656C31.728,-5.917 31.357,-6.048 30.843,-6.048C30.209,-6.048 29.565,-5.875 28.911,-5.53C28.659,-5.371 28.482,-5.292 28.379,-5.292C28.267,-5.292 28.174,-5.334 28.099,-5.418C28.025,-5.502 27.987,-5.609 27.987,-5.74C27.987,-5.871 28.027,-5.985 28.106,-6.083C28.186,-6.181 28.314,-6.281 28.491,-6.384C28.818,-6.571 29.189,-6.718 29.604,-6.825C30.02,-6.932 30.433,-6.986 30.843,-6.986C32.551,-6.986 33.405,-6.09 33.405,-4.298ZM31.76,-1.365C32.12,-1.743 32.299,-2.231 32.299,-2.828L32.299,-3.234L32.047,-3.234C31.226,-3.234 30.601,-3.199 30.171,-3.129C29.742,-3.059 29.436,-2.942 29.254,-2.779C29.072,-2.616 28.981,-2.375 28.981,-2.058C28.981,-1.694 29.114,-1.393 29.38,-1.155C29.646,-0.917 29.98,-0.798 30.381,-0.798C30.941,-0.798 31.401,-0.987 31.76,-1.365Z" style="fill-rule:nonzero;"/><path d="M41.381,-6.804C41.484,-6.701 41.535,-6.566 41.535,-6.398L41.535,-0.462C41.535,0.555 41.274,1.323 40.751,1.841C40.229,2.359 39.454,2.618 38.427,2.618C37.429,2.618 36.598,2.422 35.935,2.03C35.599,1.843 35.431,1.629 35.431,1.386C35.431,1.255 35.466,1.148 35.536,1.064C35.606,0.98 35.697,0.938 35.809,0.938C35.903,0.938 36.071,1.003 36.313,1.134C36.64,1.302 36.962,1.437 37.279,1.54C37.597,1.643 37.975,1.694 38.413,1.694C39.076,1.694 39.575,1.519 39.911,1.169C40.247,0.819 40.415,0.308 40.415,-0.364L40.415,-1.568C40.219,-1.129 39.918,-0.793 39.512,-0.56C39.106,-0.327 38.628,-0.21 38.077,-0.21C37.48,-0.21 36.95,-0.35 36.488,-0.63C36.026,-0.91 35.667,-1.307 35.41,-1.82C35.154,-2.333 35.025,-2.926 35.025,-3.598C35.025,-4.27 35.154,-4.863 35.41,-5.376C35.667,-5.889 36.026,-6.286 36.488,-6.566C36.95,-6.846 37.48,-6.986 38.077,-6.986C38.619,-6.986 39.09,-6.869 39.491,-6.636C39.893,-6.403 40.196,-6.071 40.401,-5.642L40.401,-6.398C40.401,-6.566 40.45,-6.701 40.548,-6.804C40.646,-6.907 40.784,-6.958 40.961,-6.958C41.139,-6.958 41.279,-6.907 41.381,-6.804ZM39.841,-1.799C40.215,-2.233 40.401,-2.833 40.401,-3.598C40.401,-4.354 40.217,-4.949 39.848,-5.383C39.48,-5.817 38.964,-6.034 38.301,-6.034C37.639,-6.034 37.118,-5.817 36.74,-5.383C36.362,-4.949 36.173,-4.354 36.173,-3.598C36.173,-2.833 36.362,-2.233 36.74,-1.799C37.118,-1.365 37.639,-1.148 38.301,-1.148C38.955,-1.148 39.468,-1.365 39.841,-1.799Z" style="fill-rule:nonzero;"/><path d="M49.133,-1.456C49.208,-1.372 49.245,-1.265 49.245,-1.134C49.245,-0.901 49.082,-0.686 48.755,-0.49C48.419,-0.294 48.064,-0.147 47.691,-0.049C47.318,0.049 46.954,0.098 46.599,0.098C45.544,0.098 44.711,-0.215 44.1,-0.84C43.489,-1.465 43.183,-2.329 43.183,-3.43C43.183,-4.13 43.318,-4.748 43.589,-5.285C43.86,-5.822 44.24,-6.239 44.73,-6.538C45.22,-6.837 45.778,-6.986 46.403,-6.986C47.29,-6.986 47.994,-6.697 48.517,-6.118C49.04,-5.539 49.301,-4.755 49.301,-3.766C49.301,-3.579 49.264,-3.444 49.189,-3.36C49.114,-3.276 48.993,-3.234 48.825,-3.234L44.317,-3.234C44.401,-1.629 45.162,-0.826 46.599,-0.826C46.963,-0.826 47.276,-0.875 47.537,-0.973C47.798,-1.071 48.078,-1.204 48.377,-1.372C48.62,-1.512 48.783,-1.582 48.867,-1.582C48.97,-1.582 49.058,-1.54 49.133,-1.456ZM44.982,-5.544C44.623,-5.171 44.41,-4.643 44.345,-3.962L48.307,-3.962C48.288,-4.653 48.116,-5.182 47.789,-5.551C47.462,-5.92 47.005,-6.104 46.417,-6.104C45.82,-6.104 45.341,-5.917 44.982,-5.544Z" style="fill-rule:nonzero;"/><path d="M60.777,-4.284L60.777,-0.49C60.777,-0.313 60.725,-0.175 60.623,-0.077C60.52,0.021 60.385,0.07 60.217,0.07C60.049,0.07 59.911,0.021 59.804,-0.077C59.696,-0.175 59.643,-0.313 59.643,-0.49L59.643,-4.256C59.643,-4.881 59.531,-5.334 59.307,-5.614C59.083,-5.894 58.733,-6.034 58.257,-6.034C57.687,-6.034 57.239,-5.843 56.913,-5.46C56.586,-5.077 56.423,-4.559 56.423,-3.906L56.423,-0.49C56.423,-0.313 56.369,-0.175 56.262,-0.077C56.154,0.021 56.017,0.07 55.849,0.07C55.681,0.07 55.545,0.021 55.443,-0.077C55.34,-0.175 55.289,-0.313 55.289,-0.49L55.289,-4.256C55.289,-4.881 55.177,-5.334 54.953,-5.614C54.729,-5.894 54.374,-6.034 53.889,-6.034C53.329,-6.034 52.883,-5.843 52.552,-5.46C52.22,-5.077 52.055,-4.559 52.055,-3.906L52.055,-0.49C52.055,-0.313 52.003,-0.175 51.901,-0.077C51.798,0.021 51.663,0.07 51.495,0.07C51.327,0.07 51.189,0.021 51.082,-0.077C50.974,-0.175 50.921,-0.313 50.921,-0.49L50.921,-6.398C50.921,-6.566 50.974,-6.701 51.082,-6.804C51.189,-6.907 51.327,-6.958 51.495,-6.958C51.653,-6.958 51.784,-6.909 51.887,-6.811C51.989,-6.713 52.041,-6.58 52.041,-6.412L52.041,-5.74C52.246,-6.141 52.531,-6.449 52.895,-6.664C53.259,-6.879 53.679,-6.986 54.155,-6.986C55.219,-6.986 55.914,-6.538 56.241,-5.642C56.437,-6.053 56.735,-6.379 57.137,-6.622C57.538,-6.865 57.995,-6.986 58.509,-6.986C60.021,-6.986 60.777,-6.085 60.777,-4.284Z" style="fill-rule:nonzero;"/><path d="M68.347,-1.456C68.421,-1.372 68.459,-1.265 68.459,-1.134C68.459,-0.901 68.295,-0.686 67.969,-0.49C67.633,-0.294 67.278,-0.147 66.905,-0.049C66.531,0.049 66.167,0.098 65.813,0.098C64.758,0.098 63.925,-0.215 63.314,-0.84C62.702,-1.465 62.397,-2.329 62.397,-3.43C62.397,-4.13 62.532,-4.748 62.803,-5.285C63.073,-5.822 63.454,-6.239 63.944,-6.538C64.434,-6.837 64.991,-6.986 65.617,-6.986C66.503,-6.986 67.208,-6.697 67.731,-6.118C68.253,-5.539 68.515,-4.755 68.515,-3.766C68.515,-3.579 68.477,-3.444 68.403,-3.36C68.328,-3.276 68.207,-3.234 68.039,-3.234L63.531,-3.234C63.615,-1.629 64.375,-0.826 65.813,-0.826C66.177,-0.826 66.489,-0.875 66.751,-0.973C67.012,-1.071 67.292,-1.204 67.591,-1.372C67.833,-1.512 67.997,-1.582 68.081,-1.582C68.183,-1.582 68.272,-1.54 68.347,-1.456ZM64.196,-5.544C63.836,-5.171 63.624,-4.643 63.559,-3.962L67.521,-3.962C67.502,-4.653 67.329,-5.182 67.003,-5.551C66.676,-5.92 66.219,-6.104 65.631,-6.104C65.033,-6.104 64.555,-5.917 64.196,-5.544Z" style="fill-rule:nonzero;"/><path d="M76.014,-4.284L76.014,-0.49C76.014,-0.313 75.965,-0.175 75.867,-0.077C75.769,0.021 75.632,0.07 75.454,0.07C75.277,0.07 75.137,0.021 75.034,-0.077C74.932,-0.175 74.88,-0.313 74.88,-0.49L74.88,-4.214C74.88,-4.849 74.757,-5.311 74.509,-5.6C74.262,-5.889 73.868,-6.034 73.326,-6.034C72.701,-6.034 72.202,-5.843 71.828,-5.46C71.455,-5.077 71.268,-4.559 71.268,-3.906L71.268,-0.49C71.268,-0.313 71.219,-0.175 71.121,-0.077C71.023,0.021 70.886,0.07 70.708,0.07C70.531,0.07 70.391,0.021 70.288,-0.077C70.186,-0.175 70.134,-0.313 70.134,-0.49L70.134,-6.398C70.134,-6.566 70.186,-6.701 70.288,-6.804C70.391,-6.907 70.531,-6.958 70.708,-6.958C70.876,-6.958 71.009,-6.907 71.107,-6.804C71.205,-6.701 71.254,-6.571 71.254,-6.412L71.254,-5.698C71.478,-6.118 71.791,-6.438 72.192,-6.657C72.594,-6.876 73.051,-6.986 73.564,-6.986C75.198,-6.986 76.014,-6.085 76.014,-4.284Z" style="fill-rule:nonzero;"/><path d="M81.68,-0.378C81.68,-0.219 81.622,-0.1 81.505,-0.021C81.389,0.058 81.214,0.089 80.98,0.07L80.602,0.042C79.856,-0.014 79.305,-0.238 78.95,-0.63C78.596,-1.022 78.418,-1.615 78.418,-2.408L78.418,-5.922L77.48,-5.922C77.322,-5.922 77.198,-5.962 77.109,-6.041C77.021,-6.12 76.976,-6.225 76.976,-6.356C76.976,-6.496 77.021,-6.608 77.109,-6.692C77.198,-6.776 77.322,-6.818 77.48,-6.818L78.418,-6.818L78.418,-8.4C78.418,-8.577 78.47,-8.715 78.572,-8.813C78.675,-8.911 78.815,-8.96 78.992,-8.96C79.16,-8.96 79.296,-8.911 79.398,-8.813C79.501,-8.715 79.552,-8.577 79.552,-8.4L79.552,-6.818L81.106,-6.818C81.256,-6.818 81.375,-6.776 81.463,-6.692C81.552,-6.608 81.596,-6.496 81.596,-6.356C81.596,-6.225 81.552,-6.12 81.463,-6.041C81.375,-5.962 81.256,-5.922 81.106,-5.922L79.552,-5.922L79.552,-2.352C79.552,-1.839 79.657,-1.468 79.867,-1.239C80.077,-1.01 80.392,-0.882 80.812,-0.854L81.19,-0.826C81.517,-0.798 81.68,-0.649 81.68,-0.378Z" style="fill-rule:nonzero;"/></g></g></g></svg>