<?xml version="1.0" encoding="UTF-8" standalone="no"?><!DOCTYPE svg PUBLIC "-//W3C//DTD SVG 1.1//EN" "http://www.w3.org/Graphics/SVG/1.1/DTD/svg11.dtd"><svg width="91px" height="29px" version="1.1" xmlns="http://www.w3.org/2000/svg" xmlns:xlink="http://www.w3.org/1999/xlink" xml:space="preserve" xmlns:serif="http://www.serif.com/" style="fill-rule:evenodd;clip-rule:evenodd;stroke-linejoin:round;stroke-miterlimit:1.41421;"><g transform="matrix(1,0,0,1,-865,-397)"><g id="Multi-Factor-Authent"><g transform="matrix(1,0,0,1,865,407)"><path d="M10.395,-9.779C10.493,-9.672 10.542,-9.529 10.542,-9.352L10.542,-0.49C10.542,-0.322 10.495,-0.187 10.402,-0.084C10.309,0.019 10.178,0.07 10.01,0.07C9.842,0.07 9.716,0.019 9.632,-0.084C9.548,-0.187 9.506,-0.322 9.506,-0.49L9.506,-7.644L6.468,-1.82C6.337,-1.549 6.146,-1.414 5.894,-1.414C5.651,-1.414 5.46,-1.549 5.32,-1.82L2.268,-7.574L2.268,-0.49C2.268,-0.322 2.224,-0.187 2.135,-0.084C2.046,0.019 1.918,0.07 1.75,0.07C1.582,0.07 1.451,0.019 1.358,-0.084C1.265,-0.187 1.218,-0.322 1.218,-0.49L1.218,-9.352C1.218,-9.529 1.269,-9.672 1.372,-9.779C1.475,-9.886 1.615,-9.94 1.792,-9.94C2.025,-9.94 2.212,-9.805 2.352,-9.534L5.908,-2.716L9.422,-9.534C9.497,-9.683 9.578,-9.788 9.667,-9.849C9.756,-9.91 9.861,-9.94 9.982,-9.94C10.159,-9.94 10.297,-9.886 10.395,-9.779Z" style="fill:rgb(71,175,232);fill-rule:nonzero;"/><path d="M18.371,-6.804C18.469,-6.701 18.518,-6.566 18.518,-6.398L18.518,-0.476C18.518,-0.317 18.469,-0.187 18.371,-0.084C18.273,0.019 18.135,0.07 17.958,0.07C17.79,0.07 17.657,0.021 17.559,-0.077C17.461,-0.175 17.412,-0.303 17.412,-0.462L17.412,-1.162C17.197,-0.751 16.896,-0.439 16.509,-0.224C16.121,-0.009 15.685,0.098 15.2,0.098C14.388,0.098 13.776,-0.128 13.366,-0.581C12.955,-1.034 12.75,-1.703 12.75,-2.59L12.75,-6.398C12.75,-6.566 12.801,-6.701 12.904,-6.804C13.006,-6.907 13.146,-6.958 13.324,-6.958C13.501,-6.958 13.639,-6.907 13.737,-6.804C13.835,-6.701 13.884,-6.566 13.884,-6.398L13.884,-2.618C13.884,-2.011 14.005,-1.566 14.248,-1.281C14.49,-0.996 14.873,-0.854 15.396,-0.854C15.993,-0.854 16.474,-1.048 16.838,-1.435C17.202,-1.822 17.384,-2.333 17.384,-2.968L17.384,-6.398C17.384,-6.566 17.435,-6.701 17.538,-6.804C17.64,-6.907 17.78,-6.958 17.958,-6.958C18.135,-6.958 18.273,-6.907 18.371,-6.804Z" style="fill:rgb(71,175,232);fill-rule:nonzero;"/><path d="M20.747,-0.077C20.639,-0.175 20.586,-0.313 20.586,-0.49L20.586,-9.38C20.586,-9.557 20.639,-9.695 20.747,-9.793C20.854,-9.891 20.992,-9.94 21.16,-9.94C21.318,-9.94 21.451,-9.891 21.559,-9.793C21.666,-9.695 21.72,-9.557 21.72,-9.38L21.72,-0.49C21.72,-0.313 21.666,-0.175 21.559,-0.077C21.451,0.021 21.318,0.07 21.16,0.07C20.992,0.07 20.854,0.021 20.747,-0.077Z" style="fill:rgb(71,175,232);fill-rule:nonzero;"/><path d="M27.427,-0.378C27.427,-0.219 27.369,-0.1 27.252,-0.021C27.136,0.058 26.961,0.089 26.727,0.07L26.349,0.042C25.603,-0.014 25.052,-0.238 24.697,-0.63C24.343,-1.022 24.165,-1.615 24.165,-2.408L24.165,-5.922L23.227,-5.922C23.069,-5.922 22.945,-5.962 22.856,-6.041C22.768,-6.12 22.723,-6.225 22.723,-6.356C22.723,-6.496 22.768,-6.608 22.856,-6.692C22.945,-6.776 23.069,-6.818 23.227,-6.818L24.165,-6.818L24.165,-8.4C24.165,-8.577 24.217,-8.715 24.319,-8.813C24.422,-8.911 24.562,-8.96 24.739,-8.96C24.907,-8.96 25.043,-8.911 25.145,-8.813C25.248,-8.715 25.299,-8.577 25.299,-8.4L25.299,-6.818L26.853,-6.818C27.003,-6.818 27.122,-6.776 27.21,-6.692C27.299,-6.608 27.343,-6.496 27.343,-6.356C27.343,-6.225 27.299,-6.12 27.21,-6.041C27.122,-5.962 27.003,-5.922 26.853,-5.922L25.299,-5.922L25.299,-2.352C25.299,-1.839 25.404,-1.468 25.614,-1.239C25.824,-1.01 26.139,-0.882 26.559,-0.854L26.937,-0.826C27.264,-0.798 27.427,-0.649 27.427,-0.378Z" style="fill:rgb(71,175,232);fill-rule:nonzero;"/><path d="M28.662,-0.077C28.555,-0.175 28.501,-0.313 28.501,-0.49L28.501,-6.398C28.501,-6.575 28.555,-6.713 28.662,-6.811C28.77,-6.909 28.907,-6.958 29.075,-6.958C29.243,-6.958 29.379,-6.909 29.481,-6.811C29.584,-6.713 29.635,-6.575 29.635,-6.398L29.635,-0.49C29.635,-0.303 29.584,-0.163 29.481,-0.07C29.379,0.023 29.243,0.07 29.075,0.07C28.907,0.07 28.77,0.021 28.662,-0.077ZM28.529,-8.624C28.389,-8.755 28.319,-8.927 28.319,-9.142C28.319,-9.347 28.389,-9.515 28.529,-9.646C28.669,-9.777 28.851,-9.842 29.075,-9.842C29.299,-9.842 29.481,-9.777 29.621,-9.646C29.761,-9.515 29.831,-9.347 29.831,-9.142C29.831,-8.927 29.761,-8.755 29.621,-8.624C29.481,-8.493 29.299,-8.428 29.075,-8.428C28.851,-8.428 28.669,-8.493 28.529,-8.624Z" style="fill:rgb(71,175,232);fill-rule:nonzero;"/><path d="M31.696,-3.388C31.607,-3.472 31.563,-3.584 31.563,-3.724C31.563,-3.864 31.607,-3.978 31.696,-4.067C31.785,-4.156 31.913,-4.2 32.081,-4.2L35.161,-4.2C35.338,-4.2 35.471,-4.156 35.56,-4.067C35.649,-3.978 35.693,-3.864 35.693,-3.724C35.693,-3.584 35.649,-3.472 35.56,-3.388C35.471,-3.304 35.338,-3.262 35.161,-3.262L32.081,-3.262C31.913,-3.262 31.785,-3.304 31.696,-3.388Z" style="fill:rgb(71,175,232);fill-rule:nonzero;"/><path d="M37.929,-0.091C37.826,-0.198 37.775,-0.341 37.775,-0.518L37.775,-9.31C37.775,-9.478 37.828,-9.613 37.936,-9.716C38.043,-9.819 38.185,-9.87 38.363,-9.87L43.459,-9.87C43.627,-9.87 43.757,-9.828 43.851,-9.744C43.944,-9.66 43.991,-9.539 43.991,-9.38C43.991,-9.231 43.944,-9.114 43.851,-9.03C43.757,-8.946 43.627,-8.904 43.459,-8.904L38.909,-8.904L38.909,-5.502L43.179,-5.502C43.347,-5.502 43.477,-5.46 43.571,-5.376C43.664,-5.292 43.711,-5.171 43.711,-5.012C43.711,-4.863 43.664,-4.746 43.571,-4.662C43.477,-4.578 43.347,-4.536 43.179,-4.536L38.909,-4.536L38.909,-0.518C38.909,-0.341 38.86,-0.198 38.762,-0.091C38.664,0.016 38.526,0.07 38.349,0.07C38.171,0.07 38.031,0.016 37.929,-0.091Z" style="fill:rgb(71,175,232);fill-rule:nonzero;"/><path d="M50.497,-4.298L50.497,-0.49C50.497,-0.322 50.448,-0.187 50.35,-0.084C50.252,0.019 50.119,0.07 49.951,0.07C49.783,0.07 49.647,0.019 49.545,-0.084C49.442,-0.187 49.391,-0.322 49.391,-0.49L49.391,-1.162C49.213,-0.761 48.943,-0.45 48.579,-0.231C48.215,-0.012 47.795,0.098 47.319,0.098C46.88,0.098 46.476,0.009 46.108,-0.168C45.739,-0.345 45.447,-0.593 45.233,-0.91C45.018,-1.227 44.911,-1.577 44.911,-1.96C44.911,-2.473 45.041,-2.872 45.303,-3.157C45.564,-3.442 45.993,-3.647 46.591,-3.773C47.188,-3.899 48.019,-3.962 49.083,-3.962L49.391,-3.962L49.391,-4.424C49.391,-4.984 49.276,-5.395 49.048,-5.656C48.819,-5.917 48.448,-6.048 47.935,-6.048C47.3,-6.048 46.656,-5.875 46.003,-5.53C45.751,-5.371 45.573,-5.292 45.471,-5.292C45.359,-5.292 45.265,-5.334 45.191,-5.418C45.116,-5.502 45.079,-5.609 45.079,-5.74C45.079,-5.871 45.118,-5.985 45.198,-6.083C45.277,-6.181 45.405,-6.281 45.583,-6.384C45.909,-6.571 46.28,-6.718 46.696,-6.825C47.111,-6.932 47.524,-6.986 47.935,-6.986C49.643,-6.986 50.497,-6.09 50.497,-4.298ZM48.852,-1.365C49.211,-1.743 49.391,-2.231 49.391,-2.828L49.391,-3.234L49.139,-3.234C48.317,-3.234 47.692,-3.199 47.263,-3.129C46.833,-3.059 46.528,-2.942 46.346,-2.779C46.164,-2.616 46.073,-2.375 46.073,-2.058C46.073,-1.694 46.206,-1.393 46.472,-1.155C46.738,-0.917 47.071,-0.798 47.473,-0.798C48.033,-0.798 48.492,-0.987 48.852,-1.365Z" style="fill:rgb(71,175,232);fill-rule:nonzero;"/><path d="M53.649,-0.336C53.159,-0.625 52.781,-1.036 52.515,-1.568C52.249,-2.1 52.116,-2.716 52.116,-3.416C52.116,-4.116 52.254,-4.737 52.529,-5.278C52.805,-5.819 53.19,-6.239 53.684,-6.538C54.179,-6.837 54.748,-6.986 55.392,-6.986C55.747,-6.986 56.099,-6.937 56.449,-6.839C56.799,-6.741 57.105,-6.599 57.366,-6.412C57.534,-6.3 57.653,-6.19 57.723,-6.083C57.793,-5.976 57.828,-5.857 57.828,-5.726C57.828,-5.595 57.793,-5.488 57.723,-5.404C57.653,-5.32 57.562,-5.278 57.45,-5.278C57.385,-5.278 57.315,-5.297 57.24,-5.334C57.166,-5.371 57.103,-5.409 57.051,-5.446C57,-5.483 56.965,-5.507 56.946,-5.516C56.704,-5.675 56.473,-5.801 56.253,-5.894C56.034,-5.987 55.766,-6.034 55.448,-6.034C54.767,-6.034 54.237,-5.803 53.859,-5.341C53.481,-4.879 53.292,-4.237 53.292,-3.416C53.292,-2.595 53.481,-1.96 53.859,-1.512C54.237,-1.064 54.767,-0.84 55.448,-0.84C55.766,-0.84 56.039,-0.887 56.267,-0.98C56.496,-1.073 56.727,-1.199 56.96,-1.358C57.063,-1.423 57.161,-1.479 57.254,-1.526C57.348,-1.573 57.427,-1.596 57.492,-1.596C57.595,-1.596 57.681,-1.554 57.751,-1.47C57.821,-1.386 57.856,-1.279 57.856,-1.148C57.856,-1.027 57.824,-0.917 57.758,-0.819C57.693,-0.721 57.572,-0.611 57.394,-0.49C57.133,-0.313 56.818,-0.17 56.449,-0.063C56.081,0.044 55.71,0.098 55.336,0.098C54.702,0.098 54.139,-0.047 53.649,-0.336Z" style="fill:rgb(71,175,232);fill-rule:nonzero;"/><path d="M62.836,-0.378C62.836,-0.219 62.778,-0.1 62.661,-0.021C62.545,0.058 62.37,0.089 62.136,0.07L61.758,0.042C61.012,-0.014 60.461,-0.238 60.106,-0.63C59.752,-1.022 59.574,-1.615 59.574,-2.408L59.574,-5.922L58.636,-5.922C58.478,-5.922 58.354,-5.962 58.265,-6.041C58.177,-6.12 58.132,-6.225 58.132,-6.356C58.132,-6.496 58.177,-6.608 58.265,-6.692C58.354,-6.776 58.478,-6.818 58.636,-6.818L59.574,-6.818L59.574,-8.4C59.574,-8.577 59.626,-8.715 59.728,-8.813C59.831,-8.911 59.971,-8.96 60.148,-8.96C60.316,-8.96 60.452,-8.911 60.554,-8.813C60.657,-8.715 60.708,-8.577 60.708,-8.4L60.708,-6.818L62.262,-6.818C62.412,-6.818 62.531,-6.776 62.619,-6.692C62.708,-6.608 62.752,-6.496 62.752,-6.356C62.752,-6.225 62.708,-6.12 62.619,-6.041C62.531,-5.962 62.412,-5.922 62.262,-5.922L60.708,-5.922L60.708,-2.352C60.708,-1.839 60.813,-1.468 61.023,-1.239C61.233,-1.01 61.548,-0.882 61.968,-0.854L62.346,-0.826C62.673,-0.798 62.836,-0.649 62.836,-0.378Z" style="fill:rgb(71,175,232);fill-rule:nonzero;"/><path d="M65.037,-0.336C64.547,-0.625 64.169,-1.038 63.903,-1.575C63.637,-2.112 63.504,-2.735 63.504,-3.444C63.504,-4.153 63.637,-4.776 63.903,-5.313C64.169,-5.85 64.547,-6.263 65.037,-6.552C65.527,-6.841 66.094,-6.986 66.738,-6.986C67.382,-6.986 67.951,-6.841 68.446,-6.552C68.941,-6.263 69.321,-5.85 69.587,-5.313C69.853,-4.776 69.986,-4.153 69.986,-3.444C69.986,-2.735 69.853,-2.112 69.587,-1.575C69.321,-1.038 68.941,-0.625 68.446,-0.336C67.951,-0.047 67.382,0.098 66.738,0.098C66.094,0.098 65.527,-0.047 65.037,-0.336ZM68.285,-1.505C68.644,-1.948 68.824,-2.595 68.824,-3.444C68.824,-4.275 68.642,-4.916 68.278,-5.369C67.914,-5.822 67.401,-6.048 66.738,-6.048C66.075,-6.048 65.562,-5.822 65.198,-5.369C64.834,-4.916 64.652,-4.275 64.652,-3.444C64.652,-2.604 64.832,-1.96 65.191,-1.512C65.55,-1.064 66.066,-0.84 66.738,-0.84C67.41,-0.84 67.926,-1.062 68.285,-1.505Z" style="fill:rgb(71,175,232);fill-rule:nonzero;"/><path d="M75.596,-6.482C75.596,-6.333 75.554,-6.214 75.47,-6.125C75.386,-6.036 75.241,-5.983 75.036,-5.964L74.616,-5.922C73.99,-5.866 73.526,-5.644 73.223,-5.257C72.919,-4.87 72.768,-4.415 72.768,-3.892L72.768,-0.49C72.768,-0.303 72.716,-0.163 72.614,-0.07C72.511,0.023 72.376,0.07 72.208,0.07C72.04,0.07 71.902,0.021 71.795,-0.077C71.687,-0.175 71.634,-0.313 71.634,-0.49L71.634,-6.398C71.634,-6.575 71.69,-6.713 71.802,-6.811C71.914,-6.909 72.049,-6.958 72.208,-6.958C72.357,-6.958 72.483,-6.909 72.586,-6.811C72.688,-6.713 72.74,-6.58 72.74,-6.412L72.74,-5.628C72.936,-6.039 73.213,-6.351 73.573,-6.566C73.932,-6.781 74.345,-6.907 74.812,-6.944L75.008,-6.958C75.4,-6.986 75.596,-6.827 75.596,-6.482Z" style="fill:rgb(71,175,232);fill-rule:nonzero;"/></g><g transform="matrix(1,0,0,1,865,425)"><path d="M9.772,-0.42C9.772,-0.28 9.718,-0.163 9.611,-0.07C9.504,0.023 9.375,0.07 9.226,0.07C8.993,0.07 8.829,-0.042 8.736,-0.266L7.742,-2.534L2.464,-2.534L1.456,-0.266C1.363,-0.042 1.199,0.07 0.966,0.07C0.817,0.07 0.686,0.021 0.574,-0.077C0.462,-0.175 0.406,-0.294 0.406,-0.434C0.406,-0.509 0.425,-0.583 0.462,-0.658L4.466,-9.562C4.522,-9.693 4.606,-9.791 4.718,-9.856C4.83,-9.921 4.951,-9.954 5.082,-9.954C5.222,-9.954 5.348,-9.919 5.46,-9.849C5.572,-9.779 5.656,-9.683 5.712,-9.562L9.716,-0.658C9.753,-0.583 9.772,-0.504 9.772,-0.42ZM2.884,-3.486L7.322,-3.486L5.096,-8.512L2.884,-3.486Z" style="fill:rgb(71,175,232);fill-rule:nonzero;"/><path d="M16.775,-6.804C16.873,-6.701 16.922,-6.566 16.922,-6.398L16.922,-0.476C16.922,-0.317 16.873,-0.187 16.775,-0.084C16.677,0.019 16.539,0.07 16.362,0.07C16.194,0.07 16.061,0.021 15.963,-0.077C15.865,-0.175 15.816,-0.303 15.816,-0.462L15.816,-1.162C15.601,-0.751 15.3,-0.439 14.913,-0.224C14.525,-0.009 14.089,0.098 13.604,0.098C12.792,0.098 12.18,-0.128 11.77,-0.581C11.359,-1.034 11.154,-1.703 11.154,-2.59L11.154,-6.398C11.154,-6.566 11.205,-6.701 11.308,-6.804C11.41,-6.907 11.55,-6.958 11.728,-6.958C11.905,-6.958 12.043,-6.907 12.141,-6.804C12.239,-6.701 12.288,-6.566 12.288,-6.398L12.288,-2.618C12.288,-2.011 12.409,-1.566 12.652,-1.281C12.894,-0.996 13.277,-0.854 13.8,-0.854C14.397,-0.854 14.878,-1.048 15.242,-1.435C15.606,-1.822 15.788,-2.333 15.788,-2.968L15.788,-6.398C15.788,-6.566 15.839,-6.701 15.942,-6.804C16.044,-6.907 16.184,-6.958 16.362,-6.958C16.539,-6.958 16.677,-6.907 16.775,-6.804Z" style="fill:rgb(71,175,232);fill-rule:nonzero;"/><path d="M22.63,-0.378C22.63,-0.219 22.571,-0.1 22.455,-0.021C22.338,0.058 22.163,0.089 21.93,0.07L21.552,0.042C20.805,-0.014 20.254,-0.238 19.9,-0.63C19.545,-1.022 19.368,-1.615 19.368,-2.408L19.368,-5.922L18.43,-5.922C18.271,-5.922 18.147,-5.962 18.059,-6.041C17.97,-6.12 17.926,-6.225 17.926,-6.356C17.926,-6.496 17.97,-6.608 18.059,-6.692C18.147,-6.776 18.271,-6.818 18.43,-6.818L19.368,-6.818L19.368,-8.4C19.368,-8.577 19.419,-8.715 19.522,-8.813C19.624,-8.911 19.764,-8.96 19.942,-8.96C20.11,-8.96 20.245,-8.911 20.348,-8.813C20.45,-8.715 20.502,-8.577 20.502,-8.4L20.502,-6.818L22.056,-6.818C22.205,-6.818 22.324,-6.776 22.413,-6.692C22.501,-6.608 22.546,-6.496 22.546,-6.356C22.546,-6.225 22.501,-6.12 22.413,-6.041C22.324,-5.962 22.205,-5.922 22.056,-5.922L20.502,-5.922L20.502,-2.352C20.502,-1.839 20.607,-1.468 20.817,-1.239C21.027,-1.01 21.342,-0.882 21.762,-0.854L22.14,-0.826C22.466,-0.798 22.63,-0.649 22.63,-0.378Z" style="fill:rgb(71,175,232);fill-rule:nonzero;"/><path d="M28.967,-6.307C29.378,-5.854 29.583,-5.18 29.583,-4.284L29.583,-0.49C29.583,-0.313 29.532,-0.175 29.429,-0.077C29.327,0.021 29.191,0.07 29.023,0.07C28.846,0.07 28.706,0.021 28.603,-0.077C28.501,-0.175 28.449,-0.313 28.449,-0.49L28.449,-4.256C28.449,-4.863 28.326,-5.311 28.078,-5.6C27.831,-5.889 27.437,-6.034 26.895,-6.034C26.27,-6.034 25.771,-5.843 25.397,-5.46C25.024,-5.077 24.837,-4.559 24.837,-3.906L24.837,-0.49C24.837,-0.313 24.788,-0.175 24.69,-0.077C24.592,0.021 24.455,0.07 24.277,0.07C24.1,0.07 23.96,0.021 23.857,-0.077C23.755,-0.175 23.703,-0.313 23.703,-0.49L23.703,-9.394C23.703,-9.553 23.757,-9.683 23.864,-9.786C23.972,-9.889 24.109,-9.94 24.277,-9.94C24.455,-9.94 24.592,-9.891 24.69,-9.793C24.788,-9.695 24.837,-9.562 24.837,-9.394L24.837,-5.726C25.061,-6.137 25.374,-6.449 25.775,-6.664C26.177,-6.879 26.634,-6.986 27.147,-6.986C27.95,-6.986 28.557,-6.76 28.967,-6.307Z" style="fill:rgb(71,175,232);fill-rule:nonzero;"/><path d="M37.153,-1.456C37.228,-1.372 37.265,-1.265 37.265,-1.134C37.265,-0.901 37.102,-0.686 36.775,-0.49C36.439,-0.294 36.085,-0.147 35.711,-0.049C35.338,0.049 34.974,0.098 34.619,0.098C33.565,0.098 32.732,-0.215 32.12,-0.84C31.509,-1.465 31.203,-2.329 31.203,-3.43C31.203,-4.13 31.339,-4.748 31.609,-5.285C31.88,-5.822 32.26,-6.239 32.75,-6.538C33.24,-6.837 33.798,-6.986 34.423,-6.986C35.31,-6.986 36.015,-6.697 36.537,-6.118C37.06,-5.539 37.321,-4.755 37.321,-3.766C37.321,-3.579 37.284,-3.444 37.209,-3.36C37.135,-3.276 37.013,-3.234 36.845,-3.234L32.337,-3.234C32.421,-1.629 33.182,-0.826 34.619,-0.826C34.983,-0.826 35.296,-0.875 35.557,-0.973C35.819,-1.071 36.099,-1.204 36.397,-1.372C36.64,-1.512 36.803,-1.582 36.887,-1.582C36.99,-1.582 37.079,-1.54 37.153,-1.456ZM33.002,-5.544C32.643,-5.171 32.431,-4.643 32.365,-3.962L36.327,-3.962C36.309,-4.653 36.136,-5.182 35.809,-5.551C35.483,-5.92 35.025,-6.104 34.437,-6.104C33.84,-6.104 33.362,-5.917 33.002,-5.544Z" style="fill:rgb(71,175,232);fill-rule:nonzero;"/><path d="M44.821,-4.284L44.821,-0.49C44.821,-0.313 44.772,-0.175 44.674,-0.077C44.576,0.021 44.438,0.07 44.261,0.07C44.084,0.07 43.944,0.021 43.841,-0.077C43.738,-0.175 43.687,-0.313 43.687,-0.49L43.687,-4.214C43.687,-4.849 43.563,-5.311 43.316,-5.6C43.069,-5.889 42.674,-6.034 42.133,-6.034C41.508,-6.034 41.008,-5.843 40.635,-5.46C40.262,-5.077 40.075,-4.559 40.075,-3.906L40.075,-0.49C40.075,-0.313 40.026,-0.175 39.928,-0.077C39.83,0.021 39.692,0.07 39.515,0.07C39.338,0.07 39.198,0.021 39.095,-0.077C38.992,-0.175 38.941,-0.313 38.941,-0.49L38.941,-6.398C38.941,-6.566 38.992,-6.701 39.095,-6.804C39.198,-6.907 39.338,-6.958 39.515,-6.958C39.683,-6.958 39.816,-6.907 39.914,-6.804C40.012,-6.701 40.061,-6.571 40.061,-6.412L40.061,-5.698C40.285,-6.118 40.598,-6.438 40.999,-6.657C41.4,-6.876 41.858,-6.986 42.371,-6.986C44.004,-6.986 44.821,-6.085 44.821,-4.284Z" style="fill:rgb(71,175,232);fill-rule:nonzero;"/><path d="M50.487,-0.378C50.487,-0.219 50.428,-0.1 50.312,-0.021C50.195,0.058 50.02,0.089 49.787,0.07L49.409,0.042C48.662,-0.014 48.111,-0.238 47.757,-0.63C47.402,-1.022 47.225,-1.615 47.225,-2.408L47.225,-5.922L46.287,-5.922C46.128,-5.922 46.004,-5.962 45.916,-6.041C45.827,-6.12 45.783,-6.225 45.783,-6.356C45.783,-6.496 45.827,-6.608 45.916,-6.692C46.004,-6.776 46.128,-6.818 46.287,-6.818L47.225,-6.818L47.225,-8.4C47.225,-8.577 47.276,-8.715 47.379,-8.813C47.481,-8.911 47.621,-8.96 47.799,-8.96C47.967,-8.96 48.102,-8.911 48.205,-8.813C48.307,-8.715 48.359,-8.577 48.359,-8.4L48.359,-6.818L49.913,-6.818C50.062,-6.818 50.181,-6.776 50.27,-6.692C50.358,-6.608 50.403,-6.496 50.403,-6.356C50.403,-6.225 50.358,-6.12 50.27,-6.041C50.181,-5.962 50.062,-5.922 49.913,-5.922L48.359,-5.922L48.359,-2.352C48.359,-1.839 48.464,-1.468 48.674,-1.239C48.884,-1.01 49.199,-0.882 49.619,-0.854L49.997,-0.826C50.323,-0.798 50.487,-0.649 50.487,-0.378Z" style="fill:rgb(71,175,232);fill-rule:nonzero;"/><path d="M51.722,-0.077C51.614,-0.175 51.561,-0.313 51.561,-0.49L51.561,-6.398C51.561,-6.575 51.614,-6.713 51.722,-6.811C51.829,-6.909 51.967,-6.958 52.135,-6.958C52.303,-6.958 52.438,-6.909 52.541,-6.811C52.643,-6.713 52.695,-6.575 52.695,-6.398L52.695,-0.49C52.695,-0.303 52.643,-0.163 52.541,-0.07C52.438,0.023 52.303,0.07 52.135,0.07C51.967,0.07 51.829,0.021 51.722,-0.077ZM51.589,-8.624C51.449,-8.755 51.379,-8.927 51.379,-9.142C51.379,-9.347 51.449,-9.515 51.589,-9.646C51.729,-9.777 51.911,-9.842 52.135,-9.842C52.359,-9.842 52.541,-9.777 52.681,-9.646C52.821,-9.515 52.891,-9.347 52.891,-9.142C52.891,-8.927 52.821,-8.755 52.681,-8.624C52.541,-8.493 52.359,-8.428 52.135,-8.428C51.911,-8.428 51.729,-8.493 51.589,-8.624Z" style="fill:rgb(71,175,232);fill-rule:nonzero;"/><path d="M55.889,-0.336C55.399,-0.625 55.021,-1.036 54.755,-1.568C54.489,-2.1 54.356,-2.716 54.356,-3.416C54.356,-4.116 54.494,-4.737 54.769,-5.278C55.045,-5.819 55.43,-6.239 55.924,-6.538C56.419,-6.837 56.988,-6.986 57.632,-6.986C57.987,-6.986 58.339,-6.937 58.689,-6.839C59.039,-6.741 59.345,-6.599 59.606,-6.412C59.774,-6.3 59.893,-6.19 59.963,-6.083C60.033,-5.976 60.068,-5.857 60.068,-5.726C60.068,-5.595 60.033,-5.488 59.963,-5.404C59.893,-5.32 59.802,-5.278 59.69,-5.278C59.625,-5.278 59.555,-5.297 59.48,-5.334C59.406,-5.371 59.343,-5.409 59.291,-5.446C59.24,-5.483 59.205,-5.507 59.186,-5.516C58.944,-5.675 58.713,-5.801 58.493,-5.894C58.274,-5.987 58.006,-6.034 57.688,-6.034C57.007,-6.034 56.477,-5.803 56.099,-5.341C55.721,-4.879 55.532,-4.237 55.532,-3.416C55.532,-2.595 55.721,-1.96 56.099,-1.512C56.477,-1.064 57.007,-0.84 57.688,-0.84C58.006,-0.84 58.279,-0.887 58.507,-0.98C58.736,-1.073 58.967,-1.199 59.2,-1.358C59.303,-1.423 59.401,-1.479 59.494,-1.526C59.588,-1.573 59.667,-1.596 59.732,-1.596C59.835,-1.596 59.921,-1.554 59.991,-1.47C60.061,-1.386 60.096,-1.279 60.096,-1.148C60.096,-1.027 60.064,-0.917 59.998,-0.819C59.933,-0.721 59.812,-0.611 59.634,-0.49C59.373,-0.313 59.058,-0.17 58.689,-0.063C58.321,0.044 57.95,0.098 57.576,0.098C56.942,0.098 56.379,-0.047 55.889,-0.336Z" style="fill:rgb(71,175,232);fill-rule:nonzero;"/><path d="M66.77,-4.298L66.77,-0.49C66.77,-0.322 66.721,-0.187 66.623,-0.084C66.525,0.019 66.392,0.07 66.224,0.07C66.056,0.07 65.921,0.019 65.818,-0.084C65.716,-0.187 65.664,-0.322 65.664,-0.49L65.664,-1.162C65.487,-0.761 65.216,-0.45 64.852,-0.231C64.488,-0.012 64.068,0.098 63.592,0.098C63.154,0.098 62.75,0.009 62.381,-0.168C62.013,-0.345 61.721,-0.593 61.506,-0.91C61.292,-1.227 61.184,-1.577 61.184,-1.96C61.184,-2.473 61.315,-2.872 61.576,-3.157C61.838,-3.442 62.267,-3.647 62.864,-3.773C63.462,-3.899 64.292,-3.962 65.356,-3.962L65.664,-3.962L65.664,-4.424C65.664,-4.984 65.55,-5.395 65.321,-5.656C65.093,-5.917 64.722,-6.048 64.208,-6.048C63.574,-6.048 62.93,-5.875 62.276,-5.53C62.024,-5.371 61.847,-5.292 61.744,-5.292C61.632,-5.292 61.539,-5.334 61.464,-5.418C61.39,-5.502 61.352,-5.609 61.352,-5.74C61.352,-5.871 61.392,-5.985 61.471,-6.083C61.551,-6.181 61.679,-6.281 61.856,-6.384C62.183,-6.571 62.554,-6.718 62.969,-6.825C63.385,-6.932 63.798,-6.986 64.208,-6.986C65.916,-6.986 66.77,-6.09 66.77,-4.298ZM65.125,-1.365C65.485,-1.743 65.664,-2.231 65.664,-2.828L65.664,-3.234L65.412,-3.234C64.591,-3.234 63.966,-3.199 63.536,-3.129C63.107,-3.059 62.801,-2.942 62.619,-2.779C62.437,-2.616 62.346,-2.375 62.346,-2.058C62.346,-1.694 62.479,-1.393 62.745,-1.155C63.011,-0.917 63.345,-0.798 63.746,-0.798C64.306,-0.798 64.766,-0.987 65.125,-1.365Z" style="fill:rgb(71,175,232);fill-rule:nonzero;"/><path d="M72.436,-0.378C72.436,-0.219 72.378,-0.1 72.261,-0.021C72.144,0.058 71.969,0.089 71.736,0.07L71.358,0.042C70.611,-0.014 70.061,-0.238 69.706,-0.63C69.351,-1.022 69.174,-1.615 69.174,-2.408L69.174,-5.922L68.236,-5.922C68.077,-5.922 67.954,-5.962 67.865,-6.041C67.776,-6.12 67.732,-6.225 67.732,-6.356C67.732,-6.496 67.776,-6.608 67.865,-6.692C67.954,-6.776 68.077,-6.818 68.236,-6.818L69.174,-6.818L69.174,-8.4C69.174,-8.577 69.225,-8.715 69.328,-8.813C69.431,-8.911 69.571,-8.96 69.748,-8.96C69.916,-8.96 70.051,-8.911 70.154,-8.813C70.257,-8.715 70.308,-8.577 70.308,-8.4L70.308,-6.818L71.862,-6.818C72.011,-6.818 72.13,-6.776 72.219,-6.692C72.308,-6.608 72.352,-6.496 72.352,-6.356C72.352,-6.225 72.308,-6.12 72.219,-6.041C72.13,-5.962 72.011,-5.922 71.862,-5.922L70.308,-5.922L70.308,-2.352C70.308,-1.839 70.413,-1.468 70.623,-1.239C70.833,-1.01 71.148,-0.882 71.568,-0.854L71.946,-0.826C72.273,-0.798 72.436,-0.649 72.436,-0.378Z" style="fill:rgb(71,175,232);fill-rule:nonzero;"/><path d="M73.671,-0.077C73.563,-0.175 73.51,-0.313 73.51,-0.49L73.51,-6.398C73.51,-6.575 73.563,-6.713 73.671,-6.811C73.778,-6.909 73.916,-6.958 74.084,-6.958C74.252,-6.958 74.387,-6.909 74.49,-6.811C74.592,-6.713 74.644,-6.575 74.644,-6.398L74.644,-0.49C74.644,-0.303 74.592,-0.163 74.49,-0.07C74.387,0.023 74.252,0.07 74.084,0.07C73.916,0.07 73.778,0.021 73.671,-0.077ZM73.538,-8.624C73.398,-8.755 73.328,-8.927 73.328,-9.142C73.328,-9.347 73.398,-9.515 73.538,-9.646C73.678,-9.777 73.86,-9.842 74.084,-9.842C74.308,-9.842 74.49,-9.777 74.63,-9.646C74.77,-9.515 74.84,-9.347 74.84,-9.142C74.84,-8.927 74.77,-8.755 74.63,-8.624C74.49,-8.493 74.308,-8.428 74.084,-8.428C73.86,-8.428 73.678,-8.493 73.538,-8.624Z" style="fill:rgb(71,175,232);fill-rule:nonzero;"/><path d="M77.839,-0.336C77.349,-0.625 76.971,-1.038 76.705,-1.575C76.439,-2.112 76.306,-2.735 76.306,-3.444C76.306,-4.153 76.439,-4.776 76.705,-5.313C76.971,-5.85 77.349,-6.263 77.839,-6.552C78.329,-6.841 78.896,-6.986 79.54,-6.986C80.184,-6.986 80.753,-6.841 81.248,-6.552C81.742,-6.263 82.123,-5.85 82.389,-5.313C82.655,-4.776 82.788,-4.153 82.788,-3.444C82.788,-2.735 82.655,-2.112 82.389,-1.575C82.123,-1.038 81.742,-0.625 81.248,-0.336C80.753,-0.047 80.184,0.098 79.54,0.098C78.896,0.098 78.329,-0.047 77.839,-0.336ZM81.087,-1.505C81.446,-1.948 81.626,-2.595 81.626,-3.444C81.626,-4.275 81.444,-4.916 81.08,-5.369C80.716,-5.822 80.202,-6.048 79.54,-6.048C78.877,-6.048 78.364,-5.822 78,-5.369C77.636,-4.916 77.454,-4.275 77.454,-3.444C77.454,-2.604 77.633,-1.96 77.993,-1.512C78.352,-1.064 78.868,-0.84 79.54,-0.84C80.212,-0.84 80.727,-1.062 81.087,-1.505Z" style="fill:rgb(71,175,232);fill-rule:nonzero;"/><path d="M90.315,-4.284L90.315,-0.49C90.315,-0.313 90.266,-0.175 90.168,-0.077C90.07,0.021 89.933,0.07 89.755,0.07C89.578,0.07 89.438,0.021 89.335,-0.077C89.233,-0.175 89.181,-0.313 89.181,-0.49L89.181,-4.214C89.181,-4.849 89.058,-5.311 88.81,-5.6C88.563,-5.889 88.169,-6.034 87.627,-6.034C87.002,-6.034 86.503,-5.843 86.129,-5.46C85.756,-5.077 85.569,-4.559 85.569,-3.906L85.569,-0.49C85.569,-0.313 85.52,-0.175 85.422,-0.077C85.324,0.021 85.187,0.07 85.009,0.07C84.832,0.07 84.692,0.021 84.589,-0.077C84.487,-0.175 84.435,-0.313 84.435,-0.49L84.435,-6.398C84.435,-6.566 84.487,-6.701 84.589,-6.804C84.692,-6.907 84.832,-6.958 85.009,-6.958C85.177,-6.958 85.31,-6.907 85.408,-6.804C85.506,-6.701 85.555,-6.571 85.555,-6.412L85.555,-5.698C85.779,-6.118 86.092,-6.438 86.493,-6.657C86.895,-6.876 87.352,-6.986 87.865,-6.986C89.499,-6.986 90.315,-6.085 90.315,-4.284Z" style="fill:rgb(71,175,232);fill-rule:nonzero;"/></g></g></g></svg>