<?xml version="1.0" encoding="UTF-8" standalone="no"?><!DOCTYPE svg PUBLIC "-//W3C//DTD SVG 1.1//EN" "http://www.w3.org/Graphics/SVG/1.1/DTD/svg11.dtd"><svg width="56px" height="11px" version="1.1" xmlns="http://www.w3.org/2000/svg" xmlns:xlink="http://www.w3.org/1999/xlink" xml:space="preserve" xmlns:serif="http://www.serif.com/" style="fill-rule:evenodd;clip-rule:evenodd;stroke-linejoin:round;stroke-miterlimit:1.41421;"><g transform="matrix(1,0,0,1,-858,-350)"><g transform="matrix(1,0,0,1,857.357,360)"><g id="On-Prem"><path d="M2.961,-0.504C2.284,-0.915 1.764,-1.498 1.4,-2.254C1.036,-3.01 0.854,-3.901 0.854,-4.928C0.854,-5.964 1.034,-6.862 1.393,-7.623C1.752,-8.384 2.27,-8.967 2.947,-9.373C3.624,-9.779 4.424,-9.982 5.348,-9.982C6.272,-9.982 7.072,-9.779 7.749,-9.373C8.426,-8.967 8.944,-8.384 9.303,-7.623C9.662,-6.862 9.842,-5.969 9.842,-4.942C9.842,-3.915 9.66,-3.022 9.296,-2.261C8.932,-1.5 8.412,-0.915 7.735,-0.504C7.058,-0.093 6.263,0.112 5.348,0.112C4.433,0.112 3.638,-0.093 2.961,-0.504ZM7.791,-1.925C8.374,-2.63 8.666,-3.635 8.666,-4.942C8.666,-6.249 8.377,-7.252 7.798,-7.952C7.219,-8.652 6.403,-9.002 5.348,-9.002C4.303,-9.002 3.488,-8.65 2.905,-7.945C2.322,-7.24 2.03,-6.239 2.03,-4.942C2.03,-3.645 2.322,-2.641 2.905,-1.932C3.488,-1.223 4.303,-0.868 5.348,-0.868C6.393,-0.868 7.208,-1.22 7.791,-1.925Z" style="fill:rgb(71,175,232);fill-rule:nonzero;"/><path d="M17.58,-4.284L17.58,-0.49C17.58,-0.313 17.531,-0.175 17.433,-0.077C17.335,0.021 17.197,0.07 17.02,0.07C16.842,0.07 16.702,0.021 16.6,-0.077C16.497,-0.175 16.446,-0.313 16.446,-0.49L16.446,-4.214C16.446,-4.849 16.322,-5.311 16.075,-5.6C15.827,-5.889 15.433,-6.034 14.892,-6.034C14.266,-6.034 13.767,-5.843 13.394,-5.46C13.02,-5.077 12.834,-4.559 12.834,-3.906L12.834,-0.49C12.834,-0.313 12.785,-0.175 12.687,-0.077C12.589,0.021 12.451,0.07 12.274,0.07C12.096,0.07 11.956,0.021 11.854,-0.077C11.751,-0.175 11.7,-0.313 11.7,-0.49L11.7,-6.398C11.7,-6.566 11.751,-6.701 11.854,-6.804C11.956,-6.907 12.096,-6.958 12.274,-6.958C12.442,-6.958 12.575,-6.907 12.673,-6.804C12.771,-6.701 12.82,-6.571 12.82,-6.412L12.82,-5.698C13.044,-6.118 13.356,-6.438 13.758,-6.657C14.159,-6.876 14.616,-6.986 15.13,-6.986C16.763,-6.986 17.58,-6.085 17.58,-4.284Z" style="fill:rgb(71,175,232);fill-rule:nonzero;"/><path d="M19.599,-3.388C19.51,-3.472 19.466,-3.584 19.466,-3.724C19.466,-3.864 19.51,-3.978 19.599,-4.067C19.687,-4.156 19.816,-4.2 19.984,-4.2L23.064,-4.2C23.241,-4.2 23.374,-4.156 23.463,-4.067C23.551,-3.978 23.596,-3.864 23.596,-3.724C23.596,-3.584 23.551,-3.472 23.463,-3.388C23.374,-3.304 23.241,-3.262 23.064,-3.262L19.984,-3.262C19.816,-3.262 19.687,-3.304 19.599,-3.388Z" style="fill:rgb(71,175,232);fill-rule:nonzero;"/><path d="M25.831,-0.091C25.729,-0.198 25.677,-0.341 25.677,-0.518L25.677,-9.31C25.677,-9.478 25.731,-9.613 25.838,-9.716C25.946,-9.819 26.088,-9.87 26.265,-9.87L29.583,-9.87C30.619,-9.87 31.424,-9.618 31.998,-9.114C32.572,-8.61 32.859,-7.896 32.859,-6.972C32.859,-6.048 32.57,-5.329 31.991,-4.816C31.413,-4.303 30.61,-4.046 29.583,-4.046L26.825,-4.046L26.825,-0.518C26.825,-0.341 26.774,-0.198 26.671,-0.091C26.569,0.016 26.429,0.07 26.251,0.07C26.074,0.07 25.934,0.016 25.831,-0.091ZM29.471,-4.998C30.974,-4.998 31.725,-5.656 31.725,-6.972C31.725,-8.269 30.974,-8.918 29.471,-8.918L26.825,-8.918L26.825,-4.998L29.471,-4.998Z" style="fill:rgb(71,175,232);fill-rule:nonzero;"/><path d="M38.315,-6.482C38.315,-6.333 38.273,-6.214 38.189,-6.125C38.105,-6.036 37.961,-5.983 37.755,-5.964L37.335,-5.922C36.71,-5.866 36.246,-5.644 35.942,-5.257C35.639,-4.87 35.487,-4.415 35.487,-3.892L35.487,-0.49C35.487,-0.303 35.436,-0.163 35.333,-0.07C35.231,0.023 35.095,0.07 34.927,0.07C34.759,0.07 34.622,0.021 34.514,-0.077C34.407,-0.175 34.353,-0.313 34.353,-0.49L34.353,-6.398C34.353,-6.575 34.409,-6.713 34.521,-6.811C34.633,-6.909 34.769,-6.958 34.927,-6.958C35.077,-6.958 35.203,-6.909 35.305,-6.811C35.408,-6.713 35.459,-6.58 35.459,-6.412L35.459,-5.628C35.655,-6.039 35.933,-6.351 36.292,-6.566C36.652,-6.781 37.065,-6.907 37.531,-6.944L37.727,-6.958C38.119,-6.986 38.315,-6.827 38.315,-6.482Z" style="fill:rgb(71,175,232);fill-rule:nonzero;"/><path d="M44.653,-1.456C44.728,-1.372 44.765,-1.265 44.765,-1.134C44.765,-0.901 44.602,-0.686 44.275,-0.49C43.939,-0.294 43.584,-0.147 43.211,-0.049C42.838,0.049 42.474,0.098 42.119,0.098C41.064,0.098 40.231,-0.215 39.62,-0.84C39.009,-1.465 38.703,-2.329 38.703,-3.43C38.703,-4.13 38.838,-4.748 39.109,-5.285C39.38,-5.822 39.76,-6.239 40.25,-6.538C40.74,-6.837 41.298,-6.986 41.923,-6.986C42.81,-6.986 43.514,-6.697 44.037,-6.118C44.56,-5.539 44.821,-4.755 44.821,-3.766C44.821,-3.579 44.784,-3.444 44.709,-3.36C44.634,-3.276 44.513,-3.234 44.345,-3.234L39.837,-3.234C39.921,-1.629 40.682,-0.826 42.119,-0.826C42.483,-0.826 42.796,-0.875 43.057,-0.973C43.318,-1.071 43.598,-1.204 43.897,-1.372C44.14,-1.512 44.303,-1.582 44.387,-1.582C44.49,-1.582 44.578,-1.54 44.653,-1.456ZM40.502,-5.544C40.143,-5.171 39.93,-4.643 39.865,-3.962L43.827,-3.962C43.808,-4.653 43.636,-5.182 43.309,-5.551C42.982,-5.92 42.525,-6.104 41.937,-6.104C41.34,-6.104 40.861,-5.917 40.502,-5.544Z" style="fill:rgb(71,175,232);fill-rule:nonzero;"/><path d="M56.297,-4.284L56.297,-0.49C56.297,-0.313 56.245,-0.175 56.143,-0.077C56.04,0.021 55.905,0.07 55.737,0.07C55.569,0.07 55.431,0.021 55.324,-0.077C55.216,-0.175 55.163,-0.313 55.163,-0.49L55.163,-4.256C55.163,-4.881 55.051,-5.334 54.827,-5.614C54.603,-5.894 54.253,-6.034 53.777,-6.034C53.207,-6.034 52.759,-5.843 52.433,-5.46C52.106,-5.077 51.943,-4.559 51.943,-3.906L51.943,-0.49C51.943,-0.313 51.889,-0.175 51.782,-0.077C51.674,0.021 51.537,0.07 51.369,0.07C51.201,0.07 51.065,0.021 50.963,-0.077C50.86,-0.175 50.809,-0.313 50.809,-0.49L50.809,-4.256C50.809,-4.881 50.697,-5.334 50.473,-5.614C50.249,-5.894 49.894,-6.034 49.409,-6.034C48.849,-6.034 48.403,-5.843 48.072,-5.46C47.74,-5.077 47.575,-4.559 47.575,-3.906L47.575,-0.49C47.575,-0.313 47.523,-0.175 47.421,-0.077C47.318,0.021 47.183,0.07 47.015,0.07C46.847,0.07 46.709,0.021 46.602,-0.077C46.494,-0.175 46.441,-0.313 46.441,-0.49L46.441,-6.398C46.441,-6.566 46.494,-6.701 46.602,-6.804C46.709,-6.907 46.847,-6.958 47.015,-6.958C47.173,-6.958 47.304,-6.909 47.407,-6.811C47.509,-6.713 47.561,-6.58 47.561,-6.412L47.561,-5.74C47.766,-6.141 48.051,-6.449 48.415,-6.664C48.779,-6.879 49.199,-6.986 49.675,-6.986C50.739,-6.986 51.434,-6.538 51.761,-5.642C51.957,-6.053 52.255,-6.379 52.657,-6.622C53.058,-6.865 53.515,-6.986 54.029,-6.986C55.541,-6.986 56.297,-6.085 56.297,-4.284Z" style="fill:rgb(71,175,232);fill-rule:nonzero;"/></g></g></g></svg>