<?xml version="1.0" encoding="UTF-8" standalone="no"?><!DOCTYPE svg PUBLIC "-//W3C//DTD SVG 1.1//EN" "http://www.w3.org/Graphics/SVG/1.1/DTD/svg11.dtd"><svg width="149px" height="15px" version="1.1" xmlns="http://www.w3.org/2000/svg" xmlns:xlink="http://www.w3.org/1999/xlink" xml:space="preserve" xmlns:serif="http://www.serif.com/" style="fill-rule:evenodd;clip-rule:evenodd;stroke-linejoin:round;stroke-miterlimit:1.41421;"><g transform="matrix(1,0,0,1,-766,-450)"><g transform="matrix(1,0,0,1,765.5,463)"><g id="LDAP---AD---RADIUS" serif:id="LDAP-/-AD-/-RADIUS"><path d="M1.576,-0.168C1.453,-0.28 1.392,-0.427 1.392,-0.608L1.392,-10.688C1.392,-10.891 1.451,-11.053 1.568,-11.176C1.685,-11.299 1.845,-11.36 2.048,-11.36C2.251,-11.36 2.411,-11.299 2.528,-11.176C2.645,-11.053 2.704,-10.891 2.704,-10.688L2.704,-1.12L7.872,-1.12C8.064,-1.12 8.213,-1.072 8.32,-0.976C8.427,-0.88 8.48,-0.741 8.48,-0.56C8.48,-0.379 8.427,-0.24 8.32,-0.144C8.213,-0.048 8.064,0 7.872,0L2.032,0C1.851,0 1.699,-0.056 1.576,-0.168Z" style="fill-rule:nonzero;"/><path d="M10.156,-0.176C10.033,-0.293 9.972,-0.448 9.972,-0.64L9.972,-10.64C9.972,-10.832 10.033,-10.987 10.156,-11.104C10.278,-11.221 10.441,-11.28 10.644,-11.28L13.764,-11.28C15.566,-11.28 16.961,-10.792 17.948,-9.816C18.934,-8.84 19.428,-7.451 19.428,-5.648C19.428,-3.845 18.932,-2.453 17.94,-1.472C16.948,-0.491 15.556,0 13.764,0L10.644,0C10.441,0 10.278,-0.059 10.156,-0.176ZM13.684,-1.12C16.606,-1.12 18.068,-2.629 18.068,-5.648C18.068,-8.656 16.606,-10.16 13.684,-10.16L11.284,-10.16L11.284,-1.12L13.684,-1.12Z" style="fill-rule:nonzero;"/><path d="M31.255,-0.48C31.255,-0.32 31.194,-0.187 31.071,-0.08C30.949,0.027 30.802,0.08 30.631,0.08C30.365,0.08 30.178,-0.048 30.071,-0.304L28.935,-2.896L22.903,-2.896L21.751,-0.304C21.645,-0.048 21.458,0.08 21.191,0.08C21.021,0.08 20.871,0.024 20.743,-0.088C20.615,-0.2 20.551,-0.336 20.551,-0.496C20.551,-0.581 20.573,-0.667 20.615,-0.752L25.191,-10.928C25.255,-11.077 25.351,-11.189 25.479,-11.264C25.607,-11.339 25.746,-11.376 25.895,-11.376C26.055,-11.376 26.199,-11.336 26.327,-11.256C26.455,-11.176 26.551,-11.067 26.615,-10.928L31.191,-0.752C31.234,-0.667 31.255,-0.576 31.255,-0.48ZM23.383,-3.984L28.455,-3.984L25.911,-9.728L23.383,-3.984Z" style="fill-rule:nonzero;"/><path d="M33.227,-0.104C33.11,-0.227 33.051,-0.389 33.051,-0.592L33.051,-10.64C33.051,-10.832 33.112,-10.987 33.235,-11.104C33.358,-11.221 33.52,-11.28 33.723,-11.28L37.515,-11.28C38.699,-11.28 39.619,-10.992 40.275,-10.416C40.931,-9.84 41.259,-9.024 41.259,-7.968C41.259,-6.912 40.928,-6.091 40.267,-5.504C39.606,-4.917 38.688,-4.624 37.515,-4.624L34.363,-4.624L34.363,-0.592C34.363,-0.389 34.304,-0.227 34.187,-0.104C34.07,0.019 33.91,0.08 33.707,0.08C33.504,0.08 33.344,0.019 33.227,-0.104ZM37.387,-5.712C39.104,-5.712 39.963,-6.464 39.963,-7.968C39.963,-9.451 39.104,-10.192 37.387,-10.192L34.363,-10.192L34.363,-5.712L37.387,-5.712Z" style="fill-rule:nonzero;"/><path d="M46.674,0.896C46.578,0.971 46.472,1.008 46.354,1.008C46.205,1.008 46.072,0.955 45.954,0.848C45.837,0.741 45.778,0.608 45.778,0.448C45.778,0.384 45.794,0.309 45.826,0.224L49.602,-11.584C49.645,-11.723 49.714,-11.829 49.81,-11.904C49.906,-11.979 50.013,-12.016 50.13,-12.016C50.28,-12.016 50.413,-11.963 50.53,-11.856C50.648,-11.749 50.706,-11.611 50.706,-11.44C50.706,-11.408 50.696,-11.339 50.674,-11.232L46.882,0.576C46.84,0.715 46.77,0.821 46.674,0.896Z" style="fill-rule:nonzero;"/><path d="M65.69,-0.48C65.69,-0.32 65.628,-0.187 65.506,-0.08C65.383,0.027 65.236,0.08 65.066,0.08C64.799,0.08 64.612,-0.048 64.506,-0.304L63.37,-2.896L57.338,-2.896L56.186,-0.304C56.079,-0.048 55.892,0.08 55.626,0.08C55.455,0.08 55.306,0.024 55.178,-0.088C55.05,-0.2 54.986,-0.336 54.986,-0.496C54.986,-0.581 55.007,-0.667 55.05,-0.752L59.626,-10.928C59.69,-11.077 59.786,-11.189 59.914,-11.264C60.042,-11.339 60.18,-11.376 60.33,-11.376C60.49,-11.376 60.634,-11.336 60.762,-11.256C60.89,-11.176 60.986,-11.067 61.05,-10.928L65.626,-0.752C65.668,-0.667 65.69,-0.576 65.69,-0.48ZM57.818,-3.984L62.89,-3.984L60.346,-9.728L57.818,-3.984Z" style="fill-rule:nonzero;"/><path d="M67.669,-0.176C67.547,-0.293 67.485,-0.448 67.485,-0.64L67.485,-10.64C67.485,-10.832 67.547,-10.987 67.669,-11.104C67.792,-11.221 67.955,-11.28 68.157,-11.28L71.277,-11.28C73.08,-11.28 74.475,-10.792 75.461,-9.816C76.448,-8.84 76.941,-7.451 76.941,-5.648C76.941,-3.845 76.445,-2.453 75.453,-1.472C74.461,-0.491 73.069,0 71.277,0L68.157,0C67.955,0 67.792,-0.059 67.669,-0.176ZM71.197,-1.12C74.12,-1.12 75.581,-2.629 75.581,-5.648C75.581,-8.656 74.12,-10.16 71.197,-10.16L68.797,-10.16L68.797,-1.12L71.197,-1.12Z" style="fill-rule:nonzero;"/><path d="M82.613,0.896C82.517,0.971 82.41,1.008 82.293,1.008C82.143,1.008 82.01,0.955 81.893,0.848C81.775,0.741 81.717,0.608 81.717,0.448C81.717,0.384 81.733,0.309 81.765,0.224L85.541,-11.584C85.583,-11.723 85.653,-11.829 85.749,-11.904C85.845,-11.979 85.951,-12.016 86.069,-12.016C86.218,-12.016 86.351,-11.963 86.469,-11.856C86.586,-11.749 86.645,-11.611 86.645,-11.44C86.645,-11.408 86.634,-11.339 86.613,-11.232L82.821,0.576C82.778,0.715 82.709,0.821 82.613,0.896Z" style="fill-rule:nonzero;"/><path d="M100.572,-0.448C100.572,-0.288 100.511,-0.157 100.388,-0.056C100.265,0.045 100.124,0.096 99.964,0.096C99.719,0.096 99.527,-0.011 99.388,-0.224L97.244,-3.616C96.967,-4.053 96.679,-4.355 96.38,-4.52C96.081,-4.685 95.676,-4.768 95.164,-4.768L93.148,-4.768L93.148,-0.592C93.148,-0.389 93.089,-0.227 92.972,-0.104C92.855,0.019 92.7,0.08 92.508,0.08C92.305,0.08 92.145,0.019 92.028,-0.104C91.911,-0.227 91.852,-0.389 91.852,-0.592L91.852,-10.64C91.852,-10.832 91.913,-10.987 92.036,-11.104C92.159,-11.221 92.321,-11.28 92.524,-11.28L96.492,-11.28C97.719,-11.28 98.655,-11.008 99.3,-10.464C99.945,-9.92 100.268,-9.12 100.268,-8.064C100.268,-7.168 100.009,-6.448 99.492,-5.904C98.975,-5.36 98.236,-5.029 97.276,-4.912C97.543,-4.827 97.783,-4.688 97.996,-4.496C98.209,-4.304 98.423,-4.037 98.636,-3.696L100.46,-0.816C100.535,-0.699 100.572,-0.576 100.572,-0.448ZM96.38,-5.856C97.255,-5.856 97.908,-6.037 98.34,-6.4C98.772,-6.763 98.988,-7.312 98.988,-8.048C98.988,-8.773 98.775,-9.312 98.348,-9.664C97.921,-10.016 97.265,-10.192 96.38,-10.192L93.148,-10.192L93.148,-5.856L96.38,-5.856Z" style="fill-rule:nonzero;"/><path d="M112.448,-0.48C112.448,-0.32 112.386,-0.187 112.264,-0.08C112.141,0.027 111.994,0.08 111.824,0.08C111.557,0.08 111.37,-0.048 111.264,-0.304L110.128,-2.896L104.096,-2.896L102.944,-0.304C102.837,-0.048 102.65,0.08 102.384,0.08C102.213,0.08 102.064,0.024 101.936,-0.088C101.808,-0.2 101.744,-0.336 101.744,-0.496C101.744,-0.581 101.765,-0.667 101.808,-0.752L106.384,-10.928C106.448,-11.077 106.544,-11.189 106.672,-11.264C106.8,-11.339 106.938,-11.376 107.088,-11.376C107.248,-11.376 107.392,-11.336 107.52,-11.256C107.648,-11.176 107.744,-11.067 107.808,-10.928L112.384,-0.752C112.426,-0.667 112.448,-0.576 112.448,-0.48ZM104.576,-3.984L109.648,-3.984L107.104,-9.728L104.576,-3.984Z" style="fill-rule:nonzero;"/><path d="M114.427,-0.176C114.305,-0.293 114.243,-0.448 114.243,-0.64L114.243,-10.64C114.243,-10.832 114.305,-10.987 114.427,-11.104C114.55,-11.221 114.713,-11.28 114.915,-11.28L118.035,-11.28C119.838,-11.28 121.233,-10.792 122.219,-9.816C123.206,-8.84 123.699,-7.451 123.699,-5.648C123.699,-3.845 123.203,-2.453 122.211,-1.472C121.219,-0.491 119.827,0 118.035,0L114.915,0C114.713,0 114.55,-0.059 114.427,-0.176ZM117.955,-1.12C120.878,-1.12 122.339,-2.629 122.339,-5.648C122.339,-8.656 120.878,-10.16 117.955,-10.16L115.555,-10.16L115.555,-1.12L117.955,-1.12Z" style="fill-rule:nonzero;"/><path d="M126.183,-0.104C126.066,-0.227 126.007,-0.389 126.007,-0.592L126.007,-10.688C126.007,-10.891 126.066,-11.053 126.183,-11.176C126.3,-11.299 126.46,-11.36 126.663,-11.36C126.866,-11.36 127.026,-11.299 127.143,-11.176C127.26,-11.053 127.319,-10.891 127.319,-10.688L127.319,-0.592C127.319,-0.389 127.26,-0.227 127.143,-0.104C127.026,0.019 126.866,0.08 126.663,0.08C126.46,0.08 126.3,0.019 126.183,-0.104Z" style="fill-rule:nonzero;"/><path d="M131.099,-1.024C130.341,-1.792 129.963,-2.923 129.963,-4.416L129.963,-10.688C129.963,-10.891 130.021,-11.053 130.139,-11.176C130.256,-11.299 130.416,-11.36 130.619,-11.36C130.811,-11.36 130.965,-11.299 131.083,-11.176C131.2,-11.053 131.259,-10.891 131.259,-10.688L131.259,-4.304C131.259,-3.205 131.528,-2.379 132.067,-1.824C132.605,-1.269 133.397,-0.992 134.443,-0.992C135.488,-0.992 136.277,-1.269 136.811,-1.824C137.344,-2.379 137.611,-3.205 137.611,-4.304L137.611,-10.688C137.611,-10.891 137.672,-11.053 137.795,-11.176C137.917,-11.299 138.075,-11.36 138.267,-11.36C138.469,-11.36 138.629,-11.299 138.747,-11.176C138.864,-11.053 138.923,-10.891 138.923,-10.688L138.923,-4.416C138.923,-2.933 138.541,-1.805 137.779,-1.032C137.016,-0.259 135.904,0.128 134.443,0.128C132.971,0.128 131.856,-0.256 131.099,-1.024Z" style="fill-rule:nonzero;"/><path d="M142.87,-0.232C142.14,-0.472 141.556,-0.795 141.118,-1.2C140.958,-1.349 140.878,-1.536 140.878,-1.76C140.878,-1.909 140.921,-2.04 141.006,-2.152C141.092,-2.264 141.193,-2.32 141.31,-2.32C141.449,-2.32 141.598,-2.261 141.758,-2.144C142.75,-1.376 143.881,-0.992 145.15,-0.992C146.068,-0.992 146.772,-1.168 147.262,-1.52C147.753,-1.872 147.998,-2.373 147.998,-3.024C147.998,-3.397 147.881,-3.699 147.646,-3.928C147.412,-4.157 147.102,-4.341 146.718,-4.48C146.334,-4.619 145.817,-4.763 145.166,-4.912C144.292,-5.115 143.574,-5.328 143.014,-5.552C142.454,-5.776 142.001,-6.096 141.654,-6.512C141.308,-6.928 141.134,-7.472 141.134,-8.144C141.134,-8.784 141.308,-9.352 141.654,-9.848C142.001,-10.344 142.486,-10.728 143.11,-11C143.734,-11.272 144.446,-11.408 145.246,-11.408C145.993,-11.408 146.689,-11.293 147.334,-11.064C147.98,-10.835 148.521,-10.507 148.958,-10.08C149.129,-9.909 149.214,-9.723 149.214,-9.52C149.214,-9.371 149.172,-9.24 149.086,-9.128C149.001,-9.016 148.9,-8.96 148.782,-8.96C148.665,-8.96 148.51,-9.019 148.318,-9.136C147.796,-9.563 147.31,-9.861 146.862,-10.032C146.414,-10.203 145.876,-10.288 145.246,-10.288C144.361,-10.288 143.673,-10.104 143.182,-9.736C142.692,-9.368 142.446,-8.853 142.446,-8.192C142.446,-7.627 142.662,-7.203 143.094,-6.92C143.526,-6.637 144.19,-6.389 145.086,-6.176C146.057,-5.941 146.82,-5.725 147.374,-5.528C147.929,-5.331 148.39,-5.035 148.758,-4.64C149.126,-4.245 149.31,-3.717 149.31,-3.056C149.31,-2.427 149.137,-1.872 148.79,-1.392C148.444,-0.912 147.956,-0.539 147.326,-0.272C146.697,-0.005 145.977,0.128 145.166,0.128C144.366,0.128 143.601,0.008 142.87,-0.232Z" style="fill-rule:nonzero;"/></g></g></g></svg>