<?xml version="1.0" encoding="UTF-8" standalone="no"?><!DOCTYPE svg PUBLIC "-//W3C//DTD SVG 1.1//EN" "http://www.w3.org/Graphics/SVG/1.1/DTD/svg11.dtd"><svg width="48px" height="11px" version="1.1" xmlns="http://www.w3.org/2000/svg" xmlns:xlink="http://www.w3.org/1999/xlink" xml:space="preserve" xmlns:serif="http://www.serif.com/" style="fill-rule:evenodd;clip-rule:evenodd;stroke-linejoin:round;stroke-miterlimit:1.41421;"><g transform="matrix(1,0,0,1,-277,-264)"><g transform="matrix(1,0,0,1,276.315,274)"><g id="Remote"><path d="M8.974,-0.504C8.974,-0.336 8.906,-0.194 8.771,-0.077C8.636,0.04 8.479,0.098 8.302,0.098C8.041,0.098 7.831,-0.019 7.672,-0.252L5.796,-3.164C5.581,-3.5 5.353,-3.736 5.11,-3.871C4.867,-4.006 4.55,-4.074 4.158,-4.074L2.576,-4.074L2.576,-0.658C2.576,-0.434 2.513,-0.257 2.387,-0.126C2.261,0.005 2.086,0.07 1.862,0.07C1.647,0.07 1.475,0.005 1.344,-0.126C1.213,-0.257 1.148,-0.434 1.148,-0.658L1.148,-9.17C1.148,-9.385 1.211,-9.555 1.337,-9.681C1.463,-9.807 1.638,-9.87 1.862,-9.87L5.348,-9.87C6.44,-9.87 7.273,-9.627 7.847,-9.142C8.421,-8.657 8.708,-7.947 8.708,-7.014C8.708,-6.239 8.489,-5.612 8.05,-5.131C7.611,-4.65 6.986,-4.345 6.174,-4.214C6.417,-4.149 6.636,-4.032 6.832,-3.864C7.028,-3.696 7.219,-3.463 7.406,-3.164L8.848,-0.896C8.932,-0.775 8.974,-0.644 8.974,-0.504ZM5.18,-5.236C5.908,-5.236 6.447,-5.378 6.797,-5.663C7.147,-5.948 7.322,-6.389 7.322,-6.986C7.322,-7.583 7.149,-8.02 6.804,-8.295C6.459,-8.57 5.917,-8.708 5.18,-8.708L2.562,-8.708L2.562,-5.236L5.18,-5.236Z" style="fill:white;fill-rule:nonzero;"/><path d="M16.264,-1.568C16.348,-1.465 16.39,-1.335 16.39,-1.176C16.39,-0.905 16.222,-0.677 15.886,-0.49C15.559,-0.303 15.202,-0.159 14.815,-0.056C14.427,0.047 14.056,0.098 13.702,0.098C12.619,0.098 11.765,-0.217 11.14,-0.847C10.514,-1.477 10.202,-2.338 10.202,-3.43C10.202,-4.13 10.339,-4.751 10.615,-5.292C10.89,-5.833 11.277,-6.253 11.777,-6.552C12.276,-6.851 12.843,-7 13.478,-7C14.392,-7 15.116,-6.706 15.648,-6.118C16.18,-5.53 16.446,-4.737 16.446,-3.738C16.446,-3.365 16.278,-3.178 15.942,-3.178L11.616,-3.178C11.709,-1.731 12.404,-1.008 13.702,-1.008C14.047,-1.008 14.346,-1.055 14.598,-1.148C14.85,-1.241 15.116,-1.363 15.396,-1.512C15.424,-1.531 15.501,-1.57 15.627,-1.631C15.753,-1.692 15.858,-1.722 15.942,-1.722C16.072,-1.722 16.18,-1.671 16.264,-1.568ZM12.204,-5.446C11.877,-5.101 11.681,-4.615 11.616,-3.99L15.228,-3.99C15.2,-4.625 15.039,-5.112 14.745,-5.453C14.451,-5.794 14.038,-5.964 13.506,-5.964C12.964,-5.964 12.53,-5.791 12.204,-5.446Z" style="fill:white;fill-rule:nonzero;"/><path d="M28.09,-4.242L28.09,-0.602C28.09,-0.387 28.024,-0.222 27.894,-0.105C27.763,0.012 27.59,0.07 27.376,0.07C27.17,0.07 27.002,0.012 26.872,-0.105C26.741,-0.222 26.676,-0.387 26.676,-0.602L26.676,-4.228C26.676,-4.797 26.573,-5.21 26.368,-5.467C26.162,-5.724 25.84,-5.852 25.402,-5.852C24.888,-5.852 24.482,-5.677 24.184,-5.327C23.885,-4.977 23.736,-4.499 23.736,-3.892L23.736,-0.602C23.736,-0.387 23.67,-0.222 23.54,-0.105C23.409,0.012 23.236,0.07 23.022,0.07C22.816,0.07 22.648,0.012 22.518,-0.105C22.387,-0.222 22.322,-0.387 22.322,-0.602L22.322,-4.228C22.322,-4.797 22.219,-5.21 22.014,-5.467C21.808,-5.724 21.486,-5.852 21.048,-5.852C20.534,-5.852 20.126,-5.677 19.823,-5.327C19.519,-4.977 19.368,-4.499 19.368,-3.892L19.368,-0.602C19.368,-0.387 19.302,-0.222 19.172,-0.105C19.041,0.012 18.873,0.07 18.668,0.07C18.462,0.07 18.292,0.012 18.157,-0.105C18.021,-0.222 17.954,-0.387 17.954,-0.602L17.954,-6.3C17.954,-6.505 18.024,-6.669 18.164,-6.79C18.304,-6.911 18.472,-6.972 18.668,-6.972C18.864,-6.972 19.025,-6.914 19.151,-6.797C19.277,-6.68 19.34,-6.519 19.34,-6.314L19.34,-5.796C19.545,-6.188 19.83,-6.487 20.194,-6.692C20.558,-6.897 20.978,-7 21.454,-7C21.976,-7 22.408,-6.893 22.749,-6.678C23.089,-6.463 23.344,-6.132 23.512,-5.684C23.717,-6.085 24.02,-6.405 24.422,-6.643C24.823,-6.881 25.28,-7 25.794,-7C27.324,-7 28.09,-6.081 28.09,-4.242Z" style="fill:white;fill-rule:nonzero;"/><path d="M31.172,-0.336C30.664,-0.625 30.272,-1.038 29.996,-1.575C29.721,-2.112 29.583,-2.735 29.583,-3.444C29.583,-4.163 29.721,-4.79 29.996,-5.327C30.272,-5.864 30.664,-6.277 31.172,-6.566C31.681,-6.855 32.271,-7 32.943,-7C33.615,-7 34.206,-6.855 34.714,-6.566C35.223,-6.277 35.615,-5.864 35.89,-5.327C36.166,-4.79 36.303,-4.163 36.303,-3.444C36.303,-2.735 36.166,-2.112 35.89,-1.575C35.615,-1.038 35.223,-0.625 34.714,-0.336C34.206,-0.047 33.615,0.098 32.943,0.098C32.271,0.098 31.681,-0.047 31.172,-0.336ZM34.378,-1.638C34.71,-2.049 34.875,-2.651 34.875,-3.444C34.875,-4.228 34.707,-4.828 34.371,-5.243C34.035,-5.658 33.559,-5.866 32.943,-5.866C32.327,-5.866 31.851,-5.658 31.515,-5.243C31.179,-4.828 31.011,-4.228 31.011,-3.444C31.011,-2.651 31.177,-2.049 31.508,-1.638C31.84,-1.227 32.318,-1.022 32.943,-1.022C33.569,-1.022 34.047,-1.227 34.378,-1.638Z" style="fill:white;fill-rule:nonzero;"/><path d="M41.584,-0.847C41.673,-0.758 41.717,-0.635 41.717,-0.476C41.717,-0.289 41.645,-0.147 41.5,-0.049C41.356,0.049 41.143,0.089 40.863,0.07L40.485,0.042C39.729,-0.014 39.165,-0.245 38.791,-0.651C38.418,-1.057 38.231,-1.657 38.231,-2.45L38.231,-5.74L37.391,-5.74C36.981,-5.74 36.775,-5.922 36.775,-6.286C36.775,-6.454 36.829,-6.587 36.936,-6.685C37.044,-6.783 37.195,-6.832 37.391,-6.832L38.231,-6.832L38.231,-8.274C38.231,-8.489 38.294,-8.657 38.42,-8.778C38.546,-8.899 38.717,-8.96 38.931,-8.96C39.146,-8.96 39.319,-8.899 39.449,-8.778C39.58,-8.657 39.645,-8.489 39.645,-8.274L39.645,-6.832L41.031,-6.832C41.227,-6.832 41.379,-6.783 41.486,-6.685C41.594,-6.587 41.647,-6.454 41.647,-6.286C41.647,-6.109 41.594,-5.973 41.486,-5.88C41.379,-5.787 41.227,-5.74 41.031,-5.74L39.645,-5.74L39.645,-2.352C39.645,-1.913 39.736,-1.591 39.918,-1.386C40.1,-1.181 40.378,-1.064 40.751,-1.036L41.143,-1.008C41.349,-0.989 41.496,-0.936 41.584,-0.847Z" style="fill:white;fill-rule:nonzero;"/><path d="M48.363,-1.568C48.447,-1.465 48.489,-1.335 48.489,-1.176C48.489,-0.905 48.321,-0.677 47.985,-0.49C47.658,-0.303 47.301,-0.159 46.914,-0.056C46.527,0.047 46.156,0.098 45.801,0.098C44.718,0.098 43.864,-0.217 43.239,-0.847C42.614,-1.477 42.301,-2.338 42.301,-3.43C42.301,-4.13 42.439,-4.751 42.714,-5.292C42.989,-5.833 43.377,-6.253 43.876,-6.552C44.375,-6.851 44.942,-7 45.577,-7C46.492,-7 47.215,-6.706 47.747,-6.118C48.279,-5.53 48.545,-4.737 48.545,-3.738C48.545,-3.365 48.377,-3.178 48.041,-3.178L43.715,-3.178C43.808,-1.731 44.504,-1.008 45.801,-1.008C46.146,-1.008 46.445,-1.055 46.697,-1.148C46.949,-1.241 47.215,-1.363 47.495,-1.512C47.523,-1.531 47.6,-1.57 47.726,-1.631C47.852,-1.692 47.957,-1.722 48.041,-1.722C48.172,-1.722 48.279,-1.671 48.363,-1.568ZM44.303,-5.446C43.976,-5.101 43.78,-4.615 43.715,-3.99L47.327,-3.99C47.299,-4.625 47.138,-5.112 46.844,-5.453C46.55,-5.794 46.137,-5.964 45.605,-5.964C45.064,-5.964 44.63,-5.791 44.303,-5.446Z" style="fill:white;fill-rule:nonzero;"/></g></g></g></svg>