<?xml version="1.0" encoding="UTF-8"?>
<svg width="148px" height="24px" viewBox="0 0 148 24" version="1.1" xmlns="http://www.w3.org/2000/svg" xmlns:xlink="http://www.w3.org/1999/xlink">
    <!-- Generator: Sketch 50.2 (55047) - http://www.bohemiancoding.com/sketch -->
    <title>Corporate Network</title>
    <desc>Created with Sketch.</desc>
    <defs>
        <path d="M-3201,-8377 L9622,-8377 L9622,5614 L-3201,5614 L-3201,-8377 Z" id="path-1"></path>
        <mask id="mask-2" maskContentUnits="userSpaceOnUse" maskUnits="objectBoundingBox" x="0" y="0" width="12823" height="13991" fill="white">
            <use xlink:href="#path-1"></use>
        </mask>
    </defs>
    <g id="Page-1" stroke="none" stroke-width="1" fill="none" fill-rule="evenodd">
        <use id="Rectangle-5" stroke="#979797" mask="url(#mask-2)" stroke-width="12" stroke-dasharray="15,15" xlink:href="#path-1"></use>
        <g id="Group-21" transform="translate(-750.000000, -292.000000)">
            <g id="Group-3-Copy" transform="translate(311.000000, 262.000000)" fill="#47AFE8" fill-rule="nonzero">
                <path d="M393.11424,33 C411.875302,33 427.353178,45.3317308 431.574417,62.2307692 C434.388576,60.4038462 438.140788,59.4903846 441.423974,59.4903846 C452.211585,59.4903846 461.123089,68.1682692 461.123089,78.6730769 C461.123089,80.5 460.654063,82.3269231 460.185036,84.1538462 C460.654063,84.1538462 460.654063,84.1538462 461.123089,84.1538462 C473.31778,84.1538462 483.636364,93.7451923 483.636364,106.076923 C483.636364,117.951923 473.786806,128 461.123089,128 L355.592116,128 C338.238134,128 324.636364,114.298077 324.636364,97.8557692 C324.636364,81.8701923 337.30008,68.625 353.246983,67.7115385 C356.061142,48.0721154 372.946098,33 393.11424,33 M289.092603,128.520446 L210.268488,128.520446 C184.361752,128.520446 163.636364,108.281006 163.636364,82.9817054 C163.636364,62.742265 177.626001,45.0327547 197.31512,39.4669086 C204.050871,16.6975383 225.812529,0 251.20113,0 C272.173819,0 291.126478,11.3428315 300.58057,28.6728235 C308.732356,20.6989445 319.633824,15.8252788 331.547896,15.8252788 C352.775543,15.8252788 370.288352,30.4539784 375.064572,50.5007149 C378.248719,48.3335001 382.494248,47.2498928 386.209087,47.2498928 C398.414984,47.2498928 408.498116,57.5441629 408.498116,70.0056477 C408.498116,72.1728625 407.967425,74.3400772 407.436733,76.507292 C407.967425,76.507292 407.967425,76.507292 408.498116,76.507292 C422.296086,76.507292 433.971292,87.8851694 433.971292,102.513869 C433.971292,116.600765 422.826777,128.520446 408.498116,128.520446 L289.092603,128.520446 Z" id="Cloud"></path>
            </g>
            <text id="Corporate-Network-Copy-2" font-family="Nunito-SemiBold, Nunito" font-size="16" font-weight="500" fill="#FFFFFF">
                <tspan x="753" y="309">Corporate Network</tspan>
            </text>
        </g>
    </g>
</svg>