<?xml version="1.0" encoding="UTF-8" standalone="no"?>
<!DOCTYPE svg PUBLIC "-//W3C//DTD SVG 1.1//EN" "http://www.w3.org/Graphics/SVG/1.1/DTD/svg11.dtd">
<svg width="100%" height="100%" viewBox="0 0 66 145" version="1.1" xmlns="http://www.w3.org/2000/svg" xmlns:xlink="http://www.w3.org/1999/xlink" xml:space="preserve" xmlns:serif="http://www.serif.com/" style="fill-rule:evenodd;clip-rule:evenodd;stroke-linejoin:round;stroke-miterlimit:1.41421;">
    <g transform="matrix(1,0,0,1,-214,-997)">
        <g transform="matrix(1,0,0,1,-6,-4)">
            <g id="Group-15" transform="matrix(1,0,0,1,220,1001)">
                <g transform="matrix(1,0,0,1,0,142)">
                    <g id="Cell-phone">
                        <path d="M2.982,-0.497C2.301,-0.903 1.776,-1.486 1.407,-2.247C1.038,-3.008 0.854,-3.906 0.854,-4.942C0.854,-5.969 1.038,-6.862 1.407,-7.623C1.776,-8.384 2.301,-8.967 2.982,-9.373C3.663,-9.779 4.471,-9.982 5.404,-9.982C6.029,-9.982 6.62,-9.882 7.175,-9.681C7.73,-9.48 8.213,-9.193 8.624,-8.82C8.773,-8.68 8.848,-8.517 8.848,-8.33C8.848,-8.199 8.811,-8.085 8.736,-7.987C8.661,-7.889 8.573,-7.84 8.47,-7.84C8.358,-7.84 8.223,-7.891 8.064,-7.994C7.588,-8.367 7.156,-8.629 6.769,-8.778C6.382,-8.927 5.936,-9.002 5.432,-9.002C4.349,-9.002 3.516,-8.65 2.933,-7.945C2.35,-7.24 2.058,-6.239 2.058,-4.942C2.058,-3.635 2.35,-2.63 2.933,-1.925C3.516,-1.22 4.349,-0.868 5.432,-0.868C5.927,-0.868 6.37,-0.943 6.762,-1.092C7.154,-1.241 7.588,-1.503 8.064,-1.876C8.223,-1.979 8.358,-2.03 8.47,-2.03C8.573,-2.03 8.661,-1.983 8.736,-1.89C8.811,-1.797 8.848,-1.68 8.848,-1.54C8.848,-1.353 8.773,-1.19 8.624,-1.05C8.213,-0.677 7.73,-0.39 7.175,-0.189C6.62,0.012 6.029,0.112 5.404,0.112C4.471,0.112 3.663,-0.091 2.982,-0.497Z" style="fill-rule:nonzero;"/>
                        <path d="M15.932,-1.456C16.007,-1.372 16.044,-1.265 16.044,-1.134C16.044,-0.901 15.881,-0.686 15.554,-0.49C15.218,-0.294 14.863,-0.147 14.49,-0.049C14.117,0.049 13.753,0.098 13.398,0.098C12.343,0.098 11.51,-0.215 10.899,-0.84C10.288,-1.465 9.982,-2.329 9.982,-3.43C9.982,-4.13 10.117,-4.748 10.388,-5.285C10.659,-5.822 11.039,-6.239 11.529,-6.538C12.019,-6.837 12.577,-6.986 13.202,-6.986C14.089,-6.986 14.793,-6.697 15.316,-6.118C15.839,-5.539 16.1,-4.755 16.1,-3.766C16.1,-3.579 16.063,-3.444 15.988,-3.36C15.913,-3.276 15.792,-3.234 15.624,-3.234L11.116,-3.234C11.2,-1.629 11.961,-0.826 13.398,-0.826C13.762,-0.826 14.075,-0.875 14.336,-0.973C14.597,-1.071 14.877,-1.204 15.176,-1.372C15.419,-1.512 15.582,-1.582 15.666,-1.582C15.769,-1.582 15.857,-1.54 15.932,-1.456ZM11.781,-5.544C11.422,-5.171 11.209,-4.643 11.144,-3.962L15.106,-3.962C15.087,-4.653 14.915,-5.182 14.588,-5.551C14.261,-5.92 13.804,-6.104 13.216,-6.104C12.619,-6.104 12.14,-5.917 11.781,-5.544Z" style="fill-rule:nonzero;"/>
                        <path d="M17.927,-0.077C17.82,-0.175 17.766,-0.313 17.766,-0.49L17.766,-9.38C17.766,-9.557 17.82,-9.695 17.927,-9.793C18.034,-9.891 18.172,-9.94 18.34,-9.94C18.499,-9.94 18.632,-9.891 18.739,-9.793C18.846,-9.695 18.9,-9.557 18.9,-9.38L18.9,-0.49C18.9,-0.313 18.846,-0.175 18.739,-0.077C18.632,0.021 18.499,0.07 18.34,0.07C18.172,0.07 18.034,0.021 17.927,-0.077Z" style="fill-rule:nonzero;"/>
                        <path d="M21.175,-0.077C21.068,-0.175 21.014,-0.313 21.014,-0.49L21.014,-9.38C21.014,-9.557 21.068,-9.695 21.175,-9.793C21.282,-9.891 21.42,-9.94 21.588,-9.94C21.747,-9.94 21.88,-9.891 21.987,-9.793C22.094,-9.695 22.148,-9.557 22.148,-9.38L22.148,-0.49C22.148,-0.313 22.094,-0.175 21.987,-0.077C21.88,0.021 21.747,0.07 21.588,0.07C21.42,0.07 21.282,0.021 21.175,-0.077Z" style="fill-rule:nonzero;"/>
                        <path d="M32.886,-6.538C33.343,-6.239 33.698,-5.822 33.95,-5.285C34.202,-4.748 34.328,-4.125 34.328,-3.416C34.328,-2.707 34.202,-2.088 33.95,-1.561C33.698,-1.034 33.346,-0.625 32.893,-0.336C32.44,-0.047 31.911,0.098 31.304,0.098C30.772,0.098 30.308,-0.019 29.911,-0.252C29.514,-0.485 29.213,-0.817 29.008,-1.246L29.008,2.044C29.008,2.212 28.959,2.345 28.861,2.443C28.763,2.541 28.625,2.59 28.448,2.59C28.271,2.59 28.131,2.539 28.028,2.436C27.925,2.333 27.874,2.203 27.874,2.044L27.874,-6.398C27.874,-6.566 27.925,-6.701 28.028,-6.804C28.131,-6.907 28.271,-6.958 28.448,-6.958C28.625,-6.958 28.763,-6.907 28.861,-6.804C28.959,-6.701 29.008,-6.566 29.008,-6.398L29.008,-5.642C29.213,-6.071 29.514,-6.403 29.911,-6.636C30.308,-6.869 30.772,-6.986 31.304,-6.986C31.901,-6.986 32.429,-6.837 32.886,-6.538ZM32.62,-1.512C32.984,-1.96 33.166,-2.595 33.166,-3.416C33.166,-4.237 32.984,-4.879 32.62,-5.341C32.256,-5.803 31.743,-6.034 31.08,-6.034C30.417,-6.034 29.906,-5.81 29.547,-5.362C29.188,-4.914 29.008,-4.275 29.008,-3.444C29.008,-2.613 29.188,-1.972 29.547,-1.519C29.906,-1.066 30.417,-0.84 31.08,-0.84C31.743,-0.84 32.256,-1.064 32.62,-1.512Z" style="fill-rule:nonzero;"/>
                        <path d="M41.286,-6.307C41.697,-5.854 41.902,-5.18 41.902,-4.284L41.902,-0.49C41.902,-0.313 41.851,-0.175 41.748,-0.077C41.645,0.021 41.51,0.07 41.342,0.07C41.165,0.07 41.025,0.021 40.922,-0.077C40.819,-0.175 40.768,-0.313 40.768,-0.49L40.768,-4.256C40.768,-4.863 40.644,-5.311 40.397,-5.6C40.15,-5.889 39.755,-6.034 39.214,-6.034C38.589,-6.034 38.089,-5.843 37.716,-5.46C37.343,-5.077 37.156,-4.559 37.156,-3.906L37.156,-0.49C37.156,-0.313 37.107,-0.175 37.009,-0.077C36.911,0.021 36.773,0.07 36.596,0.07C36.419,0.07 36.279,0.021 36.176,-0.077C36.073,-0.175 36.022,-0.313 36.022,-0.49L36.022,-9.394C36.022,-9.553 36.076,-9.683 36.183,-9.786C36.29,-9.889 36.428,-9.94 36.596,-9.94C36.773,-9.94 36.911,-9.891 37.009,-9.793C37.107,-9.695 37.156,-9.562 37.156,-9.394L37.156,-5.726C37.38,-6.137 37.693,-6.449 38.094,-6.664C38.495,-6.879 38.953,-6.986 39.466,-6.986C40.269,-6.986 40.875,-6.76 41.286,-6.307Z" style="fill-rule:nonzero;"/>
                        <path d="M45.101,-0.336C44.611,-0.625 44.233,-1.038 43.967,-1.575C43.701,-2.112 43.568,-2.735 43.568,-3.444C43.568,-4.153 43.701,-4.776 43.967,-5.313C44.233,-5.85 44.611,-6.263 45.101,-6.552C45.591,-6.841 46.158,-6.986 46.802,-6.986C47.446,-6.986 48.015,-6.841 48.51,-6.552C49.005,-6.263 49.385,-5.85 49.651,-5.313C49.917,-4.776 50.05,-4.153 50.05,-3.444C50.05,-2.735 49.917,-2.112 49.651,-1.575C49.385,-1.038 49.005,-0.625 48.51,-0.336C48.015,-0.047 47.446,0.098 46.802,0.098C46.158,0.098 45.591,-0.047 45.101,-0.336ZM48.349,-1.505C48.708,-1.948 48.888,-2.595 48.888,-3.444C48.888,-4.275 48.706,-4.916 48.342,-5.369C47.978,-5.822 47.465,-6.048 46.802,-6.048C46.139,-6.048 45.626,-5.822 45.262,-5.369C44.898,-4.916 44.716,-4.275 44.716,-3.444C44.716,-2.604 44.896,-1.96 45.255,-1.512C45.614,-1.064 46.13,-0.84 46.802,-0.84C47.474,-0.84 47.99,-1.062 48.349,-1.505Z" style="fill-rule:nonzero;"/>
                        <path d="M57.624,-4.284L57.624,-0.49C57.624,-0.313 57.575,-0.175 57.477,-0.077C57.379,0.021 57.241,0.07 57.064,0.07C56.887,0.07 56.747,0.021 56.644,-0.077C56.541,-0.175 56.49,-0.313 56.49,-0.49L56.49,-4.214C56.49,-4.849 56.366,-5.311 56.119,-5.6C55.872,-5.889 55.477,-6.034 54.936,-6.034C54.311,-6.034 53.811,-5.843 53.438,-5.46C53.065,-5.077 52.878,-4.559 52.878,-3.906L52.878,-0.49C52.878,-0.313 52.829,-0.175 52.731,-0.077C52.633,0.021 52.495,0.07 52.318,0.07C52.141,0.07 52.001,0.021 51.898,-0.077C51.795,-0.175 51.744,-0.313 51.744,-0.49L51.744,-6.398C51.744,-6.566 51.795,-6.701 51.898,-6.804C52.001,-6.907 52.141,-6.958 52.318,-6.958C52.486,-6.958 52.619,-6.907 52.717,-6.804C52.815,-6.701 52.864,-6.571 52.864,-6.412L52.864,-5.698C53.088,-6.118 53.401,-6.438 53.802,-6.657C54.203,-6.876 54.661,-6.986 55.174,-6.986C56.807,-6.986 57.624,-6.085 57.624,-4.284Z" style="fill-rule:nonzero;"/>
                        <path d="M65.24,-1.456C65.315,-1.372 65.352,-1.265 65.352,-1.134C65.352,-0.901 65.189,-0.686 64.862,-0.49C64.526,-0.294 64.171,-0.147 63.798,-0.049C63.425,0.049 63.061,0.098 62.706,0.098C61.651,0.098 60.818,-0.215 60.207,-0.84C59.596,-1.465 59.29,-2.329 59.29,-3.43C59.29,-4.13 59.425,-4.748 59.696,-5.285C59.967,-5.822 60.347,-6.239 60.837,-6.538C61.327,-6.837 61.885,-6.986 62.51,-6.986C63.397,-6.986 64.101,-6.697 64.624,-6.118C65.147,-5.539 65.408,-4.755 65.408,-3.766C65.408,-3.579 65.371,-3.444 65.296,-3.36C65.221,-3.276 65.1,-3.234 64.932,-3.234L60.424,-3.234C60.508,-1.629 61.269,-0.826 62.706,-0.826C63.07,-0.826 63.383,-0.875 63.644,-0.973C63.905,-1.071 64.185,-1.204 64.484,-1.372C64.727,-1.512 64.89,-1.582 64.974,-1.582C65.077,-1.582 65.165,-1.54 65.24,-1.456ZM61.089,-5.544C60.73,-5.171 60.517,-4.643 60.452,-3.962L64.414,-3.962C64.395,-4.653 64.223,-5.182 63.896,-5.551C63.569,-5.92 63.112,-6.104 62.524,-6.104C61.927,-6.104 61.448,-5.917 61.089,-5.544Z" style="fill-rule:nonzero;"/>
                    </g>
                </g>
                <g id="Group-13" transform="matrix(1,0,0,1,3,0)">
                    <path id="Fill-50" d="M41.691,6.948C48.734,6.948 52.267,10.427 52.267,17.375L52.267,72.987C52.267,79.946 48.734,83.414 41.691,83.414L17.4,83.414C10.35,83.414 6.997,79.946 6.997,72.987L6.997,17.375C6.997,10.427 10.35,6.948 17.4,6.948L41.691,6.948ZM0,76.467C0,84.14 6.755,90.372 14.098,90.372L45.218,90.372C52.998,90.372 59.316,84.145 59.316,76.467L59.316,13.895C59.316,6.222 52.998,0 45.218,0L14.098,0C6.318,0 0,6.222 0,13.895L0,76.467Z" style="fill:rgb(99,101,105);"/>
                    <g id="Oval-Copy" transform="matrix(-3.82857e-16,1,-1,-3.82857e-16,105.831,46.7545)">
                        <ellipse cx="29.538" cy="76.293" rx="4.615" ry="4.596" style="fill:rgb(99,101,105);"/>
                    </g>
                </g>
            </g>
        </g>
    </g>
</svg>
