<?xml version="1.0" encoding="UTF-8" standalone="no"?>
<!DOCTYPE svg PUBLIC "-//W3C//DTD SVG 1.1//EN" "http://www.w3.org/Graphics/SVG/1.1/DTD/svg11.dtd">
<svg width="100%" height="100%" viewBox="0 0 147 174" version="1.1" xmlns="http://www.w3.org/2000/svg" xmlns:xlink="http://www.w3.org/1999/xlink" xml:space="preserve" xmlns:serif="http://www.serif.com/" style="fill-rule:evenodd;clip-rule:evenodd;stroke-linejoin:round;stroke-miterlimit:1.41421;">
    <g transform="matrix(1,0,0,1,-548,-965)">
        <g transform="matrix(1,0,0,1,-6,-4)">
            <g id="Group-17" transform="matrix(1,0,0,1,554,969)">
                <g transform="matrix(1,0,0,1,48,171)">
                    <g id="Desktop">
                        <path d="M1.379,-0.154C1.272,-0.257 1.218,-0.392 1.218,-0.56L1.218,-9.31C1.218,-9.478 1.272,-9.613 1.379,-9.716C1.486,-9.819 1.629,-9.87 1.806,-9.87L4.536,-9.87C6.113,-9.87 7.334,-9.443 8.197,-8.589C9.06,-7.735 9.492,-6.519 9.492,-4.942C9.492,-3.365 9.058,-2.147 8.19,-1.288C7.322,-0.429 6.104,0 4.536,0L1.806,0C1.629,0 1.486,-0.051 1.379,-0.154ZM4.466,-0.98C7.023,-0.98 8.302,-2.301 8.302,-4.942C8.302,-7.574 7.023,-8.89 4.466,-8.89L2.366,-8.89L2.366,-0.98L4.466,-0.98Z" style="fill-rule:nonzero;"/>
                        <path d="M16.94,-1.456C17.015,-1.372 17.052,-1.265 17.052,-1.134C17.052,-0.901 16.889,-0.686 16.562,-0.49C16.226,-0.294 15.871,-0.147 15.498,-0.049C15.125,0.049 14.761,0.098 14.406,0.098C13.351,0.098 12.518,-0.215 11.907,-0.84C11.296,-1.465 10.99,-2.329 10.99,-3.43C10.99,-4.13 11.125,-4.748 11.396,-5.285C11.667,-5.822 12.047,-6.239 12.537,-6.538C13.027,-6.837 13.585,-6.986 14.21,-6.986C15.097,-6.986 15.801,-6.697 16.324,-6.118C16.847,-5.539 17.108,-4.755 17.108,-3.766C17.108,-3.579 17.071,-3.444 16.996,-3.36C16.921,-3.276 16.8,-3.234 16.632,-3.234L12.124,-3.234C12.208,-1.629 12.969,-0.826 14.406,-0.826C14.77,-0.826 15.083,-0.875 15.344,-0.973C15.605,-1.071 15.885,-1.204 16.184,-1.372C16.427,-1.512 16.59,-1.582 16.674,-1.582C16.777,-1.582 16.865,-1.54 16.94,-1.456ZM12.789,-5.544C12.43,-5.171 12.217,-4.643 12.152,-3.962L16.114,-3.962C16.095,-4.653 15.923,-5.182 15.596,-5.551C15.269,-5.92 14.812,-6.104 14.224,-6.104C13.627,-6.104 13.148,-5.917 12.789,-5.544Z" style="fill-rule:nonzero;"/>
                        <path d="M19.845,-0.056C19.458,-0.159 19.115,-0.303 18.816,-0.49C18.648,-0.602 18.529,-0.707 18.459,-0.805C18.389,-0.903 18.354,-1.022 18.354,-1.162C18.354,-1.283 18.389,-1.384 18.459,-1.463C18.529,-1.542 18.62,-1.582 18.732,-1.582C18.844,-1.582 19.007,-1.512 19.222,-1.372C19.502,-1.204 19.78,-1.071 20.055,-0.973C20.33,-0.875 20.673,-0.826 21.084,-0.826C21.588,-0.826 21.98,-0.915 22.26,-1.092C22.54,-1.269 22.68,-1.526 22.68,-1.862C22.68,-2.067 22.629,-2.233 22.526,-2.359C22.423,-2.485 22.246,-2.597 21.994,-2.695C21.742,-2.793 21.373,-2.893 20.888,-2.996C20.067,-3.173 19.479,-3.411 19.124,-3.71C18.769,-4.009 18.592,-4.415 18.592,-4.928C18.592,-5.329 18.704,-5.684 18.928,-5.992C19.152,-6.3 19.462,-6.543 19.859,-6.72C20.256,-6.897 20.706,-6.986 21.21,-6.986C21.574,-6.986 21.926,-6.937 22.267,-6.839C22.608,-6.741 22.909,-6.603 23.17,-6.426C23.487,-6.202 23.646,-5.969 23.646,-5.726C23.646,-5.605 23.609,-5.502 23.534,-5.418C23.459,-5.334 23.371,-5.292 23.268,-5.292C23.156,-5.292 22.988,-5.371 22.764,-5.53C22.503,-5.698 22.255,-5.829 22.022,-5.922C21.789,-6.015 21.499,-6.062 21.154,-6.062C20.715,-6.062 20.363,-5.964 20.097,-5.768C19.831,-5.572 19.698,-5.311 19.698,-4.984C19.698,-4.779 19.747,-4.613 19.845,-4.487C19.943,-4.361 20.106,-4.249 20.335,-4.151C20.564,-4.053 20.893,-3.957 21.322,-3.864C21.957,-3.724 22.449,-3.57 22.799,-3.402C23.149,-3.234 23.399,-3.029 23.548,-2.786C23.697,-2.543 23.772,-2.235 23.772,-1.862C23.772,-1.274 23.525,-0.8 23.03,-0.441C22.535,-0.082 21.882,0.098 21.07,0.098C20.641,0.098 20.232,0.047 19.845,-0.056Z" style="fill-rule:nonzero;"/>
                        <path d="M31.164,-0.448C31.164,-0.308 31.115,-0.187 31.017,-0.084C30.919,0.019 30.8,0.07 30.66,0.07C30.539,0.07 30.413,0.014 30.282,-0.098L26.628,-3.248L26.628,-0.49C26.628,-0.313 26.574,-0.175 26.467,-0.077C26.36,0.021 26.227,0.07 26.068,0.07C25.9,0.07 25.762,0.021 25.655,-0.077C25.548,-0.175 25.494,-0.313 25.494,-0.49L25.494,-9.38C25.494,-9.557 25.548,-9.695 25.655,-9.793C25.762,-9.891 25.9,-9.94 26.068,-9.94C26.227,-9.94 26.36,-9.891 26.467,-9.793C26.574,-9.695 26.628,-9.557 26.628,-9.38L26.628,-3.696L29.974,-6.762C30.086,-6.874 30.212,-6.93 30.352,-6.93C30.492,-6.93 30.613,-6.879 30.716,-6.776C30.819,-6.673 30.87,-6.552 30.87,-6.412C30.87,-6.253 30.805,-6.113 30.674,-5.992L27.916,-3.528L30.94,-0.896C31.089,-0.756 31.164,-0.607 31.164,-0.448Z" style="fill-rule:nonzero;"/>
                        <path d="M36.078,-0.378C36.078,-0.219 36.02,-0.1 35.903,-0.021C35.786,0.058 35.611,0.089 35.378,0.07L35,0.042C34.253,-0.014 33.703,-0.238 33.348,-0.63C32.993,-1.022 32.816,-1.615 32.816,-2.408L32.816,-5.922L31.878,-5.922C31.719,-5.922 31.596,-5.962 31.507,-6.041C31.418,-6.12 31.374,-6.225 31.374,-6.356C31.374,-6.496 31.418,-6.608 31.507,-6.692C31.596,-6.776 31.719,-6.818 31.878,-6.818L32.816,-6.818L32.816,-8.4C32.816,-8.577 32.867,-8.715 32.97,-8.813C33.073,-8.911 33.213,-8.96 33.39,-8.96C33.558,-8.96 33.693,-8.911 33.796,-8.813C33.899,-8.715 33.95,-8.577 33.95,-8.4L33.95,-6.818L35.504,-6.818C35.653,-6.818 35.772,-6.776 35.861,-6.692C35.95,-6.608 35.994,-6.496 35.994,-6.356C35.994,-6.225 35.95,-6.12 35.861,-6.041C35.772,-5.962 35.653,-5.922 35.504,-5.922L33.95,-5.922L33.95,-2.352C33.95,-1.839 34.055,-1.468 34.265,-1.239C34.475,-1.01 34.79,-0.882 35.21,-0.854L35.588,-0.826C35.915,-0.798 36.078,-0.649 36.078,-0.378Z" style="fill-rule:nonzero;"/>
                        <path d="M38.325,-0.336C37.835,-0.625 37.457,-1.038 37.191,-1.575C36.925,-2.112 36.792,-2.735 36.792,-3.444C36.792,-4.153 36.925,-4.776 37.191,-5.313C37.457,-5.85 37.835,-6.263 38.325,-6.552C38.815,-6.841 39.382,-6.986 40.026,-6.986C40.67,-6.986 41.239,-6.841 41.734,-6.552C42.229,-6.263 42.609,-5.85 42.875,-5.313C43.141,-4.776 43.274,-4.153 43.274,-3.444C43.274,-2.735 43.141,-2.112 42.875,-1.575C42.609,-1.038 42.229,-0.625 41.734,-0.336C41.239,-0.047 40.67,0.098 40.026,0.098C39.382,0.098 38.815,-0.047 38.325,-0.336ZM41.573,-1.505C41.932,-1.948 42.112,-2.595 42.112,-3.444C42.112,-4.275 41.93,-4.916 41.566,-5.369C41.202,-5.822 40.689,-6.048 40.026,-6.048C39.363,-6.048 38.85,-5.822 38.486,-5.369C38.122,-4.916 37.94,-4.275 37.94,-3.444C37.94,-2.604 38.12,-1.96 38.479,-1.512C38.838,-1.064 39.354,-0.84 40.026,-0.84C40.698,-0.84 41.214,-1.062 41.573,-1.505Z" style="fill-rule:nonzero;"/>
                        <path d="M49.98,-6.538C50.437,-6.239 50.792,-5.822 51.044,-5.285C51.296,-4.748 51.422,-4.125 51.422,-3.416C51.422,-2.707 51.296,-2.088 51.044,-1.561C50.792,-1.034 50.44,-0.625 49.987,-0.336C49.534,-0.047 49.005,0.098 48.398,0.098C47.866,0.098 47.402,-0.019 47.005,-0.252C46.608,-0.485 46.307,-0.817 46.102,-1.246L46.102,2.044C46.102,2.212 46.053,2.345 45.955,2.443C45.857,2.541 45.719,2.59 45.542,2.59C45.365,2.59 45.225,2.539 45.122,2.436C45.019,2.333 44.968,2.203 44.968,2.044L44.968,-6.398C44.968,-6.566 45.019,-6.701 45.122,-6.804C45.225,-6.907 45.365,-6.958 45.542,-6.958C45.719,-6.958 45.857,-6.907 45.955,-6.804C46.053,-6.701 46.102,-6.566 46.102,-6.398L46.102,-5.642C46.307,-6.071 46.608,-6.403 47.005,-6.636C47.402,-6.869 47.866,-6.986 48.398,-6.986C48.995,-6.986 49.523,-6.837 49.98,-6.538ZM49.714,-1.512C50.078,-1.96 50.26,-2.595 50.26,-3.416C50.26,-4.237 50.078,-4.879 49.714,-5.341C49.35,-5.803 48.837,-6.034 48.174,-6.034C47.511,-6.034 47,-5.81 46.641,-5.362C46.282,-4.914 46.102,-4.275 46.102,-3.444C46.102,-2.613 46.282,-1.972 46.641,-1.519C47,-1.066 47.511,-0.84 48.174,-0.84C48.837,-0.84 49.35,-1.064 49.714,-1.512Z" style="fill-rule:nonzero;"/>
                    </g>
                </g>
                <g id="Group-4" transform="matrix(1,0,0,1,0,0.302924)">
                    <path id="Combined-Shape" d="M123.585,0C135.994,0 146.058,10.099 146.058,22.552L146.058,90.193C146.058,102.65 135.994,112.745 123.585,112.745L22.468,112.745C10.059,112.745 0,102.65 0,90.193L0,22.552C0,10.805 10.064,0 22.468,0L123.585,0ZM134.822,84.559L134.822,27.834C134.822,16.561 129.203,11.191 117.964,11.191L28.091,11.191C16.847,11.191 11.233,16.561 11.233,27.834L11.233,84.559C11.233,95.833 16.847,101.472 28.091,101.472L117.964,101.472C129.203,101.472 134.822,95.833 134.822,84.559Z" style="fill:rgb(99,101,105);"/>
                    <path id="Fill-32" d="M45.191,120.672C45.191,120.672 37,125.257 37,131.235C37,136.41 41.644,141.056 46.796,141.056L99.895,141.056C104.692,141.056 109.219,136.485 109.219,131.463C109.219,125.485 101.732,120.672 101.732,120.672C101.732,120.672 101.482,129.871 93.286,129.871L53.151,129.871C44.724,129.871 45.191,120.672 45.191,120.672" style="fill:rgb(99,101,105);"/>
                </g>
            </g>
        </g>
    </g>
</svg>
