<?xml version="1.0" encoding="UTF-8" standalone="no"?>
<!DOCTYPE svg PUBLIC "-//W3C//DTD SVG 1.1//EN" "http://www.w3.org/Graphics/SVG/1.1/DTD/svg11.dtd">
<svg width="100%" height="100%" viewBox="0 0 56 13" version="1.1" xmlns="http://www.w3.org/2000/svg" xmlns:xlink="http://www.w3.org/1999/xlink" xml:space="preserve" xmlns:serif="http://www.serif.com/" style="fill-rule:evenodd;clip-rule:evenodd;stroke-linejoin:round;stroke-miterlimit:1.41421;">
    <g transform="matrix(1,0,0,1,-841,-753)">
        <g transform="matrix(1,0,0,1,-6,-4)">
            <g transform="matrix(1,0,0,1,846,769)">
                <g id="Internet-Copy">
                    <path d="M1.536,-0.144C1.387,-0.293 1.312,-0.496 1.312,-0.752L1.312,-10.528C1.312,-10.773 1.387,-10.973 1.536,-11.128C1.685,-11.283 1.883,-11.36 2.128,-11.36C2.384,-11.36 2.587,-11.285 2.736,-11.136C2.885,-10.987 2.96,-10.784 2.96,-10.528L2.96,-0.752C2.96,-0.496 2.888,-0.293 2.744,-0.144C2.6,0.005 2.395,0.08 2.128,0.08C1.883,0.08 1.685,0.005 1.536,-0.144Z" style="fill:white;fill-rule:nonzero;"/>
                    <path d="M12.4,-4.848L12.4,-0.688C12.4,-0.443 12.328,-0.253 12.184,-0.12C12.04,0.013 11.84,0.08 11.584,0.08C11.339,0.08 11.144,0.011 11,-0.128C10.856,-0.267 10.784,-0.453 10.784,-0.688L10.784,-4.768C10.784,-5.429 10.653,-5.915 10.392,-6.224C10.131,-6.533 9.723,-6.688 9.168,-6.688C8.517,-6.688 7.995,-6.485 7.6,-6.08C7.205,-5.675 7.008,-5.131 7.008,-4.448L7.008,-0.688C7.008,-0.453 6.936,-0.267 6.792,-0.128C6.648,0.011 6.453,0.08 6.208,0.08C5.963,0.08 5.765,0.011 5.616,-0.128C5.467,-0.267 5.392,-0.453 5.392,-0.688L5.392,-7.2C5.392,-7.424 5.469,-7.608 5.624,-7.752C5.779,-7.896 5.973,-7.968 6.208,-7.968C6.443,-7.968 6.629,-7.899 6.768,-7.76C6.907,-7.621 6.976,-7.44 6.976,-7.216L6.976,-6.56C7.232,-7.029 7.589,-7.387 8.048,-7.632C8.507,-7.877 9.024,-8 9.6,-8C11.467,-8 12.4,-6.949 12.4,-4.848Z" style="fill:white;fill-rule:nonzero;"/>
                    <path d="M18.936,-0.968C19.037,-0.867 19.088,-0.725 19.088,-0.544C19.088,-0.331 19.005,-0.168 18.84,-0.056C18.675,0.056 18.432,0.101 18.112,0.08L17.68,0.048C16.816,-0.016 16.171,-0.28 15.744,-0.744C15.317,-1.208 15.104,-1.893 15.104,-2.8L15.104,-6.56L14.144,-6.56C13.675,-6.56 13.44,-6.768 13.44,-7.184C13.44,-7.376 13.501,-7.528 13.624,-7.64C13.747,-7.752 13.92,-7.808 14.144,-7.808L15.104,-7.808L15.104,-9.456C15.104,-9.701 15.176,-9.893 15.32,-10.032C15.464,-10.171 15.659,-10.24 15.904,-10.24C16.149,-10.24 16.347,-10.171 16.496,-10.032C16.645,-9.893 16.72,-9.701 16.72,-9.456L16.72,-7.808L18.304,-7.808C18.528,-7.808 18.701,-7.752 18.824,-7.64C18.947,-7.528 19.008,-7.376 19.008,-7.184C19.008,-6.981 18.947,-6.827 18.824,-6.72C18.701,-6.613 18.528,-6.56 18.304,-6.56L16.72,-6.56L16.72,-2.688C16.72,-2.187 16.824,-1.819 17.032,-1.584C17.24,-1.349 17.557,-1.216 17.984,-1.184L18.432,-1.152C18.667,-1.131 18.835,-1.069 18.936,-0.968Z" style="fill:white;fill-rule:nonzero;"/>
                    <path d="M26.736,-1.792C26.832,-1.675 26.88,-1.525 26.88,-1.344C26.88,-1.035 26.688,-0.773 26.304,-0.56C25.931,-0.347 25.523,-0.181 25.08,-0.064C24.637,0.053 24.213,0.112 23.808,0.112C22.571,0.112 21.595,-0.248 20.88,-0.968C20.165,-1.688 19.808,-2.672 19.808,-3.92C19.808,-4.72 19.965,-5.429 20.28,-6.048C20.595,-6.667 21.037,-7.147 21.608,-7.488C22.179,-7.829 22.827,-8 23.552,-8C24.597,-8 25.424,-7.664 26.032,-6.992C26.64,-6.32 26.944,-5.413 26.944,-4.272C26.944,-3.845 26.752,-3.632 26.368,-3.632L21.424,-3.632C21.531,-1.979 22.325,-1.152 23.808,-1.152C24.203,-1.152 24.544,-1.205 24.832,-1.312C25.12,-1.419 25.424,-1.557 25.744,-1.728C25.776,-1.749 25.864,-1.795 26.008,-1.864C26.152,-1.933 26.272,-1.968 26.368,-1.968C26.517,-1.968 26.64,-1.909 26.736,-1.792ZM22.096,-6.224C21.723,-5.829 21.499,-5.275 21.424,-4.56L25.552,-4.56C25.52,-5.285 25.336,-5.843 25,-6.232C24.664,-6.621 24.192,-6.816 23.584,-6.816C22.965,-6.816 22.469,-6.619 22.096,-6.224Z" style="fill:white;fill-rule:nonzero;"/>
                    <path d="M33.584,-7.312C33.584,-7.077 33.525,-6.901 33.408,-6.784C33.291,-6.667 33.088,-6.597 32.8,-6.576L32.32,-6.528C31.648,-6.464 31.149,-6.229 30.824,-5.824C30.499,-5.419 30.336,-4.928 30.336,-4.352L30.336,-0.688C30.336,-0.432 30.261,-0.24 30.112,-0.112C29.963,0.016 29.771,0.08 29.536,0.08C29.301,0.08 29.107,0.016 28.952,-0.112C28.797,-0.24 28.72,-0.432 28.72,-0.688L28.72,-7.2C28.72,-7.445 28.797,-7.635 28.952,-7.768C29.107,-7.901 29.301,-7.968 29.536,-7.968C29.749,-7.968 29.928,-7.901 30.072,-7.768C30.216,-7.635 30.288,-7.451 30.288,-7.216L30.288,-6.448C30.501,-6.917 30.811,-7.275 31.216,-7.52C31.621,-7.765 32.08,-7.909 32.592,-7.952L32.816,-7.968C33.328,-8 33.584,-7.781 33.584,-7.312Z" style="fill:white;fill-rule:nonzero;"/>
                    <path d="M41.584,-4.848L41.584,-0.688C41.584,-0.443 41.512,-0.253 41.368,-0.12C41.224,0.013 41.024,0.08 40.768,0.08C40.523,0.08 40.328,0.011 40.184,-0.128C40.04,-0.267 39.968,-0.453 39.968,-0.688L39.968,-4.768C39.968,-5.429 39.837,-5.915 39.576,-6.224C39.315,-6.533 38.907,-6.688 38.352,-6.688C37.701,-6.688 37.179,-6.485 36.784,-6.08C36.389,-5.675 36.192,-5.131 36.192,-4.448L36.192,-0.688C36.192,-0.453 36.12,-0.267 35.976,-0.128C35.832,0.011 35.637,0.08 35.392,0.08C35.147,0.08 34.949,0.011 34.8,-0.128C34.651,-0.267 34.576,-0.453 34.576,-0.688L34.576,-7.2C34.576,-7.424 34.653,-7.608 34.808,-7.752C34.963,-7.896 35.157,-7.968 35.392,-7.968C35.627,-7.968 35.813,-7.899 35.952,-7.76C36.091,-7.621 36.16,-7.44 36.16,-7.216L36.16,-6.56C36.416,-7.029 36.773,-7.387 37.232,-7.632C37.691,-7.877 38.208,-8 38.784,-8C40.651,-8 41.584,-6.949 41.584,-4.848Z" style="fill:white;fill-rule:nonzero;"/>
                    <path d="M50.272,-1.792C50.368,-1.675 50.416,-1.525 50.416,-1.344C50.416,-1.035 50.224,-0.773 49.84,-0.56C49.467,-0.347 49.059,-0.181 48.616,-0.064C48.173,0.053 47.749,0.112 47.344,0.112C46.107,0.112 45.131,-0.248 44.416,-0.968C43.701,-1.688 43.344,-2.672 43.344,-3.92C43.344,-4.72 43.501,-5.429 43.816,-6.048C44.131,-6.667 44.573,-7.147 45.144,-7.488C45.715,-7.829 46.363,-8 47.088,-8C48.133,-8 48.96,-7.664 49.568,-6.992C50.176,-6.32 50.48,-5.413 50.48,-4.272C50.48,-3.845 50.288,-3.632 49.904,-3.632L44.96,-3.632C45.067,-1.979 45.861,-1.152 47.344,-1.152C47.739,-1.152 48.08,-1.205 48.368,-1.312C48.656,-1.419 48.96,-1.557 49.28,-1.728C49.312,-1.749 49.4,-1.795 49.544,-1.864C49.688,-1.933 49.808,-1.968 49.904,-1.968C50.053,-1.968 50.176,-1.909 50.272,-1.792ZM45.632,-6.224C45.259,-5.829 45.035,-5.275 44.96,-4.56L49.088,-4.56C49.056,-5.285 48.872,-5.843 48.536,-6.232C48.2,-6.621 47.728,-6.816 47.12,-6.816C46.501,-6.816 46.005,-6.619 45.632,-6.224Z" style="fill:white;fill-rule:nonzero;"/>
                    <path d="M56.504,-0.968C56.605,-0.867 56.656,-0.725 56.656,-0.544C56.656,-0.331 56.573,-0.168 56.408,-0.056C56.243,0.056 56,0.101 55.68,0.08L55.248,0.048C54.384,-0.016 53.739,-0.28 53.312,-0.744C52.885,-1.208 52.672,-1.893 52.672,-2.8L52.672,-6.56L51.712,-6.56C51.243,-6.56 51.008,-6.768 51.008,-7.184C51.008,-7.376 51.069,-7.528 51.192,-7.64C51.315,-7.752 51.488,-7.808 51.712,-7.808L52.672,-7.808L52.672,-9.456C52.672,-9.701 52.744,-9.893 52.888,-10.032C53.032,-10.171 53.227,-10.24 53.472,-10.24C53.717,-10.24 53.915,-10.171 54.064,-10.032C54.213,-9.893 54.288,-9.701 54.288,-9.456L54.288,-7.808L55.872,-7.808C56.096,-7.808 56.269,-7.752 56.392,-7.64C56.515,-7.528 56.576,-7.376 56.576,-7.184C56.576,-6.981 56.515,-6.827 56.392,-6.72C56.269,-6.613 56.096,-6.56 55.872,-6.56L54.288,-6.56L54.288,-2.688C54.288,-2.187 54.392,-1.819 54.6,-1.584C54.808,-1.349 55.125,-1.216 55.552,-1.184L56,-1.152C56.235,-1.131 56.403,-1.069 56.504,-0.968Z" style="fill:white;fill-rule:nonzero;"/>
                </g>
            </g>
        </g>
    </g>
</svg>
