<?xml version="1.0" encoding="UTF-8" standalone="no"?>
<svg width="254px" height="55px" viewBox="0 0 254 55" version="1.1" xmlns="http://www.w3.org/2000/svg" xmlns:xlink="http://www.w3.org/1999/xlink">
    <!-- Generator: Sketch 50.2 (55047) - http://www.bohemiancoding.com/sketch -->
    <title>Line 25_2</title>
    <desc>Created with Sketch.</desc>
    <defs></defs>
    <g id="Page-1" stroke="none" stroke-width="1" fill="none" fill-rule="evenodd">
        <path d="M3.22566629,54.9506244 C1.87222382,55.2236789 0.553687488,54.3478514 0.280632957,52.994409 C0.00757842555,51.6409665 0.883405893,50.3224302 2.23684836,50.0493756 L3.2170981,49.851612 C4.57054057,49.5785575 5.8890769,50.454385 6.16213143,51.8078274 C6.43518596,53.1612699 5.5593585,54.4798062 4.20591603,54.7528608 L3.22566629,54.9506244 Z M23.8109109,50.7975891 C22.4574685,51.0706436 21.1389321,50.1948161 20.8658776,48.8413737 C20.5928231,47.4879312 21.4686506,46.1693949 22.822093,45.8963403 L23.8023428,45.6985767 C25.1557852,45.4255222 26.4743216,46.3013497 26.7473761,47.6547921 C27.0204306,49.0082346 26.1446032,50.3267709 24.7911607,50.5998255 L23.8109109,50.7975891 Z M44.3961556,46.6445538 C43.0427131,46.9176083 41.7241768,46.0417808 41.4511223,44.6883384 C41.1780677,43.3348959 42.0538952,42.0163596 43.4073377,41.743305 L44.3875874,41.5455414 C45.7410299,41.2724869 47.0595662,42.1483144 47.3326208,43.5017568 C47.6056753,44.8551993 46.7298478,46.1737356 45.3764054,46.4467902 L44.3961556,46.6445538 Z M64.9814003,42.4915185 C63.6279578,42.764573 62.3094215,41.8887455 62.0363669,40.5353031 C61.7633124,39.1818606 62.6391399,37.8633243 63.9925823,37.5902697 L64.9728321,37.3925061 C66.3262746,37.1194516 67.6448109,37.9952791 67.9178654,39.3487215 C68.1909199,40.702164 67.3150925,42.0207003 65.96165,42.2937549 L64.9814003,42.4915185 Z M85.5666449,38.3384832 C84.2132025,38.6115377 82.8946661,37.7357102 82.6216116,36.3822678 C82.3485571,35.0288253 83.2243845,33.710289 84.577827,33.4372344 L85.5580767,33.2394708 C86.9115192,32.9664163 88.2300555,33.8422438 88.5031101,35.1956862 C88.7761646,36.5491287 87.9003371,37.867665 86.5468947,38.1407196 L85.5666449,38.3384832 Z M106.15189,34.1854479 C104.798447,34.4585024 103.479911,33.5826749 103.206856,32.2292325 C102.933802,30.87579 103.809629,29.5572537 105.163072,29.2841991 L106.143321,29.0864355 C107.496764,28.813381 108.8153,29.6892085 109.088355,31.0426509 C109.361409,32.3960934 108.485582,33.7146297 107.132139,33.9876843 L106.15189,34.1854479 Z M126.737134,30.0324125 C125.383692,30.3054671 124.065155,29.4296396 123.792101,28.0761971 C123.519046,26.7227547 124.394874,25.4042183 125.748316,25.1311638 L126.728566,24.9334002 C128.082009,24.6603457 129.400545,25.5361732 129.673599,26.8896156 C129.946654,28.2430581 129.070826,29.5615944 127.717384,29.834649 L126.737134,30.0324125 Z M147.322379,25.8793772 C145.968936,26.1524318 144.6504,25.2766043 144.377346,23.9231618 C144.104291,22.5697194 144.980119,21.251183 146.333561,20.9781285 L147.313811,20.7803649 C148.667253,20.5073104 149.98579,21.3831379 150.258844,22.7365803 C150.531899,24.0900228 149.656071,25.4085591 148.302629,25.6816137 L147.322379,25.8793772 Z M167.907624,21.7263419 C166.554181,21.9993965 165.235645,21.123569 164.96259,19.7701265 C164.689536,18.4166841 165.565363,17.0981477 166.918806,16.8250932 L167.899055,16.6273296 C169.252498,16.3542751 170.571034,17.2301026 170.844089,18.583545 C171.117143,19.9369875 170.241316,21.2555238 168.887873,21.5285784 L167.907624,21.7263419 Z M188.492868,17.5733066 C187.139426,17.8463612 185.820889,16.9705337 185.547835,15.6170912 C185.27478,14.2636488 186.150608,12.9451124 187.50405,12.6720579 L188.4843,12.4742943 C189.837743,12.2012398 191.156279,13.0770673 191.429333,14.4305097 C191.702388,15.7839522 190.82656,17.1024885 189.473118,17.3755431 L188.492868,17.5733066 Z M209.078113,13.4202713 C207.72467,13.6933259 206.406134,12.8174984 206.13308,11.4640559 C205.860025,10.1106135 206.735853,8.79207714 208.089295,8.51902261 L209.069545,8.32125902 C210.422987,8.04820449 211.741524,8.92403196 212.014578,10.2774744 C212.287633,11.6309169 211.411805,12.9494532 210.058363,13.2225077 L209.078113,13.4202713 Z M229.663358,9.26723603 C228.309915,9.54029056 226.991379,8.6644631 226.718324,7.31102063 C226.44527,5.95757817 227.321097,4.63904184 228.67454,4.3659873 L229.654789,4.16822372 C231.008232,3.89516919 232.326768,4.77099665 232.599823,6.12443912 C232.872877,7.47788158 231.99705,8.79641792 230.643607,9.06947245 L229.663358,9.26723603 Z M250.248602,5.11420073 C248.89516,5.38725526 247.576623,4.51142779 247.303569,3.15798533 C247.030514,1.80454287 247.906342,0.486006532 249.259784,0.212952001 L250.240034,0.0151884151 C251.593477,-0.257866116 252.912013,0.617961351 253.185067,1.97140381 C253.458122,3.32484628 252.582294,4.64338261 251.228852,4.91643714 L250.248602,5.11420073 Z" id="Line-25_2" fill="#99CC00" fill-rule="nonzero" transform="translate(126.732850, 27.482906) scale(1, -1) translate(-126.732850, -27.482906) "></path>
    </g>
</svg>