<?xml version="1.0" encoding="UTF-8" standalone="no"?>
<svg width="278px" height="166px" viewBox="0 0 278 166" version="1.1" xmlns="http://www.w3.org/2000/svg" xmlns:xlink="http://www.w3.org/1999/xlink">
    <!-- Generator: Sketch 50.2 (55047) - http://www.bohemiancoding.com/sketch -->
    <title>Line 26_2</title>
    <desc>Created with Sketch.</desc>
    <defs></defs>
    <g id="Page-1" stroke="none" stroke-width="1" fill="none" fill-rule="evenodd">
        <path d="M4.0011661,165.652544 C2.81234907,166.35474 1.27938005,165.960256 0.577183964,164.771438 C-0.125012126,163.582621 0.26947209,162.049652 1.45828912,161.347456 L2.31930658,160.838881 C3.50812361,160.136685 5.04109263,160.531169 5.74328872,161.719986 C6.44548481,162.908803 6.05100059,164.441772 4.86218356,165.143968 L4.0011661,165.652544 Z M22.0825328,154.97246 C20.8937157,155.674656 19.3607467,155.280172 18.6585506,154.091355 C17.9563545,152.902538 18.3508387,151.369569 19.5396558,150.667373 L20.4006732,150.158798 C21.5894903,149.456602 23.1224593,149.851086 23.8246554,151.039903 C24.5268515,152.22872 24.1323672,153.761689 22.9435502,154.463885 L22.0825328,154.97246 Z M40.1638994,144.292377 C38.9750824,144.994573 37.4421134,144.600089 36.7399173,143.411272 C36.0377212,142.222455 36.4322054,140.689486 37.6210224,139.98729 L38.4820399,139.478714 C39.6708569,138.776518 41.2038259,139.171002 41.906022,140.359819 C42.6082181,141.548636 42.2137339,143.081606 41.0249169,143.783802 L40.1638994,144.292377 Z M58.2452661,133.612294 C57.056449,134.31449 55.52348,133.920006 54.8212839,132.731188 C54.1190878,131.542371 54.513572,130.009402 55.7023891,129.307206 L56.5634065,128.798631 C57.7522236,128.096435 59.2851926,128.490919 59.9873887,129.679736 C60.6895848,130.868553 60.2951006,132.401522 59.1062835,133.103718 L58.2452661,133.612294 Z M76.3266327,122.93221 C75.1378157,123.634406 73.6048467,123.239922 72.9026506,122.051105 C72.2004545,120.862288 72.5949387,119.329319 73.7837557,118.627123 L74.6447732,118.118548 C75.8335902,117.416352 77.3665592,117.810836 78.0687553,118.999653 C78.7709514,120.18847 78.3764672,121.721439 77.1876502,122.423635 L76.3266327,122.93221 Z M94.4079994,112.252127 C93.2191823,112.954323 91.6862133,112.559839 90.9840172,111.371022 C90.2818211,110.182205 90.6763054,108.649236 91.8651224,107.94704 L92.7261398,107.438464 C93.9149569,106.736268 95.4479259,107.130752 96.150122,108.319569 C96.8523181,109.508386 96.4578339,111.041356 95.2690168,111.743552 L94.4079994,112.252127 Z M112.489366,101.572044 C111.300549,102.27424 109.76758,101.879756 109.065384,100.690939 C108.363188,99.5021215 108.757672,97.9691525 109.946489,97.2669564 L110.807506,96.758381 C111.996324,96.0561849 113.529293,96.4506691 114.231489,97.6394861 C114.933685,98.8283032 114.539201,100.361272 113.350383,101.063468 L112.489366,101.572044 Z M130.570733,90.8919603 C129.381916,91.5941564 127.848947,91.1996722 127.146751,90.0108552 C126.444554,88.8220381 126.839039,87.2890691 128.027856,86.586873 L128.888873,86.0782976 C130.07769,85.3761015 131.610659,85.7705858 132.312855,86.9594028 C133.015051,88.1482198 132.620567,89.6811888 131.43175,90.3833849 L130.570733,90.8919603 Z M148.652099,80.211877 C147.463282,80.9140731 145.930313,80.5195889 145.228117,79.3307718 C144.525921,78.1419548 144.920405,76.6089858 146.109222,75.9067897 L146.97024,75.3982143 C148.159057,74.6960182 149.692026,75.0905024 150.394222,76.2793195 C151.096418,77.4681365 150.701934,79.0011055 149.513117,79.7033016 L148.652099,80.211877 Z M166.733466,69.5317937 C165.544649,70.2339898 164.01168,69.8395055 163.309484,68.6506885 C162.607288,67.4618715 163.001772,65.9289025 164.190589,65.2267064 L165.051606,64.718131 C166.240423,64.0159349 167.773393,64.4104191 168.475589,65.5992361 C169.177785,66.7880532 168.7833,68.3210222 167.594483,69.0232183 L166.733466,69.5317937 Z M184.814833,58.8517103 C183.626016,59.5539064 182.093047,59.1594222 181.39085,57.9706052 C180.688654,56.7817881 181.083139,55.2488191 182.271956,54.546623 L183.132973,54.0380476 C184.32179,53.3358516 185.854759,53.7303358 186.556955,54.9191528 C187.259151,56.1079698 186.864667,57.6409389 185.67585,58.3431349 L184.814833,58.8517103 Z M202.896199,48.171627 C201.707382,48.8738231 200.174413,48.4793389 199.472217,47.2905218 C198.770021,46.1017048 199.164505,44.5687358 200.353322,43.8665397 L201.21434,43.3579643 C202.403157,42.6557682 203.936126,43.0502524 204.638322,44.2390695 C205.340518,45.4278865 204.946034,46.9608555 203.757217,47.6630516 L202.896199,48.171627 Z M220.977566,37.4915437 C219.788749,38.1937398 218.25578,37.7992555 217.553584,36.6104385 C216.851388,35.4216215 217.245872,33.8886525 218.434689,33.1864564 L219.295706,32.677881 C220.484523,31.9756849 222.017492,32.3701691 222.719689,33.5589861 C223.421885,34.7478032 223.0274,36.2807722 221.838583,36.9829683 L220.977566,37.4915437 Z M239.058933,26.8114603 C237.870116,27.5136564 236.337147,27.1191722 235.63495,25.9303552 C234.932754,24.7415382 235.327239,23.2085691 236.516056,22.506373 L237.377073,21.9977976 C238.56589,21.2956016 240.098859,21.6900858 240.801055,22.8789028 C241.503251,24.0677198 241.108767,25.6006889 239.91995,26.3028849 L239.058933,26.8114603 Z M257.140299,16.131377 C255.951482,16.8335731 254.418513,16.4390889 253.716317,15.2502719 C253.014121,14.0614548 253.408605,12.5284858 254.597422,11.8262897 L255.45844,11.3177143 C256.647257,10.6155182 258.180226,11.0100024 258.882422,12.1988195 C259.584618,13.3876365 259.190134,14.9206055 258.001317,15.6228016 L257.140299,16.131377 Z M275.221666,5.45129368 C274.032849,6.15348977 272.49988,5.75900555 271.797684,4.57018852 C271.095488,3.38137149 271.489972,1.84840247 272.678789,1.14620638 L273.539806,0.637630986 C274.728623,-0.0645651038 276.261592,0.329919112 276.963789,1.51873614 C277.665985,2.70755317 277.2715,4.24052219 276.082683,4.94271828 L275.221666,5.45129368 Z" id="Line-26_2" fill="#99CC00" fill-rule="nonzero" transform="translate(138.770486, 83.145087) scale(1, -1) translate(-138.770486, -83.145087) "></path>
    </g>
</svg>