<?xml version="1.0" encoding="UTF-8" standalone="no"?>
<svg width="276px" height="170px" viewBox="0 0 276 170" version="1.1" xmlns="http://www.w3.org/2000/svg" xmlns:xlink="http://www.w3.org/1999/xlink">
    <!-- Generator: Sketch 50.2 (55047) - http://www.bohemiancoding.com/sketch -->
    <title>Line 23_2</title>
    <desc>Created with Sketch.</desc>
    <defs></defs>
    <g id="Page-1" stroke="none" stroke-width="1" fill="none" fill-rule="evenodd">
        <path d="M4.02881487,169.635971 C2.84915064,170.353437 1.31122265,169.978751 0.59375657,168.799087 C-0.123709511,167.619423 0.250976122,166.081495 1.43064035,165.364029 L2.28502877,164.844394 C3.464693,164.126928 5.00262099,164.501614 5.72008707,165.681278 C6.43755315,166.860942 6.06286752,168.39887 4.88320329,169.116336 L4.02881487,169.635971 Z M21.9709716,158.723638 C20.7913074,159.441104 19.2533794,159.066419 18.5359133,157.886754 C17.8184472,156.70709 18.1931329,155.169162 19.3727971,154.451696 L20.2271855,153.932061 C21.4068498,153.214595 22.9447778,153.589281 23.6622438,154.768945 C24.3797099,155.948609 24.0050243,157.486537 22.82536,158.204003 L21.9709716,158.723638 Z M39.9131284,147.811305 C38.7334642,148.528771 37.1955362,148.154086 36.4780701,146.974421 C35.760604,145.794757 36.1352896,144.256829 37.3149539,143.539363 L38.1693423,143.019728 C39.3490065,142.302262 40.8869345,142.676948 41.6044006,143.856612 C42.3218667,145.036276 41.947181,146.574204 40.7675168,147.29167 L39.9131284,147.811305 Z M57.8552852,136.898972 C56.6756209,137.616438 55.1376929,137.241753 54.4202269,136.062088 C53.7027608,134.882424 54.0774464,133.344496 55.2571106,132.62703 L56.1114991,132.107395 C57.2911633,131.389929 58.8290913,131.764615 59.5465574,132.944279 C60.2640234,134.123943 59.8893378,135.661871 58.7096736,136.379337 L57.8552852,136.898972 Z M75.7974419,125.986639 C74.6177777,126.704105 73.0798497,126.32942 72.3623836,125.149755 C71.6449175,123.970091 72.0196032,122.432163 73.1992674,121.714697 L74.0536558,121.195062 C75.23332,120.477596 76.771248,120.852282 77.4887141,122.031946 C78.2061802,123.21161 77.8314946,124.749538 76.6518303,125.467004 L75.7974419,125.986639 Z M93.7395987,115.074306 C92.5599344,115.791772 91.0220065,115.417087 90.3045404,114.237422 C89.5870743,113.057758 89.9617599,111.51983 91.1414242,110.802364 L91.9958126,110.282729 C93.1754768,109.565263 94.7134048,109.939949 95.4308709,111.119613 C96.148337,112.299277 95.7736513,113.837205 94.5939871,114.554671 L93.7395987,115.074306 Z M111.681755,104.161973 C110.502091,104.879439 108.964163,104.504754 108.246697,103.325089 C107.529231,102.145425 107.903917,100.607497 109.083581,99.8900312 L109.937969,99.3703963 C111.117634,98.6529302 112.655562,99.0276158 113.373028,100.20728 C114.090494,101.386944 113.715808,102.924872 112.536144,103.642338 L111.681755,104.161973 Z M129.623912,93.2496403 C128.444248,93.9671064 126.90632,93.5924207 126.188854,92.4127565 C125.471388,91.2330923 125.846073,89.6951643 127.025738,88.9776982 L127.880126,88.4580633 C129.05979,87.7405972 130.597718,88.1152828 131.315184,89.2949471 C132.03265,90.4746113 131.657965,92.0125393 130.478301,92.7300054 L129.623912,93.2496403 Z M147.566069,82.3373073 C146.386405,83.0547734 144.848477,82.6800878 144.131011,81.5004235 C143.413545,80.3207593 143.78823,78.7828313 144.967894,78.0653652 L145.822283,77.5457303 C147.001947,76.8282642 148.539875,77.2029499 149.257341,78.3826141 C149.974807,79.5622783 149.600122,81.1002063 148.420457,81.8176724 L147.566069,82.3373073 Z M165.508226,71.4249743 C164.328561,72.1424404 162.790633,71.7677548 162.073167,70.5880906 C161.355701,69.4084263 161.730387,67.8704983 162.910051,67.1530323 L163.76444,66.6333973 C164.944104,65.9159313 166.482032,66.2906169 167.199498,67.4702811 C167.916964,68.6499454 167.542278,70.1878734 166.362614,70.9053394 L165.508226,71.4249743 Z M183.450382,60.5126414 C182.270718,61.2301075 180.73279,60.8554218 180.015324,59.6757576 C179.297858,58.4960934 179.672544,56.9581654 180.852208,56.2406993 L181.706596,55.7210644 C182.886261,55.0035983 184.424189,55.3782839 185.141655,56.5579482 C185.859121,57.7376124 185.484435,59.2755404 184.304771,59.9930065 L183.450382,60.5126414 Z M201.392539,49.6003084 C200.212875,50.3177745 198.674947,49.9430889 197.957481,48.7634246 C197.240015,47.5837604 197.6147,46.0458324 198.794365,45.3283663 L199.648753,44.8087314 C200.828417,44.0912653 202.366345,44.465951 203.083811,45.6456152 C203.801278,46.8252794 203.426592,48.3632074 202.246928,49.0806735 L201.392539,49.6003084 Z M219.334696,38.6879754 C218.155032,39.4054415 216.617104,39.0307559 215.899638,37.8510917 C215.182172,36.6714274 215.556857,35.1334994 216.736521,34.4160334 L217.59091,33.8963984 C218.770574,33.1789324 220.308502,33.553618 221.025968,34.7332822 C221.743434,35.9129465 221.368749,37.4508745 220.189084,38.1683405 L219.334696,38.6879754 Z M237.276853,27.7756425 C236.097189,28.4931086 234.559261,28.1184229 233.841794,26.9387587 C233.124328,25.7590945 233.499014,24.2211665 234.678678,23.5037004 L235.533067,22.9840655 C236.712731,22.2665994 238.250659,22.641285 238.968125,23.8209493 C239.685591,25.0006135 239.310905,26.5385415 238.131241,27.2560076 L237.276853,27.7756425 Z M255.21901,16.8633095 C254.039345,17.5807756 252.501417,17.20609 251.783951,16.0264257 C251.066485,14.8467615 251.441171,13.3088335 252.620835,12.5913674 L253.475223,12.0717325 C254.654888,11.3542664 256.192816,11.7289521 256.910282,12.9086163 C257.627748,14.0882805 257.253062,15.6262085 256.073398,16.3436746 L255.21901,16.8633095 Z M273.161166,5.95097654 C271.981502,6.66844262 270.443574,6.29375698 269.726108,5.11409275 C269.008642,3.93442852 269.383328,2.39650053 270.562992,1.67903445 L271.41738,1.15939955 C272.597044,0.441933465 274.134972,0.816619098 274.852438,1.99628333 C275.569905,3.17594756 275.195219,4.71387555 274.015555,5.43134163 L273.161166,5.95097654 Z" id="Line-23_2" fill="#99CC00" fill-rule="nonzero"></path>
    </g>
</svg>