<?xml version="1.0" encoding="UTF-8" standalone="no"?>
<!DOCTYPE svg PUBLIC "-//W3C//DTD SVG 1.1//EN" "http://www.w3.org/Graphics/SVG/1.1/DTD/svg11.dtd">
<svg width="100%" height="100%" viewBox="0 0 114 10" version="1.1" xmlns="http://www.w3.org/2000/svg" xmlns:xlink="http://www.w3.org/1999/xlink" xml:space="preserve" xmlns:serif="http://www.serif.com/" style="fill-rule:evenodd;clip-rule:evenodd;stroke-linejoin:round;stroke-miterlimit:1.41421;">
    <path id="_2-Clients-Connected" serif:id="2-Clients-Connected" d="M6.215,7.936C6.416,7.936 6.568,7.982 6.673,8.073C6.777,8.165 6.829,8.295 6.829,8.462C6.829,8.821 6.625,9 6.215,9L1.382,9C1.198,9 1.054,8.948 0.95,8.843C0.846,8.739 0.794,8.608 0.794,8.449C0.794,8.257 0.869,8.082 1.019,7.923L3.962,4.705C4.354,4.279 4.638,3.891 4.813,3.541C4.988,3.19 5.076,2.843 5.076,2.501C5.076,2.059 4.949,1.719 4.694,1.481C4.439,1.243 4.078,1.124 3.611,1.124C2.901,1.124 2.196,1.395 1.495,1.938C1.403,1.996 1.326,2.04 1.263,2.069C1.201,2.098 1.136,2.113 1.069,2.113C0.952,2.113 0.852,2.059 0.769,1.95C0.685,1.842 0.643,1.712 0.643,1.562C0.643,1.353 0.727,1.186 0.894,1.061C1.244,0.761 1.666,0.521 2.158,0.341C2.651,0.162 3.148,0.072 3.649,0.072C4.475,0.072 5.132,0.283 5.621,0.704C6.109,1.126 6.353,1.696 6.353,2.414C6.353,2.923 6.243,3.407 6.021,3.866C5.8,4.325 5.431,4.839 4.913,5.406L2.547,7.936L6.215,7.936ZM15.607,9.1C14.764,9.1 14.029,8.919 13.403,8.555C12.777,8.192 12.297,7.671 11.963,6.99C11.629,6.31 11.462,5.506 11.462,4.58C11.462,3.662 11.629,2.862 11.963,2.182C12.297,1.502 12.777,0.98 13.403,0.617C14.029,0.254 14.764,0.072 15.607,0.072C16.158,0.072 16.679,0.158 17.172,0.329C17.665,0.5 18.094,0.748 18.462,1.074C18.62,1.199 18.7,1.366 18.7,1.575C18.7,1.725 18.658,1.852 18.574,1.957C18.491,2.061 18.391,2.113 18.274,2.113C18.132,2.113 17.994,2.059 17.861,1.95C17.46,1.65 17.095,1.439 16.765,1.318C16.435,1.197 16.062,1.136 15.644,1.136C14.726,1.136 14.021,1.433 13.528,2.025C13.036,2.618 12.789,3.47 12.789,4.58C12.789,5.698 13.036,6.554 13.528,7.147C14.021,7.739 14.726,8.036 15.644,8.036C16.045,8.036 16.41,7.973 16.74,7.848C17.07,7.723 17.443,7.514 17.861,7.222C18.028,7.113 18.165,7.059 18.274,7.059C18.391,7.059 18.491,7.111 18.574,7.216C18.658,7.32 18.7,7.447 18.7,7.598C18.7,7.806 18.62,7.973 18.462,8.098C18.094,8.424 17.665,8.672 17.172,8.843C16.679,9.015 16.158,9.1 15.607,9.1ZM20.728,9.063C20.545,9.063 20.392,9.013 20.271,8.912C20.15,8.812 20.09,8.662 20.09,8.462L20.09,0.723C20.09,0.523 20.15,0.37 20.271,0.266C20.392,0.162 20.545,0.11 20.728,0.11C20.912,0.11 21.062,0.162 21.179,0.266C21.296,0.37 21.354,0.523 21.354,0.723L21.354,8.462C21.354,8.662 21.296,8.812 21.179,8.912C21.062,9.013 20.912,9.063 20.728,9.063ZM23.758,9.063C23.575,9.063 23.422,9.013 23.301,8.912C23.18,8.812 23.12,8.662 23.12,8.462L23.12,3.378C23.12,3.177 23.18,3.025 23.301,2.921C23.422,2.816 23.575,2.764 23.758,2.764C23.942,2.764 24.092,2.816 24.209,2.921C24.326,3.025 24.385,3.177 24.385,3.378L24.385,8.462C24.385,8.662 24.326,8.812 24.209,8.912C24.092,9.013 23.942,9.063 23.758,9.063ZM23.758,1.537C23.516,1.537 23.324,1.47 23.182,1.337C23.041,1.203 22.97,1.028 22.97,0.811C22.97,0.594 23.041,0.421 23.182,0.291C23.324,0.162 23.516,0.097 23.758,0.097C23.992,0.097 24.182,0.162 24.328,0.291C24.474,0.421 24.547,0.594 24.547,0.811C24.547,1.028 24.476,1.203 24.334,1.337C24.193,1.47 24.001,1.537 23.758,1.537ZM30.933,7.46C31.05,7.46 31.146,7.506 31.221,7.598C31.297,7.689 31.334,7.806 31.334,7.948C31.334,8.19 31.184,8.395 30.883,8.562C30.591,8.729 30.272,8.858 29.925,8.95C29.579,9.042 29.247,9.088 28.93,9.088C27.962,9.088 27.198,8.806 26.638,8.242C26.079,7.679 25.799,6.909 25.799,5.932C25.799,5.306 25.923,4.751 26.169,4.267C26.415,3.783 26.762,3.407 27.208,3.14C27.655,2.873 28.162,2.739 28.73,2.739C29.548,2.739 30.195,3.002 30.67,3.528C31.146,4.054 31.384,4.763 31.384,5.657C31.384,5.991 31.234,6.158 30.933,6.158L27.064,6.158C27.148,7.451 27.77,8.098 28.93,8.098C29.239,8.098 29.506,8.057 29.731,7.973C29.957,7.89 30.195,7.781 30.445,7.648C30.47,7.631 30.539,7.595 30.652,7.541C30.764,7.487 30.858,7.46 30.933,7.46ZM28.755,3.666C28.27,3.666 27.882,3.82 27.59,4.129C27.298,4.438 27.123,4.872 27.064,5.431L30.295,5.431C30.27,4.864 30.126,4.427 29.863,4.123C29.6,3.818 29.23,3.666 28.755,3.666ZM36.067,2.739C37.528,2.739 38.259,3.561 38.259,5.206L38.259,8.462C38.259,8.654 38.202,8.802 38.09,8.906C37.977,9.01 37.82,9.063 37.62,9.063C37.428,9.063 37.276,9.008 37.163,8.9C37.05,8.791 36.994,8.645 36.994,8.462L36.994,5.269C36.994,4.751 36.892,4.371 36.687,4.129C36.483,3.887 36.163,3.766 35.729,3.766C35.22,3.766 34.811,3.925 34.502,4.242C34.193,4.559 34.039,4.985 34.039,5.519L34.039,8.462C34.039,8.645 33.982,8.791 33.87,8.9C33.757,9.008 33.605,9.063 33.413,9.063C33.221,9.063 33.066,9.008 32.949,8.9C32.833,8.791 32.774,8.645 32.774,8.462L32.774,3.365C32.774,3.19 32.835,3.046 32.956,2.933C33.077,2.821 33.229,2.764 33.413,2.764C33.596,2.764 33.742,2.818 33.851,2.927C33.959,3.035 34.014,3.177 34.014,3.353L34.014,3.866C34.214,3.499 34.494,3.219 34.853,3.027C35.212,2.835 35.617,2.739 36.067,2.739ZM42.979,8.098C43.163,8.115 43.294,8.163 43.374,8.242C43.453,8.322 43.493,8.432 43.493,8.574C43.493,8.741 43.428,8.869 43.299,8.956C43.169,9.044 42.979,9.079 42.729,9.063L42.391,9.038C41.715,8.987 41.21,8.781 40.876,8.418C40.542,8.055 40.375,7.518 40.375,6.809L40.375,3.866L39.623,3.866C39.256,3.866 39.073,3.703 39.073,3.378C39.073,3.227 39.121,3.109 39.217,3.021C39.313,2.933 39.448,2.889 39.623,2.889L40.375,2.889L40.375,1.6C40.375,1.408 40.431,1.257 40.544,1.149C40.657,1.04 40.809,0.986 41.001,0.986C41.193,0.986 41.347,1.04 41.464,1.149C41.581,1.257 41.639,1.408 41.639,1.6L41.639,2.889L42.879,2.889C43.054,2.889 43.19,2.933 43.286,3.021C43.382,3.109 43.43,3.227 43.43,3.378C43.43,3.536 43.382,3.657 43.286,3.741C43.19,3.824 43.054,3.866 42.879,3.866L41.639,3.866L41.639,6.896C41.639,7.289 41.721,7.577 41.884,7.76C42.046,7.944 42.295,8.048 42.629,8.073L42.979,8.098ZM46.535,9.088C45.684,9.088 44.987,8.912 44.444,8.562C44.294,8.47 44.188,8.374 44.125,8.274C44.062,8.174 44.031,8.061 44.031,7.936C44.031,7.802 44.069,7.689 44.144,7.598C44.219,7.506 44.315,7.46 44.432,7.46C44.54,7.46 44.711,7.527 44.945,7.66C45.196,7.794 45.44,7.902 45.678,7.986C45.916,8.069 46.214,8.111 46.573,8.111C46.974,8.111 47.287,8.04 47.512,7.898C47.738,7.756 47.85,7.556 47.85,7.297C47.85,7.13 47.806,6.997 47.719,6.896C47.631,6.796 47.479,6.706 47.262,6.627C47.045,6.548 46.723,6.462 46.298,6.37C45.563,6.212 45.035,5.997 44.714,5.726C44.392,5.454 44.231,5.085 44.231,4.617C44.231,4.258 44.336,3.935 44.545,3.647C44.753,3.359 45.041,3.136 45.409,2.977C45.776,2.818 46.193,2.739 46.661,2.739C46.995,2.739 47.32,2.783 47.637,2.871C47.955,2.958 48.234,3.086 48.476,3.253C48.752,3.436 48.89,3.649 48.89,3.891C48.89,4.025 48.85,4.137 48.771,4.229C48.691,4.321 48.597,4.367 48.489,4.367C48.414,4.367 48.339,4.35 48.263,4.317C48.188,4.283 48.088,4.229 47.963,4.154C47.738,4.021 47.527,3.916 47.331,3.841C47.134,3.766 46.89,3.728 46.598,3.728C46.247,3.728 45.966,3.803 45.753,3.954C45.54,4.104 45.434,4.309 45.434,4.567C45.434,4.801 45.532,4.983 45.728,5.112C45.924,5.241 46.293,5.365 46.836,5.481C47.395,5.598 47.834,5.732 48.151,5.882C48.468,6.032 48.695,6.218 48.833,6.439C48.971,6.661 49.04,6.942 49.04,7.285C49.04,7.827 48.812,8.263 48.357,8.593C47.902,8.923 47.295,9.088 46.535,9.088ZM57.742,9.1C56.899,9.1 56.165,8.919 55.539,8.555C54.913,8.192 54.433,7.671 54.099,6.99C53.765,6.31 53.598,5.506 53.598,4.58C53.598,3.662 53.765,2.862 54.099,2.182C54.433,1.502 54.913,0.98 55.539,0.617C56.165,0.254 56.899,0.072 57.742,0.072C58.293,0.072 58.815,0.158 59.308,0.329C59.8,0.5 60.23,0.748 60.597,1.074C60.756,1.199 60.835,1.366 60.835,1.575C60.835,1.725 60.794,1.852 60.71,1.957C60.627,2.061 60.526,2.113 60.41,2.113C60.268,2.113 60.13,2.059 59.996,1.95C59.596,1.65 59.23,1.439 58.901,1.318C58.571,1.197 58.197,1.136 57.78,1.136C56.862,1.136 56.156,1.433 55.664,2.025C55.171,2.618 54.925,3.47 54.925,4.58C54.925,5.698 55.171,6.554 55.664,7.147C56.156,7.739 56.862,8.036 57.78,8.036C58.181,8.036 58.546,7.973 58.876,7.848C59.205,7.723 59.579,7.514 59.996,7.222C60.163,7.113 60.301,7.059 60.41,7.059C60.526,7.059 60.627,7.111 60.71,7.216C60.794,7.32 60.835,7.447 60.835,7.598C60.835,7.806 60.756,7.973 60.597,8.098C60.23,8.424 59.8,8.672 59.308,8.843C58.815,9.015 58.293,9.1 57.742,9.1ZM64.88,9.088C64.279,9.088 63.751,8.958 63.296,8.699C62.841,8.441 62.49,8.071 62.244,7.591C61.998,7.111 61.875,6.554 61.875,5.92C61.875,5.277 61.998,4.715 62.244,4.235C62.49,3.755 62.841,3.386 63.296,3.127C63.751,2.869 64.279,2.739 64.88,2.739C65.481,2.739 66.009,2.869 66.464,3.127C66.919,3.386 67.269,3.755 67.516,4.235C67.762,4.715 67.885,5.277 67.885,5.92C67.885,6.554 67.762,7.111 67.516,7.591C67.269,8.071 66.919,8.441 66.464,8.699C66.009,8.958 65.481,9.088 64.88,9.088ZM64.88,8.086C65.439,8.086 65.867,7.902 66.163,7.535C66.46,7.168 66.608,6.629 66.608,5.92C66.608,5.218 66.458,4.682 66.157,4.311C65.857,3.939 65.431,3.753 64.88,3.753C64.329,3.753 63.903,3.939 63.603,4.311C63.302,4.682 63.152,5.218 63.152,5.92C63.152,6.629 63.3,7.168 63.596,7.535C63.893,7.902 64.321,8.086 64.88,8.086ZM72.581,2.739C74.042,2.739 74.772,3.561 74.772,5.206L74.772,8.462C74.772,8.654 74.716,8.802 74.603,8.906C74.49,9.01 74.334,9.063 74.133,9.063C73.941,9.063 73.789,9.008 73.676,8.9C73.564,8.791 73.507,8.645 73.507,8.462L73.507,5.269C73.507,4.751 73.405,4.371 73.201,4.129C72.996,3.887 72.677,3.766 72.243,3.766C71.733,3.766 71.324,3.925 71.015,4.242C70.707,4.559 70.552,4.985 70.552,5.519L70.552,8.462C70.552,8.645 70.496,8.791 70.383,8.9C70.27,9.008 70.118,9.063 69.926,9.063C69.734,9.063 69.58,9.008 69.463,8.9C69.346,8.791 69.287,8.645 69.287,8.462L69.287,3.365C69.287,3.19 69.348,3.046 69.469,2.933C69.59,2.821 69.742,2.764 69.926,2.764C70.11,2.764 70.256,2.818 70.364,2.927C70.473,3.035 70.527,3.177 70.527,3.353L70.527,3.866C70.727,3.499 71.007,3.219 71.366,3.027C71.725,2.835 72.13,2.739 72.581,2.739ZM79.793,2.739C81.254,2.739 81.985,3.561 81.985,5.206L81.985,8.462C81.985,8.654 81.928,8.802 81.815,8.906C81.703,9.01 81.546,9.063 81.346,9.063C81.154,9.063 81.002,9.008 80.889,8.9C80.776,8.791 80.72,8.645 80.72,8.462L80.72,5.269C80.72,4.751 80.618,4.371 80.413,4.129C80.209,3.887 79.889,3.766 79.455,3.766C78.946,3.766 78.537,3.925 78.228,4.242C77.919,4.559 77.765,4.985 77.765,5.519L77.765,8.462C77.765,8.645 77.708,8.791 77.596,8.9C77.483,9.008 77.331,9.063 77.139,9.063C76.947,9.063 76.792,9.008 76.675,8.9C76.558,8.791 76.5,8.645 76.5,8.462L76.5,3.365C76.5,3.19 76.561,3.046 76.682,2.933C76.803,2.821 76.955,2.764 77.139,2.764C77.322,2.764 77.468,2.818 77.577,2.927C77.685,3.035 77.74,3.177 77.74,3.353L77.74,3.866C77.94,3.499 78.22,3.219 78.579,3.027C78.938,2.835 79.342,2.739 79.793,2.739ZM88.496,7.46C88.613,7.46 88.709,7.506 88.784,7.598C88.859,7.689 88.897,7.806 88.897,7.948C88.897,8.19 88.746,8.395 88.446,8.562C88.154,8.729 87.834,8.858 87.488,8.95C87.141,9.042 86.81,9.088 86.492,9.088C85.524,9.088 84.76,8.806 84.201,8.242C83.642,7.679 83.362,6.909 83.362,5.932C83.362,5.306 83.485,4.751 83.731,4.267C83.978,3.783 84.324,3.407 84.771,3.14C85.217,2.873 85.724,2.739 86.292,2.739C87.11,2.739 87.757,3.002 88.233,3.528C88.709,4.054 88.947,4.763 88.947,5.657C88.947,5.991 88.796,6.158 88.496,6.158L84.627,6.158C84.71,7.451 85.332,8.098 86.492,8.098C86.801,8.098 87.068,8.057 87.294,7.973C87.519,7.89 87.757,7.781 88.007,7.648C88.033,7.631 88.101,7.595 88.214,7.541C88.327,7.487 88.421,7.46 88.496,7.46ZM86.317,3.666C85.833,3.666 85.445,3.82 85.153,4.129C84.86,4.438 84.685,4.872 84.627,5.431L87.857,5.431C87.832,4.864 87.688,4.427 87.425,4.123C87.162,3.818 86.793,3.666 86.317,3.666ZM92.954,9.088C92.361,9.088 91.841,8.958 91.395,8.699C90.948,8.441 90.602,8.073 90.355,7.598C90.109,7.122 89.986,6.571 89.986,5.945C89.986,5.31 90.113,4.751 90.368,4.267C90.622,3.783 90.979,3.407 91.438,3.14C91.898,2.873 92.423,2.739 93.016,2.739C93.333,2.739 93.653,2.785 93.974,2.877C94.295,2.969 94.581,3.094 94.832,3.253C95.099,3.436 95.233,3.649 95.233,3.891C95.233,4.033 95.195,4.152 95.12,4.248C95.045,4.344 94.949,4.392 94.832,4.392C94.757,4.392 94.682,4.373 94.606,4.336C94.531,4.298 94.435,4.242 94.318,4.167C94.11,4.033 93.916,3.931 93.736,3.86C93.557,3.789 93.342,3.753 93.091,3.753C92.524,3.753 92.083,3.945 91.77,4.329C91.457,4.713 91.301,5.248 91.301,5.932C91.301,6.617 91.455,7.145 91.764,7.516C92.073,7.888 92.511,8.073 93.079,8.073C93.329,8.073 93.55,8.036 93.742,7.961C93.934,7.886 94.131,7.785 94.331,7.66C94.423,7.602 94.515,7.552 94.606,7.51C94.698,7.468 94.782,7.447 94.857,7.447C94.974,7.447 95.07,7.495 95.145,7.591C95.22,7.687 95.258,7.806 95.258,7.948C95.258,8.065 95.226,8.171 95.164,8.267C95.101,8.363 94.995,8.462 94.844,8.562C94.594,8.729 94.302,8.858 93.968,8.95C93.634,9.042 93.296,9.088 92.954,9.088ZM99.377,8.098C99.561,8.115 99.692,8.163 99.772,8.242C99.851,8.322 99.891,8.432 99.891,8.574C99.891,8.741 99.826,8.869 99.697,8.956C99.567,9.044 99.377,9.079 99.127,9.063L98.789,9.038C98.113,8.987 97.607,8.781 97.274,8.418C96.94,8.055 96.773,7.518 96.773,6.809L96.773,3.866L96.021,3.866C95.654,3.866 95.47,3.703 95.47,3.378C95.47,3.227 95.518,3.109 95.614,3.021C95.71,2.933 95.846,2.889 96.021,2.889L96.773,2.889L96.773,1.6C96.773,1.408 96.829,1.257 96.942,1.149C97.054,1.04 97.207,0.986 97.399,0.986C97.591,0.986 97.745,1.04 97.862,1.149C97.979,1.257 98.037,1.408 98.037,1.6L98.037,2.889L99.277,2.889C99.452,2.889 99.588,2.933 99.684,3.021C99.78,3.109 99.828,3.227 99.828,3.378C99.828,3.536 99.78,3.657 99.684,3.741C99.588,3.824 99.452,3.866 99.277,3.866L98.037,3.866L98.037,6.896C98.037,7.289 98.119,7.577 98.282,7.76C98.444,7.944 98.693,8.048 99.027,8.073L99.377,8.098ZM105.588,7.46C105.705,7.46 105.801,7.506 105.876,7.598C105.951,7.689 105.989,7.806 105.989,7.948C105.989,8.19 105.838,8.395 105.538,8.562C105.246,8.729 104.926,8.858 104.58,8.95C104.234,9.042 103.902,9.088 103.585,9.088C102.616,9.088 101.852,8.806 101.293,8.242C100.734,7.679 100.454,6.909 100.454,5.932C100.454,5.306 100.577,4.751 100.823,4.267C101.07,3.783 101.416,3.407 101.863,3.14C102.309,2.873 102.817,2.739 103.384,2.739C104.202,2.739 104.849,3.002 105.325,3.528C105.801,4.054 106.039,4.763 106.039,5.657C106.039,5.991 105.889,6.158 105.588,6.158L101.719,6.158C101.802,7.451 102.424,8.098 103.585,8.098C103.893,8.098 104.161,8.057 104.386,7.973C104.611,7.89 104.849,7.781 105.1,7.648C105.125,7.631 105.194,7.595 105.306,7.541C105.419,7.487 105.513,7.46 105.588,7.46ZM103.409,3.666C102.925,3.666 102.537,3.82 102.245,4.129C101.953,4.438 101.777,4.872 101.719,5.431L104.949,5.431C104.924,4.864 104.78,4.427 104.517,4.123C104.254,3.818 103.885,3.666 103.409,3.666ZM112.425,0.11C112.617,0.11 112.771,0.164 112.888,0.272C113.005,0.381 113.063,0.527 113.063,0.711L113.063,8.449C113.063,8.641 113.007,8.791 112.894,8.9C112.782,9.008 112.629,9.063 112.437,9.063C112.245,9.063 112.093,9.008 111.98,8.9C111.868,8.791 111.811,8.641 111.811,8.449L111.811,7.948C111.628,8.315 111.361,8.597 111.01,8.793C110.659,8.99 110.254,9.088 109.795,9.088C109.269,9.088 108.8,8.954 108.387,8.687C107.973,8.42 107.652,8.044 107.422,7.56C107.193,7.076 107.078,6.521 107.078,5.895C107.078,5.26 107.193,4.705 107.422,4.229C107.652,3.753 107.971,3.386 108.38,3.127C108.789,2.869 109.261,2.739 109.795,2.739C110.254,2.739 110.657,2.837 111.004,3.033C111.35,3.23 111.615,3.507 111.799,3.866L111.799,0.686C111.799,0.51 111.855,0.37 111.968,0.266C112.081,0.162 112.233,0.11 112.425,0.11ZM110.096,8.086C110.638,8.086 111.06,7.898 111.361,7.522C111.661,7.147 111.811,6.613 111.811,5.92C111.811,5.227 111.663,4.693 111.367,4.317C111.07,3.941 110.647,3.753 110.096,3.753C109.545,3.753 109.117,3.939 108.812,4.311C108.508,4.682 108.355,5.21 108.355,5.895C108.355,6.579 108.51,7.115 108.819,7.504C109.127,7.892 109.553,8.086 110.096,8.086Z" style="fill:rgb(234,234,234);"/>
</svg>
