<?xml version="1.0" encoding="UTF-8" standalone="no"?>
<!DOCTYPE svg PUBLIC "-//W3C//DTD SVG 1.1//EN" "http://www.w3.org/Graphics/SVG/1.1/DTD/svg11.dtd">
<svg width="100%" height="100%" viewBox="0 0 121 10" version="1.1" xmlns="http://www.w3.org/2000/svg" xmlns:xlink="http://www.w3.org/1999/xlink" xml:space="preserve" xmlns:serif="http://www.serif.com/" style="fill-rule:evenodd;clip-rule:evenodd;stroke-linejoin:round;stroke-miterlimit:1.41421;">
    <path id="_3-SonicWaves-Online" serif:id="3-SonicWaves-Online" d="M4.557,4.467C5.091,4.617 5.496,4.874 5.771,5.237C6.047,5.6 6.184,6.057 6.184,6.608C6.184,7.376 5.915,7.982 5.377,8.424C4.838,8.866 4.11,9.088 3.192,9.088C2.649,9.088 2.129,9 1.633,8.825C1.136,8.649 0.717,8.407 0.374,8.098C0.207,7.965 0.124,7.798 0.124,7.598C0.124,7.447 0.166,7.32 0.249,7.216C0.333,7.111 0.433,7.059 0.55,7.059C0.675,7.059 0.817,7.113 0.975,7.222C1.334,7.489 1.687,7.691 2.033,7.829C2.38,7.967 2.753,8.036 3.154,8.036C4.339,8.036 4.932,7.531 4.932,6.521C4.932,6.028 4.776,5.659 4.463,5.413C4.15,5.166 3.676,5.043 3.041,5.043L2.353,5.043C2.194,5.043 2.069,4.991 1.977,4.887C1.885,4.782 1.839,4.659 1.839,4.517C1.839,4.384 1.885,4.265 1.977,4.16C2.069,4.056 2.194,4.004 2.353,4.004L2.841,4.004C3.45,4.004 3.916,3.877 4.237,3.622C4.559,3.367 4.719,2.994 4.719,2.501C4.719,2.067 4.588,1.729 4.325,1.487C4.062,1.245 3.693,1.124 3.217,1.124C2.515,1.124 1.814,1.395 1.113,1.938C0.954,2.046 0.813,2.101 0.687,2.101C0.57,2.101 0.47,2.048 0.387,1.944C0.303,1.84 0.262,1.712 0.262,1.562C0.262,1.362 0.345,1.195 0.512,1.061C0.854,0.752 1.27,0.51 1.758,0.335C2.246,0.16 2.749,0.072 3.267,0.072C4.093,0.072 4.751,0.277 5.239,0.686C5.727,1.095 5.971,1.65 5.971,2.351C5.971,2.852 5.848,3.288 5.602,3.659C5.356,4.031 5.007,4.3 4.557,4.467ZM14.298,9.1C13.664,9.1 13.061,9.013 12.489,8.837C11.917,8.662 11.46,8.42 11.118,8.111C10.959,7.977 10.88,7.806 10.88,7.598C10.88,7.447 10.922,7.32 11.005,7.216C11.089,7.111 11.189,7.059 11.306,7.059C11.423,7.059 11.565,7.113 11.731,7.222C12.474,7.773 13.322,8.048 14.273,8.048C14.941,8.048 15.455,7.923 15.814,7.673C16.173,7.422 16.352,7.063 16.352,6.596C16.352,6.229 16.185,5.953 15.851,5.769C15.517,5.586 14.983,5.41 14.248,5.243C13.547,5.093 12.971,4.922 12.52,4.73C12.07,4.538 11.717,4.277 11.462,3.947C11.208,3.618 11.08,3.198 11.08,2.689C11.08,2.18 11.22,1.727 11.5,1.33C11.779,0.934 12.17,0.625 12.671,0.404C13.171,0.183 13.743,0.072 14.386,0.072C14.979,0.072 15.526,0.155 16.026,0.322C16.527,0.489 16.953,0.736 17.304,1.061C17.471,1.203 17.554,1.374 17.554,1.575C17.554,1.717 17.51,1.842 17.423,1.95C17.335,2.059 17.233,2.113 17.116,2.113C17.007,2.113 16.87,2.059 16.703,1.95C16.319,1.658 15.958,1.447 15.619,1.318C15.281,1.189 14.874,1.124 14.399,1.124C13.756,1.124 13.255,1.255 12.896,1.518C12.537,1.781 12.358,2.146 12.358,2.614C12.358,3.015 12.516,3.317 12.833,3.522C13.151,3.726 13.66,3.912 14.361,4.079C15.096,4.246 15.69,4.419 16.145,4.599C16.6,4.778 16.963,5.024 17.235,5.337C17.506,5.65 17.642,6.053 17.642,6.546C17.642,7.047 17.502,7.491 17.222,7.879C16.943,8.267 16.55,8.568 16.045,8.781C15.54,8.994 14.958,9.1 14.298,9.1ZM21.736,9.088C21.135,9.088 20.607,8.958 20.152,8.699C19.697,8.441 19.347,8.071 19.101,7.591C18.854,7.111 18.731,6.554 18.731,5.92C18.731,5.277 18.854,4.715 19.101,4.235C19.347,3.755 19.697,3.386 20.152,3.127C20.607,2.869 21.135,2.739 21.736,2.739C22.337,2.739 22.865,2.869 23.32,3.127C23.775,3.386 24.126,3.755 24.372,4.235C24.618,4.715 24.742,5.277 24.742,5.92C24.742,6.554 24.618,7.111 24.372,7.591C24.126,8.071 23.775,8.441 23.32,8.699C22.865,8.958 22.337,9.088 21.736,9.088ZM21.736,8.086C22.296,8.086 22.723,7.902 23.02,7.535C23.316,7.168 23.464,6.629 23.464,5.92C23.464,5.218 23.314,4.682 23.014,4.311C22.713,3.939 22.287,3.753 21.736,3.753C21.185,3.753 20.76,3.939 20.459,4.311C20.159,4.682 20.008,5.218 20.008,5.92C20.008,6.629 20.157,7.168 20.453,7.535C20.749,7.902 21.177,8.086 21.736,8.086ZM29.437,2.739C30.898,2.739 31.629,3.561 31.629,5.206L31.629,8.462C31.629,8.654 31.572,8.802 31.459,8.906C31.347,9.01 31.19,9.063 30.99,9.063C30.798,9.063 30.646,9.008 30.533,8.9C30.42,8.791 30.364,8.645 30.364,8.462L30.364,5.269C30.364,4.751 30.262,4.371 30.057,4.129C29.853,3.887 29.533,3.766 29.099,3.766C28.59,3.766 28.181,3.925 27.872,4.242C27.563,4.559 27.409,4.985 27.409,5.519L27.409,8.462C27.409,8.645 27.352,8.791 27.24,8.9C27.127,9.008 26.975,9.063 26.783,9.063C26.591,9.063 26.436,9.008 26.319,8.9C26.202,8.791 26.144,8.645 26.144,8.462L26.144,3.365C26.144,3.19 26.205,3.046 26.326,2.933C26.447,2.821 26.599,2.764 26.783,2.764C26.966,2.764 27.112,2.818 27.221,2.927C27.329,3.035 27.384,3.177 27.384,3.353L27.384,3.866C27.584,3.499 27.864,3.219 28.223,3.027C28.582,2.835 28.986,2.739 29.437,2.739ZM33.995,9.063C33.811,9.063 33.659,9.013 33.538,8.912C33.417,8.812 33.357,8.662 33.357,8.462L33.357,3.378C33.357,3.177 33.417,3.025 33.538,2.921C33.659,2.816 33.811,2.764 33.995,2.764C34.179,2.764 34.329,2.816 34.446,2.921C34.563,3.025 34.621,3.177 34.621,3.378L34.621,8.462C34.621,8.662 34.563,8.812 34.446,8.912C34.329,9.013 34.179,9.063 33.995,9.063ZM33.995,1.537C33.753,1.537 33.561,1.47 33.419,1.337C33.277,1.203 33.206,1.028 33.206,0.811C33.206,0.594 33.277,0.421 33.419,0.291C33.561,0.162 33.753,0.097 33.995,0.097C34.229,0.097 34.419,0.162 34.565,0.291C34.711,0.421 34.784,0.594 34.784,0.811C34.784,1.028 34.713,1.203 34.571,1.337C34.429,1.47 34.237,1.537 33.995,1.537ZM39.004,9.088C38.411,9.088 37.891,8.958 37.445,8.699C36.998,8.441 36.652,8.073 36.406,7.598C36.159,7.122 36.036,6.571 36.036,5.945C36.036,5.31 36.163,4.751 36.418,4.267C36.673,3.783 37.03,3.407 37.489,3.14C37.948,2.873 38.474,2.739 39.066,2.739C39.384,2.739 39.703,2.785 40.024,2.877C40.346,2.969 40.632,3.094 40.882,3.253C41.149,3.436 41.283,3.649 41.283,3.891C41.283,4.033 41.245,4.152 41.17,4.248C41.095,4.344 40.999,4.392 40.882,4.392C40.807,4.392 40.732,4.373 40.657,4.336C40.582,4.298 40.486,4.242 40.369,4.167C40.16,4.033 39.966,3.931 39.786,3.86C39.607,3.789 39.392,3.753 39.142,3.753C38.574,3.753 38.134,3.945 37.821,4.329C37.507,4.713 37.351,5.248 37.351,5.932C37.351,6.617 37.505,7.145 37.814,7.516C38.123,7.888 38.561,8.073 39.129,8.073C39.379,8.073 39.601,8.036 39.793,7.961C39.985,7.886 40.181,7.785 40.381,7.66C40.473,7.602 40.565,7.552 40.657,7.51C40.749,7.468 40.832,7.447 40.907,7.447C41.024,7.447 41.12,7.495 41.195,7.591C41.27,7.687 41.308,7.806 41.308,7.948C41.308,8.065 41.277,8.171 41.214,8.267C41.151,8.363 41.045,8.462 40.895,8.562C40.644,8.729 40.352,8.858 40.018,8.95C39.684,9.042 39.346,9.088 39.004,9.088ZM53.779,0.498C53.83,0.364 53.905,0.264 54.005,0.197C54.105,0.13 54.218,0.097 54.343,0.097C54.502,0.097 54.641,0.149 54.762,0.254C54.883,0.358 54.944,0.494 54.944,0.661C54.944,0.752 54.927,0.836 54.894,0.911L52.127,8.649C52.068,8.791 51.976,8.9 51.851,8.975C51.726,9.05 51.588,9.088 51.438,9.088C51.296,9.088 51.162,9.05 51.037,8.975C50.912,8.9 50.824,8.791 50.774,8.649L48.495,2.188L46.166,8.649C46.116,8.791 46.029,8.9 45.903,8.975C45.778,9.05 45.645,9.088 45.503,9.088C45.352,9.088 45.217,9.05 45.096,8.975C44.975,8.9 44.885,8.791 44.826,8.649L42.059,0.911C42.026,0.836 42.009,0.752 42.009,0.661C42.009,0.494 42.072,0.358 42.197,0.254C42.322,0.149 42.472,0.097 42.648,0.097C42.773,0.097 42.888,0.13 42.992,0.197C43.096,0.264 43.174,0.364 43.224,0.498L45.54,7.159L47.894,0.56C47.944,0.418 48.026,0.31 48.138,0.235C48.251,0.16 48.374,0.122 48.508,0.122C48.641,0.122 48.762,0.162 48.871,0.241C48.979,0.32 49.063,0.431 49.121,0.573L51.425,7.222L53.779,0.498ZM58.838,2.739C59.648,2.739 60.251,2.944 60.648,3.353C61.044,3.762 61.242,4.384 61.242,5.218L61.242,8.462C61.242,8.654 61.188,8.802 61.08,8.906C60.971,9.01 60.821,9.063 60.629,9.063C60.445,9.063 60.299,9.008 60.191,8.9C60.082,8.791 60.028,8.645 60.028,8.462L60.028,7.998C59.869,8.349 59.633,8.618 59.32,8.806C59.007,8.994 58.642,9.088 58.225,9.088C57.824,9.088 57.457,9.006 57.123,8.843C56.789,8.681 56.528,8.453 56.34,8.161C56.152,7.869 56.058,7.543 56.058,7.184C56.058,6.742 56.173,6.393 56.403,6.139C56.632,5.884 57.012,5.703 57.542,5.594C58.072,5.486 58.801,5.431 59.727,5.431L60.015,5.431L60.015,5.068C60.015,4.601 59.919,4.263 59.727,4.054C59.535,3.845 59.226,3.741 58.801,3.741C58.509,3.741 58.233,3.778 57.974,3.854C57.715,3.929 57.432,4.037 57.123,4.179C56.897,4.304 56.739,4.367 56.647,4.367C56.522,4.367 56.419,4.321 56.34,4.229C56.261,4.137 56.221,4.021 56.221,3.879C56.221,3.753 56.257,3.643 56.328,3.547C56.399,3.451 56.513,3.357 56.672,3.265C56.964,3.106 57.306,2.979 57.699,2.883C58.091,2.787 58.471,2.739 58.838,2.739ZM58.45,8.149C58.909,8.149 59.285,7.992 59.577,7.679C59.869,7.366 60.015,6.963 60.015,6.471L60.015,6.145L59.79,6.145C59.139,6.145 58.638,6.174 58.287,6.233C57.937,6.291 57.686,6.389 57.536,6.527C57.386,6.665 57.311,6.863 57.311,7.122C57.311,7.422 57.419,7.669 57.636,7.861C57.853,8.053 58.125,8.149 58.45,8.149ZM67.315,3.14C67.366,3.015 67.439,2.923 67.535,2.864C67.631,2.806 67.733,2.777 67.841,2.777C68,2.777 68.14,2.831 68.261,2.939C68.382,3.048 68.442,3.177 68.442,3.328C68.442,3.411 68.426,3.49 68.392,3.566L66.001,8.637C65.942,8.77 65.853,8.873 65.731,8.944C65.61,9.015 65.483,9.05 65.35,9.05C65.216,9.05 65.089,9.015 64.968,8.944C64.847,8.873 64.757,8.77 64.698,8.637L62.307,3.566C62.273,3.499 62.257,3.419 62.257,3.328C62.257,3.177 62.323,3.048 62.457,2.939C62.591,2.831 62.741,2.777 62.908,2.777C63.15,2.777 63.329,2.894 63.446,3.127L65.387,7.435L67.315,3.14ZM74.265,7.46C74.382,7.46 74.478,7.506 74.553,7.598C74.628,7.689 74.666,7.806 74.666,7.948C74.666,8.19 74.515,8.395 74.215,8.562C73.923,8.729 73.603,8.858 73.257,8.95C72.911,9.042 72.579,9.088 72.262,9.088C71.293,9.088 70.529,8.806 69.97,8.242C69.411,7.679 69.131,6.909 69.131,5.932C69.131,5.306 69.254,4.751 69.501,4.267C69.747,3.783 70.093,3.407 70.54,3.14C70.986,2.873 71.494,2.739 72.061,2.739C72.879,2.739 73.526,3.002 74.002,3.528C74.478,4.054 74.716,4.763 74.716,5.657C74.716,5.991 74.566,6.158 74.265,6.158L70.396,6.158C70.479,7.451 71.101,8.098 72.262,8.098C72.57,8.098 72.838,8.057 73.063,7.973C73.288,7.89 73.526,7.781 73.777,7.648C73.802,7.631 73.871,7.595 73.983,7.541C74.096,7.487 74.19,7.46 74.265,7.46ZM72.086,3.666C71.602,3.666 71.214,3.82 70.922,4.129C70.63,4.438 70.454,4.872 70.396,5.431L73.626,5.431C73.601,4.864 73.457,4.427 73.194,4.123C72.931,3.818 72.562,3.666 72.086,3.666ZM78.234,9.088C77.383,9.088 76.686,8.912 76.143,8.562C75.993,8.47 75.887,8.374 75.824,8.274C75.761,8.174 75.73,8.061 75.73,7.936C75.73,7.802 75.768,7.689 75.843,7.598C75.918,7.506 76.014,7.46 76.131,7.46C76.239,7.46 76.41,7.527 76.644,7.66C76.895,7.794 77.139,7.902 77.377,7.986C77.615,8.069 77.913,8.111 78.272,8.111C78.673,8.111 78.986,8.04 79.211,7.898C79.437,7.756 79.549,7.556 79.549,7.297C79.549,7.13 79.505,6.997 79.418,6.896C79.33,6.796 79.178,6.706 78.961,6.627C78.744,6.548 78.422,6.462 77.997,6.37C77.262,6.212 76.734,5.997 76.413,5.726C76.091,5.454 75.93,5.085 75.93,4.617C75.93,4.258 76.035,3.935 76.243,3.647C76.452,3.359 76.74,3.136 77.107,2.977C77.475,2.818 77.892,2.739 78.36,2.739C78.694,2.739 79.019,2.783 79.336,2.871C79.654,2.958 79.933,3.086 80.175,3.253C80.451,3.436 80.589,3.649 80.589,3.891C80.589,4.025 80.549,4.137 80.47,4.229C80.39,4.321 80.296,4.367 80.188,4.367C80.113,4.367 80.038,4.35 79.962,4.317C79.887,4.283 79.787,4.229 79.662,4.154C79.437,4.021 79.226,3.916 79.03,3.841C78.833,3.766 78.589,3.728 78.297,3.728C77.946,3.728 77.665,3.803 77.452,3.954C77.239,4.104 77.133,4.309 77.133,4.567C77.133,4.801 77.231,4.983 77.427,5.112C77.623,5.241 77.992,5.365 78.535,5.481C79.094,5.598 79.533,5.732 79.85,5.882C80.167,6.032 80.394,6.218 80.532,6.439C80.67,6.661 80.739,6.942 80.739,7.285C80.739,7.827 80.511,8.263 80.056,8.593C79.601,8.923 78.994,9.088 78.234,9.088ZM89.391,9.1C88.557,9.1 87.832,8.917 87.219,8.549C86.605,8.182 86.131,7.66 85.798,6.984C85.464,6.308 85.297,5.511 85.297,4.592C85.297,3.666 85.462,2.862 85.791,2.182C86.121,1.502 86.595,0.98 87.213,0.617C87.83,0.254 88.557,0.072 89.391,0.072C90.234,0.072 90.965,0.254 91.583,0.617C92.2,0.98 92.674,1.502 93.004,2.182C93.334,2.862 93.498,3.662 93.498,4.58C93.498,5.498 93.334,6.297 93.004,6.978C92.674,7.658 92.2,8.182 91.583,8.549C90.965,8.917 90.234,9.1 89.391,9.1ZM89.391,8.048C90.276,8.048 90.965,7.748 91.457,7.147C91.95,6.546 92.196,5.69 92.196,4.58C92.196,3.47 91.952,2.616 91.464,2.019C90.975,1.422 90.285,1.124 89.391,1.124C88.515,1.124 87.832,1.422 87.344,2.019C86.856,2.616 86.611,3.47 86.611,4.58C86.611,5.69 86.856,6.546 87.344,7.147C87.832,7.748 88.515,8.048 89.391,8.048ZM98.394,2.739C99.855,2.739 100.586,3.561 100.586,5.206L100.586,8.462C100.586,8.654 100.529,8.802 100.417,8.906C100.304,9.01 100.147,9.063 99.947,9.063C99.755,9.063 99.603,9.008 99.49,8.9C99.377,8.791 99.321,8.645 99.321,8.462L99.321,5.269C99.321,4.751 99.219,4.371 99.014,4.129C98.81,3.887 98.49,3.766 98.056,3.766C97.547,3.766 97.138,3.925 96.829,4.242C96.52,4.559 96.366,4.985 96.366,5.519L96.366,8.462C96.366,8.645 96.31,8.791 96.197,8.9C96.084,9.008 95.932,9.063 95.74,9.063C95.548,9.063 95.393,9.008 95.277,8.9C95.16,8.791 95.101,8.645 95.101,8.462L95.101,3.365C95.101,3.19 95.162,3.046 95.283,2.933C95.404,2.821 95.556,2.764 95.74,2.764C95.923,2.764 96.07,2.818 96.178,2.927C96.287,3.035 96.341,3.177 96.341,3.353L96.341,3.866C96.541,3.499 96.821,3.219 97.18,3.027C97.539,2.835 97.944,2.739 98.394,2.739ZM102.952,9.063C102.769,9.063 102.616,9.013 102.495,8.912C102.374,8.812 102.314,8.662 102.314,8.462L102.314,0.723C102.314,0.523 102.374,0.37 102.495,0.266C102.616,0.162 102.769,0.11 102.952,0.11C103.136,0.11 103.286,0.162 103.403,0.266C103.52,0.37 103.578,0.523 103.578,0.723L103.578,8.462C103.578,8.662 103.52,8.812 103.403,8.912C103.286,9.013 103.136,9.063 102.952,9.063ZM105.983,9.063C105.799,9.063 105.647,9.013 105.526,8.912C105.405,8.812 105.344,8.662 105.344,8.462L105.344,3.378C105.344,3.177 105.405,3.025 105.526,2.921C105.647,2.816 105.799,2.764 105.983,2.764C106.166,2.764 106.317,2.816 106.433,2.921C106.55,3.025 106.609,3.177 106.609,3.378L106.609,8.462C106.609,8.662 106.55,8.812 106.433,8.912C106.317,9.013 106.166,9.063 105.983,9.063ZM105.983,1.537C105.741,1.537 105.549,1.47 105.407,1.337C105.265,1.203 105.194,1.028 105.194,0.811C105.194,0.594 105.265,0.421 105.407,0.291C105.549,0.162 105.741,0.097 105.983,0.097C106.216,0.097 106.406,0.162 106.552,0.291C106.698,0.421 106.771,0.594 106.771,0.811C106.771,1.028 106.701,1.203 106.559,1.337C106.417,1.47 106.225,1.537 105.983,1.537ZM111.667,2.739C113.128,2.739 113.859,3.561 113.859,5.206L113.859,8.462C113.859,8.654 113.802,8.802 113.69,8.906C113.577,9.01 113.421,9.063 113.22,9.063C113.028,9.063 112.876,9.008 112.763,8.9C112.65,8.791 112.594,8.645 112.594,8.462L112.594,5.269C112.594,4.751 112.492,4.371 112.287,4.129C112.083,3.887 111.763,3.766 111.329,3.766C110.82,3.766 110.411,3.925 110.102,4.242C109.793,4.559 109.639,4.985 109.639,5.519L109.639,8.462C109.639,8.645 109.583,8.791 109.47,8.9C109.357,9.008 109.205,9.063 109.013,9.063C108.821,9.063 108.666,9.008 108.55,8.9C108.433,8.791 108.374,8.645 108.374,8.462L108.374,3.365C108.374,3.19 108.435,3.046 108.556,2.933C108.677,2.821 108.829,2.764 109.013,2.764C109.197,2.764 109.343,2.818 109.451,2.927C109.56,3.035 109.614,3.177 109.614,3.353L109.614,3.866C109.814,3.499 110.094,3.219 110.453,3.027C110.812,2.835 111.217,2.739 111.667,2.739ZM120.37,7.46C120.487,7.46 120.583,7.506 120.658,7.598C120.733,7.689 120.771,7.806 120.771,7.948C120.771,8.19 120.621,8.395 120.32,8.562C120.028,8.729 119.709,8.858 119.362,8.95C119.016,9.042 118.684,9.088 118.367,9.088C117.398,9.088 116.634,8.806 116.075,8.242C115.516,7.679 115.236,6.909 115.236,5.932C115.236,5.306 115.359,4.751 115.606,4.267C115.852,3.783 116.198,3.407 116.645,3.14C117.091,2.873 117.599,2.739 118.166,2.739C118.984,2.739 119.631,3.002 120.107,3.528C120.583,4.054 120.821,4.763 120.821,5.657C120.821,5.991 120.671,6.158 120.37,6.158L116.501,6.158C116.584,7.451 117.206,8.098 118.367,8.098C118.675,8.098 118.943,8.057 119.168,7.973C119.393,7.89 119.631,7.781 119.882,7.648C119.907,7.631 119.976,7.595 120.088,7.541C120.201,7.487 120.295,7.46 120.37,7.46ZM118.191,3.666C117.707,3.666 117.319,3.82 117.027,4.129C116.735,4.438 116.559,4.872 116.501,5.431L119.731,5.431C119.706,4.864 119.562,4.427 119.299,4.123C119.037,3.818 118.667,3.666 118.191,3.666Z" style="fill:rgb(234,234,234);"/>
</svg>
