<?xml version="1.0" encoding="UTF-8" standalone="no"?><!DOCTYPE svg PUBLIC "-//W3C//DTD SVG 1.1//EN" "http://www.w3.org/Graphics/SVG/1.1/DTD/svg11.dtd"><svg width="100%" height="100%" viewBox="0 0 60 26" version="1.1" xmlns="http://www.w3.org/2000/svg" xmlns:xlink="http://www.w3.org/1999/xlink" xml:space="preserve" xmlns:serif="http://www.serif.com/" style="fill-rule:evenodd;clip-rule:evenodd;"><g id="Group-43"><g id="Group-14"><g id="Group-10"><ellipse id="Oval" cx="29.334" cy="14.152" rx="55.934" ry="56.043" style="fill:none;stroke:#f76363;stroke-width:8.96px;"/><path id="Path" d="M-5.57,-30.682c-12.819,10.377 -21.03,26.343 -21.03,44.251c0,31.274 25.043,56.626 55.934,56.626c30.892,0 55.935,-25.352 55.935,-56.626" style="fill:none;stroke:#acd52e;stroke-width:8.96px;stroke-linecap:round;stroke-linejoin:round;"/><g id="_68-" serif:id="68%"><path d="M9.091,11.094c1.158,0 2.19,0.253 3.095,0.76c0.905,0.507 1.611,1.222 2.118,2.145c0.507,0.923 0.76,1.982 0.76,3.177c0,1.176 -0.262,2.235 -0.787,3.177c-0.525,0.941 -1.258,1.674 -2.2,2.199c-0.941,0.525 -2,0.787 -3.176,0.787c-2.317,0 -4.105,-0.805 -5.363,-2.416c-1.258,-1.611 -1.887,-3.91 -1.887,-6.897c0,-2.136 0.29,-3.973 0.869,-5.512c0.579,-1.538 1.421,-2.715 2.525,-3.529c1.104,-0.815 2.417,-1.222 3.937,-1.222c1.032,0 2.059,0.199 3.082,0.597c1.022,0.399 1.896,0.942 2.62,1.629c0.308,0.29 0.461,0.598 0.461,0.924c0,0.271 -0.072,0.497 -0.217,0.678c-0.145,0.181 -0.317,0.272 -0.516,0.272c-0.253,0 -0.516,-0.1 -0.787,-0.299c-1.575,-1.285 -3.104,-1.928 -4.589,-1.928c-1.611,0 -2.869,0.734 -3.774,2.2c-0.905,1.466 -1.357,3.52 -1.357,6.163l0,0.353c0.416,-1.014 1.09,-1.81 2.023,-2.389c0.932,-0.58 1.986,-0.869 3.163,-0.869Zm-0.299,10.372c1.231,0 2.217,-0.389 2.96,-1.168c0.742,-0.778 1.113,-1.81 1.113,-3.095c0,-1.285 -0.376,-2.312 -1.127,-3.082c-0.751,-0.769 -1.742,-1.154 -2.973,-1.154c-1.249,0 -2.267,0.394 -3.055,1.181c-0.787,0.788 -1.181,1.806 -1.181,3.055c0,1.267 0.394,2.294 1.181,3.082c0.788,0.787 1.815,1.181 3.082,1.181Z" style="fill:#fff;fill-rule:nonzero;"/><path d="M27.88,13.293c1.122,0.344 1.995,0.932 2.62,1.765c0.624,0.833 0.936,1.828 0.936,2.987c0,1.647 -0.597,2.937 -1.792,3.869c-1.194,0.932 -2.887,1.398 -5.077,1.398c-2.19,0 -3.883,-0.466 -5.077,-1.398c-1.195,-0.932 -1.792,-2.222 -1.792,-3.869c0,-1.177 0.316,-2.182 0.95,-3.014c0.634,-0.833 1.511,-1.412 2.634,-1.738c-0.96,-0.362 -1.72,-0.932 -2.281,-1.71c-0.561,-0.779 -0.842,-1.693 -0.842,-2.743c0,-1.556 0.566,-2.792 1.697,-3.706c1.132,-0.914 2.702,-1.371 4.711,-1.371c2.009,0 3.58,0.457 4.711,1.371c1.131,0.914 1.697,2.15 1.697,3.706c0,1.05 -0.281,1.969 -0.842,2.756c-0.561,0.788 -1.312,1.353 -2.253,1.697Zm-7.521,-4.29c0,1.122 0.357,1.982 1.072,2.58c0.715,0.597 1.76,0.896 3.136,0.896c1.376,0 2.421,-0.299 3.136,-0.896c0.715,-0.598 1.073,-1.458 1.073,-2.58c0,-1.068 -0.358,-1.9 -1.073,-2.498c-0.715,-0.597 -1.76,-0.896 -3.136,-0.896c-1.376,0 -2.421,0.299 -3.136,0.896c-0.715,0.598 -1.072,1.43 -1.072,2.498Zm4.208,12.463c3.113,0 4.67,-1.186 4.67,-3.557c0,-2.371 -1.557,-3.557 -4.67,-3.557c-3.113,0 -4.67,1.186 -4.67,3.557c0,2.371 1.557,3.557 4.67,3.557Z" style="fill:#fff;fill-rule:nonzero;"/><path d="M40.939,22.986c-0.235,0.398 -0.534,0.598 -0.896,0.598c-0.235,0 -0.439,-0.082 -0.611,-0.245c-0.171,-0.163 -0.257,-0.38 -0.257,-0.651c0,-0.218 0.063,-0.426 0.19,-0.625l10.371,-17.947c0.236,-0.398 0.534,-0.597 0.896,-0.597c0.236,0 0.439,0.086 0.611,0.258c0.172,0.171 0.258,0.384 0.258,0.638c0,0.199 -0.054,0.407 -0.163,0.624l-10.399,17.947Zm-2.117,-7.521c-1.449,0 -2.58,-0.493 -3.394,-1.479c-0.815,-0.987 -1.222,-2.449 -1.222,-4.385c0,-1.919 0.407,-3.372 1.222,-4.358c0.814,-0.987 1.945,-1.48 3.394,-1.48c1.448,0 2.579,0.493 3.394,1.48c0.814,0.986 1.221,2.439 1.221,4.358c0,1.936 -0.407,3.398 -1.221,4.385c-0.815,0.986 -1.946,1.479 -3.394,1.479Zm0,-1.575c0.887,0 1.543,-0.343 1.968,-1.031c0.425,-0.688 0.638,-1.774 0.638,-3.258c0,-1.467 -0.213,-2.544 -0.638,-3.231c-0.425,-0.688 -1.081,-1.032 -1.968,-1.032c-0.887,0 -1.548,0.344 -1.982,1.032c-0.435,0.687 -0.652,1.764 -0.652,3.231c0,1.484 0.217,2.57 0.652,3.258c0.434,0.688 1.095,1.031 1.982,1.031Zm13.032,9.422c-1.448,0 -2.579,-0.493 -3.394,-1.48c-0.814,-0.986 -1.221,-2.448 -1.221,-4.385c0,-1.918 0.407,-3.371 1.221,-4.357c0.815,-0.987 1.946,-1.48 3.394,-1.48c1.466,0 2.602,0.488 3.408,1.466c0.805,0.977 1.208,2.435 1.208,4.371c0,1.937 -0.403,3.399 -1.208,4.385c-0.806,0.987 -1.942,1.48 -3.408,1.48Zm0,-1.575c0.905,0 1.571,-0.339 1.996,-1.018c0.425,-0.679 0.638,-1.769 0.638,-3.272c0,-1.466 -0.217,-2.543 -0.652,-3.231c-0.434,-0.688 -1.095,-1.031 -1.982,-1.031c-0.887,0 -1.543,0.343 -1.968,1.031c-0.426,0.688 -0.638,1.765 -0.638,3.231c0,1.485 0.212,2.571 0.638,3.259c0.425,0.687 1.081,1.031 1.968,1.031Z" style="fill:#fff;fill-rule:nonzero;"/></g></g></g></g></svg>