<?xml version="1.0" encoding="UTF-8" standalone="no"?><!DOCTYPE svg PUBLIC "-//W3C//DTD SVG 1.1//EN" "http://www.w3.org/Graphics/SVG/1.1/DTD/svg11.dtd"><svg width="100%" height="100%" viewBox="0 0 41 17" version="1.1" xmlns="http://www.w3.org/2000/svg" xmlns:xlink="http://www.w3.org/1999/xlink" xml:space="preserve" xmlns:serif="http://www.serif.com/" style="fill-rule:evenodd;clip-rule:evenodd;stroke-linejoin:round;stroke-miterlimit:1.41421;"><g id="Group-124"><g id="Group-120"><path id="APs" d="M16.843,15.158c0.047,0.095 0.071,0.197 0.071,0.304c0,0.18 -0.068,0.329 -0.206,0.448c-0.137,0.12 -0.301,0.18 -0.493,0.18c-0.298,0 -0.507,-0.144 -0.627,-0.43l-1.272,-2.904l-6.756,0l-1.29,2.904c-0.12,0.286 -0.329,0.43 -0.627,0.43c-0.192,0 -0.359,-0.063 -0.502,-0.189c-0.144,-0.125 -0.215,-0.277 -0.215,-0.457c0,-0.095 0.024,-0.191 0.071,-0.286l5.126,-11.397c0.071,-0.168 0.179,-0.293 0.322,-0.377c0.143,-0.083 0.299,-0.125 0.466,-0.125c0.179,0 0.341,0.045 0.484,0.134c0.143,0.09 0.251,0.212 0.322,0.368l5.126,11.397Zm-8.745,-3.62l5.68,0l-2.849,-6.433l-2.831,6.433Zm11.63,4.552c-0.227,0 -0.407,-0.069 -0.538,-0.206c-0.131,-0.138 -0.197,-0.32 -0.197,-0.547l0,-11.254c0,-0.215 0.069,-0.388 0.206,-0.519c0.137,-0.132 0.32,-0.198 0.547,-0.198l4.247,0c1.326,0 2.356,0.323 3.091,0.968c0.735,0.645 1.102,1.559 1.102,2.742c0,1.183 -0.37,2.102 -1.111,2.76c-0.741,0.657 -1.768,0.985 -3.082,0.985l-3.531,0l0,4.516c0,0.227 -0.065,0.409 -0.197,0.547c-0.131,0.137 -0.31,0.206 -0.537,0.206Zm4.121,-6.487c1.924,0 2.885,-0.843 2.885,-2.527c0,-1.661 -0.961,-2.491 -2.885,-2.491l-3.387,0l0,5.018l3.387,0Zm9.426,6.522c-0.549,0 -1.072,-0.065 -1.568,-0.197c-0.496,-0.131 -0.935,-0.316 -1.317,-0.555c-0.215,-0.144 -0.367,-0.278 -0.457,-0.403c-0.089,-0.126 -0.134,-0.278 -0.134,-0.457c0,-0.156 0.045,-0.284 0.134,-0.386c0.09,-0.101 0.206,-0.152 0.35,-0.152c0.143,0 0.352,0.09 0.627,0.269c0.358,0.215 0.714,0.385 1.066,0.511c0.352,0.125 0.791,0.188 1.317,0.188c0.645,0 1.147,-0.114 1.505,-0.341c0.359,-0.227 0.538,-0.555 0.538,-0.985c0,-0.263 -0.066,-0.475 -0.197,-0.637c-0.132,-0.161 -0.359,-0.304 -0.681,-0.43c-0.323,-0.125 -0.795,-0.253 -1.416,-0.385c-1.051,-0.227 -1.804,-0.532 -2.258,-0.914c-0.454,-0.382 -0.681,-0.902 -0.681,-1.559c0,-0.514 0.144,-0.968 0.43,-1.362c0.287,-0.394 0.684,-0.705 1.192,-0.932c0.508,-0.227 1.084,-0.34 1.729,-0.34c0.466,0 0.917,0.063 1.353,0.188c0.436,0.126 0.822,0.302 1.156,0.529c0.406,0.286 0.609,0.585 0.609,0.896c0,0.155 -0.047,0.286 -0.143,0.394c-0.095,0.107 -0.209,0.161 -0.34,0.161c-0.144,0 -0.359,-0.101 -0.645,-0.304c-0.335,-0.215 -0.652,-0.383 -0.95,-0.502c-0.299,-0.12 -0.669,-0.179 -1.111,-0.179c-0.562,0 -1.013,0.125 -1.353,0.376c-0.341,0.251 -0.511,0.585 -0.511,1.003c0,0.263 0.063,0.475 0.188,0.637c0.126,0.161 0.335,0.304 0.627,0.43c0.293,0.125 0.714,0.248 1.264,0.367c0.812,0.179 1.442,0.376 1.89,0.591c0.448,0.215 0.768,0.478 0.959,0.789c0.191,0.311 0.287,0.705 0.287,1.183c0,0.752 -0.317,1.359 -0.95,1.819c-0.633,0.459 -1.469,0.689 -2.509,0.689Z" style="fill:#8d8d8d;"/></g></g></svg>