<?xml version="1.0" encoding="UTF-8"?>
<svg width="105px" height="108px" viewBox="0 0 105 108" version="1.1" xmlns="http://www.w3.org/2000/svg" xmlns:xlink="http://www.w3.org/1999/xlink">
    <!-- Generator: Sketch 52.5 (67469) - http://www.bohemiancoding.com/sketch -->
    <title>Arrow Orange Set 3</title>
    <desc>Created with Sketch.</desc>
    <g id="Page-1" stroke="none" stroke-width="1" fill="none" fill-rule="evenodd">
        <g id="Arrow-Orange-Set-3" transform="translate(-1.000000, -244.000000)" fill="#FF7918">
            <polygon id="Arrow-Orange-12" transform="translate(38.607639, 342.059770) rotate(10.000000) translate(-38.607639, -342.059770) " points="0.559775072 341.997409 54.6850869 335.507397 54.6368685 340.483461 76.6555028 340.483461 76.6555028 343.530162 54.6368685 343.530162 54.6368685 348.612143"></polygon>
            <polygon id="Arrow-Orange-11" transform="translate(50.589499, 311.701642) rotate(8.000000) translate(-50.589499, -311.701642) " points="12.5416349 311.639281 66.6669467 305.149269 66.6187283 310.125333 88.6373626 310.125333 88.6373626 313.172034 66.6187283 313.172034 66.6187283 318.254015"></polygon>
            <polygon id="Arrow-Orange-10" transform="translate(60.524343, 280.493563) rotate(6.000000) translate(-60.524343, -280.493563) " points="22.4764793 280.431202 76.6017911 273.94119 76.5535727 278.917254 98.5722071 278.917254 98.5722071 281.963955 76.5535727 281.963955 76.5535727 287.045936"></polygon>
            <polygon id="Arrow-Orange-9" transform="translate(67.474157, 249.843529) rotate(5.000000) translate(-67.474157, -249.843529) " points="29.4262933 249.781168 83.5516051 243.291156 83.5033868 248.26722 105.522021 248.26722 105.522021 251.313921 83.5033868 251.313921 83.5033868 256.395902"></polygon>
        </g>
    </g>
</svg>