<?xml version="1.0" encoding="UTF-8"?>
<svg width="300px" height="300px" viewBox="0 0 300 300" version="1.1" xmlns="http://www.w3.org/2000/svg" xmlns:xlink="http://www.w3.org/1999/xlink">
    <!-- Generator: Sketch 52.5 (67469) - http://www.bohemiancoding.com/sketch -->
    <title>Artboard</title>
    <desc>Created with Sketch.</desc>
    <g id="Artboard" stroke="none" stroke-width="1" fill="none" fill-rule="evenodd">
        <g id="NS_v---Color---OnBlack" transform="translate(50.000000, 32.000000)">
            <g id="NS-Shield---Color---OnBlack">
                <path d="M92.9409091,0 L171.750733,44.5387966 C172.979394,45.1395126 173.94477,46.0834948 174.646862,47.3707433 C175.348954,48.6579917 175.7,50.0310567 175.7,51.5757549 L175.7,113.192048 C175.7,125.635449 174.032532,137.649768 170.697595,149.320821 C167.274896,160.820241 162.448014,171.547311 156.216948,181.502033 C149.985882,191.456754 142.438393,200.29586 133.574482,208.019351 C124.798332,215.742842 114.969045,221.921634 103.998858,226.641545 C99.2597368,228.786959 95.749277,230.417474 93.3797166,231.447273 L92.9409091,0 Z M163.325629,134.903638 C163.325629,127.265964 161.833684,120.829722 158.762031,115.766545 C155.77814,110.617551 151.477827,106.755805 146.036614,104.009675 C144.544669,103.237326 143.052723,102.550794 141.648539,101.864261 C140.244356,101.177729 138.840172,100.577013 137.435988,99.9762969 C136.031804,99.3755809 134.715381,98.774865 133.223436,98.0883325 C131.819252,97.4018 130.327306,96.7152675 128.659838,95.8571018 C124.535048,93.7975043 121.200111,91.0513743 118.655027,87.6187117 C116.109944,84.1860491 114.793522,79.5519547 114.793522,73.8880615 C114.793522,70.1979492 115.232329,66.9369198 116.197706,64.1049732 C117.163082,61.2730266 118.391743,58.8701628 120.059211,56.8963818 C121.72668,54.9226009 123.657433,53.4637193 125.85147,52.5197371 C128.045508,51.5757549 130.415068,51.0608555 132.960151,51.0608555 C136.119565,51.0608555 138.927933,51.9190211 141.560778,53.6353524 C144.193623,55.3516837 146.475422,57.5829143 148.406175,60.3290444 C150.336928,63.0751744 152.179919,66.2503873 153.759626,69.6830499 C155.251571,73.201529 156.567994,76.7200081 157.53337,80.3243038 L158.849793,80.3243038 L158.849793,50.374323 L157.53337,50.374323 C156.91904,51.6615714 156.216948,52.9488199 155.427094,54.2360684 C154.637241,55.5233168 154.198433,56.2098493 153.935149,56.2098493 C153.847387,56.2098493 153.40858,55.7807665 152.530965,55.0084174 C151.65335,54.2360684 150.424689,53.2920862 148.757221,52.348104 C147.089752,51.4041218 144.983476,50.4601395 142.438393,49.6877905 C139.89331,48.9154414 136.733896,48.4863586 133.135674,48.4863586 C129.274169,48.4863586 125.588186,49.1728911 122.077726,50.5459561 C118.567266,51.9190211 115.495614,53.9786187 112.862769,56.8105653 C110.229924,59.6425119 108.123648,63.160991 106.543941,67.3660026 C104.964234,71.5710143 104.174381,76.548375 104.174381,82.3839013 C104.174381,85.8165639 104.613188,89.0775933 105.490803,92.1669896 C106.368418,95.2563859 107.509317,98.0883325 109.001263,100.577013 C110.493208,103.15151 112.160677,105.296924 114.09143,107.184888 C116.022183,109.072853 118.040697,110.531734 120.146973,111.64735 C121.989964,112.591332 123.569671,113.363681 124.886094,113.964397 C126.202516,114.565113 127.518939,115.165829 128.7476,115.766545 C129.97626,116.367261 131.380444,116.967977 132.784628,117.654509 C134.188812,118.341042 135.944042,119.113391 137.874795,120.057373 C139.805548,121.001355 141.648539,122.11697 143.316008,123.318402 C144.983476,124.519834 146.475422,125.892899 147.704083,127.60923 C148.932744,129.239745 149.89812,131.213526 150.687974,133.530573 C151.390066,135.761804 151.741112,138.422118 151.741112,141.425697 C151.741112,148.891738 149.89812,154.813081 146.212137,159.189726 C142.526154,163.566371 137.699272,165.711785 131.73149,165.711785 C129.625214,165.711785 127.431177,165.196885 125.23714,164.252903 C122.955341,163.308921 121.200111,162.279122 119.795927,161.33514 C118.391743,160.391158 116.987559,158.932276 115.495614,157.130128 C114.003668,155.327981 112.599484,153.182566 111.283062,150.779703 C109.966639,148.376839 108.737978,145.802342 107.597079,142.970395 C106.45618,140.138449 105.578565,137.392319 104.788711,134.474556 L103.56005,134.474556 L103.911096,166.655767 L104.964234,166.655767 C105.578565,165.454335 106.368418,164.252903 107.158271,162.965655 C107.948125,161.678406 108.474694,160.991874 108.737978,160.991874 C109.001263,160.991874 109.527832,161.33514 110.493208,162.107489 C111.458585,162.879838 112.775007,163.738004 114.70576,164.596169 C116.548752,165.540152 118.918312,166.312501 121.72668,166.913217 C124.535048,167.599749 127.957746,167.857199 131.907013,167.857199 C136.470611,167.857199 140.770925,167.170666 144.63243,165.711785 C148.493936,164.33872 151.828873,162.193306 154.637241,159.275543 C157.445609,156.357779 159.551885,152.8393 161.131592,148.720105 C162.711299,144.60091 163.325629,140.138449 163.325629,134.903638 Z" id="NS-Shield" fill="#FF791A" fill-rule="nonzero"></path>
                <path d="M4.94186426,149.034907 C1.58845637,137.438531 0,125.069064 0,112.871394 L0,49.6496694 C0,48.103486 0.352990304,46.7291007 1.05897091,45.4406144 C1.76495152,44.1521282 2.73567486,43.2072383 3.97114092,42.6059447 C13.6783743,37.3661007 21.0029231,33.500642 25.8565398,30.8377705 L71.392289,168.533999 L71.392289,6.78602748 C72.6277551,6.27063299 81.0995224,1.20258715 83.482207,0 L83.5704545,230.896733 C83.1292167,231.583925 82.5997312,231.498026 82.0702458,231.326228 C81.5407603,231.15443 81.0112748,230.982632 80.570037,230.896733 L70.0685754,226.086384 C67.4211481,224.883797 64.7737208,223.509412 62.2145411,222.135026 C36.6227441,145.513045 20.0321998,95.6915774 12.4429082,72.5847244 C12.0899179,71.3821372 12.0899179,103.422495 12.4429082,168.619898 C7.94228185,157.710715 5.47134972,151.182384 4.94186426,149.034907 Z" id="Path_8_-path" fill="#FFFFFF" fill-rule="evenodd"></path>
            </g>
            <g id="v---White" transform="translate(171.752727, 157.195636)" fill="#FFFFFF" fill-rule="evenodd">
                <path d="M0,52.9485283 C0,50.3788551 0.437932728,41.5203776 1.31381132,26.3728302 C1.45979109,23.532665 1.67875745,21.5716281 1.97071698,20.4896604 C2.26267651,19.4076927 2.88308121,18.5286072 3.83194969,17.8523774 C4.78081816,17.1761476 6.27708831,16.8380377 8.32080503,16.8380377 C10.802461,16.8380377 12.37172,17.2775805 13.0286289,18.1566792 C13.6855379,19.035778 14.0139874,20.7601381 14.0139874,23.3298113 C14.0139874,26.1699765 13.6855379,31.4106788 13.0286289,39.0520755 C12.37172,46.6934722 12.0432704,52.3399063 12.0432704,55.9915472 C12.0432704,63.5653209 13.7220126,67.3521509 17.0795472,67.3521509 C21.8968794,67.3521509 27.7359825,62.7876683 34.5970314,53.658566 C41.4580804,44.5294638 47.6621274,34.284736 53.2093585,22.9240755 C53.7932776,7.64128208 57.1507618,0 63.2819119,0 C65.763568,0 67.6977708,0.845274566 69.0845786,2.53584906 C70.4713864,4.22642355 71.1647799,5.95078366 71.1647799,7.70898113 C71.1647799,8.92619477 70.5443752,10.5829329 69.3035472,12.6792453 C68.0627192,14.7755577 66.7854154,17.6833022 65.4715975,21.402566 C64.1577796,25.1218299 55.7640011,47.8092731 53.8662642,34.6904151 C47.8810938,45.7805838 41.0566421,55.3152809 33.3927044,63.2947925 C25.7287667,71.274304 18.6123599,75.264 12.0432704,75.264 C4.01438334,75.264 0,67.8255838 0,52.9485283 Z" id="v"></path>
            </g>
        </g>
    </g>
</svg>