<?xml version="1.0" encoding="UTF-8"?>
<svg width="1555px" height="1133px" viewBox="0 0 1555 1133" version="1.1" xmlns="http://www.w3.org/2000/svg" xmlns:xlink="http://www.w3.org/1999/xlink">
    <!-- Generator: Sketch 52.5 (67469) - http://www.bohemiancoding.com/sketch -->
    <title>Artboard Copy 45</title>
    <desc>Created with Sketch.</desc>
    <g id="Artboard-Copy-45" stroke="none" stroke-width="1" fill="none" fill-rule="evenodd">
        <rect fill="#FFFFFF" x="0" y="0" width="1555" height="1133"></rect>
        <g id="Group-2" transform="translate(684.000000, 850.000000)">
            <rect id="Rectangle" fill="#FF8D20" fill-rule="nonzero" x="0" y="0" width="188" height="243" rx="16"></rect>
            <g id="Group" transform="translate(0.000000, 16.000000)">
                <rect id="Rectangle" fill="#656565" fill-rule="nonzero" x="0" y="49" width="188" height="132"></rect>
                <path d="M20.212,210.12 C19.9079985,210.12 19.6640009,210.028001 19.48,209.844 C19.2959991,209.659999 19.204,209.416002 19.204,209.112 L19.204,194.76 L14.044,194.76 C13.7559986,194.76 13.5320008,194.688001 13.372,194.544 C13.2119992,194.399999 13.132,194.192001 13.132,193.92 C13.132,193.647999 13.2119992,193.440001 13.372,193.296 C13.5320008,193.151999 13.7559986,193.08 14.044,193.08 L26.356,193.08 C26.6440014,193.08 26.8679992,193.151999 27.028,193.296 C27.1880008,193.440001 27.268,193.647999 27.268,193.92 C27.268,194.192001 27.1880008,194.399999 27.028,194.544 C26.8679992,194.688001 26.6440014,194.76 26.356,194.76 L21.196,194.76 L21.196,209.112 C21.196,209.416002 21.1080009,209.659999 20.932,209.844 C20.7559991,210.028001 20.5160015,210.12 20.212,210.12 Z M30.484,210 C30.1799985,210 29.9360009,209.912001 29.752,209.736 C29.5679991,209.559999 29.476,209.328001 29.476,209.04 L29.476,194.04 C29.476,193.751999 29.5679991,193.520001 29.752,193.344 C29.9360009,193.167999 30.1799985,193.08 30.484,193.08 L39.46,193.08 C39.7480014,193.08 39.9719992,193.151999 40.132,193.296 C40.2920008,193.440001 40.372,193.639999 40.372,193.896 C40.372,194.152001 40.2920008,194.351999 40.132,194.496 C39.9719992,194.640001 39.7480014,194.712 39.46,194.712 L31.42,194.712 L31.42,200.592 L38.98,200.592 C39.2680014,200.592 39.4919992,200.663999 39.652,200.808 C39.8120008,200.952001 39.892,201.151999 39.892,201.408 C39.892,201.664001 39.8120008,201.863999 39.652,202.008 C39.4919992,202.152001 39.2680014,202.224 38.98,202.224 L31.42,202.224 L31.42,208.368 L39.46,208.368 C39.7480014,208.368 39.9719992,208.435999 40.132,208.572 C40.2920008,208.708001 40.372,208.911999 40.372,209.184 C40.372,209.440001 40.2920008,209.639999 40.132,209.784 C39.9719992,209.928001 39.7480014,210 39.46,210 L30.484,210 Z M50.62,210.192 C49.019992,210.192 47.6360058,209.844003 46.468,209.148 C45.2999942,208.451997 44.4000032,207.452007 43.768,206.148 C43.1359968,204.843993 42.82,203.304009 42.82,201.528 C42.82,199.767991 43.1359968,198.236007 43.768,196.932 C44.4000032,195.627993 45.2999942,194.628003 46.468,193.932 C47.6360058,193.235997 49.019992,192.888 50.62,192.888 C51.6920054,192.888 52.7039952,193.059998 53.656,193.404 C54.6080048,193.748002 55.4359965,194.239997 56.14,194.88 C56.3960013,195.120001 56.524,195.399998 56.524,195.72 C56.524,195.944001 56.4600006,196.139999 56.332,196.308 C56.2039994,196.476001 56.0520009,196.56 55.876,196.56 C55.683999,196.56 55.4520014,196.472001 55.18,196.296 C54.3639959,195.655997 53.6240033,195.208001 52.96,194.952 C52.2959967,194.695999 51.5320043,194.568 50.668,194.568 C48.8119907,194.568 47.384005,195.171994 46.384,196.38 C45.383995,197.588006 44.884,199.303989 44.884,201.528 C44.884,203.768011 45.383995,205.491994 46.384,206.7 C47.384005,207.908006 48.8119907,208.512 50.668,208.512 C51.5160042,208.512 52.2759966,208.384001 52.948,208.128 C53.6200034,207.871999 54.3639959,207.424003 55.18,206.784 C55.4520014,206.607999 55.683999,206.52 55.876,206.52 C56.0520009,206.52 56.2039994,206.599999 56.332,206.76 C56.4600006,206.920001 56.524,207.119999 56.524,207.36 C56.524,207.680002 56.3960013,207.959999 56.14,208.2 C55.4359965,208.840003 54.6080048,209.331998 53.656,209.676 C52.7039952,210.020002 51.6920054,210.192 50.62,210.192 Z M72.748,192.96 C73.0520015,192.96 73.2879992,193.051999 73.456,193.236 C73.6240008,193.420001 73.708,193.663998 73.708,193.968 L73.708,209.112 C73.708,209.416002 73.6240008,209.659999 73.456,209.844 C73.2879992,210.028001 73.0520015,210.12 72.748,210.12 C72.4439985,210.12 72.2040009,210.028001 72.028,209.844 C71.8519991,209.659999 71.764,209.416002 71.764,209.112 L71.764,202.248 L61.636,202.248 L61.636,209.112 C61.636,209.416002 61.5480009,209.659999 61.372,209.844 C61.1959991,210.028001 60.9560015,210.12 60.652,210.12 C60.3479985,210.12 60.1120008,210.028001 59.944,209.844 C59.7759992,209.659999 59.692,209.416002 59.692,209.112 L59.692,193.968 C59.692,193.663998 59.7759992,193.420001 59.944,193.236 C60.1120008,193.051999 60.3479985,192.96 60.652,192.96 C60.9560015,192.96 61.1959991,193.051999 61.372,193.236 C61.5480009,193.420001 61.636,193.663998 61.636,193.968 L61.636,200.568 L71.764,200.568 L71.764,193.968 C71.764,193.663998 71.8519991,193.420001 72.028,193.236 C72.2040009,193.051999 72.4439985,192.96 72.748,192.96 Z M90.532,192.96 C90.8200014,192.96 91.0439992,193.051999 91.204,193.236 C91.3640008,193.420001 91.444,193.663998 91.444,193.968 L91.444,209.112 C91.444,209.416002 91.3600008,209.659999 91.192,209.844 C91.0239992,210.028001 90.7880015,210.12 90.484,210.12 C90.1799985,210.12 89.9160011,209.984001 89.692,209.712 L79.732,196.392 L79.732,209.112 C79.732,209.416002 79.6480008,209.659999 79.48,209.844 C79.3119992,210.028001 79.0840014,210.12 78.796,210.12 C78.5079986,210.12 78.2840008,210.028001 78.124,209.844 C77.9639992,209.659999 77.884,209.416002 77.884,209.112 L77.884,193.968 C77.884,193.663998 77.9679992,193.420001 78.136,193.236 C78.3040008,193.051999 78.5399985,192.96 78.844,192.96 C79.1640016,192.96 79.4359989,193.095999 79.66,193.368 L89.596,206.688 L89.596,193.968 C89.596,193.663998 89.6799992,193.420001 89.848,193.236 C90.0160008,193.051999 90.2439986,192.96 90.532,192.96 Z M102.7,210.192 C101.131992,210.192 99.7680058,209.840004 98.608,209.136 C97.4479942,208.431996 96.5560031,207.432006 95.932,206.136 C95.3079969,204.839994 94.996,203.312009 94.996,201.552 C94.996,199.775991 95.3039969,198.236007 95.92,196.932 C96.5360031,195.627993 97.4239942,194.628003 98.584,193.932 C99.7440058,193.235997 101.115992,192.888 102.7,192.888 C104.284008,192.888 105.655994,193.235997 106.816,193.932 C107.976006,194.628003 108.863997,195.627993 109.48,196.932 C110.096003,198.236007 110.404,199.767991 110.404,201.528 C110.404,203.288009 110.092003,204.819993 109.468,206.124 C108.843997,207.428007 107.952006,208.431996 106.792,209.136 C105.631994,209.840004 104.268008,210.192 102.7,210.192 Z M102.7,208.512 C104.492009,208.512 105.887995,207.908006 106.888,206.7 C107.888005,205.491994 108.388,203.768011 108.388,201.528 C108.388,199.287989 107.892005,197.568006 106.9,196.368 C105.907995,195.167994 104.508009,194.568 102.7,194.568 C100.907991,194.568 99.512005,195.171994 98.512,196.38 C97.511995,197.588006 97.012,199.303989 97.012,201.528 C97.012,203.752011 97.511995,205.471994 98.512,206.688 C99.512005,207.904006 100.907991,208.512 102.7,208.512 Z M114.916,210 C114.643999,210 114.416001,209.916001 114.232,209.748 C114.047999,209.579999 113.956,209.360001 113.956,209.088 L113.956,193.968 C113.956,193.663998 114.043999,193.420001 114.22,193.236 C114.396001,193.051999 114.635998,192.96 114.94,192.96 C115.244002,192.96 115.483999,193.051999 115.66,193.236 C115.836001,193.420001 115.924,193.663998 115.924,193.968 L115.924,208.32 L123.676,208.32 C123.964001,208.32 124.187999,208.391999 124.348,208.536 C124.508001,208.680001 124.588,208.887999 124.588,209.16 C124.588,209.432001 124.508001,209.639999 124.348,209.784 C124.187999,209.928001 123.964001,210 123.676,210 L114.916,210 Z M133.996,210.192 C132.427992,210.192 131.064006,209.840004 129.904,209.136 C128.743994,208.431996 127.852003,207.432006 127.228,206.136 C126.603997,204.839994 126.292,203.312009 126.292,201.552 C126.292,199.775991 126.599997,198.236007 127.216,196.932 C127.832003,195.627993 128.719994,194.628003 129.88,193.932 C131.040006,193.235997 132.411992,192.888 133.996,192.888 C135.580008,192.888 136.951994,193.235997 138.112,193.932 C139.272006,194.628003 140.159997,195.627993 140.776,196.932 C141.392003,198.236007 141.7,199.767991 141.7,201.528 C141.7,203.288009 141.388003,204.819993 140.764,206.124 C140.139997,207.428007 139.248006,208.431996 138.088,209.136 C136.927994,209.840004 135.564008,210.192 133.996,210.192 Z M133.996,208.512 C135.788009,208.512 137.183995,207.908006 138.184,206.7 C139.184005,205.491994 139.684,203.768011 139.684,201.528 C139.684,199.287989 139.188005,197.568006 138.196,196.368 C137.203995,195.167994 135.804009,194.568 133.996,194.568 C132.203991,194.568 130.808005,195.171994 129.808,196.38 C128.807995,197.588006 128.308,199.303989 128.308,201.528 C128.308,203.752011 128.807995,205.471994 129.808,206.688 C130.808005,207.904006 132.203991,208.512 133.996,208.512 Z M157.828,201.192 C158.068001,201.192 158.263999,201.263999 158.416,201.408 C158.568001,201.552001 158.644,201.751999 158.644,202.008 L158.644,207.984 C158.644,208.368002 158.584001,208.655999 158.464,208.848 C158.343999,209.040001 158.124002,209.191999 157.804,209.304 C157.163997,209.576001 156.388005,209.791999 155.476,209.952 C154.563995,210.112001 153.652005,210.192 152.74,210.192 C151.059992,210.192 149.612006,209.848003 148.396,209.16 C147.179994,208.471997 146.248003,207.480006 145.6,206.184 C144.951997,204.887994 144.628,203.336009 144.628,201.528 C144.628,199.751991 144.947997,198.216006 145.588,196.92 C146.228003,195.623994 147.147994,194.628003 148.348,193.932 C149.548006,193.235997 150.955992,192.888 152.572,192.888 C153.692006,192.888 154.731995,193.059998 155.692,193.404 C156.652005,193.748002 157.459997,194.239997 158.116,194.88 C158.388001,195.152001 158.524,195.431999 158.524,195.72 C158.524,195.944001 158.460001,196.139999 158.332,196.308 C158.203999,196.476001 158.044001,196.56 157.852,196.56 C157.659999,196.56 157.436001,196.464001 157.18,196.272 C156.347996,195.631997 155.596003,195.188001 154.924,194.94 C154.251997,194.691999 153.476004,194.568 152.596,194.568 C150.69199,194.568 149.232005,195.167994 148.216,196.368 C147.199995,197.568006 146.692,199.287989 146.692,201.528 C146.692,203.816011 147.207995,205.555994 148.24,206.748 C149.272005,207.940006 150.78799,208.536 152.788,208.536 C154.276007,208.536 155.627994,208.312002 156.844,207.864 L156.844,202.728 L153.34,202.728 C153.067999,202.728 152.852001,202.656001 152.692,202.512 C152.531999,202.367999 152.452,202.184001 152.452,201.96 C152.452,201.719999 152.531999,201.532001 152.692,201.396 C152.852001,201.259999 153.067999,201.192 153.34,201.192 L157.828,201.192 Z M173.212,193.344 C173.404001,193.103999 173.635999,192.984 173.908,192.984 C174.132001,192.984 174.331999,193.071999 174.508,193.248 C174.684001,193.424001 174.772,193.639999 174.772,193.896 C174.772,194.136001 174.700001,194.335999 174.556,194.496 L168.724,201.864 L168.724,209.112 C168.724,209.432002 168.632001,209.679999 168.448,209.856 C168.263999,210.032001 168.028001,210.12 167.74,210.12 C167.451999,210.12 167.216001,210.032001 167.032,209.856 C166.847999,209.679999 166.756,209.432002 166.756,209.112 L166.756,201.84 L160.924,194.496 C160.763999,194.319999 160.684,194.120001 160.684,193.896 C160.684,193.639999 160.775999,193.424001 160.96,193.248 C161.144001,193.071999 161.355999,192.984 161.596,192.984 C161.868001,192.984 162.099999,193.103999 162.292,193.344 L167.764,200.328 L173.212,193.344 Z" id="TECHNOLOGY" fill="#FFFFFF"></path>
                <path d="M67.5,2.12 C67.6280006,1.70399792 67.8519984,1.39200104 68.172,1.184 C68.4920016,0.97599896 68.8439981,0.872 69.228,0.872 C69.7400026,0.872 70.1799982,1.02399848 70.548,1.328 C70.9160018,1.63200152 71.1,2.03999744 71.1,2.552 C71.1,2.77600112 71.0520005,3.03199856 70.956,3.32 L60.108,33.896 C59.9479992,34.3440022 59.6760019,34.6879988 59.292,34.928 C58.9079981,35.1680012 58.4760024,35.288 57.996,35.288 C57.5479978,35.288 57.1320019,35.1680012 56.748,34.928 C56.3639981,34.6879988 56.0920008,34.3440022 55.932,33.896 L46.524,7.304 L37.02,33.896 C36.8599992,34.3440022 36.5880019,34.6879988 36.204,34.928 C35.8199981,35.1680012 35.4040022,35.288 34.956,35.288 C34.5079978,35.288 34.0920019,35.1680012 33.708,34.928 C33.3239981,34.6879988 33.0520008,34.3440022 32.892,33.896 L21.996,3.32 C21.8999995,3.06399872 21.852,2.82400112 21.852,2.6 C21.852,2.08799744 22.051998,1.6720016 22.452,1.352 C22.852002,1.0319984 23.3079974,0.872 23.82,0.872 C24.2040019,0.872 24.5639983,0.97599896 24.9,1.184 C25.2360017,1.39200104 25.4679994,1.70399792 25.596,2.12 L35.052,29.384 L44.652,2.408 C44.8120008,1.9279976 45.0679982,1.5680012 45.42,1.328 C45.7720018,1.0879988 46.1559979,0.968 46.572,0.968 C46.9880021,0.968 47.3719982,1.09599872 47.724,1.352 C48.0760018,1.60800128 48.3319992,1.9759976 48.492,2.456 L57.948,29.48 L67.5,2.12 Z M106.236,32.744 C106.364001,33.0000013 106.428,33.2719986 106.428,33.56 C106.428,34.0400024 106.244002,34.4399984 105.876,34.76 C105.507998,35.0800016 105.068003,35.24 104.556,35.24 C103.755996,35.24 103.196002,34.8560038 102.876,34.088 L99.468,26.312 L81.372,26.312 L77.916,34.088 C77.5959984,34.8560038 77.036004,35.24 76.236,35.24 C75.7239974,35.24 75.2760019,35.0720017 74.892,34.736 C74.5079981,34.3999983 74.316,33.9920024 74.316,33.512 C74.316,33.2559987 74.3799994,33.0000013 74.508,32.744 L88.236,2.216 C88.428001,1.76799776 88.7159981,1.43200112 89.1,1.208 C89.4840019,0.98399888 89.8999978,0.872 90.348,0.872 C90.8280024,0.872 91.2599981,0.9919988 91.644,1.232 C92.0280019,1.4720012 92.315999,1.79999792 92.508,2.216 L106.236,32.744 Z M82.812,23.048 L98.028,23.048 L90.396,5.816 L82.812,23.048 Z M136.812,1.928 C136.972001,1.57599824 137.203998,1.30400096 137.508,1.112 C137.812002,0.91999904 138.139998,0.824 138.492,0.824 C139.004003,0.824 139.459998,0.99199832 139.86,1.328 C140.260002,1.66400168 140.46,2.0719976 140.46,2.552 C140.46,2.80800128 140.396001,3.06399872 140.268,3.32 L126.492,33.944 C126.299999,34.3600021 126.012002,34.6799989 125.628,34.904 C125.243998,35.1280011 124.828002,35.24 124.38,35.24 C123.931998,35.24 123.516002,35.1280011 123.132,34.904 C122.747998,34.6799989 122.460001,34.3600021 122.268,33.944 L108.54,3.32 C108.444,3.06399872 108.396,2.82400112 108.396,2.6 C108.396,2.08799744 108.603998,1.66400168 109.02,1.328 C109.436002,0.99199832 109.899997,0.824 110.412,0.824 C111.180004,0.824 111.739998,1.19199632 112.092,1.928 L124.476,29.912 L136.812,1.928 Z M147.18,35 C146.571997,35 146.084002,34.8240018 145.716,34.472 C145.347998,34.1199982 145.164,33.6560029 145.164,33.08 L145.164,3.08 C145.164,2.50399712 145.347998,2.04000176 145.716,1.688 C146.084002,1.33599824 146.571997,1.16 147.18,1.16 L165.132,1.16 C165.708003,1.16 166.155998,1.30399856 166.476,1.592 C166.796002,1.88000144 166.956,2.27999744 166.956,2.792 C166.956,3.30400256 166.796002,3.70399856 166.476,3.992 C166.155998,4.28000144 165.708003,4.424 165.132,4.424 L149.052,4.424 L149.052,16.184 L164.172,16.184 C164.748003,16.184 165.195998,16.3279986 165.516,16.616 C165.836002,16.9040014 165.996,17.3039974 165.996,17.816 C165.996,18.3280026 165.836002,18.7279986 165.516,19.016 C165.195998,19.3040014 164.748003,19.448 164.172,19.448 L149.052,19.448 L149.052,31.736 L165.132,31.736 C165.708003,31.736 166.155998,31.8719986 166.476,32.144 C166.796002,32.4160014 166.956,32.8239973 166.956,33.368 C166.956,33.8800026 166.796002,34.2799986 166.476,34.568 C166.155998,34.8560014 165.708003,35 165.132,35 L147.18,35 Z" id="WAVE-Copy" fill="#FFFFFF"></path>
                <path d="M125.284,155.788 C127.060009,155.788 128.441328,156.231996 129.428,157.12 C130.414672,158.008004 130.908,159.241325 130.908,160.82 C130.908,164.273351 129.033352,166 125.284,166 L67.268,166 C65.5906583,166 64.2093388,165.482005 63.124,164.446 C62.0386612,163.409995 61.496,162.152007 61.496,160.672 C61.496,158.797324 62.1866598,157.16934 63.568,155.788 L99.236,116.568 C104.169358,111.042639 107.745989,106.084689 109.966,101.694 C112.186011,97.3033114 113.296,92.8880222 113.296,88.448 C113.296,82.7253047 111.64335,78.334682 108.338,75.276 C105.03265,72.217318 100.370697,70.688 94.352,70.688 C89.6159763,70.688 85.077355,71.5513247 80.736,73.278 C76.394645,75.0046753 72.053355,77.6439822 67.712,81.196 C66.2319926,82.3800059 64.8506731,82.972 63.568,82.972 C62.4826612,82.972 61.5453373,82.4540052 60.756,81.418 C59.9666627,80.3819948 59.572,79.1240074 59.572,77.644 C59.572,75.5719896 60.3613254,73.8946731 61.94,72.612 C65.9853536,68.8626479 70.9186376,65.9026775 76.74,63.732 C82.5613624,61.5613225 88.5306361,60.476 94.648,60.476 C104.02138,60.476 111.495305,62.942642 117.07,67.876 C122.644695,72.809358 125.432,79.4692914 125.432,87.856 C125.432,93.8746968 124.075347,99.646639 121.362,105.172 C118.648653,110.697361 114.184031,116.863966 107.968,123.672 L78.368,155.788 L125.284,155.788 Z" id="2" fill="#FFFFFF"></path>
            </g>
        </g>
        <g id="Secure_Wireless_Zone" transform="translate(106.000000, 648.000000)">
            <path d="M84.1166667,26.3426226 C98.3287879,26.3426226 105.456061,33.4633215 105.456061,47.6834952 L105.456061,161.508557 C105.456061,175.749955 98.3287879,182.849429 84.1166667,182.849429 L35.1060606,182.849429 C20.8833333,182.849429 14.1166667,175.749955 14.1166667,161.508557 L14.1166667,47.6834952 C14.1166667,33.4633215 20.8833333,26.3426226 35.1060606,26.3426226 L84.1166667,26.3426226 Z M0,40.5627963 L0,168.629256 C0,184.335119 13.6287879,197.090827 28.4454545,197.090827 L91.2333333,197.090827 C106.930303,197.090827 119.678788,184.345731 119.678788,168.629256 L119.678788,40.5627963 C119.678788,24.8569328 106.930303,12.122449 91.2333333,12.122449 L28.4454545,12.122449 C12.7484848,12.122449 0,24.8569328 0,40.5627963 Z" id="Fill-50" fill="#636569"></path>
            <path d="M26.9662921,19.3564155 L26.9662921,2.84217094e-14" id="Stroke-52" stroke="#636569" stroke-width="14.6831461" stroke-linecap="round"></path>
            <path d="M29.6629213,43.1020408 L88.918982,43.1020408" id="Stroke-54" stroke="#636569" stroke-width="9.04044944" stroke-linecap="round" stroke-linejoin="round"></path>
        </g>
        <g id="Computer_Home_Small_Office_LAN" transform="translate(39.000000, 206.000000)" fill="#636569">
            <path d="M181.358798,104.777465 C181.358798,119.239437 169.640437,130.969014 155.192295,130.969014 L50.5150273,130.969014 C36.0612568,130.969014 24.3428962,119.239437 24.3428962,104.777465 L24.3428962,39.2901408 C24.3428962,24.8225352 36.0612568,13.0985915 50.5150273,13.0985915 L155.192295,13.0985915 C169.640437,13.0985915 181.358798,24.8225352 181.358798,39.2901408 L181.358798,104.777465 Z M158.321694,2.84217094e-14 L46.9691257,2.84217094e-14 C27.6130055,2.84217094e-14 11.2568306,16.5070423 11.2568306,35.8816901 L11.2568306,108.597183 C11.2568306,127.560563 27.6130055,144.067606 47.0985792,144.067606 L158.86765,144.067606 C178.358852,144.067606 194.444863,127.971831 194.444863,108.602817 L194.444863,36.1577465 C194.444863,16.3774648 178.358852,2.84217094e-14 158.321694,2.84217094e-14 Z" id="Fill-38"></path>
            <path d="M181.139482,167.402741 L24.6920508,167.402741 C20.1893186,167.402741 2.71308906,164.371755 0.253471569,157.199924 C-1.20428799,152.940769 3.9063131,151.087248 8.40904534,151.087248 L197.433745,151.087248 C201.930849,151.087248 207.165275,152.98584 205.589319,157.199924 C203.124073,163.740769 185.647843,167.402741 181.139482,167.402741" id="Fill-40"></path>
        </g>
        <g id="System" transform="translate(1328.000000, 241.000000)" fill="#636466">
            <path d="M148.076923,0 L26.9230769,0 C12.0615385,0 0,12.95892 0,27.04 L0,108.16 C0,123.09284 12.0548077,135.2 26.9230769,135.2 L148.076923,135.2 C162.945192,135.2 175,123.09284 175,108.16 L175,27.04 C175,12.10716 162.945192,0 148.076923,0 Z M161.538462,101.4 C161.538462,114.92 154.807692,121.68 141.346154,121.68 L33.6538462,121.68 C20.1923077,121.68 13.4615385,114.92 13.4615385,101.4 L13.4615385,33.38088 C13.4615385,19.86088 20.1923077,13.4186 33.6538462,13.4186 L141.346154,13.4186 C154.807692,13.4186 161.538462,19.86088 161.538462,33.38088 L161.538462,101.4 Z" id="Shape" fill-rule="nonzero"></path>
            <path d="M53.9875,144.55584 C53.9875,144.55584 44.1740385,150.05172 44.1740385,157.22408 C44.1740385,163.42976 49.7403846,169 55.9125,169 C58.3692308,169 117.075,169 119.538462,169 C125.286538,169 130.704808,163.51764 130.704808,157.49448 C130.704808,150.32888 121.732692,144.55584 121.732692,144.55584 C121.732692,144.55584 121.436538,155.58816 111.616346,155.58816 C106.150962,155.58816 69.5355769,155.58816 63.525,155.58816 C53.4355769,155.58816 53.9875,144.55584 53.9875,144.55584 Z" id="Path"></path>
        </g>
        <g id="Combined-Shape-2" transform="translate(1318.000000, 685.000000)" fill="#636569" fill-rule="nonzero">
            <path d="M183,123.621948 L183,12.3780525 C182.04114,12.131259 181.035899,12 180,12 L32,12 L32,124 L180,124 C181.035899,124 182.04114,123.868741 183,123.621948 Z M183,0.185681265 L183,0 C184.624469,-2.98410077e-16 186.148416,0.430383907 187.464037,1.1833468 C197.064479,4.32195432 204,13.3510383 204,24 L204,112 C204,122.648962 197.064479,131.678046 187.464037,134.816653 C186.148416,135.569616 184.624469,136 183,136 L183,135.814319 C182.017217,135.93687 181.015981,136 180,136 L24,136 C10.745166,136 0,125.254834 0,112 L0,24 C0,10.745166 10.745166,0 24,0 L180,0 C181.015981,0 182.017217,0.0631299942 183,0.185681265 Z M17,76 C21.418278,76 25,72.418278 25,68 C25,63.581722 21.418278,60 17,60 C12.581722,60 9,63.581722 9,68 C9,72.418278 12.581722,76 17,76 Z" id="Combined-Shape"></path>
        </g>
        <g id="MU-MUMO-2" transform="translate(457.000000, 37.000000)" fill="#71757E">
            <path d="M80.264,1.12 C81.8853414,1.12 83.1439955,1.61066176 84.04,2.592 C84.9360045,3.57333824 85.384,4.87465856 85.384,6.496 L85.384,87.52 C85.384,89.0560077 84.9573376,90.2933286 84.104,91.232 C83.2506624,92.1706714 82.0560077,92.64 80.52,92.64 C78.9839923,92.64 77.8320038,92.1706714 77.064,91.232 C76.2959962,90.2933286 75.912,89.0560077 75.912,87.52 L75.912,22.112 L48.136,75.36 C46.9413274,77.834679 45.1920115,79.072 42.888,79.072 C40.6693222,79.072 38.9200064,77.834679 37.64,75.36 L9.736,22.752 L9.736,87.52 C9.736,89.0560077 9.33067072,90.2933286 8.52,91.232 C7.70932928,92.1706714 6.53600768,92.64 5,92.64 C3.46399232,92.64 2.2693376,92.1706714 1.416,91.232 C0.5626624,90.2933286 0.136,89.0560077 0.136,87.52 L0.136,6.496 C0.136,4.87465856 0.60532864,3.57333824 1.544,2.592 C2.48267136,1.61066176 3.76265856,1.12 5.384,1.12 C7.517344,1.12 9.2239936,2.35732096 10.504,4.832 L43.016,67.168 L75.144,4.832 C75.8266701,3.46665984 76.5733293,2.50666944 77.384,1.952 C78.1946707,1.39733056 79.1546611,1.12 80.264,1.12 Z M142.984,93.024 C131.207941,93.024 122.290697,89.9520307 116.232,83.808 C110.173303,77.6639693 107.144,68.6187264 107.144,56.672 L107.144,6.496 C107.144,4.87465856 107.613329,3.57333824 108.552,2.592 C109.490671,1.61066176 110.770659,1.12 112.392,1.12 C113.928008,1.12 115.165329,1.61066176 116.104,2.592 C117.042671,3.57333824 117.512,4.87465856 117.512,6.496 L117.512,57.568 C117.512,66.3573773 119.666645,72.9706445 123.976,77.408 C128.285355,81.8453555 134.621292,84.064 142.984,84.064 C151.346708,84.064 157.661312,81.8453555 161.928,77.408 C166.194688,72.9706445 168.328,66.3573773 168.328,57.568 L168.328,6.496 C168.328,4.87465856 168.818662,3.57333824 169.8,2.592 C170.781338,1.61066176 172.039992,1.12 173.576,1.12 C175.197341,1.12 176.477329,1.61066176 177.416,2.592 C178.354671,3.57333824 178.824,4.87465856 178.824,6.496 L178.824,56.672 C178.824,68.5333926 175.773364,77.5573024 169.672,83.744 C163.570636,89.9306976 154.674725,93.024 142.984,93.024 Z M202.376,62.176 C200.839992,62.176 199.666671,61.7920038 198.856,61.024 C198.045329,60.2559962 197.64,59.2320064 197.64,57.952 C197.64,56.6719936 198.045329,55.6266707 198.856,54.816 C199.666671,54.0053293 200.839992,53.6 202.376,53.6 L230.536,53.6 C232.157341,53.6 233.373329,54.0053293 234.184,54.816 C234.994671,55.6266707 235.4,56.6719936 235.4,57.952 C235.4,59.2320064 234.994671,60.2559962 234.184,61.024 C233.373329,61.7920038 232.157341,62.176 230.536,62.176 L202.376,62.176 Z M334.984,1.12 C336.605341,1.12 337.863996,1.61066176 338.76,2.592 C339.656004,3.57333824 340.104,4.87465856 340.104,6.496 L340.104,87.52 C340.104,89.0560077 339.677338,90.2933286 338.824,91.232 C337.970662,92.1706714 336.776008,92.64 335.24,92.64 C333.703992,92.64 332.552004,92.1706714 331.784,91.232 C331.015996,90.2933286 330.632,89.0560077 330.632,87.52 L330.632,22.112 L302.856,75.36 C301.661327,77.834679 299.912012,79.072 297.608,79.072 C295.389322,79.072 293.640006,77.834679 292.36,75.36 L264.456,22.752 L264.456,87.52 C264.456,89.0560077 264.050671,90.2933286 263.24,91.232 C262.429329,92.1706714 261.256008,92.64 259.72,92.64 C258.183992,92.64 256.989338,92.1706714 256.136,91.232 C255.282662,90.2933286 254.856,89.0560077 254.856,87.52 L254.856,6.496 C254.856,4.87465856 255.325329,3.57333824 256.264,2.592 C257.202671,1.61066176 258.482659,1.12 260.104,1.12 C262.237344,1.12 263.943994,2.35732096 265.224,4.832 L297.736,67.168 L329.864,4.832 C330.54667,3.46665984 331.293329,2.50666944 332.104,1.952 C332.914671,1.39733056 333.874661,1.12 334.984,1.12 Z M397.704,93.024 C385.927941,93.024 377.010697,89.9520307 370.952,83.808 C364.893303,77.6639693 361.864,68.6187264 361.864,56.672 L361.864,6.496 C361.864,4.87465856 362.333329,3.57333824 363.272,2.592 C364.210671,1.61066176 365.490659,1.12 367.112,1.12 C368.648008,1.12 369.885329,1.61066176 370.824,2.592 C371.762671,3.57333824 372.232,4.87465856 372.232,6.496 L372.232,57.568 C372.232,66.3573773 374.386645,72.9706445 378.696,77.408 C383.005355,81.8453555 389.341292,84.064 397.704,84.064 C406.066708,84.064 412.381312,81.8453555 416.648,77.408 C420.914688,72.9706445 423.048,66.3573773 423.048,57.568 L423.048,6.496 C423.048,4.87465856 423.538662,3.57333824 424.52,2.592 C425.501338,1.61066176 426.759992,1.12 428.296,1.12 C429.917341,1.12 431.197329,1.61066176 432.136,2.592 C433.074671,3.57333824 433.544,4.87465856 433.544,6.496 L433.544,56.672 C433.544,68.5333926 430.493364,77.5573024 424.392,83.744 C418.290636,89.9306976 409.394725,93.024 397.704,93.024 Z M535.304,1.12 C536.925341,1.12 538.183996,1.61066176 539.08,2.592 C539.976004,3.57333824 540.424,4.87465856 540.424,6.496 L540.424,87.52 C540.424,89.0560077 539.997338,90.2933286 539.144,91.232 C538.290662,92.1706714 537.096008,92.64 535.56,92.64 C534.023992,92.64 532.872004,92.1706714 532.104,91.232 C531.335996,90.2933286 530.952,89.0560077 530.952,87.52 L530.952,22.112 L503.176,75.36 C501.981327,77.834679 500.232012,79.072 497.928,79.072 C495.709322,79.072 493.960006,77.834679 492.68,75.36 L464.776,22.752 L464.776,87.52 C464.776,89.0560077 464.370671,90.2933286 463.56,91.232 C462.749329,92.1706714 461.576008,92.64 460.04,92.64 C458.503992,92.64 457.309338,92.1706714 456.456,91.232 C455.602662,90.2933286 455.176,89.0560077 455.176,87.52 L455.176,6.496 C455.176,4.87465856 455.645329,3.57333824 456.584,2.592 C457.522671,1.61066176 458.802659,1.12 460.424,1.12 C462.557344,1.12 464.263994,2.35732096 465.544,4.832 L498.056,67.168 L530.184,4.832 C530.86667,3.46665984 531.613329,2.50666944 532.424,1.952 C533.234671,1.39733056 534.194661,1.12 535.304,1.12 Z M600.584,93.024 C592.221292,93.024 584.946698,91.1466854 578.76,87.392 C572.573302,83.6373146 567.816017,78.3040346 564.488,71.392 C561.159983,64.4799654 559.496,56.3307136 559.496,46.944 C559.496,37.4719526 561.13865,29.2587014 564.424,22.304 C567.70935,15.3492986 572.445302,10.0160186 578.632,6.304 C584.818698,2.59198144 592.135958,0.736 600.584,0.736 C609.032042,0.736 616.349302,2.59198144 622.536,6.304 C628.722698,10.0160186 633.45865,15.3492986 636.744,22.304 C640.02935,29.2587014 641.672,37.4292864 641.672,46.816 C641.672,56.2027136 640.008017,64.3732986 636.68,71.328 C633.351983,78.2827014 628.594698,83.6373146 622.408,87.392 C616.221302,91.1466854 608.946708,93.024 600.584,93.024 Z M600.584,84.064 C610.141381,84.064 617.58664,80.8426989 622.92,74.4 C628.25336,67.9573011 630.92,58.7627264 630.92,46.816 C630.92,34.8692736 628.274693,25.696032 622.984,19.296 C617.693307,12.895968 610.226715,9.696 600.584,9.696 C591.026619,9.696 583.58136,12.9173011 578.248,19.36 C572.91464,25.8026989 570.248,34.9546074 570.248,46.816 C570.248,58.6773926 572.91464,67.8506342 578.248,74.336 C583.58136,80.8213658 591.026619,84.064 600.584,84.064 Z" id="MU-MUMO"></path>
        </g>
        <text id="Laptop" font-family="Nunito-Regular, Nunito" font-size="48" font-weight="normal" fill="#71757E">
            <tspan x="67.404" y="447">Laptop</tspan>
        </text>
        <text id="Phone" font-family="Nunito-Regular, Nunito" font-size="48" font-weight="normal" fill="#71757E">
            <tspan x="98.288" y="936">Phone</tspan>
        </text>
        <text id="Desktop" font-family="Nunito-Regular, Nunito" font-size="48" font-weight="normal" fill="#71757E">
            <tspan x="1331.148" y="484">Desktop</tspan>
        </text>
        <text id="Paid" font-family="Nunito-Regular, Nunito" font-size="48" font-weight="normal" fill="#71757E">
            <tspan x="1373.264" y="907">Paid</tspan>
        </text>
        <g id="SonicWave_432i" transform="translate(578.000000, 325.000000)" fill="#636569">
            <path d="M199.52,30.6909091 C106.443636,30.6909091 30.7054545,106.429091 30.7054545,199.52 C30.7054545,292.625455 106.443636,368.363636 199.52,368.363636 C292.625455,368.363636 368.363636,292.625455 368.363636,199.52 C368.363636,106.429091 292.625455,30.6909091 199.52,30.6909091 M199.52,399.054545 C89.5127273,399.054545 0,309.541818 0,199.52 C0,89.5127273 89.5127273,2.84217094e-14 199.52,2.84217094e-14 C309.541818,2.84217094e-14 399.069091,89.5127273 399.069091,199.52 C399.069091,309.541818 309.541818,399.054545 199.52,399.054545" id="Fill-62"></path>
            <path d="M198.215758,92.6787879 C138.564848,92.6787879 90.0266667,141.21697 90.0266667,200.882424 C90.0266667,260.547879 138.564848,309.086061 198.215758,309.086061 C257.881212,309.086061 306.419394,260.547879 306.419394,200.882424 C306.419394,141.21697 257.881212,92.6787879 198.215758,92.6787879 M198.215758,324.431515 C130.099394,324.431515 74.6666667,269.013333 74.6666667,200.882424 C74.6666667,132.751515 130.099394,77.3333333 198.215758,77.3333333 C266.346667,77.3333333 321.764848,132.751515 321.764848,200.882424 C321.764848,269.013333 266.346667,324.431515 198.215758,324.431515" id="Fill-65"></path>
            <path d="M146.338909,324.772364 C153.393455,324.772364 159.124364,330.488727 159.124364,337.557818 C159.124364,344.612364 153.393455,350.328727 146.338909,350.328727 C139.298909,350.328727 133.553455,344.612364 133.553455,337.557818 C133.553455,330.488727 139.298909,324.772364 146.338909,324.772364 Z M200.032,334.359273 C207.072,334.359273 212.817455,340.075636 212.817455,347.144727 C212.817455,354.199273 207.072,359.915636 200.032,359.915636 C192.977455,359.915636 187.246545,354.199273 187.246545,347.144727 C187.246545,340.075636 192.977455,334.359273 200.032,334.359273 Z M253.725091,324.772364 C260.779636,324.772364 266.525091,330.488727 266.525091,337.557818 C266.525091,344.612364 260.779636,350.328727 253.725091,350.328727 C246.685091,350.328727 240.939636,344.612364 240.939636,337.557818 C240.939636,330.488727 246.685091,324.772364 253.725091,324.772364 Z M299.293091,296 C306.333091,296 312.078545,301.716364 312.078545,308.785455 C312.078545,315.84 306.333091,321.570909 299.293091,321.570909 C292.238545,321.570909 286.507636,315.84 286.507636,308.785455 C286.507636,301.716364 292.238545,296 299.293091,296 Z M100.785455,296 C107.84,296 113.570909,301.716364 113.570909,308.785455 C113.570909,315.84 107.84,321.570909 100.785455,321.570909 C93.7309091,321.570909 88,315.84 88,308.785455 C88,301.716364 93.7309091,296 100.785455,296 Z" id="Combined-Shape"></path>
        </g>
        <g id="17" transform="translate(322.000000, 617.000000)" fill-rule="nonzero" stroke="#47AFE8" stroke-dasharray="6,6" stroke-width="10">
            <g id="9">
                <path d="M247.2,0.064 L0.916,114.054545" id="Path"></path>
            </g>
        </g>
        <g id="16" transform="translate(276.000000, 712.000000)" fill-rule="nonzero">
            <g id="8" transform="translate(29.685577, 29.685577) scale(-1, 1) rotate(-164.000000) translate(-29.685577, -29.685577) translate(5.685577, 5.685577)">
                <rect id="Rectangle" fill="#47AFE8" x="0" y="0" width="48" height="48" rx="24"></rect>
                <polyline id="Path" stroke="#FFFFFF" stroke-width="7.57894737" stroke-linecap="round" stroke-linejoin="round" transform="translate(27.969091, 23.969091) rotate(-315.000000) translate(-27.969091, -23.969091) " points="34.3111965 30.3111965 21.626986 30.3111965 21.626986 17.626986"></polyline>
            </g>
        </g>
        <g id="15" transform="translate(322.000000, 349.000000)" fill-rule="nonzero" stroke="#47AFE8" stroke-dasharray="6,6" stroke-width="10">
            <g id="9" transform="translate(124.000000, 57.500000) scale(1, -1) translate(-124.000000, -57.500000) ">
                <path d="M247.2,0.064 L0.916,114.054545" id="Path"></path>
            </g>
        </g>
        <g id="14" transform="translate(276.000000, 309.000000)" fill-rule="nonzero">
            <g id="8" transform="translate(29.685577, 30.314423) scale(-1, -1) rotate(-164.000000) translate(-29.685577, -30.314423) translate(5.685577, 6.314423)">
                <rect id="Rectangle" fill="#47AFE8" x="0" y="0" width="48" height="48" rx="24"></rect>
                <polyline id="Path" stroke="#FFFFFF" stroke-width="7.57894737" stroke-linecap="round" stroke-linejoin="round" transform="translate(27.969091, 23.969091) rotate(-315.000000) translate(-27.969091, -23.969091) " points="34.3111965 30.3111965 21.626986 30.3111965 21.626986 17.626986"></polyline>
            </g>
        </g>
        <g id="13" transform="translate(990.000000, 617.000000)" fill-rule="nonzero" stroke="#47AFE8" stroke-dasharray="6,6" stroke-width="10">
            <g id="9" transform="translate(124.000000, 57.500000) scale(-1, 1) translate(-124.000000, -57.500000) ">
                <path d="M247.2,0.064 L0.916,114.054545" id="Path"></path>
            </g>
        </g>
        <g id="12" transform="translate(1224.000000, 712.000000)" fill-rule="nonzero">
            <g id="8" transform="translate(30.314423, 29.685577) rotate(-164.000000) translate(-30.314423, -29.685577) translate(6.314423, 5.685577)">
                <rect id="Rectangle" fill="#47AFE8" x="0" y="0" width="48" height="48" rx="24"></rect>
                <polyline id="Path" stroke="#FFFFFF" stroke-width="7.57894737" stroke-linecap="round" stroke-linejoin="round" transform="translate(27.969091, 23.969091) rotate(-315.000000) translate(-27.969091, -23.969091) " points="34.3111965 30.3111965 21.626986 30.3111965 21.626986 17.626986"></polyline>
            </g>
        </g>
        <g id="11" transform="translate(990.000000, 349.000000)" fill-rule="nonzero" stroke="#47AFE8" stroke-dasharray="6,6" stroke-width="10">
            <g id="9" transform="translate(124.000000, 57.500000) scale(-1, -1) translate(-124.000000, -57.500000) ">
                <path d="M247.2,0.064 L0.916,114.054545" id="Path"></path>
            </g>
        </g>
        <g id="10" transform="translate(1224.000000, 309.000000)" fill-rule="nonzero">
            <g id="8" transform="translate(30.314423, 30.314423) scale(1, -1) rotate(-164.000000) translate(-30.314423, -30.314423) translate(6.314423, 6.314423)">
                <rect id="Rectangle" fill="#47AFE8" x="0" y="0" width="48" height="48" rx="24"></rect>
                <polyline id="Path" stroke="#FFFFFF" stroke-width="7.57894737" stroke-linecap="round" stroke-linejoin="round" transform="translate(27.969091, 23.969091) rotate(-315.000000) translate(-27.969091, -23.969091) " points="34.3111965 30.3111965 21.626986 30.3111965 21.626986 17.626986"></polyline>
            </g>
        </g>
    </g>
</svg>