<?xml version="1.0" encoding="UTF-8"?>
<svg width="417px" height="280px" viewBox="0 0 417 280" version="1.1" xmlns="http://www.w3.org/2000/svg" xmlns:xlink="http://www.w3.org/1999/xlink">
    <!-- Generator: Sketch 52.5 (67469) - http://www.bohemiancoding.com/sketch -->
    <title>Group 115</title>
    <desc>Created with Sketch.</desc>
    <g id="Page-1" stroke="none" stroke-width="1" fill="none" fill-rule="evenodd">
        <g id="Group-115" fill-rule="nonzero">
            <g id="Group-122" fill="#262626">
                <rect id="Rectangle" x="0" y="0" width="140" height="140"></rect>
                <rect id="Rectangle" x="138" y="0" width="140" height="140"></rect>
                <rect id="Rectangle" x="277" y="0" width="140" height="140"></rect>
                <rect id="Rectangle" x="0" y="140" width="140" height="140"></rect>
                <rect id="Rectangle" x="138" y="140" width="140" height="140"></rect>
                <rect id="Rectangle" x="277" y="140" width="140" height="140"></rect>
            </g>
            <path d="M137.56,140.16 L137.56,258.16 L137,258.16 L137,140.16 L137,22 L137.56,22 L137.56,140.16 Z" id="Combined-Shape" fill="#424242"></path>
            <path d="M276.56,140.16 L276.56,258.16 L276,258.16 L276,140.16 L276,22 L276.56,22 L276.56,140.16 Z" id="Combined-Shape" fill="#424242"></path>
            <path d="M277,140.56 L138.6,140.56 L21,140.56 L21,140 L138.6,140 L277,140 L393.6,140 L393.6,140.56 L277,140.56 Z" id="Combined-Shape" fill="#424242"></path>
        </g>
    </g>
</svg>