<?xml version="1.0" encoding="UTF-8"?>
<svg width="48px" height="48px" viewBox="0 0 48 48" version="1.1" xmlns="http://www.w3.org/2000/svg" xmlns:xlink="http://www.w3.org/1999/xlink">
    <!-- Generator: Sketch 51.3 (57544) - http://www.bohemiancoding.com/sketch -->
    <title>CAS - Color - OnWhite</title>
    <desc>Created with Sketch.</desc>
    <defs></defs>
    <g id="CAS---Color---OnWhite" stroke="none" stroke-width="1" fill="none" fill-rule="evenodd">
        <g id="Icon_Service_CAS_Color" transform="translate(0.000000, 6.000000)">
            <path d="M47.6539494,23.9993387 C47.667542,24.2210699 47.6744403,24.4446648 47.6744403,24.6699228 C47.6744216,24.4446766 47.6674905,24.2210899 47.6538514,23.9993639 Z M47.5746155,26.1458241 C46.8662793,31.3380613 42.4743583,35.3359402 37.1627334,35.3359402 C36.976093,35.3359402 36.7914814,35.3308698 36.6088984,35.3359402 L23.3300453,35.3359402 L36.5865827,35.3358387 L36.5865827,35.3216417 C36.7711944,35.3307684 36.955806,35.3358387 37.141432,35.3358387 C42.465361,35.3358387 46.8652572,31.3376017 47.5745368,26.1458018 Z M23.3300453,35.3358387 L8.8694746,35.3358387 L8.8694746,35.3206277 C3.92249065,35.0285747 0,30.8749326 0,25.7923999 C0,20.5222638 4.21969514,16.2499752 9.42432393,16.2499752 C9.99946027,16.2499752 10.5624244,16.3016929 11.1091589,16.4020861 C11.094958,16.1658072 11.0868432,15.9285142 11.0868432,15.6881789 C11.0868432,10.0154559 15.2335052,5.2817642 20.7546111,4.1571575 C20.1409295,5.46328322 19.7879358,6.91644949 19.7879358,8.45479788 L19.7879358,8.74178047 C18.2238084,8.86853957 16.990359,10.1624964 16.990359,11.7586469 L16.990359,25.7863155 C16.990359,27.4666341 18.3526308,28.8285338 20.0334084,28.8285338 L39.8132294,28.8285338 C39.9213991,28.8285338 40.0282497,28.8228931 40.1335028,28.8118897 Z" id="Combined-Shape" fill="#80808A"></path>
            <path d="M27.7808466,4.79672019 C26.3454568,5.56767939 25.358055,7.05806578 25.3519599,8.79398702 L33.164828,8.79398702 C31.8066425,7.01461723 29.948661,5.61213837 27.7808466,4.79672019" id="Fill-5" fill="#53535A"></path>
            <path d="M42.8462074,15.669286 L42.8462074,25.7652777 C42.8462074,27.449298 41.481088,28.814198 39.7967971,28.814198 L23.2791581,28.814198 L23.2791581,35.3358387 L36.5857681,35.3358387 L36.5857681,35.3205941 C36.7687327,35.3307572 36.9537303,35.3358387 37.1407608,35.3358387 C42.9580191,35.3358387 47.6744403,30.55005 47.6744403,24.6463239 C47.6744403,20.8778583 45.7482295,17.5738449 42.8462074,15.669286" id="Fill-7" fill="#53535A"></path>
            <path d="M35.958327,10.6593782 L23.9934775,10.6593782 L23.9934775,8.52750256 C23.9934775,5.23020157 26.6723422,2.55825077 29.9759023,2.55825077 C33.2794623,2.55825077 35.958327,5.23020157 35.958327,8.52750256 L35.958327,10.6593782 Z M30.3679404,24.0970256 C30.3679404,24.0970256 25.2173324,22.235482 24.0817404,19.1378988 C22.8101304,15.670411 27.5246674,14.8788921 32.3472054,15.0167842 C34.9460075,15.0911734 38.1220953,15.48784 38.1220953,15.48784 C38.1220953,15.48784 30.6182858,16.4469614 27.9067379,18.6432562 C25.259132,20.7880683 30.3679404,24.0970256 30.3679404,24.0970256 Z M21.4295812,10.6593782 L21.4295812,8.52750256 C21.4295812,3.81808775 25.2550773,0 29.9759023,0 C34.6967272,0 38.5232408,3.81808775 38.5232408,8.52750256 L38.5232408,10.6593782 L38.6239652,10.6593782 C39.7482134,10.6593782 40.6588036,11.5689785 40.6588036,12.689736 L40.6588036,24.8312753 C40.6588036,25.9520328 39.7482134,26.8616331 38.6239652,26.8616331 L21.3278393,26.8616331 C20.2046085,26.8616331 19.2930009,25.9520328 19.2930009,24.8312753 L19.2930009,12.689736 C19.2930009,11.5689785 20.2046085,10.6593782 21.3278393,10.6593782 L21.4295812,10.6593782 Z" id="Fill-9" fill="#FF8D20"></path>
            <path d="M29.9759023,15.0298016 L29.9759023,10.6592052 L35.9269451,10.6592052 L35.9269451,8.52730678 C35.9269451,5.25357477 33.268667,2.59627836 29.9759023,2.55840127 L29.9759023,-8.8817842e-16 C34.6954035,0.0379732473 38.5089831,3.84142383 38.5089831,8.52730678 L38.5089831,10.6592052 L38.61038,10.6592052 C39.742134,10.6592052 40.6588036,11.5688152 40.6588036,12.6895846 L40.6588036,24.8312536 C40.6588036,25.9520231 39.742134,26.8616331 38.61038,26.8616331 L29.9759023,26.8616331 L29.9759023,23.9716388 C30.1808461,24.0544909 30.2992353,24.0969961 30.2992353,24.0969961 C30.2992353,24.0969961 30.1753099,24.0172615 29.9759023,23.874524 L29.9759023,17.4566082 C33.3059695,16.0970793 38.1051594,15.4877186 38.1051594,15.4877186 C38.1051594,15.4877186 34.9078671,15.0910477 32.2917145,15.0166577 C31.5086717,14.9944162 30.7284573,14.9963545 29.9759023,15.0298016 Z" id="Combined-Shape" fill="#FF6C0B"></path>
        </g>
    </g>
</svg>