<?xml version="1.0" encoding="UTF-8"?>
<svg width="1419px" height="1419px" viewBox="0 0 1419 1419" version="1.1" xmlns="http://www.w3.org/2000/svg" xmlns:xlink="http://www.w3.org/1999/xlink">
    <!-- Generator: Sketch 52.5 (67469) - http://www.bohemiancoding.com/sketch -->
    <title>CAS Security Ring</title>
    <desc>Created with Sketch.</desc>
    <g id="Page-1" stroke="none" stroke-width="1" fill="none" fill-rule="evenodd" fill-opacity="0.075464" stroke-dasharray="33,18">
        <path d="M709.5,1416 C319.310824,1416 3,1099.68918 3,709.5 C3,319.310824 319.310824,3 709.5,3 C1099.68918,3 1416,319.310824 1416,709.5 C1416,890.138441 1348.20714,1054.94301 1236.67588,1179.85924 C1107.29335,1324.76909 919.050735,1416 709.5,1416 Z M709.5,1331 C1052.74497,1331 1331,1052.74497 1331,709.5 C1331,366.255028 1052.74497,88 709.5,88 C366.255028,88 88,366.255028 88,709.5 C88,1052.74497 366.255028,1331 709.5,1331 Z" id="CAS-Security-Ring" stroke="#FA9521" stroke-width="6" fill="#FFFFFF"></path>
    </g>
</svg>