<?xml version="1.0" encoding="UTF-8" standalone="no"?><!DOCTYPE svg PUBLIC "-//W3C//DTD SVG 1.1//EN" "http://www.w3.org/Graphics/SVG/1.1/DTD/svg11.dtd"><svg width="100%" height="100%" viewBox="0 0 390 735" version="1.1" xmlns="http://www.w3.org/2000/svg" xmlns:xlink="http://www.w3.org/1999/xlink" xml:space="preserve" xmlns:serif="http://www.serif.com/" style="fill-rule:evenodd;clip-rule:evenodd;"><g id="CC-Settings"><path id="NS-Settings-Base" d="M389,195c0,-107.072 -86.928,-194 -194,-194c-107.072,0 -194,86.928 -194,194l0,325c0,107.072 86.928,194 194,194c107.072,0 194,-86.928 194,-194l0,-325Z" style="fill-opacity:0.878431;stroke:#ff791a;stroke-width:2px;"/><g id="ENDPOINT-SECURITY"><path d="M79.766,98c-0.292,0 -0.526,-0.084 -0.702,-0.253c-0.176,-0.169 -0.264,-0.391 -0.264,-0.667l-0.001,-14.375c0.001,-0.276 0.089,-0.498 0.265,-0.667c0.176,-0.169 0.41,-0.253 0.701,-0.253l8.603,0c0.276,0 0.49,0.069 0.644,0.207c0.153,0.138 0.23,0.33 0.23,0.575c-0.001,0.245 -0.077,0.437 -0.23,0.575c-0.154,0.138 -0.368,0.207 -0.644,0.207l-7.705,0l0,5.635l7.245,0c0.276,0 0.49,0.069 0.644,0.207c0.153,0.138 0.23,0.33 0.23,0.575c-0.001,0.245 -0.077,0.437 -0.231,0.575c-0.153,0.138 -0.368,0.207 -0.644,0.207l-7.245,0l0.001,5.888l7.704,0c0.276,0 0.491,0.065 0.645,0.196c0.153,0.13 0.23,0.325 0.23,0.586c-0.001,0.245 -0.077,0.437 -0.23,0.575c-0.154,0.138 -0.368,0.207 -0.644,0.207l-8.602,0Z" style="fill:#838383;fill-rule:nonzero;"/><path d="M104.307,81.67c0.276,0 0.49,0.088 0.644,0.264c0.153,0.177 0.229,0.411 0.229,0.702l0,14.513c0,0.291 -0.08,0.525 -0.241,0.701c-0.161,0.177 -0.387,0.265 -0.678,0.265c-0.292,0 -0.545,-0.13 -0.76,-0.391l-9.545,-12.765l0.001,12.19c-0.001,0.291 -0.081,0.525 -0.242,0.702c-0.161,0.176 -0.38,0.264 -0.656,0.264c-0.275,0 -0.49,-0.088 -0.643,-0.264c-0.154,-0.177 -0.23,-0.411 -0.23,-0.702l0,-14.513c0,-0.291 0.08,-0.525 0.241,-0.701c0.161,-0.177 0.387,-0.265 0.679,-0.265c0.306,0 0.567,0.13 0.782,0.391l9.522,12.765l0,-12.19c0,-0.291 0.08,-0.525 0.241,-0.701c0.161,-0.177 0.38,-0.265 0.656,-0.265Z" style="fill:#838383;fill-rule:nonzero;"/><path d="M110.149,98c-0.292,0 -0.526,-0.084 -0.702,-0.253c-0.176,-0.169 -0.264,-0.391 -0.264,-0.667l-0.001,-14.375c0.001,-0.276 0.089,-0.498 0.265,-0.667c0.176,-0.169 0.41,-0.253 0.702,-0.253l4.484,0c2.592,0 4.597,0.702 6.015,2.105c1.418,1.402 2.128,3.4 2.128,5.991c0,2.591 -0.713,4.592 -2.139,6.003c-1.427,1.411 -3.427,2.116 -6.004,2.116l-4.484,0Zm4.37,-1.61c4.201,0 6.302,-2.17 6.302,-6.509c-0.001,-4.324 -2.101,-6.486 -6.303,-6.486l-3.45,0l0,12.995l3.45,0Z" style="fill:#838383;fill-rule:nonzero;"/><path d="M127.123,98.115c-0.292,0 -0.522,-0.088 -0.691,-0.265c-0.168,-0.176 -0.253,-0.41 -0.253,-0.701l0,-14.444c0,-0.276 0.089,-0.498 0.265,-0.667c0.176,-0.169 0.41,-0.253 0.701,-0.253l5.451,0c1.702,0 3.025,0.414 3.968,1.242c0.943,0.828 1.415,2.001 1.415,3.519c0,1.518 -0.476,2.699 -1.426,3.542c-0.951,0.843 -2.27,1.265 -3.957,1.265l-4.531,0l0,5.796c0,0.291 -0.084,0.525 -0.252,0.701c-0.169,0.177 -0.399,0.265 -0.691,0.265Zm5.29,-8.326c2.469,0 3.703,-1.081 3.703,-3.243c0,-2.131 -1.234,-3.197 -3.703,-3.197l-4.347,0l0,6.44l4.347,0Z" style="fill:#838383;fill-rule:nonzero;"/><path d="M147.639,98.184c-1.503,0 -2.81,-0.337 -3.922,-1.012c-1.112,-0.675 -1.967,-1.633 -2.565,-2.875c-0.598,-1.242 -0.897,-2.706 -0.897,-4.393c0,-1.702 0.296,-3.178 0.886,-4.427c0.59,-1.25 1.441,-2.208 2.553,-2.875c1.112,-0.667 2.426,-1.001 3.944,-1.001c1.518,0 2.833,0.334 3.945,1.001c1.112,0.667 1.963,1.625 2.553,2.875c0.59,1.249 0.886,2.717 0.886,4.404c0,1.687 -0.299,3.155 -0.897,4.405c-0.599,1.249 -1.453,2.211 -2.565,2.886c-1.112,0.675 -2.419,1.012 -3.922,1.012Zm0,-1.61c1.718,0 3.056,-0.579 4.014,-1.736c0.958,-1.158 1.437,-2.81 1.437,-4.957c0,-2.147 -0.475,-3.795 -1.426,-4.945c-0.95,-1.15 -2.292,-1.725 -4.025,-1.725c-1.717,0 -3.055,0.579 -4.013,1.737c-0.958,1.157 -1.438,2.802 -1.438,4.933c0,2.131 0.48,3.78 1.438,4.945c0.958,1.165 2.296,1.748 4.013,1.748Z" style="fill:#838383;fill-rule:nonzero;"/><path d="M159.368,98.115c-0.291,0 -0.521,-0.088 -0.69,-0.265c-0.168,-0.176 -0.252,-0.41 -0.252,-0.701l0,-14.513c0,-0.291 0.084,-0.525 0.252,-0.702c0.169,-0.176 0.399,-0.264 0.69,-0.264c0.292,0 0.522,0.088 0.69,0.264c0.169,0.177 0.254,0.411 0.254,0.702l0,14.513c0,0.291 -0.085,0.525 -0.254,0.701c-0.168,0.177 -0.398,0.265 -0.69,0.265Z" style="fill:#838383;fill-rule:nonzero;"/><path d="M176.435,81.67c0.275,0 0.49,0.088 0.644,0.264c0.153,0.177 0.229,0.411 0.229,0.702l0,14.513c0,0.291 -0.08,0.525 -0.241,0.701c-0.161,0.177 -0.387,0.265 -0.678,0.265c-0.292,0 -0.545,-0.13 -0.76,-0.391l-9.545,-12.765l0,12.19c0,0.291 -0.08,0.525 -0.241,0.702c-0.161,0.176 -0.38,0.264 -0.656,0.264c-0.276,0 -0.49,-0.088 -0.644,-0.264c-0.153,-0.177 -0.23,-0.411 -0.23,-0.702l0,-14.513c0,-0.291 0.081,-0.525 0.242,-0.701c0.161,-0.177 0.387,-0.265 0.678,-0.265c0.307,0 0.568,0.13 0.782,0.391l9.523,12.765l0,-12.19c0,-0.291 0.08,-0.525 0.241,-0.701c0.161,-0.177 0.379,-0.265 0.655,-0.265Z" style="fill:#838383;fill-rule:nonzero;"/><path d="M186.187,98.115c-0.292,0 -0.526,-0.088 -0.702,-0.265c-0.176,-0.176 -0.264,-0.41 -0.264,-0.701l0,-13.754l-4.946,0c-0.275,0 -0.49,-0.069 -0.643,-0.207c-0.154,-0.138 -0.231,-0.337 -0.231,-0.598c0,-0.261 0.077,-0.46 0.231,-0.598c0.153,-0.138 0.368,-0.207 0.643,-0.207l11.799,0c0.276,0 0.491,0.069 0.644,0.207c0.154,0.138 0.23,0.337 0.23,0.598c0,0.261 -0.076,0.46 -0.23,0.598c-0.153,0.138 -0.368,0.207 -0.644,0.207l-4.945,0l0,13.754c0,0.291 -0.084,0.525 -0.252,0.701c-0.169,0.177 -0.399,0.265 -0.691,0.265Z" style="fill:#838383;fill-rule:nonzero;"/><path d="M206.174,98.184c-1.15,0 -2.251,-0.172 -3.301,-0.517c-1.05,-0.346 -1.89,-0.809 -2.519,-1.392c-0.23,-0.215 -0.345,-0.483 -0.345,-0.805c0,-0.215 0.062,-0.403 0.184,-0.564c0.123,-0.16 0.269,-0.241 0.437,-0.241c0.2,0 0.414,0.084 0.644,0.253c1.426,1.104 3.052,1.656 4.876,1.656c1.319,0 2.331,-0.253 3.036,-0.759c0.706,-0.506 1.058,-1.227 1.058,-2.162c0,-0.537 -0.168,-0.97 -0.506,-1.3c-0.337,-0.329 -0.782,-0.594 -1.334,-0.793c-0.552,-0.199 -1.295,-0.406 -2.231,-0.621c-1.257,-0.291 -2.288,-0.598 -3.093,-0.92c-0.805,-0.322 -1.457,-0.782 -1.955,-1.38c-0.498,-0.598 -0.748,-1.38 -0.748,-2.346c0,-0.92 0.25,-1.737 0.748,-2.45c0.498,-0.713 1.196,-1.264 2.093,-1.656c0.897,-0.391 1.921,-0.586 3.07,-0.586c1.074,0 2.074,0.165 3.002,0.495c0.928,0.329 1.706,0.801 2.334,1.414c0.246,0.245 0.368,0.514 0.368,0.805c0,0.215 -0.061,0.402 -0.184,0.563c-0.122,0.161 -0.268,0.242 -0.436,0.242c-0.169,0 -0.392,-0.084 -0.668,-0.253c-0.751,-0.613 -1.449,-1.043 -2.093,-1.288c-0.644,-0.245 -1.418,-0.368 -2.323,-0.368c-1.272,0 -2.261,0.264 -2.966,0.793c-0.706,0.529 -1.058,1.269 -1.058,2.22c0,0.813 0.31,1.422 0.931,1.828c0.621,0.407 1.575,0.763 2.863,1.07c1.396,0.337 2.492,0.648 3.29,0.931c0.797,0.284 1.46,0.71 1.989,1.277c0.529,0.567 0.793,1.326 0.793,2.277c0,0.905 -0.249,1.702 -0.747,2.392c-0.498,0.69 -1.2,1.227 -2.105,1.61c-0.904,0.383 -1.939,0.575 -3.105,0.575Z" style="fill:#838383;fill-rule:nonzero;"/><path d="M216.156,98c-0.292,0 -0.526,-0.084 -0.702,-0.253c-0.176,-0.169 -0.264,-0.391 -0.264,-0.667l0,-14.375c0,-0.276 0.088,-0.498 0.264,-0.667c0.176,-0.169 0.41,-0.253 0.702,-0.253l8.601,0c0.276,0 0.491,0.069 0.644,0.207c0.154,0.138 0.231,0.33 0.231,0.575c0,0.245 -0.077,0.437 -0.231,0.575c-0.153,0.138 -0.368,0.207 -0.644,0.207l-7.704,0l0,5.635l7.245,0c0.275,0 0.49,0.069 0.643,0.207c0.154,0.138 0.23,0.33 0.23,0.575c0,0.245 -0.076,0.437 -0.23,0.575c-0.153,0.138 -0.368,0.207 -0.643,0.207l-7.245,0l0,5.888l7.704,0c0.276,0 0.491,0.065 0.644,0.196c0.154,0.13 0.231,0.325 0.231,0.586c0,0.245 -0.077,0.437 -0.231,0.575c-0.153,0.138 -0.368,0.207 -0.644,0.207l-8.601,0Z" style="fill:#838383;fill-rule:nonzero;"/><path d="M235.361,98.184c-1.534,0 -2.86,-0.334 -3.98,-1.001c-1.119,-0.666 -1.981,-1.625 -2.587,-2.874c-0.606,-1.25 -0.909,-2.726 -0.909,-4.428c0,-1.687 0.303,-3.155 0.909,-4.404c0.606,-1.25 1.468,-2.209 2.587,-2.876c1.12,-0.666 2.446,-1 3.979,-1c1.028,0 1.998,0.165 2.91,0.495c0.912,0.329 1.706,0.801 2.38,1.414c0.246,0.23 0.368,0.498 0.368,0.805c0,0.215 -0.061,0.402 -0.184,0.563c-0.122,0.161 -0.268,0.242 -0.437,0.242c-0.184,0 -0.406,-0.084 -0.667,-0.253c-0.781,-0.613 -1.491,-1.043 -2.127,-1.288c-0.636,-0.245 -1.368,-0.368 -2.197,-0.368c-1.778,0 -3.147,0.579 -4.105,1.736c-0.958,1.158 -1.438,2.803 -1.438,4.934c0,2.147 0.48,3.799 1.438,4.956c0.958,1.158 2.327,1.737 4.105,1.737c0.813,0 1.541,-0.123 2.185,-0.368c0.644,-0.245 1.358,-0.675 2.139,-1.288c0.261,-0.169 0.483,-0.253 0.667,-0.253c0.169,0 0.315,0.077 0.437,0.23c0.123,0.153 0.184,0.345 0.184,0.575c0,0.307 -0.122,0.575 -0.368,0.805c-0.674,0.613 -1.468,1.085 -2.38,1.414c-0.912,0.33 -1.882,0.495 -2.91,0.495Z" style="fill:#838383;fill-rule:nonzero;"/><path d="M250.38,98.184c-2.116,0 -3.719,-0.552 -4.808,-1.656c-1.088,-1.104 -1.632,-2.729 -1.632,-4.876l0,-9.016c0,-0.291 0.084,-0.525 0.252,-0.701c0.169,-0.177 0.399,-0.265 0.69,-0.265c0.276,0 0.499,0.088 0.668,0.265c0.168,0.176 0.252,0.41 0.252,0.701l0,9.177c0,1.579 0.388,2.768 1.162,3.565c0.774,0.797 1.913,1.196 3.415,1.196c1.503,0 2.638,-0.399 3.404,-1.196c0.767,-0.797 1.15,-1.986 1.15,-3.565l0,-9.177c0,-0.291 0.089,-0.525 0.265,-0.701c0.176,-0.177 0.403,-0.265 0.679,-0.265c0.291,0 0.521,0.088 0.69,0.264c0.168,0.177 0.252,0.411 0.252,0.702l0,9.016c0,2.131 -0.548,3.753 -1.644,4.864c-1.096,1.112 -2.695,1.668 -4.796,1.668Z" style="fill:#838383;fill-rule:nonzero;"/><path d="M273.08,96.827c0.108,0.169 0.161,0.345 0.161,0.529c0,0.23 -0.088,0.418 -0.264,0.564c-0.176,0.145 -0.38,0.218 -0.609,0.218c-0.353,0 -0.629,-0.153 -0.829,-0.46l-3.082,-4.876c-0.398,-0.629 -0.812,-1.062 -1.242,-1.299c-0.429,-0.238 -1.012,-0.357 -1.748,-0.357l-2.897,0l0,6.003c0,0.291 -0.085,0.525 -0.254,0.702c-0.168,0.176 -0.39,0.264 -0.666,0.264c-0.292,0 -0.522,-0.088 -0.69,-0.264c-0.169,-0.177 -0.253,-0.411 -0.253,-0.702l0,-14.444c0,-0.276 0.088,-0.498 0.264,-0.667c0.176,-0.169 0.41,-0.253 0.702,-0.253l5.703,0c1.764,0 3.109,0.391 4.037,1.173c0.928,0.782 1.392,1.932 1.392,3.45c0,1.288 -0.372,2.323 -1.116,3.105c-0.744,0.782 -1.805,1.257 -3.185,1.426c0.383,0.123 0.728,0.322 1.035,0.598c0.306,0.276 0.613,0.659 0.919,1.15l2.623,4.14Zm-5.865,-7.245c1.257,0 2.196,-0.261 2.817,-0.782c0.621,-0.521 0.932,-1.311 0.932,-2.369c0,-1.043 -0.307,-1.817 -0.921,-2.323c-0.613,-0.506 -1.556,-0.759 -2.829,-0.759l-4.645,0l0,6.233l4.645,0Z" style="fill:#838383;fill-rule:nonzero;"/><path d="M277.427,98.115c-0.291,0 -0.521,-0.088 -0.69,-0.265c-0.168,-0.176 -0.253,-0.41 -0.253,-0.701l0,-14.513c0,-0.291 0.085,-0.525 0.253,-0.702c0.169,-0.176 0.399,-0.264 0.69,-0.264c0.292,0 0.522,0.088 0.69,0.264c0.169,0.177 0.253,0.411 0.253,0.702l0,14.513c0,0.291 -0.084,0.525 -0.253,0.701c-0.168,0.177 -0.398,0.265 -0.69,0.265Z" style="fill:#838383;fill-rule:nonzero;"/><path d="M287.249,98.115c-0.292,0 -0.526,-0.088 -0.702,-0.265c-0.176,-0.176 -0.265,-0.41 -0.265,-0.701l0,-13.754l-4.945,0c-0.276,0 -0.49,-0.069 -0.644,-0.207c-0.153,-0.138 -0.23,-0.337 -0.23,-0.598c0,-0.261 0.077,-0.46 0.23,-0.598c0.154,-0.138 0.368,-0.207 0.644,-0.207l11.799,0c0.276,0 0.491,0.069 0.644,0.207c0.154,0.138 0.23,0.337 0.23,0.598c0,0.261 -0.076,0.46 -0.23,0.598c-0.153,0.138 -0.368,0.207 -0.644,0.207l-4.945,0l0,13.754c0,0.291 -0.084,0.525 -0.253,0.701c-0.168,0.177 -0.398,0.265 -0.69,0.265Z" style="fill:#838383;fill-rule:nonzero;"/><path d="M306.477,82.038c0.183,-0.23 0.406,-0.345 0.666,-0.345c0.215,0 0.407,0.084 0.575,0.253c0.169,0.169 0.253,0.376 0.253,0.621c0,0.23 -0.069,0.422 -0.207,0.575l-5.589,7.061l0,6.946c0,0.307 -0.088,0.544 -0.264,0.713c-0.176,0.169 -0.403,0.253 -0.678,0.253c-0.276,0 -0.503,-0.084 -0.679,-0.253c-0.176,-0.169 -0.265,-0.406 -0.265,-0.713l0,-6.969l-5.589,-7.038c-0.153,-0.169 -0.23,-0.36 -0.23,-0.575c0,-0.245 0.089,-0.452 0.265,-0.621c0.176,-0.169 0.38,-0.253 0.609,-0.253c0.261,0 0.483,0.115 0.668,0.345l5.243,6.693l5.221,-6.693Z" style="fill:#838383;fill-rule:nonzero;"/></g><g id="toggle-button"><path id="Rectangle-2" d="M364,189c0,-7.727 -6.273,-14 -14,-14l-17,0c-7.727,0 -14,6.273 -14,14c0,7.727 6.273,14 14,14l17,0c7.727,0 14,-6.273 14,-14Z" style="fill:#96cc2c;"/><circle id="Oval" cx="350" cy="189" r="11" style="fill:#fefefe;stroke:#979797;stroke-width:2px;"/></g><g id="toggle-button-copy"><path id="Rectangle-21" serif:id="Rectangle-2" d="M364,247c0,-7.727 -6.273,-14 -14,-14l-17,0c-7.727,0 -14,6.273 -14,14c0,7.727 6.273,14 14,14l17,0c7.727,0 14,-6.273 14,-14Z" style="fill:#96cc2c;"/><circle id="Oval1" serif:id="Oval" cx="350" cy="247" r="11" style="fill:#fefefe;stroke:#979797;stroke-width:2px;"/></g><g id="Capture-Client---Bas"><path d="M39.878,195.184c-1.533,0 -2.86,-0.333 -3.979,-1c-1.119,-0.667 -1.982,-1.626 -2.587,-2.875c-0.606,-1.25 -0.909,-2.726 -0.909,-4.428c0,-1.687 0.303,-3.155 0.909,-4.405c0.605,-1.249 1.468,-2.208 2.587,-2.875c1.119,-0.666 2.446,-1 3.979,-1c1.027,0 1.997,0.165 2.91,0.494c0.912,0.33 1.705,0.802 2.38,1.415c0.245,0.23 0.368,0.498 0.368,0.805c0,0.215 -0.061,0.403 -0.184,0.564c-0.123,0.161 -0.268,0.241 -0.437,0.241c-0.184,0 -0.406,-0.084 -0.667,-0.253c-0.782,-0.613 -1.491,-1.043 -2.128,-1.288c-0.636,-0.245 -1.368,-0.368 -2.196,-0.368c-1.779,0 -3.147,0.579 -4.106,1.736c-0.958,1.158 -1.437,2.803 -1.437,4.934c0,2.147 0.479,3.799 1.437,4.957c0.959,1.157 2.327,1.736 4.106,1.736c0.813,0 1.541,-0.123 2.185,-0.368c0.644,-0.245 1.357,-0.675 2.139,-1.288c0.261,-0.169 0.483,-0.253 0.667,-0.253c0.169,0 0.314,0.077 0.437,0.23c0.123,0.153 0.184,0.345 0.184,0.575c0,0.307 -0.123,0.575 -0.368,0.805c-0.675,0.613 -1.468,1.085 -2.381,1.415c-0.912,0.329 -1.882,0.494 -2.909,0.494Z" style="fill:#838383;fill-rule:nonzero;"/><path d="M52.643,183.523c2.806,0 4.209,1.472 4.209,4.416l0,6.256c0,0.276 -0.081,0.498 -0.242,0.667c-0.161,0.169 -0.379,0.253 -0.655,0.253c-0.276,0 -0.498,-0.084 -0.667,-0.253c-0.169,-0.169 -0.253,-0.391 -0.253,-0.667l0,-1.104c-0.291,0.659 -0.736,1.169 -1.334,1.53c-0.598,0.36 -1.288,0.54 -2.07,0.54c-0.721,0 -1.384,-0.146 -1.989,-0.437c-0.606,-0.291 -1.085,-0.698 -1.438,-1.219c-0.353,-0.521 -0.529,-1.096 -0.529,-1.725c0,-0.843 0.215,-1.499 0.644,-1.966c0.429,-0.468 1.135,-0.805 2.116,-1.012c0.981,-0.207 2.346,-0.311 4.094,-0.311l0.506,0l0,-0.759c0,-0.92 -0.188,-1.595 -0.563,-2.024c-0.376,-0.429 -0.986,-0.644 -1.829,-0.644c-1.043,0 -2.101,0.284 -3.174,0.851c-0.414,0.261 -0.705,0.391 -0.874,0.391c-0.184,0 -0.337,-0.069 -0.46,-0.207c-0.123,-0.138 -0.184,-0.314 -0.184,-0.529c0,-0.215 0.065,-0.402 0.196,-0.563c0.13,-0.161 0.341,-0.326 0.632,-0.495c0.537,-0.307 1.146,-0.548 1.829,-0.724c0.682,-0.177 1.36,-0.265 2.035,-0.265Zm-0.759,10.166c0.92,0 1.675,-0.31 2.266,-0.931c0.59,-0.621 0.885,-1.423 0.885,-2.404l0,-0.667l-0.414,0c-1.349,0 -2.377,0.058 -3.082,0.173c-0.705,0.115 -1.207,0.306 -1.506,0.575c-0.299,0.268 -0.449,0.663 -0.449,1.184c0,0.598 0.219,1.093 0.656,1.484c0.437,0.391 0.985,0.586 1.644,0.586Z" style="fill:#838383;fill-rule:nonzero;"/><path d="M65.891,183.523c0.981,0 1.848,0.245 2.599,0.736c0.751,0.491 1.334,1.177 1.748,2.059c0.414,0.881 0.621,1.905 0.621,3.07c0,1.165 -0.207,2.181 -0.621,3.048c-0.414,0.866 -0.993,1.537 -1.737,2.012c-0.743,0.475 -1.613,0.713 -2.61,0.713c-0.874,0 -1.637,-0.192 -2.289,-0.575c-0.651,-0.383 -1.146,-0.928 -1.483,-1.633l0,5.405c0,0.276 -0.081,0.495 -0.242,0.656c-0.161,0.161 -0.387,0.241 -0.678,0.241c-0.291,0 -0.521,-0.084 -0.69,-0.253c-0.169,-0.169 -0.253,-0.383 -0.253,-0.644l0,-13.869c0,-0.276 0.084,-0.498 0.253,-0.667c0.169,-0.169 0.399,-0.253 0.69,-0.253c0.291,0 0.517,0.084 0.678,0.253c0.161,0.169 0.242,0.391 0.242,0.667l0,1.242c0.337,-0.705 0.832,-1.25 1.483,-1.633c0.652,-0.383 1.415,-0.575 2.289,-0.575Zm-0.368,10.097c1.089,0 1.932,-0.368 2.53,-1.104c0.598,-0.736 0.897,-1.779 0.897,-3.128c0,-1.349 -0.299,-2.403 -0.897,-3.162c-0.598,-0.759 -1.441,-1.139 -2.53,-1.139c-1.089,0 -1.928,0.368 -2.519,1.104c-0.59,0.736 -0.885,1.786 -0.885,3.151c0,1.365 0.295,2.419 0.885,3.163c0.591,0.743 1.43,1.115 2.519,1.115Z" style="fill:#838383;fill-rule:nonzero;"/><path d="M78.794,193.643c0.537,0.046 0.805,0.291 0.805,0.736c0,0.261 -0.096,0.456 -0.287,0.587c-0.192,0.13 -0.48,0.18 -0.863,0.149l-0.621,-0.046c-1.227,-0.092 -2.131,-0.46 -2.714,-1.104c-0.583,-0.644 -0.874,-1.618 -0.874,-2.921l0,-5.773l-1.541,0c-0.261,0 -0.464,-0.065 -0.609,-0.195c-0.146,-0.131 -0.219,-0.303 -0.219,-0.518c0,-0.23 0.073,-0.414 0.218,-0.552c0.146,-0.138 0.349,-0.207 0.61,-0.207l1.541,0l0,-2.599c0,-0.291 0.084,-0.518 0.253,-0.679c0.169,-0.161 0.399,-0.241 0.69,-0.241c0.276,0 0.498,0.081 0.667,0.242c0.169,0.161 0.253,0.387 0.253,0.678l0,2.599l2.553,0c0.245,0 0.441,0.069 0.586,0.207c0.146,0.138 0.219,0.322 0.219,0.552c0,0.215 -0.073,0.387 -0.219,0.518c-0.145,0.13 -0.341,0.195 -0.586,0.195l-2.553,0l0,5.865c0,0.843 0.172,1.453 0.517,1.829c0.345,0.375 0.863,0.586 1.553,0.632l0.621,0.046Z" style="fill:#838383;fill-rule:nonzero;"/><path d="M89.949,183.569c0.291,0 0.518,0.084 0.678,0.253c0.162,0.169 0.242,0.391 0.242,0.667l0,9.729c0,0.261 -0.081,0.475 -0.242,0.644c-0.16,0.169 -0.387,0.253 -0.678,0.253c-0.276,0 -0.495,-0.081 -0.655,-0.242c-0.161,-0.161 -0.242,-0.371 -0.242,-0.632l0,-1.15c-0.353,0.675 -0.847,1.188 -1.483,1.541c-0.637,0.353 -1.354,0.529 -2.151,0.529c-1.334,0 -2.338,-0.372 -3.013,-1.115c-0.675,-0.744 -1.012,-1.844 -1.012,-3.301l0,-6.256c0,-0.276 0.084,-0.498 0.253,-0.667c0.169,-0.169 0.399,-0.253 0.69,-0.253c0.291,0 0.518,0.084 0.679,0.253c0.161,0.169 0.241,0.391 0.241,0.667l0,6.21c0,0.997 0.199,1.729 0.598,2.196c0.399,0.468 1.027,0.702 1.886,0.702c0.981,0 1.771,-0.318 2.369,-0.954c0.598,-0.637 0.897,-1.476 0.897,-2.519l0,-5.635c0,-0.276 0.084,-0.498 0.253,-0.667c0.169,-0.169 0.399,-0.253 0.69,-0.253Z" style="fill:#838383;fill-rule:nonzero;"/><path d="M99.885,183.569c0.644,-0.046 0.966,0.215 0.966,0.782c0,0.245 -0.069,0.441 -0.207,0.586c-0.138,0.146 -0.376,0.234 -0.713,0.265l-0.69,0.069c-1.027,0.092 -1.79,0.456 -2.289,1.092c-0.498,0.637 -0.747,1.384 -0.747,2.243l0,5.589c0,0.307 -0.084,0.537 -0.253,0.69c-0.169,0.153 -0.391,0.23 -0.667,0.23c-0.276,0 -0.502,-0.081 -0.678,-0.242c-0.177,-0.161 -0.265,-0.387 -0.265,-0.678l0,-9.706c0,-0.291 0.092,-0.518 0.276,-0.679c0.184,-0.161 0.406,-0.241 0.667,-0.241c0.245,0 0.452,0.08 0.621,0.241c0.169,0.161 0.253,0.38 0.253,0.656l0,1.288c0.322,-0.675 0.778,-1.188 1.368,-1.541c0.591,-0.353 1.269,-0.56 2.036,-0.621l0.322,-0.023Z" style="fill:#838383;fill-rule:nonzero;"/><path d="M110.902,192.401c0.169,0 0.314,0.069 0.437,0.207c0.123,0.138 0.184,0.314 0.184,0.529c0,0.383 -0.268,0.736 -0.805,1.058c-0.552,0.322 -1.135,0.564 -1.748,0.725c-0.613,0.161 -1.211,0.241 -1.794,0.241c-1.733,0 -3.101,-0.514 -4.105,-1.541c-1.005,-1.027 -1.507,-2.446 -1.507,-4.255c0,-1.15 0.222,-2.166 0.667,-3.048c0.445,-0.881 1.07,-1.567 1.875,-2.058c0.805,-0.491 1.721,-0.736 2.748,-0.736c1.457,0 2.614,0.475 3.473,1.426c0.859,0.951 1.288,2.239 1.288,3.864c0,0.307 -0.061,0.529 -0.184,0.667c-0.123,0.138 -0.322,0.207 -0.598,0.207l-7.406,0c0.138,2.637 1.388,3.956 3.749,3.956c0.598,0 1.112,-0.081 1.541,-0.242c0.429,-0.161 0.889,-0.379 1.38,-0.655c0.399,-0.23 0.667,-0.345 0.805,-0.345Zm-4.025,-7.429c-0.981,0 -1.767,0.307 -2.357,0.92c-0.591,0.613 -0.94,1.48 -1.047,2.599l6.509,0c-0.031,-1.135 -0.314,-2.005 -0.851,-2.61c-0.537,-0.606 -1.288,-0.909 -2.254,-0.909Z" style="fill:#838383;fill-rule:nonzero;"/><path d="M127.439,195.184c-1.533,0 -2.86,-0.333 -3.979,-1c-1.119,-0.667 -1.982,-1.626 -2.588,-2.875c-0.605,-1.25 -0.908,-2.726 -0.908,-4.428c0,-1.687 0.303,-3.155 0.908,-4.405c0.606,-1.249 1.469,-2.208 2.588,-2.875c1.119,-0.666 2.446,-1 3.979,-1c1.027,0 1.997,0.165 2.909,0.494c0.913,0.33 1.706,0.802 2.381,1.415c0.245,0.23 0.368,0.498 0.368,0.805c0,0.215 -0.061,0.403 -0.184,0.564c-0.123,0.161 -0.268,0.241 -0.437,0.241c-0.184,0 -0.406,-0.084 -0.667,-0.253c-0.782,-0.613 -1.491,-1.043 -2.127,-1.288c-0.637,-0.245 -1.369,-0.368 -2.197,-0.368c-1.779,0 -3.147,0.579 -4.105,1.736c-0.959,1.158 -1.438,2.803 -1.438,4.934c0,2.147 0.479,3.799 1.438,4.957c0.958,1.157 2.326,1.736 4.105,1.736c0.813,0 1.541,-0.123 2.185,-0.368c0.644,-0.245 1.357,-0.675 2.139,-1.288c0.261,-0.169 0.483,-0.253 0.667,-0.253c0.169,0 0.314,0.077 0.437,0.23c0.123,0.153 0.184,0.345 0.184,0.575c0,0.307 -0.123,0.575 -0.368,0.805c-0.675,0.613 -1.468,1.085 -2.381,1.415c-0.912,0.329 -1.882,0.494 -2.909,0.494Z" style="fill:#838383;fill-rule:nonzero;"/><path d="M136.8,195.115c-0.276,0 -0.502,-0.081 -0.679,-0.242c-0.176,-0.161 -0.264,-0.387 -0.264,-0.678l0,-14.605c0,-0.291 0.088,-0.518 0.264,-0.679c0.177,-0.161 0.403,-0.241 0.679,-0.241c0.261,0 0.479,0.08 0.655,0.241c0.177,0.161 0.265,0.388 0.265,0.679l0,14.605c0,0.291 -0.088,0.517 -0.265,0.678c-0.176,0.161 -0.394,0.242 -0.655,0.242Z" style="fill:#838383;fill-rule:nonzero;"/><path d="M142.136,195.115c-0.276,0 -0.502,-0.081 -0.679,-0.242c-0.176,-0.161 -0.264,-0.387 -0.264,-0.678l0,-9.706c0,-0.291 0.088,-0.518 0.264,-0.679c0.177,-0.161 0.403,-0.241 0.679,-0.241c0.276,0 0.498,0.08 0.667,0.241c0.169,0.161 0.253,0.388 0.253,0.679l0,9.706c0,0.307 -0.084,0.537 -0.253,0.69c-0.169,0.153 -0.391,0.23 -0.667,0.23Zm0,-13.961c-0.368,0 -0.667,-0.107 -0.897,-0.322c-0.23,-0.215 -0.345,-0.498 -0.345,-0.851c0,-0.337 0.115,-0.613 0.345,-0.828c0.23,-0.215 0.529,-0.322 0.897,-0.322c0.368,0 0.667,0.107 0.897,0.322c0.23,0.215 0.345,0.491 0.345,0.828c0,0.353 -0.115,0.636 -0.345,0.851c-0.23,0.215 -0.529,0.322 -0.897,0.322Z" style="fill:#838383;fill-rule:nonzero;"/><path d="M155.2,192.401c0.169,0 0.314,0.069 0.437,0.207c0.123,0.138 0.184,0.314 0.184,0.529c0,0.383 -0.268,0.736 -0.805,1.058c-0.552,0.322 -1.135,0.564 -1.748,0.725c-0.613,0.161 -1.211,0.241 -1.794,0.241c-1.733,0 -3.101,-0.514 -4.106,-1.541c-1.004,-1.027 -1.506,-2.446 -1.506,-4.255c0,-1.15 0.222,-2.166 0.667,-3.048c0.445,-0.881 1.069,-1.567 1.874,-2.058c0.805,-0.491 1.722,-0.736 2.749,-0.736c1.457,0 2.614,0.475 3.473,1.426c0.859,0.951 1.288,2.239 1.288,3.864c0,0.307 -0.061,0.529 -0.184,0.667c-0.123,0.138 -0.322,0.207 -0.598,0.207l-7.406,0c0.138,2.637 1.388,3.956 3.749,3.956c0.598,0 1.112,-0.081 1.541,-0.242c0.429,-0.161 0.889,-0.379 1.38,-0.655c0.399,-0.23 0.667,-0.345 0.805,-0.345Zm-4.025,-7.429c-0.981,0 -1.767,0.307 -2.358,0.92c-0.59,0.613 -0.939,1.48 -1.046,2.599l6.509,0c-0.031,-1.135 -0.314,-2.005 -0.851,-2.61c-0.537,-0.606 -1.288,-0.909 -2.254,-0.909Z" style="fill:#838383;fill-rule:nonzero;"/><path d="M164.285,183.523c2.683,0 4.025,1.48 4.025,4.439l0,6.233c0,0.291 -0.081,0.518 -0.242,0.679c-0.161,0.161 -0.387,0.241 -0.678,0.241c-0.291,0 -0.521,-0.081 -0.69,-0.242c-0.169,-0.161 -0.253,-0.387 -0.253,-0.678l0,-6.118c0,-1.043 -0.203,-1.802 -0.61,-2.277c-0.406,-0.475 -1.054,-0.713 -1.943,-0.713c-1.027,0 -1.848,0.314 -2.461,0.943c-0.613,0.629 -0.92,1.48 -0.92,2.553l0,5.612c0,0.291 -0.081,0.517 -0.242,0.678c-0.161,0.161 -0.387,0.242 -0.678,0.242c-0.291,0 -0.521,-0.081 -0.69,-0.242c-0.169,-0.161 -0.253,-0.387 -0.253,-0.678l0,-9.706c0,-0.276 0.084,-0.498 0.253,-0.667c0.169,-0.169 0.399,-0.253 0.69,-0.253c0.276,0 0.494,0.084 0.655,0.253c0.161,0.169 0.242,0.383 0.242,0.644l0,1.173c0.368,-0.69 0.882,-1.215 1.541,-1.576c0.659,-0.36 1.411,-0.54 2.254,-0.54Z" style="fill:#838383;fill-rule:nonzero;"/><path d="M176.889,193.643c0.537,0.046 0.805,0.291 0.805,0.736c0,0.261 -0.096,0.456 -0.288,0.587c-0.191,0.13 -0.479,0.18 -0.862,0.149l-0.621,-0.046c-1.227,-0.092 -2.131,-0.46 -2.714,-1.104c-0.583,-0.644 -0.874,-1.618 -0.874,-2.921l0,-5.773l-1.541,0c-0.261,0 -0.464,-0.065 -0.61,-0.195c-0.145,-0.131 -0.218,-0.303 -0.218,-0.518c0,-0.23 0.073,-0.414 0.218,-0.552c0.146,-0.138 0.349,-0.207 0.61,-0.207l1.541,0l0,-2.599c0,-0.291 0.084,-0.518 0.253,-0.679c0.169,-0.161 0.399,-0.241 0.69,-0.241c0.276,0 0.498,0.081 0.667,0.242c0.169,0.161 0.253,0.387 0.253,0.678l0,2.599l2.553,0c0.245,0 0.441,0.069 0.587,0.207c0.145,0.138 0.218,0.322 0.218,0.552c0,0.215 -0.073,0.387 -0.218,0.518c-0.146,0.13 -0.342,0.195 -0.587,0.195l-2.553,0l0,5.865c0,0.843 0.172,1.453 0.517,1.829c0.346,0.375 0.863,0.586 1.553,0.632l0.621,0.046Z" style="fill:#838383;fill-rule:nonzero;"/><path d="M186.089,189.641c-0.276,0 -0.487,-0.069 -0.633,-0.207c-0.145,-0.138 -0.218,-0.322 -0.218,-0.552c0,-0.23 0.073,-0.418 0.218,-0.564c0.146,-0.145 0.357,-0.218 0.633,-0.218l5.06,0c0.291,0 0.51,0.073 0.655,0.218c0.146,0.146 0.219,0.334 0.219,0.564c0,0.23 -0.073,0.414 -0.219,0.552c-0.145,0.138 -0.364,0.207 -0.655,0.207l-5.06,0Z" style="fill:#838383;fill-rule:nonzero;"/><path d="M210.653,186.674c0.935,0.245 1.66,0.705 2.173,1.38c0.514,0.675 0.771,1.518 0.771,2.53c0,1.426 -0.468,2.518 -1.403,3.278c-0.935,0.758 -2.262,1.138 -3.979,1.138l-5.796,0c-0.291,0 -0.525,-0.084 -0.702,-0.253c-0.176,-0.169 -0.264,-0.391 -0.264,-0.667l0,-14.375c0,-0.276 0.088,-0.498 0.264,-0.667c0.177,-0.169 0.411,-0.253 0.702,-0.253l5.543,0c1.671,0 2.967,0.368 3.887,1.104c0.92,0.736 1.38,1.779 1.38,3.128c0,0.874 -0.226,1.625 -0.679,2.254c-0.452,0.629 -1.084,1.096 -1.897,1.403Zm-7.337,-0.69l4.37,0c1.211,0 2.127,-0.245 2.748,-0.736c0.621,-0.491 0.932,-1.204 0.932,-2.139c0,-1.84 -1.227,-2.76 -3.68,-2.76l-4.37,0l0,5.635Zm4.715,7.452c1.273,0 2.212,-0.234 2.817,-0.702c0.606,-0.467 0.909,-1.199 0.909,-2.196c0,-1.993 -1.242,-2.99 -3.726,-2.99l-4.715,0l0,5.888l4.715,0Z" style="fill:#838383;fill-rule:nonzero;"/><path d="M221.256,183.523c2.806,0 4.209,1.472 4.209,4.416l0,6.256c0,0.276 -0.081,0.498 -0.242,0.667c-0.161,0.169 -0.379,0.253 -0.655,0.253c-0.276,0 -0.498,-0.084 -0.667,-0.253c-0.169,-0.169 -0.253,-0.391 -0.253,-0.667l0,-1.104c-0.291,0.659 -0.736,1.169 -1.334,1.53c-0.598,0.36 -1.288,0.54 -2.07,0.54c-0.721,0 -1.384,-0.146 -1.99,-0.437c-0.605,-0.291 -1.084,-0.698 -1.437,-1.219c-0.353,-0.521 -0.529,-1.096 -0.529,-1.725c0,-0.843 0.215,-1.499 0.644,-1.966c0.429,-0.468 1.135,-0.805 2.116,-1.012c0.981,-0.207 2.346,-0.311 4.094,-0.311l0.506,0l0,-0.759c0,-0.92 -0.188,-1.595 -0.564,-2.024c-0.375,-0.429 -0.985,-0.644 -1.828,-0.644c-1.043,0 -2.101,0.284 -3.174,0.851c-0.414,0.261 -0.705,0.391 -0.874,0.391c-0.184,0 -0.337,-0.069 -0.46,-0.207c-0.123,-0.138 -0.184,-0.314 -0.184,-0.529c0,-0.215 0.065,-0.402 0.195,-0.563c0.131,-0.161 0.342,-0.326 0.633,-0.495c0.537,-0.307 1.146,-0.548 1.828,-0.724c0.683,-0.177 1.361,-0.265 2.036,-0.265Zm-0.759,10.166c0.92,0 1.675,-0.31 2.265,-0.931c0.591,-0.621 0.886,-1.423 0.886,-2.404l0,-0.667l-0.414,0c-1.349,0 -2.377,0.058 -3.082,0.173c-0.705,0.115 -1.208,0.306 -1.507,0.575c-0.299,0.268 -0.448,0.663 -0.448,1.184c0,0.598 0.218,1.093 0.655,1.484c0.437,0.391 0.986,0.586 1.645,0.586Z" style="fill:#838383;fill-rule:nonzero;"/><path d="M232.641,195.161c-0.705,0 -1.376,-0.084 -2.013,-0.253c-0.636,-0.169 -1.199,-0.406 -1.69,-0.713c-0.276,-0.184 -0.472,-0.357 -0.587,-0.518c-0.115,-0.161 -0.172,-0.356 -0.172,-0.586c0,-0.199 0.057,-0.364 0.172,-0.495c0.115,-0.13 0.265,-0.195 0.449,-0.195c0.184,0 0.452,0.115 0.805,0.345c0.46,0.276 0.916,0.494 1.368,0.655c0.453,0.161 1.016,0.242 1.691,0.242c0.828,0 1.472,-0.146 1.932,-0.437c0.46,-0.291 0.69,-0.713 0.69,-1.265c0,-0.337 -0.084,-0.609 -0.253,-0.816c-0.169,-0.208 -0.46,-0.392 -0.874,-0.553c-0.414,-0.161 -1.02,-0.325 -1.817,-0.494c-1.349,-0.291 -2.315,-0.682 -2.898,-1.173c-0.583,-0.491 -0.874,-1.158 -0.874,-2.001c0,-0.659 0.184,-1.242 0.552,-1.748c0.368,-0.506 0.878,-0.905 1.529,-1.196c0.652,-0.291 1.392,-0.437 2.22,-0.437c0.598,0 1.177,0.081 1.736,0.242c0.56,0.161 1.055,0.387 1.484,0.678c0.521,0.368 0.782,0.751 0.782,1.15c0,0.199 -0.061,0.368 -0.184,0.506c-0.123,0.138 -0.268,0.207 -0.437,0.207c-0.184,0 -0.46,-0.13 -0.828,-0.391c-0.429,-0.276 -0.836,-0.491 -1.219,-0.644c-0.383,-0.153 -0.859,-0.23 -1.426,-0.23c-0.721,0 -1.3,0.161 -1.737,0.483c-0.437,0.322 -0.655,0.751 -0.655,1.288c0,0.337 0.08,0.609 0.241,0.816c0.161,0.207 0.43,0.391 0.805,0.552c0.376,0.161 0.917,0.319 1.622,0.472c1.043,0.23 1.851,0.483 2.426,0.759c0.575,0.276 0.986,0.613 1.231,1.012c0.245,0.399 0.368,0.905 0.368,1.518c0,0.966 -0.406,1.744 -1.219,2.334c-0.813,0.591 -1.886,0.886 -3.22,0.886Z" style="fill:#838383;fill-rule:nonzero;"/><path d="M240.852,195.115c-0.276,0 -0.502,-0.081 -0.679,-0.242c-0.176,-0.161 -0.264,-0.387 -0.264,-0.678l0,-9.706c0,-0.291 0.088,-0.518 0.264,-0.679c0.177,-0.161 0.403,-0.241 0.679,-0.241c0.276,0 0.498,0.08 0.667,0.241c0.169,0.161 0.253,0.388 0.253,0.679l0,9.706c0,0.307 -0.084,0.537 -0.253,0.69c-0.169,0.153 -0.391,0.23 -0.667,0.23Zm0,-13.961c-0.368,0 -0.667,-0.107 -0.897,-0.322c-0.23,-0.215 -0.345,-0.498 -0.345,-0.851c0,-0.337 0.115,-0.613 0.345,-0.828c0.23,-0.215 0.529,-0.322 0.897,-0.322c0.368,0 0.667,0.107 0.897,0.322c0.23,0.215 0.345,0.491 0.345,0.828c0,0.353 -0.115,0.636 -0.345,0.851c-0.23,0.215 -0.529,0.322 -0.897,0.322Z" style="fill:#838383;fill-rule:nonzero;"/><path d="M249.868,195.161c-1.043,0 -1.967,-0.238 -2.772,-0.713c-0.805,-0.475 -1.426,-1.15 -1.863,-2.024c-0.437,-0.874 -0.655,-1.886 -0.655,-3.036c0,-1.15 0.226,-2.17 0.678,-3.059c0.453,-0.889 1.085,-1.579 1.898,-2.07c0.813,-0.491 1.748,-0.736 2.806,-0.736c0.583,0 1.161,0.08 1.736,0.241c0.575,0.161 1.078,0.395 1.507,0.702c0.276,0.184 0.471,0.364 0.586,0.54c0.115,0.177 0.173,0.372 0.173,0.587c0,0.215 -0.058,0.391 -0.173,0.529c-0.115,0.138 -0.264,0.207 -0.448,0.207c-0.107,0 -0.222,-0.031 -0.345,-0.092c-0.123,-0.061 -0.226,-0.123 -0.311,-0.184c-0.084,-0.061 -0.141,-0.1 -0.172,-0.115c-0.399,-0.261 -0.778,-0.468 -1.139,-0.621c-0.36,-0.153 -0.801,-0.23 -1.322,-0.23c-1.119,0 -1.99,0.38 -2.611,1.139c-0.621,0.758 -0.931,1.813 -0.931,3.162c0,1.349 0.31,2.392 0.931,3.128c0.621,0.736 1.492,1.104 2.611,1.104c0.521,0 0.97,-0.077 1.345,-0.23c0.376,-0.153 0.756,-0.36 1.139,-0.621c0.169,-0.107 0.33,-0.199 0.483,-0.276c0.153,-0.077 0.284,-0.115 0.391,-0.115c0.169,0 0.31,0.069 0.425,0.207c0.115,0.138 0.173,0.314 0.173,0.529c0,0.199 -0.054,0.38 -0.161,0.541c-0.107,0.16 -0.307,0.341 -0.598,0.54c-0.429,0.291 -0.947,0.525 -1.553,0.702c-0.605,0.176 -1.215,0.264 -1.828,0.264Z" style="fill:#838383;fill-rule:nonzero;"/></g><g id="Capture-Client---Adv"><path d="M39.878,253.184c-1.533,0 -2.86,-0.333 -3.979,-1c-1.119,-0.667 -1.982,-1.626 -2.587,-2.875c-0.606,-1.25 -0.909,-2.726 -0.909,-4.428c0,-1.687 0.303,-3.155 0.909,-4.405c0.605,-1.249 1.468,-2.208 2.587,-2.875c1.119,-0.666 2.446,-1 3.979,-1c1.027,0 1.997,0.165 2.91,0.494c0.912,0.33 1.705,0.802 2.38,1.415c0.245,0.23 0.368,0.498 0.368,0.805c0,0.215 -0.061,0.403 -0.184,0.564c-0.123,0.161 -0.268,0.241 -0.437,0.241c-0.184,0 -0.406,-0.084 -0.667,-0.253c-0.782,-0.613 -1.491,-1.043 -2.128,-1.288c-0.636,-0.245 -1.368,-0.368 -2.196,-0.368c-1.779,0 -3.147,0.579 -4.106,1.736c-0.958,1.158 -1.437,2.803 -1.437,4.934c0,2.147 0.479,3.799 1.437,4.957c0.959,1.157 2.327,1.736 4.106,1.736c0.813,0 1.541,-0.123 2.185,-0.368c0.644,-0.245 1.357,-0.675 2.139,-1.288c0.261,-0.169 0.483,-0.253 0.667,-0.253c0.169,0 0.314,0.077 0.437,0.23c0.123,0.153 0.184,0.345 0.184,0.575c0,0.307 -0.123,0.575 -0.368,0.805c-0.675,0.613 -1.468,1.085 -2.381,1.415c-0.912,0.329 -1.882,0.494 -2.909,0.494Z" style="fill:#838383;fill-rule:nonzero;"/><path d="M52.643,241.523c2.806,0 4.209,1.472 4.209,4.416l0,6.256c0,0.276 -0.081,0.498 -0.242,0.667c-0.161,0.169 -0.379,0.253 -0.655,0.253c-0.276,0 -0.498,-0.084 -0.667,-0.253c-0.169,-0.169 -0.253,-0.391 -0.253,-0.667l0,-1.104c-0.291,0.659 -0.736,1.169 -1.334,1.53c-0.598,0.36 -1.288,0.54 -2.07,0.54c-0.721,0 -1.384,-0.146 -1.989,-0.437c-0.606,-0.291 -1.085,-0.698 -1.438,-1.219c-0.353,-0.521 -0.529,-1.096 -0.529,-1.725c0,-0.843 0.215,-1.499 0.644,-1.966c0.429,-0.468 1.135,-0.805 2.116,-1.012c0.981,-0.207 2.346,-0.311 4.094,-0.311l0.506,0l0,-0.759c0,-0.92 -0.188,-1.595 -0.563,-2.024c-0.376,-0.429 -0.986,-0.644 -1.829,-0.644c-1.043,0 -2.101,0.284 -3.174,0.851c-0.414,0.261 -0.705,0.391 -0.874,0.391c-0.184,0 -0.337,-0.069 -0.46,-0.207c-0.123,-0.138 -0.184,-0.314 -0.184,-0.529c0,-0.215 0.065,-0.402 0.196,-0.563c0.13,-0.161 0.341,-0.326 0.632,-0.495c0.537,-0.307 1.146,-0.548 1.829,-0.724c0.682,-0.177 1.36,-0.265 2.035,-0.265Zm-0.759,10.166c0.92,0 1.675,-0.31 2.266,-0.931c0.59,-0.621 0.885,-1.423 0.885,-2.404l0,-0.667l-0.414,0c-1.349,0 -2.377,0.058 -3.082,0.173c-0.705,0.115 -1.207,0.306 -1.506,0.575c-0.299,0.268 -0.449,0.663 -0.449,1.184c0,0.598 0.219,1.093 0.656,1.484c0.437,0.391 0.985,0.586 1.644,0.586Z" style="fill:#838383;fill-rule:nonzero;"/><path d="M65.891,241.523c0.981,0 1.848,0.245 2.599,0.736c0.751,0.491 1.334,1.177 1.748,2.059c0.414,0.881 0.621,1.905 0.621,3.07c0,1.165 -0.207,2.181 -0.621,3.048c-0.414,0.866 -0.993,1.537 -1.737,2.012c-0.743,0.475 -1.613,0.713 -2.61,0.713c-0.874,0 -1.637,-0.192 -2.289,-0.575c-0.651,-0.383 -1.146,-0.928 -1.483,-1.633l0,5.405c0,0.276 -0.081,0.495 -0.242,0.656c-0.161,0.161 -0.387,0.241 -0.678,0.241c-0.291,0 -0.521,-0.084 -0.69,-0.253c-0.169,-0.169 -0.253,-0.383 -0.253,-0.644l0,-13.869c0,-0.276 0.084,-0.498 0.253,-0.667c0.169,-0.169 0.399,-0.253 0.69,-0.253c0.291,0 0.517,0.084 0.678,0.253c0.161,0.169 0.242,0.391 0.242,0.667l0,1.242c0.337,-0.705 0.832,-1.25 1.483,-1.633c0.652,-0.383 1.415,-0.575 2.289,-0.575Zm-0.368,10.097c1.089,0 1.932,-0.368 2.53,-1.104c0.598,-0.736 0.897,-1.779 0.897,-3.128c0,-1.349 -0.299,-2.403 -0.897,-3.162c-0.598,-0.759 -1.441,-1.139 -2.53,-1.139c-1.089,0 -1.928,0.368 -2.519,1.104c-0.59,0.736 -0.885,1.786 -0.885,3.151c0,1.365 0.295,2.419 0.885,3.163c0.591,0.743 1.43,1.115 2.519,1.115Z" style="fill:#838383;fill-rule:nonzero;"/><path d="M78.794,251.643c0.537,0.046 0.805,0.291 0.805,0.736c0,0.261 -0.096,0.456 -0.287,0.587c-0.192,0.13 -0.48,0.18 -0.863,0.149l-0.621,-0.046c-1.227,-0.092 -2.131,-0.46 -2.714,-1.104c-0.583,-0.644 -0.874,-1.618 -0.874,-2.921l0,-5.773l-1.541,0c-0.261,0 -0.464,-0.065 -0.609,-0.195c-0.146,-0.131 -0.219,-0.303 -0.219,-0.518c0,-0.23 0.073,-0.414 0.218,-0.552c0.146,-0.138 0.349,-0.207 0.61,-0.207l1.541,0l0,-2.599c0,-0.291 0.084,-0.518 0.253,-0.679c0.169,-0.161 0.399,-0.241 0.69,-0.241c0.276,0 0.498,0.081 0.667,0.242c0.169,0.161 0.253,0.387 0.253,0.678l0,2.599l2.553,0c0.245,0 0.441,0.069 0.586,0.207c0.146,0.138 0.219,0.322 0.219,0.552c0,0.215 -0.073,0.387 -0.219,0.518c-0.145,0.13 -0.341,0.195 -0.586,0.195l-2.553,0l0,5.865c0,0.843 0.172,1.453 0.517,1.829c0.345,0.375 0.863,0.586 1.553,0.632l0.621,0.046Z" style="fill:#838383;fill-rule:nonzero;"/><path d="M89.949,241.569c0.291,0 0.518,0.084 0.678,0.253c0.162,0.169 0.242,0.391 0.242,0.667l0,9.729c0,0.261 -0.081,0.475 -0.242,0.644c-0.16,0.169 -0.387,0.253 -0.678,0.253c-0.276,0 -0.495,-0.081 -0.655,-0.242c-0.161,-0.161 -0.242,-0.371 -0.242,-0.632l0,-1.15c-0.353,0.675 -0.847,1.188 -1.483,1.541c-0.637,0.353 -1.354,0.529 -2.151,0.529c-1.334,0 -2.338,-0.372 -3.013,-1.115c-0.675,-0.744 -1.012,-1.844 -1.012,-3.301l0,-6.256c0,-0.276 0.084,-0.498 0.253,-0.667c0.169,-0.169 0.399,-0.253 0.69,-0.253c0.291,0 0.518,0.084 0.679,0.253c0.161,0.169 0.241,0.391 0.241,0.667l0,6.21c0,0.997 0.199,1.729 0.598,2.196c0.399,0.468 1.027,0.702 1.886,0.702c0.981,0 1.771,-0.318 2.369,-0.954c0.598,-0.637 0.897,-1.476 0.897,-2.519l0,-5.635c0,-0.276 0.084,-0.498 0.253,-0.667c0.169,-0.169 0.399,-0.253 0.69,-0.253Z" style="fill:#838383;fill-rule:nonzero;"/><path d="M99.885,241.569c0.644,-0.046 0.966,0.215 0.966,0.782c0,0.245 -0.069,0.441 -0.207,0.586c-0.138,0.146 -0.376,0.234 -0.713,0.265l-0.69,0.069c-1.027,0.092 -1.79,0.456 -2.289,1.092c-0.498,0.637 -0.747,1.384 -0.747,2.243l0,5.589c0,0.307 -0.084,0.537 -0.253,0.69c-0.169,0.153 -0.391,0.23 -0.667,0.23c-0.276,0 -0.502,-0.081 -0.678,-0.242c-0.177,-0.161 -0.265,-0.387 -0.265,-0.678l0,-9.706c0,-0.291 0.092,-0.518 0.276,-0.679c0.184,-0.161 0.406,-0.241 0.667,-0.241c0.245,0 0.452,0.08 0.621,0.241c0.169,0.161 0.253,0.38 0.253,0.656l0,1.288c0.322,-0.675 0.778,-1.188 1.368,-1.541c0.591,-0.353 1.269,-0.56 2.036,-0.621l0.322,-0.023Z" style="fill:#838383;fill-rule:nonzero;"/><path d="M110.902,250.401c0.169,0 0.314,0.069 0.437,0.207c0.123,0.138 0.184,0.314 0.184,0.529c0,0.383 -0.268,0.736 -0.805,1.058c-0.552,0.322 -1.135,0.564 -1.748,0.725c-0.613,0.161 -1.211,0.241 -1.794,0.241c-1.733,0 -3.101,-0.514 -4.105,-1.541c-1.005,-1.027 -1.507,-2.446 -1.507,-4.255c0,-1.15 0.222,-2.166 0.667,-3.048c0.445,-0.881 1.07,-1.567 1.875,-2.058c0.805,-0.491 1.721,-0.736 2.748,-0.736c1.457,0 2.614,0.475 3.473,1.426c0.859,0.951 1.288,2.239 1.288,3.864c0,0.307 -0.061,0.529 -0.184,0.667c-0.123,0.138 -0.322,0.207 -0.598,0.207l-7.406,0c0.138,2.637 1.388,3.956 3.749,3.956c0.598,0 1.112,-0.081 1.541,-0.242c0.429,-0.161 0.889,-0.379 1.38,-0.655c0.399,-0.23 0.667,-0.345 0.805,-0.345Zm-4.025,-7.429c-0.981,0 -1.767,0.307 -2.357,0.92c-0.591,0.613 -0.94,1.48 -1.047,2.599l6.509,0c-0.031,-1.135 -0.314,-2.005 -0.851,-2.61c-0.537,-0.606 -1.288,-0.909 -2.254,-0.909Z" style="fill:#838383;fill-rule:nonzero;"/><path d="M127.439,253.184c-1.533,0 -2.86,-0.333 -3.979,-1c-1.119,-0.667 -1.982,-1.626 -2.588,-2.875c-0.605,-1.25 -0.908,-2.726 -0.908,-4.428c0,-1.687 0.303,-3.155 0.908,-4.405c0.606,-1.249 1.469,-2.208 2.588,-2.875c1.119,-0.666 2.446,-1 3.979,-1c1.027,0 1.997,0.165 2.909,0.494c0.913,0.33 1.706,0.802 2.381,1.415c0.245,0.23 0.368,0.498 0.368,0.805c0,0.215 -0.061,0.403 -0.184,0.564c-0.123,0.161 -0.268,0.241 -0.437,0.241c-0.184,0 -0.406,-0.084 -0.667,-0.253c-0.782,-0.613 -1.491,-1.043 -2.127,-1.288c-0.637,-0.245 -1.369,-0.368 -2.197,-0.368c-1.779,0 -3.147,0.579 -4.105,1.736c-0.959,1.158 -1.438,2.803 -1.438,4.934c0,2.147 0.479,3.799 1.438,4.957c0.958,1.157 2.326,1.736 4.105,1.736c0.813,0 1.541,-0.123 2.185,-0.368c0.644,-0.245 1.357,-0.675 2.139,-1.288c0.261,-0.169 0.483,-0.253 0.667,-0.253c0.169,0 0.314,0.077 0.437,0.23c0.123,0.153 0.184,0.345 0.184,0.575c0,0.307 -0.123,0.575 -0.368,0.805c-0.675,0.613 -1.468,1.085 -2.381,1.415c-0.912,0.329 -1.882,0.494 -2.909,0.494Z" style="fill:#838383;fill-rule:nonzero;"/><path d="M136.8,253.115c-0.276,0 -0.502,-0.081 -0.679,-0.242c-0.176,-0.161 -0.264,-0.387 -0.264,-0.678l0,-14.605c0,-0.291 0.088,-0.518 0.264,-0.679c0.177,-0.161 0.403,-0.241 0.679,-0.241c0.261,0 0.479,0.08 0.655,0.241c0.177,0.161 0.265,0.388 0.265,0.679l0,14.605c0,0.291 -0.088,0.517 -0.265,0.678c-0.176,0.161 -0.394,0.242 -0.655,0.242Z" style="fill:#838383;fill-rule:nonzero;"/><path d="M142.136,253.115c-0.276,0 -0.502,-0.081 -0.679,-0.242c-0.176,-0.161 -0.264,-0.387 -0.264,-0.678l0,-9.706c0,-0.291 0.088,-0.518 0.264,-0.679c0.177,-0.161 0.403,-0.241 0.679,-0.241c0.276,0 0.498,0.08 0.667,0.241c0.169,0.161 0.253,0.388 0.253,0.679l0,9.706c0,0.307 -0.084,0.537 -0.253,0.69c-0.169,0.153 -0.391,0.23 -0.667,0.23Zm0,-13.961c-0.368,0 -0.667,-0.107 -0.897,-0.322c-0.23,-0.215 -0.345,-0.498 -0.345,-0.851c0,-0.337 0.115,-0.613 0.345,-0.828c0.23,-0.215 0.529,-0.322 0.897,-0.322c0.368,0 0.667,0.107 0.897,0.322c0.23,0.215 0.345,0.491 0.345,0.828c0,0.353 -0.115,0.636 -0.345,0.851c-0.23,0.215 -0.529,0.322 -0.897,0.322Z" style="fill:#838383;fill-rule:nonzero;"/><path d="M155.2,250.401c0.169,0 0.314,0.069 0.437,0.207c0.123,0.138 0.184,0.314 0.184,0.529c0,0.383 -0.268,0.736 -0.805,1.058c-0.552,0.322 -1.135,0.564 -1.748,0.725c-0.613,0.161 -1.211,0.241 -1.794,0.241c-1.733,0 -3.101,-0.514 -4.106,-1.541c-1.004,-1.027 -1.506,-2.446 -1.506,-4.255c0,-1.15 0.222,-2.166 0.667,-3.048c0.445,-0.881 1.069,-1.567 1.874,-2.058c0.805,-0.491 1.722,-0.736 2.749,-0.736c1.457,0 2.614,0.475 3.473,1.426c0.859,0.951 1.288,2.239 1.288,3.864c0,0.307 -0.061,0.529 -0.184,0.667c-0.123,0.138 -0.322,0.207 -0.598,0.207l-7.406,0c0.138,2.637 1.388,3.956 3.749,3.956c0.598,0 1.112,-0.081 1.541,-0.242c0.429,-0.161 0.889,-0.379 1.38,-0.655c0.399,-0.23 0.667,-0.345 0.805,-0.345Zm-4.025,-7.429c-0.981,0 -1.767,0.307 -2.358,0.92c-0.59,0.613 -0.939,1.48 -1.046,2.599l6.509,0c-0.031,-1.135 -0.314,-2.005 -0.851,-2.61c-0.537,-0.606 -1.288,-0.909 -2.254,-0.909Z" style="fill:#838383;fill-rule:nonzero;"/><path d="M164.285,241.523c2.683,0 4.025,1.48 4.025,4.439l0,6.233c0,0.291 -0.081,0.518 -0.242,0.679c-0.161,0.161 -0.387,0.241 -0.678,0.241c-0.291,0 -0.521,-0.081 -0.69,-0.242c-0.169,-0.161 -0.253,-0.387 -0.253,-0.678l0,-6.118c0,-1.043 -0.203,-1.802 -0.61,-2.277c-0.406,-0.475 -1.054,-0.713 -1.943,-0.713c-1.027,0 -1.848,0.314 -2.461,0.943c-0.613,0.629 -0.92,1.48 -0.92,2.553l0,5.612c0,0.291 -0.081,0.517 -0.242,0.678c-0.161,0.161 -0.387,0.242 -0.678,0.242c-0.291,0 -0.521,-0.081 -0.69,-0.242c-0.169,-0.161 -0.253,-0.387 -0.253,-0.678l0,-9.706c0,-0.276 0.084,-0.498 0.253,-0.667c0.169,-0.169 0.399,-0.253 0.69,-0.253c0.276,0 0.494,0.084 0.655,0.253c0.161,0.169 0.242,0.383 0.242,0.644l0,1.173c0.368,-0.69 0.882,-1.215 1.541,-1.576c0.659,-0.36 1.411,-0.54 2.254,-0.54Z" style="fill:#838383;fill-rule:nonzero;"/><path d="M176.889,251.643c0.537,0.046 0.805,0.291 0.805,0.736c0,0.261 -0.096,0.456 -0.288,0.587c-0.191,0.13 -0.479,0.18 -0.862,0.149l-0.621,-0.046c-1.227,-0.092 -2.131,-0.46 -2.714,-1.104c-0.583,-0.644 -0.874,-1.618 -0.874,-2.921l0,-5.773l-1.541,0c-0.261,0 -0.464,-0.065 -0.61,-0.195c-0.145,-0.131 -0.218,-0.303 -0.218,-0.518c0,-0.23 0.073,-0.414 0.218,-0.552c0.146,-0.138 0.349,-0.207 0.61,-0.207l1.541,0l0,-2.599c0,-0.291 0.084,-0.518 0.253,-0.679c0.169,-0.161 0.399,-0.241 0.69,-0.241c0.276,0 0.498,0.081 0.667,0.242c0.169,0.161 0.253,0.387 0.253,0.678l0,2.599l2.553,0c0.245,0 0.441,0.069 0.587,0.207c0.145,0.138 0.218,0.322 0.218,0.552c0,0.215 -0.073,0.387 -0.218,0.518c-0.146,0.13 -0.342,0.195 -0.587,0.195l-2.553,0l0,5.865c0,0.843 0.172,1.453 0.517,1.829c0.346,0.375 0.863,0.586 1.553,0.632l0.621,0.046Z" style="fill:#838383;fill-rule:nonzero;"/><path d="M186.089,247.641c-0.276,0 -0.487,-0.069 -0.633,-0.207c-0.145,-0.138 -0.218,-0.322 -0.218,-0.552c0,-0.23 0.073,-0.418 0.218,-0.564c0.146,-0.145 0.357,-0.218 0.633,-0.218l5.06,0c0.291,0 0.51,0.073 0.655,0.218c0.146,0.146 0.219,0.334 0.219,0.564c0,0.23 -0.073,0.414 -0.219,0.552c-0.145,0.138 -0.364,0.207 -0.655,0.207l-5.06,0Z" style="fill:#838383;fill-rule:nonzero;"/><path d="M215.414,251.919c0.061,0.123 0.092,0.253 0.092,0.391c0,0.23 -0.088,0.422 -0.265,0.575c-0.176,0.153 -0.387,0.23 -0.632,0.23c-0.383,0 -0.652,-0.184 -0.805,-0.552l-1.633,-3.726l-8.671,0l-1.656,3.726c-0.153,0.368 -0.422,0.552 -0.805,0.552c-0.245,0 -0.46,-0.08 -0.644,-0.241c-0.184,-0.161 -0.276,-0.357 -0.276,-0.587c0,-0.123 0.031,-0.245 0.092,-0.368l6.578,-14.628c0.092,-0.215 0.23,-0.376 0.414,-0.483c0.184,-0.107 0.383,-0.161 0.598,-0.161c0.23,0 0.437,0.058 0.621,0.173c0.184,0.114 0.322,0.272 0.414,0.471l6.578,14.628Zm-11.224,-4.646l7.291,0l-3.657,-8.257l-3.634,8.257Z" style="fill:#838383;fill-rule:nonzero;"/><path d="M226.891,236.67c0.291,0 0.521,0.084 0.69,0.253c0.169,0.169 0.253,0.383 0.253,0.644l0,14.628c0,0.276 -0.084,0.498 -0.253,0.667c-0.169,0.169 -0.399,0.253 -0.69,0.253c-0.291,0 -0.518,-0.084 -0.679,-0.253c-0.161,-0.169 -0.241,-0.391 -0.241,-0.667l0,-1.242c-0.337,0.705 -0.832,1.25 -1.483,1.633c-0.652,0.383 -1.415,0.575 -2.289,0.575c-0.981,0 -1.848,-0.245 -2.599,-0.736c-0.751,-0.491 -1.334,-1.177 -1.748,-2.059c-0.414,-0.881 -0.621,-1.905 -0.621,-3.07c0,-1.15 0.207,-2.162 0.621,-3.036c0.414,-0.874 0.997,-1.549 1.748,-2.024c0.751,-0.475 1.618,-0.713 2.599,-0.713c0.874,0 1.637,0.192 2.288,0.575c0.652,0.383 1.147,0.928 1.484,1.633l0,-6.164c0,-0.276 0.08,-0.495 0.241,-0.656c0.161,-0.161 0.388,-0.241 0.679,-0.241Zm-4.324,14.95c1.089,0 1.928,-0.372 2.518,-1.115c0.591,-0.744 0.886,-1.798 0.886,-3.163c0,-1.365 -0.295,-2.415 -0.886,-3.151c-0.59,-0.736 -1.429,-1.104 -2.518,-1.104c-1.089,0 -1.936,0.368 -2.542,1.104c-0.605,0.736 -0.908,1.771 -0.908,3.105c0,1.365 0.303,2.427 0.908,3.186c0.606,0.759 1.453,1.138 2.542,1.138Z" style="fill:#838383;fill-rule:nonzero;"/><path d="M239.357,242.144c0.169,-0.368 0.437,-0.552 0.805,-0.552c0.23,0 0.437,0.077 0.621,0.23c0.184,0.153 0.276,0.345 0.276,0.575c0,0.138 -0.031,0.261 -0.092,0.368l-4.485,9.66c-0.092,0.199 -0.23,0.357 -0.414,0.472c-0.184,0.115 -0.383,0.172 -0.598,0.172c-0.199,0 -0.391,-0.057 -0.575,-0.172c-0.184,-0.115 -0.33,-0.273 -0.437,-0.472l-4.462,-9.66c-0.061,-0.107 -0.092,-0.222 -0.092,-0.345c0,-0.23 0.103,-0.429 0.31,-0.598c0.207,-0.169 0.434,-0.253 0.679,-0.253c0.153,0 0.303,0.046 0.448,0.138c0.146,0.092 0.257,0.222 0.334,0.391l3.841,8.625l3.841,-8.579Z" style="fill:#838383;fill-rule:nonzero;"/><path d="M247.476,241.523c2.806,0 4.209,1.472 4.209,4.416l0,6.256c0,0.276 -0.081,0.498 -0.242,0.667c-0.161,0.169 -0.379,0.253 -0.655,0.253c-0.276,0 -0.498,-0.084 -0.667,-0.253c-0.169,-0.169 -0.253,-0.391 -0.253,-0.667l0,-1.104c-0.291,0.659 -0.736,1.169 -1.334,1.53c-0.598,0.36 -1.288,0.54 -2.07,0.54c-0.721,0 -1.384,-0.146 -1.99,-0.437c-0.605,-0.291 -1.084,-0.698 -1.437,-1.219c-0.353,-0.521 -0.529,-1.096 -0.529,-1.725c0,-0.843 0.215,-1.499 0.644,-1.966c0.429,-0.468 1.135,-0.805 2.116,-1.012c0.981,-0.207 2.346,-0.311 4.094,-0.311l0.506,0l0,-0.759c0,-0.92 -0.188,-1.595 -0.564,-2.024c-0.375,-0.429 -0.985,-0.644 -1.828,-0.644c-1.043,0 -2.101,0.284 -3.174,0.851c-0.414,0.261 -0.705,0.391 -0.874,0.391c-0.184,0 -0.337,-0.069 -0.46,-0.207c-0.123,-0.138 -0.184,-0.314 -0.184,-0.529c0,-0.215 0.065,-0.402 0.195,-0.563c0.131,-0.161 0.342,-0.326 0.633,-0.495c0.537,-0.307 1.146,-0.548 1.828,-0.724c0.683,-0.177 1.361,-0.265 2.036,-0.265Zm-0.759,10.166c0.92,0 1.675,-0.31 2.265,-0.931c0.591,-0.621 0.886,-1.423 0.886,-2.404l0,-0.667l-0.414,0c-1.349,0 -2.377,0.058 -3.082,0.173c-0.705,0.115 -1.208,0.306 -1.507,0.575c-0.299,0.268 -0.448,0.663 -0.448,1.184c0,0.598 0.218,1.093 0.655,1.484c0.437,0.391 0.986,0.586 1.645,0.586Z" style="fill:#838383;fill-rule:nonzero;"/><path d="M260.724,241.523c2.683,0 4.025,1.48 4.025,4.439l0,6.233c0,0.291 -0.08,0.518 -0.242,0.679c-0.16,0.161 -0.387,0.241 -0.678,0.241c-0.291,0 -0.521,-0.081 -0.69,-0.242c-0.169,-0.161 -0.253,-0.387 -0.253,-0.678l0,-6.118c0,-1.043 -0.203,-1.802 -0.61,-2.277c-0.406,-0.475 -1.054,-0.713 -1.943,-0.713c-1.027,0 -1.848,0.314 -2.461,0.943c-0.613,0.629 -0.92,1.48 -0.92,2.553l0,5.612c0,0.291 -0.08,0.517 -0.241,0.678c-0.161,0.161 -0.388,0.242 -0.679,0.242c-0.291,0 -0.521,-0.081 -0.69,-0.242c-0.169,-0.161 -0.253,-0.387 -0.253,-0.678l0,-9.706c0,-0.276 0.084,-0.498 0.253,-0.667c0.169,-0.169 0.399,-0.253 0.69,-0.253c0.276,0 0.494,0.084 0.656,0.253c0.16,0.169 0.241,0.383 0.241,0.644l0,1.173c0.368,-0.69 0.882,-1.215 1.541,-1.576c0.659,-0.36 1.411,-0.54 2.254,-0.54Z" style="fill:#838383;fill-rule:nonzero;"/><path d="M272.776,253.161c-1.043,0 -1.967,-0.238 -2.772,-0.713c-0.805,-0.475 -1.426,-1.15 -1.863,-2.024c-0.437,-0.874 -0.655,-1.886 -0.655,-3.036c0,-1.15 0.226,-2.17 0.678,-3.059c0.453,-0.889 1.085,-1.579 1.898,-2.07c0.813,-0.491 1.748,-0.736 2.806,-0.736c0.583,0 1.161,0.08 1.736,0.241c0.575,0.161 1.078,0.395 1.507,0.702c0.276,0.184 0.471,0.364 0.586,0.54c0.115,0.177 0.173,0.372 0.173,0.587c0,0.215 -0.058,0.391 -0.173,0.529c-0.115,0.138 -0.264,0.207 -0.448,0.207c-0.107,0 -0.222,-0.031 -0.345,-0.092c-0.123,-0.061 -0.226,-0.123 -0.311,-0.184c-0.084,-0.061 -0.141,-0.1 -0.172,-0.115c-0.399,-0.261 -0.778,-0.468 -1.139,-0.621c-0.36,-0.153 -0.801,-0.23 -1.322,-0.23c-1.119,0 -1.99,0.38 -2.611,1.139c-0.621,0.758 -0.931,1.813 -0.931,3.162c0,1.349 0.31,2.392 0.931,3.128c0.621,0.736 1.492,1.104 2.611,1.104c0.521,0 0.97,-0.077 1.345,-0.23c0.376,-0.153 0.756,-0.36 1.139,-0.621c0.169,-0.107 0.33,-0.199 0.483,-0.276c0.153,-0.077 0.284,-0.115 0.391,-0.115c0.169,0 0.31,0.069 0.425,0.207c0.115,0.138 0.173,0.314 0.173,0.529c0,0.199 -0.054,0.38 -0.161,0.541c-0.107,0.16 -0.307,0.341 -0.598,0.54c-0.429,0.291 -0.947,0.525 -1.553,0.702c-0.605,0.176 -1.215,0.264 -1.828,0.264Z" style="fill:#838383;fill-rule:nonzero;"/><path d="M287.841,250.401c0.169,0 0.314,0.069 0.437,0.207c0.123,0.138 0.184,0.314 0.184,0.529c0,0.383 -0.268,0.736 -0.805,1.058c-0.552,0.322 -1.135,0.564 -1.748,0.725c-0.613,0.161 -1.211,0.241 -1.794,0.241c-1.733,0 -3.101,-0.514 -4.106,-1.541c-1.004,-1.027 -1.506,-2.446 -1.506,-4.255c0,-1.15 0.222,-2.166 0.667,-3.048c0.445,-0.881 1.069,-1.567 1.874,-2.058c0.805,-0.491 1.722,-0.736 2.749,-0.736c1.457,0 2.614,0.475 3.473,1.426c0.859,0.951 1.288,2.239 1.288,3.864c0,0.307 -0.061,0.529 -0.184,0.667c-0.123,0.138 -0.322,0.207 -0.598,0.207l-7.406,0c0.138,2.637 1.388,3.956 3.749,3.956c0.598,0 1.112,-0.081 1.541,-0.242c0.429,-0.161 0.889,-0.379 1.38,-0.655c0.399,-0.23 0.667,-0.345 0.805,-0.345Zm-4.025,-7.429c-0.981,0 -1.767,0.307 -2.358,0.92c-0.59,0.613 -0.939,1.48 -1.046,2.599l6.509,0c-0.031,-1.135 -0.314,-2.005 -0.851,-2.61c-0.537,-0.606 -1.288,-0.909 -2.254,-0.909Z" style="fill:#838383;fill-rule:nonzero;"/><path d="M300.284,236.67c0.291,0 0.521,0.084 0.69,0.253c0.169,0.169 0.253,0.383 0.253,0.644l0,14.628c0,0.276 -0.084,0.498 -0.253,0.667c-0.169,0.169 -0.399,0.253 -0.69,0.253c-0.291,0 -0.518,-0.084 -0.679,-0.253c-0.161,-0.169 -0.241,-0.391 -0.241,-0.667l0,-1.242c-0.337,0.705 -0.832,1.25 -1.484,1.633c-0.651,0.383 -1.414,0.575 -2.288,0.575c-0.981,0 -1.848,-0.245 -2.599,-0.736c-0.751,-0.491 -1.334,-1.177 -1.748,-2.059c-0.414,-0.881 -0.621,-1.905 -0.621,-3.07c0,-1.15 0.207,-2.162 0.621,-3.036c0.414,-0.874 0.997,-1.549 1.748,-2.024c0.751,-0.475 1.618,-0.713 2.599,-0.713c0.874,0 1.637,0.192 2.288,0.575c0.652,0.383 1.147,0.928 1.484,1.633l0,-6.164c0,-0.276 0.08,-0.495 0.241,-0.656c0.161,-0.161 0.388,-0.241 0.679,-0.241Zm-4.324,14.95c1.089,0 1.928,-0.372 2.519,-1.115c0.59,-0.744 0.885,-1.798 0.885,-3.163c0,-1.365 -0.295,-2.415 -0.885,-3.151c-0.591,-0.736 -1.43,-1.104 -2.519,-1.104c-1.089,0 -1.936,0.368 -2.541,1.104c-0.606,0.736 -0.909,1.771 -0.909,3.105c0,1.365 0.303,2.427 0.909,3.186c0.605,0.759 1.452,1.138 2.541,1.138Z" style="fill:#838383;fill-rule:nonzero;"/></g><g id="Close-Button"><circle id="Oval2" serif:id="Oval" cx="196.5" cy="715.5" r="19.5" style="fill:#ff791a;"/><g id="x"><path d="M206,706.916l-0.791,-0.791l-8.209,8.209l-8.209,-8.209l-0.791,0.791l8.209,8.209l-8.209,8.209l0.791,0.791l8.209,-8.209l8.209,8.209l0.791,-0.791l-8.209,-8.209l8.209,-8.209Z" style="fill-rule:nonzero;"/></g></g></g></svg>