<?xml version="1.0" encoding="UTF-8" standalone="no"?>
<!DOCTYPE svg PUBLIC "-//W3C//DTD SVG 1.1//EN" "http://www.w3.org/Graphics/SVG/1.1/DTD/svg11.dtd">
<svg width="100%" height="100%" viewBox="0 0 292 293" version="1.1" xmlns="http://www.w3.org/2000/svg" xmlns:xlink="http://www.w3.org/1999/xlink" xml:space="preserve" xmlns:serif="http://www.serif.com/" style="fill-rule:evenodd;clip-rule:evenodd;stroke-linejoin:round;stroke-miterlimit:1.41421;">
    <g transform="matrix(1,0,0,1,-110,-103)">
        <g id="CCSC_2_">
            <rect x="76" y="69" width="360" height="360" style="fill:none;"/>
            <g>
                <g>
                    <g>
                        <path id="Shape_17_" d="M260.1,178.5C260.6,178.5 260.9,178.5 260.9,178.5L260.7,216.5C263.7,216.5 266.8,216.6 269.9,216.7C270.6,216.7 271.3,216.8 271.9,216.8C272,216.8 272.2,216.8 272.3,216.8C273,216.8 273.6,216.9 274.3,216.9C274.4,216.9 274.5,216.9 274.7,216.9C275.4,216.9 276,217 276.7,217L276.8,217C277.5,217 278.2,217.1 278.9,217.1C279.1,217.1 279.2,217.1 279.3,217.1C280,217.1 280.7,217.2 281.3,217.2C281.4,217.2 281.5,217.2 281.6,217.2C282.2,217.2 282.9,217.3 283.5,217.3C283.6,217.3 283.7,217.3 283.8,217.3C284.5,217.4 285.2,217.4 285.8,217.4C286,217.4 286.1,217.4 286.2,217.4C286.9,217.5 287.6,217.5 288.2,217.5C288.3,217.5 288.4,217.5 288.5,217.5C289.1,217.6 289.8,217.6 290.4,217.6C290.5,217.6 290.6,217.6 290.7,217.6C291.4,217.7 292,217.7 292.7,217.8C292.9,217.8 293,217.8 293.2,217.8C293.9,217.9 294.5,217.9 295.2,218C295.3,218 295.4,218 295.5,218C296.1,218.1 296.7,218.1 297.3,218.2C297.4,218.2 297.6,218.2 297.7,218.2C298.4,218.3 299,218.3 299.6,218.4C299.7,218.4 299.9,218.4 300,218.4C300.7,218.5 301.3,218.5 301.9,218.6C302,218.6 302,218.6 302.1,218.6C302.7,218.7 303.3,218.7 303.9,218.8C304,218.8 304.2,218.8 304.3,218.8C304.9,218.9 305.5,218.9 306.1,219C306.3,219 306.4,219 306.5,219.1C307.1,219.2 307.7,219.2 308.3,219.3L308.4,219.3C309,219.4 309.6,219.4 310.2,219.5C310.3,219.5 310.5,219.5 310.6,219.5C311.2,219.6 311.8,219.6 312.3,219.7C312.4,219.7 312.5,219.7 312.6,219.7C313.2,219.8 313.7,219.8 314.2,219.9C314.3,219.9 314.3,219.9 314.4,219.9C315,220 315.5,220 316.1,220.1C316.2,220.1 316.3,220.1 316.4,220.1C316.9,220.2 317.5,220.2 318,220.3C318.1,220.3 318.2,220.3 318.3,220.3C318.8,220.4 319.2,220.4 319.7,220.5C319.8,220.5 319.9,220.5 319.9,220.5C320.4,220.6 320.9,220.6 321.4,220.7C321.5,220.7 321.6,220.7 321.7,220.7C322.2,220.8 322.6,220.8 323.1,220.9C323.2,220.9 323.3,220.9 323.4,220.9C323.8,221 324.2,221 324.6,221L324.7,221C325,214 324.6,207.9 324.1,202.7C323.7,198.6 323.1,195 322.6,192.3C321.3,185 314.1,183.2 314.1,183.2C309,181.9 303.2,181 297.4,180.4C280.9,178.2 263.9,178.4 260.1,178.5Z" style="fill:rgb(101,101,107);fill-rule:nonzero;"/>
                        <path id="Shape_16_" d="M323.8,234.4C315.3,235.8 303.1,238 289.9,241.1C279.1,243.6 269.2,246.3 260.5,249.1L260,341.8L260.1,342.5C264,339.2 267.7,335.9 271.2,332.6C307.4,298.1 320.2,262.2 323.8,234.4Z" style="fill:rgb(101,101,107);fill-rule:nonzero;"/>
                        <path id="Shape_15_" d="M195.4,225C210.7,219.2 232.5,216.3 260.6,216.5L260.8,178.5C260.8,178.5 260.5,178.5 260,178.5C256.2,178.4 239.2,178.2 222.5,180.1C216.7,180.8 210.9,181.7 205.7,183C205.7,183 198.5,184.8 197.2,192.1C196.7,194.9 196.1,198.4 195.7,202.6C195.2,208.7 194.9,216.3 195.4,225Z" style="fill:rgb(157,157,159);fill-rule:nonzero;"/>
                        <path id="Shape_14_" d="M260.5,249.1C249.1,252.8 239.6,256.8 232.2,260.9C232.2,260.9 231.7,261.1 231,261.6C228,263.4 225.3,265.2 223.1,266.9C222.9,267 222.8,267.2 222.6,267.3C219.2,269.9 210.6,278.6 217.3,292.9C217.4,293.3 217.6,293.6 217.7,294C217.7,294 220.3,298.7 225.4,305.7C228.2,309.6 231.8,314.3 236.3,319.3C239.1,322.6 242.3,326 245.8,329.4C246.8,330.4 247.8,331.4 248.9,332.4C252.4,335.7 256.1,339 260,342.3L260,341.6L260.5,249.1Z" style="fill:rgb(157,157,159);fill-rule:nonzero;"/>
                    </g>
                    <path id="Shape_13_" d="M225.4,305.8C213.2,293 203.4,276 219.7,262.8C250.3,238.1 334.9,227.3 334.9,227.3C334.9,227.3 299.1,222.8 269.8,222C215.4,220.5 162.3,229.3 176.6,268.3C185.8,293.5 218.7,311.4 236.3,319.3C231.8,314.4 228.2,309.7 225.4,305.8Z" style="fill:rgb(255,108,12);fill-rule:nonzero;"/>
                </g>
                <g>
                    <path d="M129.7,238.7C134.7,176.4 184.6,126.9 247.1,122.5L247.1,104C174.5,108.4 116.3,166.2 111.3,238.7L129.7,238.7Z" style="fill:rgb(255,108,12);fill-rule:nonzero;"/>
                    <path d="M265.1,122.4C327.5,126.8 377.4,176.4 382.5,238.6L401,238.6C395.9,166.1 337.8,108.4 265.2,103.9L265.1,122.4Z" style="fill:rgb(157,157,159);fill-rule:nonzero;"/>
                    <path d="M382.6,256.7C378.8,320.2 328.3,371.1 265.1,375.5L265.1,394C338.5,389.5 397.2,330.4 401.1,256.7L382.6,256.7Z" style="fill:rgb(255,108,12);fill-rule:nonzero;"/>
                    <path d="M247,375.5C183.7,371.1 133.3,320.2 129.5,256.7L111,256.7C114.9,330.4 173.5,389.5 247,394L247,375.5Z" style="fill:rgb(157,157,159);fill-rule:nonzero;"/>
                </g>
            </g>
        </g>
    </g>
</svg>
