<?xml version="1.0" encoding="UTF-8"?>
<svg width="101px" height="101px" viewBox="0 0 101 101" version="1.1" xmlns="http://www.w3.org/2000/svg" xmlns:xlink="http://www.w3.org/1999/xlink">
    <!-- Generator: Sketch 52.5 (67469) - http://www.bohemiancoding.com/sketch -->
    <title>Corporate</title>
    <desc>Created with Sketch.</desc>
    <g id="Page-1" stroke="none" stroke-width="1" fill="none" fill-rule="evenodd">
        <g id="RM-Composited" transform="translate(-1092.000000, -2352.000000)" fill="#96CD2C">
            <g id="Corporate-Ring" transform="translate(992.633860, 2258.976154)">
                <path d="M145.019531,133.289063 L145.019531,135.730469 L142.480469,135.730469 L142.480469,133.289063 L145.019531,133.289063 Z M145.019531,128.210938 L145.019531,130.75 L142.480469,130.75 L142.480469,128.210938 L145.019531,128.210938 Z M145.019531,120.789063 L145.019531,123.230469 L142.480469,123.230469 L142.480469,120.789063 L145.019531,120.789063 Z M145.019531,113.269531 L145.019531,115.710938 L142.480469,115.710938 L142.480469,113.269531 L145.019531,113.269531 Z M145.019531,110.730469 L145.019531,113.269531 L142.480469,113.269531 L142.480469,110.730469 L145.019531,110.730469 Z M142.480469,178.210938 L142.480469,140.710938 L145.019531,140.710938 L145.019531,178.210938 L142.480469,178.210938 Z M150,133.289063 L150,135.730469 L147.460938,135.730469 L147.460938,133.289063 L150,133.289063 Z M154.980469,135.730469 L154.980469,133.289063 L157.519531,133.289063 L157.519531,135.730469 L154.980469,135.730469 Z M150,128.210938 L150,130.75 L147.460938,130.75 L147.460938,128.210938 L150,128.210938 Z M150,120.789063 L150,123.230469 L147.460938,123.230469 L147.460938,120.789063 L150,120.789063 Z M150,113.269531 L150,115.710938 L147.460938,115.710938 L147.460938,113.269531 L150,113.269531 Z M150,110.730469 L150,113.269531 L147.460938,113.269531 L147.460938,110.730469 L150,110.730469 Z M150,140.710938 L150,143.25 L147.460938,143.25 L147.460938,140.710938 L150,140.710938 Z M150,145.789063 L150,148.230469 L147.460938,148.230469 L147.460938,145.789063 L150,145.789063 Z M150,153.210938 L150,155.75 L147.460938,155.75 L147.460938,153.210938 L150,153.210938 Z M150,158.289063 L150,160.730469 L147.460938,160.730469 L147.460938,158.289063 L150,158.289063 Z M150,165.710938 L150,168.25 L147.460938,168.25 L147.460938,165.710938 L150,165.710938 Z M150,173.230469 L150,175.769531 L147.460938,175.769531 L147.460938,173.230469 L150,173.230469 Z M147.460938,178.210938 L147.460938,175.769531 L150,175.769531 L150,178.210938 L147.460938,178.210938 Z M157.519531,128.210938 L157.519531,130.75 L154.980469,130.75 L154.980469,128.210938 L157.519531,128.210938 Z M137.5,133.289063 L137.5,135.730469 L134.960938,135.730469 L134.960938,133.289063 L137.5,133.289063 Z M137.5,128.210938 L137.5,130.75 L134.960938,130.75 L134.960938,128.210938 L137.5,128.210938 Z M137.5,120.789063 L137.5,123.230469 L134.960938,123.230469 L134.960938,120.789063 L137.5,120.789063 Z M137.5,113.269531 L137.5,115.710938 L134.960938,115.710938 L134.960938,113.269531 L137.5,113.269531 Z M134.960938,178.210938 L134.960938,140.710938 L137.5,140.710938 L137.5,178.210938 L134.960938,178.210938 Z M129.980469,133.289063 L129.980469,135.730469 L127.539063,135.730469 L127.539063,133.289063 L129.980469,133.289063 Z M129.980469,140.710938 L129.980469,143.25 L127.539063,143.25 L127.539063,140.710938 L129.980469,140.710938 Z M129.980469,145.789063 L129.980469,148.230469 L127.539063,148.230469 L127.539063,145.789063 L129.980469,145.789063 Z M129.980469,153.210938 L129.980469,155.75 L127.539063,155.75 L127.539063,153.210938 L129.980469,153.210938 Z M129.980469,158.289063 L129.980469,160.730469 L127.539063,160.730469 L127.539063,158.289063 L129.980469,158.289063 Z M129.980469,165.710938 L129.980469,168.25 L127.539063,168.25 L127.539063,165.710938 L129.980469,165.710938 Z M129.980469,173.230469 L129.980469,175.769531 L127.539063,175.769531 L127.539063,173.230469 L129.980469,173.230469 Z M127.539063,178.210938 L127.539063,175.769531 L129.980469,175.769531 L129.980469,178.210938 L127.539063,178.210938 Z M125,140.710938 L125,143.25 L122.460938,143.25 L122.460938,140.710938 L125,140.710938 Z M125,145.789063 L125,148.230469 L122.460938,148.230469 L122.460938,145.789063 L125,145.789063 Z M122.460938,155.75 L122.460938,153.210938 L125,153.210938 L125,155.75 L122.460938,155.75 Z M118.359375,135.4375 L118.359375,148.230469 L115.039063,148.230469 L115.039063,133.777344 L128.320313,126.0625 L128.320313,109.265625 L154.492188,93.25 L158.300781,93.25 L158.300781,116.882813 L165.039063,121.472656 L165.039063,129.871094 L161.621094,129.871094 L161.621094,123.230469 L154.980469,118.640625 L154.980469,96.765625 L131.640625,110.925781 L131.640625,127.820313 L118.359375,135.4375 Z M179.980469,148.230469 L179.980469,145.789063 L162.5,145.789063 L162.5,148.230469 L179.980469,148.230469 Z M179.980469,155.75 L179.980469,153.210938 L162.5,153.210938 L162.5,155.75 L179.980469,155.75 Z M179.980469,160.730469 L179.980469,158.289063 L162.5,158.289063 L162.5,160.730469 L179.980469,160.730469 Z M179.980469,168.25 L179.980469,165.710938 L162.5,165.710938 L162.5,168.25 L179.980469,168.25 Z M170.019531,175.769531 L170.019531,173.230469 L162.5,173.230469 L162.5,175.769531 L170.019531,175.769531 Z M162.5,175.769531 L162.5,178.210938 L168.066406,178.210938 L168.066406,175.769531 L162.5,175.769531 Z M196.289063,183.777344 L200,183.777344 L200,193.25 L196.679688,193.25 L196.679688,186.902344 L103.320313,186.902344 L103.320313,193.25 L100,193.25 L100,183.777344 L115.039063,183.777344 L115.039063,180.457031 C113.085928,180.066404 111.474616,179.154955 110.205078,177.722656 C108.935541,176.290357 108.300781,174.630218 108.300781,172.742188 C108.300781,171.505202 108.626299,169.845063 109.277344,167.761719 C109.928389,165.743479 110.660803,163.708995 111.474609,161.658203 C112.288416,159.607412 113.053382,157.768237 113.769531,156.140625 C114.550785,154.513013 115.00651,153.503908 115.136719,153.113281 C115.332032,152.787759 115.559895,152.559896 115.820313,152.429688 C116.08073,152.299479 116.373696,152.234375 116.699219,152.234375 C117.024741,152.234375 117.333983,152.299479 117.626953,152.429688 C117.919923,152.559896 118.098958,152.787759 118.164063,153.113281 C118.359376,153.503908 118.815101,154.513013 119.53125,156.140625 C120.247399,157.768237 121.012366,159.607412 121.826172,161.658203 C122.639978,163.708995 123.372393,165.743479 124.023438,167.761719 C124.674482,169.845063 125,171.505202 125,172.742188 C125,174.630218 124.365241,176.290357 123.095703,177.722656 C121.826166,179.154955 120.247405,180.066404 118.359375,180.457031 L118.359375,183.777344 L154.980469,183.777344 L154.980469,139.539063 L161.621094,139.539063 L161.621094,133.289063 L178.320313,133.289063 L178.320313,139.539063 L184.960938,139.539063 L184.960938,167.957031 L181.640625,167.957031 C180.859371,167.957031 179.931646,168.233721 178.857422,168.787109 C177.783198,169.340498 176.692714,170.138016 175.585938,171.179688 C174.869788,171.830732 174.235029,172.546871 173.681641,173.328125 C173.128252,174.109379 172.656252,174.955725 172.265625,175.867188 C171.02864,177.039068 170.084639,178.129552 169.433594,179.138672 C168.782549,180.147792 168.457031,181.042965 168.457031,181.824219 C168.457031,182.605473 168.473307,183.158853 168.505859,183.484375 C168.538412,183.809897 168.619791,183.907553 168.75,183.777344 L171.972656,183.777344 C171.907552,183.516926 171.842448,183.272788 171.777344,183.044922 C171.712239,182.817056 171.679688,182.540366 171.679688,182.214844 C171.679688,181.173172 172.005205,180.229171 172.65625,179.382813 C173.307295,178.536454 174.153641,177.950522 175.195313,177.625 C175.520835,175.73697 176.464836,174.190761 178.027344,172.986328 C179.589852,171.781895 181.347646,171.179688 183.300781,171.179688 C185.319021,171.179688 187.093091,171.765619 188.623047,172.9375 C190.153002,174.109381 191.113279,175.606762 191.503906,177.429688 C192.936205,177.364583 194.156896,177.804032 195.166016,178.748047 C196.175135,179.692062 196.679688,180.847649 196.679688,182.214844 C196.679688,182.540366 196.647136,182.817056 196.582031,183.044922 C196.516927,183.272788 196.419271,183.516926 196.289063,183.777344 Z M165.039063,138.269531 L165.039063,140.710938 L175,140.710938 L175,138.269531 L165.039063,138.269531 Z M115.820313,175.769531 L115.820313,170.300781 L119.140625,170.300781 L119.140625,175.769531 C120.182297,175.444009 120.996091,174.923181 121.582031,174.207031 C122.167972,173.490882 122.460938,172.677088 122.460938,171.765625 C122.460938,170.463535 121.907558,168.42905 120.800781,165.662109 C119.694005,162.895168 118.587245,160.437511 117.480469,158.289063 C116.438797,160.437511 115.348313,162.895168 114.208984,165.662109 C113.069656,168.42905 112.5,170.463535 112.5,171.765625 C112.5,172.677088 112.809242,173.490882 113.427734,174.207031 C114.046227,174.923181 114.843745,175.444009 115.820313,175.769531 Z M176.5625,185.730469 L190.917969,185.730469 C191.3737,185.730469 191.748045,185.583986 192.041016,185.291016 C192.333986,184.998045 192.480469,184.591148 192.480469,184.070313 C192.480469,183.484372 192.220055,183.012372 191.699219,182.654297 C191.178383,182.296222 190.657555,182.279946 190.136719,182.605469 C189.876301,182.735678 189.599611,182.800781 189.306641,182.800781 C189.01367,182.800781 188.73698,182.735678 188.476563,182.605469 C188.281249,182.410155 188.102214,182.166017 187.939453,181.873047 C187.776692,181.580077 187.695313,181.303387 187.695313,181.042969 L187.695313,180.75 C187.695313,179.317701 187.239588,178.129562 186.328125,177.185547 C185.416662,176.241532 184.277351,175.769531 182.910156,175.769531 C181.608066,175.769531 180.501307,176.241532 179.589844,177.185547 C178.678381,178.129562 178.222656,179.317701 178.222656,180.75 C178.222656,181.270836 178.076173,181.677733 177.783203,181.970703 C177.490233,182.263673 177.083336,182.410156 176.5625,182.410156 C176.106769,182.410156 175.732423,182.556639 175.439453,182.849609 C175.146483,183.14258 175,183.549477 175,184.070313 C175,184.591148 175.146483,184.998045 175.439453,185.291016 C175.732423,185.583986 176.106769,185.730469 176.5625,185.730469 Z" id="Corporate"></path>
            </g>
        </g>
    </g>
</svg>