<?xml version="1.0" encoding="UTF-8" standalone="no"?>
<!DOCTYPE svg PUBLIC "-//W3C//DTD SVG 1.1//EN" "http://www.w3.org/Graphics/SVG/1.1/DTD/svg11.dtd">
<svg width="100%" height="100%" viewBox="0 0 101 101" version="1.1" xmlns="http://www.w3.org/2000/svg" xmlns:xlink="http://www.w3.org/1999/xlink" xml:space="preserve" xmlns:serif="http://www.serif.com/" style="fill-rule:evenodd;clip-rule:evenodd;stroke-linejoin:round;stroke-miterlimit:1.41421;">
    <g transform="matrix(1,0,0,1,-1094,-1091)">
        <g transform="matrix(1,0,0,1,994.634,997.976)">
            <g transform="matrix(1,0,0,1,100,187)">
                <g id="Corporate-Orange">
                    <path d="M45.02,-53.711L42.48,-53.711L42.48,-51.27L45.02,-51.27L45.02,-53.711ZM45.02,-58.789L42.48,-58.789L42.48,-56.25L45.02,-56.25L45.02,-58.789ZM45.02,-66.211L42.48,-66.211L42.48,-63.77L45.02,-63.77L45.02,-66.211ZM45.02,-73.73L42.48,-73.73L42.48,-71.289L45.02,-71.289L45.02,-73.73ZM45.02,-76.27L42.48,-76.27L42.48,-73.73L45.02,-73.73L45.02,-76.27ZM42.48,-8.789L45.02,-8.789L45.02,-46.289L42.48,-46.289L42.48,-8.789ZM50,-53.711L47.461,-53.711L47.461,-51.27L50,-51.27L50,-53.711ZM54.98,-51.27L57.52,-51.27L57.52,-53.711L54.98,-53.711L54.98,-51.27ZM50,-58.789L47.461,-58.789L47.461,-56.25L50,-56.25L50,-58.789ZM50,-66.211L47.461,-66.211L47.461,-63.77L50,-63.77L50,-66.211ZM50,-73.73L47.461,-73.73L47.461,-71.289L50,-71.289L50,-73.73ZM50,-76.27L47.461,-76.27L47.461,-73.73L50,-73.73L50,-76.27ZM50,-46.289L47.461,-46.289L47.461,-43.75L50,-43.75L50,-46.289ZM50,-41.211L47.461,-41.211L47.461,-38.77L50,-38.77L50,-41.211ZM50,-33.789L47.461,-33.789L47.461,-31.25L50,-31.25L50,-33.789ZM50,-28.711L47.461,-28.711L47.461,-26.27L50,-26.27L50,-28.711ZM50,-21.289L47.461,-21.289L47.461,-18.75L50,-18.75L50,-21.289ZM50,-13.77L47.461,-13.77L47.461,-11.23L50,-11.23L50,-13.77ZM47.461,-8.789L50,-8.789L50,-11.23L47.461,-11.23L47.461,-8.789ZM57.52,-58.789L54.98,-58.789L54.98,-56.25L57.52,-56.25L57.52,-58.789ZM37.5,-53.711L34.961,-53.711L34.961,-51.27L37.5,-51.27L37.5,-53.711ZM37.5,-58.789L34.961,-58.789L34.961,-56.25L37.5,-56.25L37.5,-58.789ZM37.5,-66.211L34.961,-66.211L34.961,-63.77L37.5,-63.77L37.5,-66.211ZM37.5,-73.73L34.961,-73.73L34.961,-71.289L37.5,-71.289L37.5,-73.73ZM34.961,-8.789L37.5,-8.789L37.5,-46.289L34.961,-46.289L34.961,-8.789ZM29.98,-53.711L27.539,-53.711L27.539,-51.27L29.98,-51.27L29.98,-53.711ZM29.98,-46.289L27.539,-46.289L27.539,-43.75L29.98,-43.75L29.98,-46.289ZM29.98,-41.211L27.539,-41.211L27.539,-38.77L29.98,-38.77L29.98,-41.211ZM29.98,-33.789L27.539,-33.789L27.539,-31.25L29.98,-31.25L29.98,-33.789ZM29.98,-28.711L27.539,-28.711L27.539,-26.27L29.98,-26.27L29.98,-28.711ZM29.98,-21.289L27.539,-21.289L27.539,-18.75L29.98,-18.75L29.98,-21.289ZM29.98,-13.77L27.539,-13.77L27.539,-11.23L29.98,-11.23L29.98,-13.77ZM27.539,-8.789L29.98,-8.789L29.98,-11.23L27.539,-11.23L27.539,-8.789ZM25,-46.289L22.461,-46.289L22.461,-43.75L25,-43.75L25,-46.289ZM25,-41.211L22.461,-41.211L22.461,-38.77L25,-38.77L25,-41.211ZM22.461,-31.25L25,-31.25L25,-33.789L22.461,-33.789L22.461,-31.25ZM18.359,-51.563L31.641,-59.18L31.641,-76.074L54.98,-90.234L54.98,-68.359L61.621,-63.77L61.621,-57.129L65.039,-57.129L65.039,-65.527L58.301,-70.117L58.301,-93.75L54.492,-93.75L28.32,-77.734L28.32,-60.938L15.039,-53.223L15.039,-38.77L18.359,-38.77L18.359,-51.563ZM79.98,-38.77L62.5,-38.77L62.5,-41.211L79.98,-41.211L79.98,-38.77ZM79.98,-31.25L62.5,-31.25L62.5,-33.789L79.98,-33.789L79.98,-31.25ZM79.98,-26.27L62.5,-26.27L62.5,-28.711L79.98,-28.711L79.98,-26.27ZM79.98,-18.75L62.5,-18.75L62.5,-21.289L79.98,-21.289L79.98,-18.75ZM70.02,-11.23L62.5,-11.23L62.5,-13.77L70.02,-13.77L70.02,-11.23ZM62.5,-11.23L68.066,-11.23L68.066,-8.789L62.5,-8.789L62.5,-11.23ZM96.289,-3.223C96.419,-3.483 96.517,-3.727 96.582,-3.955C96.647,-4.183 96.68,-4.46 96.68,-4.785C96.68,-6.152 96.175,-7.308 95.166,-8.252C94.157,-9.196 92.936,-9.635 91.504,-9.57C91.113,-11.393 90.153,-12.891 88.623,-14.063C87.093,-15.234 85.319,-15.82 83.301,-15.82C81.348,-15.82 79.59,-15.218 78.027,-14.014C76.465,-12.809 75.521,-11.263 75.195,-9.375C74.154,-9.049 73.307,-8.464 72.656,-7.617C72.005,-6.771 71.68,-5.827 71.68,-4.785C71.68,-4.46 71.712,-4.183 71.777,-3.955C71.842,-3.727 71.908,-3.483 71.973,-3.223L68.75,-3.223C68.62,-3.092 68.538,-3.19 68.506,-3.516C68.473,-3.841 68.457,-4.395 68.457,-5.176C68.457,-5.957 68.783,-6.852 69.434,-7.861C70.085,-8.87 71.029,-9.961 72.266,-11.133C72.656,-12.044 73.128,-12.891 73.682,-13.672C74.235,-14.453 74.87,-15.169 75.586,-15.82C76.693,-16.862 77.783,-17.66 78.857,-18.213C79.932,-18.766 80.859,-19.043 81.641,-19.043L84.961,-19.043L84.961,-47.461L78.32,-47.461L78.32,-53.711L61.621,-53.711L61.621,-47.461L54.98,-47.461L54.98,-3.223L18.359,-3.223L18.359,-6.543C20.247,-6.934 21.826,-7.845 23.096,-9.277C24.365,-10.71 25,-12.37 25,-14.258C25,-15.495 24.674,-17.155 24.023,-19.238C23.372,-21.257 22.64,-23.291 21.826,-25.342C21.012,-27.393 20.247,-29.232 19.531,-30.859C18.815,-32.487 18.359,-33.496 18.164,-33.887C18.099,-34.212 17.92,-34.44 17.627,-34.57C17.334,-34.701 17.025,-34.766 16.699,-34.766C16.374,-34.766 16.081,-34.701 15.82,-34.57C15.56,-34.44 15.332,-34.212 15.137,-33.887C15.007,-33.496 14.551,-32.487 13.77,-30.859C13.053,-29.232 12.288,-27.393 11.475,-25.342C10.661,-23.291 9.928,-21.257 9.277,-19.238C8.626,-17.155 8.301,-15.495 8.301,-14.258C8.301,-12.37 8.936,-10.71 10.205,-9.277C11.475,-7.845 13.086,-6.934 15.039,-6.543L15.039,-3.223L0,-3.223L0,6.25L3.32,6.25L3.32,-0.098L96.68,-0.098L96.68,6.25L100,6.25L100,-3.223L96.289,-3.223ZM65.039,-48.73L75,-48.73L75,-46.289L65.039,-46.289L65.039,-48.73ZM15.82,-11.23C14.844,-11.556 14.046,-12.077 13.428,-12.793C12.809,-13.509 12.5,-14.323 12.5,-15.234C12.5,-16.536 13.07,-18.571 14.209,-21.338C15.348,-24.105 16.439,-26.563 17.48,-28.711C18.587,-26.563 19.694,-24.105 20.801,-21.338C21.908,-18.571 22.461,-16.536 22.461,-15.234C22.461,-14.323 22.168,-13.509 21.582,-12.793C20.996,-12.077 20.182,-11.556 19.141,-11.23L19.141,-16.699L15.82,-16.699L15.82,-11.23ZM76.563,-1.27C76.107,-1.27 75.732,-1.416 75.439,-1.709C75.146,-2.002 75,-2.409 75,-2.93C75,-3.451 75.146,-3.857 75.439,-4.15C75.732,-4.443 76.107,-4.59 76.563,-4.59C77.083,-4.59 77.49,-4.736 77.783,-5.029C78.076,-5.322 78.223,-5.729 78.223,-6.25C78.223,-7.682 78.678,-8.87 79.59,-9.814C80.501,-10.758 81.608,-11.23 82.91,-11.23C84.277,-11.23 85.417,-10.758 86.328,-9.814C87.24,-8.87 87.695,-7.682 87.695,-6.25L87.695,-5.957C87.695,-5.697 87.777,-5.42 87.939,-5.127C88.102,-4.834 88.281,-4.59 88.477,-4.395C88.737,-4.264 89.014,-4.199 89.307,-4.199C89.6,-4.199 89.876,-4.264 90.137,-4.395C90.658,-4.72 91.178,-4.704 91.699,-4.346C92.22,-3.988 92.48,-3.516 92.48,-2.93C92.48,-2.409 92.334,-2.002 92.041,-1.709C91.748,-1.416 91.374,-1.27 90.918,-1.27L76.563,-1.27Z" style="fill:rgb(255,204,0);fill-rule:nonzero;"/>
                </g>
            </g>
        </g>
    </g>
</svg>
