<?xml version="1.0" encoding="UTF-8"?>
<svg width="48px" height="48px" viewBox="0 0 48 48" version="1.1" xmlns="http://www.w3.org/2000/svg" xmlns:xlink="http://www.w3.org/1999/xlink">
    <!-- Generator: Sketch 51.3 (57544) - http://www.bohemiancoding.com/sketch -->
    <title>CSC - Color - OnWhite</title>
    <desc>Created with Sketch.</desc>
    <defs></defs>
    <g id="CSC---Color---OnWhite" stroke="none" stroke-width="1" fill="none" fill-rule="evenodd">
        <g id="Logo_CSC_Color" fill-rule="nonzero">
            <path d="M24.7437328,12.2506406 C25.369215,12.2341459 28.1674248,12.2011564 30.8833343,12.5640406 C31.8380176,12.6630091 32.792701,12.8114617 33.6321639,13.0258934 C33.6321639,13.0258934 34.8172881,13.3227987 35.0312688,14.5269146 C35.1135691,14.9722726 35.2123295,15.5660832 35.2781697,16.2423676 C35.36047,17.100094 35.4263102,18.1062731 35.37693,19.2609049 C35.37693,19.2609049 35.37693,19.2609049 35.36047,19.2609049 C35.2946297,19.2609049 35.2287895,19.2609049 35.1629493,19.2444102 C35.1464892,19.2444102 35.1300292,19.2444102 35.1135691,19.2444102 C35.0312688,19.2279154 34.9654286,19.2279154 34.8831283,19.2114207 C34.8666682,19.2114207 34.8502082,19.2114207 34.8337481,19.2114207 C34.7514478,19.1949259 34.6691476,19.1949259 34.5868473,19.1784312 C34.5868473,19.1784312 34.5703872,19.1784312 34.5539271,19.1784312 C34.4716269,19.1619365 34.4057866,19.1619365 34.3234863,19.1454417 C34.3070263,19.1454417 34.2905662,19.1454417 34.2741062,19.1454417 C34.1918059,19.128947 34.0930455,19.128947 34.0107452,19.1124522 C33.9942852,19.1124522 33.9778251,19.1124522 33.9613651,19.1124522 C33.8626047,19.0959575 33.7803044,19.0959575 33.6815441,19.0794628 C33.665084,19.0794628 33.665084,19.0794628 33.648624,19.0794628 C33.5663237,19.062968 33.4840234,19.062968 33.3852631,19.0464733 C33.368803,19.0464733 33.3523429,19.0464733 33.3358829,19.0464733 C33.2535826,19.0299785 33.1548222,19.0299785 33.0560619,19.0134838 C33.0396018,19.0134838 33.0066817,19.0134838 32.9902217,19.0134838 C32.8914613,18.9969891 32.792701,18.9969891 32.6939406,18.9804943 L32.6774806,18.9804943 C32.5787202,18.9639996 32.4799599,18.9639996 32.3811995,18.9475048 C32.3647395,18.9310101 32.3482794,18.9310101 32.3153593,18.9310101 C32.216599,18.9145154 32.1178386,18.9145154 32.0190783,18.8980206 C32.0026182,18.8980206 31.9696981,18.8980206 31.953238,18.8980206 C31.8544777,18.8815259 31.7557173,18.8815259 31.656957,18.8650311 C31.6404969,18.8650311 31.6404969,18.8650311 31.6240369,18.8650311 C31.5252765,18.8485364 31.4265162,18.8485364 31.3112958,18.8320417 C31.2948357,18.8320417 31.2619156,18.8320417 31.2454556,18.8320417 C31.1466952,18.8155469 31.0479349,18.8155469 30.9327145,18.7990522 C30.9162544,18.7990522 30.8833343,18.7990522 30.8668742,18.7990522 C30.7681139,18.7825574 30.6693535,18.7825574 30.5705932,18.7660627 C30.5541331,18.7660627 30.5376731,18.7660627 30.521213,18.7660627 C30.4059926,18.749568 30.3072323,18.749568 30.1920119,18.7330732 C30.1590918,18.7330732 30.1426317,18.7330732 30.1097116,18.7330732 C29.9944912,18.7165785 29.8957308,18.7165785 29.7805104,18.7000837 C29.7640504,18.7000837 29.7475903,18.7000837 29.7311303,18.7000837 C29.6323699,18.7000837 29.5171495,18.7000837 29.4183892,18.683589 C29.4019291,18.683589 29.385469,18.683589 29.369009,18.683589 C29.2702486,18.683589 29.1550282,18.683589 29.0398078,18.6670943 C29.0233478,18.6670943 29.0068877,18.6670943 28.9739676,18.6670943 C28.8752073,18.6670943 28.7599869,18.6670943 28.6447664,18.6505995 C28.6283064,18.6505995 28.6118463,18.6505995 28.5953863,18.6505995 C28.4966259,18.6505995 28.3814055,18.6341048 28.2826452,18.6341048 C28.2661851,18.6341048 28.2497251,18.6341048 28.233265,18.6341048 C28.1345047,18.6341048 28.0192843,18.6176101 27.9040639,18.6176101 C27.8876038,18.6176101 27.8711437,18.6176101 27.8382236,18.6176101 C27.7230032,18.6176101 27.6077828,18.6011153 27.4925624,18.6011153 L27.4761024,18.6011153 C27.360882,18.6011153 27.2621216,18.5846206 27.1469012,18.5846206 C27.1139811,18.5846206 27.097521,18.5846206 27.081061,18.5846206 C26.9658406,18.5846206 26.8670802,18.5681258 26.7518598,18.5681258 C26.7353998,18.5681258 26.7024796,18.5681258 26.6860196,18.5681258 C26.5872592,18.5681258 26.4720388,18.5516311 26.3568184,18.5516311 C25.8465566,18.5351364 25.3362949,18.5186416 24.8424931,18.5186416 L24.8754132,12.2506406 C24.8754132,12.2506406 24.8260331,12.2506406 24.7437328,12.2506406 Z M35.2287895,21.4712 C34.6362274,26.0567376 32.5293401,31.9783491 26.5707992,37.6690342 C25.9946972,38.2133606 25.3807833,38.7633768 24.738841,39.3077032 L24.7272727,39.1865502 L24.809573,23.8959267 C26.241598,23.434074 27.8711437,22.988716 29.64883,22.5763475 C31.8215576,22.0650106 33.8296846,21.7021263 35.2287895,21.4712 Z" id="shield_r_gray" fill="#65656B"></path>
            <path d="M14.103137,19.9453758 C14.0203783,18.5058721 14.0700335,17.2483747 14.1527921,16.2390676 C14.218999,15.5441348 14.3183094,14.9650241 14.401068,14.5017356 C14.6162404,13.2938763 15.8079646,12.9960479 15.8079646,12.9960479 C16.6686542,12.7809497 17.6286542,12.6320355 18.5886542,12.5162134 C21.3527921,12.201839 24.1665852,12.2349311 24.7955508,12.2514771 C24.8783094,12.2514771 24.9279646,12.2514771 24.9279646,12.2514771 L24.8948611,18.5389642 C20.2438266,18.5058721 16.6355508,18.9857067 14.103137,19.9453758 Z M25.5062069,3.06101344 L25.5227586,0 C37.5393103,0.744570838 47.1558621,10.2916236 48,22.2874871 L44.937931,22.2874871 C44.0937931,11.9958635 35.8344828,3.78903826 25.5062069,3.06101344 Z M22.5103448,44.9389866 L22.5103448,48 C10.3448276,47.2554292 0.645517241,37.4767322 0,25.2823164 L3.06206897,25.2823164 C3.69103448,35.7890383 12.0331034,44.2109617 22.5103448,44.9389866 Z M24.8222263,23.8872562 L24.7394677,39.1923234 L24.7394677,39.3081455 C24.0939504,38.7621269 23.4815366,38.2161083 22.9022263,37.6700897 C22.7201573,37.5046295 22.5546401,37.3391693 22.3891228,37.1737091 C21.8098125,36.6111445 21.2801573,36.0485799 20.816709,35.5025613 C20.0718814,34.6752603 19.4760194,33.8975974 19.0125711,33.2523027 C18.1684332,32.0940814 17.7380883,31.3164185 17.7380883,31.3164185 C17.7215366,31.2502345 17.6884332,31.2005964 17.6718814,31.1344123 C16.5629159,28.7683317 17.9863642,27.3288281 18.5491228,26.8986316 C18.5822263,26.8820856 18.598778,26.8489935 18.6318814,26.8324475 C18.9960194,26.5511652 19.4429159,26.2533368 19.9394677,25.9555085 C20.0553297,25.8727784 20.1380883,25.8396864 20.1380883,25.8396864 C21.3629159,25.1612996 22.9353297,24.4994589 24.8222263,23.8872562 Z" id="ring_shield_orange" fill="#9D9D9F"></path>
            <path d="M18.8985507,33.2892941 C19.3623188,33.9326452 19.9585921,34.7079657 20.7039337,35.5162786 C17.7888199,34.2130803 12.3395445,31.2602638 10.815735,27.1032261 C8.44720497,20.6697153 17.242236,19.2180514 26.252588,19.4654941 C31.1055901,19.5974636 37.0351967,20.3397917 37.0351967,20.3397917 C37.0351967,20.3397917 23.0227743,22.1213793 17.9544513,26.1959361 C15.2546584,28.3734321 16.8778468,31.1777829 18.8985507,33.2892941 Z M3.04761905,22.2203564 L0,22.2203564 C0.82815735,10.2606249 10.4679089,0.725831983 22.4927536,0 L22.4927536,3.05179357 C12.1407867,3.77762555 3.8757764,11.9432354 3.04761905,22.2203564 Z M44.9358178,25.1896691 L48,25.1896691 C47.3540373,37.3473548 37.63147,47.096598 25.4741201,47.8389262 L25.4741201,44.7871326 C35.942029,44.0613006 44.3064182,35.6647443 44.9358178,25.1896691 Z" id="ring_orange" fill="#FF6C0C"></path>
        </g>
    </g>
</svg>