<?xml version="1.0" encoding="UTF-8" standalone="no"?><!DOCTYPE svg PUBLIC "-//W3C//DTD SVG 1.1//EN" "http://www.w3.org/Graphics/SVG/1.1/DTD/svg11.dtd"><svg width="100%" height="100%" viewBox="0 0 90 18" version="1.1" xmlns="http://www.w3.org/2000/svg" xmlns:xlink="http://www.w3.org/1999/xlink" xml:space="preserve" xmlns:serif="http://www.serif.com/" style="fill-rule:evenodd;clip-rule:evenodd;stroke-linejoin:round;stroke-miterlimit:1.41421;"><g id="Defcon-Text"><path d="M1.637,17c-0.291,0 -0.525,-0.084 -0.701,-0.253c-0.177,-0.169 -0.265,-0.391 -0.265,-0.667l0,-14.375c0,-0.276 0.088,-0.498 0.265,-0.667c0.176,-0.169 0.41,-0.253 0.701,-0.253l4.485,0c2.591,0 4.596,0.701 6.015,2.104c1.418,1.403 2.127,3.401 2.127,5.992c0,2.591 -0.713,4.592 -2.139,6.003c-1.426,1.411 -3.427,2.116 -6.003,2.116l-4.485,0Zm4.37,-1.61c4.201,0 6.302,-2.17 6.302,-6.509c0,-4.324 -2.101,-6.486 -6.302,-6.486l-3.45,0l0,12.995l3.45,0Z" style="fill:#999;fill-rule:nonzero;"/><path d="M18.634,17c-0.291,0 -0.525,-0.084 -0.701,-0.253c-0.177,-0.169 -0.265,-0.391 -0.265,-0.667l0,-14.375c0,-0.276 0.088,-0.498 0.265,-0.667c0.176,-0.169 0.41,-0.253 0.701,-0.253l8.602,0c0.276,0 0.491,0.069 0.644,0.207c0.153,0.138 0.23,0.33 0.23,0.575c0,0.245 -0.077,0.437 -0.23,0.575c-0.153,0.138 -0.368,0.207 -0.644,0.207l-7.705,0l0,5.635l7.245,0c0.276,0 0.491,0.069 0.644,0.207c0.153,0.138 0.23,0.33 0.23,0.575c0,0.245 -0.077,0.437 -0.23,0.575c-0.153,0.138 -0.368,0.207 -0.644,0.207l-7.245,0l0,5.888l7.705,0c0.276,0 0.491,0.065 0.644,0.195c0.153,0.131 0.23,0.326 0.23,0.587c0,0.245 -0.077,0.437 -0.23,0.575c-0.153,0.138 -0.368,0.207 -0.644,0.207l-8.602,0Z" style="fill:#999;fill-rule:nonzero;"/><path d="M31.997,17.115c-0.291,0 -0.521,-0.088 -0.69,-0.265c-0.169,-0.176 -0.253,-0.41 -0.253,-0.701l0,-14.444c0,-0.276 0.088,-0.498 0.264,-0.667c0.177,-0.169 0.411,-0.253 0.702,-0.253l8.372,0c0.276,0 0.491,0.069 0.644,0.207c0.153,0.138 0.23,0.337 0.23,0.598c0,0.245 -0.077,0.437 -0.23,0.575c-0.153,0.138 -0.368,0.207 -0.644,0.207l-7.475,0l0,5.589l7.015,0c0.276,0 0.491,0.069 0.644,0.207c0.153,0.138 0.23,0.337 0.23,0.598c0,0.245 -0.077,0.437 -0.23,0.575c-0.153,0.138 -0.368,0.207 -0.644,0.207l-7.015,0l0,6.601c0,0.291 -0.08,0.525 -0.241,0.701c-0.162,0.177 -0.388,0.265 -0.679,0.265Z" style="fill:#999;fill-rule:nonzero;"/><path d="M50.374,17.184c-1.533,0 -2.86,-0.334 -3.979,-1.001c-1.119,-0.667 -1.982,-1.625 -2.587,-2.875c-0.606,-1.249 -0.909,-2.725 -0.909,-4.427c0,-1.687 0.303,-3.155 0.909,-4.405c0.605,-1.249 1.468,-2.207 2.587,-2.875c1.119,-0.667 2.446,-1 3.979,-1c1.027,0 1.997,0.165 2.91,0.494c0.912,0.33 1.705,0.802 2.38,1.415c0.245,0.23 0.368,0.498 0.368,0.805c0,0.215 -0.061,0.402 -0.184,0.563c-0.123,0.161 -0.268,0.242 -0.437,0.242c-0.184,0 -0.406,-0.084 -0.667,-0.253c-0.782,-0.613 -1.491,-1.043 -2.127,-1.288c-0.637,-0.245 -1.369,-0.368 -2.197,-0.368c-1.779,0 -3.147,0.579 -4.105,1.736c-0.959,1.158 -1.438,2.803 -1.438,4.934c0,2.147 0.479,3.799 1.438,4.956c0.958,1.158 2.326,1.737 4.105,1.737c0.813,0 1.541,-0.123 2.185,-0.368c0.644,-0.245 1.357,-0.675 2.139,-1.288c0.261,-0.169 0.483,-0.253 0.667,-0.253c0.169,0 0.314,0.077 0.437,0.23c0.123,0.153 0.184,0.345 0.184,0.575c0,0.307 -0.123,0.575 -0.368,0.805c-0.675,0.613 -1.468,1.085 -2.38,1.414c-0.913,0.33 -1.883,0.495 -2.91,0.495Z" style="fill:#999;fill-rule:nonzero;"/><path d="M65.6,17.184c-1.503,0 -2.81,-0.337 -3.921,-1.012c-1.112,-0.675 -1.967,-1.633 -2.565,-2.875c-0.598,-1.242 -0.897,-2.706 -0.897,-4.393c0,-1.702 0.295,-3.178 0.886,-4.428c0.59,-1.249 1.441,-2.207 2.553,-2.875c1.111,-0.667 2.426,-1 3.944,-1c1.518,0 2.833,0.333 3.945,1c1.111,0.668 1.962,1.626 2.553,2.875c0.59,1.25 0.885,2.718 0.885,4.405c0,1.687 -0.299,3.155 -0.897,4.404c-0.598,1.25 -1.453,2.212 -2.564,2.887c-1.112,0.675 -2.419,1.012 -3.922,1.012Zm0,-1.61c1.717,0 3.055,-0.579 4.014,-1.737c0.958,-1.157 1.437,-2.809 1.437,-4.956c0,-2.147 -0.475,-3.795 -1.426,-4.945c-0.951,-1.15 -2.292,-1.725 -4.025,-1.725c-1.717,0 -3.055,0.579 -4.013,1.736c-0.959,1.158 -1.438,2.803 -1.438,4.934c0,2.131 0.479,3.78 1.438,4.945c0.958,1.165 2.296,1.748 4.013,1.748Z" style="fill:#999;fill-rule:nonzero;"/><path d="M88.508,0.67c0.276,0 0.491,0.088 0.644,0.264c0.153,0.177 0.23,0.411 0.23,0.702l0,14.513c0,0.291 -0.08,0.525 -0.241,0.701c-0.161,0.177 -0.388,0.265 -0.679,0.265c-0.291,0 -0.544,-0.13 -0.759,-0.391l-9.545,-12.765l0,12.19c0,0.291 -0.08,0.525 -0.241,0.701c-0.161,0.177 -0.38,0.265 -0.656,0.265c-0.276,0 -0.491,-0.088 -0.644,-0.265c-0.153,-0.176 -0.23,-0.41 -0.23,-0.701l0,-14.513c0,-0.291 0.081,-0.525 0.242,-0.702c0.161,-0.176 0.387,-0.264 0.678,-0.264c0.307,0 0.567,0.13 0.782,0.391l9.522,12.765l0,-12.19c0,-0.291 0.081,-0.525 0.242,-0.702c0.161,-0.176 0.379,-0.264 0.655,-0.264Z" style="fill:#999;fill-rule:nonzero;"/></g></svg>