<?xml version="1.0" encoding="UTF-8" standalone="no"?><!DOCTYPE svg PUBLIC "-//W3C//DTD SVG 1.1//EN" "http://www.w3.org/Graphics/SVG/1.1/DTD/svg11.dtd"><svg width="100%" height="100%" viewBox="0 0 130 41" version="1.1" xmlns="http://www.w3.org/2000/svg" xmlns:xlink="http://www.w3.org/1999/xlink" xml:space="preserve" xmlns:serif="http://www.serif.com/" style="fill-rule:evenodd;clip-rule:evenodd;stroke-linejoin:round;stroke-miterlimit:1.41421;"><g id="Defcon-5"><path id="Rectangle" d="M130,2c0,-1.104 -0.896,-2 -2,-2l-126,0c-1.104,0 -2,0.896 -2,2l0,37c0,1.104 0.896,2 2,2l126,0c1.104,0 2,-0.896 2,-2l0,-37Z" style="fill:#9c0;"/><g id="_5" serif:id="5"><path d="M13.783,16.182c1.295,0 2.431,0.271 3.408,0.812c0.976,0.541 1.73,1.3 2.262,2.276c0.531,0.977 0.797,2.103 0.797,3.379c0,1.276 -0.29,2.412 -0.87,3.407c-0.58,0.996 -1.387,1.769 -2.421,2.32c-1.035,0.551 -2.229,0.827 -3.582,0.827c-1.199,0 -2.368,-0.213 -3.509,-0.638c-1.141,-0.425 -2.107,-1.005 -2.9,-1.74c-0.309,-0.29 -0.464,-0.619 -0.464,-0.986c0,-0.29 0.077,-0.532 0.232,-0.725c0.155,-0.193 0.338,-0.29 0.551,-0.29c0.271,0 0.541,0.106 0.812,0.319c0.851,0.696 1.701,1.213 2.552,1.552c0.851,0.338 1.74,0.507 2.668,0.507c1.431,0 2.552,-0.406 3.364,-1.218c0.812,-0.812 1.218,-1.914 1.218,-3.306c0,-1.353 -0.406,-2.446 -1.218,-3.277c-0.812,-0.831 -1.904,-1.247 -3.277,-1.247c-1.759,0 -3.19,0.677 -4.292,2.03c-0.271,0.29 -0.599,0.435 -0.986,0.435c-0.271,0 -0.498,-0.082 -0.681,-0.246c-0.184,-0.165 -0.276,-0.392 -0.276,-0.682l0,-10.005c0,-0.329 0.102,-0.599 0.305,-0.812c0.203,-0.213 0.488,-0.319 0.855,-0.319l10.208,0c0.348,0 0.624,0.087 0.826,0.261c0.204,0.174 0.305,0.416 0.305,0.725c0,0.309 -0.101,0.551 -0.305,0.725c-0.202,0.174 -0.478,0.261 -0.826,0.261l-9.019,0l0,7.279c0.541,-0.522 1.175,-0.923 1.9,-1.203c0.725,-0.281 1.512,-0.421 2.363,-0.421Z" style="fill-rule:nonzero;"/></g><g id="_4" serif:id="4"><path d="M45.757,22.591c0.348,0 0.619,0.092 0.812,0.276c0.193,0.183 0.29,0.42 0.29,0.71c0,0.657 -0.367,0.986 -1.102,0.986l-2.175,0l0,3.364c0,0.387 -0.111,0.686 -0.334,0.899c-0.222,0.213 -0.507,0.319 -0.855,0.319c-0.348,0 -0.628,-0.106 -0.841,-0.319c-0.213,-0.213 -0.319,-0.512 -0.319,-0.899l0,-3.364l-8.584,0c-0.348,0 -0.619,-0.097 -0.812,-0.29c-0.193,-0.193 -0.29,-0.435 -0.29,-0.725c0,-0.271 0.106,-0.57 0.319,-0.899l9.483,-13.717c0.271,-0.348 0.619,-0.522 1.044,-0.522c0.329,0 0.609,0.106 0.841,0.319c0.232,0.213 0.348,0.512 0.348,0.899l0,12.963l2.175,0Zm-11.513,0l6.989,0l0,-10.063l-6.989,10.063Z" style="fill-opacity:0.254902;fill-rule:nonzero;"/></g><g id="_3" serif:id="3"><path d="M67.726,18.502c1.237,0.348 2.18,0.947 2.828,1.798c0.647,0.851 0.971,1.904 0.971,3.161c0,1.779 -0.599,3.18 -1.798,4.205c-1.199,1.025 -2.832,1.537 -4.901,1.537c-1.257,0 -2.46,-0.213 -3.611,-0.638c-1.15,-0.425 -2.121,-1.005 -2.914,-1.74c-0.309,-0.29 -0.464,-0.619 -0.464,-0.986c0,-0.29 0.077,-0.532 0.232,-0.725c0.155,-0.193 0.338,-0.29 0.551,-0.29c0.271,0 0.541,0.106 0.812,0.319c0.889,0.715 1.759,1.237 2.61,1.566c0.851,0.329 1.769,0.493 2.755,0.493c1.431,0 2.518,-0.329 3.262,-0.986c0.745,-0.657 1.117,-1.605 1.117,-2.842c0,-2.494 -1.566,-3.741 -4.698,-3.741l-1.537,0c-0.309,0 -0.556,-0.101 -0.74,-0.304c-0.183,-0.203 -0.275,-0.44 -0.275,-0.711c0,-0.271 0.092,-0.503 0.275,-0.696c0.184,-0.193 0.431,-0.29 0.74,-0.29l1.073,0c1.508,0 2.668,-0.333 3.48,-1c0.812,-0.667 1.218,-1.629 1.218,-2.886c0,-1.102 -0.329,-1.948 -0.986,-2.537c-0.657,-0.59 -1.585,-0.885 -2.784,-0.885c-0.909,0 -1.788,0.169 -2.639,0.508c-0.851,0.338 -1.701,0.855 -2.552,1.551c-0.271,0.213 -0.541,0.319 -0.812,0.319c-0.213,0 -0.396,-0.097 -0.551,-0.29c-0.155,-0.193 -0.232,-0.435 -0.232,-0.725c0,-0.367 0.155,-0.696 0.464,-0.986c0.793,-0.735 1.754,-1.315 2.885,-1.74c1.131,-0.425 2.296,-0.638 3.495,-0.638c1.856,0 3.33,0.469 4.422,1.407c1.093,0.937 1.639,2.199 1.639,3.784c0,1.179 -0.295,2.209 -0.884,3.088c-0.59,0.88 -1.407,1.513 -2.451,1.9Z" style="fill-opacity:0.254902;fill-rule:nonzero;"/></g><g id="_2" serif:id="2"><path d="M97.032,26.999c0.348,0 0.619,0.087 0.812,0.261c0.193,0.174 0.29,0.416 0.29,0.725c0,0.677 -0.367,1.015 -1.102,1.015l-11.368,0c-0.329,0 -0.599,-0.102 -0.812,-0.305c-0.213,-0.203 -0.319,-0.449 -0.319,-0.739c0,-0.367 0.135,-0.686 0.406,-0.957l6.989,-7.685c0.967,-1.083 1.667,-2.054 2.102,-2.915c0.435,-0.86 0.653,-1.725 0.653,-2.595c0,-1.121 -0.324,-1.982 -0.972,-2.581c-0.647,-0.599 -1.561,-0.899 -2.74,-0.899c-0.928,0 -1.817,0.169 -2.668,0.507c-0.851,0.339 -1.701,0.856 -2.552,1.552c-0.29,0.232 -0.561,0.348 -0.812,0.348c-0.213,0 -0.396,-0.102 -0.551,-0.305c-0.155,-0.203 -0.232,-0.449 -0.232,-0.739c0,-0.406 0.155,-0.735 0.464,-0.986c0.793,-0.735 1.759,-1.315 2.9,-1.74c1.141,-0.425 2.31,-0.638 3.509,-0.638c1.837,0 3.301,0.483 4.393,1.45c1.093,0.967 1.639,2.272 1.639,3.915c0,1.179 -0.266,2.31 -0.798,3.393c-0.531,1.083 -1.406,2.291 -2.624,3.625l-5.8,6.293l9.193,0Z" style="fill-opacity:0.254902;fill-rule:nonzero;"/></g><g id="_1" serif:id="1"><path d="M122.568,26.999c0.348,0 0.619,0.087 0.812,0.261c0.193,0.174 0.29,0.416 0.29,0.725c0,0.329 -0.092,0.58 -0.276,0.754c-0.183,0.174 -0.459,0.261 -0.826,0.261l-9.599,0c-0.367,0 -0.643,-0.087 -0.827,-0.261c-0.183,-0.174 -0.275,-0.425 -0.275,-0.754c0,-0.309 0.097,-0.551 0.29,-0.725c0.193,-0.174 0.464,-0.261 0.812,-0.261l3.596,0l0,-15.544l-3.161,2.059c-0.155,0.097 -0.309,0.145 -0.464,0.145c-0.271,0 -0.508,-0.126 -0.711,-0.377c-0.203,-0.251 -0.304,-0.522 -0.304,-0.812c0,-0.406 0.155,-0.696 0.464,-0.87l4.408,-2.871c0.329,-0.213 0.667,-0.319 1.015,-0.319c0.329,0 0.599,0.106 0.812,0.319c0.213,0.213 0.319,0.512 0.319,0.899l0,17.371l3.625,0Z" style="fill-opacity:0.254902;fill-rule:nonzero;"/></g></g></svg>