<?xml version="1.0" encoding="UTF-8"?>
<svg width="153px" height="119px" viewBox="0 0 153 119" version="1.1" xmlns="http://www.w3.org/2000/svg" xmlns:xlink="http://www.w3.org/1999/xlink">
    <!-- Generator: Sketch 52.4 (67378) - http://www.bohemiancoding.com/sketch -->
    <title>deploy_on-a-schedule</title>
    <desc>Created with Sketch.</desc>
    <g id="Page-1" stroke="none" stroke-width="1" fill="none" fill-rule="evenodd">
        <g id="Artboard-Copy" transform="translate(-1292.000000, -371.000000)">
            <g id="deploy_on-a-schedule" transform="translate(1296.000000, 371.000000)">
                <path d="M148.874592,30.5840783 C149.442938,60.5642898 150.153369,101.343061 100.423161,118.535504 L99.0022975,118.819677 L97.5814344,118.535504 C47.7091395,101.343061 48.5616573,60.4222035 49.1300026,30.5840783 C49.2720889,27.4581795 49.2720889,24.474367 49.2720889,21.4905544 C49.2720889,19.0750872 51.1192109,17.2279651 53.5346782,17.2279651 C71.295467,17.2279651 84.7936665,12.112858 96.018485,1.17221206 C97.7235207,-0.390737353 100.281074,-0.390737353 101.98611,1.17221206 C113.210929,12.112858 126.709128,17.2279651 144.469917,17.2279651 C146.885384,17.2279651 148.732506,19.0750872 148.732506,21.4905544 C148.732506,24.474367 148.732506,27.4581795 148.874592,30.5840783 Z M117.963636,55.117697 C117.317455,54.4716364 116.533333,54.1488485 115.610061,54.1488485 L114.503273,54.1488485 L114.503273,47.5038788 C114.503273,43.2587879 112.98097,39.6138182 109.935394,36.5683636 C106.890061,33.5227879 103.245455,32 98.9997576,32 C94.7541818,32 91.1088485,33.5227879 88.0637576,36.5682424 C85.0181818,39.6138182 83.4958788,43.2586667 83.4958788,47.5038788 L83.4958788,54.1488485 L82.3886061,54.1488485 C81.4660606,54.1488485 80.6814545,54.4716364 80.0353939,55.117697 C79.3893333,55.7632727 79.0664242,56.5478788 79.0664242,57.4712727 L79.0664242,77.4048485 C79.0664242,78.3273939 79.3894545,79.1122424 80.0353939,79.7584242 C80.6814545,80.4038788 81.4660606,80.7270303 82.3886061,80.7270303 L115.610909,80.7270303 C116.534182,80.7270303 117.318182,80.4042424 117.964485,79.7584242 C118.609939,79.1122424 118.933455,78.3273939 118.933455,77.4048485 L118.933455,57.4709091 C118.933939,56.5482424 118.609939,55.7637576 117.963636,55.117697 Z" id="Combined-Shape" fill="#777777" fill-rule="nonzero"></path>
                <path d="M107.85903,54.1488485 L90.1404848,54.1488485 L90.1404848,47.5038788 C90.1404848,45.0584242 91.0058182,42.970303 92.7361212,41.2402424 C94.4666667,39.5099394 96.5544242,38.6449697 99.0001212,38.6449697 C101.446061,38.6449697 103.533333,39.5098182 105.264,41.2402424 C106.993818,42.9701818 107.85903,45.0584242 107.85903,47.5038788 L107.85903,54.1488485 Z" id="Shape" fill="#777777"></path>
                <path d="M0.287270054,22.5 L38,22.5" id="Line" stroke="#B5B5B5" stroke-width="7" stroke-linecap="square"></path>
                <path d="M16.5,58.5 L42,58.5" id="Line" stroke="#B5B5B5" stroke-width="7" stroke-linecap="square"></path>
                <path d="M9.37541555,41.5 L39.5,41.5" id="Line" stroke="#B5B5B5" stroke-width="7" stroke-linecap="square"></path>
            </g>
        </g>
    </g>
</svg>