<?xml version="1.0" encoding="UTF-8"?>
<svg width="207px" height="83px" viewBox="0 0 207 83" version="1.1" xmlns="http://www.w3.org/2000/svg" xmlns:xlink="http://www.w3.org/1999/xlink">
    <!-- Generator: Sketch 52.4 (67378) - http://www.bohemiancoding.com/sketch -->
    <title>Deploys the policy c 2</title>
    <desc>Created with Sketch.</desc>
    <g id="Page-1" stroke="none" stroke-width="1" fill="none" fill-rule="evenodd">
        <g id="Artboard-Copy" transform="translate(-1312.000000, -744.000000)" fill="#333333">
            <g id="Deploys-the-policy-c-2" transform="translate(1312.000000, 744.000000)">
                <path d="M2.096,18 C1.79199848,18 1.54800092,17.9120009 1.364,17.736 C1.17999908,17.5599991 1.088,17.3280014 1.088,17.04 L1.088,2.04 C1.088,1.75199856 1.17999908,1.52000088 1.364,1.344 C1.54800092,1.16799912 1.79199848,1.08 2.096,1.08 L6.776,1.08 C9.48001352,1.08 11.5719926,1.81199268 13.052,3.276 C14.5320074,4.74000732 15.272,6.82398648 15.272,9.528 C15.272,12.2320135 14.5280074,14.3199926 13.04,15.792 C11.5519926,17.2640074 9.46401344,18 6.776,18 L2.096,18 Z M6.656,16.32 C11.0400219,16.32 13.232,14.0560226 13.232,9.528 C13.232,5.01597744 11.0400219,2.76 6.656,2.76 L3.056,2.76 L3.056,16.32 L6.656,16.32 Z M26.584,15.288 C26.7600009,15.288 26.9119994,15.3599993 27.04,15.504 C27.1680006,15.6480007 27.232,15.8319989 27.232,16.056 C27.232,16.456002 26.9520028,16.8239983 26.392,17.16 C25.8159971,17.4960017 25.2080032,17.7479992 24.568,17.916 C23.9279968,18.0840008 23.304003,18.168 22.696,18.168 C20.887991,18.168 19.4600052,17.6320054 18.412,16.56 C17.3639948,15.4879946 16.84,14.0080094 16.84,12.12 C16.84,10.919994 17.0719977,9.8600046 17.536,8.94 C18.0000023,8.0199954 18.6519958,7.30400256 19.492,6.792 C20.3320042,6.27999744 21.2879946,6.024 22.36,6.024 C23.8800076,6.024 25.0879955,6.51999504 25.984,7.512 C26.8800045,8.50400496 27.328,9.84799152 27.328,11.544 C27.328,11.8640016 27.2640006,12.0959993 27.136,12.24 C27.0079994,12.3840007 26.8000014,12.456 26.512,12.456 L18.784,12.456 C18.9280007,15.2080138 20.2319877,16.584 22.696,16.584 C23.3200031,16.584 23.8559978,16.5000008 24.304,16.332 C24.7520022,16.1639992 25.2319974,15.9360014 25.744,15.648 C26.1600021,15.4079988 26.4399993,15.288 26.584,15.288 Z M22.384,7.536 C21.3599949,7.536 20.5400031,7.8559968 19.924,8.496 C19.3079969,9.1360032 18.9440006,10.0399942 18.832,11.208 L25.624,11.208 C25.5919998,10.0239941 25.2960028,9.11600316 24.736,8.484 C24.1759972,7.85199684 23.392005,7.536 22.384,7.536 Z M35.064,6.024 C36.0880051,6.024 36.9919961,6.27999744 37.776,6.792 C38.5600039,7.30400256 39.1679978,8.0199954 39.6,8.94 C40.0320022,9.8600046 40.248,10.9279939 40.248,12.144 C40.248,13.3600061 40.0320022,14.4199955 39.6,15.324 C39.1679978,16.2280045 38.5640039,16.9279975 37.788,17.424 C37.0119961,17.9200025 36.1040052,18.168 35.064,18.168 C34.1519954,18.168 33.3560034,17.968002 32.676,17.568 C31.9959966,17.167998 31.4800018,16.6000037 31.128,15.864 L31.128,21.504 C31.128,21.7920014 31.0440008,22.0199992 30.876,22.188 C30.7079992,22.3560008 30.4720015,22.44 30.168,22.44 C29.8639985,22.44 29.6240009,22.3520009 29.448,22.176 C29.2719991,21.9999991 29.184,21.7760014 29.184,21.504 L29.184,7.032 C29.184,6.74399856 29.2719991,6.51200088 29.448,6.336 C29.6240009,6.15999912 29.8639985,6.072 30.168,6.072 C30.4720015,6.072 30.7079992,6.15999912 30.876,6.336 C31.0440008,6.51200088 31.128,6.74399856 31.128,7.032 L31.128,8.328 C31.4800018,7.59199632 31.9959966,7.024002 32.676,6.624 C33.3560034,6.223998 34.1519954,6.024 35.064,6.024 Z M34.68,16.56 C35.8160057,16.56 36.6959969,16.1760038 37.32,15.408 C37.9440031,14.6399962 38.256,13.552007 38.256,12.144 C38.256,10.735993 37.9440031,9.63600396 37.32,8.844 C36.6959969,8.05199604 35.8160057,7.656 34.68,7.656 C33.5439943,7.656 32.6680031,8.03999616 32.052,8.808 C31.4359969,9.57600384 31.128,10.6719929 31.128,12.096 C31.128,13.5200071 31.4359969,14.6199961 32.052,15.396 C32.6680031,16.1720039 33.5439943,16.56 34.68,16.56 Z M43.136,18.12 C42.8479986,18.12 42.6120009,18.0360008 42.428,17.868 C42.2439991,17.6999992 42.152,17.4640015 42.152,17.16 L42.152,1.92 C42.152,1.61599848 42.2439991,1.38000084 42.428,1.212 C42.6120009,1.04399916 42.8479986,0.96 43.136,0.96 C43.4080014,0.96 43.6359991,1.04399916 43.82,1.212 C44.0040009,1.38000084 44.096,1.61599848 44.096,1.92 L44.096,17.16 C44.096,17.4640015 44.0040009,17.6999992 43.82,17.868 C43.6359991,18.0360008 43.4080014,18.12 43.136,18.12 Z M51.568,18.168 C50.4639945,18.168 49.4920042,17.9200025 48.652,17.424 C47.8119958,16.9279975 47.1640023,16.2200046 46.708,15.3 C46.2519977,14.3799954 46.024,13.3120061 46.024,12.096 C46.024,10.8799939 46.2519977,9.8120046 46.708,8.892 C47.1640023,7.9719954 47.8119958,7.26400248 48.652,6.768 C49.4920042,6.27199752 50.4639945,6.024 51.568,6.024 C52.6720055,6.024 53.6479958,6.27199752 54.496,6.768 C55.3440042,7.26400248 55.9959977,7.9719954 56.452,8.892 C56.9080023,9.8120046 57.136,10.8799939 57.136,12.096 C57.136,13.3120061 56.9080023,14.3799954 56.452,15.3 C55.9959977,16.2200046 55.3440042,16.9279975 54.496,17.424 C53.6479958,17.9200025 52.6720055,18.168 51.568,18.168 Z M51.568,16.56 C52.7200058,16.56 53.6039969,16.1800038 54.22,15.42 C54.8360031,14.6599962 55.144,13.5520073 55.144,12.096 C55.144,10.6719929 54.8320031,9.57200388 54.208,8.796 C53.5839969,8.01999612 52.7040057,7.632 51.568,7.632 C50.4319943,7.632 49.5520031,8.01999612 48.928,8.796 C48.3039969,9.57200388 47.992,10.6719929 47.992,12.096 C47.992,13.5360072 48.2999969,14.6399962 48.916,15.408 C49.5320031,16.1760038 50.4159942,16.56 51.568,16.56 Z M67.32,6.672 C67.4960009,6.28799808 67.7759981,6.096 68.16,6.096 C68.4000012,6.096 68.615999,6.1759992 68.808,6.336 C69.000001,6.4960008 69.096,6.6959988 69.096,6.936 C69.096,7.08000072 69.0640003,7.20799944 69,7.32 L62.256,21.864 C62.1759996,22.0400009 62.0600008,22.1759995 61.908,22.272 C61.7559992,22.3680005 61.6000008,22.416 61.44,22.416 C61.1999988,22.416 60.9880009,22.3400008 60.804,22.188 C60.6199991,22.0359992 60.528,21.8400012 60.528,21.6 C60.528,21.4719994 60.5599997,21.3440006 60.624,21.216 L62.304,17.592 L57.552,7.32 C57.4879997,7.20799944 57.456,7.08800064 57.456,6.96 C57.456,6.7199988 57.5639989,6.51200088 57.78,6.336 C57.9960011,6.15999912 58.2319987,6.072 58.488,6.072 C58.6480008,6.072 58.8039992,6.11999952 58.956,6.216 C59.1080008,6.31200048 59.2239996,6.44799912 59.304,6.624 L63.312,15.624 L67.32,6.672 Z M73.952,18.168 C73.2159963,18.168 72.5160033,18.0800009 71.852,17.904 C71.1879967,17.7279991 70.6000026,17.4800016 70.088,17.16 C69.7999986,16.967999 69.5960006,16.7880008 69.476,16.62 C69.3559994,16.4519992 69.296,16.2480012 69.296,16.008 C69.296,15.799999 69.3559994,15.6280007 69.476,15.492 C69.5960006,15.3559993 69.751999,15.288 69.944,15.288 C70.136001,15.288 70.4159982,15.4079988 70.784,15.648 C71.2640024,15.9360014 71.7399976,16.1639992 72.212,16.332 C72.6840024,16.5000008 73.2719965,16.584 73.976,16.584 C74.8400043,16.584 75.5119976,16.4320015 75.992,16.128 C76.4720024,15.8239985 76.712,15.3840029 76.712,14.808 C76.712,14.4559982 76.6240009,14.1720011 76.448,13.956 C76.2719991,13.7399989 75.9680022,13.5480008 75.536,13.38 C75.1039978,13.2119992 74.4720042,13.0400009 73.64,12.864 C72.231993,12.5599985 71.224003,12.1520026 70.616,11.64 C70.007997,11.1279974 69.704,10.4320044 69.704,9.552 C69.704,8.86399656 69.8959981,8.25600264 70.28,7.728 C70.6640019,7.19999736 71.1959966,6.78400152 71.876,6.48 C72.5560034,6.17599848 73.3279957,6.024 74.192,6.024 C74.8160031,6.024 75.4199971,6.10799916 76.004,6.276 C76.5880029,6.44400084 77.1039978,6.67999848 77.552,6.984 C78.0960027,7.36800192 78.368,7.76799792 78.368,8.184 C78.368,8.39200104 78.3040006,8.56799928 78.176,8.712 C78.0479994,8.85600072 77.8960009,8.928 77.72,8.928 C77.527999,8.928 77.2400019,8.79200136 76.856,8.52 C76.4079978,8.23199856 75.984002,8.0080008 75.584,7.848 C75.183998,7.6879992 74.688003,7.608 74.096,7.608 C73.3439962,7.608 72.7400023,7.77599832 72.284,8.112 C71.8279977,8.44800168 71.6,8.8959972 71.6,9.456 C71.6,9.80800176 71.6839992,10.0919989 71.852,10.308 C72.0200008,10.5240011 72.299998,10.7159992 72.692,10.884 C73.084002,11.0520008 73.6479963,11.2159992 74.384,11.376 C75.4720054,11.6160012 76.315997,11.8799986 76.916,12.168 C77.516003,12.4560014 77.9439987,12.8079979 78.2,13.224 C78.4560013,13.6400021 78.584,14.1679968 78.584,14.808 C78.584,15.816005 78.1600042,16.6279969 77.312,17.244 C76.4639958,17.8600031 75.344007,18.168 73.952,18.168 Z M91.128,16.584 C91.6880028,16.6320002 91.968,16.8879977 91.968,17.352 C91.968,17.6240014 91.868001,17.8279993 91.668,17.964 C91.467999,18.1000007 91.168002,18.1520002 90.768,18.12 L90.12,18.072 C88.8399936,17.9759995 87.896003,17.5920034 87.288,16.92 C86.679997,16.2479966 86.376,15.2320068 86.376,13.872 L86.376,7.848 L84.768,7.848 C84.4959986,7.848 84.2840008,7.78000068 84.132,7.644 C83.9799992,7.50799932 83.904,7.32800112 83.904,7.104 C83.904,6.8639988 83.9799992,6.67200072 84.132,6.528 C84.2840008,6.38399928 84.4959986,6.312 84.768,6.312 L86.376,6.312 L86.376,3.6 C86.376,3.29599848 86.4639991,3.06000084 86.64,2.892 C86.8160009,2.72399916 87.0559985,2.64 87.36,2.64 C87.6480014,2.64 87.8799991,2.72399916 88.056,2.892 C88.2320009,3.06000084 88.32,3.29599848 88.32,3.6 L88.32,6.312 L90.984,6.312 C91.2400013,6.312 91.4439992,6.38399928 91.596,6.528 C91.7480008,6.67200072 91.824,6.8639988 91.824,7.104 C91.824,7.32800112 91.7480008,7.50799932 91.596,7.644 C91.4439992,7.78000068 91.2400013,7.848 90.984,7.848 L88.32,7.848 L88.32,13.968 C88.32,14.8480044 88.4999982,15.483998 88.86,15.876 C89.2200018,16.268002 89.7599964,16.4879998 90.48,16.536 L91.128,16.584 Z M98.792,6.024 C100.168007,6.024 101.207996,6.41199612 101.912,7.188 C102.616004,7.96400388 102.968,9.11999232 102.968,10.656 L102.968,17.16 C102.968,17.4640015 102.880001,17.6999992 102.704,17.868 C102.527999,18.0360008 102.296001,18.12 102.008,18.12 C101.703998,18.12 101.464001,18.0360008 101.288,17.868 C101.111999,17.6999992 101.024,17.4640015 101.024,17.16 L101.024,10.704 C101.024,9.6639948 100.812002,8.89600248 100.388,8.4 C99.9639979,7.90399752 99.2880046,7.656 98.36,7.656 C97.2879946,7.656 96.4320032,7.98399672 95.792,8.64 C95.1519968,9.29600328 94.832,10.1839944 94.832,11.304 L94.832,17.16 C94.832,17.4640015 94.7480008,17.6999992 94.58,17.868 C94.4119992,18.0360008 94.1760015,18.12 93.872,18.12 C93.5679985,18.12 93.3280009,18.0360008 93.152,17.868 C92.9759991,17.6999992 92.888,17.4640015 92.888,17.16 L92.888,1.896 C92.888,1.62399864 92.9799991,1.40000088 93.164,1.224 C93.3480009,1.04799912 93.5839986,0.96 93.872,0.96 C94.1760015,0.96 94.4119992,1.04399916 94.58,1.212 C94.7480008,1.38000084 94.832,1.60799856 94.832,1.896 L94.832,8.184 C95.2160019,7.47999648 95.7519966,6.94400184 96.44,6.576 C97.1280034,6.20799816 97.9119956,6.024 98.792,6.024 Z M114.568,15.288 C114.744001,15.288 114.895999,15.3599993 115.024,15.504 C115.152001,15.6480007 115.216,15.8319989 115.216,16.056 C115.216,16.456002 114.936003,16.8239983 114.376,17.16 C113.799997,17.4960017 113.192003,17.7479992 112.552,17.916 C111.911997,18.0840008 111.288003,18.168 110.68,18.168 C108.871991,18.168 107.444005,17.6320054 106.396,16.56 C105.347995,15.4879946 104.824,14.0080094 104.824,12.12 C104.824,10.919994 105.055998,9.8600046 105.52,8.94 C105.984002,8.0199954 106.635996,7.30400256 107.476,6.792 C108.316004,6.27999744 109.271995,6.024 110.344,6.024 C111.864008,6.024 113.071996,6.51999504 113.968,7.512 C114.864004,8.50400496 115.312,9.84799152 115.312,11.544 C115.312,11.8640016 115.248001,12.0959993 115.12,12.24 C114.991999,12.3840007 114.784001,12.456 114.496,12.456 L106.768,12.456 C106.912001,15.2080138 108.215988,16.584 110.68,16.584 C111.304003,16.584 111.839998,16.5000008 112.288,16.332 C112.736002,16.1639992 113.215997,15.9360014 113.728,15.648 C114.144002,15.4079988 114.423999,15.288 114.568,15.288 Z M110.368,7.536 C109.343995,7.536 108.524003,7.8559968 107.908,8.496 C107.291997,9.1360032 106.928001,10.0399942 106.816,11.208 L113.608,11.208 C113.576,10.0239941 113.280003,9.11600316 112.72,8.484 C112.159997,7.85199684 111.376005,7.536 110.368,7.536 Z M128.24,6.024 C129.264005,6.024 130.167996,6.27999744 130.952,6.792 C131.736004,7.30400256 132.343998,8.0199954 132.776,8.94 C133.208002,9.8600046 133.424,10.9279939 133.424,12.144 C133.424,13.3600061 133.208002,14.4199955 132.776,15.324 C132.343998,16.2280045 131.740004,16.9279975 130.964,17.424 C130.187996,17.9200025 129.280005,18.168 128.24,18.168 C127.327995,18.168 126.532003,17.968002 125.852,17.568 C125.171997,17.167998 124.656002,16.6000037 124.304,15.864 L124.304,21.504 C124.304,21.7920014 124.220001,22.0199992 124.052,22.188 C123.883999,22.3560008 123.648002,22.44 123.344,22.44 C123.039998,22.44 122.800001,22.3520009 122.624,22.176 C122.447999,21.9999991 122.36,21.7760014 122.36,21.504 L122.36,7.032 C122.36,6.74399856 122.447999,6.51200088 122.624,6.336 C122.800001,6.15999912 123.039998,6.072 123.344,6.072 C123.648002,6.072 123.883999,6.15999912 124.052,6.336 C124.220001,6.51200088 124.304,6.74399856 124.304,7.032 L124.304,8.328 C124.656002,7.59199632 125.171997,7.024002 125.852,6.624 C126.532003,6.223998 127.327995,6.024 128.24,6.024 Z M127.856,16.56 C128.992006,16.56 129.871997,16.1760038 130.496,15.408 C131.120003,14.6399962 131.432,13.552007 131.432,12.144 C131.432,10.735993 131.120003,9.63600396 130.496,8.844 C129.871997,8.05199604 128.992006,7.656 127.856,7.656 C126.719994,7.656 125.844003,8.03999616 125.228,8.808 C124.611997,9.57600384 124.304,10.6719929 124.304,12.096 C124.304,13.5200071 124.611997,14.6199961 125.228,15.396 C125.844003,16.1720039 126.719994,16.56 127.856,16.56 Z M140.176,18.168 C139.071994,18.168 138.100004,17.9200025 137.26,17.424 C136.419996,16.9279975 135.772002,16.2200046 135.316,15.3 C134.859998,14.3799954 134.632,13.3120061 134.632,12.096 C134.632,10.8799939 134.859998,9.8120046 135.316,8.892 C135.772002,7.9719954 136.419996,7.26400248 137.26,6.768 C138.100004,6.27199752 139.071994,6.024 140.176,6.024 C141.280006,6.024 142.255996,6.27199752 143.104,6.768 C143.952004,7.26400248 144.603998,7.9719954 145.06,8.892 C145.516002,9.8120046 145.744,10.8799939 145.744,12.096 C145.744,13.3120061 145.516002,14.3799954 145.06,15.3 C144.603998,16.2200046 143.952004,16.9279975 143.104,17.424 C142.255996,17.9200025 141.280006,18.168 140.176,18.168 Z M140.176,16.56 C141.328006,16.56 142.211997,16.1800038 142.828,15.42 C143.444003,14.6599962 143.752,13.5520073 143.752,12.096 C143.752,10.6719929 143.440003,9.57200388 142.816,8.796 C142.191997,8.01999612 141.312006,7.632 140.176,7.632 C139.039994,7.632 138.160003,8.01999612 137.536,8.796 C136.911997,9.57200388 136.6,10.6719929 136.6,12.096 C136.6,13.5360072 136.907997,14.6399962 137.524,15.408 C138.140003,16.1760038 139.023994,16.56 140.176,16.56 Z M148.632,18.12 C148.343999,18.12 148.108001,18.0360008 147.924,17.868 C147.739999,17.6999992 147.648,17.4640015 147.648,17.16 L147.648,1.92 C147.648,1.61599848 147.739999,1.38000084 147.924,1.212 C148.108001,1.04399916 148.343999,0.96 148.632,0.96 C148.904001,0.96 149.131999,1.04399916 149.316,1.212 C149.500001,1.38000084 149.592,1.61599848 149.592,1.92 L149.592,17.16 C149.592,17.4640015 149.500001,17.6999992 149.316,17.868 C149.131999,18.0360008 148.904001,18.12 148.632,18.12 Z M153.2,18.12 C152.911999,18.12 152.676001,18.0360008 152.492,17.868 C152.307999,17.6999992 152.216,17.4640015 152.216,17.16 L152.216,7.032 C152.216,6.72799848 152.307999,6.49200084 152.492,6.324 C152.676001,6.15599916 152.911999,6.072 153.2,6.072 C153.488001,6.072 153.719999,6.15599916 153.896,6.324 C154.072001,6.49200084 154.16,6.72799848 154.16,7.032 L154.16,17.16 C154.16,17.4800016 154.072001,17.7199992 153.896,17.88 C153.719999,18.0400008 153.488001,18.12 153.2,18.12 Z M153.2,3.552 C152.815998,3.552 152.504001,3.44000112 152.264,3.216 C152.023999,2.99199888 151.904,2.69600184 151.904,2.328 C151.904,1.97599824 152.023999,1.68800112 152.264,1.464 C152.504001,1.23999888 152.815998,1.128 153.2,1.128 C153.584002,1.128 153.895999,1.23999888 154.136,1.464 C154.376001,1.68800112 154.496,1.97599824 154.496,2.328 C154.496,2.69600184 154.376001,2.99199888 154.136,3.216 C153.895999,3.44000112 153.584002,3.552 153.2,3.552 Z M161.608,18.168 C160.519995,18.168 159.556004,17.9200025 158.716,17.424 C157.875996,16.9279975 157.228002,16.2240046 156.772,15.312 C156.315998,14.3999954 156.088,13.344006 156.088,12.144 C156.088,10.943994 156.323998,9.88000464 156.796,8.952 C157.268002,8.02399536 157.927996,7.30400256 158.776,6.792 C159.624004,6.27999744 160.599994,6.024 161.704,6.024 C162.312003,6.024 162.915997,6.10799916 163.516,6.276 C164.116003,6.44400084 164.639998,6.6879984 165.088,7.008 C165.376001,7.20000096 165.579999,7.38799908 165.7,7.572 C165.820001,7.75600092 165.88,7.95999888 165.88,8.184 C165.88,8.40800112 165.820001,8.59199928 165.7,8.736 C165.579999,8.88000072 165.424001,8.952 165.232,8.952 C165.119999,8.952 165.000001,8.92000032 164.872,8.856 C164.743999,8.79199968 164.636,8.72800032 164.548,8.664 C164.46,8.59999968 164.4,8.56000008 164.368,8.544 C163.951998,8.27199864 163.556002,8.0560008 163.18,7.896 C162.803998,7.7359992 162.344003,7.656 161.8,7.656 C160.631994,7.656 159.724003,8.05199604 159.076,8.844 C158.427997,9.63600396 158.104,10.735993 158.104,12.144 C158.104,13.552007 158.427997,14.6399962 159.076,15.408 C159.724003,16.1760038 160.631994,16.56 161.8,16.56 C162.344003,16.56 162.811998,16.4800008 163.204,16.32 C163.596002,16.1599992 163.991998,15.9440014 164.392,15.672 C164.568001,15.5599994 164.735999,15.4640004 164.896,15.384 C165.056001,15.3039996 165.191999,15.264 165.304,15.264 C165.480001,15.264 165.627999,15.3359993 165.748,15.48 C165.868001,15.6240007 165.928,15.8079989 165.928,16.032 C165.928,16.240001 165.872001,16.4279992 165.76,16.596 C165.647999,16.7640008 165.440002,16.951999 165.136,17.16 C164.687998,17.4640015 164.148003,17.7079991 163.516,17.892 C162.883997,18.0760009 162.248003,18.168 161.608,18.168 Z M175.704,6.672 C175.880001,6.28799808 176.159998,6.096 176.544,6.096 C176.784001,6.096 176.999999,6.1759992 177.192,6.336 C177.384001,6.4960008 177.48,6.6959988 177.48,6.936 C177.48,7.08000072 177.448,7.20799944 177.384,7.32 L170.64,21.864 C170.56,22.0400009 170.444001,22.1759995 170.292,22.272 C170.139999,22.3680005 169.984001,22.416 169.824,22.416 C169.583999,22.416 169.372001,22.3400008 169.188,22.188 C169.003999,22.0359992 168.912,21.8400012 168.912,21.6 C168.912,21.4719994 168.944,21.3440006 169.008,21.216 L170.688,17.592 L165.936,7.32 C165.872,7.20799944 165.84,7.08800064 165.84,6.96 C165.84,6.7199988 165.947999,6.51200088 166.164,6.336 C166.380001,6.15999912 166.615999,6.072 166.872,6.072 C167.032001,6.072 167.187999,6.11999952 167.34,6.216 C167.492001,6.31200048 167.608,6.44799912 167.688,6.624 L171.696,15.624 L175.704,6.672 Z M5.624,50.168 C4.53599456,50.168 3.5720042,49.9200025 2.732,49.424 C1.8919958,48.9279975 1.24400228,48.2240046 0.788,47.312 C0.33199772,46.3999954 0.104,45.344006 0.104,44.144 C0.104,42.943994 0.33999764,41.8800046 0.812,40.952 C1.28400236,40.0239954 1.94399576,39.3040026 2.792,38.792 C3.64000424,38.2799974 4.61599448,38.024 5.72,38.024 C6.32800304,38.024 6.931997,38.1079992 7.532,38.276 C8.132003,38.4440008 8.65599776,38.6879984 9.104,39.008 C9.39200144,39.200001 9.5959994,39.3879991 9.716,39.572 C9.8360006,39.7560009 9.896,39.9599989 9.896,40.184 C9.896,40.4080011 9.8360006,40.5919993 9.716,40.736 C9.5959994,40.8800007 9.44000096,40.952 9.248,40.952 C9.13599944,40.952 9.01600064,40.9200003 8.888,40.856 C8.75999936,40.7919997 8.65200044,40.7280003 8.564,40.664 C8.47599956,40.5999997 8.41600016,40.5600001 8.384,40.544 C7.96799792,40.2719986 7.57200188,40.0560008 7.196,39.896 C6.81999812,39.7359992 6.36000272,39.656 5.816,39.656 C4.64799416,39.656 3.74000324,40.051996 3.092,40.844 C2.44399676,41.636004 2.12,42.735993 2.12,44.144 C2.12,45.552007 2.44399676,46.6399962 3.092,47.408 C3.74000324,48.1760038 4.64799416,48.56 5.816,48.56 C6.36000272,48.56 6.82799804,48.4800008 7.22,48.32 C7.61200196,48.1599992 8.007998,47.9440014 8.408,47.672 C8.58400088,47.5599994 8.7519992,47.4640004 8.912,47.384 C9.0720008,47.3039996 9.20799944,47.264 9.32,47.264 C9.49600088,47.264 9.6439994,47.3359993 9.764,47.48 C9.8840006,47.6240007 9.944,47.8079989 9.944,48.032 C9.944,48.240001 9.88800056,48.4279992 9.776,48.596 C9.66399944,48.7640008 9.45600152,48.951999 9.152,49.16 C8.70399776,49.4640015 8.16400316,49.7079991 7.532,49.892 C6.89999684,50.0760009 6.2640032,50.168 5.624,50.168 Z M17.2,38.024 C18.5760069,38.024 19.6159965,38.4119961 20.32,39.188 C21.0240035,39.9640039 21.376,41.1199923 21.376,42.656 L21.376,49.16 C21.376,49.4640015 21.2880009,49.6999992 21.112,49.868 C20.9359991,50.0360008 20.7040014,50.12 20.416,50.12 C20.1119985,50.12 19.8720009,50.0360008 19.696,49.868 C19.5199991,49.6999992 19.432,49.4640015 19.432,49.16 L19.432,42.704 C19.432,41.6639948 19.2200021,40.8960025 18.796,40.4 C18.3719979,39.9039975 17.6960046,39.656 16.768,39.656 C15.6959946,39.656 14.8400032,39.9839967 14.2,40.64 C13.5599968,41.2960033 13.24,42.1839944 13.24,43.304 L13.24,49.16 C13.24,49.4640015 13.1560008,49.6999992 12.988,49.868 C12.8199992,50.0360008 12.5840015,50.12 12.28,50.12 C11.9759985,50.12 11.7360009,50.0360008 11.56,49.868 C11.3839991,49.6999992 11.296,49.4640015 11.296,49.16 L11.296,33.896 C11.296,33.6239986 11.3879991,33.4000009 11.572,33.224 C11.7560009,33.0479991 11.9919986,32.96 12.28,32.96 C12.5840015,32.96 12.8199992,33.0439992 12.988,33.212 C13.1560008,33.3800008 13.24,33.6079986 13.24,33.896 L13.24,40.184 C13.6240019,39.4799965 14.1599966,38.9440018 14.848,38.576 C15.5360034,38.2079982 16.3199956,38.024 17.2,38.024 Z M28.704,38.024 C31.6320146,38.024 33.096,39.5599846 33.096,42.632 L33.096,49.16 C33.096,49.4480014 33.0120008,49.6799991 32.844,49.856 C32.6759992,50.0320009 32.4480014,50.12 32.16,50.12 C31.8719986,50.12 31.6400009,50.0320009 31.464,49.856 C31.2879991,49.6799991 31.2,49.4480014 31.2,49.16 L31.2,48.008 C30.8959985,48.6960034 30.4320031,49.2279981 29.808,49.604 C29.1839969,49.9800019 28.4640041,50.168 27.648,50.168 C26.8959962,50.168 26.2040032,50.0160015 25.572,49.712 C24.9399968,49.4079985 24.4400018,48.9840027 24.072,48.44 C23.7039982,47.8959973 23.52,47.2960033 23.52,46.64 C23.52,45.7599956 23.7439978,45.0760024 24.192,44.588 C24.6400022,44.0999976 25.3759949,43.7480011 26.4,43.532 C27.4240051,43.3159989 28.8479909,43.208 30.672,43.208 L31.2,43.208 L31.2,42.416 C31.2,41.4559952 31.004002,40.7520022 30.612,40.304 C30.219998,39.8559978 29.5840044,39.632 28.704,39.632 C27.6159946,39.632 26.5120056,39.927997 25.392,40.52 C24.9599978,40.7920014 24.6560009,40.928 24.48,40.928 C24.287999,40.928 24.1280006,40.8560007 24,40.712 C23.8719994,40.5679993 23.808,40.3840011 23.808,40.16 C23.808,39.9359989 23.8759993,39.7400008 24.012,39.572 C24.1480007,39.4039992 24.3679985,39.2320009 24.672,39.056 C25.2320028,38.7359984 25.8679964,38.4840009 26.58,38.3 C27.2920036,38.1159991 27.9999965,38.024 28.704,38.024 Z M27.912,48.632 C28.8720048,48.632 29.6599969,48.3080032 30.276,47.66 C30.8920031,47.0119968 31.2,46.1760051 31.2,45.152 L31.2,44.456 L30.768,44.456 C29.359993,44.456 28.2880037,44.5159994 27.552,44.636 C26.8159963,44.7560006 26.2920016,44.9559986 25.98,45.236 C25.6679984,45.5160014 25.512,45.9279973 25.512,46.472 C25.512,47.0960031 25.7399977,47.611998 26.196,48.02 C26.6520023,48.428002 27.2239966,48.632 27.912,48.632 Z M41.528,38.024 C44.328014,38.024 45.728,39.5679846 45.728,42.656 L45.728,49.16 C45.728,49.4640015 45.6440008,49.6999992 45.476,49.868 C45.3079992,50.0360008 45.0720015,50.12 44.768,50.12 C44.4639985,50.12 44.2240009,50.0360008 44.048,49.868 C43.8719991,49.6999992 43.784,49.4640015 43.784,49.16 L43.784,42.776 C43.784,41.6879946 43.5720021,40.8960025 43.148,40.4 C42.7239979,39.9039975 42.0480046,39.656 41.12,39.656 C40.0479946,39.656 39.1920032,39.9839967 38.552,40.64 C37.9119968,41.2960033 37.592,42.1839944 37.592,43.304 L37.592,49.16 C37.592,49.4640015 37.5080008,49.6999992 37.34,49.868 C37.1719992,50.0360008 36.9360015,50.12 36.632,50.12 C36.3279985,50.12 36.0880009,50.0360008 35.912,49.868 C35.7359991,49.6999992 35.648,49.4640015 35.648,49.16 L35.648,39.032 C35.648,38.7439986 35.7359991,38.5120009 35.912,38.336 C36.0880009,38.1599991 36.3279985,38.072 36.632,38.072 C36.9200014,38.072 37.1479992,38.1599991 37.316,38.336 C37.4840008,38.5120009 37.568,38.7359986 37.568,39.008 L37.568,40.232 C37.9520019,39.5119964 38.4879966,38.9640019 39.176,38.588 C39.8640034,38.2119981 40.6479956,38.024 41.528,38.024 Z M57.76,38.072 C58.0640015,38.072 58.3039991,38.1599991 58.48,38.336 C58.6560009,38.5120009 58.744,38.7439986 58.744,39.032 L58.744,49.208 C58.744,50.9520087 58.2960045,52.2679956 57.4,53.156 C56.5039955,54.0440044 55.1760088,54.488 53.416,54.488 C51.7039914,54.488 50.2800057,54.1520034 49.144,53.48 C48.5679971,53.1599984 48.28,52.7920021 48.28,52.376 C48.28,52.1519989 48.3399994,51.9680007 48.46,51.824 C48.5800006,51.6799993 48.735999,51.608 48.928,51.608 C49.0880008,51.608 49.3759979,51.7199989 49.792,51.944 C50.3520028,52.2320014 50.9039973,52.4639991 51.448,52.64 C51.9920027,52.8160009 52.6399962,52.904 53.392,52.904 C54.5280057,52.904 55.3839971,52.604003 55.96,52.004 C56.5360029,51.403997 56.824,50.5280058 56.824,49.376 L56.824,47.312 C56.4879983,48.0640038 55.9720035,48.639998 55.276,49.04 C54.5799965,49.440002 53.7600047,49.64 52.816,49.64 C51.7919949,49.64 50.884004,49.4000024 50.092,48.92 C49.299996,48.4399976 48.6840022,47.7600044 48.244,46.88 C47.8039978,45.9999956 47.584,44.9840058 47.584,43.832 C47.584,42.6799942 47.8039978,41.6640044 48.244,40.784 C48.6840022,39.9039956 49.299996,39.2240024 50.092,38.744 C50.884004,38.2639976 51.7919949,38.024 52.816,38.024 C53.7440046,38.024 54.5519966,38.223998 55.24,38.624 C55.9280034,39.024002 56.4479982,39.5919963 56.8,40.328 L56.8,39.032 C56.8,38.7439986 56.8839992,38.5120009 57.052,38.336 C57.2200008,38.1599991 57.4559985,38.072 57.76,38.072 Z M53.2,48.032 C54.3200056,48.032 55.1999968,47.6600037 55.84,46.916 C56.4800032,46.1719963 56.8,45.1440066 56.8,43.832 C56.8,42.5359935 56.4840032,41.5160037 55.852,40.772 C55.2199968,40.0279963 54.3360057,39.656 53.2,39.656 C52.0639943,39.656 51.1720032,40.0279963 50.524,40.772 C49.8759968,41.5160037 49.552,42.5359935 49.552,43.832 C49.552,45.1440066 49.8759968,46.1719963 50.524,46.916 C51.1720032,47.6600037 52.0639943,48.032 53.2,48.032 Z M70.392,47.288 C70.5680009,47.288 70.7199994,47.3599993 70.848,47.504 C70.9760006,47.6480007 71.04,47.8319989 71.04,48.056 C71.04,48.456002 70.7600028,48.8239983 70.2,49.16 C69.6239971,49.4960017 69.0160032,49.7479992 68.376,49.916 C67.7359968,50.0840008 67.112003,50.168 66.504,50.168 C64.695991,50.168 63.2680052,49.6320054 62.22,48.56 C61.1719948,47.4879946 60.648,46.0080094 60.648,44.12 C60.648,42.919994 60.8799977,41.8600046 61.344,40.94 C61.8080023,40.0199954 62.4599958,39.3040026 63.3,38.792 C64.1400042,38.2799974 65.0959946,38.024 66.168,38.024 C67.6880076,38.024 68.8959955,38.519995 69.792,39.512 C70.6880045,40.504005 71.136,41.8479915 71.136,43.544 C71.136,43.8640016 71.0720006,44.0959993 70.944,44.24 C70.8159994,44.3840007 70.6080014,44.456 70.32,44.456 L62.592,44.456 C62.7360007,47.2080138 64.0399877,48.584 66.504,48.584 C67.1280031,48.584 67.6639978,48.5000008 68.112,48.332 C68.5600022,48.1639992 69.0399974,47.9360014 69.552,47.648 C69.9680021,47.4079988 70.2479993,47.288 70.392,47.288 Z M66.192,39.536 C65.1679949,39.536 64.3480031,39.8559968 63.732,40.496 C63.1159969,41.1360032 62.7520006,42.0399942 62.64,43.208 L69.432,43.208 C69.3999998,42.0239941 69.1040028,41.1160032 68.544,40.484 C67.9839972,39.8519968 67.200005,39.536 66.192,39.536 Z M76.928,50.168 C76.1919963,50.168 75.4920033,50.0800009 74.828,49.904 C74.1639967,49.7279991 73.5760026,49.4800016 73.064,49.16 C72.7759986,48.967999 72.5720006,48.7880008 72.452,48.62 C72.3319994,48.4519992 72.272,48.2480012 72.272,48.008 C72.272,47.799999 72.3319994,47.6280007 72.452,47.492 C72.5720006,47.3559993 72.727999,47.288 72.92,47.288 C73.112001,47.288 73.3919982,47.4079988 73.76,47.648 C74.2400024,47.9360014 74.7159976,48.1639992 75.188,48.332 C75.6600024,48.5000008 76.2479965,48.584 76.952,48.584 C77.8160043,48.584 78.4879976,48.4320015 78.968,48.128 C79.4480024,47.8239985 79.688,47.3840029 79.688,46.808 C79.688,46.4559982 79.6000009,46.1720011 79.424,45.956 C79.2479991,45.7399989 78.9440022,45.5480008 78.512,45.38 C78.0799978,45.2119992 77.4480042,45.0400009 76.616,44.864 C75.207993,44.5599985 74.200003,44.1520026 73.592,43.64 C72.983997,43.1279974 72.68,42.4320044 72.68,41.552 C72.68,40.8639966 72.8719981,40.2560026 73.256,39.728 C73.6400019,39.1999974 74.1719966,38.7840015 74.852,38.48 C75.5320034,38.1759985 76.3039957,38.024 77.168,38.024 C77.7920031,38.024 78.3959971,38.1079992 78.98,38.276 C79.5640029,38.4440008 80.0799978,38.6799985 80.528,38.984 C81.0720027,39.3680019 81.344,39.7679979 81.344,40.184 C81.344,40.392001 81.2800006,40.5679993 81.152,40.712 C81.0239994,40.8560007 80.8720009,40.928 80.696,40.928 C80.503999,40.928 80.2160019,40.7920014 79.832,40.52 C79.3839978,40.2319986 78.960002,40.0080008 78.56,39.848 C78.159998,39.6879992 77.664003,39.608 77.072,39.608 C76.3199962,39.608 75.7160023,39.7759983 75.26,40.112 C74.8039977,40.4480017 74.576,40.8959972 74.576,41.456 C74.576,41.8080018 74.6599992,42.0919989 74.828,42.308 C74.9960008,42.5240011 75.275998,42.7159992 75.668,42.884 C76.060002,43.0520008 76.6239963,43.2159992 77.36,43.376 C78.4480054,43.6160012 79.291997,43.8799986 79.892,44.168 C80.492003,44.4560014 80.9199987,44.8079979 81.176,45.224 C81.4320013,45.6400021 81.56,46.1679968 81.56,46.808 C81.56,47.816005 81.1360042,48.6279969 80.288,49.244 C79.4399958,49.8600031 78.320007,50.168 76.928,50.168 Z M89.688,50.12 C89.3999986,50.12 89.1640009,50.0360008 88.98,49.868 C88.7959991,49.6999992 88.704,49.4640015 88.704,49.16 L88.704,39.032 C88.704,38.7279985 88.7959991,38.4920008 88.98,38.324 C89.1640009,38.1559992 89.3999986,38.072 89.688,38.072 C89.9760014,38.072 90.2079991,38.1559992 90.384,38.324 C90.5600009,38.4920008 90.648,38.7279985 90.648,39.032 L90.648,49.16 C90.648,49.4800016 90.5600009,49.7199992 90.384,49.88 C90.2079991,50.0400008 89.9760014,50.12 89.688,50.12 Z M89.688,35.552 C89.3039981,35.552 88.9920012,35.4400011 88.752,35.216 C88.5119988,34.9919989 88.392,34.6960018 88.392,34.328 C88.392,33.9759982 88.5119988,33.6880011 88.752,33.464 C88.9920012,33.2399989 89.3039981,33.128 89.688,33.128 C90.0720019,33.128 90.3839988,33.2399989 90.624,33.464 C90.8640012,33.6880011 90.984,33.9759982 90.984,34.328 C90.984,34.6960018 90.8640012,34.9919989 90.624,35.216 C90.3839988,35.4400011 90.0720019,35.552 89.688,35.552 Z M106.28,38.024 C108.872013,38.024 110.168,39.5679846 110.168,42.656 L110.168,49.16 C110.168,49.4640015 110.080001,49.6999992 109.904,49.868 C109.727999,50.0360008 109.496001,50.12 109.208,50.12 C108.919999,50.12 108.684001,50.0360008 108.5,49.868 C108.315999,49.6999992 108.224,49.4640015 108.224,49.16 L108.224,42.704 C108.224,41.6319946 108.032002,40.8560024 107.648,40.376 C107.263998,39.8959976 106.664004,39.656 105.848,39.656 C104.871995,39.656 104.104003,39.9839967 103.544,40.64 C102.983997,41.2960033 102.704,42.1839944 102.704,43.304 L102.704,49.16 C102.704,49.4640015 102.612001,49.6999992 102.428,49.868 C102.243999,50.0360008 102.008001,50.12 101.72,50.12 C101.431999,50.12 101.200001,50.0360008 101.024,49.868 C100.847999,49.6999992 100.76,49.4640015 100.76,49.16 L100.76,42.704 C100.76,41.6319946 100.568002,40.8560024 100.184,40.376 C99.7999981,39.8959976 99.1920042,39.656 98.36,39.656 C97.3999952,39.656 96.6360028,39.9839967 96.068,40.64 C95.4999972,41.2960033 95.216,42.1839944 95.216,43.304 L95.216,49.16 C95.216,49.4640015 95.1280009,49.6999992 94.952,49.868 C94.7759991,50.0360008 94.5440014,50.12 94.256,50.12 C93.9679986,50.12 93.7320009,50.0360008 93.548,49.868 C93.3639991,49.6999992 93.272,49.4640015 93.272,49.16 L93.272,39.032 C93.272,38.7439986 93.3639991,38.5120009 93.548,38.336 C93.7320009,38.1599991 93.9679986,38.072 94.256,38.072 C94.5280014,38.072 94.7519991,38.1559992 94.928,38.324 C95.1040009,38.4920008 95.192,38.7199986 95.192,39.008 L95.192,40.16 C95.5440018,39.4719966 96.0319969,38.9440018 96.656,38.576 C97.2800031,38.2079982 97.9999959,38.024 98.816,38.024 C100.640009,38.024 101.831997,38.7919923 102.392,40.328 C102.728002,39.6239965 103.239997,39.0640021 103.928,38.648 C104.616003,38.2319979 105.399996,38.024 106.28,38.024 Z M125.728,38.024 C128.320013,38.024 129.616,39.5679846 129.616,42.656 L129.616,49.16 C129.616,49.4640015 129.528001,49.6999992 129.352,49.868 C129.175999,50.0360008 128.944001,50.12 128.656,50.12 C128.367999,50.12 128.132001,50.0360008 127.948,49.868 C127.763999,49.6999992 127.672,49.4640015 127.672,49.16 L127.672,42.704 C127.672,41.6319946 127.480002,40.8560024 127.096,40.376 C126.711998,39.8959976 126.112004,39.656 125.296,39.656 C124.319995,39.656 123.552003,39.9839967 122.992,40.64 C122.431997,41.2960033 122.152,42.1839944 122.152,43.304 L122.152,49.16 C122.152,49.4640015 122.060001,49.6999992 121.876,49.868 C121.691999,50.0360008 121.456001,50.12 121.168,50.12 C120.879999,50.12 120.648001,50.0360008 120.472,49.868 C120.295999,49.6999992 120.208,49.4640015 120.208,49.16 L120.208,42.704 C120.208,41.6319946 120.016002,40.8560024 119.632,40.376 C119.247998,39.8959976 118.640004,39.656 117.808,39.656 C116.847995,39.656 116.084003,39.9839967 115.516,40.64 C114.947997,41.2960033 114.664,42.1839944 114.664,43.304 L114.664,49.16 C114.664,49.4640015 114.576001,49.6999992 114.4,49.868 C114.223999,50.0360008 113.992001,50.12 113.704,50.12 C113.415999,50.12 113.180001,50.0360008 112.996,49.868 C112.811999,49.6999992 112.72,49.4640015 112.72,49.16 L112.72,39.032 C112.72,38.7439986 112.811999,38.5120009 112.996,38.336 C113.180001,38.1599991 113.415999,38.072 113.704,38.072 C113.976001,38.072 114.199999,38.1559992 114.376,38.324 C114.552001,38.4920008 114.64,38.7199986 114.64,39.008 L114.64,40.16 C114.992002,39.4719966 115.479997,38.9440018 116.104,38.576 C116.728003,38.2079982 117.447996,38.024 118.264,38.024 C120.088009,38.024 121.279997,38.7919923 121.84,40.328 C122.176002,39.6239965 122.687997,39.0640021 123.376,38.648 C124.064003,38.2319979 124.847996,38.024 125.728,38.024 Z M141.216,47.288 C141.392001,47.288 141.543999,47.3599993 141.672,47.504 C141.800001,47.6480007 141.864,47.8319989 141.864,48.056 C141.864,48.456002 141.584003,48.8239983 141.024,49.16 C140.447997,49.4960017 139.840003,49.7479992 139.2,49.916 C138.559997,50.0840008 137.936003,50.168 137.328,50.168 C135.519991,50.168 134.092005,49.6320054 133.044,48.56 C131.995995,47.4879946 131.472,46.0080094 131.472,44.12 C131.472,42.919994 131.703998,41.8600046 132.168,40.94 C132.632002,40.0199954 133.283996,39.3040026 134.124,38.792 C134.964004,38.2799974 135.919995,38.024 136.992,38.024 C138.512008,38.024 139.719996,38.519995 140.616,39.512 C141.512004,40.504005 141.96,41.8479915 141.96,43.544 C141.96,43.8640016 141.896001,44.0959993 141.768,44.24 C141.639999,44.3840007 141.432001,44.456 141.144,44.456 L133.416,44.456 C133.560001,47.2080138 134.863988,48.584 137.328,48.584 C137.952003,48.584 138.487998,48.5000008 138.936,48.332 C139.384002,48.1639992 139.863997,47.9360014 140.376,47.648 C140.792002,47.4079988 141.071999,47.288 141.216,47.288 Z M137.016,39.536 C135.991995,39.536 135.172003,39.8559968 134.556,40.496 C133.939997,41.1360032 133.576001,42.0399942 133.464,43.208 L140.256,43.208 C140.224,42.0239941 139.928003,41.1160032 139.368,40.484 C138.807997,39.8519968 138.024005,39.536 137.016,39.536 Z M153.2,32.96 C153.504002,32.96 153.743999,33.0479991 153.92,33.224 C154.096001,33.4000009 154.184,33.6239986 154.184,33.896 L154.184,49.16 C154.184,49.4480014 154.096001,49.6799991 153.92,49.856 C153.743999,50.0320009 153.504002,50.12 153.2,50.12 C152.895998,50.12 152.660001,50.0320009 152.492,49.856 C152.323999,49.6799991 152.24,49.4480014 152.24,49.16 L152.24,47.864 C151.887998,48.6000037 151.372003,49.167998 150.692,49.568 C150.011997,49.968002 149.216005,50.168 148.304,50.168 C147.279995,50.168 146.376004,49.9120026 145.592,49.4 C144.807996,48.8879974 144.200002,48.1720046 143.768,47.252 C143.335998,46.3319954 143.12,45.2640061 143.12,44.048 C143.12,42.847994 143.335998,41.7920046 143.768,40.88 C144.200002,39.9679954 144.807996,39.2640025 145.592,38.768 C146.376004,38.2719975 147.279995,38.024 148.304,38.024 C149.216005,38.024 150.011997,38.223998 150.692,38.624 C151.372003,39.024002 151.887998,39.5919963 152.24,40.328 L152.24,33.896 C152.24,33.6079986 152.323999,33.3800008 152.492,33.212 C152.660001,33.0439992 152.895998,32.96 153.2,32.96 Z M148.688,48.56 C149.824006,48.56 150.699997,48.1720039 151.316,47.396 C151.932003,46.6199961 152.24,45.5200071 152.24,44.096 C152.24,42.6719929 151.932003,41.5760038 151.316,40.808 C150.699997,40.0399962 149.824006,39.656 148.688,39.656 C147.551994,39.656 146.668003,40.0399962 146.036,40.808 C145.403997,41.5760038 145.088,42.655993 145.088,44.048 C145.088,45.4720071 145.403997,46.579996 146.036,47.372 C146.668003,48.164004 147.551994,48.56 148.688,48.56 Z M157.768,50.12 C157.479999,50.12 157.244001,50.0360008 157.06,49.868 C156.875999,49.6999992 156.784,49.4640015 156.784,49.16 L156.784,39.032 C156.784,38.7279985 156.875999,38.4920008 157.06,38.324 C157.244001,38.1559992 157.479999,38.072 157.768,38.072 C158.056001,38.072 158.287999,38.1559992 158.464,38.324 C158.640001,38.4920008 158.728,38.7279985 158.728,39.032 L158.728,49.16 C158.728,49.4800016 158.640001,49.7199992 158.464,49.88 C158.287999,50.0400008 158.056001,50.12 157.768,50.12 Z M157.768,35.552 C157.383998,35.552 157.072001,35.4400011 156.832,35.216 C156.591999,34.9919989 156.472,34.6960018 156.472,34.328 C156.472,33.9759982 156.591999,33.6880011 156.832,33.464 C157.072001,33.2399989 157.383998,33.128 157.768,33.128 C158.152002,33.128 158.463999,33.2399989 158.704,33.464 C158.944001,33.6880011 159.064,33.9759982 159.064,34.328 C159.064,34.6960018 158.944001,34.9919989 158.704,35.216 C158.463999,35.4400011 158.152002,35.552 157.768,35.552 Z M166.128,38.024 C169.056015,38.024 170.52,39.5599846 170.52,42.632 L170.52,49.16 C170.52,49.4480014 170.436001,49.6799991 170.268,49.856 C170.099999,50.0320009 169.872001,50.12 169.584,50.12 C169.295999,50.12 169.064001,50.0320009 168.888,49.856 C168.711999,49.6799991 168.624,49.4480014 168.624,49.16 L168.624,48.008 C168.319998,48.6960034 167.856003,49.2279981 167.232,49.604 C166.607997,49.9800019 165.888004,50.168 165.072,50.168 C164.319996,50.168 163.628003,50.0160015 162.996,49.712 C162.363997,49.4079985 161.864002,48.9840027 161.496,48.44 C161.127998,47.8959973 160.944,47.2960033 160.944,46.64 C160.944,45.7599956 161.167998,45.0760024 161.616,44.588 C162.064002,44.0999976 162.799995,43.7480011 163.824,43.532 C164.848005,43.3159989 166.271991,43.208 168.096,43.208 L168.624,43.208 L168.624,42.416 C168.624,41.4559952 168.428002,40.7520022 168.036,40.304 C167.643998,39.8559978 167.008004,39.632 166.128,39.632 C165.039995,39.632 163.936006,39.927997 162.816,40.52 C162.383998,40.7920014 162.080001,40.928 161.904,40.928 C161.711999,40.928 161.552001,40.8560007 161.424,40.712 C161.295999,40.5679993 161.232,40.3840011 161.232,40.16 C161.232,39.9359989 161.299999,39.7400008 161.436,39.572 C161.572001,39.4039992 161.791998,39.2320009 162.096,39.056 C162.656003,38.7359984 163.291996,38.4840009 164.004,38.3 C164.716004,38.1159991 165.423996,38.024 166.128,38.024 Z M165.336,48.632 C166.296005,48.632 167.083997,48.3080032 167.7,47.66 C168.316003,47.0119968 168.624,46.1760051 168.624,45.152 L168.624,44.456 L168.192,44.456 C166.783993,44.456 165.712004,44.5159994 164.976,44.636 C164.239996,44.7560006 163.716002,44.9559986 163.404,45.236 C163.091998,45.5160014 162.936,45.9279973 162.936,46.472 C162.936,47.0960031 163.163998,47.611998 163.62,48.02 C164.076002,48.428002 164.647997,48.632 165.336,48.632 Z M178.472,48.584 C179.032003,48.6320002 179.312,48.8879977 179.312,49.352 C179.312,49.6240014 179.212001,49.8279993 179.012,49.964 C178.811999,50.1000007 178.512002,50.1520002 178.112,50.12 L177.464,50.072 C176.183994,49.9759995 175.240003,49.5920034 174.632,48.92 C174.023997,48.2479966 173.72,47.2320068 173.72,45.872 L173.72,39.848 L172.112,39.848 C171.839999,39.848 171.628001,39.7800007 171.476,39.644 C171.323999,39.5079993 171.248,39.3280011 171.248,39.104 C171.248,38.8639988 171.323999,38.6720007 171.476,38.528 C171.628001,38.3839993 171.839999,38.312 172.112,38.312 L173.72,38.312 L173.72,35.6 C173.72,35.2959985 173.807999,35.0600008 173.984,34.892 C174.160001,34.7239992 174.399998,34.64 174.704,34.64 C174.992001,34.64 175.223999,34.7239992 175.4,34.892 C175.576001,35.0600008 175.664,35.2959985 175.664,35.6 L175.664,38.312 L178.328,38.312 C178.584001,38.312 178.787999,38.3839993 178.94,38.528 C179.092001,38.6720007 179.168,38.8639988 179.168,39.104 C179.168,39.3280011 179.092001,39.5079993 178.94,39.644 C178.787999,39.7800007 178.584001,39.848 178.328,39.848 L175.664,39.848 L175.664,45.968 C175.664,46.8480044 175.843998,47.483998 176.204,47.876 C176.564002,48.268002 177.103996,48.4879998 177.824,48.536 L178.472,48.584 Z M189.28,47.288 C189.456001,47.288 189.607999,47.3599993 189.736,47.504 C189.864001,47.6480007 189.928,47.8319989 189.928,48.056 C189.928,48.456002 189.648003,48.8239983 189.088,49.16 C188.511997,49.4960017 187.904003,49.7479992 187.264,49.916 C186.623997,50.0840008 186.000003,50.168 185.392,50.168 C183.583991,50.168 182.156005,49.6320054 181.108,48.56 C180.059995,47.4879946 179.536,46.0080094 179.536,44.12 C179.536,42.919994 179.767998,41.8600046 180.232,40.94 C180.696002,40.0199954 181.347996,39.3040026 182.188,38.792 C183.028004,38.2799974 183.983995,38.024 185.056,38.024 C186.576008,38.024 187.783996,38.519995 188.68,39.512 C189.576004,40.504005 190.024,41.8479915 190.024,43.544 C190.024,43.8640016 189.960001,44.0959993 189.832,44.24 C189.703999,44.3840007 189.496001,44.456 189.208,44.456 L181.48,44.456 C181.624001,47.2080138 182.927988,48.584 185.392,48.584 C186.016003,48.584 186.551998,48.5000008 187,48.332 C187.448002,48.1639992 187.927997,47.9360014 188.44,47.648 C188.856002,47.4079988 189.135999,47.288 189.28,47.288 Z M185.08,39.536 C184.055995,39.536 183.236003,39.8559968 182.62,40.496 C182.003997,41.1360032 181.640001,42.0399942 181.528,43.208 L188.32,43.208 C188.288,42.0239941 187.992003,41.1160032 187.432,40.484 C186.871997,39.8519968 186.088005,39.536 185.08,39.536 Z M192.864,50.12 C192.575999,50.12 192.340001,50.0360008 192.156,49.868 C191.971999,49.6999992 191.88,49.4640015 191.88,49.16 L191.88,33.92 C191.88,33.6159985 191.971999,33.3800008 192.156,33.212 C192.340001,33.0439992 192.575999,32.96 192.864,32.96 C193.136001,32.96 193.363999,33.0439992 193.548,33.212 C193.732001,33.3800008 193.824,33.6159985 193.824,33.92 L193.824,49.16 C193.824,49.4640015 193.732001,49.6999992 193.548,49.868 C193.363999,50.0360008 193.136001,50.12 192.864,50.12 Z M204.872,38.672 C205.048001,38.2879981 205.327998,38.096 205.712,38.096 C205.952001,38.096 206.167999,38.1759992 206.36,38.336 C206.552001,38.4960008 206.648,38.6959988 206.648,38.936 C206.648,39.0800007 206.616,39.2079994 206.552,39.32 L199.808,53.864 C199.728,54.0400009 199.612001,54.1759995 199.46,54.272 C199.307999,54.3680005 199.152001,54.416 198.992,54.416 C198.751999,54.416 198.540001,54.3400008 198.356,54.188 C198.171999,54.0359992 198.08,53.8400012 198.08,53.6 C198.08,53.4719994 198.112,53.3440006 198.176,53.216 L199.856,49.592 L195.104,39.32 C195.04,39.2079994 195.008,39.0880006 195.008,38.96 C195.008,38.7199988 195.115999,38.5120009 195.332,38.336 C195.548001,38.1599991 195.783999,38.072 196.04,38.072 C196.200001,38.072 196.355999,38.1199995 196.508,38.216 C196.660001,38.3120005 196.776,38.4479991 196.856,38.624 L200.864,47.624 L204.872,38.672 Z M5.648,82.168 C4.54399448,82.168 3.5720042,81.9200025 2.732,81.424 C1.8919958,80.9279975 1.24400228,80.2200046 0.788,79.3 C0.33199772,78.3799954 0.104,77.3120061 0.104,76.096 C0.104,74.8799939 0.33199772,73.8120046 0.788,72.892 C1.24400228,71.9719954 1.8919958,71.2640025 2.732,70.768 C3.5720042,70.2719975 4.54399448,70.024 5.648,70.024 C6.75200552,70.024 7.72799576,70.2719975 8.576,70.768 C9.42400424,71.2640025 10.0759977,71.9719954 10.532,72.892 C10.9880023,73.8120046 11.216,74.8799939 11.216,76.096 C11.216,77.3120061 10.9880023,78.3799954 10.532,79.3 C10.0759977,80.2200046 9.42400424,80.9279975 8.576,81.424 C7.72799576,81.9200025 6.75200552,82.168 5.648,82.168 Z M5.648,80.56 C6.80000576,80.56 7.68399692,80.1800038 8.3,79.42 C8.91600308,78.6599962 9.224,77.5520073 9.224,76.096 C9.224,74.6719929 8.91200312,73.5720039 8.288,72.796 C7.66399688,72.0199961 6.78400568,71.632 5.648,71.632 C4.51199432,71.632 3.63200312,72.0199961 3.008,72.796 C2.38399688,73.5720039 2.072,74.6719929 2.072,76.096 C2.072,77.5360072 2.37999692,78.6399962 2.996,79.408 C3.61200308,80.1760038 4.49599424,80.56 5.648,80.56 Z M18.904,70.072 C19.5760034,70.0239998 19.912,70.295997 19.912,70.888 C19.912,71.1440013 19.8400007,71.3479992 19.696,71.5 C19.5519993,71.6520008 19.3040018,71.7439998 18.952,71.776 L18.232,71.848 C17.1599946,71.9440005 16.3640026,72.3239967 15.844,72.988 C15.3239974,73.6520033 15.064,74.4319955 15.064,75.328 L15.064,81.16 C15.064,81.4800016 14.9760009,81.7199992 14.8,81.88 C14.6239991,82.0400008 14.3920014,82.12 14.104,82.12 C13.8159986,82.12 13.5800009,82.0360008 13.396,81.868 C13.2119991,81.6999992 13.12,81.4640015 13.12,81.16 L13.12,71.032 C13.12,70.7279985 13.215999,70.4920008 13.408,70.324 C13.600001,70.1559992 13.8319986,70.072 14.104,70.072 C14.3600013,70.072 14.5759991,70.1559992 14.752,70.324 C14.9280009,70.4920008 15.016,70.7199986 15.016,71.008 L15.016,72.352 C15.3520017,71.6479965 15.8279969,71.1120018 16.444,70.744 C17.0600031,70.3759982 17.767996,70.1600003 18.568,70.096 L18.904,70.072 Z M30.632,82.168 C29.5279945,82.168 28.5560042,81.9200025 27.716,81.424 C26.8759958,80.9279975 26.2280023,80.2200046 25.772,79.3 C25.3159977,78.3799954 25.088,77.3120061 25.088,76.096 C25.088,74.8799939 25.3159977,73.8120046 25.772,72.892 C26.2280023,71.9719954 26.8759958,71.2640025 27.716,70.768 C28.5560042,70.2719975 29.5279945,70.024 30.632,70.024 C31.7360055,70.024 32.7119958,70.2719975 33.56,70.768 C34.4080042,71.2640025 35.0599977,71.9719954 35.516,72.892 C35.9720023,73.8120046 36.2,74.8799939 36.2,76.096 C36.2,77.3120061 35.9720023,78.3799954 35.516,79.3 C35.0599977,80.2200046 34.4080042,80.9279975 33.56,81.424 C32.7119958,81.9200025 31.7360055,82.168 30.632,82.168 Z M30.632,80.56 C31.7840058,80.56 32.6679969,80.1800038 33.284,79.42 C33.9000031,78.6599962 34.208,77.5520073 34.208,76.096 C34.208,74.6719929 33.8960031,73.5720039 33.272,72.796 C32.6479969,72.0199961 31.7680057,71.632 30.632,71.632 C29.4959943,71.632 28.6160031,72.0199961 27.992,72.796 C27.3679969,73.5720039 27.056,74.6719929 27.056,76.096 C27.056,77.5360072 27.3639969,78.6399962 27.98,79.408 C28.5960031,80.1760038 29.4799942,80.56 30.632,80.56 Z M43.984,70.024 C46.784014,70.024 48.184,71.5679846 48.184,74.656 L48.184,81.16 C48.184,81.4640015 48.1000008,81.6999992 47.932,81.868 C47.7639992,82.0360008 47.5280015,82.12 47.224,82.12 C46.9199985,82.12 46.6800009,82.0360008 46.504,81.868 C46.3279991,81.6999992 46.24,81.4640015 46.24,81.16 L46.24,74.776 C46.24,73.6879946 46.0280021,72.8960025 45.604,72.4 C45.1799979,71.9039975 44.5040046,71.656 43.576,71.656 C42.5039946,71.656 41.6480032,71.9839967 41.008,72.64 C40.3679968,73.2960033 40.048,74.1839944 40.048,75.304 L40.048,81.16 C40.048,81.4640015 39.9640008,81.6999992 39.796,81.868 C39.6279992,82.0360008 39.3920015,82.12 39.088,82.12 C38.7839985,82.12 38.5440009,82.0360008 38.368,81.868 C38.1919991,81.6999992 38.104,81.4640015 38.104,81.16 L38.104,71.032 C38.104,70.7439986 38.1919991,70.5120009 38.368,70.336 C38.5440009,70.1599991 38.7839985,70.072 39.088,70.072 C39.3760014,70.072 39.6039992,70.1599991 39.772,70.336 C39.9400008,70.5120009 40.024,70.7359986 40.024,71.008 L40.024,72.232 C40.4080019,71.5119964 40.9439966,70.9640019 41.632,70.588 C42.3200034,70.2119981 43.1039956,70.024 43.984,70.024 Z M60.704,70.024 C63.6320146,70.024 65.096,71.5599846 65.096,74.632 L65.096,81.16 C65.096,81.4480014 65.0120008,81.6799991 64.844,81.856 C64.6759992,82.0320009 64.4480014,82.12 64.16,82.12 C63.8719986,82.12 63.6400009,82.0320009 63.464,81.856 C63.2879991,81.6799991 63.2,81.4480014 63.2,81.16 L63.2,80.008 C62.8959985,80.6960034 62.4320031,81.2279981 61.808,81.604 C61.1839969,81.9800019 60.4640041,82.168 59.648,82.168 C58.8959962,82.168 58.2040032,82.0160015 57.572,81.712 C56.9399968,81.4079985 56.4400018,80.9840027 56.072,80.44 C55.7039982,79.8959973 55.52,79.2960033 55.52,78.64 C55.52,77.7599956 55.7439978,77.0760024 56.192,76.588 C56.6400022,76.0999976 57.3759949,75.7480011 58.4,75.532 C59.4240051,75.3159989 60.8479909,75.208 62.672,75.208 L63.2,75.208 L63.2,74.416 C63.2,73.4559952 63.004002,72.7520022 62.612,72.304 C62.219998,71.8559978 61.5840044,71.632 60.704,71.632 C59.6159946,71.632 58.5120056,71.927997 57.392,72.52 C56.9599978,72.7920014 56.6560009,72.928 56.48,72.928 C56.287999,72.928 56.1280006,72.8560007 56,72.712 C55.8719994,72.5679993 55.808,72.3840011 55.808,72.16 C55.808,71.9359989 55.8759993,71.7400008 56.012,71.572 C56.1480007,71.4039992 56.3679985,71.2320009 56.672,71.056 C57.2320028,70.7359984 57.8679964,70.4840009 58.58,70.3 C59.2920036,70.1159991 59.9999965,70.024 60.704,70.024 Z M59.912,80.632 C60.8720048,80.632 61.6599969,80.3080032 62.276,79.66 C62.8920031,79.0119968 63.2,78.1760051 63.2,77.152 L63.2,76.456 L62.768,76.456 C61.359993,76.456 60.2880037,76.5159994 59.552,76.636 C58.8159963,76.7560006 58.2920016,76.9559986 57.98,77.236 C57.6679984,77.5160014 57.512,77.9279973 57.512,78.472 C57.512,79.0960031 57.7399977,79.611998 58.196,80.02 C58.6520023,80.428002 59.2239966,80.632 59.912,80.632 Z M76.776,82.168 C76.0399963,82.168 75.3400033,82.0800009 74.676,81.904 C74.0119967,81.7279991 73.4240026,81.4800016 72.912,81.16 C72.6239986,80.967999 72.4200006,80.7880008 72.3,80.62 C72.1799994,80.4519992 72.12,80.2480012 72.12,80.008 C72.12,79.799999 72.1799994,79.6280007 72.3,79.492 C72.4200006,79.3559993 72.575999,79.288 72.768,79.288 C72.960001,79.288 73.2399982,79.4079988 73.608,79.648 C74.0880024,79.9360014 74.5639976,80.1639992 75.036,80.332 C75.5080024,80.5000008 76.0959965,80.584 76.8,80.584 C77.6640043,80.584 78.3359976,80.4320015 78.816,80.128 C79.2960024,79.8239985 79.536,79.3840029 79.536,78.808 C79.536,78.4559982 79.4480009,78.1720011 79.272,77.956 C79.0959991,77.7399989 78.7920022,77.5480008 78.36,77.38 C77.9279978,77.2119992 77.2960042,77.0400009 76.464,76.864 C75.055993,76.5599985 74.048003,76.1520026 73.44,75.64 C72.831997,75.1279974 72.528,74.4320044 72.528,73.552 C72.528,72.8639966 72.7199981,72.2560026 73.104,71.728 C73.4880019,71.1999974 74.0199966,70.7840015 74.7,70.48 C75.3800034,70.1759985 76.1519957,70.024 77.016,70.024 C77.6400031,70.024 78.2439971,70.1079992 78.828,70.276 C79.4120029,70.4440008 79.9279978,70.6799985 80.376,70.984 C80.9200027,71.3680019 81.192,71.7679979 81.192,72.184 C81.192,72.392001 81.1280006,72.5679993 81,72.712 C80.8719994,72.8560007 80.7200009,72.928 80.544,72.928 C80.351999,72.928 80.0640019,72.7920014 79.68,72.52 C79.2319978,72.2319986 78.808002,72.0080008 78.408,71.848 C78.007998,71.6879992 77.512003,71.608 76.92,71.608 C76.1679962,71.608 75.5640023,71.7759983 75.108,72.112 C74.6519977,72.4480017 74.424,72.8959972 74.424,73.456 C74.424,73.8080018 74.5079992,74.0919989 74.676,74.308 C74.8440008,74.5240011 75.123998,74.7159992 75.516,74.884 C75.908002,75.0520008 76.4719963,75.2159992 77.208,75.376 C78.2960054,75.6160012 79.139997,75.8799986 79.74,76.168 C80.340003,76.4560014 80.7679987,76.8079979 81.024,77.224 C81.2800013,77.6400021 81.408,78.1679968 81.408,78.808 C81.408,79.816005 80.9840042,80.6279969 80.136,81.244 C79.2879958,81.8600031 78.168007,82.168 76.776,82.168 Z M88.184,82.168 C87.0959946,82.168 86.1320042,81.9200025 85.292,81.424 C84.4519958,80.9279975 83.8040023,80.2240046 83.348,79.312 C82.8919977,78.3999954 82.664,77.344006 82.664,76.144 C82.664,74.943994 82.8999976,73.8800046 83.372,72.952 C83.8440024,72.0239954 84.5039958,71.3040026 85.352,70.792 C86.2000042,70.2799974 87.1759945,70.024 88.28,70.024 C88.888003,70.024 89.491997,70.1079992 90.092,70.276 C90.692003,70.4440008 91.2159978,70.6879984 91.664,71.008 C91.9520014,71.200001 92.1559994,71.3879991 92.276,71.572 C92.3960006,71.7560009 92.456,71.9599989 92.456,72.184 C92.456,72.4080011 92.3960006,72.5919993 92.276,72.736 C92.1559994,72.8800007 92.000001,72.952 91.808,72.952 C91.6959994,72.952 91.5760006,72.9200003 91.448,72.856 C91.3199994,72.7919997 91.2120004,72.7280003 91.124,72.664 C91.0359996,72.5999997 90.9760002,72.5600001 90.944,72.544 C90.5279979,72.2719986 90.1320019,72.0560008 89.756,71.896 C89.3799981,71.7359992 88.9200027,71.656 88.376,71.656 C87.2079942,71.656 86.3000032,72.051996 85.652,72.844 C85.0039968,73.636004 84.68,74.735993 84.68,76.144 C84.68,77.552007 85.0039968,78.6399962 85.652,79.408 C86.3000032,80.1760038 87.2079942,80.56 88.376,80.56 C88.9200027,80.56 89.387998,80.4800008 89.78,80.32 C90.172002,80.1599992 90.567998,79.9440014 90.968,79.672 C91.1440009,79.5599994 91.3119992,79.4640004 91.472,79.384 C91.6320008,79.3039996 91.7679994,79.264 91.88,79.264 C92.0560009,79.264 92.2039994,79.3359993 92.324,79.48 C92.4440006,79.6240007 92.504,79.8079989 92.504,80.032 C92.504,80.240001 92.4480006,80.4279992 92.336,80.596 C92.2239994,80.7640008 92.0160015,80.951999 91.712,81.16 C91.2639978,81.4640015 90.7240032,81.7079991 90.092,81.892 C89.4599968,82.0760009 88.8240032,82.168 88.184,82.168 Z M99.76,70.024 C101.136007,70.024 102.175996,70.4119961 102.88,71.188 C103.584004,71.9640039 103.936,73.1199923 103.936,74.656 L103.936,81.16 C103.936,81.4640015 103.848001,81.6999992 103.672,81.868 C103.495999,82.0360008 103.264001,82.12 102.976,82.12 C102.671998,82.12 102.432001,82.0360008 102.256,81.868 C102.079999,81.6999992 101.992,81.4640015 101.992,81.16 L101.992,74.704 C101.992,73.6639948 101.780002,72.8960025 101.356,72.4 C100.931998,71.9039975 100.256005,71.656 99.328,71.656 C98.2559946,71.656 97.4000032,71.9839967 96.76,72.64 C96.1199968,73.2960033 95.8,74.1839944 95.8,75.304 L95.8,81.16 C95.8,81.4640015 95.7160008,81.6999992 95.548,81.868 C95.3799992,82.0360008 95.1440015,82.12 94.84,82.12 C94.5359985,82.12 94.2960009,82.0360008 94.12,81.868 C93.9439991,81.6999992 93.856,81.4640015 93.856,81.16 L93.856,65.896 C93.856,65.6239986 93.9479991,65.4000009 94.132,65.224 C94.3160009,65.0479991 94.5519986,64.96 94.84,64.96 C95.1440015,64.96 95.3799992,65.0439992 95.548,65.212 C95.7160008,65.3800008 95.8,65.6079986 95.8,65.896 L95.8,72.184 C96.1840019,71.4799965 96.7199966,70.9440018 97.408,70.576 C98.0960034,70.2079982 98.8799956,70.024 99.76,70.024 Z M115.536,79.288 C115.712001,79.288 115.863999,79.3599993 115.992,79.504 C116.120001,79.6480007 116.184,79.8319989 116.184,80.056 C116.184,80.456002 115.904003,80.8239983 115.344,81.16 C114.767997,81.4960017 114.160003,81.7479992 113.52,81.916 C112.879997,82.0840008 112.256003,82.168 111.648,82.168 C109.839991,82.168 108.412005,81.6320054 107.364,80.56 C106.315995,79.4879946 105.792,78.0080094 105.792,76.12 C105.792,74.919994 106.023998,73.8600046 106.488,72.94 C106.952002,72.0199954 107.603996,71.3040026 108.444,70.792 C109.284004,70.2799974 110.239995,70.024 111.312,70.024 C112.832008,70.024 114.039996,70.519995 114.936,71.512 C115.832004,72.504005 116.28,73.8479915 116.28,75.544 C116.28,75.8640016 116.216001,76.0959993 116.088,76.24 C115.959999,76.3840007 115.752001,76.456 115.464,76.456 L107.736,76.456 C107.880001,79.2080138 109.183988,80.584 111.648,80.584 C112.272003,80.584 112.807998,80.5000008 113.256,80.332 C113.704002,80.1639992 114.183997,79.9360014 114.696,79.648 C115.112002,79.4079988 115.391999,79.288 115.536,79.288 Z M111.336,71.536 C110.311995,71.536 109.492003,71.8559968 108.876,72.496 C108.259997,73.1360032 107.896001,74.0399942 107.784,75.208 L114.576,75.208 C114.544,74.0239941 114.248003,73.1160032 113.688,72.484 C113.127997,71.8519968 112.344005,71.536 111.336,71.536 Z M127.52,64.96 C127.824002,64.96 128.063999,65.0479991 128.24,65.224 C128.416001,65.4000009 128.504,65.6239986 128.504,65.896 L128.504,81.16 C128.504,81.4480014 128.416001,81.6799991 128.24,81.856 C128.063999,82.0320009 127.824002,82.12 127.52,82.12 C127.215998,82.12 126.980001,82.0320009 126.812,81.856 C126.643999,81.6799991 126.56,81.4480014 126.56,81.16 L126.56,79.864 C126.207998,80.6000037 125.692003,81.167998 125.012,81.568 C124.331997,81.968002 123.536005,82.168 122.624,82.168 C121.599995,82.168 120.696004,81.9120026 119.912,81.4 C119.127996,80.8879974 118.520002,80.1720046 118.088,79.252 C117.655998,78.3319954 117.44,77.2640061 117.44,76.048 C117.44,74.847994 117.655998,73.7920046 118.088,72.88 C118.520002,71.9679954 119.127996,71.2640025 119.912,70.768 C120.696004,70.2719975 121.599995,70.024 122.624,70.024 C123.536005,70.024 124.331997,70.223998 125.012,70.624 C125.692003,71.024002 126.207998,71.5919963 126.56,72.328 L126.56,65.896 C126.56,65.6079986 126.643999,65.3800008 126.812,65.212 C126.980001,65.0439992 127.215998,64.96 127.52,64.96 Z M123.008,80.56 C124.144006,80.56 125.019997,80.1720039 125.636,79.396 C126.252003,78.6199961 126.56,77.5200071 126.56,76.096 C126.56,74.6719929 126.252003,73.5760038 125.636,72.808 C125.019997,72.0399962 124.144006,71.656 123.008,71.656 C121.871994,71.656 120.988003,72.0399962 120.356,72.808 C119.723997,73.5760038 119.408,74.655993 119.408,76.048 C119.408,77.4720071 119.723997,78.579996 120.356,79.372 C120.988003,80.164004 121.871994,80.56 123.008,80.56 Z M139.984,70.072 C140.288002,70.072 140.523999,70.1599991 140.692,70.336 C140.860001,70.5120009 140.944,70.7439986 140.944,71.032 L140.944,81.184 C140.944,81.4560014 140.860001,81.6799991 140.692,81.856 C140.523999,82.0320009 140.288002,82.12 139.984,82.12 C139.695999,82.12 139.468001,82.0360008 139.3,81.868 C139.131999,81.6999992 139.048,81.4800014 139.048,81.208 L139.048,80.008 C138.679998,80.7120035 138.164003,81.2479982 137.5,81.616 C136.835997,81.9840018 136.088004,82.168 135.256,82.168 C133.863993,82.168 132.816004,81.7800039 132.112,81.004 C131.407996,80.2279961 131.056,79.0800076 131.056,77.56 L131.056,71.032 C131.056,70.7439986 131.143999,70.5120009 131.32,70.336 C131.496001,70.1599991 131.735998,70.072 132.04,70.072 C132.344002,70.072 132.579999,70.1599991 132.748,70.336 C132.916001,70.5120009 133,70.7439986 133,71.032 L133,77.512 C133,78.5520052 133.207998,79.3159976 133.624,79.804 C134.040002,80.2920024 134.695996,80.536 135.592,80.536 C136.616005,80.536 137.439997,80.2040033 138.064,79.54 C138.688003,78.8759967 139,78.0000054 139,76.912 L139,71.032 C139,70.7439986 139.087999,70.5120009 139.264,70.336 C139.440001,70.1599991 139.679998,70.072 139.984,70.072 Z M144.552,82.12 C144.263999,82.12 144.028001,82.0360008 143.844,81.868 C143.659999,81.6999992 143.568,81.4640015 143.568,81.16 L143.568,65.92 C143.568,65.6159985 143.659999,65.3800008 143.844,65.212 C144.028001,65.0439992 144.263999,64.96 144.552,64.96 C144.824001,64.96 145.051999,65.0439992 145.236,65.212 C145.420001,65.3800008 145.512,65.6159985 145.512,65.92 L145.512,81.16 C145.512,81.4640015 145.420001,81.6999992 145.236,81.868 C145.051999,82.0360008 144.824001,82.12 144.552,82.12 Z M157.184,79.288 C157.360001,79.288 157.511999,79.3599993 157.64,79.504 C157.768001,79.6480007 157.832,79.8319989 157.832,80.056 C157.832,80.456002 157.552003,80.8239983 156.992,81.16 C156.415997,81.4960017 155.808003,81.7479992 155.168,81.916 C154.527997,82.0840008 153.904003,82.168 153.296,82.168 C151.487991,82.168 150.060005,81.6320054 149.012,80.56 C147.963995,79.4879946 147.44,78.0080094 147.44,76.12 C147.44,74.919994 147.671998,73.8600046 148.136,72.94 C148.600002,72.0199954 149.251996,71.3040026 150.092,70.792 C150.932004,70.2799974 151.887995,70.024 152.96,70.024 C154.480008,70.024 155.687996,70.519995 156.584,71.512 C157.480004,72.504005 157.928,73.8479915 157.928,75.544 C157.928,75.8640016 157.864001,76.0959993 157.736,76.24 C157.607999,76.3840007 157.400001,76.456 157.112,76.456 L149.384,76.456 C149.528001,79.2080138 150.831988,80.584 153.296,80.584 C153.920003,80.584 154.455998,80.5000008 154.904,80.332 C155.352002,80.1639992 155.831997,79.9360014 156.344,79.648 C156.760002,79.4079988 157.039999,79.288 157.184,79.288 Z M152.984,71.536 C151.959995,71.536 151.140003,71.8559968 150.524,72.496 C149.907997,73.1360032 149.544001,74.0399942 149.432,75.208 L156.224,75.208 C156.192,74.0239941 155.896003,73.1160032 155.336,72.484 C154.775997,71.8519968 153.992005,71.536 152.984,71.536 Z" id="Deploys-the-policy-c"></path>
            </g>
        </g>
    </g>
</svg>