<?xml version="1.0" encoding="UTF-8"?>
<svg width="206px" height="119px" viewBox="0 0 206 119" version="1.1" xmlns="http://www.w3.org/2000/svg" xmlns:xlink="http://www.w3.org/1999/xlink">
    <!-- Generator: Sketch 52.4 (67378) - http://www.bohemiancoding.com/sketch -->
    <title>Emails reviewers and 2</title>
    <desc>Created with Sketch.</desc>
    <g id="Page-1" stroke="none" stroke-width="1" fill="none" fill-rule="evenodd">
        <g id="Artboard-Copy" transform="translate(-1032.000000, -744.000000)" fill="#333333">
            <g id="Emails-reviewers-and-2" transform="translate(1032.000000, 744.000000)">
                <path d="M2.096,18 C1.79199848,18 1.54800092,17.9120009 1.364,17.736 C1.17999908,17.5599991 1.088,17.3280014 1.088,17.04 L1.088,2.04 C1.088,1.75199856 1.17999908,1.52000088 1.364,1.344 C1.54800092,1.16799912 1.79199848,1.08 2.096,1.08 L11.072,1.08 C11.3600014,1.08 11.5839992,1.15199928 11.744,1.296 C11.9040008,1.44000072 11.984,1.63999872 11.984,1.896 C11.984,2.15200128 11.9040008,2.35199928 11.744,2.496 C11.5839992,2.64000072 11.3600014,2.712 11.072,2.712 L3.032,2.712 L3.032,8.592 L10.592,8.592 C10.8800014,8.592 11.1039992,8.66399928 11.264,8.808 C11.4240008,8.95200072 11.504,9.15199872 11.504,9.408 C11.504,9.66400128 11.4240008,9.86399928 11.264,10.008 C11.1039992,10.1520007 10.8800014,10.224 10.592,10.224 L3.032,10.224 L3.032,16.368 L11.072,16.368 C11.3600014,16.368 11.5839992,16.4359993 11.744,16.572 C11.9040008,16.7080007 11.984,16.9119986 11.984,17.184 C11.984,17.4400013 11.9040008,17.6399993 11.744,17.784 C11.5839992,17.9280007 11.3600014,18 11.072,18 L2.096,18 Z M26.776,6.024 C29.368013,6.024 30.664,7.56798456 30.664,10.656 L30.664,17.16 C30.664,17.4640015 30.5760009,17.6999992 30.4,17.868 C30.2239991,18.0360008 29.9920014,18.12 29.704,18.12 C29.4159986,18.12 29.1800009,18.0360008 28.996,17.868 C28.8119991,17.6999992 28.72,17.4640015 28.72,17.16 L28.72,10.704 C28.72,9.63199464 28.5280019,8.8560024 28.144,8.376 C27.7599981,7.8959976 27.1600041,7.656 26.344,7.656 C25.3679951,7.656 24.6000028,7.98399672 24.04,8.64 C23.4799972,9.29600328 23.2,10.1839944 23.2,11.304 L23.2,17.16 C23.2,17.4640015 23.1080009,17.6999992 22.924,17.868 C22.7399991,18.0360008 22.5040014,18.12 22.216,18.12 C21.9279986,18.12 21.6960009,18.0360008 21.52,17.868 C21.3439991,17.6999992 21.256,17.4640015 21.256,17.16 L21.256,10.704 C21.256,9.63199464 21.0640019,8.8560024 20.68,8.376 C20.2959981,7.8959976 19.6880042,7.656 18.856,7.656 C17.8959952,7.656 17.1320028,7.98399672 16.564,8.64 C15.9959972,9.29600328 15.712,10.1839944 15.712,11.304 L15.712,17.16 C15.712,17.4640015 15.6240009,17.6999992 15.448,17.868 C15.2719991,18.0360008 15.0400014,18.12 14.752,18.12 C14.4639986,18.12 14.2280009,18.0360008 14.044,17.868 C13.8599991,17.6999992 13.768,17.4640015 13.768,17.16 L13.768,7.032 C13.768,6.74399856 13.8599991,6.51200088 14.044,6.336 C14.2280009,6.15999912 14.4639986,6.072 14.752,6.072 C15.0240014,6.072 15.2479991,6.15599916 15.424,6.324 C15.6000009,6.49200084 15.688,6.71999856 15.688,7.008 L15.688,8.16 C16.0400018,7.47199656 16.5279969,6.94400184 17.152,6.576 C17.7760031,6.20799816 18.4959959,6.024 19.312,6.024 C21.1360091,6.024 22.3279972,6.79199232 22.888,8.328 C23.2240017,7.62399648 23.7359966,7.06400208 24.424,6.648 C25.1120034,6.23199792 25.8959956,6.024 26.776,6.024 Z M37.992,6.024 C40.9200146,6.024 42.384,7.55998464 42.384,10.632 L42.384,17.16 C42.384,17.4480014 42.3000008,17.6799991 42.132,17.856 C41.9639992,18.0320009 41.7360014,18.12 41.448,18.12 C41.1599986,18.12 40.9280009,18.0320009 40.752,17.856 C40.5759991,17.6799991 40.488,17.4480014 40.488,17.16 L40.488,16.008 C40.1839985,16.6960034 39.7200031,17.2279981 39.096,17.604 C38.4719969,17.9800019 37.7520041,18.168 36.936,18.168 C36.1839962,18.168 35.4920032,18.0160015 34.86,17.712 C34.2279968,17.4079985 33.7280018,16.9840027 33.36,16.44 C32.9919982,15.8959973 32.808,15.2960033 32.808,14.64 C32.808,13.7599956 33.0319978,13.0760024 33.48,12.588 C33.9280022,12.0999976 34.6639949,11.7480011 35.688,11.532 C36.7120051,11.3159989 38.1359909,11.208 39.96,11.208 L40.488,11.208 L40.488,10.416 C40.488,9.4559952 40.292002,8.75200224 39.9,8.304 C39.507998,7.85599776 38.8720044,7.632 37.992,7.632 C36.9039946,7.632 35.8000056,7.92799704 34.68,8.52 C34.2479978,8.79200136 33.9440009,8.928 33.768,8.928 C33.575999,8.928 33.4160006,8.85600072 33.288,8.712 C33.1599994,8.56799928 33.096,8.38400112 33.096,8.16 C33.096,7.93599888 33.1639993,7.74000084 33.3,7.572 C33.4360007,7.40399916 33.6559985,7.23200088 33.96,7.056 C34.5200028,6.7359984 35.1559964,6.48400092 35.868,6.3 C36.5800036,6.11599908 37.2879965,6.024 37.992,6.024 Z M37.2,16.632 C38.1600048,16.632 38.9479969,16.3080032 39.564,15.66 C40.1800031,15.0119968 40.488,14.1760051 40.488,13.152 L40.488,12.456 L40.056,12.456 C38.647993,12.456 37.5760037,12.5159994 36.84,12.636 C36.1039963,12.7560006 35.5800016,12.9559986 35.268,13.236 C34.9559984,13.5160014 34.8,13.9279973 34.8,14.472 C34.8,15.0960031 35.0279977,15.611998 35.484,16.02 C35.9400023,16.428002 36.5119966,16.632 37.2,16.632 Z M45.92,18.12 C45.6319986,18.12 45.3960009,18.0360008 45.212,17.868 C45.0279991,17.6999992 44.936,17.4640015 44.936,17.16 L44.936,7.032 C44.936,6.72799848 45.0279991,6.49200084 45.212,6.324 C45.3960009,6.15599916 45.6319986,6.072 45.92,6.072 C46.2080014,6.072 46.4399991,6.15599916 46.616,6.324 C46.7920009,6.49200084 46.88,6.72799848 46.88,7.032 L46.88,17.16 C46.88,17.4800016 46.7920009,17.7199992 46.616,17.88 C46.4399991,18.0400008 46.2080014,18.12 45.92,18.12 Z M45.92,3.552 C45.5359981,3.552 45.2240012,3.44000112 44.984,3.216 C44.7439988,2.99199888 44.624,2.69600184 44.624,2.328 C44.624,1.97599824 44.7439988,1.68800112 44.984,1.464 C45.2240012,1.23999888 45.5359981,1.128 45.92,1.128 C46.3040019,1.128 46.6159988,1.23999888 46.856,1.464 C47.0960012,1.68800112 47.216,1.97599824 47.216,2.328 C47.216,2.69600184 47.0960012,2.99199888 46.856,3.216 C46.6159988,3.44000112 46.3040019,3.552 45.92,3.552 Z M50.488,18.12 C50.1999986,18.12 49.9640009,18.0360008 49.78,17.868 C49.5959991,17.6999992 49.504,17.4640015 49.504,17.16 L49.504,1.92 C49.504,1.61599848 49.5959991,1.38000084 49.78,1.212 C49.9640009,1.04399916 50.1999986,0.96 50.488,0.96 C50.7600014,0.96 50.9879991,1.04399916 51.172,1.212 C51.3560009,1.38000084 51.448,1.61599848 51.448,1.92 L51.448,17.16 C51.448,17.4640015 51.3560009,17.6999992 51.172,17.868 C50.9879991,18.0360008 50.7600014,18.12 50.488,18.12 Z M58.008,18.168 C57.2719963,18.168 56.5720033,18.0800009 55.908,17.904 C55.2439967,17.7279991 54.6560026,17.4800016 54.144,17.16 C53.8559986,16.967999 53.6520006,16.7880008 53.532,16.62 C53.4119994,16.4519992 53.352,16.2480012 53.352,16.008 C53.352,15.799999 53.4119994,15.6280007 53.532,15.492 C53.6520006,15.3559993 53.807999,15.288 54,15.288 C54.192001,15.288 54.4719982,15.4079988 54.84,15.648 C55.3200024,15.9360014 55.7959976,16.1639992 56.268,16.332 C56.7400024,16.5000008 57.3279965,16.584 58.032,16.584 C58.8960043,16.584 59.5679976,16.4320015 60.048,16.128 C60.5280024,15.8239985 60.768,15.3840029 60.768,14.808 C60.768,14.4559982 60.6800009,14.1720011 60.504,13.956 C60.3279991,13.7399989 60.0240022,13.5480008 59.592,13.38 C59.1599978,13.2119992 58.5280042,13.0400009 57.696,12.864 C56.287993,12.5599985 55.280003,12.1520026 54.672,11.64 C54.063997,11.1279974 53.76,10.4320044 53.76,9.552 C53.76,8.86399656 53.9519981,8.25600264 54.336,7.728 C54.7200019,7.19999736 55.2519966,6.78400152 55.932,6.48 C56.6120034,6.17599848 57.3839957,6.024 58.248,6.024 C58.8720031,6.024 59.4759971,6.10799916 60.06,6.276 C60.6440029,6.44400084 61.1599978,6.67999848 61.608,6.984 C62.1520027,7.36800192 62.424,7.76799792 62.424,8.184 C62.424,8.39200104 62.3600006,8.56799928 62.232,8.712 C62.1039994,8.85600072 61.9520009,8.928 61.776,8.928 C61.583999,8.928 61.2960019,8.79200136 60.912,8.52 C60.4639978,8.23199856 60.040002,8.0080008 59.64,7.848 C59.239998,7.6879992 58.744003,7.608 58.152,7.608 C57.3999962,7.608 56.7960023,7.77599832 56.34,8.112 C55.8839977,8.44800168 55.656,8.8959972 55.656,9.456 C55.656,9.80800176 55.7399992,10.0919989 55.908,10.308 C56.0760008,10.5240011 56.355998,10.7159992 56.748,10.884 C57.140002,11.0520008 57.7039963,11.2159992 58.44,11.376 C59.5280054,11.6160012 60.371997,11.8799986 60.972,12.168 C61.572003,12.4560014 61.9999987,12.8079979 62.256,13.224 C62.5120013,13.6400021 62.64,14.1679968 62.64,14.808 C62.64,15.816005 62.2160042,16.6279969 61.368,17.244 C60.5199958,17.8600031 59.400007,18.168 58.008,18.168 Z M75.568,6.072 C76.2400034,6.02399976 76.576,6.29599704 76.576,6.888 C76.576,7.14400128 76.5040007,7.34799924 76.36,7.5 C76.2159993,7.65200076 75.9680018,7.74399984 75.616,7.776 L74.896,7.848 C73.8239946,7.94400048 73.0280026,8.32399668 72.508,8.988 C71.9879974,9.65200332 71.728,10.4319955 71.728,11.328 L71.728,17.16 C71.728,17.4800016 71.6400009,17.7199992 71.464,17.88 C71.2879991,18.0400008 71.0560014,18.12 70.768,18.12 C70.4799986,18.12 70.2440009,18.0360008 70.06,17.868 C69.8759991,17.6999992 69.784,17.4640015 69.784,17.16 L69.784,7.032 C69.784,6.72799848 69.879999,6.49200084 70.072,6.324 C70.264001,6.15599916 70.4959986,6.072 70.768,6.072 C71.0240013,6.072 71.2399991,6.15599916 71.416,6.324 C71.5920009,6.49200084 71.68,6.71999856 71.68,7.008 L71.68,8.352 C72.0160017,7.64799648 72.4919969,7.11200184 73.108,6.744 C73.7240031,6.37599816 74.431996,6.16000032 75.232,6.096 L75.568,6.072 Z M86.064,15.288 C86.2400009,15.288 86.3919994,15.3599993 86.52,15.504 C86.6480006,15.6480007 86.712,15.8319989 86.712,16.056 C86.712,16.456002 86.4320028,16.8239983 85.872,17.16 C85.2959971,17.4960017 84.6880032,17.7479992 84.048,17.916 C83.4079968,18.0840008 82.784003,18.168 82.176,18.168 C80.367991,18.168 78.9400052,17.6320054 77.892,16.56 C76.8439948,15.4879946 76.32,14.0080094 76.32,12.12 C76.32,10.919994 76.5519977,9.8600046 77.016,8.94 C77.4800023,8.0199954 78.1319958,7.30400256 78.972,6.792 C79.8120042,6.27999744 80.7679946,6.024 81.84,6.024 C83.3600076,6.024 84.5679955,6.51999504 85.464,7.512 C86.3600045,8.50400496 86.808,9.84799152 86.808,11.544 C86.808,11.8640016 86.7440006,12.0959993 86.616,12.24 C86.4879994,12.3840007 86.2800014,12.456 85.992,12.456 L78.264,12.456 C78.4080007,15.2080138 79.7119877,16.584 82.176,16.584 C82.8000031,16.584 83.3359978,16.5000008 83.784,16.332 C84.2320022,16.1639992 84.7119974,15.9360014 85.224,15.648 C85.6400021,15.4079988 85.9199993,15.288 86.064,15.288 Z M81.864,7.536 C80.8399949,7.536 80.0200031,7.8559968 79.404,8.496 C78.7879969,9.1360032 78.4240006,10.0399942 78.312,11.208 L85.104,11.208 C85.0719998,10.0239941 84.7760028,9.11600316 84.216,8.484 C83.6559972,7.85199684 82.872005,7.536 81.864,7.536 Z M96.944,6.672 C97.1200009,6.28799808 97.3999981,6.096 97.784,6.096 C98.0240012,6.096 98.239999,6.1759992 98.432,6.336 C98.624001,6.4960008 98.72,6.6959988 98.72,6.936 C98.72,7.08000072 98.6880003,7.20799944 98.624,7.32 L93.944,17.4 C93.8479995,17.608001 93.704001,17.7719994 93.512,17.892 C93.319999,18.0120006 93.1120011,18.072 92.888,18.072 C92.679999,18.072 92.480001,18.0120006 92.288,17.892 C92.095999,17.7719994 91.9440006,17.608001 91.832,17.4 L87.176,7.32 C87.1119997,7.20799944 87.08,7.08800064 87.08,6.96 C87.08,6.7199988 87.1879989,6.51200088 87.404,6.336 C87.6200011,6.15999912 87.8559987,6.072 88.112,6.072 C88.2720008,6.072 88.4279992,6.11999952 88.58,6.216 C88.7320008,6.31200048 88.8479996,6.44799912 88.928,6.624 L92.936,15.624 L96.944,6.672 Z M100.84,18.12 C100.551999,18.12 100.316001,18.0360008 100.132,17.868 C99.9479991,17.6999992 99.856,17.4640015 99.856,17.16 L99.856,7.032 C99.856,6.72799848 99.9479991,6.49200084 100.132,6.324 C100.316001,6.15599916 100.551999,6.072 100.84,6.072 C101.128001,6.072 101.359999,6.15599916 101.536,6.324 C101.712001,6.49200084 101.8,6.72799848 101.8,7.032 L101.8,17.16 C101.8,17.4800016 101.712001,17.7199992 101.536,17.88 C101.359999,18.0400008 101.128001,18.12 100.84,18.12 Z M100.84,3.552 C100.455998,3.552 100.144001,3.44000112 99.904,3.216 C99.6639988,2.99199888 99.544,2.69600184 99.544,2.328 C99.544,1.97599824 99.6639988,1.68800112 99.904,1.464 C100.144001,1.23999888 100.455998,1.128 100.84,1.128 C101.224002,1.128 101.535999,1.23999888 101.776,1.464 C102.016001,1.68800112 102.136,1.97599824 102.136,2.328 C102.136,2.69600184 102.016001,2.99199888 101.776,3.216 C101.535999,3.44000112 101.224002,3.552 100.84,3.552 Z M113.472,15.288 C113.648001,15.288 113.799999,15.3599993 113.928,15.504 C114.056001,15.6480007 114.12,15.8319989 114.12,16.056 C114.12,16.456002 113.840003,16.8239983 113.28,17.16 C112.703997,17.4960017 112.096003,17.7479992 111.456,17.916 C110.815997,18.0840008 110.192003,18.168 109.584,18.168 C107.775991,18.168 106.348005,17.6320054 105.3,16.56 C104.251995,15.4879946 103.728,14.0080094 103.728,12.12 C103.728,10.919994 103.959998,9.8600046 104.424,8.94 C104.888002,8.0199954 105.539996,7.30400256 106.38,6.792 C107.220004,6.27999744 108.175995,6.024 109.248,6.024 C110.768008,6.024 111.975996,6.51999504 112.872,7.512 C113.768004,8.50400496 114.216,9.84799152 114.216,11.544 C114.216,11.8640016 114.152001,12.0959993 114.024,12.24 C113.895999,12.3840007 113.688001,12.456 113.4,12.456 L105.672,12.456 C105.816001,15.2080138 107.119988,16.584 109.584,16.584 C110.208003,16.584 110.743998,16.5000008 111.192,16.332 C111.640002,16.1639992 112.119997,15.9360014 112.632,15.648 C113.048002,15.4079988 113.327999,15.288 113.472,15.288 Z M109.272,7.536 C108.247995,7.536 107.428003,7.8559968 106.812,8.496 C106.195997,9.1360032 105.832001,10.0399942 105.72,11.208 L112.512,11.208 C112.48,10.0239941 112.184003,9.11600316 111.624,8.484 C111.063997,7.85199684 110.280005,7.536 109.272,7.536 Z M131.912,6.696 C132.072001,6.31199808 132.335998,6.12 132.704,6.12 C132.944001,6.12 133.159999,6.1999992 133.352,6.36 C133.544001,6.5200008 133.64,6.7199988 133.64,6.96 C133.64,7.07200056 133.616,7.19199936 133.568,7.32 L129.584,17.4 C129.488,17.608001 129.348001,17.7719994 129.164,17.892 C128.979999,18.0120006 128.776001,18.072 128.552,18.072 C128.343999,18.072 128.148001,18.0120006 127.964,17.892 C127.779999,17.7719994 127.64,17.608001 127.544,17.4 L124.232,8.976 L120.944,17.4 C120.864,17.608001 120.728001,17.7719994 120.536,17.892 C120.343999,18.0120006 120.136001,18.072 119.912,18.072 C119.703999,18.072 119.504001,18.0120006 119.312,17.892 C119.119999,17.7719994 118.976,17.608001 118.88,17.4 L114.896,7.344 C114.848,7.21599936 114.824,7.10400048 114.824,7.008 C114.824,6.75199872 114.931999,6.53600088 115.148,6.36 C115.364001,6.18399912 115.599999,6.096 115.856,6.096 C116.240002,6.096 116.511999,6.28799808 116.672,6.672 L119.96,15.528 L123.344,6.744 C123.44,6.53599896 123.571999,6.37600056 123.74,6.264 C123.908001,6.15199944 124.087999,6.096 124.28,6.096 C124.488001,6.096 124.675999,6.15199944 124.844,6.264 C125.012001,6.37600056 125.136,6.53599896 125.216,6.744 L128.6,15.504 L131.912,6.696 Z M144.04,15.288 C144.216001,15.288 144.367999,15.3599993 144.496,15.504 C144.624001,15.6480007 144.688,15.8319989 144.688,16.056 C144.688,16.456002 144.408003,16.8239983 143.848,17.16 C143.271997,17.4960017 142.664003,17.7479992 142.024,17.916 C141.383997,18.0840008 140.760003,18.168 140.152,18.168 C138.343991,18.168 136.916005,17.6320054 135.868,16.56 C134.819995,15.4879946 134.296,14.0080094 134.296,12.12 C134.296,10.919994 134.527998,9.8600046 134.992,8.94 C135.456002,8.0199954 136.107996,7.30400256 136.948,6.792 C137.788004,6.27999744 138.743995,6.024 139.816,6.024 C141.336008,6.024 142.543996,6.51999504 143.44,7.512 C144.336004,8.50400496 144.784,9.84799152 144.784,11.544 C144.784,11.8640016 144.720001,12.0959993 144.592,12.24 C144.463999,12.3840007 144.256001,12.456 143.968,12.456 L136.24,12.456 C136.384001,15.2080138 137.687988,16.584 140.152,16.584 C140.776003,16.584 141.311998,16.5000008 141.76,16.332 C142.208002,16.1639992 142.687997,15.9360014 143.2,15.648 C143.616002,15.4079988 143.895999,15.288 144.04,15.288 Z M139.84,7.536 C138.815995,7.536 137.996003,7.8559968 137.38,8.496 C136.763997,9.1360032 136.400001,10.0399942 136.288,11.208 L143.08,11.208 C143.048,10.0239941 142.752003,9.11600316 142.192,8.484 C141.631997,7.85199684 140.848005,7.536 139.84,7.536 Z M152.424,6.072 C153.096003,6.02399976 153.432,6.29599704 153.432,6.888 C153.432,7.14400128 153.360001,7.34799924 153.216,7.5 C153.071999,7.65200076 152.824002,7.74399984 152.472,7.776 L151.752,7.848 C150.679995,7.94400048 149.884003,8.32399668 149.364,8.988 C148.843997,9.65200332 148.584,10.4319955 148.584,11.328 L148.584,17.16 C148.584,17.4800016 148.496001,17.7199992 148.32,17.88 C148.143999,18.0400008 147.912001,18.12 147.624,18.12 C147.335999,18.12 147.100001,18.0360008 146.916,17.868 C146.731999,17.6999992 146.64,17.4640015 146.64,17.16 L146.64,7.032 C146.64,6.72799848 146.735999,6.49200084 146.928,6.324 C147.120001,6.15599916 147.351999,6.072 147.624,6.072 C147.880001,6.072 148.095999,6.15599916 148.272,6.324 C148.448001,6.49200084 148.536,6.71999856 148.536,7.008 L148.536,8.352 C148.872002,7.64799648 149.347997,7.11200184 149.964,6.744 C150.580003,6.37599816 151.287996,6.16000032 152.088,6.096 L152.424,6.072 Z M157.928,18.168 C157.191996,18.168 156.492003,18.0800009 155.828,17.904 C155.163997,17.7279991 154.576003,17.4800016 154.064,17.16 C153.775999,16.967999 153.572001,16.7880008 153.452,16.62 C153.331999,16.4519992 153.272,16.2480012 153.272,16.008 C153.272,15.799999 153.331999,15.6280007 153.452,15.492 C153.572001,15.3559993 153.727999,15.288 153.92,15.288 C154.112001,15.288 154.391998,15.4079988 154.76,15.648 C155.240002,15.9360014 155.715998,16.1639992 156.188,16.332 C156.660002,16.5000008 157.247996,16.584 157.952,16.584 C158.816004,16.584 159.487998,16.4320015 159.968,16.128 C160.448002,15.8239985 160.688,15.3840029 160.688,14.808 C160.688,14.4559982 160.600001,14.1720011 160.424,13.956 C160.247999,13.7399989 159.944002,13.5480008 159.512,13.38 C159.079998,13.2119992 158.448004,13.0400009 157.616,12.864 C156.207993,12.5599985 155.200003,12.1520026 154.592,11.64 C153.983997,11.1279974 153.68,10.4320044 153.68,9.552 C153.68,8.86399656 153.871998,8.25600264 154.256,7.728 C154.640002,7.19999736 155.171997,6.78400152 155.852,6.48 C156.532003,6.17599848 157.303996,6.024 158.168,6.024 C158.792003,6.024 159.395997,6.10799916 159.98,6.276 C160.564003,6.44400084 161.079998,6.67999848 161.528,6.984 C162.072003,7.36800192 162.344,7.76799792 162.344,8.184 C162.344,8.39200104 162.280001,8.56799928 162.152,8.712 C162.023999,8.85600072 161.872001,8.928 161.696,8.928 C161.503999,8.928 161.216002,8.79200136 160.832,8.52 C160.383998,8.23199856 159.960002,8.0080008 159.56,7.848 C159.159998,7.6879992 158.664003,7.608 158.072,7.608 C157.319996,7.608 156.716002,7.77599832 156.26,8.112 C155.803998,8.44800168 155.576,8.8959972 155.576,9.456 C155.576,9.80800176 155.659999,10.0919989 155.828,10.308 C155.996001,10.5240011 156.275998,10.7159992 156.668,10.884 C157.060002,11.0520008 157.623996,11.2159992 158.36,11.376 C159.448005,11.6160012 160.291997,11.8799986 160.892,12.168 C161.492003,12.4560014 161.919999,12.8079979 162.176,13.224 C162.432001,13.6400021 162.56,14.1679968 162.56,14.808 C162.56,15.816005 162.136004,16.6279969 161.288,17.244 C160.439996,17.8600031 159.320007,18.168 157.928,18.168 Z M174.48,6.024 C177.408015,6.024 178.872,7.55998464 178.872,10.632 L178.872,17.16 C178.872,17.4480014 178.788001,17.6799991 178.62,17.856 C178.451999,18.0320009 178.224001,18.12 177.936,18.12 C177.647999,18.12 177.416001,18.0320009 177.24,17.856 C177.063999,17.6799991 176.976,17.4480014 176.976,17.16 L176.976,16.008 C176.671998,16.6960034 176.208003,17.2279981 175.584,17.604 C174.959997,17.9800019 174.240004,18.168 173.424,18.168 C172.671996,18.168 171.980003,18.0160015 171.348,17.712 C170.715997,17.4079985 170.216002,16.9840027 169.848,16.44 C169.479998,15.8959973 169.296,15.2960033 169.296,14.64 C169.296,13.7599956 169.519998,13.0760024 169.968,12.588 C170.416002,12.0999976 171.151995,11.7480011 172.176,11.532 C173.200005,11.3159989 174.623991,11.208 176.448,11.208 L176.976,11.208 L176.976,10.416 C176.976,9.4559952 176.780002,8.75200224 176.388,8.304 C175.995998,7.85599776 175.360004,7.632 174.48,7.632 C173.391995,7.632 172.288006,7.92799704 171.168,8.52 C170.735998,8.79200136 170.432001,8.928 170.256,8.928 C170.063999,8.928 169.904001,8.85600072 169.776,8.712 C169.647999,8.56799928 169.584,8.38400112 169.584,8.16 C169.584,7.93599888 169.651999,7.74000084 169.788,7.572 C169.924001,7.40399916 170.143998,7.23200088 170.448,7.056 C171.008003,6.7359984 171.643996,6.48400092 172.356,6.3 C173.068004,6.11599908 173.775996,6.024 174.48,6.024 Z M173.688,16.632 C174.648005,16.632 175.435997,16.3080032 176.052,15.66 C176.668003,15.0119968 176.976,14.1760051 176.976,13.152 L176.976,12.456 L176.544,12.456 C175.135993,12.456 174.064004,12.5159994 173.328,12.636 C172.591996,12.7560006 172.068002,12.9559986 171.756,13.236 C171.443998,13.5160014 171.288,13.9279973 171.288,14.472 C171.288,15.0960031 171.515998,15.611998 171.972,16.02 C172.428002,16.428002 172.999997,16.632 173.688,16.632 Z M187.304,6.024 C190.104014,6.024 191.504,7.56798456 191.504,10.656 L191.504,17.16 C191.504,17.4640015 191.420001,17.6999992 191.252,17.868 C191.083999,18.0360008 190.848002,18.12 190.544,18.12 C190.239998,18.12 190.000001,18.0360008 189.824,17.868 C189.647999,17.6999992 189.56,17.4640015 189.56,17.16 L189.56,10.776 C189.56,9.68799456 189.348002,8.89600248 188.924,8.4 C188.499998,7.90399752 187.824005,7.656 186.896,7.656 C185.823995,7.656 184.968003,7.98399672 184.328,8.64 C183.687997,9.29600328 183.368,10.1839944 183.368,11.304 L183.368,17.16 C183.368,17.4640015 183.284001,17.6999992 183.116,17.868 C182.947999,18.0360008 182.712002,18.12 182.408,18.12 C182.103998,18.12 181.864001,18.0360008 181.688,17.868 C181.511999,17.6999992 181.424,17.4640015 181.424,17.16 L181.424,7.032 C181.424,6.74399856 181.511999,6.51200088 181.688,6.336 C181.864001,6.15999912 182.103998,6.072 182.408,6.072 C182.696001,6.072 182.923999,6.15999912 183.092,6.336 C183.260001,6.51200088 183.344,6.73599864 183.344,7.008 L183.344,8.232 C183.728002,7.5119964 184.263997,6.96400188 184.952,6.588 C185.640003,6.21199812 186.423996,6.024 187.304,6.024 Z M203.44,0.96 C203.744002,0.96 203.983999,1.04799912 204.16,1.224 C204.336001,1.40000088 204.424,1.62399864 204.424,1.896 L204.424,17.16 C204.424,17.4480014 204.336001,17.6799991 204.16,17.856 C203.983999,18.0320009 203.744002,18.12 203.44,18.12 C203.135998,18.12 202.900001,18.0320009 202.732,17.856 C202.563999,17.6799991 202.48,17.4480014 202.48,17.16 L202.48,15.864 C202.127998,16.6000037 201.612003,17.167998 200.932,17.568 C200.251997,17.968002 199.456005,18.168 198.544,18.168 C197.519995,18.168 196.616004,17.9120026 195.832,17.4 C195.047996,16.8879974 194.440002,16.1720046 194.008,15.252 C193.575998,14.3319954 193.36,13.2640061 193.36,12.048 C193.36,10.847994 193.575998,9.79200456 194.008,8.88 C194.440002,7.96799544 195.047996,7.26400248 195.832,6.768 C196.616004,6.27199752 197.519995,6.024 198.544,6.024 C199.456005,6.024 200.251997,6.223998 200.932,6.624 C201.612003,7.024002 202.127998,7.59199632 202.48,8.328 L202.48,1.896 C202.48,1.60799856 202.563999,1.38000084 202.732,1.212 C202.900001,1.04399916 203.135998,0.96 203.44,0.96 Z M198.928,16.56 C200.064006,16.56 200.939997,16.1720039 201.556,15.396 C202.172003,14.6199961 202.48,13.5200071 202.48,12.096 C202.48,10.6719929 202.172003,9.57600384 201.556,8.808 C200.939997,8.03999616 200.064006,7.656 198.928,7.656 C197.791994,7.656 196.908003,8.03999616 196.276,8.808 C195.643997,9.57600384 195.328,10.655993 195.328,12.048 C195.328,13.4720071 195.643997,14.579996 196.276,15.372 C196.908003,16.164004 197.791994,16.56 198.928,16.56 Z M1.784,50.12 C1.49599856,50.12 1.26000092,50.0360008 1.076,49.868 C0.89199908,49.6999992 0.8,49.4640015 0.8,49.16 L0.8,33.92 C0.8,33.6159985 0.89199908,33.3800008 1.076,33.212 C1.26000092,33.0439992 1.49599856,32.96 1.784,32.96 C2.05600136,32.96 2.28399908,33.0439992 2.468,33.212 C2.65200092,33.3800008 2.744,33.6159985 2.744,33.92 L2.744,49.16 C2.744,49.4640015 2.65200092,49.6999992 2.468,49.868 C2.28399908,50.0360008 2.05600136,50.12 1.784,50.12 Z M10.216,50.168 C9.11199448,50.168 8.1400042,49.9200025 7.3,49.424 C6.4599958,48.9279975 5.81200228,48.2200046 5.356,47.3 C4.89999772,46.3799954 4.672,45.3120061 4.672,44.096 C4.672,42.8799939 4.89999772,41.8120046 5.356,40.892 C5.81200228,39.9719954 6.4599958,39.2640025 7.3,38.768 C8.1400042,38.2719975 9.11199448,38.024 10.216,38.024 C11.3200055,38.024 12.2959958,38.2719975 13.144,38.768 C13.9920042,39.2640025 14.6439977,39.9719954 15.1,40.892 C15.5560023,41.8120046 15.784,42.8799939 15.784,44.096 C15.784,45.3120061 15.5560023,46.3799954 15.1,47.3 C14.6439977,48.2200046 13.9920042,48.9279975 13.144,49.424 C12.2959958,49.9200025 11.3200055,50.168 10.216,50.168 Z M10.216,48.56 C11.3680058,48.56 12.2519969,48.1800038 12.868,47.42 C13.4840031,46.6599962 13.792,45.5520073 13.792,44.096 C13.792,42.6719929 13.4800031,41.5720039 12.856,40.796 C12.2319969,40.0199961 11.3520057,39.632 10.216,39.632 C9.07999432,39.632 8.20000312,40.0199961 7.576,40.796 C6.95199688,41.5720039 6.64,42.6719929 6.64,44.096 C6.64,45.5360072 6.94799692,46.6399962 7.564,47.408 C8.18000308,48.1760038 9.06399424,48.56 10.216,48.56 Z M27.168,38.072 C27.4720015,38.072 27.7119991,38.1599991 27.888,38.336 C28.0640009,38.5120009 28.152,38.7439986 28.152,39.032 L28.152,49.208 C28.152,50.9520087 27.7040045,52.2679956 26.808,53.156 C25.9119955,54.0440044 24.5840088,54.488 22.824,54.488 C21.1119914,54.488 19.6880057,54.1520034 18.552,53.48 C17.9759971,53.1599984 17.688,52.7920021 17.688,52.376 C17.688,52.1519989 17.7479994,51.9680007 17.868,51.824 C17.9880006,51.6799993 18.143999,51.608 18.336,51.608 C18.4960008,51.608 18.7839979,51.7199989 19.2,51.944 C19.7600028,52.2320014 20.3119973,52.4639991 20.856,52.64 C21.4000027,52.8160009 22.0479962,52.904 22.8,52.904 C23.9360057,52.904 24.7919971,52.604003 25.368,52.004 C25.9440029,51.403997 26.232,50.5280058 26.232,49.376 L26.232,47.312 C25.8959983,48.0640038 25.3800035,48.639998 24.684,49.04 C23.9879965,49.440002 23.1680047,49.64 22.224,49.64 C21.1999949,49.64 20.292004,49.4000024 19.5,48.92 C18.707996,48.4399976 18.0920022,47.7600044 17.652,46.88 C17.2119978,45.9999956 16.992,44.9840058 16.992,43.832 C16.992,42.6799942 17.2119978,41.6640044 17.652,40.784 C18.0920022,39.9039956 18.707996,39.2240024 19.5,38.744 C20.292004,38.2639976 21.1999949,38.024 22.224,38.024 C23.1520046,38.024 23.9599966,38.223998 24.648,38.624 C25.3360034,39.024002 25.8559982,39.5919963 26.208,40.328 L26.208,39.032 C26.208,38.7439986 26.2919992,38.5120009 26.46,38.336 C26.6280008,38.1599991 26.8639985,38.072 27.168,38.072 Z M22.608,48.032 C23.7280056,48.032 24.6079968,47.6600037 25.248,46.916 C25.8880032,46.1719963 26.208,45.1440066 26.208,43.832 C26.208,42.5359935 25.8920032,41.5160037 25.26,40.772 C24.6279968,40.0279963 23.7440057,39.656 22.608,39.656 C21.4719943,39.656 20.5800032,40.0279963 19.932,40.772 C19.2839968,41.5160037 18.96,42.5359935 18.96,43.832 C18.96,45.1440066 19.2839968,46.1719963 19.932,46.916 C20.5800032,47.6600037 21.4719943,48.032 22.608,48.032 Z M34.688,50.168 C33.9519963,50.168 33.2520033,50.0800009 32.588,49.904 C31.9239967,49.7279991 31.3360026,49.4800016 30.824,49.16 C30.5359986,48.967999 30.3320006,48.7880008 30.212,48.62 C30.0919994,48.4519992 30.032,48.2480012 30.032,48.008 C30.032,47.799999 30.0919994,47.6280007 30.212,47.492 C30.3320006,47.3559993 30.487999,47.288 30.68,47.288 C30.872001,47.288 31.1519982,47.4079988 31.52,47.648 C32.0000024,47.9360014 32.4759976,48.1639992 32.948,48.332 C33.4200024,48.5000008 34.0079965,48.584 34.712,48.584 C35.5760043,48.584 36.2479976,48.4320015 36.728,48.128 C37.2080024,47.8239985 37.448,47.3840029 37.448,46.808 C37.448,46.4559982 37.3600009,46.1720011 37.184,45.956 C37.0079991,45.7399989 36.7040022,45.5480008 36.272,45.38 C35.8399978,45.2119992 35.2080042,45.0400009 34.376,44.864 C32.967993,44.5599985 31.960003,44.1520026 31.352,43.64 C30.743997,43.1279974 30.44,42.4320044 30.44,41.552 C30.44,40.8639966 30.6319981,40.2560026 31.016,39.728 C31.4000019,39.1999974 31.9319966,38.7840015 32.612,38.48 C33.2920034,38.1759985 34.0639957,38.024 34.928,38.024 C35.5520031,38.024 36.1559971,38.1079992 36.74,38.276 C37.3240029,38.4440008 37.8399978,38.6799985 38.288,38.984 C38.8320027,39.3680019 39.104,39.7679979 39.104,40.184 C39.104,40.392001 39.0400006,40.5679993 38.912,40.712 C38.7839994,40.8560007 38.6320009,40.928 38.456,40.928 C38.263999,40.928 37.9760019,40.7920014 37.592,40.52 C37.1439978,40.2319986 36.720002,40.0080008 36.32,39.848 C35.919998,39.6879992 35.424003,39.608 34.832,39.608 C34.0799962,39.608 33.4760023,39.7759983 33.02,40.112 C32.5639977,40.4480017 32.336,40.8959972 32.336,41.456 C32.336,41.8080018 32.4199992,42.0919989 32.588,42.308 C32.7560008,42.5240011 33.035998,42.7159992 33.428,42.884 C33.820002,43.0520008 34.3839963,43.2159992 35.12,43.376 C36.2080054,43.6160012 37.051997,43.8799986 37.652,44.168 C38.252003,44.4560014 38.6799987,44.8079979 38.936,45.224 C39.1920013,45.6400021 39.32,46.1679968 39.32,46.808 C39.32,47.816005 38.8960042,48.6279969 38.048,49.244 C37.1999958,49.8600031 36.080007,50.168 34.688,50.168 Z M51.24,38.024 C54.1680146,38.024 55.632,39.5599846 55.632,42.632 L55.632,49.16 C55.632,49.4480014 55.5480008,49.6799991 55.38,49.856 C55.2119992,50.0320009 54.9840014,50.12 54.696,50.12 C54.4079986,50.12 54.1760009,50.0320009 54,49.856 C53.8239991,49.6799991 53.736,49.4480014 53.736,49.16 L53.736,48.008 C53.4319985,48.6960034 52.9680031,49.2279981 52.344,49.604 C51.7199969,49.9800019 51.0000041,50.168 50.184,50.168 C49.4319962,50.168 48.7400032,50.0160015 48.108,49.712 C47.4759968,49.4079985 46.9760018,48.9840027 46.608,48.44 C46.2399982,47.8959973 46.056,47.2960033 46.056,46.64 C46.056,45.7599956 46.2799978,45.0760024 46.728,44.588 C47.1760022,44.0999976 47.9119949,43.7480011 48.936,43.532 C49.9600051,43.3159989 51.3839909,43.208 53.208,43.208 L53.736,43.208 L53.736,42.416 C53.736,41.4559952 53.540002,40.7520022 53.148,40.304 C52.755998,39.8559978 52.1200044,39.632 51.24,39.632 C50.1519946,39.632 49.0480056,39.927997 47.928,40.52 C47.4959978,40.7920014 47.1920009,40.928 47.016,40.928 C46.823999,40.928 46.6640006,40.8560007 46.536,40.712 C46.4079994,40.5679993 46.344,40.3840011 46.344,40.16 C46.344,39.9359989 46.4119993,39.7400008 46.548,39.572 C46.6840007,39.4039992 46.9039985,39.2320009 47.208,39.056 C47.7680028,38.7359984 48.4039964,38.4840009 49.116,38.3 C49.8280036,38.1159991 50.5359965,38.024 51.24,38.024 Z M50.448,48.632 C51.4080048,48.632 52.1959969,48.3080032 52.812,47.66 C53.4280031,47.0119968 53.736,46.1760051 53.736,45.152 L53.736,44.456 L53.304,44.456 C51.895993,44.456 50.8240037,44.5159994 50.088,44.636 C49.3519963,44.7560006 48.8280016,44.9559986 48.516,45.236 C48.2039984,45.5160014 48.048,45.9279973 48.048,46.472 C48.048,47.0960031 48.2759977,47.611998 48.732,48.02 C49.1880023,48.428002 49.7599966,48.632 50.448,48.632 Z M64.064,38.024 C66.864014,38.024 68.264,39.5679846 68.264,42.656 L68.264,49.16 C68.264,49.4640015 68.1800008,49.6999992 68.012,49.868 C67.8439992,50.0360008 67.6080015,50.12 67.304,50.12 C66.9999985,50.12 66.7600009,50.0360008 66.584,49.868 C66.4079991,49.6999992 66.32,49.4640015 66.32,49.16 L66.32,42.776 C66.32,41.6879946 66.1080021,40.8960025 65.684,40.4 C65.2599979,39.9039975 64.5840046,39.656 63.656,39.656 C62.5839946,39.656 61.7280032,39.9839967 61.088,40.64 C60.4479968,41.2960033 60.128,42.1839944 60.128,43.304 L60.128,49.16 C60.128,49.4640015 60.0440008,49.6999992 59.876,49.868 C59.7079992,50.0360008 59.4720015,50.12 59.168,50.12 C58.8639985,50.12 58.6240009,50.0360008 58.448,49.868 C58.2719991,49.6999992 58.184,49.4640015 58.184,49.16 L58.184,39.032 C58.184,38.7439986 58.2719991,38.5120009 58.448,38.336 C58.6240009,38.1599991 58.8639985,38.072 59.168,38.072 C59.4560014,38.072 59.6839992,38.1599991 59.852,38.336 C60.0200008,38.5120009 60.104,38.7359986 60.104,39.008 L60.104,40.232 C60.4880019,39.5119964 61.0239966,38.9640019 61.712,38.588 C62.4000034,38.2119981 63.1839956,38.024 64.064,38.024 Z M80.784,38.024 C83.7120146,38.024 85.176,39.5599846 85.176,42.632 L85.176,49.16 C85.176,49.4480014 85.0920008,49.6799991 84.924,49.856 C84.7559992,50.0320009 84.5280014,50.12 84.24,50.12 C83.9519986,50.12 83.7200009,50.0320009 83.544,49.856 C83.3679991,49.6799991 83.28,49.4480014 83.28,49.16 L83.28,48.008 C82.9759985,48.6960034 82.5120031,49.2279981 81.888,49.604 C81.2639969,49.9800019 80.5440041,50.168 79.728,50.168 C78.9759962,50.168 78.2840032,50.0160015 77.652,49.712 C77.0199968,49.4079985 76.5200018,48.9840027 76.152,48.44 C75.7839982,47.8959973 75.6,47.2960033 75.6,46.64 C75.6,45.7599956 75.8239978,45.0760024 76.272,44.588 C76.7200022,44.0999976 77.4559949,43.7480011 78.48,43.532 C79.5040051,43.3159989 80.9279909,43.208 82.752,43.208 L83.28,43.208 L83.28,42.416 C83.28,41.4559952 83.084002,40.7520022 82.692,40.304 C82.299998,39.8559978 81.6640044,39.632 80.784,39.632 C79.6959946,39.632 78.5920056,39.927997 77.472,40.52 C77.0399978,40.7920014 76.7360009,40.928 76.56,40.928 C76.367999,40.928 76.2080006,40.8560007 76.08,40.712 C75.9519994,40.5679993 75.888,40.3840011 75.888,40.16 C75.888,39.9359989 75.9559993,39.7400008 76.092,39.572 C76.2280007,39.4039992 76.4479985,39.2320009 76.752,39.056 C77.3120028,38.7359984 77.9479964,38.4840009 78.66,38.3 C79.3720036,38.1159991 80.0799965,38.024 80.784,38.024 Z M79.992,48.632 C80.9520048,48.632 81.7399969,48.3080032 82.356,47.66 C82.9720031,47.0119968 83.28,46.1760051 83.28,45.152 L83.28,44.456 L82.848,44.456 C81.439993,44.456 80.3680037,44.5159994 79.632,44.636 C78.8959963,44.7560006 78.3720016,44.9559986 78.06,45.236 C77.7479984,45.5160014 77.592,45.9279973 77.592,46.472 C77.592,47.0960031 77.8199977,47.611998 78.276,48.02 C78.7320023,48.428002 79.3039966,48.632 79.992,48.632 Z M93.608,38.024 C94.6320051,38.024 95.5359961,38.2799974 96.32,38.792 C97.1040039,39.3040026 97.7119978,40.0199954 98.144,40.94 C98.5760022,41.8600046 98.792,42.9279939 98.792,44.144 C98.792,45.3600061 98.5760022,46.4199955 98.144,47.324 C97.7119978,48.2280045 97.1080039,48.9279975 96.332,49.424 C95.5559961,49.9200025 94.6480052,50.168 93.608,50.168 C92.6959954,50.168 91.9000034,49.968002 91.22,49.568 C90.5399966,49.167998 90.0240018,48.6000037 89.672,47.864 L89.672,53.504 C89.672,53.7920014 89.5880008,54.0199992 89.42,54.188 C89.2519992,54.3560008 89.0160015,54.44 88.712,54.44 C88.4079985,54.44 88.1680009,54.3520009 87.992,54.176 C87.8159991,53.9999991 87.728,53.7760014 87.728,53.504 L87.728,39.032 C87.728,38.7439986 87.8159991,38.5120009 87.992,38.336 C88.1680009,38.1599991 88.4079985,38.072 88.712,38.072 C89.0160015,38.072 89.2519992,38.1599991 89.42,38.336 C89.5880008,38.5120009 89.672,38.7439986 89.672,39.032 L89.672,40.328 C90.0240018,39.5919963 90.5399966,39.024002 91.22,38.624 C91.9000034,38.223998 92.6959954,38.024 93.608,38.024 Z M93.224,48.56 C94.3600057,48.56 95.2399969,48.1760038 95.864,47.408 C96.4880031,46.6399962 96.8,45.552007 96.8,44.144 C96.8,42.735993 96.4880031,41.636004 95.864,40.844 C95.2399969,40.051996 94.3600057,39.656 93.224,39.656 C92.0879943,39.656 91.2120031,40.0399962 90.596,40.808 C89.9799969,41.5760038 89.672,42.6719929 89.672,44.096 C89.672,45.5200071 89.9799969,46.6199961 90.596,47.396 C91.2120031,48.1720039 92.0879943,48.56 93.224,48.56 Z M106.576,38.024 C107.600005,38.024 108.503996,38.2799974 109.288,38.792 C110.072004,39.3040026 110.679998,40.0199954 111.112,40.94 C111.544002,41.8600046 111.76,42.9279939 111.76,44.144 C111.76,45.3600061 111.544002,46.4199955 111.112,47.324 C110.679998,48.2280045 110.076004,48.9279975 109.3,49.424 C108.523996,49.9200025 107.616005,50.168 106.576,50.168 C105.663995,50.168 104.868003,49.968002 104.188,49.568 C103.507997,49.167998 102.992002,48.6000037 102.64,47.864 L102.64,53.504 C102.64,53.7920014 102.556001,54.0199992 102.388,54.188 C102.219999,54.3560008 101.984002,54.44 101.68,54.44 C101.375998,54.44 101.136001,54.3520009 100.96,54.176 C100.783999,53.9999991 100.696,53.7760014 100.696,53.504 L100.696,39.032 C100.696,38.7439986 100.783999,38.5120009 100.96,38.336 C101.136001,38.1599991 101.375998,38.072 101.68,38.072 C101.984002,38.072 102.219999,38.1599991 102.388,38.336 C102.556001,38.5120009 102.64,38.7439986 102.64,39.032 L102.64,40.328 C102.992002,39.5919963 103.507997,39.024002 104.188,38.624 C104.868003,38.223998 105.663995,38.024 106.576,38.024 Z M106.192,48.56 C107.328006,48.56 108.207997,48.1760038 108.832,47.408 C109.456003,46.6399962 109.768,45.552007 109.768,44.144 C109.768,42.735993 109.456003,41.636004 108.832,40.844 C108.207997,40.051996 107.328006,39.656 106.192,39.656 C105.055994,39.656 104.180003,40.0399962 103.564,40.808 C102.947997,41.5760038 102.64,42.6719929 102.64,44.096 C102.64,45.5200071 102.947997,46.6199961 103.564,47.396 C104.180003,48.1720039 105.055994,48.56 106.192,48.56 Z M119.448,38.072 C120.120003,38.0239998 120.456,38.295997 120.456,38.888 C120.456,39.1440013 120.384001,39.3479992 120.24,39.5 C120.095999,39.6520008 119.848002,39.7439998 119.496,39.776 L118.776,39.848 C117.703995,39.9440005 116.908003,40.3239967 116.388,40.988 C115.867997,41.6520033 115.608,42.4319955 115.608,43.328 L115.608,49.16 C115.608,49.4800016 115.520001,49.7199992 115.344,49.88 C115.167999,50.0400008 114.936001,50.12 114.648,50.12 C114.359999,50.12 114.124001,50.0360008 113.94,49.868 C113.755999,49.6999992 113.664,49.4640015 113.664,49.16 L113.664,39.032 C113.664,38.7279985 113.759999,38.4920008 113.952,38.324 C114.144001,38.1559992 114.375999,38.072 114.648,38.072 C114.904001,38.072 115.119999,38.1559992 115.296,38.324 C115.472001,38.4920008 115.56,38.7199986 115.56,39.008 L115.56,40.352 C115.896002,39.6479965 116.371997,39.1120018 116.988,38.744 C117.604003,38.3759982 118.311996,38.1600003 119.112,38.096 L119.448,38.072 Z M125.744,50.168 C124.639994,50.168 123.668004,49.9200025 122.828,49.424 C121.987996,48.9279975 121.340002,48.2200046 120.884,47.3 C120.427998,46.3799954 120.2,45.3120061 120.2,44.096 C120.2,42.8799939 120.427998,41.8120046 120.884,40.892 C121.340002,39.9719954 121.987996,39.2640025 122.828,38.768 C123.668004,38.2719975 124.639994,38.024 125.744,38.024 C126.848006,38.024 127.823996,38.2719975 128.672,38.768 C129.520004,39.2640025 130.171998,39.9719954 130.628,40.892 C131.084002,41.8120046 131.312,42.8799939 131.312,44.096 C131.312,45.3120061 131.084002,46.3799954 130.628,47.3 C130.171998,48.2200046 129.520004,48.9279975 128.672,49.424 C127.823996,49.9200025 126.848006,50.168 125.744,50.168 Z M125.744,48.56 C126.896006,48.56 127.779997,48.1800038 128.396,47.42 C129.012003,46.6599962 129.32,45.5520073 129.32,44.096 C129.32,42.6719929 129.008003,41.5720039 128.384,40.796 C127.759997,40.0199961 126.880006,39.632 125.744,39.632 C124.607994,39.632 123.728003,40.0199961 123.104,40.796 C122.479997,41.5720039 122.168,42.6719929 122.168,44.096 C122.168,45.5360072 122.475997,46.6399962 123.092,47.408 C123.708003,48.1760038 124.591994,48.56 125.744,48.56 Z M141.496,38.672 C141.672001,38.2879981 141.951998,38.096 142.336,38.096 C142.576001,38.096 142.791999,38.1759992 142.984,38.336 C143.176001,38.4960008 143.272,38.6959988 143.272,38.936 C143.272,39.0800007 143.24,39.2079994 143.176,39.32 L138.496,49.4 C138.4,49.608001 138.256001,49.7719994 138.064,49.892 C137.871999,50.0120006 137.664001,50.072 137.44,50.072 C137.231999,50.072 137.032001,50.0120006 136.84,49.892 C136.647999,49.7719994 136.496001,49.608001 136.384,49.4 L131.728,39.32 C131.664,39.2079994 131.632,39.0880006 131.632,38.96 C131.632,38.7199988 131.739999,38.5120009 131.956,38.336 C132.172001,38.1599991 132.407999,38.072 132.664,38.072 C132.824001,38.072 132.979999,38.1199995 133.132,38.216 C133.284001,38.3120005 133.4,38.4479991 133.48,38.624 L137.488,47.624 L141.496,38.672 Z M148.968,38.024 C151.896015,38.024 153.36,39.5599846 153.36,42.632 L153.36,49.16 C153.36,49.4480014 153.276001,49.6799991 153.108,49.856 C152.939999,50.0320009 152.712001,50.12 152.424,50.12 C152.135999,50.12 151.904001,50.0320009 151.728,49.856 C151.551999,49.6799991 151.464,49.4480014 151.464,49.16 L151.464,48.008 C151.159998,48.6960034 150.696003,49.2279981 150.072,49.604 C149.447997,49.9800019 148.728004,50.168 147.912,50.168 C147.159996,50.168 146.468003,50.0160015 145.836,49.712 C145.203997,49.4079985 144.704002,48.9840027 144.336,48.44 C143.967998,47.8959973 143.784,47.2960033 143.784,46.64 C143.784,45.7599956 144.007998,45.0760024 144.456,44.588 C144.904002,44.0999976 145.639995,43.7480011 146.664,43.532 C147.688005,43.3159989 149.111991,43.208 150.936,43.208 L151.464,43.208 L151.464,42.416 C151.464,41.4559952 151.268002,40.7520022 150.876,40.304 C150.483998,39.8559978 149.848004,39.632 148.968,39.632 C147.879995,39.632 146.776006,39.927997 145.656,40.52 C145.223998,40.7920014 144.920001,40.928 144.744,40.928 C144.551999,40.928 144.392001,40.8560007 144.264,40.712 C144.135999,40.5679993 144.072,40.3840011 144.072,40.16 C144.072,39.9359989 144.139999,39.7400008 144.276,39.572 C144.412001,39.4039992 144.631998,39.2320009 144.936,39.056 C145.496003,38.7359984 146.131996,38.4840009 146.844,38.3 C147.556004,38.1159991 148.263996,38.024 148.968,38.024 Z M148.176,48.632 C149.136005,48.632 149.923997,48.3080032 150.54,47.66 C151.156003,47.0119968 151.464,46.1760051 151.464,45.152 L151.464,44.456 L151.032,44.456 C149.623993,44.456 148.552004,44.5159994 147.816,44.636 C147.079996,44.7560006 146.556002,44.9559986 146.244,45.236 C145.931998,45.5160014 145.776,45.9279973 145.776,46.472 C145.776,47.0960031 146.003998,47.611998 146.46,48.02 C146.916002,48.428002 147.487997,48.632 148.176,48.632 Z M156.896,50.12 C156.607999,50.12 156.372001,50.0360008 156.188,49.868 C156.003999,49.6999992 155.912,49.4640015 155.912,49.16 L155.912,33.92 C155.912,33.6159985 156.003999,33.3800008 156.188,33.212 C156.372001,33.0439992 156.607999,32.96 156.896,32.96 C157.168001,32.96 157.395999,33.0439992 157.58,33.212 C157.764001,33.3800008 157.856,33.6159985 157.856,33.92 L157.856,49.16 C157.856,49.4640015 157.764001,49.6999992 157.58,49.868 C157.395999,50.0360008 157.168001,50.12 156.896,50.12 Z M160.024,50.864 C159.96,51.072001 159.856001,51.2319994 159.712,51.344 C159.567999,51.4560006 159.408001,51.512 159.232,51.512 C159.007999,51.512 158.808001,51.4320008 158.632,51.272 C158.455999,51.1119992 158.368,50.9120012 158.368,50.672 C158.368,50.5759995 158.392,50.4640006 158.44,50.336 L164.104,32.624 C164.168,32.415999 164.271999,32.2560006 164.416,32.144 C164.560001,32.0319994 164.719999,31.976 164.896,31.976 C165.120001,31.976 165.319999,32.0559992 165.496,32.216 C165.672001,32.3760008 165.76,32.5839987 165.76,32.84 C165.76,32.8880002 165.744,32.9919992 165.712,33.152 L160.024,50.864 Z M10.184,64.96 C10.4880015,64.96 10.7279991,65.0479991 10.904,65.224 C11.0800009,65.4000009 11.168,65.6239986 11.168,65.896 L11.168,81.16 C11.168,81.4480014 11.0800009,81.6799991 10.904,81.856 C10.7279991,82.0320009 10.4880015,82.12 10.184,82.12 C9.87999848,82.12 9.64400084,82.0320009 9.476,81.856 C9.30799916,81.6799991 9.224,81.4480014 9.224,81.16 L9.224,79.864 C8.87199824,80.6000037 8.3560034,81.167998 7.676,81.568 C6.9959966,81.968002 6.20000456,82.168 5.288,82.168 C4.26399488,82.168 3.36000392,81.9120026 2.576,81.4 C1.79199608,80.8879974 1.18400216,80.1720046 0.752,79.252 C0.31999784,78.3319954 0.104,77.2640061 0.104,76.048 C0.104,74.847994 0.31999784,73.7920046 0.752,72.88 C1.18400216,71.9679954 1.79199608,71.2640025 2.576,70.768 C3.36000392,70.2719975 4.26399488,70.024 5.288,70.024 C6.20000456,70.024 6.9959966,70.223998 7.676,70.624 C8.3560034,71.024002 8.87199824,71.5919963 9.224,72.328 L9.224,65.896 C9.224,65.6079986 9.30799916,65.3800008 9.476,65.212 C9.64400084,65.0439992 9.87999848,64.96 10.184,64.96 Z M5.672,80.56 C6.80800568,80.56 7.68399692,80.1720039 8.3,79.396 C8.91600308,78.6199961 9.224,77.5200071 9.224,76.096 C9.224,74.6719929 8.91600308,73.5760038 8.3,72.808 C7.68399692,72.0399962 6.80800568,71.656 5.672,71.656 C4.53599432,71.656 3.65200316,72.0399962 3.02,72.808 C2.38799684,73.5760038 2.072,74.655993 2.072,76.048 C2.072,77.4720071 2.38799684,78.579996 3.02,79.372 C3.65200316,80.164004 4.53599432,80.56 5.672,80.56 Z M14.752,82.12 C14.4639986,82.12 14.2280009,82.0360008 14.044,81.868 C13.8599991,81.6999992 13.768,81.4640015 13.768,81.16 L13.768,71.032 C13.768,70.7279985 13.8599991,70.4920008 14.044,70.324 C14.2280009,70.1559992 14.4639986,70.072 14.752,70.072 C15.0400014,70.072 15.2719991,70.1559992 15.448,70.324 C15.6240009,70.4920008 15.712,70.7279985 15.712,71.032 L15.712,81.16 C15.712,81.4800016 15.6240009,81.7199992 15.448,81.88 C15.2719991,82.0400008 15.0400014,82.12 14.752,82.12 Z M14.752,67.552 C14.3679981,67.552 14.0560012,67.4400011 13.816,67.216 C13.5759988,66.9919989 13.456,66.6960018 13.456,66.328 C13.456,65.9759982 13.5759988,65.6880011 13.816,65.464 C14.0560012,65.2399989 14.3679981,65.128 14.752,65.128 C15.1360019,65.128 15.4479988,65.2399989 15.688,65.464 C15.9280012,65.6880011 16.048,65.9759982 16.048,66.328 C16.048,66.6960018 15.9280012,66.9919989 15.688,67.216 C15.4479988,67.4400011 15.1360019,67.552 14.752,67.552 Z M22.272,82.168 C21.5359963,82.168 20.8360033,82.0800009 20.172,81.904 C19.5079967,81.7279991 18.9200026,81.4800016 18.408,81.16 C18.1199986,80.967999 17.9160006,80.7880008 17.796,80.62 C17.6759994,80.4519992 17.616,80.2480012 17.616,80.008 C17.616,79.799999 17.6759994,79.6280007 17.796,79.492 C17.9160006,79.3559993 18.071999,79.288 18.264,79.288 C18.456001,79.288 18.7359982,79.4079988 19.104,79.648 C19.5840024,79.9360014 20.0599976,80.1639992 20.532,80.332 C21.0040024,80.5000008 21.5919965,80.584 22.296,80.584 C23.1600043,80.584 23.8319976,80.4320015 24.312,80.128 C24.7920024,79.8239985 25.032,79.3840029 25.032,78.808 C25.032,78.4559982 24.9440009,78.1720011 24.768,77.956 C24.5919991,77.7399989 24.2880022,77.5480008 23.856,77.38 C23.4239978,77.2119992 22.7920042,77.0400009 21.96,76.864 C20.551993,76.5599985 19.544003,76.1520026 18.936,75.64 C18.327997,75.1279974 18.024,74.4320044 18.024,73.552 C18.024,72.8639966 18.2159981,72.2560026 18.6,71.728 C18.9840019,71.1999974 19.5159966,70.7840015 20.196,70.48 C20.8760034,70.1759985 21.6479957,70.024 22.512,70.024 C23.1360031,70.024 23.7399971,70.1079992 24.324,70.276 C24.9080029,70.4440008 25.4239978,70.6799985 25.872,70.984 C26.4160027,71.3680019 26.688,71.7679979 26.688,72.184 C26.688,72.392001 26.6240006,72.5679993 26.496,72.712 C26.3679994,72.8560007 26.2160009,72.928 26.04,72.928 C25.847999,72.928 25.5600019,72.7920014 25.176,72.52 C24.7279978,72.2319986 24.304002,72.0080008 23.904,71.848 C23.503998,71.6879992 23.008003,71.608 22.416,71.608 C21.6639962,71.608 21.0600023,71.7759983 20.604,72.112 C20.1479977,72.4480017 19.92,72.8959972 19.92,73.456 C19.92,73.8080018 20.0039992,74.0919989 20.172,74.308 C20.3400008,74.5240011 20.619998,74.7159992 21.012,74.884 C21.404002,75.0520008 21.9679963,75.2159992 22.704,75.376 C23.7920054,75.6160012 24.635997,75.8799986 25.236,76.168 C25.836003,76.4560014 26.2639987,76.8079979 26.52,77.224 C26.7760013,77.6400021 26.904,78.1679968 26.904,78.808 C26.904,79.816005 26.4800042,80.6279969 25.632,81.244 C24.7839958,81.8600031 23.664007,82.168 22.272,82.168 Z M33.632,70.024 C36.5600146,70.024 38.024,71.5599846 38.024,74.632 L38.024,81.16 C38.024,81.4480014 37.9400008,81.6799991 37.772,81.856 C37.6039992,82.0320009 37.3760014,82.12 37.088,82.12 C36.7999986,82.12 36.5680009,82.0320009 36.392,81.856 C36.2159991,81.6799991 36.128,81.4480014 36.128,81.16 L36.128,80.008 C35.8239985,80.6960034 35.3600031,81.2279981 34.736,81.604 C34.1119969,81.9800019 33.3920041,82.168 32.576,82.168 C31.8239962,82.168 31.1320032,82.0160015 30.5,81.712 C29.8679968,81.4079985 29.3680018,80.9840027 29,80.44 C28.6319982,79.8959973 28.448,79.2960033 28.448,78.64 C28.448,77.7599956 28.6719978,77.0760024 29.12,76.588 C29.5680022,76.0999976 30.3039949,75.7480011 31.328,75.532 C32.3520051,75.3159989 33.7759909,75.208 35.6,75.208 L36.128,75.208 L36.128,74.416 C36.128,73.4559952 35.932002,72.7520022 35.54,72.304 C35.147998,71.8559978 34.5120044,71.632 33.632,71.632 C32.5439946,71.632 31.4400056,71.927997 30.32,72.52 C29.8879978,72.7920014 29.5840009,72.928 29.408,72.928 C29.215999,72.928 29.0560006,72.8560007 28.928,72.712 C28.7999994,72.5679993 28.736,72.3840011 28.736,72.16 C28.736,71.9359989 28.8039993,71.7400008 28.94,71.572 C29.0760007,71.4039992 29.2959985,71.2320009 29.6,71.056 C30.1600028,70.7359984 30.7959964,70.4840009 31.508,70.3 C32.2200036,70.1159991 32.9279965,70.024 33.632,70.024 Z M32.84,80.632 C33.8000048,80.632 34.5879969,80.3080032 35.204,79.66 C35.8200031,79.0119968 36.128,78.1760051 36.128,77.152 L36.128,76.456 L35.696,76.456 C34.287993,76.456 33.2160037,76.5159994 32.48,76.636 C31.7439963,76.7560006 31.2200016,76.9559986 30.908,77.236 C30.5959984,77.5160014 30.44,77.9279973 30.44,78.472 C30.44,79.0960031 30.6679977,79.611998 31.124,80.02 C31.5800023,80.428002 32.1519966,80.632 32.84,80.632 Z M46.456,70.024 C47.4800051,70.024 48.3839961,70.2799974 49.168,70.792 C49.9520039,71.3040026 50.5599978,72.0199954 50.992,72.94 C51.4240022,73.8600046 51.64,74.9279939 51.64,76.144 C51.64,77.3600061 51.4240022,78.4199955 50.992,79.324 C50.5599978,80.2280045 49.9560039,80.9279975 49.18,81.424 C48.4039961,81.9200025 47.4960052,82.168 46.456,82.168 C45.5439954,82.168 44.7480034,81.968002 44.068,81.568 C43.3879966,81.167998 42.8720018,80.6000037 42.52,79.864 L42.52,85.504 C42.52,85.7920014 42.4360008,86.0199992 42.268,86.188 C42.0999992,86.3560008 41.8640015,86.44 41.56,86.44 C41.2559985,86.44 41.0160009,86.3520009 40.84,86.176 C40.6639991,85.9999991 40.576,85.7760014 40.576,85.504 L40.576,71.032 C40.576,70.7439986 40.6639991,70.5120009 40.84,70.336 C41.0160009,70.1599991 41.2559985,70.072 41.56,70.072 C41.8640015,70.072 42.0999992,70.1599991 42.268,70.336 C42.4360008,70.5120009 42.52,70.7439986 42.52,71.032 L42.52,72.328 C42.8720018,71.5919963 43.3879966,71.024002 44.068,70.624 C44.7480034,70.223998 45.5439954,70.024 46.456,70.024 Z M46.072,80.56 C47.2080057,80.56 48.0879969,80.1760038 48.712,79.408 C49.3360031,78.6399962 49.648,77.552007 49.648,76.144 C49.648,74.735993 49.3360031,73.636004 48.712,72.844 C48.0879969,72.051996 47.2080057,71.656 46.072,71.656 C44.9359943,71.656 44.0600031,72.0399962 43.444,72.808 C42.8279969,73.5760038 42.52,74.6719929 42.52,76.096 C42.52,77.5200071 42.8279969,78.6199961 43.444,79.396 C44.0600031,80.1720039 44.9359943,80.56 46.072,80.56 Z M59.424,70.024 C60.4480051,70.024 61.3519961,70.2799974 62.136,70.792 C62.9200039,71.3040026 63.5279978,72.0199954 63.96,72.94 C64.3920022,73.8600046 64.608,74.9279939 64.608,76.144 C64.608,77.3600061 64.3920022,78.4199955 63.96,79.324 C63.5279978,80.2280045 62.9240039,80.9279975 62.148,81.424 C61.3719961,81.9200025 60.4640052,82.168 59.424,82.168 C58.5119954,82.168 57.7160034,81.968002 57.036,81.568 C56.3559966,81.167998 55.8400018,80.6000037 55.488,79.864 L55.488,85.504 C55.488,85.7920014 55.4040008,86.0199992 55.236,86.188 C55.0679992,86.3560008 54.8320015,86.44 54.528,86.44 C54.2239985,86.44 53.9840009,86.3520009 53.808,86.176 C53.6319991,85.9999991 53.544,85.7760014 53.544,85.504 L53.544,71.032 C53.544,70.7439986 53.6319991,70.5120009 53.808,70.336 C53.9840009,70.1599991 54.2239985,70.072 54.528,70.072 C54.8320015,70.072 55.0679992,70.1599991 55.236,70.336 C55.4040008,70.5120009 55.488,70.7439986 55.488,71.032 L55.488,72.328 C55.8400018,71.5919963 56.3559966,71.024002 57.036,70.624 C57.7160034,70.223998 58.5119954,70.024 59.424,70.024 Z M59.04,80.56 C60.1760057,80.56 61.0559969,80.1760038 61.68,79.408 C62.3040031,78.6399962 62.616,77.552007 62.616,76.144 C62.616,74.735993 62.3040031,73.636004 61.68,72.844 C61.0559969,72.051996 60.1760057,71.656 59.04,71.656 C57.9039943,71.656 57.0280031,72.0399962 56.412,72.808 C55.7959969,73.5760038 55.488,74.6719929 55.488,76.096 C55.488,77.5200071 55.7959969,78.6199961 56.412,79.396 C57.0280031,80.1720039 57.9039943,80.56 59.04,80.56 Z M72.296,70.072 C72.9680034,70.0239998 73.304,70.295997 73.304,70.888 C73.304,71.1440013 73.2320007,71.3479992 73.088,71.5 C72.9439993,71.6520008 72.6960018,71.7439998 72.344,71.776 L71.624,71.848 C70.5519946,71.9440005 69.7560026,72.3239967 69.236,72.988 C68.7159974,73.6520033 68.456,74.4319955 68.456,75.328 L68.456,81.16 C68.456,81.4800016 68.3680009,81.7199992 68.192,81.88 C68.0159991,82.0400008 67.7840014,82.12 67.496,82.12 C67.2079986,82.12 66.9720009,82.0360008 66.788,81.868 C66.6039991,81.6999992 66.512,81.4640015 66.512,81.16 L66.512,71.032 C66.512,70.7279985 66.607999,70.4920008 66.8,70.324 C66.992001,70.1559992 67.2239986,70.072 67.496,70.072 C67.7520013,70.072 67.9679991,70.1559992 68.144,70.324 C68.3200009,70.4920008 68.408,70.7199986 68.408,71.008 L68.408,72.352 C68.7440017,71.6479965 69.2199969,71.1120018 69.836,70.744 C70.4520031,70.3759982 71.159996,70.1600003 71.96,70.096 L72.296,70.072 Z M78.592,82.168 C77.4879945,82.168 76.5160042,81.9200025 75.676,81.424 C74.8359958,80.9279975 74.1880023,80.2200046 73.732,79.3 C73.2759977,78.3799954 73.048,77.3120061 73.048,76.096 C73.048,74.8799939 73.2759977,73.8120046 73.732,72.892 C74.1880023,71.9719954 74.8359958,71.2640025 75.676,70.768 C76.5160042,70.2719975 77.4879945,70.024 78.592,70.024 C79.6960055,70.024 80.6719958,70.2719975 81.52,70.768 C82.3680042,71.2640025 83.0199977,71.9719954 83.476,72.892 C83.9320023,73.8120046 84.16,74.8799939 84.16,76.096 C84.16,77.3120061 83.9320023,78.3799954 83.476,79.3 C83.0199977,80.2200046 82.3680042,80.9279975 81.52,81.424 C80.6719958,81.9200025 79.6960055,82.168 78.592,82.168 Z M78.592,80.56 C79.7440058,80.56 80.6279969,80.1800038 81.244,79.42 C81.8600031,78.6599962 82.168,77.5520073 82.168,76.096 C82.168,74.6719929 81.8560031,73.5720039 81.232,72.796 C80.6079969,72.0199961 79.7280057,71.632 78.592,71.632 C77.4559943,71.632 76.5760031,72.0199961 75.952,72.796 C75.3279969,73.5720039 75.016,74.6719929 75.016,76.096 C75.016,77.5360072 75.3239969,78.6399962 75.94,79.408 C76.5560031,80.1760038 77.4399942,80.56 78.592,80.56 Z M94.344,70.672 C94.5200009,70.2879981 94.7999981,70.096 95.184,70.096 C95.4240012,70.096 95.639999,70.1759992 95.832,70.336 C96.024001,70.4960008 96.12,70.6959988 96.12,70.936 C96.12,71.0800007 96.0880003,71.2079994 96.024,71.32 L91.344,81.4 C91.2479995,81.608001 91.104001,81.7719994 90.912,81.892 C90.719999,82.0120006 90.5120011,82.072 90.288,82.072 C90.079999,82.072 89.880001,82.0120006 89.688,81.892 C89.495999,81.7719994 89.3440006,81.608001 89.232,81.4 L84.576,71.32 C84.5119997,71.2079994 84.48,71.0880006 84.48,70.96 C84.48,70.7199988 84.5879989,70.5120009 84.804,70.336 C85.0200011,70.1599991 85.2559987,70.072 85.512,70.072 C85.6720008,70.072 85.8279992,70.1199995 85.98,70.216 C86.1320008,70.3120005 86.2479996,70.4479991 86.328,70.624 L90.336,79.624 L94.344,70.672 Z M101.816,70.024 C104.744015,70.024 106.208,71.5599846 106.208,74.632 L106.208,81.16 C106.208,81.4480014 106.124001,81.6799991 105.956,81.856 C105.787999,82.0320009 105.560001,82.12 105.272,82.12 C104.983999,82.12 104.752001,82.0320009 104.576,81.856 C104.399999,81.6799991 104.312,81.4480014 104.312,81.16 L104.312,80.008 C104.007998,80.6960034 103.544003,81.2279981 102.92,81.604 C102.295997,81.9800019 101.576004,82.168 100.76,82.168 C100.007996,82.168 99.3160032,82.0160015 98.684,81.712 C98.0519968,81.4079985 97.5520018,80.9840027 97.184,80.44 C96.8159982,79.8959973 96.632,79.2960033 96.632,78.64 C96.632,77.7599956 96.8559978,77.0760024 97.304,76.588 C97.7520022,76.0999976 98.4879949,75.7480011 99.512,75.532 C100.536005,75.3159989 101.959991,75.208 103.784,75.208 L104.312,75.208 L104.312,74.416 C104.312,73.4559952 104.116002,72.7520022 103.724,72.304 C103.331998,71.8559978 102.696004,71.632 101.816,71.632 C100.727995,71.632 99.6240056,71.927997 98.504,72.52 C98.0719978,72.7920014 97.7680009,72.928 97.592,72.928 C97.399999,72.928 97.2400006,72.8560007 97.112,72.712 C96.9839994,72.5679993 96.92,72.3840011 96.92,72.16 C96.92,71.9359989 96.9879993,71.7400008 97.124,71.572 C97.2600007,71.4039992 97.4799985,71.2320009 97.784,71.056 C98.3440028,70.7359984 98.9799964,70.4840009 99.692,70.3 C100.404004,70.1159991 101.111996,70.024 101.816,70.024 Z M101.024,80.632 C101.984005,80.632 102.771997,80.3080032 103.388,79.66 C104.004003,79.0119968 104.312,78.1760051 104.312,77.152 L104.312,76.456 L103.88,76.456 C102.471993,76.456 101.400004,76.5159994 100.664,76.636 C99.9279963,76.7560006 99.4040016,76.9559986 99.092,77.236 C98.7799984,77.5160014 98.624,77.9279973 98.624,78.472 C98.624,79.0960031 98.8519977,79.611998 99.308,80.02 C99.7640023,80.428002 100.335997,80.632 101.024,80.632 Z M109.744,82.12 C109.455999,82.12 109.220001,82.0360008 109.036,81.868 C108.851999,81.6999992 108.76,81.4640015 108.76,81.16 L108.76,65.92 C108.76,65.6159985 108.851999,65.3800008 109.036,65.212 C109.220001,65.0439992 109.455999,64.96 109.744,64.96 C110.016001,64.96 110.243999,65.0439992 110.428,65.212 C110.612001,65.3800008 110.704,65.6159985 110.704,65.92 L110.704,81.16 C110.704,81.4640015 110.612001,81.6999992 110.428,81.868 C110.243999,82.0360008 110.016001,82.12 109.744,82.12 Z M123.296,70.024 C126.224015,70.024 127.688,71.5599846 127.688,74.632 L127.688,81.16 C127.688,81.4480014 127.604001,81.6799991 127.436,81.856 C127.267999,82.0320009 127.040001,82.12 126.752,82.12 C126.463999,82.12 126.232001,82.0320009 126.056,81.856 C125.879999,81.6799991 125.792,81.4480014 125.792,81.16 L125.792,80.008 C125.487998,80.6960034 125.024003,81.2279981 124.4,81.604 C123.775997,81.9800019 123.056004,82.168 122.24,82.168 C121.487996,82.168 120.796003,82.0160015 120.164,81.712 C119.531997,81.4079985 119.032002,80.9840027 118.664,80.44 C118.295998,79.8959973 118.112,79.2960033 118.112,78.64 C118.112,77.7599956 118.335998,77.0760024 118.784,76.588 C119.232002,76.0999976 119.967995,75.7480011 120.992,75.532 C122.016005,75.3159989 123.439991,75.208 125.264,75.208 L125.792,75.208 L125.792,74.416 C125.792,73.4559952 125.596002,72.7520022 125.204,72.304 C124.811998,71.8559978 124.176004,71.632 123.296,71.632 C122.207995,71.632 121.104006,71.927997 119.984,72.52 C119.551998,72.7920014 119.248001,72.928 119.072,72.928 C118.879999,72.928 118.720001,72.8560007 118.592,72.712 C118.463999,72.5679993 118.4,72.3840011 118.4,72.16 C118.4,71.9359989 118.467999,71.7400008 118.604,71.572 C118.740001,71.4039992 118.959998,71.2320009 119.264,71.056 C119.824003,70.7359984 120.459996,70.4840009 121.172,70.3 C121.884004,70.1159991 122.591996,70.024 123.296,70.024 Z M122.504,80.632 C123.464005,80.632 124.251997,80.3080032 124.868,79.66 C125.484003,79.0119968 125.792,78.1760051 125.792,77.152 L125.792,76.456 L125.36,76.456 C123.951993,76.456 122.880004,76.5159994 122.144,76.636 C121.407996,76.7560006 120.884002,76.9559986 120.572,77.236 C120.259998,77.5160014 120.104,77.9279973 120.104,78.472 C120.104,79.0960031 120.331998,79.611998 120.788,80.02 C121.244002,80.428002 121.815997,80.632 122.504,80.632 Z M139.12,70.072 C139.424002,70.072 139.659999,70.1599991 139.828,70.336 C139.996001,70.5120009 140.08,70.7439986 140.08,71.032 L140.08,81.184 C140.08,81.4560014 139.996001,81.6799991 139.828,81.856 C139.659999,82.0320009 139.424002,82.12 139.12,82.12 C138.831999,82.12 138.604001,82.0360008 138.436,81.868 C138.267999,81.6999992 138.184,81.4800014 138.184,81.208 L138.184,80.008 C137.815998,80.7120035 137.300003,81.2479982 136.636,81.616 C135.971997,81.9840018 135.224004,82.168 134.392,82.168 C132.999993,82.168 131.952004,81.7800039 131.248,81.004 C130.543996,80.2279961 130.192,79.0800076 130.192,77.56 L130.192,71.032 C130.192,70.7439986 130.279999,70.5120009 130.456,70.336 C130.632001,70.1599991 130.871998,70.072 131.176,70.072 C131.480002,70.072 131.715999,70.1599991 131.884,70.336 C132.052001,70.5120009 132.136,70.7439986 132.136,71.032 L132.136,77.512 C132.136,78.5520052 132.343998,79.3159976 132.76,79.804 C133.176002,80.2920024 133.831996,80.536 134.728,80.536 C135.752005,80.536 136.575997,80.2040033 137.2,79.54 C137.824003,78.8759967 138.136,78.0000054 138.136,76.912 L138.136,71.032 C138.136,70.7439986 138.223999,70.5120009 138.4,70.336 C138.576001,70.1599991 138.815998,70.072 139.12,70.072 Z M152.088,64.96 C152.392002,64.96 152.631999,65.0479991 152.808,65.224 C152.984001,65.4000009 153.072,65.6239986 153.072,65.896 L153.072,81.16 C153.072,81.4480014 152.984001,81.6799991 152.808,81.856 C152.631999,82.0320009 152.392002,82.12 152.088,82.12 C151.783998,82.12 151.548001,82.0320009 151.38,81.856 C151.211999,81.6799991 151.128,81.4480014 151.128,81.16 L151.128,79.864 C150.775998,80.6000037 150.260003,81.167998 149.58,81.568 C148.899997,81.968002 148.104005,82.168 147.192,82.168 C146.167995,82.168 145.264004,81.9120026 144.48,81.4 C143.695996,80.8879974 143.088002,80.1720046 142.656,79.252 C142.223998,78.3319954 142.008,77.2640061 142.008,76.048 C142.008,74.847994 142.223998,73.7920046 142.656,72.88 C143.088002,71.9679954 143.695996,71.2640025 144.48,70.768 C145.264004,70.2719975 146.167995,70.024 147.192,70.024 C148.104005,70.024 148.899997,70.223998 149.58,70.624 C150.260003,71.024002 150.775998,71.5919963 151.128,72.328 L151.128,65.896 C151.128,65.6079986 151.211999,65.3800008 151.38,65.212 C151.548001,65.0439992 151.783998,64.96 152.088,64.96 Z M147.576,80.56 C148.712006,80.56 149.587997,80.1720039 150.204,79.396 C150.820003,78.6199961 151.128,77.5200071 151.128,76.096 C151.128,74.6719929 150.820003,73.5760038 150.204,72.808 C149.587997,72.0399962 148.712006,71.656 147.576,71.656 C146.439994,71.656 145.556003,72.0399962 144.924,72.808 C144.291997,73.5760038 143.976,74.655993 143.976,76.048 C143.976,77.4720071 144.291997,78.579996 144.924,79.372 C145.556003,80.164004 146.439994,80.56 147.576,80.56 Z M156.656,82.12 C156.367999,82.12 156.132001,82.0360008 155.948,81.868 C155.763999,81.6999992 155.672,81.4640015 155.672,81.16 L155.672,71.032 C155.672,70.7279985 155.763999,70.4920008 155.948,70.324 C156.132001,70.1559992 156.367999,70.072 156.656,70.072 C156.944001,70.072 157.175999,70.1559992 157.352,70.324 C157.528001,70.4920008 157.616,70.7279985 157.616,71.032 L157.616,81.16 C157.616,81.4800016 157.528001,81.7199992 157.352,81.88 C157.175999,82.0400008 156.944001,82.12 156.656,82.12 Z M156.656,67.552 C156.271998,67.552 155.960001,67.4400011 155.72,67.216 C155.479999,66.9919989 155.36,66.6960018 155.36,66.328 C155.36,65.9759982 155.479999,65.6880011 155.72,65.464 C155.960001,65.2399989 156.271998,65.128 156.656,65.128 C157.040002,65.128 157.351999,65.2399989 157.592,65.464 C157.832001,65.6880011 157.952,65.9759982 157.952,66.328 C157.952,66.6960018 157.832001,66.9919989 157.592,67.216 C157.351999,67.4400011 157.040002,67.552 156.656,67.552 Z M165.64,80.584 C166.200003,80.6320002 166.48,80.8879977 166.48,81.352 C166.48,81.6240014 166.380001,81.8279993 166.18,81.964 C165.979999,82.1000007 165.680002,82.1520002 165.28,82.12 L164.632,82.072 C163.351994,81.9759995 162.408003,81.5920034 161.8,80.92 C161.191997,80.2479966 160.888,79.2320068 160.888,77.872 L160.888,71.848 L159.28,71.848 C159.007999,71.848 158.796001,71.7800007 158.644,71.644 C158.491999,71.5079993 158.416,71.3280011 158.416,71.104 C158.416,70.8639988 158.491999,70.6720007 158.644,70.528 C158.796001,70.3839993 159.007999,70.312 159.28,70.312 L160.888,70.312 L160.888,67.6 C160.888,67.2959985 160.975999,67.0600008 161.152,66.892 C161.328001,66.7239992 161.567998,66.64 161.872,66.64 C162.160001,66.64 162.391999,66.7239992 162.568,66.892 C162.744001,67.0600008 162.832,67.2959985 162.832,67.6 L162.832,70.312 L165.496,70.312 C165.752001,70.312 165.955999,70.3839993 166.108,70.528 C166.260001,70.6720007 166.336,70.8639988 166.336,71.104 C166.336,71.3280011 166.260001,71.5079993 166.108,71.644 C165.955999,71.7800007 165.752001,71.848 165.496,71.848 L162.832,71.848 L162.832,77.968 C162.832,78.8480044 163.011998,79.483998 163.372,79.876 C163.732002,80.268002 164.271996,80.4879998 164.992,80.536 L165.64,80.584 Z M177.992,80.584 C178.552003,80.6320002 178.832,80.8879977 178.832,81.352 C178.832,81.6240014 178.732001,81.8279993 178.532,81.964 C178.331999,82.1000007 178.032002,82.1520002 177.632,82.12 L176.984,82.072 C175.703994,81.9759995 174.760003,81.5920034 174.152,80.92 C173.543997,80.2479966 173.24,79.2320068 173.24,77.872 L173.24,71.848 L171.632,71.848 C171.359999,71.848 171.148001,71.7800007 170.996,71.644 C170.843999,71.5079993 170.768,71.3280011 170.768,71.104 C170.768,70.8639988 170.843999,70.6720007 170.996,70.528 C171.148001,70.3839993 171.359999,70.312 171.632,70.312 L173.24,70.312 L173.24,67.6 C173.24,67.2959985 173.327999,67.0600008 173.504,66.892 C173.680001,66.7239992 173.919998,66.64 174.224,66.64 C174.512001,66.64 174.743999,66.7239992 174.92,66.892 C175.096001,67.0600008 175.184,67.2959985 175.184,67.6 L175.184,70.312 L177.848,70.312 C178.104001,70.312 178.307999,70.3839993 178.46,70.528 C178.612001,70.6720007 178.688,70.8639988 178.688,71.104 C178.688,71.3280011 178.612001,71.5079993 178.46,71.644 C178.307999,71.7800007 178.104001,71.848 177.848,71.848 L175.184,71.848 L175.184,77.968 C175.184,78.8480044 175.363998,79.483998 175.724,79.876 C176.084002,80.268002 176.623996,80.4879998 177.344,80.536 L177.992,80.584 Z M185.536,70.072 C186.208003,70.0239998 186.544,70.295997 186.544,70.888 C186.544,71.1440013 186.472001,71.3479992 186.328,71.5 C186.183999,71.6520008 185.936002,71.7439998 185.584,71.776 L184.864,71.848 C183.791995,71.9440005 182.996003,72.3239967 182.476,72.988 C181.955997,73.6520033 181.696,74.4319955 181.696,75.328 L181.696,81.16 C181.696,81.4800016 181.608001,81.7199992 181.432,81.88 C181.255999,82.0400008 181.024001,82.12 180.736,82.12 C180.447999,82.12 180.212001,82.0360008 180.028,81.868 C179.843999,81.6999992 179.752,81.4640015 179.752,81.16 L179.752,71.032 C179.752,70.7279985 179.847999,70.4920008 180.04,70.324 C180.232001,70.1559992 180.463999,70.072 180.736,70.072 C180.992001,70.072 181.207999,70.1559992 181.384,70.324 C181.560001,70.4920008 181.648,70.7199986 181.648,71.008 L181.648,72.352 C181.984002,71.6479965 182.459997,71.1120018 183.076,70.744 C183.692003,70.3759982 184.399996,70.1600003 185.2,70.096 L185.536,70.072 Z M191.904,70.024 C194.832015,70.024 196.296,71.5599846 196.296,74.632 L196.296,81.16 C196.296,81.4480014 196.212001,81.6799991 196.044,81.856 C195.875999,82.0320009 195.648001,82.12 195.36,82.12 C195.071999,82.12 194.840001,82.0320009 194.664,81.856 C194.487999,81.6799991 194.4,81.4480014 194.4,81.16 L194.4,80.008 C194.095998,80.6960034 193.632003,81.2279981 193.008,81.604 C192.383997,81.9800019 191.664004,82.168 190.848,82.168 C190.095996,82.168 189.404003,82.0160015 188.772,81.712 C188.139997,81.4079985 187.640002,80.9840027 187.272,80.44 C186.903998,79.8959973 186.72,79.2960033 186.72,78.64 C186.72,77.7599956 186.943998,77.0760024 187.392,76.588 C187.840002,76.0999976 188.575995,75.7480011 189.6,75.532 C190.624005,75.3159989 192.047991,75.208 193.872,75.208 L194.4,75.208 L194.4,74.416 C194.4,73.4559952 194.204002,72.7520022 193.812,72.304 C193.419998,71.8559978 192.784004,71.632 191.904,71.632 C190.815995,71.632 189.712006,71.927997 188.592,72.52 C188.159998,72.7920014 187.856001,72.928 187.68,72.928 C187.487999,72.928 187.328001,72.8560007 187.2,72.712 C187.071999,72.5679993 187.008,72.3840011 187.008,72.16 C187.008,71.9359989 187.075999,71.7400008 187.212,71.572 C187.348001,71.4039992 187.567998,71.2320009 187.872,71.056 C188.432003,70.7359984 189.067996,70.4840009 189.78,70.3 C190.492004,70.1159991 191.199996,70.024 191.904,70.024 Z M191.112,80.632 C192.072005,80.632 192.859997,80.3080032 193.476,79.66 C194.092003,79.0119968 194.4,78.1760051 194.4,77.152 L194.4,76.456 L193.968,76.456 C192.559993,76.456 191.488004,76.5159994 190.752,76.636 C190.015996,76.7560006 189.492002,76.9559986 189.18,77.236 C188.867998,77.5160014 188.712,77.9279973 188.712,78.472 C188.712,79.0960031 188.939998,79.611998 189.396,80.02 C189.852002,80.428002 190.423997,80.632 191.112,80.632 Z M199.832,82.12 C199.543999,82.12 199.308001,82.0360008 199.124,81.868 C198.939999,81.6999992 198.848,81.4640015 198.848,81.16 L198.848,71.032 C198.848,70.7279985 198.939999,70.4920008 199.124,70.324 C199.308001,70.1559992 199.543999,70.072 199.832,70.072 C200.120001,70.072 200.351999,70.1559992 200.528,70.324 C200.704001,70.4920008 200.792,70.7279985 200.792,71.032 L200.792,81.16 C200.792,81.4800016 200.704001,81.7199992 200.528,81.88 C200.351999,82.0400008 200.120001,82.12 199.832,82.12 Z M199.832,67.552 C199.447998,67.552 199.136001,67.4400011 198.896,67.216 C198.655999,66.9919989 198.536,66.6960018 198.536,66.328 C198.536,65.9759982 198.655999,65.6880011 198.896,65.464 C199.136001,65.2399989 199.447998,65.128 199.832,65.128 C200.216002,65.128 200.527999,65.2399989 200.768,65.464 C201.008001,65.6880011 201.128,65.9759982 201.128,66.328 C201.128,66.6960018 201.008001,66.9919989 200.768,67.216 C200.527999,67.4400011 200.216002,67.552 199.832,67.552 Z M204.4,82.12 C204.111999,82.12 203.876001,82.0360008 203.692,81.868 C203.507999,81.6999992 203.416,81.4640015 203.416,81.16 L203.416,65.92 C203.416,65.6159985 203.507999,65.3800008 203.692,65.212 C203.876001,65.0439992 204.111999,64.96 204.4,64.96 C204.672001,64.96 204.899999,65.0439992 205.084,65.212 C205.268001,65.3800008 205.36,65.6159985 205.36,65.92 L205.36,81.16 C205.36,81.4640015 205.268001,81.6999992 205.084,81.868 C204.899999,82.0360008 204.672001,82.12 204.4,82.12 Z M5.648,114.168 C4.54399448,114.168 3.5720042,113.920002 2.732,113.424 C1.8919958,112.927998 1.24400228,112.220005 0.788,111.3 C0.33199772,110.379995 0.104,109.312006 0.104,108.096 C0.104,106.879994 0.33199772,105.812005 0.788,104.892 C1.24400228,103.971995 1.8919958,103.264002 2.732,102.768 C3.5720042,102.271998 4.54399448,102.024 5.648,102.024 C6.75200552,102.024 7.72799576,102.271998 8.576,102.768 C9.42400424,103.264002 10.0759977,103.971995 10.532,104.892 C10.9880023,105.812005 11.216,106.879994 11.216,108.096 C11.216,109.312006 10.9880023,110.379995 10.532,111.3 C10.0759977,112.220005 9.42400424,112.927998 8.576,113.424 C7.72799576,113.920002 6.75200552,114.168 5.648,114.168 Z M5.648,112.56 C6.80000576,112.56 7.68399692,112.180004 8.3,111.42 C8.91600308,110.659996 9.224,109.552007 9.224,108.096 C9.224,106.671993 8.91200312,105.572004 8.288,104.796 C7.66399688,104.019996 6.78400568,103.632 5.648,103.632 C4.51199432,103.632 3.63200312,104.019996 3.008,104.796 C2.38399688,105.572004 2.072,106.671993 2.072,108.096 C2.072,109.536007 2.37999692,110.639996 2.996,111.408 C3.61200308,112.176004 4.49599424,112.56 5.648,112.56 Z M18.256,98.616 C17.4079958,98.6800003 16.7680022,98.9479976 16.336,99.42 C15.9039978,99.8920024 15.688,100.599995 15.688,101.544 L15.688,102.312 L18.352,102.312 C18.6240014,102.312 18.8319993,102.383999 18.976,102.528 C19.1200007,102.672001 19.192,102.863999 19.192,103.104 C19.192,103.344001 19.1200007,103.527999 18.976,103.656 C18.8319993,103.784001 18.6240014,103.848 18.352,103.848 L15.688,103.848 L15.688,113.16 C15.688,113.464002 15.5960009,113.699999 15.412,113.868 C15.2279991,114.036001 15.0000014,114.12 14.728,114.12 C14.4399986,114.12 14.2040009,114.036001 14.02,113.868 C13.8359991,113.699999 13.744,113.464002 13.744,113.16 L13.744,103.848 L12.136,103.848 C11.8639986,103.848 11.6520008,103.780001 11.5,103.644 C11.3479992,103.507999 11.272,103.328001 11.272,103.104 C11.272,102.863999 11.3479992,102.672001 11.5,102.528 C11.6520008,102.383999 11.8639986,102.312 12.136,102.312 L13.744,102.312 L13.744,101.88 C13.744,100.439993 14.1039964,99.3080041 14.824,98.484 C15.5440036,97.6599959 16.5759933,97.2000005 17.92,97.104 L18.544,97.056 C18.9600021,97.0239998 19.2599991,97.0639994 19.444,97.176 C19.6280009,97.2880006 19.72,97.4879986 19.72,97.776 C19.72,98.2400023 19.4400028,98.5039997 18.88,98.568 L18.256,98.616 Z M30.56,112.584 C31.1200028,112.632 31.4,112.887998 31.4,113.352 C31.4,113.624001 31.300001,113.827999 31.1,113.964 C30.899999,114.100001 30.600002,114.152 30.2,114.12 L29.552,114.072 C28.2719936,113.976 27.328003,113.592003 26.72,112.92 C26.111997,112.247997 25.808,111.232007 25.808,109.872 L25.808,103.848 L24.2,103.848 C23.9279986,103.848 23.7160008,103.780001 23.564,103.644 C23.4119992,103.507999 23.336,103.328001 23.336,103.104 C23.336,102.863999 23.4119992,102.672001 23.564,102.528 C23.7160008,102.383999 23.9279986,102.312 24.2,102.312 L25.808,102.312 L25.808,99.6 C25.808,99.2959985 25.8959991,99.0600008 26.072,98.892 C26.2480009,98.7239992 26.4879985,98.64 26.792,98.64 C27.0800014,98.64 27.3119991,98.7239992 27.488,98.892 C27.6640009,99.0600008 27.752,99.2959985 27.752,99.6 L27.752,102.312 L30.416,102.312 C30.6720013,102.312 30.8759992,102.383999 31.028,102.528 C31.1800008,102.672001 31.256,102.863999 31.256,103.104 C31.256,103.328001 31.1800008,103.507999 31.028,103.644 C30.8759992,103.780001 30.6720013,103.848 30.416,103.848 L27.752,103.848 L27.752,109.968 C27.752,110.848004 27.9319982,111.483998 28.292,111.876 C28.6520018,112.268002 29.1919964,112.488 29.912,112.536 L30.56,112.584 Z M38.224,102.024 C39.6000069,102.024 40.6399965,102.411996 41.344,103.188 C42.0480035,103.964004 42.4,105.119992 42.4,106.656 L42.4,113.16 C42.4,113.464002 42.3120009,113.699999 42.136,113.868 C41.9599991,114.036001 41.7280014,114.12 41.44,114.12 C41.1359985,114.12 40.8960009,114.036001 40.72,113.868 C40.5439991,113.699999 40.456,113.464002 40.456,113.16 L40.456,106.704 C40.456,105.663995 40.2440021,104.896002 39.82,104.4 C39.3959979,103.903998 38.7200046,103.656 37.792,103.656 C36.7199946,103.656 35.8640032,103.983997 35.224,104.64 C34.5839968,105.296003 34.264,106.183994 34.264,107.304 L34.264,113.16 C34.264,113.464002 34.1800008,113.699999 34.012,113.868 C33.8439992,114.036001 33.6080015,114.12 33.304,114.12 C32.9999985,114.12 32.7600009,114.036001 32.584,113.868 C32.4079991,113.699999 32.32,113.464002 32.32,113.16 L32.32,97.896 C32.32,97.6239986 32.4119991,97.4000009 32.596,97.224 C32.7800009,97.0479991 33.0159986,96.96 33.304,96.96 C33.6080015,96.96 33.8439992,97.0439992 34.012,97.212 C34.1800008,97.3800008 34.264,97.6079986 34.264,97.896 L34.264,104.184 C34.6480019,103.479996 35.1839966,102.944002 35.872,102.576 C36.5600034,102.207998 37.3439956,102.024 38.224,102.024 Z M54,111.288 C54.1760009,111.288 54.3279994,111.359999 54.456,111.504 C54.5840006,111.648001 54.648,111.831999 54.648,112.056 C54.648,112.456002 54.3680028,112.823998 53.808,113.16 C53.2319971,113.496002 52.6240032,113.747999 51.984,113.916 C51.3439968,114.084001 50.720003,114.168 50.112,114.168 C48.303991,114.168 46.8760052,113.632005 45.828,112.56 C44.7799948,111.487995 44.256,110.008009 44.256,108.12 C44.256,106.919994 44.4879977,105.860005 44.952,104.94 C45.4160023,104.019995 46.0679958,103.304003 46.908,102.792 C47.7480042,102.279997 48.7039946,102.024 49.776,102.024 C51.2960076,102.024 52.5039955,102.519995 53.4,103.512 C54.2960045,104.504005 54.744,105.847992 54.744,107.544 C54.744,107.864002 54.6800006,108.095999 54.552,108.24 C54.4239994,108.384001 54.2160014,108.456 53.928,108.456 L46.2,108.456 C46.3440007,111.208014 47.6479877,112.584 50.112,112.584 C50.7360031,112.584 51.2719978,112.500001 51.72,112.332 C52.1680022,112.163999 52.6479974,111.936001 53.16,111.648 C53.5760021,111.407999 53.8559993,111.288 54,111.288 Z M49.8,103.536 C48.7759949,103.536 47.9560031,103.855997 47.34,104.496 C46.7239969,105.136003 46.3600006,106.039994 46.248,107.208 L53.04,107.208 C53.0079998,106.023994 52.7120028,105.116003 52.152,104.484 C51.5919972,103.851997 50.808005,103.536 49.8,103.536 Z M67.672,102.024 C68.6960051,102.024 69.5999961,102.279997 70.384,102.792 C71.1680039,103.304003 71.7759978,104.019995 72.208,104.94 C72.6400022,105.860005 72.856,106.927994 72.856,108.144 C72.856,109.360006 72.6400022,110.419995 72.208,111.324 C71.7759978,112.228005 71.1720039,112.927998 70.396,113.424 C69.6199961,113.920002 68.7120052,114.168 67.672,114.168 C66.7599954,114.168 65.9640034,113.968002 65.284,113.568 C64.6039966,113.167998 64.0880018,112.600004 63.736,111.864 L63.736,117.504 C63.736,117.792001 63.6520008,118.019999 63.484,118.188 C63.3159992,118.356001 63.0800015,118.44 62.776,118.44 C62.4719985,118.44 62.2320009,118.352001 62.056,118.176 C61.8799991,117.999999 61.792,117.776001 61.792,117.504 L61.792,103.032 C61.792,102.743999 61.8799991,102.512001 62.056,102.336 C62.2320009,102.159999 62.4719985,102.072 62.776,102.072 C63.0800015,102.072 63.3159992,102.159999 63.484,102.336 C63.6520008,102.512001 63.736,102.743999 63.736,103.032 L63.736,104.328 C64.0880018,103.591996 64.6039966,103.024002 65.284,102.624 C65.9640034,102.223998 66.7599954,102.024 67.672,102.024 Z M67.288,112.56 C68.4240057,112.56 69.3039969,112.176004 69.928,111.408 C70.5520031,110.639996 70.864,109.552007 70.864,108.144 C70.864,106.735993 70.5520031,105.636004 69.928,104.844 C69.3039969,104.051996 68.4240057,103.656 67.288,103.656 C66.1519943,103.656 65.2760031,104.039996 64.66,104.808 C64.0439969,105.576004 63.736,106.671993 63.736,108.096 C63.736,109.520007 64.0439969,110.619996 64.66,111.396 C65.2760031,112.172004 66.1519943,112.56 67.288,112.56 Z M79.608,114.168 C78.5039945,114.168 77.5320042,113.920002 76.692,113.424 C75.8519958,112.927998 75.2040023,112.220005 74.748,111.3 C74.2919977,110.379995 74.064,109.312006 74.064,108.096 C74.064,106.879994 74.2919977,105.812005 74.748,104.892 C75.2040023,103.971995 75.8519958,103.264002 76.692,102.768 C77.5320042,102.271998 78.5039945,102.024 79.608,102.024 C80.7120055,102.024 81.6879958,102.271998 82.536,102.768 C83.3840042,103.264002 84.0359977,103.971995 84.492,104.892 C84.9480023,105.812005 85.176,106.879994 85.176,108.096 C85.176,109.312006 84.9480023,110.379995 84.492,111.3 C84.0359977,112.220005 83.3840042,112.927998 82.536,113.424 C81.6879958,113.920002 80.7120055,114.168 79.608,114.168 Z M79.608,112.56 C80.7600058,112.56 81.6439969,112.180004 82.26,111.42 C82.8760031,110.659996 83.184,109.552007 83.184,108.096 C83.184,106.671993 82.8720031,105.572004 82.248,104.796 C81.6239969,104.019996 80.7440057,103.632 79.608,103.632 C78.4719943,103.632 77.5920031,104.019996 76.968,104.796 C76.3439969,105.572004 76.032,106.671993 76.032,108.096 C76.032,109.536007 76.3399969,110.639996 76.956,111.408 C77.5720031,112.176004 78.4559942,112.56 79.608,112.56 Z M88.064,114.12 C87.7759986,114.12 87.5400009,114.036001 87.356,113.868 C87.1719991,113.699999 87.08,113.464002 87.08,113.16 L87.08,97.92 C87.08,97.6159985 87.1719991,97.3800008 87.356,97.212 C87.5400009,97.0439992 87.7759986,96.96 88.064,96.96 C88.3360014,96.96 88.5639991,97.0439992 88.748,97.212 C88.9320009,97.3800008 89.024,97.6159985 89.024,97.92 L89.024,113.16 C89.024,113.464002 88.9320009,113.699999 88.748,113.868 C88.5639991,114.036001 88.3360014,114.12 88.064,114.12 Z M92.632,114.12 C92.3439986,114.12 92.1080009,114.036001 91.924,113.868 C91.7399991,113.699999 91.648,113.464002 91.648,113.16 L91.648,103.032 C91.648,102.727998 91.7399991,102.492001 91.924,102.324 C92.1080009,102.155999 92.3439986,102.072 92.632,102.072 C92.9200014,102.072 93.1519991,102.155999 93.328,102.324 C93.5040009,102.492001 93.592,102.727998 93.592,103.032 L93.592,113.16 C93.592,113.480002 93.5040009,113.719999 93.328,113.88 C93.1519991,114.040001 92.9200014,114.12 92.632,114.12 Z M92.632,99.552 C92.2479981,99.552 91.9360012,99.4400011 91.696,99.216 C91.4559988,98.9919989 91.336,98.6960018 91.336,98.328 C91.336,97.9759982 91.4559988,97.6880011 91.696,97.464 C91.9360012,97.2399989 92.2479981,97.128 92.632,97.128 C93.0160019,97.128 93.3279988,97.2399989 93.568,97.464 C93.8080012,97.6880011 93.928,97.9759982 93.928,98.328 C93.928,98.6960018 93.8080012,98.9919989 93.568,99.216 C93.3279988,99.4400011 93.0160019,99.552 92.632,99.552 Z M101.04,114.168 C99.9519946,114.168 98.9880042,113.920002 98.148,113.424 C97.3079958,112.927998 96.6600023,112.224005 96.204,111.312 C95.7479977,110.399995 95.52,109.344006 95.52,108.144 C95.52,106.943994 95.7559976,105.880005 96.228,104.952 C96.7000024,104.023995 97.3599958,103.304003 98.208,102.792 C99.0560042,102.279997 100.031994,102.024 101.136,102.024 C101.744003,102.024 102.347997,102.107999 102.948,102.276 C103.548003,102.444001 104.071998,102.687998 104.52,103.008 C104.808001,103.200001 105.011999,103.387999 105.132,103.572 C105.252001,103.756001 105.312,103.959999 105.312,104.184 C105.312,104.408001 105.252001,104.591999 105.132,104.736 C105.011999,104.880001 104.856001,104.952 104.664,104.952 C104.551999,104.952 104.432001,104.92 104.304,104.856 C104.175999,104.792 104.068,104.728 103.98,104.664 C103.892,104.6 103.832,104.56 103.8,104.544 C103.383998,104.271999 102.988002,104.056001 102.612,103.896 C102.235998,103.735999 101.776003,103.656 101.232,103.656 C100.063994,103.656 99.1560032,104.051996 98.508,104.844 C97.8599968,105.636004 97.536,106.735993 97.536,108.144 C97.536,109.552007 97.8599968,110.639996 98.508,111.408 C99.1560032,112.176004 100.063994,112.56 101.232,112.56 C101.776003,112.56 102.243998,112.480001 102.636,112.32 C103.028002,112.159999 103.423998,111.944001 103.824,111.672 C104.000001,111.559999 104.167999,111.464 104.328,111.384 C104.488001,111.304 104.623999,111.264 104.736,111.264 C104.912001,111.264 105.059999,111.335999 105.18,111.48 C105.300001,111.624001 105.36,111.807999 105.36,112.032 C105.36,112.240001 105.304001,112.427999 105.192,112.596 C105.079999,112.764001 104.872002,112.951999 104.568,113.16 C104.119998,113.464002 103.580003,113.707999 102.948,113.892 C102.315997,114.076001 101.680003,114.168 101.04,114.168 Z M115.136,102.672 C115.312001,102.287998 115.591998,102.096 115.976,102.096 C116.216001,102.096 116.431999,102.175999 116.624,102.336 C116.816001,102.496001 116.912,102.695999 116.912,102.936 C116.912,103.080001 116.88,103.207999 116.816,103.32 L110.072,117.864 C109.992,118.040001 109.876001,118.176 109.724,118.272 C109.571999,118.368 109.416001,118.416 109.256,118.416 C109.015999,118.416 108.804001,118.340001 108.62,118.188 C108.435999,118.035999 108.344,117.840001 108.344,117.6 C108.344,117.471999 108.376,117.344001 108.44,117.216 L110.12,113.592 L105.368,103.32 C105.304,103.207999 105.272,103.088001 105.272,102.96 C105.272,102.719999 105.379999,102.512001 105.596,102.336 C105.812001,102.159999 106.047999,102.072 106.304,102.072 C106.464001,102.072 106.619999,102.12 106.772,102.216 C106.924001,102.312 107.04,102.447999 107.12,102.624 L111.128,111.624 L115.136,102.672 Z" id="Emails-reviewers-and"></path>
            </g>
        </g>
    </g>
</svg>