<?xml version="1.0" encoding="UTF-8" standalone="no"?>
<!DOCTYPE svg PUBLIC "-//W3C//DTD SVG 1.1//EN" "http://www.w3.org/Graphics/SVG/1.1/DTD/svg11.dtd">
<svg width="100%" height="100%" viewBox="0 0 712 64" version="1.1" xmlns="http://www.w3.org/2000/svg" xmlns:xlink="http://www.w3.org/1999/xlink" xml:space="preserve" xmlns:serif="http://www.serif.com/" style="fill-rule:evenodd;clip-rule:evenodd;stroke-linejoin:round;stroke-miterlimit:1.41421;">
    <g transform="matrix(1,0,0,1,-6.57227,63)">
        <g id="EMAIL-SECURITY">
            <path d="M12.332,0L44.816,0C46.02,0 46.951,-0.387 47.609,-1.16C48.268,-1.934 48.598,-2.822 48.598,-3.824C48.598,-4.855 48.268,-5.765 47.609,-6.553C46.951,-7.34 46.02,-7.734 44.816,-7.734L17.273,-7.734L17.273,-27.801L42.238,-27.801C43.441,-27.801 44.38,-28.18 45.053,-28.939C45.726,-29.699 46.063,-30.579 46.063,-31.582C46.063,-32.613 45.733,-33.501 45.074,-34.246C44.415,-34.991 43.47,-35.363 42.238,-35.363L17.273,-35.363L17.273,-53.797L43.785,-53.797C44.96,-53.797 45.876,-54.191 46.535,-54.979C47.194,-55.766 47.523,-56.676 47.523,-57.707C47.523,-58.738 47.194,-59.641 46.535,-60.414C45.876,-61.188 44.96,-61.574 43.785,-61.574L12.16,-61.574C10.871,-61.574 9.775,-61.102 8.873,-60.156C7.971,-59.211 7.52,-58.108 7.52,-56.848L7.52,-4.727C7.52,-3.495 8.014,-2.399 9.002,-1.439C9.99,-0.48 11.1,0 12.332,0Z" style="fill:rgb(113,117,126);fill-rule:nonzero;"/>
            <path d="M94.488,-1.762C95.634,-1.762 96.723,-2.134 97.754,-2.879C98.785,-3.624 99.587,-4.684 100.16,-6.059L118.809,-48.984L118.809,-4.125C118.809,-3.065 119.253,-2.242 120.141,-1.654C121.029,-1.067 122.081,-0.773 123.299,-0.773C124.516,-0.773 125.569,-1.067 126.457,-1.654C127.345,-2.242 127.789,-3.065 127.789,-4.125L127.789,-53.668C127.789,-55.501 127.059,-57.02 125.598,-58.223C124.137,-59.426 122.418,-60.027 120.441,-60.027C118.809,-60.027 117.276,-59.562 115.844,-58.631C114.411,-57.7 113.294,-56.303 112.492,-54.441L94.488,-13.492L76.484,-54.441C75.682,-56.303 74.565,-57.7 73.133,-58.631C71.701,-59.562 70.168,-60.027 68.535,-60.027C66.559,-60.027 64.84,-59.426 63.379,-58.223C61.918,-57.02 61.188,-55.501 61.188,-53.668L61.188,-4.125C61.188,-3.065 61.632,-2.242 62.52,-1.654C63.408,-1.067 64.46,-0.773 65.678,-0.773C66.895,-0.773 67.948,-1.067 68.836,-1.654C69.724,-2.242 70.168,-3.065 70.168,-4.125L70.168,-48.984L88.773,-6.059C89.346,-4.684 90.156,-3.624 91.201,-2.879C92.247,-2.134 93.342,-1.762 94.488,-1.762Z" style="fill:rgb(113,117,126);fill-rule:nonzero;"/>
            <path d="M178.578,-22.043L154.988,-22.043L166.805,-52.637L178.578,-22.043ZM185.969,-2.836C187,-0.888 188.475,0.158 190.395,0.301C191.225,0.301 192.006,0.129 192.736,-0.215C193.467,-0.559 194.068,-1.053 194.541,-1.697C195.014,-2.342 195.25,-3.065 195.25,-3.867C195.25,-4.411 195.135,-4.97 194.906,-5.543L174.754,-55.773C173.751,-58.294 172.627,-59.97 171.381,-60.801C170.135,-61.632 168.609,-62.047 166.805,-62.047C164.971,-62.047 163.432,-61.632 162.186,-60.801C160.939,-59.97 159.815,-58.294 158.813,-55.773L138.66,-5.543C138.431,-4.999 138.316,-4.454 138.316,-3.91C138.316,-2.363 139.076,-1.174 140.594,-0.344C141.424,0.086 142.284,0.301 143.172,0.301C144.146,0.301 145.027,0.043 145.814,-0.473C146.602,-0.988 147.197,-1.776 147.598,-2.836L152.324,-15.082L181.242,-15.082L185.969,-2.836Z" style="fill:rgb(113,117,126);fill-rule:nonzero;"/>
            <path d="M210.934,-0.043C212.28,-0.043 213.44,-0.451 214.414,-1.268C215.388,-2.084 215.875,-3.237 215.875,-4.727L215.875,-56.891C215.875,-58.38 215.395,-59.54 214.436,-60.371C213.476,-61.202 212.337,-61.617 211.02,-61.617C209.673,-61.617 208.52,-61.202 207.561,-60.371C206.601,-59.54 206.121,-58.38 206.121,-56.891L206.121,-4.727C206.121,-3.266 206.594,-2.12 207.539,-1.289C208.484,-0.458 209.616,-0.043 210.934,-0.043Z" style="fill:rgb(113,117,126);fill-rule:nonzero;"/>
            <path d="M236.672,0L267.738,0C268.941,0 269.88,-0.387 270.553,-1.16C271.226,-1.934 271.563,-2.836 271.563,-3.867C271.563,-4.898 271.226,-5.801 270.553,-6.574C269.88,-7.348 268.941,-7.734 267.738,-7.734L241.484,-7.734L241.484,-56.805C241.484,-58.294 241.012,-59.454 240.066,-60.285C239.121,-61.116 237.99,-61.531 236.672,-61.531C235.326,-61.531 234.165,-61.116 233.191,-60.285C232.217,-59.454 231.73,-58.294 231.73,-56.805L231.73,-4.855C231.73,-3.509 232.225,-2.363 233.213,-1.418C234.201,-0.473 235.354,0 236.672,0Z" style="fill:rgb(113,117,126);fill-rule:nonzero;"/>
            <path d="M324.543,0.945C329.298,0.945 333.445,0.251 336.982,-1.139C340.52,-2.528 343.263,-4.583 345.211,-7.305C347.159,-10.026 348.133,-13.263 348.133,-17.016C348.133,-19.393 347.782,-21.492 347.08,-23.311C346.378,-25.13 345.304,-26.698 343.857,-28.016C342.411,-29.333 340.792,-30.451 339.002,-31.367C337.212,-32.284 335.013,-33.172 332.406,-34.031L319.387,-38.242C316.866,-39.044 315.018,-40.076 313.844,-41.336C312.669,-42.596 312.082,-44.272 312.082,-46.363C312.082,-49.285 313.335,-51.462 315.842,-52.895C318.348,-54.327 321.678,-55.043 325.832,-55.043C331.017,-55.043 336.044,-53.582 340.914,-50.66C341.573,-50.259 342.232,-50.059 342.891,-50.059C343.922,-50.059 344.796,-50.467 345.512,-51.283C346.228,-52.1 346.586,-53.009 346.586,-54.012C346.586,-54.986 346.228,-55.773 345.512,-56.375C343.507,-58.122 340.628,-59.633 336.875,-60.908C333.122,-62.183 329.198,-62.82 325.102,-62.82C320.862,-62.82 317.059,-62.169 313.693,-60.865C310.327,-59.562 307.649,-57.621 305.658,-55.043C303.667,-52.465 302.672,-49.457 302.672,-46.02C302.672,-41.866 303.775,-38.579 305.98,-36.158C308.186,-33.738 311.609,-31.754 316.25,-30.207L329.313,-25.867C332.664,-24.75 335.049,-23.504 336.467,-22.129C337.885,-20.754 338.594,-18.734 338.594,-16.07C338.594,-13.063 337.312,-10.771 334.748,-9.195C332.184,-7.62 328.868,-6.832 324.801,-6.832C318.527,-6.832 312.813,-8.694 307.656,-12.418C307.484,-12.533 307.313,-12.618 307.141,-12.676C306.969,-12.733 306.783,-12.762 306.582,-12.762C305.608,-12.762 304.648,-12.189 303.703,-11.043C302.758,-9.897 302.285,-8.794 302.285,-7.734C302.285,-7.448 302.328,-7.183 302.414,-6.939C302.5,-6.696 302.643,-6.488 302.844,-6.316C308.286,-1.475 315.52,0.945 324.543,0.945Z" style="fill:rgb(113,117,126);fill-rule:nonzero;"/>
            <path d="M365.02,0L397.504,0C398.707,0 399.638,-0.387 400.297,-1.16C400.956,-1.934 401.285,-2.822 401.285,-3.824C401.285,-4.855 400.956,-5.765 400.297,-6.553C399.638,-7.34 398.707,-7.734 397.504,-7.734L369.961,-7.734L369.961,-27.801L394.926,-27.801C396.129,-27.801 397.067,-28.18 397.74,-28.939C398.413,-29.699 398.75,-30.579 398.75,-31.582C398.75,-32.613 398.421,-33.501 397.762,-34.246C397.103,-34.991 396.158,-35.363 394.926,-35.363L369.961,-35.363L369.961,-53.797L396.473,-53.797C397.647,-53.797 398.564,-54.191 399.223,-54.979C399.882,-55.766 400.211,-56.676 400.211,-57.707C400.211,-58.738 399.882,-59.641 399.223,-60.414C398.564,-61.188 397.647,-61.574 396.473,-61.574L364.848,-61.574C363.559,-61.574 362.463,-61.102 361.561,-60.156C360.658,-59.211 360.207,-58.108 360.207,-56.848L360.207,-4.727C360.207,-3.495 360.701,-2.399 361.689,-1.439C362.678,-0.48 363.788,0 365.02,0Z" style="fill:rgb(113,117,126);fill-rule:nonzero;"/>
            <path d="M440,0.945C446.674,0.945 452.475,-0.616 457.402,-3.738C458.863,-4.684 459.594,-5.887 459.594,-7.348C459.594,-8.35 459.25,-9.231 458.563,-9.99C457.875,-10.749 457.044,-11.129 456.07,-11.129C455.497,-11.129 454.924,-10.971 454.352,-10.656C452.862,-9.854 451.623,-9.224 450.635,-8.766C449.646,-8.307 448.329,-7.87 446.682,-7.455C445.035,-7.04 443.352,-6.832 441.633,-6.832C438.281,-6.832 435.316,-7.426 432.738,-8.615C430.16,-9.804 428.069,-11.48 426.465,-13.643C424.861,-15.805 423.658,-18.333 422.855,-21.227C422.053,-24.12 421.652,-27.328 421.652,-30.852C421.652,-34.375 422.053,-37.59 422.855,-40.498C423.658,-43.406 424.846,-45.948 426.422,-48.125C427.997,-50.302 430.046,-51.999 432.566,-53.217C435.087,-54.434 437.98,-55.043 441.246,-55.043C442.535,-55.043 443.753,-54.971 444.898,-54.828C446.044,-54.685 447.09,-54.463 448.035,-54.162C448.98,-53.861 449.725,-53.611 450.27,-53.41C450.814,-53.21 451.473,-52.916 452.246,-52.529C453.02,-52.143 453.464,-51.921 453.578,-51.863C453.807,-51.749 454.044,-51.67 454.287,-51.627C454.531,-51.584 454.767,-51.563 454.996,-51.563C455.655,-51.563 456.278,-51.749 456.865,-52.121C457.452,-52.493 457.918,-52.988 458.262,-53.604C458.605,-54.219 458.777,-54.857 458.777,-55.516C458.777,-56.174 458.591,-56.798 458.219,-57.385C457.846,-57.972 457.273,-58.466 456.5,-58.867C451.602,-61.503 446.402,-62.82 440.902,-62.82C435.03,-62.82 429.838,-61.438 425.326,-58.674C420.814,-55.91 417.355,-52.107 414.949,-47.266C412.543,-42.424 411.34,-36.91 411.34,-30.723C411.34,-24.678 412.486,-19.264 414.777,-14.48C417.069,-9.697 420.406,-5.93 424.789,-3.18C429.172,-0.43 434.242,0.945 440,0.945Z" style="fill:rgb(113,117,126);fill-rule:nonzero;"/>
            <path d="M496.719,0.945C500.099,0.945 503.257,0.48 506.193,-0.451C509.13,-1.382 511.743,-2.743 514.035,-4.533C516.327,-6.324 518.139,-8.665 519.471,-11.559C520.803,-14.452 521.469,-17.732 521.469,-21.398L521.469,-57.063C521.469,-58.552 520.989,-59.705 520.029,-60.521C519.07,-61.338 517.931,-61.746 516.613,-61.746C515.267,-61.746 514.107,-61.331 513.133,-60.5C512.159,-59.669 511.672,-58.523 511.672,-57.063L511.672,-21.656C511.672,-19.651 511.393,-17.818 510.834,-16.156C510.275,-14.495 509.516,-13.098 508.557,-11.967C507.597,-10.835 506.48,-9.876 505.205,-9.088C503.93,-8.3 502.577,-7.727 501.145,-7.369C499.712,-7.011 498.237,-6.832 496.719,-6.832C494.799,-6.832 492.973,-7.126 491.24,-7.713C489.507,-8.3 487.932,-9.174 486.514,-10.334C485.096,-11.494 483.964,-13.048 483.119,-14.996C482.274,-16.944 481.852,-19.164 481.852,-21.656L481.852,-57.063C481.852,-58.552 481.365,-59.705 480.391,-60.521C479.417,-61.338 478.271,-61.746 476.953,-61.746C475.607,-61.746 474.454,-61.331 473.494,-60.5C472.535,-59.669 472.055,-58.523 472.055,-57.063L472.055,-21.398C472.055,-18.448 472.492,-15.748 473.365,-13.299C474.239,-10.85 475.435,-8.751 476.953,-7.004C478.471,-5.257 480.269,-3.781 482.346,-2.578C484.423,-1.375 486.671,-0.487 489.092,0.086C491.512,0.659 494.055,0.945 496.719,0.945Z" style="fill:rgb(113,117,126);fill-rule:nonzero;"/>
            <path d="M541.406,-0.043C542.724,-0.043 543.87,-0.451 544.844,-1.268C545.818,-2.084 546.305,-3.223 546.305,-4.684L546.305,-27.629L559.926,-27.629C562.103,-27.629 563.857,-27.457 565.189,-27.113C566.521,-26.77 567.61,-26.118 568.455,-25.158C569.3,-24.199 569.916,-23.038 570.303,-21.678C570.689,-20.317 571.012,-18.448 571.27,-16.07L572.559,-4.34C572.702,-2.965 573.289,-1.905 574.32,-1.16C575.352,-0.415 576.512,-0.043 577.801,-0.043C579.033,-0.043 580.107,-0.444 581.023,-1.246C581.94,-2.048 582.398,-3.094 582.398,-4.383C582.398,-4.555 582.384,-4.741 582.355,-4.941L580.895,-17.703C580.007,-25.581 576.053,-30.264 569.035,-31.754L569.035,-31.926C573.475,-32.699 576.813,-34.339 579.047,-36.846C581.281,-39.352 582.398,-42.396 582.398,-45.977C582.398,-56.375 575.051,-61.574 560.355,-61.574L541.449,-61.574C540.103,-61.574 538.95,-61.109 537.99,-60.178C537.031,-59.247 536.551,-58.122 536.551,-56.805L536.551,-4.684C536.551,-3.223 537.031,-2.084 537.99,-1.268C538.95,-0.451 540.089,-0.043 541.406,-0.043ZM546.305,-35.148L546.305,-53.84L559.152,-53.84C560.27,-53.84 561.158,-53.833 561.816,-53.818C562.475,-53.804 563.342,-53.732 564.416,-53.604C565.49,-53.475 566.357,-53.303 567.016,-53.088C567.674,-52.873 568.398,-52.551 569.186,-52.121C569.973,-51.691 570.589,-51.161 571.033,-50.531C571.477,-49.901 571.857,-49.113 572.172,-48.168C572.487,-47.223 572.645,-46.134 572.645,-44.902C572.645,-43.184 572.344,-41.715 571.742,-40.498C571.141,-39.281 570.396,-38.328 569.508,-37.641C568.62,-36.953 567.46,-36.416 566.027,-36.029C564.595,-35.643 563.256,-35.399 562.01,-35.299C560.764,-35.199 559.281,-35.148 557.563,-35.148L546.305,-35.148Z" style="fill:rgb(113,117,126);fill-rule:nonzero;"/>
            <path d="M601.648,-0.043C602.995,-0.043 604.155,-0.451 605.129,-1.268C606.103,-2.084 606.59,-3.237 606.59,-4.727L606.59,-56.891C606.59,-58.38 606.11,-59.54 605.15,-60.371C604.191,-61.202 603.052,-61.617 601.734,-61.617C600.388,-61.617 599.235,-61.202 598.275,-60.371C597.316,-59.54 596.836,-58.38 596.836,-56.891L596.836,-4.727C596.836,-3.266 597.309,-2.12 598.254,-1.289C599.199,-0.458 600.331,-0.043 601.648,-0.043Z" style="fill:rgb(113,117,126);fill-rule:nonzero;"/>
            <path d="M640.363,0.043C641.681,0.043 642.827,-0.38 643.801,-1.225C644.775,-2.07 645.262,-3.237 645.262,-4.727L645.262,-53.797L660.688,-53.797C661.891,-53.797 662.836,-54.184 663.523,-54.957C664.211,-55.73 664.555,-56.647 664.555,-57.707C664.555,-58.738 664.211,-59.641 663.523,-60.414C662.836,-61.188 661.891,-61.574 660.688,-61.574L619.91,-61.574C618.707,-61.574 617.762,-61.188 617.074,-60.414C616.387,-59.641 616.043,-58.724 616.043,-57.664C616.043,-56.633 616.387,-55.73 617.074,-54.957C617.762,-54.184 618.707,-53.797 619.91,-53.797L635.465,-53.797L635.465,-4.727C635.465,-3.237 635.952,-2.07 636.926,-1.225C637.9,-0.38 639.046,0.043 640.363,0.043Z" style="fill:rgb(113,117,126);fill-rule:nonzero;"/>
            <path d="M688.488,-4.727C688.488,-3.237 688.968,-2.084 689.928,-1.268C690.887,-0.451 692.026,-0.043 693.344,-0.043C694.203,-0.043 694.991,-0.208 695.707,-0.537C696.423,-0.867 697.025,-1.396 697.512,-2.127C697.999,-2.857 698.242,-3.724 698.242,-4.727L698.242,-25.738L717.406,-55.645C717.893,-56.418 718.137,-57.177 718.137,-57.922C718.137,-58.438 718.022,-58.924 717.793,-59.383C717.564,-59.841 717.256,-60.235 716.869,-60.564C716.482,-60.894 716.038,-61.152 715.537,-61.338C715.036,-61.524 714.527,-61.617 714.012,-61.617C712.408,-61.617 711.161,-60.887 710.273,-59.426L693.902,-33L677.789,-59.039C676.786,-60.643 675.426,-61.445 673.707,-61.445C673.363,-61.445 673.012,-61.41 672.654,-61.338C672.296,-61.266 671.96,-61.159 671.645,-61.016C671.329,-60.872 671.021,-60.701 670.721,-60.5C670.42,-60.299 670.155,-60.07 669.926,-59.813C669.697,-59.555 669.496,-59.283 669.324,-58.996C669.152,-58.71 669.016,-58.402 668.916,-58.072C668.816,-57.743 668.766,-57.406 668.766,-57.063C668.766,-56.891 668.78,-56.719 668.809,-56.547C668.837,-56.375 668.88,-56.203 668.938,-56.031C668.995,-55.859 669.066,-55.68 669.152,-55.494C669.238,-55.308 669.339,-55.129 669.453,-54.957L688.488,-25.395L688.488,-4.727Z" style="fill:rgb(113,117,126);fill-rule:nonzero;"/>
        </g>
    </g>
</svg>
