<?xml version="1.0" encoding="UTF-8"?>
<svg width="55px" height="42px" viewBox="0 0 55 42" version="1.1" xmlns="http://www.w3.org/2000/svg" xmlns:xlink="http://www.w3.org/1999/xlink">
    <!-- Generator: Sketch 52.4 (67378) - http://www.bohemiancoding.com/sketch -->
    <title>email</title>
    <desc>Created with Sketch.</desc>
    <g id="Page-1" stroke="none" stroke-width="1" fill="none" fill-rule="evenodd">
        <g id="Artboard-Copy" transform="translate(-312.000000, -415.000000)" fill-rule="nonzero">
            <g id="email" transform="translate(339.429812, 436.195408) rotate(9.000000) translate(-339.429812, -436.195408) translate(314.429812, 418.695408)">
                <path d="M45.9963287,34.8874126 L4.00367133,34.8874126 C1.86748252,34.8874126 0.136013986,33.1555944 0.136013986,31.0197552 L0.136013986,3.94527972 C0.136013986,1.80909091 1.86783217,0.0776223776 4.00367133,0.0776223776 L45.9965035,0.0776223776 C48.1326923,0.0776223776 49.8641608,1.80944056 49.8641608,3.94527972 L49.8641608,31.0195804 C49.863986,33.1555944 48.1323427,34.8874126 45.9963287,34.8874126 Z" id="Shape" fill="#666666"></path>
                <path d="M25,19.9688811 L49.863986,5.05052448 L49.863986,3.94527972 C49.863986,1.80909091 48.1321678,0.0776223776 45.9963287,0.0776223776 L4.00367133,0.0776223776 C1.86783217,0.0776223776 0.136013986,1.80944056 0.136013986,3.94527972 L0.136013986,5.05052448 L25,19.9688811 Z" id="Shape" fill="#979797"></path>
            </g>
        </g>
    </g>
</svg>