<?xml version="1.0" encoding="UTF-8"?>
<svg width="50px" height="41px" viewBox="0 0 50 41" version="1.1" xmlns="http://www.w3.org/2000/svg" xmlns:xlink="http://www.w3.org/1999/xlink">
    <!-- Generator: Sketch 52.4 (67378) - http://www.bohemiancoding.com/sketch -->
    <title>files</title>
    <desc>Created with Sketch.</desc>
    <g id="Page-1" stroke="none" stroke-width="1" fill="none" fill-rule="evenodd">
        <g id="Artboard-Copy" transform="translate(-389.000000, -457.000000)" fill-rule="nonzero">
            <g id="files" transform="translate(389.000000, 457.000000)">
                <path d="M39.9344828,40.9482759 L1.34913793,40.9482759 C0.461206897,40.9482759 -0.184482759,40.1051724 0.0474137931,39.2474138 L8.8112069,15.2206897 C8.96982759,14.6327586 9.50344828,14.2241379 10.112931,14.2241379 L48.6982759,14.2241379 C49.5862069,14.2241379 50,15.0724138 50,15.925 L41.2362069,39.9517241 C41.0775862,40.5396552 40.5439655,40.9482759 39.9344828,40.9482759 Z" id="Shape" fill="#666666"></path>
                <path d="M8.8112069,15.2206897 C8.96982759,14.6318966 9.50344828,14.2241379 10.112931,14.2241379 L45.6896552,14.2241379 L45.6896552,6.46551724 L4.98453981,6.46551724 L4.98453981,25.8447527 L8.8112069,15.2206897 Z" id="Shape" fill="#979797"></path>
                <path d="M5.17231119,6.46551724 L21.5517241,6.46551724 L17.2413793,0.431034483 L1.49310345,0.431034483 C0.668965517,0.431034483 0,1.09913793 0,1.92413793 L0,38.7586207 C0.0594827586,38.7603448 0.118965517,38.7637931 0.176724138,38.7672414 L5.17231119,25.5238248 L5.17231119,6.46551724 Z" id="Shape" fill="#666666"></path>
            </g>
        </g>
    </g>
</svg>