<?xml version="1.0" encoding="UTF-8"?>
<svg width="202px" height="142px" viewBox="0 0 202 142" version="1.1" xmlns="http://www.w3.org/2000/svg" xmlns:xlink="http://www.w3.org/1999/xlink">
    <!-- Generator: Sketch 52.5 (67469) - http://www.bohemiancoding.com/sketch -->
    <title>Good_Content</title>
    <desc>Created with Sketch.</desc>
    <g id="Page-1" stroke="none" stroke-width="1" fill="none" fill-rule="evenodd">
        <g id="Artboard-Copy-48" transform="translate(-565.000000, -686.000000)">
            <g id="Good_Content" transform="translate(565.000000, 686.000000)">
                <path d="M14.5419277,62.667085 C14.5419277,62.6713594 14.5462048,62.6713594 14.5462048,62.6713594 L14.5419277,19.4015346 L50.9480715,53.3403284 L33.9981716,72.6862957 C34.0195568,72.7076677 34.040942,72.7290397 34.0623272,72.7461374 L14.5419277,94.9260367 L14.5419277,62.667085 Z M146.300347,14.5372591 L95.4420934,61.4360557 C95.2111334,61.6455017 90.8956024,65.6036028 83.4834963,65.6805422 C76.0713902,65.6036028 71.7558593,61.6455017 71.5248993,61.4360557 L20.6709226,14.5372591 L146.300347,14.5372591 Z M123.234284,101.71807 L120.484148,101.71807 L120.484148,101.696698 L83.6118075,101.705247 L46.7394666,101.696698 C46.7394666,101.700972 46.7351895,101.709521 46.7351895,101.71807 L18.2415652,101.726619 L56.3713552,58.4012266 L65.3274718,66.7534184 C65.7680067,67.1338406 72.8293957,72.9513089 83.2781985,72.9513089 C83.3466311,72.9513089 83.4107867,72.9427601 83.4834963,72.9427601 C83.5519289,72.9427601 83.6203615,72.9513089 83.6887941,72.9513089 C94.1375969,72.9513089 101.198986,67.1338406 101.639521,66.7534184 L110.595637,58.4012266 L123.234284,72.7589606 L123.234284,69.1556353 C123.234284,67.2150544 124.564442,65.6377981 126.335136,65.1163204 L116.023198,53.3403284 L152.681687,19.1621678 L152.673133,62.6713594 L152.67741,64.881228 L167.219338,64.881228 L167.219338,62.6713594 L167.219338,14.5500824 L167.219338,14.5201615 C167.219338,14.4902407 167.215061,14.4688686 167.215061,14.4432222 C167.168013,6.4671782 161.659189,0 153.661129,0 L151.548272,0 L15.6753427,0 L13.5582091,0 C5.56442588,0 0.0556014884,6.4671782 0.00855407514,14.4432222 C0.00855407514,14.4688686 0,14.4902407 0,14.5201615 L0,14.5500824 L0,62.6713594 L0,101.726619 C0,109.745407 6.51392822,116.255329 14.5419277,116.255329 L83.6118075,116.238231 L123.234284,116.24678 L123.234284,101.71807 Z" id="Fill-27" fill="#979797"></path>
                <g id="Status_Good" transform="translate(132.076923, 73.218750)">
                    <path d="M65.3383464,2.84217094e-14 L3.73724623,2.84217094e-14 C1.67353416,2.84217094e-14 0,1.65834022 0,3.71374781 L0,64.9835796 C0,67.0343158 1.67353416,68.7066702 3.73724623,68.7066702 L65.3383464,68.7066702 C67.3973576,68.7066702 69.0708917,67.0343158 69.0708917,64.9835796 L69.0708917,3.71374781 C69.0708917,1.65834022 67.3973576,2.84217094e-14 65.3383464,2.84217094e-14" id="Good" fill="#99CC00"></path>
                    <polygon id="Path-7" fill="#FFFFFF" fill-rule="nonzero" transform="translate(35.118352, 29.837854) rotate(-315.000000) translate(-35.118352, -29.837854) " points="39.1290024 41.3694591 39.1659453 10.2713757 47.2146545 10.2618143 47.168178 49.3852095 23.0220502 49.4138939 23.0315839 41.388582"></polygon>
                </g>
            </g>
        </g>
    </g>
</svg>