<?xml version="1.0" encoding="UTF-8"?>
<svg width="188px" height="243px" viewBox="0 0 188 243" version="1.1" xmlns="http://www.w3.org/2000/svg" xmlns:xlink="http://www.w3.org/1999/xlink">
    <!-- Generator: Sketch 52.5 (67469) - http://www.bohemiancoding.com/sketch -->
    <title>Group 2</title>
    <desc>Created with Sketch.</desc>
    <g id="Page-1" stroke="none" stroke-width="1" fill="none" fill-rule="evenodd">
        <g id="Artboard-Copy-45" transform="translate(-684.000000, -850.000000)">
            <g id="Group-2" transform="translate(684.000000, 850.000000)">
                <rect id="Rectangle" fill="#FF8D20" fill-rule="nonzero" x="0" y="0" width="188" height="243" rx="16"></rect>
                <g id="Group" transform="translate(0.000000, 16.000000)">
                    <rect id="Rectangle" fill="#656565" fill-rule="nonzero" x="0" y="49" width="188" height="132"></rect>
                    <path d="M20.212,210.12 C19.9079985,210.12 19.6640009,210.028001 19.48,209.844 C19.2959991,209.659999 19.204,209.416002 19.204,209.112 L19.204,194.76 L14.044,194.76 C13.7559986,194.76 13.5320008,194.688001 13.372,194.544 C13.2119992,194.399999 13.132,194.192001 13.132,193.92 C13.132,193.647999 13.2119992,193.440001 13.372,193.296 C13.5320008,193.151999 13.7559986,193.08 14.044,193.08 L26.356,193.08 C26.6440014,193.08 26.8679992,193.151999 27.028,193.296 C27.1880008,193.440001 27.268,193.647999 27.268,193.92 C27.268,194.192001 27.1880008,194.399999 27.028,194.544 C26.8679992,194.688001 26.6440014,194.76 26.356,194.76 L21.196,194.76 L21.196,209.112 C21.196,209.416002 21.1080009,209.659999 20.932,209.844 C20.7559991,210.028001 20.5160015,210.12 20.212,210.12 Z M30.484,210 C30.1799985,210 29.9360009,209.912001 29.752,209.736 C29.5679991,209.559999 29.476,209.328001 29.476,209.04 L29.476,194.04 C29.476,193.751999 29.5679991,193.520001 29.752,193.344 C29.9360009,193.167999 30.1799985,193.08 30.484,193.08 L39.46,193.08 C39.7480014,193.08 39.9719992,193.151999 40.132,193.296 C40.2920008,193.440001 40.372,193.639999 40.372,193.896 C40.372,194.152001 40.2920008,194.351999 40.132,194.496 C39.9719992,194.640001 39.7480014,194.712 39.46,194.712 L31.42,194.712 L31.42,200.592 L38.98,200.592 C39.2680014,200.592 39.4919992,200.663999 39.652,200.808 C39.8120008,200.952001 39.892,201.151999 39.892,201.408 C39.892,201.664001 39.8120008,201.863999 39.652,202.008 C39.4919992,202.152001 39.2680014,202.224 38.98,202.224 L31.42,202.224 L31.42,208.368 L39.46,208.368 C39.7480014,208.368 39.9719992,208.435999 40.132,208.572 C40.2920008,208.708001 40.372,208.911999 40.372,209.184 C40.372,209.440001 40.2920008,209.639999 40.132,209.784 C39.9719992,209.928001 39.7480014,210 39.46,210 L30.484,210 Z M50.62,210.192 C49.019992,210.192 47.6360058,209.844003 46.468,209.148 C45.2999942,208.451997 44.4000032,207.452007 43.768,206.148 C43.1359968,204.843993 42.82,203.304009 42.82,201.528 C42.82,199.767991 43.1359968,198.236007 43.768,196.932 C44.4000032,195.627993 45.2999942,194.628003 46.468,193.932 C47.6360058,193.235997 49.019992,192.888 50.62,192.888 C51.6920054,192.888 52.7039952,193.059998 53.656,193.404 C54.6080048,193.748002 55.4359965,194.239997 56.14,194.88 C56.3960013,195.120001 56.524,195.399998 56.524,195.72 C56.524,195.944001 56.4600006,196.139999 56.332,196.308 C56.2039994,196.476001 56.0520009,196.56 55.876,196.56 C55.683999,196.56 55.4520014,196.472001 55.18,196.296 C54.3639959,195.655997 53.6240033,195.208001 52.96,194.952 C52.2959967,194.695999 51.5320043,194.568 50.668,194.568 C48.8119907,194.568 47.384005,195.171994 46.384,196.38 C45.383995,197.588006 44.884,199.303989 44.884,201.528 C44.884,203.768011 45.383995,205.491994 46.384,206.7 C47.384005,207.908006 48.8119907,208.512 50.668,208.512 C51.5160042,208.512 52.2759966,208.384001 52.948,208.128 C53.6200034,207.871999 54.3639959,207.424003 55.18,206.784 C55.4520014,206.607999 55.683999,206.52 55.876,206.52 C56.0520009,206.52 56.2039994,206.599999 56.332,206.76 C56.4600006,206.920001 56.524,207.119999 56.524,207.36 C56.524,207.680002 56.3960013,207.959999 56.14,208.2 C55.4359965,208.840003 54.6080048,209.331998 53.656,209.676 C52.7039952,210.020002 51.6920054,210.192 50.62,210.192 Z M72.748,192.96 C73.0520015,192.96 73.2879992,193.051999 73.456,193.236 C73.6240008,193.420001 73.708,193.663998 73.708,193.968 L73.708,209.112 C73.708,209.416002 73.6240008,209.659999 73.456,209.844 C73.2879992,210.028001 73.0520015,210.12 72.748,210.12 C72.4439985,210.12 72.2040009,210.028001 72.028,209.844 C71.8519991,209.659999 71.764,209.416002 71.764,209.112 L71.764,202.248 L61.636,202.248 L61.636,209.112 C61.636,209.416002 61.5480009,209.659999 61.372,209.844 C61.1959991,210.028001 60.9560015,210.12 60.652,210.12 C60.3479985,210.12 60.1120008,210.028001 59.944,209.844 C59.7759992,209.659999 59.692,209.416002 59.692,209.112 L59.692,193.968 C59.692,193.663998 59.7759992,193.420001 59.944,193.236 C60.1120008,193.051999 60.3479985,192.96 60.652,192.96 C60.9560015,192.96 61.1959991,193.051999 61.372,193.236 C61.5480009,193.420001 61.636,193.663998 61.636,193.968 L61.636,200.568 L71.764,200.568 L71.764,193.968 C71.764,193.663998 71.8519991,193.420001 72.028,193.236 C72.2040009,193.051999 72.4439985,192.96 72.748,192.96 Z M90.532,192.96 C90.8200014,192.96 91.0439992,193.051999 91.204,193.236 C91.3640008,193.420001 91.444,193.663998 91.444,193.968 L91.444,209.112 C91.444,209.416002 91.3600008,209.659999 91.192,209.844 C91.0239992,210.028001 90.7880015,210.12 90.484,210.12 C90.1799985,210.12 89.9160011,209.984001 89.692,209.712 L79.732,196.392 L79.732,209.112 C79.732,209.416002 79.6480008,209.659999 79.48,209.844 C79.3119992,210.028001 79.0840014,210.12 78.796,210.12 C78.5079986,210.12 78.2840008,210.028001 78.124,209.844 C77.9639992,209.659999 77.884,209.416002 77.884,209.112 L77.884,193.968 C77.884,193.663998 77.9679992,193.420001 78.136,193.236 C78.3040008,193.051999 78.5399985,192.96 78.844,192.96 C79.1640016,192.96 79.4359989,193.095999 79.66,193.368 L89.596,206.688 L89.596,193.968 C89.596,193.663998 89.6799992,193.420001 89.848,193.236 C90.0160008,193.051999 90.2439986,192.96 90.532,192.96 Z M102.7,210.192 C101.131992,210.192 99.7680058,209.840004 98.608,209.136 C97.4479942,208.431996 96.5560031,207.432006 95.932,206.136 C95.3079969,204.839994 94.996,203.312009 94.996,201.552 C94.996,199.775991 95.3039969,198.236007 95.92,196.932 C96.5360031,195.627993 97.4239942,194.628003 98.584,193.932 C99.7440058,193.235997 101.115992,192.888 102.7,192.888 C104.284008,192.888 105.655994,193.235997 106.816,193.932 C107.976006,194.628003 108.863997,195.627993 109.48,196.932 C110.096003,198.236007 110.404,199.767991 110.404,201.528 C110.404,203.288009 110.092003,204.819993 109.468,206.124 C108.843997,207.428007 107.952006,208.431996 106.792,209.136 C105.631994,209.840004 104.268008,210.192 102.7,210.192 Z M102.7,208.512 C104.492009,208.512 105.887995,207.908006 106.888,206.7 C107.888005,205.491994 108.388,203.768011 108.388,201.528 C108.388,199.287989 107.892005,197.568006 106.9,196.368 C105.907995,195.167994 104.508009,194.568 102.7,194.568 C100.907991,194.568 99.512005,195.171994 98.512,196.38 C97.511995,197.588006 97.012,199.303989 97.012,201.528 C97.012,203.752011 97.511995,205.471994 98.512,206.688 C99.512005,207.904006 100.907991,208.512 102.7,208.512 Z M114.916,210 C114.643999,210 114.416001,209.916001 114.232,209.748 C114.047999,209.579999 113.956,209.360001 113.956,209.088 L113.956,193.968 C113.956,193.663998 114.043999,193.420001 114.22,193.236 C114.396001,193.051999 114.635998,192.96 114.94,192.96 C115.244002,192.96 115.483999,193.051999 115.66,193.236 C115.836001,193.420001 115.924,193.663998 115.924,193.968 L115.924,208.32 L123.676,208.32 C123.964001,208.32 124.187999,208.391999 124.348,208.536 C124.508001,208.680001 124.588,208.887999 124.588,209.16 C124.588,209.432001 124.508001,209.639999 124.348,209.784 C124.187999,209.928001 123.964001,210 123.676,210 L114.916,210 Z M133.996,210.192 C132.427992,210.192 131.064006,209.840004 129.904,209.136 C128.743994,208.431996 127.852003,207.432006 127.228,206.136 C126.603997,204.839994 126.292,203.312009 126.292,201.552 C126.292,199.775991 126.599997,198.236007 127.216,196.932 C127.832003,195.627993 128.719994,194.628003 129.88,193.932 C131.040006,193.235997 132.411992,192.888 133.996,192.888 C135.580008,192.888 136.951994,193.235997 138.112,193.932 C139.272006,194.628003 140.159997,195.627993 140.776,196.932 C141.392003,198.236007 141.7,199.767991 141.7,201.528 C141.7,203.288009 141.388003,204.819993 140.764,206.124 C140.139997,207.428007 139.248006,208.431996 138.088,209.136 C136.927994,209.840004 135.564008,210.192 133.996,210.192 Z M133.996,208.512 C135.788009,208.512 137.183995,207.908006 138.184,206.7 C139.184005,205.491994 139.684,203.768011 139.684,201.528 C139.684,199.287989 139.188005,197.568006 138.196,196.368 C137.203995,195.167994 135.804009,194.568 133.996,194.568 C132.203991,194.568 130.808005,195.171994 129.808,196.38 C128.807995,197.588006 128.308,199.303989 128.308,201.528 C128.308,203.752011 128.807995,205.471994 129.808,206.688 C130.808005,207.904006 132.203991,208.512 133.996,208.512 Z M157.828,201.192 C158.068001,201.192 158.263999,201.263999 158.416,201.408 C158.568001,201.552001 158.644,201.751999 158.644,202.008 L158.644,207.984 C158.644,208.368002 158.584001,208.655999 158.464,208.848 C158.343999,209.040001 158.124002,209.191999 157.804,209.304 C157.163997,209.576001 156.388005,209.791999 155.476,209.952 C154.563995,210.112001 153.652005,210.192 152.74,210.192 C151.059992,210.192 149.612006,209.848003 148.396,209.16 C147.179994,208.471997 146.248003,207.480006 145.6,206.184 C144.951997,204.887994 144.628,203.336009 144.628,201.528 C144.628,199.751991 144.947997,198.216006 145.588,196.92 C146.228003,195.623994 147.147994,194.628003 148.348,193.932 C149.548006,193.235997 150.955992,192.888 152.572,192.888 C153.692006,192.888 154.731995,193.059998 155.692,193.404 C156.652005,193.748002 157.459997,194.239997 158.116,194.88 C158.388001,195.152001 158.524,195.431999 158.524,195.72 C158.524,195.944001 158.460001,196.139999 158.332,196.308 C158.203999,196.476001 158.044001,196.56 157.852,196.56 C157.659999,196.56 157.436001,196.464001 157.18,196.272 C156.347996,195.631997 155.596003,195.188001 154.924,194.94 C154.251997,194.691999 153.476004,194.568 152.596,194.568 C150.69199,194.568 149.232005,195.167994 148.216,196.368 C147.199995,197.568006 146.692,199.287989 146.692,201.528 C146.692,203.816011 147.207995,205.555994 148.24,206.748 C149.272005,207.940006 150.78799,208.536 152.788,208.536 C154.276007,208.536 155.627994,208.312002 156.844,207.864 L156.844,202.728 L153.34,202.728 C153.067999,202.728 152.852001,202.656001 152.692,202.512 C152.531999,202.367999 152.452,202.184001 152.452,201.96 C152.452,201.719999 152.531999,201.532001 152.692,201.396 C152.852001,201.259999 153.067999,201.192 153.34,201.192 L157.828,201.192 Z M173.212,193.344 C173.404001,193.103999 173.635999,192.984 173.908,192.984 C174.132001,192.984 174.331999,193.071999 174.508,193.248 C174.684001,193.424001 174.772,193.639999 174.772,193.896 C174.772,194.136001 174.700001,194.335999 174.556,194.496 L168.724,201.864 L168.724,209.112 C168.724,209.432002 168.632001,209.679999 168.448,209.856 C168.263999,210.032001 168.028001,210.12 167.74,210.12 C167.451999,210.12 167.216001,210.032001 167.032,209.856 C166.847999,209.679999 166.756,209.432002 166.756,209.112 L166.756,201.84 L160.924,194.496 C160.763999,194.319999 160.684,194.120001 160.684,193.896 C160.684,193.639999 160.775999,193.424001 160.96,193.248 C161.144001,193.071999 161.355999,192.984 161.596,192.984 C161.868001,192.984 162.099999,193.103999 162.292,193.344 L167.764,200.328 L173.212,193.344 Z" id="TECHNOLOGY" fill="#FFFFFF"></path>
                    <path d="M67.5,2.12 C67.6280006,1.70399792 67.8519984,1.39200104 68.172,1.184 C68.4920016,0.97599896 68.8439981,0.872 69.228,0.872 C69.7400026,0.872 70.1799982,1.02399848 70.548,1.328 C70.9160018,1.63200152 71.1,2.03999744 71.1,2.552 C71.1,2.77600112 71.0520005,3.03199856 70.956,3.32 L60.108,33.896 C59.9479992,34.3440022 59.6760019,34.6879988 59.292,34.928 C58.9079981,35.1680012 58.4760024,35.288 57.996,35.288 C57.5479978,35.288 57.1320019,35.1680012 56.748,34.928 C56.3639981,34.6879988 56.0920008,34.3440022 55.932,33.896 L46.524,7.304 L37.02,33.896 C36.8599992,34.3440022 36.5880019,34.6879988 36.204,34.928 C35.8199981,35.1680012 35.4040022,35.288 34.956,35.288 C34.5079978,35.288 34.0920019,35.1680012 33.708,34.928 C33.3239981,34.6879988 33.0520008,34.3440022 32.892,33.896 L21.996,3.32 C21.8999995,3.06399872 21.852,2.82400112 21.852,2.6 C21.852,2.08799744 22.051998,1.6720016 22.452,1.352 C22.852002,1.0319984 23.3079974,0.872 23.82,0.872 C24.2040019,0.872 24.5639983,0.97599896 24.9,1.184 C25.2360017,1.39200104 25.4679994,1.70399792 25.596,2.12 L35.052,29.384 L44.652,2.408 C44.8120008,1.9279976 45.0679982,1.5680012 45.42,1.328 C45.7720018,1.0879988 46.1559979,0.968 46.572,0.968 C46.9880021,0.968 47.3719982,1.09599872 47.724,1.352 C48.0760018,1.60800128 48.3319992,1.9759976 48.492,2.456 L57.948,29.48 L67.5,2.12 Z M106.236,32.744 C106.364001,33.0000013 106.428,33.2719986 106.428,33.56 C106.428,34.0400024 106.244002,34.4399984 105.876,34.76 C105.507998,35.0800016 105.068003,35.24 104.556,35.24 C103.755996,35.24 103.196002,34.8560038 102.876,34.088 L99.468,26.312 L81.372,26.312 L77.916,34.088 C77.5959984,34.8560038 77.036004,35.24 76.236,35.24 C75.7239974,35.24 75.2760019,35.0720017 74.892,34.736 C74.5079981,34.3999983 74.316,33.9920024 74.316,33.512 C74.316,33.2559987 74.3799994,33.0000013 74.508,32.744 L88.236,2.216 C88.428001,1.76799776 88.7159981,1.43200112 89.1,1.208 C89.4840019,0.98399888 89.8999978,0.872 90.348,0.872 C90.8280024,0.872 91.2599981,0.9919988 91.644,1.232 C92.0280019,1.4720012 92.315999,1.79999792 92.508,2.216 L106.236,32.744 Z M82.812,23.048 L98.028,23.048 L90.396,5.816 L82.812,23.048 Z M136.812,1.928 C136.972001,1.57599824 137.203998,1.30400096 137.508,1.112 C137.812002,0.91999904 138.139998,0.824 138.492,0.824 C139.004003,0.824 139.459998,0.99199832 139.86,1.328 C140.260002,1.66400168 140.46,2.0719976 140.46,2.552 C140.46,2.80800128 140.396001,3.06399872 140.268,3.32 L126.492,33.944 C126.299999,34.3600021 126.012002,34.6799989 125.628,34.904 C125.243998,35.1280011 124.828002,35.24 124.38,35.24 C123.931998,35.24 123.516002,35.1280011 123.132,34.904 C122.747998,34.6799989 122.460001,34.3600021 122.268,33.944 L108.54,3.32 C108.444,3.06399872 108.396,2.82400112 108.396,2.6 C108.396,2.08799744 108.603998,1.66400168 109.02,1.328 C109.436002,0.99199832 109.899997,0.824 110.412,0.824 C111.180004,0.824 111.739998,1.19199632 112.092,1.928 L124.476,29.912 L136.812,1.928 Z M147.18,35 C146.571997,35 146.084002,34.8240018 145.716,34.472 C145.347998,34.1199982 145.164,33.6560029 145.164,33.08 L145.164,3.08 C145.164,2.50399712 145.347998,2.04000176 145.716,1.688 C146.084002,1.33599824 146.571997,1.16 147.18,1.16 L165.132,1.16 C165.708003,1.16 166.155998,1.30399856 166.476,1.592 C166.796002,1.88000144 166.956,2.27999744 166.956,2.792 C166.956,3.30400256 166.796002,3.70399856 166.476,3.992 C166.155998,4.28000144 165.708003,4.424 165.132,4.424 L149.052,4.424 L149.052,16.184 L164.172,16.184 C164.748003,16.184 165.195998,16.3279986 165.516,16.616 C165.836002,16.9040014 165.996,17.3039974 165.996,17.816 C165.996,18.3280026 165.836002,18.7279986 165.516,19.016 C165.195998,19.3040014 164.748003,19.448 164.172,19.448 L149.052,19.448 L149.052,31.736 L165.132,31.736 C165.708003,31.736 166.155998,31.8719986 166.476,32.144 C166.796002,32.4160014 166.956,32.8239973 166.956,33.368 C166.956,33.8800026 166.796002,34.2799986 166.476,34.568 C166.155998,34.8560014 165.708003,35 165.132,35 L147.18,35 Z" id="WAVE-Copy" fill="#FFFFFF"></path>
                    <path d="M125.284,155.788 C127.060009,155.788 128.441328,156.231996 129.428,157.12 C130.414672,158.008004 130.908,159.241325 130.908,160.82 C130.908,164.273351 129.033352,166 125.284,166 L67.268,166 C65.5906583,166 64.2093388,165.482005 63.124,164.446 C62.0386612,163.409995 61.496,162.152007 61.496,160.672 C61.496,158.797324 62.1866598,157.16934 63.568,155.788 L99.236,116.568 C104.169358,111.042639 107.745989,106.084689 109.966,101.694 C112.186011,97.3033114 113.296,92.8880222 113.296,88.448 C113.296,82.7253047 111.64335,78.334682 108.338,75.276 C105.03265,72.217318 100.370697,70.688 94.352,70.688 C89.6159763,70.688 85.077355,71.5513247 80.736,73.278 C76.394645,75.0046753 72.053355,77.6439822 67.712,81.196 C66.2319926,82.3800059 64.8506731,82.972 63.568,82.972 C62.4826612,82.972 61.5453373,82.4540052 60.756,81.418 C59.9666627,80.3819948 59.572,79.1240074 59.572,77.644 C59.572,75.5719896 60.3613254,73.8946731 61.94,72.612 C65.9853536,68.8626479 70.9186376,65.9026775 76.74,63.732 C82.5613624,61.5613225 88.5306361,60.476 94.648,60.476 C104.02138,60.476 111.495305,62.942642 117.07,67.876 C122.644695,72.809358 125.432,79.4692914 125.432,87.856 C125.432,93.8746968 124.075347,99.646639 121.362,105.172 C118.648653,110.697361 114.184031,116.863966 107.968,123.672 L78.368,155.788 L125.284,155.788 Z" id="2" fill="#FFFFFF"></path>
                </g>
            </g>
        </g>
    </g>
</svg>