<?xml version="1.0" encoding="UTF-8"?>
<svg width="61px" height="58px" viewBox="0 0 61 58" version="1.1" xmlns="http://www.w3.org/2000/svg" xmlns:xlink="http://www.w3.org/1999/xlink">
    <!-- Generator: Sketch 52.4 (67378) - http://www.bohemiancoding.com/sketch -->
    <title>Group 10</title>
    <desc>Created with Sketch.</desc>
    <g id="Page-1" stroke="none" stroke-width="1" fill="none" fill-rule="evenodd">
        <g id="Artboard-Copy" transform="translate(-1622.000000, -400.000000)" fill-rule="nonzero">
            <g id="Group-10" transform="translate(1622.000000, 400.000000)">
                <path d="M58.3514212,9.65116279 L25.2764858,9.65116279 C24.1354005,9.65116279 23.2093023,8.81953488 23.2093023,7.79069767 C23.2093023,6.76186047 24.1354005,5.93023256 25.2764858,5.93023256 L58.3514212,5.93023256 C59.4925065,5.93023256 60.4186047,6.76186047 60.4186047,7.79069767 C60.4186047,8.81953488 59.4925065,9.65116279 58.3514212,9.65116279 Z" id="Shape" fill="#D7D7D7"></path>
                <path d="M7.088269,12.4418605 C6.55696743,12.4418605 6.02566585,12.2423306 5.62460552,11.8513326 L1.4899629,7.82042554 C0.681640272,7.03238321 0.681640272,5.75861658 1.4899629,4.97057426 C2.29828553,4.18253193 3.6048326,4.18253193 4.41315523,4.97057426 L7.23918346,7.72569922 L16.1307324,0.790523648 C17.0196806,0.0951921828 18.3241603,0.236273929 19.0353188,1.1049344 C19.7485447,1.97561032 19.6038322,3.24333059 18.7128167,3.93866205 L8.37621018,12.0004761 C7.9999577,12.2967478 7.54307969,12.4418605 7.088269,12.4418605 Z" id="Shape" fill="#99CC00"></path>
                <path d="M58.3514212,32.9069767 L25.2764858,32.9069767 C24.1354005,32.9069767 23.2093023,32.0753488 23.2093023,31.0465116 C23.2093023,30.0176744 24.1354005,29.1860465 25.2764858,29.1860465 L58.3514212,29.1860465 C59.4925065,29.1860465 60.4186047,30.0176744 60.4186047,31.0465116 C60.4186047,32.0753488 59.4925065,32.9069767 58.3514212,32.9069767 Z" id="Shape" fill="#D7D7D7"></path>
                <path d="M7.088269,34.7674419 C6.55696743,34.7674419 6.02566585,34.567912 5.62460552,34.176914 L1.4899629,30.1460069 C0.681640272,29.3579646 0.681640272,28.084198 1.4899629,27.2961557 C2.29828553,26.5081133 3.6048326,26.5081133 4.41315523,27.2961557 L7.23918346,30.0512806 L16.1307324,23.116105 C17.0196806,22.4207736 18.3241603,22.5618553 19.0353188,23.4305158 C19.7485447,24.3011917 19.6038322,25.568912 18.7128167,26.2642434 L8.37621018,34.3260575 C7.9999577,34.6223292 7.54307969,34.7674419 7.088269,34.7674419 Z" id="Shape" fill="#99CC00"></path>
                <path d="M58.3514212,55.2325581 L25.2764858,55.2325581 C24.1354005,55.2325581 23.2093023,54.4009302 23.2093023,53.372093 C23.2093023,52.3432558 24.1354005,51.5116279 25.2764858,51.5116279 L58.3514212,51.5116279 C59.4925065,51.5116279 60.4186047,52.3432558 60.4186047,53.372093 C60.4186047,54.4009302 59.4925065,55.2325581 58.3514212,55.2325581 Z" id="Shape" fill="#D7D7D7"></path>
                <path d="M7.088269,58.0232558 C6.55696743,58.0232558 6.02566585,57.8237259 5.62460552,57.4327279 L1.4899629,53.4018209 C0.681640272,52.6137786 0.681640272,51.3400119 1.4899629,50.5519696 C2.29828553,49.7639273 3.6048326,49.7639273 4.41315523,50.5519696 L7.23918346,53.3070946 L16.1307324,46.371919 C17.0196806,45.6765875 18.3241603,45.8176693 19.0353188,46.6863297 C19.7485447,47.5570057 19.6038322,48.8247259 18.7128167,49.5200574 L8.37621018,57.5818715 C7.9999577,57.8781432 7.54307969,58.0232558 7.088269,58.0232558 Z" id="Shape" fill="#99CC00"></path>
            </g>
        </g>
    </g>
</svg>