<?xml version="1.0" encoding="UTF-8"?>
<svg width="66px" height="65px" viewBox="0 0 66 65" version="1.1" xmlns="http://www.w3.org/2000/svg" xmlns:xlink="http://www.w3.org/1999/xlink">
    <!-- Generator: Sketch 52.5 (67469) - http://www.bohemiancoding.com/sketch -->
    <title>Group 6</title>
    <desc>Created with Sketch.</desc>
    <g id="Page-1" stroke="none" stroke-width="1" fill="none" fill-rule="evenodd">
        <g id="Artboard-Copy-55" transform="translate(-1668.000000, -350.000000)">
            <g id="Group-6" transform="translate(1669.000000, 351.000000)">
                <path d="M44.6296243,24.576172 C44.594585,23.8018362 44.594585,23.0626975 44.594585,22.3235587 C44.594585,21.7252083 44.1390745,21.2676463 43.543407,21.2676463 C39.1634987,21.2676463 35.8347684,20.0005513 33.0666664,17.2903759 C32.6461952,16.903208 32.0154884,16.903208 31.5950172,17.2903759 C28.8269152,20.0005513 25.4981849,21.2676463 21.1182766,21.2676463 C20.5226091,21.2676463 20.0670986,21.7252083 20.0670986,22.3235587 C20.0670986,23.0626975 20.0670986,23.8018362 20.0320594,24.576172 C19.8919023,31.9675593 19.6816667,42.1043191 31.9804491,46.3631661 L32.3308418,46.4335602 L32.6812345,46.3631661 C44.9449777,42.1043191 44.7697813,32.0027564 44.6296243,24.576172 Z" id="Combined-Shape" fill="#777777" fill-rule="nonzero"></path>
                <circle id="Oval-3" stroke="#979797" stroke-width="3" cx="31.7186544" cy="31.4831804" r="30.8256881"></circle>
            </g>
        </g>
    </g>
</svg>