<?xml version="1.0" encoding="UTF-8"?>
<svg width="384px" height="231px" viewBox="0 0 384 231" version="1.1" xmlns="http://www.w3.org/2000/svg" xmlns:xlink="http://www.w3.org/1999/xlink">
    <!-- Generator: Sketch 52.5 (67469) - http://www.bohemiancoding.com/sketch -->
    <title>Group 70</title>
    <desc>Created with Sketch.</desc>
    <g id="Page-1" stroke="none" stroke-width="1" fill="none" fill-rule="evenodd">
        <g id="Artboard-Copy-67" transform="translate(-620.000000, -303.000000)">
            <g id="Group-70" transform="translate(620.000000, 303.000000)">
                <rect id="Rectangle" fill="#FF774B" fill-rule="nonzero" x="0" y="0" width="119" height="125" rx="14"></rect>
                <path d="M13.4163705,59.7389992 C4.85009912,36.482462 36.6098393,31.1737227 69.0971341,32.098569 C86.6041087,32.5974992 108,35.2579533 108,35.2579533 C108,35.2579533 57.450171,41.6908068 39.1836781,56.4214174 C21.3479341,70.8067318 55.7637054,93 55.7637054,93 C55.7637054,93 21.0663491,80.5145754 13.4163705,59.7389992 Z" id="Path" fill="#FFFFFF"></path>
                <path d="M5,156 L114,156 C116.761424,156 119,158.238576 119,161 L119,173 C119,175.761424 116.761424,178 114,178 L5,178 C2.23857625,178 3.38176876e-16,175.761424 0,173 L0,161 C-3.38176876e-16,158.238576 2.23857625,156 5,156 Z M152,156 L379,156 C381.761424,156 384,158.238576 384,161 L384,173 C384,175.761424 381.761424,178 379,178 L152,178 C149.238576,178 147,175.761424 147,173 L147,161 C147,158.238576 149.238576,156 152,156 Z M152,51 L379,51 C381.761424,51 384,53.2385763 384,56 L384,68 C384,70.7614237 381.761424,73 379,73 L152,73 C149.238576,73 147,70.7614237 147,68 L147,56 C147,53.2385763 149.238576,51 152,51 Z M5,209 L114,209 C116.761424,209 119,211.238576 119,214 L119,226 C119,228.761424 116.761424,231 114,231 L5,231 C2.23857625,231 3.38176876e-16,228.761424 0,226 L0,214 C-3.38176876e-16,211.238576 2.23857625,209 5,209 Z M152,209 L379,209 C381.761424,209 384,211.238576 384,214 L384,226 C384,228.761424 381.761424,231 379,231 L152,231 C149.238576,231 147,228.761424 147,226 L147,214 C147,211.238576 149.238576,209 152,209 Z M152,104 L379,104 C381.761424,104 384,106.238576 384,109 L384,121 C384,123.761424 381.761424,126 379,126 L152,126 C149.238576,126 147,123.761424 147,121 L147,109 C147,106.238576 149.238576,104 152,104 Z M152,0 L379,0 C381.761424,-5.07265313e-16 384,2.23857625 384,5 L384,17 C384,19.7614237 381.761424,22 379,22 L152,22 C149.238576,22 147,19.7614237 147,17 L147,5 C147,2.23857625 149.238576,5.07265313e-16 152,0 Z" id="Combined-Shape" fill="#808080" fill-rule="nonzero"></path>
            </g>
        </g>
    </g>
</svg>