<?xml version="1.0" encoding="UTF-8"?>
<svg width="1163px" height="100px" viewBox="0 0 1163 100" version="1.1" xmlns="http://www.w3.org/2000/svg" xmlns:xlink="http://www.w3.org/1999/xlink">
    <!-- Generator: Sketch 52.5 (67469) - http://www.bohemiancoding.com/sketch -->
    <title>Group 2 Copy</title>
    <desc>Created with Sketch.</desc>
    <g id="Page-1" stroke="none" stroke-width="1" fill="none" fill-rule="evenodd">
        <g id="Artboard-Copy-58" transform="translate(-410.000000, -590.000000)">
            <g id="Group-4-Copy" transform="translate(183.000000, 479.000000)">
                <g id="Group-2-Copy" transform="translate(227.000000, 111.000000)">
                    <rect id="Rectangle" fill="#FDA348" fill-rule="nonzero" x="0" y="0" width="1163" height="100" rx="10"></rect>
                    <path d="M356.785,57.27 C355.244992,57.27 353.790007,57.0650021 352.42,56.655 C351.049993,56.2449979 349.935004,55.6900035 349.075,54.99 C348.614998,54.6499983 348.385,54.1700031 348.385,53.55 C348.385,53.1299979 348.509999,52.7650016 348.76,52.455 C349.010001,52.1449985 349.304998,51.99 349.645,51.99 C350.005002,51.99 350.414998,52.1299986 350.875,52.41 C351.735004,53.0300031 352.634995,53.4799986 353.575,53.76 C354.515005,54.0400014 355.554994,54.18 356.695,54.18 C358.155007,54.18 359.274996,53.9250026 360.055,53.415 C360.835004,52.9049974 361.225,52.1600049 361.225,51.18 C361.225,50.4199962 360.860004,49.835002 360.13,49.425 C359.399996,49.014998 358.185008,48.6200019 356.485,48.24 C354.724991,47.8599981 353.295006,47.4200025 352.195,46.92 C351.094994,46.4199975 350.265003,45.7800039 349.705,45 C349.144997,44.2199961 348.865,43.230006 348.865,42.03 C348.865,40.7899938 349.214996,39.6800049 349.915,38.7 C350.615004,37.7199951 351.589994,36.9550028 352.84,36.405 C354.090006,35.8549972 355.494992,35.58 357.055,35.58 C359.915014,35.58 362.244991,36.3399924 364.045,37.86 C364.305001,38.0800011 364.489999,38.294999 364.6,38.505 C364.710001,38.715001 364.765,38.9799984 364.765,39.3 C364.765,39.7200021 364.640001,40.0849985 364.39,40.395 C364.139999,40.7050015 363.845002,40.86 363.505,40.86 C363.304999,40.86 363.120001,40.8300003 362.95,40.77 C362.779999,40.7099997 362.555001,40.6000008 362.275,40.44 C361.454996,39.839997 360.660004,39.3950014 359.89,39.105 C359.119996,38.8149985 358.175006,38.67 357.055,38.67 C355.694993,38.67 354.620004,38.9449973 353.83,39.495 C353.039996,40.0450028 352.645,40.8099951 352.645,41.79 C352.645,42.6100041 352.994997,43.2399978 353.695,43.68 C354.395004,44.1200022 355.584992,44.5299981 357.265,44.91 C359.045009,45.310002 360.489994,45.7549975 361.6,46.245 C362.710006,46.7350024 363.559997,47.3599962 364.15,48.12 C364.740003,48.8800038 365.035,49.8299943 365.035,50.97 C365.035,52.2100062 364.690003,53.3049952 364,54.255 C363.309997,55.2050048 362.340006,55.9449974 361.09,56.475 C359.839994,57.0050027 358.405008,57.27 356.785,57.27 Z M374.965,57.24 C373.464992,57.24 372.150006,56.9300031 371.02,56.31 C369.889994,55.6899969 369.015003,54.8000058 368.395,53.64 C367.774997,52.4799942 367.465,51.1300077 367.465,49.59 C367.465,48.0499923 367.774997,46.7050057 368.395,45.555 C369.015003,44.4049943 369.889994,43.5200031 371.02,42.9 C372.150006,42.2799969 373.464992,41.97 374.965,41.97 C376.465008,41.97 377.779994,42.2799969 378.91,42.9 C380.040006,43.5200031 380.909997,44.4049943 381.52,45.555 C382.130003,46.7050057 382.435,48.0499923 382.435,49.59 C382.435,51.1300077 382.130003,52.4799942 381.52,53.64 C380.909997,54.8000058 380.040006,55.6899969 378.91,56.31 C377.779994,56.9300031 376.465008,57.24 374.965,57.24 Z M374.935,54.33 C376.155006,54.33 377.084997,53.930004 377.725,53.13 C378.365003,52.329996 378.685,51.1500078 378.685,49.59 C378.685,48.0499923 378.365003,46.8750041 377.725,46.065 C377.084997,45.254996 376.165006,44.85 374.965,44.85 C373.764994,44.85 372.840003,45.254996 372.19,46.065 C371.539997,46.8750041 371.215,48.0499923 371.215,49.59 C371.215,51.1500078 371.534997,52.329996 372.175,53.13 C372.815003,53.930004 373.734994,54.33 374.935,54.33 Z M394.045,41.97 C395.805009,41.97 397.114996,42.469995 397.975,43.47 C398.835004,44.470005 399.265,45.9799899 399.265,48 L399.265,55.38 C399.265,55.9400028 399.100002,56.3799984 398.77,56.7 C398.439998,57.0200016 397.985003,57.18 397.405,57.18 C396.824997,57.18 396.365002,57.0200016 396.025,56.7 C395.684998,56.3799984 395.515,55.9400028 395.515,55.38 L395.515,48.21 C395.515,47.0699943 395.300002,46.2400026 394.87,45.72 C394.439998,45.1999974 393.765005,44.94 392.845,44.94 C391.764995,44.94 390.900003,45.2799966 390.25,45.96 C389.599997,46.6400034 389.275,47.5499943 389.275,48.69 L389.275,55.38 C389.275,55.9400028 389.105002,56.3799984 388.765,56.7 C388.424998,57.0200016 387.965003,57.18 387.385,57.18 C386.804997,57.18 386.350002,57.0200016 386.02,56.7 C385.689998,56.3799984 385.525,55.9400028 385.525,55.38 L385.525,43.77 C385.525,43.2499974 385.694998,42.8300016 386.035,42.51 C386.375002,42.1899984 386.834997,42.03 387.415,42.03 C387.935003,42.03 388.359998,42.1849985 388.69,42.495 C389.020002,42.8050016 389.185,43.2099975 389.185,43.71 L389.185,44.52 C389.685002,43.6999959 390.354996,43.0700022 391.195,42.63 C392.035004,42.1899978 392.984995,41.97 394.045,41.97 Z M404.935,57.18 C404.394997,57.18 403.950002,57.0250015 403.6,56.715 C403.249998,56.4049985 403.075,55.9600029 403.075,55.38 L403.075,43.8 C403.075,43.2199971 403.249998,42.7800015 403.6,42.48 C403.950002,42.1799985 404.394997,42.03 404.935,42.03 C405.475003,42.03 405.924998,42.1799985 406.285,42.48 C406.645002,42.7800015 406.825,43.2199971 406.825,43.8 L406.825,55.38 C406.825,55.9600029 406.645002,56.4049985 406.285,56.715 C405.924998,57.0250015 405.475003,57.18 404.935,57.18 Z M404.935,39.36 C404.254997,39.36 403.715002,39.1750019 403.315,38.805 C402.914998,38.4349981 402.715,37.950003 402.715,37.35 C402.715,36.749997 402.914998,36.2700018 403.315,35.91 C403.715002,35.5499982 404.254997,35.37 404.935,35.37 C405.595003,35.37 406.129998,35.5499982 406.54,35.91 C406.950002,36.2700018 407.155,36.749997 407.155,37.35 C407.155,37.950003 406.955002,38.4349981 406.555,38.805 C406.154998,39.1750019 405.615003,39.36 404.935,39.36 Z M417.205,57.24 C415.744993,57.24 414.460006,56.9300031 413.35,56.31 C412.239994,55.6899969 411.385003,54.8100057 410.785,53.67 C410.184997,52.5299943 409.885,51.2000076 409.885,49.68 C409.885,48.1599924 410.199997,46.8150058 410.83,45.645 C411.460003,44.4749942 412.344994,43.5700032 413.485,42.93 C414.625006,42.2899968 415.934993,41.97 417.415,41.97 C418.195004,41.97 418.979996,42.0799989 419.77,42.3 C420.560004,42.5200011 421.254997,42.8199981 421.855,43.2 C422.495003,43.6200021 422.815,44.1499968 422.815,44.79 C422.815,45.2300022 422.710001,45.5849987 422.5,45.855 C422.289999,46.1250013 422.015002,46.26 421.675,46.26 C421.454999,46.26 421.225001,46.2100005 420.985,46.11 C420.744999,46.0099995 420.505001,45.8900007 420.265,45.75 C419.824998,45.4899987 419.405002,45.2850007 419.005,45.135 C418.604998,44.9849993 418.145003,44.91 417.625,44.91 C416.384994,44.91 415.430003,45.3149959 414.76,46.125 C414.089997,46.9350041 413.755,48.0999924 413.755,49.62 C413.755,51.1200075 414.089997,52.274996 414.76,53.085 C415.430003,53.895004 416.384994,54.3 417.625,54.3 C418.125002,54.3 418.569998,54.2250007 418.96,54.075 C419.350002,53.9249992 419.784998,53.7200013 420.265,53.46 C420.565001,53.2799991 420.824999,53.1450004 421.045,53.055 C421.265001,52.9649996 421.484999,52.92 421.705,52.92 C422.025002,52.92 422.294999,53.0599986 422.515,53.34 C422.735001,53.6200014 422.845,53.9699979 422.845,54.39 C422.845,54.7300017 422.770001,55.0249988 422.62,55.275 C422.469999,55.5250013 422.225002,55.749999 421.885,55.95 C421.264997,56.350002 420.545004,56.6649989 419.725,56.895 C418.904996,57.1250012 418.065004,57.24 417.205,57.24 Z M445.165,43.14 C445.305001,42.7799982 445.509999,42.5100009 445.78,42.33 C446.050001,42.1499991 446.344998,42.06 446.665,42.06 C447.125002,42.06 447.539998,42.2149984 447.91,42.525 C448.280002,42.8350016 448.465,43.2199977 448.465,43.68 C448.465,43.9400013 448.415001,44.169999 448.315,44.37 L443.365,55.98 C443.204999,56.3600019 442.960002,56.649999 442.63,56.85 C442.299998,57.050001 441.935002,57.15 441.535,57.15 C441.154998,57.15 440.800002,57.050001 440.47,56.85 C440.139998,56.649999 439.895001,56.3600019 439.735,55.98 L436.165,47.4 L432.715,55.98 C432.554999,56.3600019 432.310002,56.649999 431.98,56.85 C431.649998,57.050001 431.285002,57.15 430.885,57.15 C430.504998,57.15 430.145002,57.050001 429.805,56.85 C429.464998,56.649999 429.215001,56.3600019 429.055,55.98 L424.135,44.37 C424.035,44.1099987 423.985,43.8900009 423.985,43.71 C423.985,43.2499977 424.184998,42.8550017 424.585,42.525 C424.985002,42.1949983 425.424998,42.03 425.905,42.03 C426.245002,42.03 426.554999,42.1199991 426.835,42.3 C427.115001,42.4800009 427.324999,42.7499982 427.465,43.11 L431.005,52.26 L434.635,43.2 C434.795001,42.8199981 435.024998,42.5350009 435.325,42.345 C435.625001,42.1549991 435.954998,42.06 436.315,42.06 C436.675002,42.06 437.004998,42.1549991 437.305,42.345 C437.605001,42.5350009 437.834999,42.8199981 437.995,43.2 L441.655,52.29 L445.165,43.14 Z M457.375,41.97 C459.41501,41.97 460.929995,42.4749949 461.92,43.485 C462.910005,44.4950051 463.405,46.0299897 463.405,48.09 L463.405,55.41 C463.405,55.9500027 463.245002,56.3749984 462.925,56.685 C462.604998,56.9950015 462.165003,57.15 461.605,57.15 C461.084997,57.15 460.660002,56.9900016 460.33,56.67 C459.999998,56.3499984 459.835,55.9300026 459.835,55.41 L459.835,54.75 C459.494998,55.5300039 458.960004,56.1399978 458.23,56.58 C457.499996,57.0200022 456.655005,57.24 455.695,57.24 C454.714995,57.24 453.825004,57.040002 453.025,56.64 C452.224996,56.239998 451.595002,55.6900035 451.135,54.99 C450.674998,54.2899965 450.445,53.5100043 450.445,52.65 C450.445,51.5699946 450.719997,50.7200031 451.27,50.1 C451.820003,49.4799969 452.714994,49.0300014 453.955,48.75 C455.195006,48.4699986 456.904989,48.33 459.085,48.33 L459.835,48.33 L459.835,47.64 C459.835,46.6599951 459.625002,45.9450023 459.205,45.495 C458.784998,45.0449978 458.105005,44.82 457.165,44.82 C456.584997,44.82 455.995003,44.9049992 455.395,45.075 C454.794997,45.2450008 454.085004,45.4899984 453.265,45.81 C452.744997,46.0700013 452.365001,46.2 452.125,46.2 C451.764998,46.2 451.470001,46.0700013 451.24,45.81 C451.009999,45.5499987 450.895,45.2100021 450.895,44.79 C450.895,44.4499983 450.979999,44.1550012 451.15,43.905 C451.320001,43.6549988 451.604998,43.4200011 452.005,43.2 C452.705003,42.8199981 453.539995,42.5200011 454.51,42.3 C455.480005,42.0799989 456.434995,41.97 457.375,41.97 Z M456.445,54.54 C457.445005,54.54 458.259997,54.2050033 458.89,53.535 C459.520003,52.8649967 459.835,52.0000053 459.835,50.94 L459.835,50.31 L459.295,50.31 C457.954993,50.31 456.915004,50.3699994 456.175,50.49 C455.434996,50.6100006 454.905002,50.8199985 454.585,51.12 C454.264998,51.4200015 454.105,51.8299974 454.105,52.35 C454.105,52.9900032 454.329998,53.514998 454.78,53.925 C455.230002,54.335002 455.784997,54.54 456.445,54.54 Z M469.075,57.18 C468.534997,57.18 468.090002,57.0250015 467.74,56.715 C467.389998,56.4049985 467.215,55.9600029 467.215,55.38 L467.215,37.47 C467.215,36.8899971 467.389998,36.4500015 467.74,36.15 C468.090002,35.8499985 468.534997,35.7 469.075,35.7 C469.615003,35.7 470.064998,35.8499985 470.425,36.15 C470.785002,36.4500015 470.965,36.8899971 470.965,37.47 L470.965,55.38 C470.965,55.9600029 470.785002,56.4049985 470.425,56.715 C470.064998,57.0250015 469.615003,57.18 469.075,57.18 Z M476.695,57.18 C476.154997,57.18 475.710002,57.0250015 475.36,56.715 C475.009998,56.4049985 474.835,55.9600029 474.835,55.38 L474.835,37.47 C474.835,36.8899971 475.009998,36.4500015 475.36,36.15 C475.710002,35.8499985 476.154997,35.7 476.695,35.7 C477.235003,35.7 477.684998,35.8499985 478.045,36.15 C478.405002,36.4500015 478.585,36.8899971 478.585,37.47 L478.585,55.38 C478.585,55.9600029 478.405002,56.4049985 478.045,56.715 C477.684998,57.0250015 477.235003,57.18 476.695,57.18 Z M500.365,57.27 C498.32499,57.27 496.540008,56.8300044 495.01,55.95 C493.479992,55.0699956 492.305004,53.8100082 491.485,52.17 C490.664996,50.5299918 490.255,48.610011 490.255,46.41 C490.255,44.209989 490.664996,42.2950082 491.485,40.665 C492.305004,39.0349918 493.479992,37.7800044 495.01,36.9 C496.540008,36.0199956 498.32499,35.58 500.365,35.58 C501.685007,35.58 502.924994,35.7749981 504.085,36.165 C505.245006,36.555002 506.274995,37.1199963 507.175,37.86 C507.435001,38.060001 507.615,38.2699989 507.715,38.49 C507.815,38.7100011 507.865,38.9799984 507.865,39.3 C507.865,39.7400022 507.745001,40.1099985 507.505,40.41 C507.264999,40.7100015 506.975002,40.86 506.635,40.86 C506.234998,40.86 505.825002,40.7200014 505.405,40.44 C504.544996,39.7999968 503.745004,39.3550013 503.005,39.105 C502.264996,38.8549988 501.445004,38.73 500.545,38.73 C498.46499,38.73 496.890005,39.3799935 495.82,40.68 C494.749995,41.9800065 494.215,43.8899874 494.215,46.41 C494.215,48.9500127 494.749995,50.8699935 495.82,52.17 C496.890005,53.4700065 498.46499,54.12 500.545,54.12 C501.405004,54.12 502.199996,53.9900013 502.93,53.73 C503.660004,53.4699987 504.484995,53.0300031 505.405,52.41 C505.605001,52.2899994 505.804999,52.1900004 506.005,52.11 C506.205001,52.0299996 506.414999,51.99 506.635,51.99 C506.975002,51.99 507.264999,52.1399985 507.505,52.44 C507.745001,52.7400015 507.865,53.1099978 507.865,53.55 C507.865,53.8500015 507.815,54.1149988 507.715,54.345 C507.615,54.5750011 507.435001,54.789999 507.175,54.99 C506.274995,55.7300037 505.245006,56.2949981 504.085,56.685 C502.924994,57.075002 501.685007,57.27 500.365,57.27 Z M517.285,41.97 C519.32501,41.97 520.839995,42.4749949 521.83,43.485 C522.820005,44.4950051 523.315,46.0299897 523.315,48.09 L523.315,55.41 C523.315,55.9500027 523.155002,56.3749984 522.835,56.685 C522.514998,56.9950015 522.075003,57.15 521.515,57.15 C520.994997,57.15 520.570002,56.9900016 520.24,56.67 C519.909998,56.3499984 519.745,55.9300026 519.745,55.41 L519.745,54.75 C519.404998,55.5300039 518.870004,56.1399978 518.14,56.58 C517.409996,57.0200022 516.565005,57.24 515.605,57.24 C514.624995,57.24 513.735004,57.040002 512.935,56.64 C512.134996,56.239998 511.505002,55.6900035 511.045,54.99 C510.584998,54.2899965 510.355,53.5100043 510.355,52.65 C510.355,51.5699946 510.629997,50.7200031 511.18,50.1 C511.730003,49.4799969 512.624994,49.0300014 513.865,48.75 C515.105006,48.4699986 516.814989,48.33 518.995,48.33 L519.745,48.33 L519.745,47.64 C519.745,46.6599951 519.535002,45.9450023 519.115,45.495 C518.694998,45.0449978 518.015005,44.82 517.075,44.82 C516.494997,44.82 515.905003,44.9049992 515.305,45.075 C514.704997,45.2450008 513.995004,45.4899984 513.175,45.81 C512.654997,46.0700013 512.275001,46.2 512.035,46.2 C511.674998,46.2 511.380001,46.0700013 511.15,45.81 C510.919999,45.5499987 510.805,45.2100021 510.805,44.79 C510.805,44.4499983 510.889999,44.1550012 511.06,43.905 C511.230001,43.6549988 511.514998,43.4200011 511.915,43.2 C512.615004,42.8199981 513.449995,42.5200011 514.42,42.3 C515.390005,42.0799989 516.344995,41.97 517.285,41.97 Z M516.355,54.54 C517.355005,54.54 518.169997,54.2050033 518.8,53.535 C519.430003,52.8649967 519.745,52.0000053 519.745,50.94 L519.745,50.31 L519.205,50.31 C517.864993,50.31 516.825004,50.3699994 516.085,50.49 C515.344996,50.6100006 514.815002,50.8199985 514.495,51.12 C514.174998,51.4200015 514.015,51.8299974 514.015,52.35 C514.015,52.9900032 514.239998,53.514998 514.69,53.925 C515.140002,54.335002 515.694997,54.54 516.355,54.54 Z M535.555,41.97 C536.815006,41.97 537.939995,42.2899968 538.93,42.93 C539.920005,43.5700032 540.689997,44.4749942 541.24,45.645 C541.790003,46.8150058 542.065,48.1599924 542.065,49.68 C542.065,51.2000076 541.790003,52.5299943 541.24,53.67 C540.689997,54.8100057 539.925005,55.6899969 538.945,56.31 C537.964995,56.9300031 536.835006,57.24 535.555,57.24 C534.514995,57.24 533.585004,57.0200022 532.765,56.58 C531.944996,56.1399978 531.315002,55.5300039 530.875,54.75 L530.875,60.87 C530.875,61.3900026 530.705002,61.7999985 530.365,62.1 C530.024998,62.4000015 529.575003,62.55 529.015,62.55 C528.454997,62.55 528.000002,62.3900016 527.65,62.07 C527.299998,61.7499984 527.125,61.3300026 527.125,60.81 L527.125,43.8 C527.125,43.2599973 527.289998,42.8300016 527.62,42.51 C527.950002,42.1899984 528.394997,42.03 528.955,42.03 C529.515003,42.03 529.964998,42.1899984 530.305,42.51 C530.645002,42.8300016 530.815,43.2599973 530.815,43.8 L530.815,44.55 C531.255002,43.7299959 531.889996,43.0950023 532.72,42.645 C533.550004,42.1949977 534.494995,41.97 535.555,41.97 Z M534.565,54.33 C535.745006,54.33 536.664997,53.925004 537.325,53.115 C537.985003,52.3049959 538.315,51.1600074 538.315,49.68 C538.315,48.1599924 537.985003,46.9800042 537.325,46.14 C536.664997,45.2999958 535.745006,44.88 534.565,44.88 C533.364994,44.88 532.440003,45.2899959 531.79,46.11 C531.139997,46.9300041 530.815,48.0999924 530.815,49.62 C530.815,51.1200075 531.139997,52.2799959 531.79,53.1 C532.440003,53.9200041 533.364994,54.33 534.565,54.33 Z M552.775,54.39 C553.775005,54.4500003 554.275,54.8999958 554.275,55.74 C554.275,56.2200024 554.080002,56.5849987 553.69,56.835 C553.299998,57.0850013 552.745004,57.1900002 552.025,57.15 L551.215,57.09 C547.854983,56.8499988 546.175,55.0500168 546.175,51.69 L546.175,45.15 L544.675,45.15 C544.134997,45.15 543.720001,45.0300012 543.43,44.79 C543.139999,44.5499988 542.995,44.2000023 542.995,43.74 C542.995,43.2799977 543.139999,42.9300012 543.43,42.69 C543.720001,42.4499988 544.134997,42.33 544.675,42.33 L546.175,42.33 L546.175,39.57 C546.175,39.0299973 546.344998,38.6000016 546.685,38.28 C547.025002,37.9599984 547.484997,37.8 548.065,37.8 C548.625003,37.8 549.074998,37.9599984 549.415,38.28 C549.755002,38.6000016 549.925,39.0299973 549.925,39.57 L549.925,42.33 L552.475,42.33 C553.015003,42.33 553.429999,42.4499988 553.72,42.69 C554.010001,42.9300012 554.155,43.2799977 554.155,43.74 C554.155,44.2000023 554.010001,44.5499988 553.72,44.79 C553.429999,45.0300012 553.015003,45.15 552.475,45.15 L549.925,45.15 L549.925,51.96 C549.925,53.4400074 550.604993,54.2299995 551.965,54.33 L552.775,54.39 Z M567.805,42.03 C568.385003,42.03 568.844998,42.1899984 569.185,42.51 C569.525002,42.8300016 569.695,43.2599973 569.695,43.8 L569.695,55.44 C569.695,55.9600026 569.520002,56.3799984 569.17,56.7 C568.819998,57.0200016 568.365003,57.18 567.805,57.18 C567.264997,57.18 566.835002,57.0300015 566.515,56.73 C566.194998,56.4299985 566.035,56.0200026 566.035,55.5 L566.035,54.75 C565.574998,55.550004 564.955004,56.1649978 564.175,56.595 C563.394996,57.0250021 562.515005,57.24 561.535,57.24 C557.934982,57.24 556.135,55.2200202 556.135,51.18 L556.135,43.8 C556.135,43.2599973 556.304998,42.8300016 556.645,42.51 C556.985002,42.1899984 557.434997,42.03 557.995,42.03 C558.575003,42.03 559.034998,42.1899984 559.375,42.51 C559.715002,42.8300016 559.885,43.2599973 559.885,43.8 L559.885,51.21 C559.885,52.2500052 560.094998,53.0199975 560.515,53.52 C560.935002,54.0200025 561.594995,54.27 562.495,54.27 C563.535005,54.27 564.369997,53.9250034 565,53.235 C565.630003,52.5449966 565.945,51.6300057 565.945,50.49 L565.945,43.8 C565.945,43.2599973 566.114998,42.8300016 566.455,42.51 C566.795002,42.1899984 567.244997,42.03 567.805,42.03 Z M581.785,42.03 C582.305003,41.9899998 582.714998,42.0999987 583.015,42.36 C583.315001,42.6200013 583.465,43.0099974 583.465,43.53 C583.465,44.0700027 583.335001,44.4699987 583.075,44.73 C582.814999,44.9900013 582.345003,45.1599996 581.665,45.24 L580.765,45.33 C579.584994,45.4500006 578.720003,45.8499966 578.17,46.53 C577.619997,47.2100034 577.345,48.0599949 577.345,49.08 L577.345,55.38 C577.345,55.9600029 577.165002,56.4049985 576.805,56.715 C576.444998,57.0250015 575.995003,57.18 575.455,57.18 C574.914997,57.18 574.470002,57.0250015 574.12,56.715 C573.769998,56.4049985 573.595,55.9600029 573.595,55.38 L573.595,43.77 C573.595,43.2099972 573.769998,42.7800015 574.12,42.48 C574.470002,42.1799985 574.904997,42.03 575.425,42.03 C575.945003,42.03 576.364998,42.1749985 576.685,42.465 C577.005002,42.7550015 577.165,43.1699973 577.165,43.71 L577.165,44.91 C577.545002,44.0299956 578.109996,43.3500024 578.86,42.87 C579.610004,42.3899976 580.444995,42.1200003 581.365,42.06 L581.785,42.03 Z M596.695,52.98 C597.035002,52.98 597.309999,53.1099987 597.52,53.37 C597.730001,53.6300013 597.835,53.9799978 597.835,54.42 C597.835,55.0400031 597.465004,55.5599979 596.725,55.98 C596.044997,56.3600019 595.275004,56.6649989 594.415,56.895 C593.554996,57.1250012 592.735004,57.24 591.955,57.24 C589.594988,57.24 587.725007,56.5600068 586.345,55.2 C584.964993,53.8399932 584.275,51.9800118 584.275,49.62 C584.275,48.1199925 584.574997,46.7900058 585.175,45.63 C585.775003,44.4699942 586.619995,43.5700032 587.71,42.93 C588.800005,42.2899968 590.034993,41.97 591.415,41.97 C592.735007,41.97 593.884995,42.2599971 594.865,42.84 C595.845005,43.4200029 596.604997,44.2399947 597.145,45.3 C597.685003,46.3600053 597.955,47.6099928 597.955,49.05 C597.955,49.9100043 597.575004,50.34 596.815,50.34 L587.965,50.34 C588.085001,51.7200069 588.474997,52.7349968 589.135,53.385 C589.795003,54.0350033 590.754994,54.36 592.015,54.36 C592.655003,54.36 593.219998,54.2800008 593.71,54.12 C594.200002,53.9599992 594.754997,53.7400014 595.375,53.46 C595.975003,53.1399984 596.414999,52.98 596.695,52.98 Z M591.505,44.61 C590.484995,44.61 589.670003,44.9299968 589.06,45.57 C588.449997,46.2100032 588.085001,47.129994 587.965,48.33 L594.745,48.33 C594.705,47.1099939 594.405003,46.1850032 593.845,45.555 C593.284997,44.9249968 592.505005,44.61 591.505,44.61 Z M618.925,57.27 C616.88499,57.27 615.100008,56.8300044 613.57,55.95 C612.039992,55.0699956 610.865004,53.8100082 610.045,52.17 C609.224996,50.5299918 608.815,48.610011 608.815,46.41 C608.815,44.209989 609.224996,42.2950082 610.045,40.665 C610.865004,39.0349918 612.039992,37.7800044 613.57,36.9 C615.100008,36.0199956 616.88499,35.58 618.925,35.58 C620.245007,35.58 621.484994,35.7749981 622.645,36.165 C623.805006,36.555002 624.834995,37.1199963 625.735,37.86 C625.995001,38.060001 626.175,38.2699989 626.275,38.49 C626.375,38.7100011 626.425,38.9799984 626.425,39.3 C626.425,39.7400022 626.305001,40.1099985 626.065,40.41 C625.824999,40.7100015 625.535002,40.86 625.195,40.86 C624.794998,40.86 624.385002,40.7200014 623.965,40.44 C623.104996,39.7999968 622.305004,39.3550013 621.565,39.105 C620.824996,38.8549988 620.005005,38.73 619.105,38.73 C617.02499,38.73 615.450005,39.3799935 614.38,40.68 C613.309995,41.9800065 612.775,43.8899874 612.775,46.41 C612.775,48.9500127 613.309995,50.8699935 614.38,52.17 C615.450005,53.4700065 617.02499,54.12 619.105,54.12 C619.965004,54.12 620.759996,53.9900013 621.49,53.73 C622.220004,53.4699987 623.044995,53.0300031 623.965,52.41 C624.165001,52.2899994 624.364999,52.1900004 624.565,52.11 C624.765001,52.0299996 624.974999,51.99 625.195,51.99 C625.535002,51.99 625.824999,52.1399985 626.065,52.44 C626.305001,52.7400015 626.425,53.1099978 626.425,53.55 C626.425,53.8500015 626.375,54.1149988 626.275,54.345 C626.175,54.5750011 625.995001,54.789999 625.735,54.99 C624.834995,55.7300037 623.805006,56.2949981 622.645,56.685 C621.484994,57.075002 620.245007,57.27 618.925,57.27 Z M631.345,57.18 C630.804997,57.18 630.360002,57.0250015 630.01,56.715 C629.659998,56.4049985 629.485,55.9600029 629.485,55.38 L629.485,37.47 C629.485,36.8899971 629.659998,36.4500015 630.01,36.15 C630.360002,35.8499985 630.804997,35.7 631.345,35.7 C631.885003,35.7 632.334998,35.8499985 632.695,36.15 C633.055002,36.4500015 633.235,36.8899971 633.235,37.47 L633.235,55.38 C633.235,55.9600029 633.055002,56.4049985 632.695,56.715 C632.334998,57.0250015 631.885003,57.18 631.345,57.18 Z M638.965,57.18 C638.424997,57.18 637.980002,57.0250015 637.63,56.715 C637.279998,56.4049985 637.105,55.9600029 637.105,55.38 L637.105,43.8 C637.105,43.2199971 637.279998,42.7800015 637.63,42.48 C637.980002,42.1799985 638.424997,42.03 638.965,42.03 C639.505003,42.03 639.954998,42.1799985 640.315,42.48 C640.675002,42.7800015 640.855,43.2199971 640.855,43.8 L640.855,55.38 C640.855,55.9600029 640.675002,56.4049985 640.315,56.715 C639.954998,57.0250015 639.505003,57.18 638.965,57.18 Z M638.965,39.36 C638.284997,39.36 637.745002,39.1750019 637.345,38.805 C636.944998,38.4349981 636.745,37.950003 636.745,37.35 C636.745,36.749997 636.944998,36.2700018 637.345,35.91 C637.745002,35.5499982 638.284997,35.37 638.965,35.37 C639.625003,35.37 640.159998,35.5499982 640.57,35.91 C640.980002,36.2700018 641.185,36.749997 641.185,37.35 C641.185,37.950003 640.985002,38.4349981 640.585,38.805 C640.184998,39.1750019 639.645003,39.36 638.965,39.36 Z M656.335,52.98 C656.675002,52.98 656.949999,53.1099987 657.16,53.37 C657.370001,53.6300013 657.475,53.9799978 657.475,54.42 C657.475,55.0400031 657.105004,55.5599979 656.365,55.98 C655.684997,56.3600019 654.915004,56.6649989 654.055,56.895 C653.194996,57.1250012 652.375004,57.24 651.595,57.24 C649.234988,57.24 647.365007,56.5600068 645.985,55.2 C644.604993,53.8399932 643.915,51.9800118 643.915,49.62 C643.915,48.1199925 644.214997,46.7900058 644.815,45.63 C645.415003,44.4699942 646.259995,43.5700032 647.35,42.93 C648.440005,42.2899968 649.674993,41.97 651.055,41.97 C652.375007,41.97 653.524995,42.2599971 654.505,42.84 C655.485005,43.4200029 656.244997,44.2399947 656.785,45.3 C657.325003,46.3600053 657.595,47.6099928 657.595,49.05 C657.595,49.9100043 657.215004,50.34 656.455,50.34 L647.605,50.34 C647.725001,51.7200069 648.114997,52.7349968 648.775,53.385 C649.435003,54.0350033 650.394994,54.36 651.655,54.36 C652.295003,54.36 652.859998,54.2800008 653.35,54.12 C653.840002,53.9599992 654.394997,53.7400014 655.015,53.46 C655.615003,53.1399984 656.054999,52.98 656.335,52.98 Z M651.145,44.61 C650.124995,44.61 649.310003,44.9299968 648.7,45.57 C648.089997,46.2100032 647.725001,47.129994 647.605,48.33 L654.385,48.33 C654.345,47.1099939 654.045003,46.1850032 653.485,45.555 C652.924997,44.9249968 652.145005,44.61 651.145,44.61 Z M669.175,41.97 C670.935009,41.97 672.244996,42.469995 673.105,43.47 C673.965004,44.470005 674.395,45.9799899 674.395,48 L674.395,55.38 C674.395,55.9400028 674.230002,56.3799984 673.9,56.7 C673.569998,57.0200016 673.115003,57.18 672.535,57.18 C671.954997,57.18 671.495002,57.0200016 671.155,56.7 C670.814998,56.3799984 670.645,55.9400028 670.645,55.38 L670.645,48.21 C670.645,47.0699943 670.430002,46.2400026 670,45.72 C669.569998,45.1999974 668.895005,44.94 667.975,44.94 C666.894995,44.94 666.030003,45.2799966 665.38,45.96 C664.729997,46.6400034 664.405,47.5499943 664.405,48.69 L664.405,55.38 C664.405,55.9400028 664.235002,56.3799984 663.895,56.7 C663.554998,57.0200016 663.095003,57.18 662.515,57.18 C661.934997,57.18 661.480002,57.0200016 661.15,56.7 C660.819998,56.3799984 660.655,55.9400028 660.655,55.38 L660.655,43.77 C660.655,43.2499974 660.824998,42.8300016 661.165,42.51 C661.505002,42.1899984 661.964997,42.03 662.545,42.03 C663.065003,42.03 663.489998,42.1849985 663.82,42.495 C664.150002,42.8050016 664.315,43.2099975 664.315,43.71 L664.315,44.52 C664.815002,43.6999959 665.484996,43.0700022 666.325,42.63 C667.165004,42.1899978 668.114995,41.97 669.175,41.97 Z M685.825,54.39 C686.825005,54.4500003 687.325,54.8999958 687.325,55.74 C687.325,56.2200024 687.130002,56.5849987 686.74,56.835 C686.349998,57.0850013 685.795004,57.1900002 685.075,57.15 L684.265,57.09 C680.904983,56.8499988 679.225,55.0500168 679.225,51.69 L679.225,45.15 L677.725,45.15 C677.184997,45.15 676.770001,45.0300012 676.48,44.79 C676.189999,44.5499988 676.045,44.2000023 676.045,43.74 C676.045,43.2799977 676.189999,42.9300012 676.48,42.69 C676.770001,42.4499988 677.184997,42.33 677.725,42.33 L679.225,42.33 L679.225,39.57 C679.225,39.0299973 679.394998,38.6000016 679.735,38.28 C680.075002,37.9599984 680.534997,37.8 681.115,37.8 C681.675003,37.8 682.124998,37.9599984 682.465,38.28 C682.805002,38.6000016 682.975,39.0299973 682.975,39.57 L682.975,42.33 L685.525,42.33 C686.065003,42.33 686.479999,42.4499988 686.77,42.69 C687.060001,42.9300012 687.205,43.2799977 687.205,43.74 C687.205,44.2000023 687.060001,44.5499988 686.77,44.79 C686.479999,45.0300012 686.065003,45.15 685.525,45.15 L682.975,45.15 L682.975,51.96 C682.975,53.4400074 683.654993,54.2299995 685.015,54.33 L685.825,54.39 Z M699.655,57.18 C699.074997,57.18 698.610002,57.0050017 698.26,56.655 C697.909998,56.3049982 697.735,55.830003 697.735,55.23 L697.735,37.68 C697.735,37.0999971 697.899998,36.6500016 698.23,36.33 C698.560002,36.0099984 699.014997,35.85 699.595,35.85 L706.975,35.85 C709.235011,35.85 710.994994,36.4149944 712.255,37.545 C713.515006,38.6750057 714.145,40.2599898 714.145,42.3 C714.145,44.3400102 713.515006,45.9299943 712.255,47.07 C710.994994,48.2100057 709.235011,48.78 706.975,48.78 L701.605,48.78 L701.605,55.23 C701.605,55.830003 701.430002,56.3049982 701.08,56.655 C700.729998,57.0050017 700.255003,57.18 699.655,57.18 Z M706.495,45.81 C709.155013,45.81 710.485,44.6500116 710.485,42.33 C710.485,40.0099884 709.155013,38.85 706.495,38.85 L701.605,38.85 L701.605,45.81 L706.495,45.81 Z M719.065,57.18 C718.524997,57.18 718.080002,57.0250015 717.73,56.715 C717.379998,56.4049985 717.205,55.9600029 717.205,55.38 L717.205,37.47 C717.205,36.8899971 717.379998,36.4500015 717.73,36.15 C718.080002,35.8499985 718.524997,35.7 719.065,35.7 C719.605003,35.7 720.054998,35.8499985 720.415,36.15 C720.775002,36.4500015 720.955,36.8899971 720.955,37.47 L720.955,55.38 C720.955,55.9600029 720.775002,56.4049985 720.415,56.715 C720.054998,57.0250015 719.605003,57.18 719.065,57.18 Z M731.185,41.97 C733.22501,41.97 734.739995,42.4749949 735.73,43.485 C736.720005,44.4950051 737.215,46.0299897 737.215,48.09 L737.215,55.41 C737.215,55.9500027 737.055002,56.3749984 736.735,56.685 C736.414998,56.9950015 735.975003,57.15 735.415,57.15 C734.894997,57.15 734.470002,56.9900016 734.14,56.67 C733.809998,56.3499984 733.645,55.9300026 733.645,55.41 L733.645,54.75 C733.304998,55.5300039 732.770004,56.1399978 732.04,56.58 C731.309996,57.0200022 730.465005,57.24 729.505,57.24 C728.524995,57.24 727.635004,57.040002 726.835,56.64 C726.034996,56.239998 725.405002,55.6900035 724.945,54.99 C724.484998,54.2899965 724.255,53.5100043 724.255,52.65 C724.255,51.5699946 724.529997,50.7200031 725.08,50.1 C725.630003,49.4799969 726.524994,49.0300014 727.765,48.75 C729.005006,48.4699986 730.714989,48.33 732.895,48.33 L733.645,48.33 L733.645,47.64 C733.645,46.6599951 733.435002,45.9450023 733.015,45.495 C732.594998,45.0449978 731.915005,44.82 730.975,44.82 C730.394997,44.82 729.805003,44.9049992 729.205,45.075 C728.604997,45.2450008 727.895004,45.4899984 727.075,45.81 C726.554997,46.0700013 726.175001,46.2 725.935,46.2 C725.574998,46.2 725.280001,46.0700013 725.05,45.81 C724.819999,45.5499987 724.705,45.2100021 724.705,44.79 C724.705,44.4499983 724.789999,44.1550012 724.96,43.905 C725.130001,43.6549988 725.414998,43.4200011 725.815,43.2 C726.515004,42.8199981 727.349995,42.5200011 728.32,42.3 C729.290005,42.0799989 730.244995,41.97 731.185,41.97 Z M730.255,54.54 C731.255005,54.54 732.069997,54.2050033 732.7,53.535 C733.330003,52.8649967 733.645,52.0000053 733.645,50.94 L733.645,50.31 L733.105,50.31 C731.764993,50.31 730.725004,50.3699994 729.985,50.49 C729.244996,50.6100006 728.715002,50.8199985 728.395,51.12 C728.074998,51.4200015 727.915,51.8299974 727.915,52.35 C727.915,52.9900032 728.139998,53.514998 728.59,53.925 C729.040002,54.335002 729.594997,54.54 730.255,54.54 Z M748.645,54.39 C749.645005,54.4500003 750.145,54.8999958 750.145,55.74 C750.145,56.2200024 749.950002,56.5849987 749.56,56.835 C749.169998,57.0850013 748.615004,57.1900002 747.895,57.15 L747.085,57.09 C743.724983,56.8499988 742.045,55.0500168 742.045,51.69 L742.045,45.15 L740.545,45.15 C740.004997,45.15 739.590001,45.0300012 739.3,44.79 C739.009999,44.5499988 738.865,44.2000023 738.865,43.74 C738.865,43.2799977 739.009999,42.9300012 739.3,42.69 C739.590001,42.4499988 740.004997,42.33 740.545,42.33 L742.045,42.33 L742.045,39.57 C742.045,39.0299973 742.214998,38.6000016 742.555,38.28 C742.895002,37.9599984 743.354997,37.8 743.935,37.8 C744.495003,37.8 744.944998,37.9599984 745.285,38.28 C745.625002,38.6000016 745.795,39.0299973 745.795,39.57 L745.795,42.33 L748.345,42.33 C748.885003,42.33 749.299999,42.4499988 749.59,42.69 C749.880001,42.9300012 750.025,43.2799977 750.025,43.74 C750.025,44.2000023 749.880001,44.5499988 749.59,44.79 C749.299999,45.0300012 748.885003,45.15 748.345,45.15 L745.795,45.15 L745.795,51.96 C745.795,53.4400074 746.474993,54.2299995 747.835,54.33 L748.645,54.39 Z M759.505,38.64 C758.584995,38.7000003 757.915002,38.9799975 757.495,39.48 C757.074998,39.9800025 756.865,40.6999953 756.865,41.64 L756.865,42.33 L759.415,42.33 C760.535006,42.33 761.095,42.7999953 761.095,43.74 C761.095,44.6800047 760.535006,45.15 759.415,45.15 L756.865,45.15 L756.865,55.38 C756.865,55.9600029 756.690002,56.3999985 756.34,56.7 C755.989998,57.0000015 755.545003,57.15 755.005,57.15 C754.464997,57.15 754.015002,57.0000015 753.655,56.7 C753.294998,56.3999985 753.115,55.9600029 753.115,55.38 L753.115,45.15 L751.615,45.15 C750.494994,45.15 749.935,44.6800047 749.935,43.74 C749.935,42.7999953 750.494994,42.33 751.615,42.33 L753.115,42.33 L753.115,42.12 C753.115,40.2399906 753.609995,38.7650054 754.6,37.695 C755.590005,36.6249946 756.984991,36.0200007 758.785,35.88 L759.565,35.82 C760.365004,35.7599997 760.929998,35.8449989 761.26,36.075 C761.590002,36.3050011 761.755,36.6599976 761.755,37.14 C761.755,38.0000043 761.265005,38.4799995 760.285,38.58 L759.505,38.64 Z M769.525,57.24 C768.024992,57.24 766.710006,56.9300031 765.58,56.31 C764.449994,55.6899969 763.575003,54.8000058 762.955,53.64 C762.334997,52.4799942 762.025,51.1300077 762.025,49.59 C762.025,48.0499923 762.334997,46.7050057 762.955,45.555 C763.575003,44.4049943 764.449994,43.5200031 765.58,42.9 C766.710006,42.2799969 768.024992,41.97 769.525,41.97 C771.025008,41.97 772.339994,42.2799969 773.47,42.9 C774.600006,43.5200031 775.469997,44.4049943 776.08,45.555 C776.690003,46.7050057 776.995,48.0499923 776.995,49.59 C776.995,51.1300077 776.690003,52.4799942 776.08,53.64 C775.469997,54.8000058 774.600006,55.6899969 773.47,56.31 C772.339994,56.9300031 771.025008,57.24 769.525,57.24 Z M769.495,54.33 C770.715006,54.33 771.644997,53.930004 772.285,53.13 C772.925003,52.329996 773.245,51.1500078 773.245,49.59 C773.245,48.0499923 772.925003,46.8750041 772.285,46.065 C771.644997,45.254996 770.725006,44.85 769.525,44.85 C768.324994,44.85 767.400003,45.254996 766.75,46.065 C766.099997,46.8750041 765.775,48.0499923 765.775,49.59 C765.775,51.1500078 766.094997,52.329996 766.735,53.13 C767.375003,53.930004 768.294994,54.33 769.495,54.33 Z M788.275,42.03 C788.795003,41.9899998 789.204998,42.0999987 789.505,42.36 C789.805002,42.6200013 789.955,43.0099974 789.955,43.53 C789.955,44.0700027 789.825001,44.4699987 789.565,44.73 C789.304999,44.9900013 788.835003,45.1599996 788.155,45.24 L787.255,45.33 C786.074994,45.4500006 785.210003,45.8499966 784.66,46.53 C784.109997,47.2100034 783.835,48.0599949 783.835,49.08 L783.835,55.38 C783.835,55.9600029 783.655002,56.4049985 783.295,56.715 C782.934998,57.0250015 782.485003,57.18 781.945,57.18 C781.404997,57.18 780.960002,57.0250015 780.61,56.715 C780.259998,56.4049985 780.085,55.9600029 780.085,55.38 L780.085,43.77 C780.085,43.2099972 780.259998,42.7800015 780.61,42.48 C780.960002,42.1799985 781.394997,42.03 781.915,42.03 C782.435003,42.03 782.854998,42.1749985 783.175,42.465 C783.495002,42.7550015 783.655,43.1699973 783.655,43.71 L783.655,44.91 C784.035002,44.0299956 784.599996,43.3500024 785.35,42.87 C786.100004,42.3899976 786.934995,42.1200003 787.855,42.06 L788.275,42.03 Z M809.005,41.97 C810.605008,41.97 811.829996,42.4449953 812.68,43.395 C813.530004,44.3450048 813.955,45.8799894 813.955,48 L813.955,55.38 C813.955,55.9600029 813.780002,56.4049985 813.43,56.715 C813.079998,57.0250016 812.625003,57.18 812.065,57.18 C811.524997,57.18 811.080002,57.0250016 810.73,56.715 C810.379998,56.4049985 810.205,55.9600029 810.205,55.38 L810.205,48 C810.205,46.8999945 810.010002,46.1150024 809.62,45.645 C809.229998,45.1749977 808.635004,44.94 807.835,44.94 C806.854995,44.94 806.075003,45.2749967 805.495,45.945 C804.914997,46.6150034 804.625,47.5299942 804.625,48.69 L804.625,55.38 C804.625,55.9600029 804.450002,56.4049985 804.1,56.715 C803.749998,57.0250016 803.305003,57.18 802.765,57.18 C802.224997,57.18 801.775002,57.0250016 801.415,56.715 C801.054998,56.4049985 800.875,55.9600029 800.875,55.38 L800.875,48 C800.875,46.8999945 800.680002,46.1150024 800.29,45.645 C799.899998,45.1749977 799.305004,44.94 798.505,44.94 C797.524995,44.94 796.750003,45.2749967 796.18,45.945 C795.609997,46.6150034 795.325,47.5299942 795.325,48.69 L795.325,55.38 C795.325,55.9600029 795.145002,56.4049985 794.785,56.715 C794.424998,57.0250016 793.975003,57.18 793.435,57.18 C792.894997,57.18 792.450002,57.0250016 792.1,56.715 C791.749998,56.4049985 791.575,55.9600029 791.575,55.38 L791.575,43.77 C791.575,43.2099972 791.754998,42.7800015 792.115,42.48 C792.475002,42.1799985 792.924997,42.03 793.465,42.03 C793.985003,42.03 794.409998,42.1749986 794.74,42.465 C795.070002,42.7550015 795.235,43.1699973 795.235,43.71 L795.235,44.43 C795.695002,43.629996 796.309996,43.0200021 797.08,42.6 C797.850004,42.1799979 798.734995,41.97 799.735,41.97 C801.935011,41.97 803.404996,42.8899908 804.145,44.73 C804.585002,43.8899958 805.234996,43.2200025 806.095,42.72 C806.955004,42.2199975 807.924995,41.97 809.005,41.97 Z" id="Sonicwall-Capture-Cl" fill="#FFFFFF"></path>
                </g>
            </g>
        </g>
    </g>
</svg>