<?xml version="1.0" encoding="UTF-8"?>
<svg width="188px" height="62px" viewBox="0 0 188 62" version="1.1" xmlns="http://www.w3.org/2000/svg" xmlns:xlink="http://www.w3.org/1999/xlink">
    <!-- Generator: Sketch 52.4 (67378) - http://www.bohemiancoding.com/sketch -->
    <title>Group 16</title>
    <desc>Created with Sketch.</desc>
    <g id="Page-1" stroke="none" stroke-width="1" fill="none" fill-rule="evenodd">
        <g id="Artboard-Copy" transform="translate(-241.000000, -723.000000)" fill-rule="nonzero">
            <g id="Group-16" transform="translate(241.000000, 723.000000)">
                <path d="M175.956225,61.8091859 L11.6717543,61.8091859 C5.22770369,61.8091859 0,56.5865637 0,50.1487769 L0,12.065002 C0,5.62721516 5.22770369,0.404592941 11.6717543,0.404592941 L175.95299,0.404592941 C182.400275,0.404592941 187.627979,5.62721516 187.627979,12.065002 L187.627979,50.145545 C187.627979,56.5865637 182.400275,61.8091859 175.956225,61.8091859 Z" id="Shape" fill="#4E4E4E"></path>
                <ellipse id="Oval" fill="#4A90E2" cx="30.732169" cy="31.1068894" rx="11.322378" ry="11.3113724"></ellipse>
                <ellipse id="Oval" fill="#8697CB" cx="158.513293" cy="26.2591584" rx="3.23496516" ry="3.23182068"></ellipse>
                <ellipse id="Oval" fill="#8697CB" cx="145.573432" cy="26.2591584" rx="3.23496516" ry="3.23182068"></ellipse>
                <ellipse id="Oval" fill="#8697CB" cx="164.983223" cy="35.9546204" rx="3.23496516" ry="3.23182068"></ellipse>
                <ellipse id="Oval" fill="#8697CB" cx="152.043362" cy="35.9546204" rx="3.23496516" ry="3.23182068"></ellipse>
                <ellipse id="Oval" fill="#8697CB" cx="132.633571" cy="26.2591584" rx="3.23496516" ry="3.23182068"></ellipse>
                <ellipse id="Oval" fill="#8697CB" cx="139.103502" cy="35.9546204" rx="3.23496516" ry="3.23182068"></ellipse>
                <ellipse id="Oval" fill="#8697CB" cx="119.693711" cy="26.2591584" rx="3.23496516" ry="3.23182068"></ellipse>
                <ellipse id="Oval" fill="#8697CB" cx="126.163641" cy="35.9546204" rx="3.23496516" ry="3.23182068"></ellipse>
                <ellipse id="Oval" fill="#8697CB" cx="106.75385" cy="26.2591584" rx="3.23496516" ry="3.23182068"></ellipse>
                <ellipse id="Oval" fill="#8697CB" cx="113.22378" cy="35.9546204" rx="3.23496516" ry="3.23182068"></ellipse>
            </g>
        </g>
    </g>
</svg>