<?xml version="1.0" encoding="UTF-8"?>
<svg width="362px" height="105px" viewBox="0 0 362 105" version="1.1" xmlns="http://www.w3.org/2000/svg" xmlns:xlink="http://www.w3.org/1999/xlink">
    <!-- Generator: Sketch 52.5 (67469) - http://www.bohemiancoding.com/sketch -->
    <title>Group 4</title>
    <desc>Created with Sketch.</desc>
    <g id="Page-1" stroke="none" stroke-width="1" fill="none" fill-rule="evenodd">
        <g id="Artboard-Copy-34" transform="translate(-626.000000, -192.000000)">
            <g id="Group-4" transform="translate(626.000000, 192.000000)">
                <g id="Group" transform="translate(1.000000, 60.782609)" fill="#66666A">
                    <polygon id="Path" points="25.9382716 0.813913043 25.9382716 5.6973913 6.33641975 5.6973913 6.33641975 18.0417391 22.2432099 18.0417391 22.2432099 23.0156522 6.33641975 23.0156522 6.33641975 42.3686957 0.568518519 42.3686957 0.568518519 0.813913043"></polygon>
                    <polygon id="Path" points="64.5111111 0.813913043 64.5111111 5.7426087 45.2697531 5.7426087 45.2697531 18.0869565 61.4018519 18.0869565 61.4018519 23.106087 45.2697531 23.106087 45.2697531 37.5304348 64.5111111 37.5304348 64.5111111 42.413913 39.2314815 42.413913 39.2314815 0.859130435 64.5111111 0.859130435"></polygon>
                    <path d="M115.83642,42.3686957 L109.708025,42.3686957 L104.751235,30.8382609 L87.267284,30.8382609 L82.4907407,42.3686957 L76.4074074,42.3686957 L94.2067901,0.813913043 L98.217284,0.813913043 L115.83642,42.3686957 Z M89.2950617,26 L102.903704,26 L96.0092593,10.2643478 L89.2950617,26 Z" id="Shape" fill-rule="nonzero"></path>
                    <path d="M135.077778,25.5930435 L135.077778,42.5495652 L128.994444,42.5495652 L128.994444,0.813913043 L141.837037,0.813913043 C144.405556,0.813913043 146.61358,1.08521739 148.461111,1.62782609 C150.308642,2.17043478 151.840741,2.93913043 153.057407,3.97913043 C154.274074,5.01913043 155.175309,6.24 155.761111,7.68695652 C156.346914,9.13391304 156.617284,10.7617391 156.617284,12.5704348 C156.617284,14.0626087 156.707407,15.0121739 156.391975,16.64 C156.166667,17.9965217 155.400617,19.7147826 154.544444,20.7547826 C153.688272,21.7947826 152.741975,22.8347826 151.525309,23.5582609 C150.308642,24.2817391 149.858025,24.6434783 148.280864,25.0052174 C148.95679,25.4121739 149.497531,26.3165217 150.038272,27.1304348 L160.582716,42.5495652 L153.733333,42.5495652 L142.69321,26.9043478 C142.377778,26.4521739 142.017284,26.0904348 141.65679,25.8643478 C141.296296,25.6382609 140.710494,25.5478261 139.944444,25.5478261 L135.077778,25.5478261 L135.077778,25.5930435 Z M135.077778,20.6191304 L141.611728,20.6191304 C143.188889,20.6191304 144.630864,20.5286957 145.847531,20.1217391 C147.064198,19.7147826 147.695062,19.4886957 148.506173,18.7652174 C149.317284,18.0417391 149.72284,17.5443478 150.128395,16.5043478 C150.533951,15.4643478 150.894444,14.2886957 150.894444,13.0226087 C150.894444,10.4904348 150.218519,8.95304348 148.641358,7.64173913 C147.064198,6.37565217 144.946296,5.78782609 141.837037,5.78782609 L135.077778,5.78782609 L135.077778,20.6191304 Z" id="Shape" fill-rule="nonzero"></path>
                </g>
                <g id="Group" transform="translate(198.271605, 60.782609)" fill="#66666A">
                    <polygon id="Path" points="8.77839506 35.4504348 27.208642 35.4504348 27.208642 42.4591304 0.261728395 42.4591304 0.261728395 0.904347826 8.77839506 0.904347826"></polygon>
                    <polygon id="Path" points="67.8993827 0.904347826 67.8993827 7.8226087 49.3790123 7.8226087 49.3790123 16.9565217 64.2944444 16.9565217 64.2944444 23.9652174 49.3790123 23.9652174 49.3790123 35.4956522 67.8993827 35.4956522 67.8993827 42.5043478 40.3216049 42.5043478 40.3216049 0.904347826"></polygon>
                    <path d="M107.058025,10.3095652 L109.311111,3.93391304 C109.311111,3.93391304 104.399383,0.0452173913 96.6487654,0.0452173913 C88.8981481,0.0452173913 87.2308642,1.76347826 84.9777778,4.16 C82.7246914,6.55652174 82.3191358,9.17913043 82.3191358,12.0730435 C82.3191358,14.9669565 82.7246914,19.3530435 88.6728395,22.5182609 C94.5759259,25.6834783 102.912346,25.0504348 102.912346,31.2 C102.912346,35.6313043 98.4962963,36.7165217 95.7024691,36.7165217 C92.908642,36.7165217 87.9067901,35.3147826 83.1302469,31.2 L81.1024691,38.2086957 C81.1024691,38.2086957 85.2030864,43.2730435 95.387037,43.2730435 C105.616049,43.2730435 111.023457,39.293913 111.023457,30.6121739 C111.023457,22.9252174 106.742593,19.8052174 102.146296,18.2678261 C97.55,16.7304348 96.2882716,16.413913 94.1253086,15.6452174 C91.9623457,14.8765217 90.3401235,13.6104348 90.3401235,11.213913 C90.3401235,8.8173913 92.7283951,6.60173913 96.8740741,6.60173913 C100.92963,6.55652174 106.111728,9.22434783 107.058025,10.3095652 Z" id="Path"></path>
                    <path d="M149.506173,10.3095652 L151.759259,3.93391304 C151.759259,3.93391304 146.847531,0.0452173913 139.096914,0.0452173913 C131.346296,0.0452173913 129.679012,1.76347826 127.425926,4.16 C125.17284,6.55652174 124.767284,9.17913043 124.767284,12.0730435 C124.767284,14.9669565 125.17284,19.3530435 131.120988,22.5182609 C137.024074,25.6834783 145.360494,25.0504348 145.360494,31.2 C145.360494,35.6313043 140.944444,36.7165217 138.150617,36.7165217 C135.35679,36.7165217 130.354938,35.3147826 125.578395,31.2 L123.550617,38.2086957 C123.550617,38.2086957 127.651235,43.2730435 137.835185,43.2730435 C148.064198,43.2730435 153.471605,39.293913 153.471605,30.6121739 C153.471605,22.9252174 149.190741,19.8052174 144.594444,18.2678261 C139.998148,16.7304348 138.73642,16.413913 136.573457,15.6452174 C134.410494,14.8765217 132.788272,13.6104348 132.788272,11.213913 C132.788272,8.8173913 135.176543,6.60173913 139.322222,6.60173913 C143.377778,6.55652174 148.559877,9.22434783 149.506173,10.3095652 Z" id="Path"></path>
                </g>
                <path d="M177.669753,92.2991304 C177.669753,92.2991304 169.783951,89.0434783 167.711111,83.5721739 C165.412963,77.4678261 172.532716,76.1565217 181.274691,76.3826087 C186.006173,76.5182609 191.729012,77.1513043 191.729012,77.1513043 C191.729012,77.1513043 178.12037,78.8243478 173.208642,82.7130435 C168.432099,86.466087 177.669753,92.2991304 177.669753,92.2991304" id="Swoosh_2_" fill="#F36C24"></path>
                <rect id="Rectangle" fill="#66666A" x="356.880247" y="29.4921739" width="4.9117284" height="4.92869565"></rect>
                <path d="M16.184,19.8 C16.4333346,20.2693357 16.6643323,20.7569975 16.877,21.263 C17.0896677,21.7690025 17.2986656,22.2786641 17.504,22.792 C17.7093344,22.2639974 17.9219989,21.7433359 18.142,21.23 C18.3620011,20.7166641 18.5966654,20.2253357 18.846,19.756 L28.262,2.134 C28.3793339,1.9139989 28.5003327,1.73800066 28.625,1.606 C28.7496673,1.47399934 28.8889992,1.37866696 29.043,1.32 C29.1970008,1.26133304 29.3693324,1.22466674 29.56,1.21 C29.7506676,1.19533326 29.9779987,1.188 30.242,1.188 L34.708,1.188 L34.708,33 L29.494,33 L29.494,12.452 C29.494,12.0706648 29.5049999,11.6526689 29.527,11.198 C29.5490001,10.7433311 29.5819998,10.2813357 29.626,9.812 L20.012,27.852 C19.7919989,28.2626687 19.5060018,28.5816655 19.154,28.809 C18.8019982,29.0363345 18.3913357,29.15 17.922,29.15 L17.108,29.15 C16.6386643,29.15 16.2280018,29.0363345 15.876,28.809 C15.5239982,28.5816655 15.2380011,28.2626687 15.018,27.852 L5.272,9.746 C5.33066696,10.2300024 5.37099989,10.7029977 5.393,11.165 C5.41500011,11.6270023 5.426,12.055998 5.426,12.452 L5.426,33 L0.212,33 L0.212,1.188 L4.678,1.188 C4.94200132,1.188 5.16933238,1.19533326 5.36,1.21 C5.55066762,1.22466674 5.72299923,1.26133304 5.877,1.32 C6.03100077,1.37866696 6.17399934,1.47399934 6.306,1.606 C6.43800066,1.73800066 6.56266608,1.9139989 6.68,2.134 L16.184,19.8 Z M71.646,17.094 C71.646,19.4260117 71.2573372,21.5856567 70.48,23.573 C69.7026628,25.5603433 68.610007,27.2799927 67.202,28.732 C65.793993,30.1840073 64.1000099,31.3169959 62.12,32.131 C60.1399901,32.9450041 57.9473454,33.352 55.542,33.352 C53.1366546,33.352 50.9403433,32.9450041 48.953,32.131 C46.9656567,31.3169959 45.2643404,30.1840073 43.849,28.732 C42.4336596,27.2799927 41.3373372,25.5603433 40.56,23.573 C39.7826628,21.5856567 39.394,19.4260117 39.394,17.094 C39.394,14.7619883 39.7826628,12.6023433 40.56,10.615 C41.3373372,8.62765673 42.4336596,6.90800726 43.849,5.456 C45.2643404,4.00399274 46.9656567,2.87100407 48.953,2.057 C50.9403433,1.24299593 53.1366546,0.836 55.542,0.836 C57.9473454,0.836 60.1399901,1.24666256 62.12,2.068 C64.1000099,2.88933744 65.793993,4.02232611 67.202,5.467 C68.610007,6.91167389 69.7026628,8.62765673 70.48,10.615 C71.2573372,12.6023433 71.646,14.7619883 71.646,17.094 Z M65.574,17.094 C65.574,15.3486579 65.3430023,13.7830069 64.881,12.397 C64.4189977,11.0109931 63.7553377,9.83400484 62.89,8.866 C62.0246623,7.89799516 60.9723395,7.1573359 59.733,6.644 C58.4936605,6.1306641 57.0966744,5.874 55.542,5.874 C53.9873256,5.874 52.5866729,6.1306641 51.34,6.644 C50.0933271,7.1573359 49.033671,7.89799516 48.161,8.866 C47.288329,9.83400484 46.6173357,11.0109931 46.148,12.397 C45.6786643,13.7830069 45.444,15.3486579 45.444,17.094 C45.444,18.8393421 45.6786643,20.4049931 46.148,21.791 C46.6173357,23.1770069 47.288329,24.3503285 48.161,25.311 C49.033671,26.2716715 50.0933271,27.0086641 51.34,27.522 C52.5866729,28.0353359 53.9873256,28.292 55.542,28.292 C57.0966744,28.292 58.4936605,28.0353359 59.733,27.522 C60.9723395,27.0086641 62.0246623,26.2716715 62.89,25.311 C63.7553377,24.3503285 64.4189977,23.1770069 64.881,21.791 C65.3430023,20.4049931 65.574,18.8393421 65.574,17.094 Z M82.426,20.57 L82.426,33 L76.508,33 L76.508,1.188 L86.21,1.188 C88.3806775,1.188 90.2396589,1.41166443 91.787,1.859 C93.3343411,2.30633557 94.602995,2.9333293 95.593,3.74 C96.5830049,4.5466707 97.3089977,5.51099439 97.771,6.633 C98.2330023,7.75500561 98.464,8.99065992 98.464,10.34 C98.464,11.410672 98.3063349,12.4226619 97.991,13.376 C97.6756651,14.3293381 97.221003,15.1946628 96.627,15.972 C96.032997,16.7493372 95.299671,17.4313304 94.427,18.018 C93.554329,18.6046696 92.5606722,19.0739982 91.446,19.426 C92.1940037,19.8513355 92.8393306,20.459996 93.382,21.252 L101.346,33 L96.022,33 C95.5086641,33 95.0723351,32.8973344 94.713,32.692 C94.3536649,32.4866656 94.0493346,32.1933352 93.8,31.812 L87.112,21.626 C86.8626654,21.2446648 86.5876682,20.9733341 86.287,20.812 C85.9863318,20.6506659 85.5426696,20.57 84.956,20.57 L82.426,20.57 Z M82.426,16.324 L86.122,16.324 C87.2366722,16.324 88.2083292,16.1846681 89.037,15.906 C89.8656708,15.6273319 90.547664,15.2423358 91.083,14.751 C91.618336,14.2596642 92.0179987,13.67667 92.282,13.002 C92.5460013,12.32733 92.678,11.5866707 92.678,10.78 C92.678,9.1666586 92.1463386,7.92733766 91.083,7.062 C90.0196613,6.19666234 88.3953443,5.764 86.21,5.764 L82.426,5.764 L82.426,16.324 Z M125.194,1.188 L125.194,5.896 L111.092,5.896 L111.092,14.718 L122.202,14.718 L122.202,19.272 L111.092,19.272 L111.092,28.27 L125.194,28.27 L125.194,33 L105.13,33 L105.13,1.188 L125.194,1.188 Z M194.868,17.424 C194.868,19.8293454 194.50867,22.0109902 193.79,23.969 C193.07133,25.9270098 192.05934,27.5989931 190.754,28.985 C189.44866,30.3710069 187.886676,31.4416629 186.068,32.197 C184.249324,32.9523371 182.232678,33.33 180.018,33.33 C177.832656,33.33 175.830676,32.9523371 174.012,32.197 C172.193324,31.4416629 170.63134,30.3710069 169.326,28.985 C168.02066,27.5989931 167.005004,25.9270098 166.279,23.969 C165.552996,22.0109902 165.19,19.8293454 165.19,17.424 C165.19,15.0333214 165.552996,12.8590098 166.279,10.901 C167.005004,8.94299021 168.02066,7.27100693 169.326,5.885 C170.63134,4.49899307 172.193324,3.42467048 174.012,2.662 C175.830676,1.89932952 177.832656,1.518 180.018,1.518 C182.232678,1.518 184.249324,1.89566289 186.068,2.651 C187.886676,3.40633711 189.44866,4.4806597 190.754,5.874 C192.05934,7.2673403 193.07133,8.94299021 193.79,10.901 C194.50867,12.8590098 194.868,15.0333214 194.868,17.424 Z M192.536,17.424 C192.536,15.2533225 192.235336,13.3026753 191.634,11.572 C191.032664,9.84132468 190.185672,8.37467268 189.093,7.172 C188.000328,5.96932732 186.684008,5.04900319 185.144,4.411 C183.603992,3.77299681 181.895343,3.454 180.018,3.454 C178.169991,3.454 176.479674,3.77299681 174.947,4.411 C173.414326,5.04900319 172.094339,5.96932732 170.987,7.172 C169.879661,8.37467268 169.02167,9.84132468 168.413,11.572 C167.80433,13.3026753 167.5,15.2533225 167.5,17.424 C167.5,19.6093443 167.80433,21.563658 168.413,23.287 C169.02167,25.0103419 169.879661,26.4733273 170.987,27.676 C172.094339,28.8786727 173.414326,29.7953302 174.947,30.426 C176.479674,31.0566698 178.169991,31.372 180.018,31.372 C181.895343,31.372 183.603992,31.0566698 185.144,30.426 C186.684008,29.7953302 188.000328,28.8786727 189.093,27.676 C190.185672,26.4733273 191.032664,25.0103419 191.634,23.287 C192.235336,21.563658 192.536,19.6093443 192.536,17.424 Z M205.098,20.46 L205.098,33 L202.854,33 L202.854,1.87 L210.884,1.87 C214.536018,1.87 217.289657,2.66932534 219.145,4.268 C221.000343,5.86667466 221.928,8.14731852 221.928,11.11 C221.928,12.4740068 221.675003,13.7279943 221.169,14.872 C220.662997,16.0160057 219.933338,17.0023292 218.98,17.831 C218.026662,18.6596708 216.868007,19.3049977 215.504,19.767 C214.139993,20.2290023 212.600009,20.46 210.884,20.46 L205.098,20.46 Z M205.098,18.656 L210.884,18.656 C212.262674,18.656 213.494661,18.4653352 214.58,18.084 C215.665339,17.7026648 216.585663,17.17467 217.341,16.5 C218.096337,15.82533 218.675665,15.0296712 219.079,14.113 C219.482335,13.1963287 219.684,12.1953388 219.684,11.11 C219.684,8.71932138 218.947007,6.87867312 217.473,5.588 C215.998993,4.29732688 213.802681,3.652 210.884,3.652 L205.098,3.652 L205.098,18.656 Z M248.636,1.87 L248.636,3.784 L237.702,3.784 L237.702,33 L235.458,33 L235.458,3.784 L224.458,3.784 L224.458,1.87 L248.636,1.87 Z M257.106,33 L254.84,33 L254.84,1.87 L257.106,1.87 L257.106,33 Z M294.946,17.424 C294.946,19.8293454 294.58667,22.0109902 293.868,23.969 C293.14933,25.9270098 292.13734,27.5989931 290.832,28.985 C289.52666,30.3710069 287.964676,31.4416629 286.146,32.197 C284.327324,32.9523371 282.310678,33.33 280.096,33.33 C277.910656,33.33 275.908676,32.9523371 274.09,32.197 C272.271324,31.4416629 270.70934,30.3710069 269.404,28.985 C268.09866,27.5989931 267.083004,25.9270098 266.357,23.969 C265.630996,22.0109902 265.268,19.8293454 265.268,17.424 C265.268,15.0333214 265.630996,12.8590098 266.357,10.901 C267.083004,8.94299021 268.09866,7.27100693 269.404,5.885 C270.70934,4.49899307 272.271324,3.42467048 274.09,2.662 C275.908676,1.89932952 277.910656,1.518 280.096,1.518 C282.310678,1.518 284.327324,1.89566289 286.146,2.651 C287.964676,3.40633711 289.52666,4.4806597 290.832,5.874 C292.13734,7.2673403 293.14933,8.94299021 293.868,10.901 C294.58667,12.8590098 294.946,15.0333214 294.946,17.424 Z M292.614,17.424 C292.614,15.2533225 292.313336,13.3026753 291.712,11.572 C291.110664,9.84132468 290.263672,8.37467268 289.171,7.172 C288.078328,5.96932732 286.762008,5.04900319 285.222,4.411 C283.681992,3.77299681 281.973343,3.454 280.096,3.454 C278.247991,3.454 276.557674,3.77299681 275.025,4.411 C273.492326,5.04900319 272.172339,5.96932732 271.065,7.172 C269.957661,8.37467268 269.09967,9.84132468 268.491,11.572 C267.88233,13.3026753 267.578,15.2533225 267.578,17.424 C267.578,19.6093443 267.88233,21.563658 268.491,23.287 C269.09967,25.0103419 269.957661,26.4733273 271.065,27.676 C272.172339,28.8786727 273.492326,29.7953302 275.025,30.426 C276.557674,31.0566698 278.247991,31.372 280.096,31.372 C281.973343,31.372 283.681992,31.0566698 285.222,30.426 C286.762008,29.7953302 288.078328,28.8786727 289.171,27.676 C290.263672,26.4733273 291.110664,25.0103419 291.712,23.287 C292.313336,21.563658 292.614,19.6093443 292.614,17.424 Z M303.372,1.87 C303.577334,1.87 303.738666,1.89566641 303.856,1.947 C303.973334,1.99833359 304.097999,2.11199912 304.23,2.288 L324.382,29.26 C324.338,28.8199978 324.316,28.3946687 324.316,27.984 L324.316,1.87 L326.296,1.87 L326.296,33 L325.218,33 C324.880665,33 324.609334,32.8533348 324.404,32.56 L304.164,5.544 C304.208,5.9840022 304.23,6.40199802 304.23,6.798 L304.23,33 L302.272,33 L302.272,1.87 L303.372,1.87 Z M350.584,5.654 C350.451999,5.90333458 350.261335,6.028 350.012,6.028 C349.821332,6.028 349.575668,5.89233469 349.275,5.621 C348.974332,5.34966531 348.567336,5.04900165 348.054,4.719 C347.540664,4.38899835 346.899004,4.08466806 346.129,3.806 C345.358996,3.52733194 344.409339,3.388 343.28,3.388 C342.150661,3.388 341.157004,3.54933172 340.299,3.872 C339.440996,4.19466828 338.722336,4.63466388 338.143,5.192 C337.563664,5.74933612 337.123668,6.394663 336.823,7.128 C336.522332,7.861337 336.372,8.6313293 336.372,9.438 C336.372,10.4940053 336.595664,11.3666632 337.043,12.056 C337.490336,12.7453368 338.080663,13.3319976 338.814,13.816 C339.547337,14.3000024 340.379662,14.7069983 341.311,15.037 C342.242338,15.3670016 343.199328,15.6933317 344.182,16.016 C345.164672,16.3386683 346.121662,16.6943314 347.053,17.083 C347.984338,17.4716686 348.816663,17.9593304 349.55,18.546 C350.283337,19.1326696 350.873664,19.8549957 351.321,20.713 C351.768336,21.5710043 351.992,22.6379936 351.992,23.914 C351.992,25.2193399 351.768336,26.4476609 351.321,27.599 C350.873664,28.7503391 350.224671,29.7513291 349.374,30.602 C348.523329,31.4526709 347.482006,32.1236642 346.25,32.615 C345.017994,33.1063358 343.610008,33.352 342.026,33.352 C339.972656,33.352 338.205341,32.9890036 336.724,32.263 C335.242659,31.5369964 333.944672,30.5433396 332.83,29.282 L333.446,28.314 C333.622001,28.0939989 333.827332,27.984 334.062,27.984 C334.194001,27.984 334.362666,28.0719991 334.568,28.248 C334.773334,28.4240009 335.022665,28.640332 335.316,28.897 C335.609335,29.1536679 335.961331,29.4323318 336.372,29.733 C336.782669,30.0336682 337.259331,30.312332 337.802,30.569 C338.344669,30.8256679 338.967996,31.0419991 339.672,31.218 C340.376004,31.3940009 341.175329,31.482 342.07,31.482 C343.302006,31.482 344.401995,31.2950019 345.37,30.921 C346.338005,30.5469981 347.155663,30.0373366 347.823,29.392 C348.490337,28.7466634 348.999998,27.9803378 349.352,27.093 C349.704002,26.2056622 349.88,25.2560051 349.88,24.244 C349.88,23.1439945 349.656336,22.2383369 349.209,21.527 C348.761664,20.8156631 348.171337,20.221669 347.438,19.745 C346.704663,19.2683309 345.872338,18.8686683 344.941,18.546 C344.009662,18.2233317 343.052672,17.9080015 342.07,17.6 C341.087328,17.2919985 340.130338,16.9473352 339.199,16.566 C338.267662,16.1846648 337.435337,15.697003 336.702,15.103 C335.968663,14.508997 335.378336,13.7683378 334.931,12.881 C334.483664,11.9936622 334.26,10.8826733 334.26,9.548 C334.26,8.50666146 334.457998,7.50200484 334.854,6.534 C335.250002,5.56599516 335.82933,4.71167037 336.592,3.971 C337.35467,3.23032963 338.296994,2.63633557 339.419,2.189 C340.541006,1.74166443 341.820659,1.518 343.258,1.518 C344.871341,1.518 346.31966,1.7746641 347.603,2.288 C348.88634,2.8013359 350.055995,3.58599472 351.112,4.642 L350.584,5.654 Z" id="MORE.-OPTIONS" fill="#66666A"></path>
            </g>
        </g>
    </g>
</svg>