<?xml version="1.0" encoding="UTF-8"?>
<svg width="161px" height="163px" viewBox="0 0 161 163" version="1.1" xmlns="http://www.w3.org/2000/svg" xmlns:xlink="http://www.w3.org/1999/xlink">
    <!-- Generator: Sketch 52.5 (67469) - http://www.bohemiancoding.com/sketch -->
    <title>Group</title>
    <desc>Created with Sketch.</desc>
    <g id="Page-1" stroke="none" stroke-width="1" fill="none" fill-rule="evenodd">
        <g id="Artboard-Copy-48" transform="translate(-289.000000, -625.000000)" fill-rule="nonzero">
            <g id="Group" transform="translate(289.000000, 625.000000)">
                <path d="M86.4623967,0.503843555 C90.2152899,0.404875118 107.004549,0.206938243 123.300006,2.38424386 C129.028106,2.97805448 134.756206,3.86877042 139.792984,5.1553601 C139.792984,5.1553601 146.903728,6.93679197 148.187613,14.1614879 C148.681415,16.8336357 149.273977,20.3964994 149.669018,24.4542054 C150.16282,29.6005641 150.557861,35.6376388 150.26158,42.5654294 C150.26158,42.5654294 150.26158,42.5654294 150.16282,42.5654294 C149.767778,42.5654294 149.372737,42.5654294 148.977696,42.4664609 C148.878935,42.4664609 148.780175,42.4664609 148.681415,42.4664609 C148.187613,42.3674925 147.792572,42.3674925 147.29877,42.268524 C147.200009,42.268524 147.101249,42.268524 147.002489,42.268524 C146.508687,42.1695556 146.014885,42.1695556 145.521084,42.0705872 C145.521084,42.0705872 145.422323,42.0705872 145.323563,42.0705872 C144.829761,41.9716187 144.43472,41.9716187 143.940918,41.8726503 C143.842158,41.8726503 143.743397,41.8726503 143.644637,41.8726503 C143.150835,41.7736819 142.558273,41.7736819 142.064471,41.6747134 C141.965711,41.6747134 141.866951,41.6747134 141.76819,41.6747134 C141.175628,41.575745 140.681827,41.575745 140.089265,41.4767765 C139.990504,41.4767765 139.990504,41.4767765 139.891744,41.4767765 C139.397942,41.3778081 138.90414,41.3778081 138.311578,41.2788397 C138.212818,41.2788397 138.114058,41.2788397 138.015297,41.2788397 C137.521496,41.1798712 136.928933,41.1798712 136.336371,41.0809028 C136.237611,41.0809028 136.04009,41.0809028 135.94133,41.0809028 C135.348768,40.9819344 134.756206,40.9819344 134.163644,40.8829659 L134.064883,40.8829659 C133.472321,40.7839975 132.879759,40.7839975 132.287197,40.6850291 C132.188437,40.5860606 132.089677,40.5860606 131.892156,40.5860606 C131.299594,40.4870922 130.707032,40.4870922 130.11447,40.3881237 C130.015709,40.3881237 129.818189,40.3881237 129.719428,40.3881237 C129.126866,40.2891553 128.534304,40.2891553 127.941742,40.1901869 C127.842982,40.1901869 127.842982,40.1901869 127.744221,40.1901869 C127.151659,40.0912184 126.559097,40.0912184 125.867775,39.99225 C125.769014,39.99225 125.571494,39.99225 125.472733,39.99225 C124.880171,39.8932816 124.287609,39.8932816 123.596287,39.7943131 C123.497526,39.7943131 123.300006,39.7943131 123.201245,39.7943131 C122.608683,39.6953447 122.016121,39.6953447 121.423559,39.5963762 C121.324799,39.5963762 121.226038,39.5963762 121.127278,39.5963762 C120.435956,39.4974078 119.843394,39.4974078 119.152071,39.3984394 C118.954551,39.3984394 118.85579,39.3984394 118.658269,39.3984394 C117.966947,39.2994709 117.374385,39.2994709 116.683063,39.2005025 C116.584302,39.2005025 116.485542,39.2005025 116.386782,39.2005025 C115.794219,39.2005025 115.102897,39.2005025 114.510335,39.1015341 C114.411575,39.1015341 114.312814,39.1015341 114.214054,39.1015341 C113.621492,39.1015341 112.930169,39.1015341 112.238847,39.0025656 C112.140087,39.0025656 112.041326,39.0025656 111.843806,39.0025656 C111.251244,39.0025656 110.559921,39.0025656 109.868599,38.9035972 C109.769838,38.9035972 109.671078,38.9035972 109.572318,38.9035972 C108.979756,38.9035972 108.288433,38.8046287 107.695871,38.8046287 C107.597111,38.8046287 107.49835,38.8046287 107.39959,38.8046287 C106.807028,38.8046287 106.115706,38.7056603 105.424383,38.7056603 C105.325623,38.7056603 105.226862,38.7056603 105.029342,38.7056603 C104.338019,38.7056603 103.646697,38.6066919 102.955374,38.6066919 L102.856614,38.6066919 C102.165292,38.6066919 101.57273,38.5077234 100.881407,38.5077234 C100.683887,38.5077234 100.585126,38.5077234 100.486366,38.5077234 C99.7950434,38.5077234 99.2024813,38.408755 98.5111589,38.408755 C98.4123986,38.408755 98.2148779,38.408755 98.1161175,38.408755 C97.5235555,38.408755 96.832233,38.3097866 96.1409106,38.3097866 C93.0793399,38.2108181 90.0177692,38.1118497 87.0549588,38.1118497 L87.2524795,0.503843555 C87.2524795,0.503843555 86.9561984,0.503843555 86.4623967,0.503843555 Z M149.372737,55.8271999 C145.817365,83.3404255 133.17604,118.870094 97.4247951,153.014205 C93.968183,156.280164 90.2846998,159.580261 86.4330463,162.846219 L86.3636364,162.119301 L86.8574381,70.3755602 C95.4495882,67.604444 105.226862,64.9322962 115.89298,62.4580852 C128.929345,59.3900637 140.978108,57.2127581 149.372737,55.8271999 Z" id="shield_r_gray" fill="#65656B"></path>
                <path d="M51.3913043,126.735765 C39.2670807,114.066698 29.5279503,97.2405925 45.7267081,84.1756168 C76.136646,59.7282759 160.21118,49.0387503 160.21118,49.0387503 C160.21118,49.0387503 124.63354,44.5847813 95.515528,43.7929646 C41.4534161,42.3083083 -11.3167702,51.0182921 2.89440994,89.6193566 C12.0372671,114.561583 44.7329193,132.278482 62.2236025,140.097672 C57.7515528,135.247794 54.173913,130.595871 51.3913043,126.735765 Z" id="Shape_13_-path" fill="#FF8D20"></path>
                <path d="M22.6188218,46.6722545 C22.1222701,38.0352328 22.4202011,30.4902483 22.9167529,24.4344055 C23.3139942,20.2648088 23.9098563,16.7901449 24.406408,14.0104138 C25.6974425,6.76325762 32.8477873,4.97628761 32.8477873,4.97628761 C38.0119253,3.68569815 43.7719253,2.79221315 49.5319253,2.09728037 C66.1167529,0.211034245 82.9995115,0.409586468 86.7733046,0.50886258 C87.2698563,0.50886258 87.5677873,0.50886258 87.5677873,0.50886258 L87.3691667,38.233785 C59.4629598,38.0352328 37.8133046,40.91424 22.6188218,46.6722545 Z M86.9333576,70.3235371 L86.4368059,162.15394 L86.4368059,162.848873 C82.5637025,159.572762 78.8892197,156.29665 75.4133576,153.020538 C74.3209439,152.027777 73.3278404,151.035016 72.334737,150.042255 C68.8588749,146.666867 65.6809439,143.291479 62.9002542,140.015368 C58.4312887,135.051562 54.8561163,130.385585 52.0754266,126.513816 C47.010599,119.564489 44.4285301,114.898511 44.4285301,114.898511 C44.3292197,114.501407 44.130599,114.203578 44.0312887,113.806474 C37.3774956,99.6099901 45.9181852,90.9729684 49.294737,88.3917894 C49.4933576,88.2925133 49.592668,88.0939611 49.7912887,87.994685 C51.9761163,86.3069911 54.6574956,84.5200211 57.6368059,82.7330511 C58.3319783,82.2366705 58.8285301,82.0381183 58.8285301,82.0381183 C66.1774956,77.9677977 75.6119783,73.9967533 86.9333576,70.3235371 Z" id="ring_shield_orange" fill="#9D9D9F"></path>
            </g>
        </g>
    </g>
</svg>