<?xml version="1.0" encoding="UTF-8"?>
<svg width="116px" height="19px" viewBox="0 0 116 19" version="1.1" xmlns="http://www.w3.org/2000/svg" xmlns:xlink="http://www.w3.org/1999/xlink">
    <!-- Generator: Sketch 52.5 (67469) - http://www.bohemiancoding.com/sketch -->
    <title>HIGH END 2</title>
    <desc>Created with Sketch.</desc>
    <defs>
        <path d="M14.048,0.96 C14.5120023,0.96 14.8799986,1.0999986 15.152,1.38 C15.4240014,1.6600014 15.56,2.03199768 15.56,2.496 L15.56,16.584 C15.56,17.0480023 15.4200014,17.4239986 15.14,17.712 C14.8599986,18.0000014 14.4960022,18.144 14.048,18.144 C13.5839977,18.144 13.2160014,18.0000014 12.944,17.712 C12.6719986,17.4239986 12.536,17.0480023 12.536,16.584 L12.536,10.656 L3.872,10.656 L3.872,16.584 C3.872,17.0480023 3.7320014,17.4239986 3.452,17.712 C3.1719986,18.0000014 2.80000232,18.144 2.336,18.144 C1.88799776,18.144 1.5240014,18.0000014 1.244,17.712 C0.9639986,17.4239986 0.824,17.0480023 0.824,16.584 L0.824,2.496 C0.824,2.03199768 0.95999864,1.6600014 1.232,1.38 C1.50400136,1.0999986 1.87199768,0.96 2.336,0.96 C2.80000232,0.96 3.1719986,1.0999986 3.452,1.38 C3.7320014,1.6600014 3.872,2.03199768 3.872,2.496 L3.872,8.16 L12.536,8.16 L12.536,2.496 C12.536,2.03199768 12.6719986,1.6600014 12.944,1.38 C13.2160014,1.0999986 13.5839977,0.96 14.048,0.96 Z M20.744,18.144 C20.2799977,18.144 19.9080014,18.0000014 19.628,17.712 C19.3479986,17.4239986 19.208,17.0480023 19.208,16.584 L19.208,2.496 C19.208,2.03199768 19.3479986,1.6600014 19.628,1.38 C19.9080014,1.0999986 20.2799977,0.96 20.744,0.96 C21.2240024,0.96 21.6039986,1.0999986 21.884,1.38 C22.1640014,1.6600014 22.304,2.03199768 22.304,2.496 L22.304,16.584 C22.304,17.0480023 22.1640014,17.4239986 21.884,17.712 C21.6039986,18.0000014 21.2240024,18.144 20.744,18.144 Z M38.84,8.856 C39.2080018,8.856 39.5039989,8.96399892 39.728,9.18 C39.9520011,9.39600108 40.064,9.67999824 40.064,10.032 L40.064,15.192 C40.064,15.9280037 39.968001,16.4479985 39.776,16.752 C39.583999,17.0560015 39.192003,17.303999 38.6,17.496 C37.9599968,17.7200011 37.2160042,17.8959994 36.368,18.024 C35.5199958,18.1520006 34.7040039,18.216 33.92,18.216 C32.1759913,18.216 30.6640064,17.8720034 29.384,17.184 C28.1039936,16.4959966 27.1240034,15.5000065 26.444,14.196 C25.7639966,12.8919935 25.424,11.336009 25.424,9.528 C25.424,7.75199112 25.7639966,6.21200652 26.444,4.908 C27.1240034,3.60399348 28.0879938,2.60400348 29.336,1.908 C30.5840062,1.21199652 32.0559915,0.864 33.752,0.864 C36.0080113,0.864 37.8559928,1.47199392 39.296,2.688 C39.488001,2.86400088 39.6279996,3.03999912 39.716,3.216 C39.8040004,3.39200088 39.848,3.5999988 39.848,3.84 C39.848,4.19200176 39.752001,4.4879988 39.56,4.728 C39.367999,4.9680012 39.1360014,5.088 38.864,5.088 C38.6879991,5.088 38.5280007,5.06000028 38.384,5.004 C38.2399993,4.94799972 38.072001,4.85600064 37.88,4.728 C37.1759965,4.23199752 36.520003,3.884001 35.912,3.684 C35.303997,3.483999 34.6160038,3.384 33.848,3.384 C32.1039913,3.384 30.7880044,3.89999484 29.9,4.932 C29.0119956,5.96400516 28.568,7.49598984 28.568,9.528 C28.568,13.6880208 30.3919818,15.768 34.04,15.768 C35.1280054,15.768 36.2159946,15.6160015 37.304,15.312 L37.304,11.064 L34.592,11.064 C34.2079981,11.064 33.9080011,10.968001 33.692,10.776 C33.4759989,10.583999 33.368,10.3120018 33.368,9.96 C33.368,9.60799824 33.4759989,9.33600096 33.692,9.144 C33.9080011,8.95199904 34.2079981,8.856 34.592,8.856 L38.84,8.856 Z M56.768,0.96 C57.2320023,0.96 57.5999986,1.0999986 57.872,1.38 C58.1440014,1.6600014 58.28,2.03199768 58.28,2.496 L58.28,16.584 C58.28,17.0480023 58.1400014,17.4239986 57.86,17.712 C57.5799986,18.0000014 57.2160022,18.144 56.768,18.144 C56.3039977,18.144 55.9360014,18.0000014 55.664,17.712 C55.3919986,17.4239986 55.256,17.0480023 55.256,16.584 L55.256,10.656 L46.592,10.656 L46.592,16.584 C46.592,17.0480023 46.4520014,17.4239986 46.172,17.712 C45.8919986,18.0000014 45.5200023,18.144 45.056,18.144 C44.6079978,18.144 44.2440014,18.0000014 43.964,17.712 C43.6839986,17.4239986 43.544,17.0480023 43.544,16.584 L43.544,2.496 C43.544,2.03199768 43.6799986,1.6600014 43.952,1.38 C44.2240014,1.0999986 44.5919977,0.96 45.056,0.96 C45.5200023,0.96 45.8919986,1.0999986 46.172,1.38 C46.4520014,1.6600014 46.592,2.03199768 46.592,2.496 L46.592,8.16 L55.256,8.16 L55.256,2.496 C55.256,2.03199768 55.3919986,1.6600014 55.664,1.38 C55.9360014,1.0999986 56.3039977,0.96 56.768,0.96 Z M69.92,18 C69.4559977,18 69.0920013,17.8720013 68.828,17.616 C68.5639987,17.3599987 68.432,17.0000023 68.432,16.536 L68.432,2.544 C68.432,2.07999768 68.5639987,1.72000128 68.828,1.464 C69.0920013,1.20799872 69.4559977,1.08 69.92,1.08 L78.584,1.08 C79.0480023,1.08 79.4079987,1.18399896 79.664,1.392 C79.9200013,1.60000104 80.048,1.89599808 80.048,2.28 C80.048,2.680002 79.9200013,2.98799892 79.664,3.204 C79.4079987,3.42000108 79.0480023,3.528 78.584,3.528 L71.456,3.528 L71.456,8.184 L78.104,8.184 C78.5680023,8.184 78.9279987,8.28799896 79.184,8.496 C79.4400013,8.70400104 79.568,9.007998 79.568,9.408 C79.568,9.79200192 79.4400013,10.087999 79.184,10.296 C78.9279987,10.504001 78.5680023,10.608 78.104,10.608 L71.456,10.608 L71.456,15.552 L78.584,15.552 C79.0480023,15.552 79.4079987,15.6599989 79.664,15.876 C79.9200013,16.0920011 80.048,16.399998 80.048,16.8 C80.048,17.1840019 79.9200013,17.479999 79.664,17.688 C79.4079987,17.896001 79.0480023,18 78.584,18 L69.92,18 Z M95.384,0.96 C95.8320022,0.96 96.1879987,1.0999986 96.452,1.38 C96.7160013,1.6600014 96.848,2.03199768 96.848,2.496 L96.848,16.584 C96.848,17.0480023 96.7120014,17.4239986 96.44,17.712 C96.1679986,18.0000014 95.8160022,18.144 95.384,18.144 C94.8719974,18.144 94.4800014,17.9600018 94.208,17.592 L85.448,6.192 L85.448,16.584 C85.448,17.0480023 85.3200013,17.4239986 85.064,17.712 C84.8079987,18.0000014 84.4560022,18.144 84.008,18.144 C83.5599978,18.144 83.2080013,18.0000014 82.952,17.712 C82.6959987,17.4239986 82.568,17.0480023 82.568,16.584 L82.568,2.496 C82.568,2.03199768 82.7039986,1.6600014 82.976,1.38 C83.2480014,1.0999986 83.6079978,0.96 84.056,0.96 C84.5520025,0.96 84.9359986,1.14399816 85.208,1.512 L93.944,12.864 L93.944,2.496 C93.944,2.03199768 94.0759987,1.6600014 94.34,1.38 C94.6040013,1.0999986 94.9519978,0.96 95.384,0.96 Z M101.984,18 C101.519998,18 101.156001,17.8720013 100.892,17.616 C100.627999,17.3599987 100.496,17.0000023 100.496,16.536 L100.496,2.544 C100.496,2.07999768 100.627999,1.72000128 100.892,1.464 C101.156001,1.20799872 101.519998,1.08 101.984,1.08 L106.736,1.08 C109.504014,1.08 111.651992,1.8199926 113.18,3.3 C114.708008,4.7800074 115.472,6.85598664 115.472,9.528 C115.472,12.2160134 114.708008,14.2999926 113.18,15.78 C111.651992,17.2600074 109.504014,18 106.736,18 L101.984,18 Z M106.544,15.48 C110.432019,15.48 112.376,13.4960198 112.376,9.528 C112.376,5.57598024 110.432019,3.6 106.544,3.6 L103.592,3.6 L103.592,15.48 L106.544,15.48 Z" id="path-1"></path>
    </defs>
    <g id="Page-1" stroke="none" stroke-width="1" fill="none" fill-rule="evenodd">
        <g id="HIGH-END-2">
            <g id="HIGH-END">
                <use fill="#000000" xlink:href="#path-1"></use>
                <use fill="#969696" xlink:href="#path-1"></use>
            </g>
        </g>
    </g>
</svg>