<?xml version="1.0" encoding="UTF-8" standalone="no"?>
<!DOCTYPE svg PUBLIC "-//W3C//DTD SVG 1.1//EN" "http://www.w3.org/Graphics/SVG/1.1/DTD/svg11.dtd">
<svg width="100%" height="100%" viewBox="0 0 663 184" version="1.1" xmlns="http://www.w3.org/2000/svg" xmlns:xlink="http://www.w3.org/1999/xlink" xml:space="preserve" xmlns:serif="http://www.serif.com/" style="fill-rule:evenodd;clip-rule:evenodd;stroke-linejoin:round;stroke-miterlimit:1.41421;">
    <path id="HOSTED-EMAIL-SECURIT" d="M173.988,58.96C172.76,58.96 171.699,58.573 170.805,57.799C169.911,57.025 169.464,55.957 169.464,54.596L169.464,6.068C169.464,4.707 169.911,3.633 170.805,2.845C171.699,2.058 172.774,1.664 174.028,1.664C175.256,1.664 176.317,2.051 177.211,2.825C178.106,3.599 178.553,4.68 178.553,6.068L178.553,25.647L206.3,25.647L206.3,6.068C206.3,4.707 206.747,3.633 207.641,2.845C208.535,2.058 209.61,1.664 210.864,1.664C212.119,1.664 213.187,2.051 214.067,2.825C214.948,3.599 215.389,4.68 215.389,6.068L215.389,54.596C215.389,55.984 214.942,57.058 214.047,57.819C213.153,58.58 212.079,58.96 210.824,58.96C209.596,58.96 208.535,58.573 207.641,57.799C206.747,57.025 206.3,55.957 206.3,54.596L206.3,32.895L178.553,32.895L178.553,54.596C178.553,55.984 178.106,57.058 177.211,57.819C176.317,58.58 175.243,58.96 173.988,58.96ZM254.507,52.634C260.219,52.634 264.61,50.625 267.68,46.608C270.749,42.591 272.284,37.112 272.284,30.172C272.284,23.258 270.749,17.786 267.68,13.756C264.61,9.725 260.219,7.71 254.507,7.71C248.768,7.71 244.364,9.725 241.294,13.756C238.224,17.786 236.689,23.258 236.689,30.172C236.689,37.112 238.231,42.591 241.314,46.608C244.397,50.625 248.795,52.634 254.507,52.634ZM254.507,59.881C248.821,59.881 243.903,58.653 239.752,56.197C235.602,53.742 232.445,50.285 230.283,45.827C228.121,41.369 227.04,36.151 227.04,30.172C227.04,24.193 228.121,18.974 230.283,14.517C232.445,10.059 235.602,6.602 239.752,4.146C243.903,1.691 248.821,0.463 254.507,0.463C263.075,0.463 269.782,3.145 274.626,8.511C279.471,13.876 281.894,21.096 281.894,30.172C281.894,39.247 279.471,46.468 274.626,51.833C269.782,57.198 263.075,59.881 254.507,59.881ZM312.283,59.881C303.875,59.881 297.135,57.625 292.063,53.114C291.877,52.954 291.743,52.761 291.663,52.534C291.583,52.307 291.543,52.06 291.543,51.793C291.543,50.805 291.983,49.778 292.864,48.71C293.745,47.642 294.639,47.108 295.547,47.108C295.734,47.108 295.907,47.135 296.067,47.188C296.228,47.242 296.388,47.322 296.548,47.429C301.353,50.899 306.678,52.634 312.523,52.634C316.314,52.634 319.403,51.9 321.792,50.432C324.181,48.964 325.376,46.828 325.376,44.025C325.376,41.543 324.715,39.661 323.394,38.38C322.073,37.099 319.851,35.938 316.728,34.896L304.556,30.853C300.231,29.411 297.042,27.563 294.986,25.307C292.931,23.052 291.903,19.989 291.903,16.118C291.903,12.915 292.831,10.112 294.686,7.71C296.541,5.308 299.037,3.499 302.173,2.285C305.31,1.07 308.853,0.463 312.804,0.463C316.621,0.463 320.278,1.057 323.774,2.245C327.271,3.432 329.954,4.84 331.822,6.469C332.49,7.029 332.823,7.763 332.823,8.671C332.823,9.605 332.49,10.453 331.822,11.213C331.155,11.974 330.341,12.354 329.38,12.354C328.766,12.354 328.152,12.168 327.538,11.794C323,9.071 318.316,7.71 313.484,7.71C309.614,7.71 306.511,8.377 304.175,9.712C301.84,11.047 300.672,13.075 300.672,15.798C300.672,17.746 301.219,19.308 302.313,20.482C303.408,21.657 305.13,22.618 307.479,23.365L319.61,27.289C322.039,28.09 324.088,28.917 325.756,29.771C327.425,30.626 328.933,31.667 330.281,32.895C331.629,34.122 332.63,35.584 333.284,37.279C333.938,38.974 334.265,40.929 334.265,43.145C334.265,46.641 333.357,49.658 331.542,52.193C329.727,54.729 327.171,56.644 323.875,57.939C320.578,59.234 316.714,59.881 312.283,59.881ZM362.212,59.04C360.984,59.04 359.916,58.646 359.009,57.859C358.101,57.071 357.647,55.984 357.647,54.596L357.647,8.871L343.153,8.871C342.032,8.871 341.151,8.511 340.511,7.79C339.87,7.069 339.55,6.229 339.55,5.268C339.55,4.28 339.87,3.426 340.511,2.705C341.151,1.984 342.032,1.624 343.153,1.624L381.15,1.624C382.271,1.624 383.152,1.984 383.793,2.705C384.434,3.426 384.754,4.267 384.754,5.228C384.754,6.215 384.434,7.069 383.793,7.79C383.152,8.511 382.271,8.871 381.15,8.871L366.776,8.871L366.776,54.596C366.776,55.984 366.323,57.071 365.415,57.859C364.507,58.646 363.44,59.04 362.212,59.04ZM397.286,59C396.138,59 395.104,58.553 394.183,57.659C393.262,56.764 392.802,55.743 392.802,54.596L392.802,6.028C392.802,4.854 393.222,3.826 394.063,2.945C394.904,2.064 395.925,1.624 397.126,1.624L426.595,1.624C427.689,1.624 428.543,1.984 429.157,2.705C429.771,3.426 430.078,4.267 430.078,5.228C430.078,6.188 429.771,7.036 429.157,7.77C428.543,8.504 427.689,8.871 426.595,8.871L401.891,8.871L401.891,26.048L425.153,26.048C426.301,26.048 427.182,26.395 427.796,27.089C428.41,27.783 428.717,28.61 428.717,29.571C428.717,30.506 428.403,31.326 427.776,32.034C427.149,32.741 426.274,33.095 425.153,33.095L401.891,33.095L401.891,51.793L427.556,51.793C428.677,51.793 429.544,52.16 430.158,52.894C430.772,53.628 431.079,54.476 431.079,55.437C431.079,56.371 430.772,57.198 430.158,57.919C429.544,58.64 428.677,59 427.556,59L397.286,59ZM447.295,58.92C446.04,58.92 444.966,58.493 444.072,57.639C443.178,56.785 442.73,55.743 442.73,54.516L442.73,6.028C442.73,4.8 443.178,3.753 444.072,2.885C444.966,2.018 446.04,1.584 447.295,1.584L461.028,1.584C471.145,1.584 478.819,4.053 484.051,8.991C489.283,13.929 491.898,21.083 491.898,30.452C491.898,39.661 489.256,46.708 483.971,51.593C478.686,56.478 471.212,58.92 461.549,58.92L447.295,58.92ZM451.819,51.713L462.069,51.713C465.886,51.713 469.11,51.272 471.739,50.392C474.368,49.511 476.47,48.149 478.045,46.308C479.62,44.466 480.754,42.25 481.448,39.661C482.142,37.072 482.489,33.949 482.489,30.292C482.489,22.551 480.748,17.032 477.264,13.736C473.781,10.439 468.289,8.791 460.788,8.791L451.819,8.791L451.819,51.713ZM5.003,183C3.856,183 2.821,182.553 1.9,181.659C0.979,180.764 0.519,179.743 0.519,178.596L0.519,130.028C0.519,128.854 0.939,127.826 1.78,126.945C2.621,126.064 3.642,125.624 4.843,125.624L34.312,125.624C35.406,125.624 36.261,125.984 36.875,126.705C37.488,127.426 37.795,128.267 37.795,129.228C37.795,130.188 37.488,131.036 36.875,131.77C36.261,132.504 35.406,132.871 34.312,132.871L9.608,132.871L9.608,150.048L32.871,150.048C34.018,150.048 34.899,150.395 35.513,151.089C36.127,151.783 36.434,152.61 36.434,153.571C36.434,154.506 36.12,155.326 35.493,156.034C34.866,156.741 33.992,157.095 32.871,157.095L9.608,157.095L9.608,175.793L35.273,175.793C36.394,175.793 37.262,176.16 37.875,176.894C38.489,177.628 38.796,178.476 38.796,179.437C38.796,180.371 38.489,181.198 37.875,181.919C37.262,182.64 36.394,183 35.273,183L5.003,183ZM81.558,181.358C80.49,181.358 79.469,181.011 78.495,180.317C77.521,179.623 76.767,178.636 76.233,177.354L58.896,137.355L58.896,179.156C58.896,180.144 58.482,180.911 57.655,181.458C56.827,182.006 55.846,182.279 54.712,182.279C53.577,182.279 52.597,182.006 51.769,181.458C50.942,180.911 50.528,180.144 50.528,179.156L50.528,132.991C50.528,131.283 51.208,129.868 52.57,128.747C53.931,127.626 55.533,127.065 57.375,127.065C58.896,127.065 60.324,127.499 61.659,128.367C62.993,129.234 64.034,130.535 64.782,132.271L81.558,170.428L98.334,132.271C99.082,130.535 100.123,129.234 101.458,128.367C102.792,127.499 104.22,127.065 105.742,127.065C107.584,127.065 109.185,127.626 110.546,128.747C111.908,129.868 112.588,131.283 112.588,132.991L112.588,179.156C112.588,180.144 112.175,180.911 111.347,181.458C110.52,182.006 109.539,182.279 108.404,182.279C107.27,182.279 106.289,182.006 105.461,181.458C104.634,180.911 104.22,180.144 104.22,179.156L104.22,137.355L86.843,177.354C86.309,178.636 85.562,179.623 84.601,180.317C83.64,181.011 82.626,181.358 81.558,181.358ZM159.915,162.46L148.944,133.952L137.933,162.46L159.915,162.46ZM166.801,180.357L162.397,168.946L135.451,168.946L131.046,180.357C130.673,181.345 130.119,182.079 129.385,182.56C128.651,183.04 127.83,183.28 126.922,183.28C126.095,183.28 125.294,183.08 124.52,182.68C123.105,181.906 122.398,180.798 122.398,179.356C122.398,178.849 122.505,178.342 122.718,177.835L141.497,131.029C142.431,128.68 143.479,127.119 144.64,126.345C145.801,125.571 147.236,125.184 148.944,125.184C150.625,125.184 152.047,125.571 153.208,126.345C154.369,127.119 155.417,128.68 156.351,131.029L175.129,177.835C175.343,178.369 175.45,178.889 175.45,179.396C175.45,180.144 175.229,180.818 174.789,181.418C174.349,182.019 173.788,182.479 173.107,182.8C172.427,183.12 171.699,183.28 170.925,183.28C169.137,183.147 167.762,182.173 166.801,180.357ZM190.064,182.96C188.836,182.96 187.782,182.573 186.901,181.799C186.02,181.025 185.58,179.957 185.58,178.596L185.58,129.988C185.58,128.6 186.027,127.519 186.921,126.745C187.815,125.971 188.889,125.584 190.144,125.584C191.372,125.584 192.433,125.971 193.327,126.745C194.221,127.519 194.668,128.6 194.668,129.988L194.668,178.596C194.668,179.984 194.215,181.058 193.307,181.819C192.4,182.58 191.319,182.96 190.064,182.96ZM214.047,183C212.819,183 211.745,182.56 210.824,181.679C209.903,180.798 209.443,179.73 209.443,178.476L209.443,130.068C209.443,128.68 209.897,127.599 210.804,126.825C211.712,126.051 212.793,125.664 214.047,125.664C215.275,125.664 216.33,126.051 217.21,126.825C218.091,127.599 218.532,128.68 218.532,130.068L218.532,175.793L242.996,175.793C244.117,175.793 244.991,176.153 245.618,176.874C246.245,177.595 246.559,178.436 246.559,179.396C246.559,180.357 246.245,181.198 245.618,181.919C244.991,182.64 244.117,183 242.996,183L214.047,183ZM295.927,183.881C287.519,183.881 280.779,181.625 275.708,177.114C275.521,176.954 275.387,176.761 275.307,176.534C275.227,176.307 275.187,176.06 275.187,175.793C275.187,174.805 275.627,173.778 276.508,172.71C277.389,171.642 278.283,171.108 279.191,171.108C279.378,171.108 279.551,171.135 279.711,171.188C279.872,171.242 280.032,171.322 280.192,171.429C284.997,174.899 290.322,176.634 296.167,176.634C299.958,176.634 303.048,175.9 305.437,174.432C307.826,172.964 309.02,170.828 309.02,168.025C309.02,165.543 308.359,163.661 307.038,162.38C305.717,161.099 303.495,159.938 300.372,158.896L288.2,154.853C283.875,153.411 280.686,151.563 278.63,149.307C276.575,147.052 275.547,143.989 275.547,140.118C275.547,136.915 276.475,134.112 278.33,131.71C280.185,129.308 282.681,127.499 285.817,126.285C288.954,125.07 292.497,124.463 296.448,124.463C300.265,124.463 303.922,125.057 307.418,126.245C310.915,127.432 313.598,128.84 315.466,130.469C316.134,131.029 316.467,131.763 316.467,132.671C316.467,133.605 316.134,134.453 315.466,135.213C314.799,135.974 313.985,136.354 313.024,136.354C312.41,136.354 311.796,136.168 311.182,135.794C306.644,133.071 301.96,131.71 297.128,131.71C293.258,131.71 290.155,132.377 287.819,133.712C285.484,135.047 284.316,137.075 284.316,139.798C284.316,141.746 284.863,143.308 285.958,144.482C287.052,145.657 288.774,146.618 291.123,147.365L303.254,151.289C305.683,152.09 307.732,152.917 309.4,153.771C311.069,154.626 312.577,155.667 313.925,156.895C315.273,158.122 316.274,159.584 316.928,161.279C317.582,162.974 317.909,164.929 317.909,167.145C317.909,170.641 317.001,173.658 315.186,176.193C313.371,178.729 310.815,180.644 307.519,181.939C304.222,183.234 300.358,183.881 295.927,183.881ZM333.644,183C332.496,183 331.462,182.553 330.541,181.659C329.62,180.764 329.16,179.743 329.16,178.596L329.16,130.028C329.16,128.854 329.58,127.826 330.421,126.945C331.262,126.064 332.283,125.624 333.484,125.624L362.953,125.624C364.047,125.624 364.901,125.984 365.515,126.705C366.129,127.426 366.436,128.267 366.436,129.228C366.436,130.188 366.129,131.036 365.515,131.77C364.901,132.504 364.047,132.871 362.953,132.871L338.249,132.871L338.249,150.048L361.511,150.048C362.659,150.048 363.54,150.395 364.154,151.089C364.768,151.783 365.075,152.61 365.075,153.571C365.075,154.506 364.761,155.326 364.134,156.034C363.507,156.741 362.632,157.095 361.511,157.095L338.249,157.095L338.249,175.793L363.914,175.793C365.035,175.793 365.902,176.16 366.516,176.894C367.13,177.628 367.437,178.476 367.437,179.437C367.437,180.371 367.13,181.198 366.516,181.919C365.902,182.64 365.035,183 363.914,183L333.644,183ZM403.512,183.881C398.147,183.881 393.422,182.6 389.338,180.037C385.254,177.475 382.145,173.965 380.009,169.507C377.874,165.049 376.806,160.004 376.806,154.372C376.806,148.606 377.927,143.468 380.169,138.957C382.412,134.446 385.635,130.903 389.839,128.327C394.043,125.751 398.881,124.463 404.353,124.463C409.478,124.463 414.323,125.691 418.887,128.146C419.608,128.52 420.142,128.981 420.489,129.528C420.836,130.075 421.009,130.656 421.009,131.27C421.009,131.883 420.849,132.477 420.529,133.051C420.208,133.625 419.775,134.086 419.228,134.433C418.68,134.78 418.1,134.953 417.486,134.953C417.272,134.953 417.052,134.933 416.825,134.893C416.598,134.853 416.378,134.78 416.165,134.673L414.923,134.052C414.203,133.692 413.589,133.418 413.082,133.231C412.574,133.045 411.88,132.811 411,132.531C410.119,132.25 409.144,132.044 408.077,131.91C407.009,131.777 405.875,131.71 404.673,131.71C401.63,131.71 398.934,132.277 396.585,133.412C394.236,134.546 392.328,136.128 390.86,138.156C389.392,140.185 388.284,142.554 387.537,145.263C386.789,147.973 386.416,150.969 386.416,154.252C386.416,157.535 386.789,160.525 387.537,163.221C388.284,165.917 389.405,168.272 390.9,170.288C392.395,172.303 394.343,173.864 396.746,174.972C399.148,176.08 401.911,176.634 405.034,176.634C406.635,176.634 408.203,176.44 409.738,176.053C411.273,175.666 412.501,175.259 413.422,174.832C414.343,174.405 415.497,173.818 416.885,173.07C417.419,172.777 417.953,172.63 418.487,172.63C419.394,172.63 420.168,172.984 420.809,173.691C421.45,174.398 421.77,175.219 421.77,176.153C421.77,177.515 421.089,178.636 419.728,179.517C415.137,182.426 409.732,183.881 403.512,183.881ZM456.364,183.881C453.881,183.881 451.512,183.614 449.257,183.08C447.001,182.546 444.906,181.719 442.971,180.598C441.035,179.477 439.361,178.102 437.946,176.474C436.531,174.845 435.417,172.89 434.603,170.608C433.788,168.326 433.381,165.81 433.381,163.061L433.381,129.828C433.381,128.467 433.828,127.399 434.723,126.625C435.617,125.851 436.691,125.464 437.946,125.464C439.174,125.464 440.241,125.844 441.149,126.605C442.056,127.366 442.51,128.44 442.51,129.828L442.51,162.82C442.51,165.143 442.904,167.211 443.691,169.026C444.479,170.841 445.533,172.29 446.854,173.371C448.176,174.452 449.644,175.266 451.259,175.813C452.874,176.36 454.575,176.634 456.364,176.634C457.778,176.634 459.153,176.467 460.488,176.133C461.822,175.8 463.084,175.266 464.271,174.532C465.459,173.798 466.5,172.903 467.395,171.849C468.289,170.795 468.996,169.493 469.517,167.945C470.037,166.397 470.297,164.689 470.297,162.82L470.297,129.828C470.297,128.467 470.751,127.399 471.659,126.625C472.566,125.851 473.647,125.464 474.902,125.464C476.13,125.464 477.191,125.844 478.085,126.605C478.979,127.366 479.426,128.44 479.426,129.828L479.426,163.061C479.426,166.477 478.806,169.534 477.564,172.229C476.323,174.925 474.635,177.108 472.5,178.776C470.364,180.444 467.928,181.712 465.192,182.58C462.456,183.447 459.514,183.881 456.364,183.881ZM498.004,182.96C496.777,182.96 495.715,182.58 494.821,181.819C493.927,181.058 493.48,179.997 493.48,178.636L493.48,130.068C493.48,128.84 493.927,127.793 494.821,126.925C495.715,126.058 496.79,125.624 498.044,125.624L515.662,125.624C529.355,125.624 536.202,130.469 536.202,140.158C536.202,143.495 535.161,146.331 533.079,148.667C530.997,151.002 527.887,152.53 523.75,153.251L523.75,153.411C530.289,154.799 533.973,159.163 534.8,166.504L536.162,178.396C536.188,178.582 536.202,178.756 536.202,178.916C536.202,180.117 535.775,181.091 534.92,181.839C534.066,182.586 533.065,182.96 531.917,182.96C530.716,182.96 529.635,182.613 528.674,181.919C527.713,181.225 527.166,180.237 527.033,178.956L525.832,168.025C525.591,165.81 525.291,164.068 524.931,162.8C524.57,161.532 523.996,160.451 523.209,159.557C522.422,158.663 521.407,158.056 520.166,157.735C518.925,157.415 517.29,157.255 515.261,157.255L502.569,157.255L502.569,178.636C502.569,179.997 502.115,181.058 501.208,181.819C500.3,182.58 499.232,182.96 498.004,182.96ZM502.569,150.248L513.059,150.248C514.661,150.248 516.042,150.201 517.203,150.108C518.364,150.014 519.612,149.788 520.947,149.427C522.281,149.067 523.362,148.566 524.19,147.926C525.017,147.285 525.711,146.398 526.272,145.263C526.833,144.129 527.113,142.761 527.113,141.159C527.113,140.011 526.966,138.997 526.672,138.116C526.379,137.235 526.025,136.501 525.611,135.914C525.198,135.327 524.624,134.833 523.89,134.433C523.156,134.032 522.482,133.732 521.868,133.532C521.254,133.332 520.446,133.171 519.445,133.051C518.444,132.931 517.637,132.864 517.023,132.851C516.409,132.838 515.582,132.831 514.541,132.831L502.569,132.831L502.569,150.248ZM554.139,182.96C552.911,182.96 551.857,182.573 550.976,181.799C550.095,181.025 549.655,179.957 549.655,178.596L549.655,129.988C549.655,128.6 550.102,127.519 550.996,126.745C551.89,125.971 552.965,125.584 554.219,125.584C555.447,125.584 556.508,125.971 557.402,126.745C558.297,127.519 558.744,128.6 558.744,129.988L558.744,178.596C558.744,179.984 558.29,181.058 557.382,181.819C556.475,182.58 555.394,182.96 554.139,182.96ZM590.214,183.04C588.986,183.04 587.919,182.646 587.011,181.859C586.104,181.071 585.65,179.984 585.65,178.596L585.65,132.871L571.156,132.871C570.035,132.871 569.154,132.511 568.513,131.79C567.873,131.069 567.552,130.229 567.552,129.268C567.552,128.28 567.873,127.426 568.513,126.705C569.154,125.984 570.035,125.624 571.156,125.624L609.153,125.624C610.274,125.624 611.155,125.984 611.795,126.705C612.436,127.426 612.756,128.267 612.756,129.228C612.756,130.215 612.436,131.069 611.795,131.79C611.155,132.511 610.274,132.871 609.153,132.871L594.779,132.871L594.779,178.596C594.779,179.984 594.325,181.071 593.417,181.859C592.51,182.646 591.442,183.04 590.214,183.04ZM635.058,178.596L635.058,159.337L617.321,131.79C617.214,131.63 617.121,131.463 617.041,131.29C616.96,131.116 616.894,130.949 616.84,130.789C616.787,130.629 616.747,130.469 616.72,130.309C616.694,130.148 616.68,129.988 616.68,129.828C616.68,129.508 616.727,129.194 616.82,128.887C616.914,128.58 617.041,128.293 617.201,128.026C617.361,127.759 617.548,127.506 617.761,127.266C617.975,127.025 618.222,126.812 618.502,126.625C618.782,126.438 619.069,126.278 619.363,126.145C619.656,126.011 619.97,125.911 620.304,125.844C620.637,125.778 620.964,125.744 621.285,125.744C622.886,125.744 624.154,126.492 625.088,127.986L640.103,152.25L655.358,127.626C656.185,126.265 657.347,125.584 658.841,125.584C659.322,125.584 659.796,125.671 660.263,125.844C660.73,126.018 661.144,126.258 661.504,126.565C661.864,126.872 662.151,127.239 662.365,127.666C662.578,128.093 662.685,128.547 662.685,129.027C662.685,129.721 662.458,130.429 662.004,131.149L644.147,159.017L644.147,178.596C644.147,179.53 643.92,180.337 643.466,181.018C643.013,181.699 642.452,182.193 641.785,182.5C641.117,182.806 640.383,182.96 639.583,182.96C638.355,182.96 637.294,182.58 636.399,181.819C635.505,181.058 635.058,179.984 635.058,178.596Z" style="fill:rgb(113,117,126);"/>
</svg>
