<?xml version="1.0" encoding="UTF-8"?>
<svg width="858px" height="523px" viewBox="0 0 858 523" version="1.1" xmlns="http://www.w3.org/2000/svg" xmlns:xlink="http://www.w3.org/1999/xlink">
    <!-- Generator: Sketch 52.5 (67469) - http://www.bohemiancoding.com/sketch -->
    <title>Icons</title>
    <desc>Created with Sketch.</desc>
    <g id="Page-1" stroke="none" stroke-width="1" fill="none" fill-rule="evenodd">
        <g id="Icons">
            <g id="Icon_Malware" transform="translate(789.000000, 0.000000)" fill="#0DB6A3" fill-rule="nonzero">
                <path d="M14.9047382,17.0260676 L14.9047382,18.9250862 C14.9047382,19.1238304 15.0659157,19.2849444 15.2647382,19.2849444 L21.552817,19.2849444 C21.7516395,19.2849444 21.912817,19.1238304 21.912817,18.9250862 L21.912817,17.0260676 C22.0775984,16.8900347 22.2343271,16.7446022 22.3821816,16.5905914 L25.1858208,16.5905914 C25.8876066,16.5905914 26.4565164,17.1592771 26.4565164,17.8607864 L26.4565164,21.1480059 C26.1965535,21.3805872 26.0329512,21.7185803 26.0329512,22.0947696 C26.0329512,22.7962789 26.601861,23.3649646 27.3036468,23.3649646 C28.0054326,23.3649646 28.5743424,22.7962789 28.5743424,22.0947696 C28.5743424,21.3932603 28.0054326,20.8245746 27.3036468,20.8245746 L27.3036468,17.8607864 C27.3036468,16.6916042 26.3554638,15.7437948 25.1858208,15.7437948 L23.0495122,15.7437948 C23.3779321,15.2310226 23.6236284,14.660221 23.7677823,14.0502015 L26.8800816,14.0502015 L26.8800816,14.4735998 C26.8800816,14.7074362 27.0697182,14.8969981 27.3036468,14.8969981 C27.5375754,14.8969981 27.727212,14.7074362 27.727212,14.4735998 L27.727212,12.7800065 C27.727212,12.54617 27.5375754,12.3566082 27.3036468,12.3566082 C27.0697182,12.3566082 26.8800816,12.54617 26.8800816,12.7800065 L26.8800816,13.2034048 L23.8990765,13.2034048 C23.9097108,13.0636657 23.9151252,12.9224682 23.9151252,12.7800065 C23.9151252,12.1891032 23.8219743,11.619948 23.6495503,11.0864132 L26.0329512,11.0864132 C27.2025942,11.0864132 28.1507772,10.1386037 28.1507772,8.96942162 L28.1507772,7.27582826 C28.852563,7.27582826 29.4214728,6.7071426 29.4214728,6.00563332 C29.4214728,5.30412401 28.852563,4.73543835 28.1507772,4.73543835 C27.4489914,4.73543835 26.8800816,5.30412401 26.8800816,6.00563332 C26.8800816,6.38182265 27.0436839,6.71981565 27.3036468,6.95239709 L27.3036468,8.96942162 C27.3036468,9.67093092 26.734737,10.2396166 26.0329512,10.2396166 L23.2948473,10.2396166 C22.3765365,8.47837262 20.5331471,7.27582826 18.4087776,7.27582826 C16.2844082,7.27582826 14.4410187,8.47837262 13.5227079,10.2396166 L10.784604,10.2396166 C10.0828182,10.2396166 9.51390835,9.67093092 9.51390835,8.96942162 L9.51390835,6.95239709 C9.77387126,6.71981565 9.93747355,6.38182265 9.93747355,6.00563332 C9.93747355,5.30412401 9.36856375,4.73543835 8.66677795,4.73543835 C7.96499215,4.73543835 7.39608235,5.30412401 7.39608235,6.00563332 C7.39608235,6.7071426 7.96499215,7.27582826 8.66677795,7.27582826 L8.66677795,8.96942162 C8.66677795,10.1386037 9.614961,11.0864132 10.784604,11.0864132 L13.1680048,11.0864132 C12.9955809,11.619948 12.90243,12.1891032 12.90243,12.7800065 C12.90243,12.9224682 12.9078444,13.0636657 12.9184787,13.2034048 L9.93747355,13.2034048 L9.93747355,12.7800065 C9.93747355,12.54617 9.747837,12.3566082 9.51390835,12.3566082 C9.27997978,12.3566082 9.09034315,12.54617 9.09034315,12.7800065 L9.09034315,13.2034048 L9.09034315,14.0502015 L9.09034315,14.4735998 C9.09034315,14.7074362 9.27997978,14.8969981 9.51390835,14.8969981 C9.747837,14.8969981 9.93747355,14.7074362 9.93747355,14.4735998 L9.93747355,14.0502015 L13.0497729,14.0502015 C13.1939268,14.660221 13.4396232,15.2310226 13.768043,15.7437948 L11.6317344,15.7437948 C10.4620914,15.7437948 9.51390835,16.6916042 9.51390835,17.8607864 L9.51390835,19.977778 C8.81212255,19.977778 8.24321275,20.5464637 8.24321275,21.247973 C8.24321275,21.9494823 8.81212255,22.5181679 9.51390835,22.5181679 C10.2156942,22.5181679 10.784604,21.9494823 10.784604,21.247973 C10.784604,20.8717836 10.6210017,20.5337906 10.3610388,20.3012092 L10.3610388,17.8607864 C10.3610388,17.1592771 10.9299486,16.5905914 11.6317344,16.5905914 L14.4353736,16.5905914 C14.583228,16.7446022 14.7399569,16.8900347 14.9047382,17.0260676 Z M27.9558289,30.0371373 C28.4983857,30.0371373 28.9376471,30.4762256 28.9376471,31.0185686 C28.9376471,31.5609116 28.4983857,32 27.9558289,32 L8.31946522,32 C7.77690842,32 7.33764708,31.5609116 7.33764708,31.0185686 C7.33764708,30.4762256 7.77690842,30.0371373 8.31946522,30.0371373 L13.5031584,30.0371373 L14.1577039,27.3036522 L22.1175903,27.3036522 L22.7721357,30.0371373 L27.9558289,30.0371373 Z M2.16,0 L33.84,0 C35.032935,0 36,0.96668393 36,2.15914899 L36,24.0805089 C36,25.272974 35.032935,26.2396579 33.84,26.2396579 L2.16,26.2396579 C0.96706494,26.2396579 1.46092464e-16,25.272974 0,24.0805089 L0,2.15914899 C-1.46092392e-16,0.96668393 0.96706494,0 2.16,0 Z" id="Combined-Shape"></path>
                <path d="M15.9319012,14.3375186 C15.1085178,14.0350858 14.8307611,13.2559129 15.0986311,12 L18.0167883,13.2715483 C17.4502468,14.284628 16.7552844,14.6399514 15.9319012,14.3375186 Z M21.0680989,14.3375186 C20.2447155,14.6399514 19.5497531,14.284628 18.9832117,13.2715483 L21.901369,12 C22.1692389,13.2559129 21.8914822,14.0350858 21.0680989,14.3375186 Z M16.6296022,18.1964923 L17.8667409,18.1964923 L17.8667409,20 L16.6296022,20 L16.6296022,18.1964923 Z M19.1038796,18.1964923 L20.3410182,18.1964923 L20.3410182,20 L19.1038796,20 L19.1038796,18.1964923 Z" id="Combined-Shape"></path>
            </g>
            <path d="M833.589844,59.6015625 C834.574224,59.8125011 835.388669,60.3515582 836.033203,61.21875 C836.677738,62.0859418 837,63.0937443 837,64.2421875 C837,65.4140684 836.677738,66.4335894 836.033203,67.3007812 C835.388669,68.1679731 834.574224,68.7070302 833.589844,68.9179688 L833.589844,74.0859375 L804.410156,74.0859375 L804.410156,68.9179688 C803.425776,68.7070302 802.611331,68.1679731 801.966797,67.3007812 C801.322262,66.4335894 801,65.4140684 801,64.2421875 C801,63.0937443 801.322262,62.0859418 801.966797,61.21875 C802.611331,60.3515582 803.425776,59.8125011 804.410156,59.6015625 L804.410156,52.8515625 C804.410156,52.0546835 804.609373,51.4218773 805.007812,50.953125 C805.406252,50.4843727 805.957028,50.25 806.660156,50.25 L831.339844,50.25 C832.042972,50.25 832.593748,50.4843727 832.992188,50.953125 C833.390627,51.4218773 833.589844,52.0546835 833.589844,52.8515625 L833.589844,59.6015625 Z M832.078125,52.8515625 C832.078125,52.5234359 832.025391,52.3007818 831.919922,52.1835938 C831.814453,52.0664057 831.621095,52.0078125 831.339844,52.0078125 L806.660156,52.0078125 C806.378905,52.0078125 806.185547,52.0664057 806.080078,52.1835938 C805.974609,52.3007818 805.921875,52.5234359 805.921875,52.8515625 L805.921875,59.4960938 L807.75,59.4960938 C807.984376,59.4960938 808.183593,59.5957021 808.347656,59.7949219 C808.51172,59.9941416 808.59375,60.222655 808.59375,60.4804688 C808.59375,60.7617202 808.51172,60.9960928 808.347656,61.1835938 C808.183593,61.3710947 807.984376,61.4648438 807.75,61.4648438 L805.921875,61.4648438 L805.921875,62.0273438 L809.648438,62.0273438 C809.882814,62.0273438 810.08203,62.1269521 810.246094,62.3261719 C810.410157,62.5253916 810.492188,62.753905 810.492188,63.0117188 C810.492188,63.2929702 810.410157,63.5273428 810.246094,63.7148438 C810.08203,63.9023447 809.882814,63.9960938 809.648438,63.9960938 L805.921875,63.9960938 L805.921875,64.5585938 L808.699219,64.5585938 C808.933595,64.5585938 809.132812,64.6523428 809.296875,64.8398438 C809.460938,65.0273447 809.542969,65.2499987 809.542969,65.5078125 C809.542969,65.7890639 809.460938,66.0234366 809.296875,66.2109375 C809.132812,66.3984384 808.933595,66.4921875 808.699219,66.4921875 L805.921875,66.4921875 L805.921875,67.0546875 L807.1875,67.0546875 C807.421876,67.0546875 807.621093,67.1484366 807.785156,67.3359375 C807.94922,67.5234384 808.03125,67.7578111 808.03125,68.0390625 C808.03125,68.2968763 807.94922,68.5253896 807.785156,68.7246094 C807.621093,68.9238291 807.421876,69.0234375 807.1875,69.0234375 L805.921875,69.0234375 L805.921875,72.328125 L808.910156,72.328125 C808.910156,70.6171789 809.402339,69.2988328 810.386719,68.3730469 C811.371099,67.447261 812.601555,66.984375 814.078125,66.984375 L814.324219,66.984375 L819.175781,73.6992188 L823.992188,66.984375 L824.203125,66.984375 C825.656257,66.984375 826.874995,67.447261 827.859375,68.3730469 C828.843755,69.2988328 829.347656,70.6171789 829.371094,72.328125 L832.078125,72.328125 L832.078125,69.0234375 L830.8125,69.0234375 C830.578124,69.0234375 830.378907,68.9238291 830.214844,68.7246094 C830.05078,68.5253896 829.96875,68.2968763 829.96875,68.0390625 C829.96875,67.7578111 830.05078,67.5234384 830.214844,67.3359375 C830.378907,67.1484366 830.578124,67.0546875 830.8125,67.0546875 L832.078125,67.0546875 L832.078125,66.4921875 L829.300781,66.4921875 C829.066405,66.4921875 828.867188,66.3984384 828.703125,66.2109375 C828.539062,66.0234366 828.457031,65.7890639 828.457031,65.5078125 C828.457031,65.2499987 828.539062,65.0273447 828.703125,64.8398438 C828.867188,64.6523428 829.066405,64.5585938 829.300781,64.5585938 L832.078125,64.5585938 L832.078125,63.9960938 L828.351562,63.9960938 C828.117186,63.9960938 827.91797,63.9023447 827.753906,63.7148438 C827.589843,63.5273428 827.507812,63.2929702 827.507812,63.0117188 C827.507812,62.753905 827.589843,62.5253916 827.753906,62.3261719 C827.91797,62.1269521 828.117186,62.0273438 828.351562,62.0273438 L832.078125,62.0273438 L832.078125,61.4648438 L830.25,61.4648438 C830.015624,61.4648438 829.816407,61.3710947 829.652344,61.1835938 C829.48828,60.9960928 829.40625,60.7617202 829.40625,60.4804688 C829.40625,60.222655 829.48828,60.0000009 829.652344,59.8125 C829.816407,59.6249991 830.015624,59.53125 830.25,59.53125 L832.078125,59.53125 L832.078125,52.8515625 Z M824.132812,63.7851562 C824.320313,63.9726572 824.425781,64.1894519 824.449219,64.4355469 C824.472656,64.6816419 824.425782,64.9101552 824.308594,65.1210938 L819.175781,72.2578125 L814.078125,65.2265625 C813.914062,65.0156239 813.84375,64.7695327 813.867188,64.4882812 C813.890625,64.2070298 813.996093,63.9726572 814.183594,63.7851562 C814.277344,63.6914058 814.376953,63.6269533 814.482422,63.5917969 C814.587891,63.5566404 814.699218,63.5507811 814.816406,63.5742188 L814.816406,58.6523438 C814.816406,57.292962 815.238277,56.126958 816.082031,55.1542969 C816.925785,54.1816358 817.945307,53.6953125 819.140625,53.6953125 C820.335943,53.6953125 821.355465,54.1816358 822.199219,55.1542969 C823.042973,56.126958 823.464844,57.292962 823.464844,58.6523438 C823.464844,58.6757814 823.458984,59.501945 823.447266,61.1308594 L823.429688,63.5742188 C823.570313,63.5507811 823.699218,63.5566404 823.816406,63.5917969 C823.933594,63.6269533 824.039062,63.6914058 824.132812,63.7851562 Z M816.152344,59.6015625 C816.152344,59.7890634 816.210937,59.9531243 816.328125,60.09375 C816.445313,60.2343757 816.585937,60.3046875 816.75,60.3046875 L818.121094,60.3046875 C818.285157,60.3046875 818.425781,60.2343757 818.542969,60.09375 C818.660157,59.9531243 818.71875,59.7890634 818.71875,59.6015625 C818.71875,59.4140616 818.660157,59.2500007 818.542969,59.109375 C818.425781,58.9687493 818.285157,58.8984375 818.121094,58.8984375 L816.75,58.8984375 C816.585937,58.8984375 816.445313,58.9687493 816.328125,59.109375 C816.210937,59.2500007 816.152344,59.4140616 816.152344,59.6015625 Z M819.140625,64.4882812 C819.445314,64.4882812 819.703124,64.3652356 819.914062,64.1191406 C820.125001,63.8730456 820.230469,63.5742205 820.230469,63.2226562 C820.230469,62.8945296 820.125001,62.6074231 819.914062,62.3613281 C819.703124,62.1152331 819.445314,61.9921875 819.140625,61.9921875 C818.835936,61.9921875 818.578126,62.1152331 818.367188,62.3613281 C818.156249,62.6074231 818.050781,62.8945296 818.050781,63.2226562 C818.050781,63.5742205 818.156249,63.8730456 818.367188,64.1191406 C818.578126,64.3652356 818.835936,64.4882812 819.140625,64.4882812 Z M821.496094,60.3046875 C821.660157,60.3046875 821.800781,60.2343757 821.917969,60.09375 C822.035157,59.9531243 822.09375,59.7890634 822.09375,59.6015625 C822.09375,59.4140616 822.035157,59.2500007 821.917969,59.109375 C821.800781,58.9687493 821.660157,58.8984375 821.496094,58.8984375 L820.125,58.8984375 C819.960937,58.8984375 819.820313,58.9687493 819.703125,59.109375 C819.585937,59.2500007 819.527344,59.4140616 819.527344,59.6015625 C819.527344,59.7890634 819.585937,59.9531243 819.703125,60.09375 C819.820313,60.2343757 819.960937,60.3046875 820.125,60.3046875 L821.496094,60.3046875 Z M804.375,79.9921875 L806.414062,79.9921875 L806.414062,82.3476562 L804.375,82.3476562 L804.375,79.9921875 Z M807.714844,79.9921875 L809.753906,79.9921875 L809.753906,82.3476562 L807.714844,82.3476562 L807.714844,79.9921875 Z M811.160156,79.9921875 L813.199219,79.9921875 L813.199219,82.3476562 L811.160156,82.3476562 L811.160156,79.9921875 Z M814.5,79.9921875 L816.539062,79.9921875 L816.539062,82.3476562 L814.5,82.3476562 L814.5,79.9921875 Z M817.945312,79.9921875 L819.984375,79.9921875 L819.984375,82.3476562 L817.945312,82.3476562 L817.945312,79.9921875 Z M821.285156,79.9921875 L823.324219,79.9921875 L823.324219,82.3476562 L821.285156,82.3476562 L821.285156,79.9921875 Z M824.730469,79.9921875 L826.769531,79.9921875 L826.769531,82.3476562 L824.730469,82.3476562 L824.730469,79.9921875 Z M828.070312,79.9921875 L830.109375,79.9921875 L830.109375,82.3476562 L828.070312,82.3476562 L828.070312,79.9921875 Z M804.375,83.8945312 L806.414062,83.8945312 L806.414062,86.25 L804.375,86.25 L804.375,83.8945312 Z M807.714844,83.8945312 L809.753906,83.8945312 L809.753906,86.25 L807.714844,86.25 L807.714844,83.8945312 Z M811.160156,83.8945312 L826.769531,83.8945312 L826.769531,86.25 L811.160156,86.25 L811.160156,83.8945312 Z M828.070312,83.8945312 L830.109375,83.8945312 L830.109375,86.25 L828.070312,86.25 L828.070312,83.8945312 Z M831.515625,79.9921875 L833.589844,79.9921875 L833.589844,82.3476562 L831.515625,82.3476562 L831.515625,79.9921875 Z M804.375,76.0898438 L806.414062,76.0898438 L806.414062,78.4453125 L804.375,78.4453125 L804.375,76.0898438 Z M807.714844,76.0898438 L809.753906,76.0898438 L809.753906,78.4453125 L807.714844,78.4453125 L807.714844,76.0898438 Z M811.160156,76.0898438 L813.199219,76.0898438 L813.199219,78.4453125 L811.160156,78.4453125 L811.160156,76.0898438 Z M814.5,76.0898438 L816.539062,76.0898438 L816.539062,78.4453125 L814.5,78.4453125 L814.5,76.0898438 Z M817.945312,76.0898438 L819.984375,76.0898438 L819.984375,78.4453125 L817.945312,78.4453125 L817.945312,76.0898438 Z M821.285156,76.0898438 L823.324219,76.0898438 L823.324219,78.4453125 L821.285156,78.4453125 L821.285156,76.0898438 Z M824.730469,76.0898438 L826.769531,76.0898438 L826.769531,78.4453125 L824.730469,78.4453125 L824.730469,76.0898438 Z M828.070312,76.0898438 L830.109375,76.0898438 L830.109375,78.4453125 L828.070312,78.4453125 L828.070312,76.0898438 Z M831.515625,76.0898438 L833.589844,76.0898438 L833.589844,78.4453125 L831.515625,78.4453125 L831.515625,76.0898438 Z M831.515625,83.8945312 L833.589844,83.8945312 L833.589844,86.25 L831.515625,86.25 L831.515625,83.8945312 Z" id="" fill="#CE8ABE"></path>
            <path d="M838.136719,187.105469 L849.421875,187.105469 L849.421875,188.054688 L839.894531,188.054688 L839.894531,188.898438 L844.289062,188.898438 L844.289062,193.328125 L839.894531,193.328125 L839.894531,194.136719 L847.417969,194.136719 C845.800773,195.472663 844.277351,196.492184 842.847656,197.195312 C841.417962,197.898441 840.468752,198.25 840,198.25 L839.859375,198.25 C839.367185,198.203125 838.558599,197.910159 837.433594,197.371094 C836.332026,196.855466 835.130866,196.123052 833.830078,195.173828 C832.52929,194.224605 831.2461,193.070319 829.980469,191.710938 C828.738275,190.351556 827.707035,188.816415 826.886719,187.105469 L828.679688,187.105469 C829.031252,187.738284 829.417967,188.341794 829.839844,188.916016 C830.261721,189.490237 830.683592,190.011716 831.105469,190.480469 C832.300787,191.816413 833.624993,192.947261 835.078125,193.873047 C836.531257,194.798833 837.550778,195.285156 838.136719,195.332031 L838.136719,187.105469 Z M844.289062,172.304688 L838.136719,172.304688 L838.136719,165.0625 L827.273438,168.753906 L827.273438,172.304688 L825.410156,172.304688 L825.410156,167.242188 L839.859375,162.25 L839.859375,167.101562 L844.289062,167.101562 L844.289062,172.304688 Z M826.992188,189.179688 L822.351562,187.140625 L825.867188,187.140625 L826.992188,189.179688 Z M852.972656,189.179688 L854.097656,187.140625 L857.648438,187.140625 L852.972656,189.179688 Z M845.097656,188.898438 L852.128906,188.898438 C851.589841,189.742192 850.99805,190.533199 850.353516,191.271484 C849.708981,192.009769 849.03516,192.695309 848.332031,193.328125 L845.097656,193.328125 L845.097656,188.898438 Z M854.378906,167.101562 C854.449219,167.101562 854.501953,167.11914 854.537109,167.154297 C854.572266,167.189453 854.589844,167.230469 854.589844,167.277344 L854.589844,172.304688 L845.132812,172.304688 L845.132812,167.101562 L854.378906,167.101562 Z M850.265625,187.105469 L853.113281,187.105469 C853.042968,187.269532 852.966797,187.433593 852.884766,187.597656 C852.802734,187.76172 852.714844,187.914062 852.621094,188.054688 L850.265625,188.054688 L850.265625,187.105469 Z M841.898438,177.191406 L842.988281,179.96875 C842.894531,179.96875 842.806641,179.962891 842.724609,179.951172 C842.642578,179.939453 842.554688,179.933594 842.460938,179.933594 L841.599609,179.933594 C841.306639,179.933594 841.031251,179.945312 840.773438,179.96875 L841.898438,177.191406 Z M857.648438,173.007812 L857.648438,186.402344 L822.351562,186.402344 L822.351562,173.007812 L857.648438,173.007812 Z M836.449219,182.570312 L838.523438,176.066406 L837.1875,176.066406 L835.78125,181.023438 L835.746094,181.023438 L834.304688,176.066406 L832.96875,176.066406 L831.457031,181.023438 L830.085938,176.066406 L828.785156,176.066406 L830.71875,182.570312 L832.054688,182.570312 L833.601562,177.613281 L833.636719,177.613281 L835.113281,182.570312 L836.449219,182.570312 Z M844.394531,180.425781 C844.816408,180.355468 845.156249,180.302735 845.414062,180.267578 L845.800781,180.214844 L845.361328,180.162109 C845.068358,180.126953 844.699221,180.085938 844.253906,180.039062 L842.496094,176.066406 L841.089844,176.066406 L839.296875,180.109375 C838.570309,180.273438 838.007814,180.531248 837.609375,180.882812 C837.210936,181.234377 837.128905,181.738278 837.363281,182.394531 C837.621095,183.050785 838.101559,183.613279 838.804688,184.082031 C839.507816,184.550784 840.093748,184.890624 840.5625,185.101562 C840.445312,184.960937 840.339844,184.832032 840.246094,184.714844 L839.964844,184.363281 C839.660155,184.035155 839.425782,183.666018 839.261719,183.255859 C839.097655,182.845701 839.238279,182.453127 839.683594,182.078125 C840.058596,181.773436 840.574215,181.503907 841.230469,181.269531 C841.886722,181.035155 842.542965,180.847657 843.199219,180.707031 L843.9375,182.570312 L845.34375,182.570312 L844.394531,180.425781 Z M851.214844,176.066406 L846.046875,176.066406 L846.046875,182.570312 L847.347656,182.570312 L847.347656,179.6875 L850.757812,179.6875 L850.757812,178.773438 L847.347656,178.773438 L847.347656,177.050781 L851.214844,177.050781 L851.214844,176.066406 Z" id="" fill="#E90276"></path>
            <g id="Icon_0day_Threats" transform="translate(813.000000, 106.000000)" fill="#FDA348" fill-rule="nonzero">
                <path d="M32,3.6 L30,3.6 L30,7.65 L24,7.65 L24,3.6 L12,3.6 L12,7.65 L6,7.65 L6,3.6 L4,3.6 C1.79803572,3.6 0,5.4225 0,7.65 L0,31.95 C0,34.1775 1.79803572,36 4,36 L32,36 C34.2,36 36,34.1775 36,31.95 L36,7.65 C36,5.4225 34.2,3.6 32,3.6 Z M31.5,32.4 L3.6,32.4 L3.6,13.5 L31.5,13.5 L31.5,32.4 Z M10.8,0 L7.2,0 L7.2,7.2 L10.8,7.2 L10.8,0 Z M28.8,0 L25.2,0 L25.2,7.2 L28.8,7.2 L28.8,0 Z" id="Calendar"></path>
                <path d="M15.1542751,26.4564315 C14.3847545,25.4273807 14,23.9391522 14,21.9917012 C14,20.0553153 14.3847545,18.5726193 15.1542751,17.5435685 C15.9237957,16.5145177 17.0390261,16 18.5,16 C19.9498214,16 21.0622638,16.5145177 21.8373606,17.5435685 C22.6124574,18.5726193 23,20.0553153 23,21.9917012 C23,23.9391522 22.6152455,25.4273807 21.8457249,26.4564315 C21.0762043,27.4854823 19.9609739,28 18.5,28 C17.0390261,28 15.9237957,27.4854823 15.1542751,26.4564315 Z M19.6542751,24.8298755 C19.888477,24.2544923 20.0055762,23.3084437 20.0055762,21.9917012 C20.0055762,20.6860239 19.888477,19.7455077 19.6542751,19.1701245 C19.4200731,18.5947413 19.0353187,18.3070539 18.5,18.3070539 C17.9646813,18.3070539 17.5799269,18.591975 17.3457249,19.1618257 C17.111523,19.7316765 16.9944238,20.6749588 16.9944238,21.9917012 C16.9944238,23.3084437 17.111523,24.2544923 17.3457249,24.8298755 C17.5799269,25.4052587 17.9646813,25.6929461 18.5,25.6929461 C19.0353187,25.6929461 19.4200731,25.4052587 19.6542751,24.8298755 Z" id="0"></path>
            </g>
            <g id="Icon_Phishing" transform="translate(397.000000, 241.000000)" fill="#797DB6" fill-rule="nonzero">
                <g transform="translate(10.000000, 17.000000) scale(-1, 1) translate(-10.000000, -17.000000) " id="Combined-Shape">
                    <path d="M4.52089844,13.5103008 C1.89172315,12.5805848 0,9.98961501 0,6.93877551 C0,3.10659561 2.98476833,0 6.66666667,0 C10.348565,0 13.3333333,3.10659561 13.3333333,6.93877551 C13.3333333,9.86731312 11.5902407,12.3721124 9.125,13.3905578 L9.125,25.9323183 C9.125,27.7300737 10.5318899,29.1943558 12.2591797,29.1943558 C13.8475006,29.1943558 15.1648719,27.9562032 15.3665467,26.359124 C15.2330875,26.3841645 15.0961072,26.397162 14.9568359,26.397162 C13.6852143,26.397162 12.6588541,25.3242405 12.6588541,24.001116 L12.6588541,19.0287131 C12.6588541,18.6469869 12.779828,18.2759194 13.0030265,17.9730207 C13.5632073,17.2128092 14.6094321,17.06919 15.3398154,17.6522384 C15.9446949,18.1350868 16.3326279,18.4600903 16.5310517,18.653652 C18.7219411,20.7909176 19.9973958,23.4304235 19.9973958,25.9323183 C19.9973958,30.3743027 16.5269498,33.9864477 12.2591797,33.9864477 C7.99140013,33.9864477 4.52089844,30.3742929 4.52089844,25.9323183 L4.52089844,13.5103008 Z M6.66666667,9.71428571 C8.139426,9.71428571 9.33333333,8.47164747 9.33333333,6.93877551 C9.33333333,5.40590355 8.139426,4.16326531 6.66666667,4.16326531 C5.19390733,4.16326531 4,5.40590355 4,6.93877551 C4,8.47164747 5.19390733,9.71428571 6.66666667,9.71428571 Z"></path>
                </g>
            </g>
            <g id="Icon_0day_Attachments" transform="translate(399.000000, 283.000000)">
                <path d="M18.1542751,28.4564315 C17.3847545,27.4273808 17,25.9391522 17,23.9917012 C17,22.0553154 17.3847545,20.5726192 18.1542751,19.5435685 C18.9237957,18.5145176 20.0390262,18 21.5,18 C22.9498214,18 24.0622638,18.5145176 24.8373606,19.5435685 C25.6124574,20.5726192 26,22.0553154 26,23.9917012 C26,25.9391522 25.6152455,27.4273808 24.8457249,28.4564315 C24.0762043,29.4854824 22.9609738,30 21.5,30 C20.0390262,30 18.9237957,29.4854824 18.1542751,28.4564315 Z M22.6542751,26.8298755 C22.888477,26.2544923 23.0055762,25.3084436 23.0055762,23.9917012 C23.0055762,22.6860239 22.888477,21.7455077 22.6542751,21.1701245 C22.4200732,20.5947412 22.0353187,20.3070539 21.5,20.3070539 C20.9646813,20.3070539 20.5799268,20.591975 20.3457249,21.1618257 C20.111523,21.7316764 19.9944238,22.6749589 19.9944238,23.9917012 C19.9944238,25.3084436 20.111523,26.2544923 20.3457249,26.8298755 C20.5799268,27.4052588 20.9646813,27.6929461 21.5,27.6929461 C22.0353187,27.6929461 22.4200732,27.4052588 22.6542751,26.8298755 Z" id="0" fill="#609AF7" fill-rule="nonzero"></path>
                <path d="M15.0266924,10.8211764 L17.2397656,7 L28.4444444,7 C30.4081236,7 32,8.58407316 32,10.5381264 L32,32.4618736 C32,34.4159268 30.4081236,36 28.4444444,36 L3.55555556,36 C1.59187644,36 2.40481334e-16,34.4159268 0,32.4618736 L0,10.5381264 C-2.40481334e-16,8.58407316 1.59187644,7 3.55555556,7 L9.84968211,7 L7.63660902,10.8211764 L3.84,10.8211764 L3.84,32.1788236 L28.16,32.1788236 L28.16,10.8211764 L15.0266924,10.8211764 Z" id="Combined-Shape" fill="#48AFE8"></path>
                <path d="M20.9511602,6.31048955 L21.0556757,6.1198996 C21.3969498,5.49756656 21.1944225,4.70179239 20.6033183,4.34248825 L20.3571481,4.19285306 C19.6300879,3.75090769 18.7003996,4.01317771 18.2806311,4.77864956 L9.85256646,20.1477095 C9.70018414,20.4255873 9.79061457,20.7809084 10.0545485,20.9413412 C10.3258063,21.106226 10.6726077,21.0098537 10.8312432,20.7255062 L13.9963568,15.0521714 C14.5247211,14.1051002 15.6822719,13.7883001 16.5818188,14.3445787 C17.4813658,14.9008573 17.7822687,16.1195632 17.2539043,17.0666344 L14.0887907,22.7399692 C12.8790116,24.9084482 10.2342477,25.6433994 8.16559199,24.3859619 C6.09471021,23.1271712 5.38517371,20.3392462 6.58079787,18.1589568 L15.0088625,2.78989691 C16.4718728,0.122013625 19.7120964,-0.792070692 22.2461046,0.748232439 L22.4922748,0.897867616 C24.3462687,2.02482239 25.2580021,4.21017357 24.9364678,6.31048955 L20.9511602,6.31048955" id="Combined-Shape" fill="#48AFE8"></path>
            </g>
            <g id="Icon_Malware_on_Cloud" transform="translate(399.000000, 332.000000)" fill="#BADB70">
                <path d="M26.2726208,22 C26.3009835,21.7193862 26.315508,21.43473 26.315508,21.1467116 C26.315508,16.4751091 22.4943661,12.688027 17.7807487,12.688027 C13.0671312,12.688027 9.24598931,16.4751091 9.24598931,21.1467116 C9.24598931,21.43473 9.26051383,21.7193862 9.28887654,22 L7.50534761,22 C7.47969668,22 7.45436288,21.9986542 7.42941414,21.9960299 C7.34899224,21.9986697 7.26823578,22 7.18716581,22 C3.21780372,22 0,18.8108782 0,14.8768972 C0,10.942916 3.21780372,7.75379427 7.18716581,7.75379427 C7.67870294,7.75379427 8.15871523,7.80269801 8.62251952,7.89586415 C9.2454034,3.43492067 13.108334,0 17.7807487,0 C22.8871675,0 27.026738,4.10267229 27.026738,9.16357505 C27.026738,9.2213 27.0261994,9.27890033 27.025127,9.33637131 C27.5062316,9.22337788 28.0081012,9.16357505 28.5240642,9.16357505 C32.1006247,9.16357505 35,12.0371067 35,15.5817876 C35,19.1264684 32.1006247,22 28.5240642,22 C28.5052984,22 28.4865513,21.9999209 28.4678231,21.999763 C28.4616341,21.9999207 28.4554253,22 28.4491979,22 L26.2726208,22 Z" id="Combined-Shape"></path>
                <path d="M20.4463347,29.0929911 L20.4463347,26.9957025 L19.030931,26.9957025 L19.030931,29.0929911 L16.2001237,29.0929911 L16.2001237,26.9957025 L14.7847201,26.9957025 L14.7847201,29.0929911 L13.3221918,29.0929911 C13.1267653,29.0929911 12.9683409,28.9313696 12.9683409,28.7319994 L12.9683409,27.9791735 L10.1177441,27.9791735 C9.31912635,27.9791735 9.37942056,27.9176626 9.37942056,28.7323967 L9.37942056,31.6760522 C9.69297005,31.9466557 9.89205075,32.3510147 9.89205075,32.8028099 C9.89205075,33.617544 9.24464314,34.2780165 8.44602534,34.2780165 C7.64740761,34.2780165 7,33.617544 7,32.8028099 C7,32.2632479 7.2839413,31.7913424 7.70770182,31.5341238 L7.70770182,28.7323967 C7.70770182,27.3745065 8.78671448,26.273719 10.1177441,26.273719 L12.5615223,26.273719 C12.3437742,26.0471165 12.1405524,25.8059325 11.9533944,25.5517355 L7.96401692,25.5517355 L7.96401692,25.8444628 C7.96401692,26.1160408 7.74821436,26.3361984 7.48200842,26.3361984 C7.21580256,26.3361984 7,26.1160408 7,25.8444628 L7,23.8775206 C7,23.6059426 7.21580256,23.3857851 7.48200842,23.3857851 C7.74821436,23.3857851 7.96401692,23.6059426 7.96401692,23.8775206 L7.96401692,24.1077686 L11.1273789,24.1077686 C10.7486223,23.2233932 10.5385091,22.2466464 10.5385091,21.2198347 C10.5385091,17.2324301 13.7069981,14 17.6155274,14 C21.5240566,14 24.6925456,17.2324301 24.6925456,21.2198347 C24.6925456,22.2466464 24.4824325,23.2233932 24.1036758,24.1077686 L27.5233529,24.1077686 L27.5233529,23.8775206 C27.5233529,23.6059426 27.7391555,23.3857851 28.0053613,23.3857851 C28.2715673,23.3857851 28.4873698,23.6059426 28.4873698,23.8775206 L28.4873698,25.8444628 C28.4873698,26.1160408 28.2715673,26.3361984 28.0053613,26.3361984 C27.7391555,26.3361984 27.5233529,26.1160408 27.5233529,25.8444628 L27.5233529,25.5517355 L23.2776603,25.5517355 C23.0905024,25.8059325 22.8872806,26.0471165 22.6695324,26.273719 L25.7178059,26.273719 C27.0488355,26.273719 28.1278482,27.3745065 28.1278482,28.7323967 L28.1278482,32.1703242 C28.6409785,32.3969027 29,32.918075 29,33.5247933 C29,34.3395275 28.3525924,35 27.5539746,35 C26.7553569,35 26.1079492,34.3395275 26.1079492,33.5247933 C26.1079492,33.1581089 26.239088,32.8226716 26.4561295,32.5646304 L26.4561295,28.7323967 C26.4561295,27.9176626 26.5164237,27.9791735 25.7178059,27.9791735 L21.975455,27.9791735 L21.975455,28.7319994 C21.975455,28.9313696 21.8170306,29.0929911 21.6216041,29.0929911 L20.4463347,29.0929911 Z M14.1725005,22.1283072 C15.2364385,22.5385223 16.1344368,22.056567 16.8664955,20.6824415 L13.0957874,18.9577331 C12.7496582,20.6612339 13.1085626,21.718092 14.1725005,22.1283072 Z M20.8092582,22.1283072 C21.8731961,21.718092 22.2321005,20.6612339 21.8859714,18.9577331 L18.1152632,20.6824415 C18.8473219,22.056567 19.7453203,22.5385223 20.8092582,22.1283072 Z" id="Combined-Shape" fill-rule="nonzero"></path>
            </g>
            <g id="Icon_Cloud_Data_Loss" transform="translate(394.000000, 376.000000)" fill="#FF4229" fill-rule="nonzero">
                <path d="M20.8653846,16.1538462 L8.75,16.1538462 L8.75,24.8896701 L8.16822223,24.8896701 C8.07566669,24.8938846 7.98466669,24.9038462 7.89055554,24.9038462 C7.79722223,24.9038462 7.70583331,24.8938846 7.61327777,24.8896701 L7.43438892,24.8896701 L7.43672223,24.8816243 C3.29155555,24.6467619 0,21.2425976 0,17.0664142 C0,12.7381258 3.53305555,9.22936539 7.89055554,9.22936539 C7.89755554,9.22936539 7.90338892,9.23013168 7.91,9.23013168 C7.90455554,9.10293048 7.89055554,8.97687868 7.89055554,8.84852808 C7.89055554,3.96162722 11.8793889,0 16.7992222,0 C21.1637222,0 24.7885555,3.11987722 25.5531111,7.23399257 C25.732,7.22326479 25.9097222,7.20717305 26.0909445,7.20717305 C31.0111667,7.20717305 35,11.1684172 35,16.0557012 C35,16.088458 34.9998207,16.1211733 34.9994632,16.1538462 L26.25,16.1538462 L26.25,19.4923077 C26.25,19.878907 25.9365993,20.1923077 25.55,20.1923077 L21.5653846,20.1923077 C21.1787853,20.1923077 20.8653846,19.878907 20.8653846,19.4923077 L20.8653846,16.1538462 Z M11.4692308,20.1923077 L15.4538462,20.1923077 C15.8404455,20.1923077 16.1538462,20.5057084 16.1538462,20.8923077 L16.1538462,24.8769231 C16.1538462,25.2635224 15.8404455,25.5769231 15.4538462,25.5769231 L11.4692308,25.5769231 C11.0826314,25.5769231 10.7692308,25.2635224 10.7692308,24.8769231 L10.7692308,20.8923077 C10.7692308,20.5057084 11.0826314,20.1923077 11.4692308,20.1923077 Z M19.5461538,22.2115384 L23.5307692,22.2115384 C23.9173686,22.2115384 24.2307692,22.5249392 24.2307692,22.9115384 L24.2307692,26.8961538 C24.2307692,27.2827532 23.9173686,27.5961538 23.5307692,27.5961538 L19.5461538,27.5961538 C19.1595545,27.5961538 18.8461538,27.2827532 18.8461538,26.8961538 L18.8461538,22.9115384 C18.8461538,22.5249392 19.1595545,22.2115384 19.5461538,22.2115384 Z M29.6423077,18.8461538 L33.6269231,18.8461538 C34.0135224,18.8461538 34.326923,19.1595545 34.326923,19.5461538 L34.326923,23.5307692 C34.326923,23.9173686 34.0135224,24.2307692 33.6269231,24.2307692 L29.6423077,24.2307692 C29.2557084,24.2307692 28.9423077,23.9173686 28.9423077,23.5307692 L28.9423077,19.5461538 C28.9423077,19.1595545 29.2557084,18.8461538 29.6423077,18.8461538 Z M12.8153846,29.6153846 L16.8,29.6153846 C17.1865993,29.6153846 17.5,29.9287853 17.5,30.3153846 L17.5,34.3 C17.5,34.6865993 17.1865993,35 16.8,35 L12.8153846,35 C12.4287853,35 12.1153846,34.6865993 12.1153846,34.3 L12.1153846,30.3153846 C12.1153846,29.9287853 12.4287853,29.6153846 12.8153846,29.6153846 Z"></path>
            </g>
            <g id="Icon_Malware_Off-Network" transform="translate(39.000000, 388.000000)" fill="#FCCDC6" fill-rule="nonzero">
                <path d="M26.3927097,15.9649309 L18.00468,24.0122123 C16.6247405,23.6861796 15.6013072,22.4909872 15.6013072,21.0664694 C15.6013072,19.3910415 17.0170207,18.0328388 18.7633917,18.0328388 C18.9796497,18.0328388 19.1908372,18.0536662 19.3948938,18.0933444 C19.6689394,16.1934905 21.3684846,14.7306055 23.4241725,14.7306055 C24.5951154,14.7306055 25.6505052,15.2052486 26.3927097,15.9649309 Z M28.5293081,18.6571502 C29.923944,18.8347376 31,19.9801467 31,21.3666725 C31,22.8763029 29.7243832,24.1001001 28.1508301,24.1001001 C28.0725242,24.1001001 27.9949561,24.0970694 27.9182463,24.0911237 C27.8833492,24.0970239 27.847449,24.1001001 27.8108063,24.1001001 L22.8558858,24.1001001 L28.5293081,18.6571502 Z M27.4052794,14.993495 C26.4340988,13.9582325 25.0265024,13.3072771 23.4604292,13.3072771 C22.9700603,13.3072771 22.4952292,13.3710995 22.0444683,13.4905582 C21.86641,12.764989 21.1872478,12.2249025 20.3766002,12.2249025 L18.6482187,12.2249025 C18.913927,11.82674 19.1127077,11.3835181 19.2293355,10.9098439 L21.7473427,10.9098439 L21.7473427,11.2386086 C21.7473427,11.4201803 21.9007683,11.5673732 22.0900284,11.5673732 C22.2792884,11.5673732 22.432714,11.4201803 22.432714,11.2386086 L22.432714,9.92354994 C22.432714,9.74197824 22.2792884,9.59478528 22.0900284,9.59478528 C21.9007683,9.59478528 21.7473427,9.74197824 21.7473427,9.92354994 L21.7473427,10.2523146 L19.3355591,10.2523146 C19.3441628,10.1438086 19.3485434,10.03417 19.3485434,9.92354994 C19.3485434,9.46471938 19.2731795,9.02277588 19.1336799,8.6084913 L21.0619715,8.6084913 C22.0082717,8.6084913 22.7753996,7.87252656 22.7753996,6.96466806 L22.7753996,5.64960944 C23.3431797,5.64960944 23.8034565,5.2080306 23.8034565,4.66331548 C23.8034565,4.11860037 23.3431797,3.67702153 22.7753996,3.67702153 C22.2076195,3.67702153 21.7473427,4.11860037 21.7473427,4.66331548 C21.7473427,4.95542282 21.8797053,5.21787109 22.0900284,5.39846827 L22.0900284,6.96466806 C22.0900284,7.50938316 21.6297516,7.95096204 21.0619715,7.95096204 L18.8467072,7.95096204 C18.1037474,6.5833734 16.6123523,5.64960944 14.8936302,5.64960944 C13.1749081,5.64960944 11.683513,6.5833734 10.9405532,7.95096204 L8.72528895,7.95096204 C8.15750883,7.95096204 7.69723205,7.50938316 7.69723205,6.96466806 L7.69723205,5.39846827 C7.90755514,5.21787109 8.0399177,4.95542282 8.0399177,4.66331548 C8.0399177,4.11860037 7.57964093,3.67702153 7.0118608,3.67702153 C6.44408067,3.67702153 5.98380392,4.11860037 5.98380392,4.66331548 C5.98380392,5.2080306 6.44408067,5.64960944 7.0118608,5.64960944 L7.0118608,6.96466806 C7.0118608,7.87252656 7.77898872,8.6084913 8.72528895,8.6084913 L10.6535805,8.6084913 C10.5140808,9.02277588 10.438717,9.46471938 10.438717,9.92354994 C10.438717,10.03417 10.4430976,10.1438086 10.4517013,10.2523146 L8.0399177,10.2523146 L8.0399177,9.92354994 C8.0399177,9.74197824 7.88649207,9.59478528 7.69723205,9.59478528 C7.50797203,9.59478528 7.35454645,9.74197824 7.35454645,9.92354994 L7.35454645,10.2523146 L7.35454645,10.9098439 L7.35454645,11.2386086 C7.35454645,11.4201803 7.50797203,11.5673732 7.69723205,11.5673732 C7.88649207,11.5673732 8.0399177,11.4201803 8.0399177,11.2386086 L8.0399177,10.9098439 L10.5579249,10.9098439 C10.6745527,11.3835181 10.8733335,11.82674 11.1390417,12.2249025 L9.4106602,12.2249025 C8.46435997,12.2249025 7.69723205,12.9608672 7.69723205,13.8687258 L7.69723205,15.512549 C7.12945192,15.512549 6.6691752,15.9541279 6.6691752,16.498843 C6.6691752,17.0435581 7.12945192,17.485137 7.69723205,17.485137 C8.26501218,17.485137 8.72528895,17.0435581 8.72528895,16.498843 C8.72528895,16.2067357 8.59292639,15.9442874 8.3826033,15.7636903 L8.3826033,13.8687258 C8.3826033,13.3240107 8.84288008,12.8824318 9.4106602,12.8824318 L11.6789458,12.8824318 C11.7985675,13.0020197 11.925369,13.1149466 12.0586855,13.2205748 L12.0586855,14.6745706 C12.0586855,14.8402559 12.1974772,14.9745706 12.3686855,14.9745706 L17.4185749,14.9745706 C17.5897832,14.9745706 17.7285749,14.8402559 17.7285749,14.6745706 L17.7285749,13.2205748 C17.8618914,13.1149466 17.9886928,13.0020197 18.1083146,12.8824318 L20.3766002,12.8824318 C20.8876627,12.8824318 21.3116269,13.2401953 21.3912298,13.70891 C19.9867275,14.2801426 18.8918159,15.41528 18.4150443,16.818307 C16.3388123,16.8824335 14.6502556,18.4188205 14.4465767,20.3748375 L1.86,20.3748375 C0.832750365,20.3748375 1.49437323e-15,19.5689501 0,18.5748375 L0,1.8 C-1.25801797e-16,0.80588745 0.832750365,1.82615513e-16 1.86,0 L27.265817,0 C28.2930666,-1.82615513e-16 29.125817,0.80588745 29.125817,1.8 L29.125817,13.3428511 L27.4052794,14.993495 Z M17.1338288,24.8476867 L6.73086725,24.8476867 C6.29191147,24.8476867 5.93652681,24.5067389 5.93652681,24.0856149 C5.93652681,23.6644909 6.29191147,23.3235431 6.73086725,23.3235431 L10.9247367,23.3235431 L11.4542969,21.2010187 L14.4498255,21.2010187 C14.622122,22.7373944 15.7110967,24.0103864 17.1815106,24.5064984 C17.2035463,24.5783288 17.2391053,24.6445301 17.2853316,24.7023385 L17.1338288,24.8476867 Z M29.4753268,14.193045 L30.7110306,15.3785506 L18.5974909,27 L17.3617871,25.8144944 L29.4753268,14.193045 Z" id="Combined-Shape"></path>
                <g id="Group-5" transform="translate(12.000000, 8.000000)">
                    <path d="M1.04740096,2.19463024 C0.428583057,1.94451533 0.219833605,1.30013169 0.421152598,0.261479322 L2.61430843,1.31306226 C2.18852134,2.15088917 1.66621885,2.44474516 1.04740096,2.19463024 Z M4.90753631,2.19463024 C4.28871842,2.44474516 3.76641592,2.15088917 3.34062883,1.31306226 L5.53378467,0.261479322 C5.73510366,1.30013169 5.52635421,1.94451533 4.90753631,2.19463024 Z M1.57176172,5.38603945 L2.50153955,5.38603945 L2.50153955,6.8775581 L1.57176172,6.8775581 L1.57176172,5.38603945 Z M3.43131739,5.38603945 L4.36109524,5.38603945 L4.36109524,6.8775581 L3.43131739,6.8775581 L3.43131739,5.38603945 Z" id="Combined-Shape"></path>
                </g>
            </g>
            <g id="Icon_Intrusions_Off-Network" transform="translate(33.000000, 422.000000)" fill="#7DD7E0" fill-rule="nonzero">
                <path d="M19.7768035,9.8931682 C19.5389966,9.8931682 19.3216491,10.0839315 19.2173595,10.3831793 C19.1845449,10.476445 19.1470139,10.6077983 19.0996518,10.7672289 C18.7525069,11.9667429 18.030451,14.4625362 15.5000664,14.4625362 C12.9696819,14.4625362 12.2476259,11.9667429 11.9005475,10.7671475 C11.853119,10.6077983 11.815588,10.4763636 11.7827733,10.383098 C11.6783509,10.0838502 11.4805327,9.8956097 11.2414638,9.8956097 C11.0182043,9.80405306 10.6116078,8.78081609 10.54,8.18402957 C11.969631,7.74146514 13.6346775,7.51766002 15.5,7.51766002 C17.3653225,7.51766002 19.0315646,7.74227902 20.46,8.18484345 C20.3884586,8.7808975 19.9843199,9.80413446 19.7768035,9.8931682 Z M25.6110232,19.1581886 L16.683242,27.7937837 C15.2145064,27.4439157 14.1252174,26.1613462 14.1252174,24.6326861 C14.1252174,22.8347724 15.6320289,21.3772754 17.4907752,21.3772754 C17.7209489,21.3772754 17.9457258,21.3996254 18.162913,21.4422043 C18.4545929,19.4034575 20.2635001,17.8336251 22.4514671,17.8336251 C23.6977576,17.8336251 24.8210595,18.3429681 25.6110232,19.1581886 Z M27.885107,22.0472283 C29.3694848,22.2377987 30.5147826,23.4669453 30.5147826,24.9548361 C30.5147826,26.5748312 29.1570826,27.8880967 27.4822748,27.8880967 C27.4071978,27.8880967 27.332758,27.8854578 27.2590491,27.8802705 C27.2268809,27.8854209 27.1938864,27.8880967 27.1602669,27.8880967 L21.8466124,27.8880967 L27.885107,22.0472283 Z M30.8620677,17.8901825 L28.892,15.9845908 L26.4543883,18.342425 C25.4335007,17.2536593 23.9593034,16.569891 22.32,16.569891 C19.8864601,16.569891 17.8167696,18.0767313 17.0537653,20.1784324 C14.7997463,20.3304136 13.02,22.1472206 13.02,24.3661054 C13.02,25.8395055 13.8047475,27.1356164 14.9920116,27.8847171 L4.81728953,27.8847171 C3.59123608,27.8847171 2.52529176,26.9212428 2.28440312,25.5938695 L0.0580645879,17.6039546 C0.018986637,17.3897156 0,17.1726718 0,16.9556279 C0,15.1330608 1.34342539,13.650618 2.99581514,13.6505512 L5.93618931,13.6505512 C5.55880401,12.8303259 5.16664365,11.6208241 5.16664365,10.0888285 C5.16664365,8.29130489 5.90576661,7.47907004 7.87110615,5.28311158 C12.5977474,0.00183179705 15.2060868,0.00183179705 15.5,0.00183179705 C15.7939132,0.00183179705 18.2222253,-0.254063989 23.0506808,5.28317836 C24.9848777,7.50130331 25.8333564,8.29130489 25.8333564,10.0888953 C25.8333564,11.6208909 25.441196,12.8303259 25.0638107,13.650618 L28.0042539,13.650618 C29.6566436,13.650618 31,15.1330608 31,16.9556279 C31,17.1726718 30.9811514,17.3897156 30.9420045,17.6032867 L30.8620677,17.8901825 Z M30.3747942,19.639023 L29.8360033,21.5727609 C29.5477591,21.3692574 29.2326025,21.199285 28.896666,21.0687754 L30.3747942,19.639023 Z M28.892,17.2567652 L30.2072186,18.5289397 L17.314199,31 L15.9989804,29.7278255 L28.892,17.2567652 Z"></path>
            </g>
            <g id="Icon_0day_Threats_Off-Network" transform="translate(21.000000, 456.000000)" fill="#EE5B62">
                <path d="M9.00000002,0 L6,0 L6,6 L9.00000002,6 L9.00000002,0 Z M24,0 L21,0 L21,6 L24,6 L24,0 Z" id="Calendar" fill-rule="nonzero"></path>
                <path d="M25.0789813,20.0983258 L16.1197781,28.9980901 C14.6458731,28.6375194 13.5527502,27.315715 13.5527502,25.7402921 C13.5527502,23.8873789 15.0648651,22.385296 16.9301534,22.385296 C17.1611372,22.385296 17.3867053,22.4083298 17.6046569,22.4522112 C17.8973634,20.3510976 19.7126372,18.7332429 21.9083049,18.7332429 C23.1589818,18.7332429 24.2862373,19.2581671 25.0789813,20.0983258 Z M27.3610691,23.0757434 C28.8506712,23.2721433 30,24.5388905 30,26.0722969 C30,27.7418489 28.6375215,29.0952882 26.956819,29.0952882 C26.8818639,29.0952882 26.8075417,29.0925963 26.7339451,29.0873045 C26.7013042,29.0925577 26.667812,29.0952882 26.6336778,29.0952882 L21.3013214,29.0952882 L27.3610691,23.0757434 Z M26.058779,19.1250285 C25.8342308,18.8775368 25.587378,18.6504059 25.3213664,18.446761 L25.3213664,10.9053462 L2.89387045,10.9053462 L2.89387045,25.9973708 L12.5594041,25.9973708 C12.7337767,27.1834086 13.3982587,28.211424 14.342077,28.8720421 L3.21541161,28.8720421 C1.44535623,28.8720421 0,27.4167397 0,25.6380369 L0,6.23400527 C0,4.45530237 1.44535623,3 3.21541161,3 L4.82311741,3 L4.82311741,6.23400527 L9.64623484,6.23400527 L9.64623484,3 L19.2924696,3 L19.2924696,6.23400527 L24.115587,6.23400527 L24.115587,3 L25.7232929,3 C27.4917692,3 28.9387045,4.45530237 28.9387045,6.23400527 L28.9387045,17.3910808 L28.3715059,16.8276452 L26.058779,19.1250285 Z M28.3715059,18.1387364 L29.6913535,19.4498277 L17.9973625,31 L16.6775149,29.6889087 L28.3715059,18.1387364 Z" id="Combined-Shape" fill-rule="nonzero"></path>
                <path d="M16.3350958,20.727199 C16.3574896,20.679662 16.3785188,20.6292489 16.3981834,20.5759595 C16.5803576,20.0822856 16.6714434,19.2705837 16.6714434,18.1408297 C16.6714434,17.0205694 16.5803576,16.2136144 16.3981834,15.7199404 C16.2160092,15.2262664 15.9167276,14.979433 15.5003294,14.979433 C15.0839312,14.979433 14.7846496,15.223893 14.6024754,15.7128201 C14.4203012,16.2017473 14.3292155,17.0110757 14.3292155,18.1408297 C14.3292155,19.2705837 14.4203012,20.0822856 14.6024754,20.5759595 C14.7565603,20.9935146 14.9944236,21.2344806 15.3160706,21.2988621 C14.7723081,21.7300813 14.3384239,22.3170732 14.0690951,23 C13.6039044,22.7799314 13.2134919,22.4371091 12.897854,21.971531 C12.2992816,21.0886141 12,19.8117264 12,18.1408297 C12,16.4794267 12.2992816,15.2072859 12.897854,14.3243689 C13.4964263,13.4414519 14.3639095,13 15.5003294,13 C16.6280744,13 17.4933888,13.4414519 18.0962987,14.3243689 C18.6829352,15.1834549 18.9841662,16.4110372 19,18.007151 C18.2578282,18.6460047 17.6910918,19.5179744 17.3919302,20.5222241 C17.0237872,20.5351947 16.6690446,20.6062167 16.3350958,20.727199 Z" id="Combined-Shape"></path>
            </g>
            <g id="Icon_Undetectable_Threats" transform="translate(0.000000, 492.000000)" fill="#D23995" fill-rule="nonzero">
                <path d="M13.8,18 L11.2,18 L11.2,16.1935488 L9.9,16.1935488 L9.9,18 L8.54124149,18 C8.37029619,18 8.23171768,17.8674201 8.23171768,17.7038744 L8.23171768,15.9087797 C6.8642262,14.7687368 6,13.0902442 6,11.2186382 C6,7.78417915 8.91014911,5 12.5,5 C16.0898509,5 19,7.78417915 19,11.2186382 C19,13.2079282 18.0236742,14.9790559 16.5044449,16.1173602 L16.5044449,17.7038744 C16.5044449,17.8674201 16.3658664,18 16.1949211,18 L15.1,18 L15.1,16.1935488 L13.8,16.1935488 L13.8,18 Z M8.64636097,12.2477181 C9.84520779,12.6678355 10.8570736,12.1742463 11.6819584,10.7669506 L7.43311901,9.00060946 C7.04310019,10.7452312 7.44751416,11.8276007 8.64636097,12.2477181 Z M16.1246692,12.2477181 C17.323516,11.8276007 17.7279299,10.7452312 17.3379111,9.00060946 L13.0890717,10.7669506 C13.9139565,12.1742463 14.9258223,12.6678355 16.1246692,12.2477181 Z" id="Combined-Shape"></path>
                <path d="M19.5201462,7.87197998 L22.189495,5.20263112 C23.6167877,7.23534904 24.3856936,9.65532628 24.3856936,12.1958104 C24.3856936,15.4572136 23.1187696,18.5196874 20.8186729,20.8194138 C18.5156125,23.1228446 15.4527682,24.3916208 12.1954399,24.3916208 C9.65627798,24.3916208 7.23614158,23.6209919 5.20156832,22.1905578 L7.86979225,19.5223339 C9.16613933,20.290768 10.6494602,20.7006873 12.1955275,20.7006873 C14.467426,20.7006873 16.6031503,19.8161366 18.209696,18.2099789 C21.0074019,15.4116182 21.4440633,11.1325978 19.5201462,7.87197998 Z M16.1961314,4.68591371 C14.9795259,4.03578347 13.6140711,3.69093348 12.1955275,3.69093348 C9.92362898,3.69093348 7.78829269,4.57548412 6.18213494,6.18202985 C4.57558922,7.78896353 3.69103857,9.92468782 3.69103857,12.1958104 C3.69103857,13.614275 4.03585014,14.9795054 4.68591016,16.1961349 L1.99508177,18.8869633 C0.69678824,16.9164594 0,14.6094367 0,12.1958104 C0,8.93848215 1.26877622,5.87600827 3.57257747,3.57257747 C5.87563782,1.26877622 8.93848215,0 12.1954399,0 C14.6096793,0 16.9164956,0.696825192 18.8867093,1.99533583 L16.1961314,4.68591371 Z M30.4032121,27.5222566 C30.7881051,27.9067791 31,28.4183645 31,28.9625491 C31,29.5063633 30.7884755,30.0179487 30.403953,30.4028417 C30.0186896,30.7881051 29.5071042,31 28.9629196,31 C28.418735,31 27.9071496,30.7881051 27.5222566,30.4032121 L21.3072906,24.188987 C20.5126847,23.3947516 20.5126847,22.1026374 21.3072906,21.3080315 C21.6784771,20.9364745 22.203769,20.7238388 22.7479536,20.7238388 C23.2921382,20.7238388 23.8174301,20.9364745 24.1886166,21.3080315 L30.4032121,27.5222566 Z M21.3991219,0.588847125 L23.5911529,2.78087814 L2.47746041,23.8945706 L0.28542939,21.7025396 L21.3991219,0.588847125 Z" id="Combined-Shape"></path>
            </g>
        </g>
    </g>
</svg>