<?xml version="1.0" encoding="UTF-8"?>
<svg width="31px" height="31px" viewBox="0 0 31 31" version="1.1" xmlns="http://www.w3.org/2000/svg" xmlns:xlink="http://www.w3.org/1999/xlink">
    <!-- Generator: Sketch 52.5 (67469) - http://www.bohemiancoding.com/sketch -->
    <title>Icon_Undetectable_Threats</title>
    <desc>Created with Sketch.</desc>
    <g id="Page-1" stroke="none" stroke-width="1" fill="none" fill-rule="evenodd">
        <g id="Icons" transform="translate(0.000000, -492.000000)" fill="#D23995" fill-rule="nonzero">
            <g id="Icon_Undetectable_Threats" transform="translate(0.000000, 492.000000)">
                <path d="M13.8,18 L11.2,18 L11.2,16.1935488 L9.9,16.1935488 L9.9,18 L8.54124149,18 C8.37029619,18 8.23171768,17.8674201 8.23171768,17.7038744 L8.23171768,15.9087797 C6.8642262,14.7687368 6,13.0902442 6,11.2186382 C6,7.78417915 8.91014911,5 12.5,5 C16.0898509,5 19,7.78417915 19,11.2186382 C19,13.2079282 18.0236742,14.9790559 16.5044449,16.1173602 L16.5044449,17.7038744 C16.5044449,17.8674201 16.3658664,18 16.1949211,18 L15.1,18 L15.1,16.1935488 L13.8,16.1935488 L13.8,18 Z M8.64636097,12.2477181 C9.84520779,12.6678355 10.8570736,12.1742463 11.6819584,10.7669506 L7.43311901,9.00060946 C7.04310019,10.7452312 7.44751416,11.8276007 8.64636097,12.2477181 Z M16.1246692,12.2477181 C17.323516,11.8276007 17.7279299,10.7452312 17.3379111,9.00060946 L13.0890717,10.7669506 C13.9139565,12.1742463 14.9258223,12.6678355 16.1246692,12.2477181 Z" id="Combined-Shape"></path>
                <path d="M19.5201462,7.87197998 L22.189495,5.20263112 C23.6167877,7.23534904 24.3856936,9.65532628 24.3856936,12.1958104 C24.3856936,15.4572136 23.1187696,18.5196874 20.8186729,20.8194138 C18.5156125,23.1228446 15.4527682,24.3916208 12.1954399,24.3916208 C9.65627798,24.3916208 7.23614158,23.6209919 5.20156832,22.1905578 L7.86979225,19.5223339 C9.16613933,20.290768 10.6494602,20.7006873 12.1955275,20.7006873 C14.467426,20.7006873 16.6031503,19.8161366 18.209696,18.2099789 C21.0074019,15.4116182 21.4440633,11.1325978 19.5201462,7.87197998 Z M16.1961314,4.68591371 C14.9795259,4.03578347 13.6140711,3.69093348 12.1955275,3.69093348 C9.92362898,3.69093348 7.78829269,4.57548412 6.18213494,6.18202985 C4.57558922,7.78896353 3.69103857,9.92468782 3.69103857,12.1958104 C3.69103857,13.614275 4.03585014,14.9795054 4.68591016,16.1961349 L1.99508177,18.8869633 C0.69678824,16.9164594 0,14.6094367 0,12.1958104 C0,8.93848215 1.26877622,5.87600827 3.57257747,3.57257747 C5.87563782,1.26877622 8.93848215,0 12.1954399,0 C14.6096793,0 16.9164956,0.696825192 18.8867093,1.99533583 L16.1961314,4.68591371 Z M30.4032121,27.5222566 C30.7881051,27.9067791 31,28.4183645 31,28.9625491 C31,29.5063633 30.7884755,30.0179487 30.403953,30.4028417 C30.0186896,30.7881051 29.5071042,31 28.9629196,31 C28.418735,31 27.9071496,30.7881051 27.5222566,30.4032121 L21.3072906,24.188987 C20.5126847,23.3947516 20.5126847,22.1026374 21.3072906,21.3080315 C21.6784771,20.9364745 22.203769,20.7238388 22.7479536,20.7238388 C23.2921382,20.7238388 23.8174301,20.9364745 24.1886166,21.3080315 L30.4032121,27.5222566 Z M21.3991219,0.588847125 L23.5911529,2.78087814 L2.47746041,23.8945706 L0.28542939,21.7025396 L21.3991219,0.588847125 Z" id="Combined-Shape"></path>
            </g>
        </g>
    </g>
</svg>