<?xml version="1.0" encoding="UTF-8"?>
<svg width="426px" height="807px" viewBox="0 0 426 807" version="1.1" xmlns="http://www.w3.org/2000/svg" xmlns:xlink="http://www.w3.org/1999/xlink">
    <!-- Generator: Sketch 52.5 (67469) - http://www.bohemiancoding.com/sketch -->
    <title>Group 107 Copy</title>
    <desc>Created with Sketch.</desc>
    <defs>
        <rect id="path-1" x="0" y="0" width="360" height="741.913043" rx="52.3848019"></rect>
        <filter x="-16.8%" y="-5.2%" width="133.6%" height="116.3%" filterUnits="objectBoundingBox" id="filter-2">
            <feOffset dx="0" dy="22" in="SourceAlpha" result="shadowOffsetOuter1"></feOffset>
            <feGaussianBlur stdDeviation="16.5" in="shadowOffsetOuter1" result="shadowBlurOuter1"></feGaussianBlur>
            <feColorMatrix values="0 0 0 0 0   0 0 0 0 0   0 0 0 0 0  0 0 0 0.32 0" type="matrix" in="shadowBlurOuter1"></feColorMatrix>
        </filter>
        <filter x="-11.8%" y="-2.8%" width="123.6%" height="111.5%" filterUnits="objectBoundingBox" id="filter-3">
            <feGaussianBlur stdDeviation="6.5" in="SourceAlpha" result="shadowBlurInner1"></feGaussianBlur>
            <feOffset dx="0" dy="-6" in="shadowBlurInner1" result="shadowOffsetInner1"></feOffset>
            <feComposite in="shadowOffsetInner1" in2="SourceAlpha" operator="arithmetic" k2="-1" k3="1" result="shadowInnerInner1"></feComposite>
            <feColorMatrix values="0 0 0 0 1   0 0 0 0 1   0 0 0 0 1  0 0 0 0.12 0" type="matrix" in="shadowInnerInner1"></feColorMatrix>
        </filter>
        <rect id="path-4" x="16.4347826" y="16.4347826" width="327.405012" height="709.301481" rx="34.9232013"></rect>
    </defs>
    <g id="Page-1" stroke="none" stroke-width="1" fill="none" fill-rule="evenodd">
        <g id="Group-107-Copy" transform="translate(33.000000, 10.848593)">
            <g id="dark-copy-6">
                <g id="dark-copy-2">
                    <g id="base">
                        <use fill="black" fill-opacity="1" filter="url(#filter-2)" xlink:href="#path-1"></use>
                        <use fill="#3D3D3D" fill-rule="evenodd" xlink:href="#path-1"></use>
                        <use fill="black" fill-opacity="1" filter="url(#filter-3)" xlink:href="#path-1"></use>
                    </g>
                    <mask id="mask-5" fill="white">
                        <use xlink:href="#path-4"></use>
                    </mask>
                    <use id="mask" fill="#1F1F1F" xlink:href="#path-4"></use>
                    <path d="M91.9644301,15.7234318 L268.326597,15.7234318 L268.326597,21.5569882 C268.326597,32.4866007 259.466395,41.3468023 248.536783,41.3468023 L111.754244,41.3468023 C100.824632,41.3468023 91.9644301,32.4866007 91.9644301,21.5569882 L91.9644301,15.7234318 Z" id="bar" fill="#3D3D3D"></path>
                </g>
            </g>
            <g id="Group-7" transform="translate(14.869565, 14.869565)">
                <g id="iPhone-X/Status-Bars/Status-Bar-(White)">
                    <g id="iPhone-X/Status-Bars/Status-Bar-(Black)">
                        <rect id="Rectangle" x="0" y="0" width="328.695652" height="38.5669565"></rect>
                        <g id="Battery" transform="translate(294.511304, 14.900870)">
                            <rect id="Border" stroke="#FFFFFF" stroke-width="0.876521739" opacity="0.35" x="0.43826087" y="0.730434783" width="18.4069565" height="9.0573913" rx="2.33739137"></rect>
                            <path d="M20.16,3.50608696 L20.16,7.01217391 C20.8653643,6.71522893 21.3240542,6.02445074 21.3240542,5.25913043 C21.3240542,4.49381013 20.8653643,3.80303194 20.16,3.50608696" id="Cap" fill="#FFFFFF" fill-rule="nonzero" opacity="0.4"></path>
                            <rect id="Capacity" fill="#FFFFFF" fill-rule="nonzero" x="1.75304348" y="2.04521739" width="15.7773913" height="6.42782609" rx="1.16869569"></rect>
                        </g>
                        <path d="M283.406066,17.1868383 C285.348344,17.1869234 287.216352,17.9332269 288.624,19.2714991 C288.73,19.3748188 288.899428,19.3735155 289.003826,19.2685774 L290.017085,18.2459687 C290.069947,18.1927444 290.099419,18.120649 290.09898,18.045636 C290.098541,17.970623 290.068228,17.8988772 290.014748,17.8462748 C286.320123,14.3055236 280.491425,14.3055236 276.7968,17.8462748 C276.743281,17.8988382 276.712915,17.9705621 276.712421,18.0455753 C276.711928,18.1205884 276.741347,18.1927057 276.79417,18.2459687 L277.807722,19.2685774 C277.912053,19.3736738 278.081612,19.3749781 278.187548,19.2714991 C279.595375,17.9331391 281.463597,17.1868334 283.406066,17.1868383 Z M283.406066,20.5138226 C284.473222,20.5137572 285.502295,20.9104117 286.293329,21.626713 C286.40032,21.7283725 286.568859,21.7261686 286.673155,21.6217461 L287.685245,20.5991374 C287.738544,20.5454987 287.768118,20.472733 287.767349,20.3971201 C287.76658,20.3215072 287.735533,20.2493579 287.681155,20.1968139 C285.272299,17.9560892 281.541879,17.9560892 279.133023,20.1968139 C279.07861,20.2493572 279.047565,20.3215427 279.046851,20.3971801 C279.046137,20.4728174 279.075814,20.5455761 279.129224,20.5991374 L280.141023,21.6217461 C280.245319,21.7261686 280.413858,21.7283725 280.520849,21.626713 C281.311359,20.9108851 282.339616,20.5142645 283.406066,20.5138226 Z M285.351068,22.9543513 C285.405196,22.9012288 285.435005,22.8281251 285.433456,22.7522999 C285.431907,22.6764748 285.399139,22.6046491 285.342887,22.5537809 C284.224821,21.6081157 282.587311,21.6081157 281.469245,22.5537809 C281.412954,22.6046082 281.380132,22.6764113 281.378528,22.7522368 C281.376924,22.8280623 281.406681,22.9011891 281.460772,22.9543513 L283.21177,24.721127 C283.263091,24.7730512 283.33306,24.8022733 283.406066,24.8022733 C283.479072,24.8022733 283.549041,24.7730512 283.600362,24.721127 L285.351068,22.9543513 Z" id="Wifi" fill="#FFFFFF" fill-rule="nonzero"></path>
                        <path d="M258.281739,21.3286957 L259.158261,21.3286957 C259.64235,21.3286957 260.034783,21.7211278 260.034783,22.2052174 L260.034783,23.9582609 C260.034783,24.4423505 259.64235,24.8347826 259.158261,24.8347826 L258.281739,24.8347826 C257.79765,24.8347826 257.405217,24.4423505 257.405217,23.9582609 L257.405217,22.2052174 C257.405217,21.7211278 257.79765,21.3286957 258.281739,21.3286957 Z M262.372174,19.5756522 L263.248696,19.5756522 C263.732785,19.5756522 264.125217,19.9680843 264.125217,20.4521739 L264.125217,23.9582609 C264.125217,24.4423505 263.732785,24.8347826 263.248696,24.8347826 L262.372174,24.8347826 C261.888084,24.8347826 261.495652,24.4423505 261.495652,23.9582609 L261.495652,20.4521739 C261.495652,19.9680843 261.888084,19.5756522 262.372174,19.5756522 Z M266.462609,17.5304348 L267.33913,17.5304348 C267.82322,17.5304348 268.215652,17.9228669 268.215652,18.4069565 L268.215652,23.9582609 C268.215652,24.4423505 267.82322,24.8347826 267.33913,24.8347826 L266.462609,24.8347826 C265.978519,24.8347826 265.586087,24.4423505 265.586087,23.9582609 L265.586087,18.4069565 C265.586087,17.9228669 265.978519,17.5304348 266.462609,17.5304348 Z M270.553043,15.4852174 L271.429565,15.4852174 C271.913655,15.4852174 272.306087,15.8776495 272.306087,16.3617391 L272.306087,23.9582609 C272.306087,24.4423505 271.913655,24.8347826 271.429565,24.8347826 L270.553043,24.8347826 C270.068954,24.8347826 269.676522,24.4423505 269.676522,23.9582609 L269.676522,16.3617391 C269.676522,15.8776495 270.068954,15.4852174 270.553043,15.4852174 Z" id="Cellular-Connection" fill="#FFFFFF" fill-rule="nonzero"></path>
                        <g id="iPhone-X/Overrides/Time-White" transform="translate(18.406957, 11.394783)" fill="#FFFFFF" font-family="SFProText-Semibold, SF Pro Text" font-size="12.2713043" font-weight="500" letter-spacing="-0.245426088">
                            <text id="↳-Time">
                                <tspan x="10.7832546" y="13.9400669">9:4</tspan>
                                <tspan x="30.4612019" y="13.9400669">1</tspan>
                            </text>
                        </g>
                    </g>
                </g>
            </g>
        </g>
    </g>
</svg>