<?xml version="1.0" encoding="UTF-8" standalone="no"?>
<!DOCTYPE svg PUBLIC "-//W3C//DTD SVG 1.1//EN" "http://www.w3.org/Graphics/SVG/1.1/DTD/svg11.dtd">
<svg width="100%" height="100%" viewBox="0 0 239 24" version="1.1" xmlns="http://www.w3.org/2000/svg" xmlns:xlink="http://www.w3.org/1999/xlink" xml:space="preserve" xmlns:serif="http://www.serif.com/" style="fill-rule:evenodd;clip-rule:evenodd;stroke-linecap:round;">
    <g id="Group-44" transform="matrix(1,0,0,1,0.29913,0.349565)">
        <g id="Group-6" transform="matrix(1,0,0,1,32.8696,0)">
            <g transform="matrix(1,0,0,1,0.313043,15.5652)">
                <g id="SonicWave-231o-D5824">
                    <text x="0px" y="0px" style="font-family:'Nunito-Regular', 'Nunito';font-size:14.087px;fill:rgb(234,234,234);">SonicW<tspan x="49.248px " y="0px ">a</tspan>ve 231o<tspan x="108.315px " y="0px ">-</tspan>D58244</text>
                </g>
            </g>
            <g id="Group-2-Copy-9" transform="matrix(1,0,0,1,176.087,0)">
                <g id="Wi-Fi" transform="matrix(-3.82857e-16,1,-1,-3.82857e-16,32.3516,-8.87332)">
                    <path d="M12.69,11.021C17.057,6.649 24.168,6.649 28.535,11.021C29.024,11.515 29.024,12.311 28.535,12.801C28.29,13.045 27.968,13.17 27.647,13.17C27.325,13.17 27.004,13.045 26.759,12.801C23.371,9.413 17.858,9.413 14.471,12.801C13.976,13.29 13.18,13.29 12.69,12.801C12.201,12.307 12.201,11.51 12.69,11.021ZM16.088,14.418C18.583,11.923 22.642,11.923 25.132,14.423C25.622,14.912 25.622,15.709 25.132,16.198C24.888,16.443 24.566,16.567 24.245,16.567C23.923,16.567 23.602,16.443 23.357,16.198C21.846,14.682 19.379,14.682 17.868,16.198C17.374,16.687 16.577,16.687 16.088,16.198C15.598,15.704 15.598,14.907 16.088,14.418ZM20.612,20.612C19.688,20.612 18.938,19.863 18.938,18.938C18.938,18.013 19.688,17.263 20.612,17.263C21.537,17.263 22.287,18.013 22.287,18.938C22.287,19.863 21.537,20.612 20.612,20.612ZM31.985,7.566C32.474,8.06 32.474,8.857 31.985,9.346C31.74,9.591 31.418,9.715 31.097,9.715C30.775,9.715 30.454,9.591 30.209,9.346C24.917,4.053 16.308,4.053 11.021,9.346C10.526,9.835 9.73,9.835 9.24,9.346C8.751,8.852 8.751,8.055 9.24,7.566C15.512,1.299 25.713,1.299 31.985,7.566Z" style="fill:rgb(71,175,232);fill-rule:nonzero;"/>
                </g>
                <path id="bluetooth" d="M11.26,15.355L6.98,11.893L11.26,8.431C11.664,8.104 11.664,7.501 11.26,7.174L6.203,3.084C5.654,2.64 4.82,3.019 4.82,3.713L4.82,9.918L2.045,7.224C1.716,6.905 1.182,6.905 0.853,7.224C0.524,7.544 0.524,8.062 0.853,8.381L4.471,11.893L0.853,15.405C0.524,15.724 0.524,16.242 0.853,16.562C1.182,16.881 1.716,16.881 2.045,16.562L4.82,13.868L4.82,20.073C4.82,20.767 5.654,21.146 6.203,20.702L11.26,16.612C11.664,16.284 11.664,15.682 11.26,15.355ZM6.506,5.459L9.404,7.803L6.506,10.146L6.506,5.459ZM6.506,18.327L6.506,13.639L9.404,15.983L6.506,18.327Z" style="fill:rgb(155,155,155);fill-rule:nonzero;"/>
            </g>
        </g>
        <g id="Group-23" transform="matrix(1,0,0,1,0,2.34783)">
            <path id="Rectangle" d="M18.783,1.565C18.783,0.701 18.081,0 17.217,0L1.565,0C0.701,0 0,0.701 0,1.565L0,17.217C0,18.081 0.701,18.783 1.565,18.783L17.217,18.783C18.081,18.783 18.783,18.081 18.783,17.217L18.783,1.565Z" style="fill:rgb(252,120,26);"/>
            <path id="Path-4" d="M3.13,10.326L6.959,14.087L15.652,5.478" style="fill:none;stroke:rgb(31,31,31);stroke-width:1.57px;"/>
        </g>
    </g>
</svg>
