<?xml version="1.0" encoding="UTF-8" standalone="no"?>
<!DOCTYPE svg PUBLIC "-//W3C//DTD SVG 1.1//EN" "http://www.w3.org/Graphics/SVG/1.1/DTD/svg11.dtd">
<svg width="100%" height="100%" viewBox="0 0 239 24" version="1.1" xmlns="http://www.w3.org/2000/svg" xmlns:xlink="http://www.w3.org/1999/xlink" xml:space="preserve" xmlns:serif="http://www.serif.com/" style="fill-rule:evenodd;clip-rule:evenodd;stroke-linecap:round;">
    <g id="Group-45" transform="matrix(1,0,0,1,-0.44,0)">
        <g transform="matrix(1,0,0,1,33.9077,16.7843)">
            <g id="SonicWave-231i-E9E90">
                <text x="0px" y="0px" style="font-family:'Nunito-Regular', 'Nunito';font-size:14.087px;fill:rgb(222,222,222);">SonicW<tspan x="49.248px " y="0px ">a</tspan>ve 231i-E9E907</text>
            </g>
        </g>
        <g id="bluetooth_2-copy-3" transform="matrix(1,0,0,1,209.696,0.436522)">
            <path id="bluetooth" d="M10.653,14.81L6.373,11.348L10.653,7.886C11.058,7.559 11.058,6.956 10.653,6.629L5.596,2.539C5.047,2.095 4.214,2.474 4.214,3.167L4.214,9.373L1.439,6.679C1.11,6.36 0.576,6.36 0.247,6.679C-0.082,6.999 -0.082,7.517 0.247,7.836L3.865,11.348L0.247,14.86C-0.082,15.179 -0.082,15.697 0.247,16.016C0.576,16.336 1.11,16.336 1.439,16.016L4.214,13.323L4.214,19.528C4.214,20.222 5.047,20.601 5.596,20.157L10.653,16.066C11.058,15.739 11.058,15.137 10.653,14.81ZM5.9,4.914L8.797,7.258L5.9,9.601L5.9,4.914ZM5.9,17.782L5.9,13.094L8.797,15.438L5.9,17.782Z" style="fill:rgb(155,155,155);fill-rule:nonzero;"/>
            <g id="Group" transform="matrix(1,0,0,1,11.7391,0)">
                <g id="Shape" transform="matrix(-3.82857e-16,1,-1,-3.82857e-16,21.5684,1.27072)">
                    <path d="M2.227,11.984C1.737,12.473 1.737,13.27 2.227,13.764C2.716,14.254 3.513,14.254 4.007,13.764C7.395,10.377 12.908,10.377 16.296,13.764C16.54,14.009 16.862,14.134 17.183,14.134C17.505,14.134 17.826,14.009 18.071,13.764C18.56,13.275 18.56,12.478 18.071,11.984C13.704,7.613 6.593,7.613 2.227,11.984Z" style="fill:rgb(74,74,74);"/>
                </g>
                <g id="Shape1" serif:id="Shape" transform="matrix(-3.82857e-16,1,-1,-3.82857e-16,17.0736,5.22713)">
                    <path d="M1.401,11.011C0.911,11.5 0.911,12.297 1.401,12.791C1.89,13.281 2.687,13.281 3.181,12.791C4.692,11.275 7.159,11.275 8.67,12.791C8.915,13.036 9.236,13.161 9.558,13.161C9.879,13.161 10.201,13.036 10.446,12.791C10.935,12.302 10.935,11.505 10.446,11.016C7.955,8.516 3.896,8.516 1.401,11.011Z" style="fill:rgb(71,175,232);"/>
                </g>
                <g id="Oval-path" transform="matrix(-3.82857e-16,1,-1,-3.82857e-16,12.7405,9.39131)">
                    <circle cx="1.675" cy="11.066" r="1.675" style="fill:rgb(71,175,232);"/>
                </g>
                <g id="Shape2" serif:id="Shape" transform="matrix(-3.82857e-16,1,-1,-3.82857e-16,26.1205,-2.6422)">
                    <path d="M25.753,13.014C19.482,6.748 9.281,6.748 3.009,13.014C2.52,13.504 2.52,14.3 3.009,14.794C3.499,15.284 4.295,15.284 4.789,14.794C10.077,9.502 18.685,9.502 23.978,14.794C24.223,15.039 24.544,15.164 24.866,15.164C25.187,15.164 25.509,15.039 25.753,14.794C26.243,14.305 26.243,13.509 25.753,13.014Z" style="fill:rgb(74,74,74);"/>
                </g>
            </g>
        </g>
        <g id="Group-23-Copy-2" transform="matrix(1,0,0,1,0.73913,2.78435)">
            <path id="Rectangle" d="M18.783,1.565C18.783,0.701 18.081,0 17.217,0L1.565,0C0.701,0 0,0.701 0,1.565L0,17.217C0,18.081 0.701,18.783 1.565,18.783L17.217,18.783C18.081,18.783 18.783,18.081 18.783,17.217L18.783,1.565Z" style="fill:rgb(252,120,26);"/>
            <path id="Path-4" d="M3.13,10.326L6.959,14.087L15.652,5.478" style="fill:none;stroke:rgb(31,31,31);stroke-width:1.57px;"/>
        </g>
    </g>
</svg>
