<?xml version="1.0" encoding="UTF-8" standalone="no"?><!DOCTYPE svg PUBLIC "-//W3C//DTD SVG 1.1//EN" "http://www.w3.org/Graphics/SVG/1.1/DTD/svg11.dtd"><svg width="100%" height="100%" viewBox="0 0 485 19" version="1.1" xmlns="http://www.w3.org/2000/svg" xmlns:xlink="http://www.w3.org/1999/xlink" xml:space="preserve" xmlns:serif="http://www.serif.com/" style="fill-rule:evenodd;clip-rule:evenodd;stroke-linejoin:round;stroke-miterlimit:1.41421;"><g id="Legend"><path id="Global-Average" d="M0,8.49l54.125,-6.49l-0.048,4.976l22.019,0l0,3.047l-22.019,0l0,5.082l-54.077,-6.615Z" style="fill:#ff7918;"/><path id="Customer-Total" d="M263,8.49l54.125,-6.49l-0.048,4.976l22.019,0l0,3.047l-22.019,0l0,5.082l-54.077,-6.615Z" style="fill:#4a90e2;"/><g id="Tenant-Data"><path d="M90.98,15.1c-0.253,0 -0.457,-0.077 -0.61,-0.23c-0.153,-0.153 -0.23,-0.357 -0.23,-0.61l0,-11.96l-4.3,0c-0.24,0 -0.427,-0.06 -0.56,-0.18c-0.133,-0.12 -0.2,-0.293 -0.2,-0.52c0,-0.227 0.067,-0.4 0.2,-0.52c0.133,-0.12 0.32,-0.18 0.56,-0.18l10.26,0c0.24,0 0.427,0.06 0.56,0.18c0.133,0.12 0.2,0.293 0.2,0.52c0,0.227 -0.067,0.4 -0.2,0.52c-0.133,0.12 -0.32,0.18 -0.56,0.18l-4.3,0l0,11.96c0,0.253 -0.073,0.457 -0.22,0.61c-0.147,0.153 -0.347,0.23 -0.6,0.23Z" style="fill:#999;fill-rule:nonzero;"/><path d="M104.48,12.74c0.147,0 0.273,0.06 0.38,0.18c0.107,0.12 0.16,0.273 0.16,0.46c0,0.333 -0.233,0.64 -0.7,0.92c-0.48,0.28 -0.987,0.49 -1.52,0.63c-0.533,0.14 -1.053,0.21 -1.56,0.21c-1.507,0 -2.697,-0.447 -3.57,-1.34c-0.873,-0.893 -1.31,-2.127 -1.31,-3.7c0,-1 0.193,-1.883 0.58,-2.65c0.387,-0.767 0.93,-1.363 1.63,-1.79c0.7,-0.427 1.497,-0.64 2.39,-0.64c1.267,0 2.273,0.413 3.02,1.24c0.747,0.827 1.12,1.947 1.12,3.36c0,0.267 -0.053,0.46 -0.16,0.58c-0.107,0.12 -0.28,0.18 -0.52,0.18l-6.44,0c0.12,2.293 1.207,3.44 3.26,3.44c0.52,0 0.967,-0.07 1.34,-0.21c0.373,-0.14 0.773,-0.33 1.2,-0.57c0.347,-0.2 0.58,-0.3 0.7,-0.3Zm-3.5,-6.46c-0.853,0 -1.537,0.267 -2.05,0.8c-0.513,0.533 -0.817,1.287 -0.91,2.26l5.66,0c-0.027,-0.987 -0.273,-1.743 -0.74,-2.27c-0.467,-0.527 -1.12,-0.79 -1.96,-0.79Z" style="fill:#999;fill-rule:nonzero;"/><path d="M112.38,5.02c2.333,0 3.5,1.287 3.5,3.86l0,5.42c0,0.253 -0.07,0.45 -0.21,0.59c-0.14,0.14 -0.337,0.21 -0.59,0.21c-0.253,0 -0.453,-0.07 -0.6,-0.21c-0.147,-0.14 -0.22,-0.337 -0.22,-0.59l0,-5.32c0,-0.907 -0.177,-1.567 -0.53,-1.98c-0.353,-0.413 -0.917,-0.62 -1.69,-0.62c-0.893,0 -1.607,0.273 -2.14,0.82c-0.533,0.547 -0.8,1.287 -0.8,2.22l0,4.88c0,0.253 -0.07,0.45 -0.21,0.59c-0.14,0.14 -0.337,0.21 -0.59,0.21c-0.253,0 -0.453,-0.07 -0.6,-0.21c-0.147,-0.14 -0.22,-0.337 -0.22,-0.59l0,-8.44c0,-0.24 0.073,-0.433 0.22,-0.58c0.147,-0.147 0.347,-0.22 0.6,-0.22c0.24,0 0.43,0.073 0.57,0.22c0.14,0.147 0.21,0.333 0.21,0.56l0,1.02c0.32,-0.6 0.767,-1.057 1.34,-1.37c0.573,-0.313 1.227,-0.47 1.96,-0.47Z" style="fill:#999;fill-rule:nonzero;"/><path d="M122.82,5.02c2.44,0 3.66,1.28 3.66,3.84l0,5.44c0,0.24 -0.07,0.433 -0.21,0.58c-0.14,0.147 -0.33,0.22 -0.57,0.22c-0.24,0 -0.433,-0.073 -0.58,-0.22c-0.147,-0.147 -0.22,-0.34 -0.22,-0.58l0,-0.96c-0.253,0.573 -0.64,1.017 -1.16,1.33c-0.52,0.313 -1.12,0.47 -1.8,0.47c-0.627,0 -1.203,-0.127 -1.73,-0.38c-0.527,-0.253 -0.943,-0.607 -1.25,-1.06c-0.307,-0.453 -0.46,-0.953 -0.46,-1.5c0,-0.733 0.187,-1.303 0.56,-1.71c0.373,-0.407 0.987,-0.7 1.84,-0.88c0.853,-0.18 2.04,-0.27 3.56,-0.27l0.44,0l0,-0.66c0,-0.8 -0.163,-1.387 -0.49,-1.76c-0.327,-0.373 -0.857,-0.56 -1.59,-0.56c-0.907,0 -1.827,0.247 -2.76,0.74c-0.36,0.227 -0.613,0.34 -0.76,0.34c-0.16,0 -0.293,-0.06 -0.4,-0.18c-0.107,-0.12 -0.16,-0.273 -0.16,-0.46c0,-0.187 0.057,-0.35 0.17,-0.49c0.113,-0.14 0.297,-0.283 0.55,-0.43c0.467,-0.267 0.997,-0.477 1.59,-0.63c0.593,-0.153 1.183,-0.23 1.77,-0.23Zm-0.66,8.84c0.8,0 1.457,-0.27 1.97,-0.81c0.513,-0.54 0.77,-1.237 0.77,-2.09l0,-0.58l-0.36,0c-1.173,0 -2.067,0.05 -2.68,0.15c-0.613,0.1 -1.05,0.267 -1.31,0.5c-0.26,0.233 -0.39,0.577 -0.39,1.03c0,0.52 0.19,0.95 0.57,1.29c0.38,0.34 0.857,0.51 1.43,0.51Z" style="fill:#999;fill-rule:nonzero;"/><path d="M134.34,5.02c2.333,0 3.5,1.287 3.5,3.86l0,5.42c0,0.253 -0.07,0.45 -0.21,0.59c-0.14,0.14 -0.337,0.21 -0.59,0.21c-0.253,0 -0.453,-0.07 -0.6,-0.21c-0.147,-0.14 -0.22,-0.337 -0.22,-0.59l0,-5.32c0,-0.907 -0.177,-1.567 -0.53,-1.98c-0.353,-0.413 -0.917,-0.62 -1.69,-0.62c-0.893,0 -1.607,0.273 -2.14,0.82c-0.533,0.547 -0.8,1.287 -0.8,2.22l0,4.88c0,0.253 -0.07,0.45 -0.21,0.59c-0.14,0.14 -0.337,0.21 -0.59,0.21c-0.253,0 -0.453,-0.07 -0.6,-0.21c-0.147,-0.14 -0.22,-0.337 -0.22,-0.59l0,-8.44c0,-0.24 0.073,-0.433 0.22,-0.58c0.147,-0.147 0.347,-0.22 0.6,-0.22c0.24,0 0.43,0.073 0.57,0.22c0.14,0.147 0.21,0.333 0.21,0.56l0,1.02c0.32,-0.6 0.767,-1.057 1.34,-1.37c0.573,-0.313 1.227,-0.47 1.96,-0.47Z" style="fill:#999;fill-rule:nonzero;"/><path d="M145.3,13.82c0.467,0.04 0.7,0.253 0.7,0.64c0,0.227 -0.083,0.397 -0.25,0.51c-0.167,0.113 -0.417,0.157 -0.75,0.13l-0.54,-0.04c-1.067,-0.08 -1.853,-0.4 -2.36,-0.96c-0.507,-0.56 -0.76,-1.407 -0.76,-2.54l0,-5.02l-1.34,0c-0.227,0 -0.403,-0.057 -0.53,-0.17c-0.127,-0.113 -0.19,-0.263 -0.19,-0.45c0,-0.2 0.063,-0.36 0.19,-0.48c0.127,-0.12 0.303,-0.18 0.53,-0.18l1.34,0l0,-2.26c0,-0.253 0.073,-0.45 0.22,-0.59c0.147,-0.14 0.347,-0.21 0.6,-0.21c0.24,0 0.433,0.07 0.58,0.21c0.147,0.14 0.22,0.337 0.22,0.59l0,2.26l2.22,0c0.213,0 0.383,0.06 0.51,0.18c0.127,0.12 0.19,0.28 0.19,0.48c0,0.187 -0.063,0.337 -0.19,0.45c-0.127,0.113 -0.297,0.17 -0.51,0.17l-2.22,0l0,5.1c0,0.733 0.15,1.263 0.45,1.59c0.3,0.327 0.75,0.51 1.35,0.55l0.54,0.04Z" style="fill:#999;fill-rule:nonzero;"/><path d="M153.84,15c-0.253,0 -0.457,-0.073 -0.61,-0.22c-0.153,-0.147 -0.23,-0.34 -0.23,-0.58l0,-12.5c0,-0.24 0.077,-0.433 0.23,-0.58c0.153,-0.147 0.357,-0.22 0.61,-0.22l3.9,0c2.253,0 3.997,0.61 5.23,1.83c1.233,1.22 1.85,2.957 1.85,5.21c0,2.253 -0.62,3.993 -1.86,5.22c-1.24,1.227 -2.98,1.84 -5.22,1.84l-3.9,0Zm3.8,-1.4c3.653,0 5.48,-1.887 5.48,-5.66c0,-3.76 -1.827,-5.64 -5.48,-5.64l-3,0l0,11.3l3,0Z" style="fill:#999;fill-rule:nonzero;"/><path d="M171.52,5.02c2.44,0 3.66,1.28 3.66,3.84l0,5.44c0,0.24 -0.07,0.433 -0.21,0.58c-0.14,0.147 -0.33,0.22 -0.57,0.22c-0.24,0 -0.433,-0.073 -0.58,-0.22c-0.147,-0.147 -0.22,-0.34 -0.22,-0.58l0,-0.96c-0.253,0.573 -0.64,1.017 -1.16,1.33c-0.52,0.313 -1.12,0.47 -1.8,0.47c-0.627,0 -1.203,-0.127 -1.73,-0.38c-0.527,-0.253 -0.943,-0.607 -1.25,-1.06c-0.307,-0.453 -0.46,-0.953 -0.46,-1.5c0,-0.733 0.187,-1.303 0.56,-1.71c0.373,-0.407 0.987,-0.7 1.84,-0.88c0.853,-0.18 2.04,-0.27 3.56,-0.27l0.44,0l0,-0.66c0,-0.8 -0.163,-1.387 -0.49,-1.76c-0.327,-0.373 -0.857,-0.56 -1.59,-0.56c-0.907,0 -1.827,0.247 -2.76,0.74c-0.36,0.227 -0.613,0.34 -0.76,0.34c-0.16,0 -0.293,-0.06 -0.4,-0.18c-0.107,-0.12 -0.16,-0.273 -0.16,-0.46c0,-0.187 0.057,-0.35 0.17,-0.49c0.113,-0.14 0.297,-0.283 0.55,-0.43c0.467,-0.267 0.997,-0.477 1.59,-0.63c0.593,-0.153 1.183,-0.23 1.77,-0.23Zm-0.66,8.84c0.8,0 1.457,-0.27 1.97,-0.81c0.513,-0.54 0.77,-1.237 0.77,-2.09l0,-0.58l-0.36,0c-1.173,0 -2.067,0.05 -2.68,0.15c-0.613,0.1 -1.05,0.267 -1.31,0.5c-0.26,0.233 -0.39,0.577 -0.39,1.03c0,0.52 0.19,0.95 0.57,1.29c0.38,0.34 0.857,0.51 1.43,0.51Z" style="fill:#999;fill-rule:nonzero;"/><path d="M182.64,13.82c0.467,0.04 0.7,0.253 0.7,0.64c0,0.227 -0.083,0.397 -0.25,0.51c-0.167,0.113 -0.417,0.157 -0.75,0.13l-0.54,-0.04c-1.067,-0.08 -1.853,-0.4 -2.36,-0.96c-0.507,-0.56 -0.76,-1.407 -0.76,-2.54l0,-5.02l-1.34,0c-0.227,0 -0.403,-0.057 -0.53,-0.17c-0.127,-0.113 -0.19,-0.263 -0.19,-0.45c0,-0.2 0.063,-0.36 0.19,-0.48c0.127,-0.12 0.303,-0.18 0.53,-0.18l1.34,0l0,-2.26c0,-0.253 0.073,-0.45 0.22,-0.59c0.147,-0.14 0.347,-0.21 0.6,-0.21c0.24,0 0.433,0.07 0.58,0.21c0.147,0.14 0.22,0.337 0.22,0.59l0,2.26l2.22,0c0.213,0 0.383,0.06 0.51,0.18c0.127,0.12 0.19,0.28 0.19,0.48c0,0.187 -0.063,0.337 -0.19,0.45c-0.127,0.113 -0.297,0.17 -0.51,0.17l-2.22,0l0,5.1c0,0.733 0.15,1.263 0.45,1.59c0.3,0.327 0.75,0.51 1.35,0.55l0.54,0.04Z" style="fill:#999;fill-rule:nonzero;"/><path d="M188.92,5.02c2.44,0 3.66,1.28 3.66,3.84l0,5.44c0,0.24 -0.07,0.433 -0.21,0.58c-0.14,0.147 -0.33,0.22 -0.57,0.22c-0.24,0 -0.433,-0.073 -0.58,-0.22c-0.147,-0.147 -0.22,-0.34 -0.22,-0.58l0,-0.96c-0.253,0.573 -0.64,1.017 -1.16,1.33c-0.52,0.313 -1.12,0.47 -1.8,0.47c-0.627,0 -1.203,-0.127 -1.73,-0.38c-0.527,-0.253 -0.943,-0.607 -1.25,-1.06c-0.307,-0.453 -0.46,-0.953 -0.46,-1.5c0,-0.733 0.187,-1.303 0.56,-1.71c0.373,-0.407 0.987,-0.7 1.84,-0.88c0.853,-0.18 2.04,-0.27 3.56,-0.27l0.44,0l0,-0.66c0,-0.8 -0.163,-1.387 -0.49,-1.76c-0.327,-0.373 -0.857,-0.56 -1.59,-0.56c-0.907,0 -1.827,0.247 -2.76,0.74c-0.36,0.227 -0.613,0.34 -0.76,0.34c-0.16,0 -0.293,-0.06 -0.4,-0.18c-0.107,-0.12 -0.16,-0.273 -0.16,-0.46c0,-0.187 0.057,-0.35 0.17,-0.49c0.113,-0.14 0.297,-0.283 0.55,-0.43c0.467,-0.267 0.997,-0.477 1.59,-0.63c0.593,-0.153 1.183,-0.23 1.77,-0.23Zm-0.66,8.84c0.8,0 1.457,-0.27 1.97,-0.81c0.513,-0.54 0.77,-1.237 0.77,-2.09l0,-0.58l-0.36,0c-1.173,0 -2.067,0.05 -2.68,0.15c-0.613,0.1 -1.05,0.267 -1.31,0.5c-0.26,0.233 -0.39,0.577 -0.39,1.03c0,0.52 0.19,0.95 0.57,1.29c0.38,0.34 0.857,0.51 1.43,0.51Z" style="fill:#999;fill-rule:nonzero;"/></g><g id="Global-Average1" serif:id="Global-Average"><path d="M360.22,7.66c0.2,0 0.363,0.06 0.49,0.18c0.127,0.12 0.19,0.287 0.19,0.5l0,4.98c0,0.32 -0.05,0.56 -0.15,0.72c-0.1,0.16 -0.283,0.287 -0.55,0.38c-0.533,0.227 -1.18,0.407 -1.94,0.54c-0.76,0.133 -1.52,0.2 -2.28,0.2c-1.4,0 -2.607,-0.287 -3.62,-0.86c-1.013,-0.573 -1.79,-1.4 -2.33,-2.48c-0.54,-1.08 -0.81,-2.373 -0.81,-3.88c0,-1.48 0.267,-2.76 0.8,-3.84c0.533,-1.08 1.3,-1.91 2.3,-2.49c1,-0.58 2.173,-0.87 3.52,-0.87c0.933,0 1.8,0.143 2.6,0.43c0.8,0.287 1.473,0.697 2.02,1.23c0.227,0.227 0.34,0.46 0.34,0.7c0,0.187 -0.053,0.35 -0.16,0.49c-0.107,0.14 -0.24,0.21 -0.4,0.21c-0.16,0 -0.347,-0.08 -0.56,-0.24c-0.693,-0.533 -1.32,-0.903 -1.88,-1.11c-0.56,-0.207 -1.207,-0.31 -1.94,-0.31c-1.587,0 -2.803,0.5 -3.65,1.5c-0.847,1 -1.27,2.433 -1.27,4.3c0,1.907 0.43,3.357 1.29,4.35c0.86,0.993 2.123,1.49 3.79,1.49c1.24,0 2.367,-0.187 3.38,-0.56l0,-4.28l-2.92,0c-0.227,0 -0.407,-0.06 -0.54,-0.18c-0.133,-0.12 -0.2,-0.273 -0.2,-0.46c0,-0.2 0.067,-0.357 0.2,-0.47c0.133,-0.113 0.313,-0.17 0.54,-0.17l3.74,0Z" style="fill:#999;fill-rule:nonzero;"/><path d="M364.8,15.1c-0.24,0 -0.437,-0.07 -0.59,-0.21c-0.153,-0.14 -0.23,-0.337 -0.23,-0.59l0,-12.7c0,-0.253 0.077,-0.45 0.23,-0.59c0.153,-0.14 0.35,-0.21 0.59,-0.21c0.227,0 0.417,0.07 0.57,0.21c0.153,0.14 0.23,0.337 0.23,0.59l0,12.7c0,0.253 -0.077,0.45 -0.23,0.59c-0.153,0.14 -0.343,0.21 -0.57,0.21Z" style="fill:#999;fill-rule:nonzero;"/><path d="M372.66,15.14c-0.92,0 -1.73,-0.207 -2.43,-0.62c-0.7,-0.413 -1.24,-1.003 -1.62,-1.77c-0.38,-0.767 -0.57,-1.657 -0.57,-2.67c0,-1.013 0.19,-1.903 0.57,-2.67c0.38,-0.767 0.92,-1.357 1.62,-1.77c0.7,-0.413 1.51,-0.62 2.43,-0.62c0.92,0 1.733,0.207 2.44,0.62c0.707,0.413 1.25,1.003 1.63,1.77c0.38,0.767 0.57,1.657 0.57,2.67c0,1.013 -0.19,1.903 -0.57,2.67c-0.38,0.767 -0.923,1.357 -1.63,1.77c-0.707,0.413 -1.52,0.62 -2.44,0.62Zm0,-1.34c0.96,0 1.697,-0.317 2.21,-0.95c0.513,-0.633 0.77,-1.557 0.77,-2.77c0,-1.187 -0.26,-2.103 -0.78,-2.75c-0.52,-0.647 -1.253,-0.97 -2.2,-0.97c-0.947,0 -1.68,0.323 -2.2,0.97c-0.52,0.647 -0.78,1.563 -0.78,2.75c0,1.2 0.257,2.12 0.77,2.76c0.513,0.64 1.25,0.96 2.21,0.96Z" style="fill:#999;fill-rule:nonzero;"/><path d="M384.62,5.02c0.853,0 1.607,0.207 2.26,0.62c0.653,0.413 1.16,1 1.52,1.76c0.36,0.76 0.54,1.64 0.54,2.64c0,1.013 -0.18,1.903 -0.54,2.67c-0.36,0.767 -0.867,1.363 -1.52,1.79c-0.653,0.427 -1.407,0.64 -2.26,0.64c-0.76,0 -1.423,-0.167 -1.99,-0.5c-0.567,-0.333 -0.997,-0.807 -1.29,-1.42l0,1.08c0,0.24 -0.07,0.433 -0.21,0.58c-0.14,0.147 -0.337,0.22 -0.59,0.22c-0.253,0 -0.453,-0.073 -0.6,-0.22c-0.147,-0.147 -0.22,-0.34 -0.22,-0.58l0,-12.72c0,-0.227 0.073,-0.413 0.22,-0.56c0.147,-0.147 0.347,-0.22 0.6,-0.22c0.253,0 0.45,0.07 0.59,0.21c0.14,0.14 0.21,0.33 0.21,0.57l0,5.36c0.293,-0.613 0.723,-1.087 1.29,-1.42c0.567,-0.333 1.23,-0.5 1.99,-0.5Zm-0.32,8.78c0.947,0 1.68,-0.33 2.2,-0.99c0.52,-0.66 0.78,-1.583 0.78,-2.77c0,-1.16 -0.26,-2.06 -0.78,-2.7c-0.52,-0.64 -1.253,-0.96 -2.2,-0.96c-0.947,0 -1.677,0.32 -2.19,0.96c-0.513,0.64 -0.77,1.553 -0.77,2.74c0,1.187 0.257,2.103 0.77,2.75c0.513,0.647 1.243,0.97 2.19,0.97Z" style="fill:#999;fill-rule:nonzero;"/><path d="M395.34,5.02c2.44,0 3.66,1.28 3.66,3.84l0,5.44c0,0.24 -0.07,0.433 -0.21,0.58c-0.14,0.147 -0.33,0.22 -0.57,0.22c-0.24,0 -0.433,-0.073 -0.58,-0.22c-0.147,-0.147 -0.22,-0.34 -0.22,-0.58l0,-0.96c-0.253,0.573 -0.64,1.017 -1.16,1.33c-0.52,0.313 -1.12,0.47 -1.8,0.47c-0.627,0 -1.203,-0.127 -1.73,-0.38c-0.527,-0.253 -0.943,-0.607 -1.25,-1.06c-0.307,-0.453 -0.46,-0.953 -0.46,-1.5c0,-0.733 0.187,-1.303 0.56,-1.71c0.373,-0.407 0.987,-0.7 1.84,-0.88c0.853,-0.18 2.04,-0.27 3.56,-0.27l0.44,0l0,-0.66c0,-0.8 -0.163,-1.387 -0.49,-1.76c-0.327,-0.373 -0.857,-0.56 -1.59,-0.56c-0.907,0 -1.827,0.247 -2.76,0.74c-0.36,0.227 -0.613,0.34 -0.76,0.34c-0.16,0 -0.293,-0.06 -0.4,-0.18c-0.107,-0.12 -0.16,-0.273 -0.16,-0.46c0,-0.187 0.057,-0.35 0.17,-0.49c0.113,-0.14 0.297,-0.283 0.55,-0.43c0.467,-0.267 0.997,-0.477 1.59,-0.63c0.593,-0.153 1.183,-0.23 1.77,-0.23Zm-0.66,8.84c0.8,0 1.457,-0.27 1.97,-0.81c0.513,-0.54 0.77,-1.237 0.77,-2.09l0,-0.58l-0.36,0c-1.173,0 -2.067,0.05 -2.68,0.15c-0.613,0.1 -1.05,0.267 -1.31,0.5c-0.26,0.233 -0.39,0.577 -0.39,1.03c0,0.52 0.19,0.95 0.57,1.29c0.38,0.34 0.857,0.51 1.43,0.51Z" style="fill:#999;fill-rule:nonzero;"/><path d="M402.78,15.1c-0.24,0 -0.437,-0.07 -0.59,-0.21c-0.153,-0.14 -0.23,-0.337 -0.23,-0.59l0,-12.7c0,-0.253 0.077,-0.45 0.23,-0.59c0.153,-0.14 0.35,-0.21 0.59,-0.21c0.227,0 0.417,0.07 0.57,0.21c0.153,0.14 0.23,0.337 0.23,0.59l0,12.7c0,0.253 -0.077,0.45 -0.23,0.59c-0.153,0.14 -0.343,0.21 -0.57,0.21Z" style="fill:#999;fill-rule:nonzero;"/><path d="M424.14,14.06c0.053,0.107 0.08,0.22 0.08,0.34c0,0.2 -0.077,0.367 -0.23,0.5c-0.153,0.133 -0.337,0.2 -0.55,0.2c-0.333,0 -0.567,-0.16 -0.7,-0.48l-1.42,-3.24l-7.54,0l-1.44,3.24c-0.133,0.32 -0.367,0.48 -0.7,0.48c-0.213,0 -0.4,-0.07 -0.56,-0.21c-0.16,-0.14 -0.24,-0.31 -0.24,-0.51c0,-0.107 0.027,-0.213 0.08,-0.32l5.72,-12.72c0.08,-0.187 0.2,-0.327 0.36,-0.42c0.16,-0.093 0.333,-0.14 0.52,-0.14c0.2,0 0.38,0.05 0.54,0.15c0.16,0.1 0.28,0.237 0.36,0.41l5.72,12.72Zm-9.76,-4.04l6.34,0l-3.18,-7.18l-3.16,7.18Z" style="fill:#999;fill-rule:nonzero;"/><path d="M432.86,5.56c0.147,-0.32 0.38,-0.48 0.7,-0.48c0.2,0 0.38,0.067 0.54,0.2c0.16,0.133 0.24,0.3 0.24,0.5c0,0.12 -0.027,0.227 -0.08,0.32l-3.9,8.4c-0.08,0.173 -0.2,0.31 -0.36,0.41c-0.16,0.1 -0.333,0.15 -0.52,0.15c-0.173,0 -0.34,-0.05 -0.5,-0.15c-0.16,-0.1 -0.287,-0.237 -0.38,-0.41l-3.88,-8.4c-0.053,-0.093 -0.08,-0.193 -0.08,-0.3c0,-0.2 0.09,-0.373 0.27,-0.52c0.18,-0.147 0.377,-0.22 0.59,-0.22c0.133,0 0.263,0.04 0.39,0.12c0.127,0.08 0.223,0.193 0.29,0.34l3.34,7.5l3.34,-7.46Z" style="fill:#999;fill-rule:nonzero;"/><path d="M443.54,12.74c0.147,0 0.273,0.06 0.38,0.18c0.107,0.12 0.16,0.273 0.16,0.46c0,0.333 -0.233,0.64 -0.7,0.92c-0.48,0.28 -0.987,0.49 -1.52,0.63c-0.533,0.14 -1.053,0.21 -1.56,0.21c-1.507,0 -2.697,-0.447 -3.57,-1.34c-0.873,-0.893 -1.31,-2.127 -1.31,-3.7c0,-1 0.193,-1.883 0.58,-2.65c0.387,-0.767 0.93,-1.363 1.63,-1.79c0.7,-0.427 1.497,-0.64 2.39,-0.64c1.267,0 2.273,0.413 3.02,1.24c0.747,0.827 1.12,1.947 1.12,3.36c0,0.267 -0.053,0.46 -0.16,0.58c-0.107,0.12 -0.28,0.18 -0.52,0.18l-6.44,0c0.12,2.293 1.207,3.44 3.26,3.44c0.52,0 0.967,-0.07 1.34,-0.21c0.373,-0.14 0.773,-0.33 1.2,-0.57c0.347,-0.2 0.58,-0.3 0.7,-0.3Zm-3.5,-6.46c-0.853,0 -1.537,0.267 -2.05,0.8c-0.513,0.533 -0.817,1.287 -0.91,2.26l5.66,0c-0.027,-0.987 -0.273,-1.743 -0.74,-2.27c-0.467,-0.527 -1.12,-0.79 -1.96,-0.79Z" style="fill:#999;fill-rule:nonzero;"/><path d="M451.36,5.06c0.56,-0.04 0.84,0.187 0.84,0.68c0,0.213 -0.06,0.383 -0.18,0.51c-0.12,0.127 -0.327,0.203 -0.62,0.23l-0.6,0.06c-0.893,0.08 -1.557,0.397 -1.99,0.95c-0.433,0.553 -0.65,1.203 -0.65,1.95l0,4.86c0,0.267 -0.073,0.467 -0.22,0.6c-0.147,0.133 -0.34,0.2 -0.58,0.2c-0.24,0 -0.437,-0.07 -0.59,-0.21c-0.153,-0.14 -0.23,-0.337 -0.23,-0.59l0,-8.44c0,-0.253 0.08,-0.45 0.24,-0.59c0.16,-0.14 0.353,-0.21 0.58,-0.21c0.213,0 0.393,0.07 0.54,0.21c0.147,0.14 0.22,0.33 0.22,0.57l0,1.12c0.28,-0.587 0.677,-1.033 1.19,-1.34c0.513,-0.307 1.103,-0.487 1.77,-0.54l0.28,-0.02Z" style="fill:#999;fill-rule:nonzero;"/><path d="M457.5,5.02c2.44,0 3.66,1.28 3.66,3.84l0,5.44c0,0.24 -0.07,0.433 -0.21,0.58c-0.14,0.147 -0.33,0.22 -0.57,0.22c-0.24,0 -0.433,-0.073 -0.58,-0.22c-0.147,-0.147 -0.22,-0.34 -0.22,-0.58l0,-0.96c-0.253,0.573 -0.64,1.017 -1.16,1.33c-0.52,0.313 -1.12,0.47 -1.8,0.47c-0.627,0 -1.203,-0.127 -1.73,-0.38c-0.527,-0.253 -0.943,-0.607 -1.25,-1.06c-0.307,-0.453 -0.46,-0.953 -0.46,-1.5c0,-0.733 0.187,-1.303 0.56,-1.71c0.373,-0.407 0.987,-0.7 1.84,-0.88c0.853,-0.18 2.04,-0.27 3.56,-0.27l0.44,0l0,-0.66c0,-0.8 -0.163,-1.387 -0.49,-1.76c-0.327,-0.373 -0.857,-0.56 -1.59,-0.56c-0.907,0 -1.827,0.247 -2.76,0.74c-0.36,0.227 -0.613,0.34 -0.76,0.34c-0.16,0 -0.293,-0.06 -0.4,-0.18c-0.107,-0.12 -0.16,-0.273 -0.16,-0.46c0,-0.187 0.057,-0.35 0.17,-0.49c0.113,-0.14 0.297,-0.283 0.55,-0.43c0.467,-0.267 0.997,-0.477 1.59,-0.63c0.593,-0.153 1.183,-0.23 1.77,-0.23Zm-0.66,8.84c0.8,0 1.457,-0.27 1.97,-0.81c0.513,-0.54 0.77,-1.237 0.77,-2.09l0,-0.58l-0.36,0c-1.173,0 -2.067,0.05 -2.68,0.15c-0.613,0.1 -1.05,0.267 -1.31,0.5c-0.26,0.233 -0.39,0.577 -0.39,1.03c0,0.52 0.19,0.95 0.57,1.29c0.38,0.34 0.857,0.51 1.43,0.51Z" style="fill:#999;fill-rule:nonzero;"/><path d="M472.02,5.06c0.253,0 0.453,0.073 0.6,0.22c0.147,0.147 0.22,0.34 0.22,0.58l0,8.48c0,1.453 -0.373,2.55 -1.12,3.29c-0.747,0.74 -1.853,1.11 -3.32,1.11c-1.427,0 -2.613,-0.28 -3.56,-0.84c-0.48,-0.267 -0.72,-0.573 -0.72,-0.92c0,-0.187 0.05,-0.34 0.15,-0.46c0.1,-0.12 0.23,-0.18 0.39,-0.18c0.133,0 0.373,0.093 0.72,0.28c0.467,0.24 0.927,0.433 1.38,0.58c0.453,0.147 0.993,0.22 1.62,0.22c0.947,0 1.66,-0.25 2.14,-0.75c0.48,-0.5 0.72,-1.23 0.72,-2.19l0,-1.72c-0.28,0.627 -0.71,1.107 -1.29,1.44c-0.58,0.333 -1.263,0.5 -2.05,0.5c-0.853,0 -1.61,-0.2 -2.27,-0.6c-0.66,-0.4 -1.173,-0.967 -1.54,-1.7c-0.367,-0.733 -0.55,-1.58 -0.55,-2.54c0,-0.96 0.183,-1.807 0.55,-2.54c0.367,-0.733 0.88,-1.3 1.54,-1.7c0.66,-0.4 1.417,-0.6 2.27,-0.6c0.773,0 1.447,0.167 2.02,0.5c0.573,0.333 1.007,0.807 1.3,1.42l0,-1.08c0,-0.24 0.07,-0.433 0.21,-0.58c0.14,-0.147 0.337,-0.22 0.59,-0.22Zm-3.8,8.3c0.933,0 1.667,-0.31 2.2,-0.93c0.533,-0.62 0.8,-1.477 0.8,-2.57c0,-1.08 -0.263,-1.93 -0.79,-2.55c-0.527,-0.62 -1.263,-0.93 -2.21,-0.93c-0.947,0 -1.69,0.31 -2.23,0.93c-0.54,0.62 -0.81,1.47 -0.81,2.55c0,1.093 0.27,1.95 0.81,2.57c0.54,0.62 1.283,0.93 2.23,0.93Z" style="fill:#999;fill-rule:nonzero;"/><path d="M483.38,12.74c0.147,0 0.273,0.06 0.38,0.18c0.107,0.12 0.16,0.273 0.16,0.46c0,0.333 -0.233,0.64 -0.7,0.92c-0.48,0.28 -0.987,0.49 -1.52,0.63c-0.533,0.14 -1.053,0.21 -1.56,0.21c-1.507,0 -2.697,-0.447 -3.57,-1.34c-0.873,-0.893 -1.31,-2.127 -1.31,-3.7c0,-1 0.193,-1.883 0.58,-2.65c0.387,-0.767 0.93,-1.363 1.63,-1.79c0.7,-0.427 1.497,-0.64 2.39,-0.64c1.267,0 2.273,0.413 3.02,1.24c0.747,0.827 1.12,1.947 1.12,3.36c0,0.267 -0.053,0.46 -0.16,0.58c-0.107,0.12 -0.28,0.18 -0.52,0.18l-6.44,0c0.12,2.293 1.207,3.44 3.26,3.44c0.52,0 0.967,-0.07 1.34,-0.21c0.373,-0.14 0.773,-0.33 1.2,-0.57c0.347,-0.2 0.58,-0.3 0.7,-0.3Zm-3.5,-6.46c-0.853,0 -1.537,0.267 -2.05,0.8c-0.513,0.533 -0.817,1.287 -0.91,2.26l5.66,0c-0.027,-0.987 -0.273,-1.743 -0.74,-2.27c-0.467,-0.527 -1.12,-0.79 -1.96,-0.79Z" style="fill:#999;fill-rule:nonzero;"/></g></g></svg>