<?xml version="1.0" encoding="UTF-8" standalone="no"?>
<!DOCTYPE svg PUBLIC "-//W3C//DTD SVG 1.1//EN" "http://www.w3.org/Graphics/SVG/1.1/DTD/svg11.dtd">
<svg width="100%" height="100%" viewBox="0 0 260 18" version="1.1" xmlns="http://www.w3.org/2000/svg" xmlns:xlink="http://www.w3.org/1999/xlink" xml:space="preserve" xmlns:serif="http://www.serif.com/" style="fill-rule:evenodd;clip-rule:evenodd;stroke-linejoin:round;stroke-miterlimit:1.41421;">
    <g transform="matrix(1,0,0,1,-1,0)">
        <g transform="matrix(1,0,0,1,-0.564348,14)">
            <path d="M2.385,0C2.173,0 1.994,-0.066 1.85,-0.197C1.706,-0.329 1.634,-0.501 1.634,-0.714L1.634,-12.547C1.634,-12.785 1.703,-12.976 1.841,-13.12C1.978,-13.264 2.166,-13.336 2.404,-13.336C2.642,-13.336 2.83,-13.264 2.968,-13.12C3.105,-12.976 3.174,-12.785 3.174,-12.547L3.174,-1.315L9.241,-1.315C9.466,-1.315 9.642,-1.258 9.767,-1.146C9.892,-1.033 9.955,-0.87 9.955,-0.657C9.955,-0.445 9.892,-0.282 9.767,-0.169C9.642,-0.056 9.466,0 9.241,0L2.385,0Z" style="fill:rgb(254,121,26);fill-rule:nonzero;"/>
            <path d="M15.327,0.131C14.463,0.131 13.702,-0.063 13.045,-0.451C12.387,-0.839 11.88,-1.393 11.523,-2.113C11.166,-2.833 10.988,-3.669 10.988,-4.621C10.988,-5.572 11.166,-6.408 11.523,-7.128C11.88,-7.848 12.387,-8.402 13.045,-8.79C13.702,-9.178 14.463,-9.373 15.327,-9.373C16.191,-9.373 16.954,-9.178 17.618,-8.79C18.282,-8.402 18.792,-7.848 19.149,-7.128C19.506,-6.408 19.684,-5.572 19.684,-4.621C19.684,-3.669 19.506,-2.833 19.149,-2.113C18.792,-1.393 18.282,-0.839 17.618,-0.451C16.954,-0.063 16.191,0.131 15.327,0.131ZM15.327,-1.127C16.228,-1.127 16.92,-1.424 17.402,-2.019C17.884,-2.614 18.125,-3.481 18.125,-4.621C18.125,-5.735 17.881,-6.596 17.393,-7.203C16.904,-7.81 16.216,-8.114 15.327,-8.114C14.438,-8.114 13.749,-7.81 13.261,-7.203C12.772,-6.596 12.528,-5.735 12.528,-4.621C12.528,-3.494 12.769,-2.63 13.251,-2.029C13.733,-1.427 14.425,-1.127 15.327,-1.127Z" style="fill:rgb(254,121,26);fill-rule:nonzero;"/>
            <path d="M25.751,0.131C24.887,0.131 24.126,-0.063 23.469,-0.451C22.811,-0.839 22.304,-1.393 21.947,-2.113C21.591,-2.833 21.412,-3.669 21.412,-4.621C21.412,-5.572 21.591,-6.408 21.947,-7.128C22.304,-7.848 22.811,-8.402 23.469,-8.79C24.126,-9.178 24.887,-9.373 25.751,-9.373C26.615,-9.373 27.379,-9.178 28.042,-8.79C28.706,-8.402 29.216,-7.848 29.573,-7.128C29.93,-6.408 30.109,-5.572 30.109,-4.621C30.109,-3.669 29.93,-2.833 29.573,-2.113C29.216,-1.393 28.706,-0.839 28.042,-0.451C27.379,-0.063 26.615,0.131 25.751,0.131ZM25.751,-1.127C26.653,-1.127 27.344,-1.424 27.826,-2.019C28.309,-2.614 28.55,-3.481 28.55,-4.621C28.55,-5.735 28.305,-6.596 27.817,-7.203C27.329,-7.81 26.64,-8.114 25.751,-8.114C24.862,-8.114 24.173,-7.81 23.685,-7.203C23.197,-6.596 22.952,-5.735 22.952,-4.621C22.952,-3.494 23.193,-2.63 23.675,-2.029C24.158,-1.427 24.849,-1.127 25.751,-1.127Z" style="fill:rgb(254,121,26);fill-rule:nonzero;"/>
            <path d="M39.688,-1.202C39.888,-1.014 39.988,-0.814 39.988,-0.601C39.988,-0.413 39.922,-0.25 39.791,-0.113C39.659,0.025 39.5,0.094 39.312,0.094C39.149,0.094 38.98,0.019 38.805,-0.131L33.903,-4.358L33.903,-0.657C33.903,-0.419 33.831,-0.235 33.687,-0.103C33.543,0.028 33.364,0.094 33.151,0.094C32.926,0.094 32.741,0.028 32.597,-0.103C32.453,-0.235 32.381,-0.419 32.381,-0.657L32.381,-12.584C32.381,-12.822 32.453,-13.007 32.597,-13.138C32.741,-13.27 32.926,-13.336 33.151,-13.336C33.364,-13.336 33.543,-13.27 33.687,-13.138C33.831,-13.007 33.903,-12.822 33.903,-12.584L33.903,-4.959L38.392,-9.072C38.542,-9.222 38.711,-9.297 38.899,-9.297C39.087,-9.297 39.249,-9.229 39.387,-9.091C39.525,-8.953 39.594,-8.79 39.594,-8.602C39.594,-8.39 39.506,-8.202 39.331,-8.039L35.631,-4.733L39.688,-1.202Z" style="fill:rgb(254,121,26);fill-rule:nonzero;"/>
            <path d="M42.543,0.094C42.317,0.094 42.133,0.028 41.989,-0.103C41.845,-0.235 41.773,-0.419 41.773,-0.657L41.773,-8.584C41.773,-8.822 41.845,-9.006 41.989,-9.138C42.133,-9.269 42.317,-9.335 42.543,-9.335C42.768,-9.335 42.95,-9.269 43.087,-9.138C43.225,-9.006 43.294,-8.822 43.294,-8.584L43.294,-0.657C43.294,-0.407 43.225,-0.219 43.087,-0.094C42.95,0.031 42.768,0.094 42.543,0.094ZM42.543,-11.307C42.242,-11.307 41.998,-11.395 41.81,-11.57C41.622,-11.745 41.528,-11.977 41.528,-12.265C41.528,-12.541 41.622,-12.766 41.81,-12.941C41.998,-13.117 42.242,-13.204 42.543,-13.204C42.843,-13.204 43.087,-13.117 43.275,-12.941C43.463,-12.766 43.557,-12.541 43.557,-12.265C43.557,-11.977 43.463,-11.745 43.275,-11.57C43.087,-11.395 42.843,-11.307 42.543,-11.307Z" style="fill:rgb(254,121,26);fill-rule:nonzero;"/>
            <path d="M50.732,-9.373C52.923,-9.373 54.019,-8.164 54.019,-5.747L54.019,-0.657C54.019,-0.419 53.953,-0.235 53.822,-0.103C53.69,0.028 53.505,0.094 53.267,0.094C53.03,0.094 52.842,0.028 52.704,-0.103C52.566,-0.235 52.497,-0.419 52.497,-0.657L52.497,-5.654C52.497,-6.505 52.331,-7.125 52,-7.513C51.668,-7.901 51.139,-8.095 50.413,-8.095C49.574,-8.095 48.904,-7.839 48.403,-7.325C47.902,-6.812 47.651,-6.117 47.651,-5.24L47.651,-0.657C47.651,-0.419 47.586,-0.235 47.454,-0.103C47.323,0.028 47.138,0.094 46.9,0.094C46.662,0.094 46.474,0.028 46.337,-0.103C46.199,-0.235 46.13,-0.419 46.13,-0.657L46.13,-8.584C46.13,-8.809 46.199,-8.991 46.337,-9.128C46.474,-9.266 46.662,-9.335 46.9,-9.335C47.126,-9.335 47.304,-9.266 47.435,-9.128C47.567,-8.991 47.633,-8.815 47.633,-8.602L47.633,-7.645C47.933,-8.208 48.353,-8.637 48.891,-8.931C49.43,-9.225 50.043,-9.373 50.732,-9.373Z" style="fill:rgb(254,121,26);fill-rule:nonzero;"/>
            <path d="M64.218,-9.335C64.456,-9.335 64.643,-9.266 64.781,-9.128C64.919,-8.991 64.988,-8.809 64.988,-8.584L64.988,-0.62C64.988,0.745 64.637,1.775 63.936,2.47C63.235,3.165 62.195,3.512 60.818,3.512C59.478,3.512 58.364,3.249 57.475,2.723C57.024,2.473 56.799,2.185 56.799,1.859C56.799,1.684 56.846,1.54 56.939,1.427C57.033,1.315 57.155,1.258 57.306,1.258C57.431,1.258 57.656,1.346 57.982,1.521C58.42,1.747 58.852,1.928 59.278,2.066C59.704,2.204 60.211,2.273 60.799,2.273C61.688,2.273 62.358,2.038 62.809,1.568C63.26,1.099 63.485,0.413 63.485,-0.488L63.485,-2.104C63.222,-1.515 62.818,-1.064 62.274,-0.751C61.729,-0.438 61.087,-0.282 60.349,-0.282C59.547,-0.282 58.837,-0.47 58.217,-0.845C57.597,-1.221 57.115,-1.753 56.77,-2.442C56.426,-3.13 56.254,-3.926 56.254,-4.827C56.254,-5.729 56.426,-6.524 56.77,-7.213C57.115,-7.901 57.597,-8.433 58.217,-8.809C58.837,-9.185 59.547,-9.373 60.349,-9.373C61.075,-9.373 61.707,-9.216 62.246,-8.903C62.784,-8.59 63.191,-8.145 63.466,-7.569L63.466,-8.584C63.466,-8.809 63.532,-8.991 63.664,-9.128C63.795,-9.266 63.98,-9.335 64.218,-9.335ZM60.649,-1.54C61.526,-1.54 62.214,-1.831 62.715,-2.414C63.216,-2.996 63.466,-3.8 63.466,-4.827C63.466,-5.841 63.219,-6.64 62.725,-7.222C62.23,-7.804 61.538,-8.095 60.649,-8.095C59.76,-8.095 59.062,-7.804 58.555,-7.222C58.048,-6.64 57.794,-5.841 57.794,-4.827C57.794,-3.8 58.048,-2.996 58.555,-2.414C59.062,-1.831 59.76,-1.54 60.649,-1.54Z" style="fill:rgb(254,121,26);fill-rule:nonzero;"/>
            <path d="M76.689,-12.04C76.026,-11.99 75.525,-11.78 75.187,-11.41C74.849,-11.041 74.68,-10.487 74.68,-9.748L74.68,-9.147L76.765,-9.147C76.977,-9.147 77.14,-9.091 77.253,-8.978C77.366,-8.865 77.422,-8.715 77.422,-8.527C77.422,-8.339 77.366,-8.195 77.253,-8.095C77.14,-7.995 76.977,-7.945 76.765,-7.945L74.68,-7.945L74.68,-0.657C74.68,-0.419 74.608,-0.235 74.464,-0.103C74.32,0.028 74.141,0.094 73.928,0.094C73.703,0.094 73.518,0.028 73.374,-0.103C73.23,-0.235 73.158,-0.419 73.158,-0.657L73.158,-7.945L71.9,-7.945C71.687,-7.945 71.521,-7.998 71.402,-8.105C71.283,-8.211 71.224,-8.352 71.224,-8.527C71.224,-8.715 71.283,-8.865 71.402,-8.978C71.521,-9.091 71.687,-9.147 71.9,-9.147L73.158,-9.147L73.158,-9.485C73.158,-10.612 73.44,-11.498 74.003,-12.143C74.567,-12.788 75.375,-13.148 76.426,-13.223L76.915,-13.261C77.24,-13.286 77.475,-13.254 77.619,-13.167C77.763,-13.079 77.835,-12.922 77.835,-12.697C77.835,-12.334 77.616,-12.127 77.178,-12.077L76.689,-12.04Z" style="fill:rgb(254,121,26);fill-rule:nonzero;"/>
            <path d="M82.512,0.131C81.648,0.131 80.887,-0.063 80.23,-0.451C79.573,-0.839 79.065,-1.393 78.709,-2.113C78.352,-2.833 78.173,-3.669 78.173,-4.621C78.173,-5.572 78.352,-6.408 78.709,-7.128C79.065,-7.848 79.573,-8.402 80.23,-8.79C80.887,-9.178 81.648,-9.373 82.512,-9.373C83.376,-9.373 84.14,-9.178 84.803,-8.79C85.467,-8.402 85.977,-7.848 86.334,-7.128C86.691,-6.408 86.87,-5.572 86.87,-4.621C86.87,-3.669 86.691,-2.833 86.334,-2.113C85.977,-1.393 85.467,-0.839 84.803,-0.451C84.14,-0.063 83.376,0.131 82.512,0.131ZM82.512,-1.127C83.414,-1.127 84.105,-1.424 84.587,-2.019C85.07,-2.614 85.311,-3.481 85.311,-4.621C85.311,-5.735 85.066,-6.596 84.578,-7.203C84.09,-7.81 83.401,-8.114 82.512,-8.114C81.623,-8.114 80.934,-7.81 80.446,-7.203C79.958,-6.596 79.713,-5.735 79.713,-4.621C79.713,-3.494 79.954,-2.63 80.437,-2.029C80.919,-1.427 81.61,-1.127 82.512,-1.127Z" style="fill:rgb(254,121,26);fill-rule:nonzero;"/>
            <path d="M93.669,-9.335C94.195,-9.373 94.458,-9.16 94.458,-8.696C94.458,-8.496 94.401,-8.336 94.289,-8.217C94.176,-8.098 93.982,-8.026 93.706,-8.001L93.143,-7.945C92.304,-7.87 91.681,-7.573 91.274,-7.053C90.867,-6.533 90.664,-5.923 90.664,-5.222L90.664,-0.657C90.664,-0.407 90.595,-0.219 90.457,-0.094C90.319,0.031 90.138,0.094 89.912,0.094C89.687,0.094 89.502,0.028 89.358,-0.103C89.214,-0.235 89.142,-0.419 89.142,-0.657L89.142,-8.584C89.142,-8.822 89.217,-9.006 89.368,-9.138C89.518,-9.269 89.699,-9.335 89.912,-9.335C90.113,-9.335 90.282,-9.269 90.419,-9.138C90.557,-9.006 90.626,-8.828 90.626,-8.602L90.626,-7.551C90.889,-8.102 91.262,-8.521 91.744,-8.809C92.226,-9.097 92.78,-9.266 93.406,-9.316L93.669,-9.335Z" style="fill:rgb(254,121,26);fill-rule:nonzero;"/>
            <path d="M105.07,0.15C104.131,0.15 103.232,0.009 102.375,-0.272C101.517,-0.554 100.831,-0.933 100.318,-1.409C100.13,-1.584 100.036,-1.803 100.036,-2.066C100.036,-2.241 100.086,-2.395 100.186,-2.526C100.287,-2.658 100.406,-2.723 100.543,-2.723C100.706,-2.723 100.881,-2.655 101.069,-2.517C102.234,-1.615 103.561,-1.165 105.051,-1.165C106.128,-1.165 106.954,-1.371 107.53,-1.784C108.106,-2.198 108.394,-2.786 108.394,-3.55C108.394,-3.988 108.257,-4.342 107.981,-4.611C107.706,-4.88 107.343,-5.096 106.892,-5.259C106.441,-5.422 105.834,-5.591 105.07,-5.766C104.043,-6.004 103.201,-6.255 102.544,-6.518C101.886,-6.781 101.354,-7.156 100.947,-7.645C100.54,-8.133 100.337,-8.771 100.337,-9.56C100.337,-10.312 100.54,-10.978 100.947,-11.561C101.354,-12.143 101.924,-12.594 102.656,-12.913C103.389,-13.232 104.225,-13.392 105.164,-13.392C106.04,-13.392 106.857,-13.257 107.615,-12.988C108.373,-12.719 109.008,-12.334 109.521,-11.833C109.722,-11.633 109.822,-11.414 109.822,-11.176C109.822,-11 109.772,-10.847 109.672,-10.715C109.571,-10.584 109.453,-10.518 109.315,-10.518C109.177,-10.518 108.995,-10.587 108.77,-10.725C108.157,-11.226 107.587,-11.576 107.061,-11.777C106.535,-11.977 105.903,-12.077 105.164,-12.077C104.125,-12.077 103.317,-11.861 102.741,-11.429C102.165,-10.997 101.877,-10.393 101.877,-9.617C101.877,-8.953 102.13,-8.455 102.638,-8.123C103.145,-7.792 103.924,-7.501 104.976,-7.25C106.115,-6.975 107.011,-6.721 107.662,-6.489C108.313,-6.258 108.855,-5.91 109.287,-5.447C109.719,-4.984 109.935,-4.364 109.935,-3.587C109.935,-2.849 109.731,-2.198 109.324,-1.634C108.917,-1.071 108.344,-0.632 107.606,-0.319C106.867,-0.006 106.022,0.15 105.07,0.15Z" style="fill:rgb(254,121,26);fill-rule:nonzero;"/>
            <path d="M116.001,0.131C115.137,0.131 114.377,-0.063 113.719,-0.451C113.062,-0.839 112.555,-1.393 112.198,-2.113C111.841,-2.833 111.663,-3.669 111.663,-4.621C111.663,-5.572 111.841,-6.408 112.198,-7.128C112.555,-7.848 113.062,-8.402 113.719,-8.79C114.377,-9.178 115.137,-9.373 116.001,-9.373C116.865,-9.373 117.629,-9.178 118.293,-8.79C118.957,-8.402 119.467,-7.848 119.824,-7.128C120.181,-6.408 120.359,-5.572 120.359,-4.621C120.359,-3.669 120.181,-2.833 119.824,-2.113C119.467,-1.393 118.957,-0.839 118.293,-0.451C117.629,-0.063 116.865,0.131 116.001,0.131ZM116.001,-1.127C116.903,-1.127 117.595,-1.424 118.077,-2.019C118.559,-2.614 118.8,-3.481 118.8,-4.621C118.8,-5.735 118.556,-6.596 118.067,-7.203C117.579,-7.81 116.89,-8.114 116.001,-8.114C115.112,-8.114 114.424,-7.81 113.935,-7.203C113.447,-6.596 113.203,-5.735 113.203,-4.621C113.203,-3.494 113.444,-2.63 113.926,-2.029C114.408,-1.427 115.1,-1.127 116.001,-1.127Z" style="fill:rgb(254,121,26);fill-rule:nonzero;"/>
            <path d="M127.233,-9.373C129.425,-9.373 130.52,-8.164 130.52,-5.747L130.52,-0.657C130.52,-0.419 130.455,-0.235 130.323,-0.103C130.192,0.028 130.007,0.094 129.769,0.094C129.531,0.094 129.343,0.028 129.206,-0.103C129.068,-0.235 128.999,-0.419 128.999,-0.657L128.999,-5.654C128.999,-6.505 128.833,-7.125 128.501,-7.513C128.169,-7.901 127.64,-8.095 126.914,-8.095C126.075,-8.095 125.405,-7.839 124.904,-7.325C124.403,-6.812 124.153,-6.117 124.153,-5.24L124.153,-0.657C124.153,-0.419 124.087,-0.235 123.956,-0.103C123.824,0.028 123.64,0.094 123.402,0.094C123.164,0.094 122.976,0.028 122.838,-0.103C122.701,-0.235 122.632,-0.419 122.632,-0.657L122.632,-8.584C122.632,-8.809 122.701,-8.991 122.838,-9.128C122.976,-9.266 123.164,-9.335 123.402,-9.335C123.627,-9.335 123.806,-9.266 123.937,-9.128C124.069,-8.991 124.134,-8.815 124.134,-8.602L124.134,-7.645C124.435,-8.208 124.854,-8.637 125.393,-8.931C125.931,-9.225 126.545,-9.373 127.233,-9.373Z" style="fill:rgb(254,121,26);fill-rule:nonzero;"/>
            <path d="M134.07,0.094C133.845,0.094 133.66,0.028 133.516,-0.103C133.372,-0.235 133.3,-0.419 133.3,-0.657L133.3,-8.584C133.3,-8.822 133.372,-9.006 133.516,-9.138C133.66,-9.269 133.845,-9.335 134.07,-9.335C134.296,-9.335 134.477,-9.269 134.615,-9.138C134.753,-9.006 134.822,-8.822 134.822,-8.584L134.822,-0.657C134.822,-0.407 134.753,-0.219 134.615,-0.094C134.477,0.031 134.296,0.094 134.07,0.094ZM134.07,-11.307C133.77,-11.307 133.526,-11.395 133.338,-11.57C133.15,-11.745 133.056,-11.977 133.056,-12.265C133.056,-12.541 133.15,-12.766 133.338,-12.941C133.526,-13.117 133.77,-13.204 134.07,-13.204C134.371,-13.204 134.615,-13.117 134.803,-12.941C134.991,-12.766 135.085,-12.541 135.085,-12.265C135.085,-11.977 134.991,-11.745 134.803,-11.57C134.615,-11.395 134.371,-11.307 134.07,-11.307Z" style="fill:rgb(254,121,26);fill-rule:nonzero;"/>
            <path d="M141.433,0.131C140.582,0.131 139.827,-0.063 139.17,-0.451C138.512,-0.839 138.005,-1.39 137.648,-2.104C137.291,-2.817 137.113,-3.644 137.113,-4.583C137.113,-5.522 137.298,-6.355 137.667,-7.081C138.037,-7.807 138.553,-8.371 139.217,-8.771C139.88,-9.172 140.644,-9.373 141.508,-9.373C141.984,-9.373 142.457,-9.307 142.926,-9.175C143.396,-9.044 143.806,-8.853 144.157,-8.602C144.382,-8.452 144.542,-8.305 144.635,-8.161C144.729,-8.017 144.776,-7.857 144.776,-7.682C144.776,-7.507 144.729,-7.363 144.635,-7.25C144.542,-7.137 144.419,-7.081 144.269,-7.081C144.182,-7.081 144.088,-7.106 143.987,-7.156C143.887,-7.206 143.803,-7.256 143.734,-7.306C143.665,-7.357 143.618,-7.388 143.593,-7.4C143.267,-7.613 142.958,-7.782 142.663,-7.907C142.369,-8.033 142.009,-8.095 141.583,-8.095C140.669,-8.095 139.959,-7.785 139.451,-7.166C138.944,-6.546 138.691,-5.685 138.691,-4.583C138.691,-3.481 138.944,-2.63 139.451,-2.029C139.959,-1.427 140.669,-1.127 141.583,-1.127C142.009,-1.127 142.375,-1.19 142.682,-1.315C142.989,-1.44 143.299,-1.609 143.612,-1.822C143.75,-1.91 143.881,-1.985 144.006,-2.047C144.131,-2.11 144.238,-2.141 144.326,-2.141C144.463,-2.141 144.579,-2.085 144.673,-1.972C144.767,-1.859 144.814,-1.715 144.814,-1.54C144.814,-1.377 144.77,-1.23 144.682,-1.099C144.595,-0.967 144.432,-0.82 144.194,-0.657C143.843,-0.419 143.421,-0.229 142.926,-0.085C142.432,0.059 141.934,0.131 141.433,0.131Z" style="fill:rgb(254,121,26);fill-rule:nonzero;"/>
            <path d="M163.803,-12.866C163.853,-13.029 163.941,-13.151 164.066,-13.232C164.191,-13.314 164.329,-13.354 164.479,-13.354C164.68,-13.354 164.852,-13.295 164.996,-13.176C165.14,-13.057 165.212,-12.897 165.212,-12.697C165.212,-12.609 165.193,-12.509 165.155,-12.397L160.911,-0.432C160.848,-0.257 160.742,-0.122 160.591,-0.028C160.441,0.066 160.272,0.113 160.084,0.113C159.909,0.113 159.746,0.066 159.596,-0.028C159.446,-0.122 159.339,-0.257 159.277,-0.432L155.595,-10.838L151.876,-0.432C151.814,-0.257 151.707,-0.122 151.557,-0.028C151.407,0.066 151.244,0.113 151.069,0.113C150.893,0.113 150.73,0.066 150.58,-0.028C150.43,-0.122 150.323,-0.257 150.261,-0.432L145.997,-12.397C145.96,-12.497 145.941,-12.591 145.941,-12.678C145.941,-12.879 146.019,-13.041 146.176,-13.167C146.332,-13.292 146.511,-13.354 146.711,-13.354C146.861,-13.354 147.002,-13.314 147.134,-13.232C147.265,-13.151 147.356,-13.029 147.406,-12.866L151.106,-2.198L154.863,-12.753C154.925,-12.941 155.025,-13.082 155.163,-13.176C155.301,-13.27 155.451,-13.317 155.614,-13.317C155.777,-13.317 155.927,-13.267 156.065,-13.167C156.202,-13.066 156.303,-12.922 156.365,-12.735L160.065,-2.16L163.803,-12.866Z" style="fill:rgb(254,121,26);fill-rule:nonzero;"/>
            <path d="M170.02,-9.373C172.312,-9.373 173.457,-8.17 173.457,-5.766L173.457,-0.657C173.457,-0.432 173.392,-0.25 173.26,-0.113C173.129,0.025 172.95,0.094 172.725,0.094C172.499,0.094 172.318,0.025 172.18,-0.113C172.042,-0.25 171.974,-0.432 171.974,-0.657L171.974,-1.559C171.736,-1.021 171.373,-0.604 170.884,-0.31C170.396,-0.016 169.832,0.131 169.194,0.131C168.605,0.131 168.064,0.013 167.569,-0.225C167.074,-0.463 166.683,-0.795 166.395,-1.221C166.107,-1.647 165.963,-2.116 165.963,-2.63C165.963,-3.318 166.138,-3.854 166.489,-4.235C166.84,-4.617 167.416,-4.893 168.217,-5.062C169.018,-5.231 170.133,-5.315 171.56,-5.315L171.974,-5.315L171.974,-5.935C171.974,-6.687 171.82,-7.238 171.513,-7.588C171.207,-7.939 170.709,-8.114 170.02,-8.114C169.169,-8.114 168.305,-7.882 167.428,-7.419C167.09,-7.206 166.852,-7.1 166.714,-7.1C166.564,-7.1 166.439,-7.156 166.339,-7.269C166.239,-7.382 166.189,-7.526 166.189,-7.701C166.189,-7.876 166.242,-8.03 166.348,-8.161C166.455,-8.293 166.627,-8.427 166.865,-8.565C167.303,-8.815 167.801,-9.013 168.358,-9.157C168.915,-9.301 169.469,-9.373 170.02,-9.373ZM169.4,-1.071C170.152,-1.071 170.768,-1.324 171.25,-1.831C171.733,-2.338 171.974,-2.993 171.974,-3.794L171.974,-4.339L171.635,-4.339C170.534,-4.339 169.695,-4.292 169.119,-4.198C168.543,-4.104 168.133,-3.947 167.888,-3.728C167.644,-3.509 167.522,-3.187 167.522,-2.761C167.522,-2.273 167.701,-1.869 168.057,-1.55C168.414,-1.23 168.862,-1.071 169.4,-1.071Z" style="fill:rgb(254,121,26);fill-rule:nonzero;"/>
            <path d="M182.83,-8.865C182.968,-9.166 183.187,-9.316 183.487,-9.316C183.675,-9.316 183.844,-9.254 183.994,-9.128C184.145,-9.003 184.22,-8.847 184.22,-8.659C184.22,-8.546 184.195,-8.446 184.145,-8.358L180.482,-0.47C180.407,-0.307 180.294,-0.178 180.144,-0.085C179.994,0.009 179.831,0.056 179.656,0.056C179.493,0.056 179.336,0.009 179.186,-0.085C179.036,-0.178 178.917,-0.307 178.829,-0.47L175.185,-8.358C175.135,-8.446 175.11,-8.54 175.11,-8.64C175.11,-8.828 175.195,-8.991 175.364,-9.128C175.533,-9.266 175.718,-9.335 175.918,-9.335C176.043,-9.335 176.165,-9.297 176.284,-9.222C176.403,-9.147 176.494,-9.041 176.557,-8.903L179.693,-1.859L182.83,-8.865Z" style="fill:rgb(254,121,26);fill-rule:nonzero;"/>
            <path d="M192.86,-2.122C192.998,-2.122 193.117,-2.066 193.217,-1.953C193.317,-1.841 193.367,-1.697 193.367,-1.521C193.367,-1.208 193.148,-0.92 192.71,-0.657C192.259,-0.394 191.783,-0.197 191.282,-0.066C190.781,0.066 190.293,0.131 189.817,0.131C188.402,0.131 187.285,-0.288 186.464,-1.127C185.644,-1.966 185.234,-3.124 185.234,-4.602C185.234,-5.541 185.416,-6.37 185.779,-7.09C186.142,-7.81 186.652,-8.371 187.31,-8.771C187.967,-9.172 188.715,-9.373 189.554,-9.373C190.744,-9.373 191.689,-8.984 192.39,-8.208C193.091,-7.432 193.442,-6.38 193.442,-5.053C193.442,-4.802 193.392,-4.621 193.292,-4.508C193.192,-4.395 193.029,-4.339 192.803,-4.339L186.755,-4.339C186.868,-2.185 187.889,-1.108 189.817,-1.108C190.305,-1.108 190.725,-1.174 191.075,-1.305C191.426,-1.437 191.802,-1.615 192.202,-1.841C192.528,-2.029 192.747,-2.122 192.86,-2.122ZM189.573,-8.189C188.771,-8.189 188.13,-7.939 187.648,-7.438C187.166,-6.937 186.881,-6.23 186.793,-5.315L192.109,-5.315C192.083,-6.242 191.852,-6.953 191.414,-7.447C190.975,-7.942 190.362,-8.189 189.573,-8.189Z" style="fill:rgb(254,121,26);fill-rule:nonzero;"/>
            <path d="M207.867,-13.336C208.105,-13.336 208.293,-13.267 208.431,-13.129C208.568,-12.991 208.637,-12.816 208.637,-12.603L208.637,-0.657C208.637,-0.432 208.568,-0.25 208.431,-0.113C208.293,0.025 208.105,0.094 207.867,0.094C207.629,0.094 207.445,0.025 207.313,-0.113C207.182,-0.25 207.116,-0.432 207.116,-0.657L207.116,-1.672C206.84,-1.096 206.437,-0.651 205.904,-0.338C205.372,-0.025 204.749,0.131 204.035,0.131C203.234,0.131 202.527,-0.069 201.913,-0.47C201.299,-0.87 200.824,-1.431 200.486,-2.151C200.147,-2.871 199.978,-3.706 199.978,-4.658C199.978,-5.597 200.147,-6.424 200.486,-7.137C200.824,-7.851 201.299,-8.402 201.913,-8.79C202.527,-9.178 203.234,-9.373 204.035,-9.373C204.749,-9.373 205.372,-9.216 205.904,-8.903C206.437,-8.59 206.84,-8.145 207.116,-7.569L207.116,-12.603C207.116,-12.829 207.182,-13.007 207.313,-13.138C207.445,-13.27 207.629,-13.336 207.867,-13.336ZM204.336,-1.127C205.225,-1.127 205.911,-1.431 206.393,-2.038C206.875,-2.645 207.116,-3.506 207.116,-4.621C207.116,-5.735 206.875,-6.593 206.393,-7.194C205.911,-7.795 205.225,-8.095 204.336,-8.095C203.447,-8.095 202.755,-7.795 202.261,-7.194C201.766,-6.593 201.519,-5.747 201.519,-4.658C201.519,-3.544 201.766,-2.677 202.261,-2.057C202.755,-1.437 203.447,-1.127 204.336,-1.127Z" style="fill:rgb(254,121,26);fill-rule:nonzero;"/>
            <path d="M218.536,-2.122C218.673,-2.122 218.792,-2.066 218.893,-1.953C218.993,-1.841 219.043,-1.697 219.043,-1.521C219.043,-1.208 218.824,-0.92 218.385,-0.657C217.935,-0.394 217.459,-0.197 216.958,-0.066C216.457,0.066 215.969,0.131 215.493,0.131C214.078,0.131 212.96,-0.288 212.14,-1.127C211.32,-1.966 210.91,-3.124 210.91,-4.602C210.91,-5.541 211.091,-6.37 211.455,-7.09C211.818,-7.81 212.328,-8.371 212.985,-8.771C213.643,-9.172 214.391,-9.373 215.23,-9.373C216.419,-9.373 217.365,-8.984 218.066,-8.208C218.767,-7.432 219.118,-6.38 219.118,-5.053C219.118,-4.802 219.068,-4.621 218.968,-4.508C218.867,-4.395 218.705,-4.339 218.479,-4.339L212.431,-4.339C212.544,-2.185 213.565,-1.108 215.493,-1.108C215.981,-1.108 216.401,-1.174 216.751,-1.305C217.102,-1.437 217.478,-1.615 217.878,-1.841C218.204,-2.029 218.423,-2.122 218.536,-2.122ZM215.249,-8.189C214.447,-8.189 213.806,-7.939 213.323,-7.438C212.841,-6.937 212.557,-6.23 212.469,-5.315L217.784,-5.315C217.759,-6.242 217.528,-6.953 217.089,-7.447C216.651,-7.942 216.038,-8.189 215.249,-8.189Z" style="fill:rgb(254,121,26);fill-rule:nonzero;"/>
            <path d="M227.833,-8.865C227.971,-9.166 228.19,-9.316 228.49,-9.316C228.678,-9.316 228.847,-9.254 228.998,-9.128C229.148,-9.003 229.223,-8.847 229.223,-8.659C229.223,-8.546 229.198,-8.446 229.148,-8.358L225.485,-0.47C225.41,-0.307 225.297,-0.178 225.147,-0.085C224.997,0.009 224.834,0.056 224.659,0.056C224.496,0.056 224.339,0.009 224.189,-0.085C224.039,-0.178 223.92,-0.307 223.832,-0.47L220.189,-8.358C220.138,-8.446 220.113,-8.54 220.113,-8.64C220.113,-8.828 220.198,-8.991 220.367,-9.128C220.536,-9.266 220.721,-9.335 220.921,-9.335C221.046,-9.335 221.168,-9.297 221.287,-9.222C221.406,-9.147 221.497,-9.041 221.56,-8.903L224.696,-1.859L227.833,-8.865Z" style="fill:rgb(254,121,26);fill-rule:nonzero;"/>
            <path d="M231.665,0.094C231.439,0.094 231.255,0.028 231.111,-0.103C230.967,-0.235 230.895,-0.419 230.895,-0.657L230.895,-8.584C230.895,-8.822 230.967,-9.006 231.111,-9.138C231.255,-9.269 231.439,-9.335 231.665,-9.335C231.89,-9.335 232.072,-9.269 232.209,-9.138C232.347,-9.006 232.416,-8.822 232.416,-8.584L232.416,-0.657C232.416,-0.407 232.347,-0.219 232.209,-0.094C232.072,0.031 231.89,0.094 231.665,0.094ZM231.665,-11.307C231.364,-11.307 231.12,-11.395 230.932,-11.57C230.744,-11.745 230.65,-11.977 230.65,-12.265C230.65,-12.541 230.744,-12.766 230.932,-12.941C231.12,-13.117 231.364,-13.204 231.665,-13.204C231.965,-13.204 232.209,-13.117 232.397,-12.941C232.585,-12.766 232.679,-12.541 232.679,-12.265C232.679,-11.977 232.585,-11.745 232.397,-11.57C232.209,-11.395 231.965,-11.307 231.665,-11.307Z" style="fill:rgb(254,121,26);fill-rule:nonzero;"/>
            <path d="M239.027,0.131C238.176,0.131 237.422,-0.063 236.764,-0.451C236.107,-0.839 235.6,-1.39 235.243,-2.104C234.886,-2.817 234.707,-3.644 234.707,-4.583C234.707,-5.522 234.892,-6.355 235.262,-7.081C235.631,-7.807 236.147,-8.371 236.811,-8.771C237.475,-9.172 238.239,-9.373 239.103,-9.373C239.578,-9.373 240.051,-9.307 240.521,-9.175C240.99,-9.044 241.4,-8.853 241.751,-8.602C241.976,-8.452 242.136,-8.305 242.23,-8.161C242.324,-8.017 242.371,-7.857 242.371,-7.682C242.371,-7.507 242.324,-7.363 242.23,-7.25C242.136,-7.137 242.014,-7.081 241.864,-7.081C241.776,-7.081 241.682,-7.106 241.582,-7.156C241.482,-7.206 241.397,-7.256 241.328,-7.306C241.259,-7.357 241.213,-7.388 241.187,-7.4C240.862,-7.613 240.552,-7.782 240.258,-7.907C239.963,-8.033 239.603,-8.095 239.178,-8.095C238.264,-8.095 237.553,-7.785 237.046,-7.166C236.539,-6.546 236.285,-5.685 236.285,-4.583C236.285,-3.481 236.539,-2.63 237.046,-2.029C237.553,-1.427 238.264,-1.127 239.178,-1.127C239.603,-1.127 239.97,-1.19 240.277,-1.315C240.583,-1.44 240.893,-1.609 241.206,-1.822C241.344,-1.91 241.475,-1.985 241.601,-2.047C241.726,-2.11 241.832,-2.141 241.92,-2.141C242.058,-2.141 242.174,-2.085 242.267,-1.972C242.361,-1.859 242.408,-1.715 242.408,-1.54C242.408,-1.377 242.365,-1.23 242.277,-1.099C242.189,-0.967 242.026,-0.82 241.789,-0.657C241.438,-0.419 241.015,-0.229 240.521,-0.085C240.026,0.059 239.528,0.131 239.027,0.131Z" style="fill:rgb(254,121,26);fill-rule:nonzero;"/>
            <path d="M251.33,-2.122C251.468,-2.122 251.587,-2.066 251.687,-1.953C251.787,-1.841 251.837,-1.697 251.837,-1.521C251.837,-1.208 251.618,-0.92 251.18,-0.657C250.729,-0.394 250.253,-0.197 249.752,-0.066C249.251,0.066 248.763,0.131 248.287,0.131C246.872,0.131 245.755,-0.288 244.935,-1.127C244.114,-1.966 243.704,-3.124 243.704,-4.602C243.704,-5.541 243.886,-6.37 244.249,-7.09C244.612,-7.81 245.122,-8.371 245.78,-8.771C246.437,-9.172 247.185,-9.373 248.024,-9.373C249.214,-9.373 250.159,-8.984 250.861,-8.208C251.562,-7.432 251.912,-6.38 251.912,-5.053C251.912,-4.802 251.862,-4.621 251.762,-4.508C251.662,-4.395 251.499,-4.339 251.274,-4.339L245.226,-4.339C245.338,-2.185 246.359,-1.108 248.287,-1.108C248.776,-1.108 249.195,-1.174 249.546,-1.305C249.896,-1.437 250.272,-1.615 250.673,-1.841C250.998,-2.029 251.217,-2.122 251.33,-2.122ZM248.043,-8.189C247.242,-8.189 246.6,-7.939 246.118,-7.438C245.636,-6.937 245.351,-6.23 245.263,-5.315L250.579,-5.315C250.554,-6.242 250.322,-6.953 249.884,-7.447C249.446,-7.942 248.832,-8.189 248.043,-8.189Z" style="fill:rgb(254,121,26);fill-rule:nonzero;"/>
            <path d="M257.228,0.131C256.652,0.131 256.104,0.063 255.584,-0.075C255.065,-0.213 254.605,-0.407 254.204,-0.657C253.978,-0.808 253.819,-0.949 253.725,-1.08C253.631,-1.211 253.584,-1.371 253.584,-1.559C253.584,-1.722 253.631,-1.856 253.725,-1.963C253.819,-2.069 253.941,-2.122 254.091,-2.122C254.241,-2.122 254.461,-2.029 254.749,-1.841C255.124,-1.615 255.497,-1.437 255.866,-1.305C256.235,-1.174 256.696,-1.108 257.247,-1.108C257.923,-1.108 258.449,-1.227 258.824,-1.465C259.2,-1.703 259.388,-2.047 259.388,-2.498C259.388,-2.774 259.319,-2.996 259.181,-3.165C259.043,-3.334 258.806,-3.484 258.467,-3.616C258.129,-3.747 257.635,-3.882 256.984,-4.019C255.882,-4.257 255.093,-4.577 254.617,-4.977C254.141,-5.378 253.903,-5.923 253.903,-6.611C253.903,-7.15 254.054,-7.626 254.354,-8.039C254.655,-8.452 255.071,-8.778 255.603,-9.016C256.135,-9.254 256.739,-9.373 257.416,-9.373C257.904,-9.373 258.377,-9.307 258.834,-9.175C259.291,-9.044 259.695,-8.859 260.045,-8.621C260.471,-8.321 260.684,-8.008 260.684,-7.682C260.684,-7.519 260.634,-7.382 260.534,-7.269C260.433,-7.156 260.314,-7.1 260.177,-7.1C260.026,-7.1 259.801,-7.206 259.501,-7.419C259.15,-7.645 258.818,-7.82 258.505,-7.945C258.192,-8.07 257.804,-8.133 257.341,-8.133C256.752,-8.133 256.279,-8.001 255.922,-7.738C255.566,-7.475 255.387,-7.125 255.387,-6.687C255.387,-6.411 255.453,-6.189 255.584,-6.02C255.716,-5.851 255.935,-5.701 256.242,-5.569C256.549,-5.438 256.99,-5.309 257.566,-5.184C258.417,-4.996 259.078,-4.79 259.547,-4.564C260.017,-4.339 260.352,-4.063 260.552,-3.738C260.753,-3.412 260.853,-2.999 260.853,-2.498C260.853,-1.709 260.521,-1.074 259.857,-0.592C259.194,-0.11 258.317,0.131 257.228,0.131Z" style="fill:rgb(254,121,26);fill-rule:nonzero;"/>
        </g>
    </g>
</svg>
