<?xml version="1.0" encoding="UTF-8" standalone="no"?>
<!DOCTYPE svg PUBLIC "-//W3C//DTD SVG 1.1//EN" "http://www.w3.org/Graphics/SVG/1.1/DTD/svg11.dtd">
<svg width="100%" height="100%" viewBox="0 0 81 23" version="1.1" xmlns="http://www.w3.org/2000/svg" xmlns:xlink="http://www.w3.org/1999/xlink" xml:space="preserve" xmlns:serif="http://www.serif.com/" style="fill-rule:evenodd;clip-rule:evenodd;stroke-linejoin:round;stroke-miterlimit:1.41421;">
    <g transform="matrix(1,0,0,1,0,-32)">
        <g id="More_Vision">
            <g>
                <path d="M6.2,45.18L6.2,46.26L1.85,46.26L1.85,49L5.38,49L5.38,50.1L1.85,50.1L1.85,54.38L0.57,54.38L0.57,45.18L6.2,45.18Z" style="fill:rgb(102,102,106);fill-rule:nonzero;"/>
                <path d="M14.76,45.18L14.76,46.27L10.49,46.27L10.49,49L14.07,49L14.07,50.11L10.49,50.11L10.49,53.3L14.76,53.3L14.76,54.38L9.15,54.38L9.15,45.18L14.76,45.18Z" style="fill:rgb(102,102,106);fill-rule:nonzero;"/>
                <path d="M26.15,54.37L24.79,54.37L23.69,51.82L19.81,51.82L18.75,54.37L17.4,54.37L21.4,45.18L22.29,45.18L26.15,54.37ZM20.26,50.75L23.26,50.75L21.73,47.27L20.26,50.75Z" style="fill:rgb(102,102,106);fill-rule:nonzero;"/>
                <path d="M30.42,50.66L30.42,54.41L29.07,54.41L29.07,45.18L31.92,45.18C32.416,45.171 32.911,45.231 33.39,45.36C33.756,45.463 34.096,45.64 34.39,45.88C34.655,46.1 34.861,46.381 34.99,46.7C35.122,47.044 35.187,47.411 35.18,47.78C35.213,48.079 35.213,48.381 35.18,48.68C35.115,49.011 34.974,49.322 34.77,49.59C34.585,49.834 34.358,50.044 34.1,50.21C33.884,50.363 33.639,50.472 33.38,50.53C33.54,50.659 33.672,50.819 33.77,51L36.11,54.41L34.57,54.41L32.12,51C32.063,50.906 31.984,50.827 31.89,50.77C31.774,50.718 31.647,50.694 31.52,50.7L30.42,50.66ZM30.42,49.56L31.87,49.56C32.187,49.573 32.504,49.536 32.81,49.45C33.028,49.398 33.23,49.295 33.4,49.15C33.563,49.019 33.687,48.846 33.76,48.65C33.866,48.407 33.923,48.145 33.93,47.88C33.974,47.425 33.786,46.977 33.43,46.69C32.991,46.38 32.456,46.234 31.92,46.28L30.42,46.28L30.42,49.56Z" style="fill:rgb(102,102,106);fill-rule:nonzero;"/>
                <path d="M46.17,52.84L50.26,52.84L50.26,54.39L44.26,54.39L44.26,45.2L46.15,45.2L46.17,52.84Z" style="fill:rgb(102,102,106);fill-rule:nonzero;"/>
                <path d="M59.29,45.2L59.29,46.73L55.18,46.73L55.18,48.73L58.5,48.73L58.5,50.28L55.18,50.28L55.18,52.83L59.29,52.83L59.29,54.38L53.17,54.38L53.17,45.2L59.29,45.2Z" style="fill:rgb(102,102,106);fill-rule:nonzero;"/>
                <path d="M68,47.28L68.5,45.87C67.67,45.293 66.681,44.989 65.67,45C63.95,45 63.58,45.38 63.08,45.91C62.651,46.387 62.437,47.021 62.49,47.66C62.415,48.652 62.972,49.591 63.88,50C65.19,50.7 67.04,50.56 67.04,51.92C67.04,52.92 66.04,53.14 65.44,53.14C64.401,53.054 63.419,52.625 62.65,51.92L62.2,53.47C63.047,54.28 64.202,54.688 65.37,54.59C67.64,54.59 68.84,53.71 68.84,51.79C68.929,50.519 68.079,49.358 66.84,49.06C65.84,48.72 65.54,48.65 65.06,48.48C64.58,48.31 64.22,48.03 64.22,47.48C64.22,46.93 64.75,46.48 65.67,46.48C66.509,46.506 67.322,46.785 68,47.28Z" style="fill:rgb(102,102,106);fill-rule:nonzero;"/>
                <path d="M77.4,47.28L77.9,45.87C77.073,45.295 76.087,44.991 75.08,45C73.36,45 72.99,45.38 72.49,45.91C72.061,46.387 71.847,47.021 71.9,47.66C71.826,48.655 72.389,49.594 73.3,50C74.61,50.7 76.46,50.56 76.46,51.92C76.46,52.92 75.46,53.14 74.86,53.14C73.821,53.054 72.839,52.625 72.07,51.92L71.62,53.47C72.467,54.28 73.622,54.688 74.79,54.59C77.06,54.59 78.26,53.71 78.26,51.79C78.349,50.519 77.499,49.358 76.26,49.06C75.26,48.72 74.96,48.65 74.48,48.48C74,48.31 73.64,48.03 73.64,47.48C73.64,46.93 74.17,46.48 75.09,46.48C75.923,46.51 76.727,46.789 77.4,47.28Z" style="fill:rgb(102,102,106);fill-rule:nonzero;"/>
                <path id="Swoosh-3" d="M39.65,52C38.706,51.607 37.925,50.9 37.44,50C36.93,48.65 38.51,48.36 40.44,48.41C41.44,48.41 42.76,48.58 42.76,48.58C42.76,48.58 39.76,48.95 38.65,49.81C37.54,50.67 39.65,51.93 39.65,51.93" style="fill:rgb(243,108,36);fill-rule:nonzero;"/>
                <rect x="79.23" y="52.92" width="1.46" height="1.46" style="fill:rgb(102,102,106);"/>
                <rect x="79.42" y="38.08" width="1.09" height="1.08" style="fill:rgb(102,102,106);"/>
                <path d="M39,32.65L39.7,32.65C39.768,32.647 39.836,32.668 39.89,32.71C39.939,32.749 39.977,32.801 40,32.86L41.82,37.41C41.863,37.518 41.899,37.628 41.93,37.74L42.03,38.11C42.03,37.983 42.06,37.86 42.12,37.74C42.149,37.628 42.186,37.517 42.23,37.41L44,32.86C44.025,32.805 44.063,32.757 44.11,32.72C44.162,32.674 44.23,32.649 44.3,32.65L45,32.65L42.41,39.1L41.62,39.1L39,32.65Z" style="fill:rgb(102,102,106);fill-rule:nonzero;"/>
                <rect x="47.82" y="32.65" width="0.87" height="6.45" style="fill:rgb(102,102,106);fill-rule:nonzero;"/>
                <path d="M55.52,33.66C55.497,33.699 55.466,33.733 55.43,33.76C55.391,33.773 55.349,33.773 55.31,33.76C55.243,33.753 55.18,33.725 55.13,33.68L54.87,33.51C54.752,33.442 54.629,33.385 54.5,33.34C54.336,33.301 54.168,33.287 54,33.3C53.823,33.297 53.648,33.324 53.48,33.38C53.341,33.424 53.212,33.496 53.1,33.59C53,33.678 52.921,33.787 52.87,33.91C52.817,34.033 52.79,34.166 52.79,34.3C52.783,34.46 52.828,34.618 52.92,34.75C53.015,34.873 53.134,34.975 53.27,35.05C53.425,35.14 53.59,35.213 53.76,35.27L54.33,35.46C54.523,35.527 54.713,35.6 54.9,35.68C55.078,35.759 55.243,35.863 55.39,35.99C55.537,36.118 55.656,36.274 55.74,36.45C55.833,36.661 55.877,36.89 55.87,37.12C55.873,37.39 55.826,37.658 55.73,37.91C55.638,38.154 55.494,38.376 55.31,38.56C55.115,38.748 54.883,38.894 54.63,38.99C54.336,39.101 54.024,39.155 53.71,39.15C53.318,39.154 52.93,39.076 52.57,38.92C52.238,38.778 51.939,38.571 51.69,38.31L51.94,37.9L52.03,37.82C52.066,37.81 52.104,37.81 52.14,37.82C52.223,37.827 52.3,37.862 52.36,37.92L52.66,38.14C52.798,38.229 52.946,38.303 53.1,38.36C53.302,38.432 53.516,38.466 53.73,38.46C53.917,38.461 54.103,38.431 54.28,38.37C54.432,38.319 54.571,38.237 54.69,38.13C54.804,38.028 54.893,37.902 54.95,37.76C55.011,37.607 55.042,37.444 55.04,37.28C55.049,37.11 55.003,36.942 54.91,36.8C54.817,36.673 54.698,36.567 54.56,36.49C54.405,36.402 54.24,36.332 54.07,36.28L53.5,36.1C53.306,36.04 53.116,35.97 52.93,35.89C52.751,35.813 52.586,35.709 52.44,35.58C52.291,35.446 52.172,35.283 52.09,35.1C51.912,34.657 51.912,34.163 52.09,33.72C52.177,33.506 52.306,33.312 52.47,33.15C52.648,32.977 52.859,32.841 53.09,32.75C53.361,32.646 53.65,32.595 53.94,32.6C54.281,32.594 54.62,32.651 54.94,32.77C55.232,32.881 55.497,33.051 55.72,33.27L55.52,33.66Z" style="fill:rgb(102,102,106);fill-rule:nonzero;"/>
                <path d="M59.83,39.1L59,39.1L59,32.65L59.87,32.65L59.83,39.1Z" style="fill:rgb(102,102,106);fill-rule:nonzero;"/>
                <path d="M69.34,35.88C69.345,36.334 69.267,36.784 69.11,37.21C68.962,37.583 68.741,37.924 68.46,38.21C68.179,38.505 67.838,38.737 67.46,38.89C66.627,39.21 65.703,39.21 64.87,38.89C64.492,38.736 64.152,38.505 63.87,38.21C63.589,37.924 63.368,37.583 63.22,37.21C62.917,36.349 62.917,35.411 63.22,34.55C63.369,34.177 63.59,33.838 63.87,33.55C64.152,33.256 64.493,33.024 64.87,32.87C65.703,32.547 66.627,32.547 67.46,32.87C67.837,33.024 68.178,33.256 68.46,33.55C68.74,33.838 68.961,34.177 69.11,34.55C69.267,34.976 69.345,35.426 69.34,35.88ZM68.44,35.88C68.446,35.517 68.392,35.155 68.28,34.81C68.183,34.515 68.027,34.242 67.82,34.01C67.62,33.792 67.374,33.621 67.1,33.51C66.492,33.275 65.818,33.275 65.21,33.51C64.936,33.621 64.69,33.792 64.49,34.01C64.283,34.242 64.126,34.514 64.03,34.81C63.814,35.503 63.814,36.247 64.03,36.94C64.126,37.236 64.283,37.508 64.49,37.74C64.69,37.958 64.936,38.129 65.21,38.24C65.818,38.472 66.492,38.472 67.1,38.24C67.374,38.129 67.62,37.958 67.82,37.74C68.027,37.508 68.183,37.235 68.28,36.94C68.395,36.599 68.452,36.24 68.45,35.88L68.44,35.88Z" style="fill:rgb(102,102,106);fill-rule:nonzero;"/>
                <path d="M73,32.68C73.051,32.711 73.095,32.752 73.13,32.8L76.86,37.66L76.86,37.22L76.86,32.65L77.63,32.65L77.63,39.1L77.19,39.1C77.134,39.113 77.076,39.113 77.02,39.1C76.965,39.071 76.917,39.03 76.88,38.98L73.15,34.12L73.15,39.1L72.39,39.1L72.39,32.65L72.84,32.65C72.895,32.649 72.949,32.659 73,32.68Z" style="fill:rgb(102,102,106);fill-rule:nonzero;"/>
                <path d="M4.28,36.7L4.41,37.01L4.54,36.69C4.54,36.59 4.63,36.48 4.68,36.39L6.61,32.79C6.629,32.751 6.652,32.714 6.68,32.68C6.705,32.653 6.736,32.633 6.77,32.62L7.93,32.62L7.93,39.1L6.86,39.1L6.86,34.9L6.86,34.36L4.93,38C4.889,38.082 4.827,38.151 4.75,38.2C4.675,38.247 4.588,38.272 4.5,38.27L4.33,38.27C4.242,38.272 4.155,38.247 4.08,38.2C4.003,38.15 3.941,38.081 3.9,38L1.9,34.3L1.9,39.05L0.88,39.05L0.88,32.59L2.04,32.59L2.13,32.65C2.162,32.682 2.189,32.719 2.21,32.76L4.14,36.4C4.192,36.498 4.238,36.598 4.28,36.7Z" style="fill:rgb(102,102,106);fill-rule:nonzero;"/>
                <path d="M17.83,35.85C17.835,36.304 17.753,36.756 17.59,37.18C17.44,37.575 17.212,37.935 16.92,38.24C16.638,38.539 16.298,38.778 15.92,38.94C15.054,39.272 14.096,39.272 13.23,38.94C12.853,38.776 12.513,38.538 12.23,38.24C11.937,37.936 11.709,37.575 11.56,37.18C11.242,36.326 11.242,35.384 11.56,34.53C11.709,34.135 11.937,33.774 12.23,33.47C12.512,33.171 12.852,32.932 13.23,32.77C13.659,32.599 14.118,32.514 14.58,32.52C15.042,32.513 15.501,32.598 15.93,32.77C16.307,32.934 16.647,33.172 16.93,33.47C17.222,33.771 17.45,34.129 17.6,34.52C17.76,34.945 17.838,35.396 17.83,35.85ZM16.59,35.85C16.6,35.511 16.553,35.173 16.45,34.85C16.365,34.584 16.225,34.339 16.04,34.13C15.86,33.933 15.638,33.779 15.39,33.68C14.836,33.469 14.224,33.469 13.67,33.68C13.422,33.779 13.2,33.933 13.02,34.13C12.836,34.34 12.696,34.585 12.61,34.85C12.419,35.476 12.419,36.144 12.61,36.77C12.695,37.036 12.835,37.281 13.02,37.49C13.2,37.687 13.423,37.84 13.67,37.94C14.224,38.151 14.836,38.151 15.39,37.94C15.638,37.841 15.86,37.687 16.04,37.49C16.225,37.281 16.365,37.036 16.45,36.77C16.541,36.472 16.585,36.162 16.58,35.85L16.59,35.85Z" style="fill:rgb(102,102,106);fill-rule:nonzero;"/>
                <path d="M22.37,36.56L22.37,39.1L21.16,39.1L21.16,32.59L23.16,32.59C23.545,32.583 23.928,32.63 24.3,32.73C24.583,32.803 24.848,32.932 25.08,33.11C25.277,33.266 25.432,33.469 25.53,33.7C25.688,34.146 25.688,34.634 25.53,35.08C25.467,35.271 25.373,35.45 25.25,35.61C25.124,35.774 24.972,35.916 24.8,36.03C24.612,36.155 24.406,36.253 24.19,36.32C24.35,36.411 24.487,36.538 24.59,36.69L26.22,39.09L25.15,39.09C25.056,39.094 24.963,39.073 24.88,39.03C24.803,38.986 24.738,38.924 24.69,38.85L23.32,36.77C23.279,36.7 23.22,36.641 23.15,36.6C23.061,36.579 22.969,36.579 22.88,36.6L22.37,36.56ZM22.37,35.69L23.13,35.69C23.334,35.693 23.536,35.662 23.73,35.6C23.886,35.551 24.029,35.469 24.15,35.36C24.261,35.261 24.346,35.138 24.4,35C24.454,34.856 24.481,34.704 24.48,34.55C24.497,34.259 24.374,33.977 24.15,33.79C23.857,33.589 23.504,33.493 23.15,33.52L22.38,33.52L22.37,35.69Z" style="fill:rgb(102,102,106);fill-rule:nonzero;"/>
                <path d="M33.46,32.59L33.46,33.59L30.58,33.59L30.58,35.39L32.85,35.39L32.85,36.32L30.58,36.32L30.58,38.16L33.46,38.16L33.46,39.16L29.36,39.16L29.36,32.59L33.46,32.59Z" style="fill:rgb(102,102,106);fill-rule:nonzero;"/>
            </g>
        </g>
    </g>
</svg>
