<?xml version="1.0" encoding="UTF-8" standalone="no"?>
<!DOCTYPE svg PUBLIC "-//W3C//DTD SVG 1.1//EN" "http://www.w3.org/Graphics/SVG/1.1/DTD/svg11.dtd">
<svg width="100%" height="100%" viewBox="0 0 81 24" version="1.1" xmlns="http://www.w3.org/2000/svg" xmlns:xlink="http://www.w3.org/1999/xlink" xml:space="preserve" xmlns:serif="http://www.serif.com/" style="fill-rule:evenodd;clip-rule:evenodd;stroke-linejoin:round;stroke-miterlimit:1.41421;">
    <g transform="matrix(1,0,0,1,0,-63)">
        <g id="More_Value">
            <g>
                <path d="M6.33,76.79L6.33,77.87L2,77.87L2,80.6L5.52,80.6L5.52,81.7L2,81.7L2,86L0.7,86L0.7,76.79L6.33,76.79Z" style="fill:rgb(102,102,106);fill-rule:nonzero;"/>
                <path d="M14.89,76.79L14.89,77.88L10.62,77.88L10.62,80.6L14.2,80.6L14.2,81.71L10.62,81.71L10.62,84.9L14.89,84.9L14.89,86L9.28,86L9.28,76.79L14.89,76.79Z" style="fill:rgb(102,102,106);fill-rule:nonzero;"/>
                <path d="M26.28,86L24.92,86L23.82,83.45L19.94,83.45L18.88,86L17.53,86L21.53,76.81L22.42,76.81L26.28,86ZM20.39,82.38L23.39,82.38L21.86,78.9L20.39,82.38Z" style="fill:rgb(102,102,106);fill-rule:nonzero;"/>
                <path d="M30.55,82.27L30.55,86L29.2,86L29.2,76.79L32.05,76.79C32.546,76.781 33.041,76.841 33.52,76.97C33.885,77.073 34.226,77.25 34.52,77.49C34.785,77.71 34.991,77.991 35.12,78.31C35.252,78.654 35.317,79.021 35.31,79.39C35.343,79.689 35.343,79.991 35.31,80.29C35.245,80.621 35.104,80.932 34.9,81.2C34.714,81.444 34.487,81.653 34.23,81.82C34.013,81.972 33.768,82.08 33.51,82.14C33.67,82.269 33.802,82.429 33.9,82.61L36.22,86L34.7,86L32.25,82.54C32.192,82.447 32.113,82.368 32.02,82.31C31.904,82.258 31.777,82.234 31.65,82.24L30.55,82.27ZM30.55,81.17L32,81.17C32.317,81.183 32.634,81.146 32.94,81.06C33.158,81.008 33.36,80.905 33.53,80.76C33.693,80.629 33.817,80.456 33.89,80.26C33.995,80.017 34.053,79.755 34.06,79.49C34.104,79.035 33.916,78.587 33.56,78.3C33.121,77.99 32.586,77.844 32.05,77.89L30.55,77.89L30.55,81.17Z" style="fill:rgb(102,102,106);fill-rule:nonzero;"/>
                <path d="M46.3,84.45L50.39,84.45L50.39,86L44.39,86L44.39,76.81L46.3,76.81L46.3,84.45Z" style="fill:rgb(102,102,106);fill-rule:nonzero;"/>
                <path d="M59.42,76.81L59.42,78.34L55.31,78.34L55.31,80.34L58.62,80.34L58.62,81.9L55.31,81.9L55.31,84.45L59.42,84.45L59.42,86L53.3,86L53.3,76.81L59.42,76.81Z" style="fill:rgb(102,102,106);fill-rule:nonzero;"/>
                <path d="M68.11,78.89L68.61,77.48C67.785,76.91 66.803,76.61 65.8,76.62C64.08,76.62 63.71,77 63.21,77.53C62.781,78.007 62.567,78.641 62.62,79.28C62.556,80.26 63.107,81.182 64,81.59C65.31,82.29 67.16,82.15 67.16,83.51C67.16,84.51 66.16,84.73 65.56,84.73C64.521,84.644 63.539,84.215 62.77,83.51L62.32,85.06C63.167,85.87 64.322,86.278 65.49,86.18C67.76,86.18 68.96,85.3 68.96,83.38C69.049,82.109 68.199,80.948 66.96,80.65C65.96,80.31 65.66,80.24 65.18,80.07C64.7,79.9 64.34,79.62 64.34,79.07C64.34,78.52 64.87,78.07 65.79,78.07C66.628,78.104 67.437,78.39 68.11,78.89Z" style="fill:rgb(102,102,106);fill-rule:nonzero;"/>
                <path d="M77.53,78.89L78.03,77.48C77.204,76.911 76.223,76.61 75.22,76.62C73.5,76.62 73.13,77 72.63,77.53C72.186,78 71.958,78.635 72,79.28C71.941,80.267 72.505,81.191 73.41,81.59C74.72,82.29 76.57,82.15 76.57,83.51C76.57,84.51 75.57,84.73 74.97,84.73C73.931,84.644 72.949,84.215 72.18,83.51L71.73,85.06C72.577,85.87 73.732,86.278 74.9,86.18C77.17,86.18 78.37,85.3 78.37,83.38C78.459,82.109 77.609,80.948 76.37,80.65C75.37,80.31 75.07,80.24 74.59,80.07C74.11,79.9 73.75,79.62 73.75,79.07C73.75,78.52 74.28,78.07 75.2,78.07C76.042,78.102 76.854,78.388 77.53,78.89Z" style="fill:rgb(102,102,106);fill-rule:nonzero;"/>
                <path id="Swoosh-4" d="M39.78,83.58C38.847,83.205 38.067,82.524 37.57,81.65C37.06,80.3 38.64,80.01 40.57,80.06C41.57,80.06 42.89,80.23 42.89,80.23C42.89,80.23 39.89,80.6 38.78,81.46C37.67,82.32 39.78,83.58 39.78,83.58" style="fill:rgb(243,108,36);fill-rule:nonzero;"/>
                <rect x="79.36" y="84.53" width="1.46" height="1.46" style="fill:rgb(102,102,106);"/>
                <rect x="79.55" y="69.69" width="1.09" height="1.09" style="fill:rgb(102,102,106);"/>
                <path d="M40.46,64.12L41.24,64.12C41.315,64.117 41.388,64.138 41.45,64.18C41.502,64.219 41.544,64.271 41.57,64.33L43.57,68.98C43.62,69.091 43.663,69.204 43.7,69.32L43.81,69.7C43.81,69.57 43.87,69.44 43.91,69.32C43.942,69.204 43.982,69.09 44.03,68.98L46.03,64.33C46.058,64.274 46.099,64.226 46.15,64.19C46.21,64.143 46.284,64.118 46.36,64.12L47.14,64.12L44.21,70.71L43.33,70.71L40.46,64.12Z" style="fill:rgb(102,102,106);fill-rule:nonzero;"/>
                <path d="M54.94,70.71L54.19,70.71C54.115,70.714 54.041,70.693 53.98,70.65C53.927,70.611 53.886,70.56 53.86,70.5L53.19,68.91L50,68.91L49.33,70.5C49.304,70.56 49.263,70.612 49.21,70.65C49.149,70.693 49.075,70.714 49,70.71L48.25,70.71L51.12,64.12L52.12,64.12L54.94,70.71ZM50.23,68.26L52.91,68.26L51.78,65.58C51.693,65.379 51.619,65.171 51.56,64.96L51.45,65.31C51.417,65.417 51.383,65.51 51.35,65.59L50.23,68.26Z" style="fill:rgb(102,102,106);fill-rule:nonzero;"/>
                <path d="M58.42,70L61.53,70L61.53,70.75L57.45,70.75L57.45,64.12L58.45,64.12L58.42,70Z" style="fill:rgb(102,102,106);fill-rule:nonzero;"/>
                <path d="M67,70C67.273,70.004 67.545,69.957 67.8,69.86C68.268,69.696 68.636,69.328 68.8,68.86C68.888,68.616 68.932,68.359 68.93,68.1L68.93,64.1L69.93,64.1L69.93,68.1C69.933,68.463 69.865,68.823 69.73,69.16C69.6,69.477 69.406,69.763 69.16,70C68.901,70.246 68.595,70.437 68.26,70.56C67.489,70.828 66.651,70.828 65.88,70.56C65.545,70.436 65.239,70.246 64.98,70C64.733,69.763 64.538,69.477 64.41,69.16C64.275,68.823 64.207,68.463 64.21,68.1L64.21,64.1L65.21,64.1L65.21,68.1C65.208,68.359 65.252,68.616 65.34,68.86C65.42,69.081 65.546,69.282 65.71,69.45C65.88,69.621 66.085,69.754 66.31,69.84C66.53,69.931 66.763,69.985 67,70Z" style="fill:rgb(102,102,106);fill-rule:nonzero;"/>
                <path d="M77.55,64.12L77.55,64.85L74.1,64.85L74.1,67L76.89,67L76.89,67.7L74.1,67.7L74.1,70L77.55,70L77.55,70.73L73.12,70.73L73.12,64.12L77.55,64.12Z" style="fill:rgb(102,102,106);fill-rule:nonzero;"/>
                <path d="M4.82,68.29L4.96,68.62L5.1,68.28C5.1,68.17 5.2,68.06 5.26,67.96L7.38,64.12C7.401,64.077 7.428,64.036 7.46,64C7.485,63.974 7.516,63.953 7.55,63.94L8.82,63.94L8.82,70.88L7.65,70.88L7.65,66.36L7.65,65.79L5.52,69.72C5.476,69.805 5.41,69.877 5.33,69.93C5.245,69.98 5.148,70.004 5.05,70L4.87,70C4.772,70.004 4.675,69.98 4.59,69.93C4.51,69.877 4.444,69.805 4.4,69.72L2.21,65.77L2.21,70.84L1.07,70.84L1.07,63.91L2.35,63.91L2.45,63.97C2.483,64.006 2.51,64.046 2.53,64.09L4.66,68C4.72,68.07 4.77,68.17 4.82,68.29Z" style="fill:rgb(102,102,106);fill-rule:nonzero;"/>
                <path d="M18.9,67.38C18.905,67.862 18.817,68.341 18.64,68.79C18.305,69.65 17.622,70.329 16.76,70.66C15.794,71.025 14.726,71.025 13.76,70.66C13.33,70.495 12.939,70.243 12.61,69.92C12.289,69.598 12.037,69.213 11.87,68.79C11.52,67.879 11.52,66.871 11.87,65.96C12.038,65.54 12.289,65.159 12.61,64.84C12.939,64.517 13.33,64.265 13.76,64.1C14.232,63.917 14.734,63.826 15.24,63.83C15.746,63.824 16.249,63.915 16.72,64.1C17.146,64.267 17.534,64.519 17.86,64.84C18.2,65.167 18.466,65.562 18.64,66C18.813,66.44 18.901,66.908 18.9,67.38ZM17.54,67.38C17.541,67.04 17.487,66.702 17.38,66.38C17.285,66.095 17.132,65.832 16.93,65.61C16.732,65.399 16.49,65.235 16.22,65.13C15.61,64.905 14.94,64.905 14.33,65.13C14.061,65.237 13.819,65.401 13.62,65.61C13.418,65.833 13.265,66.095 13.17,66.38C12.97,67.032 12.97,67.728 13.17,68.38C13.264,68.666 13.417,68.928 13.62,69.15C13.819,69.359 14.061,69.523 14.33,69.63C14.94,69.855 15.61,69.855 16.22,69.63C16.49,69.525 16.732,69.361 16.93,69.15C17.133,68.928 17.286,68.666 17.38,68.38C17.487,68.058 17.541,67.72 17.54,67.38Z" style="fill:rgb(102,102,106);fill-rule:nonzero;"/>
                <path d="M23.1,68.13L23.1,70.84L21.77,70.84L21.77,63.91L24,63.91C24.422,63.903 24.842,63.954 25.25,64.06C25.557,64.14 25.846,64.279 26.1,64.47C26.315,64.635 26.483,64.852 26.59,65.1C26.763,65.575 26.763,66.095 26.59,66.57C26.52,66.776 26.415,66.969 26.28,67.14C26.143,67.316 25.977,67.468 25.79,67.59C25.582,67.724 25.357,67.829 25.12,67.9C25.296,67.998 25.446,68.134 25.56,68.3L27.35,70.86L26.15,70.86C25.949,70.87 25.758,70.77 25.65,70.6L24.15,68.38C24.103,68.305 24.037,68.243 23.96,68.2C23.865,68.161 23.763,68.143 23.66,68.15L23.1,68.13ZM23.1,67.2L23.93,67.2C24.15,67.204 24.369,67.174 24.58,67.11C24.749,67.059 24.905,66.974 25.04,66.86C25.159,66.756 25.251,66.626 25.31,66.48C25.37,66.327 25.401,66.164 25.4,66C25.413,65.689 25.279,65.389 25.04,65.19C24.733,64.986 24.369,64.885 24,64.9L23.1,64.9L23.1,67.2Z" style="fill:rgb(102,102,106);fill-rule:nonzero;"/>
                <path d="M34.49,63.91L34.49,64.91L31.32,64.91L31.32,66.83L33.82,66.83L33.82,67.83L31.32,67.83L31.32,69.83L34.49,69.83L34.49,70.83L30,70.83L30,63.91L34.49,63.91Z" style="fill:rgb(102,102,106);fill-rule:nonzero;"/>
            </g>
        </g>
    </g>
</svg>
