<?xml version="1.0" encoding="UTF-8"?>
<svg width="623px" height="101px" viewBox="0 0 623 101" version="1.1" xmlns="http://www.w3.org/2000/svg" xmlns:xlink="http://www.w3.org/1999/xlink">
    <!-- Generator: Sketch 52.5 (67469) - http://www.bohemiancoding.com/sketch -->
    <title>MU-MIMO 2</title>
    <desc>Created with Sketch.</desc>
    <g id="Page-1" stroke="none" stroke-width="1" fill="none" fill-rule="evenodd">
        <g id="Artboard-Copy-45" transform="translate(-446.000000, -62.000000)" fill="#66666A">
            <g id="MU-MUMO-2" transform="translate(434.000000, 21.000000)">
                <g id="MU-MIMO-2" transform="translate(12.000000, 41.000000)">
                    <path d="M86.946,1.02 C88.3260069,1.02 89.4069961,1.43399586 90.189,2.262 C90.9710039,3.09000414 91.362,4.14799356 91.362,5.436 L91.362,95.274 C91.362,96.5620064 90.9940037,97.6199959 90.258,98.448 C89.5219963,99.2760041 88.5100064,99.69 87.222,99.69 C85.9339936,99.69 84.9680032,99.2990039 84.324,98.517 C83.6799968,97.7349961 83.358,96.6540069 83.358,95.274 L83.358,18.684 L50.652,81.888 C49.5479945,84.0040106 48.0300097,85.062 46.098,85.062 C44.1659903,85.062 42.6480055,84.0040106 41.544,81.888 L8.562,19.236 L8.562,95.274 C8.562,96.6540069 8.24000322,97.7349961 7.596,98.517 C6.95199678,99.2990039 5.98600644,99.69 4.698,99.69 C3.3179931,99.69 2.28300345,99.2990039 1.593,98.517 C0.90299655,97.7349961 0.558,96.6540069 0.558,95.274 L0.558,5.436 C0.558,4.14799356 0.94899609,3.09000414 1.731,2.262 C2.51300391,1.43399586 3.5939931,1.02 4.974,1.02 C6.63000828,1.02 8.00999448,2.07798942 9.114,4.194 L46.236,75.402 L82.806,4.194 C83.9100055,2.07798942 85.2899917,1.02 86.946,1.02 Z M153.6,100.104 C141.179938,100.104 131.773032,96.8380327 125.379,90.306 C118.984968,83.7739673 115.788,74.1600635 115.788,61.464 L115.788,5.436 C115.788,4.0559931 116.178996,2.97500391 116.961,2.193 C117.743004,1.41099609 118.777994,1.02 120.066,1.02 C121.354006,1.02 122.388996,1.41099609 123.171,2.193 C123.953004,2.97500391 124.344,4.0559931 124.344,5.436 L124.344,62.43 C124.344,82.4861003 134.095902,92.514 153.6,92.514 C163.260048,92.514 170.550975,89.9840253 175.473,84.924 C180.395025,79.8639747 182.856,72.3660497 182.856,62.43 L182.856,5.436 C182.856,4.14799356 183.246996,3.09000414 184.029,2.262 C184.811004,1.43399586 185.845994,1.02 187.134,1.02 C188.422006,1.02 189.433996,1.41099609 190.17,2.193 C190.906004,2.97500391 191.274,4.0559931 191.274,5.436 L191.274,61.464 C191.274,74.1600635 188.077032,83.7739673 181.683,90.306 C175.288968,96.8380327 165.928062,100.104 153.6,100.104 Z M216.666,65.88 C215.469994,65.88 214.527003,65.5580032 213.837,64.914 C213.146997,64.2699968 212.802,63.4420051 212.802,62.43 C212.802,61.3259945 213.146997,60.4290035 213.837,59.739 C214.527003,59.0489966 215.469994,58.704 216.666,58.704 L247.992,58.704 C249.188006,58.704 250.130997,59.0489966 250.821,59.739 C251.511003,60.4290035 251.856,61.3259945 251.856,62.43 C251.856,63.4420051 251.511003,64.2699968 250.821,64.914 C250.130997,65.5580032 249.188006,65.88 247.992,65.88 L216.666,65.88 Z M360.324,1.02 C361.704007,1.02 362.784996,1.43399586 363.567,2.262 C364.349004,3.09000414 364.74,4.14799356 364.74,5.436 L364.74,95.274 C364.74,96.5620064 364.372004,97.6199959 363.636,98.448 C362.899996,99.2760041 361.888006,99.69 360.6,99.69 C359.311994,99.69 358.346003,99.2990039 357.702,98.517 C357.057997,97.7349961 356.736,96.6540069 356.736,95.274 L356.736,18.684 L324.03,81.888 C322.925994,84.0040106 321.40801,85.062 319.476,85.062 C317.54399,85.062 316.026006,84.0040106 314.922,81.888 L281.94,19.236 L281.94,95.274 C281.94,96.6540069 281.618003,97.7349961 280.974,98.517 C280.329997,99.2990039 279.364006,99.69 278.076,99.69 C276.695993,99.69 275.661003,99.2990039 274.971,98.517 C274.280997,97.7349961 273.936,96.6540069 273.936,95.274 L273.936,5.436 C273.936,4.14799356 274.326996,3.09000414 275.109,2.262 C275.891004,1.43399586 276.971993,1.02 278.352,1.02 C280.008008,1.02 281.387994,2.07798942 282.492,4.194 L319.614,75.402 L356.184,4.194 C357.288006,2.07798942 358.667992,1.02 360.324,1.02 Z M394.134,99.69 C392.845994,99.69 391.811004,99.2760041 391.029,98.448 C390.246996,97.6199959 389.856,96.5620064 389.856,95.274 L389.856,5.436 C389.856,4.14799356 390.246996,3.09000414 391.029,2.262 C391.811004,1.43399586 392.845994,1.02 394.134,1.02 C395.422006,1.02 396.456996,1.43399586 397.239,2.262 C398.021004,3.09000414 398.412,4.14799356 398.412,5.436 L398.412,95.274 C398.412,96.5620064 398.021004,97.6199959 397.239,98.448 C396.456996,99.2760041 395.422006,99.69 394.134,99.69 Z M509.916,1.02 C511.296007,1.02 512.376996,1.43399586 513.159,2.262 C513.941004,3.09000414 514.332,4.14799356 514.332,5.436 L514.332,95.274 C514.332,96.5620064 513.964004,97.6199959 513.228,98.448 C512.491996,99.2760041 511.480006,99.69 510.192,99.69 C508.903994,99.69 507.938003,99.2990039 507.294,98.517 C506.649997,97.7349961 506.328,96.6540069 506.328,95.274 L506.328,18.684 L473.622,81.888 C472.517994,84.0040106 471.00001,85.062 469.068,85.062 C467.13599,85.062 465.618006,84.0040106 464.514,81.888 L431.532,19.236 L431.532,95.274 C431.532,96.6540069 431.210003,97.7349961 430.566,98.517 C429.921997,99.2990039 428.956006,99.69 427.668,99.69 C426.287993,99.69 425.253003,99.2990039 424.563,98.517 C423.872997,97.7349961 423.528,96.6540069 423.528,95.274 L423.528,5.436 C423.528,4.14799356 423.918996,3.09000414 424.701,2.262 C425.483004,1.43399586 426.563993,1.02 427.944,1.02 C429.600008,1.02 430.979994,2.07798942 432.084,4.194 L469.206,75.402 L505.776,4.194 C506.880006,2.07798942 508.259992,1.02 509.916,1.02 Z M579.054,100.104 C570.221956,100.104 562.540033,98.10302 556.008,94.101 C549.475967,90.09898 544.462017,84.3490375 540.966,76.851 C537.469983,69.3529625 535.722,60.5440506 535.722,50.424 C535.722,40.2119489 537.469983,31.3570375 540.966,23.859 C544.462017,16.3609625 549.452968,10.61102 555.939,6.609 C562.425032,2.60697999 570.129955,0.606 579.054,0.606 C587.978045,0.606 595.705967,2.60697999 602.238,6.609 C608.770033,10.61102 613.783983,16.3379627 617.28,23.79 C620.776017,31.2420373 622.524,40.0739489 622.524,50.286 C622.524,60.4980511 620.776017,69.3529625 617.28,76.851 C613.783983,84.3490375 608.770033,90.09898 602.238,94.101 C595.705967,98.10302 587.978045,100.104 579.054,100.104 Z M579.054,92.514 C590.002055,92.514 598.51197,88.8340368 604.584,81.474 C610.65603,74.1139632 613.692,63.7180672 613.692,50.286 C613.692,36.8539328 610.67903,26.4810366 604.653,19.167 C598.62697,11.8529634 590.094055,8.196 579.054,8.196 C568.105945,8.196 559.61903,11.8759632 553.593,19.236 C547.56697,26.5960368 544.554,36.9459333 544.554,50.286 C544.554,63.6260667 547.56697,73.998963 553.593,81.405 C559.61903,88.811037 568.105945,92.514 579.054,92.514 Z" id="MU-MIMO"></path>
                </g>
            </g>
        </g>
    </g>
</svg>