<?xml version="1.0" encoding="UTF-8"?>
<svg width="48px" height="48px" viewBox="0 0 48 48" version="1.1" xmlns="http://www.w3.org/2000/svg" xmlns:xlink="http://www.w3.org/1999/xlink">
    <!-- Generator: Sketch 51.3 (57544) - http://www.bohemiancoding.com/sketch -->
    <title>MySonicWall - Color - OnWhite</title>
    <desc>Created with Sketch.</desc>
    <defs></defs>
    <g id="MySonicWall---Color---OnWhite" stroke="none" stroke-width="1" fill="none" fill-rule="evenodd">
        <g id="Icon_Service_MySonicWall_Color" transform="translate(2.000000, 0.000000)">
            <path d="M24.5164164,43.7673795 C24.4903096,43.7428256 24.4642759,43.7182204 24.4383182,43.6935653 C22.8328811,42.1686901 21.7846449,40.6947392 21.5366919,39.5210789 C21.3600175,38.6848085 21.5907164,38.0371448 22.4606025,37.3308812 C24.3065674,35.8323516 27.6289003,34.4358866 31.9481207,33.2313849 C32.9555382,32.9504462 33.9923972,32.6864063 35.0474859,32.4391868 C35.1896059,33.8756655 35.2551803,35.5047314 35.2845852,37.3590514 C35.2955939,38.0572477 35.3014298,38.1780103 35.3043478,38.1157069 C35.3039499,38.3007614 35.3036846,38.5727756 35.3036846,38.9639617 C35.3036846,38.9639617 33.5416992,42.5136259 24.5164164,43.7673795 Z M16.2486995,44.1877256 C7.71219203,44.0406991 2.43094064,42.5251683 0.404945319,39.6411334 C0.142480687,39.267511 0.00141111305,38.8221403 0.000906658802,38.365543 L0.000894003761,38.365543 C0.00057823949,38.0797349 0.000280238237,37.8969474 0,37.8171806 C0.00291797777,37.9179266 0.0104781929,37.8723257 0.0267923414,37.0044519 C0.225745371,26.376146 1.73884948,23.3120093 12.5347041,21.364695 C12.5347041,21.364695 14.0714173,23.3214211 17.6525718,23.3214211 C21.2337264,23.3214211 22.7701743,21.364695 22.7701743,21.364695 C28.2911427,22.3605412 31.3844486,23.6484351 33.115854,26.0907299 C32.4113058,26.0542961 31.7346215,26.0265012 31.0886969,26.0079707 C24.9376888,25.8317006 19.8233828,26.3394491 16.2627393,27.6900798 C11.5028886,29.4955963 9.40696768,32.9684627 11.1045087,37.6077344 C11.9927342,40.035979 13.7818973,42.2152617 16.2486995,44.1877256 Z M17.6527045,20.49417 C12.491067,20.49417 8.30655428,15.9064394 8.30655428,10.2471449 C8.30655428,4.58773057 9.68065654,0 17.6527045,0 C25.6247524,0 26.9985894,4.58773057 26.9985894,10.2471449 C26.9985894,15.9064394 22.8140766,20.49417 17.6527045,20.49417 Z" id="Combined-Shape" fill="#80808A" fill-rule="nonzero"></path>
            <path d="M17.5652174,27.292211 L17.5652174,23.3141577 C17.6416631,23.3160229 17.7190918,23.3169765 17.7975089,23.3169765 C21.3492589,23.3169765 22.8730912,21.3606234 22.8730912,21.3606234 C28.3487275,22.3562798 31.4166346,23.6439283 33.1338235,26.0857576 C32.4350603,26.0493307 31.7639321,26.0215412 31.1233113,26.0030142 C25.654568,25.8450285 21.0120855,26.2366203 17.5652174,27.292211 Z M35.0495946,32.4330013 C35.1905481,33.8692096 35.255584,35.497965 35.2847474,37.3519316 C35.2956658,38.0499949 35.3014538,38.1707345 35.3043478,38.1084429 C35.3042325,38.1625014 35.3041256,38.2471678 35.3040272,38.3624421 C35.3036399,38.8158614 35.1646346,39.258324 34.90565,39.6305016 L34.9056343,39.6304907 C33.376012,41.8286569 29.9714929,43.2322117 24.6920768,43.8411552 C24.6369102,43.7894144 24.5820554,43.7374385 24.5275382,43.6852383 C22.9352832,42.1606537 21.8956539,40.6869837 21.6497369,39.5135471 C21.4745131,38.677436 21.7033178,38.0298958 22.5660614,37.3237668 C24.3968692,35.8255228 27.6919227,34.4293239 31.9756783,33.2250518 C32.9748241,32.9441666 34.0031695,32.680177 35.0495949,32.4330046 Z M17.5652174,20.4871064 L17.5652174,0.00133964269 C17.6420564,0.000447677427 17.7195291,0 17.7976405,0 C25.7042306,0 27.0667872,4.58685626 27.0667872,10.245192 C27.0667872,15.903408 22.9166331,20.4902643 17.7976405,20.4902643 C17.7199392,20.4902643 17.6424611,20.4892076 17.5652174,20.4871064 Z" id="Combined-Shape" fill="#53535A" fill-rule="nonzero"></path>
            <path d="M26.9664257,48 C26.9664257,48 15.6520704,43.8857286 13.1575121,37.0396371 C10.3641628,29.3760045 20.7205998,27.6266372 31.3142829,27.931398 C37.0230789,28.0958085 44,28.9724971 44,28.9724971 C44,28.9724971 27.5163601,31.0922893 21.559895,35.9464078 C15.7438915,40.6867422 26.9664257,48 26.9664257,48" id="Fill-1" fill="#FF6C0C"></path>
        </g>
    </g>
</svg>