<?xml version="1.0" encoding="UTF-8"?>
<svg width="2277px" height="2277px" viewBox="0 0 2277 2277" version="1.1" xmlns="http://www.w3.org/2000/svg" xmlns:xlink="http://www.w3.org/1999/xlink">
    <!-- Generator: Sketch 52.5 (67469) - http://www.bohemiancoding.com/sketch -->
    <title>Network Security Ring</title>
    <desc>Created with Sketch.</desc>
    <g id="Page-1" stroke="none" stroke-width="1" fill="none" fill-rule="evenodd" fill-opacity="0.075464221" stroke-dasharray="33,18">
        <path d="M1158.31721,2273.82706 C531.293387,2284.7718 14.1176836,1785.34103 3.17294215,1158.31721 C-7.77179934,531.293387 491.658972,14.1176836 1118.68279,3.17294215 C1745.70661,-7.77179934 2262.88232,491.658972 2273.82706,1118.68279 C2278.89394,1408.96405 2174.57532,1675.70227 1998.85137,1879.56783 C1795.00173,2116.06333 1495.05977,2267.94919 1158.31721,2273.82706 Z M1175.29548,2178.36646 C1749.32172,2158.32102 2198.4119,1676.73077 2178.36646,1102.70452 C2158.32102,528.678278 1676.73077,79.5881017 1102.70452,99.6335399 C528.678278,119.678978 79.5881017,601.269231 99.6335399,1175.29548 C119.678978,1749.32172 601.269231,2198.4119 1175.29548,2178.36646 Z" id="Network-Security-Ring" stroke="#E4DB81" stroke-width="6" fill="#FFFFFF"></path>
    </g>
</svg>