<?xml version="1.0" encoding="UTF-8" standalone="no"?>
<!DOCTYPE svg PUBLIC "-//W3C//DTD SVG 1.1//EN" "http://www.w3.org/Graphics/SVG/1.1/DTD/svg11.dtd">
<svg width="100%" height="100%" viewBox="0 0 160 31" version="1.1" xmlns="http://www.w3.org/2000/svg" xmlns:xlink="http://www.w3.org/1999/xlink" xml:space="preserve" xmlns:serif="http://www.serif.com/" style="fill-rule:evenodd;clip-rule:evenodd;">
    <g transform="matrix(1,0,0,1,0,1)">
        <g id="Group-29">
            <path id="Rectangle" d="M159.609,14.674C159.609,6.791 153.209,0.391 145.326,0.391L14.674,0.391C6.791,0.391 0.391,6.791 0.391,14.674C0.391,22.557 6.791,28.957 14.674,28.957L145.326,28.957C153.209,28.957 159.609,22.557 159.609,14.674Z" style="fill:none;stroke:rgb(254,121,26);stroke-width:0.78px;"/>
            <g transform="matrix(1,0,0,1,58.5621,20)">
                <g id="next">
                    <path d="M9.61,-11.113C9.798,-11.113 9.944,-11.053 10.049,-10.933C10.153,-10.813 10.205,-10.654 10.205,-10.456L10.205,-0.579C10.205,-0.381 10.15,-0.222 10.041,-0.102C9.931,0.018 9.777,0.078 9.579,0.078C9.381,0.078 9.209,-0.01 9.063,-0.188L2.567,-8.875L2.567,-0.579C2.567,-0.381 2.512,-0.222 2.403,-0.102C2.293,0.018 2.144,0.078 1.957,0.078C1.769,0.078 1.623,0.018 1.518,-0.102C1.414,-0.222 1.362,-0.381 1.362,-0.579L1.362,-10.456C1.362,-10.654 1.417,-10.813 1.526,-10.933C1.636,-11.053 1.79,-11.113 1.988,-11.113C2.197,-11.113 2.374,-11.024 2.52,-10.847L9,-2.16L9,-10.456C9,-10.654 9.055,-10.813 9.164,-10.933C9.274,-11.053 9.423,-11.113 9.61,-11.113Z" style="fill:rgb(254,121,26);fill-rule:nonzero;"/>
                    <path d="M13.586,0C13.388,0 13.229,-0.057 13.109,-0.172C12.989,-0.287 12.929,-0.438 12.929,-0.626L12.929,-10.409C12.929,-10.597 12.989,-10.748 13.109,-10.863C13.229,-10.977 13.388,-11.035 13.586,-11.035L19.44,-11.035C19.628,-11.035 19.774,-10.988 19.878,-10.894C19.983,-10.8 20.035,-10.67 20.035,-10.503C20.035,-10.336 19.983,-10.205 19.878,-10.111C19.774,-10.017 19.628,-9.97 19.44,-9.97L14.197,-9.97L14.197,-6.136L19.127,-6.136C19.315,-6.136 19.461,-6.089 19.565,-5.995C19.67,-5.901 19.722,-5.77 19.722,-5.603C19.722,-5.437 19.67,-5.306 19.565,-5.212C19.461,-5.118 19.315,-5.071 19.127,-5.071L14.197,-5.071L14.197,-1.064L19.44,-1.064C19.628,-1.064 19.774,-1.02 19.878,-0.931C19.983,-0.843 20.035,-0.71 20.035,-0.532C20.035,-0.365 19.983,-0.235 19.878,-0.141C19.774,-0.047 19.628,0 19.44,0L13.586,0Z" style="fill:rgb(254,121,26);fill-rule:nonzero;"/>
                    <path d="M30.083,-0.923C30.188,-0.809 30.24,-0.678 30.24,-0.532C30.24,-0.365 30.177,-0.224 30.052,-0.11C29.927,0.005 29.781,0.063 29.614,0.063C29.447,0.063 29.296,-0.01 29.16,-0.157L25.591,-4.711L22.007,-0.157C21.892,-0.01 21.741,0.063 21.553,0.063C21.397,0.063 21.256,0.003 21.13,-0.117C21.005,-0.237 20.943,-0.376 20.943,-0.532C20.943,-0.689 20.99,-0.819 21.083,-0.923L24.84,-5.635L21.287,-10.111C21.183,-10.226 21.13,-10.362 21.13,-10.518C21.13,-10.675 21.19,-10.81 21.31,-10.925C21.43,-11.04 21.569,-11.097 21.725,-11.097C21.903,-11.097 22.054,-11.019 22.179,-10.863L25.591,-6.543L28.988,-10.863C29.113,-11.019 29.264,-11.097 29.442,-11.097C29.598,-11.097 29.739,-11.037 29.864,-10.917C29.99,-10.797 30.052,-10.654 30.052,-10.487C30.052,-10.341 30.005,-10.216 29.911,-10.111L26.343,-5.635L30.083,-0.923Z" style="fill:rgb(254,121,26);fill-rule:nonzero;"/>
                    <path d="M35.327,0.078C35.129,0.078 34.97,0.018 34.85,-0.102C34.73,-0.222 34.67,-0.381 34.67,-0.579L34.67,-9.939L31.304,-9.939C31.117,-9.939 30.97,-9.986 30.866,-10.08C30.762,-10.174 30.71,-10.31 30.71,-10.487C30.71,-10.664 30.762,-10.8 30.866,-10.894C30.97,-10.988 31.117,-11.035 31.304,-11.035L39.334,-11.035C39.522,-11.035 39.668,-10.988 39.772,-10.894C39.877,-10.8 39.929,-10.664 39.929,-10.487C39.929,-10.31 39.877,-10.174 39.772,-10.08C39.668,-9.986 39.522,-9.939 39.334,-9.939L35.969,-9.939L35.969,-0.579C35.969,-0.381 35.911,-0.222 35.797,-0.102C35.682,0.018 35.525,0.078 35.327,0.078Z" style="fill:rgb(254,121,26);fill-rule:nonzero;"/>
                </g>
            </g>
        </g>
    </g>
</svg>
