<?xml version="1.0" encoding="UTF-8" standalone="no"?><!DOCTYPE svg PUBLIC "-//W3C//DTD SVG 1.1//EN" "http://www.w3.org/Graphics/SVG/1.1/DTD/svg11.dtd"><svg width="100%" height="100%" viewBox="0 0 848 77" version="1.1" xmlns="http://www.w3.org/2000/svg" xmlns:xlink="http://www.w3.org/1999/xlink" xml:space="preserve" xmlns:serif="http://www.serif.com/" style="fill-rule:evenodd;clip-rule:evenodd;stroke-linejoin:round;stroke-miterlimit:1.41421;"><g id="NGFW-initiates-TLS-S" serif:id="NGFW-initiates-TLS/S"><path d="M19.262,1.57c0.396,0 0.704,0.126 0.924,0.38c0.22,0.252 0.33,0.588 0.33,1.006l0,20.823c0,0.418 -0.116,0.753 -0.346,1.006c-0.232,0.253 -0.556,0.38 -0.974,0.38c-0.418,0 -0.781,-0.187 -1.089,-0.561l-13.695,-18.315l0,17.49c0,0.418 -0.115,0.753 -0.346,1.006c-0.231,0.253 -0.545,0.38 -0.941,0.38c-0.396,0 -0.704,-0.127 -0.924,-0.38c-0.22,-0.253 -0.33,-0.588 -0.33,-1.006l0,-20.823c0,-0.418 0.116,-0.754 0.347,-1.006c0.231,-0.254 0.555,-0.38 0.973,-0.38c0.44,0 0.814,0.187 1.122,0.561l13.662,18.315l0,-17.49c0,-0.418 0.115,-0.754 0.346,-1.006c0.231,-0.254 0.545,-0.38 0.941,-0.38Z" style="fill-rule:nonzero;"/><path d="M43.55,12.889c0.33,0 0.599,0.099 0.809,0.297c0.209,0.198 0.313,0.473 0.313,0.825l0,8.217c0,0.528 -0.083,0.924 -0.248,1.188c-0.165,0.264 -0.467,0.473 -0.907,0.627c-0.88,0.374 -1.947,0.671 -3.201,0.891c-1.254,0.22 -2.508,0.33 -3.762,0.33c-2.31,0 -4.301,-0.473 -5.973,-1.419c-1.672,-0.946 -2.954,-2.31 -3.845,-4.092c-0.891,-1.782 -1.336,-3.916 -1.336,-6.402c0,-2.442 0.44,-4.554 1.32,-6.336c0.88,-1.782 2.145,-3.151 3.795,-4.108c1.65,-0.957 3.586,-1.436 5.808,-1.436c1.54,0 2.97,0.237 4.29,0.71c1.32,0.473 2.431,1.149 3.333,2.029c0.374,0.374 0.561,0.759 0.561,1.155c0,0.308 -0.088,0.578 -0.264,0.809c-0.176,0.231 -0.396,0.346 -0.66,0.346c-0.264,0 -0.572,-0.132 -0.924,-0.396c-1.144,-0.88 -2.178,-1.49 -3.102,-1.831c-0.924,-0.341 -1.991,-0.512 -3.201,-0.512c-2.618,0 -4.626,0.825 -6.023,2.475c-1.397,1.65 -2.095,4.015 -2.095,7.095c0,3.146 0.709,5.539 2.128,7.178c1.419,1.639 3.504,2.458 6.254,2.458c2.046,0 3.905,-0.308 5.577,-0.924l0,-7.062l-4.818,0c-0.374,0 -0.671,-0.099 -0.891,-0.297c-0.22,-0.198 -0.33,-0.451 -0.33,-0.759c0,-0.33 0.11,-0.588 0.33,-0.775c0.22,-0.187 0.517,-0.281 0.891,-0.281l6.171,0Z" style="fill-rule:nonzero;"/><path d="M51.503,25.165c-0.418,0 -0.748,-0.127 -0.99,-0.38c-0.242,-0.253 -0.363,-0.588 -0.363,-1.006l0,-20.724c0,-0.396 0.127,-0.715 0.38,-0.957c0.252,-0.242 0.588,-0.363 1.006,-0.363l12.012,0c0.396,0 0.704,0.099 0.924,0.297c0.22,0.198 0.33,0.484 0.33,0.858c0,0.352 -0.11,0.627 -0.33,0.825c-0.22,0.198 -0.528,0.297 -0.924,0.297l-10.725,0l0,8.019l10.065,0c0.396,0 0.704,0.099 0.924,0.297c0.22,0.198 0.33,0.484 0.33,0.858c0,0.352 -0.11,0.627 -0.33,0.825c-0.22,0.198 -0.528,0.297 -0.924,0.297l-10.065,0l0,9.471c0,0.418 -0.116,0.753 -0.347,1.006c-0.231,0.253 -0.555,0.38 -0.973,0.38Z" style="fill-rule:nonzero;"/><path d="M98.396,2.395c0.088,-0.286 0.242,-0.501 0.462,-0.644c0.22,-0.143 0.462,-0.214 0.726,-0.214c0.352,0 0.654,0.105 0.907,0.314c0.254,0.208 0.38,0.489 0.38,0.841c0,0.154 -0.033,0.33 -0.099,0.528l-7.458,21.021c-0.11,0.308 -0.297,0.544 -0.561,0.71c-0.264,0.165 -0.561,0.247 -0.891,0.247c-0.308,0 -0.594,-0.082 -0.858,-0.247c-0.264,-0.166 -0.451,-0.402 -0.561,-0.71l-6.468,-18.282l-6.534,18.282c-0.11,0.308 -0.297,0.544 -0.561,0.71c-0.264,0.165 -0.55,0.247 -0.858,0.247c-0.308,0 -0.594,-0.082 -0.858,-0.247c-0.264,-0.166 -0.451,-0.402 -0.561,-0.71l-7.491,-21.021c-0.066,-0.176 -0.099,-0.341 -0.099,-0.495c0,-0.352 0.138,-0.638 0.413,-0.858c0.275,-0.22 0.588,-0.33 0.94,-0.33c0.264,0 0.512,0.072 0.743,0.215c0.231,0.142 0.39,0.357 0.478,0.643l6.501,18.744l6.6,-18.546c0.11,-0.33 0.286,-0.578 0.528,-0.742c0.242,-0.165 0.506,-0.248 0.792,-0.248c0.286,0 0.55,0.088 0.792,0.264c0.242,0.176 0.418,0.429 0.528,0.759l6.501,18.579l6.567,-18.81Z" style="fill-rule:nonzero;"/><path d="M114.467,25.165c-0.396,0 -0.721,-0.116 -0.974,-0.346c-0.252,-0.232 -0.379,-0.556 -0.379,-0.974l0,-13.926c0,-0.418 0.127,-0.742 0.38,-0.973c0.253,-0.231 0.577,-0.347 0.973,-0.347c0.396,0 0.715,0.116 0.957,0.347c0.242,0.231 0.363,0.555 0.363,0.973l0,13.926c0,0.44 -0.121,0.77 -0.363,0.99c-0.242,0.22 -0.561,0.33 -0.957,0.33Zm0,-20.031c-0.528,0 -0.957,-0.154 -1.287,-0.462c-0.33,-0.308 -0.495,-0.715 -0.495,-1.221c0,-0.484 0.165,-0.88 0.495,-1.188c0.33,-0.308 0.759,-0.462 1.287,-0.462c0.528,0 0.957,0.154 1.287,0.462c0.33,0.308 0.495,0.704 0.495,1.188c0,0.506 -0.165,0.913 -0.495,1.221c-0.33,0.308 -0.759,0.462 -1.287,0.462Z" style="fill-rule:nonzero;"/><path d="M128.855,8.533c3.85,0 5.775,2.123 5.775,6.369l0,8.943c0,0.418 -0.115,0.742 -0.346,0.974c-0.231,0.23 -0.556,0.346 -0.974,0.346c-0.418,0 -0.748,-0.116 -0.99,-0.346c-0.242,-0.232 -0.363,-0.556 -0.363,-0.974l0,-8.778c0,-1.496 -0.291,-2.585 -0.874,-3.267c-0.583,-0.682 -1.513,-1.023 -2.789,-1.023c-1.474,0 -2.651,0.451 -3.531,1.353c-0.88,0.902 -1.32,2.123 -1.32,3.663l0,8.052c0,0.418 -0.116,0.742 -0.347,0.974c-0.231,0.23 -0.555,0.346 -0.973,0.346c-0.418,0 -0.748,-0.116 -0.99,-0.346c-0.242,-0.232 -0.363,-0.556 -0.363,-0.974l0,-13.926c0,-0.396 0.121,-0.715 0.363,-0.957c0.242,-0.242 0.572,-0.363 0.99,-0.363c0.396,0 0.709,0.121 0.94,0.363c0.231,0.242 0.347,0.55 0.347,0.924l0,1.683c0.528,-0.99 1.265,-1.743 2.211,-2.26c0.946,-0.517 2.024,-0.776 3.234,-0.776Z" style="fill-rule:nonzero;"/><path d="M140.867,25.165c-0.396,0 -0.721,-0.116 -0.974,-0.346c-0.253,-0.232 -0.379,-0.556 -0.379,-0.974l0,-13.926c0,-0.418 0.126,-0.742 0.379,-0.973c0.253,-0.231 0.578,-0.347 0.974,-0.347c0.396,0 0.715,0.116 0.957,0.347c0.242,0.231 0.363,0.555 0.363,0.973l0,13.926c0,0.44 -0.121,0.77 -0.363,0.99c-0.242,0.22 -0.561,0.33 -0.957,0.33Zm0,-20.031c-0.528,0 -0.957,-0.154 -1.287,-0.462c-0.33,-0.308 -0.495,-0.715 -0.495,-1.221c0,-0.484 0.165,-0.88 0.495,-1.188c0.33,-0.308 0.759,-0.462 1.287,-0.462c0.528,0 0.957,0.154 1.287,0.462c0.33,0.308 0.495,0.704 0.495,1.188c0,0.506 -0.165,0.913 -0.495,1.221c-0.33,0.308 -0.759,0.462 -1.287,0.462Z" style="fill-rule:nonzero;"/><path d="M154.595,23.053c0.77,0.066 1.155,0.418 1.155,1.056c0,0.374 -0.138,0.654 -0.412,0.841c-0.275,0.187 -0.688,0.259 -1.238,0.215l-0.891,-0.066c-1.76,-0.132 -3.058,-0.66 -3.894,-1.584c-0.836,-0.924 -1.254,-2.321 -1.254,-4.191l0,-8.283l-2.211,0c-0.374,0 -0.666,-0.094 -0.875,-0.281c-0.209,-0.187 -0.313,-0.434 -0.313,-0.742c0,-0.33 0.104,-0.594 0.313,-0.792c0.209,-0.198 0.501,-0.297 0.875,-0.297l2.211,0l0,-3.729c0,-0.418 0.121,-0.743 0.363,-0.974c0.242,-0.231 0.572,-0.346 0.99,-0.346c0.396,0 0.715,0.115 0.957,0.346c0.242,0.231 0.363,0.556 0.363,0.974l0,3.729l3.663,0c0.352,0 0.632,0.099 0.841,0.297c0.209,0.198 0.314,0.462 0.314,0.792c0,0.308 -0.105,0.555 -0.314,0.742c-0.209,0.187 -0.489,0.281 -0.841,0.281l-3.663,0l0,8.415c0,1.21 0.247,2.084 0.742,2.623c0.495,0.539 1.238,0.842 2.228,0.908l0.891,0.066Z" style="fill-rule:nonzero;"/><path d="M159.743,25.165c-0.396,0 -0.721,-0.116 -0.974,-0.346c-0.253,-0.232 -0.379,-0.556 -0.379,-0.974l0,-13.926c0,-0.418 0.126,-0.742 0.379,-0.973c0.253,-0.231 0.578,-0.347 0.974,-0.347c0.396,0 0.715,0.116 0.957,0.347c0.242,0.231 0.363,0.555 0.363,0.973l0,13.926c0,0.44 -0.121,0.77 -0.363,0.99c-0.242,0.22 -0.561,0.33 -0.957,0.33Zm0,-20.031c-0.528,0 -0.957,-0.154 -1.287,-0.462c-0.33,-0.308 -0.495,-0.715 -0.495,-1.221c0,-0.484 0.165,-0.88 0.495,-1.188c0.33,-0.308 0.759,-0.462 1.287,-0.462c0.528,0 0.957,0.154 1.287,0.462c0.33,0.308 0.495,0.704 0.495,1.188c0,0.506 -0.165,0.913 -0.495,1.221c-0.33,0.308 -0.759,0.462 -1.287,0.462Z" style="fill-rule:nonzero;"/><path d="M172.613,8.533c4.026,0 6.039,2.112 6.039,6.336l0,8.976c0,0.396 -0.115,0.715 -0.346,0.957c-0.231,0.242 -0.545,0.363 -0.941,0.363c-0.396,0 -0.715,-0.121 -0.957,-0.363c-0.242,-0.242 -0.363,-0.561 -0.363,-0.957l0,-1.584c-0.418,0.946 -1.056,1.678 -1.914,2.195c-0.858,0.517 -1.848,0.775 -2.97,0.775c-1.034,0 -1.986,-0.209 -2.855,-0.627c-0.869,-0.418 -1.556,-1.001 -2.062,-1.749c-0.506,-0.748 -0.759,-1.573 -0.759,-2.475c0,-1.21 0.308,-2.151 0.924,-2.822c0.616,-0.671 1.628,-1.154 3.036,-1.452c1.408,-0.297 3.366,-0.445 5.874,-0.445l0.726,0l0,-1.089c0,-1.32 -0.27,-2.288 -0.809,-2.904c-0.539,-0.616 -1.413,-0.924 -2.623,-0.924c-1.496,0 -3.014,0.407 -4.554,1.221c-0.594,0.374 -1.012,0.561 -1.254,0.561c-0.264,0 -0.484,-0.099 -0.66,-0.297c-0.176,-0.198 -0.264,-0.451 -0.264,-0.759c0,-0.308 0.093,-0.578 0.28,-0.809c0.187,-0.231 0.49,-0.467 0.908,-0.709c0.77,-0.44 1.644,-0.787 2.623,-1.04c0.98,-0.253 1.953,-0.379 2.921,-0.379Zm-1.089,14.586c1.32,0 2.404,-0.446 3.25,-1.337c0.847,-0.891 1.271,-2.04 1.271,-3.448l0,-0.957l-0.594,0c-1.936,0 -3.41,0.082 -4.422,0.247c-1.012,0.165 -1.732,0.44 -2.161,0.825c-0.429,0.385 -0.644,0.952 -0.644,1.7c0,0.858 0.314,1.567 0.941,2.128c0.626,0.561 1.413,0.842 2.359,0.842Z" style="fill-rule:nonzero;"/><path d="M190.961,23.053c0.77,0.066 1.155,0.418 1.155,1.056c0,0.374 -0.138,0.654 -0.412,0.841c-0.275,0.187 -0.688,0.259 -1.238,0.215l-0.891,-0.066c-1.76,-0.132 -3.058,-0.66 -3.894,-1.584c-0.836,-0.924 -1.254,-2.321 -1.254,-4.191l0,-8.283l-2.211,0c-0.374,0 -0.666,-0.094 -0.875,-0.281c-0.209,-0.187 -0.313,-0.434 -0.313,-0.742c0,-0.33 0.104,-0.594 0.313,-0.792c0.209,-0.198 0.501,-0.297 0.875,-0.297l2.211,0l0,-3.729c0,-0.418 0.121,-0.743 0.363,-0.974c0.242,-0.231 0.572,-0.346 0.99,-0.346c0.396,0 0.715,0.115 0.957,0.346c0.242,0.231 0.363,0.556 0.363,0.974l0,3.729l3.663,0c0.352,0 0.632,0.099 0.841,0.297c0.209,0.198 0.314,0.462 0.314,0.792c0,0.308 -0.105,0.555 -0.314,0.742c-0.209,0.187 -0.489,0.281 -0.841,0.281l-3.663,0l0,8.415c0,1.21 0.247,2.084 0.742,2.623c0.495,0.539 1.238,0.842 2.228,0.908l0.891,0.066Z" style="fill-rule:nonzero;"/><path d="M207.197,21.271c0.242,0 0.451,0.099 0.627,0.297c0.176,0.198 0.264,0.451 0.264,0.759c0,0.55 -0.385,1.056 -1.155,1.518c-0.792,0.462 -1.628,0.808 -2.508,1.039c-0.88,0.231 -1.738,0.347 -2.574,0.347c-2.486,0 -4.45,-0.737 -5.891,-2.211c-1.441,-1.474 -2.161,-3.509 -2.161,-6.105c0,-1.65 0.319,-3.108 0.957,-4.373c0.638,-1.265 1.535,-2.249 2.69,-2.953c1.155,-0.704 2.469,-1.056 3.943,-1.056c2.09,0 3.751,0.682 4.983,2.046c1.232,1.364 1.848,3.212 1.848,5.544c0,0.44 -0.088,0.759 -0.264,0.957c-0.176,0.198 -0.462,0.297 -0.858,0.297l-10.626,0c0.198,3.784 1.991,5.676 5.379,5.676c0.858,0 1.595,-0.116 2.211,-0.347c0.616,-0.231 1.276,-0.544 1.98,-0.94c0.572,-0.33 0.957,-0.495 1.155,-0.495Zm-5.775,-10.659c-1.408,0 -2.535,0.44 -3.382,1.32c-0.847,0.88 -1.348,2.123 -1.502,3.729l9.339,0c-0.044,-1.628 -0.451,-2.877 -1.221,-3.746c-0.77,-0.869 -1.848,-1.303 -3.234,-1.303Z" style="fill-rule:nonzero;"/><path d="M217.559,25.231c-1.012,0 -1.975,-0.121 -2.887,-0.363c-0.913,-0.242 -1.722,-0.583 -2.426,-1.023c-0.396,-0.264 -0.677,-0.512 -0.842,-0.743c-0.165,-0.231 -0.247,-0.511 -0.247,-0.841c0,-0.286 0.083,-0.523 0.248,-0.71c0.165,-0.187 0.379,-0.28 0.643,-0.28c0.264,0 0.649,0.165 1.155,0.495c0.66,0.396 1.315,0.709 1.964,0.94c0.649,0.231 1.457,0.347 2.425,0.347c1.188,0 2.112,-0.209 2.772,-0.627c0.66,-0.418 0.99,-1.023 0.99,-1.815c0,-0.484 -0.121,-0.875 -0.363,-1.172c-0.242,-0.297 -0.66,-0.561 -1.254,-0.792c-0.594,-0.231 -1.463,-0.467 -2.607,-0.709c-1.936,-0.418 -3.322,-0.979 -4.158,-1.683c-0.836,-0.704 -1.254,-1.661 -1.254,-2.871c0,-0.946 0.264,-1.782 0.792,-2.508c0.528,-0.726 1.259,-1.298 2.194,-1.716c0.935,-0.418 1.997,-0.627 3.185,-0.627c0.858,0 1.688,0.115 2.491,0.346c0.803,0.231 1.513,0.556 2.129,0.974c0.748,0.528 1.122,1.078 1.122,1.65c0,0.286 -0.088,0.528 -0.264,0.726c-0.176,0.198 -0.385,0.297 -0.627,0.297c-0.264,0 -0.66,-0.187 -1.188,-0.561c-0.616,-0.396 -1.199,-0.704 -1.749,-0.924c-0.55,-0.22 -1.232,-0.33 -2.046,-0.33c-1.034,0 -1.865,0.231 -2.492,0.693c-0.627,0.462 -0.94,1.078 -0.94,1.848c0,0.484 0.115,0.874 0.346,1.171c0.231,0.297 0.616,0.561 1.155,0.792c0.539,0.231 1.315,0.457 2.327,0.677c1.496,0.33 2.656,0.693 3.481,1.089c0.825,0.396 1.414,0.88 1.766,1.452c0.352,0.572 0.528,1.298 0.528,2.178c0,1.386 -0.583,2.502 -1.749,3.349c-1.166,0.848 -2.706,1.271 -4.62,1.271Z" style="fill-rule:nonzero;"/><path d="M243.893,25.165c-0.418,0 -0.754,-0.127 -1.006,-0.38c-0.254,-0.253 -0.38,-0.588 -0.38,-1.006l0,-19.734l-7.095,0c-0.396,0 -0.704,-0.099 -0.924,-0.297c-0.22,-0.198 -0.33,-0.484 -0.33,-0.858c0,-0.374 0.11,-0.66 0.33,-0.858c0.22,-0.198 0.528,-0.297 0.924,-0.297l16.929,0c0.396,0 0.704,0.099 0.924,0.297c0.22,0.198 0.33,0.484 0.33,0.858c0,0.374 -0.11,0.66 -0.33,0.858c-0.22,0.198 -0.528,0.297 -0.924,0.297l-7.095,0l0,19.734c0,0.418 -0.121,0.753 -0.363,1.006c-0.242,0.253 -0.572,0.38 -0.99,0.38Z" style="fill-rule:nonzero;"/><path d="M257.951,25c-0.374,0 -0.688,-0.116 -0.94,-0.346c-0.254,-0.232 -0.38,-0.534 -0.38,-0.908l0,-20.79c0,-0.418 0.121,-0.754 0.363,-1.006c0.242,-0.254 0.572,-0.38 0.99,-0.38c0.418,0 0.748,0.126 0.99,0.38c0.242,0.252 0.363,0.588 0.363,1.006l0,19.734l10.659,0c0.396,0 0.704,0.099 0.924,0.297c0.22,0.198 0.33,0.484 0.33,0.858c0,0.374 -0.11,0.66 -0.33,0.858c-0.22,0.198 -0.528,0.297 -0.924,0.297l-12.045,0Z" style="fill-rule:nonzero;"/><path d="M281.315,25.264c-1.65,0 -3.228,-0.247 -4.736,-0.742c-1.507,-0.495 -2.711,-1.161 -3.613,-1.997c-0.33,-0.308 -0.495,-0.693 -0.495,-1.155c0,-0.308 0.088,-0.577 0.264,-0.808c0.176,-0.231 0.385,-0.347 0.627,-0.347c0.286,0 0.594,0.121 0.924,0.363c2.046,1.584 4.378,2.376 6.996,2.376c1.892,0 3.344,-0.363 4.356,-1.089c1.012,-0.726 1.518,-1.76 1.518,-3.102c0,-0.77 -0.242,-1.391 -0.726,-1.864c-0.484,-0.473 -1.122,-0.853 -1.914,-1.139c-0.792,-0.286 -1.859,-0.583 -3.201,-0.891c-1.804,-0.418 -3.283,-0.858 -4.438,-1.32c-1.155,-0.462 -2.09,-1.122 -2.805,-1.98c-0.715,-0.858 -1.073,-1.98 -1.073,-3.366c0,-1.32 0.358,-2.492 1.073,-3.515c0.715,-1.022 1.716,-1.814 3.003,-2.375c1.287,-0.561 2.755,-0.842 4.405,-0.842c1.54,0 2.976,0.237 4.307,0.71c1.331,0.472 2.447,1.149 3.349,2.029c0.352,0.352 0.528,0.737 0.528,1.155c0,0.308 -0.088,0.578 -0.264,0.809c-0.176,0.231 -0.385,0.346 -0.627,0.346c-0.242,0 -0.561,-0.121 -0.957,-0.363c-1.078,-0.88 -2.079,-1.496 -3.003,-1.848c-0.924,-0.352 -2.035,-0.528 -3.333,-0.528c-1.826,0 -3.245,0.38 -4.257,1.139c-1.012,0.759 -1.518,1.82 -1.518,3.184c0,1.166 0.446,2.041 1.337,2.624c0.891,0.582 2.26,1.094 4.108,1.534c2.002,0.484 3.575,0.929 4.719,1.336c1.144,0.407 2.096,1.018 2.855,1.832c0.759,0.814 1.138,1.903 1.138,3.267c0,1.298 -0.357,2.442 -1.072,3.432c-0.715,0.99 -1.722,1.76 -3.02,2.31c-1.298,0.55 -2.783,0.825 -4.455,0.825Z" style="fill-rule:nonzero;"/><path d="M293.393,26.188c-0.088,0.286 -0.231,0.506 -0.429,0.66c-0.198,0.154 -0.418,0.231 -0.66,0.231c-0.308,0 -0.583,-0.11 -0.825,-0.33c-0.242,-0.22 -0.363,-0.495 -0.363,-0.825c0,-0.132 0.033,-0.286 0.099,-0.462l7.788,-24.354c0.088,-0.286 0.231,-0.506 0.429,-0.66c0.198,-0.154 0.418,-0.231 0.66,-0.231c0.308,0 0.583,0.11 0.825,0.33c0.242,0.22 0.363,0.506 0.363,0.858c0,0.066 -0.022,0.209 -0.066,0.429l-7.821,24.354Z" style="fill-rule:nonzero;"/><path d="M311.18,25.264c-1.65,0 -3.228,-0.247 -4.736,-0.742c-1.507,-0.495 -2.711,-1.161 -3.613,-1.997c-0.33,-0.308 -0.495,-0.693 -0.495,-1.155c0,-0.308 0.088,-0.577 0.264,-0.808c0.176,-0.231 0.385,-0.347 0.627,-0.347c0.286,0 0.594,0.121 0.924,0.363c2.046,1.584 4.378,2.376 6.996,2.376c1.892,0 3.344,-0.363 4.356,-1.089c1.012,-0.726 1.518,-1.76 1.518,-3.102c0,-0.77 -0.242,-1.391 -0.726,-1.864c-0.484,-0.473 -1.122,-0.853 -1.914,-1.139c-0.792,-0.286 -1.859,-0.583 -3.201,-0.891c-1.804,-0.418 -3.283,-0.858 -4.438,-1.32c-1.155,-0.462 -2.09,-1.122 -2.805,-1.98c-0.715,-0.858 -1.073,-1.98 -1.073,-3.366c0,-1.32 0.358,-2.492 1.073,-3.515c0.715,-1.022 1.716,-1.814 3.003,-2.375c1.287,-0.561 2.755,-0.842 4.405,-0.842c1.54,0 2.976,0.237 4.307,0.71c1.331,0.472 2.447,1.149 3.349,2.029c0.352,0.352 0.528,0.737 0.528,1.155c0,0.308 -0.088,0.578 -0.264,0.809c-0.176,0.231 -0.385,0.346 -0.627,0.346c-0.242,0 -0.561,-0.121 -0.957,-0.363c-1.078,-0.88 -2.079,-1.496 -3.003,-1.848c-0.924,-0.352 -2.035,-0.528 -3.333,-0.528c-1.826,0 -3.245,0.38 -4.257,1.139c-1.012,0.759 -1.518,1.82 -1.518,3.184c0,1.166 0.446,2.041 1.337,2.624c0.891,0.582 2.26,1.094 4.108,1.534c2.002,0.484 3.575,0.929 4.719,1.336c1.144,0.407 2.096,1.018 2.855,1.832c0.759,0.814 1.138,1.903 1.138,3.267c0,1.298 -0.357,2.442 -1.072,3.432c-0.715,0.99 -1.722,1.76 -3.02,2.31c-1.298,0.55 -2.783,0.825 -4.455,0.825Z" style="fill-rule:nonzero;"/><path d="M331.541,25.264c-1.65,0 -3.228,-0.247 -4.736,-0.742c-1.507,-0.495 -2.711,-1.161 -3.613,-1.997c-0.33,-0.308 -0.495,-0.693 -0.495,-1.155c0,-0.308 0.088,-0.577 0.264,-0.808c0.176,-0.231 0.385,-0.347 0.627,-0.347c0.286,0 0.594,0.121 0.924,0.363c2.046,1.584 4.378,2.376 6.996,2.376c1.892,0 3.344,-0.363 4.356,-1.089c1.012,-0.726 1.518,-1.76 1.518,-3.102c0,-0.77 -0.242,-1.391 -0.726,-1.864c-0.484,-0.473 -1.122,-0.853 -1.914,-1.139c-0.792,-0.286 -1.859,-0.583 -3.201,-0.891c-1.804,-0.418 -3.283,-0.858 -4.438,-1.32c-1.155,-0.462 -2.09,-1.122 -2.805,-1.98c-0.715,-0.858 -1.073,-1.98 -1.073,-3.366c0,-1.32 0.358,-2.492 1.073,-3.515c0.715,-1.022 1.716,-1.814 3.003,-2.375c1.287,-0.561 2.755,-0.842 4.405,-0.842c1.54,0 2.976,0.237 4.307,0.71c1.331,0.472 2.447,1.149 3.349,2.029c0.352,0.352 0.528,0.737 0.528,1.155c0,0.308 -0.088,0.578 -0.264,0.809c-0.176,0.231 -0.385,0.346 -0.627,0.346c-0.242,0 -0.561,-0.121 -0.957,-0.363c-1.078,-0.88 -2.079,-1.496 -3.003,-1.848c-0.924,-0.352 -2.035,-0.528 -3.333,-0.528c-1.826,0 -3.245,0.38 -4.257,1.139c-1.012,0.759 -1.518,1.82 -1.518,3.184c0,1.166 0.446,2.041 1.337,2.624c0.891,0.582 2.26,1.094 4.108,1.534c2.002,0.484 3.575,0.929 4.719,1.336c1.144,0.407 2.096,1.018 2.855,1.832c0.759,0.814 1.138,1.903 1.138,3.267c0,1.298 -0.357,2.442 -1.072,3.432c-0.715,0.99 -1.722,1.76 -3.02,2.31c-1.298,0.55 -2.783,0.825 -4.455,0.825Z" style="fill-rule:nonzero;"/><path d="M345.797,25c-0.374,0 -0.688,-0.116 -0.941,-0.346c-0.253,-0.232 -0.379,-0.534 -0.379,-0.908l0,-20.79c0,-0.418 0.121,-0.754 0.363,-1.006c0.242,-0.254 0.572,-0.38 0.99,-0.38c0.418,0 0.748,0.126 0.99,0.38c0.242,0.252 0.363,0.588 0.363,1.006l0,19.734l10.659,0c0.396,0 0.704,0.099 0.924,0.297c0.22,0.198 0.33,0.484 0.33,0.858c0,0.374 -0.11,0.66 -0.33,0.858c-0.22,0.198 -0.528,0.297 -0.924,0.297l-12.045,0Z" style="fill-rule:nonzero;"/><path d="M378.533,8.533c1.892,0 3.322,0.533 4.29,1.601c0.968,1.066 1.452,2.656 1.452,4.768l0,8.943c0,0.418 -0.121,0.742 -0.363,0.974c-0.242,0.23 -0.561,0.346 -0.957,0.346c-0.418,0 -0.748,-0.116 -0.99,-0.346c-0.242,-0.232 -0.363,-0.556 -0.363,-0.974l0,-8.877c0,-1.43 -0.292,-2.486 -0.875,-3.168c-0.583,-0.682 -1.512,-1.023 -2.788,-1.023c-1.474,0 -2.651,0.451 -3.531,1.353c-0.88,0.902 -1.32,2.123 -1.32,3.663l0,8.052c0,0.418 -0.115,0.742 -0.347,0.974c-0.231,0.23 -0.555,0.346 -0.973,0.346c-0.418,0 -0.748,-0.116 -0.99,-0.346c-0.242,-0.232 -0.363,-0.556 -0.363,-0.974l0,-20.988c0,-0.374 0.126,-0.682 0.379,-0.924c0.253,-0.242 0.578,-0.363 0.974,-0.363c0.418,0 0.742,0.116 0.973,0.346c0.231,0.232 0.347,0.545 0.347,0.941l0,8.646c0.528,-0.968 1.265,-1.705 2.211,-2.211c0.946,-0.506 2.024,-0.759 3.234,-0.759Z" style="fill-rule:nonzero;"/><path d="M395.726,8.533c4.026,0 6.039,2.112 6.039,6.336l0,8.976c0,0.396 -0.115,0.715 -0.346,0.957c-0.232,0.242 -0.545,0.363 -0.941,0.363c-0.396,0 -0.715,-0.121 -0.957,-0.363c-0.242,-0.242 -0.363,-0.561 -0.363,-0.957l0,-1.584c-0.418,0.946 -1.056,1.678 -1.914,2.195c-0.858,0.517 -1.848,0.775 -2.97,0.775c-1.034,0 -1.986,-0.209 -2.855,-0.627c-0.869,-0.418 -1.556,-1.001 -2.062,-1.749c-0.506,-0.748 -0.759,-1.573 -0.759,-2.475c0,-1.21 0.308,-2.151 0.924,-2.822c0.616,-0.671 1.628,-1.154 3.036,-1.452c1.408,-0.297 3.366,-0.445 5.874,-0.445l0.726,0l0,-1.089c0,-1.32 -0.269,-2.288 -0.808,-2.904c-0.539,-0.616 -1.414,-0.924 -2.624,-0.924c-1.496,0 -3.014,0.407 -4.554,1.221c-0.594,0.374 -1.012,0.561 -1.254,0.561c-0.264,0 -0.484,-0.099 -0.66,-0.297c-0.176,-0.198 -0.264,-0.451 -0.264,-0.759c0,-0.308 0.094,-0.578 0.281,-0.809c0.187,-0.231 0.489,-0.467 0.907,-0.709c0.77,-0.44 1.645,-0.787 2.624,-1.04c0.979,-0.253 1.952,-0.379 2.92,-0.379Zm-1.089,14.586c1.32,0 2.404,-0.446 3.251,-1.337c0.847,-0.891 1.27,-2.04 1.27,-3.448l0,-0.957l-0.594,0c-1.936,0 -3.41,0.082 -4.422,0.247c-1.012,0.165 -1.732,0.44 -2.161,0.825c-0.429,0.385 -0.644,0.952 -0.644,1.7c0,0.858 0.314,1.567 0.941,2.128c0.627,0.561 1.413,0.842 2.359,0.842Z" style="fill-rule:nonzero;"/><path d="M414.734,8.533c3.85,0 5.775,2.123 5.775,6.369l0,8.943c0,0.418 -0.115,0.742 -0.346,0.974c-0.231,0.23 -0.556,0.346 -0.974,0.346c-0.418,0 -0.748,-0.116 -0.99,-0.346c-0.242,-0.232 -0.363,-0.556 -0.363,-0.974l0,-8.778c0,-1.496 -0.291,-2.585 -0.874,-3.267c-0.583,-0.682 -1.513,-1.023 -2.789,-1.023c-1.474,0 -2.651,0.451 -3.531,1.353c-0.88,0.902 -1.32,2.123 -1.32,3.663l0,8.052c0,0.418 -0.115,0.742 -0.346,0.974c-0.231,0.23 -0.556,0.346 -0.974,0.346c-0.418,0 -0.748,-0.116 -0.99,-0.346c-0.242,-0.232 -0.363,-0.556 -0.363,-0.974l0,-13.926c0,-0.396 0.121,-0.715 0.363,-0.957c0.242,-0.242 0.572,-0.363 0.99,-0.363c0.396,0 0.71,0.121 0.941,0.363c0.231,0.242 0.346,0.55 0.346,0.924l0,1.683c0.528,-0.99 1.265,-1.743 2.211,-2.26c0.946,-0.517 2.024,-0.776 3.234,-0.776Z" style="fill-rule:nonzero;"/><path d="M438.296,1.57c0.418,0 0.748,0.121 0.99,0.363c0.242,0.242 0.363,0.55 0.363,0.924l0,20.988c0,0.396 -0.121,0.715 -0.363,0.957c-0.242,0.242 -0.572,0.363 -0.99,0.363c-0.418,0 -0.743,-0.121 -0.974,-0.363c-0.231,-0.242 -0.346,-0.561 -0.346,-0.957l0,-1.782c-0.484,1.012 -1.193,1.793 -2.128,2.343c-0.935,0.55 -2.03,0.825 -3.284,0.825c-1.408,0 -2.651,-0.352 -3.729,-1.056c-1.078,-0.704 -1.914,-1.688 -2.508,-2.953c-0.594,-1.265 -0.891,-2.734 -0.891,-4.406c0,-1.65 0.297,-3.102 0.891,-4.356c0.594,-1.254 1.43,-2.222 2.508,-2.904c1.078,-0.682 2.321,-1.023 3.729,-1.023c1.254,0 2.349,0.275 3.284,0.825c0.935,0.55 1.644,1.331 2.128,2.343l0,-8.844c0,-0.396 0.115,-0.709 0.346,-0.941c0.231,-0.23 0.556,-0.346 0.974,-0.346Zm-6.204,21.45c1.562,0 2.767,-0.534 3.614,-1.601c0.847,-1.067 1.27,-2.579 1.27,-4.537c0,-1.958 -0.423,-3.465 -1.27,-4.521c-0.847,-1.056 -2.052,-1.584 -3.614,-1.584c-1.562,0 -2.777,0.528 -3.647,1.584c-0.868,1.056 -1.303,2.541 -1.303,4.455c0,1.958 0.435,3.481 1.303,4.57c0.87,1.089 2.085,1.634 3.647,1.634Z" style="fill-rule:nonzero;"/><path d="M450.011,25.231c-1.012,0 -1.974,-0.121 -2.887,-0.363c-0.913,-0.242 -1.722,-0.583 -2.426,-1.023c-0.396,-0.264 -0.677,-0.512 -0.841,-0.743c-0.166,-0.231 -0.248,-0.511 -0.248,-0.841c0,-0.286 0.082,-0.523 0.248,-0.71c0.164,-0.187 0.379,-0.28 0.643,-0.28c0.264,0 0.649,0.165 1.155,0.495c0.66,0.396 1.315,0.709 1.964,0.94c0.649,0.231 1.457,0.347 2.425,0.347c1.188,0 2.112,-0.209 2.772,-0.627c0.66,-0.418 0.99,-1.023 0.99,-1.815c0,-0.484 -0.121,-0.875 -0.363,-1.172c-0.242,-0.297 -0.66,-0.561 -1.254,-0.792c-0.594,-0.231 -1.463,-0.467 -2.607,-0.709c-1.936,-0.418 -3.322,-0.979 -4.158,-1.683c-0.836,-0.704 -1.254,-1.661 -1.254,-2.871c0,-0.946 0.264,-1.782 0.792,-2.508c0.528,-0.726 1.26,-1.298 2.195,-1.716c0.935,-0.418 1.996,-0.627 3.184,-0.627c0.858,0 1.689,0.115 2.492,0.346c0.803,0.231 1.512,0.556 2.128,0.974c0.748,0.528 1.122,1.078 1.122,1.65c0,0.286 -0.088,0.528 -0.264,0.726c-0.176,0.198 -0.385,0.297 -0.627,0.297c-0.264,0 -0.66,-0.187 -1.188,-0.561c-0.616,-0.396 -1.199,-0.704 -1.749,-0.924c-0.55,-0.22 -1.232,-0.33 -2.046,-0.33c-1.034,0 -1.864,0.231 -2.491,0.693c-0.627,0.462 -0.941,1.078 -0.941,1.848c0,0.484 0.116,0.874 0.347,1.171c0.231,0.297 0.616,0.561 1.155,0.792c0.539,0.231 1.314,0.457 2.326,0.677c1.496,0.33 2.657,0.693 3.482,1.089c0.825,0.396 1.413,0.88 1.765,1.452c0.352,0.572 0.528,1.298 0.528,2.178c0,1.386 -0.583,2.502 -1.749,3.349c-1.166,0.848 -2.706,1.271 -4.62,1.271Z" style="fill-rule:nonzero;"/><path d="M468.557,8.533c1.892,0 3.322,0.533 4.29,1.601c0.968,1.066 1.452,2.656 1.452,4.768l0,8.943c0,0.418 -0.121,0.742 -0.363,0.974c-0.242,0.23 -0.561,0.346 -0.957,0.346c-0.418,0 -0.748,-0.116 -0.99,-0.346c-0.242,-0.232 -0.363,-0.556 -0.363,-0.974l0,-8.877c0,-1.43 -0.292,-2.486 -0.875,-3.168c-0.583,-0.682 -1.512,-1.023 -2.788,-1.023c-1.474,0 -2.651,0.451 -3.531,1.353c-0.88,0.902 -1.32,2.123 -1.32,3.663l0,8.052c0,0.418 -0.115,0.742 -0.347,0.974c-0.231,0.23 -0.555,0.346 -0.973,0.346c-0.418,0 -0.748,-0.116 -0.99,-0.346c-0.242,-0.232 -0.363,-0.556 -0.363,-0.974l0,-20.988c0,-0.374 0.126,-0.682 0.379,-0.924c0.253,-0.242 0.578,-0.363 0.974,-0.363c0.418,0 0.742,0.116 0.973,0.346c0.231,0.232 0.347,0.545 0.347,0.941l0,8.646c0.528,-0.968 1.265,-1.705 2.211,-2.211c0.946,-0.506 2.024,-0.759 3.234,-0.759Z" style="fill-rule:nonzero;"/><path d="M485.75,8.533c4.026,0 6.039,2.112 6.039,6.336l0,8.976c0,0.396 -0.115,0.715 -0.346,0.957c-0.232,0.242 -0.545,0.363 -0.941,0.363c-0.396,0 -0.715,-0.121 -0.957,-0.363c-0.242,-0.242 -0.363,-0.561 -0.363,-0.957l0,-1.584c-0.418,0.946 -1.056,1.678 -1.914,2.195c-0.858,0.517 -1.848,0.775 -2.97,0.775c-1.034,0 -1.986,-0.209 -2.855,-0.627c-0.869,-0.418 -1.556,-1.001 -2.062,-1.749c-0.506,-0.748 -0.759,-1.573 -0.759,-2.475c0,-1.21 0.308,-2.151 0.924,-2.822c0.616,-0.671 1.628,-1.154 3.036,-1.452c1.408,-0.297 3.366,-0.445 5.874,-0.445l0.726,0l0,-1.089c0,-1.32 -0.269,-2.288 -0.808,-2.904c-0.539,-0.616 -1.414,-0.924 -2.624,-0.924c-1.496,0 -3.014,0.407 -4.554,1.221c-0.594,0.374 -1.012,0.561 -1.254,0.561c-0.264,0 -0.484,-0.099 -0.66,-0.297c-0.176,-0.198 -0.264,-0.451 -0.264,-0.759c0,-0.308 0.094,-0.578 0.281,-0.809c0.187,-0.231 0.489,-0.467 0.907,-0.709c0.77,-0.44 1.645,-0.787 2.624,-1.04c0.979,-0.253 1.952,-0.379 2.92,-0.379Zm-1.089,14.586c1.32,0 2.404,-0.446 3.251,-1.337c0.847,-0.891 1.27,-2.04 1.27,-3.448l0,-0.957l-0.594,0c-1.936,0 -3.41,0.082 -4.422,0.247c-1.012,0.165 -1.732,0.44 -2.161,0.825c-0.429,0.385 -0.644,0.952 -0.644,1.7c0,0.858 0.314,1.567 0.941,2.128c0.627,0.561 1.413,0.842 2.359,0.842Z" style="fill-rule:nonzero;"/><path d="M509.51,22.888c0.352,0.33 0.528,0.682 0.528,1.056c0,0.33 -0.116,0.616 -0.347,0.858c-0.231,0.242 -0.511,0.363 -0.841,0.363c-0.286,0 -0.583,-0.132 -0.891,-0.396l-8.613,-7.425l0,6.501c0,0.418 -0.127,0.742 -0.38,0.973c-0.253,0.231 -0.566,0.347 -0.94,0.347c-0.396,0 -0.721,-0.116 -0.974,-0.347c-0.253,-0.231 -0.379,-0.555 -0.379,-0.973l0,-20.955c0,-0.418 0.126,-0.742 0.379,-0.974c0.253,-0.23 0.578,-0.346 0.974,-0.346c0.374,0 0.687,0.116 0.94,0.346c0.253,0.232 0.38,0.556 0.38,0.974l0,13.398l7.887,-7.227c0.264,-0.264 0.561,-0.396 0.891,-0.396c0.33,0 0.616,0.121 0.858,0.363c0.242,0.242 0.363,0.528 0.363,0.858c0,0.374 -0.154,0.704 -0.462,0.99l-6.501,5.808l7.128,6.204Z" style="fill-rule:nonzero;"/><path d="M525.317,21.271c0.242,0 0.451,0.099 0.627,0.297c0.176,0.198 0.264,0.451 0.264,0.759c0,0.55 -0.385,1.056 -1.155,1.518c-0.792,0.462 -1.628,0.808 -2.508,1.039c-0.88,0.231 -1.738,0.347 -2.574,0.347c-2.486,0 -4.45,-0.737 -5.891,-2.211c-1.441,-1.474 -2.161,-3.509 -2.161,-6.105c0,-1.65 0.319,-3.108 0.957,-4.373c0.638,-1.265 1.534,-2.249 2.689,-2.953c1.155,-0.704 2.47,-1.056 3.944,-1.056c2.09,0 3.751,0.682 4.983,2.046c1.232,1.364 1.848,3.212 1.848,5.544c0,0.44 -0.088,0.759 -0.264,0.957c-0.176,0.198 -0.462,0.297 -0.858,0.297l-10.626,0c0.198,3.784 1.991,5.676 5.379,5.676c0.858,0 1.595,-0.116 2.211,-0.347c0.616,-0.231 1.276,-0.544 1.98,-0.94c0.572,-0.33 0.957,-0.495 1.155,-0.495Zm-5.775,-10.659c-1.408,0 -2.536,0.44 -3.383,1.32c-0.846,0.88 -1.347,2.123 -1.501,3.729l9.339,0c-0.044,-1.628 -0.451,-2.877 -1.221,-3.746c-0.77,-0.869 -1.848,-1.303 -3.234,-1.303Z" style="fill-rule:nonzero;"/><path d="M560.759,9.457c0.22,-0.528 0.583,-0.792 1.089,-0.792c0.33,0 0.627,0.11 0.891,0.33c0.264,0.22 0.396,0.495 0.396,0.825c0,0.154 -0.033,0.319 -0.099,0.495l-5.478,13.86c-0.132,0.286 -0.325,0.512 -0.578,0.677c-0.253,0.165 -0.533,0.247 -0.841,0.247c-0.286,0 -0.556,-0.082 -0.809,-0.247c-0.253,-0.165 -0.445,-0.391 -0.577,-0.677l-4.554,-11.583l-4.521,11.583c-0.11,0.286 -0.297,0.512 -0.561,0.677c-0.264,0.165 -0.55,0.247 -0.858,0.247c-0.286,0 -0.561,-0.082 -0.825,-0.247c-0.264,-0.165 -0.462,-0.391 -0.594,-0.677l-5.478,-13.827c-0.066,-0.176 -0.099,-0.33 -0.099,-0.462c0,-0.352 0.148,-0.649 0.445,-0.891c0.297,-0.242 0.622,-0.363 0.974,-0.363c0.528,0 0.902,0.264 1.122,0.792l4.521,12.177l4.653,-12.078c0.132,-0.286 0.313,-0.506 0.544,-0.66c0.231,-0.154 0.479,-0.231 0.743,-0.231c0.286,0 0.544,0.077 0.775,0.231c0.231,0.154 0.402,0.374 0.512,0.66l4.653,12.045l4.554,-12.111Z" style="fill-rule:nonzero;"/><path d="M567.92,25.165c-0.396,0 -0.721,-0.116 -0.974,-0.346c-0.253,-0.232 -0.379,-0.556 -0.379,-0.974l0,-13.926c0,-0.418 0.126,-0.742 0.38,-0.973c0.252,-0.231 0.577,-0.347 0.973,-0.347c0.396,0 0.715,0.116 0.957,0.347c0.242,0.231 0.363,0.555 0.363,0.973l0,13.926c0,0.44 -0.121,0.77 -0.363,0.99c-0.242,0.22 -0.561,0.33 -0.957,0.33Zm0,-20.031c-0.528,0 -0.957,-0.154 -1.287,-0.462c-0.33,-0.308 -0.495,-0.715 -0.495,-1.221c0,-0.484 0.165,-0.88 0.495,-1.188c0.33,-0.308 0.759,-0.462 1.287,-0.462c0.528,0 0.957,0.154 1.287,0.462c0.33,0.308 0.495,0.704 0.495,1.188c0,0.506 -0.165,0.913 -0.495,1.221c-0.33,0.308 -0.759,0.462 -1.287,0.462Z" style="fill-rule:nonzero;"/><path d="M581.648,23.053c0.77,0.066 1.155,0.418 1.155,1.056c0,0.374 -0.138,0.654 -0.413,0.841c-0.275,0.187 -0.687,0.259 -1.237,0.215l-0.891,-0.066c-1.76,-0.132 -3.058,-0.66 -3.894,-1.584c-0.836,-0.924 -1.254,-2.321 -1.254,-4.191l0,-8.283l-2.211,0c-0.374,0 -0.666,-0.094 -0.875,-0.281c-0.209,-0.187 -0.313,-0.434 -0.313,-0.742c0,-0.33 0.104,-0.594 0.313,-0.792c0.209,-0.198 0.501,-0.297 0.875,-0.297l2.211,0l0,-3.729c0,-0.418 0.121,-0.743 0.363,-0.974c0.242,-0.231 0.572,-0.346 0.99,-0.346c0.396,0 0.715,0.115 0.957,0.346c0.242,0.231 0.363,0.556 0.363,0.974l0,3.729l3.663,0c0.352,0 0.632,0.099 0.841,0.297c0.209,0.198 0.314,0.462 0.314,0.792c0,0.308 -0.105,0.555 -0.314,0.742c-0.209,0.187 -0.489,0.281 -0.841,0.281l-3.663,0l0,8.415c0,1.21 0.247,2.084 0.742,2.623c0.495,0.539 1.238,0.842 2.228,0.908l0.891,0.066Z" style="fill-rule:nonzero;"/><path d="M593.561,8.533c1.892,0 3.322,0.533 4.29,1.601c0.968,1.066 1.452,2.656 1.452,4.768l0,8.943c0,0.418 -0.121,0.742 -0.363,0.974c-0.242,0.23 -0.561,0.346 -0.957,0.346c-0.418,0 -0.748,-0.116 -0.99,-0.346c-0.242,-0.232 -0.363,-0.556 -0.363,-0.974l0,-8.877c0,-1.43 -0.292,-2.486 -0.875,-3.168c-0.582,-0.682 -1.512,-1.023 -2.788,-1.023c-1.474,0 -2.651,0.451 -3.531,1.353c-0.88,0.902 -1.32,2.123 -1.32,3.663l0,8.052c0,0.418 -0.115,0.742 -0.346,0.974c-0.231,0.23 -0.556,0.346 -0.974,0.346c-0.418,0 -0.748,-0.116 -0.99,-0.346c-0.242,-0.232 -0.363,-0.556 -0.363,-0.974l0,-20.988c0,-0.374 0.127,-0.682 0.38,-0.924c0.253,-0.242 0.577,-0.363 0.973,-0.363c0.418,0 0.743,0.116 0.974,0.346c0.231,0.232 0.346,0.545 0.346,0.941l0,8.646c0.528,-0.968 1.265,-1.705 2.211,-2.211c0.946,-0.506 2.024,-0.759 3.234,-0.759Z" style="fill-rule:nonzero;"/><path d="M618.113,25.231c-1.012,0 -1.975,-0.121 -2.888,-0.363c-0.913,-0.242 -1.721,-0.583 -2.425,-1.023c-0.396,-0.264 -0.677,-0.512 -0.842,-0.743c-0.165,-0.231 -0.247,-0.511 -0.247,-0.841c0,-0.286 0.082,-0.523 0.247,-0.71c0.165,-0.187 0.38,-0.28 0.644,-0.28c0.264,0 0.649,0.165 1.155,0.495c0.66,0.396 1.314,0.709 1.963,0.94c0.649,0.231 1.458,0.347 2.426,0.347c1.188,0 2.112,-0.209 2.772,-0.627c0.66,-0.418 0.99,-1.023 0.99,-1.815c0,-0.484 -0.121,-0.875 -0.363,-1.172c-0.242,-0.297 -0.66,-0.561 -1.254,-0.792c-0.594,-0.231 -1.463,-0.467 -2.607,-0.709c-1.936,-0.418 -3.322,-0.979 -4.158,-1.683c-0.836,-0.704 -1.254,-1.661 -1.254,-2.871c0,-0.946 0.264,-1.782 0.792,-2.508c0.528,-0.726 1.259,-1.298 2.194,-1.716c0.935,-0.418 1.997,-0.627 3.185,-0.627c0.858,0 1.688,0.115 2.491,0.346c0.803,0.231 1.513,0.556 2.129,0.974c0.748,0.528 1.122,1.078 1.122,1.65c0,0.286 -0.088,0.528 -0.264,0.726c-0.176,0.198 -0.385,0.297 -0.627,0.297c-0.264,0 -0.66,-0.187 -1.188,-0.561c-0.616,-0.396 -1.199,-0.704 -1.749,-0.924c-0.55,-0.22 -1.232,-0.33 -2.046,-0.33c-1.034,0 -1.865,0.231 -2.492,0.693c-0.627,0.462 -0.94,1.078 -0.94,1.848c0,0.484 0.115,0.874 0.346,1.171c0.231,0.297 0.616,0.561 1.155,0.792c0.539,0.231 1.315,0.457 2.327,0.677c1.496,0.33 2.657,0.693 3.481,1.089c0.826,0.396 1.414,0.88 1.766,1.452c0.352,0.572 0.528,1.298 0.528,2.178c0,1.386 -0.583,2.502 -1.749,3.349c-1.166,0.848 -2.706,1.271 -4.62,1.271Z" style="fill-rule:nonzero;"/><path d="M640.982,21.271c0.242,0 0.451,0.099 0.627,0.297c0.176,0.198 0.264,0.451 0.264,0.759c0,0.55 -0.385,1.056 -1.155,1.518c-0.792,0.462 -1.628,0.808 -2.508,1.039c-0.88,0.231 -1.738,0.347 -2.574,0.347c-2.486,0 -4.45,-0.737 -5.891,-2.211c-1.441,-1.474 -2.161,-3.509 -2.161,-6.105c0,-1.65 0.319,-3.108 0.957,-4.373c0.638,-1.265 1.534,-2.249 2.689,-2.953c1.155,-0.704 2.47,-1.056 3.944,-1.056c2.09,0 3.751,0.682 4.983,2.046c1.232,1.364 1.848,3.212 1.848,5.544c0,0.44 -0.088,0.759 -0.264,0.957c-0.176,0.198 -0.462,0.297 -0.858,0.297l-10.626,0c0.198,3.784 1.991,5.676 5.379,5.676c0.858,0 1.595,-0.116 2.211,-0.347c0.616,-0.231 1.276,-0.544 1.98,-0.94c0.572,-0.33 0.957,-0.495 1.155,-0.495Zm-5.775,-10.659c-1.408,0 -2.536,0.44 -3.383,1.32c-0.846,0.88 -1.347,2.123 -1.501,3.729l9.339,0c-0.044,-1.628 -0.451,-2.877 -1.221,-3.746c-0.77,-0.869 -1.848,-1.303 -3.234,-1.303Z" style="fill-rule:nonzero;"/><path d="M653.885,8.599c0.924,-0.066 1.386,0.308 1.386,1.122c0,0.352 -0.099,0.632 -0.297,0.841c-0.198,0.21 -0.539,0.336 -1.023,0.38l-0.99,0.099c-1.474,0.132 -2.568,0.654 -3.284,1.567c-0.715,0.913 -1.072,1.986 -1.072,3.218l0,8.019c0,0.44 -0.121,0.77 -0.363,0.99c-0.242,0.22 -0.561,0.33 -0.957,0.33c-0.396,0 -0.721,-0.115 -0.973,-0.346c-0.254,-0.231 -0.38,-0.556 -0.38,-0.974l0,-13.926c0,-0.418 0.132,-0.742 0.396,-0.973c0.264,-0.231 0.583,-0.347 0.957,-0.347c0.352,0 0.649,0.116 0.891,0.347c0.242,0.231 0.363,0.544 0.363,0.94l0,1.848c0.462,-0.968 1.116,-1.705 1.963,-2.211c0.848,-0.506 1.821,-0.803 2.921,-0.891l0.462,-0.033Z" style="fill-rule:nonzero;"/><path d="M670.154,9.424c0.242,-0.528 0.627,-0.792 1.155,-0.792c0.33,0 0.627,0.11 0.891,0.33c0.264,0.22 0.396,0.495 0.396,0.825c0,0.198 -0.044,0.374 -0.132,0.528l-6.435,13.86c-0.132,0.286 -0.33,0.512 -0.594,0.677c-0.264,0.165 -0.55,0.247 -0.858,0.247c-0.286,0 -0.561,-0.082 -0.825,-0.247c-0.264,-0.165 -0.473,-0.391 -0.627,-0.677l-6.402,-13.86c-0.088,-0.154 -0.132,-0.319 -0.132,-0.495c0,-0.33 0.148,-0.616 0.445,-0.858c0.297,-0.242 0.622,-0.363 0.974,-0.363c0.22,0 0.434,0.066 0.643,0.198c0.209,0.132 0.369,0.319 0.479,0.561l5.511,12.375l5.511,-12.309Z" style="fill-rule:nonzero;"/><path d="M687.776,21.271c0.242,0 0.451,0.099 0.627,0.297c0.176,0.198 0.264,0.451 0.264,0.759c0,0.55 -0.385,1.056 -1.155,1.518c-0.792,0.462 -1.628,0.808 -2.508,1.039c-0.88,0.231 -1.738,0.347 -2.574,0.347c-2.486,0 -4.45,-0.737 -5.891,-2.211c-1.441,-1.474 -2.161,-3.509 -2.161,-6.105c0,-1.65 0.319,-3.108 0.957,-4.373c0.638,-1.265 1.534,-2.249 2.689,-2.953c1.155,-0.704 2.47,-1.056 3.944,-1.056c2.09,0 3.751,0.682 4.983,2.046c1.232,1.364 1.848,3.212 1.848,5.544c0,0.44 -0.088,0.759 -0.264,0.957c-0.176,0.198 -0.462,0.297 -0.858,0.297l-10.626,0c0.198,3.784 1.991,5.676 5.379,5.676c0.858,0 1.595,-0.116 2.211,-0.347c0.616,-0.231 1.276,-0.544 1.98,-0.94c0.572,-0.33 0.957,-0.495 1.155,-0.495Zm-5.775,-10.659c-1.408,0 -2.536,0.44 -3.383,1.32c-0.847,0.88 -1.347,2.123 -1.501,3.729l9.339,0c-0.044,-1.628 -0.451,-2.877 -1.221,-3.746c-0.77,-0.869 -1.848,-1.303 -3.234,-1.303Z" style="fill-rule:nonzero;"/><path d="M700.679,8.599c0.924,-0.066 1.386,0.308 1.386,1.122c0,0.352 -0.099,0.632 -0.297,0.841c-0.198,0.21 -0.539,0.336 -1.023,0.38l-0.99,0.099c-1.474,0.132 -2.568,0.654 -3.284,1.567c-0.715,0.913 -1.072,1.986 -1.072,3.218l0,8.019c0,0.44 -0.121,0.77 -0.363,0.99c-0.242,0.22 -0.561,0.33 -0.957,0.33c-0.396,0 -0.721,-0.115 -0.973,-0.346c-0.254,-0.231 -0.38,-0.556 -0.38,-0.974l0,-13.926c0,-0.418 0.132,-0.742 0.396,-0.973c0.264,-0.231 0.583,-0.347 0.957,-0.347c0.352,0 0.649,0.116 0.891,0.347c0.242,0.231 0.363,0.544 0.363,0.94l0,1.848c0.462,-0.968 1.116,-1.705 1.963,-2.211c0.848,-0.506 1.821,-0.803 2.921,-0.891l0.462,-0.033Z" style="fill-rule:nonzero;"/><path d="M719.555,25.231c-1.518,0 -2.855,-0.341 -4.01,-1.023c-1.155,-0.682 -2.046,-1.656 -2.673,-2.921c-0.627,-1.265 -0.94,-2.733 -0.94,-4.405c0,-1.672 0.313,-3.141 0.94,-4.406c0.627,-1.265 1.518,-2.238 2.673,-2.92c1.155,-0.682 2.492,-1.023 4.01,-1.023c1.518,0 2.86,0.341 4.026,1.023c1.166,0.682 2.062,1.655 2.689,2.92c0.627,1.265 0.941,2.734 0.941,4.406c0,1.672 -0.314,3.14 -0.941,4.406c-0.627,1.264 -1.523,2.238 -2.689,2.92c-1.166,0.682 -2.508,1.023 -4.026,1.023Zm0,-2.211c1.584,0 2.799,-0.522 3.646,-1.567c0.847,-1.046 1.271,-2.569 1.271,-4.571c0,-1.958 -0.429,-3.47 -1.287,-4.537c-0.858,-1.067 -2.068,-1.601 -3.63,-1.601c-1.562,0 -2.772,0.534 -3.63,1.601c-0.858,1.067 -1.287,2.579 -1.287,4.537c0,1.98 0.423,3.498 1.27,4.554c0.847,1.056 2.063,1.584 3.647,1.584Z" style="fill-rule:nonzero;"/><path d="M739.289,8.533c3.85,0 5.775,2.123 5.775,6.369l0,8.943c0,0.418 -0.115,0.742 -0.346,0.974c-0.231,0.23 -0.556,0.346 -0.974,0.346c-0.418,0 -0.748,-0.116 -0.99,-0.346c-0.242,-0.232 -0.363,-0.556 -0.363,-0.974l0,-8.778c0,-1.496 -0.291,-2.585 -0.874,-3.267c-0.583,-0.682 -1.513,-1.023 -2.789,-1.023c-1.474,0 -2.651,0.451 -3.531,1.353c-0.88,0.902 -1.32,2.123 -1.32,3.663l0,8.052c0,0.418 -0.115,0.742 -0.346,0.974c-0.231,0.23 -0.556,0.346 -0.974,0.346c-0.418,0 -0.748,-0.116 -0.99,-0.346c-0.242,-0.232 -0.363,-0.556 -0.363,-0.974l0,-13.926c0,-0.396 0.121,-0.715 0.363,-0.957c0.242,-0.242 0.572,-0.363 0.99,-0.363c0.396,0 0.71,0.121 0.941,0.363c0.231,0.242 0.346,0.55 0.346,0.924l0,1.683c0.528,-0.99 1.265,-1.743 2.211,-2.26c0.946,-0.517 2.024,-0.776 3.234,-0.776Z" style="fill-rule:nonzero;"/><path d="M766.547,8.533c1.408,0 2.651,0.341 3.729,1.023c1.078,0.682 1.914,1.65 2.508,2.904c0.594,1.254 0.891,2.706 0.891,4.356c0,1.672 -0.297,3.14 -0.891,4.406c-0.594,1.265 -1.43,2.249 -2.508,2.953c-1.078,0.704 -2.321,1.056 -3.729,1.056c-1.254,0 -2.349,-0.275 -3.284,-0.825c-0.935,-0.55 -1.644,-1.331 -2.128,-2.343l0,1.782c0,0.396 -0.115,0.715 -0.346,0.957c-0.231,0.242 -0.556,0.363 -0.974,0.363c-0.418,0 -0.748,-0.121 -0.99,-0.363c-0.242,-0.242 -0.363,-0.561 -0.363,-0.957l0,-20.988c0,-0.374 0.121,-0.682 0.363,-0.924c0.242,-0.242 0.572,-0.363 0.99,-0.363c0.418,0 0.743,0.116 0.974,0.346c0.231,0.232 0.346,0.545 0.346,0.941l0,8.844c0.484,-1.012 1.193,-1.793 2.129,-2.343c0.934,-0.55 2.029,-0.825 3.283,-0.825Zm-0.528,14.487c1.562,0 2.772,-0.544 3.63,-1.634c0.858,-1.088 1.287,-2.612 1.287,-4.57c0,-1.914 -0.429,-3.399 -1.287,-4.455c-0.858,-1.056 -2.068,-1.584 -3.63,-1.584c-1.562,0 -2.767,0.528 -3.614,1.584c-0.846,1.056 -1.27,2.563 -1.27,4.521c0,1.958 0.423,3.471 1.27,4.538c0.847,1.067 2.052,1.6 3.614,1.6Z" style="fill-rule:nonzero;"/><path d="M790.109,21.271c0.242,0 0.451,0.099 0.627,0.297c0.176,0.198 0.264,0.451 0.264,0.759c0,0.55 -0.385,1.056 -1.155,1.518c-0.792,0.462 -1.628,0.808 -2.508,1.039c-0.88,0.231 -1.738,0.347 -2.574,0.347c-2.486,0 -4.45,-0.737 -5.891,-2.211c-1.441,-1.474 -2.161,-3.509 -2.161,-6.105c0,-1.65 0.319,-3.108 0.957,-4.373c0.638,-1.265 1.534,-2.249 2.689,-2.953c1.155,-0.704 2.47,-1.056 3.944,-1.056c2.09,0 3.751,0.682 4.983,2.046c1.232,1.364 1.848,3.212 1.848,5.544c0,0.44 -0.088,0.759 -0.264,0.957c-0.176,0.198 -0.462,0.297 -0.858,0.297l-10.626,0c0.198,3.784 1.991,5.676 5.379,5.676c0.858,0 1.595,-0.116 2.211,-0.347c0.616,-0.231 1.276,-0.544 1.98,-0.94c0.572,-0.33 0.957,-0.495 1.155,-0.495Zm-5.775,-10.659c-1.408,0 -2.536,0.44 -3.383,1.32c-0.846,0.88 -1.347,2.123 -1.501,3.729l9.339,0c-0.044,-1.628 -0.451,-2.877 -1.221,-3.746c-0.77,-0.869 -1.848,-1.303 -3.234,-1.303Z" style="fill-rule:nonzero;"/><path d="M803.177,8.533c1.892,0 3.322,0.533 4.29,1.601c0.968,1.066 1.452,2.656 1.452,4.768l0,8.943c0,0.418 -0.121,0.742 -0.363,0.974c-0.242,0.23 -0.561,0.346 -0.957,0.346c-0.418,0 -0.748,-0.116 -0.99,-0.346c-0.242,-0.232 -0.363,-0.556 -0.363,-0.974l0,-8.877c0,-1.43 -0.291,-2.486 -0.874,-3.168c-0.583,-0.682 -1.513,-1.023 -2.789,-1.023c-1.474,0 -2.651,0.451 -3.531,1.353c-0.88,0.902 -1.32,2.123 -1.32,3.663l0,8.052c0,0.418 -0.115,0.742 -0.346,0.974c-0.231,0.23 -0.556,0.346 -0.974,0.346c-0.418,0 -0.748,-0.116 -0.99,-0.346c-0.242,-0.232 -0.363,-0.556 -0.363,-0.974l0,-20.988c0,-0.374 0.127,-0.682 0.38,-0.924c0.253,-0.242 0.577,-0.363 0.973,-0.363c0.418,0 0.743,0.116 0.974,0.346c0.231,0.232 0.346,0.545 0.346,0.941l0,8.646c0.528,-0.968 1.265,-1.705 2.211,-2.211c0.946,-0.506 2.024,-0.759 3.234,-0.759Z" style="fill-rule:nonzero;"/><path d="M820.37,8.533c4.026,0 6.039,2.112 6.039,6.336l0,8.976c0,0.396 -0.115,0.715 -0.346,0.957c-0.231,0.242 -0.545,0.363 -0.941,0.363c-0.396,0 -0.715,-0.121 -0.957,-0.363c-0.242,-0.242 -0.363,-0.561 -0.363,-0.957l0,-1.584c-0.418,0.946 -1.056,1.678 -1.914,2.195c-0.858,0.517 -1.848,0.775 -2.97,0.775c-1.034,0 -1.985,-0.209 -2.854,-0.627c-0.869,-0.418 -1.557,-1.001 -2.063,-1.749c-0.506,-0.748 -0.759,-1.573 -0.759,-2.475c0,-1.21 0.308,-2.151 0.924,-2.822c0.616,-0.671 1.628,-1.154 3.036,-1.452c1.408,-0.297 3.366,-0.445 5.874,-0.445l0.726,0l0,-1.089c0,-1.32 -0.269,-2.288 -0.808,-2.904c-0.539,-0.616 -1.414,-0.924 -2.624,-0.924c-1.496,0 -3.014,0.407 -4.554,1.221c-0.594,0.374 -1.012,0.561 -1.254,0.561c-0.264,0 -0.484,-0.099 -0.66,-0.297c-0.176,-0.198 -0.264,-0.451 -0.264,-0.759c0,-0.308 0.094,-0.578 0.281,-0.809c0.187,-0.231 0.489,-0.467 0.907,-0.709c0.77,-0.44 1.645,-0.787 2.624,-1.04c0.979,-0.253 1.952,-0.379 2.92,-0.379Zm-1.089,14.586c1.32,0 2.404,-0.446 3.251,-1.337c0.847,-0.891 1.27,-2.04 1.27,-3.448l0,-0.957l-0.594,0c-1.936,0 -3.41,0.082 -4.422,0.247c-1.012,0.165 -1.732,0.44 -2.161,0.825c-0.429,0.385 -0.644,0.952 -0.644,1.7c0,0.858 0.314,1.567 0.941,2.128c0.627,0.561 1.413,0.842 2.359,0.842Z" style="fill-rule:nonzero;"/><path d="M832.646,25.165c-0.396,0 -0.721,-0.116 -0.974,-0.346c-0.253,-0.232 -0.379,-0.556 -0.379,-0.974l0,-20.955c0,-0.418 0.126,-0.742 0.38,-0.973c0.252,-0.231 0.577,-0.347 0.973,-0.347c0.374,0 0.688,0.116 0.941,0.347c0.252,0.231 0.379,0.555 0.379,0.973l0,20.955c0,0.418 -0.127,0.742 -0.38,0.974c-0.253,0.23 -0.566,0.346 -0.94,0.346Z" style="fill-rule:nonzero;"/><path d="M846.044,3.847c-1.166,0.088 -2.046,0.456 -2.64,1.105c-0.594,0.65 -0.891,1.623 -0.891,2.921l0,1.056l3.663,0c0.374,0 0.66,0.099 0.858,0.297c0.198,0.198 0.297,0.462 0.297,0.792c0,0.33 -0.099,0.583 -0.297,0.759c-0.198,0.176 -0.484,0.264 -0.858,0.264l-3.663,0l0,12.804c0,0.418 -0.127,0.742 -0.38,0.974c-0.253,0.23 -0.566,0.346 -0.94,0.346c-0.396,0 -0.721,-0.116 -0.974,-0.346c-0.253,-0.232 -0.379,-0.556 -0.379,-0.974l0,-12.804l-2.211,0c-0.374,0 -0.665,-0.093 -0.875,-0.28c-0.208,-0.188 -0.313,-0.435 -0.313,-0.743c0,-0.33 0.105,-0.594 0.313,-0.792c0.21,-0.198 0.501,-0.297 0.875,-0.297l2.211,0l0,-0.594c0,-1.98 0.495,-3.536 1.485,-4.669c0.99,-1.133 2.409,-1.766 4.257,-1.898l0.858,-0.066c0.572,-0.044 0.985,0.011 1.238,0.165c0.253,0.154 0.379,0.429 0.379,0.825c0,0.638 -0.385,1.001 -1.155,1.089l-0.858,0.066Z" style="fill-rule:nonzero;"/><path d="M8.141,70.231c-1.518,0 -2.854,-0.341 -4.01,-1.023c-1.155,-0.682 -2.045,-1.656 -2.673,-2.921c-0.627,-1.264 -0.94,-2.733 -0.94,-4.405c0,-1.672 0.313,-3.14 0.94,-4.405c0.628,-1.265 1.519,-2.239 2.673,-2.921c1.156,-0.682 2.492,-1.023 4.01,-1.023c1.518,0 2.86,0.341 4.026,1.023c1.166,0.682 2.063,1.656 2.689,2.921c0.627,1.265 0.941,2.733 0.941,4.405c0,1.672 -0.314,3.141 -0.941,4.406c-0.626,1.264 -1.523,2.238 -2.689,2.92c-1.166,0.682 -2.508,1.023 -4.026,1.023Zm0,-2.211c1.584,0 2.8,-0.522 3.646,-1.567c0.848,-1.046 1.271,-2.569 1.271,-4.571c0,-1.958 -0.429,-3.471 -1.287,-4.538c-0.858,-1.067 -2.068,-1.6 -3.63,-1.6c-1.562,0 -2.772,0.533 -3.63,1.6c-0.858,1.067 -1.287,2.58 -1.287,4.538c0,1.98 0.423,3.498 1.27,4.554c0.847,1.056 2.063,1.584 3.647,1.584Z" style="fill-rule:nonzero;"/><path d="M26.852,48.847c-1.166,0.088 -2.046,0.456 -2.64,1.105c-0.594,0.65 -0.891,1.623 -0.891,2.921l0,1.056l3.663,0c0.374,0 0.66,0.099 0.858,0.297c0.198,0.198 0.297,0.462 0.297,0.792c0,0.33 -0.099,0.583 -0.297,0.759c-0.198,0.176 -0.484,0.264 -0.858,0.264l-3.663,0l0,12.804c0,0.418 -0.127,0.743 -0.379,0.974c-0.253,0.23 -0.567,0.346 -0.941,0.346c-0.396,0 -0.72,-0.116 -0.973,-0.347c-0.253,-0.231 -0.38,-0.555 -0.38,-0.973l0,-12.804l-2.211,0c-0.374,0 -0.666,-0.094 -0.875,-0.281c-0.209,-0.187 -0.313,-0.434 -0.313,-0.742c0,-0.33 0.104,-0.594 0.313,-0.792c0.209,-0.198 0.501,-0.297 0.875,-0.297l2.211,0l0,-0.594c0,-1.98 0.495,-3.537 1.485,-4.67c0.99,-1.133 2.409,-1.765 4.257,-1.897l0.858,-0.066c0.572,-0.044 0.985,0.011 1.238,0.165c0.253,0.154 0.379,0.429 0.379,0.825c0,0.638 -0.385,1.001 -1.155,1.089l-0.858,0.066Z" style="fill-rule:nonzero;"/><path d="M45.728,70.231c-1.496,0 -2.821,-0.341 -3.976,-1.023c-1.155,-0.682 -2.046,-1.65 -2.673,-2.904c-0.627,-1.254 -0.941,-2.706 -0.941,-4.356c0,-1.65 0.325,-3.113 0.974,-4.389c0.649,-1.276 1.556,-2.266 2.722,-2.97c1.166,-0.704 2.508,-1.056 4.026,-1.056c0.836,0 1.667,0.115 2.492,0.346c0.825,0.232 1.545,0.567 2.161,1.007c0.396,0.264 0.677,0.523 0.842,0.776c0.165,0.253 0.247,0.533 0.247,0.841c0,0.308 -0.082,0.561 -0.247,0.759c-0.165,0.198 -0.38,0.297 -0.644,0.297c-0.154,0 -0.319,-0.044 -0.495,-0.132c-0.176,-0.088 -0.324,-0.176 -0.445,-0.264c-0.121,-0.088 -0.204,-0.143 -0.248,-0.165c-0.572,-0.374 -1.117,-0.671 -1.633,-0.891c-0.517,-0.22 -1.15,-0.33 -1.898,-0.33c-1.606,0 -2.854,0.544 -3.745,1.633c-0.891,1.089 -1.337,2.602 -1.337,4.538c0,1.936 0.446,3.432 1.337,4.488c0.891,1.056 2.139,1.584 3.745,1.584c0.748,0 1.392,-0.11 1.931,-0.33c0.539,-0.22 1.083,-0.517 1.633,-0.891c0.242,-0.154 0.473,-0.286 0.693,-0.396c0.22,-0.11 0.407,-0.165 0.561,-0.165c0.242,0 0.446,0.099 0.611,0.297c0.165,0.198 0.247,0.451 0.247,0.759c0,0.286 -0.077,0.544 -0.231,0.776c-0.154,0.231 -0.44,0.489 -0.858,0.775c-0.616,0.418 -1.358,0.754 -2.227,1.007c-0.869,0.252 -1.744,0.379 -2.624,0.379Z" style="fill-rule:nonzero;"/><path d="M56.255,70.165c-0.396,0 -0.72,-0.116 -0.973,-0.347c-0.253,-0.231 -0.38,-0.555 -0.38,-0.973l0,-20.955c0,-0.418 0.127,-0.743 0.38,-0.974c0.253,-0.231 0.577,-0.346 0.973,-0.346c0.374,0 0.688,0.115 0.941,0.346c0.253,0.231 0.379,0.556 0.379,0.974l0,20.955c0,0.418 -0.126,0.742 -0.379,0.973c-0.253,0.231 -0.567,0.347 -0.941,0.347Z" style="fill-rule:nonzero;"/><path d="M63.911,70.165c-0.396,0 -0.721,-0.116 -0.973,-0.347c-0.253,-0.231 -0.38,-0.555 -0.38,-0.973l0,-13.926c0,-0.418 0.127,-0.743 0.38,-0.974c0.252,-0.231 0.577,-0.346 0.973,-0.346c0.396,0 0.715,0.115 0.957,0.346c0.242,0.231 0.363,0.556 0.363,0.974l0,13.926c0,0.44 -0.121,0.77 -0.363,0.99c-0.242,0.22 -0.561,0.33 -0.957,0.33Zm0,-20.031c-0.528,0 -0.957,-0.154 -1.287,-0.462c-0.33,-0.308 -0.495,-0.715 -0.495,-1.221c0,-0.484 0.165,-0.88 0.495,-1.188c0.33,-0.308 0.759,-0.462 1.287,-0.462c0.528,0 0.957,0.154 1.287,0.462c0.33,0.308 0.495,0.704 0.495,1.188c0,0.506 -0.165,0.913 -0.495,1.221c-0.33,0.308 -0.759,0.462 -1.287,0.462Z" style="fill-rule:nonzero;"/><path d="M82.655,66.271c0.242,0 0.451,0.099 0.627,0.297c0.176,0.198 0.264,0.451 0.264,0.759c0,0.55 -0.385,1.056 -1.155,1.518c-0.792,0.462 -1.628,0.808 -2.508,1.04c-0.88,0.23 -1.738,0.346 -2.574,0.346c-2.486,0 -4.45,-0.737 -5.89,-2.211c-1.441,-1.474 -2.162,-3.509 -2.162,-6.105c0,-1.65 0.319,-3.108 0.957,-4.373c0.638,-1.265 1.535,-2.249 2.69,-2.953c1.155,-0.704 2.469,-1.056 3.943,-1.056c2.09,0 3.751,0.682 4.983,2.046c1.232,1.364 1.848,3.212 1.848,5.544c0,0.44 -0.088,0.759 -0.264,0.957c-0.176,0.198 -0.462,0.297 -0.858,0.297l-10.626,0c0.198,3.784 1.991,5.676 5.379,5.676c0.858,0 1.595,-0.115 2.211,-0.346c0.616,-0.231 1.276,-0.545 1.98,-0.941c0.572,-0.33 0.957,-0.495 1.155,-0.495Zm-5.775,-10.659c-1.408,0 -2.535,0.44 -3.382,1.32c-0.847,0.88 -1.348,2.123 -1.502,3.729l9.339,0c-0.044,-1.628 -0.451,-2.876 -1.221,-3.745c-0.77,-0.869 -1.848,-1.304 -3.234,-1.304Z" style="fill-rule:nonzero;"/><path d="M95.69,53.533c3.85,0 5.775,2.123 5.775,6.369l0,8.943c0,0.418 -0.115,0.743 -0.346,0.974c-0.231,0.23 -0.556,0.346 -0.974,0.346c-0.418,0 -0.748,-0.116 -0.99,-0.347c-0.242,-0.231 -0.363,-0.555 -0.363,-0.973l0,-8.778c0,-1.496 -0.291,-2.585 -0.874,-3.267c-0.584,-0.682 -1.513,-1.023 -2.789,-1.023c-1.474,0 -2.651,0.451 -3.531,1.353c-0.88,0.902 -1.32,2.123 -1.32,3.663l0,8.052c0,0.418 -0.115,0.743 -0.346,0.974c-0.231,0.23 -0.556,0.346 -0.974,0.346c-0.418,0 -0.748,-0.116 -0.99,-0.347c-0.242,-0.231 -0.363,-0.555 -0.363,-0.973l0,-13.926c0,-0.396 0.121,-0.715 0.363,-0.957c0.242,-0.242 0.572,-0.363 0.99,-0.363c0.396,0 0.71,0.121 0.941,0.363c0.231,0.242 0.346,0.55 0.346,0.924l0,1.683c0.528,-0.99 1.265,-1.744 2.211,-2.261c0.946,-0.517 2.024,-0.775 3.234,-0.775Z" style="fill-rule:nonzero;"/><path d="M113.774,68.053c0.77,0.066 1.155,0.418 1.155,1.056c0,0.374 -0.137,0.654 -0.412,0.842c-0.275,0.187 -0.688,0.258 -1.238,0.214l-0.891,-0.066c-1.76,-0.132 -3.058,-0.66 -3.894,-1.584c-0.836,-0.924 -1.254,-2.321 -1.254,-4.191l0,-8.283l-2.211,0c-0.374,0 -0.665,-0.093 -0.874,-0.28c-0.209,-0.187 -0.314,-0.435 -0.314,-0.743c0,-0.33 0.105,-0.594 0.314,-0.792c0.209,-0.198 0.5,-0.297 0.874,-0.297l2.211,0l0,-3.729c0,-0.418 0.121,-0.742 0.363,-0.973c0.242,-0.231 0.572,-0.347 0.99,-0.347c0.396,0 0.715,0.116 0.957,0.347c0.242,0.231 0.363,0.555 0.363,0.973l0,3.729l3.663,0c0.352,0 0.633,0.099 0.842,0.297c0.209,0.198 0.313,0.462 0.313,0.792c0,0.308 -0.104,0.556 -0.313,0.743c-0.209,0.187 -0.49,0.28 -0.842,0.28l-3.663,0l0,8.415c0,1.21 0.248,2.085 0.743,2.624c0.495,0.539 1.237,0.841 2.227,0.907l0.891,0.066Z" style="fill-rule:nonzero;"/><path d="M138.293,53.599c0.418,0 0.743,0.121 0.974,0.363c0.231,0.242 0.346,0.561 0.346,0.957l0,13.959c0,0.374 -0.115,0.682 -0.346,0.924c-0.231,0.242 -0.556,0.363 -0.974,0.363c-0.396,0 -0.709,-0.116 -0.941,-0.347c-0.231,-0.231 -0.346,-0.533 -0.346,-0.907l0,-1.65c-0.506,0.968 -1.215,1.705 -2.129,2.211c-0.912,0.506 -1.941,0.759 -3.085,0.759c-1.914,0 -3.355,-0.534 -4.323,-1.601c-0.968,-1.067 -1.452,-2.645 -1.452,-4.735l0,-8.976c0,-0.396 0.121,-0.715 0.363,-0.957c0.242,-0.242 0.572,-0.363 0.99,-0.363c0.418,0 0.743,0.121 0.974,0.363c0.231,0.242 0.346,0.561 0.346,0.957l0,8.91c0,1.43 0.286,2.48 0.858,3.151c0.572,0.671 1.474,1.007 2.706,1.007c1.408,0 2.541,-0.457 3.399,-1.37c0.858,-0.913 1.287,-2.117 1.287,-3.613l0,-8.085c0,-0.396 0.121,-0.715 0.363,-0.957c0.242,-0.242 0.572,-0.363 0.99,-0.363Z" style="fill-rule:nonzero;"/><path d="M150.008,70.231c-1.012,0 -1.975,-0.121 -2.887,-0.363c-0.913,-0.242 -1.722,-0.583 -2.426,-1.023c-0.396,-0.264 -0.677,-0.511 -0.842,-0.742c-0.165,-0.231 -0.247,-0.512 -0.247,-0.842c0,-0.286 0.083,-0.522 0.248,-0.709c0.165,-0.188 0.379,-0.281 0.643,-0.281c0.264,0 0.649,0.165 1.155,0.495c0.66,0.396 1.315,0.71 1.964,0.941c0.649,0.231 1.457,0.346 2.425,0.346c1.188,0 2.112,-0.209 2.772,-0.627c0.66,-0.418 0.99,-1.023 0.99,-1.815c0,-0.484 -0.121,-0.874 -0.363,-1.172c-0.242,-0.297 -0.66,-0.561 -1.254,-0.792c-0.594,-0.231 -1.463,-0.467 -2.607,-0.709c-1.936,-0.418 -3.322,-0.979 -4.158,-1.683c-0.836,-0.704 -1.254,-1.661 -1.254,-2.871c0,-0.946 0.264,-1.782 0.792,-2.508c0.528,-0.726 1.259,-1.298 2.194,-1.716c0.935,-0.418 1.997,-0.627 3.185,-0.627c0.858,0 1.688,0.116 2.491,0.347c0.803,0.231 1.513,0.555 2.129,0.973c0.748,0.528 1.122,1.078 1.122,1.65c0,0.286 -0.088,0.528 -0.264,0.726c-0.176,0.198 -0.385,0.297 -0.627,0.297c-0.264,0 -0.66,-0.187 -1.188,-0.561c-0.616,-0.396 -1.199,-0.704 -1.749,-0.924c-0.55,-0.22 -1.232,-0.33 -2.046,-0.33c-1.034,0 -1.865,0.231 -2.492,0.693c-0.627,0.462 -0.94,1.078 -0.94,1.848c0,0.484 0.115,0.875 0.346,1.172c0.231,0.297 0.616,0.561 1.155,0.792c0.539,0.231 1.315,0.456 2.327,0.676c1.496,0.33 2.656,0.693 3.481,1.089c0.825,0.396 1.414,0.88 1.766,1.452c0.352,0.572 0.528,1.298 0.528,2.178c0,1.386 -0.583,2.503 -1.749,3.35c-1.166,0.847 -2.706,1.27 -4.62,1.27Z" style="fill-rule:nonzero;"/><path d="M161.789,70.165c-0.396,0 -0.721,-0.116 -0.974,-0.347c-0.253,-0.231 -0.379,-0.555 -0.379,-0.973l0,-13.926c0,-0.418 0.126,-0.743 0.379,-0.974c0.253,-0.231 0.578,-0.346 0.974,-0.346c0.396,0 0.715,0.115 0.957,0.346c0.242,0.231 0.363,0.556 0.363,0.974l0,13.926c0,0.44 -0.121,0.77 -0.363,0.99c-0.242,0.22 -0.561,0.33 -0.957,0.33Zm0,-20.031c-0.528,0 -0.957,-0.154 -1.287,-0.462c-0.33,-0.308 -0.495,-0.715 -0.495,-1.221c0,-0.484 0.165,-0.88 0.495,-1.188c0.33,-0.308 0.759,-0.462 1.287,-0.462c0.528,0 0.957,0.154 1.287,0.462c0.33,0.308 0.495,0.704 0.495,1.188c0,0.506 -0.165,0.913 -0.495,1.221c-0.33,0.308 -0.759,0.462 -1.287,0.462Z" style="fill-rule:nonzero;"/><path d="M176.177,53.533c3.85,0 5.775,2.123 5.775,6.369l0,8.943c0,0.418 -0.115,0.743 -0.346,0.974c-0.231,0.23 -0.556,0.346 -0.974,0.346c-0.418,0 -0.748,-0.116 -0.99,-0.347c-0.242,-0.231 -0.363,-0.555 -0.363,-0.973l0,-8.778c0,-1.496 -0.291,-2.585 -0.874,-3.267c-0.583,-0.682 -1.513,-1.023 -2.789,-1.023c-1.474,0 -2.651,0.451 -3.531,1.353c-0.88,0.902 -1.32,2.123 -1.32,3.663l0,8.052c0,0.418 -0.115,0.743 -0.346,0.974c-0.231,0.23 -0.556,0.346 -0.974,0.346c-0.418,0 -0.748,-0.116 -0.99,-0.347c-0.242,-0.231 -0.363,-0.555 -0.363,-0.973l0,-13.926c0,-0.396 0.121,-0.715 0.363,-0.957c0.242,-0.242 0.572,-0.363 0.99,-0.363c0.396,0 0.709,0.121 0.94,0.363c0.232,0.242 0.347,0.55 0.347,0.924l0,1.683c0.528,-0.99 1.265,-1.744 2.211,-2.261c0.946,-0.517 2.024,-0.775 3.234,-0.775Z" style="fill-rule:nonzero;"/><path d="M199.871,53.599c0.418,0 0.748,0.121 0.99,0.363c0.242,0.242 0.363,0.561 0.363,0.957l0,13.992c0,2.398 -0.616,4.207 -1.848,5.429c-1.232,1.221 -3.058,1.831 -5.478,1.831c-2.354,0 -4.312,-0.462 -5.874,-1.386c-0.792,-0.44 -1.188,-0.946 -1.188,-1.518c0,-0.308 0.083,-0.561 0.248,-0.759c0.165,-0.198 0.379,-0.297 0.643,-0.297c0.22,0 0.616,0.154 1.188,0.462c0.77,0.396 1.529,0.715 2.277,0.957c0.748,0.242 1.639,0.363 2.673,0.363c1.562,0 2.739,-0.413 3.531,-1.238c0.792,-0.825 1.188,-2.029 1.188,-3.613l0,-2.838c-0.462,1.034 -1.171,1.826 -2.128,2.376c-0.957,0.55 -2.085,0.825 -3.383,0.825c-1.408,0 -2.656,-0.33 -3.745,-0.99c-1.089,-0.66 -1.936,-1.595 -2.541,-2.805c-0.605,-1.21 -0.908,-2.607 -0.908,-4.191c0,-1.584 0.303,-2.981 0.908,-4.191c0.605,-1.21 1.452,-2.145 2.541,-2.805c1.089,-0.66 2.337,-0.99 3.745,-0.99c1.276,0 2.387,0.275 3.333,0.825c0.946,0.55 1.661,1.331 2.145,2.343l0,-1.782c0,-0.396 0.116,-0.715 0.347,-0.957c0.231,-0.242 0.555,-0.363 0.973,-0.363Zm-6.27,13.695c1.54,0 2.75,-0.512 3.63,-1.535c0.88,-1.023 1.32,-2.436 1.32,-4.24c0,-1.782 -0.434,-3.185 -1.303,-4.208c-0.869,-1.023 -2.085,-1.534 -3.647,-1.534c-1.562,0 -2.788,0.511 -3.679,1.534c-0.891,1.023 -1.337,2.426 -1.337,4.208c0,1.804 0.446,3.217 1.337,4.24c0.891,1.023 2.117,1.535 3.679,1.535Z" style="fill-rule:nonzero;"/><path d="M221.255,53.533c4.026,0 6.039,2.112 6.039,6.336l0,8.976c0,0.396 -0.115,0.715 -0.346,0.957c-0.231,0.242 -0.545,0.363 -0.941,0.363c-0.396,0 -0.715,-0.121 -0.957,-0.363c-0.242,-0.242 -0.363,-0.561 -0.363,-0.957l0,-1.584c-0.418,0.946 -1.056,1.678 -1.914,2.195c-0.858,0.517 -1.848,0.775 -2.97,0.775c-1.034,0 -1.985,-0.209 -2.854,-0.627c-0.869,-0.418 -1.557,-1.001 -2.063,-1.749c-0.506,-0.748 -0.759,-1.573 -0.759,-2.475c0,-1.21 0.308,-2.151 0.924,-2.822c0.616,-0.671 1.628,-1.155 3.036,-1.452c1.408,-0.297 3.366,-0.445 5.874,-0.445l0.726,0l0,-1.089c0,-1.32 -0.269,-2.288 -0.808,-2.904c-0.54,-0.616 -1.414,-0.924 -2.624,-0.924c-1.496,0 -3.014,0.407 -4.554,1.221c-0.594,0.374 -1.012,0.561 -1.254,0.561c-0.264,0 -0.484,-0.099 -0.66,-0.297c-0.176,-0.198 -0.264,-0.451 -0.264,-0.759c0,-0.308 0.094,-0.578 0.28,-0.809c0.188,-0.231 0.49,-0.467 0.908,-0.709c0.77,-0.44 1.645,-0.787 2.624,-1.04c0.979,-0.253 1.952,-0.379 2.92,-0.379Zm-1.089,14.586c1.32,0 2.404,-0.446 3.251,-1.337c0.847,-0.891 1.27,-2.04 1.27,-3.448l0,-0.957l-0.594,0c-1.936,0 -3.41,0.082 -4.422,0.247c-1.012,0.165 -1.732,0.44 -2.161,0.825c-0.429,0.385 -0.644,0.952 -0.644,1.7c0,0.858 0.314,1.567 0.941,2.128c0.626,0.561 1.413,0.842 2.359,0.842Z" style="fill-rule:nonzero;"/><path d="M245.081,46.57c0.418,0 0.748,0.121 0.99,0.363c0.242,0.242 0.363,0.55 0.363,0.924l0,20.988c0,0.396 -0.121,0.715 -0.363,0.957c-0.242,0.242 -0.572,0.363 -0.99,0.363c-0.418,0 -0.742,-0.121 -0.973,-0.363c-0.231,-0.242 -0.347,-0.561 -0.347,-0.957l0,-1.782c-0.484,1.012 -1.193,1.793 -2.128,2.343c-0.935,0.55 -2.03,0.825 -3.284,0.825c-1.408,0 -2.651,-0.352 -3.729,-1.056c-1.078,-0.704 -1.914,-1.689 -2.508,-2.954c-0.594,-1.265 -0.891,-2.733 -0.891,-4.405c0,-1.65 0.297,-3.102 0.891,-4.356c0.594,-1.254 1.43,-2.222 2.508,-2.904c1.078,-0.682 2.321,-1.023 3.729,-1.023c1.254,0 2.349,0.275 3.284,0.825c0.935,0.55 1.644,1.331 2.128,2.343l0,-8.844c0,-0.396 0.116,-0.71 0.347,-0.941c0.231,-0.23 0.555,-0.346 0.973,-0.346Zm-6.204,21.45c1.562,0 2.767,-0.534 3.614,-1.601c0.847,-1.067 1.27,-2.579 1.27,-4.537c0,-1.958 -0.423,-3.465 -1.27,-4.521c-0.847,-1.056 -2.052,-1.584 -3.614,-1.584c-1.562,0 -2.777,0.528 -3.646,1.584c-0.869,1.056 -1.304,2.541 -1.304,4.455c0,1.958 0.435,3.481 1.304,4.57c0.869,1.089 2.084,1.634 3.646,1.634Z" style="fill-rule:nonzero;"/><path d="M269.27,53.533c3.564,0 5.346,2.123 5.346,6.369l0,8.943c0,0.418 -0.121,0.743 -0.363,0.974c-0.242,0.23 -0.561,0.346 -0.957,0.346c-0.396,0 -0.72,-0.116 -0.974,-0.347c-0.252,-0.231 -0.379,-0.555 -0.379,-0.973l0,-8.877c0,-1.474 -0.264,-2.541 -0.792,-3.201c-0.528,-0.66 -1.353,-0.99 -2.475,-0.99c-1.342,0 -2.398,0.451 -3.168,1.353c-0.77,0.902 -1.155,2.123 -1.155,3.663l0,8.052c0,0.418 -0.126,0.743 -0.38,0.974c-0.252,0.23 -0.577,0.346 -0.973,0.346c-0.396,0 -0.715,-0.116 -0.957,-0.347c-0.242,-0.231 -0.363,-0.555 -0.363,-0.973l0,-8.877c0,-1.474 -0.264,-2.541 -0.792,-3.201c-0.528,-0.66 -1.364,-0.99 -2.508,-0.99c-1.32,0 -2.371,0.451 -3.152,1.353c-0.781,0.902 -1.171,2.123 -1.171,3.663l0,8.052c0,0.418 -0.121,0.743 -0.363,0.974c-0.242,0.23 -0.561,0.346 -0.957,0.346c-0.396,0 -0.721,-0.116 -0.974,-0.347c-0.253,-0.231 -0.379,-0.555 -0.379,-0.973l0,-13.926c0,-0.396 0.126,-0.715 0.379,-0.957c0.253,-0.242 0.578,-0.363 0.974,-0.363c0.374,0 0.682,0.115 0.924,0.346c0.242,0.231 0.363,0.545 0.363,0.941l0,1.584c0.484,-0.946 1.155,-1.672 2.013,-2.178c0.858,-0.506 1.848,-0.759 2.97,-0.759c2.508,0 4.147,1.056 4.917,3.168c0.462,-0.968 1.166,-1.738 2.112,-2.31c0.946,-0.572 2.024,-0.858 3.234,-0.858Z" style="fill-rule:nonzero;"/><path d="M280.853,70.165c-0.396,0 -0.72,-0.116 -0.974,-0.347c-0.252,-0.231 -0.379,-0.555 -0.379,-0.973l0,-13.926c0,-0.418 0.127,-0.743 0.38,-0.974c0.253,-0.231 0.577,-0.346 0.973,-0.346c0.396,0 0.715,0.115 0.957,0.346c0.242,0.231 0.363,0.556 0.363,0.974l0,13.926c0,0.44 -0.121,0.77 -0.363,0.99c-0.242,0.22 -0.561,0.33 -0.957,0.33Zm0,-20.031c-0.528,0 -0.957,-0.154 -1.287,-0.462c-0.33,-0.308 -0.495,-0.715 -0.495,-1.221c0,-0.484 0.165,-0.88 0.495,-1.188c0.33,-0.308 0.759,-0.462 1.287,-0.462c0.528,0 0.957,0.154 1.287,0.462c0.33,0.308 0.495,0.704 0.495,1.188c0,0.506 -0.165,0.913 -0.495,1.221c-0.33,0.308 -0.759,0.462 -1.287,0.462Z" style="fill-rule:nonzero;"/><path d="M295.241,53.533c3.85,0 5.775,2.123 5.775,6.369l0,8.943c0,0.418 -0.115,0.743 -0.346,0.974c-0.231,0.23 -0.556,0.346 -0.974,0.346c-0.418,0 -0.748,-0.116 -0.99,-0.347c-0.242,-0.231 -0.363,-0.555 -0.363,-0.973l0,-8.778c0,-1.496 -0.291,-2.585 -0.874,-3.267c-0.583,-0.682 -1.513,-1.023 -2.789,-1.023c-1.474,0 -2.651,0.451 -3.531,1.353c-0.88,0.902 -1.32,2.123 -1.32,3.663l0,8.052c0,0.418 -0.115,0.743 -0.346,0.974c-0.231,0.23 -0.556,0.346 -0.974,0.346c-0.418,0 -0.748,-0.116 -0.99,-0.347c-0.242,-0.231 -0.363,-0.555 -0.363,-0.973l0,-13.926c0,-0.396 0.121,-0.715 0.363,-0.957c0.242,-0.242 0.572,-0.363 0.99,-0.363c0.396,0 0.71,0.121 0.941,0.363c0.231,0.242 0.346,0.55 0.346,0.924l0,1.683c0.528,-0.99 1.265,-1.744 2.211,-2.261c0.946,-0.517 2.024,-0.775 3.234,-0.775Z" style="fill-rule:nonzero;"/><path d="M327.317,46.57c0.418,0 0.748,0.121 0.99,0.363c0.242,0.242 0.363,0.55 0.363,0.924l0,20.988c0,0.396 -0.121,0.715 -0.363,0.957c-0.242,0.242 -0.572,0.363 -0.99,0.363c-0.418,0 -0.742,-0.121 -0.973,-0.363c-0.231,-0.242 -0.347,-0.561 -0.347,-0.957l0,-1.782c-0.484,1.012 -1.193,1.793 -2.128,2.343c-0.935,0.55 -2.03,0.825 -3.284,0.825c-1.408,0 -2.651,-0.352 -3.729,-1.056c-1.078,-0.704 -1.914,-1.689 -2.508,-2.954c-0.594,-1.265 -0.891,-2.733 -0.891,-4.405c0,-1.65 0.297,-3.102 0.891,-4.356c0.594,-1.254 1.43,-2.222 2.508,-2.904c1.078,-0.682 2.321,-1.023 3.729,-1.023c1.254,0 2.349,0.275 3.284,0.825c0.935,0.55 1.644,1.331 2.128,2.343l0,-8.844c0,-0.396 0.116,-0.71 0.347,-0.941c0.231,-0.23 0.555,-0.346 0.973,-0.346Zm-6.204,21.45c1.562,0 2.767,-0.534 3.614,-1.601c0.847,-1.067 1.27,-2.579 1.27,-4.537c0,-1.958 -0.423,-3.465 -1.27,-4.521c-0.847,-1.056 -2.052,-1.584 -3.614,-1.584c-1.562,0 -2.777,0.528 -3.646,1.584c-0.869,1.056 -1.304,2.541 -1.304,4.455c0,1.958 0.435,3.481 1.304,4.57c0.869,1.089 2.084,1.634 3.646,1.634Z" style="fill-rule:nonzero;"/><path d="M346.061,66.271c0.242,0 0.451,0.099 0.627,0.297c0.176,0.198 0.264,0.451 0.264,0.759c0,0.55 -0.385,1.056 -1.155,1.518c-0.792,0.462 -1.628,0.808 -2.508,1.04c-0.88,0.23 -1.738,0.346 -2.574,0.346c-2.486,0 -4.45,-0.737 -5.89,-2.211c-1.442,-1.474 -2.162,-3.509 -2.162,-6.105c0,-1.65 0.319,-3.108 0.957,-4.373c0.638,-1.265 1.534,-2.249 2.689,-2.953c1.155,-0.704 2.47,-1.056 3.944,-1.056c2.09,0 3.751,0.682 4.983,2.046c1.232,1.364 1.848,3.212 1.848,5.544c0,0.44 -0.088,0.759 -0.264,0.957c-0.176,0.198 -0.462,0.297 -0.858,0.297l-10.626,0c0.198,3.784 1.991,5.676 5.379,5.676c0.858,0 1.595,-0.115 2.211,-0.346c0.616,-0.231 1.276,-0.545 1.98,-0.941c0.572,-0.33 0.957,-0.495 1.155,-0.495Zm-5.775,-10.659c-1.408,0 -2.536,0.44 -3.383,1.32c-0.847,0.88 -1.347,2.123 -1.501,3.729l9.339,0c-0.044,-1.628 -0.451,-2.876 -1.221,-3.745c-0.77,-0.869 -1.848,-1.304 -3.234,-1.304Z" style="fill-rule:nonzero;"/><path d="M363.287,53.929c0.374,0 0.66,0.099 0.858,0.297c0.198,0.198 0.297,0.462 0.297,0.792l0,13.827c0,0.418 -0.126,0.743 -0.379,0.974c-0.253,0.23 -0.567,0.346 -0.941,0.346c-0.396,0 -0.72,-0.116 -0.973,-0.347c-0.253,-0.231 -0.38,-0.555 -0.38,-0.973l0,-12.804l-7.227,0l0,12.804c0,0.418 -0.126,0.742 -0.38,0.973c-0.252,0.231 -0.566,0.347 -0.94,0.347c-0.396,0 -0.721,-0.116 -0.974,-0.347c-0.252,-0.231 -0.379,-0.555 -0.379,-0.973l0,-12.804l-2.211,0c-0.374,0 -0.665,-0.094 -0.874,-0.281c-0.209,-0.187 -0.314,-0.434 -0.314,-0.742c0,-0.33 0.105,-0.594 0.314,-0.792c0.209,-0.198 0.5,-0.297 0.874,-0.297l2.211,0l0,-0.561c0,-1.98 0.495,-3.537 1.485,-4.67c0.99,-1.133 2.409,-1.776 4.257,-1.93l0.792,-0.066c1.056,-0.088 1.584,0.242 1.584,0.99c0,0.638 -0.374,1.001 -1.122,1.089l-0.792,0.066c-1.166,0.088 -2.046,0.456 -2.64,1.105c-0.594,0.649 -0.891,1.623 -0.891,2.921l0,1.056l8.745,0Zm-0.165,-7.128c0.506,0 0.93,0.154 1.271,0.462c0.341,0.308 0.511,0.704 0.511,1.188c0,0.506 -0.165,0.913 -0.495,1.221c-0.33,0.308 -0.759,0.462 -1.287,0.462c-0.528,0 -0.957,-0.154 -1.287,-0.462c-0.33,-0.308 -0.495,-0.715 -0.495,-1.221c0,-0.484 0.165,-0.88 0.495,-1.188c0.33,-0.308 0.759,-0.462 1.287,-0.462Z" style="fill-rule:nonzero;"/><path d="M377.51,53.533c3.85,0 5.775,2.123 5.775,6.369l0,8.943c0,0.418 -0.115,0.743 -0.346,0.974c-0.231,0.23 -0.556,0.346 -0.974,0.346c-0.418,0 -0.748,-0.116 -0.99,-0.347c-0.242,-0.231 -0.363,-0.555 -0.363,-0.973l0,-8.778c0,-1.496 -0.291,-2.585 -0.874,-3.267c-0.583,-0.682 -1.513,-1.023 -2.789,-1.023c-1.474,0 -2.651,0.451 -3.531,1.353c-0.88,0.902 -1.32,2.123 -1.32,3.663l0,8.052c0,0.418 -0.115,0.743 -0.346,0.974c-0.231,0.23 -0.556,0.346 -0.974,0.346c-0.418,0 -0.748,-0.116 -0.99,-0.347c-0.242,-0.231 -0.363,-0.555 -0.363,-0.973l0,-13.926c0,-0.396 0.121,-0.715 0.363,-0.957c0.242,-0.242 0.572,-0.363 0.99,-0.363c0.396,0 0.71,0.121 0.941,0.363c0.231,0.242 0.346,0.55 0.346,0.924l0,1.683c0.528,-0.99 1.265,-1.744 2.211,-2.261c0.946,-0.517 2.024,-0.775 3.234,-0.775Z" style="fill-rule:nonzero;"/><path d="M400.61,66.271c0.242,0 0.451,0.099 0.627,0.297c0.176,0.198 0.264,0.451 0.264,0.759c0,0.55 -0.385,1.056 -1.155,1.518c-0.792,0.462 -1.628,0.808 -2.508,1.04c-0.88,0.23 -1.738,0.346 -2.574,0.346c-2.486,0 -4.45,-0.737 -5.89,-2.211c-1.442,-1.474 -2.162,-3.509 -2.162,-6.105c0,-1.65 0.319,-3.108 0.957,-4.373c0.638,-1.265 1.534,-2.249 2.689,-2.953c1.155,-0.704 2.47,-1.056 3.944,-1.056c2.09,0 3.751,0.682 4.983,2.046c1.232,1.364 1.848,3.212 1.848,5.544c0,0.44 -0.088,0.759 -0.264,0.957c-0.176,0.198 -0.462,0.297 -0.858,0.297l-10.626,0c0.198,3.784 1.991,5.676 5.379,5.676c0.858,0 1.595,-0.115 2.211,-0.346c0.616,-0.231 1.276,-0.545 1.98,-0.941c0.572,-0.33 0.957,-0.495 1.155,-0.495Zm-5.775,-10.659c-1.408,0 -2.536,0.44 -3.383,1.32c-0.847,0.88 -1.347,2.123 -1.501,3.729l9.339,0c-0.044,-1.628 -0.451,-2.876 -1.221,-3.745c-0.77,-0.869 -1.848,-1.304 -3.234,-1.304Z" style="fill-rule:nonzero;"/><path d="M418.463,46.57c0.418,0 0.748,0.121 0.99,0.363c0.242,0.242 0.363,0.55 0.363,0.924l0,20.988c0,0.396 -0.121,0.715 -0.363,0.957c-0.242,0.242 -0.572,0.363 -0.99,0.363c-0.418,0 -0.742,-0.121 -0.973,-0.363c-0.231,-0.242 -0.347,-0.561 -0.347,-0.957l0,-1.782c-0.484,1.012 -1.193,1.793 -2.128,2.343c-0.935,0.55 -2.03,0.825 -3.284,0.825c-1.408,0 -2.651,-0.352 -3.729,-1.056c-1.078,-0.704 -1.914,-1.689 -2.508,-2.954c-0.594,-1.265 -0.891,-2.733 -0.891,-4.405c0,-1.65 0.297,-3.102 0.891,-4.356c0.594,-1.254 1.43,-2.222 2.508,-2.904c1.078,-0.682 2.321,-1.023 3.729,-1.023c1.254,0 2.349,0.275 3.284,0.825c0.935,0.55 1.644,1.331 2.128,2.343l0,-8.844c0,-0.396 0.116,-0.71 0.347,-0.941c0.231,-0.23 0.555,-0.346 0.973,-0.346Zm-6.204,21.45c1.562,0 2.767,-0.534 3.614,-1.601c0.847,-1.067 1.27,-2.579 1.27,-4.537c0,-1.958 -0.423,-3.465 -1.27,-4.521c-0.847,-1.056 -2.052,-1.584 -3.614,-1.584c-1.562,0 -2.777,0.528 -3.646,1.584c-0.869,1.056 -1.304,2.541 -1.304,4.455c0,1.958 0.435,3.481 1.304,4.57c0.869,1.089 2.084,1.634 3.646,1.634Z" style="fill-rule:nonzero;"/><path d="M440.672,70.165c-0.418,0 -0.753,-0.127 -1.006,-0.38c-0.253,-0.253 -0.38,-0.588 -0.38,-1.006l0,-19.734l-7.095,0c-0.396,0 -0.704,-0.099 -0.924,-0.297c-0.22,-0.198 -0.33,-0.484 -0.33,-0.858c0,-0.374 0.11,-0.66 0.33,-0.858c0.22,-0.198 0.528,-0.297 0.924,-0.297l16.929,0c0.396,0 0.704,0.099 0.924,0.297c0.22,0.198 0.33,0.484 0.33,0.858c0,0.374 -0.11,0.66 -0.33,0.858c-0.22,0.198 -0.528,0.297 -0.924,0.297l-7.095,0l0,19.734c0,0.418 -0.121,0.753 -0.363,1.006c-0.242,0.253 -0.572,0.38 -0.99,0.38Z" style="fill-rule:nonzero;"/><path d="M454.73,70c-0.374,0 -0.687,-0.115 -0.94,-0.347c-0.253,-0.231 -0.38,-0.533 -0.38,-0.907l0,-20.79c0,-0.418 0.121,-0.754 0.363,-1.007c0.242,-0.253 0.572,-0.379 0.99,-0.379c0.418,0 0.748,0.126 0.99,0.379c0.242,0.253 0.363,0.589 0.363,1.007l0,19.734l10.659,0c0.396,0 0.704,0.099 0.924,0.297c0.22,0.198 0.33,0.484 0.33,0.858c0,0.374 -0.11,0.66 -0.33,0.858c-0.22,0.198 -0.528,0.297 -0.924,0.297l-12.045,0Z" style="fill-rule:nonzero;"/><path d="M478.094,70.264c-1.65,0 -3.228,-0.248 -4.735,-0.742c-1.507,-0.495 -2.712,-1.161 -3.614,-1.997c-0.33,-0.308 -0.495,-0.693 -0.495,-1.155c0,-0.308 0.088,-0.577 0.264,-0.808c0.176,-0.231 0.385,-0.347 0.627,-0.347c0.286,0 0.594,0.121 0.924,0.363c2.046,1.584 4.378,2.376 6.996,2.376c1.892,0 3.344,-0.363 4.356,-1.089c1.012,-0.726 1.518,-1.76 1.518,-3.102c0,-0.77 -0.242,-1.392 -0.726,-1.864c-0.484,-0.474 -1.122,-0.853 -1.914,-1.139c-0.792,-0.286 -1.859,-0.583 -3.201,-0.891c-1.804,-0.418 -3.283,-0.858 -4.438,-1.32c-1.155,-0.462 -2.09,-1.122 -2.805,-1.98c-0.715,-0.858 -1.073,-1.98 -1.073,-3.366c0,-1.32 0.358,-2.492 1.073,-3.515c0.715,-1.023 1.716,-1.815 3.003,-2.376c1.287,-0.561 2.755,-0.841 4.405,-0.841c1.54,0 2.976,0.236 4.307,0.709c1.331,0.473 2.447,1.15 3.349,2.03c0.352,0.352 0.528,0.737 0.528,1.155c0,0.308 -0.088,0.577 -0.264,0.808c-0.176,0.231 -0.385,0.347 -0.627,0.347c-0.242,0 -0.561,-0.121 -0.957,-0.363c-1.078,-0.88 -2.079,-1.496 -3.003,-1.848c-0.924,-0.352 -2.035,-0.528 -3.333,-0.528c-1.826,0 -3.245,0.379 -4.257,1.138c-1.012,0.759 -1.518,1.821 -1.518,3.185c0,1.166 0.446,2.04 1.337,2.623c0.891,0.583 2.26,1.095 4.108,1.535c2.002,0.484 3.575,0.929 4.719,1.336c1.144,0.407 2.096,1.018 2.855,1.832c0.759,0.814 1.138,1.903 1.138,3.267c0,1.298 -0.357,2.442 -1.072,3.432c-0.715,0.99 -1.722,1.76 -3.02,2.31c-1.298,0.55 -2.783,0.825 -4.455,0.825Z" style="fill-rule:nonzero;"/><path d="M490.172,71.188c-0.088,0.286 -0.231,0.506 -0.429,0.66c-0.198,0.154 -0.418,0.231 -0.66,0.231c-0.308,0 -0.583,-0.11 -0.825,-0.33c-0.242,-0.22 -0.363,-0.495 -0.363,-0.825c0,-0.132 0.033,-0.286 0.099,-0.462l7.788,-24.354c0.088,-0.286 0.231,-0.506 0.429,-0.66c0.198,-0.154 0.418,-0.231 0.66,-0.231c0.308,0 0.583,0.11 0.825,0.33c0.242,0.22 0.363,0.506 0.363,0.858c0,0.066 -0.022,0.209 -0.066,0.429l-7.821,24.354Z" style="fill-rule:nonzero;"/><path d="M507.959,70.264c-1.65,0 -3.228,-0.248 -4.735,-0.742c-1.507,-0.495 -2.712,-1.161 -3.614,-1.997c-0.33,-0.308 -0.495,-0.693 -0.495,-1.155c0,-0.308 0.088,-0.577 0.264,-0.808c0.176,-0.231 0.385,-0.347 0.627,-0.347c0.286,0 0.594,0.121 0.924,0.363c2.046,1.584 4.378,2.376 6.996,2.376c1.892,0 3.344,-0.363 4.356,-1.089c1.012,-0.726 1.518,-1.76 1.518,-3.102c0,-0.77 -0.242,-1.392 -0.726,-1.864c-0.484,-0.474 -1.122,-0.853 -1.914,-1.139c-0.792,-0.286 -1.859,-0.583 -3.201,-0.891c-1.804,-0.418 -3.283,-0.858 -4.438,-1.32c-1.155,-0.462 -2.09,-1.122 -2.805,-1.98c-0.715,-0.858 -1.073,-1.98 -1.073,-3.366c0,-1.32 0.358,-2.492 1.073,-3.515c0.715,-1.023 1.716,-1.815 3.003,-2.376c1.287,-0.561 2.755,-0.841 4.405,-0.841c1.54,0 2.976,0.236 4.307,0.709c1.331,0.473 2.447,1.15 3.349,2.03c0.352,0.352 0.528,0.737 0.528,1.155c0,0.308 -0.088,0.577 -0.264,0.808c-0.176,0.231 -0.385,0.347 -0.627,0.347c-0.242,0 -0.561,-0.121 -0.957,-0.363c-1.078,-0.88 -2.079,-1.496 -3.003,-1.848c-0.924,-0.352 -2.035,-0.528 -3.333,-0.528c-1.826,0 -3.245,0.379 -4.257,1.138c-1.012,0.759 -1.518,1.821 -1.518,3.185c0,1.166 0.445,2.04 1.336,2.623c0.891,0.583 2.261,1.095 4.109,1.535c2.002,0.484 3.575,0.929 4.719,1.336c1.144,0.407 2.096,1.018 2.855,1.832c0.758,0.814 1.138,1.903 1.138,3.267c0,1.298 -0.358,2.442 -1.073,3.432c-0.715,0.99 -1.721,1.76 -3.019,2.31c-1.298,0.55 -2.783,0.825 -4.455,0.825Z" style="fill-rule:nonzero;"/><path d="M528.32,70.264c-1.65,0 -3.228,-0.248 -4.735,-0.742c-1.507,-0.495 -2.712,-1.161 -3.614,-1.997c-0.33,-0.308 -0.495,-0.693 -0.495,-1.155c0,-0.308 0.088,-0.577 0.264,-0.808c0.176,-0.231 0.385,-0.347 0.627,-0.347c0.286,0 0.594,0.121 0.924,0.363c2.046,1.584 4.378,2.376 6.996,2.376c1.892,0 3.344,-0.363 4.356,-1.089c1.012,-0.726 1.518,-1.76 1.518,-3.102c0,-0.77 -0.242,-1.392 -0.726,-1.864c-0.484,-0.474 -1.122,-0.853 -1.914,-1.139c-0.792,-0.286 -1.859,-0.583 -3.201,-0.891c-1.804,-0.418 -3.283,-0.858 -4.438,-1.32c-1.155,-0.462 -2.09,-1.122 -2.805,-1.98c-0.715,-0.858 -1.073,-1.98 -1.073,-3.366c0,-1.32 0.358,-2.492 1.073,-3.515c0.715,-1.023 1.716,-1.815 3.003,-2.376c1.287,-0.561 2.755,-0.841 4.405,-0.841c1.54,0 2.976,0.236 4.307,0.709c1.331,0.473 2.447,1.15 3.349,2.03c0.352,0.352 0.528,0.737 0.528,1.155c0,0.308 -0.088,0.577 -0.264,0.808c-0.176,0.231 -0.385,0.347 -0.627,0.347c-0.242,0 -0.561,-0.121 -0.957,-0.363c-1.078,-0.88 -2.079,-1.496 -3.003,-1.848c-0.924,-0.352 -2.035,-0.528 -3.333,-0.528c-1.826,0 -3.245,0.379 -4.257,1.138c-1.012,0.759 -1.518,1.821 -1.518,3.185c0,1.166 0.445,2.04 1.337,2.623c0.89,0.583 2.26,1.095 4.108,1.535c2.002,0.484 3.575,0.929 4.719,1.336c1.144,0.407 2.096,1.018 2.855,1.832c0.758,0.814 1.138,1.903 1.138,3.267c0,1.298 -0.358,2.442 -1.073,3.432c-0.715,0.99 -1.721,1.76 -3.019,2.31c-1.298,0.55 -2.783,0.825 -4.455,0.825Z" style="fill-rule:nonzero;"/><path d="M542.576,70c-0.374,0 -0.687,-0.115 -0.94,-0.347c-0.253,-0.231 -0.38,-0.533 -0.38,-0.907l0,-20.79c0,-0.418 0.121,-0.754 0.363,-1.007c0.242,-0.253 0.572,-0.379 0.99,-0.379c0.418,0 0.748,0.126 0.99,0.379c0.242,0.253 0.363,0.589 0.363,1.007l0,19.734l10.659,0c0.396,0 0.704,0.099 0.924,0.297c0.22,0.198 0.33,0.484 0.33,0.858c0,0.374 -0.11,0.66 -0.33,0.858c-0.22,0.198 -0.528,0.297 -0.924,0.297l-12.045,0Z" style="fill-rule:nonzero;"/><path d="M573.827,70.231c-1.496,0 -2.821,-0.341 -3.976,-1.023c-1.155,-0.682 -2.046,-1.65 -2.673,-2.904c-0.627,-1.254 -0.941,-2.706 -0.941,-4.356c0,-1.65 0.325,-3.113 0.974,-4.389c0.649,-1.276 1.556,-2.266 2.722,-2.97c1.166,-0.704 2.508,-1.056 4.026,-1.056c0.836,0 1.667,0.115 2.492,0.346c0.825,0.232 1.545,0.567 2.161,1.007c0.396,0.264 0.677,0.523 0.842,0.776c0.165,0.253 0.247,0.533 0.247,0.841c0,0.308 -0.082,0.561 -0.247,0.759c-0.165,0.198 -0.38,0.297 -0.644,0.297c-0.154,0 -0.319,-0.044 -0.495,-0.132c-0.176,-0.088 -0.324,-0.176 -0.445,-0.264c-0.121,-0.088 -0.204,-0.143 -0.248,-0.165c-0.572,-0.374 -1.116,-0.671 -1.633,-0.891c-0.517,-0.22 -1.15,-0.33 -1.898,-0.33c-1.606,0 -2.854,0.544 -3.745,1.633c-0.891,1.089 -1.337,2.602 -1.337,4.538c0,1.936 0.446,3.432 1.337,4.488c0.891,1.056 2.139,1.584 3.745,1.584c0.748,0 1.392,-0.11 1.931,-0.33c0.539,-0.22 1.083,-0.517 1.633,-0.891c0.242,-0.154 0.473,-0.286 0.693,-0.396c0.22,-0.11 0.407,-0.165 0.561,-0.165c0.242,0 0.446,0.099 0.611,0.297c0.165,0.198 0.247,0.451 0.247,0.759c0,0.286 -0.077,0.544 -0.231,0.776c-0.154,0.231 -0.44,0.489 -0.858,0.775c-0.616,0.418 -1.358,0.754 -2.227,1.007c-0.869,0.252 -1.744,0.379 -2.624,0.379Z" style="fill-rule:nonzero;"/><path d="M595.442,66.271c0.242,0 0.451,0.099 0.627,0.297c0.176,0.198 0.264,0.451 0.264,0.759c0,0.55 -0.385,1.056 -1.155,1.518c-0.792,0.462 -1.628,0.808 -2.508,1.04c-0.88,0.23 -1.738,0.346 -2.574,0.346c-2.486,0 -4.449,-0.737 -5.89,-2.211c-1.441,-1.474 -2.162,-3.509 -2.162,-6.105c0,-1.65 0.319,-3.108 0.957,-4.373c0.638,-1.265 1.535,-2.249 2.69,-2.953c1.155,-0.704 2.469,-1.056 3.943,-1.056c2.09,0 3.751,0.682 4.983,2.046c1.232,1.364 1.848,3.212 1.848,5.544c0,0.44 -0.088,0.759 -0.264,0.957c-0.176,0.198 -0.462,0.297 -0.858,0.297l-10.626,0c0.198,3.784 1.991,5.676 5.379,5.676c0.858,0 1.595,-0.115 2.211,-0.346c0.616,-0.231 1.276,-0.545 1.98,-0.941c0.572,-0.33 0.957,-0.495 1.155,-0.495Zm-5.775,-10.659c-1.408,0 -2.535,0.44 -3.382,1.32c-0.847,0.88 -1.348,2.123 -1.502,3.729l9.339,0c-0.044,-1.628 -0.451,-2.876 -1.221,-3.745c-0.77,-0.869 -1.848,-1.304 -3.234,-1.304Z" style="fill-rule:nonzero;"/><path d="M608.345,53.599c0.924,-0.066 1.386,0.308 1.386,1.122c0,0.352 -0.099,0.632 -0.297,0.841c-0.198,0.209 -0.539,0.336 -1.023,0.38l-0.99,0.099c-1.474,0.132 -2.568,0.654 -3.283,1.567c-0.715,0.913 -1.073,1.986 -1.073,3.218l0,8.019c0,0.44 -0.121,0.77 -0.363,0.99c-0.242,0.22 -0.561,0.33 -0.957,0.33c-0.396,0 -0.72,-0.116 -0.973,-0.347c-0.253,-0.231 -0.38,-0.555 -0.38,-0.973l0,-13.926c0,-0.418 0.132,-0.743 0.396,-0.974c0.264,-0.231 0.583,-0.346 0.957,-0.346c0.352,0 0.649,0.115 0.891,0.346c0.242,0.231 0.363,0.545 0.363,0.941l0,1.848c0.462,-0.968 1.117,-1.705 1.964,-2.211c0.847,-0.506 1.82,-0.803 2.92,-0.891l0.462,-0.033Z" style="fill-rule:nonzero;"/><path d="M620.753,68.053c0.77,0.066 1.155,0.418 1.155,1.056c0,0.374 -0.137,0.654 -0.412,0.842c-0.275,0.187 -0.688,0.258 -1.238,0.214l-0.891,-0.066c-1.76,-0.132 -3.058,-0.66 -3.894,-1.584c-0.836,-0.924 -1.254,-2.321 -1.254,-4.191l0,-8.283l-2.211,0c-0.374,0 -0.665,-0.093 -0.874,-0.28c-0.209,-0.187 -0.314,-0.435 -0.314,-0.743c0,-0.33 0.105,-0.594 0.314,-0.792c0.209,-0.198 0.5,-0.297 0.874,-0.297l2.211,0l0,-3.729c0,-0.418 0.121,-0.742 0.363,-0.973c0.242,-0.231 0.572,-0.347 0.99,-0.347c0.396,0 0.715,0.116 0.957,0.347c0.242,0.231 0.363,0.555 0.363,0.973l0,3.729l3.663,0c0.352,0 0.633,0.099 0.842,0.297c0.209,0.198 0.313,0.462 0.313,0.792c0,0.308 -0.104,0.556 -0.313,0.743c-0.209,0.187 -0.49,0.28 -0.842,0.28l-3.663,0l0,8.415c0,1.21 0.248,2.085 0.743,2.624c0.495,0.539 1.237,0.841 2.227,0.907l0.891,0.066Z" style="fill-rule:nonzero;"/><path d="M625.901,70.165c-0.396,0 -0.72,-0.116 -0.973,-0.347c-0.253,-0.231 -0.38,-0.555 -0.38,-0.973l0,-13.926c0,-0.418 0.127,-0.743 0.38,-0.974c0.253,-0.231 0.577,-0.346 0.973,-0.346c0.396,0 0.715,0.115 0.957,0.346c0.242,0.231 0.363,0.556 0.363,0.974l0,13.926c0,0.44 -0.121,0.77 -0.363,0.99c-0.242,0.22 -0.561,0.33 -0.957,0.33Zm0,-20.031c-0.528,0 -0.957,-0.154 -1.287,-0.462c-0.33,-0.308 -0.495,-0.715 -0.495,-1.221c0,-0.484 0.165,-0.88 0.495,-1.188c0.33,-0.308 0.759,-0.462 1.287,-0.462c0.528,0 0.957,0.154 1.287,0.462c0.33,0.308 0.495,0.704 0.495,1.188c0,0.506 -0.165,0.913 -0.495,1.221c-0.33,0.308 -0.759,0.462 -1.287,0.462Z" style="fill-rule:nonzero;"/><path d="M644.513,53.929c0.374,0 0.66,0.099 0.858,0.297c0.198,0.198 0.297,0.462 0.297,0.792l0,13.827c0,0.418 -0.126,0.743 -0.379,0.974c-0.253,0.23 -0.567,0.346 -0.941,0.346c-0.396,0 -0.72,-0.116 -0.973,-0.347c-0.253,-0.231 -0.38,-0.555 -0.38,-0.973l0,-12.804l-7.227,0l0,12.804c0,0.418 -0.126,0.742 -0.379,0.973c-0.253,0.231 -0.567,0.347 -0.941,0.347c-0.396,0 -0.72,-0.116 -0.973,-0.347c-0.253,-0.231 -0.38,-0.555 -0.38,-0.973l0,-12.804l-2.211,0c-0.374,0 -0.665,-0.094 -0.874,-0.281c-0.209,-0.187 -0.314,-0.434 -0.314,-0.742c0,-0.33 0.105,-0.594 0.314,-0.792c0.209,-0.198 0.5,-0.297 0.874,-0.297l2.211,0l0,-0.561c0,-1.98 0.495,-3.537 1.485,-4.67c0.99,-1.133 2.409,-1.776 4.257,-1.93l0.792,-0.066c1.056,-0.088 1.584,0.242 1.584,0.99c0,0.638 -0.374,1.001 -1.122,1.089l-0.792,0.066c-1.166,0.088 -2.046,0.456 -2.64,1.105c-0.594,0.649 -0.891,1.623 -0.891,2.921l0,1.056l8.745,0Zm-0.165,-7.128c0.506,0 0.93,0.154 1.271,0.462c0.341,0.308 0.511,0.704 0.511,1.188c0,0.506 -0.165,0.913 -0.495,1.221c-0.33,0.308 -0.759,0.462 -1.287,0.462c-0.528,0 -0.957,-0.154 -1.287,-0.462c-0.33,-0.308 -0.495,-0.715 -0.495,-1.221c0,-0.484 0.165,-0.88 0.495,-1.188c0.33,-0.308 0.759,-0.462 1.287,-0.462Z" style="fill-rule:nonzero;"/><path d="M657.284,70.231c-1.496,0 -2.821,-0.341 -3.976,-1.023c-1.155,-0.682 -2.046,-1.65 -2.673,-2.904c-0.627,-1.254 -0.941,-2.706 -0.941,-4.356c0,-1.65 0.325,-3.113 0.974,-4.389c0.649,-1.276 1.556,-2.266 2.722,-2.97c1.166,-0.704 2.508,-1.056 4.026,-1.056c0.836,0 1.667,0.115 2.492,0.346c0.825,0.232 1.545,0.567 2.161,1.007c0.396,0.264 0.677,0.523 0.842,0.776c0.165,0.253 0.247,0.533 0.247,0.841c0,0.308 -0.082,0.561 -0.247,0.759c-0.165,0.198 -0.38,0.297 -0.644,0.297c-0.154,0 -0.319,-0.044 -0.495,-0.132c-0.176,-0.088 -0.324,-0.176 -0.445,-0.264c-0.121,-0.088 -0.204,-0.143 -0.248,-0.165c-0.572,-0.374 -1.116,-0.671 -1.633,-0.891c-0.517,-0.22 -1.15,-0.33 -1.898,-0.33c-1.606,0 -2.854,0.544 -3.745,1.633c-0.891,1.089 -1.337,2.602 -1.337,4.538c0,1.936 0.446,3.432 1.337,4.488c0.891,1.056 2.139,1.584 3.745,1.584c0.748,0 1.392,-0.11 1.931,-0.33c0.539,-0.22 1.083,-0.517 1.633,-0.891c0.242,-0.154 0.473,-0.286 0.693,-0.396c0.22,-0.11 0.407,-0.165 0.561,-0.165c0.242,0 0.446,0.099 0.611,0.297c0.165,0.198 0.247,0.451 0.247,0.759c0,0.286 -0.077,0.544 -0.231,0.776c-0.154,0.231 -0.44,0.489 -0.858,0.775c-0.616,0.418 -1.358,0.754 -2.227,1.007c-0.869,0.252 -1.744,0.379 -2.624,0.379Z" style="fill-rule:nonzero;"/><path d="M673.025,53.533c4.026,0 6.039,2.112 6.039,6.336l0,8.976c0,0.396 -0.115,0.715 -0.346,0.957c-0.231,0.242 -0.545,0.363 -0.941,0.363c-0.396,0 -0.715,-0.121 -0.957,-0.363c-0.242,-0.242 -0.363,-0.561 -0.363,-0.957l0,-1.584c-0.418,0.946 -1.056,1.678 -1.914,2.195c-0.858,0.517 -1.848,0.775 -2.97,0.775c-1.034,0 -1.985,-0.209 -2.854,-0.627c-0.869,-0.418 -1.557,-1.001 -2.063,-1.749c-0.506,-0.748 -0.759,-1.573 -0.759,-2.475c0,-1.21 0.308,-2.151 0.924,-2.822c0.616,-0.671 1.628,-1.155 3.036,-1.452c1.408,-0.297 3.366,-0.445 5.874,-0.445l0.726,0l0,-1.089c0,-1.32 -0.269,-2.288 -0.808,-2.904c-0.539,-0.616 -1.414,-0.924 -2.624,-0.924c-1.496,0 -3.014,0.407 -4.554,1.221c-0.594,0.374 -1.012,0.561 -1.254,0.561c-0.264,0 -0.484,-0.099 -0.66,-0.297c-0.176,-0.198 -0.264,-0.451 -0.264,-0.759c0,-0.308 0.094,-0.578 0.281,-0.809c0.187,-0.231 0.489,-0.467 0.907,-0.709c0.77,-0.44 1.645,-0.787 2.624,-1.04c0.979,-0.253 1.952,-0.379 2.92,-0.379Zm-1.089,14.586c1.32,0 2.404,-0.446 3.251,-1.337c0.847,-0.891 1.27,-2.04 1.27,-3.448l0,-0.957l-0.594,0c-1.936,0 -3.41,0.082 -4.422,0.247c-1.012,0.165 -1.732,0.44 -2.161,0.825c-0.429,0.385 -0.644,0.952 -0.644,1.7c0,0.858 0.314,1.567 0.941,2.128c0.627,0.561 1.413,0.842 2.359,0.842Z" style="fill-rule:nonzero;"/><path d="M691.373,68.053c0.77,0.066 1.155,0.418 1.155,1.056c0,0.374 -0.137,0.654 -0.412,0.842c-0.275,0.187 -0.688,0.258 -1.238,0.214l-0.891,-0.066c-1.76,-0.132 -3.058,-0.66 -3.894,-1.584c-0.836,-0.924 -1.254,-2.321 -1.254,-4.191l0,-8.283l-2.211,0c-0.374,0 -0.665,-0.093 -0.874,-0.28c-0.209,-0.187 -0.314,-0.435 -0.314,-0.743c0,-0.33 0.105,-0.594 0.314,-0.792c0.209,-0.198 0.5,-0.297 0.874,-0.297l2.211,0l0,-3.729c0,-0.418 0.121,-0.742 0.363,-0.973c0.242,-0.231 0.572,-0.347 0.99,-0.347c0.396,0 0.715,0.116 0.957,0.347c0.242,0.231 0.363,0.555 0.363,0.973l0,3.729l3.663,0c0.352,0 0.633,0.099 0.842,0.297c0.209,0.198 0.313,0.462 0.313,0.792c0,0.308 -0.104,0.556 -0.313,0.743c-0.209,0.187 -0.49,0.28 -0.842,0.28l-3.663,0l0,8.415c0,1.21 0.248,2.085 0.743,2.624c0.495,0.539 1.237,0.841 2.227,0.907l0.891,0.066Z" style="fill-rule:nonzero;"/><path d="M707.609,66.271c0.242,0 0.451,0.099 0.627,0.297c0.176,0.198 0.264,0.451 0.264,0.759c0,0.55 -0.385,1.056 -1.155,1.518c-0.792,0.462 -1.628,0.808 -2.508,1.04c-0.88,0.23 -1.738,0.346 -2.574,0.346c-2.486,0 -4.449,-0.737 -5.89,-2.211c-1.441,-1.474 -2.162,-3.509 -2.162,-6.105c0,-1.65 0.319,-3.108 0.957,-4.373c0.638,-1.265 1.535,-2.249 2.69,-2.953c1.155,-0.704 2.469,-1.056 3.943,-1.056c2.09,0 3.751,0.682 4.983,2.046c1.232,1.364 1.848,3.212 1.848,5.544c0,0.44 -0.088,0.759 -0.264,0.957c-0.176,0.198 -0.462,0.297 -0.858,0.297l-10.626,0c0.198,3.784 1.991,5.676 5.379,5.676c0.858,0 1.595,-0.115 2.211,-0.346c0.616,-0.231 1.276,-0.545 1.98,-0.941c0.572,-0.33 0.957,-0.495 1.155,-0.495Zm-5.775,-10.659c-1.408,0 -2.535,0.44 -3.382,1.32c-0.847,0.88 -1.348,2.123 -1.502,3.729l9.339,0c-0.044,-1.628 -0.451,-2.876 -1.221,-3.745c-0.77,-0.869 -1.848,-1.304 -3.234,-1.304Z" style="fill-rule:nonzero;"/></g></svg>