<?xml version="1.0" encoding="UTF-8"?>
<svg width="109px" height="109px" viewBox="0 0 109 109" version="1.1" xmlns="http://www.w3.org/2000/svg" xmlns:xlink="http://www.w3.org/1999/xlink">
    <!-- Generator: Sketch 52.5 (67469) - http://www.bohemiancoding.com/sketch -->
    <title>NS Logo</title>
    <desc>Created with Sketch.</desc>
    <g id="Page-1" stroke="none" stroke-width="1" fill="none" fill-rule="evenodd">
        <g id="NS-Logo" transform="translate(2.000000, 2.000000)">
            <circle id="NS-Logo-Ring" stroke="#FF791A" stroke-width="3" fill="#000000" cx="52.5" cy="52.5" r="52.5"></circle>
            <g id="NS-Shield---Color---OnBlack" transform="translate(30.000000, 22.000000)">
                <path d="M24,0.5 L43.9978792,12.0461624 C44.30965,12.201891 44.554613,12.4466073 44.7327677,12.7803115 C44.9109226,13.1140156 45,13.4699666 45,13.8704116 L45,29.8437152 C45,33.0695217 44.5768822,36.1840935 43.7306469,39.2096775 C42.8621422,42.1907676 41.6373278,44.9716352 40.0562036,47.5522802 C38.4750795,50.1329254 36.5599151,52.4243604 34.3107105,54.4265851 C32.0837753,56.4288098 29.5896076,58.0305895 26.8059386,59.2541713 C25.6033935,59.8103448 24.7126193,60.2330367 24.1113468,60.5 L24,0.5 Z M41.8600212,35.4721914 C41.8600212,33.4922136 41.4814423,31.823693 40.7020149,30.5111235 C39.9448569,29.176307 38.8536586,28.1751946 37.4729587,27.4632925 C37.0943796,27.2630701 36.7158006,27.0850945 36.3594909,26.907119 C36.0031813,26.7291435 35.6468717,26.5734149 35.290562,26.4176863 C34.9342524,26.2619577 34.6002122,26.1062291 34.2216331,25.9282536 C33.8653235,25.7502781 33.4867444,25.5723025 33.0636268,25.3498331 C32.0169672,24.8159065 31.1707318,24.1040044 30.5249205,23.2141268 C29.8791093,22.3242491 29.5450689,21.1229143 29.5450689,19.6546162 C29.5450689,18.6979977 29.6564157,17.852614 29.9013786,17.118465 C30.1463414,16.3843159 30.4581124,15.7614016 30.8812301,15.2497219 C31.3043479,14.7380423 31.7942736,14.3598443 32.3510075,14.1151279 C32.9077413,13.8704116 33.5090138,13.7369299 34.154825,13.7369299 C34.9565218,13.7369299 35.6691411,13.9593993 36.3372217,14.4043381 C37.0053023,14.849277 37.5843055,15.4276974 38.0742312,16.1395996 C38.5641569,16.8515017 39.0318133,17.6746385 39.4326618,18.5645161 C39.8112407,19.4766406 40.1452811,20.3887652 40.3902439,21.3231368 L40.7242842,21.3231368 L40.7242842,13.5589544 L40.3902439,13.5589544 C40.2343585,13.8926585 40.0562036,14.2263626 39.8557794,14.5600667 C39.6553552,14.8937709 39.5440084,15.0717464 39.4772005,15.0717464 C39.4549311,15.0717464 39.3435843,14.9605117 39.1208909,14.7602892 C38.8981973,14.5600667 38.5864263,14.3153504 38.1633086,14.070634 C37.7401908,13.8259177 37.2057264,13.5812013 36.5599151,13.3809789 C35.9141039,13.1807564 35.1124073,13.0695217 34.1993637,13.0695217 C33.2195123,13.0695217 32.2841994,13.2474972 31.3934252,13.6034483 C30.5026512,13.9593993 29.7232238,14.4933259 29.0551432,15.227475 C28.3870626,15.961624 27.8525981,16.8737486 27.4517498,17.9638487 C27.0509015,19.0539488 26.8504773,20.3442714 26.8504773,21.8570634 C26.8504773,22.746941 26.9618241,23.5923248 27.1845175,24.3932146 C27.4072111,25.1941045 27.6967126,25.9282536 28.0752917,26.5734149 C28.4538706,27.2408231 28.8769883,27.7969966 29.3669142,28.2864294 C29.8568399,28.7758621 30.369035,29.1540601 30.9034996,29.4432703 C31.371156,29.6879866 31.7720043,29.8882091 32.1060445,30.0439377 C32.4400849,30.1996663 32.7741251,30.3553949 33.0858961,30.5111235 C33.397667,30.6668521 33.7539767,30.8225806 34.1102863,31.0005562 C34.4665959,31.1785317 34.9119831,31.3787542 35.4019088,31.6234705 C35.8918347,31.8681869 36.3594909,32.1573971 36.7826087,32.4688543 C37.2057264,32.7803115 37.5843055,33.1362625 37.8960763,33.5812014 C38.2078472,34.0038932 38.4528103,34.5155729 38.6532344,35.1162403 C38.8313892,35.6946608 38.9204665,36.3843159 38.9204665,37.1629589 C38.9204665,39.0984428 38.4528103,40.6334817 37.5174974,41.7680757 C36.5821845,42.9026697 35.3573701,43.4588432 33.843054,43.4588432 C33.3085897,43.4588432 32.7518559,43.3253616 32.1951221,43.0806452 C31.6161188,42.8359289 31.1707318,42.5689656 30.814422,42.3242492 C30.4581124,42.0795329 30.1018027,41.7013349 29.7232238,41.2341491 C29.3446448,40.7669634 28.9883351,40.2107898 28.6542949,39.5878755 C28.3202545,38.9649611 28.0084836,38.2975529 27.718982,37.5634038 C27.4294803,36.8292548 27.2067869,36.1173526 27.0063628,35.3609566 L26.6945918,35.3609566 L26.7836692,43.7035596 L27.0509015,43.7035596 C27.2067869,43.3921024 27.4072111,43.0806452 27.6076353,42.7469411 C27.8080594,42.413237 27.9416755,42.2352615 28.0084836,42.2352615 C28.0752917,42.2352615 28.2089077,42.3242492 28.4538706,42.5244717 C28.6988336,42.7246942 29.0328738,42.9471636 29.5227997,43.169633 C29.9904561,43.4143494 30.5917286,43.6145718 31.3043479,43.7703004 C32.0169672,43.9482759 32.8854719,44.0150168 33.8875929,44.0150168 C35.0455992,44.0150168 36.1367975,43.8370412 37.1166491,43.4588432 C38.0965006,43.1028922 38.942736,42.5467186 39.6553552,41.7903226 C40.3679745,41.0339266 40.9024391,40.1218021 41.3032874,39.0539489 C41.7041357,37.9860957 41.8600212,36.8292548 41.8600212,35.4721914 Z" id="NS-Shield" fill="#FF791A" fill-rule="nonzero"></path>
                <path d="M1.24181626,39.1355577 C0.399155225,36.1293327 0,32.9226927 0,29.7605895 L0,13.3710964 C0,12.9702664 0.0887011612,12.6139731 0.266103484,12.2799481 C0.443505807,11.9459231 0.687434,11.7009715 0.997888064,11.5450931 C3.43717,10.1867248 5.2777191,9.18464985 6.49736007,8.49433153 L17.9398098,44.1904693 L17.9398098,2.2591983 C18.250264,2.1255883 20.3790919,0.811756661 20.9778247,0.5 L21,60.3572789 C20.8891235,60.5354256 20.7560717,60.5131573 20.62302,60.4686205 C20.4899682,60.4240839 20.3569166,60.3795472 20.2460401,60.3572789 L17.6071805,59.1102523 C16.9419218,58.7984956 16.2766631,58.4422022 15.6335797,58.085909 C9.20274548,38.2225561 5.0337909,25.3069229 3.12671594,19.3167414 C3.03801477,19.0049847 3.03801477,27.3110729 3.12671594,44.2127376 C1.99577612,41.3846593 1.374868,39.6922659 1.24181626,39.1355577 Z" id="Path_8_-path" fill="#FFFFFF"></path>
            </g>
        </g>
    </g>
</svg>