<?xml version="1.0" encoding="UTF-8"?>
<svg width="248px" height="36px" viewBox="0 0 248 36" version="1.1" xmlns="http://www.w3.org/2000/svg" xmlns:xlink="http://www.w3.org/1999/xlink">
    <!-- Generator: Sketch 52.5 (67469) - http://www.bohemiancoding.com/sketch -->
    <title>NSv Promo 2</title>
    <desc>Created with Sketch.</desc>
    <g id="Page-1" stroke="none" stroke-width="1" fill="none" fill-rule="evenodd">
        <g id="Artboard-Copy-53" transform="translate(-187.000000, -616.000000)" fill="#FF791A">
            <g id="NSv-Promo-2" transform="translate(187.000000, 616.000000)">
                <path d="M26.328,0.92 C27.2240045,0.92 27.9359974,1.1999972 28.464,1.76 C28.9920026,2.3200028 29.256,3.06399536 29.256,3.992 L29.256,32.168 C29.256,33.0960046 28.9840027,33.8479971 28.44,34.424 C27.8959973,35.0000029 27.1920043,35.288 26.328,35.288 C25.3039949,35.288 24.5200027,34.9200037 23.976,34.184 L6.456,11.384 L6.456,32.168 C6.456,33.0960046 6.20000256,33.8479971 5.688,34.424 C5.17599744,35.0000029 4.47200448,35.288 3.576,35.288 C2.67999552,35.288 1.97600256,35.0000029 1.464,34.424 C0.95199744,33.8479971 0.696,33.0960046 0.696,32.168 L0.696,3.992 C0.696,3.06399536 0.96799728,2.3200028 1.512,1.76 C2.05600272,1.1999972 2.77599552,0.92 3.672,0.92 C4.66400496,0.92 5.43199728,1.28799632 5.976,2.024 L23.448,24.728 L23.448,3.992 C23.448,3.06399536 23.7119974,2.3200028 24.24,1.76 C24.7680026,1.1999972 25.4639957,0.92 26.328,0.92 Z M48.264,35.432 C45.7999877,35.432 43.472011,35.1040033 41.28,34.448 C39.087989,33.7919967 37.3040069,32.9040056 35.928,31.784 C35.1919963,31.2399973 34.824,30.472005 34.824,29.48 C34.824,28.8079966 35.023998,28.2240025 35.424,27.728 C35.824002,27.2319975 36.2959973,26.984 36.84,26.984 C37.4160029,26.984 38.0719963,27.2079978 38.808,27.656 C40.1840069,28.648005 41.6239925,29.3679978 43.128,29.816 C44.6320075,30.2640022 46.2959909,30.488 48.12,30.488 C50.4560117,30.488 52.2479938,30.0800041 53.496,29.264 C54.7440062,28.4479959 55.368,27.2560078 55.368,25.688 C55.368,24.4719939 54.7840058,23.5360033 53.616,22.88 C52.4479942,22.2239967 50.5040136,21.592003 47.784,20.984 C44.9679859,20.375997 42.6800088,19.672004 40.92,18.872 C39.1599912,18.071996 37.8320045,17.0480062 36.936,15.8 C36.0399955,14.5519938 35.592,12.9680096 35.592,11.048 C35.592,9.06399008 36.1519944,7.28800784 37.272,5.72 C38.3920056,4.15199216 39.95199,2.9280044 41.952,2.048 C43.95201,1.1679956 46.1999875,0.728 48.696,0.728 C53.2720229,0.728 56.9999856,1.94398784 59.88,4.376 C60.2960021,4.72800176 60.5919991,5.07199832 60.768,5.408 C60.9440009,5.74400168 61.032,6.16799744 61.032,6.68 C61.032,7.35200336 60.832002,7.93599752 60.432,8.432 C60.031998,8.92800248 59.5600027,9.176 59.016,9.176 C58.6959984,9.176 58.4000014,9.12800048 58.128,9.032 C57.8559986,8.93599952 57.4960022,8.76000128 57.048,8.504 C55.7359934,7.5439952 54.4640062,6.83200232 53.232,6.368 C51.9999938,5.90399768 50.488009,5.672 48.696,5.672 C46.5199891,5.672 44.8000063,6.1119956 43.536,6.992 C42.2719937,7.8720044 41.64,9.09599216 41.64,10.664 C41.64,11.9760066 42.1999944,12.9839965 43.32,13.688 C44.4400056,14.3920035 46.3439866,15.047997 49.032,15.656 C51.8800142,16.2960032 54.1919911,17.0079961 55.968,17.792 C57.7440089,18.5760039 59.1039953,19.5759939 60.048,20.792 C60.9920047,22.0080061 61.464,23.5279909 61.464,25.352 C61.464,27.3360099 60.9120055,29.0879924 59.808,30.608 C58.7039945,32.1280076 57.15201,33.3119958 55.152,34.16 C53.15199,35.0080042 50.856013,35.432 48.264,35.432 Z M83.016,12.776 C83.2720013,12.1999971 83.6159978,11.7680014 84.048,11.48 C84.4800022,11.1919986 84.9519974,11.048 85.464,11.048 C86.2000037,11.048 86.863997,11.2959975 87.456,11.792 C88.048003,12.2880025 88.344,12.9039963 88.344,13.64 C88.344,14.0240019 88.248001,14.4079981 88.056,14.792 L79.176,33.368 C78.8879986,33.976003 78.4800026,34.4399984 77.952,34.76 C77.4239974,35.0800016 76.8400032,35.24 76.2,35.24 C75.591997,35.24 75.0080028,35.0800016 74.448,34.76 C73.8879972,34.4399984 73.4640014,33.976003 73.176,33.368 L64.248,14.792 C64.0879992,14.4719984 64.008,14.1040021 64.008,13.688 C64.008,12.9519963 64.3199969,12.3280026 64.944,11.816 C65.5680031,11.3039974 66.279996,11.048 67.08,11.048 C68.2320058,11.048 69.0799973,11.6079944 69.624,12.728 L76.344,27.56 L83.016,12.776 Z M108.504,35.288 C107.575995,35.288 106.832003,35.0080028 106.272,34.448 C105.711997,33.8879972 105.432,33.1280048 105.432,32.168 L105.432,4.088 C105.432,3.15999536 105.695997,2.44000256 106.224,1.928 C106.752003,1.41599744 107.479995,1.16 108.408,1.16 L120.216,1.16 C123.832018,1.16 126.64799,2.06399096 128.664,3.872 C130.68001,5.68000904 131.688,8.21598368 131.688,11.48 C131.688,14.7440163 130.68001,17.2879909 128.664,19.112 C126.64799,20.9360091 123.832018,21.848 120.216,21.848 L111.624,21.848 L111.624,32.168 C111.624,33.1280048 111.344003,33.8879972 110.784,34.448 C110.223997,35.0080028 109.464005,35.288 108.504,35.288 Z M119.448,17.096 C123.704021,17.096 125.832,15.2400186 125.832,11.528 C125.832,7.81598144 123.704021,5.96 119.448,5.96 L111.624,5.96 L111.624,17.096 L119.448,17.096 Z M149.688,11.048 C150.520004,10.9839997 151.175998,11.1599979 151.656,11.576 C152.136002,11.9920021 152.376,12.6159958 152.376,13.448 C152.376,14.3120043 152.168002,14.9519979 151.752,15.368 C151.335998,15.7840021 150.584005,16.0559994 149.496,16.184 L148.056,16.328 C146.167991,16.520001 144.784004,17.1599946 143.904,18.248 C143.023996,19.3360054 142.584,20.6959918 142.584,22.328 L142.584,32.408 C142.584,33.3360046 142.296003,34.0479975 141.72,34.544 C141.143997,35.0400025 140.424004,35.288 139.56,35.288 C138.695996,35.288 137.984003,35.0400025 137.424,34.544 C136.863997,34.0479975 136.584,33.3360046 136.584,32.408 L136.584,13.832 C136.584,12.9359955 136.863997,12.2480024 137.424,11.768 C137.984003,11.2879976 138.679996,11.048 139.512,11.048 C140.344004,11.048 141.015997,11.2799977 141.528,11.744 C142.040003,12.2080023 142.296,12.8719957 142.296,13.736 L142.296,15.656 C142.904003,14.247993 143.807994,13.1600038 145.008,12.392 C146.208006,11.6239962 147.543993,11.1920005 149.016,11.096 L149.688,11.048 Z M165.672,35.384 C163.271988,35.384 161.168009,34.888005 159.36,33.896 C157.551991,32.903995 156.152005,31.4800093 155.16,29.624 C154.167995,27.7679907 153.672,25.6080123 153.672,23.144 C153.672,20.6799877 154.167995,18.5280092 155.16,16.688 C156.152005,14.8479908 157.551991,13.432005 159.36,12.44 C161.168009,11.447995 163.271988,10.952 165.672,10.952 C168.072012,10.952 170.175991,11.447995 171.984,12.44 C173.792009,13.432005 175.183995,14.8479908 176.16,16.688 C177.136005,18.5280092 177.624,20.6799877 177.624,23.144 C177.624,25.6080123 177.136005,27.7679907 176.16,29.624 C175.183995,31.4800093 173.792009,32.903995 171.984,33.896 C170.175991,34.888005 168.072012,35.384 165.672,35.384 Z M165.624,30.728 C167.57601,30.728 169.063995,30.0880064 170.088,28.808 C171.112005,27.5279936 171.624,25.6400125 171.624,23.144 C171.624,20.6799877 171.112005,18.8000065 170.088,17.504 C169.063995,16.2079935 167.59201,15.56 165.672,15.56 C163.75199,15.56 162.272005,16.2079935 161.232,17.504 C160.191995,18.8000065 159.672,20.6799877 159.672,23.144 C159.672,25.6400125 160.183995,27.5279936 161.208,28.808 C162.232005,30.0880064 163.70399,30.728 165.624,30.728 Z M235.176,35.384 C232.775988,35.384 230.672009,34.888005 228.864,33.896 C227.055991,32.903995 225.656005,31.4800093 224.664,29.624 C223.671995,27.7679907 223.176,25.6080123 223.176,23.144 C223.176,20.6799877 223.671995,18.5280092 224.664,16.688 C225.656005,14.8479908 227.055991,13.432005 228.864,12.44 C230.672009,11.447995 232.775988,10.952 235.176,10.952 C237.576012,10.952 239.679991,11.447995 241.488,12.44 C243.296009,13.432005 244.687995,14.8479908 245.664,16.688 C246.640005,18.5280092 247.128,20.6799877 247.128,23.144 C247.128,25.6080123 246.640005,27.7679907 245.664,29.624 C244.687995,31.4800093 243.296009,32.903995 241.488,33.896 C239.679991,34.888005 237.576012,35.384 235.176,35.384 Z M235.128,30.728 C233.20799,30.728 231.736005,30.0880064 230.712,28.808 C229.687995,27.5279936 229.176,25.6400125 229.176,23.144 C229.176,20.6799877 229.695995,18.8000065 230.736,17.504 C231.776005,16.2079935 233.25599,15.56 235.176,15.56 C237.09601,15.56 238.567995,16.2079935 239.592,17.504 C240.616005,18.8000065 241.128,20.6799877 241.128,23.144 C241.128,25.6400125 240.616005,27.5279936 239.592,28.808 C238.567995,30.0880064 237.08001,30.728 235.128,30.728 Z M210.456,10.952 C213.016013,10.952 214.975993,11.7119924 216.336,13.232 C217.696007,14.7520076 218.376,17.207983 218.376,20.6 L218.376,32.408 C218.376,33.3360046 218.096003,34.0479975 217.536,34.544 C216.975997,35.0400025 216.248004,35.288 215.352,35.288 C214.487996,35.288 213.776003,35.0400025 213.216,34.544 C212.655997,34.0479975 212.376,33.3360046 212.376,32.408 L212.376,20.6 C212.376,18.8399912 212.064003,17.5840038 211.44,16.832 C210.815997,16.0799962 209.864006,15.704 208.584,15.704 C207.015992,15.704 205.768005,16.2399946 204.84,17.312 C203.911995,18.3840054 203.448,19.8479907 203.448,21.704 L203.448,32.408 C203.448,33.3360046 203.168003,34.0479975 202.608,34.544 C202.047997,35.0400025 201.336004,35.288 200.472,35.288 C199.607996,35.288 198.888003,35.0400025 198.312,34.544 C197.735997,34.0479975 197.448,33.3360046 197.448,32.408 L197.448,20.6 C197.448,18.8399912 197.136003,17.5840038 196.512,16.832 C195.887997,16.0799962 194.936006,15.704 193.656,15.704 C192.087992,15.704 190.848005,16.2399946 189.936,17.312 C189.023995,18.3840054 188.568,19.8479907 188.568,21.704 L188.568,32.408 C188.568,33.3360046 188.280003,34.0479975 187.704,34.544 C187.127997,35.0400025 186.408004,35.288 185.544,35.288 C184.679996,35.288 183.968003,35.0400025 183.408,34.544 C182.847997,34.0479975 182.568,33.3360046 182.568,32.408 L182.568,13.832 C182.568,12.9359955 182.855997,12.2480024 183.432,11.768 C184.008003,11.2879976 184.727996,11.048 185.592,11.048 C186.424004,11.048 187.103997,11.2799977 187.632,11.744 C188.160003,12.2080023 188.424,12.8719957 188.424,13.736 L188.424,14.888 C189.160004,13.6079936 190.143994,12.6320034 191.376,11.96 C192.608006,11.2879966 194.023992,10.952 195.624,10.952 C199.144018,10.952 201.495994,12.4239853 202.68,15.368 C203.384004,14.0239933 204.423993,12.952004 205.8,12.152 C207.176007,11.351996 208.727991,10.952 210.456,10.952 Z" id="NSv-Promo"></path>
            </g>
        </g>
    </g>
</svg>