<?xml version="1.0" encoding="UTF-8"?>
<svg width="32px" height="28px" viewBox="0 0 32 28" version="1.1" xmlns="http://www.w3.org/2000/svg" xmlns:xlink="http://www.w3.org/1999/xlink">
    <!-- Generator: Sketch 52.4 (67378) - http://www.bohemiancoding.com/sketch -->
    <title>Path 10</title>
    <desc>Created with Sketch.</desc>
    <g id="Page-1" stroke="none" stroke-width="1" fill="none" fill-rule="evenodd">
        <g id="Artboard-Copy" transform="translate(-1304.000000, -306.000000)" fill="#FFFFFF" fill-rule="nonzero">
            <g id="Combined-Shape-2" transform="translate(1300.000000, 305.000000)">
                <g id="Path-10" transform="translate(4.000000, 1.000000)">
                    <path d="M4,28 L4,28 C1.790861,28 3.82325518e-15,26.209139 3.55271368e-15,24 L0,16 C-8.8817842e-16,7.163444 7.163444,1.77635684e-15 16,0 C24.836556,-1.77635684e-15 32,7.163444 32,16 L32,24 C32,26.209139 30.209139,28 28,28 L28,28 C25.790861,28 24,26.209139 24,24 L24,16 C24,11.581722 20.418278,8 16,8 C11.581722,8 8,11.581722 8,16 L8,24 C8,26.209139 6.209139,28 4,28 Z" id="Path"></path>
                </g>
            </g>
        </g>
    </g>
</svg>