<?xml version="1.0" encoding="UTF-8"?>
<svg width="1409px" height="929px" viewBox="0 0 1409 929" version="1.1" xmlns="http://www.w3.org/2000/svg" xmlns:xlink="http://www.w3.org/1999/xlink">
    <!-- Generator: Sketch 52.5 (67469) - http://www.bohemiancoding.com/sketch -->
    <title>Path 2</title>
    <desc>Created with Sketch.</desc>
    <g id="Page-1" stroke="none" stroke-width="1" fill="none" fill-rule="evenodd">
        <g id="Artboard-Copy-48" transform="translate(-73.000000, -102.000000)" fill="#FF8D20" fill-rule="nonzero">
            <g id="Path-2" transform="translate(73.000000, 102.000000)">
                <path d="M268.014365,294.148545 L263.126416,311.101841 L246.180936,316.016816 C120.177652,352.563608 32,468.765816 32,599.826772 C32,765.041817 163.697647,897 328.523316,897 L1149.83161,897 C1274.50443,897 1377,794.30166 1377,669.318898 C1377,570.158485 1313.20674,484.323778 1219.35566,450.739229 L1200.82048,444.106424 L1198.38345,424.571631 C1185.70021,322.904957 1096.53864,244.133858 992.870466,244.133858 L947.774301,244.133858 L938.849695,226.746129 C877.989292,108.172346 753.163122,32 616.893782,32 C454.933267,32 312.260824,140.68473 268.014365,294.148545 Z M237.266839,285.283465 C284.720207,120.69685 438.031088,0 616.893782,0 C766.554404,0 901.61399,84.1220472 967.318653,212.133858 L992.870466,212.133858 C1113.32902,212.133858 1215.53627,303.570866 1230.13731,420.610236 C1332.34456,457.185039 1409,552.279528 1409,669.318898 C1409,811.96063 1292.19171,929 1149.83161,929 L328.523316,929 C146.010363,929 0,782.700787 0,599.826772 C0,453.527559 98.5569948,325.515748 237.266839,285.283465 Z" id="Path"></path>
            </g>
        </g>
    </g>
</svg>