<?xml version="1.0" encoding="UTF-8"?>
<svg width="281px" height="281px" viewBox="0 0 281 281" version="1.1" xmlns="http://www.w3.org/2000/svg" xmlns:xlink="http://www.w3.org/1999/xlink">
    <!-- Generator: Sketch 52.5 (67469) - http://www.bohemiancoding.com/sketch -->
    <title>Path 3</title>
    <desc>Created with Sketch.</desc>
    <g id="Page-1" stroke="none" stroke-width="1" fill="none" fill-rule="evenodd">
        <g id="Artboard-Copy-48" transform="translate(-620.000000, -554.000000)" fill="#979797" fill-rule="nonzero">
            <g id="Path-3" transform="translate(620.000000, 554.000000)">
                <path d="M7.85061665,117.704774 L8.01716079,117.735495 C12.7440299,118.607618 17.3393079,115.671663 18.5344062,111.015953 C18.5344062,111.015953 18.5344062,111.015953 18.5344062,111.015953 C32.4124408,56.951705 81.4860312,18 138.638345,18 C207.121654,18 262.638345,73.516691 262.638345,142 C262.638345,196.950038 226.89542,243.551868 177.390704,259.824357 C174.484711,260.779574 170.525992,261.805492 165.514547,262.902111 L165.514551,262.902128 C160.851318,263.922551 157.898236,268.530063 158.918658,273.193296 C158.937568,273.279713 158.957804,273.365835 158.979358,273.45163 L158.979358,273.45163 C160.224695,278.408702 165.183385,281.479267 170.175956,280.384888 C173.610482,279.63201 176.395188,278.943733 178.530069,278.320034 C237.534967,261.081929 280.638345,206.574631 280.638345,142 C280.638345,63.5755655 217.06278,-5.68434189e-14 138.638345,-5.68434189e-14 C72.4700496,-5.68434189e-14 16.872131,45.2571642 1.11053954,106.505542 C1.06723106,106.673836 1.02287125,106.849141 0.977460123,107.031457 L0.977437037,107.031451 C-0.185508099,111.70043 2.65669412,116.428139 7.32567338,117.591084 C7.49944443,117.634367 7.6745087,117.672282 7.85061665,117.704774 Z" id="Path"></path>
            </g>
        </g>
    </g>
</svg>