<?xml version="1.0" encoding="UTF-8"?>
<svg width="132px" height="36px" viewBox="0 0 132 36" version="1.1" xmlns="http://www.w3.org/2000/svg" xmlns:xlink="http://www.w3.org/1999/xlink">
    <!-- Generator: Sketch 52.5 (67469) - http://www.bohemiancoding.com/sketch -->
    <title>Phone 2</title>
    <desc>Created with Sketch.</desc>
    <g id="Page-1" stroke="none" stroke-width="1" fill="none" fill-rule="evenodd">
        <g id="Artboard-Copy-45" transform="translate(-102.000000, -901.000000)" fill="#71757E">
            <g id="Phone-2" transform="translate(102.000000, 901.000000)">
                <path d="M2.432,35.24 C1.82399696,35.24 1.34400176,35.0560018 0.992,34.688 C0.63999824,34.3199982 0.464,33.832003 0.464,33.224 L0.464,3.08 C0.464,2.50399712 0.64799816,2.04000176 1.016,1.688 C1.38400184,1.33599824 1.87199696,1.16 2.48,1.16 L13.856,1.16 C17.4080178,1.16 20.1679902,2.02399136 22.136,3.752 C24.1040098,5.48000864 25.088,7.92798416 25.088,11.096 C25.088,14.2640158 24.0960099,16.7279912 22.112,18.488 C20.1279901,20.2480088 17.3760176,21.128 13.856,21.128 L4.4,21.128 L4.4,33.224 C4.4,33.832003 4.22400176,34.3199982 3.872,34.688 C3.51999824,35.0560018 3.04000304,35.24 2.432,35.24 Z M13.472,17.864 C18.6240258,17.864 21.2,15.6080226 21.2,11.096 C21.2,6.64797776 18.6240258,4.424 13.472,4.424 L4.4,4.424 L4.4,17.864 L13.472,17.864 Z M42.656,11.048 C45.4080138,11.048 47.487993,11.8239922 48.896,13.376 C50.304007,14.9280078 51.008,17.2399846 51.008,20.312 L51.008,33.32 C51.008,33.928003 50.8320018,34.3999983 50.48,34.736 C50.1279982,35.0720017 49.6640029,35.24 49.088,35.24 C48.479997,35.24 48.0000018,35.0720017 47.648,34.736 C47.2959982,34.3999983 47.12,33.928003 47.12,33.32 L47.12,20.408 C47.12,18.3279896 46.6960042,16.792005 45.848,15.8 C44.9999958,14.807995 43.6480093,14.312 41.792,14.312 C39.6479893,14.312 37.9360064,14.9679934 36.656,16.28 C35.3759936,17.5920066 34.736,19.3679888 34.736,21.608 L34.736,33.32 C34.736,33.928003 34.5680017,34.3999983 34.232,34.736 C33.8959983,35.0720017 33.424003,35.24 32.816,35.24 C32.207997,35.24 31.7280018,35.0720017 31.376,34.736 C31.0239982,34.3999983 30.848,33.928003 30.848,33.32 L30.848,2.792 C30.848,2.24799728 31.0319982,1.80000176 31.4,1.448 C31.7680018,1.09599824 32.2399971,0.92 32.816,0.92 C33.424003,0.92 33.8959983,1.08799832 34.232,1.424 C34.5680017,1.76000168 34.736,2.21599712 34.736,2.792 L34.736,15.368 C35.5040038,13.959993 36.5759931,12.8880037 37.952,12.152 C39.3280069,11.4159963 40.8959912,11.048 42.656,11.048 Z M67.808,35.336 C65.599989,35.336 63.6560084,34.840005 61.976,33.848 C60.2959916,32.855995 59.0000046,31.4400092 58.088,29.6 C57.1759954,27.7599908 56.72,25.6240122 56.72,23.192 C56.72,20.7599878 57.1759954,18.6240092 58.088,16.784 C59.0000046,14.9439908 60.2959916,13.528005 61.976,12.536 C63.6560084,11.543995 65.599989,11.048 67.808,11.048 C70.016011,11.048 71.9679915,11.543995 73.664,12.536 C75.3600085,13.528005 76.6639954,14.9439908 77.576,16.784 C78.4880046,18.6240092 78.944,20.7599878 78.944,23.192 C78.944,25.6240122 78.4880046,27.7599908 77.576,29.6 C76.6639954,31.4400092 75.3600085,32.855995 73.664,33.848 C71.9679915,34.840005 70.016011,35.336 67.808,35.336 Z M67.808,32.12 C70.1120115,32.12 71.8799938,31.3600076 73.112,29.84 C74.3440062,28.3199924 74.96,26.1040146 74.96,23.192 C74.96,20.3439858 74.3360062,18.1440078 73.088,16.592 C71.8399938,15.0399922 70.0800114,14.264 67.808,14.264 C65.5359886,14.264 63.7760062,15.0399922 62.528,16.592 C61.2799938,18.1440078 60.656,20.3439858 60.656,23.192 C60.656,26.0720144 61.2719938,28.2799923 62.504,29.816 C63.7360062,31.3520077 65.5039885,32.12 67.808,32.12 Z M96.512,11.048 C102.112028,11.048 104.912,14.1359691 104.912,20.312 L104.912,33.32 C104.912,33.928003 104.744002,34.3999983 104.408,34.736 C104.071998,35.0720017 103.600003,35.24 102.992,35.24 C102.383997,35.24 101.904002,35.0720017 101.552,34.736 C101.199998,34.3999983 101.024,33.928003 101.024,33.32 L101.024,20.552 C101.024,18.3759891 100.600004,16.792005 99.752,15.8 C98.9039958,14.807995 97.5520093,14.312 95.696,14.312 C93.5519893,14.312 91.8400064,14.9679934 90.56,16.28 C89.2799936,17.5920066 88.64,19.3679888 88.64,21.608 L88.64,33.32 C88.64,33.928003 88.4720017,34.3999983 88.136,34.736 C87.7999983,35.0720017 87.328003,35.24 86.72,35.24 C86.111997,35.24 85.6320018,35.0720017 85.28,34.736 C84.9279982,34.3999983 84.752,33.928003 84.752,33.32 L84.752,13.064 C84.752,12.4879971 84.9279982,12.0240018 85.28,11.672 C85.6320018,11.3199982 86.111997,11.144 86.72,11.144 C87.2960029,11.144 87.7519983,11.3199982 88.088,11.672 C88.4240017,12.0240018 88.592,12.4719973 88.592,13.016 L88.592,15.464 C89.3600038,14.0239928 90.4319931,12.9280038 91.808,12.176 C93.1840069,11.4239962 94.7519912,11.048 96.512,11.048 Z M130.112,29.576 C130.464002,29.576 130.767999,29.7199986 131.024,30.008 C131.280001,30.2960014 131.408,30.6639978 131.408,31.112 C131.408,31.912004 130.848006,32.6479966 129.728,33.32 C128.575994,33.9920034 127.360006,34.4959983 126.08,34.832 C124.799994,35.1680017 123.552006,35.336 122.336,35.336 C118.719982,35.336 115.86401,34.2640107 113.768,32.12 C111.67199,29.9759893 110.624,27.0160189 110.624,23.24 C110.624,20.839988 111.087995,18.7200092 112.016,16.88 C112.944005,15.0399908 114.247992,13.6080051 115.928,12.584 C117.608008,11.5599949 119.519989,11.048 121.664,11.048 C124.704015,11.048 127.119991,12.0399901 128.912,14.024 C130.704009,16.0080099 131.6,18.695983 131.6,22.088 C131.6,22.7280032 131.472001,23.1919986 131.216,23.48 C130.959999,23.7680014 130.544003,23.912 129.968,23.912 L114.512,23.912 C114.800001,29.4160275 117.407975,32.168 122.336,32.168 C123.584006,32.168 124.655996,32.0000017 125.552,31.664 C126.448004,31.3279983 127.407995,30.8720029 128.432,30.296 C129.264004,29.8159976 129.823999,29.576 130.112,29.576 Z M121.712,14.072 C119.66399,14.072 118.024006,14.7119936 116.792,15.992 C115.559994,17.2720064 114.832001,19.0799883 114.608,21.416 L128.192,21.416 C128.128,19.0479882 127.536006,17.2320063 126.416,15.968 C125.295994,14.7039937 123.72801,14.072 121.712,14.072 Z" id="Phone"></path>
            </g>
        </g>
    </g>
</svg>