<?xml version="1.0" encoding="UTF-8" standalone="no"?><!DOCTYPE svg PUBLIC "-//W3C//DTD SVG 1.1//EN" "http://www.w3.org/Graphics/SVG/1.1/DTD/svg11.dtd"><svg width="100%" height="100%" viewBox="0 0 432 71" version="1.1" xmlns="http://www.w3.org/2000/svg" xmlns:xlink="http://www.w3.org/1999/xlink" xml:space="preserve" xmlns:serif="http://www.serif.com/" style="fill-rule:evenodd;clip-rule:evenodd;stroke-linejoin:round;stroke-miterlimit:1.41421;"><g id="Power-of-Knowledge"><path id="Rectangle" d="M432,35.5c0,-19.593 -15.907,-35.5 -35.5,-35.5l-361,0c-19.593,0 -35.5,15.907 -35.5,35.5c0,19.593 15.907,35.5 35.5,35.5l361,0c19.593,0 35.5,-15.907 35.5,-35.5Z" style="fill:#ff791a;"/><g id="THE-POWER-OF-KNOWING"><path d="M58.375,45.13c-0.329,0 -0.594,-0.1 -0.793,-0.299c-0.199,-0.199 -0.299,-0.464 -0.299,-0.793l0,-15.548l-5.59,0c-0.312,0 -0.555,-0.078 -0.728,-0.234c-0.173,-0.156 -0.26,-0.381 -0.26,-0.676c0,-0.295 0.087,-0.52 0.26,-0.676c0.173,-0.156 0.416,-0.234 0.728,-0.234l13.338,0c0.312,0 0.555,0.078 0.728,0.234c0.173,0.156 0.26,0.381 0.26,0.676c0,0.295 -0.087,0.52 -0.26,0.676c-0.173,0.156 -0.416,0.234 -0.728,0.234l-5.59,0l0,15.548c0,0.329 -0.095,0.594 -0.286,0.793c-0.191,0.199 -0.451,0.299 -0.78,0.299Z" style="fill-rule:nonzero;"/><path d="M82.555,26.54c0.329,0 0.585,0.1 0.767,0.299c0.182,0.199 0.273,0.464 0.273,0.793l0,16.406c0,0.329 -0.091,0.594 -0.273,0.793c-0.182,0.199 -0.438,0.299 -0.767,0.299c-0.329,0 -0.589,-0.1 -0.78,-0.299c-0.191,-0.199 -0.286,-0.464 -0.286,-0.793l0,-7.436l-10.972,0l0,7.436c0,0.329 -0.095,0.594 -0.286,0.793c-0.191,0.199 -0.451,0.299 -0.78,0.299c-0.329,0 -0.585,-0.1 -0.767,-0.299c-0.182,-0.199 -0.273,-0.464 -0.273,-0.793l0,-16.406c0,-0.329 0.091,-0.594 0.273,-0.793c0.182,-0.199 0.438,-0.299 0.767,-0.299c0.329,0 0.589,0.1 0.78,0.299c0.191,0.199 0.286,0.464 0.286,0.793l0,7.15l10.972,0l0,-7.15c0,-0.329 0.095,-0.594 0.286,-0.793c0.191,-0.199 0.451,-0.299 0.78,-0.299Z" style="fill-rule:nonzero;"/><path d="M89.211,45c-0.329,0 -0.594,-0.095 -0.793,-0.286c-0.199,-0.191 -0.299,-0.442 -0.299,-0.754l0,-16.25c0,-0.312 0.1,-0.563 0.299,-0.754c0.199,-0.191 0.464,-0.286 0.793,-0.286l9.724,0c0.312,0 0.555,0.078 0.728,0.234c0.173,0.156 0.26,0.373 0.26,0.65c0,0.277 -0.087,0.494 -0.26,0.65c-0.173,0.156 -0.416,0.234 -0.728,0.234l-8.71,0l0,6.37l8.19,0c0.312,0 0.555,0.078 0.728,0.234c0.173,0.156 0.26,0.373 0.26,0.65c0,0.277 -0.087,0.494 -0.26,0.65c-0.173,0.156 -0.416,0.234 -0.728,0.234l-8.19,0l0,6.656l8.71,0c0.312,0 0.555,0.074 0.728,0.221c0.173,0.147 0.26,0.368 0.26,0.663c0,0.277 -0.087,0.494 -0.26,0.65c-0.173,0.156 -0.416,0.234 -0.728,0.234l-9.724,0Z" style="fill-rule:nonzero;"/><path d="M111.025,45.13c-0.329,0 -0.589,-0.1 -0.78,-0.299c-0.191,-0.199 -0.286,-0.464 -0.286,-0.793l0,-16.328c0,-0.312 0.1,-0.563 0.299,-0.754c0.199,-0.191 0.464,-0.286 0.793,-0.286l6.162,0c1.924,0 3.419,0.468 4.485,1.404c1.066,0.936 1.599,2.262 1.599,3.978c0,1.716 -0.537,3.051 -1.612,4.004c-1.075,0.953 -2.565,1.43 -4.472,1.43l-5.122,0l0,6.552c0,0.329 -0.095,0.594 -0.286,0.793c-0.191,0.199 -0.451,0.299 -0.78,0.299Zm5.98,-9.412c2.791,0 4.186,-1.222 4.186,-3.666c0,-2.409 -1.395,-3.614 -4.186,-3.614l-4.914,0l0,7.28l4.914,0Z" style="fill-rule:nonzero;"/><path d="M134.217,45.208c-1.699,0 -3.176,-0.381 -4.433,-1.144c-1.257,-0.763 -2.223,-1.846 -2.899,-3.25c-0.676,-1.404 -1.014,-3.059 -1.014,-4.966c0,-1.924 0.334,-3.592 1.001,-5.005c0.667,-1.413 1.629,-2.496 2.886,-3.25c1.257,-0.754 2.743,-1.131 4.459,-1.131c1.716,0 3.202,0.377 4.459,1.131c1.257,0.754 2.219,1.837 2.886,3.25c0.667,1.413 1.001,3.072 1.001,4.979c0,1.907 -0.338,3.566 -1.014,4.979c-0.676,1.413 -1.642,2.5 -2.899,3.263c-1.257,0.763 -2.734,1.144 -4.433,1.144Zm0,-1.82c1.941,0 3.454,-0.654 4.537,-1.963c1.083,-1.309 1.625,-3.176 1.625,-5.603c0,-2.427 -0.537,-4.29 -1.612,-5.59c-1.075,-1.3 -2.591,-1.95 -4.55,-1.95c-1.941,0 -3.454,0.654 -4.537,1.963c-1.083,1.309 -1.625,3.168 -1.625,5.577c0,2.409 0.542,4.273 1.625,5.59c1.083,1.317 2.596,1.976 4.537,1.976Z" style="fill-rule:nonzero;"/><path d="M169.421,27.19c0.069,-0.225 0.191,-0.394 0.364,-0.507c0.173,-0.113 0.364,-0.169 0.572,-0.169c0.277,0 0.516,0.082 0.715,0.247c0.199,0.165 0.299,0.386 0.299,0.663c0,0.121 -0.026,0.26 -0.078,0.416l-5.876,16.562c-0.087,0.243 -0.234,0.429 -0.442,0.559c-0.208,0.13 -0.442,0.195 -0.702,0.195c-0.243,0 -0.468,-0.065 -0.676,-0.195c-0.208,-0.13 -0.355,-0.316 -0.442,-0.559l-5.096,-14.404l-5.148,14.404c-0.087,0.243 -0.234,0.429 -0.442,0.559c-0.208,0.13 -0.433,0.195 -0.676,0.195c-0.243,0 -0.468,-0.065 -0.676,-0.195c-0.208,-0.13 -0.355,-0.316 -0.442,-0.559l-5.902,-16.562c-0.052,-0.139 -0.078,-0.269 -0.078,-0.39c0,-0.277 0.108,-0.503 0.325,-0.676c0.217,-0.173 0.464,-0.26 0.741,-0.26c0.208,0 0.403,0.056 0.585,0.169c0.182,0.113 0.308,0.282 0.377,0.507l5.122,14.768l5.2,-14.612c0.087,-0.26 0.225,-0.455 0.416,-0.585c0.191,-0.13 0.399,-0.195 0.624,-0.195c0.225,0 0.433,0.069 0.624,0.208c0.191,0.139 0.329,0.338 0.416,0.598l5.122,14.638l5.174,-14.82Z" style="fill-rule:nonzero;"/><path d="M175.713,45c-0.329,0 -0.594,-0.095 -0.793,-0.286c-0.199,-0.191 -0.299,-0.442 -0.299,-0.754l0,-16.25c0,-0.312 0.1,-0.563 0.299,-0.754c0.199,-0.191 0.464,-0.286 0.793,-0.286l9.724,0c0.312,0 0.555,0.078 0.728,0.234c0.173,0.156 0.26,0.373 0.26,0.65c0,0.277 -0.087,0.494 -0.26,0.65c-0.173,0.156 -0.416,0.234 -0.728,0.234l-8.71,0l0,6.37l8.19,0c0.312,0 0.555,0.078 0.728,0.234c0.173,0.156 0.26,0.373 0.26,0.65c0,0.277 -0.087,0.494 -0.26,0.65c-0.173,0.156 -0.416,0.234 -0.728,0.234l-8.19,0l0,6.656l8.71,0c0.312,0 0.555,0.074 0.728,0.221c0.173,0.147 0.26,0.368 0.26,0.663c0,0.277 -0.087,0.494 -0.26,0.65c-0.173,0.156 -0.416,0.234 -0.728,0.234l-9.724,0Z" style="fill-rule:nonzero;"/><path d="M203.741,43.674c0.121,0.191 0.182,0.39 0.182,0.598c0,0.26 -0.1,0.472 -0.299,0.637c-0.199,0.165 -0.429,0.247 -0.689,0.247c-0.399,0 -0.711,-0.173 -0.936,-0.52l-3.484,-5.512c-0.451,-0.711 -0.919,-1.2 -1.404,-1.469c-0.485,-0.269 -1.144,-0.403 -1.976,-0.403l-3.276,0l0,6.786c0,0.329 -0.095,0.594 -0.286,0.793c-0.191,0.199 -0.442,0.299 -0.754,0.299c-0.329,0 -0.589,-0.1 -0.78,-0.299c-0.191,-0.199 -0.286,-0.464 -0.286,-0.793l0,-16.328c0,-0.312 0.1,-0.563 0.299,-0.754c0.199,-0.191 0.464,-0.286 0.793,-0.286l6.448,0c1.993,0 3.514,0.442 4.563,1.326c1.049,0.884 1.573,2.184 1.573,3.9c0,1.456 -0.42,2.626 -1.261,3.51c-0.841,0.884 -2.041,1.421 -3.601,1.612c0.433,0.139 0.823,0.364 1.17,0.676c0.347,0.312 0.693,0.745 1.04,1.3l2.964,4.68Zm-6.63,-8.19c1.421,0 2.483,-0.295 3.185,-0.884c0.702,-0.589 1.053,-1.482 1.053,-2.678c0,-1.179 -0.347,-2.054 -1.04,-2.626c-0.693,-0.572 -1.759,-0.858 -3.198,-0.858l-5.252,0l0,7.046l5.252,0Z" style="fill-rule:nonzero;"/><path d="M221.967,45.208c-1.699,0 -3.176,-0.381 -4.433,-1.144c-1.257,-0.763 -2.223,-1.846 -2.899,-3.25c-0.676,-1.404 -1.014,-3.059 -1.014,-4.966c0,-1.924 0.334,-3.592 1.001,-5.005c0.667,-1.413 1.629,-2.496 2.886,-3.25c1.257,-0.754 2.743,-1.131 4.459,-1.131c1.716,0 3.202,0.377 4.459,1.131c1.257,0.754 2.219,1.837 2.886,3.25c0.667,1.413 1.001,3.072 1.001,4.979c0,1.907 -0.338,3.566 -1.014,4.979c-0.676,1.413 -1.642,2.5 -2.899,3.263c-1.257,0.763 -2.734,1.144 -4.433,1.144Zm0,-1.82c1.941,0 3.454,-0.654 4.537,-1.963c1.083,-1.309 1.625,-3.176 1.625,-5.603c0,-2.427 -0.537,-4.29 -1.612,-5.59c-1.075,-1.3 -2.591,-1.95 -4.55,-1.95c-1.941,0 -3.454,0.654 -4.537,1.963c-1.083,1.309 -1.625,3.168 -1.625,5.577c0,2.409 0.542,4.273 1.625,5.59c1.083,1.317 2.596,1.976 4.537,1.976Z" style="fill-rule:nonzero;"/><path d="M235.227,45.13c-0.329,0 -0.589,-0.1 -0.78,-0.299c-0.191,-0.199 -0.286,-0.464 -0.286,-0.793l0,-16.328c0,-0.312 0.1,-0.563 0.299,-0.754c0.199,-0.191 0.464,-0.286 0.793,-0.286l9.464,0c0.312,0 0.555,0.078 0.728,0.234c0.173,0.156 0.26,0.381 0.26,0.676c0,0.277 -0.087,0.494 -0.26,0.65c-0.173,0.156 -0.416,0.234 -0.728,0.234l-8.45,0l0,6.318l7.93,0c0.312,0 0.555,0.078 0.728,0.234c0.173,0.156 0.26,0.381 0.26,0.676c0,0.277 -0.087,0.494 -0.26,0.65c-0.173,0.156 -0.416,0.234 -0.728,0.234l-7.93,0l0,7.462c0,0.329 -0.091,0.594 -0.273,0.793c-0.182,0.199 -0.438,0.299 -0.767,0.299Z" style="fill-rule:nonzero;"/><path d="M268.533,43.388c0.243,0.225 0.364,0.477 0.364,0.754c0,0.243 -0.1,0.464 -0.299,0.663c-0.199,0.199 -0.429,0.299 -0.689,0.299c-0.225,0 -0.459,-0.104 -0.702,-0.312l-9.724,-8.502l0,7.748c0,0.329 -0.095,0.594 -0.286,0.793c-0.191,0.199 -0.451,0.299 -0.78,0.299c-0.329,0 -0.589,-0.1 -0.78,-0.299c-0.191,-0.199 -0.286,-0.464 -0.286,-0.793l0,-16.406c0,-0.329 0.095,-0.594 0.286,-0.793c0.191,-0.199 0.451,-0.299 0.78,-0.299c0.329,0 0.589,0.1 0.78,0.299c0.191,0.199 0.286,0.464 0.286,0.793l0,7.462l9.282,-8.242c0.191,-0.191 0.416,-0.286 0.676,-0.286c0.26,0 0.485,0.1 0.676,0.299c0.191,0.199 0.286,0.42 0.286,0.663c0,0.26 -0.113,0.503 -0.338,0.728l-8.398,7.384l8.866,7.748Z" style="fill-rule:nonzero;"/><path d="M285.381,26.54c0.312,0 0.555,0.1 0.728,0.299c0.173,0.199 0.26,0.464 0.26,0.793l0,16.406c0,0.329 -0.091,0.594 -0.273,0.793c-0.182,0.199 -0.438,0.299 -0.767,0.299c-0.329,0 -0.615,-0.147 -0.858,-0.442l-10.79,-14.43l0,13.78c0,0.329 -0.091,0.594 -0.273,0.793c-0.182,0.199 -0.429,0.299 -0.741,0.299c-0.312,0 -0.555,-0.1 -0.728,-0.299c-0.173,-0.199 -0.26,-0.464 -0.26,-0.793l0,-16.406c0,-0.329 0.091,-0.594 0.273,-0.793c0.182,-0.199 0.438,-0.299 0.767,-0.299c0.347,0 0.641,0.147 0.884,0.442l10.764,14.43l0,-13.78c0,-0.329 0.091,-0.594 0.273,-0.793c0.182,-0.199 0.429,-0.299 0.741,-0.299Z" style="fill-rule:nonzero;"/><path d="M298.563,45.208c-1.699,0 -3.176,-0.381 -4.433,-1.144c-1.257,-0.763 -2.223,-1.846 -2.899,-3.25c-0.676,-1.404 -1.014,-3.059 -1.014,-4.966c0,-1.924 0.334,-3.592 1.001,-5.005c0.667,-1.413 1.629,-2.496 2.886,-3.25c1.257,-0.754 2.743,-1.131 4.459,-1.131c1.716,0 3.202,0.377 4.459,1.131c1.257,0.754 2.219,1.837 2.886,3.25c0.667,1.413 1.001,3.072 1.001,4.979c0,1.907 -0.338,3.566 -1.014,4.979c-0.676,1.413 -1.642,2.5 -2.899,3.263c-1.257,0.763 -2.734,1.144 -4.433,1.144Zm0,-1.82c1.941,0 3.454,-0.654 4.537,-1.963c1.083,-1.309 1.625,-3.176 1.625,-5.603c0,-2.427 -0.537,-4.29 -1.612,-5.59c-1.075,-1.3 -2.591,-1.95 -4.55,-1.95c-1.941,0 -3.454,0.654 -4.537,1.963c-1.083,1.309 -1.625,3.168 -1.625,5.577c0,2.409 0.542,4.273 1.625,5.59c1.083,1.317 2.596,1.976 4.537,1.976Z" style="fill-rule:nonzero;"/><path d="M333.767,27.19c0.069,-0.225 0.191,-0.394 0.364,-0.507c0.173,-0.113 0.364,-0.169 0.572,-0.169c0.277,0 0.516,0.082 0.715,0.247c0.199,0.165 0.299,0.386 0.299,0.663c0,0.121 -0.026,0.26 -0.078,0.416l-5.876,16.562c-0.087,0.243 -0.234,0.429 -0.442,0.559c-0.208,0.13 -0.442,0.195 -0.702,0.195c-0.243,0 -0.468,-0.065 -0.676,-0.195c-0.208,-0.13 -0.355,-0.316 -0.442,-0.559l-5.096,-14.404l-5.148,14.404c-0.087,0.243 -0.234,0.429 -0.442,0.559c-0.208,0.13 -0.433,0.195 -0.676,0.195c-0.243,0 -0.468,-0.065 -0.676,-0.195c-0.208,-0.13 -0.355,-0.316 -0.442,-0.559l-5.902,-16.562c-0.052,-0.139 -0.078,-0.269 -0.078,-0.39c0,-0.277 0.108,-0.503 0.325,-0.676c0.217,-0.173 0.464,-0.26 0.741,-0.26c0.208,0 0.403,0.056 0.585,0.169c0.182,0.113 0.308,0.282 0.377,0.507l5.122,14.768l5.2,-14.612c0.087,-0.26 0.225,-0.455 0.416,-0.585c0.191,-0.13 0.399,-0.195 0.624,-0.195c0.225,0 0.433,0.069 0.624,0.208c0.191,0.139 0.329,0.338 0.416,0.598l5.122,14.638l5.174,-14.82Z" style="fill-rule:nonzero;"/><path d="M340.033,45.13c-0.329,0 -0.589,-0.1 -0.78,-0.299c-0.191,-0.199 -0.286,-0.464 -0.286,-0.793l0,-16.406c0,-0.329 0.095,-0.594 0.286,-0.793c0.191,-0.199 0.451,-0.299 0.78,-0.299c0.329,0 0.589,0.1 0.78,0.299c0.191,0.199 0.286,0.464 0.286,0.793l0,16.406c0,0.329 -0.095,0.594 -0.286,0.793c-0.191,0.199 -0.451,0.299 -0.78,0.299Z" style="fill-rule:nonzero;"/><path d="M359.325,26.54c0.312,0 0.555,0.1 0.728,0.299c0.173,0.199 0.26,0.464 0.26,0.793l0,16.406c0,0.329 -0.091,0.594 -0.273,0.793c-0.182,0.199 -0.438,0.299 -0.767,0.299c-0.329,0 -0.615,-0.147 -0.858,-0.442l-10.79,-14.43l0,13.78c0,0.329 -0.091,0.594 -0.273,0.793c-0.182,0.199 -0.429,0.299 -0.741,0.299c-0.312,0 -0.555,-0.1 -0.728,-0.299c-0.173,-0.199 -0.26,-0.464 -0.26,-0.793l0,-16.406c0,-0.329 0.091,-0.594 0.273,-0.793c0.182,-0.199 0.438,-0.299 0.767,-0.299c0.347,0 0.641,0.147 0.884,0.442l10.764,14.43l0,-13.78c0,-0.329 0.091,-0.594 0.273,-0.793c0.182,-0.199 0.429,-0.299 0.741,-0.299Z" style="fill-rule:nonzero;"/><path d="M378.461,35.458c0.26,0 0.472,0.078 0.637,0.234c0.165,0.156 0.247,0.373 0.247,0.65l0,6.474c0,0.416 -0.065,0.728 -0.195,0.936c-0.13,0.208 -0.368,0.373 -0.715,0.494c-0.693,0.295 -1.534,0.529 -2.522,0.702c-0.988,0.173 -1.976,0.26 -2.964,0.26c-1.82,0 -3.389,-0.373 -4.706,-1.118c-1.317,-0.745 -2.327,-1.82 -3.029,-3.224c-0.702,-1.404 -1.053,-3.085 -1.053,-5.044c0,-1.924 0.347,-3.588 1.04,-4.992c0.693,-1.404 1.69,-2.483 2.99,-3.237c1.3,-0.754 2.825,-1.131 4.576,-1.131c1.213,0 2.34,0.186 3.38,0.559c1.04,0.373 1.915,0.906 2.626,1.599c0.295,0.295 0.442,0.598 0.442,0.91c0,0.243 -0.069,0.455 -0.208,0.637c-0.139,0.182 -0.312,0.273 -0.52,0.273c-0.208,0 -0.451,-0.104 -0.728,-0.312c-0.901,-0.693 -1.716,-1.174 -2.444,-1.443c-0.728,-0.269 -1.569,-0.403 -2.522,-0.403c-2.063,0 -3.644,0.65 -4.745,1.95c-1.101,1.3 -1.651,3.163 -1.651,5.59c0,2.479 0.559,4.364 1.677,5.655c1.118,1.291 2.76,1.937 4.927,1.937c1.612,0 3.077,-0.243 4.394,-0.728l0,-5.564l-3.796,0c-0.295,0 -0.529,-0.078 -0.702,-0.234c-0.173,-0.156 -0.26,-0.355 -0.26,-0.598c0,-0.26 0.087,-0.464 0.26,-0.611c0.173,-0.147 0.407,-0.221 0.702,-0.221l4.862,0Z" style="fill-rule:nonzero;"/></g></g></svg>