<?xml version="1.0" encoding="UTF-8"?>
<svg width="83px" height="91px" viewBox="0 0 83 91" version="1.1" xmlns="http://www.w3.org/2000/svg" xmlns:xlink="http://www.w3.org/1999/xlink">
    <!-- Generator: Sketch 52.5 (67469) - http://www.bohemiancoding.com/sketch -->
    <title>register</title>
    <desc>Created with Sketch.</desc>
    <g id="Page-1" stroke="none" stroke-width="1" fill="none" fill-rule="evenodd">
        <g id="Artboard-Copy-55" transform="translate(-224.000000, -304.000000)" fill="#9E9E9E">
            <g id="register" transform="translate(224.000000, 304.000000)">
                <g id="Icon_Service_MySonicWall_Color" transform="translate(0.330275, 0.788991)">
                    <path d="M45.8021457,82.035513 C45.7533724,81.9894903 45.7047357,81.9433716 45.6562408,81.8971591 C42.6569256,79.0390049 40.6985859,76.2763008 40.2353544,74.0764473 C39.9052871,72.5089815 40.3362843,71.2950312 41.9614259,69.971244 C45.4101009,67.1624707 51.6169614,64.5450025 59.6862304,62.2873414 C61.5683116,61.7607631 63.5053959,61.2658591 65.4765374,60.8024826 C65.7420494,63.4949506 65.8645571,66.5483949 65.9194919,70.0240448 C65.9400586,71.3327111 65.9509615,71.5590629 65.956413,71.4422843 C65.9556696,71.7891417 65.955174,72.2989923 65.955174,73.0322132 C65.955174,73.0322132 62.6633914,79.6855363 45.8021457,82.035513 Z M30.3562025,82.82339 C13.203096,82.5269881 3.08527042,79.2632625 0.00272571735,73.0322132 C0.00173454741,71.8351078 0.000825974956,71.1186169 0,70.8827406 C0.00545143471,71.0715742 0.0195756065,70.9861021 0.0500540823,69.3594004 C0.421742812,49.4382047 3.2485595,43.6949313 23.417629,40.0449772 C23.417629,40.0449772 26.2885527,43.7125723 32.9789499,43.7125723 C39.669347,43.7125723 42.5397752,40.0449772 42.5397752,40.0449772 C52.8541781,41.9115443 58.6331651,44.3255121 61.8678173,48.9032342 C60.5515637,48.8349444 59.2873662,48.7828471 58.0806348,48.7481144 C46.5891767,48.417722 37.0345099,49.3694218 30.382432,51.9009804 C21.4899671,55.2851554 17.5743183,61.7945325 20.7457042,70.4901647 C22.4051081,75.0415519 25.7476647,79.1262965 30.3562025,82.82339 Z M32.9791976,38.4133062 C23.3361052,38.4133062 15.5185001,29.8142802 15.5185001,19.2067653 C15.5185001,8.59902593 18.0856302,0 32.9791976,0 C47.8727651,0 50.4393996,8.59902593 50.4393996,19.2067653 C50.4393996,29.8142802 42.6217945,38.4133062 32.9791976,38.4133062 Z" id="Combined-Shape" fill-rule="nonzero"></path>
                    <path d="M32.8157523,51.1552338 L32.8157523,43.6989583 C32.95857,43.7024542 33.1032241,43.7042417 33.2497248,43.7042417 C39.8851877,43.7042417 42.732047,40.0373456 42.732047,40.0373456 C52.9617594,41.903557 58.6932956,44.3170647 61.9013884,48.8939144 C60.5959424,48.8256376 59.3421251,48.7735502 58.1453021,48.7388241 C47.9284674,48.4427032 39.2552724,49.1766843 32.8157523,51.1552338 Z M65.480477,60.7908888 C65.7438095,63.4828499 65.8653113,66.5357123 65.919795,70.0106999 C65.9401929,71.3191168 65.9510063,71.5454254 65.956413,71.428669 C65.9559214,71.6598633 65.9555118,72.1897386 65.9551842,73.0182949 C63.5750248,77.8679562 56.9667363,80.9197895 46.1303187,82.1737948 C46.0272551,82.0768143 45.924774,81.9793931 45.8229237,81.8815514 C42.8482355,79.0239419 40.9059756,76.2617643 40.4465476,74.0623301 C40.1191905,72.4951629 40.5466488,71.281444 42.1584466,69.9579091 C45.5788048,67.1496711 51.7347013,64.5327017 59.7377143,62.2754708 C61.6043419,61.748993 63.525521,61.2541833 65.4804776,60.7908951 Z M32.8157523,38.4000665 L32.8157523,0.00251096311 C32.9593047,0.000839105467 33.104041,0 33.2499705,0 C48.0212482,0 50.5668084,8.59738716 50.5668084,19.2031049 C50.5668084,29.8085983 42.8133929,38.4059855 33.2499705,38.4059855 C33.1048071,38.4059855 32.9600607,38.4040048 32.8157523,38.4000665 Z" id="Combined-Shape" fill-rule="nonzero"></path>
                    <path d="M50.3793107,89.9689374 C50.3793107,89.9689374 29.241566,82.2573409 24.5811736,69.4253497 C19.3625726,55.0609981 38.7107118,51.7820664 58.5020798,52.3532958 C69.1673868,52.661459 82.2018349,54.3046829 82.2018349,54.3046829 C82.2018349,54.3046829 51.4067112,58.2779214 40.278703,67.3762523 C29.4131085,76.2613117 50.3793107,89.9689374 50.3793107,89.9689374" id="Fill-1"></path>
                </g>
            </g>
        </g>
    </g>
</svg>