<?xml version="1.0" encoding="UTF-8"?>
<svg width="567px" height="48px" viewBox="0 0 567 48" version="1.1" xmlns="http://www.w3.org/2000/svg" xmlns:xlink="http://www.w3.org/1999/xlink">
    <!-- Generator: Sketch 52.5 (67469) - http://www.bohemiancoding.com/sketch -->
    <title>RM Title</title>
    <desc>Created with Sketch.</desc>
    <g id="Page-1" stroke="none" stroke-width="1" fill="none" fill-rule="evenodd">
        <g id="RM-Composited" transform="translate(-1021.000000, -1946.000000)">
            <g id="RM-Title" transform="translate(1021.000000, 1946.000000)">
                <path d="M78.375,31.419 C78.5196674,31.6463345 78.592,31.8839988 78.592,32.132 C78.592,32.4420016 78.4731679,32.6951657 78.2355,32.8915 C77.9978321,33.0878343 77.7240015,33.186 77.414,33.186 C76.9386643,33.186 76.566668,32.9793354 76.298,32.566 L72.144,25.994 C71.606664,25.1466624 71.0486696,24.5628349 70.47,24.2425 C69.8913304,23.9221651 69.106005,23.762 68.114,23.762 L64.208,23.762 L64.208,31.853 C64.208,32.2456686 64.0943345,32.5608321 63.867,32.7985 C63.6396655,33.0361679 63.3400019,33.155 62.968,33.155 C62.5753314,33.155 62.2653345,33.0361679 62.038,32.7985 C61.8106655,32.5608321 61.697,32.2456686 61.697,31.853 L61.697,12.385 C61.697,12.0129981 61.8158321,11.7133345 62.0535,11.486 C62.2911679,11.2586655 62.6063314,11.145 62.999,11.145 L70.687,11.145 C73.0636785,11.145 74.8771604,11.6719947 76.1275,12.726 C77.3778396,13.7800053 78.003,15.3299898 78.003,17.376 C78.003,19.1120087 77.5018383,20.5069947 76.4995,21.561 C75.4971617,22.6150053 74.0660093,23.2556655 72.206,23.483 C72.7226692,23.6483342 73.1876646,23.9169981 73.601,24.289 C74.0143354,24.6610019 74.4276646,25.1776634 74.841,25.839 L78.375,31.419 Z M70.47,21.654 C72.1646751,21.654 73.4304958,21.3026702 74.2675,20.6 C75.1045042,19.8973298 75.523,18.8330071 75.523,17.407 C75.523,16.0016596 75.1096708,14.9580034 74.283,14.276 C73.4563292,13.5939966 72.1853419,13.253 70.47,13.253 L64.208,13.253 L64.208,21.654 L70.47,21.654 Z M84.234,33.155 C83.8413314,33.155 83.5313345,33.0361679 83.304,32.7985 C83.0766655,32.5608321 82.963,32.2456686 82.963,31.853 L82.963,12.292 C82.963,11.8993314 83.0766655,11.5841679 83.304,11.3465 C83.5313345,11.1088321 83.8413314,10.99 84.234,10.99 C84.6266686,10.99 84.9366655,11.1088321 85.164,11.3465 C85.3913345,11.5841679 85.505,11.8993314 85.505,12.292 L85.505,31.853 C85.505,32.2456686 85.3913345,32.5608321 85.164,32.7985 C84.9366655,33.0361679 84.6266686,33.155 84.234,33.155 Z M97.874,33.248 C96.3239923,33.248 94.8411737,33.0155023 93.4255,32.5505 C92.0098263,32.0854977 90.8783376,31.4603373 90.031,30.675 C89.7209984,30.3856652 89.566,30.0240022 89.566,29.59 C89.566,29.3006652 89.6486658,29.0475011 89.814,28.8305 C89.9793342,28.6134989 90.1756655,28.505 90.403,28.505 C90.671668,28.505 90.9609985,28.6186655 91.271,28.846 C93.1930096,30.3340074 95.3836544,31.078 97.843,31.078 C99.6203422,31.078 100.984329,30.7370034 101.935,30.055 C102.885671,29.3729966 103.361,28.401673 103.361,27.141 C103.361,26.4176631 103.133669,25.8338356 102.679,25.3895 C102.224331,24.9451644 101.625004,24.588668 100.881,24.32 C100.136996,24.051332 99.134673,23.7723348 97.874,23.483 C96.1793249,23.0903314 94.7895054,22.6770022 93.7045,22.243 C92.6194946,21.8089978 91.74117,21.189004 91.0695,20.383 C90.39783,19.576996 90.062,18.5230065 90.062,17.221 C90.062,15.9809938 90.39783,14.8805048 91.0695,13.9195 C91.74117,12.9584952 92.681494,12.2145026 93.8905,11.6875 C95.099506,11.1604974 96.4789923,10.897 98.029,10.897 C99.4756739,10.897 100.82416,11.1191644 102.0745,11.5635 C103.32484,12.0078356 104.373662,12.6433292 105.221,13.47 C105.551668,13.8006683 105.717,14.1623314 105.717,14.555 C105.717,14.8443348 105.634334,15.0974989 105.469,15.3145 C105.303666,15.5315011 105.107334,15.64 104.88,15.64 C104.652666,15.64 104.353002,15.5263345 103.981,15.299 C102.968328,14.4723292 102.028004,13.8936683 101.16,13.563 C100.291996,13.2323317 99.2483394,13.067 98.029,13.067 C96.3136581,13.067 94.9806714,13.4234964 94.03,14.1365 C93.0793286,14.8495036 92.604,15.8466603 92.604,17.128 C92.604,18.2233388 93.0224958,19.0448306 93.8595,19.5925 C94.6965042,20.1401694 95.9829913,20.6206646 97.719,21.034 C99.5996761,21.4886689 101.077328,21.9071648 102.152,22.2895 C103.226672,22.6718352 104.120496,23.2453295 104.8335,24.01 C105.546504,24.7746705 105.903,25.7976603 105.903,27.079 C105.903,28.2983394 105.56717,29.3729954 104.8955,30.303 C104.22383,31.2330047 103.278339,31.9563307 102.059,32.473 C100.839661,32.9896692 99.4446745,33.248 97.874,33.248 Z M125.743,31.078 C126.032335,31.346668 126.177,31.6463317 126.177,31.977 C126.177,32.2663348 126.058168,32.5298321 125.8205,32.7675 C125.582832,33.0051679 125.309002,33.124 124.999,33.124 C124.730332,33.124 124.451335,33.0000012 124.162,32.752 L112.568,22.615 L112.568,31.853 C112.568,32.2456686 112.454334,32.5608321 112.227,32.7985 C111.999666,33.0361679 111.689669,33.155 111.297,33.155 C110.904331,33.155 110.594334,33.0361679 110.367,32.7985 C110.139666,32.5608321 110.026,32.2456686 110.026,31.853 L110.026,12.292 C110.026,11.8993314 110.139666,11.5841679 110.367,11.3465 C110.594334,11.1088321 110.904331,10.99 111.297,10.99 C111.689669,10.99 111.999666,11.1088321 112.227,11.3465 C112.454334,11.5841679 112.568,11.8993314 112.568,12.292 L112.568,21.189 L123.635,11.362 C123.862334,11.1346655 124.130998,11.021 124.441,11.021 C124.751002,11.021 125.019666,11.1398321 125.247,11.3775 C125.474334,11.6151679 125.588,11.8786652 125.588,12.168 C125.588,12.4780016 125.453668,12.767332 125.185,13.036 L115.172,21.84 L125.743,31.078 Z M156.898,10.99 C157.290669,10.99 157.595499,11.1088321 157.8125,11.3465 C158.029501,11.5841679 158.138,11.8993314 158.138,12.292 L158.138,31.915 C158.138,32.2870019 158.034668,32.5866655 157.828,32.814 C157.621332,33.0413345 157.332002,33.155 156.96,33.155 C156.587998,33.155 156.309001,33.0413345 156.123,32.814 C155.936999,32.5866655 155.844,32.2870019 155.844,31.915 L155.844,16.074 L149.117,28.97 C148.827665,29.5693363 148.404003,29.869 147.846,29.869 C147.308664,29.869 146.885002,29.5693363 146.575,28.97 L139.817,16.229 L139.817,31.915 C139.817,32.2870019 139.718834,32.5866655 139.5225,32.814 C139.326166,33.0413345 139.042002,33.155 138.67,33.155 C138.297998,33.155 138.008668,33.0413345 137.802,32.814 C137.595332,32.5866655 137.492,32.2870019 137.492,31.915 L137.492,12.292 C137.492,11.8993314 137.605666,11.5841679 137.833,11.3465 C138.060334,11.1088321 138.370331,10.99 138.763,10.99 C139.279669,10.99 139.692998,11.2896637 140.003,11.889 L147.877,26.986 L155.658,11.889 C155.823334,11.5583317 156.004166,11.325834 156.2005,11.1915 C156.396834,11.057166 156.629332,10.99 156.898,10.99 Z M164.865,33 C164.472331,33 164.157168,32.8863345 163.9195,32.659 C163.681832,32.4316655 163.563,32.1320019 163.563,31.76 L163.563,12.385 C163.563,12.0129981 163.681832,11.7133345 163.9195,11.486 C164.157168,11.2586655 164.472331,11.145 164.865,11.145 L176.459,11.145 C176.831002,11.145 177.120332,11.2379991 177.327,11.424 C177.533668,11.6100009 177.637,11.8683317 177.637,12.199 C177.637,12.5296683 177.533668,12.7879991 177.327,12.974 C177.120332,13.1600009 176.831002,13.253 176.459,13.253 L166.074,13.253 L166.074,20.848 L175.839,20.848 C176.211002,20.848 176.500332,20.9409991 176.707,21.127 C176.913668,21.3130009 177.017,21.5713317 177.017,21.902 C177.017,22.2326683 176.913668,22.4909991 176.707,22.677 C176.500332,22.8630009 176.211002,22.956 175.839,22.956 L166.074,22.956 L166.074,30.892 L176.459,30.892 C176.831002,30.892 177.120332,30.9798325 177.327,31.1555 C177.533668,31.3311675 177.637,31.5946649 177.637,31.946 C177.637,32.2766683 177.533668,32.5349991 177.327,32.721 C177.120332,32.9070009 176.831002,33 176.459,33 L164.865,33 Z M188.177,33.155 C187.784331,33.155 187.469168,33.0361679 187.2315,32.7985 C186.993832,32.5608321 186.875,32.2456686 186.875,31.853 L186.875,13.315 L180.21,13.315 C179.837998,13.315 179.548668,13.2220009 179.342,13.036 C179.135332,12.8499991 179.032,12.5813351 179.032,12.23 C179.032,11.8786649 179.135332,11.6100009 179.342,11.424 C179.548668,11.2379991 179.837998,11.145 180.21,11.145 L196.113,11.145 C196.485002,11.145 196.774332,11.2379991 196.981,11.424 C197.187668,11.6100009 197.291,11.8786649 197.291,12.23 C197.291,12.5813351 197.187668,12.8499991 196.981,13.036 C196.774332,13.2220009 196.485002,13.315 196.113,13.315 L189.448,13.315 L189.448,31.853 C189.448,32.2456686 189.334334,32.5608321 189.107,32.7985 C188.879666,33.0361679 188.569669,33.155 188.177,33.155 Z M201.445,33 C201.052331,33 200.737168,32.8863345 200.4995,32.659 C200.261832,32.4316655 200.143,32.1320019 200.143,31.76 L200.143,12.385 C200.143,12.0129981 200.261832,11.7133345 200.4995,11.486 C200.737168,11.2586655 201.052331,11.145 201.445,11.145 L213.039,11.145 C213.411002,11.145 213.700332,11.2379991 213.907,11.424 C214.113668,11.6100009 214.217,11.8683317 214.217,12.199 C214.217,12.5296683 214.113668,12.7879991 213.907,12.974 C213.700332,13.1600009 213.411002,13.253 213.039,13.253 L202.654,13.253 L202.654,20.848 L212.419,20.848 C212.791002,20.848 213.080332,20.9409991 213.287,21.127 C213.493668,21.3130009 213.597,21.5713317 213.597,21.902 C213.597,22.2326683 213.493668,22.4909991 213.287,22.677 C213.080332,22.8630009 212.791002,22.956 212.419,22.956 L202.654,22.956 L202.654,30.892 L213.039,30.892 C213.411002,30.892 213.700332,30.9798325 213.907,31.1555 C214.113668,31.3311675 214.217,31.5946649 214.217,31.946 C214.217,32.2766683 214.113668,32.5349991 213.907,32.721 C213.700332,32.9070009 213.411002,33 213.039,33 L201.445,33 Z M234.863,31.419 C235.007667,31.6463345 235.08,31.8839988 235.08,32.132 C235.08,32.4420016 234.961168,32.6951657 234.7235,32.8915 C234.485832,33.0878343 234.212002,33.186 233.902,33.186 C233.426664,33.186 233.054668,32.9793354 232.786,32.566 L228.632,25.994 C228.094664,25.1466624 227.53667,24.5628349 226.958,24.2425 C226.37933,23.9221651 225.594005,23.762 224.602,23.762 L220.696,23.762 L220.696,31.853 C220.696,32.2456686 220.582334,32.5608321 220.355,32.7985 C220.127666,33.0361679 219.828002,33.155 219.456,33.155 C219.063331,33.155 218.753334,33.0361679 218.526,32.7985 C218.298666,32.5608321 218.185,32.2456686 218.185,31.853 L218.185,12.385 C218.185,12.0129981 218.303832,11.7133345 218.5415,11.486 C218.779168,11.2586655 219.094331,11.145 219.487,11.145 L227.175,11.145 C229.551679,11.145 231.36516,11.6719947 232.6155,12.726 C233.86584,13.7800053 234.491,15.3299898 234.491,17.376 C234.491,19.1120087 233.989838,20.5069947 232.9875,21.561 C231.985162,22.6150053 230.554009,23.2556655 228.694,23.483 C229.210669,23.6483342 229.675665,23.9169981 230.089,24.289 C230.502335,24.6610019 230.915665,25.1776634 231.329,25.839 L234.863,31.419 Z M226.958,21.654 C228.652675,21.654 229.918496,21.3026702 230.7555,20.6 C231.592504,19.8973298 232.011,18.8330071 232.011,17.407 C232.011,16.0016596 231.597671,14.9580034 230.771,14.276 C229.944329,13.5939966 228.673342,13.253 226.958,13.253 L220.696,13.253 L220.696,21.654 L226.958,21.654 Z M246.426,33.248 C244.875992,33.248 243.393174,33.0155023 241.9775,32.5505 C240.561826,32.0854977 239.430338,31.4603373 238.583,30.675 C238.272998,30.3856652 238.118,30.0240022 238.118,29.59 C238.118,29.3006652 238.200666,29.0475011 238.366,28.8305 C238.531334,28.6134989 238.727666,28.505 238.955,28.505 C239.223668,28.505 239.512998,28.6186655 239.823,28.846 C241.74501,30.3340074 243.935654,31.078 246.395,31.078 C248.172342,31.078 249.536329,30.7370034 250.487,30.055 C251.437671,29.3729966 251.913,28.401673 251.913,27.141 C251.913,26.4176631 251.685669,25.8338356 251.231,25.3895 C250.776331,24.9451644 250.177004,24.588668 249.433,24.32 C248.688996,24.051332 247.686673,23.7723348 246.426,23.483 C244.731325,23.0903314 243.341505,22.6770022 242.2565,22.243 C241.171495,21.8089978 240.29317,21.189004 239.6215,20.383 C238.94983,19.576996 238.614,18.5230065 238.614,17.221 C238.614,15.9809938 238.94983,14.8805048 239.6215,13.9195 C240.29317,12.9584952 241.233494,12.2145026 242.4425,11.6875 C243.651506,11.1604974 245.030992,10.897 246.581,10.897 C248.027674,10.897 249.37616,11.1191644 250.6265,11.5635 C251.87684,12.0078356 252.925662,12.6433292 253.773,13.47 C254.103668,13.8006683 254.269,14.1623314 254.269,14.555 C254.269,14.8443348 254.186334,15.0974989 254.021,15.3145 C253.855666,15.5315011 253.659334,15.64 253.432,15.64 C253.204666,15.64 252.905002,15.5263345 252.533,15.299 C251.520328,14.4723292 250.580004,13.8936683 249.712,13.563 C248.843996,13.2323317 247.800339,13.067 246.581,13.067 C244.865658,13.067 243.532671,13.4234964 242.582,14.1365 C241.631329,14.8495036 241.156,15.8466603 241.156,17.128 C241.156,18.2233388 241.574496,19.0448306 242.4115,19.5925 C243.248504,20.1401694 244.534991,20.6206646 246.271,21.034 C248.151676,21.4886689 249.629328,21.9071648 250.704,22.2895 C251.778672,22.6718352 252.672496,23.2453295 253.3855,24.01 C254.098504,24.7746705 254.455,25.7976603 254.455,27.079 C254.455,28.2983394 254.11917,29.3729954 253.4475,30.303 C252.77583,31.2330047 251.830339,31.9563307 250.611,32.473 C249.391661,32.9896692 247.996675,33.248 246.426,33.248 Z" id="Risk-Meters-Title" fill="#999999"></path>
                <g id="Tenant-Dropdown" transform="translate(268.000000, 1.000000)" fill="#888888">
                    <path d="M29.924,24.812 C30.2600017,24.812 30.5213324,24.9006658 30.708,25.078 C30.8946676,25.2553342 30.988,25.4839986 30.988,25.764 C30.988,26.3986698 30.6333369,26.716 29.924,26.716 L27.824,26.716 L27.824,29.964 C27.824,30.3373352 27.7166677,30.6266656 27.502,30.832 C27.2873323,31.0373344 27.0120017,31.14 26.676,31.14 C26.3399983,31.14 26.0693344,31.0373344 25.864,30.832 C25.6586656,30.6266656 25.556,30.3373352 25.556,29.964 L25.556,26.716 L17.268,26.716 C16.9319983,26.716 16.6706676,26.6226676 16.484,26.436 C16.2973324,26.2493324 16.204,26.0160014 16.204,25.736 C16.204,25.4746654 16.3066656,25.1853349 16.512,24.868 L25.668,11.624 C25.9293346,11.2879983 26.2653313,11.12 26.676,11.12 C26.9933349,11.12 27.2639989,11.2226656 27.488,11.428 C27.7120011,11.6333344 27.824,11.9226648 27.824,12.296 L27.824,24.812 L29.924,24.812 Z M18.808,24.812 L25.556,24.812 L25.556,15.096 L18.808,24.812 Z M48.908,20.724 C49.1880014,20.724 49.4166658,20.8079992 49.594,20.976 C49.7713342,21.1440008 49.86,21.3773318 49.86,21.676 L49.86,28.648 C49.86,29.0960022 49.7900007,29.4319989 49.65,29.656 C49.5099993,29.8800011 49.2533352,30.0573327 48.88,30.188 C48.1333296,30.5053349 47.2280053,30.7573324 46.164,30.944 C45.0999947,31.1306676 44.0360053,31.224 42.972,31.224 C41.0119902,31.224 39.3226738,30.8226707 37.904,30.02 C36.4853262,29.2173293 35.3980038,28.0600076 34.642,26.548 C33.8859962,25.0359924 33.508,23.2253439 33.508,21.116 C33.508,19.0439896 33.8813296,17.2520076 34.628,15.74 C35.3746704,14.2279924 36.447993,13.0660041 37.848,12.254 C39.248007,11.4419959 40.8906572,11.036 42.776,11.036 C44.0826732,11.036 45.2959944,11.2366647 46.416,11.638 C47.5360056,12.0393353 48.4786628,12.6133296 49.244,13.36 C49.5613349,13.6773349 49.72,14.0039983 49.72,14.34 C49.72,14.6013346 49.6453341,14.829999 49.496,15.026 C49.3466659,15.222001 49.1600011,15.32 48.936,15.32 C48.7119989,15.32 48.4506682,15.2080011 48.152,14.984 C47.1813285,14.2373296 46.3040039,13.7193348 45.52,13.43 C44.7359961,13.1406652 43.8306718,12.996 42.804,12.996 C40.5826556,12.996 38.8793393,13.695993 37.694,15.096 C36.5086607,16.496007 35.916,18.5026536 35.916,21.116 C35.916,23.7853467 36.517994,25.8153264 37.722,27.206 C38.926006,28.5966736 40.694655,29.292 43.028,29.292 C44.7640087,29.292 46.3413262,29.0306693 47.76,28.508 L47.76,22.516 L43.672,22.516 C43.3546651,22.516 43.1026676,22.4320008 42.916,22.264 C42.7293324,22.0959992 42.636,21.8813346 42.636,21.62 C42.636,21.3399986 42.7293324,21.1206675 42.916,20.962 C43.1026676,20.8033325 43.3546651,20.724 43.672,20.724 L48.908,20.724 Z M76.404,20.724 C76.6840014,20.724 76.9126658,20.8079992 77.09,20.976 C77.2673342,21.1440008 77.356,21.3773318 77.356,21.676 L77.356,28.648 C77.356,29.0960022 77.2860007,29.4319989 77.146,29.656 C77.0059993,29.8800011 76.7493352,30.0573327 76.376,30.188 C75.6293296,30.5053349 74.7240053,30.7573324 73.66,30.944 C72.5959947,31.1306676 71.5320053,31.224 70.468,31.224 C68.5079902,31.224 66.8186738,30.8226707 65.4,30.02 C63.9813262,29.2173293 62.8940038,28.0600076 62.138,26.548 C61.3819962,25.0359924 61.004,23.2253439 61.004,21.116 C61.004,19.0439896 61.3773296,17.2520076 62.124,15.74 C62.8706704,14.2279924 63.943993,13.0660041 65.344,12.254 C66.744007,11.4419959 68.3866572,11.036 70.272,11.036 C71.5786732,11.036 72.7919944,11.2366647 73.912,11.638 C75.0320056,12.0393353 75.9746628,12.6133296 76.74,13.36 C77.0573349,13.6773349 77.216,14.0039983 77.216,14.34 C77.216,14.6013346 77.1413341,14.829999 76.992,15.026 C76.8426659,15.222001 76.6560011,15.32 76.432,15.32 C76.2079989,15.32 75.9466682,15.2080011 75.648,14.984 C74.6773285,14.2373296 73.8000039,13.7193348 73.016,13.43 C72.2319961,13.1406652 71.3266718,12.996 70.3,12.996 C68.0786556,12.996 66.3753393,13.695993 65.19,15.096 C64.0046607,16.496007 63.412,18.5026536 63.412,21.116 C63.412,23.7853467 64.013994,25.8153264 65.218,27.206 C66.422006,28.5966736 68.190655,29.292 70.524,29.292 C72.2600087,29.292 73.8373262,29.0306693 75.256,28.508 L75.256,22.516 L71.168,22.516 C70.8506651,22.516 70.5986676,22.4320008 70.412,22.264 C70.2253324,22.0959992 70.132,21.8813346 70.132,21.62 C70.132,21.3399986 70.2253324,21.1206675 70.412,20.962 C70.5986676,20.8033325 70.8506651,20.724 71.168,20.724 L76.404,20.724 Z M82.816,31.14 C82.4799983,31.14 82.2046677,31.042001 81.99,30.846 C81.7753323,30.649999 81.668,30.3746684 81.668,30.02 L81.668,12.24 C81.668,11.8853316 81.7753323,11.610001 81.99,11.414 C82.2046677,11.217999 82.4799983,11.12 82.816,11.12 C83.1333349,11.12 83.3993323,11.217999 83.614,11.414 C83.8286677,11.610001 83.936,11.8853316 83.936,12.24 L83.936,30.02 C83.936,30.3746684 83.8286677,30.649999 83.614,30.846 C83.3993323,31.042001 83.1333349,31.14 82.816,31.14 Z M93.82,31.196 C92.5319936,31.196 91.3980049,30.9066696 90.418,30.328 C89.4379951,29.7493304 88.6820027,28.9233387 88.15,27.85 C87.6179973,26.7766613 87.352,25.5306738 87.352,24.112 C87.352,22.6933262 87.6179973,21.4473387 88.15,20.374 C88.6820027,19.3006613 89.4379951,18.4746696 90.418,17.896 C91.3980049,17.3173304 92.5319936,17.028 93.82,17.028 C95.1080064,17.028 96.2466617,17.3173304 97.236,17.896 C98.2253383,18.4746696 98.9859973,19.3006613 99.518,20.374 C100.050003,21.4473387 100.316,22.6933262 100.316,24.112 C100.316,25.5306738 100.050003,26.7766613 99.518,27.85 C98.9859973,28.9233387 98.2253383,29.7493304 97.236,30.328 C96.2466617,30.9066696 95.1080064,31.196 93.82,31.196 Z M93.82,29.32 C95.1640067,29.32 96.1953297,28.8766711 96.914,27.99 C97.6326703,27.1033289 97.992,25.8106752 97.992,24.112 C97.992,22.4506584 97.6280036,21.1673379 96.9,20.262 C96.1719964,19.3566621 95.14534,18.904 93.82,18.904 C92.49466,18.904 91.4680036,19.3566621 90.74,20.262 C90.0119964,21.1673379 89.648,22.4506584 89.648,24.112 C89.648,25.7920084 90.0073297,27.0799955 90.726,27.976 C91.4446703,28.8720045 92.4759933,29.32 93.82,29.32 Z M110.564,17.028 C111.758673,17.028 112.813329,17.3173304 113.728,17.896 C114.642671,18.4746696 115.351997,19.2959947 115.856,20.36 C116.360003,21.4240053 116.612,22.655993 116.612,24.056 C116.612,25.4746738 116.360003,26.7206613 115.856,27.794 C115.351997,28.8673387 114.642671,29.7026637 113.728,30.3 C112.813329,30.8973363 111.758673,31.196 110.564,31.196 C109.499995,31.196 108.571337,30.962669 107.778,30.496 C106.984663,30.029331 106.382669,29.366671 105.972,28.508 L105.972,30.02 C105.972,30.3560017 105.874001,30.6266656 105.678,30.832 C105.481999,31.0373344 105.206668,31.14 104.852,31.14 C104.497332,31.14 104.217334,31.0373344 104.012,30.832 C103.806666,30.6266656 103.704,30.3560017 103.704,30.02 L103.704,12.212 C103.704,11.8946651 103.806666,11.6333344 104.012,11.428 C104.217334,11.2226656 104.497332,11.12 104.852,11.12 C105.206668,11.12 105.481999,11.217999 105.678,11.414 C105.874001,11.610001 105.972,11.8759983 105.972,12.212 L105.972,19.716 C106.382669,18.857329 106.984663,18.194669 107.778,17.728 C108.571337,17.261331 109.499995,17.028 110.564,17.028 Z M110.116,29.32 C111.44134,29.32 112.467996,28.8580046 113.196,27.934 C113.924004,27.0099954 114.288,25.7173416 114.288,24.056 C114.288,22.4319919 113.924004,21.1720045 113.196,20.276 C112.467996,19.3799955 111.44134,18.932 110.116,18.932 C108.79066,18.932 107.76867,19.3799955 107.05,20.276 C106.33133,21.1720045 105.972,22.4506584 105.972,24.112 C105.972,25.7733416 106.33133,27.0566621 107.05,27.962 C107.76867,28.8673379 108.79066,29.32 110.116,29.32 Z M125.572,17.028 C128.988017,17.028 130.696,18.8199821 130.696,22.404 L130.696,30.02 C130.696,30.3560017 130.598001,30.6266656 130.402,30.832 C130.205999,31.0373344 129.940002,31.14 129.604,31.14 C129.267998,31.14 128.997334,31.0373344 128.792,30.832 C128.586666,30.6266656 128.484,30.3560017 128.484,30.02 L128.484,28.676 C128.129332,29.4786707 127.588004,30.0993311 126.86,30.538 C126.131996,30.9766689 125.292005,31.196 124.34,31.196 C123.462662,31.196 122.655337,31.0186684 121.918,30.664 C121.180663,30.3093316 120.597335,29.8146698 120.168,29.18 C119.738665,28.5453302 119.524,27.8453372 119.524,27.08 C119.524,26.0533282 119.785331,25.2553362 120.308,24.686 C120.830669,24.1166638 121.689327,23.7060013 122.884,23.454 C124.078673,23.2019987 125.739989,23.076 127.868,23.076 L128.484,23.076 L128.484,22.152 C128.484,21.0319944 128.255336,20.2106693 127.798,19.688 C127.340664,19.1653307 126.598672,18.904 125.572,18.904 C124.30266,18.904 123.014673,19.2493299 121.708,19.94 C121.203997,20.2573349 120.849334,20.416 120.644,20.416 C120.419999,20.416 120.233334,20.3320008 120.084,20.164 C119.934666,19.9959992 119.86,19.7813346 119.86,19.52 C119.86,19.2586654 119.939333,19.030001 120.098,18.834 C120.256667,18.637999 120.513332,18.4373344 120.868,18.232 C121.521337,17.8586648 122.263329,17.5646677 123.094,17.35 C123.924671,17.1353323 124.750663,17.028 125.572,17.028 Z M124.648,29.404 C125.768006,29.404 126.68733,29.0260038 127.406,28.27 C128.12467,27.5139962 128.484,26.5386726 128.484,25.344 L128.484,24.532 L127.98,24.532 C126.337325,24.532 125.086671,24.6019993 124.228,24.742 C123.369329,24.8820007 122.758002,25.1153317 122.394,25.442 C122.029998,25.7686683 121.848,26.2493302 121.848,26.884 C121.848,27.6120036 122.113997,28.2139976 122.646,28.69 C123.178003,29.1660024 123.845329,29.404 124.648,29.404 Z M135.988,31.14 C135.651998,31.14 135.376668,31.042001 135.162,30.846 C134.947332,30.649999 134.84,30.3746684 134.84,30.02 L134.84,12.24 C134.84,11.8853316 134.947332,11.610001 135.162,11.414 C135.376668,11.217999 135.651998,11.12 135.988,11.12 C136.305335,11.12 136.571332,11.217999 136.786,11.414 C137.000668,11.610001 137.108,11.8853316 137.108,12.24 L137.108,30.02 C137.108,30.3746684 137.000668,30.649999 136.786,30.846 C136.571332,31.042001 136.305335,31.14 135.988,31.14 Z M163.652,11.12 C163.988002,11.12 164.249332,11.2273323 164.436,11.442 C164.622668,11.6566677 164.716,11.9413316 164.716,12.296 L164.716,29.964 C164.716,30.3186684 164.618001,30.6033323 164.422,30.818 C164.225999,31.0326677 163.950668,31.14 163.596,31.14 C163.241332,31.14 162.933335,30.9813349 162.672,30.664 L151.052,15.124 L151.052,29.964 C151.052,30.3186684 150.954001,30.6033323 150.758,30.818 C150.561999,31.0326677 150.296002,31.14 149.96,31.14 C149.623998,31.14 149.362668,31.0326677 149.176,30.818 C148.989332,30.6033323 148.896,30.3186684 148.896,29.964 L148.896,12.296 C148.896,11.9413316 148.993999,11.6566677 149.19,11.442 C149.386001,11.2273323 149.661332,11.12 150.016,11.12 C150.389335,11.12 150.706665,11.2786651 150.968,11.596 L162.56,27.136 L162.56,12.296 C162.56,11.9413316 162.657999,11.6566677 162.854,11.442 C163.050001,11.2273323 163.315998,11.12 163.652,11.12 Z M179.808,27.836 C180.013334,27.836 180.190666,27.9199992 180.34,28.088 C180.489334,28.2560008 180.564,28.4706654 180.564,28.732 C180.564,29.198669 180.237337,29.627998 179.584,30.02 C178.911997,30.412002 178.20267,30.705999 177.456,30.902 C176.70933,31.098001 175.981337,31.196 175.272,31.196 C173.162656,31.196 171.496673,30.5706729 170.274,29.32 C169.051327,28.0693271 168.44,26.3426777 168.44,24.14 C168.44,22.739993 168.710664,21.5033387 169.252,20.43 C169.793336,19.3566613 170.553995,18.5213363 171.534,17.924 C172.514005,17.3266637 173.629327,17.028 174.88,17.028 C176.653342,17.028 178.062661,17.6066609 179.108,18.764 C180.153339,19.9213391 180.676,21.4893234 180.676,23.468 C180.676,23.8413352 180.601334,24.1119992 180.452,24.28 C180.302666,24.4480008 180.060002,24.532 179.724,24.532 L170.708,24.532 C170.876001,27.7426827 172.397319,29.348 175.272,29.348 C176.000004,29.348 176.625331,29.250001 177.148,29.054 C177.670669,28.857999 178.230664,28.5920017 178.828,28.256 C179.313336,27.9759986 179.639999,27.836 179.808,27.836 Z M174.908,18.792 C173.713327,18.792 172.75667,19.1653296 172.038,19.912 C171.31933,20.6586704 170.894667,21.7133265 170.764,23.076 L178.688,23.076 C178.650666,21.6946598 178.305337,20.635337 177.652,19.898 C176.998663,19.160663 176.084006,18.792 174.908,18.792 Z M190.308,29.348 C190.961337,29.4040003 191.288,29.702664 191.288,30.244 C191.288,30.5613349 191.171334,30.7993325 190.938,30.958 C190.704666,31.1166675 190.354669,31.1773335 189.888,31.14 L189.132,31.084 C187.638659,30.9719994 186.537337,30.5240039 185.828,29.74 C185.118663,28.9559961 184.764,27.7706746 184.764,26.184 L184.764,19.156 L182.888,19.156 C182.570665,19.156 182.323334,19.0766675 182.146,18.918 C181.968666,18.7593325 181.88,18.5493346 181.88,18.288 C181.88,18.0079986 181.968666,17.7840008 182.146,17.616 C182.323334,17.4479992 182.570665,17.364 182.888,17.364 L184.764,17.364 L184.764,14.2 C184.764,13.8453316 184.866666,13.570001 185.072,13.374 C185.277334,13.177999 185.557332,13.08 185.912,13.08 C186.248002,13.08 186.518666,13.177999 186.724,13.374 C186.929334,13.570001 187.032,13.8453316 187.032,14.2 L187.032,17.364 L190.14,17.364 C190.438668,17.364 190.676666,17.4479992 190.854,17.616 C191.031334,17.7840008 191.12,18.0079986 191.12,18.288 C191.12,18.5493346 191.031334,18.7593325 190.854,18.918 C190.676666,19.0766675 190.438668,19.156 190.14,19.156 L187.032,19.156 L187.032,26.296 C187.032,27.3226718 187.241998,28.0646644 187.662,28.522 C188.082002,28.9793356 188.711996,29.2359997 189.552,29.292 L190.308,29.348 Z M212.176,17.812 C212.362668,17.3639978 212.670665,17.14 213.1,17.14 C213.380001,17.14 213.631999,17.2333324 213.856,17.42 C214.080001,17.6066676 214.192,17.8399986 214.192,18.12 C214.192,18.2506673 214.164,18.3906659 214.108,18.54 L209.46,30.3 C209.347999,30.5426679 209.184668,30.7339993 208.97,30.874 C208.755332,31.0140007 208.517335,31.084 208.256,31.084 C208.013332,31.084 207.784668,31.0140007 207.57,30.874 C207.355332,30.7339993 207.192001,30.5426679 207.08,30.3 L203.216,20.472 L199.38,30.3 C199.286666,30.5426679 199.128001,30.7339993 198.904,30.874 C198.679999,31.0140007 198.437335,31.084 198.176,31.084 C197.933332,31.084 197.700001,31.0140007 197.476,30.874 C197.251999,30.7339993 197.084001,30.5426679 196.972,30.3 L192.324,18.568 C192.268,18.4186659 192.24,18.2880006 192.24,18.176 C192.24,17.8773318 192.365999,17.6253344 192.618,17.42 C192.870001,17.2146656 193.145332,17.112 193.444,17.112 C193.892002,17.112 194.209332,17.3359978 194.396,17.784 L198.232,28.116 L202.18,17.868 C202.292001,17.6253321 202.445999,17.4386673 202.642,17.308 C202.838001,17.1773327 203.047999,17.112 203.272,17.112 C203.514668,17.112 203.733999,17.1773327 203.93,17.308 C204.126001,17.4386673 204.270666,17.6253321 204.364,17.868 L208.312,28.088 L212.176,17.812 Z M222.76,31.196 C221.471994,31.196 220.338005,30.9066696 219.358,30.328 C218.377995,29.7493304 217.622003,28.9233387 217.09,27.85 C216.557997,26.7766613 216.292,25.5306738 216.292,24.112 C216.292,22.6933262 216.557997,21.4473387 217.09,20.374 C217.622003,19.3006613 218.377995,18.4746696 219.358,17.896 C220.338005,17.3173304 221.471994,17.028 222.76,17.028 C224.048006,17.028 225.186662,17.3173304 226.176,17.896 C227.165338,18.4746696 227.925997,19.3006613 228.458,20.374 C228.990003,21.4473387 229.256,22.6933262 229.256,24.112 C229.256,25.5306738 228.990003,26.7766613 228.458,27.85 C227.925997,28.9233387 227.165338,29.7493304 226.176,30.328 C225.186662,30.9066696 224.048006,31.196 222.76,31.196 Z M222.76,29.32 C224.104007,29.32 225.13533,28.8766711 225.854,27.99 C226.57267,27.1033289 226.932,25.8106752 226.932,24.112 C226.932,22.4506584 226.568004,21.1673379 225.84,20.262 C225.111996,19.3566621 224.08534,18.904 222.76,18.904 C221.43466,18.904 220.408004,19.3566621 219.68,20.262 C218.951996,21.1673379 218.588,22.4506584 218.588,24.112 C218.588,25.7920084 218.94733,27.0799955 219.666,27.976 C220.38467,28.8720045 221.415993,29.32 222.76,29.32 Z M239.392,17.084 C240.176004,17.0279997 240.568,17.3453299 240.568,18.036 C240.568,18.3346682 240.484001,18.5726658 240.316,18.75 C240.147999,18.9273342 239.858669,19.0346665 239.448,19.072 L238.608,19.156 C237.357327,19.2680006 236.42867,19.7113295 235.822,20.486 C235.21533,21.2606705 234.912,22.1706614 234.912,23.216 L234.912,30.02 C234.912,30.3933352 234.809334,30.6733324 234.604,30.86 C234.398666,31.0466676 234.128002,31.14 233.792,31.14 C233.455998,31.14 233.180668,31.042001 232.966,30.846 C232.751332,30.649999 232.644,30.3746684 232.644,30.02 L232.644,18.204 C232.644,17.8493316 232.755999,17.574001 232.98,17.378 C233.204001,17.181999 233.474665,17.084 233.792,17.084 C234.090668,17.084 234.342666,17.181999 234.548,17.378 C234.753334,17.574001 234.856,17.8399983 234.856,18.176 L234.856,19.744 C235.248002,18.9226626 235.80333,18.2973355 236.522,17.868 C237.24067,17.4386645 238.066662,17.186667 239,17.112 L239.392,17.084 Z M253.42,29.208 C253.718668,29.4880014 253.868,29.7866651 253.868,30.104 C253.868,30.3840014 253.770001,30.6266656 253.574,30.832 C253.377999,31.0373344 253.140001,31.14 252.86,31.14 C252.617332,31.14 252.365335,31.0280011 252.104,30.804 L244.796,24.504 L244.796,30.02 C244.796,30.3746684 244.688668,30.649999 244.474,30.846 C244.259332,31.042001 243.993335,31.14 243.676,31.14 C243.339998,31.14 243.064668,31.042001 242.85,30.846 C242.635332,30.649999 242.528,30.3746684 242.528,30.02 L242.528,12.24 C242.528,11.8853316 242.635332,11.610001 242.85,11.414 C243.064668,11.217999 243.339998,11.12 243.676,11.12 C243.993335,11.12 244.259332,11.217999 244.474,11.414 C244.688668,11.610001 244.796,11.8853316 244.796,12.24 L244.796,23.608 L251.488,17.476 C251.712001,17.2519989 251.963999,17.14 252.244,17.14 C252.524001,17.14 252.766666,17.2426656 252.972,17.448 C253.177334,17.6533344 253.28,17.8959986 253.28,18.176 C253.28,18.4933349 253.149335,18.7733321 252.888,19.016 L247.372,23.944 L253.42,29.208 Z" id="4G-Global-Network"></path>
                    <text id="[" font-family="Nunito-Regular, Nunito" font-size="28" font-weight="normal">
                        <tspan x="0" y="28">[</tspan>
                    </text>
                    <text id="]" font-family="Nunito-Regular, Nunito" font-size="28" font-weight="normal">
                        <tspan x="293" y="28">]</tspan>
                    </text>
                    <text id="" transform="translate(276.000000, 22.000000) rotate(-90.000000) translate(-276.000000, -22.000000) " font-family="SonicWallIconFont" font-size="22" font-weight="normal">
                        <tspan x="265" y="32"></tspan>
                    </text>
                </g>
                <g id="Risk-Meters" fill="#888888">
                    <path d="M33.3190202,14.5721153 L26.6830931,28.1245711 C26.6227665,28.2494786 26.6227665,28.3119323 26.5624399,28.4368397 C26.3211334,29.3111917 26.8037463,30.12309 27.5879922,30.4353585 C28.4325648,30.6851734 29.2168107,30.1855437 29.5184437,29.3736454 L33.5,14.5721153 C33.5,14.5096616 33.3793468,14.4472079 33.3190202,14.5721153 Z M28.1912583,29.7483677 C27.7086454,29.8108214 27.2863592,29.4985528 27.2260326,29.0613768 C27.165706,28.5617471 27.467339,28.1245711 27.8896253,28.0621174 C28.3722382,27.9996637 28.7945244,28.3119323 28.854851,28.7491083 C28.9151776,29.248738 28.6135446,29.685914 28.1912583,29.7483677 Z" id="Shape" fill-rule="nonzero" transform="translate(30.000000, 22.500000) rotate(90.000000) translate(-30.000000, -22.500000) "></path>
                    <path d="M28.7516689,17.6893204 L27.7263017,14.4708738 C27.5981308,14.092233 27.7903872,13.776699 28.1108144,13.6504854 C29.9692924,13.0825243 32.0200267,12.7038835 34.070761,12.6407767 C34.3911883,12.6407767 34.7116155,12.8932039 34.7116155,13.2718447 L34.7116155,17.6262136 C34.7116155,18.0048544 34.3271028,18.3203883 33.9425901,18.2572816 C33.0453939,18.131068 32.1481976,18.0679612 31.1869159,18.0679612 C30.6101469,18.0679612 29.9692924,18.0679612 29.3925234,18.131068 C29.1361816,18.131068 28.8157543,17.9417476 28.7516689,17.6893204 Z M35.6728972,20.0873786 C35.4165554,20.0242718 35.2242991,19.7718447 35.2883845,19.4563107 L35.2883845,11.631068 C35.2883845,11.2524272 35.5447263,11 35.929239,11 C37.9799733,11.1262136 40.4793057,11.5048544 42.4018692,12.0728155 C42.7222964,12.1990291 42.9145527,12.5776699 42.7863818,12.8932039 L40.0947931,20.9708738 C39.9666222,21.3495146 39.518024,21.538835 39.1975968,21.3495146 C37.9158879,20.7184466 37.0186916,20.4029126 35.6728972,20.0873786 Z M54.2576769,23.7475728 C54.5140187,23.5582524 54.9626168,23.6213592 55.0907877,23.8737864 C56.0520694,25.4514563 56.8851802,27.2184466 57.5260347,29.0485437 C57.6542056,29.4271845 57.4619493,29.7427184 57.141522,29.868932 L50.8611482,31.8883495 C50.540721,32.0145631 50.2202937,31.8252427 50.0921228,31.5097087 C49.7076101,30.4368932 49.259012,29.4271845 48.682243,28.4174757 C48.5540721,28.1019417 48.6181575,27.7864078 48.8744993,27.5970874 L54.2576769,23.7475728 Z M23.1121495,19.8980583 C22.8558077,20.0242718 22.4712951,19.961165 22.3431242,19.7087379 L21.0614152,17.9417476 C20.8691589,17.6262136 20.9332443,17.2475728 21.1895861,17.0582524 C22.7917223,15.8592233 24.5861148,14.9126214 26.4445928,14.1553398 C26.76502,14.0291262 27.1495327,14.2184466 27.2777036,14.5339806 L28.2389853,17.5 C28.3671562,17.8786408 28.1108144,18.2572816 27.7263017,18.3203883 C26.1241656,18.6359223 24.5861148,19.2038835 23.1121495,19.8980583 Z M42.6582109,14.5970874 C42.7863818,14.2815534 43.1708945,14.092233 43.4913218,14.1553398 C45.3497997,14.9126214 47.1441923,15.8592233 48.7463284,17.0582524 C49.0026702,17.2475728 49.0667557,17.6893204 48.8744993,17.9417476 L45.2216288,22.9271845 C44.965287,23.1796117 44.5166889,23.2427184 44.2603471,22.9902913 C43.2990654,22.1067961 42.2096128,21.3495146 41.1201602,20.7184466 C40.8638184,20.592233 40.799733,20.276699 40.8638184,20.0242718 L42.6582109,14.5970874 Z M45.5420561,24.1893204 C45.2857143,24 45.2857143,23.6213592 45.4779706,23.4320388 L49.1949266,18.3203883 C49.4512684,18.0048544 49.8998665,17.9417476 50.1562083,18.1941748 C51.6301736,19.4563107 52.975968,20.907767 54.129506,22.4854369 C54.3217623,22.8009709 54.2576769,23.1796117 54.0013351,23.368932 L48.682243,27.1553398 C48.3618158,27.3446602 47.9773031,27.2815534 47.7850467,26.9660194 C47.1441923,25.9563107 46.3751669,25.0728155 45.5420561,24.1893204 Z M17.6648865,23.8737864 C17.4085447,24.1262136 17.0881175,24.1893204 16.7676903,23.9368932 L15.870494,23.3058252 C15.6141522,23.1165049 15.5500668,22.6747573 15.7423231,22.4223301 C16.8958611,20.8446602 18.2416555,19.3932039 19.7156208,18.131068 C20.0360481,17.8786408 20.4846462,17.9417476 20.6769025,18.2572816 L21.8304406,19.7718447 C22.0226969,20.0242718 21.9586115,20.4660194 21.6381842,20.6553398 C20.164219,21.538835 18.8184246,22.6116505 17.6648865,23.8737864 Z M12.7303071,29.868932 C12.4098798,29.8058252 12.2176235,29.4271845 12.2817089,29.1116505 C12.858478,27.2815534 13.6915888,25.5145631 14.7169559,23.9368932 C14.9092123,23.6213592 15.293725,23.5582524 15.6141522,23.7475728 L16.3831776,24.2524272 C16.7036048,24.4417476 16.7676903,24.8834951 16.5113485,25.1359223 C15.4218959,26.461165 14.5246996,27.9757282 13.8197597,29.6165049 C13.6915888,29.9320388 13.3711615,30.1213592 13.0507343,29.9951456 L12.7303071,29.868932 Z M50.6048064,33.0873786 C50.540721,32.7718447 50.6688919,32.4563107 51.0534045,32.3300971 L57.3337784,30.3106796 C57.7182911,30.184466 58.1028037,30.3737864 58.1668892,30.7524272 C58.6795728,32.5825243 58.9359146,34.4126214 59,36.368932 C59,36.684466 58.7436582,37 58.3591455,37 L51.8224299,37 C51.5020027,37 51.1815754,36.7475728 51.1815754,36.4320388 C51.0534045,35.2961165 50.8611482,34.1601942 50.6048064,33.0873786 Z M12.1535381,37 L11,37 C11,34.8543689 11.3204272,32.7718447 11.8331108,30.7524272 C11.9612817,30.3737864 12.3457944,30.184466 12.6662216,30.3106796 L12.858478,30.3737864 C13.1789052,30.5 13.3711615,30.8786408 13.2429907,31.1941748 C12.6021362,33.0242718 12.2176235,34.9805825 12.1535381,37 Z" id="Combined-Shape" transform="translate(35.000000, 24.000000) rotate(90.000000) translate(-35.000000, -24.000000) "></path>
                    <path d="M1.33226763e-15,15.4260317 C1.23666347e-15,14.6453645 0.454232804,13.9360501 1.16330219,13.6094589 L8.1631905,10.3853705 C8.69417425,10.140804 9.30558094,10.1408008 9.83656723,10.3853618 L16.8366789,13.6094648 C17.5457585,13.9360519 18,14.6453716 18,15.4260463 L18,24.7046123 C18,25.4616857 17.8432221,26.2120074 17.5290261,26.9558549 C17.2144853,27.6996561 16.8254713,28.3598929 16.3614423,28.9364267 C15.8973641,29.513053 15.3441347,30.0742798 14.7022961,30.6199683 C14.0599157,31.1658881 13.4670855,31.6188095 12.9231653,31.9799813 C12.3795899,32.3408294 11.8121752,32.6820235 11.2219063,33.0029623 C10.6312434,33.3240862 10.2113959,33.5423153 9.96310272,33.6565862 C9.71480953,33.7711808 9.51557408,33.8591384 9.36574113,33.9205515 C9.25304627,33.9734092 9.1314363,34 8.99987686,34 C8.86846519,34 8.74670746,33.9734092 8.6341111,33.9205515 C8.48417965,33.8591384 8.28494419,33.7711808 8.0365525,33.6565862 C7.78821006,33.5423153 7.3685596,33.3240399 6.77794591,33.0029623 C6.18733223,32.6820235 5.62011454,32.3408294 5.07644063,31.9799813 C4.53276672,31.6188558 3.93983806,31.1659343 3.29755614,30.6199683 C2.65537274,30.0742798 2.10234042,29.5130993 1.63821293,28.9364267 C1.17408544,28.3598929 0.784972924,27.6996561 0.471023158,26.9558549 C0.156925628,26.2120074 0,25.4616857 0,24.7046123 L0,15.4260317 Z M8.92628655,27 C8.92628655,27 4.26470572,24.0906967 6.6817311,22.2037389 C9.15502327,20.2723821 16,19.4276325 16,19.4276325 C16,19.4276325 13.1022606,19.0794509 10.7329396,19.0128523 C10.4271419,19.0046736 10.1225673,19 9.81921597,19 C5.76189149,19.0011684 2.1118896,19.8003505 3.19196723,22.6395502 C4.22800999,25.3630787 8.92628655,27 8.92628655,27 Z" id="Combined-Shape"></path>
                </g>
            </g>
        </g>
    </g>
</svg>