<?xml version="1.0" encoding="UTF-8" standalone="no"?><!DOCTYPE svg PUBLIC "-//W3C//DTD SVG 1.1//EN" "http://www.w3.org/Graphics/SVG/1.1/DTD/svg11.dtd"><svg width="100%" height="100%" viewBox="0 0 567 48" version="1.1" xmlns="http://www.w3.org/2000/svg" xmlns:xlink="http://www.w3.org/1999/xlink" xml:space="preserve" xmlns:serif="http://www.serif.com/" style="fill-rule:evenodd;clip-rule:evenodd;stroke-linejoin:round;stroke-miterlimit:1.41421;"><g id="RM-Title"><path id="Risk-Meters-Title" d="M78.375,31.419c0.145,0.227 0.217,0.465 0.217,0.713c0,0.31 -0.119,0.563 -0.356,0.76c-0.238,0.196 -0.512,0.294 -0.822,0.294c-0.475,0 -0.847,-0.207 -1.116,-0.62l-4.154,-6.572c-0.537,-0.847 -1.095,-1.431 -1.674,-1.751c-0.579,-0.321 -1.364,-0.481 -2.356,-0.481l-3.906,0l0,8.091c0,0.393 -0.114,0.708 -0.341,0.946c-0.227,0.237 -0.527,0.356 -0.899,0.356c-0.393,0 -0.703,-0.119 -0.93,-0.356c-0.227,-0.238 -0.341,-0.553 -0.341,-0.946l0,-19.468c0,-0.372 0.119,-0.672 0.357,-0.899c0.237,-0.227 0.552,-0.341 0.945,-0.341l7.688,0c2.377,0 4.19,0.527 5.441,1.581c1.25,1.054 1.875,2.604 1.875,4.65c0,1.736 -0.501,3.131 -1.504,4.185c-1.002,1.054 -2.433,1.695 -4.293,1.922c0.517,0.165 0.982,0.434 1.395,0.806c0.413,0.372 0.827,0.889 1.24,1.55l3.534,5.58Zm-7.905,-9.765c1.695,0 2.96,-0.351 3.798,-1.054c0.837,-0.703 1.255,-1.767 1.255,-3.193c0,-1.405 -0.413,-2.449 -1.24,-3.131c-0.827,-0.682 -2.098,-1.023 -3.813,-1.023l-6.262,0l0,8.401l6.262,0Zm13.764,11.501c-0.393,0 -0.703,-0.119 -0.93,-0.356c-0.227,-0.238 -0.341,-0.553 -0.341,-0.946l0,-19.561c0,-0.393 0.114,-0.708 0.341,-0.945c0.227,-0.238 0.537,-0.357 0.93,-0.357c0.393,0 0.703,0.119 0.93,0.357c0.227,0.237 0.341,0.552 0.341,0.945l0,19.561c0,0.393 -0.114,0.708 -0.341,0.946c-0.227,0.237 -0.537,0.356 -0.93,0.356Zm13.64,0.093c-1.55,0 -3.033,-0.232 -4.448,-0.697c-1.416,-0.466 -2.548,-1.091 -3.395,-1.876c-0.31,-0.289 -0.465,-0.651 -0.465,-1.085c0,-0.289 0.083,-0.542 0.248,-0.759c0.165,-0.218 0.362,-0.326 0.589,-0.326c0.269,0 0.558,0.114 0.868,0.341c1.922,1.488 4.113,2.232 6.572,2.232c1.777,0 3.141,-0.341 4.092,-1.023c0.951,-0.682 1.426,-1.653 1.426,-2.914c0,-0.723 -0.227,-1.307 -0.682,-1.751c-0.455,-0.445 -1.054,-0.801 -1.798,-1.07c-0.744,-0.269 -1.746,-0.548 -3.007,-0.837c-1.695,-0.393 -3.084,-0.806 -4.169,-1.24c-1.086,-0.434 -1.964,-1.054 -2.635,-1.86c-0.672,-0.806 -1.008,-1.86 -1.008,-3.162c0,-1.24 0.336,-2.34 1.008,-3.301c0.671,-0.962 1.611,-1.705 2.821,-2.232c1.209,-0.528 2.588,-0.791 4.138,-0.791c1.447,0 2.795,0.222 4.046,0.667c1.25,0.444 2.299,1.079 3.146,1.906c0.331,0.331 0.496,0.692 0.496,1.085c0,0.289 -0.083,0.542 -0.248,0.76c-0.165,0.217 -0.362,0.325 -0.589,0.325c-0.227,0 -0.527,-0.114 -0.899,-0.341c-1.013,-0.827 -1.953,-1.405 -2.821,-1.736c-0.868,-0.331 -1.912,-0.496 -3.131,-0.496c-1.715,0 -3.048,0.356 -3.999,1.07c-0.951,0.713 -1.426,1.71 -1.426,2.991c0,1.095 0.418,1.917 1.256,2.465c0.837,0.547 2.123,1.028 3.859,1.441c1.881,0.455 3.358,0.873 4.433,1.256c1.075,0.382 1.968,0.955 2.682,1.72c0.713,0.765 1.069,1.788 1.069,3.069c0,1.219 -0.336,2.294 -1.007,3.224c-0.672,0.93 -1.618,1.653 -2.837,2.17c-1.219,0.517 -2.614,0.775 -4.185,0.775Zm27.869,-2.17c0.289,0.269 0.434,0.568 0.434,0.899c0,0.289 -0.119,0.553 -0.356,0.791c-0.238,0.237 -0.512,0.356 -0.822,0.356c-0.269,0 -0.548,-0.124 -0.837,-0.372l-11.594,-10.137l0,9.238c0,0.393 -0.114,0.708 -0.341,0.946c-0.227,0.237 -0.537,0.356 -0.93,0.356c-0.393,0 -0.703,-0.119 -0.93,-0.356c-0.227,-0.238 -0.341,-0.553 -0.341,-0.946l0,-19.561c0,-0.393 0.114,-0.708 0.341,-0.945c0.227,-0.238 0.537,-0.357 0.93,-0.357c0.393,0 0.703,0.119 0.93,0.357c0.227,0.237 0.341,0.552 0.341,0.945l0,8.897l11.067,-9.827c0.227,-0.227 0.496,-0.341 0.806,-0.341c0.31,0 0.579,0.119 0.806,0.357c0.227,0.237 0.341,0.501 0.341,0.79c0,0.31 -0.134,0.599 -0.403,0.868l-10.013,8.804l10.571,9.238Zm31.155,-20.088c0.393,0 0.697,0.119 0.915,0.357c0.217,0.237 0.325,0.552 0.325,0.945l0,19.623c0,0.372 -0.103,0.672 -0.31,0.899c-0.207,0.227 -0.496,0.341 -0.868,0.341c-0.372,0 -0.651,-0.114 -0.837,-0.341c-0.186,-0.227 -0.279,-0.527 -0.279,-0.899l0,-15.841l-6.727,12.896c-0.289,0.599 -0.713,0.899 -1.271,0.899c-0.537,0 -0.961,-0.3 -1.271,-0.899l-6.758,-12.741l0,15.686c0,0.372 -0.098,0.672 -0.294,0.899c-0.197,0.227 -0.481,0.341 -0.853,0.341c-0.372,0 -0.661,-0.114 -0.868,-0.341c-0.207,-0.227 -0.31,-0.527 -0.31,-0.899l0,-19.623c0,-0.393 0.114,-0.708 0.341,-0.945c0.227,-0.238 0.537,-0.357 0.93,-0.357c0.517,0 0.93,0.3 1.24,0.899l7.874,15.097l7.781,-15.097c0.165,-0.331 0.346,-0.563 0.543,-0.697c0.196,-0.135 0.428,-0.202 0.697,-0.202Zm7.967,22.01c-0.393,0 -0.708,-0.114 -0.946,-0.341c-0.237,-0.227 -0.356,-0.527 -0.356,-0.899l0,-19.375c0,-0.372 0.119,-0.672 0.356,-0.899c0.238,-0.227 0.553,-0.341 0.946,-0.341l11.594,0c0.372,0 0.661,0.093 0.868,0.279c0.207,0.186 0.31,0.444 0.31,0.775c0,0.331 -0.103,0.589 -0.31,0.775c-0.207,0.186 -0.496,0.279 -0.868,0.279l-10.385,0l0,7.595l9.765,0c0.372,0 0.661,0.093 0.868,0.279c0.207,0.186 0.31,0.444 0.31,0.775c0,0.331 -0.103,0.589 -0.31,0.775c-0.207,0.186 -0.496,0.279 -0.868,0.279l-9.765,0l0,7.936l10.385,0c0.372,0 0.661,0.088 0.868,0.264c0.207,0.175 0.31,0.439 0.31,0.79c0,0.331 -0.103,0.589 -0.31,0.775c-0.207,0.186 -0.496,0.279 -0.868,0.279l-11.594,0Zm23.312,0.155c-0.393,0 -0.708,-0.119 -0.946,-0.356c-0.237,-0.238 -0.356,-0.553 -0.356,-0.946l0,-18.538l-6.665,0c-0.372,0 -0.661,-0.093 -0.868,-0.279c-0.207,-0.186 -0.31,-0.455 -0.31,-0.806c0,-0.351 0.103,-0.62 0.31,-0.806c0.207,-0.186 0.496,-0.279 0.868,-0.279l15.903,0c0.372,0 0.661,0.093 0.868,0.279c0.207,0.186 0.31,0.455 0.31,0.806c0,0.351 -0.103,0.62 -0.31,0.806c-0.207,0.186 -0.496,0.279 -0.868,0.279l-6.665,0l0,18.538c0,0.393 -0.114,0.708 -0.341,0.946c-0.227,0.237 -0.537,0.356 -0.93,0.356Zm13.268,-0.155c-0.393,0 -0.708,-0.114 -0.946,-0.341c-0.237,-0.227 -0.356,-0.527 -0.356,-0.899l0,-19.375c0,-0.372 0.119,-0.672 0.356,-0.899c0.238,-0.227 0.553,-0.341 0.946,-0.341l11.594,0c0.372,0 0.661,0.093 0.868,0.279c0.207,0.186 0.31,0.444 0.31,0.775c0,0.331 -0.103,0.589 -0.31,0.775c-0.207,0.186 -0.496,0.279 -0.868,0.279l-10.385,0l0,7.595l9.765,0c0.372,0 0.661,0.093 0.868,0.279c0.207,0.186 0.31,0.444 0.31,0.775c0,0.331 -0.103,0.589 -0.31,0.775c-0.207,0.186 -0.496,0.279 -0.868,0.279l-9.765,0l0,7.936l10.385,0c0.372,0 0.661,0.088 0.868,0.264c0.207,0.175 0.31,0.439 0.31,0.79c0,0.331 -0.103,0.589 -0.31,0.775c-0.207,0.186 -0.496,0.279 -0.868,0.279l-11.594,0Zm33.418,-1.581c0.145,0.227 0.217,0.465 0.217,0.713c0,0.31 -0.119,0.563 -0.357,0.76c-0.237,0.196 -0.511,0.294 -0.821,0.294c-0.475,0 -0.847,-0.207 -1.116,-0.62l-4.154,-6.572c-0.537,-0.847 -1.095,-1.431 -1.674,-1.751c-0.579,-0.321 -1.364,-0.481 -2.356,-0.481l-3.906,0l0,8.091c0,0.393 -0.114,0.708 -0.341,0.946c-0.227,0.237 -0.527,0.356 -0.899,0.356c-0.393,0 -0.703,-0.119 -0.93,-0.356c-0.227,-0.238 -0.341,-0.553 -0.341,-0.946l0,-19.468c0,-0.372 0.119,-0.672 0.356,-0.899c0.238,-0.227 0.553,-0.341 0.946,-0.341l7.688,0c2.377,0 4.19,0.527 5.44,1.581c1.251,1.054 1.876,2.604 1.876,4.65c0,1.736 -0.501,3.131 -1.504,4.185c-1.002,1.054 -2.433,1.695 -4.293,1.922c0.517,0.165 0.982,0.434 1.395,0.806c0.413,0.372 0.827,0.889 1.24,1.55l3.534,5.58Zm-7.905,-9.765c1.695,0 2.96,-0.351 3.797,-1.054c0.838,-0.703 1.256,-1.767 1.256,-3.193c0,-1.405 -0.413,-2.449 -1.24,-3.131c-0.827,-0.682 -2.098,-1.023 -3.813,-1.023l-6.262,0l0,8.401l6.262,0Zm19.468,11.594c-1.55,0 -3.033,-0.232 -4.449,-0.697c-1.415,-0.466 -2.547,-1.091 -3.394,-1.876c-0.31,-0.289 -0.465,-0.651 -0.465,-1.085c0,-0.289 0.083,-0.542 0.248,-0.759c0.165,-0.218 0.362,-0.326 0.589,-0.326c0.269,0 0.558,0.114 0.868,0.341c1.922,1.488 4.113,2.232 6.572,2.232c1.777,0 3.141,-0.341 4.092,-1.023c0.951,-0.682 1.426,-1.653 1.426,-2.914c0,-0.723 -0.227,-1.307 -0.682,-1.751c-0.455,-0.445 -1.054,-0.801 -1.798,-1.07c-0.744,-0.269 -1.746,-0.548 -3.007,-0.837c-1.695,-0.393 -3.084,-0.806 -4.169,-1.24c-1.086,-0.434 -1.964,-1.054 -2.635,-1.86c-0.672,-0.806 -1.008,-1.86 -1.008,-3.162c0,-1.24 0.336,-2.34 1.008,-3.301c0.671,-0.962 1.611,-1.705 2.821,-2.232c1.209,-0.528 2.588,-0.791 4.138,-0.791c1.447,0 2.795,0.222 4.046,0.667c1.25,0.444 2.299,1.079 3.146,1.906c0.331,0.331 0.496,0.692 0.496,1.085c0,0.289 -0.083,0.542 -0.248,0.76c-0.165,0.217 -0.362,0.325 -0.589,0.325c-0.227,0 -0.527,-0.114 -0.899,-0.341c-1.013,-0.827 -1.953,-1.405 -2.821,-1.736c-0.868,-0.331 -1.912,-0.496 -3.131,-0.496c-1.715,0 -3.048,0.356 -3.999,1.07c-0.951,0.713 -1.426,1.71 -1.426,2.991c0,1.095 0.418,1.917 1.255,2.465c0.838,0.547 2.124,1.028 3.86,1.441c1.881,0.455 3.358,0.873 4.433,1.256c1.075,0.382 1.968,0.955 2.681,1.72c0.714,0.765 1.07,1.788 1.07,3.069c0,1.219 -0.336,2.294 -1.008,3.224c-0.671,0.93 -1.617,1.653 -2.836,2.17c-1.219,0.517 -2.614,0.775 -4.185,0.775Z" style="fill:#999;"/><g id="Tenant-Dropdown"><path id="_4G-Global-Network" serif:id="4G-Global-Network" d="M297.924,25.812c0.336,0 0.597,0.089 0.784,0.266c0.187,0.177 0.28,0.406 0.28,0.686c0,0.635 -0.355,0.952 -1.064,0.952l-2.1,0l0,3.248c0,0.373 -0.107,0.663 -0.322,0.868c-0.215,0.205 -0.49,0.308 -0.826,0.308c-0.336,0 -0.607,-0.103 -0.812,-0.308c-0.205,-0.205 -0.308,-0.495 -0.308,-0.868l0,-3.248l-8.288,0c-0.336,0 -0.597,-0.093 -0.784,-0.28c-0.187,-0.187 -0.28,-0.42 -0.28,-0.7c0,-0.261 0.103,-0.551 0.308,-0.868l9.156,-13.244c0.261,-0.336 0.597,-0.504 1.008,-0.504c0.317,0 0.588,0.103 0.812,0.308c0.224,0.205 0.336,0.495 0.336,0.868l0,12.516l2.1,0Zm-11.116,0l6.748,0l0,-9.716l-6.748,9.716Zm30.1,-4.088c0.28,0 0.509,0.084 0.686,0.252c0.177,0.168 0.266,0.401 0.266,0.7l0,6.972c0,0.448 -0.07,0.784 -0.21,1.008c-0.14,0.224 -0.397,0.401 -0.77,0.532c-0.747,0.317 -1.652,0.569 -2.716,0.756c-1.064,0.187 -2.128,0.28 -3.192,0.28c-1.96,0 -3.649,-0.401 -5.068,-1.204c-1.419,-0.803 -2.506,-1.96 -3.262,-3.472c-0.756,-1.512 -1.134,-3.323 -1.134,-5.432c0,-2.072 0.373,-3.864 1.12,-5.376c0.747,-1.512 1.82,-2.674 3.22,-3.486c1.4,-0.812 3.043,-1.218 4.928,-1.218c1.307,0 2.52,0.201 3.64,0.602c1.12,0.401 2.063,0.975 2.828,1.722c0.317,0.317 0.476,0.644 0.476,0.98c0,0.261 -0.075,0.49 -0.224,0.686c-0.149,0.196 -0.336,0.294 -0.56,0.294c-0.224,0 -0.485,-0.112 -0.784,-0.336c-0.971,-0.747 -1.848,-1.265 -2.632,-1.554c-0.784,-0.289 -1.689,-0.434 -2.716,-0.434c-2.221,0 -3.925,0.7 -5.11,2.1c-1.185,1.4 -1.778,3.407 -1.778,6.02c0,2.669 0.602,4.699 1.806,6.09c1.204,1.391 2.973,2.086 5.306,2.086c1.736,0 3.313,-0.261 4.732,-0.784l0,-5.992l-4.088,0c-0.317,0 -0.569,-0.084 -0.756,-0.252c-0.187,-0.168 -0.28,-0.383 -0.28,-0.644c0,-0.28 0.093,-0.499 0.28,-0.658c0.187,-0.159 0.439,-0.238 0.756,-0.238l5.236,0Zm27.496,0c0.28,0 0.509,0.084 0.686,0.252c0.177,0.168 0.266,0.401 0.266,0.7l0,6.972c0,0.448 -0.07,0.784 -0.21,1.008c-0.14,0.224 -0.397,0.401 -0.77,0.532c-0.747,0.317 -1.652,0.569 -2.716,0.756c-1.064,0.187 -2.128,0.28 -3.192,0.28c-1.96,0 -3.649,-0.401 -5.068,-1.204c-1.419,-0.803 -2.506,-1.96 -3.262,-3.472c-0.756,-1.512 -1.134,-3.323 -1.134,-5.432c0,-2.072 0.373,-3.864 1.12,-5.376c0.747,-1.512 1.82,-2.674 3.22,-3.486c1.4,-0.812 3.043,-1.218 4.928,-1.218c1.307,0 2.52,0.201 3.64,0.602c1.12,0.401 2.063,0.975 2.828,1.722c0.317,0.317 0.476,0.644 0.476,0.98c0,0.261 -0.075,0.49 -0.224,0.686c-0.149,0.196 -0.336,0.294 -0.56,0.294c-0.224,0 -0.485,-0.112 -0.784,-0.336c-0.971,-0.747 -1.848,-1.265 -2.632,-1.554c-0.784,-0.289 -1.689,-0.434 -2.716,-0.434c-2.221,0 -3.925,0.7 -5.11,2.1c-1.185,1.4 -1.778,3.407 -1.778,6.02c0,2.669 0.602,4.699 1.806,6.09c1.204,1.391 2.973,2.086 5.306,2.086c1.736,0 3.313,-0.261 4.732,-0.784l0,-5.992l-4.088,0c-0.317,0 -0.569,-0.084 -0.756,-0.252c-0.187,-0.168 -0.28,-0.383 -0.28,-0.644c0,-0.28 0.093,-0.499 0.28,-0.658c0.187,-0.159 0.439,-0.238 0.756,-0.238l5.236,0Zm6.412,10.416c-0.336,0 -0.611,-0.098 -0.826,-0.294c-0.215,-0.196 -0.322,-0.471 -0.322,-0.826l0,-17.78c0,-0.355 0.107,-0.63 0.322,-0.826c0.215,-0.196 0.49,-0.294 0.826,-0.294c0.317,0 0.583,0.098 0.798,0.294c0.215,0.196 0.322,0.471 0.322,0.826l0,17.78c0,0.355 -0.107,0.63 -0.322,0.826c-0.215,0.196 -0.481,0.294 -0.798,0.294Zm11.004,0.056c-1.288,0 -2.422,-0.289 -3.402,-0.868c-0.98,-0.579 -1.736,-1.405 -2.268,-2.478c-0.532,-1.073 -0.798,-2.319 -0.798,-3.738c0,-1.419 0.266,-2.665 0.798,-3.738c0.532,-1.073 1.288,-1.899 2.268,-2.478c0.98,-0.579 2.114,-0.868 3.402,-0.868c1.288,0 2.427,0.289 3.416,0.868c0.989,0.579 1.75,1.405 2.282,2.478c0.532,1.073 0.798,2.319 0.798,3.738c0,1.419 -0.266,2.665 -0.798,3.738c-0.532,1.073 -1.293,1.899 -2.282,2.478c-0.989,0.579 -2.128,0.868 -3.416,0.868Zm0,-1.876c1.344,0 2.375,-0.443 3.094,-1.33c0.719,-0.887 1.078,-2.179 1.078,-3.878c0,-1.661 -0.364,-2.945 -1.092,-3.85c-0.728,-0.905 -1.755,-1.358 -3.08,-1.358c-1.325,0 -2.352,0.453 -3.08,1.358c-0.728,0.905 -1.092,2.189 -1.092,3.85c0,1.68 0.359,2.968 1.078,3.864c0.719,0.896 1.75,1.344 3.094,1.344Zm16.744,-12.292c1.195,0 2.249,0.289 3.164,0.868c0.915,0.579 1.624,1.4 2.128,2.464c0.504,1.064 0.756,2.296 0.756,3.696c0,1.419 -0.252,2.665 -0.756,3.738c-0.504,1.073 -1.213,1.909 -2.128,2.506c-0.915,0.597 -1.969,0.896 -3.164,0.896c-1.064,0 -1.993,-0.233 -2.786,-0.7c-0.793,-0.467 -1.395,-1.129 -1.806,-1.988l0,1.512c0,0.336 -0.098,0.607 -0.294,0.812c-0.196,0.205 -0.471,0.308 -0.826,0.308c-0.355,0 -0.635,-0.103 -0.84,-0.308c-0.205,-0.205 -0.308,-0.476 -0.308,-0.812l0,-17.808c0,-0.317 0.103,-0.579 0.308,-0.784c0.205,-0.205 0.485,-0.308 0.84,-0.308c0.355,0 0.63,0.098 0.826,0.294c0.196,0.196 0.294,0.462 0.294,0.798l0,7.504c0.411,-0.859 1.013,-1.521 1.806,-1.988c0.793,-0.467 1.722,-0.7 2.786,-0.7Zm-0.448,12.292c1.325,0 2.352,-0.462 3.08,-1.386c0.728,-0.924 1.092,-2.217 1.092,-3.878c0,-1.624 -0.364,-2.884 -1.092,-3.78c-0.728,-0.896 -1.755,-1.344 -3.08,-1.344c-1.325,0 -2.347,0.448 -3.066,1.344c-0.719,0.896 -1.078,2.175 -1.078,3.836c0,1.661 0.359,2.945 1.078,3.85c0.719,0.905 1.741,1.358 3.066,1.358Zm15.456,-12.292c3.416,0 5.124,1.792 5.124,5.376l0,7.616c0,0.336 -0.098,0.607 -0.294,0.812c-0.196,0.205 -0.462,0.308 -0.798,0.308c-0.336,0 -0.607,-0.103 -0.812,-0.308c-0.205,-0.205 -0.308,-0.476 -0.308,-0.812l0,-1.344c-0.355,0.803 -0.896,1.423 -1.624,1.862c-0.728,0.439 -1.568,0.658 -2.52,0.658c-0.877,0 -1.685,-0.177 -2.422,-0.532c-0.737,-0.355 -1.321,-0.849 -1.75,-1.484c-0.429,-0.635 -0.644,-1.335 -0.644,-2.1c0,-1.027 0.261,-1.825 0.784,-2.394c0.523,-0.569 1.381,-0.98 2.576,-1.232c1.195,-0.252 2.856,-0.378 4.984,-0.378l0.616,0l0,-0.924c0,-1.12 -0.229,-1.941 -0.686,-2.464c-0.457,-0.523 -1.199,-0.784 -2.226,-0.784c-1.269,0 -2.557,0.345 -3.864,1.036c-0.504,0.317 -0.859,0.476 -1.064,0.476c-0.224,0 -0.411,-0.084 -0.56,-0.252c-0.149,-0.168 -0.224,-0.383 -0.224,-0.644c0,-0.261 0.079,-0.49 0.238,-0.686c0.159,-0.196 0.415,-0.397 0.77,-0.602c0.653,-0.373 1.395,-0.667 2.226,-0.882c0.831,-0.215 1.657,-0.322 2.478,-0.322Zm-0.924,12.376c1.12,0 2.039,-0.378 2.758,-1.134c0.719,-0.756 1.078,-1.731 1.078,-2.926l0,-0.812l-0.504,0c-1.643,0 -2.893,0.07 -3.752,0.21c-0.859,0.14 -1.47,0.373 -1.834,0.7c-0.364,0.327 -0.546,0.807 -0.546,1.442c0,0.728 0.266,1.33 0.798,1.806c0.532,0.476 1.199,0.714 2.002,0.714Zm11.34,1.736c-0.336,0 -0.611,-0.098 -0.826,-0.294c-0.215,-0.196 -0.322,-0.471 -0.322,-0.826l0,-17.78c0,-0.355 0.107,-0.63 0.322,-0.826c0.215,-0.196 0.49,-0.294 0.826,-0.294c0.317,0 0.583,0.098 0.798,0.294c0.215,0.196 0.322,0.471 0.322,0.826l0,17.78c0,0.355 -0.107,0.63 -0.322,0.826c-0.215,0.196 -0.481,0.294 -0.798,0.294Zm27.664,-20.02c0.336,0 0.597,0.107 0.784,0.322c0.187,0.215 0.28,0.499 0.28,0.854l0,17.668c0,0.355 -0.098,0.639 -0.294,0.854c-0.196,0.215 -0.471,0.322 -0.826,0.322c-0.355,0 -0.663,-0.159 -0.924,-0.476l-11.62,-15.54l0,14.84c0,0.355 -0.098,0.639 -0.294,0.854c-0.196,0.215 -0.462,0.322 -0.798,0.322c-0.336,0 -0.597,-0.107 -0.784,-0.322c-0.187,-0.215 -0.28,-0.499 -0.28,-0.854l0,-17.668c0,-0.355 0.098,-0.639 0.294,-0.854c0.196,-0.215 0.471,-0.322 0.826,-0.322c0.373,0 0.691,0.159 0.952,0.476l11.592,15.54l0,-14.84c0,-0.355 0.098,-0.639 0.294,-0.854c0.196,-0.215 0.462,-0.322 0.798,-0.322Zm16.156,16.716c0.205,0 0.383,0.084 0.532,0.252c0.149,0.168 0.224,0.383 0.224,0.644c0,0.467 -0.327,0.896 -0.98,1.288c-0.672,0.392 -1.381,0.686 -2.128,0.882c-0.747,0.196 -1.475,0.294 -2.184,0.294c-2.109,0 -3.775,-0.625 -4.998,-1.876c-1.223,-1.251 -1.834,-2.977 -1.834,-5.18c0,-1.4 0.271,-2.637 0.812,-3.71c0.541,-1.073 1.302,-1.909 2.282,-2.506c0.98,-0.597 2.095,-0.896 3.346,-0.896c1.773,0 3.183,0.579 4.228,1.736c1.045,1.157 1.568,2.725 1.568,4.704c0,0.373 -0.075,0.644 -0.224,0.812c-0.149,0.168 -0.392,0.252 -0.728,0.252l-9.016,0c0.168,3.211 1.689,4.816 4.564,4.816c0.728,0 1.353,-0.098 1.876,-0.294c0.523,-0.196 1.083,-0.462 1.68,-0.798c0.485,-0.28 0.812,-0.42 0.98,-0.42Zm-4.9,-9.044c-1.195,0 -2.151,0.373 -2.87,1.12c-0.719,0.747 -1.143,1.801 -1.274,3.164l7.924,0c-0.037,-1.381 -0.383,-2.441 -1.036,-3.178c-0.653,-0.737 -1.568,-1.106 -2.744,-1.106Zm15.4,10.556c0.653,0.056 0.98,0.355 0.98,0.896c0,0.317 -0.117,0.555 -0.35,0.714c-0.233,0.159 -0.583,0.219 -1.05,0.182l-0.756,-0.056c-1.493,-0.112 -2.595,-0.56 -3.304,-1.344c-0.709,-0.784 -1.064,-1.969 -1.064,-3.556l0,-7.028l-1.876,0c-0.317,0 -0.565,-0.079 -0.742,-0.238c-0.177,-0.159 -0.266,-0.369 -0.266,-0.63c0,-0.28 0.089,-0.504 0.266,-0.672c0.177,-0.168 0.425,-0.252 0.742,-0.252l1.876,0l0,-3.164c0,-0.355 0.103,-0.63 0.308,-0.826c0.205,-0.196 0.485,-0.294 0.84,-0.294c0.336,0 0.607,0.098 0.812,0.294c0.205,0.196 0.308,0.471 0.308,0.826l0,3.164l3.108,0c0.299,0 0.537,0.084 0.714,0.252c0.177,0.168 0.266,0.392 0.266,0.672c0,0.261 -0.089,0.471 -0.266,0.63c-0.177,0.159 -0.415,0.238 -0.714,0.238l-3.108,0l0,7.14c0,1.027 0.21,1.769 0.63,2.226c0.42,0.457 1.05,0.714 1.89,0.77l0.756,0.056Zm21.868,-11.536c0.187,-0.448 0.495,-0.672 0.924,-0.672c0.28,0 0.532,0.093 0.756,0.28c0.224,0.187 0.336,0.42 0.336,0.7c0,0.131 -0.028,0.271 -0.084,0.42l-4.648,11.76c-0.112,0.243 -0.275,0.434 -0.49,0.574c-0.215,0.14 -0.453,0.21 -0.714,0.21c-0.243,0 -0.471,-0.07 -0.686,-0.21c-0.215,-0.14 -0.378,-0.331 -0.49,-0.574l-3.864,-9.828l-3.836,9.828c-0.093,0.243 -0.252,0.434 -0.476,0.574c-0.224,0.14 -0.467,0.21 -0.728,0.21c-0.243,0 -0.476,-0.07 -0.7,-0.21c-0.224,-0.14 -0.392,-0.331 -0.504,-0.574l-4.648,-11.732c-0.056,-0.149 -0.084,-0.28 -0.084,-0.392c0,-0.299 0.126,-0.551 0.378,-0.756c0.252,-0.205 0.527,-0.308 0.826,-0.308c0.448,0 0.765,0.224 0.952,0.672l3.836,10.332l3.948,-10.248c0.112,-0.243 0.266,-0.429 0.462,-0.56c0.196,-0.131 0.406,-0.196 0.63,-0.196c0.243,0 0.462,0.065 0.658,0.196c0.196,0.131 0.341,0.317 0.434,0.56l3.948,10.22l3.864,-10.276Zm10.584,13.384c-1.288,0 -2.422,-0.289 -3.402,-0.868c-0.98,-0.579 -1.736,-1.405 -2.268,-2.478c-0.532,-1.073 -0.798,-2.319 -0.798,-3.738c0,-1.419 0.266,-2.665 0.798,-3.738c0.532,-1.073 1.288,-1.899 2.268,-2.478c0.98,-0.579 2.114,-0.868 3.402,-0.868c1.288,0 2.427,0.289 3.416,0.868c0.989,0.579 1.75,1.405 2.282,2.478c0.532,1.073 0.798,2.319 0.798,3.738c0,1.419 -0.266,2.665 -0.798,3.738c-0.532,1.073 -1.293,1.899 -2.282,2.478c-0.989,0.579 -2.128,0.868 -3.416,0.868Zm0,-1.876c1.344,0 2.375,-0.443 3.094,-1.33c0.719,-0.887 1.078,-2.179 1.078,-3.878c0,-1.661 -0.364,-2.945 -1.092,-3.85c-0.728,-0.905 -1.755,-1.358 -3.08,-1.358c-1.325,0 -2.352,0.453 -3.08,1.358c-0.728,0.905 -1.092,2.189 -1.092,3.85c0,1.68 0.359,2.968 1.078,3.864c0.719,0.896 1.75,1.344 3.094,1.344Zm16.632,-12.236c0.784,-0.056 1.176,0.261 1.176,0.952c0,0.299 -0.084,0.537 -0.252,0.714c-0.168,0.177 -0.457,0.285 -0.868,0.322l-0.84,0.084c-1.251,0.112 -2.179,0.555 -2.786,1.33c-0.607,0.775 -0.91,1.685 -0.91,2.73l0,6.804c0,0.373 -0.103,0.653 -0.308,0.84c-0.205,0.187 -0.476,0.28 -0.812,0.28c-0.336,0 -0.611,-0.098 -0.826,-0.294c-0.215,-0.196 -0.322,-0.471 -0.322,-0.826l0,-11.816c0,-0.355 0.112,-0.63 0.336,-0.826c0.224,-0.196 0.495,-0.294 0.812,-0.294c0.299,0 0.551,0.098 0.756,0.294c0.205,0.196 0.308,0.462 0.308,0.798l0,1.568c0.392,-0.821 0.947,-1.447 1.666,-1.876c0.719,-0.429 1.545,-0.681 2.478,-0.756l0.392,-0.028Zm14.028,12.124c0.299,0.28 0.448,0.579 0.448,0.896c0,0.28 -0.098,0.523 -0.294,0.728c-0.196,0.205 -0.434,0.308 -0.714,0.308c-0.243,0 -0.495,-0.112 -0.756,-0.336l-7.308,-6.3l0,5.516c0,0.355 -0.107,0.63 -0.322,0.826c-0.215,0.196 -0.481,0.294 -0.798,0.294c-0.336,0 -0.611,-0.098 -0.826,-0.294c-0.215,-0.196 -0.322,-0.471 -0.322,-0.826l0,-17.78c0,-0.355 0.107,-0.63 0.322,-0.826c0.215,-0.196 0.49,-0.294 0.826,-0.294c0.317,0 0.583,0.098 0.798,0.294c0.215,0.196 0.322,0.471 0.322,0.826l0,11.368l6.692,-6.132c0.224,-0.224 0.476,-0.336 0.756,-0.336c0.28,0 0.523,0.103 0.728,0.308c0.205,0.205 0.308,0.448 0.308,0.728c0,0.317 -0.131,0.597 -0.392,0.84l-5.516,4.928l6.048,5.264Z" style="fill:#888;"/><g id="_-" serif:id="["><path d="M273.88,34.04c-0.915,0 -1.615,-0.247 -2.1,-0.742c-0.485,-0.495 -0.728,-1.199 -0.728,-2.114l0,-19.068c0,-0.915 0.243,-1.619 0.728,-2.114c0.485,-0.495 1.185,-0.742 2.1,-0.742l1.932,0c0.299,0 0.537,0.075 0.714,0.224c0.177,0.149 0.266,0.373 0.266,0.672c0,0.28 -0.089,0.499 -0.266,0.658c-0.177,0.159 -0.415,0.238 -0.714,0.238l-1.316,0c-0.803,0 -1.204,0.42 -1.204,1.26l0,18.676c0,0.84 0.401,1.26 1.204,1.26l1.316,0c0.299,0 0.537,0.079 0.714,0.238c0.177,0.159 0.266,0.378 0.266,0.658c0,0.299 -0.089,0.523 -0.266,0.672c-0.177,0.149 -0.415,0.224 -0.714,0.224l-1.932,0Z" style="fill:#888;fill-rule:nonzero;"/></g><g id="_-1" serif:id="]"><path d="M561.98,34.04c-0.299,0 -0.537,-0.075 -0.714,-0.224c-0.177,-0.149 -0.266,-0.373 -0.266,-0.672c0,-0.28 0.089,-0.499 0.266,-0.658c0.177,-0.159 0.415,-0.238 0.714,-0.238l1.288,0c0.821,0 1.232,-0.42 1.232,-1.26l0,-18.676c0,-0.84 -0.411,-1.26 -1.232,-1.26l-1.288,0c-0.299,0 -0.537,-0.079 -0.714,-0.238c-0.177,-0.159 -0.266,-0.378 -0.266,-0.658c0,-0.299 0.089,-0.523 0.266,-0.672c0.177,-0.149 0.415,-0.224 0.714,-0.224l1.932,0c0.915,0 1.615,0.247 2.1,0.742c0.485,0.495 0.728,1.199 0.728,2.114l0,19.068c0,0.915 -0.243,1.619 -0.728,2.114c-0.485,0.495 -1.185,0.742 -2.1,0.742l-1.932,0Z" style="fill:#888;fill-rule:nonzero;"/></g><g id="_-2" serif:id=""><path d="M555.375,19.563l-2.063,-2.063l-8.937,8.938l-8.938,-8.938l-2.062,2.063l11,11l11,-11Z" style="fill:#888;fill-rule:nonzero;"/></g></g><g id="Risk-Meters"><path id="Shape" d="M37.928,25.819l-13.553,-6.636c-0.124,-0.06 -0.187,-0.06 -0.312,-0.121c-0.874,-0.241 -1.686,0.242 -1.998,1.026c-0.25,0.845 0.249,1.629 1.061,1.93l14.802,3.982c0.062,0 0.125,-0.121 0,-0.181Zm-15.176,-5.128c-0.063,-0.482 0.249,-0.905 0.687,-0.965c0.499,-0.06 0.936,0.241 0.999,0.664c0.062,0.482 -0.25,0.905 -0.687,0.965c-0.5,0.06 -0.937,-0.241 -0.999,-0.664Z" style="fill:#888;fill-rule:nonzero;"/><path id="Combined-Shape" d="M41.311,17.752l3.218,-1.026c0.379,-0.128 0.694,0.064 0.821,0.385c0.567,1.858 0.946,3.909 1.009,5.96c0,0.32 -0.252,0.641 -0.631,0.641l-4.354,0c-0.379,0 -0.694,-0.385 -0.631,-0.769c0.126,-0.898 0.189,-1.795 0.189,-2.756c0,-0.577 0,-1.218 -0.063,-1.794c0,-0.257 0.189,-0.577 0.442,-0.641Zm-2.398,6.921c0.063,-0.256 0.315,-0.449 0.631,-0.385l7.825,0c0.379,0 0.631,0.257 0.631,0.641c-0.126,2.051 -0.505,4.55 -1.073,6.473c-0.126,0.32 -0.505,0.513 -0.82,0.384l-8.078,-2.691c-0.379,-0.128 -0.568,-0.577 -0.379,-0.897c0.632,-1.282 0.947,-2.179 1.263,-3.525Zm-3.661,18.585c0.19,0.256 0.127,0.705 -0.126,0.833c-1.577,0.961 -3.344,1.794 -5.175,2.435c-0.378,0.128 -0.694,-0.064 -0.82,-0.384l-2.019,-6.281c-0.127,-0.32 0.063,-0.641 0.378,-0.769c1.073,-0.384 2.083,-0.833 3.093,-1.41c0.315,-0.128 0.631,-0.064 0.82,0.192l3.849,5.384Zm3.85,-31.146c-0.126,-0.256 -0.063,-0.641 0.189,-0.769l1.767,-1.282c0.316,-0.192 0.694,-0.128 0.884,0.129c1.199,1.602 2.145,3.396 2.903,5.255c0.126,0.32 -0.063,0.705 -0.379,0.833l-2.966,0.961c-0.379,0.128 -0.757,-0.128 -0.82,-0.513c-0.316,-1.602 -0.884,-3.14 -1.578,-4.614Zm5.301,19.546c0.315,0.128 0.505,0.513 0.442,0.833c-0.758,1.859 -1.704,3.653 -2.903,5.255c-0.19,0.257 -0.631,0.321 -0.884,0.128l-4.985,-3.652c-0.253,-0.257 -0.316,-0.705 -0.063,-0.962c0.883,-0.961 1.64,-2.05 2.272,-3.14c0.126,-0.256 0.441,-0.32 0.694,-0.256l5.427,1.794Zm-9.592,2.884c0.189,-0.256 0.568,-0.256 0.757,-0.064l5.112,3.717c0.315,0.256 0.378,0.705 0.126,0.961c-1.262,1.474 -2.714,2.82 -4.291,3.974c-0.316,0.192 -0.695,0.128 -0.884,-0.129l-3.786,-5.319c-0.19,-0.32 -0.127,-0.705 0.189,-0.897c1.01,-0.641 1.893,-1.41 2.777,-2.243Zm0.315,-27.877c-0.252,-0.256 -0.315,-0.577 -0.063,-0.897l0.631,-0.898c0.189,-0.256 0.631,-0.32 0.884,-0.128c1.577,1.154 3.029,2.5 4.291,3.974c0.252,0.32 0.189,0.769 -0.126,0.961l-1.515,1.153c-0.252,0.193 -0.694,0.129 -0.883,-0.192c-0.884,-1.474 -1.957,-2.82 -3.219,-3.973Zm-5.995,-4.935c0.063,-0.32 0.442,-0.512 0.757,-0.448c1.83,0.576 3.597,1.41 5.175,2.435c0.316,0.192 0.379,0.577 0.189,0.897l-0.504,0.769c-0.19,0.321 -0.631,0.385 -0.884,0.128c-1.325,-1.089 -2.84,-1.986 -4.481,-2.691c-0.315,-0.128 -0.504,-0.449 -0.378,-0.769l0.126,-0.321Zm-3.218,37.875c0.315,-0.064 0.631,0.064 0.757,0.448l2.019,6.281c0.127,0.384 -0.063,0.769 -0.441,0.833c-1.831,0.513 -3.661,0.769 -5.617,0.833c-0.315,0 -0.631,-0.256 -0.631,-0.641l0,-6.537c0,-0.32 0.252,-0.64 0.568,-0.64c1.136,-0.129 2.272,-0.321 3.345,-0.577Zm-3.913,-38.451l0,-1.154c2.146,0 4.228,0.32 6.248,0.833c0.378,0.128 0.568,0.513 0.441,0.833l-0.063,0.192c-0.126,0.321 -0.505,0.513 -0.82,0.385c-1.83,-0.641 -3.787,-1.025 -5.806,-1.089Z" style="fill:#888;"/><path id="Combined-Shape1" serif:id="Combined-Shape" d="M0,15.426c0,-0.781 0.454,-1.49 1.163,-1.817l7,-3.224c0.531,-0.244 1.143,-0.244 1.674,0l7,3.224c0.709,0.327 1.163,1.036 1.163,1.817l0,9.279c0,0.757 -0.157,1.507 -0.471,2.251c-0.315,0.744 -0.704,1.404 -1.168,1.98c-0.464,0.577 -1.017,1.138 -1.659,1.684c-0.642,0.546 -1.235,0.999 -1.779,1.36c-0.543,0.361 -1.111,0.702 -1.701,1.023c-0.591,0.321 -1.011,0.539 -1.259,0.654c-0.248,0.114 -0.447,0.202 -0.597,0.264c-0.113,0.052 -0.235,0.079 -0.366,0.079c-0.132,0 -0.253,-0.027 -0.366,-0.079c-0.15,-0.062 -0.349,-0.15 -0.597,-0.264c-0.249,-0.115 -0.668,-0.333 -1.259,-0.654c-0.591,-0.321 -1.158,-0.662 -1.702,-1.023c-0.543,-0.361 -1.136,-0.814 -1.778,-1.36c-0.643,-0.546 -1.196,-1.107 -1.66,-1.684c-0.464,-0.576 -0.853,-1.236 -1.167,-1.98c-0.314,-0.744 -0.471,-1.494 -0.471,-2.251l0,-9.279Zm8.926,11.574c0,0 -4.661,-2.909 -2.244,-4.796c2.473,-1.932 9.318,-2.776 9.318,-2.776c0,0 -2.898,-0.349 -5.267,-0.415c-0.306,-0.008 -0.61,-0.013 -0.914,-0.013c-4.057,0.001 -7.707,0.8 -6.627,3.64c1.036,2.723 5.734,4.36 5.734,4.36Z" style="fill:#888;"/></g></g></svg>