<?xml version="1.0" encoding="UTF-8" standalone="no"?><!DOCTYPE svg PUBLIC "-//W3C//DTD SVG 1.1//EN" "http://www.w3.org/Graphics/SVG/1.1/DTD/svg11.dtd"><svg width="100%" height="100%" viewBox="0 0 900 77" version="1.1" xmlns="http://www.w3.org/2000/svg" xmlns:xlink="http://www.w3.org/1999/xlink" xml:space="preserve" xmlns:serif="http://www.serif.com/" style="fill-rule:evenodd;clip-rule:evenodd;stroke-linejoin:round;stroke-miterlimit:1.41421;"><g id="NGFW-initiates-TLS-S" serif:id="NGFW-initiates-TLS/S"><path d="M19.196,1.57c0.484,0 0.874,0.16 1.171,0.479c0.297,0.318 0.446,0.731 0.446,1.237l0,20.163c0,0.506 -0.154,0.918 -0.462,1.237c-0.308,0.32 -0.704,0.479 -1.188,0.479c-0.572,0 -1.012,-0.22 -1.32,-0.66l-12.936,-17.061l0,16.005c0,0.506 -0.149,0.919 -0.446,1.238c-0.297,0.319 -0.687,0.478 -1.171,0.478c-0.484,0 -0.869,-0.154 -1.155,-0.462c-0.286,-0.308 -0.429,-0.726 -0.429,-1.254l0,-20.163c0,-0.506 0.154,-0.919 0.462,-1.237c0.308,-0.319 0.704,-0.479 1.188,-0.479c0.572,0 1.012,0.22 1.32,0.66l12.936,17.094l0,-16.038c0,-0.506 0.143,-0.919 0.429,-1.237c0.286,-0.319 0.671,-0.479 1.155,-0.479Z" style="fill-rule:nonzero;"/><path d="M43.715,12.658c0.418,0 0.753,0.121 1.006,0.363c0.253,0.242 0.38,0.572 0.38,0.99l0,7.722c0,0.748 -0.105,1.287 -0.314,1.617c-0.209,0.33 -0.621,0.594 -1.237,0.792c-0.88,0.352 -1.925,0.627 -3.135,0.825c-1.21,0.198 -2.409,0.297 -3.597,0.297c-2.354,0 -4.389,-0.473 -6.105,-1.419c-1.716,-0.946 -3.025,-2.31 -3.927,-4.092c-0.902,-1.782 -1.353,-3.916 -1.353,-6.402c0,-2.442 0.451,-4.554 1.353,-6.336c0.902,-1.782 2.194,-3.151 3.877,-4.108c1.683,-0.957 3.658,-1.436 5.924,-1.436c1.54,0 2.964,0.225 4.273,0.677c1.309,0.45 2.426,1.105 3.35,1.963c0.44,0.352 0.66,0.792 0.66,1.32c0,0.396 -0.11,0.731 -0.33,1.007c-0.22,0.274 -0.484,0.412 -0.792,0.412c-0.198,0 -0.374,-0.033 -0.528,-0.099c-0.154,-0.066 -0.352,-0.176 -0.594,-0.33c-1.078,-0.792 -2.057,-1.347 -2.937,-1.666c-0.88,-0.319 -1.892,-0.479 -3.036,-0.479c-2.508,0 -4.422,0.776 -5.742,2.327c-1.32,1.551 -1.98,3.8 -1.98,6.748c0,3.014 0.677,5.297 2.03,6.848c1.352,1.551 3.338,2.326 5.956,2.326c1.76,0 3.454,-0.264 5.082,-0.792l0,-6.501l-4.323,0c-0.44,0 -0.787,-0.115 -1.04,-0.346c-0.253,-0.231 -0.379,-0.545 -0.379,-0.941c0,-0.396 0.126,-0.709 0.379,-0.94c0.253,-0.231 0.6,-0.347 1.04,-0.347l6.039,0Z" style="fill-rule:nonzero;"/><path d="M51.932,25.165c-0.506,0 -0.913,-0.159 -1.221,-0.479c-0.308,-0.319 -0.462,-0.731 -0.462,-1.237l0,-20.064c0,-0.506 0.149,-0.908 0.446,-1.204c0.297,-0.297 0.709,-0.446 1.237,-0.446l11.814,0c1.056,0 1.584,0.462 1.584,1.386c0,0.924 -0.528,1.386 -1.584,1.386l-10.131,0l0,7.293l9.471,0c1.056,0 1.584,0.462 1.584,1.386c0,0.924 -0.528,1.386 -1.584,1.386l-9.471,0l0,8.877c0,0.528 -0.148,0.946 -0.445,1.254c-0.297,0.308 -0.71,0.462 -1.238,0.462Z" style="fill-rule:nonzero;"/><path d="M98.495,2.593c0.132,-0.352 0.33,-0.616 0.594,-0.792c0.264,-0.176 0.561,-0.264 0.891,-0.264c0.418,0 0.787,0.138 1.105,0.413c0.32,0.274 0.479,0.632 0.479,1.072c0,0.242 -0.044,0.462 -0.132,0.66l-7.293,20.394c-0.154,0.374 -0.396,0.66 -0.726,0.858c-0.33,0.198 -0.693,0.297 -1.089,0.297c-0.374,0 -0.726,-0.099 -1.056,-0.297c-0.33,-0.198 -0.561,-0.484 -0.693,-0.858l-6.006,-17.028l-6.138,17.028c-0.132,0.374 -0.363,0.66 -0.693,0.858c-0.33,0.198 -0.682,0.297 -1.056,0.297c-0.396,0 -0.753,-0.099 -1.072,-0.297c-0.319,-0.198 -0.556,-0.484 -0.71,-0.858l-7.293,-20.394c-0.088,-0.198 -0.132,-0.418 -0.132,-0.66c0,-0.44 0.165,-0.797 0.495,-1.072c0.33,-0.275 0.726,-0.413 1.188,-0.413c0.33,0 0.633,0.088 0.907,0.264c0.276,0.176 0.479,0.44 0.611,0.792l6.105,17.556l6.204,-17.391c0.132,-0.374 0.347,-0.66 0.644,-0.858c0.296,-0.198 0.621,-0.297 0.973,-0.297c0.352,0 0.671,0.105 0.957,0.314c0.286,0.208 0.506,0.5 0.66,0.874l6.072,17.523l6.204,-17.721Z" style="fill-rule:nonzero;"/><path d="M115.457,25.165c-0.484,0 -0.885,-0.132 -1.204,-0.396c-0.32,-0.264 -0.479,-0.66 -0.479,-1.188l0,-13.398c0,-0.528 0.159,-0.93 0.478,-1.204c0.32,-0.276 0.721,-0.413 1.205,-0.413c0.484,0 0.88,0.137 1.188,0.413c0.308,0.274 0.462,0.676 0.462,1.204l0,13.398c0,0.528 -0.154,0.924 -0.462,1.188c-0.308,0.264 -0.704,0.396 -1.188,0.396Zm0,-19.833c-0.638,0 -1.144,-0.176 -1.518,-0.528c-0.374,-0.352 -0.561,-0.814 -0.561,-1.386c0,-0.572 0.187,-1.029 0.561,-1.369c0.374,-0.341 0.88,-0.512 1.518,-0.512c0.616,0 1.117,0.171 1.502,0.512c0.385,0.34 0.577,0.797 0.577,1.369c0,0.572 -0.187,1.034 -0.561,1.386c-0.374,0.352 -0.88,0.528 -1.518,0.528Z" style="fill-rule:nonzero;"/><path d="M130.439,8.5c3.85,0 5.775,2.167 5.775,6.501l0,8.58c0,0.506 -0.148,0.896 -0.445,1.171c-0.297,0.275 -0.71,0.413 -1.238,0.413c-0.506,0 -0.907,-0.143 -1.204,-0.429c-0.297,-0.286 -0.446,-0.671 -0.446,-1.155l0,-8.415c0,-1.364 -0.269,-2.365 -0.808,-3.003c-0.54,-0.638 -1.381,-0.957 -2.525,-0.957c-1.342,0 -2.42,0.418 -3.234,1.254c-0.814,0.836 -1.221,1.958 -1.221,3.366l0,7.755c0,0.484 -0.148,0.869 -0.445,1.155c-0.297,0.286 -0.699,0.429 -1.205,0.429c-0.506,0 -0.913,-0.143 -1.221,-0.429c-0.308,-0.286 -0.462,-0.671 -0.462,-1.155l0,-13.431c0,-0.462 0.16,-0.841 0.479,-1.138c0.319,-0.297 0.72,-0.446 1.204,-0.446c0.484,0 0.869,0.143 1.155,0.429c0.286,0.286 0.429,0.66 0.429,1.122l0,1.353c0.528,-0.968 1.265,-1.705 2.211,-2.211c0.946,-0.506 2.013,-0.759 3.201,-0.759Z" style="fill-rule:nonzero;"/><path d="M142.451,25.165c-0.484,0 -0.885,-0.132 -1.204,-0.396c-0.319,-0.264 -0.479,-0.66 -0.479,-1.188l0,-13.398c0,-0.528 0.16,-0.93 0.479,-1.204c0.319,-0.276 0.72,-0.413 1.204,-0.413c0.484,0 0.88,0.137 1.188,0.413c0.308,0.274 0.462,0.676 0.462,1.204l0,13.398c0,0.528 -0.154,0.924 -0.462,1.188c-0.308,0.264 -0.704,0.396 -1.188,0.396Zm0,-19.833c-0.638,0 -1.144,-0.176 -1.518,-0.528c-0.374,-0.352 -0.561,-0.814 -0.561,-1.386c0,-0.572 0.187,-1.029 0.561,-1.369c0.374,-0.341 0.88,-0.512 1.518,-0.512c0.616,0 1.117,0.171 1.502,0.512c0.385,0.34 0.577,0.797 0.577,1.369c0,0.572 -0.187,1.034 -0.561,1.386c-0.374,0.352 -0.88,0.528 -1.518,0.528Z" style="fill-rule:nonzero;"/><path d="M156.641,22.624c0.484,0.044 0.831,0.171 1.04,0.38c0.209,0.209 0.313,0.5 0.313,0.874c0,0.44 -0.17,0.776 -0.511,1.007c-0.341,0.231 -0.842,0.324 -1.502,0.28l-0.891,-0.066c-1.782,-0.132 -3.113,-0.677 -3.993,-1.634c-0.88,-0.956 -1.32,-2.37 -1.32,-4.24l0,-7.755l-1.98,0c-0.968,0 -1.452,-0.429 -1.452,-1.287c0,-0.396 0.127,-0.71 0.38,-0.941c0.253,-0.231 0.61,-0.346 1.072,-0.346l1.98,0l0,-3.399c0,-0.506 0.149,-0.902 0.446,-1.188c0.297,-0.286 0.698,-0.429 1.204,-0.429c0.506,0 0.913,0.143 1.221,0.429c0.308,0.286 0.462,0.682 0.462,1.188l0,3.399l3.267,0c0.462,0 0.82,0.115 1.073,0.346c0.253,0.231 0.379,0.545 0.379,0.941c0,0.418 -0.126,0.737 -0.379,0.957c-0.253,0.22 -0.611,0.33 -1.073,0.33l-3.267,0l0,7.986c0,1.034 0.215,1.793 0.644,2.277c0.429,0.484 1.083,0.759 1.963,0.825l0.924,0.066Z" style="fill-rule:nonzero;"/><path d="M162.086,25.165c-0.484,0 -0.886,-0.132 -1.204,-0.396c-0.319,-0.264 -0.479,-0.66 -0.479,-1.188l0,-13.398c0,-0.528 0.16,-0.93 0.479,-1.204c0.319,-0.276 0.72,-0.413 1.204,-0.413c0.484,0 0.88,0.137 1.188,0.413c0.308,0.274 0.462,0.676 0.462,1.204l0,13.398c0,0.528 -0.154,0.924 -0.462,1.188c-0.308,0.264 -0.704,0.396 -1.188,0.396Zm0,-19.833c-0.638,0 -1.144,-0.176 -1.518,-0.528c-0.374,-0.352 -0.561,-0.814 -0.561,-1.386c0,-0.572 0.187,-1.029 0.561,-1.369c0.374,-0.341 0.88,-0.512 1.518,-0.512c0.616,0 1.117,0.171 1.501,0.512c0.386,0.34 0.578,0.797 0.578,1.369c0,0.572 -0.187,1.034 -0.561,1.386c-0.374,0.352 -0.88,0.528 -1.518,0.528Z" style="fill-rule:nonzero;"/><path d="M175.154,8.5c2.134,0 3.724,0.539 4.769,1.617c1.044,1.078 1.567,2.717 1.567,4.917l0,8.547c0,0.506 -0.143,0.896 -0.429,1.171c-0.286,0.275 -0.682,0.413 -1.188,0.413c-0.484,0 -0.869,-0.143 -1.155,-0.429c-0.286,-0.286 -0.429,-0.671 -0.429,-1.155l0,-1.221c-0.418,0.924 -1.04,1.633 -1.865,2.128c-0.825,0.495 -1.787,0.743 -2.887,0.743c-1.056,0 -2.024,-0.215 -2.904,-0.644c-0.88,-0.429 -1.567,-1.028 -2.063,-1.798c-0.495,-0.77 -0.742,-1.628 -0.742,-2.574c0,-1.166 0.302,-2.085 0.907,-2.756c0.605,-0.671 1.606,-1.149 3.003,-1.435c1.397,-0.286 3.317,-0.429 5.759,-0.429l0.759,0l0,-0.957c0,-1.232 -0.253,-2.123 -0.759,-2.673c-0.506,-0.55 -1.32,-0.825 -2.442,-0.825c-0.77,0 -1.496,0.099 -2.178,0.297c-0.682,0.198 -1.43,0.484 -2.244,0.858c-0.594,0.33 -1.012,0.495 -1.254,0.495c-0.33,0 -0.6,-0.121 -0.809,-0.363c-0.209,-0.242 -0.313,-0.55 -0.313,-0.924c0,-0.33 0.093,-0.622 0.28,-0.875c0.187,-0.253 0.49,-0.5 0.908,-0.742c0.77,-0.418 1.672,-0.754 2.706,-1.007c1.034,-0.253 2.035,-0.379 3.003,-0.379Zm-1.023,14.256c1.21,0 2.2,-0.413 2.97,-1.238c0.77,-0.825 1.155,-1.886 1.155,-3.184l0,-0.858l-0.594,0c-1.716,0 -3.036,0.077 -3.96,0.231c-0.924,0.154 -1.584,0.412 -1.98,0.775c-0.396,0.363 -0.594,0.886 -0.594,1.568c0,0.792 0.286,1.441 0.858,1.947c0.572,0.506 1.287,0.759 2.145,0.759Z" style="fill-rule:nonzero;"/><path d="M193.931,22.624c0.484,0.044 0.831,0.171 1.04,0.38c0.209,0.209 0.313,0.5 0.313,0.874c0,0.44 -0.17,0.776 -0.511,1.007c-0.341,0.231 -0.842,0.324 -1.502,0.28l-0.891,-0.066c-1.782,-0.132 -3.113,-0.677 -3.993,-1.634c-0.88,-0.956 -1.32,-2.37 -1.32,-4.24l0,-7.755l-1.98,0c-0.968,0 -1.452,-0.429 -1.452,-1.287c0,-0.396 0.126,-0.71 0.379,-0.941c0.254,-0.231 0.611,-0.346 1.073,-0.346l1.98,0l0,-3.399c0,-0.506 0.149,-0.902 0.446,-1.188c0.297,-0.286 0.698,-0.429 1.204,-0.429c0.506,0 0.913,0.143 1.221,0.429c0.308,0.286 0.462,0.682 0.462,1.188l0,3.399l3.267,0c0.462,0 0.82,0.115 1.073,0.346c0.252,0.231 0.379,0.545 0.379,0.941c0,0.418 -0.126,0.737 -0.379,0.957c-0.254,0.22 -0.611,0.33 -1.073,0.33l-3.267,0l0,7.986c0,1.034 0.215,1.793 0.643,2.277c0.429,0.484 1.084,0.759 1.964,0.825l0.924,0.066Z" style="fill-rule:nonzero;"/><path d="M210.299,20.941c0.308,0 0.561,0.121 0.759,0.363c0.198,0.242 0.297,0.55 0.297,0.924c0,0.638 -0.396,1.177 -1.188,1.617c-0.77,0.44 -1.612,0.781 -2.524,1.023c-0.913,0.242 -1.788,0.363 -2.624,0.363c-2.552,0 -4.565,-0.742 -6.039,-2.227c-1.474,-1.485 -2.211,-3.515 -2.211,-6.089c0,-1.65 0.325,-3.113 0.974,-4.389c0.649,-1.276 1.562,-2.266 2.739,-2.97c1.177,-0.704 2.513,-1.056 4.009,-1.056c2.156,0 3.861,0.693 5.115,2.079c1.254,1.386 1.881,3.256 1.881,5.61c0,0.88 -0.396,1.32 -1.188,1.32l-10.197,0c0.22,3.41 1.859,5.115 4.917,5.115c0.814,0 1.518,-0.11 2.112,-0.33c0.594,-0.22 1.221,-0.506 1.881,-0.858c0.066,-0.044 0.248,-0.138 0.544,-0.281c0.297,-0.143 0.545,-0.214 0.743,-0.214Zm-5.742,-9.999c-1.276,0 -2.299,0.407 -3.069,1.221c-0.77,0.814 -1.232,1.958 -1.386,3.432l8.514,0c-0.066,-1.496 -0.446,-2.646 -1.139,-3.449c-0.693,-0.803 -1.666,-1.204 -2.92,-1.204Z" style="fill-rule:nonzero;"/><path d="M220.76,25.231c-2.244,0 -4.081,-0.462 -5.511,-1.386c-0.396,-0.242 -0.677,-0.495 -0.841,-0.759c-0.165,-0.264 -0.248,-0.561 -0.248,-0.891c0,-0.352 0.099,-0.649 0.297,-0.891c0.198,-0.242 0.451,-0.363 0.759,-0.363c0.286,0 0.737,0.176 1.353,0.528c0.66,0.352 1.304,0.638 1.931,0.858c0.626,0.22 1.413,0.33 2.359,0.33c1.056,0 1.881,-0.187 2.475,-0.561c0.594,-0.374 0.891,-0.902 0.891,-1.584c0,-0.44 -0.115,-0.792 -0.346,-1.056c-0.231,-0.264 -0.633,-0.5 -1.205,-0.709c-0.572,-0.209 -1.419,-0.435 -2.541,-0.677c-1.936,-0.418 -3.327,-0.985 -4.174,-1.7c-0.847,-0.714 -1.271,-1.688 -1.271,-2.92c0,-0.946 0.275,-1.799 0.825,-2.558c0.55,-0.759 1.309,-1.347 2.277,-1.765c0.968,-0.418 2.068,-0.627 3.3,-0.627c0.88,0 1.738,0.116 2.574,0.346c0.836,0.232 1.573,0.567 2.211,1.007c0.726,0.484 1.089,1.045 1.089,1.683c0,0.352 -0.105,0.649 -0.314,0.891c-0.209,0.242 -0.456,0.363 -0.742,0.363c-0.198,0 -0.396,-0.044 -0.594,-0.132c-0.198,-0.088 -0.462,-0.231 -0.792,-0.429c-0.594,-0.352 -1.15,-0.627 -1.667,-0.825c-0.517,-0.198 -1.16,-0.297 -1.93,-0.297c-0.924,0 -1.667,0.198 -2.228,0.594c-0.56,0.396 -0.841,0.935 -0.841,1.617c0,0.616 0.258,1.095 0.776,1.436c0.517,0.341 1.49,0.665 2.92,0.973c1.474,0.308 2.629,0.66 3.465,1.056c0.836,0.396 1.436,0.886 1.799,1.469c0.363,0.582 0.544,1.325 0.544,2.227c0,1.43 -0.6,2.579 -1.799,3.448c-1.198,0.87 -2.799,1.304 -4.801,1.304Z" style="fill-rule:nonzero;"/><path d="M247.424,25.165c-0.506,0 -0.919,-0.159 -1.238,-0.479c-0.319,-0.319 -0.478,-0.731 -0.478,-1.237l0,-18.876l-6.6,0c-1.056,0 -1.584,-0.473 -1.584,-1.419c0,-0.462 0.137,-0.814 0.412,-1.056c0.275,-0.242 0.666,-0.363 1.172,-0.363l16.632,0c0.506,0 0.897,0.121 1.171,0.363c0.276,0.242 0.413,0.594 0.413,1.056c0,0.946 -0.528,1.419 -1.584,1.419l-6.6,0l0,18.876c0,0.506 -0.154,0.919 -0.462,1.238c-0.308,0.319 -0.726,0.478 -1.254,0.478Z" style="fill-rule:nonzero;"/><path d="M261.779,25c-0.506,0 -0.907,-0.143 -1.204,-0.429c-0.298,-0.286 -0.446,-0.671 -0.446,-1.155l0,-20.13c0,-0.506 0.154,-0.919 0.462,-1.238c0.308,-0.318 0.715,-0.478 1.221,-0.478c0.528,0 0.946,0.154 1.254,0.462c0.308,0.308 0.462,0.726 0.462,1.254l0,18.876l10.032,0c0.506,0 0.897,0.121 1.172,0.363c0.275,0.242 0.412,0.594 0.412,1.056c0,0.462 -0.137,0.814 -0.412,1.056c-0.275,0.242 -0.666,0.363 -1.172,0.363l-11.781,0Z" style="fill-rule:nonzero;"/><path d="M285.374,25.264c-1.672,0 -3.262,-0.231 -4.769,-0.693c-1.507,-0.462 -2.711,-1.1 -3.613,-1.914c-0.418,-0.352 -0.627,-0.803 -0.627,-1.353c0,-0.396 0.11,-0.731 0.33,-1.006c0.22,-0.275 0.484,-0.413 0.792,-0.413c0.308,0 0.682,0.143 1.122,0.429c1.958,1.452 4.191,2.178 6.699,2.178c1.76,0 3.113,-0.33 4.059,-0.99c0.946,-0.66 1.419,-1.606 1.419,-2.838c0,-0.968 -0.44,-1.694 -1.32,-2.178c-0.88,-0.484 -2.288,-0.946 -4.224,-1.386c-1.848,-0.396 -3.366,-0.847 -4.554,-1.353c-1.188,-0.506 -2.118,-1.193 -2.789,-2.062c-0.671,-0.869 -1.006,-1.975 -1.006,-3.317c0,-1.342 0.368,-2.535 1.105,-3.58c0.737,-1.045 1.766,-1.859 3.086,-2.442c1.32,-0.583 2.827,-0.875 4.521,-0.875c1.562,0 3.003,0.22 4.323,0.66c1.32,0.44 2.442,1.089 3.366,1.947c0.44,0.374 0.66,0.825 0.66,1.353c0,0.374 -0.116,0.704 -0.347,0.99c-0.231,0.286 -0.5,0.429 -0.808,0.429c-0.286,0 -0.649,-0.143 -1.089,-0.429c-1.012,-0.77 -1.964,-1.325 -2.855,-1.666c-0.891,-0.341 -1.963,-0.512 -3.217,-0.512c-1.694,0 -3.014,0.347 -3.96,1.04c-0.946,0.693 -1.419,1.655 -1.419,2.887c0,1.056 0.418,1.854 1.254,2.393c0.836,0.539 2.178,1.028 4.026,1.468c1.936,0.44 3.503,0.897 4.702,1.37c1.199,0.473 2.156,1.122 2.871,1.947c0.715,0.825 1.073,1.886 1.073,3.184c0,1.32 -0.369,2.492 -1.106,3.515c-0.737,1.023 -1.771,1.815 -3.102,2.376c-1.331,0.561 -2.865,0.841 -4.603,0.841Z" style="fill-rule:nonzero;"/><path d="M298.178,26.155c-0.11,0.352 -0.286,0.61 -0.528,0.775c-0.242,0.166 -0.506,0.248 -0.792,0.248c-0.374,0 -0.704,-0.121 -0.99,-0.363c-0.286,-0.242 -0.429,-0.561 -0.429,-0.957c0,-0.154 0.033,-0.33 0.099,-0.528l7.722,-24.189c0.11,-0.352 0.286,-0.61 0.528,-0.776c0.242,-0.165 0.506,-0.247 0.792,-0.247c0.374,0 0.704,0.121 0.99,0.363c0.286,0.242 0.429,0.561 0.429,0.957c0,0.154 -0.033,0.33 -0.099,0.528l-7.722,24.189Z" style="fill-rule:nonzero;"/><path d="M315.998,25.264c-1.672,0 -3.262,-0.231 -4.769,-0.693c-1.507,-0.462 -2.711,-1.1 -3.613,-1.914c-0.418,-0.352 -0.627,-0.803 -0.627,-1.353c0,-0.396 0.11,-0.731 0.33,-1.006c0.22,-0.275 0.484,-0.413 0.792,-0.413c0.308,0 0.682,0.143 1.122,0.429c1.958,1.452 4.191,2.178 6.699,2.178c1.76,0 3.113,-0.33 4.059,-0.99c0.946,-0.66 1.419,-1.606 1.419,-2.838c0,-0.968 -0.44,-1.694 -1.32,-2.178c-0.88,-0.484 -2.288,-0.946 -4.224,-1.386c-1.848,-0.396 -3.366,-0.847 -4.554,-1.353c-1.188,-0.506 -2.118,-1.193 -2.789,-2.062c-0.671,-0.869 -1.006,-1.975 -1.006,-3.317c0,-1.342 0.368,-2.535 1.105,-3.58c0.737,-1.045 1.766,-1.859 3.086,-2.442c1.32,-0.583 2.827,-0.875 4.521,-0.875c1.562,0 3.003,0.22 4.323,0.66c1.32,0.44 2.442,1.089 3.366,1.947c0.44,0.374 0.66,0.825 0.66,1.353c0,0.374 -0.116,0.704 -0.347,0.99c-0.231,0.286 -0.5,0.429 -0.808,0.429c-0.286,0 -0.649,-0.143 -1.089,-0.429c-1.012,-0.77 -1.964,-1.325 -2.855,-1.666c-0.891,-0.341 -1.963,-0.512 -3.217,-0.512c-1.694,0 -3.014,0.347 -3.96,1.04c-0.946,0.693 -1.419,1.655 -1.419,2.887c0,1.056 0.418,1.854 1.254,2.393c0.836,0.539 2.178,1.028 4.026,1.468c1.936,0.44 3.503,0.897 4.702,1.37c1.199,0.473 2.156,1.122 2.871,1.947c0.715,0.825 1.073,1.886 1.073,3.184c0,1.32 -0.369,2.492 -1.106,3.515c-0.737,1.023 -1.771,1.815 -3.102,2.376c-1.331,0.561 -2.865,0.841 -4.603,0.841Z" style="fill-rule:nonzero;"/><path d="M336.689,25.264c-1.672,0 -3.262,-0.231 -4.769,-0.693c-1.507,-0.462 -2.711,-1.1 -3.613,-1.914c-0.418,-0.352 -0.627,-0.803 -0.627,-1.353c0,-0.396 0.11,-0.731 0.33,-1.006c0.22,-0.275 0.484,-0.413 0.792,-0.413c0.308,0 0.682,0.143 1.122,0.429c1.958,1.452 4.191,2.178 6.699,2.178c1.76,0 3.113,-0.33 4.059,-0.99c0.946,-0.66 1.419,-1.606 1.419,-2.838c0,-0.968 -0.44,-1.694 -1.32,-2.178c-0.88,-0.484 -2.288,-0.946 -4.224,-1.386c-1.848,-0.396 -3.366,-0.847 -4.554,-1.353c-1.188,-0.506 -2.118,-1.193 -2.789,-2.062c-0.671,-0.869 -1.006,-1.975 -1.006,-3.317c0,-1.342 0.368,-2.535 1.105,-3.58c0.737,-1.045 1.766,-1.859 3.086,-2.442c1.32,-0.583 2.827,-0.875 4.521,-0.875c1.562,0 3.003,0.22 4.323,0.66c1.32,0.44 2.442,1.089 3.366,1.947c0.44,0.374 0.66,0.825 0.66,1.353c0,0.374 -0.116,0.704 -0.347,0.99c-0.231,0.286 -0.5,0.429 -0.808,0.429c-0.286,0 -0.649,-0.143 -1.089,-0.429c-1.012,-0.77 -1.964,-1.325 -2.855,-1.666c-0.891,-0.341 -1.963,-0.512 -3.217,-0.512c-1.694,0 -3.014,0.347 -3.96,1.04c-0.946,0.693 -1.419,1.655 -1.419,2.887c0,1.056 0.418,1.854 1.254,2.393c0.836,0.539 2.178,1.028 4.026,1.468c1.936,0.44 3.503,0.897 4.702,1.37c1.199,0.473 2.156,1.122 2.871,1.947c0.715,0.825 1.073,1.886 1.073,3.184c0,1.32 -0.369,2.492 -1.106,3.515c-0.737,1.023 -1.771,1.815 -3.102,2.376c-1.331,0.561 -2.865,0.841 -4.603,0.841Z" style="fill-rule:nonzero;"/><path d="M351.341,25c-0.506,0 -0.908,-0.143 -1.205,-0.429c-0.297,-0.286 -0.445,-0.671 -0.445,-1.155l0,-20.13c0,-0.506 0.154,-0.919 0.462,-1.238c0.308,-0.318 0.715,-0.478 1.221,-0.478c0.528,0 0.946,0.154 1.254,0.462c0.308,0.308 0.462,0.726 0.462,1.254l0,18.876l10.032,0c0.506,0 0.896,0.121 1.171,0.363c0.275,0.242 0.413,0.594 0.413,1.056c0,0.462 -0.138,0.814 -0.413,1.056c-0.275,0.242 -0.665,0.363 -1.171,0.363l-11.781,0Z" style="fill-rule:nonzero;"/><path d="M384.77,8.5c3.828,0 5.742,2.167 5.742,6.501l0,8.58c0,0.484 -0.154,0.869 -0.462,1.155c-0.308,0.286 -0.715,0.429 -1.221,0.429c-0.506,0 -0.908,-0.143 -1.205,-0.429c-0.297,-0.286 -0.445,-0.671 -0.445,-1.155l0,-8.547c0,-1.32 -0.27,-2.288 -0.809,-2.904c-0.539,-0.616 -1.38,-0.924 -2.524,-0.924c-1.342,0 -2.42,0.418 -3.234,1.254c-0.814,0.836 -1.221,1.958 -1.221,3.366l0,7.755c0,0.484 -0.149,0.869 -0.446,1.155c-0.297,0.286 -0.698,0.429 -1.204,0.429c-0.506,0 -0.913,-0.143 -1.221,-0.429c-0.308,-0.286 -0.462,-0.671 -0.462,-1.155l0,-20.427c0,-0.484 0.159,-0.869 0.478,-1.155c0.319,-0.286 0.732,-0.429 1.238,-0.429c0.484,0 0.874,0.137 1.171,0.412c0.297,0.276 0.446,0.644 0.446,1.106l0,8.25c0.55,-0.924 1.287,-1.628 2.211,-2.112c0.924,-0.484 1.98,-0.726 3.168,-0.726Z" style="fill-rule:nonzero;"/><path d="M401.831,8.5c2.134,0 3.723,0.539 4.768,1.617c1.045,1.078 1.568,2.717 1.568,4.917l0,8.547c0,0.506 -0.143,0.896 -0.429,1.171c-0.286,0.275 -0.682,0.413 -1.188,0.413c-0.484,0 -0.869,-0.143 -1.155,-0.429c-0.286,-0.286 -0.429,-0.671 -0.429,-1.155l0,-1.221c-0.418,0.924 -1.04,1.633 -1.865,2.128c-0.825,0.495 -1.787,0.743 -2.887,0.743c-1.056,0 -2.024,-0.215 -2.904,-0.644c-0.88,-0.429 -1.568,-1.028 -2.063,-1.798c-0.495,-0.77 -0.742,-1.628 -0.742,-2.574c0,-1.166 0.302,-2.085 0.907,-2.756c0.605,-0.671 1.606,-1.149 3.003,-1.435c1.397,-0.286 3.317,-0.429 5.759,-0.429l0.759,0l0,-0.957c0,-1.232 -0.253,-2.123 -0.759,-2.673c-0.506,-0.55 -1.32,-0.825 -2.442,-0.825c-0.77,0 -1.496,0.099 -2.178,0.297c-0.682,0.198 -1.43,0.484 -2.244,0.858c-0.594,0.33 -1.012,0.495 -1.254,0.495c-0.33,0 -0.6,-0.121 -0.809,-0.363c-0.209,-0.242 -0.313,-0.55 -0.313,-0.924c0,-0.33 0.093,-0.622 0.28,-0.875c0.187,-0.253 0.49,-0.5 0.908,-0.742c0.77,-0.418 1.672,-0.754 2.706,-1.007c1.034,-0.253 2.035,-0.379 3.003,-0.379Zm-1.023,14.256c1.21,0 2.2,-0.413 2.97,-1.238c0.77,-0.825 1.155,-1.886 1.155,-3.184l0,-0.858l-0.594,0c-1.716,0 -3.036,0.077 -3.96,0.231c-0.924,0.154 -1.584,0.412 -1.98,0.775c-0.396,0.363 -0.594,0.886 -0.594,1.568c0,0.792 0.286,1.441 0.858,1.947c0.572,0.506 1.287,0.759 2.145,0.759Z" style="fill-rule:nonzero;"/><path d="M421.4,8.5c3.85,0 5.775,2.167 5.775,6.501l0,8.58c0,0.506 -0.149,0.896 -0.446,1.171c-0.297,0.275 -0.709,0.413 -1.237,0.413c-0.506,0 -0.908,-0.143 -1.205,-0.429c-0.297,-0.286 -0.445,-0.671 -0.445,-1.155l0,-8.415c0,-1.364 -0.27,-2.365 -0.809,-3.003c-0.539,-0.638 -1.38,-0.957 -2.524,-0.957c-1.342,0 -2.42,0.418 -3.234,1.254c-0.814,0.836 -1.221,1.958 -1.221,3.366l0,7.755c0,0.484 -0.149,0.869 -0.446,1.155c-0.297,0.286 -0.698,0.429 -1.204,0.429c-0.506,0 -0.913,-0.143 -1.221,-0.429c-0.308,-0.286 -0.462,-0.671 -0.462,-1.155l0,-13.431c0,-0.462 0.159,-0.841 0.478,-1.138c0.319,-0.297 0.721,-0.446 1.205,-0.446c0.484,0 0.869,0.143 1.155,0.429c0.286,0.286 0.429,0.66 0.429,1.122l0,1.353c0.528,-0.968 1.265,-1.705 2.211,-2.211c0.946,-0.506 2.013,-0.759 3.201,-0.759Z" style="fill-rule:nonzero;"/><path d="M444.896,1.57c0.506,0 0.913,0.143 1.221,0.429c0.308,0.286 0.462,0.671 0.462,1.155l0,20.394c0,0.506 -0.149,0.902 -0.446,1.188c-0.297,0.286 -0.698,0.429 -1.204,0.429c-0.506,0 -0.908,-0.143 -1.205,-0.429c-0.297,-0.286 -0.445,-0.682 -0.445,-1.188l0,-1.32c-0.484,0.968 -1.188,1.71 -2.112,2.227c-0.924,0.517 -1.991,0.776 -3.201,0.776c-1.386,0 -2.624,-0.352 -3.713,-1.056c-1.089,-0.704 -1.936,-1.694 -2.541,-2.97c-0.605,-1.276 -0.907,-2.739 -0.907,-4.389c0,-1.672 0.302,-3.135 0.907,-4.389c0.605,-1.254 1.447,-2.222 2.525,-2.904c1.078,-0.682 2.321,-1.023 3.729,-1.023c1.21,0 2.271,0.258 3.184,0.775c0.913,0.517 1.612,1.249 2.096,2.195l0,-8.382c0,-0.462 0.148,-0.831 0.445,-1.106c0.297,-0.275 0.699,-0.412 1.205,-0.412Zm-6.138,21.021c1.43,0 2.541,-0.495 3.333,-1.485c0.792,-0.99 1.188,-2.398 1.188,-4.224c0,-1.826 -0.391,-3.234 -1.172,-4.224c-0.781,-0.99 -1.897,-1.485 -3.349,-1.485c-1.452,0 -2.58,0.489 -3.383,1.468c-0.803,0.979 -1.204,2.371 -1.204,4.175c0,1.804 0.407,3.217 1.221,4.24c0.814,1.023 1.936,1.535 3.366,1.535Z" style="fill-rule:nonzero;"/><path d="M456.842,25.231c-2.244,0 -4.081,-0.462 -5.511,-1.386c-0.396,-0.242 -0.677,-0.495 -0.842,-0.759c-0.165,-0.264 -0.247,-0.561 -0.247,-0.891c0,-0.352 0.099,-0.649 0.297,-0.891c0.198,-0.242 0.451,-0.363 0.759,-0.363c0.286,0 0.737,0.176 1.353,0.528c0.66,0.352 1.303,0.638 1.93,0.858c0.627,0.22 1.414,0.33 2.36,0.33c1.056,0 1.881,-0.187 2.475,-0.561c0.594,-0.374 0.891,-0.902 0.891,-1.584c0,-0.44 -0.116,-0.792 -0.347,-1.056c-0.231,-0.264 -0.632,-0.5 -1.204,-0.709c-0.572,-0.209 -1.419,-0.435 -2.541,-0.677c-1.936,-0.418 -3.328,-0.985 -4.175,-1.7c-0.847,-0.714 -1.27,-1.688 -1.27,-2.92c0,-0.946 0.275,-1.799 0.825,-2.558c0.55,-0.759 1.309,-1.347 2.277,-1.765c0.968,-0.418 2.068,-0.627 3.3,-0.627c0.88,0 1.738,0.116 2.574,0.346c0.836,0.232 1.573,0.567 2.211,1.007c0.726,0.484 1.089,1.045 1.089,1.683c0,0.352 -0.105,0.649 -0.314,0.891c-0.209,0.242 -0.456,0.363 -0.742,0.363c-0.198,0 -0.396,-0.044 -0.594,-0.132c-0.198,-0.088 -0.462,-0.231 -0.792,-0.429c-0.594,-0.352 -1.15,-0.627 -1.667,-0.825c-0.517,-0.198 -1.16,-0.297 -1.93,-0.297c-0.924,0 -1.667,0.198 -2.228,0.594c-0.561,0.396 -0.841,0.935 -0.841,1.617c0,0.616 0.258,1.095 0.775,1.436c0.517,0.341 1.491,0.665 2.921,0.973c1.474,0.308 2.629,0.66 3.465,1.056c0.836,0.396 1.435,0.886 1.798,1.469c0.363,0.582 0.545,1.325 0.545,2.227c0,1.43 -0.6,2.579 -1.799,3.448c-1.199,0.87 -2.799,1.304 -4.801,1.304Z" style="fill-rule:nonzero;"/><path d="M475.85,8.5c3.828,0 5.742,2.167 5.742,6.501l0,8.58c0,0.484 -0.154,0.869 -0.462,1.155c-0.308,0.286 -0.715,0.429 -1.221,0.429c-0.506,0 -0.908,-0.143 -1.205,-0.429c-0.297,-0.286 -0.445,-0.671 -0.445,-1.155l0,-8.547c0,-1.32 -0.27,-2.288 -0.809,-2.904c-0.539,-0.616 -1.38,-0.924 -2.524,-0.924c-1.342,0 -2.42,0.418 -3.234,1.254c-0.814,0.836 -1.221,1.958 -1.221,3.366l0,7.755c0,0.484 -0.149,0.869 -0.446,1.155c-0.297,0.286 -0.698,0.429 -1.204,0.429c-0.506,0 -0.913,-0.143 -1.221,-0.429c-0.308,-0.286 -0.462,-0.671 -0.462,-1.155l0,-20.427c0,-0.484 0.159,-0.869 0.478,-1.155c0.319,-0.286 0.732,-0.429 1.238,-0.429c0.484,0 0.874,0.137 1.171,0.412c0.297,0.276 0.446,0.644 0.446,1.106l0,8.25c0.55,-0.924 1.287,-1.628 2.211,-2.112c0.924,-0.484 1.98,-0.726 3.168,-0.726Z" style="fill-rule:nonzero;"/><path d="M492.911,8.5c2.134,0 3.723,0.539 4.768,1.617c1.045,1.078 1.568,2.717 1.568,4.917l0,8.547c0,0.506 -0.143,0.896 -0.429,1.171c-0.286,0.275 -0.682,0.413 -1.188,0.413c-0.484,0 -0.869,-0.143 -1.155,-0.429c-0.286,-0.286 -0.429,-0.671 -0.429,-1.155l0,-1.221c-0.418,0.924 -1.04,1.633 -1.865,2.128c-0.825,0.495 -1.787,0.743 -2.887,0.743c-1.056,0 -2.024,-0.215 -2.904,-0.644c-0.88,-0.429 -1.568,-1.028 -2.063,-1.798c-0.495,-0.77 -0.742,-1.628 -0.742,-2.574c0,-1.166 0.302,-2.085 0.907,-2.756c0.605,-0.671 1.606,-1.149 3.003,-1.435c1.397,-0.286 3.317,-0.429 5.759,-0.429l0.759,0l0,-0.957c0,-1.232 -0.253,-2.123 -0.759,-2.673c-0.506,-0.55 -1.32,-0.825 -2.442,-0.825c-0.77,0 -1.496,0.099 -2.178,0.297c-0.682,0.198 -1.43,0.484 -2.244,0.858c-0.594,0.33 -1.012,0.495 -1.254,0.495c-0.33,0 -0.6,-0.121 -0.809,-0.363c-0.209,-0.242 -0.313,-0.55 -0.313,-0.924c0,-0.33 0.093,-0.622 0.28,-0.875c0.187,-0.253 0.49,-0.5 0.908,-0.742c0.77,-0.418 1.672,-0.754 2.706,-1.007c1.034,-0.253 2.035,-0.379 3.003,-0.379Zm-1.023,14.256c1.21,0 2.2,-0.413 2.97,-1.238c0.77,-0.825 1.155,-1.886 1.155,-3.184l0,-0.858l-0.594,0c-1.716,0 -3.036,0.077 -3.96,0.231c-0.924,0.154 -1.584,0.412 -1.98,0.775c-0.396,0.363 -0.594,0.886 -0.594,1.568c0,0.792 0.286,1.441 0.858,1.947c0.572,0.506 1.287,0.759 2.145,0.759Z" style="fill-rule:nonzero;"/><path d="M517.331,22.393c0.396,0.33 0.594,0.737 0.594,1.221c0,0.418 -0.143,0.781 -0.429,1.089c-0.286,0.308 -0.627,0.462 -1.023,0.462c-0.418,0 -0.792,-0.154 -1.122,-0.462l-8.217,-7.26l0,6.105c0,0.528 -0.154,0.93 -0.462,1.205c-0.308,0.274 -0.704,0.412 -1.188,0.412c-0.484,0 -0.886,-0.137 -1.205,-0.412c-0.319,-0.276 -0.478,-0.677 -0.478,-1.205l0,-20.361c0,-0.528 0.159,-0.929 0.478,-1.205c0.319,-0.274 0.721,-0.412 1.205,-0.412c0.484,0 0.88,0.138 1.188,0.412c0.308,0.276 0.462,0.677 0.462,1.205l0,12.936l7.524,-7.029c0.374,-0.33 0.737,-0.495 1.089,-0.495c0.418,0 0.781,0.154 1.089,0.462c0.308,0.308 0.462,0.671 0.462,1.089c0,0.418 -0.187,0.803 -0.561,1.155l-5.874,5.379l6.468,5.709Z" style="fill-rule:nonzero;"/><path d="M533.204,20.941c0.308,0 0.561,0.121 0.759,0.363c0.198,0.242 0.297,0.55 0.297,0.924c0,0.638 -0.396,1.177 -1.188,1.617c-0.77,0.44 -1.612,0.781 -2.525,1.023c-0.913,0.242 -1.787,0.363 -2.623,0.363c-2.552,0 -4.565,-0.742 -6.039,-2.227c-1.474,-1.485 -2.211,-3.515 -2.211,-6.089c0,-1.65 0.324,-3.113 0.973,-4.389c0.649,-1.276 1.562,-2.266 2.739,-2.97c1.177,-0.704 2.514,-1.056 4.01,-1.056c2.156,0 3.861,0.693 5.115,2.079c1.254,1.386 1.881,3.256 1.881,5.61c0,0.88 -0.396,1.32 -1.188,1.32l-10.197,0c0.22,3.41 1.859,5.115 4.917,5.115c0.814,0 1.518,-0.11 2.112,-0.33c0.594,-0.22 1.221,-0.506 1.881,-0.858c0.066,-0.044 0.247,-0.138 0.544,-0.281c0.297,-0.143 0.545,-0.214 0.743,-0.214Zm-5.742,-9.999c-1.276,0 -2.299,0.407 -3.069,1.221c-0.77,0.814 -1.232,1.958 -1.386,3.432l8.514,0c-0.066,-1.496 -0.446,-2.646 -1.139,-3.449c-0.693,-0.803 -1.666,-1.204 -2.92,-1.204Z" style="fill-rule:nonzero;"/><path d="M568.679,9.589c0.242,-0.66 0.693,-0.99 1.353,-0.99c0.418,0 0.792,0.143 1.122,0.429c0.33,0.286 0.495,0.638 0.495,1.056c0,0.22 -0.044,0.418 -0.132,0.594l-5.478,13.365c-0.132,0.352 -0.352,0.622 -0.66,0.809c-0.308,0.186 -0.649,0.28 -1.023,0.28c-0.352,0 -0.682,-0.094 -0.99,-0.28c-0.308,-0.188 -0.528,-0.457 -0.66,-0.809l-4.29,-10.593l-4.191,10.593c-0.132,0.352 -0.347,0.622 -0.644,0.809c-0.297,0.186 -0.632,0.28 -1.006,0.28c-0.352,0 -0.688,-0.094 -1.007,-0.28c-0.319,-0.188 -0.555,-0.457 -0.709,-0.809l-5.445,-13.365c-0.088,-0.176 -0.132,-0.363 -0.132,-0.561c0,-0.44 0.181,-0.803 0.544,-1.089c0.363,-0.286 0.765,-0.429 1.205,-0.429c0.66,0 1.111,0.319 1.353,0.957l4.257,11.253l4.356,-11.154c0.132,-0.352 0.341,-0.616 0.627,-0.792c0.286,-0.176 0.594,-0.264 0.924,-0.264c0.308,0 0.605,0.088 0.891,0.264c0.286,0.176 0.495,0.44 0.627,0.792l4.356,11.088l4.257,-11.154Z" style="fill-rule:nonzero;"/><path d="M576.434,25.165c-0.484,0 -0.886,-0.132 -1.205,-0.396c-0.319,-0.264 -0.478,-0.66 -0.478,-1.188l0,-13.398c0,-0.528 0.159,-0.93 0.478,-1.204c0.319,-0.276 0.721,-0.413 1.205,-0.413c0.484,0 0.88,0.137 1.188,0.413c0.308,0.274 0.462,0.676 0.462,1.204l0,13.398c0,0.528 -0.154,0.924 -0.462,1.188c-0.308,0.264 -0.704,0.396 -1.188,0.396Zm0,-19.833c-0.638,0 -1.144,-0.176 -1.518,-0.528c-0.374,-0.352 -0.561,-0.814 -0.561,-1.386c0,-0.572 0.187,-1.029 0.561,-1.369c0.374,-0.341 0.88,-0.512 1.518,-0.512c0.616,0 1.116,0.171 1.501,0.512c0.385,0.34 0.578,0.797 0.578,1.369c0,0.572 -0.187,1.034 -0.561,1.386c-0.374,0.352 -0.88,0.528 -1.518,0.528Z" style="fill-rule:nonzero;"/><path d="M590.624,22.624c0.484,0.044 0.83,0.171 1.039,0.38c0.209,0.209 0.314,0.5 0.314,0.874c0,0.44 -0.171,0.776 -0.512,1.007c-0.341,0.231 -0.841,0.324 -1.501,0.28l-0.891,-0.066c-1.782,-0.132 -3.113,-0.677 -3.993,-1.634c-0.88,-0.956 -1.32,-2.37 -1.32,-4.24l0,-7.755l-1.98,0c-0.968,0 -1.452,-0.429 -1.452,-1.287c0,-0.396 0.126,-0.71 0.379,-0.941c0.253,-0.231 0.611,-0.346 1.073,-0.346l1.98,0l0,-3.399c0,-0.506 0.148,-0.902 0.445,-1.188c0.297,-0.286 0.699,-0.429 1.205,-0.429c0.506,0 0.913,0.143 1.221,0.429c0.308,0.286 0.462,0.682 0.462,1.188l0,3.399l3.267,0c0.462,0 0.819,0.115 1.072,0.346c0.253,0.231 0.38,0.545 0.38,0.941c0,0.418 -0.127,0.737 -0.38,0.957c-0.253,0.22 -0.61,0.33 -1.072,0.33l-3.267,0l0,7.986c0,1.034 0.214,1.793 0.643,2.277c0.429,0.484 1.084,0.759 1.964,0.825l0.924,0.066Z" style="fill-rule:nonzero;"/><path d="M603.098,8.5c3.828,0 5.742,2.167 5.742,6.501l0,8.58c0,0.484 -0.154,0.869 -0.462,1.155c-0.308,0.286 -0.715,0.429 -1.221,0.429c-0.506,0 -0.908,-0.143 -1.205,-0.429c-0.297,-0.286 -0.445,-0.671 -0.445,-1.155l0,-8.547c0,-1.32 -0.269,-2.288 -0.809,-2.904c-0.539,-0.616 -1.38,-0.924 -2.524,-0.924c-1.342,0 -2.42,0.418 -3.234,1.254c-0.814,0.836 -1.221,1.958 -1.221,3.366l0,7.755c0,0.484 -0.149,0.869 -0.446,1.155c-0.297,0.286 -0.698,0.429 -1.204,0.429c-0.506,0 -0.913,-0.143 -1.221,-0.429c-0.308,-0.286 -0.462,-0.671 -0.462,-1.155l0,-20.427c0,-0.484 0.159,-0.869 0.478,-1.155c0.319,-0.286 0.732,-0.429 1.238,-0.429c0.484,0 0.874,0.137 1.171,0.412c0.297,0.276 0.446,0.644 0.446,1.106l0,8.25c0.55,-0.924 1.287,-1.628 2.211,-2.112c0.924,-0.484 1.98,-0.726 3.168,-0.726Z" style="fill-rule:nonzero;"/><path d="M627.716,25.231c-2.244,0 -4.081,-0.462 -5.511,-1.386c-0.396,-0.242 -0.677,-0.495 -0.842,-0.759c-0.165,-0.264 -0.247,-0.561 -0.247,-0.891c0,-0.352 0.099,-0.649 0.297,-0.891c0.198,-0.242 0.451,-0.363 0.759,-0.363c0.286,0 0.737,0.176 1.353,0.528c0.66,0.352 1.303,0.638 1.93,0.858c0.627,0.22 1.414,0.33 2.36,0.33c1.056,0 1.881,-0.187 2.475,-0.561c0.594,-0.374 0.891,-0.902 0.891,-1.584c0,-0.44 -0.116,-0.792 -0.347,-1.056c-0.231,-0.264 -0.632,-0.5 -1.204,-0.709c-0.572,-0.209 -1.419,-0.435 -2.541,-0.677c-1.936,-0.418 -3.328,-0.985 -4.175,-1.7c-0.847,-0.714 -1.27,-1.688 -1.27,-2.92c0,-0.946 0.275,-1.799 0.825,-2.558c0.55,-0.759 1.309,-1.347 2.277,-1.765c0.968,-0.418 2.068,-0.627 3.3,-0.627c0.88,0 1.738,0.116 2.574,0.346c0.836,0.232 1.573,0.567 2.211,1.007c0.726,0.484 1.089,1.045 1.089,1.683c0,0.352 -0.105,0.649 -0.314,0.891c-0.209,0.242 -0.456,0.363 -0.742,0.363c-0.198,0 -0.396,-0.044 -0.594,-0.132c-0.198,-0.088 -0.462,-0.231 -0.792,-0.429c-0.594,-0.352 -1.15,-0.627 -1.667,-0.825c-0.517,-0.198 -1.16,-0.297 -1.93,-0.297c-0.924,0 -1.667,0.198 -2.228,0.594c-0.561,0.396 -0.841,0.935 -0.841,1.617c0,0.616 0.258,1.095 0.775,1.436c0.517,0.341 1.491,0.665 2.921,0.973c1.474,0.308 2.629,0.66 3.465,1.056c0.836,0.396 1.435,0.886 1.798,1.469c0.363,0.582 0.545,1.325 0.545,2.227c0,1.43 -0.6,2.579 -1.799,3.448c-1.199,0.87 -2.799,1.304 -4.801,1.304Z" style="fill-rule:nonzero;"/><path d="M650.618,20.941c0.308,0 0.561,0.121 0.759,0.363c0.198,0.242 0.297,0.55 0.297,0.924c0,0.638 -0.396,1.177 -1.188,1.617c-0.77,0.44 -1.612,0.781 -2.525,1.023c-0.913,0.242 -1.787,0.363 -2.623,0.363c-2.552,0 -4.565,-0.742 -6.039,-2.227c-1.474,-1.485 -2.211,-3.515 -2.211,-6.089c0,-1.65 0.324,-3.113 0.973,-4.389c0.649,-1.276 1.562,-2.266 2.739,-2.97c1.177,-0.704 2.514,-1.056 4.01,-1.056c2.156,0 3.861,0.693 5.115,2.079c1.254,1.386 1.881,3.256 1.881,5.61c0,0.88 -0.396,1.32 -1.188,1.32l-10.197,0c0.22,3.41 1.859,5.115 4.917,5.115c0.814,0 1.518,-0.11 2.112,-0.33c0.594,-0.22 1.221,-0.506 1.881,-0.858c0.066,-0.044 0.247,-0.138 0.544,-0.281c0.297,-0.143 0.545,-0.214 0.743,-0.214Zm-5.742,-9.999c-1.276,0 -2.299,0.407 -3.069,1.221c-0.77,0.814 -1.232,1.958 -1.386,3.432l8.514,0c-0.066,-1.496 -0.446,-2.646 -1.139,-3.449c-0.693,-0.803 -1.666,-1.204 -2.92,-1.204Z" style="fill-rule:nonzero;"/><path d="M663.917,8.566c1.056,-0.066 1.584,0.385 1.584,1.353c0,0.484 -0.121,0.847 -0.363,1.089c-0.242,0.242 -0.66,0.385 -1.254,0.429l-0.99,0.099c-1.386,0.132 -2.415,0.616 -3.086,1.452c-0.671,0.836 -1.006,1.848 -1.006,3.036l0,7.557c0,0.528 -0.154,0.924 -0.462,1.188c-0.308,0.264 -0.704,0.396 -1.188,0.396c-0.484,0 -0.886,-0.132 -1.205,-0.396c-0.319,-0.264 -0.478,-0.66 -0.478,-1.188l0,-13.431c0,-0.506 0.159,-0.897 0.478,-1.172c0.319,-0.275 0.721,-0.412 1.205,-0.412c0.44,0 0.808,0.137 1.105,0.412c0.297,0.275 0.446,0.655 0.446,1.139l0,1.584c0.44,-0.968 1.078,-1.705 1.914,-2.211c0.836,-0.506 1.782,-0.803 2.838,-0.891l0.462,-0.033Z" style="fill-rule:nonzero;"/><path d="M679.988,9.556c0.132,-0.33 0.324,-0.572 0.577,-0.726c0.253,-0.154 0.523,-0.231 0.809,-0.231c0.418,0 0.786,0.143 1.105,0.429c0.319,0.286 0.479,0.627 0.479,1.023c0,0.22 -0.044,0.429 -0.132,0.627l-6.303,13.365c-0.154,0.352 -0.391,0.621 -0.71,0.808c-0.319,0.187 -0.654,0.281 -1.006,0.281c-0.352,0 -0.688,-0.094 -1.007,-0.28c-0.319,-0.188 -0.555,-0.457 -0.709,-0.809l-6.303,-13.365c-0.088,-0.176 -0.132,-0.385 -0.132,-0.627c0,-0.396 0.176,-0.737 0.528,-1.023c0.352,-0.286 0.748,-0.429 1.188,-0.429c0.638,0 1.111,0.308 1.419,0.924l5.115,11.352l5.082,-11.319Z" style="fill-rule:nonzero;"/><path d="M698.072,20.941c0.308,0 0.561,0.121 0.759,0.363c0.198,0.242 0.297,0.55 0.297,0.924c0,0.638 -0.396,1.177 -1.188,1.617c-0.77,0.44 -1.612,0.781 -2.525,1.023c-0.913,0.242 -1.787,0.363 -2.623,0.363c-2.552,0 -4.565,-0.742 -6.039,-2.227c-1.474,-1.485 -2.211,-3.515 -2.211,-6.089c0,-1.65 0.324,-3.113 0.973,-4.389c0.649,-1.276 1.562,-2.266 2.739,-2.97c1.177,-0.704 2.514,-1.056 4.01,-1.056c2.156,0 3.861,0.693 5.115,2.079c1.254,1.386 1.881,3.256 1.881,5.61c0,0.88 -0.396,1.32 -1.188,1.32l-10.197,0c0.22,3.41 1.859,5.115 4.917,5.115c0.814,0 1.518,-0.11 2.112,-0.33c0.594,-0.22 1.221,-0.506 1.881,-0.858c0.066,-0.044 0.247,-0.138 0.544,-0.281c0.297,-0.143 0.545,-0.214 0.743,-0.214Zm-5.742,-9.999c-1.276,0 -2.299,0.407 -3.069,1.221c-0.77,0.814 -1.232,1.958 -1.386,3.432l8.514,0c-0.066,-1.496 -0.446,-2.646 -1.139,-3.449c-0.693,-0.803 -1.666,-1.204 -2.92,-1.204Z" style="fill-rule:nonzero;"/><path d="M711.371,8.566c1.056,-0.066 1.584,0.385 1.584,1.353c0,0.484 -0.121,0.847 -0.363,1.089c-0.242,0.242 -0.66,0.385 -1.254,0.429l-0.99,0.099c-1.386,0.132 -2.415,0.616 -3.086,1.452c-0.671,0.836 -1.006,1.848 -1.006,3.036l0,7.557c0,0.528 -0.154,0.924 -0.462,1.188c-0.308,0.264 -0.704,0.396 -1.188,0.396c-0.484,0 -0.886,-0.132 -1.205,-0.396c-0.319,-0.264 -0.478,-0.66 -0.478,-1.188l0,-13.431c0,-0.506 0.159,-0.897 0.478,-1.172c0.319,-0.275 0.721,-0.412 1.205,-0.412c0.44,0 0.808,0.137 1.105,0.412c0.297,0.275 0.446,0.655 0.446,1.139l0,1.584c0.44,-0.968 1.078,-1.705 1.914,-2.211c0.836,-0.506 1.782,-0.803 2.838,-0.891l0.462,-0.033Z" style="fill-rule:nonzero;"/><path d="M730.709,25.231c-1.584,0 -2.976,-0.341 -4.175,-1.023c-1.199,-0.682 -2.123,-1.656 -2.772,-2.921c-0.649,-1.265 -0.973,-2.733 -0.973,-4.405c0,-1.694 0.324,-3.174 0.973,-4.439c0.649,-1.265 1.573,-2.238 2.772,-2.92c1.199,-0.682 2.591,-1.023 4.175,-1.023c1.584,0 2.975,0.341 4.174,1.023c1.199,0.682 2.123,1.655 2.772,2.92c0.649,1.265 0.974,2.745 0.974,4.439c0,1.672 -0.325,3.14 -0.974,4.406c-0.649,1.264 -1.573,2.238 -2.772,2.92c-1.199,0.682 -2.59,1.023 -4.174,1.023Zm0,-2.64c1.474,0 2.601,-0.484 3.382,-1.452c0.781,-0.968 1.172,-2.387 1.172,-4.257c0,-1.848 -0.396,-3.261 -1.188,-4.24c-0.792,-0.979 -1.914,-1.469 -3.366,-1.469c-1.452,0 -2.574,0.49 -3.366,1.469c-0.792,0.979 -1.188,2.392 -1.188,4.24c0,1.87 0.39,3.289 1.171,4.257c0.781,0.968 1.909,1.452 3.383,1.452Z" style="fill-rule:nonzero;"/><path d="M751.004,8.5c3.85,0 5.775,2.167 5.775,6.501l0,8.58c0,0.506 -0.149,0.896 -0.446,1.171c-0.297,0.275 -0.709,0.413 -1.237,0.413c-0.506,0 -0.908,-0.143 -1.205,-0.429c-0.297,-0.286 -0.445,-0.671 -0.445,-1.155l0,-8.415c0,-1.364 -0.27,-2.365 -0.809,-3.003c-0.539,-0.638 -1.38,-0.957 -2.524,-0.957c-1.342,0 -2.42,0.418 -3.234,1.254c-0.814,0.836 -1.221,1.958 -1.221,3.366l0,7.755c0,0.484 -0.149,0.869 -0.446,1.155c-0.297,0.286 -0.698,0.429 -1.204,0.429c-0.506,0 -0.913,-0.143 -1.221,-0.429c-0.308,-0.286 -0.462,-0.671 -0.462,-1.155l0,-13.431c0,-0.462 0.159,-0.841 0.478,-1.138c0.319,-0.297 0.721,-0.446 1.205,-0.446c0.484,0 0.869,0.143 1.155,0.429c0.286,0.286 0.429,0.66 0.429,1.122l0,1.353c0.528,-0.968 1.265,-1.705 2.211,-2.211c0.946,-0.506 2.013,-0.759 3.201,-0.759Z" style="fill-rule:nonzero;"/><path d="M778.691,8.5c1.408,0 2.651,0.341 3.729,1.023c1.078,0.682 1.919,1.65 2.524,2.904c0.605,1.254 0.908,2.717 0.908,4.389c0,1.65 -0.303,3.113 -0.908,4.389c-0.605,1.276 -1.452,2.266 -2.541,2.97c-1.089,0.704 -2.326,1.056 -3.712,1.056c-1.21,0 -2.277,-0.258 -3.201,-0.775c-0.924,-0.517 -1.628,-1.26 -2.112,-2.228l0,1.32c0,0.484 -0.149,0.875 -0.446,1.172c-0.297,0.297 -0.698,0.445 -1.204,0.445c-0.506,0 -0.913,-0.148 -1.221,-0.445c-0.308,-0.297 -0.462,-0.688 -0.462,-1.172l0,-20.394c0,-0.484 0.159,-0.869 0.478,-1.155c0.319,-0.286 0.732,-0.429 1.238,-0.429c0.484,0 0.874,0.138 1.171,0.413c0.297,0.275 0.446,0.643 0.446,1.105l0,8.448c0.484,-0.968 1.188,-1.716 2.112,-2.244c0.924,-0.528 1.991,-0.792 3.201,-0.792Zm-0.792,14.091c1.43,0 2.546,-0.506 3.349,-1.518c0.803,-1.012 1.205,-2.431 1.205,-4.257c0,-1.804 -0.396,-3.196 -1.188,-4.175c-0.792,-0.979 -1.914,-1.468 -3.366,-1.468c-1.452,0 -2.569,0.495 -3.35,1.485c-0.781,0.99 -1.171,2.398 -1.171,4.224c0,1.826 0.39,3.234 1.171,4.224c0.781,0.99 1.898,1.485 3.35,1.485Z" style="fill-rule:nonzero;"/><path d="M802.154,20.941c0.308,0 0.561,0.121 0.759,0.363c0.198,0.242 0.297,0.55 0.297,0.924c0,0.638 -0.396,1.177 -1.188,1.617c-0.77,0.44 -1.612,0.781 -2.525,1.023c-0.913,0.242 -1.787,0.363 -2.623,0.363c-2.552,0 -4.565,-0.742 -6.039,-2.227c-1.474,-1.485 -2.211,-3.515 -2.211,-6.089c0,-1.65 0.324,-3.113 0.973,-4.389c0.649,-1.276 1.562,-2.266 2.739,-2.97c1.177,-0.704 2.514,-1.056 4.01,-1.056c2.156,0 3.861,0.693 5.115,2.079c1.254,1.386 1.881,3.256 1.881,5.61c0,0.88 -0.396,1.32 -1.188,1.32l-10.197,0c0.22,3.41 1.859,5.115 4.917,5.115c0.814,0 1.518,-0.11 2.112,-0.33c0.594,-0.22 1.221,-0.506 1.881,-0.858c0.066,-0.044 0.247,-0.138 0.544,-0.281c0.297,-0.143 0.545,-0.214 0.743,-0.214Zm-5.742,-9.999c-1.276,0 -2.299,0.407 -3.069,1.221c-0.77,0.814 -1.232,1.958 -1.386,3.432l8.514,0c-0.066,-1.496 -0.446,-2.646 -1.139,-3.449c-0.693,-0.803 -1.666,-1.204 -2.92,-1.204Z" style="fill-rule:nonzero;"/><path d="M815.717,8.5c3.828,0 5.742,2.167 5.742,6.501l0,8.58c0,0.484 -0.154,0.869 -0.462,1.155c-0.308,0.286 -0.715,0.429 -1.221,0.429c-0.506,0 -0.908,-0.143 -1.205,-0.429c-0.297,-0.286 -0.445,-0.671 -0.445,-1.155l0,-8.547c0,-1.32 -0.27,-2.288 -0.809,-2.904c-0.539,-0.616 -1.38,-0.924 -2.524,-0.924c-1.342,0 -2.42,0.418 -3.234,1.254c-0.814,0.836 -1.221,1.958 -1.221,3.366l0,7.755c0,0.484 -0.149,0.869 -0.446,1.155c-0.297,0.286 -0.698,0.429 -1.204,0.429c-0.506,0 -0.913,-0.143 -1.221,-0.429c-0.308,-0.286 -0.462,-0.671 -0.462,-1.155l0,-20.427c0,-0.484 0.159,-0.869 0.478,-1.155c0.319,-0.286 0.732,-0.429 1.238,-0.429c0.484,0 0.874,0.137 1.171,0.412c0.297,0.276 0.446,0.644 0.446,1.106l0,8.25c0.55,-0.924 1.287,-1.628 2.211,-2.112c0.924,-0.484 1.98,-0.726 3.168,-0.726Z" style="fill-rule:nonzero;"/><path d="M832.778,8.5c2.134,0 3.723,0.539 4.768,1.617c1.045,1.078 1.568,2.717 1.568,4.917l0,8.547c0,0.506 -0.143,0.896 -0.429,1.171c-0.286,0.275 -0.682,0.413 -1.188,0.413c-0.484,0 -0.869,-0.143 -1.155,-0.429c-0.286,-0.286 -0.429,-0.671 -0.429,-1.155l0,-1.221c-0.418,0.924 -1.04,1.633 -1.865,2.128c-0.825,0.495 -1.787,0.743 -2.887,0.743c-1.056,0 -2.024,-0.215 -2.904,-0.644c-0.88,-0.429 -1.568,-1.028 -2.063,-1.798c-0.495,-0.77 -0.742,-1.628 -0.742,-2.574c0,-1.166 0.302,-2.085 0.907,-2.756c0.605,-0.671 1.606,-1.149 3.003,-1.435c1.397,-0.286 3.317,-0.429 5.759,-0.429l0.759,0l0,-0.957c0,-1.232 -0.253,-2.123 -0.759,-2.673c-0.506,-0.55 -1.32,-0.825 -2.442,-0.825c-0.77,0 -1.496,0.099 -2.178,0.297c-0.682,0.198 -1.43,0.484 -2.244,0.858c-0.594,0.33 -1.012,0.495 -1.254,0.495c-0.33,0 -0.6,-0.121 -0.809,-0.363c-0.209,-0.242 -0.313,-0.55 -0.313,-0.924c0,-0.33 0.093,-0.622 0.28,-0.875c0.187,-0.253 0.49,-0.5 0.908,-0.742c0.77,-0.418 1.672,-0.754 2.706,-1.007c1.034,-0.253 2.035,-0.379 3.003,-0.379Zm-1.023,14.256c1.21,0 2.2,-0.413 2.97,-1.238c0.77,-0.825 1.155,-1.886 1.155,-3.184l0,-0.858l-0.594,0c-1.716,0 -3.036,0.077 -3.96,0.231c-0.924,0.154 -1.584,0.412 -1.98,0.775c-0.396,0.363 -0.594,0.886 -0.594,1.568c0,0.792 0.286,1.441 0.858,1.947c0.572,0.506 1.287,0.759 2.145,0.759Z" style="fill-rule:nonzero;"/><path d="M845.351,25.165c-0.484,0 -0.886,-0.132 -1.205,-0.396c-0.319,-0.264 -0.478,-0.66 -0.478,-1.188l0,-20.394c0,-0.528 0.159,-0.929 0.478,-1.204c0.319,-0.275 0.721,-0.413 1.205,-0.413c0.484,0 0.88,0.138 1.188,0.413c0.308,0.275 0.462,0.676 0.462,1.204l0,20.394c0,0.528 -0.154,0.924 -0.462,1.188c-0.308,0.264 -0.704,0.396 -1.188,0.396Z" style="fill-rule:nonzero;"/><path d="M859.244,4.276c-1.1,0.088 -1.914,0.434 -2.442,1.04c-0.528,0.604 -0.792,1.49 -0.792,2.656l0,0.924l3.267,0c0.462,0 0.819,0.116 1.072,0.347c0.253,0.23 0.38,0.544 0.38,0.94c0,0.396 -0.127,0.71 -0.38,0.941c-0.253,0.231 -0.61,0.346 -1.072,0.346l-3.267,0l0,12.078c0,0.528 -0.16,0.93 -0.479,1.205c-0.319,0.274 -0.72,0.412 -1.204,0.412c-0.484,0 -0.88,-0.137 -1.188,-0.412c-0.308,-0.276 -0.462,-0.677 -0.462,-1.205l0,-12.078l-1.98,0c-0.462,0 -0.82,-0.116 -1.073,-0.347c-0.253,-0.231 -0.379,-0.544 -0.379,-0.94c0,-0.396 0.126,-0.71 0.379,-0.941c0.253,-0.231 0.611,-0.346 1.073,-0.346l1.98,0l0,-0.429c0,-2.024 0.517,-3.613 1.551,-4.768c1.034,-1.156 2.497,-1.799 4.389,-1.931l0.858,-0.066c0.704,-0.044 1.215,0.033 1.534,0.231c0.319,0.198 0.479,0.517 0.479,0.957c0,0.77 -0.462,1.21 -1.386,1.32l-0.858,0.066Z" style="fill-rule:nonzero;"/><path d="M878.648,25.231c-1.584,0 -2.976,-0.341 -4.175,-1.023c-1.199,-0.682 -2.123,-1.656 -2.772,-2.921c-0.649,-1.265 -0.973,-2.733 -0.973,-4.405c0,-1.694 0.324,-3.174 0.973,-4.439c0.649,-1.265 1.573,-2.238 2.772,-2.92c1.199,-0.682 2.591,-1.023 4.175,-1.023c1.584,0 2.975,0.341 4.174,1.023c1.199,0.682 2.123,1.655 2.772,2.92c0.649,1.265 0.974,2.745 0.974,4.439c0,1.672 -0.325,3.14 -0.974,4.406c-0.649,1.264 -1.573,2.238 -2.772,2.92c-1.199,0.682 -2.59,1.023 -4.174,1.023Zm0,-2.64c1.474,0 2.601,-0.484 3.382,-1.452c0.781,-0.968 1.172,-2.387 1.172,-4.257c0,-1.848 -0.396,-3.261 -1.188,-4.24c-0.792,-0.979 -1.914,-1.469 -3.366,-1.469c-1.452,0 -2.574,0.49 -3.366,1.469c-0.792,0.979 -1.188,2.392 -1.188,4.24c0,1.87 0.39,3.289 1.171,4.257c0.781,0.968 1.909,1.452 3.383,1.452Z" style="fill-rule:nonzero;"/><path d="M897.788,4.276c-1.1,0.088 -1.914,0.434 -2.442,1.04c-0.528,0.604 -0.792,1.49 -0.792,2.656l0,0.924l3.267,0c0.462,0 0.819,0.116 1.072,0.347c0.253,0.23 0.38,0.544 0.38,0.94c0,0.396 -0.127,0.71 -0.38,0.941c-0.253,0.231 -0.61,0.346 -1.072,0.346l-3.267,0l0,12.078c0,0.528 -0.16,0.93 -0.479,1.205c-0.319,0.274 -0.72,0.412 -1.204,0.412c-0.484,0 -0.88,-0.137 -1.188,-0.412c-0.308,-0.276 -0.462,-0.677 -0.462,-1.205l0,-12.078l-1.98,0c-0.462,0 -0.82,-0.116 -1.073,-0.347c-0.253,-0.231 -0.379,-0.544 -0.379,-0.94c0,-0.396 0.126,-0.71 0.379,-0.941c0.253,-0.231 0.611,-0.346 1.073,-0.346l1.98,0l0,-0.429c0,-2.024 0.517,-3.613 1.551,-4.768c1.034,-1.156 2.497,-1.799 4.389,-1.931l0.858,-0.066c0.704,-0.044 1.215,0.033 1.534,0.231c0.319,0.198 0.479,0.517 0.479,0.957c0,0.77 -0.462,1.21 -1.386,1.32l-0.858,0.066Z" style="fill-rule:nonzero;"/><path d="M8.207,70.231c-1.562,0 -2.932,-0.341 -4.109,-1.023c-1.177,-0.682 -2.09,-1.65 -2.739,-2.904c-0.649,-1.254 -0.973,-2.706 -0.973,-4.356c0,-1.672 0.335,-3.146 1.006,-4.422c0.671,-1.276 1.612,-2.266 2.822,-2.97c1.21,-0.704 2.596,-1.056 4.158,-1.056c0.836,0 1.678,0.121 2.524,0.363c0.848,0.242 1.601,0.572 2.261,0.99c0.704,0.484 1.056,1.045 1.056,1.683c0,0.374 -0.099,0.687 -0.297,0.94c-0.198,0.253 -0.451,0.38 -0.759,0.38c-0.198,0 -0.396,-0.05 -0.594,-0.149c-0.198,-0.099 -0.451,-0.247 -0.759,-0.445c-0.55,-0.352 -1.062,-0.622 -1.534,-0.809c-0.473,-0.187 -1.04,-0.28 -1.7,-0.28c-1.496,0 -2.656,0.506 -3.482,1.518c-0.824,1.012 -1.237,2.42 -1.237,4.224c0,1.804 0.407,3.195 1.221,4.174c0.814,0.979 1.969,1.469 3.465,1.469c0.66,0 1.243,-0.099 1.749,-0.297c0.506,-0.198 1.023,-0.462 1.551,-0.792c0.242,-0.154 0.484,-0.286 0.726,-0.396c0.242,-0.11 0.462,-0.165 0.66,-0.165c0.308,0 0.561,0.126 0.759,0.379c0.198,0.253 0.297,0.567 0.297,0.941c0,0.308 -0.083,0.588 -0.247,0.841c-0.165,0.254 -0.446,0.512 -0.842,0.776c-0.66,0.44 -1.43,0.781 -2.31,1.023c-0.88,0.242 -1.771,0.363 -2.673,0.363Z" style="fill-rule:nonzero;"/><path d="M18.932,70.165c-0.484,0 -0.886,-0.132 -1.205,-0.396c-0.319,-0.264 -0.478,-0.66 -0.478,-1.188l0,-20.394c0,-0.528 0.159,-0.929 0.478,-1.204c0.319,-0.275 0.721,-0.413 1.205,-0.413c0.484,0 0.88,0.138 1.188,0.413c0.308,0.275 0.462,0.676 0.462,1.204l0,20.394c0,0.528 -0.154,0.924 -0.462,1.188c-0.308,0.264 -0.704,0.396 -1.188,0.396Z" style="fill-rule:nonzero;"/><path d="M26.918,70.165c-0.484,0 -0.885,-0.132 -1.204,-0.396c-0.319,-0.264 -0.479,-0.66 -0.479,-1.188l0,-13.398c0,-0.528 0.16,-0.93 0.479,-1.205c0.319,-0.275 0.72,-0.412 1.204,-0.412c0.484,0 0.88,0.137 1.188,0.412c0.308,0.275 0.462,0.677 0.462,1.205l0,13.398c0,0.528 -0.154,0.924 -0.462,1.188c-0.308,0.264 -0.704,0.396 -1.188,0.396Zm0,-19.833c-0.638,0 -1.144,-0.176 -1.518,-0.528c-0.374,-0.352 -0.561,-0.814 -0.561,-1.386c0,-0.572 0.187,-1.029 0.561,-1.37c0.374,-0.341 0.88,-0.511 1.518,-0.511c0.616,0 1.117,0.17 1.502,0.511c0.385,0.341 0.577,0.798 0.577,1.37c0,0.572 -0.187,1.034 -0.561,1.386c-0.374,0.352 -0.88,0.528 -1.518,0.528Z" style="fill-rule:nonzero;"/><path d="M45.827,65.941c0.308,0 0.561,0.121 0.759,0.363c0.198,0.242 0.297,0.55 0.297,0.924c0,0.638 -0.396,1.177 -1.188,1.617c-0.77,0.44 -1.611,0.781 -2.524,1.023c-0.913,0.242 -1.788,0.363 -2.624,0.363c-2.552,0 -4.565,-0.743 -6.039,-2.228c-1.474,-1.485 -2.211,-3.514 -2.211,-6.088c0,-1.65 0.325,-3.113 0.974,-4.389c0.649,-1.276 1.562,-2.266 2.739,-2.97c1.177,-0.704 2.513,-1.056 4.009,-1.056c2.156,0 3.861,0.693 5.115,2.079c1.254,1.386 1.881,3.256 1.881,5.61c0,0.88 -0.396,1.32 -1.188,1.32l-10.197,0c0.22,3.41 1.859,5.115 4.917,5.115c0.814,0 1.518,-0.11 2.112,-0.33c0.594,-0.22 1.221,-0.506 1.881,-0.858c0.066,-0.044 0.248,-0.138 0.545,-0.281c0.297,-0.142 0.544,-0.214 0.742,-0.214Zm-5.742,-9.999c-1.276,0 -2.299,0.407 -3.069,1.221c-0.77,0.814 -1.232,1.958 -1.386,3.432l8.514,0c-0.066,-1.496 -0.445,-2.645 -1.138,-3.448c-0.693,-0.803 -1.667,-1.205 -2.921,-1.205Z" style="fill-rule:nonzero;"/><path d="M59.357,53.5c3.85,0 5.775,2.167 5.775,6.501l0,8.58c0,0.506 -0.149,0.897 -0.446,1.171c-0.297,0.275 -0.709,0.413 -1.237,0.413c-0.506,0 -0.908,-0.143 -1.205,-0.429c-0.297,-0.286 -0.445,-0.671 -0.445,-1.155l0,-8.415c0,-1.364 -0.27,-2.365 -0.809,-3.003c-0.539,-0.638 -1.38,-0.957 -2.524,-0.957c-1.342,0 -2.42,0.418 -3.234,1.254c-0.814,0.836 -1.221,1.958 -1.221,3.366l0,7.755c0,0.484 -0.149,0.869 -0.446,1.155c-0.297,0.286 -0.698,0.429 -1.204,0.429c-0.506,0 -0.913,-0.143 -1.221,-0.429c-0.308,-0.286 -0.462,-0.671 -0.462,-1.155l0,-13.431c0,-0.462 0.159,-0.842 0.478,-1.139c0.319,-0.297 0.721,-0.445 1.205,-0.445c0.484,0 0.869,0.143 1.155,0.429c0.286,0.286 0.429,0.66 0.429,1.122l0,1.353c0.528,-0.968 1.265,-1.705 2.211,-2.211c0.946,-0.506 2.013,-0.759 3.201,-0.759Z" style="fill-rule:nonzero;"/><path d="M77.573,67.624c0.484,0.044 0.831,0.171 1.04,0.38c0.208,0.209 0.313,0.5 0.313,0.874c0,0.44 -0.171,0.776 -0.512,1.007c-0.341,0.231 -0.841,0.324 -1.501,0.28l-0.891,-0.066c-1.782,-0.132 -3.113,-0.676 -3.993,-1.633c-0.88,-0.957 -1.32,-2.371 -1.32,-4.241l0,-7.755l-1.98,0c-0.968,0 -1.452,-0.429 -1.452,-1.287c0,-0.396 0.126,-0.709 0.379,-0.94c0.253,-0.231 0.611,-0.347 1.073,-0.347l1.98,0l0,-3.399c0,-0.506 0.148,-0.902 0.445,-1.188c0.297,-0.286 0.699,-0.429 1.205,-0.429c0.506,0 0.913,0.143 1.221,0.429c0.308,0.286 0.462,0.682 0.462,1.188l0,3.399l3.267,0c0.462,0 0.819,0.116 1.072,0.347c0.253,0.231 0.38,0.544 0.38,0.94c0,0.418 -0.127,0.737 -0.38,0.957c-0.253,0.22 -0.61,0.33 -1.072,0.33l-3.267,0l0,7.986c0,1.034 0.214,1.793 0.643,2.277c0.429,0.484 1.084,0.759 1.964,0.825l0.924,0.066Z" style="fill-rule:nonzero;"/><path d="M102.521,53.566c0.506,0 0.908,0.143 1.205,0.429c0.297,0.286 0.445,0.682 0.445,1.188l0,13.431c0,0.462 -0.154,0.836 -0.462,1.122c-0.308,0.286 -0.715,0.429 -1.221,0.429c-0.462,0 -0.836,-0.138 -1.122,-0.413c-0.286,-0.275 -0.429,-0.643 -0.429,-1.105l0,-1.254c-0.506,0.924 -1.204,1.628 -2.095,2.112c-0.891,0.484 -1.887,0.726 -2.987,0.726c-3.916,0 -5.874,-2.156 -5.874,-6.468l0,-8.58c0,-0.506 0.149,-0.902 0.446,-1.188c0.297,-0.286 0.709,-0.429 1.237,-0.429c0.506,0 0.908,0.143 1.205,0.429c0.297,0.286 0.445,0.682 0.445,1.188l0,8.547c0,1.298 0.264,2.255 0.792,2.871c0.528,0.616 1.342,0.924 2.442,0.924c1.298,0 2.338,-0.418 3.119,-1.254c0.781,-0.836 1.171,-1.947 1.171,-3.333l0,-7.755c0,-0.484 0.154,-0.874 0.462,-1.171c0.308,-0.297 0.715,-0.446 1.221,-0.446Z" style="fill-rule:nonzero;"/><path d="M114.434,70.231c-2.244,0 -4.081,-0.462 -5.511,-1.386c-0.396,-0.242 -0.676,-0.495 -0.841,-0.759c-0.165,-0.264 -0.248,-0.561 -0.248,-0.891c0,-0.352 0.099,-0.649 0.297,-0.891c0.198,-0.242 0.451,-0.363 0.759,-0.363c0.286,0 0.737,0.176 1.353,0.528c0.66,0.352 1.304,0.638 1.931,0.858c0.627,0.22 1.413,0.33 2.359,0.33c1.056,0 1.881,-0.187 2.475,-0.561c0.594,-0.374 0.891,-0.902 0.891,-1.584c0,-0.44 -0.115,-0.792 -0.346,-1.056c-0.231,-0.264 -0.633,-0.5 -1.205,-0.709c-0.572,-0.209 -1.419,-0.435 -2.541,-0.677c-1.936,-0.418 -3.327,-0.984 -4.174,-1.699c-0.847,-0.715 -1.271,-1.689 -1.271,-2.921c0,-0.946 0.275,-1.798 0.825,-2.557c0.55,-0.759 1.309,-1.348 2.277,-1.766c0.968,-0.418 2.068,-0.627 3.3,-0.627c0.88,0 1.738,0.116 2.574,0.347c0.836,0.231 1.573,0.566 2.211,1.006c0.726,0.484 1.089,1.045 1.089,1.683c0,0.352 -0.104,0.649 -0.313,0.891c-0.209,0.242 -0.457,0.363 -0.743,0.363c-0.198,0 -0.396,-0.044 -0.594,-0.132c-0.198,-0.088 -0.462,-0.231 -0.792,-0.429c-0.594,-0.352 -1.149,-0.627 -1.666,-0.825c-0.517,-0.198 -1.161,-0.297 -1.931,-0.297c-0.924,0 -1.666,0.198 -2.227,0.594c-0.561,0.396 -0.842,0.935 -0.842,1.617c0,0.616 0.259,1.095 0.776,1.436c0.517,0.341 1.49,0.665 2.92,0.973c1.474,0.308 2.629,0.66 3.465,1.056c0.836,0.396 1.436,0.886 1.799,1.469c0.363,0.583 0.544,1.325 0.544,2.227c0,1.43 -0.599,2.58 -1.798,3.449c-1.199,0.869 -2.8,1.303 -4.802,1.303Z" style="fill-rule:nonzero;"/><path d="M126.413,70.165c-0.484,0 -0.885,-0.132 -1.204,-0.396c-0.319,-0.264 -0.479,-0.66 -0.479,-1.188l0,-13.398c0,-0.528 0.16,-0.93 0.479,-1.205c0.319,-0.275 0.72,-0.412 1.204,-0.412c0.484,0 0.88,0.137 1.188,0.412c0.308,0.275 0.462,0.677 0.462,1.205l0,13.398c0,0.528 -0.154,0.924 -0.462,1.188c-0.308,0.264 -0.704,0.396 -1.188,0.396Zm0,-19.833c-0.638,0 -1.144,-0.176 -1.518,-0.528c-0.374,-0.352 -0.561,-0.814 -0.561,-1.386c0,-0.572 0.187,-1.029 0.561,-1.37c0.374,-0.341 0.88,-0.511 1.518,-0.511c0.616,0 1.117,0.17 1.502,0.511c0.385,0.341 0.577,0.798 0.577,1.37c0,0.572 -0.187,1.034 -0.561,1.386c-0.374,0.352 -0.88,0.528 -1.518,0.528Z" style="fill-rule:nonzero;"/><path d="M141.395,53.5c3.85,0 5.775,2.167 5.775,6.501l0,8.58c0,0.506 -0.149,0.897 -0.446,1.171c-0.297,0.275 -0.709,0.413 -1.237,0.413c-0.506,0 -0.908,-0.143 -1.205,-0.429c-0.297,-0.286 -0.445,-0.671 -0.445,-1.155l0,-8.415c0,-1.364 -0.27,-2.365 -0.809,-3.003c-0.538,-0.638 -1.38,-0.957 -2.524,-0.957c-1.342,0 -2.42,0.418 -3.234,1.254c-0.814,0.836 -1.221,1.958 -1.221,3.366l0,7.755c0,0.484 -0.149,0.869 -0.446,1.155c-0.297,0.286 -0.698,0.429 -1.204,0.429c-0.506,0 -0.913,-0.143 -1.221,-0.429c-0.308,-0.286 -0.462,-0.671 -0.462,-1.155l0,-13.431c0,-0.462 0.16,-0.842 0.478,-1.139c0.319,-0.297 0.721,-0.445 1.205,-0.445c0.484,0 0.869,0.143 1.155,0.429c0.286,0.286 0.429,0.66 0.429,1.122l0,1.353c0.528,-0.968 1.265,-1.705 2.211,-2.211c0.946,-0.506 2.013,-0.759 3.201,-0.759Z" style="fill-rule:nonzero;"/><path d="M165.056,53.566c0.506,0 0.907,0.148 1.204,0.445c0.297,0.297 0.446,0.688 0.446,1.172l0,13.53c0,2.464 -0.654,4.323 -1.964,5.577c-1.309,1.254 -3.239,1.881 -5.791,1.881c-2.376,0 -4.356,-0.451 -5.94,-1.353c-0.814,-0.462 -1.221,-1.012 -1.221,-1.65c0,-0.374 0.105,-0.682 0.314,-0.924c0.209,-0.242 0.467,-0.363 0.775,-0.363c0.286,0 0.737,0.165 1.353,0.495c0.792,0.374 1.529,0.666 2.211,0.875c0.682,0.209 1.496,0.313 2.442,0.313c3.036,0 4.554,-1.529 4.554,-4.587l0,-2.541c-0.462,0.968 -1.166,1.722 -2.112,2.261c-0.946,0.539 -2.046,0.808 -3.3,0.808c-1.408,0 -2.662,-0.33 -3.762,-0.99c-1.1,-0.66 -1.953,-1.595 -2.558,-2.805c-0.605,-1.21 -0.907,-2.607 -0.907,-4.191c0,-1.584 0.308,-2.981 0.924,-4.191c0.616,-1.21 1.468,-2.15 2.557,-2.821c1.089,-0.671 2.338,-1.007 3.746,-1.007c1.232,0 2.315,0.264 3.25,0.792c0.935,0.528 1.645,1.276 2.129,2.244l0,-1.386c0,-0.484 0.148,-0.869 0.445,-1.155c0.297,-0.286 0.699,-0.429 1.205,-0.429Zm-6.237,13.299c1.43,0 2.552,-0.473 3.366,-1.419c0.814,-0.946 1.221,-2.255 1.221,-3.927c0,-1.65 -0.402,-2.953 -1.205,-3.91c-0.803,-0.957 -1.93,-1.436 -3.382,-1.436c-1.452,0 -2.591,0.473 -3.416,1.419c-0.825,0.946 -1.237,2.255 -1.237,3.927c0,1.672 0.418,2.981 1.254,3.927c0.836,0.946 1.969,1.419 3.399,1.419Z" style="fill-rule:nonzero;"/><path d="M186.836,53.5c2.134,0 3.723,0.539 4.768,1.617c1.045,1.078 1.568,2.717 1.568,4.917l0,8.547c0,0.506 -0.143,0.897 -0.429,1.171c-0.286,0.275 -0.682,0.413 -1.188,0.413c-0.484,0 -0.869,-0.143 -1.155,-0.429c-0.286,-0.286 -0.429,-0.671 -0.429,-1.155l0,-1.221c-0.418,0.924 -1.04,1.633 -1.865,2.129c-0.825,0.495 -1.787,0.742 -2.887,0.742c-1.056,0 -2.024,-0.215 -2.904,-0.644c-0.88,-0.428 -1.568,-1.028 -2.063,-1.798c-0.495,-0.77 -0.742,-1.628 -0.742,-2.574c0,-1.166 0.302,-2.085 0.907,-2.756c0.605,-0.671 1.606,-1.149 3.003,-1.435c1.397,-0.286 3.317,-0.429 5.759,-0.429l0.759,0l0,-0.957c0,-1.232 -0.253,-2.123 -0.759,-2.673c-0.506,-0.55 -1.32,-0.825 -2.442,-0.825c-0.77,0 -1.496,0.099 -2.178,0.297c-0.682,0.198 -1.43,0.484 -2.244,0.858c-0.594,0.33 -1.012,0.495 -1.254,0.495c-0.33,0 -0.6,-0.121 -0.809,-0.363c-0.209,-0.242 -0.313,-0.55 -0.313,-0.924c0,-0.33 0.093,-0.621 0.28,-0.874c0.187,-0.253 0.49,-0.501 0.908,-0.743c0.77,-0.418 1.672,-0.753 2.706,-1.006c1.034,-0.253 2.035,-0.38 3.003,-0.38Zm-1.023,14.256c1.21,0 2.2,-0.412 2.97,-1.237c0.77,-0.825 1.155,-1.887 1.155,-3.185l0,-0.858l-0.594,0c-1.716,0 -3.036,0.077 -3.96,0.231c-0.924,0.154 -1.584,0.413 -1.98,0.776c-0.396,0.363 -0.594,0.885 -0.594,1.567c0,0.792 0.286,1.441 0.858,1.947c0.572,0.506 1.287,0.759 2.145,0.759Z" style="fill-rule:nonzero;"/><path d="M210.893,46.57c0.506,0 0.913,0.143 1.221,0.429c0.308,0.286 0.462,0.671 0.462,1.155l0,20.394c0,0.506 -0.148,0.902 -0.446,1.188c-0.297,0.286 -0.698,0.429 -1.204,0.429c-0.506,0 -0.907,-0.143 -1.204,-0.429c-0.297,-0.286 -0.446,-0.682 -0.446,-1.188l0,-1.32c-0.484,0.968 -1.188,1.71 -2.112,2.227c-0.924,0.517 -1.991,0.776 -3.201,0.776c-1.386,0 -2.624,-0.352 -3.713,-1.056c-1.089,-0.704 -1.935,-1.694 -2.541,-2.97c-0.605,-1.276 -0.907,-2.739 -0.907,-4.389c0,-1.672 0.303,-3.135 0.907,-4.389c0.606,-1.254 1.447,-2.222 2.525,-2.904c1.078,-0.682 2.321,-1.023 3.729,-1.023c1.21,0 2.271,0.258 3.184,0.775c0.913,0.517 1.612,1.249 2.096,2.195l0,-8.382c0,-0.462 0.148,-0.831 0.445,-1.106c0.297,-0.275 0.699,-0.412 1.205,-0.412Zm-6.138,21.021c1.43,0 2.541,-0.495 3.333,-1.485c0.792,-0.99 1.188,-2.398 1.188,-4.224c0,-1.826 -0.391,-3.234 -1.172,-4.224c-0.781,-0.99 -1.897,-1.485 -3.349,-1.485c-1.452,0 -2.58,0.489 -3.383,1.468c-0.803,0.979 -1.204,2.371 -1.204,4.175c0,1.804 0.407,3.218 1.221,4.24c0.814,1.023 1.936,1.535 3.366,1.535Z" style="fill-rule:nonzero;"/><path d="M235.709,53.5c3.608,0 5.412,2.167 5.412,6.501l0,8.58c0,0.506 -0.154,0.897 -0.462,1.171c-0.308,0.275 -0.715,0.413 -1.221,0.413c-0.484,0 -0.88,-0.138 -1.188,-0.413c-0.308,-0.275 -0.462,-0.665 -0.462,-1.171l0,-8.547c0,-1.342 -0.242,-2.316 -0.726,-2.921c-0.484,-0.605 -1.243,-0.907 -2.277,-0.907c-1.21,0 -2.167,0.412 -2.871,1.237c-0.704,0.825 -1.056,1.953 -1.056,3.383l0,7.755c0,0.506 -0.154,0.897 -0.462,1.171c-0.308,0.275 -0.715,0.413 -1.221,0.413c-0.484,0 -0.88,-0.138 -1.188,-0.413c-0.308,-0.275 -0.462,-0.665 -0.462,-1.171l0,-8.547c0,-1.342 -0.242,-2.316 -0.726,-2.921c-0.484,-0.605 -1.243,-0.907 -2.277,-0.907c-1.21,0 -2.173,0.412 -2.888,1.237c-0.715,0.825 -1.072,1.953 -1.072,3.383l0,7.755c0,0.506 -0.154,0.897 -0.462,1.171c-0.308,0.275 -0.704,0.413 -1.188,0.413c-0.484,0 -0.886,-0.138 -1.205,-0.413c-0.319,-0.275 -0.478,-0.665 -0.478,-1.171l0,-13.431c0,-0.484 0.165,-0.869 0.495,-1.155c0.33,-0.286 0.726,-0.429 1.188,-0.429c0.462,0 0.841,0.137 1.138,0.412c0.297,0.276 0.446,0.655 0.446,1.139l0,1.221c0.484,-0.924 1.155,-1.628 2.013,-2.112c0.858,-0.484 1.848,-0.726 2.97,-0.726c1.232,0 2.249,0.253 3.052,0.759c0.803,0.506 1.403,1.287 1.799,2.343c0.484,-0.946 1.199,-1.7 2.145,-2.261c0.946,-0.56 2.024,-0.841 3.234,-0.841Z" style="fill-rule:nonzero;"/><path d="M247.358,70.165c-0.484,0 -0.886,-0.132 -1.205,-0.396c-0.319,-0.264 -0.478,-0.66 -0.478,-1.188l0,-13.398c0,-0.528 0.16,-0.93 0.478,-1.205c0.319,-0.275 0.721,-0.412 1.205,-0.412c0.484,0 0.88,0.137 1.188,0.412c0.308,0.275 0.462,0.677 0.462,1.205l0,13.398c0,0.528 -0.154,0.924 -0.462,1.188c-0.308,0.264 -0.704,0.396 -1.188,0.396Zm0,-19.833c-0.638,0 -1.144,-0.176 -1.518,-0.528c-0.374,-0.352 -0.561,-0.814 -0.561,-1.386c0,-0.572 0.187,-1.029 0.561,-1.37c0.374,-0.341 0.88,-0.511 1.518,-0.511c0.616,0 1.116,0.17 1.501,0.511c0.385,0.341 0.578,0.798 0.578,1.37c0,0.572 -0.187,1.034 -0.561,1.386c-0.374,0.352 -0.88,0.528 -1.518,0.528Z" style="fill-rule:nonzero;"/><path d="M262.34,53.5c3.85,0 5.775,2.167 5.775,6.501l0,8.58c0,0.506 -0.149,0.897 -0.446,1.171c-0.297,0.275 -0.709,0.413 -1.237,0.413c-0.506,0 -0.907,-0.143 -1.204,-0.429c-0.297,-0.286 -0.446,-0.671 -0.446,-1.155l0,-8.415c0,-1.364 -0.269,-2.365 -0.808,-3.003c-0.539,-0.638 -1.381,-0.957 -2.525,-0.957c-1.342,0 -2.42,0.418 -3.234,1.254c-0.814,0.836 -1.221,1.958 -1.221,3.366l0,7.755c0,0.484 -0.149,0.869 -0.445,1.155c-0.298,0.286 -0.699,0.429 -1.205,0.429c-0.506,0 -0.913,-0.143 -1.221,-0.429c-0.308,-0.286 -0.462,-0.671 -0.462,-1.155l0,-13.431c0,-0.462 0.16,-0.842 0.478,-1.139c0.319,-0.297 0.721,-0.445 1.205,-0.445c0.484,0 0.869,0.143 1.155,0.429c0.286,0.286 0.429,0.66 0.429,1.122l0,1.353c0.528,-0.968 1.265,-1.705 2.211,-2.211c0.946,-0.506 2.013,-0.759 3.201,-0.759Z" style="fill-rule:nonzero;"/><path d="M294.548,46.57c0.506,0 0.913,0.143 1.221,0.429c0.308,0.286 0.462,0.671 0.462,1.155l0,20.394c0,0.506 -0.149,0.902 -0.446,1.188c-0.296,0.286 -0.698,0.429 -1.204,0.429c-0.506,0 -0.907,-0.143 -1.204,-0.429c-0.298,-0.286 -0.446,-0.682 -0.446,-1.188l0,-1.32c-0.484,0.968 -1.188,1.71 -2.112,2.227c-0.924,0.517 -1.991,0.776 -3.201,0.776c-1.386,0 -2.623,-0.352 -3.712,-1.056c-1.089,-0.704 -1.936,-1.694 -2.541,-2.97c-0.605,-1.276 -0.908,-2.739 -0.908,-4.389c0,-1.672 0.303,-3.135 0.908,-4.389c0.605,-1.254 1.446,-2.222 2.524,-2.904c1.078,-0.682 2.321,-1.023 3.729,-1.023c1.21,0 2.272,0.258 3.185,0.775c0.913,0.517 1.611,1.249 2.095,2.195l0,-8.382c0,-0.462 0.149,-0.831 0.446,-1.106c0.297,-0.275 0.698,-0.412 1.204,-0.412Zm-6.138,21.021c1.43,0 2.541,-0.495 3.333,-1.485c0.792,-0.99 1.188,-2.398 1.188,-4.224c0,-1.826 -0.391,-3.234 -1.172,-4.224c-0.78,-0.99 -1.897,-1.485 -3.349,-1.485c-1.452,0 -2.579,0.489 -3.382,1.468c-0.803,0.979 -1.205,2.371 -1.205,4.175c0,1.804 0.407,3.218 1.221,4.24c0.814,1.023 1.936,1.535 3.366,1.535Z" style="fill-rule:nonzero;"/><path d="M313.49,65.941c0.308,0 0.561,0.121 0.759,0.363c0.198,0.242 0.297,0.55 0.297,0.924c0,0.638 -0.396,1.177 -1.188,1.617c-0.77,0.44 -1.612,0.781 -2.525,1.023c-0.913,0.242 -1.787,0.363 -2.623,0.363c-2.552,0 -4.565,-0.743 -6.039,-2.228c-1.474,-1.485 -2.211,-3.514 -2.211,-6.088c0,-1.65 0.324,-3.113 0.973,-4.389c0.649,-1.276 1.562,-2.266 2.739,-2.97c1.177,-0.704 2.514,-1.056 4.01,-1.056c2.156,0 3.861,0.693 5.115,2.079c1.254,1.386 1.881,3.256 1.881,5.61c0,0.88 -0.396,1.32 -1.188,1.32l-10.197,0c0.22,3.41 1.859,5.115 4.917,5.115c0.814,0 1.518,-0.11 2.112,-0.33c0.594,-0.22 1.221,-0.506 1.881,-0.858c0.066,-0.044 0.247,-0.138 0.544,-0.281c0.297,-0.142 0.545,-0.214 0.743,-0.214Zm-5.742,-9.999c-1.276,0 -2.299,0.407 -3.069,1.221c-0.77,0.814 -1.232,1.958 -1.386,3.432l8.514,0c-0.066,-1.496 -0.445,-2.645 -1.139,-3.448c-0.692,-0.803 -1.666,-1.205 -2.92,-1.205Z" style="fill-rule:nonzero;"/><path d="M331.211,50.332c-0.638,0 -1.144,-0.176 -1.518,-0.528c-0.374,-0.352 -0.561,-0.814 -0.561,-1.386c0,-0.572 0.187,-1.029 0.561,-1.369c0.374,-0.341 0.88,-0.512 1.518,-0.512c0.616,0 1.116,0.171 1.501,0.512c0.385,0.34 0.578,0.797 0.578,1.369c0,0.572 -0.187,1.034 -0.561,1.386c-0.374,0.352 -0.88,0.528 -1.518,0.528Zm0.198,3.564c0.462,0 0.82,0.115 1.072,0.346c0.253,0.232 0.38,0.545 0.38,0.941l0,13.398c0,0.528 -0.154,0.924 -0.462,1.188c-0.308,0.264 -0.704,0.396 -1.188,0.396c-0.484,0 -0.886,-0.132 -1.205,-0.396c-0.319,-0.264 -0.478,-0.66 -0.478,-1.188l0,-12.111l-6.897,0l0,12.078c0,0.528 -0.16,0.93 -0.479,1.204c-0.319,0.276 -0.72,0.413 -1.204,0.413c-0.484,0 -0.88,-0.137 -1.188,-0.412c-0.308,-0.275 -0.462,-0.677 -0.462,-1.205l0,-12.078l-1.98,0c-0.462,0 -0.82,-0.115 -1.073,-0.346c-0.253,-0.231 -0.379,-0.545 -0.379,-0.941c0,-0.396 0.126,-0.709 0.379,-0.94c0.253,-0.231 0.611,-0.347 1.073,-0.347l1.98,0l0,-0.363c0,-2.024 0.517,-3.613 1.551,-4.768c1.034,-1.155 2.497,-1.821 4.389,-1.997l0.792,-0.066l0.429,-0.033c0.968,0 1.452,0.407 1.452,1.221c0,0.77 -0.429,1.21 -1.287,1.32l-0.759,0.066c-1.1,0.088 -1.914,0.435 -2.442,1.04c-0.528,0.605 -0.792,1.49 -0.792,2.656l0,0.924l8.778,0Z" style="fill-rule:nonzero;"/><path d="M346.193,53.5c3.85,0 5.775,2.167 5.775,6.501l0,8.58c0,0.506 -0.149,0.897 -0.446,1.171c-0.296,0.275 -0.709,0.413 -1.237,0.413c-0.506,0 -0.907,-0.143 -1.204,-0.429c-0.297,-0.286 -0.446,-0.671 -0.446,-1.155l0,-8.415c0,-1.364 -0.269,-2.365 -0.808,-3.003c-0.539,-0.638 -1.381,-0.957 -2.525,-0.957c-1.342,0 -2.42,0.418 -3.234,1.254c-0.814,0.836 -1.221,1.958 -1.221,3.366l0,7.755c0,0.484 -0.148,0.869 -0.445,1.155c-0.297,0.286 -0.699,0.429 -1.205,0.429c-0.506,0 -0.913,-0.143 -1.221,-0.429c-0.308,-0.286 -0.462,-0.671 -0.462,-1.155l0,-13.431c0,-0.462 0.159,-0.842 0.478,-1.139c0.32,-0.297 0.721,-0.445 1.205,-0.445c0.484,0 0.869,0.143 1.155,0.429c0.286,0.286 0.429,0.66 0.429,1.122l0,1.353c0.528,-0.968 1.265,-1.705 2.211,-2.211c0.946,-0.506 2.013,-0.759 3.201,-0.759Z" style="fill-rule:nonzero;"/><path d="M369.128,65.941c0.308,0 0.561,0.121 0.759,0.363c0.198,0.242 0.297,0.55 0.297,0.924c0,0.638 -0.396,1.177 -1.188,1.617c-0.77,0.44 -1.612,0.781 -2.525,1.023c-0.913,0.242 -1.787,0.363 -2.623,0.363c-2.552,0 -4.565,-0.743 -6.039,-2.228c-1.474,-1.485 -2.211,-3.514 -2.211,-6.088c0,-1.65 0.324,-3.113 0.973,-4.389c0.649,-1.276 1.562,-2.266 2.739,-2.97c1.177,-0.704 2.514,-1.056 4.01,-1.056c2.156,0 3.861,0.693 5.115,2.079c1.254,1.386 1.881,3.256 1.881,5.61c0,0.88 -0.396,1.32 -1.188,1.32l-10.197,0c0.22,3.41 1.859,5.115 4.917,5.115c0.814,0 1.518,-0.11 2.112,-0.33c0.594,-0.22 1.221,-0.506 1.881,-0.858c0.066,-0.044 0.247,-0.138 0.544,-0.281c0.297,-0.142 0.545,-0.214 0.743,-0.214Zm-5.742,-9.999c-1.276,0 -2.299,0.407 -3.069,1.221c-0.77,0.814 -1.232,1.958 -1.386,3.432l8.514,0c-0.066,-1.496 -0.445,-2.645 -1.139,-3.448c-0.692,-0.803 -1.666,-1.205 -2.92,-1.205Z" style="fill-rule:nonzero;"/><path d="M387.146,46.57c0.506,0 0.913,0.143 1.221,0.429c0.308,0.286 0.462,0.671 0.462,1.155l0,20.394c0,0.506 -0.149,0.902 -0.446,1.188c-0.297,0.286 -0.698,0.429 -1.204,0.429c-0.506,0 -0.908,-0.143 -1.205,-0.429c-0.297,-0.286 -0.445,-0.682 -0.445,-1.188l0,-1.32c-0.484,0.968 -1.188,1.71 -2.112,2.227c-0.924,0.517 -1.991,0.776 -3.201,0.776c-1.386,0 -2.624,-0.352 -3.713,-1.056c-1.089,-0.704 -1.935,-1.694 -2.541,-2.97c-0.605,-1.276 -0.907,-2.739 -0.907,-4.389c0,-1.672 0.302,-3.135 0.907,-4.389c0.606,-1.254 1.447,-2.222 2.525,-2.904c1.078,-0.682 2.321,-1.023 3.729,-1.023c1.21,0 2.272,0.258 3.185,0.775c0.913,0.517 1.611,1.249 2.095,2.195l0,-8.382c0,-0.462 0.149,-0.831 0.445,-1.106c0.298,-0.275 0.699,-0.412 1.205,-0.412Zm-6.138,21.021c1.43,0 2.541,-0.495 3.333,-1.485c0.792,-0.99 1.188,-2.398 1.188,-4.224c0,-1.826 -0.391,-3.234 -1.172,-4.224c-0.78,-0.99 -1.897,-1.485 -3.349,-1.485c-1.452,0 -2.579,0.489 -3.382,1.468c-0.803,0.979 -1.205,2.371 -1.205,4.175c0,1.804 0.407,3.218 1.221,4.24c0.814,1.023 1.936,1.535 3.366,1.535Z" style="fill-rule:nonzero;"/><path d="M409.85,70.165c-0.506,0 -0.919,-0.16 -1.238,-0.479c-0.319,-0.319 -0.478,-0.731 -0.478,-1.237l0,-18.876l-6.6,0c-1.056,0 -1.584,-0.473 -1.584,-1.419c0,-0.462 0.137,-0.814 0.412,-1.056c0.275,-0.242 0.666,-0.363 1.172,-0.363l16.632,0c0.506,0 0.896,0.121 1.171,0.363c0.275,0.242 0.413,0.594 0.413,1.056c0,0.946 -0.528,1.419 -1.584,1.419l-6.6,0l0,18.876c0,0.506 -0.154,0.918 -0.462,1.237c-0.308,0.319 -0.726,0.479 -1.254,0.479Z" style="fill-rule:nonzero;"/><path d="M424.205,70c-0.506,0 -0.908,-0.143 -1.205,-0.429c-0.297,-0.286 -0.445,-0.671 -0.445,-1.155l0,-20.13c0,-0.506 0.154,-0.919 0.462,-1.237c0.308,-0.319 0.715,-0.479 1.221,-0.479c0.528,0 0.946,0.154 1.254,0.462c0.308,0.308 0.462,0.726 0.462,1.254l0,18.876l10.032,0c0.506,0 0.896,0.121 1.171,0.363c0.275,0.242 0.413,0.594 0.413,1.056c0,0.462 -0.138,0.814 -0.413,1.056c-0.275,0.242 -0.665,0.363 -1.171,0.363l-11.781,0Z" style="fill-rule:nonzero;"/><path d="M447.8,70.264c-1.672,0 -3.262,-0.231 -4.769,-0.693c-1.507,-0.462 -2.711,-1.1 -3.613,-1.914c-0.418,-0.352 -0.627,-0.803 -0.627,-1.353c0,-0.396 0.11,-0.731 0.33,-1.007c0.22,-0.275 0.484,-0.412 0.792,-0.412c0.308,0 0.682,0.143 1.122,0.429c1.958,1.452 4.191,2.178 6.699,2.178c1.76,0 3.113,-0.33 4.059,-0.99c0.946,-0.66 1.419,-1.606 1.419,-2.838c0,-0.968 -0.44,-1.694 -1.32,-2.178c-0.88,-0.484 -2.288,-0.946 -4.224,-1.386c-1.848,-0.396 -3.366,-0.847 -4.554,-1.353c-1.188,-0.506 -2.118,-1.193 -2.789,-2.062c-0.671,-0.869 -1.006,-1.975 -1.006,-3.317c0,-1.342 0.368,-2.535 1.105,-3.581c0.737,-1.044 1.766,-1.858 3.086,-2.441c1.32,-0.583 2.827,-0.875 4.521,-0.875c1.562,0 3.003,0.22 4.323,0.66c1.32,0.44 2.442,1.089 3.366,1.947c0.44,0.374 0.66,0.825 0.66,1.353c0,0.374 -0.116,0.704 -0.347,0.99c-0.231,0.286 -0.5,0.429 -0.808,0.429c-0.286,0 -0.649,-0.143 -1.089,-0.429c-1.012,-0.77 -1.964,-1.325 -2.855,-1.666c-0.891,-0.341 -1.963,-0.512 -3.217,-0.512c-1.694,0 -3.014,0.347 -3.96,1.04c-0.946,0.693 -1.419,1.655 -1.419,2.887c0,1.056 0.418,1.854 1.254,2.393c0.836,0.539 2.178,1.028 4.026,1.468c1.936,0.44 3.503,0.897 4.702,1.37c1.199,0.473 2.156,1.122 2.871,1.947c0.715,0.825 1.073,1.886 1.073,3.184c0,1.32 -0.369,2.492 -1.106,3.515c-0.737,1.023 -1.771,1.815 -3.102,2.376c-1.331,0.561 -2.865,0.841 -4.603,0.841Z" style="fill-rule:nonzero;"/><path d="M460.604,71.155c-0.11,0.352 -0.286,0.611 -0.528,0.775c-0.242,0.165 -0.506,0.248 -0.792,0.248c-0.374,0 -0.704,-0.121 -0.99,-0.363c-0.286,-0.242 -0.429,-0.561 -0.429,-0.957c0,-0.154 0.033,-0.33 0.099,-0.528l7.722,-24.189c0.11,-0.352 0.286,-0.611 0.528,-0.776c0.242,-0.165 0.506,-0.247 0.792,-0.247c0.374,0 0.704,0.121 0.99,0.363c0.286,0.242 0.429,0.561 0.429,0.957c0,0.154 -0.033,0.33 -0.099,0.528l-7.722,24.189Z" style="fill-rule:nonzero;"/><path d="M478.424,70.264c-1.672,0 -3.262,-0.231 -4.769,-0.693c-1.507,-0.462 -2.711,-1.1 -3.613,-1.914c-0.418,-0.352 -0.627,-0.803 -0.627,-1.353c0,-0.396 0.11,-0.731 0.33,-1.007c0.22,-0.275 0.484,-0.412 0.792,-0.412c0.308,0 0.682,0.143 1.122,0.429c1.958,1.452 4.191,2.178 6.699,2.178c1.76,0 3.113,-0.33 4.059,-0.99c0.946,-0.66 1.419,-1.606 1.419,-2.838c0,-0.968 -0.44,-1.694 -1.32,-2.178c-0.88,-0.484 -2.288,-0.946 -4.224,-1.386c-1.848,-0.396 -3.366,-0.847 -4.554,-1.353c-1.188,-0.506 -2.118,-1.193 -2.789,-2.062c-0.671,-0.869 -1.006,-1.975 -1.006,-3.317c0,-1.342 0.368,-2.535 1.105,-3.581c0.737,-1.044 1.766,-1.858 3.086,-2.441c1.32,-0.583 2.827,-0.875 4.521,-0.875c1.562,0 3.003,0.22 4.323,0.66c1.32,0.44 2.442,1.089 3.366,1.947c0.44,0.374 0.66,0.825 0.66,1.353c0,0.374 -0.116,0.704 -0.347,0.99c-0.231,0.286 -0.5,0.429 -0.808,0.429c-0.286,0 -0.649,-0.143 -1.089,-0.429c-1.012,-0.77 -1.964,-1.325 -2.855,-1.666c-0.891,-0.341 -1.963,-0.512 -3.217,-0.512c-1.694,0 -3.014,0.347 -3.96,1.04c-0.946,0.693 -1.419,1.655 -1.419,2.887c0,1.056 0.418,1.854 1.254,2.393c0.836,0.539 2.178,1.028 4.026,1.468c1.936,0.44 3.503,0.897 4.702,1.37c1.199,0.473 2.156,1.122 2.871,1.947c0.715,0.825 1.073,1.886 1.073,3.184c0,1.32 -0.369,2.492 -1.106,3.515c-0.737,1.023 -1.771,1.815 -3.102,2.376c-1.331,0.561 -2.865,0.841 -4.603,0.841Z" style="fill-rule:nonzero;"/><path d="M499.115,70.264c-1.672,0 -3.262,-0.231 -4.769,-0.693c-1.507,-0.462 -2.711,-1.1 -3.613,-1.914c-0.418,-0.352 -0.627,-0.803 -0.627,-1.353c0,-0.396 0.11,-0.731 0.33,-1.007c0.22,-0.275 0.484,-0.412 0.792,-0.412c0.308,0 0.682,0.143 1.122,0.429c1.958,1.452 4.191,2.178 6.699,2.178c1.76,0 3.113,-0.33 4.059,-0.99c0.946,-0.66 1.419,-1.606 1.419,-2.838c0,-0.968 -0.44,-1.694 -1.32,-2.178c-0.88,-0.484 -2.288,-0.946 -4.224,-1.386c-1.848,-0.396 -3.366,-0.847 -4.554,-1.353c-1.188,-0.506 -2.118,-1.193 -2.789,-2.062c-0.671,-0.869 -1.006,-1.975 -1.006,-3.317c0,-1.342 0.368,-2.535 1.105,-3.581c0.737,-1.044 1.766,-1.858 3.086,-2.441c1.32,-0.583 2.827,-0.875 4.521,-0.875c1.562,0 3.003,0.22 4.323,0.66c1.32,0.44 2.442,1.089 3.366,1.947c0.44,0.374 0.66,0.825 0.66,1.353c0,0.374 -0.116,0.704 -0.347,0.99c-0.231,0.286 -0.5,0.429 -0.808,0.429c-0.286,0 -0.649,-0.143 -1.089,-0.429c-1.012,-0.77 -1.964,-1.325 -2.855,-1.666c-0.891,-0.341 -1.963,-0.512 -3.217,-0.512c-1.694,0 -3.014,0.347 -3.96,1.04c-0.946,0.693 -1.419,1.655 -1.419,2.887c0,1.056 0.418,1.854 1.254,2.393c0.836,0.539 2.178,1.028 4.026,1.468c1.936,0.44 3.503,0.897 4.702,1.37c1.199,0.473 2.156,1.122 2.871,1.947c0.715,0.825 1.073,1.886 1.073,3.184c0,1.32 -0.369,2.492 -1.106,3.515c-0.737,1.023 -1.771,1.815 -3.102,2.376c-1.331,0.561 -2.865,0.841 -4.603,0.841Z" style="fill-rule:nonzero;"/><path d="M513.767,70c-0.506,0 -0.908,-0.143 -1.205,-0.429c-0.297,-0.286 -0.445,-0.671 -0.445,-1.155l0,-20.13c0,-0.506 0.154,-0.919 0.462,-1.237c0.308,-0.319 0.715,-0.479 1.221,-0.479c0.528,0 0.946,0.154 1.254,0.462c0.308,0.308 0.462,0.726 0.462,1.254l0,18.876l10.032,0c0.506,0 0.896,0.121 1.171,0.363c0.275,0.242 0.413,0.594 0.413,1.056c0,0.462 -0.138,0.814 -0.413,1.056c-0.275,0.242 -0.665,0.363 -1.171,0.363l-11.781,0Z" style="fill-rule:nonzero;"/><path d="M545.381,70.231c-1.562,0 -2.932,-0.341 -4.109,-1.023c-1.177,-0.682 -2.09,-1.65 -2.739,-2.904c-0.649,-1.254 -0.973,-2.706 -0.973,-4.356c0,-1.672 0.335,-3.146 1.006,-4.422c0.671,-1.276 1.612,-2.266 2.822,-2.97c1.21,-0.704 2.596,-1.056 4.158,-1.056c0.836,0 1.677,0.121 2.524,0.363c0.847,0.242 1.601,0.572 2.261,0.99c0.704,0.484 1.056,1.045 1.056,1.683c0,0.374 -0.099,0.687 -0.297,0.94c-0.198,0.253 -0.451,0.38 -0.759,0.38c-0.198,0 -0.396,-0.05 -0.594,-0.149c-0.198,-0.099 -0.451,-0.247 -0.759,-0.445c-0.55,-0.352 -1.062,-0.622 -1.535,-0.809c-0.473,-0.187 -1.039,-0.28 -1.699,-0.28c-1.496,0 -2.657,0.506 -3.482,1.518c-0.825,1.012 -1.237,2.42 -1.237,4.224c0,1.804 0.407,3.195 1.221,4.174c0.814,0.979 1.969,1.469 3.465,1.469c0.66,0 1.243,-0.099 1.749,-0.297c0.506,-0.198 1.023,-0.462 1.551,-0.792c0.242,-0.154 0.484,-0.286 0.726,-0.396c0.242,-0.11 0.462,-0.165 0.66,-0.165c0.308,0 0.561,0.126 0.759,0.379c0.198,0.253 0.297,0.567 0.297,0.941c0,0.308 -0.083,0.588 -0.248,0.841c-0.165,0.254 -0.445,0.512 -0.841,0.776c-0.66,0.44 -1.43,0.781 -2.31,1.023c-0.88,0.242 -1.771,0.363 -2.673,0.363Z" style="fill-rule:nonzero;"/><path d="M567.029,65.941c0.308,0 0.561,0.121 0.759,0.363c0.198,0.242 0.297,0.55 0.297,0.924c0,0.638 -0.396,1.177 -1.188,1.617c-0.77,0.44 -1.612,0.781 -2.525,1.023c-0.913,0.242 -1.787,0.363 -2.623,0.363c-2.552,0 -4.565,-0.743 -6.039,-2.228c-1.474,-1.485 -2.211,-3.514 -2.211,-6.088c0,-1.65 0.324,-3.113 0.973,-4.389c0.649,-1.276 1.562,-2.266 2.739,-2.97c1.177,-0.704 2.514,-1.056 4.01,-1.056c2.156,0 3.861,0.693 5.115,2.079c1.254,1.386 1.881,3.256 1.881,5.61c0,0.88 -0.396,1.32 -1.188,1.32l-10.197,0c0.22,3.41 1.859,5.115 4.917,5.115c0.814,0 1.518,-0.11 2.112,-0.33c0.594,-0.22 1.221,-0.506 1.881,-0.858c0.066,-0.044 0.247,-0.138 0.544,-0.281c0.297,-0.142 0.545,-0.214 0.743,-0.214Zm-5.742,-9.999c-1.276,0 -2.299,0.407 -3.069,1.221c-0.77,0.814 -1.232,1.958 -1.386,3.432l8.514,0c-0.066,-1.496 -0.446,-2.645 -1.139,-3.448c-0.693,-0.803 -1.666,-1.205 -2.92,-1.205Z" style="fill-rule:nonzero;"/><path d="M580.328,53.566c1.056,-0.066 1.584,0.385 1.584,1.353c0,0.484 -0.121,0.847 -0.363,1.089c-0.242,0.242 -0.66,0.385 -1.254,0.429l-0.99,0.099c-1.386,0.132 -2.415,0.616 -3.086,1.452c-0.671,0.836 -1.006,1.848 -1.006,3.036l0,7.557c0,0.528 -0.154,0.924 -0.462,1.188c-0.308,0.264 -0.704,0.396 -1.188,0.396c-0.484,0 -0.886,-0.132 -1.205,-0.396c-0.319,-0.264 -0.478,-0.66 -0.478,-1.188l0,-13.431c0,-0.506 0.159,-0.897 0.478,-1.172c0.319,-0.275 0.721,-0.412 1.205,-0.412c0.44,0 0.808,0.137 1.105,0.412c0.297,0.275 0.446,0.655 0.446,1.139l0,1.584c0.44,-0.968 1.078,-1.705 1.914,-2.211c0.836,-0.506 1.782,-0.803 2.838,-0.891l0.462,-0.033Z" style="fill-rule:nonzero;"/><path d="M593.231,67.624c0.484,0.044 0.83,0.171 1.039,0.38c0.209,0.209 0.314,0.5 0.314,0.874c0,0.44 -0.171,0.776 -0.512,1.007c-0.341,0.231 -0.841,0.324 -1.501,0.28l-0.891,-0.066c-1.782,-0.132 -3.113,-0.676 -3.993,-1.633c-0.88,-0.957 -1.32,-2.371 -1.32,-4.241l0,-7.755l-1.98,0c-0.968,0 -1.452,-0.429 -1.452,-1.287c0,-0.396 0.126,-0.709 0.379,-0.94c0.253,-0.231 0.611,-0.347 1.073,-0.347l1.98,0l0,-3.399c0,-0.506 0.148,-0.902 0.445,-1.188c0.297,-0.286 0.699,-0.429 1.205,-0.429c0.506,0 0.913,0.143 1.221,0.429c0.308,0.286 0.462,0.682 0.462,1.188l0,3.399l3.267,0c0.462,0 0.819,0.116 1.072,0.347c0.253,0.231 0.38,0.544 0.38,0.94c0,0.418 -0.127,0.737 -0.38,0.957c-0.253,0.22 -0.61,0.33 -1.072,0.33l-3.267,0l0,7.986c0,1.034 0.214,1.793 0.643,2.277c0.429,0.484 1.084,0.759 1.964,0.825l0.924,0.066Z" style="fill-rule:nonzero;"/><path d="M598.676,70.165c-0.484,0 -0.886,-0.132 -1.205,-0.396c-0.319,-0.264 -0.478,-0.66 -0.478,-1.188l0,-13.398c0,-0.528 0.159,-0.93 0.478,-1.205c0.319,-0.275 0.721,-0.412 1.205,-0.412c0.484,0 0.88,0.137 1.188,0.412c0.308,0.275 0.462,0.677 0.462,1.205l0,13.398c0,0.528 -0.154,0.924 -0.462,1.188c-0.308,0.264 -0.704,0.396 -1.188,0.396Zm0,-19.833c-0.638,0 -1.144,-0.176 -1.518,-0.528c-0.374,-0.352 -0.561,-0.814 -0.561,-1.386c0,-0.572 0.187,-1.029 0.561,-1.37c0.374,-0.341 0.88,-0.511 1.518,-0.511c0.616,0 1.116,0.17 1.501,0.511c0.385,0.341 0.578,0.798 0.578,1.37c0,0.572 -0.187,1.034 -0.561,1.386c-0.374,0.352 -0.88,0.528 -1.518,0.528Z" style="fill-rule:nonzero;"/><path d="M617.915,50.332c-0.638,0 -1.144,-0.176 -1.518,-0.528c-0.374,-0.352 -0.561,-0.814 -0.561,-1.386c0,-0.572 0.187,-1.029 0.561,-1.369c0.374,-0.341 0.88,-0.512 1.518,-0.512c0.616,0 1.116,0.171 1.501,0.512c0.385,0.34 0.578,0.797 0.578,1.369c0,0.572 -0.187,1.034 -0.561,1.386c-0.374,0.352 -0.88,0.528 -1.518,0.528Zm0.198,3.564c0.462,0 0.819,0.115 1.072,0.346c0.253,0.232 0.38,0.545 0.38,0.941l0,13.398c0,0.528 -0.154,0.924 -0.462,1.188c-0.308,0.264 -0.704,0.396 -1.188,0.396c-0.484,0 -0.886,-0.132 -1.205,-0.396c-0.319,-0.264 -0.478,-0.66 -0.478,-1.188l0,-12.111l-6.897,0l0,12.078c0,0.528 -0.16,0.93 -0.479,1.204c-0.319,0.276 -0.72,0.413 -1.204,0.413c-0.484,0 -0.88,-0.137 -1.188,-0.412c-0.308,-0.275 -0.462,-0.677 -0.462,-1.205l0,-12.078l-1.98,0c-0.462,0 -0.82,-0.115 -1.073,-0.346c-0.253,-0.231 -0.379,-0.545 -0.379,-0.941c0,-0.396 0.126,-0.709 0.379,-0.94c0.253,-0.231 0.611,-0.347 1.073,-0.347l1.98,0l0,-0.363c0,-2.024 0.517,-3.613 1.551,-4.768c1.034,-1.155 2.497,-1.821 4.389,-1.997l0.792,-0.066l0.429,-0.033c0.968,0 1.452,0.407 1.452,1.221c0,0.77 -0.429,1.21 -1.287,1.32l-0.759,0.066c-1.1,0.088 -1.914,0.435 -2.442,1.04c-0.528,0.605 -0.792,1.49 -0.792,2.656l0,0.924l8.778,0Z" style="fill-rule:nonzero;"/><path d="M631.115,70.231c-1.562,0 -2.932,-0.341 -4.109,-1.023c-1.177,-0.682 -2.09,-1.65 -2.739,-2.904c-0.649,-1.254 -0.973,-2.706 -0.973,-4.356c0,-1.672 0.335,-3.146 1.006,-4.422c0.671,-1.276 1.612,-2.266 2.822,-2.97c1.21,-0.704 2.596,-1.056 4.158,-1.056c0.836,0 1.677,0.121 2.524,0.363c0.847,0.242 1.601,0.572 2.261,0.99c0.704,0.484 1.056,1.045 1.056,1.683c0,0.374 -0.099,0.687 -0.297,0.94c-0.198,0.253 -0.451,0.38 -0.759,0.38c-0.198,0 -0.396,-0.05 -0.594,-0.149c-0.198,-0.099 -0.451,-0.247 -0.759,-0.445c-0.55,-0.352 -1.062,-0.622 -1.535,-0.809c-0.473,-0.187 -1.039,-0.28 -1.699,-0.28c-1.496,0 -2.657,0.506 -3.482,1.518c-0.825,1.012 -1.237,2.42 -1.237,4.224c0,1.804 0.407,3.195 1.221,4.174c0.814,0.979 1.969,1.469 3.465,1.469c0.66,0 1.243,-0.099 1.749,-0.297c0.506,-0.198 1.023,-0.462 1.551,-0.792c0.242,-0.154 0.484,-0.286 0.726,-0.396c0.242,-0.11 0.462,-0.165 0.66,-0.165c0.308,0 0.561,0.126 0.759,0.379c0.198,0.253 0.297,0.567 0.297,0.941c0,0.308 -0.083,0.588 -0.248,0.841c-0.165,0.254 -0.445,0.512 -0.841,0.776c-0.66,0.44 -1.43,0.781 -2.31,1.023c-0.88,0.242 -1.771,0.363 -2.673,0.363Z" style="fill-rule:nonzero;"/><path d="M646.922,53.5c2.134,0 3.723,0.539 4.768,1.617c1.045,1.078 1.568,2.717 1.568,4.917l0,8.547c0,0.506 -0.143,0.897 -0.429,1.171c-0.286,0.275 -0.682,0.413 -1.188,0.413c-0.484,0 -0.869,-0.143 -1.155,-0.429c-0.286,-0.286 -0.429,-0.671 -0.429,-1.155l0,-1.221c-0.418,0.924 -1.04,1.633 -1.865,2.129c-0.825,0.495 -1.787,0.742 -2.887,0.742c-1.056,0 -2.024,-0.215 -2.904,-0.644c-0.88,-0.428 -1.568,-1.028 -2.063,-1.798c-0.495,-0.77 -0.742,-1.628 -0.742,-2.574c0,-1.166 0.302,-2.085 0.907,-2.756c0.605,-0.671 1.606,-1.149 3.003,-1.435c1.397,-0.286 3.317,-0.429 5.759,-0.429l0.759,0l0,-0.957c0,-1.232 -0.253,-2.123 -0.759,-2.673c-0.506,-0.55 -1.32,-0.825 -2.442,-0.825c-0.77,0 -1.496,0.099 -2.178,0.297c-0.682,0.198 -1.43,0.484 -2.244,0.858c-0.594,0.33 -1.012,0.495 -1.254,0.495c-0.33,0 -0.6,-0.121 -0.809,-0.363c-0.209,-0.242 -0.313,-0.55 -0.313,-0.924c0,-0.33 0.093,-0.621 0.28,-0.874c0.187,-0.253 0.49,-0.501 0.908,-0.743c0.77,-0.418 1.672,-0.753 2.706,-1.006c1.034,-0.253 2.035,-0.38 3.003,-0.38Zm-1.023,14.256c1.21,0 2.2,-0.412 2.97,-1.237c0.77,-0.825 1.155,-1.887 1.155,-3.185l0,-0.858l-0.594,0c-1.716,0 -3.036,0.077 -3.96,0.231c-0.924,0.154 -1.584,0.413 -1.98,0.776c-0.396,0.363 -0.594,0.885 -0.594,1.567c0,0.792 0.286,1.441 0.858,1.947c0.572,0.506 1.287,0.759 2.145,0.759Z" style="fill-rule:nonzero;"/><path d="M665.699,67.624c0.484,0.044 0.83,0.171 1.039,0.38c0.209,0.209 0.314,0.5 0.314,0.874c0,0.44 -0.171,0.776 -0.512,1.007c-0.341,0.231 -0.841,0.324 -1.501,0.28l-0.891,-0.066c-1.782,-0.132 -3.113,-0.676 -3.993,-1.633c-0.88,-0.957 -1.32,-2.371 -1.32,-4.241l0,-7.755l-1.98,0c-0.968,0 -1.452,-0.429 -1.452,-1.287c0,-0.396 0.126,-0.709 0.379,-0.94c0.253,-0.231 0.611,-0.347 1.073,-0.347l1.98,0l0,-3.399c0,-0.506 0.148,-0.902 0.445,-1.188c0.297,-0.286 0.699,-0.429 1.205,-0.429c0.506,0 0.913,0.143 1.221,0.429c0.308,0.286 0.462,0.682 0.462,1.188l0,3.399l3.267,0c0.462,0 0.819,0.116 1.072,0.347c0.253,0.231 0.38,0.544 0.38,0.94c0,0.418 -0.127,0.737 -0.38,0.957c-0.253,0.22 -0.61,0.33 -1.072,0.33l-3.267,0l0,7.986c0,1.034 0.214,1.793 0.643,2.277c0.429,0.484 1.084,0.759 1.964,0.825l0.924,0.066Z" style="fill-rule:nonzero;"/><path d="M682.067,65.941c0.308,0 0.561,0.121 0.759,0.363c0.198,0.242 0.297,0.55 0.297,0.924c0,0.638 -0.396,1.177 -1.188,1.617c-0.77,0.44 -1.612,0.781 -2.525,1.023c-0.913,0.242 -1.787,0.363 -2.623,0.363c-2.552,0 -4.565,-0.743 -6.039,-2.228c-1.474,-1.485 -2.211,-3.514 -2.211,-6.088c0,-1.65 0.324,-3.113 0.973,-4.389c0.649,-1.276 1.562,-2.266 2.739,-2.97c1.177,-0.704 2.514,-1.056 4.01,-1.056c2.156,0 3.861,0.693 5.115,2.079c1.254,1.386 1.881,3.256 1.881,5.61c0,0.88 -0.396,1.32 -1.188,1.32l-10.197,0c0.22,3.41 1.859,5.115 4.917,5.115c0.814,0 1.518,-0.11 2.112,-0.33c0.594,-0.22 1.221,-0.506 1.881,-0.858c0.066,-0.044 0.247,-0.138 0.544,-0.281c0.297,-0.142 0.545,-0.214 0.743,-0.214Zm-5.742,-9.999c-1.276,0 -2.299,0.407 -3.069,1.221c-0.77,0.814 -1.232,1.958 -1.386,3.432l8.514,0c-0.066,-1.496 -0.446,-2.645 -1.139,-3.448c-0.693,-0.803 -1.666,-1.205 -2.92,-1.205Z" style="fill-rule:nonzero;"/></g></svg>