<?xml version="1.0" encoding="UTF-8"?>
<svg width="120px" height="206px" viewBox="0 0 120 206" version="1.1" xmlns="http://www.w3.org/2000/svg" xmlns:xlink="http://www.w3.org/1999/xlink">
    <!-- Generator: Sketch 52.5 (67469) - http://www.bohemiancoding.com/sketch -->
    <title>Secure_Wireless_Zone</title>
    <desc>Created with Sketch.</desc>
    <g id="Page-1" stroke="none" stroke-width="1" fill="none" fill-rule="evenodd">
        <g id="Artboard-Copy-45" transform="translate(-172.000000, -735.000000)">
            <g id="Secure_Wireless_Zone" transform="translate(172.000000, 743.000000)">
                <path d="M84.1166667,26.3426226 C98.3287879,26.3426226 105.456061,33.4633215 105.456061,47.6834952 L105.456061,161.508557 C105.456061,175.749955 98.3287879,182.849429 84.1166667,182.849429 L35.1060606,182.849429 C20.8833333,182.849429 14.1166667,175.749955 14.1166667,161.508557 L14.1166667,47.6834952 C14.1166667,33.4633215 20.8833333,26.3426226 35.1060606,26.3426226 L84.1166667,26.3426226 Z M0,40.5627963 L0,168.629256 C0,184.335119 13.6287879,197.090827 28.4454545,197.090827 L91.2333333,197.090827 C106.930303,197.090827 119.678788,184.345731 119.678788,168.629256 L119.678788,40.5627963 C119.678788,24.8569328 106.930303,12.122449 91.2333333,12.122449 L28.4454545,12.122449 C12.7484848,12.122449 0,24.8569328 0,40.5627963 Z" id="Fill-50" fill="#636569"></path>
                <path d="M26.9662921,19.3564155 L26.9662921,2.84217094e-14" id="Stroke-52" stroke="#636569" stroke-width="14.6831461" stroke-linecap="round"></path>
                <path d="M29.6629213,43.1020408 L88.918982,43.1020408" id="Stroke-54" stroke="#636569" stroke-width="9.04044944" stroke-linecap="round" stroke-linejoin="round"></path>
            </g>
        </g>
    </g>
</svg>