<?xml version="1.0" encoding="UTF-8" standalone="no"?><!DOCTYPE svg PUBLIC "-//W3C//DTD SVG 1.1//EN" "http://www.w3.org/Graphics/SVG/1.1/DTD/svg11.dtd"><svg width="100%" height="100%" viewBox="0 0 219 24" version="1.1" xmlns="http://www.w3.org/2000/svg" xmlns:xlink="http://www.w3.org/1999/xlink" xml:space="preserve" xmlns:serif="http://www.serif.com/" style="fill-rule:evenodd;clip-rule:evenodd;stroke-linejoin:round;stroke-miterlimit:1.41421;"><g id="Group-106"><g id="Setup-WiFi-mesh-netw-Copy"><path d="M9.864,17.846c-0.903,0 -1.761,-0.124 -2.574,-0.374c-0.814,-0.249 -1.464,-0.594 -1.951,-1.033c-0.226,-0.19 -0.339,-0.434 -0.339,-0.731c0,-0.213 0.059,-0.395 0.178,-0.543c0.119,-0.149 0.261,-0.223 0.428,-0.223c0.166,0 0.368,0.077 0.606,0.232c1.057,0.784 2.262,1.176 3.617,1.176c0.95,0 1.68,-0.178 2.191,-0.535c0.511,-0.356 0.766,-0.867 0.766,-1.532c0,-0.523 -0.237,-0.915 -0.712,-1.176c-0.476,-0.261 -1.236,-0.511 -2.281,-0.748c-0.998,-0.214 -1.817,-0.458 -2.459,-0.731c-0.641,-0.273 -1.143,-0.644 -1.505,-1.113c-0.363,-0.47 -0.544,-1.067 -0.544,-1.791c0,-0.725 0.199,-1.369 0.597,-1.933c0.398,-0.565 0.953,-1.004 1.666,-1.319c0.713,-0.315 1.526,-0.472 2.441,-0.472c0.843,0 1.621,0.119 2.334,0.356c0.713,0.238 1.319,0.588 1.817,1.052c0.238,0.202 0.357,0.445 0.357,0.73c0,0.202 -0.063,0.38 -0.187,0.535c-0.125,0.154 -0.271,0.231 -0.437,0.231c-0.154,0 -0.35,-0.077 -0.588,-0.231c-0.546,-0.416 -1.06,-0.716 -1.541,-0.9c-0.481,-0.184 -1.06,-0.276 -1.737,-0.276c-0.915,0 -1.628,0.187 -2.138,0.561c-0.511,0.374 -0.767,0.894 -0.767,1.559c0,0.57 0.226,1.001 0.678,1.292c0.451,0.291 1.175,0.555 2.173,0.793c1.046,0.237 1.892,0.484 2.539,0.739c0.648,0.255 1.164,0.606 1.55,1.051c0.386,0.446 0.579,1.019 0.579,1.72c0,0.712 -0.198,1.345 -0.596,1.897c-0.398,0.553 -0.957,0.98 -1.675,1.283c-0.719,0.303 -1.547,0.454 -2.486,0.454Z" style="fill:#fff;fill-rule:nonzero;"/><path d="M23.477,15.512c0.166,0 0.303,0.066 0.41,0.196c0.107,0.131 0.16,0.297 0.16,0.499c0,0.345 -0.214,0.636 -0.641,0.873c-0.416,0.238 -0.871,0.422 -1.364,0.553c-0.492,0.13 -0.965,0.196 -1.416,0.196c-1.378,0 -2.465,-0.401 -3.261,-1.203c-0.795,-0.802 -1.193,-1.898 -1.193,-3.287c0,-0.891 0.175,-1.681 0.525,-2.37c0.351,-0.689 0.844,-1.224 1.479,-1.604c0.636,-0.38 1.357,-0.57 2.165,-0.57c1.164,0 2.085,0.374 2.762,1.123c0.677,0.748 1.015,1.758 1.015,3.029c0,0.475 -0.214,0.712 -0.641,0.712l-5.506,0c0.119,1.841 1.004,2.762 2.655,2.762c0.44,0 0.82,-0.059 1.14,-0.178c0.321,-0.119 0.66,-0.273 1.016,-0.463c0.036,-0.024 0.134,-0.075 0.294,-0.152c0.16,-0.077 0.294,-0.116 0.401,-0.116Zm-3.1,-5.398c-0.689,0 -1.242,0.219 -1.657,0.659c-0.416,0.439 -0.666,1.057 -0.749,1.853l4.597,0c-0.036,-0.808 -0.24,-1.428 -0.615,-1.862c-0.374,-0.434 -0.899,-0.65 -1.576,-0.65Z" style="fill:#fff;fill-rule:nonzero;"/><path d="M30.265,16.421c0.262,0.024 0.449,0.092 0.562,0.205c0.112,0.113 0.169,0.27 0.169,0.472c0,0.238 -0.092,0.419 -0.276,0.544c-0.184,0.124 -0.455,0.175 -0.811,0.151l-0.481,-0.036c-0.962,-0.071 -1.681,-0.365 -2.156,-0.882c-0.475,-0.516 -0.713,-1.279 -0.713,-2.289l0,-4.187l-1.069,0c-0.522,0 -0.784,-0.232 -0.784,-0.695c0,-0.214 0.069,-0.383 0.205,-0.508c0.137,-0.125 0.33,-0.187 0.579,-0.187l1.069,0l0,-1.835c0,-0.273 0.08,-0.487 0.241,-0.642c0.16,-0.154 0.377,-0.231 0.65,-0.231c0.273,0 0.493,0.077 0.659,0.231c0.167,0.155 0.25,0.369 0.25,0.642l0,1.835l1.764,0c0.249,0 0.442,0.062 0.579,0.187c0.136,0.125 0.205,0.294 0.205,0.508c0,0.226 -0.069,0.398 -0.205,0.517c-0.137,0.118 -0.33,0.178 -0.579,0.178l-1.764,0l0,4.312c0,0.558 0.116,0.968 0.347,1.229c0.232,0.261 0.585,0.41 1.06,0.445l0.499,0.036Z" style="fill:#fff;fill-rule:nonzero;"/><path d="M43.735,8.831c0.274,0 0.49,0.077 0.651,0.231c0.16,0.155 0.24,0.369 0.24,0.642l0,7.252c0,0.249 -0.083,0.451 -0.249,0.605c-0.166,0.155 -0.386,0.232 -0.659,0.232c-0.25,0 -0.452,-0.074 -0.606,-0.223c-0.155,-0.148 -0.232,-0.347 -0.232,-0.597l0,-0.677c-0.273,0.499 -0.65,0.879 -1.131,1.141c-0.481,0.261 -1.019,0.392 -1.613,0.392c-2.114,0 -3.171,-1.164 -3.171,-3.493l0,-4.632c0,-0.273 0.08,-0.487 0.24,-0.642c0.161,-0.154 0.383,-0.231 0.668,-0.231c0.274,0 0.49,0.077 0.651,0.231c0.16,0.155 0.24,0.369 0.24,0.642l0,4.615c0,0.7 0.143,1.217 0.428,1.55c0.285,0.332 0.724,0.499 1.318,0.499c0.701,0 1.262,-0.226 1.684,-0.677c0.422,-0.452 0.633,-1.052 0.633,-1.8l0,-4.187c0,-0.261 0.083,-0.472 0.249,-0.633c0.166,-0.16 0.386,-0.24 0.659,-0.24Z" style="fill:#fff;fill-rule:nonzero;"/><path d="M51.807,8.795c0.748,0 1.416,0.19 2.004,0.57c0.588,0.38 1.046,0.915 1.372,1.604c0.327,0.689 0.49,1.485 0.49,2.387c0,0.891 -0.16,1.675 -0.481,2.352c-0.321,0.677 -0.775,1.2 -1.363,1.568c-0.588,0.369 -1.262,0.553 -2.022,0.553c-0.654,0 -1.23,-0.14 -1.729,-0.419c-0.498,-0.279 -0.879,-0.68 -1.14,-1.203l0,3.974c0,0.249 -0.08,0.448 -0.24,0.596c-0.161,0.149 -0.372,0.223 -0.633,0.223c-0.273,0 -0.496,-0.077 -0.668,-0.231c-0.172,-0.155 -0.258,-0.363 -0.258,-0.624l0,-10.441c0,-0.261 0.083,-0.472 0.249,-0.633c0.166,-0.16 0.386,-0.24 0.659,-0.24c0.262,0 0.475,0.08 0.642,0.24c0.166,0.161 0.249,0.372 0.249,0.633l0,0.73c0.261,-0.522 0.642,-0.926 1.14,-1.211c0.499,-0.285 1.075,-0.428 1.729,-0.428Zm-0.428,7.608c0.784,0 1.39,-0.264 1.818,-0.793c0.427,-0.528 0.641,-1.28 0.641,-2.254c0,-0.985 -0.217,-1.752 -0.65,-2.298c-0.434,-0.546 -1.037,-0.82 -1.809,-0.82c-0.784,0 -1.387,0.268 -1.808,0.802c-0.422,0.535 -0.633,1.295 -0.633,2.281c0,0.986 0.211,1.746 0.633,2.28c0.421,0.535 1.024,0.802 1.808,0.802Z" style="fill:#fff;fill-rule:nonzero;"/><path d="M78.515,5.606c0.072,-0.19 0.178,-0.333 0.321,-0.428c0.143,-0.095 0.303,-0.142 0.481,-0.142c0.226,0 0.425,0.074 0.597,0.222c0.172,0.149 0.258,0.342 0.258,0.579c0,0.131 -0.023,0.25 -0.071,0.357l-3.938,11.011c-0.083,0.202 -0.213,0.356 -0.392,0.463c-0.178,0.107 -0.374,0.161 -0.588,0.161c-0.202,0 -0.392,-0.054 -0.57,-0.161c-0.178,-0.107 -0.303,-0.261 -0.374,-0.463l-3.243,-9.194l-3.314,9.194c-0.071,0.202 -0.196,0.356 -0.374,0.463c-0.178,0.107 -0.368,0.161 -0.57,0.161c-0.214,0 -0.407,-0.054 -0.579,-0.161c-0.172,-0.107 -0.3,-0.261 -0.383,-0.463l-3.938,-11.011c-0.047,-0.107 -0.071,-0.226 -0.071,-0.357c0,-0.237 0.089,-0.43 0.267,-0.579c0.178,-0.148 0.392,-0.222 0.641,-0.222c0.179,0 0.342,0.047 0.49,0.142c0.149,0.095 0.259,0.238 0.33,0.428l3.296,9.479l3.35,-9.39c0.071,-0.202 0.187,-0.356 0.347,-0.463c0.161,-0.107 0.336,-0.161 0.526,-0.161c0.19,0 0.362,0.057 0.517,0.17c0.154,0.112 0.273,0.27 0.356,0.472l3.279,9.461l3.349,-9.568Z" style="fill:#fff;fill-rule:nonzero;"/><path d="M82.97,17.793c-0.262,0 -0.478,-0.071 -0.651,-0.214c-0.172,-0.142 -0.258,-0.356 -0.258,-0.641l0,-7.234c0,-0.285 0.086,-0.502 0.258,-0.651c0.173,-0.148 0.389,-0.222 0.651,-0.222c0.261,0 0.475,0.074 0.641,0.222c0.166,0.149 0.25,0.366 0.25,0.651l0,7.234c0,0.285 -0.084,0.499 -0.25,0.641c-0.166,0.143 -0.38,0.214 -0.641,0.214Zm0,-10.708c-0.345,0 -0.618,-0.095 -0.82,-0.285c-0.202,-0.19 -0.303,-0.44 -0.303,-0.749c0,-0.309 0.101,-0.555 0.303,-0.739c0.202,-0.184 0.475,-0.276 0.82,-0.276c0.332,0 0.602,0.092 0.81,0.276c0.208,0.184 0.312,0.43 0.312,0.739c0,0.309 -0.101,0.559 -0.303,0.749c-0.202,0.19 -0.475,0.285 -0.819,0.285Z" style="fill:#fff;fill-rule:nonzero;"/><path d="M87.495,17.793c-0.273,0 -0.493,-0.086 -0.659,-0.258c-0.166,-0.173 -0.249,-0.395 -0.249,-0.669l0,-10.833c0,-0.273 0.08,-0.49 0.24,-0.65c0.161,-0.16 0.383,-0.24 0.668,-0.24l6.379,0c0.57,0 0.855,0.249 0.855,0.748c0,0.499 -0.285,0.748 -0.855,0.748l-5.47,0l0,3.938l5.114,0c0.57,0 0.855,0.249 0.855,0.748c0,0.499 -0.285,0.749 -0.855,0.749l-5.114,0l0,4.792c0,0.286 -0.08,0.511 -0.241,0.678c-0.16,0.166 -0.383,0.249 -0.668,0.249Z" style="fill:#fff;fill-rule:nonzero;"/><path d="M97.277,17.793c-0.261,0 -0.478,-0.071 -0.65,-0.214c-0.172,-0.142 -0.259,-0.356 -0.259,-0.641l0,-7.234c0,-0.285 0.087,-0.502 0.259,-0.651c0.172,-0.148 0.389,-0.222 0.65,-0.222c0.261,0 0.475,0.074 0.642,0.222c0.166,0.149 0.249,0.366 0.249,0.651l0,7.234c0,0.285 -0.083,0.499 -0.249,0.641c-0.167,0.143 -0.381,0.214 -0.642,0.214Zm0,-10.708c-0.344,0 -0.618,-0.095 -0.819,-0.285c-0.202,-0.19 -0.303,-0.44 -0.303,-0.749c0,-0.309 0.101,-0.555 0.303,-0.739c0.201,-0.184 0.475,-0.276 0.819,-0.276c0.333,0 0.603,0.092 0.811,0.276c0.208,0.184 0.312,0.43 0.312,0.739c0,0.309 -0.101,0.559 -0.303,0.749c-0.202,0.19 -0.475,0.285 -0.82,0.285Z" style="fill:#fff;fill-rule:nonzero;"/><path d="M115.362,8.795c1.948,0 2.922,1.17 2.922,3.51l0,4.633c0,0.273 -0.083,0.484 -0.249,0.632c-0.167,0.149 -0.386,0.223 -0.66,0.223c-0.261,0 -0.475,-0.074 -0.641,-0.223c-0.166,-0.148 -0.25,-0.359 -0.25,-0.632l0,-4.615c0,-0.725 -0.13,-1.25 -0.392,-1.577c-0.261,-0.326 -0.671,-0.49 -1.229,-0.49c-0.653,0 -1.17,0.223 -1.55,0.668c-0.38,0.446 -0.57,1.055 -0.57,1.827l0,4.187c0,0.273 -0.083,0.484 -0.25,0.632c-0.166,0.149 -0.386,0.223 -0.659,0.223c-0.261,0 -0.475,-0.074 -0.641,-0.223c-0.167,-0.148 -0.25,-0.359 -0.25,-0.632l0,-4.615c0,-0.725 -0.13,-1.25 -0.392,-1.577c-0.261,-0.326 -0.671,-0.49 -1.229,-0.49c-0.653,0 -1.173,0.223 -1.559,0.668c-0.386,0.446 -0.579,1.055 -0.579,1.827l0,4.187c0,0.273 -0.083,0.484 -0.25,0.632c-0.166,0.149 -0.38,0.223 -0.641,0.223c-0.261,0 -0.478,-0.074 -0.651,-0.223c-0.172,-0.148 -0.258,-0.359 -0.258,-0.632l0,-7.252c0,-0.261 0.089,-0.469 0.267,-0.624c0.179,-0.154 0.392,-0.231 0.642,-0.231c0.249,0 0.454,0.074 0.615,0.222c0.16,0.149 0.24,0.354 0.24,0.615l0,0.659c0.261,-0.498 0.624,-0.879 1.087,-1.14c0.463,-0.261 0.998,-0.392 1.604,-0.392c0.665,0 1.214,0.137 1.648,0.41c0.433,0.273 0.757,0.695 0.971,1.265c0.261,-0.511 0.647,-0.918 1.158,-1.221c0.511,-0.302 1.093,-0.454 1.746,-0.454Z" style="fill:#fff;fill-rule:nonzero;"/><path d="M127.549,15.512c0.166,0 0.303,0.066 0.41,0.196c0.107,0.131 0.16,0.297 0.16,0.499c0,0.345 -0.213,0.636 -0.641,0.873c-0.416,0.238 -0.87,0.422 -1.363,0.553c-0.493,0.13 -0.965,0.196 -1.417,0.196c-1.378,0 -2.464,-0.401 -3.26,-1.203c-0.796,-0.802 -1.194,-1.898 -1.194,-3.287c0,-0.891 0.175,-1.681 0.526,-2.37c0.35,-0.689 0.843,-1.224 1.478,-1.604c0.636,-0.38 1.358,-0.57 2.165,-0.57c1.164,0 2.085,0.374 2.762,1.123c0.677,0.748 1.016,1.758 1.016,3.029c0,0.475 -0.214,0.712 -0.642,0.712l-5.505,0c0.118,1.841 1.003,2.762 2.654,2.762c0.44,0 0.82,-0.059 1.141,-0.178c0.32,-0.119 0.659,-0.273 1.015,-0.463c0.036,-0.024 0.134,-0.075 0.294,-0.152c0.161,-0.077 0.294,-0.116 0.401,-0.116Zm-3.1,-5.398c-0.689,0 -1.241,0.219 -1.657,0.659c-0.416,0.439 -0.665,1.057 -0.748,1.853l4.596,0c-0.035,-0.808 -0.24,-1.428 -0.614,-1.862c-0.374,-0.434 -0.9,-0.65 -1.577,-0.65Z" style="fill:#fff;fill-rule:nonzero;"/><path d="M133.197,17.829c-1.211,0 -2.203,-0.25 -2.975,-0.749c-0.214,-0.13 -0.365,-0.267 -0.455,-0.409c-0.089,-0.143 -0.133,-0.303 -0.133,-0.482c0,-0.19 0.053,-0.35 0.16,-0.481c0.107,-0.13 0.244,-0.196 0.41,-0.196c0.154,0 0.398,0.095 0.731,0.285c0.356,0.19 0.703,0.345 1.042,0.464c0.338,0.118 0.763,0.178 1.274,0.178c0.57,0 1.015,-0.101 1.336,-0.303c0.321,-0.202 0.481,-0.487 0.481,-0.855c0,-0.238 -0.062,-0.428 -0.187,-0.57c-0.125,-0.143 -0.341,-0.271 -0.65,-0.384c-0.309,-0.112 -0.766,-0.234 -1.372,-0.365c-1.045,-0.225 -1.797,-0.531 -2.254,-0.917c-0.457,-0.386 -0.686,-0.912 -0.686,-1.577c0,-0.511 0.148,-0.971 0.445,-1.381c0.297,-0.41 0.707,-0.728 1.23,-0.953c0.522,-0.226 1.116,-0.339 1.782,-0.339c0.475,0 0.938,0.063 1.389,0.187c0.452,0.125 0.85,0.306 1.194,0.544c0.392,0.261 0.588,0.564 0.588,0.908c0,0.19 -0.056,0.351 -0.169,0.481c-0.113,0.131 -0.247,0.196 -0.401,0.196c-0.107,0 -0.214,-0.023 -0.321,-0.071c-0.107,-0.047 -0.249,-0.125 -0.427,-0.231c-0.321,-0.191 -0.621,-0.339 -0.9,-0.446c-0.279,-0.107 -0.627,-0.16 -1.043,-0.16c-0.498,0 -0.899,0.107 -1.202,0.32c-0.303,0.214 -0.455,0.505 -0.455,0.874c0,0.332 0.14,0.59 0.419,0.775c0.279,0.184 0.805,0.359 1.577,0.525c0.796,0.166 1.419,0.357 1.871,0.57c0.451,0.214 0.775,0.478 0.971,0.793c0.196,0.315 0.294,0.716 0.294,1.203c0,0.772 -0.324,1.393 -0.971,1.862c-0.648,0.469 -1.512,0.704 -2.593,0.704Z" style="fill:#fff;fill-rule:nonzero;"/><path d="M143.46,8.795c2.067,0 3.101,1.17 3.101,3.51l0,4.633c0,0.261 -0.084,0.469 -0.25,0.623c-0.166,0.155 -0.386,0.232 -0.659,0.232c-0.273,0 -0.49,-0.077 -0.651,-0.232c-0.16,-0.154 -0.24,-0.362 -0.24,-0.623l0,-4.615c0,-0.713 -0.146,-1.235 -0.437,-1.568c-0.291,-0.333 -0.745,-0.499 -1.363,-0.499c-0.724,0 -1.306,0.226 -1.746,0.677c-0.439,0.452 -0.659,1.057 -0.659,1.818l0,4.187c0,0.261 -0.08,0.469 -0.241,0.623c-0.16,0.155 -0.377,0.232 -0.65,0.232c-0.273,0 -0.493,-0.077 -0.659,-0.232c-0.166,-0.154 -0.25,-0.362 -0.25,-0.623l0,-11.029c0,-0.262 0.087,-0.47 0.259,-0.624c0.172,-0.154 0.395,-0.232 0.668,-0.232c0.261,0 0.472,0.075 0.632,0.223c0.161,0.149 0.241,0.348 0.241,0.597l0,4.454c0.297,-0.498 0.695,-0.879 1.194,-1.14c0.499,-0.261 1.069,-0.392 1.71,-0.392Z" style="fill:#fff;fill-rule:nonzero;"/><path d="M158.409,8.795c2.079,0 3.118,1.17 3.118,3.51l0,4.633c0,0.273 -0.08,0.484 -0.24,0.632c-0.161,0.149 -0.383,0.223 -0.668,0.223c-0.274,0 -0.49,-0.077 -0.651,-0.232c-0.16,-0.154 -0.24,-0.362 -0.24,-0.623l0,-4.544c0,-0.736 -0.146,-1.277 -0.437,-1.621c-0.291,-0.345 -0.745,-0.517 -1.363,-0.517c-0.724,0 -1.306,0.226 -1.746,0.677c-0.439,0.452 -0.659,1.057 -0.659,1.818l0,4.187c0,0.261 -0.08,0.469 -0.241,0.623c-0.16,0.155 -0.377,0.232 -0.65,0.232c-0.273,0 -0.493,-0.077 -0.659,-0.232c-0.167,-0.154 -0.25,-0.362 -0.25,-0.623l0,-7.252c0,-0.249 0.086,-0.454 0.259,-0.615c0.172,-0.16 0.389,-0.24 0.65,-0.24c0.261,0 0.469,0.077 0.623,0.231c0.155,0.155 0.232,0.357 0.232,0.606l0,0.731c0.285,-0.523 0.683,-0.921 1.194,-1.194c0.511,-0.273 1.087,-0.41 1.728,-0.41Z" style="fill:#fff;fill-rule:nonzero;"/><path d="M170.792,15.512c0.167,0 0.303,0.066 0.41,0.196c0.107,0.131 0.161,0.297 0.161,0.499c0,0.345 -0.214,0.636 -0.642,0.873c-0.416,0.238 -0.87,0.422 -1.363,0.553c-0.493,0.13 -0.965,0.196 -1.416,0.196c-1.378,0 -2.465,-0.401 -3.261,-1.203c-0.796,-0.802 -1.194,-1.898 -1.194,-3.287c0,-0.891 0.175,-1.681 0.526,-2.37c0.35,-0.689 0.843,-1.224 1.479,-1.604c0.635,-0.38 1.357,-0.57 2.165,-0.57c1.164,0 2.084,0.374 2.761,1.123c0.677,0.748 1.016,1.758 1.016,3.029c0,0.475 -0.214,0.712 -0.642,0.712l-5.505,0c0.119,1.841 1.004,2.762 2.655,2.762c0.439,0 0.819,-0.059 1.14,-0.178c0.321,-0.119 0.659,-0.273 1.016,-0.463c0.035,-0.024 0.133,-0.075 0.294,-0.152c0.16,-0.077 0.294,-0.116 0.4,-0.116Zm-3.1,-5.398c-0.689,0 -1.241,0.219 -1.657,0.659c-0.416,0.439 -0.665,1.057 -0.748,1.853l4.597,0c-0.036,-0.808 -0.241,-1.428 -0.615,-1.862c-0.374,-0.434 -0.9,-0.65 -1.577,-0.65Z" style="fill:#fff;fill-rule:nonzero;"/><path d="M177.581,16.421c0.261,0.024 0.448,0.092 0.561,0.205c0.113,0.113 0.169,0.27 0.169,0.472c0,0.238 -0.092,0.419 -0.276,0.544c-0.184,0.124 -0.454,0.175 -0.81,0.151l-0.482,-0.036c-0.962,-0.071 -1.68,-0.365 -2.155,-0.882c-0.476,-0.516 -0.713,-1.279 -0.713,-2.289l0,-4.187l-1.069,0c-0.523,0 -0.784,-0.232 -0.784,-0.695c0,-0.214 0.068,-0.383 0.205,-0.508c0.136,-0.125 0.329,-0.187 0.579,-0.187l1.069,0l0,-1.835c0,-0.273 0.08,-0.487 0.24,-0.642c0.161,-0.154 0.378,-0.231 0.651,-0.231c0.273,0 0.493,0.077 0.659,0.231c0.166,0.155 0.249,0.369 0.249,0.642l0,1.835l1.764,0c0.25,0 0.443,0.062 0.579,0.187c0.137,0.125 0.205,0.294 0.205,0.508c0,0.226 -0.068,0.398 -0.205,0.517c-0.136,0.118 -0.329,0.178 -0.579,0.178l-1.764,0l0,4.312c0,0.558 0.116,0.968 0.348,1.229c0.231,0.261 0.585,0.41 1.06,0.445l0.499,0.036Z" style="fill:#fff;fill-rule:nonzero;"/><path d="M191.568,9.383c0.13,-0.356 0.374,-0.534 0.73,-0.534c0.226,0 0.428,0.077 0.606,0.231c0.178,0.155 0.267,0.345 0.267,0.57c0,0.119 -0.023,0.226 -0.071,0.321l-2.958,7.216c-0.071,0.19 -0.19,0.336 -0.356,0.437c-0.166,0.101 -0.35,0.151 -0.552,0.151c-0.19,0 -0.369,-0.05 -0.535,-0.151c-0.166,-0.101 -0.285,-0.247 -0.356,-0.437l-2.317,-5.719l-2.262,5.719c-0.072,0.19 -0.187,0.336 -0.348,0.437c-0.16,0.101 -0.341,0.151 -0.543,0.151c-0.19,0 -0.371,-0.05 -0.544,-0.151c-0.172,-0.101 -0.3,-0.247 -0.383,-0.437l-2.94,-7.216c-0.047,-0.095 -0.071,-0.196 -0.071,-0.303c0,-0.237 0.098,-0.433 0.294,-0.588c0.196,-0.154 0.413,-0.231 0.65,-0.231c0.357,0 0.6,0.172 0.731,0.516l2.298,6.076l2.352,-6.022c0.072,-0.19 0.184,-0.333 0.339,-0.428c0.154,-0.095 0.321,-0.142 0.499,-0.142c0.166,0 0.326,0.047 0.481,0.142c0.154,0.095 0.267,0.238 0.338,0.428l2.352,5.986l2.299,-6.022Z" style="fill:#fff;fill-rule:nonzero;"/><path d="M198.499,17.829c-0.856,0 -1.607,-0.184 -2.254,-0.553c-0.648,-0.368 -1.146,-0.894 -1.497,-1.577c-0.35,-0.683 -0.525,-1.475 -0.525,-2.378c0,-0.915 0.175,-1.714 0.525,-2.397c0.351,-0.683 0.849,-1.208 1.497,-1.577c0.647,-0.368 1.398,-0.552 2.254,-0.552c0.855,0 1.606,0.184 2.254,0.552c0.647,0.369 1.146,0.894 1.496,1.577c0.351,0.683 0.526,1.482 0.526,2.397c0,0.903 -0.175,1.695 -0.526,2.378c-0.35,0.683 -0.849,1.209 -1.496,1.577c-0.648,0.369 -1.399,0.553 -2.254,0.553Zm0,-1.426c0.796,0 1.404,-0.261 1.826,-0.784c0.422,-0.522 0.633,-1.289 0.633,-2.298c0,-0.998 -0.214,-1.761 -0.642,-2.29c-0.428,-0.528 -1.033,-0.793 -1.817,-0.793c-0.784,0 -1.39,0.265 -1.818,0.793c-0.427,0.529 -0.641,1.292 -0.641,2.29c0,1.009 0.211,1.776 0.632,2.298c0.422,0.523 1.031,0.784 1.827,0.784Z" style="fill:#fff;fill-rule:nonzero;"/><path d="M209.332,8.831c0.57,-0.036 0.855,0.208 0.855,0.73c0,0.262 -0.065,0.458 -0.196,0.588c-0.131,0.131 -0.356,0.208 -0.677,0.232l-0.535,0.053c-0.748,0.072 -1.303,0.333 -1.665,0.784c-0.363,0.452 -0.544,0.998 -0.544,1.64l0,4.08c0,0.285 -0.083,0.499 -0.249,0.641c-0.167,0.143 -0.38,0.214 -0.642,0.214c-0.261,0 -0.478,-0.071 -0.65,-0.214c-0.172,-0.142 -0.258,-0.356 -0.258,-0.641l0,-7.252c0,-0.273 0.086,-0.484 0.258,-0.633c0.172,-0.148 0.389,-0.222 0.65,-0.222c0.238,0 0.437,0.074 0.597,0.222c0.16,0.149 0.241,0.354 0.241,0.615l0,0.855c0.237,-0.522 0.582,-0.92 1.033,-1.193c0.451,-0.274 0.962,-0.434 1.532,-0.481l0.25,-0.018Z" style="fill:#fff;fill-rule:nonzero;"/><path d="M218.597,16.296c0.214,0.179 0.321,0.398 0.321,0.66c0,0.225 -0.078,0.421 -0.232,0.588c-0.154,0.166 -0.339,0.249 -0.552,0.249c-0.226,0 -0.428,-0.083 -0.606,-0.249l-4.437,-3.92l0,3.296c0,0.285 -0.083,0.502 -0.249,0.65c-0.166,0.149 -0.38,0.223 -0.642,0.223c-0.261,0 -0.478,-0.074 -0.65,-0.223c-0.172,-0.148 -0.258,-0.365 -0.258,-0.65l0,-10.993c0,-0.286 0.086,-0.502 0.258,-0.651c0.172,-0.148 0.389,-0.223 0.65,-0.223c0.262,0 0.476,0.075 0.642,0.223c0.166,0.149 0.249,0.365 0.249,0.651l0,6.984l4.063,-3.795c0.202,-0.178 0.398,-0.267 0.588,-0.267c0.225,0 0.421,0.083 0.588,0.249c0.166,0.166 0.249,0.362 0.249,0.588c0,0.226 -0.101,0.434 -0.303,0.624l-3.171,2.904l3.492,3.082Z" style="fill:#fff;fill-rule:nonzero;"/></g></g></svg>