<?xml version="1.0" encoding="UTF-8" standalone="no"?>
<!DOCTYPE svg PUBLIC "-//W3C//DTD SVG 1.1//EN" "http://www.w3.org/Graphics/SVG/1.1/DTD/svg11.dtd">
<svg width="100%" height="100%" viewBox="0 0 299 40" version="1.1" xmlns="http://www.w3.org/2000/svg" xmlns:xlink="http://www.w3.org/1999/xlink" xml:space="preserve" xmlns:serif="http://www.serif.com/" style="fill-rule:evenodd;clip-rule:evenodd;">
    <g transform="matrix(1,0,0,1,-460,-25)">
        <g id="Group-11" transform="matrix(1,0,0,1,33,11)">
            <g id="iPhone-X-Status-Bars-Status-Bar--Black-" serif:id="iPhone-X/Status-Bars/Status-Bar-(Black)" transform="matrix(1,0,0,1,403,14.8696)">
                <rect id="Rectangle" x="0" y="0" width="328.696" height="38.567" style="fill:none;"/>
                <g id="Battery" transform="matrix(1,0,0,1,294.511,14.9009)">
                    <path id="Border" d="M18.845,3.068C18.845,1.778 17.798,0.73 16.508,0.73L2.776,0.73C1.486,0.73 0.438,1.778 0.438,3.068L0.438,7.45C0.438,8.74 1.486,9.788 2.776,9.788L16.508,9.788C17.798,9.788 18.845,8.74 18.845,7.45L18.845,3.068Z" style="fill:none;stroke:white;stroke-opacity:0.35;stroke-width:0.88px;"/>
                    <path id="Cap" d="M20.16,3.506L20.16,7.012C20.865,6.715 21.324,6.024 21.324,5.259C21.324,4.494 20.865,3.803 20.16,3.506" style="fill:white;fill-opacity:0.4;fill-rule:nonzero;"/>
                    <path id="Capacity" d="M17.53,3.214C17.53,2.569 17.007,2.045 16.362,2.045L2.922,2.045C2.277,2.045 1.753,2.569 1.753,3.214L1.753,7.304C1.753,7.949 2.277,8.473 2.922,8.473L16.362,8.473C17.007,8.473 17.53,7.949 17.53,7.304L17.53,3.214Z" style="fill:white;"/>
                </g>
                <path id="Wifi" d="M283.406,17.187C285.348,17.187 287.216,17.933 288.624,19.271C288.73,19.375 288.899,19.374 289.004,19.269L290.017,18.246C290.07,18.193 290.099,18.121 290.099,18.046C290.099,17.971 290.068,17.899 290.015,17.846C286.32,14.306 280.491,14.306 276.797,17.846C276.743,17.899 276.713,17.971 276.712,18.046C276.712,18.121 276.741,18.193 276.794,18.246L277.808,19.269C277.912,19.374 278.082,19.375 278.188,19.271C279.595,17.933 281.464,17.187 283.406,17.187ZM283.406,20.514C284.473,20.514 285.502,20.91 286.293,21.627C286.4,21.728 286.569,21.726 286.673,21.622L287.685,20.599C287.739,20.545 287.768,20.473 287.767,20.397C287.767,20.322 287.736,20.249 287.681,20.197C285.272,17.956 281.542,17.956 279.133,20.197C279.079,20.249 279.048,20.322 279.047,20.397C279.046,20.473 279.076,20.546 279.129,20.599L280.141,21.622C280.245,21.726 280.414,21.728 280.521,21.627C281.311,20.911 282.34,20.514 283.406,20.514ZM285.351,22.954C285.405,22.901 285.435,22.828 285.433,22.752C285.432,22.676 285.399,22.605 285.343,22.554C284.225,21.608 282.587,21.608 281.469,22.554C281.413,22.605 281.38,22.676 281.379,22.752C281.377,22.828 281.407,22.901 281.461,22.954L283.212,24.721C283.263,24.773 283.333,24.802 283.406,24.802C283.479,24.802 283.549,24.773 283.6,24.721L285.351,22.954Z" style="fill:white;fill-rule:nonzero;"/>
                <path id="Cellular-Connection" d="M258.282,21.329L259.158,21.329C259.642,21.329 260.035,21.721 260.035,22.205L260.035,23.958C260.035,24.442 259.642,24.835 259.158,24.835L258.282,24.835C257.798,24.835 257.405,24.442 257.405,23.958L257.405,22.205C257.405,21.721 257.798,21.329 258.282,21.329ZM262.372,19.576L263.249,19.576C263.733,19.576 264.125,19.968 264.125,20.452L264.125,23.958C264.125,24.442 263.733,24.835 263.249,24.835L262.372,24.835C261.888,24.835 261.496,24.442 261.496,23.958L261.496,20.452C261.496,19.968 261.888,19.576 262.372,19.576ZM266.463,17.53L267.339,17.53C267.823,17.53 268.216,17.923 268.216,18.407L268.216,23.958C268.216,24.442 267.823,24.835 267.339,24.835L266.463,24.835C265.979,24.835 265.586,24.442 265.586,23.958L265.586,18.407C265.586,17.923 265.979,17.53 266.463,17.53ZM270.553,15.485L271.43,15.485C271.914,15.485 272.306,15.878 272.306,16.362L272.306,23.958C272.306,24.442 271.914,24.835 271.43,24.835L270.553,24.835C270.069,24.835 269.677,24.442 269.677,23.958L269.677,16.362C269.677,15.878 270.069,15.485 270.553,15.485Z" style="fill:white;fill-rule:nonzero;"/>
                <g id="_--Time" serif:id="↳-Time" transform="matrix(1,0,0,1,18.407,11.3948)">
                    <g transform="matrix(1,0,0,1,10.7833,13.9401)">
                        <path d="M3.925,0.21C6.124,0.21 7.43,-1.51 7.43,-4.422C7.43,-5.518 7.22,-6.441 6.819,-7.154C6.238,-8.263 5.237,-8.862 3.973,-8.862C2.091,-8.862 0.761,-7.598 0.761,-5.824C0.761,-4.158 1.959,-2.948 3.607,-2.948C4.62,-2.948 5.441,-3.421 5.848,-4.242L5.95,-4.242C5.95,-2.265 5.201,-1.085 3.937,-1.085C3.194,-1.085 2.618,-1.492 2.421,-2.145L0.881,-2.145C1.138,-0.725 2.343,0.21 3.925,0.21ZM3.979,-4.176C2.984,-4.176 2.277,-4.883 2.277,-5.872C2.277,-6.837 3.02,-7.574 3.985,-7.574C4.949,-7.574 5.692,-6.825 5.692,-5.848C5.692,-4.883 4.967,-4.176 3.979,-4.176Z" style="fill:white;fill-rule:nonzero;"/>
                        <path d="M10.114,-0.917C10.683,-0.917 11.073,-1.324 11.073,-1.863C11.073,-2.409 10.683,-2.81 10.114,-2.81C9.551,-2.81 9.155,-2.409 9.155,-1.863C9.155,-1.324 9.551,-0.917 10.114,-0.917ZM10.114,-5.411C10.683,-5.411 11.073,-5.812 11.073,-6.351C11.073,-6.897 10.683,-7.298 10.114,-7.298C9.551,-7.298 9.155,-6.897 9.155,-6.351C9.155,-5.812 9.551,-5.411 10.114,-5.411Z" style="fill:white;fill-rule:nonzero;"/>
                        <path d="M17.017,0L18.497,0L18.497,-1.612L19.665,-1.612L19.665,-2.918L18.497,-2.918L18.497,-8.646L16.315,-8.646C14.788,-6.345 13.571,-4.422 12.792,-2.99L12.792,-1.612L17.017,-1.612L17.017,0ZM14.224,-2.972C15.231,-4.746 16.13,-6.166 16.957,-7.388L17.04,-7.388L17.04,-2.882L14.224,-2.882L14.224,-2.972Z" style="fill:white;fill-rule:nonzero;"/>
                    </g>
                    <g transform="matrix(1,0,0,1,30.4612,13.9401)">
                        <path d="M2.99,0L4.536,0L4.536,-8.646L2.996,-8.646L0.737,-7.064L0.737,-5.578L2.888,-7.088L2.99,-7.088L2.99,0Z" style="fill:white;fill-rule:nonzero;"/>
                    </g>
                </g>
            </g>
        </g>
    </g>
</svg>
