<?xml version="1.0" encoding="UTF-8"?>
<svg width="68px" height="68px" viewBox="0 0 68 68" version="1.1" xmlns="http://www.w3.org/2000/svg" xmlns:xlink="http://www.w3.org/1999/xlink">
    <!-- Generator: Sketch 52.5 (67469) - http://www.bohemiancoding.com/sketch -->
    <title>Group 114</title>
    <desc>Created with Sketch.</desc>
    <g id="Page-1" stroke="none" stroke-width="1" fill="none" fill-rule="evenodd">
        <g id="Group-114" transform="translate(1.000000, 1.000000)">
            <path d="M49.0078644,4.22790804 C44.240784,1.53609224 38.7345614,1.77635684e-13 32.8695652,1.77635684e-13 C14.7162056,1.77635684e-13 -2.77111667e-13,14.7162056 -2.77111667e-13,32.8695652 C-2.77111667e-13,51.0229248 14.7162056,65.7391304 32.8695652,65.7391304 C51.0229248,65.7391304 65.7391304,51.0229248 65.7391304,32.8695652 C65.7391304,24.8747751 62.8848545,17.5466368 58.1397382,11.8485861" id="Path-Copy" stroke="#FE791A" stroke-width="0.782608696" stroke-linecap="round"></path>
            <g id="devices" transform="translate(15.000000, 19.000000)" fill="#FE791A" fill-rule="nonzero">
                <circle id="Oval" cx="19.5981053" cy="21.2695439" r="1"></circle>
                <circle id="Oval" cx="5.71614035" cy="26.1690526" r="1"></circle>
                <path d="M33.4800702,0.038245614 L5.71614035,0.038245614 C4.32792982,0.038245614 3.26638596,1.09978947 3.26638596,2.488 L3.26638596,10.6538947 C3.26638596,11.1438596 3.59305263,11.4704561 4.08294737,11.4704561 C4.57284211,11.4704561 4.89950877,11.1437895 4.89950877,10.6538947 L4.89950877,2.48807018 C4.89950877,1.99810526 5.22617544,1.67150877 5.71607018,1.67150877 L33.48,1.67150877 C33.9699649,1.67150877 34.2965614,1.99817544 34.2965614,2.48807018 L34.2965614,22.0861754 C34.2965614,22.5761404 33.9698947,22.9027368 33.48,22.9027368 L13.8819649,22.9027368 C13.392,22.9027368 13.0654035,23.2294035 13.0654035,23.7192982 C13.0654035,24.209193 13.3920702,24.5358596 13.8819649,24.5358596 L15.5151579,24.5358596 L15.5151579,26.985614 C15.5151579,27.4755789 15.1884912,27.8021754 14.6985965,27.8021754 L13.8820351,27.8021754 C13.3920702,27.8021754 13.0654737,28.1288421 13.0654737,28.6187368 C13.0654737,29.1086316 13.3921404,29.4352982 13.8820351,29.4352982 L25.3142456,29.4352982 C25.8042105,29.4352982 26.130807,29.1086316 26.130807,28.6187368 C26.130807,28.1288421 25.8041404,27.8021754 25.3142456,27.8021754 L24.4976842,27.8021754 C24.0077193,27.8021754 23.6811228,27.4755088 23.6811228,26.985614 L23.6811228,24.5358596 L33.4801404,24.5358596 C34.8683509,24.5358596 35.9298947,23.4743158 35.9298947,22.0861053 L35.9298947,2.48807018 C35.9298246,1.09985965 34.8682807,0.038245614 33.4800702,0.038245614 Z M16.9849825,27.8022456 C17.0666667,27.5572632 17.1482807,27.3122807 17.1482807,26.9856842 L17.1482807,24.5359298 L22.0477895,24.5359298 L22.0477895,26.9856842 C22.0477895,27.3123509 22.1294737,27.5572632 22.2110877,27.8022456 L16.9849825,27.8022456 Z" id="Shape"></path>
                <path d="M31.8468772,18.0031579 L13.8819649,18.0031579 C13.392,18.0031579 13.0654035,18.3298246 13.0654035,18.8197193 C13.0654035,19.309614 13.3920702,19.6362807 13.8819649,19.6362807 L31.8468772,19.6362807 C32.3368421,19.6362807 32.6634386,19.309614 32.6634386,18.8197193 C32.6634386,18.3298246 32.3368421,18.0031579 31.8468772,18.0031579 Z" id="Shape"></path>
                <path d="M8.98245614,13.1036491 L2.44975439,13.1036491 C1.06154386,13.1036491 0,14.1652632 0,15.5534035 L0,26.985614 C0,28.3738246 1.06154386,29.4353684 2.44975439,29.4353684 L8.98245614,29.4353684 C10.3706667,29.4353684 11.4322105,28.3738246 11.4322105,26.985614 L11.4322105,15.5534035 C11.4322105,14.1652632 10.3706667,13.1036491 8.98245614,13.1036491 Z M9.79901754,26.985614 C9.79901754,27.4755789 9.47235088,27.8021754 8.98245614,27.8021754 L2.44975439,27.8021754 C1.95978947,27.8021754 1.63319298,27.4755088 1.63319298,26.985614 L1.63319298,15.5534035 C1.63319298,15.0634386 1.95985965,14.7368421 2.44975439,14.7368421 L8.98245614,14.7368421 C9.47242105,14.7368421 9.79901754,15.0635088 9.79901754,15.5534035 L9.79901754,26.985614 Z" id="Shape"></path>
            </g>
        </g>
    </g>
</svg>