<?xml version="1.0" encoding="UTF-8"?>
<svg width="136px" height="23px" viewBox="0 0 136 23" version="1.1" xmlns="http://www.w3.org/2000/svg" xmlns:xlink="http://www.w3.org/1999/xlink">
    <!-- Generator: Sketch 52.5 (67469) - http://www.bohemiancoding.com/sketch -->
    <title>logo copy 7</title>
    <desc>Created with Sketch.</desc>
    <g id="Page-1" stroke="none" stroke-width="1" fill="none" fill-rule="evenodd">
        <g id="Group-121" transform="translate(-120.000000, -2.000000)" fill-rule="nonzero">
            <g id="logo-copy-7" transform="translate(120.000000, 2.000000)">
                <path d="M21.1573197,0.529686289 C23.3629091,0.529686289 25.2417445,1.26309808 26.7121373,2.72992165 C28.2233744,4.19674522 28.9585709,6.03027469 28.9585709,8.18976491 C28.9585709,10.3085101 28.2233744,12.1420396 26.7121373,13.6496083 C25.2417445,15.1571769 23.4037533,15.8905887 21.2798525,15.8905887 C19.1151074,15.8905887 17.2771163,15.1571769 15.7658792,13.6496083 C14.2546421,12.1827847 13.5194456,10.3900003 13.5194456,8.27125511 C13.5194456,6.88592177 13.8461996,5.58207859 14.5405518,4.35972562 C15.234904,3.17811774 16.1334775,2.24098046 17.3179606,1.54831377 C18.5024437,0.85564708 19.7686154,0.529686289 21.1573197,0.529686289 Z M21.198164,1.91501966 C20.0953694,1.91501966 19.0742632,2.20023536 18.1348455,2.77066674 C17.1545836,3.34109813 16.4193871,4.07450992 15.8475677,5.0523923 C15.3165925,5.98952959 15.0306828,7.04890216 15.0306828,8.23051001 C15.0306828,9.98254927 15.6433465,11.4493728 16.8278296,12.6309808 C18.053157,13.8125887 19.4827057,14.4237651 21.198164,14.4237651 C22.3418029,14.4237651 23.4037533,14.1385495 24.343171,13.6088632 C25.323433,13.0791769 26.0586293,12.30502 26.5896046,11.3678826 C27.1205798,10.4307454 27.4064895,9.37137279 27.4064895,8.18976491 C27.4064895,7.04890216 27.1205798,5.98952959 26.5896046,5.0523923 C26.0586293,4.11525502 25.2825887,3.38184323 24.3023268,2.81141184 C23.3629091,2.20023536 22.3009587,1.91501966 21.198164,1.91501966 Z" id="Shape" fill="#FFFFFF"></path>
                <path d="M101.947239,0.448196091 L98.9656099,0.448196091 L94.7586523,11.6530983 L103.213411,11.6938435 L104.847181,15.8905887 L107.9105,15.8905887 L101.947239,0.448196091 Z M98.4346345,9.81956888 L100.517691,4.52270601 L102.559903,9.81956888 L98.4346345,9.81956888 Z" id="Shape" fill="#FFFFFF"></path>
                <path d="M111.055507,0.448196091 L113.996292,0.448196091 L113.996292,13.0384318 L119.83702,13.0384318 L119.83702,15.8498436 L111.055507,15.8498436 L111.055507,0.448196091 Z M122.982027,0.448196091 L125.922812,0.448196091 L125.922812,13.0384318 L131.76354,13.0384318 L131.76354,15.8498436 L122.982027,15.8498436 L122.982027,0.448196091 Z M90.3474734,0.448196091 L93.7783907,0.448196091 L88.1827281,15.9313338 L85.3236316,15.9313338 L81.811026,5.82654918 L81.7293377,5.62282369 L81.6476494,5.82654918 L78.1758883,15.9313338 L75.2759466,15.9313338 L69.7211291,0.448196091 L73.2337342,0.448196091 L76.7463394,10.9196866 L76.8280279,11.1641571 L76.9097164,10.9196866 L80.3814774,0.407450992 L83.1997301,0.407450992 L86.6714912,10.9196866 L86.7531803,11.1641571 L86.8348686,10.9196866 L90.3474734,0.448196091 Z M68.1282034,12.2235298 L68.1282034,14.0978044 C67.6789167,14.4645102 67.1479415,14.9127063 66.6169663,15.1571769 C65.5141717,15.6868632 64.2888442,15.9313338 62.9409841,15.9313338 C60.3677966,15.9313338 58.3255842,15.0756867 56.8551914,13.3643926 C55.5890197,11.9383141 54.976356,10.1862748 54.976356,8.14901981 C54.976356,5.98952959 55.7115524,4.19674522 57.2227896,2.72992165 C58.7340267,1.26309808 60.612862,0.529686289 62.9001398,0.529686289 C64.2888442,0.529686289 65.5141717,0.814901981 66.6169663,1.34458828 C67.1479415,1.58905887 67.6380724,2.03725496 68.0873592,2.40396085 L68.0873592,4.40047071 C67.4746954,3.62631383 66.7394991,3.01513734 65.8817699,2.60768635 C64.9831964,2.15949026 64.0029345,1.95576476 62.9409841,1.95576476 C61.756501,1.95576476 60.6537063,2.24098046 59.6734444,2.81141184 C58.6523382,3.38184323 57.8762975,4.15600012 57.3453223,5.0931374 C56.8143471,6.03027469 56.5284374,7.08964726 56.5284374,8.27125511 C56.5284374,10.0640395 57.1411011,11.5716081 58.3664284,12.7532161 C59.5917559,13.934824 61.1438373,14.5460004 63.0226726,14.5460004 C65.0648849,14.5460004 66.7394991,13.7718436 68.1282034,12.2235298 Z M49.3398499,0.448196091 L50.8102428,0.448196091 L50.8102428,15.9313338 L49.3398499,15.9313338 L49.3398499,0.448196091 Z M32.9204628,15.9720789 L32.9204628,0.448196091 L33.2472168,0.448196091 L43.5808112,12.3457651 L43.5808112,0.448196091 L45.1328925,0.448196091 L45.1328925,15.9720789 L44.7652943,15.9720789 L34.5133885,4.23749032 L34.5133885,15.9720789 L32.9204628,15.9720789 Z M5.59566179,7.45635315 C9.06742275,8.18976491 10.5786599,9.45286298 10.5378157,11.6938435 L10.5378157,11.7345886 C10.5378157,14.1792946 8.49560329,15.8905887 5.5139733,15.8905887 C3.51260521,15.8905887 1.8379911,15.3609024 0.24506548,14.1385495 L0.24506548,12.3865102 L0.285909727,12.3457651 L0.408442466,12.4680004 C2.08305658,14.0163142 3.55344946,14.6274906 5.59566179,14.6274906 C7.67871837,14.6274906 9.14911125,13.4866279 9.14911125,11.8568239 L9.14911125,11.8160788 C9.14911125,10.4307454 8.49560329,9.53435318 5.10553083,8.8416865 C1.47039288,8.10827471 0,6.88592177 0,4.56345111 L0,4.52270601 C0,2.20023536 2.12390082,0.48894119 4.9013096,0.48894119 C6.61676796,0.48894119 7.96462808,0.85564708 9.31248824,1.75203927 L9.31248824,3.46333343 L9.27164399,3.50407854 L9.14911125,3.38184323 C7.84209533,2.24098046 6.53507947,1.75203927 4.86046535,1.75203927 C2.85909727,1.75203927 1.42954863,2.85215694 1.42954863,4.35972562 L1.42954863,4.40047071 C1.42954863,5.82654918 2.08305658,6.72294137 5.59566179,7.45635315 Z" id="Combined-Shape" fill="#FFFFFF"></path>
                <path d="M135.194456,2.72992165 C134.908547,3.01513734 134.581793,3.13737264 134.17335,3.13737264 C133.764908,3.13737264 133.39731,3.01513734 133.152244,2.72992165 C132.907179,2.44470595 132.743802,2.11874516 132.743802,1.71129417 C132.743802,1.30384318 132.907179,0.937137279 133.193089,0.651921587 C133.478998,0.407450992 133.805752,0.244470595 134.214195,0.244470595 C134.622637,0.244470595 134.949391,0.366705893 135.235301,0.651921587 C135.521211,0.937137279 135.643743,1.26309808 135.643743,1.67054907 C135.643743,2.11874516 135.480366,2.44470595 135.194456,2.72992165 Z M133.315621,0.85564708 C133.070556,1.10011767 132.948023,1.38533338 132.948023,1.71129417 C132.948023,2.03725496 133.070556,2.32247065 133.315621,2.56694125 C133.560686,2.81141184 133.846596,2.93364714 134.17335,2.93364714 C134.500104,2.93364714 134.786014,2.81141184 135.03108,2.56694125 C135.276145,2.32247065 135.398678,2.03725496 135.398678,1.71129417 C135.398678,1.38533338 135.276145,1.10011767 135.03108,0.85564708 C134.786014,0.611176488 134.500104,0.48894119 134.17335,0.48894119 C133.846596,0.48894119 133.560686,0.611176488 133.315621,0.85564708 Z M133.519843,2.48545105 L133.519843,0.85564708 C133.601531,0.85564708 133.764908,0.85564708 133.969129,0.85564708 C134.17335,0.85564708 134.295883,0.85564708 134.295883,0.85564708 C134.418416,0.85564708 134.540948,0.896392179 134.622637,0.937137279 C134.786014,1.01862748 134.826858,1.14086277 134.826858,1.30384318 C134.826858,1.42607848 134.786014,1.54831377 134.704326,1.58905887 C134.622637,1.62980397 134.540948,1.67054907 134.418416,1.71129417 C134.500104,1.75203927 134.581793,1.75203927 134.663481,1.79278437 C134.745169,1.87427456 134.786014,1.99650986 134.786014,2.15949026 L134.786014,2.32247065 C134.786014,2.32247065 134.786014,2.36321575 134.786014,2.36321575 C134.786014,2.36321575 134.786014,2.40396085 134.786014,2.40396085 L134.786014,2.44470595 L134.377571,2.44470595 C134.377571,2.40396085 134.336727,2.32247065 134.336727,2.24098046 C134.336727,2.15949026 134.336727,2.07800006 134.295883,2.03725496 C134.255039,1.99650986 134.255039,1.95576476 134.17335,1.91501966 C134.132506,1.91501966 134.091662,1.87427456 134.009974,1.87427456 L133.928284,1.87427456 L133.846596,1.87427456 L133.846596,2.44470595 L133.519843,2.44470595 L133.519843,2.48545105 Z M134.295883,1.18160788 C134.255039,1.14086277 134.17335,1.14086277 134.050817,1.14086277 L133.928284,1.14086277 L133.928284,1.62980397 L134.091662,1.62980397 C134.17335,1.62980397 134.255039,1.62980397 134.336727,1.58905887 C134.377571,1.54831377 134.418416,1.46682357 134.418416,1.38533338 C134.418416,1.30384318 134.377571,1.22235298 134.295883,1.18160788 Z" id="Shape" fill="#FFFFFF"></path>
                <path d="M99.3332078,22.3690595 C99.3332078,22.3690595 92.1446208,19.8021182 90.5516947,15.4831377 C88.7953919,10.675216 95.371316,9.57509828 102.069772,9.77882378 C105.704911,9.90105907 110.116089,10.4307454 110.116089,10.4307454 C110.116089,10.4307454 99.659962,11.7753337 95.8614468,14.790471 C92.2263091,17.7648633 99.3332078,22.3690595 99.3332078,22.3690595 Z" id="Shape" fill="#F36E21"></path>
            </g>
        </g>
    </g>
</svg>