<?xml version="1.0" encoding="UTF-8" standalone="no"?><!DOCTYPE svg PUBLIC "-//W3C//DTD SVG 1.1//EN" "http://www.w3.org/Graphics/SVG/1.1/DTD/svg11.dtd"><svg width="100%" height="100%" viewBox="0 0 65 18" version="1.1" xmlns="http://www.w3.org/2000/svg" xmlns:xlink="http://www.w3.org/1999/xlink" xml:space="preserve" xmlns:serif="http://www.serif.com/" style="fill-rule:evenodd;clip-rule:evenodd;stroke-linejoin:round;stroke-miterlimit:1.41421;"><g id="Group-124"><g id="Group-116"><path id="Threats" d="M7.43,16.09c-0.227,0 -0.409,-0.069 -0.547,-0.206c-0.137,-0.138 -0.206,-0.32 -0.206,-0.547l0,-10.716l-3.853,0c-0.215,0 -0.382,-0.054 -0.501,-0.161c-0.12,-0.108 -0.179,-0.263 -0.179,-0.466c0,-0.203 0.059,-0.359 0.179,-0.466c0.119,-0.108 0.286,-0.162 0.501,-0.162l9.193,0c0.215,0 0.383,0.054 0.502,0.162c0.12,0.107 0.179,0.263 0.179,0.466c0,0.203 -0.059,0.358 -0.179,0.466c-0.119,0.107 -0.287,0.161 -0.502,0.161l-3.852,0l0,10.716c0,0.227 -0.066,0.409 -0.197,0.547c-0.132,0.137 -0.311,0.206 -0.538,0.206Zm11.11,-9.032c1.028,0 1.804,0.29 2.33,0.869c0.526,0.579 0.788,1.443 0.788,2.589l0,4.857c0,0.227 -0.065,0.403 -0.197,0.528c-0.131,0.126 -0.304,0.189 -0.519,0.189c-0.227,0 -0.407,-0.063 -0.538,-0.189c-0.131,-0.125 -0.197,-0.301 -0.197,-0.528l0,-4.821c0,-0.776 -0.158,-1.35 -0.475,-1.72c-0.317,-0.37 -0.821,-0.556 -1.514,-0.556c-0.801,0 -1.44,0.245 -1.918,0.735c-0.478,0.49 -0.716,1.153 -0.716,1.989l0,4.373c0,0.227 -0.063,0.403 -0.189,0.528c-0.125,0.126 -0.301,0.189 -0.528,0.189c-0.227,0 -0.406,-0.063 -0.538,-0.189c-0.131,-0.125 -0.197,-0.301 -0.197,-0.528l0,-11.397c0,-0.203 0.069,-0.371 0.206,-0.502c0.137,-0.131 0.314,-0.197 0.529,-0.197c0.227,0 0.403,0.063 0.528,0.188c0.126,0.125 0.189,0.296 0.189,0.511l0,4.695c0.286,-0.526 0.686,-0.926 1.2,-1.201c0.514,-0.275 1.099,-0.412 1.756,-0.412Zm10.089,0.036c0.502,-0.036 0.753,0.167 0.753,0.609c0,0.191 -0.054,0.344 -0.161,0.457c-0.108,0.113 -0.293,0.182 -0.556,0.206l-0.537,0.054c-0.801,0.072 -1.395,0.355 -1.784,0.851c-0.388,0.496 -0.582,1.078 -0.582,1.747l0,4.355c0,0.239 -0.066,0.418 -0.197,0.537c-0.131,0.12 -0.305,0.18 -0.52,0.18c-0.215,0 -0.391,-0.063 -0.528,-0.189c-0.138,-0.125 -0.206,-0.301 -0.206,-0.528l0,-7.562c0,-0.227 0.071,-0.404 0.215,-0.529c0.143,-0.126 0.316,-0.188 0.519,-0.188c0.191,0 0.353,0.062 0.484,0.188c0.132,0.125 0.197,0.296 0.197,0.511l0,1.003c0.251,-0.525 0.607,-0.926 1.066,-1.2c0.46,-0.275 0.989,-0.437 1.586,-0.484l0.251,-0.018Zm8.763,6.881c0.132,0 0.245,0.054 0.341,0.161c0.095,0.108 0.143,0.245 0.143,0.412c0,0.299 -0.209,0.574 -0.627,0.825c-0.43,0.251 -0.884,0.439 -1.362,0.564c-0.478,0.126 -0.944,0.188 -1.398,0.188c-1.35,0 -2.416,-0.4 -3.199,-1.2c-0.782,-0.801 -1.173,-1.906 -1.173,-3.315c0,-0.896 0.173,-1.688 0.519,-2.375c0.347,-0.687 0.834,-1.221 1.461,-1.604c0.627,-0.382 1.341,-0.573 2.141,-0.573c1.135,0 2.037,0.37 2.706,1.111c0.669,0.741 1.004,1.744 1.004,3.011c0,0.238 -0.048,0.412 -0.144,0.519c-0.095,0.108 -0.251,0.161 -0.466,0.161l-5.77,0c0.108,2.055 1.081,3.083 2.921,3.083c0.466,0 0.866,-0.063 1.201,-0.188c0.334,-0.126 0.693,-0.296 1.075,-0.511c0.311,-0.179 0.52,-0.269 0.627,-0.269Zm-3.136,-5.788c-0.764,0 -1.377,0.239 -1.837,0.717c-0.46,0.478 -0.731,1.153 -0.815,2.025l5.071,0c-0.024,-0.884 -0.245,-1.562 -0.663,-2.034c-0.418,-0.472 -1.003,-0.708 -1.756,-0.708Zm9.39,-1.129c2.186,0 3.28,1.147 3.28,3.441l0,4.874c0,0.215 -0.063,0.388 -0.189,0.519c-0.125,0.132 -0.295,0.198 -0.51,0.198c-0.215,0 -0.389,-0.066 -0.52,-0.198c-0.131,-0.131 -0.197,-0.304 -0.197,-0.519l0,-0.86c-0.227,0.513 -0.574,0.911 -1.039,1.191c-0.466,0.281 -1.004,0.421 -1.613,0.421c-0.562,0 -1.078,-0.113 -1.55,-0.34c-0.472,-0.227 -0.846,-0.544 -1.12,-0.95c-0.275,-0.406 -0.412,-0.854 -0.412,-1.344c0,-0.657 0.167,-1.168 0.501,-1.532c0.335,-0.364 0.884,-0.627 1.649,-0.788c0.765,-0.162 1.828,-0.242 3.19,-0.242l0.394,0l0,-0.592c0,-0.717 -0.146,-1.242 -0.439,-1.577c-0.293,-0.334 -0.768,-0.501 -1.425,-0.501c-0.812,0 -1.636,0.221 -2.473,0.663c-0.322,0.203 -0.549,0.304 -0.681,0.304c-0.143,0 -0.263,-0.054 -0.358,-0.161c-0.096,-0.108 -0.143,-0.245 -0.143,-0.412c0,-0.167 0.05,-0.314 0.152,-0.439c0.101,-0.126 0.266,-0.254 0.493,-0.386c0.418,-0.238 0.893,-0.427 1.424,-0.564c0.532,-0.137 1.061,-0.206 1.586,-0.206Zm-0.591,7.921c0.717,0 1.305,-0.242 1.765,-0.726c0.46,-0.484 0.69,-1.108 0.69,-1.873l0,-0.52l-0.323,0c-1.051,0 -1.851,0.045 -2.401,0.135c-0.549,0.089 -0.941,0.239 -1.174,0.448c-0.233,0.209 -0.349,0.517 -0.349,0.923c0,0.466 0.17,0.851 0.511,1.156c0.34,0.304 0.767,0.457 1.281,0.457Zm10.555,-0.036c0.418,0.036 0.627,0.227 0.627,0.573c0,0.203 -0.075,0.356 -0.224,0.457c-0.149,0.102 -0.373,0.14 -0.672,0.117l-0.484,-0.036c-0.956,-0.072 -1.66,-0.359 -2.114,-0.86c-0.454,-0.502 -0.681,-1.261 -0.681,-2.276l0,-4.498l-1.201,0c-0.203,0 -0.361,-0.051 -0.475,-0.152c-0.113,-0.102 -0.17,-0.236 -0.17,-0.404c0,-0.179 0.057,-0.322 0.17,-0.43c0.114,-0.107 0.272,-0.161 0.475,-0.161l1.201,0l0,-2.025c0,-0.227 0.065,-0.403 0.197,-0.529c0.131,-0.125 0.31,-0.188 0.537,-0.188c0.215,0 0.389,0.063 0.52,0.188c0.131,0.126 0.197,0.302 0.197,0.529l0,2.025l1.989,0c0.191,0 0.344,0.054 0.457,0.161c0.114,0.108 0.17,0.251 0.17,0.43c0,0.168 -0.056,0.302 -0.17,0.404c-0.113,0.101 -0.266,0.152 -0.457,0.152l-1.989,0l0,4.569c0,0.658 0.135,1.132 0.403,1.425c0.269,0.293 0.672,0.457 1.21,0.493l0.484,0.036Zm4.999,1.182c-0.549,0 -1.072,-0.065 -1.568,-0.197c-0.495,-0.131 -0.934,-0.316 -1.317,-0.555c-0.215,-0.144 -0.367,-0.278 -0.457,-0.403c-0.089,-0.126 -0.134,-0.278 -0.134,-0.457c0,-0.156 0.045,-0.284 0.134,-0.386c0.09,-0.101 0.206,-0.152 0.35,-0.152c0.143,0 0.352,0.09 0.627,0.269c0.358,0.215 0.714,0.385 1.066,0.511c0.353,0.125 0.792,0.188 1.317,0.188c0.645,0 1.147,-0.114 1.506,-0.341c0.358,-0.227 0.537,-0.555 0.537,-0.985c0,-0.263 -0.065,-0.475 -0.197,-0.637c-0.131,-0.161 -0.358,-0.304 -0.681,-0.43c-0.322,-0.125 -0.794,-0.253 -1.416,-0.385c-1.051,-0.227 -1.803,-0.532 -2.257,-0.914c-0.454,-0.382 -0.681,-0.902 -0.681,-1.559c0,-0.514 0.143,-0.968 0.43,-1.362c0.286,-0.394 0.684,-0.705 1.191,-0.932c0.508,-0.227 1.085,-0.34 1.73,-0.34c0.466,0 0.917,0.063 1.353,0.188c0.436,0.126 0.821,0.302 1.155,0.529c0.407,0.286 0.61,0.585 0.61,0.896c0,0.155 -0.048,0.286 -0.144,0.394c-0.095,0.107 -0.209,0.161 -0.34,0.161c-0.143,0 -0.359,-0.101 -0.645,-0.304c-0.335,-0.215 -0.651,-0.383 -0.95,-0.502c-0.299,-0.12 -0.669,-0.179 -1.111,-0.179c-0.562,0 -1.013,0.125 -1.353,0.376c-0.34,0.251 -0.511,0.585 -0.511,1.003c0,0.263 0.063,0.475 0.188,0.637c0.126,0.161 0.335,0.304 0.628,0.43c0.292,0.125 0.713,0.248 1.263,0.367c0.812,0.179 1.443,0.376 1.891,0.591c0.448,0.215 0.767,0.478 0.958,0.789c0.191,0.311 0.287,0.705 0.287,1.183c0,0.752 -0.317,1.359 -0.95,1.819c-0.633,0.459 -1.469,0.689 -2.509,0.689Z" style="fill:#8d8d8d;"/></g></g></svg>