<?xml version="1.0" encoding="UTF-8"?>
<svg width="48px" height="48px" viewBox="0 0 48 48" version="1.1" xmlns="http://www.w3.org/2000/svg" xmlns:xlink="http://www.w3.org/1999/xlink">
    <!-- Generator: Sketch 51.3 (57544) - http://www.bohemiancoding.com/sketch -->
    <title>WAF V1 - Color - OnWhite</title>
    <desc>Created with Sketch.</desc>
    <defs></defs>
    <g id="WAF-V1---Color---OnWhite" stroke="none" stroke-width="1" fill="none" fill-rule="evenodd">
        <g id="Logo_WAF_Color_V1" transform="translate(4.000000, 0.000000)" fill-rule="nonzero">
            <g id="Group-2">
                <path d="M28.073402,25.011589 L28.0900061,19.4113501 L39.9619546,19.4113501 L39.9619546,24.3692086 C39.9619546,24.5833354 39.9453505,24.7974622 39.9453505,25.011589 L28.073402,25.011589 Z M39.6464763,6.18490365 C39.8291216,6.18490365 39.9619546,6.30020269 39.9453505,6.4484443 L39.9453505,11.7027861 L28.073402,11.7027861 L28.073402,6.20137494 L39.6464763,6.18490365 Z M34.6652391,12.7569487 L39.9619546,12.7569487 L39.9619546,18.3571875 L34.6652391,18.3571875 L34.6652391,12.7569487 Z M34.6652391,31.6659904 L34.6652391,26.0657516 L39.878934,26.0657516 C39.6962886,28.0587778 39.1981649,29.9200336 38.4675835,31.6659904 L34.6652391,31.6659904 Z M21.8634597,19.4278214 L26.994134,19.4278214 L26.994134,25.0280603 L23.8891628,25.0280603 C23.5736845,22.9691489 22.6936659,20.9761227 21.8634597,19.4278214 Z M20.3856927,12.7898912 L33.6523876,12.77342 L33.6523876,18.3736588 L21.2823154,18.3736588 C20.9336288,17.8136349 20.6347546,17.3524388 20.4022968,17.0065417 L20.3856927,16.9735991 L20.3856927,12.7898912 Z M21.7970432,6.21784623 L27.0107381,6.20137494 L27.0107381,11.7027861 L21.7970432,11.7027861 L21.7970432,6.21784623 Z M24.0219958,26.0822229 L33.6025752,26.0822229 L33.6025752,31.6824617 L29.6175855,31.6824617 C28.2560474,29.1623542 26.0144907,27.5152252 25.2340968,26.9057874 C24.4038907,26.2634071 24.6861608,27.5975816 24.7027649,27.8940649 C24.7691814,30.1176891 24.6031401,30.4965288 24.3872865,29.2941246 C24.2212453,28.355261 24.1548288,27.5811103 24.0219958,26.0822229 Z M30.8130824,39.3910258 L33.2538886,39.3910258 C31.4938515,41.2193391 29.5677731,42.7841117 27.7413195,44.0359298 C28.3556721,43.5088485 28.9036082,42.9323533 29.4017319,42.2735017 C30.1157092,41.3346381 30.5640206,40.362832 30.8130824,39.3910258 Z M30.1157092,32.7366243 L37.9860639,32.7366243 C36.9898165,34.7955357 35.6946948,36.6732628 34.2335319,38.3368632 L31.028936,38.3368632 C31.294602,36.2450093 30.7466659,34.2519831 30.1157092,32.7366243 Z" id="wall" fill="#575759"></path>
                <path d="M29.1692742,33.2637056 C28.1232144,30.4635862 26.8280927,29.1623542 26.0975113,28.5858591 C25.3669298,28.0258352 25.5329711,28.5693878 25.5495752,28.8164571 C25.7654288,31.8471746 24.2378494,32.6872105 23.6899133,30.8753685 C23.4242474,30.0188614 23.2249979,29.0635265 23.2083938,27.5316965 C23.1917896,24.2703809 21.2989195,19.9384314 20.418901,19.4442927 L20.418901,47.8572692 C20.8340041,47.7584415 21.9962927,47.4290157 23.7065175,46.424267 C26.197136,44.843023 29.7504185,42.5535136 30.0326886,38.4521622 C30.1489175,37.2332867 29.9828762,35.4708586 29.1692742,33.2637056 Z" id="fire_r" fill="#FF6C0C"></path>
                <path d="M20.418901,19.4278214 C20.418901,19.4278214 19.621903,24.3362661 13.6610226,31.3530359 C9.32734631,36.5744351 11.0043628,40.5769587 11.6021113,41.6640639 C13.04667,44.2829992 17.3471381,47.165475 20.418901,47.8572692 L20.418901,19.4278214 Z" id="fire_l" fill="#FFA436"></path>
                <path d="M21.6143979,0.123468657 C21.5479814,0.106997366 21.498169,0.106997366 21.4483566,0.123468657 L0.311307116,6.00371945 C0.195078249,6.03666204 0.112057631,6.11901849 0.112057631,6.23431753 L0.112057631,24.4186225 C0.112057631,35.948526 11.1870082,43.8382743 17.0814721,46.6054512 C14.4082082,45.3042192 11.8179649,43.2453078 10.6556762,41.1534539 C10.3401979,40.5769587 9.79226177,39.5227961 9.77565765,37.9580235 C6.37181228,34.3672821 3.20042465,29.4917801 3.20042465,24.2703809 L3.20042465,8.49088436 C3.20042465,8.4085279 3.26684114,8.34264274 3.34986176,8.32617145 L18.4596144,4.17540618 C18.4928226,4.17540618 18.5260309,4.17540618 18.5592391,4.17540618 C18.6588638,4.19187747 18.7086762,4.25776264 18.7086762,4.3236478 L18.7086762,21.7173308 C19.7879443,19.3784075 20.0370061,17.8465775 20.3856927,16.9571278 C20.3856927,16.9571278 21.2158989,18.2913024 21.7970432,19.2960511 L21.7970432,0.321124146 C21.7970432,0.238767692 21.7306267,0.156411239 21.6143979,0.123468657 Z" id="shield_l" fill="#9D9D9F"></path>
            </g>
        </g>
    </g>
</svg>