<?xml version="1.0" encoding="UTF-8" standalone="no"?><!DOCTYPE svg PUBLIC "-//W3C//DTD SVG 1.1//EN" "http://www.w3.org/Graphics/SVG/1.1/DTD/svg11.dtd"><svg width="100%" height="100%" viewBox="0 0 262 33" version="1.1" xmlns="http://www.w3.org/2000/svg" xmlns:xlink="http://www.w3.org/1999/xlink" xml:space="preserve" xmlns:serif="http://www.serif.com/" style="fill-rule:evenodd;clip-rule:evenodd;stroke-linejoin:round;stroke-miterlimit:1.41421;"><g id="Group-106"><g id="Welcom-to-SonicWave-Copy-2"><path d="M21.299,7.686c0.065,-0.212 0.179,-0.372 0.343,-0.478c0.163,-0.106 0.343,-0.159 0.539,-0.159c0.261,0 0.486,0.078 0.673,0.233c0.188,0.155 0.282,0.363 0.282,0.624c0,0.115 -0.024,0.245 -0.073,0.392l-5.537,15.606c-0.082,0.229 -0.221,0.405 -0.417,0.527c-0.196,0.123 -0.416,0.184 -0.661,0.184c-0.229,0 -0.441,-0.061 -0.637,-0.184c-0.196,-0.122 -0.335,-0.298 -0.417,-0.527l-4.801,-13.572l-4.851,13.572c-0.082,0.229 -0.221,0.405 -0.417,0.527c-0.196,0.123 -0.408,0.184 -0.637,0.184c-0.228,0 -0.441,-0.061 -0.637,-0.184c-0.196,-0.122 -0.335,-0.298 -0.416,-0.527l-5.562,-15.606c-0.049,-0.13 -0.073,-0.253 -0.073,-0.367c0,-0.261 0.102,-0.474 0.306,-0.637c0.204,-0.163 0.437,-0.245 0.698,-0.245c0.196,0 0.38,0.053 0.552,0.159c0.171,0.106 0.29,0.266 0.355,0.478l4.826,13.915l4.9,-13.768c0.082,-0.245 0.212,-0.429 0.392,-0.551c0.18,-0.123 0.376,-0.184 0.588,-0.184c0.212,0 0.408,0.065 0.588,0.196c0.18,0.131 0.31,0.318 0.392,0.563l4.826,13.793l4.876,-13.964Z" style="fill:#fe791a;fill-rule:nonzero;"/><path d="M33.769,21.699c0.179,0 0.335,0.074 0.465,0.221c0.131,0.147 0.196,0.335 0.196,0.563c0,0.409 -0.286,0.784 -0.857,1.127c-0.588,0.343 -1.209,0.601 -1.862,0.772c-0.653,0.172 -1.29,0.257 -1.911,0.257c-1.846,0 -3.303,-0.547 -4.373,-1.641c-1.07,-1.094 -1.605,-2.605 -1.605,-4.532c0,-1.225 0.237,-2.307 0.711,-3.247c0.473,-0.939 1.139,-1.67 1.996,-2.192c0.858,-0.523 1.834,-0.784 2.928,-0.784c1.552,0 2.785,0.506 3.699,1.519c0.915,1.012 1.372,2.384 1.372,4.116c0,0.326 -0.065,0.563 -0.196,0.71c-0.13,0.147 -0.343,0.221 -0.637,0.221l-7.888,0c0.147,2.809 1.478,4.213 3.993,4.213c0.637,0 1.184,-0.085 1.641,-0.257c0.458,-0.171 0.948,-0.404 1.47,-0.698c0.425,-0.245 0.711,-0.368 0.858,-0.368Zm-4.288,-7.913c-1.045,0 -1.882,0.327 -2.511,0.98c-0.629,0.654 -1,1.576 -1.114,2.769l6.933,0c-0.033,-1.209 -0.335,-2.136 -0.907,-2.781c-0.571,-0.645 -1.372,-0.968 -2.401,-0.968Z" style="fill:#fe791a;fill-rule:nonzero;"/><path d="M38.448,24.59c-0.294,0 -0.535,-0.085 -0.723,-0.257c-0.187,-0.171 -0.281,-0.412 -0.281,-0.723l0,-15.557c0,-0.31 0.094,-0.551 0.281,-0.722c0.188,-0.172 0.429,-0.258 0.723,-0.258c0.278,0 0.51,0.086 0.698,0.258c0.188,0.171 0.282,0.412 0.282,0.722l0,15.557c0,0.311 -0.094,0.552 -0.282,0.723c-0.188,0.172 -0.42,0.257 -0.698,0.257Z" style="fill:#fe791a;fill-rule:nonzero;"/><path d="M48.052,24.639c-1.111,0 -2.095,-0.253 -2.952,-0.759c-0.858,-0.506 -1.519,-1.225 -1.985,-2.156c-0.465,-0.931 -0.698,-2.009 -0.698,-3.234c0,-1.225 0.241,-2.311 0.723,-3.258c0.481,-0.948 1.155,-1.683 2.021,-2.205c0.865,-0.523 1.862,-0.784 2.989,-0.784c0.62,0 1.237,0.086 1.849,0.257c0.613,0.172 1.148,0.421 1.605,0.747c0.294,0.196 0.502,0.388 0.625,0.576c0.122,0.188 0.184,0.396 0.184,0.625c0,0.228 -0.062,0.416 -0.184,0.563c-0.123,0.147 -0.282,0.221 -0.478,0.221c-0.114,0 -0.237,-0.033 -0.367,-0.098c-0.131,-0.066 -0.241,-0.131 -0.331,-0.196c-0.09,-0.066 -0.151,-0.106 -0.184,-0.123c-0.424,-0.277 -0.829,-0.498 -1.213,-0.661c-0.383,-0.164 -0.853,-0.245 -1.408,-0.245c-1.193,0 -2.119,0.404 -2.781,1.212c-0.661,0.809 -0.992,1.932 -0.992,3.369c0,1.437 0.331,2.548 0.992,3.332c0.662,0.784 1.588,1.176 2.781,1.176c0.555,0 1.033,-0.082 1.433,-0.245c0.4,-0.163 0.804,-0.384 1.213,-0.662c0.179,-0.114 0.351,-0.212 0.514,-0.294c0.163,-0.081 0.302,-0.122 0.417,-0.122c0.179,0 0.33,0.073 0.453,0.22c0.122,0.147 0.184,0.335 0.184,0.564c0,0.212 -0.058,0.404 -0.172,0.576c-0.114,0.171 -0.327,0.363 -0.637,0.575c-0.457,0.311 -1.008,0.56 -1.654,0.748c-0.645,0.187 -1.294,0.281 -1.947,0.281Z" style="fill:#fe791a;fill-rule:nonzero;"/><path d="M59.811,24.639c-1.127,0 -2.119,-0.253 -2.976,-0.759c-0.858,-0.506 -1.519,-1.229 -1.985,-2.168c-0.465,-0.939 -0.698,-2.03 -0.698,-3.271c0,-1.241 0.233,-2.331 0.698,-3.271c0.466,-0.939 1.127,-1.661 1.985,-2.168c0.857,-0.506 1.849,-0.759 2.976,-0.759c1.127,0 2.124,0.253 2.989,0.759c0.866,0.507 1.531,1.229 1.997,2.168c0.465,0.94 0.698,2.03 0.698,3.271c0,1.241 -0.233,2.332 -0.698,3.271c-0.466,0.939 -1.131,1.662 -1.997,2.168c-0.865,0.506 -1.862,0.759 -2.989,0.759Zm0,-1.641c1.176,0 2.079,-0.388 2.708,-1.164c0.628,-0.776 0.943,-1.907 0.943,-3.393c0,-1.454 -0.319,-2.576 -0.956,-3.369c-0.637,-0.792 -1.535,-1.188 -2.695,-1.188c-1.159,0 -2.058,0.396 -2.695,1.188c-0.637,0.793 -0.955,1.915 -0.955,3.369c0,1.47 0.314,2.597 0.943,3.381c0.629,0.784 1.531,1.176 2.707,1.176Z" style="fill:#fe791a;fill-rule:nonzero;"/><path d="M81.738,12.243c2.646,0 3.969,1.576 3.969,4.728l0,6.639c0,0.311 -0.09,0.552 -0.27,0.723c-0.179,0.172 -0.416,0.257 -0.71,0.257c-0.294,0 -0.535,-0.085 -0.723,-0.257c-0.188,-0.171 -0.281,-0.412 -0.281,-0.723l0,-6.59c0,-1.094 -0.196,-1.886 -0.588,-2.376c-0.392,-0.49 -1.005,-0.735 -1.838,-0.735c-0.996,0 -1.78,0.335 -2.352,1.004c-0.571,0.67 -0.857,1.576 -0.857,2.72l0,5.977c0,0.311 -0.094,0.552 -0.282,0.723c-0.188,0.172 -0.429,0.257 -0.723,0.257c-0.294,0 -0.531,-0.085 -0.71,-0.257c-0.18,-0.171 -0.27,-0.412 -0.27,-0.723l0,-6.59c0,-1.094 -0.196,-1.886 -0.588,-2.376c-0.392,-0.49 -1.012,-0.735 -1.862,-0.735c-0.98,0 -1.759,0.335 -2.339,1.004c-0.58,0.67 -0.87,1.576 -0.87,2.72l0,5.977c0,0.311 -0.09,0.552 -0.27,0.723c-0.179,0.172 -0.416,0.257 -0.71,0.257c-0.294,0 -0.535,-0.085 -0.723,-0.257c-0.188,-0.171 -0.281,-0.412 -0.281,-0.723l0,-10.338c0,-0.294 0.093,-0.531 0.281,-0.711c0.188,-0.179 0.429,-0.269 0.723,-0.269c0.278,0 0.506,0.086 0.686,0.257c0.18,0.172 0.269,0.404 0.269,0.698l0,1.176c0.36,-0.702 0.858,-1.241 1.495,-1.617c0.637,-0.375 1.372,-0.563 2.205,-0.563c1.862,0 3.079,0.784 3.65,2.352c0.343,-0.719 0.866,-1.291 1.568,-1.715c0.702,-0.425 1.503,-0.637 2.401,-0.637Z" style="fill:#fe791a;fill-rule:nonzero;"/><path d="M98.569,21.699c0.18,0 0.335,0.074 0.465,0.221c0.131,0.147 0.196,0.335 0.196,0.563c0,0.409 -0.285,0.784 -0.857,1.127c-0.588,0.343 -1.209,0.601 -1.862,0.772c-0.653,0.172 -1.29,0.257 -1.911,0.257c-1.845,0 -3.303,-0.547 -4.373,-1.641c-1.07,-1.094 -1.605,-2.605 -1.605,-4.532c0,-1.225 0.237,-2.307 0.711,-3.247c0.473,-0.939 1.139,-1.67 1.997,-2.192c0.857,-0.523 1.833,-0.784 2.927,-0.784c1.552,0 2.785,0.506 3.7,1.519c0.914,1.012 1.371,2.384 1.371,4.116c0,0.326 -0.065,0.563 -0.196,0.71c-0.13,0.147 -0.343,0.221 -0.636,0.221l-7.889,0c0.147,2.809 1.478,4.213 3.993,4.213c0.637,0 1.184,-0.085 1.642,-0.257c0.457,-0.171 0.947,-0.404 1.47,-0.698c0.424,-0.245 0.71,-0.368 0.857,-0.368Zm-4.287,-7.913c-1.046,0 -1.883,0.327 -2.512,0.98c-0.628,0.654 -1,1.576 -1.114,2.769l6.933,0c-0.033,-1.209 -0.335,-2.136 -0.906,-2.781c-0.572,-0.645 -1.372,-0.968 -2.401,-0.968Z" style="fill:#fe791a;fill-rule:nonzero;"/><path d="M114.077,23.022c0.572,0.049 0.857,0.311 0.857,0.784c0,0.278 -0.102,0.486 -0.306,0.625c-0.204,0.139 -0.51,0.192 -0.919,0.159l-0.661,-0.049c-1.307,-0.098 -2.27,-0.49 -2.891,-1.176c-0.621,-0.686 -0.931,-1.723 -0.931,-3.111l0,-6.149l-1.641,0c-0.278,0 -0.494,-0.07 -0.65,-0.208c-0.155,-0.139 -0.232,-0.323 -0.232,-0.552c0,-0.245 0.077,-0.441 0.232,-0.588c0.156,-0.147 0.372,-0.22 0.65,-0.22l1.641,0l0,-2.769c0,-0.31 0.09,-0.551 0.27,-0.722c0.179,-0.172 0.424,-0.258 0.735,-0.258c0.294,0 0.53,0.086 0.71,0.258c0.18,0.171 0.27,0.412 0.27,0.722l0,2.769l2.719,0c0.261,0 0.47,0.073 0.625,0.22c0.155,0.147 0.232,0.343 0.232,0.588c0,0.229 -0.077,0.413 -0.232,0.552c-0.155,0.138 -0.364,0.208 -0.625,0.208l-2.719,0l0,6.247c0,0.898 0.183,1.548 0.551,1.948c0.367,0.4 0.919,0.624 1.653,0.673l0.662,0.049Z" style="fill:#fe791a;fill-rule:nonzero;"/><path d="M121.843,24.639c-1.127,0 -2.119,-0.253 -2.976,-0.759c-0.858,-0.506 -1.519,-1.229 -1.985,-2.168c-0.465,-0.939 -0.698,-2.03 -0.698,-3.271c0,-1.241 0.233,-2.331 0.698,-3.271c0.466,-0.939 1.127,-1.661 1.985,-2.168c0.857,-0.506 1.849,-0.759 2.976,-0.759c1.127,0 2.123,0.253 2.989,0.759c0.866,0.507 1.531,1.229 1.997,2.168c0.465,0.94 0.698,2.03 0.698,3.271c0,1.241 -0.233,2.332 -0.698,3.271c-0.466,0.939 -1.131,1.662 -1.997,2.168c-0.866,0.506 -1.862,0.759 -2.989,0.759Zm0,-1.641c1.176,0 2.079,-0.388 2.707,-1.164c0.629,-0.776 0.944,-1.907 0.944,-3.393c0,-1.454 -0.319,-2.576 -0.956,-3.369c-0.637,-0.792 -1.535,-1.188 -2.695,-1.188c-1.159,0 -2.058,0.396 -2.695,1.188c-0.637,0.793 -0.955,1.915 -0.955,3.369c0,1.47 0.314,2.597 0.943,3.381c0.629,0.784 1.531,1.176 2.707,1.176Z" style="fill:#fe791a;fill-rule:nonzero;"/><path d="M142.618,24.664c-1.224,0 -2.396,-0.184 -3.515,-0.551c-1.119,-0.368 -2.013,-0.862 -2.683,-1.483c-0.245,-0.228 -0.367,-0.514 -0.367,-0.857c0,-0.229 0.065,-0.429 0.196,-0.6c0.13,-0.172 0.286,-0.257 0.465,-0.257c0.212,0 0.441,0.089 0.686,0.269c1.519,1.176 3.25,1.764 5.194,1.764c1.405,0 2.483,-0.27 3.234,-0.809c0.751,-0.539 1.127,-1.306 1.127,-2.302c0,-0.572 -0.18,-1.033 -0.539,-1.385c-0.359,-0.351 -0.833,-0.633 -1.421,-0.845c-0.588,-0.212 -1.38,-0.433 -2.377,-0.661c-1.339,-0.311 -2.437,-0.637 -3.295,-0.98c-0.857,-0.343 -1.551,-0.833 -2.082,-1.47c-0.531,-0.637 -0.796,-1.47 -0.796,-2.499c0,-0.98 0.265,-1.85 0.796,-2.609c0.531,-0.76 1.274,-1.348 2.229,-1.764c0.956,-0.417 2.046,-0.625 3.271,-0.625c1.143,0 2.209,0.176 3.197,0.527c0.988,0.351 1.817,0.853 2.487,1.506c0.261,0.262 0.392,0.548 0.392,0.858c0,0.229 -0.066,0.429 -0.196,0.6c-0.131,0.172 -0.286,0.257 -0.466,0.257c-0.179,0 -0.416,-0.089 -0.71,-0.269c-0.801,-0.653 -1.544,-1.111 -2.23,-1.372c-0.686,-0.261 -1.51,-0.392 -2.474,-0.392c-1.356,0 -2.409,0.282 -3.16,0.845c-0.752,0.564 -1.127,1.352 -1.127,2.364c0,0.866 0.33,1.515 0.992,1.948c0.661,0.433 1.678,0.813 3.05,1.139c1.486,0.36 2.654,0.69 3.503,0.992c0.85,0.303 1.556,0.756 2.12,1.36c0.563,0.604 0.845,1.413 0.845,2.426c0,0.963 -0.266,1.812 -0.796,2.547c-0.531,0.735 -1.279,1.307 -2.242,1.715c-0.964,0.409 -2.066,0.613 -3.308,0.613Z" style="fill:#fe791a;fill-rule:nonzero;"/><path d="M156.877,24.639c-1.127,0 -2.119,-0.253 -2.977,-0.759c-0.857,-0.506 -1.519,-1.229 -1.984,-2.168c-0.466,-0.939 -0.698,-2.03 -0.698,-3.271c0,-1.241 0.232,-2.331 0.698,-3.271c0.465,-0.939 1.127,-1.661 1.984,-2.168c0.858,-0.506 1.85,-0.759 2.977,-0.759c1.127,0 2.123,0.253 2.989,0.759c0.866,0.507 1.531,1.229 1.997,2.168c0.465,0.94 0.698,2.03 0.698,3.271c0,1.241 -0.233,2.332 -0.698,3.271c-0.466,0.939 -1.131,1.662 -1.997,2.168c-0.866,0.506 -1.862,0.759 -2.989,0.759Zm0,-1.641c1.176,0 2.078,-0.388 2.707,-1.164c0.629,-0.776 0.943,-1.907 0.943,-3.393c0,-1.454 -0.318,-2.576 -0.955,-3.369c-0.637,-0.792 -1.535,-1.188 -2.695,-1.188c-1.16,0 -2.058,0.396 -2.695,1.188c-0.637,0.793 -0.955,1.915 -0.955,3.369c0,1.47 0.314,2.597 0.943,3.381c0.629,0.784 1.531,1.176 2.707,1.176Z" style="fill:#fe791a;fill-rule:nonzero;"/><path d="M171.527,12.243c2.859,0 4.288,1.576 4.288,4.728l0,6.639c0,0.311 -0.086,0.552 -0.257,0.723c-0.172,0.172 -0.413,0.257 -0.723,0.257c-0.31,0 -0.555,-0.085 -0.735,-0.257c-0.18,-0.171 -0.27,-0.412 -0.27,-0.723l0,-6.516c0,-1.111 -0.216,-1.919 -0.649,-2.426c-0.433,-0.506 -1.123,-0.759 -2.07,-0.759c-1.094,0 -1.968,0.335 -2.621,1.004c-0.654,0.67 -0.98,1.576 -0.98,2.72l0,5.977c0,0.311 -0.086,0.552 -0.258,0.723c-0.171,0.172 -0.412,0.257 -0.722,0.257c-0.311,0 -0.556,-0.085 -0.735,-0.257c-0.18,-0.171 -0.27,-0.412 -0.27,-0.723l0,-10.338c0,-0.294 0.09,-0.531 0.27,-0.711c0.179,-0.179 0.424,-0.269 0.735,-0.269c0.294,0 0.526,0.09 0.698,0.269c0.171,0.18 0.257,0.409 0.257,0.686l0,1.25c0.392,-0.735 0.939,-1.295 1.642,-1.678c0.702,-0.384 1.502,-0.576 2.4,-0.576Z" style="fill:#fe791a;fill-rule:nonzero;"/><path d="M180.445,24.59c-0.294,0 -0.535,-0.085 -0.723,-0.257c-0.187,-0.171 -0.281,-0.412 -0.281,-0.723l0,-10.338c0,-0.311 0.094,-0.551 0.281,-0.723c0.188,-0.171 0.429,-0.257 0.723,-0.257c0.294,0 0.531,0.086 0.711,0.257c0.179,0.172 0.269,0.412 0.269,0.723l0,10.338c0,0.327 -0.09,0.572 -0.269,0.735c-0.18,0.164 -0.417,0.245 -0.711,0.245Zm0,-14.871c-0.392,0 -0.71,-0.114 -0.955,-0.343c-0.245,-0.228 -0.368,-0.53 -0.368,-0.906c0,-0.359 0.123,-0.653 0.368,-0.882c0.245,-0.229 0.563,-0.343 0.955,-0.343c0.392,0 0.711,0.114 0.956,0.343c0.245,0.229 0.367,0.523 0.367,0.882c0,0.376 -0.122,0.678 -0.367,0.906c-0.245,0.229 -0.564,0.343 -0.956,0.343Z" style="fill:#fe791a;fill-rule:nonzero;"/><path d="M190.049,24.639c-1.111,0 -2.095,-0.253 -2.952,-0.759c-0.858,-0.506 -1.519,-1.225 -1.985,-2.156c-0.465,-0.931 -0.698,-2.009 -0.698,-3.234c0,-1.225 0.241,-2.311 0.723,-3.258c0.482,-0.948 1.155,-1.683 2.021,-2.205c0.866,-0.523 1.862,-0.784 2.989,-0.784c0.62,0 1.237,0.086 1.849,0.257c0.613,0.172 1.148,0.421 1.605,0.747c0.294,0.196 0.502,0.388 0.625,0.576c0.122,0.188 0.184,0.396 0.184,0.625c0,0.228 -0.062,0.416 -0.184,0.563c-0.123,0.147 -0.282,0.221 -0.478,0.221c-0.114,0 -0.237,-0.033 -0.367,-0.098c-0.131,-0.066 -0.241,-0.131 -0.331,-0.196c-0.09,-0.066 -0.151,-0.106 -0.184,-0.123c-0.424,-0.277 -0.829,-0.498 -1.212,-0.661c-0.384,-0.164 -0.854,-0.245 -1.409,-0.245c-1.192,0 -2.119,0.404 -2.781,1.212c-0.661,0.809 -0.992,1.932 -0.992,3.369c0,1.437 0.331,2.548 0.992,3.332c0.662,0.784 1.589,1.176 2.781,1.176c0.555,0 1.033,-0.082 1.433,-0.245c0.4,-0.163 0.804,-0.384 1.213,-0.662c0.179,-0.114 0.351,-0.212 0.514,-0.294c0.164,-0.081 0.302,-0.122 0.417,-0.122c0.179,0 0.33,0.073 0.453,0.22c0.122,0.147 0.184,0.335 0.184,0.564c0,0.212 -0.058,0.404 -0.172,0.576c-0.114,0.171 -0.326,0.363 -0.637,0.575c-0.457,0.311 -1.008,0.56 -1.654,0.748c-0.645,0.187 -1.294,0.281 -1.947,0.281Z" style="fill:#fe791a;fill-rule:nonzero;"/><path d="M219.227,7.686c0.066,-0.212 0.18,-0.372 0.343,-0.478c0.164,-0.106 0.343,-0.159 0.539,-0.159c0.262,0 0.486,0.078 0.674,0.233c0.188,0.155 0.282,0.363 0.282,0.624c0,0.115 -0.025,0.245 -0.074,0.392l-5.537,15.606c-0.081,0.229 -0.22,0.405 -0.416,0.527c-0.196,0.123 -0.417,0.184 -0.662,0.184c-0.228,0 -0.441,-0.061 -0.637,-0.184c-0.196,-0.122 -0.334,-0.298 -0.416,-0.527l-4.802,-13.572l-4.851,13.572c-0.081,0.229 -0.22,0.405 -0.416,0.527c-0.196,0.123 -0.408,0.184 -0.637,0.184c-0.229,0 -0.441,-0.061 -0.637,-0.184c-0.196,-0.122 -0.335,-0.298 -0.417,-0.527l-5.561,-15.606c-0.049,-0.13 -0.073,-0.253 -0.073,-0.367c0,-0.261 0.102,-0.474 0.306,-0.637c0.204,-0.163 0.437,-0.245 0.698,-0.245c0.196,0 0.38,0.053 0.551,0.159c0.172,0.106 0.29,0.266 0.356,0.478l4.826,13.915l4.9,-13.768c0.081,-0.245 0.212,-0.429 0.392,-0.551c0.179,-0.123 0.375,-0.184 0.588,-0.184c0.212,0 0.408,0.065 0.588,0.196c0.179,0.131 0.31,0.318 0.392,0.563l4.826,13.793l4.875,-13.964Z" style="fill:#fe791a;fill-rule:nonzero;"/><path d="M224.838,24.59c-0.294,0 -0.535,-0.085 -0.723,-0.257c-0.188,-0.171 -0.282,-0.412 -0.282,-0.723l0,-10.338c0,-0.311 0.094,-0.551 0.282,-0.723c0.188,-0.171 0.429,-0.257 0.723,-0.257c0.294,0 0.53,0.086 0.71,0.257c0.18,0.172 0.27,0.412 0.27,0.723l0,10.338c0,0.327 -0.09,0.572 -0.27,0.735c-0.18,0.164 -0.416,0.245 -0.71,0.245Zm0,-14.871c-0.392,0 -0.711,-0.114 -0.956,-0.343c-0.245,-0.228 -0.367,-0.53 -0.367,-0.906c0,-0.359 0.122,-0.653 0.367,-0.882c0.245,-0.229 0.564,-0.343 0.956,-0.343c0.392,0 0.71,0.114 0.955,0.343c0.245,0.229 0.368,0.523 0.368,0.882c0,0.376 -0.123,0.678 -0.368,0.906c-0.245,0.229 -0.563,0.343 -0.955,0.343Z" style="fill:#fe791a;fill-rule:nonzero;"/><path d="M230.815,24.59c-0.31,0 -0.555,-0.094 -0.735,-0.281c-0.179,-0.188 -0.269,-0.437 -0.269,-0.748l0,-15.385c0,-0.294 0.094,-0.531 0.282,-0.711c0.188,-0.179 0.437,-0.269 0.747,-0.269l8.918,0c0.294,0 0.522,0.073 0.686,0.22c0.163,0.147 0.245,0.36 0.245,0.637c0,0.262 -0.082,0.466 -0.245,0.613c-0.164,0.147 -0.392,0.22 -0.686,0.22l-7.963,0l0,5.954l7.473,0c0.294,0 0.522,0.073 0.686,0.22c0.163,0.147 0.245,0.36 0.245,0.637c0,0.262 -0.082,0.466 -0.245,0.613c-0.164,0.147 -0.392,0.22 -0.686,0.22l-7.473,0l0,7.031c0,0.311 -0.085,0.56 -0.257,0.748c-0.171,0.187 -0.412,0.281 -0.723,0.281Z" style="fill:#fe791a;fill-rule:nonzero;"/><path d="M244.167,24.59c-0.294,0 -0.534,-0.085 -0.722,-0.257c-0.188,-0.171 -0.282,-0.412 -0.282,-0.723l0,-10.338c0,-0.311 0.094,-0.551 0.282,-0.723c0.188,-0.171 0.428,-0.257 0.722,-0.257c0.294,0 0.531,0.086 0.711,0.257c0.18,0.172 0.269,0.412 0.269,0.723l0,10.338c0,0.327 -0.089,0.572 -0.269,0.735c-0.18,0.164 -0.417,0.245 -0.711,0.245Zm0,-14.871c-0.392,0 -0.71,-0.114 -0.955,-0.343c-0.245,-0.228 -0.368,-0.53 -0.368,-0.906c0,-0.359 0.123,-0.653 0.368,-0.882c0.245,-0.229 0.563,-0.343 0.955,-0.343c0.392,0 0.711,0.114 0.956,0.343c0.245,0.229 0.367,0.523 0.367,0.882c0,0.376 -0.122,0.678 -0.367,0.906c-0.245,0.229 -0.564,0.343 -0.956,0.343Z" style="fill:#fe791a;fill-rule:nonzero;"/></g></g></svg>