<?xml version="1.0" encoding="UTF-8"?>
<svg width="24px" height="19px" viewBox="0 0 24 19" version="1.1" xmlns="http://www.w3.org/2000/svg" xmlns:xlink="http://www.w3.org/1999/xlink">
    <!-- Generator: Sketch 52.5 (67469) - http://www.bohemiancoding.com/sketch -->
    <title>WiFi1 Copy 4</title>
    <desc>Created with Sketch.</desc>
    <g id="Page-1" stroke="none" stroke-width="1" fill="none" fill-rule="evenodd">
        <g id="Group-85" fill="#47AFE8">
            <g id="WiFi1-Copy-4">
                <path d="M11.8671041,14.5813953 C13.074247,14.5813953 14.0510327,15.566061 14.0510327,16.7851709 C14.0510327,18.000674 13.074247,18.9853397 11.8671041,18.9853397 C10.661747,18.9853397 9.68674699,18.000674 9.68674699,16.7851709 C9.68674699,15.566061 10.661747,14.5813953 11.8671041,14.5813953" id="Fill-56"></path>
                <path d="M7.04279977,11.7858427 C7.04279977,11.7858427 6.48565691,12.4711412 7.04279977,13.0320038 C7.59994263,13.5964734 8.27315691,13.0320038 8.27315691,13.0320038 C9.22494263,12.0761928 10.5320855,11.4828686 11.9785141,11.4828686 C13.4231569,11.4828686 14.7356569,12.0761928 15.6838712,13.0320038 C15.6838712,13.0320038 16.3606569,13.5928665 16.9142283,13.0320038 C17.4695855,12.4711412 16.9142283,11.7876461 16.9142283,11.7876461 C15.6517283,10.5090235 13.9088712,9.72093023 11.9785141,9.72093023 C10.0517283,9.72093023 8.30529977,10.5090235 7.04279977,11.7858427" id="Fill-58"></path>
                <path d="M3.5705393,8.34647018 C3.5705393,8.34647018 3.01875359,9.07685406 3.5705393,9.63050308 C4.1205393,10.1841521 4.84375359,9.63050308 4.84375359,9.63050308 C6.65089644,7.8072485 9.1455393,6.67830945 11.9026822,6.67830945 C14.6580393,6.67830945 17.1544679,7.80544508 18.959825,9.63050308 C18.959825,9.63050308 19.6544679,10.2148102 20.2330393,9.63050308 C20.809825,9.04619597 20.2330393,8.34647018 20.2330393,8.34647018 C18.1044679,6.19138686 15.1562536,4.86046512 11.9026822,4.86046512 C8.64911073,4.86046512 5.70268216,6.19138686 3.5705393,8.34647018" id="Fill-60"></path>
                <path d="M11.9613095,1.76193841 C16.0577381,1.76193841 19.7684524,3.44091964 22.4541667,6.15145539 C22.4541667,6.15145539 23.0934524,6.76642059 23.6880952,6.16948956 C24.2791667,5.57255853 23.6880952,4.90349082 23.6880952,4.90349082 C20.6880952,1.87375026 16.539881,2.84217094e-14 11.9613095,2.84217094e-14 C7.38452381,2.84217094e-14 3.23809524,1.87375026 0.238095238,4.90349082 C0.238095238,4.90349082 -0.297619048,5.62846446 0.238095238,6.16948956 C0.77202381,6.71051466 1.4702381,6.15145539 1.4702381,6.15145539 C4.15416667,3.44091964 7.86488095,1.76193841 11.9613095,1.76193841" id="Fill-62"></path>
            </g>
        </g>
    </g>
</svg>