<?xml version="1.0" encoding="UTF-8"?>
<svg width="20px" height="18px" viewBox="0 0 20 18" version="1.1" xmlns="http://www.w3.org/2000/svg" xmlns:xlink="http://www.w3.org/1999/xlink">
    <!-- Generator: Sketch 52.5 (67469) - http://www.bohemiancoding.com/sketch -->
    <title>Wireless_up Copy 2</title>
    <desc>Created with Sketch.</desc>
    <g id="Page-1" stroke="none" stroke-width="1" fill="none" fill-rule="evenodd">
        <g id="Group-85" transform="translate(-2.000000, -19.000000)" fill="#FE791A">
            <path d="M18.1343454,35.6862688 L13.9582543,35.6862688 C13.6971537,35.353507 13.2895636,35.1381906 12.8318786,35.1381906 L11.1666034,35.1381906 C10.7096774,35.1381906 10.3020873,35.353507 10.0409867,35.6862688 L5.88083491,35.6862688 C5.4686907,35.6862688 5.11347249,35.415994 4.9943074,35.0297796 L5.37381404,35.0297796 C5.74041746,35.0297796 6.03719165,34.7361663 6.03719165,34.3732904 C6.03719165,34.0096616 5.74041746,33.7160483 5.37381404,33.7160483 L4.80607211,33.7160483 L4.73624288,33.1920616 L7.57874763,33.1920616 L7.57874763,33.7710067 C7.57874763,34.2731607 7.98254269,34.6812079 8.48425047,34.6985236 C8.59886148,34.8957715 8.8113852,35.0297796 9.05654649,35.0297796 L9.07476281,35.0297796 C9.44136622,35.0297796 9.72903226,34.7361663 9.72903226,34.3732904 C9.72903226,34.0096616 9.42239089,33.7160483 9.05654649,33.7160483 C8.81518027,33.7160483 8.60493359,33.847045 8.49032258,34.039023 C8.34990512,34.0254716 8.24136622,33.9125434 8.24136622,33.7710067 L8.24136622,33.1920616 L15.7578748,33.1920616 L15.7578748,33.7710067 C15.7578748,33.9125434 15.6485769,34.0254716 15.5104364,34.039023 C15.3950664,33.847045 15.1840607,33.7160483 14.9426945,33.7160483 L14.9244782,33.7160483 C14.5578748,33.7160483 14.2702087,34.0096616 14.2702087,34.3732904 C14.2702087,34.7361663 14.5768501,35.0297796 14.9426945,35.0297796 C15.1878558,35.0297796 15.3996205,34.8957715 15.5149905,34.6985236 C16.0174573,34.6812079 16.4204934,34.2731607 16.4204934,33.7710067 L16.4204934,33.1920616 L19.2804554,33.1920616 L19.2106262,33.7160483 L18.6246679,33.7160483 C18.2588235,33.7160483 17.9628083,34.0096616 17.9628083,34.3732904 C17.9628083,34.7361663 18.2588235,35.0297796 18.6246679,35.0297796 L19.0223909,35.0297796 C18.9070209,35.4129826 18.5502846,35.6862688 18.1343454,35.6862688 Z M4.87817837,32.0989167 L4.8857685,32.0635326 C4.96470588,31.6253712 5.3487666,31.3076666 5.79810247,31.3076666 L7.24705882,31.3076666 L7.24705882,31.5267472 C7.24705882,31.7699193 7.38140417,31.9792128 7.57874763,32.0928939 L7.57874763,32.5348195 L4.77343454,32.5348195 L4.87817837,32.0989167 Z M15.428463,31.3076666 L15.428463,31.5267472 C15.428463,31.7699193 15.5605313,31.9792128 15.7578748,32.0928939 L15.7578748,32.5348195 L8.24136622,32.5348195 L8.24136622,32.0928939 C8.43795066,31.9792128 8.571537,31.7699193 8.571537,31.5267472 L8.571537,31.3076666 L15.428463,31.3076666 Z M18.2178368,31.3076666 C18.6671727,31.3076666 19.0504744,31.6253712 19.1301708,32.0635326 L19.2432638,32.5348195 L16.4204934,32.5348195 L16.4204934,32.0928939 C16.6185958,31.9792128 16.7529412,31.7699193 16.7529412,31.5267472 L16.7529412,31.3076666 L18.2178368,31.3076666 Z M21.3373814,21.1915597 C20.970778,21.1915597 20.6755218,21.4851729 20.6755218,21.8480489 L20.6755218,31.5267472 C20.6755218,31.7699193 20.8083491,31.9792128 21.0056926,32.0928939 L21.0056926,33.7710067 C21.0056926,33.9215776 20.8819734,34.0442929 20.7301708,34.0442929 L20.5017078,34.0442929 L20.6178368,33.1739931 C20.6451613,32.9549124 20.6375712,32.7335731 20.5981025,32.5159982 L20.4303605,31.8120791 C20.229981,30.7573299 19.3024668,29.9931825 18.2178368,29.9931825 L16.7529412,29.9931825 L16.7529412,19.657242 C16.7529412,19.2943661 16.455408,19 16.0903226,19 C15.7229602,19 15.428463,19.2943661 15.428463,19.657242 L15.428463,29.9931825 L8.571537,29.9931825 L8.571537,19.657242 C8.571537,19.2943661 8.27628083,19 7.90891841,19 C7.54383302,19 7.24705882,19.2943661 7.24705882,19.657242 L7.24705882,29.9931825 L5.79810247,29.9931825 C4.7142315,29.9931825 3.78747628,30.7573299 3.58557875,31.8120791 L3.42466793,32.480614 L3.41783681,32.5159982 C3.37836812,32.7335731 3.37229602,32.9556652 3.39962049,33.1837802 L3.51347249,34.0442929 L3.26907021,34.0442929 C3.11726755,34.0442929 2.99354839,33.9215776 2.99354839,33.7710067 L2.99354839,32.0928939 C3.19089184,31.9792128 3.32447818,31.7699193 3.32447818,31.5267472 L3.32447818,21.8480489 C3.32447818,21.4851729 3.028463,21.1915597 2.66185958,21.1915597 C2.29677419,21.1915597 2,21.4851729 2,21.8480489 L2,31.5267472 C2,31.7699193 2.13434535,31.9792128 2.3316888,32.0928939 L2.3316888,33.7710067 C2.3316888,34.2844536 2.75142315,34.7007821 3.26907021,34.7007821 L3.60227704,34.7007821 L3.64478178,35.0297796 C3.78064516,36.1530386 4.74079696,37 5.88083491,37 L18.1343454,37 C19.2743833,37 20.2368121,36.1530386 20.3688805,35.038061 L20.4144213,34.7007821 L20.7301708,34.7007821 C21.2478178,34.7007821 21.6683112,34.2844536 21.6683112,33.7710067 L21.6683112,32.0928939 C21.8648956,31.9792128 22,31.7699193 22,31.5267472 L22,21.8480489 C22,21.4851729 21.7024668,21.1915597 21.3373814,21.1915597 Z" id="Wireless_up-Copy-2"></path>
        </g>
    </g>
</svg>