<?xml version="1.0" encoding="UTF-8"?>
<svg width="48px" height="48px" viewBox="0 0 48 48" version="1.1" xmlns="http://www.w3.org/2000/svg" xmlns:xlink="http://www.w3.org/1999/xlink">
    <!-- Generator: Sketch 51.3 (57544) - http://www.bohemiancoding.com/sketch -->
    <title>Wireless - Color - OnWhite</title>
    <desc>Created with Sketch.</desc>
    <defs></defs>
    <g id="Wireless---Color---OnWhite" stroke="none" stroke-width="1" fill="none" fill-rule="evenodd">
        <g id="Group" transform="translate(0.000000, 3.000000)">
            <path d="M23.8518758,22.7665492 C23.8518758,22.7665492 17.8099468,20.5667713 16.4778388,16.9063708 C14.9861746,12.8088557 20.5165698,11.8735212 26.1736558,12.0364677 C29.2221848,12.1243731 32.9478996,12.5931123 32.9478996,12.5931123 C32.9478996,12.5931123 24.1455438,13.7265018 20.9647582,16.3218538 C17.8589798,18.8563689 23.8518758,22.7665492 23.8518758,22.7665492" id="Fill-1" fill="#FF6C0C"></path>
            <path d="M40.9130044,32.4142697 L37.9341127,29.435378 C45.1790165,22.1904741 45.1769722,10.4421197 37.9295465,3.19469401 L40.9074016,0.216838866 C49.8000238,9.10946102 49.8025322,23.5247418 40.9130044,32.4142697 Z" id="Oval-6" fill="#FF8D20" fill-rule="nonzero"></path>
            <path d="M35.0140736,26.5173911 L32.0351819,23.5384994 C36.0238964,19.5497849 36.0227709,13.0816754 32.032668,9.09157253 L35.0105231,6.11371739 C40.6458225,11.7490167 40.6474121,20.8840526 35.0140736,26.5173911 Z" id="Oval-6" fill="#FF6C0B" fill-rule="nonzero"></path>
            <path d="M7.05742898,32.4128302 C-1.83209887,23.5233023 -1.82959044,9.10802153 7.06303172,0.215399372 L10.0408869,3.19325452 C2.79346116,10.4406802 2.79141681,22.1890346 10.0363207,29.4339385 L7.05742898,32.4128302 Z" id="Oval-6" fill="#FF8D20" fill-rule="nonzero"></path>
            <path d="M12.3244414,26.5159516 C6.69110291,20.8826132 6.69269252,11.7475773 12.3279919,6.11227789 L15.305847,9.09013304 C11.3157441,13.0802359 11.3146186,19.5483454 15.3033331,23.5370599 L12.3244414,26.5159516 Z" id="Oval-6" fill="#FF6C0B" fill-rule="nonzero"></path>
            <path d="M26.094952,33.3932669 C26.100049,33.5368932 26.105048,33.6758512 26.109949,33.8110348 L39.2506576,33.8110348 C39.8192117,33.8110348 40.2801158,34.2719389 40.2801158,34.840493 L40.2801158,39.9705417 C40.2801158,40.5390958 39.8192117,41 39.2506576,41 L8.90817283,41 C8.33961873,41 7.87871457,40.5390958 7.87871457,39.9705417 L7.87871457,34.840493 C7.87871457,34.2719389 8.33961873,33.8110348 8.90817283,33.8110348 L22.0486853,33.8110348 C22.0535863,33.6758512 22.0585854,33.5366946 22.0637804,33.3932669 C22.1220043,31.6902121 22.1997342,29.4195054 22.277268,27.1486001 C22.3020758,26.408757 22.3345259,25.4408937 22.374621,24.2450104 C22.4054398,23.32574 23.1595792,22.5964596 24.0793662,22.5964596 C24.9991531,22.5964596 25.7532926,23.32574 25.7841141,24.2450104 C25.8242065,25.4408937 25.8566565,26.408757 25.8814643,27.1486001 C25.9590962,29.4195054 26.03663,31.6902121 26.094952,33.3932669 Z" id="Shape" fill="#80808A" fill-rule="nonzero"></path>
            <path d="M24.0794152,41 L24.0794152,22.5970127 C24.0939619,22.5966447 24.1085528,22.5964596 24.1231858,22.5964596 C25.040481,22.5964596 25.7925549,23.3238084 25.8232072,24.2405914 L25.8231751,24.2405924 C25.863227,25.4385102 25.8956385,26.4078461 25.9204097,27.1486001 C25.9978315,29.4195054 26.0751557,31.6902121 26.1333198,33.3932669 C26.1384031,33.5368932 26.1433886,33.6758512 26.1482763,33.8110348 L39.2506576,33.8110348 C39.8192117,33.8110348 40.2801158,34.2719389 40.2801158,34.840493 L40.2801158,39.9705417 C40.2801158,40.5390958 39.8192117,41 39.2506576,41 L24.0794152,41 Z" id="Combined-Shape" fill="#53535A" fill-rule="nonzero"></path>
        </g>
    </g>
</svg>