<?xml version="1.0" encoding="UTF-8"?>
<svg width="41px" height="90px" viewBox="0 0 41 90" version="1.1" xmlns="http://www.w3.org/2000/svg" xmlns:xlink="http://www.w3.org/1999/xlink">
    <!-- Generator: Sketch 52.5 (67469) - http://www.bohemiancoding.com/sketch -->
    <title>wire</title>
    <desc>Created with Sketch.</desc>
    <g id="Page-1" stroke="none" stroke-width="1" fill="none" fill-rule="evenodd">
        <g id="Artboard-Copy-55" transform="translate(-668.000000, -379.000000)">
            <g id="wire" transform="translate(668.000000, 379.000000)">
                <path d="M28.7158397,33.2035776 L28.7158397,56.8122221 C27.8520005,72.4310371 18.5636783,82.7916407 0.850873299,87.8940329" id="Path-6" stroke="#979797" stroke-width="4"></path>
                <path d="M22.4953059,15.3892317 L35.2266757,21.3473792 C35.648524,21.5447998 35.9180329,21.968489 35.9180329,22.4342474 L35.9180329,29.3176405 C35.9180329,29.7619342 35.6725513,30.1698678 35.2799855,30.3779278 L22.5486157,37.1255577 C21.9630351,37.4359156 21.2367336,37.2128035 20.9263757,36.627223 C20.8346304,36.4541187 20.786663,36.2611843 20.786663,36.0652703 L20.786663,16.4760999 C20.786663,15.8133582 21.3239213,15.2760999 21.986663,15.2760999 C22.1624504,15.2760999 22.3360912,15.3147209 22.4953059,15.3892317 Z" id="Rectangle-2" fill="#666666" transform="translate(28.352348, 26.270805) rotate(90.000000) translate(-28.352348, -26.270805) "></path>
                <path d="M23.1304671,17.1889645 L18.1653295,17.1889645 C17.5025878,17.1889645 16.9653295,16.6517062 16.9653295,15.9889645 L16.9653295,9.30381151 C16.9653295,8.64106981 17.5025878,8.10381151 18.1653295,8.10381151 L23.1304671,8.10381151 L23.1304671,2.11115096 C23.1304671,1.44840926 23.6677254,0.911150958 24.3304671,0.911150958 L39.2491559,0.911150958 C39.9118976,0.911150958 40.4491559,1.44840926 40.4491559,2.11115096 L40.4491559,23.2752879 C40.4491559,23.9380296 39.9118976,24.4752879 39.2491559,24.4752879 L24.3304671,24.4752879 C23.6677254,24.4752879 23.1304671,23.9380296 23.1304671,23.2752879 L23.1304671,17.1889645 Z" id="Combined-Shape" fill="#777777" transform="translate(28.707243, 12.693219) rotate(90.000000) translate(-28.707243, -12.693219) "></path>
            </g>
        </g>
    </g>
</svg>