<?xml version="1.0" encoding="UTF-8"?>
<svg width="36px" height="37px" viewBox="0 0 36 37" version="1.1" xmlns="http://www.w3.org/2000/svg" xmlns:xlink="http://www.w3.org/1999/xlink">
    <!-- Generator: Sketch 52.5 (67469) - http://www.bohemiancoding.com/sketch -->
    <title>юда</title>
    <desc>Created with Sketch.</desc>
    <g id="Page-1" stroke="none" stroke-width="1" fill="none" fill-rule="evenodd">
        <g id="Icons" transform="translate(-822.000000, -162.000000)" fill="#E90276">
            <path d="M838.136719,187.105469 L849.421875,187.105469 L849.421875,188.054688 L839.894531,188.054688 L839.894531,188.898438 L844.289062,188.898438 L844.289062,193.328125 L839.894531,193.328125 L839.894531,194.136719 L847.417969,194.136719 C845.800773,195.472663 844.277351,196.492184 842.847656,197.195312 C841.417962,197.898441 840.468752,198.25 840,198.25 L839.859375,198.25 C839.367185,198.203125 838.558599,197.910159 837.433594,197.371094 C836.332026,196.855466 835.130866,196.123052 833.830078,195.173828 C832.52929,194.224605 831.2461,193.070319 829.980469,191.710938 C828.738275,190.351556 827.707035,188.816415 826.886719,187.105469 L828.679688,187.105469 C829.031252,187.738284 829.417967,188.341794 829.839844,188.916016 C830.261721,189.490237 830.683592,190.011716 831.105469,190.480469 C832.300787,191.816413 833.624993,192.947261 835.078125,193.873047 C836.531257,194.798833 837.550778,195.285156 838.136719,195.332031 L838.136719,187.105469 Z M844.289062,172.304688 L838.136719,172.304688 L838.136719,165.0625 L827.273438,168.753906 L827.273438,172.304688 L825.410156,172.304688 L825.410156,167.242188 L839.859375,162.25 L839.859375,167.101562 L844.289062,167.101562 L844.289062,172.304688 Z M826.992188,189.179688 L822.351562,187.140625 L825.867188,187.140625 L826.992188,189.179688 Z M852.972656,189.179688 L854.097656,187.140625 L857.648438,187.140625 L852.972656,189.179688 Z M845.097656,188.898438 L852.128906,188.898438 C851.589841,189.742192 850.99805,190.533199 850.353516,191.271484 C849.708981,192.009769 849.03516,192.695309 848.332031,193.328125 L845.097656,193.328125 L845.097656,188.898438 Z M854.378906,167.101562 C854.449219,167.101562 854.501953,167.11914 854.537109,167.154297 C854.572266,167.189453 854.589844,167.230469 854.589844,167.277344 L854.589844,172.304688 L845.132812,172.304688 L845.132812,167.101562 L854.378906,167.101562 Z M850.265625,187.105469 L853.113281,187.105469 C853.042968,187.269532 852.966797,187.433593 852.884766,187.597656 C852.802734,187.76172 852.714844,187.914062 852.621094,188.054688 L850.265625,188.054688 L850.265625,187.105469 Z M841.898438,177.191406 L842.988281,179.96875 C842.894531,179.96875 842.806641,179.962891 842.724609,179.951172 C842.642578,179.939453 842.554688,179.933594 842.460938,179.933594 L841.599609,179.933594 C841.306639,179.933594 841.031251,179.945312 840.773438,179.96875 L841.898438,177.191406 Z M857.648438,173.007812 L857.648438,186.402344 L822.351562,186.402344 L822.351562,173.007812 L857.648438,173.007812 Z M836.449219,182.570312 L838.523438,176.066406 L837.1875,176.066406 L835.78125,181.023438 L835.746094,181.023438 L834.304688,176.066406 L832.96875,176.066406 L831.457031,181.023438 L830.085938,176.066406 L828.785156,176.066406 L830.71875,182.570312 L832.054688,182.570312 L833.601562,177.613281 L833.636719,177.613281 L835.113281,182.570312 L836.449219,182.570312 Z M844.394531,180.425781 C844.816408,180.355468 845.156249,180.302735 845.414062,180.267578 L845.800781,180.214844 L845.361328,180.162109 C845.068358,180.126953 844.699221,180.085938 844.253906,180.039062 L842.496094,176.066406 L841.089844,176.066406 L839.296875,180.109375 C838.570309,180.273438 838.007814,180.531248 837.609375,180.882812 C837.210936,181.234377 837.128905,181.738278 837.363281,182.394531 C837.621095,183.050785 838.101559,183.613279 838.804688,184.082031 C839.507816,184.550784 840.093748,184.890624 840.5625,185.101562 C840.445312,184.960937 840.339844,184.832032 840.246094,184.714844 L839.964844,184.363281 C839.660155,184.035155 839.425782,183.666018 839.261719,183.255859 C839.097655,182.845701 839.238279,182.453127 839.683594,182.078125 C840.058596,181.773436 840.574215,181.503907 841.230469,181.269531 C841.886722,181.035155 842.542965,180.847657 843.199219,180.707031 L843.9375,182.570312 L845.34375,182.570312 L844.394531,180.425781 Z M851.214844,176.066406 L846.046875,176.066406 L846.046875,182.570312 L847.347656,182.570312 L847.347656,179.6875 L850.757812,179.6875 L850.757812,178.773438 L847.347656,178.773438 L847.347656,177.050781 L851.214844,177.050781 L851.214844,176.066406 Z" id="юда"></path>
        </g>
    </g>
</svg>