<?xml version="1.0" encoding="UTF-8" standalone="no"?><!DOCTYPE svg PUBLIC "-//W3C//DTD SVG 1.1//EN" "http://www.w3.org/Graphics/SVG/1.1/DTD/svg11.dtd"><svg width="100%" height="100%" viewBox="0 0 60 14" version="1.1" xmlns="http://www.w3.org/2000/svg" xmlns:xlink="http://www.w3.org/1999/xlink" xml:space="preserve" xmlns:serif="http://www.serif.com/" style="fill-rule:evenodd;clip-rule:evenodd;stroke-linejoin:round;stroke-miterlimit:1.41421;"><g transform="matrix(1,0,0,1,-495,-693)"><g transform="matrix(1,0,0,1,-1,-14)"><g transform="matrix(1,0,0,1,495,720)"><g id="CLOUD"><path d="M3.834,-0.639C2.934,-1.161 2.244,-1.911 1.764,-2.889C1.284,-3.867 1.044,-5.022 1.044,-6.354C1.044,-7.674 1.284,-8.823 1.764,-9.801C2.244,-10.779 2.934,-11.529 3.834,-12.051C4.734,-12.573 5.79,-12.834 7.002,-12.834C7.794,-12.834 8.544,-12.711 9.252,-12.465C9.96,-12.219 10.578,-11.862 11.106,-11.394C11.334,-11.214 11.448,-10.974 11.448,-10.674C11.448,-10.458 11.388,-10.275 11.268,-10.125C11.148,-9.975 11.004,-9.9 10.836,-9.9C10.632,-9.9 10.434,-9.978 10.242,-10.134C9.666,-10.566 9.141,-10.869 8.667,-11.043C8.193,-11.217 7.656,-11.304 7.056,-11.304C5.736,-11.304 4.722,-10.878 4.014,-10.026C3.306,-9.174 2.952,-7.95 2.952,-6.354C2.952,-4.746 3.306,-3.516 4.014,-2.664C4.722,-1.812 5.736,-1.386 7.056,-1.386C7.632,-1.386 8.157,-1.476 8.631,-1.656C9.105,-1.836 9.642,-2.136 10.242,-2.556C10.482,-2.712 10.68,-2.79 10.836,-2.79C11.004,-2.79 11.148,-2.715 11.268,-2.565C11.388,-2.415 11.448,-2.232 11.448,-2.016C11.448,-1.716 11.334,-1.476 11.106,-1.296C10.578,-0.828 9.96,-0.471 9.252,-0.225C8.544,0.021 7.794,0.144 7.002,0.144C5.79,0.144 4.734,-0.117 3.834,-0.639Z" style="fill-rule:nonzero;"/><path d="M13.848,-0.234C13.686,-0.39 13.605,-0.6 13.605,-0.864L13.605,-11.844C13.605,-12.12 13.689,-12.345 13.857,-12.519C14.025,-12.693 14.247,-12.78 14.523,-12.78C14.811,-12.78 15.039,-12.696 15.207,-12.528C15.375,-12.36 15.459,-12.132 15.459,-11.844L15.459,-1.548L20.931,-1.548C21.207,-1.548 21.42,-1.482 21.57,-1.35C21.72,-1.218 21.795,-1.026 21.795,-0.774C21.795,-0.522 21.72,-0.33 21.57,-0.198C21.42,-0.066 21.207,0 20.931,0L14.505,0C14.229,0 14.01,-0.078 13.848,-0.234Z" style="fill-rule:nonzero;"/><path d="M25.059,-0.648C24.177,-1.176 23.496,-1.926 23.016,-2.898C22.536,-3.87 22.296,-5.016 22.296,-6.336C22.296,-7.668 22.533,-8.823 23.007,-9.801C23.481,-10.779 24.162,-11.529 25.05,-12.051C25.938,-12.573 26.982,-12.834 28.182,-12.834C29.394,-12.834 30.444,-12.573 31.332,-12.051C32.22,-11.529 32.901,-10.779 33.375,-9.801C33.849,-8.823 34.086,-7.674 34.086,-6.354C34.086,-5.034 33.849,-3.885 33.375,-2.907C32.901,-1.929 32.22,-1.176 31.332,-0.648C30.444,-0.12 29.394,0.144 28.182,0.144C26.982,0.144 25.941,-0.12 25.059,-0.648ZM31.152,-2.664C31.86,-3.528 32.214,-4.758 32.214,-6.354C32.214,-7.95 31.863,-9.177 31.161,-10.035C30.459,-10.893 29.466,-11.322 28.182,-11.322C26.922,-11.322 25.941,-10.893 25.239,-10.035C24.537,-9.177 24.186,-7.95 24.186,-6.354C24.186,-4.758 24.537,-3.528 25.239,-2.664C25.941,-1.8 26.922,-1.368 28.182,-1.368C29.454,-1.368 30.444,-1.8 31.152,-2.664Z" style="fill-rule:nonzero;"/><path d="M37.773,-1.17C36.897,-2.046 36.459,-3.336 36.459,-5.04L36.459,-11.844C36.459,-12.132 36.543,-12.36 36.711,-12.528C36.879,-12.696 37.101,-12.78 37.377,-12.78C37.653,-12.78 37.875,-12.696 38.043,-12.528C38.211,-12.36 38.295,-12.132 38.295,-11.844L38.295,-4.914C38.295,-3.75 38.574,-2.868 39.132,-2.268C39.69,-1.668 40.521,-1.368 41.625,-1.368C42.717,-1.368 43.545,-1.668 44.109,-2.268C44.673,-2.868 44.955,-3.75 44.955,-4.914L44.955,-11.844C44.955,-12.12 45.039,-12.345 45.207,-12.519C45.375,-12.693 45.597,-12.78 45.873,-12.78C46.149,-12.78 46.371,-12.696 46.539,-12.528C46.707,-12.36 46.791,-12.132 46.791,-11.844L46.791,-5.04C46.791,-3.348 46.35,-2.061 45.468,-1.179C44.586,-0.297 43.305,0.144 41.625,0.144C39.933,0.144 38.649,-0.294 37.773,-1.17Z" style="fill-rule:nonzero;"/><path d="M49.839,-0.243C49.677,-0.405 49.596,-0.624 49.596,-0.9L49.596,-11.79C49.596,-12.066 49.677,-12.285 49.839,-12.447C50.001,-12.609 50.226,-12.69 50.514,-12.69L54.042,-12.69C56.094,-12.69 57.684,-12.138 58.812,-11.034C59.94,-9.93 60.504,-8.37 60.504,-6.354C60.504,-4.338 59.94,-2.775 58.812,-1.665C57.684,-0.555 56.094,0 54.042,0L50.514,0C50.226,0 50.001,-0.081 49.839,-0.243ZM53.934,-1.548C57.054,-1.548 58.614,-3.15 58.614,-6.354C58.614,-9.546 57.054,-11.142 53.934,-11.142L51.45,-11.142L51.45,-1.548L53.934,-1.548Z" style="fill-rule:nonzero;"/></g></g></g></g></svg>