<?xml version="1.0" encoding="UTF-8" standalone="no"?>
<svg width="126px" height="126px" viewBox="0 0 126 126" version="1.1" xmlns="http://www.w3.org/2000/svg" xmlns:xlink="http://www.w3.org/1999/xlink">
    <!-- Generator: Sketch 50.2 (55047) - http://www.bohemiancoding.com/sketch -->
    <title>Group 96</title>
    <desc>Created with Sketch.</desc>
    <defs></defs>
    <g id="Page-1" stroke="none" stroke-width="1" fill="none" fill-rule="evenodd">
        <g id="Group-96" transform="translate(3.000000, 3.000000)">
            <circle id="Oval-11" stroke="#FE791A" stroke-width="6" cx="60" cy="60" r="60"></circle>
            <g id="Group-Copy-2" transform="translate(29.004266, 31.077649)" fill="#FE791A">
                <path d="M55.4030232,34.4052235 L9.92561536,34.4052235 C6.62160026,34.4052235 3.93315464,31.6944488 3.93315464,28.362992 C3.93315464,25.0315352 6.62160026,22.3207606 9.92561536,22.3207606 L12.5255606,22.3207606 L12.1990924,24.2363482 C11.9099911,26.1321058 12.4547602,28.0556255 13.6937659,29.5111548 C14.9347382,30.9686672 16.7362131,31.8035144 18.6379885,31.8035144 L46.6926167,31.8035144 C48.5963587,31.8035144 50.3998003,30.9666842 51.6368393,29.5091718 C52.875845,28.0536425 53.4206141,26.1301228 53.1236461,24.2006541 L52.803078,22.3207606 L55.4030232,22.3207606 C58.7070383,22.3207606 61.3954839,25.0315352 61.3954839,28.362992 C61.3954839,31.6944488 58.7070383,34.4052235 55.4030232,34.4052235 M16.0793435,24.8728944 L18.9369232,8.13232401 C19.3066582,5.72494987 21.3244674,3.97791806 23.7375785,3.97791806 C24.1663138,3.97791806 25.4643197,4.164321 28.2353657,5.88160766 C30.998545,7.59691131 34.4480941,7.63062248 37.2388068,5.96687709 C40.5349552,4.00171418 41.5517265,3.97791806 41.5930267,3.97791806 C44.0848048,3.97791806 46.0121469,5.64761248 46.3976154,8.16801819 L49.243395,24.8391833 C49.3594289,25.6026421 49.1489946,26.3442879 48.6514257,26.9272928 C48.1538567,27.5122808 47.4576535,27.8355114 46.6926167,27.8355114 L18.6379885,27.8355114 C17.8729517,27.8355114 17.1767485,27.5122808 16.6791796,26.9272928 C16.1816106,26.3442879 15.9692096,25.6006591 16.0793435,24.8728944 M52.1265415,18.3547406 L50.2798331,7.52750596 C49.6052633,3.10341065 46.0318137,0.01189806 41.5930267,0.01189806 C40.6922893,0.01189806 39.0540485,0.27563839 35.2386977,2.55411688 C33.7105907,3.46431847 31.8166821,3.44647138 30.2944751,2.50454163 C27.5922628,0.82691517 25.4466196,0.01189806 23.7375785,0.01189806 C19.3695918,0.01189806 15.7155085,3.172816 15.0566721,7.49379479 L13.202097,18.3547406 L9.92561536,18.3547406 C4.45235701,18.3547406 -0.000196667565,22.8442752 -0.000196667565,28.362992 C-0.000196667565,33.8817089 4.45235701,38.3712435 9.92561536,38.3712435 L55.4030232,38.3712435 C60.8762815,38.3712435 65.3288352,33.8817089 65.3288352,28.362992 C65.3288352,22.8442752 60.8762815,18.3547406 55.4030232,18.3547406 L52.1265415,18.3547406 Z" id="Fill-14"></path>
                <path d="M52.3003957,44.047213 C52.3003957,48.7350487 48.6856458,52.6376124 44.2389922,52.7446949 C40.3213743,52.8874716 36.8226583,50.1033256 35.9710877,46.2344731 C35.6328195,44.6936743 34.2423798,43.5752567 32.6651059,43.5752567 C31.064232,43.5752567 29.7052591,44.6678952 29.3610908,46.2324901 C28.5055869,50.1033256 25.0501378,52.8497944 21.089253,52.7446949 C16.6445661,52.6376124 13.0298162,48.7350487 13.0298162,44.047213 L13.0298162,43.2659071 C13.0298162,43.0973513 13.1674835,42.9565575 13.3366176,42.9565575 L51.9935943,42.9565575 C52.1627284,42.9565575 52.3003957,43.0973513 52.3003957,43.2659071 L52.3003957,44.047213 Z M51.9935943,38.9905375 L13.3366176,38.9905375 C10.9982403,38.9905375 9.0964649,40.9100912 9.0964649,43.2659071 L9.0964649,44.047213 C9.0964649,50.8707505 14.4340226,56.5520741 20.9948526,56.7107149 C26.2281765,56.7979674 30.8301976,53.6251514 32.6651059,48.8698934 C34.4626475,53.5359159 38.9702681,56.7146809 44.0383912,56.7146809 C44.136725,56.7146809 44.2350588,56.7126979 44.3353593,56.7107149 C50.8961892,56.5520741 56.233747,50.8707505 56.233747,44.047213 L56.233747,43.2659071 C56.233747,40.9100912 54.3319716,38.9905375 51.9935943,38.9905375 Z" id="Fill-17"></path>
            </g>
        </g>
    </g>
</svg>