<?xml version="1.0" encoding="UTF-8" standalone="no"?>
<svg width="126px" height="126px" viewBox="0 0 126 126" version="1.1" xmlns="http://www.w3.org/2000/svg" xmlns:xlink="http://www.w3.org/1999/xlink">
    <!-- Generator: Sketch 50.2 (55047) - http://www.bohemiancoding.com/sketch -->
    <title>Group 94</title>
    <desc>Created with Sketch.</desc>
    <defs></defs>
    <g id="Page-1" stroke="none" stroke-width="1" fill="none" fill-rule="evenodd">
        <g id="Group-94" transform="translate(3.000000, 3.000000)">
            <g id="Group-102">
                <circle id="Oval-11" stroke="#FE791A" stroke-width="6" cx="60" cy="60" r="60"></circle>
                <g id="Group-101" transform="translate(28.822201, 28.760178)" fill="#FE791A" fill-rule="nonzero">
                    <path d="M20.2845707,4.98910844 L5.18139589,19.819406 C5.05697454,19.9415794 4.98632967,20.1078787 4.98481083,20.2817851 L4.80002526,41.4396348 C4.7985065,41.6135323 4.86622893,41.7810208 4.98848175,41.9053293 L19.8303303,56.9967497 C19.9529395,57.1214207 20.1203484,57.1924262 20.2956639,57.193955 L41.469993,57.3785967 C41.6453173,57.3801256 41.8139585,57.3120432 41.9387424,57.1895137 L57.0419172,42.3592162 C57.1663386,42.2370428 57.2369835,42.0707434 57.2385023,41.8968371 L57.4232879,20.7389874 C57.4248066,20.5650899 57.3570842,20.3976014 57.2348314,20.2732929 L42.3929828,5.18187244 C42.2703736,5.05720154 42.1029647,4.98619597 41.9276492,4.9846672 L20.7533201,4.80002545 C20.5779958,4.7984966 20.4093547,4.86657902 20.2845707,4.98910844 Z M41.969504,0.184849688 C43.4170327,0.197472249 44.8003745,0.784209018 45.8152752,1.81617566 L60.6571238,16.9075961 C61.6723808,17.9399251 62.2357484,19.3332237 62.2231048,20.7809074 L62.0383193,41.9387571 C62.0256757,43.3864319 61.438066,44.7696764 60.4049489,45.7841276 L45.3017741,60.6144251 C44.2690196,61.6285203 42.8756581,62.1910367 41.4281382,62.1784143 L20.2538091,61.9937725 C18.8062804,61.9811499 17.4229386,61.3944132 16.4080379,60.3624465 L1.56618937,45.2710261 C0.550932343,44.2386971 -0.0124352727,42.8453985 0.000208311669,41.3977148 L0.184993882,20.2398651 C0.197637389,18.7921903 0.785247153,17.4089458 1.81836423,16.3944946 L16.921539,1.56419705 C17.9542935,0.55010193 19.3476551,-0.0124145517 20.7951749,0.000207931273 L41.969504,0.184849688 Z" id="Polygon-Copy"></path>
                    <path d="M27.5944513,31.050587 L18.3777991,21.8339348 L21.7719116,18.4398222 L30.9885639,27.6564744 L41.0052161,17.6398222 L44.3993286,21.0339348 L34.3826764,31.050587 L44.3993286,41.0672392 L41.0052161,44.4613518 L30.9885639,34.4446995 L21.7719116,43.6613518 L18.3777991,40.2672392 L27.5944513,31.050587 Z" id="Combined-Shape"></path>
                </g>
            </g>
            <g id="Group-81" transform="translate(28.822201, 28.760178)"></g>
        </g>
    </g>
</svg>