<?xml version="1.0" encoding="UTF-8" standalone="no"?>
<svg width="126px" height="126px" viewBox="0 0 126 126" version="1.1" xmlns="http://www.w3.org/2000/svg" xmlns:xlink="http://www.w3.org/1999/xlink">
    <!-- Generator: Sketch 50.2 (55047) - http://www.bohemiancoding.com/sketch -->
    <title>Group 98</title>
    <desc>Created with Sketch.</desc>
    <defs></defs>
    <g id="Page-1" stroke="none" stroke-width="1" fill="none" fill-rule="evenodd">
        <g id="Group-98" transform="translate(3.000000, 3.000000)">
            <circle id="Oval-11" stroke="#FE791A" stroke-width="6" cx="60" cy="60" r="60"></circle>
            <g id="Group-82" transform="translate(31.946319, 33.403365)" fill="#FE791A">
                <g id="Files-Copy" fill-rule="nonzero">
                    <path d="M22.1978609,5.4 L8.69308572,5.4 C6.8755007,5.4 5.4,6.87862022 5.4,8.70512212 L5.4,42.460428 C5.4,44.2869299 6.8755007,45.7655501 8.69308572,45.7655501 L16.9709965,45.7655501 L16.9709965,50.5655501 L8.69308572,50.5655501 C4.2222619,50.5655501 0.6,46.93563 0.6,42.460428 L0.6,8.70512212 C0.6,4.22992013 4.2222619,0.6 8.69308572,0.6 L22.570361,0.6 C23.2767249,0.6 23.96723,0.80943572 24.5545779,1.20182886 L30.7700964,5.35426843 L48.070262,5.35426843 C53.5891539,5.35426843 58.0610429,9.83561195 58.0610429,15.3610979 L58.0610429,42.460428 C58.0610429,46.93563 54.438781,50.5655501 49.9679572,50.5655501 L41.6678774,50.5655501 L41.6678774,45.7655501 L49.9679572,45.7655501 C51.7855422,45.7655501 53.2610429,44.2869299 53.2610429,42.460428 L53.2610429,15.3610979 C53.2610429,12.484312 50.9359151,10.1542684 48.070262,10.1542684 L30.3975962,10.1542684 C29.6912323,10.1542684 29.0007272,9.94483271 28.4133793,9.55243957 L22.1978609,5.4 Z" id="Combined-Shape"></path>
                    <path d="M22.1978609,12.5314026 L8.69308572,12.5314026 C6.8755007,12.5314026 5.4,14.0100229 5.4,15.8365248 L0.6,15.8365248 C0.6,11.3613228 4.2222619,7.73140264 8.69308572,7.73140264 L22.570361,7.73140264 C23.2767249,7.73140264 23.96723,7.94083836 24.5545779,8.33323151 L30.7700964,12.4856711 L48.070262,12.4856711 C51.8604472,12.4856711 55.271963,14.6197526 56.9675654,17.9370296 L52.6935339,20.1216702 C51.8102528,18.3936189 50.0391014,17.2856711 48.070262,17.2856711 L30.2198767,17.2856711 C29.6293861,17.2856711 29.0521529,17.1105916 28.5611547,16.7825674 L22.1978609,12.5314026 Z" id="Combined-Shape-Copy-2" transform="translate(28.783783, 13.926536) scale(1, -1) translate(-28.783783, -13.926536) "></path>
                </g>
                <g id="Group-Copy-3" transform="translate(17.481787, 26.240526)" stroke="#FE791A" stroke-width="1.46484375">
                    <path d="M20.1389914,9.51319785 L21.0860884,9.51319785 C22.9147644,9.51319785 24.4298912,10.9573839 24.4298912,12.734717 L24.4298912,23.662001 C24.4298912,25.4393319 22.9147594,26.8835466 21.0860884,26.8835466 L2.61138094,26.8835466 C0.782709968,26.8835466 -0.732421875,25.4393319 -0.732421875,23.662001 L-0.732421875,12.734717 C-0.732421875,10.9573839 0.782704891,9.51319785 2.61138094,9.51319785 L3.55847792,9.51319785 L3.55847792,7.19877072 C3.55847792,2.80987069 7.27478392,-0.732421875 11.8433169,-0.732421875 C16.4136293,-0.732421875 20.1389914,2.81148715 20.1389914,7.19877072 L20.1389914,9.51319785 Z M6.73257724,9.44934734 L16.9160094,9.44934734 L16.9160094,7.13492022 C16.9160094,4.46049094 14.6657257,2.32109068 11.8188755,2.32109068 C8.97454171,2.32109068 6.73257724,4.45807259 6.73257724,7.13492022 L6.73257724,9.44934734 Z M2.54439387,12.4885711 C2.43991331,12.4885711 2.3991317,12.5274431 2.3991317,12.5927272 L2.3991317,23.5200111 C2.3991317,23.5853047 2.43992899,23.6241937 2.54439387,23.6241937 L21.0191013,23.6241937 C21.1235662,23.6241937 21.1643635,23.5853047 21.1643635,23.5200111 L21.1643635,12.5927272 C21.1643635,12.5274431 21.1235819,12.4885711 21.0191013,12.4885711 L2.54439387,12.4885711 Z" id="Shape" fill-rule="nonzero"></path>
                    <path d="M14.6403767,16.9495758 C14.6403767,17.6994787 14.2923469,18.3683874 13.7113052,18.8191941 C13.6187908,18.8921393 13.5693081,18.9946002 13.5712637,19.1115999 L13.5712637,21.3446723 C13.5712637,21.8254144 13.2267011,22.1872621 12.7377095,22.1872621 L11.5674641,22.1872621 C11.078555,22.1872621 10.7339099,21.8253257 10.7339099,21.3446723 L10.7339285,19.1063839 C10.7346756,19.0014699 10.6832614,18.8985581 10.5839019,18.8226992 C10.0019318,18.3711172 9.6647968,17.7018904 9.6647968,16.9495758 C9.6647968,15.5915925 10.7615273,14.5370926 12.145363,14.5370926 C13.5283047,14.5370926 14.6403767,15.5970956 14.6403767,16.9495758 Z" id="Combined-Shape"></path>
                </g>
            </g>
        </g>
    </g>
</svg>