<?xml version="1.0" encoding="UTF-8" standalone="no"?>
<svg width="256px" height="56px" viewBox="0 0 256 56" version="1.1" xmlns="http://www.w3.org/2000/svg" xmlns:xlink="http://www.w3.org/1999/xlink">
    <!-- Generator: Sketch 50.2 (55047) - http://www.bohemiancoding.com/sketch -->
    <title>Group 103</title>
    <desc>Created with Sketch.</desc>
    <defs>
        <path d="M14,0 L242,0 C249.731986,-1.42034288e-15 256,6.2680135 256,14 L256,42 C256,49.7319865 249.731986,56 242,56 L14,56 C6.2680135,56 9.46895252e-16,49.7319865 0,42 L0,14 C-9.46895252e-16,6.2680135 6.2680135,1.42034288e-15 14,0 Z" id="path-1"></path>
        <mask id="mask-2" maskContentUnits="userSpaceOnUse" maskUnits="objectBoundingBox" x="0" y="0" width="256" height="56" fill="white">
            <use xlink:href="#path-1"></use>
        </mask>
    </defs>
    <g id="Page-1" stroke="none" stroke-width="1" fill="none" fill-rule="evenodd">
        <g id="Group-103">
            <g id="Box_Secure_Mobile_Access" transform="translate(78.000000, 12.000000)" fill="#AFB0B1" fill-rule="nonzero">
                <path d="M18.3771135,31.4541294 L4.69202899,31.4541294 C1.95501208,31.4541294 0,29.4882463 0,26.73601 L0,20.8383607 C0,18.0861244 1.95501208,16.1202413 4.69202899,16.1202413 L18.3771135,16.1202413 C21.1141304,16.1202413 23.0691425,18.0861244 23.0691425,20.8383607 L23.0691425,26.73601 C23.4601449,29.4882463 21.1141304,31.4541294 18.3771135,31.4541294 Z M50.0483092,31.4541294 L36.3632246,31.4541294 C33.6262077,31.4541294 31.6711957,29.4882463 31.6711957,26.73601 L31.6711957,20.8383607 C31.6711957,18.0861244 33.6262077,16.1202413 36.3632246,16.1202413 L50.0483092,16.1202413 C52.7853261,16.1202413 54.7403382,18.0861244 54.7403382,20.8383607 L54.7403382,26.73601 C54.7403382,29.4882463 52.7853261,31.4541294 50.0483092,31.4541294 Z M85.629529,17.6929478 L102.442633,17.6929478 L102.442633,31.4541294 L85.629529,31.4541294 L85.629529,17.6929478 Z M106.352657,17.6929478 L123.165761,17.6929478 L123.165761,31.4541294 L106.352657,31.4541294 L106.352657,17.6929478 Z M85.629529,0 L102.442633,0 L102.442633,13.7611816 L85.629529,13.7611816 L85.629529,0 Z M127.075785,13.7611816 L127.466787,13.7611816 L127.466787,0 L137.63285,0 C140.369867,0 142.324879,1.96588309 142.324879,4.71811941 L142.324879,13.7611816 L127.075785,13.7611816 Z M81.7195048,17.6929478 L81.7195048,31.4541294 L70.7714372,31.4541294 C68.0344203,31.4541294 66.0794082,29.4882463 66.0794082,26.73601 L66.0794082,17.6929478 L81.7195048,17.6929478 Z M127.075785,17.6929478 L141.933877,17.6929478 L141.933877,26.73601 C141.933877,29.4882463 139.978865,31.4541294 137.241848,31.4541294 L127.075785,31.4541294 L127.075785,17.6929478 Z M81.7195048,13.7611816 L66.0794082,13.7611816 L66.0794082,4.71811941 C66.0794082,1.96588309 68.0344203,0 70.7714372,0 L81.7195048,0 L81.7195048,13.7611816 Z M106.352657,0 L123.165761,0 L123.165761,13.7611816 L106.352657,13.7611816 L106.352657,0 Z" id="Combined-Shape"></path>
            </g>
            <use id="Rectangle-29" stroke="#636569" mask="url(#mask-2)" stroke-width="12" stroke-dasharray="10,2" xlink:href="#path-1"></use>
            <path d="M27,10 L27,49" id="Line-32" stroke="#636569" stroke-width="6" stroke-linecap="square" stroke-dasharray="3,8"></path>
            <path d="M21,21 L6,21" id="Line-32" stroke="#636569" stroke-width="6" stroke-linecap="square" stroke-dasharray="1,9"></path>
            <path d="M21,37 L6,37" id="Line-32" stroke="#636569" stroke-width="6" stroke-linecap="square" stroke-dasharray="1,9"></path>
            <path d="M247,21 L232,21" id="Line-32" stroke="#636569" stroke-width="6" stroke-linecap="square" stroke-dasharray="2,8"></path>
            <path d="M247,37 L232,37" id="Line-32" stroke="#636569" stroke-width="6" stroke-linecap="square" stroke-dasharray="2,8"></path>
            <path d="M230.5,9.99675338 L230.5,48.5" id="Line-32" stroke="#636569" stroke-width="6" stroke-linecap="square" stroke-dasharray="3,8"></path>
        </g>
    </g>
</svg>