<?xml version="1.0" encoding="UTF-8" standalone="no"?>
<svg width="184px" height="122px" viewBox="0 0 184 122" version="1.1" xmlns="http://www.w3.org/2000/svg" xmlns:xlink="http://www.w3.org/1999/xlink">
    <!-- Generator: Sketch 50.2 (55047) - http://www.bohemiancoding.com/sketch -->
    <title>Shape</title>
    <desc>Created with Sketch.</desc>
    <defs></defs>
    <g id="Page-1" stroke="none" stroke-width="1" fill="none" fill-rule="evenodd">
        <path d="M80.5595855,11.0103125 C99.626943,11.0103125 115.357513,23.9354618 119.647668,41.6477036 C122.507772,39.7328667 126.321244,38.7754482 129.658031,38.7754482 C140.621762,38.7754482 149.678756,47.8709237 149.678756,58.8812361 C149.678756,60.7960731 149.202073,62.71091 148.725389,64.625747 C149.202073,64.625747 149.202073,64.625747 149.678756,64.625747 C162.072539,64.625747 172.559585,74.678641 172.559585,87.6037904 C172.559585,100.050231 162.549223,110.581834 149.678756,110.581834 L42.4248705,110.581834 C24.7875648,110.581834 10.9637306,96.2205566 10.9637306,78.9870241 C10.9637306,62.2322008 23.8341969,48.3496329 40.0414508,47.3922145 C42.9015544,26.8077173 60.0621762,11.0103125 80.5595855,11.0103125 M80.5595855,0 C57.2020725,0 37.1813472,15.7974048 30.984456,37.3393205 C12.8704663,42.6051221 0,59.3599454 0,78.5083149 C0,102.443777 19.0673575,121.592146 42.9015544,121.592146 L150.15544,121.592146 C168.746114,121.592146 184,106.273451 184,87.6037904 C184,72.2850948 173.989637,59.8386546 160.642487,55.0515623 C158.735751,39.7328667 145.388601,27.7651357 129.658031,27.7651357 C128.704663,27.7651357 127.274611,27.7651357 126.321244,27.7651357 C117.740933,11.0103125 100.103627,0 80.5595855,0" id="Shape" fill="#68696B" fill-rule="nonzero"></path>
    </g>
</svg>